<?xml version="1.0" encoding="UTF-8"?>
<svg id="Layer_1" xmlns="http://www.w3.org/2000/svg" xmlns:xlink="http://www.w3.org/1999/xlink" version="1.1" viewBox="0 0 800 400">
  <!-- Generator: Adobe Illustrator 29.7.1, SVG Export Plug-In . SVG Version: 2.1.1 Build 8)  -->
  <defs>
    <style>
      .st0 {
        fill: url(#ACES_Gradient);
      }

      .st1 {
        fill: url(#Gold_Gradient);
      }
    </style>
    <linearGradient id="Gold_Gradient" data-name="Gold Gradient" x1="33.35" y1="157.83" x2="262.45" y2="157.83" gradientUnits="userSpaceOnUse">
      <stop offset="0" stop-color="#f2de9a"/>
      <stop offset=".4" stop-color="#e1c576"/>
      <stop offset="1" stop-color="#b99d5d"/>
    </linearGradient>
    <linearGradient id="ACES_Gradient" data-name="ACES Gradient" x1="232.79" y1="164.91" x2="766.65" y2="164.91" gradientUnits="userSpaceOnUse">
      <stop offset="0" stop-color="#ad2890"/>
      <stop offset=".52" stop-color="#1bbdef"/>
      <stop offset="1" stop-color="#fde500"/>
    </linearGradient>
  </defs>
  <g>
    <path class="st1" d="M198.81,225.71h-100.76l-25.81,56.92h-38.89L150.73,33.04l111.72,249.6h-38.89l-24.75-56.92ZM184.31,191.77l-35-79.9-36.41,79.9h71.41Z"/>
    <path class="st0" d="M583.28,80.76h-94.04v59.75h91.21v33.94h-91.21v74.24h94.04v33.94h-130.1V46.82h130.1v33.94ZM731.29,99.15c-2.12-5.3-5.3-10.25-10.61-14.85-7.42-6.01-15.2-8.48-25.45-8.48-21.92,0-33.23,13.08-33.23,28.28,0,7.07,2.47,19.44,25.45,28.64l23.69,9.55c43.49,17.68,55.51,42.42,55.51,69.29,0,44.9-31.82,75.66-76.01,75.66-27.22,0-43.49-10.25-55.51-23.69-12.73-14.14-18.38-29.7-19.8-45.96l35.71-7.78c0,11.67,4.24,22.63,9.9,30.05,6.72,8.48,16.62,14.14,30.76,14.14,21.92,0,38.89-15.91,38.89-39.6s-18.38-33.94-33.94-40.3l-22.63-9.55c-19.44-8.13-48.08-24.39-48.08-59.75,0-31.82,24.75-62.22,68.94-62.22,25.46,0,39.95,9.55,47.37,15.91,6.37,5.66,13.08,13.79,18.03,23.69l-28.99,16.97ZM351.84,75.81c13.43,0,37.83,2.47,63.99,26.16v-42.42c-20.51-13.08-41.36-16.97-62.93-16.97-32.53,0-60.81,7.78-85.2,30.76-15.03,14.23-29.03,34.98-34.91,63.17l62.23,137.62c14.31,7.35,32.85,13.1,56.12,13.1,16.26,0,41.01-3.54,64.7-17.68v-42.78c-13.44,12.73-35.35,27.22-63.64,27.22-50.2,0-86.26-38.54-86.26-88.38s34.65-89.8,85.91-89.8Z"/>
  </g>
  <g>
    <path d="M44.04,360.53h-11.29l-2.89,6.38h-4.36l13.16-27.98,12.52,27.98h-4.36l-2.77-6.38ZM42.42,356.73l-3.92-8.96-4.08,8.96h8Z"/>
    <path d="M77.05,346.67c-2.93-2.66-5.67-2.93-7.17-2.93-5.75,0-9.63,4.24-9.63,10.07s4.04,9.91,9.67,9.91c3.17,0,5.63-1.62,7.13-3.05v4.79c-2.66,1.58-5.43,1.98-7.25,1.98-4.79,0-7.81-2.18-9.35-3.65-3.09-2.89-4.24-6.26-4.24-9.99,0-4.87,2.02-8.24,4.24-10.34,2.73-2.58,5.9-3.45,9.55-3.45,2.42,0,4.76.44,7.05,1.9v4.76Z"/>
    <path d="M100.54,360.53h-11.29l-2.89,6.38h-4.36l13.16-27.98,12.52,27.98h-4.36l-2.77-6.38ZM98.92,356.73l-3.92-8.96-4.08,8.96h8Z"/>
    <path d="M119.52,340.48c3.69,0,6.9.4,9.83,2.58,3.21,2.42,5.07,6.26,5.07,10.66s-1.82,8.2-5.31,10.66c-3.09,2.18-5.98,2.54-9.67,2.54h-5.47v-26.43h5.55ZM118.01,363.11h1.74c1.98,0,4.72-.16,7.01-1.86,1.82-1.39,3.61-3.92,3.61-7.53s-1.66-6.22-3.57-7.61c-2.3-1.66-5.11-1.82-7.05-1.82h-1.74v18.82Z"/>
    <path d="M157.04,344.29h-10.54v6.7h10.22v3.8h-10.22v8.32h10.54v3.8h-14.58v-26.43h14.58v3.8Z"/>
    <path d="M164.45,366.91l5.55-28.41,9.19,20.53,9.27-20.53,4.99,28.41h-4.12l-2.69-15.93-7.69,17.16-7.61-17.2-2.77,15.97h-4.12Z"/>
    <path d="M207.48,355.5l-8.68-15.02h4.6l6.1,10.58,6.1-10.58h4.6l-8.68,15.02v11.41h-4.04v-11.41Z"/>
    <path d="M258.12,346.67c-2.93-2.66-5.67-2.93-7.17-2.93-5.75,0-9.63,4.24-9.63,10.07s4.04,9.91,9.67,9.91c3.17,0,5.63-1.62,7.13-3.05v4.79c-2.66,1.58-5.43,1.98-7.25,1.98-4.79,0-7.81-2.18-9.35-3.65-3.09-2.89-4.24-6.26-4.24-9.99,0-4.87,2.02-8.24,4.24-10.34,2.73-2.58,5.9-3.45,9.55-3.45,2.42,0,4.76.44,7.05,1.9v4.76Z"/>
    <path d="M292.31,353.72c0,7.77-5.83,13.71-13.75,13.71s-13.75-5.94-13.75-13.71,5.82-13.71,13.75-13.71,13.75,5.94,13.75,13.71ZM288.27,353.72c0-5.86-4.04-9.99-9.71-9.99s-9.71,4.12-9.71,9.99,4.04,9.99,9.71,9.99,9.71-4.12,9.71-9.99Z"/>
    <path d="M304.39,340.48v22.63h7.77v3.8h-11.81v-26.43h4.04Z"/>
    <path d="M345.17,353.72c0,7.77-5.83,13.71-13.75,13.71s-13.75-5.94-13.75-13.71,5.83-13.71,13.75-13.71,13.75,5.94,13.75,13.71ZM341.12,353.72c0-5.86-4.04-9.99-9.71-9.99s-9.71,4.12-9.71,9.99,4.04,9.99,9.71,9.99,9.71-4.12,9.71-9.99Z"/>
    <path d="M357.92,340.48c3.21,0,5.27.4,6.97,1.55,2.89,1.94,3.13,5.07,3.13,6.22,0,3.8-2.34,6.58-5.86,7.37l8.24,11.29h-4.87l-7.57-10.82h-.71v10.82h-4.04v-26.43h4.72ZM357.25,352.61h1.27c1.11,0,5.63-.12,5.63-4.32,0-3.72-3.53-4.08-5.51-4.08h-1.39v8.4Z"/>
    <path d="M404.12,344.29h-10.54v6.7h10.22v3.8h-10.22v8.32h10.54v3.8h-14.58v-26.43h14.58v3.8Z"/>
    <path d="M412.32,366.91v-28.21l19.18,20.09v-18.31h4.04v28.06l-19.18-20.09v18.47h-4.04Z"/>
    <path d="M464.43,346.67c-2.93-2.66-5.67-2.93-7.17-2.93-5.75,0-9.63,4.24-9.63,10.07s4.04,9.91,9.67,9.91c3.17,0,5.63-1.62,7.13-3.05v4.79c-2.66,1.58-5.43,1.98-7.25,1.98-4.79,0-7.81-2.18-9.35-3.65-3.09-2.89-4.24-6.26-4.24-9.99,0-4.87,2.02-8.24,4.24-10.34,2.73-2.58,5.9-3.45,9.55-3.45,2.42,0,4.75.44,7.05,1.9v4.76Z"/>
    <path d="M498.62,353.72c0,7.77-5.83,13.71-13.75,13.71s-13.75-5.94-13.75-13.71,5.83-13.71,13.75-13.71,13.75,5.94,13.75,13.71ZM494.58,353.72c0-5.86-4.04-9.99-9.71-9.99s-9.71,4.12-9.71,9.99,4.04,9.99,9.71,9.99,9.71-4.12,9.71-9.99Z"/>
    <path d="M512.21,340.48c3.69,0,6.9.4,9.83,2.58,3.21,2.42,5.07,6.26,5.07,10.66s-1.82,8.2-5.31,10.66c-3.09,2.18-5.98,2.54-9.67,2.54h-5.47v-26.43h5.55ZM510.7,363.11h1.74c1.98,0,4.71-.16,7.01-1.86,1.82-1.39,3.61-3.92,3.61-7.53s-1.67-6.22-3.57-7.61c-2.3-1.66-5.11-1.82-7.05-1.82h-1.74v18.82Z"/>
    <path d="M539.19,340.48v26.43h-4.04v-26.43h4.04Z"/>
    <path d="M548.5,366.91v-28.21l19.18,20.09v-18.31h4.04v28.06l-19.18-20.09v18.47h-4.04Z"/>
    <path d="M594.7,353.16h10.9v.2c0,4.52-1.35,8.2-3.92,10.7-2.73,2.66-5.98,3.37-9,3.37-3.84,0-6.58-1.11-9-3.61-2.58-2.66-3.92-6.18-3.92-9.99,0-4.12,1.66-7.69,3.84-9.87,2.26-2.3,5.86-3.96,9.95-3.96,2.38,0,4.83.52,6.9,1.67,2.18,1.23,3.53,2.77,4.28,3.96l-3.21,2.26c-.79-1.11-1.98-2.3-3.25-3.01-1.47-.87-3.05-1.15-4.68-1.15-3.45,0-5.67,1.43-6.97,2.73-1.74,1.74-2.81,4.56-2.81,7.41,0,2.66.99,5.31,2.73,7.17,1.82,1.94,4.08,2.66,6.62,2.66,2.3,0,4.2-.67,5.9-2.34,1.47-1.43,2.06-2.97,2.22-4.48h-6.58v-3.73Z"/>
    <path d="M637.25,346.35c-.24-.59-.59-1.15-1.19-1.66-.83-.67-1.7-.95-2.85-.95-2.46,0-3.73,1.47-3.73,3.17,0,.79.28,2.18,2.85,3.21l2.66,1.07c4.87,1.98,6.22,4.76,6.22,7.77,0,5.03-3.57,8.48-8.52,8.48-3.05,0-4.87-1.15-6.22-2.66-1.43-1.58-2.06-3.33-2.22-5.15l4-.87c0,1.31.47,2.54,1.11,3.37.75.95,1.86,1.58,3.45,1.58,2.46,0,4.36-1.78,4.36-4.44s-2.06-3.8-3.8-4.52l-2.54-1.07c-2.18-.91-5.39-2.73-5.39-6.7,0-3.57,2.77-6.97,7.73-6.97,2.85,0,4.48,1.07,5.31,1.78.71.63,1.47,1.55,2.02,2.66l-3.25,1.9Z"/>
    <path d="M654.77,355.5l-8.68-15.02h4.6l6.1,10.58,6.1-10.58h4.6l-8.68,15.02v11.41h-4.04v-11.41Z"/>
    <path d="M685.04,346.35c-.24-.59-.59-1.15-1.19-1.66-.83-.67-1.7-.95-2.85-.95-2.46,0-3.73,1.47-3.73,3.17,0,.79.28,2.18,2.85,3.21l2.66,1.07c4.87,1.98,6.22,4.76,6.22,7.77,0,5.03-3.57,8.48-8.52,8.48-3.05,0-4.87-1.15-6.22-2.66-1.43-1.58-2.06-3.33-2.22-5.15l4-.87c0,1.31.47,2.54,1.11,3.37.75.95,1.86,1.58,3.45,1.58,2.46,0,4.36-1.78,4.36-4.44s-2.06-3.8-3.8-4.52l-2.54-1.07c-2.18-.91-5.39-2.73-5.39-6.7,0-3.57,2.77-6.97,7.73-6.97,2.85,0,4.48,1.07,5.31,1.78.71.63,1.47,1.55,2.02,2.66l-3.25,1.9Z"/>
    <path d="M704.37,344.29v22.63h-4.04v-22.63h-6.06v-3.8h16.17v3.8h-6.06Z"/>
    <path d="M731.55,344.29h-10.54v6.7h10.22v3.8h-10.22v8.32h10.54v3.8h-14.58v-26.43h14.58v3.8Z"/>
    <path d="M738.96,366.91l5.55-28.41,9.19,20.53,9.27-20.53,4.99,28.41h-4.12l-2.7-15.93-7.69,17.16-7.61-17.2-2.77,15.97h-4.12Z"/>
  </g>
</svg>