<?xml version="1.0" encoding="UTF-8" standalone="no"?>
<svg
   xmlns:dc="http://purl.org/dc/elements/1.1/"
   xmlns:cc="http://creativecommons.org/ns#"
   xmlns:rdf="http://www.w3.org/1999/02/22-rdf-syntax-ns#"
   xmlns:svg="http://www.w3.org/2000/svg"
   xmlns="http://www.w3.org/2000/svg"
   version="1.1"
   id="svg4779"
   viewBox="0 0 184.52567 299.99999"
   height="84.666664mm"
   width="52.077244mm">
  <defs
     id="defs4781" />
  <metadata
     id="metadata4784">
    <rdf:RDF>
      <cc:Work
         rdf:about="">
        <dc:format>image/svg+xml</dc:format>
        <dc:type
           rdf:resource="http://purl.org/dc/dcmitype/StillImage" />
        <dc:title></dc:title>
      </cc:Work>
    </rdf:RDF>
  </metadata>
  <g
     transform="translate(846.54852,-119.5051)"
     id="layer1">
    <g
       transform="matrix(1.9238758,0,0,1.9238758,-3194.8596,-1623.1862)"
       id="g4688">
      <path
         id="path4156"
         style="fill:#b49823;fill-opacity:1;fill-rule:nonzero;stroke:none"
         d="m 1266.6954,905.82318 44.355,100.68122 -28.1175,0 -3.665,-8.62122 -4.4687,0 c -0.875,-1.28875 -0.7838,-1.54375 -2.2838,-1.715 -3.3462,-0.175 -3.7925,-0.59875 -3.7925,-3.08375 0,-2.23375 0.9913,-6.43375 1.075,-8.05375 0.091,-2.06375 -0.1725,-2.8275 -0.1725,-4.2875 0,-1.46 0.9713,-3.08875 1.1425,-6.5175 0.18,-3.42625 -0.6387,-5.9025 -0.6387,-5.9025 0.7162,-0.095 1.5875,-0.60375 1.8575,-1.2075 0.3487,-0.8525 1.495,-5.48625 1.495,-7.36625 0,-0.7725 -0.086,-1.455 -0.26,-1.97 -0.8075,-1.89875 -3.1525,-1.56875 -4.2088,-2.78375 -0.3312,-0.37875 -0.5387,-0.3575 -0.5625,-1.725 0.55,-0.75375 0.7188,-1.8875 0.7188,-3.5225 0,-1.36375 -1.0638,-2.41875 -2.4738,-2.41875 -1.415,0 -2.475,1.055 -2.475,2.41875 0,1.635 0.1675,2.76875 0.7188,3.5225 -0.026,1.3675 -0.2338,1.34625 -0.5663,1.725 -1.0537,1.215 -3.3962,0.885 -4.2112,2.78375 -0.17,0.515 -0.2525,1.1975 -0.2525,1.97 0,1.88 1.1437,6.51375 1.4912,7.36625 0.27,0.60375 1.145,1.1125 1.855,1.2075 0,0 -0.8162,2.47625 -0.6375,5.9025 0.1738,3.42875 1.145,5.0575 1.145,6.5175 0,1.46 -0.2662,2.22375 -0.1737,4.2875 0.085,1.62 1.0762,5.82 1.0762,8.05375 0,2.485 -0.445,2.90875 -3.7925,3.08375 -1.4975,0.17125 -1.41,0.42625 -2.2825,1.715 l -4.47,0 -3.6637,8.62122 -28.1188,0 44.3575,-100.68122 z" />
      <path
         id="path4160"
         style="fill:#b49823;fill-opacity:1;fill-rule:nonzero;stroke:none"
         d="m 1314.2582,1002.9225 c -1.2587,0 -2.285,1.0187 -2.285,2.2713 0,1.2574 1.0263,2.2812 2.285,2.2812 1.2513,0 2.27,-1.0238 2.27,-2.2812 0,-1.2526 -1.0187,-2.2713 -2.27,-2.2713 m 0,4.2325 c -1.1,0 -1.9625,-0.8612 -1.9625,-1.9612 0,-1.0751 0.88,-1.9501 1.9625,-1.9501 1.075,0 1.9488,0.875 1.9488,1.9501 0,1.1 -0.8563,1.9612 -1.9488,1.9612" />
      <path
         id="path4164"
         style="fill:#b49823;fill-opacity:1;fill-rule:nonzero;stroke:none"
         d="m 1314.7105,1005.2537 c 0.2137,-0.1275 0.3287,-0.3412 0.3287,-0.6188 0,-0.2625 -0.1,-0.4687 -0.2862,-0.5987 -0.1913,-0.1413 -0.4113,-0.1413 -0.6063,-0.1413 l -0.6549,0 0,2.6038 0.3562,0 0,-1.1325 c 0.058,0 0.1963,0 0.2675,0 l 0.6975,1.125 0.01,0.01 0.3862,0 -0.6812,-1.1713 c 0.061,-0.016 0.125,-0.04 0.1862,-0.076 m -0.515,-0.2375 -0.3475,0 0,-0.7738 0.3238,0 c 0.1112,0 0.2262,0 0.3162,0.048 0.1413,0.064 0.1938,0.2163 0.1938,0.3375 0,0.1226 -0.049,0.23 -0.1363,0.3013 -0.092,0.081 -0.2138,0.087 -0.35,0.087" />
      <path
         id="path4168"
         style="fill:#b49823;fill-opacity:1;fill-rule:nonzero;stroke:none"
         d="m 1225.9905,1056.0803 1.0313,2.7263 -2.0688,0 1.0375,-2.7263 z m -2.6212,5.34 0.59,0 0.7862,-2.0687 2.4825,0 0.7838,2.0687 0.5887,0 -2.61,-6.8325 -2.6212,6.8325 z" />
      <path
         id="path4180"
         style="fill:#b49823;fill-opacity:1;fill-rule:nonzero;stroke:none"
         d="m 1230.9717,1055.4956 -0.55,0 0,2.3975 0.6025,0 c 0.4,0 0.7563,-0.02 1.0888,-0.2676 0.2437,-0.1837 0.3887,-0.5324 0.3887,-0.9375 0,-0.3799 -0.1612,-0.8599 -0.62,-1.0637 -0.2525,-0.1187 -0.5737,-0.13 -0.91,-0.13 m 1.9413,5.9237 -1.8825,-2.9724 -0.6088,0 0,2.9724 -0.57,0 0,-6.47 1.0475,0 c 0.4813,0 1.0275,0 1.4875,0.3326 0.4375,0.3087 0.67,0.8012 0.67,1.4225 0,0.595 -0.2562,1.1212 -0.685,1.4112 -0.2062,0.1388 -0.445,0.23 -0.7225,0.2825 l 1.9125,3.0212 -0.6487,0 z" />
      <path
         id="path4184"
         style="fill:#b49823;fill-opacity:1;fill-rule:nonzero;stroke:none"
         d="m 1234.3024,1054.9466 -0.2087,0.5438 1.6687,0 0,5.9312 0.57,0 0,-5.9312 1.6688,0 0,-0.5438 -3.6988,0 z" />
      <path
         id="path4196"
         style="fill:#b49823;fill-opacity:1;fill-rule:nonzero;stroke:none"
         d="m 1260.4277,1055.4932 1.0563,0 c 0.8862,0 1.4625,0.1937 1.9824,0.665 0.5688,0.5225 0.885,1.2425 0.885,2.0338 0,0.7325 -0.2887,1.4237 -0.8125,1.9474 -0.5249,0.5151 -1.1374,0.7363 -2.0549,0.7363 l -1.0563,0 0,-5.3825 z m 3.4625,0.27 c -0.7312,-0.6763 -1.485,-0.8138 -2.3975,-0.8138 l -1.6375,0 0,6.4713 1.6375,0 c 0.8,0 1.6487,-0.1063 2.4312,-0.86 0.6426,-0.6175 0.9951,-1.4587 0.9951,-2.3687 0,-0.9426 -0.3638,-1.8051 -1.0288,-2.4288" />
      <path
         id="path4200"
         style="fill:#b49823;fill-opacity:1;fill-rule:nonzero;stroke:none"
         d="m 1248.4355,1056.0734 1.03,2.7263 -2.0675,0 1.0375,-2.7263 z m -2.6225,5.3387 0.5925,0 0.785,-2.0662 2.4825,0 0.7825,2.0662 0.59,0 -2.61,-6.8312 -2.6225,6.8312 z" />
      <path
         id="path4204"
         style="fill:#b49823;fill-opacity:1;fill-rule:nonzero;stroke:none"
         d="m 1252.17,1061.4197 0.5688,0 0,-5.2863 5.2912,5.625 0,-6.81 -0.5712,0 0,5.3738 -5.2888,-5.585 0,6.6825 z" />
      <path
         id="path4208"
         style="fill:#b49823;fill-opacity:1;fill-rule:nonzero;stroke:none"
         d="m 1287.3409,1061.4197 0.57,0 0,-5.2863 5.29,5.625 0,-6.81 -0.5713,0 0,5.3738 -5.2887,-5.585 0,6.6825 z" />
      <path
         d="m 1280.0107,1061.4196 0.5688,0 0,-6.4725 -0.5688,0 0,6.4725 z"
         style="fill:#b49823;fill-opacity:1;fill-rule:nonzero;stroke:none"
         id="path4210" />
      <path
         id="path4214"
         style="fill:#b49823;fill-opacity:1;fill-rule:nonzero;stroke:none"
         d="m 1282.5397,1054.9488 0,6.4713 2.8525,0 0.2075,-0.5451 -2.4887,0 0,-2.6462 2.3475,0 0,-0.5462 -2.3475,0 0,-2.19 2.92,0 -0.2088,-0.5438 -3.2825,0 z" />
      <path
         id="path4218"
         style="fill:#b49823;fill-opacity:1;fill-rule:nonzero;stroke:none"
         d="m 1301.3607,1054.9488 0,6.4713 2.8512,0 0.2101,-0.5451 -2.4913,0 0,-2.6462 2.3488,0 0,-0.5462 -2.3488,0 0,-2.19 2.9213,0 -0.2088,-0.5438 -3.2825,0 z" />
      <path
         id="path4230"
         style="fill:#b49823;fill-opacity:1;fill-rule:nonzero;stroke:none"
         d="m 1278.1801,1061.0246 c -0.2925,0.1863 -0.91,0.4988 -1.7912,0.4988 -0.8938,0 -1.7313,-0.3476 -2.3625,-0.9775 -1.3025,-1.3025 -1.3025,-3.4225 0,-4.725 0.6312,-0.6288 1.4687,-0.9776 2.3625,-0.9776 1.2562,0 1.9787,0.6363 1.9787,0.6363 l 0.27,0.7287 c 0,0 -0.92,-0.8149 -2.2487,-0.8149 -0.7413,0 -1.445,0.29 -1.975,0.8175 -0.525,0.5274 -0.815,1.2275 -0.815,1.9725 0,0.745 0.29,1.4462 0.815,1.9712 l 0,0 c 0.53,0.5263 1.2337,0.8163 1.975,0.8163 0.9812,0 1.7437,-0.4463 2.0712,-0.68 l -0.28,0.7312 z" />
      <path
         id="path4234"
         style="fill:#b49823;fill-opacity:1;fill-rule:nonzero;stroke:none"
         d="m 1270.1029,1061.5256 c -0.7825,0 -1.4812,-0.3962 -1.8712,-1.0587 l -0.044,-0.074 0.2488,-0.6387 0.1812,0.2937 c 0.3975,0.6338 0.8613,0.9175 1.5038,0.9175 0.8375,0 1.4675,-0.5625 1.4675,-1.3075 0,-0.7025 -0.7763,-1.0962 -1.29,-1.3575 -0.05,-0.025 -0.099,-0.05 -0.1425,-0.072 -0.043,-0.023 -0.095,-0.048 -0.1538,-0.074 -0.475,-0.2288 -1.4687,-0.7038 -1.4687,-1.7013 0,-0.9337 0.7162,-1.6075 1.6962,-1.6075 0.7288,0 1.2188,0.3825 1.2188,0.3825 l 0.2512,0.6487 c 0,0 -0.7687,-0.4724 -1.495,-0.4724 -0.6387,0 -1.1012,0.4412 -1.1012,1.0487 0,0.62 0.6425,0.9425 1.2137,1.2262 l 0.105,0.053 c 0.044,0.023 0.087,0.044 0.1363,0.068 0.565,0.2737 1.615,0.7862 1.615,1.8925 0,1.0287 -0.91,1.8337 -2.0713,1.8337" />
      <path
         id="path4238"
         style="fill:#b49823;fill-opacity:1;fill-rule:nonzero;stroke:none"
         d="m 1299.6316,1061.0246 c -0.2912,0.1863 -0.9113,0.4988 -1.7925,0.4988 -0.8925,0 -1.7287,-0.3476 -2.36,-0.9775 -1.3025,-1.3025 -1.3025,-3.4225 0,-4.725 0.6313,-0.6288 1.4675,-0.9776 2.36,-0.9776 1.2575,0 1.9825,0.6363 1.9825,0.6363 l 0.2688,0.7287 c 0,0 -0.9225,-0.8149 -2.2513,-0.8149 -0.74,0 -1.4437,0.29 -1.9713,0.8175 -0.5262,0.5274 -0.8174,1.2275 -0.8174,1.9725 0,0.745 0.2912,1.4462 0.8174,1.9712 l 0,0 c 0.5276,0.5263 1.2313,0.8163 1.9713,0.8163 0.985,0 1.745,-0.4463 2.0738,-0.68 l -0.2813,0.7312 z" />
      <path
         id="path4242"
         style="fill:#b49823;fill-opacity:1;fill-rule:nonzero;stroke:none"
         d="m 1307.6299,1061.5256 c -0.7825,0 -1.4838,-0.3962 -1.8737,-1.0587 l -0.043,-0.074 0.2487,-0.6387 0.1825,0.2937 c 0.3963,0.6338 0.8587,0.9175 1.5012,0.9175 0.8375,0 1.4688,-0.5625 1.4688,-1.3075 0,-0.7025 -0.7762,-1.0962 -1.29,-1.3575 -0.051,-0.025 -0.099,-0.05 -0.1438,-0.072 -0.043,-0.023 -0.094,-0.048 -0.1537,-0.074 -0.475,-0.2288 -1.4662,-0.7038 -1.4662,-1.7013 0,-0.9337 0.7162,-1.6075 1.6937,-1.6075 0.7313,0 1.22,0.3825 1.22,0.3825 l 0.2488,0.6487 c 0,0 -0.7663,-0.4724 -1.4938,-0.4724 -0.6387,0 -1.1,0.4412 -1.1,1.0487 0,0.62 0.6437,0.9425 1.2125,1.2262 l 0.1075,0.053 c 0.04,0.023 0.085,0.044 0.135,0.068 0.565,0.2737 1.615,0.7862 1.615,1.8925 0,1.0287 -0.91,1.8337 -2.07,1.8337" />
      <path
         id="path4246"
         style="fill:#b49823;fill-opacity:1;fill-rule:nonzero;stroke:none"
         d="m 1240.5991,1061.5256 c -0.7825,0 -1.4825,-0.3962 -1.8737,-1.0587 l -0.041,-0.074 0.2488,-0.6387 0.1837,0.2937 c 0.3938,0.6338 0.8575,0.9175 1.5,0.9175 0.8375,0 1.4675,-0.5625 1.4675,-1.3075 0,-0.7025 -0.775,-1.0962 -1.29,-1.3575 -0.049,-0.025 -0.098,-0.05 -0.1412,-0.072 -0.043,-0.023 -0.095,-0.048 -0.1538,-0.074 -0.4763,-0.2288 -1.4687,-0.7038 -1.4687,-1.7013 0,-0.9337 0.7162,-1.6075 1.6937,-1.6075 0.7325,0 1.2213,0.3825 1.2213,0.3825 l 0.2487,0.6487 c 0,0 -0.7675,-0.4724 -1.4938,-0.4724 -0.6387,0 -1.1012,0.4412 -1.1012,1.0487 0,0.62 0.6437,0.9425 1.2137,1.2262 l 0.1063,0.053 c 0.04,0.023 0.086,0.044 0.135,0.068 0.565,0.2737 1.6162,0.7862 1.6162,1.8925 0,1.0287 -0.9099,1.8337 -2.0712,1.8337" />
      <path
         id="path4250"
         style="fill:#b49823;fill-opacity:1;fill-rule:nonzero;stroke:none"
         d="m 1273.229,1047.6451 -5.2875,-5.5825 0,6.6825 0.5675,0 0,-5.2887 5.29,5.6262 0,-6.81 -0.57,0 0,5.3725 z" />
      <path
         d="m 1257.3232,1048.7446 0.5688,0 0,-6.47 -0.5688,0 0,6.47 z"
         style="fill:#b49823;fill-opacity:1;fill-rule:nonzero;stroke:none"
         id="path4252" />
      <path
         id="path4264"
         style="fill:#b49823;fill-opacity:1;fill-rule:nonzero;stroke:none"
         d="m 1301.5214,1046.1826 c 0,0.5613 0,1.1438 -0.3087,1.5413 -0.3063,0.3975 -0.9138,0.5775 -1.3488,0.5775 -0.435,0 -1.045,-0.18 -1.3512,-0.5788 -0.3088,-0.3975 -0.3088,-0.9787 -0.3088,-1.54 l 0,-3.9087 -0.5725,0 0,4.025 c 0,0.66 0,1.23 0.45,1.7825 0.4225,0.4812 1.0863,0.7675 1.7825,0.7675 0.6925,0 1.3588,-0.2863 1.7813,-0.77 0.4487,-0.55 0.4487,-1.12 0.4487,-1.78 l 0,-4.025 -0.5725,0 0,3.9087 z" />
      <path
         id="path4268"
         style="fill:#b49823;fill-opacity:1;fill-rule:nonzero;stroke:none"
         d="m 1223.9534,1048.2991 c -1.5412,0 -2.79,-1.25 -2.79,-2.79 0,-1.5412 1.2488,-2.79 2.79,-2.79 1.54,0 2.79,1.2488 2.79,2.79 0,1.54 -1.25,2.79 -2.79,2.79 m 0,-6.1288 c -1.845,0 -3.3387,1.4951 -3.3387,3.3388 0,1.845 1.4937,3.34 3.3387,3.34 1.845,0 3.3388,-1.495 3.3388,-3.34 0,-1.8437 -1.4938,-3.3388 -3.3388,-3.3388" />
      <path
         id="path4272"
         style="fill:#b49823;fill-opacity:1;fill-rule:nonzero;stroke:none"
         d="m 1247.9224,1048.2991 c -1.5412,0 -2.79,-1.25 -2.79,-2.79 0,-1.5412 1.2488,-2.79 2.79,-2.79 1.5413,0 2.7887,1.2488 2.7887,2.79 0,1.54 -1.2474,2.79 -2.7887,2.79 m 0,-6.1288 c -1.845,0 -3.3387,1.4951 -3.3387,3.3388 0,1.845 1.4937,3.34 3.3387,3.34 1.845,0 3.3375,-1.495 3.3375,-3.34 0,-1.8437 -1.4925,-3.3388 -3.3375,-3.3388" />
      <path
         id="path4276"
         style="fill:#b49823;fill-opacity:1;fill-rule:nonzero;stroke:none"
         d="m 1229.4615,1045.4852 1.82,0 0,-0.545 -1.82,0 0,-2.12 2.43,0 -0.2087,-0.5462 -2.7925,0 0,6.47 0.5712,0 0,-3.2588 z" />
      <path
         id="path4280"
         style="fill:#b49823;fill-opacity:1;fill-rule:nonzero;stroke:none"
         d="m 1243.3819,1048.7444 0.5913,0 -2.6113,-6.8312 -2.0875,5.44 -2.08,-5.44 -2.6225,6.8312 0.5913,0 2.0312,-5.3375 1.7838,4.715 0.2937,0.7775 2.09,-5.4925 2.02,5.3375 z" />
      <path
         id="path4284"
         style="fill:#b49823;fill-opacity:1;fill-rule:nonzero;stroke:none"
         d="m 1253.5404,1048.7444 0.57,0 0,-5.9262 1.6688,0 0,-0.5438 -3.6963,0 -0.21,0.5438 1.6675,0 0,5.9262 z" />
      <path
         id="path4296"
         style="fill:#b49823;fill-opacity:1;fill-rule:nonzero;stroke:none"
         d="m 1263.0225,1048.2991 c -1.54,0 -2.79,-1.25 -2.79,-2.79 0,-1.5412 1.25,-2.79 2.79,-2.79 1.5413,0 2.7913,1.2488 2.7913,2.79 0,1.54 -1.25,2.79 -2.7913,2.79 m 0,-6.1288 c -1.8437,0 -3.3387,1.4951 -3.3387,3.3388 0,1.845 1.495,3.34 3.3387,3.34 1.845,0 3.34,-1.495 3.34,-3.34 0,-1.8437 -1.495,-3.3388 -3.34,-3.3388" />
      <path
         id="path4300"
         style="fill:#b49823;fill-opacity:1;fill-rule:nonzero;stroke:none"
         d="m 1305.1805,1042.8226 -0.55,0 0,2.3988 0.6038,0 c 0.3987,0 0.7575,-0.021 1.0874,-0.2688 0.2438,-0.1837 0.3888,-0.5337 0.3888,-0.9375 0,-0.3812 -0.1625,-0.86 -0.6187,-1.0625 -0.2538,-0.1212 -0.575,-0.13 -0.9113,-0.13 m 1.9413,5.9225 -1.8813,-2.9725 -0.61,0 0,2.9725 -0.5688,0 0,-6.4712 1.0451,0 c 0.4837,0 1.0287,0 1.4887,0.3337 0.4375,0.3075 0.67,0.8013 0.67,1.425 0,0.5925 -0.255,1.12 -0.685,1.4088 -0.2075,0.1374 -0.4438,0.2325 -0.7237,0.2837 l 1.9137,3.02 -0.6487,0 z" />
      <path
         id="path4304"
         style="fill:#b49823;fill-opacity:1;fill-rule:nonzero;stroke:none"
         d="m 1280.0447,1042.8218 -0.55,0 0,2.4 0.6038,0 c 0.3987,0 0.7562,-0.021 1.0887,-0.2688 0.2438,-0.1824 0.3888,-0.5324 0.3888,-0.9362 0,-0.3812 -0.1613,-0.8612 -0.6188,-1.0638 -0.2537,-0.1212 -0.5762,-0.1312 -0.9112,-0.1312 m 0.059,2.9525 -0.61,0 0,2.9712 -0.5688,0 0,-6.4724 1.0476,0 c 0.4825,0 1.0287,0 1.4875,0.335 0.44,0.3087 0.6724,0.8012 0.6724,1.425 0,0.5937 -0.2637,1.1087 -0.6862,1.4099 -0.4525,0.3213 -0.885,0.3313 -1.3425,0.3313" />
      <path
         d="m 1283.737,1048.7446 0.57,0 0,-6.47 -0.57,0 0,6.47 z"
         style="fill:#b49823;fill-opacity:1;fill-rule:nonzero;stroke:none"
         id="path4306" />
      <path
         id="path4310"
         style="fill:#b49823;fill-opacity:1;fill-rule:nonzero;stroke:none"
         d="m 1294.0159,1048.7444 0.57,0 0,-5.9262 1.6675,0 0,-0.5438 -3.695,0 -0.2112,0.5438 1.6687,0 0,5.9262 z" />
      <path
         id="path4314"
         style="fill:#b49823;fill-opacity:1;fill-rule:nonzero;stroke:none"
         d="m 1309.1647,1042.2744 0,6.47 2.8525,0 0.2075,-0.545 -2.4887,0 0,-2.6462 2.3487,0 0,-0.545 -2.3487,0 0,-2.19 2.92,0 -0.2088,-0.5438 -3.2825,0 z" />
      <path
         id="path4326"
         style="fill:#b49823;fill-opacity:1;fill-rule:nonzero;stroke:none"
         d="m 1291.0534,1048.3486 c -0.2912,0.1875 -0.91,0.5 -1.7912,0.5 -0.8913,0 -1.73,-0.3487 -2.3625,-0.98 -1.3025,-1.3012 -1.3025,-3.4187 0,-4.7212 0.6325,-0.63 1.4712,-0.9775 2.3625,-0.9775 1.2562,0 1.9812,0.635 1.9812,0.635 l 0.2663,0.7275 c 0,0 -0.9188,-0.8138 -2.2475,-0.8138 -0.74,0 -1.445,0.2888 -1.9713,0.8163 -0.5275,0.53 -0.8187,1.2287 -0.8187,1.9725 0,0.7462 0.2912,1.4462 0.8187,1.9712 l 0,0 c 0.5263,0.5275 1.2313,0.8175 1.9713,0.8175 0.9837,0 1.7437,-0.4475 2.0725,-0.6787 l -0.2813,0.7287 z" />
      <path
         id="path4330"
         style="fill:#b49823;fill-opacity:1;fill-rule:nonzero;stroke:none"
         d="m 1264.0439,1030.6438 0.8412,0 c 0.7913,0 1.3,0.1663 1.7576,0.58 0.5024,0.4613 0.78,1.0988 0.78,1.795 0,0.645 -0.2551,1.255 -0.7151,1.7175 -0.4612,0.4513 -1.0062,0.645 -1.8225,0.645 l -0.8412,0 0,-4.7375 z m 3.2425,-0.054 c -0.735,-0.6813 -1.4887,-0.82 -2.3925,-0.82 l -1.7275,0 0,6.4837 1.7275,0 c 0.7963,0 1.6387,-0.1037 2.4287,-0.8625 0.6413,-0.62 0.9951,-1.4625 0.9951,-2.3725 0,-0.9425 -0.3663,-1.805 -1.0313,-2.4287" />
      <path
         id="path4334"
         style="fill:#b49823;fill-opacity:1;fill-rule:nonzero;stroke:none"
         d="m 1287.4414,1029.7721 -1.7025,2.8812 -1.7025,-2.8837 -0.985,0 2.2512,3.8988 0,2.5862 0.8713,0 0,-2.5862 2.2537,-3.8963 -0.9862,0 z" />
      <path
         id="path4338"
         style="fill:#b49823;fill-opacity:1;fill-rule:nonzero;stroke:none"
         d="m 1273.5746,1030.6179 -0.325,-0.8475 -3.485,0 0,6.4825 3.0625,0 0.3238,-0.8487 -2.5138,0 0,-2.195 2.3038,0 0,-0.8488 -2.3038,0 0,-1.7425 2.9375,0 z" />
      <path
         id="path4350"
         style="fill:#b49823;fill-opacity:1;fill-rule:nonzero;stroke:none"
         d="m 1255.8667,1031.1927 c 0,0 -0.9187,-0.6462 -2.2362,-0.6462 -0.655,0 -1.275,0.2562 -1.7425,0.7225 -0.4663,0.4662 -0.7213,1.0875 -0.7213,1.745 0,0.6575 0.255,1.2762 0.7213,1.7425 l 0.053,0.053 0,0 c 0.4612,0.4337 1.06,0.67 1.69,0.67 1.1912,0 2.1675,-0.7213 2.1675,-0.7213 l -0.4088,1.0838 c -0.3125,0.19 -0.93,0.5175 -1.7587,0.5175 -0.8913,0 -1.7325,-0.3475 -2.3663,-0.98 -0.63,-0.63 -0.9775,-1.47 -0.9775,-2.365 0,-0.895 0.3475,-1.7363 0.9775,-2.3663 0.6338,-0.6325 1.475,-0.98 2.3663,-0.98 0.96,0 1.6087,0.3675 1.8687,0.55 l 0.3675,0.975 z" />
      <path
         id="path4354"
         style="fill:#b49823;fill-opacity:1;fill-rule:nonzero;stroke:none"
         d="m 1246.4629,1033.7653 0.8375,-2.06 0.835,2.06 -1.6725,0 z m 2.6825,2.4825 0.915,0 -2.7588,-6.7862 0,0 -2.7587,6.7862 0.915,0 0.6662,-1.6375 2.36,0 0.665,1.6375 z" />
      <path
         id="path4358"
         style="fill:#b49823;fill-opacity:1;fill-rule:nonzero;stroke:none"
         d="m 1258.4319,1033.7653 0.8363,-2.06 0.8362,2.06 -1.6725,0 z m 2.68,2.4825 0.9163,0 -2.7575,-6.7862 0,0 -2.76,6.7862 0.915,0 0.665,-1.6375 2.3613,0 0.6637,1.6375 z" />
      <path
         id="path4362"
         style="fill:#b49823;fill-opacity:1;fill-rule:nonzero;stroke:none"
         d="m 1280.6416,1029.4622 0,0 -1.9575,4.8163 -1.96,-4.8163 0,0 -2.7587,6.785 0.9138,0 1.8449,-4.5412 1.9613,4.8225 1.9587,-4.8225 1.8463,4.5412 0.9137,0 -2.7587,-6.785 z" />
    </g>
  </g>
</svg>
