<?xml version="1.0" standalone="no"?>
<!DOCTYPE svg PUBLIC "-//W3C//DTD SVG 20010904//EN"
 "http://www.w3.org/TR/2001/REC-SVG-20010904/DTD/svg10.dtd">
<svg version="1.0" xmlns="http://www.w3.org/2000/svg"
 width="2062.000000pt" height="1075.000000pt" viewBox="0 0 2062.000000 1075.000000"
 preserveAspectRatio="xMidYMid meet">

<g transform="translate(0.000000,1075.000000) scale(0.100000,-0.100000)"
fill="#000000" stroke="none">
<path d="M12974 8960 c0 -33 4 -60 9 -60 4 0 5 -4 2 -10 -4 -7 222 -10 669
-10 l676 0 0 70 0 70 -678 0 -679 0 1 -60z"/>
<path d="M8540 8961 c-604 -199 -1072 -576 -1383 -1112 -94 -163 -227 -478
-227 -538 0 -10 28 -76 61 -147 l62 -129 23 105 c152 678 613 1267 1229 1570
126 61 323 142 350 143 8 0 13 52 5 52 -1 0 -3 17 -4 37 -1 20 2 34 6 32 4 -3
5 2 2 10 -3 9 -7 16 -8 15 0 0 -53 -17 -116 -38z"/>
<path d="M12974 6865 c0 -25 4 -45 9 -45 5 0 3 -8 -4 -17 -12 -15 -12 -16 1
-8 13 8 13 7 1 -8 -13 -16 28 -17 643 -17 l656 0 0 70 0 70 -654 0 -653 0 1
-45z"/>
<path d="M8162 4561 c2 -4 23 -54 48 -111 l45 -103 62 -28 c34 -16 124 -49
199 -74 106 -36 139 -43 148 -34 8 9 8 10 -1 5 -10 -5 -11 -1 -4 17 6 14 7 28
3 31 -10 11 -8 75 3 68 5 -3 4 1 -2 9 -7 9 -32 21 -55 28 -75 23 -260 101
-356 151 -51 27 -92 46 -90 41z"/>
<path d="M12973 4295 c1 -19 6 -35 11 -35 5 0 2 -8 -5 -17 -12 -14 -12 -16 0
-8 11 6 12 5 5 -6 -25 -40 -39 -39 667 -39 l679 0 0 70 0 70 -680 0 -680 0 3
-35z"/>
</g>
</svg>
