<?xml version="1.0" encoding="UTF-8" standalone="no"?>
<svg
   xmlns:dc="http://purl.org/dc/elements/1.1/"
   xmlns:cc="http://creativecommons.org/ns#"
   xmlns:rdf="http://www.w3.org/1999/02/22-rdf-syntax-ns#"
   xmlns:svg="http://www.w3.org/2000/svg"
   xmlns="http://www.w3.org/2000/svg"
   viewBox="0 0 660 344"
   height="344"
   width="660"
   xml:space="preserve"
   id="svg2"
   version="1.1"><metadata
     id="metadata8"><rdf:RDF><cc:Work
         rdf:about=""><dc:format>image/svg+xml</dc:format><dc:type
           rdf:resource="http://purl.org/dc/dcmitype/StillImage" /></cc:Work></rdf:RDF></metadata><defs
     id="defs6"><clipPath
       id="clipPath20"
       clipPathUnits="userSpaceOnUse"><path
         id="path18"
         d="m 1661.16,1752.3 31.91,-65.55 c 47.96,265 270.37,459.76 545.46,459.76 144.47,0 282.52,-57.81 385.58,-160.07 v 49.42 c -52.22,47.83 -183.57,145.79 -383.78,145.79 -278.41,0 -507.13,-178.58 -579.17,-429.35 m 579.17,-732.05 c -88.8,0 -191.5,25.53 -284.33,78.81 l 25.09,-57.01 c 79.13,-36.65 168.09,-57.011 262.82,-57.011 140.85,0 275.5,49.361 380.2,139.051 v 51.38 C 2518.84,1077.6 2378.4,1020.25 2240.33,1020.25" /></clipPath><clipPath
       id="clipPath26"
       clipPathUnits="userSpaceOnUse"><path
         id="path24"
         d="m 1661.16,2181.65 h 962.95 V 985.039 h -962.95 z" /></clipPath><linearGradient
       id="linearGradient48"
       spreadMethod="pad"
       gradientTransform="matrix(2241.95,0,0,2241.95,1827.98,1583.35)"
       gradientUnits="userSpaceOnUse"
       y2="0"
       x2="1"
       y1="0"
       x1="0"><stop
         id="stop28"
         offset="0"
         style="stop-opacity:1;stop-color:#ee283b" /><stop
         id="stop30"
         offset="0.17398971"
         style="stop-opacity:1;stop-color:#f5786c" /><stop
         id="stop32"
         offset="0.189353"
         style="stop-opacity:1;stop-color:#f5786c" /><stop
         id="stop34"
         offset="0.25775456"
         style="stop-opacity:1;stop-color:#f5786c" /><stop
         id="stop36"
         offset="0.403061"
         style="stop-opacity:1;stop-color:#f6e706" /><stop
         id="stop38"
         offset="0.56642099"
         style="stop-opacity:1;stop-color:#309075" /><stop
         id="stop40"
         offset="0.612464"
         style="stop-opacity:1;stop-color:#309075" /><stop
         id="stop42"
         offset="0.72237039"
         style="stop-opacity:1;stop-color:#309075" /><stop
         id="stop44"
         offset="0.883111"
         style="stop-opacity:1;stop-color:#56c3f1" /><stop
         id="stop46"
         offset="1"
         style="stop-opacity:1;stop-color:#56c3f1" /></linearGradient><clipPath
       id="clipPath58"
       clipPathUnits="userSpaceOnUse"><path
         id="path56"
         d="M 2902.14,2165.5 V 1004.81 h 537.77 V 1040 h -495.43 v 584.12 h 484.65 v 35.16 h -484.65 v 471.08 h 495.43 v 35.14 z" /></clipPath><clipPath
       id="clipPath64"
       clipPathUnits="userSpaceOnUse"><path
         id="path62"
         d="m 2902.14,2165.51 h 537.77 v -1160.7 h -537.77 z" /></clipPath><linearGradient
       id="linearGradient86"
       spreadMethod="pad"
       gradientTransform="matrix(2241.88,0,0,2241.88,1828.05,1585.16)"
       gradientUnits="userSpaceOnUse"
       y2="0"
       x2="1"
       y1="0"
       x1="0"><stop
         id="stop66"
         offset="0"
         style="stop-opacity:1;stop-color:#ee283b" /><stop
         id="stop68"
         offset="0.17398971"
         style="stop-opacity:1;stop-color:#f5786c" /><stop
         id="stop70"
         offset="0.189353"
         style="stop-opacity:1;stop-color:#f5786c" /><stop
         id="stop72"
         offset="0.25775456"
         style="stop-opacity:1;stop-color:#f5786c" /><stop
         id="stop74"
         offset="0.403061"
         style="stop-opacity:1;stop-color:#f6e706" /><stop
         id="stop76"
         offset="0.56642099"
         style="stop-opacity:1;stop-color:#309075" /><stop
         id="stop78"
         offset="0.612464"
         style="stop-opacity:1;stop-color:#309075" /><stop
         id="stop80"
         offset="0.72237039"
         style="stop-opacity:1;stop-color:#309075" /><stop
         id="stop82"
         offset="0.883111"
         style="stop-opacity:1;stop-color:#56c3f1" /><stop
         id="stop84"
         offset="1"
         style="stop-opacity:1;stop-color:#56c3f1" /></linearGradient><clipPath
       id="clipPath96"
       clipPathUnits="userSpaceOnUse"><path
         id="path94"
         d="m 3659.81,1902.01 c 0,-46.12 11.5,-87.62 35.08,-127 37.8,-62.43 90.67,-92.4 211.31,-150.89 99.51,-48.86 170.05,-85.05 204.03,-104.8 84.75,-51.49 125.84,-118.3 125.84,-204.32 0,-165.29 -134.99,-294.75 -307.39,-294.75 -95.47,0 -184.73,40.86 -238.76,109.28 -18.29,21.94 -43.48,61.25 -60.22,101.2 l -35.14,-16.63 c 11.29,-28.31 30.54,-66.51 68.01,-109.69 44.11,-51.27 119.55,-119.371 264.31,-119.371 199.14,0 355.08,145.721 355.08,331.781 0,118.78 -63.86,178.09 -119.5,216.44 -48.45,34.19 -96.19,57.01 -175.2,94.87 -18.56,8.85 -38.81,18.56 -61.15,29.38 l -3.21,1.59 c -121.35,59.79 -217.15,106.96 -217.15,246.49 0,141.84 99.1,240.92 240.9,240.92 60.59,0 169.57,-18.38 240.41,-137.11 l 28.74,24.23 c -56.49,94.27 -153.08,148.02 -267.35,148.02 -198.29,0 -288.64,-144.92 -288.64,-279.64" /></clipPath><clipPath
       id="clipPath102"
       clipPathUnits="userSpaceOnUse"><path
         id="path100"
         d="m 3594.56,2181.65 h 687.4 V 985.039 h -687.4 z" /></clipPath><linearGradient
       id="linearGradient124"
       spreadMethod="pad"
       gradientTransform="matrix(2241.91,0,0,2241.91,1828.05,1583.35)"
       gradientUnits="userSpaceOnUse"
       y2="0"
       x2="1"
       y1="0"
       x1="0"><stop
         id="stop104"
         offset="0"
         style="stop-opacity:1;stop-color:#ee283b" /><stop
         id="stop106"
         offset="0.17398971"
         style="stop-opacity:1;stop-color:#f5786c" /><stop
         id="stop108"
         offset="0.189353"
         style="stop-opacity:1;stop-color:#f5786c" /><stop
         id="stop110"
         offset="0.25775456"
         style="stop-opacity:1;stop-color:#f5786c" /><stop
         id="stop112"
         offset="0.403061"
         style="stop-opacity:1;stop-color:#f6e706" /><stop
         id="stop114"
         offset="0.56642099"
         style="stop-opacity:1;stop-color:#309075" /><stop
         id="stop116"
         offset="0.612464"
         style="stop-opacity:1;stop-color:#309075" /><stop
         id="stop118"
         offset="0.72237039"
         style="stop-opacity:1;stop-color:#309075" /><stop
         id="stop120"
         offset="0.883111"
         style="stop-opacity:1;stop-color:#56c3f1" /><stop
         id="stop122"
         offset="1"
         style="stop-opacity:1;stop-color:#56c3f1" /></linearGradient></defs><g
     transform="matrix(1.3333333,0,0,-1.3333333,0,344)"
     id="g10"><g
       transform="scale(0.1)"
       id="g12"><g
         id="g14"><g
           clip-path="url(#clipPath20)"
           id="g16"><g
             clip-path="url(#clipPath26)"
             id="g22"><path
               id="path50"
               style="fill:url(#linearGradient48);fill-opacity:1;fill-rule:nonzero;stroke:none"
               d="m 2208,985 v 1 h -12 v 1 h -13 v 1 h -11 v 1 h -7 v 1 h -8 v 1 h -7 v 1 h -7 v 1 h -7 v 1 h -5 v 1 h -5 v 1 h -5 v 1 h -5 v 1 h -6 v 1 h -5 v 1 h -4 v 1 h -4 v 1 h -4 v 1 h -4 v 1 h -4 v 1 h -4 v 1 h -4 v 1 h -4 v 1 h -3 v 1 h -3 v 1 h -4 v 1 h -3 v 1 h -3 v 1 h -3 v 1 h -4 v 1 h -3 v 1 h -3 v 1 h -3 v 1 h -3 v 1 h -3 v 1 h -2 v 1 h -3 v 1 h -3 v 1 h -2 v 1 h -3 v 1 h -3 v 1 h -3 v 1 h -2 v 1 h -3 v 1 h -2 v 1 h -3 v 1 h -2 v 1 h -3 v 1 h -2 v 1 h -2 v 1 h -3 v 1 h -2 v 1 h -3 v 1 h -2 v 1 h -2 v 1 h -2 v 1 h -2 v 1 h -1 v 2 h -1 v 2 h -1 v 3 h -1 v 2 h -1 v 2 h -1 v 2 h -1 v 3 h -1 v 2 h -1 v 2 h -1 v 2 h -1 v 3 h -1 v 2 h -1 v 2 h -1 v 3 h -1 v 2 h -1 v 2 h -1 v 2 h -1 v 3 h -1 v 2 h -1 v 2 h -1 v 2 h -1 v 3 h -1 v 2 h -1 v 2 h -1 v 4 h 1 v -1 h 1 v -1 h 2 v -1 h 2 v -1 h 2 v -1 h 1 v -1 h 2 v -1 h 2 v -1 h 2 v -1 h 2 v -1 h 2 v -1 h 2 v -1 h 2 v -1 h 2 v -1 h 2 v -1 h 2 v -1 h 2 v -1 h 2 v -1 h 2 v -1 h 2 v -1 h 2 v -1 h 2 v -1 h 2 v -1 h 2 v -1 h 3 v -1 h 2 v -1 h 2 v -1 h 2 v -1 h 3 v -1 h 2 v -1 h 2 v -1 h 2 v -1 h 3 v -1 h 2 v -1 h 2 v -1 h 2 v -1 h 3 v -1 h 3 v -1 h 2 v -1 h 3 v -1 h 3 v -1 h 2 v -1 h 3 v -1 h 3 v -1 h 2 v -1 h 3 v -1 h 3 v -1 h 2 v -1 h 3 v -1 h 3 v -1 h 3 v -1 h 4 v -1 h 3 v -1 h 3 v -1 h 4 v -1 h 3 v -1 h 3 v -1 h 4 v -1 h 3 v -1 h 3 v -1 h 4 v -1 h 4 v -1 h 4 v -1 h 5 v -1 h 4 v -1 h 4 v -1 h 4 v -1 h 5 v -1 h 4 v -1 h 6 v -1 h 6 v -1 h 6 v -1 h 6 v -1 h 6 v -1 h 6 v -1 h 9 v -1 h 10 v -1 h 10 v -1 h 14 v -1 h 51 v 1 h 13 v 1 h 12 v 1 h 8 v 1 h 8 v 1 h 8 v 1 h 6 v 1 h 6 v 1 h 5 v 1 h 6 v 1 h 5 v 1 h 5 v 1 h 4 v 1 h 5 v 1 h 4 v 1 h 4 v 1 h 4 v 1 h 4 v 1 h 4 v 1 h 3 v 1 h 4 v 1 h 4 v 1 h 3 v 1 h 4 v 1 h 3 v 1 h 3 v 1 h 3 v 1 h 3 v 1 h 3 v 1 h 3 v 1 h 3 v 1 h 3 v 1 h 3 v 1 h 2 v 1 h 3 v 1 h 2 v 1 h 3 v 1 h 3 v 1 h 2 v 1 h 3 v 1 h 3 v 1 h 2 v 1 h 2 v 1 h 3 v 1 h 2 v 1 h 2 v 1 h 3 v 1 h 2 v 1 h 2 v 1 h 2 v 1 h 3 v 1 h 2 v 1 h 2 v 1 h 2 v 1 h 2 v 1 h 2 v 1 h 2 v 1 h 2 v 1 h 2 v 1 h 2 v 1 h 3 v 1 h 2 v 1 h 2 v 1 h 2 v 1 h 1 v 1 h 2 v 1 h 2 v 1 h 2 v 1 h 2 v 1 h 2 v 1 h 1 v 1 h 2 v 1 h 2 v 1 h 2 v 1 h 2 v 1 h 2 v 1 h 1 v 1 h 2 v 1 h 2 v 1 h 1 v 1 h 2 v 1 h 2 v 1 h 1 v 1 h 2 v 1 h 1 v 1 h 2 v 1 h 2 v 1 h 1 v 1 h 2 v 1 h 2 v 1 h 1 v 1 h 2 v 1 h 1 v 1 h 2 v 1 h 1 v 1 h 2 v 1 h 1 v 1 h 2 v 1 h 1 v 1 h 2 v 1 h 1 v 1 h 2 v 1 h 1 v 1 h 2 v 1 h 1 v 1 h 2 v 1 h 1 v 1 h 1 v 1 h 2 v 1 h 1 v 1 h 1 v 1 h 2 v 1 h 1 v 1 h 1 v 1 h 2 v 1 h 1 v 1 h 2 v 1 h 1 v 1 h 1 v 1 h 2 v 1 h 1 v 1 h 1 v 1 h 1 v 1 h 2 v 1 h 1 v 1 h 1 v 1 h 1 v 1 h 2 v 1 h 1 v 1 h 1 v 1 h 1 v 1 h 2 v 1 h 1 v 1 h 1 v 1 h 1 v 1 h 1 v 1 h 2 v 1 h 1 v 1 h 1 v 1 h 1 v 1 h 1 v 1 h 2 v 1 h 1 v 1 h 1 v 1 h 1 v 1 h 1 v 1 h 1 v 1 h 1 v 1 h 2 v 1 h 1 v 1 h 1 v 1 h 1 v 1 h 1 v 1 h 1 v 1 h 1 v 1 h 2 v -52 h -1 v -1 h -1 v -1 h -1 v -1 h -1 v -1 h -1 v -1 h -1 v -1 h -2 v -1 h -1 v -1 h -1 v -1 h -1 v -1 h -1 v -1 h -2 v -1 h -1 v -1 h -1 v -1 h -2 v -1 h -1 v -1 h -1 v -1 h -2 v -1 h -1 v -1 h -1 v -1 h -2 v -1 h -1 v -1 h -1 v -1 h -2 v -1 h -1 v -1 h -1 v -1 h -2 v -1 h -1 v -1 h -1 v -1 h -2 v -1 h -1 v -1 h -1 v -1 h -2 v -1 h -1 v -1 h -2 v -1 h -1 v -1 h -2 v -1 h -1 v -1 h -2 v -1 h -1 v -1 h -2 v -1 h -2 v -1 h -1 v -1 h -2 v -1 h -1 v -1 h -2 v -1 h -1 v -1 h -2 v -1 h -1 v -1 h -2 v -1 h -1 v -1 h -2 v -1 h -2 v -1 h -1 v -1 h -2 v -1 h -1 v -1 h -2 v -1 h -1 v -1 h -2 v -1 h -1 v -1 h -2 v -1 h -2 v -1 h -2 v -1 h -2 v -1 h -2 v -1 h -2 v -1 h -2 v -1 h -1 v -1 h -2 v -1 h -2 v -1 h -2 v -1 h -2 v -1 h -2 v -1 h -2 v -1 h -2 v -1 h -2 v -1 h -2 v -1 h -2 v -1 h -1 v -1 h -2 v -1 h -2 v -1 h -2 v -1 h -2 v -1 h -2 v -1 h -2 v -1 h -3 v -1 h -2 v -1 h -2 v -1 h -3 v -1 h -2 v -1 h -3 v -1 h -2 v -1 h -2 v -1 h -3 v -1 h -2 v -1 h -3 v -1 h -2 v -1 h -2 v -1 h -3 v -1 h -2 v -1 h -3 v -1 h -2 v -1 h -2 v -1 h -3 v -1 h -3 v -1 h -3 v -1 h -3 v -1 h -3 v -1 h -4 v -1 h -3 v -1 h -3 v -1 h -3 v -1 h -3 v -1 h -3 v -1 h -3 v -1 h -4 v -1 h -3 v -1 h -3 v -1 h -3 v -1 h -4 v -1 h -4 v -1 h -5 v -1 h -4 v -1 h -5 v -1 h -4 v -1 h -5 v -1 h -4 v -1 h -5 v -1 h -4 v -1 h -5 v -1 h -5 v -1 h -7 v -1 h -8 v -1 h -7 v -1 h -8 v -1 h -7 v -1 h -8 v -1 h -11 v -1 h -17 v -1 z m -516,701 v 2 h -1 v 3 h -1 v 2 h -1 v 2 h -1 v 2 h -1 v 2 h -1 v 2 h -1 v 2 h -1 v 2 h -1 v 2 h -1 v 2 h -1 v 2 h -1 v 2 h -1 v 2 h -1 v 2 h -1 v 2 h -1 v 2 h -1 v 2 h -1 v 2 h -1 v 2 h -1 v 3 h -1 v 2 h -1 v 2 h -1 v 2 h -1 v 2 h -1 v 2 h -1 v 2 h -1 v 2 h -1 v 2 h -1 v 2 h -1 v 2 h -1 v 6 h 1 v 3 h 1 v 4 h 1 v 3 h 1 v 3 h 1 v 3 h 1 v 3 h 1 v 2 h 1 v 3 h 1 v 3 h 1 v 3 h 1 v 3 h 1 v 3 h 1 v 3 h 1 v 3 h 1 v 2 h 1 v 3 h 1 v 2 h 1 v 2 h 1 v 3 h 1 v 2 h 1 v 2 h 1 v 3 h 1 v 2 h 1 v 2 h 1 v 3 h 1 v 2 h 1 v 2 h 1 v 3 h 1 v 2 h 1 v 2 h 1 v 3 h 1 v 2 h 1 v 3 h 1 v 2 h 1 v 1 h 1 v 2 h 1 v 2 h 1 v 2 h 1 v 2 h 1 v 2 h 1 v 2 h 1 v 2 h 1 v 2 h 1 v 2 h 1 v 2 h 1 v 1 h 1 v 2 h 1 v 2 h 1 v 2 h 1 v 2 h 1 v 2 h 1 v 2 h 1 v 2 h 1 v 2 h 1 v 2 h 1 v 1 h 1 v 2 h 1 v 1 h 1 v 2 h 1 v 2 h 1 v 1 h 1 v 2 h 1 v 1 h 1 v 2 h 1 v 2 h 1 v 1 h 1 v 2 h 1 v 1 h 1 v 2 h 1 v 1 h 1 v 2 h 1 v 2 h 1 v 1 h 1 v 2 h 1 v 1 h 1 v 2 h 1 v 2 h 1 v 1 h 1 v 2 h 1 v 1 h 1 v 2 h 1 v 1 h 1 v 1 h 1 v 2 h 1 v 1 h 1 v 1 h 1 v 2 h 1 v 1 h 1 v 1 h 1 v 2 h 1 v 1 h 1 v 1 h 1 v 2 h 1 v 1 h 1 v 1 h 1 v 2 h 1 v 1 h 1 v 1 h 1 v 2 h 1 v 1 h 1 v 1 h 1 v 2 h 1 v 1 h 1 v 1 h 1 v 2 h 1 v 1 h 1 v 1 h 1 v 2 h 1 v 1 h 1 v 1 h 1 v 1 h 1 v 2 h 1 v 1 h 1 v 1 h 1 v 1 h 1 v 1 h 1 v 1 h 1 v 1 h 1 v 1 h 1 v 2 h 1 v 1 h 1 v 1 h 1 v 1 h 1 v 1 h 1 v 1 h 1 v 1 h 1 v 1 h 1 v 2 h 1 v 1 h 1 v 1 h 1 v 1 h 1 v 1 h 1 v 1 h 1 v 1 h 1 v 1 h 1 v 2 h 1 v 1 h 1 v 1 h 1 v 1 h 1 v 1 h 1 v 1 h 1 v 1 h 1 v 1 h 1 v 1 h 1 v 1 h 1 v 1 h 1 v 1 h 1 v 1 h 1 v 1 h 1 v 1 h 1 v 1 h 1 v 1 h 1 v 1 h 1 v 1 h 1 v 1 h 1 v 1 h 1 v 1 h 1 v 1 h 2 v 1 h 1 v 1 h 1 v 1 h 1 v 1 h 1 v 1 h 1 v 1 h 1 v 1 h 1 v 1 h 1 v 1 h 1 v 1 h 1 v 1 h 1 v 1 h 1 v 1 h 1 v 1 h 1 v 1 h 1 v 1 h 1 v 1 h 2 v 1 h 1 v 1 h 1 v 1 h 1 v 1 h 1 v 1 h 2 v 1 h 1 v 1 h 1 v 1 h 1 v 1 h 2 v 1 h 1 v 1 h 1 v 1 h 1 v 1 h 1 v 1 h 2 v 1 h 1 v 1 h 1 v 1 h 1 v 1 h 2 v 1 h 1 v 1 h 1 v 1 h 1 v 1 h 2 v 1 h 1 v 1 h 1 v 1 h 1 v 1 h 1 v 1 h 2 v 1 h 1 v 1 h 1 v 1 h 2 v 1 h 1 v 1 h 2 v 1 h 1 v 1 h 2 v 1 h 1 v 1 h 1 v 1 h 2 v 1 h 1 v 1 h 2 v 1 h 1 v 1 h 2 v 1 h 1 v 1 h 2 v 1 h 1 v 1 h 1 v 1 h 2 v 1 h 1 v 1 h 2 v 1 h 1 v 1 h 2 v 1 h 1 v 1 h 2 v 1 h 1 v 1 h 1 v 1 h 2 v 1 h 2 v 1 h 1 v 1 h 2 v 1 h 2 v 1 h 2 v 1 h 1 v 1 h 2 v 1 h 2 v 1 h 1 v 1 h 2 v 1 h 2 v 1 h 2 v 1 h 1 v 1 h 2 v 1 h 2 v 1 h 2 v 1 h 1 v 1 h 2 v 1 h 2 v 1 h 1 v 1 h 2 v 1 h 2 v 1 h 2 v 1 h 1 v 1 h 2 v 1 h 3 v 1 h 2 v 1 h 2 v 1 h 2 v 1 h 2 v 1 h 2 v 1 h 2 v 1 h 2 v 1 h 2 v 1 h 3 v 1 h 2 v 1 h 2 v 1 h 2 v 1 h 2 v 1 h 2 v 1 h 2 v 1 h 2 v 1 h 2 v 1 h 2 v 1 h 3 v 1 h 2 v 1 h 3 v 1 h 3 v 1 h 2 v 1 h 3 v 1 h 3 v 1 h 2 v 1 h 3 v 1 h 2 v 1 h 3 v 1 h 3 v 1 h 2 v 1 h 3 v 1 h 3 v 1 h 2 v 1 h 3 v 1 h 3 v 1 h 3 v 1 h 3 v 1 h 4 v 1 h 3 v 1 h 4 v 1 h 3 v 1 h 4 v 1 h 3 v 1 h 4 v 1 h 3 v 1 h 4 v 1 h 3 v 1 h 3 v 1 h 5 v 1 h 4 v 1 h 5 v 1 h 5 v 1 h 5 v 1 h 5 v 1 h 5 v 1 h 5 v 1 h 5 v 1 h 5 v 1 h 6 v 1 h 8 v 1 h 9 v 1 h 8 v 1 h 8 v 1 h 8 v 1 h 13 v 1 h 19 v 1 h 51 v -1 h 17 v -1 h 11 v -1 h 11 v -1 h 10 v -1 h 7 v -1 h 6 v -1 h 7 v -1 h 6 v -1 h 7 v -1 h 4 v -1 h 5 v -1 h 5 v -1 h 5 v -1 h 4 v -1 h 5 v -1 h 4 v -1 h 4 v -1 h 4 v -1 h 3 v -1 h 4 v -1 h 4 v -1 h 3 v -1 h 4 v -1 h 3 v -1 h 4 v -1 h 3 v -1 h 3 v -1 h 3 v -1 h 3 v -1 h 3 v -1 h 3 v -1 h 3 v -1 h 3 v -1 h 2 v -1 h 3 v -1 h 3 v -1 h 2 v -1 h 3 v -1 h 2 v -1 h 3 v -1 h 3 v -1 h 2 v -1 h 3 v -1 h 2 v -1 h 2 v -1 h 3 v -1 h 2 v -1 h 2 v -1 h 2 v -1 h 3 v -1 h 2 v -1 h 2 v -1 h 2 v -1 h 3 v -1 h 2 v -1 h 2 v -1 h 2 v -1 h 2 v -1 h 2 v -1 h 2 v -1 h 2 v -1 h 2 v -1 h 2 v -1 h 2 v -1 h 2 v -1 h 2 v -1 h 1 v -1 h 2 v -1 h 2 v -1 h 2 v -1 h 1 v -1 h 2 v -1 h 2 v -1 h 2 v -1 h 2 v -1 h 1 v -1 h 2 v -1 h 2 v -1 h 2 v -1 h 1 v -1 h 2 v -1 h 2 v -1 h 1 v -1 h 2 v -1 h 1 v -1 h 2 v -1 h 2 v -1 h 1 v -1 h 2 v -1 h 2 v -1 h 1 v -1 h 2 v -1 h 1 v -1 h 2 v -1 h 1 v -1 h 2 v -1 h 1 v -1 h 2 v -1 h 1 v -1 h 2 v -1 h 1 v -1 h 1 v -1 h 2 v -1 h 1 v -1 h 2 v -1 h 1 v -1 h 1 v -1 h 2 v -1 h 1 v -1 h 2 v -1 h 1 v -1 h 1 v -1 h 2 v -1 h 1 v -1 h 1 v -1 h 2 v -1 h 1 v -1 h 1 v -1 h 1 v -1 h 2 v -1 h 1 v -1 h 1 v -1 h 2 v -1 h 1 v -1 h 1 v -1 h 1 v -1 h 2 v -1 h 1 v -1 h 1 v -1 h 1 v -1 h 1 v -1 h 2 v -1 h 1 v -1 h 1 v -1 h 1 v -1 h 1 v -1 h 1 v -1 h 2 v -1 h 1 v -1 h 1 v -1 h 1 v -1 h 1 v -1 h 1 v -1 h 1 v -1 h 1 v -1 h 1 v -50 h -2 v 1 h -1 v 1 h -1 v 1 h -1 v 1 h -1 v 1 h -1 v 1 h -1 v 1 h -1 v 1 h -1 v 1 h -1 v 1 h -1 v 1 h -1 v 1 h -2 v 1 h -1 v 1 h -1 v 1 h -1 v 1 h -1 v 1 h -1 v 1 h -1 v 1 h -1 v 1 h -1 v 1 h -2 v 1 h -1 v 1 h -1 v 1 h -1 v 1 h -1 v 1 h -1 v 1 h -2 v 1 h -1 v 1 h -1 v 1 h -1 v 1 h -1 v 1 h -1 v 1 h -1 v 1 h -2 v 1 h -1 v 1 h -1 v 1 h -1 v 1 h -2 v 1 h -1 v 1 h -1 v 1 h -1 v 1 h -2 v 1 h -1 v 1 h -1 v 1 h -2 v 1 h -1 v 1 h -1 v 1 h -1 v 1 h -2 v 1 h -1 v 1 h -1 v 1 h -2 v 1 h -1 v 1 h -1 v 1 h -2 v 1 h -1 v 1 h -2 v 1 h -1 v 1 h -2 v 1 h -1 v 1 h -1 v 1 h -2 v 1 h -1 v 1 h -2 v 1 h -1 v 1 h -2 v 1 h -1 v 1 h -1 v 1 h -2 v 1 h -2 v 1 h -1 v 1 h -2 v 1 h -1 v 1 h -2 v 1 h -2 v 1 h -1 v 1 h -2 v 1 h -1 v 1 h -2 v 1 h -1 v 1 h -2 v 1 h -2 v 1 h -1 v 1 h -2 v 1 h -2 v 1 h -2 v 1 h -1 v 1 h -2 v 1 h -2 v 1 h -2 v 1 h -1 v 1 h -2 v 1 h -2 v 1 h -2 v 1 h -2 v 1 h -2 v 1 h -1 v 1 h -2 v 1 h -2 v 1 h -2 v 1 h -2 v 1 h -2 v 1 h -2 v 1 h -2 v 1 h -2 v 1 h -2 v 1 h -2 v 1 h -3 v 1 h -2 v 1 h -2 v 1 h -2 v 1 h -3 v 1 h -2 v 1 h -2 v 1 h -2 v 1 h -3 v 1 h -2 v 1 h -2 v 1 h -3 v 1 h -2 v 1 h -3 v 1 h -2 v 1 h -3 v 1 h -3 v 1 h -2 v 1 h -3 v 1 h -2 v 1 h -3 v 1 h -3 v 1 h -3 v 1 h -3 v 1 h -3 v 1 h -3 v 1 h -3 v 1 h -3 v 1 h -3 v 1 h -4 v 1 h -3 v 1 h -4 v 1 h -4 v 1 h -3 v 1 h -4 v 1 h -3 v 1 h -5 v 1 h -4 v 1 h -5 v 1 h -4 v 1 h -4 v 1 h -5 v 1 h -6 v 1 h -5 v 1 h -6 v 1 h -6 v 1 h -7 v 1 h -8 v 1 h -8 v 1 h -8 v 1 h -14 v 1 h -16 v 1 h -45 v -1 h -16 v -1 h -13 v -1 h -9 v -1 h -9 v -1 h -8 v -1 h -6 v -1 h -7 v -1 h -6 v -1 h -6 v -1 h -4 v -1 h -5 v -1 h -5 v -1 h -5 v -1 h -4 v -1 h -5 v -1 h -3 v -1 h -4 v -1 h -5 v -1 h -4 v -1 h -3 v -1 h -3 v -1 h -4 v -1 h -3 v -1 h -3 v -1 h -4 v -1 h -3 v -1 h -3 v -1 h -3 v -1 h -3 v -1 h -3 v -1 h -3 v -1 h -3 v -1 h -2 v -1 h -3 v -1 h -3 v -1 h -2 v -1 h -3 v -1 h -2 v -1 h -3 v -1 h -2 v -1 h -3 v -1 h -3 v -1 h -2 v -1 h -2 v -1 h -2 v -1 h -3 v -1 h -2 v -1 h -2 v -1 h -2 v -1 h -3 v -1 h -2 v -1 h -2 v -1 h -2 v -1 h -2 v -1 h -2 v -1 h -2 v -1 h -2 v -1 h -2 v -1 h -2 v -1 h -2 v -1 h -2 v -1 h -2 v -1 h -2 v -1 h -2 v -1 h -2 v -1 h -2 v -1 h -1 v -1 h -2 v -1 h -2 v -1 h -2 v -1 h -1 v -1 h -2 v -1 h -2 v -1 h -2 v -1 h -2 v -1 h -1 v -1 h -2 v -1 h -2 v -1 h -1 v -1 h -2 v -1 h -1 v -1 h -2 v -1 h -2 v -1 h -1 v -1 h -2 v -1 h -1 v -1 h -2 v -1 h -2 v -1 h -1 v -1 h -2 v -1 h -1 v -1 h -2 v -1 h -1 v -1 h -1 v -1 h -2 v -1 h -1 v -1 h -2 v -1 h -1 v -1 h -2 v -1 h -1 v -1 h -2 v -1 h -1 v -1 h -1 v -1 h -2 v -1 h -1 v -1 h -1 v -1 h -2 v -1 h -1 v -1 h -1 v -1 h -2 v -1 h -1 v -1 h -1 v -1 h -2 v -1 h -1 v -1 h -1 v -1 h -2 v -1 h -1 v -1 h -1 v -1 h -1 v -1 h -2 v -1 h -1 v -1 h -1 v -1 h -1 v -1 h -2 v -1 h -1 v -1 h -1 v -1 h -1 v -1 h -1 v -1 h -2 v -1 h -1 v -1 h -1 v -1 h -1 v -1 h -1 v -1 h -1 v -1 h -1 v -1 h -2 v -1 h -1 v -1 h -1 v -1 h -1 v -1 h -1 v -1 h -1 v -1 h -1 v -1 h -1 v -1 h -2 v -1 h -1 v -1 h -1 v -1 h -1 v -1 h -1 v -1 h -1 v -1 h -1 v -1 h -1 v -1 h -1 v -1 h -1 v -1 h -1 v -1 h -1 v -1 h -1 v -1 h -1 v -1 h -1 v -1 h -1 v -1 h -1 v -1 h -1 v -1 h -1 v -1 h -1 v -1 h -1 v -1 h -1 v -1 h -1 v -1 h -1 v -1 h -1 v -1 h -1 v -1 h -1 v -1 h -1 v -1 h -1 v -1 h -1 v -1 h -1 v -1 h -1 v -1 h -1 v -2 h -1 v -1 h -1 v -1 h -1 v -1 h -1 v -1 h -1 v -1 h -1 v -1 h -1 v -1 h -1 v -2 h -1 v -1 h -1 v -1 h -1 v -1 h -1 v -1 h -1 v -1 h -1 v -1 h -1 v -2 h -1 v -1 h -1 v -1 h -1 v -1 h -1 v -1 h -1 v -2 h -1 v -1 h -1 v -1 h -1 v -1 h -1 v -2 h -1 v -1 h -1 v -1 h -1 v -1 h -1 v -2 h -1 v -1 h -1 v -1 h -1 v -1 h -1 v -2 h -1 v -1 h -1 v -1 h -1 v -2 h -1 v -1 h -1 v -2 h -1 v -1 h -1 v -1 h -1 v -2 h -1 v -1 h -1 v -1 h -1 v -2 h -1 v -1 h -1 v -2 h -1 v -1 h -1 v -1 h -1 v -2 h -1 v -1 h -1 v -2 h -1 v -1 h -1 v -2 h -1 v -1 h -1 v -2 h -1 v -1 h -1 v -2 h -1 v -1 h -1 v -2 h -1 v -1 h -1 v -2 h -1 v -2 h -1 v -1 h -1 v -2 h -1 v -2 h -1 v -1 h -1 v -2 h -1 v -2 h -1 v -1 h -1 v -2 h -1 v -2 h -1 v -1 h -1 v -2 h -1 v -2 h -1 v -1 h -1 v -2 h -1 v -2 h -1 v -2 h -1 v -2 h -1 v -2 h -1 v -1 h -1 v -2 h -1 v -2 h -1 v -2 h -1 v -2 h -1 v -2 h -1 v -2 h -1 v -2 h -1 v -2 h -1 v -2 h -1 v -2 h -1 v -2 h -1 v -2 h -1 v -2 h -1 v -2 h -1 v -2 h -1 v -3 h -1 v -2 h -1 v -2 h -1 v -2 h -1 v -3 h -1 v -2 h -1 v -2 h -1 v -3 h -1 v -2 h -1 v -2 h -1 v -3 h -1 v -2 h -1 v -3 h -1 v -3 h -1 v -2 h -1 v -3 h -1 v -2 h -1 v -3 h -1 v -3 h -1 v -3 h -1 v -3 h -1 v -3 h -1 v -3 h -1 v -2 h -1 v -3 h -1 v -3 h -1 v -4 h -1 v -3 h -1 v -4 h -1 v -3 h -1 v -3 h -1 v -4 h -1 v -3 h -1 v -4 h -1 v -4 h -1 v -4 h -1 v -4 h -1 v -4 h -1 v -4 h -1 v -5 h -1 v -5 h -1 v -5 h -1 v -5 h -1 v -5" /></g></g></g><g
         id="g52"><g
           clip-path="url(#clipPath58)"
           id="g54"><g
             clip-path="url(#clipPath64)"
             id="g60"><path
               id="path88"
               style="fill:url(#linearGradient86);fill-opacity:1;fill-rule:nonzero;stroke:none"
               d="m 2902,1004 v 1162 h 538 v -36 h -495 v -470 h 485 v -36 h -485 v -584 h 495 v -36" /></g></g></g><g
         id="g90"><g
           clip-path="url(#clipPath96)"
           id="g92"><g
             clip-path="url(#clipPath102)"
             id="g98"><path
               id="path126"
               style="fill:url(#linearGradient124);fill-opacity:1;fill-rule:nonzero;stroke:none"
               d="m 3898,985 v 1 h -11 v 1 h -11 v 1 h -7 v 1 h -6 v 1 h -7 v 1 h -6 v 1 h -4 v 1 h -5 v 1 h -4 v 1 h -5 v 1 h -4 v 1 h -3 v 1 h -3 v 1 h -4 v 1 h -3 v 1 h -4 v 1 h -3 v 1 h -3 v 1 h -2 v 1 h -3 v 1 h -3 v 1 h -3 v 1 h -2 v 1 h -3 v 1 h -2 v 1 h -2 v 1 h -3 v 1 h -2 v 1 h -2 v 1 h -3 v 1 h -2 v 1 h -2 v 1 h -2 v 1 h -2 v 1 h -2 v 1 h -2 v 1 h -2 v 1 h -2 v 1 h -2 v 1 h -1 v 1 h -2 v 1 h -2 v 1 h -1 v 1 h -2 v 1 h -2 v 1 h -2 v 1 h -1 v 1 h -2 v 1 h -2 v 1 h -1 v 1 h -1 v 1 h -2 v 1 h -1 v 1 h -2 v 1 h -1 v 1 h -2 v 1 h -1 v 1 h -2 v 1 h -1 v 1 h -2 v 1 h -1 v 1 h -1 v 1 h -2 v 1 h -1 v 1 h -1 v 1 h -2 v 1 h -1 v 1 h -1 v 1 h -1 v 1 h -2 v 1 h -1 v 1 h -1 v 1 h -1 v 1 h -1 v 1 h -2 v 1 h -1 v 1 h -1 v 1 h -1 v 1 h -1 v 1 h -1 v 1 h -2 v 1 h -1 v 1 h -1 v 1 h -1 v 1 h -1 v 1 h -1 v 1 h -1 v 1 h -1 v 1 h -1 v 1 h -1 v 1 h -1 v 1 h -1 v 1 h -1 v 1 h -1 v 1 h -1 v 1 h -1 v 1 h -1 v 1 h -1 v 1 h -1 v 1 h -1 v 1 h -1 v 1 h -1 v 1 h -1 v 1 h -1 v 1 h -1 v 1 h -1 v 1 h -1 v 1 h -1 v 1 h -1 v 1 h -1 v 2 h -1 v 1 h -1 v 1 h -1 v 1 h -1 v 1 h -1 v 1 h -1 v 1 h -1 v 2 h -1 v 1 h -1 v 1 h -1 v 1 h -1 v 1 h -1 v 1 h -1 v 2 h -1 v 1 h -1 v 1 h -1 v 1 h -1 v 2 h -1 v 1 h -1 v 1 h -1 v 1 h -1 v 2 h -1 v 1 h -1 v 1 h -1 v 2 h -1 v 1 h -1 v 1 h -1 v 2 h -1 v 1 h -1 v 1 h -1 v 2 h -1 v 1 h -1 v 1 h -1 v 2 h -1 v 1 h -1 v 2 h -1 v 1 h -1 v 2 h -1 v 1 h -1 v 2 h -1 v 1 h -1 v 1 h -1 v 2 h -1 v 2 h -1 v 1 h -1 v 2 h -1 v 1 h -1 v 2 h -1 v 2 h -1 v 1 h -1 v 2 h -1 v 2 h -1 v 1 h -1 v 2 h -1 v 2 h -1 v 2 h -1 v 2 h -1 v 1 h -1 v 2 h -1 v 2 h -1 v 2 h -1 v 2 h -1 v 2 h -1 v 2 h -1 v 2 h -1 v 2 h -1 v 2 h -1 v 2 h -1 v 3 h -1 v 2 h -1 v 2 h -1 v 2 h -1 v 3 h -1 v 2 h -1 v 3 h -1 v 2 h 2 v 1 h 2 v 1 h 2 v 1 h 2 v 1 h 2 v 1 h 3 v 1 h 2 v 1 h 2 v 1 h 2 v 1 h 2 v 1 h 2 v 1 h 2 v 1 h 2 v 1 h 2 v 1 h 3 v 1 h 2 v 1 h 3 v -3 h 1 v -2 h 1 v -2 h 1 v -3 h 1 v -2 h 1 v -2 h 1 v -2 h 1 v -2 h 1 v -2 h 1 v -2 h 1 v -2 h 1 v -2 h 1 v -2 h 1 v -2 h 1 v -2 h 1 v -2 h 1 v -2 h 1 v -1 h 1 v -2 h 1 v -2 h 1 v -2 h 1 v -2 h 1 v -1 h 1 v -2 h 1 v -2 h 1 v -2 h 1 v -1 h 1 v -2 h 1 v -2 h 1 v -1 h 1 v -2 h 1 v -2 h 1 v -1 h 1 v -2 h 1 v -1 h 1 v -2 h 1 v -1 h 1 v -2 h 1 v -1 h 1 v -2 h 1 v -1 h 1 v -2 h 1 v -1 h 1 v -2 h 1 v -1 h 1 v -2 h 1 v -1 h 1 v -1 h 1 v -2 h 1 v -1 h 1 v -2 h 1 v -1 h 1 v -1 h 1 v -2 h 1 v -1 h 1 v -1 h 1 v -1 h 1 v -2 h 1 v -1 h 1 v -1 h 1 v -1 h 1 v -2 h 1 v -1 h 1 v -1 h 1 v -1 h 1 v -1 h 1 v -2 h 1 v -1 h 1 v -1 h 1 v -1 h 1 v -1 h 1 v -1 h 1 v -1 h 1 v -1 h 1 v -1 h 1 v -1 h 1 v -1 h 1 v -1 h 1 v -1 h 1 v -1 h 1 v -1 h 1 v -2 h 2 v -1 h 1 v -1 h 1 v -1 h 1 v -1 h 1 v -1 h 1 v -1 h 2 v -1 h 1 v -1 h 1 v -1 h 1 v -1 h 1 v -1 h 1 v -1 h 1 v -1 h 2 v -1 h 1 v -1 h 1 v -1 h 1 v -1 h 1 v -1 h 1 v -1 h 1 v -1 h 2 v -1 h 1 v -1 h 1 v -1 h 2 v -1 h 1 v -1 h 2 v -1 h 1 v -1 h 2 v -1 h 1 v -1 h 2 v -1 h 1 v -1 h 2 v -1 h 1 v -1 h 2 v -1 h 1 v -1 h 1 v -1 h 2 v -1 h 1 v -1 h 2 v -1 h 1 v -1 h 2 v -1 h 2 v -1 h 2 v -1 h 2 v -1 h 2 v -1 h 2 v -1 h 2 v -1 h 2 v -1 h 1 v -1 h 2 v -1 h 2 v -1 h 2 v -1 h 2 v -1 h 2 v -1 h 2 v -1 h 2 v -1 h 2 v -1 h 3 v -1 h 2 v -1 h 3 v -1 h 3 v -1 h 2 v -1 h 3 v -1 h 2 v -1 h 3 v -1 h 2 v -1 h 3 v -1 h 2 v -1 h 4 v -1 h 3 v -1 h 4 v -1 h 4 v -1 h 3 v -1 h 4 v -1 h 4 v -1 h 3 v -1 h 4 v -1 h 6 v -1 h 6 v -1 h 6 v -1 h 6 v -1 h 6 v -1 h 8 v -1 h 14 v -1 h 38 v 1 h 14 v 1 h 7 v 1 h 7 v 1 h 7 v 1 h 7 v 1 h 4 v 1 h 5 v 1 h 4 v 1 h 4 v 1 h 4 v 1 h 4 v 1 h 4 v 1 h 4 v 1 h 3 v 1 h 2 v 1 h 3 v 1 h 3 v 1 h 3 v 1 h 3 v 1 h 3 v 1 h 3 v 1 h 3 v 1 h 2 v 1 h 2 v 1 h 2 v 1 h 3 v 1 h 2 v 1 h 2 v 1 h 2 v 1 h 2 v 1 h 3 v 1 h 2 v 1 h 2 v 1 h 2 v 1 h 2 v 1 h 2 v 1 h 2 v 1 h 1 v 1 h 2 v 1 h 2 v 1 h 1 v 1 h 2 v 1 h 2 v 1 h 2 v 1 h 1 v 1 h 2 v 1 h 2 v 1 h 2 v 1 h 1 v 1 h 2 v 1 h 1 v 1 h 2 v 1 h 1 v 1 h 1 v 1 h 2 v 1 h 1 v 1 h 2 v 1 h 1 v 1 h 1 v 1 h 2 v 1 h 1 v 1 h 2 v 1 h 1 v 1 h 1 v 1 h 2 v 1 h 1 v 1 h 1 v 1 h 1 v 1 h 2 v 1 h 1 v 1 h 1 v 1 h 1 v 1 h 1 v 1 h 1 v 1 h 1 v 1 h 2 v 1 h 1 v 1 h 1 v 1 h 1 v 1 h 1 v 1 h 1 v 1 h 1 v 1 h 2 v 1 h 1 v 1 h 1 v 1 h 1 v 1 h 1 v 1 h 1 v 1 h 1 v 1 h 1 v 1 h 1 v 2 h 1 v 1 h 1 v 1 h 1 v 1 h 1 v 1 h 1 v 1 h 1 v 1 h 1 v 1 h 1 v 1 h 1 v 1 h 1 v 1 h 1 v 1 h 1 v 1 h 1 v 1 h 1 v 2 h 1 v 1 h 1 v 1 h 1 v 1 h 1 v 2 h 1 v 1 h 1 v 1 h 1 v 2 h 1 v 1 h 1 v 1 h 1 v 2 h 1 v 1 h 1 v 1 h 1 v 1 h 1 v 2 h 1 v 1 h 1 v 1 h 1 v 2 h 1 v 1 h 1 v 2 h 1 v 2 h 1 v 1 h 1 v 2 h 1 v 1 h 1 v 2 h 1 v 2 h 1 v 1 h 1 v 2 h 1 v 1 h 1 v 2 h 1 v 1 h 1 v 2 h 1 v 2 h 1 v 2 h 1 v 2 h 1 v 2 h 1 v 2 h 1 v 2 h 1 v 2 h 1 v 2 h 1 v 2 h 1 v 2 h 1 v 2 h 1 v 2 h 1 v 2 h 1 v 3 h 1 v 2 h 1 v 3 h 1 v 3 h 1 v 2 h 1 v 3 h 1 v 3 h 1 v 2 h 1 v 3 h 1 v 3 h 1 v 3 h 1 v 4 h 1 v 4 h 1 v 3 h 1 v 4 h 1 v 4 h 1 v 4 h 1 v 4 h 1 v 6 h 1 v 7 h 1 v 6 h 1 v 7 h 1 v 10 h 1 v 15 h 1 v 16 h -1 v 12 h -1 v 12 h -1 v 5 h -1 v 5 h -1 v 5 h -1 v 5 h -1 v 5 h -1 v 4 h -1 v 3 h -1 v 3 h -1 v 3 h -1 v 3 h -1 v 3 h -1 v 3 h -1 v 2 h -1 v 3 h -1 v 3 h -1 v 3 h -1 v 1 h -1 v 2 h -1 v 2 h -1 v 2 h -1 v 2 h -1 v 2 h -1 v 2 h -1 v 2 h -1 v 2 h -1 v 2 h -1 v 2 h -1 v 2 h -1 v 1 h -1 v 2 h -1 v 1 h -1 v 2 h -1 v 1 h -1 v 1 h -1 v 2 h -1 v 1 h -1 v 2 h -1 v 1 h -1 v 1 h -1 v 2 h -1 v 1 h -1 v 2 h -1 v 1 h -1 v 1 h -1 v 2 h -1 v 1 h -1 v 2 h -1 v 1 h -1 v 1 h -1 v 1 h -1 v 1 h -1 v 1 h -1 v 1 h -1 v 1 h -1 v 1 h -1 v 1 h -1 v 1 h -1 v 1 h -1 v 1 h -1 v 1 h -1 v 1 h -1 v 2 h -1 v 1 h -1 v 1 h -1 v 1 h -1 v 1 h -1 v 1 h -1 v 1 h -1 v 1 h -1 v 1 h -2 v 1 h -1 v 1 h -1 v 1 h -1 v 1 h -1 v 1 h -1 v 1 h -2 v 1 h -1 v 1 h -1 v 1 h -1 v 1 h -1 v 1 h -2 v 1 h -1 v 1 h -1 v 1 h -1 v 1 h -1 v 1 h -2 v 1 h -1 v 1 h -1 v 1 h -1 v 1 h -2 v 1 h -1 v 1 h -1 v 1 h -2 v 1 h -1 v 1 h -2 v 1 h -1 v 1 h -2 v 1 h -1 v 1 h -1 v 1 h -2 v 1 h -1 v 1 h -2 v 1 h -1 v 1 h -2 v 1 h -1 v 1 h -2 v 1 h -1 v 1 h -2 v 1 h -2 v 1 h -1 v 1 h -2 v 1 h -2 v 1 h -2 v 1 h -1 v 1 h -2 v 1 h -2 v 1 h -2 v 1 h -2 v 1 h -1 v 1 h -2 v 1 h -2 v 1 h -2 v 1 h -2 v 1 h -2 v 1 h -2 v 1 h -1 v 1 h -2 v 1 h -2 v 1 h -2 v 1 h -2 v 1 h -2 v 1 h -2 v 1 h -2 v 1 h -1 v 1 h -2 v 1 h -2 v 1 h -2 v 1 h -2 v 1 h -2 v 1 h -2 v 1 h -2 v 1 h -2 v 1 h -2 v 1 h -2 v 1 h -1 v 1 h -2 v 1 h -2 v 1 h -2 v 1 h -2 v 1 h -2 v 1 h -2 v 1 h -2 v 1 h -2 v 1 h -2 v 1 h -2 v 1 h -2 v 1 h -2 v 1 h -2 v 1 h -2 v 1 h -2 v 1 h -2 v 1 h -2 v 1 h -2 v 1 h -2 v 1 h -2 v 1 h -2 v 1 h -2 v 1 h -2 v 1 h -2 v 1 h -2 v 1 h -2 v 1 h -1 v 1 h -2 v 1 h -2 v 1 h -2 v 1 h -2 v 1 h -2 v 1 h -2 v 1 h -2 v 1 h -2 v 1 h -2 v 1 h -2 v 1 h -2 v 1 h -2 v 1 h -2 v 1 h -2 v 1 h -2 v 1 h -2 v 1 h -2 v 1 h -2 v 1 h -3 v 1 h -2 v 1 h -2 v 1 h -2 v 1 h -2 v 1 h -2 v 1 h -2 v 1 h -2 v 1 h -2 v 1 h -2 v 1 h -2 v 1 h -2 v 1 h -2 v 1 h -2 v 1 h -2 v 1 h -2 v 1 h -2 v 1 h -2 v 1 h -2 v 1 h -2 v 1 h -2 v 1 h -2 v 1 h -2 v 1 h -2 v 1 h -2 v 1 h -2 v 1 h -2 v 1 h -2 v 1 h -2 v 1 h -2 v 1 h -2 v 1 h -2 v 1 h -3 v 1 h -2 v 1 h -2 v 1 h -2 v 1 h -2 v 1 h -2 v 1 h -2 v 1 h -2 v 1 h -2 v 1 h -2 v 1 h -2 v 1 h -2 v 1 h -2 v 1 h -2 v 1 h -2 v 1 h -2 v 1 h -2 v 1 h -2 v 1 h -2 v 1 h -2 v 1 h -2 v 1 h -2 v 1 h -1 v 1 h -2 v 1 h -2 v 1 h -2 v 1 h -2 v 1 h -2 v 1 h -2 v 1 h -2 v 1 h -2 v 1 h -2 v 1 h -1 v 1 h -2 v 1 h -2 v 1 h -2 v 1 h -2 v 1 h -2 v 1 h -1 v 1 h -2 v 1 h -2 v 1 h -2 v 1 h -2 v 1 h -1 v 1 h -2 v 1 h -2 v 1 h -2 v 1 h -1 v 1 h -2 v 1 h -2 v 1 h -1 v 1 h -2 v 1 h -2 v 1 h -1 v 1 h -2 v 1 h -1 v 1 h -2 v 1 h -2 v 1 h -1 v 1 h -2 v 1 h -1 v 1 h -2 v 1 h -1 v 1 h -2 v 1 h -1 v 1 h -2 v 1 h -1 v 1 h -2 v 1 h -1 v 1 h -1 v 1 h -2 v 1 h -1 v 1 h -2 v 1 h -1 v 1 h -1 v 1 h -2 v 1 h -1 v 1 h -1 v 1 h -2 v 1 h -1 v 1 h -1 v 1 h -1 v 1 h -2 v 1 h -1 v 1 h -1 v 1 h -1 v 1 h -1 v 1 h -1 v 1 h -2 v 1 h -1 v 1 h -1 v 1 h -1 v 1 h -1 v 1 h -1 v 1 h -1 v 1 h -1 v 1 h -1 v 1 h -1 v 1 h -1 v 1 h -1 v 1 h -1 v 1 h -1 v 1 h -1 v 1 h -1 v 1 h -1 v 1 h -1 v 1 h -1 v 1 h -1 v 1 h -1 v 1 h -1 v 2 h -1 v 1 h -1 v 1 h -1 v 1 h -1 v 1 h -1 v 2 h -1 v 1 h -1 v 1 h -1 v 1 h -1 v 2 h -1 v 1 h -1 v 1 h -1 v 2 h -1 v 1 h -1 v 2 h -1 v 1 h -1 v 1 h -1 v 2 h -1 v 1 h -1 v 2 h -1 v 2 h -1 v 1 h -1 v 2 h -1 v 1 h -1 v 2 h -1 v 2 h -1 v 1 h -1 v 2 h -1 v 2 h -1 v 2 h -1 v 2 h -1 v 2 h -1 v 2 h -1 v 2 h -1 v 2 h -1 v 2 h -1 v 2 h -1 v 2 h -1 v 2 h -1 v 3 h -1 v 3 h -1 v 2 h -1 v 3 h -1 v 3 h -1 v 3 h -1 v 3 h -1 v 3 h -1 v 2 h -1 v 3 h -1 v 3 h -1 v 4 h -1 v 5 h -1 v 5 h -1 v 5 h -1 v 5 h -1 v 5 h -1 v 5 h -1 v 11 h -1 v 12 h -1 v 21 h 1 v 17 h 1 v 8 h 1 v 8 h 1 v 8 h 1 v 5 h 1 v 4 h 1 v 5 h 1 v 5 h 1 v 4 h 1 v 4 h 1 v 3 h 1 v 4 h 1 v 3 h 1 v 3 h 1 v 3 h 1 v 4 h 1 v 3 h 1 v 2 h 1 v 3 h 1 v 2 h 1 v 3 h 1 v 2 h 1 v 3 h 1 v 2 h 1 v 3 h 1 v 2 h 1 v 2 h 1 v 2 h 1 v 2 h 1 v 2 h 1 v 2 h 1 v 2 h 1 v 2 h 1 v 2 h 1 v 2 h 1 v 2 h 1 v 2 h 1 v 2 h 1 v 1 h 1 v 2 h 1 v 1 h 1 v 2 h 1 v 2 h 1 v 1 h 1 v 2 h 1 v 1 h 1 v 2 h 1 v 1 h 1 v 2 h 1 v 1 h 1 v 2 h 1 v 1 h 1 v 2 h 1 v 1 h 1 v 1 h 1 v 2 h 1 v 1 h 1 v 1 h 1 v 1 h 1 v 2 h 1 v 1 h 1 v 1 h 1 v 1 h 1 v 2 h 1 v 1 h 1 v 1 h 1 v 1 h 1 v 2 h 1 v 1 h 1 v 1 h 1 v 1 h 1 v 1 h 1 v 1 h 1 v 1 h 1 v 1 h 1 v 1 h 1 v 1 h 1 v 1 h 1 v 1 h 1 v 1 h 1 v 1 h 1 v 1 h 1 v 1 h 1 v 1 h 1 v 1 h 1 v 1 h 1 v 1 h 1 v 1 h 1 v 1 h 1 v 1 h 1 v 1 h 1 v 1 h 2 v 1 h 1 v 1 h 1 v 1 h 1 v 1 h 2 v 1 h 1 v 1 h 1 v 1 h 1 v 1 h 1 v 1 h 2 v 1 h 1 v 1 h 1 v 1 h 1 v 1 h 2 v 1 h 1 v 1 h 2 v 1 h 1 v 1 h 2 v 1 h 1 v 1 h 2 v 1 h 1 v 1 h 2 v 1 h 1 v 1 h 2 v 1 h 1 v 1 h 2 v 1 h 2 v 1 h 1 v 1 h 2 v 1 h 1 v 1 h 2 v 1 h 2 v 1 h 2 v 1 h 2 v 1 h 2 v 1 h 2 v 1 h 2 v 1 h 2 v 1 h 2 v 1 h 2 v 1 h 2 v 1 h 2 v 1 h 2 v 1 h 3 v 1 h 3 v 1 h 3 v 1 h 2 v 1 h 3 v 1 h 3 v 1 h 2 v 1 h 3 v 1 h 3 v 1 h 3 v 1 h 3 v 1 h 4 v 1 h 4 v 1 h 4 v 1 h 4 v 1 h 4 v 1 h 4 v 1 h 4 v 1 h 6 v 1 h 7 v 1 h 7 v 1 h 7 v 1 h 7 v 1 h 16 v 1 h 42 v -1 h 12 v -1 h 10 v -1 h 7 v -1 h 6 v -1 h 7 v -1 h 4 v -1 h 5 v -1 h 4 v -1 h 5 v -1 h 4 v -1 h 3 v -1 h 4 v -1 h 3 v -1 h 4 v -1 h 3 v -1 h 3 v -1 h 3 v -1 h 3 v -1 h 2 v -1 h 3 v -1 h 3 v -1 h 2 v -1 h 3 v -1 h 2 v -1 h 2 v -1 h 3 v -1 h 2 v -1 h 2 v -1 h 3 v -1 h 2 v -1 h 2 v -1 h 2 v -1 h 2 v -1 h 1 v -1 h 2 v -1 h 2 v -1 h 2 v -1 h 2 v -1 h 2 v -1 h 2 v -1 h 1 v -1 h 2 v -1 h 2 v -1 h 1 v -1 h 2 v -1 h 2 v -1 h 1 v -1 h 2 v -1 h 1 v -1 h 2 v -1 h 1 v -1 h 2 v -1 h 1 v -1 h 2 v -1 h 1 v -1 h 2 v -1 h 1 v -1 h 1 v -1 h 2 v -1 h 1 v -1 h 1 v -1 h 2 v -1 h 1 v -1 h 1 v -1 h 1 v -1 h 2 v -1 h 1 v -1 h 1 v -1 h 1 v -1 h 2 v -1 h 1 v -1 h 1 v -1 h 1 v -1 h 1 v -1 h 1 v -1 h 1 v -1 h 2 v -1 h 1 v -1 h 1 v -1 h 1 v -1 h 1 v -1 h 1 v -1 h 1 v -1 h 1 v -1 h 1 v -1 h 1 v -1 h 1 v -1 h 1 v -1 h 1 v -1 h 1 v -1 h 1 v -1 h 1 v -1 h 1 v -1 h 1 v -1 h 1 v -1 h 1 v -1 h 1 v -1 h 1 v -1 h 1 v -1 h 1 v -2 h 1 v -1 h 1 v -1 h 1 v -1 h 1 v -1 h 1 v -2 h 1 v -1 h 1 v -1 h 1 v -1 h 1 v -1 h 1 v -2 h 1 v -1 h 1 v -1 h 1 v -1 h 1 v -2 h 1 v -1 h 1 v -2 h 1 v -1 h 1 v -1 h 1 v -2 h 1 v -1 h 1 v -1 h 1 v -2 h 1 v -1 h 1 v -2 h 1 v -1 h 1 v -2 h 1 v -1 h 1 v -2 h 1 v -1 h 1 v -2 h 1 v -1 h 1 v -2 h 1 v -2 h 1 v -3 h -2 v -1 h -1 v -1 h -1 v -1 h -1 v -1 h -1 v -1 h -2 v -1 h -1 v -1 h -1 v -1 h -1 v -1 h -1 v -1 h -1 v -1 h -2 v -1 h -1 v -1 h -1 v -1 h -1 v -1 h -1 v -1 h -2 v -1 h -1 v -1 h -1 v -1 h -1 v -1 h -1 v -1 h -2 v -1 h -1 v -1 h -2 v 2 h -1 v 1 h -1 v 2 h -1 v 2 h -1 v 1 h -1 v 2 h -1 v 1 h -1 v 2 h -1 v 1 h -1 v 2 h -1 v 1 h -1 v 2 h -1 v 1 h -1 v 1 h -1 v 2 h -1 v 1 h -1 v 1 h -1 v 2 h -1 v 1 h -1 v 1 h -1 v 2 h -1 v 1 h -1 v 1 h -1 v 1 h -1 v 2 h -1 v 1 h -1 v 1 h -1 v 2 h -1 v 1 h -1 v 1 h -1 v 1 h -1 v 1 h -1 v 1 h -1 v 1 h -1 v 2 h -1 v 1 h -1 v 1 h -1 v 1 h -1 v 1 h -1 v 1 h -1 v 1 h -1 v 1 h -1 v 1 h -1 v 1 h -1 v 1 h -1 v 1 h -1 v 1 h -1 v 1 h -1 v 1 h -1 v 1 h -1 v 1 h -1 v 1 h -1 v 1 h -1 v 1 h -1 v 1 h -1 v 1 h -1 v 1 h -1 v 1 h -1 v 1 h -2 v 1 h -1 v 1 h -1 v 1 h -1 v 1 h -2 v 1 h -1 v 1 h -1 v 1 h -1 v 1 h -2 v 1 h -1 v 1 h -1 v 1 h -1 v 1 h -2 v 1 h -1 v 1 h -2 v 1 h -1 v 1 h -2 v 1 h -1 v 1 h -1 v 1 h -2 v 1 h -1 v 1 h -2 v 1 h -1 v 1 h -2 v 1 h -1 v 1 h -2 v 1 h -2 v 1 h -2 v 1 h -1 v 1 h -2 v 1 h -2 v 1 h -2 v 1 h -1 v 1 h -2 v 1 h -2 v 1 h -2 v 1 h -2 v 1 h -2 v 1 h -2 v 1 h -2 v 1 h -3 v 1 h -2 v 1 h -2 v 1 h -3 v 1 h -2 v 1 h -3 v 1 h -2 v 1 h -3 v 1 h -3 v 1 h -3 v 1 h -3 v 1 h -3 v 1 h -3 v 1 h -3 v 1 h -4 v 1 h -3 v 1 h -4 v 1 h -4 v 1 h -5 v 1 h -5 v 1 h -5 v 1 h -7 v 1 h -6 v 1 h -9 v 1 h -13 v 1 h -31 v -1 h -14 v -1 h -7 v -1 h -7 v -1 h -8 v -1 h -4 v -1 h -4 v -1 h -5 v -1 h -4 v -1 h -4 v -1 h -4 v -1 h -3 v -1 h -3 v -1 h -3 v -1 h -3 v -1 h -3 v -1 h -3 v -1 h -3 v -1 h -2 v -1 h -2 v -1 h -3 v -1 h -2 v -1 h -2 v -1 h -2 v -1 h -2 v -1 h -3 v -1 h -2 v -1 h -2 v -1 h -2 v -1 h -1 v -1 h -2 v -1 h -2 v -1 h -2 v -1 h -1 v -1 h -2 v -1 h -2 v -1 h -1 v -1 h -2 v -1 h -2 v -1 h -1 v -1 h -2 v -1 h -1 v -1 h -1 v -1 h -2 v -1 h -1 v -1 h -2 v -1 h -1 v -1 h -1 v -1 h -2 v -1 h -1 v -1 h -1 v -1 h -2 v -1 h -1 v -1 h -1 v -1 h -1 v -1 h -1 v -1 h -2 v -1 h -1 v -1 h -1 v -1 h -1 v -1 h -1 v -1 h -1 v -1 h -1 v -1 h -1 v -1 h -1 v -1 h -2 v -1 h -1 v -1 h -1 v -1 h -1 v -2 h -1 v -1 h -1 v -1 h -1 v -1 h -1 v -1 h -1 v -1 h -1 v -1 h -1 v -1 h -1 v -1 h -1 v -1 h -1 v -2 h -1 v -1 h -1 v -1 h -1 v -1 h -1 v -1 h -1 v -2 h -1 v -1 h -1 v -1 h -1 v -2 h -1 v -1 h -1 v -2 h -1 v -1 h -1 v -1 h -1 v -2 h -1 v -1 h -1 v -1 h -1 v -2 h -1 v -1 h -1 v -2 h -1 v -2 h -1 v -2 h -1 v -1 h -1 v -2 h -1 v -2 h -1 v -1 h -1 v -2 h -1 v -2 h -1 v -2 h -1 v -1 h -1 v -3 h -1 v -2 h -1 v -2 h -1 v -2 h -1 v -2 h -1 v -3 h -1 v -2 h -1 v -2 h -1 v -2 h -1 v -3 h -1 v -3 h -1 v -3 h -1 v -3 h -1 v -3 h -1 v -3 h -1 v -3 h -1 v -2 h -1 v -5 h -1 v -4 h -1 v -4 h -1 v -4 h -1 v -5 h -1 v -5 h -1 v -7 h -1 v -8 h -1 v -7 h -1 v -16 h -1 v -20 h 1 v -16 h 1 v -7 h 1 v -7 h 1 v -7 h 1 v -5 h 1 v -4 h 1 v -4 h 1 v -4 h 1 v -4 h 1 v -3 h 1 v -3 h 1 v -2 h 1 v -3 h 1 v -3 h 1 v -3 h 1 v -2 h 1 v -3 h 1 v -2 h 1 v -2 h 1 v -2 h 1 v -2 h 1 v -2 h 1 v -2 h 1 v -2 h 1 v -2 h 1 v -1 h 1 v -2 h 1 v -1 h 1 v -2 h 1 v -2 h 1 v -1 h 1 v -2 h 1 v -1 h 1 v -2 h 1 v -1 h 1 v -2 h 1 v -1 h 1 v -1 h 1 v -2 h 1 v -1 h 1 v -1 h 1 v -1 h 1 v -2 h 1 v -1 h 1 v -1 h 1 v -1 h 1 v -1 h 1 v -2 h 1 v -1 h 1 v -1 h 1 v -1 h 1 v -1 h 1 v -1 h 1 v -1 h 1 v -1 h 1 v -1 h 1 v -1 h 1 v -1 h 1 v -1 h 1 v -1 h 1 v -1 h 1 v -1 h 1 v -1 h 1 v -1 h 1 v -1 h 1 v -1 h 1 v -1 h 1 v -1 h 2 v -1 h 1 v -1 h 1 v -1 h 1 v -1 h 1 v -1 h 1 v -1 h 2 v -1 h 1 v -1 h 1 v -1 h 1 v -1 h 1 v -1 h 2 v -1 h 1 v -1 h 1 v -1 h 2 v -1 h 1 v -1 h 1 v -1 h 2 v -1 h 1 v -1 h 1 v -1 h 2 v -1 h 1 v -1 h 2 v -1 h 1 v -1 h 2 v -1 h 1 v -1 h 2 v -1 h 1 v -1 h 2 v -1 h 1 v -1 h 2 v -1 h 1 v -1 h 2 v -1 h 1 v -1 h 2 v -1 h 2 v -1 h 1 v -1 h 2 v -1 h 2 v -1 h 1 v -1 h 2 v -1 h 2 v -1 h 1 v -1 h 2 v -1 h 2 v -1 h 1 v -1 h 2 v -1 h 2 v -1 h 2 v -1 h 2 v -1 h 1 v -1 h 2 v -1 h 2 v -1 h 2 v -1 h 2 v -1 h 1 v -1 h 2 v -1 h 2 v -1 h 2 v -1 h 2 v -1 h 2 v -1 h 2 v -1 h 2 v -1 h 2 v -1 h 2 v -1 h 2 v -1 h 1 v -1 h 2 v -1 h 2 v -1 h 2 v -1 h 2 v -1 h 2 v -1 h 2 v -1 h 2 v -1 h 2 v -1 h 2 v -1 h 2 v -1 h 2 v -1 h 2 v -1 h 2 v -1 h 2 v -1 h 2 v -1 h 2 v -1 h 2 v -1 h 2 v -1 h 3 v -1 h 2 v -1 h 2 v -1 h 2 v -1 h 2 v -1 h 2 v -1 h 2 v -1 h 2 v -1 h 2 v -1 h 2 v -1 h 2 v -1 h 2 v -1 h 2 v -1 h 2 v -1 h 2 v -1 h 2 v -1 h 2 v -1 h 3 v -1 h 2 v -1 h 2 v -1 h 2 v -1 h 2 v -1 h 2 v -1 h 2 v -1 h 2 v -1 h 2 v -1 h 2 v -1 h 2 v -1 h 2 v -1 h 3 v -1 h 2 v -1 h 2 v -1 h 2 v -1 h 2 v -1 h 2 v -1 h 2 v -1 h 2 v -1 h 2 v -1 h 2 v -1 h 2 v -1 h 3 v -1 h 2 v -1 h 2 v -1 h 2 v -1 h 2 v -1 h 2 v -1 h 2 v -1 h 2 v -1 h 2 v -1 h 2 v -1 h 2 v -1 h 2 v -1 h 2 v -1 h 2 v -1 h 3 v -1 h 2 v -1 h 2 v -1 h 2 v -1 h 2 v -1 h 2 v -1 h 2 v -1 h 2 v -1 h 2 v -1 h 2 v -1 h 2 v -1 h 2 v -1 h 2 v -1 h 2 v -1 h 2 v -1 h 2 v -1 h 2 v -1 h 2 v -1 h 2 v -1 h 2 v -1 h 2 v -1 h 2 v -1 h 2 v -1 h 2 v -1 h 2 v -1 h 2 v -1 h 2 v -1 h 2 v -1 h 1 v -1 h 2 v -1 h 2 v -1 h 2 v -1 h 2 v -1 h 2 v -1 h 2 v -1 h 1 v -1 h 2 v -1 h 2 v -1 h 2 v -1 h 2 v -1 h 2 v -1 h 1 v -1 h 2 v -1 h 2 v -1 h 2 v -1 h 1 v -1 h 2 v -1 h 2 v -1 h 1 v -1 h 2 v -1 h 2 v -1 h 2 v -1 h 1 v -1 h 2 v -1 h 1 v -1 h 2 v -1 h 2 v -1 h 1 v -1 h 2 v -1 h 1 v -1 h 2 v -1 h 2 v -1 h 1 v -1 h 2 v -1 h 1 v -1 h 2 v -1 h 1 v -1 h 2 v -1 h 1 v -1 h 2 v -1 h 1 v -1 h 2 v -1 h 1 v -1 h 1 v -1 h 2 v -1 h 1 v -1 h 2 v -1 h 1 v -1 h 2 v -1 h 1 v -1 h 1 v -1 h 2 v -1 h 1 v -1 h 2 v -1 h 1 v -1 h 1 v -1 h 2 v -1 h 1 v -1 h 1 v -1 h 2 v -1 h 1 v -1 h 1 v -1 h 1 v -1 h 2 v -1 h 1 v -1 h 1 v -1 h 1 v -1 h 1 v -1 h 2 v -1 h 1 v -1 h 1 v -1 h 1 v -1 h 1 v -1 h 1 v -1 h 2 v -1 h 1 v -1 h 1 v -1 h 1 v -1 h 1 v -1 h 1 v -1 h 1 v -1 h 1 v -1 h 1 v -1 h 1 v -1 h 1 v -1 h 1 v -1 h 1 v -1 h 1 v -1 h 1 v -1 h 1 v -1 h 1 v -1 h 1 v -1 h 1 v -1 h 1 v -1 h 1 v -1 h 1 v -1 h 1 v -1 h 1 v -1 h 1 v -2 h 1 v -1 h 1 v -1 h 1 v -1 h 1 v -1 h 1 v -2 h 1 v -1 h 1 v -1 h 1 v -1 h 1 v -2 h 1 v -1 h 1 v -1 h 1 v -2 h 1 v -1 h 1 v -2 h 1 v -1 h 1 v -1 h 1 v -2 h 1 v -1 h 1 v -2 h 1 v -1 h 1 v -2 h 1 v -2 h 1 v -1 h 1 v -2 h 1 v -2 h 1 v -1 h 1 v -2 h 1 v -2 h 1 v -2 h 1 v -2 h 1 v -2 h 1 v -2 h 1 v -2 h 1 v -2 h 1 v -2 h 1 v -2 h 1 v -3 h 1 v -2 h 1 v -2 h 1 v -3 h 1 v -2 h 1 v -3 h 1 v -3 h 1 v -3 h 1 v -3 h 1 v -3 h 1 v -4 h 1 v -3 h 1 v -4 h 1 v -4 h 1 v -5 h 1 v -5 h 1 v -6 h 1 v -5 h 1 v -9 h 1 v -10 h 1 v -47 h -1 v -13 h -1 v -6 h -1 v -7 h -1 v -6 h -1 v -6 h -1 v -7 h -1 v -4 h -1 v -3 h -1 v -4 h -1 v -4 h -1 v -3 h -1 v -4 h -1 v -4 h -1 v -4 h -1 v -3 h -1 v -3 h -1 v -2 h -1 v -3 h -1 v -2 h -1 v -3 h -1 v -3 h -1 v -2 h -1 v -3 h -1 v -2 h -1 v -3 h -1 v -3 h -1 v -2 h -1 v -2 h -1 v -2 h -1 v -2 h -1 v -2 h -1 v -2 h -1 v -2 h -1 v -2 h -1 v -2 h -1 v -2 h -1 v -2 h -1 v -2 h -1 v -2 h -1 v -2 h -1 v -2 h -1 v -1 h -1 v -2 h -1 v -1 h -1 v -2 h -1 v -1 h -1 v -2 h -1 v -2 h -1 v -1 h -1 v -2 h -1 v -1 h -1 v -2 h -1 v -1 h -1 v -2 h -1 v -1 h -1 v -2 h -1 v -1 h -1 v -2 h -1 v -2 h -1 v -1 h -1 v -1 h -1 v -1 h -1 v -2 h -1 v -1 h -1 v -1 h -1 v -1 h -1 v -2 h -1 v -1 h -1 v -1 h -1 v -1 h -1 v -2 h -1 v -1 h -1 v -1 h -1 v -1 h -1 v -2 h -1 v -1 h -1 v -1 h -1 v -1 h -1 v -2 h -1 v -1 h -1 v -1 h -1 v -1 h -1 v -1 h -1 v -1 h -1 v -1 h -1 v -1 h -1 v -1 h -1 v -1 h -1 v -1 h -1 v -1 h -1 v -1 h -1 v -1 h -1 v -1 h -1 v -1 h -1 v -1 h -1 v -1 h -1 v -1 h -1 v -1 h -1 v -1 h -1 v -1 h -1 v -1 h -1 v -1 h -1 v -1 h -1 v -1 h -1 v -1 h -1 v -1 h -1 v -1 h -1 v -1 h -2 v -1 h -1 v -1 h -1 v -1 h -1 v -1 h -1 v -1 h -2 v -1 h -1 v -1 h -1 v -1 h -1 v -1 h -1 v -1 h -1 v -1 h -2 v -1 h -1 v -1 h -1 v -1 h -1 v -1 h -1 v -1 h -2 v -1 h -1 v -1 h -2 v -1 h -1 v -1 h -2 v -1 h -1 v -1 h -1 v -1 h -2 v -1 h -1 v -1 h -2 v -1 h -1 v -1 h -2 v -1 h -1 v -1 h -2 v -1 h -1 v -1 h -1 v -1 h -2 v -1 h -1 v -1 h -2 v -1 h -1 v -1 h -2 v -1 h -2 v -1 h -2 v -1 h -2 v -1 h -1 v -1 h -2 v -1 h -2 v -1 h -2 v -1 h -1 v -1 h -2 v -1 h -2 v -1 h -2 v -1 h -2 v -1 h -1 v -1 h -2 v -1 h -2 v -1 h -2 v -1 h -3 v -1 h -2 v -1 h -2 v -1 h -2 v -1 h -3 v -1 h -2 v -1 h -2 v -1 h -2 v -1 h -3 v -1 h -2 v -1 h -2 v -1 h -2 v -1 h -3 v -1 h -3 v -1 h -3 v -1 h -3 v -1 h -3 v -1 h -3 v -1 h -3 v -1 h -3 v -1 h -3 v -1 h -3 v -1 h -3 v -1 h -4 v -1 h -4 v -1 h -4 v -1 h -5 v -1 h -4 v -1 h -4 v -1 h -5 v -1 h -4 v -1 h -6 v -1 h -7 v -1 h -7 v -1 h -8 v -1 h -7 v -1 h -14 v -1" /></g></g></g><path
         id="path128"
         style="fill:#b19922;fill-opacity:1;fill-rule:nonzero;stroke:none"
         d="M 1254.72,2299.93 634.336,891.789 h 46.668 L 1254.72,2193.8 1828.78,891.789 h 46.31 L 1254.72,2299.93" /><path
         id="path130"
         style="fill:#b19922;fill-opacity:1;fill-rule:nonzero;stroke:none"
         d="m 1391.9,945.73 c -0.77,0.372 -1.81,0.399 -2.88,0.399 h -3.57 v -6.918 h 3.57 c 1.07,0 2.11,0.019 2.88,0.379 1.29,0.57 1.74,1.969 1.74,3.07 0,1.121 -0.45,2.512 -1.74,3.07" /><path
         id="path132"
         style="fill:#b19922;fill-opacity:1;fill-rule:nonzero;stroke:none"
         d="m 1295.99,933.57 h 12.89 l -6.42,16.989 z" /><path
         id="path134"
         style="fill:#b19922;fill-opacity:1;fill-rule:nonzero;stroke:none"
         d="m 1161.34,933.57 h 12.87 l -6.42,16.989 z" /><path
         id="path136"
         style="fill:#b19922;fill-opacity:1;fill-rule:nonzero;stroke:none"
         d="m 1273.68,953.398 c -1.57,0.762 -3.57,0.801 -5.66,0.801 h -0.01 -3.43 v -14.937 h 3.76 c 2.49,0 4.73,0.129 6.79,1.679 1.52,1.118 2.43,3.321 2.43,5.84 0,2.367 -1.01,5.36 -3.88,6.617" /><path
         id="path138"
         style="fill:#b19922;fill-opacity:1;fill-rule:nonzero;stroke:none"
         d="m 1389.09,916.641 c -11.68,0 -20.92,9.23 -20.92,20.82 0,11.578 9.24,20.82 20.92,20.82 11.69,0 20.93,-9.242 20.93,-20.82 0,-11.59 -9.24,-20.82 -20.93,-20.82 z m -50.77,0 c -4.88,0 -9.26,2.48 -11.68,6.597 l -0.28,0.453 1.57,3.989 1.13,-1.828 c 2.47,-3.954 5.35,-5.731 9.36,-5.731 5.21,0 9.14,3.527 9.14,8.149 0,4.378 -4.83,6.851 -8.04,8.46 -0.31,0.161 -0.61,0.329 -0.88,0.45 -0.27,0.152 -0.6,0.308 -0.97,0.48 -2.96,1.41 -9.14,4.36 -9.14,10.602 0,5.828 4.47,10.019 10.56,10.019 4.56,0 7.6,-2.39 7.6,-2.39 l 1.55,-4.051 c 0,0 -4.77,2.949 -9.31,2.949 -3.97,0 -6.86,-2.75 -6.86,-6.527 0,-3.871 4.02,-5.871 7.56,-7.66 l 0.67,-0.321 c 0.26,-0.133 0.54,-0.261 0.85,-0.422 3.52,-1.711 10.06,-4.89 10.06,-11.789 0,-6.41 -5.67,-11.429 -12.89,-11.429 z m -23.27,0.64 -4.88,12.879 h -15.48 l -4.9,-12.879 h -3.68 l 16.35,42.59 16.26,-42.59 z m -38.3,20.59 c -2.82,-1.992 -5.52,-2.062 -8.36,-2.062 h -3.81 v -18.528 h -3.56 v 40.348 h 6.55 c 3.01,0 6.4,0 9.26,-2.078 2.74,-1.922 4.19,-5 4.19,-8.879 0,-3.692 -1.65,-6.922 -4.27,-8.801 z m -29.98,-20.59 -12.59,33.278 -13.03,-34.239 -12.95,34.239 -12.66,-33.278 h -3.69 l 16.35,42.59 12.96,-33.91 13.02,33.91 16.27,-42.59 z m -66.39,0 -4.87,12.879 h -15.48 l -4.9,-12.879 h -3.69 l 16.35,42.59 16.28,-42.59 z m -65.63,-0.64 c -11.69,0 -20.94,9.23 -20.94,20.82 0,11.578 9.25,20.82 20.94,20.82 11.68,0 20.92,-9.242 20.92,-20.82 0,-11.59 -9.24,-20.82 -20.92,-20.82 z m 249.04,91.169 c -11.76,17.37 -10.56,20.77 -30.74,23.11 -45.04,2.33 -51.04,8.01 -51.04,41.47 0,30.07 13.35,86.59 14.5,108.41 1.2,27.76 -2.36,38.07 -2.36,57.69 0,19.66 13.09,41.58 15.43,87.72 2.4,46.12 -8.63,79.44 -8.63,79.44 9.65,1.28 21.38,8.13 25,16.27 4.7,11.46 20.1,73.84 20.1,99.14 0,10.4 -1.16,19.58 -3.46,26.51 -10.88,25.56 -42.43,21.1 -56.65,37.47 -4.49,5.09 -7.27,4.82 -7.61,23.2 7.43,10.17 9.68,25.41 9.68,47.41 0,18.35 -14.29,32.57 -33.28,32.57 -19.04,0 -33.3,-14.22 -33.3,-32.57 0,-22 2.24,-37.24 9.68,-47.41 -0.35,-18.38 -3.16,-18.11 -7.62,-23.2 -14.2,-16.37 -45.73,-11.91 -56.67,-37.47 -2.31,-6.93 -3.44,-16.11 -3.44,-26.51 0,-25.3 15.4,-87.68 20.08,-99.14 3.62,-8.14 15.4,-14.99 24.97,-16.27 0,0 -11,-33.32 -8.59,-79.44 2.35,-46.14 15.42,-68.06 15.42,-87.72 0,-19.62 -3.58,-29.93 -2.34,-57.69 1.14,-21.82 14.5,-78.34 14.5,-108.41 0,-33.46 -5.99,-39.14 -51.04,-41.47 -20.18,-2.34 -18.99,-5.74 -30.73,-23.11 h -60.18 l -49.31,-116.029 h 437.11 l -49.36,116.029 h -60.12" /><path
         id="path140"
         style="fill:#b19922;fill-opacity:1;fill-rule:nonzero;stroke:none"
         d="m 1108.44,930.98 c 1.73,-1.73 4.04,-2.671 6.48,-2.671 4.69,0 8.7,3.3 8.7,3.3 l -1.8,-4.668 c 0,0 -2.98,-2 -6.9,-2 -3.35,0 -6.48,1.309 -8.87,3.668 -4.86,4.879 -4.86,12.813 0,17.7 2.39,2.363 5.52,3.66 8.87,3.66 4.69,0 7.31,-2 7.31,-2 l 1.73,-4.321 c 0,0 -4.24,2.981 -9.04,2.981 -2.38,0 -4.75,-0.957 -6.48,-2.688 -1.72,-1.742 -2.69,-4.043 -2.69,-6.472 0,-2.457 0.97,-4.77 2.69,-6.489 z m 6.31,24.09 c -9.57,0 -17.72,-7.789 -17.72,-17.609 0,-9.82 8.15,-17.621 17.72,-17.621 9.56,0 17.72,7.801 17.72,17.621 0,9.82 -8.16,17.609 -17.72,17.609" /><path
         id="path142"
         style="fill:#b19922;fill-opacity:1;fill-rule:nonzero;stroke:none"
         d="m 1396.98,942.609 h -0.01 c -0.03,-2.371 -0.93,-4.238 -2.62,-5.429 -1.26,-0.899 -2.68,-1.149 -4,-1.25 l 6.63,-10.45 h -3.92 l -6.56,10.36 h -1.05 v -10.36 h -3.38 v 23.969 h 6.67 c 1.7,0 3.83,0 5.61,-1.308 1.69,-1.18 2.59,-3.063 2.62,-5.43 h 0.01 c 0,-0.012 -0.01,-0.031 -0.01,-0.051 0,-0.012 0.01,-0.031 0.01,-0.051 z m -7.89,12.461 c -9.56,0 -17.71,-7.789 -17.71,-17.609 0,-9.82 8.15,-17.621 17.71,-17.621 9.56,0 17.72,7.801 17.72,17.621 0,9.82 -8.16,17.609 -17.72,17.609" /></g></g></svg>