<svg id="Layer_1" data-name="Layer 1" xmlns="http://www.w3.org/2000/svg" xmlns:xlink="http://www.w3.org/1999/xlink" viewBox="0 0 360 146.17015"><defs><style>.cls-1{fill:#b99c35;}.cls-2{fill:url(#linear-gradient);}.cls-3{fill:url(#linear-gradient-2);}.cls-4{fill:url(#linear-gradient-3);}.cls-5{fill:url(#linear-gradient-4);}.cls-6,.cls-8{fill:none;}.cls-7{fill:#b89b34;}.cls-8{stroke:#b89b34;stroke-linecap:round;stroke-linejoin:round;stroke-width:0;}</style><linearGradient id="linear-gradient" x1="289.65436" y1="73.56303" x2="356.2671" y2="73.56303" gradientUnits="userSpaceOnUse"><stop offset="0" stop-color="#12aec9"/><stop offset="1" stop-color="#22bef0"/></linearGradient><linearGradient id="linear-gradient-2" x1="222.25547" y1="73.33497" x2="274.9254" y2="73.33497" gradientUnits="userSpaceOnUse"><stop offset="0" stop-color="#81bb41"/><stop offset="1" stop-color="#15958a"/></linearGradient><linearGradient id="linear-gradient-3" x1="102.5246" y1="39.27928" x2="195.76059" y2="39.27928" gradientUnits="userSpaceOnUse"><stop offset="0" stop-color="#ee3640"/><stop offset="1" stop-color="#fbc52a"/></linearGradient><linearGradient id="linear-gradient-4" x1="131.26391" y1="122.61475" x2="195.77866" y2="122.61475" xlink:href="#linear-gradient-3"/></defs><title>ACES-LOGO-1024x393</title><path class="cls-1" d="M120.668,141.01671c-1.37536.21771-2.2079-.49969-2.83618-1.93178Q99.83347,98.06052,81.75806,57.06988,73.086,37.37212,64.394,17.6832c-.26126-.591-.29535-1.61655-1.16461-1.5218-.73.07957-.84493,1.04083-1.11752,1.65878q-7.74255,17.55114-15.451,35.11731-16.15918,36.72191-32.3266,73.4402c-1.85383,4.21057-3.81659,8.37647-5.54457,12.63781-.91922,2.26689-2.62239,2.20672-4.41645,1.90252-1.60991-.273-.79314-1.39565-.45754-2.1713,2.19847-5.08114,4.43321-10.14664,6.66416-15.2137q18.52334-42.07149,37.05-84.14155,7.25836-16.4859,14.51989-32.97038c.267-.60436.35921-1.59754,1.18538-1.55305.78907.04249.81343,1.03328,1.08315,1.64539q28.62859,64.972,57.23946,129.95174c.28288.64228.59629,1.27107.88151,1.91236C123.6116,140.78846,123.43888,141.05628,120.668,141.01671Z"/><path class="cls-2" d="M321.55068,131.64367c-14.90684.0144-24.86977-7.5977-31.45659-20.42934-.62383-1.21519-.75992-2.07413.78208-2.78128,1.53616-.70447,2.35716-.49252,3.10573,1.08006,3.27322,6.87629,7.866,12.58491,15.01382,15.732C326.42,132.91672,348.89,124.0804,351.4391,101.892c1.01272-8.815-3.68555-17.30469-12.32409-22.15208-7.215-4.04857-14.72109-7.52418-22.08457-11.28046-2.70832-1.38159-5.39409-2.8091-8.06584-4.26043-12.51205-6.79675-15.90319-19.35618-11.47707-31.63116,3.67027-10.17884,11.42007-15.60064,21.95754-16.822,11.86645-1.37546,21.86324,2.21991,29.05051,12.20942.5995.83327,1.54416,1.688.32889,2.83364-1.15981,1.09329-1.9392,1.7519-3.193-.14085-8.14261-12.29219-23.62358-13.80418-33.14247-8.95724-7.47851,3.808-11.13178,10.16234-11.90877,18.34423-.96064,10.11591,3.796,16.9312,12.34729,21.6944,7.98207,4.44613,16.43015,7.93859,24.49382,12.211a54.52589,54.52589,0,0,1,10.16377,6.64051c8.0011,6.87418,10.05839,15.65046,7.85378,25.62154-2.83093,12.80381-13.77855,22.77165-27.11939,24.933A34.02689,34.02689,0,0,1,321.55068,131.64367Z"/><path class="cls-3" d="M222.30022,73.16352q-.00042-26.44349.00146-52.887c.00068-3.36657.01394-3.3849,3.38948-3.387q23.05029-.0141,46.10057.00421c1.02309.00142,2.27919-.39722,2.88124.93543.7446,1.64823-.20661,2.87406-2.31065,2.87988q-13.80667.03821-27.61349.01983c-5.22629.00054-10.45352.04809-15.67838-.0402-1.84132-.0311-2.439.64625-2.432,2.45873q.07749,20.12484-.01148,40.24994c-.01192,2.09833.74594,2.65426,2.73626,2.64465,13.80646-.06662,27.61338-.0409,41.42015-.03192a3.82722,3.82722,0,0,1,2.495.35329c.62973.48043.56068,1.24294.48647,1.949a1.39413,1.39413,0,0,1-1.26838,1.44044c-.77383.07661-1.55605.094-2.33457.09423-13.49476.00329-26.9899.05034-40.48395-.04975-2.35862-.01749-3.07419.68088-3.0613,3.05277q.13595,25.03873.0014,50.07843c-.01229,2.34524.65934,3.09393,3.04282,3.07707,14.04009-.09928,28.08125-.05918,42.122-.0352,1.024.00175,2.27925-.397,2.8873.92756.753,1.64041-.20369,2.8796-2.29916,2.88738q-11.34951.04224-22.69925.02075c-8.11244-.00193-16.22591-.08653-24.33672.0238-2.35274.032-3.09039-.715-3.07948-3.07762C222.33788,108.88971,222.30054,91.02653,222.30022,73.16352Z"/><path class="cls-4" d="M105.63191,63.16893c-2.07908-3.044-4.17325-5.61374-2.49874-9.73817,8.85785-21.81755,24.77759-34.49965,48.09925-37.52909,15.665-2.03485,29.81354,2.01316,42.2759,11.82427,1.54005,1.21239,2.48379,2.54027,2.203,4.54923-.08241.58962.27163,1.40209-.3791,1.70623-.69077.32285-1.05327-.48656-1.49022-.87616A53.0327,53.0327,0,0,0,106.42811,59.862C106.15554,60.96254,105.897,62.06654,105.63191,63.16893Z"/><path class="cls-5" d="M131.26391,120.60333c1.44371.69642,2.86871,1.43514,4.33393,2.08291,20.90756,9.24315,40.11881,6.091,57.8479-7.92331.58054-.45887,1.07421-1.53742,1.84238-1.15954.85806.42209.30455,1.55168.41973,2.364a3.65392,3.65392,0,0,1-1.72723,3.57175,56.14762,56.14762,0,0,1-32.34214,12.09006,63.0637,63.0637,0,0,1-25.89588-4.23234C132.506,126.15977,131.96686,123.49289,131.26391,120.60333Z"/><path class="cls-6" d="M75.148,140.60188a.93823.93823,0,0,0,.4541-.30847h0A.9383.9383,0,0,1,75.148,140.60188Z"/><path class="cls-6" d="M75.87238,140.23257a.88865.88865,0,0,0,.29587-.16563A.889.889,0,0,1,75.87238,140.23257Z"/><path class="cls-6" d="M75.87238,140.23257a1.50768,1.50768,0,0,1-.27019.06081l-.00006,0A1.5085,1.5085,0,0,0,75.87238,140.23257Z"/><path class="cls-6" d="M73.6294,138.08528l-.00009.00009a3.56852,3.56852,0,0,1-.10316.88223A3.56789,3.56789,0,0,0,73.6294,138.08528Z"/><path class="cls-6" d="M50.06591,139.18775a4.48241,4.48241,0,0,1-.02306.84169l.00006.00007A4.47807,4.47807,0,0,0,50.06591,139.18775Z"/><path class="cls-7" d="M80.07127,130.66825c-.31138-.78609-.65588-1.02644-1.36726-1.02859-1.3496-.0041-2.69935-.01388-4.04873.00218-.61638.00735-1.2056-.12087-1.43823-.71325a2.5786,2.5786,0,0,0-2.52969-1.57454c-.77185-.06953-1.54751-.13225-2.31-.26434-2.05457-.356-2.58885-1.01772-2.62973-3.12945a33.29465,33.29465,0,0,1,.60113-5.966c.48853-3.01923,1.10141-6.02449.66988-9.12185a8.19854,8.19854,0,0,1,.06365-3.17466,55.46729,55.46729,0,0,0,1.3936-6.707,28.79768,28.79768,0,0,0-.715-7.507c-.12131-.45181-.04478-.8015.463-.95356,1.38613-.415,1.89845-1.49195,2.232-2.78789a19.52974,19.52974,0,0,1,.95713-3.506l-.00366-.00144c.05075-1.63135.57072-3.2016.55451-4.85148-.02876-2.926-.59488-3.7968-3.36411-4.81483a11.18072,11.18072,0,0,1-1.58229-.64813A2.66844,2.66844,0,0,1,65.66618,70.218a9.85329,9.85329,0,0,0,.63526-3.58807,3.2137,3.2137,0,0,0-1.52751-3.00364,3.82179,3.82179,0,0,0-3.8527.158,1.89892,1.89892,0,0,0-.985,1.47838,9.57824,9.57824,0,0,0,.46431,4.98077,2.47963,2.47963,0,0,1-1.22972,3.59539c-.92213.51062-1.939.84869-2.90767,1.27706a3.30362,3.30362,0,0,0-2.02738,3.0963c-.0535,1.18088.01375,2.36722.02775,3.551l-.01188.00662q.69408,2.96388,1.38819,5.92781a3.27184,3.27184,0,0,0,2.26089,2.91963c.63659.1921.4195.71807.31634,1.132-.77131,3.09513-.52262,6.238-.41519,9.36806a7.28044,7.28044,0,0,0,.58463,1.83057,16.72956,16.72956,0,0,1,.70572,6.90049,19.07711,19.07711,0,0,0,.16428,5.62587c.36222,1.78776.66719,3.58557.98032,5.38086a14.71152,14.71152,0,0,1,.13991,3.67373,2.2811,2.2811,0,0,1-2.19482,2.49133c-1.03866.20025-2.09529.32237-3.14923.42337a2.21489,2.21489,0,0,0-1.96176,1.25135,1.68387,1.68387,0,0,1-1.80488.95422c-1.10326-.04653-2.21642.06094-3.31317-.03562a1.7504,1.7504,0,0,0-2.00429,1.32481c-1.22769,3.02783-2.53507,6.0235-3.82648,9.02516-.12178.28307-.126.65969-.49044.80241l.05956.2545h8.60163c-.14616-.18725-.28688-.37906-.43941-.56094a1.84939,1.84939,0,0,1-.01419-2.63276,2.12125,2.12125,0,0,1,2.48507-.12487,1.66,1.66,0,0,1,.53429,1.86616,2.75827,2.75827,0,0,1-.35269.71091l.00606-.00056-.49882.74206h4.66946c-.2166-1.39988-.65335-1.57075-2.1647-.70269.42494-1.02566.7976-1.92516,1.238-2.988a23.026,23.026,0,0,1,1.41825,3.69073h.73729a24.62807,24.62807,0,0,1,1.34835-3.7646,9.17978,9.17978,0,0,1,.97447,2.72369c-.64663-.38044-.50794-1.08972-.97563-1.56175a13.16981,13.16981,0,0,0-1.10144,2.60266h4.4237a13.03612,13.03612,0,0,0-1.026-2.58254c-.28044.0835-.21247.48816-.59976.48385-.11875-.57457.34132-.93491.51232-1.53441a31.90261,31.90261,0,0,1,1.60494,3.6331h.73729c.00553-.89953.00028-1.79938.02165-2.69854.00907-.38131-.12953-.88456.50194-.92644.50916-.03375,1.0011.01569,1.20316.60344.168.48875.04828,1.05763-.40181,1.14388-1.28326.24591-.85819,1.12429-.83341,1.87766h1.72032c.41578-1.12791.83156-2.25585,1.30578-3.54242a5.40971,5.40971,0,0,1,1.154,2.65629c-1.38613-.64919-1.73507-.479-1.96826.88613H69.9537l-.37735-.728c.38569-.21175.51451.19625.775.24644.39415.07591.78769.037.97081-.32481.1785-.35269-.16815-.58651-.4035-.79407a5.32315,5.32315,0,0,0-.60956-.4045c-.45172-.29835-.77644-.71472-.44616-1.22057.3735-.57206.9091-.54853,1.49435-.10065-.412.25037-1.00819-.21235-1.16857.39681-.14647.55628.40813.63822.70728.85988.81579.60431,1.04379,1.2611.28651,2.06944h2.70335c-.41785-.95069-1.59419-1.83825-.25656-2.93495l-.00119-.02468.00012.00015v-.00009l.02991-.00806c.61316-.93635,1.42335-.71669,2.2527-.38175-.81519-.269-1.50895.20928-2.2527.38175-.00556.00847-.01169.0135-.01722.02215l-.01153.01044a3.56789,3.56789,0,0,1-.10325.88232,2.62108,2.62108,0,0,0-.04506.388,1.051,1.051,0,0,0,.0324.30031c.07788.28475.31107.51685.8701.63872l-.01659-.01519-.001-.00084h0l0,0,.01844-.014v-1.912c1.13072.23688,1.02881.96885.97328,1.67629l.00494.00625.008.00762c.1469-.00062.19509.09357.21987.21032l.02666.02547-.00031.00031.00031-.00028-.015.0149a1.50768,1.50768,0,0,0,.27019-.06081.889.889,0,0,0,.29587-.16563.77759.77759,0,0,0,.18213-.20756,1.181,1.181,0,0,0,.12606-.36006c.01713-.08625.02869-.17575.038-.26647.014-.13613.02294-.27507.03825-.41041.00922-.08144.02141-.16125.03769-.23863l-.00772-.014-.00762-.03115-.19972-.19738.1269-.09987.07282.29725.02012.0199-.00478.02528c.65953,1.08226-.127,1.73323-.73841,2.43651h8.35587c.06163-.08681.12326-.17359.18579-.26047C82.93781,137.40215,81.41843,134.0693,80.07127,130.66825Z"/><polygon class="cls-7" points="73.628 138.061 73.628 138.061 73.641 138.075 73.628 138.061"/><path class="cls-7" d="M52.49835,140.29166l0-.00006,0,0,.001-.01222q-.33939.03094-.67879.06179a1.15859,1.15859,0,0,1-1.76416-.296c-.0055.00015-.01081-.0011-.01631-.00085l-.0001.0001.00282-.015c-.70644-.59787-.44179-1.25428-.01944-1.82691a1.5005,1.5005,0,0,1,2.55994,1.244c-.046.27459-.05753.555-.084.83287l.00653-.00059a2.75827,2.75827,0,0,0,.35269-.71091,1.66,1.66,0,0,0-.53429-1.86616,2.12125,2.12125,0,0,0-2.48507.12487,1.84939,1.84939,0,0,0,.01419,2.63276c.15253.18188.29325.37369.43941.56094h1.72031l.49882-.74206Z"/><polygon class="cls-7" points="52.498 140.292 52.512 140.278 52.498 140.292 52.498 140.292"/><polygon class="cls-7" points="75.602 140.293 75.602 140.293 75.602 140.293 75.602 140.293 75.602 140.293"/><path class="cls-7" d="M76.58266,138.56978l.00772.014.00478-.02528Z"/><path class="cls-8" d="M73.51349,139.65588a1.051,1.051,0,0,1-.0324-.30031"/><path class="cls-7" d="M73.62824,138.06084l-.00012-.00015.00119.02468.00009-.00009Z"/><path class="cls-8" d="M76.59038,138.58381l.00478-.02528"/><path class="cls-7" d="M73.64093,138.07484l-.01269-.014.00116.02444Z"/><path class="cls-7" d="M75.60219,140.29338l.015-.0149-.00031.00028-.01478.01462Z"/><path class="cls-7" d="M74.62531,139.98891c.18109-.24484.36988-.45822.73244.03988.05553-.70744.15744-1.43941-.97328-1.67629v1.912a.56576.56576,0,0,0,.09025-.0815C74.52662,140.12538,74.57572,140.056,74.62531,139.98891Z"/><polygon class="cls-7" points="74.366 140.279 74.367 140.279 74.366 140.279 74.366 140.279"/><path class="cls-7" d="M75.91085,137.67094c-.82935-.33494-1.63954-.5546-2.2527.38175C74.4019,137.88022,75.09566,137.40193,75.91085,137.67094Z"/><path class="cls-7" d="M73.65815,138.05269l-.02991.00806.01269.01409C73.64646,138.06619,73.65259,138.06116,73.65815,138.05269Z"/><path class="cls-7" d="M76.37532,138.34125l.19972.19738-.07282-.29725Z"/><path class="cls-7" d="M76.575,138.53863l.00762.03115.0125-.01125Z"/><path class="cls-7" d="M75.37069,140.04266l.21987.21032C75.56578,140.13623,75.51759,140.042,75.37069,140.04266Z"/><path class="cls-7" d="M52.49835,140.29163l.00757-.01281-.00653.00059Z"/><path class="cls-7" d="M52.49839,140.2916l.00753-.01278-.00757.01281Z"/><path class="cls-7" d="M50.04285,140.02944l-.00282.015.0001-.0001.00278-.01487Z"/><path class="cls-7" d="M52.512,140.27826l-.00606.00056-.00753.01278Z"/><path class="cls-7" d="M50.05644,140.04523a1.15859,1.15859,0,0,0,1.76416.296q-.04209-.04561-.08594-.08963C51.13919,140.4776,50.62632,140.02879,50.05644,140.04523Z"/><path class="cls-7" d="M75.148,140.60188a.9383.9383,0,0,0,.45406-.30847l-.00206.00041.00006-.00006-.00009,0c-.00244-.01428-.0065-.027-.00944-.04081l-.21987-.21032c-.00535,0-.00825-.00231-.01388-.002l.00094-.01184c-.36256-.4981-.55135-.28472-.73244-.03988-.04959.0671-.09869.13647-.15059.19413a.566.566,0,0,1-.09025.08153v.03028l-.00088-.00025A.81.81,0,0,0,75.148,140.60188Z"/><path class="cls-7" d="M74.38447,140.26454l-.01844.014,0,0,.01841-.014Z"/><polygon class="cls-7" points="75.6 140.294 75.617 140.279 75.617 140.278 75.6 140.294 75.6 140.294"/><polygon class="cls-7" points="75.6 140.294 75.6 140.294 75.602 140.293 75.602 140.293 75.6 140.294"/><line class="cls-8" x1="74.36603" y1="140.27854" x2="74.36606" y2="140.27857"/><path class="cls-7" d="M74.367,140.27941l.01659.01519.00088.00025Z"/><path class="cls-7" d="M75.60213,140.29338l.01478-.01462-.01682.015Z"/><path class="cls-7" d="M74.47472,140.183a.56576.56576,0,0,1-.09025.0815v0A.566.566,0,0,0,74.47472,140.183Z"/><path class="cls-8" d="M74.62531,139.98891c-.04959.0671-.09869.13647-.15059.19413"/><path class="cls-7" d="M75.36269,140.035l-.00494-.00625-.00094.01184Z"/><path class="cls-7" d="M74.38447,140.26457l-.01841.014.01841.01628Z"/><polygon class="cls-7" points="74.366 140.279 74.367 140.279 74.384 140.295 74.366 140.279"/><path class="cls-7" d="M75.61722,140.27845l-.02666-.02547c.00294.01381.007.02653.00944.04081Z"/><path class="cls-7" d="M75.37069,140.04266l-.008-.00762-.00588.00559C75.36244,140.04035,75.36534,140.04269,75.37069,140.04266Z"/><path class="cls-7" d="M64.63555,138.93625a.665.665,0,0,0,.62144-.69528.57641.57641,0,0,0-.57472-.429c-.49056,0-.433.38347-.44.69094C64.23662,138.74969,64.28652,139.0166,64.63555,138.93625Z"/><path class="cls-7" d="M51.73466,140.25157c-.02346-.75778-.78641-.21728-1.09359-.63553-.37513-.51072.11825-.89851.099-1.38832a.9663.9663,0,0,0-.61891.59559,1.11466,1.11466,0,0,0-.04522.22257c-.00513.04687-.00869.09415-.01.14187a4.47807,4.47807,0,0,1-.023.84176l.00562.00568.00791.01C50.62632,140.02879,51.13919,140.4776,51.73466,140.25157Z"/><path class="cls-8" d="M50.07594,139.04588c-.00513.04687-.00869.09415-.01.14187"/><path class="cls-7" d="M50.04291,140.02951l-.00278.01487.0084-.00919Z"/><path class="cls-7" d="M50.04013,140.04438c.0055-.00025.01081.001.01631.00085l-.00791-.01Z"/></svg>