<svg width="55" height="58" version="1.1" xmlns="http://www.w3.org/2000/svg"><path fill="rgb(241,246,246)" stroke="rgb(241,246,246)" stroke-width="1" opacity="1" d="M 28.5 29 L 29 30.5 L 27 31.5 L 28.5 29 Z "></path><path fill="rgb(241,246,246)" stroke="rgb(241,246,246)" stroke-width="1" opacity="1" d="M 31.5 34 L 30.5 36 L 31.5 34 Z "></path><path fill="rgb(241,246,246)" stroke="rgb(241,246,246)" stroke-width="1" opacity="1" d="M 28.5 35 L 29 37.5 L 28 37.5 L 28.5 35 Z "></path><path fill="rgb(241,246,246)" stroke="rgb(241,246,246)" stroke-width="1" opacity="1" d="M 45.5 36 L 44.5 38 L 45.5 36 Z "></path><path fill="rgb(241,246,246)" stroke="rgb(241,246,246)" stroke-width="1" opacity="1" d="M 21.5 38 L 24 38.5 L 21.5 39 L 21.5 38 Z "></path><path fill="rgb(241,246,246)" stroke="rgb(241,246,246)" stroke-width="1" opacity="1" d="M 6.5 46 L 9.5 50 L 6.5 46 Z "></path><path fill="rgb(241,246,246)" stroke="rgb(241,246,246)" stroke-width="1" opacity="1" d="M 46.5 48 L 45.5 50 L 46.5 48 Z "></path><path fill="rgb(255,255,255)" stroke="rgb(255,255,255)" stroke-width="1" opacity="1" d="M 0 0 L 55 0 L 55 20.5 L 54 20.5 Q 51.9 10.6 44.5 6 Q 37.3 -1.3 20.5 1 Q 10.6 4.1 5 11.5 L 0.5 22 L 0 0 Z "></path><path fill="rgb(255,255,255)" stroke="rgb(255,255,255)" stroke-width="1" opacity="1" d="M 23.5 4 Q 42 3 48 14.5 L 52 24.5 L 52 32.5 Q 49.6 42.6 42.5 48 Q 36.3 53.3 24.5 53 Q 13.5 51 8 43.5 Q 2.5 37 3 24.5 Q 5.4 13.4 13.5 8 L 23.5 4 Z M 21 28 L 21 39 L 24 39 L 24 31 L 27 31 L 29 31 L 29 33 L 33 35 L 33 36 L 31 35 Q 26 34 28 38 L 34 39 Q 36 38 36 35 L 32 32 L 36 31 L 35 28 L 30 29 L 21 28 Z M 37 28 L 37 43 Q 42 45 40 39 L 45 38 Q 48 36 46 31 Q 44 27 37 28 Z "></path><path fill="rgb(255,255,255)" stroke="rgb(255,255,255)" stroke-width="1" opacity="1" d="M 40 31 Q 44.5 29.3 43 34.5 L 40 36 L 40 31 Z "></path><path fill="rgb(255,255,255)" stroke="rgb(255,255,255)" stroke-width="1" opacity="1" d="M 0.5 35 L 2 40.5 L 9.5 50 L 21.5 56 L 33.5 56 Q 43.1 53.1 49 46.5 Q 53.3 42.3 54.5 35 L 55 58 L 0 58 L 0.5 35 Z "></path><path fill="rgb(129,170,172)" stroke="rgb(129,170,172)" stroke-width="1" opacity="1" d="M 26.5 3 L 29 3.5 L 26.5 4 L 26.5 3 Z "></path><path fill="rgb(129,170,172)" stroke="rgb(129,170,172)" stroke-width="1" opacity="1" d="M 22.5 28 L 23.5 30 L 22.5 28 Z "></path><path fill="rgb(129,170,172)" stroke="rgb(129,170,172)" stroke-width="1" opacity="1" d="M 38.5 28 L 42 28.5 L 38.5 29 L 38.5 28 Z "></path><path fill="rgb(129,170,172)" stroke="rgb(129,170,172)" stroke-width="1" opacity="1" d="M 8.5 44 L 10.5 47 L 8.5 44 Z "></path><path fill="rgb(203,220,221)" stroke="rgb(203,220,221)" stroke-width="1" opacity="1" d="M 9.5 7 L 6.5 11 L 9.5 7 Z "></path><path fill="rgb(203,220,221)" stroke="rgb(203,220,221)" stroke-width="1" opacity="1" d="M 47.5 9 L 48.5 11 L 47.5 9 Z "></path><path fill="rgb(203,220,221)" stroke="rgb(203,220,221)" stroke-width="1" opacity="1" d="M 44.5 10 L 45.5 12 L 44.5 10 Z "></path><path fill="rgb(203,220,221)" stroke="rgb(203,220,221)" stroke-width="1" opacity="1" d="M 44.5 29 L 45.5 31 L 44.5 29 Z "></path><path fill="rgb(203,220,221)" stroke="rgb(203,220,221)" stroke-width="1" opacity="1" d="M 40.5 38 L 42 38.5 L 39.5 40 L 40.5 38 Z "></path><path fill="rgb(56,121,124)" stroke="rgb(56,121,124)" stroke-width="1" opacity="1" d="M 25.5 1 Q 42 1.5 49 11.5 Q 54.9 18.1 55 30.5 L 51 42.5 L 45.5 49 Q 39 55.5 26.5 56 L 17.5 54 L 7 46.5 Q 0.2 39.8 0 26.5 Q 2 13.5 10.5 7 L 17.5 3 L 25.5 1 Z M 25 3 L 13 8 L 5 17 L 2 27 Q 2 38 7 44 L 13 49 L 21 53 Q 25 52 27 54 L 35 53 L 43 49 L 50 41 L 53 31 Q 53 19 48 14 Q 42 3 25 3 Z "></path><path fill="rgb(56,121,124)" stroke="rgb(56,121,124)" stroke-width="1" opacity="1" d="M 22.5 29 L 24.5 29 L 28 29.5 L 24 30 L 22.5 38 L 22.5 29 Z "></path><path fill="rgb(56,121,124)" stroke="rgb(56,121,124)" stroke-width="1" opacity="1" d="M 30.5 29 Q 35.9 27.1 35 30.5 L 33.5 30 Q 29.8 29 31 32 L 35 34.5 L 33.5 38 Q 29.8 38.8 29 36.5 L 30.5 36 L 32.5 37 Q 35.5 35.5 32.5 34 L 29 31.5 L 30.5 29 Z "></path><path fill="rgb(56,121,124)" stroke="rgb(56,121,124)" stroke-width="1" opacity="1" d="M 37 29 L 43.5 29 L 45 30.5 L 46 34.5 L 45 37 L 39 38 L 38.5 43 L 37 41.5 L 37 29 Z M 39 30 L 39 36 L 42 37 Q 45 36 44 31 L 39 30 Z "></path><path fill="rgb(160,191,193)" stroke="rgb(160,191,193)" stroke-width="1" opacity="1" d="M 11.5 9 L 8.5 13 L 11.5 9 Z "></path><path fill="rgb(160,191,193)" stroke="rgb(160,191,193)" stroke-width="1" opacity="1" d="M 29.5 32 L 30.5 34 L 29.5 32 Z "></path><path fill="rgb(160,191,193)" stroke="rgb(160,191,193)" stroke-width="1" opacity="1" d="M 23.5 33 L 24 37.5 L 23 37.5 L 23.5 33 Z "></path><path fill="rgb(160,191,193)" stroke="rgb(160,191,193)" stroke-width="1" opacity="1" d="M 45.5 45 L 44.5 47 L 45.5 45 Z "></path><path fill="rgb(97,149,151)" stroke="rgb(97,149,151)" stroke-width="1" opacity="1" d="M 52.5 25 L 53 30.5 L 52 30.5 L 52.5 25 Z "></path><path fill="rgb(97,149,151)" stroke="rgb(97,149,151)" stroke-width="1" opacity="1" d="M 2.5 26 L 3 30.5 L 2 30.5 L 2.5 26 Z "></path><path fill="rgb(97,149,151)" stroke="rgb(97,149,151)" stroke-width="1" opacity="1" d="M 21.5 29 L 22 37.5 L 21 37.5 L 21.5 29 Z "></path><path fill="rgb(97,149,151)" stroke="rgb(97,149,151)" stroke-width="1" opacity="1" d="M 33.5 35 L 32.5 37 L 31 36.5 L 33.5 35 Z "></path><path fill="rgb(97,149,151)" stroke="rgb(97,149,151)" stroke-width="1" opacity="1" d="M 11.5 47 L 12.5 49 L 11.5 47 Z "></path><path fill="rgb(97,149,151)" stroke="rgb(97,149,151)" stroke-width="1" opacity="1" d="M 26.5 53 L 29 53.5 L 26.5 54 L 26.5 53 Z "></path></svg>