<svg id="Layer_1" data-name="Layer 1" xmlns="http://www.w3.org/2000/svg" viewBox="0 0 211.98 271.1553"><title>affogato</title><path d="M93.76284,105.259v7.87012l.373-.59668q4.92408-7.94457,9.84717-7.94482,3.84156,0,8.021,3.87939l-3.582,5.96778q-3.5442-3.3567-6.56494-3.35694a7.03278,7.03278,0,0,0-5.688,3.1333,11.834,11.834,0,0,0-2.40625,7.42237v17.94091H86.93715V105.259Z"/><path d="M115.06167,137.1125V129.802a30.94223,30.94223,0,0,0,5.875,3.26368,13.69858,13.69858,0,0,0,5.05468,1.25,6.32645,6.32645,0,0,0,3.65528-1.04493,3.004,3.004,0,0,0,1.52929-2.499,3.36519,3.36519,0,0,0-.98925-2.48047,23.0576,23.0576,0,0,0-4.27051-2.853q-6.56544-3.65478-8.59766-6.24755a8.96134,8.96134,0,0,1-2.03222-5.65088,7.93366,7.93366,0,0,1,3.07714-6.45313,12.17239,12.17239,0,0,1,7.92578-2.499,21.82807,21.82807,0,0,1,10.332,2.835v6.71387q-6.04248-3.6548-9.88477-3.65528a5.4885,5.4885,0,0,0-3.18848.84033,2.58425,2.58425,0,0,0-1.21289,2.22168,3.19339,3.19339,0,0,0,1.09864,2.27832,18.72921,18.72921,0,0,0,3.85937,2.61084l2.42481,1.3794q8.58105,4.84863,8.582,10.73926a8.54674,8.54674,0,0,1-3.30078,6.917,12.96341,12.96341,0,0,1-8.48633,2.70312,20.71146,20.71146,0,0,1-5.44531-.65234A36.67765,36.67765,0,0,1,115.06167,137.1125Z"/><path d="M145.68471,157.06758V105.259h11.88477q9.126,0,14.21191,4.55079,5.08595,4.55127,5.08594,12.71923a17.513,17.513,0,0,1-4.78613,12.68116,16.21231,16.21231,0,0,1-12.19629,4.96093,21.37191,21.37191,0,0,1-7.2627-1.4541v18.35059ZM157.423,111.60029h-4.80078v21.11084a14.16429,14.16429,0,0,0,6.55078,1.6045,10.08491,10.08491,0,0,0,7.79786-3.32032,12.16653,12.16653,0,0,0,3.0332-8.541,11.9801,11.9801,0,0,0-1.4336-5.93067,8.68391,8.68391,0,0,0-3.90722-3.74853A17.471,17.471,0,0,0,157.423,111.60029Z"/><path d="M106.55874,206.43281A101.81445,101.81445,0,1,1,208.37319,104.61836,101.92984,101.92984,0,0,1,106.55874,206.43281Zm0-195.6289a93.81445,93.81445,0,1,0,93.81445,93.81445A93.92067,93.92067,0,0,0,106.55874,10.80391Z"/><path d="M25.94531,225.7541h7.73731l11.57812,32.72461H37.84521L35.686,251.75215H23.63477L21.416,258.47871H14.26367Zm-.45068,20.3584H33.876l-4.13428-12.877Z"/><path d="M58.92578,225.4543q.4878.03369,1.332.09961v5.15039q-.5332-.06592-1.7876-.09961a2.05427,2.05427,0,0,0-1.73144.55566,2.01155,2.01155,0,0,0-.47754,1.29785v2.043h4.15186v4.46289H56.26123v19.51465H49.97852V238.96406H46.42627v-4.46289h3.46338v-1.55371q0-3.88476,1.31006-5.35058,1.37622-2.17677,6.63818-2.17579Q58.437,225.42109,58.92578,225.4543Z"/><path d="M74.06689,225.4543q.4878.03369,1.332.09961v5.15039q-.5332-.06592-1.7876-.09961a2.05428,2.05428,0,0,0-1.73145.55566,2.01155,2.01155,0,0,0-.47754,1.29785v2.043H75.5542v4.46289H71.40234v19.51465H65.11963V238.96406H61.56738v-4.46289h3.46338v-1.55371q0-3.88476,1.31006-5.35058,1.37622-2.17677,6.63818-2.17579Q73.57813,225.42109,74.06689,225.4543Z"/><path d="M99.37646,255.51875q-3.06372,3.78077-9.30224,3.78125-6.23877,0-9.30225-3.78125a15.0139,15.0139,0,0,1,0-18.17871q3.06372-3.83788,9.30225-3.83789,6.238,0,9.30224,3.83789a15.01386,15.01386,0,0,1,0,18.17871Zm-5.062-3.49707a11.29618,11.29618,0,0,0,0-11.207,5.62344,5.62344,0,0,0-8.53613,0,11.226,11.226,0,0,0,0,11.207,5.60354,5.60354,0,0,0,8.53613,0Z"/><path d="M118.94043,234.257a7.6003,7.6003,0,0,1,3.72559,3.50781v-3.48535h6.17187v22.95606q0,4.68456-1.57617,7.05957-2.71,4.08545-10.39063,4.085a14.15277,14.15277,0,0,1-7.57031-1.82031,6.71532,6.71532,0,0,1-3.2417-5.43946h6.88233a2.84977,2.84977,0,0,0,.86621,1.59864,5.3464,5.3464,0,0,0,3.4414.86621q3.41748,0,4.57325-2.28711a11.58392,11.58392,0,0,0,.75488-4.92871v-1.55371a7.72267,7.72267,0,0,1-1.9541,2.33105A7.85644,7.85644,0,0,1,115.7168,258.59a9.28179,9.28179,0,0,1-7.44825-3.27539q-2.78613-3.27393-2.78662-8.86914a14.9627,14.9627,0,0,1,2.68311-9.06934,8.85925,8.85925,0,0,1,7.60547-3.67383A8.30892,8.30892,0,0,1,118.94043,234.257Zm2.15527,17.35059q1.52637-1.67578,1.52539-5.33985a8.193,8.193,0,0,0-1.44824-5.23925,4.72422,4.72422,0,0,0-3.87988-1.79883,4.57273,4.57273,0,0,0-4.57617,3.13086,11.14163,11.14163,0,0,0-.66309,4.10742,9.40673,9.40673,0,0,0,.707,3.75195,4.61124,4.61124,0,0,0,4.59864,3.06348A4.8592,4.8592,0,0,0,121.0957,251.60762Z"/><path d="M144.32715,243.759a10.006,10.006,0,0,0,2.52734-.55468,1.9032,1.9032,0,0,0,1.36426-1.79883,2.12744,2.12744,0,0,0-1.0459-2.05371,6.62365,6.62365,0,0,0-3.07226-.56543,4.0354,4.0354,0,0,0-3.21778,1.10937,4.57577,4.57577,0,0,0-.90039,2.22071H133.877a9.26256,9.26256,0,0,1,1.78418-5.21778q2.51953-3.19629,8.65137-3.19629a15.4301,15.4301,0,0,1,7.09082,1.57618q3.09814,1.57617,3.09863,5.94921V252.3293q0,1.15429.04493,2.79687a3.51489,3.51489,0,0,0,.377,1.6875,2.26406,2.26406,0,0,0,.93262.73242v.93262h-6.88282a7.055,7.055,0,0,1-.39941-1.37695q-.11133-.64307-.17774-1.46485a13.05035,13.05035,0,0,1-3.0371,2.41993,9.17831,9.17831,0,0,1-4.64454,1.17675,8.01667,8.01667,0,0,1-5.46-1.876,6.67214,6.67214,0,0,1-2.15527-5.31739,6.89186,6.89186,0,0,1,3.4668-6.46093,15.49146,15.49146,0,0,1,5.59179-1.55371Zm3.86914,2.95313a6.96324,6.96324,0,0,1-1.22656.61035,10.34831,10.34831,0,0,1-1.69922.43262l-1.44043.2666a9.47445,9.47445,0,0,0-2.9082.86621,2.89,2.89,0,0,0-1.49415,2.68652,2.80378,2.80378,0,0,0,.91309,2.3418,3.46644,3.46644,0,0,0,2.21973.72168,6.61008,6.61008,0,0,0,3.82129-1.19922q1.74756-1.19825,1.81445-4.373Z"/><path d="M157.544,239.008v-4.50684h3.375v-6.749h6.26074v6.749h3.92969V239.008h-3.92969v12.78808a2.87485,2.87485,0,0,0,.37793,1.85352,4.15282,4.15282,0,0,0,2.30859.36621c.19238,0,.39551-.00293.61035-.01074.21485-.00684.42578-.01856.63282-.0332v4.72851l-2.99708.11133q-4.48534.15527-6.12792-1.55371a4.63,4.63,0,0,1-1.06543-3.35254V239.008Z"/><path d="M195.35352,255.51875q-3.063,3.78077-9.30274,3.78125-6.23877,0-9.30176-3.78125a15.012,15.012,0,0,1,0-18.17871q3.063-3.83788,9.30176-3.83789t9.30274,3.83789a15.01581,15.01581,0,0,1,0,18.17871Zm-5.06153-3.49707a11.29941,11.29941,0,0,0,0-11.207,5.62451,5.62451,0,0,0-8.53711,0,11.22916,11.22916,0,0,0,0,11.207,5.6046,5.6046,0,0,0,8.53711,0Z"/></svg>