<?xml version="1.0" encoding="UTF-8" standalone="no"?>
<!-- Created with Inkscape (http://www.inkscape.org/) -->

<svg
   xmlns:dc="http://purl.org/dc/elements/1.1/"
   xmlns:cc="http://creativecommons.org/ns#"
   xmlns:rdf="http://www.w3.org/1999/02/22-rdf-syntax-ns#"
   xmlns:svg="http://www.w3.org/2000/svg"
   xmlns="http://www.w3.org/2000/svg"
   xmlns:sodipodi="http://sodipodi.sourceforge.net/DTD/sodipodi-0.dtd"
   xmlns:inkscape="http://www.inkscape.org/namespaces/inkscape"
   version="1.1"
   id="svg128"
   width="206"
   height="252.55078"
   viewBox="0 0 206 252.55078"
   sodipodi:docname="affogato.svg"
   inkscape:version="0.92.2 5c3e80d, 2017-08-06">
  <metadata
     id="metadata134">
    <rdf:RDF>
      <cc:Work
         rdf:about="">
        <dc:format>image/svg+xml</dc:format>
        <dc:type
           rdf:resource="http://purl.org/dc/dcmitype/StillImage" />
        <dc:title />
      </cc:Work>
    </rdf:RDF>
  </metadata>
  <defs
     id="defs132" />
  <sodipodi:namedview
     pagecolor="#ffffff"
     bordercolor="#666666"
     borderopacity="1"
     objecttolerance="10"
     gridtolerance="10"
     guidetolerance="10"
     inkscape:pageopacity="0"
     inkscape:pageshadow="2"
     inkscape:window-width="976"
     inkscape:window-height="642"
     id="namedview130"
     showgrid="false"
     inkscape:zoom="1.1625616"
     inkscape:cx="-3.6610148"
     inkscape:cy="151.05078"
     inkscape:window-x="527"
     inkscape:window-y="205"
     inkscape:window-maximized="0"
     inkscape:current-layer="svg128" />
  <path
     style="fill:#000000"
     d="m 85.835499,201.45658 c -32.215171,-5.0183 -60.441029,-25.73131 -74.80947,-54.89751 -14.3826729,-29.19508 -14.3826729,-60.923056 0,-90.118141 9.588928,-19.464361 25.950539,-35.825972 45.4149,-45.4149 C 68.519198,5.0757882 77.902898,2.3897335 92.143662,0.80623441 115.1821,-1.7555203 139.73837,4.8115378 159.63666,18.855818 c 44.71851,31.562475 56.21331,93.074152 25.90504,138.624662 -15.93356,23.94666 -40.7785,39.74022 -69.27189,44.0351 -11.68067,1.76066 -18.842084,1.74677 -30.434311,-0.059 z M 122,192.46983 C 185.5325,177.42523 215.10158,103.34811 178.9239,49.862796 161.02442,23.400093 133.20019,8.5551523 101.5,8.5551523 75.412852,8.5551523 54.565892,17.248223 35.907057,35.907057 17.248223,54.565892 8.5551523,75.412852 8.5551523,101.5 c 0,25.06905 8.4872607,46.21649 25.7757277,64.22456 15.085764,15.71368 32.569572,24.78463 54.483079,28.26691 7.550148,1.1998 25.089751,0.39558 33.186041,-1.52164 z M 138,129 v -26 h 9.18428 c 11.46215,0 16.85167,2.18999 19.84917,8.06556 6.93046,13.58484 -4.91866,29.98251 -18.79079,26.00403 L 145,136.13961 v 9.4302 V 155 h -3.5 -3.5 z m 17.40143,1.60563 c 4.661,-1.94749 6.59857,-5.1496 6.59857,-10.90506 0,-4.03207 -0.49517,-5.34959 -2.92308,-7.77749 C 156.545,109.39116 155.40756,109 150.57692,109 H 145 v 10.53222 c 0,9.98768 0.11633,10.57899 2.25,11.43662 3.16981,1.27411 4.35967,1.22109 8.15143,-0.36321 z M 115.5,137.31884 c -7.55359,-1.69639 -8.5,-2.36483 -8.5,-6.00338 0,-2.97918 0.27283,-3.41301 1.75,-2.78267 10.26242,4.37921 13.3707,4.30521 14.06298,-0.33479 0.24279,-1.62727 -1.15518,-3.0562 -6.23336,-6.37141 -8.79685,-5.74287 -10.40511,-9.11369 -7.37908,-15.46613 2.04162,-4.28589 9.75227,-5.6605 16.33158,-2.91149 2.88281,1.20452 3.46788,1.96372 3.46788,4.5 0,3.42105 -0.43421,3.58942 -4,1.55103 -3.26064,-1.86395 -8.43418,-1.8867 -9.96365,-0.0438 -1.57939,1.90305 -0.88189,2.88066 4.76467,6.67808 8.18005,5.50125 10.19898,7.84982 10.19898,11.86425 0,4.47175 -2.64877,7.53223 -7.74349,8.94709 -2.06608,0.57378 -3.98151,0.99354 -4.25651,0.9328 -0.275,-0.0607 -1.4,-0.31255 -2.5,-0.55958 z M 79,120 v -17 h 3 c 2.787838,0 3,0.25929 3,3.66639 v 3.66639 l 3.971459,-4.30186 c 3.622778,-3.92418 4.289086,-4.25032 7.589229,-3.71478 6.005342,0.97453 7.789992,3.45443 5.116822,7.11021 -1.23767,1.69262 -1.52265,1.70509 -4.443793,0.19451 -3.850722,-1.99129 -7.329719,-0.93017 -9.922102,3.02631 -1.368375,2.0884 -1.88059,5.29599 -2.162923,13.54463 L 84.778752,137 H 81.889376 79 Z"
     id="path138"
     inkscape:connector-curvature="0" />
  <g
     aria-label="Affogato"
     style="font-style:normal;font-weight:normal;font-size:40px;line-height:1.25;font-family:sans-serif;letter-spacing:0px;word-spacing:0px;fill:#000000;fill-opacity:1;stroke:none"
     id="text142">
    <path
       sodipodi:type="inkscape:offset"
       inkscape:radius="0"
       inkscape:original="M 56.396484 213.70312 C 53.961588 213.70312 52.09961 214.39974 50.810547 215.79297 C 49.521485 217.17318 48.876953 219.15885 48.876953 221.75 L 48.876953 222.47266 L 46.396484 222.47266 L 46.396484 225.55859 L 48.876953 225.55859 L 48.876953 244.28906 L 52.548828 244.28906 L 52.548828 225.55859 L 59.052734 225.55859 L 59.052734 222.47266 L 52.431641 222.47266 L 52.431641 221.73047 C 52.431641 219.90755 52.783203 218.65104 53.486328 217.96094 C 54.202473 217.25781 55.348307 216.90625 56.923828 216.90625 C 57.418619 216.90625 57.991536 216.97136 58.642578 217.10156 C 59.293619 217.21875 59.820963 217.33594 60.224609 217.45312 L 60.419922 217.45312 L 60.419922 214.09375 C 59.873047 213.98958 59.267578 213.89844 58.603516 213.82031 C 57.952474 213.74219 57.216797 213.70313 56.396484 213.70312 z M 70.458984 213.70312 C 68.024088 213.70312 66.16211 214.39974 64.873047 215.79297 C 63.583985 217.17318 62.939453 219.15885 62.939453 221.75 L 62.939453 222.47266 L 60.458984 222.47266 L 60.458984 225.55859 L 62.939453 225.55859 L 62.939453 244.28906 L 66.611328 244.28906 L 66.611328 225.55859 L 73.115234 225.55859 L 73.115234 222.47266 L 66.494141 222.47266 L 66.494141 221.73047 C 66.494141 219.90755 66.845703 218.65104 67.548828 217.96094 C 68.264973 217.25781 69.410807 216.90625 70.986328 216.90625 C 71.481119 216.90625 72.054036 216.97136 72.705078 217.10156 C 73.356119 217.21875 73.883463 217.33594 74.287109 217.45312 L 74.482422 217.45312 L 74.482422 214.09375 C 73.935547 213.98958 73.330078 213.89844 72.666016 213.82031 C 72.014974 213.74219 71.279297 213.70313 70.458984 213.70312 z M 28.818359 215.20703 L 18.232422 244.28906 L 22.158203 244.28906 L 25.009766 236.18359 L 37.587891 236.18359 L 40.439453 244.28906 L 44.560547 244.28906 L 33.974609 215.20703 L 28.818359 215.20703 z M 150.16602 216.20312 L 150.16602 222.47266 L 147.68555 222.47266 L 147.68555 225.55859 L 150.16602 225.55859 L 150.16602 237.16016 C 150.16602 239.80338 150.74544 241.72396 151.9043 242.92188 C 153.06315 244.11979 154.75586 244.71875 156.98242 244.71875 C 157.62045 244.71875 158.3431 244.66016 159.15039 244.54297 C 159.9707 244.42578 160.72591 244.27604 161.41602 244.09375 L 161.41602 240.79297 L 161.2207 240.79297 C 160.93424 240.91016 160.46549 241.05989 159.81445 241.24219 C 159.16341 241.41145 158.53841 241.49609 157.93945 241.49609 C 156.91081 241.49609 156.14258 241.3789 155.63477 241.14453 C 155.13997 240.89714 154.74935 240.51302 154.46289 239.99219 C 154.15038 239.43229 153.96808 238.83333 153.91602 238.19531 C 153.86395 237.54427 153.83789 236.64583 153.83789 235.5 L 153.83789 225.55859 L 161.41602 225.55859 L 161.41602 222.47266 L 153.83789 222.47266 L 153.83789 216.20312 L 150.16602 216.20312 z M 31.298828 218.58594 L 36.396484 232.86328 L 26.181641 232.86328 L 31.298828 218.58594 z M 85.341797 221.86719 C 82.25586 221.86719 79.801432 222.90234 77.978516 224.97266 C 76.16862 227.02994 75.263672 229.83594 75.263672 233.39062 C 75.263672 236.94532 76.16862 239.75131 77.978516 241.80859 C 79.801432 243.86589 82.25586 244.89453 85.341797 244.89453 C 88.401693 244.89453 90.843099 243.86589 92.666016 241.80859 C 94.488932 239.75131 95.400391 236.94532 95.400391 233.39062 C 95.400391 229.83594 94.488932 227.02994 92.666016 224.97266 C 90.843099 222.90234 88.401693 221.86719 85.341797 221.86719 z M 109.24805 221.86719 C 108.05013 221.86719 106.8457 222.1276 105.63477 222.64844 C 104.42383 223.15625 103.39518 223.8724 102.54883 224.79688 C 101.63737 225.78646 100.91471 226.96484 100.38086 228.33203 C 99.860027 229.6862 99.599609 231.30078 99.599609 233.17578 C 99.599609 236.60026 100.36133 239.25651 101.88477 241.14453 C 103.42123 243.01953 105.49154 243.95703 108.0957 243.95703 C 109.6582 243.95703 110.94076 243.74219 111.94336 243.3125 C 112.95899 242.86979 114.02018 242.20573 115.12695 241.32031 L 115.12695 243.3125 C 115.12695 244.19791 115.0293 244.9987 114.83398 245.71484 C 114.63867 246.43099 114.31316 247.04297 113.85742 247.55078 C 113.4017 248.08463 112.76367 248.5013 111.94336 248.80078 C 111.12305 249.10026 110.08789 249.25 108.83789 249.25 C 107.53581 249.25 106.23373 249.07422 104.93164 248.72266 C 103.62956 248.38411 102.67904 248.09765 102.08008 247.86328 L 101.88477 247.86328 L 101.88477 251.61328 C 102.95247 251.91276 104.0332 252.14063 105.12695 252.29688 C 106.23372 252.46615 107.36654 252.55078 108.52539 252.55078 C 112.01498 252.55078 114.59961 251.6849 116.2793 249.95312 C 117.95898 248.22136 118.79883 245.50651 118.79883 241.80859 L 118.79883 222.47266 L 115.36133 222.47266 L 115.12695 223.41016 C 114.17643 222.88932 113.27148 222.50521 112.41211 222.25781 C 111.56576 221.9974 110.51107 221.86719 109.24805 221.86719 z M 174.4043 221.86719 C 171.31836 221.86719 168.86393 222.90234 167.04102 224.97266 C 165.23112 227.02994 164.32617 229.83594 164.32617 233.39062 C 164.32617 236.94532 165.23112 239.75131 167.04102 241.80859 C 168.86393 243.86589 171.31836 244.89453 174.4043 244.89453 C 177.46419 244.89453 179.9056 243.86589 181.72852 241.80859 C 183.55143 239.75131 184.46289 236.94532 184.46289 233.39062 C 184.46289 229.83594 183.55143 227.02994 181.72852 224.97266 C 179.9056 222.90234 177.46419 221.86719 174.4043 221.86719 z M 133.48633 221.94531 C 132.17122 221.94531 130.83659 222.0625 129.48242 222.29688 C 128.12826 222.53125 127.09309 222.74609 126.37695 222.94141 L 126.37695 226.67188 L 126.57227 226.67188 C 127.83529 226.19011 129.05925 225.82553 130.24414 225.57812 C 131.42904 225.31771 132.50326 225.1875 133.4668 225.1875 C 134.26107 225.1875 135.02279 225.23958 135.75195 225.34375 C 136.48112 225.44792 137.10612 225.64974 137.62695 225.94922 C 138.17383 226.26172 138.59049 226.69141 138.87695 227.23828 C 139.17643 227.78515 139.32617 228.47526 139.32617 229.30859 L 139.32617 229.875 C 137.19076 229.97917 135.19206 230.13542 133.33008 230.34375 C 131.4681 230.55208 129.87305 230.94922 128.54492 231.53516 C 127.22982 232.12109 126.21419 232.92838 125.49805 233.95703 C 124.79492 234.97266 124.44336 236.30729 124.44336 237.96094 C 124.44336 239.97916 125.12695 241.63932 126.49414 242.94141 C 127.86133 244.24349 129.52799 244.89453 131.49414 244.89453 C 132.56185 244.89453 133.49284 244.79036 134.28711 244.58203 C 135.08138 244.38672 135.7845 244.13932 136.39648 243.83984 C 136.91732 243.60547 137.45117 243.29297 137.99805 242.90234 C 138.55794 242.4987 139.00065 242.1862 139.32617 241.96484 L 139.32617 244.28906 L 142.97852 244.28906 L 142.97852 229.48438 C 142.97852 228.07813 142.76367 226.89974 142.33398 225.94922 C 141.9043 224.9987 141.2793 224.22396 140.45898 223.625 C 139.62565 223.01302 138.63607 222.58333 137.49023 222.33594 C 136.35742 222.07552 135.02279 221.94531 133.48633 221.94531 z M 85.341797 225.03125 C 87.307943 225.03125 88.844401 225.72136 89.951172 227.10156 C 91.057943 228.46875 91.611328 230.5651 91.611328 233.39062 C 91.611328 236.15105 91.051433 238.23438 89.931641 239.64062 C 88.82487 241.03386 87.294922 241.73047 85.341797 241.73047 C 83.36263 241.73047 81.819661 241.02735 80.712891 239.62109 C 79.60612 238.20183 79.052734 236.12501 79.052734 233.39062 C 79.052734 230.56511 79.599609 228.46875 80.693359 227.10156 C 81.80013 225.72136 83.34961 225.03125 85.341797 225.03125 z M 174.4043 225.03125 C 176.37044 225.03125 177.90691 225.72136 179.01367 227.10156 C 180.12045 228.46875 180.67383 230.5651 180.67383 233.39062 C 180.67383 236.15104 180.11393 238.23438 178.99414 239.64062 C 177.88737 241.03386 176.35742 241.73047 174.4043 241.73047 C 172.42513 241.73047 170.88216 241.02735 169.77539 239.62109 C 168.66862 238.20183 168.11523 236.125 168.11523 233.39062 C 168.11523 230.5651 168.66211 228.46875 169.75586 227.10156 C 170.86263 225.72136 172.41211 225.03125 174.4043 225.03125 z M 109.89258 225.16797 C 110.72591 225.16797 111.55924 225.26562 112.39258 225.46094 C 113.23893 225.64322 114.15039 225.95572 115.12695 226.39844 L 115.12695 238.29297 C 114.22851 238.98307 113.23893 239.53646 112.1582 239.95312 C 111.09049 240.35677 110.02278 240.55859 108.95508 240.55859 C 106.96289 240.55859 105.53711 239.92708 104.67773 238.66406 C 103.81835 237.40104 103.38867 235.54557 103.38867 233.09766 C 103.38867 230.51953 103.96809 228.55339 105.12695 227.19922 C 106.28581 225.84505 107.87435 225.16797 109.89258 225.16797 z M 139.32617 232.84375 L 139.32617 238.91797 C 138.41472 239.6211 137.42514 240.22657 136.35742 240.73438 C 135.28972 241.22917 134.11133 241.47656 132.82227 241.47656 C 131.27279 241.47656 130.12044 241.16406 129.36523 240.53906 C 128.61002 239.90104 128.23242 238.95703 128.23242 237.70703 C 128.23242 236.60026 128.55794 235.73438 129.20898 235.10938 C 129.86002 234.47135 130.71289 234.0026 131.76758 233.70312 C 132.653 233.45573 133.85091 233.26693 135.36133 233.13672 C 136.88477 233.00654 138.20639 232.90888 139.32617 232.84375 z "
       id="path158"
       d="m 56.396484,213.70312 c -2.434896,0 -4.296874,0.69662 -5.585937,2.08985 -1.289062,1.38021 -1.933594,3.36588 -1.933594,5.95703 v 0.72266 h -2.480469 v 3.08593 h 2.480469 v 18.73047 h 3.671875 v -18.73047 h 6.503906 v -3.08593 h -6.621093 v -0.74219 c 0,-1.82292 0.351562,-3.07943 1.054687,-3.76953 0.716145,-0.70313 1.861979,-1.05469 3.4375,-1.05469 0.494791,0 1.067708,0.0651 1.71875,0.19531 0.651041,0.11719 1.178385,0.23438 1.582031,0.35156 h 0.195313 v -3.35937 c -0.546875,-0.10417 -1.152344,-0.19531 -1.816406,-0.27344 -0.651042,-0.0781 -1.386719,-0.11718 -2.207032,-0.11719 z m 14.0625,0 c -2.434896,0 -4.296874,0.69662 -5.585937,2.08985 -1.289062,1.38021 -1.933594,3.36588 -1.933594,5.95703 v 0.72266 h -2.480469 v 3.08593 h 2.480469 v 18.73047 h 3.671875 v -18.73047 h 6.503906 v -3.08593 h -6.621093 v -0.74219 c 0,-1.82292 0.351562,-3.07943 1.054687,-3.76953 0.716145,-0.70313 1.861979,-1.05469 3.4375,-1.05469 0.494791,0 1.067708,0.0651 1.71875,0.19531 0.651041,0.11719 1.178385,0.23438 1.582031,0.35156 h 0.195313 v -3.35937 c -0.546875,-0.10417 -1.152344,-0.19531 -1.816406,-0.27344 -0.651042,-0.0781 -1.386719,-0.11718 -2.207032,-0.11719 z m -41.640625,1.50391 -10.585937,29.08203 h 3.925781 l 2.851563,-8.10547 h 12.578125 l 2.851562,8.10547 h 4.121094 L 33.974609,215.20703 Z m 121.347661,0.99609 v 6.26954 h -2.48047 v 3.08593 h 2.48047 v 11.60157 c 0,2.64322 0.57942,4.5638 1.73828,5.76172 1.15885,1.19791 2.85156,1.79687 5.07812,1.79687 0.63803,0 1.36068,-0.0586 2.16797,-0.17578 0.82031,-0.11719 1.57552,-0.26693 2.26563,-0.44922 v -3.30078 h -0.19532 c -0.28646,0.11719 -0.75521,0.26692 -1.40625,0.44922 -0.65104,0.16926 -1.27604,0.2539 -1.875,0.2539 -1.02864,0 -1.79687,-0.11719 -2.30468,-0.35156 -0.4948,-0.24739 -0.88542,-0.63151 -1.17188,-1.15234 -0.31251,-0.5599 -0.49481,-1.15886 -0.54687,-1.79688 -0.0521,-0.65104 -0.0781,-1.54948 -0.0781,-2.69531 v -9.94141 h 7.57813 v -3.08593 h -7.57813 v -6.26954 z m -118.867192,2.38282 5.097656,14.27734 H 26.181641 Z m 54.042969,3.28125 c -3.085937,0 -5.540365,1.03515 -7.363281,3.10547 -1.809896,2.05728 -2.714844,4.86328 -2.714844,8.41796 0,3.5547 0.904948,6.36069 2.714844,8.41797 1.822916,2.0573 4.277344,3.08594 7.363281,3.08594 3.059896,0 5.501302,-1.02864 7.324219,-3.08594 1.822916,-2.05728 2.734375,-4.86327 2.734375,-8.41797 0,-3.55468 -0.911459,-6.36068 -2.734375,-8.41796 -1.822917,-2.07032 -4.264323,-3.10547 -7.324219,-3.10547 z m 23.906253,0 c -1.19792,0 -2.40235,0.26041 -3.61328,0.78125 -1.21094,0.50781 -2.23959,1.22396 -3.08594,2.14844 -0.91146,0.98958 -1.63412,2.16796 -2.16797,3.53515 -0.520833,1.35417 -0.781251,2.96875 -0.781251,4.84375 0,3.42448 0.761721,6.08073 2.285161,7.96875 1.53646,1.875 3.60677,2.8125 6.21093,2.8125 1.5625,0 2.84506,-0.21484 3.84766,-0.64453 1.01563,-0.44271 2.07682,-1.10677 3.18359,-1.99219 v 1.99219 c 0,0.88541 -0.0976,1.6862 -0.29297,2.40234 -0.19531,0.71615 -0.52082,1.32813 -0.97656,1.83594 -0.45572,0.53385 -1.09375,0.95052 -1.91406,1.25 -0.82031,0.29948 -1.85547,0.44922 -3.10547,0.44922 -1.30208,0 -2.60416,-0.17578 -3.90625,-0.52734 -1.30208,-0.33855 -2.2526,-0.62501 -2.85156,-0.85938 h -0.19531 v 3.75 c 1.0677,0.29948 2.14843,0.52735 3.24218,0.6836 1.10677,0.16927 2.23959,0.2539 3.39844,0.2539 3.48959,0 6.07422,-0.86588 7.75391,-2.59766 1.67968,-1.73176 2.51953,-4.44661 2.51953,-8.14453 v -19.33593 h -3.4375 l -0.23438,0.9375 c -0.95052,-0.52084 -1.85547,-0.90495 -2.71484,-1.15235 -0.84635,-0.26041 -1.90104,-0.39062 -3.16406,-0.39062 z m 65.15625,0 c -3.08594,0 -5.54037,1.03515 -7.36328,3.10547 -1.8099,2.05728 -2.71485,4.86328 -2.71485,8.41796 0,3.5547 0.90495,6.36069 2.71485,8.41797 1.82291,2.0573 4.27734,3.08594 7.36328,3.08594 3.05989,0 5.5013,-1.02864 7.32422,-3.08594 1.82291,-2.05728 2.73437,-4.86327 2.73437,-8.41797 0,-3.55468 -0.91146,-6.36068 -2.73437,-8.41796 -1.82292,-2.07032 -4.26433,-3.10547 -7.32422,-3.10547 z m -40.91797,0.0781 c -1.31511,0 -2.64974,0.11719 -4.00391,0.35157 -1.35416,0.23437 -2.38933,0.44921 -3.10547,0.64453 v 3.73047 h 0.19532 c 1.26302,-0.48177 2.48698,-0.84635 3.67187,-1.09376 1.1849,-0.26041 2.25912,-0.39062 3.22266,-0.39062 0.79427,0 1.55599,0.0521 2.28515,0.15625 0.72917,0.10417 1.35417,0.30599 1.875,0.60547 0.54688,0.3125 0.96354,0.74219 1.25,1.28906 0.29948,0.54687 0.44922,1.23698 0.44922,2.07031 v 0.56641 c -2.13541,0.10417 -4.13411,0.26042 -5.99609,0.46875 -1.86198,0.20833 -3.45703,0.60547 -4.78516,1.19141 -1.3151,0.58593 -2.33073,1.39322 -3.04687,2.42187 -0.70313,1.01563 -1.05469,2.35026 -1.05469,4.00391 0,2.01822 0.68359,3.67838 2.05078,4.98047 1.36719,1.30208 3.03385,1.95312 5,1.95312 1.06771,0 1.9987,-0.10417 2.79297,-0.3125 0.79427,-0.19531 1.49739,-0.44271 2.10937,-0.74219 0.52084,-0.23437 1.05469,-0.54687 1.60157,-0.9375 0.55989,-0.40364 1.0026,-0.71614 1.32812,-0.9375 v 2.32422 h 3.65235 v -14.80468 c 0,-1.40625 -0.21485,-2.58464 -0.64454,-3.53516 -0.42968,-0.95052 -1.05468,-1.72526 -1.875,-2.32422 -0.83333,-0.61198 -1.82291,-1.04167 -2.96875,-1.28906 -1.13281,-0.26042 -2.46744,-0.39063 -4.0039,-0.39063 z m -48.144533,3.08594 c 1.966146,0 3.502604,0.69011 4.609375,2.07031 1.106771,1.36719 1.660156,3.46354 1.660156,6.28906 0,2.76043 -0.559895,4.84376 -1.679687,6.25 -1.106771,1.39324 -2.636719,2.08985 -4.589844,2.08985 -1.979167,0 -3.522136,-0.70312 -4.628906,-2.10938 -1.106771,-1.41926 -1.660157,-3.49608 -1.660157,-6.23047 0,-2.82551 0.546875,-4.92187 1.640625,-6.28906 1.106771,-1.3802 2.656251,-2.07031 4.648438,-2.07031 z m 89.062503,0 c 1.96614,0 3.50261,0.69011 4.60937,2.07031 1.10678,1.36719 1.66016,3.46354 1.66016,6.28906 0,2.76042 -0.5599,4.84376 -1.67969,6.25 -1.10677,1.39324 -2.63672,2.08985 -4.58984,2.08985 -1.97917,0 -3.52214,-0.70312 -4.62891,-2.10938 -1.10677,-1.41926 -1.66016,-3.49609 -1.66016,-6.23047 0,-2.82552 0.54688,-4.92187 1.64063,-6.28906 1.10677,-1.3802 2.65625,-2.07031 4.64844,-2.07031 z m -64.51172,0.13672 c 0.83333,0 1.66666,0.0977 2.5,0.29297 0.84635,0.18228 1.75781,0.49478 2.73437,0.9375 v 11.89453 c -0.89844,0.6901 -1.88802,1.24349 -2.96875,1.66015 -1.06771,0.40365 -2.13542,0.60547 -3.20312,0.60547 -1.99219,0 -3.41797,-0.63151 -4.27735,-1.89453 -0.85938,-1.26302 -1.28906,-3.11849 -1.28906,-5.5664 0,-2.57813 0.57942,-4.54427 1.73828,-5.89844 1.15886,-1.35417 2.7474,-2.03125 4.76563,-2.03125 z m 29.43359,7.67578 v 6.07422 c -0.91145,0.70313 -1.90103,1.3086 -2.96875,1.81641 -1.0677,0.49479 -2.24609,0.74218 -3.53515,0.74218 -1.54948,0 -2.70183,-0.3125 -3.45704,-0.9375 -0.75521,-0.63802 -1.13281,-1.58203 -1.13281,-2.83203 0,-1.10677 0.32552,-1.97265 0.97656,-2.59765 0.65104,-0.63803 1.50391,-1.10678 2.5586,-1.40626 0.88542,-0.24739 2.08333,-0.43619 3.59375,-0.5664 1.52344,-0.13018 2.84506,-0.22784 3.96484,-0.29297 z" />
  </g>
</svg>
