<svg id="Layer_1" data-name="Layer 1" xmlns="http://www.w3.org/2000/svg" viewBox="0 0 360 510.77352"><defs><style>.cls-1{fill:none;}.cls-2{fill:#fff;}</style></defs><title>alembic</title><rect x="288.16287" y="392.43746" width="14.98712" height="106.7838"/><path class="cls-1" d="M346.29907,409.08081c-6.53808,3.08215-10.89166,9.85376-12.85522,17.0036a68.99069,68.99069,0,0,0,.40185,39.08093,31.18551,31.18551,0,0,0,14.03949,18.23414c1.32019.77935,2.43628,3.23455,3.092,5.97827V405.29712A10.52784,10.52784,0,0,1,346.29907,409.08081Z"/><path d="M347.88519,483.39948a31.18551,31.18551,0,0,1-14.03949-18.23414,68.99069,68.99069,0,0,1-.40185-39.08093c1.96356-7.14984,6.31714-13.92145,12.85522-17.0036a10.52784,10.52784,0,0,0,4.67816-3.78369v-12.66a7.38926,7.38926,0,0,0-3.8161.1294c-11.96606,2.4754-20.25042,9.45056-25.49609,20.27454-4.981,10.27722-5.64111,21.33862-5.8064,34.55932a88.798,88.798,0,0,0,1.18469,15.10169c2.54493,17.65374,11.86878,29.91076,28.99573,35.77618,1.515.5188,3.189,1.81805,4.652-.05395a2.92085,2.92085,0,0,0,.28613-.48407v-8.56244C350.32147,486.634,349.20538,484.17883,347.88519,483.39948Z"/><path class="cls-2" d="M350.97723,489.37775v8.56244C351.87311,496.15466,351.74182,492.57672,350.97723,489.37775Z"/><path class="cls-2" d="M352.5827,396.9068c.10828-2.59955-.43927-3.82922-1.60547-4.26972v12.66C352.46277,402.94238,352.44757,400.15143,352.5827,396.9068Z"/><path class="cls-1" d="M253.77728,438.38354c9.16809-6.98138,4.3573-21.79174-2.495-27.15612-2.35169-1.84107-2.92212.98242-3.01325,2.455-.23517,3.80158-.07879,7.62751-.07879,11.44367l-.112,10.88238C248.477,440.751,249.98218,441.27344,253.77728,438.38354Z"/><path class="cls-1" d="M252.598,454.32831c-2.66467-1.45368-3.96289-.76972-4.18243,2.07648l-.50238,12.59875c0,3.25165-.0567,6.50464.022,9.75427.045,1.85956-.35327,4.15491,1.83759,5.02039,1.97277.77923,3.69268-.57044,5.20495-1.73322C263.41986,475.5542,261.97449,459.44385,252.598,454.32831Z"/><path class="cls-1" d="M267.15942,90.90863c-6.20654-1.86194-12.46948-2.22736-18.39874,1.01617-8.51892,4.66016-9.28247,15.18873-1.75214,21.22431,4.92469,3.94708,10.57325,5.111,17.59491,5.03265.39228-.0282,1.727-.17767,3.06452-.21155,8.45056-.21405,17.157-3.26055,25.10022,2.25141.72.49975,1.69763.40558,1.92035-.36871a4.01169,4.01169,0,0,0-.25409-2.69233C288.36694,105.28125,280.7124,94.97449,267.15942,90.90863Z"/><path d="M327.16132,93.82819c-29.57477-50.23627-75.26246-77.7154-133.52015-83.32648-42.27648-4.07184-80.668,6.03985-113.57025,33.538-41.46808,34.65705-39.50744,87.1305-20.14416,117.30158,14.3515,22.36194,36.79675,32.83874,61.5747,38.82873,19.46424,4.70545,38.01789,1.69745,55.14063-9.02221,4.70508-2.94556,9.44012-5.84357,14.17468-8.74164,14.24109-8.71716,28.61157-16.65814,45.81006-18.59192,36.45331-4.09875,64.71869,14.85236,69.39014,48.519,4.96136,35.75574-19.9018,70.07538-61.3476,63.92554-23.6488-3.5091-36.68536-18.59485-34.7688-39.88965,2.00684-22.29834,24.58918-36.6308,44.0882-27.98175,8.67456,3.84772,13.16717,12.38654,10.75342,20.438-2.05414,6.852-8.48773,9.64441-18.61359,7.99933-2.69922-.43848-5.36517-1.20539-8.44122-.58081a26.26655,26.26655,0,0,0,27.32483,10.05536c9.684-2.207,14.77044-8.94379,16.76422-18.33167,3.53906-16.66327-9.96094-36.89587-27.42383-41.12762-34.8678-8.44935-72.03961,20.96588-71.84473,56.853.15338,28.23365,24.04889,55.00544,52.48548,58.97083,3.95044.5509,8.23657.19134,11.84265,2.6831-.41333.74219-.52124,1.15326-.78729,1.372a13.71906,13.71906,0,0,1-2.324,1.67334c-33.9433,17.541-68.88684,19.9422-104.03278,4.781-17.26849-7.44922-29.2771-20.87421-32.71978-40.22217-2.61939-14.721,7.64093-27.94708,23.36255-30.80945,11.9-2.16656,22.21508,6.52771,25.15466,21.2168.2251,1.12488.35492,2.26868.53863,3.402.20954,1.293-.1015,3.11987,1.33728,3.54254,1.94526.57159,2.34217-1.57318,3.07966-2.7356,8.16577-12.87005,2.53179-30.86065-12.04151-38.64166-23.65777-12.63135-57.42395,3.44556-62.46741,29.79175-2.56659,13.40674-1.23687,26.27588,5.51941,38.39087,1.12146,2.01092,2.96753,3.95849,2.33747,6.783a7.0474,7.0474,0,0,1-1.93476-.28c-1.70532-.86243-3.40649-1.75073-5.02551-2.76318a93.25753,93.25753,0,0,1-29.27216-29.554c-7.82525-12.283-13.51385-25.34741-13.17077-40.31616.38251-16.68854,7.97009-25.67194,24.14557-28.79688.49347-.09533.90606-.6087,1.36926-.9364-5.46625-5.78717-13.22839-7.2016-20.90747-3.44751-10.653,5.20807-16.11157,14.25726-18.19971,25.64032-.28131,1.5332.73267,4.03626-1.68658,4.21753-1.93872.14526-2.52869-2.15558-3.01282-3.74341-6.81226-22.34015-10.90924-44.97766-7.64911-68.46679,1.55457-11.20118,4.95734-21.88825,8.39392-32.62439-5.28467,5.66668-8.5083,12.32092-11.14514,19.3117-8.5567,22.686-8.87286,45.66547-4.7688,69.47333C23.82056,286.39124,88.106,347.27008,163.60645,352.77045c67.99255,4.95349,123.32959-20.50318,160.40728-78.0741C361.83313,215.97375,362.59424,154.01508,327.16132,93.82819Zm-32.47278,26.02472c-.22272.77429-1.20032.86846-1.92035.36871-7.94324-5.512-16.64966-2.46546-25.10022-2.25141-1.33753.03388-2.67224.18335-3.06452.21155-7.02166.07831-12.67022-1.08557-17.59491-5.03265-7.53033-6.03558-6.76678-16.56415,1.75214-21.22431,5.92926-3.24353,12.1922-2.87811,18.39874-1.01617,13.553,4.06586,21.20752,14.37262,27.275,26.25195A4.01169,4.01169,0,0,1,294.68854,119.85291Z"/><path d="M254.151,497.68719c9.07935-1.2633,16.29865-6.17535,18.74323-14.87078,2.94531-10.47657,4.25921-21.62348-2.39612-31.5232-2.67829-3.98394-2.85645-7.08661-.78821-11.42511,8.98987-18.85833-6.61853-45.00494-30.72394-46.99981-.525-.04346-1.01513-.06525-1.4732-.062l-4.74036-.76813V498.822M248.269,413.68243c.09113-1.47259.66156-4.29608,3.01325-2.455,6.85229,5.36438,11.66308,20.17474,2.495,27.15612-3.7951,2.8899-5.30029,2.36744-5.699-2.37506l.112-10.88238C248.19025,421.30994,248.03387,417.484,248.269,413.68243Zm6.70868,68.36255c-1.51227,1.16278-3.23218,2.51245-5.20495,1.73322-2.19086-.86548-1.79261-3.16083-1.83759-5.02039-.07867-3.24963-.022-6.50262-.022-9.75427l.50238-12.59875c.21954-2.8462,1.51776-3.53016,4.18243-2.07648C261.97449,459.44385,263.41986,475.5542,254.97772,482.045Z"/><path d="M302.19836,397.3269c-.19836-6.14715-4.76867-4.55706-8.35974-4.89123-4.22442-.39313-5.05664,1.79486-5.02612,5.50171.13232,16.06384.05676,32.12939.05676,48.19433L288.166,493.7522c-.07922,4.443,1.34565,5.88714,5.51337,5.26733a11.36867,11.36867,0,0,1,3.43445.00153c4.75415.769,6.086-1.09235,6.03479-5.90393-.27429-25.817-.13208-51.63813-.24213-77.45728C302.88037,409.5481,302.39563,403.43945,302.19836,397.3269Z"/><path d="M32.635,392.41339,9.29889,498.54913h14.778L27.207,484.355h18.332l4.02618,14.19415h15.2558L39.14655,392.3111Zm-2.15808,76.12769,5.42352-30.28778,5.69818,30.28778Z"/><polygon points="89.565 392.311 74.422 392.413 74.422 498.549 109.778 498.549 109.778 485.099 89.565 485.099 89.565 392.311"/><polygon points="136.548 453.704 148.263 453.704 148.263 439.611 136.402 439.611 136.402 407.099 154.542 407.099 154.542 392.311 120.447 392.437 120.447 498.549 155.888 498.549 155.888 485.657 136.548 485.657 136.548 453.704"/><polygon points="192.793 436.989 175.751 392.716 166.814 392.311 166.814 499.043 181.053 499.043 181.593 445.142 192.802 462.327 203.658 445.43 203.658 499.221 218.773 499.221 218.773 392.311 209.825 392.311 192.793 436.989"/></svg>