<svg id="logo" xmlns="http://www.w3.org/2000/svg" viewBox="0 0 4118.23245 1031.94122"><defs><style>.cls-1{fill:#4aa4b7;}.cls-2{fill:#278596;}.cls-3{fill:#616361;}.cls-4{fill:#54c8df;}.cls-5{fill:#3db7cd;}.cls-6{fill:#a6a4a4;}</style></defs><polygon class="cls-1" points="450 102.825 450 278.538 676.309 523.882 756.824 436.595 450 102.825"/><polygon class="cls-2" points="756.824 611.17 756.824 436.595 676.309 523.882 756.824 611.17"/><polygon class="cls-3" points="676.309 523.882 756.824 611.17 450 944.94 450 769.226 676.309 523.882"/><polygon class="cls-4" points="450 278.538 450 102.825 142.959 436.595 223.474 523.882 450 278.538"/><polygon class="cls-5" points="142.959 436.595 142.959 611.17 223.474 523.882 142.959 436.595"/><polygon class="cls-6" points="450 944.94 450 769.226 223.474 523.882 142.959 611.17 450 944.94"/><path d="M1116.0918,622.416m0,0-45.68164,105.97369h-31.543v-3.61236l182.18554-417.87289h26.1045l182.72949,417.87289v3.61236h-31.542L1352.66211,622.416m0,0-118.0127-273.36287L1116.0918,622.416m0,0"/><path d="M1496.76855,294.86233h28.82325V728.38967h-28.82325Z"/><path d="M1627.24219,365.06734c0-8.78146,6.70589-15.65388,14.82381-15.65388,8.4703,0,15.17619,6.87242,15.17619,15.65388s-6.70589,15.65387-15.17619,15.65387C1633.94808,380.72121,1627.24219,373.8488,1627.24219,365.06734Zm29.41211,363.32233h-28.82325V433.34994h28.82325Z"/><path d="M1739.31543,580.87007c0-85.50131,54.38379-153.54145,141.94141-153.54145,56.01562,0,99.52246,30.106,119.64453,75.86764l-25.0166,15.05275c-16.85938-38.53578-51.1211-61.416-94.62793-61.416-68.52344,0-112.57422,52.38461-112.57422,124.0371s45.13867,123.43432,113.66211,123.43432c45.13867,0,80.48828-22.87971,95.71582-60.2121l25.0166,14.4516c-18.49121,45.15826-62.542,75.86709-120.73242,75.86709C1794.78711,734.411,1739.31543,665.76861,1739.31543,580.87007Z"/><path d="M2197.22754,704.90663c38.61328,0,68.52441-13.84827,95.17187-41.5459l12.50879,25.89091c-29.36718,28.90211-61.998,45.15934-107.13672,45.15934-91.36425,0-146.292-65.63117-146.292-152.93867,0-84.29737,52.208-154.14369,136.50293-154.14369S2326.66113,499.58336,2317.96,598.33179H2080.84668C2087.37207,663.36073,2129.24805,704.90663,2197.22754,704.90663Zm93.541-134.27247c-2.17578-67.4379-41.876-113.80119-102.24218-113.80119-61.4541,0-103.87305,45.76105-107.67969,113.80119Z"/><path d="M2363.09473,310.51732v-3.6129h31.543l159.34472,378.73486L2712.7832,306.90442h31.542v3.6129l-177.291,417.87235H2539.8418Z"/><path d="M2839.48828,728.38967H2810.665V433.34994h28.82324Z"/><path d="M2921.06152,693.46624l12.50782-27.09539c28.82421,26.49315,66.89257,38.53578,112.03125,38.53578,59.27832,0,90.27734-22.27855,90.27734-57.80314,0-37.93355-30.999-43.35262-96.80371-52.38514-60.36621-8.4292-110.94336-17.46172-110.94336-75.8671,0-53.58854,42.96387-91.52263,111.4873-91.52263,64.17286,0,101.69825,32.515,116.92481,71.6525l-23.38477,13.24712c-14.13965-35.52567-46.76953-55.39527-93.54-55.39527-51.12109,0-82.11914,24.687-82.11914,60.2121,0,34.32065,29.36719,40.94421,88.64551,49.37341,67.97949,9.63476,119.64453,18.66619,119.64453,78.87829,0,54.19079-44.59472,89.11421-120.73242,89.11421C2993.3916,734.411,2952.60449,719.35823,2921.06152,693.46624Z"/><path d="M3274.54883,728.38967h-28.82324V433.34994h28.82324Z"/><path d="M3357.21094,580.87007c0-84.29737,56.01465-153.54145,143.02929-153.54145,86.47071,0,142.48536,69.24408,142.48536,153.54145,0,84.2963-56.01465,153.54091-142.48536,153.54091C3413.22559,734.411,3357.21094,665.16637,3357.21094,580.87007Zm256.14746,0c0-71.65249-46.76953-124.0371-113.11817-124.0371-66.89257,0-113.66211,52.38461-113.66211,124.0371s46.76954,123.43432,113.66211,123.43432C3566.58887,704.30439,3613.3584,652.52257,3613.3584,580.87007Z"/><path d="M3967.93359,547.15112V728.38967h-28.82324V547.15112c0-55.9975-31.543-90.31815-82.12012-90.31815-40.78808,0-73.418,22.88026-102.78515,71.04972v200.507h-28.82324V433.34994h28.82324v57.20144c27.73535-41.5459,61.4541-63.22276,107.67969-63.22276C3928.2334,427.32862,3967.93359,473.69245,3967.93359,547.15112Z"/><path d="M1116.0918,622.416m0,0-45.68164,105.97369h-31.543v-3.61236l182.18554-417.87289h26.1045l182.72949,417.87289v3.61236h-31.542L1352.66211,622.416m0,0-118.0127-273.36287L1116.0918,622.416m0,0"/><path d="M1496.76855,294.86233h28.82325V728.38967h-28.82325Z"/><path d="M1627.24219,365.06734c0-8.78146,6.70589-15.65388,14.82381-15.65388,8.4703,0,15.17619,6.87242,15.17619,15.65388s-6.70589,15.65387-15.17619,15.65387C1633.94808,380.72121,1627.24219,373.8488,1627.24219,365.06734Zm29.41211,363.32233h-28.82325V433.34994h28.82325Z"/><path d="M1739.31543,580.87007c0-85.50131,54.38379-153.54145,141.94141-153.54145,56.01562,0,99.52246,30.106,119.64453,75.86764l-25.0166,15.05275c-16.85938-38.53578-51.1211-61.416-94.62793-61.416-68.52344,0-112.57422,52.38461-112.57422,124.0371s45.13867,123.43432,113.66211,123.43432c45.13867,0,80.48828-22.87971,95.71582-60.2121l25.0166,14.4516c-18.49121,45.15826-62.542,75.86709-120.73242,75.86709C1794.78711,734.411,1739.31543,665.76861,1739.31543,580.87007Z"/><path d="M2197.22754,704.90663c38.61328,0,68.52441-13.84827,95.17187-41.5459l12.50879,25.89091c-29.36718,28.90211-61.998,45.15934-107.13672,45.15934-91.36425,0-146.292-65.63117-146.292-152.93867,0-84.29737,52.208-154.14369,136.50293-154.14369S2326.66113,499.58336,2317.96,598.33179H2080.84668C2087.37207,663.36073,2129.24805,704.90663,2197.22754,704.90663Zm93.541-134.27247c-2.17578-67.4379-41.876-113.80119-102.24218-113.80119-61.4541,0-103.87305,45.76105-107.67969,113.80119Z"/><path d="M2363.09473,310.51732v-3.6129h31.543l159.34472,378.73486L2712.7832,306.90442h31.542v3.6129l-177.291,417.87235H2539.8418Z"/><path d="M2839.48828,728.38967H2810.665V433.34994h28.82324Z"/><path d="M2921.06152,693.46624l12.50782-27.09539c28.82421,26.49315,66.89257,38.53578,112.03125,38.53578,59.27832,0,90.27734-22.27855,90.27734-57.80314,0-37.93355-30.999-43.35262-96.80371-52.38514-60.36621-8.4292-110.94336-17.46172-110.94336-75.8671,0-53.58854,42.96387-91.52263,111.4873-91.52263,64.17286,0,101.69825,32.515,116.92481,71.6525l-23.38477,13.24712c-14.13965-35.52567-46.76953-55.39527-93.54-55.39527-51.12109,0-82.11914,24.687-82.11914,60.2121,0,34.32065,29.36719,40.94421,88.64551,49.37341,67.97949,9.63476,119.64453,18.66619,119.64453,78.87829,0,54.19079-44.59472,89.11421-120.73242,89.11421C2993.3916,734.411,2952.60449,719.35823,2921.06152,693.46624Z"/><path d="M3274.54883,728.38967h-28.82324V433.34994h28.82324Z"/><path d="M3357.21094,580.87007c0-84.29737,56.01465-153.54145,143.02929-153.54145,86.47071,0,142.48536,69.24408,142.48536,153.54145,0,84.2963-56.01465,153.54091-142.48536,153.54091C3413.22559,734.411,3357.21094,665.16637,3357.21094,580.87007Zm256.14746,0c0-71.65249-46.76953-124.0371-113.11817-124.0371-66.89257,0-113.66211,52.38461-113.66211,124.0371s46.76954,123.43432,113.66211,123.43432C3566.58887,704.30439,3613.3584,652.52257,3613.3584,580.87007Z"/><path d="M3967.93359,547.15112V728.38967h-28.82324V547.15112c0-55.9975-31.543-90.31815-82.12012-90.31815-40.78808,0-73.418,22.88026-102.78515,71.04972v200.507h-28.82324V433.34994h28.82324v57.20144c27.73535-41.5459,61.4541-63.22276,107.67969-63.22276C3928.2334,427.32862,3967.93359,473.69245,3967.93359,547.15112Z"/><path d="M2810.07666,365.06734c0-8.78146,6.70589-15.65388,14.82381-15.65388,8.4703,0,15.17619,6.87242,15.17619,15.65388s-6.70589,15.65387-15.17619,15.65387C2816.78255,380.72121,2810.07666,373.8488,2810.07666,365.06734Z"/><path d="M3245.13721,365.06734c0-8.78146,6.70589-15.65388,14.82381-15.65388,8.4703,0,15.17619,6.87242,15.17619,15.65388s-6.70589,15.65387-15.17619,15.65387C3251.8431,380.72121,3245.13721,373.8488,3245.13721,365.06734Z"/></svg>