<svg xmlns="http://www.w3.org/2000/svg" role="img" viewBox="-4.75 -4.50 234.00 57.50"><g data-name="Raggruppa 4213" transform="translate(-160 -38)"><path fill="#f3c02c" d="M194.492 56.73h19.672c1.672 0 2.259-.531 2.293-2.186.068-2.7.123-5.4.061-8.094-.041-1.879-.423-2.186-2.252-2.193h-19.788V38.02c7.212 0 15.093.063 22.415.063 2.934.07 5.343 1.453 6.141 4.728a3.183 3.183 0 0 1 .1.761v11.51a17.739 17.739 0 0 1-.143 2.891 5.223 5.223 0 0 1-2.961 3.981 6.347 6.347 0 0 1-2.047.643 36.494 36.494 0 0 1-4.271.307h-19.2c-.027-1.376-.02-4.463-.02-6.174z" data-name="Tracciato 925"/><path fill="#f3c02c" d="M188.719 38v6.285h-19.187c-2.934 0-2.8.615-2.8 2.905 0 3.191.048 5.091.048 7.786a1.643 1.643 0 0 0 .412 1.2 1.568 1.568 0 0 0 1.13.526 8.448 8.448 0 0 0 1.365.056h19.023V63s-14.172 0-20.811-.1a12.762 12.762 0 0 1-4.524-.852 5.425 5.425 0 0 1-3.3-5.237q-.164-6.432 0-12.87a5.646 5.646 0 0 1 4.865-5.587 19.635 19.635 0 0 1 3.193-.314h20.013z" data-name="Tracciato 926"/><path fill="#313131" d="M281.253 54.738V41.461h5.172v16.061a1.683 1.683 0 0 1-1.876 1.9h-5.22a3.149 3.149 0 0 1-2.729-1.325c-2.73-3.528-9.31-11.986-9.39-11.986v13.286h-5.24V43.361a1.688 1.688 0 0 1 1.92-1.9h5.8a2.145 2.145 0 0 1 1.883.93c2.931 3.727 9.598 12.375 9.68 12.347z" data-name="Tracciato 927"/><path fill="#313131" d="M294.958 59.383a9.844 9.844 0 0 1-2.047-.31 4.085 4.085 0 0 1-3.364-4.271q-.061-4.377 0-8.753c.041-2.728 1.788-4.567 4.776-4.623h15.694v4.5h-14.066c-1.16 0-1.651.324-1.651 1.515v.782h15.694v4.461h-15.698v.811c0 1.05.328 1.41 1.433 1.41 4.415 0 9.819.035 14.233 0v4.482s-12.78.024-15.004-.004z" data-name="Tracciato 928"/><path fill="#313131" d="M314.109 59.383v-4.531s9.669.063 13.92.063c1.535 0 1.774-.2 1.815-1.8q.068-2.7 0-5.406c-.034-1.41-.43-1.783-1.808-1.79-5.029 0-13.933-.035-13.933-.035v-4.459h15.612c3.248.056 4.845 1.945 4.865 5.307v7.379c0 3.4-1.7 5.2-5.008 5.272z" data-name="Tracciato 929"/><path fill="#313131" d="M251.812 41.447v4.444s-13.926.056-13.926 0c-1.624 0-1.951.317-1.979 2s0 3.475 0 5.209c0 1.5.348 1.833 1.835 1.84 4.285 0 9.792.07 14.083 0v4.391h-15.639c-2.531 0-4.926-1.191-4.967-4.814q-.048-4.229 0-8.458c.061-3.524 2.361-4.433 4.633-4.631.723-.063 1.46 0 2.19-.042z" data-name="Tracciato 930"/><path fill="#313131" d="M385 41.44c-.491.959-6.2 11.594-8.42 15.865-.826 1.41-1.478 2.051-3.174 2.051h-2.758c-1.412 0-2.081-.338-3.132-2.065-2.675-5.187-7.922-15.16-8.3-15.893h5.459s7.1 12.933 7.41 13.264c.28-.324 7.4-13.264 7.4-13.264z" data-name="Tracciato 931"/><path fill="#313131" d="M253.665 41.425h5.459v17.972h-5.459z" data-name="Rettangolo 719"/><path fill="#313131" d="M343.009 59.369a9.845 9.845 0 0 1-2.047-.31 4.091 4.091 0 0 1-3.364-4.229c-.034-2.918-.041-5.836 0-8.747a4.436 4.436 0 0 1 4.742-4.624h15.694v4.49h-14.036c-1.16 0-1.651.331-1.651 1.515v.782H358v4.462l-15.653-.035v.818c0 1.05.328 1.41 1.433 1.41H358v4.476s-12.767.02-14.991-.008z" data-name="Tracciato 932"/><path fill="#f3c02c" d="M172.862 47.469h37.276v6.011h-37.276z" data-name="Rettangolo 720"/></g><path d="M83.9092 41.58512l2.2978-7.01375 2.22554 7.01375zm.23047-11.08991l-6.36019 17.82504h3.89386l1.23145-3.66339h6.56657l1.1489 3.6634h4.04176L88.34655 30.4952zm2.08108 0zm13.94151 17.82504V30.49521h-3.44668v17.82504zm2.00885-10.6049h1.83685v8.11449c0 .8221.19263 1.43095.58132 1.82653.59509.61916 1.70959.90123 3.33661.8462l1.6339-.06193v-2.5764a5.59719 5.59719 0 0 1-.34397.02063c-.11696.00344-.23047.00688-.33366.00688-.70172 0-1.12138-.0688-1.25897-.20295-.13415-.1307-.20295-.4678-.20295-1.00786v-6.9656h2.13956v-2.456h-2.13956v-3.67372h-3.41228v3.67371h-1.83685zm12.94396.66388c.4403-.49877 1.05946-.74988 1.8575-.74988.73267 0 1.3484.23735 1.84373.7086.49533.47125.77051 1.16265.82899 2.0742h-5.3592c.1135-.8565.39213-1.53071.82898-2.03292zm4.81916-2.97543c-.87715-.40933-1.86437-.61572-2.96167-.61572-1.84717 0-3.34692.60884-4.50613 1.82653-1.15578 1.2177-1.73366 2.96855-1.73366 5.24914 0 2.43538.6398 4.19311 1.92285 5.27321 1.28304 1.0801 2.76216 1.62015 4.43734 1.62015 2.03292 0 3.61179-.64325 4.74004-1.92285.7258-.80836 1.13514-1.60295 1.22113-2.38378h-3.51891c-.18575.3887-.39902.6914-.6398.9081-.44374.40246-1.02163.6054-1.73023.6054-.66732 0-1.24176-.1651-1.71646-.49876-.78083-.52973-1.19705-1.45848-1.2452-2.77936h9.0226c.01375-1.13857-.02065-2.00884-.11008-2.61425-.1548-1.03194-.48845-1.9366-1.00442-2.72088-.57101-.88403-1.2968-1.53415-2.1774-1.94693zm-2.72088-.61572zm15.65453.04128c-.04472-.00344-.09631-.00344-.16167-.00344-1.03194 0-1.87125.2683-2.5145.80835-.39557.32334-.85994.9253-1.39311 1.80245v-2.29778h-3.28845v13.18131h3.47076v-6.29827c0-1.05946.13415-1.8403.39901-2.34939.4747-.90122 1.40688-1.35184 2.79312-1.35184.10663 0 .24079.00344.41278.01032.16855.01032.36118.02408.57788.04816v-3.52924c-.15135-.01031-.2511-.01375-.29582-.02063zm9.58328 7.08254v1.28305c-.02408 1.15233-.34742 1.94693-.97346 2.38034-.6226.43686-1.30712.65356-2.05012.65356-.46437 0-.8634-.13071-1.19017-.39213-.32678-.26143-.48845-.68796-.48845-1.27617 0-.66044.26486-1.1489.79803-1.46535.31302-.18575.83243-.34055 1.55823-.47126l.77395-.14447c.3887-.07223.6914-.15135.915-.2339.22014-.086.44029-.19607.657-.33367zm-2.0914-1.60982l-1.17297.14447c-1.3312.17199-2.33906.45405-3.02358.84963-1.24865.7258-1.8747 1.89877-1.8747 3.51892 0 1.24864.3887 2.21523 1.16954 2.8963.7774.68109 1.76118 1.02163 2.95479 1.02163.93562 0 1.77493-.21327 2.5145-.64325.6226-.36117 1.16952-.80147 1.64766-1.31744.02407.29926.05503.56413.09631.79803.03784.23391.11007.48502.2167.74988h3.74939v-.50909c-.22703-.1032-.39558-.23735-.5091-.39902-.1135-.15823-.1823-.46437-.20638-.91842-.01376-.59509-.02408-1.10418-.02408-1.52383v-6.04373c0-1.58919-.56068-2.66929-1.67862-3.24373-1.12137-.57101-2.40442-.85651-3.8457-.85651-2.21867 0-3.78378.57788-4.69188 1.74053-.57445.743-.8978 1.68895-.97003 2.84128h3.32629c.08256-.5091.24079-.91155.48501-1.20737.3371-.4059.91499-.6054 1.73022-.6054.72236 0 1.27273.10319 1.64767.30614.37493.20638.56412.58132.56412 1.12137 0 .44374-.24766.76708-.73955.9769-.27175.12384-.72924.2236-1.3656.3027zm.18231-5.514z"/></svg>