<?xml version="1.0" encoding="UTF-8" standalone="no"?>
<!-- Created with Inkscape (http://www.inkscape.org/) -->

<svg
   xmlns:dc="http://purl.org/dc/elements/1.1/"
   xmlns:cc="http://creativecommons.org/ns#"
   xmlns:rdf="http://www.w3.org/1999/02/22-rdf-syntax-ns#"
   xmlns:svg="http://www.w3.org/2000/svg"
   xmlns="http://www.w3.org/2000/svg"
   version="1.1"
  viewBox="0 0 500 320.86079" width="395" height="253"

   id="svg3448">
  <defs
     id="defs3450">
    <clipPath
       id="clipPath342">
      <path
         d="m 138.898,623.102 123.543,0 0,88.11 -123.543,0 0,-88.11 z"
         id="path344" />
    </clipPath>
    <clipPath
       id="clipPath360">
      <path
         d="m 145.705,641.919 106.214,0 0,68.16 -106.214,0 0,-68.16 z"
         id="path362" />
    </clipPath>
  </defs>
  <metadata
     id="metadata3453">
    <rdf:RDF>
      <cc:Work
         rdf:about="">
        <dc:format>image/svg+xml</dc:format>
        <dc:type
           rdf:resource="http://purl.org/dc/dcmitype/StillImage" />
        <dc:title></dc:title>
      </cc:Work>
    </rdf:RDF>
  </metadata>
  <g
     transform="translate(-308.616,-254.1014)"
     id="layer1">
    <g
       transform="matrix(4.7074596,0,0,-4.7074596,-377.28252,3596.769)"
       id="g3379">
      <g
         transform="translate(150.6616,649.5457)"
         id="g312">
        <path
           d="M 0,0 -0.953,9.756 -1.875,0 0,0 z m -2.51,13.792 3.178,0 2.415,-21.196 -2.32,0 -0.54,5.307 -2.321,0 -0.54,-5.307 -2.319,0 2.447,21.196 z"
           id="path314"
           style="fill:#231f20;fill-opacity:1;fill-rule:nonzero;stroke:none" />
      </g>
      <g
         transform="translate(156.4775,663.3378)"
         id="g316">
        <path
           d="m 0,0 2.51,0 2.574,-13.347 0,13.347 2.13,0 0,-21.196 -2.543,0 -2.542,13.569 0,-13.569 -2.129,0 L 0,0 z"
           id="path318"
           style="fill:#231f20;fill-opacity:1;fill-rule:nonzero;stroke:none" />
      </g>
      <path
         d="m 167.694,663.338 2.352,0 0,-21.196 -2.352,0 0,21.196 z"
         id="path320"
         style="fill:#231f20;fill-opacity:1;fill-rule:nonzero;stroke:none" />
      <g
         transform="translate(174.3044,663.3378)"
         id="g322">
        <path
           d="M 0,0 3.337,0 4.894,-12.203 6.324,0 l 3.337,0 0,-21.196 -2.129,0 0,15.475 -1.844,-15.475 -1.62,0 -1.939,15.475 0,-15.475 -2.129,0 L 0,0 z"
           id="path324"
           style="fill:#231f20;fill-opacity:1;fill-rule:nonzero;stroke:none" />
      </g>
      <g
         transform="translate(192.3037,649.5457)"
         id="g326">
        <path
           d="M 0,0 -0.953,9.756 -1.875,0 0,0 z m -2.51,13.792 3.178,0 2.415,-21.196 -2.321,0 -0.54,5.307 -2.32,0 -0.54,-5.307 -2.319,0 2.447,21.196 z"
           id="path328"
           style="fill:#231f20;fill-opacity:1;fill-rule:nonzero;stroke:none" />
      </g>
      <g
         transform="translate(199.0724,663.3378)"
         id="g330">
        <path
           d="m 0,0 2.352,0 0,-19.067 2.955,0 0,-2.129 -5.307,0 L 0,0 z"
           id="path332"
           style="fill:#231f20;fill-opacity:1;fill-rule:nonzero;stroke:none" />
      </g>
      <g
         transform="translate(207.9699,663.3378)"
         id="g334">
        <path
           d="m 0,0 2.352,0 0,-19.067 2.955,0 0,-2.129 -5.307,0 L 0,0 z"
           id="path336"
           style="fill:#7d98ae;fill-opacity:1;fill-rule:nonzero;stroke:none" />
      </g>
      <g
         id="g338">
        <g
           clip-path="url(#clipPath342)"
           id="g340">
          <g
             transform="translate(218.9651,645.1603)"
             id="g346">
            <path
               d="m 0,0 c 0.063,-0.699 0.477,-1.112 1.145,-1.112 0.38,0 0.794,0.222 0.952,0.508 0.096,0.159 0.128,0.35 0.159,0.604 0.032,0.349 0.032,0.413 0.032,1.271 l 0,12.616 c 0,0.858 0,0.889 -0.032,1.239 -0.063,0.731 -0.477,1.145 -1.111,1.145 -0.414,0 -0.796,-0.223 -0.954,-0.509 C 0,15.444 -0.031,15.095 -0.031,13.887 l 0,-12.616 C -0.031,0.667 -0.031,0.318 0,0 M 4.449,-0.922 C 4.1,-2.415 2.924,-3.241 1.145,-3.241 c -1.113,0 -2.098,0.381 -2.67,0.985 -0.286,0.349 -0.541,0.794 -0.668,1.334 C -2.352,-0.287 -2.352,0 -2.352,1.271 l 0,12.616 c 0,1.271 0,1.525 0.159,2.193 0.35,1.493 1.526,2.288 3.338,2.288 1.08,0 2.065,-0.35 2.637,-0.954 C 4.1,17.065 4.321,16.62 4.449,16.08 4.608,15.412 4.64,15.158 4.64,13.887 l 0,-12.616 C 4.64,0 4.608,-0.287 4.449,-0.922"
               id="path348"
               style="fill:#7d98ae;fill-opacity:1;fill-rule:nonzero;stroke:none" />
          </g>
          <g
             transform="translate(231.9942,655.8058)"
             id="g350">
            <path
               d="M 0,0 0,3.241 C 0,4.1 0,4.131 -0.032,4.481 -0.095,5.212 -0.509,5.625 -1.145,5.625 -1.557,5.625 -1.939,5.402 -2.097,5.117 -2.288,4.799 -2.32,4.449 -2.32,3.241 l 0,-12.615 c 0,-0.604 0,-0.954 0.032,-1.272 0.063,-0.699 0.477,-1.112 1.143,-1.112 0.382,0 0.796,0.223 0.954,0.509 0.096,0.159 0.127,0.349 0.159,0.603 C 0,-10.297 0,-10.232 0,-9.374 l 0,4.512 -1.145,0 0,2.098 3.497,0 0,-10.9 -1.145,0 -0.254,0.984 c -0.636,-0.858 -1.239,-1.207 -2.256,-1.207 -0.953,0 -1.97,0.413 -2.51,0.985 -0.286,0.349 -0.541,0.794 -0.668,1.334 -0.159,0.636 -0.159,0.922 -0.159,2.194 l 0,12.615 c 0,1.272 0,1.526 0.159,2.193 0.349,1.494 1.525,2.288 3.336,2.288 1.081,0 2.067,-0.349 2.638,-0.953 C 1.811,6.419 2.033,5.975 2.161,5.434 2.32,4.767 2.352,4.513 2.352,3.241 L 2.352,0 0,0"
               id="path352"
               style="fill:#7d98ae;fill-opacity:1;fill-rule:nonzero;stroke:none" />
          </g>
          <path
             d="m 238.603,663.338 2.352,0 0,-21.196 -2.352,0 0,21.196 z"
             id="path354"
             style="fill:#7d98ae;fill-opacity:1;fill-rule:nonzero;stroke:none" />
        </g>
      </g>
      <g
         id="g356">
        <g
           clip-path="url(#clipPath360)"
           id="g358">
          <g
             transform="translate(251.919,646.4315)"
             id="g364">
            <path
               d="m 0,0 c 0,-1.271 -0.032,-1.558 -0.191,-2.193 -0.349,-1.493 -1.525,-2.32 -3.305,-2.32 -1.112,0 -2.097,0.382 -2.67,0.986 -0.286,0.349 -0.54,0.793 -0.666,1.334 -0.16,0.635 -0.16,0.922 -0.16,2.193 l 0,12.616 c 0,1.271 0,1.525 0.16,2.193 0.349,1.493 1.525,2.288 3.336,2.288 1.081,0 2.066,-0.35 2.637,-0.954 0.319,-0.349 0.541,-0.794 0.668,-1.334 C -0.032,14.141 0,13.887 0,12.616 l 0,-3.877 -2.352,0 0,3.877 c 0,0.858 0,0.889 -0.032,1.239 -0.063,0.731 -0.476,1.144 -1.112,1.144 -0.413,0 -0.795,-0.223 -0.954,-0.508 -0.19,-0.318 -0.221,-0.667 -0.221,-1.875 L -4.671,0 c 0,-0.604 0,-0.953 0.031,-1.271 0.064,-0.699 0.477,-1.112 1.144,-1.112 0.381,0 0.795,0.222 0.953,0.508 0.096,0.159 0.128,0.35 0.159,0.604 0.032,0.349 0.032,0.413 0.032,1.271 l 0,4.195 L 0,4.195 0,0"
               id="path366"
               style="fill:#7d98ae;fill-opacity:1;fill-rule:nonzero;stroke:none" />
          </g>
          <g
             transform="translate(203.8613,675.6005)"
             id="g368">
            <path
               d="m 0,0 c -0.134,0.004 -0.279,0.008 -0.424,0.011 l -0.578,20.002 c 0.584,0.152 1.14,0.33 1.665,0.529 L 1.352,-0.073 C 0.934,-0.041 0.486,-0.016 0,0 m -10.795,20.02 c 0.662,-0.185 1.367,-0.33 2.107,-0.435 L -9.173,-0.463 c -0.694,-0.066 -1.391,-0.133 -2.085,-0.205 l 0.463,20.688 z m 8.259,-20.034 c -1.343,-0.043 -2.89,-0.139 -4.521,-0.267 l 0.479,19.688 c 0.497,-0.016 1.007,-0.012 1.525,0.012 0.669,0.027 1.319,0.089 1.948,0.177 l 0.569,-19.61 z m -11.588,25.03 c -0.079,1.834 3.445,4.035 8.636,4.265 5.19,0.227 8.896,-1.656 8.98,-3.485 0.079,-1.834 -3.451,-4.038 -8.639,-4.266 -5.189,-0.227 -8.894,1.655 -8.977,3.486 M 3.465,-0.314 2.75,21.444 c 0,0.042 -0.01,0.078 -0.014,0.119 1.851,1.156 2.94,2.677 2.87,4.325 -0.15,3.358 -5.063,5.774 -11.189,5.507 -3.777,-0.167 -7.005,-1.314 -8.888,-2.959 -0.003,0 -0.005,-0.004 -0.005,-0.004 -0.035,-0.03 -0.071,-0.062 -0.105,-0.09 -2.534,-2.274 -4.306,-2.762 -6.711,-2.591 -1.679,0.12 -3.422,1.143 -4.145,2.431 -0.26,0.461 -0.375,0.941 -0.356,1.436 -0.023,1.106 0.456,3.166 3.34,3.101 2.017,-0.041 2.264,-1.605 1.512,-2.576 -0.324,-0.421 -1.49,-0.869 -2.545,-0.582 -0.382,0.093 -0.646,-0.087 -0.704,-0.321 -0.052,-0.209 -0.004,-0.447 0.275,-0.587 0.57,-0.215 1.203,-0.243 1.846,-0.168 0.982,0.112 1.946,0.62 2.389,1.222 0.668,0.908 0.624,1.723 0.514,2.237 -0.178,0.804 -0.777,1.528 -1.692,2.039 -0.982,0.55 -2.272,0.647 -3.536,0.266 -1.29,-0.389 -2.339,-1.211 -2.885,-2.262 -0.844,-1.621 -0.844,-3.34 -0.004,-4.837 1.061,-1.9 3.465,-3.341 5.84,-3.508 1.726,-0.124 3.403,0.167 5.222,1.098 0.159,-1.597 1.393,-2.971 3.327,-3.925 l -0.483,-21.717 c -6.303,-0.727 -11.58,-1.665 -9.028,-1.929 1.591,-0.167 15.458,1.446 27.066,1.066 1.92,-0.064 2.088,0.916 -1.196,1.451"
               id="path370"
               style="fill:#000000;fill-opacity:1;fill-rule:nonzero;stroke:none" />
          </g>
        </g>
      </g>
    </g>
  </g>
</svg>
