<?xml version="1.0" standalone="no"?>
<!DOCTYPE svg PUBLIC "-//W3C//DTD SVG 20010904//EN"
 "http://www.w3.org/TR/2001/REC-SVG-20010904/DTD/svg10.dtd">
<svg version="1.0" xmlns="http://www.w3.org/2000/svg"
 width="265.000000pt" height="229.000000pt" viewBox="0 0 265.000000 229.000000"
 preserveAspectRatio="xMidYMid meet">

<g transform="translate(0.000000,229.000000) scale(0.100000,-0.100000)"
fill="#000000" stroke="none">
<path d="M439 2273 c-7 -10 -10 -15 -5 -11 4 3 19 0 33 -7 15 -8 31 -11 37 -7
6 4 -2 9 -19 12 -16 4 -29 11 -27 18 3 17 -3 15 -19 -5z"/>
<path d="M760 2276 c0 -2 7 -7 16 -10 8 -3 12 -2 9 4 -6 10 -25 14 -25 6z"/>
<path d="M817 2269 c7 -7 15 -10 18 -7 3 3 -2 9 -12 12 -14 6 -15 5 -6 -5z"/>
<path d="M875 2270 c-4 -6 -11 -8 -16 -5 -5 4 -9 1 -9 -4 0 -16 16 -13 30 4 7
8 10 15 7 15 -3 0 -9 -5 -12 -10z"/>
<path d="M944 2266 c1 -8 5 -18 8 -22 4 -3 5 1 4 10 -1 8 -5 18 -8 22 -4 3 -5
-1 -4 -10z"/>
<path d="M1265 2270 c-2 -3 5 -7 16 -7 10 -1 19 2 19 6 0 9 -29 10 -35 1z"/>
<path d="M980 2262 c0 -5 7 -13 16 -16 10 -4 14 -1 12 6 -5 15 -28 23 -28 10z"/>
<path d="M1030 2260 c0 -5 5 -10 11 -10 5 0 7 5 4 10 -3 6 -8 10 -11 10 -2 0
-4 -4 -4 -10z"/>
<path d="M1171 2254 c0 -11 3 -14 6 -6 3 7 2 16 -1 19 -3 4 -6 -2 -5 -13z"/>
<path d="M1221 2256 c-15 -8 -20 -16 -12 -20 6 -4 11 -2 11 3 0 6 7 11 15 11
8 0 15 5 15 10 0 12 0 12 -29 -4z"/>
<path d="M1327 2251 c-10 -12 -9 -13 3 -6 8 5 22 8 32 7 9 -2 18 1 21 5 9 14
-44 8 -56 -6z"/>
<path d="M1525 2261 c-3 -5 -1 -12 5 -16 5 -3 10 1 10 9 0 18 -6 21 -15 7z"/>
<path d="M1600 2260 c8 -5 20 -10 25 -10 6 0 3 5 -5 10 -8 5 -19 10 -25 10 -5
0 -3 -5 5 -10z"/>
<path d="M1989 2263 c-298 -3 -348 -5 -353 -18 -4 -13 -2 -13 14 -5 10 5 84
10 164 10 l146 0 0 -130 0 -131 -153 2 -154 2 4 33 c2 19 -1 34 -5 34 -5 0 -8
-13 -6 -29 4 -30 -12 -41 -63 -41 -13 0 -23 -4 -23 -9 0 -16 32 -22 47 -9 17
14 43 20 43 10 0 -4 23 -7 51 -7 l51 1 -5 -49 -6 -48 28 6 c21 4 30 2 34 -9 5
-14 -5 -16 -68 -16 -83 0 -85 2 -70 63 7 26 6 27 -34 24 -33 -2 -38 -4 -26
-13 17 -12 21 -44 5 -44 -5 0 -13 7 -18 16 -8 15 -10 14 -16 -2 -4 -9 -2 -22
4 -28 14 -14 13 -29 -2 -20 -7 5 -9 2 -6 -7 18 -48 19 -59 4 -59 -8 0 -20 8
-25 18 -9 15 -12 15 -21 2 -8 -13 -10 -13 -10 2 0 10 -3 17 -7 17 -22 -4 -32
3 -27 16 4 8 1 15 -5 15 -6 0 -11 -13 -11 -30 0 -27 8 -35 33 -31 4 0 7 -6 7
-15 0 -9 -5 -12 -11 -8 -8 5 -9 2 -1 -12 8 -14 7 -23 -4 -35 -13 -14 -13 -18
2 -29 9 -8 18 -10 22 -4 10 13 72 15 72 2 0 -6 3 -8 6 -5 8 8 -16 38 -25 32
-4 -2 -5 9 -3 26 2 16 9 29 14 29 6 0 8 -11 6 -25 -3 -14 -1 -28 3 -31 5 -3 9
9 9 26 0 18 4 29 10 25 6 -3 10 -1 10 4 0 6 7 11 15 11 9 0 12 -6 8 -17 -5
-15 -3 -16 8 -5 16 14 39 16 39 2 0 -5 -9 -10 -20 -10 -11 0 -20 -5 -20 -11 0
-5 -4 -7 -10 -4 -5 3 -10 1 -10 -5 0 -6 -4 -9 -9 -6 -12 8 -21 -18 -12 -33 6
-10 12 -9 25 4 9 9 16 13 16 8 0 -5 18 -7 40 -5 38 4 40 3 40 -24 0 -16 -4
-24 -8 -18 -17 27 -93 24 -84 -2 1 -5 -27 -10 -64 -11 -39 -2 -63 1 -59 6 3 5
0 13 -6 17 -7 4 -9 3 -5 -4 4 -6 -3 -12 -16 -14 -20 -3 -23 -9 -22 -43 1 -22
0 -34 -3 -27 -3 6 -9 10 -14 6 -5 -3 -9 -1 -9 4 0 5 -11 8 -25 7 -14 -2 -27 0
-30 5 -2 4 3 7 13 6 23 -1 28 18 5 22 -10 2 -23 10 -30 18 -7 10 -13 12 -18 5
-3 -6 -3 -11 1 -11 3 0 0 -8 -7 -17 -12 -15 -12 -16 5 -9 15 5 13 0 -8 -19
-30 -28 -46 -34 -26 -10 7 9 10 19 6 22 -4 4 -10 3 -14 -2 -10 -14 -32 -17
-32 -5 0 5 -3 9 -7 9 -22 -4 -43 2 -38 10 9 15 -16 24 -28 11 -9 -10 -9 -11 3
-5 12 6 13 5 3 -6 -7 -7 -13 -20 -13 -28 0 -14 1 -14 10 -1 8 13 10 12 10 -4
0 -15 3 -17 11 -9 16 16 39 5 32 -15 -3 -10 2 -6 12 7 13 17 20 20 26 10 4 -8
1 -18 -9 -25 -9 -7 -14 -16 -9 -20 4 -4 7 -2 7 5 0 7 4 10 9 7 5 -3 7 -15 4
-25 -3 -10 0 -22 6 -26 6 -3 11 -3 10 2 -3 20 2 25 16 13 8 -7 15 -9 15 -4 0
5 5 2 10 -6 8 -13 10 -13 10 -1 0 8 11 0 25 -19 14 -19 25 -34 25 -35 0 0 -9
-1 -21 -2 -11 -1 -23 6 -27 15 -4 9 -13 18 -21 20 -12 3 -12 0 -1 -12 10 -13
10 -16 -4 -16 -9 0 -16 -4 -16 -9 0 -4 -12 -6 -26 -3 -21 4 -25 1 -22 -14 2
-11 7 -22 12 -26 6 -4 5 -13 -3 -21 -10 -13 -9 -15 8 -10 24 6 27 -6 9 -27 -7
-8 -3 -6 10 4 12 11 22 16 22 11 0 -4 7 -2 15 5 18 15 25 10 29 -17 2 -13 10
-17 27 -15 19 2 21 1 9 -7 -8 -6 -13 -11 -10 -12 3 0 15 -2 28 -5 21 -4 22 -3
8 12 -19 19 -20 22 -3 37 21 21 53 18 65 -6 11 -20 11 -20 9 -2 -1 11 -9 25
-17 31 -12 10 -12 15 -1 28 18 21 10 39 -18 41 -19 1 -22 -2 -18 -21 3 -16 -2
-24 -17 -29 -40 -13 -46 -13 -46 0 0 7 -8 12 -17 10 -10 -1 -17 -8 -16 -14 2
-6 -1 -11 -6 -11 -5 0 -17 -3 -27 -7 -12 -4 -15 -3 -10 5 4 7 1 15 -8 18 -9 3
-13 10 -10 15 3 5 0 9 -7 9 -7 0 -9 3 -6 6 4 4 13 2 20 -4 8 -7 17 -8 21 -4 4
4 6 2 4 -3 -2 -6 2 -10 7 -10 5 0 9 3 8 6 -1 3 3 6 10 7 7 0 21 3 32 6 11 2
27 5 35 5 19 1 54 57 45 71 -3 6 -13 10 -21 10 -17 0 -19 26 -1 33 10 4 10 6
0 6 -7 1 -13 6 -13 12 0 6 9 8 23 3 27 -8 23 -4 32 -33 5 -15 3 -21 -3 -17 -6
4 -8 -2 -5 -14 5 -19 6 -19 36 2 17 12 28 17 24 11 -4 -6 -1 -14 5 -16 10 -4
10 -6 1 -6 -7 -1 -10 -8 -7 -16 7 -18 -7 -20 -24 -3 -10 10 -12 7 -9 -12 3
-19 10 -25 28 -25 13 0 23 5 22 11 -1 7 6 10 17 7 12 -3 20 0 20 8 0 7 -3 9
-7 6 -10 -11 -32 13 -26 29 3 7 9 12 13 9 5 -3 12 0 16 6 3 6 1 15 -6 19 -7 4
-10 15 -7 25 4 9 11 14 16 10 5 -3 12 -2 14 3 3 4 -18 8 -46 10 -36 1 -56 8
-70 23 -23 24 -17 37 7 14 9 -9 16 -12 16 -6 0 6 7 8 15 5 8 -4 23 -3 33 1 9
5 28 7 41 6 14 -2 21 1 17 8 -4 7 -1 9 8 5 9 -3 15 -9 14 -12 -2 -21 5 -31 25
-35 15 -3 12 -5 -12 -6 -30 -1 -32 -3 -20 -18 10 -11 10 -14 2 -9 -12 6 -15 1
-12 -21 1 -5 6 -7 12 -5 8 2 8 -1 0 -9 -7 -7 -13 -17 -13 -22 0 -5 7 -2 15 7
8 8 15 26 15 40 0 23 4 26 35 26 l35 0 0 -65 0 -65 -40 0 c-22 0 -40 -3 -40
-7 0 -5 26 -6 57 -4 32 2 52 6 46 8 -9 3 -13 27 -13 69 l0 64 33 0 c33 0 33 0
34 -49 0 -38 -3 -51 -16 -54 -14 -4 -14 -5 2 -6 19 -1 24 -21 5 -21 -6 0 -8
-3 -4 -7 3 -4 24 -6 46 -5 30 2 40 -1 40 -13 0 -8 9 -15 20 -15 22 0 27 -15 8
-23 -7 -3 1 -6 19 -6 l31 -1 1 -95 1 -95 -34 0 c-19 0 -37 -3 -39 -7 -3 -5 15
-6 39 -4 36 2 43 0 38 -12 -3 -8 -1 -18 4 -21 5 -3 9 2 8 11 0 10 9 20 24 24
l25 7 -27 1 c-27 1 -28 3 -28 60 0 38 4 61 13 64 10 4 10 6 0 6 -8 1 -13 14
-13 31 0 23 4 30 20 30 15 0 20 6 19 28 -2 23 -2 24 -6 5 -2 -13 -11 -23 -18
-23 -10 0 -14 15 -14 55 0 35 5 55 12 55 8 0 8 3 -1 8 -9 6 -12 34 -10 103 l3
94 148 3 147 3 0 -131 0 -130 -100 0 -100 0 0 25 c0 26 24 35 33 13 3 -8 6 -6
6 5 1 12 -7 17 -27 17 -26 0 -28 -3 -24 -30 3 -18 0 -30 -7 -30 -6 0 -11 8
-12 18 0 13 -2 14 -6 2 -3 -8 -11 -18 -17 -22 -7 -5 -5 -8 6 -8 9 0 19 -8 21
-17 4 -17 5 -17 6 0 1 12 10 17 31 17 l30 0 0 -60 0 -60 -38 0 -37 0 3 -43 c3
-35 7 -43 23 -42 27 2 36 15 11 15 -18 0 -22 6 -22 30 0 27 3 30 29 30 25 0
30 -5 34 -27 l4 -28 2 28 c1 27 1 27 76 27 l75 0 0 -60 0 -60 -77 -2 -78 -2
67 -3 c42 -3 71 -9 78 -18 7 -8 17 -15 23 -15 6 0 2 7 -9 15 -17 13 -3 15 141
14 l160 -1 3 541 2 541 -102 0 c-57 0 -112 1 -123 3 -11 1 -176 1 -366 0z
m121 -143 l0 -130 -70 0 -70 0 0 130 0 130 70 0 70 0 0 -130z m68 123 c-22 -5
-24 -33 -3 -33 8 0 15 -4 15 -10 0 -5 -16 -10 -35 -10 -32 0 -35 2 -35 30 0
28 2 30 38 29 20 -1 29 -3 20 -6z m52 -23 c0 -19 -5 -30 -14 -30 -8 0 -13 11
-12 30 1 40 26 40 26 0z m40 14 c0 -8 -7 -22 -15 -30 -13 -14 -15 -12 -15 15
0 21 5 31 15 31 8 0 15 -7 15 -16z m40 1 c0 -9 -6 -12 -15 -9 -8 4 -15 10 -15
15 0 5 7 9 15 9 8 0 15 -7 15 -15z m17 -7 c-3 -8 -6 -5 -6 6 -1 11 2 17 5 13
3 -3 4 -12 1 -19z m93 -43 l0 -65 -70 0 -70 0 0 39 c0 45 18 57 66 45 25 -6
26 -5 20 20 -6 24 -4 26 24 26 l30 0 0 -65z m150 0 l0 -65 -70 0 c-56 0 -70 3
-70 15 0 8 7 15 15 15 8 0 15 7 15 15 0 8 -7 15 -15 15 -10 0 -15 11 -15 35
l0 35 70 0 70 0 0 -65z m-380 -35 c0 -20 -5 -30 -15 -30 -8 0 -15 5 -15 10 0
14 -27 12 -33 -2 -3 -7 -6 2 -6 20 -1 30 1 32 34 32 32 0 35 -2 35 -30z m80 0
c0 -28 -3 -30 -35 -30 -32 0 -35 2 -35 30 0 28 3 30 35 30 32 0 35 -2 35 -30z
m-80 -100 l0 -60 -35 0 -35 0 0 60 0 60 35 0 35 0 0 -60z m120 56 c0 -2 -7 -6
-15 -10 -8 -3 -15 -1 -15 4 0 6 7 10 15 10 8 0 15 -2 15 -4z m110 -6 c0 -5 -6
-10 -14 -10 -7 0 -19 -7 -26 -15 -18 -22 -30 -18 -30 10 0 22 4 25 35 25 19 0
35 -4 35 -10z m73 3 c-7 -2 -13 -11 -13 -18 0 -7 6 -16 13 -18 6 -3 -5 -6 -25
-6 -34 -1 -38 2 -38 24 0 22 4 25 38 24 20 0 31 -3 25 -6z m77 -53 l0 -60 -30
0 -30 0 0 60 0 60 30 0 30 0 0 -60z m-342 22 c2 -7 -3 -12 -12 -12 -9 0 -16 7
-16 16 0 17 22 14 28 -4z m109 -8 c-3 -3 -12 -4 -19 -1 -8 3 -5 6 6 6 11 1 17
-2 13 -5z m-71 -36 c-3 -13 -6 -26 -6 -30 0 -5 -14 -8 -32 -8 l-31 0 21 19
c12 10 22 23 22 30 0 6 7 11 16 11 12 0 15 -6 10 -22z m33 -10 c0 -28 -2 -30
-9 -13 -12 28 -12 45 0 45 6 0 10 -15 9 -32z m41 -12 c0 -9 -7 -16 -15 -16
-10 0 -15 10 -15 31 0 27 2 29 15 15 8 -8 15 -22 15 -30z m35 34 c3 -5 -1 -10
-9 -10 -9 0 -16 5 -16 10 0 6 4 10 9 10 6 0 13 -4 16 -10z m125 -20 c0 -28 -3
-30 -35 -30 -24 0 -35 5 -35 15 0 9 9 15 25 15 16 0 25 6 25 15 0 8 5 15 10
15 6 0 10 -13 10 -30z m-80 -20 c0 -5 -7 -10 -15 -10 -8 0 -15 5 -15 10 0 6 7
10 15 10 8 0 15 -4 15 -10z m-635 -40 c7 0 16 6 18 13 3 6 6 2 6 -10 1 -18 -5
-23 -24 -23 -19 0 -25 5 -24 23 0 12 3 16 6 10 2 -7 11 -13 18 -13z m175 -40
c0 -47 -3 -60 -15 -60 -8 0 -15 7 -15 14 0 11 -15 16 -52 18 l-53 3 -3 43 -3
42 70 0 71 0 0 -60z m50 30 c0 -23 -4 -30 -20 -30 -23 0 -27 23 -7 45 19 22
27 18 27 -15z m38 3 c-4 -39 -28 -42 -28 -4 0 21 5 31 16 31 11 0 14 -8 12
-27z m62 -103 l0 -131 -67 3 -68 3 -3 94 -3 94 51 -6 50 -6 -6 39 c-6 38 -5
40 20 40 l26 0 0 -130z m67 113 c-1 -60 4 -73 23 -73 11 0 20 -4 20 -10 0 -5
7 -10 15 -10 8 0 15 5 15 10 0 6 5 10 10 10 6 0 10 -35 10 -85 l0 -85 -75 0
-75 0 0 130 0 130 28 0 c21 0 29 -5 29 -17z m87 1 c4 -9 4 -19 2 -22 -10 -9
-36 8 -36 23 0 20 26 19 34 -1z m76 -14 c0 -27 -3 -30 -30 -30 -16 0 -30 5
-30 10 0 6 7 10 16 10 11 0 15 6 11 20 -4 15 0 20 14 20 14 0 19 -7 19 -30z
m40 15 c0 -8 -7 -15 -15 -15 -8 0 -15 7 -15 15 0 8 7 15 15 15 8 0 15 -7 15
-15z m37 9 c-3 -3 -12 -4 -19 -1 -8 3 -5 6 6 6 11 1 17 -2 13 -5z m153 -124
l0 -130 -70 0 -70 0 0 85 0 85 30 0 c17 0 30 -4 30 -10 0 -5 7 -10 16 -10 12
0 15 6 10 23 -3 12 -6 29 -6 38 0 11 -12 18 -40 23 -65 10 -46 26 30 26 l70 0
0 -130z m-920 52 c0 -7 -4 -10 -10 -7 -5 3 -10 16 -10 28 0 18 2 19 10 7 5 -8
10 -21 10 -28z m770 28 c0 -5 -4 -10 -10 -10 -5 0 -10 5 -10 10 0 6 5 10 10
10 6 0 10 -4 10 -10z m80 0 c0 -5 -4 -10 -10 -10 -5 0 -10 5 -10 10 0 6 5 10
10 10 6 0 10 -4 10 -10z m-690 -16 c0 -10 -7 -14 -22 -12 -32 5 -35 28 -4 28
17 0 26 -5 26 -16z m400 1 c0 -8 -4 -15 -10 -15 -5 0 -10 7 -10 15 0 8 5 15
10 15 6 0 10 -7 10 -15z m60 0 c0 -8 -7 -15 -15 -15 -8 0 -15 7 -15 15 0 8 7
15 15 15 8 0 15 -7 15 -15z m188 -3 c2 -7 -3 -12 -12 -12 -9 0 -16 7 -16 16 0
17 22 14 28 -4z m-119 -29 c0 -16 -3 -22 -6 -15 -6 14 -33 16 -33 2 0 -5 -4
-10 -10 -10 -5 0 -10 11 -10 25 0 21 5 25 30 25 26 0 30 -3 29 -27z m81 2 c0
-14 -4 -25 -10 -25 -5 0 -10 11 -10 25 0 14 5 25 10 25 6 0 10 -11 10 -25z
m77 19 c-3 -3 -12 -4 -19 -1 -8 3 -5 6 6 6 11 1 17 -2 13 -5z m-847 -31 c0 -3
-7 -2 -16 1 -8 3 -13 2 -10 -3 3 -5 0 -14 -7 -20 -11 -8 -14 -7 -14 7 0 9 5
20 10 24 10 6 37 0 37 -9z m210 -3 c0 -5 -9 -10 -21 -10 -11 0 -17 5 -14 10 3
6 13 10 21 10 8 0 14 -4 14 -10z m-216 -24 c-3 -8 -1 -17 5 -21 6 -3 14 1 17
9 4 10 18 16 35 16 26 0 29 -3 29 -31 l0 -32 -50 5 c-28 3 -53 8 -56 11 -9 9
5 57 16 57 5 0 7 -6 4 -14z m120 -21 c-5 -18 -2 -25 9 -25 8 0 17 6 20 13 2 6
8 8 13 4 11 -11 -15 -27 -43 -27 -19 0 -23 6 -23 30 0 20 5 30 15 30 11 0 14
-7 9 -25z m196 -35 c0 -45 -4 -62 -15 -67 -21 -8 -26 -1 -28 39 -2 27 -6 33
-27 36 -56 6 -70 13 -70 32 0 18 7 20 70 20 l70 0 0 -60z m380 -5 l0 -65 -30
0 -30 0 0 65 0 65 30 0 30 0 0 -65z m80 50 c0 -8 -7 -15 -15 -15 -10 0 -15
-10 -15 -34 0 -44 -9 -66 -26 -66 -18 0 -19 95 -1 115 16 19 57 19 57 0z
m-887 -70 c-7 -21 -12 -19 -10 4 0 11 5 18 9 15 4 -3 5 -11 1 -19z m327 10 c0
-8 -9 -15 -20 -15 -22 0 -27 15 -7 23 21 9 27 7 27 -8z m32 -2 c6 -24 -1 -53
-13 -53 -5 0 -9 16 -9 35 0 36 15 48 22 18z m528 7 c0 -5 -4 -10 -10 -10 -5 0
-10 5 -10 10 0 6 5 10 10 10 6 0 10 -4 10 -10z m-690 -14 c0 -22 -11 -46 -21
-46 -5 0 -9 14 -9 30 0 20 5 30 15 30 8 0 15 -6 15 -14z m64 8 c17 -7 22 -54
6 -54 -5 0 -10 7 -10 15 0 8 -7 15 -15 15 -8 0 -15 -8 -15 -17 0 -15 -2 -16
-10 -3 -25 39 -2 62 44 44z m-234 -23 c0 -5 -13 -19 -29 -30 -26 -19 -29 -19
-27 -4 2 10 13 19 24 21 12 2 22 8 22 13 0 5 2 9 5 9 3 0 5 -4 5 -9z m860 -13
c0 -19 -2 -20 -10 -8 -13 19 -13 30 0 30 6 0 10 -10 10 -22z m-563 -10 c-3 -8
-6 -5 -6 6 -1 11 2 17 5 13 3 -3 4 -12 1 -19z m-47 -27 c0 -17 -12 -41 -21
-41 -5 0 -9 11 -9 25 0 16 6 25 15 25 8 0 15 -4 15 -9z m70 -51 c0 -60 0 -60
-30 -60 l-29 0 2 60 c1 59 2 60 29 60 28 0 28 -1 28 -60z m46 19 c-6 -38 -5
-41 14 -36 16 4 20 0 20 -19 0 -21 -5 -24 -35 -24 l-35 0 0 60 c0 55 2 60 21
60 20 0 21 -4 15 -41z m29 31 c3 -5 1 -10 -4 -10 -6 0 -11 5 -11 10 0 6 2 10
4 10 3 0 8 -4 11 -10z m615 -250 l0 -260 -145 0 -145 0 0 260 0 260 145 0 145
0 0 -260z m-610 214 c0 -8 -4 -12 -10 -9 -5 3 -10 10 -10 16 0 5 5 9 10 9 6 0
10 -7 10 -16z m-270 -24 c0 -5 -7 -10 -15 -10 -8 0 -15 5 -15 10 0 6 7 10 15
10 8 0 15 -4 15 -10z m31 -20 c5 0 9 -7 9 -15 0 -8 -7 -15 -15 -15 -10 0 -15
10 -14 33 1 17 3 24 6 15 2 -10 9 -18 14 -18z m82 23 c-15 -6 -17 -33 -3 -33
6 0 10 -4 10 -10 0 -5 -16 -10 -35 -10 -25 0 -35 4 -35 15 0 25 23 44 50 44
14 0 19 -3 13 -6z m-376 -67 c4 -5 3 -6 -3 -3 -7 4 -17 0 -24 -8 -10 -12 -9
-15 8 -15 16 0 20 -5 17 -22 -7 -34 -22 -43 -34 -20 -6 10 -7 22 -3 26 3 4 -1
4 -11 0 -18 -6 -23 10 -12 39 6 15 49 17 62 3z m-87 -11 c-9 -10 -9 -15 -1
-15 6 0 11 -8 11 -17 -1 -15 -4 -14 -21 7 -20 23 -20 25 -2 31 26 11 27 11 13
-6z m203 -6 c3 -12 0 -16 -9 -12 -8 3 -14 9 -14 15 0 5 -5 6 -12 2 -6 -4 -8
-3 -5 3 10 16 35 11 40 -8z m284 -1 c-3 -8 -6 -5 -6 6 -1 11 2 17 5 13 3 -3 4
-12 1 -19z m33 -10 c0 -5 -4 -8 -10 -8 -5 0 -10 10 -10 23 0 18 2 19 10 7 5
-8 10 -18 10 -22z m100 -33 c0 -55 -3 -65 -17 -66 -17 -1 -17 -2 0 -6 21 -6
24 -53 2 -53 -8 0 -15 9 -15 19 0 15 -5 18 -22 13 -16 -4 -20 -1 -16 9 3 8 2
23 -3 34 -6 17 -8 17 -8 3 -1 -13 -9 -18 -32 -18 -29 0 -30 2 -27 38 2 30 7
38 26 40 12 2 23 11 23 20 1 9 5 4 9 -13 8 -30 8 -30 9 8 1 35 2 37 36 37 l35
0 0 -65z m-376 17 c3 -5 -1 -9 -9 -9 -8 0 -15 4 -15 9 0 4 4 8 9 8 6 0 12 -4
15 -8z m-121 -49 c-4 -10 -9 -11 -19 -2 -18 15 -18 15 5 15 11 0 17 -5 14 -13z
m807 -103 l0 -60 -75 0 -75 0 0 60 0 60 75 0 75 0 0 -60z"/>
<path d="M2070 2015 c0 -8 7 -15 15 -15 8 0 15 7 15 15 0 8 -7 15 -15 15 -8 0
-15 -7 -15 -15z"/>
<path d="M2140 2035 c0 -8 7 -15 15 -15 8 0 15 7 15 15 0 8 -7 15 -15 15 -8 0
-15 -7 -15 -15z"/>
<path d="M1690 1820 c0 -11 7 -20 15 -20 8 0 15 9 15 20 0 11 -7 20 -15 20 -8
0 -15 -9 -15 -20z"/>
<path d="M2290 1825 c0 -8 7 -15 15 -15 8 0 15 7 15 15 0 8 -7 15 -15 15 -8 0
-15 -7 -15 -15z"/>
<path d="M1910 1500 c0 -5 5 -10 10 -10 6 0 10 5 10 10 0 6 -4 10 -10 10 -5 0
-10 -4 -10 -10z"/>
<path d="M723 2245 c0 -8 4 -12 9 -9 5 3 6 10 3 15 -9 13 -12 11 -12 -6z"/>
<path d="M750 2249 c0 -5 5 -7 10 -4 6 3 10 8 10 11 0 2 -4 4 -10 4 -5 0 -10
-5 -10 -11z"/>
<path d="M1403 2254 c9 -10 87 -11 87 -1 0 4 -21 7 -47 7 -25 0 -43 -3 -40 -6z"/>
<path d="M136 2233 c-6 -14 -5 -15 5 -6 7 7 10 15 7 18 -3 3 -9 -2 -12 -12z"/>
<path d="M214 2233 c10 -11 37 -12 30 -2 -3 5 -12 9 -21 9 -9 0 -13 -3 -9 -7z"/>
<path d="M1345 2230 c3 -5 11 -10 16 -10 6 0 7 5 4 10 -3 6 -11 10 -16 10 -6
0 -7 -4 -4 -10z"/>
<path d="M1643 2193 c-10 -34 -10 -36 3 -19 12 17 20 56 11 56 -1 0 -7 -17
-14 -37z"/>
<path d="M695 2210 c-3 -6 1 -7 9 -4 18 7 21 14 7 14 -6 0 -13 -4 -16 -10z"/>
<path d="M1347 2184 c7 -3 9 -13 6 -22 -4 -14 -3 -14 5 -2 12 16 7 30 -11 29
-9 0 -9 -2 0 -5z"/>
<path d="M756 2157 c3 -10 9 -15 12 -12 3 3 0 11 -7 18 -10 9 -11 8 -5 -6z"/>
<path d="M1649 2153 c0 -5 -2 -16 -4 -25 -2 -10 0 -18 5 -18 4 0 8 11 8 25 0
22 -7 36 -9 18z"/>
<path d="M1345 2130 c-3 -6 1 -7 9 -4 18 7 21 14 7 14 -6 0 -13 -4 -16 -10z"/>
<path d="M112 2100 c0 -14 2 -19 5 -12 2 6 2 18 0 25 -3 6 -5 1 -5 -13z"/>
<path d="M1354 2072 c3 -5 1 -12 -6 -14 -14 -5 -1 -28 15 -27 8 0 8 2 -1 6 -9
4 -10 8 -2 18 8 10 8 15 -1 21 -7 4 -9 3 -5 -4z"/>
<path d="M425 2010 c-3 -5 -2 -10 4 -10 5 0 13 5 16 10 3 6 2 10 -4 10 -5 0
-13 -4 -16 -10z"/>
<path d="M746 1995 c-3 -8 -1 -15 3 -15 5 0 11 7 15 15 3 8 1 15 -3 15 -5 0
-11 -7 -15 -15z"/>
<path d="M1354 1988 c-3 -4 -4 -8 -2 -9 27 -6 38 -5 38 5 0 14 -28 17 -36 4z"/>
<path d="M1472 1990 c5 -17 34 -21 62 -10 18 7 17 8 -10 8 -17 -1 -37 3 -44 7
-8 5 -11 3 -8 -5z"/>
<path d="M223 1971 c0 -11 5 -18 9 -15 4 3 5 11 1 19 -7 21 -12 19 -10 -4z"/>
<path d="M290 1975 c0 -9 6 -12 17 -8 12 5 14 3 8 -8 -7 -12 -5 -12 6 -1 12
11 12 14 -1 22 -21 14 -30 12 -30 -5z"/>
<path d="M668 1983 c6 -2 18 -2 25 0 6 3 1 5 -13 5 -14 0 -19 -2 -12 -5z"/>
<path d="M1413 1983 c9 -2 25 -2 35 0 9 3 1 5 -18 5 -19 0 -27 -2 -17 -5z"/>
<path d="M1397 1963 c-12 -11 -8 -23 8 -23 8 0 15 7 15 15 0 16 -12 20 -23 8z"/>
<path d="M1510 1938 c0 -10 2 -18 5 -18 2 0 9 8 14 18 8 14 6 19 -5 19 -7 0
-14 -9 -14 -19z"/>
<path d="M115 1940 c3 -5 8 -10 11 -10 2 0 4 5 4 10 0 6 -5 10 -11 10 -5 0 -7
-4 -4 -10z"/>
<path d="M1544 1939 c-10 -17 10 -29 23 -14 10 10 9 14 -2 19 -8 3 -17 0 -21
-5z"/>
<path d="M405 1929 c-4 -5 -4 -13 -1 -16 3 -4 6 0 6 8 0 11 2 11 10 -1 6 -9
10 -10 10 -3 0 17 -17 25 -25 12z"/>
<path d="M1343 1919 c-1 -10 3 -19 8 -19 6 0 8 4 5 9 -4 5 -1 11 6 13 8 3 7 6
-3 10 -10 4 -15 -1 -16 -13z"/>
<path d="M155 1889 c-4 -6 -5 -12 -2 -15 2 -3 7 2 10 11 7 17 1 20 -8 4z"/>
<path d="M471 1884 c0 -11 3 -14 6 -6 3 7 2 16 -1 19 -3 4 -6 -2 -5 -13z"/>
<path d="M490 1873 c0 -12 5 -25 10 -28 13 -8 13 15 0 35 -8 12 -10 11 -10 -7z"/>
<path d="M520 1879 c0 -5 5 -7 10 -4 6 3 10 8 10 11 0 2 -4 4 -10 4 -5 0 -10
-5 -10 -11z"/>
<path d="M295 1871 c-3 -5 -2 -12 3 -15 5 -3 9 1 9 9 0 17 -3 19 -12 6z"/>
<path d="M1497 1861 c4 -17 9 -18 34 -9 36 12 38 21 4 12 -15 -4 -25 -2 -25 5
0 6 -4 11 -9 11 -5 0 -7 -9 -4 -19z"/>
<path d="M399 1853 c-13 -16 -12 -17 4 -4 9 7 17 15 17 17 0 8 -8 3 -21 -13z"/>
<path d="M440 1866 c0 -2 7 -7 16 -10 8 -3 12 -2 9 4 -6 10 -25 14 -25 6z"/>
<path d="M560 1860 c-9 -6 -10 -10 -3 -10 6 0 15 5 18 10 8 12 4 12 -15 0z"/>
<path d="M1345 1860 c-3 -5 1 -22 9 -37 l14 -28 -1 27 c-1 14 -6 24 -11 20 -5
-3 -7 2 -3 11 7 18 2 23 -8 7z"/>
<path d="M1381 1859 c-1 -12 7 -16 24 -15 14 0 25 5 25 10 0 4 -9 6 -20 3 -10
-3 -21 0 -24 7 -2 6 -5 4 -5 -5z"/>
<path d="M1440 1850 c0 -5 5 -10 11 -10 5 0 7 5 4 10 -3 6 -8 10 -11 10 -2 0
-4 -4 -4 -10z"/>
<path d="M360 1831 c0 -6 4 -13 10 -16 6 -3 7 1 4 9 -7 18 -14 21 -14 7z"/>
<path d="M525 1831 c-3 -5 -2 -12 3 -15 5 -3 9 1 9 9 0 17 -3 19 -12 6z"/>
<path d="M485 1820 c-16 -7 -17 -9 -3 -9 9 -1 20 4 23 9 7 11 7 11 -20 0z"/>
<path d="M1427 1823 c-4 -3 -7 -11 -7 -17 0 -6 5 -5 12 2 6 6 9 14 7 17 -3 3
-9 2 -12 -2z"/>
<path d="M292 1804 c10 -10 20 -16 22 -13 3 3 -5 11 -17 18 -21 13 -21 12 -5
-5z"/>
<path d="M378 1788 c-7 -17 15 -19 29 -3 4 4 3 5 -4 2 -6 -4 -13 -2 -15 5 -3
8 -6 6 -10 -4z"/>
<path d="M448 1777 c-3 -19 -2 -25 4 -19 6 6 8 18 6 28 -3 14 -5 12 -10 -9z"/>
<path d="M740 1780 c0 -5 4 -10 9 -10 6 0 13 5 16 10 3 6 -1 10 -9 10 -9 0
-16 -4 -16 -10z"/>
<path d="M1358 1764 c3 -17 1 -25 -5 -21 -20 12 -21 -31 -2 -49 18 -16 19 -16
19 0 0 10 -5 14 -12 10 -7 -4 -8 -3 -4 5 4 6 12 9 17 6 5 -4 12 1 15 10 5 12
9 13 20 4 11 -9 14 -7 14 11 0 18 -4 21 -25 18 -13 -3 -22 -2 -20 2 3 4 -1 13
-9 19 -11 9 -12 6 -8 -15z"/>
<path d="M275 1770 c-3 -5 -1 -10 4 -10 6 0 11 5 11 10 0 6 -2 10 -4 10 -3 0
-8 -4 -11 -10z"/>
<path d="M515 1770 c-3 -5 1 -10 10 -10 9 0 13 5 10 10 -3 6 -8 10 -10 10 -2
0 -7 -4 -10 -10z"/>
<path d="M560 1770 c-9 -6 -10 -10 -3 -10 6 0 15 5 18 10 8 12 4 12 -15 0z"/>
<path d="M487 1753 c-10 -9 -9 -23 1 -23 5 0 9 7 9 15 0 17 -1 18 -10 8z"/>
<path d="M270 1746 c0 -2 8 -10 18 -17 15 -13 16 -12 3 4 -13 16 -21 21 -21
13z"/>
<path d="M350 1735 c-8 -10 -8 -15 0 -20 6 -4 14 -4 17 -1 4 3 0 6 -8 7 -8 1
-3 4 11 8 20 6 22 8 8 13 -9 4 -22 1 -28 -7z"/>
<path d="M633 1736 c-13 -7 -20 -16 -16 -19 3 -4 11 -3 17 2 6 5 15 9 21 9 5
0 11 5 13 11 5 14 -7 13 -35 -3z"/>
<path d="M153 1721 c0 -11 5 -18 9 -15 4 3 5 11 1 19 -7 21 -12 19 -10 -4z"/>
<path d="M753 1727 c-27 -12 -29 -22 -7 -31 8 -3 13 -2 10 3 -3 5 0 14 8 20
11 9 15 9 18 0 2 -7 11 -10 18 -7 12 4 10 7 -5 15 -14 7 -27 7 -42 0z"/>
<path d="M875 1730 c3 -5 8 -10 11 -10 2 0 4 5 4 10 0 6 -5 10 -11 10 -5 0 -7
-4 -4 -10z"/>
<path d="M1246 1725 c-3 -8 -1 -15 4 -15 6 0 10 7 10 15 0 8 -2 15 -4 15 -2 0
-6 -7 -10 -15z"/>
<path d="M1426 1725 c-3 -9 -13 -12 -23 -9 -12 4 -11 1 4 -8 17 -10 20 -17 11
-31 -9 -18 -9 -18 15 -2 26 16 42 43 32 53 -3 3 -5 0 -5 -6 0 -7 -5 -12 -11
-12 -5 0 -8 4 -4 9 3 5 1 12 -4 15 -5 3 -11 -1 -15 -9z"/>
<path d="M930 1720 c20 -13 33 -13 25 0 -3 6 -14 10 -23 10 -15 0 -15 -2 -2
-10z"/>
<path d="M1074 1703 c-2 -27 -1 -27 14 3 8 15 8 21 -1 21 -7 0 -13 -11 -13
-24z"/>
<path d="M1126 1718 c3 -4 12 -8 20 -8 8 0 14 4 14 8 0 4 -9 8 -19 8 -11 0
-17 -4 -15 -8z"/>
<path d="M1198 1723 c7 -3 16 -2 19 1 4 3 -2 6 -13 5 -11 0 -14 -3 -6 -6z"/>
<path d="M458 1713 c7 -3 16 -2 19 1 4 3 -2 6 -13 5 -11 0 -14 -3 -6 -6z"/>
<path d="M826 1704 c-3 -7 2 -10 15 -7 22 6 26 20 4 20 -8 0 -16 -6 -19 -13z"/>
<path d="M996 1711 c-4 -5 3 -7 14 -4 23 6 26 13 6 13 -8 0 -17 -4 -20 -9z"/>
<path d="M195 1690 c-3 -6 1 -7 9 -4 18 7 21 14 7 14 -6 0 -13 -4 -16 -10z"/>
<path d="M585 1690 c-4 -6 1 -7 11 -3 13 5 15 3 9 -7 -5 -9 -4 -11 4 -6 6 4 9
12 6 17 -8 12 -22 12 -30 -1z"/>
<path d="M999 1683 c-13 -16 -12 -17 4 -4 9 7 17 15 17 17 0 8 -8 3 -21 -13z"/>
<path d="M500 1683 c8 -3 20 -10 26 -14 6 -5 11 -4 11 4 0 7 -12 13 -26 14
-14 1 -19 -1 -11 -4z"/>
<path d="M1262 1683 c-6 -2 -9 -9 -6 -15 4 -6 9 -6 14 2 12 19 41 4 33 -17 -4
-9 -8 -12 -10 -6 -5 14 -33 6 -33 -9 0 -6 6 -8 14 -5 8 3 17 1 20 -6 3 -9 5
-9 5 0 1 7 8 10 19 7 13 -4 14 -3 4 4 -11 7 -9 10 7 15 12 3 21 11 21 17 0 7
-8 10 -20 7 -11 -3 -23 -1 -26 4 -6 10 -21 11 -42 2z"/>
<path d="M625 1643 c-8 -20 -13 -38 -10 -41 3 -3 5 -3 5 0 0 3 7 22 15 42 8
20 13 36 10 36 -2 0 -12 -16 -20 -37z"/>
<path d="M705 1670 c-4 -6 -11 -7 -17 -4 -7 4 -8 2 -4 -5 6 -9 11 -9 22 0 14
11 18 19 10 19 -3 0 -8 -5 -11 -10z"/>
<path d="M587 1659 c7 -7 15 -10 18 -7 3 3 -2 9 -12 12 -14 6 -15 5 -6 -5z"/>
<path d="M771 1661 c-12 -8 -12 -12 -2 -25 14 -17 41 -22 41 -7 0 5 -7 12 -16
15 -8 3 -12 10 -9 16 8 12 4 12 -14 1z"/>
<path d="M1430 1654 c0 -8 5 -12 10 -9 6 3 10 10 10 16 0 5 -4 9 -10 9 -5 0
-10 -7 -10 -16z"/>
<path d="M460 1645 c0 -10 29 -24 34 -17 3 6 -3 12 -14 15 -11 3 -20 4 -20 2z"/>
<path d="M510 1631 c0 -6 4 -13 10 -16 6 -3 7 1 4 9 -7 18 -14 21 -14 7z"/>
<path d="M530 1636 c0 -2 7 -7 16 -10 8 -3 12 -2 9 4 -6 10 -25 14 -25 6z"/>
<path d="M720 1630 c0 -5 5 -10 11 -10 5 0 7 5 4 10 -3 6 -8 10 -11 10 -2 0
-4 -4 -4 -10z"/>
<path d="M674 1611 c1 -8 9 -15 19 -17 9 -1 15 2 11 7 -3 5 -9 7 -14 4 -5 -3
-10 0 -13 7 -3 9 -4 8 -3 -1z"/>
<path d="M900 1616 c0 -2 7 -9 15 -16 9 -7 15 -8 15 -2 0 5 -7 12 -15 16 -8 3
-15 4 -15 2z"/>
<path d="M950 1600 c0 -11 4 -20 9 -20 5 0 7 9 4 20 -3 11 -7 20 -9 20 -2 0
-4 -9 -4 -20z"/>
<path d="M450 1605 c0 -2 6 -8 13 -14 10 -8 14 -7 14 2 0 8 -6 14 -14 14 -7 0
-13 -1 -13 -2z"/>
<path d="M497 1596 c-3 -8 1 -20 9 -26 17 -15 74 -21 74 -9 0 5 -10 7 -22 5
-29 -4 -58 13 -51 31 3 7 3 13 0 13 -3 0 -7 -6 -10 -14z"/>
<path d="M983 1595 c0 -8 7 -15 15 -15 12 0 12 3 2 15 -7 8 -13 15 -15 15 -1
0 -2 -7 -2 -15z"/>
<path d="M1089 1593 c-13 -16 -12 -17 4 -4 9 7 17 15 17 17 0 8 -8 3 -21 -13z"/>
<path d="M743 1585 c0 -8 4 -13 8 -12 4 1 6 -2 6 -8 -1 -5 -6 -9 -10 -7 -5 1
-6 -2 -2 -8 5 -8 11 -7 21 1 18 15 18 22 -4 36 -15 9 -19 8 -19 -2z"/>
<path d="M846 1589 c5 -8 -1 -10 -18 -6 -18 5 -28 2 -32 -8 -3 -8 -1 -15 4
-15 6 0 10 5 10 10 0 7 6 7 19 0 26 -13 27 -13 28 10 1 11 -3 20 -8 20 -6 0
-7 -5 -3 -11z"/>
<path d="M570 1585 c0 -7 30 -13 34 -7 3 4 -4 9 -15 9 -10 1 -19 0 -19 -2z"/>
<path d="M907 1570 c3 -11 9 -17 15 -14 5 3 4 12 -3 20 -16 19 -18 18 -12 -6z"/>
<path d="M660 1561 c0 -7 -4 -10 -8 -7 -5 3 -9 -1 -9 -9 0 -8 4 -15 9 -15 11
0 22 29 14 37 -3 4 -6 1 -6 -6z"/>
<path d="M970 1563 c8 -3 20 -10 27 -15 7 -6 14 -5 19 3 4 7 3 9 -4 5 -6 -3
-13 -2 -17 4 -3 5 -14 10 -23 9 -14 0 -14 -2 -2 -6z"/>
<path d="M1050 1566 c0 -2 7 -7 16 -10 8 -3 12 -2 9 4 -6 10 -25 14 -25 6z"/>
<path d="M462 1540 c-9 -14 -9 -21 0 -26 6 -4 8 -3 4 4 -3 6 1 15 10 20 9 5
12 12 7 15 -5 3 -14 -3 -21 -13z"/>
<path d="M672 1536 c-17 -37 -15 -45 4 -18 8 12 14 27 12 33 -2 6 -9 -1 -16
-15z"/>
<path d="M1047 1530 c-3 -11 -1 -20 4 -20 5 0 9 5 9 12 0 7 7 5 18 -5 16 -15
18 -15 18 3 0 10 -4 16 -9 13 -4 -2 -14 0 -21 6 -10 9 -15 7 -19 -9z"/>
<path d="M766 1531 c-4 -5 -3 -17 1 -27 5 -13 3 -15 -8 -9 -10 7 -9 1 4 -18
11 -18 13 -27 6 -27 -7 0 -10 -3 -6 -6 10 -10 28 7 20 19 -11 17 -12 68 -2 61
5 -3 9 0 9 5 0 13 -17 14 -24 2z"/>
<path d="M563 1511 c-1 -14 3 -18 13 -14 11 4 12 9 3 19 -15 18 -14 18 -16 -5z"/>
<path d="M807 1524 c-11 -11 3 -24 18 -18 8 4 12 10 9 15 -6 11 -18 12 -27 3z"/>
<path d="M978 1513 c7 -3 16 -2 19 1 4 3 -2 6 -13 5 -11 0 -14 -3 -6 -6z"/>
<path d="M1115 1510 c-3 -5 -1 -10 4 -10 6 0 11 5 11 10 0 6 -2 10 -4 10 -3 0
-8 -4 -11 -10z"/>
<path d="M1680 1505 c0 -8 7 -15 15 -15 8 0 15 7 15 15 0 8 -7 15 -15 15 -8 0
-15 -7 -15 -15z"/>
<path d="M595 1494 c-19 -14 -19 -14 5 -11 13 2 26 9 28 15 5 16 -9 14 -33 -4z"/>
<path d="M1190 1501 c0 -6 4 -12 8 -15 5 -3 9 1 9 9 0 8 -4 15 -9 15 -4 0 -8
-4 -8 -9z"/>
<path d="M850 1489 c0 -5 5 -7 10 -4 6 3 10 8 10 11 0 2 -4 4 -10 4 -5 0 -10
-5 -10 -11z"/>
<path d="M921 1484 c0 -11 3 -14 6 -6 3 7 2 16 -1 19 -3 4 -6 -2 -5 -13z"/>
<path d="M953 1478 c7 -20 -8 -27 -49 -21 -17 3 -34 1 -37 -4 -3 -5 12 -9 36
-8 23 1 48 -3 55 -8 10 -8 12 -4 8 18 -3 15 -8 30 -12 34 -4 3 -4 -2 -1 -11z"/>
<path d="M1000 1481 c0 -6 4 -13 10 -16 6 -3 7 1 4 9 -7 18 -14 21 -14 7z"/>
<path d="M1991 1474 c0 -11 3 -14 6 -6 3 7 2 16 -1 19 -3 4 -6 -2 -5 -13z"/>
<path d="M534 1458 c-4 -7 -4 -10 1 -6 4 4 15 2 24 -5 14 -11 14 -10 2 6 -16
20 -18 21 -27 5z"/>
<path d="M610 1459 c0 -5 4 -8 8 -5 5 3 21 -7 36 -21 15 -14 30 -22 33 -19 4
3 2 6 -2 6 -5 0 0 7 11 15 17 13 17 14 2 15 -10 0 -18 -4 -18 -10 0 -5 -7 -7
-16 -3 -13 5 -13 8 -2 15 10 8 9 9 -4 4 -10 -3 -20 -1 -23 4 -8 13 -25 13 -25
-1z"/>
<path d="M725 1461 c-3 -5 -2 -12 3 -15 5 -3 9 1 9 9 0 17 -3 19 -12 6z"/>
<path d="M1152 1447 c2 -25 3 -25 20 -10 10 9 18 18 18 21 0 3 -3 2 -7 -1 -3
-4 -12 -2 -20 4 -10 9 -13 6 -11 -14z"/>
<path d="M1215 1460 c-3 -6 1 -13 9 -16 9 -3 16 -10 16 -16 0 -5 -6 -6 -12 -2
-10 5 -10 4 0 -7 10 -11 15 -10 30 5 9 9 13 16 7 15 -17 -4 -45 12 -39 22 3 5
3 9 0 9 -3 0 -8 -5 -11 -10z"/>
<path d="M440 1438 c0 -19 2 -20 10 -8 13 19 13 30 0 30 -5 0 -10 -10 -10 -22z"/>
<path d="M1598 1452 c-16 -2 -28 -7 -28 -11 0 -5 12 -6 26 -3 19 3 25 1 20 -7
-4 -6 -12 -9 -17 -6 -5 4 -9 2 -9 -4 0 -15 23 -26 28 -13 2 7 8 10 13 6 9 -5
7 32 -2 38 -2 2 -16 2 -31 0z"/>
<path d="M1030 1440 c-8 -5 -10 -10 -5 -10 6 0 17 5 25 10 8 5 11 10 5 10 -5
0 -17 -5 -25 -10z"/>
<path d="M1075 1439 c-11 -16 -1 -19 13 -3 7 8 8 14 3 14 -5 0 -13 -5 -16 -11z"/>
<path d="M1120 1440 c-9 -6 -10 -10 -3 -10 6 0 15 5 18 10 8 12 4 12 -15 0z"/>
<path d="M813 1416 c-3 -5 -1 -6 5 -2 5 3 13 0 15 -6 4 -10 6 -9 6 1 1 11 4
11 16 1 13 -11 14 -10 9 3 -6 17 -42 19 -51 3z"/>
<path d="M900 1420 c0 -5 5 -10 11 -10 5 0 7 5 4 10 -3 6 -8 10 -11 10 -2 0
-4 -4 -4 -10z"/>
<path d="M712 1406 c7 -8 16 -12 21 -9 11 7 -2 23 -19 23 -12 0 -12 -2 -2 -14z"/>
<path d="M1010 1399 c-7 -11 -9 -23 -7 -26 3 -2 8 5 12 17 6 18 9 19 23 8 15
-12 16 -11 3 5 -17 22 -18 21 -31 -4z"/>
<path d="M1200 1406 c0 -2 7 -7 16 -10 8 -3 12 -2 9 4 -6 10 -25 14 -25 6z"/>
<path d="M1505 1400 c3 -5 8 -10 11 -10 2 0 4 5 4 10 0 6 -5 10 -11 10 -5 0
-7 -4 -4 -10z"/>
<path d="M766 1384 c-3 -9 -10 -12 -16 -9 -16 10 -11 -1 7 -16 9 -8 14 -9 10
-3 -3 6 4 16 18 22 15 7 26 8 30 2 4 -6 11 -10 16 -10 6 0 4 6 -3 13 -18 18
-55 18 -62 1z"/>
<path d="M902 1388 c-11 -13 -9 -14 57 -21 17 -1 25 4 27 18 3 19 2 19 -10 3
-14 -19 -32 -25 -21 -8 4 6 -1 7 -10 3 -10 -3 -20 -1 -24 6 -6 9 -10 9 -19 -1z"/>
<path d="M1060 1391 c0 -6 4 -13 10 -16 6 -3 7 1 4 9 -7 18 -14 21 -14 7z"/>
<path d="M1810 1385 c0 -7 11 -10 30 -7 17 2 30 5 30 7 0 2 -13 5 -30 7 -19 3
-30 0 -30 -7z"/>
<path d="M690 1360 c-6 -11 -8 -20 -6 -20 3 0 10 9 16 20 6 11 8 20 6 20 -3 0
-10 -9 -16 -20z"/>
<path d="M1881 1353 c-1 -29 -4 -33 -30 -33 -16 0 -32 6 -34 13 -3 7 -6 5 -6
-5 -1 -14 7 -18 34 -18 32 0 35 -2 35 -30 0 -26 -3 -30 -29 -30 -20 0 -31 6
-34 18 -3 9 -5 -5 -4 -33 0 -27 2 -38 4 -22 4 22 9 27 34 27 28 0 36 -16 14
-32 -6 -5 -3 -8 7 -8 13 0 17 12 20 58 1 31 0 73 -3 92 l-6 35 -2 -32z"/>
<path d="M2041 1364 c0 -11 3 -14 6 -6 3 7 2 16 -1 19 -3 4 -6 -2 -5 -13z"/>
<path d="M1210 1357 c10 -14 10 -21 2 -29 -8 -8 -12 -8 -12 -2 0 6 -6 11 -14
11 -15 0 -16 -21 -1 -34 4 -4 5 -2 0 6 -6 10 -2 12 14 6 29 -9 40 21 15 43
-17 16 -17 16 -4 -1z"/>
<path d="M463 1345 c0 -8 4 -12 9 -9 5 3 6 10 3 15 -9 13 -12 11 -12 -6z"/>
<path d="M1360 1349 c0 -5 -5 -7 -12 -3 -7 4 -8 3 -4 -5 4 -6 -1 -19 -11 -29
-11 -9 -14 -14 -7 -10 6 5 25 6 42 4 35 -4 40 5 17 24 -8 7 -12 16 -9 21 3 5
0 9 -5 9 -6 0 -11 -5 -11 -11z"/>
<path d="M1830 1350 c0 -5 7 -7 15 -4 8 4 15 8 15 10 0 2 -7 4 -15 4 -8 0 -15
-4 -15 -10z"/>
<path d="M655 1340 c-3 -5 -1 -10 4 -10 6 0 11 5 11 10 0 6 -2 10 -4 10 -3 0
-8 -4 -11 -10z"/>
<path d="M1130 1346 c0 -2 8 -10 18 -17 15 -13 16 -12 3 4 -13 16 -21 21 -21
13z"/>
<path d="M745 1326 c-17 -12 -17 -13 3 -11 26 2 37 11 24 19 -5 3 -17 -1 -27
-8z"/>
<path d="M914 1316 c0 -14 4 -22 8 -20 5 3 6 10 3 15 -4 5 -1 9 4 9 6 0 11 5
11 10 0 6 -6 10 -13 10 -7 0 -13 -11 -13 -24z"/>
<path d="M983 1319 c-1 -10 2 -19 8 -19 11 0 12 27 1 34 -4 2 -9 -4 -9 -15z"/>
<path d="M1649 1338 c-5 -15 -4 -50 1 -53 3 -2 6 9 6 26 0 24 -3 37 -7 27z"/>
<path d="M626 1322 c-3 -5 1 -9 9 -9 8 0 12 4 9 9 -3 4 -7 8 -9 8 -2 0 -6 -4
-9 -8z"/>
<path d="M1245 1320 c3 -5 8 -10 11 -10 2 0 4 5 4 10 0 6 -5 10 -11 10 -5 0
-7 -4 -4 -10z"/>
<path d="M1286 1318 c3 -5 10 -6 15 -3 13 9 11 12 -6 12 -8 0 -12 -4 -9 -9z"/>
<path d="M1485 1320 c-19 -8 -19 -9 2 -9 12 -1 25 4 28 9 7 12 -2 12 -30 0z"/>
<path d="M854 1308 c-3 -5 -3 -12 0 -15 3 -4 6 -1 6 5 0 6 10 9 21 7 12 -3 19
-1 15 2 -11 11 -35 12 -42 1z"/>
<path d="M640 1290 c-9 -6 -10 -10 -3 -10 6 0 15 5 18 10 8 12 4 12 -15 0z"/>
<path d="M736 1287 c3 -10 9 -15 12 -12 3 3 0 11 -7 18 -10 9 -11 8 -5 -6z"/>
<path d="M1345 1279 c13 -43 23 -56 22 -27 -1 14 -8 31 -16 38 -11 11 -12 9
-6 -11z"/>
<path d="M128 1283 c7 -3 16 -2 19 1 4 3 -2 6 -13 5 -11 0 -14 -3 -6 -6z"/>
<path d="M1020 1286 c0 -2 8 -10 18 -17 15 -13 16 -12 3 4 -13 16 -21 21 -21
13z"/>
<path d="M2171 1268 c1 -17 2 -19 6 -5 7 27 26 20 21 -8 -4 -21 -1 -25 18 -25
19 0 24 5 23 23 -1 16 -2 18 -6 5 -7 -28 -26 -21 -21 7 4 21 1 25 -18 25 -19
0 -24 -5 -23 -22z"/>
<path d="M710 1271 c0 -5 7 -14 15 -21 10 -9 15 -9 15 -1 0 6 -5 11 -11 11 -5
0 -7 5 -4 10 3 6 1 10 -4 10 -6 0 -11 -4 -11 -9z"/>
<path d="M910 1271 c0 -6 4 -13 10 -16 6 -3 7 1 4 9 -7 18 -14 21 -14 7z"/>
<path d="M1166 1271 c-3 -5 2 -15 12 -22 15 -12 16 -12 5 2 -7 9 -10 19 -6 22
3 4 4 7 0 7 -3 0 -8 -4 -11 -9z"/>
<path d="M1503 1255 c0 -14 4 -28 8 -31 5 -3 8 8 7 25 -3 37 -15 42 -15 6z"/>
<path d="M1049 1243 c-13 -16 -12 -17 4 -4 9 7 17 15 17 17 0 8 -8 3 -21 -13z"/>
<path d="M1480 1245 c0 -8 2 -15 4 -15 2 0 6 7 10 15 3 8 1 15 -4 15 -6 0 -10
-7 -10 -15z"/>
<path d="M166 1221 c-4 -5 -2 -12 3 -15 5 -4 12 -2 15 3 4 5 2 12 -3 15 -5 4
-12 2 -15 -3z"/>
<path d="M359 1213 c-13 -16 -12 -17 4 -4 9 7 17 15 17 17 0 8 -8 3 -21 -13z"/>
<path d="M440 1221 c0 -6 5 -11 11 -11 5 0 7 -6 3 -12 -5 -9 -2 -9 9 1 9 7 17
16 17 19 0 3 -3 2 -7 -1 -3 -4 -12 -2 -20 4 -9 9 -13 8 -13 0z"/>
<path d="M1640 1221 c0 -6 5 -13 10 -16 6 -3 10 1 10 9 0 9 -4 16 -10 16 -5 0
-10 -4 -10 -9z"/>
<path d="M2105 1220 c-3 -5 -1 -10 4 -10 6 0 11 5 11 10 0 6 -2 10 -4 10 -3 0
-8 -4 -11 -10z"/>
<path d="M721 1203 c7 -10 15 -20 16 -22 2 -2 3 3 3 11 0 9 -7 19 -16 22 -15
6 -15 4 -3 -11z"/>
<path d="M907 1213 c-4 -6 1 -14 10 -17 20 -8 40 9 22 19 -8 5 -10 4 -5 -3 4
-7 3 -12 -3 -12 -5 0 -11 5 -13 12 -3 8 -6 9 -11 1z"/>
<path d="M1010 1211 c0 -10 19 -25 25 -20 1 2 -3 10 -11 17 -8 7 -14 8 -14 3z"/>
<path d="M1240 1216 c0 -2 7 -7 16 -10 8 -3 12 -2 9 4 -6 10 -25 14 -25 6z"/>
<path d="M1331 1207 c-6 -8 -8 -17 -4 -20 3 -4 12 1 20 11 8 9 12 12 9 6 -3
-7 1 -15 10 -18 24 -9 25 -8 12 14 -15 23 -31 26 -47 7z"/>
<path d="M1491 1203 c-1 -16 5 -23 17 -23 10 0 13 3 6 8 -6 4 -14 14 -17 22
-4 10 -6 8 -6 -7z"/>
<path d="M231 1194 c0 -11 3 -14 6 -6 3 7 2 16 -1 19 -3 4 -6 -2 -5 -13z"/>
<path d="M986 1193 c-6 -14 -5 -15 5 -6 7 7 10 15 7 18 -3 3 -9 -2 -12 -12z"/>
<path d="M1095 1200 c-7 -11 22 -26 32 -16 4 3 -1 6 -11 6 -9 0 -14 5 -11 10
3 6 4 10 1 10 -3 0 -8 -5 -11 -10z"/>
<path d="M780 1196 c0 -2 7 -9 15 -16 13 -11 14 -10 9 4 -5 14 -24 23 -24 12z"/>
<path d="M1406 1189 c7 -12 74 -16 74 -4 0 5 -18 10 -39 10 -22 0 -37 -3 -35
-6z"/>
<path d="M2046 1188 c3 -4 12 -8 21 -8 13 0 13 -3 2 -16 -7 -8 -21 -13 -31
-11 -10 3 -18 2 -18 -3 0 -4 9 -10 20 -13 11 -3 20 0 20 5 0 6 6 5 15 -2 9 -8
15 -8 15 -2 0 6 -6 13 -12 15 -8 3 -5 6 5 6 26 1 6 34 -21 36 -12 1 -19 -2
-16 -7z"/>
<path d="M98 1183 c7 -3 16 -2 19 1 4 3 -2 6 -13 5 -11 0 -14 -3 -6 -6z"/>
<path d="M1285 1181 c-3 -5 0 -13 6 -17 7 -4 9 -3 5 4 -3 5 0 13 6 15 9 4 10
6 1 6 -6 1 -14 -3 -18 -8z"/>
<path d="M1560 1183 c19 -3 39 -10 43 -16 6 -8 7 -7 4 3 -2 10 -17 15 -43 16
-37 1 -38 1 -4 -3z"/>
<path d="M1633 1183 c10 -3 14 -9 10 -16 -5 -9 -3 -9 8 0 8 7 46 14 84 16 58
2 54 3 -25 4 -52 0 -87 -1 -77 -4z"/>
<path d="M1838 1183 c7 -3 16 -2 19 1 4 3 -2 6 -13 5 -11 0 -14 -3 -6 -6z"/>
<path d="M350 1171 c0 -6 4 -13 10 -16 6 -3 7 1 4 9 -7 18 -14 21 -14 7z"/>
<path d="M886 1165 c4 -8 8 -15 10 -15 2 0 4 7 4 15 0 8 -4 15 -10 15 -5 0 -7
-7 -4 -15z"/>
<path d="M1175 1170 c4 -6 11 -8 16 -5 14 9 11 15 -7 15 -8 0 -12 -5 -9 -10z"/>
<path d="M1345 1170 c-3 -5 -1 -10 4 -10 6 0 11 5 11 10 0 6 -2 10 -4 10 -3 0
-8 -4 -11 -10z"/>
<path d="M2579 1143 c0 -16 -2 -36 -4 -45 -2 -10 0 -18 4 -18 4 0 9 20 9 45 1
25 0 45 -3 45 -3 0 -5 -12 -6 -27z"/>
<path d="M1330 1140 c6 -11 13 -20 16 -20 2 0 0 9 -6 20 -6 11 -13 20 -16 20
-2 0 0 -9 6 -20z"/>
<path d="M1655 1150 c-3 -5 -1 -10 4 -10 6 0 11 5 11 10 0 6 -2 10 -4 10 -3 0
-8 -4 -11 -10z"/>
<path d="M1810 1148 c0 -9 5 -20 10 -23 13 -8 13 5 0 25 -8 13 -10 13 -10 -2z"/>
<path d="M1848 1133 c7 -3 16 -2 19 1 4 3 -2 6 -13 5 -11 0 -14 -3 -6 -6z"/>
<path d="M1940 1120 c0 -11 -5 -20 -12 -20 -6 0 -8 -3 -4 -7 4 -5 14 0 21 11
8 10 18 15 24 11 6 -3 11 -4 11 -1 0 3 -9 10 -20 16 -17 9 -20 8 -20 -10z"/>
<path d="M2278 1113 c5 -21 7 -23 10 -9 2 10 0 22 -6 28 -6 6 -7 0 -4 -19z"/>
<path d="M1647 1115 c-4 -8 -3 -16 1 -19 4 -3 9 4 9 15 2 23 -3 25 -10 4z"/>
<path d="M2046 1109 c3 -5 12 -9 21 -9 19 0 9 13 -12 16 -8 1 -13 -2 -9 -7z"/>
<path d="M1352 1090 c0 -14 2 -19 5 -12 2 6 2 18 0 25 -3 6 -5 1 -5 -13z"/>
<path d="M1807 1099 c7 -7 15 -10 18 -7 3 3 -2 9 -12 12 -14 6 -15 5 -6 -5z"/>
<path d="M1841 1094 c0 -11 3 -14 6 -6 3 7 2 16 -1 19 -3 4 -6 -2 -5 -13z"/>
<path d="M1878 1092 c4 -10 7 -12 10 -4 2 7 9 9 15 5 7 -3 8 -2 4 2 -14 16
-36 14 -29 -3z"/>
<path d="M1953 1061 c0 -11 5 -18 9 -15 4 3 5 11 1 19 -7 21 -12 19 -10 -4z"/>
<path d="M2279 1078 c-6 -21 -5 -38 1 -38 5 0 8 9 7 20 -1 17 -5 26 -8 18z"/>
<path d="M1644 1049 c-5 -8 -3 -9 5 -4 9 5 11 -1 8 -23 -3 -17 -7 -35 -10 -39
-3 -5 -2 -15 3 -23 7 -12 9 -11 9 5 0 11 2 34 6 52 6 32 -8 53 -21 32z"/>
<path d="M2582 1040 c0 -14 2 -19 5 -12 2 6 2 18 0 25 -3 6 -5 1 -5 -13z"/>
<path d="M1356 1015 c-3 -8 -1 -15 4 -15 6 0 10 7 10 15 0 8 -2 15 -4 15 -2 0
-6 -7 -10 -15z"/>
<path d="M65 1010 c-3 -5 -1 -10 4 -10 6 0 11 5 11 10 0 6 -2 10 -4 10 -3 0
-8 -4 -11 -10z"/>
<path d="M1971 1004 c0 -11 3 -14 6 -6 3 7 2 16 -1 19 -3 4 -6 -2 -5 -13z"/>
<path d="M1953 975 c0 -8 4 -12 9 -9 5 3 6 10 3 15 -9 13 -12 11 -12 -6z"/>
<path d="M2267 971 c3 -10 0 -28 -6 -39 -8 -16 -7 -21 5 -26 8 -3 13 -2 9 3
-3 5 1 12 7 14 8 3 9 6 2 6 -6 1 -9 12 -7 25 3 13 0 26 -5 30 -6 3 -8 -2 -5
-13z"/>
<path d="M2577 984 c-3 -3 -3 -12 0 -20 3 -8 -1 -22 -8 -32 -13 -15 -12 -16 3
-3 10 7 17 24 16 37 -3 27 -2 26 -11 18z"/>
<path d="M1356 964 c-3 -9 -2 -22 2 -31 6 -10 9 -5 9 16 0 35 -2 38 -11 15z"/>
<path d="M190 930 c0 -5 5 -10 11 -10 5 0 7 5 4 10 -3 6 -8 10 -11 10 -2 0 -4
-4 -4 -10z"/>
<path d="M1656 924 c-4 -10 -2 -22 4 -28 8 -8 11 -7 8 3 -2 11 11 14 59 13 35
0 65 2 67 7 3 4 -20 5 -50 3 -31 -2 -61 2 -69 8 -9 8 -14 6 -19 -6z"/>
<path d="M1957 927 c3 -5 -10 -7 -30 -6 -20 2 -39 0 -43 -4 -4 -4 12 -7 36 -7
24 0 41 -3 37 -6 -7 -7 17 -34 29 -34 5 0 3 5 -4 12 -22 22 -13 28 43 28 30 0
55 3 55 8 0 4 -25 5 -56 4 -33 -3 -54 0 -51 5 4 5 0 10 -8 10 -8 0 -12 -4 -8
-10z"/>
<path d="M1816 922 c-3 -5 9 -9 27 -9 26 -1 28 1 12 7 -27 11 -33 12 -39 2z"/>
<path d="M2135 919 c-43 -5 -40 -6 28 -6 42 -1 77 0 77 2 0 7 -59 9 -105 4z"/>
<path d="M1343 913 c4 -6 2 -13 -4 -15 -7 -2 -6 -8 3 -16 12 -9 14 -8 13 8 -1
11 -5 23 -10 27 -4 5 -5 3 -2 -4z"/>
<path d="M2580 855 c-19 -22 -8 -25 13 -3 9 10 13 18 8 18 -5 0 -14 -7 -21
-15z"/>
<path d="M2279 839 c-8 -17 -8 -20 2 -17 7 2 13 12 15 21 3 23 -3 21 -17 -4z"/>
<path d="M1870 779 c0 -5 5 -7 10 -4 6 3 10 8 10 11 0 2 -4 4 -10 4 -5 0 -10
-5 -10 -11z"/>
<path d="M1894 769 c-3 -6 -2 -15 3 -20 5 -5 9 -1 9 11 0 23 -2 24 -12 9z"/>
<path d="M1345 750 c3 -5 8 -10 11 -10 2 0 4 5 4 10 0 6 -5 10 -11 10 -5 0 -7
-4 -4 -10z"/>
<path d="M75 729 c-4 -6 -5 -12 -2 -15 2 -3 7 2 10 11 7 17 1 20 -8 4z"/>
<path d="M1984 722 c-10 -15 -8 -18 7 -19 10 -1 21 2 24 8 3 5 -1 6 -10 3 -11
-5 -14 -2 -9 10 8 21 2 20 -12 -2z"/>
<path d="M1045 720 c-3 -5 -1 -10 4 -10 6 0 11 5 11 10 0 6 -2 10 -4 10 -3 0
-8 -4 -11 -10z"/>
<path d="M1440 719 c0 -5 5 -7 10 -4 6 3 10 8 10 11 0 2 -4 4 -10 4 -5 0 -10
-5 -10 -11z"/>
<path d="M1520 723 c0 -5 5 -15 10 -23 7 -12 9 -10 7 8 -1 19 -17 33 -17 15z"/>
<path d="M2042 695 c3 -28 11 -24 13 5 1 11 -2 20 -7 20 -4 0 -7 -11 -6 -25z"/>
<path d="M1331 697 c0 -10 -5 -16 -9 -13 -4 2 -8 -4 -9 -14 -1 -11 2 -22 8
-25 5 -3 6 2 2 11 -5 14 -2 16 19 12 15 -3 25 0 25 8 0 7 -6 10 -13 7 -7 -2
-14 4 -17 14 -4 17 -5 17 -6 0z"/>
<path d="M1470 700 c-9 -6 -10 -10 -3 -10 6 0 15 5 18 10 8 12 4 12 -15 0z"/>
<path d="M1503 695 c0 -8 4 -12 9 -9 5 3 6 10 3 15 -9 13 -12 11 -12 -6z"/>
<path d="M2555 700 c3 -5 8 -10 11 -10 2 0 4 5 4 10 0 6 -5 10 -11 10 -5 0 -7
-4 -4 -10z"/>
<path d="M2286 685 c4 -8 8 -15 10 -15 2 0 4 7 4 15 0 8 -4 15 -10 15 -5 0 -7
-7 -4 -15z"/>
<path d="M2067 670 c-3 -11 -2 -22 3 -25 4 -3 10 4 13 15 3 11 2 22 -3 25 -4
3 -10 -4 -13 -15z"/>
<path d="M1455 672 c-15 -11 -17 -32 -2 -26 8 3 14 11 14 19 0 8 -1 15 -1 15
-1 0 -5 -4 -11 -8z"/>
<path d="M1105 660 c-3 -5 -1 -10 4 -10 6 0 11 5 11 10 0 6 -2 10 -4 10 -3 0
-8 -4 -11 -10z"/>
<path d="M1135 660 c-3 -6 1 -7 9 -4 18 7 21 14 7 14 -6 0 -13 -4 -16 -10z"/>
<path d="M1387 663 c-10 -9 -9 -23 1 -23 5 0 9 7 9 15 0 17 -1 18 -10 8z"/>
<path d="M1490 658 c0 -4 4 -8 9 -8 6 0 12 4 15 8 3 5 -1 9 -9 9 -8 0 -15 -4
-15 -9z"/>
<path d="M1793 656 c-13 -6 -23 -15 -23 -20 0 -4 11 -1 24 8 18 11 26 12 29 3
2 -6 7 -9 11 -6 14 13 -19 25 -41 15z"/>
<path d="M1930 655 c-10 -12 -16 -13 -26 -4 -10 8 -14 8 -14 0 0 -6 -5 -10
-11 -8 -6 1 -13 -6 -14 -16 -3 -18 -2 -18 15 -2 19 18 45 12 37 -9 -3 -6 2
-17 9 -24 17 -15 17 -12 4 22 -10 28 6 48 21 25 7 -12 9 -11 9 1 0 13 1 13 10
0 5 -8 10 -10 10 -5 0 6 -5 17 -10 25 -9 13 -10 13 -10 0 0 -12 -2 -12 -9 -2
-6 10 -10 10 -21 -3z"/>
<path d="M2015 659 c-9 -14 0 -22 18 -17 13 2 13 5 2 15 -10 9 -16 9 -20 2z"/>
<path d="M2413 650 c-1 -11 3 -20 8 -20 6 0 7 5 4 10 -3 6 -1 10 5 10 6 0 8 5
5 10 -10 16 -21 11 -22 -10z"/>
<path d="M2451 667 c2 -1 13 -9 24 -17 19 -14 19 -14 6 3 -7 9 -18 17 -24 17
-6 0 -8 -1 -6 -3z"/>
<path d="M2540 660 c0 -13 18 -22 24 -11 3 5 -1 11 -9 15 -8 3 -15 1 -15 -4z"/>
<path d="M1416 643 c-6 -14 -5 -15 5 -6 7 7 10 15 7 18 -3 3 -9 -2 -12 -12z"/>
<path d="M1530 654 c0 -3 5 -14 10 -24 6 -10 6 -21 1 -24 -4 -3 -6 -18 -3 -32
3 -19 1 -25 -6 -20 -8 5 -10 2 -6 -8 3 -9 10 -16 16 -16 5 0 6 5 3 10 -3 6 -2
10 3 10 5 0 6 14 4 31 -3 21 -1 30 6 25 6 -3 4 7 -4 24 -14 28 -24 38 -24 24z"/>
<path d="M1568 648 c5 -5 16 -8 23 -6 8 3 3 7 -10 11 -17 4 -21 3 -13 -5z"/>
<path d="M1636 651 c-19 -7 -19 -8 2 -13 15 -4 22 -2 22 8 0 8 -1 14 -2 13 -2
0 -12 -4 -22 -8z"/>
<path d="M2252 646 c7 -8 15 -12 17 -11 5 6 -10 25 -20 25 -5 0 -4 -6 3 -14z"/>
<path d="M2110 628 c-10 -22 -10 -22 4 -4 8 10 19 15 25 11 6 -3 11 -1 11 4 0
20 -29 11 -40 -11z"/>
<path d="M2200 640 c0 -6 5 -8 11 -4 6 3 16 0 21 -7 8 -12 9 -11 5 1 -4 18
-37 27 -37 10z"/>
<path d="M1133 620 c-1 -11 2 -22 8 -25 5 -4 6 2 2 11 -5 13 -3 15 8 9 12 -8
12 -6 0 8 -17 21 -16 21 -18 -3z"/>
<path d="M1246 628 c3 -5 10 -6 15 -3 13 9 11 12 -6 12 -8 0 -12 -4 -9 -9z"/>
<path d="M1291 621 c-8 -5 -9 -11 -3 -15 5 -3 12 1 16 9 6 17 6 18 -13 6z"/>
<path d="M1345 620 c3 -6 -1 -10 -9 -10 -8 0 -17 -4 -21 -10 -3 -5 7 -5 25 1
34 12 36 15 14 23 -8 3 -12 2 -9 -4z"/>
<path d="M2066 622 c-2 -4 -1 -14 4 -22 7 -11 9 -9 7 8 -1 24 -3 26 -11 14z"/>
<path d="M1885 611 c-3 -5 -2 -12 3 -15 5 -3 9 1 9 9 0 17 -3 19 -12 6z"/>
<path d="M1996 608 c3 -4 9 -8 15 -8 5 0 9 4 9 8 0 5 -7 9 -15 9 -8 0 -12 -4
-9 -9z"/>
<path d="M2185 610 c-3 -5 -2 -10 4 -10 5 0 13 5 16 10 3 6 2 10 -4 10 -5 0
-13 -4 -16 -10z"/>
<path d="M2590 610 c0 -5 5 -10 11 -10 5 0 7 5 4 10 -3 6 -8 10 -11 10 -2 0
-4 -4 -4 -10z"/>
<path d="M1810 604 c0 -6 7 -19 16 -30 14 -18 14 -18 3 6 -14 31 -19 36 -19
24z"/>
<path d="M2220 600 c-9 -6 -10 -10 -3 -10 6 0 15 5 18 10 8 12 4 12 -15 0z"/>
<path d="M1425 590 c-3 -6 1 -7 9 -4 18 7 21 14 7 14 -6 0 -13 -4 -16 -10z"/>
<path d="M1640 590 c8 -5 20 -10 25 -10 6 0 3 5 -5 10 -8 5 -19 10 -25 10 -5
0 -3 -5 5 -10z"/>
<path d="M1469 573 c-13 -17 -13 -17 6 -3 11 8 22 16 24 17 2 2 0 3 -6 3 -6 0
-17 -8 -24 -17z"/>
<path d="M1957 579 c7 -7 15 -10 18 -7 3 3 -2 9 -12 12 -14 6 -15 5 -6 -5z"/>
<path d="M2035 580 c3 -5 8 -10 11 -10 2 0 4 5 4 10 0 6 -5 10 -11 10 -5 0 -7
-4 -4 -10z"/>
<path d="M1295 570 c3 -5 8 -10 11 -10 2 0 4 5 4 10 0 6 -5 10 -11 10 -5 0 -7
-4 -4 -10z"/>
<path d="M1901 567 c-8 -10 -7 -14 2 -14 8 0 14 6 14 14 0 7 -1 13 -2 13 -2 0
-8 -6 -14 -13z"/>
<path d="M2119 563 c-13 -16 -12 -17 4 -4 16 13 21 21 13 21 -2 0 -10 -8 -17
-17z"/>
<path d="M2185 571 c3 -5 -3 -11 -12 -13 -16 -3 -16 -4 -2 -10 9 -4 20 1 27
13 10 16 9 19 -4 19 -8 0 -13 -4 -9 -9z"/>
<path d="M1610 559 c0 -5 5 -7 10 -4 6 3 10 8 10 11 0 2 -4 4 -10 4 -5 0 -10
-5 -10 -11z"/>
<path d="M2590 561 c0 -6 4 -13 10 -16 6 -3 7 1 4 9 -7 18 -14 21 -14 7z"/>
<path d="M1481 557 c2 -1 12 -9 22 -16 15 -12 17 -12 11 3 -3 9 -13 16 -22 16
-8 0 -13 -1 -11 -3z"/>
<path d="M1645 550 c-3 -6 1 -7 9 -4 18 7 21 14 7 14 -6 0 -13 -4 -16 -10z"/>
<path d="M1978 553 c7 -3 16 -2 19 1 4 3 -2 6 -13 5 -11 0 -14 -3 -6 -6z"/>
<path d="M2013 547 c0 -8 6 -14 14 -14 9 0 10 4 2 14 -6 7 -12 13 -14 13 -1 0
-2 -6 -2 -13z"/>
<path d="M1105 530 c-4 -6 -11 -7 -17 -4 -7 4 -8 2 -4 -5 6 -8 12 -9 20 -2 7
6 17 7 21 3 5 -4 5 -1 1 6 -9 15 -13 15 -21 2z"/>
<path d="M1353 525 c0 -8 4 -12 9 -9 5 3 6 10 3 15 -9 13 -12 11 -12 -6z"/>
<path d="M1444 523 c3 -18 56 -30 56 -13 0 5 -12 7 -26 4 -15 -3 -23 -1 -20 5
4 5 2 12 -3 15 -5 4 -8 -2 -7 -11z"/>
<path d="M1625 529 c11 -7 23 -17 27 -23 5 -7 8 -7 8 2 0 7 5 10 10 7 6 -3 10
-2 10 4 0 5 -8 9 -17 9 -10 0 -27 3 -38 6 l-20 8 20 -13z"/>
<path d="M1721 527 c-8 -10 -7 -14 2 -14 8 0 14 6 14 14 0 7 -1 13 -2 13 -2 0
-8 -6 -14 -13z"/>
<path d="M1775 532 c3 -3 0 -11 -7 -19 -8 -11 -7 -12 5 -7 21 7 29 31 11 31
-8 0 -12 -3 -9 -5z"/>
<path d="M1815 517 l0 -24 28 20 c32 24 35 32 7 17 -14 -7 -20 -7 -20 0 0 5
-3 10 -7 10 -5 0 -8 -11 -8 -23z"/>
<path d="M1892 510 c-9 -14 -9 -21 0 -26 6 -4 8 -3 4 4 -3 6 1 15 10 20 9 5
12 12 7 15 -5 3 -14 -3 -21 -13z"/>
<path d="M1413 500 c1 -11 7 -20 13 -20 7 0 10 8 7 20 -3 11 -9 20 -14 20 -4
0 -7 -9 -6 -20z"/>
<path d="M1523 506 c3 -7 0 -20 -6 -27 -10 -11 -9 -11 5 0 15 11 15 41 1 41
-3 0 -3 -6 0 -14z"/>
<path d="M1069 483 c-13 -17 -13 -17 6 -3 11 8 22 16 24 17 2 2 0 3 -6 3 -6 0
-17 -8 -24 -17z"/>
<path d="M1910 489 c0 -4 11 -10 25 -13 14 -4 25 -11 25 -16 0 -13 -27 -13
-35 0 -3 6 -12 10 -18 10 -8 0 -7 -3 2 -9 7 -5 11 -13 8 -18 -3 -5 7 -8 23 -5
24 3 29 9 28 27 -1 14 -7 21 -15 18 -7 -3 -13 -1 -13 4 0 5 -7 10 -15 10 -8 0
-15 -4 -15 -8z"/>
<path d="M2056 484 c-4 -9 -4 -19 -1 -22 3 -3 5 1 5 9 1 8 7 3 14 -10 11 -19
14 -21 19 -7 4 9 13 13 22 10 11 -5 14 -2 9 10 -3 9 -1 16 4 16 6 0 13 -8 15
-17 4 -16 5 -16 6 -1 2 26 -18 32 -41 12 -19 -18 -20 -18 -33 -1 -12 16 -13
16 -19 1z"/>
<path d="M1156 481 c-4 -5 3 -7 14 -4 23 6 26 13 6 13 -8 0 -17 -4 -20 -9z"/>
<path d="M1658 477 c12 -14 9 -17 -20 -25 -31 -8 -32 -9 -8 -13 15 -3 31 2 41
12 15 15 14 17 -5 29 -19 12 -20 12 -8 -3z"/>
<path d="M2006 475 c-3 -8 -1 -15 4 -15 6 0 10 7 10 15 0 8 -2 15 -4 15 -2 0
-6 -7 -10 -15z"/>
<path d="M2212 464 c-1 -13 0 -24 2 -24 7 0 14 40 7 44 -4 3 -8 -6 -9 -20z"/>
<path d="M1286 468 c3 -5 10 -6 15 -3 13 9 11 12 -6 12 -8 0 -12 -4 -9 -9z"/>
<path d="M1145 449 c-4 -6 -5 -12 -2 -15 2 -3 7 2 10 11 7 17 1 20 -8 4z"/>
<path d="M1500 449 c0 -5 9 -9 20 -9 11 0 20 2 20 4 0 2 -9 6 -20 9 -11 3 -20
1 -20 -4z"/>
<path d="M1700 452 c0 -4 12 -8 28 -7 16 0 26 -5 25 -12 -2 -7 2 -13 8 -13 6
0 8 7 5 16 -3 9 -6 18 -6 20 0 2 -13 4 -30 4 -16 0 -30 -4 -30 -8z"/>
<path d="M1860 451 c-24 -7 -24 -8 6 -12 24 -4 31 -2 27 8 -3 7 -6 13 -7 12 0
-1 -12 -4 -26 -8z"/>
<path d="M1187 437 c-3 -8 1 -14 9 -14 16 0 19 13 5 21 -5 3 -11 0 -14 -7z"/>
<path d="M1785 419 c6 -30 15 -37 15 -11 0 11 -4 23 -9 27 -6 3 -8 -4 -6 -16z"/>
<path d="M2040 431 c0 -6 4 -13 10 -16 6 -3 7 1 4 9 -7 18 -14 21 -14 7z"/>
<path d="M1686 413 c-6 -14 -5 -15 5 -6 7 7 10 15 7 18 -3 3 -9 -2 -12 -12z"/>
<path d="M2241 414 c0 -11 3 -14 6 -6 3 7 2 16 -1 19 -3 4 -6 -2 -5 -13z"/>
<path d="M1265 409 c-4 -6 -5 -12 -2 -15 2 -3 7 2 10 11 7 17 1 20 -8 4z"/>
<path d="M1319 419 c0 -2 -2 -11 -4 -20 -1 -9 3 -16 10 -16 7 0 12 6 11 13 -2
13 -15 31 -17 23z"/>
<path d="M1626 405 c-3 -9 -6 -22 -5 -28 0 -7 5 -1 10 12 5 13 8 26 5 28 -2 2
-6 -3 -10 -12z"/>
<path d="M1700 397 c-12 -21 -12 -21 6 -7 10 8 20 15 22 16 2 1 -1 4 -5 7 -5
3 -15 -4 -23 -16z"/>
<path d="M1836 405 c-3 -8 -1 -15 4 -15 6 0 10 7 10 15 0 8 -2 15 -4 15 -2 0
-6 -7 -10 -15z"/>
<path d="M2135 409 c-4 -6 -5 -12 -2 -15 2 -3 7 2 10 11 7 17 1 20 -8 4z"/>
<path d="M980 399 c0 -5 5 -7 10 -4 6 3 10 8 10 11 0 2 -4 4 -10 4 -5 0 -10
-5 -10 -11z"/>
<path d="M1478 403 c7 -3 16 -2 19 1 4 3 -2 6 -13 5 -11 0 -14 -3 -6 -6z"/>
<path d="M1228 393 c7 -3 16 -2 19 1 4 3 -2 6 -13 5 -11 0 -14 -3 -6 -6z"/>
<path d="M1441 386 c-10 -11 -9 -14 1 -12 14 2 23 15 15 22 -2 2 -10 -2 -16
-10z"/>
<path d="M1657 387 c-3 -8 1 -14 8 -14 7 0 11 6 8 14 -3 7 -6 13 -8 13 -2 0
-5 -6 -8 -13z"/>
<path d="M1975 390 c-3 -5 -1 -10 4 -10 6 0 11 5 11 10 0 6 -2 10 -4 10 -3 0
-8 -4 -11 -10z"/>
<path d="M1120 390 c-8 -26 -7 -41 2 -32 6 6 8 16 5 24 -3 7 -6 11 -7 8z"/>
<path d="M1911 374 c6 -7 16 -11 21 -8 11 7 3 17 -18 20 -12 2 -13 -1 -3 -12z"/>
<path d="M1180 365 c7 -9 15 -13 17 -11 7 7 -7 26 -19 26 -6 0 -6 -6 2 -15z"/>
<path d="M1773 367 c0 -7 8 -13 18 -13 13 0 15 3 7 13 -6 7 -14 13 -18 13 -3
0 -7 -6 -7 -13z"/>
<path d="M1876 372 c-3 -5 1 -9 9 -9 8 0 12 4 9 9 -3 4 -7 8 -9 8 -2 0 -6 -4
-9 -8z"/>
<path d="M1947 365 c-4 -8 -3 -16 1 -19 4 -3 9 4 9 15 2 23 -3 25 -10 4z"/>
<path d="M1533 355 c0 -8 4 -12 9 -9 5 3 6 10 3 15 -9 13 -12 11 -12 -6z"/>
<path d="M1307 347 c-3 -8 -1 -20 4 -28 8 -11 9 -9 7 6 -2 12 2 19 10 17 8 -1
11 2 7 8 -9 14 -22 13 -28 -3z"/>
<path d="M1666 348 c3 -4 9 -8 15 -8 5 0 9 4 9 8 0 5 -7 9 -15 9 -8 0 -12 -4
-9 -9z"/>
<path d="M2009 343 c-13 -16 -12 -17 4 -4 9 7 17 15 17 17 0 8 -8 3 -21 -13z"/>
<path d="M1837 339 c7 -7 15 -10 18 -7 3 3 -2 9 -12 12 -14 6 -15 5 -6 -5z"/>
<path d="M1393 323 c1 -15 5 -19 13 -13 6 6 15 6 19 2 5 -4 5 -1 1 6 -4 7 -11
10 -16 7 -4 -3 -10 1 -13 7 -3 7 -4 3 -4 -9z"/>
<path d="M1640 325 c0 -8 0 -17 0 -20 0 -3 3 -4 7 -2 10 3 11 37 1 37 -4 0 -8
-7 -8 -15z"/>
<path d="M1923 325 c0 -8 4 -12 9 -9 5 3 6 10 3 15 -9 13 -12 11 -12 -6z"/>
<path d="M2160 331 c0 -6 4 -13 10 -16 6 -3 7 1 4 9 -7 18 -14 21 -14 7z"/>
<path d="M2610 328 c0 -4 4 -8 9 -8 6 0 12 4 15 8 3 5 -1 9 -9 9 -8 0 -15 -4
-15 -9z"/>
<path d="M2040 310 c0 -5 5 -10 11 -10 5 0 7 5 4 10 -3 6 -8 10 -11 10 -2 0
-4 -4 -4 -10z"/>
<path d="M1085 300 c3 -5 8 -10 11 -10 2 0 4 5 4 10 0 6 -5 10 -11 10 -5 0 -7
-4 -4 -10z"/>
<path d="M1970 301 c0 -6 4 -13 10 -16 6 -3 7 1 4 9 -7 18 -14 21 -14 7z"/>
<path d="M2181 301 c-8 -5 -9 -11 -3 -15 5 -3 12 1 16 9 6 17 6 18 -13 6z"/>
<path d="M1595 291 c-3 -5 -2 -12 3 -15 5 -3 9 1 9 9 0 17 -3 19 -12 6z"/>
<path d="M1710 290 c-13 -8 -12 -10 3 -10 9 0 17 5 17 10 0 12 -1 12 -20 0z"/>
<path d="M1930 290 c0 -5 4 -10 9 -10 6 0 13 5 16 10 3 6 -1 10 -9 10 -9 0
-16 -4 -16 -10z"/>
<path d="M1410 280 c0 -5 5 -10 11 -10 5 0 7 5 4 10 -3 6 -8 10 -11 10 -2 0
-4 -4 -4 -10z"/>
<path d="M1752 285 c4 -4 3 -14 -3 -21 -8 -9 -5 -16 12 -24 12 -7 19 -8 15 -2
-3 6 0 13 6 16 7 3 2 3 -12 -1 -22 -5 -23 -4 -12 10 11 12 11 17 0 23 -7 4
-10 4 -6 -1z"/>
<path d="M1878 283 c6 -2 9 -10 6 -15 -4 -7 -2 -8 5 -4 13 9 5 26 -12 25 -9 0
-8 -2 1 -6z"/>
<path d="M2636 273 c-6 -14 -5 -15 5 -6 7 7 10 15 7 18 -3 3 -9 -2 -12 -12z"/>
<path d="M1340 272 c0 -7 -10 -13 -22 -13 -19 -1 -20 -2 -4 -6 20 -5 44 12 33
24 -4 3 -7 1 -7 -5z"/>
<path d="M1370 260 c-13 -8 -12 -10 3 -10 9 0 17 5 17 10 0 12 -1 12 -20 0z"/>
<path d="M1442 253 c-10 -11 -8 -13 13 -13 14 0 24 -4 21 -8 -3 -5 1 -9 9 -9
19 0 19 0 -8 23 -19 17 -25 18 -35 7z"/>
<path d="M1510 246 c0 -2 7 -7 16 -10 8 -3 12 -2 9 4 -6 10 -25 14 -25 6z"/>
<path d="M1370 229 c0 -5 5 -7 10 -4 6 3 10 8 10 11 0 2 -4 4 -10 4 -5 0 -10
-5 -10 -11z"/>
<path d="M1248 213 c7 -3 16 -2 19 1 4 3 -2 6 -13 5 -11 0 -14 -3 -6 -6z"/>
<path d="M1725 210 c-3 -5 -1 -10 4 -10 6 0 11 5 11 10 0 6 -2 10 -4 10 -3 0
-8 -4 -11 -10z"/>
<path d="M1841 204 c0 -11 3 -14 6 -6 3 7 2 16 -1 19 -3 4 -6 -2 -5 -13z"/>
<path d="M1356 201 c-4 -5 -2 -12 3 -15 5 -4 12 -2 15 3 4 5 2 12 -3 15 -5 4
-12 2 -15 -3z"/>
<path d="M1970 200 c-9 -6 -10 -10 -3 -10 6 0 15 5 18 10 8 12 4 12 -15 0z"/>
<path d="M1500 185 c-7 -9 -11 -17 -9 -20 3 -2 10 5 17 15 14 24 10 26 -8 5z"/>
<path d="M356 168 c3 -5 10 -6 15 -3 13 9 11 12 -6 12 -8 0 -12 -4 -9 -9z"/>
<path d="M1436 157 c3 -10 9 -15 12 -12 3 3 0 11 -7 18 -10 9 -11 8 -5 -6z"/>
<path d="M1679 153 c-13 -16 -12 -17 4 -4 16 13 21 21 13 21 -2 0 -10 -8 -17
-17z"/>
<path d="M1790 160 c0 -5 5 -10 11 -10 5 0 7 5 4 10 -3 6 -8 10 -11 10 -2 0
-4 -4 -4 -10z"/>
<path d="M1535 150 c-3 -6 1 -7 9 -4 18 7 21 14 7 14 -6 0 -13 -4 -16 -10z"/>
<path d="M375 141 c-3 -5 -2 -12 3 -15 5 -3 9 1 9 9 0 17 -3 19 -12 6z"/>
<path d="M1393 129 c4 -16 2 -19 -10 -15 -13 6 -14 4 -3 -9 10 -12 15 -13 20
-4 8 11 2 49 -7 49 -3 0 -3 -9 0 -21z"/>
<path d="M1485 140 c-3 -5 -1 -10 4 -10 6 0 11 5 11 10 0 6 -2 10 -4 10 -3 0
-8 -4 -11 -10z"/>
<path d="M1575 140 c-3 -5 -1 -10 4 -10 6 0 11 5 11 10 0 6 -2 10 -4 10 -3 0
-8 -4 -11 -10z"/>
<path d="M1615 141 c-3 -6 0 -11 7 -12 7 0 4 -4 -6 -8 -19 -7 -19 -8 1 -13 17
-5 21 -2 18 14 -5 26 -11 32 -20 19z"/>
<path d="M1853 128 c1 -15 6 -23 11 -18 4 4 4 16 -2 26 -9 16 -10 14 -9 -8z"/>
<path d="M2467 144 c-8 -8 3 -34 15 -34 7 0 6 5 -1 13 -6 8 -8 17 -4 20 3 4 4
7 1 7 -2 0 -7 -3 -11 -6z"/>
<path d="M263 123 c0 -9 4 -10 14 -2 7 6 13 12 13 14 0 1 -6 2 -13 2 -8 0 -14
-6 -14 -14z"/>
<path d="M1800 129 c0 -5 5 -7 10 -4 6 3 10 8 10 11 0 2 -4 4 -10 4 -5 0 -10
-5 -10 -11z"/>
<path d="M1675 120 c-3 -5 -1 -10 4 -10 6 0 11 5 11 10 0 6 -2 10 -4 10 -3 0
-8 -4 -11 -10z"/>
<path d="M1710 115 c0 -8 2 -15 4 -15 2 0 6 7 10 15 3 8 1 15 -4 15 -6 0 -10
-7 -10 -15z"/>
<path d="M1926 113 c-6 -14 -5 -15 5 -6 7 7 10 15 7 18 -3 3 -9 -2 -12 -12z"/>
<path d="M1956 122 c-3 -5 1 -9 9 -9 8 0 12 4 9 9 -3 4 -7 8 -9 8 -2 0 -6 -4
-9 -8z"/>
<path d="M1478 113 c7 -3 16 -2 19 1 4 3 -2 6 -13 5 -11 0 -14 -3 -6 -6z"/>
<path d="M2025 110 c3 -5 8 -10 11 -10 2 0 4 5 4 10 0 6 -5 10 -11 10 -5 0 -7
-4 -4 -10z"/>
<path d="M2300 110 c0 -5 5 -10 11 -10 5 0 7 5 4 10 -3 6 -8 10 -11 10 -2 0
-4 -4 -4 -10z"/>
<path d="M1338 103 c7 -3 16 -2 19 1 4 3 -2 6 -13 5 -11 0 -14 -3 -6 -6z"/>
<path d="M1539 93 c-13 -16 -12 -17 4 -4 16 13 21 21 13 21 -2 0 -10 -8 -17
-17z"/>
<path d="M1570 101 c0 -6 4 -13 10 -16 6 -3 7 1 4 9 -7 18 -14 21 -14 7z"/>
<path d="M2049 93 c-13 -16 -12 -17 4 -4 16 13 21 21 13 21 -2 0 -10 -8 -17
-17z"/>
<path d="M2080 105 c0 -10 29 -24 34 -17 3 6 -3 12 -14 15 -11 3 -20 4 -20 2z"/>
</g>
</svg>
