<svg xmlns="http://www.w3.org/2000/svg" role="img" viewBox="-2.62 -2.12 552.24 189.74"><g fill="#ff5a11"><path fill="#c8c8c8" d="M184.61689 126.29481q-7.54011 0-10.44796 1.72442t-2.90785 5.88332q0 3.31359 2.16398 5.2747 2.19779 1.9273 5.95094 1.9273 5.17327 0 8.28399-3.65172 3.14453-3.68553 3.14453-9.77172v-1.3863zm12.40908-2.56973v21.60599h-6.22145V139.583q-2.13016 3.44884-5.30851 5.10564-3.17835 1.62298-7.7768 1.62298-5.8157 0-9.26454-3.24597-3.41503-3.27978-3.41503-8.75735 0-6.39051 4.26033-9.63648 4.29415-3.24597 12.78101-3.24597h8.72354v-.60862q0-4.29414-2.84022-6.62718-2.80641-2.36686-7.91205-2.36686-3.24597 0-6.32288.77768t-5.91713 2.33304v-5.74807q3.41503-1.31867 6.62718-1.96111 3.21216-.67624 6.25526-.67624 8.21636 0 12.27382 4.26034 4.05747 4.26033 4.05747 12.91625z"/><path fill="#c8c8c8" d="M215.85935 139.65062v20.08444h-6.25525v-52.27364h6.25525v5.74807q1.96111-3.38122 4.93658-5.0042 3.00929-1.6568 7.16819-1.6568 6.89768 0 11.19183 5.47758 4.32796 5.47757 4.32796 14.40399 0 8.92641-4.32796 14.40399-4.29415 5.47757-11.19183 5.47757-4.1589 0-7.16819-1.62298-2.97547-1.6568-4.93658-5.03802zm21.16643-13.22056q0-6.86388-2.84022-10.75228-2.80641-3.92221-7.74299-3.92221-4.93658 0-7.7768 3.92221-2.80642 3.8884-2.80642 10.75228 0 6.86387 2.80642 10.78608 2.84022 3.88841 7.7768 3.88841 4.93658 0 7.74299-3.88841 2.84022-3.92221 2.84022-10.78608z"/><path fill="#c8c8c8" d="M259.8152 139.65062v20.08444h-6.25526v-52.27364h6.25526v5.74807q1.9611-3.38122 4.93658-5.0042 3.00928-1.6568 7.16818-1.6568 6.89769 0 11.19183 5.47758 4.32796 5.47757 4.32796 14.40399 0 8.92641-4.32796 14.40399-4.29414 5.47757-11.19183 5.47757-4.1589 0-7.16818-1.62298-2.97548-1.6568-4.93658-5.03802zm21.16643-13.22056q0-6.86388-2.84023-10.75228-2.80641-3.92221-7.74299-3.92221-4.93658 0-7.7768 3.92221-2.80641 3.8884-2.80641 10.75228 0 6.86387 2.80641 10.78608 2.84022 3.88841 7.7768 3.88841 4.93658 0 7.74299-3.88841 2.84023-3.92221 2.84023-10.78608z"/><path fill="#c8c8c8" d="M297.75247 92.7193h6.22144v52.61177h-6.22144z"/><path fill="#c8c8c8" d="M349.38368 124.84088v3.0431h-28.60511q.40574 6.42432 3.85459 9.80554 3.48265 3.3474 9.67028 3.3474 3.58409 0 6.9315-.87911 3.38122-.87912 6.69481-2.63736v5.88333q-3.3474 1.42011-6.86387 2.16398-3.51647.74386-7.13437.74386-9.06167 0-14.37018-5.2747-5.2747-5.2747-5.2747-14.26874 0-9.29835 5.0042-14.74211 5.03802-5.47758 13.55869-5.47758 7.64155 0 12.07095 4.93658 4.46321 4.90277 4.46321 13.35581zm-6.22144-1.82585q-.0676-5.10564-2.87404-8.14874-2.7726-3.0431-7.37106-3.0431-5.20707 0-8.35161 2.94166-3.11072 2.94166-3.58409 8.28399z"/><path d="M383.73687 108.57722v5.88332q-2.63735-1.35248-5.47758-2.02873-2.84022-.67624-5.88332-.67624-4.63227 0-6.96531 1.42011-2.29923 1.42011-2.29923 4.26034 0 2.16398 1.6568 3.41503 1.6568 1.21723 6.661 2.33304l2.13017.47337q6.62719 1.42011 9.39979 4.02365 2.80641 2.56972 2.80641 7.20199 0 5.27471-4.19271 8.35161-4.1589 3.07691-11.46233 3.07691-3.0431 0-6.35669-.60862-3.27979-.5748-6.9315-1.75823v-6.42432q3.44884 1.79205 6.79625 2.70498 3.3474.87912 6.62719.87912 4.39558 0 6.76243-1.48774 2.36686-1.52155 2.36686-4.26034 0-2.53591-1.72443-3.8884-1.69061-1.35248-7.47249-2.60354l-2.16398-.50718q-5.78188-1.21724-8.35161-3.71934-2.56973-2.53591-2.56973-6.9315 0-5.34232 3.78697-8.25017 3.78696-2.90785 10.75227-2.90785 3.44885 0 6.49194.50718 3.0431.50719 5.61283 1.52155z"/><path d="M428.06465 124.84088v3.0431h-28.60511q.40574 6.42432 3.85459 9.80554 3.48265 3.3474 9.67028 3.3474 3.58409 0 6.9315-.87911 3.38122-.87912 6.69481-2.63736v5.88333q-3.3474 1.42011-6.86387 2.16398-3.51647.74386-7.13437.74386-9.06167 0-14.37018-5.2747-5.2747-5.2747-5.2747-14.26874 0-9.29835 5.0042-14.74211 5.03802-5.47758 13.55869-5.47758 7.64155 0 12.07095 4.93658 4.46321 4.90277 4.46321 13.35581zm-6.22144-1.82585q-.0676-5.10564-2.87404-8.14874-2.7726-3.0431-7.37106-3.0431-5.20707 0-8.35161 2.94166-3.11072 2.94166-3.58409 8.28399z"/><path d="M470.66801 124.84088v3.0431H442.0629q.40575 6.42432 3.85459 9.80554 3.48266 3.3474 9.67029 3.3474 3.58409 0 6.93149-.87911 3.38122-.87912 6.69482-2.63736v5.88333q-3.34741 1.42011-6.86388 2.16398-3.51646.74386-7.13437.74386-9.06166 0-14.37018-5.2747-5.2747-5.2747-5.2747-14.26874 0-9.29835 5.0042-14.74211 5.03802-5.47758 13.55869-5.47758 7.64156 0 12.07095 4.93658 4.46321 4.90277 4.46321 13.35581zm-6.22144-1.82585q-.0676-5.10564-2.87404-8.14874-2.7726-3.0431-7.37105-3.0431-5.20708 0-8.35161 2.94166-3.11073 2.94166-3.5841 8.28399z"/><path d="M505.79885 113.20949V92.71931h6.22144v52.61176h-6.22144v-5.68045q-1.96111 3.38122-4.97039 5.03802-2.97547 1.62298-7.16819 1.62298-6.86387 0-11.19183-5.47757-4.29415-5.47758-4.29415-14.40399 0-8.92642 4.29415-14.40399 4.32796-5.47758 11.19183-5.47758 4.19272 0 7.16819 1.6568 3.00928 1.62298 4.97039 5.0042zm-21.20024 13.22057q0 6.86387 2.80641 10.78608 2.84022 3.88841 7.7768 3.88841 4.93658 0 7.77681-3.88841 2.84022-3.92221 2.84022-10.78608 0-6.86388-2.84022-10.75228-2.84023-3.92221-7.77681-3.92221t-7.7768 3.92221q-2.80641 3.8884-2.80641 10.75228z"/></g><path fill="#c8c8c8" d="M94.25458 8.6635s-17.6992 30.653-17.6992 48.864c0 16.288 8.8496 24.432 17.6992 24.432s17.6992-8.144 17.6992-24.432c0-16.288-17.6992-48.864-17.6992-48.864z"/><path fill="#c8c8c8" d="M7.97305 71.38883s23.68467 26.30492 41.0048 31.9328c15.4912 5.0336 25.9712-.8656 28.7056-9.2816 2.7344-8.416-2.2768-19.3488-17.768-24.3824-15.4912-5.0336-51.9424 1.7312-51.9424 1.7312z"/><path fill="#c8c8c8" d="M40.90225 172.74528s32.33842-14.39622 43.0432-29.1296c9.5744-13.1776 7.2016-24.968.0416-30.1696-7.16-5.2016-19.1072-3.8144-28.6816 9.3632-9.5744 13.1776-14.4032 49.936-14.4032 49.936z"/><path fill="#c8c8c8" d="M147.51385 172.72912s-3.69842-35.20262-14.4032-49.936c-9.5744-13.1776-21.5216-14.5648-28.6816-9.3632-7.16 5.2016-9.5328 16.992.0416 30.1696 9.5744 13.1776 43.0432 29.1296 43.0432 29.1296z"/><path fill="#ff5a11" d="M180.48535 71.28927s-34.62227-7.35908-51.9424-1.7312c-15.4912 5.0336-20.5024 15.9664-17.768 24.3824 2.7344 8.416 13.2144 14.3152 28.7056 9.2816 15.4912-5.0336 41.0048-31.9328 41.0048-31.9328z"/><g fill="#777" transform="scale(1.03924 .96225)"><path d="M163.45708 171.78297q-1.09666 0-1.67725.79254-.57137.78334-.57137 2.26706t.57137 2.27627q.58059.78333 1.67725.78333 1.07823 0 1.64961-.78333.57137-.79255.57137-2.27627t-.57137-2.26706q-.57138-.79254-1.64961-.79254zm0-2.35921q2.66333 0 4.15627 1.43764 1.50215 1.43764 1.50215 3.98117 0 2.54352-1.50215 3.98117-1.49294 1.43764-4.15627 1.43764-2.67254 0-4.18391-1.43764-1.50215-1.43765-1.50215-3.98117 0-2.54353 1.50215-3.98117 1.51137-1.43764 4.18391-1.43764z"/><path d="M174.81078 178.50119V183.92h-3.29921v-14.24742h3.29921v1.51137q.68196-.90314 1.51137-1.32706.82941-.43313 1.90764-.43313 1.90765 0 3.13333 1.52058 1.22568 1.51137 1.22568 3.89823 0 2.38686-1.22568 3.90744-1.22568 1.51137-3.13333 1.51137-1.07823 0-1.90764-.42392-.82941-.43314-1.51137-1.33627zm2.19333-6.68136q-1.0598 0-1.63117.78333-.56216.77412-.56216 2.23941t.56216 2.24862q.57137.77412 1.63117.77412t1.61274-.77412q.56216-.77412.56216-2.24862 0-1.47451-.56216-2.24862-.55294-.77412-1.61274-.77412z"/><path d="M195.32485 174.80571v.93999h-7.71351q.11981 1.16118.83863 1.74176.71882.58059 2.00901.58059 1.04137 0 2.12882-.30412 1.09667-.31333 2.24862-.93999v2.54352q-1.17039.44235-2.34077.66353-1.17039.23039-2.34078.23039-2.80157 0-4.35901-1.41921-1.54824-1.42843-1.54824-3.9996 0-2.52509 1.52059-3.97195 1.5298-1.44686 4.20234-1.44686 2.43294 0 3.88901 1.46529 1.46529 1.46529 1.46529 3.91666zm-3.39136-1.09667q0-.94-.55294-1.51137-.54372-.58059-1.42843-.58059-.95843 0-1.55745.54373-.59901.53451-.74647 1.54823z"/><path d="M208.19914 173.70904v6.28509h-3.31764v-4.81058q0-1.33627-.0645-1.84314-.0553-.50686-.20274-.74646-.19353-.32255-.5253-.49765-.33176-.18431-.75568-.18431-1.03216 0-1.62196.80176-.5898.79255-.5898 2.20254v5.07784h-3.29921v-10.32155h3.29921v1.51137q.74647-.90314 1.58509-1.32706.83863-.43313 1.85235-.43313 1.78784 0 2.70941 1.09666.93078 1.09666.93078 3.18862z"/><path d="M225.89322 169.99513v2.50666q-1.0598-.44235-2.04588-.66353-.98608-.22118-1.86156-.22118-.94 0-1.40079.23961-.45156.23039-.45156.71882 0 .39628.34098.60824.35019.21196 1.24411.31333l.58059.0829q2.53431.32255 3.40979 1.0598.87549.73726.87549 2.31314 0 1.6496-1.21647 2.47901-1.21646.82941-3.63097.82941-1.02294 0-2.1196-.16588-1.08745-.15667-2.23941-.47922v-2.50666q.98608.47922 2.01823.71882 1.04137.23961 2.11039.23961.96765 0 1.45608-.26725.48843-.26726.48843-.79255 0-.44235-.34098-.65431-.33177-.22118-1.33628-.34098l-.58058-.0737q-2.20255-.27647-3.08725-1.02294t-.8847-2.26705q0-1.64039 1.12431-2.43294 1.12431-.79254 3.44666-.79254.91235 0 1.91685.13823 1.00451.13824 2.18412.43314z"/><path d="M233.97536 171.78297q-1.09666 0-1.67725.79254-.57137.78334-.57137 2.26706t.57137 2.27627q.58059.78333 1.67725.78333 1.07823 0 1.64961-.78333.57137-.79255.57137-2.27627t-.57137-2.26706q-.57138-.79254-1.64961-.79254zm0-2.35921q2.66333 0 4.15627 1.43764 1.50215 1.43764 1.50215 3.98117 0 2.54352-1.50215 3.98117-1.49294 1.43764-4.15627 1.43764-2.67254 0-4.18391-1.43764-1.50215-1.43765-1.50215-3.98117 0-2.54353 1.50215-3.98117 1.51137-1.43764 4.18391-1.43764z"/><path d="M241.91926 175.97609v-6.30351h3.31764v1.03215q0 .83863-.009 2.11039-.009 1.26255-.009 1.68647 0 1.24411.0645 1.79705.0645.54373.22118.79255.20274.32255.52529.49765.33176.17509.75568.17509 1.03216 0 1.62196-.79254.5898-.79255.5898-2.20255v-5.09626h3.29921v10.32155h-3.29921v-1.49294q-.74647.90313-1.58509 1.33627-.82941.42392-1.83392.42392-1.78784 0-2.72784-1.09666-.93078-1.09667-.93078-3.18863z"/><path d="M263.13372 172.48336q-.43313-.20275-.86627-.2949-.42392-.10138-.85706-.10138-1.27176 0-1.96293.8202-.68196.81098-.68196 2.33156v4.75529h-3.29921v-10.32155h3.29921v1.69568q.63588-1.01372 1.45607-1.4745.82941-.47 1.98137-.47.16588 0 .35941.0184.19353.009.56216.0553z"/><path d="M273.11429 169.99513v2.69097q-.67274-.46078-1.3547-.68196-.67275-.22117-1.40078-.22117-1.38235 0-2.15647.81098-.7649.80176-.7649 2.24862 0 1.44686.7649 2.25784.77412.80176 2.15647.80176.77411 0 1.46529-.23039.70039-.23039 1.29019-.68196v2.70019q-.77412.28568-1.57588.42392-.79255.14745-1.59431.14745-2.79235 0-4.36822-1.42843Q264 177.39531 264 174.84257t1.57588-3.98117q1.57587-1.43764 4.36822-1.43764.81098 0 1.59431.14745.79255.13823 1.57588.42392z"/><path d="M286.26505 174.80571v.93999h-7.71351q.1198 1.16118.83862 1.74176.71882.58059 2.00902.58059 1.04137 0 2.12882-.30412 1.09666-.31333 2.24862-.93999v2.54352q-1.17039.44235-2.34078.66353-1.17039.23039-2.34078.23039-2.80156 0-4.35901-1.41921-1.54823-1.42843-1.54823-3.9996 0-2.52509 1.52058-3.97195 1.5298-1.44686 4.20235-1.44686 2.43293 0 3.88901 1.46529 1.46529 1.46529 1.46529 3.91666zm-3.39137-1.09667q0-.94-.55294-1.51137-.54372-.58059-1.42843-.58059-.95842 0-1.55744.54373-.59902.53451-.74647 1.54823z"/><path d="M298.63247 178.50119V183.92h-3.29921v-14.24742h3.29921v1.51137q.68196-.90314 1.51137-1.32706.82941-.43313 1.90764-.43313 1.90765 0 3.13333 1.52058 1.22568 1.51137 1.22568 3.89823 0 2.38686-1.22568 3.90744-1.22568 1.51137-3.13333 1.51137-1.07823 0-1.90764-.42392-.82941-.43314-1.51137-1.33627zm2.19333-6.68136q-1.0598 0-1.63117.78333-.56216.77412-.56216 2.23941t.56216 2.24862q.57137.77412 1.63117.77412t1.61274-.77412q.56216-.77412.56216-2.24862 0-1.47451-.56216-2.24862-.55294-.77412-1.61274-.77412z"/><path d="M316.51086 172.48336q-.43314-.20275-.86627-.2949-.42392-.10138-.85706-.10138-1.27176 0-1.96294.8202-.68196.81098-.68196 2.33156v4.75529h-3.2992v-10.32155h3.2992v1.69568q.63589-1.01372 1.45608-1.4745.82941-.47 1.98137-.47.16588 0 .35941.0184.19353.009.56215.0553z"/><path d="M323.06321 171.78297q-1.09667 0-1.67725.79254-.57138.78334-.57138 2.26706t.57138 2.27627q.58058.78333 1.67725.78333 1.07823 0 1.6496-.78333.57137-.79255.57137-2.27627t-.57137-2.26706q-.57137-.79254-1.6496-.79254zm0-2.35921q2.66332 0 4.15626 1.43764 1.50216 1.43764 1.50216 3.98117 0 2.54352-1.50216 3.98117-1.49294 1.43764-4.15626 1.43764-2.67255 0-4.18392-1.43764-1.50215-1.43765-1.50215-3.98117 0-2.54353 1.50215-3.98117 1.51137-1.43764 4.18392-1.43764z"/><path d="M338.14002 171.18395v-5.5294h3.31764v14.33958h-3.31764v-1.49294q-.68195.91235-1.50215 1.33627-.82019.42392-1.89843.42392-1.90764 0-3.13332-1.51137-1.22569-1.52058-1.22569-3.90744 0-2.38686 1.22569-3.89823 1.22568-1.52058 3.13332-1.52058 1.06902 0 1.88922.43313.82941.42392 1.51136 1.32706zm-2.17489 6.68136q1.0598 0 1.61274-.77412.56215-.77412.56215-2.24862 0-1.47451-.56215-2.24862-.55294-.77412-1.61274-.77412-1.05059 0-1.61274.77412-.55294.77411-.55294 2.24862 0 1.4745.55294 2.24862.56215.77412 1.61274.77412z"/><path d="M344.51728 175.97609v-6.30351h3.31764v1.03215q0 .83863-.009 2.11039-.009 1.26255-.009 1.68647 0 1.24411.0645 1.79705.0645.54373.22117.79255.20275.32255.52529.49765.33177.17509.75569.17509 1.03215 0 1.62196-.79254.5898-.79255.5898-2.20255v-5.09626h3.29921v10.32155h-3.29921v-1.49294q-.74647.90313-1.5851 1.33627-.82941.42392-1.83391.42392-1.78784 0-2.72784-1.09666-.93078-1.09667-.93078-3.18863z"/><path d="M366.40447 169.99513v2.69097q-.67274-.46078-1.3547-.68196-.67274-.22117-1.40078-.22117-1.38235 0-2.15647.81098-.7649.80176-.7649 2.24862 0 1.44686.7649 2.25784.77412.80176 2.15647.80176.77412 0 1.46529-.23039.70039-.23039 1.29019-.68196v2.70019q-.77411.28568-1.57587.42392-.79255.14745-1.59431.14745-2.79235 0-4.36823-1.42843-1.57588-1.43764-1.57588-3.99038t1.57588-3.98117q1.57588-1.43764 4.36823-1.43764.81097 0 1.59431.14745.79254.13823 1.57587.42392z"/><path d="M372.85544 166.742v2.93058h3.40058v2.35921h-3.40058v4.37744q0 .71882.28569.97686.28568.24882 1.13353.24882h1.69568v2.35922h-2.82921q-1.95372 0-2.77392-.81098-.81098-.8202-.81098-2.77392v-4.37744h-1.64038v-2.35921h1.64038V166.742z"/><path d="M378.27426 169.67258h3.29921v10.32155h-3.29921zm0-4.01803h3.29921v2.69097h-3.29921z"/><path d="M389.6556 171.78297q-1.09667 0-1.67725.79254-.57137.78334-.57137 2.26706t.57137 2.27627q.58058.78333 1.67725.78333 1.07823 0 1.6496-.78333.57137-.79255.57137-2.27627t-.57137-2.26706q-.57137-.79254-1.6496-.79254zm0-2.35921q2.66333 0 4.15626 1.43764 1.50216 1.43764 1.50216 3.98117 0 2.54352-1.50216 3.98117-1.49293 1.43764-4.15626 1.43764-2.67254 0-4.18391-1.43764-1.50216-1.43765-1.50216-3.98117 0-2.54353 1.50216-3.98117 1.51137-1.43764 4.18391-1.43764z"/><path d="M408.08693 173.70904v6.28509h-3.31764v-4.81058q0-1.33627-.0645-1.84314-.0553-.50686-.20275-.74646-.19353-.32255-.52529-.49765-.33177-.18431-.75569-.18431-1.03215 0-1.62195.80176-.58981.79255-.58981 2.20254v5.07784h-3.29921v-10.32155h3.29921v1.51137q.74647-.90314 1.5851-1.32706.83862-.43313 1.85235-.43313 1.78784 0 2.7094 1.09666.93078 1.09666.93078 3.18862z"/><path d="M425.38475 172.48336q-.43314-.20275-.86628-.2949-.42392-.10138-.85705-.10138-1.27177 0-1.96294.8202-.68196.81098-.68196 2.33156v4.75529h-3.29921v-10.32155h3.29921v1.69568q.63588-1.01372 1.45608-1.4745.82941-.47 1.98136-.47.16589 0 .35941.0184.19353.009.56216.0553z"/><path d="M437.32826 174.80571v.93999h-7.71352q.11981 1.16118.83863 1.74176.71882.58059 2.00902.58059 1.04137 0 2.12881-.30412 1.09667-.31333 2.24863-.93999v2.54352q-1.17039.44235-2.34078.66353-1.17039.23039-2.34078.23039-2.80156 0-4.35901-1.41921-1.54823-1.42843-1.54823-3.9996 0-2.52509 1.52058-3.97195 1.5298-1.44686 4.20235-1.44686 2.43293 0 3.88901 1.46529 1.46529 1.46529 1.46529 3.91666zm-3.39137-1.09667q0-.94-.55294-1.51137-.54372-.58059-1.42843-.58059-.95843 0-1.55744.54373-.59902.53451-.74647 1.54823z"/><path d="M450.20252 173.70904v6.28509h-3.31764v-4.81058q0-1.33627-.0645-1.84314-.0553-.50686-.20274-.74646-.19353-.32255-.5253-.49765-.33176-.18431-.75568-.18431-1.03216 0-1.62196.80176-.5898.79255-.5898 2.20254v5.07784h-3.29921v-10.32155h3.29921v1.51137q.74647-.90314 1.58509-1.32706.83863-.43313 1.85235-.43313 1.78784 0 2.70941 1.09666.93078 1.09666.93078 3.18862z"/><path d="M460.28448 171.18395v-5.5294h3.31764v14.33958h-3.31764v-1.49294q-.68196.91235-1.50215 1.33627-.8202.42392-1.89843.42392-1.90764 0-3.13333-1.51137-1.22568-1.52058-1.22568-3.90744 0-2.38686 1.22568-3.89823 1.22569-1.52058 3.13333-1.52058 1.06902 0 1.88921.43313.82941.42392 1.51137 1.32706zm-2.1749 6.68136q1.0598 0 1.61274-.77412.56216-.77412.56216-2.24862 0-1.47451-.56216-2.24862-.55294-.77412-1.61274-.77412-1.05058 0-1.61274.77412-.55294.77411-.55294 2.24862 0 1.4745.55294 2.24862.56216.77412 1.61274.77412z"/><path d="M477.07542 174.80571v.93999h-7.71351q.1198 1.16118.83862 1.74176.71882.58059 2.00902.58059 1.04137 0 2.12882-.30412 1.09666-.31333 2.24862-.93999v2.54352q-1.17039.44235-2.34078.66353-1.17039.23039-2.34078.23039-2.80156 0-4.35901-1.41921-1.54823-1.42843-1.54823-3.9996 0-2.52509 1.52058-3.97195 1.5298-1.44686 4.20235-1.44686 2.43293 0 3.88901 1.46529 1.46529 1.46529 1.46529 3.91666zm-3.39137-1.09667q0-.94-.55294-1.51137-.54372-.58059-1.42842-.58059-.95843 0-1.55745.54373-.59902.53451-.74647 1.54823z"/><path d="M487.24028 172.48336q-.43314-.20275-.86628-.2949-.42392-.10138-.85705-.10138-1.27177 0-1.96294.8202-.68196.81098-.68196 2.33156v4.75529h-3.29921v-10.32155h3.29921v1.69568q.63588-1.01372 1.45608-1.4745.82941-.47 1.98136-.47.16589 0 .35941.0184.19353.009.56216.0553z"/><path d="M488.88067 169.67258h3.29921v10.32155h-3.29921zm0-4.01803h3.29921v2.69097h-3.29921z"/><path d="M505.7269 173.70904v6.28509h-3.31764v-4.81058q0-1.33627-.0645-1.84314-.0553-.50686-.20274-.74646-.19353-.32255-.52529-.49765-.33177-.18431-.75569-.18431-1.03215 0-1.62196.80176-.5898.79255-.5898 2.20254v5.07784h-3.29921v-10.32155h3.29921v1.51137q.74647-.90314 1.5851-1.32706.83862-.43313 1.85235-.43313 1.78783 0 2.7094 1.09666.93078 1.09666.93078 3.18862z"/><path d="M515.80886 178.24315q-.68196.90313-1.50215 1.32705-.82019.42393-1.89843.42393-1.88921 0-3.12411-1.48373-1.2349-1.49293-1.2349-3.79685 0-2.31313 1.2349-3.78764 1.2349-1.48372 3.12411-1.48372 1.07824 0 1.89843.42392t1.50215 1.33627v-1.5298h3.31764v9.28018q0 2.48822-1.57588 3.79685-1.56666 1.31784-4.55253 1.31784-.96765 0-1.87079-.14745-.90313-.14745-1.81548-.45157v-2.57117q.86627.49765 1.69568.73725.82941.24883 1.66804.24883 1.62195 0 2.37764-.70961.75568-.70961.75568-2.22097zm-2.17489-6.42332q-1.02294 0-1.59431.75568-.57138.75569-.57138 2.13804 0 1.41921.55294 2.15646.55294.72804 1.61275.72804 1.03215 0 1.60352-.75568.57137-.75569.57137-2.12882 0-1.38235-.57137-2.13804-.57137-.75568-1.60352-.75568z"/></g></svg>