<?xml version="1.0" standalone="no"?>
<!DOCTYPE svg PUBLIC "-//W3C//DTD SVG 20010904//EN"
 "http://www.w3.org/TR/2001/REC-SVG-20010904/DTD/svg10.dtd">
<svg version="1.0" xmlns="http://www.w3.org/2000/svg"
 width="48.000000pt" height="48.000000pt" viewBox="0 0 48.000000 48.000000"
 preserveAspectRatio="xMidYMid meet">

<g transform="translate(0.000000,48.000000) scale(0.100000,-0.100000)"
fill="#000000" stroke="none">
<path d="M228 473 c6 -2 18 -2 25 0 6 3 1 5 -13 5 -14 0 -19 -2 -12 -5z"/>
<path d="M152 443 c-19 -7 -4 -23 23 -23 43 0 133 -40 160 -71 30 -37 35 -89
7 -89 -26 0 -42 20 -42 50 0 35 -37 68 -95 86 -71 21 -100 18 -124 -12 -72
-91 -41 -251 59 -301 24 -13 39 -23 32 -23 -20 0 -65 26 -89 52 -32 34 -53 90
-54 145 l-1 48 -10 -40 c-23 -97 2 -181 69 -232 36 -28 38 -28 204 -31 162 -3
168 -3 179 18 13 24 8 182 -8 245 -8 34 -10 23 -11 -75 -1 -76 -5 -120 -13
-128 -8 -8 -50 -11 -132 -10 l-121 2 125 6 125 5 3 110 c4 123 -6 169 -44 215
-40 47 -74 60 -156 59 -40 0 -79 -3 -86 -6z m-4 -134 c-2 -6 -8 -10 -13 -10
-5 0 -11 4 -13 10 -2 6 4 11 13 11 9 0 15 -5 13 -11z m60 -23 c6 -29 -15 -43
-35 -24 -14 14 -14 20 -3 33 16 19 34 15 38 -9z m82 -36 c36 -36 21 -90 -26
-90 -50 0 -67 65 -26 98 21 16 29 15 52 -8z"/>
<path d="M31 334 c0 -11 3 -14 6 -6 3 7 2 16 -1 19 -3 4 -6 -2 -5 -13z"/>
<path d="M441 334 c0 -11 3 -14 6 -6 3 7 2 16 -1 19 -3 4 -6 -2 -5 -13z"/>
</g>
</svg>
