<svg width="57" height="55" version="1.1" xmlns="http://www.w3.org/2000/svg"><path fill="rgb(2,5,44)" stroke="rgb(2,5,44)" stroke-width="1" opacity="1" d="M 42.5 4 L 43.5 6 L 42.5 4 Z "></path><path fill="rgb(2,5,44)" stroke="rgb(2,5,44)" stroke-width="1" opacity="1" d="M 21.5 5 L 23 5.5 L 17.5 8 L 17.5 7 L 21.5 5 Z "></path><path fill="rgb(2,5,44)" stroke="rgb(2,5,44)" stroke-width="1" opacity="1" d="M 24.5 5 L 30.5 6 L 32 7.5 L 30.5 8 L 25.5 7 L 24.5 5 Z "></path><path fill="rgb(2,5,44)" stroke="rgb(2,5,44)" stroke-width="1" opacity="1" d="M 39.5 5 L 40 7.5 L 38.5 11 L 33 8.5 L 39.5 5 Z "></path><path fill="rgb(2,5,44)" stroke="rgb(2,5,44)" stroke-width="1" opacity="1" d="M 43.5 7 Q 45.8 6.3 45 8.5 L 43.5 7 Z "></path><path fill="rgb(2,5,44)" stroke="rgb(2,5,44)" stroke-width="1" opacity="1" d="M 11.5 8 L 16 8.5 L 13 9.5 L 9 15.5 L 7 28.5 L 2 38.5 L 2 42 Q 4.7 40.9 4 43.5 L 4.5 45 L 0 42.5 L 0 40.5 L 4 33.5 L 3.5 32 Q 6.1 32.8 5 29.5 L 7 23.5 L 7 21.5 L 10 11 L 12 10.5 L 11.5 8 Z "></path><path fill="rgb(2,5,44)" stroke="rgb(2,5,44)" stroke-width="1" opacity="1" d="M 50.5 10 L 51 17.5 L 49 18.5 Q 49.8 16.3 47.5 17 L 45 16 L 45.5 13 Q 46.6 15.8 50 15 L 50.5 10 Z "></path><path fill="rgb(2,5,44)" stroke="rgb(2,5,44)" stroke-width="1" opacity="1" d="M 53.5 10 L 55 14.5 L 54 14.5 L 53.5 10 Z "></path><path fill="rgb(2,5,44)" stroke="rgb(2,5,44)" stroke-width="1" opacity="1" d="M 36.5 28 L 37.5 30 L 36.5 28 Z "></path><path fill="rgb(2,5,44)" stroke="rgb(2,5,44)" stroke-width="1" opacity="1" d="M 51.5 29 L 52 30.5 L 50.5 32 L 44.5 33 L 44.5 30 L 51 31 L 51.5 29 Z "></path><path fill="rgb(2,5,44)" stroke="rgb(2,5,44)" stroke-width="1" opacity="1" d="M 31 30 L 33 30.5 L 32.5 33 L 31 30 Z "></path><path fill="rgb(2,5,44)" stroke="rgb(2,5,44)" stroke-width="1" opacity="1" d="M 34.5 41 L 36 41.5 L 32.5 45 L 31 43.5 L 34.5 41 Z "></path><path fill="rgb(2,5,44)" stroke="rgb(2,5,44)" stroke-width="1" opacity="1" d="M 6.5 46 L 10 47 L 7.5 52 L 6.5 50 Q 8.8 50.8 8 48.5 L 6.5 46 Z "></path><path fill="rgb(2,5,44)" stroke="rgb(2,5,44)" stroke-width="1" opacity="1" d="M 4.5 52 L 6 52.5 L 3.5 54 L 4.5 52 Z "></path><path fill="rgb(2,5,44)" stroke="rgb(2,5,44)" stroke-width="1" opacity="1" d="M 0.5 53 L 1.5 55 L 0.5 53 Z "></path><path fill="rgb(250,252,244)" stroke="rgb(250,252,244)" stroke-width="1" opacity="1" d="M 24.5 8 L 28 9.5 L 27.5 12 L 25.5 12 Q 22.2 13.1 23 10.5 L 21 10.5 L 24.5 8 Z "></path><path fill="rgb(250,252,244)" stroke="rgb(250,252,244)" stroke-width="1" opacity="1" d="M 17.5 11 L 19 13.5 L 18 13.5 L 17.5 11 Z "></path><path fill="rgb(250,252,244)" stroke="rgb(250,252,244)" stroke-width="1" opacity="1" d="M 15.5 12 L 17 14.5 L 14 17.5 L 15 18.5 L 14.5 20 L 12 16.5 L 15.5 12 Z "></path><path fill="rgb(250,252,244)" stroke="rgb(250,252,244)" stroke-width="1" opacity="1" d="M 7 35 Q 9.7 33.9 9 36.5 L 12 40.5 L 10 41.5 L 10.5 43 L 6 39.5 L 7 35 Z "></path><path fill="rgb(247,253,253)" stroke="rgb(247,253,253)" stroke-width="1" opacity="1" d="M 34.5 10 L 35.5 12 Q 33.3 11.3 34 13.5 Q 32.3 16.8 30.5 13 L 28.5 14 L 28 11.5 L 29.5 12 L 32.5 13 L 34.5 10 Z "></path><path fill="rgb(247,253,253)" stroke="rgb(247,253,253)" stroke-width="1" opacity="1" d="M 26.5 11 L 25.5 13 L 22 14 L 22.5 12 L 24.5 12 L 26.5 11 Z "></path><path fill="rgb(247,253,253)" stroke="rgb(247,253,253)" stroke-width="1" opacity="1" d="M 20.5 13 L 21 16 L 23.5 17 L 26.5 16 L 26.5 17 L 22.5 18 L 20.5 18 L 17 15.5 L 20.5 13 Z "></path><path fill="rgb(247,253,253)" stroke="rgb(247,253,253)" stroke-width="1" opacity="1" d="M 11.5 14 L 12 16.5 Q 12.7 19.1 10 18 L 11.5 14 Z "></path><path fill="rgb(247,253,253)" stroke="rgb(247,253,253)" stroke-width="1" opacity="1" d="M 45.5 17 L 46.5 20 L 48 19.5 Q 46.3 22.8 44.5 19 L 43 18.5 L 45.5 17 Z "></path><path fill="rgb(247,253,253)" stroke="rgb(247,253,253)" stroke-width="1" opacity="1" d="M 27.5 18 L 31 20 L 31.5 18 L 32 19.5 L 30.5 22 L 27.5 18 Z "></path><path fill="rgb(247,253,253)" stroke="rgb(247,253,253)" stroke-width="1" opacity="1" d="M 22.5 19 L 26 24.5 Q 22.5 26 25 27.5 L 24.5 29 L 21 26.5 Q 24 25.5 23 20.5 L 22.5 19 Z "></path><path fill="rgb(247,253,253)" stroke="rgb(247,253,253)" stroke-width="1" opacity="1" d="M 20.5 29 L 24 30.5 L 20 32 L 21 35.5 L 19 34.5 L 21 30.5 L 20.5 29 Z "></path><path fill="rgb(247,253,253)" stroke="rgb(247,253,253)" stroke-width="1" opacity="1" d="M 8.5 30 Q 10.8 29.3 10 31.5 L 8.5 30 Z "></path><path fill="rgb(247,253,253)" stroke="rgb(247,253,253)" stroke-width="1" opacity="1" d="M 11.5 30 L 17 33.5 L 16 36.5 L 11.5 47 L 10 43.5 L 12 42.5 L 11 39.5 Q 10 35 12.5 34 L 14.5 34 L 16 33.5 L 12.5 32 L 11 32.5 L 11.5 30 Z "></path><path fill="rgb(247,253,253)" stroke="rgb(247,253,253)" stroke-width="1" opacity="1" d="M 23.5 32 L 24 35.5 L 22 34.5 L 23.5 32 Z "></path><path fill="rgb(247,253,253)" stroke="rgb(247,253,253)" stroke-width="1" opacity="1" d="M 4 36 Q 7 35 6 38 Q 3 39 4 36 Z "></path><path fill="rgb(247,253,253)" stroke="rgb(247,253,253)" stroke-width="1" opacity="1" d="M 6.5 42 L 9 43.5 L 7 44.5 L 7.5 43 L 6.5 42 Z "></path><path fill="rgb(6,4,70)" stroke="rgb(6,4,70)" stroke-width="1" opacity="1" d="M 0 0 L 15.5 0 L 16 1.5 L 17 1.5 Q 16.3 -0.8 18.5 0 Q 19.3 3.8 24.5 3 L 24.5 2 L 21 0.5 L 22.5 1 L 24.5 0 L 41 0 Q 41.1 4.9 37.5 7 L 32.5 8 L 31.5 5 L 27.5 6 L 24.5 5 Q 23 7.5 21.5 4 Q 17.5 3.5 17 6.5 L 16.5 8 L 11 8 L 11 9.5 Q 7.9 11.3 9.5 13 L 8 13.5 L 8 15.5 Q 8.8 20.8 6 22.5 Q 8.5 24 5 25.5 L 6 28.5 L 3.5 32 L 2 32.5 L 2 34.5 L 0.5 39 L 0 34.5 L 0 32.5 L 1 28.5 L 0 26.5 L 1 24.5 L 0 19 Q 5.6 20.9 4 16 L 0 15.5 L 0 0 Z M 35 3 L 33 7 L 37 5 L 35 3 Z M 3 25 L 1 27 Q 0 29 3 28 L 3 31 L 4 31 L 3 25 Z "></path><path fill="rgb(6,4,70)" stroke="rgb(6,4,70)" stroke-width="1" opacity="1" d="M 42.5 0 L 44.5 0 L 57 0 L 57 28 L 54.5 27 L 54 28.5 L 54.5 30 L 52 28.5 L 56 22.5 L 55 18.5 Q 57.5 17 54 15.5 L 56 13.5 L 55 10 L 52 9.5 L 52.5 8 Q 50.3 7.3 51 9.5 L 50 15 Q 45.1 16.8 47 10.5 L 47.5 9 L 45 9.5 L 46 12.5 L 44 11.5 L 45 7 L 42 5.5 L 42 3.5 L 42.5 0 Z M 45 1 L 46 3 L 48 2 L 45 1 Z M 46 4 L 45 7 L 46 7 L 46 4 Z "></path><path fill="rgb(6,4,70)" stroke="rgb(6,4,70)" stroke-width="1" opacity="1" d="M 2.5 46 L 8 48 Q 9.1 50.7 6.5 50 L 6.5 52 L 4.5 51 L 2 52.5 L 2.5 54 L 0 52.5 L 2 51.5 L 0 50.5 L 5 49.5 L 0 47.5 L 1.5 48 L 4 47.5 L 2.5 46 Z "></path><path fill="rgb(210,229,240)" stroke="rgb(210,229,240)" stroke-width="1" opacity="1" d="M 41.5 5 L 42 7.5 L 41 7.5 L 41.5 5 Z "></path><path fill="rgb(210,229,240)" stroke="rgb(210,229,240)" stroke-width="1" opacity="1" d="M 14.5 10 L 13.5 12 L 14.5 10 Z "></path><path fill="rgb(210,229,240)" stroke="rgb(210,229,240)" stroke-width="1" opacity="1" d="M 22.5 14 L 21.5 16 L 22.5 14 Z "></path><path fill="rgb(210,229,240)" stroke="rgb(210,229,240)" stroke-width="1" opacity="1" d="M 31.5 14 L 33.5 17 L 31.5 14 Z "></path><path fill="rgb(210,229,240)" stroke="rgb(210,229,240)" stroke-width="1" opacity="1" d="M 17.5 16 L 20.5 20 L 17.5 16 Z "></path><path fill="rgb(210,229,240)" stroke="rgb(210,229,240)" stroke-width="1" opacity="1" d="M 32.5 19 L 35 19.5 L 32.5 20 L 32.5 19 Z "></path><path fill="rgb(210,229,240)" stroke="rgb(210,229,240)" stroke-width="1" opacity="1" d="M 41.5 20 L 46 23.5 L 42.5 26 L 43 24.5 L 41.5 22 L 40 22.5 L 41 24.5 L 39.5 24 Q 37.3 23.3 38 25.5 L 37 25.5 L 39 21 L 41.5 20 Z "></path><path fill="rgb(210,229,240)" stroke="rgb(210,229,240)" stroke-width="1" opacity="1" d="M 11.5 22 Q 13.8 21.3 13 23.5 L 10 23.5 L 11.5 22 Z "></path><path fill="rgb(210,229,240)" stroke="rgb(210,229,240)" stroke-width="1" opacity="1" d="M 25.5 26 L 26 30.5 L 25 30.5 L 25.5 26 Z "></path><path fill="rgb(210,229,240)" stroke="rgb(210,229,240)" stroke-width="1" opacity="1" d="M 9.5 28 L 13 29.5 L 10.5 30 L 9.5 28 Z "></path><path fill="rgb(210,229,240)" stroke="rgb(210,229,240)" stroke-width="1" opacity="1" d="M 18.5 32 L 20 36.5 L 18 37 L 18.5 32 Z "></path><path fill="rgb(210,229,240)" stroke="rgb(210,229,240)" stroke-width="1" opacity="1" d="M 24 32 Q 26.7 30.9 26 33.5 L 26 35.5 L 25.5 37 L 24 32 Z "></path><path fill="rgb(210,229,240)" stroke="rgb(210,229,240)" stroke-width="1" opacity="1" d="M 15.5 39 L 16 42.5 Q 13.2 44.3 17.5 46 L 19 46.5 L 14 48 L 13 44.5 L 14 42.5 Q 11.3 40.7 15.5 39 Z "></path><path fill="rgb(83,93,127)" stroke="rgb(83,93,127)" stroke-width="1" opacity="1" d="M 40.5 3 L 41 5.5 L 40 5.5 L 40.5 3 Z "></path><path fill="rgb(83,93,127)" stroke="rgb(83,93,127)" stroke-width="1" opacity="1" d="M 12.5 11 L 11.5 13 L 12.5 11 Z "></path><path fill="rgb(83,93,127)" stroke="rgb(83,93,127)" stroke-width="1" opacity="1" d="M 37.5 11 L 37 12.5 L 36.5 14 L 36 12.5 L 37.5 11 Z "></path><path fill="rgb(83,93,127)" stroke="rgb(83,93,127)" stroke-width="1" opacity="1" d="M 51 11 L 53 11.5 L 51.5 17 L 51 11 Z "></path><path fill="rgb(83,93,127)" stroke="rgb(83,93,127)" stroke-width="1" opacity="1" d="M 53.5 18 L 54 19.5 L 52.5 22 L 49 19.5 L 50.5 20 Q 54 21 53.5 18 Z "></path><path fill="rgb(83,93,127)" stroke="rgb(83,93,127)" stroke-width="1" opacity="1" d="M 42.5 30 L 43.5 32 L 41 31.5 L 42.5 30 Z "></path><path fill="rgb(83,93,127)" stroke="rgb(83,93,127)" stroke-width="1" opacity="1" d="M 17.5 38 L 21 39.5 L 18.5 40 L 17.5 38 Z "></path><path fill="rgb(83,93,127)" stroke="rgb(83,93,127)" stroke-width="1" opacity="1" d="M 36.5 39 L 37.5 41 L 36.5 39 Z "></path><path fill="rgb(83,93,127)" stroke="rgb(83,93,127)" stroke-width="1" opacity="1" d="M 40.5 41 L 38.5 44 L 40.5 41 Z "></path><path fill="rgb(83,93,127)" stroke="rgb(83,93,127)" stroke-width="1" opacity="1" d="M 42.5 42 Q 49.8 41.8 52 46.5 L 49.5 52 L 42.5 53 L 39 50.5 L 39.5 48 L 42 48 L 42.5 50 L 47 50 L 47 46 L 41 46 L 41 43.5 L 42.5 42 Z "></path><path fill="rgb(83,93,127)" stroke="rgb(83,93,127)" stroke-width="1" opacity="1" d="M 34.5 44 L 35.5 46 L 34.5 44 Z "></path><path fill="rgb(83,93,127)" stroke="rgb(83,93,127)" stroke-width="1" opacity="1" d="M 23 46 L 25 46.5 L 23.5 49 L 23 46 Z "></path><path fill="rgb(83,93,127)" stroke="rgb(83,93,127)" stroke-width="1" opacity="1" d="M 28.5 50 L 29 51.5 L 27 52.5 L 28.5 50 Z "></path><path fill="rgb(177,226,241)" stroke="rgb(177,226,241)" stroke-width="1" opacity="1" d="M 40.5 7 L 42 9.5 L 40 8.5 L 40.5 7 Z "></path><path fill="rgb(177,226,241)" stroke="rgb(177,226,241)" stroke-width="1" opacity="1" d="M 39.5 10 L 40.5 12 L 39.5 10 Z "></path><path fill="rgb(177,226,241)" stroke="rgb(177,226,241)" stroke-width="1" opacity="1" d="M 39.5 13 L 39 14.5 L 38.5 16 L 38 14.5 L 39.5 13 Z "></path><path fill="rgb(177,226,241)" stroke="rgb(177,226,241)" stroke-width="1" opacity="1" d="M 24.5 14 L 26 14.5 L 23.5 16 L 24.5 14 Z "></path><path fill="rgb(177,226,241)" stroke="rgb(177,226,241)" stroke-width="1" opacity="1" d="M 27.5 14 Q 31.9 12.5 31 15.5 L 29.5 15 Q 26.5 15.5 27.5 14 Z "></path><path fill="rgb(177,226,241)" stroke="rgb(177,226,241)" stroke-width="1" opacity="1" d="M 36.5 14 L 37 16.5 L 36 16.5 L 36.5 14 Z "></path><path fill="rgb(177,226,241)" stroke="rgb(177,226,241)" stroke-width="1" opacity="1" d="M 32.5 16 L 34.5 19 Q 32.3 19.8 33 17.5 L 32.5 16 Z "></path><path fill="rgb(177,226,241)" stroke="rgb(177,226,241)" stroke-width="1" opacity="1" d="M 48.5 19 L 51 22.5 L 48.5 27 L 47 27.5 L 47.5 29 L 45.5 30 L 46 28.5 Q 44.9 25.2 47.5 26 L 47.5 25 L 42.5 27 L 42.5 26 Q 45.1 26.7 44 24 L 46.5 24 L 46.5 23 L 45 22.5 L 46.5 22 Q 47.8 24.3 49 21.5 L 48.5 19 Z "></path><path fill="rgb(177,226,241)" stroke="rgb(177,226,241)" stroke-width="1" opacity="1" d="M 34.5 22 L 35.5 24 L 34.5 22 Z "></path><path fill="rgb(177,226,241)" stroke="rgb(177,226,241)" stroke-width="1" opacity="1" d="M 40.5 22 L 43 23 L 42.5 25 L 40.5 22 Z "></path><path fill="rgb(177,226,241)" stroke="rgb(177,226,241)" stroke-width="1" opacity="1" d="M 29.5 23 Q 32.3 24.3 30 25.5 Q 30.8 31.3 28.5 34 L 28 31.5 L 29 29.5 L 28 25.5 L 29.5 23 Z "></path><path fill="rgb(177,226,241)" stroke="rgb(177,226,241)" stroke-width="1" opacity="1" d="M 9.5 24 L 11.5 27 Q 13.8 26.3 13 28.5 L 13.5 30 Q 11.3 25.8 9 27.5 L 8 25.5 L 9.5 24 Z "></path><path fill="rgb(177,226,241)" stroke="rgb(177,226,241)" stroke-width="1" opacity="1" d="M 12.5 24 L 15 27.5 L 14 27.5 L 12.5 24 Z "></path><path fill="rgb(177,226,241)" stroke="rgb(177,226,241)" stroke-width="1" opacity="1" d="M 30.5 33 L 31 38 L 28.5 39 L 28 35.5 L 30 35.5 L 30.5 33 Z "></path><path fill="rgb(177,226,241)" stroke="rgb(177,226,241)" stroke-width="1" opacity="1" d="M 37.5 33 L 38 38 L 35.5 39 L 34 38.5 Q 34.8 41.1 31.5 40 L 34.5 36 L 37 34.5 L 37.5 33 Z "></path><path fill="rgb(177,226,241)" stroke="rgb(177,226,241)" stroke-width="1" opacity="1" d="M 25.5 34 L 24.5 36 L 25.5 34 Z "></path><path fill="rgb(177,226,241)" stroke="rgb(177,226,241)" stroke-width="1" opacity="1" d="M 24.5 37 Q 27.5 36.2 26 40 Q 22.3 41.5 23 38.5 L 24.5 37 Z "></path><path fill="rgb(177,226,241)" stroke="rgb(177,226,241)" stroke-width="1" opacity="1" d="M 18.5 40 L 19 46 L 16.5 45 L 15.5 47 L 14 44.5 L 16.5 41 L 18 41.5 L 18.5 40 Z "></path><path fill="rgb(177,226,241)" stroke="rgb(177,226,241)" stroke-width="1" opacity="1" d="M 27 42 L 29 42.5 L 28 43.5 L 31 46.5 Q 31.8 49.1 28.5 48 L 24 44.5 L 27 44 L 27 42 Z "></path><path fill="rgb(177,226,241)" stroke="rgb(177,226,241)" stroke-width="1" opacity="1" d="M 38.5 44 Q 40.8 43.3 40 45.5 L 38.5 44 Z "></path><path fill="rgb(177,226,241)" stroke="rgb(177,226,241)" stroke-width="1" opacity="1" d="M 18.5 47 L 19 49.5 L 17 49.5 L 16.5 51 L 15 48.5 L 18.5 47 Z "></path><path fill="rgb(177,226,241)" stroke="rgb(177,226,241)" stroke-width="1" opacity="1" d="M 24.5 47 L 27.5 51 L 24 49.5 L 24.5 47 Z "></path><path fill="rgb(177,226,241)" stroke="rgb(177,226,241)" stroke-width="1" opacity="1" d="M 10 49 L 13 50.5 L 12.5 52 Q 16.3 51.3 17 53.5 L 16.5 55 L 14.5 55 L 12.5 54 L 9.5 55 L 7 52.5 L 10 51.5 L 10 49 Z "></path><path fill="rgb(177,226,241)" stroke="rgb(177,226,241)" stroke-width="1" opacity="1" d="M 25.5 53 L 26 55 L 20 54.5 L 25.5 53 Z "></path><path fill="rgb(147,189,208)" stroke="rgb(147,189,208)" stroke-width="1" opacity="1" d="M 41.5 10 L 42 12.5 L 39 14.5 L 41.5 10 Z "></path><path fill="rgb(147,189,208)" stroke="rgb(147,189,208)" stroke-width="1" opacity="1" d="M 31.5 15 L 33 18.5 L 32 18.5 L 31.5 15 Z "></path><path fill="rgb(147,189,208)" stroke="rgb(147,189,208)" stroke-width="1" opacity="1" d="M 35.5 15 L 35 16.5 L 34.5 18 L 34 16.5 L 35.5 15 Z "></path><path fill="rgb(147,189,208)" stroke="rgb(147,189,208)" stroke-width="1" opacity="1" d="M 37.5 15 L 38 16.5 L 36 17.5 L 37.5 15 Z "></path><path fill="rgb(147,189,208)" stroke="rgb(147,189,208)" stroke-width="1" opacity="1" d="M 16.5 17 L 21 22.5 L 19 21.5 L 16.5 17 Z "></path><path fill="rgb(147,189,208)" stroke="rgb(147,189,208)" stroke-width="1" opacity="1" d="M 47.5 17 L 48.5 19 L 47.5 17 Z "></path><path fill="rgb(147,189,208)" stroke="rgb(147,189,208)" stroke-width="1" opacity="1" d="M 15.5 20 L 16 25.5 L 15 25.5 L 15.5 20 Z "></path><path fill="rgb(147,189,208)" stroke="rgb(147,189,208)" stroke-width="1" opacity="1" d="M 50.5 21 L 51 23.5 L 50.5 26 L 49 22.5 L 50.5 21 Z "></path><path fill="rgb(147,189,208)" stroke="rgb(147,189,208)" stroke-width="1" opacity="1" d="M 11.5 23 L 14 28.5 L 13 28.5 Q 13.8 26.3 11.5 27 L 10 24.5 L 11.5 23 Z "></path><path fill="rgb(147,189,208)" stroke="rgb(147,189,208)" stroke-width="1" opacity="1" d="M 54.5 23 L 53.5 25 L 54.5 23 Z "></path><path fill="rgb(147,189,208)" stroke="rgb(147,189,208)" stroke-width="1" opacity="1" d="M 30.5 25 L 33 26.5 L 30.5 28 L 30.5 25 Z "></path><path fill="rgb(147,189,208)" stroke="rgb(147,189,208)" stroke-width="1" opacity="1" d="M 15.5 31 Q 18.5 31.5 18 35.5 L 17 35.5 L 15.5 31 Z "></path><path fill="rgb(147,189,208)" stroke="rgb(147,189,208)" stroke-width="1" opacity="1" d="M 36.5 34 L 36.5 37 Q 33.5 35.5 36.5 34 Z "></path><path fill="rgb(147,189,208)" stroke="rgb(147,189,208)" stroke-width="1" opacity="1" d="M 31.5 36 Q 34.5 37.5 31.5 39 L 27 40 L 27.5 38 L 29.5 38 Q 32 38.7 31.5 36 Z "></path><path fill="rgb(147,189,208)" stroke="rgb(147,189,208)" stroke-width="1" opacity="1" d="M 19.5 40 L 20 43.5 L 19 43.5 L 19.5 40 Z "></path><path fill="rgb(147,189,208)" stroke="rgb(147,189,208)" stroke-width="1" opacity="1" d="M 23.5 40 L 26 40.5 Q 22.9 42.3 24.5 44 L 23 42.5 L 23.5 40 Z "></path><path fill="rgb(147,189,208)" stroke="rgb(147,189,208)" stroke-width="1" opacity="1" d="M 31.5 41 L 32.5 43 L 31.5 41 Z "></path><path fill="rgb(147,189,208)" stroke="rgb(147,189,208)" stroke-width="1" opacity="1" d="M 4.5 42 L 5.5 44 L 4.5 42 Z "></path><path fill="rgb(147,189,208)" stroke="rgb(147,189,208)" stroke-width="1" opacity="1" d="M 28.5 43 Q 30.8 42.3 30 44.5 L 30.5 46 L 28.5 43 Z "></path><path fill="rgb(147,189,208)" stroke="rgb(147,189,208)" stroke-width="1" opacity="1" d="M 37.5 45 L 40 46.5 L 37.5 48 L 37.5 45 Z "></path><path fill="rgb(147,189,208)" stroke="rgb(147,189,208)" stroke-width="1" opacity="1" d="M 13.5 48 L 14.5 52 Q 12.3 52.8 13 50.5 Q 10.8 49.3 13.5 48 Z "></path><path fill="rgb(147,189,208)" stroke="rgb(147,189,208)" stroke-width="1" opacity="1" d="M 17.5 49 Q 20.5 50.5 17.5 52 L 17.5 49 Z "></path><path fill="rgb(147,189,208)" stroke="rgb(147,189,208)" stroke-width="1" opacity="1" d="M 21.5 51 L 25 53.5 L 20 54 L 21.5 51 Z "></path><path fill="rgb(147,189,208)" stroke="rgb(147,189,208)" stroke-width="1" opacity="1" d="M 26 53 L 31 54.5 L 29.5 55 L 27.5 55 Q 24.9 55.7 26 53 Z "></path><path fill="rgb(252,253,254)" stroke="rgb(252,253,254)" stroke-width="1" opacity="1" d="M 22.5 7 Q 25.1 6.3 24 9 L 19 10.5 L 20 13.5 L 19 13.5 L 18.5 12 L 15.5 18 L 14 17.5 L 16 17 L 17 13.5 Q 13.2 11.8 16.5 10 L 22.5 7 Z "></path><path fill="rgb(252,253,254)" stroke="rgb(252,253,254)" stroke-width="1" opacity="1" d="M 25.5 8 L 28 8.5 L 25.5 9 L 25.5 8 Z "></path><path fill="rgb(252,253,254)" stroke="rgb(252,253,254)" stroke-width="1" opacity="1" d="M 29.5 9 L 34 10.5 L 29.5 12 L 27 10.5 L 29.5 9 Z "></path><path fill="rgb(252,253,254)" stroke="rgb(252,253,254)" stroke-width="1" opacity="1" d="M 27.5 16 L 31 17.5 L 30.5 20 L 26.5 18 L 26.5 20 L 25 20.5 L 25.5 22 L 24 20.5 L 25.5 17 L 27.5 16 Z "></path><path fill="rgb(252,253,254)" stroke="rgb(252,253,254)" stroke-width="1" opacity="1" d="M 12.5 17 L 15 21.5 L 13.5 21 L 10 22 Q 9 19 12 20 L 12.5 17 Z "></path><path fill="rgb(252,253,254)" stroke="rgb(252,253,254)" stroke-width="1" opacity="1" d="M 21 27 Q 23.7 25.9 23 28.5 L 21 29.5 L 21 27 Z "></path><path fill="rgb(252,253,254)" stroke="rgb(252,253,254)" stroke-width="1" opacity="1" d="M 7 31 L 9.5 32 L 11.5 31 L 14 32 L 15 35.5 L 13 36.5 Q 15.3 35.3 12.5 34 L 10.5 38 L 9 35 Q 5.7 33.7 7 38.5 L 11 41.5 L 10 44.5 L 10.5 46 L 5 42.5 L 3 38.5 L 6 37.5 L 5 35.5 L 7 31 Z M 7 41 Q 5 44 8 43 L 7 41 Z "></path><path fill="rgb(252,253,254)" stroke="rgb(252,253,254)" stroke-width="1" opacity="1" d="M 22.5 31 L 23 32.5 L 21.5 35 L 23 35.5 L 21 36.5 L 20.5 35 L 19 35.5 L 22.5 31 Z "></path><path fill="rgb(231,243,248)" stroke="rgb(231,243,248)" stroke-width="1" opacity="1" d="M 20.5 10 L 21 12.5 L 20 12.5 L 20.5 10 Z "></path><path fill="rgb(231,243,248)" stroke="rgb(231,243,248)" stroke-width="1" opacity="1" d="M 33.5 11 L 32.5 13 L 33.5 11 Z "></path><path fill="rgb(231,243,248)" stroke="rgb(231,243,248)" stroke-width="1" opacity="1" d="M 14.5 12 L 15.5 14 L 14.5 12 Z "></path><path fill="rgb(231,243,248)" stroke="rgb(231,243,248)" stroke-width="1" opacity="1" d="M 28 15 L 30 15.5 L 28 16.5 L 28 15 Z "></path><path fill="rgb(231,243,248)" stroke="rgb(231,243,248)" stroke-width="1" opacity="1" d="M 45.5 16 L 44.5 18 L 45.5 16 Z "></path><path fill="rgb(231,243,248)" stroke="rgb(231,243,248)" stroke-width="1" opacity="1" d="M 20.5 18 L 21.5 20 L 20.5 18 Z "></path><path fill="rgb(231,243,248)" stroke="rgb(231,243,248)" stroke-width="1" opacity="1" d="M 23.5 18 Q 30 21 24.5 24 L 26 21.5 L 24.5 20 Q 21.7 20.7 23.5 18 Z "></path><path fill="rgb(231,243,248)" stroke="rgb(231,243,248)" stroke-width="1" opacity="1" d="M 26.5 18 L 27.5 20 L 26.5 18 Z "></path><path fill="rgb(231,243,248)" stroke="rgb(231,243,248)" stroke-width="1" opacity="1" d="M 43.5 19 L 46.5 21 L 46.5 22 Q 43.2 23.1 44 20.5 L 42 20.5 L 43.5 19 Z "></path><path fill="rgb(231,243,248)" stroke="rgb(231,243,248)" stroke-width="1" opacity="1" d="M 9.5 20 L 11 22.5 L 9 21.5 L 9.5 20 Z "></path><path fill="rgb(231,243,248)" stroke="rgb(231,243,248)" stroke-width="1" opacity="1" d="M 33.5 20 L 34.5 22 L 33.5 20 Z "></path><path fill="rgb(231,243,248)" stroke="rgb(231,243,248)" stroke-width="1" opacity="1" d="M 12.5 21 Q 14.8 20.3 14 22.5 L 12.5 21 Z "></path><path fill="rgb(231,243,248)" stroke="rgb(231,243,248)" stroke-width="1" opacity="1" d="M 8.5 27 L 11 30.5 L 9.5 30 L 7.5 31 L 8 29.5 L 8.5 27 Z "></path><path fill="rgb(231,243,248)" stroke="rgb(231,243,248)" stroke-width="1" opacity="1" d="M 23.5 28 L 25 30.5 L 23 31.5 L 23 29.5 L 23.5 28 Z "></path><path fill="rgb(231,243,248)" stroke="rgb(231,243,248)" stroke-width="1" opacity="1" d="M 13.5 30 L 14.5 32 L 13.5 30 Z "></path><path fill="rgb(231,243,248)" stroke="rgb(231,243,248)" stroke-width="1" opacity="1" d="M 22.5 36 L 24 36.5 L 22 37 L 21.5 39 L 21 37.5 L 22.5 36 Z "></path><path fill="rgb(231,243,248)" stroke="rgb(231,243,248)" stroke-width="1" opacity="1" d="M 4.5 38 L 3.5 40 L 4.5 38 Z "></path><path fill="rgb(231,243,248)" stroke="rgb(231,243,248)" stroke-width="1" opacity="1" d="M 15.5 38 L 14.5 40 L 15.5 38 Z "></path><path fill="rgb(231,243,248)" stroke="rgb(231,243,248)" stroke-width="1" opacity="1" d="M 6.5 53 L 7.5 55 Q 4.7 55.7 6.5 53 Z "></path><path fill="rgb(46,59,105)" stroke="rgb(46,59,105)" stroke-width="1" opacity="1" d="M 42.5 13 L 43 14.5 L 37 19.5 L 36.5 23 L 36 18 L 42 14.5 L 42.5 13 Z "></path><path fill="rgb(46,59,105)" stroke="rgb(46,59,105)" stroke-width="1" opacity="1" d="M 17.5 17 L 16.5 19 L 17.5 17 Z "></path><path fill="rgb(46,59,105)" stroke="rgb(46,59,105)" stroke-width="1" opacity="1" d="M 53 20 L 55 20.5 L 52.5 24 Q 49.9 24.8 51 21.5 L 53 21.5 L 53 20 Z "></path><path fill="rgb(46,59,105)" stroke="rgb(46,59,105)" stroke-width="1" opacity="1" d="M 19.5 23 L 21 26.5 L 18.5 28 L 19 26.5 L 19.5 23 Z "></path><path fill="rgb(46,59,105)" stroke="rgb(46,59,105)" stroke-width="1" opacity="1" d="M 27.5 25 L 28 27.5 L 27 27.5 L 27.5 25 Z "></path><path fill="rgb(46,59,105)" stroke="rgb(46,59,105)" stroke-width="1" opacity="1" d="M 35.5 25 L 38 26 L 37.5 28 Q 35.7 24.9 34 26.5 L 35.5 25 Z "></path><path fill="rgb(46,59,105)" stroke="rgb(46,59,105)" stroke-width="1" opacity="1" d="M 51.5 25 L 52.5 27 L 51.5 25 Z "></path><path fill="rgb(46,59,105)" stroke="rgb(46,59,105)" stroke-width="1" opacity="1" d="M 35.5 28 L 36 30.5 Q 36.8 33.1 33.5 32 L 34 30.5 L 35.5 28 Z "></path><path fill="rgb(46,59,105)" stroke="rgb(46,59,105)" stroke-width="1" opacity="1" d="M 39.5 28 L 42 29.5 L 40.5 29 L 39.5 28 Z "></path><path fill="rgb(46,59,105)" stroke="rgb(46,59,105)" stroke-width="1" opacity="1" d="M 30.5 29 L 31 31.5 L 30 31.5 L 30.5 29 Z "></path><path fill="rgb(46,59,105)" stroke="rgb(46,59,105)" stroke-width="1" opacity="1" d="M 27.5 31 L 28 34.5 L 27 34.5 L 27.5 31 Z "></path><path fill="rgb(46,59,105)" stroke="rgb(46,59,105)" stroke-width="1" opacity="1" d="M 54 31 L 57 32.5 L 57 52.5 L 56 55 L 40.5 55 L 38 54 L 37.5 52 L 35 53.5 L 35.5 55 L 33.5 54 L 32 54.5 Q 31.2 51.9 34.5 53 L 34.5 52 L 31 50.5 L 32.5 50 L 34 50.5 L 32 45.5 L 34 44.5 L 34.5 49 L 35.5 47 L 36.5 49 L 38 48.5 Q 36.9 51.8 39.5 51 Q 41.5 54 47.5 53 L 51 50.5 L 52 46.5 Q 49.8 41.8 42.5 42 Q 39.9 43.4 40.5 48 L 40 42.5 L 41 40.5 Q 38.4 39.1 39 34.5 L 40 34.5 L 40.5 38 L 41.5 36 L 42.5 38 L 44 37.5 Q 43.3 40.1 46 39 L 46.5 35 L 47 37 Q 51.7 36.6 54 32.5 L 54 31 Z "></path><path fill="rgb(46,59,105)" stroke="rgb(46,59,105)" stroke-width="1" opacity="1" d="M 39.5 32 L 44 33 Q 45.1 36.3 41 35 Q 42.1 32.3 39.5 33 L 39.5 32 Z "></path><path fill="rgb(46,59,105)" stroke="rgb(46,59,105)" stroke-width="1" opacity="1" d="M 32.5 33 L 36 33.5 L 32.5 34 L 32.5 33 Z "></path><path fill="rgb(46,59,105)" stroke="rgb(46,59,105)" stroke-width="1" opacity="1" d="M 37.5 39 Q 40.1 38.2 39 41.5 Q 37.3 44.8 35.5 41 L 34 40.5 L 35.5 40 L 38 41.5 L 37.5 39 Z "></path><path fill="rgb(46,59,105)" stroke="rgb(46,59,105)" stroke-width="1" opacity="1" d="M 23.5 41 L 24.5 43 L 23.5 41 Z "></path><path fill="rgb(46,59,105)" stroke="rgb(46,59,105)" stroke-width="1" opacity="1" d="M 4.5 43 L 5.5 45 L 4.5 43 Z "></path><path fill="rgb(46,59,105)" stroke="rgb(46,59,105)" stroke-width="1" opacity="1" d="M 21.5 44 L 23 46.5 L 21 45.5 L 21.5 44 Z "></path><path fill="rgb(46,59,105)" stroke="rgb(46,59,105)" stroke-width="1" opacity="1" d="M 12.5 48 L 14.5 51 L 12.5 48 Z "></path><path fill="rgb(46,59,105)" stroke="rgb(46,59,105)" stroke-width="1" opacity="1" d="M 22.5 48 L 24.5 51 Q 22.3 51.8 23 49.5 L 22.5 48 Z "></path><path fill="rgb(46,59,105)" stroke="rgb(46,59,105)" stroke-width="1" opacity="1" d="M 16.5 51 L 17.5 53 L 16.5 51 Z "></path><path fill="rgb(46,59,105)" stroke="rgb(46,59,105)" stroke-width="1" opacity="1" d="M 28.5 52 L 31 52.5 L 28.5 53 L 28.5 52 Z "></path><path fill="rgb(15,13,79)" stroke="rgb(15,13,79)" stroke-width="1" opacity="1" d="M 19.5 0 L 21.5 1 L 23.5 0 L 23.5 1 L 22 1.5 L 25 2.5 L 21.5 3 L 19.5 0 Z "></path><path fill="rgb(15,13,79)" stroke="rgb(15,13,79)" stroke-width="1" opacity="1" d="M 45 1 L 48 1.5 L 45.5 3 L 45 1 Z "></path><path fill="rgb(15,13,79)" stroke="rgb(15,13,79)" stroke-width="1" opacity="1" d="M 34.5 3 L 37 4.5 L 33 7 L 34.5 3 Z "></path><path fill="rgb(15,13,79)" stroke="rgb(15,13,79)" stroke-width="1" opacity="1" d="M 19.5 4 L 22 4.5 L 17.5 7 L 19.5 4 Z "></path><path fill="rgb(15,13,79)" stroke="rgb(15,13,79)" stroke-width="1" opacity="1" d="M 45.5 4 L 46 6.5 L 45 6.5 L 45.5 4 Z "></path><path fill="rgb(15,13,79)" stroke="rgb(15,13,79)" stroke-width="1" opacity="1" d="M 52.5 8 L 52.5 11 Q 49.5 9.5 52.5 8 Z "></path><path fill="rgb(15,13,79)" stroke="rgb(15,13,79)" stroke-width="1" opacity="1" d="M 45.5 9 L 48 9.5 L 46.5 14 L 45.5 9 Z "></path><path fill="rgb(15,13,79)" stroke="rgb(15,13,79)" stroke-width="1" opacity="1" d="M 8.5 10 L 10.5 10 L 12 10.5 L 9.5 12 L 8.5 10 Z "></path><path fill="rgb(15,13,79)" stroke="rgb(15,13,79)" stroke-width="1" opacity="1" d="M 54.5 10 L 56 13.5 L 55 13.5 L 54.5 10 Z "></path><path fill="rgb(15,13,79)" stroke="rgb(15,13,79)" stroke-width="1" opacity="1" d="M 0 16 Q 5.6 14.1 4 19 Q -1.6 20.9 0 16 Z "></path><path fill="rgb(15,13,79)" stroke="rgb(15,13,79)" stroke-width="1" opacity="1" d="M 0.5 24 L 1.5 26 L 4.5 24 L 6 27.5 L 5 27.5 Q 6 23.8 3 25 L 5 31.5 L 3 30.5 Q 4 26.8 1 28 L 0.5 30 L 0 28.5 L 1 26.5 L 0.5 24 Z "></path><path fill="rgb(15,13,79)" stroke="rgb(15,13,79)" stroke-width="1" opacity="1" d="M 54.5 25 L 55.5 28 Q 58.5 27.1 57 31.5 L 55.5 31 Q 53.3 30.3 54 32.5 Q 51.7 36.5 47 37 L 46.5 35 L 46 39 Q 43.3 40.1 44 37.5 L 42 37.5 L 44 33 L 50.5 32 L 52 30.5 L 52.5 29 L 54.5 30 L 54 28.5 L 53 26.5 L 54.5 25 Z "></path><path fill="rgb(15,13,79)" stroke="rgb(15,13,79)" stroke-width="1" opacity="1" d="M 2.5 32 Q 5.2 33.3 3 34.5 L 2.5 36 L 2 34.5 L 2.5 32 Z "></path><path fill="rgb(15,13,79)" stroke="rgb(15,13,79)" stroke-width="1" opacity="1" d="M 1.5 43 L 5.5 46 L 7 45.5 L 6.5 48 L 4.5 47 L 1 48.5 L 5 49.5 L 0 50 L 1 47.5 L 0.5 46 Q 2.8 46.8 2 44.5 L 0 44.5 L 1.5 43 Z "></path><path fill="rgb(15,13,79)" stroke="rgb(15,13,79)" stroke-width="1" opacity="1" d="M 34.5 48 L 34 49.5 L 33.5 51 L 33 49.5 L 34.5 48 Z "></path><path fill="rgb(15,13,79)" stroke="rgb(15,13,79)" stroke-width="1" opacity="1" d="M 0.5 51 L 3.5 52 L 5.5 51 L 5.5 52 L 2 53.5 L 2.5 55 L 1.5 52 L 0.5 51 Z "></path><path fill="rgb(15,13,79)" stroke="rgb(15,13,79)" stroke-width="1" opacity="1" d="M 35.5 53 L 38.5 54 L 40 54.5 L 36.5 55 L 35.5 53 Z "></path><path fill="rgb(228,253,254)" stroke="rgb(228,253,254)" stroke-width="1" opacity="1" d="M 40.5 9 L 41 10.5 L 38.5 14 L 37 13.5 L 39 13 L 40.5 9 Z "></path><path fill="rgb(228,253,254)" stroke="rgb(228,253,254)" stroke-width="1" opacity="1" d="M 26.5 12 L 27.5 14 L 24 13.5 L 26.5 12 Z "></path><path fill="rgb(228,253,254)" stroke="rgb(228,253,254)" stroke-width="1" opacity="1" d="M 21.5 17 L 22.5 19 Q 19.7 19.7 21.5 17 Z "></path><path fill="rgb(228,253,254)" stroke="rgb(228,253,254)" stroke-width="1" opacity="1" d="M 42.5 19 L 43.5 21 L 42.5 19 Z "></path><path fill="rgb(228,253,254)" stroke="rgb(228,253,254)" stroke-width="1" opacity="1" d="M 31 20 L 33.5 21 Q 34.8 18.8 36 21.5 L 34.5 24 L 35 22.5 L 34.5 21 L 31 23 L 31 20 Z "></path><path fill="rgb(228,253,254)" stroke="rgb(228,253,254)" stroke-width="1" opacity="1" d="M 47.5 20 L 48.5 22 Q 45.7 22.7 47.5 20 Z "></path><path fill="rgb(228,253,254)" stroke="rgb(228,253,254)" stroke-width="1" opacity="1" d="M 38.5 22 L 37.5 24 L 38.5 22 Z "></path><path fill="rgb(228,253,254)" stroke="rgb(228,253,254)" stroke-width="1" opacity="1" d="M 13 23 Q 16 21.8 15 25.5 L 13 24.5 L 13 23 Z "></path><path fill="rgb(228,253,254)" stroke="rgb(228,253,254)" stroke-width="1" opacity="1" d="M 24.5 24 Q 27.5 25.5 24.5 27 L 24.5 24 Z "></path><path fill="rgb(228,253,254)" stroke="rgb(228,253,254)" stroke-width="1" opacity="1" d="M 49.5 26 L 50 28.5 L 49 28.5 L 49.5 26 Z "></path><path fill="rgb(228,253,254)" stroke="rgb(228,253,254)" stroke-width="1" opacity="1" d="M 29.5 31 L 30 35.5 L 28 34.5 L 29.5 31 Z "></path><path fill="rgb(228,253,254)" stroke="rgb(228,253,254)" stroke-width="1" opacity="1" d="M 23.5 37 L 23 38.5 L 22.5 40 L 22 38.5 L 23.5 37 Z "></path><path fill="rgb(228,253,254)" stroke="rgb(228,253,254)" stroke-width="1" opacity="1" d="M 12 45 Q 15 43.8 14 47.5 L 15.5 50 L 12 48 L 12 45 Z "></path><path fill="rgb(228,253,254)" stroke="rgb(228,253,254)" stroke-width="1" opacity="1" d="M 9.5 51 L 12.5 54 L 13.5 53 L 16 54.5 L 14.5 54 L 12.5 55 L 8.5 55 L 7 53.5 L 9.5 51 Z "></path><path fill="rgb(7,35,62)" stroke="rgb(7,35,62)" stroke-width="1" opacity="1" d="M 44.5 15 L 41.5 19 L 44.5 15 Z "></path><path fill="rgb(7,35,62)" stroke="rgb(7,35,62)" stroke-width="1" opacity="1" d="M 27.5 21 L 28 23.5 L 27 23.5 L 27.5 21 Z "></path><path fill="rgb(7,35,62)" stroke="rgb(7,35,62)" stroke-width="1" opacity="1" d="M 36.5 23 L 35.5 25 L 36.5 23 Z "></path><path fill="rgb(7,35,62)" stroke="rgb(7,35,62)" stroke-width="1" opacity="1" d="M 35.5 26 L 36.5 28 Q 33.7 28.7 35.5 26 Z "></path><path fill="rgb(7,35,62)" stroke="rgb(7,35,62)" stroke-width="1" opacity="1" d="M 36.5 29 L 37 31.5 L 36 31.5 L 36.5 29 Z "></path><path fill="rgb(7,35,62)" stroke="rgb(7,35,62)" stroke-width="1" opacity="1" d="M 42.5 29 L 45 29.5 L 42.5 30 L 42.5 29 Z "></path><path fill="rgb(7,35,62)" stroke="rgb(7,35,62)" stroke-width="1" opacity="1" d="M 33.5 30 L 32.5 32 L 33.5 30 Z "></path><path fill="rgb(7,35,62)" stroke="rgb(7,35,62)" stroke-width="1" opacity="1" d="M 44.5 31 L 43.5 33 L 42 32.5 L 44.5 31 Z "></path><path fill="rgb(7,35,62)" stroke="rgb(7,35,62)" stroke-width="1" opacity="1" d="M 26.5 37 L 27 40.5 L 26 40.5 L 26.5 37 Z "></path><path fill="rgb(7,35,62)" stroke="rgb(7,35,62)" stroke-width="1" opacity="1" d="M 29.5 40 L 32 40.5 L 29.5 41 L 29.5 40 Z "></path><path fill="rgb(7,35,62)" stroke="rgb(7,35,62)" stroke-width="1" opacity="1" d="M 20.5 41 L 24 45.5 L 21 44.5 L 20.5 46 L 20 44.5 L 20 42.5 L 20.5 41 Z "></path><path fill="rgb(7,35,62)" stroke="rgb(7,35,62)" stroke-width="1" opacity="1" d="M 19.5 49 L 20 51.5 L 19 51.5 L 19.5 49 Z "></path><path fill="rgb(7,35,62)" stroke="rgb(7,35,62)" stroke-width="1" opacity="1" d="M 28.5 49 L 31 50.5 L 30.5 52 L 28.5 49 Z "></path><path fill="rgb(7,35,62)" stroke="rgb(7,35,62)" stroke-width="1" opacity="1" d="M 38 49 L 40 49.5 L 38 50.5 L 38 49 Z "></path><path fill="rgb(7,35,62)" stroke="rgb(7,35,62)" stroke-width="1" opacity="1" d="M 37.5 52 L 36.5 54 L 37.5 52 Z "></path><path fill="rgb(66,109,144)" stroke="rgb(66,109,144)" stroke-width="1" opacity="1" d="M 38.5 11 L 37.5 13 L 38.5 11 Z "></path><path fill="rgb(66,109,144)" stroke="rgb(66,109,144)" stroke-width="1" opacity="1" d="M 43.5 11 L 44 14.5 Q 42 19 40 15.5 L 43 14.5 L 42 12.5 L 43.5 11 Z "></path><path fill="rgb(66,109,144)" stroke="rgb(66,109,144)" stroke-width="1" opacity="1" d="M 37.5 17 L 40 17.5 L 39 20 L 37 19.5 L 37.5 17 Z "></path><path fill="rgb(66,109,144)" stroke="rgb(66,109,144)" stroke-width="1" opacity="1" d="M 19.5 19 L 18.5 21 L 19.5 19 Z "></path><path fill="rgb(66,109,144)" stroke="rgb(66,109,144)" stroke-width="1" opacity="1" d="M 16.5 21 L 18 23.5 L 16.5 26 L 16.5 21 Z "></path><path fill="rgb(66,109,144)" stroke="rgb(66,109,144)" stroke-width="1" opacity="1" d="M 39.5 29 L 41 32 L 39 32.5 L 39.5 34 L 37.5 31 Q 40 31.7 39.5 29 Z "></path><path fill="rgb(66,109,144)" stroke="rgb(66,109,144)" stroke-width="1" opacity="1" d="M 31.5 33 L 32.5 35 L 34.5 34 L 34.5 35 Q 32.3 34.3 33 36.5 L 32 36.5 L 31.5 33 Z "></path><path fill="rgb(66,109,144)" stroke="rgb(66,109,144)" stroke-width="1" opacity="1" d="M 26.5 34 L 27.5 36 Q 24.7 36.7 26.5 34 Z "></path><path fill="rgb(66,109,144)" stroke="rgb(66,109,144)" stroke-width="1" opacity="1" d="M 38.5 36 L 39 37.5 L 37 38.5 L 38.5 36 Z "></path><path fill="rgb(66,109,144)" stroke="rgb(66,109,144)" stroke-width="1" opacity="1" d="M 32.5 41 L 30.5 44 L 32.5 41 Z "></path><path fill="rgb(66,109,144)" stroke="rgb(66,109,144)" stroke-width="1" opacity="1" d="M 37.5 41 L 38.5 43 L 37.5 41 Z "></path><path fill="rgb(66,109,144)" stroke="rgb(66,109,144)" stroke-width="1" opacity="1" d="M 23.5 44 L 22.5 46 L 23.5 44 Z "></path><path fill="rgb(66,109,144)" stroke="rgb(66,109,144)" stroke-width="1" opacity="1" d="M 36 44 L 38 44.5 L 36 45.5 L 36 44 Z "></path><path fill="rgb(66,109,144)" stroke="rgb(66,109,144)" stroke-width="1" opacity="1" d="M 32.5 46 L 33 49 L 31 48.5 L 32.5 46 Z "></path><path fill="rgb(66,109,144)" stroke="rgb(66,109,144)" stroke-width="1" opacity="1" d="M 41.5 46 L 44 46.5 L 41.5 47 L 41.5 46 Z "></path><path fill="rgb(66,109,144)" stroke="rgb(66,109,144)" stroke-width="1" opacity="1" d="M 21 47 L 23 47.5 L 23 49.5 L 22.5 51 L 21 47 Z "></path><path fill="rgb(66,109,144)" stroke="rgb(66,109,144)" stroke-width="1" opacity="1" d="M 19.5 52 L 18.5 54 L 19.5 52 Z "></path><path fill="rgb(103,134,163)" stroke="rgb(103,134,163)" stroke-width="1" opacity="1" d="M 42.5 8 L 43 11.5 L 42 11.5 L 42.5 8 Z "></path><path fill="rgb(103,134,163)" stroke="rgb(103,134,163)" stroke-width="1" opacity="1" d="M 41.5 13 L 38.5 17 L 41.5 13 Z "></path><path fill="rgb(103,134,163)" stroke="rgb(103,134,163)" stroke-width="1" opacity="1" d="M 43.5 15 L 42.5 17 L 43.5 15 Z "></path><path fill="rgb(103,134,163)" stroke="rgb(103,134,163)" stroke-width="1" opacity="1" d="M 40.5 17 L 42 19.5 L 40.5 19 L 39 18.5 L 40.5 17 Z "></path><path fill="rgb(103,134,163)" stroke="rgb(103,134,163)" stroke-width="1" opacity="1" d="M 50.5 18 L 53 19.5 L 50 20 L 50.5 18 Z "></path><path fill="rgb(103,134,163)" stroke="rgb(103,134,163)" stroke-width="1" opacity="1" d="M 16.5 20 Q 18.8 19.3 18 21.5 L 16.5 20 Z "></path><path fill="rgb(103,134,163)" stroke="rgb(103,134,163)" stroke-width="1" opacity="1" d="M 18.5 23 L 18 24.5 L 19 26.5 L 17 31 L 19 31.5 L 17.5 32 L 15 31 L 15 26 Q 17.7 27.1 17 24.5 L 18.5 23 Z "></path><path fill="rgb(103,134,163)" stroke="rgb(103,134,163)" stroke-width="1" opacity="1" d="M 26.5 24 L 27 26.5 L 26 26.5 L 26.5 24 Z "></path><path fill="rgb(103,134,163)" stroke="rgb(103,134,163)" stroke-width="1" opacity="1" d="M 34.5 24 L 35 25.5 L 35 27.5 Q 35.8 30.1 32.5 29 L 32.5 28 L 34 27.5 L 34 25.5 L 34.5 24 Z "></path><path fill="rgb(103,134,163)" stroke="rgb(103,134,163)" stroke-width="1" opacity="1" d="M 40.5 25 L 39.5 27 L 40.5 25 Z "></path><path fill="rgb(103,134,163)" stroke="rgb(103,134,163)" stroke-width="1" opacity="1" d="M 26.5 28 L 27 33.5 L 26 33.5 L 26.5 28 Z "></path><path fill="rgb(103,134,163)" stroke="rgb(103,134,163)" stroke-width="1" opacity="1" d="M 46.5 30 L 49 30.5 L 46.5 31 L 46.5 30 Z "></path><path fill="rgb(103,134,163)" stroke="rgb(103,134,163)" stroke-width="1" opacity="1" d="M 36.5 33 L 33.5 37 L 33 35 L 36.5 33 Z "></path><path fill="rgb(103,134,163)" stroke="rgb(103,134,163)" stroke-width="1" opacity="1" d="M 35.5 39 L 36.5 41 L 35.5 39 Z "></path><path fill="rgb(103,134,163)" stroke="rgb(103,134,163)" stroke-width="1" opacity="1" d="M 3.5 40 Q 5.8 39.3 5 41.5 L 3.5 40 Z "></path><path fill="rgb(103,134,163)" stroke="rgb(103,134,163)" stroke-width="1" opacity="1" d="M 40.5 40 L 39.5 42 L 40.5 40 Z "></path><path fill="rgb(103,134,163)" stroke="rgb(103,134,163)" stroke-width="1" opacity="1" d="M 36.5 43 L 38 43.5 L 35.5 45 L 36.5 43 Z "></path><path fill="rgb(103,134,163)" stroke="rgb(103,134,163)" stroke-width="1" opacity="1" d="M 19.5 44 L 20 46.5 L 19 46.5 L 19.5 44 Z "></path><path fill="rgb(103,134,163)" stroke="rgb(103,134,163)" stroke-width="1" opacity="1" d="M 30.5 44 L 32 47.5 L 31.5 50 L 29 48.5 L 31 48 L 30.5 44 Z "></path><path fill="rgb(103,134,163)" stroke="rgb(103,134,163)" stroke-width="1" opacity="1" d="M 24.5 45 L 25.5 47 L 24.5 45 Z "></path><path fill="rgb(103,134,163)" stroke="rgb(103,134,163)" stroke-width="1" opacity="1" d="M 44.5 46 L 45.5 48 L 46.5 46 L 47 47.5 L 46 50 L 42 50 L 42 48.5 L 41.5 47 L 44.5 46 Z "></path><path fill="rgb(103,134,163)" stroke="rgb(103,134,163)" stroke-width="1" opacity="1" d="M 11.5 47 L 12 49 L 10 48.5 L 11.5 47 Z "></path><path fill="rgb(103,134,163)" stroke="rgb(103,134,163)" stroke-width="1" opacity="1" d="M 39.5 47 L 38.5 49 L 39.5 47 Z "></path><path fill="rgb(103,134,163)" stroke="rgb(103,134,163)" stroke-width="1" opacity="1" d="M 21.5 49 L 22 51 L 26 52.5 L 24.5 53 L 22.5 52 Q 21.3 54.3 20 51.5 L 21.5 49 Z "></path><path fill="rgb(103,134,163)" stroke="rgb(103,134,163)" stroke-width="1" opacity="1" d="M 29.5 53 L 28.5 55 L 29.5 53 Z "></path></svg>