<?xml version="1.0" standalone="no"?>
<!DOCTYPE svg PUBLIC "-//W3C//DTD SVG 20010904//EN"
 "http://www.w3.org/TR/2001/REC-SVG-20010904/DTD/svg10.dtd">
<svg version="1.0" xmlns="http://www.w3.org/2000/svg"
 width="763.000000pt" height="763.000000pt" viewBox="0 0 763.000000 763.000000"
 preserveAspectRatio="xMidYMid meet">

<g transform="translate(0.000000,763.000000) scale(0.100000,-0.100000)"
fill="#000000" stroke="none">
<path d="M2015 7620 c-1202 -5 -1211 -5 -1286 -27 -369 -105 -626 -375 -700
-736 -17 -84 -18 -243 -25 -3056 -6 -2852 -6 -2969 12 -3041 16 -64 19 -127
22 -417 l3 -343 3759 0 3759 0 4 298 3 297 30 85 29 85 0 3050 0 3050 -29 85
-30 85 -3 298 -4 297 -2167 -2 c-1192 -2 -2711 -5 -3377 -8z m1988 -1365 c189
-33 363 -122 499 -254 65 -65 2400 -2895 2541 -3080 137 -180 206 -434 179
-660 -53 -449 -389 -788 -838 -843 -250 -30 -524 55 -722 225 -51 44 -317 360
-924 1097 -469 570 -867 1053 -883 1074 l-30 37 -902 -1044 c-496 -574 -924
-1064 -950 -1088 -161 -150 -363 -234 -593 -246 -136 -7 -228 6 -355 48 -238
79 -428 246 -540 474 -76 153 -99 253 -99 425 0 199 45 352 147 506 28 44 636
755 1350 1581 1398 1618 1355 1572 1527 1658 185 93 394 125 593 90z"/>
</g>
</svg>
