<svg id="Layer_1" data-name="Layer 1" xmlns="http://www.w3.org/2000/svg" viewBox="0 0 500 507.84384"><defs><style>.cls-1{fill:#465755;}.cls-2{fill:#445553;}.cls-3{fill:#415350;}.cls-4{fill:#485957;}.cls-5{fill:#354644;}.cls-6{fill:#3a4b49;}.cls-7{fill:#3f514e;}.cls-8{fill:#3c4d4b;}.cls-9{fill:#334542;}.cls-10{fill:#374846;}.cls-11{fill:#fdfdfd;}.cls-12{fill:#3e4f4d;}.cls-13{fill:#394a48;}.cls-14{fill:#3d4f4c;}.cls-15{fill:#fefefe;}.cls-16{fill:#485a57;}.cls-17{fill:#445452;}.cls-18{fill:#3f4f4d;}.cls-19{fill:#4b5c5a;}.cls-20{fill:#72c1a1;}.cls-21{fill:#74c4a4;}.cls-22{fill:#76c5a5;}.cls-23{fill:#374745;}.cls-24{fill:#334341;}.cls-25{fill:#3a4b48;}.cls-26{fill:#6bbb9a;}.cls-27{fill:#6ebe9d;}.cls-28{fill:#6fbf9e;}.cls-29{fill:#5aa989;}.cls-30{fill:#57a686;}.cls-31{fill:#334442;}.cls-32{fill:#69b898;}.cls-33{fill:#4d5e5c;}.cls-34{fill:#627371;}.cls-35{fill:#526361;}.cls-36{fill:#64b393;}.cls-37{fill:#65b595;}.cls-38{fill:#67b696;}.cls-39{fill:#61b090;}.cls-40{fill:#5dac8c;}.cls-41{fill:#5eae8e;}.cls-42{fill:#425351;}.cls-43{fill:#46adad;}.cls-44{fill:#52cac2;}.cls-45{fill:#70bc9e;}.cls-46{fill:#79c8a8;}.cls-47{fill:#7bcaaa;}.cls-48{fill:#54ccc4;}.cls-49{fill:#56cdc5;}.cls-50{fill:#56cec6;}.cls-51{fill:#30403e;}.cls-52{fill:#50615f;}.cls-53{fill:#5bd3cb;}.cls-54{fill:#85d6c6;}.cls-55{fill:#566866;}.cls-56{fill:#596a68;}.cls-57{fill:#5b6c6a;}.cls-58{fill:#5c6e6b;}.cls-59{fill:#5e6f6d;}.cls-60{fill:#546563;}.cls-61{fill:#5f706e;}.cls-62{fill:#60716f;}.cls-63{fill:#617270;}.cls-64{fill:#49b1b0;}.cls-65{fill:#6ab497;}.cls-66{fill:#59d1c9;}.cls-67{fill:#59d0c8;}.cls-68{fill:#7fd5cb;}.cls-69{fill:#5dd5cd;}.cls-70{fill:#c076e5;}.cls-71{fill:#7fc4c3;}.cls-72{fill:#94e0db;}.cls-73{fill:#91dbd5;}.cls-74{fill:#86d7d4;}.cls-75{fill:#56bebe;}.cls-76{fill:#7ec3c3;}.cls-77{fill:#7fc3c3;}.cls-78{fill:#75bcbb;}.cls-79{fill:#87d6ce;}.cls-80{fill:#4a5b59;}.cls-81{fill:#4cb5b4;}.cls-82{fill:#4ab3b2;}.cls-83{fill:#4bb4b3;}.cls-84{fill:#65b8b7;}.cls-85{fill:#74c0bf;}.cls-86{fill:#bf75e4;}.cls-87{fill:#52b9b5;}.cls-88{fill:#51b9b8;}.cls-89{fill:#4fb7b7;}.cls-90{fill:#5fd7cf;}.cls-91{fill:#6adbd6;}.cls-92{fill:#62c3c2;}.cls-93{fill:#61d9d1;}.cls-94{fill:#54bcbb;}</style></defs><title>aton</title><path class="cls-1" d="M94.05963,492.7051H63.96055c-1.2242-.62518-2.733-.105-3.89915-.96662-1.06405-1.5396-.19413-2.79343.66833-3.98111a35.84437,35.84437,0,0,1,3.86671-4.10064q99.74041-99.74926,199.48818-199.49112c4.49145-4.49141,4.45655-4.47059.88239-9.73926-1.08-1.592-2.64359-3.08111-1.99169-5.35227.4193-.64388.9968-.57432,1.60754-.36068a2.415,2.415,0,0,1,.70332.533,6.53078,6.53078,0,0,0,2.0818,2.11542c3.48545,4.17432,6.96415,8.35289,10.15018,12.76668,1.38742,3.66015,4.178,6.42605,6.262,9.63585,3.32558,5.12222,3.39537,6.70486-.96132,11.06325Q190.53364,397.1488,98.242,489.46365A41.61832,41.61832,0,0,1,94.05963,492.7051Z"/><path class="cls-2" d="M94.05963,492.7051c.23887-1.73315,1.67677-2.59375,2.75825-3.67565q92.66767-92.70678,185.36274-185.38608c3.86941-3.86945,3.70273-4.765.66392-9.5562-2.04851-3.22978-5.06038-5.8257-6.30846-9.56815,1.30065-.59443,1.87991.38145,2.55675,1.16539,4.2164,4.88379,8.03305,10.08742,12.06142,15.12159a52.50266,52.50266,0,0,1,4.48727,5.61446,9.07138,9.07138,0,0,0,2.65886,3.81792,2.83957,2.83957,0,0,1,.4265.76884c.82024,2.58968,2.85623,4.50155,3.75109,7.13159a4.987,4.987,0,0,1-.88173,5.45641c-.81891.95129-1.72831,1.81653-2.61477,2.703q-81.45961,81.45863-162.89772,162.93869a33.4864,33.4864,0,0,1-4.40027,3.46822Z"/><path class="cls-3" d="M131.68348,492.7051c.23941-1.73453,1.67876-2.59559,2.76113-3.67841Q216.883,406.5485,299.34931,324.09826c3.22151-3.22157,3.36178-5.00892.69117-8.85487-.94218-1.3568-2.222-2.5432-2.18513-4.38679,2.85261-.11055,3.195,2.87518,5.00355,4.05276,2.56879,4.19,5.98842,7.7426,8.80743,11.75007,2.1523,3.05967,4.11142,6.2533,6.456,9.18306,1.39128,1.73855.90009,3.54017-.26875,5.20646a27.05222,27.05222,0,0,1-3.202,3.43431q-72.56706,72.60257-145.14694,145.19235a18.91111,18.91111,0,0,1-3.9597,3.02949Z"/><path class="cls-4" d="M490.36421,66.92851v.62706c-1.74326,2.08611-3.70023,3.96737-5.61935,5.88618q-57.19594,57.18735-114.387,114.37956-1.21922,1.21918-2.439,2.4378c-5.3292,5.30318-6.511,5.27143-11.399-.31489a4.45348,4.45348,0,0,0-3.135-1.85657c-2.249-.93355-3.46466-3.049-5.21381-4.55744a3.91481,3.91481,0,0,1-.47145-.7119,7.81165,7.81165,0,0,0-2.68439-3.55395,3.47364,3.47364,0,0,1-.55285-.66415c-1.80859-3.31025-4.76954-5.66928-7.0668-8.574-.95544-1.20812-2.10172-2.3422-1.72308-4.11363.50367-1.01505,1.32118-.84107,2.1411-.53146a7.69639,7.69639,0,0,1,2.33251,1.55562c4.87054,4.31468,4.87161,4.31632,9.39394-.20529q60.80849-60.79912,121.607-121.60819c.81234-.81205,1.6191-1.6298,2.43982-2.43331,3.69667-3.61891,4.38226-3.66893,8.402-.63283,5.59658,6.79755,7.69019,14.80327,8.06128,23.40126C490.07207,65.96648,489.96231,66.50189,490.36421,66.92851Z"/><path class="cls-5" d="M490.36421,357.8863v44.52156a29.76867,29.76867,0,0,1-4.811,5.71469q-39.90988,39.86178-79.77168,79.77172a29.75969,29.75969,0,0,1-5.71454,4.81083H355.54541c-.59511-1.17329.1514-1.99341.78222-2.81053a24.5185,24.5185,0,0,1,2.1589-2.2702q63.39662-63.40019,126.82351-126.77C486.68545,359.48121,487.74649,357.27,490.36421,357.8863Z"/><path class="cls-6" d="M304.7532,492.7051H257.72339c-.98073-1.19541-.21433-2.15851.4685-3.07354a30.34938,30.34938,0,0,1,3.01434-3.17666q46.164-46.15634,92.32051-92.32013a28.99527,28.99527,0,0,1,2.2214-2.20329c2.14922-1.72554,2.473-3.43313.8283-5.87077-1.449-2.14772-2.66215-4.44931-4.31853-6.48336-.9432-1.15822-2.20594-2.37706-1.26255-4.1762,1.72278-.72718,2.49724.63442,3.18791,1.66813a18.06132,18.06132,0,0,0,3.12392,3.37112,17.85634,17.85634,0,0,1,1.505,2.17157,10.39617,10.39617,0,0,0,3.71293,4.00645A68.679,68.679,0,0,0,374.447,396.737a31.62036,31.62036,0,0,0,10.50984,6.58391c5.03,2.06337,5.6722,4.3222,1.8123,8.21973-12.55059,12.67294-25.20952,25.23814-37.81434,37.85724q-19.23894,19.26075-38.48775,38.51159A29.01872,29.01872,0,0,1,304.7532,492.7051Z"/><path class="cls-7" d="M165.545,492.7051c.692-1.82665,2.12688-3.06861,3.45476-4.39641Q242.019,415.29135,315.03663,342.27235c3.711-3.71106,3.57162-4.45624.41381-8.5683-4.11894-5.36377-7.78591-11.07061-12.26526-16.16939a7.73709,7.73709,0,0,1-.941-2.2872c.13578-.06525.27153-.13053.40715-.1971a2.40879,2.40879,0,0,1,2.0544,1.21582c5.7827,7.8315,12.43419,14.98319,17.99236,22.991,1.49564,3.63253,4.77138,6.04717,6.51862,9.51076.18241.36164.55207.62473.77156.98262,3.79639,6.19057,2.85756,6.64043-.964,10.46226q-46.1023,46.10541-92.20663,92.20886-17.7347,17.72982-35.45191,35.47709a29.282,29.282,0,0,1-5.7217,4.80635Z"/><path class="cls-2" d="M490.36421,97.65465v36.36973a29.41374,29.41374,0,0,1-4.79916,5.71124Q442.50464,182.7527,399.47836,225.804q-.55308.55335-1.10654,1.1063c-5.39205,5.37672-7.07086,5.30408-11.85632-.55564a8.96686,8.96686,0,0,0-3.903-2.4599c-3.23621-1.82974-4.64974-5.43807-7.48412-7.66575-.35988-.44449-.69917-.90554-1.02694-1.37486a7.85811,7.85811,0,0,0-2.68217-3.55744,3.43585,3.43585,0,0,1-.55067-.65588c-.87163-2.07883-3.356-3.29226-3.19893-5.92684.72408-1.30195,1.709-.92666,2.653-.35184a11.78175,11.78175,0,0,1,1.95445,1.5589c3.60864,3.42969,3.61825,3.43318,7.22877-.17705q52.4736-52.46931,104.97465-104.911C486.06145,99.25583,487.34045,96.72692,490.36421,97.65465Z"/><path class="cls-1" d="M490.36421,97.65465a12.41359,12.41359,0,0,0-4.17635,3.231q-53.50818,53.5171-107.02356,107.02721c-3.41066,3.41048-3.791,3.31053-7.05761-.3436-1.03942-1.16273-2.0189-2.8109-4.04855-2.59917-1.97753.47491-2.671-1.19276-3.70039-2.2548a26.9149,26.9149,0,0,1-3.30571-4.11222c-1.6974-2.73984-4.32-4.69971-6.16726-7.31295-.82039-1.1606-2.00555-2.19309-1.25608-3.86057,1.09847-1.03748,1.68213.03024,2.301.62435a26.85425,26.85425,0,0,1,2.07811,2.32958c2.87361,3.48752,4.37567,3.58177,7.55757.4002q60.35173-60.34509,120.70565-120.688c1.15385-1.15335,2.118-2.68085,4.09318-2.54014Z"/><path class="cls-8" d="M351.156,375.4441c2.02789,4.09624,5.42327,7.28128,7.46762,11.41365.91193,1.84337,1.032,3.02654-.38935,4.392-.678.65144-1.3283,1.33178-1.99333,1.99685q-47.9945,47.99516-95.98,95.99938c-1.01184,1.01263-2.33767,1.83439-2.53753,3.45911H226.37018c-.75763-1.37246.02867-2.40549.79587-3.4043a33.68169,33.68169,0,0,1,3.02069-3.17658Q284.46016,431.83073,338.749,377.55267c1.034-1.03379,2.05905-2.07573,3.06276-3.13984a3.9299,3.9299,0,0,0,.842-4.65223c-2.03164-3.465-3.41762-7.41431-6.76658-9.99877-1.1803-1.4618-2.763-2.78034-1.85173-5.01338,1.42674-.74712,2.06736.41033,2.853,1.1914,3.25879,3.23992,5.70091,7.1461,8.64318,10.648a61.10467,61.10467,0,0,1,4.54679,5.5363C350.73928,373.12908,351.8239,374.00465,351.156,375.4441Z"/><path class="cls-9" d="M400.067,492.7051c.13633-1.39049,1.21295-2.14344,2.08489-3.01575q42.58981-42.60682,85.19668-85.19669c.87232-.87193,1.62522-1.94851,3.01568-2.0848v38.25091c-.771,7.3718-2.18045,14.52846-5.87781,21.12584-8.10977,14.47066-19.8327,24.47563-35.7523,29.37415-3.78195,1.16369-7.80792.80974-11.67035,1.54634Z"/><path class="cls-10" d="M490.36421,357.8863c-.85923.75474-1.764,1.4639-2.57114,2.27073q-64.99948,64.97733-129.97678,129.97682c-.80683.80721-1.5161,1.712-2.27088,2.57125H334.22522c-.70418-1.39616.17721-2.40067.89689-3.40131a30.96118,30.96118,0,0,1,3.41257-3.66257q37.20293-37.2151,74.40987-74.4261c1.2942-1.29512,3.008-2.40286,2.50145-4.68036.40492-1.29176,1.57451-1.11329,2.55479-1.39069,8.4119-2.3805,16.93009-4.57963,24.11691-9.87856a56.00953,56.00953,0,0,0,18.44167-22.78967,9.89325,9.89325,0,0,0,.6648-3.67624c1.40163-4.9627,3.543-9.74471,4.016-14.93349.467-5.12383,1.12132-10.29252-.73009-15.32036-1.44209-1.11853-.837-2.904-1.4308-4.3-.80951-5.15173-3.21933-9.833-4.37238-14.88282.48672-2.18523,1.61187-2.21689,3.04171-.82924a7.84257,7.84257,0,0,1,1.6628,2.98783c1.29635,3.41368,2.74973,6.762,4.20291,10.11025,1.1152,2.56951,1.42865,2.67319,3.40254.74244,5.07343-4.96271,10.01267-10.0616,15.10244-15.00733,1.12649-1.09459,2.2449-2.67685,4.24493-1.49383Z"/><path class="cls-3" d="M383.08678,223.20733c2.01412-.11012,3.1532,1.37028,4.13413,2.67022a22.51647,22.51647,0,0,0,3.43029,3.14683c1.5016,1.3308,2.81712,1.01767,4.09062-.31937.576-.60477,1.18187-1.181,1.77261-1.77172q45.19185-45.19135,90.39281-90.37361c1.012-1.01114,1.83339-2.33575,3.457-2.5353v33.2344a18.76509,18.76509,0,0,1-3.02613,3.94892q-36.74784,36.68723-73.45339,73.417c-.81093.81112-1.61236,1.632-2.43845,2.42766-3.52482,3.39491-4.87532,3.27046-8.2004-.25115-1.88728-1.99882-3.28459-4.63761-6.25782-5.40217-3.87663-2.96606-6.43487-7.12493-9.65677-10.6878-1.26641-1.37892-2.32917-2.9203-3.50454-4.37167C383.10722,225.45117,382.48088,224.45072,383.08678,223.20733Z"/><path class="cls-11" d="M490.36421,66.92851c-1.34342-2.58775-1.19706-5.53462-1.99211-8.25693-1.68527-5.7703-3.79208-11.34113-7.44945-16.20213-4.98895-5.06083-9.15795-10.94293-15.09512-15.05557-4.20574-4.15377-9.68241-5.96234-14.98544-8.0539a31.37183,31.37183,0,0,0-7.48267-2.13989c-2.80334-1.14557-5.82024-1.15477-8.74613-1.662a22.7149,22.7149,0,0,0-5.30827-.3613q-171.308-.00246-342.616.08666c-8.62542.01-17.3252.00154-25.89687,1.63822A57.332,57.332,0,0,0,14.65727,62.86892a72.14918,72.14918,0,0,0-1.35013,13.06071c-1.04,118.27012-.16371,236.54268-.44824,354.81373a24.34969,24.34969,0,0,0,.35518,5.91834,57.94744,57.94744,0,0,0,5.14437,20.64788,17.36436,17.36436,0,0,0,2.91535,5.09482c3.44678,6.51819,8.796,11.45743,13.89532,16.59332a7.56289,7.56289,0,0,0,2.66744,1.57646,60.4132,60.4132,0,0,0,18.62324,8.68911,6.70454,6.70454,0,0,1,3.7403,2.10046c1.14565.74939,2.7149.31128,3.76045,1.34135-16.72171,0-33.44377-.05105-50.16471.063-2.1497.01466-2.57268-.42395-2.569-2.57133q.11877-70.231.06036-140.46227,0-166.64229-.05879-333.28459c-.00143-2.35108.5296-2.88131,2.8806-2.88035q236.7167.097,473.43341,0c2.351-.001,2.90083.52679,2.88444,2.88076C490.30956,33.27568,490.36421,50.10229,490.36421,66.92851Z"/><path class="cls-10" d="M415.74357,406.79731c1.51063.08393,2.28417.65167,1.21624,2.13406a17.69853,17.69853,0,0,1-1.94247,2.03819q-38.21529,38.22017-76.44366,76.42728a26.60385,26.60385,0,0,0-4.34846,5.30826h-29.472c.19954-1.62357,1.5243-2.44487,2.53542-3.45692q39.19149-39.2277,78.40891-78.42946c3.82451-3.82488,3.57347-4.48811-1.52563-6.761-3.78225-1.68588-7.616-3.42271-10.44163-6.66635a1.62359,1.62359,0,0,1,2.27908-.15772c5.009,3.60072,10.98732,4.871,16.60694,7.00836,5.795,2.13911,11.84441,1.49222,17.82085,1.679C412.23046,405.977,414.19137,405.21545,415.74357,406.79731Z"/><path class="cls-7" d="M397.51994,240.73906c2.13662.00658,3.09827,1.64819,4.23689,3.0441,5.00564,6.13666,5.00576,6.13657,10.50466.63768q36.96634-36.96631,73.93032-73.93506a12.401,12.401,0,0,1,4.1724-3.227v30.72615a29.80308,29.80308,0,0,1-4.80858,5.70956Q456.19054,233.00766,426.86439,262.36c-4.76529,4.76127-5.28607,5.37667-11.10329-.07251-1.27514-1.19446-2.22772-2.81872-4.13861-3.19154a3.21231,3.21231,0,0,1-.78479-.40141,66.5287,66.5287,0,0,1-6.459-7.40673c-1.73752-2.0969-3.81815-3.90235-5.29882-6.21955C398.6351,243.59994,396.62431,242.6883,397.51994,240.73906Z"/><path class="cls-12" d="M334.22557,354.74945c.3515,1.74038,1.69932,2.91169,2.50791,4.391,2.82106,5.58127,2.82473,5.58494-1.68466,10.09767Q274.707,429.62456,214.34935,489.99526c-.96314.96548-2.12015,1.69515-3.02871,2.70984H195.644c.239-1.73342,1.67733-2.59391,2.75887-3.67611q65.21417-65.25525,130.45762-130.48122c3.19757-3.19763,3.353-3.56566.81416-7.38186-2.24264-3.371-4.8155-6.52144-7.2086-9.79413a9.32514,9.32514,0,0,1-.78138-1.6705c1.72294-.73461,2.47378.72949,3.18445,1.66809,1.35364,1.78781,2.91435,3.39351,4.26554,5.17313,1.111,1.28471,2.05928,2.70154,3.19269,3.96952.49828,1.32332,1.8244,2.12013,2.2356,3.501A.96511.96511,0,0,1,334.22557,354.74945Z"/><path class="cls-12" d="M211.32064,492.7051c-.1406-1.97737,1.38938-2.94169,2.54371-4.09654q59.39966-59.42629,118.84178-118.81c3.023-3.01771,6.53094-5.64534,4.02735-10.6581,3.28267,2.72863,5.32916,6.44115,7.207,10.09082,1.20824,2.34831.21413,4.85224-1.93956,6.99285q-35.56408,35.34774-70.95754,70.86717-20.8305,20.83056-41.6653,41.65691a11.82994,11.82994,0,0,0-3.00793,3.95692Z"/><path class="cls-8" d="M490.36421,231.84639v37.62386a29.16394,29.16394,0,0,1-4.80471,5.72023q-13.5491,13.48379-27.048,27.01794a13.5931,13.5931,0,0,1-3.07481,2.65038c-1.82964.9677-3.42,1.02754-4.99792-.78107-1.82676-2.09368-3.4792-4.48446-6.28671-5.49238a4.62668,4.62668,0,0,1-1.4641-1.01567c-3.22-3.32923-6.046-6.9913-8.92219-10.61378-1.57325-2.60423-4.12123-4.38593-5.80761-6.89817-.75681-1.12738-1.66978-2.16429-1.39923-3.67066,1.18719-1.832,2.35525-.55237,3.42.10571,1.52365.94174,2.45222,2.5436,3.81608,3.68729,2.8986,2.43068,2.9559,2.4657,5.59823-.14143,3.19407-3.15153,6.354-6.33768,9.52526-9.51229q18.253-18.27256,36.5514-36.4996C486.75649,232.74855,487.86858,230.61029,490.36421,231.84639Z"/><path class="cls-13" d="M444.54034,297.82309c2.98039.42033,4.1977,3.10788,5.90433,4.96078,2.1651,2.35063,3.65924,2.05329,5.66815.03018q15.45635-15.5654,31.013-31.0312c.94327-.94113,1.72818-2.14721,3.23835-2.3126V315.873c-1.39291.13688-2.14474,1.21779-3.02,2.08976-5.40411,5.38372-10.78024,10.79563-16.1931,16.17054-2.53735,2.51958-3.13594,2.31677-4.43113-1.01167-1.701-4.37168-3.47928-8.71556-5.3671-13.00864-.17414-.396.05274-2.64673-1.7054-1.1354-1.65336.37984-2.13862-.97149-2.721-1.97514-1.19978-2.06752-2.47633-4.08876-3.6708-6.15858-2.16265-3.305-5.15843-5.93014-7.44474-9.13217C444.98116,300.54956,443.833,299.48867,444.54034,297.82309Z"/><path class="cls-12" d="M411.95221,258.27162c1.449-.46582,1.999.748,2.71608,1.529,1.19967,1.30658,2.6292,2.38814,3.824,3.647,2.4577,2.58944,4.02376,1.52227,6.08231-.54717q31.09869-31.26276,62.33808-62.3855c1.01048-1.00926,1.83071-2.33128,3.45153-2.53v16.93073a29.29964,29.29964,0,0,1-4.794,5.70631q-25.22778,25.17481-50.41437,50.39083c-.884.88435-1.73917,1.80057-2.68141,2.62292-2.80881,2.45139-4.56983,2.23026-7.20913-.40931-2.40266-2.40291-4.311-5.40758-7.66653-6.73671-2.26132-1.24867-3.571-3.42608-5.14159-5.3385A2.45913,2.45913,0,0,1,411.95221,258.27162Z"/><path class="cls-14" d="M418.20429,265.85031c2.30595-.201,2.94775,1.952,4.17654,3.1292,7.568,7.25026,5.57423,7.35782,12.96316-.00417q25.82088-25.72685,51.56746-51.52825c1.01106-1.00952,1.83121-2.3326,3.45276-2.53143v16.93073c-1.62189.19906-2.44212,1.52256-3.45356,2.53224q-23.58793,23.54663-47.1082,47.16065c-2.14857,2.1669-3.57779,2.83957-6.09864.32067-1.73273-1.73135-3.13758-3.901-5.36779-5.14884-.45181-.25279-.811-.70813-1.35283-.20654-1.47638.42255-2.32455-.5673-3.11014-1.49466a41.19553,41.19553,0,0,1-4.39978-5.5361C418.59831,268.42425,417.48461,267.45659,418.20429,265.85031Z"/><path class="cls-15" d="M437.06375,492.7051c3.44836-.82765,6.96813-1.43378,10.33359-2.5187,22.78745-7.34585,36.79891-22.68932,41.82821-46.17109.24212-1.13043.077-2.4753,1.13866-3.35654,0,16.72173-.02492,33.44353.04088,50.165.00616,1.56808-.35418,1.92811-1.92223,1.92218C471.34335,492.68076,454.20349,492.7051,437.06375,492.7051Z"/><path class="cls-16" d="M60.2001,491.36375a51.97863,51.97863,0,0,1-23.19124-9.982c-2.94736-4.34635-2.93485-4.85515.85182-8.64724q31.66456-31.70958,63.358-63.39028a11.6819,11.6819,0,0,0,3.08957-3.81344c-3.42281.27629-6.50863-.3647-9.654-.615-7.80766-.62121-15.57743-1.47669-22.67493-5.25771-1.139-.60674-2.445-.86531-1.58344-2.59223,3.8476-.756,7.04277,1.40393,10.49037,2.38908a58.23218,58.23218,0,0,0,21.88643,1.677,60.28626,60.28626,0,0,0,18.2296-5.1404,50.23792,50.23792,0,0,0,18.53244-13.55808c.60806-.71842,1.29625-1.36183,1.867-2.10677,1.03011-1.28422,2.46186-2.2325,3.18791-3.77709a4.01224,4.01224,0,0,1,.57425-.69121c5.12594-5.34638,9.77869-11.10888,14.64376-16.68429,4.59274-5.2633,9.20727-10.50979,13.68247-15.87352,7.33419-8.79034,15.056-17.24352,22.46319-25.97176,5.73275-6.75514,11.71905-13.30336,17.323-20.16285,4.93274-6.03789,10.00281-11.95764,15.07134-17.87384,4.60389-5.37385,9.26984-10.70012,13.92546-16.03248,2.05224-2.35056,4.12971-4.67966,6.06244-7.133,1.71807-2.18093,3.48188-2.51869,5.29116-.71385a94.59836,94.59836,0,0,1,9.61805,11.91275,1.85251,1.85251,0,0,1,.12227,1.51773,18.92439,18.92439,0,0,0,4.81464,7.57776c1.92368,2.04638,1.87,3.79119-.14234,5.62926-.69339.63333-1.33327,1.32519-1.998,1.98991Q164.78024,385.30129,63.52131,486.56455C62.126,487.96,60.51953,489.21932,60.2001,491.36375Z"/><path class="cls-17" d="M263.367,268.8432c-3.46252-3.893-6.2069-8.3645-9.86618-12.1096-1.81758-1.8602-2.92235-1.86252-4.69735.27794-5.91346,7.131-12.13318,14.00687-18.14887,21.05449-5.7988,6.79353-11.45265,13.71066-17.23883,20.51507-6.06893,7.13688-12.21782,14.20578-18.335,21.30158q-6.93351,8.04273-13.87649,16.07731-9.156,10.5801-18.32442,21.14941-6.9375,8.03726-13.81623,16.1252a16.93762,16.93762,0,0,1-3.58469,3.46363,1.70026,1.70026,0,0,1-1.10609-1.39318c.007-2.08078,1.43192-3.38915,2.64969-4.80157q29.10825-33.7613,58.28926-67.45966c14.46567-16.71577,28.79438-33.55118,43.44035-50.111a6.37572,6.37572,0,0,1,2.3566-2.004,2.40472,2.40472,0,0,1,.92915-.07459,4.45731,4.45731,0,0,1,1.9228,1.22726c2.34762,2.506,4.006,5.56617,6.42316,8.02a11.629,11.629,0,0,1,3.1712,4.6313c-.13642,1.68684,2.41516,2.77978,1.06608,4.73743Z"/><path class="cls-18" d="M264.6211,269.47025c.22988-1.85542-2.84776-2.23124-1.95979-4.381,2.95425.37662,3.91817,3.16335,5.71911,4.88506a38.88091,38.88091,0,0,1,3.782,4.5179c3.47821,3.09079,5.46015,7.4408,8.90229,10.56155,2.02784,2.2339,3.48473,4.92845,5.67745,7.031,3.305,3.20457,5.51052,7.30041,8.64089,10.6469a17.50659,17.50659,0,0,1,4.45424,5.863,7.07894,7.07894,0,0,0,2.013,4.01588c.72808.75333,1.37819,1.59109.39541,2.63464l-.00153.00228c-1.94868-.97809-2.732-3.121-4.38883-4.39085l-.00035-.0001c-.85-1.41659-2.28183-2.34833-3.13482-3.7624-6.05413-7.53086-11.44614-15.59505-18.1841-22.57508a126.32294,126.32294,0,0,0-10.03226-12.5413C265.92773,271.10324,265.19873,270.34358,264.6211,269.47025Z"/><path class="cls-17" d="M264.6211,269.47025a3.2381,3.2381,0,0,1,1.8827,2.50749A3.228,3.228,0,0,1,264.6211,269.47025Z"/><path class="cls-3" d="M294.72018,307.0941c1.35218.99814,2.7762,1.93644,3.13482,3.7624C296.50335,309.85792,295.07876,308.92012,294.72018,307.0941Z"/><path class="cls-19" d="M466.74233,26.71935c5.88535,4.20693,10.85884,9.23484,14.18032,15.75011-2.17237-2.42729-3.792-1.588-5.8563.48168Q411.89909,106.28561,348.606,169.49448c-3.619,3.61895-4.99095,3.52175-8.18-.43747-1.13284-1.40642-2.2808-2.88845-4.35527-2.94847-2.08737.42651-2.76361-1.37553-3.89944-2.4564-3.22524-3.739-6.29586-7.60542-9.37247-11.46906-1.05519-1.63316-2.77133-2.69085-3.783-4.3634a4.22087,4.22087,0,0,1-.93562-3.12057c1.06384-1.66712,2.15747-.62348,3.12769.05664,1.28312.89947,2.26028,2.164,3.44933,3.183,2.5852,2.2155,3.70708,2.18885,6.14581-.12125.98555-.93354,1.93078-1.90864,2.89078-2.86844Q392.95623,85.70007,452.20947,26.442c5.56531-5.56484,5.55865-5.551,12.17348-1.21852C465.15959,25.73209,465.77,26.51833,466.74233,26.71935Z"/><path class="cls-20" d="M280.2659,285.89109q-4.411-5.36687-8.822-10.73369c-.64411-2.31416-2.50535-3.79716-3.933-5.53777-2.868-3.49666-2.98482-4.03991.19284-7.23275,12.07343-12.1311,24.39107-24.026,36.24011-36.37166,13.22434-13.77867,26.77687-27.22428,40.26641-40.73558,1.24207-1.244,2.27391-3.19644,4.63742-2.44126,2.17233.92757,2.99378,3.26216,4.78113,4.59088,2.279,3.86576,5.79855,6.76222,8.21713,10.51873.21131.51518-.11907.94466-.50348.84742-3.01063-.76128-4.56665,1.35638-6.31006,3.09889q-36.38788,36.36963-72.75924,72.75577c-.66337.66352-1.29276,1.36282-1.97261,2.00721-1.771,1.67859-2.25154,3.34216-.445,5.39853C280.77636,283.10407,281.75075,284.4464,280.2659,285.89109Z"/><path class="cls-21" d="M348.84764,182.83838c-.94676.808-1.95242,1.55677-2.83117,2.43292-9.67242,9.64352-19.52769,19.11421-28.938,29.0078-16.09363,16.92017-32.81256,33.213-49.29143,49.74619-1.709,1.71462-1.84556,2.98779-.337,4.70623,1.23417,1.40588,2.38241,2.887,3.57973,4.32553.526.632,1.29665,1.19808.41407,2.10033q-4.39125-5.03409-8.78253-10.0682c-.61488-1.75729-2.16-2.85094-3.11471-4.36576a1.65343,1.65343,0,0,0-.13983-.916c-2.45229-4.00113-2.46448-4.21238.87327-7.56312,11.6309-11.6761,23.20779-23.4081,34.97443-34.94629,13.331-13.07211,25.94409-26.844,39.25043-39.93742,5.37283-5.28681,5.33732-5.32317,10.28563.19495.27813.31018.47263.6879.781.97414l-.02759-.03642c.77461,1.49808,2.267,2.40789,3.13693,3.82787A2.37747,2.37747,0,0,1,348.84764,182.83838Z"/><path class="cls-22" d="M345.57162,178.52971a10.275,10.275,0,0,1-3.57863-3.43425c-1.00608-1.56973-2.03735-1.27017-3.04328-.26282q-10.1691,10.1832-20.26306,20.4413c-1.02015,1.03452-1.87385,2.2339-2.90015,3.26151q-27.0933,27.12825-54.22642,54.21669c-2.10205,2.09669-4.55542,3.96579-1.66409,7.17677.07959.08834-.22424.52189-.34932.79449-2.20718-2.65411-4.689-5.08883-6.4624-8.08945a2.95949,2.95949,0,0,1,1.5011-2.07985,3.78677,3.78677,0,0,0,2.99729-3.09241,2.44721,2.44721,0,0,1,.49816-.70338,42.159,42.159,0,0,0,10.716-12.693c3.68365-5.3918,8.188-10.08828,12.59035-14.87066a5.53854,5.53854,0,0,0,2.66724-3.23479c4.76085-6.21773,10.27851-11.79167,15.15537-17.90974a55.86791,55.86791,0,0,0,12.76154-35.45638c.00739-1.66859-.09321-3.33957.06621-5.01132.01311-.13741,1.277-.97087-.22221-.84046-1.52447-.72589-.99659-2.22148-1.33064-3.38861a66.78047,66.78047,0,0,1-1.26683-7.93408c-.925-3.41573-3.29144-6.49646-2.41315-10.33424,1.8625-1.41186,2.31395.36634,2.9298,1.39925,2.42518,4.06771,3.42388,8.6366,4.38257,13.19676a15.49436,15.49436,0,0,1,.57942,3.35688c1.83523,8.48027-.6658,16.86132-.64746,25.83821,3.56254-3.41758,6.71439-6.6832,9.94054-9.87016,1.47963-1.46164,2.91666-2.96672,4.44569-4.37793,1.266-1.16841,2.65143-2.02048,4.48634-1.62187q1.57463,1.55091,3.14921,3.10207c2.27242,3.69371,5.443,6.67335,8.043,10.10748A5.33792,5.33792,0,0,1,345.57162,178.52971Z"/><path class="cls-22" d="M348.681,182.32116c-1.37163-1.00866-2.85042-1.92953-3.137-3.82768C346.88871,179.52417,348.21644,180.569,348.681,182.32116Z"/><path class="cls-23" d="M334.22557,354.74945q-.00075-.312-.00188-.624c-.70177-1.15252-1.80254-1.98591-2.50785-3.13559l-3.1342-3.76365c-.36774-.88866-1.73007-1.68987-.24134-2.74341a2.85391,2.85391,0,0,1,2.06008.94289c2.37541,2.749,4.65449,5.58514,7.161,8.224,6.45856,7.47616,12.28072,15.4684,18.66534,23.00564a4.14188,4.14188,0,0,1,1.65469,3.08362,1.59224,1.59224,0,0,1-1.08343,1.35031c-2.48349-1.27924-3.23946-4.285-5.642-5.64511C345.7034,368.3897,340.64957,361.00911,334.22557,354.74945Z"/><path class="cls-24" d="M356.798,381.08921l.45-1.24464c1.7299-.11658,2.12683,1.43443,3.00427,2.39133a24.63429,24.63429,0,0,0,3.40473,3.22224c2.81968,2.17739,5.1448,4.94644,8.19692,6.84558,2.89117,1.98415,6.22973,3.26526,8.88541,5.62712,1.65331,2.25068,4.26556,2.72695,6.67331,3.50136,1.364.43869,2.72259.91144,4.10554,1.29994,1.164.327,2.17586.80014,1.68263,2.3373a1.1182,1.1182,0,0,1-1.28566-.15333c-5.72935-1.71443-11.52648-3.25863-16.44486-6.91856a6.18661,6.18661,0,0,0-1.74-.60621,77.6038,77.6038,0,0,1-11.91422-10.033c-1.01734-1.6661-2.74406-2.7242-3.76239-4.38945Z"/><path class="cls-23" d="M358.05366,382.96887c1.5341,1.22316,3.24723,2.29289,3.76239,4.38945C360.28176,386.1353,358.56973,385.06462,358.05366,382.96887Z"/><path class="cls-25" d="M328.38877,344.7292c-.564.88086.19971,1.65917.19287,2.497-2.64852-2.188-3.92058-5.63746-6.89694-7.52493a306.58053,306.58053,0,0,0-19.439-24.45611c-.13076-1.4985-1.56882-2.13688-2.16785-3.30066-.47168-.91637-1.8617-1.56573-1.05553-2.95024,2.11159-.52156,2.93536,1.2009,3.75251,2.45414a35.27558,35.27558,0,0,0,3.48242,4.28468c3.45291,3.5355,6.10849,7.72113,9.32767,11.44788,3.46654,3.13025,5.35887,7.55685,8.8228,10.69041,1.88106,1.48193,2.71185,3.76284,4.20691,5.54242A.859.859,0,0,1,328.38877,344.7292Z"/><path class="cls-26" d="M305.4802,316.45611q-3.22883-3.73094-6.45776-7.46185-2.18406-2.81175-4.36788-5.62351a4.96615,4.96615,0,0,0-1.79732-2.8534c-1.65766-1.67965-1.482-3.30357.03521-4.94374.35477-.38349.70763-.7685,1.07069-1.14423,24.97469-25.84636,50.49822-51.1485,75.93987-76.53143,1.55365-1.55006,3.02023-3.74226,5.84149-2.40487,2.46734.98737,3.3007,3.54456,5.02864,5.24371.8037.79029,1.54455,1.64447,2.31379,2.4701q2.50644,3.42739,5.01319,6.854c.31,1.04113-.5176,1.47184-1.09227,2.04063-25.96936,25.705-51.69414,51.655-77.56657,77.45705-1.73979,1.73509-3.94547,3.2454-3.08147,6.2978C306.46184,316.21678,305.9793,316.54446,305.4802,316.45611Z"/><path class="cls-27" d="M375.7445,215.49308a7.45759,7.45759,0,0,0-4.2036,2.54087c-20.16384,20.18045-40.46422,40.22691-60.43,60.60131-5.62,5.73507-11.15871,11.5672-16.85187,17.23562-1.8666,1.85846-2.27434,3.30852-.272,5.18765.62207.5838,1.6568,1.19817.66748,2.31218q-4.39116-5.33064-8.78233-10.66133a1.94553,1.94553,0,0,0-.27271-1.19733c-2.582-3.82841-2.59156-4.28613.66558-7.55826Q307.59518,262.5256,329.011,241.183q16.17219-16.17348,32.34846-32.34295a22.13287,22.13287,0,0,1,2.75493-2.55231c1.77563-1.25308,3.39887-1.54577,4.73559.6822.80683,1.34468,2.12866,2.28093,3.09276,3.51288l-.01768-.04157c.67705,1.56862,2.24849,2.42115,3.08939,3.85859Q375.37945,214.89646,375.7445,215.49308Z"/><path class="cls-28" d="M371.94273,210.48281a10.175,10.175,0,0,1-3.44579-3.12947c-1.2464-1.56379-2.40538-1.3598-3.67126-.13254-.59947.5812-1.18937,1.17238-1.77981,1.7628q-37.86445,37.86336-75.7495,75.706c-2.14893,2.14325-4.1596,4.0448-1.1261,6.94015.12777.122-.18852.70913-.298,1.07959q-2.80322-3.4092-5.60638-6.81837a3.72861,3.72861,0,0,0-1.53155-3.262c-2.39984-2.21184-1.91219-4.341.17277-6.43.44287-.44371.88271-.89045,1.326-1.33377q37.569-37.56966,75.11259-75.16467c1.93159-1.93761,3.70072-3.49438,6.50012-1.75262q3.10632,3.51083,6.21239,7.02187C368.99238,207.06178,371.13773,208.3,371.94273,210.48281Z"/><path class="cls-28" d="M375.01444,214.29983c-1.35632-1.02445-2.89221-1.90506-3.08966-3.858A7.63377,7.63377,0,0,1,375.01444,214.29983Z"/><path class="cls-29" d="M379.982,398.65772c-2.84644-2.01668-6.26471-3.13731-8.81177-5.62318-2.23419-2.34322-2.25394-3.168-.101-5.69693.74464-.87473,1.58209-1.66326,2.39363-2.475q36.19316-36.19866,72.39182-72.39181c.81165-.81154,1.60019-1.649,2.47492-2.39363,2.53742-2.16007,3.36-2.13908,5.69107.10988,2.53275,2.50963,3.60022,5.95711,5.6267,8.79065,1.71539,4.928,4.13784,9.64635,4.45015,14.991.16408,1.68323-1.05878,2.60036-2.0566,3.59787q-31.90725,31.89777-63.81193,63.79812c-1.00543,1.00531-1.90347,2.25336-3.46535,2.54959C389.65278,402.67539,384.35974,401.95279,379.982,398.65772Z"/><path class="cls-30" d="M394.94022,403.08529c6.08674-6.17129,12.144-12.372,18.266-18.50808q23.13722-23.18973,46.32759-46.32639c1.47507-1.47309,3.03979-2.85635,4.56332-4.28168q.56979,2.2895,1.13874,4.57967c1.59181,8.15769.53716,16.10943-1.80745,23.97633a62.58941,62.58941,0,0,1-6.67067,15.08877c-6.12241,8.85663-13.7168,16.13362-23.32882,21.0825a60.28383,60.28383,0,0,1-32.536,6.39553C398.97454,404.95125,396.19948,405.80351,394.94022,403.08529Z"/><path class="cls-5" d="M391.91513,404.91611q.6276-.00074,1.25516-.00153c.88472-1.22339,2.09908-.71046,3.16445-.49666,8.54114,1.7139,16.97746.89122,25.28587-1.27017,12.83626-3.3392,23.1132-10.66028,31.42272-20.87407.72381-.8897,1.33124-1.87258,2.10532-2.72324a63.74693,63.74693,0,0,0,5.10515-8.40375c.44232-.77407.33684-2.21841,1.89252-1.97323-.44488,5.91489-3.9557,10.45479-7.23049,14.90735a48.572,48.572,0,0,1-19.16817,16.02726,79.58882,79.58882,0,0,1-17.97256,6.036,3.61583,3.61583,0,0,0-2.03153.65321c-6.697.09947-13.39914.444-20.06468-.608A7.56323,7.56323,0,0,1,391.91513,404.91611Z"/><path class="cls-31" d="M462.14632,369.17346c-1.88992,3.67118-3.43293,7.54643-6.27064,10.66009-.97072-.83217.20376-1.68114-.01975-2.51917,4.79748-8.15788,8.15172-16.80386,9.15355-26.298.43911-4.16073.15122-8.31327.22677-12.46818.04011-.51194.08053-1.02449.134-1.70284,2.086,7.09374,1.5323,17.43-1.34813,26.39345C463.38744,365.214,462.77113,367.19509,462.14632,369.17346Z"/><path class="cls-32" d="M305.4802,316.45611c.28913-.35891.42758-.84362.10427-1.13753-1.92235-1.74757-.84418-2.94469.56359-4.32812,5.5114-5.416,10.94754-10.90866,16.41168-16.37281q30.79115-30.79116,61.56868-61.59591a14.29186,14.29186,0,0,1,3.972-2.96109c3.614,3.141,5.94608,7.4129,9.41966,10.67806q1.22259,1.82294,2.44541,3.64514a1.16823,1.16823,0,0,1-1.40576.39881c-2.73809-1.53473-4.38478.0722-6.171,1.86245q-36.816,36.89943-73.69851,73.7325c-1.70652,1.70652-3.56277,3.2886-2.77058,6.16625.15929.57869-.02936,1.56121-1.18673,1.282Q310.10655,322.14095,305.4802,316.45611Z"/><path class="cls-33" d="M466.74233,26.71935c-2.40775-.29953-4.026-2.122-5.98161-3.24919-1.70808-.98446-2.88738-.79783-4.159.43129-.75046.72537-1.48852,1.46362-2.22657,2.20166q-61.11546,61.11381-122.2301,122.22835c-3.9,3.89986-4.96289,3.82961-9.00238.08234-1.42107-1.31826-2.23845-3.51675-4.62938-3.62376-1.65971.42652-2.40427-.83606-3.30165-1.79994-4.08136-4.38373-7.26647-9.4884-11.22455-13.97624-.75208-.85277-1.48208-1.7176-2.31038-2.4967-2.57045-3.7823-6.36925-6.54915-8.71464-10.52249a2.27521,2.27521,0,0,1,.03709-.89991c1.08714-1.749,2.32845-.88709,3.43438-.10092a17.90123,17.90123,0,0,1,3.68689,3.81535c2.86843,3.7296,6.22885,7.01955,9.33893,10.53264,1.07742,1.217,2.008,1.29687,3.1638.23,1.0744-.99173,2.1049-2.02683,3.13809-3.0597Q369.56978,72.72106,423.38193,18.93358c1.51064-1.50868,2.83963-3.309,5.01258-4.02931a45.16861,45.16861,0,0,1,6.84883.17727,42.47484,42.47484,0,0,1,8.7593,1.03463A49.8057,49.8057,0,0,1,466.74233,26.71935Z"/><path class="cls-34" d="M12.4825,437.63552c-.78988-1.68474-.53961-3.49073-.53964-5.24612q-.00345-178.827.04867-357.654c.01635-30.28631,21.02878-54.9376,50.69277-59.67856a67.67861,67.67861,0,0,1,10.61493-.71612q177.88664-.07459,355.77328-.05731c2.07172,0,4.18251-.25622,6.203.49069q-.24249.18369-.48488.36741c-14.22874,1.01315-28.47987.63677-42.72384.67057-4.372.01037-8.74717-.14162-13.03385.96694a33.26975,33.26975,0,0,1-6.05345-.08615,140.51825,140.51825,0,0,1-15.65808.02445c-12.50649.28332-25.012.32-37.518.02835-12.009.3176-24.01988.09721-36.02949.16481a56.86258,56.86258,0,0,1-5.94863-.21138c-11.91828.34793-23.83694.31156-35.75616.04695-9.73426.2868-19.47048.12751-29.20573.148a15.98073,15.98073,0,0,1-3.40691-.14837c-9.72431.2873-19.45056.12738-29.17584.14875a16.1767,16.1767,0,0,1-3.40355-.1498c-7.94767.15964-15.8952.33964-23.84251-.0022-7.29366.15244-14.58718.345-21.87956.00066-7.04689.18352-14.09495.24666-21.1381.083q-12.03574-.04258-24.08252.0559a3.65525,3.65525,0,0,0-2.69614,1.32C61.72144,40.39163,39.693,62.0733,17.7323,83.81967A9.65725,9.65725,0,0,0,14.4338,91.655c.17574,6.87679.05621,13.76114.04089,20.64807.14976,7.05.14827,14.09366-.08214,21.13706.33368,7.2941.19813,14.587-.00343,21.87966.33914,7.9475.20631,15.89495.0056,23.84225.302,10.86007.25332,21.72006-.00313,32.57969.31027,10.8709.25214,21.74193.00168,32.61262.26541,11.91948.326,23.83891-.0384,35.75778.29916,13.583.44121,27.16571-.0645,40.74744a6.8142,6.8142,0,0,0,.10206,1.23976c.24286,12.452.37776,24.90425-.07381,37.35491a10.23949,10.23949,0,0,0,.08047,1.54978,212.82989,212.82989,0,0,1-.64356,29.3693c-.29122,3.0262-.25741,6.04188-.26418,9.06307-.02548,11.37618.008,22.75247-.03143,34.12861C13.45505,434.96678,13.88473,436.54083,12.4825,437.63552Z"/><path class="cls-19" d="M70.23272,397.38981c4.27047,3.03972,9.25076,4.20949,14.265,4.94525,6.55663.96211,13.11406,2.35861,19.82622,1.50547a1.92688,1.92688,0,0,1,1.89386.90037c.484.76454.02619,1.39842-.48926,1.94951-.64218.68654-1.311,1.3484-1.97594,2.01335Q71.611,440.84765,39.41238,472.9341c-2.5924,2.5688-4.44919,4.81083-2.40352,8.44764a50.9624,50.9624,0,0,1-16.40853-17.901c-.18585-.89842-.91-1.57826-1.01907-2.507.13672-2.88808,2.13512-4.6504,3.97172-6.48949q23.76345-23.79586,47.553-47.56564c.58981-.58994,1.15152-1.21176,1.77122-1.76729,1.61427-1.4471,1.427-2.59827-.47308-3.58537a60.1397,60.1397,0,0,1-8.45289-5.33495c-1.07376-.80863-2.64488-1.5734-1.81045-3.47315,3.446-.29084,5.60074,2.24834,8.22877,3.75327A.76573.76573,0,0,1,70.23272,397.38981Z"/><path class="cls-35" d="M20.06392,460.72483l.53641,2.75588a50.615,50.615,0,0,1-8.11782-25.84519q.03881-21.43428.07157-42.86855c.00061-11.25267,1.03487-22.48583.61044-33.74558,3.18682-4.9637,7.74258-8.675,11.89417-12.72239,3.80967-3.714,7.18153-7.44815,7.63367-13.09839.11063-1.38245.6288-3.32984,2.97419-2.09712,1.08382,3.0187-.38229,5.94876-.33458,8.96a91.72327,91.72327,0,0,0,1.44843,14.21362,86.49854,86.49854,0,0,0,1.73842,9.40639c.73946,2.56149-.43039,4.63133-2.23333,6.44853-6.46262,6.51364-12.91726,13.0365-19.493,19.43463a7.09826,7.09826,0,0,0-2.29639,5.51448c-.01428,10.94385.17354,21.889-.11242,32.83105a70.34208,70.34208,0,0,0,5.36765,27.72589A8.38327,8.38327,0,0,1,20.06392,460.72483Z"/><path class="cls-34" d="M444.00264,16.11617l-8.81028-.613q-.25416-.07529-.24139-.24776.01436-.19675.07953-.19677.12274-.14208.24506-.2845A21.91867,21.91867,0,0,1,444.00264,16.11617Z"/><path class="cls-36" d="M336.70363,354.20953a32.47905,32.47905,0,0,1-6.95093-8.18842c-.1542-1.6095-1.46754-2.47864-2.37019-3.58009a3.33185,3.33185,0,0,1,.01493-4.77758c.60334-.72221,1.24445-1.40638,1.90852-2.07045q37.74126-37.7441,75.48423-75.48657c.51657-.51642,1.05048-1.01431,1.5938-1.50323,1.55392-1.39822,3.17754-1.97756,5.00546-.481q.28245.07073.56284.14913a37.90029,37.90029,0,0,0,6.25215,7.57846q.97821,1.48005,1.95667,2.95914c.384,1.15054-.47627,1.69675-1.13682,2.33937-24.976,24.29866-49.381,49.17058-74.01922,73.80809C342.08469,347.87673,339.48186,351.13369,336.70363,354.20953Z"/><path class="cls-37" d="M411.38945,258.12224c-2.06743-.516-3.40193.56586-4.775,1.94168q-38.68529,38.7615-77.47121,77.42224c-2.2075,2.19606-2.342,3.86955-.248,6.00537.63447.64708,1.9521,1.22868.85745,2.52954q-.68185-.64592-1.3638-1.29187-2.44074-3.12468-4.8812-6.24928c-.12544-1.86573-1.664-2.83944-2.73336-4.02682-1.61937-1.7981-1.44094-3.28914.156-4.86436.29652-.29248.57086-.6079.8639-.90467,24.97427-25.29349,49.80382-50.73051,75.08962-75.715.74184-.733,1.54684-1.3993,2.3-2.117,1.92245-1.83182,3.87123-2.20657,5.95673-.2944A61.01724,61.01724,0,0,1,411.38945,258.12224Z"/><path class="cls-38" d="M405.14066,250.5577c-3.01683-1.19947-4.80487.78465-6.62157,2.59868q-18.26211,18.23506-36.491,36.50322c-13.42753,13.54155-26.73726,27.2-40.193,40.71328-1.66352,1.6706-1.59669,2.57952-.1175,4.29386.82348.95442,2.82975,1.8174,1.79016,3.81318q-4.38746-5.32708-8.77488-10.65412c-1.81083-4.89789,1.92075-7.22362,4.667-9.972q35.98017-36.00693,71.982-71.99228c3.85608-3.85606,3.85635-3.85579,8.58363-1.47768Q402.553,247.47079,405.14066,250.5577Z"/><path class="cls-25" d="M331.71584,350.98986c1.17733.77215,2.28445,1.60046,2.50785,3.13559C333.05135,353.34931,331.94377,352.52135,331.71584,350.98986Z"/><path class="cls-39" d="M336.70363,354.20953a4.5059,4.5059,0,0,1,1.1682-3.43882c2.88421-3.00933,5.60607-6.1778,8.54857-9.12723q33.30914-33.38694,66.67923-66.7131c2.2092-2.21011,4.33426-4.51129,7.0614-6.12138q3.41133,3.84727,6.82231,7.69509c2.0948,3.62286,5.36974,6.3288,7.6288,9.82373.25241.7486-.32544,1.05764-.785.9237-2.653-.773-4.04579,1.05266-5.58222,2.58832q-37.10653,37.0868-74.19444,74.19222c-.59051.59078-1.13965,1.2242-1.74207,1.80017-1.31253,1.25493-1.24249,2.46837-.12978,3.83862,1.31376,1.61784,2.91843,3.03646,3.84222,4.92431.44.89911,1.72374,2.25669-.525,2.76928q-9.2-11.004-18.386-22.01973A3.60351,3.60351,0,0,1,336.70363,354.20953Z"/><path class="cls-40" d="M454.02074,310.18709c-2.32975-1.78337-3.81754-.25733-5.37425,1.30057q-38.07073,38.1005-76.1733,76.16919c-1.56789,1.56628-3.037,3.05743-1.30289,5.37765A34.63954,34.63954,0,0,1,363.023,386.132c-.41193-1.77284-2.0732-2.53409-3.09747-3.81152-2.07535-2.58833-2.10218-3.71627-.03812-6.30046a22.49837,22.49837,0,0,1,1.69377-1.84036q37.59183-37.60651,75.19566-75.201c.51611-.516,1.05162-1.01132,1.59261-1.50172,1.55262-1.40741,3.18045-1.94811,5.01066-.49471q.58024.41989,1.16032.84034Q449.28047,304.00535,454.02074,310.18709Z"/><path class="cls-41" d="M443.38013,296.98225c-2.04569-.45132-3.39979.56621-4.78087,1.95043q-38.27137,38.3574-76.60536,76.65241c-3.6326,3.63391-3.59563,4.06207-.119,7.80088.66813.71846,2.22665,1.23269,1.14815,2.746-2.45287-1.61094-3.97009-4.08119-5.775-6.2874q-.87624-1.24009-1.75229-2.48017a1.08421,1.08421,0,0,0-.02725-1.64837c-1.0641-1.2823-2.08434-2.60322-3.19032-3.84808-3.434-3.86519-3.428-4.46343.28621-8.1779q37.6734-37.67575,75.3383-75.36c1.9141-1.9165,3.66035-4.04688,6.70925-2.00213Q438.99624,291.655,443.38013,296.98225Z"/><path class="cls-42" d="M70.23272,397.38981q-.0024-.31155-.00359-.62316c-1.0163-.7126-.8944-1.302.19138-1.792,2.23689-.257,4.24181.693,6.27192,1.34163A66.26958,66.26958,0,0,0,87.205,398.71214c4.73382,1.27587,9.573.69883,14.28092.27033a56.70556,56.70556,0,0,0,30.04836-12.19163,75.83177,75.83177,0,0,0,9.57431-9.4486c.98163-1.09238,1.84113-2.33832,3.60687-1.94273l.76348,1.29872c-.85636,1.41146-2.27991,2.35026-3.13552,3.76238-9.51553,12.60983-22.66434,18.82678-37.84855,21.31781a54.0667,54.0667,0,0,1-29.11-3.14676A36.64678,36.64678,0,0,0,70.23272,397.38981Z"/><path class="cls-17" d="M142.34338,380.46061c.35916-1.82585,1.78321-2.76423,3.13552-3.76238C145.11959,378.524,143.69529,379.46211,142.34338,380.46061Z"/><path class="cls-43" d="M144.71543,375.39951c-2.767,2.9585-5.39612,6.06179-8.32456,8.85074-13.41915,12.7798-29.56728,17.63667-47.82543,16.15631a6.50569,6.50569,0,0,1-1.46436-.48078,55.32741,55.32741,0,0,1,5.84886-6.04261q71.55737-71.63051,143.17073-143.20508c5.07265-5.07324,5.1105-5.40577,1.20851-11.63494-1.0531-1.68114-2.11925-3.354-3.21984-5.00643-.79914-1.19984-1.68141-2.58892.19494-3.73644a2.20676,2.20676,0,0,1,1.32811.25337,48.31234,48.31234,0,0,1,6.76616,7.57188c2.81117,3.08159,5.33986,6.40016,8.0272,9.58581.83728.99255,1.856,2.08968,1.04617,3.62835-7.79237,9.11693-15.55132,18.26267-23.38373,27.345q-29.127,33.77524-58.30311,67.50811Q157.21265,360.7637,144.71543,375.39951Z"/><path class="cls-44" d="M251.47192,251.33969c-2.92145-4.539-6.8911-8.24386-10.0328-12.60761-.25277-2.75087,1.59616-4.37418,3.2853-6.06358q23.35755-23.36163,46.71892-46.71942c5.09505-5.09014,10.1339-10.23777,15.30989-15.24473,1.23192-1.19168,2.49544-3.15214,4.70567-1.366.22875,4.48686-1.4987,8.52178-2.91174,12.62683-2.55623,7.077-6.86327,13.03563-11.742,18.67341q-9.28735,10.73241-18.5151,21.51815c-4.3183,5.05869-8.64588,10.12083-13.082,15.08169-3.74469,4.18768-7.33509,8.50737-11.04353,12.72549-.4858.55253-.89358,1.16325-1.6811,1.31068q-.225.02366-.45021.04668Q251.75239,251.324,251.47192,251.33969Z"/><path class="cls-45" d="M307.86753,182.23849c.81235-4.42447,3.08873-8.49587,3.15907-13.09928a15.47268,15.47268,0,0,1,1.23852-12.5211l.13361-1.96291c1.3672,6.61411-.15147,19.366-2.289,25.80459-3.48265,10.49011-10.12513,18.79563-17.39057,26.77824-2.799,3.07529-5.36223,6.36517-8.03288,9.55727-.70361,1.15183-1.804,1.986-2.51023,3.13574a162.79454,162.79454,0,0,0-12.53916,14.42208A112.66943,112.66943,0,0,1,258.35045,247.523a14.35393,14.35393,0,0,1-3.13784,3.76085q-1.06337.67482-2.12756,1.34985-.52624-.65595-1.05136-1.31242l.04823-.07074c3.60875-2.85716,6.157-6.68583,9.17973-10.07634,7.748-8.69087,15.3181-17.54076,22.8605-26.408,6.3889-7.51105,13.42422-14.50629,18.81952-22.83489A47.96618,47.96618,0,0,0,307.86753,182.23849Z"/><path class="cls-46" d="M332.92165,163.00621c-6.3155,4.18658-10.80724,10.32043-16.37352,15.30435-1.1697,1.0473-2.17869,3.461-3.70354,2.65649-1.464-.77239-.08654-3.01008-.04767-4.60786.18572-7.63421,2.27462-15.21.73518-22.89582,1.09627-.76476,2.47992-1.03716,3.4856-1.92968,2.21529-1.966,4.38225-1.901,6.57036.00675A99.66391,99.66391,0,0,1,332.92165,163.00621Z"/><path class="cls-47" d="M323.58806,151.54044c-2.38982-.70757-4.52549-.71607-6.348,1.468a2.73351,2.73351,0,0,1-3.708.45492c-1.16238-5.28764-2.08813-10.64849-4.48155-15.57364-.4517-.92951-.30241-2.35617-1.79879-2.58306a.90437.90437,0,0,1-.8704.12244,20.87687,20.87687,0,0,1-4.77088-8.41178,1.59,1.59,0,0,1,.63525-1.24023c5.11072,5.25747,9.40367,11.208,14.19106,16.73941.67137.77571,1.38342,1.51624,2.07658,2.27329C319.83013,147.32189,321.858,149.31925,323.58806,151.54044Z"/><path class="cls-48" d="M312.26512,156.61811a60.44092,60.44092,0,0,1-1.23856,12.52111c-1.39135.136-2.14527,1.21277-3.0183,2.08531q-31.67454,31.65645-63.35983,63.30206c-1.28253,1.27841-2.05436,2.87181-3.2095,4.20566q-3.15028-3.74166-6.30091-7.483c-1.07662-1.52506-.77222-2.92589.35823-4.2739.67265-.80207,1.40724-1.543,2.14553-2.28115q34.56327-34.55881,69.14533-69.09876c1.31238-1.309,2.35378-3.37833,4.83559-2.75015C311.77748,154.113,311.36178,155.47786,312.26512,156.61811Z"/><path class="cls-49" d="M311.6227,152.8453c-.85746.75936-1.75753,1.47612-2.56622,2.28429q-35.70227,35.67941-71.3918,71.37162c-1.33419,1.3336-2.84282,2.54758-2.52655,4.74774q-.32115-.31532-.64207-.63127c-2.91454-.72437-4.07277-3.35784-5.78063-5.37364a16.41283,16.41283,0,0,1-2.57091-3.85929c-.55876-2.91786.96477-4.95911,2.86326-6.86083q8.25938-8.27342,16.52433-16.54125c2.088-2.09876,4.55691-3.96112,4.71246-7.31328,1.22927-.83371,2.62412-.45667,3.95135-.51316,5.77388-.24575,10.83334-2.75332,15.84505-5.21119,4.656-2.28342,5.93663-7.17708,8.07154-11.41112,1.45776-2.891,1.41745-6.23148,3.06765-9.01682,1.802.84251,1.802.84251,2.10457,4.52855a7.50977,7.50977,0,0,0,2.87943-2.29861c6.59284-6.54443,13.11452-13.16077,19.74485-19.66683,1.15933-1.13761,2.24385-3.00655,4.44158-1.7656Q310.98662,149.08,311.6227,152.8453Z"/><path class="cls-50" d="M310.35059,145.31461c-1.38011.15756-2.123,1.23908-2.99335,2.107q-10.60806,10.57868-21.19337,21.18018c-.58848.58824-1.15766,1.20266-1.79617,1.73213-.62744.52028-1.329,1.23259-2.19878.82673-.93747-.43746-.5308-1.45557-.59384-2.24433-.11086-1.38713,1.22473-2.7828-.02325-4.16581-1.85557-3.09743-1.31123-6.63127-1.8177-9.97049.14682-.38236.30936-.95952.73691-.89034,3.09638.50108,4.63661-1.758,6.43774-3.54634,4.867-4.83247,9.644-9.75679,14.59124-14.50649,1.466-1.40749,3.14221-3.17428,5.16-.56276q.29643.00728.59187.03225Q308.80111,140.3108,310.35059,145.31461Z"/><path class="cls-21" d="M258.35045,247.523c.62716-2.6328,3.1222-3.81432,4.59513-5.80614a91.22764,91.22764,0,0,1,6.69128-7.36372c.15679,2.47517-1.98531,3.60652-3.27829,5.06558C263.84771,242.2521,262.06951,245.87407,258.35045,247.523Z"/><path class="cls-21" d="M255.21261,251.28385c.36443-1.82223,1.78466-2.76355,3.13784-3.76085A3.70891,3.70891,0,0,1,255.21261,251.28385Z"/><path class="cls-21" d="M282.176,219.931c.23154-1.52973,1.33621-2.36048,2.51023-3.13572C284.46132,218.33034,283.35487,219.15967,282.176,219.931Z"/><path class="cls-51" d="M455.85593,377.31438c.85.83313.00486,1.6795.01975,2.51917-7.90268,10.68657-17.67675,19.12928-30.44036,23.22254-9.32735,2.99122-19.02094,4.41011-28.87584,2.261a34.01266,34.01266,0,0,0-3.38919-.40252c-1.6488-1.89118-4.193-1.55924-6.21576-2.50883-2.38968-1.12185-5.473-.97018-6.97249-3.74807a44.60557,44.60557,0,0,0,14.9588,4.4273c11.33591,2.60279,22.312,1.09312,32.99822-3.069C439.65824,395.45152,448.67738,387.49771,455.85593,377.31438Z"/><path class="cls-52" d="M427.66238,15.51513c-.1457,1.38885-1.22274,2.14306-2.09613,3.01671Q369.83993,74.27457,314.09954,130.00321c-2.92555,2.925-3.18169,2.64978-6.079-.33784-4.14527-4.27438-7.70194-9.05171-11.871-13.28428-.67485-.68513-1.24653-2.24718-2.7374-1.04852-1.64981.47265-2.58549-1.04331-3.93811-1.40623a20.02171,20.02171,0,0,0-2.201-2.12106,2.02679,2.02679,0,0,1-.49595-1.694c1.12334-1.94662,2.51056-.852,3.75242-.24207,4.06042,1.99423,4.70336,2.01037,7.68014-.9641Q343.953,63.19671,389.62273,17.4147c1.21318-1.2224,2.39329-2.34018,4.27387-2.21878q15.36132.00039,30.70406.0143C425.62125,15.21255,426.69166,14.93068,427.66238,15.51513Z"/><path class="cls-53" d="M302.24573,125.7771l.014,1.35088a1.743,1.743,0,0,1-2.21032-.64711c-1.69792-2.041-3.10256-1.34173-4.65192.21571q-7.04185,7.07854-14.125,14.1163c-3.40582,3.36256-3.674,3.25963-7.86969.90578a14.17781,14.17781,0,0,0-4.86005-1.9351c-2.62155-2.03451-6.39876-2.10085-8.51977-4.99219.21459-2.48876,2.20748-2.65382,3.8919-2.52774,2.6868.2011,4.48132-.94927,6.24371-2.75808,4.86289-4.99087,9.81941-9.89108,14.75844-14.8075.94222-.93789,1.74329-2.11149,3.22708-2.31114.87879-.00408,1.07777.98964,1.79462,1.22507,1.6399.044,2.311,1.6323,3.589,2.25443C297.09071,118.592,299.44968,122.3768,302.24573,125.7771Z"/><path class="cls-35" d="M427.66238,15.51513,392.544,15.51391c-4.60393,1.86164-9.207,2.40133-13.808-.00921a3.03644,3.03644,0,0,1,2.04825-.596q27.124.07414,54.24714.1488a1.51108,1.51108,0,0,1,.16086.44573Q431.42745,15.5091,427.66238,15.51513Z"/><path class="cls-54" d="M293.52765,115.86641c-1.56466-.07281-2.27927-1.81148-3.8127-1.94548q-.27488-.2558-.16292-.48673.10861-.2246.20868-.22468c1.67611-.08176,2.39956,1.475,3.65143,2.123A2.64565,2.64565,0,0,0,293.52765,115.86641Z"/><path class="cls-55" d="M277.79021,15.51224l42.01254-.00308c1.04311,1.35654.09436,2.3531-.66033,3.3264a32.44187,32.44187,0,0,1-2.82079,2.937q-38.34131,38.35167-76.67521,76.71062a19.32109,19.32109,0,0,1-7.53694,4.76241,58.1123,58.1123,0,0,0-27.69441,20.07188c-5.46494,5.31479-10.10562,11.36867-15.14544,17.0614-4.68756,5.29485-9.28682,10.681-13.849,16.09189q-11.07269,13.13251-22.71542,25.763c-7.5408,8.19218-14.42918,16.927-22.22234,24.93335C93.52747,245.13324,55.58879,282.11466,18.28856,319.73357c-1.32529,1.33661-2.44477,3.6939-5.12032,2.41007l.0031-42.01254c1.43715-1.655,2.95158-3.23393,4.50264-4.78479Q146.23481,146.80281,274.76171,18.22541C275.72592,17.26016,276.88182,16.528,277.79021,15.51224Z"/><path class="cls-56" d="M277.79021,15.51224c.12664,2.10923-1.55187,3.09345-2.77062,4.31278Q196.58194,98.30051,118.11733,176.749,67.69677,227.16958,17.26878,277.58264c-1.15546,1.15483-2.11952,2.68636-4.09748,2.54846q.00039-17.87127.00069-35.74254a29.38879,29.38879,0,0,1,4.80982-5.71957Q127.17572,129.51647,236.32827,20.32257a29.40109,29.40109,0,0,1,5.71941-4.80969Z"/><path class="cls-57" d="M242.04768,15.51288c-.14008,1.39084-1.218,2.14446-2.091,3.01765Q128.08178,130.42062,16.19169,242.29541c-.87383.87373-1.62775,1.95294-3.01975,2.09315q.00042-16.30352.00074-32.607a29.31208,29.31208,0,0,1,4.80886-5.7193q92.89088-92.849,185.73991-185.73991a29.30682,29.30682,0,0,1,5.71924-4.80877Z"/><path class="cls-58" d="M209.44069,15.51358c-.14092,1.39016-1.21836,2.14374-2.09127,3.01679q-95.57159,95.587-191.15855,191.15854c-.87351.87335-1.6273,1.95166-3.01824,2.09265q.00012-16.30376.00013-32.60753a29.31222,29.31222,0,0,1,4.80829-5.71826Q94.56939,96.91016,171.115,20.32184a29.31468,29.31468,0,0,1,5.71816-4.80819Z"/><path class="cls-59" d="M176.83316,15.51365c-.14062,1.38988-1.21779,2.14326-2.09043,3.01607Q95.474,97.81419,16.18953,177.08293c-.87305.87288-1.62651,1.95057-3.01683,2.0911q.00022-11.9143.00033-23.82863c1.18984-2.01246,3.08858-3.35547,4.701-4.96749q65.08884-65.0742,130.163-130.163c1.612-1.61238,2.955-3.51113,4.9675-4.701Z"/><path class="cls-60" d="M203.79587,122.737a58.345,58.345,0,0,1,29.58268-20.9845c2.18743-.7041,3.40168-2.27884,4.85458-3.732q14.94458-14.94675,29.8908-29.89183,24.57725-24.57735,49.14493-49.16424c1.01028-1.01193,2.33464-1.83248,2.53389-3.45529l37.62385-.00362c.88931,1.03709.31743,1.95493-.269,2.83672a15.78226,15.78226,0,0,1-2.1031,2.31614q-38.54735,38.561-77.09134,77.12537c-2.36519,2.3696-4.77958,4.39812-8.4203,3.93974a79.465,79.465,0,0,0-21.53556-1.88383c-1.66.07584-3.33187-.00387-4.70153,1.1766-1.84556,1.01249-4.00178,1.015-5.91487,1.81008-9.54247,2.89875-18.40013,6.98555-25.23245,14.578-2.2808,2.53455-5.23672,4.44791-6.92339,7.52875-.50763.54615-1.061,1.04836-1.554,1.60953-.94963.63256-1.62188,1.9081-3.09077,1.34286-.74878-1.2677.35224-1.85272.97934-2.59651A13.12706,13.12706,0,0,0,203.79587,122.737Z"/><path class="cls-61" d="M153.00453,15.51392a11.08711,11.08711,0,0,1-3.29341,4.85546Q83.86982,86.21062,18.02857,152.05191a11.08585,11.08585,0,0,1-4.8556,3.29349q0-10.97349-.00008-21.947a29.26661,29.26661,0,0,1,4.803-5.71243Q71.683,74.02392,125.34509,20.3168a29.26574,29.26574,0,0,1,5.71245-4.803Z"/><path class="cls-62" d="M131.05754,15.51379c-.14092,1.39059-1.219,2.14413-2.092,3.01744Q72.5861,74.92715,16.19017,131.30657c-.87329.873-1.62683,1.951-3.01734,2.09183q-.00009-10.97367-.00031-21.94737a28.11364,28.11364,0,0,1,3.82575-4.109c29.91184-29.93842,59.92974-59.77092,89.715-89.83556.74691-.75392,1.6707-1.24387,2.39684-1.993Z"/><path class="cls-63" d="M109.11015,15.51342a6.93625,6.93625,0,0,1-2.36851,3.93962Q61.91825,64.25929,17.112,109.08268a6.93572,6.93572,0,0,1-3.93953,2.36834c-.001-7.61653.033-15.23335-.028-22.84942-.01517-1.89527.16624-3.43608,2.17372-4.36633a10.26175,10.26175,0,0,0,2.55584-2.26911c20.58953-20.57794,41.348-40.99259,61.59119-61.906,3.58186-3.70046,6.84241-4.8068,11.493-4.61185C96.99917,15.70156,103.05866,15.51225,109.11015,15.51342Z"/><path class="cls-60" d="M203.79587,122.737c.04258,2.37118-3.28491,2.77628-3.06379,5.25164.04361,1.97651-1.44287,3.18713-2.55139,4.40109-6.06068,6.63731-11.79431,13.5511-17.59753,20.40678-6.353,7.22734-12.8691,14.3147-18.812,21.89477a241.50738,241.50738,0,0,0-15.81874,18.37539,92.73433,92.73433,0,0,1-6.26137,7.31253,11.714,11.714,0,0,0-2.67344,3.78328,2.903,2.903,0,0,1-.573.69806c-.51415.35211-1.16982.52593-1.56057,1.02734-4.15423,5.3311-8.89966,10.15592-13.14609,15.41122-3.06954,3.79878-6.46053,7.32912-9.58651,11.08651-4.7165,5.66915-9.61783,11.18279-14.44983,16.75124-4.49576,5.18095-8.91722,10.42831-13.468,15.56157-4.75574,5.36451-9.2679,10.94148-14.03688,16.28735-4.77927,5.35739-9.29081,10.942-14.13059,16.24549-6.279,6.88064-12.00709,14.14379-15.136,23.099a6.48345,6.48345,0,0,1-1.28048,1.83852c-2.04271,2.25288-1.98363,5.28394-2.89244,7.951-.36151,1.06093-.32031,2.25271-1.64211,2.68321-2.04949,1.43982-1.29718,3.81723-1.76212,5.73329a13.55,13.55,0,0,1-3.70608,7.00046c-4.56524,4.39485-8.98376,8.94191-13.476,13.413-.871.86692-1.6207,1.93914-3.00638,2.07168q.0018-19.43889.00368-38.87775c1.39214-.13656,2.14571-1.21482,3.0189-2.08775Q70.695,265.5646,125.12567,210.9966c4.548-4.57735,9.39549-8.92659,13.58549-13.76255,4.41352-5.09394,8.63806-10.38424,13.14144-15.42628,4.78489-5.3572,9.5898-10.69767,14.30154-16.11882,7.44214-8.56263,14.66953-17.31665,22.26555-25.73918C193.57262,134.23614,198.03774,127.906,203.79587,122.737Z"/><path class="cls-35" d="M242.8557,100.25177c.90135-1.63369,2.49992-1.2783,3.92212-1.33265A85.87294,85.87294,0,0,1,270.26467,100.79a24.89887,24.89887,0,0,1,10.32951,3.0389,3.10233,3.10233,0,0,0,3.96864-.7166c.87473-.89457,1.79338-1.74855,2.67894-2.63436q40.07416-40.0852,80.15062-80.16811a30.05339,30.05339,0,0,1,5.71082-4.80619q2.8165.0006,5.63294.00114,6.90378.00447,13.80789.00911a27.02059,27.02059,0,0,1-4.35221,5.30593q-44.21893,44.17848-88.40742,88.3874c-4.37906,4.379-5.183,4.48421-10.46349,1.3796-.68541-.403-1.31528-1.19746-2.16714-.27628-1.11143.51569-1.95351-.10013-2.87239-.607a102.96935,102.96935,0,0,0-9.72049-4.8161,61.15251,61.15251,0,0,0-13.77122-3.70547c-5.02785-.57174-10.04281-1.17865-15.09318-.13678A2.68058,2.68058,0,0,1,242.8557,100.25177Z"/><path class="cls-35" d="M373.1032,15.50361c-.13315,1.39288-1.21053,2.147-2.08331,3.02006q-42.51738,42.53447-85.01051,85.09313c-2.10384,2.112-3.93153,2.59047-6.60616,1.18-2.93444-1.5475-6.08318-2.68862-9.13855-4.00681a6.1503,6.1503,0,0,0,4.98395-2.14542q40.25748-40.2939,80.54231-80.56046a4.23781,4.23781,0,0,0,1.63567-2.57851Q365.26488,15.50456,373.1032,15.50361Z"/><path class="cls-33" d="M20.06392,460.72483c-3.77213-5.88493-5.11334-12.551-6.26635-19.293a62.90154,62.90154,0,0,1-.62385-11.43114,18.02493,18.02493,0,0,1,3.248-4.16383q16.5051-16.43592,32.94731-32.935c2.99371-3.0016,2.90346-3.094.40445-6.43591-1.31071-1.75282-3.29058-3.37353-2.28285-6.05206,2.27334-.69818,3.02091,1.31134,4.03661,2.5,1.40188,1.64064,2.7073,3.3023,4.72625,4.21848,1.508,1.08653,2.87006,2.35459,4.34807,3.48223.72133.55033,1.99062.9835,1.47781,2.38728,2.74281,2.75393,6.08728,4.649,9.405,6.58076.89941.52369,1.85809.95683,2.71362,1.54244,1.91506,1.311,2.18111,2.45743.26482,4.35523-16.67636,16.51536-33.2278,33.15679-49.85145,49.72558A34.36734,34.36734,0,0,0,20.06392,460.72483Z"/><path class="cls-1" d="M62.07939,393.0019q-3.135-2.50829-6.27007-5.01652a15.00068,15.00068,0,0,1-2.949-2.682c-.65995-.71628-.83027-1.42384.20947-1.98285,2.95685-.09966,4.05993,2.89324,6.3987,3.82611,1.7896,1.33056,3.37525,2.96057,5.52426,3.76977,1.11159.60812,2.08771,1.43309,3.22605,2.00279,1.04047.57643,2.27524.98866,2.155,2.54484-.53525.38013-.31884.84369-.14461,1.30262C67.17641,396.2394,65.04722,393.71293,62.07939,393.0019Z"/><path class="cls-52" d="M47.65782,380.46046a17.3399,17.3399,0,0,0,3.99346,6.23244c1.90927,1.92353,2.09809,3.749-.05553,5.87927q-17.76446,17.572-35.361,35.31358a10.199,10.199,0,0,1-3.06113,2.11492c-.00116-11.46658.02649-22.93331-.032-34.39958a5.59807,5.59807,0,0,1,2.05928-4.50978c7.07714-6.77344,13.94527-13.76575,20.862-20.70594,1.63483-1.64038,1.69752-3.59464,1.22124-5.80306-1.75035-8.11609-3.14623-16.29058-2.7793-24.64653.10459-2.38191.40155-4.75541.61029-7.13281.724-2.8939,1.37122-5.81047,2.21674-8.66841.26771-.90487.04772-2.3389,1.61557-2.47574,1.32936,1.3248.43236,2.8165.07745,4.08386a86.30988,86.30988,0,0,0-2.226,12.79928c-.49826,4.03588.45537,8.00854.963,11.991a19.41007,19.41007,0,0,1,.26376,2.00987,47.56064,47.56064,0,0,1,1.069,5.19425c-.17118,4.72633,1.55367,8.934,3.66783,13.00362,1.19746,2.305,2.76037,4.40193,4.12977,6.61005C47.46705,378.27775,48.43853,379.17273,47.65782,380.46046Z"/><path class="cls-64" d="M70.37377,395.464q-1.34979-.89965-2.69958-1.79929c-.66519-1.6876.00552-3.04932,1.05931-4.31267,1.00583-1.2059,2.15161-2.2785,3.25951-3.38631q75.588-75.58051,151.16875-151.16823c5.04667-5.046,5.11428-7.74917.34066-13.42013a2.97574,2.97574,0,0,1-.57-.71349c-.00241-1.60172-2.894-2.94372-.44306-4.77466,3.18335.3377,3.31891,3.26709,4.5061,5.30339q3.75051,4.71213,7.5008,9.42466c-.99085,1.12945-.11934,1.85518.532,2.68528a47.28284,47.28284,0,0,1,6.39495,11.03886,2.82961,2.82961,0,0,1-.44737,3.18307c-.734.87844-1.559,1.6833-2.37007,2.49446Q165.43293,323.19921,92.22457,396.34389c-1.45674,1.4546-2.37244,3.89646-5.12318,3.58174C81.23326,399.53344,75.77977,397.58776,70.37377,395.464Z"/><path class="cls-65" d="M307.86753,182.23849c-1.20192,6.03249-4.64639,10.993-8.39626,15.51787-9.36719,11.30312-19.16628,22.2479-28.76692,33.35818q-7.96653,9.21924-15.82652,18.52987c-.79118.94064-1.47335,1.74217-2.79595,1.60615,4.70214-6.37159,10.22336-12.05044,15.33146-18.07841,8.74152-10.31569,17.46871-20.6518,26.51038-30.70186A96.32338,96.32338,0,0,0,307.86753,182.23849Z"/><path class="cls-66" d="M269.00029,139.08354c2.26264-.19471,4.13258,1.074,5.61843,2.31291,1.99467,1.66317,3.12416,1.22609,4.68289-.37551,4.49973-4.62348,9.10278-9.1464,13.6654-13.70868,4.76234-4.762,4.7624-4.76193,9.29252-.18433a23.87151,23.87151,0,0,1,4.40018,8.14621c-1.76005-1.09751-2.85346-.01383-4.00524,1.14553-5.77084,5.80874-11.668,11.49618-17.30661,17.42976-1.88072,1.9791-3.27091,2.088-5.04987.24062-1.16587-.1788-1.45654-1.04354-1.59432-2.027-1.24242-2.37728-1.90745-5.1556-4.5567-6.55428a4.99269,4.99269,0,0,1-1.3908-1.07242C272.0095,142.30077,269.131,141.65251,269.00029,139.08354Z"/><path class="cls-67" d="M226.99546,221.19264c-1.88578-1.30119-2.829-3.43427-4.41381-5.00107a20.69307,20.69307,0,0,1-8.0483-9.29532c.22144-1.8951,1.47551-3.16215,2.72438-4.42514,3.73537-3.77762,7.50833-7.51775,11.26-11.27912,1.8464-1.85116,3.74-3.66079,3.43929-6.64378a1.34475,1.34475,0,0,1,.81749-1.24326c2.1106-.14678,3.24813,1.59642,4.79082,2.52012a36.10939,36.10939,0,0,0,10.82342,4.29457c.70992.15736,1.44423.19755,1.80908.96835,1.43922,1.62457,1.23926,2.93517-.357,4.49627-6.82275,6.67233-13.51274,13.48021-20.288,20.20144C228.02126,217.305,226.79365,218.89038,226.99546,221.19264Z"/><path class="cls-48" d="M250.19785,191.088c-6.86737-.14094-12.26795-3.70354-17.557-7.52631-1.8225.0728-2.70819-1.27774-3.63-2.48108a21.8257,21.8257,0,0,1-4.276-7.74212,9.958,9.958,0,0,0-.98956-3.85652,4.22661,4.22661,0,0,1-.16565-.90927c-.04057-1.113-.037-2.22422-.00643-3.337a2.29742,2.29742,0,0,1,.69272-1.7971,1.138,1.138,0,0,1,.95985-.08674c1.93453,2.43654,1.87495,5.66017,3.28265,8.33152a47.12408,47.12408,0,0,1,1.973,4.5464c3.14284,6.83527,9.08671,10.14567,15.88219,11.924,9.50754,2.48807,18.02924-.27721,24.947-6.85254a23.32965,23.32965,0,0,0,7.38928-16.07869,3.615,3.615,0,0,1-.02438-.93248,7.94363,7.94363,0,0,0-.238-5.78168c-.394-2.26554-1.45512-4.46215-.71609-6.84656.61111-.928,1.25524-1.13276,1.94844-.07949q.314,1.25386.6281,2.50772a46.41657,46.41657,0,0,1,1.25386,10.66047c-.42206,5.53159-3.01321,10.35651-5.24405,15.23957-1.75879,3.84986-5.31349,5.75773-9.18329,7.47923C261.66244,189.89911,256.20206,191.55719,250.19785,191.088Z"/><path class="cls-68" d="M275.2588,104.059c4.27325,1.49731,8.0568,3.92639,11.895,6.25148q.41313.4788.82634.95745a1.11727,1.11727,0,0,1-.61871.62812,3.0741,3.0741,0,0,1-2.67061-.57765c-3.25025-2.37881-7.53389-3.08125-10.23886-6.33148C274.41354,104.41121,274.79522,104.19941,275.2588,104.059Z"/><path class="cls-68" d="M289.76073,113.20952q-.023.35609-.04589.71179-.642-.60122-1.28431-1.20167c-.50926-.254-.92664-.55609-.64226-1.22588l.19173-.2257C288.87764,111.63632,289.71932,112.056,289.76073,113.20952Z"/><path class="cls-69" d="M287.78827,111.49376q.3213.61271.64243,1.22565-9.74151,9.89034-19.4896,19.77339a3.60288,3.60288,0,0,1-3.67765,1.0826,5.431,5.431,0,0,0-5.02581.9317c-.87766,1.36535-2.24781.93985-3.38758.74495-10.45243-1.78735-18.85,1.89617-25.79929,9.535-4.99014,3.3687-5.7578,8.80923-6.8947,14.06548-.06531.30207-.07119.61852-.14364.92242-3.73755,8.21865-11.05993,13.34622-17.09094,19.55368-2.63894,2.71611-4.25563,5.14515-2.71,8.975.49579,1.2285.906,2.91495-.95229,3.78078-.91883.1213-1.44623-.471-1.96594-1.07592a58.93859,58.93859,0,0,1-3.43959-6.45123,4.74253,4.74253,0,0,1-.52695-2.25,8.33827,8.33827,0,0,0-.09641-2.79436,8.44758,8.44758,0,0,1,2.82642-7.57157C206.153,165.936,212.158,159.838,218.23314,153.811a31.21055,31.21055,0,0,0,4.49481-5.19612,53.81516,53.81516,0,0,1,15.47525-15.66636c6.31539-4.28919,11.0917-10.39932,16.553-15.69943,4.04373-3.92436,7.9651-7.97428,11.974-11.93523,1.37044-1.35406,2.81253-2.53274,4.9469-2.007a5.02871,5.02871,0,0,1,2.94386,1.28057Z"/><path class="cls-70" d="M230.19709,144.05268c7.98967-9.551,18.15407-12.25775,30.04049-9.54532a38.72651,38.72651,0,0,1,8.76273,4.576c1.62269,1.58406,3.67282,2.76508,4.662,4.94617-1.903.99-2.85074-.62086-3.98355-1.53892-3.56627-2.89014-4.054-2.92149-7.25037.26268q-13.84179,13.78907-27.63327,27.62852c-3.88916,3.8949-3.81015,3.96437-.22868,8.04243.97033,1.1049,3.27632,2.13655,1.26718,4.25928-3.04561-1.0523-4.36794-3.88149-6.28436-6.09872-2.05287-4.17174-4.40664-8.23909-4.5373-13.07773a3.65906,3.65906,0,0,1-.82917-2.896A25.08822,25.08822,0,0,1,230.19709,144.05268Z"/><path class="cls-71" d="M179.92885,152.11583q10.40143-12.06453,20.803-24.12811,1.20559-1.08586,2.41081-2.17358a1.47322,1.47322,0,0,1,.61579,1.19677c-.25587,1.58019-1.36825,2.65938-2.26667,3.86372a7.572,7.572,0,0,0-2.85209,3.12855c-4.42961,5.856-9.35877,11.29076-14.18258,16.81143-1.207,1.38138-2.17666,3.46152-4.69087,2.58755A1.21478,1.21478,0,0,1,179.92885,152.11583Z"/><path class="cls-72" d="M204.34991,124.51082a61.13015,61.13015,0,0,1,31.05839-22.34517,7.00632,7.00632,0,0,1,1.54217-.15674c.65809-.40652,1.18616-.3582,1.50388.42887-1.02914,2.36344-3.48556,2.481-5.4216,3.19611a60.95382,60.95382,0,0,0-21.25756,13.81825c-1.12973,1.09023-1.96011,2.4247-3.03683,3.548-1.06284,1.10884-1.99517,2.4537-3.76719,2.52325C204.48107,125.36017,204.12245,125.11454,204.34991,124.51082Z"/><path class="cls-73" d="M238.28652,102.62882l-1.336-.61985c1.80292-1.14069,4.04581-.80353,5.90475-1.75742,6.19622-.67006,12.39141-1.1229,18.58168.056-.00328,1.01429-.75733,1.18461-1.51626,1.34936A81.40088,81.40088,0,0,0,241.751,103.253C240.57821,103.49054,239.26461,103.79864,238.28652,102.62882Z"/><path class="cls-74" d="M204.34991,124.51082l.67.73431a1.08777,1.08777,0,0,1,.25222.84287c-.42745.94283-1.00914,1.56665-2.14692,1.03239l.01749-1.30621Q203.74628,125.16245,204.34991,124.51082Z"/><path class="cls-75" d="M179.98723,153.52517c4.4442-3.97171,7.87271-8.85759,11.89486-13.20847,2.114-2.28679,3.79725-4.96089,6.25122-6.94014.60352-.16576.93807.17465,1.20846.63859.43,1.41738-.208,2.66427-.75839,3.86067-1.436,3.12106-1.8275,6.576-3.20171,9.70807-1.94587,1.13873-2.417,3.13261-2.50445,5.07766-.24221,5.38753-2.443,9.56051-6.307,13.39956q-45.65082,45.35566-91.04975,90.96482c-2.35946,2.36324-4.85893,4.57446-7.243,6.91056-1.14449,1.12148-2.35992,2.48015-4.32955,1.89451-.84755-1.3092.36427-1.86406.98976-2.59155q21.91016-25.48443,43.947-50.85935c2.39228-2.75235,4.72744-5.55425,7.16209-8.27a1.21942,1.21942,0,0,1,.06655-.458c5.38385-5.37218,9.88363-11.51281,14.93106-17.17748,3.52358-3.95444,6.83871-8.08993,10.41592-11.99788,5.79237-6.96168,11.93754-13.62127,17.67378-20.63132A1.13109,1.13109,0,0,1,179.98723,153.52517Z"/><path class="cls-76" d="M136.04682,204.11009c-.47956,2.68807-2.836,4.077-4.3948,5.92116-8.59876,10.1728-17.44518,20.13605-26.189,30.18655Q95.11428,252.113,84.82084,264.05627a7.4026,7.4026,0,0,0-.82189,1.64966c.1462,1.42877-.84064,2.27556-1.63861,3.23127-10.022,12.003-20.55748,23.56491-30.57533,35.57043a58.98958,58.98958,0,0,0-8.70231,13.67943c-.54134,1.20963-.96049,2.59642-2.56061,2.90507-.50042-.174-.77727-.464-.52917-1.02461a49.67441,49.67441,0,0,1,10.153-17.45465q30.3224-35.25362,60.78083-70.39029c7.49854-8.68865,14.92768-17.43716,22.41041-26.13953C134.07,205.23084,134.761,204.23955,136.04682,204.11009Z"/><path class="cls-77" d="M161.80626,174.79635Q150.229,188.38746,138.64387,201.9719a3.93826,3.93826,0,0,1-2.53061,1.67987,4.36853,4.36853,0,0,1,.60851-1.4116c5.91937-5.9857,10.56488-13.06181,16.44005-19.09612,2.79208-2.86772,4.82983-6.43644,7.98518-9.00567A.70368.70368,0,0,1,161.80626,174.79635Z"/><path class="cls-77" d="M161.80626,174.79635l-.65925-.658c2.92687-4.50961,6.92559-8.13025,10.23794-12.32779,2.66439-3.37643,5.68271-6.47355,8.544-9.69467q.02891.70389.05813,1.40859c-2.58817,4.31333-6.28333,7.72717-9.5089,11.51029C167.65891,168.34134,165.118,171.92,161.80626,174.79635Z"/><path class="cls-78" d="M39.99292,320.06752l.73391.81541a2.94444,2.94444,0,0,1,.38975,2.95569,75.89637,75.89637,0,0,0-3.27157,25.864,1.81342,1.81342,0,0,1-.88142,1.36336c-2.05509-8.48431-1.10629-16.859.92407-25.193.34291-1.40757.70565-2.81029,1.0595-4.21468Q39.4703,320.86345,39.99292,320.06752Z"/><path class="cls-79" d="M260.17921,100.84316q.62881-.26785,1.25769-.53567a51.12254,51.12254,0,0,1,13.82186,3.75144q-.31857.26387-.63749.52807-1.54575-.333-3.09087-.6667c-3.01-.35214-6.08263-.16844-9.02461-1.12558a4.5297,4.5297,0,0,1-2.20273-.994A.8524.8524,0,0,1,260.17921,100.84316Z"/><path class="cls-80" d="M47.65782,380.46046c-3.88021-6.08915-8.03923-12.039-9.517-19.3151-.22216-1.09377-.84812-2.16744.012-3.24861a2.25511,2.25511,0,0,1,1.64648,2.05281c.52944,2.72859,2.0422,4.978,3.509,7.24958a10.38617,10.38617,0,0,0,.86369,1.94668,3.9541,3.9541,0,0,1,.63529,1.06655,6.66257,6.66257,0,0,0,1.88924,3.06842c1.14851,2.54963,3.19854,4.43148,4.88059,6.58437.93932,1.07379,2.45868,1.89822,1.63522,3.74049-.61755,2.3394,2.09164,2.70617,2.597,4.37973-2.33056-.65278-3.56927-2.59-4.93865-4.3188A13.31016,13.31016,0,0,0,47.65782,380.46046Z"/><path class="cls-81" d="M53.21227,383.60565l-2.43052-3.13559c.02936-1.20881-.94051-1.79167-1.59913-2.57691-2.4628-2.93638-2.452-4.5866.07031-7.39675.977-1.08848,2.04521-2.09177,3.0797-3.1261q77.03556-77.02154,154.05472-154.05952c4.79543-4.79482,4.87571-5.84168.94479-11.62027-1.105-1.62445-2.6014-3.038-2.83546-5.14044a1.58036,1.58036,0,0,1,.40572-1.15188,1.69521,1.69521,0,0,1,1.76543.06191c3.34986,2.99687,6.60038,6.07621,8.24373,10.42682a2.216,2.216,0,0,0,.4631,2.51528c1.41,1.908,2.94888,3.71886,4.286,5.68206,2.31257,5.24642,2.12434,6.2989-2.02783,10.45261Q140.73219,301.4659,63.8079,378.37125c-1.03433,1.0344-2.04669,2.09189-3.09674,3.10922-1.30993,1.26913-1.96519,2.61117-1.196,4.48291.25688.62508,1.11961,1.83366-.60424,2.04875A33.26081,33.26081,0,0,1,53.21227,383.60565Z"/><path class="cls-82" d="M223.86192,220.55924c2.80484,2.16232,4.04084,5.205,4.82063,8.5192a2.82023,2.82023,0,0,1-.83972,2.84626c-.74215.7352-1.46947,1.48532-2.20818,2.224q-76.902,76.90339-153.8211,153.78974a15.78072,15.78072,0,0,0-4.13931,5.72621,4.79931,4.79931,0,0,1-3.12115-1.74617,7.23258,7.23258,0,0,0-1.63733-1.43382c-2.13409-1.69591-2.44488-3.075-1.0486-5.32384a23.10992,23.10992,0,0,1,3.57563-3.93519q71.25785-71.27253,142.47869-142.5819C213.58335,232.962,220.36978,228.18559,223.86192,220.55924Z"/><path class="cls-83" d="M223.86192,220.55924c.49988,2.98368-.86684,5.02459-2.94288,7.09669Q143.11682,305.30931,65.42439,383.07274c-4.20964,4.20968-4.20944,4.20987-.8713,8.84511a20.33042,20.33042,0,0,1-5.64214-3.90579c-2.15445-3.73755-.51374-6.18958,2.27412-8.96885Q138.87135,301.596,216.43785,224.02878c3.02473-3.01488,4.69488-5.7207,2.40756-9.74018,1.39627-.51078,1.95448.61187,2.29393,1.46924A40.376,40.376,0,0,0,223.86192,220.55924Z"/><path class="cls-84" d="M42.5578,368.169c-2.28412-3.07427-3.36222-6.66566-4.40493-10.27227q-.51478-2.53836-1.02933-5.07676c.34028-.44044-.07508-1.44652,1.002-1.33744,1.72874.94124,1.47254,2.81478,1.96449,4.31213.41146,1.25237.35063,2.65129,1.137,3.80193.58451,1.65013,1.16767,3.298,1.81123,4.92722C43.53236,365.77493,43.9148,367.11452,42.5578,368.169Z"/><path class="cls-85" d="M37.63809,351.61635q-.25738.60175-.51466,1.2036-.07965-.87732-.15968-1.75435.03-.66584.06042-1.3324a.58856.58856,0,0,1,.84749.11463A1.34528,1.34528,0,0,1,37.63809,351.61635Z"/><path class="cls-82" d="M223.86192,220.55924c-2.22559-1.64748-2.79092-4.62317-5.01651-6.27064-1.44624-1.98337-2.88117-3.97511-4.3445-5.94577-.54673-.73625-.77958-1.43917-.08585-2.20192a.66957.66957,0,0,1,.66437.6259c2.04513,3.50416,5.30874,6.03829,7.50241,9.42441C221.72084,218.02488,224.07717,218.91517,223.86192,220.55924Z"/><path class="cls-86" d="M235.7922,182.30842c-.19774-2.25531-2.31536-3.005-3.55617-4.417-2.54217-2.89294-2.65685-4.094.10486-6.86679,10.09147-10.13192,20.25008-20.19726,30.29841-30.3716,2.06358-2.08945,3.79266-2.38065,6.20441-.5467,1.6545,1.25813,2.7737,3.16569,4.817,3.92293q.49151.34149.98.68239a10.54345,10.54345,0,0,1,3.70934,6.97366q.682,3.4084,1.364,6.8168a12.6531,12.6531,0,0,1-.10244,6.24827l.02463-.04758c-1.85435,12.66951-9.95382,21.59644-22.69912,23.94985A25.56386,25.56386,0,0,1,237.08,184.18207C236.48044,183.75684,235.47457,183.43781,235.7922,182.30842Z"/><path class="cls-50" d="M278.35005,151.6853q-1.85465-3.48686-3.70932-6.9737c3.3041,1.09881,3.41018,4.53847,5.02914,6.87073C279.21285,151.39767,278.7532,151.17941,278.35005,151.6853Z"/><path class="cls-53" d="M215.07943,206.76681q-.33175-.313-.66393-.62595-4.05769-5.01708-8.11448-10.03427c-.67243-2.37222.66429-3.99124,2.134-5.513,3.76-3.89318,7.60884-7.69962,11.4715-11.49011,1.55059-1.52162,2.66387-3.01578,2.33109-5.42617a5.23339,5.23339,0,0,1,1.39547-4.6219.67324.67324,0,0,1,.85441.08493l.00153.00139c.49115,1.22891.53057,2.60807,1.25072,3.76082,1.47333,4.08851,4.21427,7.35631,6.90113,10.65911,1.79965,3.34361-.22085,5.51566-2.338,7.67176Q222.68363,198.99279,215.07943,206.76681Z"/><path class="cls-87" d="M235.7922,182.30842c14.89853,12.3566,38.51211,4.01248,43.14449-15.24066.19206-.79813.46462-1.5769.69962-2.36483-.09678,8.888-4.6228,15.4444-11.46578,20.38441-10.70181,7.7257-26.42928,5.973-35.4045-3.639-1.3231-1.417-2.78786-2.81948-3.217-4.86354C231.86181,178.24006,233.22464,180.93128,235.7922,182.30842Z"/><path class="cls-67" d="M224.48746,169.14036q-.31278-.00036-.62554-.00039c-2.42863-1.39548-2.02347-3.65578-1.70489-5.82935a9.01584,9.01584,0,0,1,1.07706-3.57626c.73722-5.93034,1.77447-11.72749,6.96273-15.68172-1.11276,2.31756-2.28369,4.60941-3.32594,6.95834-1.76735,3.98319-1.83865,8.24082-1.85882,12.496q-.25851-.00979-.51695-.01289c-.57943-1.25828-.26745-2.51688-.14109-3.77541.23185-.40782.474.23553.12345.00783-.15924-.10342-.26478-.05352-.25812.1478.06076,1.83572-.35988,3.69509.26623,5.50324Q224.4865,167.259,224.48746,169.14036Z"/><path class="cls-49" d="M224.48558,165.37756c-1.13858-1.83925-.43614-3.82767.00938-5.80557q0,1.9611.00007,3.92214Q224.49038,164.43582,224.48558,165.37756Z"/><path class="cls-87" d="M279.61162,164.75037q.05109-3.12429.10234-6.24843A7.07623,7.07623,0,0,1,279.61162,164.75037Z"/><path class="cls-67" d="M225.73971,172.90257a4.47127,4.47127,0,0,1-1.25072-3.76084A6.33258,6.33258,0,0,1,225.73971,172.90257Z"/><path class="cls-88" d="M37.63809,351.61635l-.01748-1.87488c-.71023-3.49964-.18-7.03465-.27364-10.55163-.03876-1.456.992-2.42467,1.97837-3.40916q74.86893-74.72691,149.62221-149.56957c.51724-.517.99823-1.07535,1.5482-1.55359a6.689,6.689,0,0,0,2.269-7.01513,26.39321,26.39321,0,0,1-.52693-7.16109c.11268-1.64833.7642-3.04022,2.735-1.35954.60043,1.93661.84513,3.99315,1.95521,5.75835.25255,2.49607,1.00748,4.911,1.24778,7.4117l.57639,1.91814a17.83663,17.83663,0,0,0,2.71572,6.87151c2.35424,3.62455,2.11831,6.49324-.76929,9.61335-.7097.76685-1.462,1.493-2.20091,2.23181q-76.80687,76.79709-153.623,153.58484c-1.35691,1.35566-2.43256,3.246-4.74607,3.26216C38.377,357.33582,38.84281,354.22109,37.63809,351.61635Z"/><path class="cls-89" d="M40.12858,359.77362c.97639-1.08175,1.90684-2.20946,2.93578-3.23866q77.874-77.89661,155.76387-155.77739c3.95788-3.9579,4.05756-5.109,1.40718-10.05949-1.06112-1.982-2.0064-4.09542-1.483-6.48843q1.58342,3.11856,3.16726,6.23652c2.3389,3.67589,3.26166,8.09551,6.071,11.5277,1.14436,1.39807.62552,2.73927-.27694,4.00905a29.85826,29.85826,0,0,1-3.409,3.66462Q126.4675,287.50528,48.57446,365.30708c-1.61023,1.60728-2.61629,4.05135-5.26667,4.47511q-.37488-.80775-.74988-1.61432C42.69957,365.0952,40.04945,362.82925,40.12858,359.77362Z"/><path class="cls-89" d="M43.30779,369.78219a15.01082,15.01082,0,0,1,3.42712-4.40388q79.03-79.005,158.08332-157.98658c2.45135-2.44631,3.58806-4.26338,1.28464-7.63662-1.87894-2.75162-4.07066-5.64144-4.18326-9.30881q.62292.63535,1.24573,1.271c1.74391.68374,3.027,1.6004,1.89066,3.74013.78841,3.83462,3.8903,6.34856,5.5842,9.69777,1.49112,2.94823,1.09914,4.7408-1.21524,7.04967Q130.58934,290.85221,51.89358,369.63973c-4.27652,4.27655-4.27753,4.27747-1.01,9.42549a1.02522,1.02522,0,0,1-.10183,1.40481c-1.84987-2.12752-3.89063-4.113-5.03615-6.7649-.69825-1.07176-.98048-2.40557-2.045-3.24658Z"/><path class="cls-90" d="M198.17579,182.29181l-2.498-6.90795c.42163-2.31226-.43945-4.53151-1.012-6.61578-.89009-3.24033-.62725-6.39593-.35884-9.5624a8.12882,8.12882,0,0,1,2.63075-4.86348c17.28031-17.36856,34.75236-34.54591,51.9001-52.0465a2.87389,2.87389,0,0,1,2.12088-1.16712c3.09443.13542,6.2099-.40868,9.286.28335a27.57393,27.57393,0,0,1,11.28554,2.50842c-1.69055-.13288-2.62883,1.05447-3.65792,2.08362-7.59638,7.59678-15.29341,15.09636-22.75429,22.824-4.9441,5.12082-12.038,7.77851-16.1363,13.67189-8.29157,11.92348-19.3026,21.25876-29.22628,31.62959a6.0595,6.0595,0,0,0-1.48721,5.51C198.41325,180.53709,198.99043,181.43333,198.17579,182.29181Z"/><path class="cls-69" d="M205.056,195.45744q-.94527-1.87011-1.89062-3.74017c.81954-2.05-.37052-3.86584-.84838-5.6936a4.83268,4.83268,0,0,1,1.45223-5.30829c4.13287-3.97543,8.01564-8.2167,12.23456-12.09478,2.87021-2.6383,4.87347-5.88408,7.2303-8.88625.01194,3.14839-.18011,6.31038.62783,9.40562.20633,2.249-.94668,4.42893-.152,6.757.41157,1.20573-.807,2.02923-1.60308,2.82881-3.58585,3.60168-7.14474,7.2316-10.793,10.76919a20.5484,20.5484,0,0,0-5.01273,6.61156Q205.67849,195.782,205.056,195.45744Z"/><path class="cls-91" d="M194.42619,147.19713q2.18963-6.578,4.37923-13.156c.07082-1.53294,1.0309-2.62617,1.869-3.77972q1.22583-1.57053,2.45125-3.141.95761-.63255,1.91614-1.2652c1.09537,1.41479.11843,2.5324-.54987,3.67281a62.42968,62.42968,0,0,0-8.35711,23.88066c-.4707,3.66615-1.6986,7.24084-1.46107,11.025.04349.69275-.23785,1.22618-1.11553.94779a1.99914,1.99914,0,0,1-.70694-1.44089c-.05944-3.03421-.01437-6.06689-.029-9.09929C192.75923,152.16786,192.86444,149.52969,194.42619,147.19713Z"/><path class="cls-92" d="M200.67442,130.26139a7.98088,7.98088,0,0,1-1.86931,3.77962q-.33542-.33184-.67161-.66418A4.84722,4.84722,0,0,1,200.67442,130.26139Z"/><path class="cls-93" d="M193.80854,165.36911a4.26642,4.26642,0,0,0,.574-3.00472c-.29834-12.97475,2.86547-24.93083,10.41614-35.61029a2.77728,2.77728,0,0,0,.24322-.89874q.00029-.30572-.02158-.61024c7.74413-9.95875,17.33315-17.406,29.35861-21.51832,1.27809-.43707,2.60388-.73473,3.90757-1.09752,7.17758-2.07072,14.53223-1.971,21.89323-1.7867q.04232.28411.06487.56941c-6.1513-1.10817-10.3526,1.44279-14.66555,5.94186q-22.51525,23.48709-45.99941,46.03725c-4.49211,4.33369-4.98656,8.92012-4.32852,14.4101.29943,2.49809,1.64641,4.98784.42638,7.58305-.55279-2.06053-1.51771-4.03279-1.33366-6.25028C193.63774,167.954,192.14567,166.88586,193.80854,165.36911Z"/><path class="cls-94" d="M193.80854,165.36911q.2681,1.8825.53574,3.76493c-.82887-.30974-1.15881-.04926-1.07043.85047.24385,2.48283.13167,5.05212.74921,7.43457.91122,3.51553-.27471,5.91486-2.71468,8.34841Q138.09176,238.84384,84.98319,292.02856c-13.951,13.951-27.71638,28.09589-41.96859,41.732-4.1518,3.97232-6.29561,7.8837-5.408,13.4771a15.99749,15.99749,0,0,1,.014,2.5037q-.29853-.00729-.59678-.00819c-.31083-9.8151-.23591-19.58068,3.70334-28.8502,2.58413-8.01724,7.63056-14.50451,13.001-20.76771q13.40175-15.6298,26.91173-31.16667c1.0159-1.17111,2.23485-2.16609,3.35935-3.24271,3.34862-2.16187,6.0185-5.1068,8.80083-7.882q47.14052-47.01966,94.24-94.08024c3.05382-3.03664,4.18737-6.56059,4.84438-10.50709.36753-2.20773.11539-4.69157,2.54132-6.03948-.24866,2.512-.89338,4.9873-.69691,7.54044a31.84877,31.84877,0,0,0,.00892,9.37207Z"/><path class="cls-84" d="M43.70059,370.45855c1.46126.59047,1.86026,1.85034,2.045,3.24589A8.41446,8.41446,0,0,1,43.70059,370.45855Z"/><path class="cls-75" d="M193.73783,164.10962a15.52335,15.52335,0,0,1-.00867-9.37239Q193.73321,159.42374,193.73783,164.10962Z"/></svg>