<svg xmlns="http://www.w3.org/2000/svg" role="img" viewBox="-32.38 -32.38 1683.76 342.76"><path d="M1619.27 4.34h-47.94l-57.42 64.12V4.34h-40.25l.2 157.84h40.05V102.2l54.46 59.98h50.9l-73.39-77.93 73.39-79.91zm-210.51 64.91l-36.7-4.14c-21.51-2.37-26.83-7.7-26.83-15 0-8.09 11.05-15.39 32.55-15.39 20.72 0 31.57 7.7 33.54 19.34h39.46c-2-33.35-30-54.06-70.83-54.06-48.53 0-73 19.33-73 53.46 0 27.82 16.18 40.85 49.72 44.4l37.29 3.94c14.21 1.58 20.72 7.11 20.72 14.21 0 8.09-9.47 15.39-32.36 15.39-26.44 0-37.09-6.71-38.87-20.13h-38.67c1.78 36.31 25.45 54.85 76.16 54.85 46.36 0 72.21-20.32 72.21-50.9 0-26.64-15.39-42.62-44.39-45.97zm-248.8 92.93h127.06v-34.13h-86.81V99.44h69.84V65.11h-69.84V38.47h86.81V4.34h-127.06v157.84zm-94.7-157.84h-73.79v157.84h73.79c56.63 0 72.21-21.11 72.21-80.11 0-55.44-14.99-77.73-72.21-77.73zm-1.62 123.72h-32V38.47h32c25.26 0 32.75 6.91 32.75 43.6.04 33.54-8.44 45.99-32.75 45.99zM882.17 0c-57.42 0-87.21 35.31-87.21 82.86 0 47.75 29.79 83.26 87.21 83.26 57.61 0 87.4-35.51 87.4-83.26 0-47.55-29.79-82.86-87.4-82.86zm0 130.61c-29.79 0-46.17-18.15-46.17-47.75 0-29 16.38-47.35 46.17-47.35 30 0 46.17 18.35 46.17 47.35 0 29.6-16.18 47.75-46.17 47.75zM646.59 38.47h50.9v123.71h40.25V38.47h50.71V4.34H646.59v34.13zM588 101.8c0 20.52-12.63 28.81-34.14 28.81-20.91 0-34.52-8.68-34.52-28.81V4.34h-40.25v102c0 45.58 40.64 59.78 74.77 59.78 33.94 0 74.38-14.2 74.38-59.78v-102H588zM361.3 4.34l-60.57 157.84h41.63l10.57-29.6h67.62l10.4 29.6h43L412.64 4.34zm3.61 94.7l22.11-61.87 21.74 61.89zM1.24 162.19l141.34-87.92h73.32a4.28 4.28 0 0 1 4.28 4.29 3.72 3.72 0 0 1-2 3.6l-69.42 41.62c-4.51 2.7-6.09 8.12-6.09 12.18l-.07 26.23h88.22V9.75a5.41 5.41 0 0 0-5.64-5.42H141L0 91.87v70.32z"/><path d="M669.15826 248.54074l9.53022-29.09 9.23062 29.09zm.95588-45.99616l-26.37932 73.93056h16.15002l5.10752-15.19414h27.23532l4.7651 15.19414h16.7635l-26.19385-73.93056zm8.63141 0zm57.48094 19.26018h-14.652v32.95631c0 6.24886.78467 10.98544 2.35402 14.19547 2.81056 5.82085 8.26047 8.73128 16.34975 8.73128 2.81056 0 5.26445-.37094 7.3474-1.11281 2.09722-.72761 4.26578-2.09722 6.50566-4.10884.72761-.642 1.36962-1.36961 1.89749-2.21136.54214-.82747.87027-1.34107 1.01294-1.49801v7.71834h13.8816v-54.67038h-14.49507v29.74628c0 3.50963-.45654 6.33446-1.39815 8.47448-1.81188 3.9519-5.15031 5.92072-10.02956 5.92072-3.80923 0-6.37726-1.38388-7.67554-4.1659-.74187-1.56935-1.09854-3.9091-1.09854-7.01927zm10.02956-1.45521zm68.8373.1712c-.18546-.01427-.41373-.01427-.6848-.01427-4.28004 0-7.74687 1.11281-10.42903 3.3527-1.64068 1.34108-3.55243 3.83777-5.76379 7.4758v-9.53022h-13.63906v54.67038h14.3952v-26.12251c0-4.39418.54214-7.63274 1.65495-9.74423 1.96882-3.7379 5.83513-5.60685 11.58465-5.60685.428 0 .99867.01427 1.69774.0428.71334.0428 1.51229.09987 2.4111.19974v-14.63774c-.62775-.0428-1.04148-.05707-1.22695-.0856zm43.75628 41.41652c-2.23988 2.9675-5.44991 4.4655-9.63009 4.4655-4.18017 0-7.3902-1.498-9.64435-4.4655-2.26842-2.98176-3.3955-7.20473-3.3955-12.69745 0-5.47845 1.12708-9.70143 3.3955-12.66892 2.25415-2.95323 5.46418-4.43698 9.64435-4.43698 4.18018 0 7.3902 1.48375 9.6301 4.43698 2.23988 2.9675 3.36696 7.19047 3.36696 12.66892 0 5.49272-1.12708 9.71569-3.36697 12.69745zm11.44198 7.88954c4.60817-5.69245 6.9194-12.55478 6.9194-20.587 0-7.88953-2.31123-14.72333-6.9194-20.51565-4.62244-5.77805-11.62744-8.67421-21.015-8.67421-9.40182 0-16.40682 2.89616-21.015 8.67421-4.62244 5.79232-6.9194 12.62612-6.9194 20.51566 0 8.0322 2.29696 14.89454 6.9194 20.58699 4.60818 5.70672 11.61318 8.56008 21.015 8.56008 9.38756 0 16.39256-2.85336 21.015-8.56008zm-21.015-49.47726zm68.5377.1712c-.18546-.01427-.41373-.01427-.6848-.01427-4.28004 0-7.74687 1.11281-10.42903 3.3527-1.64068 1.34108-3.55243 3.83777-5.76379 7.4758v-9.53022h-13.63906v54.67038h14.3952v-26.12251c0-4.39418.54214-7.63274 1.65495-9.74423 1.96882-3.7379 5.83513-5.60685 11.58465-5.60685.428 0 .99867.01427 1.69774.0428.71334.0428 1.51229.09987 2.4111.19974v-14.63774c-.62775-.0428-1.04148-.05707-1.22695-.0856zm39.74731 29.37534v5.32152c-.09986 4.77938-1.44094 8.075-4.0375 9.87262-2.59656 1.81189-5.42138 2.7107-8.50301 2.7107-1.94029 0-3.58097-.54214-4.93632-1.62642-1.35534-1.08428-2.02588-2.85336-2.02588-5.29298 0-2.73923 1.09854-4.76511 3.3099-6.07766 1.29827-.7704 3.45256-1.41241 6.46286-1.95455l3.21003-.5992c1.61214-.29961 2.86762-.62775 3.7807-.97015.92734-.35667 1.84042-.8132 2.73922-1.38388zm-8.67421-6.67686l-4.86498.5992c-5.52125.71334-9.70142 1.88322-12.54052 3.5239-5.17884 3.0103-7.7754 7.87528-7.7754 14.59494 0 5.17885 1.61215 9.18782 4.83644 12.01265 3.2243 2.82482 7.31887 4.23724 12.26945 4.23724 3.88057 0 7.3474-.88455 10.42903-2.6679 2.5823-1.49801 4.85071-3.32416 6.81953-5.46418.09987 1.24121.24254 2.33975.39947 3.3099.1712.97014.4708 2.01162.91308 3.11016h15.53654v-2.11149c-.92734-.428-1.62641-.9844-2.09722-1.65495-.4708-.65627-.75614-1.92601-.856-3.80923-.07134-2.46816-.09987-4.57964-.09987-6.3202v-25.06676c0-6.59126-2.3255-11.07104-6.97647-13.4536-4.6367-2.36828-9.95822-3.55243-15.95028-3.55243-9.18782 0-15.67921 2.39683-19.45992 7.219-2.36828 3.08163-3.70936 7.005-4.00897 11.78438h13.796c.32814-2.11149.99868-3.7807 2.01162-5.00765 1.39814-1.68348 3.79497-2.51095 7.16193-2.51095 3.0103 0 5.29298.428 6.84807 1.26974 1.55508.85601 2.33975 2.4111 2.33975 4.65098 0 1.84042-1.0272 3.1815-3.06736 4.05177-1.14134.5136-3.02456.92734-5.66392 1.25548zm.75614-22.86968z"/></svg>