<?xml version="1.0" encoding="UTF-8" standalone="no"?>
<svg
   width="999.9939"
   height="282.60135"
   viewBox="0 0 999.9939 282.60135"
   xml:space="preserve"
   style="clip-rule:evenodd;fill-rule:evenodd;stroke-linejoin:round;stroke-miterlimit:2"
   version="1.1"
   id="svg12"
   sodipodi:docname="ayon-whiteg-dot.svg"
   inkscape:version="1.3.2 (091e20e, 2023-11-25)"
   xmlns:inkscape="http://www.inkscape.org/namespaces/inkscape"
   xmlns:sodipodi="http://sodipodi.sourceforge.net/DTD/sodipodi-0.dtd"
   xmlns="http://www.w3.org/2000/svg"
   xmlns:svg="http://www.w3.org/2000/svg"
   xmlns:serif="http://www.serif.com/"><defs
   id="defs12" /><sodipodi:namedview
   id="namedview12"
   pagecolor="#ffffff"
   bordercolor="#666666"
   borderopacity="1.0"
   inkscape:showpageshadow="2"
   inkscape:pageopacity="0.0"
   inkscape:pagecheckerboard="0"
   inkscape:deskcolor="#d1d1d1"
   inkscape:zoom="0.52983911"
   inkscape:cx="500.15183"
   inkscape:cy="140.60872"
   inkscape:window-width="1376"
   inkscape:window-height="480"
   inkscape:window-x="0"
   inkscape:window-y="25"
   inkscape:window-maximized="0"
   inkscape:current-layer="svg12" />    <g
   transform="translate(-38.130429,-598.00349)"
   id="g12">        <g
   transform="matrix(2.62651,0,0,3.12346,6390.3,-679.551)"
   id="g11">                        <g
   id="AYON_whiteG_dot1"
   serif:id="AYON_whiteG_dot">                <g
   transform="matrix(-0.804673,-0.390674,-0.464592,0.676647,-2318.13,423.195)"
   id="g1"
   style="fill:#000000">                    <rect
   x="-38.051998"
   y="10.196"
   width="44"
   height="12.001"
   style="fill:#000000"
   id="rect1" />                </g>                <g
   transform="matrix(-0.464558,-0.676663,-0.804692,0.390646,-2234.74,444.96)"
   id="g2"
   style="fill:#000000">                    <rect
   x="10.052"
   y="-5.803"
   width="12.002"
   height="44"
   style="fill:#000000"
   id="rect2" />                </g>                <g
   transform="matrix(-0.929163,0,0,0.78133,-1948.72,277.803)"
   id="g3"
   style="fill:#000000">                    <rect
   x="354.82501"
   y="239.73801"
   width="12"
   height="44"
   style="fill:#000000"
   id="rect3" />                </g>                <g
   transform="matrix(0,-0.78133,-0.929163,0,-2283.98,409.019)"
   id="g4">                    <path
   d="m -12,-12 c -6.627,0 -12,5.373 -12,12 0,6.627 5.373,12 12,12 C -5.373,12 0,6.627 0,0 0,-6.627 -5.373,-12 -12,-12"
   style="fill:#00d7a0;fill-rule:nonzero"
   id="path3" />                </g>                <g
   transform="matrix(0.929163,0,0,0.78133,-2182.7,490.12)"
   id="g5"
   style="fill:#000000">                    <path
   d="m 0,-64 c -17.645,0 -32,14.355 -32,32 0,17.645 14.355,32 32,32 17.645,0 32,-14.355 32,-32 0,-17.645 -14.355,-32 -32,-32 m 0,76 c -24.262,0 -44,-19.738 -44,-44 0,-24.262 19.738,-44 44,-44 24.262,0 44,19.738 44,44 0,24.262 -19.738,44 -44,44"
   style="fill:#000000;fill-rule:nonzero"
   id="path4" />                </g>                <g
   transform="matrix(0.929163,0,0,0.78133,-2113.95,499.496)"
   id="g6"
   style="fill:#000000">                    <path
   d="m 0,-48 c -3.313,0 -6,2.686 -6,6 v 36 c 0,3.314 2.687,6 6,6 3.313,0 6,-2.686 6,-6 v -36 c 0,-3.314 -2.687,-6 -6,-6"
   style="fill:#000000;fill-rule:nonzero"
   id="path5" />                </g>                <g
   transform="matrix(0.929163,0,0,0.78133,-2043.33,468.242)"
   id="g7"
   style="fill:#000000">                    <path
   d="m 0,-48 c -3.313,0 -6,2.686 -6,6 v 36 c 0,3.314 2.687,6 6,6 3.313,0 6,-2.686 6,-6 v -36 c 0,-3.314 -2.687,-6 -6,-6"
   style="fill:#000000;fill-rule:nonzero"
   id="path6" />                </g>                <g
   transform="matrix(0.929163,0,0,0.78133,-2039.39,438.745)"
   id="g8"
   style="fill:#000000">                    <path
   d="m 0,67.506 -75.99,-75.99 c -1.086,-1.088 -2.588,-1.763 -4.247,-1.763 -3.314,0 -6,2.687 -6,6 0,1.66 0.674,3.161 1.762,4.248 L -8.484,75.99 c 1.086,1.089 2.588,1.763 4.247,1.763 3.313,0 6,-2.686 6,-6 0,-1.659 -0.674,-3.161 -1.763,-4.247"
   style="fill:#000000;fill-rule:nonzero"
   id="path7" />                </g>                <g
   transform="matrix(0.929163,0,0,0.78133,-2384.85,492.462)"
   id="g9"
   style="fill:#000000">                    <path
   d="M 0,-37.301 -25,6 c -1.657,2.87 -5.326,3.853 -8.196,2.196 C -36.066,6.54 -37.049,2.87 -35.392,0 l 25,-43.301 c 1.656,-2.87 5.326,-3.853 8.196,-2.196 2.87,1.657 3.853,5.326 2.196,8.196"
   style="fill:#000000;fill-rule:nonzero"
   id="path8" />                </g>                <g
   transform="matrix(0.929163,0,0,0.78133,-2367.31,497.151)"
   id="g10"
   style="fill:#000000">                    <path
   d="m 0,-82 43.879,76 c 1.657,2.87 0.674,6.54 -2.196,8.197 C 38.813,3.853 35.143,2.87 33.487,0 l -43.879,-76 c -1.657,-2.87 -0.674,-6.539 2.196,-8.196 2.87,-1.657 6.539,-0.674 8.196,2.196"
   style="fill:#000000;fill-rule:nonzero"
   id="path9" />                </g>            </g>        </g>    </g></svg>
