<?xml version="1.0" standalone="no"?>
<svg width="552px" height="145px" viewBox="18 268 552 145 " xmlns="http://www.w3.org/2000/svg" xmlns:xlink="http://www.w3.org/1999/xlink">
<title>generated by pstoedit</title>
<!-- generated by pstoedit version:3.50 -->
<g xml:space='preserve'>
<g fill="#005385" fill-rule="nonzero" stroke-width="0" stroke-linejoin="miter" stroke-linecap="butt" stroke-miterlimit="4" >
	<path d="
	M 112.871 349.254 
	C 113.199 343.359 116.09 338.16 120.445 334.473 
	L 120.445 334.473 
	C 124.723 330.852 130.477 328.645 136.754 328.641 
	L 136.754 328.641 
	C 143.031 328.645 148.785 330.852 153.063 334.473 
	L 153.063 334.473 
	C 157.418 338.16 160.309 343.359 160.641 349.254 
	C 160.973 355.316 158.539 360.953 154.262 365.125 
	L 154.262 365.125 
	C 149.906 369.371 143.699 372.039 136.758 372.039 
	L 136.758 372.039 
	C 129.813 372.039 123.602 369.371 119.242 365.125 
	L 119.242 365.125 
	C 114.969 360.953 112.535 355.316 112.871 349.254 
	Z 
	"/>
</g>
<g fill="#ff7021" fill-rule="nonzero" stroke-width="0" stroke-linejoin="miter" stroke-linecap="butt" stroke-miterlimit="4" >
	<path d="
	M 74.8281 361.191 
	C 74.8672 363.492 75.6094 367.977 76.7109 371.488 
	L 76.7109 371.488 
	C 79.0313 378.902 82.9688 385.766 88.4531 391.816 
	L 88.4531 391.816 
	C 94.0781 398.027 100.996 403.023 108.996 406.562 
	L 108.996 406.562 
	C 117.406 410.289 126.52 412.191 135.969 412.172 
	L 135.969 412.172 
	C 145.422 412.156 154.531 410.223 162.941 406.473 
	L 162.941 406.473 
	C 170.934 402.895 177.852 397.887 183.473 391.66 
	L 183.473 391.66 
	C 188.949 385.586 192.879 378.711 195.203 371.293 
	L 195.203 371.293 
	C 196.379 367.543 197.109 363.742 197.41 359.926 
	L 197.41 359.926 
	C 197.703 356.168 197.578 352.398 197.047 348.637 
	L 197.047 348.637 
	C 196.004 341.305 193.465 334.422 189.563 328.148 
	C 185.98 322.387 181.379 317.34 175.902 313.09 
	L 175.902 313.09 
	L 175.91 313.082 
	L 175.91 313.082 
	L 120.648 270.645 
	L 120.648 270.645 
	C 120.602 270.605 120.555 270.566 120.508 270.527 
	L 120.508 270.527 
	C 116.871 267.75 110.777 267.758 106.793 270.547 
	L 106.793 270.547 
	C 102.754 273.371 102.301 278.031 105.883 280.98 
	L 105.883 280.98 
	L 105.871 280.988 
	L 105.871 280.988 
	L 128.922 299.738 
	L 58.6563 299.812 
	L 58.6563 299.812 
	C 58.625 299.812 58.5938 299.812 58.5586 299.812 
	L 58.5586 299.812 
	C 52.7539 299.816 47.1758 303.633 46.0664 308.445 
	L 46.0664 308.445 
	C 44.9375 313.352 48.8828 317.418 54.918 317.441 
	L 54.918 317.441 
	L 54.9102 317.465 
	L 54.9102 317.465 
	L 90.5234 317.395 
	L 26.9688 366.172 
	L 26.9688 366.172 
	C 26.8906 366.234 26.8047 366.293 26.7266 366.355 
	L 26.7266 366.355 
	C 20.7383 370.945 18.7969 378.582 22.5703 383.414 
	L 22.5703 383.414 
	C 26.4063 388.328 34.5508 388.332 40.6094 383.434 
	L 40.6094 383.434 
	L 75.293 355.055 
	C 75.293 355.055 74.7891 358.887 74.8281 361.191 
	Z 
	M 163.949 374.016 
	C 156.805 381.305 146.805 385.43 135.973 385.449 
	L 135.973 385.449 
	C 125.137 385.469 115.133 381.375 107.984 374.105 
	L 107.984 374.105 
	C 104.492 370.559 101.926 366.492 100.34 362.145 
	L 100.34 362.145 
	C 98.793 357.879 98.1875 353.355 98.5859 348.789 
	L 98.5859 348.789 
	C 98.9727 344.32 100.289 340.062 102.418 336.207 
	L 102.418 336.207 
	C 104.508 332.418 107.379 328.996 110.922 326.098 
	L 110.922 326.098 
	C 117.867 320.434 126.707 317.371 135.965 317.359 
	L 135.965 317.359 
	C 145.223 317.348 154.059 320.387 161.008 326.027 
	L 161.008 326.027 
	C 164.547 328.91 167.418 332.32 169.504 336.102 
	L 169.504 336.102 
	C 171.633 339.953 172.953 344.203 173.344 348.672 
	L 173.344 348.672 
	C 173.738 353.238 173.137 357.762 171.586 362.031 
	L 171.586 362.031 
	C 170.004 366.383 167.441 370.457 163.949 374.016 
	Z 
	"/>
</g>
<g fill="#005385" fill-rule="nonzero" stroke-width="0" stroke-linejoin="miter" stroke-linecap="butt" stroke-miterlimit="4" >
	<path d="
	M 491.52 349.168 
	C 492.059 343.211 496.664 339.434 503.691 339.434 
	C 510.727 339.434 515.328 343.211 515.871 349.168 
	Z 
	M 515.148 363.863 
	C 513.344 368.281 509.105 370.895 503.336 370.895 
	C 496.117 370.895 491.254 366.387 491.074 359.266 
	L 532.555 359.266 
	C 532.555 358.527 532.555 357.914 532.555 357.172 
	C 532.555 339.34 522.094 329.316 503.336 329.316 
	C 485.121 329.316 474.117 339.434 474.117 355.301 
	C 474.117 371.258 485.297 381.355 503.336 381.355 
	C 514.152 381.355 522.555 377.652 527.738 371.121 
	Z 
	"/>
</g>
<g fill="#005385" fill-rule="nonzero" stroke-width="0" stroke-linejoin="miter" stroke-linecap="butt" stroke-miterlimit="4" >
	<path d="
	M 307.41 349.195 
	C 307.961 343.238 312.555 339.465 319.59 339.465 
	C 326.617 339.465 331.223 343.238 331.762 349.195 
	Z 
	M 331.039 363.895 
	C 329.238 368.312 324.996 370.926 319.227 370.926 
	C 312.012 370.926 307.141 366.414 306.961 359.293 
	L 348.441 359.293 
	C 348.441 358.555 348.441 357.945 348.441 357.203 
	C 348.441 339.371 337.977 329.344 319.227 329.344 
	C 301.004 329.344 290.012 339.465 290.012 355.328 
	C 290.012 371.289 301.184 381.387 319.227 381.387 
	C 330.043 381.387 338.445 377.684 343.629 371.152 
	Z 
	"/>
</g>
<g fill="#005385" fill-rule="nonzero" stroke-width="0" stroke-linejoin="miter" stroke-linecap="butt" stroke-miterlimit="4" >
	<path d="
	M 271.324 318.539 
	L 286.293 318.539 
	L 286.293 379.754 
	L 271.324 379.754 
	Z 
	"/>
</g>
<g fill="#005385" fill-rule="nonzero" stroke-width="0" stroke-linejoin="miter" stroke-linecap="butt" stroke-miterlimit="4" >
	<path d="
	M 352.16 334.797 
	L 367.207 334.797 
	L 367.207 338.445 
	C 372.547 332.762 378.934 329.891 386.145 329.891 
	C 394.461 329.891 400.754 332.762 404.004 337.652 
	C 406.711 341.695 406.891 346.57 406.891 352.984 
	L 406.891 379.754 
	L 391.82 379.754 
	L 391.82 356.227 
	C 391.82 346.477 389.859 341.965 381.293 341.965 
	C 372.629 341.965 367.207 347.121 367.207 355.777 
	L 367.207 379.754 
	L 352.16 379.754 
	Z 
	"/>
</g>
<g fill="#005385" fill-rule="nonzero" stroke-width="0" stroke-linejoin="miter" stroke-linecap="butt" stroke-miterlimit="4" >
	<path d="
	M 455.344 356.051 
	C 455.344 364.434 449.746 369.93 441.094 369.93 
	C 432.43 369.93 426.836 364.617 426.836 356.148 
	C 426.836 347.559 432.344 342.246 441.094 342.246 
	C 449.746 342.246 455.344 347.645 455.344 356.051 
	Z 
	M 455.344 336.84 
	C 451.551 332.762 446.047 330.523 438.387 330.523 
	C 421.895 330.523 410.609 340.711 410.609 355.965 
	C 410.609 370.918 421.801 381.379 438.113 381.379 
	C 445.602 381.379 451.102 379.492 455.344 375.246 
	L 455.344 379.754 
	L 470.402 379.754 
	L 470.402 314.652 
	L 455.344 318.539 
	Z 
	"/>
</g>
<g fill="#005385" fill-rule="nonzero" stroke-width="0" stroke-linejoin="miter" stroke-linecap="butt" stroke-miterlimit="4" >
	<path d="
	M 237.129 342.246 
	C 245.875 342.246 251.375 347.559 251.375 356.148 
	C 251.375 364.617 245.785 369.93 237.129 369.93 
	C 228.473 369.93 222.879 364.434 222.879 356.051 
	C 222.879 347.645 228.473 342.246 237.129 342.246 
	Z 
	M 222.879 318.539 
	L 207.816 314.652 
	L 207.816 379.754 
	L 222.879 379.754 
	L 222.879 375.246 
	C 227.117 379.492 232.617 381.379 240.102 381.379 
	C 256.422 381.379 267.605 370.918 267.605 355.965 
	C 267.605 340.711 256.336 330.523 239.832 330.523 
	C 232.164 330.523 226.668 332.762 222.879 336.84 
	Z 
	"/>
</g>
<g fill="#005385" fill-rule="nonzero" stroke-width="0" stroke-linejoin="miter" stroke-linecap="butt" stroke-miterlimit="4" >
	<path d="
	M 536.273 379.754 
	L 536.273 334.797 
	L 551.332 334.797 
	L 551.332 337.574 
	C 555.84 332.148 560.613 329.445 566.027 329.445 
	C 567.113 329.445 568.461 329.621 570.266 329.801 
	L 570.266 342.613 
	C 568.824 342.426 567.203 342.426 565.488 342.426 
	C 556.738 342.426 551.332 348.199 551.332 358.023 
	L 551.332 379.754 
	Z 
	"/>
</g>
</g>
</svg>