<?xml version="1.0" encoding="UTF-8" standalone="no"?>
<!-- Created with Inkscape (http://www.inkscape.org/) -->

<svg
   xmlns:dc="http://purl.org/dc/elements/1.1/"
   xmlns:cc="http://creativecommons.org/ns#"
   xmlns:rdf="http://www.w3.org/1999/02/22-rdf-syntax-ns#"
   xmlns:svg="http://www.w3.org/2000/svg"
   xmlns="http://www.w3.org/2000/svg"
   version="1.1"
   width="300"
   height="89.873466"
   id="svg4996">
  <defs
     id="defs4998" />
  <metadata
     id="metadata5001">
    <rdf:RDF>
      <cc:Work
         rdf:about="">
        <dc:format>image/svg+xml</dc:format>
        <dc:type
           rdf:resource="http://purl.org/dc/dcmitype/StillImage" />
        <dc:title></dc:title>
      </cc:Work>
    </rdf:RDF>
  </metadata>
  <g
     transform="translate(-187.14285,-358.85398)"
     id="layer1">
    <g
       transform="matrix(7.2543715,0,0,7.2543715,846.5703,-5910.2882)"
       id="g4094">
      <path
         d="m -67.2532,875.46281 -0.17625,0 0,1.10375 0.17625,0 0,-1.10375 z"
         id="path3155"
         style="fill:#231f20;fill-opacity:1;fill-rule:nonzero;stroke:none" />
      <path
         d="m -64.53645,875.72206 c 0.07125,-0.0738 0.16125,-0.115 0.27875,-0.115 0.11375,0 0.2075,0.0412 0.275,0.115 0.06875,0.0787 0.105,0.17625 0.105,0.29 0,0.12 -0.03625,0.2125 -0.105,0.29125 -0.0675,0.0725 -0.16125,0.1125 -0.275,0.1175 -0.1175,-0.005 -0.2075,-0.045 -0.27875,-0.1175 -0.07375,-0.0788 -0.1125,-0.17125 -0.1125,-0.29125 0,-0.11375 0.03875,-0.21125 0.1125,-0.29 m 0.67875,-0.115 c -0.105,-0.1025 -0.23875,-0.15625 -0.4,-0.15625 -0.16375,0 -0.29625,0.0537 -0.40375,0.15625 -0.11,0.105 -0.165,0.245 -0.17,0.405 0.005,0.16625 0.06,0.30125 0.17,0.40375 0.1075,0.105 0.24,0.15375 0.40375,0.16125 0.16125,-0.007 0.295,-0.0562 0.4,-0.16125 0.11,-0.1025 0.16625,-0.2375 0.16625,-0.40375 0,-0.16 -0.05625,-0.3 -0.16625,-0.405"
         id="path3159"
         style="fill:#231f20;fill-opacity:1;fill-rule:nonzero;stroke:none" />
      <path
         d="m -60.979325,875.45106 c -0.09,0 -0.17125,0.0312 -0.23,0.0825 -0.05625,0.0488 -0.0825,0.1175 -0.0875,0.2075 0.005,0.0838 0.0275,0.1475 0.08125,0.19875 0.04875,0.0462 0.11125,0.0825 0.1975,0.11875 l 0.0775,0.0325 c 0.04875,0.0238 0.08625,0.0462 0.125,0.07 0.03125,0.0275 0.04875,0.0638 0.05375,0.1125 -0.0075,0.095 -0.07375,0.14125 -0.1975,0.14625 -0.115,-0.005 -0.19875,-0.0512 -0.25,-0.14875 l -0.15125,0.0738 c 0.07875,0.14875 0.2075,0.225 0.40125,0.23125 0.105,0 0.1975,-0.0287 0.26375,-0.0725 0.0625,-0.0512 0.1025,-0.1325 0.1075,-0.2325 -0.005,-0.0925 -0.035,-0.16125 -0.08125,-0.2075 -0.04875,-0.0463 -0.115,-0.0925 -0.2025,-0.12375 l -0.07375,-0.0375 c -0.06,-0.0238 -0.1075,-0.0463 -0.13875,-0.07 -0.02625,-0.0225 -0.04125,-0.0588 -0.04125,-0.0975 0.005,-0.0838 0.05625,-0.125 0.15125,-0.1275 0.09,0 0.15375,0.0362 0.19,0.105 l 0.135,-0.0875 c -0.06625,-0.115 -0.17625,-0.17375 -0.33,-0.17375"
         id="path3163"
         style="fill:#231f20;fill-opacity:1;fill-rule:nonzero;stroke:none" />
      <path
         d="m -80.0882,875.83194 c -0.03375,-0.0225 -0.04125,-0.0588 -0.04125,-0.0975 0,-0.0837 0.04875,-0.125 0.14625,-0.1275 0.0875,0 0.15375,0.0375 0.1925,0.105 l 0.1325,-0.0875 c -0.06625,-0.115 -0.17625,-0.17375 -0.325,-0.17375 -0.0975,0 -0.17625,0.0325 -0.23,0.0838 -0.05625,0.0487 -0.0875,0.11625 -0.0925,0.2075 0.005,0.0825 0.0325,0.14625 0.08375,0.1975 0.04625,0.0462 0.10875,0.0825 0.1925,0.12 l 0.085,0.0312 c 0.04375,0.025 0.08625,0.0462 0.125,0.0712 0.02875,0.0263 0.04375,0.0625 0.04875,0.1125 -0.005,0.095 -0.07375,0.14125 -0.1975,0.14625 -0.115,-0.005 -0.19875,-0.0512 -0.25,-0.14875 l -0.14875,0.0725 c 0.07625,0.14875 0.2075,0.225 0.39875,0.2325 0.11,0 0.1975,-0.03 0.26125,-0.0738 0.07,-0.0512 0.1025,-0.13125 0.1075,-0.23125 -0.005,-0.0937 -0.0275,-0.16125 -0.07375,-0.2075 -0.05625,-0.0475 -0.12,-0.0937 -0.2075,-0.125 l -0.07375,-0.0362 c -0.06,-0.025 -0.1075,-0.0462 -0.13375,-0.0712"
         id="path3167"
         style="fill:#231f20;fill-opacity:1;fill-rule:nonzero;stroke:none" />
      <path
         d="m -77.263575,875.46319 0,0.15875 0.3275,0 0,0.945 0.17,0 0,-0.945 0.3275,0 0,-0.15875 -0.825,0 z"
         id="path3171"
         style="fill:#231f20;fill-opacity:1;fill-rule:nonzero;stroke:none" />
      <path
         d="m -73.208325,875.46319 -0.17625,0 0,0.69875 c 0,0.1725 -0.08,0.25875 -0.24375,0.25875 -0.16625,0 -0.24875,-0.0863 -0.25125,-0.25875 l 0,-0.69875 -0.17375,0 0,0.71 c 0,0.135 0.04625,0.235 0.125,0.30625 0.075,0.0625 0.175,0.0975 0.3,0.0975 0.12,0 0.2225,-0.035 0.3,-0.0975 0.07375,-0.0712 0.12,-0.17125 0.12,-0.30625 l 0,-0.71 z"
         id="path3175"
         style="fill:#231f20;fill-opacity:1;fill-rule:nonzero;stroke:none" />
      <path
         d="m -70.576575,875.62193 0.13375,0 c 0.1375,0.002 0.245,0.0362 0.30875,0.105 0.0625,0.0738 0.0975,0.17125 0.0975,0.28625 0,0.11875 -0.035,0.21125 -0.0975,0.2825 -0.06375,0.0738 -0.17125,0.11 -0.30875,0.1125 l -0.13375,0 0,-0.78625 z m 0.13625,-0.15875 -0.3025,0 0,1.10375 0.3025,0 c 0.18625,-0.005 0.33,-0.0612 0.43,-0.15875 0.1025,-0.095 0.15625,-0.23 0.15625,-0.395 0,-0.16125 -0.05375,-0.29625 -0.15625,-0.39125 -0.105,-0.1075 -0.24375,-0.15875 -0.43,-0.15875"
         id="path3179"
         style="fill:#231f20;fill-opacity:1;fill-rule:nonzero;stroke:none" />
      <path
         d="m -55.998825,867.59456 0.6125,0 2.5125,5.78875 -0.1025,0.3275 c -0.0825,0.24125 -0.17625,0.46125 -0.27625,0.66875 -0.1025,0.2025 -0.1975,0.35875 -0.29,0.47625 -0.18125,0.21875 -0.37875,0.33625 -0.61,0.33625 -0.30125,0 -0.5475,-0.36125 -0.7475,-1.09125 -0.0925,-0.3325 -0.17125,-0.6025 -0.23,-0.81 l -0.35625,0 0,2.02875 c 0.12,0.0825 0.26875,0.15375 0.4475,0.2075 0.195,0.0512 0.3725,0.08 0.55375,0.08 0.425,0 0.76125,-0.12 1.015,-0.36625 0.13,-0.12125 0.26875,-0.3225 0.415,-0.5925 0.1525,-0.27875 0.29375,-0.60625 0.43,-0.98 l 2.55125,-6.845 0.5275,0 0,-0.27625 -1.82375,0 0,0.27625 0.96,0 -1.8725,5.0825 -1.7725,-4.31125 0.87625,0 0,-0.28125 -2.82,0 0,0.28125 z"
         id="path3183"
         style="fill:#1b284c;fill-opacity:1;fill-rule:nonzero;stroke:none" />
      <path
         d="m -55.55945,872.28694 -2.4925,-3.625 1.91875,-1.96125 0.615,0 0,-0.2825 -2.0525,0 0,0.2825 1,0 -2.41375,2.49 2.25125,3.38 1.7275,0 0,-0.28375 -0.55375,0 z m -3.53,-8.09875 -1.93875,0 0,0.28125 0.715,0 0,8.49875 -0.715,0 0,0.28125 2.65125,0 0,-0.28125 -0.7125,0 0,-8.78 z"
         id="path3187"
         style="fill:#1b284c;fill-opacity:1;fill-rule:nonzero;stroke:none" />
      <path
         d="m -65.62045,865.58769 c 0.395,-0.27375 0.89875,-0.4075 1.51375,-0.4075 0.9225,0 1.6375,0.74875 2.13625,2.25375 0.04125,0.105 0.06875,0.1875 0.0875,0.25375 l 0.305,0 0,-2.27125 c -0.3925,-0.15625 -0.78625,-0.275 -1.17625,-0.35625 -0.3925,-0.0725 -0.78625,-0.115 -1.1625,-0.115 -0.98375,0 -1.775,0.2025 -2.3725,0.6175 -0.60625,0.40875 -0.90625,0.9375 -0.90625,1.59 0,0.4975 0.17125,0.9125 0.5175,1.245 0.3475,0.3325 1.15,0.745 2.41,1.24 0.83,0.335 1.3675,0.63 1.60625,0.87 0.24625,0.24875 0.36875,0.55375 0.36875,0.9075 0,0.5175 -0.2075,0.9575 -0.6275,1.30875 -0.4175,0.35375 -0.9475,0.53 -1.59375,0.53 -0.955,0 -1.73125,-0.96 -2.325,-2.89125 -0.01375,-0.0412 -0.02125,-0.0625 -0.02875,-0.08 l -0.295,0 0,2.51 c 0.24125,0.21875 0.585,0.395 1.05875,0.53375 0.46875,0.1375 0.98125,0.20375 1.53125,0.20375 1.01,0 1.845,-0.245 2.51,-0.7375 0.66375,-0.49125 0.99375,-1.09875 0.99375,-1.82875 0,-0.5075 -0.17125,-0.94 -0.51375,-1.2875 -0.34625,-0.34125 -1.1025,-0.73875 -2.2575,-1.18625 -0.0275,-0.0137 -0.07625,-0.0287 -0.14625,-0.0612 -1.49,-0.58 -2.23375,-1.18875 -2.23375,-1.825 0,-0.40625 0.1975,-0.75 0.6,-1.01625"
         id="path3191"
         style="fill:#1b284c;fill-opacity:1;fill-rule:nonzero;stroke:none" />
      <path
         d="m -70.5277,868.48568 c -0.0025,0.0788 -0.0025,0.15375 -0.0075,0.23875 l -2.74125,-0.004 c 0.03125,-0.67875 0.18,-1.19875 0.44625,-1.5725 0.27375,-0.37375 0.6375,-0.56 1.09875,-0.56 0.405,0 0.71,0.14 0.90625,0.4175 0.2,0.27375 0.2975,0.70125 0.2975,1.2625 l 0,0.2175 z m 1.335,0.55875 0,-0.18 c 0,-0.79375 -0.22125,-1.41375 -0.66375,-1.85625 -0.43875,-0.43875 -1.0525,-0.65875 -1.84375,-0.65875 -0.85125,0 -1.555,0.3 -2.11375,0.89875 -0.56625,0.6 -0.8525,1.3625 -0.8525,2.29 0,0.9375 0.28625,1.70375 0.8525,2.3075 0.56875,0.605 1.275,0.915 2.12875,0.915 0.7575,0 1.3625,-0.2225 1.80875,-0.66625 0.45,-0.435 0.70125,-1.065 0.7625,-1.8925 l -0.35625,0 c -0.06875,0.70375 -0.27625,1.2475 -0.64,1.64375 -0.36625,0.3875 -0.835,0.585 -1.41375,0.585 -0.595,0 -1.0425,-0.24375 -1.3525,-0.7275 -0.3075,-0.48125 -0.46125,-1.19625 -0.46125,-2.14375 0,-0.0625 0.005,-0.15625 0.01,-0.27 0,-0.115 0.005,-0.19625 0.005,-0.245 l 4.13,0 z"
         id="path3195"
         style="fill:#2674c1;fill-opacity:1;fill-rule:nonzero;stroke:none" />
      <path
         d="m -80.32745,867.58969 0,3.50375 c 0,0.96375 0.13625,1.60875 0.4125,1.93875 0.26875,0.33125 0.73,0.4975 1.38625,0.4975 0.2175,0 0.4375,-0.0287 0.66,-0.0825 0.23875,-0.0638 0.4325,-0.1525 0.58125,-0.25875 0.305,-0.23 0.5225,-0.54 0.63625,-0.93125 l 0,1.43875 1.8825,0 0,-0.3175 -0.715,0 0,-6.83125 -2.14625,0 0,0.27625 0.925,0 0,4.18625 c 0,0.665 -0.11625,1.1775 -0.34625,1.55125 -0.2275,0.36375 -0.54375,0.54875 -0.9575,0.54875 -0.16,0 -0.3125,-0.0225 -0.46125,-0.0738 -0.165,-0.06 -0.28,-0.13875 -0.35125,-0.23875 -0.15625,-0.2175 -0.23,-0.5325 -0.23,-0.9375 l 0,-4.54625 -1.99375,0 0,0.27625 0.7175,0 z"
         id="path3199"
         style="fill:#2674c1;fill-opacity:1;fill-rule:nonzero;stroke:none" />
      <path
         d="m -83.7162,864.18881 0,0.27875 0.715,0 0,7.88 -0.715,0 0,0.27875 2.75625,0 0,-0.27875 -0.76625,0 0,-8.15875 -1.99,0 z"
         id="path3203"
         style="fill:#2674c1;fill-opacity:1;fill-rule:nonzero;stroke:none" />
      <path
         d="m -85.9232,869.55993 c 0.45875,0.295 0.68875,0.78125 0.68875,1.455 0,0.7375 -0.2025,1.265 -0.60625,1.5825 -0.405,0.31 -1.1025,0.46625 -2.10125,0.46625 l -0.7625,0 0,-3.94625 0.4525,0 c 1.09375,0 1.8675,0.1475 2.32875,0.4425 m -2.78125,-4.19875 0.515,0 c 0.92375,0 1.56125,0.12375 1.9125,0.3825 0.35375,0.25875 0.535,0.69875 0.535,1.32125 0,0.59375 -0.2125,1.0375 -0.6325,1.3375 -0.42,0.29625 -1.0625,0.44 -1.91,0.44 l -0.42,0 0,-3.48125 z m -2.19625,0 0.815,0 0,7.7025 -0.815,0 0,0.2825 2.81875,0 c 0.79375,0 1.41125,-0.0288 1.85625,-0.0925 0.4325,-0.0663 0.7975,-0.16625 1.09375,-0.31 0.4325,-0.2075 0.76125,-0.47625 0.98625,-0.80375 0.2275,-0.32125 0.34125,-0.6875 0.34125,-1.09375 0,-0.6 -0.25875,-1.09375 -0.77875,-1.46125 -0.5125,-0.36875 -1.2375,-0.58625 -2.175,-0.6525 0.79125,-0.09 1.39375,-0.3 1.81375,-0.6225 0.42,-0.32 0.6325,-0.7375 0.6325,-1.255 0,-0.34625 -0.11,-0.66875 -0.3325,-0.95875 -0.21875,-0.30125 -0.52375,-0.5325 -0.915,-0.70875 -0.25625,-0.11 -0.55125,-0.1875 -0.88875,-0.23375 -0.33625,-0.0512 -0.90125,-0.0738 -1.69375,-0.0738 l -2.75875,0 0,0.28125 z"
         id="path3207"
         style="fill:#2674c1;fill-opacity:1;fill-rule:nonzero;stroke:none" />
    </g>
  </g>
</svg>
