<?xml version="1.0" encoding="UTF-8" standalone="no"?>
<svg
   xmlns:dc="http://purl.org/dc/elements/1.1/"
   xmlns:cc="http://creativecommons.org/ns#"
   xmlns:rdf="http://www.w3.org/1999/02/22-rdf-syntax-ns#"
   xmlns:svg="http://www.w3.org/2000/svg"
   xmlns="http://www.w3.org/2000/svg"
   viewBox="0 0 1750.8533 524.41333"
   height="524.41333"
   width="1750.8533"
   xml:space="preserve"
   id="svg2"
   version="1.1"><metadata
     id="metadata8"><rdf:RDF><cc:Work
         rdf:about=""><dc:format>image/svg+xml</dc:format><dc:type
           rdf:resource="http://purl.org/dc/dcmitype/StillImage" /></cc:Work></rdf:RDF></metadata><defs
     id="defs6" /><g
     transform="matrix(1.3333333,0,0,-1.3333333,0,524.41333)"
     id="g10"><g
       transform="scale(0.1)"
       id="g12"><path
         id="path14"
         style="fill:#231f20;fill-opacity:1;fill-rule:nonzero;stroke:none"
         d="m 12553.1,1238.43 v 14.75 h 105.3 v -14.75 h -43.9 v -116.96 h -17.5 v 116.96 h -43.9" /><path
         id="path16"
         style="fill:#231f20;fill-opacity:1;fill-rule:nonzero;stroke:none"
         d="m 12706.6,1253.18 41.5,-110.67 41.7,110.67 h 24 v -131.71 h -16.6 v 109.58 h -0.4 l -41.1,-109.58 h -15 l -41.1,109.58 h -0.4 v -109.58 h -16.6 v 131.71 h 24" /><path
         id="path18"
         style="fill:#231f20;fill-opacity:1;fill-rule:nonzero;stroke:none"
         d="m 7508.7,353.16 h -55.69 V 2.92969 h 55.69 V 353.16" /><path
         id="path20"
         style="fill:#231f20;fill-opacity:1;fill-rule:nonzero;stroke:none"
         d="m 8371.82,271.09 c 21.97,23.461 51.29,36.64 87.92,36.64 36.63,0 65.95,-13.179 87.92,-36.64 21.98,-24.899 33.7,-55.68 33.7,-92.301 0,-38.109 -11.72,-67.418 -33.7,-92.3281 -21.97,-23.4414 -51.29,-35.1718 -87.92,-36.6523 -36.63,1.4805 -65.95,13.2109 -87.92,36.6523 -23.46,24.9101 -35.17,54.2191 -35.17,92.3281 0,36.621 11.71,67.402 35.17,92.301 z m 215.4,36.64 c -33.7,32.239 -76.19,49.829 -127.48,49.829 -51.29,0 -93.8,-17.59 -127.5,-49.829 -35.16,-33.699 -52.75,-77.648 -54.22,-128.941 1.47,-52.758 19.06,-95.2499 54.22,-127.4999 33.7,-33.6993 76.21,-49.82035 127.5,-51.2891 51.29,1.46875 93.78,17.5898 127.48,51.2891 35.17,32.25 52.77,74.7419 52.77,127.4999 0,51.293 -17.6,95.242 -52.77,128.941" /><path
         id="path22"
         style="fill:#231f20;fill-opacity:1;fill-rule:nonzero;stroke:none"
         d="m 9501.63,357.559 c -29.31,0 -54.21,-10.258 -73.27,-26.379 -17.58,-16.121 -26.37,-38.098 -27.84,-65.95 1.47,-26.359 8.79,-46.89 24.91,-63 16.13,-14.648 36.64,-26.378 63.01,-38.109 l 24.91,-10.25 c 16.13,-7.332 27.85,-14.66 39.57,-21.992 10.26,-8.777 16.12,-20.508 17.59,-36.629 -2.94,-29.3086 -23.45,-43.9609 -63.01,-45.4414 -36.64,1.4805 -63.02,16.1328 -79.14,46.9102 L 9380,73.2695 C 9404.92,26.3906 9445.94,1.46875 9507.5,0 c 33.7,0 63.01,8.80078 83.52,23.4492 20.52,16.1094 32.25,41.0196 33.71,73.2696 -1.46,29.3122 -10.26,51.2932 -24.92,65.9412 -16.11,14.649 -36.63,29.309 -64.47,39.57 l -23.45,11.719 c -19.04,7.321 -33.7,14.653 -43.96,21.981 -8.79,7.332 -13.19,19.039 -13.19,30.769 1.47,26.383 17.58,39.563 48.36,41.031 27.84,0 48.36,-11.71 60.08,-33.699 l 42.5,27.84 c -20.52,36.641 -55.68,55.688 -104.05,55.688" /><path
         id="path24"
         style="fill:#231f20;fill-opacity:1;fill-rule:nonzero;stroke:none"
         d="m 3433.43,235.93 c -10.27,7.332 -13.2,19.039 -13.2,30.769 0,26.383 16.13,39.563 46.9,41.031 27.85,0 48.36,-11.71 61.55,-33.699 l 41.03,27.84 c -20.52,36.641 -55.69,55.688 -102.58,55.688 -30.77,0 -55.68,-10.258 -73.27,-26.379 -17.59,-16.121 -27.84,-38.098 -29.31,-65.95 1.47,-26.359 10.26,-46.89 26.38,-63 14.65,-14.648 35.17,-26.378 61.55,-38.109 l 26.37,-10.25 c 14.66,-7.332 27.85,-14.66 39.56,-21.992 10.27,-8.777 14.66,-20.508 16.13,-36.629 -1.47,-29.3086 -23.45,-43.9609 -63.02,-45.4414 -36.63,1.4805 -63,16.1328 -79.13,46.9102 L 3345.5,73.2695 C 3368.95,26.3906 3411.45,1.46875 3471.52,0 c 35.18,0 63.02,8.80078 83.53,23.4492 21.99,16.1094 32.25,41.0196 33.7,73.2696 -1.45,29.3122 -8.78,51.2932 -23.44,65.9412 -17.59,14.649 -38.1,29.309 -65.94,39.57 l -23.45,11.719 c -19.05,7.321 -33.7,14.653 -42.49,21.981" /><path
         id="path26"
         style="fill:#231f20;fill-opacity:1;fill-rule:nonzero;stroke:none"
         d="m 4330.24,353.16 v -49.82 h 104.05 V 2.92969 h 54.23 V 303.34 h 104.03 v 49.82 h -262.31" /><path
         id="path28"
         style="fill:#231f20;fill-opacity:1;fill-rule:nonzero;stroke:none"
         d="m 5618.33,353.16 h -55.68 V 131.879 c 0,-55.6681 -26.38,-82.0704 -77.67,-82.0704 -52.75,0 -79.14,26.4023 -80.59,82.0704 V 353.16 h -54.22 V 127.5 c 0,-42.5 14.64,-74.7383 39.56,-96.7305 C 5413.17,10.2617 5445.42,0 5484.98,0 c 38.1,0 70.34,10.2617 95.25,30.7695 23.44,21.9922 38.1,54.2305 38.1,96.7305 v 225.66" /><path
         id="path30"
         style="fill:#231f20;fill-opacity:1;fill-rule:nonzero;stroke:none"
         d="m 6453.6,303.34 h 42.5 c 43.96,-1.469 77.67,-11.719 98.18,-33.711 20.52,-23.438 30.78,-54.219 30.78,-90.84 0,-38.109 -10.26,-67.418 -30.78,-89.4101 -20.51,-23.4375 -54.22,-35.1601 -98.18,-36.6172 h -42.5 z m 43.97,49.82 h -96.72 V 2.92969 h 96.72 c 58.61,1.46094 104.04,19.05081 136.28,49.83201 32.24,30.7774 49.82,73.2693 49.82,126.0273 0,51.293 -17.58,93.77 -49.82,124.551 -33.7,33.699 -77.67,49.82 -136.28,49.82" /><path
         id="path32"
         style="fill:#1b284c;fill-opacity:1;fill-rule:nonzero;stroke:none"
         d="m 11082.8,2851.66 h 194.9 l 797.2,-1837.61 -32.3,-104.038 c -26.4,-76.203 -55.7,-146.532 -87.9,-212.481 -32.2,-64.472 -63,-114.301 -92.3,-150.941 -57.2,-70.328 -120.2,-106.969 -193.4,-106.969 -95.3,0 -174.4,114.309 -237.4,345.828 -29.3,105.52 -54.3,191.973 -73.3,257.911 h -112.8 V 398.59 c 38,-26.379 85,-48.371 142.1,-65.942 61.5,-16.128 118.7,-24.918 175.8,-24.918 134.9,0 241.8,38.11 322.4,115.77 41.1,39.57 85,102.57 131.9,189.039 48.4,87.93 92.3,191.961 136.3,310.66 l 810.4,2173.191 h 167 v 87.93 h -578.8 v -87.93 h 304.8 l -595,-1613.41 -562.7,1368.68 h 278.4 v 89.39 h -895.3 v -89.39" /><path
         id="path34"
         style="fill:#1b284c;fill-opacity:1;fill-rule:nonzero;stroke:none"
         d="m 11222,1361.35 -791.3,1151.81 609.6,622.79 h 194.9 v 89.39 h -652.1 v -89.39 h 318 l -766.4,-791.32 715.1,-1072.66 h 548.1 v 89.38 z m -1121,2571.77 h -615.49 v -89.38 h 227.14 v -2697.8 h -227.14 v -89.39 h 842.59 v 89.39 H 10101 v 2787.18" /><path
         id="path36"
         style="fill:#1b284c;fill-opacity:1;fill-rule:nonzero;stroke:none"
         d="m 8027.45,3489.11 c 126.01,86.46 285.75,128.96 480.64,128.96 293.09,0 520.22,-237.39 678.48,-715.12 13.19,-33.7 21.99,-60.08 27.85,-80.6 h 96.71 v 720.98 c -124.56,49.82 -249.12,87.93 -373.68,112.83 -124.55,23.45 -249.12,36.64 -369.28,36.64 -312.13,0 -562.71,-64.48 -753.2,-196.37 -191.98,-128.95 -287.22,-297.47 -287.22,-504.09 0,-158.26 54.21,-290.15 164.12,-395.66 109.89,-105.51 364.88,-235.93 764.93,-394.19 263.77,-105.51 433.77,-199.29 509.96,-275.49 79.13,-79.13 117.23,-175.85 117.23,-288.68 0,-164.13 -65.94,-303.35 -199.29,-414.72 -131.88,-112.83 -300.41,-168.52 -505.55,-168.52 -303.34,0 -549.54,304.81 -738.57,917.35 -4.4,13.18 -7.33,20.51 -8.8,26.37 H 7538 v -797.18 c 76.19,-70.33 186.11,-126.02 335.58,-169.98 149.46,-43.96 312.13,-64.468 486.5,-64.468 320.92,0 586.17,77.648 797.19,234.448 211.01,155.33 315.05,348.77 315.05,580.3 0,161.2 -54.21,298.94 -162.66,408.85 -109.9,108.43 -350.23,234.46 -716.57,376.61 -8.8,4.39 -24.92,8.79 -46.89,19.05 -473.33,184.63 -709.25,378.07 -709.25,580.3 0,128.95 63.01,237.39 190.5,322.38" /><path
         id="path38"
         style="fill:#2674c1;fill-opacity:1;fill-rule:nonzero;stroke:none"
         d="m 6469.73,2568.84 c -1.47,-24.91 -1.47,-48.36 -2.93,-76.2 l -870.45,1.47 c 10.26,215.41 57.16,381 142.14,499.7 86.46,118.69 202.23,177.31 348.77,177.31 128.96,0 225.67,-43.97 287.22,-131.89 64.47,-87.92 95.25,-222.74 95.25,-401.52 0,-21.98 0,-43.96 0,-68.87 z m 423.5,-177.31 v 57.15 c 0,252.05 -70.33,448.41 -211.03,589.09 -139.21,139.21 -334.1,209.55 -584.69,209.55 -271.09,0 -493.84,-95.25 -671.14,-285.75 -180.25,-190.51 -271.1,-432.29 -271.1,-726.84 0,-297.47 90.85,-540.73 271.1,-732.69 180.24,-191.98 404.44,-290.16 675.54,-290.16 240.33,0 432.28,70.34 574.44,211.02 142.14,137.74 222.74,338.51 241.79,600.82 H 6805.3 c -21.98,-222.75 -87.92,-395.66 -203.69,-521.68 -115.77,-123.1 -265.24,-186.11 -448.41,-186.11 -189.03,0 -331.17,77.66 -429.36,231.53 -98.19,152.4 -146.54,379.54 -146.54,679.94 0,20.51 1.47,49.83 2.93,86.46 0,36.63 1.46,61.55 1.46,77.67 h 1311.54" /><path
         id="path40"
         style="fill:#2674c1;fill-opacity:1;fill-rule:nonzero;stroke:none"
         d="M 3357.23,2853.13 V 1740.9 c 0,-306.28 43.96,-511.44 131.88,-615.47 84.99,-105.51 231.53,-158.258 439.62,-158.258 68.87,0 139.21,8.789 209.55,26.367 76.2,20.511 137.75,48.351 184.64,82.061 96.72,73.28 165.6,171.45 202.23,296.02 V 914.398 h 597.88 v 101.132 h -227.14 v 2168.79 h -681.41 v -87.93 h 293.08 V 1767.27 c 0,-211.02 -36.63,-373.68 -109.9,-492.38 -71.81,-115.76 -172.92,-174.37 -303.34,-174.37 -51.29,0 -99.64,7.32 -146.54,23.44 -52.76,19.06 -89.39,43.97 -111.36,76.2 -49.84,68.88 -73.28,168.52 -73.28,297.48 v 1443.41 h -633.05 v -87.92 h 227.14" /><path
         id="path42"
         style="fill:#2674c1;fill-opacity:1;fill-rule:nonzero;stroke:none"
         d="m 2281.63,3933.12 v -87.92 h 227.13 V 1342.3 h -227.13 v -87.92 h 874.83 v 87.92 h -243.25 v 2590.82 h -631.58" /><path
         id="path44"
         style="fill:#2674c1;fill-opacity:1;fill-rule:nonzero;stroke:none"
         d="m 1581.16,2227.4 c 145.08,-93.78 218.35,-247.65 218.35,-461.6 0,-234.46 -64.49,-401.51 -191.97,-502.63 -128.96,-98.18 -350.23,-147.99 -668.224,-147.99 H 697.527 v 1252.9 h 143.606 c 347.307,0 593.487,-46.89 740.027,-140.68 z M 697.527,3560.91 h 164.129 c 293.084,0 495.304,-39.56 606.674,-121.62 112.83,-82.06 169.99,-221.27 169.99,-419.11 0,-189.03 -67.41,-329.71 -200.77,-424.96 -133.35,-93.78 -337.04,-139.21 -606.667,-139.21 H 697.527 Z M 0,3560.91 H 259.379 V 1115.18 H 0 v -89.41 h 895.355 c 252.055,0 448.415,8.8 589.095,29.31 137.75,20.52 253.51,52.76 347.3,98.19 137.74,65.94 241.79,150.93 313.59,254.97 71.81,102.59 108.44,218.35 108.44,347.31 0,190.5 -82.06,347.3 -247.65,464.52 -162.66,117.23 -392.73,186.12 -690.2,206.63 250.58,29.31 442.54,95.25 575.9,197.83 133.35,101.1 200.76,234.46 200.76,398.59 0,109.91 -35.17,212.49 -105.51,304.79 -70.34,95.25 -167.06,168.52 -290.15,224.21 -82.06,35.18 -175.85,60.08 -282.82,74.74 -106.98,16.12 -285.76,23.44 -537.801,23.44 L 0,3650.3 v -89.39" /></g></g></svg>