<svg xmlns="http://www.w3.org/2000/svg" role="img" viewBox="-8.30 -8.05 418.86 174.36"><g stroke-width=".32" transform="translate(-38.707 -38.72)"><path fill="#fae2a0" d="M197.13163 196.65402c-.2127-.25629-.27439-.65229-.1371-.88.29303-.48599 39.54167-58.80501 44.6783-66.38687 2.08321-3.07488 3.45873-5.41098 3.39156-5.76-.10733-.55775-.92206-.59516-16.26869-.74715l-16.1557-.16v-.71664c0-.47321 11.03303-14.38408 32.48-40.95205 17.864-22.12949 32.89092-40.707 33.39315-41.28337.50223-.57637 1.17082-1.04794 1.48576-1.04794.63881 0 1.07918.81746.74821 1.38888-.11823.20412-11.001 16.39248-24.18393 35.97413-14.07996 20.9141-23.92474 35.83281-23.86177 36.16.0997.51801 1.23788.56819 16.26288.71699 15.85246.157 16.15733.17201 16.2425.8.0597.43998-6.82102 9.19086-22.01599 28-12.15654 15.048-24.7236 30.60398-27.9268 34.56885-3.20321 3.96487-8.27201 10.25774-11.26401 13.98417-2.992 3.72642-5.67437 6.78244-5.96082 6.79115-.28645.009-.69484-.19386-.90755-.45015zM252.59 186.54675c-2.89505-.57277-5.54298-2.4948-6.89487-5.00472-2.23536-4.15018-1.70801-8.75298 1.38762-12.11135 2.01756-2.18879 4.03327-3.10882 7.19299-3.28311 2.31216-.12754 2.80756-.0481 4.53454.7269 1.06634.47854 2.24945 1.20075 2.62914 1.60491l.69034.73483-.91446 1.02346-.91445 1.02345-1.59043-.98696c-5.05081-3.13437-10.84675.0962-10.84675 6.04584 0 4.62622 3.43399 7.73187 8.02887 7.26119 2.56169-.26241 2.98746-.60846 2.98746-2.42807 0-1.47171-.0374-1.53723-.79409-1.39257-.43675.0835-1.16479.0588-1.61788-.055-.74406-.18675-.81432-.33737-.72591-1.55618L255.84 176.8h6.08l.0892 4.03662.0892 4.03662-1.52923.65493c-1.56043.66829-4.79666 1.37994-5.98801 1.31677-.36368-.0193-1.25973-.15347-1.99123-.29819zm149.24869.002c-3.23427-.8058-6.06349-3.11762-7.37904-6.02959-1.03386-2.2884-.96346-6.0363.1583-8.42968 1.13578-2.42327 3.31789-4.50837 5.63133-5.38099 2.70835-1.02158 6.35798-.79553 8.72237.54024 2.40384 1.35809 2.61088 1.79643 1.41385 2.99345l-.96771.96772-1.03824-.76598c-3.51929-2.59644-8.49942-1.45715-10.41257 2.38206-1.89504 3.80286-.62253 8.09992 2.94956 9.96011 2.3681 1.2332 4.15783 1.20115 6.72013-.12035l1.96659-1.01424.79837.75003c.43911.41251.79837.93359.79837 1.15795 0 .51516-1.76736 1.87569-3.23098 2.48722-1.47734.61728-4.63113.87556-6.13033.50205zm23.35091-.018c-2.10541-.49577-4.39155-1.88176-4.388-2.66029 0-.19272.34659-.78164.76829-1.30869.72704-.9087.79763-.93031 1.36416-.4176.88557.80142 3.33773 1.84082 4.36185 1.84886 1.10797.009 2.63933-.75417 2.90532-1.44731.75072-1.95632-.25584-3.2046-4.10317-5.08861-1.66426-.81498-3.38314-1.911-3.83018-2.44231-2.32614-2.76443-1.50928-6.6411 1.74963-8.30367 2.25952-1.15272 7.04884-.59314 8.48256.99109.5.55248.51348.71989.11754 1.45969-.63299 1.18274-1.04144 1.24093-2.77104.39474-2.1359-1.04496-4.11165-.97787-5.10179.17324-1.63034 1.89538-.76448 3.25804 3.30237 5.19708 3.48473 1.66151 5.05523 3.06503 5.5704 4.97816.77382 2.87382-1.30714 5.94081-4.49469 6.62442-1.85693.39824-2.24659.39836-3.93325.001zm-151.36121-.1689c-.12562-.12574-.22839-4.66852-.22839-10.09518V166.4h5.21735c5.20178 0 5.2217.003 6.67389.92371 2.36964 1.50278 3.46438 4.71231 2.4884 7.29546-.39746 1.05198-1.70154 2.51874-2.90773 3.27048l-.84808.52856 1.88808 3.48034c2.37108 4.37062 2.39979 4.72935.36809 4.59898l-1.52-.0975-2.00996-3.92-2.00996-3.92h-4.12038l-.0899 3.92-.0899 3.92-1.29161.0951c-.71038.0523-1.39438-.008-1.52-.13334zM284.032 174.912c.8416-.8416 1.088-1.35366 1.088-2.26104 0-2.58257-1.26858-3.37096-5.42411-3.37096H276.8V176h3.072c3.06698 0 3.07378-.002 4.16-1.088zm13.17882 11.28046c-.0736-.22064 1.89193-4.84096 4.36773-10.26736 3.87084-8.48402 4.59111-9.85349 5.14145-9.77564.50484.0714 1.57234 2.14567 5.05464 9.82162 2.42805 5.35209 4.34057 9.92409 4.25004 10.16-.10046.26178-.6744.42892-1.4729.42892h-1.3083l-.98939-2.24-.98938-2.24h-9.18441l-1.04015 2.16c-1.01602 2.10988-1.07096 2.16225-2.36787 2.25682-.8536.0622-1.37549-.0464-1.46146-.30436zM309.7779 178.8c-.15744-.396-.92617-2.12757-1.70828-3.84794l-1.42203-3.12794-1.64379 3.68919c-.90409 2.02906-1.6438 3.76063-1.6438 3.84794 0 .0873 1.50844.15875 3.35208.15875 3.34772 0 3.35171-.00096 3.06582-.72zm16.51544 7.54667c-.11734-.11734-.21334-4.66371-.21334-10.10306v-9.88972l4.7449.10305c4.42787.0962 4.8215.15564 5.8919.88999 1.86768 1.28137 2.8032 3.02007 2.8032 5.20987 0 4.34864-2.64912 6.6432-7.66973 6.6432H329.28v3.296c0 2.13689-.13504 3.43104-.384 3.68-.40822.40823-2.24467.52866-2.60266.17067zm9.0704-11.15025c1.19738-1.14718 1.5042-2.62741.81917-3.95213-.73878-1.42866-2.00595-1.96429-4.64701-1.96429H329.28v7.12223l2.56771-.14864c2.28074-.13203 2.67373-.25019 3.51603-1.05717zm14.87716 10.66146c-.0991-.40583-.13991-4.91388-.0906-10.01788l.0897-9.28 1.52-.0975 1.52-.0975v8.35507h10.22086l.0896-4.08.0896-4.08 1.52458-.0977 1.52457-.0977-.0846 10.01772-.0846 10.01772-1.24742.10214c-.78164.064-1.3474-.0555-1.51511-.32-.14723-.23218-.26989-2.25814-.27257-4.50214l-.005-4.08h-10.22195l-.089 4.4-.089 4.4-1.34941.0979c-1.18285.0858-1.37168.007-1.52969-.64zm29.50768.50402c-.12573-.12571-.22858-4.66857-.22858-10.09523V166.4h2.88912l-.0846 10-.0845 10-1.13142.0952c-.62231.0524-1.23431-.008-1.36-.13333zm-228.49854-51.18794c-2.58101-.62488-6.46272-2.71131-8.61777-4.63208-2.46575-2.19769-4.82146-5.8226-5.87039-9.03324-.71888-2.2004-.86301-3.22816-.88466-6.30864-.0438-6.23023 1.70499-10.53874 6.05622-14.92083 2.07689-2.09163 3.12626-2.86403 5.35978-3.94511 14.05286-6.80198 30.00732 3.13676 29.98205 18.67713-.01 6.02162-1.79549 10.32057-6.06701 14.60589-2.97027 2.97987-5.81936 4.66482-9.43549 5.58015-2.38785.60442-7.98115.59205-10.52273-.0233zm9.09594-5.84061c7.29179-1.90348 12.092-9.14268 10.88972-16.42278-1.2237-7.40979-7.31899-12.75057-14.5519-12.75057-8.32118 0-14.9238 6.58554-14.9238 14.8852 0 4.30154 1.5501 7.81461 4.75893 10.78543 3.91369 3.62338 8.71019 4.83845 13.82705 3.50272zm-121.26926 5.5909c-.26225-.316-.33897-5.87829-.27918-20.24L38.88 94.88h17.28l1.9065.89274c2.55513 1.19647 3.73988 2.14523 4.93846 3.95475 3.03484 4.58177 1.83382 10.83512-2.67013 13.9026-.62175.42345-1.12858.84191-1.1263.92991.0022.088.73784.592 1.63455 1.12 3.6087 2.12488 5.27174 5.19471 5.00632 9.24129-.33947 5.17546-4.32925 9.19028-10.06675 10.12995-1.02446.16778-5.12102.30589-9.10347.30691-5.72083.002-7.31673-.0896-7.60246-.4339zm17.24672-6.01417c1.9136-1.12332 3.01053-3.05284 3.01235-5.29877.0016-2.16403-1.24965-4.04404-3.40792-5.11979-1.37592-.6858-1.93483-.75507-6.20481-.76898-3.5736-.0116-4.75714.0864-4.96297.41109-.14866.2345-.2725 2.75609-.2752 5.60351-.0042 4.42132.07342 5.25545.53147 5.71351.46417.46417 1.16403.52091 5.2.42156 4.36045-.10734 4.75748-.16989 6.10708-.96213zm-.89957-17.48621c2.22717-1.38485 3.26137-4.262 2.5207-7.01263-.86052-3.19571-3.01974-4.25124-8.69648-4.25124-1.88966 0-3.66352.0874-3.94192.19424-.43534.16705-.50617.9917-.50617 5.89333 0 4.25176.10158 5.74394.4 5.87569.22.0971 2.344.14512 4.72.10666 3.88249-.0628 4.4399-.14447 5.50387-.80605zm249.93369 23.67083c-.31769-.20168-.38509-4.46329-.32-20.2351L305.12 94.88l2.51034-.09401c1.57538-.059 2.6778.04498 2.96.27918.37594.312.44966 3.17357.44966 17.45401V129.6h7.70104c4.69656 0 7.94251.12924 8.31998.33126.51834.27739.61898.68329.61898 2.496 0 1.25702-.16102 2.32576-.384 2.54874-.44448.44446-21.24802.55703-21.93844.1187zm119.78529-.23756c-.44458-.44459-.50285-2.48381-.50285-17.6V100.16h-4.896c-3.38134 0-5.01478-.1188-5.28-.384-.50611-.50612-.49437-3.82318.016-4.51907.36739-.50091 1.46986-.53852 13.52-.46116l13.12.08423V100l-5.12.16-5.12.16-.0828 17.09062c-.058 11.97294-.18953 17.2192-.4392 17.52-.52979.63835-4.56009.58157-5.21513-.0735z"/><path fill="#cfcfcf" d="M197.23572 196.64c-.10131-.264-.1076-.67959-.014-.92354.13582-.35394 23.33133-34.89142 44.78184-66.67894 2.91897-4.32562 3.44389-5.28296 3.11438-5.68-.34154-.41153-2.57432-.47752-16.15794-.47752-17.65876 0-17.31072.0447-15.8056-2.03168.42108-.58091 15.51011-19.30404 33.53118-41.60694 22.27485-27.5674 32.93029-40.51939 33.28-40.4528 1.2434.23677.57736 1.5692-4.68841 9.37933-40.38084 59.89238-43.01126 63.86134-42.62911 64.3218.32575.3925 2.86888.47725 16.42434.54735 14.7973.0765 16.04702.12502 16.14356.62654.13035.67709-66.64822 83.4564-67.32478 83.4564-.2592 0-.55415-.216-.65546-.48zM252.59 186.54675c-2.89505-.57277-5.54298-2.4948-6.89487-5.00472-2.23536-4.15018-1.70801-8.75298 1.38762-12.11135 2.01756-2.18879 4.03327-3.10882 7.19299-3.28311 2.31216-.12754 2.80756-.0481 4.53454.7269 1.06634.47854 2.24945 1.20075 2.62914 1.60491l.69034.73483-.91446 1.02346-.91445 1.02345-1.59043-.98696c-5.05081-3.13437-10.84675.0962-10.84675 6.04584 0 4.62622 3.43399 7.73187 8.02887 7.26119 2.56169-.26241 2.98746-.60846 2.98746-2.42807 0-1.47171-.0374-1.53723-.79409-1.39257-.43675.0835-1.16479.0588-1.61788-.055-.74406-.18675-.81432-.33737-.72591-1.55618L255.84 176.8h6.08l.0892 4.03662.0892 4.03662-1.52923.65493c-1.56043.66829-4.79666 1.37994-5.98801 1.31677-.36368-.0193-1.25973-.15347-1.99123-.29819zm149.24869.002c-3.23427-.8058-6.06349-3.11762-7.37904-6.02959-1.03386-2.2884-.96346-6.0363.1583-8.42968 1.13578-2.42327 3.31789-4.50837 5.63133-5.38099 2.70835-1.02158 6.35798-.79553 8.72237.54024 2.40384 1.35809 2.61088 1.79643 1.41385 2.99345l-.96771.96772-1.03824-.76598c-3.51929-2.59644-8.49942-1.45715-10.41257 2.38206-1.89504 3.80286-.62253 8.09992 2.94956 9.96011 2.3681 1.2332 4.15783 1.20115 6.72013-.12035l1.96659-1.01424.79837.75003c.43911.41251.79837.93359.79837 1.15795 0 .51516-1.76736 1.87569-3.23098 2.48722-1.47734.61728-4.63113.87556-6.13033.50205zm23.35091-.018c-2.10541-.49577-4.39155-1.88176-4.388-2.66029 0-.19272.34659-.78164.76829-1.30869.72704-.9087.79763-.93031 1.36416-.4176.88557.80142 3.33773 1.84082 4.36185 1.84886 1.10797.009 2.63933-.75417 2.90532-1.44731.75072-1.95632-.25584-3.2046-4.10317-5.08861-1.66426-.81498-3.38314-1.911-3.83018-2.44231-2.32614-2.76443-1.50928-6.6411 1.74963-8.30367 2.25952-1.15272 7.04884-.59314 8.48256.99109.5.55248.51348.71989.11754 1.45969-.63299 1.18274-1.04144 1.24093-2.77104.39474-2.1359-1.04496-4.11165-.97787-5.10179.17324-1.63034 1.89538-.76448 3.25804 3.30237 5.19708 3.48473 1.66151 5.05523 3.06503 5.5704 4.97816.77382 2.87382-1.30714 5.94081-4.49469 6.62442-1.85693.39824-2.24659.39836-3.93325.001zm-151.36121-.1689c-.12562-.12574-.22839-4.66852-.22839-10.09518V166.4h5.21735c5.20178 0 5.2217.003 6.67389.92371 2.36964 1.50278 3.46438 4.71231 2.4884 7.29546-.39746 1.05198-1.70154 2.51874-2.90773 3.27048l-.84808.52856 1.88808 3.48034c2.37108 4.37062 2.39979 4.72935.36809 4.59898l-1.52-.0975-2.00996-3.92-2.00996-3.92h-4.12038l-.0899 3.92-.0899 3.92-1.29161.0951c-.71038.0523-1.39438-.008-1.52-.13334zM284.032 174.912c.8416-.8416 1.088-1.35366 1.088-2.26104 0-2.58257-1.26858-3.37096-5.42411-3.37096H276.8V176h3.072c3.06698 0 3.07378-.002 4.16-1.088zm13.17882 11.28046c-.0736-.22064 1.89193-4.84096 4.36773-10.26736 3.87084-8.48402 4.59111-9.85349 5.14145-9.77564.50484.0714 1.57234 2.14567 5.05464 9.82162 2.42805 5.35209 4.34057 9.92409 4.25004 10.16-.10046.26178-.6744.42892-1.4729.42892h-1.3083l-.98939-2.24-.98938-2.24h-9.18441l-1.04015 2.16c-1.01602 2.10988-1.07096 2.16225-2.36787 2.25682-.8536.0622-1.37549-.0464-1.46146-.30436zM309.7779 178.8c-.15744-.396-.92617-2.12757-1.70828-3.84794l-1.42203-3.12794-1.64379 3.68919c-.90409 2.02906-1.6438 3.76063-1.6438 3.84794 0 .0873 1.50844.15875 3.35208.15875 3.34772 0 3.35171-.00096 3.06582-.72zm16.51544 7.54667c-.11734-.11734-.21334-4.66371-.21334-10.10306v-9.88972l4.7449.10305c4.42787.0962 4.8215.15564 5.8919.88999 1.86768 1.28137 2.8032 3.02007 2.8032 5.20987 0 4.34864-2.64912 6.6432-7.66973 6.6432H329.28v3.296c0 2.13689-.13504 3.43104-.384 3.68-.40822.40823-2.24467.52866-2.60266.17067zm9.0704-11.15025c1.19738-1.14718 1.5042-2.62741.81917-3.95213-.73878-1.42866-2.00595-1.96429-4.64701-1.96429H329.28v7.12223l2.56771-.14864c2.28074-.13203 2.67373-.25019 3.51603-1.05717zm14.87716 10.66146c-.0991-.40583-.13991-4.91388-.0906-10.01788l.0897-9.28 1.52-.0975 1.52-.0975v8.35507h10.22086l.0896-4.08.0896-4.08 1.52458-.0977 1.52457-.0977-.0846 10.01772-.0846 10.01772-1.24742.10214c-.78164.064-1.3474-.0555-1.51511-.32-.14723-.23218-.26989-2.25814-.27257-4.50214l-.005-4.08h-10.22195l-.089 4.4-.089 4.4-1.34941.0979c-1.18285.0858-1.37168.007-1.52969-.64zm29.50768.50402c-.12573-.12571-.22858-4.66857-.22858-10.09523V166.4h2.88912l-.0846 10-.0845 10-1.13142.0952c-.62231.0524-1.23431-.008-1.36-.13333zm-228.49854-51.18794c-2.58101-.62488-6.46272-2.71131-8.61777-4.63208-2.46575-2.19769-4.82146-5.8226-5.87039-9.03324-.71888-2.2004-.86301-3.22816-.88466-6.30864-.0438-6.23023 1.70499-10.53874 6.05622-14.92083 2.07689-2.09163 3.12626-2.86403 5.35978-3.94511 14.05286-6.80198 30.00732 3.13676 29.98205 18.67713-.01 6.02162-1.79549 10.32057-6.06701 14.60589-2.97027 2.97987-5.81936 4.66482-9.43549 5.58015-2.38785.60442-7.98115.59205-10.52273-.0233zm9.09594-5.84061c7.29179-1.90348 12.092-9.14268 10.88972-16.42278-1.2237-7.40979-7.31899-12.75057-14.5519-12.75057-8.32118 0-14.9238 6.58554-14.9238 14.8852 0 4.30154 1.5501 7.81461 4.75893 10.78543 3.91369 3.62338 8.71019 4.83845 13.82705 3.50272zm-121.26926 5.5909c-.26225-.316-.33897-5.87829-.27918-20.24L38.88 94.88h17.28l1.9065.89274c2.55513 1.19647 3.73988 2.14523 4.93846 3.95475 3.03484 4.58177 1.83382 10.83512-2.67013 13.9026-.62175.42345-1.12858.84191-1.1263.92991.0022.088.73784.592 1.63455 1.12 3.6087 2.12488 5.27174 5.19471 5.00632 9.24129-.33947 5.17546-4.32925 9.19028-10.06675 10.12995-1.02446.16778-5.12102.30589-9.10347.30691-5.72083.002-7.31673-.0896-7.60246-.4339zm17.24672-6.01417c1.9136-1.12332 3.01053-3.05284 3.01235-5.29877.0016-2.16403-1.24965-4.04404-3.40792-5.11979-1.37592-.6858-1.93483-.75507-6.20481-.76898-3.5736-.0116-4.75714.0864-4.96297.41109-.14866.2345-.2725 2.75609-.2752 5.60351-.0042 4.42132.07342 5.25545.53147 5.71351.46417.46417 1.16403.52091 5.2.42156 4.36045-.10734 4.75748-.16989 6.10708-.96213zm-.89957-17.48621c2.22717-1.38485 3.26137-4.262 2.5207-7.01263-.86052-3.19571-3.01974-4.25124-8.69648-4.25124-1.88966 0-3.66352.0874-3.94192.19424-.43534.16705-.50617.9917-.50617 5.89333 0 4.25176.10158 5.74394.4 5.87569.22.0971 2.344.14512 4.72.10666 3.88249-.0628 4.4399-.14447 5.50387-.80605zm249.93369 23.67083c-.31769-.20168-.38509-4.46329-.32-20.2351L305.12 94.88l2.51034-.09401c1.57538-.059 2.6778.04498 2.96.27918.37594.312.44966 3.17357.44966 17.45401V129.6h7.70104c4.69656 0 7.94251.12924 8.31998.33126.51834.27739.61898.68329.61898 2.496 0 1.25702-.16102 2.32576-.384 2.54874-.44448.44446-21.24802.55703-21.93844.1187zm119.78529-.23756c-.44458-.44459-.50285-2.48381-.50285-17.6V100.16h-4.896c-3.38134 0-5.01478-.1188-5.28-.384-.50611-.50612-.49437-3.82318.016-4.51907.36739-.50091 1.46986-.53852 13.52-.46116l13.12.08423V100l-5.12.16-5.12.16-.0828 17.09062c-.058 11.97294-.18953 17.2192-.4392 17.52-.52979.63835-4.56009.58157-5.21513-.0735z"/><path fill="#f7ce5f" d="M197.23572 196.64c-.10131-.264-.1076-.67959-.014-.92354.13582-.35394 23.33133-34.89142 44.78184-66.67894 2.91897-4.32562 3.44389-5.28296 3.11438-5.68-.34154-.41153-2.57432-.47752-16.15794-.47752-17.65876 0-17.31072.0447-15.8056-2.03168.42108-.58091 15.51011-19.30404 33.53118-41.60694 22.27485-27.5674 32.93029-40.51939 33.28-40.4528 1.2434.23677.57736 1.5692-4.68841 9.37933-40.38084 59.89238-43.01126 63.86134-42.62911 64.3218.32575.3925 2.86888.47725 16.42434.54735 14.7973.0765 16.04702.12502 16.14356.62654.13035.67709-66.64822 83.4564-67.32478 83.4564-.2592 0-.55415-.216-.65546-.48zm53.83535-10.58274c-2.75988-1.01129-5.51789-3.96858-6.24597-6.69726-1.30537-4.89226.95834-10.06728 5.34628-12.22203 1.57154-.77173 2.21393-.89797 4.56937-.89797 2.4169 0 2.96142.11343 4.60841.96 2.54054 1.30586 2.80329 1.79534 1.62434 3.0259-.81889.85474-.98855.91487-1.43677.50924-1.76343-1.59589-5.13304-2.18566-7.30701-1.27892-4.79256 1.99892-6.09088 8.45422-2.43552 12.10958 1.95332 1.95332 5.3771 2.6533 8.1258 1.6613 1.07308-.38727 1.12-.47003 1.12-1.97565V179.68l-1.6-.16c-1.58492-.15849-1.60094-.17131-1.69932-1.36l-.0993-1.2h6.43863v3.80082c0 2.65128-.12098 3.90065-.4 4.1309-1.76705 1.45816-7.95503 2.138-10.60893 1.16554zm22.88329.0641c-.25842-.31138-.33941-3.21206-.27919-10l.0848-9.5614 4.64-.0976c2.552-.0537 5.14667.0501 5.76593.23066 1.57843.46018 3.39576 2.4349 3.86467 4.19936.69574 2.61797-.31766 5.14452-2.67944 6.68027l-1.18828.77268 1.9439 3.65051c1.06914 2.00778 1.86181 3.86442 1.76149 4.12586-.13088.34106-.56746.44751-1.54534.37681L284.96 186.4l-2.00996-3.92-2.00996-3.92H276.8v3.80576c0 3.17516-.0839 3.83795-.50617 4-.86.33002-1.95796.21533-2.33947-.24436zm9.8932-10.76679c1.28443-.91459 1.75533-2.50532 1.162-3.92535-.76187-1.82337-1.53216-2.14922-5.08076-2.14922H276.8V176h3.0706c2.56621 0 3.21949-.10601 3.97696-.64539zm13.5598 10.75573c-.0949-.24732 1.82214-4.81932 4.2601-10.16 3.46614-7.59306 4.56063-9.71034 5.01957-9.71034.45978 0 1.55661 2.13808 5.06351 9.87043 2.9165 6.43056 4.36756 9.97947 4.16372 10.18331-.17208.17208-.79919.26639-1.39357.20957-.98147-.0938-1.18027-.30162-2.1653-2.26331l-1.08462-2.16-4.67538.005-4.67539.005-.77112 1.83454c-.42412 1.009-.99164 2.01454-1.26116 2.23454-.66147.53994-2.26644.5078-2.48036-.0497zm12.58261-6.9903c-1.10561-2.79012-3.28641-7.22785-3.46029-7.04138-.12379.13276-.94355 1.86138-1.82169 3.84138l-1.59661 3.6h3.51855c2.68603 0 3.48104-.0946 3.36004-.4zm16.31861 7.2419c-.12573-.12571-.22858-4.66857-.22858-10.09523V166.4h4.33274c4.67206 0 5.89737.32645 7.38982 1.96886 2.82822 3.11233 2.00998 8.09505-1.64256 10.00264-.95946.50109-2.01872.69618-4.22979.77904l-2.94983.11054-.0902 3.56946-.0902 3.56946-1.13142.0952c-.62231.0524-1.23431-.008-1.36-.13333zm8.42188-10.52732c1.11677-.57749 1.90954-1.9769 1.90954-3.37069 0-.71956-.31123-1.31913-1.088-2.09589-1.06864-1.06865-1.13693-1.088-3.84-1.088h-2.752v7.04h2.4159c1.53357 0 2.75872-.17728 3.35456-.48542zm15.89812 10.52732c-.12573-.12571-.22858-4.66857-.22858-10.09523V166.4H353.26141l.0893 4.24.0893 4.24h10.24l.0893-4.24.0893-4.24h2.87053l-.0846 10-.0845 10H364l-.089-4.4-.089-4.4h-10.52395l-.089 4.4-.089 4.4-1.13142.0952c-.62231.0524-1.23431-.008-1.36-.13333zm29.12 0c-.12573-.12571-.22858-4.66857-.22858-10.09523V166.4h2.88912l-.0846 10-.0845 10-1.13142.0952c-.62231.0524-1.23431-.008-1.36-.13333zm20.85376-.24369c-4.8362-1.7282-7.68436-6.7086-6.66509-11.65469.47593-2.30946.99056-3.30251 2.63705-5.08875 3.36816-3.65404 8.87591-4.34307 13.1057-1.63957.836.53433 1.52 1.1474 1.52 1.36238 0 .21497-.35037.72001-.77859 1.12231l-.77859.73145-1.99252-.99567c-4.54377-2.27054-9.0176-.37316-10.41993 4.41917-1.33523 4.56293 2.1584 9.30516 6.85517 9.30516 1.34595 0 2.18-.23191 3.64803-1.01437l1.90313-1.01437.85783.85783c1.11779 1.11778.80041 1.6389-1.83373 3.01091-1.75776.91554-2.29018 1.03832-4.44877 1.02596-1.34861-.008-2.97299-.20021-3.60969-.42775zm23.23766-.0652c-.704-.25103-1.69411-.78777-2.20029-1.19273-.90957-.72774-.91411-.74819-.39177-1.75831.64352-1.24445 1.10755-1.2723 2.77817-.16673 2.90611 1.92317 6.37389 1.12959 6.37389-1.45863 0-1.53142-.9673-2.4778-4.06246-3.97462-4.23866-2.04982-5.21754-3.21733-5.21754-6.22306 0-2.02453.94493-3.50035 2.88259-4.50208 1.20775-.62439 1.79533-.72195 3.67741-.61059 2.13421.12627 4.61197 1.01171 5.11677 1.82848.20883.33788-.77152 2.24523-1.15399 2.24523-.12057 0-.98953-.35859-1.931-.79687-2.21834-1.0327-3.47786-1.02595-4.72724.0253-2.08662 1.75577-1.00131 3.69781 3.13428 5.60845 4.1622 1.92294 5.48118 3.43894 5.48118 6.29989 0 3.16633-2.52429 5.2046-6.38781 5.15795-1.15072-.0139-2.66819-.23066-3.37219-.48169zm-272.68897-51.0083c-7.17064-1.87976-12.74305-7.47303-14.6974-14.75242-.73282-2.72954-.73282-7.77504 0-10.50458 2.49651-9.29879 10.47871-15.47106 20.02637-15.48548 3.64312-.0055 6.30181.61648 9.6 2.24583 3.21113 1.58635 7.06124 5.38883 8.74396 8.63579 6.22451 12.01074.071 26.23909-12.90276 29.83431-3.08558.85506-7.56756.86611-10.77017.0266zm11.5431-6.50112c4.18896-1.98933 6.99069-5.29186 8.31535-9.80167 1.92328-6.54787-1.87272-14.37392-8.44771-17.41627-1.76597-.81714-2.56719-.98346-5.28177-1.09638-2.67781-.11139-3.5366-.0195-5.26273.56334-4.11238 1.38849-6.88067 3.8482-8.83187 7.84739-3.94928 8.09442.0546 17.50705 8.74154 20.55019 1.83005.64109 2.6165.73593 5.24221.6322 2.75025-.10865 3.35638-.24894 5.52498-1.2788zm-123.73939 6.30448c-.1291-.1291-.23474-9.0491-.23474-19.82222 0-16.77838.06697-19.64307.467-19.97506.34752-.28842 2.53755-.35575 8.56-.26317 9.8047.15072 10.67121.37563 13.90825 3.61 2.34758 2.34564 3.13747 4.40908 2.92598 7.6435-.1739 2.65963-1.25386 4.67885-3.7024 6.9225l-2.00422 1.8365 1.00551.4165c1.77435.73496 3.93275 2.70398 4.91988 4.48819.8564 1.54794.95966 2.02871.95687 4.45519-.0026 2.10188-.15955 3.06001-.69148 4.21621-1.02728 2.2329-3.0993 4.28915-5.51126 5.46933L57.44 134.88l-9.12526.10141c-5.01889.0558-9.23089-.004-9.36-.13334zm17.59024-5.94653c4.12377-2.73113 3.77632-8.25695-.66523-10.57981-1.12544-.58858-1.99176-.70956-5.88395-.82166-3.31651-.0955-4.69427-.0235-5.04.26342-.63811.52958-.70638 11.15383-.0758 11.79563.2989.30421 1.6599.38106 5.3844.304 4.7881-.0991 5.03544-.13693 6.28059-.96158zM54.88 111.71817c1.5225-.69914 2.20477-1.41277 2.8678-2.9996 1.04181-2.49341.4483-5.49084-1.39423-7.04121-1.44748-1.21798-2.87159-1.51355-7.30231-1.51557-3.53798-.002-3.94017.0569-4.24.61717-.48318.90283-.43702 10.66728.05274 11.15704.26021.26021 1.73015.38173 4.56.37697 3.36379-.006 4.42495-.12134 5.456-.5948zm250.29333 23.1085c-.11733-.11734-.21333-9.10193-.21333-19.96577 0-17.71643.0522-19.77245.50617-19.94666.2784-.10684 1.49733-.19424 2.70874-.19424 1.85011 0 2.25558.09905 2.53383.61896.21641.40436.33126 6.5065.33126 17.6V129.92h8.12576c9.13542 0 8.51424-.18677 8.51424 2.56 0 2.77817.96653 2.56-11.3409 2.56-6.02384 0-11.04843-.096-11.16577-.21333zm119.86238-.15895c-.30438-.30439-.39571-4.33034-.39571-17.4436v-17.04787l-5.04-.0881-5.04-.0881-.0951-2.3718c-.0674-1.68122.0259-2.44847.32-2.6351.22829-.14481 6.12144-.2655 13.0959-.2682 10.52602-.0041 12.74445.07177 13.05527.4463.22892.27585.33744 1.3018.27916 2.64L441.12 100l-5.19725.0879-5.19725.0879-.0828 17.35208-.0827 17.35209-2.56429.0917c-1.72016.0615-2.69453-.0386-2.96-.304z"/><path fill="#a7a7a7" d="M197.52 196.89121c-.22-.0795-.4-.35459-.4-.61132 0-.37816 16.64678-25.37386 26.71926-40.11989 7.84181-11.48033 21.38119-31.835 21.51425-32.34383.30673-1.17293-.99467-1.26851-16.98956-1.2478-14.86381.0193-15.40731-.001-15.4997-.58458-.063-.39793 3.38436-4.91406 10.08704-13.21416A595535.13574 595535.13574 0 0 1 241.79202 85.44c4.76186-5.896 15.16798-18.784 23.12471-28.64 8.86097-10.97608 14.67753-17.92 15.01064-17.92.29913 0 .59206.25027.65097.55615.0628.32614-9.80548 15.2812-23.86065 36.16-13.18227 19.58212-24.06496 35.77085-24.18376 35.97497-.1188.20412-.12813.60012-.0207.88.17489.45574 1.85841.50888 16.12186.50888 17.91575 0 17.49548-.0555 15.85567 2.09438-.47651.62474-7.28735 9.08508-15.1352 18.80076-7.84786 9.71567-16.94188 20.97686-20.20895 25.02486-3.26706 4.048-11.46151 14.2-18.20989 22.56-6.74837 8.36-12.43782 15.28905-12.64322 15.39788-.20541.10883-.55346.13283-.77346.0533zm53.55107-10.83395c-2.75988-1.01129-5.51789-3.96858-6.24597-6.69726-1.30537-4.89226.95834-10.06728 5.34628-12.22203 1.57154-.77173 2.21393-.89797 4.56937-.89797 2.4169 0 2.96142.11343 4.60841.96 2.54054 1.30586 2.80329 1.79534 1.62434 3.0259-.81889.85474-.98855.91487-1.43677.50924-1.76343-1.59589-5.13304-2.18566-7.30701-1.27892-4.79256 1.99892-6.09088 8.45422-2.43552 12.10958 1.95332 1.95332 5.3771 2.6533 8.1258 1.6613 1.07308-.38727 1.12-.47003 1.12-1.97565V179.68l-1.6-.16c-1.58492-.15849-1.60094-.17131-1.69932-1.36l-.0993-1.2h6.43863v3.80082c0 2.65128-.12098 3.90065-.4 4.1309-1.76705 1.45816-7.95503 2.138-10.60893 1.16554zm22.88329.0641c-.25842-.31138-.33941-3.21206-.27919-10l.0848-9.5614 4.64-.0976c2.552-.0537 5.14667.0501 5.76593.23066 1.57843.46018 3.39576 2.4349 3.86467 4.19936.69574 2.61797-.31766 5.14452-2.67944 6.68027l-1.18828.77268 1.9439 3.65051c1.06914 2.00778 1.86181 3.86442 1.76149 4.12586-.13088.34106-.56746.44751-1.54534.37681L284.96 186.4l-2.00996-3.92-2.00996-3.92H276.8v3.80576c0 3.17516-.0839 3.83795-.50617 4-.86.33002-1.95796.21533-2.33947-.24436zm9.8932-10.76679c1.28443-.91459 1.75533-2.50532 1.162-3.92535-.76187-1.82337-1.53216-2.14922-5.08076-2.14922H276.8V176h3.0706c2.56621 0 3.21949-.10601 3.97696-.64539zm13.5598 10.75573c-.0949-.24732 1.82214-4.81932 4.2601-10.16 3.46614-7.59306 4.56063-9.71034 5.01957-9.71034.45978 0 1.55661 2.13808 5.06351 9.87043 2.9165 6.43056 4.36756 9.97947 4.16372 10.18331-.17208.17208-.79919.26639-1.39357.20957-.98147-.0938-1.18027-.30162-2.1653-2.26331l-1.08462-2.16-4.67538.005-4.67539.005-.77112 1.83454c-.42412 1.009-.99164 2.01454-1.26116 2.23454-.66147.53994-2.26644.5078-2.48036-.0497zm12.58261-6.9903c-1.10561-2.79012-3.28641-7.22785-3.46029-7.04138-.12379.13276-.94355 1.86138-1.82169 3.84138l-1.59661 3.6h3.51855c2.68603 0 3.48104-.0946 3.36004-.4zm16.31861 7.2419c-.12573-.12571-.22858-4.66857-.22858-10.09523V166.4h4.33274c4.67206 0 5.89737.32645 7.38982 1.96886 2.82822 3.11233 2.00998 8.09505-1.64256 10.00264-.95946.50109-2.01872.69618-4.22979.77904l-2.94983.11054-.0902 3.56946-.0902 3.56946-1.13142.0952c-.62231.0524-1.23431-.008-1.36-.13333zm8.42188-10.52732c1.11677-.57749 1.90954-1.9769 1.90954-3.37069 0-.71956-.31123-1.31913-1.088-2.09589-1.06864-1.06865-1.13693-1.088-3.84-1.088h-2.752v7.04h2.4159c1.53357 0 2.75872-.17728 3.35456-.48542zm15.89812 10.52732c-.12573-.12571-.22858-4.66857-.22858-10.09523V166.4H353.26141l.0893 4.24.0893 4.24h10.24l.0893-4.24.0893-4.24h2.87053l-.0846 10-.0845 10H364l-.089-4.4-.089-4.4h-10.52395l-.089 4.4-.089 4.4-1.13142.0952c-.62231.0524-1.23431-.008-1.36-.13333zm29.12 0c-.12573-.12571-.22858-4.66857-.22858-10.09523V166.4h2.88912l-.0846 10-.0845 10-1.13142.0952c-.62231.0524-1.23431-.008-1.36-.13333zm20.85376-.24369c-4.8362-1.7282-7.68436-6.7086-6.66509-11.65469.47593-2.30946.99056-3.30251 2.63705-5.08875 3.36816-3.65404 8.87591-4.34307 13.1057-1.63957.836.53433 1.52 1.1474 1.52 1.36238 0 .21497-.35037.72001-.77859 1.12231l-.77859.73145-1.99252-.99567c-4.54377-2.27054-9.0176-.37316-10.41993 4.41917-1.33523 4.56293 2.1584 9.30516 6.85517 9.30516 1.34595 0 2.18-.23191 3.64803-1.01437l1.90313-1.01437.85783.85783c1.11779 1.11778.80041 1.6389-1.83373 3.01091-1.75776.91554-2.29018 1.03832-4.44877 1.02596-1.34861-.008-2.97299-.20021-3.60969-.42775zm23.23766-.0652c-.704-.25103-1.69411-.78777-2.20029-1.19273-.90957-.72774-.91411-.74819-.39177-1.75831.64352-1.24445 1.10755-1.2723 2.77817-.16673 2.90611 1.92317 6.37389 1.12959 6.37389-1.45863 0-1.53142-.9673-2.4778-4.06246-3.97462-4.23866-2.04982-5.21754-3.21733-5.21754-6.22306 0-2.02453.94493-3.50035 2.88259-4.50208 1.20775-.62439 1.79533-.72195 3.67741-.61059 2.13421.12627 4.61197 1.01171 5.11677 1.82848.20883.33788-.77152 2.24523-1.15399 2.24523-.12057 0-.98953-.35859-1.931-.79687-2.21834-1.0327-3.47786-1.02595-4.72724.0253-2.08662 1.75577-1.00131 3.69781 3.13428 5.60845 4.1622 1.92294 5.48118 3.43894 5.48118 6.29989 0 3.16633-2.52429 5.2046-6.38781 5.15795-1.15072-.0139-2.66819-.23066-3.37219-.48169zm-272.68897-51.0083c-7.17064-1.87976-12.74305-7.47303-14.6974-14.75242-.73282-2.72954-.73282-7.77504 0-10.50458 2.49651-9.29879 10.47871-15.47106 20.02637-15.48548 3.64312-.0055 6.30181.61648 9.6 2.24583 3.21113 1.58635 7.06124 5.38883 8.74396 8.63579 6.22451 12.01074.071 26.23909-12.90276 29.83431-3.08558.85506-7.56756.86611-10.77017.0266zm11.5431-6.50112c4.18896-1.98933 6.99069-5.29186 8.31535-9.80167 1.92328-6.54787-1.87272-14.37392-8.44771-17.41627-1.76597-.81714-2.56719-.98346-5.28177-1.09638-2.67781-.11139-3.5366-.0195-5.26273.56334-4.11238 1.38849-6.88067 3.8482-8.83187 7.84739-3.94928 8.09442.0546 17.50705 8.74154 20.55019 1.83005.64109 2.6165.73593 5.24221.6322 2.75025-.10865 3.35638-.24894 5.52498-1.2788zm-123.73939 6.30448c-.1291-.1291-.23474-9.0491-.23474-19.82222 0-16.77838.06697-19.64307.467-19.97506.34752-.28842 2.53755-.35575 8.56-.26317 9.8047.15072 10.67121.37563 13.90825 3.61 2.34758 2.34564 3.13747 4.40908 2.92598 7.6435-.1739 2.65963-1.25386 4.67885-3.7024 6.9225l-2.00422 1.8365 1.00551.4165c1.77435.73496 3.93275 2.70398 4.91988 4.48819.8564 1.54794.95966 2.02871.95687 4.45519-.0026 2.10188-.15955 3.06001-.69148 4.21621-1.02728 2.2329-3.0993 4.28915-5.51126 5.46933L57.44 134.88l-9.12526.10141c-5.01889.0558-9.23089-.004-9.36-.13334zm17.59024-5.94653c4.12377-2.73113 3.77632-8.25695-.66523-10.57981-1.12544-.58858-1.99176-.70956-5.88395-.82166-3.31651-.0955-4.69427-.0235-5.04.26342-.63811.52958-.70638 11.15383-.0758 11.79563.2989.30421 1.6599.38106 5.3844.304 4.7881-.0991 5.03544-.13693 6.28059-.96158zM54.88 111.71817c1.5225-.69914 2.20477-1.41277 2.8678-2.9996 1.04181-2.49341.4483-5.49084-1.39423-7.04121-1.44748-1.21798-2.87159-1.51355-7.30231-1.51557-3.53798-.002-3.94017.0569-4.24.61717-.48318.90283-.43702 10.66728.05274 11.15704.26021.26021 1.73015.38173 4.56.37697 3.36379-.006 4.42495-.12134 5.456-.5948zm250.29333 23.1085c-.11733-.11734-.21333-9.10193-.21333-19.96577 0-17.71643.0522-19.77245.50617-19.94666.2784-.10684 1.49733-.19424 2.70874-.19424 1.85011 0 2.25558.09905 2.53383.61896.21641.40436.33126 6.5065.33126 17.6V129.92h8.12576c9.13542 0 8.51424-.18677 8.51424 2.56 0 2.77817.96653 2.56-11.3409 2.56-6.02384 0-11.04843-.096-11.16577-.21333zm119.86238-.15895c-.30438-.30439-.39571-4.33034-.39571-17.4436v-17.04787l-5.04-.0881-5.04-.0881-.0951-2.3718c-.0674-1.68122.0259-2.44847.32-2.6351.22829-.14481 6.12144-.2655 13.0959-.2682 10.52602-.0041 12.74445.07177 13.05527.4463.22892.27585.33744 1.3018.27916 2.64L441.12 100l-5.19725.0879-5.19725.0879-.0828 17.35208-.0827 17.35209-2.56429.0917c-1.72016.0615-2.69453-.0386-2.96-.304z"/><path fill="#f4b500" d="M197.52 196.89121c-.22-.0795-.4-.35459-.4-.61132 0-.37816 16.64678-25.37386 26.71926-40.11989 7.84181-11.48033 21.38119-31.835 21.51425-32.34383.30673-1.17293-.99467-1.26851-16.98956-1.2478-14.86381.0193-15.40731-.001-15.4997-.58458-.063-.39793 3.38436-4.91406 10.08704-13.21416A595535.13574 595535.13574 0 0 1 241.79202 85.44c4.76186-5.896 15.16798-18.784 23.12471-28.64 8.86097-10.97608 14.67753-17.92 15.01064-17.92.29913 0 .59206.25027.65097.55615.0628.32614-9.80548 15.2812-23.86065 36.16-13.18227 19.58212-24.06496 35.77085-24.18376 35.97497-.1188.20412-.12813.60012-.0207.88.17489.45574 1.85841.50888 16.12186.50888 17.91575 0 17.49548-.0555 15.85567 2.09438-.47651.62474-7.28735 9.08508-15.1352 18.80076-7.84786 9.71567-16.94188 20.97686-20.20895 25.02486-3.26706 4.048-11.46151 14.2-18.20989 22.56-6.74837 8.36-12.43782 15.28905-12.64322 15.39788-.20541.10883-.55346.13283-.77346.0533zm53.4741-10.97876c-2.26376-.8964-4.38029-2.85298-5.45613-5.04383-.77011-1.56825-.89797-2.21592-.89797-4.54862 0-2.48916.0928-2.89113 1.09335-4.73644 1.92811-3.55598 4.92835-5.33792 8.99338-5.34146 2.08523-.002 2.69729.14095 4.58187 1.06872 1.19632.58895 2.25751 1.28546 2.35818 1.54781.10523.27424-.17759.83763-.66532 1.32537-.72054.72054-.93223.78747-1.40492.44421-2.68769-1.95175-6.26926-2.20572-8.673-.61501-3.07208 2.03301-4.16214 6.4353-2.43663 9.84044 1.46146 2.88405 4.6639 4.42576 7.91767 3.8117 2.49583-.47102 2.79542-.74322 2.79542-2.53987v-1.57202l-1.68-.0967-1.68-.0967v-2.24h6.08V184.79654l-1.92.77533c-2.70218 1.09119-6.72607 1.24339-9.0059.34063zm150.2859.34831c-3.00304-.91679-5.9793-3.70897-6.89629-6.46976-.7367-2.21809-.51811-5.9892.45712-7.88542 1.07891-2.09775 2.7857-3.79429 4.78752-4.7588 3.41415-1.64496 8.73827-1.00153 10.91882 1.31956l.69014.73461-.79846.91952c-.74163.85413-.85107.88649-1.53866.455-2.03328-1.27605-3.04614-1.61547-4.82061-1.61547-6.31225 0-9.52076 7.5318-5.27056 12.3725 2.55895 2.91449 7.07773 3.30026 9.88391.8438.46832-.40994.62998-.40293 1.33315.0578 1.2623.82709 1.25376 1.33319-.0405 2.40369-1.97827 1.63625-6.128 2.40988-8.70557 1.62298zm23.34131-.004c-1.18189-.35864-2.27808-.96257-3.09174-1.70336-.68432-.62301-.69059-.68043-.17101-1.56001.29667-.50226.65456-.9132.7953-.9132.1407 0 1.05609.45164 2.03417 1.00364 2.78448 1.57146 5.3345 1.20996 6.29223-.892.30704-.67388.26304-1.01628-.25485-1.98308-.50685-.94618-1.19703-1.45454-3.62672-2.67132-1.6504-.82652-3.36083-1.83452-3.80096-2.24-2.65514-2.44618-1.98106-6.9832 1.25389-8.43945 1.95161-.87855 5.0758-.80956 7.06838.15608 1.65552.80229 1.89018 1.42654.96 2.55402l-.56.67879-1.57424-.80334c-3.10042-1.58235-5.94576-.70135-5.94576 1.84076 0 1.663 1.16854 2.70985 4.50518 4.03602 4.45613 1.77111 6.2226 5.14592 4.39533 8.39715-1.28173 2.28052-5.18566 3.47781-8.2792 2.53911zM273.92 176.32v-9.92l4.72.007c3.88579.006 4.94857.11085 6.01324.59446 4.39855 1.99799 4.76852 8.03876.6483 10.5852-.62785.38803-1.14154.7779-1.14154.86638 0 .0885.864 1.75573 1.92 3.70499s1.92 3.66513 1.92 3.81303c0 .1479-.68879.26891-1.53065.26891h-1.53064l-1.89871-3.84-1.89871-3.84H276.48v7.68h-2.56v-9.92zm8.94892-.41806c1.30573-.44973 2.57108-2.15942 2.57108-3.47396 0-.59819-.38095-1.33327-1.09488-2.11268l-1.09488-1.1953-3.22512-.10999-3.22512-.10998V176.32l2.48-.018c1.364-.01 2.97901-.18993 3.58892-.4zM297.28 185.98953c0-.74458 8.9754-19.76412 9.36437-19.84381.32245-.0661 1.77746 2.80756 4.86081 9.6 2.42034 5.33186 4.47322 9.87428 4.56195 10.09428.11511.28539-.26015.4-1.30971.4h-1.47105l-.94312-2.08-.94311-2.08h-9.56813l-.88401 2.08-.88401 2.08h-1.392c-.76559 0-1.39199-.11271-1.39199-.25047zm12.79178-6.54953c-.0123-.59869-3.10847-7.41323-3.41057-7.50654-.3134-.0968-3.6088 7.3223-3.40531 7.66654.078.132 1.64537.24 3.48299.24 2.46394 0 3.33895-.10501 3.33289-.4zm16.08358-3.04l.0846-9.84h4.5336c4.52173 0 4.53718.003 5.92.96428 3.27395 2.27711 3.71818 6.65049.96944 9.54429-1.38579 1.4589-2.48848 1.85469-5.70115 2.04636l-3.00189.1791V186.24H326.07071zm9.39664-1.168c.89194-.89194 1.088-1.3302 1.088-2.432 0-2.5762-2.49475-4.08913-6.24-3.78421l-1.28.10421-.0905 3.6-.0905 3.6h2.76246c2.71501 0 2.78122-.0187 3.8505-1.088zm14.848 1.0696v-9.9384l1.36.0984 1.36.0984.0893 4.24.0893 4.24H363.84001v-8.6768l1.36.0984 1.36.0984.0846 9.84.0846 9.84H363.84v-8.64h-10.56v8.64h-2.88zm29.12.0184v-9.92h2.88v19.84h-2.88zM152 135.20193c-7.48057-1.67691-13.79627-7.92083-15.53856-15.36193-.38106-1.62745-.48615-3.20257-.3843-5.76.22508-5.65188 2.02183-9.83816 5.88528-13.7122 3.88347-3.89411 7.9941-5.6558 13.74189-5.88933 4.23819-.1722 6.44852.29148 10.21569 2.14303 4.78592 2.35225 8.58332 6.76668 10.27959 11.94986.7345 2.24436.8623 3.19002.87421 6.46864.0124 3.41299-.088 4.13721-.90313 6.51271-2.89008 8.42273-9.98322 13.67962-18.89067 14.00029-2.04678.0737-3.94959-.0528-5.28-.35107zm10.88326-6.63729c3.90824-1.88149 6.74184-5.12474 8.00159-9.15835 2.69678-8.63487-3.05763-17.78613-12.12579-19.2837-9.64217-1.59238-18.67325 7.4729-17.05251 17.11706.94652 5.63225 4.72278 10.10009 10.1682 12.03041 1.56233.55383 2.46132.64947 5.24851.55836 3.09112-.10105 3.55721-.20331 5.76-1.26378zm-123.92824 6.28372c-.38086-.38087-.28872-39.4174.0936-39.65369.18074-.1117 3.89117-.19441 8.24538-.1838 8.8024.02148 10.05181.2207 12.74366 2.03211 5.5809 3.75554 6.06957 11.2123 1.03161 15.74186-.89017.80034-1.74692 1.45516-1.90388 1.45516-.65488 0-.2079.55842.85128 1.06351 1.68993.80587 4.1781 3.27704 5.00188 4.96772.55664 1.1424.7263 2.05069.72922 3.90405.0033 2.08818-.13862 2.70461-1.04791 4.55163-1.19977 2.43707-2.78907 3.90951-5.68222 5.26441L57.12 134.88l-8.96498.10169c-4.93074.0559-9.07074-.004-9.2-.13333zm16.65089-5.42363c3.50508-1.46452 5.0423-5.75291 3.09225-8.62646C56.8208 118.0318 55.19053 117.44 49.447 117.44c-2.83921 0-4.32334.12435-4.58299.384-.26873.26873-.384 2.02667-.384 5.856 0 3.82933.11527 5.58727.384 5.856.60807.60807 9.23415.51871 10.74191-.11127zm-.79563-17.54532c1.24527-.53281 2.62619-1.95435 3.08936-3.18024.62826-1.66282.41894-4.34885-.45512-5.84032-1.30324-2.22381-2.69052-2.69885-7.88155-2.69885-2.92942 0-4.43827.1233-4.69897.384-.26782.26782-.384 1.99111-.384 5.696s.11618 5.42818.384 5.696c.56587.56587 8.59831.52017 9.94628-.0566zm250.36305 22.94726c-.11733-.11734-.21333-9.03684-.21333-19.82112 0-14.47934.0967-19.66752.36955-19.83617.46311-.28622 4.57709-.2743 5.04457.01462.24093.1489.34588 5.45146.34588 17.47489V129.92h8.14874c7.72892 0 8.16582.0319 8.48.61896.45398.84825.41814 3.64617-.0527 4.11704-.28346.28344-3.20237.384-11.14667.384-5.91946 0-10.85866-.096-10.976-.21333zm120.01189.0119c-.12388-.12389-.22522-7.97367-.22522-17.44398v-17.21874l-5.2-.0879-5.2-.0879-.0957-2.20828c-.0527-1.21455.0285-2.33252.18035-2.48438.30803-.30802 25.82928-.40775 26.32262-.10286.44916.2776.38941 4.11086-.0713 4.57152-.26518.26518-1.89805.384-5.27725.384h-4.89325l-.0828 17.36-.0827 17.36-2.57478.0919c-1.41613.0505-2.67613-.009-2.8-.13334z"/><path fill="#4b4b4b" d="M250.9941 185.91245c-2.26376-.8964-4.38029-2.85298-5.45613-5.04383-.77011-1.56825-.89797-2.21592-.89797-4.54862 0-2.48916.0928-2.89113 1.09335-4.73644 1.92811-3.55598 4.92835-5.33792 8.99338-5.34146 2.08523-.002 2.69729.14095 4.58187 1.06872 1.19632.58895 2.25751 1.28546 2.35818 1.54781.10523.27424-.17759.83763-.66532 1.32537-.72054.72054-.93223.78747-1.40492.44421-2.68769-1.95175-6.26926-2.20572-8.673-.61501-3.07208 2.03301-4.16214 6.4353-2.43663 9.84044 1.46146 2.88405 4.6639 4.42576 7.91767 3.8117 2.49583-.47102 2.79542-.74322 2.79542-2.53987v-1.57202l-1.68-.0967-1.68-.0967v-2.24h6.08V184.79654l-1.92.77533c-2.70218 1.09119-6.72607 1.24339-9.0059.34063zm150.2859.34831c-3.00304-.91679-5.9793-3.70897-6.89629-6.46976-.7367-2.21809-.51811-5.9892.45712-7.88542 1.07891-2.09775 2.7857-3.79429 4.78752-4.7588 3.41415-1.64496 8.73827-1.00153 10.91882 1.31956l.69014.73461-.79846.91952c-.74163.85413-.85107.88649-1.53866.455-2.03328-1.27605-3.04614-1.61547-4.82061-1.61547-6.31225 0-9.52076 7.5318-5.27056 12.3725 2.55895 2.91449 7.07773 3.30026 9.88391.8438.46832-.40994.62998-.40293 1.33315.0578 1.2623.82709 1.25376 1.33319-.0405 2.40369-1.97827 1.63625-6.128 2.40988-8.70557 1.62298zm23.34131-.004c-1.18189-.35864-2.27808-.96257-3.09174-1.70336-.68432-.62301-.69059-.68043-.17101-1.56001.29667-.50226.65456-.9132.7953-.9132.1407 0 1.05609.45164 2.03417 1.00364 2.78448 1.57146 5.3345 1.20996 6.29223-.892.30704-.67388.26304-1.01628-.25485-1.98308-.50685-.94618-1.19703-1.45454-3.62672-2.67132-1.6504-.82652-3.36083-1.83452-3.80096-2.24-2.65514-2.44618-1.98106-6.9832 1.25389-8.43945 1.95161-.87855 5.0758-.80956 7.06838.15608 1.65552.80229 1.89018 1.42654.96 2.55402l-.56.67879-1.57424-.80334c-3.10042-1.58235-5.94576-.70135-5.94576 1.84076 0 1.663 1.16854 2.70985 4.50518 4.03602 4.45613 1.77111 6.2226 5.14592 4.39533 8.39715-1.28173 2.28052-5.18566 3.47781-8.2792 2.53911zM273.92 176.32v-9.92l4.72.007c3.88579.006 4.94857.11085 6.01324.59446 4.39855 1.99799 4.76852 8.03876.6483 10.5852-.62785.38803-1.14154.7779-1.14154.86638 0 .0885.864 1.75573 1.92 3.70499s1.92 3.66513 1.92 3.81303c0 .1479-.68879.26891-1.53065.26891h-1.53064l-1.89871-3.84-1.89871-3.84H276.48v7.68h-2.56v-9.92zm8.94892-.41806c1.30573-.44973 2.57108-2.15942 2.57108-3.47396 0-.59819-.38095-1.33327-1.09488-2.11268l-1.09488-1.1953-3.22512-.10999-3.22512-.10998V176.32l2.48-.018c1.364-.01 2.97901-.18993 3.58892-.4zM297.28 185.98953c0-.74458 8.9754-19.76412 9.36437-19.84381.32245-.0661 1.77746 2.80756 4.86081 9.6 2.42034 5.33186 4.47322 9.87428 4.56195 10.09428.11511.28539-.26015.4-1.30971.4h-1.47105l-.94312-2.08-.94311-2.08h-9.56813l-.88401 2.08-.88401 2.08h-1.392c-.76559 0-1.39199-.11271-1.39199-.25047zm12.79178-6.54953c-.0123-.59869-3.10847-7.41323-3.41057-7.50654-.3134-.0968-3.6088 7.3223-3.40531 7.66654.078.132 1.64537.24 3.48299.24 2.46394 0 3.33895-.10501 3.33289-.4zm16.08358-3.04l.0846-9.84h4.5336c4.52173 0 4.53718.003 5.92.96428 3.27395 2.27711 3.71818 6.65049.96944 9.54429-1.38579 1.4589-2.48848 1.85469-5.70115 2.04636l-3.00189.1791V186.24H326.07071zm9.39664-1.168c.89194-.89194 1.088-1.3302 1.088-2.432 0-2.5762-2.49475-4.08913-6.24-3.78421l-1.28.10421-.0905 3.6-.0905 3.6h2.76246c2.71501 0 2.78122-.0187 3.8505-1.088zm14.848 1.0696v-9.9384l1.36.0984 1.36.0984.0893 4.24.0893 4.24H363.84001v-8.6768l1.36.0984 1.36.0984.0846 9.84.0846 9.84H363.84v-8.64h-10.56v8.64h-2.88zm29.12.0184v-9.92h2.88v19.84h-2.88zM152 135.20193c-7.48057-1.67691-13.79627-7.92083-15.53856-15.36193-.38106-1.62745-.48615-3.20257-.3843-5.76.22508-5.65188 2.02183-9.83816 5.88528-13.7122 3.88347-3.89411 7.9941-5.6558 13.74189-5.88933 4.23819-.1722 6.44852.29148 10.21569 2.14303 4.78592 2.35225 8.58332 6.76668 10.27959 11.94986.7345 2.24436.8623 3.19002.87421 6.46864.0124 3.41299-.088 4.13721-.90313 6.51271-2.89008 8.42273-9.98322 13.67962-18.89067 14.00029-2.04678.0737-3.94959-.0528-5.28-.35107zm10.88326-6.63729c3.90824-1.88149 6.74184-5.12474 8.00159-9.15835 2.69678-8.63487-3.05763-17.78613-12.12579-19.2837-9.64217-1.59238-18.67325 7.4729-17.05251 17.11706.94652 5.63225 4.72278 10.10009 10.1682 12.03041 1.56233.55383 2.46132.64947 5.24851.55836 3.09112-.10105 3.55721-.20331 5.76-1.26378zm-123.92824 6.28372c-.38086-.38087-.28872-39.4174.0936-39.65369.18074-.1117 3.89117-.19441 8.24538-.1838 8.8024.02148 10.05181.2207 12.74366 2.03211 5.5809 3.75554 6.06957 11.2123 1.03161 15.74186-.89017.80034-1.74692 1.45516-1.90388 1.45516-.65488 0-.2079.55842.85128 1.06351 1.68993.80587 4.1781 3.27704 5.00188 4.96772.55664 1.1424.7263 2.05069.72922 3.90405.0033 2.08818-.13862 2.70461-1.04791 4.55163-1.19977 2.43707-2.78907 3.90951-5.68222 5.26441L57.12 134.88l-8.96498.10169c-4.93074.0559-9.07074-.004-9.2-.13333zm16.65089-5.42363c3.50508-1.46452 5.0423-5.75291 3.09225-8.62646C56.8208 118.0318 55.19053 117.44 49.447 117.44c-2.83921 0-4.32334.12435-4.58299.384-.26873.26873-.384 2.02667-.384 5.856 0 3.82933.11527 5.58727.384 5.856.60807.60807 9.23415.51871 10.74191-.11127zm-.79563-17.54532c1.24527-.53281 2.62619-1.95435 3.08936-3.18024.62826-1.66282.41894-4.34885-.45512-5.84032-1.30324-2.22381-2.69052-2.69885-7.88155-2.69885-2.92942 0-4.43827.1233-4.69897.384-.26782.26782-.384 1.99111-.384 5.696s.11618 5.42818.384 5.696c.56587.56587 8.59831.52017 9.94628-.0566zm250.36305 22.94726c-.11733-.11734-.21333-9.03684-.21333-19.82112 0-14.47934.0967-19.66752.36955-19.83617.46311-.28622 4.57709-.2743 5.04457.01462.24093.1489.34588 5.45146.34588 17.47489V129.92h8.14874c7.72892 0 8.16582.0319 8.48.61896.45398.84825.41814 3.64617-.0527 4.11704-.28346.28344-3.20237.384-11.14667.384-5.91946 0-10.85866-.096-10.976-.21333zm120.01189.0119c-.12388-.12389-.22522-7.97367-.22522-17.44398v-17.21874l-5.2-.0879-5.2-.0879-.0957-2.20828c-.0527-1.21455.0285-2.33252.18035-2.48438.30803-.30802 25.82928-.40775 26.32262-.10286.44916.2776.38941 4.11086-.0713 4.57152-.26518.26518-1.89805.384-5.27725.384h-4.89325l-.0828 17.36-.0827 17.36-2.57478.0919c-1.41613.0505-2.67613-.009-2.8-.13334z"/><path fill="#3a3a3a" d="M251.84 186.09003c-2.00137-.65145-2.89291-1.17026-2.65964-1.5477.10919-.17667.0445-.226-.14382-.10963-.61423.37961-2.27324-1.3862-3.34201-3.55718-2.08589-4.23706-1.18799-8.87383 2.33111-12.0378.93992-.84507 2.27679-1.65959 3.25968-1.98606 3.2086-1.06572 7.27581-.45023 9.53305 1.44263l1.10163.9238-.77578.83095c-.78011.8356-1.5393 1.15022-1.11366.46152.14194-.22967.0877-.28255-.1433-.13977-.2044.12633-.78754-.0665-1.29587-.42844-1.48301-1.056-3.76387-1.45151-5.47139-.94877-.792.23318-1.6296.40742-1.86133.3872-.23174-.0202-.36121.0234-.28772.0968.0735.0735-.47948.74671-1.22881 1.49604-4.7523 4.7523-1.51583 12.8401 5.13786 12.83929 1.056-.00013 2.46-.18526 3.12-.4114 1.18858-.40726 1.2-.42769 1.2-2.14636V179.52H256v-2.56h5.7797l-.0899 3.91879-.0898 3.91878-1.89091.74975c-2.3903.94775-5.88443 1.18873-7.86909.54271zm149.22374.009c-1.8632-.58259-3.67414-1.75297-3.41443-2.2067.11731-.20496.0955-.26592-.0486-.13544-.3368.30511-1.17168-.37591-.93344-.76141.0992-.16042.0131-.25211-.19108-.20375-.20422.0484-.82694-.70407-1.38377-1.67207-.93123-1.61881-1.01245-1.99103-1.01245-4.64 0-2.38069.13107-3.14619.756-4.41537.94586-1.921 2.75446-3.88717 3.27802-3.5636.24652.15236.30121.10253.15219-.13864-.15229-.24638.39273-.66285 1.57696-1.205 1.41712-.64878 2.3072-.82733 4.10326-.82312 2.48666.006 5.56.93533 5.40563 1.63486-.0483.21914.0687.30163.26016.18331.19146-.11832.63002.04.97456.3518.61924.56039.61668.57713-.22073 1.45119l-.84717.88426-1.63942-.92413c-2.10256-1.18519-3.78999-1.439-5.68692-.85541-5.51648 1.69717-7.23776 8.5654-3.16688 12.6363 2.6226 2.62259 6.01136 2.936 9.29981.86011l1.19514-.75446.87389.91217.87392.91216-1.3666.98994c-2.48876 1.80287-5.95497 2.38448-8.83808 1.483zm9.6426-16.79726c.10124-.16384.0618-.3735-.0878-.46592-.14954-.0924-.2719.0416-.2719.29789 0 .53957.10092.58672.35968.16803zM424.32 186.02731c-1.79891-.62729-3.2-1.60279-3.2-2.22799 0-.2624.14234-.38911.31632-.28159.17398.10753.23946-.005.14544-.24984-.094-.24495.0375-.61826.2921-.8296.37145-.30828.75574-.19858 1.94377.55485 2.588 1.64126 5.27594 1.59165 6.39616-.11805 1.31491-2.00679.29117-3.41683-4.14672-5.71142-1.88902-.97672-3.15126-1.81962-3.09913-2.06956.0484-.23192-.0439-.34021-.205-.24064-.43907.27134-1.28099-1.19844-1.5112-2.63812-.22905-1.43234.27802-3.31099 1.06605-3.94975.44736-.36262.48471-.35457.25232.0544-.16253.28608-.15504.37227.0186.21333.16023-.14666.2913-.43466.2913-.64 0-.20533.55286-.64333 1.22857-.97333 1.74487-.85216 4.72109-.80035 6.85911.1194 1.73683.74717 2.01782 1.27864 1.22688 2.3206-.54336.71578-.89751.70414-2.43456-.08-.71827-.36643-1.88602-.64-2.73187-.64-1.21917 0-1.64736.17001-2.45018.97282-.8111.81111-.93936 1.14008-.77158 1.979.29827 1.4914 1.02521 2.12517 4.03065 3.51408 3.2505 1.50216 4.9169 2.69567 4.66829 3.34352-.11357.29598-.0438.38091.19274.2347.24982-.1544.30201-.05.16.32-.11898.31006-.08.46836.0894.36361.41027-.25356.77334 1.86307.50604 2.95017-.29017 1.18026-1.0935 2.38461-1.44547 2.16708-.15613-.0965-.38803-.007-.51539.19924-.15363.24858-.0803.29598.21789.14084.2472-.1286.11392.0616-.29616.42259-1.50999 1.32935-4.55757 1.66427-7.0944.77966zm8.85859-4.96731c-.10214-.25527-.17798-.17945-.19334.19333-.0138.33734.0618.52634.16809.42.10634-.10633.1177-.38233.0253-.61333zM273.92 176.29128v-9.94872l4.88.10872c4.24964.0947 5.04534.19732 6.16.79458.704.37722 1.24043.85593 1.19207 1.06378-.0484.20786.0541.29014.22773.18284.55396-.34236 1.6202 2.25619 1.6202 3.9486 0 1.78224-.24867 2.68077-.66987 2.42046-.15554-.0961-.21094.0127-.12312.24184.19735.51492-1.14947 2.00632-2.39216 2.64894l-.92466.47816 1.91152 3.52844c1.05133 1.94065 1.80978 3.69304 1.68545 3.89421-.13924.2253-.0842.27807.1434.13743.20319-.12558.36944-.0758.36944.11055 0 .19114-.66528.33889-1.52593.33889h-1.52593l-1.99245-4-1.99245-4H276.48v8h-2.56zm1.84 9.40813c-.308-.0805-.812-.0805-1.12 0-.308.0805-.056.14635.56.14635.616 0 .868-.0659.56-.14635zm10.88 0c-.308-.0805-.812-.0805-1.12 0-.308.0805-.056.14635.56.14635.616 0 .868-.0659.56-.14635zm-2.29479-10.73471c1.22588-1.33842 1.40667-2.55338.60937-4.09517-.77093-1.49083-1.95909-1.90953-5.41869-1.90953H276.48v7.41826l3.38521-.10913 3.38522-.10913zM297.28 186.09014c0-.39835 8.73801-19.26458 9.09-19.6262.33232-.34142.4638-.34142.73286 0 .74514.94553 3.95268 8.61203 3.74424 8.9493-.12616.20413-.0855.2788.0921.16905.29576-.1828 4.90078 9.49445 4.90078 10.29878 0 .20335-.53626.35893-1.23716.35893-1.22299 0-1.24862-.0256-2.23874-2.24l-1.00158-2.24h-9.47921l-.99527 2.24-.99528 2.24h-1.30638c-.71851 0-1.30638-.0674-1.30638-.14986zm2.16373-.39001c-.30595-.0801-.88195-.083-1.28-.006-.39805.0765-.14773.14207.55627.14563.704.004 1.02968-.0591.72373-.13917zm15.67627-.00064c-.308-.0805-.812-.0805-1.12 0-.308.0805-.056.14635.56.14635.616 0 .868-.0659.56-.14635zm-4.80843-6.25949c-.92193-2.3503-3.59706-7.92-3.80399-7.92-.14717 0-.26758.14513-.26758.3225 0 .17738-.72 1.91829-1.6 3.86869-.88 1.9504-1.6 3.67727-1.6 3.83749 0 .16023 1.6714.29132 3.71424.29132 2.84173 0 3.67738-.094 3.55733-.4zm17.20843 6.48l1.28-.22918-1.2-.0454-1.2-.0454v-19.26279l4.24.11246c3.78931.10052 4.38486.19533 5.60285.89193 1.49091.8527 2.47081 2.07091 2.12102 2.63688-.13267.21465-.0794.2718.13175.14131.5128-.31694 1.1215 2.22225.863 3.6001-.29715 1.58401-1.07145 2.98704-1.50169 2.72113-.19898-.12297-.26682-.0759-.15392.10677.24003.38839-.51408 1.09809-1.92711 1.81362-.71977.36447-1.88473.51859-3.92.51859H328.96v7.36l-1.36-.0454-1.36-.0454zm7.32858-10.02997c2.61539-1.71369 2.4462-5.32798-.3032-6.47676-.59664-.2493-2.09744-.45327-3.33511-.45327H328.96V176.72223l2.53302-.14663c1.62269-.0939 2.82861-.34032 3.35556-.68557zm15.62678.50997l.0846-9.84 1.2-.0993 1.2-.0993v8.67863h10.86141l.0893-4.24.0893-4.24h2.56v19.52l-1.36.0984-1.36.0984v-9.01228l-5.36.0877-5.36.0877-.089 4.4-.089 4.4H350.39077zm1.76464 9.29941c-.308-.0805-.812-.0805-1.12 0-.308.0805-.056.14635.56.14635.616 0 .868-.0659.56-.14635zm13.76374.00064c-.30595-.0801-.88195-.083-1.28-.006-.39808.0765-.14774.14207.55626.14563.704.004 1.02966-.0591.72374-.13917zm13.66874.15565c-.0893-.23274-.12416-4.6695-.0774-9.85947L379.68 166.56h2.56v19.52l-1.20256.0995c-.7783.0644-1.25987-.0498-1.36496-.32369zm2.01126-.15565c-.30595-.0801-.88195-.083-1.28-.006-.39808.0765-.14774.14207.55626.14563.704.004 1.02966-.0591.72374-.13917zM152.8 135.22057c-3.68111-.72507-7.72155-2.47557-7.29755-3.16163.11289-.18264.0333-.21702-.18703-.0808-.47884.29594-1.38191-.41164-1.10245-.86381.12227-.19784.0501-.23691-.17755-.0962-.47884.29594-1.38191-.41164-1.10245-.86381.11325-.18325.0553-.24013-.12869-.12639-.44505.27506-2.728-2.27355-2.44571-2.73031.12541-.20293.0763-.26745-.11413-.14979-.4312.2665-1.46173-1.2915-1.1683-1.76629.12808-.20723.08-.27217-.11317-.1528-.40324.24922-.81299-.66418-.51457-1.14704.11873-.1921.0601-.24761-.13454-.12732-.20853.12887-.59695-.46006-.98178-1.48861-1.37583-3.67725-1.68153-7.92765-.85628-11.90575.52721-2.54143 3.01419-7.72651 3.64148-7.59207.23097.0495.31391-.068.18977-.26889-.27349-.44252 2.07679-2.9068 2.51439-2.63634.1747.10796.21778.0349.0958-.16242-.5634-.91161 5.51504-4.20124 9.33199-5.05043 3.1438-.69943 7.38928-.49211 10.58356.51682 2.59472.81956 6.33725 2.94183 6.19927 3.5154-.0484.20102.0739.26547.27173.14322.47998-.29664 3.37104 2.81275 4.7369 5.09464 2.38406 3.98294 3.45489 8.89612 2.90024 13.30675-.3249 2.5836-.39139 2.85322-1.32615 5.37712-.37696 1.01781-.76008 1.59945-.96865 1.47056-.21156-.13076-.25178-.0624-.10396.1768.32348.52341-1.96683 3.96554-2.44283 3.67136-.20038-.12385-.26978-.0783-.15749.1034.26202.42396-2.01198 2.69796-2.43594 2.43594-.17864-.11041-.23111-.0491-.1166.13613.41515.67173-4.71657 3.42217-7.7975 4.17921-2.47753.60878-6.38724.717-8.79182.24337zm8.64831-5.94343c2.15894-.74278 4.90235-2.5331 6.28112-4.09898.57056-.64799 1.18885-1.13016 1.37397-1.07149.18513.0587.22884-.00096.0971-.1328-.1317-.13171.10634-.82953.52899-1.55072 1.93888-3.30845 2.45066-8.51088 1.19058-12.10274-3.53987-10.09051-15.79732-13.72778-23.79443-7.06077-6.77218 5.64583-7.58795 15.35648-1.82021 21.6673.85644.93708 1.48907 1.79586 1.40585 1.90842-.0832.11255-.0596.1369.0526.0541.11213-.0828.58013.11439 1.04.43821 3.93219 2.76887 9.11182 3.50892 13.64443 1.94947zm-19.04831.20204c0-.0665-.252-.31845-.56-.56-.50754-.39804-.51886-.38672-.12082.12082.41804.53304.68082.70255.68082.43918zm14.96373-30.17905c-.30595-.08009-.88195-.083-1.28-.0065-.39805.07654-.14773.14208.55627.14563.704.0036 1.02968-.05907.72373-.13917zM39.104 134.656c-.45422-.45422-.5567-38.52816-.10562-39.23962.21496-.33904 1.98705-.40096 8.8751-.31013 8.14753.10744 8.6913.15235 10.19606.84206 2.54375 1.16592 4.18552 2.71873 5.32786 5.03916 1.37389 2.79076 1.4545 5.86212.21772 8.29568-.44635.87827-.97435 1.56085-1.17333 1.51685-.19898-.044-.34474.028-.3239.16.11526.72993-.20196 1.14314-1.80909 2.35653l-1.77119 1.33727 1.8512 1.03984c1.07639.60463 1.80655 1.22119 1.74452 1.47311-.05867.23829.00009.3265.13056.19603.31184-.31184 1.14216.38382.9088.76141-.09915.16041-.0044.2521.21062.20374.21498-.0484.80168.68451 1.30378 1.62861.76067 1.43029.91291 2.10117.91291 4.023 0 1.26855-.22682 2.97211-.50403 3.7857-.5434 1.59477-2.88168 4.51553-3.37228 4.21232-.16475-.10182-.25998-.007-.21162.21154.1249.56345-3.11207 2.15283-5.15575 2.53151-2.55274.47301-16.76794.41977-17.25232-.0646zm17.79342-5.81172c1.86023-1.29042 2.73626-3.21609 2.5616-5.63081-.17139-2.36934-1.20147-3.80469-3.55778-4.95752-1.63676-.80079-1.89284-.83022-6.48266-.74484L44.64 117.6l-.08767 5.74924c-.04821 3.16208-.01309 5.94358.07805 6.1811.1322.34449 1.25626.4114 5.55634.33075 5.33721-.10009 5.4037-.11016 6.7107-1.01681zM55.2662 111.7512c3.12516-1.64853 4.12878-6.38098 1.99017-9.38439-.3286-.46148-.52972-.9308-.44691-1.04293.0828-.11214.06429-.14162-.04114-.0655-.10543.0761-.73314-.14387-1.39493-.48881-1.06472-.55497-1.75175-.61694-5.96831-.53835L44.64 100.32l-.08771 5.75866c-.07923 5.20247-.03287 5.79967.48 6.18327.42347.31674 1.62462.39601 4.7277.312 3.54248-.0959 4.35984-.21803 5.5062-.82273zm249.85255 22.57299c-.09655-.3983-.13576-9.36419-.08715-19.92419l.0884-19.2h5.44l.0827 17.3546.0828 17.35461 8.23724.0854 8.23725.0854v4.8l-10.95285.0842-10.95285.0842zM310.31976 104.4c-.0501-4.532-.091-.824-.091 8.24s.041 12.772.091 8.24c.0501-4.532.0501-11.948 0-16.48zm114.85358 30.42667c-.11734-.11734-.21334-7.96534-.21334-17.44V100.16h-4.92083c-3.84848 0-5.00256-.0985-5.29597-.45206-.22566-.27188-.33693-1.26035-.2792-2.48L414.56 95.2l13.21354-.08356 13.2135-.08356-.0935 2.48356L440.8 100l-5.04.0881-5.04.0881v17.04787c0 12.8328-.0949 17.14282-.384 17.43188-.40506.40505-4.78355.54979-5.16266.17067z"/></g></svg>