<?xml version="1.0" encoding="UTF-8" standalone="no"?>
<!-- Created with Inkscape (http://www.inkscape.org/) -->

<svg
   version="1.1"
   id="svg1"
   width="425.72876"
   height="669.13306"
   viewBox="0 0 425.72876 669.13306"
   sodipodi:docname="bowerbot.svg"
   inkscape:version="1.4.3 (0d15f75, 2025-12-25)"
   xmlns:inkscape="http://www.inkscape.org/namespaces/inkscape"
   xmlns:sodipodi="http://sodipodi.sourceforge.net/DTD/sodipodi-0.dtd"
   xmlns="http://www.w3.org/2000/svg"
   xmlns:svg="http://www.w3.org/2000/svg">
  <defs
     id="defs1" />
  <sodipodi:namedview
     id="namedview1"
     pagecolor="#ffffff"
     bordercolor="#000000"
     borderopacity="0.25"
     inkscape:showpageshadow="2"
     inkscape:pageopacity="0.0"
     inkscape:pagecheckerboard="0"
     inkscape:deskcolor="#d1d1d1"
     inkscape:zoom="0.33"
     inkscape:cx="224.24242"
     inkscape:cy="271.21212"
     inkscape:current-layer="g1" />
  <g
     inkscape:groupmode="layer"
     inkscape:label="Image"
     id="g1"
     transform="translate(-287.14921,-11.154497)">
    <g
       id="g2">
      <path
         style="fill:#f0861b"
         d="M 637.58633,169.34227 C 629.41459,164.91755 597.48014,156 589.80659,156 c -1.60854,0 -2.71675,-0.3375 -2.46268,-0.75 0.25407,-0.4125 -7.2475,-0.8344 -16.67016,-0.93755 -9.42267,-0.10315 -17.2436,-0.55315 -17.37986,-1 -0.13626,-0.44685 1.46103,-2.02103 3.54954,-3.49817 8.25896,-5.84136 14.78736,-12.74366 20.70543,-21.8913 C 584.14318,117.73006 587.88502,114 591.5158,114 c 1.23534,0 5.33716,1.15645 9.11514,2.56988 21.9703,8.21961 35.81829,23.42584 40.91691,44.93012 2.37997,10.03791 1.88888,11.01007 -3.96152,7.84227 z M 638.6334,164.75 c -0.54489,-3.59168 -3.90339,-5.09476 -4.99977,-2.23763 -0.45557,1.1872 -0.0461,1.37828 1.90431,0.88875 2.00617,-0.50351 2.3656,-0.31331 1.86638,0.98763 -0.34007,0.88619 -0.15997,1.61125 0.40021,1.61125 0.56018,0 0.93317,-0.5625 0.82887,-1.25 z m -5.6144,-4.27289 c 1.05678,-1.27335 0.99492,-1.41968 -0.37756,-0.89301 -0.90279,0.34643 -1.64144,1.03173 -1.64144,1.52289 0,1.28596 0.57887,1.10536 2.019,-0.62988 z m -2.67692,-4.92618 c 0.37058,-0.96571 0.0755,-1.26467 -0.88458,-0.89625 -0.79393,0.30466 -1.71592,-0.16453 -2.05386,-1.04518 -0.33726,-0.87891 -1.02573,-1.34306 -1.52992,-1.03145 -0.50419,0.3116 0.10546,1.41905 1.35478,2.46098 2.76077,2.30249 2.44631,2.25079 3.11358,0.5119 z m -64.98481,-5.06227 c -0.42979,-1.12003 -0.098,-1.35452 1.28139,-0.90567 1.49796,0.48743 1.57505,0.4032 0.39488,-0.43146 -1.02173,-0.7226 -1.87007,-0.70216 -2.79734,0.0674 -1.08629,0.90154 -1.09245,1.25577 -0.0335,1.92749 1.75742,1.11481 1.82092,1.07864 1.1546,-0.65776 z M 635,151.55902 c 0,-0.24254 -0.45,-0.7191 -1,-1.05902 -0.55,-0.33992 -1,-0.14148 -1,0.44098 0,0.58246 0.45,1.05902 1,1.05902 0.55,0 1,-0.19844 1,-0.44098 z M 619.23005,147.75 c -0.55816,-0.6875 -1.23606,-2.15 -1.50644,-3.25 -0.48164,-1.95945 -0.49396,-1.95843 -0.60761,0.05 -0.0638,1.1275 0.424,2.59 1.084,3.25 1.58063,1.58063 2.32459,1.54452 1.03005,-0.05 z M 610,143.19113 c 0,-0.44488 -0.70837,-1.68238 -1.57416,-2.75 -0.86578,-1.06762 -1.28923,-1.37863 -0.94098,-0.69113 0.37293,0.73623 -0.008,1.25 -0.92584,1.25 -0.85746,0 -1.55902,0.675 -1.55902,1.5 0,0.93333 0.94444,1.5 2.5,1.5 1.375,0 2.5,-0.36399 2.5,-0.80887 z m 2.74986,-3.7746 c -0.95295,-0.95296 -2.86349,0.5906 -2.1533,1.7397 0.42212,0.683 0.98146,0.66575 1.69964,-0.0524 0.58876,-0.58876 0.79291,-1.34803 0.45366,-1.68727 z m -17.40722,-2.43828 C 597.48002,135.04153 590.80278,129 586.52491,129 c -2.25149,0 -3.91987,4.81917 -2.33112,6.7335 2.47198,2.97855 8.49347,3.65084 11.14885,1.24475 z m 17.11409,-1.04827 C 611.84841,134.94571 609,135.83844 609,137.01337 c 0,0.43966 0.89494,0.56536 1.98875,0.27932 1.09382,-0.28604 1.75441,-0.89926 1.46798,-1.36271 z m -2.85792,-2.08987 c 0.48564,-0.78577 0.2661,-0.87101 -0.6943,-0.26958 -0.77248,0.48376 -2.19201,0.75 -3.15451,0.59165 -1.72583,-0.28392 -2.34879,0.9057 -1.11852,2.13597 0.75339,0.75339 3.96466,-0.83568 4.96733,-2.45804 z M 624.36163,135.5 c -0.31659,-0.825 -1.00402,-1.5 -1.52764,-1.5 -0.52361,0 -0.66702,-0.46115 -0.31868,-1.02478 0.34834,-0.56362 0.2624,-0.91802 -0.19098,-0.78754 -0.45338,0.13047 -1.94933,-0.36593 -3.32433,-1.10312 -1.60117,-0.85845 -1.06188,-0.051 1.5,2.24592 4.6298,4.15093 4.61981,4.14531 3.86163,2.16952 z m -26.80276,-11.9682 c 1.09342,-0.82702 1.39525,-1.48208 0.69113,-1.5 -0.6875,-0.0175 -1.25,-0.7068 -1.25,-1.5318 0,-0.825 -0.675,-1.5 -1.5,-1.5 -0.83333,0 -1.5,0.88889 -1.5,2 0,1.1 0.5625,2.00689 1.25,2.01531 0.83333,0.0102 0.75,0.33844 -0.25,0.98469 -0.825,0.53316 -1.02351,0.97627 -0.44113,0.98469 0.58238,0.008 1.93238,-0.64538 3,-1.45289 z m -4.87576,-5.7193 c -0.31922,-0.79773 -0.55618,-0.56078 -0.60416,0.60417 -0.0434,1.05416 0.19293,1.64479 0.52522,1.3125 0.33229,-0.3323 0.36781,-1.1948 0.0789,-1.91667 z"
         id="path8" />
      <path
         style="fill:#595cd7"
         d="m 302.24516,407.44516 c -2.67171,-2.67171 -3.26183,-3.82849 -2.39516,-4.69516 2.2683,-2.2683 1.24543,-3.74961 -2.6,-3.76531 -2.78938,-0.0114 -3.36575,-0.26364 -2.25,-0.98469 1.18474,-0.76564 0.96477,-0.97259 -1.04661,-0.98469 -1.40063,-0.008 -3.46042,-0.75677 -4.57731,-1.66301 -1.77962,-1.44397 -1.93324,-2.27855 -1.24248,-6.75 1.3187,-8.5362 3.95241,-19.92337 5.37232,-23.22783 1.03066,-2.3986 1.06986,-3.42118 0.16855,-4.39671 -0.85509,-0.92549 -0.86031,-1.09518 -0.0192,-0.624 1.08029,0.60517 3.31897,-4.72567 8.75751,-20.85376 2.43819,-7.23048 4.86896,-11.78409 6.58723,-12.33997 1.28613,-0.41608 1.30431,-0.24821 0.12756,1.17735 -0.75485,0.91444 -1.13688,1.66262 -0.84895,1.66262 0.28792,0 -0.34089,3.9375 -1.39735,8.75 -1.96918,8.97018 -3.15877,22.96045 -2.01257,23.66885 0.35272,0.21799 1.70141,-0.46207 2.99709,-1.51125 1.29568,-1.04918 1.98081,-1.9076 1.5225,-1.9076 -0.45831,0 0.19594,-0.7209 1.45388,-1.602 3.40887,-2.38766 3.70062,-1.07427 1.18441,5.33183 C 307.08403,375.31315 306,378.56456 306,380.80571 306,383.3456 311.4802,392 313.08853,392 c 0.54585,0 2.25383,0.93257 3.7955,2.07238 1.56695,1.1585 4.96671,2.28254 7.70951,2.54894 5.51738,0.53589 4.7796,1.22487 10.83808,-10.12132 3.87002,-7.2477 7.07823,-11.32349 8.10496,-10.29675 0.32568,0.32567 -0.78682,4.49903 -2.47222,9.27412 -4.02534,11.40464 -3.98076,12.25898 0.68564,13.14003 3.18808,0.60193 7.25122,0.20951 21.75,-2.10061 1.1,-0.17527 3.35,-0.63681 5,-1.02565 l 3,-0.70699 -2.28522,1.6893 c -3.4269,2.53326 -18.74049,9.52648 -20.86213,9.52705 -1.01896,2.8e-4 -4.32765,0.97219 -7.35265,2.15981 -4.56201,1.79104 -8.0334,2.21649 -20.35484,2.49465 l -14.85484,0.33536 z M 343,289.14922 c 0,-3.02022 1.28963,-7.60723 3.59882,-12.80035 0.77065,-1.73312 1.40118,-3.42552 1.40118,-3.7609 0,-2.37689 8.51424,-16.99606 13.71762,-23.55349 5.7767,-7.27994 17.17173,-17.33368 23.89066,-21.07853 2.14045,-1.19299 4.45422,-2.62622 5.14172,-3.18496 0.6875,-0.55873 1.25,-0.68068 1.25,-0.27099 0,0.40969 0.5625,0.31092 1.25,-0.21949 0.6875,-0.5304 4.5125,-1.99193 8.5,-3.24784 5.94898,-1.8737 8.80306,-2.20196 15.9044,-1.82923 7.90832,0.41508 8.8566,0.68932 11,3.18116 1.29008,1.49981 2.3456,3.32508 2.3456,4.05615 0,2.11229 -4.4206,4.47329 -17.11979,9.14353 -6.51089,2.39444 -13.75998,5.3275 -16.10909,6.51791 -8.00029,4.05414 -21.48097,13.91259 -26.88671,19.66231 -7.27022,7.73284 -15.29141,17.16959 -15.79542,18.58294 -0.22606,0.63391 -2.15275,3.51506 -4.28154,6.40256 C 346.3429,292.80572 343,293.83299 343,289.14922 Z M 684.99512,251.41689 C 680.8728,248.34618 676.949,245.1259 676.27556,244.26071 674.91,242.50635 672,233.13225 672,230.48768 c 0,-2.70206 4.33987,-1.05554 8.83729,3.35283 3.66238,3.58987 11.13426,13.62336 11.18657,15.0217 0.0131,0.35079 0.41573,2.32529 0.89469,4.38779 0.47895,2.0625 0.57852,3.75 0.22126,3.75 -0.35727,0 -4.02238,-2.5124 -8.14469,-5.58311 z M 445.27683,203.61973 c -8.86536,-5.65048 -15.04448,-7.12803 -29.51941,-7.05867 -11.06579,0.053 -12.81243,-0.15902 -13.27339,-1.61139 -0.49038,-1.54504 0.33698,-5.29975 4.06545,-18.44967 0.77972,-2.75 1.92078,-6.8819 2.53569,-9.182 0.61491,-2.30009 1.78073,-4.4363 2.59072,-4.74712 1.69852,-0.65179 4.26787,1.58086 4.78939,4.16177 1.01631,5.02959 8.56703,15.26735 11.26022,15.26735 0.56629,0 1.59424,0.68034 2.28435,1.51187 0.69011,0.83153 3.86559,2.90344 7.05663,4.60425 3.19104,1.7008 7.07947,4.50796 8.64096,6.23813 3.79532,4.20529 7.59585,9.64575 6.73821,9.64575 -0.3798,0 -0.13034,0.675 0.55435,1.5 2.29036,2.75972 -2.13276,1.68287 -7.72317,-1.88027 z M 414.65315,115.5385 C 414.0868,114.06263 414.94023,107.67774 416.93059,98.5 418.9285,89.287384 427.7357,70.893238 432.63551,65.699689 434.48598,63.73829 436,61.726676 436,61.229437 c 0,-1.977484 14.9029,-14.451143 17.76788,-14.871632 0.84255,-0.12366 1.82032,-0.691505 2.17283,-1.261877 1.16309,-1.881909 8.78785,-3.995554 11.65115,-3.22979 4.39558,1.175558 5.6192,3.94348 3.59724,8.137213 C 469.09155,54.353875 465.05683,59 463.37637,59 c -0.69463,0 -1.85098,0.821863 -2.56967,1.826362 -0.71868,1.004499 -4.04462,3.816999 -7.39097,6.25 -11.15138,8.107732 -25.13422,25.736912 -31.04339,39.138668 -4.54321,10.30379 -6.45631,12.61449 -7.71919,9.32347 z M 599.5,56.611393 c -1.65,-0.720678 -5.7,-2.59808 -9,-4.172005 -3.3,-1.573924 -6.45,-2.961053 -7,-3.082507 -0.55,-0.121455 -3.475,-0.932892 -6.5,-1.803193 -22.7701,-6.551026 -39.47472,-8.739005 -63.42447,-8.307367 -15.81836,0.28509 -20.91876,-0.867422 -20.37642,-4.604359 1.32862,-9.15466 37.67153,-14.742013 58.80089,-9.04004 18.2353,4.920981 24.96623,7.611132 35.07969,14.020298 11.96952,7.585405 19.58739,14.869073 17.80168,17.020716 -1.35622,1.634147 -1.57063,1.632891 -5.38137,-0.03154 z"
         id="path7" />
      <path
         style="fill:#595baa"
         d="m 492.8125,555.31689 c 0.72187,-0.28887 1.58438,-0.25335 1.91667,0.0789 0.33229,0.33229 -0.25834,0.56864 -1.3125,0.52522 -1.16495,-0.048 -1.4019,-0.28494 -0.60417,-0.60416 z M 503.27236,545 c 0,-2.475 0.19502,-3.4875 0.43337,-2.25 0.23836,1.2375 0.23836,3.2625 0,4.5 -0.23835,1.2375 -0.43337,0.225 -0.43337,-2.25 z m -89.04036,0 c 0,-1.925 0.2058,-2.7125 0.45733,-1.75 0.25152,0.9625 0.25152,2.5375 0,3.5 -0.25153,0.9625 -0.45733,0.175 -0.45733,-1.75 z m 86.17299,-7.25 -1.90499,-2.25 2.25,1.90499 c 2.11444,1.79022 2.70524,2.59501 1.90499,2.59501 -0.18976,0 -1.20226,-1.0125 -2.25,-2.25 z m 123.46745,-0.5 c -1.24387,-1.58606 -1.2085,-1.62143 0.37756,-0.37756 1.66575,1.30637 2.19548,2.12756 1.37244,2.12756 -0.20765,0 -0.99515,-0.7875 -1.75,-1.75 z M 430.8125,534.31689 c 0.72187,-0.28887 1.58438,-0.25335 1.91667,0.0789 0.33229,0.33229 -0.25834,0.56864 -1.3125,0.52522 -1.16495,-0.048 -1.4019,-0.28494 -0.60417,-0.60416 z m 148.81666,-0.1079 c -0.26888,-0.43506 1.05457,-0.61082 2.94099,-0.39059 1.88642,0.22022 3.42985,0.57618 3.42985,0.79101 0,0.75258 -5.88692,0.38257 -6.37084,-0.40042 z m 9.12084,0.12873 c 0.6875,-0.27741 1.8125,-0.27741 2.5,0 0.6875,0.27741 0.125,0.50439 -1.25,0.50439 -1.375,0 -1.9375,-0.22698 -1.25,-0.50439 z m 14.9777,-0.0594 c 1.77523,-0.22091 4.92523,-0.22454 7,-0.008 2.07476,0.21648 0.6223,0.39722 -3.2277,0.40166 -3.85,0.004 -5.54754,-0.17268 -3.7723,-0.39359 z m -25.64875,-4.8616 c 0.048,-1.16495 0.28494,-1.4019 0.60416,-0.60417 0.28887,0.72187 0.25335,1.58438 -0.0789,1.91667 -0.33229,0.33229 -0.56864,-0.25834 -0.52522,-1.3125 z m -1,-13 c 0.048,-1.16495 0.28494,-1.4019 0.60416,-0.60417 0.28887,0.72187 0.25335,1.58438 -0.0789,1.91667 -0.33229,0.33229 -0.56864,-0.25834 -0.52522,-1.3125 z M 550.87244,490.25 c -1.24387,-1.58606 -1.2085,-1.62143 0.37756,-0.37756 0.9625,0.75485 1.75,1.54235 1.75,1.75 0,0.82304 -0.82119,0.29331 -2.12756,-1.37244 z m -10,-6 c -1.24387,-1.58606 -1.2085,-1.62143 0.37756,-0.37756 1.66575,1.30637 2.19548,2.12756 1.37244,2.12756 -0.20765,0 -0.99515,-0.7875 -1.75,-1.75 z m -5,-5 c -1.24387,-1.58606 -1.2085,-1.62143 0.37756,-0.37756 1.66575,1.30637 2.19548,2.12756 1.37244,2.12756 -0.20765,0 -0.99515,-0.7875 -1.75,-1.75 z M 483,477.62244 c 0,-0.20765 0.7875,-0.99515 1.75,-1.75 1.58606,-1.24387 1.62143,-1.2085 0.37756,0.37756 C 483.82119,477.91575 483,478.44548 483,477.62244 Z m 16.8125,-3.30555 c 0.72187,-0.28887 1.58438,-0.25335 1.91667,0.0789 0.33229,0.33229 -0.25834,0.56864 -1.3125,0.52522 -1.16495,-0.048 -1.4019,-0.28494 -0.60417,-0.60416 z m 26,0 c 0.72187,-0.28887 1.58438,-0.25335 1.91667,0.0789 0.33229,0.33229 -0.25834,0.56864 -1.3125,0.52522 -1.16495,-0.048 -1.4019,-0.28494 -0.60417,-0.60416 z M 405,468.5 c 2.98742,-3.025 5.65668,-5.5 5.93168,-5.5 0.275,0 -1.94426,2.475 -4.93168,5.5 -2.98742,3.025 -5.65668,5.5 -5.93168,5.5 -0.275,0 1.94426,-2.475 4.93168,-5.5 z m 83.76166,4.79274 c 1.24391,-0.23919 3.04391,-0.23011 4,0.0202 0.95609,0.25029 -0.0617,0.446 -2.26166,0.4349 -2.2,-0.0111 -2.98225,-0.21589 -1.73834,-0.45508 z M 420,452 c -0.90129,-0.58246 -1.02463,-0.97549 -0.30902,-0.98469 0.65504,-0.008 1.4691,0.43469 1.80902,0.98469 0.7673,1.24153 0.42112,1.24153 -1.5,0 z m 188,-0.39301 c 0,-0.21616 0.69837,-0.661 1.55194,-0.98855 0.88992,-0.34149 1.29132,-0.17385 0.94098,0.39301 C 609.90566,451.96166 608,452.4169 608,451.60699 Z m 22,-15.98455 c 0,-0.20765 0.7875,-0.99515 1.75,-1.75 1.58606,-1.24387 1.62143,-1.2085 0.37756,0.37756 C 630.82119,435.91575 630,436.44548 630,435.62244 Z m 15,-16 c 0,-0.20765 0.7875,-0.99515 1.75,-1.75 1.58606,-1.24387 1.62143,-1.2085 0.37756,0.37756 C 645.82119,419.91575 645,420.44548 645,419.62244 Z m -328.25,-9.28472 c 0.6875,-0.27741 1.8125,-0.27741 2.5,0 0.6875,0.27741 0.125,0.50439 -1.25,0.50439 -1.375,0 -1.9375,-0.22698 -1.25,-0.50439 z m -17.73469,-8.0287 C 299.02373,401.86406 299.46684,400.825 300,400 c 0.8354,-1.29269 0.97149,-1.26629 0.98469,0.19098 0.008,0.93004 -0.43469,1.9691 -0.98469,2.30902 -0.55,0.33992 -0.99311,0.25398 -0.98469,-0.19098 z m 59.06802,0.3139 C 359.10612,401.6973 367,398.01132 367,398.45935 367,399.02779 359.45315,403 358.37317,403 c -0.38858,0 -0.519,-0.16969 -0.28984,-0.37708 z M 339.75,398.31067 c -1.16633,-0.30479 -1.70458,-1.35005 -1.61382,-3.13399 0.1199,-2.3566 0.18801,-2.40762 0.56955,-0.42668 0.37794,1.96219 1.04993,2.25 5.25335,2.25 5.54171,0 18.39881,-2.28605 28.47131,-5.06234 3.81171,-1.05062 7.08336,-1.75725 7.27033,-1.57028 0.40057,0.40058 -6.1085,4.78024 -9.70072,6.52718 -2.4225,1.17808 -2.438,1.16388 -0.5,-0.45813 1.93957,-1.62331 1.90935,-1.65238 -1,-0.96178 -1.65,0.39167 -4.125,0.87232 -5.5,1.06812 -1.375,0.1958 -4.92392,0.82877 -7.88649,1.40661 -5.4111,1.05542 -12.10499,1.21284 -15.36351,0.36129 z M 289.2,396.8 c -0.66,-0.66 -1.19311,-1.6725 -1.18469,-2.25 0.008,-0.5775 0.40026,-0.44256 0.87074,0.29986 0.47048,0.74243 2.37609,1.70886 4.23469,2.14764 l 3.37926,0.79778 -3.05,0.10236 c -1.6775,0.0563 -3.59,-0.43764 -4.25,-1.09764 z m 29.46725,-1.89776 c -1.74199,-0.96987 -4.09,-2.19938 -5.2178,-2.73224 -3.2336,-1.5278 -7.46513,-8.68101 -7.33445,-12.39856 l 0.115,-3.27144 0.70116,3.58745 c 0.38564,1.9731 1.69475,4.98281 2.90913,6.68826 2.30918,3.24294 10.3987,7.74687 15.8411,8.81971 3.10278,0.61164 3.26737,0.45761 6.66105,-6.23414 3.60903,-7.11636 16.27421,-25.96831 18.92297,-28.16659 0.83162,-0.69018 -0.77792,3.91863 -3.57675,10.24182 -2.79883,6.32318 -5.24061,11.34488 -5.42616,11.15932 -0.18556,-0.18556 0.20257,-1.52243 0.8625,-2.97083 0.65993,-1.4484 0.88928,-2.94405 0.50966,-3.32367 -1.12076,-1.12076 -4.20913,2.71895 -8.20304,10.19867 -5.7706,10.80705 -5.46571,10.48427 -9.74479,10.3166 -2.11878,-0.083 -5.2776,-0.94449 -7.01958,-1.91436 z M 287.15437,390 c -0.19916,-8.6204 5.37314,-28.23002 16.33929,-57.5 1.85455,-4.95 3.66291,-10.4625 4.01858,-12.25 0.35567,-1.7875 1.02157,-3.25 1.47979,-3.25 0.76636,0 5.04687,-10.2284 7.00631,-16.74179 l 0.82975,-2.75821 0.0858,3 c 0.0472,1.65 -1.01083,6.55416 -2.35117,10.89813 -1.34035,4.34396 -2.72239,9.58738 -3.07121,11.65202 -0.4204,2.48834 -1.26455,3.91874 -2.50389,4.24283 -1.02832,0.26891 -2.6084,2.2255 -3.51128,4.34798 -1.67507,3.93773 -10.39444,28.04488 -10.79978,29.85904 -0.12289,0.55 -0.72988,2.35 -1.34888,4 -1.24635,3.3223 -3.97801,15.26104 -5.26255,23 -0.70346,4.23817 -0.84223,4.46672 -0.91078,1.5 z M 687,377.5 c 1.29175,-1.375 2.57363,-2.5 2.84863,-2.5 0.275,0 -0.55688,1.125 -1.84863,2.5 -1.29175,1.375 -2.57363,2.5 -2.84863,2.5 -0.275,0 0.55688,-1.125 1.84863,-2.5 z M 308.07458,373 c -0.004,-1.44112 2.8174,-7.16586 2.88998,-5.86481 0.0195,0.34935 -0.62195,2.14935 -1.42542,4 -0.80347,1.85065 -1.46252,2.68981 -1.46456,1.86481 z m 2.95605,-7.5 c 0,-0.55 0.43621,-1.675 0.96937,-2.5 0.53316,-0.825 0.96937,-1.05 0.96937,-0.5 0,0.55 -0.43621,1.675 -0.96937,2.5 -0.53316,0.825 -0.96937,1.05 -0.96937,0.5 z m -6.62521,-3.65303 c -0.40873,-0.66134 -0.27891,-0.88682 0.30339,-0.52694 0.5598,0.34598 5.41597,-5.67103 10.79149,-13.37113 9.34255,-13.38264 12.39953,-17.17281 10.68651,-13.24959 -3.16242,7.24269 -13.13644,26.25453 -12.61752,24.05069 0.35614,-1.5125 0.26124,-2.73569 -0.21088,-2.7182 -1.17433,0.0435 -4.42011,2.56966 -3.94081,3.06708 0.21259,0.22061 -0.66744,1.18929 -1.95561,2.1526 -1.6824,1.25812 -2.54337,1.42586 -3.05657,0.59549 z m -0.32647,-4.4303 c 0.048,-1.16495 0.28494,-1.4019 0.60416,-0.60417 0.28887,0.72187 0.25335,1.58438 -0.0789,1.91667 -0.33229,0.33229 -0.56864,-0.25834 -0.52522,-1.3125 z M 701.08029,355 C 702.5381,351.93897 703,351.37166 703,352.6422 c 0,0.53655 -0.69982,1.84905 -1.55517,2.91667 -1.46637,1.83031 -1.48719,1.7984 -0.36454,-0.55887 z m -396.39916,-4.12892 c 0.93737,-7.82978 2.26898,-10.96006 1.64675,-3.87108 -0.3138,3.575 -0.93043,6.89199 -1.37029,7.37108 -0.43987,0.4791 -0.56427,-1.0959 -0.27646,-3.5 z M 307.15789,338 c 0,-1.375 0.22698,-1.9375 0.50439,-1.25 0.27741,0.6875 0.27741,1.8125 0,2.5 -0.27741,0.6875 -0.50439,0.125 -0.50439,-1.25 z m 1.1427,-5.82602 c 0.075,-1.82932 0.48809,-3.54337 0.91791,-3.80902 0.95459,-0.58997 0.85885,1.28958 -0.23609,4.63504 -0.74545,2.27761 -0.8061,2.20413 -0.68182,-0.82602 z M 712.232,304 c 0,-1.925 0.2058,-2.7125 0.45733,-1.75 0.25152,0.9625 0.25152,2.5375 0,3.5 -0.25153,0.9625 -0.45733,0.175 -0.45733,-1.75 z m -0.0371,-6.5 c 0.0204,-1.65 0.2445,-2.20394 0.49804,-1.23097 0.25354,0.97297 0.23687,2.32297 -0.0371,3 -0.27393,0.67703 -0.48137,-0.11903 -0.46099,-1.76903 z m -369.52828,-5.16667 c -2.50497,-2.50497 1.61012,-16.69143 8.47913,-29.23113 12.37076,-22.58342 28.71545,-36.75004 49.8542,-43.21071 14.83307,-4.53345 30.04583,-2.3524 30.82226,4.41898 0.17724,1.54576 -0.27276,3.53102 -1,4.41169 -1.42199,1.722 -11.08702,6.31321 -13.10077,6.22331 -0.67182,-0.03 0.92689,-0.92675 3.5527,-1.9928 C 427.5226,230.41589 431,228.0876 431,226.44075 c 0,-0.73107 -1.05552,-2.55634 -2.3456,-4.05615 -2.1434,-2.49184 -3.09168,-2.76608 -11,-3.18116 -7.10134,-0.37273 -9.95542,-0.0445 -15.9044,1.82923 -3.9875,1.25591 -7.8125,2.71744 -8.5,3.24784 -0.6875,0.53041 -1.25,0.62918 -1.25,0.21949 0,-0.40969 -0.5625,-0.28774 -1.25,0.27099 -0.6875,0.55874 -3.00127,1.99197 -5.14172,3.18496 -6.71893,3.74485 -18.11396,13.79859 -23.89066,21.07853 C 356.51424,255.59191 348,270.21108 348,272.58797 c 0,0.33538 -0.63053,2.02778 -1.40118,3.7609 -3.97955,8.94961 -4.70529,15.21533 -1.84882,15.9618 1.40212,0.36642 1.43525,0.48039 0.16667,0.57333 -0.87084,0.0638 -1.88334,-0.184 -2.25,-0.55067 z M 319.03063,291.5 c 0,-0.55 0.43621,-1.675 0.96937,-2.5 0.53316,-0.825 0.96937,-1.05 0.96937,-0.5 0,0.55 -0.43621,1.675 -0.96937,2.5 -0.53316,0.825 -0.96937,1.05 -0.96937,0.5 z m 31.48991,-4.3957 c 2.01689,-2.80737 3.87148,-5.1043 4.12131,-5.1043 0.68728,0 -5.51106,8.80113 -6.72806,9.55328 -0.58318,0.36042 0.58986,-1.64162 2.60675,-4.44898 z M 322,285 c 0.5887,-1.1 1.29537,-2 1.57037,-2 0.275,0 0.0183,0.9 -0.57037,2 -0.5887,1.1 -1.29537,2 -1.57037,2 -0.275,0 -0.0183,-0.9 0.57037,-2 z m 33.03596,-4.35564 c -0.0198,-0.47061 1.08904,-2.19263 2.46404,-3.82673 1.375,-1.63409 2.49776,-2.59905 2.49503,-2.14436 -0.007,1.13231 -4.9141,7.04105 -4.95907,5.97109 z M 363,270.5 c 1.29175,-1.375 2.57363,-2.5 2.84863,-2.5 0.275,0 -0.55688,1.125 -1.84863,2.5 -1.29175,1.375 -2.57363,2.5 -2.84863,2.5 -0.275,0 0.55688,-1.125 1.84863,-2.5 z m 7.91654,-8.73222 c 2.9791,-3.11737 7.4791,-7.07784 10,-8.80106 l 4.58346,-3.13312 -4,3.32067 c -2.2,1.82636 -6.7,5.78684 -10,8.80106 l -6,5.48039 z m 320.02487,-4.47069 c -2.99278,-3.10938 -3.94438,-4.44825 -2.11468,-2.97526 4.4298,3.5662 5.12649,3.38371 4.09182,-1.07183 -0.47896,-2.0625 -0.88157,-4.037 -0.89469,-4.38779 -0.0523,-1.39834 -7.52419,-11.43183 -11.18657,-15.0217 -2.14151,-2.0991 -5.00597,-4.09573 -6.36547,-4.43694 -2.09035,-0.52464 -2.4872,-0.25642 -2.5715,1.73802 L 671.80064,233.5 671,231 c -1.90836,-5.95884 -1.42113,-6.35403 4.11735,-3.33961 6.33741,3.44925 12.85697,10.77203 16.70508,18.76319 2.75368,5.71841 5.69342,15.3939 4.914,16.17332 -0.19449,0.19449 -2.80225,-2.19042 -5.79502,-5.29981 z m -11.20551,-8.61096 c -4.0324,-2.69679 -5.00652,-4.00384 -6.34251,-8.51028 -0.86813,-2.92829 -1.36955,-5.53302 -1.11427,-5.78831 0.25529,-0.25528 0.98746,1.61408 1.62706,4.15415 1.15541,4.58855 2.98384,6.94846 8.64103,11.15275 4.396,3.26701 2.63931,2.63695 -2.81131,-1.00831 z M 392,245.37528 c 0,-0.67306 14.99616,-7.71269 15.45328,-7.25422 0.20781,0.20842 -3.18417,2.0325 -7.53772,4.05351 C 395.562,244.19558 392,245.6359 392,245.37528 Z m 18,-8.20657 c 0.825,-0.50973 2.625,-1.2277 4,-1.5955 1.73748,-0.46475 2.04249,-0.38603 1,0.25808 -0.825,0.50973 -2.625,1.2277 -4,1.5955 -1.73748,0.46475 -2.04249,0.38603 -1,-0.25808 z M 690.87244,230.25 c -1.24387,-1.58606 -1.2085,-1.62143 0.37756,-0.37756 1.66575,1.30637 2.19548,2.12756 1.37244,2.12756 -0.20765,0 -0.99515,-0.7875 -1.75,-1.75 z m -330.91423,-3.5 c 2.45201,-2.6125 4.58951,-4.75 4.75,-4.75 0.75088,0 -0.043,0.89783 -4.45821,5.04179 L 355.5,231.5 Z M 452.25,208.87242 c -3.95642,-2.5185 -4.00972,-2.73943 -0.5,-2.07255 2.46882,0.4691 2.60967,0.35267 1.37756,-1.13867 -0.75485,-0.91366 -1.06171,-1.6612 -0.68191,-1.6612 0.85764,0 -2.94289,-5.44046 -6.73821,-9.64575 -1.56149,-1.73017 -5.44992,-4.53733 -8.64096,-6.23813 -3.19104,-1.70081 -6.36652,-3.77272 -7.05663,-4.60425 C 429.31974,182.68034 428.29179,182 427.7255,182 c -2.69319,0 -10.24391,-10.23776 -11.26022,-15.26735 -0.51768,-2.56188 -3.08626,-4.81532 -4.75767,-4.17394 -0.79255,0.30413 -2.25398,3.55635 -3.24762,7.22717 -0.99364,3.67082 -1.95178,6.23319 -2.12919,5.69417 -0.63735,-1.93649 3.35155,-13.8771 4.97868,-14.90347 2.1989,-1.38703 4.81136,1.37809 7.02531,7.43584 2.53748,6.94301 6.92122,11.43093 16.96322,17.36632 5.06109,2.9914 10.60584,6.94243 12.32165,8.78008 4.28708,4.5915 8.59628,12.3523 8.20455,14.77628 -0.32296,1.99841 -0.33673,1.99817 -3.57421,-0.0627 z m 212.40727,-4.27919 c -0.4622,-3.24873 -1.03077,-6.62373 -1.26349,-7.5 -0.23272,-0.87628 0.28172,-0.0769 1.1432,1.77634 0.86669,1.86446 1.43106,5.21452 1.26349,7.5 -0.29173,3.97882 -0.33369,3.91361 -1.1432,-1.77634 z M 442.5,202.95778 c -2.75,-1.6178 -4.58954,-2.94513 -4.08786,-2.94962 1.10366,-0.01 9.58786,4.8871 9.58786,5.53399 0,0.65242 0.0101,0.65716 -5.5,-2.58437 z M 433.5,199 c -1.31874,-0.56668 -1.48906,-0.87815 -0.5,-0.9144 0.825,-0.0302 2.175,0.38124 3,0.9144 1.82797,1.18132 0.24909,1.18132 -2.5,0 z m -31.3,-2.2 c -1.83088,-1.83088 -1.44966,-5.71945 1.30929,-13.35521 2.68447,-7.42962 2.71454,-5.66108 0.067,3.94382 -2.01814,7.32168 -1.51991,9.11408 2.62114,9.42961 C 410.61785,197.15504 411.09631,198 406.86667,198 404.96,198 402.86,197.46 402.2,196.8 Z m 26.6125,0.51689 c 0.72187,-0.28887 1.58438,-0.25335 1.91667,0.0789 0.33229,0.33229 -0.25834,0.56864 -1.3125,0.52522 -1.16495,-0.048 -1.4019,-0.28494 -0.60417,-0.60416 z m -14.0625,-1.0491 c 2.3375,-0.21053 6.1625,-0.21053 8.5,0 2.3375,0.21054 0.425,0.3828 -4.25,0.3828 -4.675,0 -6.5875,-0.17226 -4.25,-0.3828 z M 662.15789,188 c 0,-1.375 0.22698,-1.9375 0.50439,-1.25 0.27741,0.6875 0.27741,1.8125 0,2.5 -0.27741,0.6875 -0.50439,0.125 -0.50439,-1.25 z m -1,-10 c 0,-1.375 0.22698,-1.9375 0.50439,-1.25 0.27741,0.6875 0.27741,1.8125 0,2.5 -0.27741,0.6875 -0.50439,0.125 -0.50439,-1.25 z m -1.07894,-9.58333 c 0.048,-1.16495 0.28494,-1.4019 0.60416,-0.60417 0.28887,0.72187 0.25335,1.58437 -0.0789,1.91667 -0.33229,0.33229 -0.56864,-0.25834 -0.52522,-1.3125 z m -274,-2 c 0.048,-1.16495 0.28494,-1.4019 0.60416,-0.60417 0.28887,0.72187 0.25335,1.58437 -0.0789,1.91667 -0.33229,0.33229 -0.56864,-0.25834 -0.52522,-1.3125 z M 387.25218,157.5 c 0.0111,-2.2 0.21589,-2.98225 0.45508,-1.73834 0.23919,1.24391 0.23011,3.04391 -0.0202,4 -0.25029,0.95609 -0.446,-0.0617 -0.4349,-2.26166 z m 0.94277,-7 c 0.0204,-1.65 0.2445,-2.20394 0.49804,-1.23097 0.25354,0.97297 0.23687,2.32297 -0.0371,3 -0.27393,0.67703 -0.48137,-0.11903 -0.46099,-1.76903 z m 93.75122,-3.25 -3.44617,-3.75 3.75,3.44617 c 2.0625,1.89539 3.75,3.58289 3.75,3.75 0,0.76362 -0.84622,0.0443 -4.05383,-3.44617 z m 27.31758,-2.96758 c 1.52006,-0.22986 3.77006,-0.22371 5,0.0136 1.22994,0.23736 -0.0137,0.42542 -2.76375,0.41792 -2.75,-0.008 -3.75631,-0.20172 -2.23625,-0.43157 z M 522,141.62244 c 0,-0.20765 0.7875,-0.99515 1.75,-1.75 1.58606,-1.24387 1.62143,-1.2085 0.37756,0.37756 C 522.82119,141.91575 522,142.44548 522,141.62244 Z M 496.87244,139.25 c -1.24387,-1.58606 -1.2085,-1.62143 0.37756,-0.37756 1.66575,1.30637 2.19548,2.12756 1.37244,2.12756 -0.20765,0 -0.99515,-0.7875 -1.75,-1.75 z m 159.20651,-4.83333 c 0.048,-1.16495 0.28494,-1.4019 0.60416,-0.60417 0.28887,0.72187 0.25335,1.58437 -0.0789,1.91667 -0.33229,0.33229 -0.56864,-0.25834 -0.52522,-1.3125 z M 473.15789,129 c 0,-1.375 0.22698,-1.9375 0.50439,-1.25 0.27741,0.6875 0.27741,1.8125 0,2.5 -0.27741,0.6875 -0.50439,0.125 -0.50439,-1.25 z m 56.92106,0.41667 c 0.048,-1.16495 0.28494,-1.4019 0.60416,-0.60417 0.28887,0.72187 0.25335,1.58437 -0.0789,1.91667 -0.33229,0.33229 -0.56864,-0.25834 -0.52522,-1.3125 z M 655.15789,128 c 0,-1.375 0.22698,-1.9375 0.50439,-1.25 0.27741,0.6875 0.27741,1.8125 0,2.5 -0.27741,0.6875 -0.50439,0.125 -0.50439,-1.25 z m -163.87188,-3.5 c 0.008,-2.75 0.20172,-3.75631 0.43157,-2.23625 0.22986,1.52006 0.22371,3.77006 -0.0136,5 -0.23736,1.22994 -0.42542,-0.0138 -0.41792,-2.76375 z m 44.87188,-0.5 c 0,-1.375 0.22698,-1.9375 0.50439,-1.25 0.27741,0.6875 0.27741,1.8125 0,2.5 -0.27741,0.6875 -0.50439,0.125 -0.50439,-1.25 z m 112,0 c 0,-1.375 0.22698,-1.9375 0.50439,-1.25 0.27741,0.6875 0.27741,1.8125 0,2.5 -0.27741,0.6875 -0.50439,0.125 -0.50439,-1.25 z m -124.87216,-3.30055 c 1.21785,-1.26531 2.39901,-2.16807 2.62481,-2.00613 0.58355,0.4185 -3.05464,4.30668 -4.02979,4.30668 -0.44511,0 0.18714,-1.03525 1.40498,-2.30055 z M 473.15789,120 c 0,-1.375 0.22698,-1.9375 0.50439,-1.25 0.27741,0.6875 0.27741,1.8125 0,2.5 -0.27741,0.6875 -0.50439,0.125 -0.50439,-1.25 z m 169.12812,-3.5 c 0.008,-2.75 0.20172,-3.75631 0.43157,-2.23625 0.22986,1.52006 0.22371,3.77006 -0.0136,5 -0.23736,1.22994 -0.42542,-0.0138 -0.41792,-2.76375 z m -26.20706,1.91667 c 0.048,-1.16495 0.28494,-1.4019 0.60416,-0.60417 0.28887,0.72187 0.25335,1.58437 -0.0789,1.91667 -0.33229,0.33229 -0.56864,-0.25834 -0.52522,-1.3125 z M 413.62583,117.4673 c -0.34421,-0.89698 -0.59537,-2.38157 -0.55815,-3.29909 0.0504,-1.2413 0.34538,-1.09241 1.15281,0.58179 0.59683,1.2375 1.41462,2.25 1.81731,2.25 1.05388,0 3.16097,-3.58746 6.33454,-10.78497 5.90917,-13.401756 19.89201,-31.030936 31.04339,-39.138668 3.34635,-2.433001 6.67229,-5.245501 7.39097,-6.25 C 461.52539,59.821863 462.68174,59 463.37637,59 c 1.68046,0 5.71518,-4.646125 7.81273,-8.996649 2.02196,-4.193733 0.79834,-6.961655 -3.59724,-8.137213 -2.8633,-0.765764 -10.48806,1.347881 -11.65115,3.22979 -0.35251,0.570372 -1.33028,1.138217 -2.17283,1.261877 C 450.9029,46.778294 436,59.251953 436,61.229437 c 0,0.497239 -1.51402,2.508853 -3.36449,4.470252 -3.00561,3.18579 -6.59104,9.632581 -12.12442,21.800311 -1.00047,2.2 -2.6319,7.15 -3.6254,11 -1.32091,5.11878 -1.65311,5.79064 -1.23612,2.5 1.22519,-9.668267 7.38299,-23.982265 14.84358,-34.504363 6.08682,-8.584585 17.98295,-19.482419 25.02014,-22.9205 7.29971,-3.566342 14.93743,-4.046811 17.10951,-1.076315 3.84273,5.255246 0.17977,10.73467 -15.02001,22.468454 -16.63312,12.840286 -24.45593,22.372438 -34.07806,41.524364 -5.82256,11.58925 -8.51702,14.5768 -9.8989,10.97566 z M 648.19495,115.5 c 0.0204,-1.65 0.2445,-2.20394 0.49804,-1.23097 0.25354,0.97297 0.23687,2.32297 -0.0371,3 -0.27393,0.67703 -0.48137,-0.11903 -0.46099,-1.76903 z m 4.884,-1.08333 c 0.048,-1.16495 0.28494,-1.4019 0.60416,-0.60417 0.28887,0.72187 0.25335,1.58437 -0.0789,1.91667 -0.33229,0.33229 -0.56864,-0.25834 -0.52522,-1.3125 z M 526.58333,112.25 c -0.4125,-0.4125 -1.2321,-0.75 -1.82133,-0.75 -0.58924,0 -1.19391,-0.8351 -1.34371,-1.85577 -0.24256,-1.65266 -0.007,-1.60622 2.15467,0.42431 1.33487,1.25405 2.42704,2.42665 2.42704,2.60577 0,0.55122 -0.62976,0.36259 -1.41667,-0.42431 z M 414.232,109 c 0,-1.925 0.2058,-2.7125 0.45733,-1.75 0.25152,0.9625 0.25152,2.5375 0,3.5 -0.25153,0.9625 -0.45733,0.175 -0.45733,-1.75 z m 213.96295,-1.5 c 0.0204,-1.65 0.2445,-2.20394 0.49804,-1.23097 0.25354,0.97297 0.23687,2.32297 -0.0371,3 -0.27393,0.67703 -0.48137,-0.11903 -0.46099,-1.76903 z m 9.96294,0.5 c 0,-1.375 0.22698,-1.9375 0.50439,-1.25 0.27741,0.6875 0.27741,1.8125 0,2.5 -0.27741,0.6875 -0.50439,0.125 -0.50439,-1.25 z M 507.8125,104.31689 c 0.72187,-0.28887 1.58438,-0.25335 1.91667,0.0789 0.33229,0.3323 -0.25834,0.56864 -1.3125,0.52522 -1.16495,-0.048 -1.4019,-0.28494 -0.60417,-0.60416 z m 105.26645,-0.90022 c 0.048,-1.16495 0.28494,-1.4019 0.60416,-0.60417 0.28887,0.72187 0.25335,1.58437 -0.0789,1.91667 -0.33229,0.33229 -0.56864,-0.25834 -0.52522,-1.3125 z M 483,100.62244 c 0,-0.20765 0.7875,-0.995151 1.75,-1.749995 1.58606,-1.243871 1.62143,-1.208501 0.37756,0.377555 C 483.82119,100.91575 483,101.44548 483,100.62244 Z M 619.5,89 c 0.99549,-1.1 2.03498,-2 2.30998,-2 0.275,0 -0.31449,0.9 -1.30998,2 -0.99549,1.1 -2.03498,2 -2.30998,2 -0.275,0 0.31449,-0.9 1.30998,-2 z M 633.87244,67.25 C 632.62857,65.663944 632.66394,65.628574 634.25,66.872445 635.91575,68.178814 636.44548,69 635.62244,69 c -0.20765,0 -0.99515,-0.7875 -1.75,-1.75 z m -5,-7 C 627.62857,58.663944 627.66394,58.628574 629.25,59.872445 630.91575,61.178814 631.44548,62 630.62244,62 c -0.20765,0 -0.99515,-0.7875 -1.75,-1.75 z M 418,60.622445 c 0,-0.207656 0.7875,-0.995156 1.75,-1.75 1.58606,-1.243871 1.62143,-1.208501 0.37756,0.377555 C 418.82119,60.915748 418,61.445479 418,60.622445 Z M 601.99738,58.504164 C 593.92021,55.483145 577.46216,48.730905 577,48.248497 c -0.46602,-0.486441 0.99616,-0.246348 6.85203,1.125113 1.29361,0.302969 2.86861,0.963534 3.5,1.467921 0.63138,0.504388 4.46618,2.362106 8.52176,4.128262 6.35169,2.766078 7.5696,3.015389 8.78638,1.798604 C 608.54964,52.87893 583.64698,35.178741 567.07969,30.057125 561.81086,28.428319 555.25,26.426902 552.5,25.609532 c -8.30712,-2.469086 -2.66578,-1.782854 7.30642,0.888778 10.99678,2.946124 21.50065,7.627018 30.31547,13.50964 C 598.82683,45.817241 607,53.879402 607,56.656823 c 0,3.03672 -0.91713,3.375393 -5.00262,1.847341 z M 429,48.5 c 1.86578,-1.925 3.61733,-3.5 3.89233,-3.5 0.275,0 -1.02655,1.575 -2.89233,3.5 -1.86578,1.925 -3.61733,3.5 -3.89233,3.5 -0.275,0 1.02655,-1.575 2.89233,-3.5 z m 136.5,-3.122329 c -4.4,-1.304188 -6.29391,-2.123817 -4.20869,-1.821399 4.21901,0.611883 16.07067,4.258785 13.70869,4.218337 -0.825,-0.01413 -5.1,-1.09275 -9.5,-2.396938 z m -11.75,-3.039952 c 0.6875,-0.277412 1.8125,-0.277412 2.5,0 0.6875,0.277413 0.125,0.504386 -1.25,0.504386 -1.375,0 -1.9375,-0.226973 -1.25,-0.504386 z M 541.5,41 l -5,-0.685793 5,-0.03879 c 2.75,-0.02133 6.35,0.304727 8,0.724581 l 3,0.76337 -3,-0.03879 C 547.85,41.703248 544.25,41.377186 541.5,41 Z m 67.37244,-1.75 c -1.24387,-1.586056 -1.2085,-1.621426 0.37756,-0.377555 0.9625,0.754844 1.75,1.542344 1.75,1.75 0,0.823034 -0.82119,0.293303 -2.12756,-1.372445 z M 494,38.710226 c -3.8626,-1.947198 -3.70583,-5.070083 0.41221,-8.211059 3.44882,-2.63055 14.12764,-6.569442 17.42688,-6.427925 0.9135,0.03918 -1.03909,0.853144 -4.33909,1.808802 -16.44845,4.763358 -19.53313,11.66775 -6,13.429705 2.44921,0.318877 2.26562,0.415389 -1,0.525677 -2.2,0.0743 -5.125,-0.43204 -6.5,-1.1252 z m 23.28651,0.549696 c 3.18258,-0.19905 8.13258,-0.197204 11,0.0041 2.86742,0.201306 0.26349,0.364165 -5.78651,0.361909 -6.05,-0.0023 -8.39607,-0.166961 -5.21349,-0.366011 z m 79.15462,-8.815088 c -1.86402,-1.493392 -1.85176,-1.511856 0.30887,-0.464816 1.2375,0.599692 2.25,1.299517 2.25,1.555166 0,0.76522 -0.51861,0.544238 -2.55887,-1.09035 z M 517.5,22.85033 c 4.9164,-0.903475 17.27142,-0.906492 24,-0.0059 3.0413,0.407083 -1.46371,0.683297 -11.5,0.705095 -9.88588,0.02147 -14.89658,-0.258821 -12.5,-0.699235 z M 582,23 c -0.825,-0.533156 -1.05,-0.969374 -0.5,-0.969374 0.55,0 1.675,0.436218 2.5,0.969374 0.825,0.533156 1.05,0.969374 0.5,0.969374 -0.55,0 -1.675,-0.436218 -2.5,-0.969374 z m -97.5,-7.536115 c 1.65,-0.755522 3.675,-1.359739 4.5,-1.342703 0.825,0.01704 -0.075,0.637504 -2,1.378818 -4.5657,1.758243 -6.36206,1.732293 -2.5,-0.03612 z"
         id="path6" />
      <path
         style="fill:#e76a07"
         d="M 568.25,168.10089 C 560.9625,160.97057 555,154.87359 555,154.55204 c 0,-0.32154 7.38034,-0.4648 16.40075,-0.31833 9.02041,0.14646 16.19385,0.60379 15.94098,1.01629 -0.25287,0.4125 0.85632,0.75 2.46486,0.75 5.80092,0 38.59313,8.41576 41.01123,10.52508 0.49676,0.43332 -15.91627,6.60663 -17.97801,6.76194 -1.01189,0.0762 -1.83981,0.42604 -1.83981,0.77736 0,0.69816 -12.577,4.40862 -15,4.4253 -0.825,0.006 -2.07407,0.38153 -2.77571,0.83523 -0.70164,0.45369 -3.62664,1.03084 -6.5,1.28255 L 581.5,181.06511 Z m 69.15432,-3.71214 c 0.49922,-1.30094 0.13979,-1.49114 -1.86638,-0.98763 -1.95045,0.48953 -2.35988,0.29845 -1.90431,-0.88875 0.70341,-1.83306 2.95635,-1.97976 4.02923,-0.26237 1.20224,1.92445 1.2712,3.75 0.14167,3.75 -0.56018,0 -0.74028,-0.72506 -0.40021,-1.61125 z M 631,161.10699 c 0,-0.49116 0.73865,-1.17646 1.64144,-1.52289 1.37248,-0.52667 1.43434,-0.38034 0.37756,0.89301 -1.44013,1.73524 -2.019,1.91584 -2.019,0.62988 z m -3.7715,-6.06796 c -1.24932,-1.04193 -1.85897,-2.14938 -1.35478,-2.46098 0.50419,-0.31161 1.19266,0.15254 1.52992,1.03145 0.33794,0.88065 1.25993,1.34984 2.05386,1.04518 0.96009,-0.36842 1.25516,-0.0695 0.88458,0.89625 -0.66727,1.73889 -0.35281,1.79059 -3.11358,-0.5119 z m -63.02583,-3.89261 c -1.05892,-0.67172 -1.05276,-1.02595 0.0335,-1.92749 0.92727,-0.76956 1.77561,-0.79 2.79734,-0.0674 1.18017,0.83466 1.10308,0.91889 -0.39488,0.43146 -1.37941,-0.44885 -1.71118,-0.21436 -1.28139,0.90567 0.66632,1.7364 0.60282,1.77257 -1.1546,0.65776 z M 633,150.94098 c 0,-0.58246 0.45,-0.7809 1,-0.44098 0.55,0.33992 1,0.81648 1,1.05902 0,0.24254 -0.45,0.44098 -1,0.44098 -0.55,0 -1,-0.47656 -1,-1.05902 z M 618.2,147.8 c -0.66,-0.66 -1.1478,-2.1225 -1.084,-3.25 0.11365,-2.00843 0.12597,-2.00945 0.60761,-0.05 0.27038,1.1 0.94828,2.5625 1.50644,3.25 1.29454,1.59452 0.55058,1.63063 -1.03005,0.05 z M 605,142.5 c 0,-0.825 0.70156,-1.5 1.55902,-1.5 0.91824,0 1.29877,-0.51377 0.92584,-1.25 -0.34825,-0.6875 0.0752,-0.37649 0.94098,0.69113 C 610.62002,143.14682 610.39807,144 607.5,144 c -1.55556,0 -2.5,-0.56667 -2.5,-1.5 z m 5.59656,-1.34377 c -0.34605,-0.55992 -0.1419,-1.31919 0.45366,-1.68727 1.53748,-0.95021 2.52947,0.35135 1.24598,1.63484 -0.71818,0.71818 -1.27752,0.73543 -1.69964,0.0524 z M 609,137.01337 c 0,-1.17493 2.84841,-2.06766 3.45673,-1.08339 0.28643,0.46345 -0.37416,1.07667 -1.46798,1.36271 C 609.89494,137.57873 609,137.45303 609,137.01337 Z m -4.36852,-0.71522 c -1.23027,-1.23027 -0.60731,-2.41989 1.11852,-2.13597 0.9625,0.15835 2.38203,-0.10789 3.15451,-0.59165 0.9604,-0.60143 1.17994,-0.51619 0.6943,0.26958 -1.00267,1.62236 -4.21394,3.21143 -4.96733,2.45804 z M 620.5,133.33048 c -2.56188,-2.29689 -3.10117,-3.10437 -1.5,-2.24592 1.375,0.73719 2.87095,1.23359 3.32433,1.10312 0.45338,-0.13048 0.53932,0.22392 0.19098,0.78754 -0.34834,0.56363 -0.20493,1.02478 0.31868,1.02478 0.52362,0 1.21105,0.675 1.52764,1.5 0.75818,1.97579 0.76817,1.98141 -3.86163,-2.16952 z M 592.87244,132.25 c -1.24387,-1.58606 -1.2085,-1.62143 0.37756,-0.37756 0.9625,0.75485 1.75,1.54235 1.75,1.75 0,0.82304 -0.82119,0.29331 -2.12756,-1.37244 z m -8.05448,-2.46796 c 0.53328,-0.53328 1.8049,-0.79255 2.82582,-0.57615 1.37482,0.29142 1.12336,0.54288 -0.9696,0.96961 -1.82482,0.37205 -2.48236,0.23268 -1.85622,-0.39346 z M 595,124 c 1,-0.64625 1.08333,-0.97448 0.25,-0.98469 C 594.5625,123.00689 594,122.1 594,121 c 0,-1.11111 0.66667,-2 1.5,-2 0.825,0 1.5,0.675 1.5,1.5 0,0.825 0.5625,1.51431 1.25,1.5318 0.70412,0.0179 0.40229,0.67298 -0.69113,1.5 -1.06762,0.80751 -2.41762,1.46131 -3,1.45289 C 593.97649,124.97627 594.175,124.53316 595,124 Z m -2.92105,-5.58333 c 0.048,-1.16495 0.28494,-1.4019 0.60416,-0.60417 0.28887,0.72187 0.25335,1.58437 -0.0789,1.91667 -0.33229,0.33229 -0.56864,-0.25834 -0.52522,-1.3125 z"
         id="path5" />
      <path
         style="fill:#323235"
         d="m 419.63437,554.07352 c -3.25459,-2.21531 -4.12759,-4.14128 -4.20828,-9.2841 -0.0494,-3.14899 0.38598,-4.88706 1.31338,-5.24294 0.76301,-0.29279 1.14788,-0.91973 0.85527,-1.39319 C 416.44657,536.29551 422.57516,535 432.51187,535 c 12.92692,0 13.06547,-0.15336 12.06859,-13.35878 -0.37384,-4.95226 -0.36967,-14.30473 0.009,-20.78326 0.6784,-11.59823 0.72141,-11.76138 2.79963,-10.62126 1.16085,0.63685 5.82194,1.18162 10.35798,1.2106 l 8.24734,0.0527 0.003,21.75 L 466,535 h 15.42327 c 15.13376,0 15.48103,0.0486 18.5,2.58889 2.63005,2.21304 3.07673,3.26959 3.07673,7.2775 0,6.47997 -1.89613,8.77833 -8.25824,10.01007 -3.03795,0.58817 -19.47999,0.93811 -39.10739,0.83235 -27.74619,-0.14951 -34.25131,-0.44501 -36,-1.63529 z M 534,554.68908 c -2.38519,-1.07816 -5.91362,-4.32505 -6.07697,-5.59209 -0.44324,-3.43804 -0.27466,-7.09712 0.32697,-7.09706 0.4125,4e-5 0.75,-0.92289 0.75,-2.05096 C 529,536.55405 534.50674,535 546.53661,535 h 10.60084 l -0.642,-7.75 c -0.3531,-4.2625 -0.79352,-9.775 -0.97872,-12.25 -0.49944,-6.6747 -2.47894,-22.30974 -3.00984,-23.77314 -0.34897,-0.96191 0.005,-1.02303 1.44987,-0.25 2.79727,1.49705 11.15247,1.2487 16.04324,-0.47686 2.3383,-0.825 4.33579,-1.5 4.43887,-1.5 0.10307,0 0.28901,2.1375 0.41319,4.75 0.12418,2.6125 0.88327,9.83555 1.68686,16.05122 0.8036,6.21567 1.46108,13.27387 1.46108,15.6849 0,2.41102 0.43886,5.53798 0.97525,6.94878 L 579.9505,535 h 20.47323 20.47323 l 2.73651,2.53612 c 2.3323,2.1615 2.70109,3.2324 2.49672,7.25 -0.3104,6.10172 -2.23008,8.9125 -6.87752,10.06999 -5.58259,1.3904 -82.13903,1.24041 -85.25267,-0.16703 z m -64,-66.06664 c 0,-0.20765 0.7875,-0.99515 1.75,-1.75 1.58606,-1.24387 1.62143,-1.2085 0.37756,0.37756 C 470.82119,488.91575 470,489.44548 470,488.62244 Z M 442,487 c -0.90129,-0.58246 -1.02463,-0.97549 -0.30902,-0.98469 0.65504,-0.008 1.4691,0.43469 1.80902,0.98469 0.7673,1.24153 0.42112,1.24153 -1.5,0 z m -104.25,-3.66228 c 0.6875,-0.27741 1.8125,-0.27741 2.5,0 0.6875,0.27741 0.125,0.50439 -1.25,0.50439 -1.375,0 -1.9375,-0.22698 -1.25,-0.50439 z M 584.5,481 c 0.99549,-1.1 2.03498,-2 2.30998,-2 0.275,0 -0.31449,0.9 -1.30998,2 -0.99549,1.1 -2.03498,2 -2.30998,2 -0.275,0 0.31449,-0.9 1.30998,-2 z m -207.25,0.31067 c 0.9625,-0.25152 2.5375,-0.25152 3.5,0 0.9625,0.25153 0.175,0.45733 -1.75,0.45733 -1.925,0 -2.7125,-0.2058 -1.75,-0.45733 z m -5.4375,-0.99378 c 0.72187,-0.28887 1.58438,-0.25335 1.91667,0.0789 0.33229,0.33229 -0.25834,0.56864 -1.3125,0.52522 -1.16495,-0.048 -1.4019,-0.28494 -0.60417,-0.60416 z m 13,0 c 0.72187,-0.28887 1.58438,-0.25335 1.91667,0.0789 0.33229,0.33229 -0.25834,0.56864 -1.3125,0.52522 -1.16495,-0.048 -1.4019,-0.28494 -0.60417,-0.60416 z M 432,479.5 c -0.71755,-0.86459 -0.81474,-1.5 -0.22943,-1.5 0.5585,0 1.27447,0.675 1.59106,1.5 0.31658,0.825 0.41982,1.5 0.22943,1.5 -0.19039,0 -0.90637,-0.675 -1.59106,-1.5 z m -3.019,-4.02289 c -1.05678,-1.27335 -0.99492,-1.41968 0.37756,-0.89301 0.90279,0.34643 1.64144,1.03173 1.64144,1.52289 0,1.28596 -0.57887,1.10536 -2.019,-0.62988 z m 103.15822,-0.51038 C 530.84078,473.88503 530.20854,473 530.73423,473 c 0.52569,0 1.77028,0.9 2.76577,2 2.28688,2.52697 1.69506,2.5125 -1.36078,-0.0333 z m -9.32672,-0.64984 c 0.72187,-0.28887 1.58438,-0.25335 1.91667,0.0789 0.33229,0.33229 -0.25834,0.56864 -1.3125,0.52522 -1.16495,-0.048 -1.4019,-0.28494 -0.60417,-0.60416 z M 494.75,473.33772 c 0.6875,-0.27741 1.8125,-0.27741 2.5,0 0.6875,0.27741 0.125,0.50439 -1.25,0.50439 -1.375,0 -1.9375,-0.22698 -1.25,-0.50439 z M 649,413.62244 c 0,-0.20765 0.7875,-0.99515 1.75,-1.75 1.58606,-1.24387 1.62143,-1.2085 0.37756,0.37756 C 649.82119,413.91575 649,414.44548 649,413.62244 Z M 669.5,394 c 0.99549,-1.1 2.03498,-2 2.30998,-2 0.275,0 -0.31449,0.9 -1.30998,2 -0.99549,1.1 -2.03498,2 -2.30998,2 -0.275,0 0.31449,-0.9 1.30998,-2 z M 352.71761,358.57898 c 1.95434,-2.613 2.66355,-2.73585 1.72861,-0.29943 -0.33047,0.8612 -1.25564,1.81708 -2.05592,2.12417 -1.09572,0.42047 -1.01488,-0.0302 0.32731,-1.82474 z M 326.5,332 c 0.33992,-0.55 0.81648,-1 1.05902,-1 0.24254,0 0.44098,0.45 0.44098,1 0,0.55 -0.47656,1 -1.05902,1 -0.58246,0 -0.7809,-0.45 -0.44098,-1 z m 384.57895,-14.58333 c 0.048,-1.16495 0.28494,-1.4019 0.60416,-0.60417 0.28887,0.72187 0.25335,1.58438 -0.0789,1.91667 -0.33229,0.33229 -0.56864,-0.25834 -0.52522,-1.3125 z M 317.15789,299 c 0,-1.375 0.22698,-1.9375 0.50439,-1.25 0.27741,0.6875 0.27741,1.8125 0,2.5 -0.27741,0.6875 -0.50439,0.125 -0.50439,-1.25 z M 353,234.62244 c 0,-0.20765 0.7875,-0.99515 1.75,-1.75 1.58606,-1.24387 1.62143,-1.2085 0.37756,0.37756 C 353.82119,234.91575 353,235.44548 353,234.62244 Z m 331.33333,-10.07845 c 0,-0.80081 0.38234,-1.21971 0.84965,-0.9309 0.4673,0.28881 0.59075,0.94401 0.27431,1.45601 -0.80862,1.30838 -1.12396,1.16106 -1.12396,-0.52511 z m -3.88718,-1.63112 c -0.36954,-0.59793 -0.22189,-1.53713 0.32811,-2.08713 0.66667,-0.66667 1.2558,-0.58612 1.76738,0.24164 0.5298,0.85723 0.35734,0.98822 -0.55707,0.42308 -0.96167,-0.59434 -1.14954,-0.36276 -0.68589,0.8455 0.71783,1.87063 0.17434,2.23841 -0.85253,0.57691 z m -16.3672,-17.4962 c 0.048,-1.16495 0.28494,-1.4019 0.60416,-0.60417 0.28887,0.72187 0.25335,1.58437 -0.0789,1.91667 -0.33229,0.33229 -0.56864,-0.25834 -0.52522,-1.3125 z M 663.15789,200 c 0,-1.375 0.22698,-1.9375 0.50439,-1.25 0.27741,0.6875 0.27741,1.8125 0,2.5 -0.27741,0.6875 -0.50439,0.125 -0.50439,-1.25 z M 584.5,182.32545 c -1.1,-0.2434 -2.675,-0.71218 -3.5,-1.04172 -0.825,-0.32954 -2.0625,-0.50847 -2.75,-0.39761 -1.06908,0.17238 -1.76169,-1.32412 -1,-2.1607 0.47788,-0.52486 -2.75394,-3.51312 -3.38669,-3.13147 -0.35018,0.21122 -1.15954,-0.24595 -1.79856,-1.01593 -0.63903,-0.76998 -0.76456,-1.64551 -0.27896,-1.94563 0.4856,-0.30012 2.85114,1.45982 5.25677,3.91097 3.42236,3.48713 5.08996,4.45664 7.66565,4.45664 1.81048,0 3.29179,0.45 3.29179,1 0,1.03921 -0.19316,1.05717 -3.5,0.32545 z M 590.5,181 c -1.31874,-0.56668 -1.48906,-0.87815 -0.5,-0.9144 0.825,-0.0302 2.175,0.38124 3,0.9144 1.82797,1.18132 0.24909,1.18132 -2.5,0 z m 3.54654,-0.71943 c -0.84054,-0.33708 0.63541,-1.11343 3.5,-1.84101 2.7244,-0.69198 5.58926,-0.90255 6.36635,-0.46794 1.12619,0.62985 1.02473,0.90068 -0.5,1.33464 -3.93505,1.11996 -7.95931,1.53857 -9.36635,0.97431 z M 605,176.89794 c -1.2051,-0.86079 -1.05765,-0.97448 0.75,-0.57831 1.2375,0.27122 2.25,0.0853 2.25,-0.41325 0,-0.49851 0.5051,-0.90638 1.12244,-0.90638 0.77551,0 0.73766,0.46364 -0.12244,1.5 -1.47004,1.77129 -2.00308,1.82432 -4,0.39794 z m 6.55764,-1.80468 c -0.30822,-0.49871 0.34022,-0.67122 1.44098,-0.38337 2.33499,0.61061 2.63015,1.29011 0.5604,1.29011 -0.79254,0 -1.69316,-0.40803 -2.00138,-0.90674 z m 3.08725,-1.03741 c -1.47032,-0.51974 -1.06072,-0.89957 1.97465,-1.83116 2.10654,-0.64651 4.21273,-0.79242 4.68088,-0.32427 1.17136,1.17136 -4.36614,2.96471 -6.65553,2.15543 z m 22.23876,-2.29739 c -1.23891,-0.45658 -1.72495,-1.20622 -1.26481,-1.95075 0.58312,-0.94351 0.83573,-0.944 1.14965,-0.002 0.22128,0.66384 0.8139,0.95262 1.31692,0.64173 0.50302,-0.31088 0.91459,-0.18511 0.91459,0.27949 0,0.4646 0.9,0.84473 2,0.84473 1.34001,0 2.00505,-0.67177 2.01531,-2.03572 0.008,-1.11964 0.49746,-2.71071 1.08675,-3.53571 0.84019,-1.17626 0.94774,-0.96043 0.49834,1 -0.3152,1.375 -0.57924,3.2399 -0.58675,4.14421 -0.0145,1.74408 -3.29694,2.02686 -7.13,0.61425 z m 23.1953,-0.34179 c 0.048,-1.16495 0.28494,-1.4019 0.60416,-0.60417 0.28887,0.72187 0.25335,1.58437 -0.0789,1.91667 -0.33229,0.33229 -0.56864,-0.25834 -0.52522,-1.3125 z m -92.45363,-2.87933 c -1.01716,-1.35446 -2.36147,-2.36696 -2.98735,-2.25 -0.62588,0.11696 -1.03087,-0.33365 -0.89997,-1.00135 0.13091,-0.66771 -0.31909,-1.00298 -1,-0.74504 -0.6809,0.25793 -2.1204,-0.85163 -3.1989,-2.46569 -1.07849,-1.61407 -2.42849,-2.8538 -3,-2.75496 -0.5715,0.0988 -0.9266,-0.3828 -0.7891,-1.0703 0.1375,-0.6875 -0.5,-1.25 -1.41667,-1.25 -0.91666,0 -1.37057,-0.2961 -1.00867,-0.65799 0.36189,-0.3619 0.14777,-1.27277 -0.47584,-2.02417 -0.6236,-0.75139 -0.9572,-1.4678 -0.74132,-1.59201 0.21587,-0.1242 4.6675,3.92115 9.8925,8.98968 5.225,5.06853 9.04431,9.23103 8.48735,9.25 -0.55696,0.019 -1.84487,-1.07371 -2.86203,-2.42817 z M 623,170 c 0.825,-0.53316 1.95,-0.96937 2.5,-0.96937 0.55,0 0.325,0.43621 -0.5,0.96937 -0.825,0.53316 -1.95,0.96937 -2.5,0.96937 -0.55,0 -0.325,-0.43621 0.5,-0.96937 z m 4.5445,-0.928 c -0.66538,-1.07661 3.28819,-2.57265 4.2519,-1.60893 0.35512,0.35512 -0.0163,1.06432 -0.82536,1.57599 -1.87418,1.18527 -2.7094,1.1933 -3.42654,0.0329 z M 633,169 c 0,-0.55 0.47656,-1 1.05902,-1 0.58246,0 0.7809,0.45 0.44098,1 -0.33992,0.55 -0.81648,1 -1.05902,1 C 633.19844,170 633,169.55 633,169 Z m 8.07895,-10.58333 c 0.048,-1.16495 0.28494,-1.4019 0.60416,-0.60417 0.28887,0.72187 0.25335,1.58437 -0.0789,1.91667 -0.33229,0.33229 -0.56864,-0.25834 -0.52522,-1.3125 z m -86.74562,-7.75 c 0,-0.73334 0.59286,-1.33334 1.31746,-1.33334 0.9845,0 1.0378,0.33697 0.21089,1.33334 C 555.25307,151.4 554.66021,152 554.54422,152 c -0.11599,0 -0.21089,-0.6 -0.21089,-1.33333 z M 559,147.62244 c 0,-0.20765 0.7875,-0.99515 1.75,-1.75 1.58606,-1.24387 1.62143,-1.2085 0.37756,0.37756 C 559.82119,147.91575 559,148.44548 559,147.62244 Z m 98.07895,-3.20577 c 0.048,-1.16495 0.28494,-1.4019 0.60416,-0.60417 0.28887,0.72187 0.25335,1.58437 -0.0789,1.91667 -0.33229,0.33229 -0.56864,-0.25834 -0.52522,-1.3125 z m -91.55355,-2.27166 c 1.08603,-1.29524 1.8621,-2.64524 1.7246,-3 -0.1375,-0.35475 0.3125,-0.64501 1,-0.64501 0.6875,0 1.25,-0.59878 1.25,-1.33061 0,-0.73184 0.71966,-1.85684 1.59923,-2.5 1.55444,-1.13663 1.90077,-1.77484 1.90077,-3.50272 0,-0.45834 0.73454,-0.83334 1.63231,-0.83334 1.50099,0 1.50224,0.0951 0.0156,1.18221 -0.88923,0.65022 -1.33436,1.46463 -0.98919,1.8098 0.34517,0.34517 -0.10924,0.91033 -1.0098,1.25591 -0.90056,0.34557 -1.43361,0.95804 -1.18454,1.36103 0.24906,0.40299 -1.4296,2.49334 -3.73035,4.64521 -2.30075,2.15188 -3.29461,2.85277 -2.20858,1.55752 z m 90.55355,-4.72834 c 0.048,-1.16495 0.28494,-1.4019 0.60416,-0.60417 0.28887,0.72187 0.25335,1.58437 -0.0789,1.91667 -0.33229,0.33229 -0.56864,-0.25834 -0.52522,-1.3125 z M 592.40499,132.75 590.5,130.5 l 2.25,1.90499 c 1.2375,1.04774 2.25,2.06024 2.25,2.25 0,0.80025 -0.80479,0.20945 -2.59501,-1.90499 z m 32.0321,-2 -2.93709,-3.25 3.25,2.93709 c 1.7875,1.6154 3.25,3.0779 3.25,3.25 0,0.77256 -0.82513,0.0924 -3.56291,-2.93709 z m -45.05055,-8.90516 c 0.0638,-1.21267 0.86187,-2.2648 1.82482,-2.40585 1.57983,-0.23141 1.59021,-0.0658 0.13499,2.15516 -1.93149,2.94783 -2.10297,2.96976 -1.95981,0.25069 z M 611.5,121.23469 c -0.55,-0.40408 -1.11902,-1.40969 -1.26448,-2.23469 -0.20445,-1.15947 0.045,-1.10625 1.09887,0.23446 0.74985,0.95395 1.65637,1.44145 2.01449,1.08333 0.35811,-0.35812 0.65112,-0.12612 0.65112,0.51554 0,1.32204 -1.02324,1.48631 -2.5,0.40136 z M 584,117.62244 c 0,-0.20765 0.7875,-0.99515 1.75,-1.75 1.58606,-1.24387 1.62143,-1.2085 0.37756,0.37756 C 584.82119,117.91575 584,118.44548 584,117.62244 Z m 11.56429,-3.91557 c 0.37553,-0.98622 0.93469,-1.54122 1.24258,-1.23333 0.30789,0.30789 6.4e-4,1.11479 -0.68278,1.79313 -0.98762,0.98026 -1.10248,0.8654 -0.5598,-0.5598 z M 590.75,113.33772 c 0.6875,-0.27741 1.8125,-0.27741 2.5,0 0.6875,0.27741 0.125,0.50439 -1.25,0.50439 -1.375,0 -1.9375,-0.22698 -1.25,-0.50439 z m -79.9375,-9.02083 c 0.72187,-0.28887 1.58438,-0.25335 1.91667,0.0789 0.33229,0.3323 -0.25834,0.56864 -1.3125,0.52522 -1.16495,-0.048 -1.4019,-0.28494 -0.60417,-0.60416 z m -7,-13.000004 c 0.72187,-0.288871 1.58438,-0.253344 1.91667,0.07895 0.33229,0.332292 -0.25834,0.568641 -1.3125,0.52522 -1.16495,-0.04798 -1.4019,-0.284941 -0.60417,-0.604167 z M 417,62.622445 c 0,-0.207656 0.7875,-0.995156 1.75,-1.75 1.58606,-1.243871 1.62143,-1.208501 0.37756,0.377555 C 417.82119,62.915748 417,63.445479 417,62.622445 Z M 622.94617,53.25 619.5,49.5 l 3.75,3.446167 C 626.74042,56.153784 627.45979,57 626.69617,57 c -0.16711,0 -1.85461,-1.6875 -3.75,-3.75 z M 433,44.622445 c 0,-0.207656 0.7875,-0.995156 1.75,-1.75 1.58606,-1.243871 1.62143,-1.208501 0.37756,0.377555 C 433.82119,44.915748 433,45.445479 433,44.622445 Z m 19.56429,-13.329317 c -0.54268,-1.425198 -0.42782,-1.540062 0.5598,-0.559795 0.68342,0.678334 0.99067,1.485241 0.68278,1.793128 -0.30789,0.307888 -0.86705,-0.247112 -1.24258,-1.233333 z M 503.8125,12.316886 c 0.72187,-0.288871 1.58438,-0.253344 1.91667,0.07895 0.33229,0.332292 -0.25834,0.568641 -1.3125,0.52522 -1.16495,-0.04798 -1.4019,-0.284941 -0.60417,-0.604167 z"
         id="path4" />
      <path
         style="fill:#191c4e"
         d="M 351.53864,405.93747 C 351.85731,405.42186 352.68237,405 353.37211,405 c 0.68974,0 5.15724,-1.99164 9.92779,-4.42586 5.61315,-2.86418 8.90931,-4.04465 9.34141,-3.34549 0.39734,0.6429 0.20022,0.79145 -0.4868,0.36684 C 371.51953,397.20305 371,397.33064 371,397.87901 c 0,0.54838 -3.2625,2.57838 -7.25,4.51111 -7.33363,3.55459 -13.28417,5.2832 -12.21136,3.54735 z M 339,395.04549 c 0,-2.37609 4.53302,-15.10095 5.67936,-15.94282 C 345.13071,378.7712 345.5,378.05 345.5,377.5 c 0,-2.61542 4.86127,-12.53873 5.72124,-11.67876 0.58738,0.58738 0.13642,2.58106 -1.20101,5.30965 -3.13955,6.4052 -9.02023,21.59243 -9.02023,23.29532 0,1.05915 1.46545,1.57179 5.25,1.83655 l 5.25,0.36728 -6.25,0.18498 c -5.59794,0.16568 -6.25,-0.0189 -6.25,-1.76953 z m -12,-0.80208 c 1.375,-0.95888 2.64107,-2.41841 2.81349,-3.24341 0.17242,-0.825 1.22941,-2.4 2.34886,-3.5 1.76092,-1.73032 1.68267,-1.29208 -0.58033,3.25 -1.98872,3.99156 -3.151,5.24842 -4.84887,5.24341 -2.20956,-0.007 -2.20674,-0.025 0.26685,-1.75 z m 28,0.8378 c 0.825,-0.47189 3.975,-1.1158 7,-1.43091 l 5.5,-0.57294 -6,1.41768 c -6.93837,1.63941 -8.60399,1.78961 -6.5,0.58617 z M 373.5,395 c 0.33992,-0.55 0.81648,-1 1.05902,-1 0.24254,0 0.44098,0.45 0.44098,1 0,0.55 -0.47656,1 -1.05902,1 -0.58246,0 -0.7809,-0.45 -0.44098,-1 z M 318,392.86118 c -2.64894,-1.23316 -3.93824,-2.30263 -3.13435,-2.59992 0.75111,-0.27777 1.7472,0.11232 2.21353,0.86686 0.46633,0.75453 1.20178,1.30395 1.63435,1.22093 0.43256,-0.083 1.91147,0.46146 3.28647,1.20996 3.92657,2.13749 0.99002,1.62518 -4,-0.69783 z M 311,388.5 c -1.00961,-1.21651 -0.96975,-1.5 0.21089,-1.5 0.80068,0 1.45578,0.675 1.45578,1.5 0,0.825 -0.0949,1.5 -0.21089,1.5 -0.11599,0 -0.77109,-0.675 -1.45578,-1.5 z m -2.96482,-4.43426 C 307.46583,383.0019 307,381.06986 307,379.77233 c 0,-5.51344 16.84223,-42.84732 19.26004,-42.69338 0.9693,0.0617 0.96575,0.1895 -0.0163,0.58541 -0.69093,0.27855 -1.00187,0.91803 -0.69098,1.42105 0.31088,0.50302 0.069,0.91459 -0.53761,0.91459 -0.60657,0 -1.00034,0.5625 -0.87504,1.25 0.12529,0.6875 -0.52699,2.98531 -1.44953,5.10623 -0.92253,2.12093 -1.38579,4.32796 -1.02946,4.90451 0.35633,0.57655 0.24052,0.79652 -0.25735,0.48882 -0.80519,-0.49763 -1.95518,1.59855 -6.995,12.75044 -1.1821,2.61571 -3.41017,8.02728 -3.91137,9.5 -0.0936,0.275 -0.51733,1.28851 -0.94164,2.25224 -0.72481,1.64622 -0.35988,4.48877 1.04693,8.15486 0.87124,2.2704 -1.32611,1.97826 -2.56754,-0.34136 z M 334,384.33055 c 0,-0.54847 0.3375,-1.33472 0.75,-1.74722 0.4125,-0.4125 0.77212,-1.05 0.79916,-1.41666 0.15094,-2.04715 1.70715,-5.1263 2.38051,-4.71014 0.43212,0.26707 1.84691,-1.57782 3.14399,-4.09974 1.29707,-2.52193 2.93612,-4.80705 3.64233,-5.07805 C 345.42219,367.00775 346,366.15917 346,365.39301 346,364.62686 346.45,364 347,364 c 0.55,0 1,0.21439 1,0.47642 0,0.26203 -3.15,5.06078 -7,10.66389 -3.85,5.6031 -7,9.73871 -7,9.19024 z M 347.5,362 c 0.33992,-0.55 1.37898,-0.99311 2.30902,-0.98469 1.45727,0.0132 1.48367,0.14929 0.19098,0.98469 -1.95837,1.2656 -3.28218,1.2656 -2.5,0 z m -42.4941,-2.75 c 0.0117,-5.44176 2.94304,-22.06955 6.04505,-34.28964 1.73965,-6.8532 3.39232,-13.47286 3.6726,-14.71036 0.28028,-1.2375 0.85714,-2.25 1.28192,-2.25 0.42477,0 0.75142,-0.5625 0.72588,-1.25 -0.16483,-4.43847 0.31593,-6.10272 1.43862,-4.98003 0.89329,0.89329 0.87813,2.06388 -0.0641,4.95 -0.67877,2.07902 -1.36228,4.45503 -1.51893,5.28003 -0.15665,0.825 -0.61997,2.4 -1.02959,3.5 -2.0166,5.4153 -2.64234,7.94648 -4.94427,20 -3.5032,18.34368 -3.63519,19.5 -2.2258,19.5 0.66702,0 1.82433,-0.5625 2.5718,-1.25 0.74747,-0.6875 -0.13882,0.8875 -1.96952,3.5 -1.83071,2.6125 -3.47728,4.75 -3.65904,4.75 -0.18176,0 -0.32783,-1.2375 -0.32458,-2.75 z m 47.60719,-1.43298 c 0.28881,-0.4673 0.94401,-0.59075 1.45601,-0.27431 1.30838,0.80862 1.16106,1.12396 -0.52511,1.12396 -0.80081,0 -1.21971,-0.38234 -0.9309,-0.84965 z M 311,351.60699 c 0,-0.21616 0.69837,-0.661 1.55194,-0.98855 0.88992,-0.34149 1.29132,-0.17385 0.94098,0.39301 C 312.90566,351.96166 311,352.4169 311,351.60699 Z M 313.5,348 c -0.33992,-0.55 -0.13034,-1 0.46573,-1 0.59608,0 1.5115,-1.125 2.03427,-2.5 0.52277,-1.375 1.43819,-2.5 2.03427,-2.5 0.59607,0 0.852,-0.375 0.56874,-0.83333 -0.28327,-0.45834 0.11427,-0.83334 0.88342,-0.83334 0.93433,0 0.36563,1.43819 -1.71351,4.33334 -3.43344,4.78098 -3.39618,4.75192 -4.27292,3.33333 z m 7.5,-9.37756 c 0,-0.20765 0.7875,-0.99515 1.75,-1.75 1.58606,-1.24387 1.62143,-1.2085 0.37756,0.37756 C 321.82119,338.91575 321,339.44548 321,338.62244 Z M 341.86811,293.986 c -2.32377,-1.35731 -2.21713,-8.31885 0.22855,-14.92044 1.1073,-2.98894 2.31415,-5.91394 2.68188,-6.5 0.36773,-0.58606 0.68049,-1.51556 0.69503,-2.06556 0.0433,-1.63694 8.26686,-15.86144 10.22111,-17.67963 2.96576,-2.75928 4.22073,-4.57162 3.59734,-5.19502 -0.71568,-0.71568 12.79598,-14.60826 14.21743,-14.61826 0.5552,-0.004 1.58242,-0.92455 2.28271,-2.04589 0.70029,-1.12134 1.66138,-1.79893 2.13576,-1.50575 0.47438,0.29319 1.08613,-0.0497 1.35945,-0.76195 0.49043,-1.27802 15.1749,-8.98058 19.37847,-10.16473 1.19122,-0.33557 2.43264,-0.17844 2.75873,0.34918 0.5711,0.92405 -4.97355,2.75776 -6.83293,2.25976 -0.4996,-0.1338 -1.1746,0.14937 -1.5,0.62928 -0.3254,0.47991 -3.06664,2.21398 -6.09164,3.85348 -11.713,6.34829 -17.64172,11.45721 -25.97066,22.37953 -16.04388,21.03949 -25.39884,50.08477 -14.20123,44.09199 1.09142,-0.58411 4.57436,-4.78126 7.73987,-9.327 17.1531,-24.63223 33.92166,-37.43162 61.93202,-47.27251 12.59424,-4.42474 15,-6.12487 15,-10.6004 0,-2.90514 -0.51944,-3.6461 -3.61851,-5.16162 -1.99018,-0.97324 -6.26518,-2.15587 -9.5,-2.62806 -5.00487,-0.73056 -5.2853,-0.8702 -1.88149,-0.93691 7.11404,-0.13942 12.78668,1.46648 15.23516,4.313 1.26138,1.46644 2.05918,3.04525 1.7729,3.50847 -0.28629,0.46322 -0.008,1.01298 0.61789,1.22169 0.79793,0.26598 0.67087,1.28358 -0.42484,3.40245 -1.66092,3.21187 -4.0943,4.52443 -17.20111,9.27831 -10.32105,3.74347 -16.87079,6.39433 -17.5,7.08271 -0.275,0.30086 -2.21785,1.44272 -4.31745,2.53745 -2.0996,1.09474 -4.5746,2.66543 -5.5,3.49043 -0.9254,0.825 -2.9769,2.16896 -4.55887,2.98659 -4.77535,2.46807 -19.41658,17.88974 -26.85081,28.28208 -8.85796,12.38257 -11.47057,14.30733 -15.90476,11.71733 z m 348.09958,-34.31931 c -2.45723,-2.38332 -6.60519,-5.77994 -9.21769,-7.54804 -2.6125,-1.7681 -4.75,-3.88973 -4.75,-4.71473 0,-1.09651 1.27771,-0.64263 4.75,1.68734 5.08489,3.41206 15.25,12.82701 15.25,14.12458 0,1.6462 -1.71796,0.63542 -6.03231,-3.54915 z m 7.36989,2.58331 c 0.26135,-1.2375 0.14312,-2.25 -0.26272,-2.25 -0.65108,0 -2.78039,-6.95038 -3.36187,-10.97366 -0.11715,-0.81052 -0.77917,-2.16052 -1.47117,-3 -0.69201,-0.83949 -1.14201,-1.88025 -1,-2.31281 0.142,-0.43257 -0.20345,-1.10757 -0.76766,-1.5 -0.56421,-0.39244 -2.56017,-2.68367 -4.43547,-5.09161 -1.8753,-2.40795 -5.11104,-5.61058 -7.19054,-7.11696 -3.94665,-2.85894 -4.30208,-4.65705 -0.52559,-2.65898 3.52369,1.86432 6.09975,4.0454 7.28643,6.16924 0.60994,1.09163 1.39387,1.75978 1.74206,1.48478 0.91278,-0.72091 4.81955,6.91494 4.11838,8.04946 -0.3231,0.5228 -0.12246,0.95054 0.44587,0.95054 2.63964,0 7.74271,16.18604 5.96698,18.9262 -0.82321,1.27031 -0.92825,1.13991 -0.5447,-0.6762 z M 672.602,243.84216 C 671.7209,242.58422 671,240.58155 671,239.3918 c 0,-1.18975 -0.67223,-3.45212 -1.49384,-5.02749 -1.63953,-3.14367 -1.86151,-5.27471 -0.82955,-7.96395 0.44308,-1.15466 1.61582,1.83705 3.3979,8.66821 1.4967,5.73729 2.58813,10.57303 2.42539,10.7461 -0.16275,0.17306 -1.0168,-0.71456 -1.8979,-1.97251 z M 672,226 c -1.20677,-0.77988 -1.04862,-0.97237 0.80902,-0.98469 1.28757,-0.009 2.03561,0.42706 1.69098,0.98469 -0.74319,1.2025 -0.63926,1.2025 -2.5,0 z m -266.62541,-8.53973 c 2.16829,-1.24814 3.39683,-1.40174 5,-0.62517 2.06758,1.00153 2.05738,1.03175 -0.37459,1.11087 -1.375,0.0447 -3.625,0.32606 -5,0.62517 -2.37129,0.51583 -2.35201,0.45864 0.37459,-1.11087 z M 450.5,210.80961 c -1.1,-0.62127 -3.27203,-2.18259 -4.82673,-3.46959 C 444.11858,206.05301 442.01322,205 440.9947,205 c -1.01851,0 -2.49897,-0.64713 -3.28991,-1.43806 -2.73972,-2.73973 -13.42169,-4.7309 -22.61068,-4.21476 -4.72676,0.26551 -9.04411,0.5743 -9.59411,0.6862 -2.64331,0.53781 -4.27885,-0.2526 -5.33948,-2.58043 -1.58919,-3.48788 -1.47058,-5.41024 0.78248,-12.68195 1.06865,-3.44905 2.67681,-8.971 3.5737,-12.271 1.9312,-7.1056 4.41833,-12.5 5.76322,-12.5 0.53073,0 0.37361,0.71254 -0.34916,1.58343 -0.72277,0.87088 -1.38976,2.33338 -1.4822,3.25 -0.2571,2.54924 -3.14126,12.97681 -5.41372,19.57312 -2.28982,6.64669 -2.57902,10.64927 -0.89137,12.33692 0.79179,0.79179 4.71316,0.97722 12.75,0.60289 9.89232,-0.46074 12.54593,-0.24126 17.96696,1.48604 7.00156,2.2309 22.34678,11.02331 21.534,12.33842 -0.66977,1.08371 -1.46701,1.00976 -3.89443,-0.36121 z m 5.66004,-1.72175 c -0.20446,-3.0816 -4.51672,-10.61967 -8.54038,-14.92904 -1.71581,-1.83765 -7.26056,-5.78868 -12.32165,-8.78008 -10.03359,-5.93042 -14.41536,-10.41307 -16.9755,-17.36632 -0.9138,-2.48183 -2.26019,-5.22285 -2.99198,-6.09116 -2.05176,-2.43452 -1.57387,-3.45145 0.66837,-1.42225 2.64724,2.39571 8.1385,13.46966 7.32884,14.77971 -0.35021,0.56666 -0.18264,0.74964 0.37239,0.40661 0.55503,-0.34303 2.08706,0.53198 3.40451,1.94448 1.31745,1.41249 4.42036,3.65263 6.89536,4.9781 7.33117,3.92614 8.19434,4.58603 15.28313,11.68398 3.73072,3.73553 6.48557,7.27335 6.12188,7.8618 -0.36368,0.58845 -0.12021,1.40429 0.54106,1.81298 0.70354,0.43481 1.03049,2.15148 0.78815,4.13819 -0.27344,2.24164 -0.46852,2.57561 -0.57418,0.983 z M 412.23434,118.25 c -1.45948,-2.11036 -1.72737,-3.56409 -1.15174,-6.25 0.41256,-1.925 0.99953,-4.85 1.30438,-6.5 1.41542,-7.660934 3.66892,-16.631273 4.58053,-18.23336 0.55288,-0.971652 2.09668,-4.320381 3.43066,-7.441619 3.79422,-8.877695 15.55725,-25.536265 17.00764,-24.085876 0.32681,0.326804 0.59419,-0.0805 0.59419,-0.905114 0,-3.024804 14.24649,-12.869931 22.28535,-15.40043 5.363,-1.688183 6.09303,-1.705923 10,-0.243005 2.31806,0.86797 4.10215,2.080164 3.96465,2.693766 C 474.1125,42.497963 474.35803,43 474.79561,43 c 0.43759,0 0.89633,1.495421 1.01942,3.323159 0.2293,3.404803 -4.06669,10.685618 -7.93556,13.449118 -0.97964,0.699752 -2.36578,1.824752 -3.08032,2.5 C 462.60024,64.350294 456.1701,69 455.49529,69 c -0.35098,0 -1.21835,0.5625 -1.92748,1.25 -0.70914,0.6875 -3.0395,2.870938 -5.17858,4.852084 -2.13907,1.981146 -5.23923,5.289156 -6.88923,7.351133 -1.65,2.061977 -3.49018,4.274075 -4.08929,4.915773 -0.5991,0.641699 -1.27909,1.608689 -1.51108,2.148867 -0.23199,0.540179 -2.4341,4.106609 -4.89358,7.925402 -2.45949,3.818791 -4.4861,7.418791 -4.50359,8.000001 -0.0401,1.334 -4.14455,9.17805 -6.70114,12.80674 -1.06563,1.5125 -2.77622,2.75 -3.80132,2.75 -1.0251,0 -2.71964,-1.2375 -3.76566,-2.75 z m 11.29039,-11.75836 c 9.62213,-19.151926 17.44494,-28.684078 34.07806,-41.524364 15.19978,-11.733784 18.86274,-17.213208 15.02001,-22.468454 -1.02646,-1.403768 -2.6182,-1.878995 -6.25,-1.865993 -7.0083,0.02509 -15.35527,4.455407 -24.23427,12.862808 -15.43382,14.614068 -23.85332,30.68789 -27.5593,52.613953 -2.91701,17.25822 0.39565,17.39971 8.9455,0.38205 z M 601.45,61.067823 C 598.41645,58.091187 565.41819,46.562244 557,45.537868 555.625,45.37055 551.575,44.683502 548,44.011095 544.425,43.338688 531.57064,42.671679 519.43475,42.528853 500.88797,42.310578 496.78333,41.99102 493.69356,40.524827 491.6718,39.565439 490.26522,38.379876 490.56783,37.890242 490.87044,37.400609 490.59269,37 489.95061,37 c -3.11244,0 2.68684,-9.792494 6.137,-10.362742 0.77681,-0.128394 2.31239,-0.728147 3.41239,-1.332785 2.02057,-1.11065 9.31582,-3.389004 13,-4.059985 5.91888,-1.077976 32.39586,-0.814598 36.5,0.363081 2.475,0.7102 5.75699,1.512768 7.29332,1.783486 5.57394,0.98219 14.31867,3.774563 19.30635,6.164919 C 578.40449,30.900188 581.16189,32 581.72723,32 c 0.56533,0 1.55368,0.633548 2.19632,1.407885 0.64264,0.774337 2.61024,2.136778 4.37245,3.027646 5.71224,2.887782 7.10187,3.962835 14.01526,10.842565 5.967,5.937937 6.77268,7.177456 6.5,10 -0.17119,1.772047 -0.76126,3.08865 -1.31126,2.925784 -0.55,-0.162865 -0.84805,-1.455638 -0.66234,-2.872828 C 607.74428,50.412616 578.59037,30.468073 563.01822,27.353643 561.3582,27.021639 560,26.46875 560,26.125 c 0,-0.34375 -1.0125,-0.678171 -2.25,-0.743157 -1.2375,-0.06499 -6.975,-0.895523 -12.75,-1.845636 -7.2436,-1.19173 -13.44627,-1.563493 -20,-1.19872 -17.9006,0.996328 -33.5,6.901066 -33.5,12.680535 0,4.279386 3.22409,4.949292 24,4.986759 30.33107,0.0547 49.30873,3.490302 73,13.21549 6.6,2.709279 13.0125,5.170518 14.25,5.469422 1.2375,0.298904 2.25,1.166002 2.25,1.926884 0,1.575021 -2.12895,1.845635 -3.55,0.451246 z"
         id="path3" />
      <path
         style="fill:#191c33"
         d="m 427.8125,555.31689 c 0.72187,-0.28887 1.58438,-0.25335 1.91667,0.0789 0.33229,0.33229 -0.25834,0.56864 -1.3125,0.52522 -1.16495,-0.048 -1.4019,-0.28494 -0.60417,-0.60416 z m 5.45125,-0.0345 c 1.52006,-0.22986 3.77006,-0.22371 5,0.0136 1.22994,0.23736 -0.0138,0.42542 -2.76375,0.41792 -2.75,-0.008 -3.75631,-0.20172 -2.23625,-0.43157 z m 33.48625,-0.006 c 1.7875,-0.22182 4.7125,-0.22182 6.5,0 1.7875,0.22183 0.325,0.40333 -3.25,0.40333 -3.575,0 -5.0375,-0.1815 -3.25,-0.40333 z m 104,0 c 1.7875,-0.22182 4.7125,-0.22182 6.5,0 1.7875,0.22183 0.325,0.40333 -3.25,0.40333 -3.575,0 -5.0375,-0.1815 -3.25,-0.40333 z m 38.0625,0.0403 c 0.72187,-0.28887 1.58438,-0.25335 1.91667,0.0789 0.33229,0.33229 -0.25834,0.56864 -1.3125,0.52522 -1.16495,-0.048 -1.4019,-0.28494 -0.60417,-0.60416 z M 626.232,545 c 0,-1.925 0.2058,-2.7125 0.45733,-1.75 0.25152,0.9625 0.25152,2.5375 0,3.5 -0.25153,0.9625 -0.45733,0.175 -0.45733,-1.75 z m -99.07411,0 c 0,-1.375 0.22698,-1.9375 0.50439,-1.25 0.27741,0.6875 0.27741,1.8125 0,2.5 -0.27741,0.6875 -0.50439,0.125 -0.50439,-1.25 z m -82.83782,-19 c 0,-3.575 0.1815,-5.0375 0.40333,-3.25 0.22182,1.7875 0.22182,4.7125 0,6.5 -0.22183,1.7875 -0.40333,0.325 -0.40333,-3.25 z m 110.75888,-13.58333 c 0.048,-1.16495 0.28494,-1.4019 0.60416,-0.60417 0.28887,0.72187 0.25335,1.58438 -0.0789,1.91667 -0.33229,0.33229 -0.56864,-0.25834 -0.52522,-1.3125 z M 443.97097,495 c -0.43454,-7.84258 -0.64218,-8.52435 -2.68456,-8.81478 C 438.48312,485.78658 431,478.48561 431,476.1492 c 0,-0.51437 -0.62691,-1.17579 -1.39313,-1.46982 -2.76284,-1.0602 -6.88021,-11.78141 -6.99685,-18.2191 -0.10176,-5.61582 -0.269,-6.04197 -2.22712,-5.67485 -1.20206,0.22536 -3.11349,2.16975 -4.42241,4.49866 -2.87947,5.12332 -14.25289,17.20612 -19.09163,20.2824 -8.92005,5.67101 -20.50033,6.7043 -29.86886,2.66514 -4.79182,-2.06595 -4.9897,-2.03582 -13.5,2.05557 -5.02916,2.4178 -16.90805,3.35109 -23.03052,1.80943 -10.73547,-2.70322 -17.13113,-10.24451 -15.77509,-18.60081 0.59316,-3.65523 2.24947,-6.29683 22.80561,-36.37206 10.75963,-15.74218 14.6055,-20.51685 16.79311,-20.84877 3.57729,-0.54277 16.45231,-7.16917 17.07315,-8.78706 C 371.68029,396.66957 372.62635,396 373.46862,396 374.31088,396 375,395.5867 375,395.08156 c 0,-0.50514 1.59867,-1.90647 3.5526,-3.11407 1.95393,-1.20759 3.34831,-2.39991 3.09863,-2.64959 -0.24968,-0.24968 -2.86085,0.27818 -5.8026,1.17302 -7.49808,2.28082 -20.12784,4.61211 -28.09863,5.18665 -7.99008,0.57593 -8.05648,0.42922 -4.18515,-9.24758 1.41067,-3.52611 2.23852,-6.97786 1.83968,-7.67055 -0.39885,-0.69269 -0.35848,-0.92738 0.0897,-0.52153 1.0113,0.91575 6.78879,-10.97093 5.97354,-12.29003 -0.32507,-0.52596 0.41674,-2.74937 1.64844,-4.9409 2.51385,-4.47279 1.978,-6.60662 -0.65134,-2.59374 -0.9322,1.42272 -2.2916,2.58676 -3.02088,2.58676 -0.72929,0 -1.65135,0.52647 -2.04904,1.16994 -0.49057,0.79376 -0.1713,0.95821 0.99292,0.51145 1.01928,-0.39113 1.46793,-0.25712 1.10503,0.33006 -0.336,0.5437 -1.25938,0.98855 -2.05192,0.98855 -0.79254,0 -1.44098,0.62686 -1.44098,1.39301 0,0.76616 -0.57781,1.61474 -1.28401,1.88573 -0.70621,0.271 -2.34526,2.55612 -3.64233,5.07805 -1.29708,2.52192 -2.71187,4.36681 -3.14399,4.09974 -0.64172,-0.3966 -1.61253,1.39144 -2.46688,4.54347 -0.57541,2.12293 -2.1643,4.93812 -4.13967,7.33467 -1.28507,1.55907 -2.12384,3.17875 -1.86394,3.59929 0.25991,0.42054 -0.5758,1.32568 -1.85713,2.01143 -1.94948,1.04333 -2.88233,0.95277 -5.71587,-0.55489 -1.8624,-0.99094 -3.72368,-1.70918 -4.13618,-1.5961 -0.4125,0.11308 -0.75,-0.2131 -0.75,-0.72485 0,-0.51175 -1.0125,-1.08493 -2.25,-1.27374 -1.2375,-0.18881 -2.1375,-0.89511 -2,-1.56955 C 312.8875,387.55182 312.29844,387 311.44098,387 c -0.85746,0 -1.32679,-0.37575 -1.04296,-0.835 0.28383,-0.45925 0.0221,-2.44464 -0.58175,-4.41198 -0.61027,-1.98845 -0.74057,-4.39323 -0.2934,-5.415 0.44242,-1.01091 0.88097,-2.06302 0.97456,-2.33802 0.5012,-1.47272 2.72927,-6.88429 3.91137,-9.5 4.87281,-10.78233 6.15545,-13.26931 6.67723,-12.94683 0.3231,0.19969 0.50939,-0.94924 0.41397,-2.55317 -0.0954,-1.60393 0.15189,-2.71515 0.54957,-2.46937 0.80073,0.49488 2.2546,-3.31507 2.01508,-5.28063 -0.0838,-0.6875 0.34396,-1.25 0.95053,-1.25 0.60657,0 0.82474,-0.45 0.48482,-1 -0.33992,-0.55 -0.0665,-1 0.60765,-1 0.67413,0 0.94363,-0.28205 0.5989,-0.62678 -0.34473,-0.34474 0.0634,-1.96155 0.90707,-3.59293 2.57183,-4.97337 0.95856,-4.10414 -4.10897,2.21391 -2.64939,3.30319 -5.20792,6.0058 -5.68561,6.0058 -0.4777,0 -1.29627,1.125 -1.81904,2.5 -0.52277,1.375 -1.43819,2.5 -2.03427,2.5 -0.59607,0 -0.76346,0.51827 -0.37197,1.1517 0.39148,0.63344 -0.11797,1.75844 -1.13211,2.5 -1.01415,0.74157 -1.4778,1.3483 -1.03033,1.3483 0.44746,0 0.25337,0.675 -0.43132,1.5 -2.21404,2.66776 -3.86995,1.8021 -3.34759,-1.75 2.08402,-14.17139 6.72431,-34.68095 8.42783,-37.25 0.3647,-0.55 0.60834,-2.41962 0.54143,-4.15472 -0.0669,-1.73509 0.16868,-2.97518 0.52355,-2.75574 1.20274,0.74373 1.81259,-2.61772 1.24514,-6.86307 -0.44643,-3.33988 0.0507,-5.58999 2.36986,-10.72647 5.9132,-13.09661 9.46002,-19.98193 10.09221,-19.59167 0.35617,0.21986 0.7082,-0.56957 0.78231,-1.75429 0.1834,-2.93174 9.88562,-18.22225 11.34487,-17.87926 0.64298,0.15112 0.88487,-0.18503 0.53755,-0.74702 -1.5404,-2.49241 17.25633,-24.66189 26.94645,-31.78152 3.32001,-2.43932 6.43239,-5.13221 6.91639,-5.98419 2.4995,-4.39986 6.48529,-25.31807 12.14931,-63.76205 6.18989,-42.01318 13.73526,-65.051815 27.8383,-85 6.01251,-8.504454 18.61246,-21.630353 19.96262,-20.795908 0.53833,0.332709 0.70289,0.158509 0.36568,-0.387111 -0.84366,-1.365055 11.9709,-10.640937 13.44326,-9.730972 0.70175,0.433706 0.9026,0.290596 0.50196,-0.357653 -0.40808,-0.660289 3.71352,-3.208992 10.59549,-6.552012 12.7404,-6.188835 21.16173,-9.166219 22.89542,-8.094739 0.66156,0.408865 0.91222,0.299018 0.57238,-0.25084 -0.78434,-1.269101 6.08972,-2.951926 19.71965,-4.82752 28.1884,-3.8789641 56.56028,0.658922 81.07593,12.967532 13.47676,6.766299 22.58785,13.427688 32.79187,23.975122 16.96978,17.540878 28.1904,38.766168 33.30957,63.009461 1.79975,8.52323 5.54291,37.68979 8.92518,69.54464 2.82778,26.6325 3.42184,29.99404 5.49486,31.09274 0.81318,0.43099 3.59864,1.78252 6.18991,3.00341 2.59126,1.22088 4.48039,2.59355 4.19806,3.05037 -0.28233,0.45681 0.0725,0.60602 0.78861,0.33157 1.58496,-0.60747 7.07573,4.26989 6.27162,5.57097 -0.31546,0.51042 0.0539,0.68724 0.82086,0.39294 1.39223,-0.53425 7.09788,6.2156 11.52142,13.62997 3.77535,6.32792 10.20883,23.83 12.4115,33.7651 1.81051,8.16624 2.1396,12.83817 2.12466,30.16293 -0.0164,19.00768 -0.21173,21.22796 -2.68342,30.5 -3.12155,11.7099 -8.56114,24.68204 -9.98172,23.80407 -0.55277,-0.34163 -0.67946,-0.10739 -0.28614,0.52902 0.97376,1.57558 -7.21314,15.39848 -8.60909,14.53573 -0.60322,-0.37281 -0.81665,-0.2246 -0.47429,0.32935 0.79236,1.28207 -1.72619,4.78728 -3.48285,4.84728 -0.73183,0.025 -1.2132,0.60223 -1.0697,1.28273 0.49144,2.33052 -16.37275,17.40284 -23.59317,21.08631 -2.38274,1.21555 -5.08274,3.5549 -6,5.19856 -3.85156,6.90172 -17.19711,23.6791 -21.75093,27.34423 -2.70425,2.17651 -5.87026,4.87651 -7.03558,6 -4.68066,4.51264 -10.27098,8.41092 -17.88123,12.46903 -8.13037,4.33547 -12.5,8.04246 -12.5,10.60441 0,3.88421 -6.05504,14.23975 -10.79927,18.46928 -10.73404,9.56951 -15.69494,12 -24.49341,12 -6.8851,0 -16.44436,-5.22177 -23.70732,-12.95018 l -5.5,-5.85246 -7,0.99522 c -6.51064,0.92565 -10.84082,0.82281 -30.5,-0.72436 l -7.5,-0.59025 -3,4.17547 c -2.79383,3.8885 -10.72013,9.94055 -17.84334,13.62411 -3.37925,1.74748 -14.84906,1.36022 -18.56166,-0.62671 -1.9121,-1.02332 -2.02218,-0.731 -2.32999,6.18755 L 444.44193,503.5 Z M 348.66989,293.51867 c 1.16319,-0.81474 5.25954,-5.87724 9.10298,-11.25 7.43423,-10.39234 22.07546,-25.81401 26.85081,-28.28208 1.58197,-0.81763 3.63347,-2.16159 4.55887,-2.98659 0.9254,-0.825 3.4004,-2.39569 5.5,-3.49043 2.0996,-1.09473 4.04245,-2.23659 4.31745,-2.53745 0.62921,-0.68838 7.17895,-3.33924 17.5,-7.08271 13.02773,-4.72519 15.54465,-6.07508 17.16323,-9.20507 0.83896,-1.62236 1.14544,-3.22753 0.68107,-3.56704 -0.46436,-0.33952 -0.9736,-1.2923 -1.13163,-2.1173 -0.61455,-3.20816 -5.00354,-5.78035 -10.89518,-6.38517 -6.99637,-0.71822 -15.39112,-0.3054 -17.25852,0.84873 -0.74634,0.46126 -2.93032,0.96349 -4.85331,1.11607 -3.97046,0.31504 -20.16225,8.14367 -20.91829,10.11387 -0.27332,0.71226 -0.88507,1.05514 -1.35945,0.76195 -0.47438,-0.29318 -1.43547,0.38441 -2.13576,1.50575 -0.70029,1.12134 -1.72751,2.04199 -2.28271,2.04589 -1.42145,0.01 -14.93311,13.90258 -14.21743,14.61826 0.62339,0.6234 -0.63158,2.43574 -3.59734,5.19502 -1.95425,1.81819 -10.17785,16.04269 -10.22111,17.67963 -0.0145,0.55 -0.3273,1.4795 -0.69503,2.06556 -2.04871,3.26509 -4.68483,12.51163 -4.61874,16.20085 0.10527,5.87699 3.88826,7.98951 8.51009,4.75226 z M 698,263.58179 c 0,-0.23002 0.30147,-1.20384 0.66994,-2.16405 0.45371,-1.18234 0.29602,-1.51474 -0.48855,-1.02985 -0.74801,0.4623 -0.95473,0.18503 -0.58345,-0.78253 0.87475,-2.27956 -2.4559,-12.81118 -3.79067,-11.98624 -0.7203,0.44516 -0.83309,0.23167 -0.31796,-0.60183 0.51067,-0.82627 -0.0642,-1.9942 -1.59549,-3.24128 -1.3166,-1.07226 -1.83132,-1.65896 -1.14382,-1.30377 1.71323,0.88511 1.57836,0.13315 -0.75794,-4.22586 -1.10436,-2.06051 -2.34186,-3.59913 -2.75,-3.41916 -0.40813,0.17997 -1.19206,-0.48466 -1.74206,-1.47696 -1.90527,-3.43746 -7.50367,-6.92282 -10.35035,-6.44375 -0.7427,0.12499 -1.05364,-0.25284 -0.69099,-0.83963 C 674.86892,225.40307 674.00275,225 672.16601,225 c -4.31625,0 -5.45421,4.00636 -2.65985,9.36431 0.82161,1.57537 1.49384,3.95832 1.49384,5.29545 0,1.33713 1.125,3.55615 2.5,4.93115 1.375,1.375 2.5,2.90793 2.5,3.4065 0,0.49858 2.1375,2.35314 4.75,4.12124 2.6125,1.7681 6.76046,5.16472 9.21769,7.54804 2.45723,2.38332 5.26973,4.33331 6.25,4.33331 0.98027,0 1.78231,-0.1882 1.78231,-0.41821 z m -16.65492,-41.12492 c -0.32569,-0.84872 -0.80663,-1.32866 -1.06875,-1.06653 -0.26213,0.26213 -0.17998,0.95654 0.18255,1.54313 0.98605,1.59546 1.56238,1.28551 0.8862,-0.4766 z M 456.08179,211 C 456.5868,211 457,209.425 457,207.5 c 0,-1.925 -0.40186,-3.5 -0.89301,-3.5 -0.49116,0 -1.161,-0.69837 -1.48855,-1.55194 -0.3723,-0.97022 -0.18611,-1.2989 0.49674,-0.87687 2.31906,1.43325 -2.34411,-4.30798 -7.36783,-9.07119 -5.63215,-5.34009 -6.75147,-6.14551 -13.74735,-9.89209 -2.475,-1.32547 -5.57791,-3.56561 -6.89536,-4.9781 -1.31745,-1.4125 -2.84948,-2.28751 -3.40451,-1.94448 -0.55503,0.34303 -0.71421,0.14647 -0.35373,-0.43679 0.73427,-1.18808 -3.73256,-10.6251 -6.54326,-13.82385 -2.90058,-3.30104 -8.56357,-1.93876 -7.89678,1.89964 0.0788,0.45338 -0.30476,0.54748 -0.85227,0.2091 -0.5475,-0.33837 -1.28649,0.64068 -1.64219,2.17567 -0.75121,3.24173 -2.74469,10.17462 -5.48107,19.0619 -2.24089,7.27803 -2.35754,9.19837 -0.77031,12.68195 1.06063,2.32783 2.69617,3.11824 5.33948,2.58043 0.55,-0.1119 4.86735,-0.42069 9.59411,-0.6862 9.18899,-0.51614 19.87096,1.47503 22.61068,4.21476 0.79094,0.79093 2.2714,1.43806 3.28991,1.43806 1.01852,0 3.12388,1.05301 4.67857,2.34002 4.07794,3.37579 6.6386,4.67301 8.15852,4.13308 0.73248,-0.2602 1.74498,-0.4731 2.25,-0.4731 z M 588,181.875 c 0,-0.73048 1.13972,-0.90631 3.25,-0.5014 2.00216,0.38417 2.72932,0.28834 1.89389,-0.2496 -0.89509,-0.57634 -0.0452,-0.84795 2.5,-0.79893 2.12086,0.0408 5.18264,-0.2715 6.80396,-0.69411 2.36037,-0.61525 2.6593,-0.97126 1.5,-1.78641 -1.09396,-0.76921 -0.8458,-0.88389 1.01527,-0.46918 1.47194,0.32799 3.12673,-0.0517 4.11221,-0.94354 1.89332,-1.71344 8.25902,-3.78184 7.40972,-2.40764 -0.30445,0.49261 0.83484,0.41165 2.53175,-0.17989 1.69691,-0.59155 2.82983,-1.331 2.51759,-1.64324 -0.78726,-0.78727 5.46696,-3.31826 6.54826,-2.64998 0.48181,0.29777 1.78532,0.0548 2.89668,-0.54002 1.30066,-0.69609 2.02067,-0.72375 2.02067,-0.0776 0,0.55209 0.6934,0.73772 1.54089,0.4125 0.92401,-0.35457 1.42444,-0.10336 1.25,0.62749 -0.15999,0.67033 0.74442,1.61947 2.0098,2.10921 1.59529,0.61742 2.09485,0.55736 1.62932,-0.19587 -0.44047,-0.7127 0.0874,-0.6802 1.53496,0.0945 2.66819,1.42798 2.60712,1.48979 3.43947,-3.48125 0.43159,-2.5776 0.34009,-3.50892 -0.25731,-2.61901 -0.66657,0.99293 -1.11721,0.14995 -1.60373,-3 -0.37216,-2.40955 -1.80139,-7.10456 -3.17606,-10.43338 l -2.49941,-6.05239 4.43127,-4.44761 c 9.03282,-9.06615 10.29308,-27.71795 2.97235,-43.990806 C 636.77056,81.283261 621.06087,80.530423 615.0645,96.557148 613.50213,100.73297 613,104.42298 613,111.72864 c 0,8.93853 -0.1166,9.50983 -1.57416,7.71249 -0.86578,-1.06762 -1.28923,-1.37863 -0.94098,-0.69113 0.81268,1.60437 0.0603,1.57693 -3.28452,-0.11977 -5.84197,-2.9634 -15.27924,-5.73996 -17.31425,-5.09407 -1.15895,0.36783 -3.94221,2.31017 -6.18503,4.31631 -2.24281,2.00614 -3.69854,3.0155 -3.23494,2.24302 0.55352,-0.92233 0.46839,-1.17305 -0.24798,-0.73031 -0.59998,0.37081 -1.03016,1.48016 -0.95596,2.46522 0.16796,2.22973 -4.13994,9.36319 -5.24281,8.68157 -0.44539,-0.27526 -1.0768,0.1953 -1.40313,1.04571 -0.39366,1.02586 -0.17653,1.32352 0.64521,0.88451 0.6812,-0.36393 0.0923,0.4002 -1.30867,1.69806 -1.40097,1.29786 -1.85097,1.9175 -1,1.37698 1.04749,-0.66535 0.94354,-0.27444 -0.32185,1.21031 -1.02799,1.2062 -2.37799,2.09844 -3,1.98277 -0.62201,-0.11567 -1.02491,0.33275 -0.89533,0.99648 0.31981,1.63819 -10.65092,10.46358 -11.98343,9.64005 -0.60288,-0.37261 -0.76943,-0.18379 -0.38565,0.43719 0.37155,0.60118 -0.10016,1.52716 -1.04825,2.05773 -1.37033,0.76688 -1.47895,1.25971 -0.52971,2.40347 0.65675,0.79133 0.89799,1.73488 0.5361,2.09678 -0.3619,0.36189 0.092,0.65799 1.00867,0.65799 0.91667,0 1.55417,0.3375 1.41667,0.75 -0.1375,0.4125 0.11915,0.75 0.57034,0.75 0.45119,0 1.26635,0.79696 1.81146,1.77103 0.54512,0.97407 1.42461,1.50312 1.95444,1.17567 0.52982,-0.32745 0.89887,-0.22441 0.82012,0.22897 -0.39887,2.29608 0.23447,3.48427 1.58164,2.96731 0.84061,-0.32257 1.38446,-0.0626 1.25,0.59755 -0.1309,0.64271 0.28665,1.18902 0.92788,1.21402 0.64124,0.025 2.04402,1.05795 3.1173,2.29545 1.07327,1.2375 2.50927,2.25 3.1911,2.25 0.68184,0 0.9933,0.6421 0.69215,1.42689 -0.30115,0.78478 0.18708,2.02228 1.08497,2.75 1.38955,1.12619 1.50003,1.09986 0.74233,-0.17689 -0.4896,-0.825 1.01363,0.3 3.34052,2.5 3.59026,3.39449 6.12682,4.70509 10.41575,5.38169 0.4125,0.0651 0.75,-0.38794 0.75,-1.00669 z m -1.20301,-44.55528 C 583.16064,136.36255 583.86445,130 587.60667,130 c 0.74898,0 2.83138,1.34324 4.62755,2.98498 2.7373,2.50194 3.02305,3.14676 1.76578,3.98469 -1.5327,1.0215 -4.16599,1.14947 -7.20301,0.35005 z m 36.53696,-8.11301 c -4.49071,-4.09143 -5.31517,-5.44951 -6.30681,-10.38886 -1.93873,-9.65683 1.7029,-18.58356 8.49564,-20.825367 2.93404,-0.968321 4.07232,-0.860458 7.15499,0.678001 2.01623,1.006234 4.29954,2.954516 5.07402,4.329516 1.40769,2.49918 1.40759,2.49926 -0.29379,0.25 C 634.20977,98.955773 628,101.80371 628,107.58765 628,110.19987 631.60872,115 633.57258,115 635.9161,115 639,111.19301 639,108.3 c 0,-5.45754 2.21116,-0.5385 2.74448,6.10547 0.68188,8.49491 -1.48632,14.65382 -6.18,17.55468 -4.72333,2.91918 -6.42471,2.53614 -12.23053,-2.75344 z M 579,180.62244 c 0,-0.20765 -0.6853,-0.9463 -1.52289,-1.64144 -1.27335,-1.05678 -1.41968,-0.99492 -0.89301,0.37756 0.53789,1.40173 2.4159,2.38422 2.4159,1.26388 z m 35.72917,-5.22661 c -0.33229,-0.33229 -1.1948,-0.36781 -1.91667,-0.0789 -0.79773,0.31922 -0.56078,0.55618 0.60417,0.60416 1.05416,0.0434 1.64479,-0.19293 1.3125,-0.52522 z m -98.0419,-20.58538 c 5.8389,-2.14679 13.27477,-8.85555 16.22496,-14.63841 6.64765,-13.03047 4.1982,-28.84183 -6.07569,-39.2189 -15.73397,-15.892005 -41.61766,-10.653602 -51.42394,10.4073 -6.85323,14.71863 0.40451,35.19947 15.06881,42.52318 8.47076,4.2305 16.45269,4.5128 26.20586,0.92683 z m -13.8467,-12.15472 C 495.95182,139.59443 492,132.88116 492,124.24001 c 0,-10.13423 7.13245,-18.06588 17.10741,-19.02435 10.36765,-0.9962 18.47664,4.71354 20.87142,14.69608 2.22261,9.26488 -2.48661,19.18445 -10.74596,22.63543 -4.11283,1.71845 -12.64251,1.77494 -16.3923,0.10856 z m 21.67111,-21.66864 c 1.00191,-1.10709 1.82165,-3.38209 1.82165,-5.05555 0,-6.86368 -8.45276,-9.81915 -12.99159,-4.54244 -2.88573,3.35486 -2.95202,5.56534 -0.26916,8.97604 2.64407,3.3614 8.66374,3.68869 11.4391,0.62195 z M 419.80132,118.25 c 2.55659,-3.62869 6.661,-11.47274 6.70114,-12.80674 0.0175,-0.58121 2.0441,-4.18121 4.50359,-8.000001 2.45948,-3.818793 4.66159,-7.385223 4.89358,-7.925402 0.23199,-0.540178 0.91198,-1.507168 1.51108,-2.148867 0.59911,-0.641698 2.43929,-2.853796 4.08929,-4.915773 1.65,-2.061977 4.75016,-5.369987 6.88923,-7.351133 2.13908,-1.981146 4.46944,-4.164584 5.17858,-4.852084 0.70913,-0.6875 1.5765,-1.25 1.92748,-1.25 0.67481,0 7.10495,-4.649706 9.30386,-6.727723 0.71454,-0.675248 2.10068,-1.800248 3.08032,-2.5 3.86887,-2.7635 8.16486,-10.044315 7.93556,-13.449118 C 475.69194,44.495421 475.2332,43 474.79561,43 c -0.43758,0 -0.68311,-0.502037 -0.54561,-1.115638 0.1375,-0.613602 -1.64659,-1.825796 -3.96465,-2.693766 -3.90697,-1.462918 -4.637,-1.445178 -10,0.243005 C 452.24649,41.9641 438,51.809227 438,54.834031 c 0,0.824616 -0.26738,1.231918 -0.59419,0.905114 -1.45039,-1.450389 -13.21342,15.208181 -17.00764,24.085876 -1.33398,3.121238 -2.87778,6.469967 -3.43066,7.441619 -0.91161,1.602087 -3.16511,10.572426 -4.58053,18.23336 -0.30485,1.65 -0.89182,4.575 -1.30438,6.5 -0.87624,4.08856 1.80726,9 4.9174,9 1.0251,0 2.73569,-1.2375 3.80132,-2.75 z M 605,60.956163 c 0,-0.57411 0.7875,-0.91161 1.75,-0.75 1.31744,0.221206 1.82694,-0.502553 2.06126,-2.928067 0.27268,-2.822544 -0.533,-4.062063 -6.5,-10 -6.91339,-6.87973 -8.30302,-7.954783 -14.01526,-10.842565 -1.76221,-0.890868 -3.72981,-2.253309 -4.37245,-3.027646 C 583.28091,32.633548 582.29256,32 581.72723,32 c -0.56534,0 -3.32274,-1.099812 -6.12756,-2.444026 -4.98768,-2.390356 -13.73241,-5.182729 -19.30635,-6.164919 C 554.75699,23.120337 551.475,22.317769 549,21.607569 c -4.10414,-1.177679 -30.58112,-1.441057 -36.5,-0.363081 -3.68418,0.670981 -10.97943,2.949335 -13,4.059985 -1.1,0.604638 -2.63558,1.204391 -3.41239,1.332785 C 492.63745,27.207506 486.83817,37 489.95061,37 c 0.64208,0 0.91983,0.400609 0.61722,0.890242 -0.30261,0.489634 1.10397,1.675197 3.12573,2.634585 3.08977,1.466193 7.19441,1.785751 25.74119,2.004026 12.13589,0.142826 24.99025,0.809835 28.56525,1.482242 3.575,0.672407 7.625,1.359455 9,1.526773 8.41819,1.024376 41.41645,12.553319 44.45,15.529955 1.27958,1.255573 3.55,1.18416 3.55,-0.11166 z"
         id="path2" />
    </g>
    <g
       id="text8"
       style="opacity:1">
      <path
         style="font-weight:bold;font-size:85.3333px;font-family:Arial;-inkscape-font-specification:'Arial, Bold';baseline-shift:baseline;display:inline;overflow:visible;vector-effect:none;enable-background:accumulate;stop-color:#000000;stop-opacity:1"
         d="m 306.25,617.70453 h 24.41665 q 7.25,0 10.79167,0.625 3.58333,0.58334 6.37499,2.5 2.83334,1.91667 4.70833,5.125 1.875,3.16667 1.875,7.125 0,4.29166 -2.33333,7.87499 -2.29166,3.58334 -6.25,5.375 5.58334,1.625 8.58333,5.54167 3,3.91666 3,9.20833 0,4.16666 -1.95833,8.12499 -1.91667,3.91667 -5.29166,6.29167 -3.33334,2.33333 -8.25,2.875 -3.08333,0.33333 -14.87499,0.41666 H 306.25 Z m 12.33333,10.16667 v 14.12499 h 8.08333 q 7.20833,0 8.95833,-0.20833 3.16666,-0.375 4.95833,-2.16667 1.83333,-1.83333 1.83333,-4.79166 0,-2.83334 -1.58333,-4.58333 -1.54167,-1.79167 -4.625,-2.16667 -1.83333,-0.20833 -10.54166,-0.20833 z m 0,24.29165 v 16.33333 h 11.41666 q 6.66666,0 8.45833,-0.375 2.75,-0.5 4.45833,-2.41667 1.75,-1.95833 1.75,-5.20833 0,-2.75 -1.33333,-4.66666 -1.33334,-1.91667 -3.875,-2.79167 -2.5,-0.875 -10.91667,-0.875 z m 46.45831,3.875 q 0,-5.83333 2.875,-11.29166 2.875,-5.45833 8.12499,-8.33333 5.29167,-2.875 11.79167,-2.875 10.04166,0 16.45832,6.54166 6.41667,6.5 6.41667,16.45833 0,10.04166 -6.5,16.66666 -6.45833,6.58333 -16.29166,6.58333 -6.08333,0 -11.625,-2.75 -5.49999,-2.75 -8.37499,-8.04166 -2.875,-5.33333 -2.875,-12.95833 z m 11.99999,0.625 q 0,6.58333 3.125,10.08333 3.125,3.5 7.70833,3.5 4.58333,0 7.66667,-3.5 3.12499,-3.5 3.12499,-10.16666 0,-6.5 -3.12499,-10 -3.08334,-3.5 -7.66667,-3.5 -4.58333,0 -7.70833,3.5 -3.125,3.5 -3.125,10.08333 z m 51.08332,22.12499 -14,-44.24998 h 11.375 l 8.29166,28.99999 7.625,-28.99999 h 11.29166 l 7.375,28.99999 8.45833,-28.99999 h 11.54166 l -14.20833,44.24998 h -11.24999 l -7.625,-28.45832 -7.5,28.45832 z m 83.74996,-14.08333 11.66666,1.95834 q -2.25,6.41666 -7.12499,9.79166 -4.83334,3.33333 -12.125,3.33333 -11.54166,0 -17.08333,-7.54166 -4.37499,-6.04167 -4.37499,-15.25 0,-10.99999 5.74999,-17.20832 5.75,-6.25 14.54166,-6.25 9.875,0 15.58333,6.54166 5.70833,6.5 5.45833,19.95833 h -29.33332 q 0.125,5.20833 2.83333,8.125 2.70834,2.875 6.75,2.875 2.75,0 4.625,-1.5 1.875,-1.5 2.83333,-4.83334 z m 0.66667,-11.83332 q -0.125,-5.08334 -2.625,-7.70833 -2.5,-2.66667 -6.08333,-2.66667 -3.83333,0 -6.33333,2.79167 -2.5,2.79166 -2.45834,7.58333 z m 32.37498,25.91665 h -11.70833 v -44.24998 h 10.875 v 6.29166 q 2.79167,-4.45833 5,-5.87499 2.25,-1.41667 5.08333,-1.41667 4,0 7.70833,2.20833 l -3.625,10.20833 q -2.95833,-1.91666 -5.5,-1.91666 -2.45833,0 -4.16666,1.375 -1.70833,1.33333 -2.70833,4.87499 -0.95834,3.54167 -0.95834,14.83333 z m 22.125,-61.08331 h 24.41666 q 7.25,0 10.79166,0.625 3.58333,0.58334 6.375,2.5 2.83333,1.91667 4.70833,5.125 1.875,3.16667 1.875,7.125 0,4.29166 -2.33333,7.87499 -2.29167,3.58334 -6.25,5.375 5.58333,1.625 8.58333,5.54167 3,3.91666 3,9.20833 0,4.16666 -1.95833,8.12499 -1.91667,3.91667 -5.29167,6.29167 -3.33333,2.33333 -8.25,2.875 -3.08333,0.33333 -14.87499,0.41666 h -20.79166 z m 12.33333,10.16667 v 14.12499 h 8.08333 q 7.20833,0 8.95833,-0.20833 3.16667,-0.375 4.95833,-2.16667 1.83333,-1.83333 1.83333,-4.79166 0,-2.83334 -1.58333,-4.58333 -1.54166,-1.79167 -4.625,-2.16667 -1.83333,-0.20833 -10.54166,-0.20833 z m 0,24.29165 v 16.33333 h 11.41666 q 6.66667,0 8.45833,-0.375 2.75,-0.5 4.45833,-2.41667 1.75,-1.95833 1.75,-5.20833 0,-2.75 -1.33333,-4.66666 -1.33333,-1.91667 -3.875,-2.79167 -2.5,-0.875 -10.91666,-0.875 z m 46.45831,3.875 q 0,-5.83333 2.875,-11.29166 2.875,-5.45833 8.125,-8.33333 5.29166,-2.875 11.79166,-2.875 10.04166,0 16.45832,6.54166 6.41667,6.5 6.41667,16.45833 0,10.04166 -6.5,16.66666 -6.45833,6.58333 -16.29166,6.58333 -6.08333,0 -11.625,-2.75 -5.49999,-2.75 -8.37499,-8.04166 -2.875,-5.33333 -2.875,-12.95833 z m 11.99999,0.625 q 0,6.58333 3.125,10.08333 3.125,3.5 7.70833,3.5 4.58333,0 7.66667,-3.5 3.125,-3.5 3.125,-10.16666 0,-6.5 -3.125,-10 -3.08334,-3.5 -7.66667,-3.5 -4.58333,0 -7.70833,3.5 -3.125,3.5 -3.125,10.08333 z m 63.12497,-22.12499 v 9.33333 h -8 v 17.83333 q 0,5.41666 0.20834,6.33333 0.25,0.875 1.04166,1.45833 0.83334,0.58333 2,0.58333 1.625,0 4.70833,-1.125 l 1,9.08333 q -4.08333,1.75 -9.24999,1.75 -3.16667,0 -5.70833,-1.04166 -2.54167,-1.08334 -3.75,-2.75 -1.16667,-1.70834 -1.625,-4.58334 -0.375,-2.04166 -0.375,-8.24999 v -19.29166 h -5.375 v -9.33333 h 5.375 v -8.79166 l 11.74999,-6.83333 v 15.62499 z"
         id="path9" />
      <path
         style="font-weight:bold;font-size:85.3333px;font-family:Arial;-inkscape-font-specification:'Arial, Bold';baseline-shift:baseline;display:inline;overflow:visible;vector-effect:none;fill:#ffffff;enable-background:accumulate;stop-color:#000000;stop-opacity:1"
         d="m 305.75,617.20508 v 62.08203 h 21.29297 0.002 c 7.86551,-0.0556 12.80694,-0.18891 14.92578,-0.41797 3.34323,-0.36832 6.18047,-1.35153 8.48242,-2.96289 l 0.002,-0.002 c 2.31863,-1.63164 4.14009,-3.80032 5.45117,-6.47852 l 0.002,-0.002 c 1.33572,-2.70066 2.00782,-5.48846 2.00782,-8.34375 0,-3.62227 -1.03547,-6.81627 -3.10157,-9.51367 -1.88566,-2.46185 -4.60924,-4.17437 -7.93554,-5.3125 2.29458,-1.21747 4.22634,-2.84427 5.62304,-5.02735 l 0.002,-0.002 c 1.60439,-2.46479 2.41211,-5.1937 2.41211,-8.14453 0,-2.71784 -0.64683,-5.19116 -1.94336,-7.38086 v 0.004 c -1.2827,-2.19485 -2.9033,-3.96376 -4.85547,-5.28515 l -0.004,-0.002 c -1.92139,-1.31836 -4.11814,-2.17839 -6.56836,-2.57813 -2.41861,-0.42681 -6.0312,-0.63281 -10.8789,-0.63281 z m 260.79102,0 v 62.08203 h 21.29492 c 7.86551,-0.0556 12.80694,-0.18891 14.92578,-0.41797 h 0.002 c 3.34323,-0.36832 6.17853,-1.35153 8.48047,-2.96289 h 0.002 v -0.002 c 2.31864,-1.63164 4.14009,-3.80032 5.45118,-6.47852 l 0.002,-0.002 c 1.33571,-2.70066 2.00976,-5.48846 2.00976,-8.34375 0,-3.62227 -1.03741,-6.81627 -3.10351,-9.51367 -1.88533,-2.46141 -4.60813,-4.17434 -7.9336,-5.3125 2.29527,-1.2179 4.2282,-2.8452 5.625,-5.0293 l -0.004,0.002 c 1.60536,-2.46537 2.41601,-5.19476 2.41601,-8.14648 0,-2.71627 -0.64831,-5.18819 -1.94336,-7.37696 v -0.002 c -1.28257,-2.1942 -2.90567,-3.96209 -4.85742,-5.2832 l -0.004,-0.002 c -1.9214,-1.31836 -4.11814,-2.17839 -6.56836,-2.57813 -2.41861,-0.42681 -6.02925,-0.63281 -10.87696,-0.63281 z m 126.91796,0.83789 -12.75,7.41601 v 8.57813 h -5.375 v 10.33398 h 5.375 v 18.79102 c 0,4.14701 0.11681,6.88769 0.38282,8.33789 1.2e-4,6.8e-4 -1.3e-4,0.003 0,0.004 0.31389,1.96078 0.87067,3.55448 1.70312,4.77343 l 0.004,0.006 0.004,0.006 c 0.87313,1.20431 2.20575,2.17069 3.95899,2.91797 h 0.004 l 0.004,0.002 c 1.76186,0.72208 3.73055,1.07813 5.89649,1.07813 3.50089,0 6.65486,-0.59232 9.44726,-1.78906 l 0.33984,-0.14649 -1.10937,-10.08594 -0.59961,0.21875 c -2.02898,0.74031 -3.56721,1.09571 -4.53516,1.09571 -0.69203,0 -1.24423,-0.16839 -1.70898,-0.49219 -0.44451,-0.32928 -0.71091,-0.70765 -0.84766,-1.17773 -0.0458,-0.20887 -0.10847,-0.89297 -0.14257,-1.92969 -0.0344,-1.04619 -0.0508,-2.47304 -0.0508,-4.27539 v -17.33399 h 8 v -10.33398 h -8 z M 306.75,618.20508 h 23.91602 c 4.81896,0 8.40146,0.21067 10.70507,0.61719 h 0.004 0.004 c 2.32349,0.37824 4.37355,1.18525 6.17187,2.41992 l 0.002,0.002 c 1.82405,1.23391 3.34012,2.88128 4.55664,4.96289 l 0.002,0.002 c 1.20346,2.03253 1.80469,4.31116 1.80469,6.8711 0,2.77049 -0.74621,5.28916 -2.25196,7.60156 v 0.002 l -0.002,0.002 c -1.47775,2.31068 -3.47732,4.02975 -6.03516,5.1875 l -1.23242,0.55859 1.29883,0.37891 c 3.64181,1.05992 6.39693,2.84649 8.32617,5.36523 1.9339,2.52481 2.89649,5.47101 2.89649,8.9043 0,2.69944 -0.63162,5.32595 -1.90625,7.90234 v 0.002 c -1.24439,2.54288 -2.95023,4.569 -5.13086,6.10352 -2.14215,1.49889 -4.8063,2.43332 -8.01758,2.78711 -1.99253,0.2153 -6.96644,0.35658 -14.82031,0.41211 H 306.75 Z m 260.79102,0 h 23.91796 c 4.81897,0 8.39952,0.21067 10.70313,0.61719 h 0.004 0.004 c 2.3235,0.37824 4.37354,1.18525 6.17188,2.41992 h 0.002 v 0.002 c 1.82404,1.23391 3.34207,2.88128 4.55859,4.96289 v 0.002 c 1.20347,2.03253 1.80664,4.31116 1.80664,6.8711 0,2.77049 -0.74816,5.28916 -2.2539,7.60156 v 0.002 l -0.002,0.002 c -1.47775,2.31068 -3.47732,4.02975 -6.03515,5.1875 l -1.23047,0.55859 1.29687,0.37891 c 3.6418,1.05992 6.39693,2.84649 8.32618,5.36523 1.9339,2.52481 2.89843,5.47101 2.89843,8.9043 0,2.69944 -0.63357,5.32595 -1.9082,7.90234 v 0.002 c -1.24439,2.54288 -2.95022,4.569 -5.13086,6.10352 -2.14214,1.49889 -4.80434,2.43332 -8.01562,2.78711 -1.99174,0.21532 -6.9672,0.35656 -14.82032,0.41211 h -20.29296 z m 124.91796,1.57617 v 15.25586 h 8 v 8.33398 h -8 v 18.33399 c 0,1.80876 0.0158,3.24172 0.0508,4.30664 0.035,1.06492 0.0769,1.72739 0.16992,2.13672 l 0.002,0.0137 0.004,0.0137 c 0.1969,0.68916 0.62291,1.27786 1.22656,1.72266 l 0.004,0.004 0.006,0.004 c 0.64537,0.45175 1.42601,0.67383 2.28711,0.67383 1.04945,0 2.55288,-0.42644 4.27149,-1.01172 l 0.89453,8.11328 c -2.57283,1.04688 -5.458,1.60547 -8.70898,1.60547 -2.05629,0 -3.89056,-0.3371 -5.51758,-1.00391 -1.62968,-0.69569 -2.79418,-1.56155 -3.53125,-2.57617 -0.719,-1.05567 -1.24404,-2.51018 -1.54102,-4.37305 v -0.006 l -0.002,-0.006 c -0.23373,-1.27254 -0.36524,-4.03134 -0.36524,-8.16016 v -19.79102 h -5.375 v -8.33398 h 5.375 v -9.00391 z m -374.375,7.58984 v 15.125 h 8.58204 c 4.81037,0 7.77089,-0.0625 9.01757,-0.21093 2.19252,-0.25964 3.96765,-1.02429 5.25391,-2.31055 1.3173,-1.31731 1.97852,-3.06903 1.97852,-5.14453 0,-1.98033 -0.56729,-3.6502 -1.71094,-4.91602 -1.12399,-1.30185 -2.79918,-2.07025 -4.93555,-2.33008 l -0.002,-0.002 h -0.002 c -1.31046,-0.14891 -4.79006,-0.21094 -10.5996,-0.21094 z m 260.79102,0 v 15.125 h 8.58398 c 4.80933,0 7.76847,-0.0626 9.01563,-0.21093 2.19253,-0.25964 3.96765,-1.02429 5.25391,-2.31055 1.3173,-1.31731 1.98046,-3.06903 1.98046,-5.14453 0,-1.97863 -0.5673,-3.64669 -1.70898,-4.91211 -1.124,-1.30434 -2.80083,-2.07388 -4.93945,-2.33399 l -0.002,-0.002 h -0.002 c -1.31047,-0.14891 -4.78812,-0.21094 -10.59766,-0.21094 z m -259.79102,1 h 6.58204 c 5.7994,0 9.34707,0.0763 10.48242,0.20508 1.97073,0.23969 3.3751,0.9135 4.30664,1.9961 l 0.004,0.004 0.004,0.006 c 0.96548,1.06711 1.45313,2.45229 1.45313,4.24805 0,1.86893 -0.55842,3.31036 -1.68555,4.4375 -1.10263,1.10263 -2.63437,1.78308 -4.66406,2.02344 -1.08665,0.12936 -4.09966,0.20507 -8.90039,0.20507 h -7.58204 z m 260.79102,0 h 6.58398 c 5.79941,0 9.34512,0.0763 10.48047,0.20508 1.97074,0.23969 3.37511,0.9135 4.30664,1.9961 l 0.004,0.004 0.004,0.006 c 0.96548,1.06711 1.45507,2.45229 1.45507,4.24805 0,1.86893 -0.56036,3.31036 -1.6875,4.4375 -1.10262,1.10263 -2.63436,1.78308 -4.66406,2.02344 -1.08665,0.12936 -4.0977,0.20507 -8.89844,0.20507 H 579.875 Z m -192.04102,4.66602 c -4.40705,0 -8.42801,0.97788 -12.03125,2.93555 v 0.002 h -0.002 c -3.58319,1.96223 -6.36789,4.82117 -8.32617,8.53906 -1.95089,3.70387 -2.93359,7.55241 -2.93359,11.52344 0,5.14617 0.97165,9.5541 2.93554,13.19726 1.96317,3.61338 4.84157,6.37489 8.5918,8.25 v 0.002 h 0.002 c 3.75971,1.86571 7.71481,2.80078 11.84571,2.80078 6.66713,0 12.25404,-2.25298 16.64843,-6.73242 4.42178,-4.50681 6.64453,-10.21526 6.64453,-17.01758 0,-6.74628 -2.19503,-12.38441 -6.5625,-16.80859 -4.36892,-4.45346 -10.01004,-6.69141 -16.8125,-6.69141 z m 115.29102,0 c -5.97959,0 -10.99085,2.152 -14.91016,6.41211 -3.93212,4.24674 -5.88086,10.12759 -5.88086,17.54687 0,6.21808 1.48132,11.41746 4.46875,15.54297 l 0.002,0.002 v 0.002 c 3.79252,5.16125 9.68298,7.74414 17.48633,7.74414 4.93729,0 9.09119,-1.13294 12.41015,-3.42188 3.34232,-2.31392 5.78425,-5.67876 7.3125,-10.03711 l 0.19531,-0.56054 -12.6914,-2.13086 -0.12305,0.42969 c -0.62046,2.15814 -1.52465,3.66698 -2.66601,4.58007 -1.15689,0.92551 -2.57008,1.39063 -4.3125,1.39063 -2.57589,0 -4.66433,-0.89049 -6.38477,-2.7168 -1.6086,-1.73338 -2.44741,-4.17767 -2.61328,-7.2832 h 29.24023 l 0.008,-0.49024 c 0.168,-9.04436 -1.66119,-15.83226 -5.58204,-20.29687 -3.89938,-4.46799 -9.26579,-6.71289 -15.95898,-6.71289 z m 51.04102,0 c -1.97222,0 -3.76953,0.49927 -5.34961,1.49414 l -0.002,0.002 h -0.002 c -1.31829,0.8457 -2.72589,2.53599 -4.22852,4.73828 v -5.23437 h -11.875 v 45.25 h 12.70704 v -14.16602 c 0,-7.51228 0.33771,-12.4688 0.9414,-14.70117 1.1e-4,-4e-4 -1.1e-4,-0.002 0,-0.002 0.6507,-2.30139 1.52729,-3.82623 2.5332,-4.61133 l 0.004,-0.002 0.002,-0.002 c 1.04763,-0.84321 2.30785,-1.26562 3.85352,-1.26562 1.56876,0 3.31114,0.59565 5.22852,1.83789 l 0.53125,0.34375 3.9746,-11.19141 -0.35351,-0.21093 c -2.54012,-1.51266 -5.20616,-2.2793 -7.96484,-2.2793 z m 94.45898,0 c -4.40705,0 -8.42802,0.97788 -12.03125,2.93555 v 0.002 c -3.5832,1.96223 -6.36985,4.82117 -8.32813,8.53906 -1.95089,3.70387 -2.93164,7.55241 -2.93164,11.52344 0,5.14617 0.9697,9.5541 2.9336,13.19726 h 0.002 c 1.96317,3.61338 4.83961,6.37489 8.58984,8.25 v 0.002 h 0.002 c 3.7597,1.86571 7.71676,2.80078 11.84765,2.80078 6.66714,0 12.25405,-2.25298 16.64844,-6.73242 C 669.7792,669.04788 672,663.33943 672,656.53711 c 0,-6.74628 -2.19308,-12.38441 -6.56055,-16.80859 -4.36907,-4.45419 -10.01143,-6.69141 -16.81445,-6.69141 z m -260.79102,1 c 6.58587,0 11.9151,2.12455 16.10157,6.39258 v 0.002 c 4.18809,4.24248 6.27343,9.57397 6.27343,16.10547 0,6.58656 -2.11253,11.98988 -6.35742,16.31641 -4.21671,4.29832 -9.49157,6.43359 -15.93554,6.43359 -3.9796,0 -7.77172,-0.89688 -11.4004,-2.69727 h -0.002 c -3.58148,-1.79109 -6.28639,-4.38961 -8.15625,-7.83007 l -0.002,-0.002 c -1.86868,-3.46755 -2.81445,-7.70123 -2.81445,-12.7207 0,-3.80674 0.93591,-7.48469 2.81835,-11.05859 1.87506,-3.55989 4.50508,-6.25585 7.92188,-8.12696 3.45232,-1.87567 7.29312,-2.81445 11.55273,-2.81445 z m 25.60743,0 14.3164,45.25 h 12.12696 l 7.11914,-27.00977 7.23828,27.00977 h 11.99804 l 14.5293,-45.25 h -12.60351 l -8.04883,27.60156 -7.01953,-27.60156 h -12.06641 l -7.25977,27.61328 -7.89453,-27.61328 z m 89.68359,0 c 6.47293,0 11.49539,2.11761 15.20703,6.37109 v 0.002 c 3.61738,4.11906 5.4001,10.4949 5.31445,19.12695 h -29.32617 l 0.0137,0.51367 c 0.0854,3.55657 1.06288,6.40274 2.9668,8.45313 l 0.002,0.002 c 1.89068,2.00702 4.30029,3.03125 7.11329,3.03125 1.92424,0 3.59438,-0.53489 4.9375,-1.60938 1.26334,-1.01067 2.17389,-2.61514 2.82812,-4.66601 l 10.60938,1.78125 c -1.47764,3.89359 -3.65614,6.92164 -6.65821,9 -3.12549,2.1555 -7.05688,3.24414 -11.84179,3.24414 -7.58375,0 -13.08132,-2.44199 -16.67774,-7.33399 l -0.002,-0.004 c -2.8442,-3.92949 -4.27735,-8.89523 -4.27735,-14.95313 0,-7.2462 1.88195,-12.83826 5.61524,-16.86914 h 0.002 c 3.74737,-4.07322 8.43121,-6.08984 14.17383,-6.08984 z m 51.04102,0 c 2.44485,0 4.79417,0.68639 7.08398,1.97656 l -3.28125,9.24219 c -1.82051,-1.08374 -3.56851,-1.71875 -5.21875,-1.71875 -1.72951,0 -3.24545,0.49527 -4.47461,1.48242 -6.6e-4,5.2e-4 -10e-4,10e-4 -0.002,0.002 -1.26983,0.99214 -2.19683,2.71516 -2.87891,5.13086 l -0.002,0.002 v 0.004 c -0.67389,2.49044 -0.97656,7.42098 -0.97656,14.96289 v 13.16602 h -10.70704 v -43.25 h 9.875 v 7.5332 l 0.92383,-1.47461 c 1.84102,-2.94013 3.49014,-4.85048 4.8418,-5.71875 l 0.004,-0.002 c 1.41897,-0.89245 3.00853,-1.33789 4.8125,-1.33789 z m 94.45898,0 c 6.58586,0 11.91509,2.12455 16.10156,6.39258 v 0.002 c 4.1881,4.24248 6.27344,9.57397 6.27344,16.10547 0,6.58656 -2.11253,11.98988 -6.35742,16.31641 -4.21672,4.29832 -9.48962,6.43359 -15.9336,6.43359 -3.97959,0 -7.77366,-0.89688 -11.40234,-2.69727 h -0.002 c -3.58186,-1.79127 -6.28638,-4.38908 -8.15625,-7.83007 v -0.002 c -1.86889,-3.46765 -2.81446,-7.70096 -2.81446,-12.7207 0,-3.80674 0.93397,-7.48469 2.81641,-11.05859 1.8748,-3.5594 4.50575,-6.25588 7.92188,-8.12696 3.45231,-1.87567 7.29311,-2.81445 11.55273,-2.81445 z m -233.81836,1 h 10.31641 l 8.68945,30.39062 7.99023,-30.39062 h 10.51758 l 7.73047,30.40039 8.86524,-30.40039 h 10.48242 l -13.88867,43.25 h -10.50196 l -8.01172,-29.9043 -7.88086,29.9043 h -10.625 z m 89.02734,6.95898 c -2.67693,0 -4.95563,1.00326 -6.70703,2.95899 -1.76243,1.96804 -2.61447,4.63768 -2.58593,7.91992 l 0.006,0.49609 h 18.50782 l -0.0137,-0.51172 c -0.0853,-3.4675 -0.986,-6.17542 -2.75977,-8.03906 l -0.002,-0.002 c -1.74786,-1.86335 -3.93334,-2.82227 -6.44532,-2.82227 z M 387.875,642.58008 c -3.18283,0 -5.91782,1.24209 -8.08203,3.66601 -2.18706,2.44951 -3.25195,5.94802 -3.25195,10.41602 0,4.468 1.06489,7.96846 3.25195,10.41797 2.16421,2.42392 4.8992,3.66601 8.08203,3.66601 3.18283,0 5.90422,-1.24438 8.04102,-3.66992 2.18644,-2.45085 3.25,-5.97549 3.25,-10.49609 0,-4.41225 -1.06548,-7.8841 -3.25,-10.33203 -2.1368,-2.42554 -4.85819,-3.66797 -8.04102,-3.66797 z m 260.79102,0 c -3.18283,0 -5.91587,1.24209 -8.08008,3.66601 -2.18706,2.44951 -3.25196,5.94802 -3.25196,10.41602 0,4.468 1.0649,7.96846 3.25196,10.41797 2.16421,2.42392 4.89725,3.66601 8.08008,3.66601 3.18282,0 5.90617,-1.24438 8.04296,-3.66992 2.18646,-2.45085 3.25,-5.97549 3.25,-10.49609 0,-4.41225 -1.06546,-7.8841 -3.25,-10.33203 -2.13679,-2.42554 -4.86014,-3.66797 -8.04296,-3.66797 z m -144.83204,0.41601 c 2.26486,0 4.13361,0.81699 5.71875,2.50782 v 0.002 l 0.002,0.002 c 1.46595,1.53925 2.24245,3.84819 2.40429,6.86328 h -16.34961 c 0.0664,-2.83888 0.78711,-5.10117 2.26368,-6.75 1.58194,-1.7665 3.52676,-2.625 5.96093,-2.625 z M 387.875,643.58008 c 2.92828,0 5.31669,1.08895 7.29102,3.33008 l 0.002,0.002 c 1.98091,2.21863 2.99805,5.41476 2.99805,9.66797 0,4.36631 -1.01977,7.6183 -2.99805,9.83398 l -0.002,0.002 c -1.97433,2.24112 -4.36274,3.33007 -7.29102,3.33007 -2.92828,0 -5.33349,-1.08928 -7.33594,-3.33203 -1.9796,-2.21715 -2.99804,-5.44218 -2.99804,-9.75195 0,-4.30977 1.01844,-7.53284 2.99804,-9.75 2.00245,-2.24275 4.40766,-3.33203 7.33594,-3.33203 z m 260.79102,0 c 2.92828,0 5.31864,1.08895 7.29296,3.33008 v 0.002 h 0.002 c 1.98092,2.21863 2.99804,5.41476 2.99804,9.66797 0,4.36631 -1.01975,7.6183 -2.99804,9.83398 h -0.002 v 0.002 c -1.97432,2.24112 -4.36468,3.33007 -7.29296,3.33007 -2.92828,0 -5.33154,-1.08928 -7.33399,-3.33203 -1.9796,-2.21715 -2.99805,-5.44218 -2.99805,-9.75195 0,-4.30977 1.01845,-7.53284 2.99805,-9.75 2.00245,-2.24275 4.40571,-3.33203 7.33399,-3.33203 z m -330.58204,8.08203 v 17.33398 H 330 c 4.44874,0 7.23276,-0.10998 8.55078,-0.38476 1.92404,-0.35072 3.52604,-1.21414 4.73828,-2.57422 1.25824,-1.40803 1.87696,-3.28461 1.87696,-5.54102 0,-1.91414 -0.46898,-3.58137 -1.42188,-4.95117 -0.95311,-1.37008 -2.34711,-2.36728 -4.12109,-2.97851 -1.8318,-0.64113 -5.45359,-0.9043 -11.08203,-0.9043 z m 260.79102,0 v 17.33398 h 11.91602 c 4.44976,0 7.23509,-0.10984 8.55273,-0.38476 1.92349,-0.35062 3.52421,-1.21481 4.73633,-2.57422 1.25824,-1.40803 1.8789,-3.28461 1.8789,-5.54102 0,-1.91414 -0.47092,-3.58137 -1.42382,-4.95117 -0.95279,-1.36964 -2.34598,-2.36723 -4.11914,-2.97851 -1.83181,-0.64113 -5.4536,-0.9043 -11.08204,-0.9043 z m -259.79102,1 h 9.45704 c 5.59378,0 9.25042,0.32212 10.75195,0.84766 h 0.002 c 1.61364,0.55551 2.8047,1.42067 3.62891,2.60546 0.82487,1.18575 1.24219,2.62834 1.24219,4.38086 0,2.07693 -0.54796,3.67192 -1.62305,4.875 -1.06459,1.19442 -2.4332,1.94134 -4.17383,2.25782 l -0.006,0.002 h -0.008 c -1.07273,0.22452 -3.92041,0.36523 -8.35547,0.36523 H 319.0837 Z m 260.79102,0 h 9.45898 c 5.59378,0 9.24847,0.32212 10.75,0.84766 h 0.002 0.002 c 1.61365,0.55551 2.80275,1.42067 3.62695,2.60546 0.82487,1.18575 1.24414,2.62834 1.24414,4.38086 0,2.07693 -0.54795,3.67192 -1.62304,4.875 h -0.002 c -1.06458,1.19442 -2.43319,1.94134 -4.17382,2.25782 l -0.006,0.002 h -0.008 c -1.07272,0.22452 -3.92039,0.36523 -8.35546,0.36523 H 579.875 Z"
         id="path10" />
    </g>
  </g>
</svg>
