<?xml version="1.0" encoding="UTF-8" standalone="no"?>
<svg
   xmlns:dc="http://purl.org/dc/elements/1.1/"
   xmlns:cc="http://creativecommons.org/ns#"
   xmlns:rdf="http://www.w3.org/1999/02/22-rdf-syntax-ns#"
   xmlns:svg="http://www.w3.org/2000/svg"
   xmlns="http://www.w3.org/2000/svg"
   version="1.1"
   id="svg2905"
   height="125.95341"
   width="338.71051">
  <defs
     id="defs3" />
  <metadata
     id="metadata2909">
    <rdf:RDF>
      <cc:Work
         rdf:about="">
        <dc:format>image/svg+xml</dc:format>
        <dc:type
           rdf:resource="http://purl.org/dc/dcmitype/StillImage" />
        <dc:title />
      </cc:Work>
    </rdf:RDF>
  </metadata>
  <g
     transform="translate(-0.1981175,1.05182)"
     id="layer1">
    <g
       id="g2830"
       transform="matrix(1.25,0,0,-1.25,-116.32037,216.96323)">
      <g
         id="text3679"
         style="font-style:normal;font-variant:normal;font-weight:normal;font-stretch:normal;line-height:0%;font-family:Impact;-inkscape-font-specification:Impact;text-align:start;writing-mode:lr-tb;text-anchor:start;fill:#000000;fill-opacity:1;stroke:none"
         transform="matrix(0.8,0,0,-0.8,0,195)"
         aria-label=" " />
      <g
         id="g2877">
        <g
           id="g2946">
          <path
             transform="translate(-2e-6)"
             id="path2851"
             style="fill:#b3b3b3;fill-opacity:1;fill-rule:nonzero;stroke:none"
             d="m 214.97577,140.19412 0.007,-2.92724 0.19233,-0.23167 -0.19942,3.15891 z m 0,0 0.19942,-3.15891 -0.007,2.86979 -0.19235,0.28912 z m 0.0637,-26.34329 0.007,-2.92723 0.19092,0.28493 -0.19802,2.6423 z m 0,0 0.19801,-2.6423 -0.007,2.86979 -0.19093,-0.22749 z m 5.98085,26.32846 -0.006,-29.24086 0.0737,0.28448 -0.068,28.95638 z m 0,0 0.068,-28.95638 0.006,28.66773 -0.0737,0.28865 z m -31.62725,-2.8406 25.58969,-0.0718 -0.007,2.92724 -25.5826,-2.85543 z m 27.99271,-0.0718 3.63454,2.91241 h -3.64163 l 0.007,-2.91241 z m 0,0 3.62887,-26.32845 0.006,29.24086 -3.63453,-2.91241 z m -27.32733,-2.82995 24.92431,2.82995 -25.58969,0.0718 0.66538,-2.90176 z m 0,0 27.32733,2.82995 h -2.40302 z m 0,0 c 9.12801,-6.86204 18.25603,-13.72406 27.38405,-20.5861 -0.0189,7.80535 -0.0379,15.6107 -0.0567,23.41605 -9.10912,-0.94331 -18.21822,-1.88664 -27.32733,-2.82995 z m 27.38405,-20.5861 3.57215,-2.9124 -3.62887,26.32845 0.0567,-23.41605 z m -28.04943,23.48786 25.58261,2.85543 h -26.43182 z m 1.14504,-5.83919 26.90439,-17.64867 -27.38405,20.5861 z m 0.2911,-2.96152 26.61329,-14.68715 -26.90439,17.64867 z m 0.10208,-2.97357 26.51121,-11.71358 -26.61329,14.68715 z m -0.0879,-2.97403 26.59911,-8.73955 -26.51121,11.71358 z m -0.27693,-2.9629 26.87604,-5.77665 -26.59911,8.73955 z m -0.46501,-2.9393 27.34105,-2.83735 -26.87604,5.77665 z m -0.65167,-2.90546 25.58969,0.0681 -24.93802,2.83735 -0.65167,-2.90546 z m 25.58969,0.0681 h 2.40303 l -27.34105,2.83735 z m -25.58969,-0.0681 25.59678,-2.85912 -0.007,2.92723 -25.58967,-0.0681 z m 27.9998,-2.84429 h 3.56507 l -3.57215,2.9124 0.007,-2.9124 z m -28.83531,-0.0148 h 26.43229 l -25.59678,2.85912 z" />
          <path
             transform="translate(-2e-6)"
             id="path3456"
             style="fill:#ff9a00;fill-opacity:1;fill-rule:nonzero;stroke:none"
             d="m 139.96938,78.178204 3.01784,-0.08664 3.01736,0.100539 -6.0352,-0.0139 z m 0,0 6.0352,0.0139 -9.04122,0.258995 3.00602,-0.272893 z m -3.00602,0.272894 9.04122,-0.258995 3.00507,0.287257 -12.04629,-0.02826 z m 0,0 12.04629,0.02826 -15.02963,0.429959 2.98334,-0.458221 z m -2.98334,0.45822 15.02963,-0.429958 2.98097,0.47212 -18.0106,-0.04216 z m 0,0 18.0106,0.04216 -20.95849,0.599996 z m -2.94789,0.642158 20.95849,-0.599996 2.94461,0.656057 z m 0,0 23.9031,0.05605 -26.80421,0.767253 2.90111,-0.823314 z m -2.90111,0.823314 26.80421,-0.767253 2.89732,0.836751 -29.70153,-0.06949 z m 0,0 29.70153,0.06949 -32.54451,0.93173 2.84298,-1.001228 z m -2.84298,1.001228 32.54451,-0.93173 2.83825,1.014664 -35.38276,-0.08293 z m 0,0 35.38276,0.08293 -38.15628,1.092038 2.77352,-1.174972 z m -2.77352,1.174972 38.15628,-1.092038 2.76786,1.187945 -40.92414,-0.09591 z m 0,0 40.92414,0.09591 -43.6178,1.248639 2.69366,-1.344547 z m -2.69366,1.344546 43.6178,-1.248639 2.68702,1.357055 z m 0,0 46.30482,0.108416 -48.90679,1.400145 z m -2.60197,1.508561 48.90679,-1.400145 2.59489,1.520607 z m 0,0 51.50168,0.120462 -54.00299,1.546087 z m -2.50131,1.666549 54.00299,-1.546087 2.49282,1.678134 z m 0,0 56.49581,0.132047 -58.8856,1.685548 z m -2.38979,1.817595 58.8856,-1.685548 2.38127,1.829175 z m 0,0 61.26687,0.143627 -63.53615,1.818982 z m -2.26928,1.962609 63.53615,-1.818982 2.25984,1.972804 z m 0,0 65.79599,0.153822 -67.93627,1.945006 z m -2.14028,2.098828 67.93627,-1.945006 2.12987,2.109019 z m 0,0 70.06614,0.164013 -72.06795,2.062688 z m -2.00181,2.226701 72.06795,-2.062688 1.99094,2.236432 z m 0,0 74.05889,0.173744 -75.91467,2.172957 z m -1.85578,2.346701 75.91467,-2.172957 1.84491,2.35504 z m 0,0 77.75958,0.182083 -79.46272,2.274887 z m -1.70314,2.45697 79.46272,-2.274887 1.69086,2.464847 z m 0,0 81.15358,0.18996 -82.69653,2.36709 z m -1.54295,2.55705 82.69653,-2.36709 1.53065,2.56446 z m 0,0 84.22718,0.19737 -85.604246,2.45049 z m -1.377066,2.64786 85.604246,-2.45049 1.36432,2.65435 z m 0,0 86.968566,0.20386 -88.174093,2.52414 z m -1.205527,2.728 88.174093,-2.52414 1.19277,2.7331 z m 0,0 89.366863,0.20896 -90.396594,2.58762 z m -1.029731,2.79658 90.396594,-2.58762 1.01555,2.80168 z m 0,0 91.412144,0.21406 -26.2182,9.5e-4 -65.193944,-0.21544 z m 0,0 65.193944,0.21545 -0.93286,0.0273 -64.261084,-0.24278 z m 0,0 64.261084,0.24278 -0.92955,0.0849 -63.331534,-0.32757 z m 0,0 63.331534,0.32758 -0.92198,0.14223 z m 0,0 62.409554,0.46981 -0.91112,0.19923 z m 0,0 61.498434,0.66904 -0.89647,0.25481 z m 0,0 60.601964,0.92385 -0.87898,0.31043 z m 0,0 59.722984,1.23428 -0.85677,0.36371 z m 0,0 58.866214,1.59799 -0.83267,0.41606 z m 0,0 58.033544,2.01405 -0.80384,0.46656 z m 0,0 57.229704,2.48061 -58.07844,0.37482 z m -0.848736,2.85543 58.07844,-0.37482 -0.77313,0.51568 z m 0,0 57.30531,0.14086 -0.73815,0.56246 z m 0,0 56.56716,0.70332 -0.70129,0.60694 z m 0,0 55.86587,1.31026 -0.66113,0.64957 z m 0,0 55.20474,1.95983 -0.61812,0.68848 z m 0,0 54.58662,2.64831 -55.252473,0.25344 z m -0.665853,2.90175 55.252473,-0.25344 -0.57323,0.72603 z m 0,0 54.679243,0.47259 -0.52598,0.75984 z m 0,0 54.153263,1.23243 -0.47682,0.79041 z m 0,0 53.676443,2.02284 -0.42484,0.81915 z m 0,0 53.251603,2.84199 -53.730789,0.0954 0.479186,-2.93742 z m -0.479186,2.93743 53.730789,-0.0954 -0.37238,0.84323 -53.358409,-0.74779 z m 0,0 53.358409,0.74779 -0.31757,0.86502 z m 0,0 53.040839,1.61281 -0.2618,0.88262 z m 0,0 52.779039,2.49543 -53.070614,0.4661 z m -0.291575,2.96153 53.070614,-0.4661 -0.20509,0.89698 z m 0,0 52.865524,0.43088 -0.14792,0.9081 z m 0,0 52.717604,1.33898 -0.0894,0.91552 -52.628283,-2.2545 z m 0,0 52.628284,2.2545 -52.73036,0.71907 z m -0.102076,2.97357 52.73036,-0.71907 -0.0311,0.91923 -52.699161,-0.20016 z m 0,0 52.69916,0.20016 0.0279,0.91967 -52.72705,-1.11983 z m 0,0 52.72705,1.11983 0.0861,0.91552 -52.813061,-2.03535 z m 0,0 52.81306,2.03535 0.1446,0.90856 z m 0,0 52.95766,2.94391 -52.869762,0.0301 -0.0879,-2.97403 z m 0.08789,2.97403 52.86976,-0.0301 0.20179,0.89791 -53.07155,-0.86779 z m 0,0 53.07155,0.86779 0.25898,0.884 z m 0,0 53.33053,1.75179 0.31472,0.86548 z m 0,0 53.64525,2.61727 -53.368324,0.34563 z m 0.276926,2.9629 53.368334,-0.34563 0.36908,0.84509 z m 0,0 53.737414,0.49946 0.42201,0.82008 z m 0,0 54.159424,1.31954 0.47398,0.79227 z m 0,0 54.633394,2.11181 0.52315,0.76169 z m 0,0 55.156544,2.8735 -54.691534,0.0663 -0.46501,-2.93976 z m 0.46501,2.93976 54.691534,-0.0663 0.57087,0.72787 -55.262404,-0.66161 z m 0,0 55.262404,0.66161 0.61576,0.69081 z m 0,0 55.878154,1.35242 0.65876,0.65142 z m 0,0 56.536924,2.00384 0.69894,0.60973 z m 0,0 57.235864,2.61357 -56.58419,0.29143 z m 0.651674,2.905 56.58419,-0.29143 0.73625,0.56478 z m 0,0 57.32044,0.27335 0.77122,0.51845 z m 0,0 58.09166,0.7918 0.80243,0.46934 z m 0,0 58.8941,1.26114 0.83078,0.41883 z m 0,0 59.72488,1.67997 0.85583,0.36695 z m 0,0 60.58071,2.04692 0.87756,0.3132 z m 0,0 61.45827,2.36012 0.89599,0.25808 z m 0,0 62.35427,2.6182 0.91016,0.202 z m 0,0 63.26443,2.8202 -62.428925,0.0389 -0.835505,-2.85912 z m 0.835505,2.85912 62.428925,-0.0389 0.92151,0.14548 -63.350435,-0.10656 z m 0,0 63.350435,0.10656 0.92907,0.0881 -64.279505,-0.1946 z m 0,0 64.279505,0.1946 0.93285,0.0306 -65.212355,-0.22517 z m 65.212365,0.22517 26.19979,-0.0111 -90.396128,2.58762 64.196338,-2.57651 z m -65.212365,-0.22517 65.212365,0.22517 -64.196338,2.57651 z m 1.016027,2.80168 90.396128,-2.58762 -1.02926,2.79703 z m 0,0 89.366868,0.20941 -88.174574,2.5237 z m 1.192294,2.73311 88.174574,-2.5237 -1.20599,2.72756 z m 0,0 86.968584,0.20386 -85.60427,2.45048 z m 1.364314,2.65434 85.60427,-2.45048 -1.37708,2.64785 z m 0,0 84.22719,0.19737 -82.69653,2.3671 z m 1.53066,2.56447 82.69653,-2.3671 -1.54294,2.55705 z m 0,0 81.15358,0.18995 -79.46225,2.27489 z m 1.69133,2.46484 79.46225,-2.27489 -1.70267,2.45698 z m 0,0 77.75959,0.18209 -75.91515,2.17294 z m 1.84444,2.35503 75.91515,-2.17294 -1.85627,2.34669 z m 0,0 74.05888,0.17375 -72.06746,2.06269 z m 1.99142,2.23644 72.06746,-2.06269 -2.0018,2.2267 z m 0,0 70.06566,0.16401 -67.93625,1.94501 z m 2.12941,2.10902 67.93625,-1.94501 -2.1398,2.09883 z m 0,0 65.79645,0.15382 -63.53617,1.81898 z m 2.26028,1.9728 63.53617,-1.81898 -2.26976,1.96261 z m 0,0 61.26641,0.14363 -58.88558,1.68554 z m 2.38083,1.82917 58.88558,-1.68554 -2.38979,1.81759 z m 0,0 56.49579,0.13205 -54.00251,1.54608 z m 2.49328,1.67813 54.00251,-1.54608 -2.50083,1.66655 z m 0,0 51.50168,0.12047 -48.9068,1.40014 z m 2.59488,1.52061 48.9068,-1.40014 -2.60247,1.50856 z m 0,0 46.30434,0.10842 -43.61777,1.24864 z m 2.68657,1.35706 43.61777,-1.24864 -2.69317,1.34454 z m 0,0 40.9246,0.0959 -38.15629,1.09205 z m 2.76831,1.18795 38.15629,-1.09205 -2.77353,1.17498 -35.38276,-0.0829 z m 0,0 35.38276,0.0829 -32.54498,0.93173 -2.83778,-1.01466 z m 2.83778,1.01466 32.54498,-0.93173 -2.84298,1.00123 -29.702,-0.0696 z m 0,0 29.702,0.0696 -26.80467,0.76725 -2.89733,-0.83676 z m 2.89733,0.83675 26.80467,-0.76725 -2.90157,0.82331 -23.90309,-0.056 z m 0,0 23.90309,0.056 -20.95803,0.6 -2.94506,-0.65606 z m 2.94507,0.65606 20.95803,-0.6 -2.9479,0.64216 -18.01013,-0.0421 z m 0,0 18.01013,0.0421 -15.02963,0.42996 -2.9805,-0.47212 z m 2.9805,0.47212 15.02963,-0.42996 -2.98286,0.45822 -12.04677,-0.0283 z m 0,0 12.04677,0.0283 -9.0417,0.259 -3.00507,-0.28726 z m 3.00507,0.28726 9.04169,-0.259 -3.00649,0.27289 -6.0352,-0.0138 z m 0,0 6.0352,0.0138 -3.01784,0.0866 -3.01736,-0.10054 z m 21.72171,-61.75924 2.15585,0.25761 -0.91441,0.0269 -1.24144,-0.28448 z m 0,0 0.93286,-0.0273 1.223,0.28494 -2.15586,-0.25761 z m -0.92955,0.0849 2.17099,0.19969 -0.91112,0.0829 -1.25987,-0.28262 z m 0,0 0.92955,-0.0849 1.24144,0.28448 -2.17099,-0.19968 z m -0.92198,0.14223 2.18185,0.14039 -0.90402,0.13946 z m 0,0 0.92198,-0.14223 1.25987,0.28262 z m -0.91113,0.19924 2.18896,0.0807 -0.89316,0.19552 -1.2958,-0.27614 z m 0,0 0.91113,-0.19924 1.27783,0.27985 -2.18896,-0.0807 z m -0.89646,0.25481 2.19226,0.0213 -0.87899,0.24972 -1.31327,-0.27104 z m 0,0 0.89646,-0.25481 1.2958,0.27613 -2.19226,-0.0213 z m -0.87899,0.31043 2.19225,-0.0394 -0.86148,0.30394 -1.33077,-0.26455 z m 0,0 0.87899,-0.31043 1.31326,0.27105 -2.19225,0.0394 z m -0.85677,0.3637 2.18754,-0.0991 -0.84024,0.35676 -1.34729,-0.25761 z m 0,0 0.85677,-0.3637 1.33077,0.26455 -2.18754,0.0991 z m -0.83267,0.41607 2.17997,-0.15846 -0.81613,0.40818 z m 0,0 0.83267,-0.41607 1.3473,0.25761 z m -0.80384,0.46656 2.16768,-0.21684 -0.78825,0.4573 z m 0,0 0.80384,-0.46656 1.36384,0.24972 z m -0.77313,0.51566 2.15256,-0.2752 -0.758,0.50547 z m 0,0 0.77313,-0.51566 1.37943,0.24046 z m -0.73815,0.56247 2.13271,-0.3322 -0.72398,0.5518 z m 0,0 0.73815,-0.56247 1.39456,0.23027 z m -0.70129,0.60695 2.11002,-0.38735 -0.68711,0.59492 z m 0,0 0.70129,-0.60695 1.40873,0.2196 z m -0.66113,0.64957 2.08404,-0.442 -0.64836,0.63659 z m 0,0 0.66113,-0.64957 1.42291,0.20757 z m -0.61812,0.68848 2.0538,-0.49389 -0.60632,0.67505 z m 0,0 0.61812,-0.68848 1.43568,0.19459 z m -0.57323,0.72603 2.02071,-0.54487 -0.56189,0.71165 z m 0,0 0.57323,-0.72603 1.44748,0.18116 z m -0.52598,0.75983 1.9848,-0.59305 -0.51557,0.74502 z m 0,0 0.52598,-0.75983 1.45882,0.16678 z m -0.47682,0.79042 1.94605,-0.63845 -0.46737,0.77513 z m 0,0 0.47682,-0.79042 1.46923,0.15197 z m -0.42484,0.81915 1.90352,-0.68247 -0.4168,0.80292 z m 0,0 0.42484,-0.81915 1.47868,0.13668 z m -0.37238,0.84323 1.85911,-0.72278 -0.36484,0.82657 z m 0,0 0.37238,-0.84323 1.48672,0.12045 z m -0.31756,0.86501 1.81182,-0.76122 -0.31142,0.84787 -1.5004,-0.0866 z m 0,0 0.31756,-0.86501 1.49426,0.10379 z m -0.2618,0.88263 1.76221,-0.79598 -0.25661,0.86547 -1.5056,-0.0695 z m 0,0 0.2618,-0.88263 1.5004,0.0866 -1.76221,0.79598 z m -0.2051,0.89697 1.71069,-0.82748 -0.20131,0.87984 -1.50938,-0.0523 z m 0,0 0.2051,-0.89697 1.50559,0.0695 -1.71069,0.82749 z m -0.14792,0.90811 1.6573,-0.85575 -0.14461,0.89003 -1.51269,-0.0343 z m 0,0 0.14792,-0.90811 1.50938,0.0524 -1.6573,0.85575 z m -0.0894,0.91552 1.60202,-0.88124 -0.0879,0.89791 -1.51411,-0.0167 z m 0,0 0.0894,-0.91552 1.51269,0.0342 -1.60201,0.88124 z m -0.0311,0.91921 1.54531,-0.90254 -0.0301,0.90115 -1.51507,9.6e-4 z m 0,0 0.0311,-0.91921 1.51411,0.0167 -1.5453,0.90254 z m 0.0279,0.91969 1.48718,-0.92108 0.0274,0.90116 -1.51459,0.0199 z m 0,0 -0.0279,-0.91969 1.51507,-9.4e-4 -1.48718,0.92107 z m 0.0861,0.91552 1.42858,-0.93544 0.0846,0.8979 -1.51317,0.0376 z m 0,0 -0.0861,-0.91552 1.51459,-0.0199 -1.42858,0.93544 z m 0.1446,0.90856 1.36857,-0.9461 0.14129,0.89049 -1.50986,0.0556 z m 0,0 -0.1446,-0.90856 1.51317,-0.0376 -1.36857,0.9461 z m 0.20179,0.8979 1.30807,-0.95351 0.19802,0.88077 -1.50609,0.0728 z m 0,0 -0.20179,-0.8979 1.50986,-0.0556 z m 0.25898,0.88401 1.24711,-0.95675 0.25376,0.86594 -1.50087,0.0908 z m 0,0 -0.25898,-0.88401 1.50609,-0.0728 -1.24711,0.95674 z m 0.31472,0.86548 1.18615,-0.95629 0.30859,0.84927 z m 0,0 -0.31472,-0.86548 1.50087,-0.0908 -1.18615,0.95629 z m 0.36908,0.84509 1.12566,-0.95211 0.36199,0.82794 z m 0,0 -0.36908,-0.84509 1.49474,-0.10702 z m 0.42201,0.82008 1.06564,-0.94425 0.41398,0.80433 z m 0,0 -0.42201,-0.82008 1.48765,-0.12417 z m 0.47398,0.79226 1.00564,-0.93218 0.46406,0.7765 z m 0,0 -0.47398,-0.79226 1.47962,-0.13992 z m 0.52314,0.7617 0.94656,-0.91738 0.51321,0.74688 z m 0,0 -0.52314,-0.7617 1.4697,-0.15568 z m 0.57087,0.72786 0.8889,-0.89836 0.55953,0.71351 z m 0,0 -0.57087,-0.72786 1.45977,-0.1705 z m 0.61576,0.69081 0.83267,-0.87566 0.60394,0.67737 z m 0,0 -0.61576,-0.69081 1.44843,-0.18485 z m 0.65876,0.65143 0.77785,-0.84972 0.64553,0.63845 z m 0,0 -0.65876,-0.65143 1.43661,-0.19829 z m 0.69894,0.60972 0.72444,-0.82099 0.68523,0.59767 z m 0,0 -0.69894,-0.60972 1.42338,-0.21127 z m 0.73625,0.56478 0.67342,-0.7881 0.72208,0.55412 z m 0,0 -0.73625,-0.56478 1.40967,-0.22332 z m 0.77123,0.51846 0.62427,-0.75244 0.75612,0.50781 z m 0,0 -0.77123,-0.51846 1.3955,-0.23398 z m 0.80243,0.46934 0.57796,-0.71397 0.78635,0.46053 z m 0,0 -0.80243,-0.46934 1.38039,-0.24463 z m 0.83078,0.41883 0.53353,-0.67227 0.81471,0.4105 z m 0,0 -0.83078,-0.41883 1.36431,-0.25344 z m 0.85583,0.36695 0.49241,-0.62872 0.83929,0.35953 z m 0,0 -0.85583,-0.36695 1.34824,-0.26177 z m 0.87756,0.3132 0.45414,-0.58239 0.86008,0.30718 z m 0,0 -0.87756,-0.3132 1.3317,-0.26919 z m 0.89599,0.25807 0.41823,-0.53328 0.87803,0.25297 z m 0,0 -0.89599,-0.25807 1.31422,-0.27521 z m 0.91017,0.20201 0.38609,-0.48232 0.89269,0.19831 z m 0,0 -0.91017,-0.20201 1.29626,-0.28031 z m 0.92152,0.14548 0.35726,-0.42949 0.90356,0.1427 z m 0,0 -0.92152,-0.14548 1.27878,-0.28401 z m 0.92907,0.0881 0.33175,-0.37482 0.91064,0.0861 -1.24239,0.28865 z m 0,0 -0.92907,-0.0881 1.26082,-0.28679 -0.33175,0.37482 z m 0.93285,0.0306 0.30954,-0.31922 0.91442,0.0301 -1.22396,0.28911 z m 0,0 -0.93285,-0.0306 1.24239,-0.28865 -0.30954,0.31923 z m 0.052,-29.28024 26.92753,0.28355 -25.70453,9.5e-4 -1.223,-0.28494 z m 0,0 26.2182,-9.5e-4 0.70933,0.28494 -26.92753,-0.28356 z m 11.19849,-21.893117 -1.33076,-1.079065 2.3345,1.793036 z m 0,0 -2.38129,-1.829176 1.05053,0.750111 z m 2.25984,1.972804 -1.2561,-1.258833 2.21541,1.934349 z m 0,0 -2.25984,-1.972804 1.00374,0.713971 z m 2.12987,2.109019 -1.17056,-1.433503 2.08782,2.06732 z m 0,0 -2.12987,-2.109019 0.95931,0.675516 z m 1.99094,2.236431 -1.07368,-1.602614 1.95219,2.19288 z m 0,0 -1.99094,-2.236431 0.91726,0.633817 z m 1.84491,2.355041 -0.9664,-1.764775 1.80853,2.308708 z m 0,0 -1.84491,-2.355041 0.87851,0.590266 z m 1.69086,2.464842 -0.84873,-1.920909 1.65825,2.416669 z m 0,0 -1.69086,-2.464842 0.84213,0.543933 z m 1.53065,2.56447 -0.72113,-2.06871 1.50041,2.51395 z m 0,0 -1.53065,-2.56447 0.80952,0.49576 z m 1.36432,2.65434 -1.36432,-2.65434 0.77928,0.44524 z m 2.13791,34.80531 -24.97583,-0.27801 25.6861,-0.0111 z m 0,0 -26.19979,0.0111 1.22396,-0.2891 z m -3.61233,8.17244 2.13176,-3.04539 -1.35012,2.59597 z m 0,0 1.37707,-2.64786 0.75469,-0.39753 z m -1.54294,2.55705 2.32458,-3.00647 -1.51271,2.50701 z m 0,0 1.54294,-2.55705 0.78164,-0.44942 z m -1.70267,2.45697 2.51454,-2.95643 -1.66959,2.40878 z m 0,0 1.70267,-2.45697 0.81187,-0.49946 z m -1.85627,2.34669 2.70122,-2.89434 -1.81987,2.30037 z m 0,0 1.85627,-2.34669 0.84495,-0.54765 z m -2.0018,2.22671 2.88315,-2.82068 -1.96259,2.18362 z m 0,0 2.0018,-2.22671 0.88135,-0.59397 z m -2.1398,2.09883 3.06036,-2.73589 -2.09774,2.05758 z m 0,0 2.1398,-2.09883 0.92056,-0.63706 z m -2.26976,1.9626 3.23238,-2.64091 -2.22534,1.92369 z m 0,0 2.26976,-1.9626 0.96262,-0.67831 z m -2.38979,1.8176 3.39683,-2.53482 -2.343,1.78239 z m 0,0 2.38979,-1.8176 1.00704,-0.71722 z m 15.28008,-18.11435 1.20599,-2.72755 0.73059,-0.34424 z m 0,0 1.93658,-3.07179 -1.1819,2.67426 z m 1.20599,-2.72755 1.02926,-2.79703 0.71027,-0.28912 z m 0,0 1.73953,-3.08615 -1.00894,2.74191 z m 1.09967,-32.06755 -1.01555,-2.80168 0.7287,0.34008 z m 0,0 -0.28685,-2.4616 0.99618,2.74653 z m -1.01555,-2.80168 -1.19277,-2.73311 0.75233,0.39336 z m 0,0 -0.44044,-2.33975 1.16914,2.67983 z m -1.19277,-2.73311 -0.58504,-2.2091 1.33737,2.60246 z" />
          <path
             transform="translate(-2e-6)"
             id="path3462"
             style="fill:#ff9a00;fill-opacity:1;fill-rule:nonzero;stroke:none"
             d="m 223.42107,129.06802 -9.6e-4,-7.01786 55.2676,3.5087 -55.26618,3.50916 z m 132.16238,11.11127 h -132.16 l -9.7e-4,-5.84799 132.16142,5.84799 z m -132.16474,-23.39287 -9.7e-4,-5.84799 h 132.16049 l -132.15906,5.84799 z m 0,0 129.59442,-5.56351 -129.56795,5.73354 -0.0264,-0.17003 z m 0,0 132.15907,-5.84799 -2.56465,0.28448 z m 0.003,17.54488 129.59678,5.55934 2.56464,0.28865 z m 0,0 0.0269,-0.1742 129.56985,5.73354 -129.59678,-5.55934 z" />
          <g
             id="text3675"
             style="font-style:normal;font-variant:normal;font-weight:normal;font-stretch:normal;line-height:0%;font-family:Impact;-inkscape-font-specification:Impact;text-align:start;writing-mode:lr-tb;text-anchor:start;fill:#b3b3b3;fill-opacity:1;stroke:none"
             transform="matrix(1.6440817,0,0,-0.60824226,-2e-6,0)"
             aria-label="BULLET">
            <path
               id="path67"
               style="font-size:37.04994202px;line-height:1.29999995"
               d="m 116.16457,-176.12507 h 7.59813 q 3.60007,0 5.44533,0.56082 1.86335,0.56081 3.00307,2.27944 1.13972,1.70053 1.13972,5.4996 0,2.56889 -0.81408,3.58197 -0.796,1.01309 -3.16589,1.55581 2.64125,0.597 3.58197,1.98999 0.94073,1.3749 0.94073,4.23325 v 2.71361 q 0,2.96689 -0.68745,4.39607 -0.66936,1.42917 -2.15281,1.9538 -1.48344,0.52464 -6.0785,0.52464 h -8.81022 z m 7.61622,5.01115 v 6.51269 q 0.48845,-0.0181 0.75982,-0.0181 1.12163,0 1.42917,-0.54273 0.30754,-0.56081 0.30754,-3.16589 0,-1.3749 -0.25327,-1.91762 -0.25327,-0.56081 -0.66936,-0.70554 -0.398,-0.14473 -1.5739,-0.16282 z m 0,11.07157 v 8.19513 q 1.61008,-0.0543 2.04426,-0.50655 0.45227,-0.45227 0.45227,-2.22516 v -2.73171 q 0,-1.88145 -0.39799,-2.27944 -0.398,-0.398 -2.09854,-0.45227 z" />
            <path
               id="path69"
               style="font-size:37.04994202px;line-height:1.29999995"
               d="m 153.95623,-176.12507 v 19.57424 q 0,3.32871 -0.21708,4.68551 -0.21709,1.33872 -1.28445,2.7679 -1.06736,1.41108 -2.82216,2.1528 -1.73672,0.72363 -4.10661,0.72363 -2.62317,0 -4.63125,-0.86836 -2.00808,-0.86835 -3.00307,-2.26134 -0.99499,-1.393 -1.1759,-2.93071 -0.18091,-1.55581 -0.18091,-6.51269 v -17.33098 h 7.61623 v 21.96222 q 0,1.91763 0.19899,2.46035 0.21709,0.52464 0.85027,0.52464 0.72363,0 0.92263,-0.57891 0.21709,-0.597 0.21709,-2.78598 v -21.58232 z" />
            <path
               id="path71"
               style="font-size:37.04994202px;line-height:1.29999995"
               d="m 164.52126,-176.12507 v 23.42758 h 4.63124 v 5.86142 h -12.24747 v -29.289 z" />
            <path
               id="path73"
               style="font-size:37.04994202px;line-height:1.29999995"
               d="m 178.63207,-176.12507 v 23.42758 h 4.63125 v 5.86142 h -12.24747 v -29.289 z" />
            <path
               id="path75"
               style="font-size:37.04994202px;line-height:1.29999995"
               d="m 185.12667,-176.12507 h 12.69973 v 5.86142 h -5.08351 v 5.55387 h 4.75788 v 5.57197 h -4.75788 v 6.44032 h 5.59006 v 5.86142 h -13.20628 z" />
            <path
               id="path77"
               style="font-size:37.04994202px;line-height:1.29999995"
               d="m 215.4197,-176.12507 v 5.86142 h -4.5227 v 23.42758 h -7.61622 v -23.42758 h -4.50461 v -5.86142 z" />
          </g>
          <path
             id="rect3687"
             d="m -61.164524,200.72401 h 19.973602 v 19.46135 h -19.973602 z"
             style="fill:#000000;fill-opacity:1;stroke:none"
             transform="matrix(-0.86353904,0.50428204,0.49592042,0.868368,-2e-6,0)" />
          <path
             id="rect3687-1"
             d="m -115.70332,148.80043 h 20.062174 v 19.3784 h -20.062174 z"
             style="fill:#000000;fill-opacity:1;stroke:none"
             transform="matrix(-0.9830212,0.18349184,0.1637798,0.98649696,-2e-6,0)" />
          <path
             id="rect3687-1-7"
             d="m -159.8067,81.363007 h 20.0658 v 19.381923 h -20.0658 z"
             style="fill:#000000;fill-opacity:1;stroke:none"
             transform="matrix(-0.98757072,-0.1571754,-0.19020319,0.98174472,-2e-6,0)" />
          <path
             id="rect3687-1-7-4"
             d="m -99.449539,-153.07877 h 19.68277 v 19.75508 h -19.68277 z"
             style="fill:#000000;fill-opacity:1;stroke:none"
             transform="matrix(-0.01387577,-0.99990376,-0.99991656,-0.01291891,-2e-6,0)" />
          <g
             id="g2907">
            <g
               id="text3683-1"
               style="font-style:normal;font-variant:normal;font-weight:bold;font-stretch:normal;line-height:0%;font-family:Raavi;-inkscape-font-specification:'Raavi Bold';text-align:start;writing-mode:lr-tb;text-anchor:start;fill:#000000;fill-opacity:1;stroke:none"
               transform="scale(0.96752578,-1.0335642)"
               aria-label="P">
              <path
                 id="path84"
                 style="font-size:13.81153965px;line-height:1.25"
                 d="m 197.41689,-85.27141 h 4.30936 q 1.92202,0 2.94709,0.856477 1.03182,0.849734 1.03182,2.42781 0,1.58482 -1.03182,2.441298 -1.02507,0.849733 -2.94709,0.849733 h -1.71295 v 3.493348 h -2.59641 z m 2.59641,1.881553 v 2.812213 h 1.43645 q 0.75532,0 1.1667,-0.364172 0.41138,-0.370915 0.41138,-1.045307 0,-0.674391 -0.41138,-1.038563 -0.41138,-0.364171 -1.1667,-0.364171 z" />
            </g>
            <g
               id="text3683-1-4"
               style="font-style:normal;font-variant:normal;font-weight:bold;font-stretch:normal;line-height:0%;font-family:Raavi;-inkscape-font-specification:'Raavi Bold';text-align:start;writing-mode:lr-tb;text-anchor:start;fill:#000000;fill-opacity:1;stroke:none"
               transform="scale(1.019135,-0.98122427)"
               aria-label="H">
              <path
                 id="path87"
                 style="font-size:14.54826736px;line-height:1.25"
                 d="m 199.12507,-89.819908 h 2.7349 v 4.041974 h 4.03487 v -4.041974 h 2.73491 v 10.605743 h -2.73491 v -4.496608 h -4.03487 v 4.496608 h -2.7349 z" />
            </g>
            <g
               id="text3683-1-4-9"
               style="font-style:normal;font-variant:normal;font-weight:bold;font-stretch:normal;line-height:0%;font-family:Raavi;-inkscape-font-specification:'Raavi Bold';text-align:start;writing-mode:lr-tb;text-anchor:start;fill:#000000;fill-opacity:1;stroke:none"
               transform="scale(1.019135,-0.98122427)"
               aria-label="Y">
              <path
                 id="path90"
                 style="font-size:14.54826641px;line-height:1.25"
                 d="m 210.08022,-89.819908 h 2.99063 l 2.41524,3.77914 2.41524,-3.77914 h 2.99774 l -4.04197,6.13755 v 4.468193 h -2.73491 v -4.468193 z" />
            </g>
            <g
               id="text3683-1-4-9-8"
               style="font-style:normal;font-variant:normal;font-weight:bold;font-stretch:normal;line-height:0%;font-family:Raavi;-inkscape-font-specification:'Raavi Bold';text-align:start;writing-mode:lr-tb;text-anchor:start;fill:#000000;fill-opacity:1;stroke:none"
               transform="scale(1.019135,-0.98122427)"
               aria-label="S">
              <path
                 id="path93"
                 style="font-size:14.54826641px;line-height:1.25"
                 d="m 230.49193,-89.635214 v 2.244752 q -0.87375,-0.3907 -1.70487,-0.589603 -0.83113,-0.198902 -1.56991,-0.198902 -0.9803,0 -1.44914,0.269939 -0.46884,0.269938 -0.46884,0.83823 0,0.426219 0.31256,0.667743 0.31966,0.23442 1.15079,0.404908 l 1.16499,0.23442 q 1.76881,0.355182 2.51469,1.079754 0.74589,0.724572 0.74589,2.060057 0,1.754601 -1.04424,2.614142 -1.03713,0.852437 -3.17533,0.852437 -1.00872,0 -2.02454,-0.191798 -1.01582,-0.191798 -2.03164,-0.568292 v -2.308685 q 1.01582,0.539878 1.96061,0.81692 0.95188,0.269938 1.83274,0.269938 0.89506,0 1.371,-0.298353 0.47594,-0.298353 0.47594,-0.852437 0,-0.497256 -0.32676,-0.767194 -0.31967,-0.269939 -1.28576,-0.483048 l -1.05845,-0.23442 q -1.59121,-0.340975 -2.32999,-1.086858 -0.73168,-0.745883 -0.73168,-2.010332 0,-1.584113 1.02293,-2.43655 1.02292,-0.852438 2.94091,-0.852438 0.87375,0 1.79722,0.13497 0.92347,0.127865 1.91088,0.3907 z" />
            </g>
            <g
               id="text3683-1-4-9-8-2"
               style="font-style:normal;font-variant:normal;font-weight:bold;font-stretch:normal;line-height:0%;font-family:Raavi;-inkscape-font-specification:'Raavi Bold';text-align:start;writing-mode:lr-tb;text-anchor:start;fill:#000000;fill-opacity:1;stroke:none"
               transform="scale(1.019135,-0.98122427)"
               aria-label="I">
              <path
                 id="path96"
                 style="font-size:14.54826641px;line-height:1.25"
                 d="m 234.80509,-89.819908 h 2.7349 v 10.605743 h -2.7349 z" />
            </g>
            <g
               id="text3683-1-4-9-8-2-5"
               style="font-style:normal;font-variant:normal;font-weight:bold;font-stretch:normal;line-height:0%;font-family:Raavi;-inkscape-font-specification:'Raavi Bold';text-align:start;writing-mode:lr-tb;text-anchor:start;fill:#000000;fill-opacity:1;stroke:none"
               transform="scale(1.019135,-0.98122427)"
               aria-label="C">
              <path
                 id="path99"
                 style="font-size:14.54826641px;line-height:1.25"
                 d="m 250.01027,-79.945841 q -0.75299,0.3907 -1.56991,0.589602 -0.81691,0.198902 -1.70487,0.198902 -2.64966,0 -4.19825,-1.477558 -1.5486,-1.484662 -1.5486,-4.020663 0,-2.543106 1.5486,-4.020664 1.54859,-1.484662 4.19825,-1.484662 0.88796,0 1.70487,0.198902 0.81692,0.198902 1.56991,0.589603 v 2.195026 q -0.76009,-0.518566 -1.49887,-0.76009 -0.73878,-0.241524 -1.5557,-0.241524 -1.46335,0 -2.30158,0.937682 -0.83823,0.937681 -0.83823,2.585727 0,1.640942 0.83823,2.578623 0.83823,0.937681 2.30158,0.937681 0.81692,0 1.5557,-0.241524 0.73878,-0.241524 1.49887,-0.76009 z" />
            </g>
            <g
               id="text3683-1-4-9-8-2-5-1"
               style="font-style:normal;font-variant:normal;font-weight:bold;font-stretch:normal;line-height:0%;font-family:Raavi;-inkscape-font-specification:'Raavi Bold';text-align:start;writing-mode:lr-tb;text-anchor:start;fill:#000000;fill-opacity:1;stroke:none"
               transform="scale(1.019135,-0.98122427)"
               aria-label="S">
              <path
                 id="path102"
                 style="font-size:14.54826641px;line-height:1.25"
                 d="m 260.23526,-89.635214 v 2.244752 q -0.87375,-0.3907 -1.70487,-0.589603 -0.83113,-0.198902 -1.56991,-0.198902 -0.9803,0 -1.44914,0.269939 -0.46884,0.269938 -0.46884,0.83823 0,0.426219 0.31256,0.667743 0.31966,0.23442 1.15079,0.404908 l 1.165,0.23442 q 1.7688,0.355182 2.51469,1.079754 0.74588,0.724572 0.74588,2.060057 0,1.754601 -1.04424,2.614142 -1.03713,0.852437 -3.17533,0.852437 -1.00871,0 -2.02454,-0.191798 -1.01582,-0.191798 -2.03164,-0.568292 v -2.308685 q 1.01582,0.539878 1.96061,0.81692 0.95189,0.269938 1.83274,0.269938 0.89506,0 1.371,-0.298353 0.47595,-0.298353 0.47595,-0.852437 0,-0.497256 -0.32677,-0.767194 -0.31967,-0.269939 -1.28576,-0.483048 l -1.05844,-0.23442 q -1.59122,-0.340975 -2.33,-1.086858 -0.73168,-0.745883 -0.73168,-2.010332 0,-1.584113 1.02293,-2.43655 1.02292,-0.852438 2.94091,-0.852438 0.87375,0 1.79722,0.13497 0.92348,0.127865 1.91088,0.3907 z" />
            </g>
            <g
               id="text3683-1-4-9-8-2-5-1-1"
               style="font-style:normal;font-variant:normal;font-weight:bold;font-stretch:normal;line-height:0%;font-family:Raavi;-inkscape-font-specification:'Raavi Bold';text-align:start;writing-mode:lr-tb;text-anchor:start;fill:#000000;fill-opacity:1;stroke:none"
               transform="scale(1.019135,-0.98122427)"
               aria-label="L">
              <path
                 id="path105"
                 style="font-size:14.54826641px;line-height:1.25"
                 d="m 279.8939,-89.819908 h 2.7349 v 8.538582 h 4.80206 v 2.067161 h -7.53696 z" />
            </g>
            <g
               id="text3683-1-4-9-8-2-5-1-1-5"
               style="font-style:normal;font-variant:normal;font-weight:bold;font-stretch:normal;line-height:0%;font-family:Raavi;-inkscape-font-specification:'Raavi Bold';text-align:start;writing-mode:lr-tb;text-anchor:start;fill:#000000;fill-opacity:1;stroke:none"
               transform="scale(1.019135,-0.98122427)"
               aria-label="I">
              <path
                 id="path108"
                 style="font-size:14.54826641px;line-height:1.25"
                 d="m 289.89408,-89.819908 h 2.7349 v 10.605743 h -2.7349 z" />
            </g>
            <g
               id="text3683-1-4-9-8-2-5-1-1-5-7"
               style="font-style:normal;font-variant:normal;font-weight:bold;font-stretch:normal;line-height:0%;font-family:Raavi;-inkscape-font-specification:'Raavi Bold';text-align:start;writing-mode:lr-tb;text-anchor:start;fill:#000000;fill-opacity:1;stroke:none"
               transform="scale(1.019135,-0.98122427)"
               aria-label="B">
              <path
                 id="path111"
                 style="font-size:14.54826641px;line-height:1.25"
                 d="m 301.04623,-85.714001 q 0.64644,0 0.98031,-0.284145 0.33387,-0.284146 0.33387,-0.838231 0,-0.54698 -0.33387,-0.831126 -0.33387,-0.29125 -0.98031,-0.29125 h -1.51307 v 2.244752 z m 0.0924,4.638681 q 0.82402,0 1.23604,-0.348079 0.41911,-0.348078 0.41911,-1.051339 0,-0.689054 -0.41201,-1.030029 -0.41201,-0.348078 -1.24314,-0.348078 h -1.60542 v 2.777525 z m 2.54311,-3.814658 q 0.88085,0.255732 1.3639,0.944785 0.48304,0.689054 0.48304,1.690668 0,1.534387 -1.03713,2.287374 -1.03713,0.752986 -3.15402,0.752986 h -4.53923 v -10.605743 h 4.10591 q 2.20923,0 3.19664,0.667743 0.99451,0.667743 0.99451,2.138197 0,0.774298 -0.36228,1.321278 -0.36229,0.539877 -1.05134,0.802712 z" />
            </g>
            <g
               id="text3683-1-4-9-8-2-5-1-1-5-7-1"
               style="font-style:normal;font-variant:normal;font-weight:bold;font-stretch:normal;line-height:0%;font-family:Raavi;-inkscape-font-specification:'Raavi Bold';text-align:start;writing-mode:lr-tb;text-anchor:start;fill:#000000;fill-opacity:1;stroke:none"
               transform="scale(1.019135,-0.98122427)"
               aria-label="R">
              <path
                 id="path114"
                 style="font-size:14.54826641px;line-height:1.25"
                 d="m 311.61089,-85.117294 q 0.85954,0 1.22893,-0.319664 0.37649,-0.319664 0.37649,-1.05134 0,-0.724572 -0.37649,-1.037132 -0.36939,-0.312561 -1.22893,-0.312561 h -1.15079 v 2.720697 z m -1.15079,1.889569 v 4.01356 h -2.73491 v -10.605743 h 4.17695 q 2.09557,0 3.06877,0.703261 0.98031,0.703261 0.98031,2.223441 0,1.05134 -0.51147,1.726186 -0.50435,0.674847 -1.52728,0.994511 0.56119,0.127865 1.00161,0.582499 0.44753,0.447529 0.90217,1.363899 l 1.48466,3.011946 h -2.9125 l -1.29286,-2.635452 q -0.3907,-0.795609 -0.79561,-1.086858 -0.3978,-0.29125 -1.06554,-0.29125 z" />
            </g>
            <g
               id="text3683-1-4-9-8-2-5-1-1-5-7-1-2"
               style="font-style:normal;font-variant:normal;font-weight:bold;font-stretch:normal;line-height:0%;font-family:Raavi;-inkscape-font-specification:'Raavi Bold';text-align:start;writing-mode:lr-tb;text-anchor:start;fill:#000000;fill-opacity:1;stroke:none"
               transform="scale(1.019135,-0.98122427)"
               aria-label="A">
              <path
                 id="path117"
                 style="font-size:14.54826641px;line-height:1.25"
                 d="m 325.88815,-81.146356 h -4.2764 l -0.67484,1.932191 h -2.74911 l 3.92831,-10.605743 h 3.26058 l 3.92831,10.605743 h -2.74911 z m -3.59445,-1.96771 h 2.9054 l -1.44915,-4.219566 z" />
            </g>
            <g
               id="text3683-1-4-9-8-2-5-1-1-5-7-1-2-2"
               style="font-style:normal;font-variant:normal;font-weight:bold;font-stretch:normal;line-height:0%;font-family:Raavi;-inkscape-font-specification:'Raavi Bold';text-align:start;writing-mode:lr-tb;text-anchor:start;fill:#000000;fill-opacity:1;stroke:none"
               transform="scale(1.019135,-0.98122427)"
               aria-label="R">
              <path
                 id="path120"
                 style="font-size:14.54826641px;line-height:1.25"
                 d="m 334.75945,-85.117294 q 0.85954,0 1.22893,-0.319664 0.37649,-0.319664 0.37649,-1.05134 0,-0.724572 -0.37649,-1.037132 -0.36939,-0.312561 -1.22893,-0.312561 h -1.15079 v 2.720697 z m -1.15079,1.889569 v 4.01356 h -2.73491 v -10.605743 h 4.17695 q 2.09557,0 3.06877,0.703261 0.98031,0.703261 0.98031,2.223441 0,1.05134 -0.51147,1.726186 -0.50436,0.674847 -1.52728,0.994511 0.56119,0.127865 1.00161,0.582499 0.44753,0.447529 0.90217,1.363899 l 1.48466,3.011946 h -2.9125 l -1.29286,-2.635452 q -0.3907,-0.795609 -0.79561,-1.086858 -0.3978,-0.29125 -1.06554,-0.29125 z" />
            </g>
            <g
               id="text3683-1-4-9-8-2-5-1-1-5-7-1-2-2-1"
               style="font-style:normal;font-variant:normal;font-weight:bold;font-stretch:normal;line-height:0%;font-family:Raavi;-inkscape-font-specification:'Raavi Bold';text-align:start;writing-mode:lr-tb;text-anchor:start;fill:#000000;fill-opacity:1;stroke:none"
               transform="scale(1.019135,-0.98122427)"
               aria-label="Y">
              <path
                 id="path123"
                 style="font-size:14.54826641px;line-height:1.25"
                 d="m 340.8257,-89.819908 h 2.99064 l 2.41523,3.77914 2.41524,-3.77914 h 2.99774 l -4.04197,6.13755 v 4.468193 h -2.73491 v -4.468193 z" />
            </g>
          </g>
        </g>
      </g>
    </g>
  </g>
</svg>
