<?xml version="1.0" encoding="UTF-8" standalone="no"?>
<!-- Created with Inkscape (http://www.inkscape.org/) -->

<svg
   version="1.1"
   id="svg1"
   width="160.27705"
   height="157.61278"
   viewBox="0 0 160.27705 157.61278"
   sodipodi:docname="cezanne_studio.svg"
   inkscape:version="1.4 (e7c3feb1, 2024-10-09)"
   xmlns:inkscape="http://www.inkscape.org/namespaces/inkscape"
   xmlns:sodipodi="http://sodipodi.sourceforge.net/DTD/sodipodi-0.dtd"
   xmlns="http://www.w3.org/2000/svg"
   xmlns:svg="http://www.w3.org/2000/svg">
  <defs
     id="defs1" />
  <sodipodi:namedview
     id="namedview1"
     pagecolor="#ffffff"
     bordercolor="#000000"
     borderopacity="0.25"
     inkscape:showpageshadow="2"
     inkscape:pageopacity="0.0"
     inkscape:pagecheckerboard="0"
     inkscape:deskcolor="#d1d1d1"
     inkscape:zoom="2.11"
     inkscape:cx="78.436019"
     inkscape:cy="63.270142"
     inkscape:window-width="1448"
     inkscape:window-height="800"
     inkscape:window-x="0"
     inkscape:window-y="38"
     inkscape:window-maximized="0"
     inkscape:current-layer="g1" />
  <g
     inkscape:groupmode="layer"
     inkscape:label="Image"
     id="g1"
     transform="translate(14.78648,-0.61245418)">
    <path
       d="m -0.79183592,155.72924 q -1.00266508,1.152 -2.47466278,1.83466 -1.4719977,0.66133 -3.3919946,0.66133 -1.7493306,0 -3.2426616,-0.576 -1.4719981,-0.57599 -2.5599961,-1.62133 -1.087998,-1.06666 -1.706664,-2.53866 -0.618665,-1.472 -0.618665,-3.24266 0,-1.81333 0.618665,-3.28533 0.639999,-1.472 1.749331,-2.496 1.109331,-1.04533 2.6026623,-1.59999 1.493331,-0.55467 3.2213283,-0.55467 1.5999974,0 3.135995,0.576 1.5573309,0.55467 2.51732938,1.64266 l -2.47466278,2.47467 q -0.5119992,-0.704 -1.3439979,-1.04533 -0.8319986,-0.34134 -1.7066639,-0.34134 -0.9599985,0 -1.7706639,0.36267 -0.7893321,0.34133 -1.3653312,0.96 -0.5759993,0.61866 -0.8959983,1.472 -0.32,0.83199 -0.32,1.83466 0,1.024 0.32,1.87733 0.319999,0.85333 0.874665,1.472 0.5759991,0.59733 1.3653312,0.93866 0.7893321,0.34134 1.7279973,0.34134 1.0879983,0 1.8986636,-0.42667 0.8106654,-0.42667 1.3013313,-1.10933 z m 8.42665352,-4.43733 q 0,-0.832 -0.5333325,-1.42933 -0.5119992,-0.59733 -1.5573309,-0.59733 -0.5119992,0 -0.9386651,0.17066 -0.426666,0.14934 -0.7466655,0.42667 -0.3199995,0.27733 -0.5119992,0.66133 -0.1919997,0.36267 -0.213333,0.768 z m 3.2213284,1.344 q 0,0.21333 0,0.42666 0,0.21334 -0.02133,0.40534 H 3.1334914 q 0.042667,0.448 0.2559996,0.81066 0.2346663,0.36267 0.5759991,0.64 0.3626661,0.256 0.7893321,0.40533 0.4479992,0.14934 0.9173318,0.14934 0.8319987,0 1.4079978,-0.29867 0.5759991,-0.32 0.9386652,-0.81066 l 2.431996,1.53599 q -0.7466653,1.088 -1.9839967,1.68533 -1.2159981,0.576 -2.8373289,0.576 -1.1946647,0 -2.2613297,-0.36266 -1.066665,-0.384 -1.8773304,-1.088 -0.78933208,-0.72533 -1.25866467,-1.77066 -0.44799929,-1.04534 -0.44799929,-2.38933 0,-1.30134 0.44799929,-2.34667 0.44799929,-1.06666 1.21599807,-1.79199 0.7679988,-0.74667 1.8133305,-1.152 1.0453317,-0.40534 2.2613297,-0.40534 1.1733315,0 2.1546633,0.40534 0.9813318,0.384 1.6853307,1.13066 0.7039991,0.74667 1.0879981,1.81333 0.405333,1.06667 0.405333,2.432 z m 1.536011,5.18399 v -2.73066 l 4.991992,-5.20533 h -4.799993 v -2.68799 h 9.066653 v 2.62399 l -5.141326,5.29066 h 5.354659 v 2.70933 z m 17.834623,-4.62933 h -0.448 q -0.575999,0 -1.173331,0.064 -0.575999,0.0427 -1.045332,0.192 -0.447999,0.14934 -0.746665,0.448 -0.298666,0.27734 -0.298666,0.74667 0,0.29867 0.127999,0.512 0.149333,0.21333 0.362666,0.34133 0.213333,0.128 0.490666,0.192 0.277333,0.0427 0.533333,0.0427 1.066665,0 1.621331,-0.576 0.575999,-0.59733 0.575999,-1.6 z m -6.421323,-4.54399 q 0.938665,-0.896 2.175996,-1.344 1.258665,-0.448 2.559996,-0.448 1.343998,0 2.26133,0.34134 0.938665,0.32 1.514664,1.024 0.575999,0.68266 0.831999,1.74933 0.277333,1.04533 0.277333,2.49599 v 5.35466 H 30.22678 v -1.13066 h -0.064 q -0.405333,0.66133 -1.237332,1.02399 -0.810665,0.36267 -1.770663,0.36267 -0.639999,0 -1.322665,-0.17067 -0.682666,-0.17066 -1.258665,-0.55466 -0.554665,-0.384 -0.917332,-1.024 -0.362666,-0.64 -0.362666,-1.57866 0,-1.152 0.618666,-1.856 0.639999,-0.704 1.621331,-1.088 1.002665,-0.384 2.218663,-0.512 1.215998,-0.128 2.367996,-0.128 v -0.17067 q 0,-0.78933 -0.554666,-1.15199 -0.554665,-0.384 -1.365331,-0.384 -0.746665,0 -1.450664,0.32 -0.682666,0.32 -1.173332,0.768 z m 19.199968,9.17332 v -5.80266 q 0,-0.448 -0.08533,-0.85333 -0.064,-0.40533 -0.234666,-0.704 -0.170666,-0.32 -0.490666,-0.49066 -0.298666,-0.192 -0.767999,-0.192 -0.469332,0 -0.831998,0.192 -0.341333,0.17066 -0.575999,0.49066 -0.234667,0.32 -0.362666,0.74667 -0.106667,0.40533 -0.106667,0.85333 v 5.75999 H 36.02944 v -10.62398 h 3.391994 v 1.47199 h 0.04267 q 0.192,-0.34133 0.490666,-0.66133 0.319999,-0.34133 0.725332,-0.576 0.426666,-0.23466 0.917332,-0.384 0.490666,-0.14933 1.045332,-0.14933 1.066665,0 1.81333,0.384 0.746665,0.384 1.194665,1.00267 0.469332,0.59733 0.661332,1.38666 0.213333,0.78933 0.213333,1.57866 v 6.57066 z m 13.141296,0 v -5.80266 q 0,-0.448 -0.08533,-0.85333 -0.064,-0.40533 -0.234666,-0.704 -0.170667,-0.32 -0.490666,-0.49066 -0.298667,-0.192 -0.767999,-0.192 -0.469333,0 -0.831999,0.192 -0.341333,0.17066 -0.575999,0.49066 -0.234666,0.32 -0.362666,0.74667 -0.106667,0.40533 -0.106667,0.85333 v 5.75999 h -3.519994 v -10.62398 h 3.391995 v 1.47199 h 0.04267 q 0.192,-0.34133 0.490666,-0.66133 0.32,-0.34133 0.725332,-0.576 0.426666,-0.23466 0.917332,-0.384 0.490666,-0.14933 1.045332,-0.14933 1.066665,0 1.81333,0.384 0.746666,0.384 1.194665,1.00267 0.469333,0.59733 0.661332,1.38666 0.213333,0.78933 0.213333,1.57866 v 6.57066 z m 13.482629,-6.52799 q 0,-0.832 -0.533332,-1.42933 -0.511999,-0.59733 -1.557331,-0.59733 -0.511999,0 -0.938665,0.17066 -0.426666,0.14934 -0.746666,0.42667 -0.319999,0.27733 -0.511999,0.66133 -0.192,0.36267 -0.213333,0.768 z m 3.221328,1.344 q 0,0.21333 0,0.42666 0,0.21334 -0.02133,0.40534 h -7.701321 q 0.04267,0.448 0.256,0.81066 0.234666,0.36267 0.575999,0.64 0.362666,0.256 0.789332,0.40533 0.447999,0.14934 0.917332,0.14934 0.831998,0 1.407997,-0.29867 0.575999,-0.32 0.938666,-0.81066 l 2.431996,1.53599 q -0.746666,1.088 -1.983997,1.68533 -1.215998,0.576 -2.837329,0.576 -1.194665,0 -2.26133,-0.36266 -1.066665,-0.384 -1.87733,-1.088 -0.789332,-0.72533 -1.258665,-1.77066 -0.447999,-1.04534 -0.447999,-2.38933 0,-1.30134 0.447999,-2.34667 0.448,-1.06666 1.215998,-1.79199 0.767999,-0.74667 1.813331,-1.152 1.045331,-0.40534 2.26133,-0.40534 1.173331,0 2.154663,0.40534 0.981332,0.384 1.68533,1.13066 0.703999,0.74667 1.087999,1.81333 0.405332,1.06667 0.405332,2.432 z m 15.679985,-5.99466 q -0.469332,-0.59733 -1.237331,-0.93866 -0.746665,-0.36267 -1.450664,-0.36267 -0.362666,0 -0.746666,0.064 -0.362666,0.064 -0.661332,0.256 -0.298666,0.17067 -0.511999,0.46933 -0.192,0.27734 -0.192,0.72533 0,0.384 0.149333,0.64 0.170667,0.256 0.469333,0.448 0.319999,0.192 0.746665,0.36267 0.426666,0.14933 0.959999,0.32 0.767998,0.256 1.599997,0.576 0.831999,0.29866 1.514664,0.81066 0.682666,0.512 1.130665,1.28 0.448,0.74667 0.448,1.87733 0,1.30133 -0.490666,2.26133 -0.469333,0.93867 -1.279998,1.55733 -0.810666,0.61867 -1.855997,0.91733 -1.045332,0.29867 -2.154664,0.29867 -1.62133,0 -3.135995,-0.55467 -1.514664,-0.57599 -2.517329,-1.62133 l 2.38933,-2.43199 q 0.554665,0.68266 1.450664,1.152 0.917332,0.44799 1.81333,0.44799 0.405333,0 0.789332,-0.0853 0.384,-0.0853 0.661333,-0.27733 0.298666,-0.192 0.469332,-0.512 0.170667,-0.32 0.170667,-0.768 0,-0.42667 -0.213333,-0.72533 -0.213333,-0.29867 -0.618666,-0.53333 -0.383999,-0.256 -0.981332,-0.448 -0.575999,-0.21334 -1.322664,-0.448 -0.725332,-0.23467 -1.429331,-0.55467 -0.682666,-0.32 -1.237332,-0.81066 -0.533332,-0.512 -0.874665,-1.216 -0.32,-0.72533 -0.32,-1.74933 0,-1.25867 0.512,-2.15467 0.511999,-0.89599 1.343998,-1.47199 0.831998,-0.576 1.87733,-0.832 1.045332,-0.27734 2.111997,-0.27734 1.279998,0 2.602662,0.46934 1.343998,0.46933 2.346663,1.38666 z m 8.106639,3.17866 v 4.05333 q 0,0.74667 0.277333,1.13066 0.298666,0.36267 1.045332,0.36267 0.255999,0 0.533332,-0.0427 0.298666,-0.0427 0.490666,-0.128 l 0.04267,2.56 q -0.362666,0.128 -0.917332,0.21333 -0.554666,0.10667 -1.109332,0.10667 -1.066665,0 -1.791997,-0.256 -0.725332,-0.27733 -1.173331,-0.768 -0.426666,-0.512 -0.618666,-1.19466 -0.192,-0.704 -0.192,-1.55733 v -4.48 H 91.51731 v -2.62399 h 1.685331 v -2.79466 h 3.434661 v 2.79466 h 2.495996 v 2.62399 z m 11.135978,7.99999 v -1.472 h -0.0427 q -0.192,0.36267 -0.512,0.68267 -0.29866,0.32 -0.72533,0.55466 -0.40533,0.23467 -0.91733,0.384 -0.49067,0.14934 -1.04533,0.14934 -1.06667,0 -1.81333,-0.384 -0.72534,-0.384 -1.19467,-0.98133 -0.448,-0.61867 -0.66133,-1.38667 -0.192,-0.78933 -0.192,-1.6 v -6.57065 h 3.51999 v 5.75999 q 0,0.448 0.064,0.85333 0.064,0.40533 0.23467,0.72533 0.192,0.32 0.49067,0.512 0.29866,0.17067 0.78933,0.17067 0.91733,0 1.38666,-0.68267 0.49067,-0.68266 0.49067,-1.6 v -5.73865 h 3.49866 v 10.62398 z m 14.14399,0 v -1.38666 h -0.0427 q -0.512,0.81066 -1.472,1.25866 -0.93866,0.42667 -2.00533,0.42667 -1.19466,0 -2.13333,-0.46934 -0.93866,-0.46933 -1.6,-1.23733 -0.63999,-0.78933 -0.98133,-1.81333 -0.34133,-1.024 -0.34133,-2.13333 0,-1.10933 0.34133,-2.11199 0.36267,-1.024 1.00267,-1.792 0.66133,-0.768 1.57866,-1.216 0.93867,-0.448 2.09067,-0.448 1.17333,0 1.98399,0.448 0.81067,0.448 1.25867,0.98133 h 0.0427 v -6.63465 h 3.49866 v 16.12797 z m -0.128,-5.33332 q 0,-0.512 -0.192,-1.00267 -0.17067,-0.49067 -0.512,-0.87466 -0.32,-0.384 -0.78933,-0.61867 -0.46934,-0.23467 -1.06667,-0.23467 -0.61867,0 -1.088,0.23467 -0.46933,0.23467 -0.78933,0.61867 -0.32,0.36266 -0.49067,0.85333 -0.14933,0.49066 -0.14933,1.00266 0,0.512 0.14933,1.024 0.17067,0.49067 0.49067,0.87467 0.32,0.384 0.78933,0.61866 0.46933,0.23467 1.088,0.23467 0.59733,0 1.06667,-0.23467 0.46933,-0.23466 0.78933,-0.61866 0.34133,-0.384 0.512,-0.87467 0.192,-0.49067 0.192,-1.00266 z m 9.91999,-8.68266 q 0,0.40534 -0.17066,0.768 -0.14934,0.34133 -0.42667,0.59733 -0.256,0.256 -0.64,0.40534 -0.36266,0.14933 -0.768,0.14933 -0.85333,0 -1.42933,-0.55467 -0.576,-0.576 -0.576,-1.36533 0,-0.384 0.14934,-0.72533 0.14933,-0.36267 0.42666,-0.61867 0.27733,-0.25599 0.64,-0.40533 0.36267,-0.17066 0.78933,-0.17066 0.40534,0 0.768,0.14933 0.384,0.14933 0.64,0.40533 0.27733,0.256 0.42667,0.61867 0.17066,0.34133 0.17066,0.74666 z m -3.75466,14.01598 v -10.62398 h 3.49866 v 10.62398 z m 17.53597,-5.35466 q 0,1.30133 -0.46933,2.368 -0.46934,1.04533 -1.28,1.792 -0.81067,0.72533 -1.87733,1.13066 -1.06667,0.40533 -2.28266,0.40533 -1.19467,0 -2.28267,-0.40533 -1.06666,-0.40533 -1.87733,-1.13066 -0.78933,-0.74667 -1.25866,-1.792 -0.46934,-1.06667 -0.46934,-2.368 0,-1.30133 0.46934,-2.34666 0.46933,-1.04533 1.25866,-1.77066 0.81067,-0.72534 1.87733,-1.10934 1.088,-0.384 2.28267,-0.384 1.21599,0 2.28266,0.384 1.06666,0.384 1.87733,1.10934 0.81066,0.72533 1.28,1.77066 0.46933,1.04533 0.46933,2.34666 z m -3.37066,0 q 0,-0.512 -0.17067,-1.00266 -0.17067,-0.49067 -0.49066,-0.85333 -0.32,-0.384 -0.78934,-0.61867 -0.46933,-0.23467 -1.08799,-0.23467 -0.61867,0 -1.088,0.23467 -0.46934,0.23467 -0.78934,0.61867 -0.29866,0.36266 -0.46933,0.85333 -0.14933,0.49066 -0.14933,1.00266 0,0.512 0.14933,1.00267 0.17067,0.49066 0.49067,0.896 0.32,0.384 0.78933,0.61866 0.46933,0.23467 1.088,0.23467 0.61866,0 1.088,-0.23467 0.46933,-0.23466 0.78933,-0.61866 0.32,-0.40534 0.46933,-0.896 0.17067,-0.49067 0.17067,-1.00267 z"
       id="text8"
       style="-inkscape-font-specification:'Avenir Next, Bold';fill:#808080;fill-opacity:1"
       aria-label="Cezanne Studio" />
    <g
       id="g2">
      <path
         style="display:inline;fill:#a9a9a9"
         d="M 55.5,125.34779 C 40.509271,122.96318 29.312711,117.33873 18.862243,106.94326 12.83852,100.95124 10.377098,97.565756 7.2145703,90.922849 2.1248447,80.231853 0.72311378,74.034096 0.81495542,62.626934 0.95538583,45.18482 6.7834049,31.186879 18.985142,18.985142 34.082313,3.8879711 55.200631,-2.3671838 76.5,1.9494885 85.099712,3.6923636 97.600094,10.02373 104,15.878068 l 5.5,5.031147 -11.379014,0.04539 c -9.934545,0.03963 -12.282964,-0.292159 -18.5,-2.613719 C 70.312458,14.864905 56.543432,14.610737 47.893849,17.755224 25.368737,25.944047 11.902263,48.414579 15.984528,71 c 5.385129,29.7936 36.780296,47.55897 64.470152,36.48129 5.366109,-2.14678 7.741994,-2.47615 17.623781,-2.44317 l 11.421539,0.0381 -5.0984,4.75835 c -6.121329,5.71305 -16.63211,11.40952 -25.067839,13.5859 -6.621344,1.70827 -18.945615,2.70486 -23.833761,1.9273 z M 71.961601,84.75 71.923202,77.5 87.211601,62.781985 102.5,48.06397 87.25,48.031985 72,48 v -7 -7 h 27 27 v 6.762935 6.762935 L 111.5,62 C 103.525,69.960772 97,76.817451 97,77.237065 97,77.656679 103.525,78 111.5,78 H 126 v 7 7 H 99 72 Z"
         id="path3" />
      <path
         style="fill:#089cdd"
         d="M 71.961601,84.75 71.923202,77.5 87.211601,62.781985 102.5,48.06397 87.25,48.031985 72,48 v -7 -7 h 27 27 v 6.762935 6.762935 L 111.5,62 C 103.525,69.960772 97,76.817451 97,77.237065 97,77.656679 103.525,78 111.5,78 H 126 v 7 7 H 99 72 Z"
         id="path2" />
    </g>
  </g>
</svg>
