<svg id="Layer_1" data-name="Layer 1" xmlns="http://www.w3.org/2000/svg" viewBox="0 0 1920 540"><defs><style>.cls-1{fill:#d3d3d3;}.cls-2{fill:#feff00;}.cls-3{fill:#ccc;}</style></defs><title>cgal</title><path class="cls-1" d="M262.03516,509.88916A219.98171,219.98171,0,1,1,417.58545,445.458,218.54155,218.54155,0,0,1,262.03516,509.88916Zm0-435.83691A215.85563,215.85563,0,1,0,414.668,137.2749,214.44056,214.44056,0,0,0,262.03516,74.05225Z"/><path class="cls-1" d="M231.19629,435.96973c-91.21777,0-165.42871-74.21094-165.42871-165.42871S139.97852,105.1123,231.19629,105.1123,396.625,179.32324,396.625,270.541,322.41406,435.96973,231.19629,435.96973Zm0-326.73194c-88.94287,0-161.30274,72.36035-161.30274,161.30323s72.35987,161.30273,161.30274,161.30273S392.49951,359.48389,392.49951,270.541,320.13916,109.23779,231.19629,109.23779Z"/><path class="cls-1" d="M304.11621,412.06152a60.87012,60.87012,0,1,1,60.87012-60.87011A60.939,60.939,0,0,1,304.11621,412.06152Zm0-117.61425a56.74414,56.74414,0,1,0,56.74414,56.74414A56.8081,56.8081,0,0,0,304.11621,294.44727Z"/><path class="cls-1" d="M244.72607,292.46289a34.6897,34.6897,0,1,1,34.69-34.68945A34.729,34.729,0,0,1,244.72607,292.46289Zm0-65.25342a30.56372,30.56372,0,1,0,30.564,30.564A30.59858,30.59858,0,0,0,244.72607,227.20947Z"/><path class="cls-1" d="M323.9873,176.22754a34.6897,34.6897,0,1,1,34.69-34.68945A34.72861,34.72861,0,0,1,323.9873,176.22754Zm0-65.25342a30.56372,30.56372,0,1,0,30.564,30.564A30.59816,30.59816,0,0,0,323.9873,110.97412Z"/><rect class="cls-1" x="242.66309" y="107.1748" width="4.12598" height="304.80811"/><rect class="cls-1" x="103.19385" y="257.51611" width="330.42432" height="4.12598"/><path class="cls-1" d="M435.68115,452.83154H52.77588V69.92627H435.68115Zm-378.77929-4.126H431.55518V74.05225H56.90186Z"/><rect class="cls-1" x="228.79723" y="47.41897" width="4.12575" height="377.54438" transform="translate(-86.47207 144.63274) rotate(-29.55976)"/><rect class="cls-1" x="100.73606" y="237.58606" width="351.49223" height="4.12525" transform="translate(-82.4935 168.86487) rotate(-29.76339)"/><path class="cls-1" d="M363.36475,395.50049l-.88282-4.03028c.312-.06835,31.41846-6.97851,50.44336-19.28906,19.15332-12.39306,36.33252-29.48926,36.50391-29.66015l2.917,2.917c-.17431.17431-17.6499,17.57031-37.17969,30.207C395.50635,388.36621,364.66748,395.21484,363.36475,395.50049Z"/><path class="cls-1" d="M363.53418,435.877l-1.22168-3.94043c.27051-.084,27.25439-8.46972,43.79541-15.40869,15.37354-6.44922,47.28711-27.57715,47.60791-27.78955l2.28027,3.4375c-1.32177.87744-32.55908,21.55664-48.29248,28.15674C390.978,427.34863,363.80664,435.79248,363.53418,435.877Z"/><path class="cls-1" d="M462.2876,182.124c-.32715-.2539-32.89209-25.48047-46.99219-33.85156-15.46826-9.18408-52.67334-22.11377-53.04736-22.24316l1.35009-3.89844c1.54346.53467,37.9751,13.19629,53.80372,22.59375,14.31982,8.50195,46.06933,33.09668,47.41406,34.13965Z"/><path class="cls-1" d="M457.79492,133.85059c-.26562-.1792-26.79931-18.00977-45.55664-28.40186C394.874,95.8291,371.64453,89.07031,365.08643,88.041c.14306,12.45947-6.16651,43.13476-6.45215,44.51562l-4.04-.835c.07324-.354,7.30273-35.49512,6.27734-45.42285l-.01074-.20117a2.209,2.209,0,0,1,1.103-1.92481c2.11718-1.25683,12.09033,1.56445,20.083,4.15332,7.00927,2.27,20.51269,7.04444,32.19042,13.51416,18.915,10.479,45.59375,28.40772,45.86133,28.5874Z"/><path class="cls-2" d="M262.03513,66.028c-49.9359,1.91817-73.90875,3.72013-120.83083,28.7222C93.23956,120.3079,42.89184,170.20356,38.6686,256.22167c-2.60478,53.05384,16.89251,98.18182,48.61257,128.90158,46.92373,45.444,73.9539,54.52438,148.69629,64.15727,60.138,7.75065,123.57335-17.30605,123.57335-17.30605s1.71119-14.21966,2.38056-27.49557c.5411-10.73188,2.491-39.36746,2.491-39.36746s-22.02385,48.25367-85.72936,50.09583-87.70454-15.38781-111.65809-33.14613c-28.14014-20.8621-66.0735-55.17379-67.79123-125.33821-1.39579-57.014,15.49011-73.21259,28.14581-93.88224,14.61762-23.87392,49.44688-52.53972,93.23722-58.08474,38.5687-4.88382,70.734-5.19277,117.0493,10.07181,20.85361,6.87292,18.93828,31.5109,18.93828,31.5109l8.48951-65.49722S287.91334,65.034,262.03513,66.028Z"/><path d="M259.91455,452.81348a189.70645,189.70645,0,0,1-24.20068-1.48682C160.33936,441.61182,133.1958,432.46143,85.84619,386.605,51.59229,353.43115,34.106,307.09131,36.6084,256.12061c4.73584-96.47022,66.95752-143.65235,103.62549-163.19043,47.13525-25.11622,71.3789-27.0293,121.72216-28.96338h0c25.83692-.98242,100.4004,14.20654,103.562,14.85351l1.87793.38477L358.65967,146.604l-4.10205-.4248c.07031-.93848,1.51172-23.11768-17.52735-29.39258-45.26709-14.91943-76.86425-14.95947-116.144-9.98437-42.28027,5.35351-77.19238,33.35986-91.7373,57.11572-1.75245,2.8623-3.61768,5.68848-5.4209,8.42139-11.60791,17.58984-23.61084,35.7788-22.42237,84.33349,1.6377,66.88428,36.64356,101.25733,66.958,123.731,22.9336,17.00293,46.64063,34.58545,110.36963,32.74121,61.708-1.78418,83.69775-48.41943,83.9126-48.89014l4.7041-10.30664-.76953,11.30322c-.01953.28614-1.95459,28.74024-2.48926,39.33155-.66455,13.19482-2.375,27.49511-2.39258,27.63818l-.147,1.22022-1.14307.45166C359.75488,434.11182,311.71875,452.813,259.91455,452.81348Zm2.19971-384.72461c-49.687,1.90918-73.60694,3.79345-119.93994,28.48193-27.05274,14.415-50.21045,34.28125-66.96973,57.45166-20.9668,28.98731-32.56641,63.40625-34.47607,102.30029-2.44288,49.76709,14.59912,94.9834,47.98779,127.31836,46.48779,45.02246,73.21924,54.01709,147.5249,63.59375,54.51563,7.02686,112.5752-13.46191,121.40527-16.74463.42481-3.7373,1.68018-15.30859,2.22461-26.11523.34766-6.89111,1.28467-21.292,1.90577-30.645a95.66242,95.66242,0,0,1-14.939,17.26221c-12.54736,11.45215-34.54443,25.30713-68.08545,26.27685q-4.74169.137-9.20605.13575c-58.30616.00146-81.38184-17.11133-103.73975-33.68653-31.06738-23.03222-66.94385-58.27539-68.625-126.94482-1.22021-49.84766,11.70215-69.42969,23.103-86.70655,1.8667-2.82861,3.62988-5.50048,5.3457-8.30322,15.54736-25.39209,50.87012-53.49951,94.73731-59.0542,39.86767-5.04687,71.94775-5.00342,117.95361,10.15918,10.57812,3.48633,15.69824,11.26221,18.15869,18.459L362.811,82.48291c-11.96485-2.396-77.59913-15.28174-100.69678-14.394Z"/><path class="cls-1" d="M738.439,508.33789a219.98171,219.98171,0,1,1,155.5503-64.43115A218.54155,218.54155,0,0,1,738.439,508.33789Zm0-435.83691a215.85563,215.85563,0,1,0,152.63282,63.22265A214.44053,214.44053,0,0,0,738.439,72.501Z"/><path class="cls-1" d="M707.60059,434.418c-91.21778,0-165.42871-74.21094-165.42871-165.42871s74.21093-165.42871,165.42871-165.42871S873.0293,177.77148,873.0293,268.98926,798.81836,434.418,707.60059,434.418Zm0-326.73193c-88.94288,0-161.30323,72.36035-161.30323,161.30322s72.36035,161.30322,161.30323,161.30322,161.30273-72.36035,161.30273-161.30322S796.54346,107.686,707.60059,107.686Z"/><path class="cls-1" d="M748.19727,353.54834a36.61939,36.61939,0,1,1,36.61914-36.61963A36.6614,36.6614,0,0,1,748.19727,353.54834Zm0-69.11279a32.49341,32.49341,0,1,0,32.49316,32.49316A32.53012,32.53012,0,0,0,748.19727,284.43555Z"/><path class="cls-1" d="M721.12988,290.91162a34.68994,34.68994,0,1,1,34.68994-34.68994A34.72944,34.72944,0,0,1,721.12988,290.91162Zm0-65.25391a30.564,30.564,0,1,0,30.564,30.564A30.59858,30.59858,0,0,0,721.12988,225.65771Z"/><path class="cls-1" d="M800.39111,174.67578a34.6897,34.6897,0,1,1,34.68994-34.68945A34.72861,34.72861,0,0,1,800.39111,174.67578Zm0-65.25342a30.56372,30.56372,0,1,0,30.564,30.564A30.59816,30.59816,0,0,0,800.39111,109.42236Z"/><rect class="cls-1" x="719.06689" y="105.62305" width="4.12598" height="298.85547"/><rect class="cls-1" x="579.59766" y="255.96436" width="330.42432" height="4.12598"/><path class="cls-1" d="M912.085,451.28027H529.17969V68.375H912.085Zm-378.7793-4.126H907.959V72.501H533.30566Z"/><rect class="cls-1" x="705.20104" y="45.8677" width="4.12575" height="377.54438" transform="translate(-23.69882 379.45566) rotate(-29.55976)"/><rect class="cls-1" x="563.79003" y="239.58166" width="365.78469" height="4.12525" transform="translate(-21.45669 402.5446) rotate(-29.76339)"/><path class="cls-1" d="M839.76855,393.94873l-.88281-4.03027c.312-.06836,31.41846-6.97852,50.44336-19.28907,19.15332-12.39306,36.33252-29.48925,36.50391-29.66015l2.917,2.917c-.17432.17432-17.6499,17.57031-37.17969,30.207C871.91016,386.81445,841.07129,393.66309,839.76855,393.94873Z"/><path class="cls-1" d="M839.9541,431.84033l-1.2539-3.93066c.2705-.08643,27.26269-8.71924,43.81152-15.66162,15.31738-6.42578,43.25488-27.50342,43.53516-27.71582l2.48925,3.29c-1.16162.8789-28.63623,21.60546-44.42871,28.23046C867.38965,423.06592,840.22656,431.75342,839.9541,431.84033Z"/><path class="cls-1" d="M938.69189,180.57227c-.32714-.25391-32.89257-25.48047-46.99267-33.85157-15.46826-9.18359-52.67334-22.11377-53.04736-22.24316l1.35058-3.89844c1.543.53467,37.97461,13.19678,53.80322,22.59375,14.31983,8.50195,46.06983,33.09668,47.41455,34.13965Z"/><path class="cls-1" d="M934.19873,135.02734c-.26562-.1792-26.79932-18.01025-45.55664-28.40185-17.36377-9.61963-40.59375-16.37842-47.15234-17.40772.14355,12.45948-6.166,43.13477-6.45166,44.51563l-4.04-.835c.07324-.354,7.30273-35.49512,6.27734-45.42285l-.01074-.20118a2.209,2.209,0,0,1,1.103-1.9248c2.11523-1.25635,12.09033,1.56445,20.083,4.15332,7.00928,2.27,20.5127,7.04443,32.19043,13.51416,18.915,10.47852,45.59375,28.40771,45.86133,28.5874Z"/><path class="cls-1" d="M804.771,329.20312a36.61938,36.61938,0,1,1,36.61914-36.61962A36.6614,36.6614,0,0,1,804.771,329.20312Zm0-69.11279a32.49341,32.49341,0,1,0,32.49316,32.49317A32.53013,32.53013,0,0,0,804.771,260.09033Z"/><path class="cls-1" d="M868.334,351.81641a33.73877,33.73877,0,1,1,33.73829-33.73877A33.77712,33.77712,0,0,1,868.334,351.81641Zm0-63.35157a29.6128,29.6128,0,1,0,29.61231,29.6128A29.64625,29.64625,0,0,0,868.334,288.46484Z"/><path class="cls-1" d="M1379.55859,450.43213H996.6543V67.52686h382.90429Zm-378.77929-4.126h374.65429V71.65283H1000.7793Z"/><path class="cls-1" d="M1188.60254,509.88525a219.98089,219.98089,0,1,1,155.5498-64.43115A218.54182,218.54182,0,0,1,1188.60254,509.88525Zm0-435.83691A215.85566,215.85566,0,1,0,1341.23535,137.271,214.44447,214.44447,0,0,0,1188.60254,74.04834Z"/><path class="cls-1" d="M1372.67383,291.90723a34.689,34.689,0,1,1,34.68945-34.689A34.72831,34.72831,0,0,1,1372.67383,291.90723Zm0-65.252a30.563,30.563,0,1,0,30.56445,30.563A30.598,30.598,0,0,0,1372.67383,226.65527Z"/><rect class="cls-1" x="998.9082" y="254.41162" width="377.73438" height="4.125"/><rect class="cls-1" x="1185.71289" y="71.98535" width="4.125" height="375.22754"/><rect class="cls-1" x="998.9082" y="318.31494" width="377.73438" height="4.125"/><rect class="cls-1" x="998.7168" y="287.84131" width="377.92578" height="4.125"/><path class="cls-1" d="M1005.10938,292.71631a34.68921,34.68921,0,1,1,34.68847-34.689A34.7283,34.7283,0,0,1,1005.10938,292.71631Zm0-65.25244a30.56323,30.56323,0,1,0,30.56347,30.56347A30.59806,30.59806,0,0,0,1005.10938,227.46387Z"/><path class="cls-3" d="M1376.80273,445.40771a47.73047,47.73047,0,1,1,47.7295-47.73046A47.78492,47.78492,0,0,1,1376.80273,445.40771Zm0-91.87011a44.13965,44.13965,0,1,0,44.13965,44.13965A44.19024,44.19024,0,0,0,1376.80273,353.5376Z"/><path class="cls-3" d="M998.9082,451.0127a47.73047,47.73047,0,1,1,47.73047-47.73047A47.78451,47.78451,0,0,1,998.9082,451.0127Zm0-91.87012a44.13965,44.13965,0,1,0,44.14063,44.13965A44.189,44.189,0,0,0,998.9082,359.14258Z"/><path class="cls-3" d="M1119.03809,450.5332a34.9856,34.9856,0,1,1,34.98437-34.98584A35.02536,35.02536,0,0,1,1119.03809,450.5332Zm0-67.33935a32.35376,32.35376,0,1,0,32.35351,32.35351A32.39092,32.39092,0,0,0,1119.03809,383.19385Z"/><path class="cls-3" d="M1092.583,482.19824a34.98535,34.98535,0,1,1,34.98535-34.98535A35.0241,35.0241,0,0,1,1092.583,482.19824Zm0-67.33886a32.35352,32.35352,0,1,0,32.35449,32.35351A32.39008,32.39008,0,0,0,1092.583,414.85938Z"/><path class="cls-1" d="M1259.32129,449.00684a18.89771,18.89771,0,1,1,18.89746-18.898A18.91919,18.91919,0,0,1,1259.32129,449.00684Zm0-33.66944a14.77173,14.77173,0,1,0,14.77246,14.77149A14.78874,14.78874,0,0,0,1259.32129,415.3374Z"/><path class="cls-3" d="M1314.2168,480.31592a34.61206,34.61206,0,1,1,34.6123-34.61231A34.65162,34.65162,0,0,1,1314.2168,480.31592Zm0-66.62061a32.00855,32.00855,0,1,0,32.00879,32.0083A32.045,32.045,0,0,0,1314.2168,413.69531Z"/><path class="cls-1" d="M1855.23926,450.04346H1471.18359V65.98682h384.05567Zm-379.93067-4.126h375.80567V70.11279H1475.30859Z"/><path class="cls-1" d="M1851.44043,101.19824a33.14819,33.14819,0,1,1,33.14746-33.14844A33.18582,33.18582,0,0,1,1851.44043,101.19824Zm0-62.17041a29.02222,29.02222,0,1,0,29.02246,29.022A29.05506,29.05506,0,0,0,1851.44043,39.02783Z"/><path class="cls-1" d="M1848.415,291.17529a33.14819,33.14819,0,1,1,33.14746-33.148A33.1854,33.1854,0,0,1,1848.415,291.17529Zm0-62.17041a29.02222,29.02222,0,1,0,29.02246,29.02246A29.05547,29.05547,0,0,0,1848.415,229.00488Z"/><rect class="cls-1" x="1545.53094" y="304.49715" width="328.03284" height="4.12484" transform="translate(66.06177 868.24103) rotate(-29.03484)"/><path class="cls-1" d="M1715.46777,398.58154a45.25977,45.25977,0,1,1,45.25977-45.25976A45.31053,45.31053,0,0,1,1715.46777,398.58154Zm0-86.39355a41.13379,41.13379,0,1,0,41.13477,41.13379A41.18081,41.18081,0,0,0,1715.46777,312.188Z"/><path class="cls-1" d="M1763.125,367.38818l-4.10547-.41455c.06836-.67627,6.27344-68.51465-38.86328-144.11572-24.27832-40.667-66.02637-64.62891-96.77344-77.56982-34.8789-14.6792-67.54492-20.48584-79.94238-20.69727-.26172-.00439-.53418-.00684-.81055-.00684-23.75781,0-98.11621,16.31055-98.874,16.47754l-.88672-4.02929c3.14648-.69336,77.3418-16.99073,100.6416-16.56641,12.70508.2168,46.05957,6.11572,81.47266,21.02,31.3164,13.18018,73.86328,37.62939,98.71582,79.25684a284.15379,284.15379,0,0,1,37.11035,102.3667C1764.83105,349.7627,1763.19629,366.68115,1763.125,367.38818Z"/><path class="cls-1" d="M1598.92578,132.2832a33.14819,33.14819,0,1,1,33.14746-33.14795A33.1856,33.1856,0,0,1,1598.92578,132.2832Zm0-62.17041a29.02222,29.02222,0,1,0,29.02246,29.02246A29.05568,29.05568,0,0,0,1598.92578,70.11279Z"/><path class="cls-1" d="M1472.668,132.2832a33.14819,33.14819,0,1,1,33.14746-33.14795A33.18539,33.18539,0,0,1,1472.668,132.2832Zm0-62.17041a29.02222,29.02222,0,1,0,29.02246,29.02246A29.05547,29.05547,0,0,0,1472.668,70.11279Z"/><path class="cls-1" d="M1569.90234,68.0498h-4.125a29.02246,29.02246,0,0,0-58.04492,0h-4.125a33.14746,33.14746,0,1,1,66.29492,0Z"/><path class="cls-1" d="M1471.82422,448.6958a33.1482,33.1482,0,1,1,33.14746-33.14844A33.186,33.186,0,0,1,1471.82422,448.6958Zm0-62.17041a29.02222,29.02222,0,1,0,29.02246,29.022A29.05526,29.05526,0,0,0,1471.82422,386.52539Z"/><rect class="cls-1" x="1473.24609" y="255.56885" width="378.6416" height="4.125"/><rect class="cls-1" x="1471.82422" y="349.67969" width="378.82324" height="4.125"/><rect class="cls-1" x="1472.66797" y="97.07275" width="378.77246" height="4.125"/><path class="cls-2" d="M832.35321,141.53786l8.4429-53.96265S804.77088,63.061,710.31493,70.38946c-52.85121,4.10053-194.1867,52.29422-194.1867,198.755,0,108.8483,99.77973,159.37378,99.77973,159.37378s63.51363,31.74278,137.389,20.51424c73.61131-11.18839,84.3729-20.24045,84.3729-20.24045s-3.80249-93.762,10.071-120.50321c3.6749-7.0834,19.15151-18.3809,19.15151-18.3809h-115.898s16.8086,12.69229,20.18552,19.91175c9.596,20.51511,2.79365,100.74258,2.79365,100.74258s-52.64174,8.44268-106.43872-10.16907c-41.06426-14.2067-122.75339-80.04681-82.79089-202.2743C619.295,92.44256,743.685,84.90032,800.39136,107.35943,831.595,119.71794,832.35321,141.53786,832.35321,141.53786Z"/><path d="M721.17627,453.47314c-59.15527.00293-105.646-22.83789-106.19092-23.10986-.26221-.13281-25.56006-13.1001-50.4624-39.29248-23.01856-24.21142-50.457-65.01758-50.457-121.92627,0-34.38867,7.7959-65.77051,23.17138-93.27344,13.05518-23.35254,31.54053-43.92627,54.94239-61.15039C631.24414,85.96875,679.58057,70.70508,710.15527,68.333c94.09619-7.3003,130.30567,16.51953,131.80127,17.53662l1.0791.73437-8.64453,55.25293-4.0166-.24218-.08252.00293c-.03613-.83887-1.21826-20.67969-30.66064-32.34034-32.7461-12.96972-90.394-16.41113-139.584,6.67627-36.26757,17.02344-60.94384,44.8833-73.34277,82.80616-21.56006,65.94335-6.023,112.48974,10.80811,139.92529,20.29052,33.07519,50.76513,52.86328,70.69628,59.75879,47.52784,16.44287,94.66407,11.49511,103.84034,10.30469.89209-11.49366,5.77246-79.86084-2.73828-98.05469-2.59229-5.54248-14.99854-15.69531-19.56006-19.14014l-4.91162-3.709h128.376l-5.10644,3.729c-4.19678,3.06445-15.708,12.21191-18.53711,17.665-13.46338,25.95068-9.87842,118.5376-9.84082,119.46973l.041,1.01074-.77441.65137c-.45752.38476-12.04883,9.55371-85.39063,20.70166A216.09323,216.09323,0,0,1,721.17627,453.47314ZM743.95215,71.09863c-10.231,0-21.36719.40821-33.47754,1.34766-22.37744,1.73633-71.95947,13.29346-115.84961,45.59717-22.92432,16.87256-41.021,37.00586-53.78662,59.84082-15.02734,26.88037-22.647,57.58447-22.647,91.26025,0,55.54639,26.82129,95.41748,49.32177,119.0835,24.417,25.68213,49.08008,38.32519,49.32618,38.4497.62011.30957,63.8125,31.31348,136.14746,20.31543,62.17529-9.45019,79.01416-17.23828,82.5791-19.29-.17627-5.08691-.80322-26.01123-.125-49.19531,1.04883-35.85644,4.57129-59.80127,10.46875-71.16845,2.52344-4.86377,9.9375-11.34229,14.939-15.36866H756.91113c5.37061,4.41944,13.73194,11.8335,16.13721,16.9751,9.71777,20.77539,3.26025,98.49268,2.98047,101.791l-.13623,1.60693-1.59229.25537c-.53174.085-53.7749,8.30957-107.43994-10.25683-20.57519-7.11817-52.0039-27.49561-72.86426-61.5C576.71,312.665,560.73291,264.91943,582.78369,197.47754c12.58643-38.49756,38.69776-67.97949,75.51074-85.2583,50.29981-23.60889,109.31153-20.06348,142.85645-6.77783,16.666,6.60107,24.8081,15.93408,28.70361,22.60107a38.54072,38.54072,0,0,1,1.9336,3.76172L838.544,88.62354C832.83594,85.36182,804.38623,71.09863,743.95215,71.09863Z"/><path class="cls-3" d="M830.81543,173.94043l-3.12207-1.51563c6.34326-13.0664,3.48144-30.42968,3.45166-30.60351l3.4209-.583C834.69434,141.99268,837.63965,159.88281,830.81543,173.94043Z"/><rect class="cls-1" x="1473.24609" y="401.21973" width="378.19434" height="4.125"/><path class="cls-1" d="M349.13818,181.36865l-3.73632-1.749c.0913-.19531,9.14941-19.7124,9.14941-33.28076h4.126C358.67725,160.83057,349.52783,180.53711,349.13818,181.36865Z"/><rect class="cls-1" x="1130.25576" y="69.48473" width="4.1252" height="46.11111" transform="translate(19.59858 321.80707) rotate(-16.31459)"/><rect class="cls-1" x="1189.62319" y="79.42626" width="22.80733" height="4.12551" transform="translate(825.81627 1225.30848) rotate(-75.72034)"/><rect class="cls-1" x="1724.85622" y="454.55228" width="21.19869" height="4.1259" transform="translate(529.39145 1785.41652) rotate(-62.51306)"/><path class="cls-2" d="M1377.30408,447.21286s-32.9362-9.72385-37.60933-19.18841C1294.21822,335.92014,1188.49007,68.05,1188.49007,68.05h-35.25978S1074.31905,327.861,1028.075,430.669c-3.43886,7.64513-29.16643,16.54386-29.16643,16.54386h118.20068s-26.24895-13.26688-26.49846-21.96351c-.82873-28.88572,32.17192-103.66354,32.17192-103.66354H1231.3623s32.34635,74.77782,45.3944,107.97375c2.23412,5.68389-16.88568,17.6533-16.88568,17.6533Zm-244.284-158.11247,36.28158-115.13046,48.40318,115.13046Z"/><path d="M1391.5752,449.27588H1252.69238l6.084-3.811c9.24609-5.7915,16.90136-13.01269,16.06054-15.15088-11.96582-30.44238-40.5498-96.75146-44.83007-106.665h-105.873c-4.25,9.81347-32.21,75.45166-31.46191,101.5415.14843,5.15137,14.92382,14.90283,25.36816,20.18164l7.72363,3.90381H986.64062l11.59278-4.01221c9.62305-3.33008,25.72265-10.46679,27.96094-15.44092,45.66113-101.51318,124.27343-359.77539,125.0625-362.37255l.44433-1.46338h38.19238l.51563,1.30566c1.05664,2.67773,106.21582,268.84375,151.13477,359.81885,3.50585,7.1001,27.42382,15.48974,36.34375,18.123Zm-124.93653-4.126h98.05078c-10.27734-3.82763-23.71289-9.8706-26.84472-16.21191-43.36524-87.8291-142.67774-338.40332-150.75684-358.8252h-32.33008c-6.46875,21.18506-80.8291,263.64405-124.80176,361.40235-2.2705,5.04736-12.17968,10.19531-20.12011,13.63476h99.19043c-8.33985-4.8706-20.28223-13.02-20.47754-19.84131-.35156-12.2417,4.99805-33.583,15.89941-63.43066,8.07617-22.11279,16.36426-40.9375,16.44727-41.125l.542-1.23h111.28027l.53809,1.24414c.32324.748,32.50976,75.18945,45.4209,108.03809C1280.62012,433.74854,1273.11035,440.47412,1266.63867,445.1499Zm-45.8291-153.98633H1130.208l38.8164-123.17627Zm-84.97656-4.126h78.76758L1169.5791,179.95215Z"/><path class="cls-2" d="M1477.08376,68.05s22.25855,7.67536,24.56116,19.18841,0,343.08875,0,343.08875l-28.39885,16.8858h267.10266s12.15281-22.573,16.11826-37.60928c3.32737-12.61674,4.60522-56.03016,4.60522-56.03016s-2.30261,37.60929-45.28465,44.51711-149.66959,1.53508-149.66959,1.53508l.76754-306.247s9.978-26.86378,21.491-25.3287S1477.08376,68.05,1477.08376,68.05Z"/><path d="M1741.58105,449.27588H1465.74121l33.84863-20.12695c.79493-114.92286,1.81446-332.59327.03223-341.50635-1.69531-8.479-17.33008-15.61035-23.21094-17.64307l-12.07226-4.17187,12.77051.15966c37.08007.46387,90.89941.91993,106.92578.54444a9.74014,9.74014,0,0,1,4.61425-.52637c2.22657.29639,2.61329,1.46,2.54688,2.3833-.14649,2.0127-1.47559,2.11426-6.3252,2.23877-6.915,3.03369-13.66894,17.2085-15.92382,23.12842l-.76172,303.90283c14.74218.68262,108.19336,4.67529,147.27441-1.60449,17.18359-2.76172,29.73438-10.78516,37.30371-23.84668a47.61684,47.61684,0,0,0,6.25-18.76025l4.12012.18652c-.05176,1.78223-1.32324,43.79639-4.67285,56.4956-3.98145,15.09913-15.79492,37.13086-16.2959,38.06153Zm-260.83007-4.126h258.35547c2.44335-4.66064,11.998-23.29931,15.36621-36.07226,1.90918-7.24121,3.14257-25.2002,3.835-38.75635-5.52539,11.6416-17.28809,25.80322-42.19336,29.80615-42.70117,6.86279-149.03028,1.61182-150.09961,1.55811l-1.96387-.09864.77344-308.58154.12793-.34521c.74609-2.0083,5.67285-14.77539,12.86035-21.91651q-2.77881.02637-6.21191.03955c-9.3086.03467-22.27149-.00683-38.53711-.12207-17.55274-.12451-35.2461-.31054-45.91895-.43066,6.81055,3.56738,15.06152,9.29346,16.52246,16.60351,2.31739,11.58692.13477,329.96.04,343.50733l-.00781,1.16406Z"/></svg>