<?xml version="1.0" encoding="UTF-8" standalone="no"?>
<svg
   xmlns:dc="http://purl.org/dc/elements/1.1/"
   xmlns:cc="http://creativecommons.org/ns#"
   xmlns:rdf="http://www.w3.org/1999/02/22-rdf-syntax-ns#"
   xmlns:svg="http://www.w3.org/2000/svg"
   xmlns="http://www.w3.org/2000/svg"
   version="1.0"
   id="svg2"
   height="48"
   width="48">
  <defs
     id="defs4" />
  <metadata
     id="metadata7">
    <rdf:RDF>
      <cc:Work
         rdf:about="">
        <dc:format>image/svg+xml</dc:format>
        <dc:type
           rdf:resource="http://purl.org/dc/dcmitype/StillImage" />
        <cc:license
           rdf:resource="" />
        <dc:title>Afanasy Talk</dc:title>
        <dc:creator>
          <cc:Agent>
            <dc:title>CGRU</dc:title>
          </cc:Agent>
        </dc:creator>
        <dc:subject>
          <rdf:Bag>
            <rdf:li>Afanasy</rdf:li>
            <rdf:li>Talk</rdf:li>
          </rdf:Bag>
        </dc:subject>
      </cc:Work>
    </rdf:RDF>
  </metadata>
  <g
     style="display:inline"
     id="layer1">
    <path
       id="path5065"
       d="M 90.000001,-5.0000018 77.169326,41.186499 114.66879,71.046327 66.777921,73.116043 49.967509,118.00735 33.199999,73.100001 -14.688871,70.984525 22.839108,41.160543 10.05257,-5.0381971 50.013646,21.436914 Z"
       style="display:inline;fill:#efcd4a;fill-opacity:1;stroke:#f4802d;stroke-width:9.70875072;stroke-linejoin:miter;stroke-miterlimit:4;stroke-dasharray:none;stroke-opacity:1"
       transform="matrix(0.28712464,0,0,-0.30185385,9.646651,41.050086)" />
    <g
       id="text5194"
       style="font-style:normal;font-variant:normal;font-weight:bold;font-stretch:normal;line-height:0%;font-family:'Century Schoolbook L';-inkscape-font-specification:'Century Schoolbook L Medium';text-align:start;writing-mode:lr-tb;text-anchor:start;display:inline;fill:#183e00;fill-opacity:1;stroke:none"
       transform="scale(1.1159467,0.89610013)"
       aria-label="CG
RU">
      <path
         id="path15"
         style="font-size:25.12597275px;line-height:1.25"
         d="M 18.263381,2.0483316 H 17.182965 L 15.826162,3.2795043 C 14.167848,2.2744654 13.012053,1.9478277 11.228109,1.9478277 c -5.527714,0 -9.4976177,4.0452816 -9.4976177,9.6734993 0,2.613101 0.7789052,4.673431 2.3869674,6.457375 1.7336922,1.909574 3.8693998,2.763857 6.8091383,2.763857 4.447298,0 7.010147,-2.160833 7.964934,-6.658383 L 17.33372,13.807287 c -0.678401,3.49251 -2.688479,5.477462 -5.577966,5.477462 -3.4171318,0 -5.0251941,-2.587975 -5.0251941,-8.115689 0,-5.2010766 1.6080623,-7.9146817 4.6985571,-7.9146817 2.788983,0 4.623179,1.9346999 5.753848,6.1307374 l 1.331676,-0.1507559 z" />
      <path
         id="path17"
         style="font-size:25.12597275px;line-height:1.25"
         d="M 38.322544,2.0483316 H 37.217001 L 35.734569,3.3046302 C 33.975751,2.2995913 32.744578,1.9478277 30.935508,1.9478277 c -2.889487,0 -5.351832,1.0301649 -7.211154,3.0402427 -1.708566,1.8090701 -2.487472,3.9196518 -2.487472,6.6835086 0,5.42721 3.567889,9.17098 8.768965,9.17098 1.532684,0 3.065369,-0.376889 4.221163,-1.030165 0.62815,-0.376889 1.030165,-0.703527 1.758818,-1.457306 l 1.231173,2.462345 h 1.331677 v -5.17595 c 0,-1.582936 0,-1.708566 0.175881,-1.909574 0.226134,-0.25126 0.62815,-0.326638 2.06033,-0.351764 v -1.356802 h -8.91972 v 1.356802 h 0.276386 c 2.185959,0 2.286463,0.07538 2.286463,1.909574 v 0.351764 c 0,2.361841 -1.482432,3.894526 -3.718644,3.894526 -1.532684,0 -2.788983,-0.804031 -3.417132,-2.160834 -0.678401,-1.457306 -1.030165,-3.49251 -1.030165,-5.854352 0,-2.6633528 0.502519,-4.8744384 1.43218,-6.3819967 0.728654,-1.1809208 2.06033,-1.884448 3.542763,-1.884448 2.964864,0 5.150824,2.1859596 5.979981,6.0051075 h 1.331677 z" />
      <path
         id="path19"
         style="font-size:25.12597275px;line-height:1.25"
         d="m 8.3637481,43.154423 h 1.4070545 c 1.0804164,0 1.7839444,0.25126 2.2362114,0.753779 0.402016,0.477394 0.50252,0.778905 0.603024,2.211086 0.150755,1.68344 0.276385,2.738731 0.351763,3.140746 0.427142,1.959826 1.834196,2.989991 4.020156,2.989991 2.713605,0 4.271415,-1.532684 4.271415,-4.196037 V 47.752476 H 19.89657 c -0.02513,1.582936 -0.402016,2.386967 -1.155795,2.386967 -0.276386,0 -0.577897,-0.150755 -0.728653,-0.376889 -0.150756,-0.201008 -0.175882,-0.37689 -0.301512,-1.180921 0,-0.100504 -0.05025,-0.351763 -0.100504,-0.703527 l -0.175882,-0.954787 c -0.376889,-2.261338 -1.331676,-3.392006 -3.517636,-4.12066 1.331677,-0.251259 1.984952,-0.427141 2.613101,-0.728653 1.532685,-0.778905 2.412094,-2.160833 2.412094,-3.794022 0,-1.507558 -0.728654,-2.788983 -2.035204,-3.643266 -0.954787,-0.603023 -2.638227,-0.904535 -4.949817,-0.904535 H 1.2279719 v 1.356803 h 0.3768896 c 1.3065506,0 1.834196,0.100504 2.0603297,0.351763 0.1758818,0.226134 0.1758818,0.301512 0.1758818,1.909574 V 48.22987 c 0,1.608062 0,1.68344 -0.1758818,1.909573 -0.2261337,0.25126 -0.7537791,0.351764 -2.0603297,0.351764 H 1.2279719 V 51.84801 H 11.278361 v -1.356803 h -0.653275 c -1.3065509,0 -1.8593223,-0.100504 -2.0854561,-0.351764 C 8.3637481,49.91331 8.3637481,49.837932 8.3637481,48.22987 Z m 0,-1.381928 v -5.075447 c 0,-1.43218 0.1758818,-1.608062 1.7839439,-1.608062 h 0.603024 c 2.336715,0 3.392006,1.030165 3.392006,3.316628 0,2.562849 -1.055291,3.366881 -4.3970454,3.366881 z" />
      <path
         id="path21"
         style="font-size:25.12597275px;line-height:1.25"
         d="m 28.702045,37.350323 c 0,-1.582936 0,-1.68344 0.175881,-1.884448 0.226134,-0.276385 0.778906,-0.376889 2.085456,-0.376889 h 0.37689 v -1.356803 h -9.774004 v 1.356803 h 0.37689 c 1.306551,0 1.834196,0.100504 2.06033,0.376889 0.175881,0.201008 0.175881,0.301512 0.175881,1.884448 v 7.964934 c 0,2.110581 0.175882,3.165872 0.653276,4.045281 1.030165,1.884448 3.467384,2.889487 7.010146,2.889487 3.216125,0 5.150825,-0.854283 6.381997,-2.788983 0.703527,-1.130669 0.904535,-2.261337 0.904535,-5.226202 v -5.050321 c 0,-2.211085 0.12563,-2.864361 0.653276,-3.417132 0.402015,-0.427142 1.105542,-0.653275 2.110581,-0.678401 v -1.356803 h -7.160902 v 1.356803 c 0.979913,0.02513 1.658314,0.251259 2.06033,0.678401 0.527645,0.552771 0.653275,1.180921 0.653275,3.417132 v 5.050321 c 0,2.06033 -0.100504,3.040243 -0.427141,3.74377 -0.728654,1.582936 -2.18596,2.386967 -4.271416,2.386967 -1.43218,0 -2.512597,-0.427141 -3.216124,-1.231172 -0.552772,-0.678402 -0.829157,-1.909574 -0.829157,-3.74377 z" />
    </g>
  </g>
</svg>
