<svg width="149" height="52" version="1.1" xmlns="http://www.w3.org/2000/svg"><path fill="rgb(47,47,47)" stroke="rgb(47,47,47)" stroke-width="1" opacity="0.07058823529411765" d="M 79.5 14 L 81 17.5 L 79 18.5 L 80 15.5 L 79.5 14 Z "></path><path fill="rgb(47,47,47)" stroke="rgb(47,47,47)" stroke-width="1" opacity="0.07058823529411765" d="M 88.5 14 L 91 14.5 L 88.5 15 L 88.5 14 Z "></path><path fill="rgb(47,47,47)" stroke="rgb(47,47,47)" stroke-width="1" opacity="0.07058823529411765" d="M 95.5 14 L 104.5 14 L 106 15.5 L 105.5 32 L 105 15 L 95.5 15 L 95.5 14 Z "></path><path fill="rgb(47,47,47)" stroke="rgb(47,47,47)" stroke-width="1" opacity="0.07058823529411765" d="M 108.5 14 L 113 14.5 L 108.5 15 L 108.5 14 Z "></path><path fill="rgb(47,47,47)" stroke="rgb(47,47,47)" stroke-width="1" opacity="0.07058823529411765" d="M 123.5 14 L 134.5 14 L 136 15.5 L 134.5 19 L 135 17.5 L 134.5 15 L 123.5 15 L 123.5 14 Z "></path><path fill="rgb(47,47,47)" stroke="rgb(47,47,47)" stroke-width="1" opacity="0.07058823529411765" d="M 138.5 14 Q 145.3 12.3 147 15.5 L 146.5 17 L 146 15 L 138.5 15 L 138.5 14 Z "></path><path fill="rgb(47,47,47)" stroke="rgb(47,47,47)" stroke-width="1" opacity="0.07058823529411765" d="M 52.5 15 L 51.5 17 L 52.5 15 Z "></path><path fill="rgb(47,47,47)" stroke="rgb(47,47,47)" stroke-width="1" opacity="0.07058823529411765" d="M 116.5 15 L 118.5 18 L 116.5 15 Z "></path><path fill="rgb(47,47,47)" stroke="rgb(47,47,47)" stroke-width="1" opacity="0.07058823529411765" d="M 2.5 19 L 4.5 22 L 2.5 19 Z "></path><path fill="rgb(47,47,47)" stroke="rgb(47,47,47)" stroke-width="1" opacity="0.07058823529411765" d="M 41.5 19 L 40.5 21 L 41.5 19 Z "></path><path fill="rgb(47,47,47)" stroke="rgb(47,47,47)" stroke-width="1" opacity="0.07058823529411765" d="M 62.5 19 L 63.5 21 L 62.5 19 Z "></path><path fill="rgb(47,47,47)" stroke="rgb(47,47,47)" stroke-width="1" opacity="0.07058823529411765" d="M 85.5 19 L 87 21.5 L 86 21.5 L 85.5 19 Z "></path><path fill="rgb(47,47,47)" stroke="rgb(47,47,47)" stroke-width="1" opacity="0.07058823529411765" d="M 119.5 19 L 120 21.5 L 119 21.5 L 119.5 19 Z "></path><path fill="rgb(47,47,47)" stroke="rgb(47,47,47)" stroke-width="1" opacity="0.07058823529411765" d="M 144.5 19 L 145 28.5 L 144 28.5 L 144.5 19 Z "></path><path fill="rgb(47,47,47)" stroke="rgb(47,47,47)" stroke-width="1" opacity="0.07058823529411765" d="M 55.5 21 L 56 28.5 L 55 28.5 L 55.5 21 Z "></path><path fill="rgb(47,47,47)" stroke="rgb(47,47,47)" stroke-width="1" opacity="0.07058823529411765" d="M 37.5 22 L 36.5 24 L 37.5 22 Z "></path><path fill="rgb(47,47,47)" stroke="rgb(47,47,47)" stroke-width="1" opacity="0.07058823529411765" d="M 7.5 23 L 8.5 25 L 7.5 23 Z "></path><path fill="rgb(47,47,47)" stroke="rgb(47,47,47)" stroke-width="1" opacity="0.07058823529411765" d="M 82.5 24 L 93 24.5 L 82.5 25 L 82.5 24 Z "></path><path fill="rgb(47,47,47)" stroke="rgb(47,47,47)" stroke-width="1" opacity="0.07058823529411765" d="M 10.5 25 L 11.5 27 L 10.5 25 Z "></path><path fill="rgb(47,47,47)" stroke="rgb(47,47,47)" stroke-width="1" opacity="0.07058823529411765" d="M 33.5 25 L 32.5 27 L 33.5 25 Z "></path><path fill="rgb(47,47,47)" stroke="rgb(47,47,47)" stroke-width="1" opacity="0.07058823529411765" d="M 117.5 25 L 118.5 27 L 117.5 25 Z "></path><path fill="rgb(47,47,47)" stroke="rgb(47,47,47)" stroke-width="1" opacity="0.07058823529411765" d="M 107.5 27 L 111 28.5 L 109.5 28 Q 106.5 28.5 107.5 27 Z "></path><path fill="rgb(47,47,47)" stroke="rgb(47,47,47)" stroke-width="1" opacity="0.07058823529411765" d="M 140.5 28 L 141 30.5 L 140 30.5 L 140.5 28 Z "></path><path fill="rgb(47,47,47)" stroke="rgb(47,47,47)" stroke-width="1" opacity="0.07058823529411765" d="M 79.5 31 L 80.5 33 L 79.5 31 Z "></path><path fill="rgb(47,47,47)" stroke="rgb(47,47,47)" stroke-width="1" opacity="0.07058823529411765" d="M 48.5 32 L 50.5 35 L 48.5 32 Z "></path><path fill="rgb(47,47,47)" stroke="rgb(47,47,47)" stroke-width="1" opacity="0.07058823529411765" d="M 59.5 32 L 58.5 34 L 59.5 32 Z "></path><path fill="rgb(47,47,47)" stroke="rgb(47,47,47)" stroke-width="1" opacity="0.07058823529411765" d="M 119.5 32 L 122 33.5 L 121.5 35 L 121 33 L 119.5 32 Z "></path><path fill="rgb(47,47,47)" stroke="rgb(47,47,47)" stroke-width="1" opacity="0.07058823529411765" d="M 125.5 32 L 127.5 35 L 125.5 32 Z "></path><path fill="rgb(47,47,47)" stroke="rgb(47,47,47)" stroke-width="1" opacity="0.07058823529411765" d="M 66.5 33 L 64.5 36 L 66.5 33 Z "></path><path fill="rgb(47,47,47)" stroke="rgb(47,47,47)" stroke-width="1" opacity="0.07058823529411765" d="M 72.5 33 L 73.5 35 L 72.5 33 Z "></path><path fill="rgb(47,47,47)" stroke="rgb(47,47,47)" stroke-width="1" opacity="0.07058823529411765" d="M 111.5 34 L 112.5 36 L 111.5 34 Z "></path><path fill="rgb(47,47,47)" stroke="rgb(47,47,47)" stroke-width="1" opacity="0.07058823529411765" d="M 142.5 34 L 141.5 36 L 142.5 34 Z "></path><path fill="rgb(47,47,47)" stroke="rgb(47,47,47)" stroke-width="1" opacity="0.07058823529411765" d="M 19.5 35 L 18.5 37 L 19.5 35 Z "></path><path fill="rgb(47,47,47)" stroke="rgb(47,47,47)" stroke-width="1" opacity="0.07058823529411765" d="M 25.5 36 L 26.5 38 L 25.5 36 Z "></path><path fill="rgb(47,47,47)" stroke="rgb(47,47,47)" stroke-width="1" opacity="0.07058823529411765" d="M 15.5 38 L 14.5 40 L 15.5 38 Z "></path><path fill="rgb(47,47,47)" stroke="rgb(47,47,47)" stroke-width="1" opacity="0.07058823529411765" d="M 28.5 38 L 29.5 40 L 28.5 38 Z "></path><path fill="rgb(47,47,47)" stroke="rgb(47,47,47)" stroke-width="1" opacity="0.07058823529411765" d="M 12.5 40 L 11.5 42 L 12.5 40 Z "></path><path fill="rgb(47,47,47)" stroke="rgb(47,47,47)" stroke-width="1" opacity="0.07058823529411765" d="M 32.5 41 L 33.5 43 L 32.5 41 Z "></path><path fill="rgb(0,0,0)" stroke="rgb(0,0,0)" stroke-width="1" opacity="0" d="M 0 0 L 149 0 L 149 52 L 0 52 L 0 0 Z M 21 5 L 17 19 L 2 20 L 14 29 L 9 42 L 10 43 L 22 34 L 31 40 L 34 43 L 30 29 L 42 20 L 27 19 L 23 8 Q 24 4 21 5 Z M 57 14 L 53 15 L 47 22 Q 46 29 48 33 L 53 36 Q 59 37 58 35 L 59 35 Q 58 37 65 36 Q 69 34 68 28 L 66 26 Q 62 27 63 31 L 60 32 L 58 33 Q 59 30 56 31 L 56 20 L 58 19 L 59 17 L 64 22 Q 63 26 68 24 L 68 16 L 67 14 L 62 15 Q 60 12 59 16 L 57 14 Z M 80 14 L 76 15 L 70 22 Q 69 30 72 34 L 76 36 L 91 36 Q 89 29 93 28 L 93 24 L 82 24 L 84 32 L 82 33 L 78 29 Q 77 21 81 18 L 85 19 L 88 23 L 91 23 L 91 14 L 88 15 L 84 14 L 82 15 L 80 14 Z M 95 14 Q 94 18 97 20 L 97 32 Q 94 31 95 36 L 109 36 L 109 34 L 106 32 L 107 27 L 110 28 Q 112 29 111 35 L 113 36 L 121 36 L 122 34 L 119 32 L 118 26 L 120 22 L 119 18 L 117 15 L 109 14 L 107 18 L 110 19 L 111 22 L 107 24 L 106 16 L 105 14 L 95 14 Z M 123 14 Q 121 20 125 20 L 125 33 L 130 36 Q 135 38 137 35 L 142 36 L 144 33 L 145 19 L 147 16 L 146 14 L 138 14 L 138 19 L 141 19 L 140 32 L 137 34 L 136 32 L 133 31 L 133 20 L 135 19 L 136 16 L 135 14 L 123 14 Z "></path><path fill="rgb(75,75,75)" stroke="rgb(75,75,75)" stroke-width="1" opacity="1" d="M 21 13 Q 23.7 11.9 23 14.5 L 26.5 20 L 34 21 L 31.5 25 L 29 26.5 Q 28.1 33.3 30 36 Q 25.4 36.6 23.5 33 L 19.5 33 L 14 36 L 15 27.5 L 10 21 Q 16.5 22.3 19 18.5 L 21 13 Z "></path><path fill="rgb(75,75,75)" stroke="rgb(75,75,75)" stroke-width="1" opacity="1" d="M 98 17 L 103 17 L 103 18.5 L 104 19.5 L 104 34 L 98.5 34 L 98 32.5 L 99 31.5 L 99 19.5 L 98 17 Z "></path><path fill="rgb(75,75,75)" stroke="rgb(75,75,75)" stroke-width="1" opacity="1" d="M 112 17 Q 115.8 16.3 117 19.5 L 116 27.5 L 118 34 Q 114.2 35 113 32.5 Q 113.2 27.3 110 25.5 L 113 21.5 L 112 17 Z "></path><path fill="rgb(75,75,75)" stroke="rgb(75,75,75)" stroke-width="1" opacity="1" d="M 126 17 L 132 17 L 132 20.5 Q 129.3 22.3 131 28.5 L 132 34 L 127 30.5 Q 128 21.5 126 17 Z "></path><path fill="rgb(75,75,75)" stroke="rgb(75,75,75)" stroke-width="1" opacity="1" d="M 52.5 18 L 54 18.5 L 54 30.5 L 55 34 L 50 30.5 L 49 22.5 L 52.5 18 Z "></path><path fill="rgb(75,75,75)" stroke="rgb(75,75,75)" stroke-width="1" opacity="1" d="M 75.5 18 Q 78.1 17.2 77 20.5 Q 74.3 22.3 76 28.5 L 77 33 L 73 30.5 L 72 22.5 L 75.5 18 Z "></path><path fill="rgb(75,75,75)" stroke="rgb(75,75,75)" stroke-width="1" opacity="1" d="M 87.5 26 L 90 27 L 87.5 34 L 85 32.5 L 86 30.5 L 85 27 L 87.5 26 Z "></path><path fill="rgb(44,44,44)" stroke="rgb(44,44,44)" stroke-width="1" opacity="0.7764705882352941" d="M 21.5 6 Q 23.8 5.3 23 7.5 L 21.5 6 Z "></path><path fill="rgb(44,44,44)" stroke="rgb(44,44,44)" stroke-width="1" opacity="0.7764705882352941" d="M 53.5 15 L 56 15.5 L 52.5 17 L 53.5 15 Z "></path><path fill="rgb(44,44,44)" stroke="rgb(44,44,44)" stroke-width="1" opacity="0.7764705882352941" d="M 62.5 15 L 65 15.5 L 62.5 16 L 62.5 15 Z "></path><path fill="rgb(44,44,44)" stroke="rgb(44,44,44)" stroke-width="1" opacity="0.7764705882352941" d="M 67.5 15 L 68 22.5 L 65.5 24 L 64 21.5 L 65 21.5 Q 64.3 24.1 67 23 L 67.5 15 Z "></path><path fill="rgb(44,44,44)" stroke="rgb(44,44,44)" stroke-width="1" opacity="0.7764705882352941" d="M 76.5 15 L 79 15.5 L 72.5 19 L 74.5 16 L 76.5 15 Z "></path><path fill="rgb(44,44,44)" stroke="rgb(44,44,44)" stroke-width="1" opacity="0.7764705882352941" d="M 85.5 15 L 88 15.5 L 85.5 16 L 85.5 15 Z "></path><path fill="rgb(44,44,44)" stroke="rgb(44,44,44)" stroke-width="1" opacity="0.7764705882352941" d="M 90.5 15 L 91 22.5 L 90 22.5 L 90.5 15 Z "></path><path fill="rgb(44,44,44)" stroke="rgb(44,44,44)" stroke-width="1" opacity="0.7764705882352941" d="M 95.5 15 L 96 17.5 L 95 17.5 L 95.5 15 Z "></path><path fill="rgb(44,44,44)" stroke="rgb(44,44,44)" stroke-width="1" opacity="0.7764705882352941" d="M 114.5 15 L 117 16.5 L 115.5 16 L 114.5 15 Z "></path><path fill="rgb(44,44,44)" stroke="rgb(44,44,44)" stroke-width="1" opacity="0.7764705882352941" d="M 50.5 17 L 49.5 19 L 50.5 17 Z "></path><path fill="rgb(44,44,44)" stroke="rgb(44,44,44)" stroke-width="1" opacity="0.7764705882352941" d="M 57.5 17 L 56 19.5 L 55.5 21 L 55 19.5 L 57.5 17 Z "></path><path fill="rgb(44,44,44)" stroke="rgb(44,44,44)" stroke-width="1" opacity="0.7764705882352941" d="M 134.5 17 L 133.5 19 L 134.5 17 Z "></path><path fill="rgb(44,44,44)" stroke="rgb(44,44,44)" stroke-width="1" opacity="0.7764705882352941" d="M 145.5 17 L 144.5 19 L 145.5 17 Z "></path><path fill="rgb(44,44,44)" stroke="rgb(44,44,44)" stroke-width="1" opacity="0.7764705882352941" d="M 17.5 18 L 16.5 20 L 5 20.5 L 6.5 23 L 3.5 19 L 16.5 19 L 17.5 18 Z "></path><path fill="rgb(44,44,44)" stroke="rgb(44,44,44)" stroke-width="1" opacity="0.7764705882352941" d="M 123.5 18 L 126 19.5 L 126 31.5 L 129 34.5 L 125 31.5 L 125 19.5 L 123.5 19 L 123.5 18 Z "></path><path fill="rgb(44,44,44)" stroke="rgb(44,44,44)" stroke-width="1" opacity="0.7764705882352941" d="M 27.5 19 L 41 19.5 L 38 21.5 L 38.5 20 L 27.5 20 L 27.5 19 Z "></path><path fill="rgb(44,44,44)" stroke="rgb(44,44,44)" stroke-width="1" opacity="0.7764705882352941" d="M 97.5 19 L 98 31.5 L 95 33.5 L 97 31.5 L 97.5 19 Z "></path><path fill="rgb(44,44,44)" stroke="rgb(44,44,44)" stroke-width="1" opacity="0.7764705882352941" d="M 36.5 22 L 34.5 25 L 36.5 22 Z "></path><path fill="rgb(44,44,44)" stroke="rgb(44,44,44)" stroke-width="1" opacity="0.7764705882352941" d="M 77.5 22 L 78 26.5 L 77 26.5 L 77.5 22 Z "></path><path fill="rgb(44,44,44)" stroke="rgb(44,44,44)" stroke-width="1" opacity="0.7764705882352941" d="M 8.5 23 L 9.5 25 L 8.5 23 Z "></path><path fill="rgb(44,44,44)" stroke="rgb(44,44,44)" stroke-width="1" opacity="0.7764705882352941" d="M 117.5 24 Q 115.9 25.8 119 27.5 L 118.5 30 L 116 25.5 L 117.5 24 Z "></path><path fill="rgb(44,44,44)" stroke="rgb(44,44,44)" stroke-width="1" opacity="0.7764705882352941" d="M 32.5 25 L 31.5 27 L 32.5 25 Z "></path><path fill="rgb(44,44,44)" stroke="rgb(44,44,44)" stroke-width="1" opacity="0.7764705882352941" d="M 82.5 25 L 83 27.5 L 82 27.5 L 82.5 25 Z "></path><path fill="rgb(44,44,44)" stroke="rgb(44,44,44)" stroke-width="1" opacity="0.7764705882352941" d="M 12.5 26 L 13.5 28 L 12.5 26 Z "></path><path fill="rgb(44,44,44)" stroke="rgb(44,44,44)" stroke-width="1" opacity="0.7764705882352941" d="M 47.5 27 L 48 29.5 L 47 29.5 L 47.5 27 Z "></path><path fill="rgb(44,44,44)" stroke="rgb(44,44,44)" stroke-width="1" opacity="0.7764705882352941" d="M 67.5 27 L 68 30.5 L 67 30.5 L 67.5 27 Z "></path><path fill="rgb(44,44,44)" stroke="rgb(44,44,44)" stroke-width="1" opacity="0.7764705882352941" d="M 55.5 29 L 58 32.5 L 55 30.5 L 55.5 29 Z "></path><path fill="rgb(44,44,44)" stroke="rgb(44,44,44)" stroke-width="1" opacity="0.7764705882352941" d="M 63.5 29 L 64 30.5 L 59.5 34 L 60.5 32 L 63 30.5 L 63.5 29 Z "></path><path fill="rgb(44,44,44)" stroke="rgb(44,44,44)" stroke-width="1" opacity="0.7764705882352941" d="M 143.5 29 L 144 31.5 L 143 31.5 L 143.5 29 Z "></path><path fill="rgb(44,44,44)" stroke="rgb(44,44,44)" stroke-width="1" opacity="0.7764705882352941" d="M 78.5 30 L 80.5 33 L 82 33.5 L 80.5 34 Q 76.9 32.9 78.5 30 Z "></path><path fill="rgb(44,44,44)" stroke="rgb(44,44,44)" stroke-width="1" opacity="0.7764705882352941" d="M 111.5 30 L 113.5 35 L 115 35.5 L 113.5 36 Q 109.7 34.7 111.5 30 Z "></path><path fill="rgb(44,44,44)" stroke="rgb(44,44,44)" stroke-width="1" opacity="0.7764705882352941" d="M 48.5 31 L 51.5 35 L 48.5 31 Z "></path><path fill="rgb(44,44,44)" stroke="rgb(44,44,44)" stroke-width="1" opacity="0.7764705882352941" d="M 140.5 31 L 139.5 33 L 140.5 31 Z "></path><path fill="rgb(44,44,44)" stroke="rgb(44,44,44)" stroke-width="1" opacity="0.7764705882352941" d="M 72.5 32 L 74.5 35 L 72.5 32 Z "></path><path fill="rgb(44,44,44)" stroke="rgb(44,44,44)" stroke-width="1" opacity="0.7764705882352941" d="M 134.5 32 L 135.5 34 L 134.5 32 Z "></path><path fill="rgb(44,44,44)" stroke="rgb(44,44,44)" stroke-width="1" opacity="0.7764705882352941" d="M 21.5 33 L 20.5 35 L 21.5 33 Z "></path><path fill="rgb(44,44,44)" stroke="rgb(44,44,44)" stroke-width="1" opacity="0.7764705882352941" d="M 90.5 33 L 91 36 L 88 35.5 L 90 35 L 90.5 33 Z "></path><path fill="rgb(44,44,44)" stroke="rgb(44,44,44)" stroke-width="1" opacity="0.7764705882352941" d="M 108.5 33 L 109 35.5 L 108 35.5 L 108.5 33 Z "></path><path fill="rgb(44,44,44)" stroke="rgb(44,44,44)" stroke-width="1" opacity="0.7764705882352941" d="M 142.5 33 L 140.5 36 L 139 35.5 L 142.5 33 Z "></path><path fill="rgb(44,44,44)" stroke="rgb(44,44,44)" stroke-width="1" opacity="0.7764705882352941" d="M 23.5 34 L 24.5 36 L 23.5 34 Z "></path><path fill="rgb(44,44,44)" stroke="rgb(44,44,44)" stroke-width="1" opacity="0.7764705882352941" d="M 57.5 34 L 56.5 36 L 57.5 34 Z "></path><path fill="rgb(44,44,44)" stroke="rgb(44,44,44)" stroke-width="1" opacity="0.7764705882352941" d="M 18.5 35 L 16.5 38 L 18.5 35 Z "></path><path fill="rgb(44,44,44)" stroke="rgb(44,44,44)" stroke-width="1" opacity="0.7764705882352941" d="M 76.5 35 L 79 35.5 L 76.5 36 L 76.5 35 Z "></path><path fill="rgb(44,44,44)" stroke="rgb(44,44,44)" stroke-width="1" opacity="0.7764705882352941" d="M 80.5 35 L 83 35.5 L 80.5 36 L 80.5 35 Z "></path><path fill="rgb(44,44,44)" stroke="rgb(44,44,44)" stroke-width="1" opacity="0.7764705882352941" d="M 118.5 35 L 121 35.5 L 118.5 36 L 118.5 35 Z "></path><path fill="rgb(44,44,44)" stroke="rgb(44,44,44)" stroke-width="1" opacity="0.7764705882352941" d="M 130.5 35 L 133 35.5 L 130.5 36 L 130.5 35 Z "></path><path fill="rgb(44,44,44)" stroke="rgb(44,44,44)" stroke-width="1" opacity="0.7764705882352941" d="M 26.5 36 L 27.5 38 L 26.5 36 Z "></path><path fill="rgb(44,44,44)" stroke="rgb(44,44,44)" stroke-width="1" opacity="0.7764705882352941" d="M 14.5 38 L 13.5 40 L 14.5 38 Z "></path><path fill="rgb(44,44,44)" stroke="rgb(44,44,44)" stroke-width="1" opacity="0.7764705882352941" d="M 10.5 39 Q 13.5 40.5 10.5 42 L 10.5 39 Z "></path><path fill="rgb(44,44,44)" stroke="rgb(44,44,44)" stroke-width="1" opacity="0.7764705882352941" d="M 30.5 39 L 31.5 41 L 30.5 39 Z "></path><path fill="rgb(57,57,57)" stroke="rgb(57,57,57)" stroke-width="1" opacity="0.996078431372549" d="M 21.5 7 L 27 19.5 L 24 17.5 L 23 13 Q 20.3 11.9 21 14.5 L 17.5 20 L 18 18.5 L 21.5 7 Z "></path><path fill="rgb(57,57,57)" stroke="rgb(57,57,57)" stroke-width="1" opacity="0.996078431372549" d="M 56.5 15 Q 60.2 17.2 55 19.5 L 55 30.5 L 58 33.5 Q 56.2 37.8 54.5 35 L 52.5 35 L 48 30.5 L 47 24.5 L 51.5 17 L 56.5 15 Z M 53 18 L 49 23 L 50 31 L 55 34 L 54 31 L 54 19 L 53 18 Z "></path><path fill="rgb(57,57,57)" stroke="rgb(57,57,57)" stroke-width="1" opacity="0.996078431372549" d="M 60.5 15 L 64.5 16 L 67 15 L 67 22.5 L 65 23 L 61.5 18 L 59 16.5 L 60.5 15 Z "></path><path fill="rgb(57,57,57)" stroke="rgb(57,57,57)" stroke-width="1" opacity="0.996078431372549" d="M 79.5 15 L 80 17.5 Q 76.2 19.7 77 26.5 L 78 31.5 L 80.5 34 L 84 33 L 83 25 L 93 25.5 L 91 28.5 L 90 35 L 83.5 36 L 80.5 35 L 78.5 35 Q 72.8 35.8 72 31.5 L 70 24.5 L 74.5 17 L 79.5 15 Z M 76 18 L 72 23 L 73 31 L 77 33 L 76 29 Q 74 22 77 21 Q 78 17 76 18 Z M 88 26 L 85 27 L 86 31 L 85 33 L 88 34 L 90 27 L 88 26 Z "></path><path fill="rgb(57,57,57)" stroke="rgb(57,57,57)" stroke-width="1" opacity="0.996078431372549" d="M 82.5 15 L 87.5 16 L 90 15 L 90 22.5 L 88.5 23 L 84.5 18 L 81 16.5 L 82.5 15 Z "></path><path fill="rgb(57,57,57)" stroke="rgb(57,57,57)" stroke-width="1" opacity="0.996078431372549" d="M 96 15 L 105 15 L 105 32.5 L 108 33 L 108 36 L 96.5 36 L 95 34.5 L 98 31.5 L 98 19.5 Q 95.2 18.4 96 15 Z M 98 17 L 99 20 L 99 32 L 98 33 L 99 34 L 104 34 L 104 20 L 103 19 L 103 17 L 98 17 Z "></path><path fill="rgb(57,57,57)" stroke="rgb(57,57,57)" stroke-width="1" opacity="0.996078431372549" d="M 108.5 15 Q 115.4 14.3 118 17 L 119 21.5 L 116.5 25 L 116 23.5 L 117 19.5 Q 115.8 16.3 112 17 L 111.5 20 L 107 16.5 L 108.5 15 Z "></path><path fill="rgb(57,57,57)" stroke="rgb(57,57,57)" stroke-width="1" opacity="0.996078431372549" d="M 123 15 L 134.5 15 L 135 16.5 L 133 18.5 L 133 31.5 Q 138.3 33.8 134.5 36 L 129.5 35 L 126 31.5 L 126.5 20 L 127 30.5 L 130.5 34 Q 133.9 34.9 132 29.5 Q 129.3 27.8 131 21.5 L 132 17 L 126.5 17 L 126 18.5 L 124.5 18 Q 121.5 18.7 123 15 Z "></path><path fill="rgb(57,57,57)" stroke="rgb(57,57,57)" stroke-width="1" opacity="0.996078431372549" d="M 138 15 L 145.5 15 L 146 16.5 L 144 18.5 L 143 32.5 L 140.5 35 L 138.5 36 Q 135.5 34.5 138.5 33 L 141 31.5 L 141 18.5 L 139.5 18 L 138 15 Z "></path><path fill="rgb(57,57,57)" stroke="rgb(57,57,57)" stroke-width="1" opacity="0.996078431372549" d="M 5.5 20 L 16 20.5 L 10 21 L 15 27.5 L 15 32.5 L 14 36 L 20.5 33 L 19.5 35 L 11 40 L 14 31.5 L 14 27.5 Q 7.6 24.5 5.5 20 Z "></path><path fill="rgb(57,57,57)" stroke="rgb(57,57,57)" stroke-width="1" opacity="0.996078431372549" d="M 28.5 20 L 39 20.5 L 29.5 28 L 29 26.5 L 34 22.5 Q 34.6 19.8 28.5 21 L 28.5 20 Z "></path><path fill="rgb(57,57,57)" stroke="rgb(57,57,57)" stroke-width="1" opacity="0.996078431372549" d="M 112.5 21 L 112 22.5 L 110 25.5 L 114.5 34 Q 119.3 35.7 118 31.5 L 116 26.5 L 118 27.5 Q 117.8 32.7 121 34.5 L 115.5 36 L 112 33.5 L 111 27 Q 107.2 28 106 25.5 L 112.5 21 Z "></path><path fill="rgb(57,57,57)" stroke="rgb(57,57,57)" stroke-width="1" opacity="0.996078431372549" d="M 65.5 27 Q 68.9 26.1 67 31.5 L 64.5 35 L 60.5 36 Q 57.5 34.5 60.5 33 L 64 30.5 L 65.5 27 Z "></path><path fill="rgb(57,57,57)" stroke="rgb(57,57,57)" stroke-width="1" opacity="0.996078431372549" d="M 29.5 29 L 33 40.5 L 30.5 39 L 22 33.5 L 23.5 33 Q 25.4 36.6 30 36 L 29.5 29 Z "></path></svg>