
<svg enable-background="new 0 0 512 512" height="512" viewBox="0 0 1536 512" width="1536" xmlns="http://www.w3.org/2000/svg"><g style="clip-rule:evenodd;fill:none;stroke:#000;stroke-width:7.9999;stroke-linecap:round;stroke-linejoin:round;stroke-miterlimit:2.6131" transform="translate(-46)"><path d="m244 142v42 42l-36 21-36 21-36-21-36-21v-42-42l36-21 36-21 36 21z"/><path d="m412 142v42 42l-36 21-36 21-36-21-36-21v-42-42l36-21 36-21 36 21z"/><path d="m328 286v42 42l-36 21-36 21-36-21-36-21v-42-42l36-21 36-21 36 21z"/></g><g transform="scale(1.035633 .96559302)"><path d="m428.86631 267.98635c0 59.82646 32.19233 97.71655 78.62906 97.71655 24.21547 0 41.30874-10.25597 55.83802-26.77947l-7.97686-8.26174c-13.67462 15.38394-27.91901 23.07591-47.29139 23.07591-40.45408 0-65.52421-33.61677-65.52421-85.75125s25.35502-84.89658 66.66376-84.89658c17.09328 0 30.7679 7.69197 40.73897 19.08748l7.97686-8.54663c-9.97107-11.68041-27.06435-22.50615-48.71583-22.50615-47.86116 0-80.33838 37.32032-80.33838 96.86188z"/><path d="m594.39955 267.98635c0 59.82646 32.19233 97.71655 80.33838 97.71655 24.78524 0 44.15762-8.83153 55.83802-21.3666v-74.35573h-57.54735v11.11063h45.01229v58.40201c-9.11642 9.11641-25.07014 14.24439-42.16341 14.24439-42.73318 0-67.80332-33.61677-67.80332-85.75125s26.49458-84.89658 69.51265-84.89658c20.51192 0 33.61677 8.54663 43.30295 19.08748l7.69198-8.54663c-9.97108-10.54085-25.9248-22.50615-50.99493-22.50615-49.85538 0-83.18726 37.32032-83.18726 96.86188z"/><path d="m808.77769 362.28424h28.2039l27.63412-112.53071c3.13377-14.52928 6.55243-27.91901 9.4013-42.4483h1.13956c2.84888 14.52929 5.69775 27.91902 9.11641 42.4483l28.2039 112.53071h28.48879l38.74475-186.88645h-22.79103l-19.65727 101.70498c-3.70354 19.94215-7.12219 40.16919-10.54085 60.39623h-1.13955c-4.55821-20.22704-9.11641-40.73897-13.67462-60.39623l-25.92479-101.70498h-21.65148l-25.9248 101.70498c-4.27332 19.94215-8.83152 40.16919-13.10484 60.39623h-1.13955c-3.41866-20.22704-7.40709-40.1692-10.82574-60.39623l-19.65727-101.70498h-24.50035z"/><path d="m1023.3517 362.28424h23.6457v-186.88645h-23.6457z"/><path d="m1133.5187 194.48528h31.3377c29.0586 0 45.2972 8.83152 45.2972 33.33188 0 24.21547-16.2386 36.18076-45.2972 36.18076h-31.3377zm105.6934 167.79896-47.2914-81.47793c25.3551-6.26754 41.8786-23.93058 41.8786-52.98915 0-38.74475-27.3493-52.41937-65.5243-52.41937h-58.402v186.88645h23.6457v-78.91394h33.9017l45.0123 78.91394z"/><path d="m1286.5347 362.28424h110.5365v-20.22704h-86.8908v-67.80331h70.9371v-20.22704h-70.9371v-58.68691h84.0419v-19.94215h-107.6876z"/></g></svg>
