<svg xmlns="http://www.w3.org/2000/svg" role="img" viewBox="-8.66 -8.66 450.06 179.31"><g fill="#2e2d2d" fill-opacity="1" fill-rule="nonzero" stroke="none" transform="matrix(1.33333 0 0 -1.33333 0 118.4) scale(.1)"><path d="M370.781 731.973c-25.195 8.398-53.996 14.398-93.593 14.398-65.997 0-115.196-22.797-115.196-109.191v-57.602h184.793V535.18c0-57.598-61.199-91.196-115.191-91.196h-69.602V12.0039H97.1953C45.5977 12.0039 0 51.6016 0 107.996v542.379c0 91.195 63.5938 237.594 251.988 237.594 69.598 0 123.598-38.399 123.598-101.996v-54h-4.805"/><path d="M494.395 761.973c21.597 25.195 50.394 44.394 75.593 44.394h37.2v-146.39h224.394V593.98c0-33.597-30-76.796-95.996-76.796H607.188V263.992c0-83.992 37.199-116.394 101.996-116.394 51.597 0 91.199 7.199 116.398 22.8h6v-57.593c0-65.9964-47.996-108.00031-141.598-108.00031-163.191 0-242.386 88.80081-242.386 239.99231v388.777c0 63.598 11.996 87.598 46.797 128.399"/><path d="M1294.78 502.781c-24 9.602-51.6 19.199-93.6 19.199-71.99 0-111.59-39.597-111.59-137.996V12.0039h-44.4c-72.002 0-117.596 35.9922-117.596 103.1911v297.586c0 129.602 68.39 253.196 238.786 253.196 99.6 0 134.4-56.399 134.4-105.594v-57.602h-6"/><path d="M1741.16 293.992h-57.59c-122.4 0-157.2-28.797-157.2-81.597 0-50.391 40.8-80.391 111.59-80.391 69.6 0 103.2 33.594 103.2 99.59zM1653.57 1.19922h-32.4c-153.6 0-259.19 86.39848-259.19 205.19878 0 115.196 83.99 202.786 321.59 202.786h56.39v8.406c0 91.187-43.2 118.793-139.19 118.793-116.4 0-181.19-44.403-205.19-74.403h-6v51.606c0 71.988 64.8 158.387 235.19 158.387 143.99 0 273.58-67.2 273.58-290.387V232.793c0-136.7969-100.79-231.59378-244.78-231.59378"/><path d="M2515.15 451.184c-21.61 37.199-82.8 67.195-175.2 67.195-93.59 0-176.39-75.598-176.39-171.594 0-117.586 69.59-197.984 178.79-197.984 92.4 0 147.6 30 170.39 60h6v-74.406C2518.74 56.4063 2443.15 0 2326.75 0c-177.59 0-331.18 137.996-331.18 322.793 0 184.789 128.39 343.184 349.18 343.184 103.2 0 176.39-62.399 176.39-139.196v-75.597h-5.99"/><path d="M2805.55 769.172V382.789c94.79 127.191 143.99 183.59 197.99 235.191 38.4 35.997 76.8 41.997 128.39 41.997h92.41v-6c-45.6-38.403-195.6-208.789-262.8-293.989 51.6-63.59 102-129.597 159.6-188.386 58.79-58.797 85.2-70.801 124.79-84.0043-16.8-51.5899-43.2-79.19145-109.19-79.19145-36 0-78 16.79685-105.6 44.39845-82.79 85.1913-154.79 181.1873-225.59 275.9843V12.0039h-55.2c-71.99 0-106.8 39.5977-106.8 113.9921v749.973h51.61c77.99 0 110.39-44.403 110.39-106.797"/></g><path d="M151.34122 142.28036h5.11682c-.279-2.72034-1.1808-4.6186-2.70539-5.69477-1.52458-1.0712-3.48263-1.60928-5.87911-1.60928-2.815 0-5.02216.91176-6.62148 2.7303-1.59932 1.82352-2.39648 4.37446-2.39648 7.65281 0 2.90966.72243 5.27626 2.17228 7.0948 1.44486 1.82352 3.70683 2.73528 6.77593 2.73528 3.0691 0 5.39084-1.09112 6.95529-3.27835.98151-1.35519 1.52956-2.7901 1.64416-4.3097h-5.0969c-.10463 1.00643-.40356 1.82353-.89183 2.45628-.49325.62777-1.3203.94664-2.48617.94664-1.64914 0-2.77016-.79717-3.36305-2.38652-.32883-.85198-.49325-1.97798-.49325-3.378 0-1.46978.16442-2.65059.49325-3.53744.6178-1.66907 1.76872-2.5061 3.44775-2.5061 1.1808 0 2.05271.38364 2.61073 1.1559.38363.57296.62777 1.21568.71745 1.92815zm-3.378-7.35886zm17.0594-1.76871v-4.60863h-5.06202v4.60863zm-5.06202 2.2769v19.09218h5.06201V135.4297zm25.32005 1.09611c-1.25554-1.03631-2.8698-1.5495-4.8428-1.5495-1.57939 0-2.87977.38365-3.90612 1.1559-.57297.42848-1.1808 1.13597-1.82352 2.11748v-2.7851h-4.81789v19.0573h4.97732v-10.3333c0-1.1808.16442-2.14737.48826-2.90966.63276-1.4349 1.79363-2.15236 3.48761-2.15236 1.37512 0 2.3118.48827 2.80006 1.46978.26904.5381.40356 1.31035.40356 2.31179v11.61374h5.11683v-12.85433c0-2.39649-.62777-4.1104-1.88331-5.14174zm-6.68127-1.6043zm18.01102 5.20152c.63773-.72243 1.53455-1.08614 2.69044-1.08614 1.06123 0 1.95306.34378 2.67051 1.02636.71745.68257 1.12102 1.68401 1.20074 3.00432h-7.75745c.15944-1.24059.563-2.21712 1.19576-2.94454zm6.9802-4.30969c-1.27049-.59289-2.7004-.89183-4.28976-.89183-2.6755 0-4.84778.88187-6.52681 2.6456-1.67406 1.76374-2.51108 4.29973-2.51108 7.603 0 3.52746.9267 6.07342 2.7851 7.63786 1.8584 1.56444 4.00079 2.34666 6.42717 2.34666 2.94454 0 5.23141-.93169 6.8656-2.7851 1.05127-1.17084 1.64417-2.32175 1.76872-3.45274h-5.09689c-.26904.563-.57794 1.00145-.9267 1.31533-.64272.58293-1.47477.87689-2.5061.87689-.96657 0-1.79861-.23915-2.48617-.72244-1.13098-.76727-1.73384-2.1125-1.8036-4.0257h13.06858c.01993-1.64914-.0299-2.90966-.15943-3.78654-.2242-1.4947-.70749-2.80504-1.45484-3.941-.82706-1.28045-1.87832-2.2221-3.1538-2.81999zm-3.941-.89183zm16.37682 11.63367h-5.14672c0 2.68546.96159 4.79298 2.88974 6.32752 1.92815 1.53954 4.57375 2.3068 7.9368 2.3068 3.28832 0 5.83926-.78221 7.64285-2.34167 1.8036-1.55448 2.70539-3.5175 2.70539-5.87413 0-2.30183-.76728-4.06058-2.31179-5.27128-.99148-.78222-2.46125-1.40999-4.41432-1.87334l-4.44919-1.0712c-1.71391-.40854-2.83493-.76229-3.36305-1.0662-.8171-.45838-1.22565-1.14594-1.22565-2.06766 0-1.00643.41353-1.78865 1.24558-2.34667.82706-.563 1.93811-.842 3.32817-.842 1.25056 0 2.29186.21423 3.13387.6477 1.26052.65268 1.93811 1.75875 2.03278 3.30824h5.18657c-.09466-2.74026-1.10109-4.83283-3.02425-6.2777-1.91819-1.43988-4.23994-2.16231-6.96028-2.16231-3.25842 0-5.72964.76229-7.41366 2.29185-1.67903 1.53455-2.52104 3.45274-2.52104 5.76452 0 2.536.8719 4.39938 2.61072 5.59014 1.02636.71247 2.88475 1.37014 5.57021 1.97798l2.7303.61282c1.6043.34876 2.77515.75233 3.52249 1.2107.74735.46335 1.12102 1.126 1.12102 1.97797 0 1.45982-.75233 2.45628-2.25698 2.99437-.79717.279-1.8285.4185-3.10398.4185-2.12246 0-3.62213-.52812-4.49901-1.59433-.4783-.58293-.80215-1.4648-.96657-2.64062zm5.24138-18.63878zm15.15117 30.26747v3.99082c.53311.03986.93668.0598 1.20572.06477a57.0594 57.0594 0 0 0 1.0712.00997c2.20715 0 3.67693-.43844 4.41431-1.30536.7324-.8719 1.73384-3.11892 2.99436-6.73607l6.55173-18.7783h-5.31113l-3.941 14.08497-4.1652-14.08496h-5.55527l7.00511 19.93418c.04983.1395-.0548.52314-.30392 1.1559-.24911.62776-.52314 1.04628-.8171 1.24557-.29893.20926-.6726.34378-1.12101.39858-.44342.05979-.90678.07972-1.40003.0548zm6.76098-23.26236zm27.8411 1.6043c-1.25554-1.03631-2.8698-1.5495-4.8428-1.5495-1.57939 0-2.87977.38365-3.90612 1.1559-.57297.42848-1.1808 1.13597-1.82352 2.11748v-2.7851h-4.81789v19.0573h4.97732v-10.3333c0-1.1808.16442-2.14737.48827-2.90966.63275-1.4349 1.79362-2.15236 3.4876-2.15236 1.37512 0 2.3118.48827 2.80006 1.46978.26904.5381.40356 1.31035.40356 2.31179v11.61374h5.11683v-12.85433c0-2.39649-.62777-4.1104-1.88331-5.14174zm-6.68127-1.6043zm24.5727 7.35886h5.11683c-.284-2.72034-1.18579-4.6186-2.71037-5.69477-1.5196-1.0712-3.48263-1.60928-5.87413-1.60928-2.815 0-5.02216.91176-6.62148 2.7303-1.59932 1.82352-2.40147 4.37446-2.40147 7.65281 0 2.90966.72742 5.27626 2.17228 7.0948 1.44985 1.82352 3.70683 2.73528 6.78091 2.73528 3.0691 0 5.38587-1.09112 6.9553-3.27835.97652-1.35519 1.52956-2.7901 1.64415-4.3097h-5.09689c-.10463 1.00643-.40357 1.82353-.89183 2.45628-.49325.62777-1.32031.94664-2.49115.94664-1.64416 0-2.76518-.79717-3.36305-2.38652-.32385-.85198-.48827-1.97798-.48827-3.378 0-1.46978.16442-2.65059.48827-3.53744.62278-1.66907 1.7737-2.5061 3.45273-2.5061 1.1808 0 2.04773.38364 2.61073 1.1559.38363.57296.62278 1.21568.71745 1.92815zm-3.38298-7.35886z"/></svg>