<?xml version="1.0" standalone="no"?>
<!DOCTYPE svg PUBLIC "-//W3C//DTD SVG 20010904//EN"
 "http://www.w3.org/TR/2001/REC-SVG-20010904/DTD/svg10.dtd">
<svg version="1.0" xmlns="http://www.w3.org/2000/svg"
 width="128.000000pt" height="128.000000pt" viewBox="0 0 128.000000 128.000000"
 preserveAspectRatio="xMidYMid meet">

<g transform="translate(0.000000,128.000000) scale(0.100000,-0.100000)"
fill="#000000" stroke="none">
<path d="M0 640 l0 -640 640 0 640 0 0 640 0 640 -640 0 -640 0 0 -640z m585
381 c98 -43 141 -109 132 -203 -3 -32 -11 -66 -19 -75 -12 -15 -10 -15 19 0
74 39 211 9 230 -49 9 -27 10 -27 93 -25 143 3 230 -37 230 -105 0 -48 -26
-59 -143 -58 l-97 0 25 -26 c29 -30 34 -83 10 -118 -25 -35 -114 -56 -204 -48
-108 9 -200 33 -237 61 -39 30 -41 30 -68 7 -21 -17 -21 -17 -3 4 20 25 40 84
27 84 -5 0 -11 -8 -15 -19 -3 -10 -15 -27 -26 -37 -19 -17 -20 -17 -13 0 4 10
3 17 -2 14 -5 -2 -27 -13 -49 -23 -61 -30 -233 -28 -295 3 -77 38 -92 49 -81
56 6 4 11 15 11 25 0 67 102 104 290 107 173 2 169 2 146 15 -10 6 -56 14
-102 17 -46 2 -84 9 -84 15 0 5 -13 7 -31 3 -83 -16 -201 130 -159 198 7 11
23 40 36 64 20 38 21 43 6 37 -40 -15 27 38 89 69 60 31 70 33 150 31 62 -2
99 -8 134 -24z m-75 -625 c0 -2 -8 -10 -17 -17 -16 -13 -17 -12 -4 4 13 16 21
21 21 13z m-75 -56 c-3 -5 -12 -10 -18 -10 -7 0 -6 4 3 10 19 12 23 12 15 0z"/>
<path d="M535 993 c-33 -8 -65 -45 -65 -73 0 -57 76 -117 135 -106 88 17 113
89 50 145 -20 17 -41 31 -48 31 -7 0 -21 2 -32 4 -11 2 -29 2 -40 -1z m59 -53
c14 -5 32 -21 42 -35 15 -23 15 -27 0 -50 -11 -17 -25 -25 -44 -24 -27 0 -27
0 -4 10 28 11 28 55 -1 53 -9 -1 -17 2 -17 7 0 15 -27 10 -41 -7 -10 -13 -10
-20 0 -37 l13 -22 -22 22 c-28 26 -21 69 13 83 29 12 31 12 61 0z"/>
<path d="M284 939 c-79 -23 -104 -108 -47 -160 59 -52 157 -47 212 12 41 45
17 116 -49 143 -44 18 -69 19 -116 5z m136 -49 c11 -6 24 -20 30 -31 36 -66
-80 -116 -142 -61 -58 51 40 131 112 92z"/>
<path d="M366 854 c-9 -8 -16 -21 -16 -28 0 -33 57 -49 80 -21 16 19 8 50 -13
49 -9 -1 -17 2 -17 7 0 14 -17 11 -34 -7z"/>
<path d="M661 700 c-13 -11 -19 -20 -13 -20 6 0 16 -2 24 -5 9 -4 13 3 13 20
0 14 0 25 0 25 0 -1 -11 -10 -24 -20z"/>
<path d="M700 696 c0 -8 5 -18 10 -21 6 -3 10 3 10 14 0 12 -4 21 -10 21 -5 0
-10 -6 -10 -14z"/>
<path d="M595 547 c-17 -24 -20 -67 -6 -67 19 0 102 63 94 70 -4 4 -22 10 -40
13 -26 5 -35 2 -48 -16z"/>
<path d="M830 566 c0 -2 13 -6 29 -8 17 -2 28 -1 25 4 -5 8 -54 12 -54 4z"/>
</g>
</svg>
