<svg id="Layer_1" data-name="Layer 1" xmlns="http://www.w3.org/2000/svg" viewBox="0 0 782 358"><defs><style>.cls-1{fill:#059fd8;}.cls-2{fill:#079fd9;}</style></defs><title>LOGO</title><path class="cls-1" d="M703.46,285.86c0,38.77-30.2,68.25-69.78,68.21s-69.6-29.58-69.58-68.4,30.28-68.31,69.78-68.25S703.5,247.09,703.46,285.86Zm-35.3,0c0-19.55-14.8-34.61-34.17-34.71s-34.58,14.93-34.62,34.57c0,19.44,15,34.72,34.17,34.82C652.93,320.61,668.13,305.39,668.16,285.84Z"/><path class="cls-1" d="M305.4,335.43c0-4,.16-8-.06-11.94-.15-2.73.46-3.34,3.23-2.59,11,3,22.19,4.64,33.64,3.9a32.11,32.11,0,0,0,12.4-2.9c8-3.94,8.7-12.45,1.52-17.71-3.92-2.87-8.53-4.22-13.08-5.64-8.28-2.58-16.3-5.64-23.48-10.72-21.44-15.17-18.41-49.92,3.75-62.82,9.78-5.69,20.4-7.67,31.49-7.6a146.83,146.83,0,0,1,29.28,3.51c2,.42,2.7,1.18,2.66,3.33-.16,7.66-.12,15.33,0,23,0,2-.4,2.47-2.5,1.95-9-2.23-18.1-3.84-27.45-3.27a26,26,0,0,0-12,3.22c-5.81,3.46-6.4,10-1.31,14.46,3,2.62,6.69,3.83,10.38,5.06,6.59,2.2,13.37,3.86,19.61,7.06,14,7.16,22.41,18.11,22.48,34.19.08,16.78-7.3,29.42-22.45,37.17-9,4.62-18.74,6.54-28.77,6.91-12.38.46-24.63-1-36.83-3-2-.31-2.62-1.06-2.55-3C305.51,343.79,305.4,339.61,305.4,335.43Z"/><path class="cls-1" d="M528.94,257.5a61.39,61.39,0,0,0-30.67-6.84c-19.05.72-33.38,15.22-33.81,34.43a34.39,34.39,0,0,0,32.19,35.62,59.3,59.3,0,0,0,30.14-5.62,3,3,0,0,1,2.15-.6v27.66c0,7.4,0,7.46-7.41,9.18-18.5,4.27-36.81,4.25-54.3-3.92-24.5-11.45-37.45-31.06-38.75-58-1.15-23.84,7.2-43.73,26.56-58.26,13.66-10.25,29.41-14.11,46.32-13.64a100.38,100.38,0,0,1,25.27,4c1.22.35,2.37.52,2.36,2.39C528.89,234.91,528.94,246,528.94,257.5Z"/><path class="cls-1" d="M181.23,257.5a61.09,61.09,0,0,0-30.69-6.84c-19.16.73-33.49,15.39-33.78,34.79-.29,18.8,13.49,33.8,32.28,35.27a59.91,59.91,0,0,0,31.74-6.41c.77.85.43,1.77.43,2.6,0,9.86,0,19.72.06,29.57,0,2.08-.42,3.1-2.67,3.71-20,5.32-39.8,6.13-59-2.74C94.73,335.89,81.9,315.9,80.77,288.6c-.91-21.95,6.54-40.63,23.47-55,10.86-9.24,23.67-14.11,37.75-15.63a96.69,96.69,0,0,1,36.62,3.43c1.9.53,2.7,1.22,2.67,3.39C181.16,235.5,181.23,246.25,181.23,257.5Z"/><path class="cls-2" d="M227,109.12q0,43,0,86c0,8.89-5.15,15.68-13,17.33-10.3,2.16-19.6-5.12-20.15-15.79,0-.7,0-1.39,0-2.09q0-85.86,0-171.71c0-6.66,2.17-12.14,8-15.69a15.66,15.66,0,0,1,16.73-.32c5.83,3.27,8.5,8.49,8.51,15.06q.05,36.43,0,72.87Q227,102,227,109.12Z"/><path class="cls-1" d="M557.41,108.75q0-43.31,0-86.62c0-9.08,5.22-15.62,13.49-17.11a16.44,16.44,0,0,1,19.44,15.66c0,.79,0,1.59,0,2.39q0,85.73,0,171.46a19.27,19.27,0,0,1-2.57,10.57,16.51,16.51,0,0,1-18.41,7.18,16.27,16.27,0,0,1-12-16c-.07-23.9,0-47.79,0-71.69Q557.41,116.67,557.41,108.75Z"/><path class="cls-2" d="M260.45,285.65c0,21,0,42,.06,63,0,2.54-.73,3.12-3.16,3.08-9.26-.14-18.52-.11-27.78,0-1.91,0-2.51-.46-2.51-2.46q.09-63.47,0-126.94c0-2.08.55-2.69,2.65-2.67,9.16.11,18.32.15,27.48,0,2.6,0,3.34.58,3.33,3.26C260.39,243.84,260.45,264.74,260.45,285.65Z"/><path class="cls-2" d="M681.21,123.5c0,13.44.1,26.87,0,40.31-.09,8.43-6.2,14.84-14.82,16a16.31,16.31,0,0,1-17.6-11.65,18.17,18.17,0,0,1-.76-5q-.07-39.71,0-79.43c0-7,3.18-12.29,9.57-15.28,6.14-2.87,12.06-2,17.4,2.06,4.3,3.3,6.25,7.87,6.25,13.27q0,19.86,0,39.71Z"/><path class="cls-2" d="M103,123.31c0-13.24-.07-26.48,0-39.72a16.55,16.55,0,0,1,30.46-9.13,16.85,16.85,0,0,1,2.69,9.33c0,26.38.06,52.77,0,79.15,0,9.73-7.44,17.16-16.67,17.06s-16.44-7.47-16.48-17.26C102.95,149.59,103,136.45,103,123.31Z"/><path class="cls-2" d="M284.67,123.44c0-13.24-.08-26.48,0-39.72.06-7,3.23-12.27,9.62-15.25,6.15-2.87,12.06-2,17.37,2.15a15.63,15.63,0,0,1,6.14,12.74c.07,26.68.11,53.36,0,80A16.5,16.5,0,0,1,301.3,180c-9.25,0-16.54-7.37-16.61-17.13C284.6,149.72,284.67,136.58,284.67,123.44Z"/><path class="cls-1" d="M499.48,123.62c0,13.13.07,26.27,0,39.4-.05,6.69-3,11.94-9,15.06a15.61,15.61,0,0,1-16.69-1c-5.44-3.63-7.4-9-7.39-15.42.06-22.48,0-45,0-67.45,0-3.78-.14-7.57.11-11.34.63-9.51,8.05-16.46,16.94-16.06,9.17.41,15.95,7.55,16,17.09C499.54,97.16,499.48,110.39,499.48,123.62Z"/><path class="cls-2" d="M12.16,146.18c0-5.57,0-11.14,0-16.71.09-9.74,7.23-17.12,16.55-17.16,9.14,0,16.46,7.2,16.6,16.78q.24,17,0,34C45.18,172.72,37.93,180,28.79,180s-16.51-7.39-16.62-17.1C12.11,157.32,12.16,151.75,12.16,146.18Z"/><path class="cls-2" d="M408.6,146.22c0,5.67.12,11.35,0,17-.24,9-6.11,15.48-14.88,16.6-7.54,1-15.06-4.07-17.39-11.63a19,19,0,0,1-.79-5.59c0-11.15-.09-22.3,0-33.45.09-8.12,5.33-14.72,12.69-16.4a16.48,16.48,0,0,1,18.42,8.39,18.2,18.2,0,0,1,1.95,8.64C408.62,135.27,408.6,140.75,408.6,146.22Z"/><path class="cls-1" d="M772,146.3c0,5.77.14,11.55,0,17.32-.26,8.83-6.44,15.31-15.25,16.27-7.51.82-15-4.39-17.08-12a22,22,0,0,1-.68-5.6c-.06-10.75-.09-21.51,0-32.26.07-9.38,5.56-16.12,13.95-17.4C763,111,771.71,118.45,771.93,129,772.05,134.75,772,140.53,772,146.3Z"/></svg>