<svg id="Layer_1" data-name="Layer 1" xmlns="http://www.w3.org/2000/svg" viewBox="0 0 150.32528 140.65088"><defs><style>.cls-1{fill:#91c1fe;}.cls-2{fill:#ae4535;}.cls-3{fill:#f60;}.cls-4{fill:#fff;}.cls-5{fill:#e70034;}.cls-6{fill:#00e72c;}.cls-7{fill:maroon;}.cls-8{fill:#211d20;}.cls-9{fill:#99f;}</style></defs><title>colortribe</title><circle class="cls-1" cx="75.34668" cy="40.10552" r="31.37802"/><path d="M75.34681,74.23375a34.12818,34.12818,0,1,1,34.12793-34.12842A34.1668,34.1668,0,0,1,75.34681,74.23375Zm0-62.75635a28.62818,28.62818,0,1,0,28.62793,28.62793A28.66048,28.66048,0,0,0,75.34681,11.4774Z"/><polygon points="71.262 36.073 67.186 37.013 71.936 33.378 68.265 32.207 75.856 29.703 71.262 26.249 80.579 25.723 79.811 20.982 86.818 21.595 87.854 21.595 71.262 36.073"/><path class="cls-2" d="M97.74541,42.68969s0,8.521-.44408,9.31049-8.68273.84855-8.68273.84855L88.109,62.50446s-4.42968-3.47375-6.69443-4.228c-3.85491-1.28386-15.6995.6746-15.6995.6746s3.48232-4.1344,4.16174-5.99516c.50775-1.3906.43562-5.92114.43562-5.92114l.074-4.58889s8.56721-8.24956,11.54623-10.73207c4.44086-3.70072,11.27485-4.73692,11.27485-4.73692s2.92817,4.34217,4.30977,6.908,3.1248,7.53326,1.7432,8.32275-4.77114,1.10817-4.96851-.27343-.19737-1.58546-.19737-1.58546"/><path d="M88.44545,63.24449l-.56836-.44531c-.04395-.03418-4.4043-3.44189-6.58106-4.167-3.72168-1.23975-15.40234.66943-15.51953.689l-1.00293.16553.6543-.77734c.03515-.04053,3.44824-4.1045,4.09668-5.88184a26.35731,26.35731,0,0,0,.41308-5.78711l.07715-4.75684.11231-.10791c.085-.08251,8.61035-8.28759,11.56543-10.75,4.46972-3.7246,11.1748-4.77636,11.458-4.81933l.23536-.03565.13183.19678c.0293.04346,2.95508,4.38721,4.33008,6.93945.7959,1.478,3.58008,7.69434,1.59961,8.82618a5.3668,5.3668,0,0,1-1.32715.50146c-.00488,2.34229-.05859,8.37891-.49219,9.1499-.4414.78467-4.86816.99854-8.65429,1.03614ZM77.36927,57.46471a14.36758,14.36758,0,0,1,4.16309.45556c1.835.61133,4.958,2.88526,6.23926,3.853l.49121-9.29736.35254-.00244c3.67383-.02637,7.92383-.29834,8.38476-.69239a63.47556,63.47556,0,0,0,.36914-8.59912,4.94774,4.94774,0,0,1-2.67578-.21924,1.27222,1.27222,0,0,1-.77246-.97558c-.14844-1.03809-.20117-1.52735-.20117-1.63867h.75c0,.002.01074.24951.19336,1.53222.00879.062.03613.25.35937.40821a5.67276,5.67276,0,0,0,4.05176-.40723c.93946-.53662-.27246-4.81982-1.88672-7.81934-1.18945-2.20752-3.5664-5.792-4.15625-6.6748-1.22558.22119-7.00683,1.4043-10.85839,4.61426-2.751,2.292-10.39454,9.626-11.41407,10.606l-.07129,4.43262c.00293.17578.06739,4.605-.458,6.04395A27.347,27.347,0,0,1,66.629,58.42906,81.68145,81.68145,0,0,1,77.36927,57.46471Z"/><path class="cls-3" d="M71.262,36.07307s6.59629-9.03221,11.31437-11.47862a32.24123,32.24123,0,0,1,6.65128-2.83138,3.75043,3.75043,0,0,1,2.32687.03279c2.14642.81416,2.31912,5.181,2.31912,5.181s-6.78464,1.86121-9.96087,4.00291a40.28861,40.28861,0,0,0-5.99718,5.44675l-6.144-.35345Z"/><path d="M78.07435,36.81139l-6.32422-.36377-1.22656.00049.43555-.5962c.27148-.37158,6.70312-9.13183,11.44433-11.59033a32.51263,32.51263,0,0,1,6.73438-2.8623,4.08848,4.08848,0,0,1,2.5498.0459c2.35157.89209,2.55274,5.32861,2.56055,5.51709l.01172.29736-.28711.0791c-.06738.01807-6.76172,1.86963-9.84961,3.95215a40.18713,40.18713,0,0,0-5.92871,5.38574Zm-6.07226-1.1001,5.75586.33057a39.32986,39.32986,0,0,1,5.94531-5.373c2.85058-1.92188,8.42187-3.5835,9.77734-3.97119-.10547-1.31006-.61035-4.002-2.05859-4.55127a3.36905,3.36905,0,0,0-2.10449-.01953,31.92736,31.92736,0,0,0-6.56836,2.80078C78.85072,26.94908,73.546,33.68248,72.00209,35.71129Z"/><path class="cls-4" d="M79.709,16.19022a48.01784,48.01784,0,0,0-9.47066-1.072c-2.20668.00973-3.89477.05277-3.89477.05277s4.60509,5.35377,8.92259,6.22048,9.81448,1.95644,9.81448,1.95644L88.52683,21.965a30.72082,30.72082,0,0,0-2.87653-2.91048A19.89032,19.89032,0,0,0,79.709,16.19022Z"/><path d="M85.11634,23.73766l-.10937-.022s-5.49707-1.08984-9.81543-1.95654c-4.39258-.88184-8.94043-6.12109-9.13184-6.34375l-.51562-.59961.79-.02s1.6914-.043,3.90234-.05273a49.048,49.048,0,0,1,9.56543,1.084,20.195,20.195,0,0,1,6.085,2.936,30.74241,30.74241,0,0,1,2.92285,2.95654l.34473.39746ZM67.17982,15.52818c1.335,1.40577,4.87012,4.835,8.16016,5.49561,3.959.79492,8.91113,1.77734,9.7041,1.93457l2.84863-1.14258a26.53728,26.53728,0,0,0-2.47851-2.46973,19.561,19.561,0,0,0-5.79786-2.79248h0a49.02436,49.02436,0,0,0-9.376-1.06054C68.97572,15.4984,67.882,15.515,67.17982,15.52818Z"/><path d="M70.79349,16.65187c.12778.85952,1.67748,2.30707,2.84955,3.33064.74821.65341,1.50319.95037,1.11346,1.40892-.59536.70049-8.413-5.96566-8.413-5.96566l6.60913-.23589S70.61744,15.46764,70.79349,16.65187Z"/><path d="M86.39245,29.64952s.94379,1.02806.8695,3.98863-1.102,7.84551-2.50829,9.91792a55.63342,55.63342,0,0,1-4.15327,5.033l.66612,1.18423-.66612.88817s1.62831,1.77634,2.73852,2.88656,4.08773,3.87415,4.60583,5.94655.8797,3.91429.8797,3.91429-6.25664.50963-9.01354-3.6267A37.9761,37.9761,0,0,1,76.67763,53.548l-2.02306-.29606V50.58742a4.24135,4.24135,0,0,1-2.4178-.59211,11.93983,11.93983,0,0,0-2.44247-1.0362l.59211-6.51326Z"/><path d="M88.11732,63.807c-1.78223,0-6.31445-.35937-8.61914-3.81689a37.27441,37.27441,0,0,1-3.08984-6.10254L74.27943,53.576V50.972a4.98852,4.98852,0,0,1-2.22461-.64844,11.70385,11.70385,0,0,0-2.35742-1.002l-.30469-.08154.63477-6.9878L86.43177,29.13756l.23731.2583c.043.04639,1.04492,1.17529.96777,4.25146-.07812,3.1084-1.15332,8.02832-2.57226,10.11914a52.68383,52.68383,0,0,1-4.00391,4.876L81.713,49.8026l-.625.83447c.47559.51514,1.65821,1.78857,2.51661,2.646l.36328.35937c1.34472,1.32276,3.84668,3.78467,4.34082,5.76123.51465,2.05762.87988,3.91455.88379,3.93311l.08105.41211-.41894.03369C88.80482,63.787,88.53724,63.807,88.11732,63.807ZM75.02943,52.9276l1.91992.28125.07813.20459a37.92324,37.92324,0,0,0,3.0957,6.16064c2.19434,3.293,6.81738,3.499,8.24609,3.47656-.13769-.66406-.42578-2.01416-.78906-3.46533-.44238-1.77148-2.93847-4.228-4.13867-5.4082l-.36719-.36377c-1.10351-1.10352-2.7334-2.88086-2.75-2.89844l-.21-.22949.70606-.94141-.68067-1.20947.18555-.20019a55.71976,55.71976,0,0,0,4.11816-4.98877c1.30762-1.92627,2.36817-6.71875,2.44336-9.7168a7.08758,7.08758,0,0,0-.585-3.42676L70.74623,42.639l-.55078,6.0503a13.06875,13.06875,0,0,1,2.22363.97851,3.97638,3.97638,0,0,0,2.18652.54785l.42188-.05322Z"/><path class="cls-4" d="M96.08757,33.0775a5.13983,5.13983,0,0,0-1.9565.682c-.3117.22-.66114.58612-1.14163.99829a7.58281,7.58281,0,0,1-1.0519.79144l1.46732-.05943,2.83559.19182Z"/><path d="M96.63978,36.08434,93.379,35.86363l-2.96289.12256,1.33691-.76318a7.56368,7.56368,0,0,0,.99219-.75c.18848-.16211.35742-.3169.51074-.458a7.11708,7.11708,0,0,1,.65918-.562,5.47823,5.47823,0,0,1,2.126-.74756l.39746-.05029Zm-3.251-.96924,2.45214.16406-.10253-1.75684a4.07434,4.07434,0,0,0-1.39161.54346,6.33145,6.33145,0,0,0-.583.50147c-.15918.14648-.334.30713-.53028.47509-.0332.02832-.06543.05616-.09765.083Z"/><path class="cls-4" d="M73.23223,20.35118a37.263,37.263,0,0,0-9.57479.43039,24.44136,24.44136,0,0,0-3.89661.92472s5.83932,4.18341,10.24239,4.55018c4.38844.36555,7.83275.28419,10.576-.53385A9.94084,9.94084,0,0,0,82.238,24.7415a7.53487,7.53487,0,0,0-2.15435-2.04432A27.71825,27.71825,0,0,0,73.23223,20.35118Z"/><path d="M74.46009,26.83922c-1.33789,0-2.82324-.07031-4.48828-.209-4.45507-.37158-10.1875-4.4458-10.42968-4.61914l-.58887-.42187.68457-.23731a24.57243,24.57243,0,0,1,3.96289-.94091,38.23854,38.23854,0,0,1,9.69238-.43018h0a28.25777,28.25777,0,0,1,6.98145,2.39356,7.88046,7.88046,0,0,1,2.27637,2.15917l.20117.30323-.29688.21045a9.614,9.614,0,0,1-1.76855,1.03466A21.6712,21.6712,0,0,1,74.46009,26.83922ZM60.61634,21.83434c1.61915,1.06884,6.00391,3.76416,9.418,4.04882,4.7002.39014,7.91993.23047,10.4375-.52a6.98734,6.98734,0,0,0,1.2334-.70947,6.99615,6.99615,0,0,0-1.81347-1.63379A27.17713,27.17713,0,0,0,73.172,20.72105h0a37.643,37.643,0,0,0-9.458.43116A25.05893,25.05893,0,0,0,60.61634,21.83434Z"/><path d="M65.63354,22.82359c.25149.83179.79166,1.433,2.10019,2.27512.83532.53759,1.96335.63956,1.64449,1.14994-.48709.77966-9.56642-4.33851-9.56642-4.33851l9.68644-1.92281S65.287,21.67758,65.63354,22.82359Z"/><path class="cls-4" d="M66.17352,26.24962a50.91783,50.91783,0,0,0-9.49735,1.30717,24.44107,24.44107,0,0,0-3.80209,1.25806s6.14978,3.69745,10.5508,3.54572a36.14358,36.14358,0,0,0,9.60138-1.49534,22.85033,22.85033,0,0,0,3.79847-2.03105,33.18465,33.18465,0,0,0-4.22294-1.80612A30.91374,30.91374,0,0,0,66.17352,26.24962Z"/><path d="M63.15638,32.7401c-4.42871.00049-10.22558-3.45362-10.47558-3.604l-.61621-.3706.65625-.293A24.66872,24.66872,0,0,1,56.588,27.19225a53.15445,53.15445,0,0,1,9.5918-1.31739,31.47537,31.47537,0,0,1,6.52344.792,33.00223,33.00223,0,0,1,4.291,1.833l.582.29493-.54883.35449a22.64164,22.64164,0,0,1-3.90039,2.07715,36.2703,36.2703,0,0,1-9.68946,1.50927Q63.29848,32.74009,63.15638,32.7401Zm-9.42285-3.86963c1.69336.92724,6.2627,3.23437,9.67871,3.11523a35.60838,35.60838,0,0,0,9.51368-1.48193,17.61722,17.61722,0,0,0,3.12988-1.62988,27.1557,27.1557,0,0,0-3.55469-1.48438,30.59178,30.59178,0,0,0-6.333-.76465h0a52.4151,52.4151,0,0,0-9.40429,1.29688A24.98346,24.98346,0,0,0,53.73353,28.87047Z"/><path d="M58.58915,28.92123a5.40909,5.40909,0,0,0,2.52122,2.58421c.87866.46337,1.68176.57832,1.4082,1.11436-.41787.81884-9.5761-3.60626-9.5761-3.60626l3.64-1.35815,4.853-.97836S58.14489,27.80946,58.58915,28.92123Z"/><path class="cls-4" d="M61.3796,32.91582a50.91665,50.91665,0,0,0-8.60615,4.224,24.44127,24.44127,0,0,0-3.21454,2.38859s7.74593,1.466,11.87657-.06041,6.63015-2.34379,9.06957-4.57325c.36746-.33584,1.43081-1.51669,1.43081-1.51669a16.66223,16.66223,0,0,0-3.67119-1.17089A21.89,21.89,0,0,0,61.3796,32.91582Z"/><path d="M56.35756,40.54137a41.474,41.474,0,0,1-6.86817-.644l-.73828-.13964.55469-.50586a24.51912,24.51912,0,0,1,3.26953-2.43018A51.02645,51.02645,0,0,1,61.26771,32.558h0a22.39831,22.39831,0,0,1,7.04492-.72266A16.79368,16.79368,0,0,1,72.09,33.03648l.46777.21143-.34375.38135c-.04394.04883-1.08008,1.19824-1.45605,1.54248-2.32129,2.12158-4.71582,3.002-8.34082,4.33447l-.85157.31348A15.70324,15.70324,0,0,1,56.35756,40.54137Zm-5.94141-1.25c2.06055.31836,7.66309,1.01758,10.88965-.17481l.85254-.314c3.667-1.34864,5.88086-2.16211,8.09375-4.18457.21875-.2002.71093-.73047,1.05078-1.10157a14.27536,14.27536,0,0,0-3.08594-.937,21.71293,21.71293,0,0,0-6.72461.69434h0a51.00354,51.00354,0,0,0-8.52051,4.18457A25.04817,25.04817,0,0,0,50.41615,39.29137Z"/><path d="M54.872,38.079a5.85407,5.85407,0,0,0,3.35153,1.41693c.97973.16394,2.06383.14959,2.21286.43412.42655.81436-10.75009-.23446-10.75009-.23446L54.802,35.96154A1.96752,1.96752,0,0,0,54.872,38.079Z"/><path class="cls-4" d="M71.77161,36.07307c-2.86548.25123-8.696,3.27279-10.44265,4.50427a42.20689,42.20689,0,0,0-6.88484,6.49182A23.08353,23.08353,0,0,0,51.5695,52.096s7.69428-1.05313,11.5438-4.07514,6.93886-5.717,8.62264-8.4152"/><path d="M50.97474,52.556l.24805-.60254A23.12876,23.12876,0,0,1,54.15736,46.828a42.73334,42.73334,0,0,1,6.95606-6.55713c1.7998-1.26953,7.68164-4.31348,10.625-4.57129l.0664.74707c-2.77246.24268-8.55859,3.23779-10.25976,4.4375a41.89114,41.89114,0,0,0-6.81348,6.42627,20.78346,20.78346,0,0,0-2.542,4.30664c1.94238-.334,7.62207-1.481,10.69238-3.89111,3.40527-2.67334,6.7959-5.53125,8.53516-8.31885l.63671.39746c-1.70019,2.72461-4.71093,5.373-8.709,8.51123-3.88477,3.04981-11.40625,4.1084-11.72461,4.15186Z"/><path d="M56.57051,48.28025a3.51289,3.51289,0,0,0,3.31434,1.159c1.10007-.15606,1.42247-.924,1.54583-.45543.26242.99675-9.7978,3.27648-9.7978,3.27648a32.02669,32.02669,0,0,1,1.95635-3.96789c.63739-.90517,2.95768-3.606,2.95768-3.606S55.97405,47.67719,56.57051,48.28025Z"/><path class="cls-4" d="M63.01556,49.59575a27.53963,27.53963,0,0,0-2.47426,7.62471,33.90216,33.90216,0,0,0-.42626,3.56239s5.78427-4.03592,7.26683-7.4054a30.33655,30.33655,0,0,0,2.63958-8.12717c.06475-.40966.14292-2.73041.14292-2.73041s-2.13,1.65581-3.2271,2.452A22.97519,22.97519,0,0,0,63.01556,49.59575Z"/><path d="M59.69642,61.53258l.04492-.771a33.88413,33.88413,0,0,1,.43067-3.60742,27.55372,27.55372,0,0,1,2.5332-7.76855h0a23.18571,23.18571,0,0,1,4.0127-4.71729c1.07812-.7832,3.19531-2.42822,3.21582-2.44434l.63183-.49121-.02636.79981c-.00782.23974-.08106,2.356-.14746,2.77588a30.98739,30.98739,0,0,1-2.667,8.21972c-1.50683,3.42676-7.15527,7.395-7.39453,7.5625ZM69.7599,43.307c-.71973.55469-1.88574,1.44824-2.60156,1.96826a22.51318,22.51318,0,0,0-3.832,4.53028h0a27.28718,27.28718,0,0,0-2.416,7.48144c-.18359,1.021-.2959,2.03614-.35742,2.71143,1.54-1.15576,5.35351-4.19873,6.48633-6.772a29.97936,29.97936,0,0,0,2.6123-8.03467C69.6847,44.9818,69.7267,44.11656,69.7599,43.307Z"/><path d="M62.573,55.89178a5.32975,5.32975,0,0,0,3.37259-.64145c.73838-.49464.19835-.52677.5781-.12738.58011.61011-6.91824,6.16953-6.91824,6.16953l.6971-3.311,1.03725-4.35822S61.41329,55.82535,62.573,55.89178Z"/><path class="cls-4" d="M79.8109,40.34878a5.157,5.157,0,1,1-5.15633-5.15633A5.15633,5.15633,0,0,1,79.8109,40.34878Z"/><path d="M74.65443,45.88023A5.53149,5.53149,0,1,1,80.18568,40.349,5.53769,5.53769,0,0,1,74.65443,45.88023Zm0-10.313A4.78149,4.78149,0,1,0,79.43568,40.349,4.75691,4.75691,0,0,0,74.65443,35.56725Z"/><path class="cls-4" d="M75.80535,50.49232c.93651-1.05444,3.46786-2.75825,4.74407-2.1581.30739.14456.7584.80636.66613,1.13327-.4035,1.42963-3.67292,3.35719-5.09852,3.77473a1.51329,1.51329,0,0,1-1.51342-.29606C74.1497,52.38746,75.32733,51.03053,75.80535,50.49232Z"/><path d="M75.57435,53.81773a1.71955,1.71955,0,0,1-1.35937-.55664c-.65137-.80224.30761-2.07812,1.21679-3.10058h0c.88282-.99317,3.6709-3.05811,5.33008-2.27881a1.82428,1.82428,0,0,1,.93555,1.72119C81.213,51.31676,77.68177,53.305,76.25795,53.722A2.45707,2.45707,0,0,1,75.57435,53.81773Zm4.35742-5.10986a6.81091,6.81091,0,0,0-3.75195,2.1167h0c-1.23828,1.39209-1.18652,1.78613-1.17676,1.82666a1.108,1.108,0,0,0,.97364.11084c1.5166-.44385,4.44043-2.30664,4.75781-3.43066a1.332,1.332,0,0,0-.40039-.54541A.94368.94368,0,0,0,79.93177,48.70787Z"/><path d="M93.54115,46.98619a5.97007,5.97007,0,0,1-2.40918-.36426A11.141,11.141,0,0,1,89.6974,45.452l.50781-.55176A11.38516,11.38516,0,0,0,91.466,45.95006c1.1084.55127,4.5459.16113,5.77832-.03418l.083-.01123.043-1.84766.75.01758-.05859,2.49121-.71094.09229A27.25458,27.25458,0,0,1,93.54115,46.98619Z"/><circle class="cls-5" cx="39.33331" cy="101.18842" r="31.37802"/><path d="M39.33314,135.31627a34.12793,34.12793,0,1,1,34.12793-34.12793A34.16638,34.16638,0,0,1,39.33314,135.31627Zm0-62.75586a28.62793,28.62793,0,1,0,28.62793,28.62793A28.66048,28.66048,0,0,0,39.33314,72.56041Z"/><path class="cls-2" d="M56.82264,102.67277s.1203,8.09236-.44409,8.80085c-1.6989,2.13272-8.68272.84855-8.68272.84855l-.50963,9.65574a58.03921,58.03921,0,0,0-6.69443-3.20876c-3.85491-1.28386-15.6995-.34466-15.6995-.34466s3.48232-4.1344,4.16174-5.99516c.50775-1.3906.43561-5.92114.43561-5.92114l.074-4.58889s6.9632-12.88707,9.94222-15.36959a17.7009,17.7009,0,0,1,8.49581-4.1448s7,6.0542,8.69281,10.44377c1.04855,2.719,3.63444,8.55252,2.25284,9.342s-5.28077.59855-5.47814-.78306-.19737-1.58545-.19737-1.58545"/><path d="M47.52943,122.59654,47.005,122.306a57.89741,57.89741,0,0,0-6.63184-3.18067c-3.73926-1.24512-15.43359-.33642-15.55176-.32666l-.89453.0708.57813-.68652c.03515-.04053,3.44824-4.105,4.09668-5.88233a26.35125,26.35125,0,0,0,.41308-5.78662l.11914-4.773c.28614-.5288,7.03223-12.97949,10.03125-15.47949a17.92922,17.92922,0,0,1,8.69532-4.229l.16308-.01807.123.10694c.28906.25,7.09082,6.1665,8.79785,10.59228.13672.35449.2998.76221.47656,1.20508,1.69434,4.23974,2.98438,7.81348,1.61328,8.59765a4.70053,4.70053,0,0,1-1.832.478c.03223,2.62549.0293,8.00879-.52929,8.7124-1.585,1.9878-7.04786,1.29981-8.625,1.0542ZM33.14759,117.7152a28.20009,28.20009,0,0,1,7.46192.69824,51.23956,51.23956,0,0,1,6.23437,2.9497l.5-9.48681.419.07715c1.88184.34472,7.04492.89062,8.32324-.71387.28711-.46826.41016-4.481.36621-8.21387a6.13167,6.13167,0,0,1-2.5166-.47168,1.47589,1.47589,0,0,1-.9375-1.09326c-.14844-1.03809-.20117-1.52734-.20117-1.63867h.75c0,.00195.01074.24951.19336,1.53223.03418.23925.30469.418.52441.52587a6.14634,6.14634,0,0,0,4.39649-.01513c.917-.52442-1.082-5.53028-1.93653-7.668-.17773-.4458-.34179-.85645-.47949-1.21387-1.5166-3.92969-7.50586-9.33691-8.46094-10.18213a17.98791,17.98791,0,0,0-8.13867,4.03662c-2.76953,2.30762-9.21387,14.08741-9.80859,15.17969l-.07227,4.49658c.00293.17578.06739,4.605-.458,6.04395a27.9022,27.9022,0,0,1-3.66894,5.42969C27.08705,117.89,30.10365,117.7152,33.14759,117.7152Z"/><path class="cls-4" d="M55.67442,92.449a5.13975,5.13975,0,0,0-1.95649.682c-.3117.22-.66114.58612-1.14163.99829-.6749.57892-1.05191.89337-1.05191.89337l1.46733-.05943,2.88655.0899Z"/><path d="M50.43666,95.44225l.84765-.70752c.001-.001.377-.314,1.04786-.89014.18847-.16211.35742-.31689.51074-.458a7.11446,7.11446,0,0,1,.65918-.562,5.47572,5.47572,0,0,1,2.125-.74756l.38965-.04931.26757,3.41308-3.30468-.10254Zm2.53906-.85352,2.49609.07666L55.33217,92.892a4.09213,4.09213,0,0,0-1.39844.54541,6.33431,6.33431,0,0,0-.583.50147c-.15918.14648-.334.30713-.53027.4751-.07813.06689-.15235.13037-.22168.18994Z"/><path class="cls-4" d="M39.90739,100.33186a5.157,5.157,0,1,1-5.15633-5.15633A5.15633,5.15633,0,0,1,39.90739,100.33186Z"/><path d="M34.75111,105.86314a5.53125,5.53125,0,1,1,5.53125-5.53125A5.53769,5.53769,0,0,1,34.75111,105.86314Zm0-10.3125a4.78125,4.78125,0,1,0,4.78125,4.78125A4.75692,4.75692,0,0,0,34.75111,95.55064Z"/><path class="cls-4" d="M35.90183,110.4754c.93652-1.05444,3.46787-2.75825,4.74408-2.1581.30739.14455.7584.80636.66613,1.13327-.40351,1.42963-3.67293,3.35718-5.09852,3.77473a1.51334,1.51334,0,0,1-1.51343-.29606C34.24619,112.37054,35.42381,111.01361,35.90183,110.4754Z"/><path d="M35.672,113.80064a1.72159,1.72159,0,0,1-1.36035-.55664c-.64649-.79589.25195-2.01416,1.21582-3.10058h0c.88281-.99317,3.66992-3.05811,5.33105-2.27881a1.821,1.821,0,0,1,.93457,1.72266c-.4834,1.71191-4.01465,3.70068-5.43847,4.11816A2.4737,2.4737,0,0,1,35.672,113.80064Zm.60351-2.99316c-1.2373,1.39356-1.18554,1.78662-1.17578,1.82666a1.116,1.116,0,0,0,.97364.11133c1.5166-.44434,4.44043-2.30762,4.75683-3.43067a1.3297,1.3297,0,0,0-.39941-.54589c-.89551-.419-3.19043.95166-4.15528,2.03857Z"/><path d="M57.17884,107.25279l-.94628-1.09131c-.99122.147-4.63575.624-6.02344-.06591a11.60928,11.60928,0,0,1-1.43457-1.17041l.50781-.55176a11.50329,11.50329,0,0,0,1.26172,1.05078c1.10547.55225,4.54492.16113,5.77734-.03467l.14258-.02295.03418-1.83447.75.01367Z"/><path d="M41.32425,82.40491s2.42853,1.82322,2.87137,2.08079c.45279.26336-.57584.64381-.40437,1.10547.78817,2.12209,3.61913,5.9602,3.56719,8.03006-.07429,2.96057-1.102,7.84551-2.5083,9.91791a55.63234,55.63234,0,0,1-4.15327,5.033l.66613,1.18423-.66613.88817s1.62832,1.77634,2.73853,2.88655,4.08773,3.87416,4.60583,5.94656.8797,3.91429.8797,3.91429-6.25664.50963-9.01354-3.6267a37.97646,37.97646,0,0,1-3.13328-6.23415l-2.023-.296V110.5705a4.24134,4.24134,0,0,1-2.4178-.59211,11.93977,11.93977,0,0,0-2.44248-1.0362l.59212-6.51326Z"/><path d="M48.214,123.7899c-1.78418,0-6.31445-.35937-8.61914-3.81689A37.29465,37.29465,0,0,1,36.505,113.871l-2.12891-.31153v-2.604a4.99282,4.99282,0,0,1-2.22559-.64941,11.69753,11.69753,0,0,0-2.35644-1.00147l-.30469-.08154.66309-6.97266L41.20131,81.8441l.34765.26123c.6709.50342,2.48828,1.854,2.835,2.05615a.55809.55809,0,0,1,.29785.41016.82782.82782,0,0,1-.331.67236,1.07878,1.07878,0,0,0-.20508.25147,25.85011,25.85011,0,0,0,1.4082,2.74512c1.08887,1.95214,2.21485,3.97119,2.17969,5.39013-.07812,3.10742-1.15429,8.02686-2.57324,10.11866a52.61937,52.61937,0,0,1-4.00391,4.876l.6543,1.16016-.627.83447c.47656.51563,1.65918,1.78857,2.51758,2.646l.36621.3623c1.34277,1.32178,3.84375,3.7832,4.33789,5.7583.51465,2.05811.87988,3.91455.88379,3.93311l.081.41211-.41894.03369C48.9015,123.76988,48.63392,123.7899,48.214,123.7899ZM35.12611,112.911l1.91992.28076.07813.20459a37.92324,37.92324,0,0,0,3.0957,6.16064c2.19531,3.29444,6.81543,3.51026,8.24609,3.47656-.13769-.66406-.42578-2.01367-.78906-3.46533-.4414-1.77051-2.93652-4.22558-4.13574-5.40576l-.37109-.36621c-1.10254-1.10352-2.7334-2.88037-2.75-2.89844l-.21094-.22949.707-.94141-.68066-1.209.18652-.20068a55.87816,55.87816,0,0,0,4.11719-4.98877c1.30761-1.92725,2.36914-6.71924,2.44433-9.71631.03028-1.21436-1.09277-3.229-2.084-5.00635a23.67262,23.67262,0,0,1-1.46-2.88428.96839.96839,0,0,1,.37109-.99853l.02246-.02393c-.53418-.35693-1.76562-1.27051-2.38574-1.7334L30.84877,102.5399l-.55664,6.13233a13.02832,13.02832,0,0,1,2.22363.97851,3.96785,3.96785,0,0,0,2.18652.54834l.42188-.05322Z"/><path d="M40.44413,84.9214s9.1602,3.78295,11.38169.54129a11.54541,11.54541,0,0,0-9.95251-4.90041c-5.57019.01619-11.43373,2.14458-12.27858,3.23012a4.1088,4.1088,0,0,1,1.7501,2.78735c.66167,13.75211-4.74137,15.61166-5.35277,19.50232,0,0,7.65481,5.26873,8.759,5.59865s8.7656-5.0645,10.09908-8.14158S40.44413,84.9214,40.44413,84.9214Z"/><path class="cls-4" d="M36.46243,110.78117c.93651-1.05443,3.46786-2.75824,4.74407-2.15809.30739.14455.7584.80636.66613,1.13327-.4035,1.42962-3.67292,3.35718-5.09852,3.77472a1.51329,1.51329,0,0,1-1.51342-.296C34.80678,112.67632,35.98441,111.31939,36.46243,110.78117Z"/><path d="M36.23256,114.10631a1.71935,1.71935,0,0,1-1.35938-.55567c-.64746-.79687.251-2.01513,1.21484-3.10156h0c.88282-.99316,3.66993-3.0581,5.33106-2.27881a1.821,1.821,0,0,1,.93457,1.72266c-.4834,1.71191-4.01465,3.70068-5.43848,4.11816A2.47362,2.47362,0,0,1,36.23256,114.10631Zm.60351-2.99317c-1.2373,1.394-1.18555,1.78711-1.17578,1.82715a1.10892,1.10892,0,0,0,.97363.11084c1.5166-.44433,4.44043-2.30761,4.75684-3.43066a1.32978,1.32978,0,0,0-.39942-.5459c-.89453-.4209-3.19042.95166-4.15527,2.03857Z"/><path class="cls-4" d="M26.27983,93.71591a47.90325,47.90325,0,0,0-2.39184,10.13,27.0979,27.0979,0,0,0-.028,4.46435s6.13271-5.16948,7.55042-9.87022a40.0709,40.0709,0,0,0,1.85644-10.67194,25.35987,25.35987,0,0,0-.79421-4.73717s-2.09713,2.77443-3.06006,4.17681A34.33853,34.33853,0,0,0,26.27983,93.71591Z"/><path d="M23.55482,109.05846l-.06738-.71241a27.23008,27.23008,0,0,1,.02734-4.5332,48.43073,48.43073,0,0,1,2.41114-10.22363h0a35.0432,35.0432,0,0,1,3.17675-6.59375c.957-1.39307,3.04981-4.1626,3.07129-4.19043l.46973-.62207.19238.75586a25.06187,25.06187,0,0,1,.80469,4.84961,40.14631,40.14631,0,0,1-1.87109,10.76025c-1.4336,4.75244-7.41407,9.83447-7.667,10.04834ZM26.633,93.84215a47.60008,47.60008,0,0,0-2.37207,10.03711,27.85841,27.85841,0,0,0-.07422,3.6416c1.53808-1.40088,5.74707-5.48291,6.86426-9.189a39.50527,39.50527,0,0,0,1.84179-10.58447,19.36688,19.36688,0,0,0-.59863-3.854c-.67676.90332-1.90625,2.55615-2.57227,3.52685A34.07079,34.07079,0,0,0,26.633,93.84215Z"/><path d="M26.02322,102.31458a6.07082,6.07082,0,0,0,3.64878-1.737c.80729-.76183,1.21747-1.56857,1.68858-1.08793.71967.73423-7.265,8.81951-7.265,8.81951l-.13645-4.329.702-5.47375S24.6832,102.38573,26.02322,102.31458Z"/><path class="cls-4" d="M28.53613,93.849a57.076,57.076,0,0,1-7.31648,7.87133,27.39733,27.39733,0,0,1-3.60312,2.67789S18.67978,96.25,21.75515,91.52431c2.69249-4.13736,4.47885-5.15537,6.96027-7.19a20.13957,20.13957,0,0,1,4.31-1.92188,16.51747,16.51747,0,0,1-.582,4.27684A43.94655,43.94655,0,0,1,28.53613,93.849Z"/><path d="M17.14467,105.11705l.0996-.76709c.04395-.33642,1.11036-8.2876,4.19629-13.03027a22.58574,22.58574,0,0,1,5.87793-6.34815c.37207-.29443.75684-.59716,1.15918-.92724A20.01082,20.01082,0,0,1,32.90931,82.056l.49414-.16163-.00293.52a16.661,16.661,0,0,1-.60351,4.39942,43.8328,43.8328,0,0,1-3.9502,7.2456l-.31054-.21045.31054.21045a57.23687,57.23687,0,0,1-7.3789,7.94287,27.50839,27.50839,0,0,1-3.65918,2.71778Zm15.49121-22.1748a16.43416,16.43416,0,0,0-3.68262,1.68213c-.40625.333-.79395.63867-1.16992.93554a21.9584,21.9584,0,0,0-5.71387,6.16895c-2.42969,3.7334-3.59766,9.73584-3.956,11.90429a28.0843,28.0843,0,0,0,2.85839-2.19433,57.22345,57.22345,0,0,0,7.25391-7.80029h0A43.77586,43.77586,0,0,0,32.09,86.5648,14.3418,14.3418,0,0,0,32.63588,82.94225Z"/><path d="M21.2,99.08647a6.06335,6.06335,0,0,1-.74695-3.97756c.14083-1.10457.80881-1.01028.14083-1.10457-1.02039-.144-3.11558,10.20318-3.11558,10.20318l3.59055-2.46473,4.0234-3.82218S21.93384,100.21014,21.2,99.08647Z"/><circle class="cls-6" cx="110.21149" cy="101.14517" r="31.37802"/><path d="M110.21107,135.2733A34.12818,34.12818,0,1,1,144.34,101.14537,34.16638,34.16638,0,0,1,110.21107,135.2733Zm0-62.75635A28.62818,28.62818,0,1,0,138.84,101.14537,28.6609,28.6609,0,0,0,110.21107,72.517Z"/><path class="cls-2" d="M132.73257,104.76013s.039,7.85246-.95372,9.31048c-1.0552,1.54978-8.17309.84855-8.17309.84855l-.50964,9.65574a58.03706,58.03706,0,0,0-6.69442-3.20876c-3.85492-1.28387-14.68024-.34467-14.68024-.34467a55.56349,55.56349,0,0,0,3.14247-5.99515c.50776-1.39061.43562-5.92115.43562-5.92115l-1.39161-6.38794s9.79017-8.31989,12.76919-10.8024a25.28751,25.28751,0,0,1,10.12769-4.79712s4.168,4.98956,5.44478,8.328c1.041,2.72187,3.37961,8.04288,1.998,8.83237s-4.77113,1.10817-4.9685-.27343-.40123-1.58545-.40123-1.58545"/><path d="M123.43861,125.19371l-.52441-.29053a58.00815,58.00815,0,0,0-6.63086-3.18115c-3.73926-1.24463-14.4209-.33691-14.5293-.32715l-.72852.06348.374-.62891a55.51049,55.51049,0,0,0,3.1123-5.93164c.47754-1.31006.41407-5.74218.41309-5.78662l-1.43067-6.53418.1709-.14551c.09864-.08349,9.82617-8.34961,12.77149-10.80468a25.40526,25.40526,0,0,1,10.29687-4.87744l.21778-.042.1416.16992c.17187.20557,4.22265,5.07618,5.50683,8.43458.12793.334.27539.708.43262,1.10742,1.63965,4.15381,2.78418,7.394,1.40137,8.18457a5.32474,5.32474,0,0,1-1.32617.501c-.00293,1.67041-.07911,7.79688-1.01954,9.17676-1.03222,1.5166-6.32421,1.19971-8.1289,1.04688Zm-14.01074-4.88183a26.13831,26.13831,0,0,1,7.0918.69824,51.36258,51.36258,0,0,1,6.23339,2.95019l.499-9.45263.39062.03857c2.666.26123,7.14844.30762,7.82617-.68652.64551-.94776.87989-5.48877.88868-8.60743a4.93927,4.93927,0,0,1-2.67676-.21875,1.27293,1.27293,0,0,1-.77246-.97558,4.46921,4.46921,0,0,0-.32813-1.41211l.5625-.49219a4.41655,4.41655,0,0,1,.50781,1.79785c.00879.062.03614.25.35938.40821a5.67826,5.67826,0,0,0,4.05078-.40723c.92969-.53076-.93066-5.24463-1.72559-7.25781-.15917-.40235-.30761-.77832-.43652-1.11524-1.10644-2.8955-4.49805-7.13965-5.23828-8.04687a25.05218,25.05218,0,0,0-9.74316,4.67041c-2.72657,2.27246-11.27344,9.53174-12.59473,10.6543l1.34375,6.16845c.01172.26172.07519,4.68994-.44922,6.12891a46.81176,46.81176,0,0,1-2.80762,5.436C103.70521,120.494,106.53431,120.31188,109.42787,120.31188Z"/><path class="cls-4" d="M131.58435,95.046a5.13993,5.13993,0,0,0-1.9565.682c-.3117.22-.66113.58613-1.14163.99829a7.58177,7.58177,0,0,1-1.0519.79145l1.46732-.05943,2.8356.19182Z"/><path d="M132.13685,98.05309l-3.26074-.22071-2.96.12256,1.333-.76318a7.497,7.497,0,0,0,.99316-.75c.18945-.1626.3584-.31787.51172-.459a7.16913,7.16913,0,0,1,.65723-.561,5.47815,5.47815,0,0,1,2.126-.74756l.39746-.05029Zm-3.251-.96924,2.45214.16406-.10351-1.75732a4.08972,4.08972,0,0,0-1.39063.54345,6.52121,6.52121,0,0,0-.582.50049c-.15918.147-.335.30811-.53125.47656-.0332.02832-.06543.05616-.09765.083Z"/><path d="M130.796,108.76256a13.54812,13.54812,0,0,1-4.67676-.57959,3.68822,3.68822,0,0,1-1-1.26514l.65625-.3623a3.88183,3.88183,0,0,0,.68067.95752c1.12109.55761,4.5791.52685,5.8164.46924l.3584-.00049v.75h-.34082C132.22865,108.73473,131.6222,108.76256,130.796,108.76256Z"/><path class="cls-7" d="M95.106,115.2063s-5.46879,1.48635-5.46879,0-.02449-1.82481.50963-2.35894a4.75265,4.75265,0,0,1,1.46408-.66252V110.266s-2.17108-.6908-1.97371-2.46714,2.19948-1.67865,2.728-3.01041-2.62936-1.26236-2.33331-4.10961,2.40443-2.15644,2.63316-3.8341S89.42038,95.167,90.417,92.60121s5.11918-6.44916,5.11918-6.44916,1.864-6.24138,15.12114-7.56422c17.80194-1.77634,17.80194,7.82759,17.80194,7.82759L121.005,91.606Z"/><path d="M91.10072,116.23863a2.57028,2.57028,0,0,1-1.48828-.33008.85732.85732,0,0,1-.35059-.70214v-.186c-.001-1.35937-.001-1.81689.61914-2.438a3.93058,3.93058,0,0,1,1.3545-.67529v-1.37988a2.841,2.841,0,0,1-1.97168-2.77,2.70754,2.70754,0,0,1,1.63867-2.0835,2.33051,2.33051,0,0,0,1.11426-1.02344c.09765-.24707-.00586-.37939-.65137-.83154a3.19083,3.19083,0,0,1-1.70606-3.1792,3.23785,3.23785,0,0,1,1.75684-2.78857c.4834-.30469.80273-.50635.87793-1.05713.06348-.46924-.31934-.76563-.94824-1.20947-.82422-.582-1.9541-1.3794-1.27832-3.11866.95605-2.46191,4.5791-5.98291,5.14355-6.52148.30957-.856,2.81348-6.47266,15.40918-7.72949,7.27734-.72608,12.53613.32031,15.62012,3.11133a7.38576,7.38576,0,0,1,2.59375,5.08935v.17188l-.12988.11181L120.426,91.77155,95.28627,115.54576l-.082.02246A18.48537,18.48537,0,0,1,91.10072,116.23863Zm23.64941-37.49072q-1.91161,0-4.05566.21289c-12.79883,1.27734-14.78125,7.24024-14.7998,7.30029l-.02833.09473-.07324.06934c-.04.03808-4.07226,3.855-5.02636,6.312-.44141,1.13525.09668,1.58887,1.01171,2.23437.65039.459,1.38672.979,1.25782,1.92383a2.13855,2.13855,0,0,1-1.22071,1.58984,2.51456,2.51456,0,0,0-1.41015,2.23194,2.43447,2.43447,0,0,0,1.38965,2.4873c.58789.41114,1.2539.87744.91894,1.72217a3.00211,3.00211,0,0,1-1.42676,1.39014c-.63672.38183-1.1875.71142-1.27734,1.52344-.16211,1.4541,1.69531,2.0625,1.71387,2.06835l.26172.083v2.477l-.27344.07715a4.218,4.218,0,0,0-1.30078.5669c-.3877.38818-.40039.55029-.39942,1.90673v.187a.11392.11392,0,0,0,.05664.10595c.56934.437,3.1543.00782,4.85645-.4458l33.14844-28.61377a6.92775,6.92775,0,0,0-2.3545-4.38672C123.42884,79.80553,119.67884,78.74791,114.75013,78.74791Z"/><path class="cls-4" d="M106.70664,114.86871a49.03768,49.03768,0,0,1-2.08883,9.61447,25.28075,25.28075,0,0,1-1.67214,3.84355s-2.81652-7.3209-2.256-11.8974a32.91327,32.91327,0,0,1,2.44155-9.33512,23.68682,23.68682,0,0,1,2.4866-3.76424s.7588,3.18176,1.05841,4.753A32.67855,32.67855,0,0,1,106.70664,114.86871Z"/><path d="M102.882,129.20543l-.28613-.74414c-.11719-.30274-2.84375-7.46143-2.27832-12.07715a32.1298,32.1298,0,0,1,2.27636-8.93262l.18653-.49023a23.41287,23.41287,0,0,1,2.543-3.86328l.47949-.6084.18066.75342c.00684.03174.76367,3.208,1.06055,4.77a30.71983,30.71983,0,0,1,.03613,6.88183h0a49.55847,49.55847,0,0,1-2.10644,9.7085,25.57634,25.57634,0,0,1-1.70118,3.90674Zm2.55273-25.01855a17.80093,17.80093,0,0,0-1.95312,3.04l-.18652.4917a31.52885,31.52885,0,0,0-2.2334,8.75635c-.43555,3.55713,1.249,8.90479,1.94531,10.915a26.01355,26.01355,0,0,0,1.25586-3.02734,48.64193,48.64193,0,0,0,2.06934-9.52051h0a30.145,30.145,0,0,0-.02442-6.689C106.10365,107.08043,105.67787,105.22887,105.4347,104.18688Z"/><path d="M103.37087,121.28357c-.82121-.41525-1.35924-.3139-1.99907-1.82079-.40844-.96194-.45652-1.811-1.04643-1.578-.90114.35592,2.4171,10.35118,2.4171,10.35118l2.01913-3.669,1.37519-6.81533S104.50231,121.85568,103.37087,121.28357Z"/><path class="cls-4" d="M102.55212,113.36985a52.0779,52.0779,0,0,1-6.56546,7.03793,25.00038,25.00038,0,0,1-3.22321,2.40372s1.013-7.23079,3.78459-11.44506c2.42655-3.68961,4.022-4.6069,6.24332-6.43107a18.28715,18.28715,0,0,1,3.84474-1.7396,14.712,14.712,0,0,1-.553,3.79549A39.86226,39.86226,0,0,1,102.55212,113.36985Z"/><path d="M92.28334,123.53844l.10937-.7793c.042-.29834,1.05567-7.3623,3.8418-11.59863a20.63619,20.63619,0,0,1,5.28027-5.68213c.334-.26416.67774-.53662,1.03809-.83252a18.20112,18.20112,0,0,1,3.96387-1.80566l.502-.16846-.00781.5293a14.87726,14.87726,0,0,1-.5752,3.91748,40.52522,40.52522,0,0,1-3.57422,6.46337h0a52.2661,52.2661,0,0,1-6.62695,7.10743,25.10937,25.10937,0,0,1-3.27734,2.44336Zm13.95605-19.80664a14.65112,14.65112,0,0,0-3.21,1.49365c-.36426.29932-.71191.57422-1.0498.84082a20.01216,20.01216,0,0,0-5.11817,5.50635c-2.14648,3.26318-3.23242,8.45312-3.58984,10.46045a25.54041,25.54041,0,0,0,2.4668-1.90674,52.187,52.187,0,0,0,6.5039-6.96826h0a39.53748,39.53748,0,0,0,3.48828-6.29444A12.48159,12.48159,0,0,0,106.23939,103.7318Z"/><path d="M95.99134,118.07351a5.30769,5.30769,0,0,1-.63009-3.51907c.13438-.98017.727-.90222.13438-.98017-.90522-.11909-2.85337,9.06935-2.85337,9.06935l3.21025-2.21469,3.60615-3.42145S96.63377,119.06326,95.99134,118.07351Z"/><path d="M107.6971,112.141a11.24356,11.24356,0,0,0,2.48371,0c2.25284-.09868,10.24638-4.34217,11.5293-10.06594a32.748,32.748,0,0,0,0-11.96954l-16.84139,13.42374Z"/><path class="cls-6" d="M104.27736,104.44588c.8812-1.00039,8.9585-12.0162,16.97544-16.27941a13.98484,13.98484,0,0,1,5.12673-1.9464,3.51033,3.51033,0,0,1,2.07971.19535c1.86448.85147,1.6401,1.60492,1.6401,1.60492s-5.13261.53475-8.22656,2.52121a111.91423,111.91423,0,0,0-8.65054,7.136l-7.03289,8.84129Z"/><path d="M106.21791,107.287l-2.61328-2.83349.29785-.33838c.10449-.11865.3125-.38184.61133-.76026,2.31836-2.92773,9.37109-11.83691,16.50488-15.62988a14.49856,14.49856,0,0,1,5.28515-1.999,3.97531,3.97531,0,0,1,2.36329.23437c2.15039.98242,1.96972,2.00684,1.91211,2.20215l-.09571.32031-.332.03467c-.0498.00537-5.05273.54688-8.00781,2.44483-2.48633,1.5957-8.52637,7.03222-8.58692,7.08691Zm-1.27832-2.86035,1.22168,1.32422,6.66894-8.38428a108.29774,108.29774,0,0,1,8.77246-7.24609,21.64618,21.64618,0,0,1,7.80469-2.51563,3.8439,3.8439,0,0,0-1.15625-.73486,3.00506,3.00506,0,0,0-1.79492-.15576,13.54737,13.54737,0,0,0-4.96875,1.89355c-6.94824,3.69532-13.90332,12.481-16.18945,15.36768C105.16029,104.15025,105.04017,104.30113,104.93959,104.42662Z"/><path class="cls-4" d="M115.33714,100.67879a5.157,5.157,0,1,1-5.15633-5.15633A5.15632,5.15632,0,0,1,115.33714,100.67879Z"/><path d="M110.1808,106.21031a5.5315,5.5315,0,1,1,5.53125-5.53174A5.53779,5.53779,0,0,1,110.1808,106.21031Zm0-10.313a4.7815,4.7815,0,1,0,4.78125,4.78125A4.75692,4.75692,0,0,0,110.1808,95.89732Z"/><path class="cls-8" d="M95.7889,77.69966s-.70774,6.29968,1.46334,8.86551,7.15057,4.75312,7.15057,4.75312l.06573-3.306,2.93213-2.23663a27.297,27.297,0,0,1-7.00462-3.05926A26.98372,26.98372,0,0,1,95.7889,77.69966Z"/><path d="M104.88685,92.0775l-.68554-.30127c-.208-.09131-5.11036-2.26416-7.33106-4.88818-2.28418-2.69922-1.60742-8.97852-1.57812-9.24414l.14648-1.30078L96.19642,77.41a26.70815,26.70815,0,0,0,4.49317,4.90234,26.98213,26.98213,0,0,0,6.8457,2.98194l.9668.27L104.964,88.26354ZM96.19838,79.07457c-.07325,1.93164.00879,5.48145,1.43554,7.168,1.60059,1.8916,4.86426,3.606,6.28418,4.29639l.05567-2.77735,2.34765-1.7915A24.53449,24.53449,0,0,1,100.1017,83.121,22.826,22.826,0,0,1,96.19838,79.07457Z"/><path class="cls-8" d="M115.33714,78.58692a4.35383,4.35383,0,0,0,1.53736-2.76229V73.0607a24.17987,24.17987,0,0,1,2.33606,2.76311,12.48882,12.48882,0,0,1,1.01926,3.65219Z"/><path d="M120.81068,80.08971l-6.61035-1.20117.81543-.68506a3.88047,3.88047,0,0,0,1.3584-2.37891V71.82213l.86035.8916a24.12917,24.12917,0,0,1,2.4082,2.85889,12.79547,12.79547,0,0,1,1.083,3.84082Zm-4.46484-1.82764,3.28027.59619a9.78246,9.78246,0,0,0-.84863-2.78369,14.01841,14.01841,0,0,0-1.40332-1.74121v1.49121A4.016,4.016,0,0,1,116.34584,78.26207Z"/><path class="cls-9" d="M114.92778,120.70244a2.69894,2.69894,0,0,0-3.30187.0617c-1.20037,1.15152-1.19156,5.17645-1.03128,5.7913.09957.38192,2.57,1.19416,3.38546.29579A7.17019,7.17019,0,0,0,114.92778,120.70244Z"/><path d="M112.7765,127.63414a4.79672,4.79672,0,0,1-1.10449-.14258c-.39258-.09619-1.31738-.37109-1.44043-.84131-.15918-.61279-.23926-4.83837,1.13476-6.15673a3.05355,3.05355,0,0,1,2.88477-.56446c.34668.09668.94141.313,1.03906.67627h0a7.489,7.489,0,0,1-1.0332,6.49805A1.94776,1.94776,0,0,1,112.7765,127.63414Zm.46973-7.09863a1.916,1.916,0,0,0-1.36035.499c-1.05079,1.00781-1.0752,4.86279-.92774,5.42627a4.59978,4.59978,0,0,0,1.8125.42285,1.34849,1.34849,0,0,0,.93164-.28418,6.79645,6.79645,0,0,0,.88281-5.727A2.6875,2.6875,0,0,0,113.24623,120.53551Z"/><path class="cls-9" d="M114.98316,113.3566a2.699,2.699,0,0,0-3.22647.70434c-.9528,1.36347-.15937,5.30943.11772,5.88122.17213.35518,2.75347.67014,3.37815-.37A7.17021,7.17021,0,0,0,114.98316,113.3566Z"/><path d="M113.34486,120.65514c-.084,0-.16016-.002-.22559-.0044-.40429-.01806-1.36914-.10644-1.582-.54443-.27636-.57129-1.17675-4.70215-.08789-6.26026a3.0604,3.0604,0,0,1,2.71778-1.11621c.35839.02735.98632.12354,1.15234.46094h0a7.48958,7.48958,0,0,1,.25391,6.57471A2.59461,2.59461,0,0,1,113.34486,120.65514Zm.53223-7.18946a2.15082,2.15082,0,0,0-1.8125.81006c-.833,1.19141-.10645,4.97852.14746,5.50342a4.59864,4.59864,0,0,0,1.86914.05908,1.2915,1.2915,0,0,0,.84961-.459,6.79518,6.79518,0,0,0-.25-5.78858A2.20694,2.20694,0,0,0,113.87709,113.46568Z"/><path class="cls-9" d="M113.578,106.1925a2.69894,2.69894,0,0,0-3.117,1.09112c-.78009,1.46913.48689,5.28946.8314,5.82334.214.33164,2.81449.33065,3.30817-.77768A7.17019,7.17019,0,0,0,113.578,106.1925Z"/><path d="M112.20131,113.67564c-.45118,0-1.0293-.06347-1.22461-.36572-.34278-.53271-1.73926-4.52246-.84668-6.20215a3.0548,3.0548,0,0,1,2.55859-1.438c.36523-.01319.99609.00244,1.20313.31689v.00049a7.49445,7.49445,0,0,1,1.05175,6.49463c-.416.93359-1.77343,1.13476-2.33789,1.17773C112.50111,113.66783,112.35853,113.67564,112.20131,113.67564Zm.66113-7.26367a2.31358,2.31358,0,0,0-2.07031,1.04737c-.68164,1.28418.5,4.95459.81543,5.44433a4.585,4.585,0,0,0,1.86035-.16748,1.2919,1.2919,0,0,0,.79-.55957,6.79669,6.79669,0,0,0-.95215-5.71484A1.59014,1.59014,0,0,0,112.86244,106.412Z"/><path class="cls-9" d="M112.07742,100.67879a1.94784,1.94784,0,1,1-1.94757-1.94757A1.94757,1.94757,0,0,1,112.07742,100.67879Z"/></svg>