<?xml version="1.0" standalone="no"?>
<!DOCTYPE svg PUBLIC "-//W3C//DTD SVG 20010904//EN"
 "http://www.w3.org/TR/2001/REC-SVG-20010904/DTD/svg10.dtd">
<svg version="1.0" xmlns="http://www.w3.org/2000/svg"
 width="160.000000pt" height="156.000000pt" viewBox="0 0 160.000000 156.000000"
 preserveAspectRatio="xMidYMid meet">

<g transform="translate(0.000000,156.000000) scale(0.100000,-0.100000)"
fill="#000000" stroke="none">
<path d="M0 1388 c0 -109 4 -168 9 -158 6 8 7 18 5 22 -3 4 0 8 6 8 6 0 9 3 7
8 -2 4 10 21 26 37 17 17 27 23 23 15 -5 -9 -2 -8 7 2 8 10 17 14 21 10 4 -4
12 1 17 11 6 9 15 17 22 17 7 0 6 -4 -3 -10 -9 -6 -10 -10 -3 -10 6 0 18 6 25
13 7 8 19 12 27 9 8 -3 11 0 7 7 -5 7 -1 9 8 5 9 -3 16 -1 16 5 0 6 7 8 15 5
8 -4 15 -2 15 4 0 5 7 13 16 16 10 4 13 2 8 -6 -8 -13 11 -3 40 21 11 9 16 10
12 4 -10 -18 9 -16 24 1 6 8 18 12 26 9 8 -3 14 0 14 6 0 6 7 8 17 4 11 -4 14
-3 9 5 -5 8 -2 10 8 6 9 -3 16 -1 16 5 0 6 7 8 17 4 11 -4 14 -3 9 5 -5 8 -2
10 8 6 9 -3 16 -1 16 6 0 6 4 9 9 6 8 -6 106 25 118 37 3 4 15 7 25 7 10 0 18
5 18 11 0 5 4 8 9 5 5 -4 20 -2 33 3 15 6 -103 10 -339 10 l-363 1 0 -172z"/>
<path d="M925 1540 c28 -9 59 -20 70 -24 76 -29 97 -36 106 -31 5 4 9 1 9 -5
0 -7 7 -9 16 -6 10 4 13 2 8 -6 -5 -8 -2 -9 9 -5 10 4 17 2 17 -4 0 -6 7 -8
16 -5 10 4 13 2 8 -6 -5 -8 -2 -9 9 -5 10 4 17 2 17 -4 0 -6 6 -9 14 -6 8 3
20 -1 26 -9 15 -17 34 -19 24 -1 -4 6 1 5 12 -4 29 -24 48 -34 40 -21 -5 8 -2
10 8 6 9 -3 16 -11 16 -16 0 -5 6 -8 12 -6 7 3 19 -1 26 -9 7 -7 19 -13 25
-13 7 0 6 4 -3 10 -8 5 -10 10 -5 10 6 0 18 -9 28 -20 9 -11 22 -20 29 -20 9
0 8 3 -2 10 -9 6 -10 10 -3 10 7 0 16 -8 22 -17 5 -10 13 -15 17 -11 4 4 13 0
21 -10 9 -10 11 -11 7 -2 -4 8 6 2 23 -14 17 -16 29 -35 26 -43 -3 -7 0 -13 7
-13 6 0 9 -3 7 -7 -3 -5 -1 -17 3 -28 4 -11 8 62 9 163 l2 182 -363 -1 c-355
-2 -362 -2 -313 -19z"/>
<path d="M255 1333 c-46 -5 -113 -32 -119 -48 -15 -40 28 -65 124 -72 111 -9
204 31 180 77 -14 27 -115 50 -185 43z"/>
<path d="M1198 1328 c-43 -11 -71 -39 -62 -61 10 -26 79 -47 152 -46 78 1 130
17 149 46 12 18 12 23 -2 36 -34 34 -155 47 -237 25z"/>
<path d="M948 1229 c-42 -12 -73 -42 -65 -63 19 -49 186 -68 263 -30 50 24 54
61 9 83 -37 18 -158 24 -207 10z"/>
<path d="M685 1118 c-40 -14 -55 -27 -55 -47 0 -41 117 -68 211 -50 154 30
108 110 -62 108 -35 0 -77 -5 -94 -11z"/>
<path d="M1163 1060 c-86 -52 -127 -213 -67 -257 76 -56 204 56 204 179 0 88
-63 124 -137 78z"/>
<path d="M327 1063 c-9 -2 -24 -17 -32 -33 -45 -87 35 -240 126 -240 50 0 71
26 71 88 0 72 -43 146 -104 178 -28 14 -31 15 -61 7z"/>
<path d="M557 946 c-67 -53 -21 -212 75 -262 38 -20 55 -18 83 11 68 67 -6
246 -106 261 -21 3 -41 -1 -52 -10z"/>
<path d="M78 873 c-28 -7 -51 -70 -44 -117 14 -83 86 -166 145 -166 12 0 33
11 46 25 79 78 -40 288 -147 258z"/>
<path d="M303 744 c-23 -23 -25 -31 -20 -84 13 -143 160 -237 204 -132 30 72
-19 192 -91 226 -47 22 -63 20 -93 -10z"/>
<path d="M1153 741 c-106 -77 -112 -261 -9 -261 80 0 162 109 153 204 -8 87
-70 111 -144 57z"/>
<path d="M573 649 c-70 -26 -50 -182 32 -245 42 -32 98 -33 119 -2 34 49 9
164 -47 217 -30 27 -76 41 -104 30z"/>
<path d="M904 641 c-97 -59 -135 -208 -66 -261 51 -41 131 1 176 92 63 127 -5
233 -110 169z"/>
<path d="M56 548 c-25 -41 -28 -67 -12 -122 25 -86 114 -154 166 -126 62 33
49 153 -25 227 -34 35 -49 43 -78 43 -27 0 -40 -6 -51 -22z"/>
<path d="M1409 540 c-49 -40 -83 -120 -76 -179 7 -60 36 -85 90 -78 100 14
178 178 124 260 -26 39 -89 38 -138 -3z"/>
<path d="M1163 440 c-86 -52 -127 -213 -67 -257 76 -56 204 56 204 179 0 88
-63 124 -137 78z"/>
<path d="M1582 381 c-6 -16 -8 -32 -5 -35 4 -3 -1 -6 -11 -6 -9 0 -14 -4 -11
-10 3 -5 1 -10 -5 -10 -6 0 -8 -5 -5 -10 4 -6 1 -9 -7 -8 -7 2 -12 -4 -10 -12
2 -8 0 -12 -4 -8 -4 4 -13 0 -21 -10 -8 -9 -11 -11 -8 -4 6 11 3 11 -13 1 -12
-7 -18 -17 -15 -23 3 -5 2 -6 -4 -3 -12 7 -63 -14 -63 -26 0 -5 -4 -6 -9 -3
-12 8 -63 -19 -54 -28 4 -4 0 -4 -10 0 -10 3 -17 1 -17 -6 0 -6 -5 -8 -11 -5
-6 4 -17 -1 -25 -11 -9 -11 -13 -13 -9 -6 10 19 -2 14 -26 -10 -12 -13 -19
-17 -15 -10 4 6 2 12 -4 12 -6 0 -13 -7 -16 -15 -4 -8 -10 -12 -15 -9 -11 6
-51 -15 -62 -32 -4 -8 -13 -14 -20 -14 -8 0 -6 4 3 11 13 9 13 10 0 5 -8 -3
-23 -9 -32 -12 -10 -4 -18 -10 -18 -15 0 -5 -7 -6 -15 -3 -8 4 -17 -1 -21 -9
-3 -9 -12 -13 -19 -11 -7 3 -16 1 -20 -5 -3 -6 -15 -11 -26 -11 -10 0 -19 -5
-19 -11 0 -5 -4 -7 -10 -4 -5 3 -18 1 -27 -4 -13 -7 91 -10 340 -11 l357 0 0
205 c0 113 -2 205 -4 205 -2 0 -9 -13 -14 -29z"/>
<path d="M0 201 l-1 -201 358 0 c244 1 352 4 340 11 -9 6 -22 7 -27 4 -6 -3
-10 -1 -10 4 0 6 -9 11 -19 11 -11 0 -23 5 -26 11 -4 6 -13 8 -20 5 -7 -2 -16
2 -19 11 -4 8 -13 13 -21 9 -8 -3 -15 -2 -15 3 0 5 -8 11 -17 15 -10 3 -25 9
-33 12 -13 5 -13 4 0 -5 9 -7 11 -11 3 -11 -7 0 -16 6 -20 14 -11 17 -51 38
-62 32 -5 -3 -11 1 -15 9 -3 8 -10 15 -16 15 -6 0 -8 -6 -4 -12 4 -7 -3 -3
-15 10 -24 24 -36 29 -26 9 4 -6 0 -4 -9 7 -8 10 -19 15 -25 11 -6 -3 -11 -1
-11 5 0 7 -7 9 -17 6 -10 -4 -14 -4 -10 0 9 9 -42 36 -54 28 -5 -3 -9 -2 -9 3
0 12 -51 33 -63 26 -6 -3 -7 -1 -4 4 4 6 0 14 -9 17 -10 4 -13 2 -8 -7 3 -6
-4 -1 -17 13 -13 14 -20 19 -14 10 5 -8 -7 1 -28 20 -37 35 -51 54 -21 29 10
-8 8 1 -7 27 -12 21 -24 41 -25 42 -1 2 -3 -87 -4 -197z"/>
<path d="M551 336 c-47 -50 -21 -171 49 -230 45 -37 76 -43 108 -19 23 17 27
29 30 76 4 79 -34 149 -100 183 -39 20 -61 17 -87 -10z"/>
</g>
</svg>
