<svg id="Layer_1" data-name="Layer 1" xmlns="http://www.w3.org/2000/svg" viewBox="0 0 500 571.31859"><defs><style>.cls-1{fill:none;}.cls-2{fill:#fcfcfd;}.cls-3{fill:#bebebe;}.cls-4{fill:#e1e1e0;}.cls-5{fill:#fe5e5e;}.cls-6{fill:#042bcb;}.cls-7{fill:#e3d605;}.cls-8{fill:#07fefe;}.cls-9{fill:#42e369;}.cls-10{fill:#fe1cd6;}.cls-11{fill:#a91921;}.cls-12{fill:#03bfbf;}.cls-13{fill:#bfb403;}.cls-14{fill:#b30a85;}.cls-15{fill:#079932;}.cls-16{fill:#d50e9f;}.cls-17{fill:#c91e27;}</style></defs><title>colorpipetools</title><path class="cls-1" d="M244.58538,76.69647c-10.96652-1.19433-22.47564,1.887-33.55879,6.34287-5.0297,2.02219-10.2868,5.38284-10.33234,11.68433-.04145,5.7324,4.83057,8.77428,9.47712,10.63121,23.22961,9.28315,46.41782,8.62018,69.3308-1.29,4.38242-1.89545,8.30843-5.16509,8.571-9.96029.308-5.62328-4.22947-9.19823-8.85182-11.22486A72.88091,72.88091,0,0,0,244.58538,76.69647Z"/><path class="cls-1" d="M271.45631,65.8047c-.23235,6.00685,4.193,8.771,8.77384,11.089,10.1098,5.1159,21.08505,5.5284,30.00962,5.467,14.51433.26851,26.79446-.64692,38.20376-6.15915,4.59357-2.21923,9.03412-5.078,9.31079-10.889.28784-6.0453-4.12894-9.07829-8.89865-10.90751-23.23189-8.90975-46.475-8.33779-69.42789,1.03944C275.1116,57.20793,271.65572,60.64849,271.45631,65.8047Z"/><path class="cls-1" d="M209.83176,48.20217c24.08089,10.8546,48.93035,10.64631,72.73907-.80273,10.91453-5.24851,9.8647-14.57691-1.40548-20.32435-10.42377-5.31581-21.78961-6.56728-33.27747-6.06284-13.088-.57518-25.76582,1.07081-37.27759,7.41684C200.371,34.07356,199.633,43.605,209.83176,48.20217Z"/><path class="cls-1" d="M211.323,76.68673c4.14283-1.7854,8.11317-4.7914,8.38569-10.04092.31433-6.05582-4.21565-9.20854-8.7437-11.19571-10.568-4.63782-21.74572-7.03556-32.2257-6.50484-14.18661-.23715-26.83134,1.83158-38.25725,8.16128-11.03633,6.114-11.11488,15.03.36288,20.22683C164.19448,87.90521,187.98086,86.74633,211.323,76.68673Z"/><path class="cls-1" d="M69.99961,105.52464c10.1988,5.72718,21.6164,7.03678,33.18316,7.09979,13.86046.02585,27.62813-1.08184,39.76061-8.48192,9.55775-5.82964,9.76933-14.26072-.1291-18.90448-19.21666-9.01543-38.8431-10.56031-58.10007-4.97671L63.69167,90.79243C60.17135,95.57724,62.39445,101.25386,69.99961,105.52464Z"/><path class="cls-1" d="M346.25079,109.75741a72.07251,72.07251,0,0,0-33.44595-5.50206c-11.09389-1.30158-22.67633,1.7085-33.7481,6.319-4.92637,2.0514-10.22193,5.32548-9.93581,11.96006.25434,5.897,4.92609,8.73661,9.7215,10.51593,22.90976,8.50061,45.80154,8.14417,68.3447-1.32149,4.65793-1.95582,8.88876-5.13366,8.518-11.3082C355.34376,114.403,350.98276,111.69532,346.25079,109.75741Z"/><path class="cls-1" d="M210.56275,112.432c-24.15363-11.38367-48.86454-10.832-72.62006,1.03508-10.498,5.24429-9.842,13.94846.65143,19.6949,10.22852,5.60129,21.57159,7.07937,33.13376,6.93825,13.425.25963,26.57751-1.27352,38.44478-7.99016C220.29062,126.38357,220.72453,117.22129,210.56275,112.432Z"/><path class="cls-1" d="M419.13356,82.865c-24.18829-10.58817-49.10076-10.71018-72.96311,1.09308-10.4769,5.18221-9.86334,13.98333.45969,19.63324,10.75679,5.88735,22.66115,6.8229,34.55585,6.232,13.14594.688,25.90423-.70886,37.37411-7.2175C428.89723,96.73985,429.511,87.40765,419.13356,82.865Z"/><path class="cls-1" d="M278.71562,139.77669c-24.20948-11.65025-48.99356-10.72622-72.80171,1.07961-10.38611,5.1502-9.65849,13.94589.88113,19.70986,10.23424,5.597,21.61169,7.16566,33.21582,7.15449,13.39755-.12738,26.6887-1.43856,38.494-8.27707C288.9823,153.3743,289.26978,144.85557,278.71562,139.77669Z"/><path class="cls-2" d="M69.95486,85.96587a16.5969,16.5969,0,0,0-6.26319,4.82656L84.71421,80.26132A93.26216,93.26216,0,0,0,69.95486,85.96587Z"/><path class="cls-1" d="M209.83176,48.20217c24.08089,10.8546,48.93035,10.64631,72.73907-.80273,10.91453-5.24851,9.8647-14.57691-1.40548-20.32435-10.42377-5.31581-21.78961-6.56728-33.27747-6.06284-13.088-.57518-25.76582,1.07081-37.27759,7.41684C200.371,34.07356,199.633,43.605,209.83176,48.20217Z"/><path class="cls-1" d="M211.323,76.68673c4.14283-1.7854,8.11317-4.7914,8.38569-10.04092.31433-6.05582-4.21565-9.20854-8.7437-11.19571-10.568-4.63782-21.74572-7.03556-32.2257-6.50484-14.18661-.23715-26.83134,1.83158-38.25725,8.16128-11.03633,6.114-11.11488,15.03.36288,20.22683C164.19448,87.90521,187.98086,86.74633,211.323,76.68673Z"/><path class="cls-1" d="M210.56275,112.432c-24.15363-11.38367-48.86454-10.832-72.62006,1.03508-10.498,5.24429-9.842,13.94846.65143,19.6949,10.22852,5.60129,21.57159,7.07937,33.13376,6.93825,13.425.25963,26.57751-1.27352,38.44478-7.99016C220.29062,126.38357,220.72453,117.22129,210.56275,112.432Z"/><path class="cls-1" d="M244.58538,76.69647c-10.96652-1.19433-22.47564,1.887-33.55879,6.34287-5.0297,2.02219-10.2868,5.38284-10.33234,11.68433-.04145,5.7324,4.83057,8.77428,9.47712,10.63121,23.22961,9.28315,46.41782,8.62018,69.3308-1.29,4.38242-1.89545,8.30843-5.16509,8.571-9.96029.308-5.62328-4.22947-9.19823-8.85182-11.22486A72.88091,72.88091,0,0,0,244.58538,76.69647Z"/><path class="cls-1" d="M69.99961,105.52464c10.1988,5.72718,21.6164,7.03678,33.18316,7.09979,13.86046.02585,27.62813-1.08184,39.76061-8.48192,9.55775-5.82964,9.76933-14.26072-.1291-18.90448-9.45026-4.43353-33.118.01346-57.02432,6.34145C74.88373,98.1991,67.06163,103.87479,69.99961,105.52464Z"/><path class="cls-1" d="M271.45631,65.8047c-.23235,6.00685,4.193,8.771,8.77384,11.089,10.1098,5.1159,21.08505,5.5284,30.00962,5.467,14.51433.26851,26.79446-.64692,38.20376-6.15915,4.59357-2.21923,9.03412-5.078,9.31079-10.889.28784-6.0453-4.12894-9.07829-8.89865-10.90751-23.23189-8.90975-46.475-8.33779-69.42789,1.03944C275.1116,57.20793,271.65572,60.64849,271.45631,65.8047Z"/><path class="cls-1" d="M419.13356,82.865c-24.18829-10.58817-49.10076-10.71018-72.96311,1.09308-10.4769,5.18221-9.86334,13.98333.45969,19.63324,10.75679,5.88735,22.66115,6.8229,34.55585,6.232,13.14594.688,25.90423-.70886,37.37411-7.2175C428.89723,96.73985,429.511,87.40765,419.13356,82.865Z"/><path class="cls-1" d="M346.25079,109.75741a72.07251,72.07251,0,0,0-33.44595-5.50206c-11.09389-1.30158-22.67633,1.7085-33.7481,6.319-4.92637,2.0514-10.22193,5.32548-9.93581,11.96006.25434,5.897,4.92609,8.73661,9.7215,10.51593,22.90976,8.50061,45.80154,8.14417,68.3447-1.32149,4.65793-1.95582,8.88876-5.13366,8.518-11.3082C355.34376,114.403,350.98276,111.69532,346.25079,109.75741Z"/><path class="cls-1" d="M278.71562,139.77669c-24.20948-11.65025-48.99356-10.72622-72.80171,1.07961-10.38611,5.1502-9.65849,13.94589.88113,19.70986,10.23424,5.597,21.61169,7.16566,33.21582,7.15449,13.39755-.12738,26.6887-1.43856,38.494-8.27707C288.9823,153.3743,289.26978,144.85557,278.71562,139.77669Z"/><path class="cls-2" d="M465.52918,120.43658c-.75654,4.37225-3.971,11.51821.69777,11.49058A90.6226,90.6226,0,0,0,465.52918,120.43658Z"/><path class="cls-2" d="M465.64,118.34637c-.93662-5.48222-2.06715-9.55924-3.63968-12.40815a62.65918,62.65918,0,0,1,3.52884,14.49836A6.58585,6.58585,0,0,0,465.64,118.34637Z"/><path class="cls-2" d="M39.37271,105.4433,85.79,91.57948c23.90632-6.328,47.57406-10.775,57.02432-6.34145,9.89843,4.64376,9.68685,13.07484.1291,18.90448-12.13248,7.40008-25.90015,8.50777-39.76061,8.48192-11.56676-.063-22.98436-1.37261-33.18316-7.09979-2.938-1.64985,4.88412-7.32554,15.79035-13.94516C68.75079,96.0897,51.593,101.554,39.37271,105.4433a35.361,35.361,0,0,1,10.6,2.97873c55.55268,23.41806,111.2452,46.54928,167.428,68.39553,13.586,5.28281,16.52685,17.27116,24.18986,26.3385,3.61318-16.87878,16.27288-24.497,30.802-30.40343q84.11114-34.19258,168.14322-68.57969c11.723-4.80114,17.80087-4.87224,21.46454,1.76528-6.76246-17.71531-21.37582-28.06025-41.87423-39.12113,0,0-127.29115-49.61771-174.06135-52.1125C205.07851,12.51833,60.43975,75.0108,30.13816,111.926M348.85567,54.40507c4.76971,1.82922,9.18649,4.86221,8.89865,10.90751-.27667,5.811-4.71722,8.66981-9.31079,10.889-11.4093,5.51223-23.68943,6.42766-38.20376,6.15915-8.92457.06136-19.89982-.35114-30.00962-5.467-4.58082-2.318-9.00619-5.08218-8.77384-11.089.19941-5.15621,3.65529-8.59677,7.97147-10.36019C302.38064,46.06728,325.62378,45.49532,348.85567,54.40507ZM288.07317,94.1046c-.26257,4.7952-4.18858,8.06484-8.571,9.96029-22.913,9.91017-46.10119,10.57314-69.3308,1.29-4.64655-1.85693-9.51857-4.89881-9.47712-10.63121.04554-6.30149,5.30264-9.66214,10.33234-11.68433,11.08315-4.45587,22.59227-7.5372,33.55879-6.34287a72.88091,72.88091,0,0,1,34.636,6.18327C283.8437,84.90637,288.3812,88.48132,288.07317,94.1046ZM210.61029,28.42909c11.51177-6.346,24.18958-7.992,37.27759-7.41684,11.48786-.50444,22.8537.747,33.27747,6.06284,11.27018,5.74744,12.32,15.07584,1.40548,20.32435-23.80872,11.449-48.65818,11.65733-72.73907.80273C199.633,43.605,200.371,34.07356,210.61029,28.42909ZM140.84494,77.33337c-11.47776-5.19682-11.39921-14.11286-.36288-20.22683,11.42591-6.3297,24.07064-8.39843,38.25725-8.16128,10.48-.53072,21.65772,1.867,32.2257,6.50484,4.52805,1.98717,9.058,5.13989,8.7437,11.19571-.27252,5.24952-4.24286,8.25552-8.38569,10.04092C187.98086,86.74633,164.19448,87.90521,140.84494,77.33337Zm30.88294,62.76689c-11.56217.14112-22.90524-1.337-33.13376-6.93825-10.49344-5.74644-11.14938-14.45061-.65143-19.6949,23.75552-11.86705,48.46643-12.41875,72.62006-1.03508,10.16178,4.78926,9.72787,13.95154-.39009,19.67807C198.30539,138.82674,185.15286,140.35989,171.72788,140.10026Zm106.777,19.34332c-11.80534,6.83851-25.09649,8.14969-38.494,8.27707-11.60413.01117-22.98158-1.55749-33.21582-7.15449-10.53962-5.764-11.26724-14.55966-.88113-19.70986,23.80815-11.80583,48.59223-12.72986,72.80171-1.07961C289.26978,144.85557,288.9823,153.3743,278.5049,159.44358Zm68.68223-27.71476c-22.54316,9.46566-45.43494,9.8221-68.3447,1.32149-4.79541-1.77932-9.46716-4.61892-9.7215-10.51593-.28612-6.63458,5.00944-9.90866,9.93581-11.96006,11.07177-4.61047,22.65421-7.62055,33.7481-6.319a72.07251,72.07251,0,0,1,33.44595,5.50206c4.732,1.93791,9.093,4.64562,9.45435,10.66321C356.07589,126.59516,351.84506,129.773,347.18713,131.72882Zm71.373-29.123c-11.46988,6.50864-24.22817,7.90545-37.37411,7.2175-11.8947.59093-23.79906-.34462-34.55585-6.232-10.323-5.64991-10.93659-14.451-.45969-19.63324,23.86235-11.80326,48.77482-11.68125,72.96311-1.09308C429.511,87.40765,428.89723,96.73985,418.5601,102.60578Z"/><path class="cls-3" d="M468.41711,145.69231c-.189,52.01511-1.06109,104.05392.19386,156.03945.93214,38.61114-16.22078,63.81582-50.67,78.65489-51.3178,22.1052-98.95381,53.90419-154.02384,63.77831a141.88092,141.88092,0,0,1-24.86312,2.374c1.172-5.81692,2.80767-11.44846,2.78811-17.5793-.19814-62.12869.046-124.25925-.29341-186.38678-.07179-13.14141-4.853-26.265.04182-39.41682,3.6132-16.87879,16.27288-24.49708,30.802-30.40343Q356.50374,138.56,440.5358,104.173c16.75461-6.8619,21.98535-4.08147,25.1042,14.17341M313.57579,291.53469c-.09427-18.97035-12.1419-30.3255-28.11638-26.50028-24.35208,5.83132-44.09067,42.34714-35.68951,66.02463,4.40489,12.41456,14.46827,17.48155,27.02935,13.60955C296.36211,338.6382,313.6855,313.60981,313.57579,291.53469Zm.02207,88.627c-.10722-26.78488-17.83416-37.36443-37.91335-24.9523-18.51539,11.4454-27.79031,29.18657-27.9005,50.58679-.11721,22.75891,18.58949,32.67025,37.79958,20.68142C303.66212,415.19492,311.29232,397.601,313.59786,380.16168Zm-.02845-170.63749c.08569-21.55235-12.8394-34.12923-27.85394-30.35629-23.16683,5.8215-43.10068,40.19116-36.76324,63.38674,4.51518,16.52593,17.39168,22.7215,32.68329,14.91623C302.34463,246.90032,310.7482,228.22874,313.56941,209.52419ZM393.297,169.25061c.73886,10.73163,1.76686,21.2113,12.06335,26.57377,10.00656,5.21147,19.77255,1.94747,28.43475-4.18308,16.54915-11.71236,24.49951-28.62314,25.48362-48.1718,1.11943-22.23678-18.46225-33.35941-37.63769-21.80565C403.78758,132.42106,396.10743,149.65585,393.297,169.25061Zm.2036,169.64453c.03962,12.3566,1.75683,22.1441,11.76554,27.941,10.19262,5.90342,19.71121,2.20454,28.17065-3.72013,16.89263-11.831,25.091-28.978,25.69452-49.125.26932-8.99024-2.19371-18.82256-11.62023-23.39513-9.334-4.52779-18.69207-2.76932-27.23957,3.025C403.58247,304.93437,395.85864,321.32328,393.50058,338.89514Zm-7.64141,11.80369c.23589-14.11987-1.71215-23.76564-11.23725-28.96312-9.8742-5.388-19.85349-2.65873-28.382,3.704-17.34523,12.94051-26.39589,30.30955-24.89721,52.21087,1.38436,20.23054,17.51512,29.01351,35.19863,18.89516C375.56135,385.66275,384.42022,368.20379,385.85917,350.69883Zm-.22253-169.25918c.53269-15.66821-1.2805-25.64293-11.47618-31.149-10.75516-5.80824-20.82811-1.60389-29.37491,5.0914-16.57646,12.98533-24.97821,30.18288-23.31475,51.57259,1.50648,19.37106,17.19627,28.17515,34.29328,18.7752C375.011,215.14784,384.03371,197.84182,385.63664,181.43965Zm.15554,84.841c.45-15.79144-1.97784-25.72069-12.211-30.88822-9.54968-4.82238-19.07579-1.78276-27.17253,4.257-17.37481,12.96069-26.62029,30.28491-25.14426,52.26547,1.365,20.32733,17.16529,29.11165,35.06024,19.1346C375.53888,300.33684,384.40137,282.79031,385.79218,266.28065Zm7.66367-12.43242c.35443,12.44376,2.04006,22.45085,12.484,27.75175,10.2938,5.22471,19.80126,1.5703,28.29269-4.63011,15.85945-11.58049,23.921-28.00531,24.84273-47.07858.44674-9.24457-1.45122-19.62593-11.72878-24.75418-9.70478-4.84248-18.8496-2.53188-27.27389,3.15616C403.29329,219.62265,395.73206,236.23621,393.45585,253.84823Z"/><path class="cls-4" d="M26.33613,117.03617a18.43056,18.43056,0,0,1,23.63654-8.61412c55.55271,23.418,111.24519,46.54924,167.428,68.39548,13.586,5.28282,16.52685,17.27118,24.18985,26.33854-4.89482,13.15177-.11361,26.27541-.04182,39.41682.3394,62.12753.09527,124.25809.29341,186.38678.01956,6.13084-1.61614,11.76238-2.78811,17.5793-7.36685,0-9.53072-.9496-18.47922-3.35129a57.37974,57.37974,0,0,1-9.27536-3.57237q-61.0624-26.86544-122.1369-53.70339c-23.541-10.33742-48.05561-19.381-59.06151-45.91069M95.87986,257.1683c-.62251-18.973-8.17419-34.68778-23.19218-46.29275-7.41228-5.72777-16.02395-9.33721-25.59073-4.75658-9.57843,4.58621-12.3299,13.66887-12.22951,22.9336.20918,19.30584,7.75829,35.76241,23.31625,47.62222,7.37305,5.62049,15.95475,10.02673,25.50507,5.02872C93.4158,276.61308,95.89806,267.42735,95.87986,257.1683Zm-.06611,79.35276c-.69959-15.31994-8.09512-31.07341-23.16914-42.68519-7.513-5.7874-16.22269-9.23273-25.63471-4.69775-9.439,4.548-12.28928,13.69026-12.16314,23.026.261,19.31455,7.96335,35.6671,23.35976,47.618,7.40377,5.74691,16.18737,9.704,25.58071,4.89368C93.5355,359.68367,95.87763,350.32411,95.81375,336.52106ZM232.13808,229.94213c.13147-13.65966-10.36805-33.57-25.32267-43.28737C189.4301,175.358,173.089,182.61845,171.39453,203.314c-1.64117,20.04418,6.46624,36.77767,21.89043,49.49474,7.50169,6.1851,16.03334,11.13324,26.41028,6.08945C229.89834,253.93888,231.59565,244.54807,232.13808,229.94213ZM103.16655,178.36066c.18665,18.85611,12.09513,39.7792,27.40287,48.14655,16.02849,8.76131,30.096,2.92684,32.78964-15.03591,3.16354-21.09621-5.01809-38.76228-21.19272-52.30353-7.44367-6.23178-16.10507-11.46716-26.41925-6.35287C105.26411,158.01287,103.02207,167.70269,103.16655,178.36066Zm.00592,82.64579c.08175,21.41847,14.45522,44.03429,32.0956,50.50057,13.26338,4.86188,22.32422.58625,26.90887-12.69772,6.21641-18.012-3.27526-44.42117-20.84431-57.22084-7.90133-5.75639-16.16816-11.07075-26.46006-5.27258C105.18277,241.77488,103.11586,250.9006,103.17247,261.00645Zm-.00414,86.36759c1.617,17.90477,9.71362,36.18243,30.25591,46.402,14.16247,7.0457,25.0045,1.45231,29.44723-13.92683,5.11378-17.70212-5.03714-43.72468-22.09032-55.66581-7.54277-5.28166-15.35636-10.34195-25.29133-5.102C105.53532,324.33158,103.27382,333.239,103.16833,347.374ZM95.75427,173.89568C95.741,151.52316,81.0862,128.897,62.67634,122.8253c-12.319-4.06291-20.39391-.38789-25.30547,11.51691-7.35978,17.83889,2.8387,46.9057,21.10882,59.40657,7.66414,5.244,15.64467,10.0234,25.42715,4.71084C93.78729,193.09387,95.76988,183.99482,95.75427,173.89568ZM231.82066,317.487c-.08835-18.55425-7.59247-33.681-21.80188-45.41086-7.74159-6.39059-16.49454-10.71589-26.56464-5.86435-10.60744,5.11044-12.9331,15.2639-12.37111,25.63382.95891,17.694,8.21777,32.80775,22.19847,44.02209,7.66622,6.14928,16.27216,10.93771,26.50384,5.97823C229.91039,336.93817,231.81333,327.5871,231.82066,317.487Zm-.12728,87.077c.21279-23.26622-10.152-42.78261-25.88175-52.5792-15.92857-9.92044-30.883-4.0591-33.87367,14.36118-3.5475,21.8497,5.64838,39.37488,22.17093,53.04226,7.15974,5.92243,15.60318,10.15468,25.35446,5.50979C229.63115,420.05467,231.89961,410.99121,231.69338,404.56394Z"/><path class="cls-5" d="M240.01087,167.72065c-11.6042.01119-22.98161-1.55752-33.21582-7.1545-10.53962-5.764-11.26728-14.55963-.88119-19.70983,23.80821-11.80589,48.59226-12.72987,72.80175-1.07965,10.55418,5.07892,10.26669,13.59763-.21076,19.66692C266.69954,166.28209,253.40842,167.59327,240.01087,167.72065Z"/><path class="cls-6" d="M103.18275,112.62443c-11.56677-.063-22.98434-1.37259-33.18317-7.09982-10.41648-5.84946-10.78787-14.34413-.04471-19.55877,23.90186-11.60175,48.70462-12.05995,72.85943-.72781,9.89838,4.64379,9.68677,13.07485.129,18.90448C130.81086,111.54256,117.04319,112.65025,103.18275,112.62443Z"/><path class="cls-7" d="M244.58536,76.69648a72.88109,72.88109,0,0,1,34.636,6.18326c4.62236,2.02661,9.1598,5.60158,8.85183,11.22487-.2626,4.79516-4.18858,8.0648-8.571,9.96027-22.91295,9.91015-46.1012,10.57313-69.33079,1.29-4.64656-1.85688-9.51855-4.89882-9.47713-10.63122.04552-6.30145,5.30263-9.66211,10.33236-11.68427C222.1097,78.58347,233.61882,75.50212,244.58536,76.69648Z"/><path class="cls-8" d="M178.73931,48.94529c10.47993-.53078,21.65769,1.867,32.22567,6.5048,4.52808,1.98718,9.058,5.13993,8.74368,11.19574-.27248,5.24952-4.24285,8.25552-8.38563,10.0409-23.34215,10.05961-47.12855,11.2185-70.47809.64661-11.47778-5.19676-11.39926-14.11286-.36288-20.22682C151.90792,50.77681,164.55266,48.70812,178.73931,48.94529Z"/><path class="cls-8" d="M171.731,140.081c-11.56535.1604-22.90842-1.31769-33.1369-6.919-10.4935-5.7464-11.14944-14.45058-.65145-19.69484,23.7555-11.86708,48.46643-12.4188,72.62006-1.03512,10.16177,4.78925,9.72786,13.95152-.39009,19.67808C198.30538,138.82676,185.15286,140.3599,171.731,140.081Z"/><path class="cls-6" d="M312.80483,104.25536a72.073,72.073,0,0,1,33.44591,5.502c4.732,1.93792,9.093,4.64563,9.45439,10.6632.37078,6.17456-3.8601,9.35246-8.518,11.30825-22.5431,9.46564-45.43494,9.82205-68.34466,1.32147-4.79546-1.77934-9.46716-4.61889-9.72149-10.5159-.28612-6.6346,5.00939-9.9087,9.93576-11.96011C290.12847,105.96386,301.711,102.9538,312.80483,104.25536Z"/><path class="cls-9" d="M247.8879,21.01223c11.48785-.50445,22.85365.74706,33.27746,6.06288,11.27015,5.74745,12.32,15.07578,1.40548,20.32431-23.80872,11.44906-48.65823,11.65738-72.73909.80272-10.1987-4.59716-9.46078-14.12855.77851-19.77307C222.12205,22.08308,234.79984,20.43711,247.8879,21.01223Z"/><path class="cls-10" d="M381.186,109.82326c-11.89474.59092-23.79905-.34463-34.55585-6.23193-10.32307-5.64991-10.93663-14.451-.45973-19.63328,23.86234-11.80321,48.77481-11.68121,72.9631-1.09306,10.37751,4.54265,9.76371,13.87487-.57345,19.74077C407.09022,109.11443,394.33193,110.51122,381.186,109.82326Z"/><path class="cls-5" d="M310.23975,82.36075c-8.92459.06136-19.89981-.3511-30.0096-5.467-4.58086-2.31809-9.0062-5.08219-8.77387-11.089.19943-5.15625,3.65528-8.5968,7.9715-10.36018,22.95287-9.37728,46.196-9.94921,69.42787-1.03948,4.76969,1.82923,9.18651,4.86226,8.89868,10.90754-.27667,5.811-4.71722,8.66977-9.31079,10.889C337.03422,81.71383,324.75407,82.62928,310.23975,82.36075Z"/><path class="cls-11" d="M313.57579,291.53469c.10971,22.07512-17.21368,47.10351-36.77654,53.1339-12.56108,3.872-22.62446-1.195-27.02935-13.60955-8.40116-23.67749,11.33743-60.19331,35.68951-66.02463C301.43389,261.20919,313.48152,272.56434,313.57579,291.53469Z"/><path class="cls-12" d="M313.59786,380.16168c-2.30554,17.43931-9.93574,35.03324-28.01427,46.31591-19.21009,11.98883-37.91679,2.07749-37.79958-20.68142.11019-21.40022,9.38511-39.14139,27.9005-50.58679C295.7637,342.79725,313.49064,353.3768,313.59786,380.16168Z"/><path class="cls-12" d="M313.56941,209.52419c-2.82121,18.70455-11.22478,37.37613-31.93389,47.94668-15.29161,7.80527-28.16811,1.6097-32.68329-14.91623-6.33744-23.19558,13.59641-57.56524,36.76324-63.38674C300.73,175.395,313.6551,187.97184,313.56941,209.52419Z"/><path class="cls-13" d="M393.297,169.25061c2.81045-19.59476,10.4906-36.82955,28.344-47.58676,19.17544-11.55376,38.75712-.43113,37.63769,21.80565-.98411,19.54866-8.93447,36.45944-25.48362,48.1718-8.6622,6.13055-18.42819,9.39455-28.43475,4.18308C395.06384,190.46191,394.03584,179.98224,393.297,169.25061Z"/><path class="cls-6" d="M393.50058,338.89514c2.35806-17.57186,10.08189-33.96077,26.77091-45.27428,8.5475-5.79433,17.90552-7.5528,27.23957-3.025,9.42652,4.57257,11.88955,14.40489,11.62023,23.39513-.60351,20.147-8.80189,37.294-25.69452,49.125-8.45944,5.92467-17.978,9.62355-28.17065,3.72013C395.25741,361.03924,393.5402,351.25174,393.50058,338.89514Z"/><path class="cls-11" d="M385.85917,350.69883c-1.439,17.505-10.29782,34.96392-29.3178,45.84693-17.68351,10.11835-33.81427,1.33538-35.19863-18.89516-1.49868-21.90132,7.552-39.27036,24.89721-52.21087,8.52848-6.36275,18.50777-9.092,28.382-3.704C384.147,326.93319,386.09506,336.579,385.85917,350.69883Z"/><path class="cls-14" d="M385.63664,181.43965c-1.60293,16.40217-10.6256,33.70819-29.87256,44.29017-17.097,9.4-32.7868.59586-34.29328-18.7752-1.66346-21.38971,6.73829-38.58726,23.31475-51.57259,8.5468-6.69529,18.61975-10.89964,29.37491-5.0914C384.35614,155.79672,386.16933,165.77144,385.63664,181.43965Z"/><path class="cls-15" d="M385.79218,266.28065c-1.39081,16.50966-10.2533,34.05619-29.46754,44.76884-17.89495,9.97705-33.69523,1.19273-35.06024-19.1346-1.476-21.98056,7.76945-39.30478,25.14426-52.26547,8.09674-6.03975,17.62285-9.07937,27.17253-4.257C383.81434,240.56,386.24217,250.48921,385.79218,266.28065Z"/><path class="cls-12" d="M393.45585,253.84823c2.27621-17.612,9.83744-34.22558,26.61671-45.555,8.42429-5.688,17.56911-7.99864,27.27389-3.15616,10.27756,5.12825,12.17552,15.50961,11.72878,24.75418-.92173,19.07327-8.98328,35.49809-24.84273,47.07858-8.49143,6.20041-17.99889,9.85482-28.29269,4.63011C395.49591,276.29908,393.81028,266.292,393.45585,253.84823Z"/><path class="cls-16" d="M95.87986,257.1683c.0182,10.25905-2.46406,19.44478-12.1911,24.53521-9.55032,4.998-18.132.59177-25.50507-5.02872-15.558-11.85981-23.10707-28.31638-23.31625-47.62222-.10039-9.26473,2.65108-18.34739,12.22951-22.9336,9.56678-4.58063,18.17845-.97119,25.59073,4.75658C87.70567,222.48052,95.25735,238.19525,95.87986,257.1683Z"/><path class="cls-15" d="M95.81375,336.52106c.06388,13.80305-2.27825,23.16261-12.02652,28.1547-9.39334,4.8103-18.17694.85323-25.58071-4.89368-15.39641-11.95087-23.09879-28.30342-23.35976-47.618-.12614-9.33573,2.72411-18.478,12.16314-23.026,9.412-4.535,18.12169-1.08965,25.63471,4.69775C87.71863,305.44765,95.11416,321.20112,95.81375,336.52106Z"/><path class="cls-6" d="M232.13808,229.94213c-.54243,14.60594-2.23974,23.99675-12.44284,28.95608-10.37694,5.04379-18.90859.09565-26.41028-6.08945-15.42419-12.71707-23.5316-29.45056-21.89043-49.49474,1.6945-20.69557,18.03557-27.95605,35.42088-16.65926C221.77,196.3721,232.26955,216.28247,232.13808,229.94213Z"/><path class="cls-15" d="M103.15462,178.35482c-.13255-10.65213,2.10949-20.34195,12.59247-25.53992,10.31418-5.11429,18.97558.12109,26.41925,6.35287C158.341,172.709,166.5226,190.37509,163.35906,211.4713c-2.69365,17.96275-16.76115,23.79722-32.78964,15.03591C115.26168,218.13986,103.3532,197.21677,103.15462,178.35482Z"/><path class="cls-17" d="M103.1613,261.00116c-.04544-10.10056,2.02147-19.22628,11.71127-24.68528,10.2919-5.79817,18.55873-.48381,26.46006,5.27258,17.56905,12.79967,27.06072,39.20888,20.84431,57.22084-4.58465,13.284-13.64549,17.5596-26.90887,12.69772C117.62769,305.04074,103.25422,282.42492,103.1613,261.00116Z"/><path class="cls-7" d="M103.16833,347.374c.10549-14.13509,2.367-23.04246,12.32149-28.29267,9.935-5.23993,17.74856-.17964,25.29133,5.102,17.05318,11.94113,27.2041,37.96369,22.09032,55.66581-4.44273,15.37914-15.28476,20.97253-29.44723,13.92683C112.882,383.55647,104.78537,365.27881,103.16833,347.374Z"/><path class="cls-7" d="M95.757,173.897c.01292,10.09783-1.96967,19.19688-11.85012,24.56263-9.78248,5.31256-17.763.53316-25.42715-4.71084-18.27012-12.50087-28.4686-41.56768-21.10882-59.40657,4.91156-11.9048,12.98646-15.57982,25.30547-11.51691C81.0862,128.897,95.741,151.52316,95.757,173.897Z"/><path class="cls-15" d="M231.82066,317.487c-.00733,10.10012-1.91027,19.45119-12.03532,24.35893-10.23168,4.95948-18.83762.171-26.50384-5.97823-13.9807-11.21434-21.23956-26.32811-22.19847-44.02209-.562-10.36992,1.76367-20.52338,12.37111-25.63382,10.0701-4.85154,18.823-.52624,26.56464,5.86435C224.22819,283.80594,231.73231,298.93273,231.82066,317.487Z"/><path class="cls-16" d="M231.69338,404.56394c.20623,6.42727-2.06223,15.49073-12.23,20.334-9.75128,4.64489-18.19472.41264-25.35446-5.50979-16.52255-13.66738-25.71843-31.19256-22.17093-53.04226,2.9907-18.42028,17.9451-24.28162,33.87367-14.36118C221.54137,361.78133,231.90617,381.29772,231.69338,404.56394Z"/><path d="M24.848,532.98656v-.11231A20.01506,20.01506,0,0,1,45.3822,512.508c7.42627,0,11.87109,2.47559,15.52783,6.07617l-5.51367,6.35743c-3.0376-2.75684-6.13184-4.44434-10.07031-4.44434-6.63868,0-11.42041,5.51269-11.42041,12.26465v.1123c0,6.751,4.66943,12.377,11.42041,12.377,4.501,0,7.25732-1.80079,10.35156-4.61329l5.51367,5.56934c-4.05078,4.332-8.55127,7.03223-16.14648,7.03223A19.87818,19.87818,0,0,1,24.848,532.98656Z"/><path d="M65.18591,537.65648v-.11328c0-8.66406,6.97607-15.69629,16.37158-15.69629,9.33887,0,16.25879,6.91992,16.25879,15.584v.11231c0,8.66406-6.97607,15.69629-16.37158,15.69629C72.10583,553.23949,65.18591,546.31956,65.18591,537.65648Zm24.19141,0v-.11328c0-4.44434-3.20655-8.32617-7.93262-8.32617-4.89453,0-7.81983,3.76953-7.81983,8.21386v.11231c0,4.44433,3.20655,8.32617,7.93262,8.32617C86.452,545.86937,89.37732,542.10081,89.37732,537.65648Z"/><path d="M104.39782,511.49535h8.55176v41.06933h-8.55176Z"/><path d="M119.53112,537.65648v-.11328c0-8.66406,6.97608-15.69629,16.37159-15.69629,9.33886,0,16.25879,6.91992,16.25879,15.584v.11231c0,8.66406-6.97608,15.69629-16.37159,15.69629C126.45105,553.23949,119.53112,546.31956,119.53112,537.65648Zm24.19141,0v-.11328c0-4.44434-3.20654-8.32617-7.93262-8.32617-4.89453,0-7.81982,3.76953-7.81982,8.21386v.11231c0,4.44433,3.20654,8.32617,7.93262,8.32617C140.79724,545.86937,143.72253,542.10081,143.72253,537.65648Z"/><path d="M158.34948,522.40941h8.55127v6.07617c1.74414-4.16309,4.55713-6.86328,9.62061-6.63867v8.94531h-.4502c-5.68213,0-9.17041,3.43164-9.17041,10.63281v11.13965h-8.55127Z"/><path d="M182.766,513.18285h16.09033c9.395,0,15.07764,5.57031,15.07764,13.61523v.11231c0,9.11425-7.08887,13.83984-15.92139,13.83984h-6.58252v11.81445H182.766Zm15.52783,19.86035c4.332,0,6.86328-2.58789,6.86328-5.96387v-.1123c0-3.88184-2.70019-5.96387-7.03223-5.96387h-6.69482v12.04Z"/><path d="M219.61609,511.49535h9.00146v7.59472h-9.00146Zm.2246,10.91406h8.55176v30.15527h-8.55176Z"/><path d="M236.43689,522.40941h8.55127v4.332a11.07486,11.07486,0,0,1,9.395-4.89453c7.0332,0,13.72753,5.51367,13.72753,15.584v.11231c0,10.07031-6.582,15.584-13.72753,15.584a11.57824,11.57824,0,0,1-9.395-4.501v12.94043h-8.55127ZM259.559,537.5432v-.11231c0-5.00683-3.375-8.32617-7.36914-8.32617-3.99463,0-7.314,3.31934-7.314,8.32617v.11231c0,5.00781,3.31934,8.32617,7.314,8.32617C256.184,545.86937,259.559,542.60667,259.559,537.5432Z"/><path d="M272.9486,537.65648v-.11328c0-8.60742,6.13184-15.69629,14.90821-15.69629,10.07031,0,14.68359,7.82031,14.68359,16.37207,0,.6748-.05566,1.46191-.1123,2.25H281.44372a6.9932,6.9932,0,0,0,7.36914,5.90723,9.88246,9.88246,0,0,0,7.31446-3.09473l4.89453,4.332a15.08319,15.08319,0,0,1-12.32129,5.626C279.64294,553.23949,272.9486,546.88206,272.9486,537.65648Zm21.26563-2.53223c-.50684-3.82519-2.75684-6.41308-6.35742-6.41308-3.54395,0-5.85059,2.53125-6.52637,6.41308Z"/><path d="M335.84607,521.1721h-11.9834v-7.98925h32.62988v7.98925h-11.9834v31.39258h-8.66308Z"/><path d="M354.86169,537.65648v-.11328c0-8.66406,6.97559-15.69629,16.37109-15.69629,9.33887,0,16.25879,6.91992,16.25879,15.584v.11231c0,8.66406-6.97656,15.69629-16.37109,15.69629C361.78161,553.23949,354.86169,546.31956,354.86169,537.65648Zm24.19141,0v-.11328c0-4.44434-3.207-8.32617-7.93262-8.32617-4.89453,0-7.82031,3.76953-7.82031,8.21386v.11231c0,4.44433,3.207,8.32617,7.93261,8.32617C376.12732,545.86937,379.0531,542.10081,379.0531,537.65648Z"/><path d="M392.21716,537.65648v-.11328c0-8.66406,6.97559-15.69629,16.37109-15.69629,9.33887,0,16.25879,6.91992,16.25879,15.584v.11231c0,8.66406-6.97656,15.69629-16.37109,15.69629C399.13708,553.23949,392.21716,546.31956,392.21716,537.65648Zm24.19141,0v-.11328c0-4.44434-3.207-8.32617-7.93262-8.32617-4.89453,0-7.82031,3.76953-7.82031,8.21386v.11231c0,4.44433,3.207,8.32617,7.93261,8.32617C413.48278,545.86937,416.40857,542.10081,416.40857,537.65648Z"/><path d="M431.42907,511.49535h8.55078v41.06933h-8.55078Z"/><path d="M445.66247,548.57054l3.65625-5.626a17.05759,17.05759,0,0,0,9.50781,3.60059c2.47559,0,3.60059-.90039,3.60059-2.251v-.1123c0-1.85645-2.9248-2.47559-6.24414-3.48828-4.21973-1.23731-9.00195-3.20606-9.00195-9.05762v-.1123c0-6.13184,4.95117-9.56446,11.02734-9.56446a20.87977,20.87977,0,0,1,11.252,3.48828l-3.26367,5.90723c-2.98144-1.74414-5.96289-2.8125-8.15722-2.8125-2.082,0-3.1504.90039-3.1504,2.08106v.11328c0,1.6875,2.86915,2.47461,6.13184,3.60058,4.21973,1.40625,9.11426,3.43164,9.11426,8.94434v.11328c0,6.69434-5.00684,9.73242-11.5332,9.73242A21.12218,21.12218,0,0,1,445.66247,548.57054Z"/></svg>