<svg id="Layer_1" data-name="Layer 1" xmlns="http://www.w3.org/2000/svg" viewBox="0 0 150.32528 162.13398"><defs><style>.cls-1{fill:#91c1fe;}.cls-2{fill:#ae4535;}.cls-3{fill:#f60;}.cls-4{fill:#fff;}.cls-5{fill:#e70034;}.cls-6{fill:#00e72c;}.cls-7{fill:maroon;}.cls-8{fill:#211d20;}.cls-9{fill:#99f;}</style></defs><title>colortribe</title><circle class="cls-1" cx="75.68189" cy="40.10552" r="31.37802"/><path d="M75.682,74.23375A34.12818,34.12818,0,1,1,109.81,40.10533,34.1668,34.1668,0,0,1,75.682,74.23375Zm0-62.75635A28.62818,28.62818,0,1,0,104.31,40.10533,28.66047,28.66047,0,0,0,75.682,11.4774Z"/><polygon points="71.597 36.073 67.522 37.013 72.271 33.378 68.6 32.207 76.192 29.703 71.597 26.249 80.914 25.723 80.146 20.982 87.153 21.595 88.189 21.595 71.597 36.073"/><path class="cls-2" d="M98.08062,42.68969s0,8.521-.44409,9.31049-8.68272.84855-8.68272.84855l-.50963,9.65573s-4.42968-3.47375-6.69443-4.228c-3.85491-1.28386-15.6995.6746-15.6995.6746s3.48232-4.1344,4.16174-5.99516c.50775-1.3906.43561-5.92114.43561-5.92114l.074-4.58889s8.56721-8.24956,11.54623-10.73207c4.44086-3.70072,11.27484-4.73692,11.27484-4.73692s2.92817,4.34217,4.30977,6.908,3.12481,7.53326,1.7432,8.32275-4.77113,1.10817-4.9685-.27343-.19737-1.58546-.19737-1.58546"/><path d="M88.78065,63.24449l-.56836-.44531c-.04394-.03418-4.40429-3.44189-6.581-4.167-3.72168-1.23975-15.40235.66943-15.51953.689l-1.00293.16553.65429-.77734c.03516-.04053,3.44825-4.1045,4.09668-5.88184a26.35791,26.35791,0,0,0,.41309-5.78711L70.35,42.28355l.1123-.10791c.085-.08251,8.61035-8.28759,11.56543-10.75,4.46973-3.7246,11.17481-4.77636,11.458-4.81933l.23535-.03565.13184.19678c.02929.04346,2.95508,4.38721,4.33008,6.93945.79589,1.478,3.58007,7.69434,1.5996,8.82618a5.36656,5.36656,0,0,1-1.32714.50146c-.00489,2.34229-.0586,8.37891-.49219,9.1499-.44141.78467-4.86817.99854-8.6543,1.03614ZM77.70448,57.46471a14.36758,14.36758,0,0,1,4.16309.45556c1.835.61133,4.958,2.88526,6.23925,3.853l.49121-9.29736.35254-.00244c3.67383-.02637,7.92383-.29834,8.38477-.69239a63.47556,63.47556,0,0,0,.36914-8.59912,4.94774,4.94774,0,0,1-2.67578-.21924,1.27222,1.27222,0,0,1-.77246-.97558c-.14844-1.03809-.20117-1.52735-.20117-1.63867h.75c0,.002.01074.24951.19335,1.53222.00879.062.03614.25.35938.40821a5.67276,5.67276,0,0,0,4.05176-.40723c.93945-.53662-.27246-4.81982-1.88672-7.81934-1.18945-2.20752-3.56641-5.792-4.15625-6.6748-1.22559.22119-7.00684,1.4043-10.8584,4.61426-2.751,2.292-10.39453,9.626-11.41406,10.606l-.07129,4.43262c.00293.17578.06738,4.605-.458,6.04395a27.34691,27.34691,0,0,1-3.60058,5.34472A81.68128,81.68128,0,0,1,77.70448,57.46471Z"/><path class="cls-3" d="M71.59719,36.07307s6.59628-9.03221,11.31436-11.47862a32.24146,32.24146,0,0,1,6.65128-2.83138,3.75046,3.75046,0,0,1,2.32688.03279c2.14641.81416,2.31911,5.181,2.31911,5.181s-6.78463,1.86121-9.96087,4.00291a40.28861,40.28861,0,0,0-5.99718,5.44675l-6.144-.35345Z"/><path d="M78.40956,36.81139l-6.32422-.36377-1.22656.00049.43554-.5962c.27149-.37158,6.70313-9.13183,11.44434-11.59033a32.51238,32.51238,0,0,1,6.73437-2.8623,4.08851,4.08851,0,0,1,2.54981.0459c2.35156.89209,2.55273,5.32861,2.56055,5.51709l.01171.29736-.2871.0791c-.06739.01807-6.76172,1.86963-9.84961,3.95215a40.18686,40.18686,0,0,0-5.92872,5.38574Zm-6.07227-1.1001,5.75586.33057a39.32986,39.32986,0,0,1,5.94531-5.373c2.85059-1.92188,8.42188-3.5835,9.77735-3.97119-.10547-1.31006-.61035-4.002-2.0586-4.55127a3.36905,3.36905,0,0,0-2.10449-.01953,31.92759,31.92759,0,0,0-6.56836,2.80078C79.18592,26.94908,73.88124,33.68248,72.33729,35.71129Z"/><path class="cls-4" d="M80.04418,16.19022a48.01793,48.01793,0,0,0-9.47066-1.072c-2.20668.00973-3.89478.05277-3.89478.05277s4.60509,5.35377,8.92259,6.22048,9.81448,1.95644,9.81448,1.95644L88.862,21.965a30.72082,30.72082,0,0,0-2.87653-2.91048A19.89037,19.89037,0,0,0,80.04418,16.19022Z"/><path d="M85.45155,23.73766l-.10938-.022s-5.49707-1.08984-9.81542-1.95654c-4.39258-.88184-8.94043-6.12109-9.13184-6.34375l-.51563-.59961.79-.02s1.69141-.043,3.90235-.05273a49.048,49.048,0,0,1,9.56543,1.084,20.19521,20.19521,0,0,1,6.085,2.936,30.74368,30.74368,0,0,1,2.92285,2.95654l.34473.39746ZM67.515,15.52818c1.335,1.40577,4.87011,4.835,8.16015,5.49561,3.959.79492,8.91114,1.77734,9.7041,1.93457l2.84864-1.14258a26.53747,26.53747,0,0,0-2.47852-2.46973,19.561,19.561,0,0,0-5.79785-2.79248h0a49.02448,49.02448,0,0,0-9.376-1.06054C69.31092,15.4984,68.21717,15.515,67.515,15.52818Z"/><path d="M71.1287,16.65187c.12778.85952,1.67747,2.30707,2.84955,3.33064.7482.65341,1.50318.95037,1.11345,1.40892-.59535.70049-8.413-5.96566-8.413-5.96566l6.60914-.23589S70.95264,15.46764,71.1287,16.65187Z"/><path d="M86.72766,29.64952s.94379,1.02806.86949,3.98863-1.102,7.84551-2.50829,9.91792a55.63162,55.63162,0,0,1-4.15327,5.033l.66613,1.18423-.66613.88817s1.62832,1.77634,2.73853,2.88656,4.08773,3.87415,4.60583,5.94655.8797,3.91429.8797,3.91429-6.25665.50963-9.01355-3.6267A37.9761,37.9761,0,0,1,77.01283,53.548l-2.02306-.29606V50.58742a4.24135,4.24135,0,0,1-2.4178-.59211,11.93957,11.93957,0,0,0-2.44247-1.0362l.59212-6.51326Z"/><path d="M88.45253,63.807c-1.78223,0-6.31446-.35937-8.61914-3.81689a37.27468,37.27468,0,0,1-3.08985-6.10254l-2.1289-.31152V50.972A4.98849,4.98849,0,0,1,72.39,50.32359a11.70378,11.70378,0,0,0-2.35743-1.002l-.30468-.08154.63476-6.9878L86.767,29.13756l.2373.2583c.043.04639,1.04493,1.17529.96778,4.25146-.07813,3.1084-1.15332,8.02832-2.57227,10.11914a52.68566,52.68566,0,0,1-4.0039,4.876l.65234,1.16016-.625.83447c.47559.51514,1.6582,1.78857,2.5166,2.646l.36328.35937c1.34473,1.32276,3.84668,3.78467,4.34082,5.76123.51465,2.05762.87989,3.91455.88379,3.93311l.08106.41211-.41895.03369C89.14,63.787,88.87245,63.807,88.45253,63.807ZM75.36464,52.9276l1.91992.28125.07812.20459a37.92277,37.92277,0,0,0,3.09571,6.16064c2.19433,3.293,6.81738,3.499,8.24609,3.47656-.1377-.66406-.42578-2.01416-.78906-3.46533-.44239-1.77148-2.93848-4.228-4.13867-5.4082l-.36719-.36377c-1.10352-1.10352-2.7334-2.88086-2.75-2.89844l-.21-.22949.706-.94141L80.475,48.53453l.18554-.20019a55.71919,55.71919,0,0,0,4.11817-4.98877c1.30762-1.92627,2.36816-6.71875,2.44336-9.7168a7.08758,7.08758,0,0,0-.585-3.42676L71.08143,42.639l-.55078,6.0503a13.06806,13.06806,0,0,1,2.22363.97851,3.97641,3.97641,0,0,0,2.18653.54785l.42187-.05322Z"/><path class="cls-4" d="M96.42277,33.0775a5.13983,5.13983,0,0,0-1.9565.682c-.3117.22-.66113.58612-1.14162.99829a7.5824,7.5824,0,0,1-1.05191.79144l1.46733-.05943,2.83559.19182Z"/><path d="M96.975,36.08434l-3.26074-.22071-2.9629.12256,1.33692-.76318a7.56368,7.56368,0,0,0,.99219-.75c.18847-.16211.35742-.3169.51074-.458a7.11708,7.11708,0,0,1,.65918-.562,5.47815,5.47815,0,0,1,2.126-.74756l.39747-.05029Zm-3.251-.96924,2.45215.16406-.10254-1.75684a4.07421,4.07421,0,0,0-1.3916.54346,6.33276,6.33276,0,0,0-.583.50147c-.15918.14648-.334.30713-.53027.47509-.03321.02832-.06543.05616-.09766.083Z"/><path class="cls-4" d="M73.56743,20.35118a37.263,37.263,0,0,0-9.57478.43039,24.44136,24.44136,0,0,0-3.89661.92472s5.83932,4.18341,10.24239,4.55018c4.38843.36555,7.83275.28419,10.576-.53385a9.94127,9.94127,0,0,0,1.65872-.98112,7.535,7.535,0,0,0-2.15435-2.04432A27.71833,27.71833,0,0,0,73.56743,20.35118Z"/><path d="M74.7953,26.83922c-1.33789,0-2.82324-.07031-4.48828-.209-4.45508-.37158-10.1875-4.4458-10.42969-4.61914l-.58887-.42187.68457-.23731a24.57277,24.57277,0,0,1,3.96289-.94091,38.2386,38.2386,0,0,1,9.69239-.43018h0a28.25755,28.25755,0,0,1,6.98144,2.39356,7.88046,7.88046,0,0,1,2.27637,2.15917l.20117.30323-.29687.21045a9.61411,9.61411,0,0,1-1.76856,1.03466A21.67113,21.67113,0,0,1,74.7953,26.83922ZM60.95155,21.83434c1.61914,1.06884,6.00391,3.76416,9.418,4.04882,4.70019.39014,7.91992.23047,10.4375-.52a6.98734,6.98734,0,0,0,1.2334-.70947,6.99639,6.99639,0,0,0-1.81348-1.63379,27.17713,27.17713,0,0,0-6.71973-2.29883h0a37.64292,37.64292,0,0,0-9.458.43116A25.05893,25.05893,0,0,0,60.95155,21.83434Z"/><path d="M65.96875,22.82359c.25149.83179.79165,1.433,2.10019,2.27512.83532.53759,1.96335.63956,1.64449,1.14994-.4871.77966-9.56643-4.33851-9.56643-4.33851l9.68645-1.92281S65.62225,21.67758,65.96875,22.82359Z"/><path class="cls-4" d="M66.50872,26.24962a50.91785,50.91785,0,0,0-9.49734,1.30717,24.441,24.441,0,0,0-3.8021,1.25806s6.14978,3.69745,10.5508,3.54572a36.14351,36.14351,0,0,0,9.60138-1.49534,22.85054,22.85054,0,0,0,3.79848-2.03105A33.18533,33.18533,0,0,0,72.937,27.02806,30.91384,30.91384,0,0,0,66.50872,26.24962Z"/><path d="M63.49159,32.7401c-4.42871.00049-10.22559-3.45362-10.47559-3.604l-.61621-.3706.65625-.293a24.66951,24.66951,0,0,1,3.86719-1.28027,53.15445,53.15445,0,0,1,9.5918-1.31739,31.47527,31.47527,0,0,1,6.52343.792,33.00255,33.00255,0,0,1,4.291,1.833l.582.29493-.54883.35449a22.64124,22.64124,0,0,1-3.90039,2.07715,36.27015,36.27015,0,0,1-9.68945,1.50927Q63.63369,32.74009,63.49159,32.7401Zm-9.42285-3.86963c1.69336.92724,6.26269,3.23437,9.67871,3.11523a35.60829,35.60829,0,0,0,9.51367-1.48193A17.61722,17.61722,0,0,0,76.391,28.87389a27.15614,27.15614,0,0,0-3.55468-1.48438,30.59186,30.59186,0,0,0-6.333-.76465h0a52.41507,52.41507,0,0,0-9.4043,1.29688A24.98378,24.98378,0,0,0,54.06874,28.87047Z"/><path d="M58.92435,28.92123a5.40909,5.40909,0,0,0,2.52122,2.58421c.87866.46337,1.68176.57832,1.40821,1.11436-.41788.81884-9.5761-3.60626-9.5761-3.60626l3.64-1.35815,4.853-.97836S58.4801,27.80946,58.92435,28.92123Z"/><path class="cls-4" d="M61.7148,32.91582a50.91625,50.91625,0,0,0-8.60614,4.224,24.44044,24.44044,0,0,0-3.21454,2.38859s7.74593,1.466,11.87657-.06041,6.63015-2.34379,9.06956-4.57325c.36746-.33584,1.43082-1.51669,1.43082-1.51669a16.66219,16.66219,0,0,0-3.6712-1.17089A21.89,21.89,0,0,0,61.7148,32.91582Z"/><path d="M56.69276,40.54137a41.4738,41.4738,0,0,1-6.86816-.644l-.73828-.13964.55468-.50586a24.52071,24.52071,0,0,1,3.26953-2.43018A51.02649,51.02649,0,0,1,61.60292,32.558h0a22.39831,22.39831,0,0,1,7.04492-.72266,16.79353,16.79353,0,0,1,3.77734,1.20117l.46778.21143-.34375.38135c-.04395.04883-1.08008,1.19824-1.45606,1.54248-2.32129,2.12158-4.71582,3.002-8.34082,4.33447l-.85156.31348A15.7033,15.7033,0,0,1,56.69276,40.54137Zm-5.94141-1.25c2.06055.31836,7.66309,1.01758,10.88965-.17481l.85254-.314c3.667-1.34864,5.88086-2.16211,8.09375-4.18457.21875-.2002.71094-.73047,1.05078-1.10157a14.27527,14.27527,0,0,0-3.08593-.937,21.71293,21.71293,0,0,0-6.72461.69434h0A51.00354,51.00354,0,0,0,53.307,37.45836,25.0485,25.0485,0,0,0,50.75135,39.29137Z"/><path d="M55.20715,38.079a5.85413,5.85413,0,0,0,3.35153,1.41693c.97973.16394,2.06383.14959,2.21287.43412.42655.81436-10.75009-.23446-10.75009-.23446l5.11574-3.73406A1.96751,1.96751,0,0,0,55.20715,38.079Z"/><path class="cls-4" d="M72.10682,36.07307c-2.86549.25123-8.696,3.27279-10.44266,4.50427a42.20729,42.20729,0,0,0-6.88484,6.49182A23.0833,23.0833,0,0,0,51.90471,52.096S59.599,51.04286,63.4485,48.02085s6.93886-5.717,8.62264-8.4152"/><path d="M51.31,52.556l.248-.60254A23.12876,23.12876,0,0,1,54.49257,46.828a42.73378,42.73378,0,0,1,6.956-6.55713c1.7998-1.26953,7.68164-4.31348,10.625-4.57129l.06641.74707c-2.77246.24268-8.5586,3.23779-10.25977,4.4375a41.89155,41.89155,0,0,0-6.81348,6.42627,20.78391,20.78391,0,0,0-2.542,4.30664c1.94238-.334,7.62207-1.481,10.69238-3.89111,3.40528-2.67334,6.7959-5.53125,8.53516-8.31885l.63672.39746c-1.7002,2.72461-4.71094,5.373-8.709,8.51123-3.88477,3.04981-11.40625,4.1084-11.72461,4.15186Z"/><path d="M56.90572,48.28025a3.51288,3.51288,0,0,0,3.31434,1.159c1.10006-.15606,1.42247-.924,1.54583-.45543.26242.99675-9.7978,3.27648-9.7978,3.27648a32.02521,32.02521,0,0,1,1.95635-3.96789c.63739-.90517,2.95767-3.606,2.95767-3.606S56.30926,47.67719,56.90572,48.28025Z"/><path class="cls-4" d="M63.35076,49.59575a27.53963,27.53963,0,0,0-2.47426,7.62471,33.90367,33.90367,0,0,0-.42625,3.56239s5.78426-4.03592,7.26682-7.4054a30.33661,30.33661,0,0,0,2.63959-8.12717c.06474-.40966.14291-2.73041.14291-2.73041s-2.13,1.65581-3.22709,2.452A22.9752,22.9752,0,0,0,63.35076,49.59575Z"/><path d="M60.03163,61.53258l.04492-.771a33.88565,33.88565,0,0,1,.43066-3.60742,27.55336,27.55336,0,0,1,2.53321-7.76855h0a23.1857,23.1857,0,0,1,4.01269-4.71729c1.07813-.7832,3.19531-2.42822,3.21582-2.44434l.63184-.49121-.02637.79981c-.00781.23974-.081,2.356-.14746,2.77588a30.987,30.987,0,0,1-2.667,8.21972c-1.50684,3.42676-7.15528,7.395-7.39453,7.5625ZM70.0951,43.307c-.71972.55469-1.88574,1.44824-2.60156,1.96826a22.51318,22.51318,0,0,0-3.832,4.53028h0a27.28722,27.28722,0,0,0-2.416,7.48144c-.1836,1.021-.2959,2.03614-.35743,2.71143,1.54-1.15576,5.35352-4.19873,6.48633-6.772a29.97906,29.97906,0,0,0,2.61231-8.03467C70.01991,44.9818,70.0619,44.11656,70.0951,43.307Z"/><path d="M62.90817,55.89178a5.32976,5.32976,0,0,0,3.37259-.64145c.73838-.49464.19834-.52677.57809-.12738.58012.61011-6.91823,6.16953-6.91823,6.16953l.69709-3.311L61.675,53.62326S61.74849,55.82535,62.90817,55.89178Z"/><path class="cls-4" d="M80.1461,40.34878a5.157,5.157,0,1,1-5.15633-5.15633A5.15633,5.15633,0,0,1,80.1461,40.34878Z"/><path d="M74.98964,45.88023A5.53149,5.53149,0,1,1,80.52089,40.349,5.53768,5.53768,0,0,1,74.98964,45.88023Zm0-10.313A4.78149,4.78149,0,1,0,79.77089,40.349,4.757,4.757,0,0,0,74.98964,35.56725Z"/><path class="cls-4" d="M76.14055,50.49232c.93652-1.05444,3.46787-2.75825,4.74408-2.1581.30739.14456.75839.80636.66613,1.13327-.40351,1.42963-3.67293,3.35719-5.09852,3.77473a1.51331,1.51331,0,0,1-1.51343-.29606C74.48491,52.38746,75.66253,51.03053,76.14055,50.49232Z"/><path d="M75.90956,53.81773a1.71958,1.71958,0,0,1-1.35938-.55664c-.65136-.80224.30762-2.07812,1.2168-3.10058h0c.88281-.99317,3.6709-3.05811,5.33008-2.27881a1.82426,1.82426,0,0,1,.93554,1.72119C81.54823,51.31676,78.017,53.305,76.59315,53.722A2.45705,2.45705,0,0,1,75.90956,53.81773ZM80.267,48.70787a6.81091,6.81091,0,0,0-3.752,2.1167h0c-1.23828,1.39209-1.18653,1.78613-1.17676,1.82666a1.10794,1.10794,0,0,0,.97363.11084c1.5166-.44385,4.44043-2.30664,4.75781-3.43066a1.33185,1.33185,0,0,0-.40039-.54541A.94363.94363,0,0,0,80.267,48.70787Z"/><path d="M93.87635,46.98619a5.97013,5.97013,0,0,1-2.40918-.36426A11.14236,11.14236,0,0,1,90.0326,45.452l.50782-.55176a11.38422,11.38422,0,0,0,1.26074,1.04981c1.1084.55127,4.5459.16113,5.77832-.03418l.083-.01123.043-1.84766.75.01758-.0586,2.49121-.71094.09229A27.25423,27.25423,0,0,1,93.87635,46.98619Z"/><circle class="cls-5" cx="39.66852" cy="101.18842" r="31.37802"/><path d="M39.66835,135.31627a34.12793,34.12793,0,1,1,34.12793-34.12793A34.16638,34.16638,0,0,1,39.66835,135.31627Zm0-62.75586a28.62793,28.62793,0,1,0,28.62793,28.62793A28.66047,28.66047,0,0,0,39.66835,72.56041Z"/><path class="cls-2" d="M57.15784,102.67277s.1203,8.09236-.44408,8.80085c-1.6989,2.13272-8.68273.84855-8.68273.84855l-.50963,9.65574a58.03921,58.03921,0,0,0-6.69443-3.20876c-3.85491-1.28386-15.6995-.34466-15.6995-.34466s3.48232-4.1344,4.16174-5.99516c.50775-1.3906.43562-5.92114.43562-5.92114l.074-4.58889s6.9632-12.88707,9.94222-15.36959a17.7009,17.7009,0,0,1,8.49581-4.1448s7,6.0542,8.69282,10.44377c1.04855,2.719,3.63443,8.55252,2.25283,9.342s-5.28077.59855-5.47814-.78306-.19737-1.58545-.19737-1.58545"/><path d="M47.86464,122.59654l-.52442-.29052a57.897,57.897,0,0,0-6.63183-3.18067c-3.73926-1.24512-15.4336-.33642-15.55176-.32666l-.89453.0708.57812-.68652c.03516-.04053,3.44824-4.105,4.09668-5.88233A26.35124,26.35124,0,0,0,29.35,106.514l.11914-4.773c.28613-.5288,7.03222-12.97949,10.03125-15.47949a17.92921,17.92921,0,0,1,8.69531-4.229l.16309-.01807.123.10694c.28907.25,7.09082,6.1665,8.79785,10.59228.13672.35449.29981.76221.47657,1.20508,1.69433,4.23974,2.98437,7.81348,1.61328,8.59765a4.70058,4.70058,0,0,1-1.832.478c.03222,2.62549.02929,8.00879-.5293,8.7124-1.585,1.9878-7.04785,1.29981-8.625,1.0542ZM33.4828,117.7152a28.2,28.2,0,0,1,7.46191.69824,51.24046,51.24046,0,0,1,6.23438,2.9497l.5-9.48681.41894.07715c1.88184.34472,7.04493.89062,8.32325-.71387.28711-.46826.41015-4.481.36621-8.21387a6.13161,6.13161,0,0,1-2.5166-.47168,1.47587,1.47587,0,0,1-.9375-1.09326c-.14844-1.03809-.20118-1.52734-.20118-1.63867h.75c0,.00195.01075.24951.19336,1.53223.03418.23925.30469.418.52442.52587a6.14631,6.14631,0,0,0,4.39648-.01513c.917-.52442-1.082-5.53028-1.93652-7.668-.17774-.4458-.3418-.85645-.47949-1.21387-1.51661-3.92969-7.50586-9.33691-8.46094-10.18213a17.98791,17.98791,0,0,0-8.13867,4.03662c-2.76953,2.30762-9.21387,14.08741-9.8086,15.17969L30.1,106.514c.00293.17578.06738,4.605-.458,6.04395a27.90226,27.90226,0,0,1-3.66895,5.42969C27.42225,117.89,30.43885,117.7152,33.4828,117.7152Z"/><path class="cls-4" d="M56.00963,92.449a5.13983,5.13983,0,0,0-1.9565.682c-.3117.22-.66114.58612-1.14163.99829-.6749.57892-1.0519.89337-1.0519.89337l1.46732-.05943,2.88656.0899Z"/><path d="M50.77186,95.44225l.84766-.70752c.001-.001.377-.314,1.04785-.89014.18848-.16211.35742-.31689.51074-.458a7.11708,7.11708,0,0,1,.65918-.562,5.47577,5.47577,0,0,1,2.125-.74756l.38965-.04931.26758,3.41308-3.30469-.10254Zm2.53906-.85352,2.4961.07666L55.66737,92.892a4.09213,4.09213,0,0,0-1.39844.54541,6.33431,6.33431,0,0,0-.583.50147c-.15917.14648-.334.30713-.53027.4751-.07812.06689-.15234.13037-.22168.18994Z"/><path class="cls-4" d="M40.24259,100.33186a5.157,5.157,0,1,1-5.15633-5.15633A5.15633,5.15633,0,0,1,40.24259,100.33186Z"/><path d="M35.08632,105.86314a5.53125,5.53125,0,1,1,5.53125-5.53125A5.53768,5.53768,0,0,1,35.08632,105.86314Zm0-10.3125a4.78125,4.78125,0,1,0,4.78125,4.78125A4.757,4.757,0,0,0,35.08632,95.55064Z"/><path class="cls-4" d="M36.237,110.4754c.93652-1.05444,3.46786-2.75825,4.74407-2.1581.30739.14455.7584.80636.66613,1.13327-.4035,1.42963-3.67292,3.35718-5.09851,3.77473a1.51333,1.51333,0,0,1-1.51343-.29606C34.58139,112.37054,35.759,111.01361,36.237,110.4754Z"/><path d="M36.00721,113.80064a1.7216,1.7216,0,0,1-1.36035-.55664c-.64648-.79589.252-2.01416,1.21582-3.10058h0c.88282-.99317,3.66992-3.05811,5.33106-2.27881a1.821,1.821,0,0,1,.93457,1.72266c-.4834,1.71191-4.01465,3.70068-5.43848,4.11816A2.4737,2.4737,0,0,1,36.00721,113.80064Zm.60352-2.99316c-1.23731,1.39356-1.18555,1.78662-1.17578,1.82666a1.116,1.116,0,0,0,.97363.11133c1.5166-.44434,4.44043-2.30762,4.75684-3.43067a1.32982,1.32982,0,0,0-.39942-.54589c-.8955-.419-3.19043.95166-4.15527,2.03857Z"/><path d="M57.51405,107.25279l-.94629-1.09131c-.99121.147-4.63574.624-6.02344-.06591a11.61,11.61,0,0,1-1.43457-1.17041l.50782-.55176a11.50347,11.50347,0,0,0,1.26171,1.05078c1.10547.55225,4.54493.16113,5.77735-.03467l.14258-.02295.03418-1.83447.75.01367Z"/><path d="M41.65946,82.40491s2.42853,1.82322,2.87137,2.08079c.45278.26336-.57585.64381-.40438,1.10547.78818,2.12209,3.61913,5.9602,3.56719,8.03006-.07429,2.96057-1.102,7.84551-2.50829,9.91791a55.63234,55.63234,0,0,1-4.15327,5.033l.66613,1.18423-.66613.88817s1.62831,1.77634,2.73853,2.88655,4.08772,3.87416,4.60582,5.94656.87971,3.91429.87971,3.91429-6.25665.50963-9.01355-3.6267a37.976,37.976,0,0,1-3.13327-6.23415l-2.02306-.296V110.5705a4.24135,4.24135,0,0,1-2.4178-.59211,11.93983,11.93983,0,0,0-2.44247-1.0362l.59211-6.51326Z"/><path d="M48.54921,123.7899c-1.78418,0-6.31446-.35937-8.61914-3.81689a37.29492,37.29492,0,0,1-3.08985-6.10205l-2.1289-.31153v-2.604a4.99279,4.99279,0,0,1-2.22559-.64941,11.69747,11.69747,0,0,0-2.35645-1.00147l-.30468-.08154.66308-6.97266L41.53651,81.8441l.34766.26123c.6709.50342,2.48828,1.854,2.835,2.05615a.55811.55811,0,0,1,.29785.41016.82783.82783,0,0,1-.33106.67236,1.07871,1.07871,0,0,0-.20507.25147,25.84632,25.84632,0,0,0,1.4082,2.74512c1.08887,1.95214,2.21484,3.97119,2.17969,5.39013-.07813,3.10742-1.1543,8.02686-2.57324,10.11866a52.621,52.621,0,0,1-4.00391,4.876l.6543,1.16016-.627.83447c.47657.51563,1.65918,1.78857,2.51758,2.646l.36621.3623c1.34278,1.32178,3.84375,3.7832,4.33789,5.7583.51465,2.05811.87989,3.91455.88379,3.93311l.08106.41211-.419.03369C49.23671,123.76988,48.96913,123.7899,48.54921,123.7899ZM35.46132,112.911l1.91992.28076.07812.20459a37.92277,37.92277,0,0,0,3.09571,6.16064c2.19531,3.29444,6.81543,3.51026,8.24609,3.47656-.1377-.66406-.42578-2.01367-.78906-3.46533-.44141-1.77051-2.93653-4.22558-4.13575-5.40576l-.37109-.36621c-1.10254-1.10352-2.7334-2.88037-2.75-2.89844l-.21094-.22949.707-.94141-.68066-1.209.18652-.20068a55.87632,55.87632,0,0,0,4.11719-4.98877c1.30762-1.92725,2.36914-6.71924,2.44434-9.71631.03027-1.21436-1.09278-3.229-2.084-5.00635a23.67406,23.67406,0,0,1-1.46-2.88428.9684.9684,0,0,1,.3711-.99853l.02246-.02393c-.53418-.35693-1.76563-1.27051-2.38575-1.7334L31.184,102.5399l-.55664,6.13233a13.02763,13.02763,0,0,1,2.22363.97851,3.96789,3.96789,0,0,0,2.18653.54834l.42187-.05322Z"/><path d="M40.77934,84.9214s9.16019,3.78295,11.38169.54129a11.54542,11.54542,0,0,0-9.95252-4.90041c-5.57019.01619-11.43372,2.14458-12.27858,3.23012A4.10876,4.10876,0,0,1,31.68,86.57975c.66168,13.75211-4.74137,15.61166-5.35277,19.50232,0,0,7.65482,5.26873,8.759,5.59865s8.76561-5.0645,10.09909-8.14158S40.77934,84.9214,40.77934,84.9214Z"/><path class="cls-4" d="M36.79763,110.78117c.93652-1.05443,3.46787-2.75824,4.74408-2.15809.30739.14455.7584.80636.66613,1.13327-.40351,1.42962-3.67293,3.35718-5.09852,3.77472a1.51331,1.51331,0,0,1-1.51343-.296C35.142,112.67632,36.31961,111.31939,36.79763,110.78117Z"/><path d="M36.56776,114.10631a1.71932,1.71932,0,0,1-1.35937-.55567c-.64747-.79687.251-2.01513,1.21484-3.10156h0c.88281-.99316,3.66992-3.0581,5.33105-2.27881a1.821,1.821,0,0,1,.93457,1.72266c-.48339,1.71191-4.01464,3.70068-5.43847,4.11816A2.4737,2.4737,0,0,1,36.56776,114.10631Zm.60352-2.99317c-1.23731,1.394-1.18555,1.78711-1.17578,1.82715a1.10891,1.10891,0,0,0,.97363.11084c1.5166-.44433,4.44043-2.30761,4.75683-3.43066a1.32966,1.32966,0,0,0-.39941-.5459c-.89453-.4209-3.19043.95166-4.15527,2.03857Z"/><path class="cls-4" d="M26.615,93.71591a47.90378,47.90378,0,0,0-2.39185,10.13,27.0985,27.0985,0,0,0-.028,4.46435s6.13271-5.16948,7.55041-9.87022a40.0709,40.0709,0,0,0,1.85644-10.67194,25.35923,25.35923,0,0,0-.7942-4.73717s-2.09713,2.77443-3.06007,4.17681A34.33791,34.33791,0,0,0,26.615,93.71591Z"/><path d="M23.89,109.05846l-.06739-.71241a27.22947,27.22947,0,0,1,.02735-4.5332,48.43018,48.43018,0,0,1,2.41113-10.22363h0a35.04261,35.04261,0,0,1,3.17676-6.59375c.957-1.39307,3.0498-4.1626,3.07129-4.19043l.46972-.62207.19239.75586a25.06125,25.06125,0,0,1,.80468,4.84961,40.14591,40.14591,0,0,1-1.87109,10.76025c-1.43359,4.75244-7.41406,9.83447-7.667,10.04834Zm3.07812-15.21631a47.6007,47.6007,0,0,0-2.37207,10.03711,27.8602,27.8602,0,0,0-.07422,3.6416c1.53809-1.40088,5.74707-5.48291,6.86426-9.189a39.50536,39.50536,0,0,0,1.8418-10.58447,19.36621,19.36621,0,0,0-.59864-3.854c-.67675.90332-1.90625,2.55615-2.57226,3.52685a34.07081,34.07081,0,0,0-3.08887,6.42188Z"/><path d="M26.35843,102.31458a6.07082,6.07082,0,0,0,3.64877-1.737c.80729-.76183,1.21748-1.56857,1.68859-1.08793.71966.73423-7.265,8.81951-7.265,8.81951l-.13646-4.329.702-5.47375S25.01841,102.38573,26.35843,102.31458Z"/><path class="cls-4" d="M28.87134,93.849a57.0766,57.0766,0,0,1-7.31648,7.87133,27.397,27.397,0,0,1-3.60313,2.67789S19.015,96.25,22.09035,91.52431c2.6925-4.13736,4.47886-5.15537,6.96027-7.19a20.13981,20.13981,0,0,1,4.31-1.92188,16.51766,16.51766,0,0,1-.582,4.27684A43.94723,43.94723,0,0,1,28.87134,93.849Z"/><path d="M17.47987,105.11705l.09961-.76709c.04394-.33642,1.11035-8.2876,4.19629-13.03027a22.58559,22.58559,0,0,1,5.87793-6.34815c.37207-.29443.75683-.59716,1.15918-.92724A20.01061,20.01061,0,0,1,33.24452,82.056l.49414-.16163-.00293.52a16.66165,16.66165,0,0,1-.60352,4.39942,43.83273,43.83273,0,0,1-3.95019,7.2456l-.31055-.21045.31055.21045a57.23766,57.23766,0,0,1-7.37891,7.94287,27.50692,27.50692,0,0,1-3.65918,2.71778Zm15.49121-22.1748a16.43437,16.43437,0,0,0-3.68262,1.68213c-.40625.333-.79394.63867-1.16992.93554a21.9584,21.9584,0,0,0-5.71387,6.16895c-2.42968,3.7334-3.59765,9.73584-3.95605,11.90429a28.08421,28.08421,0,0,0,2.8584-2.19433,57.22328,57.22328,0,0,0,7.2539-7.80029h0a43.77508,43.77508,0,0,0,3.86426-7.07374A14.34135,14.34135,0,0,0,32.97108,82.94225Z"/><path d="M21.53521,99.08647a6.06335,6.06335,0,0,1-.74695-3.97756c.14083-1.10457.8088-1.01028.14083-1.10457-1.0204-.144-3.11559,10.20318-3.11559,10.20318l3.59055-2.46473,4.0234-3.82218S22.26905,100.21014,21.53521,99.08647Z"/><circle class="cls-6" cx="110.5467" cy="101.14517" r="31.37802"/><path d="M110.54628,135.2733a34.12818,34.12818,0,1,1,34.1289-34.12793A34.16638,34.16638,0,0,1,110.54628,135.2733Zm0-62.75635a28.62818,28.62818,0,1,0,28.6289,28.62842A28.66089,28.66089,0,0,0,110.54628,72.517Z"/><path class="cls-2" d="M133.06777,104.76013s.039,7.85246-.95372,9.31048c-1.0552,1.54978-8.17309.84855-8.17309.84855l-.50963,9.65574a58.03748,58.03748,0,0,0-6.69443-3.20876c-3.85491-1.28387-14.68024-.34467-14.68024-.34467a55.563,55.563,0,0,0,3.14248-5.99515c.50775-1.39061.43562-5.92115.43562-5.92115l-1.39161-6.38794s9.79017-8.31989,12.76919-10.8024A25.28751,25.28751,0,0,1,127.14,87.11771s4.168,4.98956,5.44477,8.328c1.041,2.72187,3.37962,8.04288,1.998,8.83237s-4.77114,1.10817-4.96851-.27343-.40122-1.58545-.40122-1.58545"/><path d="M123.77382,125.19371l-.52442-.29053a58.00727,58.00727,0,0,0-6.63086-3.18115c-3.73926-1.24463-14.4209-.33691-14.52929-.32715l-.72852.06348.374-.62891a55.50816,55.50816,0,0,0,3.11231-5.93164c.47754-1.31006.41406-5.74218.41308-5.78662l-1.43066-6.53418.1709-.14551c.09863-.08349,9.82617-8.34961,12.77148-10.80468a25.40534,25.40534,0,0,1,10.29688-4.87744l.21777-.042.1416.16992c.17188.20557,4.22266,5.07618,5.50684,8.43458.12793.334.27539.708.43262,1.10742,1.63964,4.15381,2.78418,7.394,1.40136,8.18457a5.32474,5.32474,0,0,1-1.32617.501c-.00293,1.67041-.0791,7.79688-1.01953,9.17676-1.03223,1.5166-6.32422,1.19971-8.12891,1.04688Zm-14.01075-4.88183a26.13827,26.13827,0,0,1,7.0918.69824,51.36348,51.36348,0,0,1,6.2334,2.95019l.499-9.45263.39063.03857c2.666.26123,7.14843.30762,7.82617-.68652.64551-.94776.87988-5.48877.88867-8.60743a4.93928,4.93928,0,0,1-2.67676-.21875,1.27293,1.27293,0,0,1-.77246-.97558,4.46951,4.46951,0,0,0-.32812-1.41211l.5625-.49219a4.41686,4.41686,0,0,1,.50781,1.79785c.00879.062.03613.25.35937.40821a5.67829,5.67829,0,0,0,4.05079-.40723c.92968-.53076-.93067-5.24463-1.72559-7.25781-.15918-.40235-.30762-.77832-.43652-1.11524-1.10645-2.8955-4.498-7.13965-5.23828-8.04687a25.0522,25.0522,0,0,0-9.74317,4.67041c-2.72656,2.27246-11.27344,9.53174-12.59473,10.6543l1.34375,6.16845c.01172.26172.0752,4.68994-.44921,6.12891a46.81332,46.81332,0,0,1-2.80762,5.436C104.04042,120.494,106.86952,120.31188,109.76307,120.31188Z"/><path class="cls-4" d="M131.91955,95.046a5.1399,5.1399,0,0,0-1.95649.682c-.3117.22-.66114.58613-1.14163.99829a7.58211,7.58211,0,0,1-1.05191.79145l1.46733-.05943,2.83559.19182Z"/><path d="M132.47206,98.05309l-3.26074-.22071-2.96.12256,1.333-.76318a7.49574,7.49574,0,0,0,.99317-.75c.18945-.1626.35839-.31787.51172-.459a7.17049,7.17049,0,0,1,.65722-.561,5.47823,5.47823,0,0,1,2.126-.74756l.39746-.05029Zm-3.251-.96924,2.45215.16406-.10352-1.75732a4.08967,4.08967,0,0,0-1.39062.54345,6.5184,6.5184,0,0,0-.582.50049c-.15918.147-.335.30811-.53125.47656-.03321.02832-.06543.05616-.09766.083Z"/><path d="M131.13124,108.76256a13.54809,13.54809,0,0,1-4.67676-.57959,3.688,3.688,0,0,1-1-1.26514l.65625-.3623a3.8816,3.8816,0,0,0,.68066.95752c1.1211.55761,4.57911.52685,5.81641.46924l.3584-.00049v.75h-.34082C132.56385,108.73473,131.95741,108.76256,131.13124,108.76256Z"/><path class="cls-7" d="M95.44124,115.2063s-5.46879,1.48635-5.46879,0-.0245-1.82481.50963-2.35894a4.75255,4.75255,0,0,1,1.46408-.66252V110.266s-2.17109-.6908-1.97371-2.46714,2.19947-1.67865,2.72805-3.01041-2.62937-1.26236-2.33331-4.10961,2.40443-2.15644,2.63316-3.8341-3.24476-1.67766-2.24816-4.24348,5.11917-6.44916,5.11917-6.44916,1.864-6.24138,15.12115-7.56422c17.80193-1.77634,17.80193,7.82759,17.80193,7.82759L121.34017,91.606Z"/><path d="M91.43592,116.23863a2.57028,2.57028,0,0,1-1.48828-.33008.85731.85731,0,0,1-.35058-.70214v-.186c-.001-1.35937-.001-1.81689.61914-2.438a3.93063,3.93063,0,0,1,1.35449-.67529v-1.37988a2.841,2.841,0,0,1-1.97168-2.77,2.70758,2.70758,0,0,1,1.63867-2.0835,2.33047,2.33047,0,0,0,1.11426-1.02344c.09766-.24707-.00586-.37939-.65137-.83154a3.19083,3.19083,0,0,1-1.70605-3.1792,3.23786,3.23786,0,0,1,1.75683-2.78857c.4834-.30469.80274-.50635.87793-1.05713.06348-.46924-.31933-.76563-.94824-1.20947-.82422-.582-1.9541-1.3794-1.27832-3.11866.95606-2.46191,4.5791-5.98291,5.14356-6.52148.30957-.856,2.81347-6.47266,15.40918-7.72949,7.27734-.72608,12.53613.32031,15.62011,3.11133a7.38571,7.38571,0,0,1,2.59375,5.08935v.17188l-.12988.11181-8.27823,5.07247L95.62147,115.54576l-.082.02246A18.48526,18.48526,0,0,1,91.43592,116.23863Zm23.64942-37.49072q-1.91163,0-4.05567.21289c-12.79882,1.27734-14.78125,7.24024-14.7998,7.30029l-.02832.09473-.07324.06934c-.04.03808-4.07227,3.855-5.02637,6.312-.44141,1.13525.09668,1.58887,1.01172,2.23437.65039.459,1.38672.979,1.25781,1.92383a2.13856,2.13856,0,0,1-1.2207,1.58984,2.51456,2.51456,0,0,0-1.41016,2.23194,2.43447,2.43447,0,0,0,1.38965,2.4873c.58789.41114,1.25391.87744.91895,1.72217a3.00216,3.00216,0,0,1-1.42676,1.39014c-.63672.38183-1.1875.71142-1.27735,1.52344-.1621,1.4541,1.69532,2.0625,1.71387,2.06835l.26172.083v2.477l-.27344.07715a4.218,4.218,0,0,0-1.30078.5669c-.38769.38818-.40039.55029-.39941,1.90673v.187a.11392.11392,0,0,0,.05664.10595c.56933.437,3.1543.00782,4.85644-.4458l33.14844-28.61377a6.92772,6.92772,0,0,0-2.35449-4.38672C123.76405,79.80553,120.01405,78.74791,115.08534,78.74791Z"/><path class="cls-4" d="M107.04184,114.86871a49.03753,49.03753,0,0,1-2.08882,9.61447,25.28133,25.28133,0,0,1-1.67215,3.84355s-2.81651-7.3209-2.256-11.8974a32.9126,32.9126,0,0,1,2.44155-9.33512A23.687,23.687,0,0,1,105.953,103.33s.7588,3.18176,1.05841,4.753A32.67717,32.67717,0,0,1,107.04184,114.86871Z"/><path d="M103.21717,129.20543l-.28613-.74414c-.11719-.30274-2.84375-7.46143-2.27832-12.07715a32.13011,32.13011,0,0,1,2.27637-8.93262l.18652-.49023a23.41287,23.41287,0,0,1,2.543-3.86328l.47949-.6084.18067.75342c.00683.03174.76367,3.208,1.06054,4.77a30.71966,30.71966,0,0,1,.03614,6.88183h0a49.55935,49.55935,0,0,1-2.10645,9.7085,25.57689,25.57689,0,0,1-1.70117,3.90674Zm2.55274-25.01855a17.80164,17.80164,0,0,0-1.95313,3.04l-.18652.4917a31.52956,31.52956,0,0,0-2.2334,8.75635c-.43554,3.55713,1.249,8.90479,1.94531,10.915a26.01,26.01,0,0,0,1.25586-3.02734,48.64119,48.64119,0,0,0,2.06934-9.52051h0a30.14457,30.14457,0,0,0-.02441-6.689C106.43885,107.08043,106.01307,105.22887,105.76991,104.18688Z"/><path d="M103.70608,121.28357c-.82121-.41525-1.35925-.3139-1.99908-1.82079-.40844-.96194-.45651-1.811-1.04642-1.578-.90115.35592,2.41709,10.35118,2.41709,10.35118l2.01913-3.669,1.37519-6.81533S104.83751,121.85568,103.70608,121.28357Z"/><path class="cls-4" d="M102.88733,113.36985a52.07874,52.07874,0,0,1-6.56547,7.03793,24.99993,24.99993,0,0,1-3.2232,2.40372s1.013-7.23079,3.78458-11.44506c2.42655-3.68961,4.022-4.6069,6.24332-6.43107a18.28717,18.28717,0,0,1,3.84475-1.7396,14.712,14.712,0,0,1-.553,3.79549A39.86383,39.86383,0,0,1,102.88733,113.36985Z"/><path d="M92.61854,123.53844l.10938-.7793c.042-.29834,1.05566-7.3623,3.84179-11.59863a20.636,20.636,0,0,1,5.28028-5.68213c.334-.26416.67773-.53662,1.03808-.83252a18.20112,18.20112,0,0,1,3.96387-1.80566l.502-.16846-.00781.5293a14.87664,14.87664,0,0,1-.57519,3.91748,40.526,40.526,0,0,1-3.57422,6.46337h0a52.26628,52.26628,0,0,1-6.627,7.10743,25.10861,25.10861,0,0,1-3.27734,2.44336ZM106.5746,103.7318a14.65068,14.65068,0,0,0-3.21,1.49365c-.36426.29932-.71192.57422-1.04981.84082a20.01231,20.01231,0,0,0-5.11816,5.50635c-2.14649,3.26318-3.23242,8.45312-3.58985,10.46045a25.53918,25.53918,0,0,0,2.4668-1.90674,52.18722,52.18722,0,0,0,6.50391-6.96826h0a39.53906,39.53906,0,0,0,3.48828-6.29444A12.4825,12.4825,0,0,0,106.5746,103.7318Z"/><path d="M96.32654,118.07351a5.30781,5.30781,0,0,1-.63009-3.51907c.13439-.98017.727-.90222.13439-.98017-.90522-.11909-2.85337,9.06935-2.85337,9.06935l3.21024-2.21469,3.60616-3.42145S96.969,119.06326,96.32654,118.07351Z"/><path d="M108.0323,112.141a11.24372,11.24372,0,0,0,2.48372,0c2.25283-.09868,10.24638-4.34217,11.52929-10.06594a32.748,32.748,0,0,0,0-11.96954l-16.84139,13.42374Z"/><path class="cls-6" d="M104.61257,104.44588c.88119-1.00039,8.95849-12.0162,16.97543-16.27941a13.98487,13.98487,0,0,1,5.12674-1.9464,3.51028,3.51028,0,0,1,2.0797.19535c1.86449.85147,1.6401,1.60492,1.6401,1.60492s-5.1326.53475-8.22656,2.52121a111.91354,111.91354,0,0,0-8.65053,7.136l-7.0329,8.84129Z"/><path d="M106.55311,107.287l-2.61328-2.83349.29785-.33838c.10449-.11865.3125-.38184.61133-.76026,2.31836-2.92773,9.37109-11.83691,16.50488-15.62988a14.49865,14.49865,0,0,1,5.28516-1.999,3.97528,3.97528,0,0,1,2.36328.23437c2.15039.98242,1.96973,2.00684,1.91211,2.20215l-.0957.32031-.332.03467c-.04981.00537-5.05274.54688-8.00782,2.44483-2.48632,1.5957-8.52636,7.03222-8.58691,7.08691Zm-1.27832-2.86035,1.22168,1.32422,6.66895-8.38428a108.29415,108.29415,0,0,1,8.77246-7.24609,21.64612,21.64612,0,0,1,7.80469-2.51563,3.84418,3.84418,0,0,0-1.15625-.73486,3.0051,3.0051,0,0,0-1.79493-.15576,13.54737,13.54737,0,0,0-4.96875,1.89355c-6.94824,3.69532-13.90332,12.481-16.18945,15.36768C105.4955,104.15025,105.37538,104.30113,105.27479,104.42662Z"/><path class="cls-4" d="M115.67235,100.67879a5.157,5.157,0,1,1-5.15633-5.15633A5.15633,5.15633,0,0,1,115.67235,100.67879Z"/><path d="M110.516,106.21031a5.5315,5.5315,0,1,1,5.53125-5.53174A5.53779,5.53779,0,0,1,110.516,106.21031Zm0-10.313a4.7815,4.7815,0,1,0,4.78125,4.78125A4.757,4.757,0,0,0,110.516,95.89732Z"/><path class="cls-8" d="M96.1241,77.69966s-.70774,6.29968,1.46335,8.86551,7.15056,4.75312,7.15056,4.75312l.06573-3.306,2.93214-2.23663a27.29685,27.29685,0,0,1-7.00462-3.05926A26.98354,26.98354,0,0,1,96.1241,77.69966Z"/><path d="M105.22206,92.0775l-.68555-.30127c-.208-.09131-5.11035-2.26416-7.33105-4.88818-2.28418-2.69922-1.60743-8.97852-1.57813-9.24414l.14649-1.30078L96.53163,77.41a26.708,26.708,0,0,0,4.49316,4.90234,26.982,26.982,0,0,0,6.84571,2.98194l.96679.27-3.53808,2.69922ZM96.53358,79.07457c-.07324,1.93164.00879,5.48145,1.43555,7.168,1.60058,1.8916,4.86426,3.606,6.28418,4.29639l.05566-2.77735,2.34766-1.7915A24.53454,24.53454,0,0,1,100.4369,83.121,22.826,22.826,0,0,1,96.53358,79.07457Z"/><path class="cls-8" d="M115.67235,78.58692a4.35383,4.35383,0,0,0,1.53736-2.76229V73.0607a24.179,24.179,0,0,1,2.33605,2.76311A12.48882,12.48882,0,0,1,120.565,79.476Z"/><path d="M121.14589,80.08971l-6.61036-1.20117.81543-.68506a3.88042,3.88042,0,0,0,1.3584-2.37891V71.82213l.86035.8916a24.128,24.128,0,0,1,2.40821,2.85889,12.795,12.795,0,0,1,1.083,3.84082ZM116.681,78.26207l3.28028.59619a9.78249,9.78249,0,0,0-.84864-2.78369,14.01654,14.01654,0,0,0-1.40332-1.74121v1.49121A4.016,4.016,0,0,1,116.681,78.26207Z"/><path class="cls-9" d="M115.263,120.70244a2.69894,2.69894,0,0,0-3.30187.0617c-1.20037,1.15152-1.19157,5.17645-1.03128,5.7913.09956.38192,2.57,1.19416,3.38545.29579A7.17019,7.17019,0,0,0,115.263,120.70244Z"/><path d="M113.11171,127.63414a4.7969,4.7969,0,0,1-1.1045-.14258c-.39257-.09619-1.31738-.37109-1.44043-.84131-.15918-.61279-.23925-4.83837,1.13477-6.15673a3.05354,3.05354,0,0,1,2.88477-.56446c.34668.09668.9414.313,1.03906.67627h0a7.489,7.489,0,0,1-1.03321,6.49805A1.94773,1.94773,0,0,1,113.11171,127.63414Zm.46972-7.09863a1.91606,1.91606,0,0,0-1.36035.499c-1.05078,1.00781-1.07519,4.86279-.92773,5.42627a4.59978,4.59978,0,0,0,1.8125.42285,1.34849,1.34849,0,0,0,.93164-.28418,6.79649,6.79649,0,0,0,.88281-5.727A2.68758,2.68758,0,0,0,113.58143,120.53551Z"/><path class="cls-9" d="M115.31836,113.3566a2.699,2.699,0,0,0-3.22646.70434c-.95281,1.36347-.15937,5.30943.11772,5.88122.17212.35518,2.75347.67014,3.37815-.37A7.17022,7.17022,0,0,0,115.31836,113.3566Z"/><path d="M113.68007,120.65514c-.084,0-.16016-.002-.22559-.0044-.4043-.01806-1.36914-.10644-1.582-.54443-.27637-.57129-1.17676-4.70215-.08789-6.26026a3.06038,3.06038,0,0,1,2.71777-1.11621c.3584.02735.98633.12354,1.15234.46094h0a7.48954,7.48954,0,0,1,.25391,6.57471A2.59461,2.59461,0,0,1,113.68007,120.65514Zm.53222-7.18946a2.15082,2.15082,0,0,0-1.8125.81006c-.833,1.19141-.10644,4.97852.14746,5.50342a4.59867,4.59867,0,0,0,1.86914.05908,1.29147,1.29147,0,0,0,.84961-.459,6.79518,6.79518,0,0,0-.25-5.78858A2.20689,2.20689,0,0,0,114.21229,113.46568Z"/><path class="cls-9" d="M113.91322,106.1925a2.69894,2.69894,0,0,0-3.117,1.09112c-.78009,1.46913.48689,5.28946.83139,5.82334.214.33164,2.8145.33065,3.30818-.77768A7.17019,7.17019,0,0,0,113.91322,106.1925Z"/><path d="M112.53651,113.67564c-.45117,0-1.0293-.06347-1.22461-.36572-.34277-.53271-1.73926-4.52246-.84668-6.20215a3.05481,3.05481,0,0,1,2.5586-1.438c.36523-.01319.99609.00244,1.20312.31689v.00049a7.4945,7.4945,0,0,1,1.05176,6.49463c-.416.93359-1.77344,1.13476-2.33789,1.17773C112.83632,113.66783,112.69374,113.67564,112.53651,113.67564Zm.66113-7.26367a2.3136,2.3136,0,0,0-2.07031,1.04737c-.68164,1.28418.5,4.95459.81543,5.44433a4.585,4.585,0,0,0,1.86035-.16748,1.29187,1.29187,0,0,0,.79-.55957,6.79666,6.79666,0,0,0-.95215-5.71484A1.59,1.59,0,0,0,113.19764,106.412Z"/><path class="cls-9" d="M112.41262,100.67879a1.94783,1.94783,0,1,1-1.94756-1.94757A1.94756,1.94756,0,0,1,112.41262,100.67879Z"/><path d="M12.56727,154.921a4.98881,4.98881,0,0,1-3.748,1.335,4.98733,4.98733,0,0,1-3.748-1.335,6.16931,6.16931,0,0,1-1.73828-4.71827,6.04867,6.04867,0,0,1,1.73828-4.71826,4.98729,4.98729,0,0,1,3.748-1.335,4.98878,4.98878,0,0,1,3.748,1.335,6.06605,6.06605,0,0,1,1.73047,4.71826A6.18726,6.18726,0,0,1,12.56727,154.921Zm-1.49414-1.73829a5.72829,5.72829,0,0,0,0-5.956,2.72478,2.72478,0,0,0-2.2539-1.05127,2.76428,2.76428,0,0,0-2.26661,1.04736,5.6731,5.6731,0,0,0,0,5.96,2.76466,2.76466,0,0,0,2.26661,1.04786A2.73,2.73,0,0,0,11.07313,153.18272Z"/><path d="M23.05653,148.38683a4.50638,4.50638,0,0,1,1.03516,3.21289A5.07615,5.07615,0,0,1,23.08,155.00645a3.28425,3.28425,0,0,1-2.60449,1.17188,2.73353,2.73353,0,0,1-1.6875-.50439,3.259,3.259,0,0,1-.71875-.81495v4.40772H15.88075v-11.7876h2.11914v1.249a3.564,3.564,0,0,1,.76465-.86914,2.827,2.827,0,0,1,1.76562-.5664A3.34442,3.34442,0,0,1,23.05653,148.38683Zm-1.69727,1.59082a1.57468,1.57468,0,0,0-1.46191-.75293,1.66237,1.66237,0,0,0-1.66992,1.14111,4.27538,4.27538,0,0,0-.23535,1.53662,2.439,2.439,0,0,0,.791,2.07178,1.81455,1.81455,0,0,0,1.11328.34912,1.62,1.62,0,0,0,1.42383-.71387,3.74429,3.74429,0,0,0,.03906-3.63183Z"/><path d="M31.163,147.65a3.44788,3.44788,0,0,1,1.46191,1.25146,4.1518,4.1518,0,0,1,.67383,1.749,10.81841,10.81841,0,0,1,.07324,1.67871H27.21083a2.0279,2.0279,0,0,0,.88476,1.78467,2.24471,2.24471,0,0,0,1.21973.31836,1.71764,1.71764,0,0,0,1.68262-.97022h2.25781a2.75229,2.75229,0,0,1-.81934,1.52881,4.11016,4.11016,0,0,1-3.18261,1.23389,4.60979,4.60979,0,0,1-2.9795-1.04053,4.10132,4.10132,0,0,1-1.291-3.38672,4.5775,4.5775,0,0,1,1.166-3.3706,4.07754,4.07754,0,0,1,3.02442-1.17286A4.81546,4.81546,0,0,1,31.163,147.65Zm-3.3086,1.91064a2.298,2.298,0,0,0-.58887,1.30957h3.81055a1.84952,1.84952,0,0,0-.58984-1.33691,1.93934,1.93934,0,0,0-1.31153-.45557A1.75612,1.75612,0,0,0,27.85438,149.56065Z"/><path d="M41.31141,147.964a2.79935,2.79935,0,0,1,.83008,2.27735v5.69629H39.87587v-5.145a2.36121,2.36121,0,0,0-.17774-1.02442,1.24389,1.24389,0,0,0-1.23242-.65185,1.52874,1.52874,0,0,0-1.5332.95459,3.3058,3.3058,0,0,0-.21485,1.28808v4.57862H34.50575v-8.44336h2.1416v1.23388a3.73652,3.73652,0,0,1,.80371-.939,2.7847,2.7847,0,0,1,1.72363-.51221A3.24437,3.24437,0,0,1,41.31141,147.964Z"/><path d="M55.495,144.74718a3.77943,3.77943,0,0,1,1.94922,1.45117,5.08868,5.08868,0,0,1,.81543,1.84717,8.82705,8.82705,0,0,1,.21777,1.89355,7.59254,7.59254,0,0,1-.917,3.86426,4.13413,4.13413,0,0,1-3.83594,2.13428H48.79286V144.49913H53.7245A6.01916,6.01916,0,0,1,55.495,144.74718Zm-4.38184,1.73828v7.46533h2.207a2.384,2.384,0,0,0,2.36328-1.66846,5.88194,5.88194,0,0,0,.36524-2.18066,5.36245,5.36245,0,0,0-.54785-2.68115,2.3174,2.3174,0,0,0-2.18067-.93506Z"/><path d="M62.36512,146.46983H60.12294v-2.04052h2.24218Zm-2.24218,1.00928h2.24218v8.4585H60.12294Z"/><path d="M66.22157,153.23692a1.4781,1.4781,0,0,0,.30371.83838,2.06386,2.06386,0,0,0,1.52832.44239,2.3345,2.3345,0,0,0,1.041-.19434.621.621,0,0,0,.38672-.582.62855.62855,0,0,0-.31153-.56641,12.70178,12.70178,0,0,0-2.31347-.66748,4.80162,4.80162,0,0,1-2.03125-.89209,1.934,1.934,0,0,1-.58985-1.521,2.63638,2.63638,0,0,1,.9209-2.01416,3.71031,3.71031,0,0,1,2.59375-.8418,4.76866,4.76866,0,0,1,2.58594.63232,2.7093,2.7093,0,0,1,1.14746,2.18457H69.27137a1.30718,1.30718,0,0,0-.24121-.67529,1.52165,1.52165,0,0,0-1.24511-.44971,1.79553,1.79553,0,0,0-1.03125.22461.6469.6469,0,0,0-.30664.52783.5774.5774,0,0,0,.32617.55127,14.18466,14.18466,0,0,0,2.30957.6128,4.24246,4.24246,0,0,1,1.98144.939,2.13172,2.13172,0,0,1,.65137,1.59082,2.56981,2.56981,0,0,1-.93652,2.05274,4.41036,4.41036,0,0,1-2.89649.79541,4.367,4.367,0,0,1-2.95117-.8418,2.73822,2.73822,0,0,1-.95215-2.146Z"/><path d="M80.45887,148.38683a4.50638,4.50638,0,0,1,1.03516,3.21289,5.07615,5.07615,0,0,1-1.01172,3.40673,3.28423,3.28423,0,0,1-2.60449,1.17188,2.73355,2.73355,0,0,1-1.6875-.50439,3.259,3.259,0,0,1-.71875-.81495v4.40772H73.28309v-11.7876h2.11914v1.249a3.564,3.564,0,0,1,.76465-.86914,2.827,2.827,0,0,1,1.76563-.5664A3.3444,3.3444,0,0,1,80.45887,148.38683Zm-1.69726,1.59082a1.5747,1.5747,0,0,0-1.46192-.75293,1.66239,1.66239,0,0,0-1.66992,1.14111,4.2756,4.2756,0,0,0-.23535,1.53662,2.439,2.439,0,0,0,.791,2.07178,1.81453,1.81453,0,0,0,1.11328.34912,1.62,1.62,0,0,0,1.42383-.71387,3.74436,3.74436,0,0,0,.03906-3.63183Z"/><path d="M85.31141,155.93761H83.10048V144.49913h2.21093Z"/><path d="M90.8202,150.79259a3.51776,3.51776,0,0,0,.88281-.19385.66509.66509,0,0,0,.47657-.62891.74257.74257,0,0,0-.36524-.71777,2.31424,2.31424,0,0,0-1.07422-.19775,1.41082,1.41082,0,0,0-1.125.38818,1.6031,1.6031,0,0,0-.31445.77588H87.16688a3.2436,3.2436,0,0,1,.623-1.82373,3.637,3.637,0,0,1,3.02441-1.11768,5.39632,5.39632,0,0,1,2.47852.55127,2.112,2.112,0,0,1,1.083,2.07959v3.88037c0,.26905.00586.59473.01562.97754a1.23231,1.23231,0,0,0,.13184.58985.7912.7912,0,0,0,.32617.25586v.32617H92.44423a2.4259,2.4259,0,0,1-.13965-.481c-.02637-.15039-.04688-.3208-.0625-.51221a4.56731,4.56731,0,0,1-1.06153.84571,3.20687,3.20687,0,0,1-1.624.41113,2.79989,2.79989,0,0,1-1.9082-.65576,2.33213,2.33213,0,0,1-.75293-1.8584,2.40718,2.40718,0,0,1,1.21191-2.2583,5.39925,5.39925,0,0,1,1.9541-.543Zm1.35156,1.03222a2.46752,2.46752,0,0,1-.42871.21338,3.64107,3.64107,0,0,1-.59375.15137l-.50293.09277a3.31241,3.31241,0,0,0-1.0166.30274,1.00978,1.00978,0,0,0-.52246.939.98017.98017,0,0,0,.31836.81885,1.21469,1.21469,0,0,0,.77637.25195,2.31282,2.31282,0,0,0,1.33594-.41894,1.7736,1.7736,0,0,0,.63378-1.52881Z"/><path d="M96.64247,157.55968l.27929.01513a3.44152,3.44152,0,0,0,.62012-.02294,1.11288,1.11288,0,0,0,.49707-.17872,1.19644,1.19644,0,0,0,.36035-.55078,1.35364,1.35364,0,0,0,.14454-.5122l-3.1084-8.83106h2.46l1.84668,6.23926,1.74609-6.23926h2.35156l-2.90039,8.31885a11.69316,11.69316,0,0,1-1.3291,2.98389,2.52942,2.52942,0,0,1-1.958.57812c-.19726,0-.35547-.00146-.47363-.00391-.12012-.00293-.29883-.01171-.53613-.02734Z"/><path d="M110.83485,145.694a5.333,5.333,0,0,1,7.69238.48145,4.12722,4.12722,0,0,1,.78321,2.13379h-2.39063a3.245,3.245,0,0,0-.585-1.2417,2.3567,2.3567,0,0,0-1.89355-.74512,2.33291,2.33291,0,0,0-2.01465,1.05176,5.13833,5.13833,0,0,0-.73731,2.97607,4.50769,4.50769,0,0,0,.77832,2.88282,2.43755,2.43755,0,0,0,1.97754.95849,2.24033,2.24033,0,0,0,1.875-.82275,3.60617,3.60617,0,0,0,.5918-1.32666h2.375a5.15612,5.15612,0,0,1-1.57031,3.042,4.56756,4.56756,0,0,1-3.23535,1.17188,4.85516,4.85516,0,0,1-3.83887-1.5835,7.50185,7.50185,0,0,1,.19238-8.97852Z"/><path d="M124.39149,150.79259a3.51787,3.51787,0,0,0,.88281-.19385.66509.66509,0,0,0,.47657-.62891.74257.74257,0,0,0-.36524-.71777,2.31424,2.31424,0,0,0-1.07422-.19775,1.41082,1.41082,0,0,0-1.125.38818,1.603,1.603,0,0,0-.31445.77588h-2.13379a3.2436,3.2436,0,0,1,.62305-1.82373,3.637,3.637,0,0,1,3.02441-1.11768,5.39632,5.39632,0,0,1,2.47852.55127,2.112,2.112,0,0,1,1.083,2.07959v3.88037c0,.26905.00585.59473.01562.97754a1.23231,1.23231,0,0,0,.13184.58985.7912.7912,0,0,0,.32617.25586v.32617h-2.40528a2.42651,2.42651,0,0,1-.13964-.481c-.02637-.15039-.04688-.3208-.0625-.51221a4.56731,4.56731,0,0,1-1.06153.84571,3.20687,3.20687,0,0,1-1.624.41113,2.79989,2.79989,0,0,1-1.9082-.65576,2.33213,2.33213,0,0,1-.75293-1.8584,2.40718,2.40718,0,0,1,1.21191-2.2583,5.39925,5.39925,0,0,1,1.9541-.543Zm1.35156,1.03222a2.46787,2.46787,0,0,1-.42871.21338,3.64107,3.64107,0,0,1-.59375.15137l-.50293.09277a3.31241,3.31241,0,0,0-1.0166.30274,1.00978,1.00978,0,0,0-.52246.939.98017.98017,0,0,0,.31836.81885,1.21469,1.21469,0,0,0,.77637.25195,2.31276,2.31276,0,0,0,1.33593-.41894,1.77358,1.77358,0,0,0,.63379-1.52881Z"/><path d="M132.13759,155.93761h-2.21094V144.49913h2.21094Z"/><path d="M136.56825,146.46983h-2.24219v-2.04052h2.24219Zm-2.24219,1.00928h2.24219v8.4585h-2.24219Z"/><path d="M145.93348,148.49571a4.85991,4.85991,0,0,1,.94922,3.104,5.43877,5.43877,0,0,1-.93652,3.26709,3.39824,3.39824,0,0,1-4.30567.877,3.38264,3.38264,0,0,1-.82714-.86914v1.063H138.6327V144.51427h2.21192v4.0664a3.23642,3.23642,0,0,1,.92968-.8999,2.7714,2.7714,0,0,1,1.53028-.38818A3.16131,3.16131,0,0,1,145.93348,148.49571Zm-1.84863,5.15283a3.13312,3.13312,0,0,0,.47754-1.81591,4.06835,4.06835,0,0,0-.23535-1.49024,1.63379,1.63379,0,0,0-1.64258-1.11767,1.65982,1.65982,0,0,0-1.667,1.09423,4.08419,4.08419,0,0,0-.23438,1.50586,3.1356,3.1356,0,0,0,.48438,1.8003,1.66681,1.66681,0,0,0,1.47949.71386A1.53479,1.53479,0,0,0,144.08485,153.64854Z"/></svg>