<svg xmlns="http://www.w3.org/2000/svg" viewBox="0 0 887.7 531.2"><title>Conductor-logo-black</title><g id="Layer_2" data-name="Layer 2"><g id="Layer_1-2" data-name="Layer 1"><path d="M273.9,483.1l-.5-106.4h.7a41,41,0,0,0,5-.2l5,106.4c-3.1.2-6.5.2-9.6.2Z"/><path d="M265.3,483.1c-3.4-.2-6.9-.2-10.3-.7l8.9-106.2a48.75,48.75,0,0,0,5.5.2Z"/><path d="M298.1,531.2,289,425.1c1.9-.2,3.6-.2,5.5-.5L308.6,530C305.1,530.5,301.5,531,298.1,531.2Z"/><path d="M246.4,481.4c-3.4-.5-6.9-1-10.3-1.4l17.7-105c1.7.2,3.6.5,5.3.7Z"/><path d="M311.3,480l-18-105c1.7-.2,3.6-.7,5.3-1l23,104C318.2,478.5,314.6,479.2,311.3,480Z"/><path d="M219,514.5c-3.4-.7-6.7-1.4-10.1-2.4l26.6-103a33.69,33.69,0,0,0,5.3,1.2Z"/><path d="M329.7,475.9l-26.8-103c1.7-.5,3.4-1,5.3-1.4l31.6,101.6C336.5,474,333.1,474.9,329.7,475.9Z"/><path d="M193.4,522.9c-3.4-1-6.7-2.2-10.1-3.4l35.5-100.4c1.7.5,3.4,1.2,5.3,1.7Z"/><path d="M348,470.4,312.3,370c1.7-.7,3.4-1.2,5-1.9l40.3,98.5C354.4,468,351.1,469.2,348,470.4Z"/><path d="M191.5,467.5c-3.1-1.2-6.5-2.6-9.6-4.1l43.9-97c1.7.7,3.4,1.4,5,2.2Z"/><path d="M365.4,463.2l-44.1-96.8a23.92,23.92,0,0,0,4.8-2.4l48.4,94.7A96.37,96.37,0,0,1,365.4,463.2Z"/><path d="M174.2,459.8a98.44,98.44,0,0,1-9.1-4.8l51.8-93c1.7,1,3.1,1.7,4.8,2.6Z"/><path d="M382.2,454.8,330,362.1c1.7-1,3.1-1.9,4.8-2.9l56.3,90.3C388.2,451.2,385.3,453.1,382.2,454.8Z"/><path d="M157.7,450.7c-2.9-1.7-6-3.6-8.9-5.5l59.7-88.4c1.4,1,3.1,1.9,4.6,2.9Z"/><path d="M412.4,464.4l-59.7-88.2a41,41,0,0,1,4.6-3.1L421,458.4C418.2,460.6,415.3,462.5,412.4,464.4Z"/><path d="M141.9,440.2a101.72,101.72,0,0,1-8.1-6.2l66.9-82.9c1.4,1.2,2.9,2.2,4.3,3.4Z"/><path d="M413.6,433.5l-67.1-82.7c1.4-1.2,2.9-2.4,4.1-3.6l70.7,79.6C418.9,429.2,416.2,431.3,413.6,433.5Z"/><path d="M127,428.4c-2.6-2.2-5.3-4.6-7.7-6.9l73.6-76.9a50.12,50.12,0,0,0,4.1,3.6Z"/><path d="M427.7,421l-73.8-76.7,3.8-3.8,77.2,73.3Z"/><path d="M113.4,415.5a84.19,84.19,0,0,1-6.9-7.7l79.8-70.4c1.2,1.4,2.4,2.6,3.6,4.1Z"/><path d="M50.6,440.4c-2.2-2.6-4.3-5.5-6.5-8.1l85.5-63.5c1,1.4,2.2,2.9,3.4,4.3Z"/><path d="M89.6,386.3c-1.9-2.9-3.8-5.8-5.8-8.6l90.6-56.1c1,1.4,1.9,3.1,2.9,4.6Z"/><path d="M79.6,370.2c-1.7-2.9-3.4-6-5-9.1l94.9-48.2c.7,1.7,1.7,3.1,2.6,4.8Z"/><path d="M71,353.4c-1.4-3.1-2.9-6.5-4.1-9.6l98.7-40c.7,1.7,1.4,3.4,2.2,5Z"/><path d="M63.8,336c-1.2-3.4-2.4-6.7-3.4-9.8l101.8-31.4c.5,1.7,1.2,3.4,1.7,5Z"/><path d="M58,317.7c-1-3.4-1.7-6.7-2.4-10.1l104-22.5c.5,1.7.7,3.6,1.2,5.3Z"/><path d="M1.7,307.4C1,304,.5,300.5,0,297.1l105.7-13.7c.2,1.7.5,3.6.7,5.3Z"/><path d="M51.5,280.6c-.2-3.4-.5-6.9-.7-10.3l106.4-4.8a34.08,34.08,0,0,0,.5,5.5Z"/><path d="M50.6,262.2v-2.9c0-2.6,0-5.3.2-7.9l106.4,4.1v6.7L107.8,261Z"/><path d="M157.5,251.1,51.3,243c.2-3.4.7-6.9,1-10.3L158,245.9A30.52,30.52,0,0,0,157.5,251.1Z"/><path d="M136.4,237.5l-105-17.3c.5-3.4,1.2-6.9,1.9-10.3l104.2,22C137.1,233.9,136.6,235.6,136.4,237.5Z"/><path d="M160.6,231.7,57.3,205.6c1-3.4,1.7-6.7,2.9-10.1L162,226.4C161.5,228.4,161,230,160.6,231.7Z"/><path d="M163.4,222.4,62.8,187.7c1.2-3.4,2.4-6.5,3.6-9.8l98.7,39.5C164.6,219,163.9,220.7,163.4,222.4Z"/><path d="M167,213.3,69.7,169.9c1.4-3.1,2.9-6.2,4.6-9.3l95.1,47.7C168.5,209.9,167.8,211.6,167,213.3Z"/><path d="M171.4,204.4,78.2,152.9c1.7-3.1,3.4-6,5.3-9.1l90.8,55.8A43.56,43.56,0,0,0,171.4,204.4Z"/><path d="M146.4,174.4,57.7,115.5c1.9-2.9,3.8-5.8,6-8.6l85.5,63.3C148.3,171.6,147.4,173,146.4,174.4Z"/><path d="M171.1,178.3,87.7,111.9c2.2-2.6,4.3-5.3,6.7-7.9l80,70.2C173.3,175.6,172.1,177.1,171.1,178.3Z"/><path d="M172.3,163.9,94.9,90.8c2.4-2.4,4.8-5,7.4-7.4l73.8,76.7C174.7,161.3,173.5,162.7,172.3,163.9Z"/><path d="M353.7,176.1a50.12,50.12,0,0,0-4.1-3.6l69.7-80.3c2.6,2.2,5.3,4.6,7.7,6.9Z"/><path d="M196,173.5,125.1,94.2c2.6-2.4,5.3-4.6,7.9-6.7l67.1,82.7A25.78,25.78,0,0,0,196,173.5Z"/><path d="M346.3,169.7c-1.4-1.2-2.9-2.2-4.3-3.4l62.8-86c2.9,2.2,5.5,4.1,8.4,6.5Z"/><path d="M203.7,167.3l-64-85.1c2.9-2.2,5.5-4.1,8.4-6L208,164.1C206.6,165.1,205.1,166.3,203.7,167.3Z"/><path d="M345.3,153.1c-1.4-1-3.1-1.9-4.6-2.9l55.4-91.1c2.9,1.7,6,3.6,8.9,5.5Z"/><path d="M180.7,109.3,124.1,19.2c2.9-1.9,6-3.6,8.9-5.3l52.2,92.7C183.8,107.4,182.4,108.3,180.7,109.3Z"/><path d="M329.7,158.6c-1.7-1-3.1-1.7-4.8-2.6l47.4-95.4c3.1,1.4,6.2,3.1,9.3,4.8Z"/><path d="M220.2,156.7,171.8,62.1c3.1-1.7,6.2-3.1,9.3-4.6l44.1,96.8A32.74,32.74,0,0,1,220.2,156.7Z"/><path d="M331.7,128.9c-1.7-.7-3.4-1.4-5-2.2l39.1-99c3.1,1.2,6.5,2.6,9.6,4.1Z"/><path d="M229.3,152.6,188.8,54.1c3.1-1.2,6.5-2.6,9.8-3.8l35.7,100.4C232.7,151.4,231,151.9,229.3,152.6Z"/><path d="M311.8,150.5a41.09,41.09,0,0,0-5.3-1.7L337.2,47c3.4,1,6.7,2.2,9.8,3.1Z"/><path d="M233.9,133,202,31.6c3.4-1,6.7-1.9,10.1-2.9l27.1,103A37.37,37.37,0,0,0,233.9,133Z"/><path d="M302.4,147.6a33.69,33.69,0,0,0-5.3-1.2L318.7,42.2c3.4.7,6.7,1.4,10.1,2.4Z"/><path d="M248,146.9l-23-104c3.4-.7,6.9-1.4,10.3-1.9l18,105A32.62,32.62,0,0,0,248,146.9Z"/><path d="M292.8,145.7c-1.7-.2-3.6-.5-5.3-.7L300.2,39.3c3.4.5,6.9,1,10.3,1.4Z"/><path d="M257.6,145.2,243.5,39.8c3.4-.5,6.9-.7,10.3-1.2l9.1,106.2A35.86,35.86,0,0,0,257.6,145.2Z"/><path d="M283,144.5a50.55,50.55,0,0,0-5.5-.2l3.6-106.4c3.4.2,6.9.2,10.3.7Z"/><path d="M266.7,106.6,261.5.2c3.1-.2,6.5-.2,9.6-.2h1l-.6,106.4h.2C270.1,106.4,268.4,106.6,266.7,106.6Z"/><path d="M336,301.4c-23.1,0-42.2-18.6-42.2-41.8a42.2,42.2,0,0,1,84.4,0C378.2,282.8,359.1,301.4,336,301.4Zm0-70.1c-15.5,0-27.3,13-27.3,28.2s12,27.9,27.3,27.9,27.3-12.9,27.3-27.9C363.2,244.3,351.5,231.3,336,231.3Z"/><path d="M437.2,299.8l-33.7-58.7h-.2v58.7h-15V219h17l33.4,58.7h.2V219h15v80.8Z"/><path d="M513.9,294.5c-7.7,4.3-18.1,5.2-26.8,5.2H468.4V219h18.3c11.2,0,24.3,1.6,33.2,9.4,8.6,7.6,13.3,19.8,13.3,31.2C533.2,273.3,526.2,287.7,513.9,294.5Zm-4.3-54.8c-7.5-6.7-16.8-6.8-26.3-6.8v52.8h3.2c7.2,0,13.2-.3,19.6-3.9,7.9-4.4,12.1-13.4,12.1-22.3C518.2,252.3,515.2,244.6,509.6,239.7Z"/><path d="M596.5,289.4a29.75,29.75,0,0,1-24.1,12c-9.1,0-18.6-4.1-24-11.6-4-5.3-5-13-5-19.5V219h15v51.3c0,9.4,3.1,17.1,14,17.1s14-7.7,14-17.1V219h15v51.3C601.2,276.8,600.3,283.8,596.5,289.4Z"/><path d="M720.2,233v66.8h-15V233h-15V219h45v14Z"/><path d="M781.3,301.4c-23.1,0-42.2-18.6-42.2-41.8a42.25,42.25,0,0,1,84.5,0C823.6,282.8,804.5,301.4,781.3,301.4Zm0-70.1c-15.5,0-27.3,13-27.3,28.2s12,27.9,27.3,27.9,27.3-12.9,27.3-27.9C808.6,244.3,796.8,231.3,781.3,231.3Z"/><path d="M869.6,299.8l-21.4-30.9H848v30.9H833V219h24.8c7.1,0,14,.9,19.6,5.5a24.93,24.93,0,0,1,9.5,19.5c0,6.9-2.8,14.5-7.7,19.3-4.1,3.9-8,5.3-13.4,6.7l21.9,29.8Zm-12-66.8H848v24.6h9.6c8,0,14.4-3.9,14.4-12.4C872,236.9,865.3,233,857.6,233Z"/><path d="M278.9,277.8c-5.5,5.9-11.3,9.6-19.7,9.6-15,0-26.8-13.6-26.8-28.2,0-14.3,11.5-27.9,26.3-27.9,8.6,0,15.4,3.8,21,10l10.4-10.4a41.52,41.52,0,0,0-30.9-13.6c-22.8,0-41.8,18.9-41.8,41.7,0,23,19,42.3,42.1,42.3a42,42,0,0,0,30-13Z"/><path d="M673,277.8c-5.5,5.9-11.3,9.6-19.7,9.6-15,0-26.8-13.6-26.8-28.2,0-14.3,11.5-27.9,26.3-27.9,8.6,0,15.4,3.8,21,10l10.4-10.4a41.52,41.52,0,0,0-30.9-13.6c-22.8,0-41.8,18.9-41.8,41.7,0,23,19,42.3,42.1,42.3a42,42,0,0,0,30-13Z"/></g></g></svg>