<?xml version="1.0" encoding="UTF-8" standalone="no"?>
<svg
   id="Layer_1"
   viewBox="0 0 1591.98 567.26"
   version="1.1"
   sodipodi:docname="connected-spaces-platform.svg"
   inkscape:version="1.4.3 (0d15f75, 2025-12-25)"
   xmlns:inkscape="http://www.inkscape.org/namespaces/inkscape"
   xmlns:sodipodi="http://sodipodi.sourceforge.net/DTD/sodipodi-0.dtd"
   xmlns="http://www.w3.org/2000/svg"
   xmlns:svg="http://www.w3.org/2000/svg">
  <sodipodi:namedview
     id="namedview35"
     pagecolor="#ffffff"
     bordercolor="#000000"
     borderopacity="0.25"
     inkscape:showpageshadow="2"
     inkscape:pageopacity="0.0"
     inkscape:pagecheckerboard="0"
     inkscape:deskcolor="#d1d1d1"
     inkscape:zoom="0.15"
     inkscape:cx="796.66667"
     inkscape:cy="283.33333"
     inkscape:current-layer="Layer_1" />
  <defs
     id="defs15">
    <style
       id="style1">.cls-1{fill:none;}.cls-2{fill:url(#linear-gradient);}.cls-3{fill:#0080f5;}.cls-4{fill:#fff;}.cls-5{fill:#b3b3b3;}.cls-6{fill:#8519ff;}</style>
    <linearGradient
       id="linear-gradient"
       x1="1412.8"
       y1="55.78"
       x2="1208.37"
       y2="502.67"
       gradientUnits="userSpaceOnUse">
      <stop
         offset="0"
         stop-color="#211414"
         id="stop1" />
      <stop
         offset=".03"
         stop-color="#231628"
         id="stop2" />
      <stop
         offset=".11"
         stop-color="#281b56"
         id="stop3" />
      <stop
         offset=".19"
         stop-color="#2b207b"
         id="stop4" />
      <stop
         offset=".27"
         stop-color="#2f2398"
         id="stop5" />
      <stop
         offset=".35"
         stop-color="#3126ad"
         id="stop6" />
      <stop
         offset=".43"
         stop-color="#3227b9"
         id="stop7" />
      <stop
         offset=".5"
         stop-color="#3328be"
         id="stop8" />
      <stop
         offset=".58"
         stop-color="#3227b9"
         id="stop9" />
      <stop
         offset=".66"
         stop-color="#3026ad"
         id="stop10" />
      <stop
         offset=".74"
         stop-color="#2c2498"
         id="stop11" />
      <stop
         offset=".82"
         stop-color="#27217b"
         id="stop12" />
      <stop
         offset=".9"
         stop-color="#201e56"
         id="stop13" />
      <stop
         offset=".99"
         stop-color="#181928"
         id="stop14" />
      <stop
         offset="1"
         stop-color="#171920"
         id="stop15" />
    </linearGradient>
  </defs>
  <path
     class="cls-4"
     d="m35.22,101.16c4.57-3.05,10.29-4.57,17.14-4.57,7.5,0,13.63,1.81,18.38,5.44,4.75,3.63,8.13,8.71,10.13,15.26l20.55-5.7c-3.45-10.5-9.39-18.83-17.81-24.98-8.42-6.15-18.84-9.23-31.24-9.23-10.8,0-20.11,2.35-27.94,7.05-7.83,4.7-13.85,11.28-18.08,19.73-4.23,8.45-6.34,18.28-6.34,29.48s2.11,21.03,6.34,29.48c4.22,8.45,10.25,15.03,18.08,19.73,7.83,4.7,17.14,7.05,27.94,7.05,12.4,0,22.82-3.08,31.24-9.23,8.43-6.15,14.37-14.48,17.81-24.98l-20.55-5.7c-2,6.5-5.38,11.58-10.13,15.23s-10.88,5.47-18.38,5.47c-6.85,0-12.56-1.52-17.14-4.57-4.58-3.05-8.02-7.35-10.31-12.9-2.3-5.55-3.45-12.08-3.45-19.58s1.15-14.03,3.45-19.58c2.3-5.55,5.73-9.85,10.31-12.9Z"
     id="path15"
     style="fill:#000000" />
  <path
     class="cls-4"
     d="m172.32,182.84c7.83,4.7,17.14,7.05,27.94,7.05s20.12-2.35,27.94-7.05c7.83-4.7,13.85-11.28,18.08-19.73,4.22-8.45,6.34-18.28,6.34-29.48s-2.12-21.03-6.34-29.48c-4.23-8.45-10.25-15.02-18.08-19.73-7.83-4.7-17.14-7.05-27.94-7.05s-20.12,2.35-27.94,7.05c-7.83,4.7-13.85,11.28-18.07,19.73-4.23,8.45-6.34,18.28-6.34,29.48s2.11,21.03,6.34,29.48,10.25,15.03,18.07,19.73Zm.6-68.86c2.27-5.6,5.69-9.92,10.24-12.98,4.55-3.05,10.25-4.53,17.1-4.42s12.55,1.68,17.1,4.72c4.55,3.05,7.97,7.33,10.24,12.83,2.27,5.5,3.41,12,3.41,19.5s-1.14,14.05-3.41,19.65c-2.27,5.6-5.69,9.93-10.24,12.98-4.55,3.05-10.25,4.53-17.1,4.42-6.85-.1-12.55-1.67-17.1-4.72-4.55-3.05-7.97-7.32-10.24-12.83-2.28-5.5-3.42-12-3.42-19.5s1.14-14.05,3.42-19.65Z"
     id="path16"
     style="fill:#000000" />
  <polygon
     class="cls-4"
     points="391.98 187.64 391.98 79.63 371.28 79.63 371.28 151.64 324.32 79.63 303.63 79.63 303.63 187.64 324.32 187.64 324.32 115.63 371.28 187.64 391.98 187.64"
     id="polygon16"
     style="fill:#000000" />
  <polygon
     class="cls-4"
     points="537.35 187.64 537.35 79.63 516.64 79.63 516.64 151.64 469.69 79.63 448.99 79.63 448.99 187.64 469.69 187.64 469.69 115.63 516.64 187.64 537.35 187.64"
     id="polygon17"
     style="fill:#000000" />
  <polygon
     class="cls-4"
     points="664.85 168.59 614.75 168.59 614.75 140.84 655.85 140.84 655.85 121.78 614.75 121.78 614.75 98.68 664.85 98.68 664.85 79.63 594.35 79.63 594.35 187.64 664.85 187.64 664.85 168.59"
     id="polygon18"
     style="fill:#000000" />
  <path
     class="cls-4"
     d="m744.33,101.16c4.58-3.05,10.29-4.57,17.14-4.57,7.5,0,13.63,1.81,18.38,5.44,4.75,3.63,8.12,8.71,10.13,15.26l20.55-5.7c-3.45-10.5-9.39-18.83-17.81-24.98-8.43-6.15-18.84-9.23-31.24-9.23-10.8,0-20.11,2.35-27.94,7.05-7.83,4.7-13.85,11.28-18.07,19.73-4.23,8.45-6.34,18.28-6.34,29.48s2.11,21.03,6.34,29.48c4.22,8.45,10.25,15.03,18.07,19.73,7.83,4.7,17.14,7.05,27.94,7.05,12.41,0,22.82-3.08,31.24-9.23,8.42-6.15,14.37-14.48,17.81-24.98l-20.55-5.7c-2,6.5-5.38,11.58-10.13,15.23s-10.88,5.47-18.38,5.47c-6.85,0-12.56-1.52-17.14-4.57-4.58-3.05-8.02-7.35-10.31-12.9-2.3-5.55-3.45-12.08-3.45-19.58s1.15-14.03,3.45-19.58c2.3-5.55,5.74-9.85,10.31-12.9Z"
     id="path18"
     style="fill:#000000" />
  <polygon
     class="cls-4"
     points="888.08 187.64 908.48 187.64 908.48 98.68 942.53 98.68 942.53 79.63 854.02 79.63 854.02 98.68 888.08 98.68 888.08 187.64"
     id="polygon19"
     style="fill:#000000" />
  <polygon
     class="cls-4"
     points="990.53 187.64 1061.04 187.64 1061.04 168.59 1010.93 168.59 1010.93 140.84 1052.04 140.84 1052.04 121.78 1010.93 121.78 1010.93 98.68 1061.04 98.68 1061.04 79.63 990.53 79.63 990.53 187.64"
     id="polygon20"
     style="fill:#000000" />
  <path
     class="cls-4"
     d="m1198.83,108.36c-3.15-7.7-7.75-14.05-13.8-19.05s-13.43-8.03-22.13-9.08c-2.45-.3-5-.47-7.65-.52s-4.4-.08-5.25-.08h-34.95v108.01h34.95c.85,0,2.6-.03,5.25-.08,2.65-.05,5.2-.22,7.65-.52,8.7-1.05,16.07-4.07,22.13-9.08,6.05-5,10.65-11.35,13.8-19.05,3.15-7.7,4.73-16.13,4.73-25.28s-1.57-17.58-4.73-25.28Zm-19.02,40.28c-1.43,4.85-3.63,9-6.6,12.45-2.98,3.45-6.82,5.65-11.51,6.6-1.85.35-3.92.56-6.23.64-2.3.07-4.12.11-5.47.11h-14.25v-69.61h14.25c1.35,0,3.17.03,5.47.08s4.38.28,6.23.67c4.55.9,8.33,3.03,11.32,6.38,3,3.35,5.24,7.45,6.71,12.3,1.48,4.85,2.21,9.98,2.21,15.38s-.71,10.15-2.14,15Z"
     id="path20"
     style="fill:#000000" />
  <path
     class="cls-4"
     d="m79.39,283.46c-3.12-2.18-6.38-3.87-9.79-5.1-3.4-1.22-6.5-2.21-9.3-2.96l-18.75-5.1c-2.3-.6-4.55-1.35-6.75-2.25-2.2-.9-4.03-2.09-5.47-3.56-1.45-1.47-2.18-3.39-2.18-5.74,0-2.55.89-4.75,2.67-6.6s4.08-3.26,6.9-4.24c2.83-.97,5.84-1.41,9.04-1.31,3.25.1,6.36.77,9.34,2.02,2.98,1.25,5.54,3.07,7.69,5.48,2.15,2.4,3.63,5.35,4.42,8.85l22.05-3.75c-1.75-6.75-4.6-12.46-8.55-17.14-3.95-4.67-8.85-8.24-14.7-10.69s-12.5-3.73-19.95-3.83c-7.4-.05-14.15,1.1-20.25,3.45-6.1,2.35-10.98,5.93-14.63,10.73-3.65,4.8-5.47,10.83-5.47,18.08,0,5.15.86,9.41,2.59,12.79,1.72,3.37,3.88,6.09,6.49,8.14,2.6,2.05,5.29,3.63,8.06,4.72,2.78,1.1,5.21,1.95,7.31,2.55l28.05,8.25c2.1.65,3.84,1.38,5.21,2.18,1.38.8,2.44,1.65,3.19,2.55.75.9,1.29,1.86,1.61,2.89.33,1.02.49,2.09.49,3.19,0,3-1.02,5.53-3.04,7.58-2.03,2.05-4.61,3.6-7.76,4.65-3.15,1.05-6.4,1.57-9.75,1.57-6,0-11.35-1.68-16.05-5.03-4.7-3.35-7.8-8.13-9.3-14.33l-21.3,3.15c1.1,7.3,3.71,13.59,7.83,18.86,4.13,5.28,9.4,9.33,15.83,12.15,6.42,2.82,13.64,4.24,21.63,4.24,5.5,0,10.84-.7,16.02-2.1,5.18-1.4,9.81-3.51,13.91-6.34,4.1-2.82,7.37-6.4,9.79-10.73s3.63-9.39,3.63-15.19c0-5.45-1.01-9.95-3.04-13.5-2.02-3.55-4.6-6.41-7.73-8.59Z"
     id="path21"
     style="fill:#000000" />
  <path
     class="cls-4"
     d="m237.02,300.45c6.4-1,11.66-3.12,15.79-6.38,4.12-3.25,7.18-7.34,9.15-12.26,1.97-4.92,2.96-10.41,2.96-16.46s-.98-11.54-2.93-16.46c-1.95-4.93-4.99-9.01-9.11-12.26-4.13-3.25-9.41-5.38-15.87-6.38-1.4-.25-2.99-.41-4.76-.49-1.78-.08-3.19-.11-4.24-.11h-45.61v108.01h20.4v-36.6h25.2c1,0,2.4-.05,4.2-.15,1.8-.1,3.4-.25,4.8-.45Zm-9.9-18.45h-24.3v-33.3h24.3c1.05,0,2.2.05,3.45.15,1.25.1,2.4.3,3.45.6,2.75.75,4.87,2.01,6.38,3.79,1.5,1.78,2.53,3.75,3.11,5.93.57,2.18.86,4.24.86,6.19s-.29,4.01-.86,6.19c-.58,2.18-1.62,4.15-3.11,5.93-1.5,1.77-3.63,3.04-6.38,3.79-1.05.3-2.2.5-3.45.6-1.26.1-2.4.15-3.45.15Z"
     id="path22"
     style="fill:#000000" />
  <path
     class="cls-4"
     d="m373.68,229.64l-33,108.01h21l6.84-22.5h40.67l6.95,22.5h21l-33-108.01h-30.45Zm.63,66.46l14.39-47.34,14.61,47.34h-29Z"
     id="path23"
     style="fill:#000000" />
  <path
     class="cls-4"
     d="m618.81,305.7l-20.55-5.7c-2,6.5-5.38,11.58-10.13,15.23s-10.88,5.47-18.38,5.47c-6.85,0-12.56-1.52-17.14-4.57-4.58-3.05-8.02-7.35-10.31-12.9-2.3-5.55-3.45-12.08-3.45-19.58s1.15-14.03,3.45-19.58c2.3-5.55,5.74-9.85,10.31-12.9,4.58-3.05,10.29-4.57,17.14-4.57,7.5,0,13.63,1.81,18.38,5.44,4.75,3.63,8.12,8.71,10.13,15.26l20.55-5.7c-3.45-10.5-9.39-18.83-17.81-24.98-8.43-6.15-18.84-9.23-31.24-9.23-10.8,0-20.11,2.35-27.94,7.05-7.83,4.7-13.85,11.28-18.07,19.73-4.23,8.45-6.34,18.28-6.34,29.48s2.11,21.03,6.34,29.48c4.22,8.45,10.25,15.03,18.07,19.73,7.83,4.7,17.14,7.05,27.94,7.05,12.41,0,22.82-3.08,31.24-9.23,8.42-6.15,14.37-14.48,17.81-24.98Z"
     id="path24"
     style="fill:#000000" />
  <polygon
     class="cls-4"
     points="781.57 248.7 781.57 229.64 711.06 229.64 711.06 337.65 781.57 337.65 781.57 318.6 731.47 318.6 731.47 290.85 772.57 290.85 772.57 271.8 731.47 271.8 731.47 248.7 781.57 248.7"
     id="polygon24"
     style="fill:#000000" />
  <path
     class="cls-4"
     d="m929.34,231.37c-5.85-2.45-12.5-3.73-19.95-3.83-7.4-.05-14.15,1.1-20.26,3.45-6.1,2.35-10.98,5.93-14.63,10.73-3.65,4.8-5.47,10.83-5.47,18.08,0,5.15.86,9.41,2.59,12.79,1.72,3.37,3.89,6.09,6.49,8.14,2.6,2.05,5.29,3.63,8.07,4.72,2.77,1.1,5.21,1.95,7.31,2.55l28.05,8.25c2.1.65,3.84,1.38,5.21,2.18s2.44,1.65,3.19,2.55c.75.9,1.29,1.86,1.61,2.89s.49,2.09.49,3.19c0,3-1.02,5.53-3.04,7.58-2.02,2.05-4.61,3.6-7.76,4.65-3.15,1.05-6.4,1.57-9.75,1.57-6,0-11.35-1.68-16.06-5.03-4.7-3.35-7.8-8.13-9.3-14.33l-21.3,3.15c1.1,7.3,3.71,13.59,7.84,18.86,4.13,5.28,9.4,9.33,15.83,12.15,6.42,2.82,13.64,4.24,21.64,4.24,5.5,0,10.84-.7,16.01-2.1,5.18-1.4,9.81-3.51,13.92-6.34,4.1-2.82,7.36-6.4,9.79-10.73s3.64-9.39,3.64-15.19c0-5.45-1.01-9.95-3.04-13.5s-4.6-6.41-7.73-8.59c-3.13-2.18-6.39-3.87-9.79-5.1-3.4-1.22-6.5-2.21-9.3-2.96l-18.75-5.1c-2.3-.6-4.55-1.35-6.75-2.25-2.2-.9-4.03-2.09-5.48-3.56-1.45-1.47-2.17-3.39-2.17-5.74,0-2.55.89-4.75,2.66-6.6s4.08-3.26,6.9-4.24c2.82-.97,5.84-1.41,9.04-1.31,3.25.1,6.36.77,9.34,2.02,2.98,1.25,5.54,3.07,7.69,5.48,2.15,2.4,3.63,5.35,4.43,8.85l22.05-3.75c-1.75-6.75-4.6-12.46-8.55-17.14-3.95-4.67-8.85-8.24-14.7-10.69Z"
     id="path25"
     style="fill:#000000" />
  <path
     class="cls-4"
     d="m67.92,386.07c-3.87-3.02-8.51-4.96-13.91-5.81-1.35-.25-2.64-.41-3.86-.49s-2.36-.11-3.41-.11H6v108.01h8.62v-42.08h32.1c1.05,0,2.19-.05,3.41-.15,1.22-.1,2.51-.25,3.86-.45,5.4-.85,10.04-2.79,13.91-5.81s6.84-6.83,8.89-11.4c2.05-4.57,3.08-9.64,3.08-15.19s-1.02-10.54-3.08-15.11c-2.05-4.58-5.01-8.37-8.89-11.4Zm.94,37.09c-1.3,3.35-3.25,6.21-5.85,8.59s-5.85,3.96-9.75,4.76c-1.2.2-2.39.35-3.56.45-1.18.1-2.21.15-3.11.15H14.63v-49.05h31.95c.9,0,1.94.05,3.11.15,1.17.1,2.36.28,3.56.52,3.9.8,7.15,2.39,9.75,4.76,2.6,2.37,4.55,5.22,5.85,8.55,1.3,3.33,1.95,6.84,1.95,10.54s-.65,7.23-1.95,10.58Z"
     id="path26"
     style="fill:#000000" />
  <polygon
     class="cls-4"
     points="138.01 379.66 129.39 379.66 129.39 487.67 190.52 487.67 190.52 479.27 138.01 479.27 138.01 379.66"
     id="polygon26"
     style="fill:#000000" />
  <path
     class="cls-4"
     d="m267.02,379.66l-38.25,108.01h9.15l9.58-27.15h49.71l9.64,27.15h9.15l-38.25-108.01h-10.73Zm-16.63,72.68l21.89-62.04,22.03,62.04h-43.92Z"
     id="path27"
     style="fill:#000000" />
  <polygon
     class="cls-4"
     points="344.5 388.06 383.21 388.06 383.21 487.67 391.83 487.67 391.83 388.06 430.54 388.06 430.54 379.66 344.5 379.66 344.5 388.06"
     id="polygon27"
     style="fill:#000000" />
  <polygon
     class="cls-4"
     points="475.54 487.67 484.17 487.67 484.17 438.01 527.52 438.01 527.52 429.31 484.17 429.31 484.17 388.28 536.52 388.28 536.52 379.66 475.54 379.66 475.54 487.67"
     id="polygon28"
     style="fill:#000000" />
  <path
     class="cls-4"
     d="m653.19,384.57c-7.28-4.78-16.29-7.16-27.04-7.16s-19.78,2.39-27.08,7.16c-7.3,4.78-12.8,11.39-16.5,19.84-3.7,8.45-5.55,18.2-5.55,29.25s1.85,20.8,5.55,29.25c3.7,8.45,9.2,15.06,16.5,19.84,7.3,4.78,16.32,7.16,27.08,7.16s19.76-2.39,27.04-7.16c7.28-4.78,12.76-11.39,16.46-19.84,3.7-8.45,5.55-18.2,5.55-29.25s-1.85-20.8-5.55-29.25c-3.7-8.45-9.19-15.06-16.46-19.84Zm8.36,73.92c-2.95,7.2-7.38,12.84-13.28,16.91-5.9,4.08-13.28,6.09-22.13,6.04-8.85,0-16.25-2.04-22.2-6.11-5.95-4.08-10.41-9.7-13.39-16.88s-4.42-15.44-4.32-24.79c.1-9.35,1.63-17.64,4.58-24.87,2.94-7.22,7.36-12.86,13.23-16.91,5.87-4.05,13.24-6.05,22.09-6,8.85,0,16.23,2.02,22.13,6.08,5.9,4.05,10.33,9.68,13.28,16.88,2.95,7.2,4.42,15.48,4.42,24.83s-1.48,17.63-4.42,24.83Z"
     id="path28"
     style="fill:#000000" />
  <path
     class="cls-4"
     d="m790.71,433.36c4.25-5.9,6.38-12.83,6.38-20.78,0-5.5-1.02-10.54-3.08-15.11-2.05-4.58-5.01-8.37-8.89-11.4-3.87-3.02-8.51-4.96-13.91-5.81-1.35-.25-2.64-.41-3.86-.49s-2.36-.11-3.41-.11h-40.73v108.01h8.62v-42.08h37.51l20.39,42.08h10.12l-21.74-44.6c5.16-2,9.37-5.23,12.59-9.71Zm-26.93,3.75h-31.95v-49.05h31.95c.9,0,1.94.05,3.11.15,1.17.1,2.36.28,3.56.52,3.9.8,7.15,2.39,9.75,4.76,2.6,2.37,4.55,5.22,5.85,8.55,1.3,3.33,1.95,6.84,1.95,10.54s-.65,7.23-1.95,10.58c-1.3,3.35-3.25,6.21-5.85,8.59s-5.85,3.96-9.75,4.76c-1.2.2-2.39.35-3.56.45-1.18.1-2.21.15-3.11.15Z"
     id="path29"
     style="fill:#000000" />
  <polygon
     class="cls-4"
     points="901.65 475.22 857.4 379.66 849.37 379.66 849.37 487.67 857.77 487.67 857.77 399.53 898.05 487.67 905.1 487.67 945.3 399.53 945.3 487.52 953.78 487.52 953.78 379.66 945.45 379.66 901.65 475.22"
     id="polygon29"
     style="fill:#000000" />
  <path
     class="cls-1"
     d="m1137.95,480.53c.1.09.17.16.28.25.09.06.18.12.27.19-.09-.07-.39-.31-.83-.67.1.08.2.17.3.25,0,0-.01,0-.02-.02Z"
     id="path30" />
  <path
     class="cls-1"
     d="m1133.12,476.48c1.12,1.02,3.32,2.82,4.54,3.81-1.55-1.23-3.08-2.48-4.54-3.81Z"
     id="path31" />
  <polygon
     class="cls-5"
     points="1150.48 488.75 1150.48 488.75 1150.48 488.75 1150.48 488.75"
     id="polygon31" />
  <path
     class="cls-5"
     d="m1143.9,484.68c-1.83-1.2-3.63-2.44-5.4-3.73,0,0,.04.03.04.04,1.75,1.28,3.54,2.5,5.35,3.69Z"
     id="path32" />
  <path
     class="cls-3"
     d="m1215.23,506c-2.65,0-5.27-.11-7.88-.26-.51-.03-1.02-.06-1.53-.09-2.52-.18-5.03-.43-7.51-.75-.43-.06-.86-.12-1.29-.18-2.44-.34-4.86-.74-7.25-1.21-.16-.03-.33-.06-.49-.09-2.51-.51-4.98-1.11-7.44-1.76-.43-.11-.86-.23-1.29-.35-2.44-.67-4.85-1.4-7.23-2.21-.22-.08-.44-.16-.66-.24-2.35-.81-4.67-1.69-6.96-2.64-.18-.08-.37-.14-.55-.22-2.35-.98-4.66-2.04-6.94-3.15-.32-.16-.63-.31-.95-.47-2.3-1.15-4.58-2.35-6.8-3.63,0,0,0,0,0,0-1.88-1.08-3.73-2.22-5.56-3.4-.34-.22-.69-.44-1.03-.67-1.81-1.19-3.61-2.41-5.35-3.69,0,0-.04-.03-.04-.04-.09-.06-.18-.12-.27-.19-.11-.09-.18-.16-.28-.25,0,0,.01,0,.02.02-.1-.08-.2-.17-.3-.25-1.23-.99-3.42-2.79-4.54-3.81-3.85-2.89-7.49-6.05-10.8-9.54,0,0,0,0-.01-.01-2.97-3.13-5.72-6.46-8.2-10-2.05-2.92-3.92-5.97-5.61-9.14-5.06-9.51-8.39-20.06-9.6-31.24-.3-3.37-.47-6.78-.5-10.23.44-47.54,39.23-86.08,86.87-86.08h53.43v-73.23h-53.43c-3.3,0-6.56.13-9.81.33-83.74,5.09-150.32,74.8-150.32,159.79s71.83,160.12,160.12,160.12c75.56,0,141.5-53.68,156.8-127.64,1.86-9.04,2.91-18.27,3.19-27.52.12-2.19.14-8.05.13-8.77v-16.67s0,0,0,.02v-.12s0-8.94,0-8.94c-.99,71.07-58.87,128.38-130.17,128.38Z"
     id="path33" />
  <path
     class="cls-6"
     d="m1431.85,0c-75.56,0-141.5,53.68-156.8,127.64-1.86,9.04-2.91,18.27-3.19,27.52-.12,2.19-.14,8.05-.13,8.77v16.67s0,0,0-.02v.12s0,8.94,0,8.94c.99-71.07,58.87-128.38,130.17-128.38,2.65,0,5.27.11,7.88.26.51.03,1.02.06,1.53.09,2.52.18,5.03.43,7.51.75.43.06.86.12,1.29.18,2.44.34,4.86.74,7.25,1.21.16.03.33.06.49.09,2.51.51,4.98,1.11,7.44,1.76.43.11.86.23,1.29.35,2.44.67,4.85,1.4,7.23,2.21.22.08.44.16.66.23,2.35.81,4.68,1.69,6.97,2.64.18.08.37.14.55.22,2.35.98,4.66,2.04,6.94,3.15.32.15.63.31.95.47,2.3,1.15,4.58,2.35,6.8,3.63,0,0,0,0,0,0,1.88,1.08,3.73,2.22,5.56,3.4.34.22.69.44,1.03.67,1.81,1.19,3.61,2.41,5.35,3.69,0,0,.04.03.04.04.09.06.18.12.27.19.11.09.18.16.28.25,0,0-.01,0-.02-.02.1.08.2.17.3.25,1.23.99,3.42,2.79,4.54,3.81,3.85,2.89,7.49,6.05,10.8,9.54,0,0,0,0,.01.01,2.97,3.13,5.72,6.46,8.2,10,2.05,2.92,3.92,5.97,5.61,9.14,5.06,9.51,8.39,20.06,9.6,31.24.3,3.37.47,6.78.5,10.23-.44,47.54-39.23,86.08-86.87,86.08h-53.43v73.23h53.43c3.3,0,6.56-.13,9.81-.33,83.74-5.09,150.32-74.8,150.32-159.79S1520.15,0,1431.85,0Z"
     id="path34" />
  <path
     class="cls-2"
     d="m1478.63,86.3c-1.77-1.29-3.57-2.52-5.4-3.73-.34-.22-.68-.45-1.03-.67-1.82-1.17-3.67-2.31-5.56-3.4,0,0,0,0,0,0h0c-2.22-1.28-4.5-2.48-6.8-3.63-.32-.16-.63-.31-.95-.47-2.28-1.11-4.59-2.17-6.94-3.15-.18-.08-.37-.15-.55-.22-2.29-.94-4.61-1.82-6.97-2.64-.22-.08-.44-.16-.66-.23-2.38-.81-4.79-1.54-7.23-2.21-.43-.12-.86-.23-1.29-.35-2.45-.65-4.93-1.25-7.44-1.76-.16-.03-.33-.06-.49-.09-2.39-.47-4.81-.87-7.25-1.21-.43-.06-.86-.13-1.29-.18-2.48-.32-4.98-.57-7.51-.75-.51-.04-1.02-.06-1.53-.09-2.61-.16-5.23-.26-7.88-.26-71.3,0-129.18,57.31-130.17,128.38l-.12,218.57c-.1,27.93-13.53,52.94-34.36,68.82h0s0,0,0,0c-.37.28-.75.54-1.12.81-.06.04-.12.09-.18.13-8.52,6.25-18.34,10.55-28.58,13.15-.98.25-1.79.45-2.43.61-.46.11-.92.23-1.39.34-.17.04-.27.06-.27.06v-.02c-4.05.86-8.2,1.45-12.43,1.72-.8.05-1.59.08-2.39.12h-.34c-.94.05-1.88.08-2.83.08-17.59,0-33.95-5.28-47.64-14.3-.74-.49-1.46-1.02-2.19-1.53-.79-.55-1.55-1.14-2.32-1.71,1.46,1.33,2.99,2.58,4.54,3.81.44.36.74.6.83.67,1.77,1.29,3.57,2.52,5.4,3.73.34.22.68.45,1.03.67,1.82,1.17,3.67,2.31,5.56,3.4,0,0,0,0,0,0h0c2.22,1.28,4.5,2.48,6.8,3.63.32.16.63.31.95.47,2.28,1.11,4.59,2.17,6.94,3.15.18.08.37.15.55.22,2.29.94,4.61,1.82,6.96,2.64.22.08.44.16.66.24,2.38.81,4.79,1.54,7.23,2.21.43.12.86.23,1.29.35,2.45.65,4.93,1.25,7.44,1.76.16.03.33.06.49.09,2.39.47,4.81.87,7.25,1.21.43.06.86.13,1.29.18,2.48.32,4.98.57,7.51.75.51.04,1.02.06,1.53.09,2.61.16,5.23.26,7.88.26,71.3,0,129.18-57.31,130.17-128.38l.12-218.57c.1-27.93,13.53-52.94,34.36-68.82h0s0,0,0,0c.37-.28.75-.54,1.12-.81.06-.04.12-.09.18-.13,8.52-6.25,18.34-10.55,28.58-13.15.98-.25,1.79-.45,2.43-.61.46-.11.92-.23,1.39-.34.17-.04.27-.06.27-.06v.02c4.05-.86,8.2-1.45,12.43-1.72.8-.05,1.59-.08,2.39-.12h.34c.94-.05,1.88-.08,2.83-.08,17.59,0,33.95,5.28,47.64,14.3.74.49,1.46,1.02,2.19,1.53.79.55,1.55,1.14,2.32,1.71-1.46-1.33-2.99-2.58-4.54-3.81-.44-.36-.74-.6-.83-.67Z"
     id="path35" />
</svg>
