<?xml version="1.0" encoding="UTF-8" standalone="no"?>
<svg
   id="Layer_1"
   viewBox="0 0 479.64 338.34"
   version="1.1"
   sodipodi:docname="connectedspaces.svg"
   inkscape:version="1.3.2 (091e20e, 2023-11-25)"
   xmlns:inkscape="http://www.inkscape.org/namespaces/inkscape"
   xmlns:sodipodi="http://sodipodi.sourceforge.net/DTD/sodipodi-0.dtd"
   xmlns="http://www.w3.org/2000/svg"
   xmlns:svg="http://www.w3.org/2000/svg">
  <sodipodi:namedview
     id="namedview38"
     pagecolor="#ffffff"
     bordercolor="#666666"
     borderopacity="1.0"
     inkscape:showpageshadow="2"
     inkscape:pageopacity="0.0"
     inkscape:pagecheckerboard="0"
     inkscape:deskcolor="#d1d1d1"
     inkscape:zoom="1.1540657"
     inkscape:cx="235.68849"
     inkscape:cy="113.94499"
     inkscape:window-width="1336"
     inkscape:window-height="792"
     inkscape:window-x="0"
     inkscape:window-y="25"
     inkscape:window-maximized="0"
     inkscape:current-layer="Layer_1" />
  <defs
     id="defs15">
    <style
       id="style1">.cls-1{fill:none;}.cls-2{fill:url(#linear-gradient);}.cls-3{fill:#0080f5;}.cls-4{fill:#fff;}.cls-5{fill:#b2b2b2;}.cls-6{fill:#8519ff;}</style>
    <linearGradient
       id="linear-gradient"
       x1="231.21"
       y1="33.27"
       x2="109.28"
       y2="299.81"
       gradientUnits="userSpaceOnUse">
      <stop
         offset="0"
         stop-color="#211414"
         id="stop1" />
      <stop
         offset=".03"
         stop-color="#231628"
         id="stop2" />
      <stop
         offset=".11"
         stop-color="#281b56"
         id="stop3" />
      <stop
         offset=".19"
         stop-color="#2b207b"
         id="stop4" />
      <stop
         offset=".27"
         stop-color="#2f2398"
         id="stop5" />
      <stop
         offset=".35"
         stop-color="#3126ad"
         id="stop6" />
      <stop
         offset=".43"
         stop-color="#3227b9"
         id="stop7" />
      <stop
         offset=".5"
         stop-color="#3328be"
         id="stop8" />
      <stop
         offset=".58"
         stop-color="#3227b9"
         id="stop9" />
      <stop
         offset=".66"
         stop-color="#3026ad"
         id="stop10" />
      <stop
         offset=".74"
         stop-color="#2c2498"
         id="stop11" />
      <stop
         offset=".82"
         stop-color="#27217b"
         id="stop12" />
      <stop
         offset=".9"
         stop-color="#201e56"
         id="stop13" />
      <stop
         offset=".99"
         stop-color="#181928"
         id="stop14" />
      <stop
         offset="1"
         stop-color="#171920"
         id="stop15" />
    </linearGradient>
  </defs>
  <path
     class="cls-1"
     d="m66.69,287.29c.06.05.1.09.17.15.05.04.11.07.16.11-.05-.04-.23-.19-.5-.4.06.05.12.1.18.15,0,0,0,0-.01,0Z"
     id="path15" />
  <path
     class="cls-1"
     d="m63.79,284.86c.67.61,1.99,1.69,2.72,2.28-.93-.74-1.85-1.49-2.72-2.28Z"
     id="path16" />
  <polygon
     class="cls-5"
     points="74.2 292.22 74.2 292.22 74.2 292.22 74.2 292.22"
     id="polygon16" />
  <path
     class="cls-5"
     d="m70.25,289.78c-1.1-.72-2.18-1.46-3.24-2.24,0,0,.02.02.03.02,1.05.77,2.12,1.5,3.21,2.21Z"
     id="path17" />
  <path
     class="cls-4"
     d="m218.97,222.41c1.06-.71,2.39-1.06,3.99-1.06,1.75,0,3.17.42,4.28,1.27,1.1.84,1.89,2.03,2.36,3.55l4.78-1.33c-.8-2.44-2.18-4.38-4.14-5.81-1.96-1.43-4.38-2.15-7.27-2.15-2.51,0-4.68.55-6.5,1.64-1.82,1.09-3.22,2.62-4.21,4.59-.98,1.97-1.47,4.25-1.47,6.86s.49,4.89,1.47,6.86,2.38,3.5,4.21,4.59c1.82,1.09,3.99,1.64,6.5,1.64,2.89,0,5.31-.72,7.27-2.15,1.96-1.43,3.34-3.37,4.14-5.81l-4.78-1.33c-.47,1.51-1.25,2.69-2.36,3.54-1.11.85-2.53,1.27-4.28,1.27-1.59,0-2.92-.35-3.99-1.06s-1.86-1.71-2.4-3c-.54-1.29-.8-2.81-.8-4.56s.27-3.26.8-4.56c.53-1.29,1.33-2.29,2.4-3Z"
     id="path18"
     style="fill:#000000" />
  <path
     class="cls-4"
     d="m249.47,241.42c1.82,1.09,3.99,1.64,6.5,1.64s4.68-.55,6.5-1.64c1.82-1.09,3.22-2.62,4.21-4.59.98-1.97,1.47-4.25,1.47-6.86s-.49-4.89-1.47-6.86c-.98-1.97-2.39-3.5-4.21-4.59-1.82-1.09-3.99-1.64-6.5-1.64s-4.68.55-6.5,1.64c-1.82,1.09-3.22,2.62-4.21,4.59-.98,1.97-1.47,4.25-1.47,6.86s.49,4.89,1.47,6.86,2.38,3.5,4.21,4.59Zm.14-16.02c.53-1.3,1.32-2.31,2.38-3.02,1.06-.71,2.38-1.05,3.98-1.03s2.92.39,3.98,1.1,1.85,1.7,2.38,2.98.79,2.79.79,4.54-.26,3.27-.79,4.57c-.53,1.3-1.32,2.31-2.38,3.02-1.06.71-2.39,1.05-3.98,1.03s-2.92-.39-3.98-1.1-1.85-1.7-2.38-2.98c-.53-1.28-.79-2.79-.79-4.54s.26-3.27.79-4.57Z"
     id="path19"
     style="fill:#000000" />
  <polygon
     class="cls-4"
     points="283.44 225.78 294.37 242.54 299.19 242.54 299.19 217.41 294.37 217.41 294.37 234.16 283.44 217.41 278.63 217.41 278.63 242.54 283.44 242.54 283.44 225.78"
     id="polygon19"
     style="fill:#000000" />
  <polygon
     class="cls-4"
     points="331.61 242.54 331.61 217.41 326.8 217.41 326.8 234.16 315.87 217.41 311.05 217.41 311.05 242.54 315.87 242.54 315.87 225.78 326.8 242.54 331.61 242.54"
     id="polygon20"
     style="fill:#000000" />
  <polygon
     class="cls-4"
     points="359.88 238.1 348.23 238.1 348.23 231.65 357.79 231.65 357.79 227.21 348.23 227.21 348.23 221.84 359.88 221.84 359.88 217.41 343.48 217.41 343.48 242.54 359.88 242.54 359.88 238.1"
     id="polygon21"
     style="fill:#000000" />
  <path
     class="cls-4"
     d="m388.24,240.91c1.96-1.43,3.34-3.37,4.14-5.81l-4.78-1.33c-.47,1.51-1.25,2.69-2.36,3.54-1.11.85-2.53,1.27-4.28,1.27-1.59,0-2.92-.35-3.99-1.06s-1.86-1.71-2.4-3c-.54-1.29-.8-2.81-.8-4.56s.27-3.26.8-4.56c.53-1.29,1.33-2.29,2.4-3s2.39-1.06,3.99-1.06c1.75,0,3.17.42,4.28,1.27,1.1.84,1.89,2.03,2.36,3.55l4.78-1.33c-.8-2.44-2.18-4.38-4.14-5.81-1.96-1.43-4.38-2.15-7.27-2.15-2.51,0-4.68.55-6.5,1.64-1.82,1.09-3.22,2.62-4.21,4.59-.98,1.97-1.47,4.25-1.47,6.86s.49,4.89,1.47,6.86,2.38,3.5,4.21,4.59c1.82,1.09,3.99,1.64,6.5,1.64,2.89,0,5.31-.72,7.27-2.15Z"
     id="path21"
     style="fill:#000000" />
  <polygon
     class="cls-4"
     points="409.03 242.54 413.78 242.54 413.78 221.84 421.7 221.84 421.7 217.41 401.11 217.41 401.11 221.84 409.03 221.84 409.03 242.54"
     id="polygon22"
     style="fill:#000000" />
  <polygon
     class="cls-4"
     points="431.47 242.54 447.88 242.54 447.88 238.1 436.22 238.1 436.22 231.65 445.78 231.65 445.78 227.21 436.22 227.21 436.22 221.84 447.88 221.84 447.88 217.41 431.47 217.41 431.47 242.54"
     id="polygon23"
     style="fill:#000000" />
  <path
     class="cls-4"
     d="m478.54,224.09c-.73-1.79-1.8-3.27-3.21-4.43-1.41-1.16-3.12-1.87-5.15-2.11-.57-.07-1.16-.11-1.78-.12-.62-.01-1.02-.02-1.22-.02h-8.13v25.13h8.13c.2,0,.6,0,1.22-.02.62-.01,1.21-.05,1.78-.12,2.02-.24,3.74-.95,5.15-2.11s2.48-2.64,3.21-4.43c.73-1.79,1.1-3.75,1.1-5.88s-.37-4.09-1.1-5.88Zm-4.42,9.37c-.33,1.13-.84,2.09-1.54,2.9-.69.8-1.59,1.31-2.68,1.54-.43.08-.91.13-1.45.15-.54.02-.96.03-1.27.03h-3.32v-16.2h3.32c.31,0,.74,0,1.27.02.53.01,1.02.06,1.45.16,1.06.21,1.94.7,2.64,1.48.7.78,1.22,1.73,1.56,2.86.34,1.13.51,2.32.51,3.58s-.17,2.36-.5,3.49Z"
     id="path23"
     style="fill:#000000" />
  <path
     class="cls-4"
     d="m229.25,264.83c-.73-.51-1.49-.9-2.28-1.19-.79-.28-1.51-.51-2.16-.69l-4.36-1.19c-.54-.14-1.06-.31-1.57-.52-.51-.21-.94-.49-1.27-.83-.34-.34-.51-.79-.51-1.33,0-.59.21-1.11.62-1.54s.95-.76,1.61-.99c.66-.23,1.36-.33,2.1-.31.76.02,1.48.18,2.17.47.69.29,1.29.72,1.79,1.27.5.56.84,1.25,1.03,2.06l5.13-.87c-.41-1.57-1.07-2.9-1.99-3.99-.92-1.09-2.06-1.92-3.42-2.49-1.36-.57-2.91-.87-4.64-.89-1.72-.01-3.29.26-4.71.8s-2.55,1.38-3.4,2.5-1.27,2.52-1.27,4.21c0,1.2.2,2.19.6,2.98s.9,1.42,1.51,1.89c.6.48,1.23.84,1.88,1.1.65.26,1.21.45,1.7.59l6.53,1.92c.49.15.89.32,1.21.51.32.19.57.38.74.59.17.21.3.43.37.67.08.24.11.49.11.74,0,.7-.24,1.29-.71,1.76s-1.07.84-1.81,1.08c-.73.24-1.49.37-2.27.37-1.4,0-2.64-.39-3.73-1.17s-1.81-1.89-2.16-3.33l-4.96.73c.26,1.7.86,3.16,1.82,4.39.96,1.23,2.19,2.17,3.68,2.83s3.17.99,5.03.99c1.28,0,2.52-.16,3.73-.49s2.28-.82,3.24-1.47c.95-.66,1.71-1.49,2.28-2.5s.85-2.18.85-3.53c0-1.27-.24-2.31-.71-3.14-.47-.83-1.07-1.49-1.8-2Z"
     id="path24"
     style="fill:#000000" />
  <path
     class="cls-4"
     d="m265.96,268.78c1.49-.23,2.71-.73,3.67-1.48.96-.76,1.67-1.71,2.13-2.85.46-1.15.69-2.42.69-3.83s-.23-2.68-.68-3.83c-.45-1.15-1.16-2.1-2.12-2.85-.96-.76-2.19-1.25-3.69-1.48-.33-.06-.7-.1-1.11-.11-.41-.02-.74-.03-.99-.03h-10.61v25.13h4.75v-8.52h5.86c.23,0,.56-.01.98-.04.42-.02.79-.06,1.12-.1Zm-2.3-4.29h-5.65v-7.75h5.65c.24,0,.51.01.8.03.29.02.56.07.8.14.64.17,1.13.47,1.48.88.35.41.59.87.72,1.38.13.51.2.99.2,1.44s-.07.93-.2,1.44-.37.97-.72,1.38c-.35.41-.84.71-1.48.88-.24.07-.51.12-.8.14-.29.02-.56.03-.8.03Z"
     id="path25"
     style="fill:#000000" />
  <path
     class="cls-4"
     d="m297.79,252.31l-7.68,25.13h4.89l1.59-5.24h9.46l1.62,5.24h4.89l-7.68-25.13h-7.09Zm.15,15.46l3.35-11.01,3.4,11.01h-6.75Z"
     id="path26"
     style="fill:#000000" />
  <path
     class="cls-4"
     d="m354.86,270.01l-4.78-1.33c-.47,1.51-1.25,2.69-2.36,3.54-1.11.85-2.53,1.27-4.28,1.27-1.59,0-2.92-.35-3.99-1.06s-1.86-1.71-2.4-3c-.54-1.29-.8-2.81-.8-4.56s.27-3.26.8-4.56c.53-1.29,1.33-2.29,2.4-3s2.39-1.06,3.99-1.06c1.75,0,3.17.42,4.28,1.27,1.1.84,1.89,2.03,2.36,3.55l4.78-1.33c-.8-2.44-2.18-4.38-4.14-5.81-1.96-1.43-4.38-2.15-7.27-2.15-2.51,0-4.68.55-6.5,1.64-1.82,1.09-3.22,2.62-4.21,4.59-.98,1.97-1.47,4.25-1.47,6.86s.49,4.89,1.47,6.86,2.38,3.5,4.21,4.59c1.82,1.09,3.99,1.64,6.5,1.64,2.89,0,5.31-.72,7.27-2.15,1.96-1.43,3.34-3.37,4.14-5.81Z"
     id="path27"
     style="fill:#000000" />
  <polygon
     class="cls-4"
     points="392.77 273.01 381.11 273.01 381.11 266.55 390.67 266.55 390.67 262.12 381.11 262.12 381.11 256.74 392.77 256.74 392.77 252.31 376.36 252.31 376.36 277.44 392.77 277.44 392.77 273.01"
     id="polygon27"
     style="fill:#000000" />
  <path
     class="cls-4"
     d="m430.3,264.83c-.73-.51-1.49-.9-2.28-1.19-.79-.28-1.51-.51-2.16-.69l-4.36-1.19c-.54-.14-1.06-.31-1.57-.52-.51-.21-.94-.49-1.27-.83-.34-.34-.51-.79-.51-1.33,0-.59.21-1.11.62-1.54s.95-.76,1.61-.99c.66-.23,1.36-.33,2.1-.31.76.02,1.48.18,2.17.47.69.29,1.29.72,1.79,1.27.5.56.84,1.25,1.03,2.06l5.13-.87c-.41-1.57-1.07-2.9-1.99-3.99-.92-1.09-2.06-1.92-3.42-2.49-1.36-.57-2.91-.87-4.64-.89-1.72-.01-3.29.26-4.71.8s-2.55,1.38-3.4,2.5-1.27,2.52-1.27,4.21c0,1.2.2,2.19.6,2.98s.9,1.42,1.51,1.89c.6.48,1.23.84,1.88,1.1.65.26,1.21.45,1.7.59l6.53,1.92c.49.15.89.32,1.21.51.32.19.57.38.74.59.17.21.3.43.37.67.08.24.11.49.11.74,0,.7-.24,1.29-.71,1.76s-1.07.84-1.81,1.08c-.73.24-1.49.37-2.27.37-1.4,0-2.64-.39-3.73-1.17s-1.81-1.89-2.16-3.33l-4.96.73c.26,1.7.86,3.16,1.82,4.39.96,1.23,2.19,2.17,3.68,2.83s3.17.99,5.03.99c1.28,0,2.52-.16,3.73-.49s2.28-.82,3.24-1.47c.95-.66,1.71-1.49,2.28-2.5s.85-2.18.85-3.53c0-1.27-.24-2.31-.71-3.14-.47-.83-1.07-1.49-1.8-2Z"
     id="path28"
     style="fill:#000000" />
  <path
     class="cls-4"
     d="m226.58,288.71c-.9-.7-1.98-1.15-3.24-1.35-.31-.06-.61-.1-.9-.11-.29-.02-.55-.03-.79-.03h-9.48v25.13h2.01v-9.79h7.47c.24,0,.51-.01.79-.04.28-.02.58-.06.9-.1,1.26-.2,2.34-.65,3.24-1.35s1.59-1.59,2.07-2.65c.48-1.06.72-2.24.72-3.53s-.24-2.45-.72-3.52c-.48-1.06-1.17-1.95-2.07-2.65Zm.22,8.63c-.3.78-.76,1.45-1.36,2s-1.36.92-2.27,1.11c-.28.05-.56.08-.83.1s-.51.03-.72.03h-7.44v-11.41h7.44c.21,0,.45.01.72.03.27.02.55.06.83.12.91.19,1.66.56,2.27,1.11.6.55,1.06,1.22,1.36,1.99.3.77.45,1.59.45,2.45s-.15,1.68-.45,2.46Z"
     id="path29"
     style="fill:#000000" />
  <polygon
     class="cls-4"
     points="242.89 287.21 240.88 287.21 240.88 312.35 255.1 312.35 255.1 310.39 242.89 310.39 242.89 287.21"
     id="polygon29"
     style="fill:#000000" />
  <path
     class="cls-4"
     d="m272.9,287.21l-8.9,25.13h2.13l2.23-6.32h11.57l2.24,6.32h2.13l-8.9-25.13h-2.5Zm-3.87,16.91l5.09-14.44,5.13,14.44h-10.22Z"
     id="path30"
     style="fill:#000000" />
  <polygon
     class="cls-4"
     points="290.93 289.17 299.94 289.17 299.94 312.35 301.94 312.35 301.94 289.17 310.95 289.17 310.95 287.21 290.93 287.21 290.93 289.17"
     id="polygon30"
     style="fill:#000000" />
  <polygon
     class="cls-4"
     points="321.42 312.35 323.43 312.35 323.43 300.79 333.51 300.79 333.51 298.77 323.43 298.77 323.43 289.22 335.61 289.22 335.61 287.21 321.42 287.21 321.42 312.35"
     id="polygon31"
     style="fill:#000000" />
  <path
     class="cls-4"
     d="m362.76,288.36c-1.69-1.11-3.79-1.67-6.29-1.67s-4.6.56-6.3,1.67c-1.7,1.11-2.98,2.65-3.84,4.62-.86,1.97-1.29,4.24-1.29,6.81s.43,4.84,1.29,6.81c.86,1.97,2.14,3.51,3.84,4.62,1.7,1.11,3.8,1.67,6.3,1.67s4.6-.56,6.29-1.67,2.97-2.65,3.83-4.62c.86-1.97,1.29-4.23,1.29-6.81s-.43-4.84-1.29-6.81c-.86-1.97-2.14-3.5-3.83-4.62Zm1.95,17.2c-.69,1.67-1.72,2.99-3.09,3.94s-3.09,1.42-5.15,1.4c-2.06,0-3.78-.47-5.17-1.42-1.38-.95-2.42-2.26-3.12-3.93-.69-1.67-1.03-3.59-1-5.77s.38-4.1,1.06-5.79c.69-1.68,1.71-2.99,3.08-3.94,1.37-.94,3.08-1.41,5.14-1.4,2.06,0,3.78.47,5.15,1.41s2.4,2.25,3.09,3.93,1.03,3.6,1.03,5.78-.34,4.1-1.03,5.78Z"
     id="path31"
     style="fill:#000000" />
  <path
     class="cls-4"
     d="m394.75,299.71c.99-1.37,1.48-2.98,1.48-4.83,0-1.28-.24-2.45-.72-3.52-.48-1.06-1.17-1.95-2.07-2.65-.9-.7-1.98-1.15-3.24-1.35-.31-.06-.61-.1-.9-.11-.29-.02-.55-.03-.79-.03h-9.48v25.13h2.01v-9.79h8.73l4.74,9.79h2.36l-5.06-10.38c1.2-.47,2.18-1.22,2.93-2.26Zm-6.27.87h-7.44v-11.41h7.44c.21,0,.45.01.72.03.27.02.55.06.83.12.91.19,1.66.56,2.27,1.11.6.55,1.06,1.22,1.36,1.99.3.77.45,1.59.45,2.45s-.15,1.68-.45,2.46c-.3.78-.76,1.45-1.36,2s-1.36.92-2.27,1.11c-.28.05-.56.08-.83.1s-.51.03-.72.03Z"
     id="path32"
     style="fill:#000000" />
  <polygon
     class="cls-4"
     points="420.57 309.45 410.27 287.21 408.4 287.21 408.4 312.35 410.36 312.35 410.36 291.84 419.73 312.35 421.37 312.35 430.72 291.84 430.72 312.31 432.69 312.31 432.69 287.21 430.76 287.21 420.57 309.45"
     id="polygon32"
     style="fill:#000000" />
  <path
     class="cls-1"
     d="m67.28,286.61c.06.05.1.09.17.15.05.04.11.07.16.11-.05-.04-.23-.19-.5-.4.06.05.12.1.18.15,0,0,0,0-.01,0Z"
     id="path33" />
  <path
     class="cls-1"
     d="m64.4,284.2c.67.61,1.98,1.68,2.71,2.27-.93-.73-1.84-1.48-2.71-2.27Z"
     id="path34" />
  <path
     class="cls-3"
     d="m113.37,301.8c-1.58,0-3.14-.06-4.7-.16-.3-.02-.61-.03-.91-.06-1.5-.11-3-.26-4.48-.45-.26-.03-.51-.07-.77-.11-1.45-.2-2.9-.44-4.32-.72-.1-.02-.2-.03-.29-.05-1.5-.3-2.97-.66-4.44-1.05-.26-.07-.51-.14-.77-.21-1.45-.4-2.89-.84-4.31-1.32-.13-.05-.26-.09-.39-.14-1.4-.49-2.79-1.01-4.15-1.57-.11-.04-.22-.09-.33-.13-1.4-.58-2.78-1.21-4.14-1.88-.19-.09-.38-.19-.57-.28-1.37-.68-2.73-1.4-4.05-2.16,0,0,0,0,0,0-1.12-.65-2.23-1.33-3.31-2.03-.2-.13-.41-.26-.61-.4-1.08-.71-2.15-1.44-3.19-2.2,0,0-.02-.02-.03-.02-.05-.04-.11-.07-.16-.11-.06-.05-.11-.1-.17-.15,0,0,0,0,.01,0-.06-.05-.12-.1-.18-.15-.73-.59-2.04-1.66-2.71-2.27-2.3-1.72-4.46-3.61-6.44-5.69,0,0,0,0,0,0-1.77-1.87-3.41-3.85-4.89-5.96-1.22-1.74-2.34-3.56-3.34-5.45-3.02-5.67-5.01-11.96-5.73-18.63-.18-2.01-.28-4.04-.3-6.1.26-28.35,23.4-51.34,51.81-51.34h31.87v-43.68h-31.87c-1.97,0-3.91.08-5.85.2C39.71,150.56,0,192.14,0,242.84s42.84,95.5,95.5,95.5c45.07,0,84.4-32.02,93.53-76.13,1.11-5.39,1.73-10.9,1.9-16.41.07-1.31.08-4.8.08-5.23v-9.95s0,0,0,0v-.07s0-5.33,0-5.33c-.59,42.39-35.11,76.57-77.64,76.57Z"
     id="path35" />
  <path
     class="cls-6"
     d="m242.57,0c-45.07,0-84.4,32.02-93.53,76.13-1.11,5.39-1.73,10.9-1.9,16.41-.07,1.31-.08,4.8-.08,5.23v9.95s0,0,0,0v.07s0,5.33,0,5.33c.59-42.39,35.11-76.57,77.64-76.57,1.58,0,3.14.06,4.7.16.3.02.61.03.91.06,1.5.11,3,.26,4.48.45.26.03.51.07.77.11,1.45.2,2.9.44,4.32.72.1.02.2.03.29.05,1.5.3,2.97.66,4.44,1.05.26.07.51.14.77.21,1.45.4,2.89.84,4.31,1.32.13.04.26.09.39.14,1.4.49,2.79,1.01,4.15,1.57.11.04.22.09.33.13,1.4.58,2.78,1.21,4.14,1.88.19.09.38.19.57.28,1.37.68,2.73,1.4,4.05,2.16,0,0,0,0,0,0,1.12.65,2.23,1.33,3.31,2.03.2.13.41.26.61.4,1.08.71,2.15,1.44,3.19,2.2,0,0,.02.02.03.02.05.04.11.07.16.11.06.05.11.1.17.15,0,0,0,0-.01,0,.06.05.12.1.18.15.73.59,2.04,1.66,2.71,2.27,2.3,1.72,4.46,3.61,6.44,5.69,0,0,0,0,0,0,1.77,1.87,3.41,3.85,4.89,5.96,1.22,1.74,2.34,3.56,3.34,5.45,3.02,5.67,5.01,11.96,5.73,18.63.18,2.01.28,4.04.3,6.1-.26,28.35-23.4,51.34-51.81,51.34h-31.87v43.68h31.87c1.97,0,3.91-.08,5.85-.2,49.95-3.03,89.66-44.61,89.66-95.31S295.24,0,242.57,0Z"
     id="path36" />
  <path
     class="cls-2"
     d="m270.48,51.47c-1.05-.77-2.13-1.51-3.22-2.22-.2-.13-.41-.27-.61-.4-1.09-.7-2.19-1.38-3.31-2.03,0,0,0,0,0,0h0c-1.33-.76-2.68-1.48-4.05-2.16-.19-.09-.38-.19-.57-.28-1.36-.66-2.74-1.29-4.14-1.88-.11-.05-.22-.09-.33-.13-1.37-.56-2.75-1.09-4.15-1.57-.13-.05-.26-.1-.39-.14-1.42-.48-2.86-.92-4.31-1.32-.26-.07-.51-.14-.77-.21-1.46-.39-2.94-.74-4.44-1.05-.1-.02-.2-.03-.29-.05-1.43-.28-2.87-.52-4.32-.72-.26-.04-.51-.08-.77-.11-1.48-.19-2.97-.34-4.48-.45-.3-.02-.61-.04-.91-.06-1.56-.09-3.12-.16-4.7-.16-42.53,0-77.05,34.18-77.64,76.57l-.07,130.36c-.06,16.66-8.07,31.58-20.49,41.04h0s0,0,0,0c-.22.17-.45.32-.67.48-.04.03-.07.05-.11.08-5.08,3.73-10.94,6.29-17.05,7.84-.58.15-1.07.27-1.45.36-.28.06-.55.14-.83.2-.1.02-.16.04-.16.04h0c-2.41.5-4.89.86-7.42,1.02-.47.03-.95.05-1.43.07h-.2c-.56.03-1.12.05-1.69.05-10.49,0-20.25-3.15-28.41-8.53-.44-.29-.87-.61-1.31-.91-.47-.33-.93-.68-1.39-1.02.87.79,1.78,1.54,2.71,2.27.26.21.44.36.5.4,1.05.77,2.13,1.51,3.22,2.22.2.13.41.27.61.4,1.09.7,2.19,1.38,3.31,2.03,0,0,0,0,0,0h0c1.33.76,2.68,1.48,4.05,2.16.19.09.38.19.57.28,1.36.66,2.74,1.29,4.14,1.88.11.05.22.09.33.13,1.37.56,2.75,1.09,4.15,1.57.13.05.26.1.39.14,1.42.48,2.86.92,4.31,1.32.26.07.51.14.77.21,1.46.39,2.94.74,4.44,1.05.1.02.2.03.29.05,1.43.28,2.87.52,4.32.72.26.04.51.08.77.11,1.48.19,2.97.34,4.48.45.3.02.61.04.91.06,1.56.09,3.12.16,4.7.16,42.53,0,77.05-34.18,77.64-76.57l.07-130.36c.06-16.66,8.07-31.58,20.49-41.04h0s0,0,0,0c.22-.17.45-.32.67-.48.04-.03.07-.05.11-.08,5.08-3.73,10.94-6.29,17.05-7.84.58-.15,1.07-.27,1.45-.36.28-.06.55-.14.83-.2.1-.02.16-.04.16-.04h0c2.41-.5,4.89-.86,7.42-1.02.47-.03.95-.05,1.43-.07h.2c.56-.03,1.12-.05,1.69-.05,10.49,0,20.25,3.15,28.41,8.53.44.29.87.61,1.31.91.47.33.93.68,1.39,1.02-.87-.79-1.78-1.54-2.71-2.27-.26-.21-.44-.36-.5-.4Z"
     id="path37" />
  <polygon
     class="cls-5"
     points="74.75 291.51 74.75 291.51 74.75 291.51 74.75 291.51"
     id="polygon37" />
  <path
     class="cls-5"
     d="m70.82,289.09c-1.09-.72-2.17-1.45-3.22-2.22,0,0,.02.02.03.02,1.04.76,2.11,1.49,3.19,2.2Z"
     id="path38" />
</svg>
