<svg xmlns="http://www.w3.org/2000/svg" role="img" viewBox="-11.87 -6.37 208.23 330.98"><g fill="#b49823"><path d="M88.654 0l85.333 193.698h-54.095l-7.05-16.586h-8.598c-1.683-2.48-1.508-2.97-4.393-3.3-6.438-.336-7.297-1.151-7.297-5.932 0-4.298 1.907-12.378 2.068-15.495.175-3.97-.331-5.44-.331-8.248 0-2.81 1.868-5.943 2.198-12.54.346-6.59-1.23-11.355-1.23-11.355 1.379-.183 3.055-1.161 3.574-2.323.671-1.64 2.877-10.555 2.877-14.172 0-1.486-.166-2.799-.5-3.79-1.554-3.653-6.066-3.018-8.098-5.355-.637-.729-1.036-.688-1.082-3.319 1.058-1.45 1.383-3.631 1.383-6.777 0-2.623-2.047-4.653-4.76-4.653-2.722 0-4.761 2.03-4.761 4.653 0 3.146.322 5.327 1.383 6.777-.05 2.631-.45 2.59-1.09 3.319-2.027 2.337-6.534 1.702-8.101 5.355-.328.991-.486 2.304-.486 3.79 0 3.617 2.2 12.532 2.869 14.172.52 1.162 2.202 2.14 3.568 2.323 0 0-1.57 4.764-1.226 11.356.334 6.596 2.203 9.73 2.203 12.539 0 2.809-.512 4.278-.334 8.248.163 3.117 2.07 11.197 2.07 15.495 0 4.78-.856 5.596-7.296 5.933-2.881.329-2.713.82-4.391 3.299h-8.6l-7.049 16.586H3.315L88.654 0zm91.504 186.807c-2.421 0-4.396 1.96-4.396 4.37a4.4 4.4 0 0 0 4.396 4.388c2.408 0 4.368-1.97 4.368-4.388 0-2.41-1.96-4.37-4.368-4.37m0 8.143c-2.116 0-3.775-1.657-3.775-3.773 0-2.069 1.693-3.752 3.775-3.752a3.754 3.754 0 0 1 3.75 3.752c0 2.116-1.648 3.773-3.75 3.773"/><path d="M181.029 191.292c.41-.245.632-.656.632-1.19 0-.506-.192-.902-.55-1.152-.369-.272-.792-.272-1.167-.272h-1.26v5.01h.685v-2.18h.515l1.342 2.165.02.019h.742l-1.31-2.253c.117-.031.24-.077.358-.147m-.991-.457h-.669v-1.488H180c.214 0 .436 0 .609.092.272.123.373.416.373.65a.732.732 0 0 1-.263.58c-.177.155-.411.166-.673.166M10.342 289.076l1.984 5.245h-3.98l1.996-5.245zM5.3 299.35h1.135l1.512-3.98h4.776l1.508 3.98h1.133l-5.022-13.145L5.3 299.35zm14.626-11.399h-1.059v4.613h1.16c.77 0 1.455-.039 2.094-.515.47-.354.748-1.024.748-1.804 0-.73-.31-1.654-1.193-2.046-.485-.229-1.103-.25-1.75-.25m3.734 11.396l-3.621-5.718h-1.172v5.718h-1.096v-12.447h2.015c.926 0 1.977 0 2.862.64.842.593 1.289 1.54 1.289 2.736 0 1.145-.493 2.157-1.318 2.715-.397.267-.856.443-1.39.544l3.68 5.812H23.66zm2.673-12.45l-.401 1.046h3.21v11.411h1.097v-11.41h3.21v-1.047h-7.116zm50.262 1.052h2.032c1.705 0 2.814.372 3.814 1.279 1.095 1.005 1.703 2.39 1.703 3.913a5.265 5.265 0 0 1-1.563 3.746c-1.01.991-2.188 1.417-3.954 1.417h-2.032v-10.355zm6.662.519c-1.407-1.301-2.857-1.566-4.613-1.566h-3.15v12.45h3.15c1.54 0 3.172-.204 4.678-1.654 1.236-1.188 1.914-2.807 1.914-4.557 0-1.814-.7-3.473-1.98-4.673m-29.732.597l1.981 5.245h-3.977l1.996-5.245zm-5.046 10.27h1.14l1.51-3.974h4.777l1.505 3.975h1.135l-5.021-13.143-5.046 13.143zm12.23.015h1.095v-10.17L71.983 300v-13.102h-1.1v10.339l-10.175-10.745v12.856zm67.665 0h1.097v-10.17L139.647 300v-13.102h-1.1v10.339l-10.174-10.745v12.856zm-14.103 0h1.095v-12.452h-1.094v12.452zm4.866-12.448v12.45h5.488l.4-1.05h-4.789v-5.09h4.516v-1.051h-4.516v-4.214h5.618l-.402-1.046h-6.315zm36.209 0v12.45h5.486l.404-1.05h-4.793v-5.09h4.519v-1.051h-4.52v-4.214h5.621l-.402-1.046h-6.315zm-44.596 11.688c-.563.359-1.751.96-3.446.96a6.394 6.394 0 0 1-4.546-1.88 6.436 6.436 0 0 1 0-9.091 6.398 6.398 0 0 1 4.546-1.88c2.416 0 3.806 1.223 3.806 1.223l.52 1.402s-1.77-1.567-4.326-1.567a5.362 5.362 0 0 0-5.368 5.367c0 1.433.558 2.782 1.568 3.792a5.369 5.369 0 0 0 3.8 1.57c1.887 0 3.354-.858 3.984-1.307l-.538 1.406zm-15.539.964c-1.506 0-2.85-.762-3.6-2.037l-.085-.142.478-1.229.349.565c.765 1.22 1.657 1.765 2.893 1.765 1.611 0 2.823-1.082 2.823-2.515 0-1.352-1.493-2.11-2.482-2.612l-.274-.138a4.485 4.485 0 0 0-.296-.143c-.913-.44-2.825-1.354-2.825-3.273 0-1.796 1.378-3.092 3.263-3.092 1.402 0 2.345.736 2.345.736l.483 1.248s-1.479-.91-2.876-.91c-1.229 0-2.119.85-2.119 2.018 0 1.193 1.236 1.814 2.335 2.36l.202.101c.085.045.168.085.263.131 1.087.527 3.107 1.513 3.107 3.641 0 1.98-1.751 3.528-3.985 3.528m56.81-.966c-.56.359-1.754.96-3.449.96a6.382 6.382 0 0 1-4.54-1.88 6.436 6.436 0 0 1 0-9.091 6.391 6.391 0 0 1 4.54-1.88c2.42 0 3.814 1.223 3.814 1.223l.517 1.402s-1.774-1.567-4.33-1.567a5.341 5.341 0 0 0-3.793 1.572 5.34 5.34 0 0 0-1.573 3.795c0 1.433.56 2.782 1.573 3.792a5.349 5.349 0 0 0 3.792 1.57c1.895 0 3.357-.858 3.99-1.307l-.541 1.406zm15.387.964c-1.505 0-2.854-.762-3.604-2.037l-.083-.142.478-1.229.352.565c.762 1.22 1.652 1.765 2.888 1.765 1.61 0 2.825-1.082 2.825-2.515 0-1.352-1.493-2.11-2.481-2.612-.098-.048-.19-.096-.277-.138a4.09 4.09 0 0 0-.296-.143c-.914-.44-2.82-1.354-2.82-3.273 0-1.796 1.377-3.092 3.258-3.092 1.407 0 2.347.736 2.347.736l.479 1.248s-1.475-.91-2.874-.91c-1.229 0-2.116.85-2.116 2.018 0 1.193 1.238 1.814 2.332 2.36l.207.101c.077.045.164.085.26.131 1.087.527 3.107 1.513 3.107 3.641 0 1.98-1.75 3.528-3.983 3.528m-128.957-.002c-1.506 0-2.853-.762-3.605-2.037l-.08-.142.48-1.229.353.565c.758 1.22 1.65 1.765 2.886 1.765 1.611 0 2.823-1.082 2.823-2.515 0-1.352-1.491-2.11-2.482-2.612l-.271-.138a4.485 4.485 0 0 0-.296-.143c-.917-.44-2.826-1.354-2.826-3.273 0-1.796 1.378-3.092 3.259-3.092 1.409 0 2.35.736 2.35.736l.478 1.248s-1.477-.91-2.874-.91c-1.229 0-2.119.85-2.119 2.018 0 1.193 1.239 1.814 2.335 2.36l.205.101c.077.045.165.085.26.131 1.086.527 3.109 1.513 3.109 3.641 0 1.98-1.75 3.528-3.985 3.528m62.775-26.706l-10.172-10.74v12.856h1.092v-10.175l10.177 10.824v-13.101h-1.097v10.336zm-30.6 2.115h1.094v-12.447h-1.094v12.447zm85.031-4.929c0 1.08 0 2.2-.593 2.965-.59.765-1.758 1.111-2.595 1.111-.837 0-2.01-.346-2.6-1.113-.594-.765-.594-1.883-.594-2.963v-7.52h-1.101v7.744c0 1.27 0 2.366.865 3.43.813.925 2.09 1.476 3.43 1.476 1.332 0 2.614-.551 3.427-1.482.863-1.058.863-2.154.863-3.424v-7.744h-1.102v7.52zM6.423 274.106a5.368 5.368 0 1 1 .002-10.737 5.368 5.368 0 0 1-.002 10.737m0-11.791A6.422 6.422 0 0 0 0 268.738a6.423 6.423 0 1 0 12.847 0 6.422 6.422 0 0 0-6.424-6.423m46.114 11.791a5.368 5.368 0 0 1 0-10.735 5.365 5.365 0 0 1 5.365 5.367c0 2.963-2.4 5.368-5.365 5.368m0-11.791a6.422 6.422 0 0 0-6.424 6.423 6.423 6.423 0 1 0 12.845 0 6.42 6.42 0 0 0-6.421-6.423m-35.517 6.377h3.502v-1.048H17.02v-4.079h4.675l-.401-1.05H15.92v12.447h1.1v-6.27zm26.781 6.271h1.138l-5.024-13.143-4.016 10.466-4.002-10.466-5.045 13.143h1.138l3.907-10.269 3.432 9.071.565 1.496 4.021-10.567 3.886 10.269zm19.544 0h1.097V263.56h3.21v-1.046h-7.111l-.404 1.046h3.208v11.402zm18.242-.857a5.368 5.368 0 0 1 0-10.735 5.369 5.369 0 1 1 0 10.735m0-11.791a6.424 6.424 0 1 0 .002 12.85 6.424 6.424 0 0 0-.002-12.85m81.107 1.255h-1.058v4.615h1.162c.767 0 1.457-.04 2.092-.517.469-.354.748-1.027.748-1.804 0-.733-.313-1.654-1.19-2.044-.489-.233-1.107-.25-1.754-.25m3.735 11.394l-3.62-5.719h-1.173v5.719h-1.094v-12.45h2.01c.93 0 1.98 0 2.864.642.842.592 1.29 1.542 1.29 2.742 0 1.14-.491 2.154-1.318 2.71-.4.264-.854.447-1.393.546l3.682 5.81h-1.248zm-52.093-11.396h-1.058v4.618h1.161c.767 0 1.455-.04 2.095-.518.469-.35.748-1.024.748-1.8 0-.734-.31-1.657-1.19-2.047-.489-.233-1.11-.253-1.754-.253m.114 5.68h-1.174v5.717h-1.094v-12.452h2.016c.928 0 1.979 0 2.861.644.847.594 1.294 1.542 1.294 2.742 0 1.142-.507 2.133-1.32 2.712-.87.618-1.703.638-2.583.638m6.988 5.714h1.096v-12.447h-1.097v12.447zm19.775 0h1.096V263.56h3.208v-1.046h-7.108l-.407 1.046h3.21v11.402zm29.145-12.448v12.448h5.487l.4-1.049h-4.789v-5.09h4.519v-1.05h-4.519v-4.213h5.618l-.402-1.046h-6.315zm-34.845 11.686c-.56.36-1.75.962-3.446.962a6.395 6.395 0 0 1-4.545-1.885 6.427 6.427 0 0 1 0-9.083 6.4 6.4 0 0 1 4.545-1.88c2.417 0 3.812 1.22 3.812 1.22l.512 1.4s-1.767-1.565-4.324-1.565c-1.423 0-2.78.555-3.792 1.57a5.344 5.344 0 0 0-1.575 3.795c0 1.436.56 2.782 1.575 3.792a5.337 5.337 0 0 0 3.792 1.573c1.893 0 3.355-.86 3.987-1.306l-.54 1.402zM83.552 240.14h1.619c1.522 0 2.5.32 3.381 1.115a4.63 4.63 0 0 1 1.5 3.454c0 1.24-.49 2.414-1.375 3.304-.887.868-1.936 1.24-3.506 1.24h-1.619v-9.114zm6.239-.105c-1.414-1.31-2.865-1.577-4.603-1.577h-3.324v12.474h3.324c1.532 0 3.152-.2 4.672-1.66 1.234-1.192 1.915-2.813 1.915-4.564 0-1.813-.705-3.473-1.984-4.673m38.775-1.573l-3.275 5.543-3.276-5.547h-1.895l4.331 7.5v4.976h1.677v-4.976l4.336-7.496h-1.898zm-26.678 1.628l-.625-1.63h-6.705v12.47h5.892l.623-1.632h-4.836v-4.223h4.432v-1.633h-4.432v-3.352h5.651zm-34.068 1.105s-1.767-1.243-4.302-1.243c-1.26 0-2.453.493-3.352 1.39a4.718 4.718 0 0 0-1.388 3.357c0 1.265.49 2.456 1.388 3.353l.102.102a4.722 4.722 0 0 0 3.251 1.289c2.292 0 4.17-1.388 4.17-1.388l-.786 2.085c-.601.366-1.79.996-3.384.996a6.406 6.406 0 0 1-4.552-1.886 6.391 6.391 0 0 1-1.88-4.55c0-1.722.668-3.34 1.88-4.552a6.406 6.406 0 0 1 4.552-1.886c1.847 0 3.095.707 3.595 1.059l.707 1.875zm-18.091 4.95l1.611-3.963 1.606 3.963H49.73zm5.16 4.776h1.76l-5.307-13.056-5.307 13.056h1.76l1.282-3.15h4.54l1.28 3.15zm17.867-4.776l1.609-3.963 1.608 3.963h-3.217zm5.156 4.776h1.762l-5.305-13.056-5.31 13.056h1.76l1.28-3.15h4.543l1.277 3.15zm37.572-13.055l-3.766 9.266-3.77-9.266-5.308 13.054h1.758l3.55-8.737 3.773 9.278 3.768-9.278 3.552 8.737h1.758l-5.307-13.054z"/></g><path d="M-4.10587 307.3706c-.86946.87663-1.30509 2.12794-1.30509 3.74854 0 1.50049.38364 2.68188 1.14733 3.54237.76548.85691 1.816 1.28537 3.15157 1.28537 1.0792 0 1.9648-.31731 2.65678-.95193.69019-.63282 1.12044-1.45746 1.28895-2.47034H.91189c-.13086.47865-.294.83899-.49299 1.07742-.35674.44638-.87484.66867-1.55606.66867-.6633 0-1.21187-.25994-1.64211-.77803-.43025-.51988-.64538-1.2997-.64538-2.34126s.20437-1.84828.61131-2.41656c.40695-.57008.96448-.85512 1.6708-.85512.69198 0 1.21545.20257 1.56861.60593.1972.22588.35854.5629.48583 1.0075h1.9397c-.02869-.57904-.24381-1.1563-.64179-1.73354-.72246-1.02364-1.8662-1.53635-3.42944-1.53635-1.16704 0-2.12972.38185-2.88624 1.14733zm2.83067-1.25489zm9.73615 7.74626c-.28145.37288-.6848.56111-1.21007.56111-.52526 0-.92862-.18823-1.21186-.56111-.28504-.37468-.42667-.90532-.42667-1.5955 0-.6884.14163-1.21904.42667-1.59192.28324-.3711.6866-.55753 1.21186-.55753s.92862.18644 1.21007.55753c.28146.37288.42308.90352.42308 1.59191 0 .6902-.14162 1.22083-.42308 1.5955zm1.43775.99136c.57904-.71529.86946-1.57758.86946-2.58687 0-.99136-.29042-1.85006-.86946-2.5779-.58083-.72604-1.46105-1.08996-2.64065-1.08996-1.18139 0-2.0616.36392-2.64064 1.08996-.58084.72784-.86946 1.58654-.86946 2.5779 0 1.0093.28862 1.87158.86946 2.58687.57904.71708 1.45925 1.07562 2.64064 1.07562 1.1796 0 2.05982-.35854 2.64065-1.07562zm-2.64065-6.21708zm6.6294 7.05248v-9.28977h-1.79628v9.28977zm6.045-1.82676c-.28146.37288-.68482.56111-1.21008.56111-.52526 0-.93041-.18823-1.21366-.56111-.28324-.37468-.42487-.90532-.42487-1.5955 0-.6884.14163-1.21904.42487-1.59192.28325-.3711.6884-.55753 1.21366-.55753s.92862.18644 1.21007.55753c.28146.37288.42129.90352.42129 1.59191 0 .6902-.13983 1.22083-.42129 1.5955zm1.43594.99136c.58084-.71529.86946-1.57758.86946-2.58687 0-.99136-.28862-1.85006-.86946-2.5779-.57904-.72604-1.45925-1.08996-2.64064-1.08996-1.1796 0-2.05981.36392-2.64065 1.08996-.57904.72784-.86946 1.58654-.86946 2.5779 0 1.0093.29042 1.87158.86946 2.58687.58084.71708 1.46105 1.07562 2.64065 1.07562 1.18139 0 2.0616-.35854 2.64064-1.07562zm-2.64064-6.21708zm8.61213.0215c-.0233-.00178-.0502-.00178-.08426-.00178-.5378 0-.97523.13983-1.31046.42128-.20616.16851-.44818.48224-.72605.93938v-1.19753H23.5053v6.86963h1.80884v-3.28243c0-.55216.06991-.9591.20795-1.22442.2474-.46969.73321-.70453 1.45567-.70453.05558 0 .12728.0018.21513.00538.08784.00538.18823.01255.30296.0251v-1.83931c-.08067-.00538-.13266-.00718-.15596-.01076zm11.6884-2.2588h-7.52575v1.6457h2.79302v7.64408h1.95405v-7.64407h2.77868zm4.80623 2.2588c-.0233-.00178-.05199-.00178-.08605-.00178-.5378 0-.97343.13983-1.31046.42128-.20616.16851-.44818.48224-.72425.93938v-1.19753h-1.71382v6.86963h1.80883v-3.28243c0-.55216.06812-.9591.20795-1.22442.2474-.46969.73142-.70453 1.45568-.70453.05378 0 .12548.0018.21333.00538.08784.00538.19002.01255.30296.0251v-1.83931c-.08067-.00538-.13086-.00718-.15417-.01076zm4.99446 3.69118v.66868c-.01255.60055-.18106 1.01466-.50733 1.24054-.32627.22768-.68123.34062-1.06845.34062-.2438 0-.44997-.06813-.62027-.20437-.17031-.13625-.25636-.35854-.25636-.6651 0-.3442.13983-.59875.4159-.76368.16493-.0968.43563-.17748.8139-.2456l.40335-.0753c.20078-.03764.36033-.07887.47506-.1219.11653-.04482.23126-.10218.3442-.1739zm-1.08996-.83898l-.6113.07529c-.69378.08963-1.21905.23663-1.5758.4428-.65074.37826-.97701.98957-.97701 1.83393 0 .65075.20257 1.1545.60772 1.50945.40515.35496.91966.53243 1.54172.53243.48762 0 .92324-.11114 1.31047-.33523.32268-.18824.60952-.4177.8569-.6866.01256.15596.0287.294.0502.4159.02152.1219.05916.25277.11294.3908h1.95405v-.26531c-.11653-.05378-.20616-.1237-.26353-.20795-.05916-.08247-.09501-.24202-.10756-.47865-.00897-.31014-.01255-.57546-.01255-.79417v-3.14977c0-.82823-.29221-1.39114-.87663-1.69052-.58442-.29759-1.2513-.44638-2.00424-.44638-1.1545 0-1.97018.30117-2.44524.9071-.2976.38723-.4661.88022-.50375 1.48077h1.73354c.04123-.26532.12549-.47506.25098-.62923.17747-.21154.47686-.31552.90173-.31552.37825 0 .66509.05378.8605.15955.1954.10756.2922.30297.2922.58442 0 .23126-.12728.39977-.38364.50913-.14341.06453-.38005.11652-.7117.15776zm.09322-2.8737zm9.93694.57725c-.45176-.37289-1.0326-.55753-1.7425-.55753-.5683 0-1.03619.13803-1.40548.4159-.20616.15418-.42487.40874-.65613.7619v-1.00212h-1.73354v6.85708h1.7909v-3.71806c0-.42487.05916-.77265.17569-1.04694.22767-.5163.64537-.77444 1.25489-.77444.49479 0 .83181.17568 1.0075.52884.0968.19361.1452.47148.1452.83182v4.17878h1.8411v-4.62517c0-.86229-.22587-1.47897-.67763-1.85006zm-2.40401-.57725zm6.1382 4.86h-1.82138c0 .70454.25636 1.28537.77086 1.74251.5163.45535 1.31226.68302 2.39325.68302 1.0577 0 1.8411-.21512 2.34665-.64537.50733-.43025.7601-.98599.7601-1.66721 0-.5163-.17747-.94834-.52884-1.29254-.35854-.34061-.89456-.59338-1.60805-.7619-1.07204-.23484-1.6959-.40156-1.87158-.49837-.17748-.09143-.26532-.24201-.26532-.44638 0-.16493.08425-.30834.24918-.43025.16672-.1201.4446-.18106.8354-.18106.47507 0 .8103.12011 1.0075.36392.10577.13445.1703.3173.1954.54856h1.79629c-.07888-.83898-.38902-1.43057-.92862-1.77298-.5396-.3424-1.23876-.5145-2.09567-.5145-.90352 0-1.60446.22767-2.10283.6848-.49658.45536-.74577 1.00034-.74577 1.63495 0 .53781.15955.95013.47865 1.23517.3191.29042.86767.53064 1.6457.72425 1.0792.25636 1.70307.43742 1.87158.5432.16672.10397.25098.25814.25098.45892 0 .20975-.10398.3675-.31193.47328-.20795.10397-.48762.15775-.84078.15775-.60055 0-1.01287-.1201-1.23517-.36033-.12549-.13445-.20795-.36033-.2456-.67943zm1.37321-4.86zm7.24789-2.32155c-.09143-.00717-.1954-.01076-.30835-.01076-.99674 0-1.62418.20616-1.88413.61849-.24918.27786-.37288.7834-.37288 1.51841v.441h-.9824v1.26745h1.00212v5.53944h1.78912v-5.53944h1.1796v-1.26744h-1.1796v-.57905c0-.13445.0466-.25814.13624-.3693.08964-.11114.25457-.16313.4912-.15775.23843.00717.40695.01614.50734.02868v-1.46284c-.15955-.01255-.28504-.02151-.37826-.02689zm5.7474 7.54727c-.28146.37288-.68482.56111-1.21008.56111-.52526 0-.92862-.18823-1.21186-.56111-.28504-.37468-.42667-.90532-.42667-1.5955 0-.6884.14163-1.21904.42667-1.59192.28324-.3711.6866-.55753 1.21186-.55753s.92862.18644 1.21007.55753c.28146.37288.42308.90352.42308 1.59191 0 .6902-.14162 1.22083-.42308 1.5955zm1.43774.99136c.57904-.71529.86946-1.57758.86946-2.58687 0-.99136-.29042-1.85006-.86946-2.5779-.57904-.72604-1.45926-1.08996-2.64065-1.08996s-2.0616.36392-2.64065 1.08996c-.58083.72784-.86946 1.58654-.86946 2.5779 0 1.0093.28863 1.87158.86946 2.58687.57905.71708 1.45926 1.07562 2.64065 1.07562s2.0616-.35854 2.64065-1.07562zm-2.64065-6.21708zm8.61213.0215c-.0233-.00178-.05199-.00178-.08426-.00178-.5378 0-.97522.13983-1.31225.42128-.20437.16851-.44638.48224-.72425.93938v-1.19753H79.4465v6.86963h1.80883v-3.28243c0-.55216.06812-.9591.20795-1.22442.2474-.46969.73322-.70453 1.45568-.70453.05378 0 .12549.0018.21333.00538.08963.00538.19002.01255.30296.0251v-1.83931c-.07887-.00538-.13086-.00718-.15417-.01076zm9.77918.18645c-.2958-.11653-.59338-.17568-.89635-.17568-.45355 0-.86408.09322-1.23517.28324-.34778.18824-.64.48582-.87484.88918-.13445-.33703-.33344-.6113-.59338-.82643-.32269-.23126-.74756-.346-1.27282-.346-.55394 0-1.0057.13446-1.35528.40336-.1972.15059-.40694.40515-.62924.7619v-1.00212H84.4571v6.85708h1.82139v-4.13397c0-.37467.0484-.65613.1452-.84436.17569-.33165.51989-.49837 1.0326-.49837.441 0 .7386.16672.88918.49837.08426.18465.12549.48044.12549.88918v4.08915h1.80883v-4.08915c0-.30834.0484-.57008.14521-.78879.19003-.41232.53243-.61669 1.02722-.61669.42845 0 .72246.15955.882.47865.08426.16673.12729.38185.12729.6418v4.37418h1.8393l.01256-4.32937c0-.44638-.02151-.78341-.06275-1.01467-.06633-.34958-.1972-.64358-.3908-.882-.24023-.29401-.50555-.50017-.79955-.61849zm6.69215 3.50473v.66868c-.01255.60055-.18106 1.01466-.50733 1.24054-.32448.22768-.68123.34062-1.06845.34062-.24381 0-.44997-.06813-.62028-.20437-.1703-.13625-.25456-.35854-.25456-.6651 0-.3442.13804-.59875.4159-.76368.16314-.0968.43384-.17748.8121-.2456l.40336-.0753c.20257-.03764.36033-.07887.47685-.1219.11474-.04482.22947-.10218.34241-.1739zm-1.08996-.83898l-.61131.07529c-.69378.08963-1.21904.23663-1.57579.4428-.65075.37826-.97702.98957-.97702 1.83393 0 .65075.20258 1.1545.60773 1.50945.40694.35496.91965.53243 1.54172.53243.48761 0 .92503-.11114 1.31046-.33523.32448-.18824.60952-.4177.85691-.6866a5.2069 5.2069 0 0 0 .0502.4159c.02151.1219.05916.25277.11473.3908h1.95405v-.26531c-.11832-.05378-.20617-.1237-.26532-.20795-.05916-.08247-.09502-.24202-.10757-.47865-.00896-.31014-.01255-.57546-.01255-.79417v-3.14977c0-.82823-.2922-1.39114-.87663-1.69052-.58262-.29759-1.2513-.44638-2.00423-.44638-1.1545 0-1.97018.30117-2.44525.9071-.29758.38723-.4661.88022-.50375 1.48077h1.73355c.04123-.26532.12548-.47506.25277-.62923.17568-.21154.47685-.31552.89993-.31552.37826 0 .6651.05378.8605.15955.1954.10756.294.30297.294.58442 0 .23126-.12907.39977-.38543.50913-.14162.06453-.38005.11652-.7117.15776zm.09501-2.8737zm3.68041 1.52558h.9573v4.22898c0 .42846.1004.74577.30297.95193.31014.32268.89097.46969 1.73892.441l.85153-.03227v-1.34273a2.91705 2.91705 0 0 1-.17927.01076c-.06095.00179-.1201.00358-.17389.00358-.3657 0-.58442-.03585-.65613-.10577-.06991-.06812-.10577-.2438-.10577-.52526v-3.63022h1.11506v-1.27998h-1.11506v-1.9146h-1.77835v1.9146h-.9573zm6.84991-2.162v-1.65824h-1.82138v1.65825zm-1.82138.81927v6.86963h1.82138v-6.86963zm7.85382 5.04287c-.28146.37288-.68482.56111-1.21008.56111-.52526 0-.9304-.18823-1.21365-.56111-.28325-.37468-.42487-.90532-.42487-1.5955 0-.6884.14162-1.21904.42487-1.59192.28324-.3711.6884-.55753 1.21365-.55753.52526 0 .92862.18644 1.21008.55753.28145.37288.42128.90352.42128 1.59191 0 .6902-.13983 1.22083-.42128 1.5955zm1.43595.99136c.58083-.71529.86946-1.57758.86946-2.58687 0-.99136-.28863-1.85006-.86946-2.5779-.57904-.72604-1.45926-1.08996-2.64065-1.08996-1.1796 0-2.05981.36392-2.64065 1.08996-.57904.72784-.86945 1.58654-.86945 2.5779 0 1.0093.29041 1.87158.86945 2.58687.58084.71708 1.46106 1.07562 2.64065 1.07562 1.1814 0 2.0616-.35854 2.64065-1.07562zm-2.64065-6.21708zm10.34567.57725c-.45176-.37289-1.0326-.55753-1.7425-.55753-.5665 0-1.03618.13803-1.40548.4159-.20616.15418-.42487.40874-.65613.7619v-1.00212h-1.73174v6.85708h1.78911v-3.71806c0-.42487.05916-.77265.17748-1.04694.22588-.5163.64358-.77444 1.2531-.77444.49657 0 .8318.17568 1.00929.52884.0968.19361.1452.47148.1452.83182v4.17878h1.83931v-4.62517c0-.86229-.22588-1.47897-.67764-1.85006zm-2.404-.57725zm8.4705-2.2373v9.28978h6.54156v-1.669h-4.60007v-7.62077zm11.52706 5.94998v.66868c-.01255.60055-.18106 1.01466-.50733 1.24054-.32627.22768-.68123.34062-1.06845.34062-.2438 0-.44997-.06813-.62028-.20437-.1703-.13625-.25635-.35854-.25635-.6651 0-.3442.13983-.59875.4159-.76368.16493-.0968.43563-.17748.81389-.2456l.40336-.0753c.20257-.03764.36033-.07887.47506-.1219.11653-.04482.23126-.10218.3442-.1739zm-1.08996-.83898l-.61131.07529c-.69378.08963-1.21904.23663-1.57578.4428-.65075.37826-.97703.98957-.97703 1.83393 0 .65075.20258 1.1545.60773 1.50945.40515.35496.91965.53243 1.54172.53243.48762 0 .92324-.11114 1.31047-.33523.32447-.18824.60951-.4177.8569-.6866a5.2069 5.2069 0 0 0 .0502.4159c.02151.1219.05916.25277.11473.3908h1.95225v-.26531c-.11652-.05378-.20436-.1237-.26352-.20795-.05916-.08247-.09502-.24202-.10756-.47865-.00897-.31014-.01255-.57546-.01255-.79417v-3.14977c0-.82823-.29221-1.39114-.87663-1.69052-.58263-.29759-1.2513-.44638-2.00424-.44638-1.1545 0-1.97018.30117-2.44524.9071-.2976.38723-.4661.88022-.50375 1.48077h1.73354c.04123-.26532.12549-.47506.25098-.62923.17747-.21154.47685-.31552.90172-.31552.37826 0 .6651.05378.8605.15955.1954.10756.294.30297.294.58442 0 .23126-.12907.39977-.38543.50913-.14341.06453-.38005.11652-.7117.15776zm.09501-2.8737zm9.93515.57725c-.45176-.37289-1.0326-.55753-1.7425-.55753-.5683 0-1.03619.13803-1.40548.4159-.20617.15418-.42487.40874-.65613.7619v-1.00212h-1.73354v6.85708h1.7909v-3.71806c0-.42487.05916-.77265.17569-1.04694.22767-.5163.64537-.77444 1.25489-.77444.49658 0 .83181.17568 1.0075.52884.0968.19361.1452.47148.1452.83182v4.17878h1.8411v-4.62517c0-.86229-.22587-1.47897-.67763-1.85006zm-2.40401-.57725zm8.75375 5.10202c-.29042.3173-.64537.47507-1.06486.47507-.63103 0-1.06845-.28863-1.31047-.86946-.13445-.31014-.20257-.6651-.20257-1.06487 0-.46251.06274-.84974.19002-1.16525.23843-.59339.67406-.88918 1.3033-.88918.46251 0 .8318.1703 1.1061.51092.27607.34061.4141.8354.4141 1.48794 0 .69198-.1452 1.19752-.43562 1.51483zm-.61131-4.92455c-.25636-.10576-.55753-.15775-.90173-.15775-.9322 0-1.65287.34778-2.162 1.04335-.50733.69377-.7619 1.55248-.7619 2.57432 0 1.05769.26353 1.89667.79059 2.51695.52705.62027 1.23158.9304 2.11538.9304.57008 0 1.0344-.13624 1.39293-.41052.1972-.147.38185-.3675.55395-.6615v.441c0 .65613-.07171 1.12223-.21513 1.4001-.21691.43204-.65075.64895-1.29791.64895-.45714 0-.78341-.08246-.97702-.2456-.11294-.09322-.1954-.2438-.2456-.45355h-1.95405c.05916.68481.36571 1.19932.92145 1.54351.55394.3442 1.27102.5163 2.14766.5163 1.45387 0 2.43807-.38722 2.95078-1.15987.29759-.44997.44638-1.11686.44638-2.00424v-6.51647h-1.7443v.98957c-.2689-.48223-.62206-.81568-1.05948-.99495zm-.32807-.17747zm6.59893.18285h-1.8411v4.14114c0 .7852.0986 1.38038.29759 1.78374.35316.73142 1.03797 1.09713 2.05443 1.09713.35316 0 .65972-.04661.92324-.13983.26174-.09143.53423-.26353.81568-.5163.09322-.08067.1721-.1721.24022-.27787.06633-.10397.10936-.16851.1255-.18823v.96985h1.74608v-6.86963h-1.82138v3.73778c0 .441-.05916.79596-.17748 1.06487-.22588.49657-.64716.74397-1.26027.74397-.47865 0-.79954-.1739-.96447-.52347-.09143-.1972-.13804-.4912-.13804-.88201zm1.26027-.18285zm8.6211 3.71268v.66868c-.01255.60055-.18107 1.01466-.50734 1.24054-.32448.22768-.68122.34062-1.06665.34062-.24381 0-.45177-.06813-.62207-.20437-.1703-.13625-.25456-.35854-.25456-.6651 0-.3442.13803-.59875.4159-.76368.16314-.0968.43563-.17748.8121-.2456l.40335-.0753c.20258-.03764.36033-.07887.47686-.1219.11473-.04482.22947-.10218.3424-.1739zm-1.08997-.83898l-.6113.07529c-.69199.08963-1.21725.23663-1.57579.4428-.65075.37826-.97702.98957-.97702 1.83393 0 .65075.20437 1.1545.60952 1.50945.40515.35496.91786.53243 1.53993.53243.48761 0 .92503-.11114 1.31225-.33523.32269-.18824.60773-.4177.85691-.6866.01255.15596.02869.294.0502.4159.01972.1219.05916.25277.11294.3908h1.95404v-.26531c-.11832-.05378-.20616-.1237-.26532-.20795-.05916-.08247-.09501-.24202-.10756-.47865-.00717-.31014-.01255-.57546-.01255-.79417v-3.14977c0-.82823-.29042-1.39114-.87484-1.69052-.58442-.29759-1.2531-.44638-2.00423-.44638-1.1563 0-1.97018.30117-2.44525.9071-.29938.38723-.4661.88022-.50554 1.48077h1.73354c.04303-.26532.12728-.47506.25277-.62923.17569-.21154.47686-.31552.90173-.31552.37826 0 .6651.05378.8605.15955.1936.10756.2922.30297.2922.58442 0 .23126-.12727.39977-.38363.50913-.14342.06453-.38185.11652-.7135.15776zm.09502-2.8737zm8.40059 5.10202c-.28863.3173-.64358.47507-1.06486.47507-.62924 0-1.06666-.28863-1.31047-.86946-.13445-.31014-.20257-.6651-.20257-1.06487 0-.46251.06453-.84974.19002-1.16525.24023-.59339.67406-.88918 1.30509-.88918.46072 0 .83002.1703 1.1061.51092.27428.34061.41232.8354.41232 1.48794 0 .69198-.14521 1.19752-.43563 1.51483zm-.61131-4.92455c-.25636-.10576-.55574-.15775-.89994-.15775-.934 0-1.65466.34778-2.162 1.04335-.50912.69377-.76368 1.55248-.76368 2.57432 0 1.05769.26352 1.89667.79237 2.51695.52705.62027 1.23159.9304 2.1136.9304.57187 0 1.03617-.13624 1.39292-.41052.1972-.147.38185-.3675.55395-.6615v.441c0 .65613-.06992 1.12223-.21334 1.4001-.2187.43204-.65075.64895-1.29791.64895-.45893 0-.78341-.08246-.97702-.2456-.11473-.09322-.1954-.2438-.2456-.45355h-1.95404c.05915.68481.3657 1.19932.91965 1.54351.55395.3442 1.27103.5163 2.14945.5163 1.45388 0 2.43628-.38722 2.94899-1.15987.29938-.44997.44817-1.11686.44817-2.00424v-6.51647h-1.74609v.98957c-.2689-.48223-.62206-.81568-1.05948-.99495zm-.32627-.17747zm6.55052 1.87158c.22947-.25995.55215-.39081.96806-.39081.38185 0 .70274.1237.96089.3693s.40156.60593.43204 1.081h-2.79303c.05916-.4464.20258-.79776.43204-1.0595zm2.51158-1.55069c-.45894-.21333-.97344-.3209-1.54352-.3209-.96268 0-1.74609.31731-2.34844.95193-.60234.63462-.90352 1.5471-.90352 2.73566 0 1.26923.33345 2.1853 1.00212 2.74821.66689.5629 1.43775.84436 2.31259.84436 1.05769 0 1.88233-.33523 2.47034-1.00212.37826-.42128.5898-.8354.6364-1.24234h-1.83393c-.0968.20258-.20795.36033-.33344.47327-.23126.20975-.53243.31552-.90173.31552-.34957 0-.64716-.08605-.89455-.25994-.40874-.27608-.62386-.7601-.64896-1.4485h4.70046c.00896-.59339-.01076-1.04694-.05558-1.36246-.08067-.5378-.25456-1.00929-.52346-1.41802-.29939-.46073-.67765-.79955-1.13478-1.01467zm-1.41803-.3209z"/></svg>