<?xml version="1.0" encoding="UTF-8" standalone="no"?>
<svg
   id="Layer_1"
   version="1.1"
   viewBox="0 0 774.7265 449.13364"
   sodipodi:docname="ctl.svg"
   width="774.7265"
   height="449.13364"
   inkscape:version="1.4.3 (0d15f75, 2025-12-25)"
   xmlns:inkscape="http://www.inkscape.org/namespaces/inkscape"
   xmlns:sodipodi="http://sodipodi.sourceforge.net/DTD/sodipodi-0.dtd"
   xmlns="http://www.w3.org/2000/svg"
   xmlns:svg="http://www.w3.org/2000/svg">
  <sodipodi:namedview
     id="namedview33"
     pagecolor="#ffffff"
     bordercolor="#000000"
     borderopacity="0.25"
     inkscape:showpageshadow="2"
     inkscape:pageopacity="0.0"
     inkscape:pagecheckerboard="0"
     inkscape:deskcolor="#d1d1d1"
     showgrid="false"
     inkscape:zoom="0.29375"
     inkscape:cx="456.17021"
     inkscape:cy="165.10638"
     inkscape:current-layer="Layer_1" />
  <!-- Generator: Adobe Illustrator 29.7.1, SVG Export Plug-In . SVG Version: 2.1.1 Build 8)  -->
  <defs
     id="defs6">
    <style
       id="style1">
      .st0 {
        fill: url(#ACES_Gradient);
      }

      .st1 {
        fill: url(#Gold_Gradient);
      }
    </style>
    <linearGradient
       id="Gold_Gradient"
       data-name="Gold Gradient"
       x1="33.349998"
       y1="157.83"
       x2="262.45001"
       y2="157.83"
       gradientUnits="userSpaceOnUse">
      <stop
         offset="0"
         stop-color="#f2de9a"
         id="stop1" />
      <stop
         offset=".4"
         stop-color="#e1c576"
         id="stop2" />
      <stop
         offset="1"
         stop-color="#b99d5d"
         id="stop3" />
    </linearGradient>
    <linearGradient
       id="ACES_Gradient"
       data-name="ACES Gradient"
       x1="232.78999"
       y1="164.91"
       x2="766.65002"
       y2="164.91"
       gradientUnits="userSpaceOnUse">
      <stop
         offset="0"
         stop-color="#ad2890"
         id="stop4" />
      <stop
         offset=".52"
         stop-color="#1bbdef"
         id="stop5" />
      <stop
         offset="1"
         stop-color="#fde500"
         id="stop6" />
    </linearGradient>
  </defs>
  <g
     id="g7"
     transform="translate(-13.753694,-33.04)">
    <path
       class="st1"
       d="M 198.81,225.71 H 98.05 L 72.24,282.63 H 33.35 L 150.73,33.04 262.45,282.64 h -38.89 l -24.75,-56.92 z m -14.5,-33.94 -35,-79.9 -36.41,79.9 z"
       id="path6"
       style="fill:url(#Gold_Gradient)" />
    <path
       class="st0"
       d="m 583.28,80.76 h -94.04 v 59.75 h 91.21 v 33.94 h -91.21 v 74.24 h 94.04 v 33.94 H 453.18 V 46.82 h 130.1 z m 148.01,18.39 c -2.12,-5.3 -5.3,-10.25 -10.61,-14.85 -7.42,-6.01 -15.2,-8.48 -25.45,-8.48 -21.92,0 -33.23,13.08 -33.23,28.28 0,7.07 2.47,19.44 25.45,28.64 l 23.69,9.55 c 43.49,17.68 55.51,42.42 55.51,69.29 0,44.9 -31.82,75.66 -76.01,75.66 -27.22,0 -43.49,-10.25 -55.51,-23.69 -12.73,-14.14 -18.38,-29.7 -19.8,-45.96 l 35.71,-7.78 c 0,11.67 4.24,22.63 9.9,30.05 6.72,8.48 16.62,14.14 30.76,14.14 21.92,0 38.89,-15.91 38.89,-39.6 0,-23.69 -18.38,-33.94 -33.94,-40.3 l -22.63,-9.55 c -19.44,-8.13 -48.08,-24.39 -48.08,-59.75 0,-31.82 24.75,-62.22 68.94,-62.22 25.46,0 39.95,9.55 47.37,15.91 6.37,5.66 13.08,13.79 18.03,23.69 z M 351.84,75.81 c 13.43,0 37.83,2.47 63.99,26.16 V 59.55 C 395.32,46.47 374.47,42.58 352.9,42.58 c -32.53,0 -60.81,7.78 -85.2,30.76 -15.03,14.23 -29.03,34.98 -34.91,63.17 l 62.23,137.62 c 14.31,7.35 32.85,13.1 56.12,13.1 16.26,0 41.01,-3.54 64.7,-17.68 v -42.78 c -13.44,12.73 -35.35,27.22 -63.64,27.22 -50.2,0 -86.26,-38.54 -86.26,-88.38 0,-49.84 34.65,-89.8 85.91,-89.8 z"
       id="path7"
       style="fill:url(#ACES_Gradient)" />
  </g>
  <g
     id="g33"
     transform="translate(-13.753694,-33.04)">
    <path
       d="M 44.04,360.53 H 32.75 l -2.89,6.38 H 25.5 l 13.16,-27.98 12.52,27.98 h -4.36 l -2.77,-6.38 z m -1.62,-3.8 -3.92,-8.96 -4.08,8.96 z"
       id="path8" />
    <path
       d="m 77.05,346.67 c -2.93,-2.66 -5.67,-2.93 -7.17,-2.93 -5.75,0 -9.63,4.24 -9.63,10.07 0,5.83 4.04,9.91 9.67,9.91 3.17,0 5.63,-1.62 7.13,-3.05 v 4.79 c -2.66,1.58 -5.43,1.98 -7.25,1.98 -4.79,0 -7.81,-2.18 -9.35,-3.65 -3.09,-2.89 -4.24,-6.26 -4.24,-9.99 0,-4.87 2.02,-8.24 4.24,-10.34 2.73,-2.58 5.9,-3.45 9.55,-3.45 2.42,0 4.76,0.44 7.05,1.9 z"
       id="path9" />
    <path
       d="M 100.54,360.53 H 89.25 l -2.89,6.38 H 82 l 13.16,-27.98 12.52,27.98 h -4.36 l -2.77,-6.38 z m -1.62,-3.8 -3.92,-8.96 -4.08,8.96 z"
       id="path10" />
    <path
       d="m 119.52,340.48 c 3.69,0 6.9,0.4 9.83,2.58 3.21,2.42 5.07,6.26 5.07,10.66 0,4.4 -1.82,8.2 -5.31,10.66 -3.09,2.18 -5.98,2.54 -9.67,2.54 h -5.47 v -26.43 h 5.55 z m -1.51,22.63 h 1.74 c 1.98,0 4.72,-0.16 7.01,-1.86 1.82,-1.39 3.61,-3.92 3.61,-7.53 0,-3.61 -1.66,-6.22 -3.57,-7.61 -2.3,-1.66 -5.11,-1.82 -7.05,-1.82 h -1.74 z"
       id="path11" />
    <path
       d="M 157.04,344.29 H 146.5 v 6.7 h 10.22 v 3.8 H 146.5 v 8.32 h 10.54 v 3.8 h -14.58 v -26.43 h 14.58 v 3.8 z"
       id="path12" />
    <path
       d="m 164.45,366.91 5.55,-28.41 9.19,20.53 9.27,-20.53 4.99,28.41 h -4.12 l -2.69,-15.93 -7.69,17.16 -7.61,-17.2 -2.77,15.97 z"
       id="path13" />
    <path
       d="m 207.48,355.5 -8.68,-15.02 h 4.6 l 6.1,10.58 6.1,-10.58 h 4.6 l -8.68,15.02 v 11.41 h -4.04 z"
       id="path14" />
    <path
       d="m 258.12,346.67 c -2.93,-2.66 -5.67,-2.93 -7.17,-2.93 -5.75,0 -9.63,4.24 -9.63,10.07 0,5.83 4.04,9.91 9.67,9.91 3.17,0 5.63,-1.62 7.13,-3.05 v 4.79 c -2.66,1.58 -5.43,1.98 -7.25,1.98 -4.79,0 -7.81,-2.18 -9.35,-3.65 -3.09,-2.89 -4.24,-6.26 -4.24,-9.99 0,-4.87 2.02,-8.24 4.24,-10.34 2.73,-2.58 5.9,-3.45 9.55,-3.45 2.42,0 4.76,0.44 7.05,1.9 z"
       id="path15" />
    <path
       d="m 292.31,353.72 c 0,7.77 -5.83,13.71 -13.75,13.71 -7.92,0 -13.75,-5.94 -13.75,-13.71 0,-7.77 5.82,-13.71 13.75,-13.71 7.93,0 13.75,5.94 13.75,13.71 z m -4.04,0 c 0,-5.86 -4.04,-9.99 -9.71,-9.99 -5.67,0 -9.71,4.12 -9.71,9.99 0,5.87 4.04,9.99 9.71,9.99 5.67,0 9.71,-4.12 9.71,-9.99 z"
       id="path16" />
    <path
       d="m 304.39,340.48 v 22.63 h 7.77 v 3.8 h -11.81 v -26.43 z"
       id="path17" />
    <path
       d="m 345.17,353.72 c 0,7.77 -5.83,13.71 -13.75,13.71 -7.92,0 -13.75,-5.94 -13.75,-13.71 0,-7.77 5.83,-13.71 13.75,-13.71 7.92,0 13.75,5.94 13.75,13.71 z m -4.05,0 c 0,-5.86 -4.04,-9.99 -9.71,-9.99 -5.67,0 -9.71,4.12 -9.71,9.99 0,5.87 4.04,9.99 9.71,9.99 5.67,0 9.71,-4.12 9.71,-9.99 z"
       id="path18" />
    <path
       d="m 357.92,340.48 c 3.21,0 5.27,0.4 6.97,1.55 2.89,1.94 3.13,5.07 3.13,6.22 0,3.8 -2.34,6.58 -5.86,7.37 l 8.24,11.29 h -4.87 l -7.57,-10.82 h -0.71 v 10.82 h -4.04 v -26.43 h 4.72 z m -0.67,12.13 h 1.27 c 1.11,0 5.63,-0.12 5.63,-4.32 0,-3.72 -3.53,-4.08 -5.51,-4.08 h -1.39 z"
       id="path19" />
    <path
       d="m 404.12,344.29 h -10.54 v 6.7 h 10.22 v 3.8 h -10.22 v 8.32 h 10.54 v 3.8 h -14.58 v -26.43 h 14.58 v 3.8 z"
       id="path20" />
    <path
       d="M 412.32,366.91 V 338.7 l 19.18,20.09 v -18.31 h 4.04 v 28.06 l -19.18,-20.09 v 18.47 h -4.04 z"
       id="path21" />
    <path
       d="m 464.43,346.67 c -2.93,-2.66 -5.67,-2.93 -7.17,-2.93 -5.75,0 -9.63,4.24 -9.63,10.07 0,5.83 4.04,9.91 9.67,9.91 3.17,0 5.63,-1.62 7.13,-3.05 v 4.79 c -2.66,1.58 -5.43,1.98 -7.25,1.98 -4.79,0 -7.81,-2.18 -9.35,-3.65 -3.09,-2.89 -4.24,-6.26 -4.24,-9.99 0,-4.87 2.02,-8.24 4.24,-10.34 2.73,-2.58 5.9,-3.45 9.55,-3.45 2.42,0 4.75,0.44 7.05,1.9 z"
       id="path22" />
    <path
       d="m 498.62,353.72 c 0,7.77 -5.83,13.71 -13.75,13.71 -7.92,0 -13.75,-5.94 -13.75,-13.71 0,-7.77 5.83,-13.71 13.75,-13.71 7.92,0 13.75,5.94 13.75,13.71 z m -4.04,0 c 0,-5.86 -4.04,-9.99 -9.71,-9.99 -5.67,0 -9.71,4.12 -9.71,9.99 0,5.87 4.04,9.99 9.71,9.99 5.67,0 9.71,-4.12 9.71,-9.99 z"
       id="path23" />
    <path
       d="m 512.21,340.48 c 3.69,0 6.9,0.4 9.83,2.58 3.21,2.42 5.07,6.26 5.07,10.66 0,4.4 -1.82,8.2 -5.31,10.66 -3.09,2.18 -5.98,2.54 -9.67,2.54 h -5.47 v -26.43 h 5.55 z m -1.51,22.63 h 1.74 c 1.98,0 4.71,-0.16 7.01,-1.86 1.82,-1.39 3.61,-3.92 3.61,-7.53 0,-3.61 -1.67,-6.22 -3.57,-7.61 -2.3,-1.66 -5.11,-1.82 -7.05,-1.82 h -1.74 z"
       id="path24" />
    <path
       d="m 539.19,340.48 v 26.43 h -4.04 v -26.43 z"
       id="path25" />
    <path
       d="M 548.5,366.91 V 338.7 l 19.18,20.09 v -18.31 h 4.04 v 28.06 l -19.18,-20.09 v 18.47 h -4.04 z"
       id="path26" />
    <path
       d="m 594.7,353.16 h 10.9 v 0.2 c 0,4.52 -1.35,8.2 -3.92,10.7 -2.73,2.66 -5.98,3.37 -9,3.37 -3.84,0 -6.58,-1.11 -9,-3.61 -2.58,-2.66 -3.92,-6.18 -3.92,-9.99 0,-4.12 1.66,-7.69 3.84,-9.87 2.26,-2.3 5.86,-3.96 9.95,-3.96 2.38,0 4.83,0.52 6.9,1.67 2.18,1.23 3.53,2.77 4.28,3.96 l -3.21,2.26 c -0.79,-1.11 -1.98,-2.3 -3.25,-3.01 -1.47,-0.87 -3.05,-1.15 -4.68,-1.15 -3.45,0 -5.67,1.43 -6.97,2.73 -1.74,1.74 -2.81,4.56 -2.81,7.41 0,2.66 0.99,5.31 2.73,7.17 1.82,1.94 4.08,2.66 6.62,2.66 2.3,0 4.2,-0.67 5.9,-2.34 1.47,-1.43 2.06,-2.97 2.22,-4.48 h -6.58 v -3.73 z"
       id="path27" />
    <path
       d="m 637.25,346.35 c -0.24,-0.59 -0.59,-1.15 -1.19,-1.66 -0.83,-0.67 -1.7,-0.95 -2.85,-0.95 -2.46,0 -3.73,1.47 -3.73,3.17 0,0.79 0.28,2.18 2.85,3.21 l 2.66,1.07 c 4.87,1.98 6.22,4.76 6.22,7.77 0,5.03 -3.57,8.48 -8.52,8.48 -3.05,0 -4.87,-1.15 -6.22,-2.66 -1.43,-1.58 -2.06,-3.33 -2.22,-5.15 l 4,-0.87 c 0,1.31 0.47,2.54 1.11,3.37 0.75,0.95 1.86,1.58 3.45,1.58 2.46,0 4.36,-1.78 4.36,-4.44 0,-2.66 -2.06,-3.8 -3.8,-4.52 l -2.54,-1.07 c -2.18,-0.91 -5.39,-2.73 -5.39,-6.7 0,-3.57 2.77,-6.97 7.73,-6.97 2.85,0 4.48,1.07 5.31,1.78 0.71,0.63 1.47,1.55 2.02,2.66 z"
       id="path28" />
    <path
       d="m 654.77,355.5 -8.68,-15.02 h 4.6 l 6.1,10.58 6.1,-10.58 h 4.6 l -8.68,15.02 v 11.41 h -4.04 z"
       id="path29" />
    <path
       d="m 685.04,346.35 c -0.24,-0.59 -0.59,-1.15 -1.19,-1.66 -0.83,-0.67 -1.7,-0.95 -2.85,-0.95 -2.46,0 -3.73,1.47 -3.73,3.17 0,0.79 0.28,2.18 2.85,3.21 l 2.66,1.07 c 4.87,1.98 6.22,4.76 6.22,7.77 0,5.03 -3.57,8.48 -8.52,8.48 -3.05,0 -4.87,-1.15 -6.22,-2.66 -1.43,-1.58 -2.06,-3.33 -2.22,-5.15 l 4,-0.87 c 0,1.31 0.47,2.54 1.11,3.37 0.75,0.95 1.86,1.58 3.45,1.58 2.46,0 4.36,-1.78 4.36,-4.44 0,-2.66 -2.06,-3.8 -3.8,-4.52 l -2.54,-1.07 c -2.18,-0.91 -5.39,-2.73 -5.39,-6.7 0,-3.57 2.77,-6.97 7.73,-6.97 2.85,0 4.48,1.07 5.31,1.78 0.71,0.63 1.47,1.55 2.02,2.66 z"
       id="path30" />
    <path
       d="m 704.37,344.29 v 22.63 h -4.04 v -22.63 h -6.06 v -3.8 h 16.17 v 3.8 h -6.06 z"
       id="path31" />
    <path
       d="m 731.55,344.29 h -10.54 v 6.7 h 10.22 v 3.8 h -10.22 v 8.32 h 10.54 v 3.8 h -14.58 v -26.43 h 14.58 v 3.8 z"
       id="path32" />
    <path
       d="m 738.96,366.91 5.55,-28.41 9.19,20.53 9.27,-20.53 4.99,28.41 h -4.12 l -2.7,-15.93 -7.69,17.16 -7.61,-17.2 -2.77,15.97 h -4.12 z"
       id="path33" />
  </g>
  <g
     id="text33"
     style="opacity:1"
     transform="matrix(0.50527037,0,0,0.50527037,1.6510104,216.19805)">
    <path
       style="font-weight:bold;font-size:85.3333px;font-family:Arial;-inkscape-font-specification:'Arial, Bold';baseline-shift:baseline;display:inline;overflow:visible;vector-effect:none;enable-background:accumulate;stop-color:#000000;stop-opacity:1"
       d="m 38.483137,420.09487 11.958328,3.79166 q -2.749999,10 -9.166663,14.875 -6.374997,4.83333 -16.208326,4.83333 -12.166662,0 -19.9999917,-8.29166 -7.8333301,-8.33333 -7.8333301,-22.75 0,-15.24999 7.8749967,-23.66665 7.8749971,-8.45833 20.7083251,-8.45833 11.208328,0 18.208325,6.625 4.166665,3.91666 6.249998,11.24999 l -12.208329,2.91667 q -1.083332,-4.75 -4.541664,-7.5 -3.416666,-2.75 -8.33333,-2.75 -6.791664,0 -11.041662,4.875 -4.2083318,4.875 -4.2083318,15.79166 0,11.58333 4.1666648,16.49999 4.166665,4.91667 10.833329,4.91667 4.916665,0 8.45833,-3.125 3.541665,-3.125 5.083331,-9.83333 z m 19.749991,-0.29167 q 0,-5.83333 2.874999,-11.29166 2.874998,-5.45833 8.124996,-8.33333 5.291665,-2.875 11.791662,-2.875 10.041662,0 16.458326,6.54166 6.416669,6.5 6.416669,16.45833 0,10.04166 -6.500002,16.66666 -6.458331,6.58333 -16.29166,6.58333 -6.083331,0 -11.624995,-2.75 -5.499998,-2.75 -8.374996,-8.04166 -2.874999,-5.33333 -2.874999,-12.95833 z m 11.999995,0.625 q 0,6.58333 3.124998,10.08333 3.124999,3.5 7.708331,3.5 4.583331,0 7.666663,-3.5 3.124999,-3.5 3.124999,-10.16666 0,-6.5 -3.124999,-10 -3.083332,-3.5 -7.666663,-3.5 -4.583332,0 -7.708331,3.5 -3.124998,3.5 -3.124998,10.08333 z m 42.833317,22.12499 v -61.08331 h 11.70833 v 61.08331 z m 20.99998,-22.74999 q 0,-5.83333 2.875,-11.29166 2.875,-5.45833 8.125,-8.33333 5.29166,-2.875 11.79166,-2.875 10.04166,0 16.45833,6.54166 6.41666,6.5 6.41666,16.45833 0,10.04166 -6.5,16.66666 -6.45833,6.58333 -16.29166,6.58333 -6.08333,0 -11.62499,-2.75 -5.5,-2.75 -8.375,-8.04166 -2.875,-5.33333 -2.875,-12.95833 z m 12,0.625 q 0,6.58333 3.125,10.08333 3.12499,3.5 7.70833,3.5 4.58333,0 7.66666,-3.5 3.125,-3.5 3.125,-10.16666 0,-6.5 -3.125,-10 -3.08333,-3.5 -7.66666,-3.5 -4.58334,0 -7.70833,3.5 -3.125,3.5 -3.125,10.08333 z m 54.04165,22.12499 h -11.70833 v -44.24998 h 10.87499 v 6.29166 q 2.79167,-4.45833 5,-5.87499 2.25,-1.41667 5.08333,-1.41667 4,0 7.70833,2.20833 l -3.62499,10.20833 q -2.95834,-1.91666 -5.5,-1.91666 -2.45833,0 -4.16667,1.375 -1.70833,1.33333 -2.70833,4.87499 -0.95833,3.54167 -0.95833,14.83333 z m 59.54164,0 v -50.74998 h -18.125 v -10.33333 h 48.54165 v 10.33333 h -18.08332 v 50.74998 z m 44.79164,0 h -11.70833 v -44.24998 h 10.875 v 6.29166 q 2.79166,-4.45833 4.99999,-5.87499 2.25,-1.41667 5.08334,-1.41667 3.99999,0 7.70833,2.20833 l -3.625,10.20833 q -2.95833,-1.91666 -5.5,-1.91666 -2.45833,0 -4.16667,1.375 -1.70833,1.33333 -2.70833,4.87499 -0.95833,3.54167 -0.95833,14.83333 z m 30.74998,-30.74999 -10.625,-1.91666 q 1.79167,-6.41666 6.16667,-9.5 4.375,-3.08333 12.99999,-3.08333 7.83333,0 11.66667,1.875 3.83333,1.83333 5.37499,4.70833 1.58334,2.83333 1.58334,10.45833 l -0.125,13.66666 q 0,5.83333 0.54166,8.625 0.58334,2.75 2.125,5.91666 h -11.58333 q -0.45833,-1.16666 -1.125,-3.45833 -0.29166,-1.04167 -0.41666,-1.375 -3,2.91667 -6.41667,4.375 -3.41666,1.45833 -7.29166,1.45833 -6.83333,0 -10.79166,-3.70833 -3.91667,-3.70833 -3.91667,-9.375 0,-3.74999 1.79167,-6.66666 1.79166,-2.95833 5,-4.5 3.24999,-1.58333 9.33333,-2.75 8.20833,-1.54166 11.37499,-2.875 v -1.16666 q 0,-3.375 -1.66667,-4.79167 -1.66666,-1.45833 -6.29166,-1.45833 -3.125,0 -4.875,1.25 -1.75,1.20833 -2.83333,4.29166 z m 15.66666,9.5 q -2.25,0.75 -7.125,1.79167 -4.87499,1.04166 -6.37499,2.04166 -2.29167,1.625 -2.29167,4.125 0,2.45833 1.83333,4.25 1.83334,1.79167 4.66667,1.79167 3.16666,0 6.04166,-2.08334 2.125,-1.58333 2.79167,-3.875 0.45833,-1.5 0.45833,-5.70833 z m 63.29164,21.24999 H 402.4413 v -22.58332 q 0,-7.16667 -0.75,-9.25 -0.75,-2.125 -2.45833,-3.29166 -1.66667,-1.16667 -4.04167,-1.16667 -3.04166,0 -5.45833,1.66667 -2.41666,1.66666 -3.33333,4.41666 -0.875,2.75 -0.875,10.16666 v 20.04166 h -11.70833 v -44.24998 h 10.875 v 6.5 q 5.79166,-7.5 14.58333,-7.5 3.87499,0 7.08333,1.41667 3.20833,1.375 4.83333,3.54166 1.66666,2.16667 2.29166,4.91667 0.66667,2.75 0.66667,7.87499 z m 7.75002,-12.62499 11.74999,-1.79167 q 0.75,3.41667 3.04167,5.20833 2.29166,1.75 6.41666,1.75 4.54167,0 6.83333,-1.66666 1.54167,-1.16667 1.54167,-3.125 0,-1.33334 -0.83333,-2.20834 -0.875,-0.83333 -3.91667,-1.54166 -14.16666,-3.125 -17.95832,-5.70833 -5.25,-3.58333 -5.25,-9.95833 0,-5.75 4.54166,-9.66666 4.54167,-3.91667 14.08333,-3.91667 9.08333,0 13.49999,2.95833 4.41667,2.95834 6.08334,8.75 l -11.04167,2.04167 q -0.70833,-2.58334 -2.70833,-3.95834 -1.95833,-1.375 -5.625,-1.375 -4.62499,0 -6.62499,1.29167 -1.33334,0.91667 -1.33334,2.375 0,1.25 1.16667,2.125 1.58333,1.16666 10.91666,3.29166 9.375,2.125 13.08333,5.20833 3.66666,3.125 3.66666,8.70833 0,6.08334 -5.08333,10.45833 -5.08333,4.375 -15.04166,4.375 -9.04166,0 -14.33332,-3.66666 -5.25,-3.66667 -6.875,-9.95833 z m 46.45831,-31.62499 h 6.5 v -3.33333 q 0,-5.58333 1.16667,-8.33333 1.20833,-2.75 4.37499,-4.45833 3.20834,-1.75 8.08333,-1.75 5,0 9.79167,1.5 l -1.58334,8.16666 q -2.79166,-0.66667 -5.37499,-0.66667 -2.54167,0 -3.66667,1.20834 -1.08333,1.16666 -1.08333,4.54166 v 3.125 h 8.74999 v 9.20833 h -8.74999 v 35.04165 h -11.70833 v -35.04165 h -6.5 z m 30.83332,21.49999 q 0,-5.83333 2.875,-11.29166 2.875,-5.45833 8.125,-8.33333 5.29166,-2.875 11.79166,-2.875 10.04166,0 16.45833,6.54166 6.41666,6.5 6.41666,16.45833 0,10.04166 -6.5,16.66666 -6.45833,6.58333 -16.29166,6.58333 -6.08333,0 -11.62499,-2.75 -5.5,-2.75 -8.375,-8.04166 -2.875,-5.33333 -2.875,-12.95833 z m 12,0.625 q 0,6.58333 3.125,10.08333 3.125,3.5 7.70833,3.5 4.58333,0 7.66666,-3.5 3.125,-3.5 3.125,-10.16666 0,-6.5 -3.125,-10 -3.08333,-3.5 -7.66666,-3.5 -4.58333,0 -7.70833,3.5 -3.125,3.5 -3.125,10.08333 z m 54.0416,22.12499 h -11.70832 v -44.24998 h 10.87499 v 6.29166 q 2.79167,-4.45833 5,-5.87499 2.25,-1.41667 5.08333,-1.41667 4,0 7.70833,2.20833 l -3.625,10.20833 q -2.95833,-1.91666 -5.5,-1.91666 -2.45833,0 -4.16666,1.375 -1.70833,1.33333 -2.70833,4.87499 -0.95834,3.54167 -0.95834,14.83333 z m 21.12505,-44.24998 h 10.79166 v 6.04166 q 5.79167,-7.04166 13.79166,-7.04166 4.25,0 7.375,1.75 3.125,1.75 5.125,5.29166 2.91666,-3.54166 6.29166,-5.29166 3.375,-1.75 7.20833,-1.75 4.875,0 8.25,2 3.375,1.95833 5.04166,5.79166 1.20834,2.83334 1.20834,9.16667 v 28.29165 h -11.70833 v -25.29165 q 0,-6.58333 -1.20834,-8.5 -1.62499,-2.5 -4.99999,-2.5 -2.45834,0 -4.625,1.5 -2.16667,1.5 -3.125,4.41666 -0.95833,2.875 -0.95833,9.125 v 21.24999 H 613.10792 V 418.3032 q 0,-6.45833 -0.625,-8.33333 -0.625,-1.875 -1.95833,-2.79166 -1.29167,-0.91667 -3.54167,-0.91667 -2.70833,0 -4.875,1.45833 -2.16666,1.45834 -3.125,4.20833 -0.91666,2.75 -0.91666,9.125 v 21.49999 h -11.70833 z m 85.49993,13.49999 -10.62499,-1.91666 q 1.79167,-6.41666 6.16666,-9.5 4.375,-3.08333 13,-3.08333 7.83333,0 11.66666,1.875 3.83333,1.83333 5.375,4.70833 1.58333,2.83333 1.58333,10.45833 l -0.125,13.66666 q 0,5.83333 0.54167,8.625 0.58333,2.75 2.125,5.91666 h -11.58333 q -0.45834,-1.16666 -1.125,-3.45833 -0.29167,-1.04167 -0.41667,-1.375 -3,2.91667 -6.41666,4.375 -3.41667,1.45833 -7.29167,1.45833 -6.83333,0 -10.79166,-3.70833 -3.91666,-3.70833 -3.91666,-9.375 0,-3.74999 1.79166,-6.66666 1.79167,-2.95833 5,-4.5 3.25,-1.58333 9.33333,-2.75 8.20833,-1.54166 11.37499,-2.875 v -1.16666 q 0,-3.375 -1.66666,-4.79167 -1.66667,-1.45833 -6.29167,-1.45833 -3.12499,0 -4.87499,1.25 -1.75,1.20833 -2.83334,4.29166 z m 15.66666,9.5 q -2.24999,0.75 -7.12499,1.79167 -4.875,1.04166 -6.375,2.04166 -2.29167,1.625 -2.29167,4.125 0,2.45833 1.83334,4.25 1.83333,1.79167 4.66666,1.79167 3.16667,0 6.04167,-2.08334 2.125,-1.58333 2.79166,-3.875 0.45833,-1.5 0.45833,-5.70833 z m 43.33332,-22.99999 v 9.33333 h -8 v 17.83333 q 0,5.41666 0.20834,6.33333 0.25,0.875 1.04166,1.45833 0.83334,0.58333 2,0.58333 1.625,0 4.70833,-1.125 l 1,9.08333 q -4.08333,1.75 -9.24999,1.75 -3.16667,0 -5.70833,-1.04166 -2.54167,-1.08334 -3.75,-2.75 -1.16667,-1.70834 -1.625,-4.58333 -0.375,-2.04167 -0.375,-8.25 v -19.29166 h -5.375 v -9.33333 h 5.375 v -8.79166 l 11.74999,-6.83333 v 15.62499 z m 8.12503,-6 v -10.83333 h 11.70833 v 10.83333 z m 0,50.24998 v -44.24998 h 11.70833 v 44.24998 z m 20.99998,-22.74999 q 0,-5.83333 2.875,-11.29166 2.875,-5.45833 8.12499,-8.33333 5.29167,-2.875 11.79167,-2.875 10.04166,0 16.45832,6.54166 6.41667,6.5 6.41667,16.45833 0,10.04166 -6.5,16.66666 -6.45833,6.58333 -16.29166,6.58333 -6.08333,0 -11.625,-2.75 -5.49999,-2.75 -8.37499,-8.04166 -2.875,-5.33333 -2.875,-12.95833 z m 11.99999,0.625 q 0,6.58333 3.125,10.08333 3.125,3.5 7.70833,3.5 4.58333,0 7.66667,-3.5 3.125,-3.5 3.125,-10.16666 0,-6.5 -3.125,-10 -3.08334,-3.5 -7.66667,-3.5 -4.58333,0 -7.70833,3.5 -3.125,3.5 -3.125,10.08333 z m 83.08326,22.12499 h -11.70832 v -22.58332 q 0,-7.16667 -0.75,-9.25 -0.75,-2.125 -2.45834,-3.29166 -1.66666,-1.16667 -4.04166,-1.16667 -3.04167,0 -5.45833,1.66667 -2.41667,1.66666 -3.33333,4.41666 -0.875,2.75 -0.875,10.16666 v 20.04166 h -11.70833 v -44.24998 h 10.87499 v 6.5 q 5.79167,-7.5 14.58333,-7.5 3.875,0 7.08333,1.41667 3.20833,1.375 4.83333,3.54166 1.66667,2.16667 2.29167,4.91667 0.66666,2.75 0.66666,7.87499 z m 36,0 v -60.58331 h 12.33333 v 50.29165 h 30.66665 v 10.29166 z m 60.45833,-30.74999 -10.625,-1.91666 q 1.79167,-6.41666 6.16667,-9.5 4.375,-3.08333 12.99999,-3.08333 7.83333,0 11.66666,1.875 3.83334,1.83333 5.375,4.70833 1.58334,2.83333 1.58334,10.45833 l -0.125,13.66666 q 0,5.83333 0.54166,8.625 0.58333,2.75 2.125,5.91666 h -11.58333 q -0.45833,-1.16666 -1.125,-3.45833 -0.29166,-1.04167 -0.41666,-1.375 -3,2.91667 -6.41667,4.375 -3.41666,1.45833 -7.29166,1.45833 -6.83333,0 -10.79166,-3.70833 -3.91667,-3.70833 -3.91667,-9.375 0,-3.74999 1.79167,-6.66666 1.79166,-2.95833 5,-4.5 3.24999,-1.58333 9.33332,-2.75 8.20833,-1.54166 11.375,-2.875 v -1.16666 q 0,-3.375 -1.66667,-4.79167 -1.66666,-1.45833 -6.29166,-1.45833 -3.125,0 -4.875,1.25 -1.75,1.20833 -2.83333,4.29166 z m 15.66666,9.5 q -2.25,0.75 -7.125,1.79167 -4.875,1.04166 -6.37499,2.04166 -2.29167,1.625 -2.29167,4.125 0,2.45833 1.83333,4.25 1.83333,1.79167 4.66667,1.79167 3.16666,0 6.04166,-2.08334 2.125,-1.58333 2.79167,-3.875 0.45833,-1.5 0.45833,-5.70833 z m 63.29161,21.24999 h -11.7083 v -22.58332 q 0,-7.16667 -0.75,-9.25 -0.75,-2.125 -2.4583,-3.29166 -1.6667,-1.16667 -4.0417,-1.16667 -3.0417,0 -5.4583,1.66667 -2.4167,1.66666 -3.3334,4.41666 -0.875,2.75 -0.875,10.16666 v 20.04166 h -11.70829 v -44.24998 h 10.87499 v 6.5 q 5.7917,-7.5 14.5833,-7.5 3.875,0 7.0834,1.41667 3.2083,1.375 4.8333,3.54166 1.6667,2.16667 2.2917,4.91667 0.6666,2.75 0.6666,7.87499 z m 10.7917,2.91667 13.375,1.625 q 0.3333,2.33333 1.5417,3.20833 1.6666,1.25 5.25,1.25 4.5833,0 6.875,-1.375 1.5416,-0.91667 2.3333,-2.95833 0.5417,-1.45834 0.5417,-5.375 v -6.45833 q -5.25,7.16666 -13.25,7.16666 -8.9167,0 -14.125,-7.54166 -4.0834,-5.95833 -4.0834,-14.83333 0,-11.12499 5.3334,-16.99999 5.375,-5.875 13.3333,-5.875 8.2083,0 13.5417,7.20833 v -6.20833 h 10.9583 v 39.70832 q 0,7.83333 -1.2917,11.70833 -1.2916,3.87499 -3.625,6.08333 -2.3333,2.20833 -6.25,3.45833 -3.875,1.25 -9.8333,1.25 -11.25,0 -15.9583,-3.875 -4.7084,-3.83333 -4.7084,-9.75 0,-0.58333 0.042,-1.41666 z m 10.4583,-25.95832 q 0,7.04166 2.7084,10.33332 2.75,3.25 6.75,3.25 4.2916,0 7.25,-3.33333 2.9583,-3.375 2.9583,-9.95833 0,-6.875 -2.8333,-10.20833 -2.8334,-3.33333 -7.1667,-3.33333 -4.2083,0 -6.9583,3.29167 -2.7084,3.24999 -2.7084,9.95833 z m 71.8749,23.04165 v -6.625 q -2.4167,3.54167 -6.375,5.58334 -3.9167,2.04166 -8.2916,2.04166 -4.4584,0 -8,-1.95833 -3.5417,-1.95833 -5.125,-5.5 -1.5834,-3.54166 -1.5834,-9.79166 v -27.99999 h 11.7084 v 20.33333 q 0,9.33332 0.625,11.45832 0.6666,2.08334 2.375,3.33334 1.7083,1.20833 4.3333,1.20833 3,0 5.375,-1.625 2.375,-1.66667 3.25,-4.08333 0.875,-2.45833 0.875,-11.95833 v -18.66666 h 11.7083 v 44.24998 z m 31.75,-30.74999 -10.625,-1.91666 q 1.7917,-6.41666 6.1667,-9.5 4.375,-3.08333 13,-3.08333 7.8333,0 11.6666,1.875 3.8334,1.83333 5.375,4.70833 1.5834,2.83333 1.5834,10.45833 l -0.125,13.66666 q 0,5.83333 0.5416,8.625 0.5834,2.75 2.125,5.91666 h -11.5833 q -0.4583,-1.16666 -1.125,-3.45833 -0.2917,-1.04167 -0.4167,-1.375 -3,2.91667 -6.4166,4.375 -3.4167,1.45833 -7.2917,1.45833 -6.8333,0 -10.7916,-3.70833 -3.9167,-3.70833 -3.9167,-9.375 0,-3.74999 1.7917,-6.66666 1.7916,-2.95833 5,-4.5 3.25,-1.58333 9.3333,-2.75 8.2083,-1.54166 11.375,-2.875 v -1.16666 q 0,-3.375 -1.6667,-4.79167 -1.6667,-1.45833 -6.2916,-1.45833 -3.125,0 -4.875,1.25 -1.75,1.20833 -2.8334,4.29166 z m 15.6667,9.5 q -2.25,0.75 -7.125,1.79167 -4.875,1.04166 -6.375,2.04166 -2.2917,1.625 -2.2917,4.125 0,2.45833 1.8334,4.25 1.8333,1.79167 4.6666,1.79167 3.1667,0 6.0417,-2.08334 2.125,-1.58333 2.7916,-3.875 0.4584,-1.5 0.4584,-5.70833 z m 21.9584,24.16666 13.375,1.625 q 0.3333,2.33333 1.5416,3.20833 1.6667,1.25 5.25,1.25 4.5834,0 6.875,-1.375 1.5417,-0.91667 2.3334,-2.95833 0.5416,-1.45834 0.5416,-5.375 v -6.45833 q -5.25,7.16666 -13.25,7.16666 -8.9166,0 -14.125,-7.54166 -4.0833,-5.95833 -4.0833,-14.83333 0,-11.12499 5.3333,-16.99999 5.375,-5.875 13.3334,-5.875 8.2083,0 13.5416,7.20833 v -6.20833 h 10.9583 v 39.70832 q 0,7.83333 -1.2916,11.70833 -1.2917,3.87499 -3.625,6.08333 -2.3333,2.20833 -6.25,3.45833 -3.875,1.25 -9.8333,1.25 -11.25,0 -15.9584,-3.875 -4.7083,-3.83333 -4.7083,-9.75 0,-0.58333 0.042,-1.41666 z m 10.4583,-25.95832 q 0,7.04166 2.7083,10.33332 2.75,3.25 6.75,3.25 4.2917,0 7.25,-3.33333 2.9584,-3.375 2.9584,-9.95833 0,-6.875 -2.8334,-10.20833 -2.8333,-3.33333 -7.1666,-3.33333 -4.2084,0 -6.9584,3.29167 -2.7083,3.24999 -2.7083,9.95833 z m 68.375,8.95832 11.6666,1.95834 q -2.2499,6.41666 -7.1249,9.79166 -4.8334,3.33333 -12.125,3.33333 -11.5417,0 -17.0834,-7.54166 -4.375,-6.04167 -4.375,-15.25 0,-10.99999 5.75,-17.20832 5.75,-6.25 14.5417,-6.25 9.875,0 15.5833,6.54166 5.7083,6.5 5.4583,19.95833 h -29.3333 q 0.125,5.20833 2.8334,8.125 2.7083,2.875 6.75,2.875 2.75,0 4.625,-1.5 1.875,-1.5 2.8333,-4.83334 z m 0.6667,-11.83332 q -0.125,-5.08333 -2.625,-7.70833 -2.5,-2.66667 -6.0834,-2.66667 -3.8333,0 -6.3333,2.79167 -2.5,2.79166 -2.4583,7.58333 z m 64.2916,43.87498 h -8.0417 q -6.375,-9.625 -9.7083,-19.99999 -3.3333,-10.375 -3.3333,-20.08333 0,-12.04166 4.125,-22.79166 3.5833,-9.33333 9.0833,-17.20832 h 8 q -5.7083,12.62499 -7.875,21.49999 -2.125,8.83333 -2.125,18.74999 0,6.83333 1.25,14 1.2917,7.16666 3.5,13.62499 1.4583,4.25 5.125,12.20833 z m 48.1666,-40.41665 11.9583,3.79166 q -2.75,10 -9.1666,14.875 -6.375,4.83333 -16.2084,4.83333 -12.1666,0 -20,-8.29166 -7.8333,-8.33333 -7.8333,-22.75 0,-15.24999 7.875,-23.66665 7.875,-8.45833 20.7083,-8.45833 11.2084,0 18.2084,6.625 4.1666,3.91666 6.25,11.24999 l -12.2084,2.91667 q -1.0833,-4.75 -4.5416,-7.5 -3.4167,-2.75 -8.3334,-2.75 -6.7916,0 -11.0416,4.875 -4.2084,4.875 -4.2084,15.79166 0,11.58333 4.1667,16.49999 4.1667,4.91667 10.8333,4.91667 4.9167,0 8.4584,-3.125 3.5416,-3.125 5.0833,-9.83333 z m 36.2917,22.45832 v -50.74998 h -18.125 v -10.33333 h 48.5416 v 10.33333 h -18.0833 v 50.74998 z m 38.7083,0 v -60.58331 h 12.3333 v 50.29165 h 30.6667 v 10.29166 z m 48.4582,17.95833 q 3.4584,-7.41667 4.875,-11.375 1.4167,-3.95833 2.625,-9.12499 1.2084,-5.16667 1.7917,-9.79167 0.5833,-4.66666 0.5833,-9.54166 0,-9.91666 -2.125,-18.74999 -2.125,-8.875 -7.8333,-21.49999 h 7.9583 q 6.2917,8.95833 9.75,18.99999 3.5,10.04166 3.5,20.37499 0,8.70833 -2.75,18.66666 -3.125,11.16666 -10.2916,22.04166 z"
       id="path34" />
    <path
       style="font-weight:bold;font-size:85.3333px;font-family:Arial;-inkscape-font-specification:'Arial, Bold';baseline-shift:baseline;display:inline;overflow:visible;vector-effect:none;fill:#ffffff;enable-background:accumulate;stop-color:#000000;stop-opacity:1"
       d="m 25.816406,379.92773 c -8.6654,0 -15.731918,2.87917 -21.0742185,8.61719 -5.35292937,5.72112 -8.0097656,13.75509 -8.0097656,24.00781 0,9.70168 2.6499305,17.43336 7.9707031,23.09375 5.310962,5.62171 12.138589,8.44922 20.363281,8.44922 6.637474,0 12.161142,-1.63855 16.509766,-4.93554 h 0.002 c 4.38151,-3.32881 7.491515,-8.39812 9.345703,-15.14063 l 0.126953,-0.46484 -12.933594,-4.09961 -0.121093,0.52734 c -1.012854,4.40728 -2.67273,7.5806 -4.927735,9.57031 -2.275039,2.00739 -4.955108,3 -8.126953,3 -4.321526,0 -7.75843,-1.56279 -10.451172,-4.74023 -2.652565,-3.13002 -4.048828,-8.51351 -4.048828,-16.17578 0,-7.21261 1.40168,-12.35252 4.085938,-15.46289 2.746638,-3.15056 6.255918,-4.70313 10.664062,-4.70313 3.184556,0 5.833014,0.87879 8.019531,2.63867 h 0.002 v 0.002 c 2.215695,1.76188 3.664009,4.1461 4.365234,7.2207 l 0.113281,0.49219 13.207031,-3.15625 -0.142578,-0.50195 c -1.40644,-4.95067 -3.527727,-8.78728 -6.388672,-11.47657 -4.763281,-4.50752 -10.980653,-6.76172 -18.550781,-6.76172 z m 462.666014,0 c -3.30982,0 -6.08991,0.59486 -8.32226,1.8125 -2.18503,1.17935 -3.73917,2.75039 -4.59375,4.69532 v 0.002 l -0.002,0.004 c -0.82529,1.94533 -1.20703,4.77225 -1.20703,8.52929 v 2.83203 h -6.5 v 10.20899 h 6.5 v 35.04101 h 12.70899 v -35.04101 h 8.75 v -10.20899 h -8.75 v -2.625 c 0,-2.1965 0.39058,-3.59957 0.94921,-4.20117 0.62204,-0.66811 1.68557,-1.04883 3.30079,-1.04883 1.67921,0 3.43059,0.21795 5.25781,0.6543 l 0.50781,0.12109 1.76758,-9.11914 -0.42578,-0.13281 c -3.24177,-1.01481 -6.55807,-1.52344 -9.94141,-1.52344 z m 840.15628,0 -0.1485,0.21485 c -3.6905,5.28422 -6.7379,11.05625 -9.1406,17.31445 -2.7724,7.22497 -4.1582,14.88584 -4.1582,22.9707 0,6.52945 1.1213,13.27642 3.3574,20.23633 2.2368,6.96217 5.4941,13.67088 9.7676,20.12305 l 0.1484,0.22461 h 9.0899 l -0.3262,-0.70899 c -2.4408,-5.29771 -4.1439,-9.35983 -5.1055,-12.16211 -1.4635,-4.28021 -2.6254,-8.79615 -3.4824,-13.55078 v 0.002 c -0.8287,-4.75128 -1.2442,-9.389 -1.2442,-13.91407 0,-6.5747 0.7049,-12.78387 2.1114,-18.63086 v -0.002 c 1.4335,-5.87115 4.0488,-13.0127 7.8457,-21.41015 l 0.3183,-0.70704 z m 43.6347,0 c -8.6648,0 -15.73,2.8799 -21.0722,8.61719 -5.353,5.72112 -8.0098,13.75509 -8.0098,24.00781 0,9.70168 2.648,17.43336 7.9688,23.09375 5.311,5.62171 12.1386,8.44922 20.3632,8.44922 6.6376,0 12.1631,-1.63855 16.5118,-4.93554 4.3814,-3.32882 7.4915,-8.39813 9.3457,-15.14063 l 0.1289,-0.46484 -12.9356,-4.09961 -0.1211,0.52734 c -1.0129,4.40729 -2.6708,7.5806 -4.9258,9.57031 -2.275,2.00739 -4.957,3 -8.1289,3 -4.3214,0 -7.7584,-1.56279 -10.4511,-4.74023 -2.6526,-3.13002 -4.0489,-8.51351 -4.0489,-16.17578 0,-7.21202 1.4021,-12.35244 4.086,-15.46289 v -0.002 c 2.7464,-3.1491 6.255,-4.70117 10.6621,-4.70117 3.1846,0 5.835,0.87879 8.0215,2.63867 v 0.002 c 2.2156,1.76188 3.664,4.1461 4.3652,7.2207 l 0.1113,0.49219 13.2071,-3.15625 -0.1426,-0.50195 c -1.4065,-4.95067 -3.5278,-8.78728 -6.3887,-11.47657 -4.7633,-4.50753 -10.9806,-6.76172 -18.5508,-6.76172 z m 135.2676,0 0.3184,0.70704 c 3.797,8.3978 6.3971,15.53987 7.8027,21.41015 1.4067,5.84752 2.1113,12.05742 2.1113,18.63281 0,3.23006 -0.1919,6.39063 -0.5781,9.48047 -0.3864,3.06374 -0.9811,6.31063 -1.7832,9.74024 -0.8021,3.42982 -1.673,6.45394 -2.6094,9.07031 -0.9343,2.61063 -2.5551,6.39476 -4.8574,11.33203 l -0.3301,0.71094 h 9.1368 l 0.1484,-0.22461 c 4.8026,-7.28778 8.2567,-14.68224 10.3555,-22.18164 v -0.002 c 1.8432,-6.67494 2.7675,-12.9426 2.7675,-18.80079 0,-6.94471 -1.1769,-13.79292 -3.5273,-20.53711 v -0.002 c -2.321,-6.73879 -5.5927,-13.11468 -9.8125,-19.12305 l -0.1504,-0.21289 z m -1481.724594,1 c 7.373706,0 13.295334,2.1632 17.865235,6.48829 v 0.002 c 2.591265,2.43578 4.545623,5.97709 5.914062,10.5332 l -11.228516,2.6836 c -0.788152,-3.01625 -2.264298,-5.50282 -4.529296,-7.30469 -2.369037,-1.90679 -5.275488,-2.85938 -8.646485,-2.85938 -4.647408,0 -8.497943,1.69548 -11.417968,5.04492 l -0.002,0.002 c -2.926188,3.38974 -4.3300777,8.77712 -4.3300777,16.11914 -10e-8,7.78217 1.3821687,13.39674 4.2851567,16.82226 2.862812,3.37813 6.647484,5.09375 11.214843,5.09375 3.383709,0 6.341882,-1.09072 8.789063,-3.25 2.360841,-2.08309 4.00601,-5.33783 5.060547,-9.58398 l 11.011718,3.49023 c -1.824916,6.34462 -4.758909,11.06127 -8.830078,14.1543 -4.151372,3.14745 -9.432618,4.73242 -15.90625,4.73242 -7.997523,0 -14.503241,-2.70288 -19.6367185,-8.13672 -5.12241687,-5.45052 -7.6972656,-12.88686 -7.6972656,-22.40625 0,-10.08059 2.59316812,-17.82312 7.7402343,-23.32421 h 0.00195 v -0.002 c 5.1576958,-5.53974 11.8960938,-8.29883 20.3417968,-8.29883 z m 462.666014,0 c 3.13404,0 6.19933,0.47938 9.20899,1.37696 l -1.40235,7.24023 c -1.70538,-0.37147 -3.37384,-0.61719 -4.97265,-0.61719 -1.77369,0 -3.15524,0.42419 -4.03321,1.36719 v 0.002 c -0.88581,0.95395 -1.21679,2.57737 -1.21679,4.88086 v 3.625 h 8.75 v 8.20899 h -8.75 v 35.04101 h -10.70899 v -35.04101 h -6.5 v -8.20899 h 6.5 v -3.83203 c 0,-3.68409 0.39599,-6.41121 1.125,-8.13281 v -0.002 c 0.75631,-1.7203 2.11905,-3.11884 4.1543,-4.2168 l 0.002,-0.002 c 2.04543,-1.11569 4.65359,-1.68946 7.84375,-1.68946 z m 840.69728,0 h 6.9726 c -3.6304,8.10876 -6.2015,15.10027 -7.6132,20.88282 -1.4267,5.93025 -2.1407,12.22036 -2.1407,18.86718 0,4.58605 0.4199,9.28166 1.2579,14.08594 v 0.002 0.002 c 0.8653,4.80092 2.0367,9.36638 3.5176,13.69726 0.926,2.69876 2.6212,6.67534 4.8476,11.54688 h -7.0019 c -4.1548,-6.31319 -7.3394,-12.86035 -9.5215,-19.65235 -2.2083,-6.87342 -3.3086,-13.51664 -3.3086,-19.93164 0,-7.97068 1.3642,-15.50296 4.0918,-22.61132 2.3442,-6.10593 5.3173,-11.72823 8.8965,-16.88868 z m 43.0937,0 c 7.3738,0 13.2954,2.1632 17.8653,6.48829 v 0.002 c 2.5913,2.4358 4.5456,5.97706 5.9141,10.5332 l -11.2305,2.6836 c -0.7884,-3.01723 -2.265,-5.5046 -4.5312,-7.30665 -2.3685,-1.90493 -5.2752,-2.85742 -8.6446,-2.85742 -4.6473,0 -8.4979,1.69548 -11.4179,5.04492 v 0.002 0 c -2.9262,3.38974 -4.3301,8.77711 -4.3301,16.11914 0,7.78217 1.3822,13.39674 4.2852,16.82226 2.8628,3.37812 6.6475,5.09375 11.2148,5.09375 3.3838,0 6.3419,-1.09072 8.7891,-3.25 2.3608,-2.08309 4.006,-5.33784 5.0605,-9.58398 l 11.0137,3.49023 c -1.8249,6.34462 -4.7609,11.06127 -8.832,14.1543 -4.1514,3.14745 -9.4326,4.73242 -15.9063,4.73242 -7.9974,0 -14.5032,-2.70287 -19.6367,-8.13672 -5.1224,-5.45052 -7.6953,-12.88686 -7.6953,-22.40625 0,-10.08059 2.5932,-17.82312 7.7402,-23.32421 v -0.002 c 5.1577,-5.53974 11.8962,-8.29883 20.3418,-8.29883 z m 136.7891,0 h 6.9316 c 4.0988,5.8748 7.2932,12.09182 9.5567,18.66407 v 0.002 c 2.3158,6.64411 3.4707,13.37655 3.4707,20.20898 0,5.75293 -0.9071,11.93037 -2.7304,18.53321 -2.0466,7.31314 -5.4254,14.53627 -10.1016,21.67578 h -7.0351 c 2.0858,-4.50879 3.6928,-8.20596 4.5878,-10.70703 0.9526,-2.66141 1.8337,-5.72063 2.6426,-9.17969 0.8091,-3.45929 1.4095,-6.73887 1.8008,-9.8418 v -0.002 c 0.3915,-3.13237 0.5859,-6.33357 0.5859,-9.60352 0,-6.64613 -0.7123,-12.93551 -2.1386,-18.86523 v -0.002 c -1.3849,-5.78331 -3.9429,-12.7745 -7.5723,-20.88282 z m -1396.49609,0.043 v 62.08203 h 12.70898 V 380.9707 Z m 128.45898,0 v 11.33203 h 18.125 v 50.75 h 13.33203 v -50.75 h 18.08399 V 380.9707 Z m 497.45703,0 v 11.83203 h 12.70899 V 380.9707 Z m 664.12498,0 v 11.33203 h 18.125 v 50.75 h 13.334 v -50.75 h 18.082 V 380.9707 Z m -512.04099,0.5 v 61.58203 h 44 V 431.76172 H 903.90039 V 381.4707 Z m 568.87499,0 v 61.58203 h 44 v -11.29101 h -30.668 V 381.4707 Z m -736.08398,0.33789 -12.75,7.41602 v 8.57812 h -5.375 v 10.33399 h 5.375 v 18.79101 c 0,4.14799 0.11668,6.88795 0.38281,8.33789 7e-5,3.4e-4 -6e-5,0.002 0,0.002 0.31383,1.9617 0.87234,3.55601 1.70508,4.77539 l 0.004,0.006 0.004,0.006 c 0.87313,1.2043 2.20575,2.16873 3.95899,2.91601 l 0.002,0.002 0.004,0.002 c 1.76186,0.72207 3.7325,1.07812 5.89844,1.07812 3.50089,0 6.65486,-0.59231 9.44726,-1.78906 l 0.33985,-0.14648 -1.10938,-10.08594 -0.59961,0.21875 c -2.02898,0.74031 -3.56916,1.0957 -4.53711,1.0957 -0.69203,0 -1.24228,-0.16839 -1.70703,-0.49218 -0.44451,-0.32928 -0.7109,-0.70765 -0.84766,-1.17774 -0.0458,-0.20886 -0.10847,-0.89491 -0.14257,-1.93164 -0.0344,-1.04619 -0.0527,-2.47109 -0.0527,-4.27344 v -17.33398 h 8 v -10.33399 h -8 z m -609.79101,0.16211 h 10.70898 v 60.08203 h -10.70898 z m 128.45898,0 h 47.54102 v 9.33203 h -18.08399 v 50.75 h -11.33203 v -50.75 h -18.125 z m 497.45703,0 h 10.70899 v 9.83203 h -10.70899 z m 664.12498,0 h 47.541 v 9.33203 h -18.082 v 50.75 h -11.334 v -50.75 h -18.125 z m -512.04099,0.5 h 11.33398 v 50.29102 h 30.66602 v 9.29101 h -42 z m 568.87499,0 h 11.332 v 50.29102 h 30.668 v 9.29101 h -42 z m -738.08398,1.07813 v 15.2539 h 8 v 8.33399 h -8 v 18.33398 c 0,1.80876 0.0177,3.24173 0.0527,4.30664 0.035,1.06492 0.0749,1.72739 0.16796,2.13672 l 0.004,0.0137 0.004,0.0137 c 0.1969,0.68916 0.62095,1.27785 1.22461,1.72265 l 0.006,0.004 0.004,0.004 c 0.64537,0.45175 1.42601,0.67383 2.28711,0.67383 1.04905,0 2.55381,-0.42687 4.27149,-1.01172 l 0.89453,8.11329 c -2.57242,1.04641 -5.45676,1.60546 -8.70703,1.60546 -2.05324,0 -3.8865,-0.33711 -5.51172,-1.00195 -1.63117,-0.69526 -2.79685,-1.55992 -3.53516,-2.57422 -0.72015,-1.05593 -1.24568,-2.51216 -1.54297,-4.37695 v -0.006 l -0.002,-0.006 c -0.23373,-1.27255 -0.36719,-4.03134 -0.36719,-8.16016 v -19.79101 h -5.375 v -8.33399 h 5.375 v -9.0039 z m -641.332029,13.2539 c -4.40705,0 -8.428013,0.97789 -12.03125,2.93555 v 0.002 h -0.002 c -3.583194,1.96223 -6.367893,4.82118 -8.326171,8.53907 -1.950892,3.70386 -2.933594,7.5524 -2.933594,11.52343 0,5.14618 0.971654,9.55215 2.935547,13.19532 V 433 c 1.963171,3.61337 4.841561,6.37488 8.591797,8.25 l 0.002,0.002 c 3.7597,1.86572 7.714806,2.80078 11.845703,2.80078 6.667134,0 12.254045,-2.25297 16.648437,-6.73242 4.42178,-4.50681 6.64453,-10.21525 6.64453,-17.01758 0,-6.74627 -2.19308,-12.38441 -6.560545,-16.80859 -4.36908,-4.45419 -10.011437,-6.69141 -16.814453,-6.69141 z m 75.832029,0 c -4.40705,0 -8.42606,0.97789 -12.0293,2.93555 l -0.002,0.002 c -3.58319,1.96223 -6.36789,4.82118 -8.32617,8.53907 -1.95089,3.70386 -2.93359,7.5524 -2.93359,11.52343 0,5.14618 0.97165,9.55215 2.93554,13.19532 V 433 c 1.96318,3.61337 4.84156,6.37488 8.5918,8.25 v 0.002 c 3.7597,1.86572 7.71676,2.80078 11.84766,2.80078 6.66713,0 12.25404,-2.25297 16.64843,-6.73242 4.42178,-4.50681 6.64258,-10.21525 6.64258,-17.01758 0,-6.74627 -2.19309,-12.38441 -6.56055,-16.80859 -4.36893,-4.45346 -10.01199,-6.69141 -16.81445,-6.69141 z m 52.5,0 c -1.97222,0 -3.76953,0.49928 -5.34961,1.49414 l -0.002,0.002 h -0.002 c -1.31829,0.84569 -2.72589,2.53598 -4.22852,4.73828 v -5.23438 h -11.875 v 45.25 h 12.70703 v -14.16601 c 0,-7.51229 0.33772,-12.46881 0.94141,-14.70117 1.1e-4,-4e-4 -1.1e-4,-0.002 0,-0.002 0.65069,-2.30139 1.52729,-3.82622 2.5332,-4.61132 l 0.004,-0.002 0.002,-0.002 c 1.04763,-0.84322 2.30785,-1.26563 3.85352,-1.26563 1.56875,0 3.31113,0.5937 5.22851,1.83594 l 0.53125,0.3457 3.97461,-11.1914 -0.35351,-0.21094 c -2.54013,-1.51266 -5.20617,-2.2793 -7.96485,-2.2793 z m 104.33399,0 c -1.97223,0 -3.76953,0.49928 -5.34961,1.49414 l -0.002,0.002 h -0.002 c -1.31836,0.84573 -2.72776,2.5358 -4.23047,4.73828 v -5.23438 h -11.875 v 45.25 h 12.70899 v -14.16601 c 0,-7.51229 0.33771,-12.46881 0.9414,-14.70117 1.1e-4,-4e-4 -1.1e-4,-0.002 0,-0.002 0.6507,-2.30139 1.52729,-3.82622 2.53321,-4.61132 l 0.002,-0.002 0.004,-0.002 c 1.04764,-0.84322 2.30785,-1.26563 3.85352,-1.26563 1.56876,0 3.30918,0.5937 5.22656,1.83594 l 0.53125,0.3457 3.97461,-11.1914 -0.35156,-0.21094 c -2.54013,-1.51265 -5.20617,-2.2793 -7.96484,-2.2793 z m 30.04101,0 c -5.80957,0 -10.24397,1.0311 -13.28711,3.17579 -3.02389,2.13113 -5.14411,5.41411 -6.36133,9.77343 l -0.14648,0.5293 11.58398,2.08984 0.14063,-0.40234 c 0.70108,-1.99539 1.60375,-3.32494 2.64648,-4.04492 l 0.004,-0.004 0.002,-0.002 c 1.05212,-0.75152 2.56927,-1.15625 4.58594,-1.15625 3.03078,0 5.02233,0.5127 5.96094,1.33398 l 0.004,0.002 0.002,0.004 c 0.96182,0.81755 1.49023,2.24246 1.49023,4.41016 v 0.80078 c -2.07955,0.83282 -5.7011,1.76102 -10.9668,2.75 h -0.002 c -4.08047,0.78256 -7.22341,1.70284 -9.45703,2.79102 -2.21748,1.06609 -3.96644,2.63976 -5.20898,4.6914 v -0.004 c -1.24447,2.02587 -1.86524,4.35006 -1.86524,6.92968 0,3.89298 1.37078,7.17669 4.07422,9.73633 v 0.002 h 0.002 c 2.74365,2.57037 6.48682,3.84375 11.13282,3.84375 2.64605,0 5.14774,-0.49903 7.48828,-1.49804 2.11492,-0.90271 4.09026,-2.26803 5.95898,-3.97461 0.0672,0.22194 0.10129,0.31459 0.19531,0.65039 l 0.002,0.002 v 0.002 c 0.44667,1.53544 0.8245,2.69727 1.14062,3.50196 l 0.12305,0.3164 h 12.72461 l -0.34961,-0.71875 c -1.01239,-2.0795 -1.70524,-4.01091 -2.08399,-5.79296 v -0.002 c -0.34838,-1.79644 -0.53303,-4.6536 -0.5332,-8.52344 v -0.004 l 0.125,-13.66406 v -0.002 c 0,-5.11543 -0.49699,-8.64316 -1.64453,-10.69922 -1.08814,-2.02697 -2.97375,-3.66413 -5.59375,-4.91796 -2.67631,-1.30907 -6.6246,-1.92579 -11.88672,-1.92579 z m 55.54297,0 c -5.57745,0 -10.28242,2.33871 -14.08398,6.74414 v -5.74414 h -11.875 v 45.25 h 12.70898 v -20.54101 c 0,-4.92478 0.30761,-8.30605 0.85156,-10.01563 0.57956,-1.73294 1.61354,-3.10308 3.14063,-4.15625 1.5304,-1.05545 3.23738,-1.57812 5.17383,-1.57812 1.50146,0 2.7342,0.36238 3.7539,1.07617 l 0.004,0.002 0.002,0.002 c 1.05028,0.71726 1.79963,1.71352 2.26953,3.04492 v 0.002 c 0.43811,1.21697 0.72071,4.32169 0.72071,9.08203 v 23.08203 h 12.70898 v -28 c 0,-3.4375 -0.22067,-6.08788 -0.68164,-7.99023 -0.43157,-1.89505 -1.22496,-3.60268 -2.37695,-5.10156 l -0.004,-0.004 c -1.14654,-1.52681 -2.83411,-2.75444 -5.02734,-3.69531 l -0.006,-0.002 c -2.20546,-0.97284 -4.63728,-1.45704 -7.2793,-1.45704 z m 42.875,0 c -6.42952,0 -11.25123,1.31486 -14.41016,4.03907 -3.11941,2.69013 -4.71484,6.07994 -4.71484,10.04492 0,4.38725 1.85276,7.90437 5.4668,10.37109 2.6897,1.83255 8.66923,3.69565 18.13281,5.78321 h -0.006 c 1.9884,0.46304 3.24214,1.00581 3.67188,1.41015 0.4622,0.48963 0.6914,1.07171 0.6914,1.85156 0,1.17228 -0.42278,2.02678 -1.33984,2.72266 -1.40081,1.01724 -3.57075,1.57031 -6.53516,1.57031 -2.67603,0 -4.6949,-0.56824 -6.10742,-1.64453 l -0.002,-0.002 c -1.42594,-1.1157 -2.37856,-2.72954 -2.85938,-4.91992 l -0.10156,-0.45703 -12.75977,1.94531 0.13868,0.53515 c 1.11005,4.29791 3.48205,7.73669 7.07226,10.24414 h 0.002 c 3.63736,2.52037 8.52183,3.75586 14.61719,3.75586 6.71211,0 11.8579,-1.47412 15.36914,-4.49609 3.47573,-2.9914 5.25586,-6.64111 5.25586,-10.83594 0,-3.83167 -1.28547,-6.91115 -3.8418,-9.08984 l -0.002,-0.002 -0.002,-0.002 c -2.58807,-2.15188 -7.00599,-3.88549 -13.29297,-5.31054 -3.10444,-0.70682 -5.56036,-1.33392 -7.36133,-1.87696 -1.79881,-0.54239 -2.96658,-1.03526 -3.36523,-1.32812 -0.68635,-0.51476 -0.9668,-1.04683 -0.9668,-1.72461 0,-0.81706 0.32823,-1.41746 1.10938,-1.95703 1.1866,-0.76418 3.31443,-1.20899 6.34765,-1.20899 2.38195,0 4.15245,0.45087 5.33789,1.28321 l 0.002,0.002 0.002,0.002 c 1.23558,0.84946 2.0633,2.04943 2.50976,3.67774 l 0.1211,0.44336 12.03515,-2.22657 -0.15234,-0.52929 c -1.13732,-3.95217 -3.23952,-6.98734 -6.28516,-9.02735 -3.07611,-2.06042 -7.6675,-3.04297 -13.77734,-3.04297 z m 79.83203,0 c -4.40705,0 -8.42606,0.97789 -12.0293,2.93555 l -0.002,0.002 c -3.58319,1.96223 -6.36984,4.82118 -8.32812,8.53907 -1.9509,3.70386 -2.93164,7.5524 -2.93164,11.52343 0,5.14618 0.97165,9.55215 2.93554,13.19532 V 433 c 1.96318,3.61337 4.83961,6.37488 8.58985,8.25 h 0.002 v 0.002 c 3.7597,1.86572 7.71676,2.80078 11.84766,2.80078 6.66713,0 12.25404,-2.25297 16.64843,-6.73242 4.42178,-4.50681 6.64258,-10.21525 6.64258,-17.01758 0,-6.74627 -2.19309,-12.38441 -6.56055,-16.80859 -4.36893,-4.45346 -10.01199,-6.69141 -16.81445,-6.69141 z m 52.5,0 c -1.97222,0 -3.76953,0.49928 -5.34961,1.49414 l -0.002,0.002 h -0.002 c -1.31829,0.84569 -2.72589,2.53598 -4.22852,4.73828 v -5.23438 h -11.875 v 45.25 h 12.70703 v -14.16601 c 0,-7.51229 0.33771,-12.46881 0.94141,-14.70117 1.1e-4,-4e-4 -1.1e-4,-0.002 0,-0.002 0.65069,-2.30139 1.52729,-3.82622 2.5332,-4.61132 l 0.004,-0.002 0.002,-0.002 c 1.04763,-0.84321 2.30785,-1.26563 3.85352,-1.26563 1.56876,0 3.31113,0.5937 5.22851,1.83594 l 0.53125,0.3457 3.97266,-11.1914 -0.35156,-0.21094 c -2.54013,-1.51266 -5.20617,-2.2793 -7.96485,-2.2793 z m 36.45899,0 c -5.08872,0 -9.5292,2.19666 -13.29102,6.32618 v -5.32618 h -11.79297 v 45.25 h 12.70899 v -22 c 0,-4.22245 0.31514,-7.23683 0.88867,-8.96093 l 0.002,-0.002 c 3.1e-4,-9.1e-4 -3e-4,-0.003 0,-0.004 0.60953,-1.74557 1.57929,-3.04225 2.92969,-3.95117 1.36439,-0.91834 2.87989,-1.37305 4.5957,-1.37305 1.4321,0 2.50259,0.29241 3.25195,0.82422 l 0.004,0.002 0.004,0.002 c 0.78779,0.54161 1.37496,1.36707 1.76562,2.53907 0.36221,1.08661 0.59961,3.8844 0.59961,8.17382 v 24.75 h 12.70899 v -21.75 c 0,-4.14111 0.32712,-7.15324 0.93164,-8.96679 h 0.002 v -0.002 c 0.61194,-1.86242 1.58548,-3.2288 2.93359,-4.16211 1.37168,-0.94962 2.8046,-1.41015 4.3418,-1.41015 2.12478,0 3.57911,0.73807 4.57617,2.26953 0.66716,1.06085 1.13086,3.87491 1.13086,8.23047 v 25.79101 h 12.70899 v -28.79101 c 0,-4.25402 -0.38976,-7.35073 -1.24805,-9.36328 l -0.002,-0.002 v -0.002 c -1.14729,-2.63876 -2.90638,-4.6628 -5.2461,-6.02148 l -0.004,-0.002 c -2.34014,-1.3857 -5.18335,-2.06836 -8.5,-2.06836 -2.63164,0 -5.12078,0.60437 -7.43946,1.80664 -2.15563,1.11774 -4.14684,2.81607 -6.00781,4.97071 -1.31991,-2.14246 -2.94061,-3.84682 -4.93359,-4.96289 -2.16765,-1.21388 -4.71718,-1.81446 -7.61914,-1.81446 z m 69.45898,0 c -5.80958,0 -10.24593,1.0311 -13.28906,3.17579 -3.02389,2.13113 -5.14216,5.41411 -6.35938,9.77343 l -0.14843,0.5293 11.58398,2.08984 0.14258,-0.40234 c 0.70108,-1.99539 1.6018,-3.32494 2.64453,-4.04492 l 0.004,-0.004 0.004,-0.002 c 1.05212,-0.75152 2.56733,-1.15625 4.58399,-1.15625 3.03078,0 5.02427,0.51269 5.96289,1.33398 l 0.002,0.002 0.002,0.004 c 0.96182,0.81755 1.49219,2.24246 1.49219,4.41016 v 0.80078 c -2.07931,0.83295 -5.70194,1.76081 -10.96875,2.75 h -0.002 c -4.08047,0.78256 -7.22341,1.70284 -9.45703,2.79102 -2.21614,1.06545 -3.96463,2.63768 -5.20704,4.6875 -1.24446,2.02587 -1.86523,4.35006 -1.86523,6.92968 0,3.89298 1.36883,7.17669 4.07227,9.73633 v 0.002 h 0.002 c 2.74365,2.57037 6.48681,3.84375 11.13281,3.84375 2.64606,0 5.14773,-0.49903 7.48828,-1.49804 2.11484,-0.90268 4.09032,-2.26813 5.95899,-3.97461 0.0672,0.22198 0.1032,0.31444 0.19726,0.65039 v 0.002 0.002 c 0.44667,1.53544 0.82449,2.69727 1.14063,3.50196 l 0.125,0.3164 h 12.72265 l -0.34961,-0.71875 c -1.01239,-2.07949 -1.70524,-4.01091 -2.08398,-5.79296 v -0.002 c -0.34839,-1.79644 -0.53108,-4.6536 -0.53125,-8.52344 v -0.004 l 0.125,-13.66406 v -0.002 c 0,-5.11543 -0.49896,-8.64316 -1.64648,-10.69922 -1.08815,-2.02697 -2.97376,-3.66413 -5.59375,-4.91796 -2.67631,-1.30907 -6.62266,-1.92579 -11.88477,-1.92579 z m 102.375,0 c -4.40705,0 -8.42801,0.97789 -12.03125,2.93555 v 0.002 h -0.002 c -3.58319,1.96223 -6.36789,4.82118 -8.32617,8.53907 -1.9509,3.70386 -2.9336,7.5524 -2.9336,11.52343 0,5.14618 0.97166,9.55215 2.93555,13.19532 V 433 c 1.96317,3.61337 4.84157,6.37488 8.5918,8.25 v 0.002 c 3.7597,1.86572 7.71676,2.80078 11.84765,2.80078 6.66714,0 12.25405,-2.25297 16.64844,-6.73242 4.42178,-4.50681 6.64453,-10.21525 6.64453,-17.01758 0,-6.74627 -2.19503,-12.38441 -6.5625,-16.80859 -4.36893,-4.45346 -10.01004,-6.69141 -16.8125,-6.69141 z m 57.41602,0 c -5.57776,0 -10.28231,2.33822 -14.08399,6.74414 v -5.74414 h -11.875 v 45.25 h 12.70899 v -20.54101 c 0,-4.91965 0.30671,-8.29654 0.84961,-10.00781 v -0.002 c 0.57911,-1.73621 1.61345,-3.10754 3.14257,-4.16211 1.5304,-1.05545 3.23738,-1.57812 5.17383,-1.57812 1.50146,0 2.73616,0.36238 3.75586,1.07617 l 0.002,0.002 0.002,0.002 c 1.05028,0.71726 1.79963,1.71352 2.26953,3.04492 v 0.002 c 0.43811,1.21697 0.7207,4.32169 0.7207,9.08203 v 23.08203 h 12.70899 v -28 c 0,-3.4375 -0.22068,-6.08788 -0.68164,-7.99023 -0.43158,-1.89505 -1.22496,-3.60268 -2.37696,-5.10156 l -0.004,-0.004 c -1.14654,-1.52681 -2.83412,-2.75444 -5.02735,-3.69531 l -0.006,-0.002 c -2.20544,-0.97284 -4.63727,-1.45704 -7.27929,-1.45704 z m 119.875,0 c -5.80958,0 -10.24593,1.0311 -13.28907,3.17579 -3.02389,2.13113 -5.14215,5.41411 -6.35937,9.77343 l -0.14844,0.5293 11.58594,2.08984 0.14062,-0.40234 c 0.70108,-1.99539 1.60376,-3.32494 2.64649,-4.04492 l 0.002,-0.004 0.004,-0.002 c 1.05212,-0.75152 2.56732,-1.15625 4.58398,-1.15625 3.03078,0 5.02428,0.5127 5.96289,1.33398 l 0.002,0.002 0.004,0.004 c 0.96182,0.81755 1.49024,2.24246 1.49024,4.41016 v 0.80078 c -2.07932,0.83295 -5.69999,1.76081 -10.9668,2.75 h -0.002 c -4.08047,0.78256 -7.22537,1.70284 -9.45899,2.79102 -2.21614,1.06545 -3.96463,2.63768 -5.20703,4.6875 -1.24447,2.02587 -1.86523,4.35006 -1.86523,6.92968 0,3.89298 1.36882,7.17669 4.07226,9.73633 l 0.002,0.002 c 2.74365,2.57037 6.48877,3.84375 11.13477,3.84375 2.64606,0 5.14579,-0.49903 7.48633,-1.49804 2.11449,-0.90253 4.09059,-2.26854 5.95898,-3.97461 0.0672,0.22198 0.10321,0.31444 0.19727,0.65039 v 0.002 l 0.002,0.002 c 0.44668,1.53544 0.82255,2.69727 1.13867,3.50196 l 0.125,0.3164 h 12.72461 l -0.35156,-0.71875 c -1.01371,-2.0822 -1.70557,-4.0168 -2.08398,-5.80078 -0.34793,-1.79666 -0.53109,-4.65039 -0.53125,-8.51758 v -0.004 l 0.125,-13.66406 v -0.002 c 0,-5.11543 -0.497,-8.64316 -1.64454,-10.69922 -1.08813,-2.02697 -2.97374,-3.66413 -5.59375,-4.91796 -2.6763,-1.30907 -6.6246,-1.92579 -11.88671,-1.92579 z m 55.54099,0 c -5.5777,0 -10.2823,2.33822 -14.084,6.74414 v -5.74414 h -11.87496 v 45.25 h 12.70896 v -20.54101 c 0,-4.91965 0.3067,-8.29654 0.8496,-10.00781 v -0.002 c 0.5792,-1.73621 1.6135,-3.10754 3.1426,-4.16211 1.5304,-1.05545 3.2374,-1.57812 5.1738,-1.57812 1.5015,0 2.7362,0.36237 3.7559,1.07617 v 0.002 0.002 c 1.0503,0.71725 1.7996,1.71352 2.2695,3.04492 v 0.002 0 c 0.4381,1.21697 0.7187,4.32169 0.7187,9.08203 v 23.08203 h 12.709 v -28 c 0,-3.435 -0.2194,-6.08232 -0.6797,-7.98437 -0.4312,-1.89751 -1.2256,-3.60692 -2.3789,-5.10742 v -0.004 c -1.1468,-1.5272 -2.8333,-2.75435 -5.0273,-3.69531 -2.207,-0.97449 -4.6409,-1.45899 -7.2852,-1.45899 z m 42.791,0 c -5.4285,0 -10.0348,2.02977 -13.7011,6.03711 v 0.002 0 c -3.6612,4.03296 -5.4629,9.83937 -5.4629,17.33593 0,5.99335 1.3842,11.04948 4.1719,15.11719 3.548,5.13756 8.4517,7.75781 14.5371,7.75781 5.0514,0 9.3112,-2.21487 12.75,-6.36132 v 5.15429 c 0,2.5871 -0.1997,4.36162 -0.5098,5.19727 -10e-5,3.1e-4 2e-4,0.002 0,0.002 -0.4972,1.27923 -1.2027,2.15703 -2.1211,2.70313 v 0.002 c -1.4017,0.84101 -3.6117,1.30273 -6.6172,1.30273 -2.3308,0 -3.9777,-0.42026 -4.9512,-1.15039 v -0.002 -0.002 c -0.6523,-0.47232 -1.1284,-1.39453 -1.3399,-2.875 l -0.055,-0.37891 -13.2929,-1.61523 v -0.0586 h -0.5274 l -0.055,0.93946 -0.4434,-0.46485 c -0.028,0.56141 -0.043,1.04052 -0.043,1.44141 0,4.07661 1.6548,7.50176 4.8906,10.13672 3.2898,2.7075 8.718,3.98828 16.2754,3.98828 4.0064,0 7.332,-0.41748 9.9864,-1.27344 2.6649,-0.85052 4.8186,-2.03641 6.4414,-3.57226 1.6282,-1.54093 2.8752,-3.64513 3.7558,-6.28711 0.8931,-2.67923 1.3164,-6.61749 1.3164,-11.86719 V 397.8028 h -11.957 v 5.41407 c -3.4996,-4.18273 -7.8586,-6.41407 -13.043,-6.41407 z m 105.5,0 c -5.8095,0 -10.2439,1.0311 -13.2871,3.17579 -3.0239,2.13113 -5.1421,5.41411 -6.3593,9.77343 l -0.1485,0.5293 11.584,2.08984 0.1426,-0.40234 c 0.7011,-1.99539 1.6018,-3.32494 2.6445,-4.04492 v -0.004 -0.002 c 1.0521,-0.75152 2.5673,-1.15625 4.584,-1.15625 3.0307,0 5.0243,0.51269 5.9629,1.33398 v 0.002 0.004 c 0.9618,0.81755 1.4902,2.24246 1.4902,4.41016 v 0.80078 c -2.0795,0.83282 -5.7011,1.76102 -10.9668,2.75 v 0 c -4.0805,0.78256 -7.2234,1.70284 -9.457,2.79102 -2.2162,1.06545 -3.9647,2.63767 -5.2071,4.6875 -1.2445,2.02587 -1.8672,4.35006 -1.8672,6.92968 0,3.89298 1.3708,7.17669 4.0743,9.73633 v 0.002 0 c 2.7436,2.57037 6.4868,3.84375 11.1328,3.84375 2.6461,0 5.1477,-0.49903 7.4883,-1.49804 2.1152,-0.90286 4.09,-2.26957 5.959,-3.97657 0.067,0.22227 0.1029,0.31548 0.1973,0.65235 v 0.002 0.002 c 0.4466,1.53544 0.8245,2.69728 1.1406,3.50196 l 0.125,0.3164 h 12.7226 l -0.3496,-0.71875 c -1.0123,-2.0795 -1.7052,-4.0109 -2.084,-5.79296 v -0.002 c -0.3483,-1.79644 -0.533,-4.6536 -0.5332,-8.52344 v -0.004 l 0.125,-13.66406 v -0.002 c 0,-5.11543 -0.4969,-8.64316 -1.6445,-10.69922 -1.0881,-2.02697 -2.9737,-3.66413 -5.5937,-4.91796 -2.6763,-1.30907 -6.6247,-1.92579 -11.8868,-1.92579 z m 46.209,0 c -5.4286,0 -10.0349,2.02977 -13.7011,6.03711 v 0.002 c -3.6611,4.03296 -5.4629,9.83937 -5.4629,17.33593 0,5.99335 1.3823,11.04948 4.1699,15.11719 v 0 c 3.5481,5.13756 8.4498,7.75781 14.5351,7.75781 5.0506,0 9.3116,-2.21434 12.75,-6.35937 v 5.15234 c 0,2.5871 -0.1997,4.3616 -0.5097,5.19727 -10e-5,3.1e-4 10e-5,0.002 0,0.002 -0.4973,1.27922 -1.2007,2.15703 -2.1192,2.70313 v 0 0.002 c -1.4016,0.841 -3.6136,1.30273 -6.6192,1.30273 -2.3307,0 -3.9756,-0.42025 -4.9492,-1.15039 v -0.002 -0.002 c -0.6523,-0.47231 -1.1284,-1.39452 -1.3399,-2.875 l -0.055,-0.37891 -13.2929,-1.61523 v -0.0586 h -0.5274 l -0.057,0.93946 -0.4414,-0.46485 c -0.028,0.56141 -0.043,1.04052 -0.043,1.44141 0,4.0766 1.6548,7.50176 4.8906,10.13672 3.2898,2.7075 8.718,3.98828 16.2754,3.98828 4.0072,0 7.3318,-0.41712 9.9864,-1.27344 2.6649,-0.85052 4.8186,-2.03641 6.4414,-3.57226 1.6281,-1.54093 2.8751,-3.64513 3.7558,-6.28711 0.893,-2.67922 1.3164,-6.61749 1.3164,-11.86719 V 397.8028 h -11.959 v 5.41407 c -3.4995,-4.18252 -7.8567,-6.41407 -13.041,-6.41407 z m 52.959,0 c -5.9796,0 -10.9908,2.152 -14.9101,6.41211 -3.9322,4.24675 -5.8829,10.1276 -5.8829,17.54688 0,6.21807 1.4833,11.41745 4.4707,15.54297 v 0.002 c 3.7925,5.16125 9.683,7.74609 17.4863,7.74609 4.9373,0 9.0892,-1.13294 12.4082,-3.42187 v 0 c 3.3423,-2.31392 5.7843,-5.67876 7.3125,-10.03711 l 0.1953,-0.56055 -12.6914,-2.13086 -0.1231,0.42969 c -0.6204,2.15815 -1.5246,3.66698 -2.666,4.58008 -1.1569,0.92551 -2.5701,1.39062 -4.3125,1.39062 -2.5743,0 -4.663,-0.89079 -6.3828,-2.71484 -1.6097,-1.73354 -2.4512,-4.17848 -2.6172,-7.28516 h 29.2403 l 0.01,-0.49023 c 0.168,-9.04437 -1.6612,-15.83226 -5.582,-20.29688 -3.8995,-4.46872 -9.2653,-6.71289 -15.959,-6.71289 z m -1182.041009,1 c 6.585866,0 11.91509,2.12456 16.101562,6.39258 4.188097,4.24249 6.273437,9.57593 6.273437,16.10742 0,6.58656 -2.11253,11.98989 -6.357421,16.31641 -4.216716,4.29833 -9.491576,6.43359 -15.935547,6.43359 -3.979595,0 -7.771717,-0.89687 -11.400391,-2.69726 h -0.002 c -3.582353,-1.79153 -6.288303,-4.39034 -8.158203,-7.83203 h 0.002 c -1.869439,-3.46795 -2.816406,-7.70021 -2.816406,-12.72071 0,-3.80674 0.935919,-7.48468 2.818359,-11.05859 1.875052,-3.55988 4.505073,-6.25585 7.921875,-8.12695 3.452317,-1.87567 7.293121,-2.81446 11.552735,-2.81446 z m 75.832029,0 c 6.58587,0 11.91509,2.12456 16.10156,6.39258 h 0.002 c 4.18809,4.24249 6.27148,9.57593 6.27148,16.10742 0,6.58656 -2.11058,11.98989 -6.35547,16.31641 -4.21671,4.29833 -9.49157,6.43359 -15.93554,6.43359 -3.98021,0 -7.77317,-0.89631 -11.40235,-2.69726 -3.58309,-1.79155 -6.28804,-4.38986 -8.1582,-7.83203 -1.86944,-3.46795 -2.81445,-7.70021 -2.81445,-12.72071 0,-3.80674 0.93591,-7.48468 2.81836,-11.05859 1.87479,-3.55939 4.5038,-6.25588 7.91992,-8.12695 3.45231,-1.87567 7.29312,-2.81446 11.55273,-2.81446 z m 52.5,0 c 2.44486,0 4.79418,0.68639 7.08399,1.97657 l -3.28125,9.24218 c -1.82052,-1.08373 -3.56852,-1.71875 -5.21875,-1.71875 -1.73113,0 -3.24874,0.49538 -4.47852,1.48438 -7e-4,5.6e-4 -10e-4,10e-4 -0.002,0.002 -1.26779,0.99263 -2.19363,2.71573 -2.875,5.12891 l -0.002,0.002 v 0.002 c -0.67388,2.49044 -0.97656,7.42293 -0.97656,14.96485 v 13.16601 H 188.9003 v -43.25 h 9.875 v 7.53321 l 0.92383,-1.47657 c 1.84102,-2.94013 3.49014,-4.84853 4.8418,-5.71679 l 0.004,-0.002 c 1.41897,-0.89244 3.00854,-1.33789 4.8125,-1.33789 z m 104.33399,0 c 2.44427,0 4.79272,0.68701 7.08203,1.97657 l -3.28125,9.24218 c -1.81994,-1.08311 -3.56704,-1.71875 -5.2168,-1.71875 -1.73112,0 -3.24873,0.49538 -4.47852,1.48438 -6.9e-4,5.6e-4 -0.001,10e-4 -0.002,0.002 -1.26779,0.99263 -2.19558,2.71573 -2.87695,5.12891 v 0.002 0.002 c -0.67388,2.49044 -0.97656,7.42293 -0.97656,14.96485 v 13.16601 h -10.70899 v -43.25 h 9.875 v 7.53321 l 0.92383,-1.47657 c 1.84101,-2.94013 3.49209,-4.84853 4.84375,-5.71679 l 0.004,-0.002 c 1.41897,-0.89244 3.00853,-1.33789 4.8125,-1.33789 z m 30.04101,0 c 5.18233,0 9.01246,0.63329 11.44727,1.82422 l 0.002,0.002 h 0.002 c 2.48732,1.18958 4.18327,2.69057 5.15039,4.49414 l 0.002,0.004 0.002,0.004 c 0.96239,1.72215 1.51953,5.16612 1.51953,10.21484 l -0.125,13.66407 v 0.002 c 0,3.90436 0.17727,6.79566 0.55078,8.7207 l 0.002,0.004 v 0.004 c 0.35177,1.65834 1.05549,3.45495 1.90625,5.3125 h -10.51368 c -0.28061,-0.74722 -0.60485,-1.71922 -1.00586,-3.09765 v 0.006 c -0.1957,-0.69897 -0.33112,-1.15318 -0.42968,-1.41602 l -0.26758,-0.7168 -0.54883,0.53321 c -1.96184,1.90735 -4.04798,3.32772 -6.26367,4.27344 -2.215,0.94542 -4.57509,1.41796 -7.0957,1.41796 -4.46393,0 -7.91333,-1.19748 -10.44727,-3.57031 l -0.002,-0.002 c -2.5174,-2.38447 -3.75977,-5.34819 -3.75977,-9.00977 0,-2.42036 0.57433,-4.54323 1.71875,-6.40625 l 0.002,-0.002 c 1.14587,-1.89202 2.72996,-3.31915 4.78907,-4.30859 l 0.002,-0.002 c 2.09934,-1.02275 5.17742,-1.93411 9.20703,-2.70703 5.48646,-1.03045 9.28658,-1.98414 11.47656,-2.90625 l 0.30469,-0.1289 v -1.49805 c 0,-2.33106 -0.58084,-4.09841 -1.83984,-5.16992 -1.28402,-1.1213 -3.48368,-1.58008 -6.61719,-1.58008 -2.15,0 -3.8848,0.4286 -5.16602,1.34375 -1.19467,0.8275 -2.10671,2.25695 -2.82812,4.13867 l -9.63281,-1.73828 c 1.19019,-3.89426 3.07163,-6.8247 5.74804,-8.71094 2.7902,-1.96642 7.02053,-2.99219 12.71094,-2.99219 z m 55.54297,0 c 2.5224,0 4.81001,0.4606 6.88086,1.375 h 0.002 l 0.002,0.002 c 2.07958,0.89125 3.61183,2.02411 4.63086,3.38281 l 0.002,0.002 0.002,0.002 c 1.06719,1.38735 1.7995,2.95531 2.20117,4.72265 v 0.004 0.004 c 0.42769,1.76422 0.6543,4.36088 0.6543,7.75586 v 27 H 402.94141 V 419.9707 c 0,-4.79392 -0.21775,-7.85677 -0.7793,-9.41797 v -0.002 c -0.5295,-1.49925 -1.41794,-2.69343 -2.64258,-3.53125 -1.20252,-0.84176 -2.66292,-1.25781 -4.32812,-1.25781 -2.1191,0 -4.05037,0.58908 -5.74219,1.75586 -1.69259,1.1673 -2.88022,2.74028 -3.52344,4.66992 l -0.002,0.002 v 0.004 c -0.62271,1.95709 -0.89844,5.35426 -0.89844,10.31836 v 19.54101 h -10.70898 v -43.25 h 9.875 v 7.4668 l 0.89648,-1.16016 c 3.7863,-4.90313 8.46857,-7.30664 14.1875,-7.30664 z m 42.875,0 c 6.00127,0 10.40794,0.99098 13.2207,2.875 2.69526,1.80532 4.52843,4.48088 5.64258,7.95899 l -10.03515,1.85547 c -0.53068,-1.59277 -1.40621,-2.90985 -2.70899,-3.80664 l -0.004,-0.002 c -1.42541,-0.99937 -3.40322,-1.46289 -5.9082,-1.46289 -3.12987,0 -5.4156,0.41469 -6.89648,1.3711 l -0.006,0.004 -0.006,0.004 c -0.9909,0.68124 -1.54883,1.66251 -1.54883,2.78711 0,0.98889 0.49603,1.87348 1.36523,2.52539 h 0.002 l 0.002,0.002 c 0.65828,0.48505 1.83592,0.92825 3.67383,1.48242 1.83791,0.55418 4.30995,1.18468 7.42773,1.89454 h 0.002 c 6.21301,1.40828 10.51668,3.14624 12.87304,5.10546 2.32967,1.98767 3.48633,4.71369 3.48633,8.32422 0,3.91629 -1.60616,7.23621 -4.9082,10.07813 -3.26653,2.81136 -8.15113,4.2539 -14.7168,4.2539 -5.95895,0 -10.62887,-1.20863 -14.04687,-3.57617 l -0.002,-0.002 c -3.25309,-2.27272 -5.38349,-5.31625 -6.49218,-9.14258 l 10.76367,-1.64062 c 0.55531,2.12974 1.53959,3.86388 3.05273,5.04687 l 0.002,0.002 0.004,0.002 c 1.64278,1.25449 3.89804,1.85351 6.71875,1.85351 3.08894,0 5.47407,-0.56015 7.12891,-1.76367 l 0.002,-0.002 0.004,-0.004 c 1.13512,-0.85901 1.74023,-2.08668 1.74023,-3.52344 0,-0.99305 -0.32768,-1.87755 -0.9707,-2.55273 l -0.008,-0.01 -0.01,-0.008 c -0.74162,-0.7063 -2.08879,-1.18637 -4.14844,-1.66601 h -0.002 l -0.004,-0.002 c -9.4253,-2.07911 -15.41736,-4.02092 -17.7832,-5.63281 -3.38597,-2.31105 -5.03125,-5.43218 -5.03125,-9.54492 0,-3.70169 1.43106,-6.75699 4.36719,-9.28906 2.89663,-2.49802 7.46512,-3.79493 13.75781,-3.79493 z m 79.83203,0 c 6.58587,0 11.91509,2.12456 16.10156,6.39258 h 0.002 c 4.18809,4.24249 6.27148,9.57593 6.27148,16.10742 0,6.58656 -2.11058,11.98989 -6.35547,16.31641 -4.21671,4.29833 -9.49157,6.43359 -15.93554,6.43359 -3.98021,0 -7.77317,-0.89631 -11.40235,-2.69726 -3.58309,-1.79155 -6.28804,-4.38986 -8.1582,-7.83203 -1.86944,-3.46795 -2.81445,-7.70021 -2.81445,-12.72071 0,-3.80674 0.93396,-7.48468 2.8164,-11.05859 1.8748,-3.55939 4.50576,-6.25588 7.92188,-8.12695 3.45231,-1.87567 7.29312,-2.81446 11.55273,-2.81446 z m 52.5,0 c 2.44486,0 4.79418,0.68639 7.08399,1.97657 l -3.28125,9.24218 c -1.82052,-1.08373 -3.56851,-1.71875 -5.21875,-1.71875 -1.73113,0 -3.24874,0.49538 -4.47852,1.48438 -7e-4,5.6e-4 -10e-4,10e-4 -0.002,0.002 -1.26779,0.99263 -2.19363,2.71573 -2.875,5.12891 l -0.002,0.002 v 0.002 c -0.67388,2.49044 -0.97656,7.42293 -0.97656,14.96485 v 13.16601 H 554.0253 v -43.25 h 9.875 v 7.53321 l 0.92383,-1.47657 c 1.84102,-2.94013 3.49014,-4.84853 4.8418,-5.71679 l 0.004,-0.002 c 1.41897,-0.89244 3.00854,-1.33789 4.8125,-1.33789 z m 36.45899,0 c 2.7647,0 5.13183,0.56805 7.13086,1.6875 1.99754,1.11863 3.63775,2.80489 4.93359,5.09961 l 0.35742,0.63477 0.46484,-0.5625 c 1.90997,-2.31925 3.95488,-4.03375 6.13477,-5.16406 2.18133,-1.13106 4.49905,-1.69532 6.97852,-1.69532 3.18162,0 5.83497,0.65019 7.99414,1.92969 l 0.002,0.002 0.002,0.002 c 2.15841,1.25241 3.75967,3.08766 4.83399,5.55859 0.75209,1.76562 1.16797,4.77854 1.16797,8.9668 v 27.79101 h -10.70899 v -24.79101 c 0,-4.41948 -0.34187,-7.27133 -1.28515,-8.76758 l -0.002,-0.002 -0.002,-0.004 c -1.16953,-1.79928 -3.04451,-2.72656 -5.41797,-2.72656 -1.74059,0 -3.39295,0.53751 -4.91016,1.58789 -1.54011,1.06623 -2.64852,2.64474 -3.31445,4.66992 -0.67326,2.01979 -0.98437,5.09098 -0.98437,9.2832 v 20.75 h -10.70899 v -23.75 c 0,-4.32168 -0.17926,-7.07685 -0.65039,-8.49023 -0.44233,-1.32699 -1.15767,-2.36429 -2.14648,-3.04492 -0.97246,-0.68873 -2.26207,-1.00586 -3.82813,-1.00586 -1.89529,0 -3.62979,0.51686 -5.1543,1.54297 -1.53688,1.03445 -2.64801,2.54102 -3.3164,4.45898 l -0.002,0.004 -0.002,0.002 c -0.64776,1.9433 -0.9414,5.00924 -0.9414,9.2832 v 21 h -10.70899 v -43.25 h 9.79297 v 6.9375 l 0.88477,-1.07812 c 3.78936,-4.60721 8.21962,-6.85938 13.40625,-6.85938 z m 69.45898,0 c 5.18233,0 9.01052,0.63329 11.44531,1.82422 l 0.002,0.002 h 0.002 c 2.48731,1.18958 4.18326,2.69057 5.15039,4.49414 l 0.002,0.004 0.002,0.004 c 0.96237,1.72215 1.52148,5.16612 1.52148,10.21484 l -0.125,13.66407 v 0.002 c 0,3.90436 0.17726,6.79566 0.55078,8.7207 v 0.004 0.004 c 0.35177,1.65836 1.05742,3.45492 1.9082,5.3125 h -10.51562 c -0.28009,-0.7458 -0.60389,-1.71714 -1.00391,-3.09179 l -0.002,-0.006 c -0.1944,-0.69402 -0.32958,-1.14842 -0.42773,-1.41016 l -0.26954,-0.7168 -0.54882,0.53321 c -1.96184,1.90735 -4.048,3.32772 -6.26368,4.27344 -2.21501,0.94542 -4.57509,1.41796 -7.0957,1.41796 -4.46393,0 -7.91332,-1.19748 -10.44726,-3.57031 l -0.002,-0.002 c -2.51738,-2.38447 -3.75781,-5.34819 -3.75781,-9.00977 0,-2.42036 0.57238,-4.54323 1.7168,-6.40625 l 0.002,-0.002 c 1.14588,-1.89202 2.72996,-3.31915 4.78906,-4.30859 l 0.002,-0.002 c 2.09934,-1.02275 5.17742,-1.93411 9.20703,-2.70703 5.48645,-1.03045 9.28657,-1.98414 11.47656,-2.90625 l 0.30664,-0.1289 v -1.49805 c 0,-2.33106 -0.5828,-4.09841 -1.8418,-5.16992 -1.28402,-1.1213 -3.48367,-1.58008 -6.61718,-1.58008 -2.15,0 -3.88481,0.4286 -5.16602,1.34375 -1.19464,0.82748 -2.10476,2.25701 -2.82617,4.13867 l -9.63477,-1.73828 c 1.1902,-3.89426 3.07164,-6.8247 5.74805,-8.71094 2.7902,-1.96642 7.02247,-2.99219 12.71289,-2.99219 z m 58.08203,0 v 45.25 h 12.70899 v -45.25 z m 44.29297,0 c 6.58587,0 11.91314,2.12456 16.09961,6.39258 h 0.002 c 4.1881,4.24249 6.27344,9.57593 6.27344,16.10742 0,6.58656 -2.11253,11.98989 -6.35742,16.31641 -4.21672,4.29833 -9.49158,6.43359 -15.93555,6.43359 -3.97959,0 -7.77171,-0.89687 -11.40039,-2.69726 h -0.002 c -3.58235,-1.79152 -6.2883,-4.39033 -8.15821,-7.83203 h 0.002 c -1.86944,-3.46795 -2.81641,-7.70021 -2.81641,-12.72071 0,-3.80674 0.93592,-7.48468 2.81836,-11.05859 1.8748,-3.55939 4.50381,-6.25588 7.91992,-8.12695 3.45232,-1.87567 7.29508,-2.81446 11.55469,-2.81446 z m 57.41602,0 c 2.5224,0 4.81001,0.4606 6.88086,1.375 h 0.002 l 0.004,0.002 c 2.07958,0.89125 3.60989,2.02411 4.62891,3.38281 l 0.002,0.002 0.002,0.002 c 1.0672,1.38735 1.7995,2.95531 2.20117,4.72265 v 0.004 l 0.002,0.004 c 0.42769,1.76422 0.65235,4.36088 0.65235,7.75586 v 27 H 843.85742 V 419.9707 c 0,-4.79522 -0.2174,-7.85911 -0.7793,-9.41992 -0.52953,-1.49883 -1.41817,-2.6936 -2.64257,-3.53125 -1.20252,-0.84176 -2.66292,-1.25781 -4.32813,-1.25781 -2.1191,0 -4.05037,0.58908 -5.74219,1.75586 -1.69259,1.1673 -2.88022,2.74028 -3.52343,4.66992 l -0.002,0.002 v 0.004 c -0.62271,1.95709 -0.89843,5.35426 -0.89843,10.31836 v 19.54101 h -10.70899 v -43.25 h 9.875 v 7.4668 l 0.89649,-1.16016 c 3.78631,-4.90313 8.46857,-7.30664 14.1875,-7.30664 z m 119.875,0 c 5.18232,0 9.01246,0.63329 11.44726,1.82422 l 0.002,0.002 h 0.002 c 2.48732,1.18958 4.18326,2.69057 5.15039,4.49414 l 0.002,0.004 0.002,0.004 c 0.96239,1.72215 1.51954,5.16612 1.51954,10.21484 l -0.125,13.66407 v 0.002 c 0,3.90436 0.17727,6.79566 0.55078,8.7207 v 0.004 l 0.002,0.004 c 0.35177,1.65834 1.05549,3.45494 1.90625,5.3125 h -10.51367 c -0.28009,-0.74581 -0.60583,-1.71712 -1.00586,-3.09179 l -0.002,-0.006 c -0.1944,-0.69402 -0.32958,-1.14841 -0.42774,-1.41016 l -0.26953,-0.7168 -0.54687,0.53321 c -1.96185,1.90735 -4.04994,3.32772 -6.26563,4.27344 -2.215,0.94542 -4.57314,1.41796 -7.09375,1.41796 -4.46393,0 -7.91528,-1.19748 -10.44922,-3.57031 l -0.002,-0.002 c -2.51739,-2.38447 -3.75781,-5.34819 -3.75781,-9.00977 0,-2.42036 0.57237,-4.54323 1.71679,-6.40625 h 0.002 v -0.002 c 1.14587,-1.89202 2.72995,-3.31915 4.78906,-4.30859 h 0.002 v -0.002 c 2.09934,-1.02275 5.17743,-1.93411 9.20703,-2.70703 5.48646,-1.03045 9.28657,-1.98414 11.47657,-2.90625 l 0.30664,-0.1289 v -1.49805 c 0,-2.33106 -0.58279,-4.09841 -1.8418,-5.16992 -1.28402,-1.1213 -3.48368,-1.58008 -6.61719,-1.58008 -2.1481,0 -3.88123,0.42831 -5.16211,1.3418 -1.19567,0.82732 -2.10824,2.25784 -2.83008,4.14062 l -9.63476,-1.73828 c 1.19019,-3.89429 3.07161,-6.82469 5.74805,-8.71094 2.7902,-1.96642 7.02247,-2.99219 12.71289,-2.99219 z m 55.54099,0 c 2.5224,0 4.81,0.4606 6.8809,1.375 v 0 0.002 c 2.0796,0.89125 3.6119,2.02411 4.6309,3.38281 v 0.002 0.002 c 1.0672,1.38735 1.7976,2.95531 2.1992,4.72265 v 0.004 0.004 c 0.4276,1.76423 0.6523,4.36088 0.6523,7.75586 v 27 h -10.709 V 419.9707 c 0,-4.79522 -0.2174,-7.85911 -0.7793,-9.41992 -0.5293,-1.49835 -1.4168,-2.69364 -2.6406,-3.53125 v -0.002 c -1.2018,-0.84009 -2.6626,-1.25586 -4.3262,-1.25586 -2.1191,0 -4.0484,0.58908 -5.7402,1.75586 -1.6926,1.1673 -2.8822,2.74028 -3.5254,4.66992 v 0.002 0.004 c -0.6228,1.95709 -0.8985,5.35426 -0.8985,10.31836 v 19.54101 h -10.70896 v -43.25 h 9.87496 v 7.4668 l 0.8965,-1.16016 c 3.7864,-4.90313 8.4686,-7.30664 14.1875,-7.30664 z m 42.791,0 c 5.3259,0 9.658,2.2989 13.1407,7.00586 l 0.9023,1.21875 v -7.22461 h 9.957 v 39.20899 c 0,5.19474 -0.4364,9.06334 -1.2656,11.55078 -0.8415,2.52467 -2.0111,4.47343 -3.4941,5.87695 -1.4883,1.40859 -3.5013,2.52956 -6.0586,3.34571 -2.5121,0.81034 -5.7444,1.22656 -9.6817,1.22656 -7.4426,0 -12.6506,-1.30256 -15.6386,-3.76172 v 0 -0.002 c -3.0413,-2.47604 -4.5235,-5.54952 -4.5235,-9.36133 0,-0.231 0.015,-0.55713 0.025,-0.85352 l 12.5059,1.51953 c 0.2647,1.41037 0.7619,2.52092 1.6308,3.15235 1.2487,0.93484 3.1019,1.34765 5.5469,1.34765 3.1047,0 5.477,-0.45357 7.1309,-1.44531 1.1355,-0.67524 1.9847,-1.76744 2.5429,-3.20703 v -0.004 -0.002 c 0.412,-1.10919 0.5742,-2.91467 0.5742,-5.54883 v -7.98828 l -0.9043,1.23438 c -3.4284,4.6801 -7.6617,6.96093 -12.8457,6.96093 -5.8026,0 -10.3167,-2.40784 -13.7129,-7.32421 v -0.002 c -2.6559,-3.87636 -3.9942,-8.70994 -3.9942,-14.54883 0,-7.33601 1.7538,-12.86177 5.2031,-16.66211 3.5004,-3.82599 7.7804,-5.71289 12.9629,-5.71289 z m 35.334,0 v 28.5 c 0,4.2089 0.5266,7.53495 1.627,9.9961 1.0982,2.45658 2.8946,4.38232 5.3398,5.73437 2.4388,1.34855 5.1967,2.01953 8.2422,2.01953 2.9938,0 5.8412,-0.70185 8.5195,-2.09765 2.2784,-1.17518 4.1087,-2.80394 5.6465,-4.71289 v 5.81054 h 11.875 v -45.25 h -12.709 v 19.16797 c 0,6.31799 -0.3306,10.34187 -0.8457,11.78907 -0.5467,1.50844 -1.5533,2.77996 -3.0664,3.84179 -1.501,1.02556 -3.1803,1.53516 -5.0879,1.53516 -1.6732,0 -3.0026,-0.38136 -4.0429,-1.11719 -1.0527,-0.77228 -1.7709,-1.77986 -2.1856,-3.07422 -3e-4,-8.7e-4 0,-10e-4 0,-0.002 -0.1799,-0.61526 -0.3442,-1.91266 -0.4473,-3.80274 -0.1034,-1.89497 -0.1543,-4.39837 -0.1543,-7.5039 v -20.83399 z m 70.166,0 c 5.1823,0 9.0125,0.63329 11.4473,1.82422 v 0.002 0 c 2.4874,1.18958 4.1833,2.69057 5.1504,4.49414 v 0.004 0.004 c 0.9624,1.72215 1.5195,5.16612 1.5195,10.21484 l -0.125,13.66407 v 0.002 c 0,3.90436 0.1774,6.79567 0.5508,8.7207 v 0.004 0.004 c 0.3518,1.65836 1.0574,3.45492 1.9082,5.3125 h -10.5156 c -0.2801,-0.74581 -0.6039,-1.71714 -1.004,-3.09179 v -0.006 c -0.1944,-0.69402 -0.3315,-1.14843 -0.4297,-1.41016 l -0.2676,-0.7168 -0.5488,0.53321 c -1.9618,1.90735 -4.048,3.32772 -6.2637,4.27344 -2.215,0.94542 -4.5751,1.41796 -7.0957,1.41796 -4.4639,0 -7.9133,-1.19748 -10.4472,-3.57031 v -0.002 c -2.5174,-2.38447 -3.7598,-5.34819 -3.7598,-9.00977 0,-2.42036 0.5743,-4.54323 1.7188,-6.40625 v -0.002 c 1.1459,-1.89202 2.73,-3.31915 4.7891,-4.30859 v -0.002 c 2.0993,-1.02275 5.1774,-1.93411 9.207,-2.70703 5.4864,-1.03045 9.2865,-1.98414 11.4766,-2.90625 l 0.3046,-0.1289 v -1.49805 c 0,-2.33106 -0.5808,-4.09841 -1.8398,-5.16992 -1.284,-1.12129 -3.4837,-1.58008 -6.6172,-1.58008 -2.15,0 -3.8848,0.4286 -5.166,1.34375 -1.1947,0.82748 -2.1047,2.25701 -2.8262,4.13867 l -9.6347,-1.73828 c 1.1902,-3.89426 3.0716,-6.8247 5.748,-8.71094 2.7902,-1.96642 7.0205,-2.99219 12.7109,-2.99219 z m 46.209,0 c 5.3259,0 9.6581,2.29891 13.1406,7.00586 l 0.9004,1.21875 v -7.22461 h 9.959 v 39.20899 c 0,5.19474 -0.4365,9.06333 -1.2656,11.55078 -0.8416,2.52467 -2.0112,4.47343 -3.4941,5.87695 -1.4883,1.40859 -3.5014,2.52956 -6.0586,3.34571 v 0 c -2.5121,0.81034 -5.7424,1.22656 -9.6797,1.22656 -7.4426,0 -12.6525,-1.30255 -15.6406,-3.76172 v -0.002 c -3.0411,-2.47603 -4.5234,-5.54951 -4.5234,-9.36133 0,-0.231 0.015,-0.55713 0.025,-0.85352 l 12.5059,1.51953 c 0.2645,1.40919 0.7593,2.51876 1.6269,3.15039 4e-4,3.3e-4 0,-3.2e-4 0,0 1.2487,0.93584 3.1007,1.34961 5.5468,1.34961 3.1047,0 5.4771,-0.45357 7.1309,-1.44531 1.1356,-0.67523 1.9867,-1.76744 2.5449,-3.20703 v -0.004 -0.002 c 0.4119,-1.10917 0.5722,-2.91467 0.5722,-5.54883 v -7.98828 l -0.9023,1.23438 c -3.4285,4.6801 -7.6636,6.96093 -12.8477,6.96093 -5.8025,0 -10.3146,-2.40784 -13.7109,-7.32421 v -0.002 c -2.6557,-3.87636 -3.9941,-8.70994 -3.9941,-14.54883 0,-7.33548 1.7524,-12.86179 5.2012,-16.66211 v -0.002 c 3.5,-3.82457 7.7813,-5.71094 12.9629,-5.71094 z m 52.959,0 c 6.4729,0 11.4954,2.11761 15.207,6.3711 3.6177,4.11937 5.4004,10.49588 5.3145,19.1289 h -29.3262 l 0.014,0.51172 c 0.085,3.55658 1.0628,6.40275 2.9668,8.45313 v 0.002 0.002 c 1.8907,2.00703 4.3003,3.03125 7.1133,3.03125 1.9243,0 3.5944,-0.53488 4.9375,-1.60937 1.263,-1.01037 2.174,-2.6141 2.8281,-4.66406 l 10.6075,1.77929 c -1.4776,3.89307 -3.6564,6.92183 -6.6582,9 -3.1253,2.15486 -7.0557,3.24414 -11.8399,3.24414 -7.5838,0 -13.0813,-2.44199 -16.6777,-7.33398 v -0.004 c -2.8442,-3.92949 -4.2793,-8.89522 -4.2793,-14.95312 0,-7.24621 1.8839,-12.83826 5.6172,-16.86914 v 0 c 3.7473,-4.07322 8.4312,-6.08985 14.1738,-6.08985 z m -523.58398,1 h 10.70899 v 43.25 h -10.70899 z m 355.24998,0 h 10.709 v 19.83399 c 0,3.11669 0.051,5.63413 0.1563,7.55859 0.1049,1.92447 0.2519,3.23763 0.4882,4.04102 v 0.006 0.006 c 0.4734,1.47933 1.3359,2.69078 2.5567,3.58398 v 0.002 0.002 c 1.2375,0.87528 2.7944,1.30078 4.6211,1.30078 2.0903,0 3.9939,-0.57416 5.6582,-1.71289 v -0.002 -0.002 c 1.6528,-1.1598 2.8135,-2.60959 3.4336,-4.32226 v -0.002 c 0.6516,-1.83057 0.9023,-5.77631 0.9023,-12.125 V 398.803 h 10.709 v 43.25 h -9.875 v -7.74414 l -0.9121,1.33789 c -1.5647,2.29308 -3.6204,4.0938 -6.1914,5.41993 v 0.002 c -2.5435,1.32583 -5.2218,1.98437 -8.0606,1.98437 -2.8991,0 -5.4745,-0.63197 -7.7578,-1.89453 -2.277,-1.25905 -3.8973,-3.00193 -4.9102,-5.26758 v 0 c -1.0109,-2.26106 -1.5391,-5.46344 -1.5391,-9.58789 z m -33.334,6.95899 c -2.9359,0 -5.428,1.17995 -7.3418,3.4707 -1.9139,2.29664 -2.8242,5.73978 -2.8242,10.2793 0,4.75854 0.9055,8.32087 2.8223,10.65039 v 0.004 0.002 c 1.9105,2.25792 4.3307,3.42773 7.1328,3.42773 2.9905,0 5.5711,-1.18996 7.6231,-3.50195 v -0.002 c 2.0784,-2.37119 3.082,-5.82529 3.082,-10.28907 0,-4.65202 -0.9524,-8.17978 -2.9511,-10.53125 -1.9704,-2.31805 -4.5318,-3.50976 -7.5489,-3.50976 z m 151.709,0 c -2.9359,0 -5.428,1.17995 -7.3418,3.4707 -1.9138,2.29664 -2.8242,5.73979 -2.8242,10.2793 0,4.75854 0.9056,8.32086 2.8223,10.65039 v 0.004 0.002 c 1.9105,2.25792 4.3288,3.42773 7.1308,3.42773 2.9906,0 5.5732,-1.18995 7.625,-3.50195 v -0.002 0 c 2.0785,-2.37119 3.082,-5.82528 3.082,-10.28907 0,-4.65202 -0.9543,-8.17978 -2.9531,-10.53125 -1.9703,-2.31806 -4.5298,-3.50976 -7.5469,-3.50976 z m 50.666,0 c -2.6769,0 -4.9536,1.00131 -6.705,2.95703 -1.7625,1.96804 -2.6145,4.63964 -2.586,7.92187 v 0.4961 h 18.5098 l -0.014,-0.51172 c -0.085,-3.4675 -0.986,-6.17542 -2.7597,-8.03906 v -0.002 c -1.7479,-1.86335 -3.9352,-2.82226 -6.4473,-2.82226 z M 81.066406,406.3457 c -3.182827,0 -5.917816,1.2421 -8.082031,3.66602 -2.18706,2.44951 -3.251953,5.94801 -3.251953,10.41601 0,4.468 1.064893,7.96651 3.251953,10.41602 2.164215,2.42392 4.899204,3.66797 8.082031,3.66797 3.18187,0 5.902568,-1.24387 8.039063,-3.66797 l 0.002,-0.002 c 2.187162,-2.4509 3.25,-5.97477 3.25,-10.4961 0,-4.41225 -1.065465,-7.8841 -3.25,-10.33203 -2.136786,-2.42554 -4.858189,-3.66797 -8.041016,-3.66797 z m 75.833984,0 c -3.18283,0 -5.91782,1.2421 -8.08203,3.66602 -2.18706,2.44951 -3.25195,5.94801 -3.25195,10.41601 0,4.46801 1.06489,7.96651 3.25195,10.41602 2.16421,2.42392 4.8992,3.66797 8.08203,3.66797 3.18187,0 5.90257,-1.24387 8.03906,-3.66797 l 0.002,-0.002 c 2.18716,-2.4509 3.25,-5.97477 3.25,-10.4961 0,-4.41225 -1.06547,-7.8841 -3.25,-10.33203 -2.13679,-2.42554 -4.85819,-3.66797 -8.04102,-3.66797 z m 365.125,0 c -3.18283,0 -5.91782,1.2421 -8.08203,3.66602 -2.18706,2.44951 -3.25195,5.94801 -3.25195,10.41601 0,4.46801 1.06489,7.96651 3.25195,10.41602 2.16421,2.42392 4.8992,3.66797 8.08203,3.66797 3.18187,0 5.90257,-1.24387 8.03906,-3.66797 l 0.002,-0.002 c 2.18716,-2.4509 3.25,-5.97477 3.25,-10.4961 0,-4.41225 -1.06547,-7.8841 -3.25,-10.33203 -2.13679,-2.42554 -4.85819,-3.66797 -8.04102,-3.66797 z m 260.79102,0 c -3.18283,0 -5.91782,1.2421 -8.08204,3.66602 -2.18706,2.44951 -3.25195,5.94801 -3.25195,10.41601 0,4.46801 1.06489,7.96651 3.25195,10.41602 2.16422,2.42392 4.89921,3.66797 8.08204,3.66797 3.18187,0 5.90256,-1.24387 8.03906,-3.66797 l 0.002,-0.002 c 2.18716,-2.4509 3.25,-5.97477 3.25,-10.4961 0,-4.41225 -1.06546,-7.8841 -3.25,-10.33203 -2.13679,-2.42554 -4.85819,-3.66797 -8.04101,-3.66797 z m 278.58199,0.41602 c 2.7607,0 4.9797,1.02987 6.7871,3.15625 1.7791,2.09297 2.7129,5.37012 2.7129,9.88476 0,4.314 -0.968,7.5001 -2.8339,9.62891 -1.8922,2.13094 -4.1424,3.16406 -6.8731,3.16406 -2.5284,0 -4.6084,-0.99764 -6.3633,-3.06836 v -0.002 c -1.6938,-2.05945 -2.5957,-5.38425 -2.5957,-10.01367 0,-4.40494 0.8965,-7.60199 2.5938,-9.63867 1.7527,-2.09728 3.8976,-3.11133 6.5722,-3.11133 z m 151.709,0 c 2.7607,0 4.9778,1.02987 6.7852,3.15625 1.779,2.09297 2.7148,5.37012 2.7148,9.88476 0,4.31399 -0.9679,7.5001 -2.834,9.62891 -1.8921,2.13093 -4.1442,3.16406 -6.875,3.16406 -2.5303,0 -4.6095,-0.99842 -6.3652,-3.07226 -6e-4,-7.7e-4 0,-10e-4 0,-0.002 -1.6919,-2.05972 -2.5899,-5.38302 -2.5899,-10.00976 0,-4.40494 0.8946,-7.60199 2.5918,-9.63867 1.7529,-2.09814 3.899,-3.11133 6.5742,-3.11133 z m 50.666,0 c 2.2649,0 4.1336,0.81699 5.7188,2.50781 v 0.002 0.002 c 1.4659,1.53925 2.2424,3.84819 2.4043,6.86328 h -16.3496 c 0.066,-2.83889 0.7851,-5.10118 2.2617,-6.75 1.5819,-1.7665 3.5268,-2.625 5.9609,-2.625 z M 81.066406,407.3457 c 2.928281,0 5.316692,1.08896 7.291016,3.33008 h 0.002 v 0.002 c 1.980917,2.21863 2.998047,5.41477 2.998047,9.66797 0,4.36632 -1.019756,7.61635 -2.998047,9.83203 v 0.002 l -0.002,0.002 c -1.974324,2.24113 -4.362735,3.33008 -7.291016,3.33008 -2.928282,0 -5.333487,-1.09124 -7.335937,-3.33399 -1.979604,-2.21715 -2.998047,-5.44022 -2.998047,-9.75 0,-4.30977 1.018443,-7.53284 2.998047,-9.75 2.00245,-2.24274 4.407655,-3.33203 7.335937,-3.33203 z m 75.833984,0 c 2.92828,0 5.31669,1.08896 7.29102,3.33008 l 0.002,0.002 c 1.98092,2.21863 2.99805,5.41477 2.99805,9.66797 0,4.36632 -1.01976,7.61635 -2.99805,9.83203 l -0.002,0.002 v 0.002 c -1.97433,2.24113 -4.36274,3.33008 -7.29102,3.33008 -2.92829,0 -5.33349,-1.09124 -7.33594,-3.33399 -1.9796,-2.21715 -2.99804,-5.44022 -2.99804,-9.75 0,-4.30977 1.01844,-7.53284 2.99804,-9.75 2.00245,-2.24274 4.40765,-3.33203 7.33594,-3.33203 z m 365.125,0 c 2.92828,0 5.31669,1.08896 7.29102,3.33008 l 0.002,0.002 c 1.98092,2.21863 2.99805,5.41477 2.99805,9.66797 0,4.36632 -1.01976,7.61635 -2.99805,9.83203 l -0.002,0.002 v 0.002 c -1.97433,2.24113 -4.36274,3.33008 -7.29102,3.33008 -2.92828,0 -5.33349,-1.09124 -7.33594,-3.33399 -1.9796,-2.21715 -2.99804,-5.44022 -2.99804,-9.75 0,-4.30977 1.01844,-7.53284 2.99804,-9.75 2.00245,-2.24274 4.40766,-3.33203 7.33594,-3.33203 z m 260.79102,0 c 2.92828,0 5.31668,1.08896 7.29101,3.33008 h 0.002 v 0.002 c 1.98092,2.21863 2.99805,5.41477 2.99805,9.66797 0,4.36632 -1.01975,7.61635 -2.99805,9.83203 v 0.002 l -0.002,0.002 c -1.97433,2.24113 -4.36273,3.33008 -7.29101,3.33008 -2.92828,0 -5.33349,-1.09124 -7.33594,-3.33399 -1.97961,-2.21715 -2.99805,-5.44022 -2.99805,-9.75 0,-4.30977 1.01844,-7.53284 2.99805,-9.75 2.00245,-2.24274 4.40766,-3.33203 7.33594,-3.33203 z m -431.45899,13.26367 -0.6582,0.21875 c -1.46311,0.48771 -3.82892,1.08474 -7.07031,1.77735 -3.27172,0.69908 -5.40749,1.35434 -6.54883,2.11523 l -0.006,0.004 -0.006,0.004 c -1.62647,1.15331 -2.50195,2.71375 -2.50195,4.5332 0,1.76318 0.6804,3.33308 1.98437,4.60742 1.31431,1.28444 3.02135,1.93359 5.01563,1.93359 2.22075,0 4.34864,-0.73766 6.33593,-2.17773 l 0.002,-0.002 0.002,-0.002 c 1.48745,-1.10829 2.49437,-2.49849 2.9707,-4.13086 v -0.002 c 0.34349,-1.12511 0.48047,-3.02879 0.48047,-5.85156 z m 336.66797,0 -0.6582,0.21875 c -1.4631,0.48771 -3.83088,1.08474 -7.07227,1.77735 -3.27172,0.69908 -5.40553,1.35434 -6.54687,2.11523 l -0.008,0.004 -0.006,0.004 c -1.62647,1.15331 -2.50195,2.71375 -2.50195,4.5332 0,1.76318 0.6804,3.33308 1.98438,4.60742 1.3143,1.28444 3.02134,1.93359 5.01562,1.93359 2.22076,0 4.34864,-0.73766 6.33594,-2.17773 l 0.002,-0.002 0.004,-0.002 c 1.48745,-1.10829 2.49437,-2.49849 2.9707,-4.13086 v -0.002 c 0.34349,-1.12511 0.48047,-3.02879 0.48047,-5.85156 z m 279.66602,0 -0.65821,0.21875 c -1.4631,0.48771 -3.83087,1.08474 -7.07226,1.77735 -3.27173,0.69908 -5.40554,1.35434 -6.54688,2.11523 l -0.006,0.004 -0.006,0.004 c -1.62647,1.15331 -2.50195,2.71375 -2.50195,4.5332 0,1.76318 0.67845,3.33308 1.98242,4.60742 1.31431,1.28444 3.0233,1.93359 5.01758,1.93359 2.22076,0 4.34669,-0.73766 6.33398,-2.17773 l 0.002,-0.002 0.004,-0.002 c 1.48745,-1.10829 2.49437,-2.49849 2.97071,-4.13086 v -0.002 c 0.34348,-1.12511 0.48047,-3.02879 0.48047,-5.85156 z m 203.83199,0 -0.6582,0.21875 c -1.4631,0.48771 -3.8289,1.08474 -7.0703,1.77735 -3.2717,0.69908 -5.4075,1.35434 -6.5488,2.11523 l -0.01,0.004 -0.01,0.004 c -1.6265,1.15331 -2.502,2.71375 -2.502,4.5332 0,1.76318 0.6804,3.33308 1.9844,4.60742 1.3143,1.28444 3.0214,1.93359 5.0156,1.93359 2.2208,0 4.3487,-0.73766 6.336,-2.17773 v -0.002 -0.002 c 1.4874,-1.10829 2.4963,-2.49848 2.9726,-4.13086 v -0.002 c 0.3436,-1.12513 0.4785,-3.02879 0.4785,-5.85156 z m -821.16598,1.33399 v 1.69336 c 0,2.7874 -0.16818,4.68747 -0.43555,5.5625 l -0.002,0.002 v 0.004 c -0.41327,1.42062 -1.26725,2.61181 -2.61133,3.61328 -1.84413,1.33473 -3.74293,1.98437 -5.74218,1.98437 -1.7835,0 -3.18627,-0.54398 -4.31641,-1.64843 -1.14047,-1.11455 -1.68359,-2.37799 -1.68359,-3.89258 0,-1.51116 0.6505,-2.69878 2.07421,-3.71094 0.86023,-0.57215 2.97207,-1.27765 6.19727,-1.9668 2.95976,-0.63242 4.98238,-1.16098 6.51953,-1.64062 z m 336.66797,0 v 1.69336 c 0,2.7874 -0.17013,4.68747 -0.4375,5.5625 v 0.002 l -0.002,0.004 c -0.41278,1.41894 -1.26414,2.60864 -2.60547,3.60937 -1.84604,1.33772 -3.74658,1.98828 -5.74805,1.98828 -1.78349,0 -3.18627,-0.54398 -4.3164,-1.64843 -1.14048,-1.11455 -1.6836,-2.37799 -1.6836,-3.89258 0,-1.51116 0.65246,-2.69878 2.07617,-3.71094 0.86023,-0.57215 2.97011,-1.27765 6.19532,-1.9668 2.95983,-0.63244 4.98433,-1.16097 6.52148,-1.64062 z m 279.66602,0 v 1.69336 c 0,2.7874 -0.17014,4.68747 -0.4375,5.5625 v 0.002 l -0.002,0.004 c -0.41327,1.42062 -1.26529,2.61181 -2.60937,3.61328 -1.84413,1.33473 -3.74293,1.98437 -5.74219,1.98437 -1.7835,0 -3.18822,-0.54398 -4.31836,-1.64843 -1.14047,-1.11455 -1.68164,-2.37799 -1.68164,-3.89258 0,-1.51116 0.65051,-2.69878 2.07422,-3.71094 0.86022,-0.57215 2.9701,-1.27765 6.19531,-1.9668 2.95983,-0.63244 4.98433,-1.16097 6.52149,-1.64062 z m 203.83199,0 v 1.69336 c 0,2.7874 -0.1681,4.68748 -0.4355,5.5625 v 0.002 0.004 c -0.4132,1.42061 -1.2672,2.61181 -2.6113,3.61328 -1.8441,1.33473 -3.7429,1.98437 -5.7422,1.98437 -1.7835,0 -3.1863,-0.54398 -4.3164,-1.64843 -1.1405,-1.11456 -1.6836,-2.37799 -1.6836,-3.89258 0,-1.5116 0.6535,-2.69858 2.0781,-3.71094 0.8612,-0.57197 2.97,-1.27805 6.1934,-1.9668 2.9598,-0.63242 4.9824,-1.16098 6.5195,-1.64062 z"
       id="path35" />
  </g>
</svg>
