<?xml version="1.0" encoding="UTF-8"?>
<svg id="Layer_1" data-name="Layer 1" xmlns="http://www.w3.org/2000/svg" viewBox="0 0 1200 500">
  <defs>
    <style>
      .cls-1 {
        fill: #3c84b1;
      }

      .cls-2 {
        fill: #052a3d;
      }

      .cls-3 {
        fill: #fff;
      }
    </style>
  </defs>
  <g>
    <g>
      <path class="cls-2" d="M377.83,69.55h115.09c87.86,0,106.02,74.79,106.02,124.17,0,55.91-22.15,136.51-108.19,136.51h-112.91V69.55ZM431.21,285.22h53.01c44.29,0,59.18-44.66,59.18-87.5,0-76.97-36.67-83.14-59.91-83.14h-52.28v170.64Z"/>
      <path class="cls-2" d="M805.43,69.55h50.83v260.68h-54.46l-106.38-185.89h-.73v185.89h-50.83V69.55h57.37l103.47,181.53h.73V69.55Z"/>
      <path class="cls-2" d="M949.58,330.24h-57.36l92.95-260.68h62.81l91.86,260.68h-59.18l-16.7-53.73h-96.21l-18.15,53.73ZM982.25,231.48h66.44l-32.31-103.11h-.73l-33.4,103.11Z"/>
    </g>
    <g>
      <path class="cls-1" d="M377.83,377.29h20.9c13.43,0,21.69,10.2,21.69,25.06,0,11.56-5.03,26.5-21.97,26.5h-20.61v-51.56ZM384.8,422.89h13.5c9.05,0,14.94-7.11,14.94-20.11s-5.96-19.53-15.44-19.53h-13v39.64Z"/>
      <path class="cls-1" d="M429.62,402.71c.29-8.98,6.25-12.49,15.51-12.49,3.02,0,13.93.86,13.93,10.48v21.61c0,1.58.79,2.23,2.08,2.23.57,0,1.36-.14,2.08-.29v4.6c-1.08.29-2.01.72-3.45.72-5.6,0-6.46-2.87-6.68-5.74-2.44,2.66-6.25,6.1-13.57,6.1-6.89,0-11.78-4.38-11.78-10.84,0-3.16.93-10.48,11.42-11.78l10.41-1.29c1.51-.14,3.3-.72,3.3-4.45,0-3.95-2.87-6.1-8.83-6.1-7.18,0-8.19,4.38-8.62,7.25h-5.82ZM452.74,409.68c-1,.79-2.58,1.36-10.41,2.37-3.09.43-8.04,1.36-8.04,6.1,0,4.09,2.08,6.53,6.82,6.53,5.89,0,11.63-3.81,11.63-8.83v-6.18Z"/>
      <path class="cls-1" d="M471.35,384.47v-7.18h6.32v7.18h-6.32ZM477.67,428.85h-6.32v-37.56h6.32v37.56Z"/>
      <path class="cls-1" d="M494.98,428.85h-6.32v-51.56h6.32v51.56Z"/>
      <path class="cls-1" d="M505.97,384.47v-7.18h6.32v7.18h-6.32ZM512.29,428.85h-6.32v-37.56h6.32v37.56Z"/>
      <path class="cls-1" d="M555.27,417.08c-.21,1.79-1.94,7.11-6.68,10.27-1.72,1.15-4.17,2.58-10.2,2.58-10.56,0-16.8-7.97-16.8-18.81,0-11.63,5.6-20.9,18.02-20.9,10.84,0,16.16,8.62,16.16,21.9h-27.43c0,7.83,3.66,12.35,10.92,12.35,5.96,0,9.48-4.6,9.69-7.4h6.32ZM549.24,407.09c-.36-5.82-2.8-11.2-10.48-11.2-5.82,0-10.41,5.39-10.41,11.2h20.9Z"/>
      <path class="cls-1" d="M586.25,402c-.07-2.37-.93-6.32-8.9-6.32-1.94,0-7.47.65-7.47,5.31,0,3.09,1.94,3.81,6.82,5.03l6.32,1.58c7.83,1.94,10.56,4.81,10.56,9.91,0,7.76-6.39,12.42-14.86,12.42-14.86,0-15.94-8.62-16.16-13.14h6.1c.22,2.94,1.08,7.68,9.98,7.68,4.52,0,8.62-1.79,8.62-5.96,0-3.02-2.08-4.02-7.47-5.39l-7.32-1.79c-5.24-1.29-8.69-3.95-8.69-9.12,0-8.26,6.82-11.99,14.22-11.99,13.43,0,14.36,9.91,14.36,11.78h-6.1Z"/>
      <path class="cls-1" d="M660.06,377.29h6.75v51.56h-7.83l-26.21-41.65h-.14v41.65h-6.75v-51.56h8.26l25.78,41.65h.14v-41.65Z"/>
      <path class="cls-1" d="M694.09,390.22c11.99,0,17.45,10.13,17.45,19.82s-5.46,19.82-17.45,19.82-17.45-10.13-17.45-19.82,5.46-19.82,17.45-19.82ZM694.09,424.4c9.05,0,10.91-9.34,10.91-14.36s-1.87-14.36-10.91-14.36-10.92,9.34-10.92,14.36,1.87,14.36,10.92,14.36Z"/>
      <path class="cls-1" d="M727.52,396.54v24.41c0,2.94,2.51,2.94,3.81,2.94h2.23v4.95c-2.3.22-4.09.5-4.74.5-6.25,0-7.61-3.52-7.61-8.04v-24.77h-5.1v-5.24h5.1v-10.48h6.32v10.48h6.03v5.24h-6.03Z"/>
      <path class="cls-1" d="M772.37,417.08c-.21,1.79-1.94,7.11-6.68,10.27-1.72,1.15-4.17,2.58-10.2,2.58-10.56,0-16.8-7.97-16.8-18.81,0-11.63,5.6-20.9,18.02-20.9,10.84,0,16.16,8.62,16.16,21.9h-27.43c0,7.83,3.66,12.35,10.92,12.35,5.96,0,9.48-4.6,9.69-7.4h6.32ZM766.34,407.09c-.36-5.82-2.8-11.2-10.48-11.2-5.82,0-10.41,5.39-10.41,11.2h20.9Z"/>
      <path class="cls-1" d="M803.34,402c-.07-2.37-.93-6.32-8.9-6.32-1.94,0-7.47.65-7.47,5.31,0,3.09,1.94,3.81,6.82,5.03l6.32,1.58c7.83,1.94,10.56,4.81,10.56,9.91,0,7.76-6.39,12.42-14.86,12.42-14.86,0-15.94-8.62-16.16-13.14h6.1c.22,2.94,1.08,7.68,9.98,7.68,4.52,0,8.62-1.79,8.62-5.96,0-3.02-2.08-4.02-7.47-5.39l-7.32-1.79c-5.24-1.29-8.69-3.95-8.69-9.12,0-8.26,6.82-11.99,14.22-11.99,13.43,0,14.36,9.91,14.36,11.78h-6.1Z"/>
      <path class="cls-1" d="M851.08,413.84l-5.38,15.01h-7.18l19.39-51.56h7.9l18.67,51.56h-7.61l-5.1-15.01h-20.68ZM869.25,407.67l-7.61-22.69h-.14l-8.26,22.69h16.01Z"/>
      <path class="cls-1" d="M912.84,402c-.07-2.37-.93-6.32-8.9-6.32-1.94,0-7.47.65-7.47,5.31,0,3.09,1.94,3.81,6.82,5.03l6.32,1.58c7.83,1.94,10.56,4.81,10.56,9.91,0,7.76-6.39,12.42-14.86,12.42-14.86,0-15.94-8.62-16.16-13.14h6.1c.22,2.94,1.08,7.68,9.98,7.68,4.52,0,8.62-1.79,8.62-5.96,0-3.02-2.08-4.02-7.47-5.39l-7.33-1.79c-5.24-1.29-8.69-3.95-8.69-9.12,0-8.26,6.82-11.99,14.22-11.99,13.43,0,14.36,9.91,14.36,11.78h-6.1Z"/>
      <path class="cls-1" d="M950.68,402c-.07-2.37-.93-6.32-8.9-6.32-1.94,0-7.47.65-7.47,5.31,0,3.09,1.94,3.81,6.82,5.03l6.32,1.58c7.83,1.94,10.56,4.81,10.56,9.91,0,7.76-6.39,12.42-14.86,12.42-14.86,0-15.94-8.62-16.16-13.14h6.1c.22,2.94,1.08,7.68,9.98,7.68,4.52,0,8.62-1.79,8.62-5.96,0-3.02-2.08-4.02-7.47-5.39l-7.33-1.79c-5.24-1.29-8.69-3.95-8.69-9.12,0-8.26,6.82-11.99,14.22-11.99,13.43,0,14.36,9.91,14.36,11.78h-6.1Z"/>
      <path class="cls-1" d="M967.02,384.47v-7.18h6.32v7.18h-6.32ZM973.33,428.85h-6.32v-37.56h6.32v37.56Z"/>
      <path class="cls-1" d="M1005.83,402c-.07-2.37-.93-6.32-8.9-6.32-1.94,0-7.47.65-7.47,5.31,0,3.09,1.94,3.81,6.82,5.03l6.32,1.58c7.83,1.94,10.56,4.81,10.56,9.91,0,7.76-6.39,12.42-14.86,12.42-14.86,0-15.94-8.62-16.16-13.14h6.1c.22,2.94,1.08,7.68,9.98,7.68,4.52,0,8.62-1.79,8.62-5.96,0-3.02-2.08-4.02-7.47-5.39l-7.32-1.79c-5.24-1.29-8.69-3.95-8.69-9.12,0-8.26,6.82-11.99,14.22-11.99,13.43,0,14.36,9.91,14.36,11.78h-6.1Z"/>
      <path class="cls-1" d="M1029.61,396.54v24.41c0,2.94,2.51,2.94,3.81,2.94h2.23v4.95c-2.3.22-4.09.5-4.74.5-6.25,0-7.61-3.52-7.61-8.04v-24.77h-5.1v-5.24h5.1v-10.48h6.32v10.48h6.03v5.24h-6.03Z"/>
      <path class="cls-1" d="M1043.5,402.71c.29-8.98,6.25-12.49,15.51-12.49,3.02,0,13.93.86,13.93,10.48v21.61c0,1.58.79,2.23,2.08,2.23.57,0,1.36-.14,2.08-.29v4.6c-1.08.29-2.01.72-3.45.72-5.6,0-6.46-2.87-6.68-5.74-2.44,2.66-6.25,6.1-13.57,6.1-6.89,0-11.78-4.38-11.78-10.84,0-3.16.93-10.48,11.42-11.78l10.41-1.29c1.51-.14,3.3-.72,3.3-4.45,0-3.95-2.87-6.1-8.83-6.1-7.18,0-8.19,4.38-8.62,7.25h-5.82ZM1066.62,409.68c-1,.79-2.58,1.36-10.41,2.37-3.09.43-8.04,1.36-8.04,6.1,0,4.09,2.08,6.53,6.82,6.53,5.89,0,11.63-3.81,11.63-8.83v-6.18Z"/>
      <path class="cls-1" d="M1115.65,428.85h-6.32v-23.12c0-6.53-1.87-9.84-8.04-9.84-3.59,0-9.91,2.3-9.91,12.49v20.47h-6.32v-37.56h5.96v5.31h.14c1.36-2.01,4.88-6.39,11.35-6.39,5.82,0,13.14,2.37,13.14,13.07v25.56Z"/>
      <path class="cls-1" d="M1133.79,396.54v24.41c0,2.94,2.51,2.94,3.81,2.94h2.23v4.95c-2.3.22-4.09.5-4.74.5-6.25,0-7.61-3.52-7.61-8.04v-24.77h-5.1v-5.24h5.1v-10.48h6.32v10.48h6.03v5.24h-6.03Z"/>
    </g>
  </g>
  <path class="cls-1" d="M270.12,166.44c-4.97-.11-9.54,1.55-13.13,4.38-10.13,8-22.19,13.18-35.08,13.9l-56.16,3.17,55.64,2.05c12.78.47,25.36,4.59,35.22,12.75,3.54,2.93,8.09,4.69,13.04,4.69,11.59,0,20.95-9.64,20.46-21.34-.43-10.65-9.34-19.37-19.99-19.62h-.01Z"/>
  <path class="cls-1" d="M270.18,293.29c-5.01-.13-9.62,1.55-13.24,4.42-10.02,7.96-22.06,12.98-34.83,13.7l-48.99,2.77,47.4,1.75c13.06.48,25.89,4.82,35.78,13.36,3.58,3.09,8.24,4.96,13.34,4.96,11.59,0,20.95-9.64,20.46-21.34-.44-10.63-9.3-19.35-19.93-19.62h.01Z"/>
  <g>
    <path class="cls-2" d="M279.56,450.39c0,7.8-6.33,14.13-14.13,14.13s-14.13-6.33-14.13-14.13,6.33-14.13,14.13-14.13,14.13,6.33,14.13,14.13Z"/>
    <path class="cls-2" d="M100.73,488.7c0,5.96,4.82,10.78,10.78,10.78s10.78-4.82,10.78-10.78-4.82-10.78-10.78-10.78-10.78,4.82-10.78,10.78Z"/>
    <path class="cls-1" d="M282.93,477.92c-1.78-.01-3.46.41-4.95,1.15-7.09,3.58-14.66,6.11-22.61,6.41l-111.55,4.14,109.41,2.66c8.6.21,17.1,2.21,24.79,6.07,1.45.73,3.08,1.13,4.81,1.13,6,0,10.87-4.91,10.78-10.93-.09-5.75-4.93-10.57-10.68-10.62h-.01Z"/>
    <path class="cls-1" d="M241.52,451.42l-78.76-4.45c-9.48-.54-18.46-3.86-26.62-8.73-1.9-1.14-4.1-1.83-6.45-1.97-7.8-.42-14.66,5.89-14.88,13.7-.22,7.99,6.19,14.54,14.12,14.54,2.69,0,5.21-.76,7.34-2.07,8.77-5.36,19.01-7.85,29.29-8.23l75.96-2.81h0Z"/>
  </g>
  <g>
    <path class="cls-2" d="M196.34,395.97c9.24,0,16.73-7.49,16.73-16.73s-7.49-16.73-16.73-16.73-16.73,7.49-16.73,16.73,7.49,16.73,16.73,16.73Z"/>
    <path class="cls-2" d="M232.5,371.93c9.24,0,16.73-7.49,16.73-16.73s-7.49-16.73-16.73-16.73-16.73,7.49-16.73,16.73,7.49,16.73,16.73,16.73Z"/>
    <path class="cls-2" d="M146.89,407.78c0,8.56,6.93,15.5,15.5,15.5s15.5-6.93,15.5-15.5-6.93-15.5-15.5-15.5-15.5,6.93-15.5,15.5Z"/>
    <path class="cls-1" d="M208.81,355.67l-2.04-.11c-12.75-.73-24.63-5.88-34.77-13.64-3.02-2.32-6.87-3.63-11.02-3.41-8.52.44-15.51,7.53-15.84,16.04-.36,9.54,7.25,17.39,16.72,17.39,3.91,0,7.52-1.35,10.36-3.6,10.28-8.14,23.22-12.18,36.33-12.66h.26Z"/>
    <path class="cls-1" d="M232.83,392.32c-3.8-.21-7.33.97-10.12,3.06-9.46,7.09-20.47,11.79-32.28,12.46l-7.28.41,4.96.19c12.36.46,24.63,4.11,34.44,11.65,2.62,2.01,5.88,3.2,9.43,3.2,8.72,0,15.76-7.2,15.48-15.98-.24-7.92-6.73-14.56-14.64-14.99h0Z"/>
  </g>
  <g>
    <path class="cls-2" d="M293.62,10.79c0,5.96-4.82,10.78-10.78,10.78s-10.78-4.82-10.78-10.78S276.88,0,282.84,0s10.78,4.82,10.78,10.78Z"/>
    <path class="cls-2" d="M114.8,49.49c0,7.8,6.33,14.13,14.13,14.13s14.13-6.33,14.13-14.13-6.33-14.13-14.13-14.13-14.13,6.33-14.13,14.13Z"/>
    <path class="cls-1" d="M254.05,9.86l-115.42-2.81c-7.85-.19-15.36-2.56-22.43-5.98-1.47-.71-3.14-1.1-4.9-1.07-5.7.11-10.48,4.91-10.56,10.62-.09,6.02,4.77,10.93,10.78,10.93,1.62,0,3.15-.36,4.54-1,7.79-3.63,16.04-6.16,24.64-6.48l113.37-4.21h-.01Z"/>
    <path class="cls-1" d="M264.67,35.38c-2.35.12-4.55.82-6.45,1.96-8.02,4.78-16.89,7.97-26.22,8.31l-76.07,2.81,76.31,4.31c9.21.52,17.9,3.84,25.71,8.71,2.17,1.35,4.73,2.13,7.46,2.13,7.93,0,14.35-6.55,14.12-14.54-.22-7.8-7.08-14.11-14.88-13.7h.01Z"/>
  </g>
  <g>
    <path class="cls-2" d="M213.07,117.08c0,9.24-7.48,16.73-16.73,16.73s-16.73-7.48-16.73-16.73,7.48-16.73,16.73-16.73,16.73,7.48,16.73,16.73Z"/>
    <path class="cls-2" d="M247.46,87.18c0,8.56-6.93,15.5-15.5,15.5s-15.5-6.93-15.5-15.5,6.93-15.5,15.5-15.5,15.5,6.93,15.5,15.5Z"/>
    <path class="cls-2" d="M232.5,162.75c9.24,0,16.73-7.49,16.73-16.73s-7.49-16.73-16.73-16.73-16.73,7.49-16.73,16.73,7.49,16.73,16.73,16.73Z"/>
    <path class="cls-1" d="M208.81,146.48l-2.04-.11c-12.75-.71-24.63-5.88-34.77-13.64-3.02-2.32-6.87-3.63-11.02-3.41-8.52.44-15.51,7.53-15.84,16.04-.36,9.54,7.25,17.39,16.72,17.39,3.91,0,7.52-1.35,10.36-3.6,10.28-8.14,23.22-12.18,36.33-12.66h.26Z"/>
    <path class="cls-1" d="M213.92,86.72l-10.58-.4c-11.58-.43-22.47-4.86-31.85-11.69-2.48-1.8-5.52-2.89-8.81-2.96-8.35-.15-15.54,6.68-15.78,15.03-.25,8.77,6.78,15.96,15.48,15.96,3.62,0,6.93-1.23,9.57-3.31,9.7-7.63,21.83-11.51,34.14-12.21l7.82-.44h0Z"/>
  </g>
  <path class="cls-1" d="M290.12,247.64l-23.82-2.45c-38.06-2.14-63.28-19.84-91.67-45.22-12.68-11.34-29.62-18.04-48.16-17.43-35.3,1.16-64.58,29.96-66.21,65.09-1.81,39.26,29.59,71.63,68.57,71.63,16.48,0,31.62-5.81,43.43-15.47,29.19-23.88,57.96-50.41,95.69-51.78l22.17-4.38Z"/>
  <rect class="cls-3" x="76.1" y="246.26" width="103.49" height="8.93" rx="4.46" ry="4.46"/>
  <path class="cls-3" d="M166.8,235.57h-77.91c-2.6,0-4.71-2.11-4.71-4.71s2.11-4.71,4.71-4.71h77.91c2.6,0,4.71,2.11,4.71,4.71s-2.11,4.71-4.71,4.71Z"/>
  <path class="cls-3" d="M166.8,275.65h-77.91c-2.6,0-4.71-2.11-4.71-4.71s2.11-4.71,4.71-4.71h77.91c2.6,0,4.71,2.11,4.71,4.71s-2.11,4.71-4.71,4.71Z"/>
  <path class="cls-2" d="M268.7,250.89c0,13.57,11,24.58,24.58,24.58s24.58-11,24.58-24.58-11-24.57-24.58-24.57-24.58,11-24.58,24.57Z"/>
</svg>