<?xml version="1.0" encoding="UTF-8" standalone="no"?>
<svg
   role="img"
   viewBox="374.37 28.87 163.43415 219.36332"
   version="1.1"
   id="svg18"
   sodipodi:docname="depix.svg"
   width="163.43416"
   height="219.36333"
   inkscape:version="1.4 (e7c3feb1, 2024-10-09)"
   xmlns:inkscape="http://www.inkscape.org/namespaces/inkscape"
   xmlns:sodipodi="http://sodipodi.sourceforge.net/DTD/sodipodi-0.dtd"
   xmlns="http://www.w3.org/2000/svg"
   xmlns:svg="http://www.w3.org/2000/svg">
  <defs
     id="defs18" />
  <sodipodi:namedview
     id="namedview18"
     pagecolor="#ffffff"
     bordercolor="#000000"
     borderopacity="0.25"
     inkscape:showpageshadow="2"
     inkscape:pageopacity="0.0"
     inkscape:pagecheckerboard="0"
     inkscape:deskcolor="#d1d1d1"
     inkscape:zoom="1.89"
     inkscape:cx="81.216931"
     inkscape:cy="109.78836"
     inkscape:window-width="2080"
     inkscape:window-height="1462"
     inkscape:window-x="0"
     inkscape:window-y="25"
     inkscape:window-maximized="0"
     inkscape:current-layer="svg18" />
  <linearGradient
     id="a"
     x1="449.80099"
     x2="449.80099"
     y1="128.105"
     y2="166.78799"
     gradientTransform="rotate(45.001,467.36507,136.43487)"
     gradientUnits="userSpaceOnUse">
    <stop
       offset="0"
       stop-color="#fff"
       id="stop1" />
    <stop
       offset="1"
       id="stop2" />
  </linearGradient>
  <path
     fill="url(#a)"
     d="m 499.55832,165.37632 -88.939,-88.939 -11.777,11.776 88.939,88.939 c 1.637,1.637 5.602,0.329 8.854,-2.923 3.251,-3.251 4.56,-7.215 2.923,-8.853 z"
     id="path2"
     style="fill:url(#a)" />
  <path
     fill="none"
     stroke="#231f20"
     stroke-width="2"
     d="m 499.55832,165.37632 -88.939,-88.939 -11.777,11.776 88.939,88.939 c 1.637,1.637 5.602,0.329 8.854,-2.923 3.251,-3.251 4.56,-7.215 2.923,-8.853 z"
     id="path3" />
  <ellipse
     cx="344.22073"
     cy="-227.96448"
     fill="#7b7e80"
     stroke="#231f20"
     stroke-width="2"
     rx="4.1929998"
     ry="8.3269997"
     transform="rotate(45.001)"
     id="ellipse3" />
  <ellipse
     cx="344.18671"
     cy="-228.00583"
     fill="#231f20"
     rx="2.059"
     ry="4.0890002"
     transform="rotate(45.009)"
     id="ellipse4" />
  <linearGradient
     id="b"
     x1="430.54099"
     x2="746.18402"
     y1="112.958"
     y2="509.978"
     gradientTransform="rotate(45.001,467.36507,136.43487)"
     gradientUnits="userSpaceOnUse">
    <stop
       offset="0"
       stop-color="#fff"
       id="stop4" />
    <stop
       offset="1"
       id="stop5" />
  </linearGradient>
  <path
     fill="url(#b)"
     d="m 472.76332,30.99132 -96.272,96.272 78.96,78.96 75.944,-76.111 -1.585,-42.073 -57.047,-57.048"
     id="path5"
     style="fill:url(#b)" />
  <path
     fill="#231f20"
     d="m 506.03932,139.40232 a 5.013,5.013 0 0 1 -7.07,0 l -59.525,-59.524 a 5.016,5.016 0 0 1 0,-7.071 l 30.306,-30.306 a 5.013,5.013 0 0 1 7.07,0 l 59.526,59.525 a 5.016,5.016 0 0 1 0,7.071 z"
     id="path6" />
  <path
     fill="#be1e2d"
     d="m 466.04832,179.39332 a 5.013,5.013 0 0 1 -7.07,0 l -59.525,-59.524 a 5.016,5.016 0 0 1 0,-7.071 l 30.306,-30.305 a 5.013,5.013 0 0 1 7.07,0 l 59.526,59.524 a 5.016,5.016 0 0 1 0,7.071 z"
     id="path7" />
  <path
     fill="#231f20"
     d="m 456.75632,181.61432 -59.525,-59.524 a 5.013,5.013 0 0 0 -7.07,0 l -9.882,9.881 67.046,66.146 9.432,-9.431 c 1.943,-1.945 1.943,-5.127 -10e-4,-7.072 z"
     id="path8" />
  <path
     fill="none"
     stroke="#231f20"
     stroke-width="3"
     d="m 472.76332,30.99132 -96.272,96.272 78.96,78.96 75.944,-76.111 -0.17,-40.659 z"
     id="path9" />
  <path
     fill="#ffffff"
     stroke="#231f20"
     stroke-width="3"
     d="m 529.81032,89.22532 -20.244,20.245 20.414,20.415"
     id="path10" />
  <path
     fill="none"
     stroke="#231f20"
     stroke-width="3"
     d="m 492.32432,181.57832 5.422,5.421 a 5.013,5.013 0 0 0 7.07,0 l 12.285,-12.285 a 5.013,5.013 0 0 1 7.07,0 l 3.733,3.733"
     id="path11" />
  <circle
     cx="530.06635"
     cy="180.60733"
     r="6.3340001"
     fill="#be1e2d"
     id="circle11" />
  <linearGradient
     id="c"
     x1="459.039"
     x2="459.039"
     y1="134.707"
     y2="177.812"
     gradientTransform="rotate(45.001,467.36507,136.43487)"
     gradientUnits="userSpaceOnUse">
    <stop
       offset="0"
       stop-color="#fff"
       id="stop11" />
    <stop
       offset="1"
       id="stop12" />
  </linearGradient>
  <path
     fill="url(#c)"
     d="m 500.91632,177.04832 -89.566,-89.567 -13.122,13.123 89.566,89.567 c 2.003,2.002 6.563,0.688 10.187,-2.935 3.624,-3.625 4.938,-8.186 2.935,-10.188 z"
     id="path12"
     style="fill:url(#c)" />
  <path
     fill="none"
     stroke="#231f20"
     stroke-width="2"
     d="m 500.91632,177.04832 -89.566,-89.567 -13.122,13.123 89.566,89.567 c 2.003,2.002 6.563,0.688 10.187,-2.935 3.624,-3.625 4.938,-8.186 2.935,-10.188 z"
     id="path13" />
  <ellipse
     cx="352.51056"
     cy="-219.72388"
     fill="#7b7e80"
     stroke="#231f20"
     stroke-width="2"
     rx="5.1279998"
     ry="9.2790003"
     transform="rotate(45.001)"
     id="ellipse13" />
  <ellipse
     cx="352.50879"
     cy="-219.73477"
     fill="#231f20"
     rx="2.5179999"
     ry="4.5570002"
     transform="rotate(45.004)"
     id="ellipse14" />
  <path
     fill="#be1e2d"
     d="m 424.81832,220.08032 v 18.138 c 0,1.333 0.062,2.853 0.124,3.876 h -2.419 l -0.123,-2.604 h -0.094 c -0.807,1.675 -2.604,2.945 -5.054,2.945 -3.628,0 -6.449,-3.069 -6.449,-7.627 -0.03,-4.992 3.101,-8.03 6.728,-8.03 2.326,0 3.846,1.085 4.527,2.263 h 0.062 v -8.96 h 2.698 z m -2.698,13.115 c 0,-0.342 -0.031,-0.807 -0.125,-1.147 -0.402,-1.705 -1.891,-3.132 -3.938,-3.132 -2.82,0 -4.496,2.48 -4.496,5.768 0,3.038 1.52,5.55 4.435,5.55 1.829,0 3.503,-1.24 3.999,-3.256 a 4.69,4.69 0 0 0 0.125,-1.178 z m 11.251,1.89 c 0.062,3.69 2.388,5.209 5.147,5.209 1.953,0 3.162,-0.341 4.154,-0.774 l 0.496,1.953 c -0.961,0.435 -2.635,0.961 -5.023,0.961 -4.619,0 -7.379,-3.069 -7.379,-7.597 0,-4.526 2.666,-8.061 7.039,-8.061 4.93,0 6.201,4.278 6.201,7.038 0,0.558 -0.031,0.961 -0.094,1.271 z m 7.999,-1.953 c 0.031,-1.705 -0.713,-4.402 -3.782,-4.402 -2.79,0 -3.969,2.512 -4.187,4.402 z"
     id="path14" />
  <path
     fill="#231f20"
     d="m 449.86332,231.98632 c 0,-1.923 -0.062,-3.473 -0.123,-4.899 h 2.418 l 0.154,2.573 h 0.062 c 1.086,-1.829 2.883,-2.883 5.333,-2.883 3.659,0 6.388,3.069 6.388,7.596 0,5.396 -3.318,8.062 -6.854,8.062 -1.984,0 -3.721,-0.868 -4.619,-2.356 h -0.062 v 8.154 h -2.697 z m 2.697,3.999 c 0,0.403 0.031,0.775 0.125,1.116 0.496,1.892 2.139,3.193 4.092,3.193 2.885,0 4.559,-2.355 4.559,-5.798 0,-2.977 -1.582,-5.55 -4.465,-5.55 -1.861,0 -3.628,1.303 -4.124,3.349 -0.093,0.341 -0.187,0.744 -0.187,1.085 z m 20.461,-13.115 c 0,0.931 -0.652,1.675 -1.736,1.675 -0.992,0 -1.645,-0.744 -1.645,-1.675 0,-0.931 0.683,-1.705 1.705,-1.705 0.992,0 1.676,0.744 1.676,1.705 z m -3.039,19.223 v -15.007 h 2.729 v 15.007 z m 11.005,-15.007 2.14,3.225 a 34.925,34.925 0 0 1 1.551,2.419 h 0.061 a 45.88,45.88 0 0 1 1.52,-2.45 l 2.078,-3.193 h 2.977 l -5.116,7.255 5.239,7.752 h -3.068 l -2.232,-3.38 c -0.59,-0.868 -1.086,-1.705 -1.613,-2.604 h -0.062 a 38.923,38.923 0 0 1 -1.581,2.604 l -2.17,3.38 h -3.008 l 5.332,-7.658 -5.084,-7.349 h 3.036 z"
     id="path15" />
</svg>
