<svg xmlns="http://www.w3.org/2000/svg" role="img" viewBox="374.37 28.87 172.02 228.02"><linearGradient id="a" x1="449.801" x2="449.801" y1="128.105" y2="166.788" gradientTransform="rotate(45.001 464.212 143.97)" gradientUnits="userSpaceOnUse"><stop offset="0" stop-color="#fff"/><stop offset="1"/></linearGradient><path fill="url(#a)" d="M503.963 169.813l-88.939-88.939-11.777 11.776 88.939 88.939c1.637 1.637 5.602.329 8.854-2.923 3.251-3.251 4.56-7.215 2.923-8.853z"/><path fill="none" stroke="#231F20" stroke-width="2" d="M503.963 169.813l-88.939-88.939-11.777 11.776 88.939 88.939c1.637 1.637 5.602.329 8.854-2.923 3.251-3.251 4.56-7.215 2.923-8.853z"/><ellipse cx="409.016" cy="86.643" fill="#7B7E80" stroke="#231F20" stroke-width="2" rx="4.193" ry="8.327" transform="rotate(45.001 409 86.626)"/><ellipse cx="409.016" cy="86.643" fill="#231F20" rx="2.059" ry="4.089" transform="rotate(45.009 408.993 86.62)"/><linearGradient id="b" x1="430.541" x2="746.184" y1="112.958" y2="509.978" gradientTransform="rotate(45.001 464.212 143.97)" gradientUnits="userSpaceOnUse"><stop offset="0" stop-color="#fff"/><stop offset="1"/></linearGradient><path fill="url(#b)" d="M477.168 35.428L380.896 131.7l78.96 78.96 75.944-76.111-1.585-42.073-57.047-57.048"/><path fill="#231F20" d="M510.444 143.839a5.013 5.013 0 0 1-7.07 0l-59.525-59.524a5.016 5.016 0 0 1 0-7.071l30.306-30.306a5.013 5.013 0 0 1 7.07 0l59.526 59.525a5.016 5.016 0 0 1 0 7.071l-30.307 30.305z"/><path fill="#BE1E2D" d="M470.453 183.83a5.013 5.013 0 0 1-7.07 0l-59.525-59.524a5.016 5.016 0 0 1 0-7.071l30.306-30.305a5.013 5.013 0 0 1 7.07 0l59.526 59.524a5.016 5.016 0 0 1 0 7.071l-30.307 30.305z"/><path fill="#231F20" d="M461.161 186.051l-59.525-59.524a5.013 5.013 0 0 0-7.07 0l-9.882 9.881 67.046 66.146 9.432-9.431c1.943-1.945 1.943-5.127-.001-7.072z"/><path fill="none" stroke="#231F20" stroke-width="3" d="M477.168 35.428L380.896 131.7l78.96 78.96 75.944-76.111-.17-40.659z"/><path fill="#FFF" stroke="#231F20" stroke-width="3" d="M534.215 93.662l-20.244 20.245 20.414 20.415"/><path fill="none" stroke="#231F20" stroke-width="3" d="M496.729 186.015l5.422 5.421a5.013 5.013 0 0 0 7.07 0l12.285-12.285a5.013 5.013 0 0 1 7.07 0l3.733 3.733"/><circle cx="534.471" cy="185.044" r="6.334" fill="#BE1E2D"/><linearGradient id="c" x1="459.039" x2="459.039" y1="134.707" y2="177.812" gradientTransform="rotate(45.001 464.212 143.97)" gradientUnits="userSpaceOnUse"><stop offset="0" stop-color="#fff"/><stop offset="1"/></linearGradient><path fill="url(#c)" d="M505.321 181.485l-89.566-89.567-13.122 13.123 89.566 89.567c2.003 2.002 6.563.688 10.187-2.935 3.624-3.625 4.938-8.186 2.935-10.188z"/><path fill="none" stroke="#231F20" stroke-width="2" d="M505.321 181.485l-89.566-89.567-13.122 13.123 89.566 89.567c2.003 2.002 6.563.688 10.187-2.935 3.624-3.625 4.938-8.186 2.935-10.188z"/><ellipse cx="409.048" cy="98.334" fill="#7B7E80" stroke="#231F20" stroke-width="2" rx="5.128" ry="9.279" transform="rotate(45.001 409.036 98.319)"/><ellipse cx="409.048" cy="98.334" fill="#231F20" rx="2.518" ry="4.557" transform="rotate(45.004 409.022 98.327)"/><path fill="#BE1E2D" d="M429.223 224.517v18.138c0 1.333.062 2.853.124 3.876h-2.419l-.123-2.604h-.094c-.807 1.675-2.604 2.945-5.054 2.945-3.628 0-6.449-3.069-6.449-7.627-.03-4.992 3.101-8.03 6.728-8.03 2.326 0 3.846 1.085 4.527 2.263h.062v-8.96h2.698zm-2.698 13.115c0-.342-.031-.807-.125-1.147-.402-1.705-1.891-3.132-3.938-3.132-2.82 0-4.496 2.48-4.496 5.768 0 3.038 1.52 5.55 4.435 5.55 1.829 0 3.503-1.24 3.999-3.256a4.69 4.69 0 0 0 .125-1.178v-2.605zm11.251 1.89c.062 3.69 2.388 5.209 5.147 5.209 1.953 0 3.162-.341 4.154-.774l.496 1.953c-.961.435-2.635.961-5.023.961-4.619 0-7.379-3.069-7.379-7.597 0-4.526 2.666-8.061 7.039-8.061 4.93 0 6.201 4.278 6.201 7.038 0 .558-.031.961-.094 1.271h-10.541zm7.999-1.953c.031-1.705-.713-4.402-3.782-4.402-2.79 0-3.969 2.512-4.187 4.402h7.969z"/><path fill="#231F20" d="M454.268 236.423c0-1.923-.062-3.473-.123-4.899h2.418l.154 2.573h.062c1.086-1.829 2.883-2.883 5.333-2.883 3.659 0 6.388 3.069 6.388 7.596 0 5.396-3.318 8.062-6.854 8.062-1.984 0-3.721-.868-4.619-2.356h-.062v8.154h-2.697v-16.247zm2.697 3.999c0 .403.031.775.125 1.116.496 1.892 2.139 3.193 4.092 3.193 2.885 0 4.559-2.355 4.559-5.798 0-2.977-1.582-5.55-4.465-5.55-1.861 0-3.628 1.303-4.124 3.349-.093.341-.187.744-.187 1.085v2.605zm20.461-13.115c0 .931-.652 1.675-1.736 1.675-.992 0-1.645-.744-1.645-1.675s.683-1.705 1.705-1.705c.992 0 1.676.744 1.676 1.705zm-3.039 19.223v-15.007h2.729v15.007h-2.729zm11.005-15.007l2.14 3.225a34.925 34.925 0 0 1 1.551 2.419h.061a45.88 45.88 0 0 1 1.52-2.45l2.078-3.193h2.977l-5.116 7.255 5.239 7.752h-3.068l-2.232-3.38c-.59-.868-1.086-1.705-1.613-2.604h-.062a38.923 38.923 0 0 1-1.581 2.604l-2.17 3.38h-3.008l5.332-7.658-5.084-7.349h3.036z"/><path fill="none" d="M92 16.889h256v270H92z"/><path fill="none" d="M345.5 16.889h254.996v270H345.5zm-251.468 270H348v270H94.032z"/><path fill="none" d="M345.5 286.889h256v270h-256z"/></svg>