<?xml version="1.0" encoding="UTF-8"?>
<svg id="Logos" xmlns="http://www.w3.org/2000/svg" viewBox="0 0 272.49 57.29">
  <defs>
    <style>
      .cls-1 {
        fill: #eda200;
      }

      .cls-2 {
        fill: #009438;
      }

      .cls-3 {
        fill: #1dcad3;
      }

      .cls-4 {
        fill: #da0066;
      }
    </style>
  </defs>
  <g>
    <polygon class="cls-3" points="55.32 19.83 40.94 28.13 34.38 31.92 34.38 56.63 21.27 56.63 21.27 31.92 14.71 28.14 0 19.64 6.56 8.28 27.8 20.55 48.76 8.48 55.32 19.83"/>
    <circle class="cls-1" cx="27.63" cy="7.15" r="7.15"/>
    <circle class="cls-2" cx="9.75" cy="38.52" r="7.15"/>
    <circle class="cls-4" cx="45.95" cy="38.52" r="7.19"/>
  </g>
  <g>
    <path class="cls-3" d="M73.63,29.43h-3.94V9.54h3.94c3.04,0,5.49.92,7.34,2.77.97.97,1.69,2.11,2.16,3.4.47,1.29.7,2.55.7,3.79s-.23,2.46-.69,3.74-1.18,2.42-2.18,3.42c-1.85,1.85-4.29,2.77-7.34,2.77ZM71.01,10.74v17.51h2.59c2.62,0,4.76-.81,6.4-2.43,1.64-1.62,2.46-3.72,2.46-6.31s-.83-4.67-2.48-6.31c-1.65-1.64-3.78-2.46-6.38-2.46h-2.59Z"/>
    <path class="cls-3" d="M88.12,9.54h1.31v19.89h-1.31V9.54Z"/>
    <path class="cls-3" d="M92.54,9.54h1.43l5.85,16.94,5.67-16.94h1.43l-7.1,20.7-7.28-20.7Z"/>
    <path class="cls-3" d="M119.56,9.54v1.19h-8.23v7.22h8.05v1.19h-8.05v9.1h8.23v1.19h-9.54V9.54h9.54Z"/>
    <path class="cls-3" d="M133.69,29.43h-1.49l-6.44-9.39h-.6v9.39h-1.31V9.54h2.86c1.81,0,3.21.34,4.21,1.01,1.37.95,2.06,2.38,2.06,4.26,0,1.09-.27,2.07-.81,2.94-.54.86-1.38,1.5-2.54,1.89-.76.26-1.57.39-2.45.39l6.5,9.39ZM125.16,10.74v8.11h1.91c1.41,0,2.52-.36,3.33-1.07s1.21-1.71,1.21-2.98c0-1.67-.59-2.82-1.76-3.46-.7-.4-1.71-.6-3.04-.6h-1.64Z"/>
    <path class="cls-3" d="M147.83,12.11l-.95.81c-.83-1.63-2.14-2.45-3.91-2.45-1.13,0-2.03.36-2.7,1.07-.67.72-1,1.59-1,2.62,0,.52.07.96.22,1.34.15.38.42.73.81,1.04.39.32.73.56,1.03.73.3.17.78.41,1.43.73,2.15,1.03,3.47,1.73,3.97,2.09,1.41.97,2.12,2.26,2.12,3.85s-.61,3.03-1.82,4.15c-1.21,1.11-2.67,1.67-4.38,1.67-1.89,0-3.43-.7-4.62-2.09-.58-.68-1-1.4-1.28-2.18l1.13-.54c.24.72.6,1.35,1.07,1.91.89,1.13,2.14,1.7,3.73,1.7,1.35,0,2.49-.44,3.41-1.31.92-.87,1.39-1.97,1.39-3.28s-.65-2.34-1.94-3.13c-.58-.34-1.7-.91-3.37-1.73-1.09-.54-1.89-.97-2.4-1.31-.51-.34-.92-.78-1.24-1.31-.42-.7-.63-1.45-.63-2.27,0-1.29.44-2.44,1.31-3.44.87-1,2.14-1.51,3.79-1.51,1.01,0,1.95.24,2.8.73.85.49,1.53,1.19,2.03,2.1Z"/>
    <path class="cls-3" d="M153.14,9.54h1.31v19.89h-1.31V9.54Z"/>
    <path class="cls-3" d="M169.18,10.74h-5.16v18.7h-1.31V10.74h-5.16v-1.19h11.63v1.19Z"/>
    <path class="cls-3" d="M176.85,29.43v-8.5l-6.53-11.39h1.49l5.73,10.05,5.85-10.05h1.49l-6.71,11.39v8.5h-1.31Z"/>
    <path class="cls-3" d="M209.15,21.71l.95.81c-.78,1.05-1.62,2.02-2.54,2.89l2.98,4.03h-1.67l-2.3-3.13c-1.51,1.25-2.68,2.1-3.52,2.53-1.29.66-2.53.98-3.7.98-1.45,0-2.65-.46-3.61-1.37-1.03-.99-1.55-2.25-1.55-3.76s.44-2.7,1.31-3.76c.54-.66,1.37-1.36,2.5-2.12l2.12-1.37c-.78-1.21-1.3-2.1-1.58-2.67-.28-.57-.42-1.15-.42-1.75,0-1.07.38-1.99,1.13-2.74.72-.74,1.63-1.1,2.74-1.1.97,0,1.82.33,2.53.98.74.68,1.1,1.58,1.1,2.71s-.49,2.22-1.46,3.19c-.48.48-1.22,1.05-2.24,1.73l4.86,6.56c.68-.68,1.45-1.56,2.33-2.65ZM205.84,25.26l-4.98-6.8-1.88,1.22c-1.17.76-2.02,1.48-2.54,2.18-.58.8-.86,1.71-.86,2.74,0,1.19.35,2.16,1.04,2.89.72.76,1.64,1.13,2.77,1.13s2.26-.36,3.49-1.07c.97-.54,1.96-1.3,2.95-2.3ZM201.21,16.79c.99-.64,1.73-1.2,2.21-1.7.62-.66.92-1.38.92-2.18,0-.74-.23-1.33-.69-1.79-.46-.46-1.03-.69-1.73-.69-.64,0-1.18.22-1.64.66-.56.52-.83,1.18-.83,2,0,.32.07.66.21,1.03.14.37.27.66.4.88.13.22.33.54.61.97.28.43.46.7.54.82Z"/>
    <path class="cls-3" d="M69.69,36.66h1.31v19.89h-1.31v-19.89Z"/>
    <path class="cls-3" d="M77.69,56.55h-1.31v-20.1l16.7,17.48v-17.27h1.31v20.4l-16.7-17.48v16.97Z"/>
    <path class="cls-3" d="M115.68,38.98v1.73c-.85-.99-1.86-1.76-3.03-2.31-1.16-.55-2.39-.82-3.68-.82-2.52,0-4.64.88-6.35,2.65-1.71,1.77-2.56,3.93-2.56,6.47,0,1.41.27,2.7.82,3.88.55,1.17,1.26,2.12,2.15,2.85.88.73,1.84,1.28,2.88,1.67s2.07.58,3.1.58c1.11,0,2.27-.24,3.46-.73,1.19-.49,2.27-1.25,3.22-2.28v1.73c-1.87,1.65-4.08,2.48-6.62,2.48-2.94,0-5.41-1-7.4-3.01-1.99-2.01-2.98-4.41-2.98-7.22s1-5.29,3.01-7.28c2.01-1.99,4.44-2.98,7.31-2.98,2.62,0,4.85.87,6.68,2.59Z"/>
    <path class="cls-3" d="M119.98,36.66h1.31v18.7h5.55v1.19h-6.86v-19.89Z"/>
    <path class="cls-3" d="M129.94,36.66h1.31v12.44c0,1.05.05,1.89.16,2.52.11.63.33,1.22.67,1.77.52.83,1.21,1.43,2.07,1.77.86.35,1.71.52,2.55.52s1.69-.17,2.55-.52c.86-.35,1.56-.94,2.07-1.77.34-.56.56-1.15.67-1.77.11-.63.16-1.47.16-2.52v-12.44h1.31v12.44c0,1.23-.07,2.22-.21,2.95-.14.74-.45,1.45-.92,2.15-1.23,1.79-3.11,2.68-5.64,2.68s-4.4-.9-5.64-2.68c-.48-.7-.79-1.41-.92-2.15-.14-.74-.21-1.72-.21-2.95v-12.44Z"/>
    <path class="cls-3" d="M158.87,39.22l-.95.81c-.83-1.63-2.14-2.45-3.91-2.45-1.13,0-2.03.36-2.7,1.07-.67.72-1,1.59-1,2.62,0,.52.07.96.22,1.34.15.38.42.73.81,1.04.39.32.73.56,1.03.73.3.17.78.41,1.43.73,2.15,1.03,3.47,1.73,3.97,2.09,1.41.97,2.12,2.26,2.12,3.85s-.61,3.03-1.82,4.15c-1.21,1.11-2.67,1.67-4.38,1.67-1.89,0-3.43-.7-4.62-2.09-.58-.68-1-1.4-1.28-2.18l1.13-.54c.24.72.6,1.35,1.07,1.91.89,1.13,2.14,1.7,3.73,1.7,1.35,0,2.49-.44,3.41-1.31.92-.87,1.39-1.97,1.39-3.28s-.65-2.34-1.94-3.13c-.58-.34-1.7-.91-3.37-1.73-1.09-.54-1.89-.97-2.4-1.31-.51-.34-.92-.78-1.24-1.31-.42-.7-.63-1.45-.63-2.27,0-1.29.44-2.44,1.31-3.44.87-1,2.14-1.51,3.79-1.51,1.01,0,1.95.24,2.8.73.85.49,1.53,1.19,2.03,2.1Z"/>
    <path class="cls-3" d="M164.17,36.66h1.31v19.89h-1.31v-19.89Z"/>
    <path class="cls-3" d="M172.76,39.37c1.99-1.99,4.43-2.98,7.34-2.98s5.35.99,7.34,2.98c1.99,1.99,2.98,4.41,2.98,7.28s-.99,5.28-2.98,7.26c-1.99,1.98-4.43,2.97-7.34,2.97s-5.37-.99-7.35-2.97c-1.98-1.98-2.97-4.4-2.97-7.26s.99-5.29,2.98-7.28ZM173.72,53.07c1.71,1.74,3.84,2.61,6.38,2.61s4.67-.87,6.38-2.61c1.71-1.74,2.56-3.88,2.56-6.43s-.85-4.72-2.56-6.46c-1.71-1.74-3.84-2.61-6.38-2.61s-4.67.87-6.38,2.61c-1.71,1.74-2.56,3.89-2.56,6.46s.85,4.69,2.56,6.43Z"/>
    <path class="cls-3" d="M196.03,56.55h-1.31v-20.1l16.7,17.48v-17.27h1.31v20.4l-16.7-17.48v16.97Z"/>
    <path class="cls-3" d="M222.78,36.66h1.43l5.49,16.88,7.19-17.95,6.74,17.95,6.23-16.88h1.43l-7.66,20.64-6.74-18.07-7.4,18.07-6.71-20.64Z"/>
    <path class="cls-3" d="M264.14,48.2v-1.19h8.35c0,2.62-.68,4.8-2.03,6.53-1.75,2.23-4.25,3.34-7.49,3.34-2.94,0-5.39-.96-7.35-2.89-1.96-1.93-2.94-4.37-2.94-7.34s1-5.36,3-7.32c2-1.96,4.46-2.94,7.38-2.94,2.29,0,4.36.72,6.23,2.15.91.72,1.71,1.55,2.39,2.51l-1.04.83c-.48-.81-1.11-1.55-1.91-2.21-1.67-1.39-3.57-2.09-5.7-2.09-2.54,0-4.68.88-6.4,2.65s-2.58,3.93-2.58,6.47.84,4.63,2.54,6.37c1.69,1.74,3.81,2.61,6.35,2.61,1.57,0,2.97-.33,4.19-1s2.13-1.46,2.73-2.37c.8-1.23,1.23-2.6,1.31-4.12h-7.04Z"/>
  </g>
</svg>