<svg id="Layer_1" data-name="Layer 1" xmlns="http://www.w3.org/2000/svg" viewBox="0 0 606.84003 234"><defs><style>.cls-1{fill:#e94740;}</style></defs><title>dn-ptc-viewer-node</title><path class="cls-1" d="M286.0543,14.25l.09,129.4h-25.64l-58.75-88.24v88.25h-23.15V14.25h13a23.26,23.26,0,0,1,19.4,10.42l51.85,78.36V14.25Zm73.68,129.28h76.79v-22.9h-66.33v-30h54.46V66.82h-54.46V36.25h66.33v-22h-91.12v115a14.33,14.33,0,0,0,14.33,14.29ZM56.8043,11.67c-23.73-.25-44.19,12-44.19,12V97.15l23.06-20.49V39.71s7.73-4.46,19.65-4.46c24.65,0,44.7,19.57,44.7,43.64a43,43,0,0,1-42.7947,43.20432q-.83281.004-1.6653-.02432a44,44,0,0,1-16.92-4.13l-19.11,17a67.29,67.29,0,1,0,37.27-123.27Zm495.62,134.75c23.72.24,44.19-12,44.19-12V69.13l-23.07,20.49v28.76s-7.73,4.43-19.65,4.43c-24.65,0-44.7-19.58-44.7-43.64a43,43,0,0,1,42.78467-43.21428q.8378-.00418,1.67535.02428a44.13967,44.13967,0,0,1,16.92,4.13l19.12-17a67.29,67.29,0,1,0-37.27,123.33Z"/><path d="M89.64746,194.459a9.339,9.339,0,0,1,3.36865,3.24707V183.69336h7.78809v39.668H93.33936V219.292a10.823,10.823,0,0,1-3.74561,3.79981,10.52129,10.52129,0,0,1-5.228,1.18554,10.91644,10.91644,0,0,1-8.66406-4.16308,15.99055,15.99055,0,0,1-3.5166-10.68555q0-7.51758,3.46289-11.83008a11.26643,11.26643,0,0,1,9.25684-4.31152A9.476,9.476,0,0,1,89.64746,194.459Zm1.88672,20.92579a10.71613,10.71613,0,0,0,1.69727-6.2793q0-5.38915-2.72168-7.707a5.86117,5.86117,0,0,0-3.88038-1.40137,5.39259,5.39259,0,0,0-4.94482,2.54688,13.72844,13.72844,0,0,0,.02686,12.82714,5.423,5.423,0,0,0,4.86425,2.43848A5.67,5.67,0,0,0,91.53418,215.38477Z"/><path d="M131.47021,195.67188q2.88429,2.38476,2.88477,7.90917v19.78028h-7.86914V205.49414a8.203,8.203,0,0,0-.61523-3.55664q-1.12428-2.26319-4.27979-2.26367a5.30483,5.30483,0,0,0-5.32373,3.31445,11.45942,11.45942,0,0,0-.749,4.47363v15.89942h-7.68018V194.042h7.4375v4.28418a13.02515,13.02515,0,0,1,2.791-3.26074,9.66927,9.66927,0,0,1,5.98388-1.77832A11.26031,11.26031,0,0,1,131.47021,195.67188Z"/><path d="M168.7832,206.168q-3.48779,2.91064-9.96191,2.91113h-8.27051v14.28223h-8.24609V183.63965h17.05517q5.8982,0,9.40479,3.07226,3.50684,3.07179,3.50635,9.5127Q172.271,203.25733,168.7832,206.168Zm-6.335-14.30957a6.68767,6.68767,0,0,0-4.41748-1.32031h-7.48V202.2334h7.48a6.34533,6.34533,0,0,0,4.41748-1.42774,5.82991,5.82991,0,0,0,1.57666-4.52734Q164.0249,193.18017,162.44824,191.8584Z"/><path d="M175.28955,199.72754v-5.4707h4.09619v-8.19239h7.59961v8.19239h4.76953v5.4707h-4.76953V215.25a3.49208,3.49208,0,0,0,.458,2.25q.45777.44532,2.80273.44434.34937,0,.74073-.0127.39038-.01318.76806-.041v5.74024l-3.63769.13476q-5.4441.1875-7.438-1.88671a5.61547,5.61547,0,0,1-1.29346-4.06934v-18.082Z"/><path d="M214.25635,204.52441a6.8034,6.8034,0,0,0-1.10742-2.96386,4.64687,4.64687,0,0,0-4.02491-1.7793,5.29951,5.29951,0,0,0-5.32177,3.85352,15.99545,15.99545,0,0,0-.75635,5.42968,14.7047,14.7047,0,0,0,.75635,5.18848,5.13651,5.13651,0,0,0,5.18652,3.665,4.57874,4.57874,0,0,0,3.83594-1.45508,7.23488,7.23488,0,0,0,1.37793-3.77344h7.84179a12.84781,12.84781,0,0,1-2.53564,6.62989q-3.61524,5.03905-10.709,5.03906-7.095,0-10.43945-4.2041-3.345-4.20411-3.34473-10.90137,0-7.55713,3.69483-11.76172,3.6958-4.20409,10.19726-4.2041a15.35987,15.35987,0,0,1,9.04981,2.47949q3.52,2.47852,4.168,8.75781Z"/><path d="M251.24316,183.63965h8.62354l-13.54248,39.72168h-7.84131l-13.43359-39.72168h8.86621l8.62353,30.15527Z"/><path d="M271.11768,190.48438h-7.78809v-7.0879h7.78809Zm-7.78809,3.50292h7.78809v29.374h-7.78809Z"/><path d="M297.69629,194.583a11.94938,11.94938,0,0,1,5.07568,4.34472,14.45274,14.45274,0,0,1,2.34131,6.07325,37.61891,37.61891,0,0,1,.252,5.8291H283.97217q.17871,4.42089,3.07129,6.19824a7.79735,7.79735,0,0,0,4.23486,1.10547,5.96453,5.96453,0,0,0,5.84522-3.36914h7.8413a9.59046,9.59046,0,0,1-2.84765,5.30859q-3.94629,4.28467-11.05078,4.28516a16.01213,16.01213,0,0,1-10.3462-3.61426q-4.48242-3.61377-4.48242-11.75976,0-7.63185,4.04639-11.70508a14.16227,14.16227,0,0,1,10.50391-4.07325A16.718,16.718,0,0,1,297.69629,194.583Zm-11.48975,6.63476a7.97744,7.97744,0,0,0-2.0459,4.5459h13.23145a6.4063,6.4063,0,0,0-2.0459-4.64062,6.73072,6.73072,0,0,0-4.55517-1.584A6.08967,6.08967,0,0,0,286.20654,201.21777Z"/><path d="M323.10059,193.9873h7.78808l4.47363,21.15528,4.58106-21.15528h8.00391l-8.51563,29.374h-7.89648l-4.60743-21.39649-4.66211,21.39649h-7.97753l-8.2461-29.374h8.2461l4.582,21.07422Z"/><path d="M371.31836,194.583a11.94783,11.94783,0,0,1,5.07617,4.34472,14.44569,14.44569,0,0,1,2.34082,6.07325,37.59449,37.59449,0,0,1,.25293,5.8291H357.59473q.17871,4.42089,3.07129,6.19824a7.79679,7.79679,0,0,0,4.23437,1.10547,5.96618,5.96618,0,0,0,5.8457-3.36914h7.84082a9.582,9.582,0,0,1-2.84668,5.30859q-3.94774,4.28467-11.05078,4.28516a16.0134,16.0134,0,0,1-10.34668-3.61426q-4.48242-3.61377-4.48242-11.75976,0-7.63185,4.04688-11.70508a14.16071,14.16071,0,0,1,10.5039-4.07325A16.715,16.715,0,0,1,371.31836,194.583Zm-11.48926,6.63476a7.97111,7.97111,0,0,0-2.0459,4.5459h13.23145a6.4063,6.4063,0,0,0-2.0459-4.64062,6.7312,6.7312,0,0,0-4.55469-1.584A6.09008,6.09008,0,0,0,359.8291,201.21777Z"/><path d="M399.18945,193.30078q.148.01318.66016.04V201.21q-.728-.08057-1.29395-.1084-.56542-.02637-.916-.02636-4.63478,0-6.22461,3.01855a11.73975,11.73975,0,0,0-.88965,5.22754v14.04H382.791v-29.374h7.33007v5.12012a16.22065,16.22065,0,0,1,3.09961-4.01465,8.43069,8.43069,0,0,1,5.6045-1.80566C398.96875,193.28711,399.09082,193.292,399.18945,193.30078Z"/><path d="M404.835,183.63965h8.70117l15.76758,27.69726V183.63965h7.73438v39.72168h-8.29883l-16.16992-28.18457v28.18457H404.835Z"/><path d="M468.70215,219.76758q-3.71923,4.59081-11.291,4.59082-7.57324,0-11.292-4.59082a18.22371,18.22371,0,0,1,0-22.06446q3.71924-4.65819,11.292-4.6582,7.57177,0,11.291,4.6582a18.22371,18.22371,0,0,1,0,22.06446Zm-6.14453-4.24414q1.80615-2.395,1.80566-6.8086,0-4.41357-1.80566-6.79394a6.82506,6.82506,0,0,0-10.36133,0q-1.81933,2.38037-1.81934,6.79394t1.81934,6.8086a6.80155,6.80155,0,0,0,10.36133,0Z"/><path d="M493.49512,194.459a9.33381,9.33381,0,0,1,3.36816,3.24707V183.69336h7.78809v39.668H497.1875V219.292a10.8321,10.8321,0,0,1-3.74609,3.79981,10.52325,10.52325,0,0,1-5.22852,1.18554,10.91321,10.91321,0,0,1-8.66309-4.16308,15.98857,15.98857,0,0,1-3.51757-10.68555q0-7.51758,3.46289-11.83008a11.26772,11.26772,0,0,1,9.25683-4.31152A9.47664,9.47664,0,0,1,493.49512,194.459Zm1.88672,20.92579a10.7162,10.7162,0,0,0,1.69726-6.2793q0-5.38915-2.72168-7.707a5.8615,5.8615,0,0,0-3.88086-1.40137,5.39282,5.39282,0,0,0-4.94433,2.54688,13.72658,13.72658,0,0,0,.02636,12.82714,5.42465,5.42465,0,0,0,4.86426,2.43848A5.67026,5.67026,0,0,0,495.38184,215.38477Z"/><path d="M530.77148,194.583a11.94779,11.94779,0,0,1,5.07618,4.34472,14.446,14.446,0,0,1,2.34082,6.07325,37.597,37.597,0,0,1,.25293,5.8291H517.04785q.17871,4.42089,3.07129,6.19824a7.7968,7.7968,0,0,0,4.23438,1.10547,5.96621,5.96621,0,0,0,5.8457-3.36914H538.04a9.5821,9.5821,0,0,1-2.84668,5.30859q-3.94776,4.28467-11.05078,4.28516a16.0134,16.0134,0,0,1-10.34668-3.61426q-4.48242-3.61377-4.48242-11.75976,0-7.63185,4.04687-11.70508a14.16074,14.16074,0,0,1,10.50391-4.07325A16.715,16.715,0,0,1,530.77148,194.583Zm-11.48925,6.63476a7.97111,7.97111,0,0,0-2.0459,4.5459h13.23144a6.40633,6.40633,0,0,0-2.04589-4.64062,6.73121,6.73121,0,0,0-4.55469-1.584A6.09008,6.09008,0,0,0,519.28223,201.21777Z"/></svg>