<svg id="ARTWORK" xmlns="http://www.w3.org/2000/svg" viewBox="0 0 584 134.75"><defs><style>.cls-1{fill:#e94740;}</style></defs><title>dneg-logo</title><path class="cls-1" d="M285.78,49l.09,129.4H260.23L201.48,90.16v88.25H178.33V49h13a23.26,23.26,0,0,1,19.4,10.42l51.85,78.36V49Zm73.68,129.28h76.79v-22.9H369.92v-30h54.46V101.57H369.92V71h66.33V49H345.13V164A14.33,14.33,0,0,0,359.46,178.29ZM56.53,46.42c-23.73-.25-44.19,12-44.19,12V131.9L35.4,111.41V74.46S43.13,70,55.05,70c24.65,0,44.7,19.57,44.7,43.64a43,43,0,0,1-44.46,43.18,44,44,0,0,1-16.92-4.13l-19.11,17A67.29,67.29,0,1,0,56.53,46.42ZM552.15,181.17c23.72.24,44.19-12,44.19-12V103.88l-23.07,20.49v28.76s-7.73,4.43-19.65,4.43c-24.65,0-44.7-19.58-44.7-43.64a43,43,0,0,1,44.46-43.19,44.14,44.14,0,0,1,16.92,4.13l19.12-17a67.29,67.29,0,1,0-37.27,123.33Z" transform="translate(-12.34 -46.42)"/></svg>