<svg xmlns="http://www.w3.org/2000/svg" viewBox="0 0 217.29 124.19"><defs><style>.cls-1{fill:#000119;}.cls-2{fill:#777677;}</style></defs><title>DY-CSWA-Light BG-4</title><g id="Layer_2" data-name="Layer 2"><g id="Layer_1-2" data-name="Layer 1"><path class="cls-1" d="M109.65,19.2a1.08,1.08,0,1,0,.67,2.06A1.07,1.07,0,0,0,111,19.9a1.08,1.08,0,0,0-1.36-.7"/><path class="cls-1" d="M108.65,0a25,25,0,1,0,25,25,25,25,0,0,0-25-25m14.49,9.88a1,1,0,0,1-.27.45c-.46.53-5.42,6-7.27,8,.8,2.07.8,5.61.51,9.06-.4,4.84-1,6.79-3.66,8.27s-9.87,1.69-13.49.8-4.07-4.51-4.41-4.66c-1.42-.61-1.24-2.83-1.24-2.83,1-.05,2,1.19,2,1.19a4.93,4.93,0,0,1,1.59-1.24c.54,1.94-.6,2.58-.5,2.83a3,3,0,0,0,4.27,1.19c2.43-1.24,2.53-4.61,2.67-8.78s1.24-7.48,4.81-8.28a8.62,8.62,0,0,1,5.63.51c2.47-1.82,8.09-5.83,8.59-6.18a3.3,3.3,0,0,1,.52-.31h.26a0,0,0,0,1,0,0Z"/><path class="cls-1" d="M106.79,28.21a15.21,15.21,0,0,0-1.53,3.37c-.42,1-1.16,1.44-1.7,2.25s1,.94,1.41.94a3.62,3.62,0,0,0,2.88-1.36c.86-1.16,1-2.3,1.55-3.53a13.13,13.13,0,0,0,1.35-2.54c.11-1.12-2.79-.78-4,.87"/><path class="cls-1" d="M0,70.65H9.64C17.8,70.65,23,76.32,23,84.32S17.8,98,9.64,98H0ZM3.46,74V94.69H9.6c6.11,0,9.81-4.38,9.81-10.37S15.71,74,9.6,74Z"/><path class="cls-1" d="M42.68,70.25a14.07,14.07,0,0,1,0,28.13,14.07,14.07,0,1,1,0-28.13m0,24.72A10.65,10.65,0,1,0,32.23,84.32,10.38,10.38,0,0,0,42.68,95"/><path class="cls-1" d="M83.51,96.5a14.3,14.3,0,0,1-7.2,1.88,14.07,14.07,0,0,1,0-28.13,14.3,14.3,0,0,1,7.2,1.89V76.2a11,11,0,0,0-7.2-2.53,10.65,10.65,0,0,0,0,21.3,11.18,11.18,0,0,0,7.2-2.49Z"/><polygon class="cls-1" points="91.84 70.66 95.29 70.66 95.29 84.04 105.5 70.66 109.64 70.66 101.2 81.83 110.04 97.98 105.94 97.98 98.79 84.72 95.29 89.1 95.29 97.98 91.84 97.98 91.84 70.66"/><polygon class="cls-1" points="123.97 85.89 114.93 70.66 118.87 70.66 125.7 82.43 132.57 70.66 136.55 70.66 127.42 85.93 127.42 97.98 123.97 97.98 123.97 85.89"/><path class="cls-1" d="M155.15,90.35H144.1L141.32,98h-3.89l10.28-27.33h3.9L161.9,98H158ZM145.26,87H154L149.64,75.2Z"/><path class="cls-1" d="M168.45,70.65h8.07c5.11,0,8.6,2.86,8.6,7.68a6.84,6.84,0,0,1-5.62,7c3.25,1.53,6.07,6.19,7.07,12.66H183c-1.24-6.79-4.66-11.41-8.24-11.41H171.9V98h-3.45Zm8.07,3.3H171.9v9.32h4.62c2.86,0,5-1.64,5-4.62s-2.17-4.7-5-4.7"/><path class="cls-1" d="M194.31,70.65H204c8.16,0,13.34,5.67,13.34,13.67S212.11,98,204,98h-9.64Zm3.45,3.3V94.69h6.15c6.11,0,9.81-4.38,9.81-10.37S210,74,203.91,74Z"/><path class="cls-2" d="M0,115.92c0-3.54,1.6-5.54,4.27-5.54a3.74,3.74,0,0,1,3.64,2.32l-1,.62a2.68,2.68,0,0,0-2.61-1.81c-1.82,0-2.9,1.45-2.9,3.62v1.58c0,2.17,1.08,3.49,2.9,3.49A2.75,2.75,0,0,0,7,118.29l1,.63a3.91,3.91,0,0,1-3.72,2.42C1.62,121.34,0,119.45,0,115.92Z"/><path class="cls-2" d="M14.69,119.88h-.07a2.17,2.17,0,0,1-2.2,1.46c-1.61,0-2.64-1.1-2.64-3v-5H11v4.81c0,1.4.62,2.11,1.79,2.11,1,0,1.9-.47,1.9-1.5v-5.42H15.9v7.83H14.69Z"/><path class="cls-2" d="M17.73,119.8l.87-.7a2.85,2.85,0,0,0,2.32,1.2c1,0,1.64-.47,1.64-1.27,0-.61-.33-1.08-1.36-1.23l-.63-.09c-1.44-.21-2.52-.81-2.52-2.26s1.2-2.31,2.8-2.31a3.26,3.26,0,0,1,2.73,1.26l-.8.73a2.41,2.41,0,0,0-2-1c-1,0-1.54.47-1.54,1.22s.53,1.06,1.51,1.21l.6.09c1.73.26,2.4,1,2.4,2.2,0,1.52-1.11,2.45-2.9,2.45A3.65,3.65,0,0,1,17.73,119.8Z"/><path class="cls-2" d="M27.6,121.15a1.2,1.2,0,0,1-1.29-1.29v-5.48H25v-1.06h.73c.52,0,.68-.18.68-.71v-1.46h1.1v2.17h1.71v1.06H27.53v5.71h1.59v1.06Z"/><path class="cls-2" d="M30.62,117.24c0-2.49,1.44-4.1,3.54-4.1s3.54,1.61,3.54,4.1-1.45,4.1-3.54,4.1S30.62,119.73,30.62,117.24Zm5.77.56v-1.12a2.24,2.24,0,1,0-4.46,0v1.12a2.24,2.24,0,1,0,4.46,0Z"/><path class="cls-2" d="M39.7,121.15v-7.83h1.21v1.28H41a2.11,2.11,0,0,1,2.11-1.46,2.4,2.4,0,0,1,2.4,1.59h0a2.35,2.35,0,0,1,2.39-1.59c1.59,0,2.55,1.09,2.55,3v5H49.23v-4.81c0-1.38-.53-2.11-1.71-2.11-1,0-1.84.49-1.84,1.49v5.43H44.47v-4.81c0-1.4-.54-2.11-1.69-2.11-1,0-1.87.49-1.87,1.49v5.43Z"/><path class="cls-2" d="M55.88,119.48l.94-.79a3.37,3.37,0,0,0,2.86,1.52c1.51,0,2.33-.79,2.33-2,0-1-.56-1.5-1.95-1.82l-.87-.2c-1.93-.44-3-1.29-3-2.92,0-1.88,1.43-2.89,3.51-2.89a4,4,0,0,1,3.5,1.73l-1,.69a3,3,0,0,0-2.62-1.3c-1.35,0-2.18.59-2.18,1.73s.65,1.46,2,1.76l.86.2c2.07.47,3,1.38,3,3,0,1.94-1.36,3.19-3.64,3.19A4.38,4.38,0,0,1,55.88,119.48Z"/><path class="cls-2" d="M64.77,117.24c0-2.49,1.45-4.1,3.54-4.1s3.54,1.61,3.54,4.1-1.44,4.1-3.54,4.1S64.77,119.73,64.77,117.24Zm5.77.56v-1.12a2.24,2.24,0,1,0-4.46,0v1.12a2.24,2.24,0,1,0,4.46,0Z"/><path class="cls-2" d="M74.28,114.38H73v-1.06h1.28v-1.58A1.61,1.61,0,0,1,76,109.92h1.19V111H75.49v2.34h1.69v1.06H75.49v6.77H74.28Z"/><path class="cls-2" d="M80.5,121.15a1.2,1.2,0,0,1-1.29-1.29v-5.48H77.92v-1.06h.73c.51,0,.68-.18.68-.71v-1.46h1.09v2.17h1.72v1.06H80.42v5.71H82v1.06Z"/><path class="cls-2" d="M83.28,113.32h1.18l.84,3.39.83,3.43h0l1-3.43,1-3.39h1.07l1,3.39,1,3.43h0l.81-3.43.85-3.39H94l-2.08,7.83H90.41l-1.09-3.76L88.64,115h0l-.67,2.38-1.09,3.76H85.37Z"/><path class="cls-2" d="M101.45,121.15a1.26,1.26,0,0,1-1.35-1.27H100a2.21,2.21,0,0,1-2.26,1.46c-1.66,0-2.63-.91-2.63-2.37s1.06-2.29,3.34-2.29H100v-.78c0-1.11-.61-1.71-1.85-1.71a2.18,2.18,0,0,0-2,1.16l-.73-.68a3,3,0,0,1,2.78-1.53c1.88,0,3,1,3,2.64v4.31h.89v1.06ZM100,118.88v-1.29H98.41c-1.38,0-2,.42-2,1.18v.32c0,.77.61,1.21,1.55,1.21C99.16,120.3,100,119.68,100,118.88Z"/><path class="cls-2" d="M103.86,121.15v-7.83h1.21v1.44h.08a2.25,2.25,0,0,1,2.26-1.44h.47v1.22h-.71c-1.31,0-2.1.56-2.1,1.3v5.31Z"/><path class="cls-2" d="M108.85,117.24c0-2.49,1.4-4.1,3.53-4.1s3.38,1.61,3.38,3.82v.58h-5.63v.37a2.21,2.21,0,0,0,2.32,2.36,2.27,2.27,0,0,0,2.16-1.35l.86.63a3.28,3.28,0,0,1-3.09,1.79C110.25,121.34,108.85,119.73,108.85,117.24Zm1.28-.72v.11h4.33v-.17a2.08,2.08,0,0,0-2.08-2.3A2.23,2.23,0,0,0,110.13,116.52Z"/><path class="cls-2" d="M127,121.15a1.26,1.26,0,0,1-1.35-1.27h-.08a2.21,2.21,0,0,1-2.26,1.46c-1.66,0-2.63-.91-2.63-2.37s1.07-2.29,3.34-2.29h1.55v-.78c0-1.11-.61-1.71-1.85-1.71a2.19,2.19,0,0,0-2,1.16l-.73-.68a3,3,0,0,1,2.78-1.53c1.88,0,3,1,3,2.64v4.31h.89v1.06Zm-1.43-2.27v-1.29H124c-1.38,0-2,.42-2,1.18v.32c0,.77.61,1.21,1.55,1.21C124.75,120.3,125.61,119.68,125.61,118.88Z"/><path class="cls-2" d="M129.45,121.15v-7.83h1.22v1.28h.06a2.21,2.21,0,0,1,2.21-1.46c1.61,0,2.63,1.09,2.63,3v5h-1.21v-4.81c0-1.4-.61-2.11-1.78-2.11-1,0-1.91.49-1.91,1.49v5.43Z"/><path class="cls-2" d="M143.08,119.88H143a2.36,2.36,0,0,1-2.29,1.46c-2,0-3.19-1.6-3.19-4.1s1.23-4.1,3.19-4.1A2.28,2.28,0,0,1,143,114.6h.06v-4.68h1.22v11.23h-1.22Zm0-1.23v-2.92c0-.86-.91-1.5-2-1.5a2.14,2.14,0,0,0-2.21,2.34v1.34a2.13,2.13,0,0,0,2.21,2.33C142.17,120.24,143.08,119.67,143.08,118.65Z"/><path class="cls-2" d="M152.05,121.15l-2.58-10.59h1.35l1.14,5.1.88,4h0l1-4,1.34-5.1h1.45l1.29,5.1,1,4h0l.91-4,1.2-5.1h1.3l-2.72,10.59h-1.41l-1.38-5.28-1-3.89h0l-1,3.89-1.41,5.28Z"/><path class="cls-2" d="M163.41,117.24c0-2.49,1.39-4.1,3.52-4.1s3.39,1.61,3.39,3.82v.58h-5.64v.37a2.21,2.21,0,0,0,2.32,2.36,2.27,2.27,0,0,0,2.16-1.35l.87.63a3.3,3.3,0,0,1-3.1,1.79C164.8,121.34,163.41,119.73,163.41,117.24Zm1.27-.72v.11H169v-.17a2.08,2.08,0,0,0-2.08-2.3A2.23,2.23,0,0,0,164.68,116.52Z"/><path class="cls-2" d="M172.32,109.92h1.21v4.68h.06a2.29,2.29,0,0,1,2.29-1.46c2,0,3.19,1.59,3.19,4.1s-1.23,4.1-3.19,4.1a2.37,2.37,0,0,1-2.29-1.46h-.06v1.27h-1.21Zm5.45,8v-1.34a2.14,2.14,0,0,0-2.22-2.34c-1.11,0-2,.64-2,1.5v2.92c0,1,.91,1.59,2,1.59A2.14,2.14,0,0,0,177.77,117.91Z"/><path class="cls-2" d="M191.46,121.15,190.4,118h-4.29l-1.06,3.12h-1.29l3.71-10.59h1.62l3.7,10.59Zm-3.17-9.41h-.08l-1.79,5.16h3.66Z"/><path class="cls-2" d="M194.43,113.32h1.22v1.28h.06a2.28,2.28,0,0,1,2.29-1.46c2,0,3.19,1.59,3.19,4.1s-1.23,4.1-3.19,4.1a2.36,2.36,0,0,1-2.29-1.46h-.06v4.31h-1.22Zm5.45,4.59v-1.34a2.14,2.14,0,0,0-2.21-2.34c-1.11,0-2,.64-2,1.5v2.92c0,1,.91,1.59,2,1.59A2.13,2.13,0,0,0,199.88,117.91Z"/><path class="cls-2" d="M203.24,113.32h1.21v1.28h.06a2.29,2.29,0,0,1,2.29-1.46c2,0,3.19,1.59,3.19,4.1s-1.23,4.1-3.19,4.1a2.37,2.37,0,0,1-2.29-1.46h-.06v4.31h-1.21Zm5.45,4.59v-1.34a2.14,2.14,0,0,0-2.22-2.34c-1.11,0-2,.64-2,1.5v2.92c0,1,.91,1.59,2,1.59A2.14,2.14,0,0,0,208.69,117.91Z"/><path class="cls-2" d="M211.3,119.8l.86-.7a2.85,2.85,0,0,0,2.32,1.2c1,0,1.64-.47,1.64-1.27,0-.61-.33-1.08-1.36-1.23l-.63-.09c-1.44-.21-2.52-.81-2.52-2.26s1.2-2.31,2.8-2.31a3.26,3.26,0,0,1,2.73,1.26l-.8.73a2.41,2.41,0,0,0-2-1c-1,0-1.54.47-1.54,1.22s.53,1.06,1.51,1.21l.6.09c1.73.26,2.4,1,2.4,2.2,0,1.52-1.11,2.45-2.9,2.45A3.61,3.61,0,0,1,211.3,119.8Z"/></g></g></svg>