<?xml version="1.0" encoding="UTF-8" standalone="no"?>
<svg
   xmlns:dc="http://purl.org/dc/elements/1.1/"
   xmlns:cc="http://creativecommons.org/ns#"
   xmlns:rdf="http://www.w3.org/1999/02/22-rdf-syntax-ns#"
   xmlns:svg="http://www.w3.org/2000/svg"
   xmlns="http://www.w3.org/2000/svg"
   viewBox="0 0 803.81335 301.46667"
   height="301.46667"
   width="803.81335"
   xml:space="preserve"
   id="svg2"
   version="1.1"><metadata
     id="metadata8"><rdf:RDF><cc:Work
         rdf:about=""><dc:format>image/svg+xml</dc:format><dc:type
           rdf:resource="http://purl.org/dc/dcmitype/StillImage" /></cc:Work></rdf:RDF></metadata><defs
     id="defs6" /><g
     transform="matrix(1.3333333,0,0,-1.3333333,0,301.46667)"
     id="g10"><g
       transform="scale(0.1)"
       id="g12"><path
         id="path14"
         style="fill:#232628;fill-opacity:1;fill-rule:nonzero;stroke:none"
         d="m 5093.33,564.57 c 199.07,-2.082 370.73,101.032 370.73,101.032 V 1212.99 L 5270.55,1041.06 V 799.789 c 0,0 -64.82,-37.168 -164.85,-37.168 -206.78,0 -375.03,164.238 -375.03,366.129 0,200.04 162.95,369.14 373.01,362.3 62.07,-2.03 104.47,-18.78 141.98,-34.65 l 160.36,142.8 c -89.52,59.67 -197.05,94.44 -312.69,94.44 -311.78,0 -564.53,-252.75 -564.53,-564.54 0,-311.78 252.75,-564.53 564.53,-564.53 z M 935.27,1695.04 C 736.199,1697.12 564.535,1594.01 564.535,1594.01 V 977.879 l 193.52,171.941 v 310 c 0,0 64.812,37.17 164.84,37.17 206.795,0 375.025,-164.24 375.025,-366.13 0,-200.051 -162.94,-369.149 -372.998,-362.301 -62.07,2.031 -104.473,18.773 -141.988,34.64 L 622.586,660.398 c 89.519,-59.66 197.039,-94.429 312.684,-94.429 311.78,0 564.53,252.75 564.53,564.531 0,311.79 -252.75,564.54 -564.53,564.54 z M 3476.8,588.672 h 644.24 v 192.156 h -556.55 v 251.982 h 456.94 v 199.51 h -456.94 v 256.43 h 556.55 v 184.57 H 3356.58 V 708.891 c 0,-66.391 53.83,-120.219 120.22,-120.219 z m -618.21,1084.648 0.79,-1085.629 h -215.1 L 2151.41,1328.04 V 587.691 H 1957.18 V 1673.32 h 108.92 c 65.48,0 126.59,-32.85 162.73,-87.45 l 435.01,-657.358 v 744.808 h 194.75" /></g></g></svg>