<svg xmlns="http://www.w3.org/2000/svg" role="img" viewBox="-11.67 -11.67 606.84 157.84"><path fill="#e94740" d="M273.44 2.58l.09 129.4h-25.64l-58.75-88.24v88.25h-23.15V2.58h13A23.26 23.26 0 0 1 198.39 13l51.85 78.36V2.58zm73.68 129.28h76.79v-22.9h-66.33v-30h54.46V55.15h-54.46V24.58h66.33v-22h-91.12v115a14.33 14.33 0 0 0 14.33 14.29zM44.19 0C20.46-.25 0 12 0 12v73.48l23.06-20.49V28.04s7.73-4.46 19.65-4.46c24.65 0 44.7 19.57 44.7 43.64a43 43 0 0 1-44.46 43.18 44 44 0 0 1-16.92-4.13l-19.11 17A67.29 67.29 0 1 0 44.19 0zm495.62 134.75c23.72.24 44.19-12 44.19-12V57.46l-23.07 20.49v28.76s-7.73 4.43-19.65 4.43c-24.65 0-44.7-19.58-44.7-43.64a43 43 0 0 1 44.46-43.19 44.14 44.14 0 0 1 16.92 4.13l19.12-17a67.29 67.29 0 1 0-37.27 123.33z"/></svg>