<?xml version="1.0" encoding="UTF-8" standalone="no"?>
<svg
   xmlns:dc="http://purl.org/dc/elements/1.1/"
   xmlns:cc="http://creativecommons.org/ns#"
   xmlns:rdf="http://www.w3.org/1999/02/22-rdf-syntax-ns#"
   xmlns:svg="http://www.w3.org/2000/svg"
   xmlns="http://www.w3.org/2000/svg"
   id="svg4563"
   version="1.1"
   viewBox="0 0 66.145836 38.907845"
   height="38.907845mm"
   width="66.145836mm">
  <defs
     id="defs4557" />
  <metadata
     id="metadata4560">
    <rdf:RDF>
      <cc:Work
         rdf:about="">
        <dc:format>image/svg+xml</dc:format>
        <dc:type
           rdf:resource="http://purl.org/dc/dcmitype/StillImage" />
        <dc:title></dc:title>
      </cc:Work>
    </rdf:RDF>
  </metadata>
  <g
     transform="translate(115.47173,-130.13536)"
     id="layer1">
    <g
       transform="matrix(0.2079077,0,0,0.2079077,-115.47381,130.13744)"
       id="g4540">
      <path
         style="fill:#092e6e"
         class="dreamworks-path-a"
         d="m 156.44,100.72 v 0 c -0.2,-0.57 -0.88,-2.14 -1.48,-3.53 -0.24,1.33 -0.91,5 -0.91,5.93 a 2.59,2.59 0 0 1 0,0.35 c -0.1,0.75 -0.84,0.82 -1.42,0.94 -0.27,0.06 -0.86,0.09 -1.13,0.12 h -0.05 c -0.16,0.36 -0.31,0.73 -0.44,1.11 -0.65,1.89 -1.61,3.84 -0.93,5.75 a 63,63 0 0 1 8.57,-5.61 26,26 0 0 1 -1.27,-2.63 c -0.33,-0.8 -0.63,-1.61 -0.91,-2.42"
         id="path6" />
      <path
         style="fill:#092e6e"
         class="dreamworks-path-a"
         d="m 131.36,71.44 a 78.13,78.13 0 0 1 6.35,9.5 v -0.08 a 0.67,0.67 0 0 1 0.43,-0.56 0.44,0.44 0 0 1 0.48,0.25 c 0.15,0.24 0.26,0.49 0.43,0.71 a 1.71,1.71 0 0 0 0.75,0.69 c 0.32,0.11 0.74,0.22 1.07,0.32 l 0.87,0.26 a 3,3 0 0 1 1.49,0.86 9.5,9.5 0 0 0 0.65,0.82 5.4,5.4 0 0 0 1,0.7 11.14,11.14 0 0 0 5.53,1.34 4.72,4.72 0 0 1 4.44,-2.5 4.9,4.9 0 0 1 3.54,1.73 14.59,14.59 0 0 0 7.48,-4.37 c 0.31,-0.31 0.73,-0.76 1.23,-1.2 L 166,78.45 c -0.62,0 -1.11,0 -1.73,0 a 3.93,3.93 0 0 1 -1.55,-0.32 1.44,1.44 0 0 1 -0.85,-1 c 0,-0.25 0,-0.51 0,-0.75 0,-0.24 -0.41,-0.32 -0.53,-0.49 a 0.52,0.52 0 0 1 0,-0.52 c 0,0 0.18,-0.24 0.21,-0.22 l -0.07,-0.06 c -0.21,-0.16 -0.44,-0.31 -0.36,-0.62 0.08,-0.31 0.46,-0.34 0.26,-0.65 a 1.57,1.57 0 0 0 -0.28,-0.29 1.38,1.38 0 0 1 -0.61,-0.79 c 0,-0.51 0.86,-1.09 1.33,-1.54 a 1.16,1.16 0 0 0 0.42,-1 14,14 0 0 1 -0.24,-1.4 c 0,-0.24 0,-0.49 0,-0.74 a 1.54,1.54 0 0 1 -1.15,0.66 2.63,2.63 0 0 0 0.59,-2.12 2.53,2.53 0 0 1 0.87,-1.87 c -0.8,-0.41 -1.24,0.49 -1.27,0.47 a 2.19,2.19 0 0 1 2.49,-2.13 2.29,2.29 0 0 1 -1.07,-1.85 2.26,2.26 0 0 0 1,0.74 5.41,5.41 0 0 0 1.4,0.28 5.93,5.93 0 0 0 1.43,-0.15 c 0.64,-0.12 1.27,-0.26 1.91,-0.39 a 6.07,6.07 0 0 1 5.56,0.77 1.4,1.4 0 0 1 -0.27,-1.18 c 0.14,0.39 0.43,0.55 0.75,0.91 a 26.27,26.27 0 0 0 2.35,1.71 4.38,4.38 0 0 1 1.21,2 1.55,1.55 0 0 1 1.79,1.09 c -1,-0.63 -0.84,1.28 -0.83,1.72 a 10.06,10.06 0 0 1 -0.17,2.53 7.22,7.22 0 0 1 -3.5,4.49 2.22,2.22 0 0 0 -1,0.87 0.54,0.54 0 0 0 0,0.31 2.46,2.46 0 0 1 0.57,-0.22 c 0.44,-0.12 1.57,-0.39 1.73,0.27 a 7.56,7.56 0 0 0 0.4,1.41 c 0.12,0.15 0.47,0.43 0.81,0.84 a 8.89,8.89 0 0 1 0.59,0.68 12.31,12.31 0 0 1 1.29,2 18.3,18.3 0 0 1 1.25,3.2 27.67,27.67 0 0 1 0.9,4.56 c 0.14,1.18 0.23,2.37 0.25,3.56 0,0.54 0,1.07 0,1.61 a 47.81,47.81 0 0 0 7.29,-10.67 52.89,52.89 0 0 0 5.34,-23.08 C 194.74,30.51 171.29,3.2 134.01,9.79 A 59,59 0 0 0 114.74,17 50.69,50.69 0 0 0 98.59,31.76 73.61,73.61 0 0 0 92.86,41.61 118.13,118.13 0 0 1 112.07,53 96.5,96.5 0 0 1 131.36,71.45"
         id="path8" />
      <path
         style="fill:#092e6e"
         class="dreamworks-path-a"
         d="m 142.3,88.63 h -0.8 q 0.44,1.05 0.85,2.12 a 0.78,0.78 0 0 1 0.32,-0.46 1.47,1.47 0 0 1 1.62,0.28 5.85,5.85 0 0 0 4.22,1.06 c 0.16,-0.58 0.31,-1.17 0.47,-1.75 -0.69,-0.2 -1.38,-0.41 -2.07,-0.64 a 13.82,13.82 0 0 0 -2.43,-0.66 11.77,11.77 0 0 0 -2.18,0"
         id="path10" />
      <path
         style="fill:#092e6e"
         class="dreamworks-path-a"
         d="m 159.11,147.09 a 73.55,73.55 0 1 0 -43,-133.19 c 0,0 0.13,0.1 0.46,-0.11 a 69,69 0 0 1 10.82,-5.45 q 1.68,-0.7 3.4,-1.31 a 68.81,68.81 0 0 1 34.84,-3.1 63.6,63.6 0 0 1 13.28,3.85 c 12.47,5.14 23.51,14.23 30,26.17 7.07,13.06 9.4,29.09 5.57,43.51 a 58.41,58.41 0 0 1 -12.34,23 65,65 0 0 1 -21.43,16.24 63.93,63.93 0 0 1 -26.84,6.12 23.17,23.17 0 0 0 -0.75,2.45 c -0.07,0.23 -0.09,0.47 -0.17,0.7 -0.23,0.62 -0.93,0.53 -1.48,0.52 -0.26,0 -0.7,-0.05 -1,-0.08 a 12,12 0 0 0 -1.68,2.51 v 0.09 c -0.7,1.52 -1.13,2.43 -0.62,3.71 a 3,3 0 0 1 0.17,1.42 1.81,1.81 0 0 1 -0.54,1.26 2.09,2.09 0 0 1 -1.37,0.3 7,7 0 0 0 -2.83,0.5 v 0 a 32.78,32.78 0 0 1 -3.33,1.58 4.17,4.17 0 0 1 -3.46,-0.05 c -0.18,-0.11 -0.34,-0.26 -0.53,-0.35 a 1.82,1.82 0 0 0 -0.54,-0.11 1.52,1.52 0 0 1 -1.31,-0.84 1.08,1.08 0 0 1 0.11,-0.9 c 0.17,-0.3 0.47,-0.31 0.79,-0.27 a 4.87,4.87 0 0 0 0.68,0.08 3.07,3.07 0 0 0 1.19,-0.26 7.13,7.13 0 0 0 2,-1.39 c 0.54,-0.5 1.25,-1.11 1.88,-1.64 0.63,-0.53 1,-0.85 1.3,-1.13 a 12.68,12.68 0 0 0 2.44,-3.12 18.72,18.72 0 0 0 1.07,-2.81 l -0.36,-0.24 c -0.44,-0.33 -1,-0.69 -0.84,-1.33 0.13,-0.39 0.31,-0.77 0.48,-1.15 -15.08,-2 -24,-8.67 -23.93,-8.66 a 58.4,58.4 0 0 0 15.24,1.49 1.21,1.21 0 0 1 -0.26,-0.36 1.25,1.25 0 0 1 -0.11,-0.59 0.76,0.76 0 0 1 0.25,-0.57 0.42,0.42 0 0 1 0.12,-0.07 0.63,0.63 0 0 1 0.3,0 6.83,6.83 0 0 0 1.43,0.07 7.17,7.17 0 0 0 1,-0.15 l 0.52,-0.13 0.83,-0.26 a 4,4 0 0 0 0.76,-0.4 9.75,9.75 0 0 0 1.73,-1.31 12.71,12.71 0 0 0 2.38,-2.71 c 0,-0.06 0.09,-0.18 0.13,-0.28 a 29,29 0 0 0 1.22,-4.39 l 0.17,-0.89 -0.09,-0.05 c -0.57,-0.36 -1.22,-0.86 -1,-1.67 0.17,-0.52 0.26,-0.55 0.45,-1.06 0.19,-0.51 0.44,-1.51 0.64,-2.29 l 0.7,-2.74 a 3.36,3.36 0 0 0 -1,0.25 c -0.8,0.35 -1.5,0.85 -2.29,1.23 0.19,0.68 0.38,1.37 0.55,2.06 a 1,1 0 0 1 -0.12,0.8 1.08,1.08 0 0 1 -0.67,0.49 h -0.25 v 0 a 1.08,1.08 0 0 1 -1,-0.81 c -0.21,-0.85 -0.45,-1.7 -0.7,-2.55 a 1.71,1.71 0 0 1 -0.31,-0.35 1.15,1.15 0 0 1 -1.24,-0.91 v 0 a 1.33,1.33 0 0 1 -0.85,-1.37 c -0.3,-0.05 -0.48,-0.35 -0.6,-0.65 -0.32,-0.8 0.4,-1.4 1,-1.64 a 1.4,1.4 0 0 1 0.3,-0.07 q -0.59,-1.56 -1.26,-3.1 c -0.83,-0.22 -0.91,-0.7 -0.9,-0.68 -0.74,0 -1,-0.86 -0.95,-0.9 -1,-0.08 -1,-1.33 -1,-1.33 a 0.88,0.88 0 0 1 -0.66,-0.94 c 0,-0.25 0.28,-0.46 0.62,-0.63 v 0 a 5.05,5.05 0 0 1 0.65,-0.26 75.44,75.44 0 0 0 -7.22,-11.15 99.28,99.28 0 0 0 -18.7,-18.33 100,100 0 0 0 -18.9,-11.31 73,73 0 0 0 -6.58,29.65 q 0,0.4 0,0.8 a 73.55,73.55 0 0 0 73.55,73.55"
         id="path12" />
      <path
         style="fill:#092e6e"
         class="dreamworks-path-a"
         d="m 167.19,90.67 a 33.54,33.54 0 0 1 -4.08,1.25 c 1.46,2 3,4 4.5,5.94 v 0 l 1,1.1 a 24.61,24.61 0 0 0 0.24,-2.75 9.53,9.53 0 0 0 -1.61,-5.49 v -0.05"
         id="path14" />
      <path
         style="fill:#092e6e"
         class="dreamworks-path-a"
         d="m 252,175.52 a 8.79,8.79 0 0 1 -3.72,0.54 h -0.7 v -7.45 c 0,-1.27 0.15,-1.6 2.23,-1.6 2.08,0 5,1.37 5,4.43 a 4.43,4.43 0 0 1 -2.78,4.08 m -29.69,9.63 c -5,0 -7.46,-5.06 -7.46,-9.27 0,-5.58 3.58,-9.31 7.48,-9.31 4.35,0 7.64,3.07 7.64,9.47 0,4.52 -3.3,9.12 -7.65,9.12 m -118.45,-6.79 3,-6.1 h 0.15 l 3.05,6.1 z M 61.51,175.6 a 8.39,8.39 0 0 1 -3.65,0.55 h -0.68 v -7.43 c 0,-1.29 0.15,-1.62 2.19,-1.62 2.04,0 4.87,1.27 4.87,4.37 a 4.49,4.49 0 0 1 -2.73,4.13 m -39.1,9.1 c -3.35,0 -4.89,-1 -4.89,-4.81 v -16.6 c 0,-1.08 0.07,-2.07 0.42,-2.16 a 10,10 0 0 1 3,-0.3 c 5.93,0 13.54,2.59 13.54,11.88 0,7.65 -6.07,12 -12.08,12 m 287.26,-11 -1.1,-0.32 c -3.25,-0.89 -5.15,-1.85 -5.15,-3.44 0,-1.59 1.8,-2.67 4.35,-2.67 a 7.06,7.06 0 0 1 6.8,4.26 l 2.2,-0.22 c -0.55,-2.17 -0.9,-3.73 -1.1,-5 -0.65,-0.13 -1.45,-0.25 -2.6,-0.44 a 27.13,27.13 0 0 0 -4.6,-0.38 c -7.85,0 -12,2.93 -12,6.53 0,3.41 4.6,5.1 8.75,6.28 l 0.75,0.22 c 3.1,0.83 5,1.94 5,3.82 0,2.07 -2,3 -4.63,3 a 10.4,10.4 0 0 1 -8.87,-5.28 l -2.2,0.42 c 0.45,1.59 0.92,2.94 1.3,4.14 l 0.19,0.62 -0.67,-0.15 a 10.42,10.42 0 0 1 -4.1,-2.48 c -3.1,-2.68 -6.35,-6 -9.41,-9 2.07,-1.56 4.53,-3.19 7.19,-4.84 2.66,-1.65 4.09,-1.67 6.9,-1.86 v -1.3 h -13.2 v 1.08 h 1.87 c 1.33,0.1 0.79,1 0.1,1.54 -2.86,2.42 -5.86,4.78 -9.46,7.39 v -5 c 0,-3.44 0.39,-3.77 3.64,-4 v -1.08 H 264.3 v 1.08 c 3.45,0.19 3.84,0.52 3.84,4 v 10.87 a 9.22,9.22 0 0 1 -0.27,2.76 c -0.32,0.83 -1.39,1 -2.16,0.86 a 4.79,4.79 0 0 1 -2.57,-1.68 c -0.76,-0.81 -1.52,-1.62 -2.3,-2.42 -1.43,-1.47 -3.27,-3.9 -4,-4.79 3.67,-0.93 6.4,-2.59 6.4,-5.39 0,-1.88 -1.49,-3.43 -3.47,-4.23 -1.98,-0.8 -4.51,-1 -8.38,-1 h -15.73 l 0.32,1.08 c 3.32,0.19 3.4,0.52 3.4,4 v 4.53 c -0.17,-6.2 -7.92,-10.38 -17.07,-10.38 -7.27,0 -11.45,2.16 -14.18,5 1.67,-3.27 2.78,-5.35 2.93,-5.6 2.35,-3.85 3,-3.8 6.85,-4.16 v -1.47 h -16.54 v 1.47 l 2.63,0.18 c 3,0.18 3.19,0.54 2.28,3 -0.91,2.46 -3.53,8.69 -6,13.8 l -0.14,-0.24 -10.52,-18.28 h -4.85 l -9.07,18.28 -0.14,0.24 -6.56,-14.47 c -0.83,-1.79 -0.62,-2 1.94,-2.26 l 2.22,-0.18 v -1.47 h -21.6 v 1.47 c 3.18,0.26 4.43,0.26 6.3,3.89 l 0.85,1.66 h -10.29 l -7.72,12.8 -8.83,-12.79 H 120 v 1.07 c 4,0.22 4.39,0.77 4,4.84 l -0.56,6.52 a 37,37 0 0 1 -0.81,5.65 c -0.09,0.34 -0.14,0.76 -0.44,0.82 -0.3,0.06 -1.11,-1.16 -1.77,-2.34 -1.84,-3.29 -3.93,-7.1 -6,-10.95 l -3.3,-6.1 -3.35,0.45 -9.7,16.69 -0.32,0.53 a 5.71,5.71 0 0 1 -1.13,1.22 c -1.08,0.78 -3.89,1 -5.86,1 a 12.17,12.17 0 0 1 -3.45,-0.29 c -0.89,-0.29 -1,-1.17 -1,-2.85 v -5.2 h 2.46 c 4.24,0 4.38,0.13 4.87,3 h 2.26 v -7.62 h -2.17 c -0.49,2.45 -0.64,2.58 -4.87,2.58 h -2.47 v -6.16 c 0,-1.13 0.1,-1.29 2,-1.29 h 0.84 c 2.61,0 4.23,0.19 5,0.74 a 5.65,5.65 0 0 1 1.77,3.12 l 2.17,-0.1 c -0.25,-2.42 -0.49,-4.78 -0.54,-5.33 h -23.3 v 1.07 c 3.3,0.19 3.69,0.61 3.69,4.09 v 10.66 c 0,2.46 -0.2,3.3 -1.65,3.64 a 3.16,3.16 0 0 1 -1.56,0 3.46,3.46 0 0 1 -1.12,-0.65 c -0.78,-0.65 -1.85,-1.74 -3.51,-3.46 -1.41,-1.48 -3.21,-3.71 -3.9,-4.62 3.61,-0.94 6.28,-2.62 6.28,-5.46 0,-1.91 -1.46,-3.36 -3.41,-4.17 -1.95,-0.81 -4.43,-1.1 -8.23,-1.1 H 45.06 a 15.21,15.21 0 0 0 -3.73,-3.21 c -4.68,-2.81 -11.8,-3.84 -20.39,-3.84 H 0.56 v 1.68 c 4.54,0.26 5.1,0.56 5.1,5.23 v 14.26 c 0,4.67 -0.56,5.2 -5.65,5.46 v 1.39 H 18 c 16.13,0 29.32,-4.57 29.32,-15.32 A 8.28,8.28 0 0 0 46,167 h 0.44 a 8.63,8.63 0 0 1 1.32,0.08 2.11,2.11 0 0 1 0.87,0.4 c 0.61,0.55 0.73,1.55 0.73,3.42 v 10.66 c 0,3.49 -0.39,3.85 -3.85,4 v 1.12 h 15.41 v -1.12 c -3.36,-0.2 -3.75,-0.56 -3.75,-4 v -3.88 h 0.63 a 2.38,2.38 0 0 1 2,1.16 c 1.73,2.56 3.56,5.49 6.43,6.9 a 13.66,13.66 0 0 0 6.18,1 h 32.17 v -1.12 h -1.4 c -2.23,-0.16 -2.28,-0.72 -1.6,-2.11 l 1.46,-3 h 8 l 1.75,3.23 c 0.63,1.16 0.53,1.72 -1.26,1.88 h -1.45 v 1.12 h 21.41 v -1.12 c -3.28,-0.16 -4.39,-0.59 -4.59,-1.78 a 23,23 0 0 1 -0.1,-5.33 l 0.35,-7.17 h 0.1 l 9.45,15.4 h 2.3 l 9.95,-16.53 h 0.2 l 0.15,11.37 c 0.05,3.59 -0.1,3.81 -3.88,4 v 1.12 h 15.79 v -1 c -3.63,-0.23 -3.73,-0.56 -3.88,-4.14 l -0.51,-10.82 c -0.13,-2.93 0,-3.6 2.52,-3.87 l 10.28,19.87 h 5.33 l 9.28,-17.46 h 0.14 l 10.18,17.46 h 5.33 c 2,-4.34 4,-8.12 5.67,-11.6 a 7.51,7.51 0 0 0 -0.06,0.91 c 0,5.86 6.62,11 16.84,11 9.6,0 16.91,-4.63 17.08,-11.32 v 5.9 c 0,3.44 -0.4,3.77 -3.92,4 v 1.14 h 16 v -1.14 c -3.42,-0.19 -3.82,-0.52 -3.82,-4 v -4.06 h 0.64 a 2.44,2.44 0 0 1 2.08,1.15 31.11,31.11 0 0 0 4,5.24 9.41,9.41 0 0 0 5.47,2.64 27.37,27.37 0 0 0 3.18,0.12 h 17 v -1.12 c -3.5,-0.19 -4,-0.52 -3.89,-4 v -5.1 h 0.1 c 3.6,3.47 8.73,8.14 10.6,10.18 H 299 a 35.64,35.64 0 0 0 5,0.45 v 0 c 0.48,0 1,0 1.46,0 7.75,0 12.7,-2.87 12.7,-6.79 0,-3.73 -4,-5.39 -8.55,-6.69"
         id="path16" />
    </g>
  </g>
</svg>
