<svg width="160" height="160" version="1.1" xmlns="http://www.w3.org/2000/svg"><path fill="rgb(235,202,205)" stroke="rgb(235,202,205)" stroke-width="1" opacity="0.996078431372549" d="M 34.5 20 L 33 22.5 L 33.5 24 L 41.5 24 L 53.5 27 L 64.5 27 L 65.5 28 L 96.5 28 L 97.5 27 L 106.5 27 L 106.5 28 L 98.5 28 L 97.5 29 L 64.5 32 L 55.5 34 L 38.5 35 L 22 38 Q 25.7 27 34.5 20 Z "></path><path fill="rgb(235,202,205)" stroke="rgb(235,202,205)" stroke-width="1" opacity="0.996078431372549" d="M 127.5 20 L 133 26.5 L 129.5 27 L 128.5 26 L 118.5 26 L 117.5 27 L 109.5 27 L 109.5 26 L 130 23.5 L 127.5 20 Z "></path><path fill="rgb(235,202,205)" stroke="rgb(235,202,205)" stroke-width="1" opacity="0.996078431372549" d="M 135.5 31 L 138 32 L 139 35.5 L 134.5 42 L 115.5 53 L 104.5 55 L 95.5 55 L 83 51 Q 80.9 45.8 85.5 47 L 89.5 52 L 97.5 48 L 106.5 48 L 118.5 43 L 128 42 L 135.5 31 Z "></path><path fill="rgb(235,202,205)" stroke="rgb(235,202,205)" stroke-width="1" opacity="0.996078431372549" d="M 81 34 L 85 34.5 Q 83 39 81 35.5 L 81 34 Z "></path><path fill="rgb(235,202,205)" stroke="rgb(235,202,205)" stroke-width="1" opacity="0.996078431372549" d="M 64 36 L 68 36.5 L 66.5 39 L 64 38 L 64 36 Z "></path><path fill="rgb(235,202,205)" stroke="rgb(235,202,205)" stroke-width="1" opacity="0.996078431372549" d="M 73.5 37 Q 79 36 80 39.5 Q 80.5 43.5 77.5 44 L 73.5 45 L 70 42.5 Q 69.3 38.8 71.5 38 L 73.5 37 Z "></path><path fill="rgb(235,202,205)" stroke="rgb(235,202,205)" stroke-width="1" opacity="0.996078431372549" d="M 35.5 39 L 38 39.5 L 35.5 40 L 35.5 39 Z "></path><path fill="rgb(235,202,205)" stroke="rgb(235,202,205)" stroke-width="1" opacity="0.996078431372549" d="M 58.5 40 L 63 41.5 L 56.5 51 L 47.5 52 L 42.5 56 L 29.5 61 L 18 61 L 17 56 L 19.5 57 Q 30.9 52.4 45.5 51 L 52 46.5 Q 51.3 44.3 53.5 45 L 58.5 40 Z "></path><path fill="rgb(235,202,205)" stroke="rgb(235,202,205)" stroke-width="1" opacity="0.996078431372549" d="M 15.5 44 L 18 47.5 L 17 53 L 11 48.5 L 12.5 46 L 15.5 44 Z "></path><path fill="rgb(235,202,205)" stroke="rgb(235,202,205)" stroke-width="1" opacity="0.996078431372549" d="M 72.5 48 L 73.5 50 Q 70.7 50.7 72.5 48 Z "></path><path fill="rgb(235,202,205)" stroke="rgb(235,202,205)" stroke-width="1" opacity="0.996078431372549" d="M 76.5 61 Q 78 63.5 83.5 62 L 85 63.5 L 94 79.5 L 94 82 L 85.5 84 L 76.5 84 L 74 83 L 77 73.5 L 77 62.5 L 76.5 61 Z "></path><path fill="rgb(203,163,179)" stroke="rgb(203,163,179)" stroke-width="1" opacity="1" d="M 126.5 26 L 129 26.5 L 126.5 27 L 126.5 26 Z "></path><path fill="rgb(203,163,179)" stroke="rgb(203,163,179)" stroke-width="1" opacity="1" d="M 122.5 29 L 125 29.5 L 122.5 30 L 122.5 29 Z "></path><path fill="rgb(203,163,179)" stroke="rgb(203,163,179)" stroke-width="1" opacity="1" d="M 73.5 48 Q 80.8 45.4 79 51.5 L 84 61.5 L 81.5 62 L 76 61 L 77 67.5 L 76 67.5 Q 76.8 64.9 73.5 66 L 71 65.5 L 73 51.5 L 72.5 50 L 74 49.5 L 73.5 48 Z "></path><path fill="rgb(0,0,0)" stroke="rgb(0,0,0)" stroke-width="1" opacity="0.13725490196078433" d="M 0 0 L 71 0.5 Q 36.1 6.1 19 29.5 L 8.5 45 L 5 47.5 L 1 57.5 L 1 66.5 L 3 72.5 L 2 73.5 L 2 86.5 L 5 101.5 L 11 116.5 Q 19.2 130.8 31.5 141 Q 42.7 150.3 58.5 155 L 72.5 158 L 89.5 158 L 104.5 155 L 120.5 148 Q 134.2 139.7 144 127.5 Q 156.3 112.8 159.5 89 L 160 160 L 0 160 L 0 0 Z "></path><path fill="rgb(0,0,0)" stroke="rgb(0,0,0)" stroke-width="1" opacity="0.13725490196078433" d="M 91.5 0 L 160 0 L 160 68.5 L 159 68.5 L 159 62.5 L 155 49.5 Q 147.9 32.6 135.5 21 Q 125 11 110.5 5 L 96.5 1 L 91.5 1 L 91.5 0 Z "></path><path fill="rgb(244,231,226)" stroke="rgb(244,231,226)" stroke-width="1" opacity="0.996078431372549" d="M 72.5 4 Q 112.6 2.4 130 23.5 L 120.5 24 L 108.5 27 L 97.5 27 L 96.5 28 L 65.5 28 L 64.5 27 L 53.5 27 L 41.5 24 L 33 24 L 38.5 17 L 52.5 9 L 72.5 4 Z "></path><path fill="rgb(244,231,226)" stroke="rgb(244,231,226)" stroke-width="1" opacity="0.996078431372549" d="M 113.5 30 L 128.5 30 L 135 31 L 128 42 L 118.5 43 L 106.5 48 L 97.5 48 L 89.5 52 L 85.5 47 Q 81.3 48.3 83 43.5 L 85 39 L 98.5 33 L 113.5 30 Z "></path><path fill="rgb(244,231,226)" stroke="rgb(244,231,226)" stroke-width="1" opacity="0.996078431372549" d="M 38.5 39 Q 50.9 37.1 58 40.5 L 52 45 L 50.5 48 L 45.5 51 Q 30.9 52.4 19.5 57 L 17 56 L 18 46.5 L 16.5 44 L 25.5 41 L 37.5 40 L 38.5 39 Z "></path><path fill="rgb(244,231,226)" stroke="rgb(244,231,226)" stroke-width="1" opacity="0.996078431372549" d="M 7.5 50 L 7 51.5 L 5.5 57 L 5 54.5 L 7.5 50 Z "></path><path fill="rgb(228,197,169)" stroke="rgb(228,197,169)" stroke-width="1" opacity="0.996078431372549" d="M 139.5 35 L 143 43.5 Q 135.7 53.2 123.5 58 L 111.5 61 L 98.5 61 L 85 57 L 83 51.5 L 85.5 51 L 90.5 54 L 104.5 55 L 120.5 51 L 137 39.5 L 139.5 35 Z "></path><path fill="rgb(228,197,169)" stroke="rgb(228,197,169)" stroke-width="1" opacity="0.996078431372549" d="M 63.5 41 Q 68.6 45.2 69 53 L 62.5 52 L 51.5 61 L 39.5 66 L 31.5 68 L 19.5 68 L 18 66.5 L 17 59 L 14.5 60 L 8 54.5 L 7 52.5 L 11.5 46 L 11 47.5 L 15.5 53 Q 18.3 52.4 17 58.5 L 18 61 L 29.5 61 Q 40.5 58.5 47.5 52 L 56.5 51 L 59 48.5 L 63.5 41 Z "></path><path fill="rgb(228,197,169)" stroke="rgb(228,197,169)" stroke-width="1" opacity="0.996078431372549" d="M 5.5 53 L 6.5 55 L 5.5 53 Z "></path><path fill="rgb(228,197,169)" stroke="rgb(228,197,169)" stroke-width="1" opacity="0.996078431372549" d="M 4 57 L 6 57.5 L 4 58.5 L 4 57 Z "></path><path fill="rgb(209,160,124)" stroke="rgb(209,160,124)" stroke-width="1" opacity="0.996078431372549" d="M 144.5 52 L 145 58.5 L 143 68 L 126.5 71 L 118.5 74 L 102.5 76 L 90 64.5 L 99.5 62 L 115.5 61 L 132.5 57 L 138.5 57 L 144 54.5 L 144.5 52 Z "></path><path fill="rgb(209,160,124)" stroke="rgb(209,160,124)" stroke-width="1" opacity="0.996078431372549" d="M 5.5 59 L 7.5 63 L 10.5 64 L 17 60 L 18 64.5 L 16.5 65 L 12.5 63 L 9.5 67 L 5 64.5 L 4 62.5 L 5.5 59 Z "></path><path fill="rgb(209,160,124)" stroke="rgb(209,160,124)" stroke-width="1" opacity="0.996078431372549" d="M 55.5 61 L 67 63.5 L 59.5 76 L 43.5 74 L 35.5 71 L 21 70.5 Q 43.6 71.1 55.5 61 Z "></path><path fill="rgb(215,173,138)" stroke="rgb(215,173,138)" stroke-width="1" opacity="0.996078431372549" d="M 142.5 44 Q 145.5 47 144 54.5 L 138.5 57 L 132.5 57 L 117.5 60 L 117.5 59 Q 134.3 55.8 142.5 44 Z "></path><path fill="rgb(215,173,138)" stroke="rgb(215,173,138)" stroke-width="1" opacity="0.996078431372549" d="M 62.5 52 L 69 53 L 67 63 L 55.5 61 Q 48.7 66.7 38.5 69 L 19 70 L 18 67.5 L 19.5 68 L 31.5 68 L 39.5 66 L 51.5 61 L 62.5 52 Z "></path><path fill="rgb(215,173,138)" stroke="rgb(215,173,138)" stroke-width="1" opacity="0.996078431372549" d="M 7.5 53 L 12.5 59 L 14.5 60 L 16.5 59 L 16.5 60 L 9.5 64 L 6 61.5 L 5 58.5 L 7.5 53 Z "></path><path fill="rgb(215,173,138)" stroke="rgb(215,173,138)" stroke-width="1" opacity="0.996078431372549" d="M 86.5 57 L 93.5 60 L 108 61.5 L 90.5 64 L 86 58.5 L 86.5 57 Z "></path><path fill="rgb(215,173,138)" stroke="rgb(215,173,138)" stroke-width="1" opacity="0.996078431372549" d="M 112.5 60 L 116 60.5 L 112.5 61 L 112.5 60 Z "></path><path fill="rgb(198,137,112)" stroke="rgb(198,137,112)" stroke-width="1" opacity="0.996078431372549" d="M 139.5 33 L 144 36.5 Q 144.8 40.3 142.5 41 L 139.5 33 Z "></path><path fill="rgb(198,137,112)" stroke="rgb(198,137,112)" stroke-width="1" opacity="0.996078431372549" d="M 144.5 49 L 145 51.5 L 144 51.5 L 144.5 49 Z "></path><path fill="rgb(198,137,112)" stroke="rgb(198,137,112)" stroke-width="1" opacity="0.996078431372549" d="M 144.5 59 L 145 62.5 L 144 62.5 L 144.5 59 Z "></path><path fill="rgb(198,137,112)" stroke="rgb(198,137,112)" stroke-width="1" opacity="0.996078431372549" d="M 88.5 62 L 89.5 64 L 88.5 62 Z "></path><path fill="rgb(198,137,112)" stroke="rgb(198,137,112)" stroke-width="1" opacity="0.996078431372549" d="M 4.5 63 L 6.5 66 L 9.5 67 L 12.5 63 L 18 65 Q 17 68.8 19.5 70 L 21.5 71 L 35.5 71 L 43.5 74 L 59.5 76 L 61 75.5 L 53.5 84 L 42.5 91 L 34.5 92 L 31 90 L 17.5 69 L 8.5 68 L 4 66 L 4.5 63 Z "></path><path fill="rgb(198,137,112)" stroke="rgb(198,137,112)" stroke-width="1" opacity="0.996078431372549" d="M 143.5 66 L 144 67.5 Q 142.2 74.7 136.5 78 L 130.5 81 L 121.5 83 L 108.5 80 L 103 76.5 L 118.5 74 L 126.5 71 L 143 68 L 143.5 66 Z "></path><path fill="rgb(198,137,112)" stroke="rgb(198,137,112)" stroke-width="1" opacity="0.996078431372549" d="M 99.5 73 L 100.5 75 L 99.5 73 Z "></path><path fill="rgb(50,31,33)" stroke="rgb(50,31,33)" stroke-width="1" opacity="0.996078431372549" d="M 110.5 27 L 132.5 27 Q 133.7 29.3 138.5 28 L 147 34.5 Q 153.6 40.9 153 54.5 L 151 63.5 L 146 73.5 L 138.5 81 L 125.5 86 L 117.5 86 L 103.5 81 L 88 67.5 Q 80.5 59.8 79 47 L 72 48 Q 73.2 58.5 70 65.5 Q 63.7 80.7 51.5 90 L 38.5 96 L 26.5 96 Q 14.9 93.1 9 84.5 L 3 74.5 L 1 66.5 L 1 57.5 L 3 50.5 L 7.5 45 L 15.5 40 L 28.5 37 L 41.5 36 L 42.5 35 L 51.5 35 L 60.5 33 L 68.5 33 L 77.5 31 L 85.5 31 L 94.5 29 L 102.5 29 L 110.5 27 Z M 119 29 L 118 30 L 110 30 L 100 32 L 88 37 Q 83 40 82 46 L 83 54 L 91 67 Q 100 79 119 83 Q 132 84 139 77 Q 147 70 149 57 Q 151 43 145 37 L 137 30 L 119 29 Z M 85 33 L 79 35 L 83 37 L 89 34 L 85 33 Z M 68 35 L 60 37 L 66 39 L 69 37 Q 70 34 68 35 Z M 75 36 L 70 38 L 69 41 L 70 44 Q 72 47 78 45 Q 81 44 80 39 L 75 36 Z M 45 38 L 44 39 L 33 39 L 23 41 L 10 47 L 5 53 L 3 61 L 3 65 Q 6 67 6 74 L 11 82 Q 17 90 29 93 L 38 93 L 51 87 Q 64 77 69 59 Q 71 47 66 43 L 59 39 L 45 38 Z "></path><path fill="rgb(201,122,156)" stroke="rgb(201,122,156)" stroke-width="1" opacity="1" d="M 79.5 3 L 83 3.5 L 79.5 4 L 79.5 3 Z "></path><path fill="rgb(201,122,156)" stroke="rgb(201,122,156)" stroke-width="1" opacity="1" d="M 70.5 64 L 71.5 66 L 73.5 66 Q 76.8 64.9 76 67.5 L 76 69.5 L 76 74.5 L 70.5 87 Q 66.3 84 59 85 Q 66.2 76.4 70.5 64 Z "></path><path fill="rgb(201,122,156)" stroke="rgb(201,122,156)" stroke-width="1" opacity="1" d="M 90.5 71 Q 97.4 79.1 108 83.5 L 101 85.5 L 102.5 88 Q 93.1 81.4 90.5 71 Z "></path><path fill="rgb(201,122,156)" stroke="rgb(201,122,156)" stroke-width="1" opacity="1" d="M 69.5 88 L 68.5 90 L 69.5 88 Z "></path><path fill="rgb(201,122,156)" stroke="rgb(201,122,156)" stroke-width="1" opacity="1" d="M 109.5 92 L 110.5 94 L 109.5 92 Z "></path><path fill="rgb(201,122,156)" stroke="rgb(201,122,156)" stroke-width="1" opacity="1" d="M 112.5 94 L 121 98.5 L 114 104 Q 115.1 106.7 112.5 106 L 99.5 113 L 88.5 115 L 73.5 115 L 70.5 114 L 66.5 114 L 55.5 110 L 51 106.5 L 64.5 95 L 62 98.5 Q 61.1 101.9 66.5 100 L 72.5 102 L 74.5 102 Q 98.8 103.3 112.5 94 Z "></path><path fill="rgb(226,152,188)" stroke="rgb(226,152,188)" stroke-width="1" opacity="1" d="M 77.5 61 L 76.5 63 L 77.5 61 Z "></path><path fill="rgb(226,152,188)" stroke="rgb(226,152,188)" stroke-width="1" opacity="1" d="M 76.5 71 L 77 73.5 L 76 73.5 L 76.5 71 Z "></path><path fill="rgb(226,152,188)" stroke="rgb(226,152,188)" stroke-width="1" opacity="1" d="M 91.5 75 L 92.5 77 L 91.5 75 Z "></path><path fill="rgb(226,152,188)" stroke="rgb(226,152,188)" stroke-width="1" opacity="1" d="M 93.5 78 L 103.5 89 L 112 94.5 Q 98.3 103.3 74.5 102 L 72.5 102 L 62 100 L 73.5 81 L 74 83 Q 77.3 85.1 85.5 84 L 94 82 L 93.5 78 Z "></path><path fill="rgb(137,32,74)" stroke="rgb(137,32,74)" stroke-width="1" opacity="1" d="M 35.5 18 L 34.5 20 L 35.5 18 Z "></path><path fill="rgb(137,32,74)" stroke="rgb(137,32,74)" stroke-width="1" opacity="1" d="M 126.5 18 L 127.5 20 L 126.5 18 Z "></path><path fill="rgb(137,32,74)" stroke="rgb(137,32,74)" stroke-width="1" opacity="1" d="M 27.5 26 L 25 29.5 L 19 40 L 14.5 41 L 16 38.5 L 24.5 28 L 27.5 26 Z "></path><path fill="rgb(137,32,74)" stroke="rgb(137,32,74)" stroke-width="1" opacity="1" d="M 134.5 26 L 137 27.5 L 133.5 28 L 134.5 26 Z "></path><path fill="rgb(137,32,74)" stroke="rgb(137,32,74)" stroke-width="1" opacity="1" d="M 67.5 35 L 68.5 37 L 67.5 35 Z "></path><path fill="rgb(137,32,74)" stroke="rgb(137,32,74)" stroke-width="1" opacity="1" d="M 153.5 50 L 158 63.5 Q 155.2 65.3 157 71.5 L 154 80.5 Q 150.8 88.3 144.5 93 L 132.5 98 L 123 98 Q 121.9 95.3 124.5 96 L 136 84.5 L 137 81 L 146 73.5 L 151 63.5 L 153.5 50 Z "></path><path fill="rgb(137,32,74)" stroke="rgb(137,32,74)" stroke-width="1" opacity="1" d="M 3.5 60 L 4 64.5 L 3 64.5 L 3.5 60 Z "></path><path fill="rgb(137,32,74)" stroke="rgb(137,32,74)" stroke-width="1" opacity="1" d="M 96.5 71 L 97.5 73 L 96.5 71 Z "></path><path fill="rgb(137,32,74)" stroke="rgb(137,32,74)" stroke-width="1" opacity="1" d="M 140.5 74 L 138.5 77 L 140.5 74 Z "></path><path fill="rgb(137,32,74)" stroke="rgb(137,32,74)" stroke-width="1" opacity="1" d="M 59.5 82 L 56.5 86 L 59.5 82 Z "></path><path fill="rgb(137,32,74)" stroke="rgb(137,32,74)" stroke-width="1" opacity="1" d="M 3.5 85 L 4 87.5 L 3 87.5 L 3.5 85 Z "></path><path fill="rgb(137,32,74)" stroke="rgb(137,32,74)" stroke-width="1" opacity="1" d="M 11.5 87 Q 18.9 97.6 38.5 96 L 40 95.5 Q 37.8 96.8 40.5 98 L 51 105.5 Q 45 110 32.5 108 Q 21.6 104.9 16 96.5 L 11 88.5 L 11.5 87 Z "></path><path fill="rgb(137,32,74)" stroke="rgb(137,32,74)" stroke-width="1" opacity="1" d="M 28.5 92 L 31 92.5 L 28.5 93 L 28.5 92 Z "></path><path fill="rgb(137,32,74)" stroke="rgb(137,32,74)" stroke-width="1" opacity="1" d="M 153.5 106 L 154 107.5 L 151.5 111 L 152 109.5 L 153.5 106 Z "></path><path fill="rgb(137,32,74)" stroke="rgb(137,32,74)" stroke-width="1" opacity="1" d="M 9.5 108 Q 14 117.5 22.5 123 Q 34.9 133.1 52.5 138 L 66.5 141 L 86.5 142 L 87.5 141 L 96.5 141 L 106.5 139 L 123.5 133 Q 138.5 125.9 149 114.5 L 150.5 112 L 150 113.5 Q 145.8 123.8 137.5 130 L 123.5 138 L 104.5 144 L 91.5 145 L 90.5 146 L 71.5 146 L 70.5 145 L 58.5 144 L 41.5 139 Q 29.1 134.9 21 126.5 Q 12.5 118.5 9.5 108 Z "></path><path fill="rgb(148,14,59)" stroke="rgb(148,14,59)" stroke-width="1" opacity="0.8941176470588236" d="M 71.5 0 L 90.5 0 L 110.5 5 Q 127.4 12.1 139 24.5 L 143 29.5 L 141.5 29 L 134.5 26 Q 127.6 17.4 117.5 12 L 106.5 7 L 88.5 3 L 73.5 3 L 58.5 6 L 44.5 12 Q 30.4 20.4 20 32.5 L 12.5 42 L 11 41.5 Q 19 27 31.5 17 L 49.5 6 L 71.5 0 Z "></path><path fill="rgb(148,14,59)" stroke="rgb(148,14,59)" stroke-width="1" opacity="0.8941176470588236" d="M 152.5 45 L 158 58.5 L 159 67.5 L 158 67.5 L 158 62.5 L 152.5 45 Z "></path><path fill="rgb(148,14,59)" stroke="rgb(148,14,59)" stroke-width="1" opacity="0.8941176470588236" d="M 159.5 69 L 160 88.5 L 159 88.5 L 159.5 69 Z "></path><path fill="rgb(148,14,59)" stroke="rgb(148,14,59)" stroke-width="1" opacity="0.8941176470588236" d="M 2.5 73 L 3 86.5 L 2 86.5 L 2.5 73 Z "></path><path fill="rgb(148,14,59)" stroke="rgb(148,14,59)" stroke-width="1" opacity="0.8941176470588236" d="M 3.5 88 Q 7 115 23.5 129 Q 47.2 147.3 90.5 146 L 91.5 145 L 104.5 144 L 123.5 138 Q 135.5 133.5 143 124.5 L 154 107.5 L 158.5 90 L 159 94.5 Q 152 125 130.5 141 L 120.5 148 L 104.5 155 L 89.5 158 L 72.5 158 L 58.5 155 L 43.5 149 Q 29.6 141.4 20 129.5 Q 11.7 120.3 7 107.5 L 3 93.5 L 3.5 88 Z "></path><path fill="rgb(178,86,117)" stroke="rgb(178,86,117)" stroke-width="1" opacity="0.996078431372549" d="M 76.5 3 L 79 3.5 L 76.5 4 L 76.5 3 Z "></path><path fill="rgb(178,86,117)" stroke="rgb(178,86,117)" stroke-width="1" opacity="0.996078431372549" d="M 83.5 3 L 86 3.5 L 83.5 4 L 83.5 3 Z "></path><path fill="rgb(178,86,117)" stroke="rgb(178,86,117)" stroke-width="1" opacity="0.996078431372549" d="M 142.5 34 L 143.5 36 L 142.5 34 Z "></path><path fill="rgb(178,86,117)" stroke="rgb(178,86,117)" stroke-width="1" opacity="0.996078431372549" d="M 144.5 37 L 148 45 L 143 44 L 144.5 37 Z "></path><path fill="rgb(178,86,117)" stroke="rgb(178,86,117)" stroke-width="1" opacity="0.996078431372549" d="M 5.5 66 L 10 68.5 L 9 75 Q 6.3 76.1 7 73.5 Q 4 70.8 5.5 66 Z "></path><path fill="rgb(178,86,117)" stroke="rgb(178,86,117)" stroke-width="1" opacity="0.996078431372549" d="M 15.5 69 L 18 69.5 L 15.5 70 L 15.5 69 Z "></path><path fill="rgb(178,86,117)" stroke="rgb(178,86,117)" stroke-width="1" opacity="0.996078431372549" d="M 89.5 69 L 94.5 75 L 89.5 69 Z "></path><path fill="rgb(178,86,117)" stroke="rgb(178,86,117)" stroke-width="1" opacity="0.996078431372549" d="M 61.5 80 L 60.5 82 L 61.5 80 Z "></path><path fill="rgb(178,86,117)" stroke="rgb(178,86,117)" stroke-width="1" opacity="0.996078431372549" d="M 24.5 81 L 25.5 83 L 24.5 81 Z "></path><path fill="rgb(178,86,117)" stroke="rgb(178,86,117)" stroke-width="1" opacity="0.996078431372549" d="M 108.5 83 Q 114.3 88.2 127.5 86 L 135.5 83 L 131 88.5 Q 131.8 90.8 129.5 90 L 121 97.5 L 128.5 99 Q 130 96.5 135.5 98 L 141.5 95 L 141 96.5 Q 137.4 105.4 130.5 111 Q 120.4 120.4 105.5 125 L 91.5 128 L 70.5 128 L 51.5 123 Q 37.6 117.9 29 107.5 L 30.5 108 L 42.5 109 L 50.5 106 L 55.5 110 L 71.5 115 L 73.5 115 L 88.5 115 L 99.5 113 L 114 106 Q 112.9 103.3 115.5 104 L 121 98.5 L 119.5 97 Q 107.5 94 101 85.5 L 108.5 83 Z "></path><path fill="rgb(178,86,117)" stroke="rgb(178,86,117)" stroke-width="1" opacity="0.996078431372549" d="M 26.5 84 L 30.5 89 L 26.5 84 Z "></path><path fill="rgb(178,86,117)" stroke="rgb(178,86,117)" stroke-width="1" opacity="0.996078431372549" d="M 58.5 84 L 70 86 Q 65.8 96.4 56.5 103 L 55.5 100 Q 45.6 100.4 40 96.5 Q 51.5 92.5 58.5 84 Z "></path><path fill="rgb(178,86,117)" stroke="rgb(178,86,117)" stroke-width="1" opacity="0.996078431372549" d="M 32.5 90 L 33.5 92 L 32.5 90 Z "></path><path fill="rgb(170,62,100)" stroke="rgb(170,62,100)" stroke-width="1" opacity="1" d="M 31.5 22 L 30.5 24 L 31.5 22 Z "></path><path fill="rgb(170,62,100)" stroke="rgb(170,62,100)" stroke-width="1" opacity="1" d="M 64.5 41 L 65.5 43 L 64.5 41 Z "></path><path fill="rgb(170,62,100)" stroke="rgb(170,62,100)" stroke-width="1" opacity="1" d="M 154.5 80 L 155 84.5 Q 151.3 103.3 139.5 114 Q 125.9 127.4 104.5 133 L 94.5 135 L 67.5 135 L 57.5 133 L 37.5 125 Q 26 118.6 18 108.5 L 11 97.5 L 8 88.5 L 8 84.5 L 10 85.5 Q 13.1 95.9 20.5 102 L 29.5 108 L 31 107.5 L 30 108.5 L 35.5 114 Q 46 122 60.5 126 L 70.5 128 L 91.5 128 L 113.5 122 Q 125.5 116.5 134 107.5 L 141 96.5 L 140.5 95 L 142 95.5 Q 141.3 93.3 143.5 94 Q 150.9 88.9 154.5 80 Z "></path><path fill="rgb(170,62,100)" stroke="rgb(170,62,100)" stroke-width="1" opacity="1" d="M 24.5 82 L 33.5 92 L 35 92.5 L 32.5 93 L 26 92 L 24 86.5 L 24.5 82 Z "></path><path fill="rgb(170,62,100)" stroke="rgb(170,62,100)" stroke-width="1" opacity="1" d="M 52.5 84 L 51.5 86 L 52.5 84 Z "></path><path fill="rgb(170,62,100)" stroke="rgb(170,62,100)" stroke-width="1" opacity="1" d="M 134.5 85 L 131.5 89 L 134.5 85 Z "></path><path fill="rgb(170,62,100)" stroke="rgb(170,62,100)" stroke-width="1" opacity="1" d="M 55.5 86 L 53.5 89 L 55.5 86 Z "></path><path fill="rgb(170,62,100)" stroke="rgb(170,62,100)" stroke-width="1" opacity="1" d="M 129.5 90 L 126.5 94 L 129.5 90 Z "></path><path fill="rgb(170,62,100)" stroke="rgb(170,62,100)" stroke-width="1" opacity="1" d="M 40.5 95 L 39.5 97 L 40.5 95 Z "></path><path fill="rgb(170,62,100)" stroke="rgb(170,62,100)" stroke-width="1" opacity="1" d="M 123.5 95 L 121.5 98 L 123.5 95 Z "></path><path fill="rgb(170,62,100)" stroke="rgb(170,62,100)" stroke-width="1" opacity="1" d="M 41.5 97 L 45.5 99 L 55.5 100 L 57 101.5 L 53.5 105 L 51.5 103 L 42.5 99 L 41.5 97 Z "></path><path fill="rgb(170,62,100)" stroke="rgb(170,62,100)" stroke-width="1" opacity="1" d="M 126.5 98 L 129 98.5 L 126.5 99 L 126.5 98 Z "></path><path fill="rgb(170,62,100)" stroke="rgb(170,62,100)" stroke-width="1" opacity="1" d="M 33.5 108 L 38 108.5 L 33.5 109 L 33.5 108 Z "></path><path fill="rgb(170,62,100)" stroke="rgb(170,62,100)" stroke-width="1" opacity="1" d="M 40.5 108 L 43 108.5 L 40.5 109 L 40.5 108 Z "></path><path fill="rgb(160,45,78)" stroke="rgb(160,45,78)" stroke-width="1" opacity="1" d="M 33.5 20 L 32.5 22 L 33.5 20 Z "></path><path fill="rgb(160,45,78)" stroke="rgb(160,45,78)" stroke-width="1" opacity="1" d="M 128.5 20 L 129.5 22 L 128.5 20 Z "></path><path fill="rgb(160,45,78)" stroke="rgb(160,45,78)" stroke-width="1" opacity="1" d="M 131.5 23 L 133.5 26 L 131.5 23 Z "></path><path fill="rgb(160,45,78)" stroke="rgb(160,45,78)" stroke-width="1" opacity="1" d="M 29.5 24 L 28.5 26 L 29.5 24 Z "></path><path fill="rgb(160,45,78)" stroke="rgb(160,45,78)" stroke-width="1" opacity="1" d="M 20.5 37 L 19.5 39 L 20.5 37 Z "></path><path fill="rgb(160,45,78)" stroke="rgb(160,45,78)" stroke-width="1" opacity="1" d="M 144.5 44 L 149 47.5 Q 149.8 60.8 144.5 68 L 144 65.5 L 145 64.5 L 145 48.5 L 144.5 44 Z "></path><path fill="rgb(160,45,78)" stroke="rgb(160,45,78)" stroke-width="1" opacity="1" d="M 157.5 64 L 159 70.5 L 159 87.5 L 155 103.5 Q 151.3 113.8 143.5 120 Q 131.1 131.1 113.5 137 L 96.5 141 L 75.5 142 L 74.5 141 L 60.5 140 L 43.5 135 Q 24.1 127.4 12 112.5 Q 3 99 3 76.5 L 4 76.5 L 8 82.5 L 8 88.5 L 12 99.5 Q 18.5 111.1 28.5 119 Q 40.6 128.4 57.5 133 L 67.5 135 L 94.5 135 L 116.5 129 Q 131 123 141 112.5 Q 153.2 101.7 155 80.5 L 154 78.5 Q 157.9 73.4 157.5 64 Z "></path><path fill="rgb(160,45,78)" stroke="rgb(160,45,78)" stroke-width="1" opacity="1" d="M 92.5 67 L 95.5 71 L 92.5 67 Z "></path><path fill="rgb(160,45,78)" stroke="rgb(160,45,78)" stroke-width="1" opacity="1" d="M 10.5 68 Q 13.5 70.8 19 70 L 24 81.5 Q 23.3 88.2 26 91.5 L 24.5 91 Q 16.1 88.8 12 82.5 L 8 76.5 Q 10.5 75 9 69.5 L 10.5 68 Z "></path><path fill="rgb(160,45,78)" stroke="rgb(160,45,78)" stroke-width="1" opacity="1" d="M 152.5 83 L 151.5 85 L 152.5 83 Z "></path><path fill="rgb(160,45,78)" stroke="rgb(160,45,78)" stroke-width="1" opacity="1" d="M 14.5 94 L 15.5 96 L 14.5 94 Z "></path><path fill="rgb(160,45,78)" stroke="rgb(160,45,78)" stroke-width="1" opacity="1" d="M 125.5 94 L 124.5 96 L 125.5 94 Z "></path><path fill="rgb(160,45,78)" stroke="rgb(160,45,78)" stroke-width="1" opacity="1" d="M 17.5 98 L 20.5 102 L 17.5 98 Z "></path><path fill="rgb(160,45,78)" stroke="rgb(160,45,78)" stroke-width="1" opacity="1" d="M 45.5 100 L 53 104.5 L 49.5 105 L 45.5 100 Z "></path></svg>