<svg id="Layer_1" data-name="Layer 1" xmlns="http://www.w3.org/2000/svg" xmlns:xlink="http://www.w3.org/1999/xlink" viewBox="0 0 342.69699 430.04565"><defs><style>.cls-1{fill:#940b3a;}.cls-2{fill:url(#linear-gradient);}.cls-3{fill:url(#radial-gradient);}.cls-4{fill:url(#radial-gradient-2);}.cls-5{opacity:0.7;}.cls-6{fill:url(#linear-gradient-2);}.cls-7{fill:url(#linear-gradient-3);}.cls-8{opacity:0.3;fill:url(#linear-gradient-4);}.cls-9{opacity:0.39;}.cls-10{fill:url(#linear-gradient-5);}.cls-11{fill:#9b5b3e;}.cls-12{fill:#efd6b4;}</style><linearGradient id="linear-gradient" x1="172.97192" y1="16.77932" x2="172.97192" y2="322.15833" gradientUnits="userSpaceOnUse"><stop offset="0" stop-color="#fcf8fa"/><stop offset="0.05937" stop-color="#f6e4ec"/><stop offset="0.17733" stop-color="#ecc2d3"/><stop offset="0.3034" stop-color="#e4a5bf"/><stop offset="0.4382" stop-color="#de8fb0"/><stop offset="0.58583" stop-color="#d980a5"/><stop offset="0.75592" stop-color="#d7779e"/><stop offset="1" stop-color="#d6749c"/></linearGradient><radialGradient id="radial-gradient" cx="248.8275" cy="317.225" r="162.48492" gradientTransform="matrix(0.95307, -0.14791, 0.12456, 0.76245, -102.69951, -28.84075)" gradientUnits="userSpaceOnUse"><stop offset="0" stop-color="#c4678c" stop-opacity="0"/><stop offset="0.1424" stop-color="#bd597f" stop-opacity="0.15284"/><stop offset="0.73274" stop-color="#a0214e" stop-opacity="0.75944"/><stop offset="1" stop-color="#940b3a"/></radialGradient><radialGradient id="radial-gradient-2" cx="252.34418" cy="151.57979" r="45.9382" gradientTransform="matrix(0.95307, -0.14791, 0.12456, 0.76245, -107.20436, -56.41503)" xlink:href="#radial-gradient"/><linearGradient id="linear-gradient-2" x1="11.21096" y1="146.21735" x2="152.30765" y2="146.21735" gradientUnits="userSpaceOnUse"><stop offset="0" stop-color="#f8ecda"/><stop offset="0.46336" stop-color="#f3dcb1"/><stop offset="0.96703" stop-color="#ec8"/><stop offset="1" stop-color="#eecb9e"/></linearGradient><linearGradient id="linear-gradient-3" x1="177.98691" y1="124.67993" x2="314.04832" y2="124.67993" xlink:href="#linear-gradient-2"/><linearGradient id="linear-gradient-4" x1="152.2721" y1="29.31807" x2="161.70134" y2="158.08477" gradientTransform="matrix(0.99747, 0.07108, -0.07304, 1.02501, 25.86989, 56.2353)" gradientUnits="userSpaceOnUse"><stop offset="0" stop-opacity="0.1"/><stop offset="1"/></linearGradient><linearGradient id="linear-gradient-5" x1="14.58753" y1="150.81153" x2="150.92045" y2="150.81153" gradientUnits="userSpaceOnUse"><stop offset="0" stop-color="#c68e69"/><stop offset="0.6271" stop-color="#c78f6c" stop-opacity="0.60909"/><stop offset="1" stop-color="#c8906e" stop-opacity="0.4"/></linearGradient></defs><title>duke</title><path d="M77.2088,362.37888H98.15465c16.88008,0,28.54132,11.585,28.54132,26.69965v.15367c0,15.11466-11.66125,26.85331-28.54133,26.85331H77.2088Zm20.94585,43.04248c9.66712,0,16.18916-6.52211,16.18916-16.0355v-.15366c0-9.51454-6.52211-16.18917-16.18916-16.18917h-9.1298v32.37833Z"/><path d="M135.66644,401.58436V374.96093h11.66239v22.94119c0,5.52387,2.60884,8.36264,7.05821,8.36264,4.45051,0,7.28928-2.83877,7.28928-8.36264V374.96093h11.66239v41.12454H161.67632v-5.83119c-2.6851,3.45228-6.13852,6.59837-12.046,6.59837C140.80671,416.85268,135.66644,411.02149,135.66644,401.58436Z"/><path d="M183.766,360.07623h11.66244V389.922l13.65658-14.96107H223.049l-15.65191,16.18916,16.18916,24.93538H210.237l-10.74155-16.80263-4.06693,4.29685v12.50582H183.766Z"/><path d="M225.26967,395.75316v-.15252c0-11.73979,8.36263-21.40685,20.3312-21.40685,13.734,0,20.025,10.66529,20.025,22.32654,0,.9208-.07626,1.99534-.15366,3.06983H236.85467c1.15076,5.29395,4.8341,8.05531,10.05059,8.05531,3.91328,0,6.75206-1.227,9.97438-4.21945l6.67463,5.90746c-3.83585,4.7567-9.35973,7.67286-16.80148,7.67286C234.39947,417.00634,225.26967,408.33638,225.26967,395.75316Zm29.00116-3.45227c-.68977-5.21769-3.7596-8.74623-8.67-8.74623-4.83295,0-7.979,3.45228-8.89988,8.74623Z"/><ellipse class="cls-1" cx="172.97192" cy="166.95889" rx="159.57083" ry="155.52786"/><ellipse class="cls-2" cx="172.97192" cy="169.46883" rx="156.6587" ry="152.68951"/><path class="cls-3" d="M214.86471,20.72026c36.2011,13.951,79.23213,42.19868,85.45907,80.31386,9.69835,59.36381-51.2802,118.58255-116.93127,128.77145S49.788,197.44255,40.08967,138.07874C33.55013,98.05011,58.9172,61.05867,91.7852,36.98887,37.112,68.55222,4.90325,130.439,15.50258,195.31772c13.85832,84.827,95.64618,142.64314,182.67827,129.13594S344.532,231.23084,330.67365,146.40384C320.485,84.03863,273.57779,36.27566,214.86471,20.72026Z"/><path class="cls-4" d="M214.86471,20.72026A131.29812,131.29812,0,0,0,91.7852,36.98887,163.669,163.669,0,0,1,214.86471,20.72026Z"/><g class="cls-5"><path class="cls-6" d="M152.30765,108.96951c0,58.6398-42.8293,95.8109-77.671,95.8109S11.211,162.37312,11.211,136.234,46.82431,94.21059,81.75931,90.35013C116.38113,86.52428,152.30765,82.8304,152.30765,108.96951Z"/><path class="cls-7" d="M178.39246,101.71974c11.725,62.31331,45.29824,82.12595,78.55946,78.8033,45.00244-4.49555,59.86932-55.52611,56.68244-81.47839s-32.53564-30.71173-67.27055-30.55518C212.91316,68.64022,173.55627,76.01738,178.39246,101.71974Z"/></g><path class="cls-8" d="M324.036,116.73747c-2.65975-28.446-36.047-18.147-68.13285-18.80088-43.64987-.89184-59.72314,9.47633-65.41881,15.73588-.06977.07666-.13284.15581-.20129.23294a16.40068,16.40068,0,0,0-2.3681-2.56037,19.84034,19.84034,0,0,0-12.49278-4.71246c-9.01614-.26767-16.65829,5.137-18.19,12.42438-12.83022-8.33366-36.77457-6.35654-59.99375-4.43094h.00041c-17.93158,1.48634-34.66385,6.11732-47.1148,13.03957-14.78812,8.22155-22.78125,19.22581-23.114,31.82228-.35493,13.40409,6.16108,30.51746,17.00461,44.66163,11.99613,15.6475,26.85513,24.76789,42.02353,25.8488q.886.06314,1.774.08965c17.59277.52271,36.9421-8.59469,51.76013-24.39121,16.57437-17.66858,26.0862-41.92745,26.784-68.3092.01912-.72234.00639-1.42632-.02687-2.11833a20.578,20.578,0,0,0,7.38148,1.92869c.2986.0213.59963.03646.90117.04543a20.06719,20.06719,0,0,0,11.18882-2.91712s13.67376,68.43685,80.65874,71.89772c8.82011.4557,28.99421-7.71316,37.26418-18.37222C318.51874,168.7828,325.53491,132.7686,324.036,116.73747Z"/><g class="cls-9"><path class="cls-10" d="M14.58753,155.539c9.67311,22.95358,32.28359,46.80565,58.41375,46.80565,34.15072,0,93.85951-43.49091,73.94833-103.06623-15.40217,27.75509-32.604,37.18734-57.99381,46.03093C61.80632,154.76591,35.37006,157.98289,14.58753,155.539Z"/><path class="cls-11" d="M181.43027,118.45584c14.48906,47.24552,44.31045,62.586,73.88627,59.63146,41.04164-4.0999,57.01568-46.90067,57.09291-74.08878-15.63,12.32074-36.49732,23.64762-64.21508,25.85133C224.0185,131.772,198.2859,125.83626,181.43027,118.45584Z"/></g><path d="M75.18034,207.6882c-16.35721,0-32.73429-9.07242-46.11374-25.54524-11.66686-14.36514-18.91433-31.95588-18.91433-45.9089,0-13.11659,8.00154-24.80292,23.13982-33.79665,12.73125-7.56265,29.96909-12.88133,48.53823-14.976,26.144-2.95139,53.17827-6.001,65.63166,5.12722,4.44535,3.97116,6.69905,9.48293,6.69905,16.38115,0,27.44523-9.22413,52.95315-25.97278,71.82489C113.24306,197.635,93.427,207.6882,75.18034,207.6882ZM117.07711,90.55313c-10.78338,0-23.06194,1.38484-34.59453,2.68611-32.0358,3.6142-66.51514,18.61051-66.51514,42.99482,0,12.48787,6.91364,29.06858,17.61306,42.242,7.097,8.73818,21.93833,23.397,41.59984,23.397,16.60993,0,34.8002-9.3223,48.6587-24.93841,15.80352-17.80655,24.50682-41.94342,24.50682-67.96487,0-5.24405-1.55642-9.18438-4.7585-12.04491C138.18755,92.09941,128.46652,90.55313,117.07711,90.55313Z"/><path d="M249.49974,183.44505c-22.60844.00081-62.34318-10.58625-75.55429-81.191a21.36722,21.36722,0,0,1,4.52079-18.27545c5.60993-6.82115,21.87912-18.32819,67.80952-18.75654,33.3103-.30261,67.84034,3.344,71.3864,32.798,1.945,16.15885-2.97128,42.32147-18.361,61.57694-10.8852,13.62039-25.56349,21.73714-42.44843,23.47326A71.96977,71.96977,0,0,1,249.49974,183.44505Zm-.16469-112.42241c-.98974,0-1.98923.00487-3.00494.0146-31.82365.29612-54.92169,6.35954-63.37227,16.63507a15.59209,15.59209,0,0,0-3.29619,13.5125c5.31462,28.405,15.59543,49.34219,30.55685,62.2292,12.62294,10.87344,28.53842,15.66885,46.03952,13.87189,15.51633-1.59577,28.46986-8.769,38.50039-21.31934,14.344-17.9477,18.935-42.259,17.12994-57.25206C309.55961,79.3706,290.79942,71.02264,249.33505,71.02264Z"/><line class="cls-12" x1="94.4563" y1="88.5659" x2="235.97202" y2="67.65139"/><polygon points="94.882 91.442 81.83 87.461 216.344 67.435 230.167 66.119 236.397 70.527 94.882 91.442"/><path d="M163.49833,108.56411c-8.54063,0-15.48875-5.95958-15.48875-13.28534,0-7.325,6.94812-13.28453,15.48875-13.28453s15.48916,5.95958,15.48916,13.28453C178.98749,102.60453,172.039,108.56411,163.49833,108.56411Zm0-20.75469c-5.33409,0-9.67357,3.35054-9.67357,7.46935s4.33948,7.47017,9.67357,7.47017,9.674-3.35136,9.674-7.47017S168.83243,87.80942,163.49833,87.80942Z"/></svg>