<?xml version="1.0" encoding="UTF-8" standalone="no"?>
<!-- Created with Inkscape (http://www.inkscape.org/) -->

<svg
   xmlns:dc="http://purl.org/dc/elements/1.1/"
   xmlns:cc="http://creativecommons.org/ns#"
   xmlns:rdf="http://www.w3.org/1999/02/22-rdf-syntax-ns#"
   xmlns:svg="http://www.w3.org/2000/svg"
   xmlns="http://www.w3.org/2000/svg"
   xmlns:sodipodi="http://sodipodi.sourceforge.net/DTD/sodipodi-0.dtd"
   xmlns:inkscape="http://www.inkscape.org/namespaces/inkscape"
   version="1.1"
   id="svg128"
   width="206"
   height="252.55078"
   viewBox="0 0 206 252.55078"
   sodipodi:docname="earth.svg"
   inkscape:version="0.92.2 5c3e80d, 2017-08-06">
  <metadata
     id="metadata134">
    <rdf:RDF>
      <cc:Work
         rdf:about="">
        <dc:format>image/svg+xml</dc:format>
        <dc:type
           rdf:resource="http://purl.org/dc/dcmitype/StillImage" />
        <dc:title></dc:title>
      </cc:Work>
    </rdf:RDF>
  </metadata>
  <defs
     id="defs132" />
  <sodipodi:namedview
     pagecolor="#ffffff"
     bordercolor="#666666"
     borderopacity="1"
     objecttolerance="10"
     gridtolerance="10"
     guidetolerance="10"
     inkscape:pageopacity="0"
     inkscape:pageshadow="2"
     inkscape:window-width="976"
     inkscape:window-height="642"
     id="namedview130"
     showgrid="false"
     inkscape:zoom="1.1625616"
     inkscape:cx="102.13983"
     inkscape:cy="151.05078"
     inkscape:window-x="527"
     inkscape:window-y="205"
     inkscape:window-maximized="0"
     inkscape:current-layer="svg128" />
  <path
     style="fill:#000000"
     d="m 85.835499,201.45658 c -32.215171,-5.0183 -60.441029,-25.73131 -74.80947,-54.89751 -14.3826729,-29.19508 -14.3826729,-60.923056 0,-90.118141 9.588928,-19.464361 25.950539,-35.825972 45.4149,-45.4149 C 68.519198,5.0757882 77.902898,2.3897335 92.143662,0.80623441 115.1821,-1.7555203 139.73837,4.8115378 159.63666,18.855818 c 44.71851,31.562475 56.21331,93.074152 25.90504,138.624662 -15.93356,23.94666 -40.7785,39.74022 -69.27189,44.0351 -11.68067,1.76066 -18.842084,1.74677 -30.434311,-0.059 z M 122,192.46983 C 185.5325,177.42523 215.10158,103.34811 178.9239,49.862796 161.02442,23.400093 133.20019,8.5551523 101.5,8.5551523 75.412852,8.5551523 54.565892,17.248223 35.907057,35.907057 17.248223,54.565892 8.5551523,75.412852 8.5551523,101.5 c 0,25.06905 8.4872607,46.21649 25.7757277,64.22456 15.085764,15.71368 32.569572,24.78463 54.483079,28.26691 7.550148,1.1998 25.089751,0.39558 33.186041,-1.52164 z M 138,129 v -26 h 9.18428 c 11.46215,0 16.85167,2.18999 19.84917,8.06556 6.93046,13.58484 -4.91866,29.98251 -18.79079,26.00403 L 145,136.13961 v 9.4302 V 155 h -3.5 -3.5 z m 17.40143,1.60563 c 4.661,-1.94749 6.59857,-5.1496 6.59857,-10.90506 0,-4.03207 -0.49517,-5.34959 -2.92308,-7.77749 C 156.545,109.39116 155.40756,109 150.57692,109 H 145 v 10.53222 c 0,9.98768 0.11633,10.57899 2.25,11.43662 3.16981,1.27411 4.35967,1.22109 8.15143,-0.36321 z M 115.5,137.31884 c -7.55359,-1.69639 -8.5,-2.36483 -8.5,-6.00338 0,-2.97918 0.27283,-3.41301 1.75,-2.78267 10.26242,4.37921 13.3707,4.30521 14.06298,-0.33479 0.24279,-1.62727 -1.15518,-3.0562 -6.23336,-6.37141 -8.79685,-5.74287 -10.40511,-9.11369 -7.37908,-15.46613 2.04162,-4.28589 9.75227,-5.6605 16.33158,-2.91149 2.88281,1.20452 3.46788,1.96372 3.46788,4.5 0,3.42105 -0.43421,3.58942 -4,1.55103 -3.26064,-1.86395 -8.43418,-1.8867 -9.96365,-0.0438 -1.57939,1.90305 -0.88189,2.88066 4.76467,6.67808 8.18005,5.50125 10.19898,7.84982 10.19898,11.86425 0,4.47175 -2.64877,7.53223 -7.74349,8.94709 -2.06608,0.57378 -3.98151,0.99354 -4.25651,0.9328 -0.275,-0.0607 -1.4,-0.31255 -2.5,-0.55958 z M 79,120 v -17 h 3 c 2.787838,0 3,0.25929 3,3.66639 v 3.66639 l 3.971459,-4.30186 c 3.622778,-3.92418 4.289086,-4.25032 7.589229,-3.71478 6.005342,0.97453 7.789992,3.45443 5.116822,7.11021 -1.23767,1.69262 -1.52265,1.70509 -4.443793,0.19451 -3.850722,-1.99129 -7.329719,-0.93017 -9.922102,3.02631 -1.368375,2.0884 -1.88059,5.29599 -2.162923,13.54463 L 84.778752,137 H 81.889376 79 Z"
     id="path138"
     inkscape:connector-curvature="0" />
  <g
     aria-label="Earth"
     style="font-style:normal;font-weight:normal;font-size:40px;line-height:1.25;font-family:sans-serif;letter-spacing:0px;word-spacing:0px;fill:#000000;fill-opacity:1;stroke:none"
     id="text280">
    <path
       d="m 151.45482,243.08891 c -1.14643,-0.14746 -2.87828,0.2905 -3.67187,-0.2098 -0.10916,-5.21601 0.26196,-10.46143 -0.28198,-15.65201 -0.72174,-4.03442 -6.05389,-3.51815 -8.68317,-1.70746 -2.19219,0.53476 -2.04342,2.42594 -1.93329,4.21738 0,4.45063 0,8.90126 0,13.35189 -1.14643,-0.14746 -2.87828,0.2905 -3.67187,-0.2098 0,-10.06027 0,-20.12055 0,-30.18082 1.14643,0.14746 2.87828,-0.2905 3.67187,0.2098 0,3.59543 0,7.19086 0,10.78629 3.33581,-3.05502 9.24833,-4.53701 12.71484,-0.89844 2.74433,3.49562 1.61344,8.11334 1.85547,12.21695 0,2.69201 0,5.38401 0,8.07602 z m -22.69531,-0.19531 c -3.58965,0.98614 -8.85841,1.29299 -10.57098,-2.8244 -1.1805,-3.83418 -0.49508,-7.91482 -0.67902,-11.87171 0,-1.27968 0,-2.55937 0,-3.83905 -1.30292,-0.0134 -3.08445,0.45175 -2.48047,-1.46858 -0.57073,-1.87911 0.89454,-1.72221 2.30778,-1.61735 0.40225,-0.9141 0.0581,-2.5746 0.17269,-3.77636 0.0164,-1.30418 -0.45572,-3.09689 1.46858,-2.49317 1.46523,-0.17133 2.74216,-0.15437 2.2033,1.67838 0,1.53038 0,3.06077 0,4.59115 2.52604,0 5.05208,0 7.57812,0 -0.31282,0.99555 0.76695,3.3837 -0.83919,3.08593 -2.24631,0 -4.49262,0 -6.73893,0 0.0969,4.51962 -0.23189,9.07529 0.25387,13.56445 0.68388,3.80459 5.81526,1.63325 7.32423,2.08953 1e-5,0.96039 1e-5,1.92079 2e-5,2.88118 z m -14.82422,-17.61719 c -3.48491,-0.99083 -7.26651,-0.12 -9.9414,2.32418 0,5.16276 0,10.32552 0,15.48828 -1.14643,-0.14746 -2.87828,0.2905 -3.67188,-0.2098 0,-7.2022 0,-14.4044 0,-21.6066 1.14643,0.14746 2.87828,-0.2905 3.67188,0.2098 0.0698,1.54057 -0.5508,4.37469 1.56647,1.84006 2.20792,-1.71269 6.29514,-2.93809 8.37493,-1.39588 0,1.11665 0,2.23331 0,3.34996 z m -20.722655,17.8125 c -1.138022,-0.14936 -2.867878,0.29312 -3.652344,-0.2098 0.699768,-3.49688 -1.569591,-0.72313 -3.405761,-0.0246 -3.988548,1.88515 -9.875136,0.72653 -11.18866,-3.9743 -1.141449,-3.51129 0.667962,-7.69666 4.32373,-8.7561 3.081176,-1.62345 7.981573,-0.47632 10.270691,-2.01569 0.20681,-4.30506 -5.16921,-4.53146 -8.214111,-3.90136 -1.737673,-0.23525 -5.477154,2.86134 -4.735107,-0.41373 -0.887077,-2.94958 2.64537,-2.45807 4.620666,-2.91086 3.990305,-0.35266 9.3268,-0.33011 11.336365,3.86658 1.141261,3.35367 0.45682,6.97597 0.644531,10.45849 0,2.62711 0,5.25423 0,7.88135 z m -3.652344,-5.37109 c 0,-2.02474 0,-4.04948 0,-6.07422 -3.554761,0.46013 -7.941812,-0.20212 -10.544433,2.77955 -2.358566,3.86167 2.361389,7.04869 5.891113,5.66771 1.722544,-0.36689 3.256586,-1.33826 4.65332,-2.37304 z m -19.160156,5.37109 c -6.386719,0 -12.773437,0 -19.160156,0 0,-9.69401 0,-19.38802 0,-29.08203 6.386719,0 12.773437,0 19.160156,0 -0.265319,1.02038 0.541637,3.11303 -0.419595,3.4375 -4.957792,0 -9.915583,0 -14.873374,0 0,2.65625 0,5.3125 0,7.96875 5.097656,0 10.195313,0 15.292969,0 -0.265319,1.02038 0.541637,3.11303 -0.419595,3.4375 -4.957792,0 -9.915583,0 -14.873374,0 0,3.60026 0,7.20052 0,10.80078 5.097656,0 10.195313,0 15.292969,0 0,1.14583 0,2.29167 0,3.4375 z"
       id="path290"
       inkscape:connector-curvature="0" />
  </g>
</svg>
