<svg id="Layer_1" data-name="Layer 1" xmlns="http://www.w3.org/2000/svg" viewBox="0 0 211.98 264.45763"><title>earth</title><path d="M92.91914,105.259v7.87012l.37305-.59668q4.92406-7.94457,9.84716-7.94482,3.84156,0,8.021,3.87939l-3.582,5.96778q-3.54419-3.3567-6.56494-3.35694a7.03278,7.03278,0,0,0-5.688,3.1333,11.834,11.834,0,0,0-2.40625,7.42237v17.94091H86.09345V105.259Z"/><path d="M114.218,137.1125V129.802a30.94253,30.94253,0,0,0,5.875,3.26368,13.69858,13.69858,0,0,0,5.05468,1.25,6.32645,6.32645,0,0,0,3.65528-1.04493,3.004,3.004,0,0,0,1.52929-2.499,3.36519,3.36519,0,0,0-.98925-2.48047,23.0576,23.0576,0,0,0-4.27051-2.853q-6.56543-3.65478-8.59766-6.24755a8.96134,8.96134,0,0,1-2.03222-5.65088,7.93366,7.93366,0,0,1,3.07714-6.45313,12.17242,12.17242,0,0,1,7.92579-2.499,21.82806,21.82806,0,0,1,10.332,2.835v6.71387q-6.04248-3.6548-9.88477-3.65528a5.4885,5.4885,0,0,0-3.18848.84033,2.58425,2.58425,0,0,0-1.21289,2.22168,3.19343,3.19343,0,0,0,1.09864,2.27832,18.72921,18.72921,0,0,0,3.85937,2.61084l2.42481,1.3794q8.581,4.84863,8.582,10.73926a8.54674,8.54674,0,0,1-3.30078,6.917,12.96341,12.96341,0,0,1-8.48633,2.70312,20.71146,20.71146,0,0,1-5.44531-.65234A36.67765,36.67765,0,0,1,114.218,137.1125Z"/><path d="M144.841,157.06758V105.259h11.88477q9.126,0,14.21191,4.55079,5.08594,4.55127,5.08594,12.71923a17.513,17.513,0,0,1-4.78613,12.68116,16.21231,16.21231,0,0,1-12.19629,4.96093,21.37191,21.37191,0,0,1-7.2627-1.4541v18.35059Zm11.73828-45.46729h-4.80078v21.11084a14.16429,14.16429,0,0,0,6.55078,1.6045,10.08489,10.08489,0,0,0,7.79786-3.32032,12.16653,12.16653,0,0,0,3.0332-8.541,11.9802,11.9802,0,0,0-1.43359-5.93067,8.684,8.684,0,0,0-3.90723-3.74853A17.471,17.471,0,0,0,156.57929,111.60029Z"/><path d="M105.715,206.43281A101.81445,101.81445,0,1,1,207.52949,104.61836,101.92984,101.92984,0,0,1,105.715,206.43281Zm0-195.6289a93.81445,93.81445,0,1,0,93.81445,93.81445A93.92067,93.92067,0,0,0,105.715,10.80391Z"/><path d="M74.93305,232.36934H57.61567v6.94921H73.51216v5.6836H57.61567v8.41406h18.1167V259.3H50.93305V226.57539h24Z"/><path d="M90.13471,244.58027a10.00109,10.00109,0,0,0,2.52686-.55468,1.90432,1.90432,0,0,0,1.36475-1.79883,2.12721,2.12721,0,0,0-1.04688-2.05371,6.62,6.62,0,0,0-3.07178-.56543A4.0365,4.0365,0,0,0,86.6894,240.717a4.58015,4.58015,0,0,0-.8999,2.22071H79.684a9.26227,9.26227,0,0,1,1.78369-5.21778q2.51953-3.19629,8.65186-3.19629a15.42674,15.42674,0,0,1,7.09033,1.57617q3.09962,1.57619,3.09912,5.94922v11.10157q0,1.1543.04443,2.79687a3.51383,3.51383,0,0,0,.37745,1.6875,2.26725,2.26725,0,0,0,.93261.73242V259.3H94.7812a7.02471,7.02471,0,0,1-.3999-1.377q-.11133-.64306-.17774-1.46485a13.0502,13.0502,0,0,1-3.03711,2.41993,9.17837,9.17837,0,0,1-4.64453,1.17675,8.01752,8.01752,0,0,1-5.46-1.876,6.67027,6.67027,0,0,1-2.15478-5.31739,6.8906,6.8906,0,0,1,3.4663-6.46093,15.48855,15.48855,0,0,1,5.5918-1.55371Zm3.86866,2.95313a6.96332,6.96332,0,0,1-1.22657.61035,10.35428,10.35428,0,0,1-1.69873.43262l-1.44043.2666a9.47406,9.47406,0,0,0-2.90869.86621,2.88953,2.88953,0,0,0-1.49463,2.68652,2.80518,2.80518,0,0,0,.91309,2.3418,3.4673,3.4673,0,0,0,2.2207.72168,6.60967,6.60967,0,0,0,3.8208-1.19922q1.74756-1.19825,1.81446-4.37305Z"/><path d="M119.28022,234.53438c.082.00781.2627.01855.54395.0332V241.05c-.39942-.044-.75391-.07324-1.06543-.08789q-.46583-.022-.75488-.02246-3.81885,0-5.12793,2.48633a9.67316,9.67316,0,0,0-.7334,4.30664V259.3H105.771V235.10078h6.03857v4.21777a13.37666,13.37666,0,0,1,2.55371-3.30761,6.95087,6.95087,0,0,1,4.61816-1.48731C119.09956,234.52363,119.19917,234.52656,119.28022,234.53438Z"/><path d="M121.04585,239.8293v-4.50684h3.374v-6.749h6.26074v6.749h3.92969v4.50684h-3.92969v12.78808a2.87492,2.87492,0,0,0,.37793,1.85352,4.15525,4.15525,0,0,0,2.3086.36621c.19238,0,.3955-.00293.61035-.01074.21484-.00684.42578-.01856.63281-.03321v4.72852l-2.99707.11133q-4.48389.15526-6.12695-1.55371a4.62585,4.62585,0,0,1-1.06641-3.35254V239.8293Z"/><path d="M156.06538,235.23457a7.114,7.114,0,0,1,2.99512,2.377,6.34266,6.34266,0,0,1,1.21582,2.78907,34.52275,34.52275,0,0,1,.2207,4.67773V259.3h-6.46V244.56367a6.5316,6.5316,0,0,0-.66113-3.15625,3.31349,3.31349,0,0,0-3.26172-1.68945,4.4756,4.4756,0,0,0-3.78028,1.67871,7.728,7.728,0,0,0-1.28906,4.79V259.3h-6.32715V226.68574h6.32715v11.54492a7.7361,7.7361,0,0,1,3.17285-2.9414,8.93238,8.93238,0,0,1,3.791-.833A10.24081,10.24081,0,0,1,156.06538,235.23457Z"/></svg>