<?xml version="1.0" encoding="UTF-8" standalone="no"?>
<svg
   role="img"
   viewBox="633.57 33.32 158.52794 208.98233"
   version="1.1"
   id="svg8"
   sodipodi:docname="edl.svg"
   width="158.52794"
   height="208.98233"
   inkscape:version="1.4 (e7c3feb1, 2024-10-09)"
   xmlns:inkscape="http://www.inkscape.org/namespaces/inkscape"
   xmlns:sodipodi="http://sodipodi.sourceforge.net/DTD/sodipodi-0.dtd"
   xmlns="http://www.w3.org/2000/svg"
   xmlns:svg="http://www.w3.org/2000/svg">
  <defs
     id="defs8" />
  <sodipodi:namedview
     id="namedview8"
     pagecolor="#ffffff"
     bordercolor="#000000"
     borderopacity="0.25"
     inkscape:showpageshadow="2"
     inkscape:pageopacity="0.0"
     inkscape:pagecheckerboard="0"
     inkscape:deskcolor="#d1d1d1"
     inkscape:zoom="1"
     inkscape:cx="75.5"
     inkscape:cy="105"
     inkscape:current-layer="svg8" />
  <linearGradient
     id="a"
     x1="704.034"
     x2="1019.676"
     y1="112.955"
     y2="509.97299"
     gradientTransform="rotate(45.001,729.09416,119.57976)"
     gradientUnits="userSpaceOnUse">
    <stop
       offset="0"
       stop-color="#fff"
       id="stop1" />
    <stop
       offset="1"
       id="stop2" />
  </linearGradient>
  <path
     fill="url(#a)"
     d="m 730.89333,34.371324 -96.271,96.270996 78.96,78.961 75.943,-76.111 -1.584,-42.072996 -57.048,-57.048"
     id="path2"
     style="fill:url(#a)" />
  <path
     fill="none"
     stroke="#231f20"
     stroke-width="3"
     d="m 731.96333,35.441324 -96.272,96.270996 78.96,78.96 75.944,-76.11 -0.171,-40.658996 z"
     id="path3" />
  <path
     fill="#ffffff"
     stroke="#231f20"
     stroke-width="3"
     d="m 788.30333,93.196324 -19.538,19.537996 19.708,19.707"
     id="path4" />
  <path
     fill="none"
     stroke="#231f20"
     stroke-width="4"
     d="m 707.24733,74.619324 11.358,11.358 m 6.897,6.897 21.094,21.093996 m 5.274,5.274 21.094,21.094 m -70.613,-60.820996 11.359,11.358 m 6.896,6.897 21.095,21.093996 m 5.273,5.274 21.094,21.094 m -70.613,-60.820996 11.358,11.358 m 6.897,6.896996 21.094,21.094 m 5.274,5.274 21.094,21.094 m -70.613,-60.820996 11.359,11.357996 m 6.896,6.897 21.094,21.094 m 5.274,5.274 21.094,21.094 m -70.613,-60.821996 11.358,11.358996 m 6.897,6.897 21.094,21.094 m 5.274,5.273 21.095,21.095 m -70.614,-60.820996 11.359,11.357996 m 6.896,6.897 21.094,21.095 m 5.273,5.273 21.095,21.094"
     id="path5" />
  <path
     fill="#be1e2d"
     d="m 677.76633,118.54832 c -3.328,3.328 -6.416,3.916 -8.57,1.762 -1.912,-1.912 -1.431,-5.016 1.777,-8.284 3.299,-3.299 6.521,-3.661 8.511,-1.672 2.048,2.048 1.4,5.076 -1.718,8.194 z m -5.467,-5.166 c -2.546,2.545 -3.209,4.773 -2.004,5.979 1.341,1.341 3.57,0.407 6.07,-2.093 2.41,-2.41 3.389,-4.595 2.004,-5.979 -1.145,-1.146 -3.404,-0.573 -6.07,2.093 z m 12.893,12.592 c -3.328,3.329 -6.415,3.917 -8.568,1.764 -1.914,-1.914 -1.432,-5.017 1.776,-8.285 3.299,-3.299 6.522,-3.66 8.511,-1.672 2.049,2.048 1.4,5.076 -1.719,8.193 z m -5.467,-5.166 c -2.545,2.546 -3.207,4.775 -2.002,5.98 1.34,1.34 3.568,0.406 6.068,-2.094 2.41,-2.41 3.391,-4.594 2.004,-5.98 -1.144,-1.144 -3.404,-0.572 -6.07,2.094 z m 2.26,10.424 c 0.558,-0.558 1.326,-0.572 1.838,-0.061 0.542,0.542 0.497,1.28 -0.061,1.838 -0.527,0.527 -1.28,0.587 -1.838,0.029 -0.511,-0.511 -0.466,-1.279 0.061,-1.806 z m 5.317,-5.318 c 0.558,-0.558 1.325,-0.572 1.837,-0.06 0.543,0.541 0.498,1.279 -0.06,1.837 -0.527,0.527 -1.28,0.587 -1.838,0.03 -0.511,-0.511 -0.466,-1.279 0.061,-1.807 z m -3.387,8.783 0.812,-0.812 2.049,0.029 c 4.881,0.121 7.29,0 8.766,-1.477 0.994,-0.994 1.446,-2.379 -0.016,-3.84 -0.889,-0.889 -2.076,-1.176 -2.906,-1.251 l 0.512,-1.356 a 6.133,6.133 0 0 1 3.752,1.764 c 2.108,2.108 1.551,4.443 0.15,5.844 -1.808,1.808 -4.58,1.959 -8.631,1.883 l -1.492,-0.045 -0.029,0.029 4.384,4.384 -1.101,1.101 z m 21.947,4.595 -3.736,-3.736 -2.893,2.139 c 0.256,0.195 0.482,0.393 0.844,0.754 0.769,0.769 1.355,1.656 1.582,2.636 0.346,1.189 0.12,2.681 -1.1,3.901 -1.913,1.912 -4.865,1.822 -6.988,-0.301 -1.07,-1.07 -1.658,-2.26 -1.838,-3.043 l 1.34,-0.678 c 0.166,0.647 0.662,1.746 1.566,2.65 1.234,1.234 3.133,1.506 4.429,0.181 1.265,-1.265 1.296,-3.013 -0.647,-4.956 a 14.914,14.914 0 0 0 -1.461,-1.279 l 5.332,-4.066 4.684,4.684 z m -6.206,9.61 c 0.558,-0.557 1.325,-0.572 1.837,-0.061 0.543,0.543 0.498,1.281 -0.06,1.838 -0.527,0.527 -1.28,0.588 -1.838,0.03 -0.511,-0.511 -0.466,-1.28 0.061,-1.807 z m 5.317,-5.317 c 0.557,-0.558 1.324,-0.573 1.837,-0.061 0.542,0.542 0.497,1.28 -0.06,1.838 -0.527,0.527 -1.281,0.587 -1.838,0.029 -0.511,-0.511 -0.466,-1.278 0.061,-1.806 z m 8.043,3.104 -0.029,-0.031 -2.621,-0.783 0.754,-1.264 3.283,0.994 1.129,1.129 -9.791,9.791 -1.279,-1.281 z m -4.005,13.105 0.813,-0.813 2.049,0.03 c 4.88,0.12 7.289,-0.001 8.766,-1.477 0.994,-0.994 1.445,-2.38 -0.016,-3.841 -0.889,-0.889 -2.078,-1.175 -2.906,-1.251 l 0.512,-1.355 a 6.128,6.128 0 0 1 3.75,1.762 c 2.109,2.109 1.552,4.444 0.15,5.846 -1.807,1.807 -4.578,1.957 -8.629,1.883 l -1.492,-0.046 -0.029,0.03 4.383,4.383 -1.1,1.1 z m 8.315,6.778 c 0.558,-0.557 1.325,-0.572 1.837,-0.061 0.543,0.543 0.498,1.281 -0.06,1.838 -0.527,0.527 -1.28,0.588 -1.838,0.03 -0.511,-0.512 -0.467,-1.28 0.061,-1.807 z m 5.317,-5.317 c 0.557,-0.558 1.324,-0.572 1.837,-0.061 0.542,0.542 0.497,1.28 -0.06,1.838 -0.527,0.527 -1.281,0.587 -1.838,0.029 -0.511,-0.511 -0.466,-1.278 0.061,-1.806 z m -3.388,8.782 0.813,-0.813 2.048,0.029 c 4.881,0.121 7.291,0 8.767,-1.476 0.994,-0.994 1.446,-2.38 -0.016,-3.841 -0.889,-0.889 -2.077,-1.175 -2.907,-1.25 l 0.513,-1.356 a 6.132,6.132 0 0 1 3.751,1.763 c 2.109,2.109 1.551,4.443 0.15,5.845 -1.807,1.808 -4.579,1.958 -8.631,1.882 l -1.491,-0.045 -0.03,0.029 4.385,4.385 -1.101,1.1 z m 11.523,11.525 2.682,-2.682 -4.549,-4.549 0.858,-0.859 10.618,-1.883 1.432,1.432 -6.086,6.084 1.371,1.371 -1.023,1.025 -1.371,-1.371 -2.682,2.681 z m 3.706,-3.706 3.269,-3.269 a 36.503,36.503 0 0 1 1.581,-1.491 l -0.045,-0.045 c -0.874,0.271 -1.537,0.451 -2.259,0.632 l -5.725,0.934 -0.029,0.031 z m -37.146,57.096 c 0.062,3.69 2.388,5.209 5.147,5.209 1.953,0 3.162,-0.341 4.154,-0.774 l 0.496,1.953 c -0.961,0.435 -2.635,0.961 -5.023,0.961 -4.619,0 -7.379,-3.069 -7.379,-7.597 0,-4.526 2.666,-8.061 7.039,-8.061 4.93,0 6.201,4.278 6.201,7.038 0,0.558 -0.031,0.961 -0.094,1.271 z m 7.999,-1.953 c 0.031,-1.705 -0.713,-4.402 -3.782,-4.402 -2.79,0 -3.969,2.512 -4.187,4.402 z m 21.421,-13.052 v 18.138 c 0,1.333 0.062,2.853 0.124,3.876 h -2.419 l -0.123,-2.604 h -0.094 c -0.807,1.675 -2.604,2.945 -5.054,2.945 -3.628,0 -6.449,-3.069 -6.449,-7.627 -0.03,-4.992 3.101,-8.03 6.728,-8.03 2.326,0 3.846,1.085 4.527,2.263 h 0.062 v -8.96 h 2.698 z m -2.697,13.115 c 0,-0.342 -0.031,-0.807 -0.125,-1.147 -0.402,-1.705 -1.891,-3.132 -3.938,-3.132 -2.82,0 -4.496,2.48 -4.496,5.768 0,3.038 1.52,5.55 4.435,5.55 1.829,0 3.503,-1.24 3.999,-3.256 a 4.69,4.69 0 0 0 0.125,-1.178 z m 9.733,-13.115 h 2.729 v 22.014 h -2.729 z"
     id="path6" />
</svg>
