<svg xmlns="http://www.w3.org/2000/svg" role="img" viewBox="633.57 33.32 166.61 217.36"><linearGradient id="a" x1="704.034" x2="1019.676" y1="112.955" y2="509.973" gradientTransform="rotate(45.001 726.05 126.695)" gradientUnits="userSpaceOnUse"><stop offset="0" stop-color="#fff"/><stop offset="1"/></linearGradient><path fill="url(#a)" d="M735.033 38.608l-96.271 96.271 78.96 78.961 75.943-76.111-1.584-42.073-57.048-57.048"/><path fill="none" stroke="#231F20" stroke-width="3" d="M736.103 39.678l-96.272 96.271 78.96 78.96 75.944-76.11-.171-40.659z"/><path fill="#FFF" stroke="#231F20" stroke-width="3" d="M792.443 97.433l-19.538 19.538 19.708 19.707"/><path fill="none" stroke="#231F20" stroke-width="4" d="M711.387 78.856l11.358 11.358m6.897 6.897l21.094 21.094m5.274 5.274l21.094 21.094m-70.613-60.821L717.85 95.11m6.896 6.897l21.095 21.094m5.273 5.274l21.094 21.094m-70.613-60.821l11.358 11.358m6.897 6.897l21.094 21.094m5.274 5.274l21.094 21.094m-70.613-60.821l11.359 11.358m6.896 6.897l21.094 21.094m5.274 5.274l21.094 21.094m-70.613-60.822l11.358 11.359m6.897 6.897l21.094 21.094m5.274 5.273l21.095 21.095m-70.614-60.821l11.359 11.358m6.896 6.897l21.094 21.095m5.273 5.273l21.095 21.094"/><path fill="#BE1E2D" d="M681.906 122.785c-3.328 3.328-6.416 3.916-8.57 1.762-1.912-1.912-1.431-5.016 1.777-8.284 3.299-3.299 6.521-3.661 8.511-1.672 2.048 2.048 1.4 5.076-1.718 8.194zm-5.467-5.166c-2.546 2.545-3.209 4.773-2.004 5.979 1.341 1.341 3.57.407 6.07-2.093 2.41-2.41 3.389-4.595 2.004-5.979-1.145-1.146-3.404-.573-6.07 2.093zm12.893 12.592c-3.328 3.329-6.415 3.917-8.568 1.764-1.914-1.914-1.432-5.017 1.776-8.285 3.299-3.299 6.522-3.66 8.511-1.672 2.049 2.048 1.4 5.076-1.719 8.193zm-5.467-5.166c-2.545 2.546-3.207 4.775-2.002 5.98 1.34 1.34 3.568.406 6.068-2.094 2.41-2.41 3.391-4.594 2.004-5.98-1.144-1.144-3.404-.572-6.07 2.094zm2.26 10.424c.558-.558 1.326-.572 1.838-.061.542.542.497 1.28-.061 1.838-.527.527-1.28.587-1.838.029-.511-.511-.466-1.279.061-1.806zm5.317-5.318c.558-.558 1.325-.572 1.837-.06.543.541.498 1.279-.06 1.837-.527.527-1.28.587-1.838.03-.511-.511-.466-1.279.061-1.807zm-3.387 8.783l.812-.812 2.049.029c4.881.121 7.29 0 8.766-1.477.994-.994 1.446-2.379-.016-3.84-.889-.889-2.076-1.176-2.906-1.251l.512-1.356a6.133 6.133 0 0 1 3.752 1.764c2.108 2.108 1.551 4.443.15 5.844-1.808 1.808-4.58 1.959-8.631 1.883l-1.492-.045-.029.029 4.384 4.384-1.101 1.101-6.25-6.253zm21.947 4.595l-3.736-3.736-2.893 2.139c.256.195.482.393.844.754.769.769 1.355 1.656 1.582 2.636.346 1.189.12 2.681-1.1 3.901-1.913 1.912-4.865 1.822-6.988-.301-1.07-1.07-1.658-2.26-1.838-3.043l1.34-.678c.166.647.662 1.746 1.566 2.65 1.234 1.234 3.133 1.506 4.429.181 1.265-1.265 1.296-3.013-.647-4.956a14.914 14.914 0 0 0-1.461-1.279l5.332-4.066 4.684 4.684-1.114 1.114zm-6.206 9.61c.558-.557 1.325-.572 1.837-.061.543.543.498 1.281-.06 1.838-.527.527-1.28.588-1.838.03-.511-.511-.466-1.28.061-1.807zm5.317-5.317c.557-.558 1.324-.573 1.837-.061.542.542.497 1.28-.06 1.838-.527.527-1.281.587-1.838.029-.511-.511-.466-1.278.061-1.806zm8.043 3.104l-.029-.031-2.621-.783.754-1.264 3.283.994 1.129 1.129-9.791 9.791-1.279-1.281 8.554-8.555zm-4.005 13.105l.813-.813 2.049.03c4.88.12 7.289-.001 8.766-1.477.994-.994 1.445-2.38-.016-3.841-.889-.889-2.078-1.175-2.906-1.251l.512-1.355a6.128 6.128 0 0 1 3.75 1.762c2.109 2.109 1.552 4.444.15 5.846-1.807 1.807-4.578 1.957-8.629 1.883l-1.492-.046-.029.03 4.383 4.383-1.1 1.1-6.251-6.251zm8.315 6.778c.558-.557 1.325-.572 1.837-.061.543.543.498 1.281-.06 1.838-.527.527-1.28.588-1.838.03-.511-.512-.467-1.28.061-1.807zm5.317-5.317c.557-.558 1.324-.572 1.837-.061.542.542.497 1.28-.06 1.838-.527.527-1.281.587-1.838.029-.511-.511-.466-1.278.061-1.806zm-3.388 8.782l.813-.813 2.048.029c4.881.121 7.291 0 8.767-1.476.994-.994 1.446-2.38-.016-3.841-.889-.889-2.077-1.175-2.907-1.25l.513-1.356a6.132 6.132 0 0 1 3.751 1.763c2.109 2.109 1.551 4.443.15 5.845-1.807 1.808-4.579 1.958-8.631 1.882l-1.491-.045-.03.029 4.385 4.385-1.101 1.1-6.251-6.252zm11.523 11.525l2.682-2.682-4.549-4.549.858-.859 10.618-1.883 1.432 1.432-6.086 6.084 1.371 1.371-1.023 1.025-1.371-1.371-2.682 2.681-1.25-1.249zm3.706-3.706l3.269-3.269a36.503 36.503 0 0 1 1.581-1.491l-.045-.045c-.874.271-1.537.451-2.259.632l-5.725.934-.029.031 3.208 3.208zm-37.146 57.096c.062 3.69 2.388 5.209 5.147 5.209 1.953 0 3.162-.341 4.154-.774l.496 1.953c-.961.435-2.635.961-5.023.961-4.619 0-7.379-3.069-7.379-7.597 0-4.526 2.666-8.061 7.039-8.061 4.93 0 6.201 4.278 6.201 7.038 0 .558-.031.961-.094 1.271h-10.541zm7.999-1.953c.031-1.705-.713-4.402-3.782-4.402-2.79 0-3.969 2.512-4.187 4.402h7.969zm21.421-13.052v18.138c0 1.333.062 2.853.124 3.876h-2.419l-.123-2.604h-.094c-.807 1.675-2.604 2.945-5.054 2.945-3.628 0-6.449-3.069-6.449-7.627-.03-4.992 3.101-8.03 6.728-8.03 2.326 0 3.846 1.085 4.527 2.263h.062v-8.96h2.698zm-2.697 13.115c0-.342-.031-.807-.125-1.147-.402-1.705-1.891-3.132-3.938-3.132-2.82 0-4.496 2.48-4.496 5.768 0 3.038 1.52 5.55 4.435 5.55 1.829 0 3.503-1.24 3.999-3.256a4.69 4.69 0 0 0 .125-1.178v-2.605zm9.733-13.115h2.729v22.014h-2.729v-22.014z"/><path fill="none" d="M345.5 16.889h254.996v270H345.5z"/><path fill="none" d="M600 16.889h254v270H600zm2 270h254v270H602zm-256.5 0h256v270h-256z"/></svg>