<?xml version="1.0" encoding="UTF-8" standalone="no"?>
<svg
   xmlns:dc="http://purl.org/dc/elements/1.1/"
   xmlns:cc="http://creativecommons.org/ns#"
   xmlns:rdf="http://www.w3.org/1999/02/22-rdf-syntax-ns#"
   xmlns:svg="http://www.w3.org/2000/svg"
   xmlns="http://www.w3.org/2000/svg"
   xmlns:sodipodi="http://sodipodi.sourceforge.net/DTD/sodipodi-0.dtd"
   xmlns:inkscape="http://www.inkscape.org/namespaces/inkscape"
   inkscape:version="1.0beta1 (fe3e306, 2019-09-17)"
   sodipodi:docname="embree.svg"
   id="svg16"
   version="1.1"
   height="70.512253"
   width="78.864456">
  <metadata
     id="metadata22">
    <rdf:RDF>
      <cc:Work
         rdf:about="">
        <dc:format>image/svg+xml</dc:format>
        <dc:type
           rdf:resource="http://purl.org/dc/dcmitype/StillImage" />
        <dc:title></dc:title>
      </cc:Work>
    </rdf:RDF>
  </metadata>
  <defs
     id="defs20" />
  <sodipodi:namedview
     inkscape:current-layer="svg16"
     inkscape:window-maximized="0"
     inkscape:window-y="23"
     inkscape:window-x="57"
     inkscape:cy="60.943985"
     inkscape:cx="249.12508"
     inkscape:zoom="1.4"
     showgrid="false"
     id="namedview18"
     inkscape:window-height="907"
     inkscape:window-width="1678"
     inkscape:pageshadow="2"
     inkscape:pageopacity="0"
     guidetolerance="10"
     gridtolerance="10"
     objecttolerance="10"
     borderopacity="1"
     inkscape:document-rotation="0"
     bordercolor="#666666"
     pagecolor="#ffffff" />
  <g
     transform="translate(-0.16063284,-0.48458595)"
     id="g14"
     fill="#0071C5">
    <path
       inkscape:connector-curvature="0"
       id="path10"
       d="M 78.676,15.258 C 74.98,-2.79 39.938,-3.934 17.352,9.816 v 1.52 c 22.562,-11.602 54.566,-11.527 57.48,5.094 0.977,5.5 -2.121,11.23 -7.656,14.53 v 4.313 c 6.656,-2.441 13.484,-10.34 11.5,-20.015 M 37.62,46.848 C 22.04,48.285 5.797,46.02 3.52,33.844 2.406,27.84 5.145,21.473 8.773,17.516 V 15.402 C 2.238,21.132 -1.305,28.387 0.738,36.953 3.344,47.945 17.281,54.168 38.558,52.102 46.98,51.285 57.996,48.574 65.66,44.367 v -5.976 c -6.957,4.144 -18.457,7.57 -28.039,8.457" />
    <path
       inkscape:connector-curvature="0"
       id="path12"
       d="m 64.398,12.633 h -4.085 v 18.195 c 0,2.133 1.03,3.988 4.085,4.285 z m -48.652,6.644 h -4.094 l -0.004,11.887 c 0,2.14 1.036,3.992 4.098,4.285 z m -4.094,-2.218 h 4.082 v -3.875 h -4.082 z m 28.563,18.203 c -3.305,0 -4.703,-2.301 -4.703,-4.567 V 14.91 h 4.047 v 4.363 h 3.05 v 3.274 h -3.05 v 7.898 c 0,0.926 0.437,1.438 1.402,1.438 h 1.648 v 3.379 H 40.215 M 50.96,22.355 c -1.386,0 -2.448,0.715 -2.901,1.676 -0.262,0.578 -0.36,1.031 -0.387,1.742 h 6.238 c -0.078,-1.742 -0.867,-3.418 -2.95,-3.418 m -3.288,6.18 c 0,2.07 1.293,3.598 3.586,3.598 1.797,0 2.683,-0.5 3.722,-1.528 l 2.504,2.387 c -1.605,1.586 -3.289,2.547 -6.254,2.547 -3.878,0 -7.59,-2.113 -7.59,-8.281 0,-5.274 3.247,-8.254 7.5,-8.254 4.325,0 6.81,3.488 6.81,8.07 v 1.461 H 47.671 M 26.746,22.547 c 1.188,0 1.684,0.586 1.684,1.539 v 11.2 h 4.05 V 24.061 c 0,-2.273 -1.21,-4.78 -4.77,-4.78 l -8.366,-0.005 v 16.008 h 4.05 V 22.547 Z" />
  </g>
  <g
     style="font-style:normal;font-weight:normal;font-size:18.6667px;line-height:1.25;font-family:sans-serif;fill:#000000;fill-opacity:1;stroke:none"
     id="text26"
     aria-label="Embree">
    <path
       d="M 35.208984,56.046875 V 70.230469 H 36.8125 l 0.109375,-0.47461 c 0.419272,0.230904 0.84592,0.413195 1.277344,0.546875 0.431424,0.139758 0.93446,0.208985 1.511719,0.208985 0.619792,0 1.188584,-0.118489 1.705078,-0.355469 0.516494,-0.243056 0.990451,-0.603949 1.421875,-1.083984 0.407119,-0.461807 0.729817,-1.032334 0.966797,-1.712891 0.243055,-0.680557 0.363281,-1.446179 0.363281,-2.296875 0,-1.683163 -0.348089,-2.986544 -1.046875,-3.910156 -0.69271,-0.923613 -1.640623,-1.386719 -2.84375,-1.386719 -0.674481,0 -1.28342,0.127604 -1.824219,0.382813 -0.540799,0.249132 -1.051214,0.57183 -1.53125,0.966796 V 56.046875 Z M 5.3769531,56.658203 V 70.230469 H 14.318359 V 68.625 H 7.1816406 V 63.585938 H 14.318359 V 61.980469 H 7.1816406 v -3.71875 h 7.1367184 v -1.603516 z m 16.6874999,3.107422 c -0.601564,0 -1.168402,0.125868 -1.703125,0.375 -0.528647,0.249133 -1.06098,0.595485 -1.595703,1.039063 v -1.13086 h -1.712891 v 10.181641 h 1.712891 v -7.601563 c 0.467883,-0.358507 0.936414,-0.653862 1.404297,-0.884765 0.473959,-0.230904 0.944227,-0.345703 1.412109,-0.345703 0.492189,-10e-7 0.869575,0.06554 1.13086,0.199218 0.261285,0.127605 0.461805,0.322699 0.601562,0.583985 0.127603,0.243056 0.209634,0.56749 0.246094,0.974609 0.04253,0.401042 0.0625,0.82769 0.0625,1.277344 v 5.796875 h 1.714844 v -6.517578 c 0,-0.182292 -0.0074,-0.364583 -0.01953,-0.546875 -0.01215,-0.188368 -0.0267,-0.352431 -0.04492,-0.492188 0.480035,-0.370661 0.959417,-0.67513 1.439453,-0.912109 0.480035,-0.243056 0.961371,-0.363281 1.441406,-0.363281 0.492189,0 0.867621,0.06554 1.128906,0.199218 0.261285,0.133681 0.461806,0.332465 0.601563,0.59375 0.127603,0.243056 0.209633,0.567491 0.246093,0.97461 0.04253,0.407119 0.06445,0.830077 0.06445,1.267578 v 5.796875 h 1.712891 v -6.609375 c 0,-1.21528 -0.266058,-2.159505 -0.800781,-2.833985 -0.528647,-0.680556 -1.352645,-1.021484 -2.470703,-1.021484 -0.650175,0 -1.26085,0.131293 -1.832031,0.392578 -0.571183,0.255209 -1.203776,0.674479 -1.896485,1.257813 -0.236979,-0.516494 -0.597872,-0.921224 -1.083984,-1.212891 -0.480036,-0.291667 -1.067057,-0.4375 -1.759766,-0.4375 z m 36.988281,0 c -1.482641,0 -2.680336,0.49045 -3.591796,1.46875 -0.905384,0.978301 -1.357422,2.29991 -1.357422,3.964844 0,1.683162 0.473956,2.982854 1.421875,3.90039 0.947918,0.91146 2.265839,1.367188 3.955078,1.367188 0.662328,0 1.294921,-0.08203 1.896484,-0.246094 0.601563,-0.164063 1.19032,-0.368272 1.767578,-0.611328 v -1.867187 h -0.08984 c -0.297744,0.267361 -0.799044,0.540798 -1.503907,0.820312 -0.698786,0.273438 -1.395181,0.410156 -2.08789,0.410156 -0.522571,0 -1.001953,-0.07292 -1.439453,-0.21875 -0.431424,-0.145833 -0.805122,-0.364582 -1.121094,-0.65625 -0.328126,-0.297744 -0.587023,-0.678819 -0.775391,-1.140625 -0.188369,-0.467882 -0.283203,-1.014755 -0.283203,-1.640625 h 7.501953 v -0.929687 c 0,-1.476566 -0.373696,-2.615884 -1.121094,-3.417969 -0.74132,-0.802085 -1.798608,-1.203125 -3.171875,-1.203125 z m 11.119141,0 c -1.482641,0 -2.678384,0.49045 -3.589844,1.46875 -0.905384,0.978301 -1.359375,2.29991 -1.359375,3.964844 0,1.683162 0.473957,2.982854 1.421875,3.90039 0.947919,0.91146 2.267793,1.367188 3.957031,1.367188 0.662328,0 1.292968,-0.08203 1.894532,-0.246094 0.601563,-0.164063 1.192273,-0.368272 1.769531,-0.611328 v -1.867187 h -0.0918 c -0.297743,0.267361 -0.799043,0.540798 -1.503906,0.820312 -0.698786,0.273438 -1.395181,0.410156 -2.087891,0.410156 -0.52257,0 -1.001952,-0.07292 -1.439453,-0.21875 -0.431424,-0.145833 -0.805121,-0.364582 -1.121094,-0.65625 -0.328126,-0.297744 -0.587022,-0.678819 -0.77539,-1.140625 -0.188369,-0.467882 -0.28125,-1.014755 -0.28125,-1.640625 h 7.5 v -0.929687 c 0,-1.476566 -0.373697,-2.615884 -1.121094,-3.417969 -0.741321,-0.802085 -1.798608,-1.203125 -3.171875,-1.203125 z m -23.332031,0.283203 v 10.181641 h 1.71289 v -7.228516 c 0.45573,-0.370661 0.929687,-0.67144 1.421875,-0.902344 0.492188,-0.236979 1.002604,-0.355468 1.53125,-0.355468 0.328126,0 0.610677,0.01454 0.847657,0.04492 0.243056,0.0243 0.492838,0.06814 0.748046,0.128907 h 0.08984 v -1.759766 c -0.267361,-0.04253 -0.467882,-0.06988 -0.601562,-0.08203 -0.133681,-0.01823 -0.348741,-0.02734 -0.646485,-0.02734 -0.540799,0 -1.073132,0.1148 -1.595703,0.345703 -0.516494,0.224827 -1.114365,0.611327 -1.794922,1.158203 v -1.503906 z m 12.121094,1.13086 c 0.91146,-10e-7 1.589625,0.246093 2.033203,0.738281 0.449663,0.492188 0.677527,1.18663 0.683593,2.085937 H 55.84375 c 0.07292,-0.802085 0.381075,-1.472872 0.921875,-2.013672 0.546875,-0.540799 1.277776,-0.810546 2.195313,-0.810546 z m 11.121093,0 c 0.91146,-10e-7 1.587673,0.246093 2.03125,0.738281 0.449664,0.492188 0.677527,1.18663 0.683594,2.085937 h -5.832031 c 0.07292,-0.802085 0.379122,-1.472872 0.919922,-2.013672 0.546876,-0.540799 1.279729,-0.810546 2.197265,-0.810546 z m -30.224609,0.21875 c 0.893231,0 1.540363,0.31532 1.941406,0.947265 0.401043,0.625869 0.601563,1.546439 0.601563,2.761719 0,1.330731 -0.269747,2.309677 -0.810547,2.935547 -0.534724,0.619792 -1.276692,0.929687 -2.22461,0.929687 -0.443577,0 -0.840928,-0.04384 -1.193359,-0.128906 -0.346355,-0.08507 -0.763888,-0.236327 -1.25,-0.455078 v -5.833984 c 0.437501,-0.340278 0.911457,-0.615452 1.421875,-0.828126 0.510417,-0.21875 1.015407,-0.328124 1.513672,-0.328124 z"
       inkscape:original="M 35.208984 56.046875 L 35.208984 70.230469 L 36.8125 70.230469 L 36.921875 69.755859 C 37.341147 69.986763 37.767795 70.169054 38.199219 70.302734 C 38.630643 70.442492 39.133679 70.511719 39.710938 70.511719 C 40.33073 70.511719 40.899522 70.39323 41.416016 70.15625 C 41.93251 69.913194 42.406467 69.552301 42.837891 69.072266 C 43.24501 68.610459 43.567708 68.039932 43.804688 67.359375 C 44.047743 66.678818 44.167969 65.913196 44.167969 65.0625 C 44.167969 63.379337 43.81988 62.075956 43.121094 61.152344 C 42.428384 60.228731 41.480471 59.765625 40.277344 59.765625 C 39.602863 59.765625 38.993924 59.893229 38.453125 60.148438 C 37.912326 60.39757 37.401911 60.720268 36.921875 61.115234 L 36.921875 56.046875 L 35.208984 56.046875 z M 5.3769531 56.658203 L 5.3769531 70.230469 L 14.318359 70.230469 L 14.318359 68.625 L 7.1816406 68.625 L 7.1816406 63.585938 L 14.318359 63.585938 L 14.318359 61.980469 L 7.1816406 61.980469 L 7.1816406 58.261719 L 14.318359 58.261719 L 14.318359 56.658203 L 5.3769531 56.658203 z M 22.064453 59.765625 C 21.462889 59.765625 20.896051 59.891493 20.361328 60.140625 C 19.832681 60.389758 19.300348 60.73611 18.765625 61.179688 L 18.765625 60.048828 L 17.052734 60.048828 L 17.052734 70.230469 L 18.765625 70.230469 L 18.765625 62.628906 C 19.233508 62.270399 19.702039 61.975044 20.169922 61.744141 C 20.643881 61.513237 21.114149 61.398438 21.582031 61.398438 C 22.07422 61.398437 22.451606 61.463976 22.712891 61.597656 C 22.974176 61.725261 23.174696 61.920355 23.314453 62.181641 C 23.442056 62.424697 23.524087 62.749131 23.560547 63.15625 C 23.60308 63.557292 23.623047 63.98394 23.623047 64.433594 L 23.623047 70.230469 L 25.337891 70.230469 L 25.337891 63.712891 C 25.337891 63.530599 25.330513 63.348308 25.318359 63.166016 C 25.306206 62.977648 25.291664 62.813585 25.273438 62.673828 C 25.753473 62.303167 26.232855 61.998698 26.712891 61.761719 C 27.192926 61.518663 27.674262 61.398438 28.154297 61.398438 C 28.646486 61.398438 29.021918 61.463976 29.283203 61.597656 C 29.544488 61.731337 29.745009 61.930121 29.884766 62.191406 C 30.012369 62.434462 30.094399 62.758897 30.130859 63.166016 C 30.173393 63.573135 30.195312 63.996093 30.195312 64.433594 L 30.195312 70.230469 L 31.908203 70.230469 L 31.908203 63.621094 C 31.908203 62.405814 31.642145 61.461589 31.107422 60.787109 C 30.578775 60.106553 29.754777 59.765625 28.636719 59.765625 C 27.986544 59.765625 27.375869 59.896918 26.804688 60.158203 C 26.233505 60.413412 25.600912 60.832682 24.908203 61.416016 C 24.671224 60.899522 24.310331 60.494792 23.824219 60.203125 C 23.344183 59.911458 22.757162 59.765625 22.064453 59.765625 z M 59.052734 59.765625 C 57.570093 59.765625 56.372398 60.256075 55.460938 61.234375 C 54.555554 62.212676 54.103516 63.534285 54.103516 65.199219 C 54.103516 66.882381 54.577472 68.182073 55.525391 69.099609 C 56.473309 70.011069 57.79123 70.466797 59.480469 70.466797 C 60.142797 70.466797 60.77539 70.384766 61.376953 70.220703 C 61.978516 70.05664 62.567273 69.852431 63.144531 69.609375 L 63.144531 67.742188 L 63.054688 67.742188 C 62.756944 68.009549 62.255644 68.282986 61.550781 68.5625 C 60.851995 68.835938 60.1556 68.972656 59.462891 68.972656 C 58.94032 68.972656 58.460938 68.89974 58.023438 68.753906 C 57.592014 68.608073 57.218316 68.389324 56.902344 68.097656 C 56.574218 67.799912 56.315321 67.418837 56.126953 66.957031 C 55.938584 66.489149 55.84375 65.942276 55.84375 65.316406 L 63.345703 65.316406 L 63.345703 64.386719 C 63.345703 62.910153 62.972007 61.770835 62.224609 60.96875 C 61.483289 60.166665 60.426001 59.765625 59.052734 59.765625 z M 70.171875 59.765625 C 68.689234 59.765625 67.493491 60.256075 66.582031 61.234375 C 65.676647 62.212676 65.222656 63.534285 65.222656 65.199219 C 65.222656 66.882381 65.696613 68.182073 66.644531 69.099609 C 67.59245 70.011069 68.912324 70.466797 70.601562 70.466797 C 71.26389 70.466797 71.89453 70.384766 72.496094 70.220703 C 73.097657 70.05664 73.688367 69.852431 74.265625 69.609375 L 74.265625 67.742188 L 74.173828 67.742188 C 73.876085 68.009549 73.374785 68.282986 72.669922 68.5625 C 71.971136 68.835938 71.274741 68.972656 70.582031 68.972656 C 70.059461 68.972656 69.580079 68.89974 69.142578 68.753906 C 68.711154 68.608073 68.337457 68.389324 68.021484 68.097656 C 67.693358 67.799912 67.434462 67.418837 67.246094 66.957031 C 67.057725 66.489149 66.964844 65.942276 66.964844 65.316406 L 74.464844 65.316406 L 74.464844 64.386719 C 74.464844 62.910153 74.091147 61.770835 73.34375 60.96875 C 72.602429 60.166665 71.545142 59.765625 70.171875 59.765625 z M 46.839844 60.048828 L 46.839844 70.230469 L 48.552734 70.230469 L 48.552734 63.001953 C 49.008464 62.631292 49.482421 62.330513 49.974609 62.099609 C 50.466797 61.86263 50.977213 61.744141 51.505859 61.744141 C 51.833985 61.744141 52.116536 61.758683 52.353516 61.789062 C 52.596572 61.813365 52.846354 61.857202 53.101562 61.917969 L 53.191406 61.917969 L 53.191406 60.158203 C 52.924045 60.11567 52.723524 60.088325 52.589844 60.076172 C 52.456163 60.057945 52.241103 60.048828 51.943359 60.048828 C 51.40256 60.048828 50.870227 60.163628 50.347656 60.394531 C 49.831162 60.619358 49.233291 61.005858 48.552734 61.552734 L 48.552734 60.048828 L 46.839844 60.048828 z M 58.960938 61.179688 C 59.872398 61.179687 60.550563 61.425781 60.994141 61.917969 C 61.443804 62.410157 61.671668 63.104599 61.677734 64.003906 L 55.84375 64.003906 C 55.916667 63.201821 56.224825 62.531034 56.765625 61.990234 C 57.3125 61.449435 58.043401 61.179688 58.960938 61.179688 z M 70.082031 61.179688 C 70.993491 61.179687 71.669704 61.425781 72.113281 61.917969 C 72.562945 62.410157 72.790808 63.104599 72.796875 64.003906 L 66.964844 64.003906 C 67.03776 63.201821 67.343966 62.531034 67.884766 61.990234 C 68.431642 61.449435 69.164495 61.179688 70.082031 61.179688 z M 39.857422 61.398438 C 40.750653 61.398438 41.397785 61.713758 41.798828 62.345703 C 42.199871 62.971572 42.400391 63.892142 42.400391 65.107422 C 42.400391 66.438153 42.130644 67.417099 41.589844 68.042969 C 41.05512 68.662761 40.313152 68.972656 39.365234 68.972656 C 38.921657 68.972656 38.524306 68.928819 38.171875 68.84375 C 37.82552 68.758681 37.407987 68.607423 36.921875 68.388672 L 36.921875 62.554688 C 37.359376 62.21441 37.833332 61.939236 38.34375 61.726562 C 38.854167 61.507812 39.359157 61.398438 39.857422 61.398438 z "
       inkscape:radius="0"
       sodipodi:type="inkscape:offset"
       id="path38" />
  </g>
</svg>
