<?xml version="1.0" encoding="UTF-8" standalone="no"?>
<!-- Created with Inkscape (http://www.inkscape.org/) -->

<svg
   version="1.1"
   id="svg1"
   width="508.4491"
   height="152.95039"
   viewBox="0 0 508.4491 152.95039"
   sodipodi:docname="oneapi-word-mark-embree-stacked-3000.svg"
   inkscape:version="1.3 (0e150ed, 2023-07-21)"
   xmlns:inkscape="http://www.inkscape.org/namespaces/inkscape"
   xmlns:sodipodi="http://sodipodi.sourceforge.net/DTD/sodipodi-0.dtd"
   xmlns="http://www.w3.org/2000/svg"
   xmlns:svg="http://www.w3.org/2000/svg">
  <defs
     id="defs1" />
  <sodipodi:namedview
     id="namedview1"
     pagecolor="#ffffff"
     bordercolor="#666666"
     borderopacity="1.0"
     inkscape:showpageshadow="2"
     inkscape:pageopacity="0.0"
     inkscape:pagecheckerboard="0"
     inkscape:deskcolor="#d1d1d1"
     inkscape:zoom="1.8011347"
     inkscape:cx="253.72894"
     inkscape:cy="76.618369"
     inkscape:window-width="1080"
     inkscape:window-height="721"
     inkscape:window-x="235"
     inkscape:window-y="179"
     inkscape:window-maximized="0"
     inkscape:current-layer="g1" />
  <g
     inkscape:groupmode="layer"
     inkscape:label="Image"
     id="g1"
     transform="translate(-4.5115377,-4.8000001)">
    <g
       id="g2">
      <path
         style="fill:#b1c7d9"
         d="M 36.79784,157.28663 C 26.137916,155.26924 16.814858,149.21616 11.13613,140.62551 7.8767581,135.6948 6.3232623,131.75475 5.0931122,125.2989 4.3051187,121.16349 4.3172754,117.50298 5.1332878,113.20166 6.7152664,104.86284 10.056412,98.201034 15.35603,92.818868 21.56458,86.513613 29.469251,82.475644 37.898985,81.303176 c 3.161591,-0.439737 9.672802,-0.440799 12.826988,-0.0021 13.774946,1.915919 26.029597,11.815688 30.742327,24.834814 1.886131,5.21052 2.753619,11.63398 2.230659,16.51731 L 83.469057,124.8 H 50.374528 c -23.900814,0 -33.094529,0.098 -33.094529,0.3528 0,0.90027 1.97884,6.09903 3.023034,7.94205 2.466768,4.35386 6.786462,8.60993 11.013249,10.85101 4.777237,2.53295 10.645639,3.60864 16.442671,3.01397 8.195522,-0.8407 13.972401,-3.52197 19.079303,-8.85543 l 2.038258,-2.12869 4.341894,3.29215 c 2.388041,1.81068 4.494825,3.39555 4.681741,3.52194 0.204695,0.13841 -0.614599,1.19683 -2.060152,2.66145 -5.81972,5.89649 -12.205314,9.40129 -20.771422,11.40063 -3.67175,0.85699 -14.658231,1.11841 -18.270735,0.43475 z M 71.174004,113.36 c -0.585524,-2.59987 -0.930105,-3.64531 -1.885022,-5.719 -1.518042,-3.29658 -3.274096,-5.72674 -6.02806,-8.342095 -5.207067,-4.944984 -11.572101,-7.44779 -18.940924,-7.44779 -10.54247,0 -20.04356,5.836552 -24.725389,15.188885 -0.622286,1.24307 -2.31461,6.28545 -2.31461,6.89652 0,0.18892 10.210145,0.30348 27.046096,0.30348 h 27.046096 z m 306.585986,44.17931 c -0.528,-0.0686 -2.46123,-0.49301 -4.29605,-0.94304 -14.50883,-3.55856 -25.37128,-14.73241 -28.5469,-29.36527 -0.976,-4.49732 -0.98316,-11.20497 -0.0168,-15.711 3.02706,-14.114306 13.15297,-24.979847 27.01955,-28.993164 4.52285,-1.309022 7.93966,-1.677764 13.68017,-1.476368 5.56778,0.195337 9.07361,0.928636 13.95576,2.91907 10.93796,4.459362 19.42283,14.088927 22.38843,25.408872 1.10071,4.20147 1.61119,9.46298 1.23308,12.70926 l -0.29728,2.55233 -33.07533,0.0815 -33.07533,0.0815 0.22267,1.1985 c 0.12246,0.65918 0.62885,2.2474 1.12532,3.52937 3.21719,8.30752 9.99804,14.37666 18.72268,16.75757 3.725,1.01653 10.90958,1.00367 15.2,-0.0272 5.66996,-1.36236 10.94431,-4.43094 14.72359,-8.56607 l 1.61115,-1.76285 4.29522,3.26009 c 2.36237,1.79305 4.4477,3.44382 4.63406,3.66837 0.64884,0.7818 -6.04531,6.68719 -10.62372,9.37195 -4.17128,2.44602 -10.07485,4.43268 -15.4403,5.19596 -2.123,0.30201 -11.38171,0.37823 -13.44,0.11064 z M 410.67882,113.36 c -1.39187,-5.74074 -3.97581,-10.35803 -7.84625,-14.020602 -2.32213,-2.197415 -3.58126,-3.079458 -6.54838,-4.587257 -4.35321,-2.212168 -6.86095,-2.7555 -12.6042,-2.730852 -4.45872,0.01913 -5.25108,0.109983 -7.84,0.8989 -9.30758,2.836273 -17.22705,11.276271 -18.8879,20.129351 l -0.22333,1.19046 h 27.08171 27.08171 z m 55.40116,43.9201 c -13.9749,-2.56207 -25.37067,-12.08381 -30.06412,-25.1201 -2.06972,-5.74873 -2.6306,-13.20031 -1.48444,-19.7213 1.34892,-7.67458 4.81092,-14.325647 10.45193,-20.079896 5.46208,-5.571725 14.17943,-9.94578 22.05663,-11.067225 2.88175,-0.410262 9.91825,-0.410262 12.8,0 8.27323,1.177826 16.49779,5.408162 22.33196,11.486538 5.71434,5.953532 8.94405,12.251473 10.31532,20.114933 0.47962,2.75033 0.63791,9.081 0.27272,10.90695 l -0.2,1 h -33.08609 -33.0861 l 0.20562,0.88 c 2.01943,8.64271 8.2094,16.00594 16.28657,19.37358 4.28486,1.78649 10.08626,2.50169 15.04,1.85412 7.66367,-1.00181 12.90305,-3.52328 17.92354,-8.62576 l 2.37493,-2.41373 0.73076,0.6764 c 0.40193,0.37202 2.38677,1.92443 4.41077,3.4498 2.024,1.52537 3.68,2.91417 3.68,3.08623 0,0.17206 -1.008,1.32826 -2.24,2.56932 -6.2101,6.25579 -13.9463,10.1654 -23.03045,11.6388 -3.54716,0.57533 -12.53118,0.57037 -15.68955,-0.009 z m 34.4,-43.50358 c 0,-0.9924 -1.68194,-5.7162 -2.71186,-7.61638 -3.25069,-5.99745 -8.76591,-10.688995 -15.09703,-12.842347 -3.58208,-1.218343 -6.36144,-1.586455 -10.55781,-1.398327 -10.7702,0.48284 -20.00188,6.970615 -24.01988,16.880534 -0.5352,1.32 -1.07,2.832 -1.18845,3.36 -0.11845,0.528 -0.29022,1.212 -0.38173,1.52 -0.15752,0.53023 1.27224,0.56 26.8952,0.56 23.41272,0 27.06156,-0.0625 27.06156,-0.46348 z M 95.999996,119.36 V 81.920002 h 5.881394 5.8814 l 2.14246,3.120001 c 1.17836,1.716 3.41738,4.992 4.97561,7.28 15.96262,23.438417 22.11296,32.313157 22.32823,32.218907 0.21348,-0.0935 1.49357,-1.92115 6.98914,-9.97891 1.14034,-1.672 3.71234,-5.416 5.71554,-8.32 2.00321,-2.904 4.86539,-7.079997 6.36041,-9.279997 1.49502,-2.2 4.10944,-6.016 5.80983,-8.48 1.70039,-2.464 3.4031,-4.946218 3.7838,-5.516039 l 0.69218,-1.036039 6,-0.004 6,-0.004 V 119.36 156.8 h -6.07823 -6.07823 l -0.0818,-27.72289 -0.0818,-27.72289 -2.1368,3.16289 c -1.17524,1.73959 -3.12708,4.60289 -4.33743,6.36289 -7.62491,11.08761 -13.70222,19.92886 -15.50733,22.56 -3.99626,5.82498 -5.86278,8.51942 -6.51603,9.40632 l -0.6576,0.89279 -1.48284,-2.18955 c -0.81557,-1.20426 -2.87012,-4.20556 -4.56566,-6.66956 -1.69555,-2.464 -4.16121,-6.064 -5.47924,-8 -1.31804,-1.936 -4.17885,-6.112 -6.35737,-9.28 -2.17851,-3.168 -5.51603,-8.04074 -7.4167,-10.82832 -1.90067,-2.78757 -3.56539,-5.13607 -3.69938,-5.21888 -0.13399,-0.0828 -0.24361,12.31393 -0.24361,27.54832 V 156.8 h -5.92 -5.920004 z m 98.879994,-0.011 V 81.897985 l 20.88,0.09101 20.88,0.09101 2.62864,0.890335 c 5.24898,1.777853 9.83923,5.752944 12.22636,10.587845 1.69586,3.434805 2.34778,6.112111 2.34778,9.641815 0,4.70782 -1.72913,9.73019 -4.50757,13.09248 l -1.24744,1.50958 2.60666,2.61897 c 4.36747,4.38811 6.26557,8.97034 6.26557,15.12585 0,8.42535 -4.60071,15.66107 -12.27696,19.30845 -3.97949,1.89087 -4.76388,1.94467 -28.34955,1.94467 h -21.45349 z m 45.53401,25.4716 c 2.16567,-1.09733 4.15875,-3.13306 5.13451,-5.24437 0.55639,-1.20391 0.69073,-2.09012 0.68763,-4.53622 -0.003,-2.76254 -0.09,-3.1962 -0.94798,-4.75147 -1.35418,-2.45476 -3.51684,-4.27719 -6.07053,-5.11551 -2.04497,-0.67132 -2.58682,-0.69302 -17.30436,-0.69302 h -15.19328 v 10.73653 10.73653 l 15.92,-0.0965 15.92,-0.0965 z m -4.39207,-31.25063 c 1.79152,-0.55335 2.485,-0.98569 3.98166,-2.48236 2.45237,-2.45236 3.31287,-4.68223 3.1227,-8.09197 -0.25784,-4.62283 -2.99255,-8.255572 -7.19094,-9.552325 -1.94755,-0.601535 -2.96358,-0.643302 -15.64907,-0.643302 H 206.71999 V 103.52 114.24 h 13.56629 c 12.86504,0 13.67843,-0.0346 15.73565,-0.67004 z m 35.33806,5.78439 V 81.894569 l 21.52,0.102548 c 21.35785,0.101775 21.53802,0.108056 23.91124,0.833581 7.78525,2.380053 13.44671,7.830769 15.94968,15.355977 0.70123,2.108265 0.81846,3.038445 0.83348,6.613325 0.02,4.76009 -0.44453,6.95113 -2.2486,10.60591 -2.05674,4.16665 -6.46162,8.5668 -10.6858,10.67432 -0.792,0.39514 -1.49143,0.76417 -1.5543,0.82007 -0.0629,0.0559 0.93046,1.94619 2.20738,4.20067 1.27691,2.25447 2.68458,4.74703 3.12815,5.53903 0.44357,0.792 1.43025,2.4959 2.19263,3.78645 0.76238,1.29054 1.38614,2.38362 1.38614,2.42907 0,0.0454 1.728,3.08047 3.84,6.74448 2.112,3.66402 3.84,6.78592 3.84,6.93755 0,0.15164 -2.9137,0.23672 -6.47489,0.18908 l -6.47489,-0.0866 -2.83041,-5.12 c -1.55673,-2.816 -3.30789,-5.984 -3.89146,-7.04 -0.58358,-1.056 -2.85942,-5.16 -5.05742,-9.12 l -3.99637,-7.2 -11.71398,-0.0839 -11.71399,-0.0839 -0.0833,14.32393 -0.0833,14.32394 -6,0.0871 -6,0.0871 z m 43.00116,-3.22935 c 2.77033,-1.22968 4.77054,-3.10302 6.0192,-5.63741 0.91729,-1.86181 1.074,-2.53876 1.16653,-5.03916 0.0874,-2.36069 -0.0199,-3.2265 -0.58686,-4.73877 -0.91573,-2.442373 -2.35616,-4.282976 -4.49346,-5.741771 -3.0408,-2.075483 -3.86147,-2.167886 -19.2538,-2.167886 h -13.69277 v 12.175167 12.17516 l 14.48,-0.0952 14.48,-0.0952 z M 106.93175,62.069663 C 100.54757,60.397389 95.597598,55.816 93.19665,49.357298 92.211286,46.706607 91.849792,41.269331 92.471015,38.442954 94.111732,30.978188 100.23873,24.573662 107.36,22.879555 c 2.42885,-0.577809 7.38766,-0.588389 10.03151,-0.0214 3.33946,0.716164 6.58856,2.52952 9.15867,5.111542 4.02341,4.042067 6.04774,9.329342 5.86182,15.310344 l -0.092,2.959964 -15.12866,0.16 -15.12866,0.16 0.83691,1.679242 c 0.88704,1.779838 2.85258,3.716739 4.48436,4.419029 1.99515,0.858683 5.10985,1.192629 7.41606,0.79512 2.35209,-0.405419 5.86508,-2.10318 7.03043,-3.397679 l 0.71044,-0.789168 2.82386,2.166728 c 1.55312,1.191701 3.24942,2.504426 3.76956,2.917168 l 0.94571,0.750439 -1.97989,1.862652 c -4.10792,3.864678 -9.22827,5.77087 -15.41549,5.73885 -2.28016,-0.0118 -4.18019,-0.220771 -5.75287,-0.632719 z m 15.32583,-24.248356 c -0.70734,-2.466332 -2.27422,-4.192038 -5.00994,-5.51776 -2.2921,-1.110747 -6.6371,-1.264493 -9.13471,-0.323228 -2.91738,1.099461 -5.02941,3.269449 -5.8589,6.019682 l -0.21716,0.72 h 10.23922 10.23923 z M 82.825871,62.072592 C 78.168862,61.286723 75.414452,59.62753 73.781557,56.624509 71.875947,53.119943 71.891846,53.332285 71.764124,29.680001 L 71.647053,8.0000002 h 5.296472 5.296472 V 15.52 23.040001 h 3.68 3.68 v 4.48 4.48 h -3.68 -3.68 l 0.0018,8.24 c 10e-4,4.659919 0.14483,8.755048 0.331022,9.425445 0.343231,1.235829 1.533864,2.411128 2.679187,2.64468 0.367403,0.07492 1.496006,0.226154 2.508006,0.336073 l 1.84,0.199855 v 4.776974 4.776974 l -2.64,-0.03764 c -1.452,-0.0207 -3.312357,-0.151098 -4.134126,-0.289772 z M 11.52,42.560001 v -19.52 h 5.279999 5.28 v 19.52 19.520001 h -5.28 H 11.52 Z m 16.146935,19.120001 c -0.08414,-0.22 -0.115618,-8.968 -0.06996,-19.440001 l 0.08302,-19.04 h 5.12 5.12 v 2.480532 c 0,1.364293 0.03303,2.480293 0.07341,2.48 0.04037,-2.92e-4 0.639406,-0.612532 1.331178,-1.360532 1.588033,-1.717108 4.276836,-3.349391 6.485916,-3.937385 3.917684,-1.042776 9.915007,-0.341953 13.113289,1.532365 1.861129,1.090695 4.499163,3.916029 5.482237,5.871476 1.840495,3.660953 1.97232,4.913912 1.983606,18.853544 l 0.01036,12.800001 h -5.279999 -5.28 l -0.16,-12.329545 -0.16,-12.329545 -0.817473,-1.587502 c -1.534932,-2.980782 -4.504534,-4.52118 -8.156987,-4.231207 -3.421155,0.271609 -5.850028,1.935434 -7.303534,5.003063 l -1.002005,2.114735 -0.09805,11.760001 -0.09805,11.76 h -5.11199 c -3.794671,0 -5.151411,-0.103077 -5.264968,-0.4 z M 137.59999,33.440001 V 4.8000001 h 5.12 5.12 V 33.440001 62.080002 h -5.12 -5.12 z m 16.03034,27.496418 c -1.37298,-1.155285 -1.83912,-2.857289 -1.20088,-4.384795 0.56758,-1.358429 2.17382,-2.46923 3.57054,-2.46923 1.90372,0 4,2.011181 4,3.837608 0,0.964436 -0.81129,2.396575 -1.79676,3.171745 -1.24021,0.97555 -3.31259,0.905157 -4.5729,-0.155328 z m 4.38896,-0.871801 c 1.63394,-1.739255 0.85935,-4.465757 -1.38852,-4.88746 -1.48851,-0.279247 -2.54245,0.209112 -3.20142,1.483436 -0.61088,1.181309 -0.4134,2.365703 0.57015,3.419408 0.94181,1.008992 3.06507,1.000866 4.01979,-0.01538 z m -3.4593,-2.144616 v -2.24 h 1.09383 c 0.60161,0 1.32161,0.08741 1.6,0.194236 0.58017,0.222632 0.68486,1.73908 0.15653,2.267409 -0.25286,0.25286 -0.25286,0.530489 0,1.002963 0.46257,0.864325 0.44216,1.015392 -0.13722,1.015392 -0.26777,0 -0.65088,-0.36 -0.85136,-0.8 -0.20048,-0.44 -0.48539,-0.8 -0.63314,-0.8 -0.14775,0 -0.26864,0.36 -0.26864,0.8 0,0.497778 -0.18133,0.8 -0.48,0.8 -0.38095,0 -0.48,-0.462222 -0.48,-2.24 z m 2.16015,-0.88 c 0.0781,-0.234619 -0.14245,-0.4 -0.53348,-0.4 -0.39307,0 -0.66667,0.20662 -0.66667,0.503463 0,0.588121 0.99855,0.502037 1.20015,-0.103463 z M 11.420795,16.754129 C 11.299357,16.632692 11.2,14.105933 11.2,11.139111 V 5.7448873 l 5.519999,0.087556 5.52,0.087556 V 11.36 16.800001 l -5.299205,0.08746 c -2.914562,0.0481 -5.398562,-0.0119 -5.519999,-0.133332 z"
         id="path8" />
      <path
         style="fill:#93b1ca"
         d="M 37.279999,157.26365 C 29.023925,155.71723 21.846537,152.11449 16.375182,146.77031 9.6355648,140.18736 5.9930519,132.56819 4.7790406,122.51425 4.4197047,119.53838 4.4361442,118.62548 4.9092822,115.28184 5.6216607,110.2475 6.7304795,106.4898 8.6851928,102.48556 14.398073,90.782698 25.818846,82.805505 39.074641,81.259107 c 18.764482,-2.189031 35.666355,7.628463 42.191463,24.507013 1.637109,4.23472 2.346793,8.30049 2.37283,13.59388 0.01255,2.552 -0.08957,4.82 -0.226942,5.04 -0.197185,0.3158 -7.18453,0.4 -33.190879,0.4 -27.961901,0 -32.941114,0.0675 -32.941114,0.4463 0,0.24546 0.30453,1.43346 0.676733,2.64 2.629821,8.52486 9.537955,15.44936 17.992893,18.03552 3.516037,1.07546 6.204906,1.37923 10.441126,1.17953 8.499977,-0.40069 14.787287,-3.09887 20.237388,-8.68479 l 2.290598,-2.34768 4.42063,3.34733 c 2.431347,1.84103 4.42063,3.45699 4.42063,3.59103 0,0.61522 -3.846189,4.39302 -6.514064,6.39824 -4.960622,3.72849 -10.628579,6.23053 -17.165935,7.57768 -3.528778,0.72718 -13.524254,0.89406 -16.799999,0.28049 z M 71.356199,113.84 c -0.0079,-0.83683 -0.902592,-3.6898 -1.857751,-5.92424 C 67.05057,102.18934 62.671761,97.592341 56.900797,94.690393 41.55908,86.975759 22.994291,94.823888 17.956732,111.15371 c -0.372203,1.20654 -0.676733,2.39454 -0.676733,2.64 0,0.3782 4.125447,0.44629 27.039999,0.44629 21.420692,0 27.03921,-0.0831 27.036201,-0.4 z M 376.9347,157.28581 c -18.09897,-3.04908 -31.41546,-17.37553 -32.57519,-35.04581 -0.77003,-11.7325 3.04416,-21.94859 11.22655,-30.069704 5.29485,-5.255184 12.09869,-8.81753 20.25393,-10.604514 2.61108,-0.572142 13.12296,-0.576921 15.68,-0.0071 3.22198,0.717967 7.8787,2.298107 10.23999,3.474685 11.07659,5.519212 18.51728,15.356983 20.83589,27.548353 0.5419,2.84934 0.73948,10.15634 0.31092,11.49831 l -0.22993,0.72 H 389.6088 356.54074 l 0.47703,1.84 c 1.24555,4.80435 3.95851,9.34775 7.73774,12.9584 6.58953,6.29561 15.28423,8.75663 25.16448,7.12278 6.73978,-1.11453 11.56063,-3.5995 16.13485,-8.31691 l 2.28808,-2.35971 4.38853,3.37429 c 2.4137,1.85586 4.43099,3.48519 4.48287,3.62074 0.18854,0.49252 -5.45538,5.73709 -8.05376,7.48391 -5.38014,3.61692 -12.07868,6.08283 -18.75218,6.90318 -3.58572,0.44078 -10.4469,0.36904 -13.47368,-0.14087 z m 33.94528,-43.30941 c 0,-0.7449 -1.64589,-5.60898 -2.40959,-7.12101 -4.7955,-9.494595 -14.04057,-15.118868 -24.7904,-15.081349 -12.57068,0.04387 -23.18544,8.126061 -26.53172,20.201529 l -0.62751,2.26443 h 27.17961 c 14.94879,0 27.17961,-0.11862 27.17961,-0.2636 z m 55.68,43.30982 c -16.62242,-3.16476 -28.44537,-14.38331 -31.87571,-30.24622 -0.77891,-3.60192 -0.80605,-11.52953 -0.0521,-15.20588 3.34669,-16.317939 16.8655,-28.629132 33.57524,-30.576014 8.25878,-0.962244 16.28497,0.367337 23.47253,3.888348 10.74277,5.26262 18.28494,15.233776 20.67505,27.333546 0.46265,2.34212 0.61693,10.78119 0.21499,11.76 -0.2169,0.52823 -2.10089,0.56 -33.19999,0.56 -18.13353,0 -32.96653,0.108 -32.96222,0.24 0.0303,0.92899 0.83625,3.48048 1.77098,5.60643 3.20852,7.29751 8.95102,12.55847 16.51773,15.13264 7.03338,2.39274 16.77538,1.66408 23.5951,-1.7648 2.78965,-1.40262 6.72961,-4.42469 8.57973,-6.58094 l 1.20863,-1.40862 4,3.04414 c 5.91812,4.50391 5.65573,3.70861 2.28263,6.91854 -6.15311,5.85548 -12.18316,9.05458 -20.39938,10.82241 -4.16281,0.89569 -13.81348,1.15987 -17.40325,0.47642 z M 500.12604,111.92 c -2.46308,-9.02508 -8.87674,-15.810326 -17.73274,-18.760127 -14.16267,-4.717375 -29.39103,2.45661 -34.70488,16.349257 -0.49035,1.28198 -0.98737,2.87087 -1.10449,3.53087 l -0.21295,1.2 h 27.19412 27.19411 z M 95.999996,119.36 V 81.920002 h 5.867054 5.86706 l 2.42922,3.600001 c 1.33608,1.98 3.46526,5.112 4.73153,6.96 6.13379,8.951737 18.28124,26.713547 20.02328,29.277727 1.07698,1.58525 2.06729,2.88227 2.20069,2.88227 0.25227,0 1.00647,-1.04777 5.75852,-8 1.56391,-2.288 3.43841,-5.024 4.16554,-6.08 0.72713,-1.056 2.30817,-3.36 3.51341,-5.12 1.20525,-1.76 2.93306,-4.28 3.83958,-5.599997 2.41548,-3.517207 5.62972,-8.209195 8.05618,-11.76 1.17264,-1.716 2.62725,-3.807192 3.23246,-4.647094 l 1.1004,-1.527093 5.80753,0.08709 5.80754,0.08709 V 119.36 156.64 l -5.84,0.0872 -5.84,0.0872 v -27.91833 c 0,-27.22204 -0.0148,-27.90259 -0.59467,-27.28722 -0.32707,0.34711 -1.8638,2.50311 -3.41496,4.79111 -3.16673,4.67099 -3.87481,5.70241 -14.11034,20.55365 -2.09001,3.03251 -5.45603,7.95926 -7.48003,10.94833 -2.024,2.98907 -3.81918,5.39353 -3.9893,5.34325 -0.3036,-0.0897 -1.84996,-2.28125 -9.28959,-13.16523 -2.04515,-2.992 -4.95223,-7.24 -6.46018,-9.44 -6.83587,-9.97312 -8.97661,-13.10233 -11.10294,-16.22969 L 108,101.05991 107.9182,128.92996 107.8364,156.8 h -5.91824 -5.918244 z m 98.879994,0.001 V 81.893702 l 20.72,0.09407 20.72,0.09407 2.56,0.870888 c 6.78328,2.307609 11.73431,7.216526 13.96607,13.847265 0.64145,1.905801 0.75246,2.860654 0.74405,6.399995 -0.009,3.71091 -0.10615,4.43637 -0.90168,6.72 -0.91812,2.63557 -2.23399,4.96098 -3.85461,6.81188 l -0.92616,1.05778 2.25754,2.14517 c 3.41419,3.24426 5.2733,6.46201 6.273,10.85738 2.49708,10.97881 -4.03438,21.95949 -15.01563,25.24427 -1.72754,0.51675 -3.95603,0.57936 -24.22258,0.68052 l -22.32,0.11142 z m 45.69099,25.50798 c 2.08015,-1.096 3.82034,-2.84914 4.87185,-4.90812 0.69234,-1.35567 0.79716,-1.98169 0.79716,-4.76092 0,-2.73807 -0.11175,-3.42705 -0.77416,-4.77292 -1.00848,-2.04898 -2.95041,-3.91926 -5.14584,-4.95598 l -1.76,-0.8311 -15.92,-0.0886 -15.92,-0.0886 v 10.7425 10.74249 l 16.08,-0.0939 16.08,-0.0939 z m -3.39162,-31.64189 c 7.41642,-3.47654 8.2491,-14.027547 1.46717,-18.590559 -2.62973,-1.769328 -3.29716,-1.836588 -18.22462,-1.836588 h -13.70192 v 10.732447 10.73245 l 14.32,-0.0924 14.32,-0.0924 z M 271.50758,156.4 c -0.0838,-0.22 -0.11526,-17.032 -0.07,-37.36 l 0.0824,-36.959998 21.28,0.0055 21.28,0.0055 2.88,0.893047 c 7.53716,2.337165 13.046,7.492556 15.39918,14.411158 3.77291,11.092783 -0.93823,22.834153 -11.3662,28.327503 l -2.19691,1.1573 1.27399,2.24 c 0.7007,1.232 1.61142,2.8425 2.02383,3.57888 0.41241,0.73638 2.1888,3.84762 3.94753,6.91387 1.75873,3.06624 3.49724,6.10831 3.86335,6.76014 0.36612,0.65184 1.25736,2.2206 1.98053,3.48614 0.72318,1.26553 1.67797,2.94897 2.12175,3.74097 0.44378,0.792 1.00174,1.72405 1.23991,2.07121 0.23817,0.34716 0.43304,0.74316 0.43304,0.88 0,0.13684 -2.86429,0.24879 -6.36509,0.24879 h -6.36508 l -2.00581,-3.6 c -1.88581,-3.38463 -8.93695,-16.08096 -10.88521,-19.6 -0.4872,-0.88 -1.37187,-2.464 -1.96593,-3.52 l -1.0801,-1.92 -11.90639,-0.0839 -11.90639,-0.0839 V 142.39611 156.8 h -5.77004 c -4.32146,0 -5.80829,-0.10042 -5.92237,-0.4 z m 43.43479,-40.48771 c 4.38552,-2.1597 6.83829,-6.18072 6.77836,-11.11229 -0.0588,-4.841831 -2.46064,-8.665928 -6.77829,-10.792281 l -2.12744,-1.047716 -14.8075,-0.09489 -14.80751,-0.09489 v 12.186977 12.18699 l 14.80743,-0.0921 14.80744,-0.0921 z M 107.84823,62.240712 c -3.0443,-0.690325 -6.92161,-2.675035 -9.074282,-4.644933 -7.130568,-6.525142 -8.652644,-17.094967 -3.676603,-25.531597 0.584458,-0.99092 2.034603,-2.771739 3.222544,-3.957374 6.066501,-6.05473 15.866391,-7.470868 23.655771,-3.418388 6.70207,3.486801 10.49285,10.370893 10.50192,19.071581 l 0.002,2.32 H 117.28 c -10.02925,0 -15.2,0.110045 -15.2,0.323488 0,0.752276 1.40991,3.232109 2.44159,4.294387 4.00628,4.125137 12.52995,3.942029 17.1324,-0.368042 0.9906,-0.927669 0.6289,-1.09106 5.02206,2.268641 l 3.35585,2.566415 -1.97735,1.818649 c -2.25783,2.076629 -5.52528,3.904375 -8.63601,4.830803 -2.86461,0.853131 -8.73441,1.069435 -11.57031,0.42637 z m 14.53522,-24.212837 c -0.89122,-2.808001 -2.50276,-4.577483 -5.35511,-5.879943 -1.69486,-0.773921 -2.1284,-0.83544 -5.12,-0.726516 -2.63845,0.09607 -3.57022,0.266788 -4.83471,0.88583 -1.87454,0.917694 -3.47537,2.45122 -4.35147,4.168506 -1.21762,2.386745 -1.82839,2.244249 9.6194,2.244249 h 10.26156 z M 84.799997,62.238221 c -0.264,-0.0553 -1.56,-0.275202 -2.88,-0.488668 -3.7007,-0.598465 -6.090065,-1.991852 -7.689365,-4.484146 -2.357695,-3.674148 -2.606794,-6.701697 -2.486879,-30.225406 l 0.09624,-18.8800008 h 5.12 5.12 l 0.08587,7.4295748 0.08587,7.429575 3.594128,0.09042 3.594128,0.09043 v 4.32 4.32 l -3.6,0.09048 -3.6,0.09048 0.01806,8.54952 c 0.01215,5.749306 0.143158,8.911176 0.4,9.653717 0.515152,1.489322 1.849877,2.194449 4.645695,2.454293 l 2.312818,0.214954 -0.08829,4.673278 -0.08829,4.673278 -2.08,0.04938 c -1.144,0.02716 -2.296,0.0041 -2.56,-0.05116 z M 11.741148,61.874484 C 11.619516,61.752852 11.52,52.961768 11.52,42.338741 V 23.024147 l 5.199999,0.08793 5.2,0.08793 v 19.36 19.360001 l -4.978851,0.08782 c -2.738368,0.0483 -5.078368,-0.0117 -5.2,-0.133333 z M 27.839999,42.568127 V 23.040001 h 4.96 4.96 v 2.73431 2.73431 l 1.68,-1.700059 c 2.932564,-2.967579 6.586134,-4.420752 11.05575,-4.39732 6.166329,0.03233 11.234295,2.873476 13.658265,7.656951 1.927061,3.802871 2.085983,5.270443 2.085983,19.262996 v 12.748813 h -5.119999 -5.12 l -0.0024,-10.64 c -0.0013,-5.852001 -0.151275,-11.557391 -0.333212,-12.678646 -0.784536,-4.835002 -3.261317,-7.10082 -8.025604,-7.342013 -1.933305,-0.09787 -2.740413,0.0088 -3.879169,0.51248 -2.052366,0.907859 -3.883353,2.688666 -4.761342,4.630852 -0.742892,1.643341 -0.761497,1.917223 -0.918255,13.517327 l -0.16,11.84 -5.04,0.08813 -5.04,0.08812 z M 137.59999,33.440001 V 4.8000001 h 5.12 5.12 V 33.440001 62.080002 h -5.12 -5.12 z m 16.39203,27.697392 c -2.44333,-1.533378 -2.19822,-5.319225 0.42499,-6.564018 3.0563,-1.450309 6.44108,1.6603 5.14313,4.726526 -0.62556,1.477793 -1.58602,2.196645 -3.14716,2.355483 -1.01033,0.102796 -1.64979,-0.03402 -2.42096,-0.517991 z m 3.29692,-0.39969 c 0.90663,-0.413089 1.75105,-1.756968 1.75105,-2.786753 0,-2.668277 -3.21667,-3.903501 -5.14461,-1.975564 -1.13268,1.132681 -1.22261,2.453153 -0.25119,3.688123 1.0782,1.37071 2.24149,1.713559 3.64475,1.074194 z m -2.72895,-2.817701 v -2.24 h 1.216 c 0.6688,0 1.3888,0.1728 1.6,0.384 0.544,0.543996 0.4765,1.840591 -0.10748,2.064686 -0.44198,0.169603 -0.44198,0.264155 0,0.938698 0.59585,0.909385 0.61127,1.093222 0.0915,1.090593 -0.22,-0.0011 -0.68432,-0.469113 -1.03184,-1.04 l -0.63184,-1.037977 -0.10843,1.04 c -0.0668,0.640407 -0.28507,1.04 -0.56816,1.04 -0.35585,0 -0.45973,-0.506128 -0.45973,-2.24 z m 2.24,-0.8 c 0,-0.266667 -0.28444,-0.48 -0.64,-0.48 -0.35555,0 -0.64,0.213333 -0.64,0.48 0,0.266666 0.28445,0.48 0.64,0.48 0.35556,0 0.64,-0.213334 0.64,-0.48 z M 11.2,11.36 V 6.0800002 h 5.439999 5.44 V 11.36 16.64 h -5.44 H 11.2 Z"
         id="path7" />
      <path
         style="fill:#00c6fc"
         d="M 37.919999,157.29321 C 22.046288,154.79141 9.6834551,143.69843 5.9572727,128.61354 c -1.203742,-4.87317 -1.4910801,-8.62902 -0.989942,-12.9397 0.9130158,-7.85356 3.5616702,-14.38778 8.1693903,-20.153837 5.530624,-6.920977 12.688587,-11.316916 22.223278,-13.648044 3.827346,-0.935744 13.303567,-1.018136 17.226964,-0.149782 15.798684,3.496677 27.303016,14.913348 30.349081,30.117823 0.654937,3.26913 0.931707,10.74936 0.452826,12.23852 l -0.231059,0.71851 -33.054824,0.0815 -33.054825,0.0815 0.717604,2.41323 c 1.397477,4.69956 3.911574,8.83436 7.397584,12.16641 3.819975,3.65126 7.248067,5.54142 12.525978,6.90651 2.855551,0.73857 3.517462,0.7917 8.07067,0.64784 5.780355,-0.18263 9.215473,-0.96994 13.390122,-3.06891 2.737505,-1.37639 6.740274,-4.42106 8.471892,-6.44406 0.593659,-0.69356 1.180631,-1.26102 1.304383,-1.26102 0.317741,0 8.652274,6.38389 8.772966,6.71971 0.05465,0.15206 -0.881349,1.26294 -2.08,2.46861 -6.783826,6.82357 -14.877458,10.6747 -25.050968,11.91982 -3.547691,0.43419 -9.435906,0.37138 -12.648394,-0.13493 z M 71.194379,112.88 c -0.12203,-0.748 -0.625182,-2.40889 -1.118116,-3.69087 C 67.167531,101.62436 60.79756,95.548116 53.23256,93.12211 45.543396,90.656286 38.481554,91.233021 31.359999,94.908424 24.895893,98.24452 19.61605,104.79567 17.649658,111.92 l -0.640344,2.32 h 27.203469 27.203469 z m 306.245611,44.41648 c -16.93762,-2.64788 -29.7809,-15.03245 -32.64974,-31.48363 -0.61126,-3.50519 -0.5998,-9.46621 0.0251,-13.04953 1.09104,-6.2565 3.98647,-12.7719 7.59179,-17.083317 7.61728,-9.109122 17.3039,-13.988364 28.99822,-14.606689 23.08011,-1.220335 41.65405,15.812858 41.63027,38.176956 -0.002,2.26035 -0.0912,4.43373 -0.19732,4.82973 l -0.19295,0.72 H 389.5411 c -31.37643,0 -33.09576,0.0292 -32.94172,0.56 0.0894,0.308 0.32842,1.208 0.5312,2 0.62268,2.43203 3.05407,7.08562 4.90596,9.38981 3.05531,3.80155 6.90481,6.73229 11.03295,8.39972 3.99088,1.61198 5.65125,1.89062 11.2505,1.88802 4.50657,-0.002 5.70186,-0.11261 8.16,-0.75446 5.5105,-1.43886 9.66658,-3.81518 13.45708,-7.69432 1.2193,-1.24782 2.32592,-2.26877 2.45914,-2.26877 0.13323,0 1.57458,1.02526 3.203,2.27836 1.62843,1.25309 3.56716,2.72909 4.30829,3.28 0.74114,0.5509 1.35314,1.08361 1.36,1.18378 0.0182,0.26534 -4.72842,4.89316 -6.21889,6.06326 -5.50621,4.32271 -13.18449,7.36559 -20.96023,8.30649 -3.54985,0.42955 -9.43775,0.36651 -12.64839,-0.13541 z M 410.72288,113.2 c -0.73261,-3.66379 -2.86555,-8.1218 -5.41972,-11.32764 -5.7241,-7.184537 -15.41877,-11.1781 -24.44336,-10.069044 -12.02331,1.477577 -21.45997,9.888224 -24.18639,21.556684 l -0.20562,0.88 h 27.23152 27.23153 z m 56.96384,44.22547 c -13.40601,-2.10736 -24.0991,-9.67201 -29.60771,-20.94547 -3.00786,-6.15563 -3.95979,-10.27129 -3.95979,-17.12 0,-8.36167 1.96806,-14.85293 6.57168,-21.675392 5.44892,-8.075161 14.84215,-14.076174 25.22908,-16.117985 2.71734,-0.534162 12.32266,-0.534162 15.04,0 17.26494,3.393856 29.46669,16.274651 31.70874,33.473377 0.35481,2.72176 0.23027,8.76203 -0.19484,9.44987 -0.12171,0.19693 -12.22873,0.31013 -33.1684,0.31013 h -32.97672 l 0.22294,1.2 c 0.12262,0.66 0.62925,2.24918 1.12585,3.5315 3.43871,8.87954 11.09335,15.315 20.46643,17.20668 3.67334,0.74136 10.53799,0.49847 14.416,-0.51006 5.19619,-1.35135 10.39007,-4.46704 13.827,-8.29451 l 1.66427,-1.85337 4.41436,3.3636 c 2.42791,1.84999 4.41437,3.54426 4.41437,3.76505 0,0.63585 -5.27631,5.46115 -7.92864,7.25093 -7.11863,4.8036 -14.1819,6.91257 -23.91136,7.13952 -2.992,0.0698 -6.30097,-0.008 -7.35326,-0.17387 z M 500.58007,113.52 c -1.2049,-5.4224 -4.04315,-10.5724 -7.8275,-14.203 -4.34043,-4.164077 -9.77907,-6.678621 -16.23602,-7.506692 -6.56504,-0.841933 -14.29943,1.267626 -19.60398,5.34699 -2.99005,2.299445 -6.09313,5.924012 -7.70432,8.999052 -1.34474,2.56651 -2.80827,6.54672 -2.80827,7.63736 0,0.37822 4.14426,0.44629 27.17004,0.44629 h 27.17004 z M 95.999996,119.36722 V 81.920002 l 5.840004,0.004 5.84,0.004 0.68732,1.036039 c 0.91439,1.378304 6.73335,9.902651 9.22643,13.516039 1.09289,1.584 3.06527,4.46615 4.38306,6.40477 1.31779,1.93862 3.0422,4.45862 3.83201,5.6 0.78982,1.14138 3.00287,4.37923 4.91789,7.19523 5.54997,8.16113 6.01041,8.82226 6.24528,8.96742 0.31459,0.19443 0.80103,-0.42889 4.00146,-5.12742 1.55848,-2.288 3.73304,-5.456 4.83235,-7.04 1.0993,-1.584 3.2198,-4.68 4.71221,-6.88 1.49241,-2.2 3.75056,-5.512 5.01812,-7.36 1.26757,-1.848 3.53309,-5.16 5.0345,-7.36 1.50141,-2.2 3.50915,-5.116 4.46164,-6.48 l 1.7318,-2.480001 h 5.73796 5.73796 V 119.36 156.8 h -5.75825 -5.75825 l -0.0817,-28.05662 -0.0817,-28.05662 -3.46267,5.09662 c -1.90447,2.80314 -4.811,7.04062 -6.45897,9.41662 -1.64796,2.376 -4.11913,5.976 -5.49149,8 -2.61241,3.85288 -11.3532,16.54264 -12.86878,18.68274 -0.48405,0.68351 -0.99695,1.25951 -1.13978,1.28 -0.27573,0.0396 -1.06977,-1.06108 -6.09082,-8.44274 -1.73589,-2.552 -4.04228,-5.936 -5.12531,-7.52 -3.60526,-5.27292 -7.63962,-11.16303 -9.91359,-14.47373 -1.23672,-1.80055 -3.54458,-5.16961 -5.12858,-7.4868 l -2.88,-4.21308 -0.16,27.80681 -0.16,27.8068 -5.84,0.0872 -5.840004,0.0872 z m 99.109434,37.23556 c -0.12619,-0.12619 -0.22944,-16.98831 -0.22944,-37.47138 V 81.889467 l 20.56,0.107486 c 22.83362,0.119371 22.0929,0.05442 26.65631,2.337334 5.54211,2.772518 9.7283,8.105965 11.16569,14.225716 1.364,5.807327 -0.21617,12.845137 -3.9316,17.510587 -0.73172,0.91882 -1.327,1.78282 -1.32284,1.92 0.004,0.13718 0.59452,0.68141 1.31189,1.20941 4.33516,3.19073 7.62373,10.22221 7.63275,16.32 0.008,5.50658 -2.15942,10.64103 -6.22748,14.7514 -2.88719,2.91722 -5.47392,4.50878 -9.12472,5.61422 -2.37786,0.72001 -2.60228,0.72773 -24.33056,0.83666 -12.06181,0.0605 -22.03381,0.007 -22.16,-0.1195 z m 43.75898,-11.03849 c 6.31643,-1.75362 9.56327,-9.46009 6.50846,-15.44802 -0.9964,-1.9531 -3.44438,-4.14021 -5.52539,-4.93656 -1.7904,-0.68515 -2.15407,-0.69971 -17.47996,-0.69971 h -15.65153 v 10.72 10.72 l 15.44,-0.002 c 10.24587,-0.001 15.86671,-0.12025 16.70842,-0.35393 z m -1.66271,-32.18882 c 0.83914,-0.38749 2.23217,-1.42983 3.09563,-2.3163 5.11137,-5.24766 3.54487,-14.078742 -3.07554,-17.338134 l -1.5458,-0.761033 -14.48,-0.09233 -14.48,-0.09233 V 103.52 114.26466 l 14.48,-0.0923 c 14.14758,-0.0902 14.51503,-0.1085 16.00571,-0.79686 z M 271.67864,156.64 c -7.4e-4,-0.088 -0.002,-16.9 -0.003,-37.36 l -10e-4,-37.199998 19.28273,-0.09089 c 12.16163,-0.05732 20.22813,0.03309 21.84273,0.244826 8.59222,1.126779 15.22064,5.752441 18.57995,12.966066 1.59422,3.423355 2.14769,5.935026 2.15069,9.759996 0.005,6.17667 -1.94531,11.2688 -5.96824,15.58378 -2.18581,2.3445 -5.67347,4.94125 -7.84409,5.84035 -0.56234,0.23293 -0.98101,0.51941 -0.93037,0.63662 0.0506,0.11721 2.23675,3.94949 4.85803,8.51618 9.11174,15.87408 12.03403,21.00623 12.03403,21.13428 0,0.0708 -2.86461,0.12879 -6.36579,0.12879 h -6.36579 l -2.96353,-5.36 c -1.62995,-2.948 -3.28123,-5.936 -3.66952,-6.64 -0.38829,-0.704 -2.18672,-3.944 -3.99652,-7.2 -1.80979,-3.256 -3.73146,-6.748 -4.27038,-7.76 L 307.06862,128 H 295.1343 283.19999 v 14.4 14.4 h -5.76 c -3.168,0 -5.76061,-0.072 -5.76135,-0.16 z m 43.11251,-40.59973 c 5.8755,-2.71394 8.52644,-9.4212 6.17961,-15.63527 -1.26541,-3.350615 -3.94056,-5.893575 -7.32448,-6.962552 -1.90907,-0.603073 -2.90434,-0.642445 -16.24,-0.642445 h -14.20629 v 12.169217 12.16921 l 14.8,-0.0892 14.8,-0.0892 z M 108.91397,62.408425 C 100.76452,60.666406 95.185037,55.695731 92.920402,48.160001 92.149341,45.594243 92.129097,39.594043 92.883376,37.185646 96.757214,24.816563 109.94952,18.971895 121.55474,24.483193 c 1.77812,0.844425 2.99281,1.747263 4.84597,3.601849 3.97162,3.974681 5.60863,7.980961 5.98632,14.65043 l 0.18939,3.344529 h -15.24821 c -9.24429,0 -15.24821,0.117797 -15.24821,0.299168 0,0.592423 0.69116,2.123218 1.46968,3.25506 3.48284,5.063495 12.60486,5.523538 17.86942,0.901193 0.72994,-0.640894 1.26369,-0.889665 1.54058,-0.718036 1.78006,1.103342 6.64032,5.06644 6.64032,5.414568 0,0.700669 -4.13007,3.912886 -6.56,5.102135 -1.232,0.602961 -3.104,1.324993 -4.16,1.604516 -2.26456,0.599429 -8.07768,0.873472 -9.96603,0.46982 z m 13.50122,-23.713014 c 0.45475,-0.735791 -0.87663,-3.167338 -2.59332,-4.736298 -3.4505,-3.153559 -9.04148,-3.734637 -13.36541,-1.389082 -2.13051,1.155714 -4.37646,4.139435 -4.37646,5.814079 0,0.647281 0.13207,0.655891 10.06111,0.655891 6.84088,0 10.12928,-0.110292 10.27408,-0.34459 z M 83.839997,62.071981 C 78.31377,61.423953 75.350155,59.639041 73.573681,55.888834 71.916216,52.38986 71.839997,51.198943 71.839997,28.800001 V 8.1600002 l 5.04,-0.088126 5.04,-0.088126 V 15.511874 23.04 h 3.68 3.68 V 27.52 32 h -3.714019 -3.714019 l 0.131956,8.56 c 0.1468,9.522933 0.328493,10.484575 2.159894,11.431629 0.546826,0.282775 1.92617,0.601163 3.065209,0.707528 l 2.070979,0.193391 v 4.753726 4.753727 l -1.68,-0.04206 c -0.924,-0.02313 -2.616,-0.151815 -3.76,-0.285965 z m -72.242495,-19.59198 0.0825,-19.28 5.039999,-0.08813 5.04,-0.08813 v 19.368127 19.368126 h -5.122498 -5.122498 z m 16.242497,-0.08 v -19.36 h 4.96 4.96 v 2.790591 2.790591 l 1.712331,-1.75379 c 3.77413,-3.865506 9.039304,-5.263174 15.038604,-3.992076 4.366367,0.925121 7.822205,3.59569 9.760533,7.542648 1.797628,3.660457 1.956815,5.196553 1.962974,18.942036 l 0.0056,12.400001 h -5.119999 -5.12 l -0.0047,-10.96 c -0.0053,-12.268114 -0.210533,-13.978347 -1.971802,-16.430871 -1.482369,-2.064163 -3.573574,-3.009978 -6.646298,-3.006004 -5.258028,0.0068 -8.448757,3.041428 -9.285694,8.83141 -0.175339,1.213005 -0.32165,6.561464 -0.325137,11.885465 l -0.0063,9.68 h -4.96 -4.96 z m 109.838271,-8.9783 0.0817,-28.3383005 h 4.96 4.96 l 0.0817,28.3383005 0.0817,28.338301 h -5.12346 -5.12345 z m 16.66243,27.86993 c -1.73397,-0.754157 -2.52351,-3.197987 -1.65149,-5.11185 0.3473,-0.762244 2.54074,-2.099779 3.44345,-2.099779 0.22584,0 0.90672,0.235417 1.51307,0.52315 2.77836,1.318417 2.71494,5.54399 -0.10087,6.720508 -1.29207,0.539862 -1.9033,0.533753 -3.20416,-0.03203 z m 3.9777,-1.361477 c 0.83061,-1.029167 0.92023,-2.297809 0.25343,-3.587265 -0.54758,-1.058898 -1.05874,-1.302887 -2.72956,-1.302887 -1.53082,0 -2.88621,1.406964 -2.87516,2.984552 0.0194,2.771075 3.61845,4.052694 5.35129,1.9056 z m -3.75841,-1.983486 v -2.266666 h 0.98104 c 1.9318,0 2.90975,1.268336 1.73175,2.245983 -0.43551,0.361443 -0.43279,0.48739 0.0256,1.186947 0.81563,1.2448 0.18447,1.315787 -0.81464,0.09162 l -0.90704,-1.111353 -0.10834,0.928721 c -0.0596,0.510797 -0.28834,0.987827 -0.50834,1.060066 -0.29471,0.09677 -0.4,-0.465271 -0.4,-2.135322 z m 2.24,-0.79243 c 0,-0.24517 -0.22777,-0.53317 -0.50617,-0.64 -0.7342,-0.281741 -0.77383,-0.258917 -0.77383,0.445764 0,0.426666 0.21334,0.64 0.64,0.64 0.352,0 0.64,-0.200594 0.64,-0.445764 z M 11.52,11.36 V 6.0800002 h 5.279999 5.28 V 11.36 16.64 h -5.28 H 11.52 Z"
         id="path6" />
      <path
         style="fill:#6a94b7"
         d="M 37.919999,157.29321 C 22.046288,154.79141 9.6834551,143.69843 5.9572727,128.61354 c -1.203742,-4.87317 -1.4910801,-8.62902 -0.989942,-12.9397 0.9130158,-7.85356 3.5616702,-14.38778 8.1693903,-20.153837 5.530624,-6.920977 12.688587,-11.316916 22.223278,-13.648044 3.827346,-0.935744 13.303567,-1.018136 17.226964,-0.149782 15.798684,3.496677 27.303016,14.913348 30.349081,30.117823 0.654937,3.26913 0.931707,10.74936 0.452826,12.23852 l -0.231059,0.71851 -33.054824,0.0815 -33.054825,0.0815 0.717604,2.41323 c 1.397477,4.69956 3.911574,8.83436 7.397584,12.16641 3.819975,3.65126 7.248067,5.54142 12.525978,6.90651 2.855551,0.73857 3.517462,0.7917 8.07067,0.64784 5.780355,-0.18263 9.215473,-0.96994 13.390122,-3.06891 2.737505,-1.37639 6.740274,-4.42106 8.471892,-6.44406 0.593659,-0.69356 1.180631,-1.26102 1.304383,-1.26102 0.317741,0 8.652274,6.38389 8.772966,6.71971 0.05465,0.15206 -0.881349,1.26294 -2.08,2.46861 -6.783826,6.82357 -14.877458,10.6747 -25.050968,11.91982 -3.547691,0.43419 -9.435906,0.37138 -12.648394,-0.13493 z M 71.194379,112.88 c -0.12203,-0.748 -0.625182,-2.40889 -1.118116,-3.69087 C 67.167531,101.62436 60.79756,95.548116 53.23256,93.12211 45.543396,90.656286 38.481554,91.233021 31.359999,94.908424 24.895893,98.24452 19.61605,104.79567 17.649658,111.92 l -0.640344,2.32 h 27.203469 27.203469 z m 306.245611,44.41648 c -16.93762,-2.64788 -29.7809,-15.03245 -32.64974,-31.48363 -0.61126,-3.50519 -0.5998,-9.46621 0.0251,-13.04953 1.09104,-6.2565 3.98647,-12.7719 7.59179,-17.083317 7.61728,-9.109122 17.3039,-13.988364 28.99822,-14.606689 23.08011,-1.220335 41.65405,15.812858 41.63027,38.176956 -0.002,2.26035 -0.0912,4.43373 -0.19732,4.82973 l -0.19295,0.72 H 389.5411 c -31.37643,0 -33.09576,0.0292 -32.94172,0.56 0.0894,0.308 0.32842,1.208 0.5312,2 0.62268,2.43203 3.05407,7.08562 4.90596,9.38981 3.05531,3.80155 6.90481,6.73229 11.03295,8.39972 3.99088,1.61198 5.65125,1.89062 11.2505,1.88802 4.50657,-0.002 5.70186,-0.11261 8.16,-0.75446 5.5105,-1.43886 9.66658,-3.81518 13.45708,-7.69432 1.2193,-1.24782 2.32592,-2.26877 2.45914,-2.26877 0.13323,0 1.57458,1.02526 3.203,2.27836 1.62843,1.25309 3.56716,2.72909 4.30829,3.28 0.74114,0.5509 1.35314,1.08361 1.36,1.18378 0.0182,0.26534 -4.72842,4.89316 -6.21889,6.06326 -5.50621,4.32271 -13.18449,7.36559 -20.96023,8.30649 -3.54985,0.42955 -9.43775,0.36651 -12.64839,-0.13541 z M 410.72288,113.2 c -0.73261,-3.66379 -2.86555,-8.1218 -5.41972,-11.32764 -5.7241,-7.184537 -15.41877,-11.1781 -24.44336,-10.069044 -12.02331,1.477577 -21.45997,9.888224 -24.18639,21.556684 l -0.20562,0.88 h 27.23152 27.23153 z m 56.96384,44.22547 c -13.40601,-2.10736 -24.0991,-9.67201 -29.60771,-20.94547 -3.00786,-6.15563 -3.95979,-10.27129 -3.95979,-17.12 0,-8.36167 1.96806,-14.85293 6.57168,-21.675392 5.44892,-8.075161 14.84215,-14.076174 25.22908,-16.117985 2.71734,-0.534162 12.32266,-0.534162 15.04,0 17.26494,3.393856 29.46669,16.274651 31.70874,33.473377 0.35481,2.72176 0.23027,8.76203 -0.19484,9.44987 -0.12171,0.19693 -12.22873,0.31013 -33.1684,0.31013 h -32.97672 l 0.22294,1.2 c 0.12262,0.66 0.62925,2.24918 1.12585,3.5315 3.43871,8.87954 11.09335,15.315 20.46643,17.20668 3.67334,0.74136 10.53799,0.49847 14.416,-0.51006 5.19619,-1.35135 10.39007,-4.46704 13.827,-8.29451 l 1.66427,-1.85337 4.41436,3.3636 c 2.42791,1.84999 4.41437,3.54426 4.41437,3.76505 0,0.63585 -5.27631,5.46115 -7.92864,7.25093 -7.11863,4.8036 -14.1819,6.91257 -23.91136,7.13952 -2.992,0.0698 -6.30097,-0.008 -7.35326,-0.17387 z M 500.58007,113.52 c -1.2049,-5.4224 -4.04315,-10.5724 -7.8275,-14.203 -4.34043,-4.164077 -9.77907,-6.678621 -16.23602,-7.506692 -6.56504,-0.841933 -14.29943,1.267626 -19.60398,5.34699 -2.99005,2.299445 -6.09313,5.924012 -7.70432,8.999052 -1.34474,2.56651 -2.80827,6.54672 -2.80827,7.63736 0,0.37822 4.14426,0.44629 27.17004,0.44629 h 27.17004 z M 95.999996,119.36722 V 81.920002 l 5.840004,0.004 5.84,0.004 0.68732,1.036039 c 0.91439,1.378304 6.73335,9.902651 9.22643,13.516039 1.09289,1.584 3.06527,4.46615 4.38306,6.40477 1.31779,1.93862 3.0422,4.45862 3.83201,5.6 0.78982,1.14138 3.00287,4.37923 4.91789,7.19523 5.54997,8.16113 6.01041,8.82226 6.24528,8.96742 0.31459,0.19443 0.80103,-0.42889 4.00146,-5.12742 1.55848,-2.288 3.73304,-5.456 4.83235,-7.04 1.0993,-1.584 3.2198,-4.68 4.71221,-6.88 1.49241,-2.2 3.75056,-5.512 5.01812,-7.36 1.26757,-1.848 3.53309,-5.16 5.0345,-7.36 1.50141,-2.2 3.50915,-5.116 4.46164,-6.48 l 1.7318,-2.480001 h 5.73796 5.73796 V 119.36 156.8 h -5.75825 -5.75825 l -0.0817,-28.05662 -0.0817,-28.05662 -3.46267,5.09662 c -1.90447,2.80314 -4.811,7.04062 -6.45897,9.41662 -1.64796,2.376 -4.11913,5.976 -5.49149,8 -2.61241,3.85288 -11.3532,16.54264 -12.86878,18.68274 -0.48405,0.68351 -0.99695,1.25951 -1.13978,1.28 -0.27573,0.0396 -1.06977,-1.06108 -6.09082,-8.44274 -1.73589,-2.552 -4.04228,-5.936 -5.12531,-7.52 -3.60526,-5.27292 -7.63962,-11.16303 -9.91359,-14.47373 -1.23672,-1.80055 -3.54458,-5.16961 -5.12858,-7.4868 l -2.88,-4.21308 -0.16,27.80681 -0.16,27.8068 -5.84,0.0872 -5.840004,0.0872 z m 99.109434,37.23556 c -0.12619,-0.12619 -0.22944,-16.98831 -0.22944,-37.47138 V 81.889467 l 20.56,0.107486 c 22.83362,0.119371 22.0929,0.05442 26.65631,2.337334 5.54211,2.772518 9.7283,8.105965 11.16569,14.225716 1.364,5.807327 -0.21617,12.845137 -3.9316,17.510587 -0.73172,0.91882 -1.327,1.78282 -1.32284,1.92 0.004,0.13718 0.59452,0.68141 1.31189,1.20941 4.33516,3.19073 7.62373,10.22221 7.63275,16.32 0.008,5.50658 -2.15942,10.64103 -6.22748,14.7514 -2.88719,2.91722 -5.47392,4.50878 -9.12472,5.61422 -2.37786,0.72001 -2.60228,0.72773 -24.33056,0.83666 -12.06181,0.0605 -22.03381,0.007 -22.16,-0.1195 z m 43.75898,-11.03849 c 6.31643,-1.75362 9.56327,-9.46009 6.50846,-15.44802 -0.9964,-1.9531 -3.44438,-4.14021 -5.52539,-4.93656 -1.7904,-0.68515 -2.15407,-0.69971 -17.47996,-0.69971 h -15.65153 v 10.72 10.72 l 15.44,-0.002 c 10.24587,-0.001 15.86671,-0.12025 16.70842,-0.35393 z m -1.66271,-32.18882 c 0.83914,-0.38749 2.23217,-1.42983 3.09563,-2.3163 5.11137,-5.24766 3.54487,-14.078742 -3.07554,-17.338134 l -1.5458,-0.761033 -14.48,-0.09233 -14.48,-0.09233 V 103.52 114.26466 l 14.48,-0.0923 c 14.14758,-0.0902 14.51503,-0.1085 16.00571,-0.79686 z M 271.67864,156.64 c -7.4e-4,-0.088 -0.002,-16.9 -0.003,-37.36 l -10e-4,-37.199998 19.28273,-0.09089 c 12.16163,-0.05732 20.22813,0.03309 21.84273,0.244826 8.59222,1.126779 15.22064,5.752441 18.57995,12.966066 1.59422,3.423355 2.14769,5.935026 2.15069,9.759996 0.005,6.17667 -1.94531,11.2688 -5.96824,15.58378 -2.18581,2.3445 -5.67347,4.94125 -7.84409,5.84035 -0.56234,0.23293 -0.98101,0.51941 -0.93037,0.63662 0.0506,0.11721 2.23675,3.94949 4.85803,8.51618 9.11174,15.87408 12.03403,21.00623 12.03403,21.13428 0,0.0708 -2.86461,0.12879 -6.36579,0.12879 h -6.36579 l -2.96353,-5.36 c -1.62995,-2.948 -3.28123,-5.936 -3.66952,-6.64 -0.38829,-0.704 -2.18672,-3.944 -3.99652,-7.2 -1.80979,-3.256 -3.73146,-6.748 -4.27038,-7.76 L 307.06862,128 H 295.1343 283.19999 v 14.4 14.4 h -5.76 c -3.168,0 -5.76061,-0.072 -5.76135,-0.16 z m 43.11251,-40.59973 c 5.8755,-2.71394 8.52644,-9.4212 6.17961,-15.63527 -1.26541,-3.350615 -3.94056,-5.893575 -7.32448,-6.962552 -1.90907,-0.603073 -2.90434,-0.642445 -16.24,-0.642445 h -14.20629 v 12.169217 12.16921 l 14.8,-0.0892 14.8,-0.0892 z M 108.91397,62.408425 C 100.76452,60.666406 95.185037,55.695731 92.920402,48.160001 92.149341,45.594243 92.129097,39.594043 92.883376,37.185646 96.757214,24.816563 109.94952,18.971895 121.55474,24.483193 c 1.77812,0.844425 2.99281,1.747263 4.84597,3.601849 3.97162,3.974681 5.60863,7.980961 5.98632,14.65043 l 0.18939,3.344529 h -15.24821 c -9.24429,0 -15.24821,0.117797 -15.24821,0.299168 0,0.592423 0.69116,2.123218 1.46968,3.25506 3.48284,5.063495 12.60486,5.523538 17.86942,0.901193 0.72994,-0.640894 1.26369,-0.889665 1.54058,-0.718036 1.78006,1.103342 6.64032,5.06644 6.64032,5.414568 0,0.700669 -4.13007,3.912886 -6.56,5.102135 -1.232,0.602961 -3.104,1.324993 -4.16,1.604516 -2.26456,0.599429 -8.07768,0.873472 -9.96603,0.46982 z m 13.50122,-23.713014 c 0.45475,-0.735791 -0.87663,-3.167338 -2.59332,-4.736298 -3.4505,-3.153559 -9.04148,-3.734637 -13.36541,-1.389082 -2.13051,1.155714 -4.37646,4.139435 -4.37646,5.814079 0,0.647281 0.13207,0.655891 10.06111,0.655891 6.84088,0 10.12928,-0.110292 10.27408,-0.34459 z M 83.839997,62.071981 C 78.31377,61.423953 75.350155,59.639041 73.573681,55.888834 71.916216,52.38986 71.839997,51.198943 71.839997,28.800001 V 8.1600002 l 5.04,-0.088126 5.04,-0.088126 V 15.511874 23.04 h 3.68 3.68 V 27.52 32 h -3.714019 -3.714019 l 0.131956,8.56 c 0.1468,9.522933 0.328493,10.484575 2.159894,11.431629 0.546826,0.282775 1.92617,0.601163 3.065209,0.707528 l 2.070979,0.193391 v 4.753726 4.753727 l -1.68,-0.04206 c -0.924,-0.02313 -2.616,-0.151815 -3.76,-0.285965 z m -72.242495,-19.59198 0.0825,-19.28 5.039999,-0.08813 5.04,-0.08813 v 19.368127 19.368126 h -5.122498 -5.122498 z m 16.242497,-0.08 v -19.36 h 4.96 4.96 v 2.790591 2.790591 l 1.712331,-1.75379 c 3.77413,-3.865506 9.039304,-5.263174 15.038604,-3.992076 4.366367,0.925121 7.822205,3.59569 9.760533,7.542648 1.797628,3.660457 1.956815,5.196553 1.962974,18.942036 l 0.0056,12.400001 h -5.119999 -5.12 l -0.0047,-10.96 c -0.0053,-12.268114 -0.210533,-13.978347 -1.971802,-16.430871 -1.482369,-2.064163 -3.573574,-3.009978 -6.646298,-3.006004 -5.258028,0.0068 -8.448757,3.041428 -9.285694,8.83141 -0.175339,1.213005 -0.32165,6.561464 -0.325137,11.885465 l -0.0063,9.68 h -4.96 -4.96 z m 109.838271,-8.9783 0.0817,-28.3383005 h 4.96 4.96 l 0.0817,28.3383005 0.0817,28.338301 h -5.12346 -5.12345 z m 16.66243,27.86993 c -1.73397,-0.754157 -2.52351,-3.197987 -1.65149,-5.11185 0.3473,-0.762244 2.54074,-2.099779 3.44345,-2.099779 0.22584,0 0.90672,0.235417 1.51307,0.52315 2.77836,1.318417 2.71494,5.54399 -0.10087,6.720508 -1.29207,0.539862 -1.9033,0.533753 -3.20416,-0.03203 z m 3.9777,-1.361477 c 0.83061,-1.029167 0.92023,-2.297809 0.25343,-3.587265 -0.54758,-1.058898 -1.05874,-1.302887 -2.72956,-1.302887 -1.53082,0 -2.88621,1.406964 -2.87516,2.984552 0.0194,2.771075 3.61845,4.052694 5.35129,1.9056 z m -3.75841,-1.983486 v -2.266666 h 0.98104 c 1.9318,0 2.90975,1.268336 1.73175,2.245983 -0.43551,0.361443 -0.43279,0.48739 0.0256,1.186947 0.81563,1.2448 0.18447,1.315787 -0.81464,0.09162 l -0.90704,-1.111353 -0.10834,0.928721 c -0.0596,0.510797 -0.28834,0.987827 -0.50834,1.060066 -0.29471,0.09677 -0.4,-0.465271 -0.4,-2.135322 z m 2.24,-0.79243 c 0,-0.24517 -0.22777,-0.53317 -0.50617,-0.64 -0.7342,-0.281741 -0.77383,-0.258917 -0.77383,0.445764 0,0.426666 0.21334,0.64 0.64,0.64 0.352,0 0.64,-0.200594 0.64,-0.445764 z"
         id="path5" />
      <path
         style="fill:#5686ad"
         d="M 38.079999,157.29065 C 25.013442,155.11554 14.405389,147.54728 8.8273128,136.42046 7.4865187,133.74592 6.0363157,129.43358 5.4037123,126.24 c -0.5783334,-2.9196 -0.5783334,-10.84039 0,-13.76 C 8.5407179,96.643415 20.070779,85.141681 36.234181,81.72528 c 1.937669,-0.409558 4.101825,-0.556871 8.085817,-0.550397 5.964072,0.0097 8.386031,0.384717 13.425712,2.078891 12.942376,4.350801 22.551554,15.278898 25.114955,28.562136 0.648062,3.35818 0.916498,10.55187 0.45764,12.26409 l -0.192952,0.72 h -33.06229 -33.06229 l 0.637571,2.32 c 2.604686,9.47797 10.150235,16.82466 19.84517,19.32217 3.051292,0.78604 3.575058,0.82734 8.405275,0.66271 3.840439,-0.13089 5.800867,-0.35137 7.704307,-0.86646 5.005315,-1.35448 9.952508,-4.32436 13.563357,-8.1423 0.940194,-0.99412 1.82477,-1.76443 1.965726,-1.7118 0.496982,0.18555 8.607135,6.49857 8.622373,6.71174 0.0085,0.11883 -1.028555,1.25213 -2.304555,2.51844 -7.918174,7.85809 -17.412386,11.6983 -29.679999,12.00495 -3.332539,0.0833 -5.852478,-0.0246 -7.679999,-0.3288 z m 33.279998,-43.54894 c 0,-1.14325 -0.800029,-3.66931 -1.954613,-6.17163 C 60.369662,87.987037 33.415853,85.989972 21.221129,104 c -1.474385,2.17748 -2.497755,4.35838 -3.423824,7.29652 -0.460518,1.46109 -0.837306,2.72109 -0.837306,2.8 0,0.0789 12.24,0.14348 27.199999,0.14348 24.40835,0 27.199999,-0.0511 27.199999,-0.49829 z m 306.079993,43.53186 c -16.31365,-2.66151 -28.50378,-13.76984 -32.2283,-29.3682 -1.0248,-4.29189 -1.01683,-12.83009 0.016,-17.16259 1.67863,-7.04141 4.81209,-12.678924 9.97229,-17.941481 5.78751,-5.902314 12.74394,-9.599098 21.13413,-11.231081 2.6739,-0.520102 12.01783,-0.520102 14.69173,0 16.65002,3.238611 28.72783,15.311838 31.52367,31.511702 0.54984,3.18595 0.65553,9.64227 0.17838,10.89725 L 422.41582,124.8 h -32.97401 -32.97402 l 0.20562,0.88 c 1.89844,8.12492 7.18886,14.88275 14.57493,18.61764 4.68777,2.37044 7.9494,3.0223 14.10956,2.81986 5.7528,-0.18905 8.54632,-0.81971 12.88208,-2.9082 3.05593,-1.472 7.21568,-4.58994 8.86995,-6.64845 0.54844,-0.68247 1.09243,-1.24085 1.20887,-1.24085 0.11644,0 1.92834,1.31193 4.02644,2.91539 2.09811,1.60346 4.09884,3.1155 4.44607,3.36009 0.60215,0.42414 0.52818,0.54943 -1.6,2.71018 -7.90008,8.02099 -17.57889,12.00552 -29.91132,12.31379 -3.39046,0.0847 -5.87135,-0.0247 -7.84,-0.34588 z m 33.29597,-44.18097 c -0.41971,-2.23725 -1.74251,-5.63904 -3.04584,-7.83287 -2.83485,-4.77176 -6.37729,-8.14224 -11.05013,-10.513736 -14.09131,-7.151416 -30.80726,-1.658288 -37.75912,12.408246 -0.83748,1.69457 -2.40088,6.25239 -2.40088,6.99933 0,0.0475 12.25602,0.0864 27.23561,0.0864 h 27.23561 z m 57.26402,44.32738 c -1.232,-0.1675 -3.81792,-0.74261 -5.74649,-1.27802 -14.34574,-3.98272 -24.75121,-15.17151 -27.57796,-29.65399 -0.73194,-3.75006 -0.73194,-10.50588 0,-14.25593 1.6332,-8.36746 5.97221,-16.011851 12.0853,-21.29166 6.56028,-5.666035 13.89728,-8.823922 22.51915,-9.692372 12.23634,-1.232521 24.03996,2.840529 32.42462,11.188696 5.5069,5.482932 9.13286,12.467906 10.65382,20.523296 0.43409,2.29904 0.56122,10.80861 0.17092,11.44013 -0.19507,0.31564 -7.19185,0.39987 -33.21637,0.39987 h -32.96924 l 0.21626,1.36 c 0.26425,1.66182 1.97262,5.7364 3.41423,8.14318 1.43874,2.40201 4.97871,6.15655 7.40188,7.85055 2.73856,1.91448 4.72355,2.90977 7.90388,3.96308 2.58681,0.85673 3.00988,0.90098 8.64,0.90358 5.17346,0.002 6.25928,-0.0895 8.61048,-0.72852 5.31932,-1.44578 9.65946,-3.97433 13.30721,-7.75274 1.17831,-1.22052 2.21048,-2.21913 2.2937,-2.21913 0.34328,0 8.55377,6.37285 8.69346,6.74772 0.16485,0.44239 -4.67799,5.1023 -7.04812,6.7819 -7.1862,5.09254 -14.86714,7.49963 -24.73673,7.75211 -2.64,0.0675 -5.808,-0.0143 -7.04,-0.18175 z M 500.60895,113.36 c -2.39776,-10.38281 -9.84983,-18.130033 -20.12897,-20.926203 -2.06527,-0.561803 -3.42577,-0.695441 -7.04,-0.691517 -3.93387,0.0043 -4.828,0.10981 -7.33474,0.865757 -6.74172,2.033068 -12.06384,5.898218 -15.68034,11.387713 -1.6306,2.4751 -3.52374,6.83364 -3.85889,8.88425 l -0.22228,1.36 h 27.23422 27.23422 z m -404.530287,5.92 0.08133,-37.199998 h 5.760007 5.76 l 4,5.829651 c 6.02232,8.777015 16.31933,23.845587 20.61078,30.161687 2.09593,3.08477 4.05652,5.92741 4.35688,6.317 0.60005,0.77832 0.13037,1.37907 8.31233,-10.63198 1.95235,-2.86603 14.9569,-21.830402 19.69183,-28.716357 l 2.14538,-3.120001 h 5.7214 5.72139 V 119.2 156.48 h -5.75824 -5.75824 l -0.0818,-27.87624 -0.0818,-27.87625 -4,5.80712 c -10.6707,15.4915 -14.74339,21.41851 -17.71602,25.78221 -1.55981,2.28974 -3.92277,5.7315 -5.251,7.64836 l -2.41498,3.4852 -0.60264,-0.82728 c -0.8271,-1.13543 -14.55198,-21.11651 -17.87683,-26.02562 -1.48419,-2.19138 -3.63452,-5.34086 -4.77852,-6.99883 -1.144,-1.65798 -2.944,-4.27994 -4,-5.82659 L 108,100.96 l -0.0818,27.76 -0.0818,27.76 h -5.91956 -5.91957 z m 98.879997,0 0.0813,-37.199998 20.48,0.0067 20.48,0.0067 2.70704,0.908415 c 3.87512,1.300391 5.91999,2.549768 8.67489,5.300207 2.72857,2.72415 4.00759,4.775251 5.29914,8.498006 0.7793,2.246261 0.88815,3.030608 0.88815,6.4 0,3.3694 -0.10885,4.15374 -0.88815,6.4 -1.02288,2.94833 -2.26073,5.23457 -3.79549,7.01003 l -1.07594,1.24467 2.7957,2.76132 c 2.31313,2.28469 3.01769,3.22931 4.08181,5.47265 3.09402,6.52266 2.90729,13.57584 -0.52502,19.83133 -1.6835,3.06824 -5.46833,6.68402 -8.69433,8.30603 -4.55035,2.28787 -3.9922,2.24396 -28.58913,2.24924 l -22.00133,0.005 z m 45.6318,25.73796 c 1.74633,-0.93196 3.97351,-3.13916 4.79045,-4.74749 0.8843,-1.74095 1.43609,-4.72926 1.19441,-6.46863 -0.52325,-3.76582 -3.35755,-7.39056 -6.78026,-8.67117 -1.66162,-0.62168 -2.43694,-0.65067 -17.40707,-0.65067 h -15.668 v 10.73116 10.73115 l 16.24,-0.0911 16.24,-0.0912 z m -3.98223,-31.43356 c 2.34427,-0.8771 4.71183,-3.13934 5.84439,-5.5844 0.73835,-1.59401 0.88934,-2.35464 0.88934,-4.48 0,-3.27473 -1.03947,-5.705549 -3.38009,-7.904397 -2.99388,-2.81255 -3.01465,-2.8156 -19.17388,-2.8156 h -14.068 V 103.52 114.24 h 14.068 c 13.39606,0 14.15169,-0.0313 15.82024,-0.6556 z m 35.07176,5.59484 V 81.878467 l 20.88,0.117444 c 20.3075,0.114224 20.95019,0.136677 23.44,0.818898 4.50915,1.23553 7.60699,2.999182 10.7376,6.113083 2.99014,2.974178 4.51334,5.383539 5.78596,9.152111 0.65748,1.946967 0.75644,2.846997 0.75644,6.879997 0,3.95329 -0.11004,4.9952 -0.74348,7.04 -1.79291,5.78761 -6.52438,11.24095 -12.21652,14.08036 -0.792,0.39507 -1.47952,0.75213 -1.52782,0.79347 -0.10072,0.0862 16.14502,28.59498 16.647,29.21294 0.26565,0.32704 -0.94705,0.38976 -6.18686,0.32 l -6.51727,-0.0868 -3.6274,-6.56 c -1.99506,-3.608 -4.1098,-7.424 -4.69941,-8.48 -0.58961,-1.056 -2.50874,-4.512 -4.26472,-7.68 l -3.1927,-5.76 H 295.1554 283.35999 l -0.0833,14.32 -0.0833,14.32 h -5.7567 -5.75671 z m 39.6105,-2.07033 c 4.4375,-0.72012 7.59868,-3.049 9.45369,-6.96468 0.92019,-1.94239 1.01559,-2.43038 1.01346,-5.18423 -0.002,-2.72882 -0.1032,-3.25291 -0.98769,-5.119997 -1.24015,-2.617867 -3.29012,-4.739364 -5.74359,-5.943992 l -1.90637,-0.936008 -14.96,-0.09198 -14.96,-0.09198 V 104.8947 c 0,6.66525 0.096,12.21465 0.21333,12.33198 0.34689,0.34688 25.6732,0.2399 27.87717,-0.11776 z M 109.04428,62.389504 C 101.78767,61.167609 95.792778,56.21099 93.425562,49.475837 92.101467,45.708547 91.94439,41.01205 93.012955,37.139113 94.850492,30.479093 100.80536,24.68005 107.52,23.01168 c 2.24438,-0.557657 7.63687,-0.563879 9.92,-0.01145 3.21474,0.777853 6.36976,2.562885 8.8293,4.995396 4.09576,4.050757 5.8907,8.552975 5.8907,14.775559 v 3.308812 h -15.04 c -13.3285,0 -15.04,0.05607 -15.04,0.492749 0,0.888057 1.28125,3.028503 2.60554,4.352796 1.83543,1.83543 3.70156,2.571265 6.99751,2.759191 4.05686,0.231312 6.97441,-0.724561 9.80962,-3.213912 l 1.04711,-0.919373 3.53011,2.658475 c 1.94156,1.462161 3.53011,2.79502 3.53011,2.96191 0,0.554818 -3.01083,3.11739 -5.12,4.357729 -4.44555,2.614287 -10.37268,3.71247 -15.43572,2.859938 z M 122.56,38.549723 c 0,-0.823339 -0.89935,-2.701035 -1.89702,-3.960707 -0.5557,-0.701629 -1.83811,-1.647299 -3.10783,-2.291777 -2.01488,-1.022701 -2.36984,-1.097238 -5.22517,-1.097238 -2.819,0 -3.23459,0.08426 -5.20834,1.055932 -2.86813,1.411973 -5.04164,4.06974 -5.04164,6.1649 0,0.599325 0.32817,0.619168 10.24,0.619168 8.98429,0 10.24,-0.06012 10.24,-0.490278 z M 84.47406,62.079481 C 78.758471,61.530703 75.425145,59.631057 73.504798,55.828151 73.234884,55.293633 72.785884,53.751704 72.507021,52.401641 72.074448,50.30742 71.999997,46.867274 71.999997,28.973492 V 8.0000002 h 4.954209 4.954208 L 81.994205,15.6 l 0.08579,7.600001 3.6,0.09048 3.6,0.09048 v 4.30952 4.30952 H 85.5697 81.859404 l 0.114171,8.72 c 0.122956,9.390936 0.217753,9.954821 1.880242,11.184291 0.532745,0.393984 1.610325,0.668626 3.12,0.795192 l 2.30618,0.193341 v 4.753589 4.753588 l -1.2,-0.04476 c -0.66,-0.02462 -2.282672,-0.14871 -3.605937,-0.275762 z M 11.754956,42.480002 c 0.04123,-10.604001 0.149226,-19.244001 0.24,-19.200001 0.09077,0.044 2.325043,0.08 4.965043,0.08 h 4.8 v 19.2 19.200001 l -5.04,10e-7 -5.039999,1e-6 z m 16.085043,0.08 v -19.2 h 4.96 4.96 v 2.59669 2.59669 l 2.051797,-1.919357 c 1.128489,-1.055646 2.823057,-2.296698 3.765706,-2.757893 2.44391,-1.195694 6.275746,-1.700751 9.316672,-1.227989 7.526021,1.170045 11.513532,5.217574 13.032876,13.229044 0.172121,0.907593 0.312947,7.102514 0.312947,13.766492 v 12.116324 h -5.119999 -5.12 l -0.005,-11.12 C 55.989474,38.347719 55.807577,36.748437 54.15351,34.449149 52.008323,31.467163 46.915946,30.269958 43.479268,31.939663 c -3.029715,1.471982 -4.767874,3.98703 -5.385368,7.792419 -0.180987,1.115356 -0.330155,6.527919 -0.331484,12.02792 l -0.0024,10 h -4.96 -4.96 z m 109.759991,-9.12 V 5.1200002 h 5.12 5.12 V 33.440001 61.760002 h -5.12 -5.12 z m 16.70339,27.7847 c -3.98118,-1.962037 -1.12664,-8.399771 2.96625,-6.689655 3.02712,1.264815 3.22948,5.554249 0.31939,6.770165 -1.38521,0.578778 -1.97731,0.56427 -3.28564,-0.08051 z m 3.80123,-1.040084 c 1.6374,-1.6374 1.19684,-4.160622 -0.87781,-5.027466 -3.22433,-1.347208 -5.82393,2.651503 -3.27296,5.034464 1.35728,1.267889 2.87845,1.265324 4.15077,-0.007 z m -3.35327,-0.382759 c -0.12523,-0.284979 -0.18352,-1.292979 -0.12952,-2.24 0.0914,-1.604004 0.15732,-1.728682 0.96235,-1.821584 1.83299,-0.211532 2.74256,1.023093 1.64623,2.234531 -0.49369,0.545522 -0.49021,0.62872 0.0514,1.227159 0.31953,0.353079 0.47477,0.748158 0.34497,0.877954 -0.12979,0.129795 -0.64719,-0.267088 -1.14977,-0.881962 -0.93669,-1.145963 -1.04794,-1.106781 -1.36872,0.482046 -0.11023,0.545977 -0.16266,0.563879 -0.35691,0.121856 z m 2.18625,-2.485598 c 0.26128,-0.422766 -0.69567,-1.096171 -1.25352,-0.882102 -0.79593,0.305427 -0.57671,1.165844 0.29704,1.165844 0.42961,0 0.86003,-0.127684 0.95648,-0.283742 z"
         id="path4" />
      <path
         style="fill:#467ba6"
         d="M 39.039999,157.40959 C 23.254054,155.36455 10.200661,144.2825 6.2834785,129.6 4.3312254,122.28252 4.3306216,116.45097 6.281358,109.12 c 1.647827,-6.19262 4.871777,-11.749785 9.558641,-16.476358 5.532757,-5.579631 12.271607,-9.165659 20.48,-10.898274 3.230036,-0.681791 11.479018,-0.777597 14.879999,-0.17282 9.699539,1.724813 17.86938,6.480626 24.234691,14.107455 3.594105,4.306407 6.526116,10.868287 7.567598,16.936387 0.506738,2.95246 0.698549,9.71621 0.316018,11.14361 l -0.192952,0.72 H 50.221562 c -19.666285,0 -32.97694,0.11836 -33.085612,0.29419 -0.100001,0.16181 0.19642,1.49381 0.658713,2.96 4.074648,12.92304 15.908857,20.67971 29.701796,19.46788 8.182839,-0.71893 14.562625,-3.667 19.645219,-9.07798 1.125065,-1.19775 1.842923,-1.72902 2.11851,-1.56785 0.894285,0.52298 8.475161,6.3342 8.487121,6.5059 0.01847,0.26521 -4.727651,4.89271 -6.218685,6.06326 -8.180062,6.42185 -21.212595,9.74498 -32.488625,8.28419 z m 32.427345,-43.33057 c -0.02896,-0.0925 -0.152327,-0.77818 -0.274151,-1.52364 -0.121823,-0.74546 -0.716719,-2.56098 -1.32199,-4.0345 -5.463242,-13.300124 -20.4762,-20.086741 -34.29905,-15.504906 -8.507548,2.819981 -14.845953,9.268356 -17.659074,17.965466 -0.530397,1.63978 -0.903572,3.07978 -0.829277,3.2 0.156273,0.25285 54.462714,0.15058 54.383542,-0.10242 z m 306.975766,43.3179 c -16.82991,-2.16129 -29.85483,-14.01244 -33.38025,-30.37209 -0.80941,-3.75609 -0.80844,-11.57567 0.002,-15.34483 1.5588,-7.25039 4.5928,-13.105407 9.52268,-18.376941 5.55016,-5.934797 13.76718,-10.30365 22.05253,-11.724967 3.12384,-0.535883 11.02441,-0.539721 14.08,-0.0068 18.25035,3.182787 31.4015,17.833244 32.22432,35.898108 0.10094,2.21614 0.0829,4.70014 -0.04,5.52 l -0.22354,1.49064 h -32.92151 c -18.11535,0 -32.99825,0.12419 -33.09216,0.27613 -0.33685,0.54504 1.16442,5.0563 2.57211,7.72906 5.39702,10.24729 15.98382,15.81934 27.91081,14.69001 8.02721,-0.76007 13.3329,-3.14409 18.78772,-8.44192 1.49068,-1.44778 2.6154,-2.30521 2.84008,-2.16516 0.35555,0.22162 8.17004,6.1008 8.50216,6.39654 0.31407,0.27966 -6.15945,6.16219 -8.51515,7.73778 -8.15297,5.45303 -19.86069,8.03789 -30.32172,6.69448 z m 32.43687,-43.67607 c 0,-0.89813 -1.42881,-5.24586 -2.28028,-6.93868 -3.54124,-7.04035 -9.94988,-12.228413 -17.71971,-14.344835 -3.65051,-0.994361 -10.42203,-0.995436 -14.08,-0.0022 -8.2793,2.247961 -15.01226,7.965925 -18.32784,15.564905 -0.98275,2.25238 -2.05869,5.87348 -1.84698,6.21604 0.0625,0.10118 12.29545,0.18396 27.18426,0.18396 h 27.07055 z m 56.49225,43.55448 C 452.51295,154.84735 440.83589,145.4302 436.22974,132.16 c -4.71508,-13.58402 -1.38337,-29.21892 8.33753,-39.12598 6.86649,-6.99799 14.92975,-10.798081 24.99116,-11.777951 19.00596,-1.85097 36.55897,9.555974 41.62946,27.053191 1.31758,4.54669 1.64445,7.55712 1.5039,13.85074 l -0.0518,2.32 h -33.12 c -31.61079,0 -33.12,0.0261 -33.12,0.57277 0,1.9289 1.87141,6.62208 3.95439,9.91696 1.26494,2.0009 5.21497,6.05061 7.24561,7.42847 7.08901,4.81012 16.03517,6.17501 25.12,3.83251 5.05387,-1.30313 8.78685,-3.48343 12.99481,-7.58981 l 2.43482,-2.37604 4.28518,3.25354 c 2.35686,1.78945 4.32647,3.36568 4.37691,3.50275 0.1542,0.41893 -4.42324,4.81769 -7.03574,6.7611 -4.63415,3.44731 -10.90719,6.02583 -17.53168,7.20638 -4.00204,0.7132 -11.39022,0.85562 -14.87205,0.2867 z m 33.16637,-44.00221 c -0.16429,-1.56662 -1.56078,-5.35666 -2.77132,-7.52131 -3.64406,-6.51618 -9.31789,-10.982585 -16.6473,-13.104646 -12.85544,-3.721997 -26.84268,2.564048 -32.57433,14.639326 -1.21127,2.55187 -2.14567,5.36142 -2.14567,6.45159 V 114.4 l 27.12,-0.08 27.12,-0.0801 z M 95.999996,119.36 V 82.240002 h 5.886494 5.88649 l 4.91351,7.209873 c 2.70243,3.96543 5.84951,8.568461 6.99351,10.228957 1.144,1.660498 5.53295,8.070658 9.75323,14.244808 l 7.67324,11.22572 0.64676,-0.87984 c 0.35572,-0.48391 1.87429,-2.68652 3.3746,-4.89468 1.50031,-2.20816 4.0169,-5.88684 5.59243,-8.17484 2.65333,-3.85318 13.13133,-19.142054 17.81765,-25.998445 l 2.02208,-2.958448 5.84,-0.0016 5.84,-0.0016 V 119.36 156.48 h -5.76 -5.76 l -0.007,-27.92 c -0.007,-27.75574 -0.0108,-27.91529 -0.63203,-27.12 -0.3437,0.44 -2.1765,3.07157 -4.07288,5.84793 -1.89639,2.77635 -5.67998,8.27787 -8.40798,12.22559 -2.728,3.94772 -6.06476,8.80415 -7.41504,10.79208 -3.18562,4.68999 -7.60436,11.08694 -8.44812,12.23022 l -0.66317,0.89859 -2.85683,-4.20906 c -1.57126,-2.31498 -3.79283,-5.56786 -4.93683,-7.22863 -6.74804,-9.79623 -16.26595,-23.69891 -18.98128,-27.72567 -1.2643,-1.87493 -2.33786,-3.3718 -2.38569,-3.32637 -0.0478,0.0454 -0.0823,12.55945 -0.0766,27.80896 l 0.0104,27.72636 h -5.92343 -5.923424 z m 98.879994,-0.0109 V 82.218283 l 21.2,0.09086 21.2,0.09086 2.4,0.922679 c 4.60627,1.770876 7.8963,4.389179 10.54112,8.388937 4.83081,7.305595 4.548,17.026651 -0.69682,23.952531 l -1.6843,2.22414 2.72908,2.73586 c 2.98027,2.98766 4.56943,5.6234 5.60473,9.29585 0.78899,2.79872 0.80306,8.04739 0.0292,10.88 -2.01251,7.3662 -7.84345,13.20622 -15.05687,15.08029 -2.09268,0.54369 -3.94967,0.58917 -24.2661,0.59423 l -22,0.005 z m 45.6,25.7188 c 2.26845,-1.22649 3.92689,-2.92089 5.00764,-5.1162 1.77986,-3.61541 1.39782,-8.04548 -0.96443,-11.18335 -1.2877,-1.71052 -3.57644,-3.40715 -5.42647,-4.02263 -0.84265,-0.28034 -5.60579,-0.42384 -16.77674,-0.50544 l -15.6,-0.11395 v 10.90797 10.90797 l 16.24,-0.0911 c 15.95206,-0.0895 16.2627,-0.10343 17.52,-0.78322 z m -3.772,-31.519 c 4.1825,-1.56067 7.1343,-6.33483 6.72277,-10.87323 -0.36836,-4.062408 -3.18046,-7.857434 -6.8357,-9.225036 -1.65173,-0.617989 -2.44569,-0.650671 -15.80707,-0.650671 h -14.068 V 103.52 114.24 h 14.068 c 13.62943,0 14.12573,-0.0215 15.92,-0.69106 z m 34.972,5.79843 V 82.214736 l 21.68,0.102707 21.68,0.102707 2.40388,0.811698 c 3.94249,1.331224 6.59652,2.996338 9.60027,6.02312 3.15466,3.178853 4.72622,5.955348 5.79631,10.240436 0.94689,3.791726 0.75259,9.350306 -0.44937,12.855436 -2.04555,5.96524 -5.98969,10.42508 -11.99109,13.55896 -0.924,0.4825 -1.68,0.92342 -1.68,0.97982 0,0.18238 16.37057,28.77667 16.71571,29.19715 0.26851,0.32712 -0.93582,0.38978 -6.15033,0.32 l -6.48422,-0.0868 -7.92134,-14.24 -7.92134,-14.24 -11.87924,-0.0839 -11.87924,-0.0839 v 14.4039 14.40389 h -5.76 -5.76 z m 42.34997,-2.82771 c 2.97131,-1.18865 4.96216,-3.02032 6.45003,-5.9343 1.23097,-2.41087 1.28,-2.62483 1.28,-5.58612 0,-2.79532 -0.0937,-3.27695 -1.01581,-5.223465 -1.24599,-2.630123 -3.20885,-4.647872 -5.72162,-5.881625 l -1.90257,-0.934147 -14.96,-0.09198 -14.96,-0.09198 v 12.352527 12.35252 l 14.48,-0.10668 c 14.30816,-0.10541 14.50219,-0.11556 16.34997,-0.85474 z M 109.38587,62.392592 C 101.77081,61.107553 96.556089,57.005593 93.706179,50.05878 92.7491,47.725847 92.654675,47.178458 92.541593,43.307604 c -0.09592,-3.283345 -0.0041,-4.6243 0.416374,-6.08 2.085128,-7.21905 8.356693,-12.978315 15.630183,-14.35342 3.14891,-0.595325 4.24338,-0.593573 7.71805,0.01236 3.98107,0.694241 7.09256,2.292048 9.95769,5.113458 4.07463,4.012448 5.89611,8.578501 5.89611,14.780268 v 3.299732 h -15.04 c -17.09268,0 -15.82053,-0.25142 -14.08037,2.782772 2.01241,3.508871 5.41522,5.086177 10.40917,4.824961 3.38809,-0.177219 5.65298,-1.037911 7.77422,-2.954326 l 1.30621,-1.180088 3.29539,2.470838 c 4.12149,3.090248 3.83287,2.813675 3.5918,3.441887 -0.24934,0.649761 -3.60305,3.314774 -5.57642,4.431286 -3.88126,2.195963 -9.98428,3.249547 -14.45413,2.495261 z M 122.56,38.305845 c 0,-0.403785 -0.46892,-1.519785 -1.04203,-2.48 -2.9815,-4.995293 -10.51196,-6.32111 -15.80628,-2.78286 -1.8135,1.211982 -3.63169,3.751853 -3.63169,5.073181 v 0.923835 h 10.24 10.24 z M 81.404396,61.603716 C 76.757005,60.59276 74.075862,58.150966 72.7089,53.68448 72.261422,52.222367 72.178692,49.11693 72.0822,30.160001 L 71.971032,8.3200002 h 4.968585 4.968584 l 0.0859,7.4399998 0.0859,7.440001 3.6,0.09048 3.6,0.09048 v 4.13904 4.139039 l -3.6,0.09048 -3.6,0.09048 v 8.8 c 0,9.553418 0.07255,10.005872 1.810737,11.291854 0.58404,0.432098 1.562129,0.680312 3.12,0.791777 l 2.269263,0.162365 v 4.597002 4.597003 l -2.96,-0.02544 c -1.628,-0.01399 -3.840021,-0.216873 -4.915601,-0.450846 z M 11.84,42.560001 v -19.2 h 4.959999 4.96 v 19.2 19.200001 h -4.96 H 11.84 Z m 15.999999,0 v -19.2 h 4.96 4.96 v 2.59669 2.59669 l 2.014337,-1.87669 c 2.440367,-2.273608 4.223812,-3.193115 7.499509,-3.866589 2.042482,-0.419928 2.971556,-0.450111 5.206153,-0.169131 7.830154,0.98457 12.118978,5.284667 13.464891,13.50028 0.160271,0.978313 0.292236,7.14275 0.293255,13.69875 l 0.0019,11.920001 h -5.119999 -5.12 v -10.98663 c 0,-12.150016 -0.182866,-13.857146 -1.732785,-16.176236 -2.796431,-4.184202 -9.696583,-4.586433 -13.496276,-0.786741 -2.662819,2.66282 -2.998384,4.631246 -3.005382,17.629607 l -0.0056,10.32 h -4.96 -4.96 z m 109.759991,-9.12 V 5.1200002 h 5.12 5.12 V 33.440001 61.760002 h -5.12 -5.12 z m 16.90494,27.799234 c -2.36312,-0.980975 -2.8561,-4.205748 -0.911,-5.959233 0.76547,-0.690066 1.29278,-0.88 2.44311,-0.88 1.24163,0 1.63407,0.167114 2.55495,1.088 0.84862,0.848619 1.088,1.350753 1.088,2.282229 0,1.555514 -1.03902,3.203159 -2.29635,3.641467 -1.25267,0.43668 -1.43807,0.425573 -2.87871,-0.172463 z m 3.59968,-1.054618 c 1.6374,-1.6374 1.19684,-4.160622 -0.87781,-5.027466 -3.19047,-1.333061 -5.78162,2.577267 -3.33142,5.027466 0.69251,0.692513 1.23897,0.935385 2.10461,0.935385 0.86565,0 1.41211,-0.242872 2.10462,-0.935385 z m -3.30462,-0.207367 c -0.36987,-0.375903 -0.284,-3.91228 0.10077,-4.150081 0.18742,-0.115832 0.8273,-0.119328 1.42196,-0.0078 1.30774,0.245334 1.75442,1.219769 0.96101,2.096474 -0.49873,0.551085 -0.4982,0.64457 0.008,1.417068 0.3475,0.530345 0.40856,0.82706 0.17022,0.82706 -0.20442,0 -0.61699,-0.43109 -0.9168,-0.957977 -0.70302,-1.235468 -1.27807,-1.223777 -1.40484,0.02856 -0.0551,0.54482 -0.20828,0.88082 -0.34028,0.746666 z m 2.1376,-2.66099 c 0.26128,-0.422766 -0.69567,-1.096171 -1.25352,-0.882102 -0.79593,0.305427 -0.57671,1.165844 0.29704,1.165844 0.42961,0 0.86003,-0.127684 0.95648,-0.283742 z"
         id="path3" />
      <path
         style="fill:#004985"
         d="M 36.075193,156.8212 C 27.68962,155.00105 21.058219,151.40992 15.483577,145.67013 10.341509,140.37572 6.9410539,133.64144 5.4068814,125.71419 c -0.5073637,-2.62161 -0.5073637,-10.08676 0,-12.70837 1.529437,-7.90279 4.9928926,-14.769215 10.0680546,-19.960293 5.32883,-5.450539 10.523716,-8.435751 18.605063,-10.691292 3.525153,-0.983887 11.734239,-1.384262 16.19368,-0.789801 16.523341,2.202625 29.859689,14.849515 32.607354,30.921626 0.624665,3.6539 0.838061,8.99846 0.438964,10.99394 l -0.2,1 H 50.039998 c -28.080692,0 -33.079999,0.0674 -33.079999,0.4463 0,1.05084 1.450349,5.0387 2.747214,7.5537 5.326714,10.33006 16.716985,16.19871 28.612785,14.74226 7.938729,-0.97197 12.7303,-3.19282 18.083234,-8.38139 l 2.563234,-2.48453 3.836765,2.8869 c 5.742228,4.32064 5.509929,3.53366 2.017907,6.83623 -4.600117,4.35055 -9.345533,7.25684 -14.82114,9.07706 -5.195038,1.72696 -7.160437,2.02065 -14.4,2.15177 -5.721877,0.10363 -7.136598,0.0313 -9.524805,-0.4871 z M 71.512264,113.52 c -0.860928,-4.0962 -3.443878,-9.46033 -5.936618,-12.32885 -8.410121,-9.677947 -22.436735,-12.423301 -33.895647,-6.634211 -6.669034,3.369223 -11.805792,9.553621 -14.051064,16.916771 -0.367915,1.20654 -0.668936,2.39454 -0.668936,2.64 0,0.37825 4.175423,0.44629 27.385425,0.44629 h 27.385425 z m 304.763776,43.43677 c -8.48306,-1.68984 -15.03991,-5.07526 -20.7561,-10.71677 -11.02705,-10.88297 -14.22218,-27.85485 -7.94046,-42.17816 4.46897,-10.189972 13.14678,-17.841964 23.99138,-21.155319 3.98991,-1.219041 7.0235,-1.626519 12.10913,-1.626519 7.2535,0 12.45716,1.175249 18.39999,4.155649 7.6718,3.847494 13.61381,9.928648 17.27969,17.684339 2.84393,6.01672 4.26382,14.13357 3.47682,19.87535 l -0.2035,1.48466 h -33.0765 c -23.94484,0 -33.0765,0.0977 -33.0765,0.35381 0,0.86565 1.08696,4.41944 1.89256,6.18768 5.15548,11.3159 16.85216,17.74633 29.4655,16.19911 7.96143,-0.97659 13.56193,-3.63873 18.52222,-8.80437 1.33595,-1.39124 2.15587,-2.01992 2.39545,-1.8367 0.20035,0.15322 2.20961,1.70177 4.46504,3.44123 l 4.10077,3.16265 -2.8484,2.73418 c -6.28782,6.03569 -13.24963,9.48435 -22.27506,11.03435 -3.53672,0.60739 -12.88294,0.61022 -15.92203,0.005 z m 34.68233,-42.58182 c 0.32505,-0.32505 -1.223,-5.34073 -2.31327,-7.49495 -1.6073,-3.17579 -3.23486,-5.39308 -5.64847,-7.695072 -2.62647,-2.505027 -3.41898,-3.073901 -6.38011,-4.579757 -4.58157,-2.329919 -9.09137,-3.266963 -14.36236,-2.9842 -4.13851,0.222012 -7.26632,1.032248 -10.85307,2.81141 -3.08441,1.52998 -4.56446,2.595391 -7.18866,5.174729 -2.32714,2.28737 -4.45199,5.3412 -5.8281,8.37614 -0.89629,1.97672 -1.90434,5.2396 -1.90434,6.16399 0,0.33378 5.1948,0.41276 27.14666,0.41276 14.93067,0 27.22994,-0.0833 27.33172,-0.18505 z m 54.32161,42.44175 c -16.14574,-3.43259 -27.88386,-15.28818 -30.55285,-30.85861 -1.02827,-5.99876 -0.4287,-13.58738 1.50736,-19.07809 1.95387,-5.54121 4.19018,-9.233693 8.14353,-13.446137 5.88879,-6.274731 14.26894,-10.646248 22.64095,-11.810687 3.1674,-0.440545 9.67463,-0.440545 12.84202,0 7.64495,1.063313 15.72053,4.994632 21.21677,10.328641 7.60738,7.382845 11.56222,16.738663 11.56222,27.352283 0,2.28996 -0.0874,4.39134 -0.19424,4.66973 -0.17538,0.45705 -3.40584,0.50617 -33.28609,0.50617 h -33.09186 l 0.20336,0.88 c 0.42211,1.8266 1.76566,5.61396 2.5187,7.10001 1.41757,2.79745 4.59728,6.65265 7.21337,8.74578 6.00065,4.80111 13.5669,6.93068 21.43676,6.03352 7.83133,-0.89277 13.71587,-3.69364 18.69546,-8.8985 l 1.9594,-2.04803 3.83257,2.92899 c 2.10791,1.61095 4.11629,3.12885 4.46305,3.37311 0.60288,0.42467 0.54684,0.52985 -1.28,2.40219 -6.56772,6.73133 -13.3649,10.22122 -23.35048,11.98888 -3.76744,0.66692 -12.99257,0.57218 -16.48,-0.16925 z m 35.52,-42.66313 c 0,-1.09726 -1.43221,-5.35051 -2.55096,-7.57558 -8.86409,-17.629818 -33.39339,-20.318701 -46.08791,-5.05212 -2.2274,2.6787 -4.90345,7.82467 -5.56113,10.6939 -0.24959,1.08887 -0.37269,2.06087 -0.27356,2.16 0.0991,0.0991 12.39623,0.18023 27.3269,0.18023 21.73311,0 27.14666,-0.0811 27.14666,-0.40643 z M 95.999996,119.36 V 82.240002 h 5.859594 5.8596 l 5.9004,8.643368 c 17.05971,24.99038 23.20735,33.89463 23.4611,33.98104 0.29385,0.10007 0.94116,-0.78725 6.11656,-8.38441 4.30894,-6.32526 17.84979,-26.055498 20.31445,-29.599997 1.10144,-1.584 2.23789,-3.27509 2.52545,-3.757977 l 0.52284,-0.877977 5.84,-0.002 5.84,-0.002 V 119.36 156.48 h -5.76 -5.76 v -27.84 c 0,-15.312 -0.108,-27.83373 -0.24,-27.82608 -0.132,0.008 -1.2189,1.48365 -2.41533,3.28 -2.34159,3.51569 -4.75721,7.044 -12.8617,18.78608 -2.8547,4.136 -6.12311,8.888 -7.26312,10.56 -1.14,1.672 -3.12625,4.58005 -4.41388,6.46233 l -2.34113,3.42232 -0.848,-1.18232 c -0.4664,-0.65028 -3.85294,-5.57433 -7.52563,-10.94233 -3.67269,-5.368 -7.47275,-10.912 -8.44457,-12.32 -0.97182,-1.408 -2.69679,-3.928 -3.83326,-5.6 -3.06273,-4.50594 -7.46067,-10.93919 -8.03258,-11.74994 -0.27544,-0.39047 -0.60879,-0.71447 -0.74079,-0.72 -0.132,-0.006 -0.24,12.51794 -0.24,27.82994 v 27.84 h -5.76 -5.760004 z m 99.039994,0 V 82.240002 h 20.17973 c 19.4009,0 20.27778,0.02565 22.72,0.664685 6.90862,1.807703 12.33229,6.915695 14.58419,13.735316 0.88224,2.671775 1.00324,3.466367 0.99895,6.559997 -0.004,2.72955 -0.16344,4.02302 -0.71095,5.76 -0.84839,2.69151 -2.5418,5.88923 -4.0548,7.65683 l -1.10723,1.29355 2.08021,1.85944 c 7.09932,6.3459 9.09171,16.76957 4.81936,25.21366 -2.74826,5.4318 -7.78675,9.449 -13.59861,10.8422 -2.58553,0.6198 -3.7094,0.64994 -24.31085,0.65208 l -21.6,0.002 z m 45.19498,25.79856 c 2.32384,-1.07334 4.59872,-3.32932 5.61571,-5.56904 0.53363,-1.17521 0.68808,-2.14735 0.69737,-4.38952 0.0104,-2.51911 -0.1001,-3.10816 -0.88221,-4.70082 -1.29404,-2.63514 -3.76588,-4.78109 -6.5179,-5.65858 -2.13929,-0.68212 -2.52599,-0.69566 -17.38795,-0.60911 l -15.2,0.0885 -0.0845,10.55757 c -0.0465,5.80666 -0.0121,10.74617 0.0764,10.97668 0.13026,0.33947 3.15665,0.40074 15.92447,0.32244 l 15.76364,-0.0967 z m -4.86221,-31.09016 c 8.39453,-2.16375 10.92319,-12.75233 4.45674,-18.662302 -3.03935,-2.7778 -2.95815,-2.766095 -19.18951,-2.766095 h -14.08 l -0.0845,10.557567 c -0.0465,5.80666 -0.015,10.73866 0.07,10.96 0.25013,0.65183 26.26465,0.57137 28.82728,-0.0892 z m 36.30723,5.28082 V 82.218429 l 21.36,0.09802 c 24.09381,0.110563 22.69045,-0.02353 28.24,2.698348 2.50928,1.230724 3.49057,1.946486 5.62091,4.099961 4.6182,4.668358 6.7908,10.422935 6.45376,17.094132 -0.43418,8.594 -5.15106,15.75895 -12.95467,19.67815 -0.924,0.46406 -1.68,0.93199 -1.68,1.03984 0,0.10785 3.708,6.68703 8.24,14.6204 4.532,7.93337 8.288,14.53871 8.34666,14.67852 0.0587,0.13981 -2.69657,0.2542 -6.12276,0.2542 h -6.22943 l -2.96888,-5.36 c -1.63288,-2.948 -3.25395,-5.864 -3.60239,-6.48 -0.7189,-1.27096 -6.51549,-11.7285 -7.98188,-14.4 -0.53134,-0.968 -1.10864,-1.94 -1.28288,-2.16 -0.24318,-0.30704 -3.05927,-0.4 -12.11762,-0.4 h -11.80082 v 14.4 14.4 h -5.76 -5.76 z m 42.93747,-3.08186 c 2.85915,-1.35455 4.82825,-3.23293 6.10255,-5.8214 0.97355,-1.97756 1.03998,-2.32756 1.03998,-5.47923 0,-2.96892 -0.0996,-3.57922 -0.84326,-5.16513 -1.63434,-3.485565 -4.64584,-5.966132 -8.28416,-6.823649 -1.68695,-0.3976 -4.6179,-0.489368 -15.75258,-0.493218 l -13.68,-0.0047 v 12.495027 12.49502 l 14.64,-0.095 14.64,-0.095 z M 110.24,62.37989 C 101.50926,61.432056 94.656065,55.390245 92.795411,47.000656 92.137467,44.034023 92.522375,38.402424 93.569154,35.680001 95.469441,30.737804 98.922647,26.914348 103.52,24.662236 c 3.04744,-1.492856 5.34127,-2.000276 8.99635,-1.990089 5.66586,0.01579 10.1602,1.786482 13.81762,5.443899 3.91437,3.914372 5.82603,8.805741 5.82603,14.907125 v 3.05683 h -15.2 c -8.36,0 -15.2,0.08092 -15.2,0.179817 0,0.0989 0.36442,0.950135 0.80982,1.891636 2.0424,4.317286 7.10187,6.536158 12.55331,5.50536 2.24779,-0.425028 5.82604,-2.167262 6.90907,-3.364 0.56825,-0.627909 0.61835,-0.603423 3.89894,1.905436 1.82782,1.397836 3.40078,2.666874 3.49547,2.820086 0.26952,0.436104 -3.1799,3.41711 -5.37363,4.643917 -2.28977,1.28051 -5.43488,2.332026 -7.73298,2.585392 -3.23315,0.356456 -3.88428,0.370619 -6.08,0.132245 z m 12.31297,-24.059889 c -0.0207,-2.122286 -2.3201,-4.879461 -5.28689,-6.339462 -1.37594,-0.677122 -2.03126,-0.780538 -4.94608,-0.780538 -2.75726,0 -3.62535,0.122692 -4.83917,0.683945 -1.77349,0.82003 -3.97306,2.742079 -4.66147,4.073312 -0.65252,1.261833 -1.04846,2.666979 -0.81678,2.898656 0.10124,0.101248 4.76808,0.184087 10.37075,0.184087 H 122.56 Z M 82.559997,61.758338 C 78.618465,61.083932 76.125214,59.742155 74.616251,57.483305 72.103922,53.722461 71.999997,52.575067 71.999997,28.598084 V 8.3200002 h 4.96 4.96 V 15.84 23.360001 h 3.68 3.68 v 4.16 4.16 h -3.70227 -3.70227 l 0.10227,9.097223 c 0.0968,8.610563 0.137724,9.145517 0.765017,10 0.980669,1.335843 2.573759,2.021706 4.697253,2.02228 l 1.84,4.98e-4 v 4.64 4.64 l -2.64,-0.03764 c -1.452,-0.0207 -3.288,-0.148513 -4.08,-0.284026 z M 11.84,42.560001 v -19.2 h 4.959999 4.96 v 19.2 19.200001 h -4.96 H 11.84 Z m 15.999999,0 v -19.2 h 4.96 4.96 v 2.754609 2.754609 l 1.404865,-1.554609 c 2.786872,-3.083922 6.361389,-4.592142 10.970985,-4.62906 4.942816,-0.03959 8.171352,1.091205 11.144951,3.903512 1.960599,1.854253 3.225751,4.056049 4.108337,7.149909 0.586884,2.05729 0.65656,3.421641 0.77324,15.14103 l 0.128236,12.880001 H 61.145305 55.999998 V 50.340995 c 0,-13.532174 -0.123822,-14.335292 -2.590471,-16.801941 -4.089132,-4.089132 -11.589209,-2.892844 -14.185459,2.262631 -1.301286,2.584013 -1.464069,4.297833 -1.464069,15.414067 v 10.54425 h -4.96 -4.96 z m 109.838261,-9.04 0.0817,-28.2400008 h 4.96 4.96 l 0.0817,28.2400008 0.0817,28.240001 h -5.12348 -5.12347 z m 16.1682,27.290847 c -2.75818,-2.169589 -1.22329,-6.405893 2.32233,-6.40965 1.34191,-0.0014 2.3777,0.655059 3.03303,1.922338 0.80235,1.551563 0.61242,2.806224 -0.60983,4.028466 -0.91244,0.912446 -1.31855,1.088 -2.51684,1.088 -0.93609,0 -1.70468,-0.216971 -2.22869,-0.629154 z m 4.29249,-0.610301 c 2.43042,-2.17158 0.28387,-6.061636 -2.90829,-5.270517 -2.42693,0.60147 -3.19268,3.641609 -1.33527,5.301206 1.3539,1.209706 2.86756,1.19876 4.24356,-0.03069 z m -3.41896,-2.280545 v -1.92 h 1.136 c 1.05271,0 1.904,0.447617 1.904,1.001143 0,0.128228 -0.23509,0.468241 -0.52244,0.755584 -0.42058,0.420585 -0.45311,0.674594 -0.16686,1.302857 0.19557,0.429229 0.23778,0.780416 0.0938,0.780416 -0.14398,0 -0.4258,-0.36 -0.62628,-0.8 -0.20048,-0.44 -0.58359,-0.8 -0.85137,-0.8 -0.30598,0 -0.48686,0.297212 -0.48686,0.8 0,0.44 -0.108,0.8 -0.24,0.8 -0.132,0 -0.24,-0.864 -0.24,-1.92 z m 2.31477,-1.061666 c -0.0683,-0.208084 -0.50902,-0.423899 -0.97944,-0.479589 -0.6736,-0.07974 -0.85533,0.03357 -0.85533,0.533333 0,0.349024 0.18,0.69913 0.4,0.778014 0.5703,0.204487 1.58227,-0.382171 1.43477,-0.831758 z"
         id="path2" />
    </g>
  </g>
</svg>
