<?xml version="1.0" encoding="utf-8"?>
<!-- Generator: Adobe Illustrator 25.1.0, SVG Export Plug-In . SVG Version: 6.00 Build 0)  -->
<svg version="1.1" id="Layer_1" xmlns="http://www.w3.org/2000/svg" xmlns:xlink="http://www.w3.org/1999/xlink" x="0px" y="0px"
	 viewBox="0 0 199.5 40.5" style="enable-background:new 0 0 199.5 40.5;" xml:space="preserve">
<style type="text/css">
	.st0{fill:#E8E8E9;}
	.st1{fill:#F7490B;}
	.st2{fill:#5F6061;}
</style>
<g>
	<polyline class="st0" points="108,0 109,0 109,39 108,39 	"/>
	<g>
		<g>
			<path class="st1" d="M31.6,33.3c0.5,1.2,0.1,2.4,0.4,3.5c0.1,0.4-0.1,0.7-0.6,0.8c-3.1,0.9-6.2,1.7-9.3,2.3
				c-2.2,0.4-4.5,0.7-6.7,0.6C12,40.2,8.7,39.3,6,37.2c-2.1-1.6-3.6-3.7-4.7-6.2c-1.1-2.7-1.4-5.6-1.2-8.5c0.3-3.9,1.7-7.3,4.6-9.9
				c2.2-2,4.8-3.4,7.8-4c2-0.4,4.1-0.4,6.1-0.3c2.5,0.2,4.8,1.2,6.9,2.6c1.6,1.1,3,2.5,4,4.1c1.1,1.9,2,3.8,2.4,6
				c0.2,1.2,0.4,2.4,0.4,3.7c0,1.1,0.1,1-1,1c-6.4,0-12.8,0-19.2,0c-2.3,0-4.5,0-6.8,0c-0.7,0-0.9,0.1-0.7,0.8
				c0.3,1.7,0.8,3.4,1.9,4.9c1.6,2.3,3.8,3.8,6.5,4.5c1.1,0.3,2.3,0.5,3.5,0.5c1.2,0,2.3-0.1,3.5-0.3c1.7-0.2,3.3-0.6,4.9-0.9
				c2.1-0.4,4.1-1,6.2-1.7C31.1,33.4,31.3,33.4,31.6,33.3z M27.5,21.8c-1.1-5.5-5.7-9.8-12.1-9.4c-5.1,0.4-10.3,4.1-10.9,9.4
				C12.2,21.8,19.9,21.8,27.5,21.8z"/>
			<path class="st1" d="M53.1,12.9c-3,0-5.9,0-8.9,0c-0.8,0-0.8,0-0.8,0.8c0,4.7,0,9.5,0,14.2c0,0.9,0.1,1.8,0.3,2.7
				c0.6,2.9,2.6,4.5,5.4,5.2c1,0.3,2,0.4,3,0.4c0.5,0,0.9,0.2,1.4,0.2c2.1-0.1,4.2-0.4,6.1-1.3c1.5-0.7,3.1-1.3,4.5-2.1
				c0.4-0.2,0.6-0.2,0.8,0.3c0.4,0.9,0.8,1.8,1.3,2.7c0.3,0.5,0.1,0.7-0.3,1c-2.5,1.3-5.1,2.5-7.9,3.1c-2.2,0.5-4.4,0.6-6.7,0.3
				c-1.5-0.2-3-0.3-4.5-0.8c-1.9-0.6-3.6-1.6-5-3c-1.5-1.7-2.4-3.6-2.6-5.9c-0.4-5.4-0.1-10.8-0.2-16.1c0-0.3,0-0.6,0-0.9
				c0.1-0.6-0.2-0.7-0.7-0.7c-2.3,0-4.6,0-6.8,0c-0.2,0-0.4,0-0.6,0c-0.3,0-0.4-0.1-0.4-0.4c0-1.1,0-2.2,0-3.3
				c0-0.5,0.3-0.4,0.6-0.4c1.5,0,3.1,0,4.6,0c0.8,0,1.6,0,2.4,0c0.9,0,0.9,0,0.9-0.9c0-2.2,0-4.4,0-6.7c0-0.8,0-0.8,0.8-0.8
				c0.9,0,1.8,0,2.8,0c0.5,0,0.7,0.2,0.7,0.7c0,2.2,0,4.4,0,6.6c0,0.2,0,0.4,0,0.6c0,0.3,0.1,0.5,0.5,0.5c0.2,0,0.5,0,0.7,0
				c5.7,0,11.4,0,17.2,0c1.2,0,1-0.1,1,1.1c0,0.7,0,1.4,0,2.1c0,0.9,0,0.9-0.9,0.9c-2.1,0-4.3,0-6.4,0
				C54.7,12.9,53.9,12.9,53.1,12.9z"/>
			<path class="st1" d="M82.4,8.3c2.5-0.1,4.8,0.3,7.1,1.2c1.1,0.5,2.2,1.2,3.1,1.9c1.4,1.1,2.6,2.4,3.7,3.8
				c0.2,0.3,0.2,0.5-0.1,0.7c-1,0.6-2,1.1-2.9,1.7c-0.3,0.2-0.5,0.1-0.7-0.2c-0.5-0.7-1-1.3-1.6-1.9c-1.7-1.8-3.9-2.7-6.3-3.1
				c-2.5-0.3-5-0.2-7.4,0.7c-4,1.4-6.6,4.1-7.5,8.3c-0.7,3.5-0.3,6.8,1.7,9.8c1.5,2.2,3.6,3.6,6.2,4.3c1.4,0.4,2.8,0.7,4.1,0.7
				c2.9,0,5.7-0.5,8.2-2.4c1.3-1,2.2-2.3,3.1-3.6c0.3-0.4,0.5-0.5,0.9-0.3c0.9,0.5,1.9,1,2.8,1.4c0.4,0.2,0.4,0.4,0.2,0.7
				c-1.1,1.6-2.3,3.2-3.9,4.5c-1.9,1.6-4,2.6-6.4,3.1c-2.2,0.5-4.4,0.6-6.7,0.4c-2.1-0.2-4.1-0.7-6-1.5c-1.3-0.5-2.5-1.3-3.6-2.2
				c-2.6-2.2-4.3-4.9-5-8.3c-0.3-1.7-0.5-3.4-0.4-5.1c0.2-3.5,1.3-6.7,3.5-9.4c1.1-1.3,2.4-2.4,3.8-3.2c2.1-1.3,4.4-2,6.9-2.3
				C80.4,8.3,81.4,8.4,82.4,8.3z"/>
			<path class="st2" d="M174,8.5c0.7-1.8,1.4-3.4,2-5.1c0.5-1.2,0.5-1.2,1.8-1.2c0.4,0,0.6,0.1,0.6,0.5c0,0.7,0,1.4,0,2
				c0,1.5,0,3.1,0,4.6c0,0.5-0.2,0.6-0.6,0.6c-0.5,0-0.6-0.2-0.6-0.7c0-1.6,0-3.3,0-4.9c0-0.1,0-0.3,0-0.6c-0.8,2-1.6,3.8-2.3,5.6
				c-0.1,0.3-0.2,0.6-0.7,0.5c-0.4,0-0.7,0-0.9-0.5c-0.6-1.5-1.2-2.9-1.8-4.4c-0.1-0.3-0.3-0.6-0.5-1.1c0,1.9,0,3.6,0,5.3
				c0,0.6-0.2,0.7-0.7,0.7c-0.5,0-0.6-0.2-0.6-0.6c0-2.2,0-4.4,0-6.6c0-0.5,0.1-0.7,0.6-0.6c0.2,0,0.5,0,0.7,0
				c0.3,0,0.5,0.1,0.6,0.5C172.3,4.6,173.1,6.5,174,8.5z"/>
			<path class="st2" d="M128,30.4c0,2,0,3.8,0,5.6c0,0.7,0,0.7-0.7,0.7c-0.5,0-0.5-0.2-0.5-0.6c0-1.5,0-3,0-4.5c0-0.7,0-1.5,0-2.2
				c0-0.4,0.1-0.5,0.5-0.5c0.8-0.1,1.3,0.1,1.8,0.9c1.1,1.8,2.1,3.6,3.4,5.4c0-1,0-1.9,0-2.8c0-0.9,0-1.8,0-2.7c0-0.8,0-0.8,0.8-0.8
				c0.4,0,0.5,0.2,0.5,0.5c0,2.3,0,4.5,0,6.8c0,0.4-0.1,0.5-0.6,0.6c-0.9,0.1-1.4-0.2-1.9-1C130.3,34,129.2,32.3,128,30.4z"/>
			<path class="st2" d="M124.5,8.2c0-1.8,0-3.6,0-5.4c0-0.5,0.2-0.6,0.7-0.6c0.5,0,0.6,0.2,0.6,0.6c0,2.2,0,4.4,0,6.7
				c0,0.5-0.2,0.6-0.6,0.6c-0.7,0-1.1-0.1-1.5-0.8c-1-1.8-2.2-3.5-3.2-5.2c0-0.1-0.1-0.1-0.3-0.3c0,0.3,0,0.5,0,0.7c0,1.7,0,3.3,0,5
				c0,0.5-0.3,0.5-0.6,0.5c-0.4,0-0.6-0.1-0.6-0.6c0-2.2,0-4.5,0-6.7c0-0.4,0.1-0.5,0.5-0.5c0.9-0.1,1.4,0.1,1.9,1
				c0.9,1.6,2,3.2,3,4.8C124.2,8.1,124.2,8.2,124.5,8.2z"/>
			<path class="st2" d="M162.7,4c0,1.8,0,3.5,0,5.3c0,0.8,0,0.8-0.8,0.8c-0.3,0-0.4-0.1-0.4-0.4c0-2.3,0-4.7,0-7
				c0-0.1,0-0.3,0.1-0.3c0.5-0.2,0.9,0,1.4-0.1c0.3,0,0.4,0.3,0.5,0.5c1.2,1.9,2.3,3.7,3.5,5.6c0,0,0.1,0,0.2,0c0-0.9,0-1.9,0-2.8
				c0-0.9,0-1.8,0-2.8c0-0.5,0.2-0.6,0.6-0.6c0.4,0,0.7,0,0.7,0.5c0,2.3,0,4.5,0,6.8c0,0.4-0.2,0.5-0.6,0.5
				c-0.8,0.1-1.3-0.1-1.7-0.9c-1-1.8-2.2-3.5-3.3-5.3C162.8,4,162.7,4,162.7,4z"/>
			<path class="st2" d="M147.2,21.7c0-0.9,0-1.8,0-2.8c0-0.9,0-1.8,0-2.8c0-0.5,0.1-0.6,0.6-0.6c0.5,0,0.7,0.1,0.7,0.6
				c0,2.2,0,4.4,0,6.7c0,0.4-0.1,0.5-0.5,0.6c-1.3,0.3-1.7-0.7-2.2-1.5c-1-1.6-2-3.2-3.2-5c0,2.1,0,4,0,5.9c0,0.4-0.1,0.6-0.5,0.6
				c-0.4,0-0.6-0.1-0.6-0.6c0-2.2,0-4.5,0-6.7c0-0.4,0.1-0.6,0.6-0.5c0.2,0,0.4,0,0.6,0c0.4-0.1,0.6,0.1,0.8,0.4
				c1.1,1.9,2.3,3.7,3.5,5.6C147,21.7,147,21.8,147.2,21.7z"/>
			<path class="st2" d="M187,3.8c0,1.8,0,3.7,0,5.5c0,0.8,0,0.9-0.8,0.8c-0.3,0-0.4-0.1-0.4-0.4c0-2.3,0-4.7,0-7
				c0-0.1,0-0.3,0.2-0.4c0.5-0.3,1.7,0.1,2.1,0.7c1.2,1.9,2.4,3.8,3.7,5.8c0-2.1,0-4,0-5.9c0-0.5,0.2-0.6,0.6-0.6
				c0.5,0,0.5,0.3,0.5,0.6c0,2.2,0,4.4,0,6.6c0,0.5-0.2,0.6-0.7,0.6c-0.7,0-1.1-0.2-1.5-0.8c-1.1-1.8-2.2-3.5-3.3-5.2
				C187.3,4,187.3,3.8,187,3.8z"/>
			<path class="st2" d="M171.9,19.3c0.1-0.7-0.2-1.6,0.2-2.5c0.2-0.6,0.6-1,1.2-1.2c1.4-0.4,2.8-0.4,4.3,0c0.8,0.2,1.3,1.5,1,2.3
				c-0.1,0.3-0.9,0.2-1.1-0.1c-0.1-0.1-0.2-0.3-0.2-0.4c0.1-0.7-0.4-0.8-0.9-0.8c-0.7,0-1.4,0-2.1,0c-0.7,0-1,0.3-1,1
				c0,0.6,0,1.2-0.1,1.7c-0.1,0.7,0.2,1.5,0.2,2.3c0,0.3,0.4,0.7,0.9,0.7c0.8,0,1.5,0,2.3,0c0.4,0,0.7-0.2,0.8-0.5
				c0.1-0.4,0.4-0.9,0.2-1.4c-0.1-0.1-0.3-0.1-0.4-0.1c-0.5,0-1.1,0-1.6,0c-0.4,0-0.5-0.2-0.5-0.6c0-0.4,0.1-0.5,0.5-0.5
				c0.9,0,1.8,0,2.7,0c0.3,0,0.4,0.1,0.4,0.4c0,0.7,0,1.5,0,2.2c0,0.7-0.7,1.4-1.5,1.5c-1.1,0-2.1,0-3.2,0c-1.1-0.1-1.8-0.7-1.9-1.9
				C171.9,20.8,171.9,20.2,171.9,19.3z"/>
			<path class="st2" d="M139.4,6.1c0-1.1,0-2.2,0-3.3c0-0.4,0-0.6,0.5-0.6c1.3,0,2.7,0,4,0c1.1,0,1.7,0.7,1.7,1.8
				c0,0.8,0.2,1.7-0.4,2.3c-0.1,0.1,0,0.3,0.1,0.4c0.7,1,0.4,2,0.4,3.1c0,0.4-0.5,0.2-0.7,0.2c-0.2,0-0.5,0.1-0.5-0.3
				c0-0.5,0-1.1,0-1.6c0-0.7-0.4-1.1-1.1-1.1c-0.7,0-1.4,0-2.1,0c-0.4,0-0.6,0.2-0.5,0.6c0,0.6,0,1.3,0,2c0,0.6-0.3,0.5-0.7,0.5
				c-0.4,0-0.6,0-0.6-0.5C139.4,8.4,139.4,7.3,139.4,6.1z M142.2,6c0.4,0,0.8,0,1.1,0c0.7-0.1,1.2-0.7,1.2-1.4
				c0-0.9-0.4-1.3-1.3-1.3c-0.5,0-1,0-1.5,0c-1.1,0-1.1,0-1.1,1.1C140.6,6,140.6,6,142.2,6z"/>
			<path class="st2" d="M148.6,32.8c0-1.1,0-2.2,0-3.4c0-0.4,0.1-0.6,0.6-0.5c1.3,0,2.6,0,3.9,0c1.1,0,1.8,0.7,1.8,1.8
				c0,0.8,0.2,1.7-0.5,2.3c-0.1,0.1,0,0.3,0.1,0.4c0.7,1,0.3,2.1,0.3,3.1c0,0.4-0.5,0.2-0.8,0.2c-0.3,0-0.4-0.1-0.4-0.4
				c0-0.5,0-1,0-1.5c0-0.8-0.4-1.1-1.1-1.1c-0.7,0-1.4,0-2.1,0c-0.4,0-0.5,0.1-0.5,0.5c0,0.7,0,1.3,0,2c0,0.5-0.2,0.6-0.6,0.6
				c-0.4,0-0.7,0-0.6-0.5C148.7,35.1,148.6,34,148.6,32.8z M151.5,30c-0.4,0-0.8,0-1.2,0c-0.3,0-0.4,0.1-0.4,0.4c0,0.6,0,1.2,0,1.9
				c0,0.3,0.1,0.4,0.4,0.4c0.8,0,1.5,0,2.3,0c0.3,0,0.8,0,1-0.4c0.6-1-0.1-2.2-1.3-2.2C152.1,30,151.8,30,151.5,30z"/>
			<path class="st2" d="M156.7,19.7c-0.1,0.7,0.1,1.5-0.2,2.3c-0.3,0.9-0.8,1.5-1.8,1.5c-1,0-2,0-3,0c-0.9,0-1.6-0.6-1.8-1.5
				c-0.1-0.7-0.2-1.4-0.2-2.2c0-0.9-0.1-1.8,0.2-2.6c0.3-0.9,0.8-1.4,1.7-1.6c1.2-0.3,2.4-0.2,3.6,0c0.7,0.1,1.1,0.6,1.3,1.4
				C156.7,17.8,156.6,18.7,156.7,19.7z M155.4,19.5c0-0.6,0-1.1,0-1.7c0-0.7-0.4-1.1-0.9-1.2c-0.8,0-1.6,0-2.4,0
				c-0.5,0-0.9,0.2-1,0.8c-0.3,1.3-0.1,2.6-0.1,3.9c0,0.7,0.5,1,1.3,1c0.7,0,1.3,0,2,0c0.7,0,1.1-0.4,1.2-1.1
				C155.4,20.6,155.4,20.1,155.4,19.5z"/>
			<path class="st2" d="M163.9,19.4c0-0.8-0.1-1.6,0.2-2.5c0.2-0.8,0.8-1.3,1.6-1.4c1-0.1,2-0.2,3,0c1.7,0.3,1.9,1,2.1,2.5
				c0.1,1.2,0.1,2.5-0.1,3.7c-0.2,1.1-0.9,1.8-2,1.7c-0.8,0-1.6,0-2.4,0c-1.9,0-2.2-0.9-2.4-2.3C163.9,20.6,163.9,20,163.9,19.4z
				 M169.6,19.5c0-0.5,0-1,0-1.5c-0.1-1-0.4-1.4-1.4-1.4c-0.6,0-1.2,0-1.8,0c-0.9,0-1.3,0.4-1.3,1.2c0,1.1,0,2.2,0,3.3
				c0,0.8,0.4,1.2,1.3,1.2c0.6,0,1.2,0,1.8,0c0.9,0.1,1.3-0.5,1.4-1.3C169.7,20.6,169.6,20,169.6,19.5z"/>
			<path class="st2" d="M139.8,19.6c0,1.1,0,2.2,0,3.3c0,0.6-0.3,0.5-0.6,0.5c-0.4,0-0.6-0.1-0.6-0.6c0-0.8,0-1.7,0-2.5
				c0-0.4-0.1-0.5-0.5-0.5c-1,0-2.1,0-3.1,0c-0.4,0-0.5,0.1-0.5,0.5c0,0.9,0,1.7,0,2.6c0,0.5-0.3,0.5-0.6,0.5
				c-0.3,0-0.6,0.1-0.6-0.5c0-2.3,0-4.6,0-6.9c0-0.5,0.3-0.4,0.6-0.4c0.3,0,0.6,0,0.6,0.5c0,0.7,0,1.5,0,2.2c0,0.4,0.1,0.5,0.5,0.5
				c1,0,2.1,0,3.1,0c0.4,0,0.5-0.1,0.5-0.5c0-0.7,0-1.4,0-2.1c0-0.5,0.2-0.6,0.6-0.6c0.4,0,0.7,0,0.6,0.5
				C139.7,17.3,139.8,18.4,139.8,19.6z"/>
			<path class="st2" d="M125.5,19.1c0.1-0.7-0.2-1.6,0.2-2.4c0.3-0.6,0.7-1,1.3-1.1c0.9-0.1,1.7-0.3,2.6-0.2c0.5,0,0.9,0.1,1.4,0.3
				c0.5,0.2,0.8,0.6,0.9,1.2c0,0.2,0,0.4,0,0.5c0.1,0.2,0.3,0.5,0,0.7c-0.2,0.2-0.5,0.1-0.8,0.1c-0.3,0-0.4-0.1-0.4-0.4
				c0-0.2,0-0.3-0.1-0.5c-0.1-0.6-0.4-0.8-1-0.7c-0.6,0.1-1.2,0-1.9,0c-0.7,0-1.2,0.3-1.1,0.9c0,1.3-0.2,2.6,0.1,3.9
				c0.2,0.7,0.4,0.9,1,0.9c0.6,0,1.2,0,1.8,0c0.8,0,1.1-0.3,1.1-1.1c0-0.4-0.1-0.7,0.5-0.7c0.7,0,0.7,0,0.7,0.7
				c0,0.4-0.1,0.8-0.2,1.2c-0.2,0.6-0.7,1-1.4,1c-0.8,0-1.7,0-2.5,0c-1.7,0-2.4-0.7-2.4-2.4C125.5,20.5,125.5,19.9,125.5,19.1z"/>
			<path class="st2" d="M112.2,32.6c0.1-0.7-0.1-1.5,0.1-2.3c0.2-0.8,0.8-1.2,1.4-1.4c1.3-0.3,2.5-0.4,3.8,0
				c0.7,0.2,1.5,1.9,1.2,2.5c-0.2,0.3-0.6,0.1-0.9,0.2c-0.3,0-0.3-0.2-0.3-0.4c-0.1-1.2-0.2-1.2-1.3-1.2c-0.5,0-1.1,0-1.6,0
				c-0.7,0-1.1,0.4-1.1,1c0,1.3-0.1,2.6,0.2,3.9c0.1,0.5,0.4,0.8,0.9,0.8c0.7,0,1.4,0,2,0c0.7,0,0.9-0.3,1-1c0-0.8,0-0.8,0.8-0.7
				c0.3,0,0.5,0.1,0.5,0.5c0,0.4,0,0.9-0.1,1.3c-0.3,0.7-0.7,1.1-1.5,1.1c-0.9,0-1.9,0-2.8,0c-1.2,0-1.7-0.6-1.9-1.5
				C112.1,34.4,112.2,33.5,112.2,32.6z"/>
			<path class="st2" d="M158.6,10.1c-0.3,0-0.5,0-0.7,0c-0.5,0.1-0.8-0.2-0.9-0.6c-0.3-1-0.3-1-1.3-1c-0.7,0-1.4,0-2,0
				c-0.5,0-0.7,0.1-0.8,0.6c0,0.1-0.1,0.2-0.1,0.3c-0.1,0.5-0.3,0.8-0.9,0.7c-0.2,0-0.4,0-0.7,0c0.3-1.3,0.9-2.4,1.3-3.6
				c0.4-1.2,0.9-2.3,1.3-3.5c0.2-0.5,0.5-0.8,1.1-0.8c0.6,0,0.9,0.2,1.1,0.8C156.8,5.3,157.7,7.6,158.6,10.1z M153.5,7.4
				c0.9,0,1.8,0,2.7,0c-0.4-1.2-0.8-2.3-1.4-3.5C154.3,5.2,153.9,6.3,153.5,7.4z"/>
			<path class="st2" d="M179.6,6.2c0-1.1,0-2.2,0-3.3c0-0.4,0-0.6,0.6-0.6c1.4,0,2.8,0,4.3,0c0.5,0,0.5,0.2,0.5,0.6
				c0,0.4-0.1,0.5-0.5,0.5c-1,0-2,0-3,0c-0.5,0-0.6,0.2-0.6,0.6c0,1.5,0,1.5,1.5,1.5c0.7,0,1.3,0,2,0c0.4,0,0.5,0.2,0.5,0.5
				c0,0.3-0.1,0.5-0.5,0.5c-1,0-2,0-2.9,0c-0.4,0-0.5,0.1-0.5,0.5c0,0.5,0,1,0,1.5c0,0.4,0.1,0.5,0.5,0.5c1,0,2,0,3,0
				c0.4,0,0.6,0.1,0.6,0.5c0,0.4-0.1,0.6-0.5,0.6c-1.4,0-2.8,0-4.3,0c-0.4,0-0.6-0.1-0.5-0.6C179.6,8.4,179.6,7.3,179.6,6.2z"/>
			<path class="st2" d="M120,32.8c0-1.1,0-2.1,0-3.2c0-0.5,0.1-0.7,0.6-0.7c1.4,0,2.8,0,4.2,0c0.4,0,0.6,0.1,0.6,0.5
				c0,0.4-0.2,0.6-0.6,0.5c-1,0-2,0-3,0c-0.4,0-0.5,0.1-0.5,0.5c-0.1,1.7-0.1,1.7,1.6,1.7c0.6,0,1.2,0,1.8,0c0.4,0,0.6,0,0.6,0.5
				c0,0.5-0.2,0.6-0.6,0.6c-0.9,0-1.8,0-2.8,0c-0.4,0-0.6,0.1-0.6,0.5c0.1,0.6-0.2,1.4,0.1,1.8c0.4,0.4,1.2,0.1,1.8,0.1
				c0.6,0,1.2,0,1.8,0c0.4,0,0.4,0.2,0.4,0.5c0,0.3,0.1,0.6-0.4,0.6c-1.5,0-3,0-4.5,0c-0.4,0-0.4-0.2-0.4-0.5
				C120,35.1,120,33.9,120,32.8z"/>
			<path class="st2" d="M141.9,32.8c0-1.1,0-2.2,0-3.4c0-0.4,0.1-0.5,0.5-0.5c1.4,0,2.9,0,4.3,0c0.5,0,0.5,0.2,0.5,0.6
				c0,0.4-0.2,0.5-0.5,0.5c-1,0-2,0-3,0c-0.4,0-0.6,0.1-0.6,0.5c-0.1,1.6-0.1,1.6,1.5,1.6c0.6,0,1.1,0,1.7,0c0.4,0,0.7-0.1,0.7,0.6
				c0,0.6-0.3,0.5-0.7,0.5c-0.9,0-1.8,0-2.7,0c-0.5,0-0.6,0.1-0.6,0.6c0,0.4,0,0.9,0,1.3c0,0.5,0.2,0.6,0.6,0.6c1,0,2,0,2.9,0
				c0.4,0,0.6,0.1,0.6,0.5c0,0.4-0.2,0.5-0.6,0.5c-1.4,0-2.8,0-4.3,0c-0.5,0-0.5-0.2-0.5-0.6C141.9,35.1,141.9,33.9,141.9,32.8z"/>
			<path class="st2" d="M112.6,6.1c0-1.1,0-2.2,0-3.4c0-0.4,0.1-0.5,0.5-0.5c1.4,0,2.9,0,4.3,0c0.4,0,0.5,0.2,0.5,0.5
				c0,0.4-0.1,0.6-0.5,0.6c-1,0-2,0-2.9,0c-0.5,0-0.6,0.2-0.6,0.6c0,1.5,0,1.5,1.5,1.5c0.7,0,1.4,0,2,0c0.5,0,0.4,0.3,0.4,0.6
				c0,0.3,0,0.5-0.4,0.5c-0.9,0-1.8,0-2.8,0c-0.5,0-0.8,0.1-0.7,0.7c0.1,0.6-0.3,1.3,0.2,1.7c0.4,0.3,1.1,0.1,1.6,0.1
				c0.6,0,1.2,0,1.8,0c0.4,0,0.6,0.1,0.5,0.6c0,0.4-0.1,0.5-0.5,0.5c-1.4,0-2.9,0-4.3,0c-0.4,0-0.5-0.1-0.5-0.5
				C112.6,8.4,112.6,7.3,112.6,6.1z"/>
			<path class="st2" d="M119.1,19.4c0-1.1,0-2.2,0-3.3c0-0.4,0.1-0.6,0.5-0.6c1.4,0,2.8,0,4.3,0c0.4,0,0.6,0.1,0.6,0.5
				c0,0.4-0.2,0.5-0.6,0.5c-1,0-2,0-3,0c-0.4,0-0.5,0.1-0.5,0.5c-0.1,1.7-0.1,1.7,1.6,1.7c0.5,0,1,0,1.4,0c0.4,0,0.9-0.3,0.9,0.5
				c0,0.8-0.5,0.5-0.9,0.5c-0.8,0-1.7,0-2.5,0c-0.4,0-0.6,0.1-0.5,0.6c0.1,0.6-0.2,1.4,0.1,1.8c0.3,0.4,1.1,0.1,1.7,0.1
				c0.6,0,1.2,0,1.9,0c0.4,0,0.4,0.2,0.4,0.5c0,0.3,0.1,0.6-0.4,0.6c-1.5,0-3,0-4.4,0c-0.4,0-0.5-0.2-0.5-0.5
				C119.1,21.8,119.1,20.6,119.1,19.4z"/>
			<path class="st2" d="M133.2,6.1c0-1.1,0-2.2,0-3.4c0-0.4,0.1-0.5,0.5-0.5c1.4,0,2.9,0,4.3,0c0.4,0,0.5,0.1,0.5,0.5
				c0,0.4-0.1,0.6-0.5,0.6c-1.1,0-2.1,0-3.2,0c-0.4,0-0.5,0.1-0.6,0.6c0,1.6-0.1,1.6,1.5,1.6c0.7,0,1.4,0,2.1,0
				c0.4,0,0.4,0.2,0.4,0.5c0,0.3,0.1,0.6-0.4,0.6c-1,0-2,0-2.9,0c-0.5,0-0.8,0.1-0.8,0.7c0.1,0.6-0.3,1.3,0.2,1.7
				c0.4,0.3,1.1,0.1,1.6,0.1c0.7,0,1.4,0,2,0c0.4,0,0.4,0.2,0.5,0.6c0,0.4-0.1,0.5-0.5,0.5c-1.4,0-2.9,0-4.3,0
				c-0.5,0-0.5-0.2-0.5-0.6C133.2,8.4,133.2,7.3,133.2,6.1z"/>
			<path class="st2" d="M178.9,15.6c0.4,0,0.7,0,1,0c0.4,0,0.6,0.1,0.8,0.5c0.6,0.9,1.2,1.8,1.8,2.7c0.6-0.7,1.1-1.5,1.5-2.3
				c0.5-0.8,1.1-1.1,2.1-0.8c-0.6,1.1-1.3,2-2,2.9c-0.8,1.1-1.2,2.2-1,3.6c0,0.2,0,0.4,0,0.5c0,0.7,0,0.7-0.7,0.7
				c-0.5,0-0.5-0.2-0.5-0.6c0-0.7,0-1.4,0-2.1c0-0.4-0.1-0.8-0.4-1.1C180.7,18.3,179.9,17,178.9,15.6z"/>
			<path class="st2" d="M115.6,20.1c0,0.9,0,1.9,0,2.8c0,0.6-0.3,0.5-0.7,0.5c-0.4,0-0.6,0-0.6-0.5c0-1.8,0-3.7,0-5.5
				c0-0.7,0-0.7-0.8-0.7c-0.4,0-0.8,0-1.2,0c-0.4,0-0.5-0.2-0.5-0.5c0-0.3,0-0.6,0.5-0.5c1.8,0,3.5,0,5.3,0c0.4,0,0.4,0.2,0.5,0.6
				c0,0.4-0.1,0.6-0.5,0.5c-0.5,0-0.9,0-1.4,0c-0.4,0-0.6,0.1-0.6,0.6C115.6,18.2,115.6,19.1,115.6,20.1z"/>
			<path class="st2" d="M130,6.7c0,0.9,0,1.9,0,2.8c0,0.5-0.3,0.5-0.6,0.6c-0.4,0-0.6-0.1-0.6-0.6c0-1.7,0-3.5,0-5.2
				c0-1.1,0.1-0.9-1-1c-0.3,0-0.6,0-0.9,0c-0.4,0-0.6-0.1-0.6-0.6c0-0.5,0.3-0.5,0.6-0.5c1.7,0,3.4,0,5.1,0c0.4,0,0.6,0,0.6,0.5
				c0,0.5-0.2,0.6-0.6,0.6c0,0-0.1,0-0.1,0c-0.6,0.1-1.3-0.3-1.7,0.2c-0.3,0.4-0.1,1.1-0.1,1.6C130,5.6,130,6.2,130,6.7z"/>
			<path class="st2" d="M137.3,33.4c0-0.8,0-1.7,0-2.5c0-0.9,0.1-0.8-0.8-0.8c-0.5,0-0.9,0-1.4,0c-0.5,0-0.4-0.3-0.4-0.6
				c0-0.3-0.2-0.7,0.4-0.7c1.8,0,3.6,0,5.4,0c0.6,0,0.4,0.4,0.4,0.7c0,0.3,0,0.6-0.4,0.6c-0.5,0-0.9,0-1.4,0c-0.5,0-0.7,0.1-0.6,0.6
				c0,1.8,0,3.5,0,5.3c0,0.5-0.1,0.7-0.6,0.6c-0.4,0-0.4-0.2-0.4-0.5C137.3,35.3,137.3,34.4,137.3,33.4z"/>
			<path class="st2" d="M158.1,19.4c0-1.1,0-2.2,0-3.3c0-0.6,0.3-0.5,0.7-0.5c0.4,0,0.6,0.1,0.6,0.6c0,1.8,0,3.6,0,5.3
				c0,0.5,0.1,0.7,0.7,0.7c0.9,0,1.8,0,2.7,0c0.5,0,0.6,0.2,0.6,0.6c0,0.5-0.1,0.7-0.6,0.7c-1.3,0-2.7,0-4,0c-0.4,0-0.6-0.1-0.6-0.5
				C158.1,21.7,158.1,20.6,158.1,19.4z"/>
			<path class="st2" d="M196.4,2.3c0.9,0,1.7,0,2.6,0c0.5,0,0.5,0.2,0.5,0.6c0,0.4-0.1,0.5-0.5,0.5c-0.5,0-0.9,0-1.4,0
				c-0.5,0-0.6,0.2-0.6,0.6c0,1.9,0,3.7,0,5.6c0,0.5-0.2,0.6-0.6,0.6c-0.5,0-0.5-0.3-0.5-0.6c0-1.8,0-3.6,0-5.4
				c0-0.6-0.1-0.8-0.7-0.7c-0.4,0-0.9,0-1.3,0c-0.4,0-0.6,0-0.6-0.5c0-0.6,0.3-0.5,0.7-0.5C194.7,2.3,195.6,2.3,196.4,2.3z"/>
			<path class="st2" d="M148.6,6.7c0-0.9,0-1.8,0-2.7c0-0.5-0.2-0.6-0.6-0.6c-0.5,0-0.9,0-1.4,0c-0.4,0-0.5-0.2-0.5-0.5
				c0-0.3,0-0.6,0.5-0.6c1.8,0,3.5,0,5.3,0c0.4,0,0.5,0.2,0.5,0.5c0,0.3-0.1,0.6-0.5,0.5c-0.5,0-0.9,0-1.4,0c-0.8,0-0.8,0-0.8,0.7
				c0,1.8,0,3.6,0,5.4c0,0.4-0.1,0.6-0.6,0.6c-0.4,0-0.5-0.1-0.5-0.5C148.7,8.6,148.6,7.6,148.6,6.7z"/>
			<path class="st2" d="M160.2,6.2c0,1.1,0,2.2,0,3.4c0,0.5-0.2,0.6-0.6,0.6c-0.4,0-0.6,0-0.6-0.6c0-2.2,0-4.5,0-6.7
				c0-0.5,0.2-0.6,0.6-0.6c0.4,0,0.7,0,0.6,0.6C160.2,3.9,160.2,5,160.2,6.2z"/>
		</g>
	</g>
</g>
</svg>
