<?xml version="1.0" encoding="UTF-8" standalone="no"?>
<svg
   xmlns:dc="http://purl.org/dc/elements/1.1/"
   xmlns:cc="http://creativecommons.org/ns#"
   xmlns:rdf="http://www.w3.org/1999/02/22-rdf-syntax-ns#"
   xmlns:svg="http://www.w3.org/2000/svg"
   xmlns="http://www.w3.org/2000/svg"
   viewBox="0 0 400 400"
   height="400"
   width="400"
   xml:space="preserve"
   id="svg2"
   version="1.1"><metadata
     id="metadata8"><rdf:RDF><cc:Work
         rdf:about=""><dc:format>image/svg+xml</dc:format><dc:type
           rdf:resource="http://purl.org/dc/dcmitype/StillImage" /></cc:Work></rdf:RDF></metadata><defs
     id="defs6"><clipPath
       id="clipPath18"
       clipPathUnits="userSpaceOnUse"><path
         id="path16"
         d="M 102.943,205.588 C 86.233,186.43 89.402,170.61 89.402,170.61 v 0 c 0,0 4.609,10.887 15.703,22.351 v 0 c 5.253,5.43 9.181,7.247 11.862,7.254 v 0 c 2.98,0.009 4.417,-2.22 4.417,-4.207 v 0 -38.894 c 0,-3.837 -2.473,-4.676 -4.752,-4.633 v 0 c -1.946,0.036 -3.748,0.712 -3.748,0.712 v 0 c 11.381,-16.544 38.609,-18.867 38.609,-18.867 v 0 l 11.957,12.773 0.281,-0.241 10.955,-9.337 c 20.025,11.9 29.679,33.961 29.679,33.961 v 0 c -8.935,-9.46 -14.631,-11.665 -18.011,-11.648 v 0 c -2.999,0.015 -4.176,1.778 -4.176,1.778 v 0 c -0.161,0.819 -0.441,12.652 -0.54,24.493 v 0 c -0.102,12.267 -0.013,24.542 0.602,24.579 v 0 c 3.458,6.49 14.489,19.576 14.489,19.576 v 0 c -20.602,-4.061 -31.837,-17.561 -31.837,-17.561 v 0 c -3.316,2.613 -10.085,2.179 -10.085,2.179 v 0 c 3.168,-1.744 6.338,-6.824 6.338,-11.032 v 0 -41.364 c 0,0 -6.915,-6.094 -12.245,-6.094 v 0 c -3.151,0 -5.094,1.725 -6.156,3.135 v 0 c -0.735,0.977 -1.049,1.8 -1.049,1.8 v 0 51.087 c -0.653,-0.473 -1.582,-0.868 -2.537,-0.862 v 0 c -1.132,0.005 -2.304,0.572 -3.1,2.242 v 0 c -0.601,1.257 -0.988,3.139 -0.988,5.877 v 0 c 0,9.432 10.661,15.674 10.661,15.674 v 0 c -13.543,-3.629 -26.076,-10.596 -42.788,-29.753" /></clipPath><clipPath
       id="clipPath28"
       clipPathUnits="userSpaceOnUse"><path
         id="path26"
         d="m 66.746,184.691 c 0,-46.307 37.222,-83.845 83.139,-83.845 v 0 c 45.916,0 83.139,37.538 83.139,83.845 v 0 c 0,46.306 -37.223,83.845 -83.139,83.845 v 0 c -45.917,0 -83.139,-37.539 -83.139,-83.845 m 26.938,-56.68 c -15.012,15.14 -23.28,35.27 -23.28,56.68 v 0 c 0,21.409 8.268,41.538 23.28,56.677 v 0 c 15.012,15.14 34.971,23.477 56.201,23.477 v 0 c 21.229,0 41.189,-8.337 56.201,-23.477 v 0 c 15.012,-15.139 23.279,-35.268 23.279,-56.677 v 0 c 0,-21.41 -8.267,-41.54 -23.279,-56.68 v 0 c -15.012,-15.138 -34.972,-23.475 -56.201,-23.475 v 0 c -21.23,0 -41.189,8.337 -56.201,23.475" /></clipPath><clipPath
       id="clipPath46"
       clipPathUnits="userSpaceOnUse"><path
         id="path44"
         d="m 145.974,48.025 c -1.496,0 -2.792,-0.034 -3.889,-0.104 v 0 c -1.097,-0.07 -2.029,-0.207 -2.796,-0.413 v 0 c -0.767,-0.205 -1.39,-0.492 -1.87,-0.86 v 0 c -0.479,-0.368 -0.853,-0.851 -1.121,-1.447 v 0 c -0.268,-0.596 -0.451,-1.322 -0.547,-2.178 v 0 c -0.096,-0.857 -0.144,-1.87 -0.144,-3.04 v 0 -0.476 c 0,-1.163 0.046,-2.168 0.139,-3.017 v 0 c 0.092,-0.847 0.27,-1.57 0.535,-2.167 v 0 c 0.264,-0.596 0.636,-1.081 1.116,-1.452 v 0 c 0.478,-0.372 1.102,-0.663 1.869,-0.872 v 0 c 0.767,-0.209 1.699,-0.351 2.796,-0.424 v 0 c 1.096,-0.073 2.401,-0.11 3.912,-0.11 v 0 h 0.724 c 1.281,0 2.403,0.034 3.365,0.104 v 0 c 0.962,0.07 1.789,0.188 2.48,0.354 v 0 c 0.69,0.167 1.26,0.391 1.708,0.675 v 0 c 0.449,0.283 0.806,0.638 1.07,1.069 v 0 c 0.265,0.43 0.448,0.942 0.552,1.534 v 0 c 0.104,0.592 0.156,1.281 0.156,2.063 v 0 3.626 h -10.815 v -3.149 h 6.247 v -0.454 c 0,-0.287 -0.019,-0.536 -0.057,-0.75 v 0 c -0.038,-0.213 -0.118,-0.399 -0.235,-0.558 v 0 c -0.119,-0.158 -0.288,-0.29 -0.506,-0.395 v 0 c -0.219,-0.104 -0.51,-0.185 -0.874,-0.244 v 0 c -0.364,-0.058 -0.812,-0.1 -1.345,-0.128 v 0 c -0.532,-0.026 -1.166,-0.041 -1.902,-0.041 v 0 h -0.402 c -0.904,0 -1.676,0.016 -2.316,0.047 v 0 c -0.639,0.031 -1.172,0.099 -1.598,0.203 v 0 c -0.425,0.106 -0.762,0.255 -1.011,0.448 v 0 c -0.249,0.194 -0.434,0.455 -0.557,0.784 v 0 c -0.123,0.33 -0.201,0.735 -0.236,1.215 v 0 c -0.035,0.48 -0.052,1.058 -0.052,1.732 v 0 0.291 c 0,0.688 0.017,1.28 0.052,1.772 v 0 c 0.035,0.491 0.113,0.904 0.236,1.237 v 0 c 0.123,0.333 0.308,0.597 0.557,0.791 v 0 c 0.249,0.193 0.586,0.342 1.011,0.447 v 0 c 0.426,0.104 0.959,0.173 1.598,0.203 v 0 c 0.64,0.032 1.412,0.047 2.316,0.047 v 0 h 0.402 c 0.996,0 1.799,-0.031 2.408,-0.093 v 0 c 0.608,-0.062 1.082,-0.168 1.419,-0.32 v 0 c 0.337,-0.151 0.564,-0.353 0.678,-0.604 v 0 c 0.115,-0.252 0.173,-0.563 0.173,-0.935 v 0 -0.198 h 4.624 v 0.627 c 0,0.713 -0.05,1.337 -0.149,1.871 v 0 c -0.099,0.535 -0.278,0.994 -0.535,1.377 v 0 c -0.256,0.385 -0.606,0.7 -1.047,0.948 v 0 c -0.441,0.248 -1,0.444 -1.679,0.587 v 0 c -0.68,0.143 -1.491,0.242 -2.434,0.296 v 0 c -0.943,0.054 -2.044,0.081 -3.302,0.081 v 0 z" /></clipPath><clipPath
       id="clipPath64"
       clipPathUnits="userSpaceOnUse"><path
         id="path62"
         d="m 62.796,85.529 v -15.69 c 0,-0.956 -0.034,-1.786 -0.102,-2.489 v 0 c -0.068,-0.703 -0.206,-1.297 -0.416,-1.782 v 0 c -0.21,-0.485 -0.51,-0.88 -0.902,-1.188 v 0 c -0.392,-0.307 -0.912,-0.543 -1.561,-0.707 v 0 c -0.649,-0.164 -1.447,-0.276 -2.393,-0.338 v 0 c -0.946,-0.061 -2.076,-0.092 -3.387,-0.092 v 0 h -0.709 c -1.311,0 -2.441,0.027 -3.387,0.082 v 0 c -0.946,0.054 -1.743,0.167 -2.392,0.338 v 0 c -0.649,0.17 -1.17,0.406 -1.561,0.707 v 0 c -0.393,0.299 -0.694,0.696 -0.903,1.188 v 0 c -0.21,0.491 -0.349,1.085 -0.416,1.782 v 0 c -0.067,0.696 -0.101,1.529 -0.101,2.499 v 0 15.69 H 36.171 V 67.115 c 0,-1.421 0.102,-2.663 0.304,-3.729 v 0 c 0.203,-1.065 0.551,-1.984 1.044,-2.755 v 0 c 0.493,-0.771 1.157,-1.413 1.987,-1.925 v 0 c 0.832,-0.512 1.88,-0.919 3.143,-1.218 v 0 c 1.265,-0.301 2.769,-0.513 4.513,-0.636 v 0 c 1.743,-0.123 3.771,-0.184 6.083,-0.184 v 0 h 0.872 c 2.338,0 4.387,0.061 6.144,0.184 v 0 c 1.757,0.123 3.268,0.335 4.532,0.636 v 0 c 1.264,0.299 2.308,0.706 3.133,1.218 v 0 c 0.824,0.512 1.48,1.154 1.967,1.925 v 0 c 0.486,0.771 0.824,1.694 1.013,2.766 v 0 c 0.19,1.071 0.284,2.311 0.284,3.718 v 0 18.414 z" /></clipPath><clipPath
       id="clipPath78"
       clipPathUnits="userSpaceOnUse"><path
         id="path76"
         d="M 120.182,85.529 V 56.995 h 8.314 v 7.927 h 8.395 c 1.298,0 2.416,-0.023 3.355,-0.071 v 0 c 0.94,-0.048 1.731,-0.14 2.372,-0.277 v 0 c 0.643,-0.136 1.16,-0.331 1.552,-0.584 v 0 c 0.392,-0.252 0.697,-0.587 0.913,-1.004 v 0 c 0.216,-0.415 0.358,-0.925 0.425,-1.525 v 0 c 0.068,-0.601 0.102,-1.318 0.102,-2.151 v 0 -2.315 h 8.294 v 4.363 c 0,1.257 -0.068,2.287 -0.204,3.094 v 0 c -0.135,0.805 -0.385,1.457 -0.749,1.956 v 0 c -0.366,0.498 -0.869,0.873 -1.511,1.126 v 0 c -0.642,0.253 -1.464,0.461 -2.464,0.626 v 0 0.163 c 0.906,0.205 1.67,0.504 2.292,0.901 v 0 c 0.621,0.396 1.128,0.898 1.52,1.506 v 0 c 0.392,0.608 0.676,1.331 0.852,2.171 v 0 c 0.175,0.84 0.264,1.82 0.264,2.939 v 0 1.004 c 0,1.639 -0.166,3.015 -0.497,4.128 v 0 c -0.332,1.113 -0.93,2.007 -1.795,2.683 v 0 c -0.866,0.676 -2.048,1.157 -3.549,1.444 v 0 c -1.5,0.287 -3.413,0.43 -5.738,0.43 v 0 z m 8.314,-6.308 h 10.463 c 1.433,0 2.579,-0.045 3.437,-0.133 v 0 c 0.858,-0.09 1.514,-0.267 1.967,-0.534 v 0 c 0.452,-0.266 0.747,-0.648 0.882,-1.147 v 0 c 0.135,-0.498 0.203,-1.15 0.203,-1.955 v 0 -0.492 c 0,-0.82 -0.068,-1.479 -0.203,-1.977 v 0 c -0.135,-0.499 -0.426,-0.888 -0.872,-1.167 v 0 c -0.446,-0.28 -1.098,-0.465 -1.957,-0.554 v 0 c -0.859,-0.088 -2.011,-0.133 -3.457,-0.133 v 0 h -10.463 z" /></clipPath></defs><g
     transform="matrix(1.3333333,0,0,-1.3333333,0,400)"
     id="g10"><g
       id="g12"><g
         clip-path="url(#clipPath18)"
         id="g14"><path
           id="path20"
           style="fill:#2e2e2c;fill-opacity:1;fill-rule:nonzero;stroke:none"
           d="M 87.986,236.517 H 205.541 V 133.151 H 87.986 Z" /></g></g><g
       id="g22"><g
         clip-path="url(#clipPath28)"
         id="g24"><path
           id="path30"
           style="fill:#2e2e2c;fill-opacity:1;fill-rule:nonzero;stroke:none"
           d="M 65.57,269.711 H 234.201 V 99.669 H 65.57 Z" /></g></g><g
       transform="translate(90.1314,47.9664)"
       id="g32"><path
         id="path34"
         style="fill:#2e2e2c;fill-opacity:1;fill-rule:nonzero;stroke:none"
         d="m 0,0 v -16.316 h 17.79 v 3.713 H 4.767 v 2.812 h 12.07 v 3.407 H 4.767 v 2.777 H 17.511 V 0 Z" /></g><g
       transform="translate(127.3617,47.9664)"
       id="g36"><path
         id="path38"
         style="fill:#2e2e2c;fill-opacity:1;fill-rule:nonzero;stroke:none"
         d="M 0,0 V -12.217 H -0.094 L -9.454,0 h -7.313 v -16.316 h 4.72 v 12.205 h 0.093 l 9.477,-12.205 H 4.72 V 0 Z" /></g><g
       id="g40"><g
         clip-path="url(#clipPath46)"
         id="g42"><path
           id="path48"
           style="fill:#2e2e2c;fill-opacity:1;fill-rule:nonzero;stroke:none"
           d="m 134.432,49.201 h 22.773 V 30.288 h -22.773 z" /></g></g><g
       transform="translate(184.2894,47.8395)"
       id="g50"><path
         id="path52"
         style="fill:#2e2e2c;fill-opacity:1;fill-rule:nonzero;stroke:none"
         d="M 0,0 V -12.121 H -0.092 L -9.353,0 h -7.236 v -16.189 h 4.67 V -4.08 h 0.092 L -2.45,-16.189 H 4.672 L 4.672,0 Z" /></g><g
       transform="translate(192.7539,47.8395)"
       id="g54"><path
         id="path56"
         style="fill:#2e2e2c;fill-opacity:1;fill-rule:nonzero;stroke:none"
         d="m 0,0 v -16.189 h 17.602 v 3.684 H 4.717 v 2.79 h 11.942 v 3.382 H 4.717 v 2.754 h 12.61 V 0 Z" /></g><g
       id="g58"><g
         clip-path="url(#clipPath64)"
         id="g60"><path
           id="path66"
           style="fill:#2e2e2c;fill-opacity:1;fill-rule:nonzero;stroke:none"
           d="M 34.995,86.705 H 72.366 V 55.492 H 34.995 Z" /></g></g><g
       transform="translate(106.1496,85.5297)"
       id="g68"><path
         id="path70"
         style="fill:#2e2e2c;fill-opacity:1;fill-rule:nonzero;stroke:none"
         d="M 0,0 V -21.365 H -0.162 L -16.486,0 h -12.755 v -28.535 h 8.233 V -7.19 h 0.162 L -4.319,-28.535 H 8.232 L 8.232,0 Z" /></g><g
       id="g72"><g
         clip-path="url(#clipPath78)"
         id="g74"><path
           id="path80"
           style="fill:#2e2e2c;fill-opacity:1;fill-rule:nonzero;stroke:none"
           d="M 119.006,86.705 H 155.08 V 55.819 h -36.074 z" /></g></g><g
       transform="translate(159.3783,85.5297)"
       id="g82"><path
         id="path84"
         style="fill:#2e2e2c;fill-opacity:1;fill-rule:nonzero;stroke:none"
         d="m 0,0 v -28.535 h 31.025 v 6.494 H 8.314 v 4.916 h 21.049 v 5.96 H 8.314 V -6.31 H 30.538 V 0 Z" /></g><g
       transform="translate(207.558,85.5288)"
       id="g86"><path
         id="path88"
         style="fill:#2e2e2c;fill-opacity:1;fill-rule:nonzero;stroke:none"
         d="m 0,0 -15.33,-28.534 h 8.983 l 2.576,5.121 h 17.804 l 2.615,-5.121 h 9.064 L 10.301,0 Z m 4.989,-6.001 h 0.202 l 5.821,-11.451 H -0.79 Z" /></g><g
       transform="translate(236.3328,85.5297)"
       id="g90"><path
         id="path92"
         style="fill:#2e2e2c;fill-opacity:1;fill-rule:nonzero;stroke:none"
         d="m 0,0 v -28.535 h 27.496 v 6.638 H 8.394 L 8.394,0 Z" /></g><path
       id="path94"
       style="fill:#2e2e2c;fill-opacity:1;fill-rule:nonzero;stroke:none"
       d="m 159.337,31.651 h 4.786 v 16.188 h -4.786 z" /></g></svg>