<svg width="59" height="68" viewBox="0 0 59 68" fill="none" xmlns="http://www.w3.org/2000/svg">
<g id="Epic Games">
<g id="g22">
<path id="path24" fill-rule="evenodd" clip-rule="evenodd" d="M52.9619 0.20211H5.28999C1.42601 0.20211 0 1.62812 0 5.4939V52.1405C0 52.578 0.0176414 52.9844 0.056286 53.3609C0.144256 54.2047 0.160819 55.0223 0.945592 55.9533C1.02228 56.0445 1.8235 56.6407 1.8235 56.6407C2.25447 56.8521 2.54874 57.0077 3.0348 57.2034L26.5091 67.0383C27.7277 67.5969 28.2373 67.8146 29.1224 67.7971V67.7972C29.1236 67.7972 29.1247 67.7972 29.1259 67.7972C29.1271 67.7972 29.1282 67.7972 29.1294 67.7972V67.7971C30.0145 67.8146 30.5241 67.5969 31.7428 67.0383L55.217 57.2034C55.7032 57.0077 55.9973 56.8521 56.4284 56.6407C56.4284 56.6407 57.2296 56.0445 57.3062 55.9533C58.091 55.0223 58.1075 54.2047 58.1955 53.3609C58.2341 52.9844 58.2519 52.578 58.2519 52.1405V5.4939C58.2519 1.62812 56.8258 0.20211 52.9619 0.20211Z" fill="#2F2D2E"/>
</g>
<g id="g26">
<path id="path28" d="M49.7687 47.0993L49.7579 47.2069L49.7472 47.3251L49.7256 47.4328L49.6935 47.5403L49.6726 47.6372L49.6402 47.7448L49.5972 47.8417L49.5541 47.9278L49.5118 48.0246L49.458 48.1106L49.4042 48.1968L49.3403 48.2828L49.2864 48.3689L49.2225 48.4441L49.1471 48.5195L49.0832 48.5841L48.9972 48.6594L48.9225 48.724L48.8364 48.7886L48.751 48.8416L48.6655 48.9062L48.5687 48.96L48.4724 49.003L48.3763 49.0568L48.2686 49.0999L48.1617 49.143L48.0548 49.1751L47.9478 49.2075L47.851 49.2397L47.7441 49.2613L47.6478 49.2828L47.5517 49.3043L47.444 49.3259L47.337 49.3366L47.2408 49.3474L47.1332 49.3582L47.0156 49.369L46.9085 49.3796H46.8016H46.6839H46.5655H46.4586L46.3515 49.369H46.2339L46.1269 49.3582L46.0193 49.3474L45.9016 49.3366L45.7947 49.3151L45.6877 49.3043L45.5801 49.2828L45.473 49.2613L45.3661 49.2397L45.2592 49.2182L45.1516 49.1861L45.0554 49.1645L44.9485 49.1322L44.8414 49.0999L44.7447 49.0568L44.6377 49.0245L44.5415 48.9924L44.4344 48.9493L44.3377 48.9062L44.2414 48.8631L44.1452 48.8101L44.0485 48.767L43.9522 48.7131L43.8668 48.6594L43.7699 48.6055L43.6845 48.5518L43.5984 48.498L43.513 48.4334L43.4275 48.3689L43.3415 48.3043L43.2559 48.2397L43.1806 48.1752L43.0952 48.0999L43.1598 48.0139L43.2344 47.9385L43.299 47.8523L43.3737 47.7663L43.4383 47.691L43.5022 47.605L43.5775 47.5188L43.6414 47.4436L43.7167 47.3575L43.7807 47.2822L43.856 47.1961L43.9199 47.1099L43.9845 47.0347L44.0591 46.9486L44.1237 46.8625L44.1984 46.7872L44.2629 46.7012L44.3484 46.7657L44.4446 46.8303L44.5307 46.8949L44.6269 46.9594L44.713 47.0132L44.8092 47.0776L44.8946 47.1315L44.9915 47.1745L45.0769 47.2284L45.1731 47.2715L45.27 47.3144L45.3661 47.3575L45.4625 47.3898L45.5592 47.4328L45.6661 47.4651L45.7732 47.4973L45.8693 47.5296L45.977 47.5512L46.0839 47.5727L46.1908 47.5942L46.3086 47.605L46.4161 47.6265H46.5232L46.6408 47.6372H46.7478H46.8762L46.994 47.6265L47.1016 47.605L47.1978 47.5834L47.294 47.5619L47.3801 47.5296L47.4548 47.4867L47.5409 47.4221L47.6047 47.3467L47.6478 47.2605L47.6802 47.1638L47.6908 47.0562V47.0347L47.6802 46.9055L47.6371 46.7979L47.5832 46.7226L47.5086 46.6581L47.4224 46.5935L47.337 46.5505L47.2408 46.5075L47.1332 46.4644L47.0048 46.4107L46.93 46.3891L46.8447 46.3676L46.7478 46.3352L46.6516 46.3138L46.5446 46.2815L46.437 46.26L46.3194 46.2277L46.2123 46.2062L46.0946 46.1739L45.9877 46.1525L45.88 46.1202L45.7732 46.0986L45.6661 46.0663L45.5693 46.0341L45.4625 46.0125L45.3661 45.9802L45.27 45.948L45.1731 45.9157L45.0554 45.8726L44.9485 45.8295L44.8414 45.7865L44.7339 45.7434L44.6377 45.6897L44.5307 45.6359L44.4446 45.5822L44.3484 45.5284L44.2629 45.4638L44.1769 45.41L44.1022 45.3454L44.027 45.2701L43.9522 45.1947L43.8876 45.1194L43.8238 45.0441L43.7699 44.9689L43.7167 44.8827L43.663 44.786L43.6199 44.7113L43.5876 44.6252L43.556 44.5283L43.5238 44.4423L43.5022 44.3346L43.4807 44.2378L43.4699 44.1302L43.4592 44.0226L43.4484 43.9044V43.7859V43.7644V43.6568L43.4592 43.5492L43.4699 43.4524L43.4807 43.3447L43.5022 43.248L43.5238 43.1511L43.556 43.0542L43.5775 42.9574L43.6199 42.8606L43.663 42.7637L43.7059 42.667L43.7592 42.57L43.8129 42.4733L43.8768 42.3871L43.9415 42.3011L44.0162 42.215L44.0914 42.1398L44.1662 42.0536L44.2522 41.9782L44.3269 41.9245L44.4129 41.8599L44.4985 41.7953L44.5838 41.7416L44.6807 41.6878L44.777 41.6447L44.8731 41.591L44.9699 41.548L45.0769 41.5156L45.1838 41.4726L45.2807 41.4403L45.3661 41.4187L45.4625 41.3973L45.5592 41.3758L45.6661 41.3543L45.7624 41.3327L45.8693 41.322L45.977 41.3112L46.0839 41.3004L46.1908 41.2897H46.2978H46.4161H46.534H46.6516L46.7693 41.3004L46.887 41.3112H46.994L47.1123 41.322L47.2192 41.3435L47.337 41.3543L47.444 41.3758L47.5409 41.3973L47.6478 41.4187L47.7547 41.4403L47.851 41.4618L47.9585 41.4941L48.0548 41.5264L48.151 41.548L48.2586 41.591L48.3548 41.6232L48.4509 41.6662L48.5472 41.7093L48.6547 41.7524L48.751 41.8061L48.8364 41.8492L48.9333 41.903L49.0295 41.9568L49.115 42.0106L49.2117 42.0752L49.2973 42.1289L49.3833 42.1935L49.4688 42.2581L49.5541 42.3226L49.4903 42.4087L49.4365 42.4948L49.3725 42.5808L49.308 42.667L49.2441 42.7637L49.1902 42.8498L49.1257 42.936L49.0617 43.022L49.008 43.1081L48.944 43.1942L48.8795 43.2803L48.8256 43.3663L48.7618 43.4632L48.6971 43.5492L48.6332 43.6353L48.5795 43.7213L48.5155 43.8074L48.4295 43.7429L48.3333 43.689L48.2478 43.6353L48.1617 43.5707L48.0656 43.5277L47.9794 43.4739L47.8833 43.4308L47.7978 43.3878L47.701 43.3447L47.6155 43.3018L47.5194 43.2695L47.4333 43.2264L47.3155 43.1942L47.2086 43.1618L47.1016 43.1297L46.994 43.1081L46.887 43.0866L46.7801 43.065L46.6732 43.0542L46.5655 43.0435L46.4694 43.0327H46.3623H46.2339L46.1162 43.0542L46.0085 43.0758L45.9124 43.0973L45.827 43.1403L45.7516 43.1833L45.6553 43.2695L45.5908 43.3663L45.5485 43.4632L45.5376 43.5707V43.5923L45.5485 43.7321L45.6016 43.8505L45.6447 43.915L45.7193 43.9904L45.8162 44.0442L45.9016 44.0979L46.0085 44.141L46.1269 44.1841L46.2554 44.2271L46.3409 44.2486L46.4263 44.2808L46.5232 44.3023L46.6193 44.3346L46.7262 44.3562L46.8447 44.3885L46.9624 44.4207L47.0801 44.4531L47.1978 44.4745L47.3047 44.5068L47.4224 44.5391L47.5301 44.5606L47.6371 44.5929L47.7441 44.6252L47.8402 44.6574L47.9478 44.6897L48.0441 44.722L48.1402 44.7543L48.2586 44.7967L48.3655 44.8505L48.4724 44.8935L48.5795 44.9473L48.6763 45.0012L48.7726 45.0549L48.8579 45.1087L48.944 45.1733L49.0295 45.227L49.115 45.3024L49.201 45.3776L49.2757 45.4638L49.3509 45.5391L49.4149 45.6252L49.4795 45.722L49.5326 45.808L49.5865 45.905L49.6295 45.991L49.6618 46.0878L49.6935 46.1846L49.7149 46.2815L49.7364 46.3891L49.7579 46.4968L49.7687 46.6043L49.7795 46.7226V46.841V46.8625V46.9809L49.7687 47.0993ZM42.2565 49.2506H42.149H42.0421H41.9351H41.8282H41.7205H41.6135H41.5067H41.3996H41.2813H41.1744H41.0674H40.9605H40.8527H40.7459H40.6389H40.5319H40.4243H40.3173H40.2104H40.1035H39.9964H39.8889H39.782H39.675H39.568H39.4603H39.3534H39.2465H39.1287H39.0212H38.9141H38.8072H38.7003H38.5927H38.4857H38.3788H38.2717H38.1642H38.0572H37.9503H37.8432H37.7356H37.6288H37.5217H37.4148H37.3073H37.2002H37.0825H36.9755H36.8686H36.761H36.654H36.547H36.4402H36.3326H36.2256H36.1186V49.143V49.0353V48.9278V48.8207V48.7131V48.6055V48.498V48.3905V48.2828V48.1752V48.0676V47.96V47.8523V47.7448V47.6372V47.5296V47.4221V47.3144V47.2176V47.1099V47.0024V46.8949V46.7872V46.6796V46.572V46.4644V46.3567V46.2492V46.1417V46.0341V45.9265V45.8188V45.7113V45.6036V45.496V45.3884V45.2808V45.1733V45.0657V44.9581V44.8505V44.7435V44.636V44.5283V44.4207V44.3131V44.2056V44.0979V43.9904V43.8827V43.7751V43.6676V43.5599V43.4524V43.3555V43.248V43.1403V43.0327V42.9252V42.8175V42.71V42.6023V42.4948V42.3871V42.2796V42.1719V42.0643V41.9568V41.8492V41.7416V41.634V41.5264V41.4187H36.2256H36.3326H36.4402H36.547H36.654H36.761H36.8686H36.9755H37.0825H37.1895H37.2971H37.4041H37.5109H37.618H37.7147H37.8218H37.9287H38.0358H38.1433H38.2502H38.3572H38.4642H38.5717H38.6787H38.7856H38.8927H39.0003H39.1072H39.2142H39.3211H39.4288H39.5358H39.6426H39.7496H39.8566H39.9643H40.0712H40.1781H40.2851H40.3927H40.4996H40.6066H40.7135H40.8105H40.9174H41.0243H41.1314H41.2389H41.3459H41.4528H41.5597H41.6674H41.7743H41.8812H41.9883H42.0958H42.2029H42.3098V41.5264V41.6232V41.7308V41.8384V41.946V42.0428V42.1505V42.2581V42.3548V42.4625V42.57V42.667V42.7745V42.8821V42.9897V43.0866V43.1942H42.2029H42.0958H41.9883H41.8812H41.7743H41.6674H41.5705H41.4636H41.3567H41.2496H41.1421H41.0351H40.9281H40.8212H40.7135H40.6066H40.4996H40.3927H40.2851H40.1889H40.0819H39.9749H39.8673H39.7605H39.6534H39.5465H39.4388H39.3319H39.225H39.118H39.0104H38.9033H38.8072H38.7003H38.5927H38.4857H38.3788H38.2717H38.1642V43.3018V43.4093V43.5168V43.6245V43.7321V43.829V43.9365V44.0442V44.1517V44.2594V44.3669V44.4745H38.2717H38.3788H38.4857H38.5927H38.7003H38.8072H38.9141H39.0212H39.118H39.225H39.3319H39.4388H39.5465H39.6534H39.7605H39.8673H39.9749H40.0819H40.1889H40.2959H40.4034H40.5103H40.6174H40.7244H40.832H40.9389H41.0351H41.1421H41.2496H41.3567H41.4636H41.5705H41.6781H41.7851H41.8921V44.5821V44.6789V44.786V44.8935V44.9904V45.0979V45.2055V45.3024V45.41V45.5176V45.6252V45.722V45.8295V45.9372V46.0341V46.1417H41.7851H41.6781H41.5705H41.4636H41.3567H41.2496H41.1421H41.0351H40.9389H40.832H40.7244H40.6174H40.5103H40.4034H40.2959H40.1889H40.0819H39.9749H39.8673H39.7605H39.6534H39.5465H39.4388H39.3319H39.225H39.118H39.0212H38.9141H38.8072H38.7003H38.5927H38.4857H38.3788H38.2717H38.1642V46.2492V46.3676V46.4752V46.5828V46.7012V46.8088V46.9163V47.0347V47.1422V47.2499V47.3682V47.4757H38.2717H38.3788H38.4857H38.5927H38.7003H38.8072H38.9141H39.0212H39.1287H39.2465H39.3534H39.4603H39.568H39.675H39.782H39.8889H39.9964H40.1035H40.2104H40.3173H40.4243H40.5319H40.6389H40.7459H40.8527H40.9605H41.0674H41.1744H41.2813H41.3996H41.5067H41.6135H41.7205H41.8282H41.9351H42.0421H42.149H42.2565H42.3636V47.5834V47.6802V47.7879V47.8954V48.0031V48.0999V48.2075V48.315V48.412V48.5195V48.627V48.724V48.8309V48.9385V49.046V49.143V49.2506H42.2565ZM34.4299 49.2506H34.323H34.2159H34.0977H33.9908H33.8837H33.7768H33.6692H33.5622H33.4445H33.3376H33.2305H33.123H33.016H32.9091H32.7914H32.6837H32.5768H32.4697V49.143V49.0353V48.9278V48.8201V48.7119V48.6043V48.4967V48.389V48.2815V48.174V48.0663V47.9582V47.8505V47.7429V47.6354V47.5277V47.4194V47.3118V47.2043V47.0967V46.9891V46.8815V46.7733V46.6658V46.5581V46.4505V46.3429V46.2353V46.127V46.0194V45.9118V45.8043V45.6968V45.5891V45.4809V45.3733V45.2657V45.1581V45.0505V44.9422V44.8347V44.727V44.6194L32.4161 44.7054L32.3521 44.803L32.2982 44.8891L32.2344 44.9752L32.1806 45.072L32.1159 45.1581L32.0629 45.2442L32.009 45.3416L31.9452 45.4277L31.8913 45.5137L31.8268 45.5999L31.7736 45.6974L31.7091 45.7834L31.6559 45.8695L31.602 45.9663L31.5375 46.053L31.4843 46.1391L31.4197 46.2359L31.3667 46.322L31.3021 46.4081L31.2489 46.5055L31.1951 46.5917L31.1306 46.6778L31.0774 46.7746L31.0129 46.8613L30.9597 46.9473L30.8951 47.0335L30.8413 47.1302L30.7881 47.2169L30.7236 47.303L30.6705 47.3999L30.6059 47.4859L30.5521 47.572L30.4882 47.6696L30.4344 47.7556H30.3919L30.3275 47.6588L30.2736 47.572L30.2096 47.4751L30.1559 47.3891L30.0919 47.2924L30.0381 47.2056L29.9743 47.1087L29.9204 47.0226L29.8558 46.9258L29.8027 46.8398L29.7381 46.7422L29.685 46.6562L29.6205 46.5593L29.5666 46.4733L29.5027 46.3758L29.4489 46.2898L29.385 46.1929L29.3204 46.1069L29.2667 46.0094L29.2027 45.9234L29.1489 45.8265L29.085 45.7404L29.0312 45.6429L28.9672 45.5568L28.9135 45.46L28.8489 45.3739L28.7957 45.2771L28.7312 45.1903L28.678 45.0936L28.6134 45.0074L28.5597 44.9106L28.4958 44.8246L28.4418 44.727L28.378 44.641V44.7485V44.8562V44.9638V45.072V45.1796V45.2872V45.3948V45.5025V45.6106V45.7182V45.8151V45.9226V46.0303V46.1378V46.2461V46.3537V46.4613V46.5688V46.6764V46.7841V46.8922V46.9999V47.1075V47.2151V47.3227V47.4302V47.5385V47.646V47.7537V47.8612V47.9689V48.077V48.174V48.2815V48.389V48.4967V48.6043V48.7119V48.8201V48.9278V49.0353V49.143V49.2506H28.271H28.1635H28.0564H27.9495H27.8426H27.7351H27.628H27.5211H27.414H27.3065H27.1995H27.0925H26.9856H26.878H26.7711H26.664H26.557H26.4495H26.3425V49.143V49.0353V48.9278V48.8207V48.7131V48.6055V48.498V48.3905V48.2828V48.1752V48.0676V47.96V47.8523V47.7448V47.6372V47.5296V47.4221V47.3144V47.2176V47.1099V47.0024V46.8949V46.7872V46.6796V46.572V46.4644V46.3567V46.2492V46.1417V46.0341V45.9265V45.8188V45.7113V45.6036V45.496V45.3884V45.2808V45.1733V45.0657V44.9581V44.8505V44.7435V44.636V44.5283V44.4207V44.3131V44.2056V44.0979V43.9904V43.8827V43.7751V43.6676V43.5599V43.4524V43.3555V43.248V43.1403V43.0327V42.9252V42.8175V42.71V42.6023V42.4948V42.3871V42.2796V42.1719V42.0643V41.9568V41.8492V41.7416V41.634V41.5264V41.4187H26.4495H26.557H26.6534H26.7602H26.8672H26.9748H27.071H27.1779H27.2856H27.3925H27.4888H27.5957H27.7034H27.8103H27.9064H28.0134H28.121H28.2281H28.3242H28.4311H28.5388L28.592 41.5049L28.6457 41.6016L28.7096 41.6871L28.7635 41.7839L28.8172 41.87L28.8704 41.967L28.9242 42.0523L28.9882 42.1493L29.0419 42.2353L29.0958 42.3214L29.1489 42.4175L29.2027 42.5037L29.2667 42.6004L29.3204 42.6866L29.3742 42.7827L29.4274 42.8687L29.4919 42.9548L29.5458 43.0512L29.5989 43.1371L29.6526 43.234L29.7059 43.3201L29.7705 43.4163L29.8243 43.5024L29.8773 43.5992L29.9312 43.6846L29.9844 43.7707L30.0489 43.8675L30.1027 43.9537L30.1559 44.0505L30.2096 44.136L30.2628 44.2328L30.3275 44.3189L30.3812 44.415L30.4344 44.5012L30.4882 44.415L30.5419 44.3189L30.6059 44.2328L30.6596 44.136L30.7128 44.0505L30.7666 43.9537L30.8306 43.8675L30.8843 43.7707L30.9382 43.6846L30.9913 43.5992L31.0558 43.5024L31.109 43.4163L31.1629 43.3201L31.2165 43.234L31.2805 43.1371L31.3343 43.0512L31.3882 42.9548L31.4412 42.8687L31.4952 42.7827L31.5591 42.6866L31.6128 42.6004L31.6666 42.5037L31.7199 42.4175L31.7843 42.3214L31.8376 42.2353L31.8913 42.1493L31.9452 42.0523L32.009 41.967L32.0629 41.87L32.1159 41.7839L32.1698 41.6871L32.2344 41.6016L32.2875 41.5049L32.3413 41.4187H32.4482H32.5553H32.652H32.7591H32.866H32.973H33.0698H33.1769H33.2837H33.3907H33.4876H33.5945H33.7014H33.8085H33.9052H34.0123H34.1192H34.2261H34.323H34.4299H34.5369V41.5264V41.634V41.7416V41.8492V41.9568V42.0643V42.1719V42.2796V42.3871V42.4948V42.6023V42.71V42.8175V42.9252V43.0327V43.1403V43.248V43.3555V43.4524V43.5599V43.6676V43.7751V43.8827V43.9904V44.0979V44.2056V44.3131V44.4207V44.5283V44.636V44.7435V44.8505V44.9581V45.0657V45.1733V45.2808V45.3884V45.496V45.6036V45.7113V45.8188V45.9265V46.0341V46.1417V46.2492V46.3567V46.4644V46.572V46.6796V46.7872V46.8949V47.0024V47.1099V47.2176V47.3144V47.4221V47.5296V47.6372V47.7448V47.8523V47.96V48.0676V48.1752V48.2828V48.3905V48.498V48.6055V48.7131V48.8207V48.9278V49.0353V49.143V49.2506H34.4299ZM22.0014 46.0233L21.9691 45.9259L21.9267 45.8182L21.8836 45.7214L21.8514 45.6239L21.809 45.5271L21.766 45.4194L21.7336 45.322L21.6905 45.2251L21.6483 45.1284L21.6159 45.0309L21.5728 44.9233L21.5412 44.8264L21.4982 44.729L21.4551 44.6321L21.4229 44.5353L21.3804 44.4271L21.3375 44.3302L21.3052 44.2334L21.2621 44.136L21.2197 44.0283L21.1874 43.9309L21.1443 43.834L21.102 43.9309L21.0698 44.0283L21.0267 44.136L20.9836 44.2334L20.952 44.3302L20.909 44.4271L20.8659 44.5353L20.8236 44.6321L20.7911 44.729L20.7482 44.8264L20.7051 44.9233L20.6734 45.0309L20.6304 45.1284L20.5874 45.2251L20.5552 45.322L20.5127 45.4194L20.4696 45.5271L20.4267 45.6239L20.3951 45.7214L20.352 45.8182L20.3089 45.9259L20.2766 46.0233L20.2343 46.1202H20.3412H20.4481H20.5552H20.6627H20.7697H20.8766H20.9836H21.0913H21.1874H21.2944H21.402H21.509H21.6159H21.7229H21.8299H21.9374H22.0443L22.0014 46.0233ZM25.3654 49.2506H25.2578H25.1615H25.0547H24.947H24.8401H24.733H24.6369H24.5292H24.4223H24.3154H24.2083H24.1008H24.0045H23.8976H23.7905H23.683H23.5761H23.4798H23.3729H23.2654L23.2229 49.1537L23.1906 49.0568L23.1476 48.96L23.1045 48.8524L23.0729 48.7562L23.0299 48.6594L22.9868 48.5626L22.9551 48.4657L22.9122 48.3689L22.8691 48.272L22.8369 48.1752L22.7944 48.0676L22.7513 47.9708L22.7191 47.8739L22.676 47.7771H22.569H22.4621H22.3552H22.2482H22.1514H22.0443H21.9374H21.8299H21.7229H21.6159H21.509H21.402H21.2944H21.1874H21.0913H20.9836H20.8766H20.7697H20.6627H20.5552H20.4481H20.3412H20.2343H20.1273H20.0304H19.9236H19.8165H19.7089H19.6019L19.5596 47.8739L19.5273 47.9708L19.4842 48.0676L19.4412 48.1752L19.4095 48.272L19.3666 48.3689L19.3235 48.4657L19.2912 48.5626L19.2488 48.6594L19.2058 48.7562L19.1735 48.8524L19.131 48.96L19.088 49.0568L19.0557 49.1537L19.0127 49.2506H18.9057H18.7988H18.6919H18.5842H18.4773H18.3595H18.2526H18.1456H18.038H17.9311H17.8242H17.7171H17.6094H17.5026H17.3957H17.278H17.1703H17.0634H16.9563H16.8494L16.8918 49.1537L16.9348 49.0568L16.9778 48.96L17.0203 48.8524L17.0526 48.7562L17.0957 48.6594L17.1386 48.5626L17.181 48.4657L17.2241 48.3689L17.2672 48.2612L17.3095 48.1644L17.3526 48.0676L17.3848 47.9708L17.4279 47.8739L17.4702 47.7771L17.5133 47.6696L17.5563 47.5727L17.5988 47.4757L17.6419 47.379L17.6848 47.2822L17.7171 47.1853L17.7595 47.0776L17.8026 46.9809L17.8456 46.8841L17.888 46.7872L17.9311 46.6904L17.9742 46.5935L18.0165 46.4859L18.0488 46.3891L18.0919 46.2923L18.1349 46.1954L18.1774 46.0986L18.2203 46.0017L18.2633 45.8942L18.3058 45.7973L18.3487 45.7005L18.381 45.6036L18.4241 45.5069L18.4665 45.41L18.5096 45.3024L18.5526 45.2055L18.595 45.1087L18.638 45.0118L18.6811 44.9151L18.7133 44.8181L18.7558 44.722L18.7988 44.6144L18.8418 44.5176L18.8842 44.4207L18.9272 44.3238L18.9703 44.2271L19.0127 44.1302L19.0449 44.0226L19.088 43.9258L19.131 43.829L19.1735 43.7321L19.2166 43.6353L19.2595 43.5384L19.302 43.4308L19.345 43.334L19.3773 43.2372L19.4202 43.1403L19.4627 43.0435L19.5057 42.9466L19.5488 42.8391L19.5911 42.7423L19.6342 42.6454L19.6773 42.5486L19.7089 42.4518L19.7519 42.3548L19.795 42.2473L19.8381 42.1505L19.8805 42.0536L19.9236 41.9568L19.9665 41.8599L20.0089 41.7632L20.0413 41.6555L20.0843 41.5587L20.1273 41.4618L20.1697 41.365H20.2766H20.3735H20.4804H20.5874H20.695H20.7911H20.8981H21.0051H21.1128H21.209H21.3158H21.4229H21.5304H21.6267H21.7336H21.8406H21.9482H22.0443H22.1514L22.1944 41.4618L22.2374 41.5587L22.2799 41.6555L22.3229 41.7632L22.3552 41.8599L22.3975 41.9568L22.4406 42.0536L22.4836 42.1505L22.5267 42.2473L22.569 42.3548L22.6121 42.4518L22.6552 42.5486L22.6868 42.6454L22.7299 42.7423L22.7729 42.8391L22.816 42.9466L22.8584 43.0435L22.9014 43.1403L22.9444 43.2372L22.9868 43.334L23.0191 43.4308L23.0621 43.5384L23.1045 43.6353L23.1476 43.7321L23.1906 43.829L23.2337 43.9258L23.276 44.0226L23.319 44.1302L23.3514 44.2271L23.3938 44.3238L23.4367 44.4207L23.4798 44.5176L23.5229 44.6144L23.5653 44.722L23.6084 44.8181L23.6513 44.9151L23.683 45.0118L23.726 45.1087L23.7691 45.2055L23.8115 45.3024L23.8545 45.41L23.8976 45.5069L23.9407 45.6036L23.983 45.7005L24.0153 45.7973L24.0583 45.8942L24.1008 46.0017L24.1437 46.0986L24.1868 46.1954L24.2298 46.2923L24.2723 46.3891L24.3154 46.4859L24.3475 46.5935L24.39 46.6904L24.433 46.7872L24.4761 46.8841L24.5184 46.9809L24.5615 47.0776L24.6046 47.1853L24.6477 47.2822L24.6792 47.379L24.7223 47.4757L24.7654 47.5727L24.8078 47.6696L24.8507 47.7771L24.8938 47.8739L24.9368 47.9708L24.9792 48.0676L25.0116 48.1644L25.0547 48.2612L25.097 48.3689L25.14 48.4657L25.1829 48.5626L25.2254 48.6594L25.2684 48.7562L25.3115 48.8524L25.3439 48.96L25.3861 49.0568L25.4292 49.1537L25.4722 49.2506H25.3654ZM15.9811 48.2504L15.895 48.315L15.8203 48.3689L15.7342 48.4334L15.6488 48.4872L15.5633 48.5518L15.4773 48.6055L15.3918 48.6594L15.295 48.7131L15.1987 48.767L15.1025 48.8207L15.0057 48.8631L14.9095 48.917L14.8026 48.96L14.7064 49.003L14.5988 49.046L14.5026 49.0891L14.4063 49.1214L14.3095 49.1537L14.2133 49.1861L14.1064 49.2182L14.0102 49.2506L13.9026 49.2721L13.8063 49.2936L13.6994 49.3151L13.5919 49.3366L13.4848 49.3474L13.3671 49.3582L13.2601 49.369L13.1424 49.3796L13.0347 49.3904L12.9171 49.4011H12.7994H12.6815H12.5639H12.4563L12.3493 49.3904L12.2316 49.3796L12.1247 49.369L12.0177 49.3582L11.9101 49.3474L11.8032 49.3259L11.6961 49.3043L11.6 49.2828L11.4924 49.2613L11.3962 49.229L11.2893 49.2075L11.1924 49.1751L11.0962 49.1322L10.9999 49.0999L10.8931 49.0568L10.7962 49.0138L10.7 48.9709L10.6039 48.9278L10.5069 48.874L10.4216 48.8207L10.3253 48.767L10.2393 48.7131L10.1538 48.6594L10.0678 48.5947L9.9823 48.5303L9.89674 48.4657L9.82149 48.4012L9.74684 48.3366L9.67147 48.2612L9.59682 48.1968L9.52145 48.1214L9.4468 48.046L9.38223 47.9708L9.31827 47.8847L9.2537 47.8094L9.19993 47.7233L9.13596 47.6372L9.08232 47.5512L9.02903 47.4651L8.97527 47.3682L8.9215 47.2822L8.87914 47.1853L8.83605 47.0884L8.79308 46.9916L8.7506 46.8949L8.71832 46.8088L8.67523 46.7118L8.65375 46.615L8.62206 46.5183L8.60058 46.4107L8.5683 46.3138L8.54681 46.2062L8.53601 46.1094L8.51441 46.0017L8.50385 45.905L8.49293 45.7973L8.48285 45.6897L8.47217 45.5822V45.4638V45.3562V45.3347V45.227L8.48285 45.1087V45.0012L8.49293 44.8935L8.50385 44.7752L8.52533 44.6682L8.53601 44.5606L8.5575 44.4637L8.58978 44.3562L8.61138 44.2486L8.64295 44.1517L8.67523 44.0442L8.70752 43.9473L8.7506 43.8397L8.79308 43.7429L8.83605 43.6461L8.87914 43.5492L8.9215 43.4524L8.97527 43.3555L9.02903 43.2695L9.08232 43.1833L9.13596 43.0973L9.18985 43.0112L9.2537 42.9252L9.31827 42.8391L9.38223 42.7531L9.4468 42.6776L9.52145 42.6023L9.58602 42.5269L9.66079 42.4518L9.73603 42.3763L9.81068 42.3119L9.89674 42.2365L9.9715 42.1719L10.057 42.1074L10.143 42.0536L10.2285 41.989L10.3146 41.9353L10.4 41.8815L10.4962 41.8276L10.5931 41.7739L10.6892 41.7201L10.7854 41.677L10.8822 41.634L10.9892 41.5802L11.0747 41.548L11.1816 41.5156L11.2786 41.4726L11.3747 41.451L11.4708 41.4187L11.5784 41.3973L11.6746 41.365L11.7816 41.3435L11.8886 41.3327L11.9961 41.3112L12.1032 41.3004L12.21 41.2897L12.3171 41.2789L12.4247 41.2681H12.5424H12.6494H12.767H12.8847L13.0032 41.2789L13.1209 41.2897H13.2278L13.3348 41.3004L13.4525 41.322L13.5494 41.3327L13.6563 41.3543L13.7634 41.3758L13.8601 41.3973L13.9562 41.4187L14.0526 41.4403L14.1494 41.4726L14.2456 41.4941L14.331 41.5264L14.4279 41.5587L14.5241 41.6016L14.6203 41.6447L14.7171 41.6878L14.8134 41.7416L14.9095 41.7847L14.9957 41.8384L15.0918 41.8922L15.1772 41.946L15.2741 41.9998L15.3595 42.0643L15.445 42.1182L15.531 42.1827L15.6165 42.2473L15.7025 42.3226L15.788 42.3871L15.7234 42.4733L15.6488 42.5486L15.5842 42.6346L15.5096 42.7207L15.445 42.8068L15.381 42.8821L15.3057 42.9681L15.2418 43.0542L15.1772 43.1297L15.1025 43.2157L15.038 43.3018L14.9633 43.3878L14.8987 43.4632L14.8348 43.5492L14.7596 43.6353L14.6955 43.7213L14.6203 43.7967L14.5563 43.8827L14.4702 43.8182L14.3848 43.7429L14.2987 43.689L14.2133 43.6245L14.1278 43.5707L14.0418 43.5168L13.9562 43.4632L13.8601 43.4093L13.774 43.3663L13.6886 43.3232L13.6025 43.291L13.5063 43.2587L13.4102 43.2264L13.3133 43.2049L13.2064 43.1833L13.0994 43.1618L12.9924 43.1511L12.8746 43.1403L12.7563 43.1297H12.6386H12.5316L12.4247 43.1403L12.3279 43.1511L12.2209 43.1726L12.1247 43.1942L12.0278 43.2264L11.9317 43.2587L11.8354 43.3018L11.7392 43.3447L11.6531 43.3985L11.5678 43.4524L11.4816 43.5063L11.407 43.5707L11.3316 43.6353L11.257 43.6998L11.1924 43.7751L11.1178 43.8505L11.0532 43.9365L10.9999 44.0119L10.9461 44.0979L10.8931 44.1948L10.8392 44.2808L10.7962 44.3777L10.764 44.4745L10.7215 44.5714L10.6892 44.6789L10.6677 44.786L10.6462 44.8827L10.6246 45.0012L10.6139 45.1087L10.6039 45.2162V45.3347V45.3562V45.4638L10.6139 45.5713L10.6246 45.6682L10.6354 45.7759L10.6569 45.8726L10.6785 45.9696L10.7 46.0663L10.7323 46.1631L10.764 46.2492L10.807 46.3567L10.85 46.4537L10.9032 46.5505L10.9569 46.6366L11.0107 46.7226L11.0747 46.8088L11.1392 46.8841L11.2139 46.9594L11.2786 47.0347L11.3531 47.0993L11.4393 47.1638L11.5247 47.2284L11.6101 47.2822L11.6961 47.3359L11.7925 47.379L11.8886 47.4221L11.9853 47.4651L12.0924 47.4973L12.1993 47.5296L12.307 47.5512L12.4139 47.5727L12.5208 47.5834L12.6386 47.5942H12.7563H12.8847L13.0032 47.5834L13.1209 47.5727L13.2278 47.5619L13.3348 47.5403L13.4424 47.5188L13.5494 47.4867L13.6455 47.4651L13.7419 47.4221L13.8279 47.379L13.9241 47.3359L13.9993 47.293L14.0849 47.2391V47.1315V47.024V46.9163V46.8088V46.6904V46.5828V46.4752V46.3676V46.26H13.9778H13.8811H13.774H13.6671H13.5602H13.4633H13.3563H13.2493H13.1424H13.0457H12.9386H12.8317H12.7246H12.6279H12.5208V46.1525V46.0556V45.948V45.8404V45.7328V45.6359V45.5284V45.4207V45.3132V45.2162V45.1087V45.0012V44.8935V44.7967V44.6897H12.6279H12.7354H12.8425H12.9493H13.0564H13.1633H13.2709H13.3779H13.4848H13.5919H13.6994H13.8063H13.9132H14.0202H14.1278H14.2349H14.3418H14.4488H14.5563H14.6633H14.7703H14.8772H14.9847H15.0918H15.1987H15.3057H15.4133H15.5202H15.6273H15.7342H15.8418H15.9487H16.0557V44.7967V44.9042V45.0118V45.1087V45.2162V45.3239V45.4314V45.5391V45.6467V45.7434V45.8511V45.9588V46.0663V46.1739V46.2815V46.3891V46.4859V46.5935V46.7012V46.8088V46.9163V47.024V47.1315V47.2284V47.3359V47.4436V47.5512V47.6588V47.7663V47.8633V47.9708V48.0783V48.186L15.9811 48.2504Z" fill="white"/>
</g>
<g id="g30">
<path id="path32" d="M12.5363 23.6982H17.1789V20.1071H12.5363V12.7759H17.3637V9.18485H8.59399V35.1021H17.4371V31.5109H12.5363V23.6982Z" fill="white"/>
</g>
<g id="g34">
<path id="path36" d="M45.7891 24.4761V30.3261C45.7891 31.3629 45.3099 31.8439 44.3156 31.8439H43.5782C42.5467 31.8439 42.0675 31.3629 42.0675 30.3261V13.9607C42.0675 12.924 42.5467 12.443 43.5782 12.443H44.2415C45.2364 12.443 45.7157 12.924 45.7157 13.9607V19.0336H49.5841V13.7386C49.5841 10.5178 48.0365 8.96261 44.8315 8.96261H42.915C39.7099 8.96261 38.125 10.5545 38.125 13.7759V30.5109C38.125 33.7325 39.7099 35.3242 42.915 35.3242H44.8681C48.0739 35.3242 49.658 33.7325 49.658 30.5109V24.4761H45.7891Z" fill="white"/>
</g>
<path id="path38" d="M32.0986 35.1023H36.0416V9.18498H32.0986V35.1023Z" fill="white"/>
<g id="g40">
<path id="path42" d="M26.3775 20.6996C26.3775 21.7364 25.899 22.218 24.9041 22.218H23.2826V12.6654H24.9041C25.899 12.6654 26.3775 13.1465 26.3775 14.1831V20.6996ZM25.5301 9.18498H19.3401V35.1023H23.2826V25.6977H25.5301C28.7358 25.6977 30.3199 24.106 30.3199 20.8852V13.9983C30.3199 10.7769 28.7358 9.18498 25.5301 9.18498Z" fill="white"/>
</g>
<g id="g44">
<path id="path46" fill-rule="evenodd" clip-rule="evenodd" d="M17.8945 58.5365H40.4637L28.944 62.3354L17.8945 58.5365Z" fill="white"/>
</g>
</g>
</svg>
