
<svg xmlns="http://www.w3.org/2000/svg" role="img" viewBox="-3.55 -3.55 102.98 184.86"><g fill="#CDC09E" clip-path="url(#clip0_1_16)"><path d="M23.9464 16.7499C26.9989 16.0534 30.0992 15.5863 33.2214 15.3525V115.366L26.9381 112.301V61.7458H20.457V108.883L14.1797 105.285V19.4425C14.1797 19.4425 19.3598 17.8473 23.9464 16.7499zM20.7568 23.3466V55.4549H27.154V21.8714C27.154 21.8714 25.0615 22.1712 23.7665 22.4711 22.4715 22.7709 20.7568 23.3286 20.7568 23.3286V23.3466zM37.082 14.7528V49.6558L52.4365 69.2002V115.066L48.3476 117.363 43.3653 114.964V73.9858L37.184 70.7954V117.758L47.85 123.444 58.9297 117.86V67.1072L43.1615 47.3589V20.0422C44.8506 19.8721 46.5484 19.804 48.2457 19.8383 50.44 19.9403 52.8322 20.1382 52.8322 20.1382V41.1819H59.0136V14.6569C59.0136 14.6569 52.3346 13.9492 47.6521 13.9492 44.1165 14.0194 40.5876 14.2877 37.082 14.7528zM62.8027 15.0527V115.665L81.8445 105.89V65.8059L75.6631 69.7939V103L69.068 106.598V21.8354C69.068 21.8354 71.862 22.4351 72.8572 22.633 73.8525 22.8309 75.855 23.3287 75.855 23.3287V37.8896L81.7366 34.3993V19.2447C78.7124 18.1864 75.6143 17.3525 72.4675 16.7499 67.5871 15.8503 62.8027 15.0527 62.8027 15.0527z"/><path d="M48.6475 0C75.3635 0 96.012 9.96712 96.012 9.96712L95.9101 112.775L48.06 139L0 112.301V9.75123C0 9.75123 21.5299 0 48.6475 0ZM4.58656 109.782L48.048 133.813L91.6113 109.98V12.9597C91.6113 12.9597 71.6762 4.4858 48.3477 4.4858C25.0192 4.4858 4.58056 13.0616 4.58056 13.0616L4.58656 109.782Z"/></g><defs><clipPath id="clip0_1_16"><path fill="#fff" d="M0 0H96V139H0z"/></clipPath></defs><path d="M5.48 3.69L5.48 55.44L16.24 55.44L16.24 33.71L38.99 33.71L38.99 24.71L16.24 24.71L16.24 12.80L42.22 12.80L42.22 3.69ZM59.98 12.62L69.96 12.62C74.88 12.62 78.17 14.03 79.82 16.86C81.47 19.68 82.30 23.73 82.30 29.00C82.30 32.82 81.75 36.12 80.65 38.88C78.63 43.92 75.07 46.44 69.96 46.44L59.98 46.44ZM79.80 4.75C77.67 4.04 75.00 3.67 71.79 3.62L49.46 3.62L49.46 55.44L71.79 55.44C79.62 55.44 85.41 52.22 89.16 45.77C91.92 40.99 93.30 35.16 93.30 28.27C93.30 25.55 92.98 22.69 92.32 19.69C91.66 16.69 90.43 13.90 88.63 11.32C86.38 8.13 83.44 5.94 79.80 4.75ZM101.46 3.62L101.46 55.44L137.95 55.44L137.95 46.13L112.29 46.13L112.29 3.62Z" transform="translate(2.291 141.65) scale(.65225)"/></svg>
