<svg xmlns="http://www.w3.org/2000/svg" viewBox="0 0 303 536"><title>field3dSource</title><g id="Layer_2" data-name="Layer 2"><polygon points="41.344 288.458 110.693 350.91 191.936 338.232 109.605 361.995 41.344 288.458"/><polygon points="192.896 402.082 110.325 428.965 39.515 343.032 111.285 418.403 192.896 402.082"/><polygon points="31.595 221.579 110.326 285.428 261.786 253.744 111.525 276.307 31.595 221.579"/><polygon points="28.991 156.171 109.053 207.706 268.717 182.859 109.053 197.583 28.991 156.171"/><polygon points="27.61 90.373 106.753 126.722 267.337 107.397 107.213 117.98 27.61 90.373"/><polygon points="42.335 20.434 53.838 23.195 56.598 384.394 42.335 20.434"/><polygon points="29.451 20.433 107.673 41.139 283.442 26.415 107.213 34.237 29.451 20.433"/><polygon points="178.992 31.936 188.655 32.857 178.533 423.046 178.992 31.936"/><polygon points="25.309 22.274 182.213 16.293 272.398 32.857 182.674 20.893 25.309 22.274"/><polygon points="182.214 156.631 271.018 190.68 182.674 164.454 182.214 156.631"/><polygon points="100.771 35.617 109.053 437.769 111.814 36.538 100.771 35.617"/><polygon points="252.614 13.531 255.375 32.397 250.772 132.244 250.312 27.796 252.614 13.531"/><polygon points="248.011 267.982 251.693 181.018 249.851 168.594 246.631 183.319 248.011 267.982"/><polygon points="180.373 32.397 111.814 16.753 188.195 31.016 180.373 32.397"/><path d="M12.7334,473.27832H53.55566v10.05957H24.61914v13.167H49.98242v9.94336H24.61914v24.00391H12.7334Z"/><path d="M71.811,483.06543H60.58594V472.85059H71.811Zm-11.2251,5.0498H71.811v42.33692H60.58594Z"/><path d="M110.11914,488.97266a17.22537,17.22537,0,0,1,7.31641,6.26367,20.80926,20.80926,0,0,1,3.373,8.75195,54.11336,54.11336,0,0,1,.36475,8.40234h-30.835q.25709,6.37062,4.42724,8.9336a11.238,11.238,0,0,0,6.10352,1.59277,8.59829,8.59829,0,0,0,8.42481-4.85547H120.5957q-.44751,3.769-4.104,7.65235-5.68872,6.17577-15.92774,6.17578a23.07733,23.07733,0,0,1-14.91259-5.209q-6.4607-5.209-6.46045-16.95019,0-11.001,5.832-16.87109,5.83154-5.86964,15.13965-5.87012A24.10623,24.10623,0,0,1,110.11914,488.97266Zm-16.56006,9.5625a11.50589,11.50589,0,0,0-2.94922,6.55371h19.07129a9.23665,9.23665,0,0,0-2.94873-6.68946,9.70271,9.70271,0,0,0-6.56543-2.2832A8.77944,8.77944,0,0,0,93.55908,498.53516Z"/><path d="M138.07422,530.45215H127.00439V473.2002h11.06983Z"/><path d="M171.32129,488.79492a13.43388,13.43388,0,0,1,4.85547,4.68067V473.27832h11.22461v57.17383H176.64355v-5.86524a15.60141,15.60141,0,0,1-5.40039,5.47657,15.1527,15.1527,0,0,1-7.53515,1.709,15.73015,15.73015,0,0,1-12.48633-6.001q-5.06836-6-5.06885-15.40039,0-10.83691,4.99121-17.05078a16.23713,16.23713,0,0,1,13.34131-6.21484A13.6572,13.6572,0,0,1,171.32129,488.79492ZM174.04,518.95508a15.43109,15.43109,0,0,0,2.44726-9.04981q0-7.76806-3.92187-11.10839a8.44833,8.44833,0,0,0-5.59375-2.02051,7.77126,7.77126,0,0,0-7.12695,3.6709,16.99944,16.99944,0,0,0-2.27246,9.10839q0,5.86524,2.31152,9.37989a7.8149,7.8149,0,0,0,7.00976,3.51562A8.17348,8.17348,0,0,0,174.04,518.95508Z"/><path d="M205.26855,513.168a12.69436,12.69436,0,0,0,1.085,5.59277q2.01563,4.07813,7.32421,4.07813a8.09869,8.09869,0,0,0,5.67676-2.2334,8.30781,8.30781,0,0,0,2.42188-6.42774q0-5.55468-4.49121-7.41894Q214.729,505.71,209.23047,505.71v-7.92285q5.38037-.07764,7.50976-1.04883,3.67677-1.63183,3.67676-6.60351a7.39016,7.39016,0,0,0-1.8789-5.24317,6.8664,6.8664,0,0,0-5.28809-2.01953q-3.9126,0-5.75293,2.48535a10.56089,10.56089,0,0,0-1.76172,6.6416h-10.332a27.81172,27.81172,0,0,1,1.43555-7.96191,17.927,17.927,0,0,1,4.26758-6.09863,14.86245,14.86245,0,0,1,5.16015-3.0293,22.31336,22.31336,0,0,1,7.334-1.04883q8.06982,0,13.0166,4.17578a13.91409,13.91409,0,0,1,4.94726,11.20508,12.385,12.385,0,0,1-2.95215,8.38965,10.07763,10.07763,0,0,1-3.88378,2.91309q1.51464,0,4.3496,2.60253,4.2334,3.92433,4.23438,10.72071a18.06375,18.06375,0,0,1-4.94727,12.56445q-4.94823,5.41846-14.64843,5.41895-11.9502,0-16.60742-7.80762a23.18036,23.18036,0,0,1-2.71583-10.875Z"/><path d="M276.1416,474.44336a18.922,18.922,0,0,1,9.75781,7.26269,25.48775,25.48775,0,0,1,4.08106,9.24415,44.36206,44.36206,0,0,1,1.08887,9.47753q0,11.41994-4.58692,19.34278-6.21972,10.6831-19.20312,10.68164H242.5957V473.2002h24.6836A30.11278,30.11278,0,0,1,276.1416,474.44336ZM254.209,483.14355v37.36524h11.04883q8.48,0,11.8252-8.35059a29.41631,29.41631,0,0,0,1.8291-10.915q0-8.73925-2.74316-13.41894-2.74219-4.68018-10.91114-4.68067Z"/></g></svg>