<?xml version="1.0" standalone="no"?>
<!DOCTYPE svg PUBLIC "-//W3C//DTD SVG 20010904//EN"
 "http://www.w3.org/TR/2001/REC-SVG-20010904/DTD/svg10.dtd">
<svg version="1.0" xmlns="http://www.w3.org/2000/svg"
 width="321.000000pt" height="322.000000pt" viewBox="0 0 321.000000 322.000000"
 preserveAspectRatio="xMidYMid meet">

<g transform="translate(0.000000,322.000000) scale(0.100000,-0.100000)"
fill="#000000" stroke="none">
<path d="M2411 3038 c-2 -49 -10 -58 -55 -58 -22 0 -133 16 -246 36 -203 35
-207 36 -400 29 -107 -3 -224 -8 -260 -10 -36 -2 -155 -7 -265 -11 -110 -3
-202 -8 -204 -10 -2 -2 133 -4 300 -4 295 -1 308 -2 439 -29 125 -27 131 -29
80 -31 -30 -1 -68 -3 -85 -6 -16 -2 -120 -5 -230 -6 -178 -2 -217 0 -353 24
-96 16 -158 32 -165 41 -14 17 -65 28 -73 16 -3 -5 -20 -10 -37 -10 -27 -2
-28 -2 -7 -6 14 -3 29 -9 34 -14 11 -10 11 -13 21 -298 l7 -213 -23 7 c-51 16
-53 16 -18 -4 46 -25 46 -28 55 -291 3 -113 8 -208 11 -212 7 -13 -5 -9 -57
17 -62 32 -65 25 -5 -11 25 -14 49 -34 54 -43 11 -19 26 -461 17 -461 -4 0
-35 18 -69 41 -50 33 -55 35 -27 10 19 -17 50 -41 67 -53 18 -13 35 -34 37
-48 3 -14 8 -115 11 -225 8 -222 13 -206 -55 -151 -14 12 -5 -1 19 -27 28 -29
46 -57 47 -74 1 -16 5 -109 8 -208 l7 -180 -52 50 -53 50 52 -61 c35 -42 52
-71 53 -90 0 -23 2 -25 8 -10 6 15 42 -24 196 -208 103 -124 193 -226 198
-226 14 0 551 171 557 178 3 2 -12 2 -33 -2 l-38 -7 3 110 c2 60 0 107 -4 104
-5 -2 -8 -51 -8 -108 0 -80 -3 -104 -14 -108 -20 -8 -440 -87 -460 -87 -10 0
-16 9 -16 23 0 13 -3 17 -8 10 -5 -8 -71 56 -190 180 l-182 191 -1 101 c-1 55
-2 137 -3 183 0 45 1 89 4 96 3 8 76 -62 188 -180 l182 -193 0 -182 c0 -100 2
-180 4 -178 2 2 6 80 8 172 2 138 6 170 18 177 13 7 438 129 464 133 6 1 10
-44 10 -105 0 -59 4 -105 8 -102 5 3 8 13 7 22 -1 10 -1 57 0 105 1 81 3 88
24 97 22 9 22 9 0 9 -21 1 -21 1 -17 224 3 122 7 236 10 253 l4 30 223 47
c122 26 227 47 234 47 6 0 14 -8 16 -17 4 -14 5 -13 6 4 0 12 9 24 19 26 15 4
15 5 -2 6 -18 1 -18 9 -11 184 5 100 9 193 10 207 1 14 3 45 4 69 1 40 3 43
24 37 12 -3 33 -8 47 -11 20 -4 19 -3 -5 7 -27 10 -28 12 -10 20 13 5 9 6 -14
2 -40 -7 -50 4 -52 61 l-1 40 -10 -40 c-6 -22 -12 -41 -13 -43 -1 -1 -100 34
-220 78 -121 44 -220 80 -222 80 -2 0 -3 68 -3 150 0 89 4 150 10 150 17 0
414 50 437 55 20 5 22 1 26 -52 l3 -58 2 57 c2 56 2 57 35 61 l32 4 -32 1
c-30 2 -31 4 -28 40 1 21 6 135 10 253 4 118 8 225 9 239 0 14 8 28 16 32 12
5 11 7 -5 9 -11 1 -2 5 20 9 l40 7 -37 2 c-30 1 -39 5 -42 24 -3 12 -7 31 -9
42 -4 15 -5 13 -6 -7z m-336 -42 c102 -14 161 -25 135 -26 -25 -1 -56 -3 -70
-5 -87 -11 -219 -5 -342 15 -76 13 -138 26 -138 29 0 17 247 9 415 -13z m-907
-72 l152 -37 1 -151 c0 -83 2 -208 6 -278 l5 -127 -173 60 c-96 33 -175 62
-177 64 -2 2 -6 119 -9 261 l-6 257 24 -6 c13 -4 93 -23 177 -43z m1232 -248
c0 -218 -3 -285 -12 -288 -7 -3 -42 -6 -78 -7 -36 -1 -117 -6 -180 -11 -63 -6
-134 -10 -156 -10 -41 0 -42 1 -38 33 1 17 5 144 8 281 3 137 7 250 8 251 5 4
330 32 391 34 l57 1 0 -284z m-520 -41 l0 -285 -62 -1 c-35 0 -70 -2 -78 -3
-8 -2 -73 -6 -145 -10 -71 -4 -147 -9 -168 -12 l-39 -6 4 275 c1 152 5 278 8
280 3 3 43 9 90 12 47 4 95 8 107 10 12 2 68 7 125 10 57 4 105 9 107 11 2 2
15 4 28 4 l23 0 0 -285z m-553 -369 c2 -1 6 -116 9 -255 l7 -253 -182 92 -181
93 0 242 0 243 173 -80 c94 -44 173 -81 174 -82z m553 -216 c0 -201 -3 -260
-12 -260 -7 0 -105 -9 -218 -20 -113 -11 -217 -20 -232 -20 l-28 0 0 250 c0
138 1 250 3 250 27 5 449 58 465 59 l22 1 0 -260z m276 -142 c118 -34 208 -65
202 -69 -7 -3 -49 -9 -93 -13 -125 -11 -204 -18 -277 -25 l-68 -7 0 88 c0 56
4 88 11 88 6 0 107 -28 225 -62z m-990 -105 l172 -108 7 -180 c4 -99 5 -209 3
-244 l-3 -63 -175 117 c-96 65 -176 119 -177 120 -7 5 -14 465 -7 465 4 0 85
-48 180 -107z m1204 -65 c1 -46 2 -157 3 -248 l2 -165 -210 -32 c-237 -36
-266 -39 -260 -20 2 6 6 117 9 246 3 129 7 235 8 236 6 4 394 63 421 64 l27 1
0 -82z m-490 -237 l0 -249 -62 -11 c-35 -6 -96 -15 -136 -21 -40 -5 -114 -17
-165 -25 -51 -8 -100 -15 -110 -15 -16 0 -17 16 -15 247 l3 248 235 36 c129
20 238 37 243 38 4 1 7 -111 7 -248z m-617 -296 c48 -37 88 -71 88 -74 4 -23
12 -393 9 -469 0 -7 -83 63 -185 155 l-185 167 0 219 0 218 93 -74 c50 -40
131 -104 180 -142z m611 -255 c-1 -132 -3 -242 -5 -244 -8 -7 -473 -75 -478
-70 -8 8 -10 359 -2 419 l6 50 235 51 c129 27 237 47 240 43 3 -4 5 -116 4
-249z"/>
</g>
</svg>
