<svg id="Layer_1" data-name="Layer 1" xmlns="http://www.w3.org/2000/svg" viewBox="0 0 500 588.06274"><defs><style>.cls-1{fill:#fefefe;}.cls-2{fill:#f4e166;}.cls-3{fill:#fce972;}.cls-4{fill:#bca50a;}.cls-5{fill:#b79f02;}.cls-6{fill:#e0cb44;}.cls-7{fill:#c3ad16;}.cls-8{fill:#c8b11d;}.cls-9{fill:#dac63b;}.cls-10{fill:#dbc63d;}.cls-11{fill:#e5d149;}.cls-12{fill:#700c0c;}.cls-13{fill:#fc4545;}.cls-14{fill:#5e0303;}.cls-15{fill:#f1de5d;}.cls-16{fill:#be2d2d;}.cls-17{fill:#ead54b;}.cls-18{fill:#9e2121;}.cls-19{fill:#d03535;}.cls-20{fill:#851615;}.cls-21{fill:#b22727;}.cls-22{fill:#851616;}.cls-23{fill:#f2da30;}.cls-24{fill:#dc3c3c;}.cls-25{fill:#f1d92b;}.cls-26{fill:#f1da2f;}.cls-27{fill:#f2dc3c;}.cls-28{fill:#e9c561;}.cls-29{fill:#f2da2d;}.cls-30{fill:#f0d40e;}.cls-31{fill:#f0d61d;}.cls-32{fill:#b99714;}.cls-33{fill:#e8d452;}.cls-34{fill:#ecd95a;}.cls-35{fill:#ac8523;}.cls-36{fill:#a37a1e;}.cls-37{fill:#9d721d;}.cls-38{fill:#d3be30;}.cls-39{fill:#d0bb2b;}.cls-40{fill:#d2bd2f;}.cls-41{fill:#cfb929;}.cls-42{fill:#edd95a;}.cls-43{fill:#e0cc46;}.cls-44{fill:#eec72a;}.cls-45{fill:#c9b21e;}.cls-46{fill:#d1bc2d;}.cls-47{fill:#dec942;}.cls-48{fill:#d9c53a;}.cls-49{fill:#dfcb45;}.cls-50{fill:#790000;}.cls-51{fill:#8c0302;}.cls-52{fill:#ead055;}.cls-53{fill:#e9cd5e;}.cls-54{fill:#deca42;}.cls-55{fill:#e7d351;}.cls-56{fill:#d2bd2e;}.cls-57{fill:#ddb722;}.cls-58{fill:#cba71b;}.cls-59{fill:#a67c20;}.cls-60{fill:#c7b11c;}.cls-61{fill:#c4ad16;}.cls-62{fill:#9f741e;}.cls-63{fill:#deb823;}.cls-64{fill:#d3bd2f;}.cls-65{fill:#caa61b;}.cls-66{fill:#c2ab13;}.cls-67{fill:#a70100;}.cls-68{fill:#f0dd60;}.cls-69{fill:#c8a51a;}.cls-70{fill:#c80000;}.cls-71{fill:#7b0000;}.cls-72{fill:#ac0000;}.cls-73{fill:#960000;}.cls-74{fill:#8f0000;}.cls-75{fill:#a30000;}.cls-76{fill:#8e0000;}.cls-77{fill:#b80202;}.cls-78{fill:#ceb827;}.cls-79{fill:#e6d34d;}.cls-80{fill:#a2781f;}.cls-81{fill:#aa831e;}.cls-82{fill:#ebd858;}.cls-83{fill:#e8d453;}</style></defs><title>filemetachecker</title><path class="cls-1" d="M493.54042,253.58505c0,76.806-.12181,153.61249.19412,230.41715.03053,7.43529-1.68214,9.12137-9.11385,9.10922q-230.41734-.37653-460.8353,0c-7.43168.01211-9.12084-1.677-9.1087-9.10872q.3765-230.41734,0-460.83531c-.01214-7.43168,1.677-9.12084,9.1087-9.1087q230.41736.37651,460.8353,0c7.43171-.01214,9.14443,1.67394,9.11385,9.10919C493.41861,99.97258,493.54042,176.77906,493.54042,253.58505Z"/><path class="cls-2" d="M116.23111,239.67781c-10.41778-7.43658,3.1126-15.44659-.55179-23.04488-.21792-3.06076-2.4602-5.977-.6616-9.19939,10.46036-6.26777,11.66855-9.4336,7.33681-27.6768-1.33884-5.63851-.67779-10.69564.36239-15.91411.99394-4.98643,5.74234-9.25289,9.40871-7.09956,12.573,7.38437,14.7024-2.85467,19.24-9.7905,13.20772-20.18821,25.016-41.23327,37.87151-61.63554,2.88888-4.58478,6.05127-9.03087,6.22592-14.75251a40.60368,40.60368,0,0,1,.99411-6.30526c1.95549-5.46519,3.78133-11.05958,10.64013-12.25565,9.4998,6.69679,3.5235-5.54242,7.23538-5.939a6.2469,6.2469,0,0,1,5.78829-.093c2.82505,1.91033,3.59272,6.84135,8.47372,5.74554,3.69448-.43929,7.38972.34876,11.09185-.19361a11.37172,11.37172,0,0,1,3.95123.42692,8.80687,8.80687,0,0,1,5.35717,6.0114c1.21423,6.89386-2.60558,12.10308-5.90531,17.45678a353.53586,353.53586,0,0,0-19.00314,34.33155c-13.037,5.96719-28.32684,8.11312-36.87264,21.71178a45.79965,45.79965,0,0,0-8.30048,16.288c-2.88871,8.7645-4.73465,17.79294-6.906,26.73808-1.83607,5.40862-2.39977,11.31111-6.08793,16.01353-8.86164,11.12549-20.632,19.99483-19.911,37.20368.294,7.01662-10.87884,8.65385-16.58315,13.0686C124.83136,242.85031,120.92969,236.53187,116.23111,239.67781Z"/><path class="cls-3" d="M207.89437,52.84206c-5.13074,2.45025-6.44653,7.64617-8.73751,12.14024-3.15689,1.78862-9.04446-.58775-9.101,5.97309-3.49182,1.38132-8.73811.11142-9.10718,6.13631-10.70633,4.60667-22.32091,8.26273-23.06634,22.8792-2.54219,2.86726-7.2391,3.56755-8.11784,8.11694-9.74437,7.56313-17.09383,16.394-15.07955,30.37575,1.71612-14.02491,13.02977-21.57268,20.19741-31.89566,4.33388-.68264.81667-5.01034,3.06012-6.68644,6.302-9.44564,15.90847-15.55786,23.643-23.55726,2.75935-3.10478,7.58611-3.1891,9.96747-6.84734a6.08037,6.08037,0,0,1,7.66223,1.3639c-3.1797,15.89656-14.63279,27.363-22.205,40.87823-9.58612,17.10969-20.45318,33.50383-30.85043,50.155-1.88915,3.02544-4.26383,8.94453-8.12588,4.18834-3.49972-4.31-6.12088-11.7414-10.58882-4.46907-2.29049,3.72819-8.78941,13.10793.82779,19.7064,5.52824,3.793,4.66519,5.105-4.2209,7.4625-2.45446,4.7189,16.73724,2.176,3.64188,11.85161-3.26467,2.41212,8.74815,1.87591,9.68248,7.89726-6.25916,8.52113-15.83223-12.02849-21.458,2.19771-7.08865,1.86182-10.06555-.90179-8.32479-7.95258.922-3.73429,3.31329-6.95642,5.25313-10.29963l-.11271.16251c2.61446-3.50264-.57968-5.48723-2.45575-6.97985-7.83093-6.23037-8.55026-12.05185-.17917-18.40618,5.98412-4.54244,3.331-9.17328-.43122-13.5967-5.00757-5.6797-5.75719-10.94513,2.15474-14.45626,3.74416-1.66158,6.87528-3.26308,6.95569-7.88285-3.65186-8.79808-5.093-16.61327,6.97636-20.25275,5.2495-1.58294,5.28893-6.16276,4.23733-10.81811-.98573-4.36376-1.588-8.74218,3.52473-11.25735,5.40379.40329,6.70115-6.39036,11.709-6.68094-1.08475-16.6929,11.88716-15.80922,22.44207-17.94777-1.19291-4.11683-3.10985-8.30881,1.23013-11.85133,3.5704-2.8441,7.31242-4.63695,12.21-4.12312,4.54795.47715,9.6842,1.22413,12.06482-4.57453l-.122.14876c2.88078-7.71416,6.1112-13.00807,16.13036-7.81769,10.57185,5.47671,12.12107-6.75676,17.826-10.92938,7.77855,1.75326,8.17664,7.671,7.93232,13.96469a12.5705,12.5705,0,0,1-3.82112,7.48654c-3.73568,2.97228-7.593.90513-11.42234.23276l-5.83667.22866C212.76148,49.94381,211.26169,52.36389,207.89437,52.84206Z"/><path class="cls-4" d="M398.04152,139.184c15.98042,7.50564,7.83034,15.61487.59285,23.70127-3.69451,7.99006-4.322,16.48271-5.032,25.152-.72618,8.86629-.76646,18.73863-10.94084,23.50183-6.36993,1.5201-8.54944,5.52507-6.96171,11.77359a5.82312,5.82312,0,0,1-1.51243,3.64227c-8.96186,7.79634-13.07161,19.15986-20.59686,28.0498-3.466,4.0945-6.70659,8.26953-11.16527,11.31046-.89837.88079-1.83439,1.7328-2.70915,2.60946-3.04926,4.29169,3.00651,8.53281.10385,12.793a6.10976,6.10976,0,0,1-3.46573,1.72481c-3.66864.15418-7.053-3.4868-10.92179-.78471a17.50421,17.50421,0,0,1-3.65508,1.41811c-10.88177-.324-18.1243,12.92579-30.22181,8.11856-9.41709-12.9475,3.08324-38.08175,20.19438-40.70611,5.27961-.80975,10.837.743,15.81167-1.947,5.80419-8.786-2.98375-18.11535.99711-26.93574,12.58992-13.40866,20.95-29.66666,30.43791-45.166,4.10467-6.70535,7.23087-15.65211,14.52718-18.05692,9.98025-3.28936,1.43891-11.86851,6.54048-15.66335-5.75074-3.5104-4.83808-7.24576.46078-9.67682,4.28323-1.96508,9.40671-4.09382,13.41643.96836A27.51361,27.51361,0,0,0,398.04152,139.184Z"/><path class="cls-5" d="M380.87048,210.54509c12.402-10.37553,8.30262-25.69072,10.66005-38.78155,1.03127-5.72672,3.5193-6.90842,7.10366-8.8788,6.338,7.54825,15.04215,11.60911,6.42883,26.2829-4.53651,7.72844-4.68263,22.55144-7.117,34.1006-1.86434,8.84444-7.58856,15.14031-8.36839,20.18161-2.38782,15.4362-17.01661,21.01514-20.5157,32.21588-3.07473,9.84232-5.83866,12.85833-14.77265,12.43824-3.85942,2.00385-5.33727,5.55718-6.14445,9.5198-1.581,7.76166-7.39762,9.69272-14.14007,10.38726-3.15977.68975-6.2252,1.61543-8.80231,3.72416-5.12335,5.96475-10.83049,10.053-19.31823,7.04953-3.557-1.25869-6.835-.40691-8.78862,3.29962-2.29325,3.54327-4.691,6.97432-8.73367,8.76361-3.8855,1.09088-6.9985-.30293-9.70919-3.00786a20.14981,20.14981,0,0,1-3.87212-7.39725c-.96072-4.22835.6516-7.96539,2.24448-11.70926,1.71252-3.53318,2.07994-7.54507,3.84089-11.06319a3.82005,3.82005,0,0,1,3.21893-1.7036c3.14242,1.3085,6.04253,8.28069,9.61723.39037a6.6555,6.6555,0,0,1,3.759-.80126c12.59556,2.55152,17.92476-8.95933,26.703-13.773l-.15175.12578c3.97525-3.24788,8.01842,3.366,11.9923-.08259q1.33959.04545,2.67868.1035c5.68047-4.887-3.28017-10.07534.30892-15.00536l-.08313.106c12.25965-7.91391,28.72453-12.04191,28.15273-31.47086-.15467-5.25675,6.79531-5.40852,7.50643-10.11812q.06707-1.25661.14476-2.51265C379.81541,220.31723,370.78706,210.67969,380.87048,210.54509Z"/><path class="cls-6" d="M297.76088,34.11327c1.70447.70317,4.15353,2.51469,5.00247,1.94438,14.21973-9.553,20.05086-1.43254,23.974,11.03877-1.15827,5.54193-5.52822,7.47359-10.16451,9.10611-8.96883,1.94247-4.30366,8.72651-4.80281,13.68118-3.94989,15.83-14.86733,28.40938-20.21038,43.58752-4.27642,3.32883-10.04524,1.81006-14.48106,4.53741-8.57494,19.13526-9.8293,39.96661-14.18634,60.04682-1.25923,5.80333-2.29874,11.58753-4.93035,16.95995-6.78675,6.13951-5.20932,17.88223-14.79094,22.16341-10.03-8.60148,1.586-17.22034-.06331-25.84043,2.46658-13.21737,6.19137-26.25434,5.53212-39.901.4641-9.353-.92479-18.63885-1.08806-27.96451,5.90346-13.97193,15.20644-25.99545,22.803-39.00589a237.56189,237.56189,0,0,0,13.70368-27.36077c8.38091-1.57471,4.092-10.28567,8.01-14.38752C293.50259,39.54285,294.36031,35.97894,297.76088,34.11327Z"/><path class="cls-7" d="M398.04152,139.184c-6.106-2.78644-12.17815-6.08773-19.43508-.64482,9.72984,2.60244-3.76441,16.75623,11.15641,17.77658-15.3763.55839-20.69812,11.331-26.79771,21.06518-7.80092,12.44931-15.57509,24.91865-23.115,37.52635-2.39075,3.99762-4.72235,7.50748-9.9487,7.46407-11.02763-5.4371-6.84036-15.95266-8.243-24.60172,11.72475-18.16383,24.09432-35.94912,34.80677-54.779,3.81713-6.7096,8.0728-12.73253,8.22006-21.56249.17645-10.58024,12.71154-14.57179,25.17814-9.32619,10.14537,1.26725,14.91978,5.66138,9.13057,15.97408A13.15891,13.15891,0,0,0,398.04152,139.184Z"/><path class="cls-8" d="M389.86342,112.10189c-9.94144,1.12827-23.664-5.49806-20.54,16.19661,1.21872,8.46346-10.47645,19.08583-16.92143,28.28206-9.2122,13.14465-14.35517,29.25061-28.172,39.06758-11.83658-12.49635-4.19737-23.84044,2.04712-35.26954,6.09137-10.53953,14.22673-19.765,19.86555-30.633,2.2253-4.28892,5.62712-8.1056,4.43158-13.4841a19.24974,19.24974,0,0,1-1.0883-6.24976c3.89156-10.43592,6.20273-22.22476,20.35756-23.9248,3.51751,1.65026,7.69451.15734,11.10362,2.32284,4.65069.28158,8.98811.51166,6.74517,7.43178C385.88084,101.43045,384.73686,107.2786,389.86342,112.10189Z"/><path class="cls-9" d="M380.94713,88.40976l-12.316.2055c-5.83363-14.07419-14.94636-22.1281-31.22493-17.00551-1.61627-1.03479-2.97331-2.502-4.89624-3.06583,1.06521,1.53341,3.52438,1.2624,4.24689,3.29876.918,6.3289-1.99826,11.33221-5.414,16.18427-8.40808,11.94363-16.66214,23.97117-22.01461,37.71153-1.05586,2.71055-2.42384,5.44678-6.19624,4.92876-3.355-2.96742-3.06725-7.36372-4.38825-11.11053-1.11749-3.84447-5.80974-4.24185-7.41823-7.60611-.85287-11.24153,5.78663-19.39878,11.16586-28.24178,3.01474-4.956,4.59052-10.78725,6.81463-16.22414.8019-5.27139.61993-10.93019,5.71438-14.5112,5.08177.38541,7.73491-4.07075,11.717-5.87729,10.0664-.01357,22.9916-5.175,23.06287,12.80855,17.3449,1.15815,19.31261,19.1493,30.0907,27.497A13.67033,13.67033,0,0,1,380.94713,88.40976Z"/><path class="cls-10" d="M166.76567,302.51271l.03029-2.98089c2.687-7.19694-1.56309-14.19287,1.87808-22.49178,8.39551-20.24715,23.02169-27.60911,43.11737-28.301,3.521-1.72647,7.09046-2.75021,10.81831-.59,3.97033,7.80654-.84744,13.95009-4.27477,20.04221-4.02949,7.16245-8.222,14.16676-10.12247,22.25077a15.65926,15.65926,0,0,1-1.943,3.72789c-7.02206,3.81945-7.95487,11.94324-12.36657,17.62246-7.133-.60973-14.23926-1.824-21.46112-1.11152C168.04087,309.69687,167.80379,305.82766,166.76567,302.51271Z"/><path class="cls-11" d="M214.0806,252.01183c-1.16954.86716-2.55932,2.67771-3.47647,2.4636-23.53961-5.49539-30.69952,11.80385-40.26537,27.3552-3.81551,6.20293,3.17037,13.10436-3.54307,17.70237.78149-16.14222-17.10968-7.38627-20.17368-14.38341-3.69067-8.42822-.85965-20.24187-15.80282-18.66273a4.40092,4.40092,0,0,1-.51129-5.77887c8.088-1.80559,16.55607-.34907,24.26917-2.97559-1.44418-.76671.40438,1.34292.61183-.62828,1.68523-16.01267,1.68525-16.01267,7.48449-18.91222a12.98739,12.98739,0,0,1,4.37538.59162,27.17365,27.17365,0,0,1,5.81055,3.488c6.90919,5.48292,15.07937,5.73087,23.36463,5.90276C202.37232,248.30188,208.91545,247.10811,214.0806,252.01183Z"/><path class="cls-12" d="M172.38789,448.17523c-14.938,5.96973-29.81809,12.092-44.85417,17.80352-3.83006,1.4549-8.1017,4.37309-12.26382.08465-3.80566-3.92111-2.38179-8.09024-.86706-12.308Q134.11919,398.854,153.849,343.95767a6.01048,6.01048,0,0,1,6.31862-.64411,5.66791,5.66791,0,0,1,1.883,3.8982c-.6016,11.83565-6.49265,22.14475-9.62509,33.25569a142.82455,142.82455,0,0,1-4.42451,14.29007,111.02074,111.02074,0,0,0-5.96054,15.65088c-4.7581,13.91765-9.57533,27.81761-16.00919,43.57315,10.30515-2.26111,17.86214-6.59256,25.98683-9.017,6.79938-2.02888,13.36416-7.03638,21.06009-2.80084C174.14238,444.32113,174.14863,446.35123,172.38789,448.17523Z"/><path class="cls-13" d="M353.33493,291.06855c16.693,39.75486,34.62973,78.94219,53.09557,117.90382,2.68247,5.65973,9.56964,12.19381,3.96171,18.85361-6.02089,7.15016-13.59618.87761-20.42129-.44505-2.3278-.45112-4.49-1.75659-6.72789-2.67167,1.83532-3.47807,5.09576-4.78548,8.6245-5.69558,1.91526-.353,3.85091-.24865,7.45836-.0905-3.6437-7.1287-7.24729-13.51911-9.92364-20.28311-3.88931-7.935-6.9671-16.2611-11.60356-23.83889-4.80868-8.72158-7.76725-18.24-11.87269-27.26931-5.66461-15.94882-15.269-30.252-19.53517-46.789C347.97149,296.98524,342.73649,288.33626,353.33493,291.06855Z"/><path class="cls-14" d="M306.71769,452.2647c-4.306,3.6226-3.85406,12.49568-11.16617,12.18034-7.97724-.34406-8.79324-8.4211-11.25614-14.04363-6.86907-15.68146-13.36816-31.525-20.01332-47.3045-3.929-1.08167-5.25429-4.41089-6.67059-7.67065-5.24656-10.5552-9.18781-21.64253-13.265-32.67769-2.51816-5.81589-4.50963-11.83921-7.12324-17.62339-2.18884-6.27282-5.77007-12.25059-4.15781-19.33967,1.49457-3.25118,4.01262-4.41991,7.47376-3.67121,8.72748,5.35075,8.24508,15.65344,12.5996,23.36061,5.37817,14.17556,11.11414,28.21568,16.8125,42.26515,3.0516,7.0474,6.16258,14.07466,8.956,21.23072,4.94744,14.24025,12.424,27.43658,16.97792,42.14138,2.95719-2.9431,4.52242-6.99464,9.22054-6.41236C308.42694,446.63341,307.79512,449.40189,306.71769,452.2647Z"/><path class="cls-15" d="M232.11719,41.33244c-.32142-5.54228.728-11.56158-5.26491-15.13034q-1.74384,2.3553-3.5306.03241c.11532-.46934.07819-1.08539.36812-1.38674,8.9663-9.31912,14.376,9.14244,22.42434,3.07574,7.47725-5.63619,14.24016-10.13128,21.69693-.43577,1.9425,4.46905,10.29617,6.92327,4.37829,13.87367-5.37383,5.28761-12.451,3.14976-18.78265,4.31446-1.26539.23231-2.54245.36739-3.80981.49968-4.48613.22371-5.77944,4.61756-8.79406,6.74618l.079-.03064C232.73925,52.99715,235.07342,45.159,232.11719,41.33244Z"/><path class="cls-16" d="M246.90442,448.67367c-2.84191,9.785-5.88293,19.51828-8.44564,29.37591-1.37737,5.29812-2.10768,10.98512-8.63081,12.116-6.65795,1.15421-9.10354-4.591-12.3056-8.741a67.632,67.632,0,0,1-3.8333-6.18422,5.50188,5.50188,0,0,1,4.26487-4.1635c7.75857,3.195,11.02285.00208,13.8879-7.53977,3.0361-7.99221,1.31977-19.57449,13.52192-22.17407C248.41116,443.27257,248.75737,445.74332,246.90442,448.67367Z"/><path class="cls-17" d="M270.49354,40.79457c4.32451-5.48394-3.06155-8.60884-2.6807-13.30276,3.6356,2.18139,7.5,2.74419,10.8265-.12053,10.47373-9.01992,15.14334-2.27859,19.12066,6.74234-.62651,3.56474.17,7.6522-3.68067,10.03478-2.61263,2.567-5.34428,4.90217-9.33288,4.81582C279.04571,47.90868,272.9505,47.51525,270.49354,40.79457Z"/><path class="cls-18" d="M217.12229,471.913q-1.71639,1.66389-3.433,3.32754c-4.87068-5.8397-10.78158-11.106-14.38394-17.64419-6.477-11.75571-14.82414-15.17462-26.91712-9.42125q.02991-2.86788.06047-5.736c2.93631-10.37489,11.289-9.63252,18.78832-8.04555C201.07758,436.47591,217.06347,460.65,217.12229,471.913Z"/><path class="cls-19" d="M246.90442,448.67367c-.29939-2.47864-.65153-4.93074-3.16508-6.29632-2.36245-2.29359-2.96952-5.15911-2.73439-8.30518,1.17426-6.51649,4.68812-12.32157,5.75845-18.8831a156.62968,156.62968,0,0,1,5.77125-16.86874c2.14794-3.439,4.358-6.75781,9.07644-3.48465q1.33864,4.13763,2.67415,8.26826C255.01619,416.96484,254.90727,434.32418,246.90442,448.67367Z"/><path class="cls-20" d="M160.47886,344.25573q-3.31476-.14913-6.62968-.29815,6.45731-20.71976,12.9157-41.44228,2.72827,3.21252,5.455,6.43019c3.179,8.35418-1.32415,15.62493-3.23691,23.27067C166.91576,336.76512,166.24067,342.31829,160.47886,344.25573Z"/><path class="cls-21" d="M359.65393,418.257c-5.0892-1.04634-10.78154-.99294-15.1351-3.38062-7.73993-4.24494-12.45175-.97352-17.12955,4.431a6.86814,6.86814,0,0,1-4.929-4.73826c.24455-10.31828,6.47028-13.52119,15.58367-12.53375,7.26754.78752,14.59336,1.77188,21.03959,5.76608a7.32726,7.32726,0,0,1,2.62756,3.91812A7.03931,7.03931,0,0,1,359.65393,418.257Z"/><path class="cls-22" d="M324.04423,415.64826q1.67275,1.82925,3.34532,3.65881c-6.51769,11.22025-12.01494,23.08008-20.672,32.95776-.50112-2.51067-.603-5.21233-3.21271-6.71387C305.6074,432.32492,309.59894,420.39641,324.04423,415.64826Z"/><path class="cls-23" d="M133.51662,88.969c-2.2928,4.04109-3.17461,8.07261-.9493,12.57651,2.53806,5.13689.05077,9.32673-4.65129,10.46709-11.55006,2.80116-10.152,10.95735-9.13782,19.28282-6.92225-8.48575-10.91268-16.585,3.65811-21.2365,8.60672-2.74753,5.981-9.50621,4.67112-14.60729C125.29039,88.37568,127.8596,87.65014,133.51662,88.969Z"/><path class="cls-24" d="M359.65393,418.257q.0427-2.83434.08547-5.66872c13.75055-3.77254,25.32183-.5742,32.56816,9.00188q-4.53288,1.5593-9.06514,3.11881C375.12766,423.48105,367.08407,421.99036,359.65393,418.257Z"/><path class="cls-25" d="M109.66777,153.63632c5.71194,2.9726,9.23614,8.00377,3.629,12.62883-9.80426,8.0871-6.88987,13.914.94581,20.60241,2.24884,1.91957,1.26735,4.41232-1.5089,5.75077-2.06575-2.726-3.64569-6.11675-6.29059-8.05235-7.35872-5.38531-7.98016-10.67429-.50832-16.02285C111.64954,164.45231,111.50341,159.37164,109.66777,153.63632Z"/><path class="cls-26" d="M223.32168,26.23451c1.16968-.01094,2.33939-.02188,3.51982-.03261-4.18614,9.77307-8.16156,19.17391-21.77913,10.64666-7.11157-4.45323-7.44727,5.56355-12.01187,7.091-.14541-10.1313,2.59074-16.40279,14.20892-10.42143C215.75222,37.89048,219.50552,32.04936,223.32168,26.23451Z"/><path class="cls-27" d="M130.88785,261.00532q-.03466,2.74107-.069,5.48185c-5.59677-1.03133-5.39863-4.5963-3.98436-8.85131,3.32268-9.9967-.431-15.89127-10.60353-17.95785,4.01152-5.00094,7.76564-.77411,11.607.32335C138.39943,245.61671,135.53986,253.18088,130.88785,261.00532Z"/><path class="cls-28" d="M353.33493,291.06855c-8.262.80609-4.36536,7.24159-5.29737,11.44144-2.14907,11.1498-5.862,12.00285-15.64713,3.59495,6.34744-2.80369,13.94852-3.75947,13.09023-14.12115-.39487-4.767,4.77961-4.87476,8.80679-3.87973Q353.813,289.58621,353.33493,291.06855Z"/><path class="cls-29" d="M112.84662,192.45654c2.85285,5.77456-12.84115,14.67166,3.07188,18.24978.36526,1.995,3.62526,4.10424-.23909,5.92647C100.3611,206.87957,100.31986,206.52762,112.84662,192.45654Z"/><path class="cls-30" d="M167.66771,64.34029c-1.63038.96149-3.34443,2.869-4.87778,2.73338-11.29264-.99869-15.83351,4.04165-14.37191,15.052.0356.26817-.59262.912-.84119.87739a13.972,13.972,0,0,1-2.3511-.715C145.96161,64.50071,145.96161,64.50071,167.66771,64.34029Z"/><path class="cls-31" d="M193.17264,43.79131c.181,5.175-3.12062,6.76028-7.31621,6.077-6.04815-.98493-11.28826,1.93351-16.95783,2.62071-.15747-5.70246,1.13983-9.55586,8.16473-6.90118A16.6668,16.6668,0,0,0,193.17264,43.79131Z"/><path class="cls-32" d="M249.33305,121.59035c4.16428,9.43816,3.57594,19.38383,3.13042,29.31426-9.47678,6.20665-14.8701,20.21717-29.964,15.69961-6.50443-7.03941,2.416-15.86528-2.6981-22.9934-8.97325-.59184-7.80423,7.1202-9.61419,11.98552-4.2426,11.4045-3.48614,24.28015-10.11534,35.05117a103.57638,103.57638,0,0,1-20.11374,15.05083c-4.58878,2.61763-9.45394,6.0836-14.82618,1.23613-5.41692-9.80965,4.42654-17.9621,2.96715-27.33809,3.17215-11.29018,8.07929-22.18279,8.00214-34.24016,1.93279-5.45648,3.83812-10.92746,8.03354-15.18706,14.68132-15.18651,32.73788-21.02147,53.52635-19.34461C243.90865,111.85489,248.25793,114.95407,249.33305,121.59035Z"/><path class="cls-33" d="M249.33305,121.59035c-4.28119-2.40965-6.55895-7.59476-11.87451-8.5714-5.5555,1.22323-10.23111-.74281-14.54682-4.01337,1.10962-14.60183,11.55468-24.67682,18.00481-36.6583,2.82681-5.25094,6.32671-10.00267,5.80318-16.33818-.17293-4.34537-3.283-9.46,3.162-12.072q1.31652.01118,2.63263-.02488c3.712,3.07448,7.69268,7.37319,12.69367,4.80914,8.62752-4.42339,13.35309,1.52468,19.00572,5.61727.37412.57134.73641,1.153,1.09871,1.73461-1.215,22.49643-18.35413,37.1568-27.53561,55.73248C255.8775,115.64829,253.96419,119.90865,249.33305,121.59035Z"/><path class="cls-34" d="M130.88785,261.00532c-1.154-6.97992,2.58879-14.67117-3.05023-21.00171,2.52054-4.34629,5.72193-7.7732,10.9252-8.92086,2.943-.64913,6.645-2.47281,5.47113-5.54709-7.49717-19.63487,11.57293-24.63651,19.22818-35.87462,2.22856,16.76782,3.84012,33.54294.596,50.3755-7.11139,1.57082-4.39136,8.32139-7.88216,13.54851,3.29239,6.46109,3.98314-8.10215,5.93962.29486,1.61542,6.93322-5.45117,6.16389-9.92356,7.63637C144.90221,263.91644,137.898,265.38418,130.88785,261.00532Z"/><path class="cls-35" d="M164.05813,240.03654c-5.48378-16.72942.17969-33.59053-.59563-50.37555q2.83879-7.69559,5.67829-15.39125,2.49312,1.43.37071,3.368c1.85168,10.25931-3.5995,19.82937-2.83014,29.98653,6.03511,10.84267,6.55173,21.65769-.16247,32.4365l-1.23-.05623Z"/><path class="cls-36" d="M222.91172,109.00558q7.276,2.00352,14.54938,4.01022c-3.37725,3.37847-7.15111,1.42063-11.02424,1.254-11.90536-.5121-23.25182.95641-32.348,10.337-2.42851,2.50444-3.822,8.94211-9.95307,5.561C192.85115,115.4022,206.70223,110.04328,222.91172,109.00558Z"/><path class="cls-37" d="M169.5115,177.63778q-.18348-1.68144-.36883-3.36545c-.13437-10.23026,4.10109-19.40691,6.95688-28.916C180.67914,157.49963,172.54823,167.04876,169.5115,177.63778Z"/><path class="cls-38" d="M232.11719,41.33244c8.34534-.25968,3.61432,9.39482,8.764,11.55857-3.89759,5.54559-7.90959,1.64011-11.89259.14329-1.68874-2.09086-1.92664-4.21491-.14608-6.38513Q230.47988,43.9908,232.11719,41.33244Z"/><path class="cls-39" d="M228.84252,46.64916q.07258,3.19132.14559,6.3839c-.52478,2.29458-.48862,5.718-3.96347,4.7808-5.50512-1.48483-4.92788-6.5943-5.326-10.93624C222.6342,42.36277,225.77085,45.81087,228.84252,46.64916Z"/><path class="cls-10" d="M199.21517,70.84079l-8.966-.16963.099.1079c-1.78683-3.96535-5.44918-8.86725-.4905-11.86805,4.914-2.9738,3.49476,7.89921,9.29964,6.06926Q199.18578,67.91256,199.21517,70.84079Z"/><path class="cls-40" d="M207.89437,52.84206q2.98407-2.8696,5.9665-5.73782c2.90706,3.96528-.12607,9.761,7.04856,13.53555C211.17084,62.46142,208.82606,58.59042,207.89437,52.84206Z"/><path class="cls-41" d="M249.88167,43.93707c-4.37036,3.1544,2.35259,9.21435-3.16157,12.07064q-2.95876-1.54185-5.917-3.08623C241.40751,47.47985,239.48672,39.486,249.88167,43.93707Z"/><path class="cls-42" d="M157.77477,106.64959c-4.43279,6.97609-7.98634,14.27113-14.9917,19.75469-3.11684,2.43975-2.34165,9.87433-3.2924,15.04926-.49547,2.69679-1.967,5.04441-4.6957,4.61013-2.15465-.34291-4.98224-1.89694-5.88785-3.71956-4.22445-8.502,9.52739-33.10692,19.7528-35.932C151.76566,103.90247,154.80794,103.82818,157.77477,106.64959Z"/><path class="cls-43" d="M181.41486,76.73953c-4.321,11.56348-13.28123,18.45475-23.87239,23.70341l.06035.05336c-5.87044-7.46987-2.60645-15.13751,3.85979-17.54612,6.30362-2.348,9.72889-16.40479,19.8188-6.32221Z"/><path class="cls-43" d="M190.24918,70.67116c-.00873,6.299-4.2509,6.43246-8.835,6.06761l-.1315-.11C179.41472,72.684,175.89991,67.81231,180.9,64.849c4.715-2.79435,3.59348,7.95789,9.44761,5.92953Z"/><path class="cls-43" d="M157.77477,106.64959q-4.55745-.11872-9.11489-.23748c-.57241-2.26574-2.37753-5.56173-1.49809-6.61393,3.32279-3.9755,6.77569,1.75369,10.44072.69779l-.05963-.05275C157.9891,102.498,160.77905,104.46537,157.77477,106.64959Z"/><path class="cls-44" d="M329.8999,160.03906c-5.71649,11.26-11.77887,22.46478-5.67158,35.60867,1.77218,8.93383,1.38323,18.32573,5.6743,26.72367.89823,9.95421,5.24534,19.549,3.10774,29.82-12.43755.41376-25.41272,6.21978-36.82866-3.62977-3.27487-7.66049-3.92293-15.92262-5.19135-23.88924-6.52841,9.39071-.86309,24.35976-14.30161,30.34257-10.37848.69653-21.07893,4.28878-30.4627-3.49639-1.29061-13.13434,1.71265-25.46167,7.06832-37.33976a843.62992,843.62992,0,0,0,68.74719-51.82423C324.29073,160.48958,326.62553,158.58043,329.8999,160.03906Z"/><path class="cls-45" d="M279.48166,252.1125c3.01058-12.097,5.65084-24.30287,9.16418-36.25205,2.27823-7.74854,4.35749-4.54218,5.55135.75272-3.97675,10.391,1.51731,19.71417,3.32078,29.45346,10.24274,11.24659,23.68389,3.95314,35.49243,6.12383-2.15858.9532-4.57225,3.08125-6.43636,2.67674-19.57741-4.24846-28.09734,7.81171-35.62438,22.6917-3.1901,6.30639-2.56466,10.02276,3.39425,13.19249,1.78024,1.67842,4.84475,2.81215,2.62442,6.18744q-1.25068-.12582-2.50345-.2286c-3.98878,3.77939-8.07067-3.05915-12.06482.10579l.13406-.11044c-5.39138,3.01739-2.48316,8.0216-2.92619,12.22355q-1.47646,5.64888-2.953,11.29772c-9.34351,1.58143-15.08014,13.675-26.54023,9.135-3.91743-.85062-5.6348-5.11958-9.47877-6.10537-2.36765.42145-5.26818-.03809-5.76025,3.48418-10.294,6.11944-12.66939,5.01964-18.75736-8.6756,2.76154-5.39561,6.63992-9.65391,12.35877-12.02249a45.3684,45.3684,0,0,1,6.19243-1.42537c4.2739-.59841,6.04564-3.08837,4.97683-7.21107-4.36382-16.83258,6.99428-27.65683,15.28579-39.46349C261.12179,249.12891,271.89632,256.73,279.48166,252.1125Z"/><path class="cls-46" d="M374.56829,225.44121c.91942,2.7578,3.06749,5.81073,2.49136,8.20933-1.05749,4.40265-3.51814-.28944-5.26518-.02641-4.73449.7128-1.01321,3.3815-.944,5.213.28316,7.49129,2.77479,15.94739-10.35251,15.01831-2.51373-.178,1.84435,12.03327-8.0872,9.39553.2,18.05514-9.53639.60457-13.5013,3.77877,9.499-12.8745,21.47586-23.96058,27.78009-39.165C367.96021,224.8002,371.68006,225.48344,374.56829,225.44121Z"/><path class="cls-47" d="M296.96833,296.93883q-1.31226-3.09373-2.62447-6.18746c10.853.04689,17.537-13.76781,29.81979-8.96831-1.12436,3.64376,2.68908,11.1229-3.71689,10.30229C311.548,290.94536,307.549,310.36791,296.96833,296.93883Z"/><path class="cls-46" d="M380.87048,210.54509c-3.64828,2.13-2.38993,4.388-.60911,7.22118,6.84248,10.88581-1.38679,5.9-5.54891,5.15792-10.5665-2.81583,1.99363-7.74617-.81789-12.17806C372.94281,209.24582,378.07119,206.36947,380.87048,210.54509Z"/><path class="cls-48" d="M338.99226,266.92423c.85083,5.02062,9.9248,10.20843-.307,15.00455-.82192-2.24771-.97515-5.34832-2.575-6.60016C328.35842,269.26287,333.05257,267.99577,338.99226,266.92423Z"/><path class="cls-49" d="M336.00466,281.82609c-3.92914,9.98592-7.98788,1.00056-11.99192.08225C327.91657,268.34659,331.99343,279.85158,336.00466,281.82609Z"/><path class="cls-50" d="M332.39043,306.10494c5.96022,2.05061,12.44315,6.3794,15.64627-3.59241,9.351,13.76536,15.38272,29.06022,20.58684,44.73587-3.15769,7.57118-10.75949,7.97147-17.01934,10.14564-28.28019,9.82228-57.16725,17.99933-84.06326,31.51175q-8.8683-20.85638-17.73662-41.71274c11.3965-9.116,26.82345-9.0144,38.74071-16.93947q2.97228-4.30451,5.94457-8.609c1.70716-6.32923,6.65052-7.26877,11.18306-4.77209,10.40531,5.73162,14.667.01615,18.11048-8.35149C326.0381,305.52772,329.42589,306.57028,332.39043,306.10494Z"/><path class="cls-51" d="M288.545,330.25358c-9.3679,13.75672-25.11627,12.92161-38.74144,16.94q-4.582-11.96983-9.16654-23.93787c4.81966-4.06815,4.84427,3.59121,8.11252,3.31876,5.73971,3.86792,10.80515,5.034,16.07408-1.441,4.63849-5.70022,10.00938-4.93922,14.45114.99183Z"/><path class="cls-52" d="M279.27479,326.12524c-5.04643-2.71321-9.96626-4.40311-14.08517,1.53647-6.069,8.75168-11.45079,6.72585-16.43908-1.08675,6.30036,1.27956,12.25157,1.72558,16.39367-4.79242,3.08051-4.84752,7.35083-3.37223,11.50969-1.55387Q277.96538,323.17515,279.27479,326.12524Z"/><path class="cls-53" d="M323.78314,308.521c-1.44224,11.06708-5.70358,17.50439-17.73691,10.47466-4.848-2.83211-8.14076-.11827-11.557,2.64861-.49116-6.14262,1.62251-10.79506,8.24925-7.355C312.159,319.17959,318.072,315.147,323.78314,308.521Z"/><path class="cls-54" d="M282.40006,296.816c3.97038-5.76657,8.02813-1.60436,12.06364-.106-.1092,3.7496.66262,8.79088-3.87756,9.65239C283.65725,307.67718,287.08265,298.44677,282.40006,296.816Z"/><path class="cls-55" d="M279.60793,308.92913c-3.58188-4.009-5.71553-8.49017-3.66329-13.84223.10114-.26378,4.29813,1.043,6.58868,1.61854C282.33659,300.9663,283.91641,305.65252,279.60793,308.92913Z"/><path class="cls-56" d="M279.48166,252.1125c-17.11665,1.6314-27.63935,11.48764-34.33251,26.7319-2.64836,6.03183-5.08437,11.12621-1.56795,18.02255,4.24945,8.334-.40442,11.85536-8.7902,11.65532-1.68453-9.25083-6.347-12.92447-15.45944-8.24064a4.2118,4.2118,0,0,1-3.67452-1.16238c-2.45732-4.11067-6.30512-6.50493-10.51832-8.4455.773-16.09332,14.75378-26.51578,17.86387-41.60566,3.64923-12.97416,10.24082-24.07433,20.79539-32.65043,4.895-6.38555,2.00068-17.0069,11.39122-20.94786,7.0156,13.35273-6.36607,23.63859-5.58506,36.406.32534,5.319-1.84338,11.46054-2.81365,17.24029C257.19163,255.52528,268.636,250.5533,279.48166,252.1125Z"/><path class="cls-57" d="M243.798,216.41766c-6.09108,11.41951-11.84742,23.05221-20.79566,32.65111-3.24724.15341-6.79065-.58876-8.92208,2.944-10.61781-.04346-21.27861.46013-31.8358-.36372a15.47025,15.47025,0,0,1-12.89326-8.29662c5.99642-8.36266,15.02579-13.04688,23.01024-19.0027a12.31132,12.31132,0,0,1,3.88534-.755c11.83034,1.86617,10.95039-11.035,17.59057-15.20561,6.05859-4.20864,12.11531-8.40248,18.12967-12.6606,4.2458-3.006,8.6637-7.05751,14.59563-3.23313C248.71332,200.82455,238.72429,207.75072,243.798,216.41766Z"/><path class="cls-58" d="M246.56263,192.49541c-13.11983,1.81358-19.60819,15.49723-32.31358,18.05265-5.3189-16.51719-.33206-30.971,8.92383-44.57,12.77328.82319,16.94062-15.08105,29.29286-15.07261C254.04184,165.27121,249.81042,178.81353,246.56263,192.49541Z"/><path class="cls-59" d="M246.79049,249.11607c-2.02664-18.63808,7.099-35.52893,8.40168-53.6456,6.58782-27.45848,8.85764-55.8774,18.38756-82.68146a14.70977,14.70977,0,0,1,2.70017,4.09967c2.39058,18.28779-5.72339,35.082-7.51132,52.78361-4.64714,14.50911-2.78725,30.90024-12.65595,43.90276C251.58719,225.0501,252.883,238.052,246.79049,249.11607Z"/><path class="cls-60" d="M285.42473,47.11278q4.33009-1.484,8.65739-2.96624c-2.63457,4.18857,1.80926,13.57762-8.76868,11.92467l.11065-.20752C281.39088,52.94643,279.92709,50.02935,285.42473,47.11278Z"/><path class="cls-61" d="M315.02032,52.97348c-1.03181,5.18325-1.83705,10.4557-5.71524,14.51454C305.06744,60.22844,304.5105,54.422,315.02032,52.97348Z"/><path class="cls-62" d="M273.58822,115.53758q-.02628-1.37658-.00871-2.75093,8.8734-.4134,17.74612-.83378c3.85472,1.12741,8.60311-1.13072,11.64813,3.0698C293.29424,121.7946,283.48942,121.41634,273.58822,115.53758Z"/><path class="cls-63" d="M256.11263,213.57505q4.41976-22.27926,8.83952-44.5585c10.808-7.87941,19.82348-18.57388,33.75664-21.57076,7.92259-3.66746,10.06006-11.86924,14.09844-18.41547,11.49579-18.63473,19.46037-21.57781,40.47474-13.98753,5.871,4.06125,1.30773,8.01853-.70023,11.18088-7.27245,11.45324-15.07591,22.56933-22.68041,33.814-16.62664,17.29521-37.92991,28.77741-55.67426,44.74047C269.36279,209.15413,263.86238,214.21977,256.11263,213.57505Z"/><path class="cls-64" d="M303.04852,130.19931c7.22631-21.90637,23.95312-38.56195,32.89571-59.51976l-.0402.0377c15.203-11.66486,29.38455-3.90978,32.72747,17.89751-11.08007,4.00159-12.44456,15.33234-17.82838,23.6307-21.77888-2.60707-34.83691,8.38863-42.81873,27.38346a4.75051,4.75051,0,0,1-4.47052,3.12313C300.12482,138.68679,294.035,134.71792,303.04852,130.19931Z"/><path class="cls-62" d="M303.26658,142.31081c1.76809-2.29891,4.248-4.33939,5.19139-6.93773,7.359-20.26809,22.11-26.62943,42.34533-23.1265q1.2443,1.39964,2.48382,2.79884c-22.7775-4.61769-35.29913,7.30114-43.86518,26.52818-3.13378,7.0339-3.86091,6.70995-9.468,9.56692C297.516,146.86836,299.06125,144.09059,303.26658,142.31081Z"/><path class="cls-65" d="M303.26658,142.31081q-1.65375,4.41395-3.31,8.82881c-10.23582-1.12242-14.83514,8.14278-22.10727,12.38736-4.19943,2.45115-7.63571,5.82717-12.9,5.48822,1.66114-18.02342,9.29361-35.08367,8.63823-53.47984q14.69626-.25146,29.38869-.51.03594,7.584.07454,15.17365C297.95666,134.32946,304.40521,138.25183,303.26658,142.31081Z"/><path class="cls-66" d="M335.94423,70.67955c-4.03666-2.422-6.25165,8.50854-10.68584,1.56373-1.64886-2.58239.45142-4.9076,2.63611-6.05731,4.69828-2.47248,7.52654-.847,8.01024,4.53151Z"/><path class="cls-67" d="M217.51273,317.46485c4.02274,6.39638,6.63389,15.4365,17.36337,9.27343q2.88446,8.72934,5.76973,17.454c-1.69455,1.92343-3.905,3.466-6.33933,3.38931-23.57807-.7426-46.8876-2.84089-67.86514-15.22822q2.8911-11.70434,5.78035-23.40827c7.61255-2.85135,15.31136-6.15323,20.51577,3.84767,5.12386,3.63382,10.238,4.74362,16.25959,1.52161C212.1692,312.617,216.68321,311.06129,217.51273,317.46485Z"/><path class="cls-56" d="M217.51273,317.46485c-4.5187-6.31979-7.36177-.02463-10.3805,1.69235-7.99908,4.54974-13.47908,4.56593-14.39437-6.36548,2.544-7.28294-1.07809-18.515,12.142-18.96373,4.00917,2.0763,8.1534,3.872,12.19974,5.87112l-.08517-.05717c2.76617,4.65939,14.64571-3.07691,12.05781,8.865C223.8115,309.69687,223.653,317.43364,217.51273,317.46485Z"/><path class="cls-68" d="M217.07957,299.69911c-6.73993,3.59681-11.14363,2.34281-12.19706-5.87208q.12552-1.57491.25628-3.15249C215.49917,285.241,216.93669,291.61365,217.07957,299.69911Z"/><path class="cls-69" d="M193.28178,225.26777c-6.14064,8.45624-14.33362,14.19638-23.92964,18.08284q-1.4178-1.64163-2.83346-3.28837.07956-16.2216.16068-32.43916c12.99315-1.95692,20.17217-14.23364,32.10044-18.07878C204.96465,202.68606,198.40782,213.86682,193.28178,225.26777Z"/><path class="cls-70" d="M243.61878,433.3875q.06087,4.49487.12113,8.98981c-5.35276,7.29565-7.12788,16.06153-9.16729,24.49425-3.09961,12.81652-8.21917,15.1459-17.4512,5.04357-4.85892-12.475-14.131-22.06152-22.521-31.88213-6.87038-8.042-15.04086-1.65152-22.1518,2.40564-16.20273,5.43862-32.40556,10.8767-52.20265,17.52111,7.07091-18.37232,13.22969-34.37469,19.3885-50.37707,4.89231-2.3973,9.58731-.22021,14.34066.6173,24.61363,4.3369,48.88954,10.33534,73.45218,14.94067C233.46244,426.27222,240.47668,426.24568,243.61878,433.3875Z"/><path class="cls-71" d="M261.61111,394.83568c-4.3424-.55487-5.71077,2.26089-6.49894,5.73423-3.88895,3.27986-8.36036,2.20989-12.62492,1.41235-27.40927-5.12591-54.69526-10.876-82.02757-16.39178a23.4618,23.4618,0,0,1-11.76831-5.60786q5.90826-16.37156,11.81651-32.74314c15.14373,1.09912,29.57448,5.90136,44.3928,8.70587,13.90971,2.6325,27.82871,4.833,41.908,6.13157Q254.20992,378.45631,261.61111,394.83568Z"/><path class="cls-72" d="M243.61878,433.3875c-27.15807-5.91071-54.23413-12.25112-81.52618-17.45982-7.788-1.48639-15.25141-3.21576-22.45732-6.34418-.02572-5.7629,1.581-10.87633,5.92307-14.90242,4.71355-2.36609,9.672-1.54709,14.46906-.71852,26.14582,4.51578,51.992,10.52307,77.95221,15.96109,4.29829.90035,8.653,2.06245,11.7148,5.68778C250.37884,422.46289,246.52382,427.76283,243.61878,433.3875Z"/><path class="cls-73" d="M249.69442,415.61143q-52.06671-10.46366-104.13473-20.92886,1.5641-7.35195,3.13127-14.70043,53.21477,10.296,106.425,20.58945Q252.40141,408.08986,249.69442,415.61143Z"/><path class="cls-74" d="M246.8087,362.07692c-10.26438,6.93142-20.79432,2.35551-30.77807-.15343-18.55792-4.66367-38.72977-3.39638-55.52222-14.68405q-.01443-1.49169-.02869-2.98357,2.98056-5.95119,5.96224-11.9023c24.77182,3.71831,48.59794,13.36786,74.20564,11.83933Q243.72637,353.13428,246.8087,362.07692Z"/><path class="cls-75" d="M324.04423,415.64826c-9.99282,7.80553-13.43548,20.11167-20.54159,29.90089-2.52559,3.36982-5.05341,6.73787-8.41259,11.21354-6.53511-16.64517-14.67938-31.00211-18.67707-47.0749,1.90485-5.97253,7.21719-7.77381,12.255-9.57358,25.44134-9.0891,50.72337-18.64332,76.565-26.58007,5.21378-1.60129,10.43165-3.25245,15.5099.40361,5.5784,7.0907,8.33885,15.53712,11.456,23.81191-9.20776,8.43929-20.3111,11.71307-32.533,11.93868-6.72539-1.107-13.74567-1.35015-20.10758-3.52193C329.83457,402.847,325.82686,406.95306,324.04423,415.64826Z"/><path class="cls-76" d="M380.74293,373.93775c-35.88685,8.67506-70.12594,22.15876-104.32909,35.75a70.48117,70.48117,0,0,1-8.8724-20.78241c.06222-8.12143,6.785-8.63139,12.1734-10.52535q44.43582-15.61872,88.90881-31.13152C375.01485,355.077,376.04154,365.34171,380.74293,373.93775Z"/><path class="cls-77" d="M359.66593,409.68834c10.28038-5.51878,21.36145-8.85544,32.53432-11.93854,3.94218,7.717,7.88562,15.4342,12.18105,23.84015-4.76634,0-8.41852,0-12.07219.00009-10.1243-5.65315-21.51118-6.73224-32.56957-9.00115Q359.7621,411.1365,359.66593,409.68834Z"/><path class="cls-78" d="M285.42473,47.11278c-1.96877,2.91687-1.814,5.8339-.00066,8.751-8.75479.07489-16.24123-7.63575-26.535-1.84279-5.38983,3.0332-5.71284-5.548-6.37285-10.10819,5.16109-5.83413,12.49219.85359,17.97781-3.11611Q277.95891,43.95262,285.42473,47.11278Z"/><path class="cls-79" d="M193.28178,225.26777c-1.55972-12.43031,5.68076-23.50471,5.501-35.72271,3.13628-14.15065,5.75877-28.44446,9.64162-42.38726,1.83171-6.57755,4.6805-15.20618,14.83194-7.80536,1.46041,19.31137-5.73132,37.31869-8.81064,55.9289-1.09156,6.59695-2.30107,13.46563-4.66734,19.94777-2.28563,6.26125-4.46637,12.19393-13.01744,10.44592Q195.02137,225.47142,193.28178,225.26777Z"/><path class="cls-80" d="M196.76093,225.675c6.705-1.18021,9.93084-5.61725,11.221-11.9155q7.62218-37.20813,15.273-74.40888c7.42823,8.90079-2.79834,17.74193-.084,26.62645-2.94,14.864-8.20261,29.26217-8.9236,44.57035C206.8932,227.81476,206.8932,227.81476,196.76093,225.675Z"/><path class="cls-81" d="M297.518,246.06663c-6.5325-11.67531-7.24271-17.97933-3.31967-29.4553Q295.857,231.34082,297.518,246.06663Z"/><path class="cls-82" d="M229.05221,308.50689c-.262-3.80244-2.01987-4.58029-5.6586-3.50715-4.28423,1.26355-6.04526-1.43115-6.3988-5.35766,3.19584-9.56719,11.50019-5.898,16.43748-4.38326,6.92825,2.1256,4.10079,8.40341,1.3595,13.26408Q231.92121,308.51426,229.05221,308.50689Z"/><path class="cls-83" d="M263.00037,294.45631c10.2706,6.70466,10.80175,10.78821,2.48361,16.32441C264.68766,305.54655,264.0837,301.57689,263.00037,294.45631Z"/><path class="cls-82" d="M253.77971,310.19468c-1.25239-4.73962-2.26528-8.80828.8273-11.807,1.7269-1.67445,3.40829.6454,4.3878,2.321C261.77838,305.4706,258.93694,307.749,253.77971,310.19468Z"/><path d="M34.99658,535.679h26.749v7.02539H42.7251v7.47754H59.4873v7.02637H42.7251v13.60058H34.99658Z"/><path d="M67.26514,534.17309h8.02978v6.77539H67.26514Zm.20117,9.73633h7.62793v26.89941H67.46631Z"/><path d="M82.62158,534.17309h7.62793v36.63574H82.62158Z"/><path d="M96.12109,557.509v-.09961c0-7.67871,5.47022-14.00195,13.29932-14.00195,8.9834,0,13.09863,6.97558,13.09863,14.60351,0,.60254-.05029,1.30567-.10058,2.00782H103.69922a6.23872,6.23872,0,0,0,6.57422,5.26953,8.816,8.816,0,0,0,6.52441-2.75977l4.36621,3.86426a13.45469,13.45469,0,0,1-10.99072,5.01855C102.09326,571.41137,96.12109,565.74047,96.12109,557.509Zm18.97022-2.25781c-.45166-3.41309-2.459-5.72168-5.6709-5.72168-3.16162,0-5.21924,2.25879-5.82178,5.72168Z"/><path d="M128.99219,535.679h8.33056l9.23438,14.85449L155.7915,535.679h8.33057v35.12988h-7.67822V547.87329l-9.88672,15.00586h-.20068l-9.78614-14.8545v22.78418h-7.57812Z"/><path d="M170.44531,557.509v-.09961c0-7.67871,5.47022-14.00195,13.29932-14.00195,8.9834,0,13.09863,6.97558,13.09863,14.60351,0,.60254-.05029,1.30567-.10058,2.00782H178.02344a6.23872,6.23872,0,0,0,6.57422,5.26953,8.816,8.816,0,0,0,6.52441-2.75977l4.36621,3.86426a13.45472,13.45472,0,0,1-10.99072,5.01855C176.41748,571.41137,170.44531,565.74047,170.44531,557.509Zm18.97022-2.25781c-.45166-3.41309-2.459-5.72168-5.6709-5.72168-3.16162,0-5.21924,2.25879-5.82178,5.72168Z"/><path d="M203.76855,563.1809v-12.748h-3.21191v-6.52344h3.21191v-6.876h7.62793v6.876h6.32373v6.52344h-6.32373V561.926c0,1.75684.75293,2.60938,2.45948,2.60938a7.76391,7.76391,0,0,0,3.76367-.95313v6.12207a11.24067,11.24067,0,0,1-6.022,1.55664C206.93018,571.261,203.76855,569.40356,203.76855,563.1809Z"/><path d="M221.73438,563.08032v-.10059c0-5.87207,4.46679-8.582,10.84033-8.582a19.11386,19.11386,0,0,1,6.57422,1.10449v-.45214c0-3.16114-1.957-4.918-5.77149-4.918a19.7862,19.7862,0,0,0-7.42724,1.45507l-1.90723-5.82128a23.735,23.735,0,0,1,10.439-2.15821c4.165,0,7.17627,1.10449,9.0835,3.01172,2.00732,2.00684,2.91064,4.96777,2.91064,8.582v15.60742h-7.37744V567.8977a10.34155,10.34155,0,0,1-8.12988,3.41309C225.8999,571.31079,221.73438,568.39965,221.73438,563.08032Zm17.51513-1.75684V559.969a11.8247,11.8247,0,0,0-4.86816-1.00391c-3.26221,0-5.26953,1.30469-5.26953,3.71387v.10059c0,2.05761,1.70654,3.26172,4.16552,3.26172C236.84033,566.04126,239.24951,564.08422,239.24951,561.32348Z"/><path d="M267.35254,553.344v-.10059a17.8545,17.8545,0,0,1,18.31738-18.167c6.625,0,10.58985,2.208,13.85156,5.41992l-4.918,5.6709c-2.71-2.459-5.47071-3.96484-8.9834-3.96484-5.92188,0-10.1875,4.91894-10.1875,10.94043v.10058c0,6.02247,4.165,11.041,10.1875,11.041,4.01465,0,6.47363-1.60547,9.23437-4.11523l4.918,4.96875a17.95662,17.95662,0,0,1-14.40332,6.27343A17.7321,17.7321,0,0,1,267.35254,553.344Z"/><path d="M305.14258,534.17309h7.62793V547.7229c1.75683-2.25782,4.01465-4.31543,7.8789-4.31543,5.77149,0,9.13379,3.81347,9.13379,9.98633v17.415h-7.62793V555.803c0-3.61328-1.706-5.46972-4.61718-5.46972s-4.76758,1.85644-4.76758,5.46972v15.00586h-7.62793Z"/><path d="M335.10156,557.509v-.09961c0-7.67871,5.47071-14.00195,13.29981-14.00195,8.9834,0,13.09863,6.97558,13.09863,14.60351,0,.60254-.05078,1.30567-.10059,2.00782H342.67969a6.23937,6.23937,0,0,0,6.57519,5.26953,8.81469,8.81469,0,0,0,6.52344-2.75977l4.36621,3.86426a13.45239,13.45239,0,0,1-10.99023,5.01855C341.07422,571.41137,335.10156,565.74047,335.10156,557.509Zm18.97071-2.25781c-.45118-3.41309-2.459-5.72168-5.6709-5.72168-3.16211,0-5.21973,2.25879-5.82129,5.72168Z"/><path d="M365.86523,557.509v-.09961a13.81073,13.81073,0,0,1,14.10254-14.00195c5.06934,0,8.23047,1.70605,10.74024,4.5166l-4.668,5.01855c-1.70606-1.80664-3.41211-2.96093-6.12207-2.96093-3.81445,0-6.52442,3.3623-6.52442,7.32714v.10059c0,4.11523,2.66016,7.42773,6.8252,7.42773,2.55957,0,4.31641-1.10449,6.17285-2.86132l4.4668,4.5166a13.54459,13.54459,0,0,1-10.99121,4.91894A13.736,13.736,0,0,1,365.86523,557.509Z"/><path d="M395.82715,534.17309h7.62793v19.52246l8.93262-9.78613h9.13476l-10.23828,10.58887,10.58887,16.31054h-8.73243l-7.02539-10.99121-2.66015,2.81055v8.18066h-7.62793Z"/><path d="M422.97656,557.509v-.09961c0-7.67871,5.47071-14.00195,13.29981-14.00195,8.9834,0,13.09863,6.97558,13.09863,14.60351,0,.60254-.05078,1.30567-.10059,2.00782H430.55469a6.23937,6.23937,0,0,0,6.57519,5.26953,8.81469,8.81469,0,0,0,6.52344-2.75977l4.36621,3.86426a13.45239,13.45239,0,0,1-10.99023,5.01855C428.94922,571.41137,422.97656,565.74047,422.97656,557.509Zm18.97071-2.25781c-.45118-3.41309-2.459-5.72168-5.6709-5.72168-3.16211,0-5.21973,2.25879-5.82129,5.72168Z"/><path d="M455.0459,543.90942h7.62793v5.41992c1.55566-3.71387,4.06543-6.123,8.582-5.92187V551.387h-.40137c-5.06933,0-8.18066,3.06152-8.18066,9.48535v9.93652H455.0459Z"/></svg>