<svg width="160" height="160" version="1.1" xmlns="http://www.w3.org/2000/svg"><path fill="rgb(242,214,8)" stroke="rgb(242,214,8)" stroke-width="1" opacity="0.2627450980392157" d="M 80.5 0 L 86.5 4 L 91.5 1 L 92.5 3 L 90.5 2 L 85.5 5 L 80.5 1 L 75.5 5 L 74.5 3 L 76.5 4 L 80.5 0 Z "></path><path fill="rgb(242,214,8)" stroke="rgb(242,214,8)" stroke-width="1" opacity="0.2627450980392157" d="M 70.5 1 L 68.5 4 L 70.5 1 Z "></path><path fill="rgb(242,214,8)" stroke="rgb(242,214,8)" stroke-width="1" opacity="0.2627450980392157" d="M 60.5 4 L 62 4.5 L 59.5 6 L 60.5 4 Z "></path><path fill="rgb(242,214,8)" stroke="rgb(242,214,8)" stroke-width="1" opacity="0.2627450980392157" d="M 93.5 4 L 95.5 7 L 93.5 4 Z "></path><path fill="rgb(242,214,8)" stroke="rgb(242,214,8)" stroke-width="1" opacity="0.2627450980392157" d="M 63.5 5 L 66.5 6 L 68 5.5 Q 66.8 8.3 65.5 6 Q 62.5 6.5 63.5 5 Z "></path><path fill="rgb(242,214,8)" stroke="rgb(242,214,8)" stroke-width="1" opacity="0.2627450980392157" d="M 50.5 9 L 51 12.5 L 50 12.5 L 50.5 9 Z "></path><path fill="rgb(242,214,8)" stroke="rgb(242,214,8)" stroke-width="1" opacity="0.2627450980392157" d="M 52.5 9 L 56 9.5 L 52.5 10 L 52.5 9 Z "></path><path fill="rgb(242,214,8)" stroke="rgb(242,214,8)" stroke-width="1" opacity="0.2627450980392157" d="M 42 15 L 50 15.5 L 43 16 L 43 23 L 40.5 23 L 40.5 22 L 42 21.5 L 42 15 Z "></path><path fill="rgb(242,214,8)" stroke="rgb(242,214,8)" stroke-width="1" opacity="0.2627450980392157" d="M 36 23 L 39 23.5 L 37 24 L 36.5 27 L 36 23 Z "></path><path fill="rgb(242,214,8)" stroke="rgb(242,214,8)" stroke-width="1" opacity="0.2627450980392157" d="M 37.5 29 L 36.5 31 L 37.5 29 Z "></path><path fill="rgb(242,214,8)" stroke="rgb(242,214,8)" stroke-width="1" opacity="0.2627450980392157" d="M 32.5 32 L 32 33.5 L 33 36.5 L 32 36.5 L 31 33.5 L 32.5 32 Z "></path><path fill="rgb(242,214,8)" stroke="rgb(242,214,8)" stroke-width="1" opacity="0.2627450980392157" d="M 33.5 38 L 29 43.5 L 31 46.5 L 28 44.5 Q 26.9 41.2 29.5 42 L 33.5 38 Z "></path><path fill="rgb(242,214,8)" stroke="rgb(242,214,8)" stroke-width="1" opacity="0.2627450980392157" d="M 31.5 48 L 29 51.5 L 27.5 56 L 27 53.5 L 29 49 L 31.5 48 Z "></path><path fill="rgb(242,214,8)" stroke="rgb(242,214,8)" stroke-width="1" opacity="0.2627450980392157" d="M 29.5 57 Q 32.8 55.9 32 58.5 L 28.5 65 L 28 62.5 L 31 58.5 L 29.5 57 Z "></path><path fill="rgb(242,214,8)" stroke="rgb(242,214,8)" stroke-width="1" opacity="0.2627450980392157" d="M 30.5 65 L 31.5 67 L 30.5 65 Z "></path><path fill="rgb(242,214,8)" stroke="rgb(242,214,8)" stroke-width="1" opacity="0.2627450980392157" d="M 31.5 73 L 32.5 75 Q 29.7 75.7 31.5 73 Z "></path><path fill="rgb(242,214,8)" stroke="rgb(242,214,8)" stroke-width="1" opacity="0.2627450980392157" d="M 34.5 75 L 37 76.5 L 35.5 77 L 34.5 75 Z "></path><path fill="rgb(242,214,8)" stroke="rgb(242,214,8)" stroke-width="1" opacity="0.2627450980392157" d="M 36.5 79 L 37 81.5 L 36 81.5 L 36.5 79 Z "></path><path fill="rgb(242,214,8)" stroke="rgb(242,214,8)" stroke-width="1" opacity="0.2627450980392157" d="M 39.5 84 L 43 85.5 L 42.5 90 L 42 85 Q 38.7 85.8 39.5 84 Z "></path><path fill="rgb(160,108,30)" stroke="rgb(160,108,30)" stroke-width="1" opacity="1" d="M 67.5 31 L 70 31.5 L 61.5 34 L 56 39.5 L 53.5 46 L 53 43.5 L 59.5 34 L 67.5 31 Z "></path><path fill="rgb(160,108,30)" stroke="rgb(160,108,30)" stroke-width="1" opacity="1" d="M 86.5 32 L 95 32.5 L 86.5 33 L 86.5 32 Z "></path><path fill="rgb(160,108,30)" stroke="rgb(160,108,30)" stroke-width="1" opacity="1" d="M 103.5 32 L 112 32.5 L 103.5 33 L 102 34.5 L 95.5 46 L 95 44.5 L 103.5 32 Z "></path><path fill="rgb(160,108,30)" stroke="rgb(160,108,30)" stroke-width="1" opacity="1" d="M 85.5 34 L 86 37.5 L 84.5 42 L 84 38.5 L 85.5 34 Z "></path><path fill="rgb(160,108,30)" stroke="rgb(160,108,30)" stroke-width="1" opacity="1" d="M 69.5 41 L 70 44.5 L 69 44.5 L 69.5 41 Z "></path><path fill="rgb(160,108,30)" stroke="rgb(160,108,30)" stroke-width="1" opacity="1" d="M 83.5 43 L 84 47.5 L 83 47.5 L 83.5 43 Z "></path><path fill="rgb(160,108,30)" stroke="rgb(160,108,30)" stroke-width="1" opacity="1" d="M 68.5 46 L 69 50.5 L 68 50.5 L 68.5 46 Z "></path><path fill="rgb(160,108,30)" stroke="rgb(160,108,30)" stroke-width="1" opacity="1" d="M 52.5 47 L 53 49.5 L 50.5 59 L 50 54.5 L 52.5 47 Z "></path><path fill="rgb(160,108,30)" stroke="rgb(160,108,30)" stroke-width="1" opacity="1" d="M 82.5 49 L 83 51.5 L 82 51.5 L 82.5 49 Z "></path><path fill="rgb(160,108,30)" stroke="rgb(160,108,30)" stroke-width="1" opacity="1" d="M 67.5 52 L 68 55.5 L 66.5 60 L 66 56.5 L 67.5 52 Z "></path><path fill="rgb(160,108,30)" stroke="rgb(160,108,30)" stroke-width="1" opacity="1" d="M 81.5 53 L 82 56.5 L 81 56.5 L 81.5 53 Z "></path><path fill="rgb(160,108,30)" stroke="rgb(160,108,30)" stroke-width="1" opacity="1" d="M 80.5 58 L 81 61.5 L 80 61.5 L 80.5 58 Z "></path><path fill="rgb(160,108,30)" stroke="rgb(160,108,30)" stroke-width="1" opacity="1" d="M 49.5 60 L 50 65.5 L 49 65.5 L 49.5 60 Z "></path><path fill="rgb(160,108,30)" stroke="rgb(160,108,30)" stroke-width="1" opacity="1" d="M 65.5 61 L 66 64.5 L 62.5 71 L 61 70.5 L 63 70 L 65.5 61 Z "></path><path fill="rgb(160,108,30)" stroke="rgb(160,108,30)" stroke-width="1" opacity="1" d="M 79.5 63 L 80 66.5 L 79 66.5 L 79.5 63 Z "></path><path fill="rgb(160,108,30)" stroke="rgb(160,108,30)" stroke-width="1" opacity="1" d="M 78.5 68 L 79 71.5 L 78 71.5 L 78.5 68 Z "></path><path fill="rgb(160,108,30)" stroke="rgb(160,108,30)" stroke-width="1" opacity="1" d="M 77.5 73 L 78 75.5 L 77 75.5 L 77.5 73 Z "></path><path fill="rgb(160,108,30)" stroke="rgb(160,108,30)" stroke-width="1" opacity="1" d="M 93.5 73 L 94 75.5 L 93 75.5 L 93.5 73 Z "></path><path fill="rgb(160,108,30)" stroke="rgb(160,108,30)" stroke-width="1" opacity="1" d="M 103.5 97 L 107 97.5 L 103.5 98 L 103.5 97 Z "></path><path fill="rgb(223,202,66)" stroke="rgb(223,202,66)" stroke-width="1" opacity="0.996078431372549" d="M 91.5 4 L 94 8 L 101 6 L 103 12 L 110 11 L 111 17 L 106 19.5 L 107 22.5 L 101 31.5 L 101.5 33 Q 100.3 30.7 99 33.5 L 100 35.5 L 98.5 35 Q 96.3 35.8 97 33.5 L 95.5 32 L 85 32 L 78 68.5 L 65 89.5 L 65 91.5 L 64 94.5 L 66 95.5 L 64.5 96 Q 62.8 92.3 61 95.5 L 59.5 99 L 59 97 L 54.5 96 L 51.5 98 L 51 95.5 L 48.5 90 Q 41.3 92.3 44 84.5 L 43 82 Q 47.6 83.3 49 80.5 Q 50 76.8 47 78 Q 48.3 81.3 43.5 80 L 42.5 78 L 46 79 L 48.5 71 L 49 76 L 57.5 80 L 64.5 80 L 72 75.5 L 74 71 L 76 70.5 L 75 68.5 L 78 59.5 Q 75.5 58 79 56.5 L 78 52.5 L 80 46.5 L 79 45.5 L 79 37.5 L 76 32 L 74 31.5 L 86 13.5 L 85.5 12 L 88.5 13 L 89 10.5 Q 89.8 8.3 87.5 9 L 85 10 L 85.5 8 L 87.5 8 L 91 5.5 L 91.5 4 Z M 92 9 L 90 11 L 92 14 L 93 11 Q 94 8 92 9 Z M 95 11 L 93 14 L 96 15 Q 94 13 97 12 L 95 11 Z M 99 12 L 97 14 L 99 17 L 100 14 Q 101 11 99 12 Z M 100 14 L 100 18 L 104 16 Q 105 12 100 14 Z M 105 16 L 103 20 L 107 18 Q 108 15 105 16 Z M 49 81 Q 50 84 48 83 L 49 85 L 51 84 Q 52 80 49 81 Z M 53 83 Q 53 87 51 86 L 52 88 L 54 87 L 53 83 Z M 56 86 Q 56 89 54 88 L 55 90 L 57 89 L 56 86 Z M 59 88 L 57 92 L 60 91 L 59 88 Z M 62 89 L 61 91 L 62 92 Q 59 91 60 94 L 63 93 L 62 89 Z "></path><path fill="rgb(223,202,66)" stroke="rgb(223,202,66)" stroke-width="1" opacity="0.996078431372549" d="M 72.5 8 L 74 8.5 L 71.5 10 L 72.5 8 Z "></path><path fill="rgb(223,202,66)" stroke="rgb(223,202,66)" stroke-width="1" opacity="0.996078431372549" d="M 77.5 8 L 78.5 10 L 77.5 8 Z "></path><path fill="rgb(223,202,66)" stroke="rgb(223,202,66)" stroke-width="1" opacity="0.996078431372549" d="M 81.5 9 Q 84.1 8.2 83 11.5 L 83.5 13 L 81.5 13 L 80 12.5 Q 83.1 10.8 81.5 9 Z "></path><path fill="rgb(223,202,66)" stroke="rgb(223,202,66)" stroke-width="1" opacity="0.996078431372549" d="M 65.5 10 L 68 11.5 L 66.5 12 L 65 11.5 L 63.5 15 L 57.5 19 L 54 19 Q 52.7 14.9 56 16 Q 54.9 18.7 57.5 18 L 57 16.5 L 58.5 13 L 59 16 L 61 16 L 61 12 L 62.5 12 L 62.5 14 Q 65.1 14.8 64 11.5 L 65.5 10 Z "></path><path fill="rgb(223,202,66)" stroke="rgb(223,202,66)" stroke-width="1" opacity="0.996078431372549" d="M 69.5 11 L 70.5 13 L 69.5 11 Z "></path><path fill="rgb(223,202,66)" stroke="rgb(223,202,66)" stroke-width="1" opacity="0.996078431372549" d="M 75.5 11 L 76.5 13 L 74 12.5 L 75.5 11 Z "></path><path fill="rgb(223,202,66)" stroke="rgb(223,202,66)" stroke-width="1" opacity="0.996078431372549" d="M 117.5 17 L 118 22.5 L 117 22.5 L 117.5 17 Z "></path><path fill="rgb(223,202,66)" stroke="rgb(223,202,66)" stroke-width="1" opacity="0.996078431372549" d="M 51 18 L 53 18.5 L 52.5 20 L 55 20.5 L 51 21 L 51 18 Z "></path><path fill="rgb(223,202,66)" stroke="rgb(223,202,66)" stroke-width="1" opacity="0.996078431372549" d="M 110.5 19 L 109.5 21 L 108 20.5 L 110.5 19 Z "></path><path fill="rgb(223,202,66)" stroke="rgb(223,202,66)" stroke-width="1" opacity="0.996078431372549" d="M 48.5 21 Q 50.8 25.2 53 23.5 Q 51.7 26.2 50.5 24 L 48 22.5 L 48.5 21 Z "></path><path fill="rgb(223,202,66)" stroke="rgb(223,202,66)" stroke-width="1" opacity="0.996078431372549" d="M 46.5 23 L 49 25.5 L 48.5 28 L 47 28.5 L 47.5 30 L 44 27.5 L 45.5 28 Q 47.8 28.8 47 26.5 L 46.5 23 Z "></path><path fill="rgb(223,202,66)" stroke="rgb(223,202,66)" stroke-width="1" opacity="0.996078431372549" d="M 42 32 Q 45 31 44 34 Q 41 35 42 32 Z "></path><path fill="rgb(223,202,66)" stroke="rgb(223,202,66)" stroke-width="1" opacity="0.996078431372549" d="M 117.5 32 L 120 32.5 L 117.5 33 L 117.5 32 Z "></path><path fill="rgb(223,202,66)" stroke="rgb(223,202,66)" stroke-width="1" opacity="0.996078431372549" d="M 58.5 34 L 57.5 36 L 58.5 34 Z "></path><path fill="rgb(223,202,66)" stroke="rgb(223,202,66)" stroke-width="1" opacity="0.996078431372549" d="M 119.5 35 L 118.5 37 L 119.5 35 Z "></path><path fill="rgb(223,202,66)" stroke="rgb(223,202,66)" stroke-width="1" opacity="0.996078431372549" d="M 96.5 37 L 97 40.5 L 95 39.5 L 96.5 37 Z "></path><path fill="rgb(223,202,66)" stroke="rgb(223,202,66)" stroke-width="1" opacity="0.996078431372549" d="M 120.5 39 L 119.5 41 L 120.5 39 Z "></path><path fill="rgb(223,202,66)" stroke="rgb(223,202,66)" stroke-width="1" opacity="0.996078431372549" d="M 68.5 40 L 69 42.5 L 68 42.5 L 68.5 40 Z "></path><path fill="rgb(223,202,66)" stroke="rgb(223,202,66)" stroke-width="1" opacity="0.996078431372549" d="M 94 42 L 96 42.5 L 94 43.5 L 94 42 Z "></path><path fill="rgb(223,202,66)" stroke="rgb(223,202,66)" stroke-width="1" opacity="0.996078431372549" d="M 64.5 43 L 68 48.5 L 64 66.5 L 61.5 70 Q 59.3 70.8 60 68.5 L 59 65.5 L 61 65.5 L 60 61.5 Q 62.8 60.8 62 56.5 L 61.5 55 L 63 55.5 L 62 50.5 L 64 50.5 L 66 45.5 L 64.5 43 Z "></path><path fill="rgb(223,202,66)" stroke="rgb(223,202,66)" stroke-width="1" opacity="0.996078431372549" d="M 39.5 45 L 41 45.5 L 39 46 Q 40.1 48.7 37.5 48 L 36.5 46 Q 38 48.5 39.5 45 Z "></path><path fill="rgb(223,202,66)" stroke="rgb(223,202,66)" stroke-width="1" opacity="0.996078431372549" d="M 122.5 46 L 125 46.5 L 121.5 48 L 122.5 46 Z "></path><path fill="rgb(223,202,66)" stroke="rgb(223,202,66)" stroke-width="1" opacity="0.996078431372549" d="M 128.5 49 L 132.5 54 L 128.5 49 Z "></path><path fill="rgb(223,202,66)" stroke="rgb(223,202,66)" stroke-width="1" opacity="0.996078431372549" d="M 122.5 53 L 126 54.5 L 124.5 55 L 122.5 55 L 121 54.5 L 122.5 53 Z "></path><path fill="rgb(223,202,66)" stroke="rgb(223,202,66)" stroke-width="1" opacity="0.996078431372549" d="M 39.5 56 L 40 57.5 L 38 58.5 L 39.5 56 Z "></path><path fill="rgb(223,202,66)" stroke="rgb(223,202,66)" stroke-width="1" opacity="0.996078431372549" d="M 36.5 61 L 38.5 61 L 40 61.5 L 37.5 63 L 36.5 61 Z "></path><path fill="rgb(223,202,66)" stroke="rgb(223,202,66)" stroke-width="1" opacity="0.996078431372549" d="M 41.5 66 L 42 68.5 L 39.5 70 L 39.5 69 Q 42.4 69.7 41.5 66 Z "></path><path fill="rgb(223,202,66)" stroke="rgb(223,202,66)" stroke-width="1" opacity="0.996078431372549" d="M 120.5 68 L 123 69.5 L 121.5 70 L 120.5 68 Z "></path><path fill="rgb(223,202,66)" stroke="rgb(223,202,66)" stroke-width="1" opacity="0.996078431372549" d="M 42.5 71 L 43 73 L 39 72.5 L 42.5 71 Z "></path><path fill="rgb(223,202,66)" stroke="rgb(223,202,66)" stroke-width="1" opacity="0.996078431372549" d="M 44.5 74 L 45 75.5 L 42.5 77 L 42.5 76 Q 45 76.7 44.5 74 Z "></path><path fill="rgb(223,202,66)" stroke="rgb(223,202,66)" stroke-width="1" opacity="0.996078431372549" d="M 116.5 74 L 118 74.5 L 115.5 76 L 116.5 74 Z "></path><path fill="rgb(223,202,66)" stroke="rgb(223,202,66)" stroke-width="1" opacity="0.996078431372549" d="M 113 77 L 115 77.5 L 113 78.5 L 113 77 Z "></path><path fill="rgb(223,202,66)" stroke="rgb(223,202,66)" stroke-width="1" opacity="0.996078431372549" d="M 78.5 79 L 86 79.5 L 78.5 80 L 78.5 79 Z "></path><path fill="rgb(223,202,66)" stroke="rgb(223,202,66)" stroke-width="1" opacity="0.996078431372549" d="M 110.5 83 L 111.5 85 L 110.5 83 Z "></path><path fill="rgb(223,202,66)" stroke="rgb(223,202,66)" stroke-width="1" opacity="0.996078431372549" d="M 106.5 85 Q 110.3 83.8 109 87.5 L 106.5 85 Z "></path><path fill="rgb(223,202,66)" stroke="rgb(223,202,66)" stroke-width="1" opacity="0.996078431372549" d="M 103 87 Q 106.7 85.5 106 88.5 L 106.5 90 L 103 89 L 101.5 93 L 100.5 91 L 98.5 94 L 98 92 Q 95.3 90.9 96 93.5 L 94.5 96 L 94 94.5 L 94.5 92 L 97.5 90 L 100 91 L 100 89 Q 104.1 90.3 103 87 Z "></path><path fill="rgb(223,202,66)" stroke="rgb(223,202,66)" stroke-width="1" opacity="0.996078431372549" d="M 117.5 89 L 116.5 91 L 115 90.5 L 117.5 89 Z "></path><path fill="rgb(223,202,66)" stroke="rgb(223,202,66)" stroke-width="1" opacity="0.996078431372549" d="M 71.5 93 L 71 94.5 L 69.5 97 L 70 95.5 L 71.5 93 Z "></path><path fill="rgb(223,202,66)" stroke="rgb(223,202,66)" stroke-width="1" opacity="0.996078431372549" d="M 86.5 93 L 88.5 94 L 91.5 93 L 93 96 L 90.5 97 L 89.5 94 L 88.5 96 L 86.5 93 Z "></path><path fill="rgb(223,202,66)" stroke="rgb(223,202,66)" stroke-width="1" opacity="0.996078431372549" d="M 80.5 94 L 80 95.5 L 79.5 97 L 79 95.5 L 80.5 94 Z "></path><path fill="rgb(223,202,66)" stroke="rgb(223,202,66)" stroke-width="1" opacity="0.996078431372549" d="M 107.5 96 L 109.5 96 L 111 96.5 L 108.5 98 L 107.5 96 Z "></path><path fill="rgb(223,202,66)" stroke="rgb(223,202,66)" stroke-width="1" opacity="0.996078431372549" d="M 71.5 97 L 74 97.5 L 71.5 98 L 71.5 97 Z "></path><path fill="rgb(223,202,66)" stroke="rgb(223,202,66)" stroke-width="1" opacity="0.996078431372549" d="M 81.5 97 L 84 98.5 L 82.5 98 L 79.5 99 L 79.5 98 L 81.5 97 Z "></path><path fill="rgb(223,202,66)" stroke="rgb(223,202,66)" stroke-width="1" opacity="0.996078431372549" d="M 65.5 99 L 68 100.5 L 65 101 L 65.5 99 Z "></path><path fill="rgb(223,202,66)" stroke="rgb(223,202,66)" stroke-width="1" opacity="0.996078431372549" d="M 84.5 101 Q 86.8 100.3 86 102.5 L 84.5 102 L 81 104.5 L 84.5 101 Z "></path><path fill="rgb(223,202,66)" stroke="rgb(223,202,66)" stroke-width="1" opacity="0.996078431372549" d="M 101.5 101 L 100.5 103 L 101.5 101 Z "></path><path fill="rgb(223,202,66)" stroke="rgb(223,202,66)" stroke-width="1" opacity="0.996078431372549" d="M 78.5 103 L 79.5 105 L 78.5 103 Z "></path><path fill="rgb(223,202,66)" stroke="rgb(223,202,66)" stroke-width="1" opacity="0.996078431372549" d="M 69.5 104 L 70.5 106 L 69.5 104 Z "></path><path fill="rgb(251,218,96)" stroke="rgb(251,218,96)" stroke-width="1" opacity="0.23529411764705882" d="M 112.5 15 L 119 15 L 119 18.5 L 118 18.5 L 118 16 L 112.5 16 L 112.5 15 Z "></path><path fill="rgb(251,218,96)" stroke="rgb(251,218,96)" stroke-width="1" opacity="0.23529411764705882" d="M 122.5 23 L 125 23.5 L 122.5 24 L 122.5 23 Z "></path><path fill="rgb(251,218,96)" stroke="rgb(251,218,96)" stroke-width="1" opacity="0.23529411764705882" d="M 124.5 26 L 125 30.5 L 124 30.5 L 124.5 26 Z "></path><path fill="rgb(251,218,96)" stroke="rgb(251,218,96)" stroke-width="1" opacity="0.23529411764705882" d="M 129.5 40 L 130.5 42 L 129.5 40 Z "></path><path fill="rgb(251,218,96)" stroke="rgb(251,218,96)" stroke-width="1" opacity="0.23529411764705882" d="M 131.5 46 L 130.5 48 L 131.5 46 Z "></path><path fill="rgb(251,218,96)" stroke="rgb(251,218,96)" stroke-width="1" opacity="0.23529411764705882" d="M 131.5 50 L 135 53.5 L 130.5 58 L 134 53.5 L 131.5 50 Z "></path><path fill="rgb(251,218,96)" stroke="rgb(251,218,96)" stroke-width="1" opacity="0.23529411764705882" d="M 131.5 61 L 132.5 63 L 131.5 61 Z "></path><path fill="rgb(251,218,96)" stroke="rgb(251,218,96)" stroke-width="1" opacity="0.23529411764705882" d="M 132.5 64 L 131.5 66 L 132.5 64 Z "></path><path fill="rgb(251,218,96)" stroke="rgb(251,218,96)" stroke-width="1" opacity="0.23529411764705882" d="M 128.5 67 L 127.5 69 L 128.5 67 Z "></path><path fill="rgb(251,218,96)" stroke="rgb(251,218,96)" stroke-width="1" opacity="0.23529411764705882" d="M 128.5 70 L 130 72.5 L 129 72.5 L 128.5 70 Z "></path><path fill="rgb(251,218,96)" stroke="rgb(251,218,96)" stroke-width="1" opacity="0.23529411764705882" d="M 124.5 78 L 125 80.5 L 124 80.5 L 124.5 78 Z "></path><path fill="rgb(251,218,96)" stroke="rgb(251,218,96)" stroke-width="1" opacity="0.23529411764705882" d="M 120.5 84 L 123 84.5 L 120.5 85 L 120.5 84 Z "></path><path fill="rgb(251,218,96)" stroke="rgb(251,218,96)" stroke-width="1" opacity="0.23529411764705882" d="M 118.5 85 L 119 92 L 114 91.5 L 118 91 L 118.5 85 Z "></path><path fill="rgb(251,218,96)" stroke="rgb(251,218,96)" stroke-width="1" opacity="0.23529411764705882" d="M 42.5 90 Q 43.8 92.2 48.5 91 L 50 92.5 L 49.5 94 L 49 92 L 42 92 L 42.5 90 Z "></path><path fill="rgb(251,218,96)" stroke="rgb(251,218,96)" stroke-width="1" opacity="0.23529411764705882" d="M 128.5 139 L 131 139.5 L 128.5 140 L 128.5 139 Z "></path><path fill="rgb(245,226,101)" stroke="rgb(245,226,101)" stroke-width="1" opacity="0.996078431372549" d="M 80.5 2 L 86.5 6 L 90.5 3 L 91 5.5 L 86.5 9 L 83.5 8 L 77.5 8 Q 73.3 6.7 75 11.5 L 78 13 L 77 10.5 L 79 10 L 80.5 13 L 82.5 12 L 86 13.5 L 73.5 32 L 72.5 31 L 64.5 31 L 57 35.5 L 52 44.5 L 50 51.5 L 49 62.5 L 48 63.5 L 48 74.5 Q 45.3 75.6 46 79 L 43 79.5 L 47 80 Q 46 77 49 78 L 49 81 Q 52 79.8 51 83.5 L 48.5 85 L 47.5 83 Q 49.8 83.8 49 81.5 L 47.5 82 L 40.5 83 L 38 82 L 38 75.5 L 36.5 75 L 33 74 L 35 67.5 L 30 63.5 L 33 57.5 L 29 53.5 L 32 50.5 L 33 47.5 L 30 43.5 L 35 39.5 L 33 33 L 39 31 L 38 24 L 44 23 L 44 17 L 49.5 17 L 52.5 11 Q 59.5 12.5 59 9.5 L 61.5 6 L 66.5 8 L 70.5 3 L 76.5 6 L 80.5 2 Z M 73 8 L 71 12 L 75 13 L 74 12 Q 75 7 73 8 Z M 68 9 L 68 11 L 66 10 L 64 14 L 68 15 L 67 12 L 71 14 L 70 12 Q 71 8 68 9 Z M 61 12 Q 59 18 64 16 L 63 14 Q 64 11 61 12 Z M 59 13 L 57 17 L 61 18 Q 62 15 59 16 L 59 13 Z M 54 16 L 54 19 L 58 20 L 56 16 L 54 16 Z M 51 18 L 51 21 L 55 22 L 53 18 L 51 18 Z M 48 21 L 48 23 L 52 25 L 53 23 L 50 23 Q 51 20 48 21 Z M 47 23 L 46 27 L 49 28 L 50 27 L 47 23 Z M 46 28 Q 43 30 46 31 L 48 30 L 46 28 Z M 42 32 L 42 34 L 46 33 L 42 32 Z M 43 35 L 42 37 L 44 36 L 43 35 Z M 42 38 L 40 39 L 40 40 L 43 39 L 42 38 Z M 40 45 L 38 48 L 41 46 L 40 45 Z M 37 50 L 37 51 L 39 51 L 37 50 Z M 39 53 L 36 55 L 39 55 L 39 53 Z M 40 56 L 37 58 L 37 59 L 40 58 L 40 56 Z M 40 60 L 38 63 L 40 62 L 40 60 Z M 38 65 L 38 66 L 40 66 L 38 65 Z M 42 66 L 41 69 L 42 69 L 42 66 Z M 43 71 L 39 73 L 43 73 L 43 71 Z "></path><path fill="rgb(245,226,101)" stroke="rgb(245,226,101)" stroke-width="1" opacity="0.996078431372549" d="M 115.5 16 L 118 16.5 L 115.5 17 L 115.5 16 Z "></path><path fill="rgb(245,226,101)" stroke="rgb(245,226,101)" stroke-width="1" opacity="0.996078431372549" d="M 118.5 19 L 119 23 L 122 23.5 L 118 24 L 118.5 19 Z "></path><path fill="rgb(245,226,101)" stroke="rgb(245,226,101)" stroke-width="1" opacity="0.996078431372549" d="M 123.5 29 L 124 31 L 130 33.5 L 128.5 34 L 123 32 L 123.5 29 Z "></path><path fill="rgb(245,226,101)" stroke="rgb(245,226,101)" stroke-width="1" opacity="0.996078431372549" d="M 96.5 34 L 97 36.5 L 96 36.5 L 96.5 34 Z "></path><path fill="rgb(245,226,101)" stroke="rgb(245,226,101)" stroke-width="1" opacity="0.996078431372549" d="M 113.5 34 L 112.5 36 L 113.5 34 Z "></path><path fill="rgb(245,226,101)" stroke="rgb(245,226,101)" stroke-width="1" opacity="0.996078431372549" d="M 111.5 37 L 111 38.5 L 109.5 41 L 110 39.5 L 111.5 37 Z "></path><path fill="rgb(245,226,101)" stroke="rgb(245,226,101)" stroke-width="1" opacity="0.996078431372549" d="M 127.5 38 L 130.5 42 L 133 43.5 L 130 49.5 Q 138 53.5 130 57.5 L 133 63.5 L 127 68.5 L 130 73.5 L 124 77.5 L 123.5 80 L 123 76 L 129 73.5 L 126 68.5 L 131 65 L 131 62.5 L 128 58.5 L 133 53.5 L 129 49.5 L 131 43.5 L 127 41 L 127.5 38 Z "></path><path fill="rgb(245,226,101)" stroke="rgb(245,226,101)" stroke-width="1" opacity="0.996078431372549" d="M 67.5 40 L 68 46.5 L 67 46.5 L 66.5 45 L 63.5 51 L 63 47.5 L 65 41 L 67.5 40 Z "></path><path fill="rgb(245,226,101)" stroke="rgb(245,226,101)" stroke-width="1" opacity="0.996078431372549" d="M 108.5 42 L 107.5 44 L 108.5 42 Z "></path><path fill="rgb(245,226,101)" stroke="rgb(245,226,101)" stroke-width="1" opacity="0.996078431372549" d="M 106.5 45 L 105.5 47 L 106.5 45 Z "></path><path fill="rgb(245,226,101)" stroke="rgb(245,226,101)" stroke-width="1" opacity="0.996078431372549" d="M 79.5 46 L 80 48.5 L 79 48.5 L 79.5 46 Z "></path><path fill="rgb(245,226,101)" stroke="rgb(245,226,101)" stroke-width="1" opacity="0.996078431372549" d="M 104.5 48 L 104 49.5 L 101.5 54 L 101 52.5 L 104.5 48 Z "></path><path fill="rgb(245,226,101)" stroke="rgb(245,226,101)" stroke-width="1" opacity="0.996078431372549" d="M 62.5 53 L 63 55.5 L 61.5 60 L 61 56.5 L 62.5 53 Z "></path><path fill="rgb(245,226,101)" stroke="rgb(245,226,101)" stroke-width="1" opacity="0.996078431372549" d="M 78.5 54 L 79 56.5 L 78 56.5 L 78.5 54 Z "></path><path fill="rgb(245,226,101)" stroke="rgb(245,226,101)" stroke-width="1" opacity="0.996078431372549" d="M 60.5 62 L 61 65.5 L 60 65.5 L 60.5 62 Z "></path><path fill="rgb(245,226,101)" stroke="rgb(245,226,101)" stroke-width="1" opacity="0.996078431372549" d="M 76.5 62 L 77 64.5 L 76 64.5 L 76.5 62 Z "></path><path fill="rgb(245,226,101)" stroke="rgb(245,226,101)" stroke-width="1" opacity="0.996078431372549" d="M 90.5 64 L 91 66.5 L 90 66.5 L 90.5 64 Z "></path><path fill="rgb(245,226,101)" stroke="rgb(245,226,101)" stroke-width="1" opacity="0.996078431372549" d="M 89.5 68 L 90 70.5 L 89 70.5 L 89.5 68 Z "></path><path fill="rgb(245,226,101)" stroke="rgb(245,226,101)" stroke-width="1" opacity="0.996078431372549" d="M 74.5 69 L 75 70.5 L 69.5 78 L 66.5 79 L 66.5 78 L 71 75.5 L 74.5 69 Z "></path><path fill="rgb(245,226,101)" stroke="rgb(245,226,101)" stroke-width="1" opacity="0.996078431372549" d="M 88.5 74 L 89 76.5 L 88 76.5 L 88.5 74 Z "></path><path fill="rgb(245,226,101)" stroke="rgb(245,226,101)" stroke-width="1" opacity="0.996078431372549" d="M 57.5 79 L 65 79.5 L 57.5 80 L 57.5 79 Z "></path><path fill="rgb(245,226,101)" stroke="rgb(245,226,101)" stroke-width="1" opacity="0.996078431372549" d="M 124.5 81 L 125 82.5 L 118 85 L 117.5 89 L 117 85.5 Q 119 82.2 124 83 L 124.5 81 Z "></path><path fill="rgb(245,226,101)" stroke="rgb(245,226,101)" stroke-width="1" opacity="0.996078431372549" d="M 52.5 83 L 54 87 L 51.5 88 L 50.5 86 Q 53.4 86.7 52.5 83 Z "></path><path fill="rgb(245,226,101)" stroke="rgb(245,226,101)" stroke-width="1" opacity="0.996078431372549" d="M 55.5 86 L 57 88.5 L 54.5 90 L 53.5 88 Q 56 88.7 55.5 86 Z "></path><path fill="rgb(245,226,101)" stroke="rgb(245,226,101)" stroke-width="1" opacity="0.996078431372549" d="M 58.5 88 L 60 90.5 L 57 92 L 58.5 88 Z "></path><path fill="rgb(245,226,101)" stroke="rgb(245,226,101)" stroke-width="1" opacity="0.996078431372549" d="M 61.5 89 L 63 92.5 L 60 94 Q 58.9 91.3 61.5 92 L 61 90.5 L 61.5 89 Z "></path><path fill="rgb(245,226,101)" stroke="rgb(245,226,101)" stroke-width="1" opacity="0.996078431372549" d="M 65.5 91 L 67 95 L 69 94.5 L 68 92.5 L 70 93.5 L 68.5 97 L 64 94.5 L 65.5 91 Z "></path><path fill="rgb(245,226,101)" stroke="rgb(245,226,101)" stroke-width="1" opacity="0.996078431372549" d="M 111.5 91 L 114 91.5 L 111 92 L 110.5 96 L 110 92.5 L 111.5 91 Z "></path><path fill="rgb(245,226,101)" stroke="rgb(245,226,101)" stroke-width="1" opacity="0.996078431372549" d="M 93.5 92 L 96 95.5 L 95 95.5 L 93.5 92 Z "></path><path fill="rgb(245,226,101)" stroke="rgb(245,226,101)" stroke-width="1" opacity="0.996078431372549" d="M 99.5 92 L 100 93.5 L 98 94.5 L 99.5 92 Z "></path><path fill="rgb(245,226,101)" stroke="rgb(245,226,101)" stroke-width="1" opacity="0.996078431372549" d="M 72.5 93 L 74 97 L 71 96.5 L 72.5 93 Z "></path><path fill="rgb(245,226,101)" stroke="rgb(245,226,101)" stroke-width="1" opacity="0.996078431372549" d="M 75.5 94 Q 77.8 93.3 77 95.5 Q 79.3 96.8 76.5 98 L 75 97.5 L 76 95.5 L 75.5 94 Z "></path><path fill="rgb(245,226,101)" stroke="rgb(245,226,101)" stroke-width="1" opacity="0.996078431372549" d="M 79.5 94 Q 84 96 80.5 98 L 79 97.5 L 80 95.5 L 79.5 94 Z "></path><path fill="rgb(245,226,101)" stroke="rgb(245,226,101)" stroke-width="1" opacity="0.996078431372549" d="M 83.5 94 L 85 98 Q 81.2 99.2 83.5 94 Z "></path><path fill="rgb(245,226,101)" stroke="rgb(245,226,101)" stroke-width="1" opacity="0.996078431372549" d="M 86.5 94 Q 91 96 87.5 98 L 86.5 94 Z "></path><path fill="rgb(245,226,101)" stroke="rgb(245,226,101)" stroke-width="1" opacity="0.996078431372549" d="M 103.5 96 L 107 96.5 L 103 97 L 100.5 102 L 98 101.5 L 101 101 L 103.5 96 Z "></path><path fill="rgb(245,226,101)" stroke="rgb(245,226,101)" stroke-width="1" opacity="0.996078431372549" d="M 58.5 97 L 60 99.5 L 58 98.5 L 58.5 97 Z "></path><path fill="rgb(245,226,101)" stroke="rgb(245,226,101)" stroke-width="1" opacity="0.996078431372549" d="M 93 100 L 97 100.5 L 92.5 103 L 93 101.5 L 93 100 Z "></path><path fill="rgb(245,226,101)" stroke="rgb(245,226,101)" stroke-width="1" opacity="0.996078431372549" d="M 60.5 101 L 63 101.5 L 60.5 102 L 60.5 101 Z "></path><path fill="rgb(245,226,101)" stroke="rgb(245,226,101)" stroke-width="1" opacity="0.996078431372549" d="M 67.5 101 L 71.5 104 L 73 103.5 L 70.5 105 L 67.5 101 Z "></path><path fill="rgb(245,226,101)" stroke="rgb(245,226,101)" stroke-width="1" opacity="0.996078431372549" d="M 75.5 101 L 79.5 105 L 81.5 105 L 85 102.5 Q 84.5 106.5 79.5 106 Q 76.8 100.6 74 102.5 L 75.5 101 Z "></path><path fill="rgb(245,226,101)" stroke="rgb(245,226,101)" stroke-width="1" opacity="0.996078431372549" d="M 86.5 102 L 92 104.5 L 89.5 105 L 86.5 102 Z "></path><path fill="rgb(181,142,35)" stroke="rgb(181,142,35)" stroke-width="1" opacity="1" d="M 66.5 31 L 69.5 32 Q 70.7 29.8 72 32.5 L 67.5 33 L 66.5 31 Z "></path><path fill="rgb(181,142,35)" stroke="rgb(181,142,35)" stroke-width="1" opacity="1" d="M 62.5 32 L 63.5 34 L 62.5 32 Z "></path><path fill="rgb(181,142,35)" stroke="rgb(181,142,35)" stroke-width="1" opacity="1" d="M 60.5 33 L 61.5 35 L 60.5 33 Z "></path><path fill="rgb(181,142,35)" stroke="rgb(181,142,35)" stroke-width="1" opacity="1" d="M 84.5 37 L 86 39.5 L 85 39.5 L 84.5 37 Z "></path><path fill="rgb(181,142,35)" stroke="rgb(181,142,35)" stroke-width="1" opacity="1" d="M 57.5 38 L 56.5 40 L 57.5 38 Z "></path><path fill="rgb(181,142,35)" stroke="rgb(181,142,35)" stroke-width="1" opacity="1" d="M 54.5 40 L 55.5 42 L 54.5 40 Z "></path><path fill="rgb(181,142,35)" stroke="rgb(181,142,35)" stroke-width="1" opacity="1" d="M 83.5 42 Q 85.8 41.3 85 43.5 L 83.5 42 Z "></path><path fill="rgb(181,142,35)" stroke="rgb(181,142,35)" stroke-width="1" opacity="1" d="M 68.5 45 Q 71.1 44.2 70 47.5 L 69 47.5 L 68.5 45 Z "></path><path fill="rgb(181,142,35)" stroke="rgb(181,142,35)" stroke-width="1" opacity="1" d="M 82.5 47 L 83.5 49 Q 80.7 49.7 82.5 47 Z "></path><path fill="rgb(181,142,35)" stroke="rgb(181,142,35)" stroke-width="1" opacity="1" d="M 67.5 50 L 68.5 52 Q 65.7 52.7 67.5 50 Z "></path><path fill="rgb(181,142,35)" stroke="rgb(181,142,35)" stroke-width="1" opacity="1" d="M 81.5 52 Q 83.8 51.3 83 53.5 L 81.5 52 Z "></path><path fill="rgb(181,142,35)" stroke="rgb(181,142,35)" stroke-width="1" opacity="1" d="M 66.5 55 L 67.5 57 L 66.5 55 Z "></path><path fill="rgb(181,142,35)" stroke="rgb(181,142,35)" stroke-width="1" opacity="1" d="M 49.5 58 L 51 60.5 L 49 59.5 L 49.5 58 Z "></path><path fill="rgb(181,142,35)" stroke="rgb(181,142,35)" stroke-width="1" opacity="1" d="M 79.5 62 Q 81.8 61.3 81 63.5 L 79.5 62 Z "></path><path fill="rgb(181,142,35)" stroke="rgb(181,142,35)" stroke-width="1" opacity="1" d="M 64.5 64 L 65.5 66 L 64.5 64 Z "></path><path fill="rgb(181,142,35)" stroke="rgb(181,142,35)" stroke-width="1" opacity="1" d="M 91.5 65 L 93 68.5 L 92 68.5 L 91.5 65 Z "></path><path fill="rgb(181,142,35)" stroke="rgb(181,142,35)" stroke-width="1" opacity="1" d="M 49.5 66 L 50 74.5 L 51 75.5 L 49 74.5 L 48 67.5 L 49.5 66 Z "></path><path fill="rgb(181,142,35)" stroke="rgb(181,142,35)" stroke-width="1" opacity="1" d="M 77.5 71 L 78.5 73 Q 75.7 73.7 77.5 71 Z "></path><path fill="rgb(181,142,35)" stroke="rgb(181,142,35)" stroke-width="1" opacity="1" d="M 92.5 71 L 93.5 73 Q 90.7 73.7 92.5 71 Z "></path><path fill="rgb(181,142,35)" stroke="rgb(181,142,35)" stroke-width="1" opacity="1" d="M 77.5 76 L 78 78 L 76 77.5 L 77.5 76 Z "></path><path fill="rgb(238,205,39)" stroke="rgb(238,205,39)" stroke-width="1" opacity="0.984313725490196" d="M 80.5 1 L 86.5 5 L 91.5 2 L 95.5 7 L 102 5 L 104.5 11 L 109.5 9 L 112 16 L 115 16.5 L 111 17 L 110 11 L 103 12 L 101 6 L 94 8 L 90.5 3 L 85.5 6 L 80.5 2 L 75.5 6 L 70.5 3 L 66.5 8 L 61.5 6 L 59 11 L 52.5 11 L 51.5 12 L 51 9.5 L 52.5 10 Q 57.8 11.3 59 8.5 L 60.5 5 L 66.5 7 L 70.5 2 L 76.5 5 L 80.5 1 Z "></path><path fill="rgb(238,205,39)" stroke="rgb(238,205,39)" stroke-width="1" opacity="0.984313725490196" d="M 50.5 13 L 51 15.5 Q 49.4 18.5 44 17 L 43.5 23 L 43 16 L 50 16 L 50.5 13 Z "></path><path fill="rgb(238,205,39)" stroke="rgb(238,205,39)" stroke-width="1" opacity="0.984313725490196" d="M 39.5 23 L 42 23.5 L 39.5 24 L 39.5 23 Z "></path><path fill="rgb(238,205,39)" stroke="rgb(238,205,39)" stroke-width="1" opacity="0.984313725490196" d="M 37.5 24 L 39 31 L 33 33 L 35 39.5 L 30 43.5 L 33 48.5 L 29 53.5 L 33 58.5 L 30 63.5 L 35 67.5 L 33 74 L 38 75 L 38 83 L 42.5 83 Q 45.5 84.6 44 90 L 49 90.5 L 43 91 Q 44.5 85.6 41.5 84 L 36 82.5 L 37 76 L 32 73.5 L 34 67.5 L 29 65 L 32 57 L 28 54.5 L 32 48.5 L 29 43.5 L 34 38.5 L 33 37.5 L 32 33.5 L 38 29.5 Q 35.6 28.1 37.5 24 Z "></path><path fill="rgb(238,205,39)" stroke="rgb(238,205,39)" stroke-width="1" opacity="0.984313725490196" d="M 104.5 47 L 103.5 49 L 102 49.5 Q 104.5 51 101 52.5 L 103 65.5 L 105 69.5 L 104 71.5 Q 107 73.8 106 79 L 95.5 79 L 95 76.5 L 91.5 61 Q 88.3 67.8 88 77.5 L 86.5 79 L 77 78.5 L 80 69.5 L 80 65.5 L 81.5 64 L 104.5 47 Z "></path><path fill="rgb(238,205,39)" stroke="rgb(238,205,39)" stroke-width="1" opacity="0.984313725490196" d="M 72.5 72 L 71.5 74 L 70 74.5 Q 72.3 75.8 69.5 77 L 63.5 79 L 63.5 78 L 66 78 Q 64.9 75.3 67.5 76 L 72.5 72 Z "></path><path fill="rgb(184,160,2)" stroke="rgb(184,160,2)" stroke-width="1" opacity="1" d="M 115.5 27 L 117 27.5 L 115 28 L 114.5 30 L 114 28.5 L 115.5 27 Z "></path><path fill="rgb(184,160,2)" stroke="rgb(184,160,2)" stroke-width="1" opacity="1" d="M 117.5 30 L 117 31.5 L 116.5 33 L 116 31.5 L 117.5 30 Z "></path><path fill="rgb(184,160,2)" stroke="rgb(184,160,2)" stroke-width="1" opacity="1" d="M 120.5 37 L 122 37.5 L 119.5 39 L 120.5 37 Z "></path><path fill="rgb(184,160,2)" stroke="rgb(184,160,2)" stroke-width="1" opacity="1" d="M 128.5 42 L 131 43.5 L 128 49.5 L 132 53.5 L 130 55.5 L 128 59.5 L 131 63.5 L 126 67.5 L 128 74 L 122 76.5 L 123 81.5 L 117 84 L 117 90 L 110 90 L 110 93.5 L 109 96 L 103.5 95 L 99.5 101 L 95 98.5 L 97.5 95 Q 101.7 96.3 100 91.5 L 101 91.5 Q 100.3 93.8 102.5 93 Q 103.6 90.3 107 91 Q 105.9 87.7 110 89 L 110 86.5 L 113 85.5 Q 112.3 82.9 115 84 L 115 80.5 L 114.5 79 Q 116.3 82.8 118 79.5 L 116 76.5 L 118.5 78 L 120 76.5 L 119 73.5 L 121 73.5 L 120 69.5 L 123 70.5 L 124 64.5 L 122.5 62 L 125 63 Q 125.8 59.6 123 58.5 L 124.5 59 Q 126.8 59.8 126 57.5 L 124.5 55 Q 126.8 55.8 126 53.5 L 125 51.5 L 126 48.5 L 125 46.5 L 126 46.5 L 126.5 48 L 129 43.5 L 128.5 42 Z "></path><path fill="rgb(184,160,2)" stroke="rgb(184,160,2)" stroke-width="1" opacity="1" d="M 119.5 59 L 120 62.5 L 118 69.5 L 116 71.5 L 116.5 73 L 115 73 L 115 76 L 113 76 Q 114.5 79.7 111.5 79 L 110.5 82 Q 109.3 79.8 108 82.5 L 108 84 Q 104.3 82.5 105 85.5 L 106.5 88 L 103 85.5 L 119.5 59 Z "></path><path fill="rgb(0,0,0)" stroke="rgb(0,0,0)" stroke-width="1" opacity="0" d="M 0 0 L 80 0.5 L 75.5 4 L 70.5 1 L 66.5 6 L 60.5 4 L 58 10 L 50 9 L 50 15 L 42 15 L 42 21.5 L 40.5 22 L 36 23 L 37 29.5 L 31 33.5 L 33 38.5 L 28 42 L 28 44.5 L 31 49 Q 28.3 47.9 29 50.5 L 27 55.5 L 30 56.5 L 29.5 58 L 31 58.5 L 28 62.5 L 28 65 L 33 67 L 31 75 L 37 77 L 36 84 L 42 85 L 42 92 L 48.5 92 L 49 93.5 L 50 95.5 L 41 121.5 L 41 124.5 L 32 147.5 L 32 150.5 L 35.5 152 L 54.5 144 L 57.5 144 L 69 159.5 L 0 160 L 0 0 Z "></path><path fill="rgb(0,0,0)" stroke="rgb(0,0,0)" stroke-width="1" opacity="0" d="M 82.5 0 L 160 0 L 160 160 L 73.5 160 L 73 158.5 L 75 155.5 L 82.5 130 L 91 150 L 93.5 151 L 98 146.5 L 106.5 133 L 117.5 137 L 131.5 140 Q 134 139 133 134.5 L 113 92.5 L 119 92 L 119 85 L 122.5 85 L 125 84 L 124 77.5 L 130 75 Q 130.8 70.5 128 68.5 L 133 64.5 L 130 58.5 L 135 53.5 L 131.5 50 Q 129.3 50.8 130 48.5 Q 133.6 46.6 133 42 L 128 40 L 130 32 L 125 31 L 125 23 L 120.5 23 Q 117.3 21.1 119 15 L 112 15 L 112 11.5 L 111 9 L 104.5 10 L 102 4 L 95.5 6 L 91.5 1 L 85.5 4 L 82.5 0 Z "></path><path fill="rgb(210,182,36)" stroke="rgb(210,182,36)" stroke-width="1" opacity="1" d="M 76.5 8 L 78 11.5 L 77.5 13 L 75 9.5 L 76.5 8 Z "></path><path fill="rgb(210,182,36)" stroke="rgb(210,182,36)" stroke-width="1" opacity="1" d="M 79 8 L 82 8.5 L 81 12 Q 77.3 13.2 79 8 Z "></path><path fill="rgb(210,182,36)" stroke="rgb(210,182,36)" stroke-width="1" opacity="1" d="M 83.5 8 L 85 12.5 L 83 11.5 L 83.5 8 Z "></path><path fill="rgb(210,182,36)" stroke="rgb(210,182,36)" stroke-width="1" opacity="1" d="M 72.5 9 L 74 9 L 74 13 L 71 11.5 L 72.5 9 Z "></path><path fill="rgb(210,182,36)" stroke="rgb(210,182,36)" stroke-width="1" opacity="1" d="M 91.5 9 L 93 9.5 L 91 10.5 L 91.5 12 Q 88.5 10.5 91.5 9 Z "></path><path fill="rgb(210,182,36)" stroke="rgb(210,182,36)" stroke-width="1" opacity="1" d="M 68.5 10 L 71 13.5 L 69.5 14 Q 67 13 68.5 10 Z "></path><path fill="rgb(210,182,36)" stroke="rgb(210,182,36)" stroke-width="1" opacity="1" d="M 86 10 L 89 10.5 L 87 11.5 L 89 12.5 L 87.5 13 L 86 10 Z "></path><path fill="rgb(210,182,36)" stroke="rgb(210,182,36)" stroke-width="1" opacity="1" d="M 65.5 11 L 67 13.5 L 65 14.5 L 65.5 11 Z "></path><path fill="rgb(210,182,36)" stroke="rgb(210,182,36)" stroke-width="1" opacity="1" d="M 96.5 11 L 95.5 13 L 96.5 11 Z "></path><path fill="rgb(210,182,36)" stroke="rgb(210,182,36)" stroke-width="1" opacity="1" d="M 93.5 12 L 94 14 L 96 14.5 L 94.5 15 L 93.5 12 Z "></path><path fill="rgb(210,182,36)" stroke="rgb(210,182,36)" stroke-width="1" opacity="1" d="M 98.5 14 L 98.5 17 Q 95.5 15.5 98.5 14 Z "></path><path fill="rgb(210,182,36)" stroke="rgb(210,182,36)" stroke-width="1" opacity="1" d="M 103.5 14 L 104 16 L 102 15.5 L 103.5 14 Z "></path><path fill="rgb(210,182,36)" stroke="rgb(210,182,36)" stroke-width="1" opacity="1" d="M 105.5 17 L 108 18.5 L 106.5 18 L 105.5 17 Z "></path><path fill="rgb(210,182,36)" stroke="rgb(210,182,36)" stroke-width="1" opacity="1" d="M 109 17 L 117 17 L 117 22.5 L 124 25 L 122 29.5 L 123 31.5 L 120.5 32 L 119 31.5 L 119.5 30 Q 115.8 30.8 115 28.5 L 118 27.5 L 114 27 Q 113.3 30.4 116 31.5 L 115.5 33 L 118 33.5 L 117 37 L 120.5 35 L 117.5 39 Q 114.9 38.2 116 41.5 L 103.5 60 Q 101.3 58.3 102 53.5 L 111 38.5 L 109 39.5 L 103.5 48 L 102 48.5 L 102.5 50 Q 101 47.5 99.5 51 L 80.5 65 L 81 63.5 L 84 46.5 L 88.5 42 L 93.5 39 L 95 41.5 L 94 45.5 L 96 46.5 L 104.5 33 L 113 32.5 L 101 32 Q 102.5 35.8 99.5 35 Q 101.1 36.8 98 38.5 L 97.5 40 L 97 35 Q 99.7 36.1 99 33.5 L 107 22.5 Q 104.8 21.3 107.5 20 L 109.5 24 L 111.5 21 L 110 20.5 L 110.5 19 Q 107.9 19.7 109 17 Z M 113 24 L 110 26 L 114 27 L 113 26 L 115 25 L 113 24 Z M 112 34 L 111 37 L 112 38 L 114 35 L 112 34 Z "></path><path fill="rgb(210,182,36)" stroke="rgb(210,182,36)" stroke-width="1" opacity="1" d="M 51.5 23 L 50.5 25 L 51.5 23 Z "></path><path fill="rgb(210,182,36)" stroke="rgb(210,182,36)" stroke-width="1" opacity="1" d="M 43.5 35 L 42.5 37 L 43.5 35 Z "></path><path fill="rgb(210,182,36)" stroke="rgb(210,182,36)" stroke-width="1" opacity="1" d="M 120.5 38 L 121.5 40 L 120.5 38 Z "></path><path fill="rgb(210,182,36)" stroke="rgb(210,182,36)" stroke-width="1" opacity="1" d="M 122.5 42 Q 124.8 41.3 124 43.5 L 120 44.5 Q 119.3 42.3 121.5 43 L 122.5 42 Z "></path><path fill="rgb(210,182,36)" stroke="rgb(210,182,36)" stroke-width="1" opacity="1" d="M 122.5 45 L 121.5 47 L 122.5 45 Z "></path><path fill="rgb(210,182,36)" stroke="rgb(210,182,36)" stroke-width="1" opacity="1" d="M 78.5 49 L 79 52 L 77 52.5 L 78 56.5 L 75 67.5 L 71.5 73 L 70 73.5 L 70.5 75 Q 69 72.5 67.5 76 Q 64.9 75.3 66 78 L 63.5 78 L 62.5 79 L 54.5 79 L 51 76.5 L 50 72 L 58.5 66 L 59 71 L 64 71 L 64 69.5 L 68.5 58 L 78 50.5 L 78.5 49 Z "></path><path fill="rgb(210,182,36)" stroke="rgb(210,182,36)" stroke-width="1" opacity="1" d="M 122.5 49 L 124 49.5 L 122 50 L 121.5 52 L 121 50.5 L 122.5 49 Z "></path><path fill="rgb(210,182,36)" stroke="rgb(210,182,36)" stroke-width="1" opacity="1" d="M 60.5 58 L 61 60.5 L 60 60.5 L 60.5 58 Z "></path><path fill="rgb(210,182,36)" stroke="rgb(210,182,36)" stroke-width="1" opacity="1" d="M 121.5 60 L 125 61 Q 126.1 63.7 123.5 63 Q 121.8 59.9 120 61.5 L 121.5 60 Z "></path><path fill="rgb(210,182,36)" stroke="rgb(210,182,36)" stroke-width="1" opacity="1" d="M 40.5 64 L 39.5 66 L 40.5 64 Z "></path><path fill="rgb(210,182,36)" stroke="rgb(210,182,36)" stroke-width="1" opacity="1" d="M 78.5 64 L 79 66.5 L 78 66.5 L 78.5 64 Z "></path><path fill="rgb(210,182,36)" stroke="rgb(210,182,36)" stroke-width="1" opacity="1" d="M 123.5 64 L 123.5 67 Q 120.5 65.5 123.5 64 Z "></path><path fill="rgb(210,182,36)" stroke="rgb(210,182,36)" stroke-width="1" opacity="1" d="M 119.5 65 L 122.5 69 L 119.5 68 L 118 68.5 Q 121.1 66.8 119.5 65 Z "></path><path fill="rgb(210,182,36)" stroke="rgb(210,182,36)" stroke-width="1" opacity="1" d="M 104.5 66 L 105 68.5 L 104 68.5 L 104.5 66 Z "></path><path fill="rgb(210,182,36)" stroke="rgb(210,182,36)" stroke-width="1" opacity="1" d="M 91.5 67 L 93 77.5 L 84 91.5 L 84 94 L 82 94.5 L 82.5 96 Q 79.9 96.7 81 94 L 79 94 L 79 101.5 L 77.5 103 Q 76 99.5 74.5 102 L 70.5 104 L 66.5 99 L 61.5 101 L 60 97.5 L 62.5 94 L 65.5 96 L 67 92.5 L 65 89.5 L 76 71.5 L 75.5 70 L 77 70.5 L 77.5 69 L 78 70.5 L 76 77.5 Q 77.8 81.8 85.5 80 L 89 77.5 L 89 73.5 L 91.5 67 Z M 68 92 L 67 97 L 71 96 L 70 94 Q 71 91 68 92 Z M 72 93 L 72 95 L 71 98 Q 76 100 74 95 L 72 93 Z M 76 93 L 75 95 L 75 97 L 76 99 L 78 98 Q 79 94 76 93 Z "></path><path fill="rgb(210,182,36)" stroke="rgb(210,182,36)" stroke-width="1" opacity="1" d="M 117.5 70 L 121 71.5 Q 121.7 74.1 119 73 Q 120.1 70.3 117.5 71 L 117.5 70 Z "></path><path fill="rgb(210,182,36)" stroke="rgb(210,182,36)" stroke-width="1" opacity="1" d="M 117.5 72 L 119 76 L 117 75.5 L 117.5 74 L 115.5 75 L 117.5 72 Z "></path><path fill="rgb(210,182,36)" stroke="rgb(210,182,36)" stroke-width="1" opacity="1" d="M 94.5 76 L 95 79 L 105.5 79 L 106.5 78 L 105.5 80 L 95.5 80 L 94 78.5 L 94.5 76 Z "></path><path fill="rgb(210,182,36)" stroke="rgb(210,182,36)" stroke-width="1" opacity="1" d="M 114.5 76 L 118 78.5 L 114 79.5 Q 116.3 80.8 113.5 82 Q 111.3 81.3 112 83.5 L 112.5 85 L 110 84.5 L 110.5 83 L 108 82.5 L 113 80.5 L 111 79.5 L 115 77.5 L 114.5 76 Z "></path><path fill="rgb(210,182,36)" stroke="rgb(210,182,36)" stroke-width="1" opacity="1" d="M 123.5 81 L 122.5 83 L 123.5 81 Z "></path><path fill="rgb(210,182,36)" stroke="rgb(210,182,36)" stroke-width="1" opacity="1" d="M 106.5 84 L 108 84.5 L 106 85.5 Q 109.8 87.3 106.5 89 L 105.5 86 L 98.5 91 L 100.5 88 L 106.5 84 Z "></path><path fill="rgb(210,182,36)" stroke="rgb(210,182,36)" stroke-width="1" opacity="1" d="M 111.5 90 L 115 90.5 L 111.5 91 L 111.5 90 Z "></path><path fill="rgb(210,182,36)" stroke="rgb(210,182,36)" stroke-width="1" opacity="1" d="M 89.5 92 L 94 93.5 L 92.5 94 L 89.5 93 L 89.5 92 Z "></path><path fill="rgb(210,182,36)" stroke="rgb(210,182,36)" stroke-width="1" opacity="1" d="M 97.5 92 L 98 93.5 L 96 94.5 L 97.5 92 Z "></path><path fill="rgb(210,182,36)" stroke="rgb(210,182,36)" stroke-width="1" opacity="1" d="M 85.5 95 L 87 98 L 84.5 99 L 85.5 95 Z "></path><path fill="rgb(210,182,36)" stroke="rgb(210,182,36)" stroke-width="1" opacity="1" d="M 109.5 95 L 108.5 97 L 109.5 95 Z "></path><path fill="rgb(210,182,36)" stroke="rgb(210,182,36)" stroke-width="1" opacity="1" d="M 92.5 96 L 91.5 98 L 92.5 96 Z "></path><path fill="rgb(192,164,19)" stroke="rgb(192,164,19)" stroke-width="1" opacity="1" d="M 91.5 10 L 93 10.5 L 91 11.5 L 92 13.5 L 90 12.5 L 91.5 10 Z "></path><path fill="rgb(192,164,19)" stroke="rgb(192,164,19)" stroke-width="1" opacity="1" d="M 94 11 L 96 11.5 L 94.5 14 L 94 11 Z "></path><path fill="rgb(192,164,19)" stroke="rgb(192,164,19)" stroke-width="1" opacity="1" d="M 97 13 L 100 13.5 L 98 14.5 L 98.5 16 L 97 13 Z "></path><path fill="rgb(192,164,19)" stroke="rgb(192,164,19)" stroke-width="1" opacity="1" d="M 101.5 14 L 103 14.5 L 101.5 18 L 100 15.5 L 101.5 14 Z "></path><path fill="rgb(192,164,19)" stroke="rgb(192,164,19)" stroke-width="1" opacity="1" d="M 104.5 16 L 107 16.5 L 105 17 L 104.5 20 L 103 17.5 L 104.5 16 Z "></path><path fill="rgb(192,164,19)" stroke="rgb(192,164,19)" stroke-width="1" opacity="1" d="M 108.5 18 L 109.5 20 L 108.5 18 Z "></path><path fill="rgb(192,164,19)" stroke="rgb(192,164,19)" stroke-width="1" opacity="1" d="M 106.5 19 L 108 21.5 L 106 20.5 L 106.5 19 Z "></path><path fill="rgb(192,164,19)" stroke="rgb(192,164,19)" stroke-width="1" opacity="1" d="M 109 21 L 112 21.5 L 109 23.5 L 109 21 Z "></path><path fill="rgb(192,164,19)" stroke="rgb(192,164,19)" stroke-width="1" opacity="1" d="M 112.5 24 L 113 27 Q 110.3 28.1 111 25.5 L 112.5 24 Z "></path><path fill="rgb(192,164,19)" stroke="rgb(192,164,19)" stroke-width="1" opacity="1" d="M 117.5 27 L 116.5 29 L 117.5 27 Z "></path><path fill="rgb(192,164,19)" stroke="rgb(192,164,19)" stroke-width="1" opacity="1" d="M 118 30 L 120 30.5 L 118 31.5 L 118 30 Z "></path><path fill="rgb(192,164,19)" stroke="rgb(192,164,19)" stroke-width="1" opacity="1" d="M 121.5 31 L 128 34.5 L 126 41 Q 128.7 39.9 128 42.5 L 128 44.5 L 126 50 L 124 50.5 L 125 53.5 L 124 55.5 L 125.5 58 L 121 57 L 121.5 59 Q 123.3 56.2 125 60.5 L 123.5 61 L 121.5 60 L 120 60.5 L 119.5 59 L 107.5 78 Q 104.8 78.6 106 72.5 L 103 60.5 L 113 46.5 L 116 39 L 122 35.5 L 119 34 L 117.5 37 L 117 34.5 L 121.5 31 Z M 121 37 Q 118 39 121 40 L 123 40 L 122 39 L 122 38 L 121 37 Z M 121 41 L 120 45 L 123 43 L 124 44 L 124 43 L 121 41 Z M 123 45 L 121 48 L 123 47 L 125 48 Q 127 49 126 46 L 123 45 Z M 123 49 L 121 52 L 124 50 L 123 49 Z M 123 53 L 121 56 L 124 54 L 123 53 Z "></path><path fill="rgb(192,164,19)" stroke="rgb(192,164,19)" stroke-width="1" opacity="1" d="M 74.5 32 L 75 34 Q 77.7 32.9 77 35.5 Q 81 39 79 48.5 L 77 51.5 L 77.5 53 Q 76 50.5 74.5 54 L 67.5 59 L 67 57.5 L 70 47.5 L 70 41.5 L 69 39 L 64 41 Q 65.3 46.1 62 47.5 L 62 49.5 L 60 63.5 L 54.5 70 L 50 72 L 50 61.5 L 53 47.5 Q 55.3 39.8 60.5 35 L 64.5 33 L 73.5 33 L 74.5 32 Z "></path><path fill="rgb(192,164,19)" stroke="rgb(192,164,19)" stroke-width="1" opacity="1" d="M 87.5 33 L 95.5 33 L 96 35.5 L 94.5 41 L 93.5 39 L 84.5 46 L 84 44.5 Q 86.7 41.2 86 34.5 L 87.5 33 Z "></path><path fill="rgb(192,164,19)" stroke="rgb(192,164,19)" stroke-width="1" opacity="1" d="M 131.5 54 L 130.5 56 L 131.5 54 Z "></path><path fill="rgb(192,164,19)" stroke="rgb(192,164,19)" stroke-width="1" opacity="1" d="M 120.5 62 L 123 63.5 L 122.5 65 L 122 63 Q 119.3 61.9 120 64.5 L 119 64.5 L 120.5 62 Z "></path><path fill="rgb(192,164,19)" stroke="rgb(192,164,19)" stroke-width="1" opacity="1" d="M 119.5 66 L 118.5 68 L 119.5 66 Z "></path><path fill="rgb(192,164,19)" stroke="rgb(192,164,19)" stroke-width="1" opacity="1" d="M 118.5 69 L 121 70.5 L 119.5 70 L 118.5 69 Z "></path><path fill="rgb(192,164,19)" stroke="rgb(192,164,19)" stroke-width="1" opacity="1" d="M 119.5 75 L 120 76.5 Q 118.5 79.5 117 76.5 L 119 76.5 L 119.5 75 Z "></path><path fill="rgb(192,164,19)" stroke="rgb(192,164,19)" stroke-width="1" opacity="1" d="M 92 78 Q 95.4 81.7 105.5 80 L 107 79.5 L 103 87 Q 99.3 85.5 100 88.5 L 99.5 91 L 96 90 L 95.5 92 L 93 91 L 92.5 93 L 89 92 L 90 94.5 L 87.5 93 L 85 93.5 L 86.5 96 Q 83.5 95.5 84 91.5 L 92 80.5 L 92 78 Z "></path><path fill="rgb(192,164,19)" stroke="rgb(192,164,19)" stroke-width="1" opacity="1" d="M 110.5 80 L 109.5 82 L 110.5 80 Z "></path><path fill="rgb(192,164,19)" stroke="rgb(192,164,19)" stroke-width="1" opacity="1" d="M 112.5 83 L 115 83.5 L 112.5 84 L 112.5 83 Z "></path><path fill="rgb(192,164,19)" stroke="rgb(192,164,19)" stroke-width="1" opacity="1" d="M 108.5 84 L 111.5 86 L 113 85.5 L 111.5 87 L 109 86.5 L 108.5 84 Z "></path><path fill="rgb(192,164,19)" stroke="rgb(192,164,19)" stroke-width="1" opacity="1" d="M 93.5 94 L 94 96 L 97.5 94 L 96 96.5 L 95 98.5 L 95.5 100 L 93.5 100 Q 91.3 99.3 92 101.5 L 91 104 L 84.5 101 L 80.5 105 L 78 102.5 L 79 99 L 81.5 98 L 84.5 99 L 89 98 L 89.5 96 Q 91.3 99.8 93 96.5 L 93.5 94 Z "></path><path fill="rgb(128,1,1)" stroke="rgb(128,1,1)" stroke-width="1" opacity="0.984313725490196" d="M 49.5 96 L 50 98 L 52 98.5 L 50 107 L 75 112 L 73 104.5 L 75.5 103 L 81.5 107 L 85.5 103 L 86.5 104 L 92 106 L 95.5 101 L 102 103 L 103 98 L 110.5 98 L 111 96.5 L 112 96.5 L 122 119.5 L 87 131 L 93.5 148 L 101.5 136 L 103 138.5 L 93.5 151 L 91 150 L 82 126 Q 79 124.8 80 128.5 L 79 132 L 43 125 L 35 148.5 L 36.5 148 L 55.5 142 L 56.5 144 L 33.5 152 Q 31.3 151.3 32 147.5 L 41 124.5 L 49.5 96 Z "></path><path fill="rgb(177,3,3)" stroke="rgb(177,3,3)" stroke-width="1" opacity="0.9921568627450981" d="M 54.5 97 L 58 98.5 L 60.5 103 L 67 101 L 70.5 106 L 72.5 105 L 75 112 L 50 107 L 51 99.5 L 52.5 98 L 54.5 97 Z "></path><path fill="rgb(177,3,3)" stroke="rgb(177,3,3)" stroke-width="1" opacity="0.9921568627450981" d="M 76.5 103 L 78.5 106 L 76.5 103 Z "></path><path fill="rgb(177,3,3)" stroke="rgb(177,3,3)" stroke-width="1" opacity="0.9921568627450981" d="M 84.5 103 L 81.5 107 L 84.5 103 Z "></path><path fill="rgb(177,3,3)" stroke="rgb(177,3,3)" stroke-width="1" opacity="0.9921568627450981" d="M 119.5 120 Q 123.9 118.5 123 121.5 L 130 136.5 L 128.5 136 L 113.5 133 L 110.5 134 L 106.5 132 L 103.5 137 L 101.5 136 L 93.5 148 L 87 131 L 119.5 120 Z "></path><path fill="rgb(177,3,3)" stroke="rgb(177,3,3)" stroke-width="1" opacity="0.9921568627450981" d="M 43 125 L 79 132 L 74 148.5 L 75 152.5 L 71.5 159 L 65 153.5 Q 65.8 151.3 63.5 152 L 55.5 142 L 35.5 149 L 35 146.5 L 43 125 Z "></path><path fill="rgb(177,3,3)" stroke="rgb(177,3,3)" stroke-width="1" opacity="0.9921568627450981" d="M 80 126 L 82 126.5 L 80 127.5 L 80 126 Z "></path><path fill="rgb(232,58,58)" stroke="rgb(232,58,58)" stroke-width="1" opacity="0.8117647058823529" d="M 111 92 L 114 93.5 Q 116.3 103.7 122 110.5 L 122 112.5 L 132 132.5 L 133 138.5 Q 131.8 141.3 130.5 139 L 117.5 137 L 111 134.5 L 113 133.5 L 112.5 132 L 129.5 137 L 130 135.5 L 111 95.5 L 111 92 Z "></path><path fill="rgb(232,58,58)" stroke="rgb(232,58,58)" stroke-width="1" opacity="0.8117647058823529" d="M 81.5 127 L 82 133.5 L 75.5 152 L 74 148.5 L 80 128.5 L 81.5 127 Z "></path><path fill="rgb(232,58,58)" stroke="rgb(232,58,58)" stroke-width="1" opacity="0.8117647058823529" d="M 74.5 153 L 75 155.5 L 73 160 Q 69.2 161 68 158.5 L 66 155.5 L 70.5 159 L 73 157.5 L 74.5 153 Z "></path></svg>