<svg id="Layer_1" data-name="Layer 1" xmlns="http://www.w3.org/2000/svg" xmlns:xlink="http://www.w3.org/1999/xlink" viewBox="0 0 500 588.06274"><defs><style>.cls-1{fill:#dbc63d;}.cls-2{fill:#851615;}.cls-3{fill:#e9c561;}.cls-4{fill:#dec942;}.cls-5{fill:#d9c53a;}.cls-6{fill:#dfcb45;}.cls-7{fill:#8c0302;}.cls-8{fill:#ead055;}.cls-9{fill:#e9cd5e;}.cls-10{fill:#deca42;}.cls-11{fill:#e7d351;}.cls-12{fill:#a70100;}.cls-13{fill:#d2bd2e;}.cls-14{fill:#f0dd60;}.cls-15{fill:#8f0000;}.cls-16{fill:#ebd858;}.cls-17{fill:#e8d453;}.cls-100,.cls-101,.cls-102,.cls-103,.cls-104,.cls-105,.cls-106,.cls-107,.cls-108,.cls-109,.cls-110,.cls-111,.cls-112,.cls-113,.cls-114,.cls-115,.cls-116,.cls-117,.cls-118,.cls-119,.cls-120,.cls-121,.cls-122,.cls-123,.cls-124,.cls-125,.cls-126,.cls-127,.cls-128,.cls-129,.cls-130,.cls-131,.cls-132,.cls-133,.cls-134,.cls-135,.cls-136,.cls-137,.cls-138,.cls-139,.cls-140,.cls-141,.cls-142,.cls-143,.cls-144,.cls-145,.cls-146,.cls-147,.cls-148,.cls-18,.cls-19,.cls-20,.cls-21,.cls-22,.cls-23,.cls-25,.cls-26,.cls-27,.cls-28,.cls-29,.cls-30,.cls-31,.cls-32,.cls-33,.cls-34,.cls-35,.cls-36,.cls-37,.cls-38,.cls-39,.cls-40,.cls-41,.cls-42,.cls-43,.cls-44,.cls-45,.cls-46,.cls-47,.cls-48,.cls-49,.cls-50,.cls-51,.cls-52,.cls-53,.cls-54,.cls-55,.cls-56,.cls-57,.cls-58,.cls-59,.cls-60,.cls-61,.cls-62,.cls-63,.cls-64,.cls-65,.cls-66,.cls-67,.cls-68,.cls-69,.cls-70,.cls-71,.cls-72,.cls-73,.cls-74,.cls-75,.cls-76,.cls-77,.cls-78,.cls-79,.cls-80,.cls-81,.cls-82,.cls-83,.cls-84,.cls-85,.cls-86,.cls-87,.cls-88,.cls-89,.cls-90,.cls-91,.cls-92,.cls-93,.cls-94,.cls-95,.cls-96,.cls-97,.cls-98,.cls-99{stroke-miterlimit:10;}.cls-18,.cls-19{stroke-width:7px;}.cls-18{fill:url(#linear-gradient);stroke:url(#linear-gradient-2);}.cls-19{fill:url(#linear-gradient-3);stroke:url(#linear-gradient-4);}.cls-20,.cls-21{stroke:#efe925;}.cls-20,.cls-21,.cls-22,.cls-23{stroke-width:2px;}.cls-20{fill:url(#linear-gradient-5);}.cls-21{fill:url(#linear-gradient-6);}.cls-22{fill:url(#linear-gradient-7);stroke:url(#linear-gradient-8);}.cls-23{fill:url(#linear-gradient-9);stroke:url(#linear-gradient-10);}.cls-24{opacity:0.39;}.cls-25{fill:url(#linear-gradient-11);stroke:url(#linear-gradient-12);}.cls-26{fill:url(#linear-gradient-13);stroke:url(#linear-gradient-14);}.cls-27{fill:url(#linear-gradient-15);stroke:url(#linear-gradient-16);}.cls-28{fill:url(#linear-gradient-17);stroke:url(#linear-gradient-18);}.cls-29{fill:url(#linear-gradient-19);stroke:url(#linear-gradient-20);}.cls-30,.cls-31{fill:url(#linear-gradient-21);stroke:url(#linear-gradient-22);}.cls-100,.cls-102,.cls-104,.cls-106,.cls-108,.cls-110,.cls-112,.cls-114,.cls-116,.cls-118,.cls-120,.cls-122,.cls-124,.cls-126,.cls-128,.cls-130,.cls-132,.cls-135,.cls-138,.cls-140,.cls-142,.cls-144,.cls-146,.cls-148,.cls-31,.cls-34,.cls-36,.cls-38,.cls-40,.cls-42,.cls-44,.cls-46,.cls-48,.cls-50,.cls-52,.cls-54,.cls-56,.cls-58,.cls-60,.cls-62,.cls-64,.cls-66,.cls-68,.cls-70,.cls-72,.cls-74,.cls-76,.cls-78,.cls-80,.cls-82,.cls-84,.cls-86,.cls-88,.cls-90,.cls-92,.cls-94,.cls-96,.cls-98{opacity:0.34;}.cls-32{fill:url(#linear-gradient-25);stroke:url(#linear-gradient-26);}.cls-33,.cls-34{fill:url(#linear-gradient-27);stroke:url(#linear-gradient-28);}.cls-35,.cls-36{fill:url(#linear-gradient-31);stroke:url(#linear-gradient-32);}.cls-37,.cls-38{fill:url(#linear-gradient-35);stroke:url(#linear-gradient-36);}.cls-39,.cls-40{fill:url(#linear-gradient-39);stroke:url(#linear-gradient-40);}.cls-41,.cls-42{fill:url(#linear-gradient-43);stroke:url(#linear-gradient-44);}.cls-43,.cls-44{fill:url(#linear-gradient-47);stroke:url(#linear-gradient-48);}.cls-45,.cls-46{fill:url(#linear-gradient-51);stroke:url(#linear-gradient-52);}.cls-47,.cls-48{fill:url(#linear-gradient-55);stroke:url(#linear-gradient-56);}.cls-49,.cls-50{fill:url(#linear-gradient-59);stroke:url(#linear-gradient-60);}.cls-51,.cls-52{fill:url(#linear-gradient-63);stroke:url(#linear-gradient-64);}.cls-53,.cls-54{fill:url(#linear-gradient-67);stroke:url(#linear-gradient-68);}.cls-55,.cls-56{fill:url(#linear-gradient-71);stroke:url(#linear-gradient-72);}.cls-57,.cls-58{fill:url(#linear-gradient-75);stroke:url(#linear-gradient-76);}.cls-59,.cls-60{fill:url(#linear-gradient-79);stroke:url(#linear-gradient-80);}.cls-61,.cls-62{fill:url(#linear-gradient-83);stroke:url(#linear-gradient-84);}.cls-63,.cls-64{fill:url(#linear-gradient-87);stroke:url(#linear-gradient-88);}.cls-65,.cls-66{fill:url(#linear-gradient-91);stroke:url(#linear-gradient-92);}.cls-67,.cls-68{fill:url(#linear-gradient-95);stroke:url(#linear-gradient-96);}.cls-69,.cls-70{fill:url(#linear-gradient-99);stroke:url(#linear-gradient-100);}.cls-71,.cls-72{fill:url(#linear-gradient-103);stroke:url(#linear-gradient-104);}.cls-73,.cls-74{fill:url(#linear-gradient-107);stroke:url(#linear-gradient-108);}.cls-75,.cls-76{fill:url(#linear-gradient-111);stroke:url(#linear-gradient-112);}.cls-77,.cls-78{fill:url(#linear-gradient-115);stroke:url(#linear-gradient-116);}.cls-79,.cls-80{fill:url(#linear-gradient-119);stroke:url(#linear-gradient-120);}.cls-81,.cls-82{fill:url(#linear-gradient-123);stroke:url(#linear-gradient-124);}.cls-83,.cls-84{fill:url(#linear-gradient-127);stroke:url(#linear-gradient-128);}.cls-85,.cls-86{fill:url(#linear-gradient-131);stroke:url(#linear-gradient-132);}.cls-87,.cls-88{fill:url(#linear-gradient-135);stroke:url(#linear-gradient-136);}.cls-89,.cls-90{fill:url(#linear-gradient-139);stroke:url(#linear-gradient-140);}.cls-91,.cls-92{fill:url(#linear-gradient-143);stroke:url(#linear-gradient-144);}.cls-93,.cls-94{fill:url(#linear-gradient-147);stroke:url(#linear-gradient-148);}.cls-95,.cls-96{fill:url(#linear-gradient-151);stroke:url(#linear-gradient-152);}.cls-97,.cls-98{fill:url(#linear-gradient-155);stroke:url(#linear-gradient-156);}.cls-100,.cls-99{fill:url(#linear-gradient-159);stroke:url(#linear-gradient-160);}.cls-101,.cls-102{fill:url(#linear-gradient-163);stroke:url(#linear-gradient-164);}.cls-103,.cls-104{fill:url(#linear-gradient-167);stroke:url(#linear-gradient-168);}.cls-105,.cls-106{fill:url(#linear-gradient-171);stroke:url(#linear-gradient-172);}.cls-107,.cls-108{fill:url(#linear-gradient-175);stroke:url(#linear-gradient-176);}.cls-109,.cls-110{fill:url(#linear-gradient-179);stroke:url(#linear-gradient-180);}.cls-111,.cls-112{fill:url(#linear-gradient-183);stroke:url(#linear-gradient-184);}.cls-113,.cls-114{fill:url(#linear-gradient-187);stroke:url(#linear-gradient-188);}.cls-115,.cls-116{fill:url(#linear-gradient-191);stroke:url(#linear-gradient-192);}.cls-117,.cls-118{fill:url(#linear-gradient-195);stroke:url(#linear-gradient-196);}.cls-119,.cls-120{fill:url(#linear-gradient-199);stroke:url(#linear-gradient-200);}.cls-121,.cls-122{fill:url(#linear-gradient-203);stroke:url(#linear-gradient-204);}.cls-123,.cls-124{fill:url(#linear-gradient-207);stroke:url(#linear-gradient-208);}.cls-125,.cls-126{fill:url(#linear-gradient-211);stroke:url(#linear-gradient-212);}.cls-127,.cls-128{fill:url(#linear-gradient-215);stroke:url(#linear-gradient-216);}.cls-129,.cls-130{fill:url(#linear-gradient-219);stroke:url(#linear-gradient-220);}.cls-131,.cls-132{fill:url(#linear-gradient-223);stroke:url(#linear-gradient-224);}.cls-133{fill:url(#linear-gradient-227);stroke:url(#linear-gradient-228);}.cls-134,.cls-135{fill:url(#linear-gradient-229);stroke:url(#linear-gradient-230);}.cls-136{fill:url(#linear-gradient-233);stroke:url(#linear-gradient-234);}.cls-137,.cls-138{fill:url(#linear-gradient-235);stroke:url(#linear-gradient-236);}.cls-139,.cls-140{fill:url(#linear-gradient-239);stroke:url(#linear-gradient-240);}.cls-141,.cls-142{fill:url(#linear-gradient-243);stroke:url(#linear-gradient-244);}.cls-143,.cls-144{fill:url(#linear-gradient-247);stroke:url(#linear-gradient-248);}.cls-145,.cls-146{fill:url(#linear-gradient-251);stroke:url(#linear-gradient-252);}.cls-147,.cls-148{fill:url(#linear-gradient-255);stroke:url(#linear-gradient-256);}</style><linearGradient id="linear-gradient" x1="248.04158" y1="271.9109" x2="127.73756" y2="480.28358" gradientUnits="userSpaceOnUse"><stop offset="0" stop-color="#ca0000"/><stop offset="0.51554" stop-color="#7c0000"/><stop offset="1" stop-color="#ca0001"/></linearGradient><linearGradient id="linear-gradient-2" x1="77.05856" y1="446.04078" x2="296.27431" y2="303.61534" gradientTransform="translate(20.75051 -9.93428) rotate(3.01196)" gradientUnits="userSpaceOnUse"><stop offset="0" stop-color="#ca0001"/><stop offset="0" stop-color="#580101"/><stop offset="0.17496" stop-color="#871414"/><stop offset="0.3597" stop-color="#b22525"/><stop offset="0.53933" stop-color="#d43333"/><stop offset="0.70984" stop-color="#ec3c3c"/><stop offset="0.86752" stop-color="#fa4242"/><stop offset="1" stop-color="#f44"/></linearGradient><linearGradient id="linear-gradient-3" x1="307.44882" y1="497.67726" x2="307.44882" y2="290.6501" gradientUnits="userSpaceOnUse"><stop offset="0.14255" stop-color="#ca0001"/><stop offset="0.56153" stop-color="#7c0000"/><stop offset="1" stop-color="#ca0000"/></linearGradient><linearGradient id="linear-gradient-4" x1="201.53782" y1="356.55633" x2="412.28416" y2="356.55633" gradientTransform="matrix(1, 0, 0, 1, 0, 0)" xlink:href="#linear-gradient-2"/><linearGradient id="linear-gradient-5" x1="92.78804" y1="121.93112" x2="92.8325" y2="121.93112" gradientUnits="userSpaceOnUse"><stop offset="0" stop-color="#fff"/><stop offset="0" stop-color="#ffec78"/><stop offset="1" stop-color="#b6a001"/></linearGradient><linearGradient id="linear-gradient-6" x1="84.65305" y1="174.53394" x2="412.62859" y2="174.53394" xlink:href="#linear-gradient-5"/><linearGradient id="linear-gradient-7" x1="250.23614" y1="109.45057" x2="327.06469" y2="242.52152" gradientUnits="userSpaceOnUse"><stop offset="0" stop-color="#9c7020"/><stop offset="0.22349" stop-color="#b68b24"/><stop offset="0.55102" stop-color="#d5ad28"/><stop offset="0.82169" stop-color="#e9c22b"/><stop offset="1" stop-color="#f0ca2c"/><stop offset="1" stop-color="#e0ff67"/></linearGradient><linearGradient id="linear-gradient-8" x1="228.92665" y1="175.62119" x2="348.52292" y2="175.62119" gradientUnits="userSpaceOnUse"><stop offset="0" stop-color="#7a4d0e"/><stop offset="0.10532" stop-color="#845b17"/><stop offset="0.30273" stop-color="#9f7f2d"/><stop offset="0.49068" stop-color="#bda746"/><stop offset="0.8547" stop-color="#ebe56c"/><stop offset="1" stop-color="#ffff7c"/><stop offset="1" stop-color="#f0ca2c"/></linearGradient><linearGradient id="linear-gradient-9" x1="163.71641" y1="117.60596" x2="224.57777" y2="223.02093" gradientTransform="matrix(1.61267, -0.27874, 0.17453, 1.00977, -148.31046, 56.37958)" xlink:href="#linear-gradient-7"/><linearGradient id="linear-gradient-10" x1="148.10445" y1="174.02872" x2="241.00876" y2="174.02872" gradientUnits="userSpaceOnUse"><stop offset="0" stop-color="#7a4d0e"/><stop offset="0.12281" stop-color="#845b17"/><stop offset="0.35429" stop-color="#a07f2d"/><stop offset="0.66974" stop-color="#ccba51"/><stop offset="1" stop-color="#ffff7c"/><stop offset="1" stop-color="#f0ca2c"/></linearGradient><linearGradient id="linear-gradient-11" x1="76.06897" y1="253.65371" x2="309.08413" y2="350.355" xlink:href="#linear-gradient-7"/><linearGradient id="linear-gradient-12" x1="195.86858" y1="304.45632" x2="206.94069" y2="304.45632" xlink:href="#linear-gradient-10"/><linearGradient id="linear-gradient-13" x1="172.23878" y1="21.91923" x2="405.25394" y2="118.62052" xlink:href="#linear-gradient-7"/><linearGradient id="linear-gradient-14" x1="218.64785" y1="41.63865" x2="220.79305" y2="41.63865" xlink:href="#linear-gradient-10"/><linearGradient id="linear-gradient-15" x1="78.80467" y1="247.06167" x2="311.81983" y2="343.76296" xlink:href="#linear-gradient-7"/><linearGradient id="linear-gradient-16" x1="233.16638" y1="311.79165" x2="236.19949" y2="311.79165" xlink:href="#linear-gradient-10"/><linearGradient id="linear-gradient-17" x1="77.14381" y1="251.06373" x2="310.15897" y2="347.76502" xlink:href="#linear-gradient-7"/><linearGradient id="linear-gradient-18" x1="215.9715" y1="309.50174" x2="222.77215" y2="309.50174" xlink:href="#linear-gradient-10"/><linearGradient id="linear-gradient-19" x1="177.41874" y1="9.43741" x2="410.4339" y2="106.1387" xlink:href="#linear-gradient-7"/><linearGradient id="linear-gradient-20" x1="243.55779" y1="38.90886" x2="253.23364" y2="38.90886" xlink:href="#linear-gradient-10"/><linearGradient id="linear-gradient-21" x1="87.23986" y1="226.73591" x2="320.25502" y2="323.4372" xlink:href="#linear-gradient-7"/><linearGradient id="linear-gradient-22" x1="262.7908" y1="303.44881" x2="282.45345" y2="303.44881" xlink:href="#linear-gradient-10"/><linearGradient id="linear-gradient-25" x1="79.06681" y1="246.43" x2="312.08197" y2="343.1313" xlink:href="#linear-gradient-7"/><linearGradient id="linear-gradient-26" x1="197.9706" y1="299.78782" x2="218.34383" y2="299.78782" xlink:href="#linear-gradient-10"/><linearGradient id="linear-gradient-27" x1="78.77581" y1="247.13122" x2="311.79097" y2="343.83251" xlink:href="#linear-gradient-7"/><linearGradient id="linear-gradient-28" x1="182.97946" y1="294.14836" x2="202.71983" y2="294.14836" xlink:href="#linear-gradient-10"/><linearGradient id="linear-gradient-31" x1="90.96603" y1="217.75719" x2="323.98119" y2="314.45848" xlink:href="#linear-gradient-7"/><linearGradient id="linear-gradient-32" x1="278.69357" y1="299.20773" x2="297.178" y2="299.20773" xlink:href="#linear-gradient-10"/><linearGradient id="linear-gradient-35" x1="95.00284" y1="208.02993" x2="328.018" y2="304.73122" xlink:href="#linear-gradient-7"/><linearGradient id="linear-gradient-36" x1="293.60591" y1="293.57193" x2="310.73305" y2="293.57193" xlink:href="#linear-gradient-10"/><linearGradient id="linear-gradient-39" x1="99.29458" y1="197.68838" x2="332.30974" y2="294.38968" xlink:href="#linear-gradient-7"/><linearGradient id="linear-gradient-40" x1="307.10986" y1="286.84226" x2="322.94486" y2="286.84226" xlink:href="#linear-gradient-10"/><linearGradient id="linear-gradient-43" x1="80.41452" y1="243.18252" x2="313.42968" y2="339.88381" xlink:href="#linear-gradient-7"/><linearGradient id="linear-gradient-44" x1="158.52955" y1="278.94847" x2="176.18583" y2="278.94847" xlink:href="#linear-gradient-10"/><linearGradient id="linear-gradient-47" x1="82.08145" y1="239.16582" x2="315.09661" y2="335.86711" xlink:href="#linear-gradient-7"/><linearGradient id="linear-gradient-48" x1="148.49951" y1="269.82583" x2="164.81332" y2="269.82583" xlink:href="#linear-gradient-10"/><linearGradient id="linear-gradient-51" x1="103.41578" y1="187.75778" x2="336.43094" y2="284.45907" xlink:href="#linear-gradient-7"/><linearGradient id="linear-gradient-52" x1="319.28139" y1="279.66051" x2="333.31429" y2="279.66051" xlink:href="#linear-gradient-10"/><linearGradient id="linear-gradient-55" x1="84.19757" y1="234.06674" x2="317.21273" y2="330.76803" xlink:href="#linear-gradient-7"/><linearGradient id="linear-gradient-56" x1="139.13836" y1="259.95183" x2="155.08384" y2="259.95183" xlink:href="#linear-gradient-10"/><linearGradient id="linear-gradient-59" x1="113.08673" y1="164.4543" x2="346.10189" y2="261.15559" xlink:href="#linear-gradient-7"/><linearGradient id="linear-gradient-60" x1="339.55202" y1="260.83337" x2="353.16106" y2="260.83337" xlink:href="#linear-gradient-10"/><linearGradient id="linear-gradient-63" x1="108.2438" y1="176.12401" x2="341.25896" y2="272.8253" xlink:href="#linear-gradient-7"/><linearGradient id="linear-gradient-64" x1="330.10861" y1="270.33407" x2="343.49673" y2="270.33407" xlink:href="#linear-gradient-10"/><linearGradient id="linear-gradient-67" x1="117.85436" y1="152.96603" x2="350.86952" y2="249.66732" xlink:href="#linear-gradient-7"/><linearGradient id="linear-gradient-68" x1="348.01183" y1="250.69975" x2="362.01968" y2="250.69975" xlink:href="#linear-gradient-10"/><linearGradient id="linear-gradient-71" x1="86.73067" y1="227.96288" x2="319.74583" y2="324.66417" xlink:href="#linear-gradient-7"/><linearGradient id="linear-gradient-72" x1="131.17455" y1="249.43553" x2="146.61449" y2="249.43553" xlink:href="#linear-gradient-10"/><linearGradient id="linear-gradient-75" x1="122.70543" y1="141.27671" x2="355.72059" y2="237.978" xlink:href="#linear-gradient-7"/><linearGradient id="linear-gradient-76" x1="355.13685" y1="239.68167" x2="367.53116" y2="239.68167" xlink:href="#linear-gradient-10"/><linearGradient id="linear-gradient-79" x1="89.65959" y1="220.90523" x2="322.67475" y2="317.60652" xlink:href="#linear-gradient-7"/><linearGradient id="linear-gradient-80" x1="124.33065" y1="238.32879" x2="139.42955" y2="238.32879" xlink:href="#linear-gradient-10"/><linearGradient id="linear-gradient-83" x1="96.62359" y1="204.12452" x2="329.63875" y2="300.82581" xlink:href="#linear-gradient-7"/><linearGradient id="linear-gradient-84" x1="114.61715" y1="214.5224" x2="128.7151" y2="214.5224" xlink:href="#linear-gradient-10"/><linearGradient id="linear-gradient-87" x1="100.6493" y1="194.424" x2="333.66446" y2="291.12529" xlink:href="#linear-gradient-7"/><linearGradient id="linear-gradient-88" x1="111.67286" y1="201.92618" x2="125.10291" y2="201.92618" xlink:href="#linear-gradient-10"/><linearGradient id="linear-gradient-91" x1="93.05423" y1="212.72538" x2="326.06939" y2="309.42667" xlink:href="#linear-gradient-7"/><linearGradient id="linear-gradient-92" x1="118.59941" y1="226.57365" x2="133.42677" y2="226.57365" xlink:href="#linear-gradient-10"/><linearGradient id="linear-gradient-95" x1="127.62104" y1="129.43186" x2="360.6362" y2="226.13315" xlink:href="#linear-gradient-7"/><linearGradient id="linear-gradient-96" x1="360.99633" y1="228.16105" x2="373.69908" y2="228.16105" xlink:href="#linear-gradient-10"/><linearGradient id="linear-gradient-99" x1="132.49205" y1="117.69449" x2="365.50721" y2="214.39578" xlink:href="#linear-gradient-7"/><linearGradient id="linear-gradient-100" x1="365.72116" y1="216.27669" x2="378.51419" y2="216.27669" xlink:href="#linear-gradient-10"/><linearGradient id="linear-gradient-103" x1="104.79416" y1="184.4364" x2="337.80932" y2="281.13769" xlink:href="#linear-gradient-7"/><linearGradient id="linear-gradient-104" x1="110.16712" y1="189.44734" x2="122.76013" y2="189.44734" xlink:href="#linear-gradient-10"/><linearGradient id="linear-gradient-107" x1="137.38072" y1="105.91456" x2="370.39588" y2="202.61585" xlink:href="#linear-gradient-7"/><linearGradient id="linear-gradient-108" x1="369.17117" y1="203.71504" x2="381.40078" y2="203.71504" xlink:href="#linear-gradient-10"/><linearGradient id="linear-gradient-111" x1="142.17605" y1="94.35955" x2="375.19121" y2="191.06084" xlink:href="#linear-gradient-7"/><linearGradient id="linear-gradient-112" x1="371.5509" y1="190.99402" x2="383.30023" y2="190.99402" xlink:href="#linear-gradient-10"/><linearGradient id="linear-gradient-115" x1="109.37135" y1="173.40701" x2="342.38651" y2="270.1083" xlink:href="#linear-gradient-7"/><linearGradient id="linear-gradient-116" x1="109.82755" y1="176.36198" x2="121.63711" y2="176.36198" xlink:href="#linear-gradient-10"/><linearGradient id="linear-gradient-119" x1="146.8696" y1="83.0498" x2="379.88476" y2="179.75109" xlink:href="#linear-gradient-7"/><linearGradient id="linear-gradient-120" x1="372.62958" y1="178.12511" x2="383.97325" y2="178.12511" xlink:href="#linear-gradient-10"/><linearGradient id="linear-gradient-123" x1="151.48711" y1="71.92326" x2="384.50227" y2="168.62455" xlink:href="#linear-gradient-7"/><linearGradient id="linear-gradient-124" x1="372.05961" y1="165.9393" x2="383.87415" y2="165.9393" xlink:href="#linear-gradient-10"/><linearGradient id="linear-gradient-127" x1="123.84695" y1="138.52606" x2="356.86211" y2="235.22735" xlink:href="#linear-gradient-7"/><linearGradient id="linear-gradient-128" x1="114.56495" y1="136.81341" x2="128.08048" y2="136.81341" xlink:href="#linear-gradient-10"/><linearGradient id="linear-gradient-131" x1="118.736" y1="150.8416" x2="351.75116" y2="247.54289" xlink:href="#linear-gradient-7"/><linearGradient id="linear-gradient-132" x1="111.73989" y1="150.42556" x2="124.54475" y2="150.42556" xlink:href="#linear-gradient-10"/><linearGradient id="linear-gradient-135" x1="114.13694" y1="161.92368" x2="347.1521" y2="258.62497" xlink:href="#linear-gradient-7"/><linearGradient id="linear-gradient-136" x1="110.13693" y1="163.00431" x2="122.56519" y2="163.00431" xlink:href="#linear-gradient-10"/><linearGradient id="linear-gradient-139" x1="164.26841" y1="41.12495" x2="397.28357" y2="137.82625" xlink:href="#linear-gradient-7"/><linearGradient id="linear-gradient-140" x1="362.62322" y1="126.90953" x2="376.50114" y2="126.90953" xlink:href="#linear-gradient-10"/><linearGradient id="linear-gradient-143" x1="160.39243" y1="50.46467" x2="393.40759" y2="147.16596" xlink:href="#linear-gradient-7"/><linearGradient id="linear-gradient-144" x1="366.89884" y1="139.68483" x2="380.23462" y2="139.68483" xlink:href="#linear-gradient-10"/><linearGradient id="linear-gradient-147" x1="156.34291" y1="60.22254" x2="389.35807" y2="156.92383" xlink:href="#linear-gradient-7"/><linearGradient id="linear-gradient-148" x1="370.03528" y1="152.41512" x2="382.70229" y2="152.41512" xlink:href="#linear-gradient-10"/><linearGradient id="linear-gradient-151" x1="128.52556" y1="127.2523" x2="361.54072" y2="223.9536" xlink:href="#linear-gradient-7"/><linearGradient id="linear-gradient-152" x1="118.76304" y1="125.19087" x2="132.19266" y2="125.19087" xlink:href="#linear-gradient-10"/><linearGradient id="linear-gradient-155" x1="133.50176" y1="115.26145" x2="366.51692" y2="211.96274" xlink:href="#linear-gradient-7"/><linearGradient id="linear-gradient-156" x1="124.21218" y1="113.10062" x2="137.78485" y2="113.10062" xlink:href="#linear-gradient-10"/><linearGradient id="linear-gradient-159" x1="148.41103" y1="79.3355" x2="381.42619" y2="176.03679" xlink:href="#linear-gradient-7"/><linearGradient id="linear-gradient-160" x1="147.71344" y1="81.13917" x2="161.81036" y2="81.13917" xlink:href="#linear-gradient-10"/><linearGradient id="linear-gradient-163" x1="167.42905" y1="33.50896" x2="400.44421" y2="130.21025" xlink:href="#linear-gradient-7"/><linearGradient id="linear-gradient-164" x1="356.9748" y1="115.9926" x2="371.48742" y2="115.9926" xlink:href="#linear-gradient-10"/><linearGradient id="linear-gradient-167" x1="138.59318" y1="102.99296" x2="371.60834" y2="199.69425" xlink:href="#linear-gradient-7"/><linearGradient id="linear-gradient-168" x1="130.86301" y1="101.54273" x2="145.28314" y2="101.54273" xlink:href="#linear-gradient-10"/><linearGradient id="linear-gradient-171" x1="165.97229" y1="37.01922" x2="398.98745" y2="133.72052" xlink:href="#linear-gradient-7"/><linearGradient id="linear-gradient-172" x1="195.95773" y1="51.54977" x2="205.40944" y2="51.54977" xlink:href="#linear-gradient-10"/><linearGradient id="linear-gradient-175" x1="143.52812" y1="91.10154" x2="376.54328" y2="187.80283" xlink:href="#linear-gradient-7"/><linearGradient id="linear-gradient-176" x1="138.72637" y1="91.04301" x2="152.2568" y2="91.04301" xlink:href="#linear-gradient-10"/><linearGradient id="linear-gradient-179" x1="170.36319" y1="26.43874" x2="403.37835" y2="123.14003" xlink:href="#linear-gradient-7"/><linearGradient id="linear-gradient-180" x1="350.73334" y1="104.73828" x2="365.19914" y2="104.73828" xlink:href="#linear-gradient-10"/><linearGradient id="linear-gradient-183" x1="178.46705" y1="6.91136" x2="411.48221" y2="103.61265" xlink:href="#linear-gradient-7"/><linearGradient id="linear-gradient-184" x1="314.09865" y1="65.49916" x2="327.09072" y2="65.49916" xlink:href="#linear-gradient-10"/><linearGradient id="linear-gradient-187" x1="161.89549" y1="46.84283" x2="394.91065" y2="143.54413" xlink:href="#linear-gradient-7"/><linearGradient id="linear-gradient-188" x1="182.18068" y1="57.43051" x2="192.6447" y2="57.43051" xlink:href="#linear-gradient-10"/><linearGradient id="linear-gradient-191" x1="179.41454" y1="4.62824" x2="412.4297" y2="101.32953" xlink:href="#linear-gradient-7"/><linearGradient id="linear-gradient-192" x1="287.93164" y1="52.27519" x2="303.2298" y2="52.27519" xlink:href="#linear-gradient-10"/><linearGradient id="linear-gradient-195" x1="153.025" y1="68.21751" x2="386.04016" y2="164.9188" xlink:href="#linear-gradient-7"/><linearGradient id="linear-gradient-196" x1="157.91681" y1="72.44195" x2="170.67398" y2="72.44195" xlink:href="#linear-gradient-10"/><linearGradient id="linear-gradient-199" x1="175.29408" y1="14.55707" x2="408.30924" y2="111.25836" xlink:href="#linear-gradient-7"/><linearGradient id="linear-gradient-200" x1="334.6679" y1="83.56223" x2="349.00957" y2="83.56223" xlink:href="#linear-gradient-10"/><linearGradient id="linear-gradient-203" x1="173.07458" y1="19.90526" x2="406.08974" y2="116.60655" xlink:href="#linear-gradient-7"/><linearGradient id="linear-gradient-204" x1="343.37707" y1="93.76656" x2="357.7522" y2="93.76656" xlink:href="#linear-gradient-10"/><linearGradient id="linear-gradient-207" x1="179.22573" y1="5.08321" x2="412.24089" y2="101.7845" xlink:href="#linear-gradient-7"/><linearGradient id="linear-gradient-208" x1="302.8853" y1="58.2628" x2="314.05312" y2="58.2628" xlink:href="#linear-gradient-10"/><linearGradient id="linear-gradient-211" x1="158.02052" y1="56.1801" x2="391.03568" y2="152.88139" xlink:href="#linear-gradient-7"/><linearGradient id="linear-gradient-212" x1="169.38267" y1="63.77663" x2="183.04596" y2="63.77663" xlink:href="#linear-gradient-10"/><linearGradient id="linear-gradient-215" x1="169.55071" y1="28.39652" x2="402.56587" y2="125.09781" xlink:href="#linear-gradient-7"/><linearGradient id="linear-gradient-216" x1="207.30538" y1="47.55004" x2="222.79014" y2="47.55004" xlink:href="#linear-gradient-10"/><linearGradient id="linear-gradient-219" x1="169.08467" y1="29.51951" x2="402.09983" y2="126.2208" xlink:href="#linear-gradient-7"/><linearGradient id="linear-gradient-220" x1="214.51016" y1="48.3672" x2="216.57927" y2="48.3672" xlink:href="#linear-gradient-10"/><linearGradient id="linear-gradient-223" x1="177.08968" y1="10.23031" x2="410.10484" y2="106.9316" xlink:href="#linear-gradient-7"/><linearGradient id="linear-gradient-224" x1="325.67653" y1="74.21309" x2="338.82805" y2="74.21309" xlink:href="#linear-gradient-10"/><linearGradient id="linear-gradient-227" x1="79.31896" y1="245.82241" x2="312.33412" y2="342.5237" xlink:href="#linear-gradient-7"/><linearGradient id="linear-gradient-228" x1="171.37434" y1="286.69414" x2="188.95548" y2="286.69414" xlink:href="#linear-gradient-10"/><linearGradient id="linear-gradient-229" x1="82.09395" y1="239.13569" x2="315.10911" y2="335.83698" xlink:href="#linear-gradient-7"/><linearGradient id="linear-gradient-230" x1="233.44312" y1="305.80525" x2="251.87344" y2="305.80525" xlink:href="#linear-gradient-10"/><linearGradient id="linear-gradient-233" x1="80.23934" y1="243.60463" x2="313.2545" y2="340.30592" xlink:href="#linear-gradient-7"/><linearGradient id="linear-gradient-234" x1="216.73908" y1="304.09165" x2="235.81729" y2="304.09165" xlink:href="#linear-gradient-10"/><linearGradient id="linear-gradient-235" x1="172.39081" y1="21.5529" x2="405.40597" y2="118.25419" xlink:href="#linear-gradient-7"/><linearGradient id="linear-gradient-236" x1="223.19368" y1="44.82025" x2="233.94462" y2="44.82025" xlink:href="#linear-gradient-10"/><linearGradient id="linear-gradient-239" x1="174.90842" y1="15.48638" x2="407.92358" y2="112.18767" xlink:href="#linear-gradient-7"/><linearGradient id="linear-gradient-240" x1="234.70976" y1="43.72566" x2="251.27129" y2="43.72566" xlink:href="#linear-gradient-10"/><linearGradient id="linear-gradient-243" x1="174.37553" y1="16.77045" x2="407.39069" y2="113.47174" xlink:href="#linear-gradient-7"/><linearGradient id="linear-gradient-244" x1="242.12471" y1="44.99142" x2="244.25873" y2="44.99142" xlink:href="#linear-gradient-10"/><linearGradient id="linear-gradient-247" x1="178.97495" y1="5.68751" x2="411.99011" y2="102.3888" xlink:href="#linear-gradient-7"/><linearGradient id="linear-gradient-248" x1="274.93498" y1="47.58483" x2="285.51665" y2="47.58483" xlink:href="#linear-gradient-10"/><linearGradient id="linear-gradient-251" x1="176.74945" y1="11.05016" x2="409.76461" y2="107.75145" xlink:href="#linear-gradient-7"/><linearGradient id="linear-gradient-252" x1="264.25758" y1="48.15165" x2="266.39282" y2="48.15165" xlink:href="#linear-gradient-10"/><linearGradient id="linear-gradient-255" x1="177.67771" y1="8.81338" x2="410.69287" y2="105.51468" xlink:href="#linear-gradient-7"/><linearGradient id="linear-gradient-256" x1="259.61818" y1="45.10465" x2="274.06641" y2="45.10465" xlink:href="#linear-gradient-10"/></defs><title>filemetachecker</title><path d="M30.5112,535.679h26.749v7.02539H38.23972V550.182h16.7622v7.02636H38.23972V570.8089H30.5112Z"/><path d="M62.77975,534.1731h8.02978v6.77539H62.77975Zm.20118,9.73632h7.62793v26.89942H62.98093Z"/><path d="M78.1362,534.1731h7.62793v36.63574H78.1362Z"/><path d="M91.63571,557.509v-.09961c0-7.67871,5.47022-14.00195,13.29932-14.00195,8.9834,0,13.09863,6.97559,13.09863,14.60352,0,.60253-.05029,1.30566-.10058,2.00781H99.21384a6.23876,6.23876,0,0,0,6.57422,5.26953,8.81585,8.81585,0,0,0,6.5244-2.75977l4.36621,3.86426a13.45474,13.45474,0,0,1-10.99072,5.01856C97.60788,571.41138,91.63571,565.74048,91.63571,557.509Zm18.97022-2.25781c-.45166-3.41309-2.459-5.72168-5.67089-5.72168-3.16163,0-5.21924,2.25879-5.82178,5.72168Z"/><path d="M124.50681,535.679h8.33056l9.23438,14.85449,9.23437-14.85449h8.33057V570.8089h-7.67822V547.87329l-9.88672,15.00586h-.20069l-9.78613-14.85449v22.78418h-7.57812Z"/><path d="M165.95993,557.509v-.09961c0-7.67871,5.47022-14.00195,13.29932-14.00195,8.9834,0,13.09863,6.97559,13.09863,14.60352,0,.60253-.05029,1.30566-.10059,2.00781H173.53806a6.23875,6.23875,0,0,0,6.57421,5.26953,8.81588,8.81588,0,0,0,6.52442-2.75977l4.36621,3.86426a13.45477,13.45477,0,0,1-10.99072,5.01856C171.9321,571.41138,165.95993,565.74048,165.95993,557.509Zm18.97022-2.25781c-.45166-3.41309-2.459-5.72168-5.6709-5.72168-3.16162,0-5.21924,2.25879-5.82178,5.72168Z"/><path d="M199.28317,563.18091v-12.748h-3.21191v-6.52344h3.21191v-6.876h7.62793v6.876h6.32373v6.52344H206.9111V561.926c0,1.75683.75293,2.60937,2.45948,2.60937a7.76379,7.76379,0,0,0,3.76367-.95312v6.12207a11.24107,11.24107,0,0,1-6.022,1.55664C202.44479,571.261,199.28317,569.40356,199.28317,563.18091Z"/><path d="M217.249,563.08032v-.10058c0-5.87207,4.4668-8.582,10.84034-8.582a19.11353,19.11353,0,0,1,6.57421,1.10449v-.45215c0-3.16113-1.957-4.918-5.77148-4.918a19.7863,19.7863,0,0,0-7.42725,1.45508l-1.90722-5.82129a23.73462,23.73462,0,0,1,10.439-2.1582c4.165,0,7.17627,1.10449,9.0835,3.01171,2.00732,2.00684,2.91064,4.96778,2.91064,8.582v15.60743h-7.37744v-2.91107a10.34159,10.34159,0,0,1-8.12988,3.41308C221.41452,571.31079,217.249,568.39966,217.249,563.08032Zm17.51514-1.75683V559.969a11.82477,11.82477,0,0,0-4.86816-1.0039c-3.26221,0-5.26954,1.30469-5.26954,3.71387v.10058c0,2.05762,1.70655,3.26172,4.16553,3.26172C232.355,566.04126,234.76413,564.08423,234.76413,561.32349Z"/><path d="M262.86716,553.344v-.10058a17.85453,17.85453,0,0,1,17.53308-18.17023q.39216-.007.7843.00324c6.625,0,10.58984,2.208,13.85156,5.41992l-4.918,5.6709c-2.71-2.459-5.4707-3.96485-8.9834-3.96485-5.92187,0-10.1875,4.91895-10.1875,10.94043v.10059c0,6.02246,4.165,11.041,10.1875,11.041,4.01465,0,6.47364-1.60546,9.23438-4.11523l4.918,4.96875a17.95662,17.95662,0,0,1-14.40332,6.27344,17.73213,17.73213,0,0,1-18.01749-17.44208Q262.86119,553.65664,262.86716,553.344Z"/><path d="M300.6572,534.1731h7.62793v13.5498c1.75683-2.25781,4.01464-4.31543,7.8789-4.31543,5.77149,0,9.13379,3.81348,9.13379,9.98633v17.415h-7.62793V555.803c0-3.61328-1.706-5.46973-4.61719-5.46973s-4.76757,1.85645-4.76757,5.46973v15.00586H300.6572Z"/><path d="M330.61618,557.509v-.09961c0-7.67871,5.4707-14.00195,13.29981-14.00195,8.98339,0,13.09863,6.97559,13.09863,14.60352,0,.60253-.05078,1.30566-.10059,2.00781H338.19431a6.23937,6.23937,0,0,0,6.57519,5.26953,8.81462,8.81462,0,0,0,6.52344-2.75977l4.36621,3.86426a13.45228,13.45228,0,0,1-10.99024,5.01856C336.58884,571.41138,330.61618,565.74048,330.61618,557.509Zm18.9707-2.25781c-.45117-3.41309-2.459-5.72168-5.67089-5.72168-3.16211,0-5.21973,2.25879-5.82129,5.72168Z"/><path d="M361.37985,557.509v-.09961a13.81077,13.81077,0,0,1,13.615-14.00372q.24376-.00339.48752.00177c5.06934,0,8.23047,1.70605,10.74024,4.5166l-4.668,5.01856c-1.70606-1.80664-3.41211-2.96094-6.12207-2.96094-3.81446,0-6.52442,3.3623-6.52442,7.32715v.10058c0,4.11524,2.66016,7.42774,6.8252,7.42774,2.55957,0,4.3164-1.1045,6.17285-2.86133l4.4668,4.5166a13.54465,13.54465,0,0,1-10.99122,4.91895,13.736,13.736,0,0,1-14.00036-13.46643Q361.37715,557.7269,361.37985,557.509Z"/><path d="M391.34177,534.1731h7.62793v19.52246l8.93261-9.78614h9.13477L406.7988,554.49829l10.58886,16.31055h-8.73242l-7.02539-10.99121-2.66015,2.81054v8.18067h-7.62793Z"/><path d="M418.49118,557.509v-.09961c0-7.67871,5.4707-14.00195,13.29981-14.00195,8.98339,0,13.09863,6.97559,13.09863,14.60352,0,.60253-.05078,1.30566-.10059,2.00781H426.06931a6.23937,6.23937,0,0,0,6.57519,5.26953,8.81462,8.81462,0,0,0,6.52344-2.75977l4.36621,3.86426a13.45228,13.45228,0,0,1-10.99024,5.01856C424.46384,571.41138,418.49118,565.74048,418.49118,557.509Zm18.9707-2.25781c-.45117-3.41309-2.459-5.72168-5.67089-5.72168-3.16211,0-5.21973,2.25879-5.82129,5.72168Z"/><path d="M450.56052,543.90942h7.62793v5.41993c1.55566-3.71387,4.06543-6.123,8.582-5.92188V551.387h-.40137c-5.06934,0-8.18066,3.06153-8.18066,9.48536v9.93652h-7.6279Z"/><path class="cls-1" d="M152.56458,305.43877l.03161-3.11121c2.80446-7.51155-1.63143-14.81333,1.96018-23.475,8.76253-21.13228,24.02812-28.81607,45.00229-29.5382,3.67492-1.80194,7.40042-2.87044,11.29124-.61579,4.14391,8.14781-.88449,14.56-4.46164,20.91837-4.20565,7.47556-8.58143,14.78606-10.565,23.22347a16.34424,16.34424,0,0,1-2.02793,3.89085c-7.329,3.98643-8.30262,12.46534-12.90719,18.39284-7.44482-.63639-14.86174-1.90374-22.39931-1.1601C153.89552,312.937,153.64808,308.89865,152.56458,305.43877Z"/><path class="cls-2" d="M146.00294,349.00664q-3.45966-.15561-6.91951-.31119,6.73961-21.62555,13.48032-43.254,2.84754,3.353,5.69347,6.71128c3.318,8.7194-1.382,16.308-3.37841,24.288C152.72122,341.18855,152.01663,346.9845,146.00294,349.00664Z"/><path class="cls-3" d="M347.28987,293.49432c-8.62317.84133-4.55619,7.55815-5.52894,11.94161-2.243,11.63723-6.11826,12.52755-16.33116,3.7521,6.62493-2.92625,14.55829-3.92381,13.6625-14.73848-.41213-4.97539,4.98854-5.08786,9.19179-4.04933Q347.78884,291.9472,347.28987,293.49432Z"/><path class="cls-4" d="M288.45915,299.62125q-1.36964-3.22895-2.73921-6.458c11.32744.04892,18.30363-14.3697,31.12339-9.36038-1.17352,3.80306,2.80664,11.60914-3.87938,10.75265C303.67619,293.36577,299.50238,313.63739,288.45915,299.62125Z"/><path class="cls-5" d="M332.32018,268.29451c.888,5.24012,10.35868,10.65471-.32042,15.66049-.85786-2.346-1.01779-5.58214-2.68758-6.88869C321.2215,270.7354,326.12086,269.41289,332.32018,268.29451Z"/><path class="cls-6" d="M329.202,283.84782c-4.1009,10.42247-8.33708,1.04429-12.51615.08584C320.76032,269.77906,325.01542,281.787,329.202,283.84782Z"/><path class="cls-7" d="M279.66761,334.39236c-9.77742,14.3581-26.21425,13.48648-40.43506,17.68055q-4.78231-12.49307-9.56726-24.98434c5.03036-4.246,5.056,3.74822,8.46717,3.46384,5.99063,4.037,11.27752,5.25407,16.77677-1.504,4.84127-5.94942,10.44694-5.15513,15.08289,1.03518Z"/><path class="cls-8" d="M269.99212,330.08356c-5.267-2.83181-10.40193-4.5956-14.70092,1.60363-6.33431,9.13427-11.95137,7.01989-17.15774-1.13427,6.57578,1.33551,12.78715,1.801,17.11034-5.00192,3.21517-5.05945,7.67218-3.51964,12.01286-1.62179Q268.62549,327.0045,269.99212,330.08356Z"/><path class="cls-9" d="M316.4462,311.70972c-1.50528,11.55089-5.95292,18.26962-18.51229,10.93258-5.05993-2.95593-8.49663-.12342-12.06223,2.76441-.51262-6.41114,1.69342-11.267,8.60986-7.67654C304.31389,322.83427,310.48538,318.62539,316.4462,311.70972Z"/><path class="cls-10" d="M273.254,299.493c4.14393-6.01866,8.37909-1.6745,12.591-.11062-.114,3.91352.69159,9.1752-4.04708,10.07437C274.56618,310.829,278.14131,301.1951,273.254,299.493Z"/><path class="cls-11" d="M270.33984,312.13571c-3.73846-4.18426-5.96537-8.86133-3.82344-14.44735.10555-.27533,4.486,1.08859,6.87671,1.68929C273.18776,303.82478,274.83666,308.71586,270.33984,312.13571Z"/><path class="cls-12" d="M205.53008,321.04456c4.1986,6.676,6.9239,16.11131,18.12243,9.67883q3.01056,9.11094,6.022,18.217c-1.76863,2.00752-4.07571,3.61752-6.61646,3.53748-24.60879-.77508-48.93733-2.96507-70.83192-15.89393q3.01749-12.216,6.033-24.43157c7.94534-2.976,15.98071-6.42222,21.41264,4.01586,5.34785,3.79267,10.68557,4.951,16.97039,1.58812C199.953,315.98479,204.66431,314.36106,205.53008,321.04456Z"/><path class="cls-13" d="M205.53008,321.04456c-4.71624-6.59607-7.68359-.0257-10.83428,1.76633-8.34877,4.74864-14.06833,4.76553-15.02363-6.64375,2.65522-7.6013-1.12522-19.32438,12.6728-19.79273,4.18443,2.16707,8.50983,4.04128,12.73306,6.12779l-.0889-.05966c2.8871,4.86308,15.286-3.21141,12.58493,9.25253C212.10421,312.937,211.93878,321.012,205.53008,321.04456Z"/><path class="cls-14" d="M205.078,302.50217c-7.03457,3.754-11.63079,2.44522-12.73028-6.12877q.131-1.64379.26749-3.29032C203.42851,287.412,204.92887,294.06326,205.078,302.50217Z"/><path class="cls-15" d="M236.10676,367.60691c-10.71309,7.23444-21.70337,2.45847-32.12357-.16015-19.3692-4.86755-40.42287-3.54487-57.94942-15.326q-.01508-1.55693-.02994-3.114,3.11085-6.21137,6.22288-12.42264c25.85474,3.88088,50.72243,13.95225,77.44961,12.35689Q232.88968,358.27332,236.10676,367.60691Z"/><path class="cls-16" d="M217.574,311.695c-.27345-3.96866-2.10817-4.78052-5.906-3.66046-4.47151,1.31879-6.30953-1.49372-6.67853-5.59188,3.33555-9.98544,12.00292-6.15585,17.15606-4.57489,7.23113,2.21853,4.28,8.77077,1.41893,13.84392Q220.56844,311.70267,217.574,311.695Z"/><path class="cls-17" d="M253.00625,297.03018c10.71959,6.99775,11.274,11.25982,2.59219,17.038C254.7673,308.60524,254.137,304.46207,253.00625,297.03018Z"/><path class="cls-16" d="M243.38251,313.45657c-1.30715-4.94683-2.36431-9.19335.86346-12.32316,1.80241-1.74764,3.55728.67359,4.57962,2.42248C251.73085,308.526,248.7652,310.904,243.38251,313.45657Z"/><path class="cls-18" d="M160.77754,256.71419l-71.16847,195.278s-2.18289,4.25153-.72049,5.78941c1.375,1.446,5.44087-.16631,5.44087-.16631l76.65367-23.64311,41.39841,55.72459s2.233,2.35878,3.89026,2.10436c1.767-.27127,2.45551-3.4757,2.45551-3.4757L286.23525,293.962Z"/><path class="cls-19" d="M330.39724,238.87179l77.42027,194.12138s1.75729,3.265.53315,4.63219c-1.11455,1.24483-4.25664.40879-4.25664.40879l-78.57986-21.678-39.27891,56.32619s-2.415,2.62746-4.26533,2.4c-1.67737-.20621-2.40854-2.59984-2.40854-2.59984L206.11347,279.86671Z"/><path class="cls-20" d="M92.788,121.94793l.04389-.0151.00057-.01854Z"/><path class="cls-21" d="M398.56512,173.96051c1.83631-1.77223,3.59274-3.62714,5.38287-5.44708l.03809-.03873c2.36671-3.98713,6.74421-6.35276,8.64251-10.71752-5.3951-3.8445-10.74593-7.7534-16.20843-11.49948-1.98633-1.3621-1.71171-2.62228-.659-4.37393,3.41782-5.68661,6.73135-11.43584,10.08507-17.161q-3.29349-1.73689-6.587-3.47374-5.54286-2.46943-11.08566-4.93892c-2.49761-.414-3.58751-1.53621-2.41811-4.18041,1.02893-2.32651,1.8079-4.76355,2.69726-7.15191q1.80924-5.53675,3.61867-11.07324c-1.50231-2.47118-4.486-1.328-6.46009-2.64783q-5.44473-1.14581-10.88952-2.29166c-2.12361-.81751-6.48322.72-4.57511-4.34387.07466-1.33822.184-2.67561.21787-4.01484.13466-5.32127,2.07825-10.51023,1.15959-15.90718a49.69233,49.69233,0,0,1-10.01379-.05007q-1.88205-.03277-3.76385-.06695a.63883.63883,0,0,1-1.06913.01459l.00095.00127a16.88544,16.88544,0,0,1-6.58291-.03287c-2.08813-.27443-1.4411-2.02481-1.58118-3.191-.452-3.76373-.71373-7.54993-1.07869-11.32461-.77858-8.05134-.7861-8.049-8.86566-6.75281-.39821.06389-.808.05561-1.2124.081a28.17471,28.17471,0,0,1-8.08963,1.63259c-5.21208,1.83249-5.22584,1.83676-6.89512-3.57159-.47988-1.55474-.85535-3.14172-1.27866-4.71392l-.25277-.19283.10422-.26571q-.29661-.89745-.5941-1.79592-1.72773-5.09166-3.4568-10.18273-.73969.07309-1.477.145-.98077.51437-1.96149,1.02874-5.11124,2.27985-10.22248,4.56034c-.34635.20608-.67812.44235-1.041.6125-7.03119,3.297-7.03189,3.29544-10.19-4.03955a2.43025,2.43025,0,0,1-1.05015-1.97513,31.69668,31.69668,0,0,1-4.74494-8.195c-2.1017-4.85623-4.35928-.93752-6.56183-.11651l.01962-.02535a2.86209,2.86209,0,0,1-2.22446,1.351l.09792.0086a28.166,28.166,0,0,1-7.11446,5.29732c-4.83566,4.26844-4.84547,4.27711-8.93357-.37044-.97956-1.11359-1.86963-2.30593-2.80091-3.462l-1.169-1.45148a33.54359,33.54359,0,0,1-3.90393-4.118c-2.26478-3.3385-4.48669-4.37776-7.21587-.57645-2.55642,2.92214-5.06728,5.88568-7.67906,8.75743-4.75367,5.227-4.7787,5.20431-10.25248.36986a9.76619,9.76619,0,0,1-3.68868-2.74683,59.10529,59.10529,0,0,1-6.57731-4.66429c-2.08437-1.9227-3.20332-.95861-4.41744.76374-1.35306,2.49634-2.67376,5.011-4.065,7.48584-6.06876,10.79651-6.07622,10.79231-17.06039,4.66545q-1.22054-.54209-2.44112-1.08411c-1.84688-.79495-3.74919-1.485-5.52155-2.421a1.837,1.837,0,0,0-2.72472.613,2.49617,2.49617,0,0,1-.64041,2.13311,46.55869,46.55869,0,0,1-3.8222,11.0231c-.40171,1.39944-.71042,2.83455-1.23069,4.18843-.55141,1.435-.97052,3.20237-3.21778,2.64911a75.53768,75.53768,0,0,1-11.76607-2.70567,17.98282,17.98282,0,0,1-5.88014-1.26171c-1.97971-.41115-2.83487.34094-2.981,2.41276-.18754,2.65885-.6966,5.295-1.06716,7.941-.07855,1.33025-.111,2.66509-.24316,3.99-.87018,8.72533-.87719,8.72462-9.91084,8.13078-3.32181.0888-6.64751.43293-9.959-.15333-1.39064.48134-3.17682-.49893-4.25118,1.15061q.53826,5.69145,1.07652,11.38277c.3298,2.67178.55951,5.361,1.02009,8.01012.39056,2.24625-.57977,3.2683-2.637,3.62269q-7.752,1.33518-15.5026,2.67872c-6.48634.43433-2.678,4.59531-2.67153,7.38029,1.14679,4.29068,3.40457,8.22481,4.064,12.67149,1.45289,2.16171,1.22642,3.61236-1.5341,4.45841-2.42971.74463-4.75081,1.84357-7.11993,2.78606a55.145,55.145,0,0,1-10.86735,4.74393l-.05332,1.70986a45.82665,45.82665,0,0,1,5.11086,9.13525c2.17324,2.37894,3.16873,5.47786,4.94675,8.09326,1.28006,1.883.2452,2.58661-1.38376,3.09414a12.49224,12.49224,0,0,1-6.15846,3.98458c-2.51972,3.57452-6.68535,4.99753-9.94352,7.60675a.71435.71435,0,0,1-.18073.69679q.12909.40937.25838.81852a69.46457,69.46457,0,0,1,8.70245,9.64234,34.51256,34.51256,0,0,0,2.83691,2.88538c3.477,2.82046,3.26116,5.35751-.42968,7.74091a62.18556,62.18556,0,0,1-8.2227,8.96841A9.65206,9.65206,0,0,1,84.653,189.9798c.99059,2.20337,4.14461,2.39952,4.67067,5.03391,2.53762.454,3.77341,2.90117,5.96009,3.89246,2.64967.81031,4.38686,3.0261,6.70255,4.35343,1.42931.81928,1.21921,1.8602.38094,3.0131-.86726,1.19285-1.67228,2.43092-2.50456,3.64944q-4.00118,6.95535-8.00229,13.91039.08448.40545.169.811l.03548.03485q5.65447,2.62144,11.309,5.24285.84862.37209,1.69719.74411c9.56117,4.08435,8.29851,1.5824,4.5688,12.13154-1.22826,3.81959-2.28924,7.70493-3.75123,11.433-.80967,2.06469-.27265,2.64216,1.66972,2.669,3.25576-.15645,6.27561.92319,9.33745,1.78153,2.53393.48243,5.10258.83668,7.58714,1.50385,1.21049.325,3.28913-.40082,3.30716,2.00888a48.567,48.567,0,0,1-1.27286,10.83722q-.50635,5.00384-1.01276,10.0076c1.18508,1.636,3.0872.61411,4.54842,1.227q5.72462-.01215,11.44871-.0244c8.41445.10256,7.26925-2.14916,7.87545,7.93986a64.42156,64.42156,0,0,1,1.14112,11.336c.55447,1.2203.09256,2.791,1.30465,3.78462,6.36288-1.38523,12.73869-2.71447,19.08144-4.1864,2.18739-.50759,3.2025.1978,3.81717,2.30409,1.44594,4.95421,3.39667,9.7828,4.52651,14.801.96632,4.292,2.73045,4.31572,6.11941,2.583,4.46879-2.28478,9.231-3.99056,13.74024-6.20375,2.22-1.08964,3.34544-.7194,4.48956,1.42683,2.6198,4.91452,5.57761,9.65036,8.14874,14.58864,1.22686,2.35639,2.15559,2.90679,4.451,1.10761,4.38234-3.43494,9.06741-6.4813,13.50091-9.8544,1.87536-1.42689,3.12025-1.59162,4.672.43612,2.30542,3.01247,4.87643,5.82178,7.33436,8.71755a3.62913,3.62913,0,0,1,.35718.19869c2.27249,1.6101,3.32009,5.76222,6.06475,5.26954,2.13649-.38349,3.7599-3.661,5.59755-5.665,2.48654-2.71147,5.083-5.335,7.39775-8.18665,1.69362-2.08647,2.98813-1.9957,5.012-.38534,4.261,3.39036,8.85527,6.36435,13.08785,9.78732,2.44717,1.97907,3.51789,1.25062,4.81623-1.15481,2.5224-4.67328,5.41816-9.14685,7.89138-13.84427,1.33293-2.5317,2.74052-2.77174,5.16373-1.57946,5.00957,2.46474,10.169,4.62333,15.20389,7.039,1.95436.93765,2.86474.61671,3.52516-1.51933,1.72973-5.59481,3.74467-11.10178,5.45695-16.70149.67124-2.19535,1.64266-2.67045,3.85042-2.10852,5.27464,1.34249,10.64879,2.293,15.9275,3.62115,2.77492.69813,4.14511.59442,4.2659-2.92366.177-5.1557,1.11774-10.28077,1.56-15.43367.23054-2.68618.95708-4.19174,4.13486-4.02064,6.2412.336,12.50235.3033,18.75637.42459,1.15175-1.3323.54326-2.83831.40419-4.28858-.50548-5.27126-.9595-10.549-1.58137-15.80665-.26335-2.22662.01211-3.57223,2.67714-3.826,2.956-.28144,5.86969-1.0053,8.80183-1.53653,2.23477-1.09671,4.70239-1.24693,7.09235-1.59271,2.91863-.42229,3.95667-1.49,2.83836-4.54867-1.85459-5.07257-3.25339-10.3109-5.07735-15.39583-.78947-2.201-.62735-3.46782,1.73-4.3433,4.17244-1.54952,8.27239-3.29429,12.40189-4.95816l-.00885.06275q.46248-.2987.92478-.59734c1.2419-1.85371,6.82753-.51638,3.95967-5.38975a63.90167,63.90167,0,0,1-5.74069-10.10068c-4.89095-8.39642-6.2298-6.14317,2.86729-12.03522a14.67162,14.67162,0,0,1,5.37631-3.8545c1.41714-2.41531,5.62309-2.34339,5.48256-6.148-4.43515-4.8196-8.84986-9.65832-13.32075-14.44461C397.57459,175.93608,397.42489,175.06105,398.56512,173.96051Z"/><polygon class="cls-22" points="258.702 104.563 296.852 104.563 286.449 145.355 309.681 104.563 346.732 104.563 307.651 167.975 323.226 244.738 286.514 244.738 277.406 189.113 268.213 246.679 230.148 246.679 258.702 104.563"/><path class="cls-23" d="M236.358,174.90053c-11.72479,63.94607-25.83277,75.51657-51.6682,75.51657-27.48348,0-43.60626-13.96917-31.51471-81.40673,10.80921-60.45458,28.21488-71.37,51.11885-71.37C230.67762,97.64034,247.90017,112.48238,236.358,174.90053Zm-51.23865-1.78274c-9.54217,47.49443-7.9778,51.76381,2.445,49.96231,9.62268-1.6632,7.73584-6.43394,16.70517-52.468,8.9104-43.98082,8.28208-48.22435-1.74008-46.49211C193.708,125.64466,193.82059,130.30736,185.11932,173.11779Z"/><g class="cls-24"><path class="cls-25" d="M197.07225,305.38348a42.45266,42.45266,0,0,1,6.68746-.25151c-1.63846-.5442-3.26584-1.11156-4.87489-1.715A22.39791,22.39791,0,0,0,197.07225,305.38348Z"/><path class="cls-26" d="M218.83906,41.83644c.61913-.12953,1.23651-.26389,1.85849-.38492A4.72671,4.72671,0,0,0,218.83906,41.83644Z"/><path class="cls-27" d="M234.11019,311.60528c.06918-.03371.14387-.062.21379-.09492-.055-.005-.10972-.01087-.16473-.016C234.1439,311.53221,234.12536,311.56727,234.11019,311.60528Z"/><path class="cls-28" d="M216.88981,310.01291c1.14863-.1622,2.22985-.34963,3.274-.55046-.877-.17392-1.75225-.35251-2.62281-.543C217.31835,309.27377,217.09831,309.63273,216.88981,310.01291Z"/><path class="cls-29" d="M247.18393,38.95141c.93222.00284,1.867.01849,2.80292.04032A4.56058,4.56058,0,0,0,247.18393,38.95141Z"/><path class="cls-30" d="M271.45632,297.84209q-4.03308.78951-8.15179,1.30976a10.488,10.488,0,0,0,1.12249,5.0772c.96836,2.04027,5.59027,4.02079,10.19946,5.04816q3.44732-.71247,6.8329-1.59778a34.78862,34.78862,0,0,0-7.77142-5.38419C271.27715,301.009,270.04927,299.80107,271.45632,297.84209Z"/><path class="cls-31" d="M271.45632,297.84209q-4.03308.78951-8.15179,1.30976a10.488,10.488,0,0,0,1.12249,5.0772c.96836,2.04027,5.59027,4.02079,10.19946,5.04816q3.44732-.71247,6.8329-1.59778a34.78862,34.78862,0,0,0-7.77142-5.38419C271.27715,301.009,270.04927,299.80107,271.45632,297.84209Z"/><path class="cls-32" d="M217.167,298.92743a11.39606,11.39606,0,0,0,.60665-2.19653q-3.68874-.8786-7.28447-1.9745c.92934,1.82086-.31321,2.761-2.98858,3.58038a21.04365,21.04365,0,0,0-8.61582,5.08016c1.609.60347,3.23643,1.17083,4.87489,1.715C209.32689,305.18375,214.82394,305.05877,217.167,298.92743Z"/><path class="cls-33" d="M201.55457,294.77612a8.86078,8.86078,0,0,0,.64387-2.84636q-3.67891-1.40178-7.23913-3.02527c1.62378,3.23171-.48338,4.20177-4.34623,5.0767a20.12442,20.12442,0,0,0-6.64446,2.78765q3.20388,1.66516,6.50951,3.16173C196.47411,299.74606,200.24136,297.976,201.55457,294.77612Z"/><path class="cls-34" d="M201.55457,294.77612a8.86078,8.86078,0,0,0,.64387-2.84636q-3.67891-1.40178-7.23913-3.02527c1.62378,3.23171-.48338,4.20177-4.34623,5.0767a20.12442,20.12442,0,0,0-6.64446,2.78765q3.20388,1.66516,6.50951,3.16173C196.47411,299.74606,200.24136,297.976,201.55457,294.77612Z"/><path class="cls-35" d="M287.36945,294.15176c.22094-.24193.41886-.49722.62249-.74922q-4.30083,1.47433-8.73085,2.64172c-.46827,3.45752,1.513,6.70061,5.50782,8.25854a28.28928,28.28928,0,0,0,4.06794,1.2281q3.6886-1.191,7.28733-2.5834a34.169,34.169,0,0,0-7.57073-4.03955C285.98015,297.92052,284.99565,296.75093,287.36945,294.15176Z"/><path class="cls-36" d="M287.36945,294.15176c.22094-.24193.41886-.49722.62249-.74922q-4.30083,1.47433-8.73085,2.64172c-.46827,3.45752,1.513,6.70061,5.50782,8.25854a28.28928,28.28928,0,0,0,4.06794,1.2281q3.6886-1.191,7.28733-2.5834a34.169,34.169,0,0,0-7.57073-4.03955C285.98015,297.92052,284.99565,296.75093,287.36945,294.15176Z"/><path class="cls-37" d="M301.9827,288.56983a12.77255,12.77255,0,0,0,.698-1.26565q-4.14027,2.03573-8.44123,3.77124c-.75068,4.2642,1.69644,8.01641,6.4741,9.04861.50253.10858,1.00673.20341,1.51314.28958q3.77925-1.678,7.43641-3.58008a24.245,24.245,0,0,0-4.91014-1.94261C300.948,293.80136,299.58936,292.33551,301.9827,288.56983Z"/><path class="cls-38" d="M301.9827,288.56983a12.77255,12.77255,0,0,0,.698-1.26565q-4.14027,2.03573-8.44123,3.77124c-.75068,4.2642,1.69644,8.01641,6.4741,9.04861.50253.10858,1.00673.20341,1.51314.28958q3.77925-1.678,7.43641-3.58008a24.245,24.245,0,0,0-4.91014-1.94261C300.948,293.80136,299.58936,292.33551,301.9827,288.56983Z"/><path class="cls-39" d="M314.41464,283.62578a17.3873,17.3873,0,0,0,1.24857-3.691q-3.86737,2.508-7.92055,4.73447a8.59558,8.59558,0,0,0,1.16752,6.0709,8.09083,8.09083,0,0,0,5.42991,3.55284q3.8025-2.164,7.45536-4.55852a34.00833,34.00833,0,0,0-4.60592-1.07947C314.12243,288.12489,312.94793,286.81182,314.41464,283.62578Z"/><path class="cls-40" d="M314.41464,283.62578a17.3873,17.3873,0,0,0,1.24857-3.691q-3.86737,2.508-7.92055,4.73447a8.59558,8.59558,0,0,0,1.16752,6.0709,8.09083,8.09083,0,0,0,5.42991,3.55284q3.8025-2.164,7.45536-4.55852a34.00833,34.00833,0,0,0-4.60592-1.07947C314.12243,288.12489,312.94793,286.81182,314.41464,283.62578Z"/><path class="cls-41" d="M174.3319,281.84438a7.24661,7.24661,0,0,0,1.33587-3.85628q-3.62134-2.496-7.05073-5.23447.12943.54854.30427,1.08143c1.66139,5.06307-.52512,5.95122-4.89861,6.04663a16.04733,16.04733,0,0,0-4.46354.64293q3.37311,2.81026,6.9255,5.40993A8.90853,8.90853,0,0,0,174.3319,281.84438Z"/><path class="cls-42" d="M174.3319,281.84438a7.24661,7.24661,0,0,0,1.33587-3.85628q-3.62134-2.496-7.05073-5.23447.12943.54854.30427,1.08143c1.66139,5.06307-.52512,5.95122-4.89861,6.04663a16.04733,16.04733,0,0,0-4.46354.64293q3.37311,2.81026,6.9255,5.40993A8.90853,8.90853,0,0,0,174.3319,281.84438Z"/><path class="cls-43" d="M162.8632,273.38683a9.09779,9.09779,0,0,0,1.42718-4.24626q-3.18319-2.7782-6.17125-5.76133a18.17511,18.17511,0,0,0,.15314,2.76335c.5568,4.15856-1.51672,4.62533-4.94557,4.66861a21.11392,21.11392,0,0,0-3.821.45718q2.88046,2.93177,5.93907,5.68542A8.29511,8.29511,0,0,0,162.8632,273.38683Z"/><path class="cls-44" d="M162.8632,273.38683a9.09779,9.09779,0,0,0,1.42718-4.24626q-3.18319-2.7782-6.17125-5.76133a18.17511,18.17511,0,0,0,.15314,2.76335c.5568,4.15856-1.51672,4.62533-4.94557,4.66861a21.11392,21.11392,0,0,0-3.821.45718q2.88046,2.93177,5.93907,5.68542A8.29511,8.29511,0,0,0,162.8632,273.38683Z"/><path class="cls-45" d="M325.2859,273.0338q-2.596,2.05173-5.29839,3.96735a8.50735,8.50735,0,0,0,1.96744,7.64563,7.56753,7.56753,0,0,0,4.15547,2.12549q3.16728-2.25826,6.20385-4.68649C328.11587,280.52227,325.36032,277.8377,325.2859,273.0338Z"/><path class="cls-46" d="M325.2859,273.0338q-2.596,2.05173-5.29839,3.96735a8.50735,8.50735,0,0,0,1.96744,7.64563,7.56753,7.56753,0,0,0,4.15547,2.12549q3.16728-2.25826,6.20385-4.68649C328.11587,280.52227,325.36032,277.8377,325.2859,273.0338Z"/><path class="cls-47" d="M154.55811,259.68544q-2.82824-3.05958-5.45366-6.29839a9.7826,9.7826,0,0,0-.07961,2.19449c.4193,5.288-2.054,6.18822-6.61254,5.46939-.713-.11247-1.44216-.19617-2.18151-.23959q2.62063,3.27536,5.43957,6.38265a7.73364,7.73364,0,0,0,5.56067-1.53145A8.97092,8.97092,0,0,0,154.55811,259.68544Z"/><path class="cls-48" d="M154.55811,259.68544q-2.82824-3.05958-5.45366-6.29839a9.7826,9.7826,0,0,0-.07961,2.19449c.4193,5.288-2.054,6.18822-6.61254,5.46939-.713-.11247-1.44216-.19617-2.18151-.23959q2.62063,3.27536,5.43957,6.38265a7.73364,7.73364,0,0,0,5.56067-1.53145A8.97092,8.97092,0,0,0,154.55811,259.68544Z"/><path class="cls-49" d="M345.78843,258.20127a15.06947,15.06947,0,0,0-.59134-4.83427q-2.462,3.03966-5.10575,5.91664a8.33884,8.33884,0,0,0,4.04421,8.25939,9.27394,9.27394,0,0,0,2.55609,1.21789q2.72529-2.9137,5.278-5.98882c-.34328.04227-.68289.09487-1.01895.16492C346.56441,263.85135,345.75859,262.12983,345.78843,258.20127Z"/><path class="cls-50" d="M345.78843,258.20127a15.06947,15.06947,0,0,0-.59134-4.83427q-2.462,3.03966-5.10575,5.91664a8.33884,8.33884,0,0,0,4.04421,8.25939,9.27394,9.27394,0,0,0,2.55609,1.21789q2.72529-2.9137,5.278-5.98882c-.34328.04227-.68289.09487-1.01895.16492C346.56441,263.85135,345.75859,262.12983,345.78843,258.20127Z"/><path class="cls-51" d="M336.222,263.31536q-2.67836,2.67192-5.50711,5.18418a8.77827,8.77827,0,0,0,2.66878,7.94191,7.32644,7.32644,0,0,0,3.44239,1.85785q2.86414-2.50635,5.59226-5.16282C337.71263,272.48408,334.97091,269.95413,336.222,263.31536Z"/><path class="cls-52" d="M336.222,263.31536q-2.67836,2.67192-5.50711,5.18418a8.77827,8.77827,0,0,0,2.66878,7.94191,7.32644,7.32644,0,0,0,3.44239,1.85785q2.86414-2.50635,5.59226-5.16282C337.71263,272.48408,334.97091,269.95413,336.222,263.31536Z"/><path class="cls-53" d="M352.64369,243.1788q-1.97892,3.01551-4.12875,5.90107c.07385,3.9283,1.68291,6.99695,4.7756,8.77479a5.79629,5.79629,0,0,0,2.07517.67632q3.11523-4.06322,5.92855-8.36627A26.35776,26.35776,0,0,1,352.64369,243.1788Z"/><path class="cls-54" d="M352.64369,243.1788q-1.97892,3.01551-4.12875,5.90107c.07385,3.9283,1.68291,6.99695,4.7756,8.77479a5.79629,5.79629,0,0,0,2.07517.67632q3.11523-4.06322,5.92855-8.36627A26.35776,26.35776,0,0,1,352.64369,243.1788Z"/><path class="cls-55" d="M146.08364,249.49234q-2.40087-3.214-4.60006-6.57785a13.84642,13.84642,0,0,0-.6561,3.78879c-.15009,4.143-1.78791,4.611-5.42,3.57393a19.62119,19.62119,0,0,0-3.24084-.66025q2.30456,3.562,4.82,6.973a9.31865,9.31865,0,0,0,4.63271-.97157A7.91922,7.91922,0,0,0,146.08364,249.49234Z"/><path class="cls-56" d="M146.08364,249.49234q-2.40087-3.214-4.60006-6.57785a13.84642,13.84642,0,0,0-.6561,3.78879c-.15009,4.143-1.78791,4.611-5.42,3.57393a19.62119,19.62119,0,0,0-3.24084-.66025q2.30456,3.562,4.82,6.973a9.31865,9.31865,0,0,0,4.63271-.97157A7.91922,7.91922,0,0,0,146.08364,249.49234Z"/><path class="cls-57" d="M363.00266,241.3309c-2.95921-1.04307-2.54312-5.5224-4.15191-8.69575q-1.5279,2.911-3.204,5.72612c.31682,4.4317,2.12371,7.10872,5.5368,8.52571a5.96856,5.96856,0,0,0,1.93119.41457q1.79966-2.90809,3.455-5.91464A6.6318,6.6318,0,0,1,363.00266,241.3309Z"/><path class="cls-58" d="M363.00266,241.3309c-2.95921-1.04307-2.54312-5.5224-4.15191-8.69575q-1.5279,2.911-3.204,5.72612c.31682,4.4317,2.12371,7.10872,5.5368,8.52571a5.96856,5.96856,0,0,0,1.93119.41457q1.79966-2.90809,3.455-5.91464A6.6318,6.6318,0,0,1,363.00266,241.3309Z"/><path class="cls-59" d="M134.78581,244.21365a9.73866,9.73866,0,0,0,4.09906-5.45352q-1.98344-3.31306-3.76335-6.75314a14.76772,14.76772,0,0,0-.85134,2.791c-.8438,4.061-2.27454,5.55513-6.6553,3.77648-.7295-.29617-1.50384-.58185-2.30524-.82026q1.93308,3.768,4.08337,7.40535A7.17942,7.17942,0,0,0,134.78581,244.21365Z"/><path class="cls-60" d="M134.78581,244.21365a9.73866,9.73866,0,0,0,4.09906-5.45352q-1.98344-3.31306-3.76335-6.75314a14.76772,14.76772,0,0,0-.85134,2.791c-.8438,4.061-2.27454,5.55513-6.6553,3.77648-.7295-.29617-1.50384-.58185-2.30524-.82026q1.93308,3.768,4.08337,7.40535A7.17942,7.17942,0,0,0,134.78581,244.21365Z"/><path class="cls-61" d="M122.69155,220.37677a8.35947,8.35947,0,0,0,5.48091-4.40312q-1.24144-3.52063-2.27108-7.1329a15.25494,15.25494,0,0,0-2.18974,3.62634c-1.34146,3.14258-2.87014,3.27645-5.56233,1.49074a17.0517,17.0517,0,0,0-2.76965-1.49943q1.12508,4.00683,2.48623,7.91572A7.57976,7.57976,0,0,0,122.69155,220.37677Z"/><path class="cls-62" d="M122.69155,220.37677a8.35947,8.35947,0,0,0,5.48091-4.40312q-1.24144-3.52063-2.27108-7.1329a15.25494,15.25494,0,0,0-2.18974,3.62634c-1.34146,3.14258-2.87014,3.27645-5.56233,1.49074a17.0517,17.0517,0,0,0-2.76965-1.49943q1.12508,4.00683,2.48623,7.91572A7.57976,7.57976,0,0,0,122.69155,220.37677Z"/><path class="cls-63" d="M118.5032,207.83392a7.62158,7.62158,0,0,0,6.0651-4.02394q-.86448-3.56964-1.51981-7.21264a18.8357,18.8357,0,0,0-1.88566,2.64943c-1.92738,3.19061-3.76581,3.72946-6.7607,1.31709a17.65885,17.65885,0,0,0-2.04946-1.43023q.69948,4.006,1.63418,7.933A8.53458,8.53458,0,0,0,118.5032,207.83392Z"/><path class="cls-64" d="M118.5032,207.83392a7.62158,7.62158,0,0,0,6.0651-4.02394q-.86448-3.56964-1.51981-7.21264a18.8357,18.8357,0,0,0-1.88566,2.64943c-1.92738,3.19061-3.76581,3.72946-6.7607,1.31709a17.65885,17.65885,0,0,0-2.04946-1.43023q.69948,4.006,1.63418,7.933A8.53458,8.53458,0,0,0,118.5032,207.83392Z"/><path class="cls-65" d="M127.82922,232.75735a8.41774,8.41774,0,0,0,5.05649-5.26621q-1.68411-3.59438-3.13779-7.30882a25.15564,25.15564,0,0,1-10.45881,4.1095q1.675,4.37517,3.64423,8.60432A7.7045,7.7045,0,0,0,127.82922,232.75735Z"/><path class="cls-66" d="M127.82922,232.75735a8.41774,8.41774,0,0,0,5.05649-5.26621q-1.68411-3.59438-3.13779-7.30882a25.15564,25.15564,0,0,1-10.45881,4.1095q1.675,4.37517,3.64423,8.60432A7.7045,7.7045,0,0,0,127.82922,232.75735Z"/><path class="cls-67" d="M366.49937,226.20456a11.50691,11.50691,0,0,0-2.43794-4.81862q-1.20177,2.9712-2.54741,5.86327c.70737,4.47449,2.60273,6.94861,6.02513,7.81522a10.09941,10.09941,0,0,0,2.1521.30773q1.60474-3.28923,3.03464-6.67965c-.0482.023-.09839.04288-.14635.06629C369.27519,230.3695,367.48109,230.17469,366.49937,226.20456Z"/><path class="cls-68" d="M366.49937,226.20456a11.50691,11.50691,0,0,0-2.43794-4.81862q-1.20177,2.9712-2.54741,5.86327c.70737,4.47449,2.60273,6.94861,6.02513,7.81522a10.09941,10.09941,0,0,0,2.1521.30773q1.60474-3.28923,3.03464-6.67965c-.0482.023-.09839.04288-.14635.06629C369.27519,230.3695,367.48109,230.17469,366.49937,226.20456Z"/><path class="cls-69" d="M366.2424,215.58391c1.06512,4.2613,3.2962,6.65228,6.75533,7.38119a6.23264,6.23264,0,0,0,1.97172.0744q1.5797-4.26246,2.88587-8.65851c-3.54858-.19374-6.04813-1.49595-9.76691-4.54644Q367.2323,212.74034,366.2424,215.58391Z"/><path class="cls-70" d="M366.2424,215.58391c1.06512,4.2613,3.2962,6.65228,6.75533,7.38119a6.23264,6.23264,0,0,0,1.97172.0744q1.5797-4.26246,2.88587-8.65851c-3.54858-.19374-6.04813-1.49595-9.76691-4.54644Q367.2323,212.74034,366.2424,215.58391Z"/><path class="cls-71" d="M116.16958,194.60917a7.80975,7.80975,0,0,0,6.0663-3.08781q-.45457-3.28131-.73595-6.61126c-1.80105,1.88593-3.18167,3.83609-5.11864,3.92107-1.83836.08063-3.7272-1.05276-5.6314-2.41406q.28476,3.61566.75738,7.18091A7.76034,7.76034,0,0,0,116.16958,194.60917Z"/><path class="cls-72" d="M116.16958,194.60917a7.80975,7.80975,0,0,0,6.0663-3.08781q-.45457-3.28131-.73595-6.61126c-1.80105,1.88593-3.18167,3.83609-5.11864,3.92107-1.83836.08063-3.7272-1.05276-5.6314-2.41406q.28476,3.61566.75738,7.18091A7.76034,7.76034,0,0,0,116.16958,194.60917Z"/><path class="cls-73" d="M374.44075,202.05524a15.86141,15.86141,0,0,0-3.43891-4.29q-.58238,3.0669-1.30892,6.07727c1.14185,3.09206,2.81051,5.50642,6.94425,6.13413a9.03892,9.03892,0,0,0,2.41873.06312q.87633-3.37011,1.58408-6.80992l-.02374.01756C377.83776,205.3974,376.27136,205.09418,374.44075,202.05524Z"/><path class="cls-74" d="M374.44075,202.05524a15.86141,15.86141,0,0,0-3.43891-4.29q-.58238,3.0669-1.30892,6.07727c1.14185,3.09206,2.81051,5.50642,6.94425,6.13413a9.03892,9.03892,0,0,0,2.41873.06312q.87633-3.37011,1.58408-6.80992l-.02374.01756C377.83776,205.3974,376.27136,205.09418,374.44075,202.05524Z"/><path class="cls-75" d="M375.65983,188.31405a8.394,8.394,0,0,0-2.93156-2.99321q-.26565,2.98629-.66236,5.92994c1.88959,4.12879,4.54939,5.92532,8.24961,5.75744a5.966,5.966,0,0,0,1.501-.27643q.50428-3.23281.86081-6.51673C380.16082,192.1717,377.96351,192.52475,375.65983,188.31405Z"/><path class="cls-76" d="M375.65983,188.31405a8.394,8.394,0,0,0-2.93156-2.99321q-.26565,2.98629-.66236,5.92994c1.88959,4.12879,4.54939,5.92532,8.24961,5.75744a5.966,5.966,0,0,0,1.501-.27643q.50428-3.23281.86081-6.51673C380.16082,192.1717,377.96351,192.52475,375.65983,188.31405Z"/><path class="cls-77" d="M121.12953,178.82331q-.12026-3.29791-.06705-6.63348c-1.91576,1.76717-3.4711,3.86429-5.37856,3.75038-1.82952-.10926-3.58481-1.43-5.32995-2.99176q-.066,3.37746.0323,6.72092a8.2202,8.2202,0,0,0,4.69826,1.51493A7.72661,7.72661,0,0,0,121.12953,178.82331Z"/><path class="cls-78" d="M121.12953,178.82331q-.12026-3.29791-.06705-6.63348c-1.91576,1.76717-3.4711,3.86429-5.37856,3.75038-1.82952-.10926-3.58481-1.43-5.32995-2.99176q-.066,3.37746.0323,6.72092a8.2202,8.2202,0,0,0,4.69826,1.51493A7.72661,7.72661,0,0,0,121.12953,178.82331Z"/><path class="cls-79" d="M373.424,173.3774a1.50965,1.50965,0,0,0-.19763-.20449q.018,2.87292-.09157,5.77131c1.757,3.06281,4.06793,5.11379,8.35064,4.69436a8.763,8.763,0,0,0,1.762-.363q.18443-3.24085.21715-6.454C380.24349,178.54783,376.94011,177.92141,373.424,173.3774Z"/><path class="cls-80" d="M373.424,173.3774a1.50965,1.50965,0,0,0-.19763-.20449q.018,2.87292-.09157,5.77131c1.757,3.06281,4.06793,5.11379,8.35064,4.69436a8.763,8.763,0,0,0,1.762-.363q.18443-3.24085.21715-6.454C380.24349,178.54783,376.94011,177.92141,373.424,173.3774Z"/><path class="cls-81" d="M372.66811,161.98316q.18846,1.98021.31228,3.97708c1.7925,3.11109,4.20829,5.21366,8.754,4.36057a8.893,8.893,0,0,0,1.62581-.47587q-.12843-3.17763-.40677-6.3189C379.78984,165.11461,376.43748,164.95455,372.66811,161.98316Z"/><path class="cls-82" d="M372.66811,161.98316q.18846,1.98021.31228,3.97708c1.7925,3.11109,4.20829,5.21366,8.754,4.36057a8.893,8.893,0,0,0,1.62581-.47587q-.12843-3.17763-.40677-6.3189C379.78984,165.11461,376.43748,164.95455,372.66811,161.98316Z"/><path class="cls-83" d="M125.42455,141.04714q.8976-3.32063,1.97194-6.56166a18.98682,18.98682,0,0,1-9.85408-2.86212q-1.32878,3.92288-2.42826,7.95283a7.06975,7.06975,0,0,0,3.868,2.35031A7.79555,7.79555,0,0,0,125.42455,141.04714Z"/><path class="cls-84" d="M125.42455,141.04714q.8976-3.32063,1.97194-6.56166a18.98682,18.98682,0,0,1-9.85408-2.86212q-1.32878,3.92288-2.42826,7.95283a7.06975,7.06975,0,0,0,3.868,2.35031A7.79555,7.79555,0,0,0,125.42455,141.04714Z"/><path class="cls-85" d="M122.75966,153.31091q.47538-2.868,1.07278-5.69033c-4.13632,2.18846-7.442,1.18944-10.31908-1.515q-.69572,3.17319-1.24224,6.40407a7.129,7.129,0,0,0,4.24643,2.58305A7.49533,7.49533,0,0,0,122.75966,153.31091Z"/><path class="cls-86" d="M122.75966,153.31091q.47538-2.868,1.07278-5.69033c-4.13632,2.18846-7.442,1.18944-10.31908-1.515q-.69572,3.17319-1.24224,6.40407a7.129,7.129,0,0,0,4.24643,2.58305A7.49533,7.49533,0,0,0,122.75966,153.31091Z"/><path class="cls-87" d="M121.294,166.19478q.22784-3.63816.66092-7.21218a13.22978,13.22978,0,0,0-2.59421,1.97468c-2.75543,2.50429-4.73134,2.51657-6.74731-.798a11.69583,11.69583,0,0,0-1.22146-1.66153q-.47394,3.80118-.73994,7.66961a7.43972,7.43972,0,0,0,4.59573,1.96624A7.70124,7.70124,0,0,0,121.294,166.19478Z"/><path class="cls-88" d="M121.294,166.19478q.22784-3.63816.66092-7.21218a13.22978,13.22978,0,0,0-2.59421,1.97468c-2.75543,2.50429-4.73134,2.51657-6.74731-.798a11.69583,11.69583,0,0,0-1.22146-1.66153q-.47394,3.80118-.73994,7.66961a7.43972,7.43972,0,0,0,4.59573,1.96624A7.70124,7.70124,0,0,0,121.294,166.19478Z"/><path class="cls-89" d="M365.06045,129.34149c2.76819,2.318,5.63107,3.78418,9.36146,2.13057a8.24471,8.24471,0,0,0,1.48413-.85886q-1.55283-4.455-3.4042-8.76954a28.97971,28.97971,0,0,1-9.16986,3.20592C363.93205,126.46844,364.51165,127.89758,365.06045,129.34149Z"/><path class="cls-90" d="M365.06045,129.34149c2.76819,2.318,5.63107,3.78418,9.36146,2.13057a8.24471,8.24471,0,0,0,1.48413-.85886q-1.55283-4.455-3.4042-8.76954a28.97971,28.97971,0,0,1-9.16986,3.20592C363.93205,126.46844,364.51165,127.89758,365.06045,129.34149Z"/><path class="cls-91" d="M368.9273,141.29522c2.30917,2.384,4.78471,3.99419,8.90966,2.91814a6.13186,6.13186,0,0,0,1.829-.82763q-1.02258-4.23106-2.30856-8.36043c-2.827,1.40791-5.67309,1.85457-9.7693,1.65935Q368.29909,138.97312,368.9273,141.29522Z"/><path class="cls-92" d="M368.9273,141.29522c2.30917,2.384,4.78471,3.99419,8.90966,2.91814a6.13186,6.13186,0,0,0,1.829-.82763q-1.02258-4.23106-2.30856-8.36043c-2.827,1.40791-5.67309,1.85457-9.7693,1.65935Q368.29909,138.97312,368.9273,141.29522Z"/><path class="cls-93" d="M370.661,148.62513q.52307,2.54577.94355,5.12524c2.30789,2.81266,4.93539,4.62191,9.17029,3.30368a8.74107,8.74107,0,0,0,1.3829-.57339q-.63449-4.542-1.57025-8.98972A23.67162,23.67162,0,0,1,370.661,148.62513Z"/><path class="cls-94" d="M370.661,148.62513q.52307,2.54577.94355,5.12524c2.30789,2.81266,4.93539,4.62191,9.17029,3.30368a8.74107,8.74107,0,0,0,1.3829-.57339q-.63449-4.542-1.57025-8.98972A23.67162,23.67162,0,0,1,370.661,148.62513Z"/><path class="cls-95" d="M122.87307,129.27317a7.02674,7.02674,0,0,0,6.52083-.39414q.93414-2.43518,1.961-4.82113c-4.11438.82558-7.33322-.14738-9.698-3.1027q-1.22974,2.82155-2.33113,5.71267A7.58682,7.58682,0,0,0,122.87307,129.27317Z"/><path class="cls-96" d="M122.87307,129.27317a7.02674,7.02674,0,0,0,6.52083-.39414q.93414-2.43518,1.961-4.82113c-4.11438.82558-7.33322-.14738-9.698-3.1027q-1.22974,2.82155-2.33113,5.71267A7.58682,7.58682,0,0,0,122.87307,129.27317Z"/><path class="cls-97" d="M127.01875,116.57071a6.87237,6.87237,0,0,0,7.63108.48211c.71454-1.40757,1.44725-2.80376,2.21207-4.17942a8.71962,8.71962,0,0,1-9.09006-4.202q-1.55729,2.77014-2.98713,5.62194A7.52678,7.52678,0,0,0,127.01875,116.57071Z"/><path class="cls-98" d="M127.01875,116.57071a6.87237,6.87237,0,0,0,7.63108.48211c.71454-1.40757,1.44725-2.80376,2.21207-4.17942a8.71962,8.71962,0,0,1-9.09006-4.202q-1.55729,2.77014-2.98713,5.62194A7.52678,7.52678,0,0,0,127.01875,116.57071Z"/><path class="cls-99" d="M156.61019,86.306q2.04-2.10207,4.17558-4.106c-2.51028-.57982-5.35775.11614-6.51451-1.74353a10.6524,10.6524,0,0,1-1.30856-4.06512q-2.39837,2.27173-4.68631,4.658a7.52729,7.52729,0,0,0,1.38294,2.55857A6.97755,6.97755,0,0,0,156.61019,86.306Z"/><path class="cls-100" d="M156.61019,86.306q2.04-2.10207,4.17558-4.106c-2.51028-.57982-5.35775.11614-6.51451-1.74353a10.6524,10.6524,0,0,1-1.30856-4.06512q-2.39837,2.27173-4.68631,4.658a7.52729,7.52729,0,0,0,1.38294,2.55857A6.97755,6.97755,0,0,0,156.61019,86.306Z"/><path class="cls-101" d="M357.94111,113.87357q.83565,1.53438,1.63033,3.09286c4.68453,3.42469,7.78306,3.72455,10.63978,1.76968a5.99615,5.99615,0,0,0,.669-.53875q-1.3722-2.96088-2.88111-5.84546C365.69405,114.48326,362.29991,114.85008,357.94111,113.87357Z"/><path class="cls-102" d="M357.94111,113.87357q.83565,1.53438,1.63033,3.09286c4.68453,3.42469,7.78306,3.72455,10.63978,1.76968a5.99615,5.99615,0,0,0,.669-.53875q-1.3722-2.96088-2.88111-5.84546C365.69405,114.48326,362.29991,114.85008,357.94111,113.87357Z"/><path class="cls-103" d="M133.9336,105.21654a7.15833,7.15833,0,0,0,7.01463.841q1.646-2.56441,3.41021-5.04072c-2.68919-.18871-5.429,1.39573-7.50469-.33032a6.01887,6.01887,0,0,1-1.8413-3.50822q-1.84663,2.63181-3.571,5.35509A7.56684,7.56684,0,0,0,133.9336,105.21654Z"/><path class="cls-104" d="M133.9336,105.21654a7.15833,7.15833,0,0,0,7.01463.841q1.646-2.56441,3.41021-5.04072c-2.68919-.18871-5.429,1.39573-7.50469-.33032a6.01887,6.01887,0,0,1-1.8413-3.50822q-1.84663,2.63181-3.571,5.35509A7.56684,7.56684,0,0,0,133.9336,105.21654Z"/><path class="cls-105" d="M196.808,54.05279a6.1656,6.1656,0,0,0,2.31168,3.40456q2.662-1.09824,5.38324-2.07376c-2.4986-2.52506-3.04105-5.57008-.89086-9.42582q-2.80235.93711-5.55453,1.98563A5.83838,5.83838,0,0,0,196.808,54.05279Z"/><path class="cls-106" d="M196.808,54.05279a6.1656,6.1656,0,0,0,2.31168,3.40456q2.662-1.09824,5.38324-2.07376c-2.4986-2.52506-3.04105-5.57008-.89086-9.42582q-2.80235.93711-5.55453,1.98563A5.83838,5.83838,0,0,0,196.808,54.05279Z"/><path class="cls-107" d="M148.547,95.45892q1.322-1.6548,2.69968-3.261a8.97435,8.97435,0,0,1-7.95258-5.663q-2.051,2.38436-3.99318,4.86442a7.27681,7.27681,0,0,0,1.38271,2.13432A6.75453,6.75453,0,0,0,148.547,95.45892Z"/><path class="cls-108" d="M148.547,95.45892q1.322-1.6548,2.69968-3.261a8.97435,8.97435,0,0,1-7.95258-5.663q-2.051,2.38436-3.99318,4.86442a7.27681,7.27681,0,0,0,1.38271,2.13432A6.75453,6.75453,0,0,0,148.547,95.45892Z"/><path class="cls-109" d="M351.54514,103.37945q1.14894,1.694,2.24656,3.42394c3.11683,1.82356,6.23648,2.85864,9.77463.24326a9.14332,9.14332,0,0,0,1.0041-.8675q-1.44762-2.45151-2.99915-4.83442a4.14464,4.14464,0,0,1-1.13124,1.38535C358.08721,104.56587,354.76138,102.546,351.54514,103.37945Z"/><path class="cls-110" d="M351.54514,103.37945q1.14894,1.694,2.24656,3.42394c3.11683,1.82356,6.23648,2.85864,9.77463.24326a9.14332,9.14332,0,0,0,1.0041-.8675q-1.44762-2.45151-2.99915-4.83442a4.14464,4.14464,0,0,1-1.13124,1.38535C358.08721,104.56587,354.76138,102.546,351.54514,103.37945Z"/><path class="cls-111" d="M320.37876,71.42624a6.32867,6.32867,0,0,0,5.54012-4.0246,6.99031,6.99031,0,0,0,.66825-2.80694q-3.47036-2.49811-7.1031-4.78281a24.22574,24.22574,0,0,1-4.62715,7.88438Q317.67031,69.49065,320.37876,71.42624Z"/><path class="cls-112" d="M320.37876,71.42624a6.32867,6.32867,0,0,0,5.54012-4.0246,6.99031,6.99031,0,0,0,.66825-2.80694q-3.47036-2.49811-7.1031-4.78281a24.22574,24.22574,0,0,1-4.62715,7.88438Q317.67031,69.49065,320.37876,71.42624Z"/><path class="cls-113" d="M183.17694,59.30078a6.2408,6.2408,0,0,0,3.71386,4.00016q2.36946-1.29145,4.79645-2.48464c-3.01166-2.23155-3.79474-5.25035-2.91573-8.90848q-2.91635,1.37453-5.75907,2.8803A6.442,6.442,0,0,0,183.17694,59.30078Z"/><path class="cls-114" d="M183.17694,59.30078a6.2408,6.2408,0,0,0,3.71386,4.00016q2.36946-1.29145,4.79645-2.48464c-3.01166-2.23155-3.79474-5.25035-2.91573-8.90848q-2.91635,1.37453-5.75907,2.8803A6.442,6.442,0,0,0,183.17694,59.30078Z"/><path class="cls-115" d="M296.9688,54.109a9.14669,9.14669,0,0,1-4.64326,2.22238q3.15832,1.21115,6.22907,2.58586c.01854-.00271.03725-.00417.05579-.00688,4.54857-.66862,5.39123-3.31253,2.224-6.60275a22.07871,22.07871,0,0,0-7.522-5.25741c-.56765-.2048-1.13433-.41151-1.70556-.609a19.70037,19.70037,0,0,0-2.29059-.568C291.82281,48.5707,294.32933,51.26826,296.9688,54.109Z"/><path class="cls-116" d="M296.9688,54.109a9.14669,9.14669,0,0,1-4.64326,2.22238q3.15832,1.21115,6.22907,2.58586c.01854-.00271.03725-.00417.05579-.00688,4.54857-.66862,5.39123-3.31253,2.224-6.60275a22.07871,22.07871,0,0,0-7.522-5.25741c-.56765-.2048-1.13433-.41151-1.70556-.609a19.70037,19.70037,0,0,0-2.29059-.568C291.82281,48.5707,294.32933,51.26826,296.9688,54.109Z"/><path class="cls-117" d="M165.86269,77.67724q1.866-1.57361,3.79515-3.07136c-3.55521-1.31129-5.72984-3.61686-6.44115-7.01492Q160.79,69.474,158.448,71.4605a6.73116,6.73116,0,0,0,1.24013,3.03875A6.9255,6.9255,0,0,0,165.86269,77.67724Z"/><path class="cls-118" d="M165.86269,77.67724q1.866-1.57361,3.79515-3.07136c-3.55521-1.31129-5.72984-3.61686-6.44115-7.01492Q160.79,69.474,158.448,71.4605a6.73116,6.73116,0,0,0,1.24013,3.03875A6.9255,6.9255,0,0,0,165.86269,77.67724Z"/><path class="cls-119" d="M335.721,84.34911q1.47294,1.45517,2.89649,2.958c4.76017,1.2541,7.65637.33946,9.48819-2.55715a5.26033,5.26033,0,0,0,.31014-.575q-2.06553-2.29566-4.23121-4.49921C343.06181,82.64174,339.70573,83.71021,335.721,84.34911Z"/><path class="cls-120" d="M335.721,84.34911q1.47294,1.45517,2.89649,2.958c4.76017,1.2541,7.65637.33946,9.48819-2.55715a5.26033,5.26033,0,0,0,.31014-.575q-2.06553-2.29566-4.23121-4.49921C343.06181,82.64174,339.70573,83.71021,335.721,84.34911Z"/><path class="cls-121" d="M344.35882,93.793q1.15353,1.39617,2.26824,2.8241c3.25567,1.52423,6.46969,2.10181,9.89209-1.06385a5.56444,5.56444,0,0,0,.60633-.66993q-1.808-2.46854-3.72446-4.8524C351.63489,92.69383,348.15683,93.40887,344.35882,93.793Z"/><path class="cls-122" d="M344.35882,93.793q1.15353,1.39617,2.26824,2.8241c3.25567,1.52423,6.46969,2.10181,9.89209-1.06385a5.56444,5.56444,0,0,0,.60633-.66993q-1.808-2.46854-3.72446-4.8524C351.63489,92.69383,348.15683,93.40887,344.35882,93.793Z"/><path class="cls-123" d="M307.88378,58.66047c-.51857,1.59569-2.06417,2.161-3.80536,2.88751q2.69142,1.3635,5.30542,2.84944a5.81841,5.81841,0,0,0,3.80861-4.05019,6.04469,6.04469,0,0,0-.06717-4.30064q-3.30544-1.83542-6.7277-3.48566C307.19242,54.82217,308.50608,56.74581,307.88378,58.66047Z"/><path class="cls-124" d="M307.88378,58.66047c-.51857,1.59569-2.06417,2.161-3.80536,2.88751q2.69142,1.3635,5.30542,2.84944a5.81841,5.81841,0,0,0,3.80861-4.05019,6.04469,6.04469,0,0,0-.06717-4.30064q-3.30544-1.83542-6.7277-3.48566C307.19242,54.82217,308.50608,56.74581,307.88378,58.66047Z"/><path class="cls-125" d="M175.939,70.0118q3.1512-2.15911,6.43349-4.12942c-1.35942-2.42689-3.13986-5.60544-4.57841-8.17359q-4.03255,2.37018-7.88607,5.00846a6.32325,6.32325,0,0,0,.87662,3.7354A6.55486,6.55486,0,0,0,175.939,70.0118Z"/><path class="cls-126" d="M175.939,70.0118q3.1512-2.15911,6.43349-4.12942c-1.35942-2.42689-3.13986-5.60544-4.57841-8.17359q-4.03255,2.37018-7.88607,5.00846a6.32325,6.32325,0,0,0,.87662,3.7354A6.55486,6.55486,0,0,0,175.939,70.0118Z"/><path class="cls-127" d="M207.838,50.51565a3.79611,3.79611,0,0,0,1.98191,3.09215c2.32516-.72067,4.67481-1.38255,7.05271-1.96955a10.58489,10.58489,0,0,1-2.275-1.07225c-1.52491-.99539-1.56661-1.77211.414-2.08474,2.17706-2.20157,4.35977-4.40885,6.81362-6.89038a4.456,4.456,0,0,0-1.12768-.13936c-.622.121-1.23936.25539-1.85849.38492-.65806.2723-1.25682.63155-1.84471.92662C213.24173,44.64657,207.31345,46.04906,207.838,50.51565Z"/><path class="cls-128" d="M207.838,50.51565a3.79611,3.79611,0,0,0,1.98191,3.09215c2.32516-.72067,4.67481-1.38255,7.05271-1.96955a10.58489,10.58489,0,0,1-2.275-1.07225c-1.52491-.99539-1.56661-1.77211.414-2.08474,2.17706-2.20157,4.35977-4.40885,6.81362-6.89038a4.456,4.456,0,0,0-1.12768-.13936c-.622.121-1.23936.25539-1.85849.38492-.65806.2723-1.25682.63155-1.84471.92662C213.24173,44.64657,207.31345,46.04906,207.838,50.51565Z"/><path class="cls-129" d="M215.03128,48.4771l-.01967.00416-.146.1476Z"/><path class="cls-130" d="M215.03128,48.4771l-.01967.00416-.146.1476Z"/><path class="cls-131" d="M326.6957,76.24816q1.61054,1.31182,3.175,2.67559c2.94959.47333,5.6488.01834,7.81661-3.47656a4.84345,4.84345,0,0,0,.58473-1.42356q-2.415-2.17692-4.93412-4.23966C332.798,73.13819,330.26071,75.05135,326.6957,76.24816Z"/><path class="cls-132" d="M326.6957,76.24816q1.61054,1.31182,3.175,2.67559c2.94959.47333,5.6488.01834,7.81661-3.47656a4.84345,4.84345,0,0,0,.58473-1.42356q-2.415-2.17692-4.93412-4.23966C332.798,73.13819,330.26071,75.05135,326.6957,76.24816Z"/><path class="cls-133" d="M187.821,288.70707a8.29166,8.29166,0,0,0,.62789-2.98588q-4.19275-2.20731-8.18805-4.71567c.10339.15924.199.32359.31052.4772,3.23224,4.45136,1.23347,5.5215-2.99753,6.47989a19.11683,19.11683,0,0,0-5.23844,2.01052q2.80581,1.83162,5.70788,3.52758C183.30567,293.22969,186.63608,291.59421,187.821,288.70707Z"/><path class="cls-134" d="M251.30844,300.10816q-3.66559.11706-7.37631.0225a9.13835,9.13835,0,0,1-1.94753,1.65625,21.11339,21.11339,0,0,0-7.82535,9.70743c.055.00515.10971.011.16473.016C240.71976,308.496,250.30081,308.60061,251.30844,300.10816Z"/><path class="cls-135" d="M251.30844,300.10816q-3.66559.11706-7.37631.0225a9.13835,9.13835,0,0,1-1.94753,1.65625,21.11339,21.11339,0,0,0-7.82535,9.70743c.055.00515.10971.011.16473.016C240.71976,308.496,250.30081,308.60061,251.30844,300.10816Z"/><path class="cls-136" d="M235.27735,299.69818c.00257-.02911.00023-.05733.00254-.08639q-3.482-.32677-6.90277-.83877c-.29652,1.19262-1.73554,2.2223-3.786,3.40546a19.844,19.844,0,0,0-7.05012,6.741c.87056.19045,1.74576.369,2.62281.543C229.69989,307.62832,234.875,304.21545,235.27735,299.69818Z"/><path class="cls-137" d="M223.80284,48.03881a7.334,7.334,0,0,0,.59253,1.99506q2.99065-.54582,6.02585-.94888c-1.45261-2.82007-.93535-5.89816,2.26887-9.407q-1.521.15719-3.03306.34646C226.04946,41.55,223.08008,43.455,223.80284,48.03881Z"/><path class="cls-138" d="M223.80284,48.03881a7.334,7.334,0,0,0,.59253,1.99506q2.99065-.54582,6.02585-.94888c-1.45261-2.82007-.93535-5.89816,2.26887-9.407q-1.521.15719-3.03306.34646C226.04946,41.55,223.08008,43.455,223.80284,48.03881Z"/><path class="cls-139" d="M235.21079,46.0309a3.96827,3.96827,0,0,0,.68888,2.44585q3.7359-.32953,7.52754-.434a9.45115,9.45115,0,0,1-1.52619-1.04486c-1.37579-1.19314-1.31155-1.96827.693-2.0093,2.45571-1.88589,4.91768-3.77658,7.68554-5.90222-.10055-.04156-.19459-.06135-.29274-.09469-.93595-.02183-1.8707-.03748-2.80292-.04032-.64963.18061-1.25825.439-1.84957.64093C241.36087,40.94922,235.29709,41.53441,235.21079,46.0309Z"/><path class="cls-140" d="M235.21079,46.0309a3.96827,3.96827,0,0,0,.68888,2.44585q3.7359-.32953,7.52754-.434a9.45115,9.45115,0,0,1-1.52619-1.04486c-1.37579-1.19314-1.31155-1.96827.693-2.0093,2.45571-1.88589,4.91768-3.77658,7.68554-5.90222-.10055-.04156-.19459-.06135-.29274-.09469-.93595-.02183-1.8707-.03748-2.80292-.04032-.64963.18061-1.25825.439-1.84957.64093C241.36087,40.94922,235.29709,41.53441,235.21079,46.0309Z"/><path class="cls-141" d="M242.61408,44.98719l-.02.00145-.16466.12642Z"/><path class="cls-142" d="M242.61408,44.98719l-.02.00145-.16466.12642Z"/><path class="cls-143" d="M278.08815,51.82926q2.66028.67038,5.27394,1.448a6.11314,6.11314,0,0,0,1.64016-4.11409,6.004,6.004,0,0,0-2.46977-5.509q-3.12931-.84223-6.32082-1.53685C278.96489,45.54409,279.87462,48.77388,278.08815,51.82926Z"/><path class="cls-144" d="M278.08815,51.82926q2.66028.67038,5.27394,1.448a6.11314,6.11314,0,0,0,1.64016-4.11409,6.004,6.004,0,0,0-2.46977-5.509q-3.12931-.84223-6.32082-1.53685C278.96489,45.54409,279.87462,48.77388,278.08815,51.82926Z"/><path class="cls-145" d="M265.97131,48.16323l.02.00288.18763-.08872Z"/><path class="cls-146" d="M265.97131,48.16323l.02.00288.18763-.08872Z"/><path class="cls-147" d="M267.09392,46.349c1.092,1.45733.86524,2.20135-1.10264,1.8171q-.99923.47229-2.00426.94739,4.29179.574,8.48039,1.43548a4.04128,4.04128,0,0,0,.96042-1.83849c1.14647-4.84177-5.09534-5.83064-8.58982-7.88-.40744-.239-.82423-.56433-1.27217-.8553q-1.58185-.193-3.17541-.35019c-.03314.0157-.06249.01934-.0961.03639C261.87394,42.70758,265.20554,43.829,267.09392,46.349Z"/><path class="cls-148" d="M267.09392,46.349c1.092,1.45733.86524,2.20135-1.10264,1.8171q-.99923.47229-2.00426.94739,4.29179.574,8.48039,1.43548a4.04128,4.04128,0,0,0,.96042-1.83849c1.14647-4.84177-5.09534-5.83064-8.58982-7.88-.40744-.239-.82423-.56433-1.27217-.8553q-1.58185-.193-3.17541-.35019c-.03314.0157-.06249.01934-.0961.03639C261.87394,42.70758,265.20554,43.829,267.09392,46.349Z"/></g></svg>