<?xml version="1.0" encoding="UTF-8" standalone="no"?>
<svg
   id="svg44"
   xml:space="preserve"
   enable-background="new 600 288 253 296"
   overflow="visible"
   viewBox="600 288 213.77052 244.28885"
   height="244.28885"
   width="213.77052"
   y="0px"
   x="0px"
   version="1.1"
   sodipodi:docname="flame_channel_parser.svg"
   inkscape:version="1.4 (e7c3feb1, 2024-10-09)"
   xmlns:inkscape="http://www.inkscape.org/namespaces/inkscape"
   xmlns:sodipodi="http://sodipodi.sourceforge.net/DTD/sodipodi-0.dtd"
   xmlns="http://www.w3.org/2000/svg"
   xmlns:svg="http://www.w3.org/2000/svg"
   xmlns:rdf="http://www.w3.org/1999/02/22-rdf-syntax-ns#"
   xmlns:cc="http://creativecommons.org/ns#"
   xmlns:dc="http://purl.org/dc/elements/1.1/"><sodipodi:namedview
   id="namedview1"
   pagecolor="#ffffff"
   bordercolor="#000000"
   borderopacity="0.25"
   inkscape:showpageshadow="2"
   inkscape:pageopacity="0.0"
   inkscape:pagecheckerboard="0"
   inkscape:deskcolor="#d1d1d1"
   inkscape:zoom="1.08"
   inkscape:cx="109.72222"
   inkscape:cy="128.24074"
   inkscape:current-layer="svg44" /><metadata
   id="metadata48"><rdf:RDF><cc:Work
       rdf:about=""><dc:format>image/svg+xml</dc:format><dc:type
         rdf:resource="http://purl.org/dc/dcmitype/StillImage" /></cc:Work></rdf:RDF></metadata>
<defs
   id="defs2">
</defs>

<line
   id="line6"
   y2="333.7774"
   x2="687.03802"
   y1="316.7774"
   x1="649.70404"
   stroke-width="2"
   stroke="#231f20"
   fill="none" />
<polyline
   id="polyline8"
   points="639.595,316.805 645.595,310.805 651.928,317.139 "
   stroke-width="3"
   stroke="#231f20"
   fill="none"
   transform="translate(-16.691926,-20.683596)" />
<polyline
   id="polyline10"
   points="645.539,310.178 645.539,451.061 791.294,451.061 "
   stroke-width="3"
   stroke="#231f20"
   fill="none"
   transform="translate(-16.691926,-20.683596)" />
<path
   id="path12"
   d="m 712.37007,368.7774 c 0.604,-0.15 1.255,-0.295 1.947,-0.436"
   stroke-width="3"
   stroke="#be1e2d"
   fill="none" />
<path
   id="path14"
   d="m 718.12707,367.6304 c 15.412,-2.76 42.825,-7.609 50.882,-47.971"
   stroke-dasharray="3.8784, 3.8784"
   stroke-width="3"
   stroke="#be1e2d"
   fill="none" />
<path
   id="path16"
   d="m 769.37007,317.7504 c 0.117,-0.648 0.229,-1.307 0.335,-1.973"
   stroke-width="3"
   stroke="#be1e2d"
   fill="none" />
<path
   id="path18"
   d="m 629.03707,316.7774 h 20.667 c 0,0 16,8 19.333,24 3.333,16 7.999,68 17.333,56.667 9.334,-11.333 12.666,-25.334 26,-28.667"
   stroke-width="3"
   stroke="#231f20"
   fill="none" />
<circle
   id="circle20"
   r="2.3329999"
   cy="333.7774"
   cx="687.03802"
   fill="#231f20" />
<line
   id="line22"
   y2="419.21841"
   x2="675.67004"
   y1="383.55341"
   x1="695.93805"
   stroke-width="2"
   stroke="#231f20"
   fill="none" />
<circle
   id="circle24"
   r="2.3329999"
   cy="419.21942"
   cx="675.67004"
   fill="#231f20" />
<rect
   id="rect26"
   height="8"
   width="8"
   stroke-width="2"
   stroke="#231f20"
   fill="#ffffff"
   y="377.11041"
   x="693.03802" />
<polyline
   id="polyline28"
   points="785.294,445.061 791.294,451.061 784.96,457.395 "
   stroke-width="3"
   stroke="#231f20"
   fill="none"
   transform="translate(-16.691926,-20.683596)" />
<g
   id="text38"
   transform="translate(599.28857,496.6406)"
   aria-label="flamechannelparser"><path
     id="path50"
     style="font-size:31px;font-family:MyriadPro-Regular;letter-spacing:2;fill:#be1e2d"
     d="M 8.8701172,-23.552734 H 16.620117 V 0 H 13.819824 V -21.236816 H 8.8398438 q -1.4985352,0 -2.0888672,0.605468 -0.5751954,0.605469 -0.5751954,2.179688 v 1.498535 h 4.5864258 v 2.164551 H 6.1757812 V 0 H 3.3754883 V -14.788574 H 0.71142578 v -2.164551 H 3.3754883 v -1.180664 q 0,-2.830566 1.3168945,-4.117188 1.3168945,-1.301757 4.1777344,-1.301757 z" /><path
     id="path52"
     style="font-size:31px;font-family:MyriadPro-Regular;letter-spacing:2;fill:#be1e2d"
     d="m 34.182617,-8.5219727 q -3.375488,0 -4.677246,0.7719727 -1.301758,0.7719727 -1.301758,2.6337891 0,1.4833984 0.96875,2.3613281 0.983887,0.862793 2.664063,0.862793 2.315918,0 3.708496,-1.6347657 1.407715,-1.6499023 1.407715,-4.3745117 v -0.6206055 z m 5.555176,-1.1503906 V 0 h -2.785156 v -2.5732422 q -0.953614,1.5439453 -2.376465,2.28564454 -1.422852,0.7265625 -3.481445,0.7265625 -2.603516,0 -4.147461,-1.45312504 -1.528809,-1.4682617 -1.528809,-3.9204101 0,-2.8608399 1.907227,-4.3139649 1.922363,-1.4531248 5.721679,-1.4531248 h 3.905274 v -0.272461 q 0,-1.922363 -1.271485,-2.966797 -1.256347,-1.05957 -3.541992,-1.05957 -1.453125,0 -2.830566,0.348144 -1.377442,0.348145 -2.648926,1.044434 v -2.573242 q 1.528809,-0.590332 2.966797,-0.87793 1.437988,-0.302734 2.800293,-0.302734 3.678222,0 5.494629,1.907226 1.816406,1.907227 1.816406,5.7822267 z" /><path
     id="path54"
     style="font-size:31px;font-family:MyriadPro-Regular;letter-spacing:2;fill:#be1e2d"
     d="m 60.688965,-13.69873 q 1.044433,-1.876954 2.497558,-2.77002 1.453125,-0.893066 3.420899,-0.893066 2.648926,0 4.086914,1.861816 1.437988,1.84668 1.437988,5.267578 V 0 h -2.800293 v -10.141602 q 0,-2.437011 -0.862793,-3.617675 -0.862793,-1.180664 -2.633789,-1.180664 -2.164551,0 -3.420898,1.437988 -1.256348,1.437988 -1.256348,3.92041 V 0 H 58.35791 v -10.141602 q 0,-2.452148 -0.862793,-3.617675 -0.862793,-1.180664 -2.664062,-1.180664 -2.134278,0 -3.390625,1.453125 -1.256348,1.437988 -1.256348,3.905273 V 0 h -2.800293 v -16.953125 h 2.800293 v 2.633789 q 0.953613,-1.559082 2.285645,-2.300781 1.332031,-0.741699 3.163574,-0.741699 1.846679,0 3.133301,0.938476 1.301757,0.938477 1.922363,2.72461 z" /><path
     id="path56"
     style="font-size:31px;font-family:MyriadPro-Regular;letter-spacing:2;fill:#be1e2d"
     d="m 81.871361,-9.1728516 v 1.3623047 H 69.065697 q 0.18164,2.8759766 1.725586,4.3896485 1.559082,1.4985351 4.329101,1.4985351 1.604492,0 3.103028,-0.3935547 1.513671,-0.3935547 2.99707,-1.180664 v 2.63378903 q -1.498535,0.63574219 -3.072754,0.96875 -1.574219,0.33300781 -3.193848,0.33300781 -4.05664,0 -6.433105,-2.36132814 -2.361328,-2.3613281 -2.361328,-6.3876953 0,-4.1625974 2.240234,-6.5996094 2.255371,-2.452148 6.069824,-2.452148 3.420899,0 5.403809,2.209961 1.998047,2.194824 1.998047,5.9790034 z m -2.785156,-0.8173828 q -0.03027,-2.2856446 -1.286622,-3.6479496 -1.241211,-1.362304 -3.299804,-1.362304 -2.331055,0 -3.73877,1.316894 -1.392578,1.316895 -1.604492,3.7084963 z" /><path
     id="path58"
     style="font-size:31px;font-family:MyriadPro-Regular;letter-spacing:2"
     d="m 97.705582,-16.302246 v 2.603516 q -1.180664,-0.650879 -2.376465,-0.96875 -1.180664,-0.333008 -2.391602,-0.333008 -2.709472,0 -4.208008,1.725586 -1.498535,1.710449 -1.498535,4.8134762 0,3.1030274 1.498535,4.8286133 1.498536,1.7104492 4.208008,1.7104492 1.210938,0 2.391602,-0.3178711 1.195801,-0.3330078 2.376465,-0.9838867 v 2.57324219 q -1.165528,0.54492188 -2.421875,0.81738282 -1.241211,0.27246093 -2.648926,0.27246093 -3.82959,0 -6.084961,-2.40673824 -2.255371,-2.4067383 -2.255371,-6.4936524 0,-4.1474612 2.270508,-6.5239262 2.285644,-2.376464 6.251465,-2.376464 1.286621,0 2.512695,0.272461 1.226074,0.257324 2.376465,0.787109 z" /><path
     id="path60"
     style="font-size:31px;font-family:MyriadPro-Regular;letter-spacing:2"
     d="M 118.67189,-10.232422 V 0 h -2.78516 v -10.141602 q 0,-2.406738 -0.93847,-3.602539 -0.93848,-1.1958 -2.81543,-1.1958 -2.25537,0 -3.55713,1.437988 -1.30176,1.437988 -1.30176,3.92041 V 0 h -2.80029 v -23.552734 h 2.80029 v 9.233398 q 0.99902,-1.528809 2.34619,-2.285644 1.36231,-0.756836 3.1333,-0.756836 2.92139,0 4.41993,1.816406 1.49853,1.801269 1.49853,5.312988 z" /><path
     id="path62"
     style="font-size:31px;font-family:MyriadPro-Regular;letter-spacing:2"
     d="m 133.96193,-8.5219727 q -3.37549,0 -4.67725,0.7719727 -1.30175,0.7719727 -1.30175,2.6337891 0,1.4833984 0.96875,2.3613281 0.98388,0.862793 2.66406,0.862793 2.31592,0 3.70849,-1.6347657 1.40772,-1.6499023 1.40772,-4.3745117 v -0.6206055 z m 5.55518,-1.1503906 V 0 h -2.78516 v -2.5732422 q -0.95361,1.5439453 -2.37647,2.28564454 -1.42285,0.7265625 -3.48144,0.7265625 -2.60352,0 -4.14746,-1.45312504 -1.52881,-1.4682617 -1.52881,-3.9204101 0,-2.8608399 1.90723,-4.3139649 1.92236,-1.4531248 5.72168,-1.4531248 h 3.90527 v -0.272461 q 0,-1.922363 -1.27149,-2.966797 -1.25634,-1.05957 -3.54199,-1.05957 -1.45312,0 -2.83056,0.348144 -1.37745,0.348145 -2.64893,1.044434 v -2.573242 q 1.52881,-0.590332 2.9668,-0.87793 1.43799,-0.302734 2.80029,-0.302734 3.67822,0 5.49463,1.907226 1.81641,1.907227 1.81641,5.7822267 z" /><path
     id="path64"
     style="font-size:31px;font-family:MyriadPro-Regular;letter-spacing:2"
     d="M 161.36134,-10.232422 V 0 h -2.78515 v -10.141602 q 0,-2.406738 -0.93848,-3.602539 -0.93848,-1.1958 -2.81543,-1.1958 -2.25537,0 -3.55713,1.437988 -1.30176,1.437988 -1.30176,3.92041 V 0 h -2.80029 v -16.953125 h 2.80029 v 2.633789 q 0.99903,-1.528809 2.3462,-2.285644 1.3623,-0.756836 3.1333,-0.756836 2.92138,0 4.41992,1.816406 1.49853,1.801269 1.49853,5.312988 z" /><path
     id="path66"
     style="font-size:31px;font-family:MyriadPro-Regular;letter-spacing:2"
     d="M 183.03908,-10.232422 V 0 h -2.78516 v -10.141602 q 0,-2.406738 -0.93848,-3.602539 -0.93847,-1.1958 -2.81542,-1.1958 -2.25538,0 -3.55713,1.437988 -1.30176,1.437988 -1.30176,3.92041 V 0 h -2.80029 v -16.953125 h 2.80029 v 2.633789 q 0.99902,-1.528809 2.34619,-2.285644 1.3623,-0.756836 3.1333,-0.756836 2.92139,0 4.41992,1.816406 1.49854,1.801269 1.49854,5.312988 z" /><path
     id="path68"
     style="font-size:31px;font-family:MyriadPro-Regular;letter-spacing:2"
     d="m 205.1255,-9.1728516 v 1.3623047 h -12.80566 q 0.18164,2.8759766 1.72559,4.3896485 1.55908,1.4985351 4.3291,1.4985351 1.60449,0 3.10302,-0.3935547 1.51368,-0.3935547 2.99707,-1.180664 v 2.63378903 q -1.49853,0.63574219 -3.07275,0.96875 -1.57422,0.33300781 -3.19385,0.33300781 -4.05664,0 -6.4331,-2.36132814 -2.36133,-2.3613281 -2.36133,-6.3876953 0,-4.1625974 2.24023,-6.5996094 2.25537,-2.452148 6.06983,-2.452148 3.4209,0 5.40381,2.209961 1.99804,2.194824 1.99804,5.9790034 z m -2.78515,-0.8173828 q -0.0303,-2.2856446 -1.28662,-3.6479496 -1.24121,-1.362304 -3.29981,-1.362304 -2.33105,0 -3.73877,1.316894 -1.39258,1.316895 -1.60449,3.7084963 z" /><path
     id="path70"
     style="font-size:31px;font-family:MyriadPro-Regular;letter-spacing:2"
     d="m 211.69679,-23.552734 h 2.78516 V 0 h -2.78516 z" /><path
     id="path72"
     style="font-size:31px;font-family:MyriadPro-Regular;letter-spacing:2;fill:#be1e2d"
     d="m 59.463722,26.657032 v 8.991211 H 56.663429 V 12.246876 h 2.800293 v 2.573242 q 0.87793,-1.513672 2.209961,-2.240234 1.347168,-0.7417 3.208985,-0.7417 3.08789,0 5.010253,2.452149 1.9375,2.452148 1.9375,6.448242 0,3.996094 -1.9375,6.448242 -1.922363,2.452149 -5.010253,2.452149 -1.861817,0 -3.208985,-0.726563 -1.332031,-0.741699 -2.209961,-2.255371 z m 9.475586,-5.918457 q 0,-3.072754 -1.271484,-4.813477 -1.256348,-1.755859 -3.466309,-1.755859 -2.209961,0 -3.481445,1.755859 -1.256348,1.740723 -1.256348,4.813477 0,3.072754 1.256348,4.828613 1.271484,1.740723 3.481445,1.740723 2.209961,0 3.466309,-1.740723 1.271484,-1.755859 1.271484,-4.828613 z" /><path
     id="path74"
     style="font-size:31px;font-family:MyriadPro-Regular;letter-spacing:2;fill:#be1e2d"
     d="m 86.151711,20.678028 q -3.375489,0 -4.677247,0.771973 -1.301757,0.771972 -1.301757,2.633789 0,1.483398 0.96875,2.361328 0.983886,0.862793 2.664062,0.862793 2.315918,0 3.708496,-1.634766 1.407715,-1.649902 1.407715,-4.374511 v -0.620606 z m 5.555175,-1.150391 v 9.672364 H 88.92173 v -2.573242 q -0.953613,1.543945 -2.376465,2.285644 -1.422851,0.726563 -3.481445,0.726563 -2.603516,0 -4.147461,-1.453125 -1.528809,-1.468262 -1.528809,-3.920411 0,-2.860839 1.907227,-4.313964 1.922363,-1.453125 5.72168,-1.453125 H 88.92173 V 18.22588 q 0,-1.922364 -1.271484,-2.966797 -1.256348,-1.059571 -3.541993,-1.059571 -1.453125,0 -2.830566,0.348145 -1.377441,0.348145 -2.648926,1.044434 v -2.573243 q 1.528809,-0.590332 2.966797,-0.877929 1.437988,-0.302735 2.800293,-0.302735 3.678223,0 5.494629,1.907227 1.816406,1.907226 1.816406,5.782226 z" /><path
     id="path76"
     style="font-size:31px;font-family:MyriadPro-Regular;letter-spacing:2;fill:#be1e2d"
     d="m 109.28257,14.850391 q -0.46924,-0.272461 -1.0293,-0.393554 -0.54492,-0.136231 -1.21093,-0.136231 -2.36133,0 -3.63282,1.543946 -1.25634,1.528808 -1.25634,4.404785 v 8.930664 H 99.352882 V 12.246876 h 2.800298 v 2.633789 q 0.87793,-1.543945 2.28564,-2.285645 1.40771,-0.756836 3.4209,-0.756836 0.2876,0 0.63574,0.04541 0.34815,0.03027 0.77197,0.105957 z" /><path
     id="path78"
     style="font-size:31px;font-family:MyriadPro-Regular;letter-spacing:2;fill:#be1e2d"
     d="m 125.04185,12.746387 v 2.63379 q -1.18067,-0.605469 -2.45215,-0.908204 -1.27149,-0.302734 -2.63379,-0.302734 -2.07373,0 -3.11816,0.635742 -1.0293,0.635742 -1.0293,1.907227 0,0.96875 0.7417,1.528808 0.7417,0.544922 2.98193,1.044434 l 0.95361,0.211914 q 2.9668,0.635742 4.20801,1.80127 1.25635,1.15039 1.25635,3.224121 0,2.361328 -1.87695,3.738769 -1.86182,1.377442 -5.13135,1.377442 -1.36231,0 -2.8457,-0.272461 -1.46827,-0.257325 -3.10303,-0.78711 v -2.875976 q 1.54394,0.802246 3.04248,1.210937 1.49853,0.393555 2.9668,0.393555 1.96777,0 3.02734,-0.666016 1.05957,-0.681152 1.05957,-1.907226 0,-1.135254 -0.77197,-1.740723 -0.75684,-0.605469 -3.34522,-1.165527 l -0.96875,-0.227051 q -2.58838,-0.544922 -3.73877,-1.665039 -1.15039,-1.135254 -1.15039,-3.103027 0,-2.391602 1.69532,-3.69336 1.69531,-1.301758 4.81347,-1.301758 1.54395,0 2.90625,0.227051 1.36231,0.227051 2.5127,0.681152 z" /><path
     id="path80"
     style="font-size:31px;font-family:MyriadPro-Regular;letter-spacing:2;fill:#be1e2d"
     d="m 146.90122,20.027149 v 1.362305 h -12.80566 q 0.18164,2.875976 1.72558,4.389648 1.55909,1.498535 4.32911,1.498535 1.60449,0 3.10302,-0.393554 1.51367,-0.393555 2.99707,-1.180664 v 2.633789 q -1.49853,0.635742 -3.07275,0.96875 -1.57422,0.333008 -3.19385,0.333008 -4.05664,0 -6.4331,-2.361329 -2.36133,-2.361328 -2.36133,-6.387695 0,-4.162597 2.24023,-6.599609 2.25537,-2.452149 6.06983,-2.452149 3.4209,0 5.40381,2.209961 1.99804,2.194825 1.99804,5.979004 z m -2.78515,-0.817383 q -0.0303,-2.285644 -1.28663,-3.647949 -1.24121,-1.362305 -3.2998,-1.362305 -2.33105,0 -3.73877,1.316895 -1.39258,1.316895 -1.60449,3.708496 z" /><path
     id="path82"
     style="font-size:31px;font-family:MyriadPro-Regular;letter-spacing:2;fill:#be1e2d"
     d="m 163.29624,14.850391 q -0.46924,-0.272461 -1.0293,-0.393554 -0.54492,-0.136231 -1.21093,-0.136231 -2.36133,0 -3.63282,1.543946 -1.25634,1.528808 -1.25634,4.404785 v 8.930664 h -2.8003 V 12.246876 h 2.8003 v 2.633789 q 0.87793,-1.543945 2.28564,-2.285645 1.40772,-0.756836 3.4209,-0.756836 0.2876,0 0.63574,0.04541 0.34815,0.03027 0.77198,0.105957 z" /></g>
<rect
   id="rect40"
   height="8"
   width="8"
   stroke-width="2"
   stroke="#231f20"
   fill="#ffffff"
   y="312.7774"
   x="645.70404" />


</svg>
