<svg xmlns="http://www.w3.org/2000/svg" role="img" viewBox="-10.50 180.50 520.00 138.50"><path fill="#0075c9" d="M146.04 234.85h20.68v5.68h-14.38v6.1h14v5.6h-14v11.05h-6.3v-28.43zm45.21 18.99h-6.37v9.44h-6.14v-28.43h13.73c8.94 0 11.09 3.84 11.09 9.29 0 3.91-1.26 7.52-6 9l5.64 10.13h-6.7zm1-5.41c3.42 0 4.95-.84 4.95-4.06s-1.46-4.14-5-4.14h-7.33v8.2zm32.11-13.77h6.37l11.47 28.62h-6.52l-1.84-4.68H221l-1.84 4.68H213zm7.48 18.76l-4.45-11.32-4.45 11.32zm21.42-18.57h8.21l7.71 19.42 7.71-19.42h8.18v28.43h-6.14v-18.99l-7.64 18.99h-4.75l-7.6-18.87v18.87h-5.68v-28.43zm45.2 0h21.38v5.68h-15.08v5.53h14.69v5.48h-14.69v6.29h15.23v5.45h-21.53v-28.43zM330.05 260l3.14-4.52a18.21 18.21 0 0 0 10.21 3c5.56 0 6.6-1.08 6.6-3.46s-2.38-2.8-6.75-3.41c-7.6-1.08-11.55-2.46-11.55-8.63 0-6.33 3.83-8.6 11.85-8.6 5.79 0 9.33 1.34 11.51 2.8l-3.37 4.87a16.63 16.63 0 0 0-8.21-2.18c-4.46 0-5.53.88-5.53 3 0 2.3 2.34 2.73 6.87 3.38 6.83 1 11.39 2.11 11.39 8.52 0 5.75-3.14 9-12.62 9-5.64 0-10.32-1.34-13.54-3.72m44.43-19.52h-9.86v-5.68h26.01v5.68h-9.82v22.75h-6.33v-22.75zm24.76 8.52c0-10.67 6-14.66 15-14.66s15.07 4 15.07 14.66-6 14.69-15.07 14.69-15-4-15-14.69m23.75.11c0-5.56-2.19-9-8.71-9s-8.71 3.45-8.71 9 2.18 9.06 8.71 9.06 8.71-3.49 8.71-9.06m30.7 4.68h-6.37v9.44h-6.14v-28.43h13.73c8.94 0 11.09 3.84 11.09 9.29 0 3.91-1.27 7.52-6 9l5.64 10.13h-6.72zm1-5.41c3.41 0 4.95-.84 4.95-4.06s-1.46-4.14-5-4.14h-7.32v8.2zm23.79-13.58h21.37v5.68h-15.08v5.53h14.69v5.48h-14.69v6.29H500v5.45h-21.52v-28.43zM60.77 190.76h-.18C16.94 191.08.62 210.2 0 250c.62 39.81 16.94 58.92 60.59 59.24h.18c43.85-.32 60.18-19.43 60.79-59.24-.61-39.8-16.94-58.92-60.79-59.24m21.5 39.09c1.2-1.2 10-10.39 13.48-12.58s6 2.31 5.24 3.09-14.81 12.85-15.74 13.47c-1.82 1.19-4.18-2.8-3-4M72.58 285H70.3a3.68 3.68 0 0 1-3.21-2.33c-4.16-9.89-10.94-26.37-12.13-26.86s-9.65-1.58-15-2.26v22.82h8.2V282h-27.1v-4.83a10.41 10.41 0 0 0 3.52-.95 4.42 4.42 0 0 0 1.72-2.09 9.7 9.7 0 0 0 .62-2.94c.12-1.26.18-5.67.18-5.67v-45.19c11-4 30.78-6.47 31.25-3.36.62 4 .52 13.6-6.63 13.6-2.55 0-4.39-2.52-5.49-6.34-1.06.39-6.28 2.2-6.28 2.2v20.18c4.46-.5 10.13-1.09 12.08-2.06 5.2-2.46 14.48-20.3 18.36-29.53h2.19zm25-13.14c-4.59-1.09-14.31-5-15.35-6s-1.59-7 1.65-6.32c1.46.32 15.16 6.6 16.87 7.48s1.4 6-3.17 4.88m6.91-23.5c-2.55.92-20.64 4.21-22 4.21s-2.49-5.71-.19-6.71c2-.83 18-4.26 19.38-4.26s5.37 5.78 2.81 6.7"/></svg>