<?xml version="1.0" encoding="UTF-8" standalone="no"?>
<svg
   xmlns:dc="http://purl.org/dc/elements/1.1/"
   xmlns:cc="http://creativecommons.org/ns#"
   xmlns:rdf="http://www.w3.org/1999/02/22-rdf-syntax-ns#"
   xmlns:svg="http://www.w3.org/2000/svg"
   xmlns="http://www.w3.org/2000/svg"
   viewBox="0 0 432.78668 118.4"
   height="118.4"
   width="432.78668"
   xml:space="preserve"
   id="svg2"
   version="1.1"><metadata
     id="metadata8"><rdf:RDF><cc:Work
         rdf:about=""><dc:format>image/svg+xml</dc:format><dc:type
           rdf:resource="http://purl.org/dc/dcmitype/StillImage" /></cc:Work></rdf:RDF></metadata><defs
     id="defs6" /><g
     transform="matrix(1.3333333,0,0,-1.3333333,0,118.4)"
     id="g10"><g
       transform="scale(0.1)"
       id="g12"><path
         id="path14"
         style="fill:#2e2d2d;fill-opacity:1;fill-rule:nonzero;stroke:none"
         d="m 370.781,731.973 c -25.195,8.398 -53.996,14.398 -93.593,14.398 -65.997,0 -115.196,-22.797 -115.196,-109.191 V 579.578 H 346.785 V 535.18 c 0,-57.598 -61.199,-91.196 -115.191,-91.196 H 161.992 V 12.0039 H 97.1953 C 45.5977,12.0039 0,51.6016 0,107.996 v 542.379 c 0,91.195 63.5938,237.594 251.988,237.594 69.598,0 123.598,-38.399 123.598,-101.996 v -54 h -4.805" /><path
         id="path16"
         style="fill:#2e2d2d;fill-opacity:1;fill-rule:nonzero;stroke:none"
         d="m 494.395,761.973 c 21.597,25.195 50.394,44.394 75.593,44.394 h 37.2 V 659.977 H 831.582 V 593.98 c 0,-33.597 -30,-76.796 -95.996,-76.796 H 607.188 V 263.992 c 0,-83.992 37.199,-116.394 101.996,-116.394 51.597,0 91.199,7.199 116.398,22.8 h 6 V 112.805 C 831.582,46.8086 783.586,4.80469 689.984,4.80469 526.793,4.80469 447.598,93.6055 447.598,244.797 v 388.777 c 0,63.598 11.996,87.598 46.797,128.399" /><path
         id="path18"
         style="fill:#2e2d2d;fill-opacity:1;fill-rule:nonzero;stroke:none"
         d="m 1294.78,502.781 c -24,9.602 -51.6,19.199 -93.6,19.199 -71.99,0 -111.59,-39.597 -111.59,-137.996 V 12.0039 h -44.4 c -72.002,0 -117.596,35.9922 -117.596,103.1911 v 297.586 c 0,129.602 68.39,253.196 238.786,253.196 99.6,0 134.4,-56.399 134.4,-105.594 v -57.602 h -6" /><path
         id="path20"
         style="fill:#2e2d2d;fill-opacity:1;fill-rule:nonzero;stroke:none"
         d="m 1741.16,293.992 h -57.59 c -122.4,0 -157.2,-28.797 -157.2,-81.597 0,-50.391 40.8,-80.391 111.59,-80.391 69.6,0 103.2,33.594 103.2,99.59 z M 1653.57,1.19922 h -32.4 c -153.6,0 -259.19,86.39848 -259.19,205.19878 0,115.196 83.99,202.786 321.59,202.786 h 56.39 v 8.406 c 0,91.187 -43.2,118.793 -139.19,118.793 -116.4,0 -181.19,-44.403 -205.19,-74.403 h -6 v 51.606 c 0,71.988 64.8,158.387 235.19,158.387 143.99,0 273.58,-67.2 273.58,-290.387 V 232.793 C 1898.35,95.9961 1797.56,1.19922 1653.57,1.19922" /><path
         id="path22"
         style="fill:#2e2d2d;fill-opacity:1;fill-rule:nonzero;stroke:none"
         d="m 2515.15,451.184 c -21.61,37.199 -82.8,67.195 -175.2,67.195 -93.59,0 -176.39,-75.598 -176.39,-171.594 0,-117.586 69.59,-197.984 178.79,-197.984 92.4,0 147.6,30 170.39,60 h 6 V 134.395 C 2518.74,56.4063 2443.15,0 2326.75,0 c -177.59,0 -331.18,137.996 -331.18,322.793 0,184.789 128.39,343.184 349.18,343.184 103.2,0 176.39,-62.399 176.39,-139.196 v -75.597 h -5.99" /><path
         id="path24"
         style="fill:#2e2d2d;fill-opacity:1;fill-rule:nonzero;stroke:none"
         d="M 2805.55,769.172 V 382.789 c 94.79,127.191 143.99,183.59 197.99,235.191 38.4,35.997 76.8,41.997 128.39,41.997 h 92.41 v -6 c -45.6,-38.403 -195.6,-208.789 -262.8,-293.989 51.6,-63.59 102,-129.597 159.6,-188.386 58.79,-58.797 85.2,-70.801 124.79,-84.0043 -16.8,-51.5899 -43.2,-79.19145 -109.19,-79.19145 -36,0 -78,16.79685 -105.6,44.39845 -82.79,85.1913 -154.79,181.1873 -225.59,275.9843 V 12.0039 h -55.2 c -71.99,0 -106.8,39.5977 -106.8,113.9921 v 749.973 h 51.61 c 77.99,0 110.39,-44.403 110.39,-106.797" /></g></g></svg>