<?xml version="1.0" encoding="UTF-8" standalone="no"?>
<!-- Created with Inkscape (http://www.inkscape.org/) -->

<svg
   width="30.535511mm"
   height="10.22673mm"
   viewBox="0 0 30.535511 10.22673"
   version="1.1"
   id="svg1"
   inkscape:version="1.3.1 (91b66b0, 2023-11-16)"
   sodipodi:docname="gatling.svg"
   xmlns:inkscape="http://www.inkscape.org/namespaces/inkscape"
   xmlns:sodipodi="http://sodipodi.sourceforge.net/DTD/sodipodi-0.dtd"
   xmlns="http://www.w3.org/2000/svg"
   xmlns:svg="http://www.w3.org/2000/svg">
  <sodipodi:namedview
     id="namedview1"
     pagecolor="#ffffff"
     bordercolor="#666666"
     borderopacity="1.0"
     inkscape:showpageshadow="2"
     inkscape:pageopacity="0.0"
     inkscape:pagecheckerboard="0"
     inkscape:deskcolor="#d1d1d1"
     inkscape:document-units="mm"
     inkscape:zoom="0.31289819"
     inkscape:cx="278.04571"
     inkscape:cy="135.82693"
     inkscape:window-width="1216"
     inkscape:window-height="574"
     inkscape:window-x="559"
     inkscape:window-y="424"
     inkscape:window-maximized="0"
     inkscape:current-layer="layer1" />
  <defs
     id="defs1" />
  <g
     inkscape:label="Layer 1"
     inkscape:groupmode="layer"
     id="layer1"
     transform="translate(-30.999314,-112.87843)">
    <path
       d="m 36.079093,120.26297 q 0,1.46761 -0.666624,2.1549 -0.666624,0.68729 -2.051548,0.68729 -0.459919,0 -0.899167,-0.0672 -0.434081,-0.062 -0.857826,-0.18087 v -0.99219 h 0.05168 q 0.237711,0.093 0.754474,0.22738 0.516762,0.13953 1.033525,0.13953 0.496092,0 0.821653,-0.11886 0.32556,-0.11886 0.506427,-0.33073 0.180867,-0.20154 0.258381,-0.48576 0.07751,-0.28421 0.07751,-0.63561 v -0.5271 q -0.439249,0.3514 -0.842323,0.5271 -0.397908,0.17053 -1.018023,0.17053 -1.033525,0 -1.643305,-0.74414 -0.604613,-0.74931 -0.604613,-2.10839 0,-0.74414 0.206705,-1.28157 0.211873,-0.5426 0.573607,-0.93534 0.335896,-0.3669 0.816485,-0.56844 0.480589,-0.20671 0.956011,-0.20671 0.50126,0 0.837156,0.10336 0.341063,0.0982 0.7183,0.30489 l 0.06201,-0.24805 h 0.909503 z m -0.971514,-0.93017 v -3.14709 q -0.387572,-0.1757 -0.723468,-0.24804 -0.330728,-0.0775 -0.661456,-0.0775 -0.800982,0 -1.260901,0.53743 -0.459919,0.53744 -0.459919,1.56063 0,0.97151 0.341063,1.47277 0.341064,0.50126 1.131711,0.50126 0.423745,0 0.84749,-0.1602 0.428913,-0.16536 0.78548,-0.43924 z m 7.369035,1.58646 h -0.966346 v -0.61495 q -0.129191,0.0879 -0.351399,0.24805 -0.21704,0.15503 -0.423745,0.24804 -0.242878,0.11886 -0.558104,0.19637 -0.315225,0.0827 -0.73897,0.0827 -0.780312,0 -1.322913,-0.51676 -0.5426,-0.51676 -0.5426,-1.31774 0,-0.65629 0.279051,-1.05937 0.28422,-0.40824 0.80615,-0.64078 0.527098,-0.23255 1.266069,-0.31523 0.73897,-0.0827 1.586461,-0.12402 v -0.14986 q 0,-0.33073 -0.118855,-0.54777 -0.113688,-0.21704 -0.330728,-0.34106 -0.206705,-0.11886 -0.496093,-0.1602 -0.289387,-0.0413 -0.604612,-0.0413 -0.382404,0 -0.852658,0.10335 -0.470254,0.0982 -0.971514,0.28939 h -0.05168 v -0.98702 q 0.284219,-0.0775 0.821652,-0.17053 0.537433,-0.093 1.059364,-0.093 0.60978,0 1.059363,0.10336 0.454751,0.0982 0.785479,0.34106 0.325561,0.23771 0.496093,0.61495 0.170531,0.37723 0.170531,0.93534 z m -0.966346,-1.4211 v -1.60713 q -0.444416,0.0258 -1.049028,0.0775 -0.599445,0.0517 -0.950843,0.14986 -0.418578,0.11886 -0.67696,0.37207 -0.258381,0.24805 -0.258381,0.6873 0,0.49609 0.299722,0.7493 0.299723,0.24805 0.91467,0.24805 0.511595,0 0.935341,-0.19637 0.423745,-0.20154 0.785479,-0.48059 z m 3.818877,1.4211 h -0.971514 v -8.04083 h 0.971514 z m 2.966217,-6.73859 h -1.095537 v -1.00768 h 1.095537 z m -0.06201,6.73859 h -0.971514 v -5.77224 h 0.971514 z m 6.748922,0 H 54.01076 v -3.28661 q 0,-0.39791 -0.04651,-0.74414 -0.04651,-0.3514 -0.170531,-0.54777 -0.129191,-0.21704 -0.372069,-0.32039 -0.242879,-0.10852 -0.630451,-0.10852 -0.397907,0 -0.831988,0.19637 -0.43408,0.19637 -0.831988,0.50126 v 4.3098 h -0.971514 v -5.77224 h 0.971514 v 0.64078 q 0.454751,-0.37723 0.940508,-0.5891 0.485757,-0.21188 0.997352,-0.21188 0.935341,0 1.426265,0.56327 0.490925,0.56328 0.490925,1.62264 z m 6.552551,-0.65629 q 0,1.46761 -0.666624,2.1549 -0.666624,0.68729 -2.051548,0.68729 -0.459919,0 -0.899167,-0.0672 -0.43408,-0.062 -0.857826,-0.18087 v -0.99219 h 0.05168 q 0.237711,0.093 0.754474,0.22738 0.516763,0.13953 1.033525,0.13953 0.496092,0 0.821653,-0.11886 0.32556,-0.11886 0.506427,-0.33073 0.180867,-0.20154 0.258382,-0.48576 0.07751,-0.28421 0.07751,-0.63561 v -0.5271 q -0.439248,0.3514 -0.842323,0.5271 -0.397907,0.17053 -1.018023,0.17053 -1.033525,0 -1.643305,-0.74414 -0.604612,-0.74931 -0.604612,-2.10839 0,-0.74414 0.206705,-1.28157 0.211873,-0.5426 0.573606,-0.93534 0.335896,-0.3669 0.816486,-0.56844 0.480589,-0.20671 0.95601,-0.20671 0.50126,0 0.837156,0.10336 0.341063,0.0982 0.7183,0.30489 l 0.06201,-0.24805 h 0.909502 z m -0.971514,-0.93017 v -3.14709 q -0.387572,-0.1757 -0.723468,-0.24804 -0.330728,-0.0775 -0.661456,-0.0775 -0.800982,0 -1.260901,0.53743 -0.459919,0.53744 -0.459919,1.56063 0,0.97151 0.341064,1.47277 0.341063,0.50126 1.13171,0.50126 0.423745,0 0.847491,-0.1602 0.428913,-0.16536 0.785479,-0.43924 z"
       id="text1"
       style="stroke-width:0.264583"
       aria-label="galing" />
  </g>
</svg>
