<?xml version="1.0" encoding="UTF-8" standalone="no"?>
<!-- Created with Inkscape (http://www.inkscape.org/) -->

<svg
   width="34.70578mm"
   height="10.22673mm"
   viewBox="0 0 34.70578 10.22673"
   version="1.1"
   id="svg1"
   inkscape:version="1.3.1 (91b66b0, 2023-11-16)"
   sodipodi:docname="drawing.svg"
   xmlns:inkscape="http://www.inkscape.org/namespaces/inkscape"
   xmlns:sodipodi="http://sodipodi.sourceforge.net/DTD/sodipodi-0.dtd"
   xmlns="http://www.w3.org/2000/svg"
   xmlns:svg="http://www.w3.org/2000/svg">
  <sodipodi:namedview
     id="namedview1"
     pagecolor="#ffffff"
     bordercolor="#666666"
     borderopacity="1.0"
     inkscape:showpageshadow="2"
     inkscape:pageopacity="0.0"
     inkscape:pagecheckerboard="0"
     inkscape:deskcolor="#d1d1d1"
     inkscape:document-units="mm"
     inkscape:zoom="0.34164212"
     inkscape:cx="295.631"
     inkscape:cy="140.4979"
     inkscape:window-width="1008"
     inkscape:window-height="711"
     inkscape:window-x="0"
     inkscape:window-y="25"
     inkscape:window-maximized="0"
     inkscape:current-layer="layer1" />
  <defs
     id="defs1" />
  <g
     inkscape:label="Layer 1"
     inkscape:groupmode="layer"
     id="layer1"
     transform="translate(-26.889272,-111.22387)">
    <path
       d="m 31.96904,118.60838 q 0,1.4676 -0.666623,2.1549 -0.666624,0.68729 -2.051548,0.68729 -0.459919,0 -0.899167,-0.0672 -0.434081,-0.062 -0.857826,-0.18087 v -0.99218 h 0.05168 q 0.237711,0.093 0.754473,0.22737 0.516763,0.13953 1.033526,0.13953 0.496092,0 0.821652,-0.11885 0.325561,-0.11886 0.506428,-0.33073 0.180867,-0.20154 0.258381,-0.48576 0.07752,-0.28422 0.07752,-0.63562 v -0.5271 q -0.439249,0.3514 -0.842324,0.5271 -0.397907,0.17053 -1.018022,0.17053 -1.033525,0 -1.643305,-0.74413 -0.604613,-0.74931 -0.604613,-2.1084 0,-0.74413 0.206705,-1.28157 0.211873,-0.5426 0.573607,-0.93534 0.335896,-0.3669 0.816485,-0.56844 0.480589,-0.2067 0.956011,-0.2067 0.50126,0 0.837155,0.10335 0.341064,0.0982 0.718301,0.30489 l 0.06201,-0.24805 h 0.909502 z m -0.971513,-0.93018 v -3.14708 q -0.387572,-0.1757 -0.723468,-0.24805 -0.330728,-0.0775 -0.661456,-0.0775 -0.800983,0 -1.260901,0.53743 -0.459919,0.53743 -0.459919,1.56062 0,0.97152 0.341063,1.47278 0.341064,0.50126 1.131711,0.50126 0.423745,0 0.84749,-0.1602 0.428913,-0.16536 0.78548,-0.43925 z m 7.369035,1.58646 h -0.966346 v -0.61494 q -0.129191,0.0879 -0.351399,0.24804 -0.21704,0.15503 -0.423745,0.24805 -0.242878,0.11885 -0.558104,0.19637 -0.315225,0.0827 -0.73897,0.0827 -0.780312,0 -1.322913,-0.51676 -0.542601,-0.51677 -0.542601,-1.31775 0,-0.65629 0.279052,-1.05936 0.28422,-0.40824 0.80615,-0.64079 0.527098,-0.23254 1.266069,-0.31522 0.73897,-0.0827 1.586461,-0.12402 v -0.14987 q 0,-0.33072 -0.118855,-0.54776 -0.113688,-0.21704 -0.330729,-0.34107 -0.206705,-0.11885 -0.496092,-0.16019 -0.289387,-0.0414 -0.604612,-0.0414 -0.382404,0 -0.852658,0.10336 -0.470254,0.0982 -0.971514,0.28938 h -0.05168 v -0.98701 q 0.28422,-0.0775 0.821653,-0.17053 0.537433,-0.093 1.059364,-0.093 0.60978,0 1.059363,0.10335 0.454751,0.0982 0.785479,0.34106 0.325561,0.23772 0.496093,0.61495 0.170531,0.37724 0.170531,0.93534 z m -0.966346,-1.42109 v -1.60714 q -0.444416,0.0258 -1.049028,0.0775 -0.599445,0.0517 -0.950844,0.14986 -0.418577,0.11886 -0.676959,0.37207 -0.258381,0.24805 -0.258381,0.68729 0,0.4961 0.299722,0.74931 0.299723,0.24805 0.91467,0.24805 0.511595,0 0.935341,-0.19637 0.423745,-0.20154 0.785479,-0.48059 z m 5.834251,1.36942 q -0.273884,0.0723 -0.599444,0.11885 -0.320393,0.0465 -0.573607,0.0465 -0.883664,0 -1.343583,-0.47542 -0.459919,-0.47542 -0.459919,-1.52445 v -3.06957 h -0.656288 v -0.81649 h 0.656288 v -1.6588 h 0.971514 v 1.6588 h 2.005039 v 0.81649 h -2.005039 v 2.63032 q 0,0.45475 0.02067,0.71313 0.02067,0.25322 0.144693,0.47543 0.113688,0.2067 0.310058,0.30489 0.201537,0.093 0.60978,0.093 0.237711,0 0.496092,-0.0672 0.258381,-0.0723 0.372069,-0.11885 h 0.05168 z m 2.154901,0.0517 h -0.971514 v -8.04082 h 0.971514 z m 2.966216,-6.73858 h -1.095536 v -1.00769 h 1.095536 z m -0.06201,6.73858 H 47.32206 v -5.77224 h 0.971514 z m 6.748921,0 h -0.971513 v -3.28661 q 0,-0.3979 -0.04651,-0.74414 -0.04651,-0.35139 -0.170532,-0.54776 -0.12919,-0.21704 -0.372069,-0.3204 -0.242878,-0.10852 -0.63045,-0.10852 -0.397908,0 -0.831988,0.19637 -0.434081,0.19637 -0.831988,0.50126 v 4.3098 h -0.971514 v -5.77224 h 0.971514 v 0.64079 q 0.454751,-0.37724 0.940508,-0.58911 0.485757,-0.21187 0.997352,-0.21187 0.93534,0 1.426265,0.56327 0.490924,0.56327 0.490924,1.62263 z m 6.55255,-0.65628 q 0,1.4676 -0.666624,2.1549 -0.666624,0.68729 -2.051548,0.68729 -0.459919,0 -0.899167,-0.0672 -0.434081,-0.062 -0.857826,-0.18087 v -0.99218 h 0.05168 q 0.237711,0.093 0.754474,0.22737 0.516762,0.13953 1.033525,0.13953 0.496092,0 0.821653,-0.11885 0.32556,-0.11886 0.506427,-0.33073 0.180867,-0.20154 0.258381,-0.48576 0.07752,-0.28422 0.07752,-0.63562 v -0.5271 q -0.439248,0.3514 -0.842323,0.5271 -0.397908,0.17053 -1.018023,0.17053 -1.033525,0 -1.643305,-0.74413 -0.604612,-0.74931 -0.604612,-2.1084 0,-0.74413 0.206705,-1.28157 0.211872,-0.5426 0.573606,-0.93534 0.335896,-0.3669 0.816485,-0.56844 0.48059,-0.2067 0.956011,-0.2067 0.50126,0 0.837156,0.10335 0.341063,0.0982 0.7183,0.30489 l 0.06201,-0.24805 h 0.909503 z M 60.62353,117.6782 v -3.14708 q -0.387572,-0.1757 -0.723468,-0.24805 -0.330728,-0.0775 -0.661456,-0.0775 -0.800982,0 -1.260901,0.53743 -0.459919,0.53743 -0.459919,1.56062 0,0.97152 0.341064,1.47278 0.341063,0.50126 1.13171,0.50126 0.423745,0 0.847491,-0.1602 0.428913,-0.16536 0.785479,-0.43925 z"
       id="text1"
       style="stroke-width:0.264583"
       aria-label="gatling" />
  </g>
</svg>
