<?xml version="1.0" standalone="no"?>
<!DOCTYPE svg PUBLIC "-//W3C//DTD SVG 20010904//EN"
 "http://www.w3.org/TR/2001/REC-SVG-20010904/DTD/svg10.dtd">
<svg version="1.0" xmlns="http://www.w3.org/2000/svg"
 width="265.000000pt" height="64.000000pt" viewBox="0 0 265.000000 64.000000"
 preserveAspectRatio="xMidYMid meet">

<g transform="translate(0.000000,64.000000) scale(0.100000,-0.100000)"
fill="#000000" stroke="none">
<path d="M395 539 c-139 -20 -252 -79 -287 -149 -25 -49 -24 -142 3 -196 47
-97 207 -154 437 -154 285 0 452 98 440 260 -2 31 1 45 10 44 6 -1 59 -2 116
-2 l104 -2 4 -130 c2 -89 7 -133 16 -142 18 -18 186 -18 204 0 9 9 14 53 16
142 l4 130 98 0 c54 0 105 3 114 6 13 5 16 -2 16 -42 0 -106 37 -161 142 -209
166 -76 475 -73 635 5 102 50 142 120 128 225 -9 70 -42 115 -111 152 -100 53
-170 67 -339 67 -167 0 -236 -13 -337 -64 -60 -31 -63 -30 -70 15 -7 42 -35
45 -398 45 -254 0 -351 -4 -369 -13 -18 -9 -28 -25 -36 -62 -10 -45 -12 -47
-18 -24 -20 75 -308 129 -522 98z m337 -84 c32 -8 77 -25 100 -37 l43 -23 -29
-3 c-16 -2 -54 8 -86 22 -138 62 -442 42 -466 -31 -3 -10 -12 -32 -20 -50 -19
-43 -18 -57 11 -92 40 -46 121 -72 250 -79 83 -4 103 -7 85 -14 -43 -17 -218
-3 -285 23 -145 54 -169 165 -51 234 122 71 286 90 448 50z m1608 -2 c155 -43
230 -139 169 -217 -12 -15 -30 -26 -45 -26 -24 0 -24 1 -9 30 41 79 -10 152
-132 190 -121 37 -336 24 -407 -26 -23 -16 -57 -108 -49 -132 24 -68 113 -102
283 -110 135 -6 126 -19 -15 -21 -188 -2 -325 67 -325 165 0 40 72 106 145
133 112 42 265 47 385 14z m-660 -8 c0 -30 2 -29 -46 -9 -47 20 -202 17 -227
-5 -15 -11 -17 -36 -17 -164 l0 -150 -25 23 c-24 23 -25 28 -25 151 0 163 4
159 -168 159 -68 0 -121 4 -118 9 3 4 145 9 316 9 l310 1 0 -24z m-743 -57
c-3 -8 -6 -5 -6 6 -1 11 2 17 5 13 3 -3 4 -12 1 -19z m372 -140 c1 -79 -3
-128 -9 -128 -6 0 -10 55 -9 148 0 91 4 139 9 127 5 -11 9 -77 9 -147z m1072
136 c33 -16 46 -32 54 -67 5 -17 3 -27 -4 -27 -6 0 -11 8 -11 18 0 21 -40 62
-85 86 -26 15 -27 16 -5 10 14 -4 37 -12 51 -20z m-1626 6 c3 -6 -1 -7 -9 -4
-18 7 -21 14 -7 14 6 0 13 -4 16 -10z m1543 -68 c49 -26 47 -36 -12 -63 -48
-22 -220 -26 -271 -6 -60 24 -70 33 -56 51 41 49 256 61 339 18z m-2123 8
c-12 -19 15 -86 47 -117 18 -17 51 -40 73 -52 48 -26 7 -17 -46 10 -54 27 -89
73 -89 118 0 21 3 41 7 44 10 10 15 8 8 -3z m277 -39 l-4 -50 -46 17 c-56 21
-60 41 -12 64 58 29 65 25 62 -31z m1352 -55 c9 -15 38 -41 64 -58 51 -33 20
-30 -35 4 -48 29 -73 65 -73 108 0 51 14 60 20 12 4 -22 14 -52 24 -66z m-884
54 c0 -12 -7 -34 -15 -50 -13 -25 -22 -30 -51 -30 -32 0 -34 1 -23 21 9 17 8
25 -4 37 -13 12 -39 15 -132 13 -63 -1 -121 2 -128 6 -6 4 62 10 153 13 91 3
173 7 183 8 11 1 17 -5 17 -18z"/>
</g>
</svg>
