<svg width="119" height="121" version="1.1" xmlns="http://www.w3.org/2000/svg"><path fill="rgb(129,29,28)" stroke="rgb(129,29,28)" stroke-width="1" opacity="1" d="M 44.5 19 L 46.5 23 L 58 24.5 L 52.5 25 L 47.5 24 L 43.5 26 L 40 24.5 L 41 21 L 44.5 19 Z "></path><path fill="rgb(129,29,28)" stroke="rgb(129,29,28)" stroke-width="1" opacity="1" d="M 60.5 23 L 63 23.5 L 60.5 24 L 60.5 23 Z "></path><path fill="rgb(129,29,28)" stroke="rgb(129,29,28)" stroke-width="1" opacity="1" d="M 30.5 24 L 26.5 29 L 30.5 24 Z "></path><path fill="rgb(129,29,28)" stroke="rgb(129,29,28)" stroke-width="1" opacity="1" d="M 34.5 28 L 39 28.5 L 34.5 29 L 34.5 28 Z "></path><path fill="rgb(129,29,28)" stroke="rgb(129,29,28)" stroke-width="1" opacity="1" d="M 92.5 28 L 93.5 30 L 92.5 28 Z "></path><path fill="rgb(129,29,28)" stroke="rgb(129,29,28)" stroke-width="1" opacity="1" d="M 29.5 29 L 29 30.5 L 28.5 32 L 28 30.5 L 29.5 29 Z "></path><path fill="rgb(129,29,28)" stroke="rgb(129,29,28)" stroke-width="1" opacity="1" d="M 59.5 33 L 65.5 36 L 71.5 36 L 73 35.5 L 72 41 L 67.5 42 L 66.5 40 L 65.5 42 L 61.5 39 L 57.5 39 Q 55.8 41.8 50.5 41 L 47.5 39 L 47 44 L 42 42 L 42.5 36 L 43.5 40 L 46 38.5 L 44 35 L 46.5 34 L 47.5 38 L 49.5 36 L 59.5 33 Z "></path><path fill="rgb(129,29,28)" stroke="rgb(129,29,28)" stroke-width="1" opacity="1" d="M 75.5 40 Q 80.3 39.3 81 42.5 Q 80.3 44.8 76.5 44 Q 72 42 75.5 40 Z "></path><path fill="rgb(129,29,28)" stroke="rgb(129,29,28)" stroke-width="1" opacity="1" d="M 83.5 45 L 84 46.5 L 83 49.5 L 84.5 52 Q 81.5 51.5 82 47.5 L 83.5 45 Z "></path><path fill="rgb(129,29,28)" stroke="rgb(129,29,28)" stroke-width="1" opacity="1" d="M 28.5 50 L 27.5 52 L 28.5 50 Z "></path><path fill="rgb(129,29,28)" stroke="rgb(129,29,28)" stroke-width="1" opacity="1" d="M 35.5 52 L 38.5 56 L 35 57 L 36.5 60 L 40 62.5 Q 40.8 64.8 38.5 64 L 37.5 66 L 40 67.5 L 41 75.5 L 42.5 77 L 47 79.5 L 41 83 Q 42.1 80.3 39.5 81 L 34 71.5 Q 35.8 64.8 32.5 63 Q 30.3 63.8 31 61.5 Q 28.8 60.3 30 55.5 L 32 54.5 L 31.5 56 L 34 54.5 L 33.5 53 L 35.5 52 Z "></path><path fill="rgb(129,29,28)" stroke="rgb(129,29,28)" stroke-width="1" opacity="1" d="M 20.5 54 L 21.5 56 L 20.5 54 Z "></path><path fill="rgb(129,29,28)" stroke="rgb(129,29,28)" stroke-width="1" opacity="1" d="M 84.5 56 L 85 58.5 L 83 57.5 L 84.5 56 Z "></path><path fill="rgb(129,29,28)" stroke="rgb(129,29,28)" stroke-width="1" opacity="1" d="M 103.5 62 L 104 64.5 L 103 64.5 L 103.5 62 Z "></path><path fill="rgb(129,29,28)" stroke="rgb(129,29,28)" stroke-width="1" opacity="1" d="M 84.5 75 L 85.5 77 L 83 76.5 L 84.5 75 Z "></path><path fill="rgb(129,29,28)" stroke="rgb(129,29,28)" stroke-width="1" opacity="1" d="M 87.5 77 L 89.5 78 L 91 77.5 L 89 82 L 93 82 L 93 83.5 L 92 86 Q 95.3 84.7 94 89.5 L 97 88.5 L 90 94 L 89 87 L 85.5 88 L 84 81.5 L 87.5 77 Z "></path><path fill="rgb(129,29,28)" stroke="rgb(129,29,28)" stroke-width="1" opacity="1" d="M 48.5 81 L 53 83 L 54 86.5 L 51.5 87 L 48 84.5 L 48.5 81 Z "></path><path fill="rgb(129,29,28)" stroke="rgb(129,29,28)" stroke-width="1" opacity="1" d="M 43.5 84 L 46 85.5 L 43 86 L 43.5 84 Z "></path><path fill="rgb(129,29,28)" stroke="rgb(129,29,28)" stroke-width="1" opacity="1" d="M 59.5 85 L 67 87 Q 68.5 92.4 65.5 94 L 64 94.5 L 64 102.5 L 65 104.5 Q 63.6 107.3 59 106 L 57 100.5 L 56 90.5 L 54 88.5 L 59.5 85 Z "></path><path fill="rgb(129,29,28)" stroke="rgb(129,29,28)" stroke-width="1" opacity="1" d="M 40.5 102 L 43 102.5 Q 40.9 105.8 40.5 102 Z "></path><path fill="rgb(129,29,28)" stroke="rgb(129,29,28)" stroke-width="1" opacity="1" d="M 56.5 104 L 55.5 106 L 56.5 104 Z "></path><path fill="rgb(137,48,38)" stroke="rgb(137,48,38)" stroke-width="1" opacity="1" d="M 50.5 15 Q 53.8 13.9 53 16.5 L 52 19.5 L 60 23.5 L 52.5 24 Q 51.3 21.7 46.5 23 L 45 21.5 L 43 17.5 L 50.5 15 Z "></path><path fill="rgb(137,48,38)" stroke="rgb(137,48,38)" stroke-width="1" opacity="1" d="M 83.5 21 L 88 24.5 L 89 28 L 82.5 28 Q 81.3 25.3 77 25.5 L 84 25 L 83.5 21 Z "></path><path fill="rgb(137,48,38)" stroke="rgb(137,48,38)" stroke-width="1" opacity="1" d="M 62.5 22 L 66 22.5 L 62.5 23 L 62.5 22 Z "></path><path fill="rgb(137,48,38)" stroke="rgb(137,48,38)" stroke-width="1" opacity="1" d="M 68.5 22 L 69.5 24 L 68.5 22 Z "></path><path fill="rgb(137,48,38)" stroke="rgb(137,48,38)" stroke-width="1" opacity="1" d="M 73.5 22 L 75.5 25 Q 73.3 25.8 74 23.5 L 73.5 22 Z "></path><path fill="rgb(137,48,38)" stroke="rgb(137,48,38)" stroke-width="1" opacity="1" d="M 90.5 26 L 91.5 28 L 90.5 26 Z "></path><path fill="rgb(137,48,38)" stroke="rgb(137,48,38)" stroke-width="1" opacity="1" d="M 25.5 29 L 22.5 33 L 25.5 29 Z "></path><path fill="rgb(137,48,38)" stroke="rgb(137,48,38)" stroke-width="1" opacity="1" d="M 30.5 29 L 34 29.5 L 29 32 L 30.5 29 Z "></path><path fill="rgb(137,48,38)" stroke="rgb(137,48,38)" stroke-width="1" opacity="1" d="M 27.5 30 L 28 32 L 24.5 34 L 27.5 30 Z "></path><path fill="rgb(137,48,38)" stroke="rgb(137,48,38)" stroke-width="1" opacity="1" d="M 94.5 30 L 95.5 32 L 94.5 30 Z "></path><path fill="rgb(137,48,38)" stroke="rgb(137,48,38)" stroke-width="1" opacity="1" d="M 28.5 34 L 31 38.5 L 29 39.5 Q 30.5 35.1 27.5 36 L 28.5 34 Z "></path><path fill="rgb(137,48,38)" stroke="rgb(137,48,38)" stroke-width="1" opacity="1" d="M 22.5 37 L 25 37.5 L 23.5 39 L 21 38.5 L 22.5 37 Z "></path><path fill="rgb(137,48,38)" stroke="rgb(137,48,38)" stroke-width="1" opacity="1" d="M 47.5 39 Q 49.2 41.8 54.5 41 Q 56.2 38.2 61.5 39 L 65.5 42 L 66.5 40 L 67.5 42 L 72 41 L 71 47 L 66.5 48 L 67 46.5 L 65.5 44 L 56.5 45 L 53.5 43 L 53 48 L 46 44.5 L 47.5 39 Z "></path><path fill="rgb(137,48,38)" stroke="rgb(137,48,38)" stroke-width="1" opacity="1" d="M 20.5 40 L 20 41.5 Q 19.4 47.6 23 49.5 L 21 50 L 22 54.5 L 20 53.5 L 18 47.5 Q 21.5 46 19 44.5 Q 18.3 40.8 20.5 40 Z "></path><path fill="rgb(137,48,38)" stroke="rgb(137,48,38)" stroke-width="1" opacity="1" d="M 26.5 42 L 27 43.5 L 25 44.5 L 26.5 42 Z "></path><path fill="rgb(137,48,38)" stroke="rgb(137,48,38)" stroke-width="1" opacity="1" d="M 31.5 43 L 30.5 45 L 31.5 43 Z "></path><path fill="rgb(137,48,38)" stroke="rgb(137,48,38)" stroke-width="1" opacity="1" d="M 44.5 46 Q 47.9 45.1 46 50.5 L 41.5 54 L 41 48 L 44.5 46 Z "></path><path fill="rgb(137,48,38)" stroke="rgb(137,48,38)" stroke-width="1" opacity="1" d="M 25.5 47 L 24.5 49 L 25.5 47 Z "></path><path fill="rgb(137,48,38)" stroke="rgb(137,48,38)" stroke-width="1" opacity="1" d="M 24.5 53 L 23.5 55 L 24.5 53 Z "></path><path fill="rgb(137,48,38)" stroke="rgb(137,48,38)" stroke-width="1" opacity="1" d="M 39.5 55 L 45 58.5 Q 45.8 60.8 43.5 60 L 42 62.5 L 46 65 Q 44.3 73 49.5 75 L 52 76.5 L 47.5 80 L 41 75.5 Q 41.9 68.6 38.5 66 L 37 65.5 L 40 64 L 37.5 60 L 35 58.5 Q 34.3 56.3 36.5 57 L 39.5 55 Z "></path><path fill="rgb(137,48,38)" stroke="rgb(137,48,38)" stroke-width="1" opacity="1" d="M 104.5 62 Q 106.8 63.8 106 68.5 L 105 68.5 L 104.5 62 Z "></path><path fill="rgb(137,48,38)" stroke="rgb(137,48,38)" stroke-width="1" opacity="1" d="M 23.5 81 L 25.5 81 L 33 87.5 L 30.5 86 L 29 86.5 L 30 89 L 33 90.5 L 31.5 90 L 30 90.5 L 30.5 92 L 26.5 86 L 23.5 88 L 24.5 85 Q 22.3 85.8 23 83.5 Q 20.8 82.3 23.5 81 Z "></path><path fill="rgb(137,48,38)" stroke="rgb(137,48,38)" stroke-width="1" opacity="1" d="M 66.5 81 L 70 82.5 Q 68 87 66 83.5 L 66.5 81 Z "></path><path fill="rgb(137,48,38)" stroke="rgb(137,48,38)" stroke-width="1" opacity="1" d="M 99.5 84 L 98.5 86 L 99.5 84 Z "></path><path fill="rgb(137,48,38)" stroke="rgb(137,48,38)" stroke-width="1" opacity="1" d="M 83.5 85 Q 86.1 84.2 85 87.5 L 86.5 87 Q 90.7 85.7 89 90.5 L 91 94.5 L 89 95 Q 90.1 97.7 87.5 97 L 87.5 95 Q 82.9 96.3 85 90.5 L 83.5 85 Z "></path><path fill="rgb(137,48,38)" stroke="rgb(137,48,38)" stroke-width="1" opacity="1" d="M 67 87 Q 72 86.2 74 89.5 L 75 92.5 L 75 94.5 L 71 99.5 L 73 100.5 Q 69.9 102.3 71.5 104 L 69.5 103 L 66.5 106 L 65 104.5 L 64 94 L 67 92.5 L 67 87 Z "></path><path fill="rgb(137,48,38)" stroke="rgb(137,48,38)" stroke-width="1" opacity="1" d="M 80.5 88 L 83 88.5 Q 82.3 92.8 76.5 92 L 78.5 89 L 80.5 88 Z "></path><path fill="rgb(137,48,38)" stroke="rgb(137,48,38)" stroke-width="1" opacity="1" d="M 34.5 91 L 35.5 93 L 34.5 91 Z "></path><path fill="rgb(137,48,38)" stroke="rgb(137,48,38)" stroke-width="1" opacity="1" d="M 93.5 92 L 92.5 94 L 93.5 92 Z "></path><path fill="rgb(137,48,38)" stroke="rgb(137,48,38)" stroke-width="1" opacity="1" d="M 27.5 94 L 28.5 96 L 27.5 94 Z "></path><path fill="rgb(137,48,38)" stroke="rgb(137,48,38)" stroke-width="1" opacity="1" d="M 36.5 94 L 40.5 101 L 41 99.5 L 40 96.5 L 41 96.5 L 43 101.5 L 38.5 103 L 37 97.5 L 36.5 94 Z "></path><path fill="rgb(137,48,38)" stroke="rgb(137,48,38)" stroke-width="1" opacity="1" d="M 31.5 97 L 36 99 L 37 101.5 L 34.5 100 L 31.5 97 Z "></path><path fill="rgb(200,208,200)" stroke="rgb(200,208,200)" stroke-width="1" opacity="1" d="M 54.5 0 L 56 0.5 L 53.5 2 L 54.5 0 Z "></path><path fill="rgb(200,208,200)" stroke="rgb(200,208,200)" stroke-width="1" opacity="1" d="M 59 0 L 62 1.5 L 62 9.5 L 59.5 10 L 58.5 8 L 61 9 L 61 5 L 59.5 5 Q 56.8 3.7 59 2.5 L 59 0 Z "></path><path fill="rgb(200,208,200)" stroke="rgb(200,208,200)" stroke-width="1" opacity="1" d="M 45.5 1 L 48 1.5 L 47.5 4 L 44 2.5 L 45.5 1 Z "></path><path fill="rgb(200,208,200)" stroke="rgb(200,208,200)" stroke-width="1" opacity="1" d="M 66.5 1 Q 70.9 -0.5 70 2.5 L 68.5 2 Q 65.5 2.5 66.5 1 Z "></path><path fill="rgb(200,208,200)" stroke="rgb(200,208,200)" stroke-width="1" opacity="1" d="M 49.5 2 L 51 7.5 L 50 7.5 L 49.5 2 Z "></path><path fill="rgb(200,208,200)" stroke="rgb(200,208,200)" stroke-width="1" opacity="1" d="M 71.5 2 Q 75.9 0.5 75 3.5 L 73 4.5 L 73.5 3 Q 70.5 3.5 71.5 2 Z "></path><path fill="rgb(200,208,200)" stroke="rgb(200,208,200)" stroke-width="1" opacity="1" d="M 54.5 3 L 57.5 7 L 56 6.5 L 57 9.5 L 56 9.5 Q 56.7 6.9 54 8 L 54.5 3 Z "></path><path fill="rgb(200,208,200)" stroke="rgb(200,208,200)" stroke-width="1" opacity="1" d="M 42.5 4 L 43 7.5 L 42 7.5 L 42.5 4 Z "></path><path fill="rgb(200,208,200)" stroke="rgb(200,208,200)" stroke-width="1" opacity="1" d="M 65.5 6 L 66 8.5 L 65 8.5 L 65.5 6 Z "></path><path fill="rgb(200,208,200)" stroke="rgb(200,208,200)" stroke-width="1" opacity="1" d="M 47.5 7 L 48.5 9 L 47.5 7 Z "></path><path fill="rgb(200,208,200)" stroke="rgb(200,208,200)" stroke-width="1" opacity="1" d="M 89.5 8 L 94 11.5 L 93.5 14 L 91.5 13 L 88.5 17 L 89 15.5 L 92 10 L 89.5 8 Z "></path><path fill="rgb(200,208,200)" stroke="rgb(200,208,200)" stroke-width="1" opacity="1" d="M 69.5 9 L 68.5 11 L 67 10.5 L 69.5 9 Z "></path><path fill="rgb(200,208,200)" stroke="rgb(200,208,200)" stroke-width="1" opacity="1" d="M 72.5 9 L 71.5 11 L 72.5 9 Z "></path><path fill="rgb(200,208,200)" stroke="rgb(200,208,200)" stroke-width="1" opacity="1" d="M 87.5 10 L 89 12.5 L 85.5 17 L 85 15.5 L 88 11.5 L 87.5 10 Z "></path><path fill="rgb(200,208,200)" stroke="rgb(200,208,200)" stroke-width="1" opacity="1" d="M 25.5 12 L 27.5 17 L 30 17.5 L 27.5 18 Q 23.7 16.7 25.5 12 Z "></path><path fill="rgb(200,208,200)" stroke="rgb(200,208,200)" stroke-width="1" opacity="1" d="M 27.5 13 L 28.5 15 L 27.5 13 Z "></path><path fill="rgb(200,208,200)" stroke="rgb(200,208,200)" stroke-width="1" opacity="1" d="M 30.5 13 L 32 15.5 L 30 14.5 L 30.5 13 Z "></path><path fill="rgb(200,208,200)" stroke="rgb(200,208,200)" stroke-width="1" opacity="1" d="M 49.5 14 L 52 14.5 L 49.5 15 L 49.5 14 Z "></path><path fill="rgb(200,208,200)" stroke="rgb(200,208,200)" stroke-width="1" opacity="1" d="M 66.5 14 L 69 14.5 L 66.5 15 L 66.5 14 Z "></path><path fill="rgb(200,208,200)" stroke="rgb(200,208,200)" stroke-width="1" opacity="1" d="M 44.5 15 L 47 15.5 L 42.5 17 L 42.5 16 L 44.5 15 Z "></path><path fill="rgb(200,208,200)" stroke="rgb(200,208,200)" stroke-width="1" opacity="1" d="M 71.5 15 L 77 16.5 L 74.5 17 L 71.5 16 L 71.5 15 Z "></path><path fill="rgb(200,208,200)" stroke="rgb(200,208,200)" stroke-width="1" opacity="1" d="M 20.5 16 L 25 19.5 L 21.5 17 L 20.5 16 Z "></path><path fill="rgb(200,208,200)" stroke="rgb(200,208,200)" stroke-width="1" opacity="1" d="M 39.5 17 L 41 17.5 L 34.5 21 L 35.5 19 L 39.5 17 Z "></path><path fill="rgb(200,208,200)" stroke="rgb(200,208,200)" stroke-width="1" opacity="1" d="M 78.5 17 Q 87.3 20.3 93 26.5 L 91.5 26 L 79.5 19 L 78.5 17 Z "></path><path fill="rgb(200,208,200)" stroke="rgb(200,208,200)" stroke-width="1" opacity="1" d="M 18.5 18 L 19.5 20 L 18.5 18 Z "></path><path fill="rgb(200,208,200)" stroke="rgb(200,208,200)" stroke-width="1" opacity="1" d="M 17.5 21 L 20 24.5 L 19 24.5 L 17.5 21 Z "></path><path fill="rgb(200,208,200)" stroke="rgb(200,208,200)" stroke-width="1" opacity="1" d="M 32.5 21 L 31.5 23 L 32.5 21 Z "></path><path fill="rgb(200,208,200)" stroke="rgb(200,208,200)" stroke-width="1" opacity="1" d="M 93.5 22 L 96 23.5 L 94.5 24 L 93.5 22 Z "></path><path fill="rgb(200,208,200)" stroke="rgb(200,208,200)" stroke-width="1" opacity="1" d="M 104.5 22 L 107 23.5 L 104.5 27 L 106 24.5 Q 106.8 22.3 104.5 23 L 104.5 22 Z "></path><path fill="rgb(200,208,200)" stroke="rgb(200,208,200)" stroke-width="1" opacity="1" d="M 11.5 23 L 14 23.5 L 13 25.5 L 19 28.5 L 16.5 29 L 10 25 L 11.5 28 L 17 31.5 L 15.5 32 L 11.5 29 L 9.5 30 L 10 28.5 L 9.5 27 L 8 27.5 L 11.5 23 Z "></path><path fill="rgb(200,208,200)" stroke="rgb(200,208,200)" stroke-width="1" opacity="1" d="M 28.5 24 L 23.5 30 L 28.5 24 Z "></path><path fill="rgb(200,208,200)" stroke="rgb(200,208,200)" stroke-width="1" opacity="1" d="M 94.5 28 L 95.5 30 L 94.5 28 Z "></path><path fill="rgb(200,208,200)" stroke="rgb(200,208,200)" stroke-width="1" opacity="1" d="M 107.5 29 L 108.5 31 L 107.5 29 Z "></path><path fill="rgb(200,208,200)" stroke="rgb(200,208,200)" stroke-width="1" opacity="1" d="M 22.5 31 L 19.5 35 L 22.5 31 Z "></path><path fill="rgb(200,208,200)" stroke="rgb(200,208,200)" stroke-width="1" opacity="1" d="M 96.5 31 L 102 38.5 L 100 37.5 L 96.5 31 Z "></path><path fill="rgb(200,208,200)" stroke="rgb(200,208,200)" stroke-width="1" opacity="1" d="M 102.5 31 L 103.5 34 L 105 33.5 Q 103.5 36.5 102 33.5 L 102.5 31 Z "></path><path fill="rgb(200,208,200)" stroke="rgb(200,208,200)" stroke-width="1" opacity="1" d="M 18.5 36 L 18 37.5 L 15.5 43 L 15 41.5 L 18.5 36 Z "></path><path fill="rgb(200,208,200)" stroke="rgb(200,208,200)" stroke-width="1" opacity="1" d="M 110.5 37 L 111.5 39 Q 108.7 39.7 110.5 37 Z "></path><path fill="rgb(200,208,200)" stroke="rgb(200,208,200)" stroke-width="1" opacity="1" d="M 105 39 L 107 39.5 L 105 40.5 L 105 39 Z "></path><path fill="rgb(200,208,200)" stroke="rgb(200,208,200)" stroke-width="1" opacity="1" d="M 112.5 40 L 111.5 42 L 112.5 40 Z "></path><path fill="rgb(200,208,200)" stroke="rgb(200,208,200)" stroke-width="1" opacity="1" d="M 106.5 42 L 109 43.5 L 107.5 43 L 106.5 42 Z "></path><path fill="rgb(200,208,200)" stroke="rgb(200,208,200)" stroke-width="1" opacity="1" d="M 3.5 43 L 4 45 L 6 44.5 L 5.5 43 Q 8.3 44.3 6 45.5 L 5.5 47 L 3 46 L 3.5 43 Z "></path><path fill="rgb(200,208,200)" stroke="rgb(200,208,200)" stroke-width="1" opacity="1" d="M 8.5 45 Q 12.6 46.9 13 52.5 L 12 52.5 L 11.5 50 L 10 50.5 L 11 48.5 L 9.5 49 L 5 48.5 L 10 47.5 L 8.5 45 Z "></path><path fill="rgb(200,208,200)" stroke="rgb(200,208,200)" stroke-width="1" opacity="1" d="M 105.5 48 L 106.5 50 L 111.5 49 L 111.5 50 L 106.5 51 L 105.5 48 Z "></path><path fill="rgb(200,208,200)" stroke="rgb(200,208,200)" stroke-width="1" opacity="1" d="M 112 51 Q 115 50 114 53 Q 111 54 112 51 Z "></path><path fill="rgb(200,208,200)" stroke="rgb(200,208,200)" stroke-width="1" opacity="1" d="M 107 53 L 109 53.5 L 108 56 L 106 55.5 L 107 53 Z "></path><path fill="rgb(200,208,200)" stroke="rgb(200,208,200)" stroke-width="1" opacity="1" d="M 115.5 53 L 116 55 L 114 54.5 L 115.5 53 Z "></path><path fill="rgb(200,208,200)" stroke="rgb(200,208,200)" stroke-width="1" opacity="1" d="M 1.5 56 L 6.5 57 L 8 56.5 Q 6.8 59.3 5.5 57 Q 0.5 58 1.5 56 Z "></path><path fill="rgb(200,208,200)" stroke="rgb(200,208,200)" stroke-width="1" opacity="1" d="M 74.5 57 L 79 62.5 L 72.5 63 Q 70.8 59.3 69 62.5 L 66.5 68 L 65 68.5 L 68 70 L 70 76 L 63 75 L 63 63.5 L 60.5 63 L 59 63.5 Q 56.9 57.6 61.5 59 L 63 58.5 L 62 60.5 L 64.5 62 L 74.5 57 Z M 68 61 L 65 64 Q 64 67 67 66 L 68 64 L 68 61 Z "></path><path fill="rgb(200,208,200)" stroke="rgb(200,208,200)" stroke-width="1" opacity="1" d="M 111.5 61 L 116 61.5 L 109.5 63 L 109.5 62 L 111.5 61 Z "></path><path fill="rgb(200,208,200)" stroke="rgb(200,208,200)" stroke-width="1" opacity="1" d="M 2.5 63 L 4 65.5 L 2 66.5 L 2 64.5 L 2.5 63 Z "></path><path fill="rgb(200,208,200)" stroke="rgb(200,208,200)" stroke-width="1" opacity="1" d="M 115.5 63 L 116 66 L 109 65.5 L 115 65 L 115.5 63 Z "></path><path fill="rgb(200,208,200)" stroke="rgb(200,208,200)" stroke-width="1" opacity="1" d="M 78.5 64 L 82 66.5 L 79.5 70 L 78.5 64 Z "></path><path fill="rgb(200,208,200)" stroke="rgb(200,208,200)" stroke-width="1" opacity="1" d="M 106.5 67 L 107 69.5 L 106 69.5 L 106.5 67 Z "></path><path fill="rgb(200,208,200)" stroke="rgb(200,208,200)" stroke-width="1" opacity="1" d="M 12.5 68 L 13 70.5 L 12 70.5 L 12.5 68 Z "></path><path fill="rgb(200,208,200)" stroke="rgb(200,208,200)" stroke-width="1" opacity="1" d="M 118.5 69 L 119 71.5 L 116.5 73 L 116.5 72 Q 119.4 72.7 118.5 69 Z "></path><path fill="rgb(200,208,200)" stroke="rgb(200,208,200)" stroke-width="1" opacity="1" d="M 105.5 71 L 106 73.5 L 105 73.5 L 105.5 71 Z "></path><path fill="rgb(200,208,200)" stroke="rgb(200,208,200)" stroke-width="1" opacity="1" d="M 2.5 72 L 3 74.5 L 2 74.5 L 2.5 72 Z "></path><path fill="rgb(200,208,200)" stroke="rgb(200,208,200)" stroke-width="1" opacity="1" d="M 13.5 72 L 14 74.5 L 13 74.5 L 13.5 72 Z "></path><path fill="rgb(200,208,200)" stroke="rgb(200,208,200)" stroke-width="1" opacity="1" d="M 75.5 73 L 78 73.5 L 75.5 77 L 71 76.5 L 75.5 73 Z "></path><path fill="rgb(200,208,200)" stroke="rgb(200,208,200)" stroke-width="1" opacity="1" d="M 111.5 75 L 114 76.5 L 112.5 76 L 111 76.5 L 111.5 78 L 109.5 78 Q 107.3 78.8 108 76.5 Q 109.8 78.1 111.5 75 Z "></path><path fill="rgb(200,208,200)" stroke="rgb(200,208,200)" stroke-width="1" opacity="1" d="M 103.5 78 L 104 79.5 L 100.5 85 L 101 83.5 L 103.5 78 Z "></path><path fill="rgb(200,208,200)" stroke="rgb(200,208,200)" stroke-width="1" opacity="1" d="M 112.5 79 L 111.5 81 L 109 80.5 L 112.5 79 Z "></path><path fill="rgb(200,208,200)" stroke="rgb(200,208,200)" stroke-width="1" opacity="1" d="M 16.5 81 L 19 85.5 L 17 84.5 L 16.5 81 Z "></path><path fill="rgb(200,208,200)" stroke="rgb(200,208,200)" stroke-width="1" opacity="1" d="M 5.5 82 L 4.5 84 L 3 83.5 L 5.5 82 Z "></path><path fill="rgb(200,208,200)" stroke="rgb(200,208,200)" stroke-width="1" opacity="1" d="M 108.5 84 L 111 85.5 L 109.5 85 L 108.5 84 Z "></path><path fill="rgb(200,208,200)" stroke="rgb(200,208,200)" stroke-width="1" opacity="1" d="M 3.5 85 L 6 85.5 Q 3.9 88.8 3.5 85 Z "></path><path fill="rgb(200,208,200)" stroke="rgb(200,208,200)" stroke-width="1" opacity="1" d="M 99.5 86 L 99 87.5 L 94.5 93 L 98 88.5 L 99.5 86 Z "></path><path fill="rgb(200,208,200)" stroke="rgb(200,208,200)" stroke-width="1" opacity="1" d="M 19.5 87 L 20.5 89 L 19.5 87 Z "></path><path fill="rgb(200,208,200)" stroke="rgb(200,208,200)" stroke-width="1" opacity="1" d="M 8.5 89 L 11 89.5 Q 10.5 92.5 6.5 92 L 6.5 91 Q 9 91.7 8.5 89 Z "></path><path fill="rgb(200,208,200)" stroke="rgb(200,208,200)" stroke-width="1" opacity="1" d="M 101.5 89 L 104 89.5 L 101.5 90 L 101.5 89 Z "></path><path fill="rgb(200,208,200)" stroke="rgb(200,208,200)" stroke-width="1" opacity="1" d="M 21.5 90 L 28.5 98 L 21.5 90 Z "></path><path fill="rgb(200,208,200)" stroke="rgb(200,208,200)" stroke-width="1" opacity="1" d="M 99.5 91 L 101.5 91 L 104 93.5 L 101.5 92 L 99 93.5 L 99.5 91 Z "></path><path fill="rgb(200,208,200)" stroke="rgb(200,208,200)" stroke-width="1" opacity="1" d="M 16.5 94 L 15.5 96 L 16.5 94 Z "></path><path fill="rgb(200,208,200)" stroke="rgb(200,208,200)" stroke-width="1" opacity="1" d="M 91.5 95 L 88.5 99 L 91.5 95 Z "></path><path fill="rgb(200,208,200)" stroke="rgb(200,208,200)" stroke-width="1" opacity="1" d="M 11 97 L 13 97.5 Q 10.8 98.7 13.5 100 L 16 98.5 L 15 101 Q 11.3 102.5 12 99.5 L 11 97 Z "></path><path fill="rgb(200,208,200)" stroke="rgb(200,208,200)" stroke-width="1" opacity="1" d="M 30.5 98 L 32.5 101 L 30.5 98 Z "></path><path fill="rgb(200,208,200)" stroke="rgb(200,208,200)" stroke-width="1" opacity="1" d="M 97.5 98 Q 100.5 99.5 97.5 101 Q 94.5 99.5 97.5 98 Z "></path><path fill="rgb(200,208,200)" stroke="rgb(200,208,200)" stroke-width="1" opacity="1" d="M 100.5 98 L 101 100.5 L 99.5 103 L 99 101.5 L 100.5 98 Z "></path><path fill="rgb(200,208,200)" stroke="rgb(200,208,200)" stroke-width="1" opacity="1" d="M 86.5 99 L 84.5 102 Q 80 106.5 71.5 107 L 71.5 106 Q 81.8 105.3 86.5 99 Z "></path><path fill="rgb(200,208,200)" stroke="rgb(200,208,200)" stroke-width="1" opacity="1" d="M 93.5 100 L 100 105.5 L 98.5 106 L 93.5 100 Z "></path><path fill="rgb(200,208,200)" stroke="rgb(200,208,200)" stroke-width="1" opacity="1" d="M 34.5 101 L 41 104.5 L 39.5 105 Q 34.9 103.8 34.5 101 Z "></path><path fill="rgb(200,208,200)" stroke="rgb(200,208,200)" stroke-width="1" opacity="1" d="M 28 104 L 30.5 105 L 32 104.5 L 30.5 107 L 28 106 L 28 104 Z "></path><path fill="rgb(200,208,200)" stroke="rgb(200,208,200)" stroke-width="1" opacity="1" d="M 80.5 106 L 81.5 108 L 80.5 106 Z "></path><path fill="rgb(200,208,200)" stroke="rgb(200,208,200)" stroke-width="1" opacity="1" d="M 26.5 107 L 28 109.5 L 26 108.5 L 26.5 107 Z "></path><path fill="rgb(200,208,200)" stroke="rgb(200,208,200)" stroke-width="1" opacity="1" d="M 48.5 107 L 51 107.5 L 48.5 108 L 48.5 107 Z "></path><path fill="rgb(200,208,200)" stroke="rgb(200,208,200)" stroke-width="1" opacity="1" d="M 37.5 108 L 38 110.5 L 37 110.5 L 37.5 108 Z "></path><path fill="rgb(200,208,200)" stroke="rgb(200,208,200)" stroke-width="1" opacity="1" d="M 81.5 109 L 84 109.5 L 81.5 110 L 81.5 109 Z "></path><path fill="rgb(200,208,200)" stroke="rgb(200,208,200)" stroke-width="1" opacity="1" d="M 35.5 110 L 35 111.5 L 34.5 113 L 34 111.5 L 35.5 110 Z "></path><path fill="rgb(200,208,200)" stroke="rgb(200,208,200)" stroke-width="1" opacity="1" d="M 40.5 110 L 39.5 112 L 40.5 110 Z "></path><path fill="rgb(200,208,200)" stroke="rgb(200,208,200)" stroke-width="1" opacity="1" d="M 46 110 L 48 110.5 L 46.5 113 L 46 110 Z "></path><path fill="rgb(200,208,200)" stroke="rgb(200,208,200)" stroke-width="1" opacity="1" d="M 85.5 110 L 86 113.5 L 83.5 115 L 81.5 114 L 80 114.5 Q 79.3 112.3 81.5 113 L 83.5 112 L 83.5 114 L 85 114 L 85.5 110 Z "></path><path fill="rgb(200,208,200)" stroke="rgb(200,208,200)" stroke-width="1" opacity="1" d="M 55.5 111 Q 57.8 110.3 57 112.5 L 55.5 116 L 55 113.5 L 55.5 111 Z "></path><path fill="rgb(200,208,200)" stroke="rgb(200,208,200)" stroke-width="1" opacity="1" d="M 45.5 114 L 48 114.5 L 45.5 115 L 45.5 114 Z "></path><path fill="rgb(200,208,200)" stroke="rgb(200,208,200)" stroke-width="1" opacity="1" d="M 43.5 115 L 46 116.5 L 44.5 117 L 43.5 115 Z "></path><path fill="rgb(200,208,200)" stroke="rgb(200,208,200)" stroke-width="1" opacity="1" d="M 60 115 L 62 115.5 L 60.5 118 L 60 115 Z "></path><path fill="rgb(200,208,200)" stroke="rgb(200,208,200)" stroke-width="1" opacity="1" d="M 65.5 116 L 64.5 118 L 65.5 116 Z "></path><path fill="rgb(200,208,200)" stroke="rgb(200,208,200)" stroke-width="1" opacity="1" d="M 55.5 117 L 56 118.5 L 53 120.5 L 55.5 117 Z "></path><path fill="rgb(255,255,255)" stroke="rgb(255,255,255)" stroke-width="1" opacity="1" d="M 0 0 L 52.5 0 L 53 2.5 L 54 7.5 L 53 10 L 58.5 9 L 62 10 L 62 0 L 65.5 0 L 65 1.5 L 66 4.5 L 65 8.5 L 66 11 L 73 11 L 73 6.5 Q 75.8 5.4 75 2 L 67 0.5 L 119 0 L 119 68.5 L 117.5 69 L 115.5 70 L 109 68 Q 106.7 74.4 114.5 72 L 119 73 L 119 121 L 55.5 121 L 56 119.5 L 57 116.5 L 56 113.5 L 57 111 L 53 111 L 53 120.5 L 52.5 121 L 0 121 L 0.5 64 L 1 67 L 8 67 L 8 64.5 L 7 60 L 0 61 L 0 0 Z M 44 1 Q 45 4 42 3 L 41 6 L 42 10 L 46 11 L 51 10 L 50 5 L 50 1 L 44 1 Z M 89 7 L 87 9 L 88 12 L 87 14 L 45 14 L 36 18 L 27 25 L 26 18 L 29 19 L 33 16 L 30 10 L 27 12 Q 24 11 25 14 L 25 16 L 25 19 L 21 16 L 19 17 Q 20 12 16 14 L 16 16 Q 17 18 15 17 L 15 16 L 14 15 L 12 15 L 13 17 L 12 22 L 7 29 L 10 30 L 12 29 L 12 33 L 14 32 L 12 35 L 14 35 Q 15 33 16 36 L 15 39 L 14 36 L 12 38 L 12 48 L 10 47 Q 11 44 7 45 L 7 43 L 3 43 L 2 50 L 5 49 Q 10 47 9 51 Q 10 53 12 51 L 12 79 L 15 82 L 15 86 Q 12 85 14 84 L 11 77 Q 6 76 4 80 L 5 82 Q 6 84 3 83 L 5 87 Q 7 88 6 85 L 12 83 L 12 86 L 8 88 Q 3 90 7 92 L 10 91 Q 12 92 11 90 L 13 91 L 12 96 L 10 98 L 14 107 L 14 108 L 15 108 L 15 103 L 13 103 L 15 102 L 16 100 L 16 108 L 19 108 L 19 98 Q 23 96 19 94 L 20 89 L 25 96 L 25 108 L 31 112 Q 35 111 34 105 L 30 103 L 27 107 L 26 107 L 27 97 Q 34 105 46 108 L 77 108 L 82 116 L 86 115 L 86 110 L 85 110 L 86 108 L 107 108 L 107 89 L 111 89 L 112 88 L 111 86 L 111 84 L 107 84 L 107 80 L 113 81 L 114 77 L 110 73 L 108 74 L 107 56 L 116 55 L 114 48 L 112 49 Q 106 51 107 48 L 114 45 L 112 37 Q 109 36 110 39 Q 106 41 107 37 L 110 35 Q 111 30 107 29 L 107 14 L 94 14 L 95 12 L 89 7 Z M 1 52 L 1 58 L 4 57 L 7 58 L 8 58 L 8 53 L 6 54 Q 3 55 4 52 L 1 52 Z M 115 58 L 109 59 L 109 66 L 116 66 L 116 59 L 115 58 Z M 2 71 L 2 76 Q 4 79 6 75 Q 11 77 9 71 L 7 72 L 2 71 Z M 37 106 L 37 111 L 36 110 L 34 113 L 39 114 Q 42 113 41 109 L 37 106 Z M 45 109 L 42 116 L 48 117 L 50 112 L 45 109 Z M 71 110 L 68 111 L 69 118 L 77 116 L 75 112 Q 74 109 71 110 Z M 61 111 L 62 114 Q 63 116 60 115 L 60 118 L 66 118 L 65 116 L 66 113 L 66 111 L 61 111 Z "></path><path fill="rgb(255,255,255)" stroke="rgb(255,255,255)" stroke-width="1" opacity="1" d="M 46.5 4 L 49 5.5 L 47 6 L 48 8.5 L 46 7.5 L 45 5.5 L 46.5 4 Z "></path><path fill="rgb(255,255,255)" stroke="rgb(255,255,255)" stroke-width="1" opacity="1" d="M 69.5 4 Q 71.8 3.3 71 5.5 L 69.5 9 L 68 5.5 L 69.5 4 Z "></path><path fill="rgb(255,255,255)" stroke="rgb(255,255,255)" stroke-width="1" opacity="1" d="M 14.5 20 Q 17.5 19.5 16 26.5 L 15 26.5 L 14.5 20 Z "></path><path fill="rgb(255,255,255)" stroke="rgb(255,255,255)" stroke-width="1" opacity="1" d="M 24.5 22 L 25 26.5 L 19.5 33 L 19 25.5 Q 21.8 27.4 24.5 22 Z "></path><path fill="rgb(255,255,255)" stroke="rgb(255,255,255)" stroke-width="1" opacity="1" d="M 14.5 90 L 16 94.5 L 13.5 96 L 14 94.5 L 14.5 90 Z "></path><path fill="rgb(225,105,68)" stroke="rgb(225,105,68)" stroke-width="1" opacity="1" d="M 64 14 L 68 15 L 67 21 L 62 20 L 64 14 Z "></path><path fill="rgb(225,105,68)" stroke="rgb(225,105,68)" stroke-width="1" opacity="1" d="M 69.5 48 L 71 48 L 71 52 L 73.5 52 L 76.5 51 L 84 62 Q 78.5 63.3 77 59.5 L 79 59.5 Q 79.9 56.5 75.5 58 L 73.5 58 L 63.5 62 L 62 59 Q 57.1 57.2 59 63.5 L 60.5 63 L 63 63 L 63 74.5 L 64.5 75 Q 66 78.5 67.5 76 L 71 78.5 L 70.5 82 L 58 79 L 57.5 74 L 53 76 L 52 62.5 L 50.5 61 L 47 58.5 L 52 56 L 52 50 L 54.5 50 L 59.5 52 L 69.5 48 Z M 65 51 L 65 54 L 69 53 L 65 51 Z "></path><path fill="rgb(225,105,68)" stroke="rgb(225,105,68)" stroke-width="1" opacity="1" d="M 70.5 61 L 72.5 64 L 69.5 65 L 69 62.5 L 70.5 61 Z "></path><path fill="rgb(225,105,68)" stroke="rgb(225,105,68)" stroke-width="1" opacity="1" d="M 75.5 63 L 79 63.5 L 78 66 Q 75.3 67.1 76 64.5 L 75.5 63 Z "></path><path fill="rgb(225,105,68)" stroke="rgb(225,105,68)" stroke-width="1" opacity="1" d="M 67.5 67 L 68 70 L 65 68.5 L 67.5 67 Z "></path><path fill="rgb(225,105,68)" stroke="rgb(225,105,68)" stroke-width="1" opacity="1" d="M 77.5 70 L 78.5 72 L 76 71.5 L 77.5 70 Z "></path><path fill="rgb(225,105,68)" stroke="rgb(225,105,68)" stroke-width="1" opacity="1" d="M 69 72 L 73 73.5 L 70 75.5 L 69 72 Z "></path><path fill="rgb(225,105,68)" stroke="rgb(225,105,68)" stroke-width="1" opacity="1" d="M 75.5 78 Q 80.9 76.1 80 79.5 L 78 83 Q 74.2 84 73 81.5 L 75.5 78 Z "></path><path fill="rgb(225,105,68)" stroke="rgb(225,105,68)" stroke-width="1" opacity="1" d="M 79.5 99 L 83 99.5 L 78.5 101 L 79.5 99 Z "></path><path fill="rgb(46,34,40)" stroke="rgb(46,34,40)" stroke-width="1" opacity="1" d="M 55.5 2 L 58 3.5 L 61 8.5 L 58 6.5 L 55.5 2 Z "></path><path fill="rgb(46,34,40)" stroke="rgb(46,34,40)" stroke-width="1" opacity="1" d="M 67.5 2 L 68 6.5 L 67 8.5 L 67.5 10 L 66 6.5 L 67.5 2 Z "></path><path fill="rgb(46,34,40)" stroke="rgb(46,34,40)" stroke-width="1" opacity="1" d="M 44.5 3 L 44 4.5 Q 43.3 8.8 46 9.5 L 44 10 L 43 4.5 L 44.5 3 Z "></path><path fill="rgb(46,34,40)" stroke="rgb(46,34,40)" stroke-width="1" opacity="1" d="M 72.5 3 L 73 6.5 L 71.5 10 L 71 6.5 L 72.5 3 Z "></path><path fill="rgb(46,34,40)" stroke="rgb(46,34,40)" stroke-width="1" opacity="1" d="M 48.5 6 Q 51.5 5.1 50 9.5 L 49 9.5 L 48.5 6 Z "></path><path fill="rgb(46,34,40)" stroke="rgb(46,34,40)" stroke-width="1" opacity="1" d="M 90.5 10 L 91 11.5 L 88 17 L 86 16.5 L 90.5 10 Z "></path><path fill="rgb(46,34,40)" stroke="rgb(46,34,40)" stroke-width="1" opacity="1" d="M 26 14 L 28 14 Q 26.9 16.7 29.5 16 L 29.5 17 L 26 15.5 L 26 14 Z "></path><path fill="rgb(46,34,40)" stroke="rgb(46,34,40)" stroke-width="1" opacity="1" d="M 20.5 17 L 25 20.5 L 23.5 21 Q 21.2 15.7 19 19.5 L 22 23.5 L 20.5 24 L 16 18.5 L 17.5 19 L 20.5 17 Z "></path><path fill="rgb(46,34,40)" stroke="rgb(46,34,40)" stroke-width="1" opacity="1" d="M 74.5 18 L 80 20 Q 81.3 23 77.5 22 L 74 19.5 L 74.5 18 Z "></path><path fill="rgb(46,34,40)" stroke="rgb(46,34,40)" stroke-width="1" opacity="1" d="M 97.5 18 L 98 20 L 100 20.5 L 98.5 21 L 97.5 20 L 94 22.5 L 97.5 18 Z "></path><path fill="rgb(46,34,40)" stroke="rgb(46,34,40)" stroke-width="1" opacity="1" d="M 103.5 25 L 104 27 L 99.5 29 L 99.5 28 L 103.5 25 Z "></path><path fill="rgb(46,34,40)" stroke="rgb(46,34,40)" stroke-width="1" opacity="1" d="M 11.5 26 L 17 29 L 16.5 31 L 11.5 26 Z "></path><path fill="rgb(46,34,40)" stroke="rgb(46,34,40)" stroke-width="1" opacity="1" d="M 103 32 L 105 32.5 L 103 33.5 L 103 32 Z "></path><path fill="rgb(46,34,40)" stroke="rgb(46,34,40)" stroke-width="1" opacity="1" d="M 108.5 32 L 109 33.5 L 104.5 36 L 105.5 34 L 108.5 32 Z "></path><path fill="rgb(46,34,40)" stroke="rgb(46,34,40)" stroke-width="1" opacity="1" d="M 25 36 Q 31 33.8 29 40.5 L 24.5 44 Q 22.3 43.3 23 39.5 L 25 36 Z "></path><path fill="rgb(46,34,40)" stroke="rgb(46,34,40)" stroke-width="1" opacity="1" d="M 110.5 39 Q 113.1 38.3 112 41 L 106 42 L 106.5 40 L 108.5 40 L 110.5 39 Z "></path><path fill="rgb(46,34,40)" stroke="rgb(46,34,40)" stroke-width="1" opacity="1" d="M 112.5 42 L 110.5 45 L 108.5 46 L 108 44 L 112.5 42 Z "></path><path fill="rgb(46,34,40)" stroke="rgb(46,34,40)" stroke-width="1" opacity="1" d="M 3.5 46 L 6.5 47 Q 7.8 44.8 9 47.5 L 3 48 L 3.5 46 Z "></path><path fill="rgb(46,34,40)" stroke="rgb(46,34,40)" stroke-width="1" opacity="1" d="M 110.5 50 L 112.5 50 L 115 51.5 Q 116.3 55.3 112.5 54 L 110.5 51 L 109.5 55 L 109 51.5 L 110.5 50 Z M 112 51 Q 111 54 114 53 Q 115 50 112 51 Z "></path><path fill="rgb(46,34,40)" stroke="rgb(46,34,40)" stroke-width="1" opacity="1" d="M 106.5 52 L 106 53.5 L 105.5 57 L 105 53.5 L 106.5 52 Z "></path><path fill="rgb(46,34,40)" stroke="rgb(46,34,40)" stroke-width="1" opacity="1" d="M 2 54 L 7 55.5 L 2 56 L 2 54 Z "></path><path fill="rgb(46,34,40)" stroke="rgb(46,34,40)" stroke-width="1" opacity="1" d="M 12.5 56 L 13 63.5 L 12 63.5 L 12.5 56 Z "></path><path fill="rgb(46,34,40)" stroke="rgb(46,34,40)" stroke-width="1" opacity="1" d="M 105.5 58 L 107 61.5 L 105 60.5 L 105.5 58 Z "></path><path fill="rgb(46,34,40)" stroke="rgb(46,34,40)" stroke-width="1" opacity="1" d="M 110.5 60 L 115 60.5 L 110.5 61 L 110.5 60 Z "></path><path fill="rgb(46,34,40)" stroke="rgb(46,34,40)" stroke-width="1" opacity="1" d="M 5.5 61 Q 8.1 60.3 7 63 L 2 63 L 2 64.5 L 2.5 66 L 1 62 L 5.5 61 Z "></path><path fill="rgb(46,34,40)" stroke="rgb(46,34,40)" stroke-width="1" opacity="1" d="M 6.5 64 L 7 66 L 4 65.5 L 6.5 64 Z "></path><path fill="rgb(46,34,40)" stroke="rgb(46,34,40)" stroke-width="1" opacity="1" d="M 110.5 64 L 115 64.5 L 110.5 65 L 110.5 64 Z "></path><path fill="rgb(46,34,40)" stroke="rgb(46,34,40)" stroke-width="1" opacity="1" d="M 73 65 Q 75.7 63.9 75 66.5 L 76 69.5 Q 75.5 72.5 71.5 72 L 70 70.5 L 73 67.5 L 73 65 Z "></path><path fill="rgb(46,34,40)" stroke="rgb(46,34,40)" stroke-width="1" opacity="1" d="M 110.5 69 Q 111.8 71.2 116.5 70 L 118 71.5 L 115.5 72 L 110 71 L 110.5 69 Z "></path><path fill="rgb(46,34,40)" stroke="rgb(46,34,40)" stroke-width="1" opacity="1" d="M 7.5 72 L 8 74 L 3.5 75 L 3 73 L 7.5 72 Z "></path><path fill="rgb(46,34,40)" stroke="rgb(46,34,40)" stroke-width="1" opacity="1" d="M 107.5 77 L 112 79.5 L 109.5 80 L 107 79 L 107.5 77 Z "></path><path fill="rgb(46,34,40)" stroke="rgb(46,34,40)" stroke-width="1" opacity="1" d="M 7.5 78 L 11 79.5 L 9.5 79 L 5.5 81 L 7.5 78 Z "></path><path fill="rgb(46,34,40)" stroke="rgb(46,34,40)" stroke-width="1" opacity="1" d="M 11.5 81 L 10.5 83 L 4.5 85 L 4.5 84 L 11.5 81 Z "></path><path fill="rgb(46,34,40)" stroke="rgb(46,34,40)" stroke-width="1" opacity="1" d="M 104.5 84 L 110 85 Q 111.1 87.7 108.5 87 L 104.5 85 L 104.5 84 Z "></path><path fill="rgb(46,34,40)" stroke="rgb(46,34,40)" stroke-width="1" opacity="1" d="M 12.5 86 L 14 86.5 L 9.5 90 L 9 88.5 L 12.5 86 Z "></path><path fill="rgb(46,34,40)" stroke="rgb(46,34,40)" stroke-width="1" opacity="1" d="M 23.5 88 L 33 93.5 Q 34.7 98.3 30.5 97 L 23 90.5 L 23.5 88 Z "></path><path fill="rgb(46,34,40)" stroke="rgb(46,34,40)" stroke-width="1" opacity="1" d="M 101.5 90 L 105 91.5 L 103.5 92 L 101.5 91 L 100 91.5 L 101.5 90 Z "></path><path fill="rgb(46,34,40)" stroke="rgb(46,34,40)" stroke-width="1" opacity="1" d="M 102.5 93 L 105 94.5 L 102 95 L 102.5 93 Z "></path><path fill="rgb(46,34,40)" stroke="rgb(46,34,40)" stroke-width="1" opacity="1" d="M 17.5 94 L 19 94.5 L 13.5 99 L 17.5 94 Z "></path><path fill="rgb(46,34,40)" stroke="rgb(46,34,40)" stroke-width="1" opacity="1" d="M 96.5 96 L 100 98.5 L 98.5 98 L 96.5 96 Z "></path><path fill="rgb(46,34,40)" stroke="rgb(46,34,40)" stroke-width="1" opacity="1" d="M 93.5 99 L 97.5 102 L 100 100.5 L 99 103.5 L 99.5 105 L 93.5 99 Z "></path><path fill="rgb(46,34,40)" stroke="rgb(46,34,40)" stroke-width="1" opacity="1" d="M 30.5 104 Q 32.8 104.8 32 108.5 L 30 109.5 L 31 105.5 L 30.5 104 Z "></path><path fill="rgb(46,34,40)" stroke="rgb(46,34,40)" stroke-width="1" opacity="1" d="M 27 107 L 29 107.5 L 27 108.5 L 27 107 Z "></path><path fill="rgb(46,34,40)" stroke="rgb(46,34,40)" stroke-width="1" opacity="1" d="M 37.5 107 Q 41.7 108.7 39 110.5 L 38.5 112 L 37.5 107 Z "></path><path fill="rgb(46,34,40)" stroke="rgb(46,34,40)" stroke-width="1" opacity="1" d="M 79.5 109 L 85 111.5 L 84.5 113 L 79 111 L 79.5 109 Z "></path><path fill="rgb(46,34,40)" stroke="rgb(46,34,40)" stroke-width="1" opacity="1" d="M 44.5 110 Q 47.3 111.2 45 112.5 L 44.5 116 L 44.5 110 Z "></path><path fill="rgb(46,34,40)" stroke="rgb(46,34,40)" stroke-width="1" opacity="1" d="M 35.5 111 L 36.5 113 L 35.5 111 Z "></path><path fill="rgb(46,34,40)" stroke="rgb(46,34,40)" stroke-width="1" opacity="1" d="M 47.5 111 Q 49.8 110.3 49 112.5 L 47.5 111 Z "></path><path fill="rgb(46,34,40)" stroke="rgb(46,34,40)" stroke-width="1" opacity="1" d="M 69.5 111 L 71 116.5 L 70 116.5 L 69.5 111 Z "></path><path fill="rgb(46,34,40)" stroke="rgb(46,34,40)" stroke-width="1" opacity="1" d="M 72.5 111 Q 74.8 110.3 74 112.5 L 75 115.5 L 74 115.5 L 72.5 111 Z "></path><path fill="rgb(46,34,40)" stroke="rgb(46,34,40)" stroke-width="1" opacity="1" d="M 54.5 112 L 55 118 L 53 117.5 L 54.5 112 Z "></path><path fill="rgb(46,34,40)" stroke="rgb(46,34,40)" stroke-width="1" opacity="1" d="M 62.5 112 Q 65.9 111.1 64 116.5 L 63 116.5 L 62.5 112 Z "></path><path fill="rgb(174,61,29)" stroke="rgb(174,61,29)" stroke-width="1" opacity="1" d="M 68.5 21 L 74 23 Q 72.8 26 76.5 25 L 82 27.5 L 77.5 28 L 70.5 24 L 68.5 21 Z "></path><path fill="rgb(174,61,29)" stroke="rgb(174,61,29)" stroke-width="1" opacity="1" d="M 34 29 L 39 29.5 Q 35.2 34.2 37 44.5 L 40.5 42 L 47 45.5 L 46.5 50 L 46 46 L 41 48 L 41.5 54 L 45.5 51 L 44.5 53 L 40.5 55 L 36 51.5 L 35.5 46 L 26.5 51 L 22.5 55 Q 20 53.8 21 50 L 23.5 49 L 26 50.5 Q 25.3 46.8 27.5 46 L 32 43.5 L 34 39.5 L 33 36.5 L 35 33.5 L 34 29 Z "></path><path fill="rgb(174,61,29)" stroke="rgb(174,61,29)" stroke-width="1" opacity="1" d="M 72.5 41 L 82 49.5 L 86 54.5 L 82 56.5 L 84.5 60 Q 87.1 59.2 86 62.5 Q 89 63.5 88 68.5 L 82 77.5 L 86 78.5 Q 82.4 79.9 83 85.5 L 85 92 L 80.5 93 L 80 91.5 L 82.5 88 L 74 92 L 72.5 88 L 63.5 85 L 57.5 85 L 55 86.5 L 52.5 82 L 48 79.5 L 52.5 76 L 59.5 80 L 66 81 L 67.5 85 L 69.5 82 L 67 81.5 L 69.5 81 L 71 81.5 L 70 77.5 L 71.5 77 L 75 78.5 L 73 81.5 Q 74.2 84 78 83 L 80 78 L 77 77.5 L 79 74 Q 82 75.3 81 71.5 L 84 66.5 L 81 62 Q 84.8 63.5 84 60.5 L 76.5 51 L 71 47.5 L 72.5 41 Z "></path><path fill="rgb(174,61,29)" stroke="rgb(174,61,29)" stroke-width="1" opacity="1" d="M 77.5 58 Q 79.8 57.3 79 59.5 L 77.5 58 Z "></path><path fill="rgb(174,61,29)" stroke="rgb(174,61,29)" stroke-width="1" opacity="1" d="M 29.5 86 L 32 87.5 Q 32.7 90.1 30 89 L 29.5 86 Z "></path><path fill="rgb(174,61,29)" stroke="rgb(174,61,29)" stroke-width="1" opacity="1" d="M 34.5 88 L 39 90 L 40 94.5 L 40 96.5 Q 40.7 99.1 38 98 L 38 94 Q 35.3 95.1 36 92.5 Q 32.9 91.4 34.5 88 Z "></path><path fill="rgb(174,61,29)" stroke="rgb(174,61,29)" stroke-width="1" opacity="1" d="M 85 95 L 88 95.5 L 87 98 Q 83.7 99.1 85 95 Z "></path><path fill="rgb(174,61,29)" stroke="rgb(174,61,29)" stroke-width="1" opacity="1" d="M 39.5 99 Q 41.8 98.3 41 100.5 L 39.5 99 Z "></path><path fill="rgb(174,61,29)" stroke="rgb(174,61,29)" stroke-width="1" opacity="1" d="M 69.5 103 L 71.5 104 L 73 103.5 Q 71.3 106.8 66.5 107 L 69.5 103 Z "></path><path fill="rgb(103,20,19)" stroke="rgb(103,20,19)" stroke-width="1" opacity="1" d="M 41.5 18 Q 44.8 16.9 44 19.5 L 41 21 L 39.5 25 Q 35 24 34 26.5 Q 35.3 30.3 31.5 29 L 33 26.5 Q 33.8 24.3 31.5 25 L 30 25.5 L 41.5 18 Z "></path><path fill="rgb(103,20,19)" stroke="rgb(103,20,19)" stroke-width="1" opacity="1" d="M 47.5 24 L 49 24 Q 47.5 27.7 50.5 27 L 55.5 25 L 57.5 25 L 62.5 24 L 66 26.5 L 62 27.5 L 67 30 Q 65.5 26.2 68.5 27 L 72 29.5 L 66 31 L 65.5 35 Q 63.5 32 57.5 33 Q 56.1 35.6 51.5 35 L 48 32.5 L 52 29.5 L 49 29 L 47.5 26 L 46 25.5 L 47.5 24 Z "></path><path fill="rgb(103,20,19)" stroke="rgb(103,20,19)" stroke-width="1" opacity="1" d="M 84.5 28 Q 88.3 27 87 30 L 84.5 28 Z "></path><path fill="rgb(103,20,19)" stroke="rgb(103,20,19)" stroke-width="1" opacity="1" d="M 25.5 30 L 23 33.5 L 23 36.5 L 19 41.5 L 18 48.5 L 19 51.5 L 17 54.5 Q 20.2 57 19 63 L 21.5 62 L 24 65.5 L 20.5 67 L 19 66.5 L 19.5 70 L 23 69 Q 22 72 25 71 Q 23.8 66.4 26.5 65 Q 27.6 67.8 31 67 Q 29.5 70.7 32.5 70 Q 36.4 72.1 36 78.5 L 34.5 78 L 30.5 77 L 31 78.5 L 30.5 81 L 27 77.5 Q 28 73 25.5 72 L 21.5 74 L 20 73.5 L 20 79.5 L 22 81.5 L 23 88.5 L 21 87.5 L 17 81.5 L 13 67.5 L 13 52.5 L 17 40.5 L 25.5 30 Z "></path><path fill="rgb(103,20,19)" stroke="rgb(103,20,19)" stroke-width="1" opacity="1" d="M 93.5 30 L 98 34.5 L 103 43.5 Q 105.9 48.1 105 56.5 L 103 56.5 Q 103.8 59.1 100.5 58 Q 99.2 60.3 94.5 59 L 87 48.5 L 87 44 L 83 42.5 L 84 32 L 92.5 32 L 93.5 30 Z "></path><path fill="rgb(103,20,19)" stroke="rgb(103,20,19)" stroke-width="1" opacity="1" d="M 44.5 31 L 47 32.5 L 44.5 34 L 44.5 31 Z "></path><path fill="rgb(103,20,19)" stroke="rgb(103,20,19)" stroke-width="1" opacity="1" d="M 99.5 60 L 101 63.5 L 99.5 67 Q 95.3 65.3 98 63.5 L 99.5 60 Z "></path><path fill="rgb(103,20,19)" stroke="rgb(103,20,19)" stroke-width="1" opacity="1" d="M 95.5 62 L 96 67 Q 93 68.3 94 64.5 L 95.5 62 Z "></path><path fill="rgb(103,20,19)" stroke="rgb(103,20,19)" stroke-width="1" opacity="1" d="M 100.5 69 Q 103.8 67.9 103 70.5 L 105 70.5 L 100 83.5 L 94.5 90 L 94 86 Q 91.3 87.1 92 84.5 L 93 82 L 90 81.5 L 96.5 70 L 100.5 69 Z "></path><path fill="rgb(103,20,19)" stroke="rgb(103,20,19)" stroke-width="1" opacity="1" d="M 33.5 81 Q 37.3 79.8 36 83.5 L 33.5 81 Z "></path><path fill="rgb(103,20,19)" stroke="rgb(103,20,19)" stroke-width="1" opacity="1" d="M 53.5 90 L 54 92 L 51 91.5 L 53.5 90 Z "></path><path fill="rgb(103,20,19)" stroke="rgb(103,20,19)" stroke-width="1" opacity="1" d="M 46 95 L 49 96.5 L 46 97 L 46 95 Z "></path><path fill="rgb(103,20,19)" stroke="rgb(103,20,19)" stroke-width="1" opacity="1" d="M 51 96 Q 55.7 95 57 98.5 L 59 103.5 L 56.5 104 L 55.5 101 L 47.5 101 L 47 99 L 51 100 L 51 96 Z "></path><path fill="rgb(103,20,19)" stroke="rgb(103,20,19)" stroke-width="1" opacity="1" d="M 47.5 105 L 52.5 105 Q 51.5 108 56.5 107 L 56.5 108 L 49.5 107 L 47.5 105 Z "></path><path fill="rgb(149,21,20)" stroke="rgb(149,21,20)" stroke-width="1" opacity="1" d="M 67.5 22 L 67 23.5 Q 67.8 25.8 65.5 25 L 63 23.5 L 67.5 22 Z "></path><path fill="rgb(149,21,20)" stroke="rgb(149,21,20)" stroke-width="1" opacity="1" d="M 50 24 L 52 24.5 L 50 25.5 L 50 24 Z "></path><path fill="rgb(149,21,20)" stroke="rgb(149,21,20)" stroke-width="1" opacity="1" d="M 40 25 L 47 27.5 L 43 30.5 L 42 42 L 45 43.5 L 43.5 43 L 40.5 42 L 37 44.5 Q 35.5 38.5 38.5 37 Q 41.1 37.7 40 35 Q 36.3 36.5 37 33.5 L 40 25 Z "></path><path fill="rgb(149,21,20)" stroke="rgb(149,21,20)" stroke-width="1" opacity="1" d="M 70.5 25 Q 74.9 23.5 74 26.5 L 81.5 31 L 82 29 L 86 31.5 L 83 32 L 83 36 L 81.5 36 Q 79.8 32.5 74 34 L 75.5 37 L 78.5 39 L 81.5 38 L 83 41.5 L 82 43.5 L 83 46.5 L 81.5 49 L 72 40.5 L 73 29.5 L 69 26.5 L 70.5 25 Z M 76 40 Q 72 42 77 44 Q 80 45 81 43 Q 80 39 76 40 Z "></path><path fill="rgb(149,21,20)" stroke="rgb(149,21,20)" stroke-width="1" opacity="1" d="M 35.5 46 Q 34.6 51.4 37.5 53 L 40 54.5 L 38.5 55 L 35.5 52 L 34.5 53 L 25 58 L 24.5 64 L 20 61 L 19 57.5 L 25 53.5 L 26 51.5 Q 22.3 49.8 25.5 48 L 27 53 L 29.5 54 L 30 49 L 35.5 46 Z "></path><path fill="rgb(149,21,20)" stroke="rgb(149,21,20)" stroke-width="1" opacity="1" d="M 82.5 50 L 90.5 60 L 95 60.5 L 93 66.5 L 95 69.5 L 89 73.5 L 84.5 81 L 85.5 78 L 82 77.5 L 86 76.5 L 85 73.5 Q 88.7 71.3 88 64.5 Q 85.3 63.4 86 60 L 84 59.5 L 85 56.5 L 83.5 57 L 82 56.5 L 86 54.5 L 82.5 50 Z "></path><path fill="rgb(149,21,20)" stroke="rgb(149,21,20)" stroke-width="1" opacity="1" d="M 23 67 Q 26 65.8 25 69.5 L 23 68.5 L 23 67 Z "></path><path fill="rgb(149,21,20)" stroke="rgb(149,21,20)" stroke-width="1" opacity="1" d="M 22.5 75 L 26 77.5 L 24.5 80 L 22 78.5 L 21 76.5 L 22.5 75 Z "></path><path fill="rgb(149,21,20)" stroke="rgb(149,21,20)" stroke-width="1" opacity="1" d="M 27.5 79 L 30.5 83 L 28.5 84 Q 25.8 82.8 27.5 79 Z "></path><path fill="rgb(149,21,20)" stroke="rgb(149,21,20)" stroke-width="1" opacity="1" d="M 46.5 80 L 54 83.5 L 55.5 87 L 58.5 85 L 57.5 87 L 45 93.5 Q 43.9 101.6 49 103.5 L 44.5 104 L 42 99.5 L 44 99 Q 45.1 96.3 42.5 97 L 39 95.5 L 40 92.5 L 39 90 L 34 88 Q 35 91 32 90 L 33 86.5 L 32 83 L 35.5 85 L 38.5 85 L 46.5 80 Z M 49 81 L 48 85 L 52 87 L 54 87 L 53 83 L 49 81 Z M 44 84 L 43 88 L 47 90 L 48 90 L 48 86 L 44 84 Z "></path><path fill="rgb(149,21,20)" stroke="rgb(149,21,20)" stroke-width="1" opacity="1" d="M 83.5 82 L 84 84.5 L 83 84.5 L 83.5 82 Z "></path><path fill="rgb(149,21,20)" stroke="rgb(149,21,20)" stroke-width="1" opacity="1" d="M 61.5 85 L 64 85.5 L 61.5 86 L 61.5 85 Z "></path><path fill="rgb(149,21,20)" stroke="rgb(149,21,20)" stroke-width="1" opacity="1" d="M 64.5 105 Q 67.1 104.3 66 107 L 60 106.5 L 64.5 105 Z "></path><path fill="rgb(176,69,64)" stroke="rgb(176,69,64)" stroke-width="1" opacity="1" d="M 54.5 14 L 56.5 14 L 63.5 14 L 64 15.5 L 62 20 L 67 21 L 67.5 19 L 71 21.5 L 69.5 22 L 67.5 22 Q 62 20.5 60.5 23 L 52 19.5 L 54.5 14 Z "></path><path fill="rgb(176,69,64)" stroke="rgb(176,69,64)" stroke-width="1" opacity="1" d="M 73.5 21 L 72.5 23 L 73.5 21 Z "></path><path fill="rgb(176,69,64)" stroke="rgb(176,69,64)" stroke-width="1" opacity="1" d="M 87.5 23 L 89.5 26 L 87.5 23 Z "></path><path fill="rgb(176,69,64)" stroke="rgb(176,69,64)" stroke-width="1" opacity="1" d="M 28.5 25 L 25.5 29 L 28.5 25 Z "></path><path fill="rgb(176,69,64)" stroke="rgb(176,69,64)" stroke-width="1" opacity="1" d="M 53.5 43 Q 55.5 46 61.5 45 L 65.5 44 L 67 47 L 70.5 47 L 75 50.5 L 71 52 L 71 48 L 69.5 48 L 57.5 52 L 52 50 L 52 55.5 L 50.5 56 L 47 58.5 L 52 62.5 L 53 76 L 57.5 74 L 58 78.5 L 56.5 78 L 46 71.5 Q 47.5 64.5 44.5 65 L 42 61.5 L 45 60 L 42.5 56 L 41 55.5 L 46 51.5 L 47.5 45 L 53 48 L 53.5 43 Z "></path><path fill="rgb(176,69,64)" stroke="rgb(176,69,64)" stroke-width="1" opacity="1" d="M 65 51 L 69 52.5 L 65 54 L 65 51 Z "></path><path fill="rgb(176,69,64)" stroke="rgb(176,69,64)" stroke-width="1" opacity="1" d="M 74.5 63 L 75.5 65 L 74.5 63 Z "></path><path fill="rgb(176,69,64)" stroke="rgb(176,69,64)" stroke-width="1" opacity="1" d="M 81.5 64 L 84 67.5 L 82 68.5 L 83 66.5 L 81.5 64 Z "></path><path fill="rgb(176,69,64)" stroke="rgb(176,69,64)" stroke-width="1" opacity="1" d="M 77.5 69 L 78.5 71 L 76 70.5 L 77.5 69 Z "></path><path fill="rgb(176,69,64)" stroke="rgb(176,69,64)" stroke-width="1" opacity="1" d="M 78.5 75 L 76.5 78 L 78.5 75 Z "></path><path fill="rgb(176,69,64)" stroke="rgb(176,69,64)" stroke-width="1" opacity="1" d="M 96.5 89 L 94.5 92 L 96.5 89 Z "></path><path fill="rgb(176,69,64)" stroke="rgb(176,69,64)" stroke-width="1" opacity="1" d="M 75.5 92 L 80.5 93 L 85 92 L 85 97.5 L 86.5 98 L 88 97.5 L 80.5 101 L 80.5 100 L 83 99.5 L 79.5 99 L 76.5 104 L 71.5 106 L 72.5 103 L 71 102.5 L 72.5 100 L 71 99.5 L 75 94.5 Q 72.8 93.3 75.5 92 Z "></path><path fill="rgb(176,69,64)" stroke="rgb(176,69,64)" stroke-width="1" opacity="1" d="M 91.5 94 L 90.5 96 L 91.5 94 Z "></path><path fill="rgb(252,252,252)" stroke="rgb(252,252,252)" stroke-width="1" opacity="1" d="M 56.5 0 Q 60.3 -1.3 59 2.5 L 59.5 4 L 58 1 L 56.5 0 Z "></path><path fill="rgb(252,252,252)" stroke="rgb(252,252,252)" stroke-width="1" opacity="1" d="M 66.5 0 L 66 1.5 L 65.5 3 L 65 1.5 L 66.5 0 Z "></path><path fill="rgb(252,252,252)" stroke="rgb(252,252,252)" stroke-width="1" opacity="1" d="M 70 1 L 72 1.5 L 71 4 L 69 3.5 L 70 1 Z "></path><path fill="rgb(252,252,252)" stroke="rgb(252,252,252)" stroke-width="1" opacity="1" d="M 74.5 4 L 73.5 6 L 74.5 4 Z "></path><path fill="rgb(252,252,252)" stroke="rgb(252,252,252)" stroke-width="1" opacity="1" d="M 57.5 7 L 58 9.5 L 57 9.5 L 57.5 7 Z "></path><path fill="rgb(252,252,252)" stroke="rgb(252,252,252)" stroke-width="1" opacity="1" d="M 88.5 7 L 87.5 9 L 88.5 7 Z "></path><path fill="rgb(252,252,252)" stroke="rgb(252,252,252)" stroke-width="1" opacity="1" d="M 93.5 10 L 94.5 12 L 93.5 10 Z "></path><path fill="rgb(252,252,252)" stroke="rgb(252,252,252)" stroke-width="1" opacity="1" d="M 12.5 14 L 14.5 15 L 19 14 L 19 18 L 17.5 18 L 15.5 15 L 14 16.5 L 14.5 19 L 17 20.5 Q 20 22.8 19 28 L 16 28 L 16 20.5 L 14.5 20 L 15 21.5 L 14.5 27 Q 11.8 25.8 14 24.5 Q 14.8 21.9 11.5 23 L 10 23.5 L 12 21.5 L 13 16.5 L 12.5 14 Z "></path><path fill="rgb(252,252,252)" stroke="rgb(252,252,252)" stroke-width="1" opacity="1" d="M 44.5 14 L 49 14.5 Q 42.1 14.6 38.5 18 L 39.5 16 L 44.5 14 Z "></path><path fill="rgb(252,252,252)" stroke="rgb(252,252,252)" stroke-width="1" opacity="1" d="M 69.5 14 L 86 14.5 L 85 17 L 88.5 19 L 90 14 L 107 14 L 107 22.5 L 105.5 22 L 100.5 26 L 98 27.5 L 99 30 L 106.5 25 L 107 30 L 102 31 L 104 37 L 106.5 36 L 108 39.5 L 106.5 39 Q 104.3 38.3 105 40.5 L 108 46.5 L 106.5 50 Q 102.9 36.6 94.5 28 Q 92.3 28.8 93 26.5 L 86.5 21 L 76.5 16 L 69.5 15 L 69.5 14 Z M 96 17 L 96 19 L 93 20 L 95 24 Q 97 25 96 23 Q 97 20 99 22 Q 101 23 100 20 L 96 17 Z "></path><path fill="rgb(252,252,252)" stroke="rgb(252,252,252)" stroke-width="1" opacity="1" d="M 32.5 15 L 31.5 17 L 32.5 15 Z "></path><path fill="rgb(252,252,252)" stroke="rgb(252,252,252)" stroke-width="1" opacity="1" d="M 25.5 16 Q 28.3 17.3 26 18.5 L 26.5 25 L 36.5 18 L 36.5 19 L 23 29.5 L 17 37.5 L 13 49.5 L 10.5 52 L 9.5 50 Q 10.8 52.3 12 49.5 L 12 37.5 L 13.5 36 L 14.5 39 L 16 35.5 Q 14.8 32.8 13.5 35 L 12 34.5 L 12 32.5 L 12.5 29 L 17 32 L 18.5 29 L 19.5 33 L 25 26.5 L 25.5 16 Z "></path><path fill="rgb(252,252,252)" stroke="rgb(252,252,252)" stroke-width="1" opacity="1" d="M 23.5 22 L 22.5 24 L 23.5 22 Z "></path><path fill="rgb(252,252,252)" stroke="rgb(252,252,252)" stroke-width="1" opacity="1" d="M 111.5 54 L 110.5 56 L 111.5 54 Z "></path><path fill="rgb(252,252,252)" stroke="rgb(252,252,252)" stroke-width="1" opacity="1" d="M 0.5 61 L 1 63.5 L 0 63.5 L 0.5 61 Z "></path><path fill="rgb(252,252,252)" stroke="rgb(252,252,252)" stroke-width="1" opacity="1" d="M 67.5 61 L 68 63.5 L 67 66 Q 64 67.3 65 63.5 L 67.5 61 Z "></path><path fill="rgb(252,252,252)" stroke="rgb(252,252,252)" stroke-width="1" opacity="1" d="M 7.5 64 L 8 66.5 L 7 66.5 L 7.5 64 Z "></path><path fill="rgb(252,252,252)" stroke="rgb(252,252,252)" stroke-width="1" opacity="1" d="M 106.5 70 L 107 76.5 L 106 79.5 L 107 83 Q 103.2 81.5 104 84.5 L 103.5 86 L 108 87.5 L 107 88.5 L 107 108 L 85.5 108 L 82.5 109 L 82.5 108 Q 85.1 108.7 84 106 L 78 107 L 77.5 109 L 69 107.5 L 81.5 104 L 99 88.5 Q 104.7 81.2 106.5 70 Z M 102 89 Q 98 90 99 94 Q 102 95 101 93 L 102 93 L 101 95 L 105 96 L 106 90 L 102 89 Z M 95 96 Q 96 99 93 98 L 93 101 L 99 106 L 101 105 L 100 103 L 101 101 L 100 98 L 100 96 L 95 96 Z "></path><path fill="rgb(252,252,252)" stroke="rgb(252,252,252)" stroke-width="1" opacity="1" d="M 12.5 71 Q 16 89 28.5 98 L 37 103.5 L 35.5 104 L 26.5 97 L 25.5 108 L 25 95.5 L 19.5 89 L 18.5 93 L 16 91.5 L 17 93.5 L 15 92.5 L 14.5 90 L 13 95.5 L 13.5 97 Q 10.2 95.9 11 98.5 L 11.5 100 L 10 97.5 L 12 95.5 L 13 90.5 Q 10.8 89.3 13.5 88 L 16 89 Q 17.1 86.3 14.5 87 L 15 85.5 Q 16 81 13.5 80 L 13 81.5 L 14 83.5 L 12 84.5 L 11 79.5 L 12.5 71 Z "></path><path fill="rgb(252,252,252)" stroke="rgb(252,252,252)" stroke-width="1" opacity="1" d="M 108.5 73 L 111 74.5 L 109.5 74 L 108.5 73 Z "></path><path fill="rgb(252,252,252)" stroke="rgb(252,252,252)" stroke-width="1" opacity="1" d="M 2.5 75 L 5 75.5 Q 2.9 78.8 2.5 75 Z "></path><path fill="rgb(252,252,252)" stroke="rgb(252,252,252)" stroke-width="1" opacity="1" d="M 111.5 86 L 112 87.5 L 110 88.5 L 111.5 86 Z "></path><path fill="rgb(252,252,252)" stroke="rgb(252,252,252)" stroke-width="1" opacity="1" d="M 20.5 95 L 19 97.5 L 19 107.5 L 16 108 L 16 100.5 L 15 99.5 L 20.5 95 Z "></path><path fill="rgb(252,252,252)" stroke="rgb(252,252,252)" stroke-width="1" opacity="1" d="M 96.5 98 L 98.5 101 L 96.5 98 Z "></path><path fill="rgb(252,252,252)" stroke="rgb(252,252,252)" stroke-width="1" opacity="1" d="M 12 101 L 15 101.5 L 13 102.5 L 15 103 L 15 108 L 13.5 108 L 12 105.5 L 12 103.5 L 12 101 Z "></path><path fill="rgb(252,252,252)" stroke="rgb(252,252,252)" stroke-width="1" opacity="1" d="M 38.5 104 L 48 107.5 L 45.5 108 L 39.5 106 L 38.5 104 Z "></path><path fill="rgb(252,252,252)" stroke="rgb(252,252,252)" stroke-width="1" opacity="1" d="M 33.5 105 L 34 108.5 L 33 108.5 L 33.5 105 Z "></path><path fill="rgb(252,252,252)" stroke="rgb(252,252,252)" stroke-width="1" opacity="1" d="M 39.5 107 L 41 109.5 L 40 109.5 L 39.5 107 Z "></path><path fill="rgb(252,252,252)" stroke="rgb(252,252,252)" stroke-width="1" opacity="1" d="M 44.5 109 L 43.5 111 L 44.5 109 Z "></path><path fill="rgb(252,252,252)" stroke="rgb(252,252,252)" stroke-width="1" opacity="1" d="M 31.5 110 L 30.5 112 L 31.5 110 Z "></path><path fill="rgb(252,252,252)" stroke="rgb(252,252,252)" stroke-width="1" opacity="1" d="M 48.5 110 L 49.5 112 L 48.5 110 Z "></path><path fill="rgb(252,252,252)" stroke="rgb(252,252,252)" stroke-width="1" opacity="1" d="M 40.5 111 L 38.5 114 L 40.5 111 Z "></path><path fill="rgb(252,252,252)" stroke="rgb(252,252,252)" stroke-width="1" opacity="1" d="M 49.5 113 L 48.5 115 L 49.5 113 Z "></path><path fill="rgb(252,252,252)" stroke="rgb(252,252,252)" stroke-width="1" opacity="1" d="M 72.5 114 L 74 116.5 L 72 117 L 72.5 114 Z "></path><path fill="rgb(252,252,252)" stroke="rgb(252,252,252)" stroke-width="1" opacity="1" d="M 75.5 114 L 76.5 116 L 75.5 114 Z "></path><path fill="rgb(252,252,252)" stroke="rgb(252,252,252)" stroke-width="1" opacity="1" d="M 81.5 115 L 84 115.5 L 81.5 116 L 81.5 115 Z "></path><path fill="rgb(252,252,252)" stroke="rgb(252,252,252)" stroke-width="1" opacity="1" d="M 55.5 119 L 54.5 121 L 55.5 119 Z "></path><path fill="rgb(123,21,20)" stroke="rgb(123,21,20)" stroke-width="1" opacity="1" d="M 67 23 L 69 23.5 L 68.5 25 L 70.5 24 L 69.5 28 L 67 27 Q 68.5 30.8 65.5 30 L 62 27.5 L 66 26.5 L 63 24.5 L 64.5 24 L 67 25 L 67 23 Z "></path><path fill="rgb(123,21,20)" stroke="rgb(123,21,20)" stroke-width="1" opacity="1" d="M 49.5 24 L 50.5 26 L 53.5 25 L 53.5 26 L 49 27 Q 47.8 30 51.5 29 L 50.5 31 L 48 32.5 L 52 35.5 L 47.5 38 L 46.5 34 L 44 35 L 46 38.5 L 43.5 40 L 42 34.5 L 44.5 29 L 47 27.5 L 45 27 L 45.5 25 L 48.5 27 L 49.5 24 Z M 45 31 L 45 34 L 47 33 L 45 31 Z "></path><path fill="rgb(123,21,20)" stroke="rgb(123,21,20)" stroke-width="1" opacity="1" d="M 31.5 25 Q 33.8 24.3 33 26.5 L 23.5 34 L 26 30.5 L 29.5 26 L 31.5 25 Z "></path><path fill="rgb(123,21,20)" stroke="rgb(123,21,20)" stroke-width="1" opacity="1" d="M 35.5 25 Q 40.9 23.1 40 26.5 Q 38.6 29.3 34 28 L 35.5 25 Z "></path><path fill="rgb(123,21,20)" stroke="rgb(123,21,20)" stroke-width="1" opacity="1" d="M 88.5 25 L 90.5 29 Q 91.8 26.8 93 29.5 L 93 32 L 86.5 32 L 82 29 L 81.5 31 L 80.5 29 L 83.5 28 L 87 30 L 87 28 Q 89.7 29.1 89 26.5 L 88.5 25 Z "></path><path fill="rgb(123,21,20)" stroke="rgb(123,21,20)" stroke-width="1" opacity="1" d="M 71.5 28 Q 74.3 29.3 73 34.5 Q 71.5 37.5 65.5 36 L 62 33.5 L 63.5 34 L 65.5 35 L 66 31 L 72 29.5 L 71.5 28 Z "></path><path fill="rgb(123,21,20)" stroke="rgb(123,21,20)" stroke-width="1" opacity="1" d="M 83.5 32 L 84 36.5 L 82.5 39 L 79.5 38 Q 78 40.5 76.5 37 L 74 35.5 Q 73.4 32.8 79.5 34 L 83 36 L 83.5 32 Z "></path><path fill="rgb(123,21,20)" stroke="rgb(123,21,20)" stroke-width="1" opacity="1" d="M 38 35 Q 41 34 40 37 Q 37 38 38 35 Z "></path><path fill="rgb(123,21,20)" stroke="rgb(123,21,20)" stroke-width="1" opacity="1" d="M 82.5 42 Q 83.6 44.8 87 44 L 87 48.5 L 94.5 59 L 103 58 L 103.5 56 Q 106.3 57.4 105 62 L 102 63.5 Q 101.2 66.5 105 65 L 105 69.5 L 103 70.5 Q 103.8 67.9 100.5 69 L 96.5 70 L 94 72.5 L 89.5 82 L 89 80.5 L 91 77.5 L 89.5 78 Q 86.9 78.8 88 75.5 L 91.5 71 L 95 69.5 L 93 64.5 L 95 60.5 Q 89.5 61 88 57.5 L 83 47.5 L 84 45.5 L 82.5 42 Z M 100 60 L 98 64 Q 95 65 100 67 L 101 64 L 100 60 Z M 96 62 L 94 65 Q 93 68 96 67 L 96 62 Z "></path><path fill="rgb(123,21,20)" stroke="rgb(123,21,20)" stroke-width="1" opacity="1" d="M 18.5 44 L 19 46.5 L 18 46.5 L 18.5 44 Z "></path><path fill="rgb(123,21,20)" stroke="rgb(123,21,20)" stroke-width="1" opacity="1" d="M 29.5 50 L 30 53.5 L 28.5 53 L 27 52.5 L 29.5 50 Z "></path><path fill="rgb(123,21,20)" stroke="rgb(123,21,20)" stroke-width="1" opacity="1" d="M 19.5 51 L 20 53.5 L 21 55.5 L 18 57 L 17 53.5 L 19.5 51 Z "></path><path fill="rgb(123,21,20)" stroke="rgb(123,21,20)" stroke-width="1" opacity="1" d="M 32.5 54 L 34 54.5 L 33.5 57 L 31 55.5 L 32.5 54 Z "></path><path fill="rgb(123,21,20)" stroke="rgb(123,21,20)" stroke-width="1" opacity="1" d="M 28.5 56 Q 31.9 55.1 30 60.5 L 31 63 L 34 64.5 L 33.5 71 L 31 70 Q 32.7 65.9 28.5 67 Q 26.5 63 24.5 67 Q 22.3 66.3 23 68.5 L 24.5 71 Q 21.9 71.7 23 69 L 20.5 69 L 19 69.5 L 19.5 66 L 22.5 67 L 24 64.5 Q 22.2 60.3 20.5 63 Q 17.5 63.9 19 59.5 L 20 59.5 Q 19.3 61.8 21.5 61 L 25 63.5 Q 23.8 57.4 26.5 58 L 28.5 56 Z "></path><path fill="rgb(123,21,20)" stroke="rgb(123,21,20)" stroke-width="1" opacity="1" d="M 24.5 72 L 27 73.5 Q 26 80 30.5 81 L 31 78.5 L 30.5 77 L 35.5 79 L 36.5 77 L 39.5 81 Q 42.5 80.2 41 84 L 35.5 85 L 32 83 L 31.5 86 L 30.5 84 L 29 84.5 Q 28.3 82.3 30.5 83 L 27.5 79 L 27 81 Q 24.3 82.1 25 79.5 L 26 77.5 L 22.5 75 Q 19.8 76.3 22 77.5 L 23 81.5 L 20 79.5 L 20.5 73 L 22.5 74 L 24.5 72 Z M 34 81 L 36 84 Q 37 80 34 81 Z "></path><path fill="rgb(123,21,20)" stroke="rgb(123,21,20)" stroke-width="1" opacity="1" d="M 22.5 83 L 23 85 L 25 85.5 L 22 86 L 22.5 83 Z "></path><path fill="rgb(123,21,20)" stroke="rgb(123,21,20)" stroke-width="1" opacity="1" d="M 43 86 Q 50.1 83.6 48 90 L 43 87.5 L 43 86 Z "></path><path fill="rgb(123,21,20)" stroke="rgb(123,21,20)" stroke-width="1" opacity="1" d="M 53.5 89 L 56 90.5 L 57 97.5 L 54.5 96 L 51 96 L 51 100 L 49.5 100 L 47 99 L 47.5 101 L 55.5 101 L 55.5 104 L 54 104.5 Q 55.8 107.8 57.5 104 Q 59.8 103.3 59 105.5 L 60.5 108 L 53 107 L 52.5 105 L 44.5 105 L 42 103.5 L 43.5 103 L 48.5 104 L 46 100.5 L 45 93.5 L 53.5 89 Z M 54 90 L 51 92 L 54 92 L 54 90 Z M 46 95 L 46 97 L 49 97 L 46 95 Z "></path><path fill="rgb(123,21,20)" stroke="rgb(123,21,20)" stroke-width="1" opacity="1" d="M 41.5 96 L 44 97 Q 45.1 99.7 42.5 99 L 41.5 96 Z "></path><path fill="rgb(123,21,20)" stroke="rgb(123,21,20)" stroke-width="1" opacity="1" d="M 38.5 101 L 39.5 103 L 38.5 101 Z "></path><path fill="rgb(110,117,111)" stroke="rgb(110,117,111)" stroke-width="1" opacity="1" d="M 54 1 L 58 2.5 L 56.5 2 L 55 2.5 L 57.5 5 L 59.5 5 Q 61.8 4.3 61 6.5 L 58.5 5 L 57.5 6 L 54 2.5 L 54 1 Z "></path><path fill="rgb(110,117,111)" stroke="rgb(110,117,111)" stroke-width="1" opacity="1" d="M 47.5 2 Q 49.8 1.3 49 3.5 L 47.5 2 Z "></path><path fill="rgb(110,117,111)" stroke="rgb(110,117,111)" stroke-width="1" opacity="1" d="M 66.5 2 L 67 5.5 L 66 5.5 L 66.5 2 Z "></path><path fill="rgb(110,117,111)" stroke="rgb(110,117,111)" stroke-width="1" opacity="1" d="M 43.5 3 L 46 3.5 L 45 7.5 L 49 9.5 L 45.5 11 L 44.5 8 L 43 8.5 L 44 4.5 L 43.5 3 Z "></path><path fill="rgb(110,117,111)" stroke="rgb(110,117,111)" stroke-width="1" opacity="1" d="M 71.5 3 L 72 5.5 L 71 5.5 L 71.5 3 Z "></path><path fill="rgb(110,117,111)" stroke="rgb(110,117,111)" stroke-width="1" opacity="1" d="M 47.5 6 L 48.5 8 L 47.5 6 Z "></path><path fill="rgb(110,117,111)" stroke="rgb(110,117,111)" stroke-width="1" opacity="1" d="M 58.5 7 L 59.5 9 L 58.5 7 Z "></path><path fill="rgb(110,117,111)" stroke="rgb(110,117,111)" stroke-width="1" opacity="1" d="M 67.5 7 L 69.5 10 L 70.5 8 L 71 11 L 67.5 9 L 66 9.5 L 67.5 7 Z "></path><path fill="rgb(110,117,111)" stroke="rgb(110,117,111)" stroke-width="1" opacity="1" d="M 54.5 8 Q 56.8 7.3 56 9.5 L 54.5 8 Z "></path><path fill="rgb(110,117,111)" stroke="rgb(110,117,111)" stroke-width="1" opacity="1" d="M 88.5 8 L 90.5 12 L 91.5 10 L 92 11.5 Q 90.5 14.5 89 11.5 L 88.5 9 L 87 9.5 L 88.5 8 Z "></path><path fill="rgb(110,117,111)" stroke="rgb(110,117,111)" stroke-width="1" opacity="1" d="M 27.5 11 L 31 12.5 L 28.5 14 L 26 13.5 L 27.5 11 Z "></path><path fill="rgb(110,117,111)" stroke="rgb(110,117,111)" stroke-width="1" opacity="1" d="M 87.5 14 L 88.5 16 L 86 15.5 L 87.5 14 Z "></path><path fill="rgb(110,117,111)" stroke="rgb(110,117,111)" stroke-width="1" opacity="1" d="M 69 15 L 81 19 L 81.5 21 L 83 20.5 L 83.5 22 L 85 21.5 L 84 25 L 76.5 25 L 74 22.5 L 73.5 20 L 73 22 L 67 18.5 L 69 15 Z M 75 18 L 74 20 L 78 22 Q 81 23 80 20 L 75 18 Z "></path><path fill="rgb(110,117,111)" stroke="rgb(110,117,111)" stroke-width="1" opacity="1" d="M 15 17 L 18 18.5 L 15 18.5 L 15 17 Z "></path><path fill="rgb(110,117,111)" stroke="rgb(110,117,111)" stroke-width="1" opacity="1" d="M 19.5 17 L 22 17.5 L 21 18.5 L 23.5 22 L 19.5 17 Z "></path><path fill="rgb(110,117,111)" stroke="rgb(110,117,111)" stroke-width="1" opacity="1" d="M 96.5 17 L 97 18.5 L 93 21.5 L 96.5 17 Z "></path><path fill="rgb(110,117,111)" stroke="rgb(110,117,111)" stroke-width="1" opacity="1" d="M 98.5 18 L 99 19.5 L 97 20.5 L 98.5 18 Z "></path><path fill="rgb(110,117,111)" stroke="rgb(110,117,111)" stroke-width="1" opacity="1" d="M 19.5 20 L 21.5 23 L 19.5 20 Z "></path><path fill="rgb(110,117,111)" stroke="rgb(110,117,111)" stroke-width="1" opacity="1" d="M 30.5 23 L 29.5 25 L 30.5 23 Z "></path><path fill="rgb(110,117,111)" stroke="rgb(110,117,111)" stroke-width="1" opacity="1" d="M 104.5 23 L 106 23.5 L 104.5 26 Q 103.3 23.7 102 26.5 Q 104.3 27.8 101.5 29 L 99 27.5 L 104.5 23 Z "></path><path fill="rgb(110,117,111)" stroke="rgb(110,117,111)" stroke-width="1" opacity="1" d="M 10 25 L 13 26.5 L 8 28.5 L 10 25 Z "></path><path fill="rgb(110,117,111)" stroke="rgb(110,117,111)" stroke-width="1" opacity="1" d="M 91.5 26 L 95.5 31 L 91.5 26 Z "></path><path fill="rgb(110,117,111)" stroke="rgb(110,117,111)" stroke-width="1" opacity="1" d="M 13.5 28 L 16 28.5 L 15.5 31 L 13.5 28 Z "></path><path fill="rgb(110,117,111)" stroke="rgb(110,117,111)" stroke-width="1" opacity="1" d="M 24.5 29 L 23.5 31 L 24.5 29 Z "></path><path fill="rgb(110,117,111)" stroke="rgb(110,117,111)" stroke-width="1" opacity="1" d="M 107.5 30 L 108.5 32 Q 106.3 31.3 107 33.5 L 104.5 32 L 103 31.5 L 104.5 31 Q 106 33.5 107.5 30 Z "></path><path fill="rgb(110,117,111)" stroke="rgb(110,117,111)" stroke-width="1" opacity="1" d="M 26.5 32 L 33.5 32 L 34 33.5 Q 31.2 36.2 32 42.5 L 29.5 45 L 22 49 L 20 41.5 L 22.5 38 L 23 42.5 L 22.5 44 L 27 45 L 27 42.5 L 31 37.5 L 28.5 34 L 23.5 37 L 25 34.5 L 26.5 32 Z "></path><path fill="rgb(110,117,111)" stroke="rgb(110,117,111)" stroke-width="1" opacity="1" d="M 96.5 32 L 97.5 34 L 96.5 32 Z "></path><path fill="rgb(110,117,111)" stroke="rgb(110,117,111)" stroke-width="1" opacity="1" d="M 20.5 34 L 19.5 36 L 20.5 34 Z "></path><path fill="rgb(110,117,111)" stroke="rgb(110,117,111)" stroke-width="1" opacity="1" d="M 106.5 35 L 105.5 37 L 106.5 35 Z "></path><path fill="rgb(110,117,111)" stroke="rgb(110,117,111)" stroke-width="1" opacity="1" d="M 100.5 38 L 101.5 40 L 100.5 38 Z "></path><path fill="rgb(110,117,111)" stroke="rgb(110,117,111)" stroke-width="1" opacity="1" d="M 107.5 40 L 108.5 42 L 107.5 40 Z "></path><path fill="rgb(110,117,111)" stroke="rgb(110,117,111)" stroke-width="1" opacity="1" d="M 112.5 41 L 113 43.5 L 111.5 45 L 111 42.5 L 112.5 41 Z "></path><path fill="rgb(110,117,111)" stroke="rgb(110,117,111)" stroke-width="1" opacity="1" d="M 4.5 43 L 11 48.5 L 9 49.5 Q 11.7 47.8 7.5 46 L 6 46.5 Q 6.7 43.9 4 45 L 4.5 43 Z "></path><path fill="rgb(110,117,111)" stroke="rgb(110,117,111)" stroke-width="1" opacity="1" d="M 104.5 46 L 105 48.5 L 104 48.5 L 104.5 46 Z "></path><path fill="rgb(110,117,111)" stroke="rgb(110,117,111)" stroke-width="1" opacity="1" d="M 2.5 48 L 5 48.5 L 2.5 49 L 2.5 48 Z "></path><path fill="rgb(110,117,111)" stroke="rgb(110,117,111)" stroke-width="1" opacity="1" d="M 112.5 49 L 115 50.5 L 113.5 50 L 111 51.5 L 112 53.5 L 110 54.5 L 109.5 51 L 106 52.5 L 107 54.5 L 106 54.5 L 105 50.5 L 107.5 50 L 110.5 51 L 112.5 49 Z "></path><path fill="rgb(110,117,111)" stroke="rgb(110,117,111)" stroke-width="1" opacity="1" d="M 3.5 52 L 4 54 L 8 54 L 8 55.5 L 6 56.5 L 6.5 55 L 2 54 L 1.5 56 L 1 54.5 L 3.5 52 Z "></path><path fill="rgb(110,117,111)" stroke="rgb(110,117,111)" stroke-width="1" opacity="1" d="M 106.5 56 L 107 60.5 L 107 62.5 L 106.5 67 L 105 61.5 L 106.5 56 Z "></path><path fill="rgb(110,117,111)" stroke="rgb(110,117,111)" stroke-width="1" opacity="1" d="M 110.5 59 Q 115 58 116 60.5 L 114.5 60 L 110 60.5 L 110.5 62 Q 108.3 62.8 109 60.5 L 110.5 59 Z "></path><path fill="rgb(110,117,111)" stroke="rgb(110,117,111)" stroke-width="1" opacity="1" d="M 77.5 60 L 83 67.5 L 81 72 Q 78 70.8 79 74.5 Q 78.5 78.5 73.5 78 L 73.5 77 L 77 75.5 L 78 73.5 L 75.5 73 L 69.5 77 L 69.5 76 L 73 73.5 L 72.5 72 L 76 69.5 L 75 65 Q 72 63.8 73 67.5 Q 68.8 69.8 70.5 72 L 68 72 L 68 65 L 73.5 63 L 77.5 66 L 79 65.5 L 79.5 70 L 82 66.5 L 77.5 60 Z M 78 69 L 76 71 Q 75 73 79 72 L 78 69 Z "></path><path fill="rgb(110,117,111)" stroke="rgb(110,117,111)" stroke-width="1" opacity="1" d="M 2.5 61 L 5 61.5 L 2.5 62 L 2.5 61 Z "></path><path fill="rgb(110,117,111)" stroke="rgb(110,117,111)" stroke-width="1" opacity="1" d="M 3.5 63 L 5.5 64 L 7 63.5 L 4.5 65 L 3.5 63 Z "></path><path fill="rgb(110,117,111)" stroke="rgb(110,117,111)" stroke-width="1" opacity="1" d="M 109 63 L 115 63.5 L 109.5 65 L 109 63 Z "></path><path fill="rgb(110,117,111)" stroke="rgb(110,117,111)" stroke-width="1" opacity="1" d="M 12.5 65 L 13 67.5 L 12 67.5 L 12.5 65 Z "></path><path fill="rgb(110,117,111)" stroke="rgb(110,117,111)" stroke-width="1" opacity="1" d="M 2.5 71 L 3.5 73 L 2.5 71 Z "></path><path fill="rgb(110,117,111)" stroke="rgb(110,117,111)" stroke-width="1" opacity="1" d="M 7.5 71 L 9 74.5 L 8 74.5 L 7.5 72 L 5.5 73 L 5.5 72 L 7.5 71 Z "></path><path fill="rgb(110,117,111)" stroke="rgb(110,117,111)" stroke-width="1" opacity="1" d="M 112.5 71 L 115 71.5 L 112.5 72 L 112.5 71 Z "></path><path fill="rgb(110,117,111)" stroke="rgb(110,117,111)" stroke-width="1" opacity="1" d="M 4.5 74 L 6 74.5 L 3.5 76 L 4.5 74 Z "></path><path fill="rgb(110,117,111)" stroke="rgb(110,117,111)" stroke-width="1" opacity="1" d="M 108.5 74 L 108 75.5 L 107.5 77 L 107 75.5 L 108.5 74 Z "></path><path fill="rgb(110,117,111)" stroke="rgb(110,117,111)" stroke-width="1" opacity="1" d="M 110.5 75 L 113 76.5 L 111 77.5 L 113 78.5 L 111.5 79 Q 107 77 110.5 75 Z "></path><path fill="rgb(110,117,111)" stroke="rgb(110,117,111)" stroke-width="1" opacity="1" d="M 6.5 78 L 7 80.5 L 8 82.5 L 5.5 84 L 5 79.5 L 6.5 78 Z "></path><path fill="rgb(110,117,111)" stroke="rgb(110,117,111)" stroke-width="1" opacity="1" d="M 10.5 80 L 12 82.5 L 10.5 82 L 9 81.5 L 10.5 80 Z "></path><path fill="rgb(110,117,111)" stroke="rgb(110,117,111)" stroke-width="1" opacity="1" d="M 3.5 84 L 4.5 86 L 3.5 84 Z "></path><path fill="rgb(110,117,111)" stroke="rgb(110,117,111)" stroke-width="1" opacity="1" d="M 107.5 84 L 108.5 87 L 110.5 86 L 109.5 88 L 104 85.5 L 107.5 84 Z "></path><path fill="rgb(110,117,111)" stroke="rgb(110,117,111)" stroke-width="1" opacity="1" d="M 19.5 86 L 20.5 88 L 19.5 86 Z "></path><path fill="rgb(110,117,111)" stroke="rgb(110,117,111)" stroke-width="1" opacity="1" d="M 25.5 86 L 29 88.5 Q 29.9 91.5 25.5 90 L 24 87.5 L 25.5 86 Z "></path><path fill="rgb(110,117,111)" stroke="rgb(110,117,111)" stroke-width="1" opacity="1" d="M 8.5 88 L 6.5 91 L 8.5 88 Z "></path><path fill="rgb(110,117,111)" stroke="rgb(110,117,111)" stroke-width="1" opacity="1" d="M 21.5 89 L 31 97.5 L 29.5 98 L 21.5 89 Z "></path><path fill="rgb(110,117,111)" stroke="rgb(110,117,111)" stroke-width="1" opacity="1" d="M 30.5 90 L 36 93.5 L 38 98.5 L 34.5 99 L 33 96 L 35 95.5 L 33 95 L 30.5 90 Z "></path><path fill="rgb(110,117,111)" stroke="rgb(110,117,111)" stroke-width="1" opacity="1" d="M 16.5 91 L 18.5 94 L 16 92.5 L 16.5 91 Z "></path><path fill="rgb(110,117,111)" stroke="rgb(110,117,111)" stroke-width="1" opacity="1" d="M 102.5 91 L 106 92 Q 107.1 94.7 104.5 94 L 102.5 91 Z "></path><path fill="rgb(110,117,111)" stroke="rgb(110,117,111)" stroke-width="1" opacity="1" d="M 93.5 93 L 92.5 95 L 93.5 93 Z "></path><path fill="rgb(110,117,111)" stroke="rgb(110,117,111)" stroke-width="1" opacity="1" d="M 100.5 93 L 104 95.5 L 102.5 96 L 100.5 93 Z "></path><path fill="rgb(110,117,111)" stroke="rgb(110,117,111)" stroke-width="1" opacity="1" d="M 18.5 95 L 20 95.5 L 16.5 98 L 18.5 95 Z "></path><path fill="rgb(110,117,111)" stroke="rgb(110,117,111)" stroke-width="1" opacity="1" d="M 14.5 96 L 15 98.5 L 13.5 100 Q 10 98 14.5 96 Z "></path><path fill="rgb(110,117,111)" stroke="rgb(110,117,111)" stroke-width="1" opacity="1" d="M 98.5 96 L 100 97.5 L 99.5 100 L 98 98.5 L 98.5 96 Z "></path><path fill="rgb(110,117,111)" stroke="rgb(110,117,111)" stroke-width="1" opacity="1" d="M 95.5 97 L 97 97.5 L 96 99.5 L 98.5 104 L 101 103 L 100.5 105 L 98.5 105 L 94 100.5 L 95.5 97 Z "></path><path fill="rgb(110,117,111)" stroke="rgb(110,117,111)" stroke-width="1" opacity="1" d="M 32.5 99 L 33.5 101 L 32.5 99 Z "></path><path fill="rgb(110,117,111)" stroke="rgb(110,117,111)" stroke-width="1" opacity="1" d="M 85.5 99 L 84.5 101 Q 80.2 105.2 72.5 106 L 72.5 105 L 85.5 99 Z "></path><path fill="rgb(110,117,111)" stroke="rgb(110,117,111)" stroke-width="1" opacity="1" d="M 32.5 105 L 33 107.5 L 32 107.5 L 32.5 105 Z "></path><path fill="rgb(110,117,111)" stroke="rgb(110,117,111)" stroke-width="1" opacity="1" d="M 27.5 106 L 31 107.5 L 29 108.5 L 29.5 110 Q 27.3 110.8 28 108.5 L 28.5 107 L 27.5 106 Z "></path><path fill="rgb(110,117,111)" stroke="rgb(110,117,111)" stroke-width="1" opacity="1" d="M 81.5 106 Q 83.8 105.3 83 107.5 L 80 108.5 L 80.5 110 L 78 109.5 L 79.5 107 L 81.5 106 Z "></path><path fill="rgb(110,117,111)" stroke="rgb(110,117,111)" stroke-width="1" opacity="1" d="M 38.5 107 L 39.5 109 L 38.5 107 Z "></path><path fill="rgb(110,117,111)" stroke="rgb(110,117,111)" stroke-width="1" opacity="1" d="M 64.5 107 L 67 107.5 L 64.5 108 L 64.5 107 Z "></path><path fill="rgb(110,117,111)" stroke="rgb(110,117,111)" stroke-width="1" opacity="1" d="M 71.5 110 L 74 110.5 L 72 111.5 L 72.5 113 L 71 112.5 L 70.5 114 L 70 111.5 L 71.5 110 Z "></path><path fill="rgb(110,117,111)" stroke="rgb(110,117,111)" stroke-width="1" opacity="1" d="M 37.5 111 L 38.5 113 Q 35.7 113.7 37.5 111 Z "></path><path fill="rgb(110,117,111)" stroke="rgb(110,117,111)" stroke-width="1" opacity="1" d="M 54.5 111 L 55.5 113 L 54 112.5 L 53.5 117 L 53 112.5 L 54.5 111 Z "></path><path fill="rgb(110,117,111)" stroke="rgb(110,117,111)" stroke-width="1" opacity="1" d="M 62.5 111 L 65 112.5 L 63.5 112 L 62.5 111 Z "></path><path fill="rgb(110,117,111)" stroke="rgb(110,117,111)" stroke-width="1" opacity="1" d="M 45.5 112 L 49 113.5 L 45 114 L 45.5 112 Z "></path><path fill="rgb(110,117,111)" stroke="rgb(110,117,111)" stroke-width="1" opacity="1" d="M 62.5 113 L 63.5 117 L 64.5 115 L 65 116.5 L 63.5 118 L 61 117.5 L 62.5 113 Z "></path><path fill="rgb(110,117,111)" stroke="rgb(110,117,111)" stroke-width="1" opacity="1" d="M 83.5 113 L 85 113.5 L 82.5 115 L 83.5 113 Z "></path><path fill="rgb(110,117,111)" stroke="rgb(110,117,111)" stroke-width="1" opacity="1" d="M 45.5 115 Q 47.8 114.3 47 116.5 L 45.5 115 Z "></path><path fill="rgb(110,117,111)" stroke="rgb(110,117,111)" stroke-width="1" opacity="1" d="M 53 118 L 55 118.5 L 53 119.5 L 53 118 Z "></path></svg>