<?xml version="1.0" standalone="no"?>
<!DOCTYPE svg PUBLIC "-//W3C//DTD SVG 20010904//EN"
 "http://www.w3.org/TR/2001/REC-SVG-20010904/DTD/svg10.dtd">
<svg version="1.0" xmlns="http://www.w3.org/2000/svg"
 width="512.000000pt" height="256.000000pt" viewBox="0 0 512.000000 256.000000"
 preserveAspectRatio="xMidYMid meet">

<g transform="translate(0.000000,256.000000) scale(0.100000,-0.100000)"
fill="#000000" stroke="none">
<path d="M13 2313 c-10 -4 -13 -257 -13 -1159 l0 -1154 1662 1 c1561 1 1660 2
1612 17 -48 16 -120 60 -111 68 7 7 79 -22 75 -30 -2 -5 21 -16 50 -25 29 -9
50 -20 46 -24 -4 -4 11 -7 34 -7 23 0 42 5 42 10 0 6 -5 10 -12 10 -6 0 -9 3
-5 6 3 3 20 -1 38 -10 18 -9 48 -15 68 -14 l36 1 -35 4 c-19 3 -37 8 -40 11
-3 4 -34 18 -70 30 -62 22 -63 22 -20 17 25 -3 91 -10 148 -14 57 -5 105 -11
108 -14 11 -11 -33 -16 -64 -8 -39 12 -44 -5 -6 -19 35 -14 67 -13 58 1 -5 9
1 10 22 5 39 -10 371 -20 363 -12 -4 4 -70 9 -148 11 -112 2 -144 6 -156 19
-10 10 -12 16 -5 16 7 0 4 13 -8 33 -11 17 -19 44 -18 58 1 19 -3 25 -14 22
-9 -3 -22 3 -29 11 -9 11 -10 16 -2 16 28 0 7 20 -26 25 -21 3 -52 10 -70 14
l-31 9 15 -47 c8 -25 16 -54 16 -63 3 -28 -17 -25 -31 5 -12 26 -18 28 -60 25
-40 -3 -47 -6 -52 -28 -3 -14 -14 -26 -24 -28 -16 -3 -18 0 -12 25 4 15 14 42
21 58 15 34 28 75 23 75 -2 0 -18 4 -36 9 -32 10 -33 9 -57 -39 -29 -57 -31
-82 -10 -104 13 -13 13 -15 -7 -18 -13 -2 -40 1 -61 6 -30 7 -41 5 -56 -8 -9
-9 -22 -16 -27 -16 -5 0 -3 4 4 9 25 15 -18 52 -68 57 -34 4 -41 3 -30 -5 13
-9 13 -11 -1 -11 -9 0 -19 -9 -22 -20 -3 -11 -12 -20 -21 -20 -19 0 -19 1 -6
34 7 20 6 27 -7 34 -9 5 -13 15 -9 21 4 6 11 9 16 6 12 -8 37 31 56 87 11 35
21 48 35 48 10 0 19 -6 19 -13 0 -7 15 -49 33 -93 l32 -79 40 0 c33 0 40 3 40
20 0 12 -9 22 -25 26 -16 4 -19 7 -7 8 22 1 22 2 -8 61 -28 56 -31 70 -12 70
7 0 24 -24 38 -52 l26 -53 17 34 c10 18 16 34 14 35 -2 1 -14 7 -28 13 l-25
12 30 0 c17 1 40 4 53 7 17 5 22 2 22 -11 0 -15 6 -17 37 -12 20 4 39 10 42
16 8 11 82 32 93 25 4 -3 8 -14 8 -25 0 -22 -28 -26 -36 -4 -9 21 -33 19 -28
-3 4 -11 29 -24 77 -39 115 -35 114 -35 121 -17 10 27 -10 38 -59 35 -27 -1
-45 2 -45 8 0 7 24 11 58 12 52 1 55 2 31 12 -14 7 -24 17 -22 23 2 6 -6 15
-19 18 -15 5 -18 9 -10 13 8 3 19 0 25 -6 14 -14 47 -15 47 -1 0 18 18 10 23
-10 3 -11 14 -20 24 -20 11 0 34 -11 53 -25 19 -14 48 -25 64 -26 17 -1 42 -5
56 -9 20 -7 16 -8 -22 -9 l-48 -1 19 -32 c15 -29 22 -32 54 -30 22 2 37 -1 37
-7 0 -6 -10 -11 -22 -12 -13 -1 6 -7 42 -14 35 -7 66 -17 68 -24 2 -6 10 -11
17 -11 8 0 26 -5 42 -12 l28 -11 -45 -7 c-47 -8 -72 2 -64 24 3 8 -17 17 -64
27 l-68 15 4 -22 c2 -14 15 -25 35 -32 l32 -10 -37 -1 c-25 -1 -38 -6 -38 -15
0 -10 16 -14 56 -14 31 0 60 -5 63 -11 4 -6 29 -14 56 -18 28 -3 56 -12 63
-20 14 -14 11 -16 -33 -26 -11 -3 224 -5 523 -6 l542 -1 0 496 c0 291 -4 493
-10 489 -5 -3 -11 -1 -15 5 -3 5 1 10 9 10 22 0 20 27 -1 33 -17 4 -17 5 0 6
14 1 17 10 17 51 0 28 -4 50 -10 50 -5 0 -10 5 -10 11 0 5 5 7 10 4 7 -4 10
130 10 395 0 350 -2 401 -15 397 -8 -4 -17 -2 -20 3 -4 6 3 10 14 10 20 0 21
6 21 85 0 47 -1 85 -2 86 -2 0 -23 3 -48 6 -62 7 -63 13 -2 13 29 0 52 5 52
10 0 6 -9 10 -19 10 -10 0 -21 7 -25 15 -3 9 0 15 10 15 8 0 12 4 9 10 -3 5 1
10 9 10 9 0 16 7 16 15 0 10 -11 16 -32 17 -54 3 -102 -3 -113 -13 -22 -22
-51 -7 -46 24 1 10 -57 9 -63 -2 -12 -19 68 -45 133 -42 55 1 62 0 52 -13 -9
-11 -9 -15 1 -19 7 -2 -5 -8 -27 -12 -29 -6 -46 -4 -68 9 -16 9 -39 16 -51 16
-12 0 -26 4 -31 9 -6 5 -29 12 -51 16 -31 5 -45 2 -57 -9 -9 -9 -25 -16 -36
-16 -31 0 -35 -19 -6 -30 35 -13 38 -13 62 10 18 16 30 18 72 13 64 -7 66 -23
4 -24 l-48 -1 55 -9 c30 -5 65 -6 78 -4 12 3 22 1 22 -6 0 -7 -31 -10 -97 -8
-54 2 -118 -1 -143 -6 -41 -8 -43 -9 -20 -16 18 -6 10 -8 -27 -5 -29 2 -53 1
-53 -1 0 -2 12 -8 27 -14 16 -7 23 -13 15 -16 -6 -3 -10 -9 -7 -13 6 -9 -34
-18 -100 -22 -26 -2 -39 1 -38 9 2 11 -13 16 -94 28 -27 4 -43 3 -43 -3 0 -16
38 -25 77 -17 26 5 33 3 28 -6 -5 -8 -31 -10 -81 -7 -40 3 -75 1 -76 -4 -2 -5
-19 -13 -38 -17 -19 -4 -46 -12 -60 -16 -22 -7 -23 -6 -11 9 12 14 11 16 -10
17 -13 0 -18 3 -11 6 27 11 10 23 -32 23 -27 0 -46 5 -49 13 -3 9 -9 9 -28 0
-13 -6 -30 -13 -38 -15 -11 -3 -10 -7 3 -21 13 -12 14 -17 4 -18 -7 -1 1 -5
17 -9 26 -7 24 -8 -20 -9 -27 -1 -56 -5 -64 -10 -9 -6 -29 -4 -53 6 -28 11
-58 14 -104 10 -59 -4 -88 5 -46 16 13 4 12 5 -5 6 -12 0 -28 -5 -36 -13 -16
-16 -67 -16 -67 0 0 13 -111 27 -145 18 -13 -3 -34 0 -47 7 -21 11 -22 11 -9
-4 12 -15 10 -17 -17 -17 -16 0 -49 7 -72 15 -23 8 -53 15 -67 15 -13 0 -22 4
-18 10 6 9 178 6 194 -4 11 -7 301 -9 388 -3 34 2 64 0 65 -4 5 -13 58 3 58
17 0 9 11 14 28 14 47 0 46 14 0 25 -30 8 -73 8 -142 1 -72 -7 -103 -6 -117 2
-10 7 -31 12 -46 13 l-28 0 23 12 c18 8 28 8 43 -1 10 -7 24 -12 31 -12 9 0 8
3 -2 10 -13 9 -13 10 0 11 38 3 -53 17 -115 17 -43 0 -59 -3 -41 -7 40 -8 17
-26 -49 -37 l-50 -8 40 -6 40 -6 -40 -5 c-22 -3 -42 -2 -45 2 -3 5 -24 13 -45
18 -33 7 -35 9 -12 10 15 1 27 6 27 11 0 11 -70 16 -156 11 -87 -4 -72 16 19
26 56 6 81 12 80 21 -2 9 19 12 78 12 54 0 78 3 74 11 -5 7 -56 9 -156 6 -86
-3 -149 -1 -149 4 0 5 6 9 14 9 8 0 18 5 22 11 5 8 -1 10 -18 6 -15 -4 -32 -1
-44 8 -17 13 -17 14 -1 15 9 0 17 5 17 10 0 14 -23 13 -38 -2 -9 -9 -18 -9
-37 0 -21 10 -25 9 -25 -3 0 -8 7 -15 15 -15 9 0 21 -5 28 -10 7 -6 21 -18 32
-26 19 -15 19 -15 -5 -11 -14 2 -29 5 -35 7 -5 1 -32 2 -60 1 -36 -1 -46 -4
-35 -11 8 -5 38 -9 66 -9 29 1 60 -4 71 -10 15 -9 13 -10 -15 -11 -18 0 -40
-7 -48 -15 -9 -8 -29 -15 -45 -15 -31 0 -39 -14 -13 -24 9 -3 30 -6 47 -6 28
-1 30 -2 13 -11 -10 -6 -36 -9 -56 -6 -24 3 -46 0 -58 -9 -17 -12 -22 -12 -32
1 -8 9 -27 13 -61 10 -38 -3 -49 0 -49 11 0 11 18 14 82 14 78 0 98 12 38 23
-14 2 0 5 30 7 30 1 66 5 80 9 21 6 18 9 -25 15 -27 4 -54 11 -60 16 -10 7
-61 15 -186 28 -36 4 -73 13 -81 20 -18 15 -166 14 -185 -1 -7 -5 -21 -6 -30
-1 -23 10 -343 12 -343 2 0 -5 16 -8 35 -8 19 0 35 -5 35 -11 0 -6 -17 -10
-42 -9 -74 4 -100 1 -92 -12 5 -8 2 -9 -10 -5 -10 4 -32 7 -49 8 l-32 1 28 8
c16 5 43 10 60 12 18 1 39 10 47 18 8 9 28 17 44 18 46 3 44 12 -2 12 -22 0
-44 5 -47 10 -9 15 -28 12 -22 -4 5 -13 -14 -27 -55 -39 -9 -3 -29 -2 -45 3
-27 8 -27 8 9 9 29 1 36 4 32 16 -8 20 -43 19 -65 -1 -22 -20 -69 -11 -69 12
0 13 -9 15 -57 10 -65 -7 -70 -10 -53 -31 10 -12 10 -15 -2 -15 -8 0 -19 10
-24 23 -6 12 -9 16 -7 10 1 -7 -6 -13 -16 -13 -11 0 -21 -5 -23 -12 -2 -6 -9
-8 -16 -4 -15 9 -4 36 13 30 7 -3 15 2 18 10 5 13 1 13 -31 2 -55 -19 -122
-19 -144 1 -10 9 -18 12 -18 7 0 -17 -77 -31 -126 -24 -55 8 -129 4 -154 -10
-10 -6 -30 -10 -44 -10 -13 0 -26 -4 -28 -8 -1 -5 -20 -7 -40 -4 -21 2 -36 8
-33 12 3 4 -3 11 -13 16 -27 12 -86 13 -94 0 -5 -8 -13 -8 -27 1 -11 7 -22 9
-25 5 -2 -4 -23 -6 -45 -4 -23 2 -39 8 -36 12 6 10 -30 20 -73 20 -19 0 -31
-4 -27 -10 3 -5 12 -7 19 -4 16 6 50 -42 36 -51 -15 -9 -50 4 -47 18 1 8 -9
11 -30 9 -17 -2 -34 2 -38 8 -5 8 -14 6 -31 -5 -18 -11 -24 -12 -24 -3 0 9
-20 13 -65 14 -35 1 -62 -2 -60 -7 6 -9 -50 -20 -80 -15 -59 9 -76 38 -20 34
19 -1 37 1 41 5 4 4 -28 7 -72 6 -43 0 -73 -3 -66 -6 6 -2 12 -14 12 -25 0
-14 -5 -18 -16 -14 -9 3 -25 6 -35 6 -11 0 -17 5 -14 10 3 6 -3 10 -14 10 -11
0 -22 4 -26 9 -3 5 -25 9 -49 8 -53 -2 -51 -17 2 -18 l37 -1 -35 -8 c-34 -8
-67 1 -82 24 -5 7 -11 5 -20 -6 -11 -15 -21 -17 -65 -9 -29 4 -53 4 -53 0 0
-5 -10 -9 -22 -8 -13 0 -17 3 -10 6 38 15 -33 31 -75 16z m514 -28 c0 -8 -6
-15 -13 -15 -8 0 -11 6 -8 15 4 8 9 15 13 15 4 0 8 -7 8 -15z m1453 5 c0 -5
-4 -10 -10 -10 -5 0 -10 5 -10 10 0 6 5 10 10 10 6 0 10 -4 10 -10z m-1268
-25 c0 -5 -5 -11 -11 -13 -6 -2 -11 4 -11 13 0 9 5 15 11 13 6 -2 11 -8 11
-13z m495 9 c-3 -3 -12 -4 -19 -1 -8 3 -5 6 6 6 11 1 17 -2 13 -5z m498 -4 c3
-5 1 -10 -4 -10 -6 0 -11 5 -11 10 0 6 2 10 4 10 3 0 8 -4 11 -10z m45 -10 c0
-14 28 -12 33 3 2 6 8 9 12 5 16 -15 -9 -28 -58 -28 -50 0 -51 1 -27 14 31 17
40 19 40 6z m297 4 c-3 -3 -12 -4 -19 -1 -8 3 -5 6 6 6 11 1 17 -2 13 -5z
m-1697 -8 c0 -3 -4 -8 -10 -11 -5 -3 -10 -1 -10 4 0 6 5 11 10 11 6 0 10 -2
10 -4z m100 -6 c0 -13 -11 -13 -30 0 -12 8 -11 10 8 10 12 0 22 -4 22 -10z
m1020 0 c0 -5 -2 -10 -4 -10 -3 0 -8 5 -11 10 -3 6 -1 10 4 10 6 0 11 -4 11
-10z m425 0 c3 -5 -1 -10 -10 -10 -9 0 -13 5 -10 10 3 6 8 10 10 10 2 0 7 -4
10 -10z m-1410 -18 c-3 -3 -11 0 -18 7 -9 10 -8 11 6 5 10 -3 15 -9 12 -12z
m2115 7 c7 -11 64 -12 108 -3 19 3 32 2 32 -3 0 -25 -224 -24 -233 1 -5 13 85
18 93 5z m195 1 c-3 -5 -15 -10 -26 -10 -11 0 -17 5 -14 10 3 6 15 10 26 10
11 0 17 -4 14 -10z m-1202 -7 c-7 -2 -21 -2 -30 0 -10 3 -4 5 12 5 17 0 24 -2
18 -5z m464 1 c-3 -3 -12 -4 -19 -1 -8 3 -5 6 6 6 11 1 17 -2 13 -5z m-1954
-11 c-7 -2 -21 -2 -30 0 -10 3 -4 5 12 5 17 0 24 -2 18 -5z m1177 -15 c0 -4
-7 -8 -15 -8 -8 0 -15 4 -15 8 0 5 7 9 15 9 8 0 15 -4 15 -9z m1685 2 c4 -6
-7 -10 -25 -10 -18 0 -29 4 -25 10 3 6 15 10 25 10 10 0 22 -4 25 -10z m-1485
-26 c0 -10 -5 -12 -12 -7 -7 4 -24 7 -38 6 -19 -1 -20 0 -5 4 11 3 24 9 29 14
12 11 26 2 26 -17z m237 20 c-3 -3 -12 -4 -19 -1 -8 3 -5 6 6 6 11 1 17 -2 13
-5z m1072 0 c17 -4 31 -11 31 -16 0 -6 -11 -7 -27 -3 -16 3 -39 7 -52 7 -18 0
-20 2 -10 9 17 11 18 11 58 3z m-1261 -15 c-2 -6 -8 -10 -13 -10 -5 0 -11 4
-13 10 -2 6 4 11 13 11 9 0 15 -5 13 -11z m289 5 c-3 -3 -12 -4 -19 -1 -8 3
-5 6 6 6 11 1 17 -2 13 -5z m93 -14 c-27 -7 -43 -3 -35 9 2 5 17 6 32 3 l28
-6 -25 -6z m402 -8 c-19 -6 -44 6 -37 18 4 7 14 6 28 -2 14 -7 17 -13 9 -16z
m558 12 c0 -2 -9 -4 -21 -4 -11 0 -18 4 -14 10 5 8 35 3 35 -6z m-1583 0 c-3
-3 -12 -4 -19 -1 -8 3 -5 6 6 6 11 1 17 -2 13 -5z m73 -4 c0 -5 -4 -10 -10
-10 -5 0 -10 5 -10 10 0 6 5 10 10 10 6 0 10 -4 10 -10z m635 0 c-3 -5 -10
-10 -16 -10 -5 0 -9 5 -9 10 0 6 7 10 16 10 8 0 12 -4 9 -10z m-418 -6 c-3 -3
-12 -4 -19 -1 -8 3 -5 6 6 6 11 1 17 -2 13 -5z m553 2 c0 -3 -4 -8 -10 -11 -5
-3 -10 -1 -10 4 0 6 5 11 10 11 6 0 10 -2 10 -4z m130 -6 c0 -5 -10 -10 -22
-9 -22 0 -22 1 -3 9 11 5 21 9 23 9 1 1 2 -3 2 -9z m-575 -40 c3 -5 2 -10 -4
-10 -5 0 -13 5 -16 10 -3 6 -2 10 4 10 5 0 13 -4 16 -10z m652 4 c-3 -3 -12
-4 -19 -1 -8 3 -5 6 6 6 11 1 17 -2 13 -5z m158 -3 c16 -7 11 -9 -21 -12 -31
-3 -40 -1 -37 8 6 14 28 16 58 4z m101 -1 c33 -13 26 -22 -21 -26 -35 -2 -51
8 -40 26 8 13 27 13 61 0z m117 3 c-13 -2 -35 -2 -50 0 -16 2 -5 4 22 4 28 0
40 -2 28 -4z m617 -9 c0 -2 -12 -4 -26 -4 -14 0 -23 4 -20 9 6 8 46 4 46 -5z
m-2300 -9 c-7 -8 -17 -15 -22 -15 -6 0 -5 7 2 15 7 8 17 15 22 15 6 0 5 -7 -2
-15z m1853 3 c-6 -10 -35 -10 -51 0 -8 5 1 8 22 8 19 -1 32 -4 29 -8z m-476
-4 c-3 -3 -12 -4 -19 -1 -8 3 -5 6 6 6 11 1 17 -2 13 -5z m378 -4 c-3 -5 -10
-10 -16 -10 -5 0 -9 5 -9 10 0 6 7 10 16 10 8 0 12 -4 9 -10z m-780 -15 c-50
-18 -50 -18 -35 0 7 8 27 15 44 15 31 -1 31 -1 -9 -15z m135 5 c0 -12 -37 -12
-65 0 -15 7 -10 9 23 9 23 1 42 -3 42 -9z m1170 0 c0 -5 -4 -10 -9 -10 -6 0
-13 5 -16 10 -3 6 1 10 9 10 9 0 16 -4 16 -10z m435 -1 c-17 -5 -42 -5 -60 0
-25 8 -21 9 30 9 50 0 55 -1 30 -9z m265 -10 c0 -12 -97 -12 -105 0 -3 5 3 11
12 13 29 5 93 -4 93 -13z m1097 15 c-3 -3 -12 -4 -19 -1 -8 3 -5 6 6 6 11 1
17 -2 13 -5z m-3267 -13 c0 -5 -9 -7 -20 -4 -11 3 -20 0 -20 -6 0 -6 -8 -11
-17 -11 -16 1 -16 2 1 15 22 17 56 20 56 6z m1390 -6 c-28 -16 -70 -20 -70 -6
0 12 15 17 59 19 l36 2 -25 -15z m1643 -2 c-24 -9 -13 -23 20 -23 23 -1 28 -3
17 -9 -8 -5 -36 -7 -63 -4 -37 4 -45 8 -37 18 9 11 3 11 -30 3 -22 -6 -40 -14
-40 -19 0 -5 -9 -9 -20 -9 -22 0 -27 15 -7 23 7 3 5 6 -5 6 -10 1 -18 6 -18
11 0 6 39 10 98 9 53 0 91 -3 85 -6z m-2018 -13 c15 -7 16 -9 4 -9 -9 -1 -32
-4 -50 -7 -34 -6 -34 -6 -9 9 30 18 30 18 55 7z m110 0 c4 -6 -12 -10 -42 -10
-35 0 -44 3 -33 10 20 13 67 13 75 0z m-700 -20 c-3 -5 -12 -7 -20 -3 -21 7
-19 13 6 13 11 0 18 -4 14 -10z m914 -5 c10 -11 -7 -13 -47 -8 -23 3 -42 10
-42 16 0 9 78 2 89 -8z m-836 -12 c-13 -2 -33 -2 -45 0 -13 2 -3 4 22 4 25 0
35 -2 23 -4z m1841 -2 c3 -5 -1 -15 -10 -22 -14 -11 -18 -11 -28 2 -6 9 -18
18 -26 22 -8 3 2 6 22 6 20 1 39 -3 42 -8z m503 3 c-3 -3 -12 -4 -19 -1 -8 3
-5 6 6 6 11 1 17 -2 13 -5z m359 -7 c4 -4 -2 -7 -13 -7 -11 0 -36 -3 -54 -6
-34 -6 -34 -6 -9 9 25 15 63 17 76 4z m-2456 -7 c0 -5 -12 -10 -27 -9 -25 0
-26 1 -8 9 27 12 35 12 35 0z m120 0 c0 -5 -12 -10 -27 -9 -25 0 -26 1 -8 9
27 12 35 12 35 0z m1660 0 c0 -5 -6 -10 -14 -10 -8 0 -18 5 -21 10 -3 6 3 10
14 10 12 0 21 -4 21 -10z m213 -1 l42 -1 -38 -12 c-29 -9 -35 -14 -25 -24 9
-9 6 -12 -14 -12 -15 0 -30 5 -33 10 -5 8 -11 8 -20 0 -7 -6 -43 -9 -81 -8
-38 1 -140 -2 -226 -6 -139 -8 -158 -7 -158 6 0 14 22 16 159 15 139 -1 162 1
179 16 13 12 28 16 43 12 13 -3 42 -2 64 4 22 5 46 7 53 5 8 -2 32 -4 55 -5z
m-2406 -10 c-14 -8 -22 -8 -30 0 -8 8 -3 11 19 11 25 -1 27 -2 11 -11z m2500
5 c-3 -3 -12 -4 -19 -1 -8 3 -5 6 6 6 11 1 17 -2 13 -5z m246 -10 c-3 -8 -12
-13 -20 -10 -38 15 -63 17 -63 7 0 -6 -9 -11 -21 -11 -11 0 -18 4 -15 9 4 5 0
12 -6 14 -7 3 19 6 59 6 62 1 71 -1 66 -15z m174 10 c-3 -3 -12 -4 -19 -1 -8
3 -5 6 6 6 11 1 17 -2 13 -5z m-2580 -10 c-3 -3 -12 -4 -19 -1 -8 3 -5 6 6 6
11 1 17 -2 13 -5z m1053 -4 c0 -5 -4 -10 -10 -10 -5 0 -10 5 -10 10 0 6 5 10
10 10 6 0 10 -4 10 -10z m1188 3 c-10 -2 -28 -2 -40 0 -13 2 -5 4 17 4 22 1
32 -1 23 -4z m-3071 -9 c-3 -3 -12 -4 -19 -1 -8 3 -5 6 6 6 11 1 17 -2 13 -5z
m413 -4 c11 -7 2 -9 -30 -9 -37 1 -41 2 -20 9 34 11 33 11 50 0z m1637 4 c-3
-3 -12 -4 -19 -1 -8 3 -5 6 6 6 11 1 17 -2 13 -5z m183 -4 c-8 -5 -11 -13 -6
-17 4 -4 -21 -13 -56 -18 -66 -11 -92 -8 -64 7 9 5 14 13 11 19 -4 5 5 9 19 9
14 0 28 -4 31 -10 9 -15 25 -12 25 5 0 10 10 15 28 15 20 0 23 -3 12 -10z
m1099 1 c9 -6 10 -11 2 -15 -6 -4 -18 0 -27 8 -12 12 -12 16 -2 16 7 0 19 -4
27 -9z m-1806 -8 c-7 -2 -19 -2 -25 0 -7 3 -2 5 12 5 14 0 19 -2 13 -5z m-398
-12 c33 -7 25 -8 -43 -8 -48 0 -78 4 -70 8 16 11 60 10 113 0z m1940 -11 c3
-5 -1 -10 -9 -10 -9 0 -16 5 -16 10 0 6 4 10 9 10 6 0 13 -4 16 -10z m-1644
-18 c-7 -2 -18 1 -23 6 -8 8 -4 9 13 5 13 -4 18 -8 10 -11z m94 8 c-3 -5 -12
-10 -18 -10 -7 0 -6 4 3 10 19 12 23 12 15 0z m340 -10 c-7 -12 -67 -23 -92
-17 -16 3 -15 5 7 15 31 14 93 15 85 2z m193 -11 c2 -5 13 -9 25 -10 16 -1 14
-3 -10 -10 -18 -5 -35 -15 -39 -21 -5 -8 -2 -9 10 -5 10 4 31 7 48 7 23 0 29
4 24 15 -6 16 0 18 54 15 49 -2 63 -20 16 -20 -23 0 -48 -8 -63 -20 -17 -13
-20 -20 -11 -20 8 0 23 -9 33 -20 18 -19 17 -20 -2 -20 -11 0 -35 -3 -52 -6
-20 -4 -31 -3 -31 5 0 6 13 11 29 11 55 0 41 17 -20 23 -76 8 -114 18 -101 26
6 3 12 15 14 26 2 14 -3 21 -19 23 -13 2 -23 8 -23 13 0 13 113 0 118 -12z
m1282 11 c0 -5 -19 -9 -42 -9 l-43 2 35 7 c19 4 38 8 43 9 4 0 7 -3 7 -9z
m-1695 -10 c3 -5 -1 -10 -10 -10 -9 0 -13 5 -10 10 3 6 8 10 10 10 2 0 7 -4
10 -10z m1569 -6 c-12 -7 -42 -10 -69 -6 -62 6 -42 17 33 17 50 0 55 -1 36
-11z m-3725 -10 c2 -2 -12 -4 -32 -4 -20 0 -38 4 -42 9 -5 9 64 4 74 -5z
m2830 -10 c-9 -11 -8 -14 2 -14 9 0 10 -3 2 -11 -13 -13 -53 5 -53 25 0 19 8
24 35 18 20 -3 23 -7 14 -18z m292 12 c-8 -9 -30 -12 -74 -10 -34 1 -64 4 -67
5 -7 3 79 16 119 17 27 2 31 -1 22 -12z m47 5 c7 -4 34 -4 60 0 45 7 72 -2 72
-22 0 -13 -57 -11 -65 1 -5 8 -11 8 -20 0 -10 -8 -21 -7 -44 5 -30 15 -39 25
-23 25 4 0 13 -4 20 -9z m-753 -11 c8 -13 -5 -13 -25 0 -13 8 -13 10 2 10 9 0
20 -4 23 -10z m505 1 c0 -11 -39 -21 -45 -11 -2 4 -2 10 2 14 10 9 43 7 43 -3z
m-1477 -8 c-7 -2 -19 -2 -25 0 -7 3 -2 5 12 5 14 0 19 -2 13 -5z m2407 -14
c12 -8 10 -9 -10 -7 -14 1 -32 -2 -40 -7 -13 -8 -13 -7 -1 8 15 19 30 21 51 6z
m-2047 -6 c-7 -2 -21 -2 -30 0 -10 3 -4 5 12 5 17 0 24 -2 18 -5z m1450 -23
c13 -16 29 -20 72 -20 30 0 55 -4 55 -10 0 -15 54 -12 86 5 37 19 46 9 15 -16
-22 -18 -36 -20 -131 -16 -121 5 -148 15 -144 49 3 30 2 28 17 28 7 0 20 -9
30 -20z m-263 0 c0 -5 -7 -10 -15 -10 -8 0 -15 5 -15 10 0 6 7 10 15 10 8 0
15 -4 15 -10z m144 0 c7 0 13 -7 13 -16 0 -13 -8 -15 -45 -10 -25 3 -54 6 -65
6 -30 0 -8 18 28 23 17 2 36 2 43 0 8 -1 19 -3 26 -3z m-884 -10 c0 -5 -10
-10 -22 -9 -22 0 -22 1 -3 9 11 5 21 9 23 9 1 1 2 -3 2 -9z m640 -7 c64 -10
-2 -23 -104 -20 -72 1 -89 5 -77 13 31 22 77 24 181 7z m685 7 c-3 -5 -18 -10
-33 -9 -24 0 -25 1 -7 9 28 12 47 12 40 0z m-2145 -15 c0 -8 -7 -15 -15 -15
-16 0 -20 12 -8 23 11 12 23 8 23 -8z m450 5 c0 -13 -20 -13 -40 0 -12 8 -9
10 13 10 15 0 27 -4 27 -10z m145 -10 c17 -7 24 -7 20 0 -3 6 4 10 16 10 12 0
19 -3 16 -7 -4 -3 -2 -12 5 -20 6 -7 9 -15 7 -18 -3 -2 -41 2 -84 10 -44 8
-81 14 -82 15 -2 0 -3 5 -3 10 0 13 71 13 105 0z m-1350 -10 c3 -5 -1 -10 -10
-10 -9 0 -13 5 -10 10 3 6 8 10 10 10 2 0 7 -4 10 -10z m1061 2 c-5 -8 -76 -4
-76 4 0 2 18 4 41 4 22 0 38 -4 35 -8z m478 -12 c4 -5 20 -5 35 -1 41 12 60 0
20 -13 -39 -13 -137 -9 -104 5 16 6 12 8 -17 8 -21 1 -38 5 -38 10 0 10 91 2
104 -9z m819 3 c-7 -2 -21 -2 -30 0 -10 3 -4 5 12 5 17 0 24 -2 18 -5z m702
-3 c3 -6 -1 -13 -10 -16 -19 -8 -30 0 -20 15 8 14 22 14 30 1z m-3300 -10 c3
-5 1 -10 -4 -10 -6 0 -11 5 -11 10 0 6 2 10 4 10 3 0 8 -4 11 -10z m3229 4
c28 -11 17 -24 -18 -24 -36 0 -56 14 -34 23 19 8 34 8 52 1z m261 -4 c3 -6 -4
-10 -17 -10 -18 0 -20 2 -8 10 19 12 18 12 25 0z m-1520 -9 c3 -6 29 -8 58 -6
29 2 41 2 28 -1 -29 -7 -53 -29 -43 -39 4 -4 -11 -5 -33 -2 -22 4 -49 7 -60 7
-20 1 -20 1 -1 15 17 13 17 15 4 15 -9 0 -20 5 -23 10 -4 6 8 10 29 10 19 0
37 -4 41 -9z m-1346 -17 c2 -2 -14 -4 -37 -4 -23 0 -42 5 -42 10 0 10 67 4 79
-6z m1543 -6 c23 1 56 -3 74 -10 25 -9 39 -9 56 0 39 19 162 25 204 10 29 -10
38 -10 41 0 3 6 19 12 36 12 l32 0 -25 -21 c-25 -20 -65 -21 -205 -5 -11 1
-36 -2 -55 -7 -19 -5 -88 -10 -152 -11 -111 -1 -145 5 -98 17 11 3 20 9 19 14
-3 20 2 25 16 13 9 -7 35 -13 57 -12z m628 12 c0 -5 -21 -9 -47 -9 -43 1 -45
2 -18 9 44 11 65 11 65 0z m635 0 c-3 -5 -19 -10 -36 -10 -16 0 -29 5 -29 10
0 6 16 10 36 10 21 0 33 -4 29 -10z m-2758 -6 c-3 -3 -12 -4 -19 -1 -8 3 -5 6
6 6 11 1 17 -2 13 -5z m2240 0 c-3 -3 -12 -4 -19 -1 -8 3 -5 6 6 6 11 1 17 -2
13 -5z m248 -4 c3 -5 -3 -10 -14 -10 -12 0 -21 5 -21 10 0 6 6 10 14 10 8 0
18 -4 21 -10z m182 -6 c-3 -3 -12 -4 -19 -1 -8 3 -5 6 6 6 11 1 17 -2 13 -5z
m-2427 -34 c22 -22 19 -25 -8 -11 -9 5 -35 17 -57 26 l-40 16 43 -6 c23 -3 51
-14 62 -25z m257 24 c-3 -3 -12 -4 -19 -1 -8 3 -5 6 6 6 11 1 17 -2 13 -5z
m1613 -14 c-19 -13 -30 -13 -30 0 0 6 10 10 23 10 18 0 19 -2 7 -10z m493 -7
c-7 -2 -19 -2 -25 0 -7 3 -2 5 12 5 14 0 19 -2 13 -5z m222 -3 c-3 -5 -14 -10
-23 -10 -15 0 -15 2 -2 10 20 13 33 13 25 0z m-2857 -9 c10 -6 8 -10 -9 -14
-26 -7 -34 -3 -24 12 7 13 15 14 33 2z m459 3 c-3 -3 -12 -4 -19 -1 -8 3 -5 6
6 6 11 1 17 -2 13 -5z m1327 -30 c31 6 79 -15 65 -28 -11 -11 -162 8 -166 21
-3 7 11 19 29 26 30 13 33 12 36 -6 3 -16 9 -18 36 -13z m621 27 c3 -6 -22
-15 -55 -22 -33 -6 -63 -16 -66 -20 -3 -5 -26 -9 -52 -10 -26 0 -40 -3 -32 -5
8 -3 44 -14 79 -26 43 -13 76 -18 102 -14 21 3 40 2 44 -4 3 -5 -2 -10 -12
-10 -17 -1 -17 -2 1 -15 19 -15 19 -15 -3 -15 -39 0 -132 31 -138 46 -6 16
-54 19 -69 4 -6 -6 -24 -11 -40 -11 -115 -2 -274 10 -274 20 1 23 25 36 80 41
33 3 66 3 72 -1 6 -4 20 2 31 12 14 13 24 16 31 9 5 -5 21 -9 36 -9 16 1 19 3
8 6 -10 2 -18 9 -18 14 0 5 47 7 113 4 66 -3 118 -1 127 5 19 12 27 12 35 1z
m165 -1 c-20 -13 -43 -13 -35 0 3 6 16 10 28 10 18 0 19 -2 7 -10z m-2623 -16
c-3 -3 -12 -4 -19 -1 -8 3 -5 6 6 6 11 1 17 -2 13 -5z m930 0 c-3 -3 -12 -4
-19 -1 -8 3 -5 6 6 6 11 1 17 -2 13 -5z m-797 -19 c0 -19 -11 -19 -36 0 -18
14 -18 14 9 15 17 0 27 -5 27 -15z m1263 8 c-7 -2 -21 -2 -30 0 -10 3 -4 5 12
5 17 0 24 -2 18 -5z m317 -1 c0 -5 -13 -7 -30 -4 -16 2 -30 6 -30 8 0 2 14 4
30 4 17 0 30 -4 30 -8z m250 -2 c0 -5 -4 -10 -10 -10 -5 0 -10 5 -10 10 0 6 5
10 10 10 6 0 10 -4 10 -10z m-425 -10 c-28 -12 -45 -12 -45 0 0 6 15 10 33 9
27 0 29 -2 12 -9z m1192 -36 c0 -8 -6 -14 -12 -14 -17 0 -38 27 -30 39 8 14
42 -7 42 -25z m-2232 16 c7 -12 -2 -12 -30 0 -19 8 -19 9 2 9 12 1 25 -3 28
-9z m1992 -16 c-3 -3 -12 -4 -19 -1 -8 3 -5 6 6 6 11 1 17 -2 13 -5z m-1648
-20 c25 -2 51 -4 56 -4 6 -1 0 -5 -12 -10 -25 -10 -133 9 -133 23 0 4 10 5 22
1 12 -3 42 -8 67 -10z m1725 1 c-4 -11 1 -15 17 -16 13 -1 31 -3 39 -4 8 -1
28 -3 44 -4 55 -2 16 -14 -41 -12 -39 1 -60 6 -66 16 -4 8 -15 15 -23 15 -8 0
-12 5 -9 10 10 17 45 12 39 -5z m-1184 -5 c12 -8 11 -10 -7 -10 -12 0 -25 5
-28 10 -8 13 15 13 35 0z m-940 -10 c0 -5 -9 -10 -20 -10 -11 0 -20 5 -20 10
0 6 9 10 20 10 11 0 20 -4 20 -10z m85 0 c3 -5 1 -10 -4 -10 -6 0 -11 5 -11
10 0 6 2 10 4 10 3 0 8 -4 11 -10z m-210 -10 c15 -7 10 -9 -22 -9 -24 -1 -43
4 -43 9 0 12 37 12 65 0z m960 -10 c11 -5 16 -9 10 -9 -5 -1 -3 -6 5 -12 12
-9 12 -10 -3 -5 -10 3 -37 7 -60 7 -23 1 -32 4 -19 6 12 2 20 9 17 14 -7 11
23 11 50 -1z m180 -1 c4 -6 36 -9 76 -8 38 1 72 -1 76 -4 3 -4 -37 -7 -90 -7
-80 0 -97 3 -97 15 0 17 26 20 35 4z m362 5 c-3 -3 -12 -4 -19 -1 -8 3 -5 6 6
6 11 1 17 -2 13 -5z m203 -4 c11 -7 7 -10 -20 -11 -30 -2 -31 -3 -8 -6 15 -2
35 0 44 5 9 5 39 5 71 0 32 -5 76 -5 106 1 51 9 77 6 77 -9 0 -12 -142 -17
-162 -6 -11 7 -25 6 -42 -4 -30 -16 -33 -27 -8 -33 41 -11 -120 -5 -186 7 -96
17 -104 29 -18 24 49 -2 71 1 73 10 3 6 0 12 -7 12 -6 0 -8 5 -5 10 8 13 65
13 85 0z m-250 -15 c0 -10 -10 -15 -27 -15 l-28 1 25 14 c31 18 30 18 30 0z
m-1093 -1 c-3 -3 -12 -4 -19 -1 -8 3 -5 6 6 6 11 1 17 -2 13 -5z m1817 -35
c-8 -14 -31 -11 -37 4 -4 10 2 13 19 9 13 -2 21 -8 18 -13z m-3737 -5 c-3 -3
-12 -4 -19 -1 -8 3 -5 6 6 6 11 1 17 -2 13 -5z m1222 -10 c2 -2 -7 -4 -22 -4
-14 0 -29 5 -32 10 -6 10 42 4 54 -6z m2756 6 c3 -5 -1 -10 -10 -10 -9 0 -13
5 -10 10 3 6 8 10 10 10 2 0 7 -4 10 -10z m-2486 -4 c-12 -10 -59 -15 -59 -6
0 5 14 10 32 10 17 0 29 -2 27 -4z m2091 -22 c0 -11 -5 -14 -16 -10 -9 3 -25
6 -35 6 -11 0 -17 5 -14 10 11 17 65 12 65 -6z m-2930 -4 c0 -5 -9 -10 -19
-10 -11 0 -23 5 -26 10 -4 6 5 10 19 10 14 0 26 -4 26 -10z m985 -10 c4 -6 -6
-10 -22 -9 -25 0 -26 1 -8 9 11 5 21 9 22 9 1 1 5 -3 8 -9z m92 4 c-3 -3 -12
-4 -19 -1 -8 3 -5 6 6 6 11 1 17 -2 13 -5z m1448 -4 c4 -6 -7 -10 -27 -9 -31
1 -32 1 -8 9 14 4 26 8 27 9 1 1 5 -3 8 -9z m190 -9 c67 -13 94 -21 82 -26
-23 -10 -122 2 -151 17 -11 7 -39 15 -61 19 l-40 6 35 1 c19 0 80 -7 135 -17z
m-2350 -1 c7 -12 -32 -12 -60 0 -16 7 -13 9 17 9 20 1 40 -3 43 -9z m800 0
c-3 -5 -12 -10 -18 -10 -7 0 -6 4 3 10 19 12 23 12 15 0z m763 -17 c13 -13 54
-12 84 1 9 4 25 3 35 -3 16 -9 15 -10 -9 -11 -14 0 -28 -4 -30 -9 -2 -5 -29
-5 -63 0 -33 5 -67 6 -75 4 -8 -2 -26 4 -40 15 l-25 19 55 -2 c30 -1 61 -8 68
-14z m376 -12 c19 -35 73 -49 94 -23 11 15 10 17 -7 20 -24 4 -29 22 -6 22 12
0 61 -18 74 -27 2 -1 -2 -9 -9 -18 -11 -13 -7 -15 26 -14 33 1 35 2 14 8 -23
6 -23 8 -6 14 10 4 28 5 39 1 10 -3 29 -1 42 6 17 9 37 9 86 0 35 -6 82 -13
104 -16 64 -8 85 -14 85 -25 0 -18 -29 -21 -45 -5 -10 10 -35 16 -63 17 -93 2
-107 4 -104 17 1 6 -2 12 -8 12 -5 0 -10 -4 -10 -10 0 -5 -21 -10 -47 -10 -43
0 -45 -1 -27 -15 17 -13 11 -14 -61 -14 -44 0 -94 -3 -110 -7 l-29 -7 25 -11
c23 -10 22 -10 -15 -14 -22 -2 -49 2 -61 8 -26 14 -49 18 -97 19 -21 1 -38 6
-38 12 0 8 29 9 95 4 68 -5 95 -4 95 4 0 6 -4 11 -9 11 -12 0 -61 47 -61 60 0
20 20 10 34 -19z m699 22 c-7 -2 -19 -2 -25 0 -7 3 -2 5 12 5 14 0 19 -2 13
-5z m-2546 -9 c-3 -3 -12 -4 -19 -1 -8 3 -5 6 6 6 11 1 17 -2 13 -5z m1778
-15 c7 -9 -4 -10 -43 -6 -46 5 -52 4 -50 -11 2 -11 -5 -18 -19 -20 -13 -2 -23
1 -23 7 0 6 6 11 13 12 9 0 9 2 -1 6 -10 4 -9 9 5 19 20 17 100 11 118 -7z
m852 15 c-3 -3 -12 -4 -19 -1 -8 3 -5 6 6 6 11 1 17 -2 13 -5z m-3660 -10 c-3
-3 -12 -4 -19 -1 -8 3 -5 6 6 6 11 1 17 -2 13 -5z m1181 -12 c25 -8 27 -29 2
-24 -8 1 -27 3 -43 3 -15 0 -40 7 -55 15 -27 14 -26 14 23 13 28 -1 60 -4 73
-7z m2802 -17 c0 -8 -4 -15 -10 -15 -5 0 -10 7 -10 15 0 8 5 15 10 15 6 0 10
-7 10 -15z m-1132 0 c-8 -8 -77 -9 -85 -2 -3 4 15 7 42 7 27 0 46 -2 43 -5z
m627 -5 c3 -5 2 -10 -4 -10 -5 0 -13 5 -16 10 -3 6 -2 10 4 10 5 0 13 -4 16
-10z m395 1 c0 -6 -4 -13 -10 -16 -5 -3 -10 -2 -10 4 0 5 -8 12 -17 14 -11 3
-7 5 10 6 15 0 27 -3 27 -8z m50 -1 c-20 -13 -40 -13 -40 0 0 6 12 10 28 10
21 0 24 -2 12 -10z m-363 -17 c-4 -3 -2 -12 4 -20 12 -14 2 -17 -25 -7 -18 7
-10 34 12 34 8 0 12 -3 9 -7z m-2252 -26 c7 -6 0 -7 -20 -3 -16 4 -34 12 -40
17 -7 7 0 8 20 3 17 -3 35 -11 40 -17z m2074 -11 c11 -7 11 -10 -3 -18 -9 -5
-14 -13 -11 -19 8 -12 -37 -12 -71 1 -18 7 -29 7 -34 1 -3 -7 -17 -7 -35 -2
-26 7 -22 9 38 16 79 9 95 22 37 31 -23 4 -37 10 -30 14 11 7 85 -9 109 -24z
m411 24 c0 -5 -9 -10 -20 -10 -11 0 -20 5 -20 10 0 6 9 10 20 10 11 0 20 -4
20 -10z m-567 -7 c-7 -2 -21 -2 -30 0 -10 3 -4 5 12 5 17 0 24 -2 18 -5z m627
3 c0 -11 -19 -15 -25 -6 -3 5 1 10 9 10 9 0 16 -2 16 -4z m-2430 -13 c0 -5
-11 -8 -25 -8 -14 0 -25 3 -25 8 0 4 11 7 25 7 14 0 25 -3 25 -7z m2224 -14
c-3 -5 -13 -9 -22 -8 -11 0 -12 2 -4 6 6 2 10 9 7 14 -4 5 1 6 9 3 9 -3 13
-10 10 -15z m79 14 c-7 -2 -21 -2 -30 0 -10 3 -4 5 12 5 17 0 24 -2 18 -5z
m-708 -13 c-3 -5 -17 -10 -31 -10 -13 0 -24 5 -24 10 0 6 14 10 31 10 17 0 28
-4 24 -10z m-1470 -9 l40 -7 -49 -6 c-36 -4 -53 -2 -63 8 -12 12 -11 14 9 13
13 0 41 -4 63 -8z m1628 -12 c-8 -8 -16 -8 -30 0 -16 9 -14 10 12 11 21 0 26
-3 18 -11z m557 1 c14 -7 25 -7 38 1 15 10 24 9 43 -4 13 -10 40 -17 61 -17
21 0 38 -5 38 -11 0 -6 -21 -9 -52 -7 -37 2 -52 7 -50 16 2 10 -8 12 -40 7
-30 -5 -52 -2 -73 9 -28 15 -28 16 -7 16 13 0 32 -5 42 -10z m-2080 -10 c0 -5
14 -10 30 -10 17 0 30 -5 30 -11 0 -6 14 -9 32 -7 17 2 33 -1 35 -7 7 -21 -67
-9 -134 21 -38 17 -41 24 -13 24 11 0 20 -4 20 -10z m1185 -10 c3 -5 1 -10 -4
-10 -6 0 -11 5 -11 10 0 6 2 10 4 10 3 0 8 -4 11 -10z m-675 -4 c0 -2 -7 -9
-15 -16 -12 -10 -15 -10 -15 4 0 9 7 16 15 16 8 0 15 -2 15 -4z m225 -6 c3 -5
1 -10 -4 -10 -6 0 -11 5 -11 10 0 6 2 10 4 10 3 0 8 -4 11 -10z m-550 -10 c3
-5 -3 -10 -14 -10 -11 0 -23 5 -26 10 -3 6 3 10 14 10 11 0 23 -4 26 -10z
m2122 4 c-3 -3 -12 -4 -19 -1 -8 3 -5 6 6 6 11 1 17 -2 13 -5z m-690 -10 c-3
-3 -12 -4 -19 -1 -8 3 -5 6 6 6 11 1 17 -2 13 -5z m-2277 -14 c0 -5 -4 -10
-10 -10 -5 0 -10 5 -10 10 0 6 5 10 10 10 6 0 10 -4 10 -10z m905 0 c8 -13 -5
-13 -25 0 -13 8 -13 10 2 10 9 0 20 -4 23 -10z m845 0 c0 -5 -7 -7 -15 -4 -8
4 -15 8 -15 10 0 2 7 4 15 4 8 0 15 -4 15 -10z m677 4 c-3 -3 -12 -4 -19 -1
-8 3 -5 6 6 6 11 1 17 -2 13 -5z m-2510 -20 c-3 -3 -12 -4 -19 -1 -8 3 -5 6 6
6 11 1 17 -2 13 -5z m810 0 c-3 -3 -12 -4 -19 -1 -8 3 -5 6 6 6 11 1 17 -2 13
-5z m283 -10 c0 -2 -13 -4 -30 -4 -16 0 -30 4 -30 8 0 5 14 7 30 4 17 -2 30
-6 30 -8z m593 6 c8 0 8 -3 0 -11 -7 -7 -23 -9 -39 -5 -22 6 -25 9 -13 17 7 5
20 7 27 4 8 -3 19 -5 25 -5z m461 4 c22 -9 20 -24 -3 -24 -28 0 -52 -11 -45
-21 3 -5 -15 -9 -40 -9 -49 0 -65 -19 -18 -21 17 -1 20 -3 9 -6 -9 -2 -15 -9
-12 -14 4 -5 -10 -9 -30 -9 -22 0 -34 4 -30 10 3 6 1 10 -4 10 -6 0 -11 8 -11
18 0 11 -10 24 -22 30 -19 9 -10 11 50 11 39 1 72 5 72 10 0 16 56 26 84 15z
m131 -4 l20 -9 -20 0 c-11 0 -27 4 -35 9 -13 9 -13 10 0 9 8 0 24 -4 35 -9z
m-733 -22 c-6 -6 -16 -7 -22 -3 -9 6 -9 9 1 16 17 10 34 0 21 -13z m342 7
c-18 -13 -18 -14 -1 -15 10 0 15 -4 12 -10 -3 -6 4 -10 17 -10 18 0 20 -2 8
-10 -8 -5 -25 -10 -37 -10 -13 0 -23 -3 -23 -7 0 -5 -26 -8 -58 -8 -44 0 -65
5 -90 23 -18 13 -30 27 -27 31 5 9 94 3 144 -9 32 -9 33 -8 16 10 -16 17 -15
19 7 23 47 9 52 7 32 -8z m124 8 c-10 -2 -26 -2 -35 0 -10 3 -2 5 17 5 19 0
27 -2 18 -5z m587 -13 c4 -6 -12 -9 -42 -9 -47 2 -47 2 -13 9 19 4 38 8 42 9
4 0 10 -3 13 -9z m85 -10 c-11 -11 -27 -20 -35 -20 -12 0 -12 3 2 20 10 11 25
20 35 20 17 0 16 -2 -2 -20z m-1553 4 c-3 -3 -12 -4 -19 -1 -8 3 -5 6 6 6 11
1 17 -2 13 -5z m145 -3 c13 -4 43 -11 67 -15 39 -6 43 -5 31 9 -10 13 -9 15 6
15 11 0 32 -7 48 -15 15 -8 37 -15 47 -15 10 0 21 -5 25 -11 5 -9 -2 -10 -22
-5 -78 17 -91 18 -105 4 -11 -11 -23 -12 -57 -4 -24 6 -40 14 -36 19 4 4 2 7
-4 7 -7 0 -12 -7 -12 -15 0 -17 -37 -20 -60 -4 -11 8 -12 12 -2 16 6 2 10 9 6
14 -7 11 37 12 68 0z m341 2 c-7 -2 -21 -2 -30 0 -10 3 -4 5 12 5 17 0 24 -2
18 -5z m660 -27 c16 -4 27 -13 27 -23 0 -13 -9 -15 -58 -10 -87 9 -102 17 -61
32 34 12 39 12 92 1z m70 7 c-7 -2 -21 -2 -30 0 -10 3 -4 5 12 5 17 0 24 -2
18 -5z m-696 -9 c-3 -3 -12 -4 -19 -1 -8 3 -5 6 6 6 11 1 17 -2 13 -5z m798
-4 c18 -8 18 -9 -5 -9 l-25 -1 25 -13 c14 -7 43 -14 65 -14 22 -1 41 -6 43
-12 2 -5 10 -7 19 -4 10 4 14 1 12 -11 -2 -9 -7 -17 -11 -17 -5 1 -20 1 -35 1
-26 0 -26 1 -7 15 17 13 10 14 -63 8 -59 -4 -83 -3 -83 6 0 6 -17 12 -37 12
-37 1 -37 2 -8 8 17 3 31 12 31 19 1 6 2 14 3 17 2 8 54 4 76 -5z m-320 -10
c-3 -5 -10 -10 -16 -10 -5 0 -9 5 -9 10 0 6 7 10 16 10 8 0 12 -4 9 -10z
m-356 -48 c13 -12 6 -13 -50 -7 -83 9 -95 21 -21 21 36 0 62 -5 71 -14z m314
11 c-7 -2 -19 -2 -25 0 -7 3 -2 5 12 5 14 0 19 -2 13 -5z m77 -7 c6 -8 18 -12
26 -9 17 6 64 -4 64 -15 0 -4 -23 -7 -52 -8 -48 0 -88 17 -88 38 0 14 37 9 50
-6z m785 4 c3 -6 -4 -10 -17 -10 -22 -1 -22 -1 -4 -15 20 -15 20 -15 0 -14
-10 0 -55 6 -99 13 l-80 13 60 7 c33 4 67 9 75 10 32 7 59 6 65 -4z m-2705 -4
c0 -3 -4 -8 -10 -11 -5 -3 -10 -1 -10 4 0 6 5 11 10 11 6 0 10 -2 10 -4z m70
-16 c-8 -5 -11 -10 -5 -10 5 0 4 -5 -2 -11 -6 -6 -22 -7 -38 -3 -26 7 -27 8
-10 20 11 8 30 14 44 14 21 0 23 -2 11 -10z m-275 -10 c-11 -5 -27 -9 -35 -9
-13 -1 -13 0 0 9 8 5 24 9 35 9 l20 0 -20 -9z m2390 -5 c-61 -16 -139 -19
-130 -5 3 5 12 7 19 4 8 -3 17 -1 20 4 3 5 36 9 73 9 l68 0 -50 -12z m729 7
c2 -4 -13 -6 -35 -4 -21 2 -39 6 -39 8 0 7 69 4 74 -4z m-2947 -8 c-3 -3 -12
-4 -19 -1 -8 3 -5 6 6 6 11 1 17 -2 13 -5z m1583 -11 c0 -6 10 -14 23 -16 12
-3 2 -2 -23 0 -134 14 -167 28 -64 28 43 0 64 -4 64 -12z m-1413 1 c-3 -3 -12
-4 -19 -1 -8 3 -5 6 6 6 11 1 17 -2 13 -5z m108 -4 c3 -5 -1 -10 -9 -10 -8 0
-18 5 -21 10 -3 6 1 10 9 10 8 0 18 -4 21 -10z m45 6 c0 -11 -19 -15 -25 -6
-3 5 1 10 9 10 9 0 16 -2 16 -4z m90 -6 c0 -5 -7 -10 -15 -10 -8 0 -15 5 -15
10 0 6 7 10 15 10 8 0 15 -4 15 -10z m2428 3 c-10 -2 -28 -2 -40 0 -13 2 -5 4
17 4 22 1 32 -1 23 -4z m109 -9 c-3 -3 -12 -4 -19 -1 -8 3 -5 6 6 6 11 1 17
-2 13 -5z m-2360 -10 c-3 -3 -12 -4 -19 -1 -8 3 -5 6 6 6 11 1 17 -2 13 -5z
m1087 -8 c-3 -8 4 -16 18 -19 18 -5 20 -9 11 -18 -10 -10 -21 -10 -49 -1 -30
9 -35 8 -30 -4 3 -8 -1 -14 -9 -14 -27 0 -16 -18 15 -25 19 -4 36 -2 46 5 8 8
30 11 54 7 26 -3 43 -1 50 8 8 10 7 15 -7 18 -10 3 -5 5 11 4 16 -1 31 4 33
11 3 8 -8 12 -34 13 -21 0 -47 4 -58 8 -12 5 13 8 63 7 45 0 82 -5 82 -9 0 -5
-10 -5 -22 -2 -16 4 -19 4 -9 -3 7 -5 11 -14 7 -20 -3 -6 -2 -13 4 -17 16 -10
1 -27 -18 -21 -10 3 -24 1 -32 -4 -12 -8 -9 -10 13 -10 15 0 27 -4 27 -9 0
-14 67 -24 145 -23 50 1 63 -1 45 -7 -58 -20 -230 -4 -230 21 0 5 -34 6 -85 2
-70 -6 -88 -4 -103 9 -9 8 -35 17 -56 19 -22 2 -41 8 -43 13 -4 12 80 45 115
45 13 0 21 4 18 9 -4 5 0 12 6 14 22 9 28 7 22 -7z m-1537 -24 c-34 -4 -48 5
-27 18 8 5 22 4 34 -3 20 -11 20 -12 -7 -15z m-214 11 c-7 -2 -21 -2 -30 0
-10 3 -4 5 12 5 17 0 24 -2 18 -5z m367 -2 c0 -10 -67 -8 -77 3 -3 3 12 6 35
6 23 0 42 -4 42 -9z m497 3 c-3 -3 -12 -4 -19 -1 -8 3 -5 6 6 6 11 1 17 -2 13
-5z m-710 -10 c-3 -3 -12 -4 -19 -1 -8 3 -5 6 6 6 11 1 17 -2 13 -5z m2138
-12 c3 -8 21 -12 56 -10 36 2 53 -1 55 -10 1 -7 0 -8 -3 -2 -6 13 -33 13 -33
0 0 -13 -157 -13 -162 0 -2 6 -36 11 -76 12 -68 1 -84 10 -37 20 46 11 195 3
200 -10z m282 12 c-3 -3 -12 -4 -19 -1 -8 3 -5 6 6 6 11 1 17 -2 13 -5z
m-1138 -15 c-19 -12 -99 -11 -99 1 0 5 25 9 56 9 37 -1 52 -4 43 -10z m611 -9
c0 -5 -11 -10 -25 -10 -14 0 -25 5 -25 10 0 6 11 10 25 10 14 0 25 -4 25 -10z
m890 -1 c0 -5 4 -8 9 -4 5 3 12 1 16 -5 7 -11 -15 -13 -39 -4 -9 3 -13 10 -10
15 7 12 24 11 24 -2z m-1933 -5 c-3 -3 -12 -4 -19 -1 -8 3 -5 6 6 6 11 1 17
-2 13 -5z m1773 -4 c13 -9 13 -10 0 -10 -8 0 -25 -3 -37 -6 -13 -4 -23 -2 -23
4 0 9 12 15 40 21 3 0 12 -4 20 -9z m-249 -23 c18 -13 13 -15 -47 -21 -56 -6
-70 -4 -83 10 -15 15 -13 16 21 11 37 -6 60 6 36 17 -7 4 2 4 20 1 18 -3 42
-11 53 -18z m-1954 7 c-3 -3 -12 -4 -19 -1 -8 3 -5 6 6 6 11 1 17 -2 13 -5z
m633 -8 l45 -15 -63 0 c-54 -1 -61 1 -50 14 16 18 14 18 68 1z m-870 -6 c0 -5
-4 -10 -10 -10 -5 0 -10 5 -10 10 0 6 5 10 10 10 6 0 10 -4 10 -10z m1905 -10
c8 -13 -25 -13 -45 0 -12 8 -9 10 12 10 15 0 30 -4 33 -10z m-775 -14 c0 -16
22 -22 103 -32 78 -9 87 -28 11 -20 -104 9 -144 18 -138 28 5 7 -12 9 -50 6
-31 -3 -56 -1 -56 4 0 4 22 8 49 8 28 0 53 5 56 10 9 15 25 12 25 -4z m875 4
c-8 -13 -45 -13 -65 0 -11 7 -3 10 28 10 26 0 41 -4 37 -10z m425 0 c0 -5 -7
-10 -15 -10 -8 0 -15 5 -15 10 0 6 7 10 15 10 8 0 15 -4 15 -10z m219 4 c51
-11 24 -24 -47 -23 -37 0 -61 3 -53 6 11 5 11 7 0 14 -17 10 52 12 100 3z
m-1694 -24 c4 -6 -5 -10 -19 -10 -14 0 -26 5 -26 10 0 6 9 10 19 10 11 0 23
-4 26 -10z m555 0 c12 -8 11 -10 -7 -10 -12 0 -25 5 -28 10 -8 13 15 13 35 0z
m-960 -15 c16 -19 1 -19 -24 0 -16 12 -17 15 -4 15 8 0 21 -7 28 -15z m820 -5
c13 -11 39 -25 59 -30 77 -21 68 -30 -24 -24 -49 3 -97 8 -105 10 -27 9 11 23
44 17 21 -4 27 -3 22 5 -4 7 -14 12 -22 12 -8 0 -14 7 -14 15 0 20 13 19 40
-5z m80 10 c0 -5 -4 -10 -9 -10 -6 0 -13 5 -16 10 -3 6 1 10 9 10 9 0 16 -4
16 -10z m476 -21 c8 -13 164 -11 164 2 0 7 -11 9 -27 5 -26 -5 -26 -5 -6 6 28
14 70 3 83 -21 9 -18 4 -19 -106 -20 -64 0 -119 -3 -122 -5 -4 -2 -27 0 -52 4
l-45 7 53 2 c68 1 60 21 -9 21 -27 0 -49 -4 -49 -10 0 -13 -37 -13 -45 0 -6
10 20 18 75 22 44 4 79 -2 86 -13z m579 11 c4 -6 -7 -9 -27 -8 -18 1 -53 -2
-78 -6 -31 -6 -42 -5 -35 2 9 9 38 15 112 20 12 1 25 -3 28 -8z m-798 -16 c-3
-3 -12 -4 -19 -1 -8 3 -5 6 6 6 11 1 17 -2 13 -5z m560 -10 c-3 -3 -12 -4 -19
-1 -8 3 -5 6 6 6 11 1 17 -2 13 -5z m-1502 -32 c-3 -3 -11 0 -18 7 -9 10 -8
11 6 5 10 -3 15 -9 12 -12z m315 8 c13 -9 13 -10 0 -10 -8 0 -22 5 -30 10 -13
9 -13 10 0 10 8 0 22 -5 30 -10z m-175 -10 c19 -8 19 -9 -2 -9 -12 -1 -25 4
-28 9 -7 12 2 12 30 0z m115 -10 c0 -5 -4 -10 -10 -10 -5 0 -10 5 -10 10 0 6
5 10 10 10 6 0 10 -4 10 -10z m246 -10 c15 -6 24 -13 21 -16 -8 -8 -77 7 -77
17 0 12 23 11 56 -1z m1213 -11 c-16 -6 -35 -6 -50 0 -20 8 -16 10 26 10 43
-1 46 -2 24 -10z m-1526 -6 c-7 -2 -21 -2 -30 0 -10 3 -4 5 12 5 17 0 24 -2
18 -5z m932 -7 c43 -12 46 -14 19 -15 -51 -2 -124 11 -118 20 7 13 41 11 99
-5z m-770 -24 c16 -12 17 -13 2 -9 -9 4 -46 12 -82 18 -36 6 -65 13 -65 16 0
10 127 -11 145 -25z m412 2 c-29 -10 -44 -11 -59 -3 -11 6 -26 8 -33 5 -8 -3
-17 -1 -20 4 -4 6 25 10 72 9 l78 0 -38 -15z m166 -1 c-7 -2 -21 -2 -30 0 -10
3 -4 5 12 5 17 0 24 -2 18 -5z m-390 -20 c-7 -2 -21 -2 -30 0 -10 3 -4 5 12 5
17 0 24 -2 18 -5z m-2223 -163 c0 -5 -4 -10 -10 -10 -5 0 -10 5 -10 10 0 6 5
10 10 10 6 0 10 -4 10 -10z m2475 -17 c-17 -16 -46 -14 -52 4 -3 7 9 11 31 11
31 0 34 -2 21 -15z m205 7 c11 -7 -3 -9 -45 -9 -45 1 -54 3 -35 9 35 11 63 11
80 0z m-735 -31 c-4 -5 -21 -8 -38 -8 -21 1 -25 3 -12 6 11 3 24 9 29 14 11
10 28 1 21 -12z m960 1 c18 -20 17 -20 -20 -20 -30 0 -35 3 -26 13 6 8 8 17 4
20 -3 4 0 7 9 7 8 0 23 -9 33 -20z m144 6 c-9 -8 -99 -13 -99 -5 0 5 23 9 52
9 28 0 49 -2 47 -4z m54 -3 c-7 -2 -19 -2 -25 0 -7 3 -2 5 12 5 14 0 19 -2 13
-5z m-685 -17 c3 -3 -27 -6 -66 -6 -41 0 -72 4 -72 10 0 10 127 6 138 -4z
m162 -13 l-24 -17 34 -8 c26 -5 38 -3 46 8 13 16 65 19 80 4 5 -5 46 -12 92
-16 53 -4 81 -11 79 -18 -6 -19 -350 -8 -522 17 -63 9 -83 15 -68 21 11 3 67
-1 122 -9 56 -9 107 -14 114 -12 7 3 -1 6 -18 6 -27 1 -73 20 -50 21 6 0 3 5
-5 10 -10 7 10 10 65 10 78 0 79 0 55 -17z m424 -8 c11 -8 29 -16 40 -16 12
-1 -12 -5 -53 -10 -79 -9 -97 -5 -69 15 10 7 15 16 11 19 -13 14 53 6 71 -8z
m-782 -5 c-45 -11 -49 -17 -13 -25 47 -10 45 -22 -5 -30 -49 -7 -77 6 -67 31
3 10 -2 14 -18 14 -19 0 -21 2 -9 10 8 5 44 9 80 9 54 -1 59 -2 32 -9z m535 4
c-3 -3 -12 -4 -19 -1 -8 3 -5 6 6 6 11 1 17 -2 13 -5z m468 -24 c4 -6 -6 -10
-22 -10 -22 0 -25 2 -13 10 19 12 27 12 35 0z m210 0 c-3 -5 -10 -10 -16 -10
-5 0 -9 5 -9 10 0 6 7 10 16 10 8 0 12 -4 9 -10z m-1022 -17 c-7 -2 -21 -2
-30 0 -10 3 -4 5 12 5 17 0 24 -2 18 -5z m-3448 -198 l0 -190 -195 0 -195 0
-3 180 c-1 98 0 185 3 192 3 11 46 13 197 11 l193 -3 0 -190z m1198 178 c-7
-2 -19 -2 -25 0 -7 3 -2 5 12 5 14 0 19 -2 13 -5z m1603 -5 c4 -5 19 -8 32 -8
14 0 23 -3 20 -6 -8 -8 -168 7 -168 15 0 10 106 8 116 -1z m859 2 c8 -13 -15
-13 -35 0 -12 8 -11 10 7 10 12 0 25 -4 28 -10z m440 0 c25 -11 -1 -11 -35 0
-20 6 -21 8 -5 8 11 0 29 -3 40 -8z m-305 -10 c11 -7 4 -10 -25 -10 -29 0 -36
3 -25 10 8 5 20 10 25 10 6 0 17 -5 25 -10z m532 -10 c20 -4 49 -5 64 -2 20 4
25 2 19 -8 -12 -19 -255 1 -255 21 0 10 106 3 172 -11z m181 13 c-7 -2 -19 -2
-25 0 -7 3 -2 5 12 5 14 0 19 -2 13 -5z m-3013 -23 c0 -5 -4 -10 -10 -10 -5 0
-10 5 -10 10 0 6 5 10 10 10 6 0 10 -4 10 -10z m2051 -27 c4 -4 -33 -9 -84 -9
-58 -1 -92 -5 -95 -13 -2 -7 -27 -10 -65 -9 -44 1 -51 3 -24 5 37 4 38 5 22
23 -16 18 -12 18 111 15 70 -2 130 -7 135 -12z m514 -3 c11 -5 27 -11 35 -13
8 -3 3 -6 -12 -6 -15 -1 -30 4 -33 9 -3 6 -37 10 -76 10 -38 0 -69 4 -69 9 0
10 126 3 155 -9z m-425 0 c0 -5 -17 -10 -37 -9 -31 0 -34 2 -18 9 28 12 55 12
55 0z m-473 -6 c-3 -3 -12 -4 -19 -1 -8 3 -5 6 6 6 11 1 17 -2 13 -5z m-1137
-25 c11 -6 9 -8 -10 -8 -14 0 -36 6 -50 15 -25 15 -25 15 10 8 19 -3 42 -10
50 -15z m1673 14 c-7 -2 -19 -2 -25 0 -7 3 -2 5 12 5 14 0 19 -2 13 -5z m250
-10 c-13 -2 -33 -2 -45 0 -13 2 -3 4 22 4 25 0 35 -2 23 -4z m-1766 -9 c-3 -3
-12 -4 -19 -1 -8 3 -5 6 6 6 11 1 17 -2 13 -5z m1330 -11 c49 -6 48 -22 0 -24
l-32 -2 35 -7 c19 -3 68 -4 108 -2 50 3 72 1 72 -7 0 -6 10 -11 23 -11 20 -1
21 -1 4 -11 -11 -6 -33 -8 -50 -4 -18 4 -69 8 -114 9 -45 2 -88 7 -95 13 -7 5
-27 10 -45 11 -17 1 -44 9 -60 18 l-28 15 50 -2 c69 -2 85 1 55 12 -22 8 -22
8 5 3 17 -3 49 -8 72 -11z m-1337 -23 c13 -8 13 -10 -2 -10 -9 0 -20 5 -23 10
-8 13 5 13 25 0z m670 0 c12 -8 12 -10 -5 -10 -11 0 -27 5 -35 10 -12 8 -12
10 5 10 11 0 27 -5 35 -10z m-727 -7 c-7 -2 -19 -2 -25 0 -7 3 -2 5 12 5 14 0
19 -2 13 -5z m1197 -3 c13 -8 13 -10 -2 -10 -9 0 -20 5 -23 10 -8 13 5 13 25
0z m-1352 -9 c11 -7 11 -9 -1 -14 -16 -6 -27 0 -27 15 0 10 11 10 28 -1z
m1867 -1 c4 -6 -6 -10 -24 -10 -16 0 -33 5 -36 10 -4 6 6 10 24 10 16 0 33 -4
36 -10z m-1480 -80 c15 -44 30 -78 34 -76 4 3 20 39 36 81 41 106 56 100 72
-30 15 -114 11 -138 -14 -112 -11 11 -16 30 -15 55 2 21 -1 49 -6 62 -8 22
-12 16 -33 -50 -13 -40 -29 -75 -36 -78 -12 -3 -53 74 -53 101 0 7 -7 22 -15
33 -14 18 -15 17 -14 -16 1 -53 -14 -113 -30 -118 -12 -4 -13 9 -7 74 8 91 26
154 43 154 6 0 23 -36 38 -80z m-305 45 c11 -13 10 -14 -4 -9 -11 4 -16 1 -16
-11 0 -12 -5 -15 -20 -10 -15 5 -20 2 -20 -13 0 -11 7 -23 16 -26 8 -3 12 -10
9 -16 -4 -6 -10 -8 -15 -5 -4 3 -8 -12 -8 -33 0 -20 5 -40 11 -44 7 -5 1 -8
-14 -8 -23 0 -25 3 -21 30 3 24 1 30 -14 31 -15 0 -16 2 -4 7 8 4 16 20 18 36
5 43 20 66 42 66 11 0 20 5 20 10 0 14 5 13 20 -5z m2407 9 c-3 -3 -12 -4 -19
-1 -8 3 -5 6 6 6 11 1 17 -2 13 -5z m-3937 -94 c0 -53 4 -80 11 -80 8 0 10 15
7 45 -3 25 -4 45 -3 45 2 0 10 2 17 5 11 4 14 -5 14 -41 -1 -32 4 -49 13 -52
11 -4 13 4 8 37 -5 43 1 53 39 57 30 3 45 -17 42 -56 -2 -21 2 -35 11 -38 11
-4 13 5 9 41 -4 33 -1 50 8 58 12 9 14 2 14 -44 0 -35 5 -57 13 -60 6 -3 -11
-6 -38 -6 l-51 -1 4 40 c3 33 1 40 -13 40 -14 0 -16 -7 -13 -40 l4 -41 -85 3
c-84 3 -86 4 -95 31 -11 31 -2 54 30 71 27 15 34 28 24 42 -11 12 -3 24 17 24
10 0 13 -20 13 -80z m41 67 c-1 -12 -15 -9 -19 4 -3 6 1 10 8 8 6 -3 11 -8 11
-12z m149 -3 c0 -8 -4 -12 -10 -9 -5 3 -10 10 -10 16 0 5 5 9 10 9 6 0 10 -7
10 -16z m175 10 c19 -8 45 -55 46 -86 0 -15 3 -18 6 -8 13 35 73 56 73 25 0
-9 -8 -14 -22 -12 -17 1 -24 -4 -26 -22 -8 -56 52 -52 62 4 8 41 38 55 67 29
10 -9 19 -12 19 -7 0 17 31 25 46 12 8 -6 14 -26 14 -45 0 -18 5 -36 10 -39
15 -9 25 25 13 44 -8 12 -7 22 1 32 14 20 140 26 152 8 5 -9 -4 -10 -36 -5
l-43 7 5 -51 5 -50 -51 -1 c-28 0 -66 -2 -84 -3 -18 -2 -35 0 -38 5 -3 5 -14
4 -25 -2 -16 -8 -25 -7 -40 7 -18 16 -20 16 -38 0 -23 -21 -45 -13 -60 22
l-13 26 -16 -27 c-35 -57 -132 -23 -132 46 0 67 51 111 105 91z m575 -24 c-1
-22 -2 -23 -11 -7 -5 9 -17 17 -24 17 -19 0 -21 -120 -3 -138 9 -9 4 -12 -22
-12 -26 0 -31 3 -22 12 14 14 17 138 3 138 -5 0 -17 -7 -26 -16 -19 -20 -26
-15 -19 11 4 17 14 20 65 20 56 0 59 -1 59 -25z m225 -47 c0 -55 4 -78 14 -81
11 -4 13 12 10 77 -3 60 -1 81 8 81 9 0 13 -17 13 -52 0 -28 3 -48 8 -44 4 4
8 12 8 17 1 5 2 11 3 14 0 2 12 0 26 -5 15 -6 26 -6 30 0 14 23 23 7 27 -45
l3 -55 -90 0 -90 0 2 82 c1 46 2 84 3 86 0 1 6 2 13 2 8 0 12 -22 12 -77z
m145 62 c0 -8 -7 -15 -15 -15 -8 0 -15 7 -15 15 0 8 7 15 15 15 8 0 15 -7 15
-15z m-1707 -2 c-7 -2 -13 -18 -13 -34 0 -26 3 -29 35 -29 32 0 35 3 35 29 0
16 -6 32 -12 34 -7 3 3 5 22 5 19 0 29 -2 23 -5 -9 -3 -13 -28 -13 -73 0 -45
4 -70 13 -73 6 -3 -4 -5 -23 -5 -19 0 -29 2 -22 5 6 2 12 18 12 34 0 27 -3 29
-35 29 -32 0 -35 -2 -35 -29 0 -16 6 -32 13 -34 6 -3 -4 -6 -23 -6 -23 0 -30
2 -22 8 10 6 13 28 10 80 -3 70 -3 71 22 70 14 0 19 -3 13 -6z m3900 0 c-7 -2
-19 -2 -25 0 -7 3 -2 5 12 5 14 0 19 -2 13 -5z m137 -4 c0 -5 -3 -8 -7 -6 -5
3 -17 1 -28 -4 -17 -6 -16 -8 10 -9 l30 -2 -28 -10 c-20 -7 -36 -7 -50 0 -12
6 -29 13 -37 15 -8 3 -3 6 13 6 15 1 27 6 27 11 0 6 16 10 35 10 19 0 35 -5
35 -11z m-305 -15 c13 -8 45 -19 72 -24 l48 -8 -65 -2 c-36 -1 -73 -5 -83 -9
-23 -9 -177 9 -177 20 0 5 13 9 29 9 17 0 33 5 37 11 4 7 23 9 50 5 24 -3 46
-1 49 4 8 13 12 13 40 -6z m-266 -10 c10 -9 -45 -3 -59 6 -11 7 -5 8 20 4 19
-4 37 -8 39 -10z m-1701 -25 c15 -1 15 -2 0 -6 -13 -3 -18 -15 -18 -43 0 -28
5 -40 18 -43 11 -3 7 -5 -10 -6 -24 -1 -26 2 -30 50 -3 51 12 104 20 67 2 -10
11 -19 20 -19z m-1570 -22 c19 -39 -6 -80 -46 -75 -37 4 -52 47 -28 83 22 34
56 30 74 -8z m1203 23 c22 -12 27 -68 7 -88 -15 -15 -51 -15 -66 0 -17 17 -15
64 4 82 18 19 28 20 55 6z m113 -12 c20 -29 20 -47 -1 -70 -33 -36 -83 -13
-83 38 0 23 29 54 51 54 10 0 25 -10 33 -22z m460 6 c9 -8 16 -29 16 -45 0
-16 5 -29 11 -29 6 0 9 14 8 33 -4 41 4 54 33 52 25 -2 32 -30 8 -30 -8 0 -16
-10 -18 -22 -2 -13 1 -23 6 -23 6 0 12 -7 15 -14 5 -12 -7 -15 -64 -14 -59 0
-72 4 -84 21 -20 29 -19 43 5 67 24 24 43 25 64 4z m-1734 -35 c0 -33 3 -40
18 -37 21 4 29 57 10 69 -9 6 -7 9 10 9 19 0 22 -5 22 -40 0 -22 0 -43 0 -47
0 -5 -17 -8 -37 -8 -38 0 -38 0 -43 48 -4 35 -3 47 7 47 9 0 13 -14 13 -41z
m4007 35 c-3 -3 -12 -4 -19 -1 -8 3 -5 6 6 6 11 1 17 -2 13 -5z m-834 -21
c-13 -2 -33 -2 -45 0 -13 2 -3 4 22 4 25 0 35 -2 23 -4z m192 -42 c13 -22 -91
-27 -112 -5 -13 12 -7 14 46 14 33 0 62 -4 66 -9z m38 -28 c-7 -2 -21 -2 -30
0 -10 3 -4 5 12 5 17 0 24 -2 18 -5z m-1130 -20 c-7 -2 -19 -2 -25 0 -7 3 -2
5 12 5 14 0 19 -2 13 -5z m462 -23 c12 -5 -4 -6 -40 -3 -33 3 -62 7 -64 9 -9
8 85 2 104 -6z m1152 4 c-3 -3 -12 -4 -19 -1 -8 3 -5 6 6 6 11 1 17 -2 13 -5z
m-1917 -39 c14 -8 21 -14 15 -14 -5 0 -21 6 -35 14 -14 8 -20 14 -15 14 6 0
21 -6 35 -14z"/>
<path d="M4350 1670 c0 -6 7 -10 15 -10 8 0 15 2 15 4 0 2 -7 6 -15 10 -8 3
-15 1 -15 -4z"/>
<path d="M4200 1540 c-12 -8 -11 -10 8 -10 12 0 22 5 22 10 0 13 -11 13 -30 0z"/>
<path d="M4300 1033 c0 -5 11 -9 25 -9 14 -1 22 2 19 7 -6 11 -44 12 -44 2z"/>
<path d="M204 446 c-3 -8 -1 -22 4 -32 7 -13 9 -10 8 15 -1 34 -4 38 -12 17z"/>
<path d="M334 446 c-3 -8 -1 -22 4 -32 7 -13 9 -10 8 15 -1 34 -4 38 -12 17z"/>
<path d="M272 435 c0 -11 4 -31 8 -45 6 -20 8 -21 8 -5 0 11 -4 31 -8 45 -6
20 -8 21 -8 5z"/>
<path d="M345 379 c-4 -6 -5 -12 -2 -15 2 -3 7 2 10 11 7 17 1 20 -8 4z"/>
<path d="M180 309 c0 -26 -3 -30 -17 -24 -48 20 -53 18 -53 -13 0 -17 -4 -34
-10 -37 -5 -3 -10 -28 -10 -56 l0 -49 180 0 180 0 0 23 c0 12 -3 33 -7 46 -5
22 -10 23 -63 19 l-57 -4 27 23 c15 12 30 33 33 45 6 22 5 22 -8 4 -8 -10 -16
-24 -18 -30 -2 -6 -14 1 -26 17 -13 15 -29 27 -37 27 -9 0 -14 -10 -14 -27
l-1 -28 -24 30 c-63 77 -75 83 -75 34z m90 -69 l25 -26 -100 -2 c-93 -2 -98
-1 -69 12 38 17 64 51 65 86 0 25 0 25 27 -9 15 -19 38 -46 52 -61z m-121 37
c8 -10 7 -17 -1 -25 -19 -19 -28 -14 -28 13 0 27 12 32 29 12z m175 -9 c14
-20 14 -23 1 -31 -21 -11 -35 0 -35 29 0 30 14 31 34 2z"/>
<path d="M375 320 c-3 -5 0 -7 8 -4 9 3 26 -8 42 -28 l26 -33 -15 31 c-8 17
-23 34 -31 38 -22 8 -23 8 -30 -4z"/>
<path d="M916 192 c-9 -28 3 -52 26 -52 16 0 19 6 16 32 -3 37 -33 51 -42 20z"/>
<path d="M1280 251 c-24 -46 -1 -121 37 -121 20 0 43 37 43 69 0 45 -16 71
-45 71 -14 0 -29 -8 -35 -19z"/>
<path d="M1510 200 c0 -5 5 -10 10 -10 6 0 10 5 10 10 0 6 -4 10 -10 10 -5 0
-10 -4 -10 -10z"/>
<path d="M1584 197 c-4 -12 -18 -17 -45 -17 -36 0 -39 -2 -29 -20 14 -25 46
-22 77 9 17 16 21 27 14 34 -7 7 -12 5 -17 -6z"/>
<path d="M1686 203 c-3 -3 -6 -21 -6 -40 0 -23 5 -33 15 -33 10 0 15 10 15 34
0 34 -11 52 -24 39z"/>
<path d="M1590 149 c0 -5 5 -7 10 -4 6 3 10 8 10 11 0 2 -4 4 -10 4 -5 0 -10
-5 -10 -11z"/>
<path d="M2225 199 c-8 -12 13 -69 25 -69 4 0 10 12 13 28 7 38 -21 69 -38 41z"/>
<path d="M2190 145 c0 -8 7 -15 16 -15 14 0 14 3 4 15 -7 8 -14 15 -16 15 -2
0 -4 -7 -4 -15z"/>
<path d="M4258 233 c6 -2 18 -2 25 0 6 3 1 5 -13 5 -14 0 -19 -2 -12 -5z"/>
<path d="M716 195 c-10 -27 4 -66 23 -63 22 5 23 71 0 76 -9 2 -19 -4 -23 -13z"/>
<path d="M1935 191 c-9 -30 4 -63 23 -59 12 2 17 14 17 38 0 40 -29 55 -40 21z"/>
<path d="M2037 190 c-8 -31 3 -61 22 -58 11 2 16 14 16 38 0 40 -29 55 -38 20z"/>
<path d="M2504 196 c-10 -25 0 -61 18 -64 19 -4 32 29 23 58 -7 23 -33 27 -41
6z"/>
<path d="M398 2313 c7 -3 16 -2 19 1 4 3 -2 6 -13 5 -11 0 -14 -3 -6 -6z"/>
<path d="M734 2311 c5 -8 56 -3 56 5 0 2 -14 4 -31 4 -16 0 -28 -4 -25 -9z"/>
<path d="M1030 2309 c0 -5 5 -7 10 -4 6 3 10 8 10 11 0 2 -4 4 -10 4 -5 0 -10
-5 -10 -11z"/>
<path d="M1267 2314 c-3 -4 -2 -15 4 -25 12 -23 52 -25 73 -4 8 8 22 12 30 9
9 -3 16 -1 16 4 0 6 8 12 18 14 9 3 -8 4 -39 4 -37 -1 -55 -5 -52 -12 5 -14
-24 -27 -32 -14 -4 6 -3 15 0 20 7 11 -8 14 -18 4z"/>
<path d="M2458 2313 c7 -3 16 -2 19 1 4 3 -2 6 -13 5 -11 0 -14 -3 -6 -6z"/>
<path d="M2410 2290 c0 -5 7 -10 15 -10 8 0 15 5 15 10 0 6 -7 10 -15 10 -8 0
-15 -4 -15 -10z"/>
<path d="M2930 2283 l-25 -15 25 6 c14 3 39 6 55 6 23 0 27 3 15 10 -20 13
-40 11 -70 -7z"/>
<path d="M3065 2280 c-4 -6 5 -10 20 -10 14 0 34 -5 44 -12 10 -6 27 -8 37 -4
16 6 15 9 -10 21 -32 17 -82 20 -91 5z"/>
<path d="M4740 2282 c0 -4 4 -13 9 -20 7 -11 9 -11 14 1 3 9 -1 18 -9 21 -8 3
-14 2 -14 -2z"/>
<path d="M3603 2273 c9 -2 25 -2 35 0 9 3 1 5 -18 5 -19 0 -27 -2 -17 -5z"/>
<path d="M4557 2274 c-13 -13 -7 -22 17 -26 15 -3 27 0 30 8 3 8 19 14 37 14
22 0 32 -5 36 -20 3 -11 12 -20 19 -20 8 0 14 -6 14 -12 0 -9 4 -8 10 2 15 23
12 29 -10 23 -11 -3 -20 0 -20 6 0 6 5 11 10 11 6 0 10 4 10 9 0 10 -143 15
-153 5z"/>
<path d="M4130 2260 c0 -5 5 -10 11 -10 5 0 7 5 4 10 -3 6 -8 10 -11 10 -2 0
-4 -4 -4 -10z"/>
<path d="M3696 2235 c4 -9 11 -14 16 -13 15 5 11 23 -6 26 -11 2 -14 -2 -10
-13z"/>
<path d="M3870 2240 c0 -5 7 -10 15 -10 8 0 15 5 15 10 0 6 -7 10 -15 10 -8 0
-15 -4 -15 -10z"/>
<path d="M3897 2218 c-21 -36 -5 -68 33 -68 24 1 24 1 5 13 -22 13 -29 57 -9
57 21 0 25 17 6 22 -12 4 -24 -4 -35 -24z"/>
<path d="M4195 2230 c-4 -7 3 -8 22 -4 38 9 42 14 10 14 -14 0 -29 -5 -32 -10z"/>
<path d="M4445 2220 c-4 -6 9 -10 32 -10 28 0 34 3 23 10 -20 13 -47 13 -55 0z"/>
<path d="M4265 2211 c11 -5 27 -6 35 -4 10 3 10 0 -3 -10 -17 -14 -16 -16 13
-22 17 -4 34 -4 37 -1 4 3 -1 6 -11 6 -13 0 -16 5 -11 20 6 18 2 20 -37 19
-32 0 -38 -2 -23 -8z"/>
<path d="M3990 2200 c0 -6 7 -10 15 -10 8 0 15 2 15 4 0 2 -7 6 -15 10 -8 3
-15 1 -15 -4z"/>
<path d="M3668 2193 c7 -3 16 -2 19 1 4 3 -2 6 -13 5 -11 0 -14 -3 -6 -6z"/>
<path d="M3800 2190 c0 -5 10 -10 23 -10 18 0 19 2 7 10 -19 13 -30 13 -30 0z"/>
<path d="M3948 2193 c7 -3 16 -2 19 1 4 3 -2 6 -13 5 -11 0 -14 -3 -6 -6z"/>
<path d="M4145 2190 c3 -5 12 -7 20 -3 21 7 19 13 -6 13 -11 0 -18 -4 -14 -10z"/>
<path d="M4480 2190 c0 -5 5 -10 10 -10 6 0 10 5 10 10 0 6 -4 10 -10 10 -5 0
-10 -4 -10 -10z"/>
<path d="M3513 2183 c15 -2 27 -9 27 -14 0 -5 10 -9 23 -9 21 1 22 1 3 15 -11
8 -34 14 -50 14 -31 -2 -31 -2 -3 -6z"/>
<path d="M4383 2170 c1 -17 8 -20 52 -18 l50 1 -43 4 c-36 4 -42 7 -31 19 9
11 8 14 -9 14 -15 0 -20 -6 -19 -20z"/>
<path d="M4520 2182 c0 -14 24 -32 42 -32 16 0 17 3 8 20 -10 19 -50 29 -50
12z"/>
<path d="M4210 2170 c-8 -5 -25 -10 -37 -10 -13 0 -23 -4 -23 -10 0 -5 6 -10
13 -10 7 0 31 -9 52 -20 37 -19 46 -20 113 -9 58 9 78 9 97 -1 13 -7 34 -10
46 -7 13 3 29 1 36 -5 13 -11 98 -6 110 6 11 11 -6 19 -41 21 -19 1 -42 10
-51 19 -20 19 -26 20 -20 4 4 -10 -18 -13 -89 -13 -52 0 -92 3 -90 6 7 11 -47
20 -79 13 -25 -5 -29 -4 -24 10 7 19 7 19 -13 6z"/>
<path d="M4640 2170 c-12 -8 -11 -10 8 -10 12 0 22 5 22 10 0 13 -11 13 -30 0z"/>
<path d="M4078 2128 c9 -9 15 -9 24 0 9 9 7 12 -12 12 -19 0 -21 -3 -12 -12z"/>
<path d="M4158 2093 c7 -3 16 -2 19 1 4 3 -2 6 -13 5 -11 0 -14 -3 -6 -6z"/>
<path d="M4269 2069 c-10 -20 -9 -21 12 -16 13 4 30 7 38 7 11 0 11 3 1 15
-18 21 -37 19 -51 -6z"/>
<path d="M3888 2043 c6 -2 18 -2 25 0 6 3 1 5 -13 5 -14 0 -19 -2 -12 -5z"/>
<path d="M3975 2040 c-3 -5 1 -10 10 -10 9 0 13 5 10 10 -3 6 -8 10 -10 10 -2
0 -7 -4 -10 -10z"/>
<path d="M3707 309 c7 -7 15 -10 18 -7 3 3 -2 9 -12 12 -14 6 -15 5 -6 -5z"/>
<path d="M3057 235 l-16 -45 35 0 c32 0 35 2 28 23 -13 41 -23 67 -28 67 -2 0
-11 -20 -19 -45z"/>
<path d="M3428 238 c-8 -7 -18 -21 -21 -30 -5 -15 0 -18 28 -18 38 0 40 4 22
38 -11 19 -15 20 -29 10z"/>
<path d="M3680 242 c0 -4 7 -15 14 -25 10 -13 11 -28 5 -59 -13 -54 -7 -56 18
-6 20 39 21 43 5 64 -17 24 -42 39 -42 26z"/>
<path d="M3760 226 c0 -13 -3 -31 -6 -39 -3 -10 3 -16 20 -19 30 -6 31 0 12
47 -17 41 -26 45 -26 11z"/>
<path d="M3595 230 c3 -5 15 -10 26 -10 11 0 17 5 14 10 -3 6 -15 10 -26 10
-11 0 -17 -4 -14 -10z"/>
<path d="M3733 125 c-7 -20 -3 -23 35 -31 36 -7 47 14 12 23 -11 3 -17 9 -14
14 3 5 -2 9 -11 9 -8 0 -18 -7 -22 -15z"/>
<path d="M4003 123 c9 -2 23 -2 30 0 6 3 -1 5 -18 5 -16 0 -22 -2 -12 -5z"/>
<path d="M3792 53 c-4 -6 -18 -13 -32 -16 -14 -3 2 -3 35 0 76 8 137 5 149 -7
13 -13 77 -13 96 0 11 7 2 10 -31 10 -25 0 -60 7 -77 15 -35 18 -130 17 -140
-2z"/>
</g>
</svg>
