<svg id="Layer_1" data-name="Layer 1" xmlns="http://www.w3.org/2000/svg" viewBox="0 0 800 799"><defs><style>.cls-1{fill:#00a1dd;}</style></defs><title>hp</title><path class="cls-1" d="M400,792c-3.90281,0-7.78761-.0713-11.66411-.1816l80.2129-220.4512h110.3907c19.37689,0,40.64639-14.8955,47.27139-33.0938l87.0254-239.0351c14.2364-39.1348-8.1797-71.1543-49.8222-71.1543H510.26759L381.77,581.1816h-.04831L308.876,781.3457C136.0518,740.2539,7.50049,584.8975,7.50049,399.501c0-180.0508,121.23921-331.7705,286.5293-378.0117L218.86329,228.084h-.0215L93.8853,571.3672l83.185.0068L283.33839,279.6689h62.5171L239.58639,571.374l83.1529.0137,99.0302-272.1494c14.2461-39.1348-8.1718-71.1543-49.7754-71.1543h-69.9253L382.35939,7.41211C388.21089,7.15332,394.08739,7,400,7,616.77338,7,792.5,182.7275,792.5,399.501,792.5,616.2695,616.77338,792,400,792ZM637.48438,279.459H574.98629l-87.5254,240.1484h62.5Z"/><path class="cls-1" d="M710.80268,733.5566a25.86829,25.86829,0,1,1,25.8692,25.8018A25.6501,25.6501,0,0,1,710.80268,733.5566Zm4.2032,0a21.66509,21.66509,0,1,0,21.666-21.6025A21.59265,21.59265,0,0,0,715.00588,733.5566Zm33.4824,14.7002h-4.791l-7.418-13.3867h-5.3887v13.3867h-4.1992V719.2402h12.2129c5.25,0,9.9785,1.5723,9.9785,7.6836,0,5.71-3.875,7.8076-7.748,7.9463Zm-17.5977-24.8144v7.2256h4.4688c3.9355,0,9.3242.6533,9.3242-3.2793,0-3.6807-3.0898-3.9463-6.5703-3.9463Z"/></svg>