<?xml version="1.0" standalone="no"?>
<!DOCTYPE svg PUBLIC "-//W3C//DTD SVG 20010904//EN"
 "http://www.w3.org/TR/2001/REC-SVG-20010904/DTD/svg10.dtd">
<svg version="1.0" xmlns="http://www.w3.org/2000/svg"
 width="135.000000pt" height="135.000000pt" viewBox="0 0 135.000000 135.000000"
 preserveAspectRatio="xMidYMid meet">
<metadata>
Created by potrace 1.15, written by Peter Selinger 2001-2017
</metadata>
<g transform="translate(0.000000,135.000000) scale(0.100000,-0.100000)"
fill="#000000" stroke="none">
<path d="M1020 979 c-222 -54 -473 -71 -627 -43 -182 32 -213 37 -218 32 -3
-3 -1 -17 5 -32 15 -39 13 -153 -2 -159 -10 -4 -10 -7 -1 -14 8 -6 9 -20 3
-48 -5 -22 -7 -41 -5 -43 2 -2 27 1 57 7 l53 10 -48 -2 -48 -2 6 35 c4 19 8
36 9 38 2 1 45 -2 97 -8 267 -28 500 8 676 105 35 19 65 35 67 35 2 0 1 -10
-1 -22 -2 -13 3 -52 11 -87 l15 -63 -31 6 c-17 3 -76 8 -132 11 l-101 4 116
-13 c64 -8 126 -19 137 -25 30 -16 33 -3 17 65 -15 63 -19 136 -8 148 7 7 34
79 30 81 -1 1 -36 -7 -77 -16z m50 -24 c0 -44 -135 -119 -277 -156 -98 -25
-107 -25 -93 1 22 40 -27 83 -70 60 -11 -6 -20 -17 -20 -26 0 -12 4 -12 26 3
25 16 27 16 40 -1 7 -10 10 -24 7 -32 -6 -17 -44 -18 -62 -1 -11 10 -11 8 -2
-11 l12 -22 -213 2 -213 3 -1 55 c0 30 -4 71 -8 91 l-8 37 89 -19 c178 -39
446 -35 668 10 115 24 125 24 125 6z"/>
<path d="M644 725 c27 -71 38 -135 34 -206 -2 -43 -1 -79 2 -79 3 0 16 7 29
16 20 14 22 22 17 68 -4 35 -3 45 3 31 5 -11 10 -38 10 -59 l1 -40 29 28 29
28 -44 91 c-24 50 -44 101 -44 114 0 20 -5 23 -36 23 -28 0 -35 -3 -30 -15z"/>
</g>
</svg>
