<svg width="80" height="53" xmlns="http://www.w3.org/2000/svg"><g fill="#0071C5"><path d="M78.676 15.258C74.98-2.79 39.938-3.934 17.352 9.816v1.52C39.914-.266 71.918-.191 74.832 16.43c.977 5.5-2.121 11.23-7.656 14.53v4.313c6.656-2.441 13.484-10.34 11.5-20.015M37.62 46.848c-15.58 1.437-31.823-.828-34.1-13.004-1.114-6.004 1.625-12.371 5.253-16.328v-2.114C2.238 21.132-1.305 28.387.738 36.953c2.606 10.992 16.543 17.215 37.82 15.149 8.422-.817 19.438-3.528 27.102-7.735v-5.976c-6.957 4.144-18.457 7.57-28.039 8.457"/><path d="M64.398 12.633h-4.085v18.195c0 2.133 1.03 3.988 4.085 4.285v-22.48zm-48.652 6.644h-4.094l-.004 11.887c0 2.14 1.036 3.992 4.098 4.285V19.277zm-4.094-2.218h4.082v-3.875h-4.082zm28.563 18.203c-3.305 0-4.703-2.301-4.703-4.567V14.91h4.047v4.363h3.05v3.274h-3.05v7.898c0 .926.437 1.438 1.402 1.438h1.648v3.379h-2.394M50.96 22.355c-1.386 0-2.448.715-2.901 1.676-.262.578-.36 1.031-.387 1.742h6.238c-.078-1.742-.867-3.418-2.95-3.418m-3.288 6.18c0 2.07 1.293 3.598 3.586 3.598 1.797 0 2.683-.5 3.722-1.528l2.504 2.387c-1.605 1.586-3.289 2.547-6.254 2.547-3.878 0-7.59-2.113-7.59-8.281 0-5.274 3.247-8.254 7.5-8.254 4.325 0 6.81 3.488 6.81 8.07v1.461H47.671m-20.925-5.988c1.188 0 1.684.586 1.684 1.539v11.2h4.05V24.061c0-2.273-1.21-4.78-4.77-4.78l-8.366-.005v16.008h4.05V22.547h3.352z"/></g></svg>