<?xml version="1.0" encoding="UTF-8" standalone="no"?>
<svg
   xml:space="preserve"
   id="root"
   viewBox="-1188 0 2855.0208 1089.0489"
   height="189.07098"
   width="495.66333"
   preserveAspectRatio="none"
   y="0.00000000"
   x="0.00000000"
   version="1.0"
   sodipodi:docname="io_blender_mltx.svg"
   inkscape:version="1.4.3 (0d15f75, 2025-12-25)"
   xmlns:inkscape="http://www.inkscape.org/namespaces/inkscape"
   xmlns:sodipodi="http://sodipodi.sourceforge.net/DTD/sodipodi-0.dtd"
   xmlns="http://www.w3.org/2000/svg"
   xmlns:svg="http://www.w3.org/2000/svg"><defs
   id="defs1" /><sodipodi:namedview
   id="namedview1"
   pagecolor="#ffffff"
   bordercolor="#000000"
   borderopacity="0.25"
   inkscape:showpageshadow="2"
   inkscape:pageopacity="0.0"
   inkscape:pagecheckerboard="0"
   inkscape:deskcolor="#d1d1d1"
   inkscape:zoom="0.37"
   inkscape:cx="-208.10811"
   inkscape:cy="163.51351"
   inkscape:current-layer="root" />
  
  <path
   id="path45"
   style="fill:#000000;fill-rule:nonzero;stroke:none"
   d="m 1545.1245,561.44978 h 7.2697 c 0,14.92872 5.9715,28.29966 15.7076,38.03579 9.7361,9.73612 23.1071,15.70761 38.0358,15.70761 14.7989,0 28.2997,-5.97149 38.0358,-15.70761 9.7361,-9.73613 15.7076,-23.10707 15.7076,-38.03579 h 7.1398 c 0,33.75189 -27.2611,61.01304 -60.8832,61.01304 v -3.63482 3.63482 c -33.6221,0 -60.8832,-27.26115 -61.0131,-61.01304 m 114.7565,0 c 0,-14.79891 -5.9715,-28.29967 -15.7076,-37.90598 -9.7361,-9.73612 -23.2369,-15.83742 -38.0358,-15.83742 v -7.13983 c 33.6221,0 60.8832,27.26115 60.8832,60.88323 h -7.1398 m -53.7434,-57.24841 v -3.63482 3.63482 m -61.0131,57.24841 c 0.1299,-33.62208 27.391,-60.88323 61.0131,-60.88323 v 7.13983 c -14.9287,0 -28.2997,6.1013 -38.0358,15.83742 -9.7361,9.60631 -15.7076,23.10707 -15.7076,37.90598 h -7.2697" />
  <path
   id="path47"
   style="fill:#000000;fill-rule:nonzero;stroke:none"
   d="M -265.27514,189.65968 H -158.3076 V 597.66816 H -265.27514 Z" />
  <path
   id="path49"
   style="fill:#000000;fill-rule:nonzero;stroke:none"
   d="m 1299.7742,423.71608 v 172.3943 l -107.6166,-0.38945 v -418.6533 l 193.8138,166.81224 V 189.65968 h 106.7079 V 612.72669 L 1299.7742,423.71608" />
  <path
   id="path51"
   style="fill:#000000;fill-rule:nonzero;stroke:none"
   d="m -803.22842,392.56049 c 0,-115.79496 93.98605,-209.78101 209.78101,-209.78101 52.18562,0 99.95753,19.21262 136.69517,50.75766 l -69.3212,78.66788 c -18.17409,-15.31817 -41.6706,-24.53503 -67.37397,-24.53503 -57.89748,0 -104.8905,46.99302 -104.8905,104.8905 0,57.89748 46.99302,104.8905 104.8905,104.8905 26.09281,0 49.97877,-9.60631 68.41249,-25.44373 l 69.19139,78.79769 c -36.73764,32.0643 -84.899,51.40673 -137.60388,51.40673 -115.79496,0 -209.78101,-93.85623 -209.78101,-209.65119" />
  <path
   id="path53"
   style="fill:#000000;fill-rule:nonzero;stroke:none"
   d="M 45.3721,691.00513 -157.00945,153.31148 H -326.15837 V 599.22594 H -436.89055 V 153.31148 H -681.98123 L -625.12226,46.214132 H -77.95213 L 45.3721,368.4149 168.82614,46.214132 H 698.60107 L 757.01781,153.31148 H 247.88347 L 45.3721,691.00513" />
  <path
   id="path55"
   style="fill:#000000;fill-rule:nonzero;stroke:none"
   d="m 387.30475,596.11038 v -90.0916 h 73.47528 c 11.94298,0 34.6606,-0.9087 40.37246,-19.86169 11.81316,-39.46375 -109.1744,-103.46254 -109.1744,-201.60266 0,-74.25416 53.7434,-96.45252 90.22141,-96.45252 h 111.38125 v 88.5338 h -68.80193 c 0,0 -19.73188,0 -25.18411,7.91872 -29.85745,42.70913 110.60236,105.15013 110.60236,219.90657 0,59.97452 -51.40673,91.64938 -102.68365,91.64938 H 387.30475" />
  <path
   id="path57"
   style="fill:#000000;fill-rule:nonzero;stroke:none"
   d="M 249.44125,188.1019 H 356.5386 V 596.11038 H 249.44125 Z" />
  <path
   id="path59"
   style="fill:#000000;fill-rule:nonzero;stroke:none"
   d="M 627.59228,188.1019 H 734.68964 V 596.11038 H 627.59228 Z" />
  <path
   id="path61"
   style="fill:#000000;fill-rule:nonzero;stroke:none"
   d="m 1621.975,592.60537 c -1.8174,-4.28389 -1.5578,-10.77464 -2.3367,-16.22687 -1.0385,-7.13982 -3.7646,-10.25538 -11.2939,-10.25538 h -14.9287 v 26.48225 h -14.7989 v -67.76342 h 36.478 c 12.2026,0 19.8617,8.43799 19.8617,18.69336 0,8.04853 -3.2454,14.02003 -10.7746,17.00576 v 0.25963 c 7.3994,1.81741 9.4765,8.95724 9.8659,15.83744 0.3895,4.28389 0.2596,12.20261 2.8559,15.96723 h -14.9287 m -28.5593,-36.99726 h 16.3567 c 6.6206,0 10.2554,-2.85593 10.2554,-9.73613 0,-6.49075 -3.6348,-9.34668 -10.2554,-9.34668 h -16.3567 v 19.08281" />
  <path
   id="path63"
   style="fill:#000000;fill-rule:nonzero;stroke:none"
   d="m -884.49259,597.66816 -28.42948,-75.94177 h -132.80073 l -28.4295,75.94177 H -1188 L -979.25753,0 -770.51504,597.66816 H -884.49259 M -1013.269,412.68181 h 63.21984 l -31.67485,-104.37124 -31.54499,104.37124" />
  <path
   id="path65"
   style="fill:#000000;fill-rule:nonzero;stroke:none"
   d="m 754.16188,392.43067 c 0,-115.92477 94.11586,-210.04062 210.17045,-210.04062 115.92477,0 210.04067,94.11585 210.04067,210.04062 0,116.0546 -94.1159,210.17045 -210.04067,210.17045 -116.05459,0 -210.17045,-94.11585 -210.17045,-210.17045 m 105.79921,0 c 0,57.63786 46.73339,104.37126 104.37124,104.37126 57.50807,0 104.24147,-46.73339 104.24147,-104.37126 0,-57.50803 -46.7334,-104.24142 -104.24147,-104.24142 -57.63785,0 -104.37124,46.73339 -104.37124,104.24142" />
<g
   id="text1"
   style="opacity:1"
   transform="matrix(2.2890116,0,0,2.2890116,1580.9975,-916.79346)"><path
     style="font-size:107.52px;font-family:Sans;-inkscape-font-specification:'Sans, Normal';baseline-shift:baseline;display:inline;overflow:visible;vector-effect:none;enable-background:accumulate;stop-color:#000000;stop-opacity:1"
     d="m -1025.397,871.78375 h -30.87 v -7.98 h 10.2375 v -62.2125 h -10.2375 v -7.98 h 30.87 v 7.98 h -10.2375 v 62.2125 h 10.2375 z m 75.96752,-69.195 q 4.7775,5.25 7.2975,12.8625 2.5725,7.6125 2.5725,17.2725 0,9.66 -2.625,17.325 -2.5725,7.6125 -7.245,12.705 -4.83,5.3025 -11.445,7.98 -6.5625,2.6775 -15.015,2.6775 -8.2425,0 -15.015,-2.73 -6.72,-2.73 -11.44502,-7.9275 -4.725,-5.1975 -7.2975,-12.7575 -2.52,-7.56 -2.52,-17.2725 0,-9.555 2.52,-17.115 2.52,-7.6125 7.35,-13.02 4.62002,-5.145 11.44502,-7.875 6.8775,-2.73 14.9625,-2.73 8.4,0 15.0675,2.7825 6.72,2.73 11.3925,7.8225 z m -0.945,30.135 q 0,-15.225 -6.825,-23.4675 -6.825,-8.295 -18.6375,-8.295 -11.9175,0 -18.7425,8.295 -6.77252,8.2425 -6.77252,23.4675 0,15.3825 6.93002,23.5725 6.93,8.1375 18.585,8.1375 11.655,0 18.5325,-8.1375 6.93,-8.19 6.93,-23.5725 z m 124.0575,15.015 q 0,5.8275 -2.205,10.29 -2.205,4.4625 -5.9325,7.35 -4.41,3.465 -9.7125,4.935 -5.25,1.47 -13.3875,1.47 h -27.72 v -78.1725 h 23.1525 q 8.5575,0 12.81,0.63 4.2525,0.63 8.1375,2.625 4.305,2.2575 6.2475,5.8275 1.9425,3.5175 1.9425,8.4525 0,5.565 -2.835,9.5025 -2.835,3.885 -7.56,6.2475 v 0.42 q 7.9275,1.6275 12.495,6.9825 4.5675,5.3025 4.5675,13.44 z m -17.4825,-35.2275 q 0,-2.835 -0.945,-4.7775 -0.945,-1.9425 -3.045,-3.15 -2.4675,-1.4175 -5.985,-1.7325 -3.5175,-0.3675 -8.715,-0.3675 h -12.39 v 22.575 h 13.44 q 4.8825,0 7.77,-0.4725 2.8875,-0.525 5.355,-2.1 2.4675,-1.575 3.465,-4.0425 1.05,-2.52 1.05,-5.9325 z m 6.6675,35.6475 q 0,-4.725 -1.4175,-7.5075 -1.4175,-2.7825 -5.145,-4.725 -2.52,-1.3125 -6.1425,-1.68 -3.57,-0.42 -8.715,-0.42 h -16.3275 v 29.085 h 13.755 q 6.825,0 11.1825,-0.6825 4.3575,-0.735 7.14,-2.625 2.94,-2.0475 4.305,-4.6725 1.365,-2.625 1.365,-6.7725 z m 34.755,23.625 h -9.87 v -81.69 h 9.87 z m 68.6175,-28.2975 h -43.2075 q 0,5.4075 1.6275,9.45 1.6275,3.99 4.4625,6.5625 2.73,2.52 6.4575,3.78 3.78,1.26 8.295,1.26 5.985,0 12.0225,-2.3625 6.09,-2.415 8.6625,-4.725 h 0.525 v 10.7625 q -4.9875,2.1 -10.185,3.5175 -5.1975,1.4175 -10.92,1.4175 -14.595,0 -22.785,-7.875 -8.19,-7.9275 -8.19,-22.47 0,-14.385 7.8225,-22.8375 7.875,-8.4525 20.685,-8.4525 11.865,0 18.27,6.93 6.4575,6.93 6.4575,19.6875 z m -9.6075,-7.56 q -0.0525,-7.77 -3.9375,-12.0225 -3.8325,-4.2525 -11.7075,-4.2525 -7.9275,0 -12.6525,4.6725 -4.6725,4.6725 -5.3025,11.6025 z m 73.60499,35.8575 h -9.87 v -33.39 q 0,-4.0425 -0.4725,-7.56 -0.4725,-3.57 -1.7325,-5.565 -1.3125,-2.205 -3.78,-3.255 -2.4675,-1.1025 -6.405,-1.1025 -4.0425,0 -8.4525,1.995 -4.41,1.995 -8.4525,5.0925 v 43.785 h -9.87 v -58.6425 h 9.87 v 6.51 q 4.62,-3.8325 9.555,-5.985 4.935,-2.1525 10.1325,-2.1525 9.5025,0 14.49,5.7225 4.9875,5.7225 4.9875,16.485 z m 66.57001,0 h -9.87 v -6.1425 q -4.2525,3.675 -8.8725,5.7225 -4.62,2.0475 -10.0275,2.0475 -10.5,0 -16.695,-8.085 -6.1425,-8.085 -6.1425,-22.4175 0,-7.455 2.1,-13.2825 2.1525,-5.8275 5.775,-9.9225 3.57,-3.99 8.295,-6.09 4.7775,-2.1 9.87,-2.1 4.62,0 8.19,0.9975 3.57,0.945 7.5075,2.9925 v -25.41 h 9.87 z m -9.87,-14.4375 v -33.6525 q -3.99,-1.785 -7.14,-2.4675 -3.15,-0.6825 -6.8775,-0.6825 -8.295,0 -12.915,5.775 -4.62,5.775 -4.62,16.38 0,10.4475 3.57,15.9075 3.57,5.4075 11.445,5.4075 4.2,0 8.505,-1.8375 4.305,-1.89 8.0325,-4.83 z m 78.38249,-13.86 h -43.2075 q 0,5.4075 1.6275,9.45 1.6275,3.99 4.4625,6.5625 2.73,2.52 6.4575,3.78 3.78,1.26 8.295,1.26 5.985,0 12.0225,-2.3625 6.09,-2.415 8.6625,-4.725 h 0.525 v 10.7625 q -4.9875,2.1 -10.185,3.5175 -5.1975,1.4175 -10.92,1.4175 -14.595,0 -22.785,-7.875 -8.19,-7.9275 -8.19,-22.47 0,-14.385 7.8225,-22.8375 7.875,-8.4525 20.685,-8.4525 11.865,0 18.27,6.93 6.4575,6.93 6.4575,19.6875 z m -9.6075,-7.56 q -0.0525,-7.77 -3.9375,-12.0225 -3.8325,-4.2525 -11.7075,-4.2525 -7.9275,0 -12.6525,4.6725 -4.6725,4.6725 -5.3025,11.6025 z m 61.16248,-12.0225 h -0.525 q -2.205,-0.525 -4.305,-0.735 -2.0475,-0.2625 -4.8825,-0.2625 -4.5675,0 -8.82,2.0475 -4.2525,1.995 -8.19,5.1975 v 41.6325 h -9.86999 v -58.6425 h 9.86999 v 8.6625 q 5.88,-4.725 10.3425,-6.6675 4.515,-1.995 9.1875,-1.995 2.5725,0 3.7275,0.1575 1.155,0.105 3.465,0.4725 z m 117.495,47.88 h -10.395 v -67.3575 l -21.735,45.8325 h -6.195 l -21.5775,-45.8325 v 67.3575 h -9.7125 v -78.1725 h 14.175 l 20.8425,43.5225 20.16,-43.5225 h 14.4375 z m 76.75499,-68.9325 h -27.93 v 68.9325 h -10.395 v -68.9325 h -27.93 v -9.24 h 66.255 z m 59.95501,68.9325 h -49.455 v -78.1725 h 10.395 v 68.9325 h 39.06 z m 70.03503,-78.1725 -26.985,38.64 26.9325,39.5325 h -12.0225 l -21.315,-32.1825 -21.84,32.1825 h -11.34 l 27.2475,-39.06 -26.6175,-39.1125 h 11.97 l 21.0525,31.7625 21.525,-31.7625 z"
     id="path1" /><path
     style="font-size:107.52px;font-family:Sans;-inkscape-font-specification:'Sans, Normal';baseline-shift:baseline;display:inline;overflow:visible;vector-effect:none;enable-background:accumulate;stop-color:#000000;stop-opacity:1"
     d="m -815.12695,787.21289 v 87.45117 h 15.63086 v -87.45117 z m 199.18554,0 v 24.0625 c -1.28778,-0.50685 -2.61522,-1.20817 -3.86914,-1.54102 -2.68622,-0.74877 -5.66804,-1.10156 -8.94922,-1.10156 -3.79087,0 -7.49919,0.79206 -11.02929,2.34375 l -0.004,0.004 -0.006,0.002 c -3.52261,1.56561 -6.6379,3.85736 -9.27148,6.80078 l -0.006,0.006 -0.006,0.006 c -2.67664,3.02577 -4.77739,6.66208 -6.31836,10.83399 l -0.004,0.01 -0.004,0.0117 c -1.5328,4.2535 -2.27149,9.01739 -2.27149,14.25781 0,9.96643 2.1376,18.11741 6.72852,24.16016 l 0.004,0.004 0.004,0.006 c 4.60778,6.01355 11.24127,9.2129 18.98047,9.2129 3.96849,0 7.73478,-0.76128 11.19531,-2.29493 1.64931,-0.73094 3.25726,-1.60783 4.82617,-2.61328 v 3.28125 h 15.62891 v -87.45117 z m -359.94726,1.89063 c -5.71416,0 -11.0807,0.97081 -16.02539,2.93359 l -0.004,0.002 h -0.004 c -4.9212,1.96848 -9.13574,4.85886 -12.51764,8.625 v 0.004 0.002 c -3.5002,3.91872 -6.1451,8.62687 -7.9336,14.02735 -4e-4,10e-4 4e-4,0.003 0,0.004 -3e-4,8.4e-4 0,10e-4 0,0.002 -1.7938,5.38388 -2.666,11.40062 -2.666,18.02149 0,6.72408 0.871,12.79063 2.668,18.18164 v 0.01 0.008 c 1.8233,5.35852 4.45,9.9808 7.8925,13.76758 3.4383,3.78213 7.63984,6.68692 12.49223,8.6582 l 0.004,0.002 h 0.004 c 4.89076,1.97147 10.27884,2.93946 16.0918,2.93946 5.9391,0 11.32612,-0.94225 16.10156,-2.89063 4.79418,-1.94163 8.98967,-4.86831 12.48633,-8.70703 3.41711,-3.7265 6.02295,-8.33458 7.84375,-13.72266 1.86763,-5.45805 2.77734,-11.54968 2.77734,-18.24609 0,-6.69189 -0.89145,-12.76284 -2.72265,-18.18555 -1.78851,-5.39931 -4.41662,-10.06464 -7.89649,-13.88867 l -0.004,-0.004 -0.004,-0.004 c -3.4022,-3.70802 -7.57927,-6.56797 -12.41406,-8.53516 -4.83986,-2.0185 -10.25294,-3.0039 -16.16797,-3.0039 z m -83.25783,1.62695 v 13.74023 h 10.2363 v 56.45313 h -10.2363 v 13.74023 h 36.6289 v -13.74023 h -10.2363 V 804.4707 h 10.2363 v -13.74023 z m 170.9922,0 v 83.93359 h 30.59961 c 5.59498,0 10.28558,-0.49144 14.15625,-1.57422 3.89657,-1.08023 7.4945,-2.9109 10.71875,-5.44336 2.82986,-2.19515 5.09634,-5.01487 6.74024,-8.34179 1.69056,-3.42137 2.50195,-7.31817 2.50195,-11.56641 0,-5.96384 -1.74517,-11.23139 -5.26562,-15.31836 -2.28551,-2.67615 -5.197,-4.67683 -8.5293,-6.11523 1.41088,-1.17536 2.66999,-2.49236 3.74023,-3.95899 l 0.004,-0.006 0.006,-0.008 c 2.26592,-3.14712 3.3789,-6.98649 3.3789,-11.18555 0,-3.66557 -0.73227,-6.99706 -2.30078,-9.83984 -1.60052,-2.93559 -4.17245,-5.28013 -7.43359,-6.99023 l -0.01,-0.006 -0.0117,-0.006 c -2.86027,-1.46879 -5.88608,-2.44616 -9.03125,-2.91211 -3.11204,-0.46104 -7.4548,-0.66211 -13.23047,-0.66211 z m 450.0293,0 v 83.93359 h 15.47266 v -57.36133 l 16.87109,35.83594 h 9.84375 l 17.0332,-35.91797 v 57.44336 h 16.1543 v -83.93359 h -19.15625 l -18.36328,39.64453 -18.98633,-39.64453 z m 80.11523,0 v 15 h 27.92969 v 68.93359 h 16.15625 v -68.93359 h 27.92969 v -15 z m 76.75586,0 v 83.93359 h 50.2793 4.93555 13.45117 l 20.28516,-29.89062 19.79687,29.89062 h 19.01563 l -28.88086,-42.39258 29.00976,-41.54101 h -18.44336 l -19.9707,29.4707 -19.5332,-29.4707 h -18.95899 l 28.5625,41.97265 -24.33398,34.88477 v -7.92383 h -39.06055 v -68.93359 z m -528.11328,2.24414 h 4.10938 v 75.92969 h -4.10938 z m 199.18555,0 h 4.10937 v 75.92969 h -4.10937 v -9.5586 l -4.76367,4.11719 c -2.64481,2.28564 -5.36054,4.02857 -8.15625,5.26758 -2.69947,1.19636 -5.61983,1.80078 -8.86133,1.80078 -6.25621,0 -10.74961,-2.18808 -14.40039,-6.94727 l -0.002,-0.004 c -3.59746,-4.73711 -5.55469,-11.53046 -5.55469,-20.67188 0,-4.6956 0.66262,-8.78042 1.92773,-12.29492 1.32621,-3.58626 3.06904,-6.55923 5.21485,-8.98828 2.12641,-2.37658 4.54096,-4.14451 7.31836,-5.37891 2.8361,-1.24485 5.70419,-1.85156 8.69921,-1.85156 2.87273,0 5.34613,0.31228 7.41602,0.89063 l 0.0176,0.006 0.0195,0.004 c 2.1358,0.56536 4.4462,1.47937 6.91602,2.76367 l 4.20898,2.18946 z m -365.70703,1.88867 c 5.282,0 9.90874,0.8711 13.95703,2.56055 l 0.0137,0.006 0.0117,0.004 c 4.11438,1.67147 7.52737,4.0216 10.34961,7.09571 2.88742,3.17359 5.1203,7.08011 6.69141,11.82617 l 0.002,0.01 0.002,0.008 c 1.59672,4.72497 2.42188,10.16721 2.42188,16.35156 0,6.17913 -0.8389,11.63146 -2.46875,16.39062 l -0.002,0.006 -0.002,0.006 c -1.60805,4.75852 -3.82897,8.61743 -6.63867,11.67969 l -0.004,0.004 -0.004,0.004 c -2.94174,3.22952 -6.37341,5.62162 -10.39649,7.25 l -0.004,0.002 h -0.004 c -3.97456,1.62162 -8.59488,2.46484 -13.92578,2.46484 -5.17633,0 -9.7987,-0.85341 -13.9375,-2.52148 h -0.002 c -4.10391,-1.66855 -7.53086,-4.04763 -10.39057,-7.19336 -2.8558,-3.14129 -5.0909,-7.0227 -6.6973,-11.74024 -1.5611,-4.68696 -2.3711,-10.12961 -2.3711,-16.35156 0,-6.11681 0.8081,-11.5104 2.373,-16.20508 v -0.002 -0.004 c 1.5711,-4.74604 3.8241,-8.71447 6.7617,-12.0039 6e-4,-6.7e-4 0,-10e-4 0,-0.002 2.77581,-3.08936 6.18599,-5.44692 10.35933,-7.11719 l 0.006,-0.002 c 4.22376,-1.67573 8.83095,-2.52539 13.89453,-2.52539 z m -77.49803,1.62891 h 25.1094 v 2.21875 h -10.2364 v 67.97265 h 10.2364 v 2.22071 h -25.1094 v -2.22071 h 10.2363 v -67.97265 h -10.2363 z m 170.99217,0 h 20.27344 c 5.63432,0 9.82875,0.2187 12.38672,0.59765 2.52077,0.37345 4.91615,1.14602 7.23242,2.33399 2.46775,1.29639 4.05666,2.83022 5.04492,4.64648 l 0.004,0.008 0.006,0.008 c 1.01947,1.84605 1.58204,4.14842 1.58204,7.06054 0,3.21552 -0.77611,5.70794 -2.28516,7.8086 -1.60438,2.19707 -3.72818,3.97053 -6.51758,5.36523 l -1.5918,0.79688 v 4.54883 l 2.30079,0.4707 c 4.78219,0.98177 8.27819,2.97756 10.88281,6.03125 l 0.006,0.006 0.004,0.004 c 2.56955,2.98304 3.86914,6.67439 3.86914,11.56055 0,3.52176 -0.65681,6.487 -1.90625,9.01563 -1.29377,2.61834 -2.98071,4.69415 -5.11523,6.34765 l -0.008,0.006 -0.008,0.006 c -2.65465,2.08579 -5.52948,3.5465 -8.70118,4.42578 h -0.004 l -0.004,0.002 c -3.12796,0.87582 -7.35975,1.36328 -12.61133,1.36328 h -24.83984 z m 450.0293,0 h 9.48242 l 22.69922,47.40039 21.95703,-47.40039 h 9.71679 v 72.41211 h -4.63476 v -64.47852 l -5.48242,-1.23437 -20.95508,44.1875 h -2.54492 l -20.79883,-44.17969 -5.48633,1.22656 v 64.47852 h -3.95312 z m 80.11523,0 h 60.49609 v 3.47851 h -27.92968 v 68.9336 h -4.63672 V 799.9707 H -352.25 Z m 76.75586,0 h 4.63477 v 68.93164 h 39.06054 v 3.48047 h -43.69531 z m 56.11523,0 h 4.97852 l 22.57227,34.05468 23.07812,-34.05468 h 4.3418 l -24.95899,35.73828 24.98438,36.67383 h -5.0293 l -22.83398,-34.47461 -23.39453,34.47461 h -4.29297 l 25.22461,-36.16016 z m -756.45898,1.58984 c -8.61319,0 -15.89228,3.17864 -20.96484,9.34375 l -0.002,0.002 c -5.06717,6.16704 -7.42767,14.71984 -7.42767,25.29688 0,10.68749 2.417,19.29291 7.61127,25.43164 l 0.004,0.004 0.002,0.004 c 5.13672,6.03176 12.33707,9.15039 20.77734,9.15039 8.44027,0 15.62969,-3.12062 20.73242,-9.1582 5.19431,-6.13873 7.61133,-14.74415 7.61133,-25.43164 0,-10.58035 -2.38079,-19.13877 -7.48633,-25.30469 -5.0677,-6.15522 -12.31132,-9.33789 -20.85742,-9.33789 z m 98.07812,1.52149 v 28.33593 h 16.32032 c 3.3479,0 6.05407,-0.15494 8.23437,-0.51172 l 0.0254,-0.004 0.0254,-0.004 c 2.28165,-0.41484 4.43655,-1.25982 6.38868,-2.50586 2.06749,-1.31967 3.68257,-3.17209 4.57812,-5.3789 0.87326,-2.10236 1.26758,-4.459 1.26758,-7.02344 0,-2.21 -0.36326,-4.24648 -1.23438,-6.03711 -0.89443,-1.83856 -2.38251,-3.34212 -4.19922,-4.38672 v -0.002 h -0.002 c -2.07342,-1.19112 -4.48526,-1.8614 -7.14648,-2.10157 -2.48627,-0.25861 -5.46613,-0.38085 -8.98828,-0.38085 z m -98.07812,4.23828 c 7.20087,0 12.38202,2.34365 16.41406,7.24414 l 0.004,0.004 0.002,0.004 c 3.99446,4.82408 6.16406,11.9112 6.16406,21.63086 0,9.82251 -2.20431,16.92967 -6.25,21.71094 v 0.002 c -4.06727,4.81242 -9.23425,7.11719 -16.33398,7.11719 -7.0965,0 -12.28237,-2.30538 -16.38477,-7.11914 -4.0457,-4.78127 -6.25,-11.88843 -6.25,-21.71094 0,-9.7216 2.15542,-16.81575 6.11719,-21.63867 l 0.002,-0.002 c 4.02719,-4.89337 9.23992,-7.24218 16.51563,-7.24218 z M -872,805.36328 h 9.50977 c 3.39712,0 6.21682,0.1218 8.41601,0.35156 l 0.0215,0.004 0.0215,0.002 c 2.02233,0.18111 3.59428,0.66292 4.80664,1.35938 0.9833,0.56539 1.52506,1.16262 1.89063,1.91406 0.38888,0.79937 0.65429,1.94758 0.65429,3.51758 0,1.97961 -0.30564,3.57025 -0.82812,4.82422 l -0.006,0.0137 -0.006,0.0156 c -0.43554,1.0774 -1.12535,1.91566 -2.34375,2.69336 -1.33359,0.85123 -2.74625,1.40154 -4.30859,1.6875 -1.66934,0.27071 -4.12154,0.4336 -7.26758,0.4336 H -872 Z m 113.51367,3.26953 c -9.17344,0 -17.01205,3.16624 -22.79297,9.3711 l -0.004,0.002 -0.002,0.004 c -5.76819,6.23274 -8.58984,14.68287 -8.58984,24.79492 0,10.23565 2.97601,18.64198 9.06836,24.53906 l 0.002,0.002 0.004,0.004 c 6.07611,5.84242 14.53326,8.67969 24.78125,8.67969 4.0528,0 7.95388,-0.50394 11.67773,-1.51953 3.5877,-0.97847 7.10376,-2.19367 10.54493,-3.64258 l 1.76171,-0.74024 v -15.55664 h -4.50781 l -0.82031,0.73828 c -1.2441,1.11716 -3.90013,2.64224 -7.78906,4.18555 -3.72427,1.45732 -7.36161,2.16406 -10.97266,2.16406 -2.74137,0 -5.18765,-0.38049 -7.38086,-1.11133 h -0.002 c -2.13064,-0.72166 -3.90273,-1.76718 -5.41602,-3.16406 l -0.008,-0.008 -0.01,-0.01 c -1.54435,-1.40136 -2.78459,-3.19865 -3.73046,-5.51757 -0.62682,-1.5607 -0.9758,-3.44389 -1.18555,-5.48047 h 42.97851 v -8.23633 c 0,-8.98913 -2.32462,-16.38182 -7.22851,-21.64649 -4.87148,-5.26747 -11.91098,-7.85156 -20.37891,-7.85156 z m 69.2461,0 c -3.86258,0 -7.6536,0.81141 -11.28321,2.39453 -1.88454,0.82198 -3.72157,1.83324 -5.52343,2.98243 v -3.74805 h -15.63086 v 64.40234 h 15.63086 v -45.14844 c 2.18554,-1.56709 4.42693,-2.93099 6.75976,-3.98632 2.63891,-1.1938 5.04439,-1.73828 7.26563,-1.73828 2.3562,0 4.1064,0.34931 5.23046,0.85156 l 0.0234,0.0117 0.0234,0.01 c 1.14594,0.48764 1.8596,1.1171 2.43164,2.07813 l 0.0195,0.0332 0.0215,0.0312 c 0.51262,0.81166 1.03203,2.28523 1.3125,4.4043 v 0.004 0.002 c 0.29561,2.20072 0.44726,4.59494 0.44726,7.17773 v 36.26953 h 15.62891 V 833.7207 c 0,-7.61987 -1.78274,-13.88778 -5.69531,-18.37695 -3.92025,-4.49796 -9.74899,-6.71094 -16.66211,-6.71094 z m 129.83398,0 c -9.17344,0 -17.01205,3.16624 -22.79297,9.3711 l -0.004,0.002 -0.002,0.004 c -5.76819,6.23274 -8.58984,14.68287 -8.58984,24.79492 0,10.23565 2.97601,18.64198 9.06836,24.53906 l 0.002,0.002 0.004,0.004 c 6.07611,5.84242 14.53326,8.67969 24.78125,8.67969 4.0528,0 7.95388,-0.50394 11.67773,-1.51953 3.5877,-0.97847 7.10376,-2.19367 10.54492,-3.64258 l 1.76172,-0.74024 v -15.55664 h -4.50781 l -0.82031,0.73828 c -1.24411,1.11716 -3.90013,2.64224 -7.78907,4.18555 -3.72426,1.45732 -7.3616,2.16406 -10.97265,2.16406 -2.73739,0 -5.18229,-0.37866 -7.37305,-1.10742 l -0.006,-0.002 c -0.002,-6.3e-4 -0.004,-0.001 -0.006,-0.002 -2.12985,-0.72164 -3.90119,-1.76756 -5.41406,-3.16406 l -0.01,-0.008 -0.008,-0.01 c -1.5411,-1.3984 -2.78144,-3.19207 -3.72656,-5.5039 l -0.002,-0.006 c -0.62834,-1.56234 -0.97744,-3.44866 -1.1875,-5.48828 h 42.97851 v -8.23633 c 0,-8.98913 -2.32462,-16.38182 -7.22851,-21.64649 -4.87149,-5.26747 -11.91099,-7.85156 -20.37891,-7.85156 z m 36.80859,1.62891 v 64.40234 h 15.63086 v -43.04687 c 2.12684,-1.619 4.29548,-3.00685 6.53321,-4.05664 l 0.0137,-0.006 0.0117,-0.006 c 2.47187,-1.19016 4.95565,-1.76172 7.57031,-1.76172 1.80111,0 3.31887,0.0846 4.51758,0.23828 l 0.0391,0.006 0.041,0.004 c 1.26286,0.12628 2.57006,0.34759 3.92382,0.66992 l 0.32813,0.0781 h 3.74414 v -15.4707 l -2.42773,-0.38477 c -1.52447,-0.24252 -2.65777,-0.39829 -3.54688,-0.48242 -1.05114,-0.14218 -2.33144,-0.18359 -4.09766,-0.18359 -3.52225,0 -7.0001,0.76201 -10.34375,2.23828 -1.97807,0.86159 -4.09899,2.143 -6.30664,3.64062 v -5.8789 z m -235.88867,4.13281 c 7.34929,0 12.48595,2.03488 16.1543,6.00391 l 0.004,0.004 0.004,0.004 c 3.7041,3.97513 5.68555,9.70554 5.68555,17.72461 v 2.47461 h -43.20899 v 2.88086 c 0,3.89393 0.58479,7.41769 1.83594,10.52539 l 0.004,0.006 0.002,0.006 c 1.22281,2.99785 2.95533,5.57197 5.1875,7.59961 2.12211,1.95607 4.64645,3.4281 7.47656,4.38476 l 0.006,0.002 0.006,0.002 c 2.84635,0.94878 5.92717,1.40625 9.20508,1.40625 4.36895,0 8.74653,-0.86787 13.07227,-2.56055 l 0.006,-0.002 0.006,-0.002 c 2.00413,-0.79474 3.72158,-1.57944 5.2461,-2.39258 v 3.70703 c -2.65217,1.04369 -5.32011,2.03723 -8.0625,2.78515 -3.20615,0.87441 -6.58491,1.31641 -10.16211,1.31641 -9.21006,0 -15.9415,-2.41468 -20.78516,-7.07031 -10e-4,-9.9e-4 -0.003,-9.6e-4 -0.004,-0.002 -4.82244,-4.67244 -7.30664,-11.24325 -7.30664,-20.39258 0,-9.06364 2.39335,-15.83849 7.05078,-20.875 4.71908,-5.06515 10.67156,-7.53516 18.57812,-7.53516 z m 69.2461,0 c 5.75687,0 9.59055,1.60234 12.32031,4.73438 2.73742,3.14083 4.27734,7.86167 4.27734,14.59179 v 35.1836 h -4.10937 v -30.50977 c 0,-2.80583 -0.164,-5.45124 -0.49805,-7.93945 v -0.004 c -0.34774,-2.62477 -0.98207,-4.84598 -2.13672,-6.6875 -1.17397,-1.95489 -2.961,-3.47849 -5.08203,-4.38672 -2.16027,-0.95951 -4.67015,-1.3457 -7.55273,-1.3457 -3.16877,0 -6.39954,0.78575 -9.64063,2.25195 -3.14889,1.4245 -6.15624,3.23873 -9.01562,5.42969 l -1.12891,0.86523 v 42.32618 h -4.10938 v -52.88282 h 4.10938 v 9.76172 l 4.71875,-3.91601 c 2.89609,-2.40244 5.84944,-4.2443 8.86719,-5.56055 2.95039,-1.28687 5.91304,-1.91211 8.98047,-1.91211 z m 129.83398,0 c 7.34929,0 12.48595,2.03488 16.1543,6.00391 l 0.004,0.004 0.004,0.004 c 3.7041,3.97513 5.68555,9.70554 5.68555,17.72461 v 2.47461 h -43.20899 v 2.88086 c 0,3.89393 0.58479,7.41769 1.83594,10.52539 l 0.004,0.006 0.002,0.006 c 1.22281,2.99785 2.95533,5.57197 5.1875,7.59961 2.12211,1.95607 4.64645,3.4281 7.47656,4.38476 l 0.006,0.002 0.006,0.002 c 2.84635,0.94878 5.92717,1.40625 9.20508,1.40625 4.36895,0 8.74653,-0.86787 13.07226,-2.56055 l 0.006,-0.002 0.006,-0.002 c 2.00413,-0.79474 3.72158,-1.57944 5.2461,-2.39258 v 3.70703 c -2.65217,1.04369 -5.32011,2.03723 -8.0625,2.78515 -3.20615,0.87441 -6.58491,1.31641 -10.16211,1.31641 -9.21006,0 -15.9415,-2.41468 -20.78516,-7.07031 -0.001,-9.9e-4 -0.003,-9.6e-4 -0.004,-0.002 -4.82243,-4.67244 -7.30664,-11.24325 -7.30664,-20.39258 0,-9.06364 2.39336,-15.83849 7.05079,-20.875 4.71908,-5.06515 10.67156,-7.53516 18.57812,-7.53516 z m 42.56836,1.62695 h 4.11133 v 11.79102 l 4.68359,-3.76367 c 3.79291,-3.04788 7.0716,-5.1328 9.6875,-6.27149 l 0.008,-0.004 0.008,-0.002 c 2.67405,-1.18156 5.31832,-1.75 8.02343,-1.75 1.65623,0 2.85152,0.0645 3.33789,0.13086 l 0.0645,0.008 0.0645,0.006 c 0.16551,0.015 0.61739,0.0879 0.8457,0.11523 v 4.30469 c -0.5366,-0.0808 -1.0865,-0.22156 -1.61718,-0.27539 -1.52422,-0.19374 -3.25043,-0.28516 -5.2168,-0.28516 -3.47473,0 -6.86877,0.79468 -10.06641,2.33398 -3.05323,1.43496 -5.97552,3.29213 -8.75976,5.55665 l -1.0625,0.86523 v 40.12305 h -4.11133 z m -242.17383,0.75 c -5.85083,0 -10.95514,1.82268 -14.67773,5.50391 l -0.006,0.006 -0.006,0.006 c -3.57264,3.57263 -5.66193,8.1777 -6.13477,13.37891 l -0.28515,3.14062 h 39.65429 l -0.0195,-2.90039 c -0.0382,-5.64857 -1.514,-10.4557 -4.67969,-13.92969 -3.3e-4,-3.7e-4 -0.002,3.7e-4 -0.002,0 -3.21176,-3.56294 -8.07595,-5.20508 -13.84375,-5.20508 z m 199.08008,0 c -5.85083,0 -10.95514,1.82268 -14.67773,5.50391 l -0.006,0.006 -0.006,0.006 c -3.57264,3.57263 -5.66193,8.1777 -6.13477,13.37891 l -0.28516,3.14062 h 39.6543 l -0.0195,-2.90039 c -0.0382,-5.64857 -1.51401,-10.4557 -4.67969,-13.92969 -3.3e-4,-3.7e-4 -0.002,3.7e-4 -0.002,0 -3.21176,-3.56294 -8.07595,-5.20508 -13.84375,-5.20508 z m -67.14844,0.89258 c -6.19835,0 -11.55882,2.34892 -15.16406,6.85547 -3.61721,4.52151 -5.25,10.69147 -5.25,18.17969 0,7.29304 1.19862,13.13822 4.03906,17.48242 l 0.004,0.006 0.004,0.006 c 2.91646,4.41757 7.93846,6.70117 13.84766,6.70117 3.22,0 6.45376,-0.71256 9.63477,-2.07031 l 0.0137,-0.006 0.0137,-0.006 c 3.09315,-1.35797 5.98552,-3.09705 8.6582,-5.20508 l 1.09766,-0.86523 v -36.91602 l -1.70508,-0.76172 c -2.79299,-1.24949 -5.3432,-2.1406 -7.70508,-2.65234 -2.32976,-0.50478 -4.8275,-0.74805 -7.48828,-0.74805 z m -131.93164,4.86719 c 4.7316,0 7.67011,1.1945 9.56836,3.30078 l 0.006,0.008 0.006,0.006 c 1.52011,1.66391 2.35174,4.1646 2.77344,7.20117 h -26.64453 c 0.71101,-2.5186 1.78118,-4.78952 3.66406,-6.67578 10e-4,-10e-4 0.003,-9.3e-4 0.004,-0.002 2.57698,-2.54675 5.90576,-3.83789 10.62305,-3.83789 z m 199.08008,0 c 4.7316,0 7.67011,1.1945 9.56836,3.30078 l 0.006,0.008 0.006,0.006 c 1.52011,1.66391 2.35174,4.1646 2.77344,7.20117 h -26.64454 c 0.71101,-2.5186 1.78119,-4.78952 3.66407,-6.67578 10e-4,-10e-4 0.003,-9.3e-4 0.004,-0.002 2.57698,-2.54675 5.90576,-3.83789 10.62305,-3.83789 z m -67.14844,0.89258 c 2.30923,0 4.39735,0.21197 6.26758,0.61719 1.36187,0.29507 3.12366,0.99567 4.87109,1.68945 v 30.11328 c -1.98352,1.44474 -4.05998,2.70494 -6.29492,3.6875 -2.5546,1.08873 -4.98701,1.60156 -7.36328,1.60156 -4.58948,0 -7.1956,-1.32054 -9.03906,-4.11133 -5.3e-4,-8e-4 -10e-4,-10e-4 -0.002,-0.002 -1.91619,-2.9365 -3.09375,-7.68996 -3.09375,-14.32031 0,-6.65178 1.44549,-11.40355 3.98828,-14.58203 2.55475,-3.19345 5.80437,-4.69336 10.66601,-4.69336 z m -250.67969,7.52148 v 34.84571 h 16.63477 c 4.646,0 8.49681,-0.22623 11.62891,-0.7168 l 0.0156,-0.002 0.0176,-0.004 c 3.20509,-0.54062 5.9898,-1.5269 8.2793,-3.08203 l 0.0137,-0.01 0.0137,-0.01 c 2.26212,-1.57541 4.05578,-3.47807 5.21484,-5.70703 1.19644,-2.30084 1.68946,-5.02062 1.68946,-8.10157 0,-3.438 -0.48617,-6.37194 -1.73047,-8.81445 -1.28544,-2.52326 -3.52876,-4.4844 -6.38086,-5.9707 v -0.002 c -2.07627,-1.08139 -4.47717,-1.70979 -7.15625,-1.98437 -2.53598,-0.29744 -5.53239,-0.44141 -9.0332,-0.44141 z M -872,836.70703 h 13.44727 c 3.35163,0 6.15835,0.13915 8.3789,0.40039 l 0.0234,0.002 0.0234,0.002 c 2.13919,0.21702 3.82533,0.70444 5.10156,1.36914 2.1179,1.10369 3.30559,2.29178 3.91016,3.47851 0.6457,1.26749 1.10351,3.33722 1.10351,6.19922 0,2.44905 -0.41745,4.24615 -1.04101,5.44532 -0.65843,1.26619 -1.73175,2.47241 -3.37891,3.62304 -1.41581,0.95905 -3.38254,1.71926 -5.9707,2.15821 -2.6767,0.41826 -6.27517,0.64648 -10.72266,0.64648 H -872 Z"
     id="path2" /></g></svg>
