<svg width="55" height="55" version="1.1" xmlns="http://www.w3.org/2000/svg"><path fill="rgb(206,54,49)" stroke="rgb(206,54,49)" stroke-width="1" opacity="1" d="M 26.5 2 L 34.5 3 L 41 6.5 L 24 7 L 23.5 9 L 12.5 9 L 14.5 6 L 20.5 3 Q 25.3 4.3 26.5 2 Z "></path><path fill="rgb(210,61,44)" stroke="rgb(210,61,44)" stroke-width="1" opacity="1" d="M 8.5 12 L 28.5 12 L 29 14.5 L 28 17 L 5 16.5 L 8.5 12 Z "></path><path fill="rgb(210,61,44)" stroke="rgb(210,61,44)" stroke-width="1" opacity="1" d="M 41.5 12 Q 47.8 10.8 49 14.5 L 50 16.5 L 40 17 Q 39 13.2 41.5 12 Z "></path><path fill="rgb(252,240,235)" stroke="rgb(252,240,235)" stroke-width="1" opacity="1" d="M 42.5 6 L 43.5 8 L 42.5 6 Z "></path><path fill="rgb(252,240,235)" stroke="rgb(252,240,235)" stroke-width="1" opacity="1" d="M 15.5 34 L 16.5 36 L 15.5 34 Z "></path><path fill="rgb(252,240,235)" stroke="rgb(252,240,235)" stroke-width="1" opacity="1" d="M 6.5 38 L 7 42.5 L 6 42.5 L 6.5 38 Z "></path><path fill="rgb(252,240,235)" stroke="rgb(252,240,235)" stroke-width="1" opacity="1" d="M 21.5 43 L 19.5 46 L 21.5 43 Z "></path><path fill="rgb(252,240,235)" stroke="rgb(252,240,235)" stroke-width="1" opacity="1" d="M 15.5 46 L 18 46.5 L 15.5 47 L 15.5 46 Z "></path><path fill="rgb(252,240,235)" stroke="rgb(252,240,235)" stroke-width="1" opacity="1" d="M 43.5 47 L 42.5 49 L 43.5 47 Z "></path><path fill="rgb(209,58,46)" stroke="rgb(209,58,46)" stroke-width="1" opacity="1" d="M 11.5 8 L 12.5 9 L 23.5 9 L 28 11.5 L 8.5 12 L 11.5 8 Z "></path><path fill="rgb(209,58,46)" stroke="rgb(209,58,46)" stroke-width="1" opacity="1" d="M 45.5 10 L 46.5 12 L 42 11.5 L 45.5 10 Z "></path><path fill="rgb(215,69,44)" stroke="rgb(215,69,44)" stroke-width="1" opacity="1" d="M 39.5 16 L 40.5 17 L 51 17 L 52 20.5 L 39 21 L 39.5 16 Z "></path><path fill="rgb(215,69,44)" stroke="rgb(215,69,44)" stroke-width="1" opacity="1" d="M 4 17 L 27.5 17 L 28 19.5 L 26.5 21 L 3.5 21 L 4 19.5 L 4 17 Z "></path><path fill="rgb(220,74,34)" stroke="rgb(220,74,34)" stroke-width="1" opacity="1" d="M 3 23 L 27 23.5 L 24.5 29 L 3.5 29 L 2 27.5 L 3 23 Z "></path><path fill="rgb(220,74,34)" stroke="rgb(220,74,34)" stroke-width="1" opacity="1" d="M 38 23 L 51.5 23 L 52 26.5 Q 54.3 27.8 51.5 29 L 37.5 29 L 37 25.5 L 38 23 Z "></path><path fill="rgb(255,255,255)" stroke="rgb(255,255,255)" stroke-width="1" opacity="1" d="M 0 0 L 55 0 L 55 55 L 0 55 L 0 0 Z M 22 2 L 13 6 Q 5 11 2 22 Q 0 36 7 43 L 7 37 L 10 34 Q 16 33 17 37 L 17 40 L 13 46 L 16 47 L 20 46 L 24 40 L 30 15 L 29 12 L 29 10 L 25 10 L 25 8 L 44 8 Q 38 0 22 2 Z M 42 10 L 39 14 Q 37 29 32 42 Q 28 47 21 49 Q 16 50 15 48 L 12 49 L 22 53 Q 36 55 43 49 Q 50 44 53 34 Q 55 19 49 13 Q 48 9 42 10 Z "></path><path fill="rgb(218,71,37)" stroke="rgb(218,71,37)" stroke-width="1" opacity="1" d="M 3 21 L 26.5 21 L 27 23 L 3.5 23 L 3 21 Z "></path><path fill="rgb(218,71,37)" stroke="rgb(218,71,37)" stroke-width="1" opacity="1" d="M 38 21 L 51.5 21 L 52 23 L 38.5 23 L 38 21 Z "></path><path fill="rgb(242,181,159)" stroke="rgb(242,181,159)" stroke-width="1" opacity="1" d="M 21.5 2 L 24 2.5 L 21.5 3 L 21.5 2 Z "></path><path fill="rgb(242,181,159)" stroke="rgb(242,181,159)" stroke-width="1" opacity="1" d="M 31.5 2 L 34 2.5 L 31.5 3 L 31.5 2 Z "></path><path fill="rgb(242,181,159)" stroke="rgb(242,181,159)" stroke-width="1" opacity="1" d="M 11.5 7 L 7.5 12 L 11.5 7 Z "></path><path fill="rgb(242,181,159)" stroke="rgb(242,181,159)" stroke-width="1" opacity="1" d="M 25.5 7 L 43 7.5 L 25 8 L 24.5 10 L 24 8.5 L 25.5 7 Z "></path><path fill="rgb(242,181,159)" stroke="rgb(242,181,159)" stroke-width="1" opacity="1" d="M 46.5 10 L 47.5 12 L 46.5 10 Z "></path><path fill="rgb(242,181,159)" stroke="rgb(242,181,159)" stroke-width="1" opacity="1" d="M 2.5 21 L 3 23.5 L 2 23.5 L 2.5 21 Z "></path><path fill="rgb(242,181,159)" stroke="rgb(242,181,159)" stroke-width="1" opacity="1" d="M 52.5 21 L 53 23.5 L 52 23.5 L 52.5 21 Z "></path><path fill="rgb(242,181,159)" stroke="rgb(242,181,159)" stroke-width="1" opacity="1" d="M 8.5 34 L 7.5 36 L 8.5 34 Z "></path><path fill="rgb(242,181,159)" stroke="rgb(242,181,159)" stroke-width="1" opacity="1" d="M 15.5 42 L 13.5 45 L 15.5 42 Z "></path><path fill="rgb(242,181,159)" stroke="rgb(242,181,159)" stroke-width="1" opacity="1" d="M 31.5 42 L 28.5 46 L 31.5 42 Z "></path><path fill="rgb(242,181,159)" stroke="rgb(242,181,159)" stroke-width="1" opacity="1" d="M 47.5 43 L 44.5 47 L 47.5 43 Z "></path><path fill="rgb(242,181,159)" stroke="rgb(242,181,159)" stroke-width="1" opacity="1" d="M 13.5 48 L 14.5 50 L 13.5 48 Z "></path><path fill="rgb(225,85,36)" stroke="rgb(225,85,36)" stroke-width="1" opacity="1" d="M 2.5 24 L 3 26.5 L 2 26.5 L 2.5 24 Z "></path><path fill="rgb(225,85,36)" stroke="rgb(225,85,36)" stroke-width="1" opacity="1" d="M 52.5 24 L 53 26.5 L 52 26.5 L 52.5 24 Z "></path><path fill="rgb(225,85,36)" stroke="rgb(225,85,36)" stroke-width="1" opacity="1" d="M 2.5 28 L 3.5 29 L 24.5 29 L 26 28.5 L 25 33 L 3.5 33 L 3 30.5 L 2.5 28 Z "></path><path fill="rgb(225,85,36)" stroke="rgb(225,85,36)" stroke-width="1" opacity="1" d="M 52.5 28 L 53 29.5 L 52 33 L 36.5 33 L 36 29 L 51.5 29 L 52.5 28 Z "></path><path fill="rgb(231,90,23)" stroke="rgb(231,90,23)" stroke-width="1" opacity="1" d="M 3 33 L 9 33.5 L 7 34 L 5.5 39 L 3 33 Z "></path><path fill="rgb(231,90,23)" stroke="rgb(231,90,23)" stroke-width="1" opacity="1" d="M 15.5 33 L 24 33 L 24 36.5 L 23 40 L 18 40 L 18 36.5 L 17 34 L 15.5 33 Z "></path><path fill="rgb(231,90,23)" stroke="rgb(231,90,23)" stroke-width="1" opacity="1" d="M 36.5 33 L 51.5 33 L 52 34.5 L 48.5 40 L 34.5 40 L 34 38.5 L 36.5 33 Z "></path><path fill="rgb(242,116,34)" stroke="rgb(242,116,34)" stroke-width="1" opacity="1" d="M 48.5 41 L 47.5 43 L 48.5 41 Z "></path><path fill="rgb(242,116,34)" stroke="rgb(242,116,34)" stroke-width="1" opacity="1" d="M 21.5 42 L 19.5 45 L 21.5 42 Z "></path><path fill="rgb(242,116,34)" stroke="rgb(242,116,34)" stroke-width="1" opacity="1" d="M 42.5 47 L 41.5 49 L 42.5 47 Z "></path><path fill="rgb(242,116,34)" stroke="rgb(242,116,34)" stroke-width="1" opacity="1" d="M 15.5 49 L 19 49.5 L 15.5 50 L 15.5 49 Z "></path><path fill="rgb(247,113,7)" stroke="rgb(247,113,7)" stroke-width="1" opacity="1" d="M 17 40 L 22 40 L 22 41.5 L 17.5 46 L 15.5 46 Q 11.7 43.7 17 41.5 L 17 40 Z "></path><path fill="rgb(247,113,7)" stroke="rgb(247,113,7)" stroke-width="1" opacity="1" d="M 33 40 L 49 40.5 L 43.5 47 L 37.5 51 L 26.5 53 L 17 50.5 L 27.5 47 L 33 41.5 L 33 40 Z "></path></svg>