<?xml version="1.0" encoding="UTF-8" standalone="no"?>
<!-- Created with Inkscape (http://www.inkscape.org/) -->

<svg
   version="1.1"
   id="svg1"
   width="160"
   height="160"
   viewBox="0 0 160 160"
   sodipodi:docname="Kitsu.svg"
   inkscape:version="1.3.2 (091e20e, 2023-11-25)"
   xmlns:inkscape="http://www.inkscape.org/namespaces/inkscape"
   xmlns:sodipodi="http://sodipodi.sourceforge.net/DTD/sodipodi-0.dtd"
   xmlns="http://www.w3.org/2000/svg"
   xmlns:svg="http://www.w3.org/2000/svg">
  <defs
     id="defs1" />
  <sodipodi:namedview
     id="namedview1"
     pagecolor="#ffffff"
     bordercolor="#666666"
     borderopacity="1.0"
     inkscape:showpageshadow="2"
     inkscape:pageopacity="0.0"
     inkscape:pagecheckerboard="0"
     inkscape:deskcolor="#d1d1d1"
     inkscape:zoom="3.4109375"
     inkscape:cx="80.036647"
     inkscape:cy="79.89006"
     inkscape:window-width="1184"
     inkscape:window-height="812"
     inkscape:window-x="495"
     inkscape:window-y="186"
     inkscape:window-maximized="0"
     inkscape:current-layer="g1" />
  <g
     inkscape:groupmode="layer"
     inkscape:label="Image"
     id="g1">
    <g
       id="g2">
      <path
         style="fill:#fdeae5"
         d="M 46.536336,151.66793 C 23.369352,129.40308 16.254835,122.67807 13.028355,119.99446 11.100617,118.39108 8.7894702,115.66 7.8924731,113.9254 6.2954743,110.83714 6.4182335,110.46426 13.797451,95.988842 l 7.535882,-14.782737 0,-34.499046 c 0,-28.879077 0.259621,-34.869707 1.593725,-36.7744059 C 25.188418,6.7041091 37.617252,0 41.34133,0 45.398527,0 46.239028,1.0698641 55.37764,17.866667 L 63.067143,32 l 16.932704,0 16.932705,0 7.713618,-14.133333 c 9.28485,-17.01221307 9.96867,-17.87245939 14.18582,-17.84578619 4.23417,0.02678091 16.74593,7.27123379 18.4817,10.70112219 0.96735,1.911477 1.32574,11.694999 1.33725,36.504829 l 0.0157,33.893499 7.50593,14.883537 c 7.29926,14.473712 7.46185,14.968782 5.90498,17.979442 -0.88053,1.70275 -3.1782,4.40202 -5.10594,5.99837 -1.92773,1.59635 -8.07045,7.29352 -13.65048,12.66039 C 127.74113,138.00893 119.03978,146.36 113.98483,151.2 L 104.794,160 H 80 55.206004 Z"
         id="path8" />
      <path
         style="fill:#fcd9d2"
         d="M 42.796294,148 C 35.969597,141.4 25.227691,131.07705 18.925392,125.0601 10.311815,116.83653 7.4666667,113.45593 7.4666667,111.44487 c 0,-1.47143 3.1200003,-8.90162 6.9333333,-16.511537 l 6.933333,-13.836204 0,-33.545791 c 0,-18.450186 0.437787,-34.697258 0.972859,-36.104605 C 23.491778,8.3284074 37.083174,0 40.986485,0 44.923858,0 46.530447,2.0581088 55.37249,18.42909 l 7.905823,14.637577 16.721687,0 16.721687,0 7.905823,-14.637577 C 113.46955,2.0581088 115.07614,0 119.01351,0 c 3.90332,0 17.49471,8.3284074 18.6803,11.446733 0.53507,1.407347 0.97286,17.654419 0.97286,36.104605 V 81.097129 L 145.6,94.933333 c 3.81333,7.609917 6.93333,15.040107 6.93333,16.511537 0,2.01106 -2.84515,5.39166 -11.45872,13.61523 -6.3023,6.01695 -17.04421,16.3399 -23.8709,22.9399 l -12.41218,12 H 80 55.20847 Z m 1.020512,-40.08965 -14.923161,-24.866766 -6.942473,13.854443 -6.942473,13.854443 8.762317,8.43061 c 4.819275,4.63684 14.522317,13.89957 21.562317,20.58385 l 12.8,12.15324 0.303317,-9.57153 0.303317,-9.57153 z m 73.516524,29.40207 c 5.57334,-5.33371 14.07638,-13.49166 18.89565,-18.1288 l 8.76232,-8.43115 -6.94247,-13.854443 -6.94248,-13.854443 -14.88651,24.805696 -14.88651,24.80569 v 9.48327 9.48326 l 2.93334,-2.30572 c 1.61333,-1.26815 7.49333,-6.66966 13.06666,-12.00336 z"
         id="path7" />
      <path
         style="fill:#d1b2ac"
         d="M 51.733333,156.03189 C 24.150937,130.49915 7.4666667,113.63622 7.4666667,111.29121 c 0,-1.42549 3.1200003,-8.71543 6.9333333,-16.199866 l 6.933333,-13.608065 0,-33.758116 c 0,-23.150185 0.385089,-34.603293 1.225484,-36.447761 C 24.005047,8.1032729 37.099588,0 40.782614,0 c 1.398637,0 3.285462,0.6 4.192946,1.3333333 0.907483,0.7333334 5.391573,8.1733334 9.964644,16.5333337 l 8.314674,15.2 16.745122,0 16.745122,0 8.314678,-15.2 C 109.63287,9.5066667 114.11696,2.0666667 115.02444,1.3333333 115.93192,0.6 117.81875,0 119.21739,0 c 3.68302,0 16.77756,8.1032729 18.22379,11.277402 0.84023,1.844091 1.22549,13.280238 1.22549,36.37755 l 0,33.687905 6.93333,13.669719 c 3.81333,7.518344 6.93333,14.839884 6.93333,16.270074 0,1.98219 -4.75453,7.1562 -20,21.76454 -11,10.5403 -21.92,20.91432 -24.26666,23.0534 L 104,159.98981 l -24,-0.004 -24,-0.004 z m 58.593847,-11.78308 c 4.73338,-4.55649 14.54698,-13.92501 21.80799,-20.81894 L 145.337,110.89546 138.68881,97.84773 c -3.65651,-7.176251 -6.97033,-13.396723 -7.36404,-13.82327 -0.39372,-0.426547 -6.87048,9.506844 -14.39281,22.0742 -7.52233,12.56736 -14.22934,23.59049 -14.90446,24.49584 -1.09063,1.46254 -2.387154,1.29654 -11.6275,-1.48873 L 80,125.97095 69.6,129.10577 c -9.240346,2.78527 -10.536872,2.95127 -11.627497,1.48873 -0.675123,-0.90535 -7.38213,-11.92848 -14.90446,-24.49584 -7.52233,-12.567356 -13.999094,-22.500747 -14.392809,-22.0742 -0.393716,0.426547 -3.709524,6.650902 -7.368463,13.831901 l -6.652616,13.056359 12.672922,11.98253 c 6.970108,6.59039 16.752923,15.94813 21.73959,20.79499 l 9.066666,8.81247 21.793845,0.0153 21.793842,0.0153 z m -37.736018,0.3542 c -0.69853,-0.84167 -1.117303,-3.07648 -0.930608,-4.96623 0.286169,-2.89664 0.967257,-3.65219 4.339446,-4.81385 3.269039,-1.12612 4.730961,-1.12612 8,0 3.372189,1.16166 4.053277,1.91721 4.339446,4.81385 0.506253,5.12436 -1.255195,6.49655 -8.339446,6.49655 -4.031189,0 -6.574825,-0.52539 -7.408838,-1.53032 z"
         id="path6" />
      <path
         style="fill:#f28645"
         d="M 47.163991,151.2701 C 16.012562,122.01987 8.3962708,114.49196 7.8823343,112.44427 7.4996135,110.91939 9.8268489,105.12686 14.853918,95.091862 L 22.4,80.028434 l 0,-34.674193 0,-34.674193 4.100123,-2.9701136 C 28.75519,6.076372 32.838249,3.5533612 35.573586,2.1032438 40.177681,-0.33758002 40.757403,-0.41454094 43.38179,1.0666667 45.261137,2.1273724 48.976898,7.7000797 54.405861,17.6 L 62.59507,32.533333 H 80 97.40493 L 105.59414,17.6 c 5.42896,-9.8999203 9.14472,-15.4726276 11.02407,-16.5333333 2.62439,-1.48120764 3.20411,-1.40424672 7.8082,1.0365771 2.73534,1.4501174 6.8184,3.9731282 9.07347,5.6066906 L 137.6,10.680048 v 34.674193 34.674193 l 7.54608,15.063428 c 5.02707,10.034998 7.35431,15.827528 6.97159,17.352408 -0.51394,2.04769 -8.13023,9.5756 -39.28166,38.82583 L 103.53868,160 H 80 56.461315 Z m 76.344619,-19.01508 22.38085,-21.34498 -6.93368,-13.588355 c -3.81353,-7.473593 -7.23866,-13.90958 -7.6114,-14.302192 -0.37274,-0.392612 -7.34533,10.450035 -15.49463,24.094767 l -14.81692,24.80862 -10.379507,-3.16971 -10.379505,-3.16971 -10.66707,3.14675 -10.66707,3.14675 L 44.136505,107.0913 C 35.994761,93.459196 29.028362,82.626881 28.655619,83.019493 28.282876,83.412105 24.857747,89.848092 21.044221,97.321685 L 14.110537,110.91004 36.491392,132.25502 58.872247,153.6 H 80 101.12775 Z m -50.769941,8.34042 c 0.296863,-4.0468 0.657067,-4.55595 3.794664,-5.36383 1.906667,-0.49093 5.026667,-0.49093 6.933334,0 3.137597,0.80788 3.497801,1.31703 3.794664,5.36383 l 0.327998,4.47123 H 80 72.410671 Z"
         id="path5" />
      <path
         style="fill:#e36925"
         d="M 48.164704,152.26667 C 31.249749,136.19925 21.654967,127.12787 15.17314,121.07479 11.4917,117.63687 8.2159636,113.77356 7.8937247,112.48966 7.4963523,110.9064 9.7358727,105.30846 14.853918,95.091862 L 22.4,80.028434 l 0,-34.674193 0,-34.674193 4.100123,-2.9701136 C 28.75519,6.076372 32.838249,3.5533612 35.573586,2.1032438 40.177681,-0.33758002 40.757403,-0.41454094 43.38179,1.0666667 45.261137,2.1273724 48.976898,7.7000797 54.405861,17.6 L 62.59507,32.533333 H 80 97.40493 L 105.59414,17.6 c 5.42896,-9.8999203 9.14472,-15.4726276 11.02407,-16.5333333 2.62439,-1.48120764 3.20411,-1.40424672 7.8082,1.0365771 2.73534,1.4501174 6.8184,3.9731282 9.07347,5.6066906 L 137.6,10.680048 v 34.674193 34.674193 l 7.54608,15.063428 c 5.11805,10.216598 7.35757,15.814538 6.9602,17.397798 -0.32224,1.2839 -3.59798,5.14721 -7.27942,8.58513 -6.48183,6.05308 -16.07661,15.12446 -32.99156,31.19188 L 103.69404,160 H 80 56.305963 Z m 55.681316,-1.48394 c 1.84469,-1.54949 12.05523,-11.16229 22.69008,-21.36178 l 19.33611,-18.54452 -6.92506,-13.571547 c -3.80878,-7.464352 -7.27513,-13.95265 -7.70299,-14.41844 -0.42787,-0.46579 -7.42744,10.26825 -15.55462,23.853427 L 100.91287,131.44018 94.456433,112.38676 88,93.333333 84,92.34521 c -2.4547,-0.606386 -5.5453,-0.606386 -8,0 l -4,0.988123 -6.456433,19.053427 -6.456434,19.05342 -14.776676,-24.70031 C 36.183285,93.154693 29.183708,82.420653 28.755842,82.886443 c -0.427865,0.46579 -3.898095,6.961649 -7.711621,14.435242 L 14.110537,110.91004 36.491392,132.25502 58.872247,153.6 h 20.809897 20.809896 z m -31.312687,-9.90001 c 0,-3.83585 0.310603,-4.28645 3.733334,-5.41605 2.82309,-0.93171 4.643576,-0.93171 7.466666,0 3.422731,1.1296 3.733334,1.5802 3.733334,5.41605 v 4.18395 H 80 72.533333 Z"
         id="path4" />
      <path
         style="fill:#9b4817"
         d="M 48.164704,152.26667 C 31.249749,136.19925 21.654967,127.12787 15.17314,121.07479 11.4917,117.63687 8.2159636,113.77356 7.8937247,112.48966 7.4963523,110.9064 9.7358727,105.30846 14.853918,95.091862 L 22.4,80.028434 l 0,-34.674193 0,-34.674193 4.100123,-2.9701136 C 28.75519,6.076372 32.838249,3.5533612 35.573586,2.1032438 40.177681,-0.33758002 40.757403,-0.41454094 43.38179,1.0666667 45.261137,2.1273724 48.976898,7.7000797 54.405861,17.6 L 62.59507,32.533333 H 80 97.40493 L 105.59414,17.6 c 5.42896,-9.8999203 9.14472,-15.4726276 11.02407,-16.5333333 2.62439,-1.48120764 3.20411,-1.40424672 7.8082,1.0365771 2.73534,1.4501174 6.8184,3.9731282 9.07347,5.6066906 L 137.6,10.680048 v 34.674193 34.674193 l 7.54608,15.063428 c 5.11805,10.216598 7.35757,15.814538 6.9602,17.397798 -0.32224,1.2839 -3.59798,5.14721 -7.27942,8.58513 -6.48183,6.05308 -16.07661,15.12446 -32.99156,31.19188 L 103.69404,160 H 80 56.305963 Z m 55.681316,-1.48394 c 1.84469,-1.54949 12.05398,-11.1611 22.68731,-21.35912 L 145.86667,110.88175 138.53333,96.57298 131.2,82.264213 131.15502,72.332106 131.11003,62.4 116.48835,51.407843 101.86667,40.415686 l -21.86667,0 -21.866667,0 L 43.511651,51.407843 28.889969,62.4 28.844984,72.332106 28.8,82.264213 21.458054,96.589782 14.116109,110.91535 36.494178,132.25768 58.872247,153.6 h 20.809897 20.809896 z m -31.312687,-9.90001 c 0,-3.83585 0.310603,-4.28645 3.733334,-5.41605 2.82309,-0.93171 4.643576,-0.93171 7.466666,0 3.422731,1.1296 3.733334,1.5802 3.733334,5.41605 v 4.18395 H 80 72.533333 Z M 55.466667,93.866667 c -1.173334,-1.173334 -2.133334,-2.613334 -2.133334,-3.2 0,-1.383398 3.949936,-5.333334 5.333334,-5.333334 C 60.22867,85.333333 64,89.364894 64,91.03468 64,92.741915 60.620303,96 58.849343,96 58.162204,96 56.64,95.04 55.466667,93.866667 Z M 97.76532,94.049343 C 96.794394,92.976482 96,91.536482 96,90.849343 c 0,-1.525108 3.858733,-5.51601 5.33333,-5.51601 0.58667,0 2.02667,0.96 3.2,2.133334 1.17334,1.173333 2.13334,2.613333 2.13334,3.2 0,1.562003 -4.03156,5.333333 -5.70135,5.333333 -0.78907,0 -2.229074,-0.877796 -3.2,-1.950657 z M 55.891376,34.933333 C 53.781693,30.785928 41.433441,8.1579556 40.99173,7.629971 40.527982,7.0756454 29.869007,13.220957 29.867751,14.043375 29.8668,14.665878 56.600996,38.331771 57.360725,38.380961 57.522458,38.391432 56.861251,36.84 55.891376,34.933333 Z M 118.66667,24.597381 c 6.30666,-5.455793 11.46618,-10.22212 11.46558,-10.591836 -0.001,-0.797003 -10.67372,-6.9137782 -11.12398,-6.375574 C 118.50693,8.2292252 106.04209,31.127467 104.0003,35.2 l -1.87173,3.733333 2.53572,-2.208164 c 1.39464,-1.21449 7.69571,-6.671994 14.00238,-12.127788 z"
         id="path3" />
      <path
         style="fill:#65241d"
         d="M 56,158.70671 C 54.826667,158.03108 43.786667,147.89307 31.466667,136.17779 12.463639,118.10752 9.0179219,114.36009 8.7452386,111.46681 8.5070835,108.9399 10.234231,104.59703 15.411905,94.703664 L 22.4,81.350991 V 46.542162 C 22.4,6.6695175 21.415493,10.507698 33.355736,3.8303341 43.314119,-1.7387112 43.78893,-1.4242822 54.0171,17.512692 l 8.3829,15.520543 17.6,0 17.6,0 8.3829,-15.520543 C 116.21107,-1.4242822 116.68588,-1.7387112 126.64426,3.8303341 138.58451,10.507698 137.6,6.6695175 137.6,46.542162 v 34.808829 l 6.98809,13.352673 c 5.17768,9.893366 6.90483,14.236236 6.66667,16.763146 -0.27264,2.89281 -3.72228,6.64618 -22.72684,24.72782 -12.32298,11.72454 -23.45143,21.87715 -24.72988,22.56136 -3.18472,1.70441 -44.827053,1.66148 -47.79804,-0.0493 z m 67.01526,-25.54263 c 11.83494,-11.23976 21.91225,-20.77794 22.39402,-21.19595 0.48177,-0.41801 -2.51823,-7.53545 -6.66667,-15.816526 L 131.2,81.0951 l -0.04,-33.880883 -0.04,-33.880884 -5.85877,-3.3946317 -5.85878,-3.394632 -2.42959,3.9279657 c -1.33627,2.160381 -5.47034,9.567965 -9.18683,16.461298 l -6.75724,12.533334 -21.016908,0 -21.016907,0 L 50.15986,23.2 C 45.30053,14.253333 41.199079,6.7857591 41.045525,6.6053906 40.891972,6.4250222 38.073911,7.9997719 34.783168,10.104835 L 28.8,13.932221 l 0,33.58144 0,33.581439 -7.476321,14.924172 -7.476321,14.924168 11.476321,10.90979 c 6.311977,6.00039 16.276321,15.5921 22.142988,21.31491 l 10.666666,10.40513 21.681927,0.0134 21.68193,0.0134 z m -49.725702,11.23659 c -0.415924,-0.41592 -0.756225,-2.319 -0.756225,-4.22906 0,-3.02315 0.483411,-3.63237 3.733334,-4.70494 2.83419,-0.93537 4.64652,-0.93074 7.524977,0.0192 3.525804,1.16362 3.768859,1.52466 3.466667,5.14939 l -0.324978,3.89803 -6.443775,0.31178 c -3.544077,0.17148 -6.784077,-0.0285 -7.2,-0.44444 z M 55.55395,93.438504 C 53.855163,91.39159 54.407797,88.559616 56.8,87.053118 c 2.736227,-1.723148 5.6,0.456968 5.6,4.263134 0,2.522781 -0.501704,3.142068 -2.757969,3.404343 -1.516883,0.176328 -3.356519,-0.400614 -4.088081,-1.282091 z m 41.922361,-0.04286 C 95.875993,89.22528 99.779895,84.899296 103.2,87.053118 c 4.02811,2.536713 2.28942,7.880215 -2.56408,7.880215 -1.41325,0 -2.835071,-0.691961 -3.159609,-1.537692 z"
         id="path2" />
    </g>
  </g>
</svg>
