<?xml version="1.0" encoding="UTF-8" standalone="no"?>
<!-- Created with Inkscape (http://www.inkscape.org/) -->

<svg
   version="1.1"
   id="svg182"
   width="470"
   height="160"
   viewBox="0 0 470 160"
   sodipodi:docname="opte.svg"
   inkscape:version="1.2.1 (9c6d41e, 2022-07-14)"
   xmlns:inkscape="http://www.inkscape.org/namespaces/inkscape"
   xmlns:sodipodi="http://sodipodi.sourceforge.net/DTD/sodipodi-0.dtd"
   xmlns="http://www.w3.org/2000/svg"
   xmlns:svg="http://www.w3.org/2000/svg">
  <defs
     id="defs186" />
  <sodipodi:namedview
     id="namedview184"
     pagecolor="#ffffff"
     bordercolor="#666666"
     borderopacity="1.0"
     inkscape:showpageshadow="2"
     inkscape:pageopacity="0.0"
     inkscape:pagecheckerboard="0"
     inkscape:deskcolor="#d1d1d1"
     showgrid="false"
     inkscape:zoom="1.475"
     inkscape:cx="237.9661"
     inkscape:cy="83.389831"
     inkscape:window-width="1371"
     inkscape:window-height="682"
     inkscape:window-x="1602"
     inkscape:window-y="194"
     inkscape:window-maximized="0"
     inkscape:current-layer="g188" />
  <g
     inkscape:groupmode="layer"
     inkscape:label="Image"
     id="g188">
    <path
       style="fill:#020202;stroke:none"
       d="M 0,0 V 160 H 470 V 0 H 0 m 171,40 v 4 h -10 v 28 h -4 V 44 h -10 v -4 h 24 m 8,0 v 13 h 16 V 40 h 4 v 32 h -4 V 57 h -16 v 15 h -4 V 40 h 4 m 46,0 v 4 h -14 v 9 h 13 v 4 h -13 v 11 h 14 v 4 H 207 V 40 h 18 m -60,47.7261 c 20.199,0.7637 17.963,33.5059 -3,32.2299 -18.571,-1.131 -16.185,-32.9553 3,-32.2299 m 174,0 c 20.199,0.7637 17.963,33.5059 -3,32.2299 -18.571,-1.131 -16.185,-32.9553 3,-32.2299 M 189,108 v 12 h -4 V 88 c 5.175,0 12.329,-1.2237 16.772,2.0093 C 214.195,99.0508 196.992,107.656 189,108 m 42,-20 v 4 h -10 v 28 h -4 V 92 h -10 v -4 h 24 m 23,0 v 4 h -14 v 9 h 13 v 4 h -13 v 11 h 14 v 4 H 236 V 88 h 18 m 22,20 v 12 h -4 V 88 c 5.175,0 12.329,-1.2238 16.772,2.0093 C 301.195,99.0508 283.992,107.656 276,108 m 37,-3 8,15 c -9.729,-0.74 -9.039,-12.674 -19,-13 v 13 h -4 V 88 c 4.918,0 11.452,-1.0715 15.941,1.3179 6.75,3.5919 5.005,12.6921 -0.941,15.6821 m 50,-17 c 0,13.01 6.126,39.936 -12,40 v -4 c 12.885,-0.98 8,-26.5299 8,-36 h 4 m 26,0 v 4 h -14 v 9 h 13 v 4 h -13 v 11 h 14 v 4 H 371 V 88 h 18 m 54,0 v 4 h -10 v 28 h -4 V 92 l -11,-2 -1,3 c -3.821,-0.7094 -8.273,-1.806 -11.906,0.179 -7.502,4.0995 -7.761,16.244 -0.99,21.09 3.897,2.788 8.606,1.785 12.896,0.731 l 1,4 c -5.452,1.298 -12.932,2.254 -17.815,-1.148 -8.098,-5.642 -7.74,-21.3579 -0.08,-27.1992 C 409.054,83.828 432.04,88 443,88 m -279.999,3.6566 c -13.086,1.4377 -11.716,25.8034 1.998,24.7004 13.328,-1.071 12.13,-26.2526 -1.998,-24.7004 m 174,0 c -13.086,1.4377 -11.716,25.8034 1.998,24.7004 13.328,-1.071 12.13,-26.2526 -1.998,-24.7004 M 189,92 v 12 c 14.137,-0.119 14.234,-11.9591 0,-12 m 87,0 v 12 c 14.137,-0.119 14.234,-11.9591 0,-12 m 26,0 v 11 c 14.084,-0.011 14.226,-10.9906 0,-11 z"
       id="path423" />
  </g>
</svg>
