<?xml version="1.0" encoding="UTF-8" standalone="no"?>
<!-- Created with Inkscape (http://www.inkscape.org/) -->

<svg
   version="1.1"
   id="svg182"
   width="1333.3333"
   height="1333.3333"
   viewBox="0 0 1333.3333 1333.3333"
   sodipodi:docname="libitmf-github-logo.svg"
   inkscape:version="1.2.2 (b0a84865, 2022-12-01)"
   xmlns:inkscape="http://www.inkscape.org/namespaces/inkscape"
   xmlns:sodipodi="http://sodipodi.sourceforge.net/DTD/sodipodi-0.dtd"
   xmlns="http://www.w3.org/2000/svg"
   xmlns:svg="http://www.w3.org/2000/svg">
  <defs
     id="defs186" />
  <sodipodi:namedview
     id="namedview184"
     pagecolor="#ffffff"
     bordercolor="#666666"
     borderopacity="1.0"
     inkscape:showpageshadow="2"
     inkscape:pageopacity="0.0"
     inkscape:pagecheckerboard="0"
     inkscape:deskcolor="#d1d1d1"
     showgrid="false"
     inkscape:zoom="0.17700001"
     inkscape:cx="666.66663"
     inkscape:cy="666.66663"
     inkscape:window-width="754"
     inkscape:window-height="480"
     inkscape:window-x="0"
     inkscape:window-y="25"
     inkscape:window-maximized="0"
     inkscape:current-layer="g188" />
  <g
     inkscape:groupmode="layer"
     inkscape:label="Image"
     id="g188">
    <g
       id="g417">
      <path
         style="fill:#6cc8da;stroke-width:1.33333"
         d="m 472.43229,1117.891 c -6.94134,-2.5524 -17.03786,-11.31 -20.4213,-17.7132 l -2.55981,-4.8445 -0.0589,11 -0.0589,11 h -20.66666 -20.66667 v -100 -99.99999 h 20.66667 20.66666 l 0.0589,39.66667 0.0589,39.66666 2.51875,-4.76445 c 6.20582,-11.73892 21.22062,-19.90221 36.60629,-19.90221 26.01365,0 43.89349,15.66026 50.99738,44.66662 3.56966,14.5755 3.21494,47.3956 -0.66013,61.0791 -5.689,20.0888 -14.18763,31.6053 -28.03965,37.9964 -9.464,4.3666 -29.38238,5.48 -38.44154,2.1489 z m 14.89724,-34.2866 c 3.25222,-1.8419 6.6303,-5.3413 8.66667,-8.9781 3.05676,-5.459 3.37499,-7.5913 3.78783,-25.3813 0.51693,-22.2754 -0.67244,-28.4602 -6.81932,-35.4611 -7.97362,-9.0815 -20.06603,-11.0158 -32.54464,-5.2058 -10.62265,4.9459 -11.08764,6.5273 -11.08176,37.689 0.004,24.1214 0.23704,26.7802 2.69421,30.8104 5.66418,9.2903 24.32483,12.741 35.29701,6.5269 z m -229.10624,31.8171 c -11.63746,-3.1279 -19.58794,-11.4968 -22.83312,-24.035 -1.7465,-6.7478 -2.05684,-20.4781 -2.05684,-91 v -83.05319 h 20.66666 20.66667 v 83.99999 84 h 8.66667 8.66666 v 16 16 l -13.66666,-0.09 c -7.51667,-0.05 -16.56619,-0.8693 -20.11004,-1.8218 z m 65.05482,0.2451 c -0.35101,-0.9166 -0.48217,-32.8666 -0.29149,-71 l 0.34671,-69.33329 h 19.99999 20 l 0.34502,70.99999 0.34502,71 h -20.05353 c -14.81357,0 -20.22029,-0.4355 -20.69172,-1.6667 z M 579.99999,1046 v -71.33336 h 20 19.99999 V 1046 v 71.3333 h -19.99999 -20 z m 117.37958,68.9751 c -5.36028,-1.5764 -9.11699,-3.9277 -14.20779,-8.8924 -10.63061,-10.3675 -11.1718,-13.2897 -11.1718,-60.3247 v -39.0914 h -10.04232 -10.0423 l 0.37564,-15.66662 0.37565,-15.66667 6.66667,-0.34841 c 15.12913,-0.7907 16.66666,-2.9665 16.66666,-23.58538 v -14.06621 h 18.66667 18.66667 v 18.62003 18.62001 l 13.66666,0.37999 13.66667,0.37997 0.37565,15.66667 0.37564,15.66662 h -14.0423 -14.04232 V 1046 v 39.3333 h 12.66666 12.66667 v 16 16 l -17,-0.1076 c -11.41752,-0.072 -19.39293,-0.8113 -24.28708,-2.2506 z m 77.89853,0.6915 c -0.35101,-0.9166 -0.48217,-32.8666 -0.29149,-71 l 0.3467,-69.33329 h 20 20 l 0.38942,11.95276 0.38941,11.95277 3.81657,-6.68257 c 8.39116,-14.69237 20.88451,-21.37247 37.90999,-20.27019 5.44836,0.35275 12.14042,1.78782 15.70305,3.36742 7.49331,3.32238 15.74556,11.51913 19.11108,18.98252 l 2.47187,5.48158 1.67565,-3.98518 c 2.96376,-7.04871 12.06489,-15.55822 20.86259,-19.50639 22.69378,-10.18436 46.34288,-3.01525 56.55918,17.14565 6.31596,12.46392 7.06303,20.25232 7.08804,73.89492 l 0.0231,49.6667 h -20.60599 -20.60598 l -0.39402,-49.6667 c -0.36924,-46.5439 -0.55798,-49.9377 -3.00209,-53.9784 -5.13129,-8.4833 -17.02644,-10.7668 -27.51555,-5.2822 -10.56008,5.5217 -10.5386,5.3981 -10.54097,60.6287 l -0.002,48.3681 -20.33333,-0.3681 -20.33333,-0.3681 -0.66667,-49.3333 c -0.59264,-43.8552 -0.92828,-49.812 -3.02257,-53.6441 -3.3732,-6.1722 -9.17455,-8.7803 -17.91748,-8.0553 -7.60168,0.6304 -12.28603,3.2638 -16.97756,9.5443 -2.64301,3.5382 -2.76372,5.5794 -3.12931,52.9176 l -0.38025,49.2375 h -19.99493 c -14.76668,0 -20.16179,-0.4358 -20.63311,-1.6667 z m 255.3885,-53.6319 v -55.3681 h -10.0423 -10.0423 l 0.3757,-15.66662 0.3756,-15.66667 9.6667,-0.39175 9.6666,-0.39174 v -12.36626 c 0,-17.57013 2.5204,-25.16722 11.1256,-33.53528 3.7809,-3.67676 9.2744,-7.50197 12.2078,-8.50048 3.13,-1.06545 13.7335,-2.08068 25.6666,-2.45745 L 1100,917.04838 v 16.14246 16.14247 h -14 -14 v 12.62003 12.62001 l 13.6666,0.37999 13.6667,0.37997 0.3757,15.66667 0.3756,15.66662 h -14.0275 -14.0275 l -0.3482,55 -0.3481,55 -20.3333,0.3681 -20.3334,0.3681 z M 330.61585,958.33331 c -7.55799,-3.81127 -10.61099,-9.60209 -10.61379,-20.13183 -0.004,-13.80877 5.85776,-21.11733 18.45046,-23.00573 8.32338,-1.24816 19.06143,1.45361 23.2699,5.85488 7.57152,7.9184 7.45576,26.76683 -0.20948,34.1106 -7.08734,6.79011 -20.90846,8.20905 -30.89709,3.17208 z m 259.97294,1.81565 c -6.81764,-2.22854 -9.53063,-4.47085 -12.0062,-9.92322 -5.15684,-11.35775 -1.86854,-26.92215 6.7654,-32.02232 9.22278,-5.44804 24.89958,-4.05063 32.3271,2.8816 9.58279,8.94378 7.75975,30.34194 -3.13323,36.77658 -4.64442,2.74352 -18.50761,4.06738 -23.95307,2.28736 z M 437.33332,603.99998 v -66.66666 h 66.66667 66.66666 v 66.66666 66.66667 H 503.99999 437.33332 Z M 599.6646,508.33128 437.33332,345.99591 v -66.33129 -66.33129 h 67.00205 67.00204 L 733.6687,375.6687 895.99998,538.00407 v 66.33129 66.33129 h -67.00205 -67.00204 z"
         id="path431" />
      <path
         style="fill:#9a9aa1;stroke-width:1.33333"
         d="m 472.43229,1117.891 c -6.94134,-2.5524 -17.03786,-11.31 -20.4213,-17.7132 l -2.55981,-4.8445 -0.0589,11 -0.0589,11 h -20.66666 -20.66667 v -100 -99.99999 h 20.66667 20.66666 l 0.0589,39.66667 0.0589,39.66666 2.51875,-4.76445 c 6.20582,-11.73892 21.22062,-19.90221 36.60629,-19.90221 26.01365,0 43.89349,15.66026 50.99738,44.66662 3.56966,14.5755 3.21494,47.3956 -0.66013,61.0791 -5.689,20.0888 -14.18763,31.6053 -28.03965,37.9964 -9.464,4.3666 -29.38238,5.48 -38.44154,2.1489 z m 14.89724,-34.2866 c 3.25222,-1.8419 6.6303,-5.3413 8.66667,-8.9781 3.05676,-5.459 3.37499,-7.5913 3.78783,-25.3813 0.51693,-22.2754 -0.67244,-28.4602 -6.81932,-35.4611 -7.97362,-9.0815 -20.06603,-11.0158 -32.54464,-5.2058 -10.62265,4.9459 -11.08764,6.5273 -11.08176,37.689 0.004,24.1214 0.23704,26.7802 2.69421,30.8104 5.66418,9.2903 24.32483,12.741 35.29701,6.5269 z m -229.10624,31.8171 c -11.63746,-3.1279 -19.58794,-11.4968 -22.83312,-24.035 -1.7465,-6.7478 -2.05684,-20.4781 -2.05684,-91 v -83.05319 h 20.66666 20.66667 v 83.99999 84 h 8.66667 8.66666 v 16 16 l -13.66666,-0.09 c -7.51667,-0.05 -16.56619,-0.8693 -20.11004,-1.8218 z m 65.05482,0.2451 c -0.35101,-0.9166 -0.48217,-32.8666 -0.29149,-71 l 0.34671,-69.33329 h 19.99999 20 l 0.34502,70.99999 0.34502,71 h -20.05353 c -14.81357,0 -20.22029,-0.4355 -20.69172,-1.6667 z M 579.99999,1046 v -71.33336 h 20 19.99999 V 1046 v 71.3333 h -19.99999 -20 z m 117.37958,68.9751 c -5.36028,-1.5764 -9.11699,-3.9277 -14.20779,-8.8924 -10.63061,-10.3675 -11.1718,-13.2897 -11.1718,-60.3247 v -39.0914 h -10.04232 -10.0423 l 0.37564,-15.66662 0.37565,-15.66667 6.66667,-0.34841 c 15.12913,-0.7907 16.66666,-2.9665 16.66666,-23.58538 v -14.06621 h 18.66667 18.66667 v 18.62003 18.62001 l 13.66666,0.37999 13.66667,0.37997 0.37565,15.66667 0.37564,15.66662 h -14.0423 -14.04232 V 1046 v 39.3333 h 12.66666 12.66667 v 16 16 l -17,-0.1076 c -11.41752,-0.072 -19.39293,-0.8113 -24.28708,-2.2506 z m 77.89853,0.6915 c -0.35101,-0.9166 -0.48217,-32.8666 -0.29149,-71 l 0.3467,-69.33329 h 20 20 l 0.38942,11.95276 0.38941,11.95277 3.81657,-6.68257 c 8.39116,-14.69237 20.88451,-21.37247 37.90999,-20.27019 5.44836,0.35275 12.14042,1.78782 15.70305,3.36742 7.49331,3.32238 15.74556,11.51913 19.11108,18.98252 l 2.47187,5.48158 1.67565,-3.98518 c 2.96376,-7.04871 12.06489,-15.55822 20.86259,-19.50639 22.69378,-10.18436 46.34288,-3.01525 56.55918,17.14565 6.31596,12.46392 7.06303,20.25232 7.08804,73.89492 l 0.0231,49.6667 h -20.60599 -20.60598 l -0.39402,-49.6667 c -0.36924,-46.5439 -0.55798,-49.9377 -3.00209,-53.9784 -5.13129,-8.4833 -17.02644,-10.7668 -27.51555,-5.2822 -10.56008,5.5217 -10.5386,5.3981 -10.54097,60.6287 l -0.002,48.3681 -20.33333,-0.3681 -20.33333,-0.3681 -0.66667,-49.3333 c -0.59264,-43.8552 -0.92828,-49.812 -3.02257,-53.6441 -3.3732,-6.1722 -9.17455,-8.7803 -17.91748,-8.0553 -7.60168,0.6304 -12.28603,3.2638 -16.97756,9.5443 -2.64301,3.5382 -2.76372,5.5794 -3.12931,52.9176 l -0.38025,49.2375 h -19.99493 c -14.76668,0 -20.16179,-0.4358 -20.63311,-1.6667 z m 255.3885,-53.6319 v -55.3681 h -10.0423 -10.0423 l 0.3757,-15.66662 0.3756,-15.66667 9.6667,-0.39175 9.6666,-0.39174 v -12.36626 c 0,-17.57013 2.5204,-25.16722 11.1256,-33.53528 3.7809,-3.67676 9.2744,-7.50197 12.2078,-8.50048 3.13,-1.06545 13.7335,-2.08068 25.6666,-2.45745 L 1100,917.04838 v 16.14246 16.14247 h -14 -14 v 12.62003 12.62001 l 13.6666,0.37999 13.6667,0.37997 0.3757,15.66667 0.3756,15.66662 h -14.0275 -14.0275 l -0.3482,55 -0.3481,55 -20.3333,0.3681 -20.3334,0.3681 z M 330.61585,958.33331 c -7.55799,-3.81127 -10.61099,-9.60209 -10.61379,-20.13183 -0.004,-13.80877 5.85776,-21.11733 18.45046,-23.00573 8.32338,-1.24816 19.06143,1.45361 23.2699,5.85488 7.57152,7.9184 7.45576,26.76683 -0.20948,34.1106 -7.08734,6.79011 -20.90846,8.20905 -30.89709,3.17208 z m 259.97294,1.81565 c -6.81764,-2.22854 -9.53063,-4.47085 -12.0062,-9.92322 -5.15684,-11.35775 -1.86854,-26.92215 6.7654,-32.02232 9.22278,-5.44804 24.89958,-4.05063 32.3271,2.8816 9.58279,8.94378 7.75975,30.34194 -3.13323,36.77658 -4.64442,2.74352 -18.50761,4.06738 -23.95307,2.28736 z M 437.33332,603.99998 v -66.66666 h 66.66667 66.66666 v 66.66666 66.66667 H 503.99999 437.33332 Z M 599.6646,508.33128 437.33332,345.99591 v -66.33129 -66.33129 h 66.66667 66.66666 v 66.33678 66.33677 l 96.36165,96.35479 96.36165,96.35477 66.30534,-0.35823 66.30533,-0.35822 -3.2e-4,66.33333 -3.2e-4,66.33333 h -67.00205 -67.00204 z"
         id="path429" />
      <path
         style="fill:#6469a6;stroke-width:1.33333"
         d="m 473.77659,1117.6197 c -9.68892,-3.4718 -15.85317,-8.6196 -20.82383,-17.3903 l -4.2861,-7.5628 -0.38384,12.3687 -0.38383,12.3687 -19.61617,-0.3687 -19.61616,-0.3687 v -99.3333 -99.33332 l 19.66666,-0.36898 19.66667,-0.36898 v 40.70232 c 0,36.84161 0.83731,46.83926 3.15083,37.62142 1.4297,-5.69638 8.33605,-13.55746 15.17973,-17.2782 9.60386,-5.22137 19.90996,-6.88637 30.86246,-4.986 12.11076,2.10135 18.9232,5.39114 26.16959,12.63752 12.15123,12.15123 17.97072,31.53822 17.97072,59.86742 0,47.4618 -16.60605,72.0138 -49.85503,73.7104 -8.23249,0.4201 -12.45528,-0.037 -17.7017,-1.9172 z m 9.91469,-31.6834 c 6.58861,-2.7529 10.80964,-6.815 13.78865,-13.2697 2.06211,-4.4679 2.46624,-8.7805 2.49078,-26.579 0.0333,-24.2157 -1.53372,-29.7428 -10.3367,-36.4572 -4.05512,-3.0931 -6.25522,-3.6871 -14.8635,-4.0133 -8.54996,-0.324 -10.9048,0.086 -15.31183,2.6666 -10.31973,6.0428 -10.73989,7.3882 -11.20696,35.8867 -0.38101,23.2487 -0.19269,25.7763 2.30502,30.9359 5.22686,10.7972 20.92947,15.9296 33.13454,10.83 z m -220.95305,29.8811 c -8.70504,-1.4435 -17.48928,-6.3184 -21.47733,-11.9191 -6.49767,-9.1252 -6.59424,-10.6114 -6.59424,-101.4792 v -85.15708 l 19.66667,0.36898 19.66666,0.36898 0.34335,83.66662 0.34336,83.6667 h 8.65664 8.65665 v 16 16 l -11,-0.1559 c -6.05,-0.086 -14.26778,-0.6977 -18.26176,-1.36 z m 61.26176,-69.1151 v -70.70232 h 20.01179 20.01178 l -0.34512,70.33332 -0.34512,70.3333 -19.66666,0.369 -19.66667,0.369 z m 256,-0.036 v -70.66662 h 20 19.99999 v 70.66662 70.6667 h -19.99999 -20 z m 124.24557,69.3236 c -14.10204,-2.0964 -25.75887,-11.3796 -29.74811,-23.6906 -1.05417,-3.2532 -1.798,-18.8793 -2.15636,-45.2996 l -0.54707,-40.3334 h -9.89702 -9.89702 v -15.33329 -15.33333 h 6.46771 c 8.68519,0 14.18087,-2.10323 16.01517,-6.12911 0.83894,-1.84123 1.51712,-9.85807 1.51712,-17.93363 v -14.60393 h 18 18 v 19.33333 19.33334 h 14 14 v 15.33333 15.33329 h -14 -14 v 39.2851 39.285 l 13,0.3817 13,0.3816 v 15.3333 15.3333 l -13.33333,0.1887 c -7.33333,0.1037 -16.52283,-0.2856 -20.42109,-0.8651 z m 71.75442,-69.2879 v -70.70232 h 20 20 l 0.0589,12.33333 0.0589,12.33329 2.78836,-5.33329 c 4.93281,-9.43505 10.35133,-15.10012 18.04181,-18.86272 6.32488,-3.09448 9.19363,-3.66655 18.27721,-3.64473 17.36929,0.0417 29.09864,6.84585 36.38413,21.10625 l 3.37126,6.59879 2.03158,-3.93212 c 8.63486,-16.71276 29.95546,-26.89663 48.95624,-23.38415 13.7047,2.53345 21.7702,8.56544 27.79252,20.78535 5.69722,11.56022 6.23902,17.81842 6.23902,72.06562 v 51.2677 H 960.75607 941.51216 L 941.08532,1069 c -0.46642,-52.8152 -0.73001,-54.7139 -8.43692,-60.7762 -2.73864,-2.1542 -5.50786,-2.8905 -10.87106,-2.8905 -8.4922,0 -14.5172,2.2912 -19.1107,7.2674 l -3.33333,3.611 -0.66667,50.2275 -0.66666,50.2274 -19.59128,0.3686 -19.59128,0.3685 -0.40872,-49.0352 c -0.44671,-53.5919 -0.49079,-53.9021 -8.56189,-60.2508 -7.49932,-5.899 -24.0982,-2.7504 -30.47059,5.7799 -2.57969,3.4533 -2.74153,6.0032 -3.37624,53.1981 l -0.66667,49.5709 -19.66666,0.369 -19.66667,0.369 z m 255.55552,69.7421 c -0.4889,-0.4889 -0.8889,-25.3889 -0.8889,-55.3333 v -54.4445 h -10 -10 v -15.33329 -15.33333 h 10 10 v -9.75512 c 0,-26.3326 7.6878,-40.44454 24.9399,-45.78044 3.5353,-1.09343 14.5893,-2.32375 24.7268,-2.75214 l 18.3333,-0.77469 v 16.19787 16.19785 h -14 -14 v 13.33333 13.33334 h 14 14 v 15.33333 15.33329 h -14 -14 V 1062 v 55.3333 h -19.1111 c -10.5111,0 -19.5111,-0.4 -20,-0.8889 z M 331.22458,958.70818 c -7.75036,-3.13536 -12.36555,-14.45218 -10.62561,-26.05492 1.71253,-11.41992 8.94736,-16.65328 23.02227,-16.65328 16.09678,0 23.04731,6.62956 23.04335,21.9792 -0.004,15.80446 -6.68071,22.08129 -23.33127,21.93421 -5.13333,-0.0453 -10.58226,-0.58769 -12.10874,-1.20521 z m 253.99201,-1.74823 c -6.22014,-4.19175 -7.84156,-8.10365 -7.85863,-18.95997 -0.025,-15.90738 6.24543,-22 22.64203,-22 16.28415,0 22.65309,6.1079 22.66167,21.73288 0.009,16.51574 -5.86706,22.25381 -22.79783,22.26213 -8.34842,0.004 -10.93179,-0.53119 -14.64724,-3.03504 z M 437.6542,604.33332 l 0.34579,-66.33333 66.33333,-0.34579 66.33333,-0.34577 v 66.6791 66.67912 h -66.67912 -66.6791 z M 599.6646,508.33128 437.33332,345.99591 v -66.33129 -66.33129 h 66.66667 66.66666 v 66.33678 66.33677 l 96.33676,96.3299 96.33676,96.32987 h 66.3299 66.32991 v 66 66 h -67.00205 -67.00204 z"
         id="path427" />
      <path
         style="fill:#63636e;stroke-width:1.33333"
         d="m 473.77659,1117.6197 c -9.68892,-3.4718 -15.85317,-8.6196 -20.82383,-17.3903 l -4.2861,-7.5628 -0.38384,12.3687 -0.38383,12.3687 -19.61617,-0.3687 -19.61616,-0.3687 v -99.3333 -99.33332 l 19.66666,-0.36898 19.66667,-0.36898 v 40.70232 c 0,36.84161 0.83731,46.83926 3.15083,37.62142 1.4297,-5.69638 8.33605,-13.55746 15.17973,-17.2782 9.60386,-5.22137 19.90996,-6.88637 30.86246,-4.986 12.11076,2.10135 18.9232,5.39114 26.16959,12.63752 12.15123,12.15123 17.97072,31.53822 17.97072,59.86742 0,47.4618 -16.60605,72.0138 -49.85503,73.7104 -8.23249,0.4201 -12.45528,-0.037 -17.7017,-1.9172 z m 9.91469,-31.6834 c 6.58861,-2.7529 10.80964,-6.815 13.78865,-13.2697 2.06211,-4.4679 2.46624,-8.7805 2.49078,-26.579 0.0333,-24.2157 -1.53372,-29.7428 -10.3367,-36.4572 -4.05512,-3.0931 -6.25522,-3.6871 -14.8635,-4.0133 -8.54996,-0.324 -10.9048,0.086 -15.31183,2.6666 -10.31973,6.0428 -10.73989,7.3882 -11.20696,35.8867 -0.38101,23.2487 -0.19269,25.7763 2.30502,30.9359 5.22686,10.7972 20.92947,15.9296 33.13454,10.83 z m -220.95305,29.8811 c -8.70504,-1.4435 -17.48928,-6.3184 -21.47733,-11.9191 -6.49767,-9.1252 -6.59424,-10.6114 -6.59424,-101.4792 v -85.15708 l 19.66667,0.36898 19.66666,0.36898 0.34335,83.66662 0.34336,83.6667 h 8.65664 8.65665 v 16 16 l -11,-0.1559 c -6.05,-0.086 -14.26778,-0.6977 -18.26176,-1.36 z m 61.26176,-69.1151 v -70.70232 h 20.01179 20.01178 l -0.34512,70.33332 -0.34512,70.3333 -19.66666,0.369 -19.66667,0.369 z m 256,-0.036 v -70.66662 h 20 19.99999 v 70.66662 70.6667 h -19.99999 -20 z m 124.24557,69.3236 c -14.10204,-2.0964 -25.75887,-11.3796 -29.74811,-23.6906 -1.05417,-3.2532 -1.798,-18.8793 -2.15636,-45.2996 l -0.54707,-40.3334 h -9.89702 -9.89702 v -15.33329 -15.33333 h 6.46771 c 8.68519,0 14.18087,-2.10323 16.01517,-6.12911 0.83894,-1.84123 1.51712,-9.85807 1.51712,-17.93363 v -14.60393 h 18 18 v 19.33333 19.33334 h 14 14 v 15.33333 15.33329 h -14 -14 v 39.2851 39.285 l 13,0.3817 13,0.3816 v 15.3333 15.3333 l -13.33333,0.1887 c -7.33333,0.1037 -16.52283,-0.2856 -20.42109,-0.8651 z m 71.75442,-69.2879 v -70.70232 h 20 20 l 0.0589,12.33333 0.0589,12.33329 2.78836,-5.33329 c 4.93281,-9.43505 10.35133,-15.10012 18.04181,-18.86272 6.32488,-3.09448 9.19363,-3.66655 18.27721,-3.64473 17.36929,0.0417 29.09864,6.84585 36.38413,21.10625 l 3.37126,6.59879 2.03158,-3.93212 c 8.63486,-16.71276 29.95546,-26.89663 48.95624,-23.38415 13.7047,2.53345 21.7702,8.56544 27.79252,20.78535 5.69722,11.56022 6.23902,17.81842 6.23902,72.06562 v 51.2677 H 960.75607 941.51216 L 941.08532,1069 c -0.46642,-52.8152 -0.73001,-54.7139 -8.43692,-60.7762 -2.73864,-2.1542 -5.50786,-2.8905 -10.87106,-2.8905 -8.4922,0 -14.5172,2.2912 -19.1107,7.2674 l -3.33333,3.611 -0.66667,50.2275 -0.66666,50.2274 -19.59128,0.3686 -19.59128,0.3685 -0.40872,-49.0352 c -0.44671,-53.5919 -0.49079,-53.9021 -8.56189,-60.2508 -7.49932,-5.899 -24.0982,-2.7504 -30.47059,5.7799 -2.57969,3.4533 -2.74153,6.0032 -3.37624,53.1981 l -0.66667,49.5709 -19.66666,0.369 -19.66667,0.369 z m 255.55552,69.7421 c -0.4889,-0.4889 -0.8889,-25.3889 -0.8889,-55.3333 v -54.4445 h -10 -10 v -15.33329 -15.33333 h 10 10 v -9.75512 c 0,-26.3326 7.6878,-40.44454 24.9399,-45.78044 3.5353,-1.09343 14.5893,-2.32375 24.7268,-2.75214 l 18.3333,-0.77469 v 16.19787 16.19785 h -14 -14 v 13.33333 13.33334 h 14 14 v 15.33333 15.33329 h -14 -14 V 1062 v 55.3333 h -19.1111 c -10.5111,0 -19.5111,-0.4 -20,-0.8889 z M 331.22458,958.70818 c -7.75036,-3.13536 -12.36555,-14.45218 -10.62561,-26.05492 1.71253,-11.41992 8.94736,-16.65328 23.02227,-16.65328 16.09678,0 23.04731,6.62956 23.04335,21.9792 -0.004,15.80446 -6.68071,22.08129 -23.33127,21.93421 -5.13333,-0.0453 -10.58226,-0.58769 -12.10874,-1.20521 z m 253.99201,-1.74823 c -6.22014,-4.19175 -7.84156,-8.10365 -7.85863,-18.95997 -0.025,-15.90738 6.24543,-22 22.64203,-22 16.28415,0 22.65309,6.1079 22.66167,21.73288 0.009,16.51574 -5.86706,22.25381 -22.79783,22.26213 -8.34842,0.004 -10.93179,-0.53119 -14.64724,-3.03504 z M 438.66666,604.66665 v -66 h 65.99999 66 v 66 66 h -66 -65.99999 z m 161.6646,-95.66872 -161.6646,-161.6687 v -66.99796 -66.99794 h 65.99999 66 v 66.33678 66.33677 l 96.33676,96.3299 96.33676,96.32987 h 65.66324 65.66323 v 66 66 h -66.33538 -66.3354 z"
         id="path425" />
      <path
         style="fill:#0074a7;stroke-width:1.33333"
         d="m 478.31261,1118.6302 c -11.69718,-2.9445 -21.59966,-10.6394 -26.00103,-20.2045 -1.27138,-2.763 -2.76159,-5.0391 -3.31159,-5.058 -0.55,-0.019 -1,5.0656 -1,11.2989 V 1116 h -19.33333 -19.33334 v -98.6667 -98.66666 h 19.33334 19.33333 v 40.66667 c 0,37.21083 0.92159,47.72539 3.18929,36.38688 1.26999,-6.34995 13.30576,-17.45128 22.07979,-20.36553 10.22789,-3.39718 27.54838,-2.381 37.39758,2.19405 13.35638,6.20416 22.49467,18.55813 27.66008,37.39339 3.29759,12.0244 3.26892,50.1528 -0.0469,62.3912 -7.26709,26.822 -22.02631,40.2848 -45.97995,41.9409 -4.93161,0.3409 -11.22588,0.051 -13.98726,-0.644 z m 6.06354,-32.4264 c 2.35977,-0.9879 6.48574,-4.229 9.16881,-7.2025 6.56436,-7.2748 8.30183,-15.9994 7.50137,-37.668 -0.68502,-18.5438 -2.7337,-24.6951 -10.36261,-31.1144 -4.08619,-3.4383 -11.53752,-6.1974 -16.77507,-6.2115 -6.40957,-0.017 -16.1461,4.0893 -20.61169,8.6934 l -4.6303,4.774 -0.43044,25.5959 c -0.27048,16.0847 0.11706,27.4409 1.04302,30.5609 3.3081,11.1469 22.27348,17.9406 35.09691,12.5722 z m -225.941,28.4908 c -6.61853,-1.9981 -13.79682,-6.8112 -16.88948,-11.3247 -6.80922,-9.9374 -6.87901,-10.9612 -6.87901,-100.9152 v -83.78806 h 19.32332 19.32331 l 0.34336,83.66666 0.34334,83.6667 9,0.3942 9,0.3943 V 1101.3942 1116 l -15,-0.1147 c -8.25,-0.063 -16.60417,-0.5989 -18.56484,-1.1908 z M 323.99999,1046 v -70.00002 h 19.33333 19.33334 V 1046 v 70 h -19.33334 -19.33333 z m 256,0 v -70.00002 h 20 19.99999 V 1046 v 70 h -19.99999 -20 z m 115.78115,67.4433 c -9.31545,-3.643 -13.50184,-7.1639 -17.84918,-15.0119 l -3.93198,-7.0981 -0.40262,-42.3333 -0.40263,-42.3334 h -9.93071 -9.9307 v -15.33329 -15.33333 l 7,-0.0196 c 13.87193,-0.0389 16.8022,-4.47936 16.92474,-25.64702 l 0.0753,-13.00005 h 17.33333 17.33333 v 19.33333 19.33334 h 14 14 v 15.33333 15.33329 h -14 -14 v 40 40 h 12.66667 12.66666 V 1101.3333 1116 l -17.66666,-0.062 c -13.82588,-0.049 -19.01865,-0.5911 -23.88551,-2.4944 z M 775.99998,1046 v -70.00002 h 19.33333 19.33334 v 12 c 0,12.84292 1.36186,15.03712 4.56894,7.36154 1.06594,-2.55113 4.71707,-7.60941 8.11363,-11.24061 7.58279,-8.10661 14.68113,-10.788 28.55495,-10.78655 17.18453,0.001 29.9629,7.91464 36.48413,22.59235 l 2.63321,5.92669 3.05736,-6.01585 c 6.79935,-13.37888 20.11771,-21.28907 37.43165,-22.23181 23.2432,-1.26559 36.82879,9.402 42.47543,33.35226 1.55901,6.6125 1.97876,18.969 1.99432,58.7086 L 979.99997,1116 H 960.7427 941.48543 l -0.4094,-48.3334 c -0.38562,-45.5268 -0.56424,-48.5962 -3.07606,-52.8606 -6.26235,-10.6318 -18.12383,-13.3206 -29.80387,-6.7561 -10.27453,5.7747 -10.14511,5.0461 -10.59155,59.6167 L 897.20914,1116 H 877.9379 858.66665 v -45.4096 c 0,-49.4195 -0.62328,-55.0086 -6.8261,-61.2114 -10.32529,-10.32528 -32.50082,-3.3488 -35.87924,11.2876 -0.67708,2.9334 -1.24536,25.5834 -1.26285,50.3334 l -0.0318,45 H 795.33331 775.99998 Z M 1032,1061.3333 v -54.6667 h -10 -10 v -15.33329 -15.33333 h 9.8629 9.8629 l 0.4886,-16.33334 c 0.4531,-15.14396 0.7773,-16.85688 4.4522,-23.52294 7.41,-13.44106 17.6199,-17.47706 44.2119,-17.47706 h 17.7881 v 14.66667 14.66667 h -14 -14 v 14 14 h 14 14 v 15.33333 15.33329 h -14 -14 V 1061.3333 1116 H 1051.3333 1032 Z M 331.02625,958.02319 c -6.73272,-2.92689 -9.68295,-9.02763 -9.68295,-20.02321 0,-15.79254 6.28947,-22.00223 22.28053,-21.99794 14.37249,0.004 21.80848,6.50219 22.778,19.90578 0.79461,10.98541 -3.02429,18.98468 -10.48941,21.97162 -6.49247,2.59778 -19.07404,2.67044 -24.88617,0.14375 z m 255.99999,0 c -6.52339,-2.83589 -9.682,-9.08112 -9.68793,-19.15504 -0.009,-15.85136 6.90378,-22.80961 22.66168,-22.80961 15.50255,0 22.66666,7.00516 22.66666,22.16374 0,15.01651 -7.09063,21.81895 -22.64587,21.72551 -4.7781,-0.0287 -10.62565,-0.89477 -12.99454,-1.9246 z M 438.66666,604.66665 v -66 h 65.99999 66 v 66 66 h -66 -65.99999 z m 161.6646,-95.66872 -161.6646,-161.6687 v -66.99796 -66.99794 h 65.99999 66 v 66.33678 66.33677 l 96.33676,96.3299 96.33676,96.32987 h 65.66324 65.66323 v 66 66 h -66.33538 -66.3354 z"
         id="path423" />
      <path
         style="fill:#2d358e;stroke-width:1.33333"
         d="m 478.31261,1118.6302 c -11.69718,-2.9445 -21.59966,-10.6394 -26.00103,-20.2045 -1.27138,-2.763 -2.76159,-5.0391 -3.31159,-5.058 -0.55,-0.019 -1,5.0656 -1,11.2989 V 1116 h -19.33333 -19.33334 v -98.6667 -98.66666 h 19.33334 19.33333 v 40.66667 c 0,37.21083 0.92159,47.72539 3.18929,36.38688 1.26999,-6.34995 13.30576,-17.45128 22.07979,-20.36553 10.22789,-3.39718 27.54838,-2.381 37.39758,2.19405 13.35638,6.20416 22.49467,18.55813 27.66008,37.39339 3.29759,12.0244 3.26892,50.1528 -0.0469,62.3912 -7.26709,26.822 -22.02631,40.2848 -45.97995,41.9409 -4.93161,0.3409 -11.22588,0.051 -13.98726,-0.644 z m 6.06354,-32.4264 c 2.35977,-0.9879 6.48574,-4.229 9.16881,-7.2025 6.56436,-7.2748 8.30183,-15.9994 7.50137,-37.668 -0.68502,-18.5438 -2.7337,-24.6951 -10.36261,-31.1144 -4.08619,-3.4383 -11.53752,-6.1974 -16.77507,-6.2115 -6.40957,-0.017 -16.1461,4.0893 -20.61169,8.6934 l -4.6303,4.774 -0.43044,25.5959 c -0.27048,16.0847 0.11706,27.4409 1.04302,30.5609 3.3081,11.1469 22.27348,17.9406 35.09691,12.5722 z m -225.941,28.4908 c -6.61853,-1.9981 -13.79682,-6.8112 -16.88948,-11.3247 -6.80922,-9.9374 -6.87901,-10.9612 -6.87901,-100.9152 v -83.78806 h 19.32332 19.32331 l 0.34336,83.66666 0.34334,83.6667 9,0.3942 9,0.3943 V 1101.3942 1116 l -15,-0.1147 c -8.25,-0.063 -16.60417,-0.5989 -18.56484,-1.1908 z M 323.99999,1046 v -70.00002 h 19.33333 19.33334 V 1046 v 70 h -19.33334 -19.33333 z m 256,0 v -70.00002 h 20 19.99999 V 1046 v 70 h -19.99999 -20 z m 115.78115,67.4433 c -9.31545,-3.643 -13.50184,-7.1639 -17.84918,-15.0119 l -3.93198,-7.0981 -0.40262,-42.3333 -0.40263,-42.3334 h -9.93071 -9.9307 v -15.33329 -15.33333 l 7,-0.0196 c 13.87193,-0.0389 16.8022,-4.47936 16.92474,-25.64702 l 0.0753,-13.00005 h 17.33333 17.33333 v 19.33333 19.33334 h 14 14 v 15.33333 15.33329 h -14 -14 v 40 40 h 12.66667 12.66666 V 1101.3333 1116 l -17.66666,-0.062 c -13.82588,-0.049 -19.01865,-0.5911 -23.88551,-2.4944 z M 775.99998,1046 v -70.00002 h 19.33333 19.33334 v 12 c 0,12.84292 1.36186,15.03712 4.56894,7.36154 1.06594,-2.55113 4.71707,-7.60941 8.11363,-11.24061 7.58279,-8.10661 14.68113,-10.788 28.55495,-10.78655 17.18453,0.001 29.9629,7.91464 36.48413,22.59235 l 2.63321,5.92669 3.05736,-6.01585 c 6.79935,-13.37888 20.11771,-21.28907 37.43165,-22.23181 23.2432,-1.26559 36.82879,9.402 42.47543,33.35226 1.55901,6.6125 1.97876,18.969 1.99432,58.7086 L 979.99997,1116 H 960.7427 941.48543 l -0.4094,-48.3334 c -0.38562,-45.5268 -0.56424,-48.5962 -3.07606,-52.8606 -6.26235,-10.6318 -18.12383,-13.3206 -29.80387,-6.7561 -10.27453,5.7747 -10.14511,5.0461 -10.59155,59.6167 L 897.20914,1116 H 877.9379 858.66665 v -45.4096 c 0,-49.4195 -0.62328,-55.0086 -6.8261,-61.2114 -10.32529,-10.32528 -32.50082,-3.3488 -35.87924,11.2876 -0.67708,2.9334 -1.24536,25.5834 -1.26285,50.3334 l -0.0318,45 H 795.33331 775.99998 Z M 1032,1061.3333 v -54.6667 h -10 -10 v -15.33329 -15.33333 h 9.8629 9.8629 l 0.4886,-16.33334 c 0.4531,-15.14396 0.7773,-16.85688 4.4522,-23.52294 7.41,-13.44106 17.6199,-17.47706 44.2119,-17.47706 h 17.7881 v 14.66667 14.66667 h -14 -14 v 14 14 h 14 14 v 15.33333 15.33329 h -14 -14 V 1061.3333 1116 H 1051.3333 1032 Z M 331.02625,958.02319 c -6.73272,-2.92689 -9.68295,-9.02763 -9.68295,-20.02321 0,-15.79254 6.28947,-22.00223 22.28053,-21.99794 14.37249,0.004 21.80848,6.50219 22.778,19.90578 0.79461,10.98541 -3.02429,18.98468 -10.48941,21.97162 -6.49247,2.59778 -19.07404,2.67044 -24.88617,0.14375 z m 255.99999,0 c -6.52339,-2.83589 -9.682,-9.08112 -9.68793,-19.15504 -0.009,-15.85136 6.90378,-22.80961 22.66168,-22.80961 15.50255,0 22.66666,7.00516 22.66666,22.16374 0,15.01651 -7.09063,21.81895 -22.64587,21.72551 -4.7781,-0.0287 -10.62565,-0.89477 -12.99454,-1.9246 z M 438.66666,604.66665 v -66 h 65.99999 66 v 66 66 h -66 -65.99999 z m 323.99999,0 v -66 h 66 65.99999 v 66 66 h -65.99999 -66 z M 438.66666,279.33333 v -66 h 65.99999 66 v 66 65.99999 h -66 -65.99999 z"
         id="path421" />
      <path
         style="fill:#333341;stroke-width:1.33333"
         d="m 478.31261,1118.6302 c -11.69718,-2.9445 -21.59966,-10.6394 -26.00103,-20.2045 -1.27138,-2.763 -2.76159,-5.0391 -3.31159,-5.058 -0.55,-0.019 -1,5.0656 -1,11.2989 V 1116 h -19.33333 -19.33334 v -98.6667 -98.66666 h 19.33334 19.33333 v 40.66667 c 0,37.21083 0.92159,47.72539 3.18929,36.38688 1.26999,-6.34995 13.30576,-17.45128 22.07979,-20.36553 10.22789,-3.39718 27.54838,-2.381 37.39758,2.19405 13.35638,6.20416 22.49467,18.55813 27.66008,37.39339 3.29759,12.0244 3.26892,50.1528 -0.0469,62.3912 -7.26709,26.822 -22.02631,40.2848 -45.97995,41.9409 -4.93161,0.3409 -11.22588,0.051 -13.98726,-0.644 z m 6.06354,-32.4264 c 2.35977,-0.9879 6.48574,-4.229 9.16881,-7.2025 6.56436,-7.2748 8.30183,-15.9994 7.50137,-37.668 -0.68502,-18.5438 -2.7337,-24.6951 -10.36261,-31.1144 -4.08619,-3.4383 -11.53752,-6.1974 -16.77507,-6.2115 -6.40957,-0.017 -16.1461,4.0893 -20.61169,8.6934 l -4.6303,4.774 -0.43044,25.5959 c -0.27048,16.0847 0.11706,27.4409 1.04302,30.5609 3.3081,11.1469 22.27348,17.9406 35.09691,12.5722 z m -225.941,28.4908 c -6.61853,-1.9981 -13.79682,-6.8112 -16.88948,-11.3247 -6.80922,-9.9374 -6.87901,-10.9612 -6.87901,-100.9152 v -83.78806 h 19.32332 19.32331 l 0.34336,83.66666 0.34334,83.6667 9,0.3942 9,0.3943 V 1101.3942 1116 l -15,-0.1147 c -8.25,-0.063 -16.60417,-0.5989 -18.56484,-1.1908 z M 323.99999,1046 v -70.00002 h 19.33333 19.33334 V 1046 v 70 h -19.33334 -19.33333 z m 256,0 v -70.00002 h 20 19.99999 V 1046 v 70 h -19.99999 -20 z m 115.78115,67.4433 c -9.31545,-3.643 -13.50184,-7.1639 -17.84918,-15.0119 l -3.93198,-7.0981 -0.40262,-42.3333 -0.40263,-42.3334 h -9.93071 -9.9307 v -15.33329 -15.33333 l 7,-0.0196 c 13.87193,-0.0389 16.8022,-4.47936 16.92474,-25.64702 l 0.0753,-13.00005 h 17.33333 17.33333 v 19.33333 19.33334 h 14 14 v 15.33333 15.33329 h -14 -14 v 40 40 h 12.66667 12.66666 V 1101.3333 1116 l -17.66666,-0.062 c -13.82588,-0.049 -19.01865,-0.5911 -23.88551,-2.4944 z M 775.99998,1046 v -70.00002 h 19.33333 19.33334 v 12 c 0,12.84292 1.36186,15.03712 4.56894,7.36154 1.06594,-2.55113 4.71707,-7.60941 8.11363,-11.24061 7.58279,-8.10661 14.68113,-10.788 28.55495,-10.78655 17.18453,0.001 29.9629,7.91464 36.48413,22.59235 l 2.63321,5.92669 3.05736,-6.01585 c 6.79935,-13.37888 20.11771,-21.28907 37.43165,-22.23181 23.2432,-1.26559 36.82879,9.402 42.47543,33.35226 1.55901,6.6125 1.97876,18.969 1.99432,58.7086 L 979.99997,1116 H 960.7427 941.48543 l -0.4094,-48.3334 c -0.38562,-45.5268 -0.56424,-48.5962 -3.07606,-52.8606 -6.26235,-10.6318 -18.12383,-13.3206 -29.80387,-6.7561 -10.27453,5.7747 -10.14511,5.0461 -10.59155,59.6167 L 897.20914,1116 H 877.9379 858.66665 v -45.4096 c 0,-49.4195 -0.62328,-55.0086 -6.8261,-61.2114 -10.32529,-10.32528 -32.50082,-3.3488 -35.87924,11.2876 -0.67708,2.9334 -1.24536,25.5834 -1.26285,50.3334 l -0.0318,45 H 795.33331 775.99998 Z M 1032,1061.3333 v -54.6667 h -10 -10 v -15.33329 -15.33333 h 9.8629 9.8629 l 0.4886,-16.33334 c 0.4531,-15.14396 0.7773,-16.85688 4.4522,-23.52294 7.41,-13.44106 17.6199,-17.47706 44.2119,-17.47706 h 17.7881 v 14.66667 14.66667 h -14 -14 v 14 14 h 14 14 v 15.33333 15.33329 h -14 -14 V 1061.3333 1116 H 1051.3333 1032 Z M 331.02625,958.02319 c -6.73272,-2.92689 -9.68295,-9.02763 -9.68295,-20.02321 0,-15.79254 6.28947,-22.00223 22.28053,-21.99794 14.37249,0.004 21.80848,6.50219 22.778,19.90578 0.79461,10.98541 -3.02429,18.98468 -10.48941,21.97162 -6.49247,2.59778 -19.07404,2.67044 -24.88617,0.14375 z m 255.99999,0 c -6.52339,-2.83589 -9.682,-9.08112 -9.68793,-19.15504 -0.009,-15.85136 6.90378,-22.80961 22.66168,-22.80961 15.50255,0 22.66666,7.00516 22.66666,22.16374 0,15.01651 -7.09063,21.81895 -22.64587,21.72551 -4.7781,-0.0287 -10.62565,-0.89477 -12.99454,-1.9246 z"
         id="path419" />
    </g>
  </g>
</svg>
