<svg width="55" height="58" version="1.1" xmlns="http://www.w3.org/2000/svg"><path fill="rgb(255,232,212)" stroke="rgb(255,232,212)" stroke-width="1" opacity="1" d="M 27.5 35 L 28 38.5 L 27 38.5 L 27.5 35 Z "></path><path fill="rgb(255,232,212)" stroke="rgb(255,232,212)" stroke-width="1" opacity="1" d="M 2.5 36 L 9 36.5 L 2.5 37 L 2.5 36 Z "></path><path fill="rgb(255,232,212)" stroke="rgb(255,232,212)" stroke-width="1" opacity="1" d="M 10.5 36 L 17 36.5 L 10.5 37 L 10.5 36 Z "></path><path fill="rgb(255,232,212)" stroke="rgb(255,232,212)" stroke-width="1" opacity="1" d="M 29.5 36 L 53 36.5 L 29.5 37 L 29.5 36 Z "></path><path fill="rgb(255,255,255)" stroke="rgb(255,255,255)" stroke-width="1" opacity="1" d="M 0 0 L 54.5 0 L 55 0.5 L 55 13.5 L 53.5 13 L 17.5 13 L 16.5 14 L 11 13 L 10 15.5 L 9.5 28 L 7 27.5 L 7 13.5 L 6.5 13 L 0 13 L 0 0 Z "></path><path fill="rgb(255,255,255)" stroke="rgb(255,255,255)" stroke-width="1" opacity="1" d="M 54.5 35 L 55 58 L 0 58 L 0 36 Q 2.4 37.8 8.5 37 L 10.5 37 Q 16.6 37.8 19 36 Q 18 39.8 20.5 41 Q 26.8 42.3 28 38.5 L 28.5 36 L 29.5 37 L 52.5 37 L 54.5 35 Z "></path><path fill="rgb(255,174,46)" stroke="rgb(255,174,46)" stroke-width="1" opacity="1" d="M 1 14 L 5 14 L 5 23 L 1.5 24 L 1 14 Z "></path><path fill="rgb(255,174,46)" stroke="rgb(255,174,46)" stroke-width="1" opacity="1" d="M 13.5 14 L 16 15.5 L 14.5 19 L 12 17.5 L 13.5 14 Z "></path><path fill="rgb(255,174,46)" stroke="rgb(255,174,46)" stroke-width="1" opacity="1" d="M 19.5 14 Q 25.5 12.5 27 15.5 L 27 23 L 19.5 23 L 18 23.5 L 18 15.5 L 19.5 14 Z "></path><path fill="rgb(255,174,46)" stroke="rgb(255,174,46)" stroke-width="1" opacity="1" d="M 28 14 L 30 14.5 L 30 24.5 L 29 24.5 L 28 14 Z "></path><path fill="rgb(255,174,46)" stroke="rgb(255,174,46)" stroke-width="1" opacity="1" d="M 31 14 L 38 14.5 L 37 15.5 L 36.5 24 L 32 23 L 31 14 Z "></path><path fill="rgb(255,174,46)" stroke="rgb(255,174,46)" stroke-width="1" opacity="1" d="M 40.5 14 L 43 15.5 L 41.5 19 L 39 17.5 L 40.5 14 Z "></path><path fill="rgb(255,174,46)" stroke="rgb(255,174,46)" stroke-width="1" opacity="1" d="M 45 14 L 52.5 14 L 54 15.5 L 53.5 24 Q 52 21.5 46.5 23 L 45 23.5 L 45 14 Z "></path><path fill="rgb(255,174,46)" stroke="rgb(255,174,46)" stroke-width="1" opacity="1" d="M 12 20 Q 18 17.8 16 24.5 L 15 24.5 Q 15.8 22.3 13.5 23 L 12 23.5 L 12 20 Z "></path><path fill="rgb(255,174,46)" stroke="rgb(255,174,46)" stroke-width="1" opacity="1" d="M 39 20 Q 44.6 17.8 43 23.5 L 41.5 23 Q 39.3 22.3 40 24.5 L 39 24.5 L 39 20 Z "></path><path fill="rgb(255,161,43)" stroke="rgb(255,161,43)" stroke-width="1" opacity="1" d="M 44.5 14 L 45 19.5 L 43 20.5 L 44 17.5 L 43 15.5 L 44.5 14 Z "></path><path fill="rgb(255,161,43)" stroke="rgb(255,161,43)" stroke-width="1" opacity="1" d="M 37.5 15 Q 40.3 16.3 38 17.5 L 36.5 29 L 31 26.5 L 31.5 19 L 32 23 L 36.5 24 L 37.5 15 Z "></path><path fill="rgb(255,161,43)" stroke="rgb(255,161,43)" stroke-width="1" opacity="1" d="M 17.5 16 L 18.5 24 L 19.5 23 L 27 23 L 27 28 L 19.5 28 L 18 28.5 L 17.5 16 Z "></path><path fill="rgb(255,161,43)" stroke="rgb(255,161,43)" stroke-width="1" opacity="1" d="M 12.5 18 L 15 19.5 L 13.5 20 L 12.5 18 Z "></path><path fill="rgb(255,161,43)" stroke="rgb(255,161,43)" stroke-width="1" opacity="1" d="M 42.5 18 L 41.5 20 L 40 19.5 L 42.5 18 Z "></path><path fill="rgb(255,161,43)" stroke="rgb(255,161,43)" stroke-width="1" opacity="1" d="M 2.5 23 L 5 23 L 5 28 Q 1.2 26.5 2 29.5 L 1 29.5 Q -0.3 24.3 2.5 23 Z "></path><path fill="rgb(255,161,43)" stroke="rgb(255,161,43)" stroke-width="1" opacity="1" d="M 13.5 23 Q 15.8 22.3 15 24.5 Q 17.5 26 16 31.5 L 15 31.5 Q 16.5 27.1 13.5 28 L 12 28.5 Q 11 24 13.5 23 Z "></path><path fill="rgb(255,161,43)" stroke="rgb(255,161,43)" stroke-width="1" opacity="1" d="M 28.5 23 Q 31.1 25.4 30 31.5 L 29 31.5 L 28.5 23 Z "></path><path fill="rgb(255,161,43)" stroke="rgb(255,161,43)" stroke-width="1" opacity="1" d="M 40 23 L 43 24.5 L 42.5 31 L 42 28 Q 38.7 26.7 40 31.5 L 39 31.5 Q 38.3 25.4 40 23 Z "></path><path fill="rgb(255,161,43)" stroke="rgb(255,161,43)" stroke-width="1" opacity="1" d="M 46.5 23 Q 52.5 21.5 54 24.5 L 53.5 30 L 53 28 L 46.5 28 L 46 29.5 L 45 29.5 Q 43.8 24.3 46.5 23 Z "></path><path fill="rgb(255,145,29)" stroke="rgb(255,145,29)" stroke-width="1" opacity="1" d="M 18.5 14 L 16.5 17 L 18.5 14 Z "></path><path fill="rgb(255,145,29)" stroke="rgb(255,145,29)" stroke-width="1" opacity="1" d="M 39.5 14 L 38.5 16 L 39.5 14 Z "></path><path fill="rgb(255,145,29)" stroke="rgb(255,145,29)" stroke-width="1" opacity="1" d="M 5.5 15 L 6 27.5 L 5 27.5 L 5.5 15 Z "></path><path fill="rgb(255,145,29)" stroke="rgb(255,145,29)" stroke-width="1" opacity="1" d="M 27.5 16 L 28 26.5 L 27 26.5 L 27.5 16 Z "></path><path fill="rgb(255,145,29)" stroke="rgb(255,145,29)" stroke-width="1" opacity="1" d="M 30.5 16 L 31 33.5 L 30 33.5 L 30.5 16 Z "></path><path fill="rgb(255,145,29)" stroke="rgb(255,145,29)" stroke-width="1" opacity="1" d="M 38.5 17 L 40 19.5 L 39 20.5 L 39 35 Q 35.3 36.4 37 30.5 L 38 29.5 Q 36.5 22 39 18.5 L 38.5 17 Z "></path><path fill="rgb(255,145,29)" stroke="rgb(255,145,29)" stroke-width="1" opacity="1" d="M 12.5 19 L 12 20.5 L 11.5 23 L 11 20.5 L 12.5 19 Z "></path><path fill="rgb(255,145,29)" stroke="rgb(255,145,29)" stroke-width="1" opacity="1" d="M 42.5 19 L 45 20.5 L 45 34.5 L 43 35 L 43 21.5 L 44 20.5 L 42.5 19 Z "></path><path fill="rgb(255,145,29)" stroke="rgb(255,145,29)" stroke-width="1" opacity="1" d="M 16.5 20 L 18 34 L 16 33.5 L 16.5 20 Z "></path><path fill="rgb(255,145,29)" stroke="rgb(255,145,29)" stroke-width="1" opacity="1" d="M 9.5 28 L 12 29 L 11.5 35 Q 8.9 33.6 9.5 29 L 8 29.5 L 9.5 28 Z "></path><path fill="rgb(255,145,29)" stroke="rgb(255,145,29)" stroke-width="1" opacity="1" d="M 47.5 30 L 47 31.5 L 46.5 33 L 46 31.5 L 47.5 30 Z "></path><path fill="rgb(255,145,29)" stroke="rgb(255,145,29)" stroke-width="1" opacity="1" d="M 22.5 35 L 26 36.5 L 23.5 38 L 23.5 36 L 22.5 35 Z "></path><path fill="rgb(255,130,18)" stroke="rgb(255,130,18)" stroke-width="1" opacity="1" d="M 1.5 13 L 6 13.5 L 1.5 14 L 1.5 13 Z "></path><path fill="rgb(255,130,18)" stroke="rgb(255,130,18)" stroke-width="1" opacity="1" d="M 13.5 13 L 17 15.5 L 14.5 14 L 13.5 13 Z "></path><path fill="rgb(255,130,18)" stroke="rgb(255,130,18)" stroke-width="1" opacity="1" d="M 19.5 13 L 25 13.5 L 19.5 14 L 19.5 13 Z "></path><path fill="rgb(255,130,18)" stroke="rgb(255,130,18)" stroke-width="1" opacity="1" d="M 28.5 13 L 38 13.5 L 28 14 L 27.5 16 L 26.5 14 L 28.5 13 Z "></path><path fill="rgb(255,130,18)" stroke="rgb(255,130,18)" stroke-width="1" opacity="1" d="M 44.5 13 L 52 13.5 L 44.5 14 L 44.5 13 Z "></path><path fill="rgb(255,130,18)" stroke="rgb(255,130,18)" stroke-width="1" opacity="1" d="M 0.5 15 L 1 32.5 L 0 32.5 L 0.5 15 Z "></path><path fill="rgb(255,130,18)" stroke="rgb(255,130,18)" stroke-width="1" opacity="1" d="M 54.5 17 L 55 31.5 L 54 31.5 L 54.5 17 Z "></path><path fill="rgb(255,130,18)" stroke="rgb(255,130,18)" stroke-width="1" opacity="1" d="M 11.5 23 L 12 27.5 L 10 28.5 L 11.5 23 Z "></path><path fill="rgb(255,130,18)" stroke="rgb(255,130,18)" stroke-width="1" opacity="1" d="M 27.5 27 L 28 33.5 L 26 34.5 L 27.5 27 Z "></path><path fill="rgb(255,130,18)" stroke="rgb(255,130,18)" stroke-width="1" opacity="1" d="M 5.5 28 L 6 30 L 8 30.5 L 6.5 31 L 5.5 28 Z "></path><path fill="rgb(255,130,18)" stroke="rgb(255,130,18)" stroke-width="1" opacity="1" d="M 19.5 31 L 21 33.5 L 19 32.5 L 19.5 31 Z "></path><path fill="rgb(255,130,18)" stroke="rgb(255,130,18)" stroke-width="1" opacity="1" d="M 53.5 34 L 52.5 36 L 53.5 34 Z "></path><path fill="rgb(255,130,18)" stroke="rgb(255,130,18)" stroke-width="1" opacity="1" d="M 19.5 35 L 20 37.5 L 19 37.5 L 19.5 35 Z "></path><path fill="rgb(255,130,18)" stroke="rgb(255,130,18)" stroke-width="1" opacity="1" d="M 24.5 35 L 22.5 38 L 22 36 L 24.5 35 Z "></path><path fill="rgb(255,130,18)" stroke="rgb(255,130,18)" stroke-width="1" opacity="1" d="M 25.5 39 L 24.5 41 L 22 40.5 L 25.5 39 Z "></path><path fill="rgb(255,185,125)" stroke="rgb(255,185,125)" stroke-width="1" opacity="1" d="M 6.5 13 L 7 27.5 L 8 28.5 L 6 29.5 L 6.5 13 Z "></path><path fill="rgb(255,185,125)" stroke="rgb(255,185,125)" stroke-width="1" opacity="1" d="M 53.5 13 L 54.5 15 L 53.5 13 Z "></path><path fill="rgb(255,185,125)" stroke="rgb(255,185,125)" stroke-width="1" opacity="1" d="M 10.5 19 L 11 27.5 L 10 27.5 L 10.5 19 Z "></path><path fill="rgb(255,185,125)" stroke="rgb(255,185,125)" stroke-width="1" opacity="1" d="M 21.5 31 L 20.5 33 L 21.5 31 Z "></path><path fill="rgb(255,185,125)" stroke="rgb(255,185,125)" stroke-width="1" opacity="1" d="M 19.5 39 L 20.5 41 L 19.5 39 Z "></path><path fill="rgb(255,164,87)" stroke="rgb(255,164,87)" stroke-width="1" opacity="1" d="M 26.5 39 L 25.5 41 L 26.5 39 Z "></path><path fill="rgb(255,149,42)" stroke="rgb(255,149,42)" stroke-width="1" opacity="1" d="M 17.5 24 L 18.5 29 L 19.5 28 L 27 28 L 27.5 34 L 28.5 28 L 30.5 34 L 31.5 27 L 36.5 29 L 37.5 24 L 38 29.5 L 37 35 L 29.5 35 L 28.5 36 Q 27 32.5 25.5 35 Q 20.3 33.5 22 38 L 26 37 L 24.5 40 L 19 38.5 Q 22.8 36.8 19.5 35 L 18 35.5 L 17.5 24 Z M 20 29 L 19 34 Q 25 36 23 31 L 20 29 Z "></path><path fill="rgb(255,149,42)" stroke="rgb(255,149,42)" stroke-width="1" opacity="1" d="M 2 28 Q 5.7 26.5 5 29.5 L 7.5 31 L 10 29.5 L 9 31.5 L 11 35.5 L 9.5 35 Q 3.3 36.8 1.5 34 L 0 34.5 L 2 28 Z "></path><path fill="rgb(255,149,42)" stroke="rgb(255,149,42)" stroke-width="1" opacity="1" d="M 11.5 28 L 13.5 28 Q 16.5 27.1 15 31.5 L 16 35 Q 9.6 37.3 12 29.5 L 11.5 28 Z "></path><path fill="rgb(255,149,42)" stroke="rgb(255,149,42)" stroke-width="1" opacity="1" d="M 40 28 Q 43 26.8 42 30.5 L 43 35 Q 37.8 37.1 39 32.5 L 40 28 Z "></path><path fill="rgb(255,149,42)" stroke="rgb(255,149,42)" stroke-width="1" opacity="1" d="M 46 28 L 52.5 28 L 53 29.5 L 54 33.5 L 52.5 35 L 45 35 L 46 28 Z M 47 29 L 46 32 L 48 34 Q 52 35 50 31 L 47 29 Z "></path><path fill="rgb(255,121,6)" stroke="rgb(255,121,6)" stroke-width="1" opacity="1" d="M 15 18 Q 18 17 17 20 Q 14 21 15 18 Z "></path><path fill="rgb(255,121,6)" stroke="rgb(255,121,6)" stroke-width="1" opacity="1" d="M 22.5 31 L 23 32.5 L 21 33.5 L 22.5 31 Z "></path><path fill="rgb(255,121,6)" stroke="rgb(255,121,6)" stroke-width="1" opacity="1" d="M 17.5 34 L 16.5 36 L 11 35.5 L 17.5 34 Z "></path><path fill="rgb(255,121,6)" stroke="rgb(255,121,6)" stroke-width="1" opacity="1" d="M 2.5 35 L 9 35.5 L 2.5 36 L 2.5 35 Z "></path><path fill="rgb(255,121,6)" stroke="rgb(255,121,6)" stroke-width="1" opacity="1" d="M 25.5 35 L 27 38.5 L 26 38.5 L 25.5 35 Z "></path><path fill="rgb(255,121,6)" stroke="rgb(255,121,6)" stroke-width="1" opacity="1" d="M 29.5 35 L 52 35.5 L 29.5 36 L 29.5 35 Z "></path></svg>