<svg xmlns="http://www.w3.org/2000/svg" viewBox="0 9.470000267028809 115.66999816894531 36.37999725341797" data-asc="0.9052734375"><g fill="#000000"><g fill="#000000" transform="translate(0, 0)"><path d="M0 45.26L0 9.47L4.39 9.47L4.39 45.26L0 45.26ZM11.21 45.26L11.21 19.34L15.14 19.34L15.14 22.97Q16.36 21.07 18.38 19.91Q20.41 18.75 23.00 18.75Q25.88 18.75 27.72 19.95Q29.57 21.14 30.32 23.29Q33.40 18.75 38.33 18.75Q42.19 18.75 44.26 20.89Q46.34 23.02 46.34 27.47L46.34 45.26L41.97 45.26L41.97 28.93Q41.97 26.29 41.54 25.13Q41.11 23.97 39.99 23.27Q38.87 22.56 37.35 22.56Q34.62 22.56 32.81 24.38Q31.01 26.20 31.01 30.20L31.01 45.26L26.61 45.26L26.61 28.42Q26.61 25.49 25.54 24.02Q24.46 22.56 22.02 22.56Q20.17 22.56 18.59 23.54Q17.02 24.51 16.31 26.39Q15.60 28.27 15.60 31.81L15.60 45.26L11.21 45.26ZM69.78 42.07Q67.33 44.14 65.08 45.00Q62.82 45.85 60.23 45.85Q55.96 45.85 53.66 43.76Q51.37 41.67 51.37 38.43Q51.37 36.52 52.23 34.95Q53.10 33.37 54.50 32.42Q55.91 31.47 57.67 30.98Q58.96 30.64 61.57 30.32Q66.89 29.69 69.41 28.81Q69.43 27.91 69.43 27.66Q69.43 24.98 68.19 23.88Q66.50 22.39 63.18 22.39Q60.08 22.39 58.61 23.47Q57.13 24.56 56.42 27.32L52.12 26.73Q52.71 23.97 54.05 22.28Q55.40 20.58 57.93 19.67Q60.47 18.75 63.82 18.75Q67.14 18.75 69.21 19.53Q71.29 20.31 72.27 21.50Q73.24 22.68 73.63 24.49Q73.85 25.61 73.85 28.54L73.85 34.40Q73.85 40.53 74.13 42.15Q74.41 43.77 75.24 45.26L70.65 45.26Q69.97 43.90 69.78 42.07M69.41 32.25Q67.02 33.23 62.23 33.91Q59.52 34.30 58.40 34.79Q57.28 35.28 56.67 36.22Q56.05 37.16 56.05 38.31Q56.05 40.06 57.39 41.24Q58.72 42.41 61.28 42.41Q63.82 42.41 65.80 41.30Q67.77 40.19 68.70 38.26Q69.41 36.77 69.41 33.86L69.41 32.25ZM90.26 41.33L90.89 45.21Q89.04 45.61 87.57 45.61Q85.18 45.61 83.86 44.85Q82.54 44.09 82.01 42.86Q81.47 41.63 81.47 37.67L81.47 22.75L78.25 22.75L78.25 19.34L81.47 19.34L81.47 12.92L85.84 10.28L85.84 19.34L90.26 19.34L90.26 22.75L85.84 22.75L85.84 37.92Q85.84 39.79 86.07 40.33Q86.30 40.87 86.83 41.19Q87.35 41.50 88.33 41.50Q89.06 41.50 90.26 41.33ZM94.56 45.26L94.56 9.47L98.95 9.47L98.95 22.31Q102.03 18.75 106.71 18.75Q109.59 18.75 111.72 19.89Q113.84 21.02 114.76 23.02Q115.67 25.02 115.67 28.83L115.67 45.26L111.28 45.26L111.28 28.83Q111.28 25.54 109.85 24.04Q108.42 22.53 105.81 22.53Q103.86 22.53 102.14 23.55Q100.42 24.56 99.68 26.29Q98.95 28.03 98.95 31.08L98.95 45.26L94.56 45.26Z"/></g></g></svg>