<?xml version="1.0" standalone="no"?>
<!DOCTYPE svg PUBLIC "-//W3C//DTD SVG 20010904//EN"
 "http://www.w3.org/TR/2001/REC-SVG-20010904/DTD/svg10.dtd">
<svg version="1.0" xmlns="http://www.w3.org/2000/svg"
 width="1190.000000pt" height="1190.000000pt" viewBox="0 0 1190.000000 1190.000000"
 preserveAspectRatio="xMidYMid meet">

<g transform="translate(0.000000,1190.000000) scale(0.100000,-0.100000)"
fill="#000000" stroke="none">
<path d="M2183 6372 c-45 -4 -79 -43 -104 -120 -45 -137 -150 -322 -271 -476
-226 -288 -627 -707 -933 -975 -138 -121 -193 -210 -182 -293 4 -31 14 -51 37
-70 26 -24 39 -28 94 -28 35 0 106 9 157 19 166 34 276 42 709 51 576 12 718
34 944 145 168 82 262 158 544 444 198 199 252 249 246 226 -4 -17 -25 -84
-47 -150 -35 -107 -40 -134 -45 -242 -5 -149 12 -239 69 -352 82 -164 214
-233 400 -210 139 17 261 88 388 226 40 43 136 173 214 288 254 380 293 426
352 411 49 -12 58 -52 66 -286 8 -228 18 -289 64 -381 125 -246 369 -239 695
22 113 91 201 182 369 381 69 82 126 147 127 145 2 -2 -10 -47 -26 -101 -80
-264 -79 -405 0 -515 47 -65 112 -101 180 -101 85 0 160 42 268 148 93 92 131
141 356 457 196 276 287 356 338 298 33 -38 40 -70 49 -212 17 -282 46 -409
115 -502 71 -97 208 -158 321 -144 85 10 183 65 246 138 73 83 107 139 218
357 73 142 106 196 146 237 40 42 58 53 83 53 65 0 100 -76 100 -218 0 -89 25
-237 52 -309 30 -82 139 -191 223 -223 74 -28 193 -37 267 -20 156 37 271 131
481 392 184 230 259 307 342 353 101 57 146 45 210 -56 22 -35 72 -112 111
-171 l72 -108 -60 0 c-77 0 -262 -27 -304 -45 -44 -18 -67 -57 -67 -111 0 -54
24 -91 76 -117 35 -17 41 -18 113 -3 49 10 128 16 223 16 169 0 232 -13 399
-79 223 -89 351 -108 492 -72 70 17 91 27 118 56 37 40 40 71 13 132 -30 64
-52 73 -198 83 -355 24 -523 141 -744 515 -101 173 -213 255 -348 255 -189 0
-367 -131 -615 -454 -138 -180 -227 -271 -302 -309 -129 -66 -220 -38 -264 80
-12 31 -27 114 -36 192 -26 233 -56 323 -132 399 -61 61 -103 77 -207 77 -79
0 -97 -3 -146 -29 -130 -65 -206 -162 -344 -435 -128 -252 -185 -321 -263
-321 -37 0 -87 53 -101 107 -16 59 -29 158 -36 273 -17 275 -71 412 -185 469
-49 25 -84 32 -157 32 -154 0 -257 -94 -578 -526 -216 -291 -219 -295 -273
-349 -47 -45 -50 -47 -57 -27 -11 34 4 113 46 246 95 306 97 473 6 539 -42 31
-144 28 -217 -5 -63 -29 -145 -101 -210 -184 -236 -301 -487 -545 -634 -617
-36 -17 -52 -20 -72 -12 -69 24 -94 111 -94 329 0 182 -15 269 -57 347 -64
118 -148 172 -268 173 -147 0 -262 -93 -430 -350 -260 -399 -422 -568 -559
-582 -97 -10 -188 107 -188 244 0 85 10 122 73 289 71 190 79 220 79 314 0 98
-19 142 -83 194 -31 25 -49 31 -102 34 -108 7 -120 -2 -480 -364 -256 -257
-338 -332 -408 -378 -118 -77 -212 -119 -337 -150 -145 -35 -293 -46 -670 -47
-179 0 -358 -4 -397 -8 -40 -4 -73 -5 -73 -3 0 3 68 70 152 151 351 338 626
651 794 903 125 187 224 404 224 489 0 72 -68 120 -157 111z"/>
</g>
</svg>
