<?xml version="1.0" standalone="no"?>
<!DOCTYPE svg PUBLIC "-//W3C//DTD SVG 20010904//EN"
 "http://www.w3.org/TR/2001/REC-SVG-20010904/DTD/svg10.dtd">
<svg version="1.0" xmlns="http://www.w3.org/2000/svg"
 width="3500.000000pt" height="2700.000000pt" viewBox="0 0 3500.000000 2700.000000"
 preserveAspectRatio="xMidYMid meet">

<g transform="translate(0.000000,2700.000000) scale(0.100000,-0.100000)"
fill="#000000" stroke="none">
<path d="M0 13450 l0 -13050 17500 0 17500 0 0 13050 0 13050 -17500 0 -17500
0 0 -13050z m9206 10769 c1364 -787 2598 -1500 2744 -1584 146 -84 1454 -839
2908 -1679 1453 -839 2647 -1526 2652 -1526 6 0 2434 1400 5397 3110 2962
1711 5390 3110 5394 3110 4 0 1231 -706 2726 -1569 l2718 -1570 0 -6256 0
-6257 -2725 -1573 -2725 -1574 -30 18 c-987 575 -10753 6205 -10760 6203 -5
-2 -2434 -1403 -5398 -3114 l-5387 -3110 -2725 1573 -2725 1574 0 6256 0 6257
2718 1570 c1494 864 2722 1571 2728 1571 6 1 1127 -643 2490 -1430z"/>
<path d="M6770 22484 c0 -1663 2 -3024 4 -3024 7 0 5219 3010 5228 3018 5 6
-1273 746 -5003 2899 l-229 132 0 -3025z"/>
<path d="M26905 24734 c-737 -427 -2098 -1213 -3025 -1748 -927 -536 -2511
-1450 -3520 -2033 -2232 -1289 -2034 -1175 -5175 -2988 -1408 -813 -2861
-1652 -3230 -1865 -368 -213 -1518 -877 -2555 -1475 -1037 -598 -2053 -1185
-2257 -1303 l-373 -215 0 -3055 c0 -2468 2 -3053 13 -3049 7 2 593 340 1302
749 2772 1601 5106 2949 6805 3930 976 564 1892 1093 2035 1176 143 82 1612
930 3265 1885 1653 954 3138 1811 3300 1905 493 284 3670 2118 4233 2443 l527
304 0 3057 c0 1682 -1 3058 -2 3057 -2 0 -606 -349 -1343 -775z"/>
<path d="M4044 23992 c-1437 -829 -2609 -1510 -2605 -1513 7 -8 5222 -3019
5228 -3019 1 0 3 1359 3 3020 0 1661 -3 3020 -7 3020 -5 0 -1183 -679 -2619
-1508z"/>
<path d="M1380 19369 c0 -1873 4 -3019 9 -3017 40 14 5219 3014 5214 3019 -5
4 -1144 663 -2533 1464 -1389 802 -2562 1479 -2607 1506 l-83 48 0 -3020z"/>
<path d="M9460 20889 c-1427 -825 -2605 -1505 -2617 -1512 -19 -11 228 -156
2594 -1522 1439 -830 2620 -1511 2624 -1513 5 -2 9 1332 9 3022 0 1664 -3
3026 -7 3025 -5 0 -1176 -675 -2603 -1500z"/>
<path d="M12170 19371 c0 -1662 3 -3021 6 -3021 4 0 1181 678 2616 1507 2091
1207 2607 1508 2596 1518 -7 7 -1169 680 -2583 1496 -1413 815 -2585 1491
-2602 1502 l-33 19 0 -3021z"/>
<path d="M6770 16254 c0 -1663 2 -3024 6 -3024 8 0 5207 3001 5221 3014 11 10
-790 475 -4998 2903 l-229 132 0 -3025z"/>
<path d="M25628 17765 c-1934 -1116 -2613 -1513 -2605 -1521 20 -18 5219
-3016 5223 -3011 2 2 3 1362 2 3023 l-3 3020 -2617 -1511z"/>
<path d="M4050 17764 c-1433 -827 -2606 -1508 -2607 -1512 -2 -5 5180 -3005
5219 -3020 4 -2 8 1356 8 3017 0 1662 -3 3021 -7 3021 -5 -1 -1180 -678 -2613
-1506z"/>
<path d="M28350 12779 l0 -5781 33 20 c17 11 311 181 652 377 692 400 2188
1264 3610 2085 517 299 952 550 967 559 l28 16 0 2726 0 2725 -2597 1500
c-1428 824 -2618 1511 -2645 1527 l-48 27 0 -5781z"/>
<path d="M20265 14669 c-1446 -836 -2635 -1523 -2641 -1527 -6 -4 1193 -702
2665 -1551 1472 -850 3863 -2230 5315 -3068 1451 -838 2640 -1523 2642 -1523
2 0 4 1374 4 3054 l0 3053 -2670 1542 c-1468 847 -2673 1541 -2677 1540 -5 0
-1191 -684 -2638 -1520z"/>
<path d="M1380 13139 c0 -1867 4 -3019 9 -3017 40 14 5219 3014 5213 3019 -4
4 -1143 663 -2532 1464 -1389 802 -2562 1479 -2607 1506 l-83 48 0 -3020z"/>
<path d="M4050 11534 c-1433 -827 -2606 -1508 -2608 -1512 -2 -6 5185 -3008
5219 -3020 5 -2 9 1215 9 3017 0 1662 -3 3021 -7 3021 -5 -1 -1180 -678 -2613
-1506z"/>
</g>
</svg>
