<svg id="Layer_1" data-name="Layer 1" xmlns="http://www.w3.org/2000/svg" viewBox="0 0 168.53 44.01"><defs><style>.cls-1{isolation:isolate;}.cls-2{fill:#d32027;}</style></defs><g id="A_NEMETSCHEK_COMPANY" data-name="A NEMETSCHEK COMPANY" class="cls-1"><g class="cls-1"><path d="M113.13,69.55h-2.24l-.46,1h-.62l1.91-4.2h.59l1.91,4.2h-.63Zm-.21-.48L112,67l-.91,2.06Z" transform="translate(-44.48 -29.87)"/><path d="M120.67,66.4v4.2h-.49l-2.52-3.13V70.6h-.6V66.4h.49l2.52,3.13V66.4Z" transform="translate(-44.48 -29.87)"/><path d="M125.28,70.08v.52h-3V66.4h3v.52h-2.36v1.29h2.1v.51h-2.1v1.36Z" transform="translate(-44.48 -29.87)"/><path d="M130.44,70.6V67.54l-1.52,2.55h-.28l-1.52-2.53v3h-.57V66.4H127l1.75,2.95,1.73-2.95H131v4.2Z" transform="translate(-44.48 -29.87)"/><path d="M135.63,70.08v.52h-3V66.4h3v.52h-2.36v1.29h2.1v.51h-2.1v1.36Z" transform="translate(-44.48 -29.87)"/><path d="M137.73,66.92h-1.44V66.4h3.47v.52h-1.43V70.6h-.6Z" transform="translate(-44.48 -29.87)"/><path d="M141,70.5a2,2,0,0,1-.69-.38l.22-.47a1.94,1.94,0,0,0,.62.35,2.28,2.28,0,0,0,.77.14,1.36,1.36,0,0,0,.78-.18.56.56,0,0,0,.26-.47.47.47,0,0,0-.14-.35,1,1,0,0,0-.35-.21c-.14-.05-.34-.1-.59-.16a6,6,0,0,1-.76-.23,1.26,1.26,0,0,1-.5-.35.93.93,0,0,1-.21-.64,1.09,1.09,0,0,1,.18-.61,1.25,1.25,0,0,1,.54-.43,2.12,2.12,0,0,1,.89-.16,2.57,2.57,0,0,1,.73.1,1.85,1.85,0,0,1,.62.27l-.2.48a2.18,2.18,0,0,0-.56-.25,2.06,2.06,0,0,0-.59-.09,1.23,1.23,0,0,0-.76.19.56.56,0,0,0-.26.48.45.45,0,0,0,.15.35.93.93,0,0,0,.35.21c.14,0,.34.1.58.16a5.7,5.7,0,0,1,.76.22,1.37,1.37,0,0,1,.5.35.92.92,0,0,1,.2.63,1.1,1.1,0,0,1-.17.61,1.34,1.34,0,0,1-.55.43,2.34,2.34,0,0,1-.9.16A2.86,2.86,0,0,1,141,70.5Z" transform="translate(-44.48 -29.87)"/><path d="M145.43,70.37a2,2,0,0,1-.79-.77,2.06,2.06,0,0,1-.29-1.1,2.1,2.1,0,0,1,1.08-1.87,2.46,2.46,0,0,1,2-.11,1.83,1.83,0,0,1,.7.48l-.39.38a1.58,1.58,0,0,0-1.18-.5,1.76,1.76,0,0,0-.85.21,1.56,1.56,0,0,0-.59.58,1.65,1.65,0,0,0-.21.83,1.61,1.61,0,0,0,.21.82,1.5,1.5,0,0,0,.59.58,1.76,1.76,0,0,0,.85.21,1.58,1.58,0,0,0,1.18-.5l.39.38a1.85,1.85,0,0,1-.7.49,2.37,2.37,0,0,1-.9.17A2.4,2.4,0,0,1,145.43,70.37Z" transform="translate(-44.48 -29.87)"/><path d="M152.84,66.4v4.2h-.6V68.73h-2.41V70.6h-.6V66.4h.6v1.8h2.41V66.4Z" transform="translate(-44.48 -29.87)"/><path d="M157.25,70.08v.52H154.2V66.4h3v.52H154.8v1.29h2.11v.51H154.8v1.36Z" transform="translate(-44.48 -29.87)"/><path d="M159.89,68.73l-.77.78V70.6h-.6V66.4h.6v2.34l2.28-2.34h.68l-1.79,1.89,1.91,2.31h-.7Z" transform="translate(-44.48 -29.87)"/><path d="M165.79,70.37a2,2,0,0,1-.79-.77,2.06,2.06,0,0,1-.29-1.1,2.1,2.1,0,0,1,1.08-1.87,2.29,2.29,0,0,1,1.14-.28,2.37,2.37,0,0,1,.9.17,1.9,1.9,0,0,1,.7.48l-.39.38a1.58,1.58,0,0,0-1.18-.5,1.7,1.7,0,0,0-.85.21,1.56,1.56,0,0,0-.59.58,1.65,1.65,0,0,0-.21.83,1.61,1.61,0,0,0,.21.82,1.5,1.5,0,0,0,.59.58,1.7,1.7,0,0,0,.85.21,1.59,1.59,0,0,0,1.18-.5l.39.38a1.93,1.93,0,0,1-.7.49,2.46,2.46,0,0,1-2-.11Z" transform="translate(-44.48 -29.87)"/><path d="M170.15,70.37a2.12,2.12,0,0,1-.8-.77,2.09,2.09,0,0,1-.3-1.1,2.12,2.12,0,0,1,1.1-1.87,2.46,2.46,0,0,1,2.28,0,2,2,0,0,1,.8.77,2.12,2.12,0,0,1,.29,1.1,2.15,2.15,0,0,1-.29,1.1,2,2,0,0,1-.8.77,2.46,2.46,0,0,1-2.28,0Zm2-.47a1.56,1.56,0,0,0,.59-.58,1.61,1.61,0,0,0,.21-.82,1.56,1.56,0,0,0-.8-1.41,1.63,1.63,0,0,0-.83-.21,1.65,1.65,0,0,0-.83.21,1.56,1.56,0,0,0-.59.58,1.65,1.65,0,0,0-.21.83,1.61,1.61,0,0,0,.21.82,1.5,1.5,0,0,0,.59.58,1.65,1.65,0,0,0,.83.21A1.63,1.63,0,0,0,172.12,69.9Z" transform="translate(-44.48 -29.87)"/><path d="M178.33,70.6V67.54l-1.52,2.55h-.28L175,67.56v3h-.57V66.4h.49l1.75,2.95,1.73-2.95h.49v4.2Z" transform="translate(-44.48 -29.87)"/><path d="M183.19,66.79a1.46,1.46,0,0,1,0,2.15,2,2,0,0,1-1.29.39h-1V70.6h-.6V66.4h1.63A2,2,0,0,1,183.19,66.79Zm-.43,1.77a.84.84,0,0,0,.3-.7.87.87,0,0,0-.3-.7,1.37,1.37,0,0,0-.87-.24h-1V68.8h1A1.37,1.37,0,0,0,182.76,68.56Z" transform="translate(-44.48 -29.87)"/><path d="M187,69.55h-2.23l-.46,1h-.62l1.9-4.2h.6l1.91,4.2h-.63Zm-.21-.48-.9-2.06L185,69.07Z" transform="translate(-44.48 -29.87)"/><path d="M192.63,66.4v4.2h-.49l-2.52-3.13V70.6H189V66.4h.49L192,69.53V66.4Z" transform="translate(-44.48 -29.87)"/><path d="M195.8,69.15V70.6h-.59V69.13l-1.67-2.73h.64l1.34,2.21,1.35-2.21h.6Z" transform="translate(-44.48 -29.87)"/></g></g><path class="cls-2" d="M82.52,40.85l-19-11-19,11v22l.05,0h0l19,11V73.8h0v.09l19-11h0l0,0Zm-1.59.86L63.5,51.43,46.09,41.7,63.5,31.64ZM60.64,70.38,50.91,64.7l0-13.27,12.55,7,12.58-7,0,13.27-7.61,4.44L63.5,72Z" transform="translate(-44.48 -29.87)"/><polygon points="62.6 29.6 58.88 29.6 53.44 20.72 53.43 29.84 49.23 29.84 49.23 14.14 53.67 14.14 60.85 25.72 68.04 14.14 72.36 14.14 72.36 29.84 68.04 29.84 68.04 20.72 62.6 29.6"/><path d="M143,59.71,133.53,44h-4.79l-9.48,15.7h4.95l1.67-2.83h10.43L138,59.71Zm-15.06-6.32,3.13-5.3,3.16,5.3Z" transform="translate(-44.48 -29.87)"/><polygon points="168.52 29.83 164.16 29.83 152.87 19.6 152.86 29.83 148.51 29.83 148.51 14.14 152.87 14.14 164.16 24.41 164.16 14.14 168.53 14.14 168.52 29.83"/><path d="M167.87,49.23a5,5,0,0,1,1.58-3.67A5.93,5.93,0,0,1,173.74,44h9.65a5.83,5.83,0,0,1,4.29,1.55,4.87,4.87,0,0,1,1.58,3.64v5.32a5,5,0,0,1-1.59,3.61,5.84,5.84,0,0,1-4.28,1.58h-9.65a5.9,5.9,0,0,1-4.28-1.58,5,5,0,0,1-1.59-3.65Zm14.41,6.93a2.84,2.84,0,0,0,1.91-.65,2.1,2.1,0,0,0,.74-1.7v-4a2.17,2.17,0,0,0-.74-1.71,2.71,2.71,0,0,0-1.9-.65h-7.43a2.72,2.72,0,0,0-1.9.65,2.35,2.35,0,0,0-.74,1.71v4.05a2.07,2.07,0,0,0,.74,1.66,2.81,2.81,0,0,0,1.9.65Z" transform="translate(-44.48 -29.87)"/><polygon points="121.52 14.14 115.46 14.14 110.49 19.01 105.51 14.14 99.45 14.14 107.46 21.98 99.45 29.83 105.51 29.83 110.49 24.96 115.46 29.83 121.52 29.83 113.52 21.98 121.52 14.14"/></svg>