<svg width="321" height="322" version="1.1" xmlns="http://www.w3.org/2000/svg"><path fill="rgb(6,6,6)" stroke="rgb(6,6,6)" stroke-width="1" opacity="1" d="M 12 11 L 312 11 L 312 309.5 L 310.5 311 L 13.5 311 L 12 309.5 L 12 11 Z M 22 61 L 22 148 L 76 148 L 76 181 L 22 181 L 22 301 L 143 301 L 143 245 L 175 245 L 175 301 L 262 301 L 262 61 L 22 61 Z "></path><path fill="rgb(6,6,6)" stroke="rgb(6,6,6)" stroke-width="1" opacity="1" d="M 111 147 L 175 147 L 175 212 L 143 212 L 143 180 L 111 180 L 111 147 Z "></path><path fill="rgb(254,254,254)" stroke="rgb(254,254,254)" stroke-width="1" opacity="1" d="M 14.5 8 L 15 10 L 303.5 10 L 304.5 9 L 306 9.5 L 306.5 8 L 307 10 L 310 9.5 L 308 8.5 L 309.5 8 L 312 9 L 311.5 11 L 12.5 11 Q 9.8 12.3 12 13.5 L 10.5 16 L 9.5 14 L 11 14.5 L 10 12.5 L 10.5 11 L 9 10.5 L 11.5 9 L 14 10 L 14.5 8 Z "></path><path fill="rgb(254,254,254)" stroke="rgb(254,254,254)" stroke-width="1" opacity="1" d="M 257.5 61 L 258.5 63 L 261 62.5 L 261.5 61 L 262 301 L 175 301 L 175 245.5 Q 173.8 242.7 172.5 245 Q 169.2 246.1 170 243.5 L 174 240.5 L 173 242.5 L 176 245.5 L 176 298 L 256.5 298 L 260.5 300 L 261 298 L 257 296.5 L 258.5 297 L 261 296.5 L 261 64.5 L 259.5 63 L 256 63.5 L 257.5 61 Z M 177 299 L 177 300 L 257 300 L 177 299 Z "></path><path fill="rgb(254,254,254)" stroke="rgb(254,254,254)" stroke-width="1" opacity="1" d="M 73.5 144 L 75 146.5 L 74 146.5 L 73.5 145 L 72 145.5 L 73.5 144 Z "></path><path fill="rgb(254,254,254)" stroke="rgb(254,254,254)" stroke-width="1" opacity="1" d="M 79.5 144 L 79 145.5 L 78.5 147 L 78 145.5 L 79.5 144 Z "></path><path fill="rgb(254,254,254)" stroke="rgb(254,254,254)" stroke-width="1" opacity="1" d="M 106.5 144 L 107.5 146 L 106.5 144 Z "></path><path fill="rgb(254,254,254)" stroke="rgb(254,254,254)" stroke-width="1" opacity="1" d="M 109.5 144 L 112 144.5 L 111.5 147 L 110 146.5 L 111 148.5 L 109 149.5 L 109 147.5 L 110 145.5 L 109.5 144 Z "></path><path fill="rgb(254,254,254)" stroke="rgb(254,254,254)" stroke-width="1" opacity="1" d="M 171.5 144 L 172.5 146 L 171.5 144 Z "></path><path fill="rgb(254,254,254)" stroke="rgb(254,254,254)" stroke-width="1" opacity="1" d="M 174.5 144 L 176 147.5 L 176 211.5 L 175 212.5 L 175.5 214 L 174 213.5 L 175 215.5 L 172.5 216 L 170.5 214 L 168 212.5 L 169.5 213 L 171.5 212 L 172.5 215 L 175 211.5 L 175 147.5 L 174.5 144 Z "></path><path fill="rgb(254,254,254)" stroke="rgb(254,254,254)" stroke-width="1" opacity="1" d="M 11.5 145 L 11 146.5 L 12 151 L 10 150.5 L 11 148.5 L 10 146.5 L 11.5 145 Z "></path><path fill="rgb(254,254,254)" stroke="rgb(254,254,254)" stroke-width="1" opacity="1" d="M 22.5 145 Q 24.8 144.3 24 146.5 L 22 147.5 L 22.5 145 Z "></path><path fill="rgb(254,254,254)" stroke="rgb(254,254,254)" stroke-width="1" opacity="1" d="M 104.5 145 L 109 151.5 L 105.5 151 L 104 150.5 L 104 148.5 L 105 146.5 L 104.5 145 Z M 106 147 L 106 151 L 107 151 L 106 147 Z "></path><path fill="rgb(254,254,254)" stroke="rgb(254,254,254)" stroke-width="1" opacity="1" d="M 76 148 L 78 148.5 L 77.5 150 L 79.5 149 L 79.5 152 L 77 151.5 L 76 148 Z "></path><path fill="rgb(254,254,254)" stroke="rgb(254,254,254)" stroke-width="1" opacity="1" d="M 9.5 176 L 12 179.5 L 10 180 L 9.5 176 Z "></path><path fill="rgb(254,254,254)" stroke="rgb(254,254,254)" stroke-width="1" opacity="1" d="M 78.5 176 L 79.5 178 L 77.5 178 L 76 177.5 L 78.5 176 Z "></path><path fill="rgb(254,254,254)" stroke="rgb(254,254,254)" stroke-width="1" opacity="1" d="M 104.5 176 L 107 176.5 L 106.5 178 L 108.5 177 L 109.5 180 L 110.5 176 L 111 179.5 L 110 180.5 L 111.5 183 L 109 181.5 L 110 183.5 L 108 182.5 L 107.5 181 L 106.5 183 L 104 182.5 L 108 179.5 L 104.5 176 Z "></path><path fill="rgb(254,254,254)" stroke="rgb(254,254,254)" stroke-width="1" opacity="1" d="M 76.5 179 L 78.5 179 L 80 179.5 L 78 180.5 L 80 183.5 L 77.5 184 L 75.5 182 L 73.5 184 L 72 182.5 L 72.5 181 L 73.5 183 Q 75.3 179.9 77 181.5 L 76.5 179 Z "></path><path fill="rgb(254,254,254)" stroke="rgb(254,254,254)" stroke-width="1" opacity="1" d="M 8.5 180 L 9.5 182 L 8.5 180 Z "></path><path fill="rgb(254,254,254)" stroke="rgb(254,254,254)" stroke-width="1" opacity="1" d="M 136 180 L 139.5 181 L 143 180.5 L 143 182.5 L 142.5 184 L 140.5 181 L 140 182.5 L 140.5 184 L 138.5 184 L 136 181.5 L 136 180 Z "></path><path fill="rgb(254,254,254)" stroke="rgb(254,254,254)" stroke-width="1" opacity="1" d="M 22.5 181 Q 25.5 182.5 22.5 184 L 22.5 181 Z "></path><path fill="rgb(254,254,254)" stroke="rgb(254,254,254)" stroke-width="1" opacity="1" d="M 136.5 208 L 139 208.5 L 138.5 210 L 140.5 209 L 141.5 212 L 142.5 208 L 143 211.5 L 142 212.5 L 143.5 215 L 141 213.5 L 142 215.5 L 140 214.5 L 139.5 213 L 138.5 215 L 136 214.5 L 140 211.5 L 136.5 208 Z "></path><path fill="rgb(254,254,254)" stroke="rgb(254,254,254)" stroke-width="1" opacity="1" d="M 138.5 240 L 139.5 242 L 141 241.5 Q 138.8 242.8 141.5 244 L 143 241.5 L 142.5 240 Q 145.3 241.3 143 242.5 L 144 244.5 L 141 245.5 L 142 247.5 L 139.5 248 Q 137.3 248.8 138 246.5 L 136 246.5 L 138 242.5 L 138.5 240 Z M 139 243 L 137 245 L 140 247 L 139 243 Z "></path><path fill="rgb(254,254,254)" stroke="rgb(254,254,254)" stroke-width="1" opacity="1" d="M 168.5 240 L 171 240.5 L 168.5 245 L 168 242.5 L 168.5 240 Z "></path><path fill="rgb(254,254,254)" stroke="rgb(254,254,254)" stroke-width="1" opacity="1" d="M 22.5 296 L 24.5 298 L 137 298.5 L 24 299.5 L 137.5 300 L 139.5 300 L 142 299.5 L 138 296.5 L 141 297.5 L 141.5 296 Q 144 297.2 143 301 L 22 300.5 L 22.5 296 Z "></path><path fill="rgb(254,254,254)" stroke="rgb(254,254,254)" stroke-width="1" opacity="1" d="M 10 306 L 12 306.5 L 9.5 310 L 8.5 308 Q 11.1 308.7 10 306 Z "></path><path fill="rgb(254,254,254)" stroke="rgb(254,254,254)" stroke-width="1" opacity="1" d="M 11.5 309 L 12.5 311 L 10.5 312 L 11 310.5 L 11.5 309 Z "></path><path fill="rgb(254,254,254)" stroke="rgb(254,254,254)" stroke-width="1" opacity="1" d="M 311.5 310 L 310.5 312 L 311.5 310 Z "></path><path fill="rgb(255,255,255)" stroke="rgb(255,255,255)" stroke-width="1" opacity="1" d="M 0 0 L 321 0 L 321 322 L 0 322 L 0 0 Z M 15 8 Q 15 11 13 10 L 11 14 L 12 16 L 12 145 L 12 147 L 10 151 L 12 151 L 12 176 L 11 177 L 12 179 L 10 179 L 12 182 L 12 184 L 12 306 L 10 306 L 10 308 L 12 308 L 11 311 L 15 312 L 16 311 L 308 311 L 311 312 L 312 311 L 312 9 L 307 10 L 307 8 L 306 10 L 305 9 L 304 10 L 15 10 L 15 8 Z M 9 308 L 10 310 Q 11 307 9 308 Z "></path><path fill="rgb(255,255,255)" stroke="rgb(255,255,255)" stroke-width="1" opacity="1" d="M 22.5 61 L 24.5 61 L 256.5 61 L 257 62.5 L 258 62.5 Q 257.2 59.5 261 61 L 260 63.5 L 261 64.5 L 261 297 L 258 297.5 L 261 298 L 260.5 300 L 257.5 299 L 256.5 300 L 176.5 300 L 176.5 299 L 257 298.5 L 176 298 L 176 245.5 L 174.5 244 L 172.5 244 L 170.5 243 L 169.5 245 L 168.5 242 L 168 245 L 144.5 245 L 143.5 244 Q 140.8 245.3 143 246.5 L 142.5 297 L 141 296.5 L 140 298.5 L 142 299.5 L 139.5 300 L 137.5 300 L 24.5 300 L 23.5 299 L 22 299.5 L 22 295.5 L 22 184.5 L 23 183.5 Q 20.8 182.2 23.5 181 L 71.5 181 L 72 182.5 L 73 182.5 Q 72.3 180.3 74.5 181 L 76 181.5 L 77 179.5 L 76.5 178 L 78 177.5 L 76 177 L 76 150.5 L 78 148.5 L 23.5 148 L 22 146.5 L 24 146.5 L 24 145 L 22 144.5 L 22 64.5 L 22 62.5 L 22.5 61 Z M 112 146 L 110 149 L 111 151 L 111 153 L 111 176 L 110 177 L 111 180 L 136 180 L 137 182 L 140 180 L 142 180 Q 144 181 142 183 L 143 185 L 143 208 L 142 212 L 168 212 L 169 213 L 171 212 L 173 212 L 175 213 L 176 212 L 176 148 Q 175 145 174 147 L 113 147 L 112 146 Z M 108 148 L 107 151 L 108 151 L 108 148 Z M 106 149 L 104 151 L 106 151 L 106 149 Z M 77 150 L 77 152 L 79 151 L 77 150 Z M 78 180 L 77 182 L 79 183 L 78 180 Z M 107 180 Q 104 182 107 183 L 108 181 L 107 180 Z M 139 181 L 140 183 Q 141 180 139 181 Z M 139 212 Q 136 214 139 215 L 140 213 L 139 212 Z M 139 240 L 139 245 L 141 244 L 139 240 Z M 173 241 L 171 243 L 173 243 L 173 241 Z M 139 246 Q 137 249 140 248 L 139 246 Z M 25 298 L 25 299 L 137 299 L 25 298 Z "></path></svg>