<?xml version="1.0" encoding="UTF-8" standalone="no"?>
<svg
   xmlns:dc="http://purl.org/dc/elements/1.1/"
   xmlns:cc="http://creativecommons.org/ns#"
   xmlns:rdf="http://www.w3.org/1999/02/22-rdf-syntax-ns#"
   xmlns:svg="http://www.w3.org/2000/svg"
   xmlns="http://www.w3.org/2000/svg"
   viewBox="0 0 456 495.11066"
   height="495.11066"
   width="456"
   xml:space="preserve"
   id="svg2"
   version="1.1"><metadata
     id="metadata8"><rdf:RDF><cc:Work
         rdf:about=""><dc:format>image/svg+xml</dc:format><dc:type
           rdf:resource="http://purl.org/dc/dcmitype/StillImage" /></cc:Work></rdf:RDF></metadata><defs
     id="defs6"><clipPath
       id="clipPath18"
       clipPathUnits="userSpaceOnUse"><path
         id="path16"
         d="M 0,371.333 H 342 V 0 H 0 Z" /></clipPath></defs><g
     transform="matrix(1.3333333,0,0,-1.3333333,0,495.11067)"
     id="g10"><g
       id="g12"><g
         clip-path="url(#clipPath18)"
         id="g14"><g
           transform="translate(303.7923,135.4167)"
           id="g20"><path
             id="path22"
             style="fill:#000000;fill-opacity:1;fill-rule:nonzero;stroke:none"
             d="m 0,0 c 0,-1.88 -1.382,-3.143 -3.015,-3.143 v 0.015 C -4.694,-3.143 -6.051,-1.88 -6.051,0 c 0,1.878 1.357,3.136 3.036,3.136 C -1.382,3.136 0,1.878 0,0 m 1.223,0 c 0,2.579 -2.004,4.077 -4.238,4.077 -2.25,0 -4.253,-1.498 -4.253,-4.077 0,-2.578 2.003,-4.081 4.253,-4.081 2.234,0 4.238,1.503 4.238,4.081 m -4.942,-0.344 h 0.453 l 1.053,-1.847 h 1.153 l -1.162,1.922 c 0.601,0.044 1.097,0.331 1.097,1.141 0,1.006 -0.695,1.33 -1.871,1.33 h -1.698 v -4.393 h 0.975 v 1.847 m 0,0.742 v 1.057 h 0.68 c 0.37,0 0.874,-0.028 0.874,-0.48 0,-0.49 -0.259,-0.577 -0.696,-0.577 h -0.858" /></g><g
           transform="translate(266.5804,170.6208)"
           id="g24"><path
             id="path26"
             style="fill:#000000;fill-opacity:1;fill-rule:nonzero;stroke:none"
             d="M 0,0 7.922,-21.677 H -8.172 Z m -8.489,8.441 -18.26,-46.269 h 12.894 l 2.889,8.178 h 21.611 l 2.734,-8.178 h 14 L 8.979,8.445 Z m -36.659,-46.285 h 13.08 v 46.3 L -45.15,8.458 Z m -90.825,46.302 -10.913,-36.697 -10.458,36.695 -14.116,0.002 14.935,-46.302 h 18.847 l 15.052,46.302 z m 52.882,-10.082 h 5.622 c 8.157,0 13.433,-3.663 13.433,-13.167 0,-9.507 -5.276,-13.171 -13.433,-13.171 h -5.622 z M -96.063,8.458 v -46.302 h 21.21 c 11.301,0 14.99,1.879 18.978,6.094 2.821,2.958 4.642,9.452 4.642,16.548 0,6.509 -1.541,12.314 -4.233,15.931 -4.845,6.465 -11.824,7.729 -22.243,7.729 z m -123.926,0.064 v -46.366 h 13.193 v 35.206 l 10.22,-0.003 c 3.386,0 5.798,-0.842 7.429,-2.584 2.068,-2.203 2.913,-5.756 2.913,-12.258 v -20.361 h 12.783 v 25.617 c 0,18.284 -11.655,20.749 -23.056,20.749 z m 102.87,-0.062 0.006,-46.304 h 13.076 V 8.459 Z" /></g><g
           transform="translate(81.7508,271.2702)"
           id="g28"><path
             id="path30"
             style="fill:#76b900;fill-opacity:1;fill-rule:nonzero;stroke:none"
             d="m 0,0 c 0,0 16.826,24.828 50.423,27.395 v 9.006 C 13.211,33.415 -19.014,1.898 -19.014,1.898 c 0,0 18.25,-52.764 69.437,-57.594 v 9.574 C 12.861,-41.396 0,0 0,0 m 50.423,-27.082 v -8.769 c -28.39,5.061 -36.269,34.572 -36.269,34.572 0,0 13.63,15.102 36.269,17.55 V 6.649 c -0.018,0 -0.029,0.005 -0.045,0.005 C 38.5,8.081 29.217,-3.02 29.217,-3.02 c 0,0 5.2,-18.684 21.206,-24.062 m 0,80.099 V 36.401 c 1.092,0.086 2.184,0.155 3.282,0.195 42.309,1.425 69.873,-34.698 69.873,-34.698 0,0 -31.662,-38.499 -64.644,-38.499 -3.023,0 -5.852,0.279 -8.511,0.75 v -10.271 c 2.274,-0.289 4.629,-0.459 7.087,-0.459 30.695,0 52.893,15.674 74.388,34.227 3.56,-2.854 18.152,-9.795 21.151,-12.837 -20.438,-17.109 -68.065,-30.898 -95.067,-30.898 -2.602,0 -5.105,0.157 -7.559,0.393 V -70.13 H 167.086 V 53.017 Z m 0,-36.746 v 11.124 c 1.079,0.076 2.17,0.134 3.282,0.169 30.424,0.956 50.384,-26.142 50.384,-26.142 0,0 -21.558,-29.942 -44.673,-29.942 -3.329,0 -6.308,0.537 -8.993,1.438 V 6.649 C 62.267,5.219 64.647,-0.013 71.771,-11.882 L 87.607,1.47 c 0,0 -11.56,15.163 -31.048,15.163 -2.121,0 -4.147,-0.15 -6.136,-0.362" /></g><g
           transform="translate(144.5755,46.4469)"
           id="g32"><path
             id="path34"
             style="fill:#000000;fill-opacity:1;fill-rule:nonzero;stroke:none"
             d="M 0,0 V 31.844 L -10.972,8.63 h -5.352 L -27.562,31.844 V 0 h -7.225 v 47.632 h 7.225 L -13.647,17.996 0,47.632 H 7.225 V 0 Z" /></g><g
           transform="translate(184.2454,84.3786)"
           id="g36"><path
             id="path38"
             style="fill:#000000;fill-opacity:1;fill-rule:nonzero;stroke:none"
             d="m 0,0 c -2.007,2.208 -4.683,3.211 -8.094,3.211 h -8.764 v -34.653 h 8.764 c 3.411,0 6.087,1.004 8.094,3.211 2.476,2.743 2.543,7.894 2.543,14.45 C 2.543,-7.225 2.476,-2.743 0,0 M 4.951,-33.449 C 1.94,-36.46 -2.407,-37.932 -7.358,-37.932 H -24.083 V 9.7 h 16.725 c 4.951,0 9.298,-1.471 12.309,-4.482 5.152,-5.152 4.817,-12.109 4.817,-18.999 0,-6.891 0.335,-14.517 -4.817,-19.668" /></g><g
           transform="translate(202.0404,46.4469)"
           id="g40"><path
             id="path42"
             style="fill:#000000;fill-opacity:1;fill-rule:nonzero;stroke:none"
             d="M 0,0 V 47.632 H 7.225 V 6.489 H 30.171 V 0 Z" /></g></g></g></g></svg>