<svg id="Layer_1" data-name="Layer 1" xmlns="http://www.w3.org/2000/svg" viewBox="0 0 2902.81105 2539.80005"><defs><style>.cls-1{fill:#0071bc;}.cls-2{fill:#3dbff6;}.cls-3{fill:#208fcc;}.cls-4{fill:#fff;}</style></defs><path class="cls-1" d="M127.61235,2413.25081V1882.05706c0-5.199,2.60017-7.81211,7.81212-7.81211h9.37385q6.24286,0,8.59264,6.24969l99.2084,248.41159c.51239,1.56242,1.2936,2.2215,2.34363,1.95269a3.48361,3.48361,0,0,0,2.34364-1.95269L358.838,1880.49464c1.56242-4.16191,4.41845-6.24969,8.59333-6.24969h9.37385c5.19966,0,7.81143,2.61313,7.81143,7.81211v531.19375q0,7.81894-7.81143,7.81212H368.9938q-7.81791,0-7.81211-7.81212V1936.73913c0-1.56242-.52467-2.46576-1.56242-2.73458-1.04935-.25654-1.83056.39027-2.34295,1.95269l-91.39714,227.32093c-1.56242,4.17419-4.43073,6.24832-8.59264,6.24832h-.78121c-4.17419,0-7.0309-2.07413-8.59333-6.24832l-92.9587-227.32093a2.517,2.517,0,0,0-2.34363-1.56242c-1.04935,0-1.56243.78189-1.56243,2.34431v476.51168q0,7.81894-7.81143,7.81212h-7.81134Q127.60655,2421.06293,127.61235,2413.25081Z"/><path class="cls-1" d="M731.45194,1896.11887H540.84659a2.76313,2.76313,0,0,0-3.12485,3.12348V2133.5935a2.75918,2.75918,0,0,0,3.12485,3.12484h124.987q7.79951,0,7.81144,7.81075v5.46916q0,7.8169-7.81144,7.81075h-124.987a2.76411,2.76411,0,0,0-3.12485,3.12485v235.13168a2.75868,2.75868,0,0,0,3.12485,3.12484H731.45194q7.79949,0,7.81143,7.81212v6.24832q0,7.81894-7.81143,7.81212H522.09888q-7.81791,0-7.81212-7.81212V1882.05706c0-5.199,2.60018-7.81211,7.81212-7.81211H731.45194c5.19966,0,7.81143,2.61313,7.81143,7.81211v6.24969Q739.26337,1896.12364,731.45194,1896.11887ZM856.8258,2390.20746q-32.425-37.09491-32.41857-98.03691v-14.84234q0-7.80051,7.81144-7.81211h7.0309q7.79949,0,7.81143,7.81211v14.06044q0,51.55791,26.16956,83.19459,26.16273,31.638,67.571,31.63735,41.39534,0,68.74251-30.4652,27.33454-30.46519,27.341-79.67947,0-32.0208-12.4987-55.4626a143.38665,143.38665,0,0,0-30.85614-39.83973q-18.36428-16.40544-60.54082-47.65185-39.83973-30.46521-60.93108-50.77534a170.03659,170.03659,0,0,1-34.37125-46.86995q-13.2922-26.54754-13.27992-63.27472,0-57.80077,31.63736-91.00533,31.637-33.19364,80.851-33.19978,53.1135,0,85.53753,37.49542,32.40663,37.4961,32.41857,98.42718v19.52944q0,7.81714-7.81143,7.81075h-7.0309q-7.81689.00026-7.81144-7.81075V2004.701q0-52.32727-26.16887-83.97648-26.18116-31.63574-69.13346-31.63736-39.07114.00025-64.05593,27.34172-25.00933,27.35221-24.9974,77.33516,0,28.90985,10.15507,50.38506a137.02162,137.02162,0,0,0,29.68467,40.23q19.51663,18.74934,57.80623,46.87,46.08261,34.38516,68.35225,55.07234a151.95182,151.95182,0,0,1,33.981,44.91726q11.71714,24.2226,11.71749,59.36934,0,61.7187-32.80883,99.20772-32.80986,37.49636-85.148,37.49678-52.34389.00026-84.75632-37.10516Zm522.988-515.96251h7.81212c5.199,0,7.81075,2.61313,7.81075,7.81211v531.19375q0,7.81894-7.81075,7.81212h-7.81212q-7.81689,0-7.81211-7.81212v-252.317a2.76875,2.76875,0,0,0-3.12485-3.12485H1194.67689a2.76388,2.76388,0,0,0-3.12485,3.12485v252.317q0,7.81894-7.81211,7.81212h-7.81075q-7.81894,0-7.81212-7.81212V1882.05706c0-5.199,2.59949-7.81211,7.81212-7.81211h7.81075c5.20034,0,7.81211,2.61313,7.81211,7.81211V2133.5935a2.759,2.759,0,0,0,3.12485,3.12484H1368.8768a2.76388,2.76388,0,0,0,3.12485-3.12484V1882.05706C1372.00165,1876.85808,1374.6025,1874.245,1379.81376,1874.245Zm365.58239,540.56829L1651.65624,2157.809a3.065,3.065,0,0,0-3.12485-2.343h-89.05264a2.76388,2.76388,0,0,0-3.12485,3.12485v254.65991q0,7.81894-7.81075,7.81212H1540.731q-7.81894,0-7.81212-7.81212V1880.49464q0-7.79847,7.81212-7.81075h110.9252q52.32751,0,83.97647,39.05784,31.636,39.07012,31.63736,103.11445,0,55.47353-24.21687,92.17749-24.22233,36.7265-66.39956,46.08807c-2.08642,1.05071-2.86831,2.34431-2.34295,3.90674l93.73991,255.44181.78053,3.12484q0,5.47326-7.03022,5.4678h-7.03022Q1747.73978,2421.06293,1745.39615,2414.81324ZM1556.3539,1897.67993v233.56925a2.759,2.759,0,0,0,3.12485,3.12485h91.39679q42.18336,0,67.57035-32.80815,25.37675-32.80884,25.389-86.7097,0-53.90154-25.389-87.10132-25.39313-33.19159-67.57035-33.19841h-91.397a2.76343,2.76343,0,0,0-3.12485,3.12365Zm328.08015,494.87049q-33.59688-34.74924-33.59005-91.0067v-306.999q0-56.24313,33.59005-91.3956,33.57844-35.15247,86.70969-35.15247,53.89948,0,87.88185,35.15247,33.97962,35.15247,33.98031,91.3956v306.999q0,56.24517-33.98031,91.0067-33.98168,34.76766-87.88185,34.7622Q1918.01181,2427.31262,1884.43405,2392.55042Zm157.79515-15.62287q27.33558-28.50841,27.34172-73.82141V1992.98363q0-45.29663-27.34172-74.21168-27.35194-28.89117-71.08546-28.90277-42.97141,0-69.91467,28.90277-26.95077,28.90961-26.95009,74.21168v310.12251q0,45.315,26.95009,73.82141,26.95077,28.5248,69.91467,28.51251Q2014.88271,2405.44006,2042.2292,2376.92755Zm190.60467,15.62287q-33.59686-34.74924-33.59-91.0067v-306.999q0-56.24313,33.59-91.3956,33.57845-35.15247,86.7097-35.15247,53.89949,0,87.88185,35.15247,33.97962,35.15247,33.98031,91.3956v306.999q0,56.24517-33.98031,91.0067-33.98167,34.76766-87.88185,34.7622Q2266.41164,2427.31262,2232.83387,2392.55042Zm157.79516-15.62287q27.33558-28.50841,27.34172-73.82141V1992.98363q0-45.29663-27.34172-74.21168-27.35194-28.89117-71.08546-28.90277-42.97141,0-69.91467,28.90277-26.95077,28.90961-26.95009,74.21168v310.12251q0,45.315,26.95009,73.82141,26.95077,28.5248,69.91467,28.51251Q2363.28253,2405.44006,2390.629,2376.92755Zm172.63749,36.32326V1882.05706c0-5.199,2.59949-7.81211,7.81212-7.81211h9.37317q6.24492,0,8.594,6.24969l99.20771,248.41159c.51307,1.56242,1.2936,2.2215,2.343,1.95269a3.48351,3.48351,0,0,0,2.34432-1.95269l101.552-248.41159q2.34364-6.24286,8.59265-6.24969h9.37317c5.20034,0,7.81212,2.61313,7.81212,7.81211v531.19375q-.00052,7.81894-7.81212,7.81212h-7.81075q-7.81893,0-7.81211-7.81212V1936.73913c0-1.56242-.52536-2.46576-1.56243-2.73458-1.04934-.25654-1.83124.39027-2.34295,1.95269l-91.397,227.32093c-1.56242,4.17419-4.43073,6.24832-8.59264,6.24832h-.7819c-4.17419,0-7.03022-2.07413-8.59264-6.24832l-92.958-227.32093a2.51919,2.51919,0,0,0-2.34432-1.56242c-1.04934,0-1.56242.78189-1.56242,2.34431v476.51168q0,7.81894-7.81075,7.81212h-7.81211Q2563.2597,2421.06293,2563.26652,2413.25081Z"/><path class="cls-2" d="M1809.9307,184.23994H1148.16513l330.88278,572.33793h661.76574Z"/><path class="cls-3" d="M817.28235,756.57787l330.88278-572.33793,330.88278,572.33793L1148.16513,1328.9157Z"/><path class="cls-2" d="M817.28235,756.57787h661.76573l330.88279,572.33783H1148.16513Z"/><path class="cls-1" d="M1809.9307,184.23994,1479.04791,756.57787,1809.9307,1328.9157l330.88261-572.33783Z"/><path class="cls-4" d="M2024.55745,953.319,1854.6443,667.15005,1756.27392,846.0056l160.97,286.16883Z"/><ellipse class="cls-1" cx="1881.47261" cy="926.4899" rx="17.88565" ry="26.82839"/><circle class="cls-4" cx="817.28183" cy="756.57684" r="53.65677"/><circle class="cls-4" cx="1479.04689" cy="756.57684" r="53.65677"/><circle class="cls-4" cx="1148.16513" cy="1328.91536" r="53.65677"/><circle class="cls-4" cx="1809.93018" cy="1328.91536" r="53.65677"/><circle class="cls-4" cx="1148.16513" cy="184.23973" r="53.65675"/><circle class="cls-4" cx="1809.93018" cy="184.23973" r="53.65675"/><circle class="cls-4" cx="2140.81331" cy="756.57684" r="53.65669"/><path class="cls-4" d="M1487.99074,774.46334H790.45387l348.76844-608.10892H1836.759Zm-634.93727-35.771h617.05162l312.9973-536.56675H1157.108Z"/><path class="cls-4" d="M1818.87352,1346.80118H1139.22231L808.33952,765.52061l26.8283-17.88557,321.94,563.395H1800.988l312.99731-554.45228-321.9403-563.395,26.8283-17.88557L2158.699,756.57787Z"/><path class="cls-4" d="M1459.59814,766.102l30.95627-17.92163,331.5492,572.68921-30.95627,17.92164Z"/></svg>