<?xml version="1.0" encoding="UTF-8" standalone="no"?>
<svg
   xmlns:dc="http://purl.org/dc/elements/1.1/"
   xmlns:cc="http://creativecommons.org/ns#"
   xmlns:rdf="http://www.w3.org/1999/02/22-rdf-syntax-ns#"
   xmlns:svg="http://www.w3.org/2000/svg"
   xmlns="http://www.w3.org/2000/svg"
   version="1.1"
   viewBox="0 0 2423.97198 2418.04364"
   data-name="Calque 1"
   id="Calque_1">
  <metadata
     id="metadata47">
    <rdf:RDF>
      <cc:Work
         rdf:about="">
        <dc:format>image/svg+xml</dc:format>
        <dc:type
           rdf:resource="http://purl.org/dc/dcmitype/StillImage" />
      </cc:Work>
    </rdf:RDF>
  </metadata>
  <defs
     id="defs4">
    <style
       id="style2">.cls-1,.cls-6{fill:#0071bc;}.cls-1{stroke:#000;stroke-miterlimit:10;}.cls-2{font-size:559.05072px;font-family:BarlowCondensed-Thin, Barlow Condensed;font-weight:200;letter-spacing:-0.00999em;}.cls-2,.cls-7{fill:#fff;}.cls-3{letter-spacing:0em;}.cls-4{fill:#3dbff6;}.cls-5{fill:#208fcc;}</style>
  </defs>
  <rect
     id="rect6"
     height="2418.04364"
     width="2418.04364"
     class="cls-1" />
  <g
     class="cls-2"
     style="font-weight:200;font-size:559.051px;font-family:BarlowCondensed-Thin, 'Barlow Condensed';letter-spacing:-0.00999em;fill:#ffffff"
     id="text10"
     transform="translate(192.6568,2018.793)"
     aria-label="MESHROOM">
    <path
       id="path49"
       style="font-weight:200;font-size:559.051px;font-family:BarlowCondensed-Thin, 'Barlow Condensed';letter-spacing:-0.00999em;fill:#ffffff"
       d="M 416.5583,0 H 362.50945 V -350.22562 L 249.49822,-111.91933 H 217.28729 L 105.09498,-350.22562 V 0 H 54.594797 v -406.45826 h 73.702973 l 108.37067,226.29543 104.82201,-226.29543 h 75.06785 z" />
    <path
       id="path51"
       style="letter-spacing:0em"
       d="M 599.10985,0 H 331.32237 v -406.45826 h 267.78748 v 48.04342 H 385.37122 v 111.37338 h 213.73863 v 48.04343 H 385.37122 v 150.954609 h 213.73863 z" />
    <path
       id="path53"
       style="letter-spacing:0em"
       d="m 980.45451,-116.01394 q 0,23.748733 -11.19193,46.951522 -10.91896,23.202789 -30.84606,39.308254 -21.83792,17.470335 -51.04614,27.2973981 -28.93524,9.8270635 -69.88134,9.8270635 -43.94881,0 -79.16245,-8.18921955 Q 703.38592,-9.0081415 667.08038,-25.113607 v -67.697548 h 3.82163 q 30.84606,25.659555 71.24621,39.581228 40.40015,13.921673 75.88677,13.921673 50.22721,0 78.07056,-18.835205 28.11632,-18.835205 28.11632,-50.227211 0,-27.02443 -13.37573,-39.8542 -13.10275,-12.82978 -40.12717,-19.9271 -20.47305,-5.45948 -44.49476,-9.00815 -23.74874,-3.54866 -50.50019,-9.00814 -54.04885,-11.4649 -80.25435,-39.03528 -25.93253,-27.84334 -25.93253,-72.3381 0,-51.04614 43.12989,-83.53004 43.12989,-32.75688 109.46257,-32.75688 42.85691,0 78.61651,8.18922 35.75959,8.18922 63.32996,20.20007 v 63.87592 h -3.82164 q -23.20278,-19.65413 -61.14617,-32.48391 -37.67041,-13.10275 -77.25164,-13.10275 -43.40286,0 -69.88134,18.01628 -26.2055,18.01629 -26.2055,46.40558 0,25.38658 13.10275,39.8542 13.10275,14.46762 46.13261,22.1109 17.47033,3.82163 49.68126,9.28111 32.21093,5.45948 54.5948,11.19193 45.31368,12.01086 68.24349,36.30554 22.92982,24.29469 22.92982,67.97053 z" />
    <path
       id="path55"
       style="letter-spacing:0em"
       d="m 1378.1776,0 h -54.0488 V -198.99803 H 1121.3091 V 0 h -54.0489 v -406.45826 h 54.0489 v 159.4168 h 202.8197 v -159.4168 h 54.0488 z" />
    <path
       id="path57"
       style="letter-spacing:0em"
       d="m 1823.9442,0 h -70.1543 l -135.9411,-161.6006 h -76.1597 V 0 h -54.0489 v -406.45826 h 113.8302 q 36.8515,0 61.4191,4.91353 24.5677,4.64056 44.2218,16.92439 22.1109,13.92167 34.3947,35.21364 12.5568,21.019 12.5568,53.5029 0,43.94881 -22.1108,73.70298 -22.1109,29.48119 -60.8732,44.49476 z m -126.387,-292.08216 q 0,-17.47034 -6.2784,-30.84606 -6.0054,-13.6487 -20.2,-22.92982 -11.7379,-7.91624 -27.8434,-10.91896 -16.1055,-3.27569 -37.9434,-3.27569 h -63.6029 v 153.41138 h 54.5948 q 25.6595,0 44.7677,-4.36758 19.1082,-4.64056 32.4839,-16.92439 12.2839,-11.4649 18.0163,-26.2055 6.0054,-15.01357 6.0054,-37.94338 z" />
    <path
       id="path59"
       style="letter-spacing:0em"
       d="m 2179.3562,-359.77971 q 24.8406,27.2974 37.9434,66.87862 13.3757,39.58123 13.3757,89.80845 0,50.22721 -13.6487,90.08141 -13.3757,39.581228 -37.6704,66.059705 -25.1136,27.570372 -59.5083,41.4920453 -34.1218,13.9216732 -78.0706,13.9216732 -42.8569,0 -78.0705,-14.1946472 -34.9407,-14.1946473 -59.5084,-41.2190713 -24.5676,-27.024425 -37.9434,-66.332675 -13.1027,-39.30826 -13.1027,-89.80844 0,-49.68127 13.1027,-88.98952 13.1028,-39.58123 38.2164,-67.69755 24.0217,-26.75145 59.5083,-40.9461 35.7596,-14.19465 77.7976,-14.19465 43.6759,0 78.3435,14.46762 34.9407,14.19465 59.2354,40.67313 z m -4.9135,156.68707 q 0,-79.16246 -35.4866,-122.01938 -35.4867,-43.12989 -96.9058,-43.12989 -61.9651,0 -97.4517,43.12989 -35.2137,42.85692 -35.2137,122.01938 0,79.98137 36.0326,122.565315 36.0326,42.310967 96.6328,42.310967 60.6002,0 96.3598,-42.310967 36.0326,-42.583945 36.0326,-122.565315 z" />
    <path
       id="path61"
       style="letter-spacing:0em"
       d="m 2619.3904,-359.77971 q 24.8406,27.2974 37.9434,66.87862 13.3757,39.58123 13.3757,89.80845 0,50.22721 -13.6487,90.08141 -13.3757,39.581228 -37.6704,66.059705 -25.1136,27.570372 -59.5083,41.4920453 -34.1218,13.9216732 -78.0706,13.9216732 -42.8569,0 -78.0706,-14.1946472 -34.9406,-14.1946473 -59.5083,-41.2190713 -24.5677,-27.024425 -37.9434,-66.332675 -13.1027,-39.30826 -13.1027,-89.80844 0,-49.68127 13.1027,-88.98952 13.1028,-39.58123 38.2164,-67.69755 24.0217,-26.75145 59.5083,-40.9461 35.7596,-14.19465 77.7976,-14.19465 43.6758,0 78.3435,14.46762 34.9407,14.19465 59.2354,40.67313 z m -4.9135,156.68707 q 0,-79.16246 -35.4867,-122.01938 -35.4866,-43.12989 -96.9057,-43.12989 -61.9651,0 -97.4517,43.12989 -35.2137,42.85692 -35.2137,122.01938 0,79.98137 36.0326,122.565315 36.0325,42.310967 96.6328,42.310967 60.6002,0 96.3598,-42.310967 36.0326,-42.583945 36.0326,-122.565315 z" />
    <path
       id="path63"
       style="letter-spacing:0em"
       d="m 3118.3867,0 h -54.0488 v -350.22562 l -113.0113,238.30629 h -32.2109 L 2806.9234,-350.22562 V 0 h -50.5002 v -406.45826 h 73.703 l 108.3706,226.29543 104.8221,-226.29543 h 75.0678 z" />
  </g>
  <path
     id="path12"
     d="M1445.82151,417.98715H972.22213l236.79969,409.59949H1682.6212Z"
     class="cls-4" />
  <path
     id="path14"
     d="M735.42241,827.58664,972.22213,417.98715l236.79969,409.59949L972.22213,1237.1861Z"
     class="cls-5" />
  <path
     id="path16"
     d="M735.42241,827.58664h473.59941l236.79969,409.59946H972.22213Z"
     class="cls-4" />
  <path
     id="path18"
     d="M1445.82151,417.98715,1209.02182,827.58664l236.79969,409.59946L1682.6212,827.58664Z"
     class="cls-6" />
  <path
     id="path20"
     d="M1599.42135,968.38645,1477.82147,763.58672,1407.4216,891.58656l115.1998,204.79973Z"
     class="cls-7" />
  <ellipse
     id="ellipse22"
     ry="19.19999"
     rx="12.79997"
     cy="949.18646"
     cx="1497.02146"
     class="cls-6" />
  <circle
     id="circle24"
     r="38.39996"
     cy="827.58665"
     cx="735.42241"
     class="cls-7" />
  <circle
     id="circle26"
     r="38.39997"
     cy="827.58665"
     cx="1209.02183"
     class="cls-7" />
  <circle
     id="circle28"
     r="38.39996"
     cy="1237.1861"
     cx="972.22213"
     class="cls-7" />
  <circle
     id="circle30"
     r="38.39998"
     cy="1237.1861"
     cx="1445.82151"
     class="cls-7" />
  <circle
     id="circle32"
     r="38.39995"
     cy="417.98715"
     cx="972.22213"
     class="cls-7" />
  <circle
     id="circle34"
     r="38.39996"
     cy="417.98715"
     cx="1445.82151"
     class="cls-7" />
  <circle
     id="circle36"
     r="38.39997"
     cy="827.58665"
     cx="1682.6212"
     class="cls-7" />
  <path
     id="path38"
     d="M1215.42184,840.38661H716.22244L965.82211,405.18717H1465.0215ZM761.02238,814.78667h441.59945l223.99969-383.99954H978.62211Z"
     class="cls-7" />
  <path
     id="path40"
     d="M1452.22153,1249.98613H965.82211L729.02242,833.98665l19.2-12.8,230.39971,403.19948h460.79945l223.99971-396.79949L1433.02154,424.38715l19.2-12.8,243.1997,415.99948Z"
     class="cls-7" />
  <rect
     id="rect42"
     transform="translate(-339.23864 802.75498) rotate(-30.06754)"
     height="473.58001"
     width="25.5989"
     y="796.1263"
     x="1312.0187"
     class="cls-7" />
</svg>
