<?xml version="1.0" encoding="UTF-8"?>
<svg id="Layer_2" data-name="Layer 2" xmlns="http://www.w3.org/2000/svg" viewBox="0 0 976 272">
  <defs>
    <style>
      .cls-1 {
        fill: none;
      }

      .cls-2 {
        fill: #111215;
      }
    </style>
  </defs>
  <g id="Layer_1-2" data-name="Layer 1">
    <g>
      <g>
        <path class="cls-2" d="M920,152h-32c-8.82,0-16-7.18-16-16s7.18-16,16-16h72v-32h-72c-26.47,0-48,21.53-48,48s21.53,48,48,48h32c8.82,0,16,7.18,16,16s-7.18,16-16,16h-80v32h80c26.47,0,48-21.53,48-48s-21.53-48-48-48Z"/>
        <rect class="cls-2" x="784" y="88" width="32" height="160"/>
        <rect class="cls-2" x="616" y="88" width="32" height="160"/>
        <polygon class="cls-2" points="479.1 200 464.9 200 392 24 360 24 360 248 392 248 392 120 397.5 120 450.51 248 493.49 248 546.5 120 552 120 552 248 584 248 584 24 552 24 479.1 200"/>
        <rect class="cls-2" x="616" y="24" width="32" height="32"/>
        <rect class="cls-2" x="784" y="24" width="32" height="32"/>
        <path class="cls-2" d="M719.88,92.94l-7.88,19.06-9.94-24h-22.06v160h32v-112c0-8.84,7.16-16,16-16h36v-32h-36.72c-3.24,0-6.16,1.96-7.4,4.94Z"/>
        <polygon class="cls-2" points="114.51 264 157.49 264 184 200 88 200 114.51 264"/>
        <polygon class="cls-2" points="158.86 88 192 8 80 8 113.14 88 158.86 88"/>
        <polygon class="cls-2" points="184 200 264 200 264 72 237.02 72 184 200"/>
        <polygon class="cls-2" points="8 72 8 200 88 200 34.98 72 8 72"/>
      </g>
      <rect class="cls-1" width="976" height="272"/>
    </g>
  </g>
</svg>