<?xml version="1.0" encoding="UTF-8"?>
<svg id="Layer_1" data-name="Layer 1" xmlns="http://www.w3.org/2000/svg" viewBox="0 0 900.24 260.16">
  <defs>
    <style>
      .cls-1 {
        fill: #0333d0;
      }

      .cls-2 {
        fill: none;
      }
    </style>
  </defs>
  <path class="cls-2" d="m0,260.16C0,173.44,0,86.72,0,0,300.08,0,600.16,0,900.24,0v260.16H0Zm129.31-71.31c-.11,0-.22-.01-.33-.02-.21-.42-.43-.82-.62-1.25-1.5-3.52-3-7.05-4.5-10.57-9.69-22.76-19.39-45.51-29.09-68.27-9.13-21.44-18.27-42.87-27.37-64.32-.41-.96-.91-1.2-1.87-1.19-7.6.03-15.19.02-22.79.02q-1.67,0-1.67,1.73c0,26.33,0,52.67,0,79,0,30.37,0,60.74,0,91.11,0,1.59,0,1.59,1.57,1.59,6.12,0,12.24,0,18.35,0q1.77,0,1.77-1.73c0-34.21,0-68.41,0-102.62,0-8.63,0-17.26,0-25.89,0-.43.06-.86.09-1.29.41.27.58.54.7.83,9.79,22.98,19.57,45.96,29.35,68.94,8.59,20.19,17.19,40.37,25.76,60.57.38.9.86,1.24,1.86,1.23,5.68-.05,11.36-.05,17.03,0,.9,0,1.34-.3,1.69-1.12,9.07-21.46,18.15-42.92,27.25-64.37,9.16-21.6,18.32-43.19,27.49-64.79.18-.41.4-.8.61-1.2.11.02.23.04.34.06,0,.53,0,1.06,0,1.6,0,42.76,0,85.51-.03,128.27,0,1.19.28,1.57,1.52,1.56,6.28-.06,12.56-.05,18.83,0,1.03,0,1.41-.26,1.38-1.34-.07-2.52-.02-5.03-.02-7.55,0-54.27,0-108.53,0-162.8q0-1.76-1.76-1.76c-7.44,0-14.88.03-22.31-.03-1.16,0-1.68.38-2.1,1.42-1.83,4.47-3.75,8.9-5.63,13.34-8.25,19.47-16.5,38.94-24.75,58.41-9.07,21.38-18.15,42.75-27.22,64.12-1.18,2.78-2.35,5.57-3.53,8.35Zm354.5-58.95c0,28.29,0,56.58,0,84.87,0,2.08-.21,1.9,1.96,1.9,19.39,0,38.79,0,58.18,0,2.67,0,5.35-.11,8.02-.22,6.6-.28,13.08-1.38,19.42-3.16,17.95-5.05,32.56-14.93,43.21-30.34,9.69-14.01,14.14-29.79,15.07-46.62.4-7.21.19-14.43-.86-21.61-1.2-8.16-3.24-16.08-6.49-23.67-5.28-12.32-13.05-22.77-23.72-30.94-14.91-11.42-32.04-16.51-50.58-16.78-20.83-.3-41.66-.08-62.5-.08q-1.72,0-1.72,1.78c0,28.29,0,56.58,0,84.87Zm322.53,62.14c.35-.26.5-.39.67-.48,5.07-2.73,6.36-8.11,5.39-13.06-1.13-5.75-6.35-9.28-12.27-9.55-5.11-.23-10.23-.05-15.35-.11-1.07-.01-1.36.35-1.36,1.38.03,15.07.03,30.13,0,45.2,0,1,.32,1.3,1.31,1.29,5-.04,10-.01,15-.02,2.55,0,4.99-.56,7.29-1.66,4.74-2.25,7.15-6.11,7.18-11.25.03-4.97-2.16-8.84-6.75-11.13-.31-.15-.6-.33-1.09-.61Zm19.41-76.36v-1.61c0-5.87-.02-11.75.02-17.62,0-.89-.27-1.21-1.16-1.17-1.36.06-2.72.02-4.08.02q-1.78,0-1.78,1.84c0,12.11,0,24.21,0,36.32,0,2.88.03,5.75-.02,8.63-.02.96.3,1.26,1.24,1.22,1.48-.07,2.96-.08,4.44,0,1.04.06,1.38-.26,1.37-1.34-.05-6.03,0-12.07-.05-18.1-.01-1.15.31-1.47,1.47-1.47,7.6.05,15.19.03,22.79.03q1.83,0,1.83,1.84c0,5.91.02,11.83-.02,17.74,0,.99.3,1.34,1.3,1.29,1.48-.07,2.96-.08,4.44,0,1.07.06,1.35-.31,1.35-1.36-.04-8.59-.02-17.18-.02-25.77,0-6.55-.02-13.11.02-19.66,0-.93-.24-1.29-1.21-1.25-1.48.07-2.96.09-4.44,0-1.1-.07-1.45.29-1.44,1.4.05,5.79.02,11.59.02,17.38,0,1.62,0,1.62-1.67,1.62-7.6,0-15.19,0-22.79,0-.47,0-.94,0-1.6,0Zm-58.24,101c-.22-.64-.34-1.05-.49-1.45-1.77-4.74-3.54-9.49-5.31-14.23-3.85-10.31-7.7-20.61-11.51-30.93-.35-.96-.86-1.28-1.85-1.24-1.8.07-3.6.08-5.39,0-1.02-.04-1.46.35-1.8,1.28-5.65,15.21-11.33,30.41-17.01,45.61-.1.27-.14.57-.23.96,2.3,0,4.46-.03,6.61.02.81.02,1.2-.24,1.48-1.02,1.22-3.46,2.52-6.89,3.76-10.34.28-.78.65-1.15,1.54-1.14,5.56.04,11.11.03,16.67,0,.8,0,1.22.25,1.49,1.03,1,2.82,2.08,5.61,3.13,8.41q1.15,3.05,4.37,3.05h4.55Zm-46.89-97.38c0,7.59,0,15.18,0,22.77,0,.7,0,1.23.97,1.23,8.07-.03,16.15-.02,24.22,0,.83,0,1.02-.35,1-1.09-.04-1.48-.07-2.96,0-4.43.06-1.04-.36-1.27-1.32-1.26-5.48.04-10.95-.01-16.43.04-1.15.01-1.43-.4-1.42-1.45.04-3.75.04-7.51,0-11.27-.01-1.08.32-1.45,1.44-1.44,5.04.06,10.07,0,15.11.04.87,0,1.22-.23,1.18-1.15-.06-1.44-.08-2.88,0-4.31.07-1.1-.36-1.33-1.38-1.32-5,.05-9.99,0-14.99.04-1.07.01-1.38-.34-1.37-1.37.04-3.63.05-7.27,0-10.91-.02-1.1.34-1.42,1.44-1.41,5.52.05,11.03,0,16.55.04.88,0,1.21-.26,1.18-1.16-.06-1.44-.07-2.88,0-4.31.05-.97-.24-1.32-1.27-1.31-7.87.04-15.75.04-23.62,0-1.09,0-1.33.36-1.33,1.38.04,7.55.02,15.1.02,22.65Zm79.2,13.62c-4.04,3.12-8.45,4.37-13.26,4.07-4.88-.31-9.02-2.28-12.18-6.08-5.26-6.33-5.54-15.88-.63-22.46,3.08-4.14,7.27-6.42,12.39-6.85,5.01-.42,9.59.88,13.69,4.16,0-2.49-.06-4.72.03-6.96.04-1.02-.36-1.49-1.24-1.88-4.48-1.97-9.12-2.74-14.01-2.14-6.88.84-12.54,3.86-16.73,9.4-4.56,6.04-5.71,12.89-4.41,20.19,1.01,5.66,3.8,10.38,8.25,14.06,3.73,3.08,8.01,4.85,12.83,5.41,5,.58,9.78-.08,14.29-2.36.39-.19.93-.61.94-.93.08-2.46.04-4.92.04-7.62Zm31.65,73.94c0,2.43.04,4.62-.02,6.81-.02.86.28,1.29,1.06,1.61,4.86,2.02,9.85,2.86,15.08,1.87,9.6-1.83,13.18-10.74,10.2-18.18-1.31-3.27-4-5.31-6.89-7.1-3.16-1.96-6.33-3.89-9.44-5.91-2.26-1.47-3.47-3.59-2.91-6.33.55-2.68,2.43-4.17,5.03-4.68,4.2-.82,8.06.2,11.69,2.33.36.21.72.42,1.25.73,0-2.26-.06-4.3.03-6.33.04-1.03-.38-1.5-1.26-1.86-4.78-1.97-9.71-2.27-14.67-1.03-7.19,1.79-10.61,7.67-9.45,14.92.65,4.03,3.16,6.69,6.45,8.77,3.07,1.94,6.2,3.8,9.22,5.81,1.21.81,2.39,1.8,3.25,2.95,1.93,2.58,1.32,6.01-1.24,7.98-2.58,1.98-5.54,1.98-8.56,1.52-3.18-.49-5.99-1.88-8.82-3.87Zm-148.03-104.82v1.69c0,12.67,0,25.33,0,38q0,1.55,1.59,1.55c1.2,0,2.4,0,3.6,0q1.85,0,1.86-1.9c0-12.59,0-25.17,0-37.76,0-1.58.01-1.58,1.59-1.58,3.24,0,6.48-.02,9.72.01.8,0,1.17-.2,1.14-1.07-.05-1.56-.05-3.12,0-4.67.02-.8-.3-1.03-1.06-1.03-9.96.02-19.91.02-29.87,0-.89,0-1.09.36-1.06,1.15.04,1.4.09,2.8-.01,4.19-.09,1.21.39,1.47,1.51,1.45,3.59-.06,7.19-.02,11-.02Zm0,90.62c0,7.47,0,14.94,0,22.41q0,1.6,1.66,1.6c2.2,0,4.4,0,6.6,0,5.52,0,11.03-.03,16.55.02,1.13.01,1.47-.34,1.4-1.43-.09-1.27-.08-2.56,0-3.83.07-1.06-.3-1.37-1.36-1.36-5.36.05-10.71.02-16.07.02-1.7,0-1.73-.03-1.73-1.76,0-9.47,0-18.94,0-28.4,0-3.28-.02-6.55.01-9.83.01-.92-.26-1.3-1.23-1.26-1.48.06-2.96.07-4.44,0-1.09-.06-1.43.29-1.43,1.42.05,7.47.03,14.94.03,22.41ZM351.41,30.02c-5.63-.02-10.03,4.36-10.17,9.9-.12,4.71,3.5,10.25,10.07,10.28,6.22.03,10.11-4.92,10.15-9.94.05-5.75-4.36-10.21-10.06-10.23Zm-67.9,55c0-5.67-4.42-10.11-10.06-10.12-5.56,0-10.15,4.58-10.15,10.12,0,5.59,4.52,10.04,10.15,10.09,6.06.05,10.37-5.23,10.06-10.09Zm135.7-.01c0,5.69,4.38,10.03,10.05,10.12,4.41.07,10.08-3.22,10.13-10.09.04-6.07-4.76-10.09-10.1-10.12-5.63-.03-10.07,4.44-10.07,10.09Zm-135.69,89.98c.33-4.72-3.75-10.13-9.9-10.16-5.72-.03-10.3,4.47-10.31,10.08,0,5.56,4.57,10.1,10.17,10.1,5.6,0,10.03-4.43,10.04-10.03Zm122.89,32.83c0-5.66-4.46-10.21-10.07-10.13-5.54.08-10.12,4.18-10.12,10.12,0,6.49,5.39,10.12,10.23,10.12,4.52,0,10.08-3.87,9.96-10.11Zm0-155.63c.03-5.58-4.34-10.01-9.79-10.18-4.71-.14-10.36,3.33-10.39,10.11-.02,5.94,4.6,10.01,9.9,10.1,5.78.1,10.25-4.32,10.28-10.03Zm34.94,67.74c-5.92-.24-10.12,5.1-10.15,9.9-.03,4.62,3.37,10.22,10.1,10.25,5.97.03,10.06-4.55,10.15-10.08.08-5.61-4.44-10.07-10.1-10.08Zm-22.13,54.97c0,5.7,4.4,10.11,10.07,10.12,5.16,0,10.14-3.89,10.1-10.14-.05-6.52-5.28-10.04-9.95-10.05-5.82-.01-10.22,4.33-10.23,10.08Zm-102.78-122.86c-.01-5.67-4.41-9.98-10.13-10.01-4.81-.02-10.1,3.64-10.03,10.17.07,6.43,5.18,10.05,10.19,10.03,5.67-.02,10.24-4.82,9.97-10.19Zm0,155.81c0-5.68-4.44-10.26-10.05-10.16-5.59.1-10.12,4.11-10.12,10.15,0,6.71,5.65,10.04,10.05,10.08,5.5.06,10.41-4.78,10.11-10.08Zm34.92,22.05c5.7,0,10.15-4.4,10.14-10.05-.02-5.29-4.01-10.16-10.15-10.09-6.88.07-10.1,5.71-10.09,10.17.01,5.33,4.63,10.24,10.11,9.97Zm-100.03-99.98c-.14,4.68,3.41,10.13,10.06,10.18,6.27.05,10.14-5,10.14-9.98,0-5.8-4.35-10.19-10.12-10.18-5.64,0-10.07,4.4-10.08,9.98Z"/>
  <path class="cls-1" d="m129.31,188.85c1.18-2.78,2.35-5.57,3.53-8.35,9.07-21.37,18.15-42.74,27.22-64.12,8.26-19.47,16.5-38.94,24.75-58.41,1.88-4.44,3.8-8.88,5.63-13.34.42-1.03.94-1.43,2.1-1.42,7.44.06,14.87.03,22.31.03q1.76,0,1.76,1.76c0,54.27,0,108.53,0,162.8,0,2.52-.05,5.04.02,7.55.03,1.08-.35,1.35-1.38,1.34-6.28-.04-12.56-.06-18.83,0-1.24.01-1.52-.36-1.52-1.56.03-42.76.03-85.51.03-128.27,0-.53,0-1.06,0-1.6-.11-.02-.23-.04-.34-.06-.2.4-.43.79-.61,1.2-9.17,21.59-18.33,43.19-27.49,64.79-9.09,21.45-18.18,42.91-27.25,64.37-.35.82-.78,1.12-1.69,1.12-5.68-.04-11.36-.05-17.03,0-1,0-1.48-.33-1.86-1.23-8.57-20.2-17.17-40.38-25.76-60.57-9.78-22.98-19.56-45.96-29.35-68.94-.12-.29-.29-.55-.7-.83-.03.43-.09.86-.09,1.29,0,8.63,0,17.26,0,25.89,0,34.21,0,68.41,0,102.62q0,1.73-1.77,1.73c-6.12,0-12.24,0-18.35,0-1.56,0-1.57,0-1.57-1.59,0-30.37,0-60.74,0-91.11,0-26.33,0-52.67,0-79q0-1.73,1.67-1.73c7.6,0,15.19.01,22.79-.02.96,0,1.47.24,1.87,1.19,9.1,21.45,18.23,42.89,27.37,64.32,9.69,22.76,19.39,45.51,29.09,68.27,1.5,3.52,2.99,7.05,4.5,10.57.18.43.41.83.62,1.25.11,0,.22.01.33.02Z"/>
  <path class="cls-1" d="m483.82,129.9c0-28.29,0-56.58,0-84.87q0-1.78,1.72-1.78c20.83,0,41.67-.22,62.5.08,18.54.27,35.67,5.36,50.58,16.78,10.67,8.17,18.44,18.62,23.72,30.94,3.25,7.59,5.29,15.5,6.49,23.67,1.05,7.18,1.26,14.41.86,21.61-.94,16.83-5.38,32.61-15.07,46.62-10.65,15.41-25.26,25.29-43.21,30.34-6.35,1.78-12.82,2.88-19.42,3.16-2.67.11-5.35.22-8.02.22-19.39.02-38.79.01-58.18,0-2.17,0-1.96.18-1.96-1.9,0-28.29,0-56.58,0-84.87Zm21.86-.07c0,21.53,0,43.07,0,64.6q0,1.56,1.55,1.57c12.47,0,24.95-.03,37.42.02,5.13.02,10.2-.42,15.21-1.48,10.7-2.26,20.22-6.89,28.16-14.5,11.48-11,17-24.84,18.84-40.35.61-5.15.68-10.33.32-15.53-.4-5.79-1.33-11.47-2.97-17.02-2.79-9.45-7.33-17.94-14.17-25.11-11.52-12.07-25.98-17.58-42.37-18.02-13.42-.36-26.86-.08-40.3-.09q-1.7,0-1.7,1.66c0,21.41,0,42.83,0,64.24Z"/>
  <path class="cls-1" d="m806.35,192.04c.49.27.78.45,1.09.61,4.59,2.29,6.78,6.16,6.75,11.13-.03,5.14-2.44,9-7.18,11.25-2.3,1.09-4.74,1.65-7.29,1.66-5,0-10-.02-15,.02-.99,0-1.31-.29-1.31-1.29.03-15.07.03-30.13,0-45.2,0-1.03.29-1.39,1.36-1.38,5.12.06,10.24-.12,15.35.11,5.92.27,11.14,3.8,12.27,9.55.97,4.95-.32,10.33-5.39,13.06-.17.09-.32.23-.67.48Zm-15.86,10.59c0,2.12.02,4.23-.01,6.35-.01.73.18,1.14.99,1.12,2.99-.07,5.99.01,8.97-.21,3.55-.27,6.08-2.72,6.33-5.79.36-4.58-1.35-7.55-5.42-8.23-3.31-.55-6.75-.36-10.13-.42-.23,0-.68.61-.69.95-.06,2.08-.03,4.15-.03,6.23Zm0-20.56c0,1.92.02,3.83-.01,5.75-.01.69.17,1.02.93,1.01,2.48-.04,4.96.05,7.43-.04,3.55-.14,6.28-2.54,6.48-5.54.3-4.38-1.49-7-5.65-7.55-2.79-.37-5.65-.2-8.48-.18-.24,0-.66.61-.68.94-.07,1.87-.03,3.75-.03,5.63Z"/>
  <path class="cls-1" d="m825.75,115.68c.66,0,1.13,0,1.6,0,7.6,0,15.19,0,22.79,0,1.66,0,1.67,0,1.67-1.62,0-5.79.03-11.59-.02-17.38,0-1.11.34-1.47,1.44-1.4,1.47.09,2.96.08,4.44,0,.98-.05,1.22.32,1.21,1.25-.03,6.55-.02,13.11-.02,19.66,0,8.59-.02,17.18.02,25.77,0,1.05-.28,1.42-1.35,1.36-1.47-.08-2.96-.08-4.44,0-1.01.05-1.31-.31-1.3-1.29.04-5.91.02-11.83.02-17.74q0-1.84-1.83-1.84c-7.6,0-15.19.02-22.79-.03-1.16,0-1.48.31-1.47,1.47.06,6.03,0,12.07.05,18.1,0,1.08-.33,1.39-1.37,1.34-1.48-.08-2.96-.07-4.44,0-.95.04-1.26-.26-1.24-1.22.05-2.88.02-5.75.02-8.63,0-12.11,0-24.21,0-36.32q0-1.84,1.78-1.84c1.36,0,2.72.05,4.08-.02.9-.04,1.17.28,1.16,1.17-.03,5.87-.02,11.75-.02,17.62v1.61Z"/>
  <path class="cls-1" d="m767.52,216.68h-4.55q-3.22,0-4.37-3.05c-1.05-2.8-2.13-5.59-3.13-8.41-.28-.78-.7-1.03-1.49-1.03-5.56.02-11.11.03-16.67,0-.89,0-1.26.36-1.54,1.14-1.23,3.45-2.54,6.88-3.76,10.34-.27.78-.67,1.04-1.48,1.02-2.15-.05-4.31-.02-6.61-.02.09-.39.13-.69.23-.96,5.67-15.2,11.36-30.4,17.01-45.61.35-.93.79-1.32,1.8-1.28,1.8.08,3.6.07,5.39,0,.99-.04,1.5.28,1.85,1.24,3.81,10.32,7.67,20.63,11.51,30.93,1.77,4.74,3.54,9.48,5.31,14.23.15.4.27.8.49,1.45Zm-21.64-38.25c-.11.01-.22.03-.33.04-.14.31-.3.61-.41.93-2.06,5.57-4.11,11.15-6.16,16.72-.51,1.38-.42,1.5,1.05,1.5,3.8,0,7.6,0,11.39,0,.38,0,.76-.08,1.36-.14-2.34-6.47-4.62-12.76-6.9-19.05Z"/>
  <path class="cls-1" d="m720.63,119.3c0-7.55.02-15.1-.02-22.65,0-1.02.24-1.38,1.33-1.38,7.87.04,15.75.04,23.62,0,1.03,0,1.32.34,1.27,1.31-.07,1.43-.06,2.88,0,4.31.04.9-.29,1.17-1.18,1.16-5.52-.03-11.03.01-16.55-.04-1.1-.01-1.46.32-1.44,1.41.05,3.63.05,7.27,0,10.91-.01,1.03.3,1.38,1.37,1.37,5-.05,9.99,0,14.99-.04,1.02,0,1.45.22,1.38,1.32-.09,1.43-.07,2.88,0,4.31.04.91-.31,1.16-1.18,1.15-5.04-.03-10.07.02-15.11-.04-1.12-.01-1.45.36-1.44,1.44.05,3.75.04,7.51,0,11.27-.01,1.05.27,1.47,1.42,1.45,5.48-.06,10.95,0,16.43-.04.96,0,1.38.22,1.32,1.26-.08,1.47-.05,2.96,0,4.43.02.74-.18,1.09-1,1.09-8.07-.02-16.15-.02-24.22,0-.97,0-.97-.53-.97-1.23,0-7.59,0-15.18,0-22.77Z"/>
  <path class="cls-1" d="m799.83,132.91c0,2.71.04,5.17-.04,7.62-.01.33-.55.74-.94.93-4.51,2.28-9.29,2.93-14.29,2.36-4.82-.55-9.1-2.33-12.83-5.41-4.45-3.68-7.24-8.4-8.25-14.06-1.3-7.3-.15-14.16,4.41-20.19,4.19-5.55,9.85-8.56,16.73-9.4,4.88-.6,9.52.17,14.01,2.14.88.39,1.28.86,1.24,1.88-.09,2.23-.03,4.47-.03,6.96-4.1-3.27-8.68-4.57-13.69-4.16-5.12.43-9.31,2.71-12.39,6.85-4.9,6.58-4.63,16.13.63,22.46,3.16,3.8,7.3,5.77,12.18,6.08,4.81.3,9.22-.94,13.26-4.07Z"/>
  <path class="cls-1" d="m831.48,206.86c2.83,1.99,5.64,3.38,8.82,3.87,3.01.46,5.98.46,8.56-1.52,2.56-1.97,3.17-5.39,1.24-7.98-.86-1.15-2.04-2.14-3.25-2.95-3.02-2.02-6.15-3.88-9.22-5.81-3.3-2.08-5.81-4.74-6.45-8.77-1.16-7.25,2.25-13.13,9.45-14.92,4.96-1.23,9.89-.94,14.67,1.03.89.37,1.31.84,1.26,1.86-.08,2.03-.03,4.06-.03,6.33-.53-.31-.89-.52-1.25-.73-3.63-2.12-7.5-3.15-11.69-2.33-2.6.51-4.48,2-5.03,4.68-.56,2.74.64,4.86,2.91,6.33,3.11,2.02,6.29,3.95,9.44,5.91,2.89,1.79,5.58,3.83,6.89,7.1,2.98,7.44-.6,16.36-10.2,18.18-5.23.99-10.22.15-15.08-1.87-.78-.32-1.08-.75-1.06-1.61.06-2.19.02-4.38.02-6.81Z"/>
  <path class="cls-1" d="m683.44,102.04c-3.81,0-7.41-.04-11,.02-1.12.02-1.6-.24-1.51-1.45.1-1.39.06-2.8.01-4.19-.02-.79.17-1.15,1.06-1.15,9.96.02,19.91.02,29.87,0,.77,0,1.08.23,1.06,1.03-.04,1.56-.05,3.12,0,4.67.03.87-.34,1.08-1.14,1.07-3.24-.03-6.48-.01-9.72-.01-1.58,0-1.59,0-1.59,1.58,0,12.59,0,25.17,0,37.76q0,1.9-1.86,1.9c-1.2,0-2.4,0-3.6,0q-1.59,0-1.59-1.55c0-12.67,0-25.33,0-38v-1.69Z"/>
  <path class="cls-1" d="m683.44,192.66c0-7.47.02-14.94-.03-22.41,0-1.12.33-1.47,1.43-1.42,1.48.08,2.96.07,4.44,0,.97-.04,1.24.34,1.23,1.26-.04,3.28-.01,6.55-.01,9.83,0,9.47,0,18.94,0,28.4,0,1.74.03,1.76,1.73,1.76,5.36,0,10.71.03,16.07-.02,1.05,0,1.43.3,1.36,1.36-.08,1.27-.09,2.56,0,3.83.08,1.09-.27,1.44-1.4,1.43-5.52-.06-11.03-.03-16.55-.02-2.2,0-4.4,0-6.6,0q-1.66,0-1.66-1.6c0-7.47,0-14.94,0-22.41Z"/>
  <path class="cls-1" d="m351.41,30.02c5.7.02,10.12,4.48,10.06,10.23-.05,5.02-3.93,9.97-10.15,9.94-6.57-.03-10.19-5.57-10.07-10.28.14-5.54,4.54-9.92,10.17-9.9Z"/>
  <path class="cls-1" d="m283.52,85.03c.31,4.86-4,10.14-10.06,10.09-5.63-.05-10.15-4.49-10.15-10.09,0-5.54,4.59-10.12,10.15-10.12,5.64,0,10.06,4.44,10.06,10.12Z"/>
  <path class="cls-1" d="m419.21,85.01c0-5.65,4.44-10.12,10.07-10.09,5.35.03,10.14,4.05,10.1,10.12-.04,6.88-5.71,10.16-10.13,10.09-5.67-.09-10.05-4.42-10.05-10.12Z"/>
  <path class="cls-1" d="m283.52,174.99c0,5.6-4.44,10.03-10.04,10.03-5.6,0-10.18-4.55-10.17-10.1,0-5.62,4.59-10.11,10.31-10.08,6.15.03,10.23,5.43,9.9,10.16Z"/>
  <path class="cls-1" d="m406.4,207.82c.13,6.24-5.43,10.11-9.96,10.11-4.85,0-10.24-3.63-10.23-10.12,0-5.95,4.58-10.04,10.12-10.12,5.61-.08,10.06,4.47,10.07,10.13Z"/>
  <path class="cls-1" d="m406.4,52.2c-.03,5.71-4.5,10.13-10.28,10.03-5.3-.09-9.92-4.16-9.9-10.1.02-6.77,5.67-10.25,10.39-10.11,5.45.17,9.82,4.59,9.79,10.18Z"/>
  <path class="cls-1" d="m441.35,119.94c5.66,0,10.18,4.46,10.1,10.08-.08,5.54-4.18,10.12-10.15,10.08-6.74-.04-10.13-5.64-10.1-10.25.03-4.81,4.23-10.14,10.15-9.9Z"/>
  <path class="cls-1" d="m419.21,174.91c0-5.75,4.41-10.09,10.23-10.08,4.67,0,9.9,3.53,9.95,10.05.04,6.25-4.94,10.15-10.1,10.14-5.68,0-10.08-4.42-10.07-10.12Z"/>
  <path class="cls-1" d="m316.43,52.05c.27,5.37-4.3,10.17-9.97,10.19-5.01.02-10.12-3.6-10.19-10.03-.07-6.53,5.22-10.2,10.03-10.17,5.72.03,10.12,4.34,10.13,10.01Z"/>
  <path class="cls-1" d="m316.43,207.86c.3,5.3-4.62,10.14-10.11,10.08-4.4-.05-10.05-3.37-10.05-10.08,0-6.04,4.53-10.05,10.12-10.15,5.6-.1,10.05,4.47,10.05,10.16Z"/>
  <path class="cls-1" d="m351.35,229.9c-5.47.26-10.09-4.65-10.11-9.97-.01-4.46,3.21-10.1,10.09-10.17,6.14-.07,10.13,4.8,10.15,10.09.02,5.65-4.44,10.05-10.14,10.05Z"/>
  <path class="cls-1" d="m251.31,129.92c0-5.58,4.44-9.98,10.08-9.98,5.77,0,10.12,4.38,10.12,10.18,0,4.98-3.86,10.03-10.14,9.98-6.66-.05-10.2-5.5-10.06-10.18Z"/>
  <path class="cls-2" d="m505.68,129.83c0-21.41,0-42.83,0-64.24q0-1.66,1.7-1.66c13.43,0,26.87-.28,40.3.09,16.39.44,30.85,5.95,42.37,18.02,6.83,7.16,11.37,15.66,14.17,25.11,1.64,5.56,2.57,11.23,2.97,17.02.36,5.2.29,10.37-.32,15.53-1.84,15.5-7.36,29.34-18.84,40.35-7.93,7.6-17.45,12.23-28.16,14.5-5.01,1.06-10.08,1.5-15.21,1.48-12.47-.05-24.95-.02-37.42-.02q-1.55,0-1.55-1.57c0-21.53,0-43.07,0-64.6Z"/>
  <path class="cls-2" d="m790.49,202.62c0-2.08-.03-4.16.03-6.23.01-.34.45-.95.69-.95,3.38.06,6.82-.13,10.13.42,4.08.67,5.78,3.64,5.42,8.23-.24,3.07-2.77,5.52-6.33,5.79-2.98.23-5.98.14-8.97.21-.81.02-1-.38-.99-1.12.03-2.12.01-4.23.01-6.35Z"/>
  <path class="cls-2" d="m790.49,182.06c0-1.88-.03-3.75.03-5.63.01-.34.44-.94.68-.94,2.83-.01,5.69-.19,8.48.18,4.15.56,5.94,3.18,5.65,7.55-.2,3-2.93,5.4-6.48,5.54-2.47.1-4.95,0-7.43.04-.76.01-.94-.32-.93-1.01.03-1.92.01-3.83.01-5.75Z"/>
  <path class="cls-2" d="m745.88,178.42c2.28,6.29,4.56,12.58,6.9,19.05-.6.07-.98.14-1.36.14-3.8,0-7.6.01-11.39,0-1.47,0-1.56-.12-1.05-1.5,2.05-5.58,4.1-11.15,6.16-16.72.12-.32.28-.62.41-.93.11-.01.22-.03.33-.04Z"/>
</svg>