<svg xmlns="http://www.w3.org/2000/svg" role="img" viewBox="469.29 308.79 426.92 150.17"><style>svg {enable-background:new 0 0 1366 768}</style><style id="style9" type="text/css">.st0{display:none}.st1{display:inline}.st2{fill:#000}.st3{fill:gray}</style><g id="Layer_1" class="st0"><g id="g35" class="st1"><path id="path13" d="M517.69 364.99c3.71 19.12 7.43 38.23 11.13 57.31.17.85-.33 1.71-1.16 1.96-4.01 1.21-5.65-.31-6.35-4.53-1.9-11.4-4.25-22.73-6.81-36.13-6.27 14.43-11.84 27.24-17.82 41.01-.38.86-1.61.86-1.99 0-6.25-14.27-12.09-27.62-17.96-41.02-2.18 11.89-4.57 23.75-6.54 35.68-.71 4.31-2.33 6.32-6.55 5.09-.84-.24-1.35-1.11-1.18-1.97 3.73-19.1 7.46-38.24 11.2-57.38.2-1.04 1.63-1.19 2.04-.22 6.47 15.13 12.95 30.29 19.97 46.73 7.02-16.42 13.51-31.61 19.98-46.76.41-.96 1.84-.81 2.04.23z" class="st2"/><path id="path15" d="M536.04 394.28c.02-17.87 14.6-32.07 32.7-31.86 18 .21 32.19 14.09 32.38 31.66.19 17.6-14.51 32.21-32.51 32.32-17.88.12-32.59-14.39-32.57-32.12zm32.6-25.02c-13.89-.1-25.17 11.11-25.21 25.05-.04 13.47 11.09 24.89 24.56 25.22 13.69.33 25.29-11.03 25.42-24.89.13-14.14-10.75-25.28-24.77-25.38z" class="st2"/><path id="path17" d="M731.8 365.36v44.66c-14.43-15.67-28.8-31.28-44.56-48.4 0 13.05.15 32.22.05 47.34 2.95 4.3 5.32 9.03 7.03 14.06v-43.75c15.13 16.31 29.12 31.39 44.04 47.48v-61.39c0-.62-.5-1.12-1.12-1.12h-4.31c-.63 0-1.13.5-1.13 1.12z" class="st2"/><g id="g25"><g id="g23"><path id="path21" d="M639.91 383.99c11.58 0 22.35 3.44 31.37 9.33 3.49-5.3 5.53-11.64 5.53-18.46 0-18.56-15.05-33.61-33.61-33.61s-33.61 15.05-33.61 33.61c0 5.63 1.39 10.94 3.84 15.6 7.92-4.12 16.92-6.47 26.48-6.47z" class="st2"/></g></g><g id="g33"><path id="path27" d="M751.52 366.88c0-.87.7-1.66 1.66-1.66h22.64c10.49 0 19.06 8.22 19.06 18.62 0 8.04-5.33 14.77-12.94 17.83l11.98 22.2c.61 1.14 0 2.54-1.49 2.54h-4.46c-.79 0-1.22-.44-1.4-.79l-11.63-23.16h-16.7v22.29c0 .87-.79 1.66-1.66 1.66h-3.41c-.96 0-1.66-.79-1.66-1.66v-57.87zm23.86 29.8c6.73 0 12.59-5.59 12.59-12.76 0-6.64-5.86-12.33-12.59-12.33h-16.96v25.09h16.96z" class="st2"/><path id="path29" d="M858.49 424.13l-26.4-58.83c-.26-.52-.7-.96-1.49-.96h-.87c-.79 0-1.22.44-1.49.96l-26.57 58.83c-.52 1.14.17 2.27 1.49 2.27h3.5c.79 0 1.31-.52 1.49-.96l6.38-14.42 15.21-34.09h.7c4.28 9.53 10.84 24.56 15.12 34.09l6.47 14.42c.17.44.7.96 1.49.96h3.5c1.29 0 1.99-1.13 1.47-2.27z" class="st2"/><path id="path31" d="M875.25 396.95l-21.07-29.2c-.7-1.14 0-2.53 1.4-2.53h4.11c.61 0 1.14.44 1.4.79l17.66 24.39L896.4 366c.26-.35.79-.79 1.4-.79h4.11c1.4 0 2.1 1.4 1.4 2.53l-21.33 29.11v27.88c0 .87-.79 1.66-1.66 1.66h-3.41c-.96 0-1.66-.79-1.66-1.66v-27.78z" class="st2"/></g></g></g><g id="Layer_1_copy"><g id="g62"><g id="g54"><path id="path40" d="M500.3 392.13h-1.13l-16-22.43v36.29h-5.42v-44.1h6.55l15.5 22.68 15.37-22.68h6.55v44.1h-5.42v-36.16l-16 22.3z" class="st2"/><path id="path42" d="M588.94 384.06c-.06 11.53-7.25 22.81-22.37 22.81-15.12 0-22.43-11.21-22.43-22.81 0-12.79 8.57-22.93 22.49-22.93 14.94.06 22.38 11.28 22.31 22.93zm-22.3-17.89c-11.21 0-17.01 8.25-17.01 17.89 0 8.95 5.42 17.64 17.01 17.64 11.59 0 16.82-8.95 16.82-17.64.07-8.94-5.29-17.76-16.82-17.89z" class="st2"/><path id="path44" d="M653.39 384.06c-.06 11.53-7.25 22.81-22.37 22.81-15.12 0-22.43-11.21-22.43-22.81 0-12.79 8.57-22.93 22.49-22.93 14.94.06 22.37 11.28 22.31 22.93zm-22.3-17.89c-11.21 0-17.01 8.25-17.01 17.89 0 8.95 5.42 17.64 17.01 17.64 11.59 0 16.82-8.95 16.82-17.64.06-8.94-5.29-17.76-16.82-17.89z" class="st2"/><path id="path46" d="M679.66 361.89l27.03 33.77v-33.77h5.42v44.1h-3.78l-27.09-33.64v33.64h-5.42v-44.1h3.84z" class="st2"/><path id="path48" d="M753.5 390.11h-10.71v15.88h-5.48v-44.1h20.04c9.95 0 14.93 6.93 14.93 14.11.06 6.68-3.59 12.92-12.66 13.67l14.55 16.32h-6.93l-13.74-15.88zm13.29-13.99c.06-4.41-3.09-9.32-9.45-9.32h-14.55v18.4h14.3c6.61 0 9.7-4.1 9.7-9.08z" class="st2"/><path id="path50" d="M816.81 361.89l19.78 44.1h-5.92l-4.35-9.7h-25.2l-4.28 9.7h-5.99l19.78-44.1h6.18zm-3.09 5.54l-10.46 23.82h20.92l-10.46-23.82z" class="st2"/><path id="path52" d="M848.12 362.07v-.19h6.68l13.23 20.92 13.55-20.92h6.68v.19l-17.39 26.02v17.89h-5.67V388.1l-17.08-26.03z" class="st2"/></g><g id="g60"><path id="path56" d="M638.42 355.33c10.05-20.22 30.51-34.48 54.67-35.48 11.74-.49 22.87 2.24 32.56 7.38-11.07-6.95-24.29-10.75-38.34-10.17-25.73 1.06-47.46 16.52-57.79 38.28h8.9z" class="st3"/><path id="path58" d="M698.37 447.68c-26.17 1.08-49.31-13.73-60.12-35.85h-9.13c10.98 24.03 35.69 40.27 63.72 39.11 14.05-.58 26.91-5.46 37.37-13.3-9.23 5.92-20.1 9.56-31.84 10.04z" class="st3"/></g></g></g><g id="Layer_2" class="st0"><g id="g87" class="st1"><g id="g79"><path id="path65" d="M500.3 392.13h-1.13l-16-22.43v36.29h-5.42v-44.1h6.55l15.5 22.68 15.37-22.68h6.55v44.1h-5.42v-36.16l-16 22.3z"/><path id="path67" d="M588.94 384.06c-.06 11.53-7.25 22.81-22.37 22.81-15.12 0-22.43-11.21-22.43-22.81 0-12.79 8.57-22.93 22.49-22.93 14.94.06 22.38 11.28 22.31 22.93zm-22.3-17.89c-11.21 0-17.01 8.25-17.01 17.89 0 8.95 5.42 17.64 17.01 17.64 11.59 0 16.82-8.95 16.82-17.64.07-8.94-5.29-17.76-16.82-17.89z"/><path id="path69" d="M653.39 384.06c-.06 11.53-7.25 22.81-22.37 22.81-15.12 0-22.43-11.21-22.43-22.81 0-12.79 8.57-22.93 22.49-22.93 14.94.06 22.37 11.28 22.31 22.93zm-22.3-17.89c-11.21 0-17.01 8.25-17.01 17.89 0 8.95 5.42 17.64 17.01 17.64 11.59 0 16.82-8.95 16.82-17.64.06-8.94-5.29-17.76-16.82-17.89z"/><path id="path71" d="M679.66 361.89l27.03 33.77v-33.77h5.42v44.1h-3.78l-27.09-33.64v33.64h-5.42v-44.1h3.84z"/><path id="path73" d="M753.5 390.11h-10.71v15.88h-5.48v-44.1h20.04c9.95 0 14.93 6.93 14.93 14.11.06 6.68-3.59 12.92-12.66 13.67l14.55 16.32h-6.93l-13.74-15.88zm13.29-13.99c.06-4.41-3.09-9.32-9.45-9.32h-14.55v18.4h14.3c6.61 0 9.7-4.1 9.7-9.08z"/><path id="path75" d="M816.81 361.89l19.78 44.1h-5.92l-4.35-9.7h-25.2l-4.28 9.7h-5.99l19.78-44.1h6.18zm-3.09 5.54l-10.46 23.82h20.92l-10.46-23.82z"/><path id="path77" d="M848.12 362.07v-.19h6.68l13.23 20.92 13.55-20.92h6.68v.19l-17.39 26.02v17.89h-5.67V388.1l-17.08-26.03z"/></g><g id="g85"><path id="path81" d="M638.42 355.33c10.05-20.22 30.51-34.48 54.67-35.48 11.74-.49 22.87 2.24 32.56 7.38-11.07-6.95-24.29-10.75-38.34-10.17-25.73 1.06-47.46 16.52-57.79 38.28h8.9z"/><path id="path83" d="M698.37 447.68c-26.17 1.08-49.31-13.73-60.12-35.85h-9.13c10.98 24.03 35.69 40.27 63.72 39.11 14.05-.58 26.91-5.46 37.37-13.3-9.23 5.92-20.1 9.56-31.84 10.04z"/></g></g></g></svg>
