<?xml version="1.0" encoding="UTF-8" standalone="no"?>
<svg
   id="Layer_1"
   version="1.1"
   viewBox="0 0 1908.59 1259.72"
   sodipodi:docname="moonray.svg"
   inkscape:version="1.4.3 (0d15f75, 2025-12-25)"
   xmlns:inkscape="http://www.inkscape.org/namespaces/inkscape"
   xmlns:sodipodi="http://sodipodi.sourceforge.net/DTD/sodipodi-0.dtd"
   xmlns="http://www.w3.org/2000/svg"
   xmlns:svg="http://www.w3.org/2000/svg">
  <sodipodi:namedview
     id="namedview55"
     pagecolor="#ffffff"
     bordercolor="#000000"
     borderopacity="0.25"
     inkscape:showpageshadow="2"
     inkscape:pageopacity="0.0"
     inkscape:pagecheckerboard="0"
     inkscape:deskcolor="#d1d1d1"
     inkscape:zoom="0.24"
     inkscape:cx="954.16667"
     inkscape:cy="635.41667"
     inkscape:current-layer="Layer_1" />
  <!-- Generator: Adobe Illustrator 29.8.2, SVG Export Plug-In . SVG Version: 2.1.1 Build 3)  -->
  <defs
     id="defs1">
    <style
       id="style1">
      .st0 {
        fill: #25427c;
      }

      .st1 {
        isolation: isolate;
      }

      .st2 {
        fill: #003159;
        stroke: #003159;
        stroke-miterlimit: 10;
        stroke-width: 3.02px;
      }
    </style>
  </defs>
  <g
     id="g69">
    <path
       style="fill:#bac3d5"
       d="m 346.1,250.87559 c -6.24478,-0.80765 -10.96058,-5.93464 -11.32731,-12.31497 -0.46225,-8.04204 5.90433,-14.39207 13.96731,-13.93103 5.64974,0.32305 10.17266,3.8434 11.90125,9.26319 0.68088,2.13481 0.68258,5.51533 0.004,7.66005 -1.98336,6.26725 -8.05921,10.1616 -14.54511,9.32276 z m 4.55161,-2.5084 c 2.04927,-0.53238 3.53346,-1.42463 5.13241,-3.08544 1.58326,-1.64453 2.27213,-2.83874 2.79712,-4.84911 1.94597,-7.45165 -4.5012,-14.55616 -12.22231,-13.46847 -5.9762,0.84188 -10.17271,6.45057 -9.25875,12.37443 0.368,2.38516 1.61766,4.75607 3.35001,6.35576 2.89851,2.67653 6.52743,3.62732 10.20152,2.67283 z"
       id="path76" />
    <path
       style="fill:#a6b2c9"
       d="m 345.42764,248.47189 c -4.17411,-0.97976 -7.65934,-4.80221 -8.32756,-9.13329 -0.91396,-5.92386 3.28255,-11.53255 9.25875,-12.37443 7.72111,-1.08769 14.16828,6.01682 12.22231,13.46847 -0.19737,0.7558 -0.59023,1.82652 -0.87301,2.37939 -0.70501,1.37833 -3.09014,3.80181 -4.48906,4.56122 -2.24006,1.21602 -5.39566,1.66098 -7.79143,1.09864 z m 4.1796,-0.93591 c 5.2494,-0.97715 9.05672,-6.23076 8.16689,-11.26927 -0.88058,-4.98617 -4.87168,-8.35835 -9.89241,-8.35835 -5.50199,0 -9.82172,4.29964 -9.82172,9.77602 0,3.94896 2.19397,7.47229 5.62997,9.04126 2.13268,0.97384 3.8071,1.20314 5.91727,0.81034 z"
       id="path75" />
    <path
       style="fill:#8b9ab8"
       d="m 346.02231,247.52049 c -2.54026,-0.4986 -5.34062,-2.455 -6.60824,-4.61665 -3.1888,-5.43781 -0.52314,-12.69828 5.33121,-14.52067 5.99449,-1.86602 11.94266,1.73312 13.02885,7.88354 0.88983,5.03851 -2.91749,10.29212 -8.16689,11.26927 -1.47489,0.27455 -2.1215,0.27175 -3.58493,-0.0155 z m 5.54747,-1.61886 c 1.58126,-0.70156 3.62994,-2.701 4.42848,-4.32204 0.59535,-1.20856 0.66155,-1.5955 0.65985,-3.85678 -0.002,-2.91861 -0.39038,-3.97282 -2.20357,-5.98429 -3.73661,-4.14522 -10.80351,-3.62589 -13.8565,1.01828 -3.24704,4.93935 -1.10812,11.43712 4.42325,13.43731 1.53053,0.55345 4.99011,0.39893 6.54849,-0.29248 z"
       id="path74" />
    <path
       style="fill:#7587ab"
       d="m 345.02129,246.19411 c -5.53137,-2.00019 -7.67029,-8.49796 -4.42325,-13.43731 3.05299,-4.64417 10.11989,-5.1635 13.8565,-1.01828 1.81319,2.01147 2.20138,3.06568 2.20357,5.98429 0.002,2.26128 -0.0645,2.64822 -0.65985,3.85678 -0.79854,1.62104 -2.84722,3.62048 -4.42848,4.32204 -1.55838,0.69141 -5.01796,0.84593 -6.54849,0.29248 z m 5.65596,-1.21134 c 0.82991,-0.28074 1.61796,-0.83417 2.64162,-1.85517 1.73878,-1.73427 2.26113,-3.01151 2.26113,-5.52889 0,-1.43056 -0.12067,-1.9553 -0.72871,-3.16894 -0.83115,-1.65896 -2.19012,-2.99343 -3.80191,-3.73336 -1.65228,-0.75852 -4.7491,-0.71749 -6.38938,0.0847 -1.53811,0.75218 -3.11885,2.33105 -3.77833,3.77386 -0.733,1.60366 -0.74615,4.74932 -0.0264,6.30907 0.74187,1.60761 2.0798,2.96305 3.74309,3.79204 1.2168,0.60646 1.74291,0.72682 3.17719,0.72682 0.97449,0 2.23113,-0.17327 2.90167,-0.40009 z"
       id="path73" />
    <path
       style="fill:#556b97"
       d="m 344.59839,244.65604 c -1.66329,-0.82899 -3.00122,-2.18443 -3.74309,-3.79204 -0.71978,-1.55975 -0.70663,-4.70541 0.0264,-6.30907 0.65948,-1.44281 2.24022,-3.02168 3.77833,-3.77386 1.64028,-0.80215 4.7371,-0.84318 6.38938,-0.0847 1.61179,0.73993 2.97076,2.0744 3.80191,3.73336 0.60804,1.21364 0.72871,1.73838 0.72871,3.16894 0,2.51738 -0.52235,3.79462 -2.26113,5.52889 -1.73878,1.73426 -3.01936,2.25526 -5.54329,2.25526 -1.43428,0 -1.96039,-0.12036 -3.17719,-0.72682 z m 6.38394,-1.83278 c 3.15488,-1.93623 3.82163,-6.09801 1.41402,-8.8261 -1.29663,-1.46922 -2.50451,-2.00888 -4.49635,-2.00888 -1.83664,0 -3.12344,0.51369 -4.24784,1.69574 -1.53254,1.61112 -2.00641,4.24133 -1.14846,6.37456 0.50399,1.25313 2.42949,3.03071 3.65554,3.37469 1.51733,0.42571 3.55553,0.16793 4.82309,-0.61001 z"
       id="path72" />
    <path
       style="fill:#355084"
       d="m 346.15924,243.43327 c -1.22605,-0.34398 -3.15155,-2.12156 -3.65554,-3.37469 -0.85795,-2.13323 -0.38408,-4.76344 1.14846,-6.37456 1.1244,-1.18205 2.4112,-1.69574 4.24784,-1.69574 1.99184,0 3.19972,0.53966 4.49635,2.00888 2.40761,2.72809 1.74086,6.88987 -1.41402,8.8261 -1.26756,0.77794 -3.30576,1.03572 -4.82309,0.61001 z m 3.77159,-2.59291 c 1.177,-0.72554 1.65722,-1.81598 1.52104,-3.45385 -0.0984,-1.18396 -0.23385,-1.49292 -0.98084,-2.23797 -0.76068,-0.7587 -1.03686,-0.87529 -2.25883,-0.95359 -2.51339,-0.16103 -4.01028,1.34095 -3.84768,3.86078 0.0835,1.29472 0.17225,1.48571 1.08394,2.33392 0.91053,0.84712 1.10593,0.9238 2.35392,0.9238 0.93666,0 1.60024,-0.14749 2.12845,-0.47309 z"
       id="path71" />
    <path
       style="fill:#28447c"
       d="m 345.44846,240.38965 c -0.91169,-0.84821 -1.00039,-1.0392 -1.08394,-2.33392 -0.1626,-2.51983 1.33429,-4.02181 3.84768,-3.86078 1.22197,0.0783 1.49815,0.19489 2.25883,0.95359 0.74699,0.74505 0.8824,1.05401 0.98084,2.23797 0.20756,2.49644 -1.12188,3.92694 -3.64949,3.92694 -1.24799,0 -1.44339,-0.0767 -2.35392,-0.9238 z"
       id="path70" />
  </g>
  <g
     id="g63">
    <path
       style="fill:#bac3d5"
       d="m 764.19825,1010.784 c -4.87686,-0.7407 -8.92372,-4.4269 -10.04649,-9.1511 -1.01731,-4.28049 0.14308,-8.39252 3.23344,-11.4582 6.45374,-6.40221 17.34876,-3.8072 20.30193,4.83557 0.67404,1.97265 0.73045,5.01203 0.13055,7.03393 -1.73243,5.8391 -7.6626,9.6445 -13.61943,8.7398 z m 4.17846,-2.2849 c 5.14132,-1.3285 8.49446,-6.2567 7.65921,-11.25702 -0.55764,-3.33837 -2.69283,-6.14631 -5.77505,-7.59463 -1.53147,-0.71963 -1.80163,-0.76801 -4.28859,-0.76801 -2.48431,0 -2.75824,0.0489 -4.28061,0.76431 -2.10509,0.98923 -3.8445,2.71475 -4.84169,4.80302 -0.72116,1.51022 -0.77046,1.78196 -0.77046,4.24643 0,2.4671 0.0488,2.7351 0.77419,4.2543 2.10251,4.4033 6.94254,6.7351 11.523,5.5516 z"
       id="path69" />
    <path
       style="fill:#a6b2c9"
       d="m 763.93227,1008.6045 c -2.88597,-0.5612 -5.73104,-2.8349 -7.07856,-5.657 -0.72542,-1.5192 -0.77419,-1.7872 -0.77419,-4.2543 0,-2.46447 0.0493,-2.73621 0.77046,-4.24643 0.99719,-2.08827 2.7366,-3.81379 4.84169,-4.80302 1.52237,-0.7154 1.7963,-0.76431 4.28061,-0.76431 2.48696,0 2.75712,0.0484 4.28859,0.76801 1.99839,0.93904 3.9355,2.79522 4.84538,4.64295 3.68066,7.4745 -2.91263,15.9206 -11.17398,14.3141 z m 5.91137,-1.6232 c 1.97492,-0.9168 3.56754,-2.5098 4.52896,-4.53 0.67669,-1.4219 0.7616,-1.8347 0.74825,-3.63842 -0.0275,-3.71859 -1.81468,-6.57769 -5.12084,-8.19231 -1.48926,-0.72731 -1.77868,-0.78369 -4.02266,-0.78369 -2.11401,0 -2.59006,0.08 -3.78728,0.6368 -1.91836,0.89211 -3.43166,2.3623 -4.36124,4.23701 -0.73444,1.48117 -0.78406,1.74105 -0.78247,4.09846 0.002,2.29285 0.062,2.63085 0.67863,3.79525 2.45632,4.6381 7.57411,6.4865 12.11865,4.3769 z"
       id="path68" />
    <path
       style="fill:#8b9ab8"
       d="m 763.6859,1007.5401 c -2.58594,-0.7192 -4.61967,-2.4031 -5.96091,-4.9357 -0.61665,-1.1644 -0.67709,-1.5024 -0.67863,-3.79525 -0.002,-2.35741 0.048,-2.61729 0.78247,-4.09846 0.92958,-1.87471 2.44288,-3.3449 4.36124,-4.23701 1.19722,-0.55676 1.67327,-0.6368 3.78728,-0.6368 2.24398,0 2.5334,0.0564 4.02266,0.78369 3.30616,1.61462 5.09332,4.47372 5.12084,8.19231 0.0133,1.80372 -0.0716,2.21652 -0.74825,3.63842 -1.93951,4.0754 -6.50802,6.2508 -10.6867,5.0888 z m 5.6871,-1.4043 c 1.8513,-0.8381 3.27191,-2.2398 4.11852,-4.0635 0.9567,-2.0608 0.97248,-4.68355 0.04,-6.65749 -0.78436,-1.66048 -2.32302,-3.23343 -3.93998,-4.0278 -1.0425,-0.51216 -1.53429,-0.59234 -3.6193,-0.59011 -2.1599,0.002 -2.54483,0.0713 -3.67156,0.65821 -2.76435,1.43993 -4.41103,4.05854 -4.41136,7.01513 -2.4e-4,2.09886 0.48579,3.72996 1.52861,5.12986 2.3021,3.0904 6.41563,4.1382 9.95503,2.5357 z"
       id="path67" />
    <path
       style="fill:#7687ab"
       d="m 763.51111,1006.52 c -3.65097,-1.294 -5.62219,-4.1166 -5.62175,-8.04976 3.3e-4,-2.95659 1.64701,-5.5752 4.41136,-7.01513 1.12673,-0.5869 1.51166,-0.65591 3.67156,-0.65821 2.08501,-0.002 2.5768,0.0779 3.6193,0.59011 1.61696,0.79437 3.15562,2.36732 3.93998,4.0278 0.93244,1.97394 0.91666,4.59669 -0.04,6.65749 -1.7346,3.7366 -6.27642,5.7606 -9.98041,4.4477 z m 5.5979,-1.4207 c 1.2371,-0.6343 2.68547,-2.0728 3.31717,-3.2944 0.6937,-1.3416 0.83782,-3.7857 0.31524,-5.34648 -0.54635,-1.63175 -2.1881,-3.41224 -3.80628,-4.12793 -2.71372,-1.20023 -6.29496,-0.48442 -8.16885,1.63278 -1.86265,2.1045 -2.34037,5.14076 -1.20664,7.66913 0.6706,1.4956 2.46989,3.2013 3.94537,3.7403 1.429,0.522 4.32877,0.3806 5.60399,-0.2734 z"
       id="path66" />
    <path
       style="fill:#556b97"
       d="m 763.50502,1005.3727 c -1.47548,-0.539 -3.27477,-2.2447 -3.94537,-3.7403 -1.13373,-2.52837 -0.65601,-5.56463 1.20664,-7.66913 1.87389,-2.1172 5.45513,-2.83301 8.16885,-1.63278 1.61818,0.71569 3.25993,2.49618 3.80628,4.12793 0.52258,1.56078 0.37846,4.00488 -0.31524,5.34648 -0.6317,1.2216 -2.08007,2.6601 -3.31717,3.2944 -1.27522,0.654 -4.17499,0.7954 -5.60399,0.2734 z m 4.63884,-1.7436 c 5.34427,-2.432 3.6921,-10.1778 -2.17158,-10.18097 -3.10257,-0.002 -5.28651,2.16514 -5.28651,5.24507 0,3.9108 3.95658,6.5293 7.45809,4.9359 z"
       id="path65" />
    <path
       style="fill:#354f84"
       d="m 763.92134,1003.6972 c -1.9893,-0.8548 -3.23557,-2.7822 -3.23557,-5.004 0,-3.07993 2.18394,-5.24675 5.28651,-5.24507 4.85281,0.003 7.25056,5.66076 3.8348,9.04927 -1.48918,1.4773 -4.0331,1.9958 -5.88574,1.1998 z m 3.99974,-2.1657 c 2.57147,-1.67145 1.5377,-5.71774 -1.53563,-6.01069 -2.29731,-0.21898 -3.7727,1.20463 -3.60336,3.47689 0.0737,0.98903 0.24424,1.4174 0.78855,1.981 1.14816,1.1889 3.00821,1.4252 4.35044,0.5528 z"
       id="path64" />
    <path
       style="fill:#28447c"
       d="m 764.99807,1001.9167 c -1.27405,-0.3804 -2.10873,-1.4799 -2.21598,-2.919 -0.16934,-2.27226 1.30605,-3.69587 3.60336,-3.47689 3.86815,0.36872 4.00912,5.91519 0.165,6.49189 -0.4507,0.068 -1.14927,0.024 -1.55238,-0.096 z"
       id="path63" />
  </g>
  <rect
     class="st0"
     x="438.33"
     y="284.06"
     width="524.84"
     height="3.47"
     transform="translate(195.17 848.93) rotate(-70.27)"
     id="rect2" />
  <path
     class="st0"
     d="M594.53,531.59l-3.41-.61c26.61-149.35,49.65-299.2,71.93-444.12,3.44-22.38,6.87-44.71,10.31-66.97l3.43.53c-3.44,22.26-6.87,44.59-10.31,66.97-22.29,144.94-45.33,294.81-71.95,444.2h0Z"
     id="path2" />
  <path
     class="st0"
     d="M650.39,557.34l-2.52-2.37c63.92-68.17,128.76-135.13,191.46-199.89,62.87-64.93,127.87-132.07,191.13-199.6l2.53,2.37c-63.28,67.55-128.3,134.7-191.17,199.64-62.69,64.75-127.52,131.7-191.42,199.85h-.01Z"
     id="path3" />
  <path
     class="st0"
     d="M606.36,530.53l-3.36-.87c17.54-67.39,33.71-135.74,49.34-201.84,23.86-100.87,48.53-205.18,77.89-304.68l3.33.98c-29.33,99.41-53.99,203.67-77.84,304.5-15.64,66.12-31.81,134.49-49.36,201.92h0Z"
     id="path4" />
  <path
     class="st0"
     d="M622.05,535.6l-3.16-1.42c37.64-83.5,84.89-167.49,130.59-248.71,41.6-73.94,84.62-150.4,121.48-228.1l3.13,1.49c-36.91,77.81-79.96,154.32-121.59,228.31-45.66,81.16-92.88,165.07-130.45,248.43Z"
     id="path5" />
  <path
     class="st0"
     d="M615.06,534.11l-3.2-1.35c29.07-68.88,61.36-136.83,92.58-202.55,43.95-92.5,89.4-188.16,126.51-287.74l3.25,1.21c-37.16,99.72-82.64,195.45-126.62,288.02-31.21,65.68-63.48,133.6-92.52,202.41Z"
     id="path6" />
  <path
     class="st0"
     d="M586.11,531.65l-3.41-.64c15.02-80.52,24.52-161.17,34.57-246.55,10.08-85.6,20.51-174.11,37.02-262.63l3.41.64c-16.49,88.4-26.91,176.86-36.99,262.4-10.06,85.44-19.57,166.15-34.61,246.78h0Z"
     id="path7" />
  <path
     class="st0"
     d="M627.35,539.98l-2.91-1.89c41.89-64.4,81.69-131.06,120.18-195.52,55.55-93.04,108.02-180.92,166.9-263.88l2.83,2.01c-58.81,82.85-111.24,170.67-166.75,263.65-38.5,64.49-78.32,131.18-120.25,195.64h0Z"
     id="path8" />
  <rect
     class="st0"
     x="380.95"
     y="119.47"
     width="3.47"
     height="472.78"
     transform="translate(-134.43 280.52) rotate(-34.63)"
     id="rect8" />
  <path
     class="st0"
     d="M638.65,545.97l-2.79-2.07c58.29-78.59,119.38-153.67,184.05-233.17,51.42-63.21,104.59-128.57,155.98-195.58l2.75,2.11c-51.42,67.05-104.61,132.43-156.04,195.66-64.64,79.46-125.7,154.52-183.95,233.05Z"
     id="path9" />
  <path
     class="st0"
     d="M524.64,547.26c-33.48-47.73-60.47-99.14-89.06-153.57-26.41-50.3-53.72-102.32-86.67-151.25l2.88-1.94c33.06,49.09,60.41,101.19,86.87,151.57,28.53,54.33,55.47,105.65,88.82,153.19l-2.84,1.99h0Z"
     id="path10" />
  <path
     class="st0"
     d="M634.87,543.53l-2.65-2.23c107.51-127.62,225.61-263.36,361.04-414.99l2.59,2.31c-135.4,151.6-253.48,287.32-360.97,414.92h-.01Z"
     id="path11" />
  <rect
     class="st0"
     x="346.91"
     y="157.58"
     width="3.47"
     height="466.94"
     transform="translate(-173.13 343.83) rotate(-43.11)"
     id="rect11" />
  <path
     class="st0"
     d="M508.17,558.81c-74.71-77.72-141.08-156.9-211.36-240.73-30.76-36.69-62.56-74.63-94.82-112.05l2.63-2.26c32.28,37.44,64.09,75.39,94.85,112.09,70.23,83.78,136.57,162.92,211.2,240.55l-2.5,2.4h0Z"
     id="path12" />
  <path
     class="st0"
     d="M761.87,995.21c-47.06-83.15-91.41-170.4-134.29-254.78-6.47-12.73-12.88-25.34-19.23-37.79l3.09-1.57c6.35,12.46,12.76,25.07,19.23,37.8,42.87,84.35,87.2,171.57,134.22,254.64l-3.02,1.71h0Z"
     id="path13" />
  <rect
     class="st0"
     x="335.8"
     y="171.12"
     width="3.47"
     height="461.5"
     transform="translate(-186.13 367.25) rotate(-46.19)"
     id="rect13" />
  <rect
     class="st0"
     x="293.85"
     y="242.11"
     width="3.47"
     height="454.67"
     transform="translate(-258.54 495.74) rotate(-60.52)"
     id="rect14" />
  <path
     class="st0"
     d="M497.93,570.72c-61.99-53.23-128.91-103.44-193.62-152-55.66-41.76-113.21-84.94-167.46-129.91l2.21-2.67c54.19,44.92,111.7,88.07,167.33,129.81,64.76,48.59,131.72,98.83,193.8,152.14l-2.26,2.63Z"
     id="path14" />
  <rect
     class="st0"
     x="328.33"
     y="182.12"
     width="3.47"
     height="461.89"
     transform="translate(-197.86 383.71) rotate(-48.19)"
     id="rect15" />
  <rect
     class="st0"
     x="286.13"
     y="261.89"
     width="3.47"
     height="456.14"
     transform="translate(-278.76 533.02) rotate(-63.91)"
     id="rect16" />
  <path
     class="st0"
     d="M1204.2,868.61c-93.84-31.37-184.93-66.87-273.03-101.2-87.43-34.07-177.84-69.3-269.78-99.98l1.1-3.29c92.02,30.71,182.47,65.95,269.94,100.04,88.06,34.31,179.12,69.79,272.87,101.14l-1.1,3.29h0Z"
     id="path16" />
  <path
     class="st0"
     d="M488.78,603.47c-99.21-30.63-194.62-68.07-286.89-104.29-45.6-17.9-92.76-36.41-139.5-53.73l1.21-3.25c46.77,17.34,93.94,35.85,139.56,53.76,92.21,36.19,187.56,73.61,286.64,104.2l-1.02,3.31Z"
     id="path17" />
  <path
     class="st0"
     d="M56.9,804.46l-1.11-3.29c52.09-17.6,104.67-35.65,155.52-53.1,92.51-31.75,188.18-64.58,280.83-94.69l1.07,3.3c-92.63,30.1-188.28,62.92-280.78,94.67-50.85,17.45-103.44,35.5-155.53,53.1h0Z"
     id="path18" />
  <rect
     class="st0"
     x="36.31"
     y="681.88"
     width="459.2"
     height="3.47"
     transform="translate(-117.29 58.16) rotate(-10.24)"
     id="rect18" />
  <path
     class="st0"
     d="M79.72,871.06l-1.52-3.12c44.87-21.9,89.19-44.65,136.1-68.75,90.58-46.51,184.24-94.61,282.61-136.32l1.35,3.19c-98.25,41.66-191.85,89.73-282.38,136.21-46.93,24.1-91.26,46.87-136.17,68.78h0Z"
     id="path19" />
  <path
     class="st0"
     d="M69.97,845.68l-1.28-3.22c130.42-51.8,283.04-114.07,426.21-183.13l1.51,3.12c-143.27,69.11-295.96,131.4-426.44,183.23Z"
     id="path20" />
  <path
     class="st0"
     d="M101.78,919.22l-1.87-2.92c66.86-42.72,134.13-83.2,199.18-122.35,70.34-42.33,136.78-82.31,201.72-124.3l1.88,2.91c-64.99,42.02-131.45,82.02-201.81,124.36-65.04,39.14-132.28,79.6-199.1,122.3Z"
     id="path21" />
  <rect
     class="st0"
     x="71.94"
     y="805.82"
     width="473.16"
     height="3.47"
     transform="translate(-401.34 314.17) rotate(-34.29)"
     id="rect21" />
  <path
     class="st0"
     d="M127.59,965.16l-2-2.83c64.26-45.39,127.55-94.69,188.74-142.36,61.63-48.01,125.36-97.66,191.06-144.14l2,2.83c-65.63,46.44-129.33,96.06-190.93,144.05-61.23,47.7-124.54,97.02-188.87,142.46h0Z"
     id="path22" />
  <path
     class="st0"
     d="M158.78,1010.67l-2.41-2.49c50.77-49.02,105.07-97.23,157.59-143.86,66.29-58.85,134.84-119.71,196.85-182.71l2.47,2.43c-62.1,63.09-130.69,123.98-197.02,182.88-52.49,46.6-106.77,94.79-157.48,143.76h0Z"
     id="path23" />
  <rect
     class="st0"
     x="117.27"
     y="876.18"
     width="491.13"
     height="3.47"
     transform="translate(-543.61 593.76) rotate(-50.14)"
     id="rect23" />
  <path
     class="st0"
     d="M225.95,1086.81l-2.74-2.13c42.48-54.5,84.93-111.99,125.99-167.58,55.35-74.96,112.59-152.47,172.9-226.94l2.7,2.18c-60.26,74.4-117.47,151.88-172.8,226.81-41.07,55.61-83.53,113.12-126.04,167.66h0Z"
     id="path24" />
  <path
     class="st0"
     d="M364.53,1182.94l-3.29-1.11c34.77-103.48,75.05-206.88,114-306.88,23.36-59.97,45.43-116.62,66.37-173.22l3.25,1.2c-20.95,56.63-43.02,113.29-66.39,173.28-38.94,99.96-79.2,203.32-113.95,306.73h.01Z"
     id="path25" />
  <path
     class="st0"
     d="M328.51,1167.16l-3.03-1.69c57.87-103.84,105.35-216.65,151.27-325.74,19.38-46.05,39.43-93.67,59.92-139.8l3.17,1.41c-20.48,46.1-40.51,93.7-59.89,139.74-45.96,109.18-93.47,222.08-151.44,326.09h0Z"
     id="path26" />
  <path
     class="st0"
     d="M519.41,1228.66l-3.47-.06c1.68-91.61,12.93-188.98,23.8-283.14,9.09-78.69,18.49-160.05,22.6-239.45l3.46.18c-4.12,79.5-13.52,160.92-22.62,239.67-10.87,94.08-22.1,191.36-23.78,282.81h.01Z"
     id="path27" />
  <path
     class="st0"
     d="M483.51,1224.07l-3.42-.61c30.28-170.5,56.29-344.15,77.31-516.13l3.44.42c-21.03,172.04-47.05,345.75-77.34,516.31h0Z"
     id="path28" />
  <path
     class="st0"
     d="M664.09,579.69l-1.48-3.14c207.38-97.67,368.28-168.07,521.71-228.28l1.27,3.23c-153.36,60.18-314.19,130.56-521.5,228.19h0Z"
     id="path29" />
  <path
     class="st0"
     d="M384.18,1189.36l-3.3-1.07c12.44-38.29,25.03-77.3,37.21-115.02,39.37-121.98,80.08-248.11,123.04-372.56l3.28,1.13c-42.95,124.43-83.65,250.54-123.02,372.5-12.18,37.72-24.77,76.73-37.21,115.03h0Z"
     id="path30" />
  <path
     class="st0"
     d="M661.91,575.76l-1.78-2.98c61.1-36.54,123.83-74.86,184.48-111.92,98.03-59.9,199.4-121.84,298.74-179.21l1.73,3c-99.3,57.36-200.66,119.28-298.67,179.17-60.66,37.07-123.39,75.39-184.51,111.94h.01Z"
     id="path31" />
  <rect
     class="st0"
     x="604.78"
     y="403.12"
     width="561.25"
     height="3.47"
     transform="translate(-70.74 588.25) rotate(-35.43)"
     id="rect31" />
  <path
     class="st0"
     d="M435.45,1208.29l-3.4-.7c30.7-148.58,66.36-294.73,100.84-436.08,5.47-22.43,10.89-44.65,16.23-66.64l3.37.82c-5.34,21.99-10.76,44.21-16.23,66.64-34.48,141.32-70.13,287.45-100.81,435.96h0Z"
     id="path32" />
  <path
     class="st0"
     d="M1177.98,925.69c-83.13-35.86-164.1-77.97-242.42-118.7-89.64-46.62-182.33-94.82-278.21-133.57l1.3-3.21c96.03,38.81,188.79,87.05,278.51,133.7,78.26,40.7,159.18,82.78,242.19,118.59l-1.37,3.18h0Z"
     id="path33" />
  <path
     class="st0"
     d="M663.91,580.77l-1.79-2.97c83.16-50.27,168.83-93.15,251.67-134.62,82.21-41.15,167.22-83.7,248.53-132.97l1.8,2.97c-81.42,49.34-166.5,91.93-248.77,133.11-82.78,41.44-168.38,84.28-251.43,134.48h-.01Z"
     id="path34" />
  <path
     class="st0"
     d="M1120.1,1007.51c-40.77-28.28-82.21-57.34-122.29-85.44-112.96-79.21-229.77-161.11-350.01-238.71l1.88-2.91c120.3,77.64,237.13,159.56,350.12,238.79,40.08,28.1,81.52,57.16,122.27,85.43l-1.98,2.85h.01Z"
     id="path35" />
  <path
     class="st0"
     d="M1030.23,1107.05c-75.28-73.2-150.42-152.94-223.09-230.05-57.11-60.61-116.17-123.28-176.06-183.67l2.46-2.44c59.92,60.42,119,123.11,176.12,183.73,72.64,77.09,147.76,156.8,222.98,229.94l-2.42,2.49h.01Z"
     id="path36" />
  <path
     class="st0"
     d="M1055.32,1084.78c-67.57-67.73-139.89-133.38-209.83-196.86-68.74-62.4-139.83-126.93-208.67-195.3l2.44-2.46c68.79,68.31,139.84,132.81,208.56,195.19,69.97,63.51,142.32,129.19,209.95,196.98l-2.46,2.45h.01Z"
     id="path37" />
  <path
     class="st0"
     d="M272.1,1130.25l-2.97-1.79c28.02-46.54,57.21-93.87,85.43-139.64,59.74-96.89,121.52-197.08,175.22-294.54l3.04,1.67c-53.74,97.53-115.54,197.76-175.31,294.68-28.22,45.76-57.4,93.09-85.41,139.61h0Z"
     id="path38" />
  <path
     class="st0"
     d="M976.45,1147.09c-78.86-105.55-161.83-209.4-242.06-309.82-36.42-45.58-74.07-92.72-111.03-139.61l2.72-2.15c36.95,46.89,74.6,94.01,111.02,139.59,80.25,100.45,163.23,204.32,242.13,309.91l-2.78,2.08h0Z"
     id="path39" />
  <path
     class="st0"
     d="M299.36,1147.57l-3.06-1.63c30.88-58.07,62.37-118.8,92.83-177.53,46.36-89.39,94.29-181.82,143.51-271.74l3.04,1.67c-49.2,89.88-97.13,182.29-143.48,271.67-30.46,58.74-61.96,119.48-92.84,177.56h0Z"
     id="path40" />
  <path
     class="st0"
     d="M953.26,1161.91c-53.94-69.59-103.81-142.8-152.03-213.6-56.34-82.71-114.59-168.25-179.38-247.96l2.69-2.19c64.88,79.83,123.18,165.42,179.56,248.2,48.19,70.76,98.03,143.92,151.9,213.43l-2.74,2.12Z"
     id="path41" />
  <path
     class="st0"
     d="M1143.38,981.72c-76.13-57.86-160.81-104.89-242.7-150.36-82.91-46.04-168.65-93.65-247.92-153.44l2.09-2.77c79.07,59.64,164.7,107.19,247.51,153.18,82,45.53,166.78,92.62,243.11,150.63l-2.1,2.76h0Z"
     id="path42" />
  <path
     class="st0"
     d="M929.72,1173.96c-61.42-85.77-118.79-175.66-174.28-262.58-44.62-69.91-90.76-142.2-139.01-212.39l2.86-1.96c48.28,70.23,94.44,142.55,139.07,212.49,55.46,86.89,112.8,176.73,174.17,262.43l-2.82,2.02h.01Z"
     id="path43" />
  <rect
     class="st0"
     x="652.6"
     y="499.43"
     width="561.68"
     height="3.47"
     transform="translate(-112.75 333.94) rotate(-19.15)"
     id="rect43" />
  <path
     class="st0"
     d="M896.19,1189.6c-57.07-113.29-122.84-221.39-186.45-325.94-32.11-52.77-65.31-107.35-97.14-162.14l3-1.74c31.81,54.76,65,109.32,97.1,162.08,63.64,104.6,129.45,212.76,186.59,326.18l-3.1,1.56h0Z"
     id="path44" />
  <path
     class="st0"
     d="M669.95,599.38l-.91-3.35c87.53-23.76,171.54-52.68,252.78-80.65,90.46-31.15,184-63.35,282.33-88.35l.86,3.36c-98.18,24.96-191.66,57.15-282.05,88.27-81.29,27.99-165.36,56.93-253,80.72h-.01Z"
     id="path45" />
  <path
     class="st0"
     d="M673.14,615.35l-.27-3.46c73.22-5.7,145.95-10.54,216.29-15.22,111.95-7.46,227.72-15.16,345.87-26.39l.33,3.45c-118.2,11.23-233.99,18.94-345.97,26.4-70.33,4.68-143.06,9.53-216.25,15.22Z"
     id="path46" />
  <path
     class="st0"
     d="M579.98,707.04c-47.72,0-86.54-38.82-86.54-86.54,0-6.27.74-12.72,2.2-19.18l3.4.67c-.96,5.68-1.25,11.38-.85,16.94.33,4.59,1.06,9.39,2.2,14.25l.06.24v.25c-.47,7.82,1.44,15.28,5.67,22.2,8.26,13.51,19.27,24.44,31.83,31.59,6.77,4.17,13.87,7.11,21.15,8.77,14.02,3.2,28.23,1.96,41.09-3.58l.24-.1.26-.03c20.67-2.19,37.15-12.46,48.98-30.53,13.4-20.47,16.24-45.65,7.8-69.08-8.88-24.66-29-43.96-53.83-51.63-5.61-1.73-11.57-2.03-17.71-.87l-.32.06-.32-.06c-11.46-2.19-22.48.58-31.02,7.8l-.37.31-.48.08c-15.71,2.54-29.37,10.03-39.5,21.67l-2.69-2.19c16.56-21.68,41.61-34.12,68.74-34.12h0c47.72,0,86.54,38.82,86.54,86.54s-38.82,86.54-86.54,86.54h.01ZM526.22,683.79c14.5,12.33,33.27,19.79,53.76,19.79s38.5-7.15,52.87-19.04c-9.14,6.3-19.68,10.13-31.53,11.42-13.48,5.74-28.34,7.01-42.99,3.67-7.65-1.75-15.1-4.83-22.15-9.17-3.44-1.96-6.76-4.19-9.95-6.67h0ZM562.01,539.38c-9.34,2.06-18.18,5.7-26.21,10.79,5.26-2.28,10.83-3.94,16.6-4.91,2.96-2.45,6.19-4.41,9.61-5.88h0Z"
     id="path47" />
  <path
     class="st0"
     d="M1184.66,349.97c-66.86-125.59-174.91-225.04-306.24-280.04-127.66-53.61-273.07-62.02-406.02-23.36C287.94,99.56,136.12,240.92,70.49,421.32c-30.85,84.11-42.55,175.1-34.54,264.3,23.34,261.82,215.71,480.54,472.18,537.75,239.15,53.29,484.07-39.68,628.79-237.15,22.93-31.32,42.93-64.9,59.56-99.97,2.64-5.42,5.61-12.2,8.09-17.69-1.38,3.34-3.58,8.65-5.01,11.96-18.3,42.47-41.59,82.88-69.04,120.11-86.14,116.81-212.69,200.41-354.09,233.33-168.35,39.26-347.09,6.24-489.65-91.75-127.15-86.83-219.09-220.74-253.73-370.83-24.36-104.54-20.88-215.4,9.77-318.27C118.53,198.49,351.61,18.57,617.39,11.48c56.08-1.6,112.48,4.43,166.94,17.88,49.09,12.18,96.75,30.49,141.35,54.35,111.47,59.66,202.53,153.09,258.97,266.25h.01Z"
     id="path48" />
  <g
     id="g55">
    <path
       class="st2"
       d="M310.56,648.45h-4.62l-65.18-91.35v147.81h-22.07v-179.63h26.69l63.13,92.38,62.61-92.38h26.69v179.63h-22.07v-147.3l-65.18,90.84Z"
       id="path49" />
    <path
       class="st2"
       d="M671.59,615.61c-.26,46.96-29.51,92.89-91.1,92.89s-91.35-45.68-91.35-92.89c0-52.09,34.9-93.41,91.61-93.41,60.82.26,91.1,45.93,90.84,93.41ZM580.75,542.73c-45.68,0-69.29,33.62-69.29,72.88,0,36.44,22.07,71.85,69.29,71.85s68.52-36.44,68.52-71.85c.26-36.44-21.56-72.37-68.52-72.88Z"
       id="path50" />
    <path
       class="st2"
       d="M934.09,615.61c-.26,46.96-29.51,92.89-91.1,92.89s-91.35-45.68-91.35-92.89c0-52.09,34.9-93.41,91.61-93.41,60.82.26,91.1,45.93,90.84,93.41ZM843.25,542.73c-45.68,0-69.29,33.62-69.29,72.88,0,36.44,22.07,71.85,69.29,71.85s68.52-36.44,68.52-71.85c.26-36.44-21.56-72.37-68.52-72.88Z"
       id="path51" />
    <path
       class="st2"
       d="M1041.08,525.28l110.09,137.55v-137.55h22.07v179.63h-15.4l-110.35-137.03v137.03h-22.07v-179.63h15.65Z"
       id="path52" />
    <path
       class="st2"
       d="M1341.81,640.24h-43.62v64.67h-22.33v-179.63h81.6c40.54,0,60.82,28.23,60.82,57.48.26,27.2-14.63,52.61-51.58,55.69l59.28,66.46h-28.23l-55.94-64.67ZM1395.96,583.27c.26-17.96-12.57-37.98-38.49-37.98h-59.28v74.93h58.25c26.94,0,39.52-16.68,39.52-36.95Z"
       id="path53" />
    <path
       class="st2"
       d="M1599.69,525.28l80.58,179.63h-24.12l-17.71-39.52h-102.64l-17.45,39.52h-24.38l80.58-179.63h25.15ZM1587.12,547.86l-42.6,97h85.2l-42.6-97Z"
       id="path54" />
    <path
       class="st2"
       d="M1727.22,526.05v-.77h27.2l53.89,85.2,55.17-85.2h27.2v.77l-70.82,105.98v72.88h-23.09v-72.88l-69.54-105.98Z"
       id="path55" />
  </g>
</svg>
