<?xml version="1.0" encoding="UTF-8" standalone="no"?>
<svg
   xmlns:dc="http://purl.org/dc/elements/1.1/"
   xmlns:cc="http://creativecommons.org/ns#"
   xmlns:rdf="http://www.w3.org/1999/02/22-rdf-syntax-ns#"
   xmlns:svg="http://www.w3.org/2000/svg"
   xmlns="http://www.w3.org/2000/svg"
   viewBox="0 0 195.36 78.919998"
   height="78.919998"
   width="195.36"
   xml:space="preserve"
   id="svg2"
   version="1.1"><metadata
     id="metadata8"><rdf:RDF><cc:Work
         rdf:about=""><dc:format>image/svg+xml</dc:format><dc:type
           rdf:resource="http://purl.org/dc/dcmitype/StillImage" /></cc:Work></rdf:RDF></metadata><defs
     id="defs6" /><g
     transform="matrix(1.3333333,0,0,-1.3333333,0,78.92)"
     id="g10"><g
       transform="scale(0.1)"
       id="g12"><path
         id="path14"
         style="fill:#231f20;fill-opacity:1;fill-rule:nonzero;stroke:none"
         d="M 540.426,305.738 V 160.055 c 0,-18.856 4.031,-25.582 14.472,-31.637 L 573.734,117.676 558.27,90.0664 c -36.02,17.1486 -52.836,29.6016 -52.836,63.5816 v 152.09 h 34.992" /><path
         id="path16"
         style="fill:#231f20;fill-opacity:1;fill-rule:nonzero;stroke:none"
         d="m 668.969,123.023 c 27.609,0 51.152,23.555 51.152,52.856 0,29.258 -23.543,52.832 -51.152,52.832 -28.258,0 -51.836,-23.574 -51.836,-52.832 0,-29.301 23.578,-52.856 51.836,-52.856 z m 49.801,-8.75 h -0.668 C 707,99.4883 686.805,90.0664 664.598,90.0664 c -53.512,0 -84.461,43.7306 -84.461,85.8126 0,40.039 33.316,85.801 86.136,85.801 24.239,0 42.747,-10.453 51.829,-24.231 h 0.668 v 19.856 h 34.988 V 94.4297 H 718.77 v 19.8433" /><path
         id="path18"
         style="fill:#231f20;fill-opacity:1;fill-rule:nonzero;stroke:none"
         d="m 884,228.711 c -29.289,0 -50.816,-22.563 -50.816,-52.832 0,-30.293 21.527,-52.856 50.816,-52.856 29.277,0 50.813,22.563 50.813,52.856 0,30.269 -21.536,52.832 -50.813,52.832 z m -85.801,77.027 h 34.985 v -68.289 h 0.671 c 8.415,13.469 30.301,24.231 53.172,24.231 42.407,0 84.805,-31.313 84.805,-85.801 0,-54.543 -42.398,-85.8126 -84.805,-85.8126 -22.871,0 -44.757,10.7616 -53.172,24.2066 h -0.671 V 94.4297 H 798.199 V 305.738" /><path
         id="path20"
         style="fill:#231f20;fill-opacity:1;fill-rule:nonzero;stroke:none"
         d="m 1012.54,142.898 c 12.45,-13.468 32.98,-23.906 51.15,-23.906 20.2,0 32.31,11.446 32.31,20.535 0,10.766 -8.42,16.485 -21.21,18.86 l -19.85,3.691 c -45.76,8.406 -58.549,23.223 -58.549,46.434 0,27.59 23.229,53.168 63.949,53.168 22.53,0 42.39,-6.731 64.6,-22.563 l -19.86,-24.551 c -17.15,14.454 -32.31,18.164 -43.74,18.164 -15.13,0 -29.95,-7.421 -29.95,-20.527 0,-9.742 7.74,-14.812 21.2,-17.168 l 35.34,-6.707 c 28.92,-5.39 43.06,-19.199 43.06,-43.43 0,-23.875 -19.51,-54.8316 -68.98,-54.8316 -27.59,0 -51.16,9.7539 -73.354,28.5816 l 23.884,24.25" /><path
         id="path22"
         style="fill:#63a1d9;fill-opacity:1;fill-rule:nonzero;stroke:none"
         d="m 505.434,464.461 c 0,46.367 30.91,73.133 66.722,73.133 27.52,0 47.5,-13.211 54.66,-32.43 h 0.762 c 7.156,19.219 27.133,32.43 54.652,32.43 35.817,0 66.723,-26.766 66.723,-73.133 V 350.215 h -39.199 v 113.863 c 0,21.867 -13.945,34.289 -30.16,34.289 -18.852,0 -32.797,-11.308 -32.797,-39.551 V 350.215 h -39.203 v 108.601 c 0,28.243 -13.946,39.551 -32.801,39.551 -16.203,0 -30.164,-12.422 -30.164,-34.289 V 350.215 h -39.195 v 114.246" /><path
         id="path24"
         style="fill:#63a1d9;fill-opacity:1;fill-rule:nonzero;stroke:none"
         d="m 885.797,382.262 c 34.305,0 59.191,26.398 59.191,59.191 0,32.793 -24.886,59.188 -59.191,59.188 -34.297,0 -59.176,-26.395 -59.176,-59.188 0,-32.793 24.879,-59.191 59.176,-59.191 z m 0,155.332 c 63.715,0 100.664,-47.891 100.664,-96.141 0,-48.273 -36.949,-96.125 -100.664,-96.125 -63.699,0 -100.641,47.852 -100.641,96.125 0,48.25 36.942,96.141 100.641,96.141" /><path
         id="path26"
         style="fill:#63a1d9;fill-opacity:1;fill-rule:nonzero;stroke:none"
         d="m 997.008,532.684 h 43.722 l 40.33,-104.422 h 0.77 l 40.33,104.422 h 43.72 l -84.44,-187.356 -84.432,187.356" /><path
         id="path28"
         style="fill:#63a1d9;fill-opacity:1;fill-rule:nonzero;stroke:none"
         d="m 1190.76,532.684 h 39.21 V 350.215 h -39.21 z m 19.6,59.179 c 12.07,0 21.87,-9.804 21.87,-21.867 0,-12.058 -9.8,-21.863 -21.87,-21.863 -12.06,0 -21.85,9.805 -21.85,21.863 0,12.063 9.79,21.867 21.85,21.867" /><path
         id="path30"
         style="fill:#63a1d9;fill-opacity:1;fill-rule:nonzero;stroke:none"
         d="m 1419.21,460.309 c -8.29,27.89 -29.03,42.597 -53.91,42.597 -24.89,0 -45.23,-15.457 -51.65,-42.597 z m 36.19,-70.496 c -21.86,-27.52 -52.03,-44.102 -84.83,-44.485 -63.7,0 -100.65,47.852 -100.65,96.125 0,48.25 36.95,96.141 100.65,96.141 38.08,0 94.63,-31.297 94.63,-102.547 v -7.168 h -151.55 c 2.27,-27.902 28.28,-47.863 55.79,-47.863 21.12,0 39.21,10.16 52.78,28.273 l 33.18,-18.476" /><path
         id="path32"
         style="fill:#231f20;fill-opacity:1;fill-rule:nonzero;stroke:none"
         d="m 337.602,153.086 h -44.258 v 44.273 h 44.258 v -44.273" /><path
         id="path34"
         style="fill:#231f20;fill-opacity:1;fill-rule:nonzero;stroke:none"
         d="M 275.82,0.175781 H 231.563 V 44.4492 H 275.82 V 0.175781" /><path
         id="path36"
         style="fill:#231f20;fill-opacity:1;fill-rule:nonzero;stroke:none"
         d="m 461.152,306.004 h -44.269 v 44.25 h 44.269 v -44.25" /><path
         id="path38"
         style="fill:#63a1d9;fill-opacity:1;fill-rule:nonzero;stroke:none"
         d="m 399.371,153.086 h -44.266 v 44.273 h 44.266 v -44.273" /><path
         id="path40"
         style="fill:#63a1d9;fill-opacity:1;fill-rule:nonzero;stroke:none"
         d="m 399.371,255.047 h -44.266 v 44.25 h 44.266 v -44.25" /><path
         id="path42"
         style="fill:#63a1d9;fill-opacity:1;fill-rule:nonzero;stroke:none"
         d="M 337.602,51.1602 H 293.34 V 95.418 h 44.262 V 51.1602" /><path
         id="path44"
         style="fill:#63a1d9;fill-opacity:1;fill-rule:nonzero;stroke:none"
         d="M 337.602,306.004 H 293.34 v 44.25 h 44.262 v -44.25" /><path
         id="path46"
         style="fill:#63a1d9;fill-opacity:1;fill-rule:nonzero;stroke:none"
         d="m 275.82,102.129 h -44.257 v 44.258 h 44.257 v -44.258" /><path
         id="path48"
         style="fill:#63a1d9;fill-opacity:1;fill-rule:nonzero;stroke:none"
         d="m 275.82,255.047 h -44.257 v 44.25 h 44.257 v -44.25" /><path
         id="path50"
         style="fill:#63a1d9;fill-opacity:1;fill-rule:nonzero;stroke:none"
         d="m 461.152,204.078 h -44.277 v 44.25 h 44.277 v -44.25" /><path
         id="path52"
         style="fill:#63a1d9;fill-opacity:1;fill-rule:nonzero;stroke:none"
         d="m 461.152,102.129 h -44.277 v 44.258 h 44.277 v -44.258" /><path
         id="path54"
         style="fill:#231f20;fill-opacity:1;fill-rule:nonzero;stroke:none"
         d="m 421.133,515.426 c -12.399,-1.68 -27.215,-3.34 -43.805,-5 v 24.023 c 15.996,-1.386 31.02,-3.027 43.805,-5 z m 0,-98.516 c -23.789,-8.941 -56.508,-17.715 -93.344,-27.254 v 101.961 c 36.836,3.887 69.555,7.5 93.344,11.164 z M 320.156,387.684 c -27.554,-7.11 -57.105,-14.727 -86.738,-23.125 v 17.879 c 0,0 -6.801,0.023 -17.922,0.285 v 96.496 c 35.547,4.293 71.555,8.086 104.66,11.582 z m -113.07,-4.707 c -21.887,0.703 -54.664,2.382 -87.801,6.336 v 76.085 c 27.274,4.805 57.238,9.004 87.801,12.793 z m -96.981,7.492 C 63.582,396.648 18.582,407.574 4.57422,426.883 17.7422,442.313 58.2656,454.188 110.105,463.746 Z m 163.454,117.312 v 32.246 c 8.734,-0.273 18.156,-0.605 28.004,-0.996 V 505.32 c -9.848,0.977 -19.27,1.797 -28.004,2.461 z m -3.825,0.274 c -9.273,0.672 -17.648,1.179 -24.718,1.55 v 31.165 c 7.07,-0.149 15.445,-0.364 24.718,-0.625 z m 36.407,30.761 c 8.222,-0.343 16.687,-0.761 25.222,-1.222 v -31.563 c -6.422,-0.586 -12.945,-1.191 -19.597,-1.816 -1.868,0.215 -3.77,0.441 -5.625,0.644 z m 30.554,-1.523 c 11.61,-0.645 23.246,-1.426 34.52,-2.336 v -25.144 c -10.887,-1.086 -22.449,-2.149 -34.52,-3.301 z m 91.328,-8.965 c 11.18,-1.984 20.051,-4.25 25.77,-6.855 -5.609,-1.758 -14.418,-3.457 -25.77,-5.098 z m 32.774,-13.527 v 11.074 c 0,21.016 -239.461,22.941 -239.461,22.941 v -7.656 c 0,0 7.828,-0.051 20.617,-0.332 v -31.055 c -12.789,0.614 -20.617,0.801 -20.617,0.801 v -3.84 c 0,0 30.027,-0.722 68.797,-4.519 C 158.941,490.047 0,473.504 0,439.813 V 415.887 C 0,389.441 37.4961,373.633 82.4258,364.129 V 78.6016 C 37.4961,101.758 0,140.387 0,204.859 V 174.715 C 0,-0.00390625 233.418,-0.00390625 233.418,-0.00390625 V 43.9648 c 0,0 -74.074,0 -138.7657,28.75 V 361.746 C 159.344,349.938 233.418,349.938 233.418,349.938 v -1.727 c 114.184,35.117 227.379,56.887 227.379,88.652 v 9.356 c 0,-9.629 -12.293,-18.235 -32.774,-26.629 v 84.293 c 20.481,3.437 32.774,6.965 32.774,10.918" /><path
         id="path56"
         style="fill:#63a1d9;fill-opacity:1;fill-rule:nonzero;stroke:none"
         d="m 273.559,507.781 c 8.734,-0.664 18.156,-1.484 28.004,-2.461 v 33.711 c -9.848,0.391 -19.27,0.723 -28.004,0.996 z m -28.543,1.824 c 7.07,-0.371 15.445,-0.878 24.718,-1.55 v 32.09 c -9.273,0.261 -17.648,0.476 -24.718,0.625 z m -23.68,0.969 c 0,0 7.828,-0.187 20.617,-0.801 v 31.055 c -12.789,0.281 -20.617,0.332 -20.617,0.332 z m 155.992,-0.148 c 16.59,1.66 31.406,3.32 43.805,5 v 14.023 c -12.785,1.973 -27.809,3.614 -43.805,5 z m -71.187,-5.567 c 1.855,-0.203 3.757,-0.429 5.625,-0.644 6.652,0.625 13.175,1.23 19.597,1.816 v 31.563 c -8.535,0.461 -17,0.879 -25.222,1.222 z m 121.882,23.469 v -11.953 c 11.352,1.641 20.161,3.34 25.77,5.098 -5.719,2.605 -14.59,4.871 -25.77,6.855 z m -91.328,-21.816 c 12.071,1.152 23.633,2.215 34.52,3.301 v 25.144 c -11.274,0.91 -22.91,1.691 -34.52,2.336 v -30.781" /><path
         id="path58"
         style="fill:#63a1d9;fill-opacity:1;fill-rule:nonzero;stroke:none"
         d="M 428.023,503.883 V 419.59 c 20.481,8.394 32.774,17 32.774,26.629 v 68.582 c 0,-3.953 -12.293,-7.481 -32.774,-10.918 z M 327.789,389.656 c 36.836,9.539 69.555,18.313 93.344,27.254 v 85.871 c -23.789,-3.664 -56.508,-7.277 -93.344,-11.164 z m -112.293,-6.933 c 11.121,-0.262 17.922,-0.285 17.922,-0.285 v -17.879 c 29.633,8.398 59.184,16.015 86.738,23.125 v 103.117 c -33.105,-3.496 -69.113,-7.289 -104.66,-11.582 z m -96.211,6.59 c 33.137,-3.954 65.914,-5.633 87.801,-6.336 v 95.214 c -30.563,-3.789 -60.527,-7.988 -87.801,-12.793 z M 4.57422,426.883 C 18.582,407.574 63.582,396.648 110.105,390.469 v 73.277 C 58.2656,454.188 17.7422,442.313 4.57422,426.883" /><path
         id="path60"
         style="fill:#63a1d9;fill-opacity:1;fill-rule:nonzero;stroke:none"
         d="M 94.6523,361.746 V 72.7148 c 64.6917,-28.75 138.7657,-28.75 138.7657,-28.75 V 349.938 c 0,0 -74.074,0 -138.7657,11.808 z M 0,415.887 V 204.859 C 0,140.387 37.4961,101.758 82.4258,78.6016 V 364.129 C 37.4961,373.633 0,389.441 0,415.887" /></g></g></svg>