<?xml version="1.0" encoding="UTF-8" standalone="no"?>
<svg
   width="1024"
   height="1300"
   viewBox="0 0 1024 1300"
   version="1.1"
   xml:space="preserve"
   style="clip-rule:evenodd;fill-rule:evenodd;stroke-linejoin:round;stroke-miterlimit:2"
   id="svg69"
   sodipodi:docname="mrv2.svg"
   inkscape:version="1.2.2 (b0a8486541, 2022-12-01)"
   xmlns:inkscape="http://www.inkscape.org/namespaces/inkscape"
   xmlns:sodipodi="http://sodipodi.sourceforge.net/DTD/sodipodi-0.dtd"
   xmlns:xlink="http://www.w3.org/1999/xlink"
   xmlns="http://www.w3.org/2000/svg"
   xmlns:svg="http://www.w3.org/2000/svg"
   xmlns:serif="http://www.serif.com/"><sodipodi:namedview
   id="namedview71"
   pagecolor="#ffffff"
   bordercolor="#000000"
   borderopacity="0.25"
   inkscape:showpageshadow="2"
   inkscape:pageopacity="0.0"
   inkscape:pagecheckerboard="0"
   inkscape:deskcolor="#d1d1d1"
   showgrid="false"
   inkscape:zoom="0.61580177"
   inkscape:cx="531.01503"
   inkscape:cy="669.04646"
   inkscape:window-width="1864"
   inkscape:window-height="1011"
   inkscape:window-x="56"
   inkscape:window-y="32"
   inkscape:window-maximized="1"
   inkscape:current-layer="Icon_SVG" />
    <g
   transform="translate(-2248)"
   id="g26">
        <g
   id="Icon_SVG"
   transform="translate(2248)">
            <rect
   x="0"
   y="0"
   width="1022.5963"
   height="1297.9972"
   style="fill:none;stroke-width:1"
   id="rect2" />
            
            <g
   id="Eyeball"
   transform="matrix(10.8601,0,0,8.21726,-216.29,-85.9776)">
                <path
   d="m 67.061,50.138 c 16.131,0.229 29.872,15.682 34.071,20.919 0.352,0.453 0.552,1.074 0.556,1.723 0.004,0.649 -0.189,1.273 -0.536,1.734 -4.127,5.303 -17.657,20.89 -34.091,20.89 -16.144,0 -29.893,-15.628 -34.081,-20.911 -0.349,-0.456 -0.547,-1.076 -0.548,-1.725 -0.001,-0.648 0.193,-1.271 0.541,-1.729 4.178,-5.331 17.936,-21.13 34.088,-20.901 z"
   style="fill:url(#_Linear2)"
   id="path7" />
            </g>
            <g
   id="Iris"
   transform="matrix(10.1107,0,0,9.9367,-233.261,-198.598)">
                <circle
   cx="73.709999"
   cy="70.706001"
   r="21.561001"
   style="fill:url(#_Linear3)"
   id="circle10" />
            </g>
            <g
   id="Eyeball1"
   serif:id="Eyeball"
   transform="matrix(10.8601,0,0,8.21726,-216.29,-85.9776)">
                <path
   d="m 67.061,50.138 c 16.131,0.229 29.872,15.682 34.071,20.919 0.352,0.453 0.552,1.074 0.556,1.723 0.004,0.649 -0.189,1.273 -0.536,1.734 -4.127,5.303 -17.657,20.89 -34.091,20.89 -16.144,0 -29.893,-15.628 -34.081,-20.911 -0.349,-0.456 -0.547,-1.076 -0.548,-1.725 -0.001,-0.648 0.193,-1.271 0.541,-1.729 4.178,-5.331 17.936,-21.13 34.088,-20.901 z"
   style="fill:url(#_Radial4)"
   id="path13" />
            </g>
            <g
   id="Play-Symbol"
   serif:id="Play Symbol"
   transform="matrix(0,9.9584,-9.9584,0,1136.26,-163.222)">
                <path
   d="m 67,47 c 2.425,0 14.203,20.4 12.99,22.5 -1.212,2.1 -24.768,2.1 -25.98,0 C 52.797,67.4 64.575,47 67,47 Z"
   style="fill:url(#_Linear5)"
   id="path16" />
            </g>
            <g
   id="Square-Fill"
   serif:id="Square Fill"
   transform="matrix(7.68932,0,0,7.68932,19.8835,19.8835)">
                <path
   d="M 128,29.091 V 98.909 C 128,114.965 114.965,128 98.909,128 H 29.091 C 13.035,128 0,114.965 0,98.909 V 29.091 C 0,13.035 13.035,0 29.091,0 H 98.909 C 114.965,0 128,13.035 128,29.091 Z M 64,39.813 C 41.187,39.569 21.757,56.452 15.855,62.15 c -0.491,0.489 -0.766,1.154 -0.764,1.847 0.002,0.693 0.281,1.356 0.775,1.843 C 21.78,71.486 41.2,88.187 64,88.187 c 23.212,0 42.32,-16.657 48.15,-22.325 0.489,-0.492 0.761,-1.159 0.756,-1.853 -0.005,-0.693 -0.288,-1.356 -0.785,-1.84 C 106.191,56.572 86.783,40.058 64,39.813 Z"
   style="fill:url(#_Linear6)"
   id="path19" />
            </g>
            <g
   id="Square-Outline"
   serif:id="Square Outline"
   transform="scale(8)">
                <path
   d="m 128,27.961 v 72.078 C 128,115.471 115.471,128 100.039,128 H 27.961 C 12.529,128 0,115.471 0,100.039 V 27.961 C 0,12.529 12.529,0 27.961,0 h 72.078 C 115.471,0 128,12.529 128,27.961 Z m -8.577,0 c 0,-10.698 -8.686,-19.384 -19.384,-19.384 H 27.961 c -10.698,0 -19.384,8.686 -19.384,19.384 v 72.078 c 0,10.698 8.686,19.384 19.384,19.384 h 72.078 c 10.698,0 19.384,-8.686 19.384,-19.384 z"
   style="fill:url(#_Linear7)"
   id="path22" />
            </g>
        <g
   aria-label="mrv2"
   id="text231"
   style="clip-rule:evenodd;fill-rule:evenodd;stroke-linejoin:round;stroke-miterlimit:2;font-size:192px"><path
     d="m 423.49447,1106.9976 q 17.472,0 26.112,9.024 8.64,8.832 8.64,28.8 v 67.008 h -16.704 v -66.24 q 0,-24.384 -20.928,-24.384 -14.976,0 -21.504,8.64 -6.336,8.64 -6.336,25.152 v 56.832 h -16.704 v -66.24 q 0,-24.384 -21.12,-24.384 -15.552,0 -21.504,9.6 -5.952,9.6 -5.952,27.648 v 53.376 h -16.896 v -102.912 h 13.632 l 2.496,14.016 h 0.96 q 4.8,-8.064 12.864,-11.904 8.256,-4.032 17.472,-4.032 24.192,0 31.488,17.28 h 0.96 q 5.184,-8.832 14.016,-13.056 9.024,-4.224 19.008,-4.224 z"
     id="path337" /><path
     d="m 538.11837,1106.9976 q 2.88,0 6.144,0.384 3.456,0.192 5.952,0.768 l -2.112,15.552 q -2.496,-0.576 -5.568,-0.96 -2.88,-0.384 -5.568,-0.384 -7.872,0 -14.784,4.416 -6.912,4.224 -11.136,12.096 -4.032,7.68 -4.032,18.048 v 54.912 h -16.896 v -102.912 h 13.824 l 1.92,18.816 h 0.768 q 4.992,-8.448 12.864,-14.592 7.872,-6.144 18.624,-6.144 z"
     id="path339" /><path
     d="m 592.07039,1211.8296 -38.976,-102.912 h 18.048 l 21.888,60.672 q 1.536,4.224 3.264,9.408 1.728,5.184 3.072,9.984 1.344,4.608 1.92,7.872 h 0.768 q 0.768,-3.264 2.112,-8.064 1.536,-4.8 3.264,-9.984 1.92,-5.184 3.264,-9.216 l 21.888,-60.672 h 18.048 l -39.168,102.912 z"
     id="path341" /><path
     d="m 750.47028,1211.8296 h -90.624 v -14.016 l 35.904,-36.288 q 10.368,-10.368 17.472,-18.432 7.104,-8.064 10.752,-15.744 3.648,-7.872 3.648,-17.088 0,-11.328 -6.72,-17.088 -6.72,-5.952 -17.472,-5.952 -9.984,0 -17.664,3.456 -7.488,3.456 -15.36,9.6 l -9.024,-11.328 q 8.064,-6.72 18.432,-11.328 10.56,-4.8 23.616,-4.8 19.2,0 30.336,9.792 11.136,9.6 11.136,26.688 0,10.752 -4.416,20.16 -4.416,9.408 -12.288,18.624 -7.872,9.024 -18.432,19.392 l -28.608,28.224 v 0.768 h 69.312 z"
     id="path343" /></g></g>
    </g>
    <defs
   id="defs67">
        <linearGradient
   id="_Linear2"
   x1="0"
   y1="0"
   x2="1"
   y2="-0.100018"
   gradientUnits="userSpaceOnUse"
   gradientTransform="matrix(21.8752,51.5377,-35.6413,32.8205,57.7759,43.8663)"><stop
     offset="0"
     style="stop-color:rgb(251,251,251);stop-opacity:1"
     id="stop29" /><stop
     offset="0.6"
     style="stop-color:rgb(250,250,250);stop-opacity:1"
     id="stop31" /><stop
     offset="1"
     style="stop-color:rgb(218,218,218);stop-opacity:1"
     id="stop33" /></linearGradient>
        <linearGradient
   id="_Linear3"
   x1="0"
   y1="0"
   x2="1"
   y2="0.0144054"
   gradientUnits="userSpaceOnUse"
   gradientTransform="matrix(25.8063,47.6198,-47.6198,25.8063,61.2273,46.8335)"><stop
     offset="0"
     style="stop-color:rgb(245,208,120);stop-opacity:1"
     id="stop36" /><stop
     offset="1"
     style="stop-color:rgb(246,142,121);stop-opacity:1"
     id="stop38" /></linearGradient>
        <radialGradient
   id="_Radial4"
   cx="0"
   cy="0"
   r="1"
   gradientUnits="userSpaceOnUse"
   gradientTransform="matrix(0,-65.2603,49.3788,0,67.0608,114.477)"><stop
     offset="0"
     style="stop-color:black;stop-opacity:0"
     id="stop41" /><stop
     offset="0.9"
     style="stop-color:black;stop-opacity:0.03"
     id="stop43" /><stop
     offset="1"
     style="stop-color:black;stop-opacity:0.33"
     id="stop45" /></radialGradient>
        <linearGradient
   id="_Linear5"
   x1="0"
   y1="0"
   x2="1"
   y2="0"
   gradientUnits="userSpaceOnUse"
   gradientTransform="matrix(22.5179,-14.8618,22.0139,33.3543,53.9223,69.7163)"><stop
     offset="0"
     style="stop-color:rgb(60,60,60);stop-opacity:1"
     id="stop48" /><stop
     offset="0.55"
     style="stop-color:rgb(50,50,50);stop-opacity:1"
     id="stop50" /><stop
     offset="1"
     style="stop-color:rgb(15,15,15);stop-opacity:1"
     id="stop52" /></linearGradient>
        <linearGradient
   id="_Linear6"
   x1="0"
   y1="0"
   x2="1"
   y2="0"
   gradientUnits="userSpaceOnUse"
   gradientTransform="matrix(86.25,108.75,-108.75,86.25,20.75,10.25)"><stop
     offset="0"
     style="stop-color:rgb(60,60,60);stop-opacity:1"
     id="stop55" /><stop
     offset="0.45"
     style="stop-color:rgb(51,51,51);stop-opacity:1"
     id="stop57" /><stop
     offset="1"
     style="stop-color:rgb(29,29,29);stop-opacity:1"
     id="stop59" /></linearGradient>
        <linearGradient
   id="_Linear7"
   x1="0"
   y1="0"
   x2="1"
   y2="0"
   gradientUnits="userSpaceOnUse"
   gradientTransform="matrix(107.631,110.738,-110.738,107.631,11.1084,7.76821)"><stop
     offset="0"
     style="stop-color:rgb(245,208,120);stop-opacity:1"
     id="stop62" /><stop
     offset="1"
     style="stop-color:rgb(246,142,121);stop-opacity:1"
     id="stop64" /></linearGradient>
    </defs>
</svg>
