<svg id="Layer_1" data-name="Layer 1" xmlns="http://www.w3.org/2000/svg" xmlns:xlink="http://www.w3.org/1999/xlink" viewBox="0 0 900.83539 678.96932"><defs><style>.cls-1{fill:none;}.cls-2{fill:#fff;}.cls-3{fill:#b7702f;}.cls-4{clip-path:url(#clip-path);}</style><clipPath id="clip-path"><ellipse class="cls-1" cx="458.37624" cy="146.48335" rx="199.5516" ry="59.76379"/></clipPath></defs><title>munki</title><ellipse cx="140.84119" cy="225.11227" rx="126.62025" ry="94.59769"/><path class="cls-2" d="M45.97965,218.999C48.289,192.93633,87.82992,168.6108,84.5608,170.66057c0,0-18.74793,22.75449-21.93412,52.72414-1.71642,16.14482,4.80462,45.45009,4.80462,45.45009S43.39669,248.14964,45.97965,218.999Z"/><ellipse cx="770.16801" cy="234.1946" rx="120.78357" ry="90.23711" transform="translate(-34.78806 227.01182) rotate(-16.40235)"/><path class="cls-2" d="M858.62084,214.23645c4.9071,24.47154-24.72367,57.38231-22.28429,54.626,0,0,11.02666-25.87226,5.86953-54.1552-2.77817-15.23618-16.63924-40.29638-16.63924-40.29638S853.13233,186.86545,858.62084,214.23645Z"/><ellipse cx="457.45194" cy="252.30448" rx="364.56763" ry="165.70784"/><ellipse class="cls-2" cx="219.74418" cy="238.89829" rx="119.62918" ry="81.13932"/><path class="cls-3" d="M219.74444,321.29173c-66.65531,0-120.88361-36.96132-120.88361-82.3935s54.2283-82.3935,120.88361-82.3935S340.628,193.466,340.628,238.89823,286.39975,321.29173,219.74444,321.29173Zm0-162.2782c-65.27229,0-118.37481,35.83615-118.37481,79.8847s53.10252,79.8847,118.37481,79.8847,118.37481-35.83615,118.37481-79.8847S285.01673,159.01353,219.74444,159.01353Z"/><ellipse class="cls-2" cx="678.84929" cy="239.9709" rx="119.62918" ry="81.13932"/><path class="cls-3" d="M678.84871,322.36483c-66.6547,0-120.883-36.96193-120.883-82.39412s54.2283-82.3935,120.883-82.3935c66.65593,0,120.88423,36.96132,120.88423,82.3935S745.50464,322.36483,678.84871,322.36483Zm0-162.27882c-65.27167,0-118.3742,35.83615-118.3742,79.8847,0,44.04917,53.10253,79.88532,118.3742,79.88532,65.2729,0,118.37543-35.83615,118.37543-79.88532C797.22414,195.92216,744.12161,160.086,678.84871,160.086Z"/><ellipse class="cls-2" cx="449.1141" cy="431.79658" rx="225.23652" ry="154.68506"/><path class="cls-3" d="M449.11466,588.991c-60.66506,0-117.73168-16.24718-160.68692-45.74763-43.24373-29.69767-67.05895-69.27742-67.05895-111.44682S245.184,350.04738,288.42774,320.3497c42.95524-29.50045,100.02186-45.747,160.68692-45.747,60.66445,0,117.73108,16.24656,160.6857,45.747,43.24373,29.69768,67.059,69.27743,67.059,111.44683s-23.81522,81.74915-67.059,111.44682C566.84574,572.7438,509.77911,588.991,449.11466,588.991Zm0-309.37069c-122.813,0-222.72827,68.26619-222.72827,152.17624s99.91529,152.17685,222.72827,152.17685c122.81238,0,222.72705-68.2668,222.72705-152.17685S571.927,279.62029,449.11466,279.62029Z"/><ellipse cx="449.1141" cy="467.65578" rx="82.53509" ry="79.85103"/><ellipse cx="425.80769" cy="324.16864" rx="10.98984" ry="15.21256"/><ellipse cx="472.42052" cy="324.16864" rx="10.98984" ry="15.21256"/><circle cx="619.81" cy="259.43035" r="40.95304"/><circle class="cls-2" cx="612.87432" cy="249.70062" r="12.27047"/><circle cx="279.12886" cy="258.15998" r="40.95304"/><circle class="cls-2" cx="288.45197" cy="260.70072" r="12.27047"/><path d="M340.60176,8.5281c2.833-2.73238,42.43454,30.83225,76.25914,68.59279s65.51595,86.26052,65.51595,86.26052L477.949,174.41089s-61.8234-67.07862-77.691-83.84459c-9.348-11.80788-60.84586-49.19941-61.33783-53.13538S335.40035,13.54475,340.60176,8.5281Z"/><path d="M427.76554,11.35523c1.84759-1.08,16.253,18.03746,30.99563,41.3275s26.251,62.13934,26.251,62.13934l-7.17724,5.51627S453.34734,79.03772,446.34613,68.6204c-3.951-7.17237-26.34433-31.96793-26.25423-34.12277S422.50322,14.43117,427.76554,11.35523Z"/><g class="cls-4"><path class="cls-2" d="M340.60176,8.5281c2.833-2.73238,42.43454,30.83225,76.25914,68.59279s65.51595,86.26052,65.51595,86.26052L477.949,174.41089s-61.8234-67.07862-77.691-83.84459c-9.348-11.80788-59.57549-49.19941-60.06746-53.13538S335.40035,13.54475,340.60176,8.5281Z"/><path class="cls-2" d="M427.76554,11.35523c1.84759-1.08,16.253,18.03746,30.99563,41.3275s26.251,62.13934,26.251,62.13934l-7.17724,5.51627S453.34734,79.03772,446.34613,68.6204c-3.951-7.17237-26.34433-31.96793-26.25423-34.12277S422.50322,14.43117,427.76554,11.35523Z"/></g><polygon points="515.648 619.464 515.648 664.079 531.092 664.079 531.092 620.825 529.731 619.464 515.648 619.464"/><path d="M302.33909,632.79639h-.00084c-12.59157-3.56767-25.778-.10222-31.76212,5.344a9.70738,9.70738,0,0,0-5.08422-6.579c-3.44953-1.67239-13.42023-.44239-16.70721.52619a41.82061,41.82061,0,0,0-11.12277,5.51153V631.4759H225.65017V664.086l11.83915-.09551.16925-18.35782c1.47131-1.45455,3.72854-3.6414,4.2254-4.00336,3.27274-2.38459,8.93509-4.362,12.37456-3.36658a3.50629,3.50629,0,0,1,2.47592,2.11312c2,4.96021,1.592,22.646,1.58693,22.82368l-.02094.87977h13.6808V646.323c2.40135-4.11564,8.04527-7.814,13.23925-8.64854,2.28991-.36364,5.51237-.34353,7.89528,1.84835.584.53624.69376,2.08463.65438,2.7918l-.21282,21.76461h13.61713l.0176-.84122c.00251-.13406.26728-13.56854-.19523-21.53336C306.70022,636.58693,305.1334,633.59069,302.33909,632.79639Z"/><path d="M381.80305,648.92044c-2.367,1.1261-12.93091,6.06955-20.83457,8.39717-11.10015,3.27608-19.45543,1.80981-21.28284-3.73357-1.74026-5.282-.79346-21.039-.78341-21.19653l.05614-.91161h-15.447l-.04944.80436c-.03938.63176-.946,15.5124.01173,20.83122a14.8599,14.8599,0,0,0,1.90449,4.6569c2.62925,3.1169,7.132,5.23672,13.38168,6.29914a52.928,52.928,0,0,0,8.78427.67533,83.10152,83.10152,0,0,0,22.49357-3.2409c2.22036-.66527,9.03228-2.99959,11.76542-3.94136v6.51866h13.72773V631.4759H381.80305Z"/><path d="M474.56156,630.73522c-.70717-.02346-1.45706-.0553-2.24383-.08881-5.34228-.22288-12.65692-.52954-19.76628,1.044-4.16842.92333-15.62132,4.40386-19.26942,5.52159V631.4759h-15.3088l-.1349,3.43193V664.091l15.4437-.20612V644.96567c1.68161-.65857,6.79013-2.66276,8.91916-3.57772a97.15668,97.15668,0,0,1,13.566-3.95812c15.16636-3.20905,17.86431,5.89361,17.98245,6.31925,1.44114,4.49938.791,19.2845.78425,19.43365l-.04022.89652h15.38169l.03268-.82447c.026-.65521.61919-16.10226-.85128-21.76629C487.75807,636.483,483.26875,631.02848,474.56156,630.73522Z"/><polygon points="563.09 643.377 587.173 633.991 586.911 632.336 572.143 631.466 531.31 646.893 573.669 664.017 573.825 664.079 588.512 664.046 588.85 662.4 553.15 646.988 563.09 643.377"/><polygon points="667.325 658.931 646.063 658.931 646.063 634.894 646.007 631.476 606.595 631.476 606.595 636.624 630.59 636.624 630.619 664.079 668.611 664.079 667.325 658.931"/><ellipse cx="637.04207" cy="623.05694" rx="10.49521" ry="3.85087"/></svg>