<?xml version="1.0" encoding="UTF-8" standalone="no"?>
<svg
   xmlns:dc="http://purl.org/dc/elements/1.1/"
   xmlns:cc="http://creativecommons.org/ns#"
   xmlns:rdf="http://www.w3.org/1999/02/22-rdf-syntax-ns#"
   xmlns:svg="http://www.w3.org/2000/svg"
   xmlns="http://www.w3.org/2000/svg"
   xml:space="preserve"
   style="enable-background:new 0 0 512 512;"
   viewBox="0 0 512 512"
   height="512px"
   width="512px"
   y="0px"
   x="0px"
   id="NATRON_LOGO"
   version="1.1"><metadata
   id="metadata18"><rdf:RDF><cc:Work
       rdf:about=""><dc:format>image/svg+xml</dc:format><dc:type
         rdf:resource="http://purl.org/dc/dcmitype/StillImage" /></cc:Work></rdf:RDF></metadata><defs
   id="defs16" />
<g
   id="Natron_LOGO">
	<g
   id="g10">
		<path
   id="path2"
   d="m 152.755,479 c -13.75,0 -30.618,-9.747 -37.484,-21.66 L 11.995,278.16 c -6.866,-11.913 -6.866,-31.407 0,-43.32 L 115.271,55.66 C 122.137,43.747 139.005,34 152.755,34 h 206.49 c 13.75,0 30.618,9.747 37.483,21.66 l 103.277,179.18 c 6.866,11.913 6.866,31.407 0,43.32 L 396.729,457.34 C 389.864,469.253 372.996,479 359.246,479 Z"
   style="fill:#808080" />
		<path
   id="path4"
   d="m 479.028,247.475 c 2.759,4.758 2.761,12.544 0.005,17.304 L 375.142,444.215 c -2.756,4.76 -9.511,8.651 -15.011,8.648 l -208.042,-0.115 c -5.5,-0.003 -12.257,-3.899 -15.016,-8.657 L 32.972,264.525 C 30.213,259.767 30.211,251.98 32.967,247.22 L 136.858,67.786 c 2.756,-4.76 9.511,-8.652 15.011,-8.649 l 208.043,0.116 c 5.5,0.003 12.257,3.898 15.016,8.657 z" />
		<path
   id="path6"
   d="m 479.028,247.475 -10.382,6.019 10e-4,0.001 c 0.022,0.037 0.167,0.364 0.271,0.854 0.107,0.489 0.182,1.133 0.18,1.777 0.002,0.69 -0.083,1.382 -0.2,1.882 -0.06,0.25 -0.123,0.451 -0.175,0.584 l -0.061,0.145 -0.015,0.031 v 0 l -103.89,179.434 -0.001,10e-4 c -0.021,0.043 -0.252,0.352 -0.652,0.704 -0.591,0.539 -1.558,1.157 -2.421,1.516 -0.429,0.184 -0.827,0.309 -1.115,0.372 -0.144,0.032 -0.259,0.051 -0.333,0.061 l -0.082,0.008 -0.018,0.001 0.002,0.057 v -0.057 h -0.002 l 0.002,0.057 v -0.057 11.693 l 0.03,-11.693 h -0.03 v 11.693 l 0.03,-11.693 -0.025,9.896 0.028,-9.896 h -0.003 l -0.025,9.896 0.028,-9.896 c -0.018,10e-4 -0.203,-0.004 -0.593,0.013 l 0.554,11.987 0.007,-12 -208.042,-0.115 h -0.002 c -0.049,0.002 -0.434,-0.043 -0.942,-0.213 -0.766,-0.243 -1.79,-0.771 -2.535,-1.342 -0.375,-0.28 -0.685,-0.565 -0.885,-0.782 -0.101,-0.108 -0.175,-0.199 -0.221,-0.26 l -0.048,-0.067 -0.009,-0.014 -0.045,0.026 0.045,-0.025 v -10e-4 l -0.045,0.026 0.045,-0.025 -104.1,-179.564 v -0.001 -10e-4 c -0.023,-0.036 -0.167,-0.363 -0.271,-0.854 -0.108,-0.489 -0.181,-1.135 -0.18,-1.778 -0.002,-0.691 0.083,-1.382 0.202,-1.882 0.058,-0.25 0.123,-0.452 0.173,-0.584 l 0.061,-0.145 0.015,-0.03 v 0 l 103.889,-179.436 0.001,-0.001 c 0.022,-0.042 0.252,-0.352 0.652,-0.704 0.591,-0.539 1.558,-1.158 2.421,-1.516 0.429,-0.183 0.829,-0.308 1.116,-0.372 0.143,-0.032 0.258,-0.051 0.333,-0.06 l 0.082,-0.008 0.016,-0.001 -0.002,-0.058 v 0.058 h 0.002 l -0.002,-0.058 v 0.058 -5.304 l -0.002,5.304 h 0.002 v -5.304 l -0.002,5.304 0.005,-11.368 -0.062,11.368 h 0.057 l 0.005,-11.368 -0.062,11.368 h 0.03 l 208.071,0.116 h 0.003 c 0.05,-10e-4 0.435,0.043 0.941,0.213 0.767,0.243 1.789,0.771 2.534,1.341 0.376,0.281 0.686,0.565 0.885,0.782 0.103,0.108 0.176,0.199 0.222,0.26 l 0.048,0.067 0.009,0.014 0.045,-0.028 -0.045,0.027 v 0.001 l 0.045,-0.028 -0.045,0.027 h -10e-4 l 104.102,179.565 10.381,-6.018 10.382,-6.019 -104.1,-179.565 h -10e-4 c -1.403,-2.412 -3.095,-4.394 -4.926,-6.11 -2.757,-2.562 -5.844,-4.548 -9.219,-6.035 -1.69,-0.739 -3.457,-1.346 -5.322,-1.784 -1.865,-0.436 -3.83,-0.706 -5.923,-0.709 L 151.876,47.137 h 0.059 -0.063 -0.011 l 0.002,7.57 v -7.57 h -0.002 l 0.002,7.57 v -7.57 c -2.791,0.005 -5.354,0.474 -7.757,1.198 -3.599,1.101 -6.865,2.776 -9.843,4.952 -1.486,1.093 -2.897,2.318 -4.21,3.713 -1.311,1.396 -2.529,2.962 -3.58,4.773 L 22.583,241.208 c -1.397,2.423 -2.275,4.881 -2.851,7.327 -0.569,2.448 -0.828,4.894 -0.83,7.339 0.002,2.45 0.263,4.897 0.834,7.347 0.578,2.446 1.458,4.903 2.855,7.324 v -0.001 l 104.101,179.565 v 0.001 c 1.404,2.411 3.095,4.394 4.926,6.108 2.757,2.562 5.843,4.548 9.218,6.035 1.69,0.739 3.457,1.346 5.322,1.784 1.865,0.436 3.83,0.706 5.924,0.709 l 208.322,0.115 0.279,-0.014 -0.551,-11.915 0.045,11.929 c 0.089,-10e-4 0.253,-10e-4 0.506,-0.014 l -0.551,-11.915 0.045,11.929 -0.044,-11.763 -0.032,11.763 h 0.076 l -0.044,-11.763 -0.032,11.763 h 0.004 0.03 c 2.791,-0.005 5.354,-0.476 7.757,-1.198 3.6,-1.101 6.864,-2.775 9.844,-4.951 1.485,-1.093 2.896,-2.317 4.21,-3.713 1.312,-1.396 2.528,-2.963 3.58,-4.773 L 489.418,270.791 c 1.396,-2.423 2.275,-4.881 2.851,-7.326 0.569,-2.448 0.828,-4.895 0.83,-7.34 -0.002,-2.449 -0.263,-4.898 -0.834,-7.347 -0.577,-2.447 -1.458,-4.904 -2.854,-7.324 z"
   style="fill:#ffffff" />
		<path
   id="path8"
   d="M 347.648,122.996 C 343.528,115.849 340.122,110 340.078,110 340.035,110 340,116.75 340,125 v 115 c 0,8.25 -3.384,9.159 -7.52,2.021 L 263.52,122.979 C 259.384,115.841 249.25,110 241,110 h -54.158 c -8.25,0 -18.371,5.848 -22.491,12.996 L 95.175,243.004 c -4.12,7.147 -4.12,18.844 0,25.992 l 69.176,120.008 c 4.12,7.148 7.526,12.996 7.569,12.996 0.043,0 0.079,-6.75 0.079,-15 V 270 c 0,-8.25 3.349,-9.141 7.442,-1.977 l 69.116,120.953 C 252.651,396.141 262.75,402 271,402 h 54.157 c 8.25,0 18.371,-5.848 22.491,-12.995 l 69.176,-120.01 c 4.12,-7.147 4.12,-18.843 0,-25.991 z"
   style="fill:#ffffff" />
	</g>
</g>
</svg>