<svg id="NATRON_LOGO" data-name="NATRON LOGO" xmlns="http://www.w3.org/2000/svg" viewBox="0 0 2064.00903 512"><defs><style>.cls-1{fill:gray;}.cls-2{fill:#fff;}</style></defs><title>natron</title><g id="Natron_LOGO-2" data-name="Natron LOGO"><path class="cls-1" d="M173.7012,481.21447c-13.75,0-30.618-9.747-37.484-21.66l-103.276-179.18c-6.866-11.913-6.866-31.407,0-43.32l103.276-179.18c6.866-11.913,23.734-21.66,37.484-21.66h206.49c13.75,0,30.618,9.747,37.483,21.66l103.277,179.18c6.866,11.913,6.866,31.407,0,43.32l-103.276,179.18c-6.865,11.913-23.733,21.66-37.483,21.66Z"/><path d="M499.97422,249.68948c2.759,4.758,2.761,12.544.005,17.304l-103.891,179.436c-2.756,4.76-9.511,8.651-15.011,8.648l-208.042-.115c-5.5-.003-12.257-3.899-15.016-8.657l-104.101-179.566c-2.759-4.758-2.761-12.545-.005-17.305l103.891-179.434c2.756-4.76,9.511-8.652,15.011-8.649l208.043.116c5.5.003,12.257,3.898,15.016,8.657Z"/><path class="cls-2" d="M499.97422,249.68948l-10.382,6.019.001.001a3.89633,3.89633,0,0,1,.271.854,8.90918,8.90918,0,0,1-.02,3.659,4.69166,4.69166,0,0,1-.175.584l-.061.145-.015.031h0l-103.89,179.434-.001.001a3.87838,3.87838,0,0,1-.652.704,9.20411,9.20411,0,0,1-2.421,1.516,6.501,6.501,0,0,1-1.115.372c-.144.032-.259.051-.333.061l-.082.008-.018.001.002.057v-.057h-.002l.002.057v11.636l.03-11.693h-.03v11.693l.03-11.693-.025,9.896.028-9.896h-.003l-.025,9.896.028-9.896c-.018.001-.203-.004-.593.013l.554,11.987.007-12-208.042-.115h-.002a4.02361,4.02361,0,0,1-.942-.213,9.19528,9.19528,0,0,1-2.535-1.342,6.70064,6.70064,0,0,1-.885-.782,3.303,3.303,0,0,1-.221-.26l-.048-.067-.009-.014-.045.026.045-.025v-.001l-.045.026.045-.025-104.1-179.564v-.002a3.79316,3.79316,0,0,1-.271-.854,8.58118,8.58118,0,0,1-.18-1.778,8.47331,8.47331,0,0,1,.202-1.882,4.6919,4.6919,0,0,1,.173-.584l.061-.145.015-.03h0l103.889-179.436.001-.001a3.9597,3.9597,0,0,1,.652-.704,9.1784,9.1784,0,0,1,2.421-1.516,6.71578,6.71578,0,0,1,1.116-.372c.143-.032.258-.051.333-.06l.082-.008.016-.001-.002-.058v.058h.002l-.002-.058v-5.246l-.002,5.304h.002v-5.304l-.002,5.304.005-11.368-.062,11.368h.057l.005-11.368-.062,11.368h.03l208.071.116h.003a4.04986,4.04986,0,0,1,.941.213,9.19873,9.19873,0,0,1,2.534,1.341,6.64566,6.64566,0,0,1,.885.782,2.95941,2.95941,0,0,1,.222.26l.048.067.009.014.045-.028-.045.027v.001l.045-.028-.045.027h-.001l104.102,179.565,10.381-6.018,10.382-6.019-104.1-179.565h-.001a26.7912,26.7912,0,0,0-4.926-6.11,32.92389,32.92389,0,0,0-9.219-6.035,30.85825,30.85825,0,0,0-5.322-1.784,26.02663,26.02663,0,0,0-5.923-.709l-208.043-.116h-.015l.002,7.57v-7.57h-.002l.002,7.57v-7.57a26.80277,26.80277,0,0,0-7.757,1.198,32.88344,32.88344,0,0,0-9.843,4.952,30.87108,30.87108,0,0,0-4.21,3.713,26.03767,26.03767,0,0,0-3.58,4.773l-103.89,179.435a26.76609,26.76609,0,0,0-2.851,7.327,32.81976,32.81976,0,0,0,.004,14.686,26.80174,26.80174,0,0,0,2.855,7.324v-.001l104.101,179.565v.001a26.78347,26.78347,0,0,0,4.926,6.108,32.91894,32.91894,0,0,0,9.218,6.035,30.85551,30.85551,0,0,0,5.322,1.784,26.03,26.03,0,0,0,5.924.709l208.322.115.279-.014-.551-11.915.045,11.929c.089-.001.253-.001.506-.014l-.551-11.915.045,11.929-.044-11.763-.032,11.763h.076l-.044-11.763-.032,11.763h.034a26.87159,26.87159,0,0,0,7.757-1.198,32.89846,32.89846,0,0,0,9.844-4.951,30.91876,30.91876,0,0,0,4.21-3.713,26.06922,26.06922,0,0,0,3.58-4.773l103.892-179.435a26.80582,26.80582,0,0,0,2.851-7.326,32.82389,32.82389,0,0,0-.004-14.687,26.77313,26.77313,0,0,0-2.854-7.324Z"/><path class="cls-2" d="M368.59421,125.21047c-4.12-7.147-7.526-12.996-7.57-12.996-.043,0-.078,6.75-.078,15v115c0,8.25-3.384,9.159-7.52,2.021l-68.96-119.042c-4.136-7.138-14.27-12.979-22.52-12.979h-54.158c-8.25,0-18.371,5.848-22.491,12.996l-69.176,120.008c-4.12,7.147-4.12,18.844,0,25.992l69.176,120.008c4.12,7.148,7.526,12.996,7.569,12.996s.079-6.75.079-15v-117c0-8.25,3.349-9.141,7.442-1.977l69.116,120.953c4.094,7.165,14.193,13.024,22.443,13.024h54.157c8.25,0,18.371-5.848,22.491-12.995l69.176-120.01c4.12-7.147,4.12-18.843,0-25.991Z"/></g><path d="M588.10343,130.47567H644.439L746.5263,309.79746V130.47567h50.07436V387.65114H742.87325L638.177,205.17562V387.65114H588.10343Z"/><path d="M920.56471,130.47567h60.80481l90.98869,257.17547h-58.27493L997.11273,334.7853H902.406l-17.43345,52.86584H828.76145Zm-3.54105,159.99289h65.86457L950.40005,189.27381Z"/><path d="M1265.58845,130.47567v45.53821h-76.94277V387.65114H1134.558V176.01388h-77.29209V130.47567Z"/><path d="M1461.80128,137.10583a63.51956,63.51956,0,0,1,24.07458,17.97076,80.05816,80.05816,0,0,1,12.93058,21.63516,72.10825,72.10825,0,0,1,4.76525,27.04346,77.0508,77.0508,0,0,1-9.247,36.02884q-9.24972,17.71051-30.5332,25.03718,17.79687,7.15611,25.21184,20.326,7.41341,13.17612,7.415,40.21645v17.27288q0,17.62534,1.41767,23.90305,2.1265,9.94524,9.92292,14.65606v6.4555h-59.32135q-2.4449-8.546-3.48935-13.78353a126.426,126.426,0,0,1-2.26827-22.158l-.34855-23.903q-.33131-24.6017-8.50055-32.80148-8.17-8.19939-30.61466-8.20057h-52.48441v100.8466h-52.51651V130.47567h123.01005Q1447.59285,130.99908,1461.80128,137.10583Zm-111.0695,38.03551v69.09193H1408.565q17.23177,0,25.84941-4.18723,15.24507-7.32822,15.24506-28.9628,0-23.37865-14.74927-31.40574-8.284-4.535-24.8539-4.53616Z"/><path d="M1753.071,364.79529q-29.14021,30.01078-84.27159,30.00922-55.13529,0-84.2708-30.00922-39.08545-36.81207-39.08232-106.08062,0-70.66233,39.08232-106.08063,29.13551-30.00667,84.2708-30.00961,55.13178,0,84.27159,30.00961,38.90451,35.421,38.90765,106.08063Q1791.97863,327.98184,1753.071,364.79529ZM1719.48469,325.713q18.75321-23.55489,18.75556-66.99831,0-43.26857-18.75556-66.911-18.75792-23.64007-50.6853-23.64144-31.92816,0-50.94611,23.55411-19.01991,23.55431-19.01795,66.99831,0,43.44361,19.01795,66.99831,19.014,23.55372,50.94611,23.55372Q1700.72874,349.2667,1719.48469,325.713Z"/><path d="M1832.10814,130.47567h56.33562L1990.531,309.79746V130.47567h50.07436V387.65114H1986.878L1882.18172,205.17562V387.65114h-50.07358Z"/></svg>