<?xml version="1.0" encoding="UTF-8"?>
<svg version="1.1" xmlns="http://www.w3.org/2000/svg" width="2641" height="1716">
<path d="M0 0 C0 165.33 0 330.66 0 501 C-73 503 -73 503 -91 503 C-91.33 397.07 -91.66 291.14 -92 182 C-98.27 199.16 -104.54 216.32 -111 234 C-119.5625 257.1875 -119.5625 257.1875 -123.7578125 268.5234375 C-128.16952502 280.44633834 -132.55574274 292.37856321 -136.9375 304.3125 C-137.30762207 305.32040588 -137.67774414 306.32831177 -138.05908203 307.36676025 C-141.91119016 317.85704099 -145.76104141 328.34814881 -149.60942078 338.83979797 C-151.20913247 343.20052776 -152.80949348 347.5610191 -154.40994263 351.92147827 C-155.51540299 354.93414827 -156.6199083 357.94716711 -157.72436523 360.96020508 C-159.44656845 365.65591363 -161.17542834 370.34912804 -162.9085083 375.04083252 C-163.67720501 377.1248633 -164.44372924 379.20969603 -165.2086792 381.29510498 C-166.43455925 384.63493109 -167.66773537 387.97198579 -168.90234375 391.30859375 C-169.47221764 392.86768211 -169.47221764 392.86768211 -170.05360413 394.45826721 C-170.40966232 395.41619675 -170.76572052 396.37412628 -171.13256836 397.36108398 C-171.44544296 398.21008774 -171.75831757 399.05909149 -172.08067322 399.93382263 C-173 402 -173 402 -175 404 C-179.75244042 394.29133917 -183.43754413 384.17185572 -187.23776245 374.0647583 C-189.33733365 368.48260021 -191.45024507 362.90549344 -193.5625 357.328125 C-194.0053685 356.15814972 -194.448237 354.98817444 -194.90452576 353.78274536 C-199.85891917 340.70831587 -204.8947341 327.66554471 -209.9375 314.625 C-211.79042277 309.83205374 -213.64325486 305.03907243 -215.49609375 300.24609375 C-216.18172646 298.47276924 -216.18172646 298.47276924 -216.88121033 296.66362 C-220.04506092 288.47817414 -223.19959741 280.28918777 -226.34765625 272.09765625 C-226.78375717 270.96293884 -227.21985809 269.82822144 -227.66917419 268.65911865 C-229.70621145 263.35795113 -231.7422189 258.05639018 -233.77709961 252.75439453 C-240.79699398 234.48122857 -247.90480046 216.24479883 -255 198 C-255.33 300.96 -255.66 403.92 -256 510 C-336 515 -336 515 -347 515 C-347 349.67 -347 184.34 -347 14 C-265 9 -265 9 -241 8 C-233.33830265 27.9005126 -225.79064264 47.84228845 -218.3125 67.8125 C-210.2443042 89.35764885 -202.15352821 110.89413767 -194.04092026 132.42260361 C-193.19906259 134.65681397 -192.35739105 136.89109436 -191.51577759 139.12539673 C-188.46348963 147.22817265 -185.40813754 155.32978006 -182.3480835 163.42962646 C-181.46917217 165.75740641 -180.59123585 168.08555479 -179.7144165 170.41412354 C-178.5790059 173.42936509 -177.44038228 176.44337151 -176.30078125 179.45703125 C-175.97426071 180.3265593 -175.64774017 181.19608734 -175.31132507 182.09196472 C-174.12692547 185.82449042 -174.12692547 185.82449042 -172 189 C-171.75848709 188.32477798 -171.51697418 187.64955597 -171.2681427 186.95387268 C-160.03150276 155.54585391 -148.74522704 124.15968524 -137.16552734 92.87615967 C-132.01001531 78.94507168 -126.89941034 64.99946461 -121.8671875 51.0234375 C-121.61242456 50.3160034 -121.35766163 49.6085693 -121.0951786 48.8796978 C-118.60266618 41.95686547 -116.11437157 35.03253506 -113.63367081 28.10546112 C-112.94543628 26.1845304 -112.25618882 24.26396651 -111.56655884 22.34353638 C-110.72382558 19.9959747 -109.88311401 17.64768593 -109.04476929 15.29855347 C-108.67139435 14.2592569 -108.29801941 13.21996033 -107.91333008 12.14916992 C-107.59028397 11.2463176 -107.26723785 10.34346527 -106.93440247 9.41325378 C-106.62604965 8.61688004 -106.31769684 7.82050629 -106 7 C-105.71303757 6.25442337 -105.42607513 5.50884674 -105.13041687 4.74067688 C-104 3 -104 3 -102.34925842 2.26856995 C-99.03894025 1.89013054 -95.73977515 1.773371 -92.41186523 1.70288086 C-91.27170959 1.67340111 -91.27170959 1.67340111 -90.10852051 1.64332581 C-87.59196594 1.57942387 -85.07530935 1.52202323 -82.55859375 1.46484375 C-80.79377964 1.42175897 -79.0289736 1.37834228 -77.26417542 1.33460999 C-73.5545144 1.24363527 -69.84479797 1.15569667 -66.13500977 1.07006836 C-61.43539098 0.96149797 -56.73593929 0.84707964 -52.03651333 0.73049068 C-48.38227214 0.64024596 -44.72797506 0.55245812 -41.07365608 0.46542549 C-39.34491718 0.42411894 -37.61619106 0.38227328 -35.88747978 0.33982658 C-33.43471932 0.28013232 -30.98190376 0.22355975 -28.52905273 0.16772461 C-27.84623734 0.15059418 -27.16342194 0.13346375 -26.45991516 0.11581421 C-17.63783594 -0.07753863 -8.82978126 0 0 0 Z " fill="#E50914" transform="translate(1211,568)"/>
<path d="M0 0 C13.78584568 1.14882047 13.78584568 1.14882047 20.33886719 2.21508789 C21.45340271 2.3908712 21.45340271 2.3908712 22.5904541 2.57020569 C24.99327391 2.95021081 27.39506099 3.33634991 29.796875 3.72265625 C31.48360193 3.99065415 33.17039102 4.25826109 34.85723877 4.52549744 C39.25701377 5.22358472 43.65593445 5.92691463 48.0546875 6.63140869 C52.55938355 7.35189484 57.06488239 8.06732433 61.5703125 8.78320312 C70.380993 10.18390566 79.19077763 11.59015824 88 13 C88.28211334 13.84856064 88.56422668 14.69712128 88.85488892 15.57139587 C92.44242547 26.36092982 96.03258755 37.1495885 99.625 47.9375 C99.91245087 48.80070862 100.19990173 49.66391724 100.49606323 50.55328369 C107.36091771 71.16587898 114.23482164 91.77391759 121.29742432 112.3197937 C126.11932665 126.350957 130.82131051 140.4204786 135.5 154.5 C140.64829062 169.99262279 145.84799467 185.46444453 151.1583252 200.90222168 C155.78525091 214.3697173 160.30403648 227.87272068 164.8046875 241.3828125 C165.10796841 242.2931638 165.41124931 243.20351509 165.72372055 244.14145279 C168.82920955 253.46464717 171.93126271 262.7889795 175.02890968 272.11478233 C176.20278855 275.64815074 177.37776302 279.1811543 178.55289078 282.71410751 C179.37454065 285.18598631 180.19447901 287.65842851 181.01437378 290.13088989 C181.51502702 291.63644329 182.01576482 293.14196857 182.51660156 294.64746094 C182.73991842 295.32257532 182.96323528 295.9976897 183.19331932 296.6932621 C184.3581366 300.18811956 185.62957995 303.57394988 187 307 C187.33 215.92 187.66 124.84 188 31 C194.46043459 31.58731224 200.42188256 32.13349108 206.71875 33.29101562 C207.40804092 33.41635178 208.09733185 33.54168793 208.80751038 33.67082214 C211.03924066 34.07788374 213.26961548 34.49188389 215.5 34.90625 C217.06886168 35.19425553 218.63779202 35.48188723 220.20678711 35.76916504 C223.47159433 36.36798678 226.73578186 36.97004149 229.99951172 37.57470703 C234.18270888 38.34963102 238.36703453 39.11824391 242.55178833 39.88471222 C245.78111721 40.47655742 249.01001572 41.07072148 252.23876953 41.66569519 C253.78246021 41.95005873 255.32624227 42.23392664 256.87011719 42.51728821 C259.01929672 42.91230561 261.16792149 43.31020779 263.31640625 43.70898438 C264.53787354 43.93469116 265.75934082 44.16039795 267.01782227 44.39294434 C270 45 270 45 273 46 C273 211.33 273 376.66 273 547 C257.24832967 544.74976138 257.24832967 544.74976138 251.04833984 543.59545898 C250.03078613 543.40723572 250.03078613 543.40723572 248.99267578 543.21520996 C246.81489831 542.81163776 244.63790965 542.40398554 242.4609375 541.99609375 C240.92115276 541.70966576 239.38132647 541.42346105 237.84146118 541.13746643 C234.64608703 540.54338361 231.45107569 539.94740095 228.25634766 539.34985352 C224.16601764 538.58483994 220.07500898 537.82353125 215.98375511 537.06347561 C212.81801209 536.47514921 209.65251835 535.88549119 206.48711014 535.29536629 C204.97769876 535.01401601 203.46823626 534.73293978 201.95872116 534.45214653 C199.85814705 534.06107829 197.75788812 533.66836088 195.65771484 533.27514648 C194.46528168 533.0524559 193.27284851 532.82976532 192.04428101 532.60032654 C191.03966827 532.40221878 190.03505554 532.20411102 189 532 C188.31337784 531.90397271 187.62675568 531.80794542 186.91932678 531.70900822 C185 531 185 531 183.98468971 529.30480194 C183.74108397 528.56254616 183.49747822 527.82029037 183.24649048 527.05554199 C182.81422653 525.77926437 182.81422653 525.77926437 182.37322998 524.47720337 C182.07297913 523.53533173 181.77272827 522.59346008 181.46337891 521.62304688 C181.13415436 520.63537323 180.80492981 519.64769958 180.46572876 518.63009644 C179.37039596 515.33125114 178.29868007 512.02520605 177.2265625 508.71875 C176.46018656 506.39651871 175.6922871 504.07478972 174.92294312 501.75354004 C172.88522636 495.59253276 170.86703473 489.42530165 168.85314941 483.25646973 C166.85646854 477.14933719 164.84422939 471.04734652 162.83203125 464.9453125 C162.04100415 462.546031 161.25000878 460.14673903 160.45904541 457.74743652 C159.87495281 455.97574348 159.87495281 455.97574348 159.27906036 454.16825867 C158.10048411 450.59047635 156.92422833 447.01193815 155.74847412 443.43322754 C149.70541318 425.05246758 143.48996999 406.73491723 137.20347023 388.4362793 C133.89587314 378.79873914 130.68288559 369.1298821 127.47964478 359.45724487 C121.72866276 342.0968072 115.90050476 324.76489201 109.96469116 307.46682739 C104.72436301 292.19210284 99.60261661 276.87931026 94.52856445 261.54858398 C94.24710571 260.69997803 93.96564697 259.85137207 93.67565918 258.97705078 C93.15476144 257.4062956 92.63511672 255.835124 92.11706543 254.26342773 C91.76388245 253.19898438 91.76388245 253.19898438 91.40356445 252.11303711 C91.20374466 251.50834091 91.00392487 250.90364471 90.79804993 250.28062439 C89.59142284 246.83239005 88.28274332 243.42064885 87 240 C86.67 330.42 86.34 420.84 86 514 C57.2735187 510.08275255 28.644777 505.47574641 0 501 C0 335.67 0 170.34 0 0 Z " fill="#E50914" transform="translate(2368,645)"/>
<path d="M0 0 C26.4 0 52.8 0 80 0 C90.32906371 27.54416988 90.32906371 27.54416988 94.13671875 38.19921875 C94.80842037 40.07149487 95.48012289 41.94377067 96.15185928 43.81603432 C96.85156162 45.76721437 97.55043928 47.71868784 98.24905396 49.67025757 C99.73568134 53.82292305 101.22488676 57.97466123 102.71459961 62.1262207 C103.09658115 63.19074479 103.09658115 63.19074479 103.48627949 64.27677441 C104.0041252 65.71990306 104.52198088 67.16302813 105.03984642 68.60614967 C105.82149826 70.78455463 106.60294436 72.9630333 107.38435364 75.14152527 C112.59362655 89.66290626 117.82594047 104.17594038 123.0625 118.6875 C123.51786171 119.94957157 123.97321448 121.21164636 124.42855835 122.47372437 C126.48001783 128.15975958 128.53162548 133.8457413 130.58346844 139.53163815 C134.7039211 150.94997283 138.82207082 162.36913786 142.94014359 173.78833103 C144.53236309 178.20342787 146.12478293 182.6184524 147.71728516 187.03344727 C151.98288163 198.85941155 156.24752892 210.68571593 160.50912476 222.51312256 C162.26060793 227.37407295 164.01253091 232.2348648 165.76454735 237.09562302 C166.95318132 240.39345028 168.14157306 243.69136436 169.3293457 246.98950195 C170.64473072 250.6416605 171.96095881 254.29351427 173.27734375 257.9453125 C173.65253647 258.98773102 174.02772919 260.03014954 174.41429138 261.10415649 C177.89466707 270.75457989 181.45314394 280.37281926 185 290 C185.495 146.45 185.495 146.45 186 0 C213.72 0 241.44 0 270 0 C270 163.02 270 326.04 270 494 C255.3707124 496.25065963 255.3707124 496.25065963 248.91821289 496.96142578 C248.21394165 497.0397464 247.50967041 497.11806702 246.78405762 497.19876099 C244.51389179 497.45043801 242.24330872 497.69806785 239.97265625 497.9453125 C238.36891525 498.12166294 236.76519141 498.29816945 235.16148376 498.474823 C231.82782791 498.84136419 228.49395502 499.20584456 225.15991211 499.56884766 C220.89723243 500.03315663 216.63518439 500.50300804 212.37328434 500.97441292 C209.07322797 501.33876145 205.77284137 501.70004384 202.47234917 502.06042099 C200.90023534 502.23247651 199.32822822 502.40550997 197.7563343 502.57956314 C195.56322728 502.82196906 193.36970409 503.06019416 191.17602539 503.29736328 C189.93172256 503.43345001 188.68741974 503.56953674 187.40541077 503.70974731 C184.24885258 503.9787896 181.16583054 504.0544883 178 504 C170.48374436 482.57532806 162.99824825 461.14025601 155.5625 439.6875 C150.18084397 424.16169945 144.78974034 408.63929585 139.375 393.125 C138.91539383 391.80805649 138.91539383 391.80805649 138.44650269 390.46450806 C136.29828367 384.30945719 134.14924827 378.15469153 132 372 C129.54108639 364.95853581 127.08256333 357.91693558 124.625 350.875 C124.31866638 349.99724915 124.01233276 349.11949829 123.69671631 348.21514893 C117.97665641 331.82249085 112.28257034 315.42086006 106.60009766 299.01513672 C99.43207945 278.33213618 92.20998532 257.66862457 85 237 C84.67 329.07 84.34 421.14 84 516 C5 527 5 527 0 527 C0 353.09 0 179.18 0 0 Z " fill="#E40813" transform="translate(354,0)"/>
<path d="M0 0 C0 165.33 0 330.66 0 501 C-83 510 -83 510 -87 509 C-88.15040588 507.0657196 -88.15040588 507.0657196 -89.08032227 504.47924805 C-89.43989517 503.50388596 -89.79946808 502.52852386 -90.16993713 501.52360535 C-90.54827194 500.44718277 -90.92660675 499.37076019 -91.31640625 498.26171875 C-91.72491318 497.1401387 -92.1334201 496.01855865 -92.55430603 494.86299133 C-93.67139902 491.787093 -94.77419839 488.70650372 -95.87124634 485.62341309 C-97.03376772 482.36767576 -98.21488957 479.11870517 -99.39453125 475.86914062 C-101.33684773 470.51265938 -103.26966268 465.15284609 -105.19580078 459.79052734 C-108.87165757 449.56064107 -112.610019 439.35372178 -116.34838867 429.14654541 C-117.51076422 425.97058895 -118.67080781 422.79379035 -119.83007812 419.61669922 C-126.58940135 401.09352849 -133.40349236 382.59070435 -140.22558594 364.09057617 C-141.10482848 361.70622142 -141.98406031 359.32186272 -142.86328125 356.9375 C-143.51102005 355.18092827 -143.51102005 355.18092827 -144.17184448 353.38887024 C-147.02998988 345.63617862 -149.88263199 337.88148404 -152.73046875 330.125 C-153.11445328 329.07918259 -153.49843781 328.03336517 -153.89405823 326.95585632 C-155.65487124 322.15942496 -157.41496432 317.36273077 -159.17407227 312.56567383 C-167.07758601 291.02945742 -175.04753578 269.51843259 -183 248 C-183.33 338.42 -183.66 428.84 -184 522 C-265 533 -265 533 -269 533 C-269 367.67 -269 202.34 -269 32 C-191.15263158 20.87894737 -191.15263158 20.87894737 -183 21 C-178.10476379 32.20669495 -174.00281002 43.70446459 -169.8125 55.1875 C-169.01525544 57.36598845 -168.21772377 59.54437185 -167.41992188 61.72265625 C-165.76533022 66.240969 -164.11196541 70.75972781 -162.45947266 75.27880859 C-159.02036736 84.68085554 -155.56619011 94.07735792 -152.11218262 103.47393799 C-150.6154198 107.54637809 -149.11952742 111.6191377 -147.62362671 115.69189453 C-144.63384748 123.83187537 -141.64311648 131.9715052 -138.65066528 140.11050415 C-130.5784892 162.0656836 -122.52300519 184.02679994 -114.5 206 C-108.39258104 222.72616114 -102.27601002 239.448918 -96.13916016 256.16430664 C-95.34448015 258.32892973 -94.55004253 260.49364183 -93.75585938 262.65844727 C-92.65961413 265.64627581 -91.56239063 268.63374314 -90.46484375 271.62109375 C-90.14180771 272.50188095 -89.81877167 273.38266815 -89.48594666 274.29014587 C-89.18628494 275.10503983 -88.88662323 275.91993378 -88.57788086 276.75952148 C-88.31986191 277.46205551 -88.06184296 278.16458954 -87.79600525 278.88841248 C-86.8975216 281.27184759 -85.94599233 283.63501917 -85 286 C-84.67 194.59 -84.34 103.18 -84 9 C-70.49700289 6.74950048 -70.49700289 6.74950048 -64.67431641 6.13037109 C-63.3732193 5.99037689 -62.07212219 5.85038269 -60.7315979 5.70614624 C-59.3549373 5.56173959 -57.97825838 5.41750743 -56.6015625 5.2734375 C-55.15332715 5.11957696 -53.70511592 4.96548926 -52.25692749 4.81118774 C-49.24688173 4.49128409 -46.23658497 4.17389536 -43.22607422 3.85839844 C-39.37922334 3.45507646 -35.533049 3.04566664 -31.68703651 2.63443565 C-28.70694133 2.31641523 -25.72653011 2.00144235 -22.74601364 1.687397 C-21.32742188 1.5375901 -19.90892459 1.38688565 -18.49052811 1.23524094 C-16.51044918 1.02403796 -14.52989037 0.81734895 -12.54931641 0.61083984 C-11.42635162 0.49251801 -10.30338684 0.37419617 -9.14639282 0.25228882 C-6.10619327 0.00851495 -3.04995722 0 0 0 Z " fill="#E50914" transform="translate(621,603)"/>
<path d="M0 0 C1.6412661 -0.00503792 1.6412661 -0.00503792 3.31568909 -0.01017761 C6.85280564 -0.01950242 10.38987396 -0.02162109 13.92700195 -0.02270508 C16.43927529 -0.02593004 18.95154844 -0.02929497 21.46382141 -0.03279114 C26.70049474 -0.03873603 31.93715167 -0.04063582 37.17382812 -0.04003906 C43.81165509 -0.03993761 50.44937472 -0.05359419 57.08717632 -0.07081127 C62.26862551 -0.08204756 67.45004967 -0.08395476 72.63150978 -0.08342934 C75.07538027 -0.08459186 77.5192518 -0.08891346 79.96310997 -0.0967617 C124.93095561 -0.22769271 166.63836637 4.65255352 200.1027832 37.33276367 C218.91966757 56.39971563 230.16595546 80.2927513 236.6652832 106.02026367 C237.02251465 107.38852295 237.02251465 107.38852295 237.38696289 108.78442383 C243.78933977 135.59269336 242.92775064 163.18684397 242.88075972 190.5419693 C242.87305688 196.44473154 242.88023771 202.3474812 242.88491821 208.25024414 C242.89034532 218.15472973 242.88326483 228.05914776 242.86889648 237.96362305 C242.85257596 249.34376122 242.85786663 260.72373803 242.8743757 272.1038723 C242.8880781 281.95101978 242.88986784 291.79811926 242.88205969 301.64527321 C242.87743088 307.49309551 242.87662372 313.34084249 242.88666916 319.18865967 C242.95986606 368.60938604 241.11157103 419.5345507 207.4777832 459.14526367 C206.77266602 460.01280273 206.06754883 460.8803418 205.34106445 461.77416992 C183.93975064 487.05224668 152.42233549 497.59586897 120.4777832 501.14526367 C69.9877832 501.14526367 19.4977832 501.14526367 -32.5222168 501.14526367 C-32.5222168 336.14526367 -32.5222168 171.14526367 -32.5222168 1.14526367 C-9.52823163 -0.00443559 -9.52823163 -0.00443559 0 0 Z M63.4777832 90.14526367 C63.4777832 196.40526367 63.4777832 302.66526367 63.4777832 412.14526367 C97.11189388 415.18476758 97.11189388 415.18476758 128.4855957 403.23510742 C144.59924215 386.33157634 144.78167001 362.41881041 144.75244141 340.56030273 C144.75679563 338.39880193 144.76198113 336.23730267 144.76792908 334.07580566 C144.78125495 328.23675972 144.78190483 322.39777876 144.77936578 316.55872059 C144.77829154 311.66853946 144.78319104 306.77837124 144.7879712 301.88819289 C144.79904456 290.34203728 144.79951625 278.79591421 144.79345703 267.24975586 C144.78742073 255.37495826 144.7997246 243.50027925 144.8210271 231.62550187 C144.83869461 221.39745021 144.84463629 211.16943612 144.84138936 200.94136977 C144.83958431 194.84715404 144.84213435 188.75302289 144.8561039 182.65882111 C144.86876141 176.92295228 144.86666377 171.18726705 144.85369301 165.45140076 C144.85134471 163.35898016 144.85399836 161.26654631 144.86231613 159.17414093 C144.93391101 139.74699937 144.49763751 117.22140838 130.4777832 102.14526367 C129.50711914 101.09532227 129.50711914 101.09532227 128.5168457 100.02416992 C111.46593241 83.25025702 84.83038313 90.14526367 63.4777832 90.14526367 Z " fill="#E50914" transform="translate(1285.522216796875,1145.854736328125)"/>
<path d="M0 0 C34.08803286 29.80056289 48.78964972 72.8528065 52.578125 116.94921875 C53.04001379 125.16575988 52.99066456 133.38892493 52.96630859 141.61547852 C52.97038767 143.97576132 52.97573694 146.33604221 52.98223877 148.69631958 C52.99575873 155.02893418 52.99067813 161.36139995 52.98110151 167.6940167 C52.97653294 171.6663228 52.97679309 175.63860814 52.9795723 179.61091423 C52.980032 180.27543463 52.98049169 180.93995502 52.98096532 181.6246124 C52.98192473 182.97559477 52.98289738 184.32657714 52.9838831 185.67755949 C52.99238684 198.27170164 52.98268205 210.86577771 52.966482 223.45990901 C52.95308029 234.21052898 52.9554155 244.9610517 52.96923828 255.71166992 C52.98537821 268.26988392 52.99156659 280.82804039 52.98240149 293.38626331 C52.98144608 294.73128854 52.98050297 296.07631379 52.9795723 297.42133904 C52.97910947 298.08270175 52.97864664 298.74406446 52.97816979 299.42546846 C52.97560521 304.03312185 52.98004647 308.64073659 52.98701096 313.24838448 C52.99576931 319.47606724 52.98949923 325.70356895 52.97232819 331.93123245 C52.96841036 334.19690719 52.96941494 336.46259755 52.97611618 338.72826576 C53.08004604 377.48250101 46.01770928 417.36988824 20.578125 447.94921875 C19.80855469 448.8825 19.03898437 449.81578125 18.24609375 450.77734375 C-1.15184511 473.21502424 -28.62432665 484.03619918 -57.72265625 486.41796875 C-100.67572409 489.31133513 -144.01589568 479.80206481 -176.95776367 451.06542969 C-202.34321282 428.34721868 -216.3098187 397.53482371 -223.171875 364.63671875 C-223.37071289 363.70263184 -223.56955078 362.76854492 -223.77441406 361.80615234 C-227.3072243 343.76336934 -227.71957524 325.39329294 -227.68066406 307.07055664 C-227.68338331 304.87805567 -227.68694942 302.68555562 -227.69128418 300.49305725 C-227.70030005 294.60868254 -227.696909 288.724379 -227.69052601 282.84000325 C-227.68540875 276.63685895 -227.69017324 270.43372014 -227.69329834 264.23057556 C-227.69692175 253.81882653 -227.69218208 243.40710601 -227.68261719 232.99536133 C-227.67173868 221.01656036 -227.67526045 209.03785324 -227.68627 197.05904967 C-227.69539288 186.71267879 -227.69660378 176.36632823 -227.69139266 166.01995462 C-227.68829992 159.86757604 -227.68778831 153.7152293 -227.69446564 147.56285286 C-227.7003117 141.77352579 -227.6961118 135.98428516 -227.68467712 130.19496727 C-227.68206873 128.09054837 -227.68272865 125.98612199 -227.68720245 123.88170624 C-227.72302434 105.29481956 -227.0941705 86.50367668 -223.234375 68.26171875 C-223.01934326 67.22901855 -222.80431152 66.19631836 -222.58276367 65.13232422 C-217.63058463 42.44138745 -208.4184321 21.76564129 -193.421875 3.94921875 C-192.86371094 3.22863281 -192.30554687 2.50804687 -191.73046875 1.765625 C-174.58900127 -19.58602747 -146.53453062 -30.2761905 -120.17578125 -33.640625 C-77.21886729 -38.0117284 -33.26200285 -28.16540564 0 0 Z M-116.48828125 66.5546875 C-131.31655577 84.91778302 -129.72879538 111.92089637 -129.68066406 134.17358398 C-129.68338245 136.31977455 -129.68694809 138.46596419 -129.69128418 140.6121521 C-129.70031028 146.37874656 -129.69690464 152.14526851 -129.69052601 157.91186404 C-129.68541417 163.98649697 -129.69017177 170.06112424 -129.69329834 176.13575745 C-129.6969233 186.3324595 -129.69217796 196.52913246 -129.68261719 206.72583008 C-129.67173844 218.46263858 -129.67526001 230.19937754 -129.68627 241.93618435 C-129.69538847 252.06762355 -129.69660589 262.19904199 -129.69139266 272.33048397 C-129.68829753 278.35763216 -129.68779511 284.38474783 -129.69446564 290.41189384 C-129.70030518 296.08299717 -129.69612327 301.75401213 -129.68467712 307.42510605 C-129.68206534 309.48843681 -129.68273476 311.55177519 -129.68720245 313.61510277 C-129.70735424 323.87977292 -129.48244935 334.04951756 -128.54241943 344.27601624 C-128.42856883 345.53482893 -128.42856883 345.53482893 -128.31241822 346.81907219 C-126.8139545 361.47796285 -122.54758327 375.58275026 -111.484375 385.88671875 C-100.53231351 394.72448266 -88.05840324 396.19353206 -74.421875 394.94921875 C-66.34992497 393.25785657 -59.7666431 388.58729718 -54.95703125 381.91796875 C-44.79951982 364.87557876 -45.12369866 345.77148023 -45.1472168 326.63598633 C-45.14286348 324.28891844 -45.13767827 321.94185198 -45.13172913 319.5947876 C-45.11839297 313.24949373 -45.11775457 306.90425962 -45.12029243 300.55895448 C-45.12150223 294.5724638 -45.115272 288.58598133 -45.10985897 282.59949394 C-45.09900932 270.01415315 -45.10113337 257.42883922 -45.10724381 244.84349694 C-45.11240767 233.36866539 -45.10116696 221.89391888 -45.08214559 210.41910414 C-45.06270004 198.59640792 -45.0545231 186.77375178 -45.05826885 174.95103949 C-45.06017113 168.32974442 -45.05751907 161.70851249 -45.04355431 155.08722878 C-45.03090048 148.85479238 -45.03299106 142.62252499 -45.04596519 136.39009094 C-45.04831435 134.11587146 -45.04565668 131.84163981 -45.03734207 129.56743431 C-44.96342271 107.75920122 -45.47509282 84.8989156 -61.16015625 68.0859375 C-69.92035687 59.61592986 -81.40258316 56.50080078 -93.35546875 56.6796875 C-102.28828256 57.46486476 -110.05983012 60.19700831 -116.48828125 66.5546875 Z " fill="#E50914" transform="translate(1970.421875,1192.05078125)"/>
<path d="M0 0 C3.87855484 3.05869772 7.57606165 6.29543203 11.20654297 9.64306641 C12.08955078 10.45517578 12.97255859 11.26728516 13.88232422 12.10400391 C40.46334437 37.65154738 54.89935062 73.71397286 60.20654297 109.64306641 C60.37429324 110.76760884 60.54204351 111.89215128 60.71487713 113.05077076 C62.39696299 125.61935697 62.49665122 138.04841876 62.48120117 150.71411133 C62.48555758 153.09468748 62.4907438 155.47526224 62.49668884 157.85583496 C62.50999135 164.27553819 62.51066723 170.69518223 62.50812554 177.11489654 C62.50683417 181.1379091 62.50948 185.16091293 62.51311302 189.18392372 C62.51370821 189.85523199 62.5143034 190.52654026 62.51491662 191.21819121 C62.51612859 192.58270404 62.51734272 193.94721688 62.518559 195.31172971 C62.52939596 208.06316804 62.52729058 220.81457983 62.52117416 233.56601963 C62.51601055 245.1801578 62.52725263 256.79421194 62.54627237 268.4083335 C62.56573959 280.3893773 62.57389117 292.37038153 62.57014912 304.3514412 C62.5682502 311.0555299 62.5708674 317.75953666 62.58486366 324.46361351 C62.59754875 330.77490903 62.59539808 337.08603793 62.58245277 343.39733124 C62.58011037 345.69567486 62.58273628 347.99403062 62.5910759 350.29236031 C62.73053723 391.76091445 54.33815985 433.19145456 24.51904297 463.83056641 C3.05694481 485.17654338 -26.19368454 492.90401342 -55.77905273 492.89208984 C-80.47565223 492.52146267 -106.36593168 488.3655703 -128.79345703 477.64306641 C-129.91228271 477.10939453 -129.91228271 477.10939453 -131.05371094 476.56494141 C-141.91209577 471.29707733 -151.62011749 465.50935495 -160.79345703 457.64306641 C-161.56810303 456.98371094 -161.56810303 456.98371094 -162.35839844 456.31103516 C-196.94523769 426.63157124 -212.36480125 382.52884917 -216.32051086 338.22068787 C-217.05953744 328.32414417 -216.9414015 318.41349113 -216.9387207 308.49487305 C-216.94171756 306.2725214 -216.9451213 304.05017028 -216.94889832 301.82781982 C-216.95769089 295.8211029 -216.96007448 289.81440025 -216.9607141 283.80767751 C-216.96142753 280.04399358 -216.96356742 276.28031321 -216.96621132 272.51663017 C-216.97497478 260.03258481 -216.97963297 247.54854748 -216.97888085 235.06449968 C-216.97884089 234.39360785 -216.97880093 233.72271603 -216.97875977 233.03149414 C-216.97871888 232.35976571 -216.978678 231.68803727 -216.97863588 230.99595343 C-216.97823021 220.13169664 -216.98778331 209.26747462 -217.00189813 198.40322787 C-217.01633662 187.19976642 -217.02298196 175.99631762 -217.02230436 164.79284567 C-217.02205098 158.52242976 -217.02481226 152.25205324 -217.03548241 145.98164558 C-217.0452611 140.07425662 -217.0451766 134.16694387 -217.03796577 128.259552 C-217.03693181 126.10956649 -217.0392107 123.95957598 -217.04532623 121.80959892 C-217.09356786 103.65189908 -216.53795949 85.3144395 -212.60595703 67.51806641 C-212.39165039 66.5292749 -212.17734375 65.5404834 -211.95654297 64.52172852 C-204.82795243 33.06568844 -189.09800831 3.82838355 -161.44213867 -14.03027344 C-114.52227511 -42.96768705 -42.69542584 -32.30345451 0 0 Z M-108.04345703 72.70556641 C-118.08397095 85.31198944 -118.94939672 104.11190448 -118.93389893 119.54988098 C-118.93687005 120.49507605 -118.93984117 121.44027111 -118.94290233 122.41410846 C-118.95151373 125.55399492 -118.95309114 128.69384293 -118.95458984 131.83374023 C-118.95922351 134.0966805 -118.9642489 136.35961999 -118.96963501 138.62255859 C-118.98271123 144.75334593 -118.98919503 150.88412234 -118.99364567 157.01492143 C-118.99658512 160.85412824 -119.00069162 164.69333213 -119.00514984 168.53253746 C-119.01725138 179.19322654 -119.02763497 189.85391202 -119.03102493 200.51460743 C-119.0312445 201.19542684 -119.03146407 201.87624624 -119.03169028 202.57769654 C-119.03190856 203.26001378 -119.03212684 203.94233101 -119.03235173 204.64532453 C-119.03279518 206.02762846 -119.03324174 207.4099324 -119.03369141 208.79223633 C-119.03391284 209.47788604 -119.03413427 210.16353574 -119.03436241 210.86996271 C-119.03830198 221.95496327 -119.05573343 233.03989775 -119.07905093 244.12487284 C-119.1028792 255.5463328 -119.11497508 266.9677449 -119.11639285 278.38923281 C-119.11743539 284.78544 -119.12322446 291.18155392 -119.14121246 297.57773781 C-119.15783361 303.60494174 -119.1597813 309.63198373 -119.15107346 315.65920258 C-119.15031044 317.85476049 -119.15454688 320.05032762 -119.16453171 322.24586296 C-119.2611902 344.8503736 -118.93951519 370.7209613 -103.02001953 388.63916016 C-93.46357762 397.7080285 -80.76890736 401.23111686 -67.84814453 400.95166016 C-60.16352478 400.17533668 -53.22686381 397.32289431 -47.64111328 391.93212891 C-33.0554853 373.86198515 -34.64219009 348.82621345 -34.64819336 326.92797852 C-34.64519702 324.74031518 -34.6417934 322.55265236 -34.63801575 320.36499023 C-34.62921876 314.44932167 -34.62683942 308.53366759 -34.62619996 302.61799312 C-34.62548688 298.91313386 -34.62334766 295.20827823 -34.62070274 291.50341988 C-34.61098626 277.88485519 -34.60743607 264.26630183 -34.60827818 250.64773393 C-34.60870924 239.28574764 -34.5973361 227.92380441 -34.58241063 216.56182855 C-34.56928856 206.19958981 -34.56397237 195.83736567 -34.56460971 185.4751187 C-34.56486337 179.30147535 -34.56208535 173.12787197 -34.55143166 166.95423698 C-34.54167208 161.14043864 -34.54172476 155.32671782 -34.54894829 149.51291656 C-34.54998452 147.39392291 -34.54768935 145.27492423 -34.54158783 143.1559391 C-34.25826099 105.8687156 -34.25826099 105.8687156 -51.04345703 73.70556641 C-67.03502297 58.99119708 -92.41883497 56.64137698 -108.04345703 72.70556641 Z " fill="#E50914" transform="translate(2239.79345703125,635.35693359375)"/>
<path d="M0 0 C1.88952614 0.00220259 3.77905252 0.00419732 5.6685791 0.00598145 C10.22046547 0.01071937 14.77233915 0.01822359 19.32421875 0.02734375 C19.39300884 46.8820168 19.44581032 93.73668446 19.47741474 140.59139812 C19.48116649 146.13336055 19.48504949 151.67532288 19.48901367 157.21728516 C19.4898006 158.32050779 19.49058753 159.42373042 19.49139831 160.56038404 C19.50442298 178.38209923 19.5280605 196.20378514 19.55567714 214.02548301 C19.58381337 232.33631802 19.60041231 250.64713778 19.60648423 268.95799351 C19.61058369 280.24061747 19.62349249 291.52315865 19.64796815 302.80575711 C19.66392699 310.56128151 19.66859636 318.31676364 19.66472288 326.07230324 C19.66281698 330.5349703 19.66556616 334.99749356 19.68183517 339.46013451 C19.76090972 362.28191156 19.55109036 385.05138761 13.63671875 407.27734375 C13.38253174 408.25638672 13.12834473 409.23542969 12.86645508 410.24414062 C3.47928569 444.97189091 -16.8408925 476.63990037 -48.28515625 495.15625 C-65.66653475 504.74804758 -84.03159676 510.3108105 -103.67578125 513.02734375 C-104.62582031 513.15882813 -105.57585937 513.2903125 -106.5546875 513.42578125 C-142.90087255 517.34079973 -181.6181382 511.64335589 -210.72021484 488.20727539 C-241.26046622 462.98265542 -254.98994871 425.2004061 -258.76315308 386.62338257 C-260.1796486 371.3515874 -259.94579253 356.0213984 -259.90791249 340.70025182 C-259.89916324 336.24933628 -259.90220614 331.79842539 -259.90371704 327.34750366 C-259.90475874 319.66164365 -259.89855764 311.97581796 -259.88724136 304.28996658 C-259.8708913 293.17792793 -259.8657687 282.06590565 -259.86326538 270.95385627 C-259.85890308 252.9192607 -259.84563401 234.88468335 -259.82666016 216.85009766 C-259.80826324 199.34554128 -259.79412546 181.84098989 -259.78564453 164.33642578 C-259.78511908 163.25493931 -259.78459364 162.17345283 -259.78405227 161.05919404 C-259.78144193 155.6329461 -259.77891458 150.20669811 -259.77642846 144.78045011 C-259.75574164 99.86273178 -259.71889673 54.94504724 -259.67578125 10.02734375 C-211.66078125 7.55234375 -211.66078125 7.55234375 -162.67578125 5.02734375 C-162.66119873 16.04536377 -162.64661621 27.06338379 -162.6315918 38.4152832 C-162.58277767 73.7162143 -162.51935287 109.01710573 -162.44679497 144.31799569 C-162.43552754 149.80631656 -162.42438897 155.29463769 -162.41333008 160.78295898 C-162.41112639 161.87553071 -162.40892271 162.96810243 -162.40665225 164.09378239 C-162.37133259 181.75718934 -162.3464384 199.42059625 -162.32543423 217.08402536 C-162.30362964 235.22423432 -162.27053517 253.36439767 -162.22707969 271.5045678 C-162.20064308 282.68737346 -162.18288894 293.87012234 -162.17643521 305.05295768 C-162.17115679 312.73371862 -162.15485804 320.41440829 -162.13011559 328.09513096 C-162.11618423 332.5186765 -162.10689817 336.94209471 -162.11077309 341.36566353 C-163.27892796 380.32486331 -163.27892796 380.32486331 -146.01953125 413.73828125 C-138.21464724 421.01101408 -128.81535919 422.40821254 -118.48046875 422.30078125 C-107.23538752 421.49261319 -98.65077075 417.35782462 -90.96875 409.21875 C-78.6705528 394.24297062 -77.5292977 373.5787101 -77.51756287 355.09460449 C-77.51299236 353.56977221 -77.50799163 352.04494116 -77.5025993 350.52011156 C-77.48906441 346.3424099 -77.48161336 342.16471635 -77.47517264 337.98699856 C-77.4671482 333.47720329 -77.45345749 328.96742478 -77.44046021 324.4576416 C-77.41872641 316.64823432 -77.40057063 308.83882531 -77.38485527 301.02940369 C-77.3621284 289.73833515 -77.3339895 278.44728518 -77.30453599 267.15623242 C-77.2568946 248.83658503 -77.21362107 230.51693004 -77.1730957 212.19726562 C-77.1337232 194.40298877 -77.09229277 176.60871867 -77.0480957 158.81445312 C-77.04400929 157.16878425 -77.04400929 157.16878425 -77.03984033 155.48986953 C-77.02616057 149.9858963 -77.01244035 144.48192318 -76.99870002 138.9779501 C-76.88478949 93.32776207 -76.77796816 47.67755943 -76.67578125 2.02734375 C-73.51265349 1.86648116 -70.34947144 1.70671035 -67.1862793 1.54711914 C-65.85807789 1.47955288 -65.85807789 1.47955288 -64.50304413 1.41062164 C-56.50035377 1.00777889 -48.49797436 0.69530857 -40.48828125 0.46484375 C-39.81367355 0.44516037 -39.13906586 0.42547699 -38.4440155 0.40519714 C-25.62761301 0.04297231 -12.82086996 -0.02649368 0 0 Z " fill="#E50914" transform="translate(1173.67578125,1147.97265625)"/>
<path d="M0 0 C20.6170955 -0.06582079 41.2259174 0.07812949 61.84082031 0.37231445 C65.78748749 0.42841343 69.73420993 0.47822115 73.68097687 0.52671719 C76.76941494 0.56565061 79.85778537 0.60871213 82.94615173 0.65294075 C84.40370204 0.67315627 85.86127359 0.69190046 87.31886292 0.70907402 C89.33567898 0.73326104 91.35241537 0.76383508 93.36914062 0.79467773 C95.07873962 0.81799416 95.07873962 0.81799416 96.82287598 0.84178162 C99.95262622 0.99764082 102.92302675 1.42024382 106 2 C110.31383996 22.68722073 114.62617772 43.37475443 118.9375 64.0625 C119.18617049 65.2557275 119.18617049 65.2557275 119.43986464 66.47306061 C130.58999177 119.97667207 141.71156176 173.48616252 152.8125 227 C155.57785922 240.33078431 158.3433394 253.66154351 161.109375 266.9921875 C161.2773794 267.80187241 161.44538381 268.61155732 161.61847925 269.44577813 C168.32356361 301.75969411 175.04761704 334.06963699 181.78147888 366.37756729 C182.80790323 371.30247403 183.83405747 376.22743704 184.86020279 381.15240192 C188.98438092 400.94609019 193.10898752 420.739686 197.24398899 440.53111649 C198.81787772 448.06458529 200.38995598 455.5984302 201.9605093 463.13259506 C203.00407869 468.13807778 204.05013955 473.14303004 205.0983448 478.14754391 C205.71817565 481.109827 206.3355735 484.07261289 206.95220947 487.03556252 C207.36560708 489.01824747 207.78199715 491.00030775 208.19848633 492.98234558 C208.43921875 494.14164078 208.67995117 495.30093597 208.92797852 496.49536133 C209.13681168 497.49465164 209.34564484 498.49394196 209.56080627 499.52351379 C210 502 210 502 210 505 C190.71634308 505.19574557 171.45898609 504.62435963 152.18579102 504.07287598 C147.86741281 503.94998191 143.54893671 503.83062863 139.23046875 503.7109375 C130.82021536 503.47733579 122.41007485 503.23994342 114 503 C111.19206591 489.32737601 108.6579989 475.62881068 106.328125 461.8671875 C105.99774212 459.92754705 105.66715112 457.98794204 105.33636475 456.04837036 C104.65229802 452.03368908 103.97014892 448.01868869 103.28955078 444.00341797 C102.41620947 438.85151776 101.5387588 433.7003275 100.66002274 428.54934502 C99.98103145 424.56745246 99.30372065 420.58527559 98.62697601 416.60300064 C98.30363756 414.70105971 97.97987385 412.79919102 97.6556778 410.89739609 C97.20662541 408.26113882 96.75973252 405.62452485 96.31347656 402.98779297 C96.17949966 402.20353943 96.04552277 401.41928589 95.90748596 400.61126709 C95 395.2288816 95 395.2288816 95 393 C94.32388672 393.00523682 93.64777344 393.01047363 92.95117188 393.01586914 C64.2945594 393.20118941 35.64961344 392.56925823 7 392 C6.9537146 392.8214299 6.9537146 392.8214299 6.90649414 393.65945435 C6.1530251 403.95874071 4.20786732 414.08077948 2.4375 424.2421875 C2.08224014 426.29950845 1.72734714 428.35689279 1.37280273 430.41433716 C0.4433016 435.80194806 -0.49151461 441.18862373 -1.42736816 446.57513428 C-2.19123971 450.97704382 -2.95134777 455.37959927 -3.71125793 459.78219414 C-5.28144637 468.87874859 -6.85401877 477.97489472 -8.43359375 487.06982422 C-8.57803925 487.90418503 -8.72248474 488.73854584 -8.87130737 489.59819031 C-9.07314133 490.75842964 -9.07314133 490.75842964 -9.27905273 491.94210815 C-9.45270607 492.94248517 -9.45270607 492.94248517 -9.62986755 493.96307182 C-10.0571048 496.3142615 -10.53134298 498.65671488 -11 501 C-42.02 501 -73.04 501 -105 501 C-104.32263934 494.22639344 -103.49899653 487.88641979 -102.07104492 481.28735352 C-101.87428854 480.35686943 -101.67753216 479.42638535 -101.47481346 478.46770477 C-100.81504628 475.35368364 -100.14769523 472.24133692 -99.48046875 469.12890625 C-98.99835246 466.86008712 -98.51675521 464.59115765 -98.03562927 462.3221283 C-96.84686419 456.72100411 -95.65337731 451.12090038 -94.45819491 445.52114242 C-92.86747349 438.06605133 -91.28489249 430.60923537 -89.70263672 423.15234375 C-89.40125154 421.73209035 -89.09986502 420.31183723 -88.79847717 418.8915844 C-88.3378644 416.72097963 -87.87726223 414.55037262 -87.41669703 412.37975776 C-86.46376795 407.88886152 -85.51026089 403.39808843 -84.5563283 398.90740526 C-79.5230888 375.21275552 -74.51698939 351.51246026 -69.52734375 327.80859375 C-69.34742197 326.95386333 -69.16750019 326.09913291 -68.98212624 325.21850157 C-66.75982705 314.66089159 -64.53850772 304.10307555 -62.31751943 293.54518974 C-60.24044568 283.67159999 -58.16247519 273.798199 -56.08447266 263.92480469 C-55.3186407 260.28600131 -54.55281318 256.64719699 -53.7869873 253.00839233 C-53.59651282 252.10336058 -53.40603834 251.19832884 -53.2097919 250.26587188 C-51.85529667 243.82998911 -50.50092551 237.39408024 -49.14660645 230.9581604 C-43.81215742 205.60829096 -38.47558196 180.25886979 -33.13772583 154.90971756 C-31.88068258 148.9400936 -30.6236858 142.97045986 -29.36669922 137.00082397 C-28.95316708 135.03689763 -28.53963483 133.07297132 -28.12610245 131.10904503 C-27.92244709 130.14185563 -27.71879174 129.17466623 -27.50896502 128.17816806 C-27.30604074 127.21445072 -27.10311646 126.25073339 -26.89404297 125.2578125 C-26.6918803 124.29771121 -26.48971763 123.33760993 -26.28142881 122.34841466 C-24.08912321 111.93684175 -21.89674517 101.52528411 -19.7041626 91.11376953 C-18.02378469 83.13445928 -16.34358815 75.15511086 -14.66360933 67.17571658 C-13.64730142 62.34859634 -12.63079286 57.52151842 -11.61410147 52.69447893 C-10.99183517 49.7397809 -10.36981992 46.78503006 -9.74783385 43.83027303 C-9.30949422 41.74847285 -8.87078147 39.66675154 -8.43204784 37.58503437 C-7.1034558 31.27683281 -5.78404221 24.96691454 -4.48556519 18.6524353 C-4.13687582 16.96080277 -4.13687582 16.96080277 -3.78114223 15.23499584 C-3.35288445 13.15358279 -2.92695703 11.0716883 -2.50383854 8.98922443 C-2.2256687 7.63786286 -2.2256687 7.63786286 -1.94187927 6.25920105 C-1.78281821 5.47894153 -1.62375715 4.698682 -1.45987606 3.89477825 C-1 2 -1 2 0 0 Z M51 143 C47.21677855 164.21764714 43.43551805 185.4356429 39.65660858 206.65405846 C37.90205386 216.50554195 36.14685124 226.3569092 34.39013672 236.20800781 C32.8594554 244.79159323 31.32997608 253.37539179 29.8019557 261.95945132 C28.99241866 266.50699451 28.18226932 271.05442674 27.37068176 275.60160446 C26.6075167 279.8775893 25.8459536 284.15385628 25.08564186 288.43034935 C24.80566269 290.00347314 24.52508804 291.57649107 24.24388695 293.1493969 C23.86132343 295.28977967 23.48086503 297.43052602 23.10095215 299.57138062 C22.88709618 300.77155508 22.6732402 301.97172955 22.45290375 303.20827293 C21.94662098 305.85766061 21.94662098 305.85766061 22 308 C27.96318756 309.30755782 33.89105712 309.12597009 39.9609375 309.09765625 C41.10664215 309.0962413 42.2523468 309.09482635 43.43276978 309.09336853 C47.08020678 309.0877858 50.72758165 309.07523641 54.375 309.0625 C56.85286369 309.05748277 59.33072835 309.05292025 61.80859375 309.04882812 C67.87241761 309.03782201 73.9362024 309.02069663 80 309 C79.388768 300.2505088 78.03178884 291.69300998 76.515625 283.06103516 C76.26056931 281.5897767 76.005901 280.11845104 75.75158691 278.64706421 C75.06547951 274.68400014 74.37396325 270.72189763 73.68138123 266.75996065 C72.95538242 262.60152954 72.23432802 258.44224111 71.51269531 254.28305054 C70.30171676 247.30749884 69.08755431 240.33250785 67.87109375 233.35791016 C66.15622516 223.52565114 64.44714269 213.69239285 62.73920441 203.85892797 C61.41056495 196.21044907 60.08044804 188.56222698 58.75 180.9140625 C58.6076442 180.09567036 58.46528839 179.27727822 58.31861877 178.43408632 C57.50037931 173.73074601 56.68137615 169.02753977 55.86125183 164.32452774 C55.61312349 162.9011552 55.3652034 161.47774634 55.11750793 160.0542984 C54.77913184 158.11003887 54.43988035 156.16593176 54.10058594 154.22183228 C53.91107361 153.13457666 53.72156128 152.04732105 53.52630615 150.9271183 C53.04984648 148.27722749 52.5387958 145.63783773 52 143 C51.67 143 51.34 143 51 143 Z " fill="#E50914" transform="translate(1366,567)"/>
<path d="M0 0 C0.7844247 2.38536752 1.34757224 4.6094555 1.84275818 7.05929565 C2.00520509 7.8087605 2.16765201 8.55822534 2.33502156 9.33040124 C2.88117957 11.86599891 3.40807499 14.40522804 3.93530273 16.94482422 C4.32325648 18.764981 4.71238545 20.58488763 5.1026001 22.40456104 C6.17022022 27.39957581 7.2212234 32.39796431 8.26960635 37.3970468 C9.38689967 42.710417 10.51947858 48.02052723 11.65040588 53.33100891 C13.58540499 62.42717166 15.51092899 71.52529704 17.42993164 80.62484741 C20.18926576 93.70868993 22.96346878 106.78934338 25.74201846 119.86911714 C29.76788871 138.82102655 33.78656798 157.77444723 37.79866338 176.72927725 C42.56300375 199.2371786 47.34632073 221.74091392 52.16015625 244.23828125 C52.38442952 245.28649005 52.38442952 245.28649005 52.61323357 246.35587478 C53.91788649 252.45328266 55.2230214 258.55058726 56.52892685 264.64772701 C58.43872283 273.56438744 60.34602031 282.48157862 62.25146484 291.39916992 C62.51762478 292.64478101 62.78378471 293.89039209 63.0580101 295.17374897 C63.59380648 297.68126359 64.12959979 300.18877886 64.66539001 302.69629478 C68.71334965 321.63953945 72.76616205 340.58174095 76.82301903 359.52308178 C79.45243005 371.7997355 82.08063819 384.07664636 84.70809364 396.35371876 C86.42709352 404.38556033 88.14736591 412.4171272 89.86937863 420.44832337 C91.1677877 426.50444699 92.46409507 432.56101875 93.75965691 438.61775208 C94.28872817 441.08946397 94.81849547 443.56102701 95.34903145 446.03242493 C98.05968457 458.6611602 100.72438854 471.28459458 103 484 C93.98365272 485.51181601 84.96591146 487.01492208 75.94685364 488.51048279 C69.39215461 489.59879271 62.83979343 490.70054386 56.28800964 491.80625916 C51.29125334 492.64760382 46.29322588 493.48122832 41.29495239 494.31350708 C38.80750494 494.72935956 36.32058244 495.14836442 33.834198 495.57052612 C30.30875936 496.16856299 26.78162075 496.75540344 23.25390625 497.33984375 C22.19076202 497.52285034 21.1276178 497.70585693 20.03225708 497.89440918 C19.04651703 498.05550171 18.06077698 498.21659424 17.04516602 498.38256836 C16.18778336 498.52657578 15.3304007 498.67058319 14.44703674 498.81895447 C11.77260602 499.01682388 9.59394427 498.6394863 7 498 C4.65110422 484.6053568 2.30402026 471.21039753 -0.04072571 457.81502724 C-1.12944249 451.59560255 -2.21879242 445.37629012 -3.30957031 439.15722656 C-4.36143185 433.1599094 -5.41165507 427.16230748 -6.46072388 421.16450119 C-6.86204204 418.87177604 -7.26395898 416.57915561 -7.66647339 414.28664017 C-8.22843454 411.08540833 -8.78830058 407.88381687 -9.34765625 404.68212891 C-9.51596954 403.72619339 -9.68428284 402.77025787 -9.85769653 401.78535461 C-10.00915131 400.91594742 -10.16060608 400.04654022 -10.31665039 399.15078735 C-10.44938858 398.39307352 -10.58212677 397.63535969 -10.71888733 396.85468483 C-11 395 -11 395 -11 393 C-11.54059555 393.09942902 -12.0811911 393.19885803 -12.63816833 393.30130005 C-15.27830085 393.78685474 -17.91844545 394.27234366 -20.55859375 394.7578125 C-21.55796463 394.94157944 -22.55733551 395.12534637 -23.58699036 395.31468201 C-29.11280787 396.33058359 -34.6387855 397.34560382 -40.16503906 398.35913086 C-41.8362532 398.66564323 -41.8362532 398.66564323 -43.54122925 398.97834778 C-45.79718572 399.39209985 -48.05314684 399.80582655 -50.30911255 400.2195282 C-56.21004505 401.30227231 -62.110117 402.38941807 -68.00868225 403.48498535 C-71.05850191 404.05102535 -74.10891019 404.61384355 -77.15945435 405.17596436 C-78.54457514 405.43206905 -79.92940732 405.68974007 -81.31393433 405.94903564 C-83.21374973 406.30467928 -85.11466163 406.65445064 -87.015625 407.00390625 C-88.58231934 407.29503296 -88.58231934 407.29503296 -90.18066406 407.59204102 C-92.8402471 407.97688369 -95.3190407 408.0294164 -98 408 C-98.0462854 408.91217285 -98.0462854 408.91217285 -98.09350586 409.84277344 C-98.81858747 420.75462583 -100.76334655 431.47466605 -102.5625 442.25 C-102.91776912 444.39796943 -103.27266195 446.54600113 -103.62719727 448.6940918 C-104.36736836 453.17268891 -105.11064586 457.65075473 -105.85644531 462.12841797 C-106.81249879 467.86872497 -107.7628924 473.60995036 -108.71125793 479.35153198 C-109.44242383 483.77663064 -110.17544605 488.20142001 -110.90914917 492.62609863 C-111.26032167 494.74396517 -111.61117406 496.86188482 -111.96170044 498.9798584 C-112.45060771 501.93087244 -112.9417461 504.88150605 -113.43359375 507.83203125 C-113.57803925 508.70581924 -113.72248474 509.57960724 -113.87130737 510.47987366 C-114.00586334 511.28420334 -114.14041931 512.08853302 -114.27905273 512.91723633 C-114.39482162 513.61327469 -114.51059052 514.30931305 -114.62986755 515.02644348 C-115.00795516 517.04241716 -115.48260108 519.01562807 -116 521 C-134.31841331 524.67615232 -152.64410775 528.31483388 -170.97436523 531.93139648 C-173.99117245 532.52671532 -177.00775625 533.12314935 -180.02416992 533.72045898 C-183.72901734 534.45408281 -187.4342212 535.18587898 -191.13969612 535.91632652 C-192.53650649 536.19199179 -193.93318965 536.46830245 -195.32974052 536.74527931 C-197.25650611 537.12727904 -199.18378243 537.50669999 -201.11108398 537.88598633 C-202.20372055 538.10184891 -203.29635712 538.31771149 -204.42210388 538.54011536 C-207 539 -207 539 -209 539 C-208.46185943 531.66110638 -207.48340637 524.55786805 -206.01570129 517.35025024 C-205.81394104 516.33561687 -205.61218079 515.32098349 -205.40430659 514.27560365 C-204.73179109 510.90087949 -204.05108717 507.52786196 -203.37036133 504.15478516 C-202.88325548 501.71931138 -202.3966563 499.28373622 -201.91052246 496.84806824 C-200.86090649 491.5952345 -199.80774233 486.34313145 -198.75132179 481.09166336 C-197.20008035 473.3804395 -195.65526892 465.66793781 -194.11182269 457.95515041 C-191.57547491 445.2816782 -189.03384979 432.60927025 -186.48901367 419.9375 C-184.07261455 407.90521989 -181.65883158 395.87242024 -179.2487793 383.83886719 C-179.10295852 383.11078463 -178.95713774 382.38270206 -178.80689815 381.63255639 C-178.21907928 378.69753922 -177.63127582 375.76251895 -177.04349248 372.82749466 C-163.82833851 306.83998612 -150.54816114 240.86571293 -137.22056484 174.90081978 C-133.43576566 156.16728026 -129.66186303 137.43156357 -125.89455223 118.69449997 C-125.00324344 114.26149825 -124.11156857 109.82857022 -123.21980286 105.3956604 C-122.65238775 102.5749729 -122.08498021 99.75428387 -121.51757812 96.93359375 C-121.31139565 95.90861192 -121.31139565 95.90861192 -121.10104787 94.86292338 C-119.53390965 87.07206196 -117.96757096 79.28104073 -116.40258789 71.48974609 C-115.0908776 64.95941858 -113.77784125 58.42935928 -112.46323091 51.89961493 C-111.78567528 48.53388797 -111.1087697 45.16803359 -110.43358421 41.80183029 C-109.70509422 38.17140967 -108.97429853 34.5414607 -108.24291992 30.91162109 C-108.02860825 29.84065186 -107.81429657 28.76968262 -107.5934906 27.66625977 C-107.29834564 26.20511246 -107.29834564 26.20511246 -106.99723816 24.71444702 C-106.74282094 23.44870881 -106.74282094 23.44870881 -106.48326397 22.15740013 C-106 20 -106 20 -105 17 C-94.35885834 15.09479455 -83.71750717 13.1907639 -73.07589912 11.28816509 C-68.13269313 10.40433934 -63.18955571 9.52013398 -58.24658203 8.63500977 C-53.46158183 7.77818871 -48.67639237 6.92243177 -43.89107895 6.06736183 C-42.08051886 5.74365664 -40.27002319 5.41959083 -38.45959854 5.09512901 C-33.45614296 4.19855028 -28.4514944 3.30932274 -23.44480133 2.43099594 C-21.77245184 2.13617614 -20.10061212 1.83845386 -18.42922211 1.53824234 C-15.93038497 1.08991993 -13.43005144 0.65103353 -10.92919922 0.21411133 C-10.17327547 0.07637897 -9.41735172 -0.0613534 -8.63852119 -0.20325947 C-5.3006937 -0.77717221 -3.26584487 -1.08861496 0 0 Z M-54 152 C-56.09978912 159.68423949 -57.37191663 167.50411467 -58.70556641 175.34863281 C-58.97161453 176.89999667 -59.23792301 178.45131591 -59.50447083 180.00259399 C-60.22415179 184.1959808 -60.93996073 188.3900198 -61.65487337 192.58422184 C-62.25262358 196.08878423 -62.85233814 199.59300926 -63.45206678 203.09723353 C-64.86628628 211.36058077 -66.27743091 219.62444893 -67.68652344 227.88867188 C-69.14026964 236.41452847 -70.59865356 244.9395823 -72.05939925 253.46424222 C-73.31451727 260.7896803 -74.56705446 268.11555628 -75.81745088 275.44180179 C-76.56384735 279.81499105 -77.31116063 284.18801836 -78.06084061 288.56064606 C-78.76480091 292.66742063 -79.46552663 296.77473416 -80.16374779 300.88248825 C-80.4205996 302.3903664 -80.67858509 303.89805194 -80.93778038 305.40552902 C-81.29106999 307.46135154 -81.64026976 309.51782812 -81.98843384 311.57452393 C-82.18494349 312.72559254 -82.38145313 313.87666115 -82.58391762 315.06261063 C-83.09350023 318.16562536 -83.09350023 318.16562536 -83 322 C-78.11449664 321.22280508 -73.22970984 320.44127786 -68.34545898 319.65625 C-66.69459385 319.3914751 -65.04355966 319.12775144 -63.39233398 318.86523438 C-50.54486724 316.82158717 -37.76786787 314.49230572 -25 312 C-26.47340298 303.33234792 -27.95348807 294.6658414 -29.4375 286 C-29.55359745 285.32203369 -29.6696949 284.64406738 -29.78931046 283.94555664 C-34.81488124 254.61145204 -39.99051846 225.30415828 -45.1875 196 C-45.47830004 194.36025208 -45.47830004 194.36025208 -45.77497482 192.68737793 C-48.18055012 179.12442697 -50.58893481 165.56197607 -53 152 C-53.33 152 -53.66 152 -54 152 Z " fill="#E50914" transform="translate(209,659)"/>
<path d="M0 0 C30.98626666 27.64537662 43.85946233 69.27086373 46.21826172 109.74511719 C46.5963915 117.82726524 46.8307315 125.91105883 47 134 C37.20280596 133.3225754 27.50602479 132.0761085 17.78125 130.75 C16.14891232 130.52942077 14.51654688 130.30904691 12.88415527 130.08886719 C9.48858547 129.63018974 6.09330929 129.16941453 2.69824219 128.70703125 C-1.65001787 128.11495215 -5.99890797 127.52765614 -10.34801483 126.9418335 C-13.70767114 126.4888555 -17.06702392 126.03365922 -20.42628479 125.57775879 C-22.03055964 125.36025196 -23.63491905 125.14336787 -25.23936462 124.92712402 C-27.47433705 124.62550413 -29.70889278 124.32096657 -31.94335938 124.015625 C-33.21288452 123.84321289 -34.48240967 123.67080078 -35.79040527 123.49316406 C-38.25811316 123.11399319 -40.60027573 122.67194534 -43 122 C-43.04487549 121.34628418 -43.08975098 120.69256836 -43.13598633 120.01904297 C-44.54477244 89.70652026 -44.54477244 89.70652026 -59 64 C-68.69458764 56.80931248 -78.04587243 54.94163229 -90 56 C-97.20293944 57.67116657 -102.01505729 61.87730157 -106 68 C-115.209184 85.43989219 -113.9516946 111.57319223 -109.1875 130.171875 C-101.53867261 152.7359158 -82.53235991 165.95715206 -63.45507812 178.39599609 C-17.67522334 208.30586542 31.95730213 241.8238447 44.54882812 298.83837891 C47.43524286 312.66755426 49.15300523 326.11261063 49.203125 340.265625 C49.20882507 341.53484802 49.21452515 342.80407104 49.22039795 344.11175537 C49.22981487 346.7945919 49.23672755 349.47731759 49.24023438 352.16015625 C49.24458904 354.86537384 49.25837404 357.57026711 49.28125 360.27539062 C49.49664513 387.77865662 47.82638985 414.16942478 35 439 C34.53851562 439.94230469 34.07703125 440.88460938 33.6015625 441.85546875 C23.44282261 461.75200626 5.89156839 476.31636876 -15.18359375 483.48046875 C-16.61945516 483.93389867 -18.05826109 484.37812046 -19.5 484.8125 C-20.45821655 485.10471436 -20.45821655 485.10471436 -21.43579102 485.40283203 C-32.87800085 488.62099785 -44.60743452 489.36623409 -56.4375 489.3125 C-57.73937256 489.30758545 -59.04124512 489.3026709 -60.38256836 489.29760742 C-101.71813682 488.80373843 -142.74649086 477.17538338 -172.58154297 447.47998047 C-199.4333928 419.46347209 -208.03938103 378.62130911 -211.1875 341.25 C-211.27161133 340.25685791 -211.35572266 339.26371582 -211.44238281 338.24047852 C-211.87617019 332.52002485 -212.03750209 326.84600953 -212.02075195 321.10839844 C-212.01925392 320.42123749 -212.01775589 319.73407654 -212.01621246 319.02609253 C-212.01234231 317.35072411 -212.00638896 315.67536071 -212 314 C-201.28154718 315.15414042 -190.56329827 316.31015468 -179.84530449 317.46855068 C-174.86832239 318.00640136 -169.89127278 318.54361035 -164.9140625 319.0793457 C-160.10933341 319.59653959 -155.3047901 320.11542839 -150.50037003 320.6354847 C-148.66886005 320.83343741 -146.83728434 321.03078296 -145.00564194 321.22750664 C-142.43701477 321.50349029 -139.86863138 321.78164651 -137.30029297 322.06030273 C-136.54575333 322.14086411 -135.79121368 322.22142548 -135.0138092 322.3044281 C-126.38945953 323.24546067 -126.38945953 323.24546067 -123 324 C-121.77726064 326.44547871 -121.76384975 328.263721 -121.60546875 330.99609375 C-119.72928972 364.61518221 -119.72928972 364.61518221 -102 392 C-99.11791694 394.01793295 -96.22042691 395.59337675 -93 397 C-92.071875 397.4125 -91.14375 397.825 -90.1875 398.25 C-80.45789106 400.53931975 -70.70082761 401.01175798 -61.6875 396.25 C-54.290036 390.05677433 -50.51751861 382.52050836 -49 373 C-48.83484094 370.0238121 -48.81224701 367.05062416 -48.796875 364.0703125 C-48.79117493 363.2029245 -48.78547485 362.3355365 -48.77960205 361.44186401 C-48.77017125 359.60448415 -48.76362571 357.76708751 -48.75976562 355.9296875 C-48.75015304 353.16895326 -48.71915096 350.40899429 -48.6875 347.6484375 C-48.5725683 328.62456158 -50.78280645 311.83976982 -64.43676758 297.42016602 C-75.97914139 285.77559706 -89.99036011 277.21877911 -103.60546875 268.24462891 C-149.86454415 237.69888421 -192.98606898 203.82481208 -205.48876953 146.76953125 C-207.94107421 134.64292429 -209.14604564 122.60436416 -209.203125 110.234375 C-209.20882507 109.23907776 -209.21452515 108.24378052 -209.22039795 107.21832275 C-209.22978064 105.12081948 -209.23635487 103.02330192 -209.24023438 100.92578125 C-209.24984871 97.79919885 -209.28089999 94.6733013 -209.3125 91.546875 C-209.48023516 59.8968894 -204.8645336 26.15335439 -184 1 C-183.26265625 0.08863281 -182.5253125 -0.82273437 -181.765625 -1.76171875 C-168.18905619 -17.66760084 -150.24747238 -26.66747634 -130 -31 C-128.98679687 -31.22558594 -127.97359375 -31.45117188 -126.9296875 -31.68359375 C-84.89309024 -39.32182258 -32.5570835 -28.55136904 0 0 Z " fill="#E50914" transform="translate(2278,1222)"/>
<path d="M0 0 C3.04550441 2.67899403 5.91673201 5.5000086 8.765625 8.38671875 C9.43335938 9.05574219 10.10109375 9.72476562 10.7890625 10.4140625 C35.40190069 36.75314047 40.79740822 77.73439282 40.77050781 112.14135742 C40.76980286 113.31115646 40.7690979 114.48095551 40.76837158 115.686203 C40.76746521 116.5773732 40.76655884 117.4685434 40.765625 118.38671875 C29.32654094 119.69187238 17.8873208 120.99582616 6.44792366 122.29823303 C1.13660119 122.90298025 -4.17467288 123.50814627 -9.48583984 124.11425781 C-14.6079835 124.69878256 -19.73024966 125.28222237 -24.85260391 125.86489868 C-26.81033896 126.08778966 -28.76802895 126.31107665 -30.72567368 126.53475952 C-33.46006527 126.84712703 -36.19461125 127.15810707 -38.92919922 127.46875 C-40.15271088 127.60901108 -40.15271088 127.60901108 -41.40093994 127.75210571 C-47.00627068 128.38671875 -47.00627068 128.38671875 -49.234375 128.38671875 C-49.29383301 127.42185547 -49.29383301 127.42185547 -49.35449219 126.4375 C-50.7384224 102.52277442 -50.7384224 102.52277442 -59.234375 80.38671875 C-59.56695312 79.68160156 -59.89953125 78.97648437 -60.2421875 78.25 C-61.54508929 75.80321199 -62.69425478 75.44510217 -65.234375 74.38671875 C-66.20375 73.87109375 -67.173125 73.35546875 -68.171875 72.82421875 C-76.35733506 68.98206403 -86.10190138 69.98452542 -94.484375 72.94921875 C-105.51667522 78.0094148 -110.84148448 86.52338834 -115.234375 97.38671875 C-116.23656884 100.38863892 -116.85063082 103.24904575 -117.234375 106.38671875 C-117.34265625 107.1653125 -117.4509375 107.94390625 -117.5625 108.74609375 C-119.85649244 128.66760707 -120.31390444 154.48703104 -108.01953125 171.3125 C-93.22790976 188.4992637 -67.49933999 195.52277078 -47.08206177 203.65267944 C-3.98383888 220.82119021 -3.98383888 220.82119021 11.765625 236.38671875 C12.49394531 237.04285156 13.22226562 237.69898438 13.97265625 238.375 C36.1220738 258.77692898 42.13510813 291.81460661 43.453125 320.44921875 C45.41881 372.01553729 40.71541579 423.45966006 4.0625 463.01953125 C-26.46736302 494.48398191 -71.53765941 504.73226735 -114.046875 505.63671875 C-141.32447526 505.06169687 -167.30054791 497.86388682 -186.83837891 477.90771484 C-212.79260354 449.62950227 -218.30899168 404.51372529 -218.24365234 367.62451172 C-218.24231293 366.64143036 -218.24097351 365.658349 -218.23959351 364.64547729 C-218.2378714 363.90008698 -218.23614929 363.15469666 -218.234375 362.38671875 C-200.61226785 359.6019081 -182.96560352 357.05251987 -165.28515625 354.66699219 C-161.95427592 354.21707477 -158.62389347 353.76377066 -155.29371834 353.30868149 C-152.06855047 352.8686235 -148.84284564 352.43254124 -145.6171875 351.99609375 C-144.42884308 351.83365173 -143.24049866 351.67120972 -142.0161438 351.50384521 C-140.37064041 351.28296234 -140.37064041 351.28296234 -138.69189453 351.05761719 C-137.73106964 350.92756287 -136.77024475 350.79750854 -135.78030396 350.66351318 C-133.234375 350.38671875 -133.234375 350.38671875 -129.234375 350.38671875 C-128.31111642 353.15649449 -128.02351112 355.19546701 -127.83984375 358.078125 C-126.41713673 386.2267675 -126.41713673 386.2267675 -112.859375 409.94921875 C-104.9226973 415.78551754 -96.9267357 416.29602338 -87.234375 415.38671875 C-77.5565326 413.55989007 -69.48175905 410.02500439 -63.45703125 402.02734375 C-57.21104778 392.19259228 -55.10779213 382.26686037 -54.99609375 370.75390625 C-54.98634521 369.92787903 -54.97659668 369.10185181 -54.96655273 368.25079346 C-53.60949451 335.03543054 -53.60949451 335.03543054 -67.109375 305.82421875 C-79.17136703 295.07908181 -94.90570711 289.39278556 -109.609375 283.32421875 C-113.68196265 281.63042182 -117.7519245 279.93042065 -121.8203125 278.2265625 C-122.80104736 277.81592056 -123.78178223 277.40527863 -124.79223633 276.98219299 C-148.55360766 266.97623004 -148.55360766 266.97623004 -158.484375 260.57421875 C-159.13365967 260.16099365 -159.78294434 259.74776855 -160.4519043 259.32202148 C-167.21294415 254.91300698 -173.30670315 249.84977882 -179.234375 244.38671875 C-180.19085938 243.51273438 -181.14734375 242.63875 -182.1328125 241.73828125 C-200.12900238 224.5486433 -211.22378078 202.1272455 -214.234375 177.38671875 C-214.32122559 176.69618408 -214.40807617 176.00564941 -214.49755859 175.29418945 C-215.56707817 165.50434103 -215.47813933 155.66019091 -215.484375 145.82421875 C-215.48504974 144.86885223 -215.48572449 143.91348572 -215.48641968 142.9291687 C-215.43441992 96.4972685 -205.53092907 53.76778078 -171.80810547 19.89892578 C-152.34165907 1.19350087 -126.33134567 -9.34178512 -100.234375 -14.61328125 C-99.4407959 -14.77699219 -98.6472168 -14.94070313 -97.82958984 -15.109375 C-66.67654509 -21.25491144 -25.54446012 -21.39773246 0 0 Z " fill="#E50914" transform="translate(547.234375,1207.61328125)"/>
<path d="M0 0 C30.03 0 60.06 0 91 0 C100.26084133 23.63366706 109.51053181 47.27115191 118.6875 70.9375 C119.07988861 71.94916229 119.47227722 72.96082458 119.8765564 74.00314331 C124.10286188 84.90209287 128.31473588 95.80637797 132.49609375 106.72265625 C132.84957382 107.6448143 133.20305389 108.56697235 133.56724548 109.51707458 C135.23034497 113.85628213 136.89070018 118.19649753 138.5456543 122.53881836 C139.12669619 124.05716495 139.70782669 125.57547764 140.2890625 127.09375 C140.55162338 127.78594131 140.81418427 128.47813263 141.08470154 129.19129944 C142.13810848 132.33575869 142.13810848 132.33575869 144 135 C159.53977737 99.28067374 159.53977737 99.28067374 174.9375 63.5 C179.80264467 52.12837939 184.66955715 40.75755797 189.56497192 29.39892578 C190.25961505 27.78593784 190.95323594 26.17250918 191.64572144 24.55859375 C192.6073787 22.31779755 193.57278844 20.07865228 194.5390625 17.83984375 C194.81554123 17.19341415 195.09201996 16.54698456 195.37687683 15.88096619 C197.72409206 10.46061123 200.34460946 5.31078108 203 0 C233.36 0 263.72 0 295 0 C283.53658168 27.51220398 283.53658168 27.51220398 279.73046875 36.21484375 C279.07205742 37.72752586 279.07205742 37.72752586 278.40034485 39.27076721 C277.47385016 41.39925654 276.54661803 43.52742502 275.61865234 45.65527344 C273.0991615 51.43351209 270.58640796 57.21467756 268.07421875 62.99609375 C267.56321625 64.17203094 267.05221375 65.34796814 266.52572632 66.55953979 C261.47641804 78.18897026 256.48376546 89.84236691 251.5 101.5 C244.23866624 118.48073292 236.92279984 135.43692876 229.5625 152.375 C222.18718203 169.34882766 214.8223279 186.32703424 207.48922729 203.31915283 C206.55621063 205.48103093 205.62289374 207.6427795 204.6892395 209.80438232 C204.24917572 210.82332581 203.80911194 211.84226929 203.35571289 212.89208984 C202.92563431 213.88708496 202.49555573 214.88208008 202.05244446 215.90722656 C201.21743584 217.84723189 200.38746234 219.78941333 199.56291199 221.73388672 C197.62757325 226.2918171 195.63742917 230.79586903 193.46972656 235.24853516 C188.58377536 244.81460222 188.58377536 244.81460222 188.8515625 255.1953125 C189.71137073 257.20085254 190.64190696 259.17692682 191.625 261.125 C192.42069084 262.94321895 193.21578125 264.76172295 194.0010376 266.58447266 C194.60207236 267.97001026 195.21195437 269.35173555 195.82952881 270.72998047 C200.34246058 280.82910984 204.14957419 291.21500368 208.08621216 301.54827881 C210.23185152 307.16620709 212.40140521 312.77481759 214.57216835 318.38307571 C215.30127635 320.26690421 216.02988688 322.15092438 216.75834656 324.03500366 C223.33125963 341.03422759 229.92070651 358.0270397 236.51461792 375.01812744 C240.84547559 386.17782226 245.17267495 397.338935 249.5 408.5 C251.08069459 412.57683633 252.66142585 416.65365843 254.2421875 420.73046875 C254.63363449 421.74002121 255.02508148 422.74957367 255.4283905 423.78971863 C258.22500828 431.00200708 261.02252577 438.2139462 263.8203125 445.42578125 C267.76081782 455.5834242 271.6993572 465.74182771 275.63623047 475.90087891 C277.2518828 480.07004101 278.86817342 484.23895496 280.48486328 488.40771484 C282.50533191 493.61806063 284.52402607 498.82909073 286.54144287 504.0406189 C287.30131428 506.00278032 288.06176524 507.96471741 288.82281494 509.92642212 C289.86651454 512.61701189 290.90813778 515.30839613 291.94921875 518 C292.26069351 518.80157028 292.57216827 519.60314056 292.89308167 520.42900085 C295 525.88586133 295 525.88586133 295 527 C284.60971471 526.28623349 274.31702337 524.95871032 263.99609375 523.6015625 C263.10617296 523.48486584 262.21625217 523.36816917 261.29936409 523.24793625 C256.60754467 522.63208616 251.91625745 522.0123431 247.2253418 521.38964844 C242.38462457 520.74797935 237.54210708 520.12109131 232.69906521 519.4972477 C228.96366299 519.01324265 225.22981147 518.51801122 221.49629402 518.01969528 C219.71025765 517.78336942 217.92364352 517.55136812 216.1364727 517.32378006 C213.64839085 517.0059398 211.16293792 516.67221072 208.67749023 516.33447266 C207.94036804 516.24397141 207.20324585 516.15347015 206.44378662 516.06022644 C203.64549595 515.66643736 201.45469427 515.32498394 199.12863159 513.66247559 C197.8881603 511.83526 197.05361288 510.13026081 196.2644043 508.06591797 C195.95436966 507.26683517 195.64433502 506.46775238 195.3249054 505.64445496 C194.9946788 504.7692067 194.66445221 503.89395844 194.32421875 502.9921875 C193.96680099 502.06445023 193.60938324 501.13671295 193.24113464 500.18086243 C192.04913687 497.08171281 190.8684465 493.97837579 189.6875 490.875 C188.84536475 488.67978697 188.0024121 486.48488736 187.15869141 484.2902832 C185.36325166 479.61732167 183.57202425 474.94277563 181.78369141 470.26708984 C179.01928132 463.04382848 176.23686674 455.82760179 173.44921875 448.61328125 C172.75905418 446.82711647 172.75905418 446.82711647 172.0549469 445.00486755 C171.12545334 442.59951005 170.1959134 440.19417047 169.2663269 437.78884888 C166.96175921 431.82364238 164.66068213 425.85708996 162.359375 419.890625 C157.28565133 406.73788208 152.20640277 393.58727784 147.125 380.4375 C146.75566345 379.48169037 146.3863269 378.52588074 146.00579834 377.54110718 C144.0040075 372.36068326 142.00208026 367.18031207 140 362 C137.93834123 365.09248816 136.54910626 368.09902172 135.05078125 371.5 C134.61761093 372.48092873 134.61761093 372.48092873 134.1756897 373.48167419 C133.21814773 375.65307981 132.26513033 377.8264355 131.3125 380 C130.63292241 381.54566684 129.95331577 383.09132091 129.27368164 384.63696289 C124.16248831 396.27793989 119.13354272 407.95336571 114.14013672 419.64526367 C107.79710854 434.49629761 101.3976895 449.32286379 94.99703979 464.1491394 C94.06840991 466.30019152 93.14011295 468.45138739 92.21217346 470.60273743 C91.32979587 472.64524041 90.44496419 474.68668524 89.55747986 476.72697449 C87.70632759 480.99028925 85.8792729 485.25240994 84.19189453 489.58349609 C83.79479027 490.58179695 83.79479027 490.58179695 83.3896637 491.6002655 C82.72257827 493.29100873 82.07706992 494.99022432 81.43383789 496.69018555 C80 499 80 499 77.92779541 499.68890381 C74.12067634 500.09343352 70.50459192 499.71990785 66.72143555 499.28735352 C65.49139046 499.15589935 65.49139046 499.15589935 64.23649597 499.02178955 C61.53573596 498.73135554 58.83628765 498.43019402 56.13671875 498.12890625 C54.26063606 497.92503213 52.38448025 497.72182986 50.508255 497.51927185 C45.57724174 496.98509363 40.64727384 496.44180255 35.71746826 495.89660645 C30.68398996 495.34157834 25.64957628 494.79517617 20.61523438 494.24804688 C10.74255511 493.17380388 0.87095874 492.08993119 -9 491 C-5.92861161 482.8638383 -2.71033323 474.82386408 0.78125 466.859375 C1.22726562 465.83535583 1.67328125 464.81133667 2.1328125 463.75628662 C3.08878338 461.56188019 4.04592448 459.36798322 5.00415039 457.17456055 C7.59231276 451.24928658 10.17099631 445.31988977 12.75 439.390625 C13.53969177 437.57570557 13.53969177 437.57570557 14.34533691 435.72412109 C19.44188939 424.0019326 24.47652396 412.25364587 29.5 400.5 C37.25373663 382.36457751 45.08107371 364.26217569 52.94592285 346.17468262 C60.99027738 327.67150935 68.96636332 309.13994474 76.88134766 290.58105469 C80.45385163 282.21220545 84.03121409 273.85011738 87.7890625 265.5625 C88.59102051 263.78601074 88.59102051 263.78601074 89.40917969 261.97363281 C90.34278694 259.92044324 91.28757981 257.87227684 92.24707031 255.83105469 C92.63733398 254.97415039 93.02759766 254.11724609 93.4296875 253.234375 C93.76210449 252.52506836 94.09452148 251.81576172 94.43701172 251.08496094 C95.90372044 245.65317754 92.47161499 239.69184592 90.52734375 234.671875 C90.17302277 233.74792938 89.81870178 232.82398376 89.4536438 231.87203979 C88.28562621 228.82979304 87.11169434 225.78986755 85.9375 222.75 C85.11557449 220.61385784 84.29388148 218.47762621 83.47241211 216.34130859 C77.40287516 200.5722808 71.27181023 184.82737088 65.11584473 169.09191895 C60.28273674 156.73709835 55.48110587 144.37019535 50.6875 132 C50.28940125 130.9727179 49.89130249 129.94543579 49.48114014 128.88702393 C47.86259239 124.71024502 46.24413061 120.53343284 44.62588501 116.35653687 C41.8673726 109.2368369 39.10631814 102.11812717 36.34375 95 C31.55809321 82.66837291 26.7769898 70.3349871 22 58 C21.64537437 57.08435272 21.64537437 57.08435272 21.28358459 56.15020752 C18.21189493 48.21889122 15.14189357 40.28692505 12.07545567 32.35357666 C10.82270554 29.11252123 9.56943792 25.8716685 8.31478882 22.63134766 C6.92281272 19.03621133 5.53353357 15.44003639 4.14453125 11.84375 C3.72366241 10.75775513 3.30279358 9.67176025 2.86917114 8.55285645 C2.48929047 7.56797241 2.10940979 6.58308838 1.71801758 5.56835938 C1.38449783 4.70577515 1.05097809 3.84319092 0.70735168 2.95446777 C0 1 0 1 0 0 Z " fill="#E50813" transform="translate(2020,0)"/>
<path d="M0 0 C75.9 0 151.8 0 230 0 C230 27.39 230 54.78 230 83 C181.49 83 132.98 83 83 83 C83 119.3 83 155.6 83 193 C92.9 192.505 92.9 192.505 103 192 C106.58024451 191.92699938 110.13810493 191.87015867 113.71582031 191.88647461 C115.06619385 191.88625557 115.06619385 191.88625557 116.44384766 191.8860321 C119.32196764 191.88671037 122.20001682 191.89440073 125.078125 191.90234375 C127.1122026 191.90421541 129.14628067 191.90563576 131.18035889 191.90663147 C136.46058459 191.91039788 141.74078153 191.92017582 147.02099609 191.93133545 C153.39573574 191.94350558 159.77048515 191.94797986 166.14523315 191.95378876 C175.7635086 191.96339246 185.38172129 191.9825896 195 192 C195 219.06 195 246.12 195 274 C178.1390625 274.2475 178.1390625 274.2475 160.9375 274.5 C157.48144287 274.55220703 154.02538574 274.60441406 150.46459961 274.65820312 C146.00695801 274.72167969 146.00695801 274.72167969 143.87428284 274.75134277 C142.48514843 274.77115506 141.09602801 274.79197535 139.70692444 274.81384277 C120.80421832 275.10922973 101.90725484 275 83 275 C83 315.26 83 355.52 83 397 C94.22 396.01 105.44 395.02 117 394 C124.31450663 393.45026993 131.62675559 392.91497721 138.9453125 392.4296875 C140.83463992 392.30206644 142.72395224 392.17422169 144.61325073 392.0461731 C148.49918133 391.78357543 152.38526189 391.52337765 156.27148438 391.26513672 C161.17471833 390.93914916 166.07752269 390.60712761 170.98024368 390.27352524 C190.64535332 388.93759273 210.29678343 387.62537537 230 387 C230.02312328 397.67419698 230.04091501 408.34838806 230.05181217 419.02260494 C230.05704103 423.97853922 230.06413874 428.93445642 230.07543945 433.89038086 C230.08626822 438.66898836 230.09227681 443.44757938 230.09487724 448.2261982 C230.09673151 450.05353619 230.10035216 451.88087324 230.10573006 453.70820427 C230.11294036 456.25853329 230.11399095 458.80879337 230.11352539 461.35913086 C230.11712067 462.12229614 230.12071594 462.88546143 230.12442017 463.67175293 C230.11405216 468.88594784 230.11405216 468.88594784 229 470 C226.58763292 470.2383901 224.19642269 470.41463904 221.77758789 470.55322266 C220.63078269 470.62458293 220.63078269 470.62458293 219.46080971 470.69738483 C217.77751757 470.80157993 216.09409157 470.9036282 214.4105587 471.00385857 C211.67656376 471.1668097 208.94297702 471.33551104 206.20942688 471.50575256 C202.24517797 471.75229898 198.28081217 471.99682276 194.31634521 472.23983765 C158.64593481 474.43129033 123.00266843 476.88595532 87.375 479.6875 C85.51799626 479.83304166 83.66099147 479.97857 81.8039856 480.12408447 C66.54365314 481.32177959 51.28387187 482.52371246 36.03613281 483.87353516 C35.23376757 483.94414186 34.43140232 484.01474855 33.60472298 484.08749485 C29.83713038 484.41927 26.07007621 484.75554402 22.30380249 485.10197449 C20.96117717 485.22156302 19.61853678 485.34098262 18.27587891 485.46020508 C17.13051666 485.56480545 15.98515442 485.66940582 14.80508423 485.7771759 C9.87793816 486.06570746 4.93558698 486 0 486 C0 325.62 0 165.24 0 0 Z " fill="#E50813" transform="translate(702,0)"/>
<path d="M0 0 C25.50042299 0 25.50042299 0 36.80545044 0.48220825 C37.64023045 0.51732639 38.47501045 0.55244453 39.33508682 0.58862686 C40.19775036 0.62512218 41.06041389 0.66161751 41.94921875 0.69921875 C43.82102474 0.77538263 45.6928411 0.85129221 47.56466675 0.92697144 C52.56702134 1.13094202 57.56906334 1.3417477 62.57103348 1.5549202 C65.71787107 1.68879204 68.86477197 1.82108571 72.01168823 1.95309448 C117.69793406 3.87553959 163.35315203 6.30742417 209 9 C209.72798042 9.04289909 210.45596085 9.08579819 211.20600128 9.12999725 C220.09664093 9.65449165 228.98635917 10.1926037 237.875 10.75 C239.3003154 10.83847702 239.3003154 10.83847702 240.75442505 10.92874146 C243.31313352 11.08899119 245.87145588 11.25420522 248.4296875 11.421875 C249.14256424 11.46644333 249.85544098 11.51101166 250.58992004 11.55693054 C254.17996266 11.79995556 257.44631033 12.28926207 261 13 C261 42.37 261 71.74 261 102 C248.62302968 102 248.62302968 102 243.01904297 101.64868164 C241.76759491 101.57182632 240.51614685 101.49497101 239.22677612 101.41578674 C237.25440475 101.28924965 237.25440475 101.28924965 235.2421875 101.16015625 C233.84458879 101.07263403 232.44697492 100.98535344 231.04934692 100.89830017 C228.13969118 100.71633296 225.23019503 100.53204755 222.32080078 100.34594727 C218.61508276 100.10901529 214.90907398 99.87706052 211.20293999 99.6467371 C208.32359203 99.46739081 205.44438622 99.28584207 202.56521988 99.10360527 C201.19947994 99.0173344 199.8337045 98.93162337 198.46789169 98.84651375 C196.55251443 98.72673576 194.63733714 98.60377326 192.72216797 98.48071289 C191.6383786 98.41187393 190.55458923 98.34303497 189.43795776 98.27210999 C185.28333681 97.94327702 181.14212375 97.46023597 177 97 C177 232.63 177 368.26 177 508 C146.30436151 508 115.65321188 505.61332694 85 504 C85 368.04 85 232.08 85 92 C78.4 92 71.8 92 65 92 C60.6202836 91.8942328 56.25122858 91.77215927 51.875 91.59765625 C50.75536865 91.55563583 49.6357373 91.51361542 48.48217773 91.47032166 C46.15683127 91.3821828 43.83155291 91.29222816 41.50634766 91.20043945 C37.97705959 91.06159753 34.44755619 90.92981558 30.91796875 90.79882812 C28.63279661 90.71135163 26.34763973 90.62347528 24.0625 90.53515625 C23.02786621 90.49656998 21.99323242 90.4579837 20.92724609 90.41822815 C13.91511448 90.13675416 7.00843849 89.58403654 0 89 C0 59.63 0 30.26 0 0 Z " fill="#E50914" transform="translate(1555,571)"/>
<path d="M0 0 C0 29.37 0 58.74 0 89 C-2.75922427 90.37961213 -5.21405606 90.34455757 -8.29467773 90.57250977 C-8.94054337 90.62142365 -9.586409 90.67033752 -10.25184631 90.72073364 C-12.39546821 90.88189187 -14.5394884 91.03682302 -16.68359375 91.19140625 C-18.17897898 91.30182377 -19.67434515 91.41249956 -21.16969299 91.52342224 C-24.31272264 91.75558763 -27.45595651 91.98469645 -30.59936523 92.21166992 C-34.60063526 92.50081375 -38.60132247 92.79726006 -42.60188198 93.09605503 C-45.69632253 93.32636139 -48.7910401 93.55275728 -51.88585091 93.77802849 C-53.35891332 93.88569717 -54.83189176 93.99452182 -56.30477715 94.10458565 C-58.3831771 94.25928771 -60.46189776 94.4087023 -62.54077148 94.55688477 C-63.71832504 94.64269302 -64.8958786 94.72850128 -66.1091156 94.81690979 C-71.06763217 95.05023871 -76.03599668 95 -81 95 C-81 230.96 -81 366.92 -81 507 C-162 514 -162 514 -172 514 C-172 378.37 -172 242.74 -172 103 C-183.88 104.32 -195.76 105.64 -208 107 C-221.1326902 108.40012887 -221.1326902 108.40012887 -227.10375977 109.01074219 C-229.55451525 109.26199654 -232.00478278 109.51773798 -234.45507812 109.7734375 C-236.05205649 109.93776104 -237.64906054 110.10183526 -239.24609375 110.265625 C-239.96043076 110.3405719 -240.67476776 110.4155188 -241.41075134 110.49273682 C-244.96015512 110.85167829 -248.43483738 111.02972741 -252 111 C-252.02312228 99.41311598 -252.0409145 87.82623741 -252.05181217 76.23933506 C-252.05704125 70.85966238 -252.06413935 65.48000542 -252.07543945 60.1003418 C-252.08626745 54.91325157 -252.09227665 49.72617651 -252.09487724 44.53907585 C-252.09673165 42.5554372 -252.10035256 40.57179942 -252.10573006 38.58816719 C-252.11293932 35.81990864 -252.11399099 33.05171362 -252.11352539 30.28344727 C-252.11712067 29.45482681 -252.12071594 28.62620636 -252.12442017 27.7724762 C-252.11405216 22.11405216 -252.11405216 22.11405216 -251 21 C-248.25326352 20.64109952 -245.52092723 20.34243643 -242.7644043 20.07958984 C-241.89279883 19.99301054 -241.02119337 19.90643124 -240.12317562 19.81722832 C-237.19061608 19.52726942 -234.2574529 19.24398498 -231.32421875 18.9609375 C-229.24618048 18.75747939 -227.16816788 18.55375893 -225.09017944 18.34979248 C-219.46297503 17.79918742 -213.83513111 17.25541122 -208.20705032 16.7138443 C-204.69090318 16.37532764 -201.17489291 16.03541798 -197.65890503 15.69525146 C-142.2422659 10.34023221 -86.78145934 5.56102873 -31.25 1.5625 C-30.08429474 1.47832825 -28.91858948 1.39415649 -27.71755981 1.30743408 C-24.50467793 1.07729084 -21.29151297 0.85186017 -18.078125 0.62890625 C-17.16161667 0.56368271 -16.24510834 0.49845917 -15.30082703 0.43125916 C-14.44777481 0.37345779 -13.5947226 0.31565643 -12.71582031 0.25610352 C-11.99211243 0.20615738 -11.26840454 0.15621124 -10.52276611 0.10475159 C-7.01802361 -0.04077413 -3.5077625 0 0 0 Z " fill="#E50914" transform="translate(870,1161)"/>
<path d="M0 0 C76.23 0 152.46 0 231 0 C231 27.39 231 54.78 231 83 C182.49 83 133.98 83 84 83 C84 117.65 84 152.3 84 188 C120.96 188 157.92 188 196 188 C196 215.06 196 242.12 196 270 C159.04 270 122.08 270 84 270 C84 332.04 84 394.08 84 458 C56.28 458 28.56 458 0 458 C0 306.86 0 155.72 0 0 Z " fill="#E40914" transform="translate(1292,0)"/>
<path d="M0 0 C84.48 0 168.96 0 256 0 C256 27.39 256 54.78 256 83 C227.62 83 199.24 83 170 83 C170 207.41 170 331.82 170 460 C157.62351253 461.12513522 157.62351253 461.12513522 152.12670898 461.29711914 C150.89850937 461.33708511 149.67030975 461.37705109 148.40489197 461.41822815 C146.47003685 461.47610756 146.47003685 461.47610756 144.49609375 461.53515625 C143.12328855 461.57832789 141.75049101 461.62174407 140.37770081 461.66539001 C137.51951836 461.75558533 134.66128099 461.84362563 131.80297852 461.92993164 C128.16651651 462.03979731 124.53020385 462.15391392 120.89391994 462.26950932 C118.06529137 462.35915803 115.23661286 462.44713798 112.40791512 462.53457451 C110.42397844 462.59601838 108.44006952 462.65835614 106.4561615 462.72071838 C105.23111404 462.7575322 104.00606659 462.79434601 102.74389648 462.83227539 C101.68009262 462.86478897 100.61628876 462.89730255 99.52024841 462.93080139 C95.0143104 463.019376 90.5068085 463 86 463 C86 337.6 86 212.2 86 83 C57.62 83 29.24 83 0 83 C0 55.61 0 28.22 0 0 Z " fill="#E50814" transform="translate(984,0)"/>
<path d="M0 0 C27.72 0 55.44 0 84 0 C84 126.39 84 252.78 84 383 C93.9 383.33 103.8 383.66 114 384 C121.12640081 384.34659504 128.24863724 384.70955689 135.37109375 385.12109375 C137.24608731 385.22717838 139.12109275 385.33305328 140.99610901 385.43873596 C144.86334306 385.65749535 148.73042693 385.87869256 152.59741211 386.10180664 C157.47934933 386.38328586 162.36161871 386.65845227 167.2440176 386.93179226 C171.09414682 387.1480562 174.94407819 387.36769666 178.79396248 387.588274 C180.59189227 387.69090933 182.38987753 387.792579 184.18792534 387.89312553 C197.82732673 388.65859307 211.38001388 389.81565338 225 391 C225 418.06 225 445.12 225 473 C210.38165836 473 210.38165836 473 204.10205078 472.60449219 C203.4090025 472.56206737 202.71595423 472.51964254 202.00190449 472.47593212 C200.51178194 472.38427584 199.02176678 472.29085854 197.53185844 472.19578362 C195.10431496 472.04107571 192.67649446 471.89158454 190.24855042 471.74330139 C186.71934747 471.52751954 183.19024962 471.31012968 179.66122437 471.09146118 C142.42811974 468.78961556 105.18596469 466.88654547 67.91821861 465.24683762 C45.27305752 464.25017136 22.63997991 463.131999 0 462 C0 309.54 0 157.08 0 0 Z " fill="#E40914" transform="translate(1575,0)"/>
<path d="M0 0 C0 165.33 0 330.66 0 501 C-78.75 508 -78.75 508 -88 508 C-88 342.67 -88 177.34 -88 7 C-5 0 -5 0 0 0 Z " fill="#E50914" transform="translate(787,588)"/>
<path d="M0 0 C14.62994492 0 14.62994492 0 20.71459961 0.25952148 C21.37985657 0.2871759 22.04511353 0.31483032 22.73052979 0.34332275 C24.87126524 0.43309648 27.01179952 0.52687911 29.15234375 0.62109375 C30.66638102 0.68609651 32.18042432 0.75095886 33.69447327 0.81568909 C36.84010138 0.95085169 39.9856298 1.08809921 43.13110352 1.22680664 C47.15099163 1.40384463 51.17110847 1.57493258 55.19132137 1.74441433 C58.30645693 1.87650326 61.4214354 2.01203928 64.53637886 2.14857674 C66.01901946 2.21309479 67.50170978 2.27648102 68.98444939 2.33868217 C71.05352704 2.42593243 73.12234354 2.51791695 75.19116211 2.61108398 C76.95102699 2.68769508 76.95102699 2.68769508 78.7464447 2.76585388 C81.85024808 2.98922292 84.93050929 3.48841821 88 4 C88 169 88 334 88 504 C58.64962616 504 29.32010011 502.33273182 0 501 C0 335.67 0 170.34 0 0 Z " fill="#E50914" transform="translate(1590,1151)"/>
<path d="M0 0 C6.08922139 0 11.80681311 0.04509212 17.82055664 0.53491211 C18.88835358 0.62028481 18.88835358 0.62028481 19.97772217 0.7073822 C22.28888553 0.89329285 24.59951505 1.08506047 26.91015625 1.27734375 C28.53012799 1.40969369 30.15011836 1.54181571 31.77012634 1.67372131 C35.14311994 1.94931895 38.51585218 2.22787932 41.88842773 2.50854492 C46.21912228 2.86866774 50.55041695 3.22091238 54.88193607 3.57096004 C58.21663782 3.84136776 61.55097702 4.11604673 64.88522148 4.39203072 C66.48357387 4.52377385 68.08204109 4.6541313 69.68062019 4.78309441 C71.90213391 4.96291825 74.12308985 5.14851341 76.34399414 5.33569336 C77.60844864 5.4400621 78.87290314 5.54443085 80.17567444 5.65196228 C83 6 83 6 84 7 C84.09892061 9.65242111 84.13176434 12.27881673 84.12304783 14.93173313 C84.12420167 15.77707382 84.12535552 16.6224145 84.12654433 17.49337158 C84.12921864 20.36299623 84.12468218 23.23256623 84.12025452 26.10218811 C84.12069005 28.16545148 84.12156463 30.2287148 84.12284368 32.29197782 C84.12509211 37.99051237 84.12106264 43.68902831 84.11606562 49.38756049 C84.11176626 55.52188788 84.11320718 61.65621413 84.1139679 67.7905426 C84.11449346 78.42826179 84.11137802 89.06597425 84.10573006 99.70369148 C84.09981955 110.8644215 84.09596543 122.02514909 84.09487724 133.18588066 C84.0948085 133.87898531 84.09473976 134.57208996 84.09466894 135.28619778 C84.09433062 138.80591128 84.09402923 142.32562478 84.09374207 145.84533828 C84.09163985 170.79638929 84.08489747 195.74743711 84.07543945 220.69848633 C84.06625986 244.9429523 84.05917388 269.1874174 84.05493164 293.43188477 C84.05480011 294.1787812 84.05466859 294.92567763 84.05453308 295.69520728 C84.05321459 303.19562762 84.05193877 310.69604796 84.05069422 318.19646831 C84.04815778 333.47663627 84.04533653 348.75680417 84.04234314 364.03697205 C84.0421372 365.0908828 84.0421372 365.0908828 84.04192711 366.16608469 C84.03272143 413.11072448 84.0168549 460.0553624 84 507 C55.9286623 507 27.97699761 503.29947926 0 501 C0 335.67 0 170.34 0 0 Z " fill="#E50914" transform="translate(1869,588)"/>
<path d="M0 0 C27.72 0 55.44 0 84 0 C84 160.05 84 320.1 84 485 C72.61848894 484.4009731 61.29129889 483.78119489 49.94140625 482.84375 C48.6105208 482.73533155 47.27962349 482.62705868 45.94871521 482.5189209 C43.20711284 482.29551634 40.46568298 482.07013104 37.72436523 481.84326172 C34.21802464 481.55328613 30.71125077 481.26895538 27.2043314 480.98607635 C23.82476267 480.71262069 20.4456087 480.43419549 17.06640625 480.15625 C15.81235489 480.05517944 14.55830353 479.95410889 13.26625061 479.84997559 C12.10661301 479.75317505 10.9469754 479.65637451 9.75219727 479.55664062 C8.2259951 479.43125916 8.2259951 479.43125916 6.66896057 479.30334473 C4 479 4 479 0 478 C0 320.26 0 162.52 0 0 Z " fill="#E50814" transform="translate(1867,0)"/>
</svg>
