<?xml version="1.0" standalone="no"?>
<!DOCTYPE svg PUBLIC "-//W3C//DTD SVG 20010904//EN"
 "http://www.w3.org/TR/2001/REC-SVG-20010904/DTD/svg10.dtd">
<svg version="1.0" xmlns="http://www.w3.org/2000/svg"
 width="472.000000pt" height="544.000000pt" viewBox="0 0 472.000000 544.000000"
 preserveAspectRatio="xMidYMid meet">

<g transform="translate(0.000000,544.000000) scale(0.100000,-0.100000)"
fill="#000000" stroke="none">
<path d="M12 5428 c-17 -17 -17 -5399 0 -5416 17 -17 4679 -17 4696 0 9 9 12
624 12 2706 0 2555 -1 2695 -18 2708 -24 19 -4671 21 -4690 2z m74 -46 c-9 -9
-37 8 -31 18 5 8 11 7 21 -1 8 -6 12 -14 10 -17z m2093 2 c4 3 7 -3 8 -13 1
-10 -5 -18 -13 -18 -9 0 -14 11 -13 31 1 17 3 23 6 13 2 -9 8 -15 12 -13z m96
-23 c-14 -23 -35 -11 -35 19 l0 31 21 -20 c12 -11 18 -24 14 -30z m92 2 c-3
-10 -5 -2 -5 17 0 19 2 27 5 18 2 -10 2 -26 0 -35z m53 16 c0 -24 -4 -30 -17
-27 -23 4 -30 38 -9 38 9 0 16 5 16 10 0 6 2 10 5 10 3 0 5 -14 5 -31z m116
-10 c0 -26 -56 -27 -57 -1 0 14 -2 14 -9 -3 -8 -19 -9 -18 -9 4 -1 19 3 22 19
18 13 -3 20 0 20 9 0 11 4 12 18 3 10 -6 18 -20 18 -30z m1957 34 c3 -5 -6 -9
-20 -10 -19 -1 -22 1 -12 8 17 11 26 11 32 2z m137 -4 c0 6 5 11 11 11 8 0 9
-4 0 -13 -6 -8 -9 -17 -6 -20 3 -4 2 -5 -2 -2 -3 3 -11 1 -17 -4 -7 -6 -11 -2
-11 14 0 18 3 21 13 13 8 -7 12 -7 12 1z m-4515 -9 c3 -5 1 -10 -4 -10 -6 0
-11 5 -11 10 0 6 2 10 4 10 3 0 8 -4 11 -10z m1805 -20 c0 -16 -4 -30 -8 -30
-5 0 -7 14 -4 30 2 17 6 30 8 30 2 0 4 -13 4 -30z m180 19 c0 -4 3 -15 6 -24
5 -13 2 -16 -17 -13 -32 4 -41 48 -10 45 12 -1 21 -4 21 -8z m-134 -10 c10
-17 -13 -36 -27 -22 -12 12 -4 33 11 33 5 0 12 -5 16 -11z m34 0 c0 8 3 12 6
8 7 -7 -5 -47 -14 -47 -4 0 -9 12 -10 28 -1 21 0 23 8 12 8 -12 10 -13 10 -1z
m50 7 c0 -2 -7 -6 -15 -10 -8 -3 -15 -1 -15 4 0 6 7 10 15 10 8 0 15 -2 15 -4z
m90 -6 c-13 -9 -13 -11 0 -20 13 -8 12 -10 -2 -10 -11 0 -18 8 -18 20 0 12 7
20 18 20 14 0 15 -2 2 -10z m169 -7 c1 10 9 17 20 17 14 0 19 -6 18 -20 -1
-15 -8 -20 -29 -20 -23 0 -28 4 -27 23 0 21 1 21 9 2 7 -17 9 -17 9 -2z
m-2202 -25 c-3 -8 -6 -5 -6 6 -1 11 2 17 5 13 3 -3 4 -12 1 -19z m1943 12 c0
-5 -8 -10 -17 -10 -15 0 -16 2 -3 10 19 12 20 12 20 0z m177 -26 c-3 -3 -12
-4 -19 -1 -8 3 -5 6 6 6 11 1 17 -2 13 -5z m-2139 -96 c-5 -32 -28 -35 -28 -4
0 17 5 26 16 26 10 0 14 -7 12 -22z m25 7 c4 -8 2 -17 -3 -20 -6 -4 -10 3 -10
14 0 25 6 27 13 6z m137 5 c0 -5 -6 -10 -12 -10 -9 0 -8 -3 2 -9 8 -6 18 -7
24 -4 5 3 6 1 2 -5 -4 -7 -16 -12 -27 -12 -14 0 -19 7 -19 25 0 16 6 25 15 25
8 0 15 -4 15 -10z m50 -16 c0 -18 -8 -18 -26 0 -10 11 -11 15 -1 19 16 6 27
-1 27 -19z m17 -6 c-3 -7 -5 -2 -5 12 0 14 2 19 5 13 2 -7 2 -19 0 -25z m109
2 c8 0 12 -4 9 -10 -13 -21 -35 -10 -34 18 1 16 3 20 6 10 2 -10 11 -18 19
-18z m274 -10 c5 0 10 10 11 23 0 12 3 17 5 10 3 -7 12 -9 20 -6 9 3 14 -1 14
-12 0 -11 -5 -15 -15 -12 -8 4 -17 2 -20 -3 -13 -22 -41 -10 -42 18 -2 25 -1
26 7 5 5 -13 14 -23 20 -23z m271 18 c1 -17 2 -19 6 -5 2 9 11 17 19 17 18 0
18 -5 -2 -24 -25 -25 -54 -20 -54 9 0 32 30 34 31 3z m113 -10 c-3 -4 -12 -8
-20 -8 -17 0 -19 27 -1 33 14 5 28 -13 21 -25z m158 14 c-17 -5 -15 -22 3 -22
8 0 15 6 15 13 0 8 7 14 15 14 19 0 19 -2 -1 -21 -25 -25 -54 -20 -54 9 0 19
4 23 17 18 11 -4 12 -8 5 -11z m-1102 -7 c0 -8 -4 -15 -8 -15 -5 0 -9 7 -9 15
0 8 4 15 9 15 4 0 8 -7 8 -15z m320 0 c0 -8 -2 -15 -4 -15 -2 0 -6 7 -10 15
-3 8 -1 15 4 15 6 0 10 -7 10 -15z m70 -1 c0 -16 -16 -19 -25 -3 -5 6 -11 4
-19 -6 -11 -15 -12 -15 -13 2 -1 14 6 19 28 19 19 1 29 -3 29 -12z m30 4 c0 6
6 12 13 12 24 0 15 -26 -10 -28 -16 -1 -23 3 -23 16 0 14 2 15 10 2 6 -10 10
-11 10 -2z m270 -3 c0 -7 -14 -11 -35 -11 -19 1 -35 6 -35 12 0 6 16 11 35 11
20 0 35 -5 35 -12z m17 -7 c-3 -8 -6 -5 -6 6 -1 11 2 17 5 13 3 -3 4 -12 1
-19z m263 7 c0 -8 -4 -15 -8 -15 -5 0 -9 7 -9 15 0 8 4 15 9 15 4 0 8 -7 8
-15z m17 -7 c-3 -8 -6 -5 -6 6 -1 11 2 17 5 13 3 -3 4 -12 1 -19z m204 13 c7
11 9 11 9 -2 0 -9 -7 -19 -15 -23 -11 -4 -15 1 -14 17 0 13 3 16 6 8 5 -11 7
-11 14 0z m-1051 -116 c0 -18 -5 -25 -20 -25 -15 0 -20 7 -20 25 0 18 5 25 20
25 15 0 20 -7 20 -25z m173 -10 c4 -8 2 -17 -3 -20 -6 -4 -10 3 -10 14 0 25 6
27 13 6z m-39 -11 c3 -8 2 -12 -4 -9 -6 3 -10 10 -10 16 0 14 7 11 14 -7z m66
1 c0 -8 -4 -15 -8 -15 -5 0 -9 7 -9 15 0 8 4 15 9 15 4 0 8 -7 8 -15z m80 0
c0 -7 -14 -11 -35 -11 -19 1 -35 6 -35 12 0 6 16 11 35 11 20 0 35 -5 35 -12z
m17 -7 c-3 -8 -6 -5 -6 6 -1 11 2 17 5 13 3 -3 4 -12 1 -19z m-310 -14 c-3 -3
-12 -4 -19 -1 -8 3 -5 6 6 6 11 1 17 -2 13 -5z m-127 -34 c0 -28 -3 -30 -35
-30 -32 0 -35 2 -35 30 0 28 3 30 35 30 32 0 35 -2 35 -30z m4174 -35 c9 -35
1 -45 -35 -45 -27 0 -29 3 -29 35 0 32 3 35 29 35 23 0 30 -6 35 -25z m-3906
2 c6 3 12 -2 12 -11 0 -11 -9 -16 -30 -16 -24 0 -30 4 -30 20 0 16 4 19 18 12
9 -5 23 -7 30 -5z m398 -18 c-30 -24 -36 -24 -36 0 0 20 24 31 47 23 9 -3 5
-11 -11 -23z m152 13 c-10 -2 -18 -7 -18 -12 0 -5 8 -7 18 -4 14 5 14 4 2 -4
-18 -13 -30 -6 -30 18 0 14 5 17 23 12 18 -5 19 -7 5 -10z m46 2 c9 -8 16 -11
16 -5 0 6 5 11 10 11 6 0 10 -7 10 -15 0 -8 -9 -15 -20 -15 -11 0 -20 6 -20
13 0 8 -4 7 -10 -3 -8 -12 -10 -11 -10 8 0 26 3 27 24 6z m186 -1 c0 -15 1
-15 13 1 8 11 20 16 28 13 10 -4 9 -6 -3 -6 -10 -1 -18 -6 -18 -12 0 -6 7 -9
15 -5 8 3 15 1 15 -5 0 -5 -12 -8 -27 -5 -16 2 -31 5 -34 5 -9 1 -7 31 3 31 4
0 8 -8 8 -17z m90 -3 c0 -11 -7 -20 -15 -20 -8 0 -15 9 -15 20 0 11 7 20 15
20 8 0 15 -9 15 -20z m732 2 c4 -12 -1 -18 -13 -18 -14 0 -15 4 -8 18 5 10 11
18 13 18 2 0 6 -8 8 -18z m243 -10 c1 -13 -4 -22 -12 -22 -10 0 -11 5 -3 19 7
13 7 21 0 24 -6 3 -5 4 1 3 7 -1 13 -12 14 -24z m495 8 c0 -11 -7 -20 -15 -20
-8 0 -15 9 -15 20 0 11 7 20 15 20 8 0 15 -9 15 -20z m923 0 c3 -11 2 -20 -3
-20 -4 0 -10 9 -13 20 -3 11 -2 20 3 20 4 0 10 -9 13 -20z m60 6 c6 -15 -1
-26 -15 -26 -4 0 -8 9 -8 20 0 23 15 27 23 6z m154 -6 c-1 -11 -8 -20 -15 -20
-11 0 -12 3 -3 14 9 11 9 15 -1 19 -9 4 -7 6 4 6 11 1 16 -6 15 -19z m36 13
c-7 -2 -13 -9 -13 -14 0 -6 5 -7 10 -4 6 3 10 1 10 -4 0 -6 -7 -11 -15 -11 -8
0 -15 9 -15 20 0 13 6 20 18 19 10 0 12 -3 5 -6z m473 -41 c-4 -3 -11 -1 -18
6 -8 8 -8 15 3 28 13 16 14 16 17 -5 2 -13 1 -25 -2 -29z m58 24 c-5 -14 -9
-14 -22 -4 -13 11 -15 10 -9 -5 4 -11 3 -16 -3 -12 -16 10 -12 38 5 32 8 -4
17 -2 21 4 9 15 15 4 8 -15z m-4104 -6 c0 -24 -18 -27 -27 -4 -5 13 -7 13 -14
2 -7 -10 -9 -9 -9 5 0 12 8 17 25 17 18 0 25 -5 25 -20z m280 16 c0 -3 -4 -8
-10 -11 -5 -3 -10 -1 -10 4 0 6 5 11 10 11 6 0 10 -2 10 -4z m124 -11 c-4 -8
-8 -15 -10 -15 -2 0 -4 7 -4 15 0 8 4 15 10 15 5 0 7 -7 4 -15z m114 -3 c2 -7
-3 -12 -12 -12 -9 0 -16 7 -16 16 0 17 22 14 28 -4z m52 3 c0 -8 -7 -15 -15
-15 -16 0 -20 12 -8 23 11 12 23 8 23 -8z m180 11 c0 -11 -19 -15 -25 -6 -3 5
1 10 9 10 9 0 16 -2 16 -4z m400 0 c0 -11 -19 -15 -25 -6 -3 5 1 10 9 10 9 0
16 -2 16 -4z m626 -9 c4 -4 1 -7 -7 -7 -11 0 -11 -2 1 -10 9 -6 10 -10 3 -10
-11 0 -43 26 -43 36 0 6 39 -1 46 -9z m94 2 c0 -5 -6 -9 -14 -9 -8 0 -16 -7
-20 -15 -8 -23 -24 -18 -21 8 3 27 0 25 30 25 14 0 25 -4 25 -9z m610 4 c0 -1
-9 -7 -20 -13 -15 -8 -20 -8 -20 3 0 7 9 13 20 13 11 0 20 -1 20 -3z m804 -14
c-3 -5 -10 -7 -15 -3 -5 3 -7 10 -3 15 3 5 10 7 15 3 5 -3 7 -10 3 -15z m156
11 c0 -5 -2 -10 -4 -10 -3 0 -8 5 -11 10 -3 6 -1 10 4 10 6 0 11 -4 11 -10z
m400 0 c0 -5 -2 -10 -4 -10 -3 0 -8 5 -11 10 -3 6 -1 10 4 10 6 0 11 -4 11
-10z m300 -16 c0 -14 -12 -19 -23 -8 -9 9 4 35 14 28 5 -3 9 -12 9 -20z m46
-1 c-10 -10 -19 5 -10 18 6 11 8 11 12 0 2 -7 1 -15 -2 -18z m21 -5 c-3 -7 -5
-2 -5 12 0 14 2 19 5 13 2 -7 2 -19 0 -25z m-2197 18 c0 -11 -19 -15 -25 -6
-3 5 1 10 9 10 9 0 16 -2 16 -4z m322 -8 c-9 -9 -15 -9 -24 0 -9 9 -7 12 12
12 19 0 21 -3 12 -12z m1825 -10 c-3 -8 -6 -5 -6 6 -1 11 2 17 5 13 3 -3 4
-12 1 -19z m153 18 c0 -11 -19 -15 -25 -6 -3 5 1 10 9 10 9 0 16 -2 16 -4z
m-4540 -119 c-16 -18 -30 -35 -30 -39 0 -5 -5 -8 -11 -8 -15 0 -9 13 25 54 17
19 33 33 38 30 4 -3 -6 -20 -22 -37z m4495 24 c-3 -6 -11 -11 -17 -11 -6 0 -6
6 2 15 14 17 26 13 15 -4z m58 -2 c5 -3 -4 -20 -18 -38 -22 -25 -30 -29 -41
-20 -8 6 -14 17 -14 24 0 17 51 58 59 48 3 -4 10 -11 14 -14z m-1293 -19 c0
-25 -4 -30 -35 -36 -44 -8 -49 -4 -40 35 6 27 11 31 41 31 31 0 34 -3 34 -30z
m364 5 c7 -19 -21 -46 -39 -39 -20 8 -19 16 2 12 10 -2 19 4 21 15 2 12 -3 17
-20 17 -17 0 -20 3 -9 9 17 11 38 4 45 -14z m137 15 c23 -13 25 -33 4 -50 -31
-26 -87 25 -58 53 9 10 31 9 54 -3z m89 -26 c0 -24 -4 -34 -12 -32 -24 8 -22
68 2 68 5 0 10 -16 10 -36z m34 13 c-1 -9 -2 -24 -3 -32 -2 -32 -21 -13 -21
21 0 24 4 34 13 32 6 -3 11 -12 11 -21z m-3694 -13 c0 -22 -2 -25 -15 -14 -12
10 -13 16 -4 26 16 20 19 18 19 -12z m71 -1 c-8 -15 -10 -15 -11 -2 0 17 10
32 18 25 2 -3 -1 -13 -7 -23z m43 10 c-3 9 -1 17 5 17 6 0 11 -9 11 -20 0 -23
-10 -26 -28 -8 -9 9 -12 9 -12 -2 0 -7 -2 -11 -5 -8 -3 3 -3 13 1 22 6 15 7
15 20 -1 13 -17 14 -17 8 0z m95 3 c9 -10 8 -16 -4 -26 -13 -11 -15 -8 -15 14
0 30 3 32 19 12z m84 -6 c3 -12 0 -20 -7 -20 -6 0 -12 9 -12 20 0 11 3 20 7
20 4 0 9 -9 12 -20z m2849 -5 c3 -14 1 -25 -3 -25 -5 0 -9 11 -9 25 0 14 2 25
4 25 2 0 6 -11 8 -25z m708 14 c0 -5 -6 -7 -12 -3 -10 6 -10 5 -1 -7 10 -13
10 -16 -2 -16 -8 0 -15 9 -15 19 0 10 7 18 15 18 8 0 15 -5 15 -11z m33 4 c-7
-2 -13 -9 -13 -14 0 -6 5 -7 10 -4 6 3 10 1 10 -4 0 -6 -7 -11 -15 -11 -8 0
-15 9 -15 20 0 13 6 20 18 19 10 0 12 -3 5 -6z m47 -13 c0 -11 -7 -20 -15 -20
-8 0 -15 9 -15 20 0 11 7 20 15 20 8 0 15 -9 15 -20z m-2340 -1 c0 -15 -18
-19 -23 -6 -3 8 1 14 9 14 8 0 14 -4 14 -8z m2220 -4 c0 -8 -4 -15 -10 -15 -5
0 -10 7 -10 15 0 8 5 15 10 15 6 0 10 -7 10 -15z m310 11 c0 -11 -19 -15 -25
-6 -3 5 1 10 9 10 9 0 16 -2 16 -4z m-838 -18 c-9 -9 -15 -9 -24 0 -9 9 -7 12
12 12 19 0 21 -3 12 -12z m1078 -18 c0 -5 -5 -10 -11 -10 -5 0 -7 5 -4 10 3 6
8 10 11 10 2 0 4 -4 4 -10z m-1840 -399 c0 -195 -3 -357 -5 -360 -9 -8 -77 -2
-89 8 -7 6 -27 9 -45 6 l-33 -4 4 130 3 131 35 32 c55 50 72 84 77 150 10 125
-72 224 -192 234 -38 3 -55 1 -55 -7 0 -7 8 -11 18 -10 30 3 37 -1 22 -11 -13
-9 -12 -11 5 -16 16 -4 55 -67 59 -96 1 -3 13 -16 29 -28 33 -26 35 -58 6 -89
-18 -19 -28 -22 -58 -16 -46 9 -103 7 -111 -4 -6 -11 -87 -8 -112 3 -39 18 -6
-82 37 -110 40 -26 65 -92 64 -171 0 -42 -3 -61 -8 -49 -5 14 -10 16 -15 8 -8
-13 -48 -16 -59 -5 -4 3 -19 8 -33 9 -14 2 -56 11 -94 20 l-67 18 -134 -69
c-73 -37 -155 -81 -181 -96 -27 -16 -52 -29 -56 -29 -4 0 -38 -19 -77 -41 -38
-22 -59 -38 -45 -34 14 3 31 7 38 9 8 1 18 9 23 17 6 10 9 10 9 2 0 -7 5 -13
11 -13 6 0 9 7 5 15 -7 20 11 19 22 -2 7 -11 15 -14 28 -9 18 7 17 9 -3 17
-35 13 -27 18 15 9 94 -20 102 -20 102 -5 0 10 11 15 35 15 19 0 35 -4 35 -10
0 -5 -9 -10 -20 -10 -11 0 -20 -4 -20 -10 0 -5 18 -10 40 -10 22 0 40 -4 40
-10 0 -5 18 -10 40 -10 33 0 40 -3 40 -20 0 -17 7 -20 39 -20 39 0 40 -1 43
-37 3 -33 -2 -42 -30 -65 -19 -15 -42 -30 -53 -33 -10 -4 -19 -10 -19 -15 0
-5 -18 -19 -40 -30 -22 -11 -40 -22 -40 -24 0 -3 -3 -11 -6 -19 -4 -11 8 -20
43 -32 26 -9 62 -23 78 -30 28 -13 182 -64 208 -69 7 -2 19 -6 27 -9 65 -25
140 -49 164 -53 16 -3 40 -10 53 -15 13 -5 46 -9 72 -9 43 0 48 -2 46 -22 -1
-20 -8 -23 -56 -26 -45 -2 -87 8 -249 63 -107 36 -242 82 -300 101 -58 19
-112 42 -121 50 -19 17 -29 18 -29 3 0 -5 5 -7 10 -4 5 3 10 3 10 0 0 -3 -14
-12 -30 -19 l-30 -12 37 -25 c21 -13 38 -31 38 -39 1 -20 -23 -57 -41 -64 -19
-7 -45 4 -38 16 4 6 -1 8 -12 5 -11 -4 -32 -9 -49 -13 -29 -6 -29 -6 -10 10
19 16 19 17 -15 11 l-35 -6 24 19 24 19 -24 6 c-13 4 -40 7 -60 7 -32 0 -39
-4 -53 -35 -10 -20 -15 -44 -11 -54 10 -32 66 -51 153 -51 56 0 83 -4 91 -14
10 -12 2 -16 -46 -26 -31 -7 -82 -10 -113 -7 -34 3 -47 2 -35 -3 18 -8 18 -9
2 -9 -24 -1 -79 28 -73 38 3 4 -2 8 -10 8 -12 0 -14 -11 -8 -61 3 -34 10 -66
16 -73 7 -9 5 -18 -7 -30 -17 -16 -17 -16 -11 5 8 25 -7 61 -18 43 -4 -6 -2
-11 5 -11 7 0 3 -10 -9 -23 -12 -13 -22 -32 -22 -43 0 -12 -3 -24 -7 -28 -12
-11 -10 -66 2 -66 6 0 3 -5 -5 -10 -12 -7 -13 -13 -3 -28 9 -15 9 -22 0 -31
-8 -8 -8 -11 1 -11 7 0 12 -15 12 -37 1 -42 10 -60 59 -120 22 -27 38 -40 49
-36 12 5 14 1 10 -20 -4 -22 -2 -27 16 -27 17 0 18 -2 6 -10 -10 -7 -11 -10
-2 -11 6 -1 17 -3 22 -4 6 -1 16 -3 23 -4 8 -1 8 -4 -3 -10 -8 -6 -18 -7 -22
-5 -4 3 -8 0 -8 -5 0 -6 9 -11 20 -11 11 0 20 -4 20 -9 0 -5 8 -12 18 -14 9
-3 -175 -5 -410 -6 l-428 -1 0 1055 0 1055 910 -2 911 -3 -1 -354z m-2686 283
c21 -20 20 -43 -1 -66 -20 -22 -51 -23 -75 -1 -34 31 -12 83 37 83 13 0 31 -7
39 -16z m10 -376 c8 -14 7 -21 -6 -34 -30 -31 -84 10 -57 43 16 18 49 13 63
-9z m-14 -148 c8 -14 8 -26 0 -40 -19 -35 -80 -20 -80 20 0 40 61 55 80 20z
m-15 -171 c-22 -22 -48 -45 -57 -50 -16 -9 -18 -4 -18 41 l0 50 57 0 57 0 -39
-41z m1950 -9 c3 -5 2 -10 -4 -10 -5 0 -13 5 -16 10 -3 6 -2 10 4 10 5 0 13
-4 16 -10z m-155 -20 c0 -5 -5 -10 -11 -10 -5 0 -7 5 -4 10 3 6 8 10 11 10 2
0 4 -4 4 -10z m255 -10 c4 -6 -12 -9 -42 -9 l-48 2 40 7 c22 4 41 8 42 9 1 0
5 -3 8 -9z m95 -14 c0 -3 -4 -8 -10 -11 -5 -3 -10 -1 -10 4 0 6 5 11 10 11 6
0 10 -2 10 -4z m262 -41 c31 -8 43 -13 28 -14 -44 -2 -99 19 -111 42 -12 22
-12 22 9 4 11 -11 45 -25 74 -32z m-245 3 c-3 -8 -6 -5 -6 6 -1 11 2 17 5 13
3 -3 4 -12 1 -19z m45 -3 c-6 -34 55 -76 133 -93 17 -3 79 -6 139 -6 75 -1
111 -5 113 -13 7 -21 -77 -35 -182 -31 -87 3 -108 7 -160 33 -35 18 -65 40
-72 55 -7 14 -13 19 -13 12 0 -7 -4 -10 -10 -7 -15 9 -12 25 4 25 8 0 17 12
20 26 7 28 33 28 28 -1z m110 -14 c11 -7 50 -19 87 -27 l66 -14 -65 6 c-66 5
-114 28 -116 55 0 8 1 9 3 4 2 -6 13 -16 25 -24z m-182 19 c0 -5 -5 -10 -11
-10 -5 0 -7 5 -4 10 3 6 8 10 11 10 2 0 4 -4 4 -10z m-2100 -100 c0 -57 -1
-60 -25 -60 -24 0 -25 3 -25 60 0 57 1 60 25 60 24 0 25 -3 25 -60z m2120 20
c5 0 10 -4 10 -10 0 -5 -9 -10 -20 -10 -16 0 -20 6 -19 33 0 29 1 30 9 10 5
-13 14 -23 20 -23z m357 34 c-3 -3 -12 -4 -19 -1 -8 3 -5 6 6 6 11 1 17 -2 13
-5z m-2528 -226 c-1 -43 -3 -47 -8 -23 -6 28 -3 75 5 75 2 0 3 -24 3 -52z
m-29 2 c0 -5 -4 -10 -10 -10 -5 0 -10 5 -10 10 0 6 5 10 10 10 6 0 10 -4 10
-10z m70 0 c0 -5 -4 -10 -9 -10 -6 0 -13 5 -16 10 -3 6 1 10 9 10 9 0 16 -4
16 -10z m-19 -144 c-8 -10 -9 -16 -2 -21 17 -10 -11 -45 -36 -45 -18 0 -23 6
-23 28 0 34 16 52 48 52 20 0 22 -3 13 -14z m1637 -75 c13 -7 42 -16 65 -21
l42 -9 -49 4 c-52 5 -96 27 -96 48 0 8 3 9 8 1 4 -6 17 -16 30 -23z m155 -18
c-7 -2 -21 -2 -30 0 -10 3 -4 5 12 5 17 0 24 -2 18 -5z m698 -87 c48 -20 71
-49 67 -83 -2 -17 -8 -27 -16 -25 -8 1 -11 -2 -7 -7 6 -11 -33 -36 -43 -27 -3
3 1 6 8 6 20 0 -21 29 -41 30 -9 0 -20 7 -23 15 -3 9 -11 15 -18 14 -33 -4
-59 2 -52 12 3 6 22 9 40 7 22 -3 30 0 24 6 -5 5 -29 9 -53 10 -31 1 -43 5
-40 14 3 8 -5 12 -23 13 l-29 1 30 13 c39 18 134 19 176 1z m-2541 -22 c0 -8
-5 -12 -10 -9 -6 4 -8 11 -5 16 9 14 15 11 15 -7z m60 7 c0 -5 -6 -14 -14 -20
-12 -10 -13 -8 -9 8 5 21 23 30 23 12z m1723 2 c-13 -2 -33 -2 -45 0 -13 2 -3
4 22 4 25 0 35 -2 23 -4z m141 -7 c21 -9 39 -10 49 -5 10 6 18 5 23 -2 4 -8 3
-9 -4 -5 -7 4 -12 3 -12 -3 0 -20 20 -21 32 -1 15 24 28 26 28 5 0 -8 -5 -15
-11 -15 -5 0 -7 -5 -3 -12 6 -9 9 -9 12 0 2 7 11 12 19 12 9 0 13 6 9 15 -7
19 1 19 20 1 19 -19 18 -40 -1 -32 -8 3 -15 1 -15 -4 0 -16 33 -28 71 -26 31
1 35 -2 31 -18 -4 -13 -1 -17 9 -14 8 3 21 -3 30 -14 16 -17 17 -17 23 13 5
27 36 72 36 52 0 -4 5 -1 10 7 8 12 10 11 10 -7 0 -37 11 -53 53 -75 34 -17
54 -20 121 -16 45 3 72 1 61 -3 -33 -13 -143 -10 -179 5 -18 7 -42 26 -54 42
-21 28 -21 29 -15 4 9 -37 23 -51 72 -73 28 -12 64 -19 105 -18 33 0 78 -2
100 -5 33 -5 36 -8 24 -20 -19 -19 -132 -37 -183 -28 -22 3 -55 12 -73 20 -18
7 -30 9 -27 4 3 -5 27 -16 53 -24 26 -8 38 -15 27 -15 -28 -1 -97 32 -115 55
-14 18 -14 18 5 4 16 -11 17 -11 8 0 -30 33 -45 21 -55 -44 -4 -26 -69 -29
-76 -4 -5 19 -22 25 -22 8 0 -5 -4 -10 -10 -10 -5 0 -10 9 -10 20 0 11 -6 20
-13 20 -13 0 -43 40 -39 53 1 5 -2 6 -8 2 -5 -3 -10 -1 -10 5 0 7 -7 9 -16 6
-8 -3 -12 -2 -9 4 8 13 -17 13 -52 -1 -41 -17 -123 -18 -123 -2 0 7 -6 13 -14
13 -8 0 -16 4 -18 10 -2 6 -8 6 -18 -1 -13 -8 -12 -11 4 -24 11 -8 15 -15 9
-15 -6 0 -20 -3 -30 -6 -15 -5 -15 -4 -3 5 8 6 11 11 5 11 -5 0 -11 11 -11 25
-1 14 2 25 6 25 5 0 16 21 26 46 24 63 69 79 138 50z m43 8 c-3 -3 -12 -4 -19
-1 -8 3 -5 6 6 6 11 1 17 -2 13 -5z m2140 -206 c-2 -18 -4 -4 -4 32 0 36 2 50
4 33 2 -18 2 -48 0 -65z m-4069 70 c-6 -18 -58 -20 -58 -2 0 9 11 14 31 14 20
0 29 -4 27 -12z m32 -3 c0 -8 -4 -15 -10 -15 -5 0 -10 7 -10 15 0 8 5 15 10
15 6 0 10 -7 10 -15z m1674 3 c-6 -10 -61 -11 -67 0 -3 4 12 7 33 7 21 1 36
-3 34 -7z m2146 -27 c0 -6 -4 -13 -10 -16 -5 -3 -10 1 -10 9 0 9 5 16 10 16 6
0 10 -4 10 -9z m-3880 -11 c0 -5 -7 -10 -15 -10 -8 0 -15 5 -15 10 0 6 7 10
15 10 8 0 15 -4 15 -10z m60 0 c0 -5 -7 -10 -15 -10 -8 0 -15 5 -15 10 0 6 7
10 15 10 8 0 15 -4 15 -10z m1740 -5 c-7 -8 -18 -15 -24 -15 -6 0 -2 7 8 15
25 19 32 19 16 0z m193 1 c9 -7 17 -18 17 -23 0 -6 7 -16 15 -23 8 -7 15 -16
15 -21 0 -5 -14 4 -32 21 -33 32 -69 46 -87 35 -6 -3 -11 -2 -11 4 0 22 56 27
83 7z m-162 -19 c-10 -9 -11 -8 -5 6 3 10 9 15 12 12 3 -3 0 -11 -7 -18z
m-1771 -12 c0 -8 -17 -12 -45 -12 -27 0 -45 4 -45 11 0 7 18 12 45 12 29 1 45
-4 45 -11z m3520 5 c0 -5 -4 -10 -10 -10 -5 0 -10 5 -10 10 0 6 5 10 10 10 6
0 10 -4 10 -10z m90 -6 c0 -8 -5 -12 -10 -9 -6 4 -8 11 -5 16 9 14 15 11 15
-7z m118 -13 c30 -26 32 -91 2 -91 -17 0 -20 7 -20 39 l0 40 -37 -5 c-21 -3
-46 -7 -55 -9 -10 -2 -21 1 -24 6 -3 5 18 9 45 9 39 0 51 4 51 15 0 20 10 18
38 -4z m-178 -15 c0 -3 -4 -8 -10 -11 -5 -3 -10 -1 -10 4 0 6 5 11 10 11 6 0
10 -2 10 -4z m140 -26 c0 -5 -7 -10 -16 -10 -8 0 -12 5 -9 10 3 6 10 10 16 10
5 0 9 -4 9 -10z m160 -24 c0 -20 6 -24 40 -30 26 -4 40 -11 40 -21 0 -19 -19
-19 -44 0 -11 8 -31 15 -45 15 -14 0 -37 3 -49 7 l-24 6 29 23 c36 30 53 30
53 0z m194 -236 c-2 -82 0 -102 6 -70 l8 45 -2 -45 -1 -45 -564 -3 c-552 -2
-711 2 -401 11 85 2 164 8 174 12 14 6 17 5 12 -3 -4 -7 -3 -12 2 -12 5 0 10
11 10 25 0 21 -3 23 -20 14 -11 -6 -22 -8 -25 -6 -10 11 35 25 101 30 38 4 74
11 80 17 7 7 0 9 -24 4 -26 -4 -31 -3 -20 5 9 7 10 11 3 11 -6 0 -15 -5 -18
-10 -5 -8 -11 -8 -20 0 -9 8 -15 8 -20 0 -3 -5 -12 -10 -18 -10 -19 1 25 30
45 30 10 0 18 5 18 10 0 6 -5 10 -11 10 -8 0 -8 5 1 15 7 8 22 14 34 14 20 -2
20 -2 -1 -6 -13 -2 -23 -8 -23 -13 0 -11 68 -25 77 -16 4 3 -1 6 -10 6 -22 0
-21 8 3 45 17 26 20 27 26 10 5 -11 3 -20 -4 -23 -15 -5 -16 -22 -1 -22 16 0
39 26 39 45 0 8 7 18 15 21 8 4 15 11 15 18 0 19 41 39 53 27 8 -8 5 -11 -9
-11 -22 0 -44 -41 -43 -79 1 -25 1 -25 15 7 15 34 22 36 73 26 35 -7 42 -24 9
-24 -12 0 -19 -3 -16 -6 9 -8 78 7 78 17 0 5 -9 9 -20 9 -11 0 -20 5 -20 10 0
6 -9 10 -20 10 -11 0 -20 5 -20 10 0 6 9 10 20 10 11 0 20 -4 20 -10 0 -5 9
-10 20 -10 27 0 25 18 -2 22 -18 2 -24 11 -26 36 -2 20 -9 32 -18 32 -30 0
-12 20 19 21 l32 2 -35 7 -35 7 43 2 c35 1 42 -2 42 -18 0 -16 5 -18 40 -14
26 4 40 2 40 -6 0 -6 -5 -11 -11 -11 -6 0 -3 -7 6 -16 13 -14 21 -15 41 -5 33
15 69 14 94 -1 17 -11 22 -10 31 2 8 13 12 12 28 -7 11 -13 26 -23 35 -23 23
0 20 33 -4 48 -11 7 -20 17 -20 22 0 6 9 10 20 10 11 0 20 5 20 11 0 5 5 7 10
4 6 -3 11 4 12 17 4 62 15 -142 12 -242z m-1894 230 c0 -5 -4 -10 -10 -10 -5
0 -10 5 -10 10 0 6 5 10 10 10 6 0 10 -4 10 -10z m1377 -12 c-3 -8 -6 -5 -6 6
-1 11 2 17 5 13 3 -3 4 -12 1 -19z m59 1 c10 -17 -13 -36 -27 -22 -12 12 -4
33 11 33 5 0 12 -5 16 -11z m-3646 -35 c0 -16 -16 -19 -25 -4 -8 13 4 32 16
25 5 -4 9 -13 9 -21z m26 1 c1 -8 -2 -15 -7 -15 -5 0 -9 10 -9 22 0 23 12 17
16 -7z m31 0 c0 -8 -4 -15 -8 -15 -11 0 -20 16 -12 24 11 11 20 7 20 -9z
m3533 -14 c0 -14 -5 -18 -20 -14 -25 7 -26 20 -2 26 9 3 18 5 20 6 1 0 2 -8 2
-18z m-90 -76 c0 -3 -16 -5 -35 -5 -36 0 -48 16 -17 23 16 3 52 -9 52 -18z
m-1623 -211 c-3 -3 -12 -4 -19 -1 -8 3 -5 6 6 6 11 1 17 -2 13 -5z m-1580 -41
c-4 -3 -2 -12 4 -19 7 -8 6 -14 -2 -20 -7 -4 -9 -3 -5 4 3 6 2 13 -4 17 -10 6
-5 25 7 25 4 0 3 -3 0 -7z m1420 0 c-4 -3 -2 -12 4 -19 7 -8 6 -14 -2 -20 -7
-4 -9 -3 -5 4 3 6 2 13 -4 17 -10 6 -5 25 7 25 4 0 3 -3 0 -7z m2854 -2 c-8
-5 -20 -7 -28 -4 -21 8 -15 13 15 13 20 0 23 -3 13 -9z m-4374 -23 c-3 -8 -6
-5 -6 6 -1 11 2 17 5 13 3 -3 4 -12 1 -19z m40 7 c0 -8 -4 -12 -9 -9 -5 3 -6
10 -3 15 9 13 12 11 12 -6z m255 -17 c-8 -8 -9 -4 -5 13 4 13 8 18 11 10 2 -7
-1 -18 -6 -23z m39 15 c13 -16 12 -17 -3 -4 -10 7 -18 15 -18 17 0 8 8 3 21
-13z m96 -5 c-3 -8 -6 -5 -6 6 -1 11 2 17 5 13 3 -3 4 -12 1 -19z m170 -10
c-3 -7 -5 -2 -5 12 0 14 2 19 5 13 2 -7 2 -19 0 -25z m113 17 c0 -8 -2 -15 -4
-15 -2 0 -6 7 -10 15 -3 8 -1 15 4 15 6 0 10 -7 10 -15z m177 -17 c-3 -7 -5
-2 -5 12 0 14 2 19 5 13 2 -7 2 -19 0 -25z m180 10 c-3 -8 -6 -5 -6 6 -1 11 2
17 5 13 3 -3 4 -12 1 -19z m20 0 c-3 -8 -6 -5 -6 6 -1 11 2 17 5 13 3 -3 4
-12 1 -19z m100 -10 c-3 -7 -5 -2 -5 12 0 14 2 19 5 13 2 -7 2 -19 0 -25z
m260 0 c-3 -7 -5 -2 -5 12 0 14 2 19 5 13 2 -7 2 -19 0 -25z m265 0 c-8 -8 -9
-4 -5 13 4 13 8 18 11 10 2 -7 -1 -18 -6 -23z m-1555 0 c-3 -8 -6 -5 -6 6 -1
11 2 17 5 13 3 -3 4 -12 1 -19z m33 18 c0 -3 -4 -8 -10 -11 -5 -3 -10 -1 -10
4 0 6 5 11 10 11 6 0 10 -2 10 -4z m815 -6 c3 -5 1 -10 -4 -10 -6 0 -11 5 -11
10 0 6 2 10 4 10 3 0 8 -4 11 -10z m330 0 c3 -5 1 -10 -4 -10 -6 0 -11 5 -11
10 0 6 2 10 4 10 3 0 8 -4 11 -10z m238 -5 c-3 -9 -8 -14 -10 -11 -3 3 -2 9 2
15 9 16 15 13 8 -4z m-1551 -110 c3 -14 1 -25 -3 -25 -5 0 -9 11 -9 25 0 14 2
25 4 25 2 0 6 -11 8 -25z m849 3 l0 -23 9 23 c10 22 30 31 30 11 0 -5 -4 -7
-10 -4 -5 3 -10 -1 -10 -10 0 -9 5 -13 10 -10 6 3 10 2 10 -3 0 -5 -12 -9 -27
-10 -23 0 -28 4 -28 24 0 30 15 32 16 2z m2307 -3 c-3 -33 -16 -33 -14 0 0 14
4 25 8 25 4 0 7 -11 6 -25z m40 -10 c-2 -10 -7 -12 -17 -5 -13 7 -13 11 -1 25
15 18 24 8 18 -20z m-3190 -112 c-10 -2 -18 -9 -18 -15 0 -5 7 -8 15 -4 8 3
15 1 15 -4 0 -13 -27 -13 -35 0 -9 15 4 30 23 29 15 -1 15 -2 0 -6z m62 -19
c0 -8 -5 -14 -11 -14 -5 0 -7 6 -3 13 5 8 2 8 -9 -2 -15 -12 -17 -11 -17 7 0
15 5 19 20 15 11 -3 20 -12 20 -19z m58 13 c6 3 12 -2 12 -11 0 -11 -9 -16
-30 -16 -24 0 -30 4 -30 20 0 16 4 19 18 12 9 -5 23 -7 30 -5z m29 -19 c-3 -7
-5 -2 -5 12 0 14 2 19 5 13 2 -7 2 -19 0 -25z m223 22 c0 -5 -2 -10 -4 -10 -3
0 -8 5 -11 10 -3 6 -1 10 4 10 6 0 11 -4 11 -10z m-88 -12 c-9 -9 -15 -9 -24
0 -9 9 -7 12 12 12 19 0 21 -3 12 -12z m85 -60 c-3 -8 -6 -5 -6 6 -1 11 2 17
5 13 3 -3 4 -12 1 -19z m340 0 c-3 -8 -6 -5 -6 6 -1 11 2 17 5 13 3 -3 4 -12
1 -19z m34 13 c7 11 9 10 9 -4 0 -20 -22 -19 -26 1 -2 9 -1 9 3 1 4 -8 8 -7
14 2z m402 1 c4 8 6 7 6 -4 1 -20 -14 -24 -25 -7 -4 8 -9 7 -15 -2 -5 -8 -9
-9 -9 -3 0 18 12 24 26 13 8 -7 14 -6 17 3z m400 0 c4 9 6 8 6 -3 1 -11 -7
-16 -23 -16 -17 0 -23 4 -19 14 4 10 9 11 18 3 9 -8 14 -7 18 2z m407 -7 c0
-8 -4 -15 -10 -15 -5 0 -7 7 -4 15 4 8 8 15 10 15 2 0 4 -7 4 -15z m370 -6 c0
-5 -4 -9 -8 -9 -5 0 -9 7 -9 15 0 8 4 12 9 9 4 -3 8 -9 8 -15z m30 6 c0 -8 -4
-15 -10 -15 -5 0 -7 7 -4 15 4 8 8 15 10 15 2 0 4 -7 4 -15z m354 0 c3 -8 1
-15 -4 -15 -6 0 -10 7 -10 15 0 8 2 15 4 15 2 0 6 -7 10 -15z m30 0 c3 -8 1
-15 -4 -15 -6 0 -10 7 -10 15 0 8 2 15 4 15 2 0 6 -7 10 -15z m400 0 c3 -8 1
-15 -4 -15 -6 0 -10 7 -10 15 0 8 2 15 4 15 2 0 6 -7 10 -15z m376 -6 c0 -5
-4 -9 -10 -9 -5 0 -10 7 -10 16 0 8 5 12 10 9 6 -3 10 -10 10 -16z m24 6 c3
-8 1 -15 -4 -15 -6 0 -10 7 -10 15 0 8 2 15 4 15 2 0 6 -7 10 -15z m382 6 c11
9 14 8 14 -2 0 -11 3 -11 11 1 9 13 10 13 6 0 -5 -18 -49 -20 -53 -2 -1 7 0 8
3 2 3 -8 9 -7 19 1z m414 -6 c0 -8 -4 -15 -10 -15 -5 0 -7 7 -4 15 4 8 8 15
10 15 2 0 4 -7 4 -15z m30 0 c0 -8 -4 -15 -10 -15 -5 0 -7 7 -4 15 4 8 8 15
10 15 2 0 4 -7 4 -15z m-4400 -72 c0 -22 -11 -37 -27 -40 -8 -2 -13 8 -13 27
0 23 4 30 20 30 12 0 20 -7 20 -17z m148 -27 c1 -15 -1 -17 -7 -7 -7 11 -9 11
-14 0 -3 -9 -6 -6 -6 7 -1 27 25 27 27 0z m72 6 c0 -14 -8 -19 -30 -19 -19 0
-30 5 -30 14 0 10 7 12 19 8 11 -3 22 -1 26 5 9 15 15 12 15 -8z m88 11 c-10
-2 -18 -9 -18 -15 0 -5 7 -8 15 -4 8 3 15 1 15 -4 0 -13 -27 -13 -35 0 -9 15
4 30 23 29 15 -1 15 -2 0 -6z m142 -10 c0 -3 -7 -2 -16 1 -11 4 -15 2 -11 -8
3 -8 -2 -16 -14 -19 -14 -4 -19 0 -19 13 0 10 8 20 18 22 18 5 42 -1 42 -9z
m-196 -8 c-4 -8 -10 -15 -15 -15 -5 0 -9 7 -9 15 0 8 7 15 15 15 9 0 12 -6 9
-15z m83 -7 c-3 -8 -6 -5 -6 6 -1 11 2 17 5 13 3 -3 4 -12 1 -19z m43 6 c0 -8
-4 -12 -10 -9 -5 3 -10 10 -10 16 0 5 5 9 10 9 6 0 10 -7 10 -16z m277 -16
c-3 -7 -5 -2 -5 12 0 14 2 19 5 13 2 -7 2 -19 0 -25z m79 20 c5 -7 3 -8 -6 -3
-10 6 -12 4 -6 -11 5 -14 4 -16 -5 -7 -6 6 -8 16 -5 22 9 14 13 14 22 -1z m91
-10 c-3 -8 -6 -5 -6 6 -1 11 2 17 5 13 3 -3 4 -12 1 -19z m30 0 c-3 -8 -6 -5
-6 6 -1 11 2 17 5 13 3 -3 4 -12 1 -19z m38 -8 c-5 -8 -11 -8 -17 -2 -6 6 -7
16 -3 22 5 8 11 8 17 2 6 -6 7 -16 3 -22z m-195 10 c0 -5 -5 -10 -11 -10 -5 0
-7 5 -4 10 3 6 8 10 11 10 2 0 4 -4 4 -10z m470 -332 l0 -163 -104 1 c-57 1
-109 4 -115 8 -6 4 -11 2 -11 -3 0 -6 -9 -11 -20 -11 -11 0 -20 5 -20 10 0 6
-9 10 -20 10 -11 0 -20 -4 -20 -10 0 -5 -7 -10 -15 -10 -8 0 -15 5 -15 11 0 7
-10 9 -25 7 l-25 -5 0 157 0 157 195 2 195 2 0 -163z m510 2 c0 -121 -3 -160
-12 -161 -125 -5 -258 -4 -258 3 0 4 -9 8 -20 8 -11 0 -20 -4 -20 -10 0 -15
-27 -12 -33 5 -4 8 -15 12 -27 10 -19 -4 -20 0 -20 150 l0 154 195 0 195 0 0
-159z m418 143 l-78 -4 0 -55 0 -54 47 25 c27 14 56 25 66 25 14 0 16 5 11 25
-4 18 -2 25 8 25 22 0 29 -12 16 -27 -15 -18 -6 -25 50 -40 78 -20 82 -19 82
32 l0 44 -62 4 c-51 2 -45 4 30 5 l93 2 -2 -160 c0 -114 -4 -160 -12 -160
-164 -5 -257 -5 -257 2 0 4 -9 8 -20 8 -11 0 -20 -4 -20 -10 0 -5 -9 -10 -20
-10 -11 0 -20 5 -20 10 0 6 -9 10 -20 10 -19 0 -20 7 -21 133 0 72 -2 142 -3
155 -3 22 -1 22 103 20 95 -2 98 -2 29 -5z m1832 -167 c0 -148 -7 -194 -23
-153 -4 9 -8 8 -16 -3 -10 -13 -12 -13 -21 0 -6 9 -10 10 -10 3 0 -6 -8 -11
-19 -10 -15 1 -18 7 -14 37 4 29 2 37 -11 37 -10 0 -16 -9 -16 -24 0 -28 -26
-31 -33 -4 -6 26 -60 24 -65 -2 -5 -24 45 -24 51 1 4 13 5 11 6 -5 0 -13 6
-23 11 -23 6 0 10 -4 10 -8 0 -9 -53 -7 -69 3 -6 3 -11 1 -11 -4 0 -12 -40
-15 -40 -3 0 4 -3 18 -5 32 -5 24 -5 24 4 3 14 -30 28 -29 33 2 5 22 2 25 -25
25 -26 0 -29 -3 -25 -25 4 -17 1 -25 -8 -25 -8 0 -14 -4 -14 -10 0 -5 -9 -10
-20 -10 -11 0 -20 5 -20 11 0 6 -9 9 -20 6 -19 -5 -20 0 -20 153 l0 157 195 2
195 2 0 -165z m-742 147 l-58 -4 0 -104 0 -105 145 0 145 0 0 110 0 110 25 0
25 0 0 -149 c0 -174 -2 -184 -36 -171 -13 5 -24 7 -24 4 0 -4 -8 0 -17 7 -15
12 -16 12 -11 -3 5 -11 2 -15 -10 -13 -9 1 -16 7 -15 12 1 5 -13 10 -30 10
-29 2 -30 1 -9 -7 12 -5 22 -11 22 -12 0 -2 -31 -4 -69 -5 l-70 -2 1 32 c1 18
3 26 5 20 6 -18 43 -16 43 2 0 10 -10 15 -31 15 -27 0 -31 -3 -26 -21 4 -15 0
-23 -14 -26 -10 -3 -19 -9 -19 -14 0 -5 -7 -9 -15 -9 -8 0 -15 7 -15 15 0 8
-6 12 -14 9 -27 -10 -36 33 -36 170 l0 136 83 -2 c68 -1 72 -2 25 -5z m185 0
c-24 -2 -62 -2 -85 0 -24 2 -5 4 42 4 47 0 66 -2 43 -4z m-87 -35 c-3 -13 -6
-30 -6 -38 -1 -8 -8 -3 -16 13 -16 30 -12 47 13 47 11 0 14 -6 9 -22z m391
-240 c-3 -8 -6 -5 -6 6 -1 11 2 17 5 13 3 -3 4 -12 1 -19z m138 -17 c-3 -6
-11 -11 -17 -11 -6 0 -6 6 2 15 14 17 26 13 15 -4z m-2645 -109 l0 -58 -35 4
c-19 2 -48 -1 -65 -6 -23 -9 -33 -8 -45 4 -11 12 -15 12 -15 2 0 -10 -2 -11
-8 0 -7 9 -15 10 -35 3 -20 -8 -27 -7 -27 2 0 9 -2 9 -8 0 -8 -12 -41 -11 -61
2 -5 3 -12 1 -16 -5 -3 -5 -21 -9 -40 -8 l-35 1 0 59 0 58 195 0 195 0 0 -58z
m510 4 c0 -62 -2 -63 -82 -61 -35 1 -58 -3 -59 -9 0 -6 -4 -2 -9 9 -6 13 -9
15 -9 5 -1 -13 -2 -13 -12 0 -8 11 -12 12 -15 3 -4 -8 -13 -9 -30 -3 -16 6
-33 6 -49 -2 -18 -8 -28 -8 -38 0 -8 7 -17 9 -21 5 -3 -4 -20 -7 -36 -8 l-30
-1 0 58 0 58 195 0 195 0 0 -54z m-820 -97 c0 -5 -7 -9 -15 -9 -15 0 -20 12
-9 23 8 8 24 -1 24 -14z m80 1 c0 -5 -9 -10 -20 -10 -11 0 -20 5 -20 10 0 6 9
10 20 10 11 0 20 -4 20 -10z m430 0 c0 -5 -7 -10 -15 -10 -8 0 -15 5 -15 10 0
6 7 10 15 10 8 0 15 -4 15 -10z m80 0 c0 -5 -9 -10 -20 -10 -11 0 -20 5 -20
10 0 6 9 10 20 10 11 0 20 -4 20 -10z m890 0 c0 -5 -9 -10 -20 -10 -11 0 -20
5 -20 10 0 6 9 10 20 10 11 0 20 -4 20 -10z m-527 -7 c-7 -2 -19 -2 -25 0 -7
3 -2 5 12 5 14 0 19 -2 13 -5z m87 -3 c0 -5 -9 -10 -20 -10 -11 0 -20 5 -20
10 0 6 9 10 20 10 11 0 20 -4 20 -10z m353 3 c-7 -2 -19 -2 -25 0 -7 3 -2 5
12 5 14 0 19 -2 13 -5z m-1103 -297 c0 -11 -19 -15 -25 -6 -3 5 1 10 9 10 9 0
16 -2 16 -4z m80 -6 c0 -5 -9 -10 -20 -10 -11 0 -20 5 -20 10 0 6 9 10 20 10
11 0 20 -4 20 -10z m1243 3 c-14 -5 -19 -113 -5 -113 4 0 14 4 21 9 9 6 22 6
32 0 12 -6 20 -5 25 3 4 6 3 8 -4 4 -6 -3 -13 -2 -17 4 -3 5 -2 10 4 10 5 0
15 2 23 5 7 3 22 -1 32 -8 16 -12 16 -14 2 -14 -9 0 -16 5 -16 11 0 6 -7 0
-16 -12 -8 -12 -20 -19 -26 -16 -7 5 -9 1 -5 -9 3 -10 2 -17 -3 -17 -16 0 -11
-20 8 -38 10 -10 11 -12 2 -7 -12 8 -13 7 -3 -5 13 -17 97 -19 142 -5 17 6 22
5 17 -3 -4 -7 -5 -12 -2 -12 3 0 10 10 17 22 10 18 9 20 -7 14 -17 -7 -17 -6
1 14 10 11 24 20 32 20 10 0 13 18 13 70 l0 69 -127 4 -128 3 158 2 157 2 0
-165 0 -164 -22 8 c-18 7 -22 16 -20 37 l2 29 -15 -25 c-17 -29 -19 -44 -5
-35 6 3 10 1 10 -4 0 -13 -3 -13 -24 -5 -13 5 -14 9 -5 20 8 10 8 14 0 14 -18
0 -13 18 7 23 13 4 11 5 -5 6 -15 1 -23 -5 -24 -16 -1 -10 -2 -22 -4 -28 -1
-5 -3 -14 -3 -19 -1 -5 -10 -2 -19 5 -9 8 -14 10 -11 4 4 -6 -20 -10 -63 -11
-38 -1 -69 2 -69 7 0 5 -9 9 -20 9 -11 0 -20 -4 -20 -10 0 -5 -9 -10 -20 -10
-16 0 -20 6 -19 33 0 27 2 29 9 12 l9 -20 1 20 c1 20 2 20 9 1 8 -20 8 -20 13
0 4 16 0 20 -23 22 -25 2 -29 -1 -29 -23 0 -15 -4 -24 -9 -21 -5 4 -12 0 -14
-6 -3 -7 -6 60 -6 150 l-1 162 38 -1 c20 0 31 -3 25 -6z m127 -33 c0 -5 -4
-10 -10 -10 -5 0 -10 5 -10 10 0 6 5 10 10 10 6 0 10 -4 10 -10z m-610 -4 c0
-11 -19 -15 -25 -6 -3 5 1 10 9 10 9 0 16 -2 16 -4z m80 -6 c0 -5 -9 -10 -20
-10 -11 0 -20 5 -20 10 0 6 9 10 20 10 11 0 20 -4 20 -10z m534 -111 c-8 -14
-40 -15 -52 -2 -11 11 -7 13 22 11 19 -2 32 -6 30 -9z m-1464 -230 c0 -137 -2
-160 -16 -166 -9 -3 -20 0 -25 8 -6 11 -9 11 -9 1 0 -9 -5 -10 -18 -3 -13 7
-23 6 -30 -1 -9 -9 -12 -9 -12 1 0 7 -5 9 -12 5 -18 -11 -88 -12 -88 -2 0 5
-9 4 -19 -2 -25 -13 -41 -13 -21 0 11 7 5 10 -22 10 -21 0 -38 -4 -38 -10 0
-16 -27 -12 -34 5 -4 13 -10 14 -26 5 -20 -11 -20 -8 -20 150 l0 161 195 -1
195 -1 0 -160z m470 110 c0 -5 -9 -9 -20 -9 -11 0 -20 4 -20 8 0 4 9 8 20 9
11 1 20 -2 20 -8z m-87 -6 c-7 -2 -19 -2 -25 0 -7 3 -2 5 12 5 14 0 19 -2 13
-5z m284 -175 c-3 -7 -5 -2 -5 12 0 14 2 19 5 13 2 -7 2 -19 0 -25z m53 -118
c0 -5 -9 -10 -20 -10 -11 0 -20 5 -20 10 0 6 9 10 20 10 11 0 20 -4 20 -10z
m-83 -6 c-3 -3 -12 -4 -19 -1 -8 3 -5 6 6 6 11 1 17 -2 13 -5z m-540 -76 c-3
-7 -5 -2 -5 12 0 14 2 19 5 13 2 -7 2 -19 0 -25z m16 -115 c-7 -2 -19 -2 -25
0 -7 3 -2 5 12 5 14 0 19 -2 13 -5z m87 -3 c0 -5 -9 -10 -20 -10 -11 0 -20 5
-20 10 0 6 9 10 20 10 11 0 20 -4 20 -10z m37 -122 c-3 -7 -5 -2 -5 12 0 14 2
19 5 13 2 -7 2 -19 0 -25z m141 -66 c34 -2 44 -6 51 -24 5 -14 4 -32 -2 -45
-10 -22 -14 -22 -198 -23 l-189 0 -6 26 c-4 14 -2 35 3 47 10 21 16 22 154 21
79 0 163 -1 187 -2z"/>
<path d="M2390 5370 c0 -5 5 -10 10 -10 6 0 10 5 10 10 0 6 -4 10 -10 10 -5 0
-10 -4 -10 -10z"/>
<path d="M1940 5370 c0 -5 5 -10 10 -10 6 0 10 5 10 10 0 6 -4 10 -10 10 -5 0
-10 -4 -10 -10z"/>
<path d="M4629 4883 l-24 -28 28 24 c25 23 32 31 24 31 -2 0 -14 -12 -28 -27z"/>
<path d="M3320 4900 c0 -5 4 -10 9 -10 5 0 16 -3 25 -6 11 -4 16 -1 16 10 0
10 -9 16 -25 16 -14 0 -25 -4 -25 -10z"/>
<path d="M3841 4900 c-1 -8 8 -21 19 -28 17 -10 20 -10 20 3 0 8 -6 15 -14 15
-8 0 -17 6 -19 13 -4 8 -6 7 -6 -3z"/>
<path d="M2396 4734 c-10 -25 1 -29 14 -5 6 12 7 21 1 21 -5 0 -12 -7 -15 -16z"/>
<path d="M2140 3850 c0 -5 5 -10 10 -10 6 0 10 5 10 10 0 6 -4 10 -10 10 -5 0
-10 -4 -10 -10z"/>
<path d="M2170 3830 c-8 -5 -11 -12 -7 -16 4 -4 15 0 24 9 18 18 8 23 -17 7z"/>
<path d="M1997 3707 c3 -5 -1 -13 -8 -18 -11 -7 -11 -9 -1 -9 13 0 42 23 42
34 0 2 -9 4 -19 3 -11 0 -17 -5 -14 -10z"/>
<path d="M1928 3647 c-7 -8 -20 -17 -28 -20 -8 -3 -4 -5 10 -4 29 3 50 14 50
28 0 13 -16 11 -32 -4z"/>
<path d="M1727 3389 c7 -7 15 -10 18 -7 3 3 -2 9 -12 12 -14 6 -15 5 -6 -5z"/>
<path d="M100 4720 c-9 -6 -10 -10 -3 -10 6 0 15 5 18 10 8 12 4 12 -15 0z"/>
<path d="M120 3860 c0 -13 5 -20 13 -17 6 2 12 10 12 17 0 7 -6 15 -12 18 -8
2 -13 -5 -13 -18z"/>
<path d="M2625 3260 c3 -5 11 -10 16 -10 6 0 7 5 4 10 -3 6 -11 10 -16 10 -6
0 -7 -4 -4 -10z"/>
<path d="M1877 3293 c-3 -5 -1 -17 4 -28 6 -17 7 -16 6 8 -1 28 -3 32 -10 20z"/>
<path d="M4173 2960 c0 -47 2 -66 4 -42 2 23 2 61 0 85 -2 23 -4 4 -4 -43z"/>
<path d="M3833 3003 c-20 -7 -16 -43 5 -43 14 0 18 -8 18 -37 -1 -21 -5 -41
-11 -45 -5 -4 10 -7 35 -7 34 1 39 3 20 8 -21 5 -25 12 -25 41 0 29 4 36 25
41 25 7 24 7 -4 8 -20 1 -27 5 -23 15 6 15 -19 26 -40 19z"/>
<path d="M3991 2959 c9 -6 -2 -9 -33 -9 -27 0 -48 -4 -48 -10 0 -5 20 -10 45
-10 25 0 45 5 45 10 0 6 19 10 42 10 54 0 46 6 -16 13 -30 3 -43 1 -35 -4z"/>
<path d="M3910 2901 c0 -10 159 -26 168 -17 3 3 -13 6 -36 6 -23 0 -42 5 -42
10 0 6 -20 10 -45 10 -25 0 -45 -4 -45 -9z"/>
<path d="M3657 2843 c-12 -11 -8 -23 8 -23 8 0 15 7 15 15 0 16 -12 20 -23 8z"/>
<path d="M3720 2810 c0 -5 5 -10 11 -10 5 0 7 5 4 10 -3 6 -8 10 -11 10 -2 0
-4 -4 -4 -10z"/>
<path d="M1110 2005 c0 -30 2 -55 5 -55 3 0 28 11 56 25 27 14 55 23 61 19 7
-5 9 1 4 19 -3 14 -2 28 2 31 14 9 29 -9 28 -33 -1 -21 6 -26 54 -37 81 -19
80 -20 80 36 l0 50 -145 0 -145 0 0 -55z"/>
<path d="M1287 1905 l-28 -35 30 0 c16 0 33 5 36 10 3 6 -2 10 -12 10 -12 0
-9 5 12 16 47 24 53 34 20 34 -22 0 -37 -9 -58 -35z"/>
<path d="M1300 1805 c-10 -12 -10 -19 -2 -27 17 -17 37 5 25 27 -9 15 -11 15
-23 0z"/>
<path d="M1341 1793 c0 -24 1 -25 8 -8 l8 20 5 -20 c5 -16 6 -14 7 8 1 18 -4
27 -14 27 -10 0 -15 -9 -14 -27z"/>
<path d="M1137 1790 c-3 -11 -1 -20 4 -20 5 0 9 8 10 18 0 14 2 14 7 2 11 -24
42 -24 42 0 0 28 -55 29 -63 0z"/>
<path d="M1210 1790 c0 -25 36 -27 44 -2 3 9 4 5 2 -9 -2 -22 1 -25 18 -21 11
3 15 7 8 10 -6 2 -12 10 -12 17 0 20 -21 30 -31 14 -6 -10 -9 -11 -9 -1 0 6
-4 12 -10 12 -5 0 -10 -9 -10 -20z"/>
<path d="M1620 1950 l0 -110 145 0 145 0 0 110 0 110 -145 0 -145 0 0 -110z"/>
<path d="M1633 1792 c-3 -7 -3 -16 1 -19 3 -4 6 0 6 9 0 20 30 19 31 -1 0 -12
3 -11 9 4 8 18 9 18 9 2 1 -10 6 -15 11 -12 18 11 -9 35 -37 33 -14 -2 -28 -8
-30 -16z"/>
<path d="M1713 1791 c2 -27 25 -35 23 -8 -1 11 -6 22 -13 24 -7 3 -11 -4 -10
-16z"/>
<path d="M1749 1788 c10 -27 54 -33 88 -12 12 8 26 14 30 14 4 0 2 -4 -6 -9
-9 -6 -5 -8 14 -8 19 0 23 2 14 8 -11 7 -12 11 -1 17 8 5 -9 9 -43 9 -44 0
-55 -3 -53 -16 2 -8 -5 -17 -14 -19 -13 -2 -18 3 -18 17 0 12 -4 21 -10 21 -6
0 -6 -9 -1 -22z m72 -11 c-10 -9 -11 -8 -5 6 3 10 9 15 12 12 3 -3 0 -11 -7
-18z"/>
<path d="M2422 1943 c7 -9 7 -13 -2 -13 -8 0 -11 -3 -8 -6 7 -7 48 14 48 24 0
4 -11 7 -24 7 -18 0 -22 -3 -14 -12z"/>
<path d="M2463 1910 c-12 -11 -28 -20 -35 -20 -9 0 -9 -3 2 -10 28 -18 -5 -10
-36 9 l-31 19 5 -23 c4 -21 38 -45 65 -45 15 0 60 65 55 80 -2 6 -12 2 -25
-10z"/>
<path d="M2562 1790 c0 -14 2 -19 5 -12 2 6 2 18 0 25 -3 6 -5 1 -5 -13z"/>
<path d="M2347 1784 c4 -11 8 -12 13 -4 6 9 9 9 13 -1 4 -10 6 -9 6 4 1 11 -6
17 -19 17 -14 0 -18 -5 -13 -16z"/>
<path d="M2390 1785 c0 -8 5 -15 10 -15 6 0 10 7 10 15 0 8 -4 15 -10 15 -5 0
-10 -7 -10 -15z"/>
<path d="M2426 1785 c4 -8 8 -15 10 -15 2 0 4 7 4 15 0 8 -4 15 -10 15 -5 0
-7 -7 -4 -15z"/>
<path d="M2470 1785 c0 -8 4 -15 8 -15 5 0 9 7 9 15 0 8 -4 15 -9 15 -4 0 -8
-7 -8 -15z"/>
<path d="M2497 1794 c-8 -8 1 -24 12 -24 4 0 8 7 8 15 0 16 -9 20 -20 9z"/>
<path d="M2530 1785 c0 -8 4 -15 8 -15 5 0 9 7 9 15 0 8 -4 15 -9 15 -4 0 -8
-7 -8 -15z"/>
<path d="M2448 1753 c7 -3 16 -2 19 1 4 3 -2 6 -13 5 -11 0 -14 -3 -6 -6z"/>
<path d="M3870 1980 l0 -60 50 25 c52 26 80 32 80 15 0 -5 6 -7 14 -4 7 3 41
-1 75 -9 l61 -14 0 53 0 54 -140 0 -140 0 0 -60z m150 30 c0 -5 -2 -10 -4 -10
-3 0 -8 5 -11 10 -3 6 -1 10 4 10 6 0 11 -4 11 -10z"/>
<path d="M3986 1931 c5 -5 18 -12 29 -15 11 -3 2 -3 -20 -1 -37 4 -38 4 -12
-6 15 -6 34 -8 42 -5 23 9 6 36 -23 36 -16 0 -22 -4 -16 -9z"/>
<path d="M3932 1889 c3 -8 19 -22 37 -33 l33 -19 31 32 c17 17 26 31 19 31 -6
0 -12 -4 -12 -10 0 -13 -66 -13 -92 1 -16 9 -19 8 -16 -2z"/>
<path d="M3617 1770 c-6 -23 3 -26 21 -8 16 16 15 28 -2 28 -7 0 -16 -9 -19
-20z"/>
<path d="M3540 1765 c0 -8 5 -15 10 -15 6 0 10 7 10 15 0 8 -4 15 -10 15 -5 0
-10 -7 -10 -15z"/>
<path d="M3570 1766 c0 -9 7 -16 16 -16 17 0 14 22 -4 28 -7 2 -12 -3 -12 -12z"/>
<path d="M3540 1726 c7 -7 13 -7 20 0 6 6 3 10 -10 10 -13 0 -16 -4 -10 -10z"/>
<path d="M1166 1653 c-4 -9 -2 -21 4 -27 7 -7 10 -2 10 17 0 31 -5 34 -14 10z"/>
<path d="M1216 1654 c-8 -21 0 -33 21 -30 25 4 27 23 5 35 -16 8 -21 7 -26 -5z"/>
<path d="M1296 1653 c-4 -9 -2 -21 4 -27 7 -7 10 -2 10 17 0 31 -5 34 -14 10z"/>
<path d="M1354 1644 c-1 -13 1 -24 5 -24 9 0 12 38 3 44 -4 2 -8 -7 -8 -20z"/>
<path d="M1145 1649 c-4 -6 -5 -12 -2 -15 2 -3 7 2 10 11 7 17 1 20 -8 4z"/>
<path d="M1190 1640 c0 -11 4 -20 9 -20 5 0 7 9 4 20 -3 11 -7 20 -9 20 -2 0
-4 -9 -4 -20z"/>
<path d="M1270 1633 c0 -14 3 -23 7 -19 10 10 11 46 1 46 -4 0 -8 -12 -8 -27z"/>
<path d="M1323 1635 c-3 -9 -3 -18 -1 -21 3 -3 8 4 11 16 6 23 -1 27 -10 5z"/>
<path d="M1681 1662 c-1 -7 -6 -10 -12 -6 -7 4 -6 -3 2 -17 11 -21 14 -21 17
-6 2 9 1 23 -1 30 -4 9 -6 9 -6 -1z"/>
<path d="M1724 1647 c-7 -21 -7 -21 -15 -2 -7 19 -8 19 -8 -2 -1 -17 5 -23 19
-23 11 0 20 6 20 14 0 8 5 16 12 18 8 3 6 7 -4 11 -12 4 -19 -1 -24 -16z"/>
<path d="M1807 1656 c-7 -18 7 -46 23 -46 4 0 10 10 13 23 6 21 5 21 -8 4 -13
-18 -14 -17 -17 10 -2 24 -4 25 -11 9z"/>
<path d="M1864 1645 c0 -14 4 -25 8 -25 4 0 8 11 8 25 0 14 -4 25 -8 25 -4 0
-8 -11 -8 -25z"/>
<path d="M1780 1633 c0 -14 3 -23 7 -19 10 10 11 46 1 46 -4 0 -8 -12 -8 -27z"/>
<path d="M2990 1070 c0 -5 4 -10 9 -10 6 0 13 5 16 10 3 6 -1 10 -9 10 -9 0
-16 -4 -16 -10z"/>
<path d="M2995 1040 c-3 -6 1 -7 9 -4 18 7 21 14 7 14 -6 0 -13 -4 -16 -10z"/>
<path d="M2790 959 c0 -24 37 -26 43 -1 4 13 5 11 6 -5 1 -28 22 -29 62 -6 36
21 37 31 4 31 -18 0 -25 -6 -25 -19 0 -11 -6 -19 -14 -19 -7 0 -16 8 -19 19
-3 12 -13 19 -31 19 -19 0 -26 -6 -26 -19z"/>
<path d="M2944 964 c3 -8 2 -13 -2 -10 -4 2 -14 1 -21 -3 -9 -6 -4 -8 13 -8
19 0 26 5 26 18 0 11 -5 19 -11 19 -6 0 -8 -7 -5 -16z"/>
<path d="M1220 994 c11 -4 15 -19 14 -67 l-2 -62 -76 -3 -76 -3 0 -39 c0 -36
3 -40 25 -40 21 0 25 5 25 30 0 27 3 30 31 30 24 0 30 -4 25 -15 -14 -37 3
-45 95 -45 l89 0 0 30 c0 23 -4 30 -20 30 -11 0 -20 5 -20 10 0 6 9 10 20 10
18 0 20 7 20 70 l0 70 -82 -1 c-46 -1 -76 -3 -68 -5z m60 -144 c0 -5 -7 -10
-15 -10 -8 0 -15 5 -15 10 0 6 7 10 15 10 8 0 15 -4 15 -10z"/>
<path d="M1094 745 c-8 -21 2 -32 31 -32 15 0 22 4 18 11 -4 6 0 5 9 -2 21
-16 33 1 19 25 -6 10 -11 12 -11 6 0 -9 -7 -10 -26 -3 -33 13 -34 13 -40 -5z
m27 -8 c-1 -12 -15 -9 -19 4 -3 6 1 10 8 8 6 -3 11 -8 11 -12z"/>
<path d="M1210 751 c-26 -6 -38 -41 -14 -41 8 0 14 8 14 18 1 16 1 16 11 -1 5
-9 7 -23 3 -30 -5 -8 -2 -7 9 2 17 13 24 62 10 60 -5 -1 -19 -4 -33 -8z"/>
<path d="M1340 739 c0 -11 -5 -17 -10 -14 -6 4 -8 11 -5 16 4 5 -3 9 -14 9
-10 0 -22 -6 -24 -12 -4 -10 -6 -10 -6 0 -2 23 -21 12 -21 -12 0 -19 4 -23 20
-19 11 3 20 12 20 20 0 8 4 12 10 8 5 -3 7 -12 4 -19 -4 -10 2 -12 19 -9 19 4
23 10 19 29 -5 29 -12 31 -12 3z"/>
<path d="M1591 227 c-1 -24 1 -26 18 -15 11 7 17 16 15 20 -3 5 -9 6 -14 3 -4
-3 -11 1 -13 7 -3 7 -6 1 -6 -15z"/>
<path d="M1663 229 c-13 -5 -23 -13 -23 -18 0 -11 18 -9 44 6 24 13 8 23 -21
12z"/>
<path d="M1560 220 c0 -5 5 -10 10 -10 6 0 10 5 10 10 0 6 -4 10 -10 10 -5 0
-10 -4 -10 -10z"/>
</g>
</svg>
