<svg width="100" height="100" version="1.1" xmlns="http://www.w3.org/2000/svg"><path fill="rgb(5,43,0)" stroke="rgb(5,43,0)" stroke-width="1" opacity="1" d="M 33.5 24 L 34.5 26 L 33.5 24 Z "></path><path fill="rgb(0,0,0)" stroke="rgb(0,0,0)" stroke-width="1" opacity="1" d="M 50.5 5 L 51.5 6 L 59.5 6 L 70.5 10 L 85 22.5 Q 91.9 30.6 94 43.5 L 91 44 L 90.5 42 L 90 44 L 84.5 43 L 83 43.5 L 82.5 42 L 82 44 Q 76.8 46.1 78 41.5 L 75 33 L 72 31.5 L 67.5 26 L 63 24 L 62.5 22 L 60.5 23 L 60.5 21 L 57.5 22 L 53.5 20 L 51.5 21 L 49.5 21 Q 46.9 21.8 48 18.5 L 47 18.5 Q 48.1 21.8 45.5 21 L 44 20.5 L 43.5 22 L 41.5 22 L 38.5 23 L 37 22.5 L 35.5 25 L 33.5 24 Q 30.7 25.3 33 26.5 L 29.5 30 L 27.5 29 L 27 30.5 Q 29.5 32 26 33.5 L 22 41.5 L 22.5 43 L 18.5 44 L 16.5 44 Q 11.1 45.9 12 42.5 L 11 42.5 L 10.5 44 L 8.5 44 Q 5.9 44.8 7 41.5 L 8 37 L 10 36.5 L 9 34.5 L 11 30.5 L 12 27 L 14 26.5 L 13 25.5 L 16 22.5 L 22.5 15 L 34.5 8 L 50.5 5 Z M 46 8 L 43 10 Q 45 13 46 10 L 46 8 Z M 48 8 L 48 9 L 50 9 L 48 8 Z M 41 9 L 40 11 L 42 12 L 41 9 Z M 51 9 Q 49 12 52 11 L 51 9 Z M 56 9 L 56 11 L 58 10 L 56 9 Z M 47 11 L 43 13 L 47 13 L 47 11 Z M 37 12 L 36 15 L 38 15 L 37 12 Z M 52 12 L 53 13 L 54 14 Q 55 11 52 12 Z M 65 12 L 65 15 L 66 15 Q 67 11 65 12 Z M 41 13 L 42 15 Q 43 12 41 13 Z M 60 13 L 61 15 Q 62 12 60 13 Z M 29 14 L 28 16 L 31 16 L 29 14 Z M 40 15 L 39 18 L 41 18 L 40 15 Z M 45 15 L 45 17 L 48 17 Q 49 13 45 15 Z M 55 15 L 56 17 Q 57 14 55 15 Z M 69 15 L 69 16 L 71 16 L 69 15 Z M 28 16 L 26 19 L 28 18 L 28 16 Z M 51 16 L 50 19 L 51 19 L 51 16 Z M 59 16 L 59 18 L 61 17 L 59 16 Z M 63 17 L 62 19 L 64 20 L 63 17 Z M 70 17 L 69 20 L 71 20 L 70 17 Z M 29 19 Q 27 22 30 21 L 29 19 Z M 36 19 L 35 21 L 37 22 L 36 19 Z M 39 19 L 40 22 L 40 20 L 43 20 L 39 19 Z M 74 19 L 71 21 L 74 21 L 74 19 Z M 25 20 L 22 22 L 25 22 L 25 20 Z M 65 20 Q 63 23 66 22 L 65 20 Z M 18 21 L 18 23 L 21 23 Q 22 19 18 21 Z M 32 21 Q 30 24 33 23 L 32 21 Z M 22 23 L 22 25 Q 21 28 25 27 L 25 26 Q 22 27 23 23 L 22 23 Z M 27 23 L 27 25 L 29 24 L 27 23 Z M 69 23 L 69 24 L 71 24 L 69 23 Z M 76 23 L 77 25 L 79 24 L 76 23 Z M 82 23 Q 80 26 83 25 L 82 23 Z M 80 25 L 79 27 L 81 26 L 80 25 Z M 17 26 L 14 28 L 17 28 L 17 26 Z M 21 26 L 19 28 L 21 28 L 21 26 Z M 76 29 L 76 31 L 78 30 L 76 29 Z M 81 30 L 82 34 L 83 31 L 81 30 Z M 79 31 L 77 33 L 79 33 L 79 31 Z M 17 32 L 15 35 L 17 34 L 17 32 Z M 80 33 Q 78 36 81 35 L 80 33 Z M 23 34 L 22 37 L 23 37 L 23 34 Z M 14 35 L 15 37 Q 16 34 14 35 Z M 18 35 L 18 38 L 19 38 Q 20 34 18 35 Z M 17 37 L 16 39 L 18 40 L 17 37 Z M 80 37 L 79 39 L 82 40 L 80 37 Z M 83 37 L 83 39 L 85 38 L 83 37 Z M 11 38 L 9 40 L 11 40 L 11 38 Z M 85 38 L 85 40 L 87 39 L 85 38 Z M 16 41 L 16 43 L 18 42 L 16 41 Z "></path><path fill="rgb(0,0,0)" stroke="rgb(0,0,0)" stroke-width="1" opacity="1" d="M 7 49 L 21.5 49 Q 22.5 49 22 53.5 L 23 56.5 L 22.5 58 Q 24.8 57.3 24 59.5 L 24 61.5 L 27 64.5 L 33.5 72 Q 40.6 78.9 56.5 77 Q 67.4 74.4 73 66.5 L 77 59.5 L 78 50.5 L 79.5 49 L 94 49 L 94 55.5 L 89 57.5 L 93 58 Q 94.3 61 90.5 60 L 90.5 61 Q 93.1 60.2 92 63.5 L 89 65.5 L 90 68.5 L 88 68.5 Q 88.8 72.3 86.5 73 L 85 73.5 L 85.5 75 L 82 75.5 L 84 76.5 L 82 77.5 Q 84.8 79.3 80.5 81 L 78.5 80 L 78 81.5 L 78.5 83 Q 77.3 80.8 76 83.5 L 75.5 85 L 74.5 83 L 72.5 87 L 70.5 88 L 69 87.5 L 69 89 L 65 89 Q 66.1 91.7 63.5 91 L 61 90 Q 62.1 92.7 59.5 92 L 59.5 90 Q 56.9 89.3 58 92 L 55.5 92 Q 54.3 94.3 49.5 93 L 47.5 93 L 45 92.5 Q 47.3 91.3 44.5 90 L 44 92 Q 40.3 93.5 41 90.5 L 37.5 91 L 36 90.5 L 36.5 89 L 34.5 90 L 33.5 88 L 31.5 89 L 29.5 86 L 27.5 86 L 23 83.5 L 23.5 82 Q 19.5 82.5 19 79.5 Q 19.8 77.3 17.5 78 L 16 74 L 13 72.5 L 11 65.5 L 8 61.5 L 7 49 Z M 16 52 L 16 53 L 18 53 L 16 52 Z M 20 52 L 18 54 L 20 54 L 20 52 Z M 83 52 L 84 53 L 85 54 Q 86 51 83 52 Z M 87 52 Q 85 55 88 54 L 87 52 Z M 91 52 L 91 53 L 93 53 L 91 52 Z M 81 53 L 82 55 Q 83 52 81 53 Z M 13 56 L 13 58 L 15 57 L 13 56 Z M 17 57 L 14 64 L 12 64 L 14 68 L 17 69 L 21 68 Q 23 67 22 64 Q 21 60 17 61 L 17 57 Z M 82 58 L 80 61 Q 78 65 82 64 Q 83 67 85 63 Q 87 62 86 65 Q 84 66 87 67 L 88 63 L 88 60 L 83 63 L 82 61 Q 84 59 82 58 Z M 79 64 L 76 69 L 76 70 L 78 69 L 83 72 L 86 71 L 86 70 Q 82 71 83 69 L 82 69 L 79 64 Z M 25 65 Q 23 68 26 67 L 25 65 Z M 82 66 L 82 67 L 84 67 L 82 66 Z M 24 68 L 23 69 L 20 69 Q 21 72 18 71 L 18 74 L 21 73 L 23 74 Q 28 76 26 70 L 24 68 Z M 29 71 L 24 80 L 28 82 L 26 78 L 30 79 Q 31 76 29 77 L 29 76 L 32 77 Q 33 73 31 74 L 29 71 Z M 71 71 L 72 72 L 71 74 L 72 78 Q 73 80 78 79 Q 82 77 79 75 L 77 78 L 73 76 L 75 73 Q 76 69 71 71 Z M 80 73 L 80 76 L 81 76 Q 82 72 80 73 Z M 20 75 L 20 76 L 22 76 L 20 75 Z M 68 75 Q 66 78 62 78 L 65 78 L 69 85 L 72 84 L 73 82 L 72 82 L 69 82 L 71 79 L 70 79 L 67 79 L 70 77 L 68 75 Z M 33 77 Q 34 80 32 79 L 32 81 L 30 84 Q 29 86 32 85 L 34 81 L 35 88 L 39 82 Q 40 78 37 79 L 37 82 L 35 80 Q 36 76 33 77 Z M 56 79 L 55 81 L 52 80 L 53 89 Q 56 90 55 88 L 55 86 Q 58 87 57 84 L 54 84 L 57 82 L 56 79 Z M 61 79 L 58 81 L 62 88 L 63 88 L 62 84 L 65 83 L 65 81 L 63 82 L 61 83 Q 60 80 63 81 Q 64 78 61 79 Z M 44 80 L 42 82 L 44 82 L 44 80 Z M 46 80 L 45 89 L 50 90 L 50 89 L 51 87 L 47 88 Q 46 85 50 86 Q 51 83 48 84 L 48 83 Q 51 84 50 82 L 51 80 L 49 81 L 46 80 Z M 41 81 L 39 85 L 41 85 L 41 81 Z M 27 83 L 27 85 L 29 84 L 27 83 Z M 38 86 L 38 88 L 40 87 L 38 86 Z M 41 87 Q 39 90 42 89 L 41 87 Z M 59 87 L 57 89 L 59 89 L 59 87 Z "></path><path fill="rgb(0,0,0)" stroke="rgb(0,0,0)" stroke-width="1" opacity="1" d="M 16.5 63 Q 21.3 61.3 20 65.5 L 18.5 67 L 15 65.5 L 16.5 63 Z "></path><path fill="rgb(0,0,0)" stroke="rgb(0,0,0)" stroke-width="1" opacity="1" d="M 23.5 70 L 24.5 72 L 22 71.5 L 23.5 70 Z "></path><path fill="rgb(5,5,51)" stroke="rgb(5,5,51)" stroke-width="1" opacity="1" d="M 85.5 65 L 86.5 67 L 85.5 65 Z "></path><path fill="rgb(5,5,51)" stroke="rgb(5,5,51)" stroke-width="1" opacity="1" d="M 89.5 65 L 90.5 67 L 89.5 65 Z "></path><path fill="rgb(5,5,51)" stroke="rgb(5,5,51)" stroke-width="1" opacity="1" d="M 21.5 66 L 20.5 68 L 21.5 66 Z "></path><path fill="rgb(5,5,51)" stroke="rgb(5,5,51)" stroke-width="1" opacity="1" d="M 78.5 80 L 79.5 82 L 78.5 80 Z "></path><path fill="rgb(5,5,51)" stroke="rgb(5,5,51)" stroke-width="1" opacity="1" d="M 67.5 83 L 68.5 85 L 67.5 83 Z "></path><path fill="rgb(5,5,51)" stroke="rgb(5,5,51)" stroke-width="1" opacity="1" d="M 40.5 90 L 39.5 92 L 40.5 90 Z "></path><path fill="rgb(217,224,227)" stroke="rgb(217,224,227)" stroke-width="1" opacity="1" d="M 22.5 14 L 21.5 16 L 22.5 14 Z "></path><path fill="rgb(217,224,227)" stroke="rgb(217,224,227)" stroke-width="1" opacity="1" d="M 22.5 69 L 22 70.5 L 21.5 72 L 21 70.5 L 22.5 69 Z "></path><path fill="rgb(217,224,227)" stroke="rgb(217,224,227)" stroke-width="1" opacity="1" d="M 24.5 69 L 25.5 71 L 24.5 69 Z "></path><path fill="rgb(217,224,227)" stroke="rgb(217,224,227)" stroke-width="1" opacity="1" d="M 74.5 71 L 73.5 73 L 74.5 71 Z "></path><path fill="rgb(217,224,227)" stroke="rgb(217,224,227)" stroke-width="1" opacity="1" d="M 29.5 74 L 30.5 76 L 29.5 74 Z "></path><path fill="rgb(217,224,227)" stroke="rgb(217,224,227)" stroke-width="1" opacity="1" d="M 26.5 76 L 26 77.5 L 24.5 80 L 25 78.5 L 26.5 76 Z "></path><path fill="rgb(217,224,227)" stroke="rgb(217,224,227)" stroke-width="1" opacity="1" d="M 84.5 77 L 83.5 79 L 84.5 77 Z "></path><path fill="rgb(217,224,227)" stroke="rgb(217,224,227)" stroke-width="1" opacity="1" d="M 60.5 80 L 59.5 82 L 60.5 80 Z "></path><path fill="rgb(217,224,227)" stroke="rgb(217,224,227)" stroke-width="1" opacity="1" d="M 61.5 83 L 60.5 85 L 61.5 83 Z "></path><path fill="rgb(217,224,227)" stroke="rgb(217,224,227)" stroke-width="1" opacity="1" d="M 49.5 93 L 53 93.5 L 49.5 94 L 49.5 93 Z "></path><path fill="rgb(255,255,255)" stroke="rgb(255,255,255)" stroke-width="1" opacity="1" d="M 0 0 L 100 0 L 100 100 L 0 100 L 0 0 Z M 43 5 Q 30 7 23 14 Q 10 24 6 43 L 7 44 L 23 44 L 27 34 L 37 25 L 50 21 L 61 23 L 69 28 L 77 41 L 78 44 L 94 44 Q 93 31 86 23 Q 78 12 66 7 Q 57 3 43 5 Z M 6 49 L 7 61 L 14 76 L 27 87 L 41 93 Q 46 92 48 94 Q 69 94 80 83 Q 92 73 95 54 Q 95 49 95 49 L 78 49 Q 78 60 72 66 Q 73 68 70 67 L 70 69 L 68 69 L 68 71 L 61 75 L 52 77 Q 41 77 35 72 Q 26 66 23 56 L 23 49 L 6 49 Z "></path><path fill="rgb(255,255,255)" stroke="rgb(255,255,255)" stroke-width="1" opacity="1" d="M 15.5 62 L 14.5 64 L 15.5 62 Z "></path><path fill="rgb(255,255,255)" stroke="rgb(255,255,255)" stroke-width="1" opacity="1" d="M 79.5 68 L 80.5 70 L 79.5 68 Z "></path><path fill="rgb(255,255,255)" stroke="rgb(255,255,255)" stroke-width="1" opacity="1" d="M 20.5 71 L 19.5 73 L 20.5 71 Z "></path><path fill="rgb(255,255,255)" stroke="rgb(255,255,255)" stroke-width="1" opacity="1" d="M 28.5 74 L 27.5 76 L 28.5 74 Z "></path><path fill="rgb(255,255,255)" stroke="rgb(255,255,255)" stroke-width="1" opacity="1" d="M 33.5 78 L 34.5 80 L 33.5 78 Z "></path><path fill="rgb(255,255,255)" stroke="rgb(255,255,255)" stroke-width="1" opacity="1" d="M 66.5 79 L 67.5 81 L 66.5 79 Z "></path><path fill="rgb(255,255,255)" stroke="rgb(255,255,255)" stroke-width="1" opacity="1" d="M 68.5 82 L 69.5 84 L 68.5 82 Z "></path><path fill="rgb(255,255,255)" stroke="rgb(255,255,255)" stroke-width="1" opacity="1" d="M 53.5 85 L 54 87.5 L 53 87.5 L 53.5 85 Z "></path><path fill="rgb(73,76,73)" stroke="rgb(73,76,73)" stroke-width="1" opacity="1" d="M 45.5 5 L 49 5.5 L 45.5 6 L 45.5 5 Z "></path><path fill="rgb(73,76,73)" stroke="rgb(73,76,73)" stroke-width="1" opacity="1" d="M 51.5 5 L 56 5.5 L 51.5 6 L 51.5 5 Z "></path><path fill="rgb(73,76,73)" stroke="rgb(73,76,73)" stroke-width="1" opacity="1" d="M 71.5 10 L 72.5 12 L 71.5 10 Z "></path><path fill="rgb(73,76,73)" stroke="rgb(73,76,73)" stroke-width="1" opacity="1" d="M 24.5 13 L 23.5 15 L 24.5 13 Z "></path><path fill="rgb(73,76,73)" stroke="rgb(73,76,73)" stroke-width="1" opacity="1" d="M 80.5 17 L 84.5 22 L 80.5 17 Z "></path><path fill="rgb(73,76,73)" stroke="rgb(73,76,73)" stroke-width="1" opacity="1" d="M 15.5 22 L 14.5 24 L 15.5 22 Z "></path><path fill="rgb(73,76,73)" stroke="rgb(73,76,73)" stroke-width="1" opacity="1" d="M 64.5 24 L 65.5 26 L 64.5 24 Z "></path><path fill="rgb(73,76,73)" stroke="rgb(73,76,73)" stroke-width="1" opacity="1" d="M 33.5 26 L 32.5 28 L 33.5 26 Z "></path><path fill="rgb(73,76,73)" stroke="rgb(73,76,73)" stroke-width="1" opacity="1" d="M 67.5 26 L 71.5 31 L 67.5 26 Z "></path><path fill="rgb(73,76,73)" stroke="rgb(73,76,73)" stroke-width="1" opacity="1" d="M 28.5 31 L 26.5 34 L 28.5 31 Z "></path><path fill="rgb(73,76,73)" stroke="rgb(73,76,73)" stroke-width="1" opacity="1" d="M 73.5 33 L 74.5 35 L 73.5 33 Z "></path><path fill="rgb(73,76,73)" stroke="rgb(73,76,73)" stroke-width="1" opacity="1" d="M 6.5 49 L 7 53.5 L 6 53.5 L 6.5 49 Z "></path><path fill="rgb(73,76,73)" stroke="rgb(73,76,73)" stroke-width="1" opacity="1" d="M 81.5 59 L 82 61.5 L 80.5 64 L 81 62.5 L 80 60.5 L 81.5 59 Z "></path><path fill="rgb(73,76,73)" stroke="rgb(73,76,73)" stroke-width="1" opacity="1" d="M 15.5 61 L 19 62.5 L 17.5 63 L 15.5 62 L 15.5 64 Q 12.5 62.5 15.5 61 Z "></path><path fill="rgb(73,76,73)" stroke="rgb(73,76,73)" stroke-width="1" opacity="1" d="M 21.5 63 L 21.5 66 Q 18.5 64.5 21.5 63 Z "></path><path fill="rgb(73,76,73)" stroke="rgb(73,76,73)" stroke-width="1" opacity="1" d="M 78.5 64 L 79.5 66 L 78.5 64 Z "></path><path fill="rgb(73,76,73)" stroke="rgb(73,76,73)" stroke-width="1" opacity="1" d="M 27.5 65 L 28.5 67 L 27.5 65 Z "></path><path fill="rgb(73,76,73)" stroke="rgb(73,76,73)" stroke-width="1" opacity="1" d="M 15.5 66 L 14.5 68 L 15.5 66 Z "></path><path fill="rgb(73,76,73)" stroke="rgb(73,76,73)" stroke-width="1" opacity="1" d="M 77.5 66 L 77.5 69 Q 74.5 67.5 77.5 66 Z "></path><path fill="rgb(73,76,73)" stroke="rgb(73,76,73)" stroke-width="1" opacity="1" d="M 71.5 67 L 68.5 71 L 71.5 67 Z "></path><path fill="rgb(73,76,73)" stroke="rgb(73,76,73)" stroke-width="1" opacity="1" d="M 24.5 68 Q 27.5 69.5 24.5 71 L 24.5 68 Z "></path><path fill="rgb(73,76,73)" stroke="rgb(73,76,73)" stroke-width="1" opacity="1" d="M 80.5 68 L 79.5 70 L 80.5 68 Z "></path><path fill="rgb(73,76,73)" stroke="rgb(73,76,73)" stroke-width="1" opacity="1" d="M 21.5 69 L 20.5 72 L 22.5 73 Q 23.7 70.8 25 73.5 L 21.5 73 L 19.5 72 L 18.5 74 L 18 72.5 L 21.5 69 Z "></path><path fill="rgb(73,76,73)" stroke="rgb(73,76,73)" stroke-width="1" opacity="1" d="M 32.5 70 L 33.5 72 L 32.5 70 Z "></path><path fill="rgb(73,76,73)" stroke="rgb(73,76,73)" stroke-width="1" opacity="1" d="M 83.5 70 L 84 72 L 82 71.5 L 83.5 70 Z "></path><path fill="rgb(73,76,73)" stroke="rgb(73,76,73)" stroke-width="1" opacity="1" d="M 73.5 71 L 74.5 73 L 72 72.5 L 73.5 71 Z "></path><path fill="rgb(73,76,73)" stroke="rgb(73,76,73)" stroke-width="1" opacity="1" d="M 87.5 72 L 86.5 74 L 87.5 72 Z "></path><path fill="rgb(73,76,73)" stroke="rgb(73,76,73)" stroke-width="1" opacity="1" d="M 13.5 73 L 14.5 75 L 13.5 73 Z "></path><path fill="rgb(73,76,73)" stroke="rgb(73,76,73)" stroke-width="1" opacity="1" d="M 28.5 73 L 28.5 76 L 26 75.5 L 28.5 73 Z "></path><path fill="rgb(73,76,73)" stroke="rgb(73,76,73)" stroke-width="1" opacity="1" d="M 85.5 75 L 84.5 77 L 85.5 75 Z "></path><path fill="rgb(73,76,73)" stroke="rgb(73,76,73)" stroke-width="1" opacity="1" d="M 73.5 76 Q 76.5 77.5 73.5 79 Q 70.5 77.5 73.5 76 Z "></path><path fill="rgb(73,76,73)" stroke="rgb(73,76,73)" stroke-width="1" opacity="1" d="M 16.5 77 L 21.5 83 L 16.5 77 Z "></path><path fill="rgb(73,76,73)" stroke="rgb(73,76,73)" stroke-width="1" opacity="1" d="M 70.5 78 L 71 79.5 L 67 82.5 Q 70.1 80.8 68.5 79 L 70 79.5 L 70.5 78 Z "></path><path fill="rgb(73,76,73)" stroke="rgb(73,76,73)" stroke-width="1" opacity="1" d="M 32.5 79 L 33.5 81 L 32.5 79 Z "></path><path fill="rgb(73,76,73)" stroke="rgb(73,76,73)" stroke-width="1" opacity="1" d="M 60.5 79 L 63 80.5 L 60.5 82 L 60.5 79 Z "></path><path fill="rgb(73,76,73)" stroke="rgb(73,76,73)" stroke-width="1" opacity="1" d="M 27.5 80 L 26.5 82 L 27.5 80 Z "></path><path fill="rgb(73,76,73)" stroke="rgb(73,76,73)" stroke-width="1" opacity="1" d="M 31.5 81 L 32.5 83 L 31.5 81 Z "></path><path fill="rgb(73,76,73)" stroke="rgb(73,76,73)" stroke-width="1" opacity="1" d="M 35.5 81 L 36.5 83 Q 33.7 83.7 35.5 81 Z "></path><path fill="rgb(73,76,73)" stroke="rgb(73,76,73)" stroke-width="1" opacity="1" d="M 45.5 81 L 46.5 83 L 49.5 81 L 50 83 L 46.5 84 L 45.5 81 Z "></path><path fill="rgb(73,76,73)" stroke="rgb(73,76,73)" stroke-width="1" opacity="1" d="M 52.5 81 L 53 84.5 L 52 84.5 L 52.5 81 Z "></path><path fill="rgb(73,76,73)" stroke="rgb(73,76,73)" stroke-width="1" opacity="1" d="M 62.5 82 Q 64.8 81.3 64 83.5 L 62.5 82 Z "></path><path fill="rgb(73,76,73)" stroke="rgb(73,76,73)" stroke-width="1" opacity="1" d="M 30.5 83 L 31.5 85 Q 28.7 85.7 30.5 83 Z "></path><path fill="rgb(73,76,73)" stroke="rgb(73,76,73)" stroke-width="1" opacity="1" d="M 77.5 83 L 76.5 85 L 77.5 83 Z "></path><path fill="rgb(73,76,73)" stroke="rgb(73,76,73)" stroke-width="1" opacity="1" d="M 24.5 84 L 25.5 86 L 24.5 84 Z "></path><path fill="rgb(73,76,73)" stroke="rgb(73,76,73)" stroke-width="1" opacity="1" d="M 34.5 84 L 35.5 86 L 37 85.5 Q 35.5 88.5 34 85.5 L 34.5 84 Z "></path><path fill="rgb(73,76,73)" stroke="rgb(73,76,73)" stroke-width="1" opacity="1" d="M 48.5 84 Q 50.8 83.3 50 85.5 L 48.5 84 Z "></path><path fill="rgb(73,76,73)" stroke="rgb(73,76,73)" stroke-width="1" opacity="1" d="M 54.5 84 L 57 84.5 Q 57.8 86.8 55.5 86 L 54.5 84 Z "></path><path fill="rgb(73,76,73)" stroke="rgb(73,76,73)" stroke-width="1" opacity="1" d="M 61.5 84 L 61 85.5 L 60.5 87 L 60 85.5 L 61.5 84 Z "></path><path fill="rgb(73,76,73)" stroke="rgb(73,76,73)" stroke-width="1" opacity="1" d="M 74.5 85 L 73.5 87 L 74.5 85 Z "></path><path fill="rgb(174,174,175)" stroke="rgb(174,174,175)" stroke-width="1" opacity="1" d="M 20.5 16 L 17.5 20 L 20.5 16 Z "></path><path fill="rgb(174,174,175)" stroke="rgb(174,174,175)" stroke-width="1" opacity="1" d="M 31.5 28 L 29.5 31 L 31.5 28 Z "></path><path fill="rgb(174,174,175)" stroke="rgb(174,174,175)" stroke-width="1" opacity="1" d="M 19.5 61 L 22 64.5 L 19.5 68 L 19 66.5 Q 23 64.5 19 62.5 L 19.5 61 Z "></path><path fill="rgb(174,174,175)" stroke="rgb(174,174,175)" stroke-width="1" opacity="1" d="M 84.5 61 L 85 62.5 L 83 63.5 L 84.5 61 Z "></path><path fill="rgb(174,174,175)" stroke="rgb(174,174,175)" stroke-width="1" opacity="1" d="M 86.5 61 L 87.5 63 Q 84.7 63.7 86.5 61 Z "></path><path fill="rgb(174,174,175)" stroke="rgb(174,174,175)" stroke-width="1" opacity="1" d="M 78.5 65 L 79 68.5 L 78 68.5 L 78.5 65 Z "></path><path fill="rgb(174,174,175)" stroke="rgb(174,174,175)" stroke-width="1" opacity="1" d="M 16.5 67 Q 18.8 66.3 18 68.5 L 16.5 67 Z "></path><path fill="rgb(174,174,175)" stroke="rgb(174,174,175)" stroke-width="1" opacity="1" d="M 29.5 67 L 31.5 70 L 29.5 67 Z "></path><path fill="rgb(174,174,175)" stroke="rgb(174,174,175)" stroke-width="1" opacity="1" d="M 23.5 68 L 24 69.5 L 22 70.5 L 23.5 68 Z "></path><path fill="rgb(174,174,175)" stroke="rgb(174,174,175)" stroke-width="1" opacity="1" d="M 22.5 72 L 25 72.5 Q 22.9 75.8 22.5 72 Z "></path><path fill="rgb(174,174,175)" stroke="rgb(174,174,175)" stroke-width="1" opacity="1" d="M 27.5 76 L 29.5 79 L 26 77.5 L 27.5 76 Z "></path><path fill="rgb(174,174,175)" stroke="rgb(174,174,175)" stroke-width="1" opacity="1" d="M 45.5 76 L 48 76.5 L 45.5 77 L 45.5 76 Z "></path><path fill="rgb(174,174,175)" stroke="rgb(174,174,175)" stroke-width="1" opacity="1" d="M 78.5 76 L 78 77.5 L 77.5 79 L 77 77.5 L 78.5 76 Z "></path><path fill="rgb(174,174,175)" stroke="rgb(174,174,175)" stroke-width="1" opacity="1" d="M 67.5 77 L 66.5 79 L 65 78.5 L 67.5 77 Z "></path><path fill="rgb(174,174,175)" stroke="rgb(174,174,175)" stroke-width="1" opacity="1" d="M 33.5 79 L 32.5 81 L 33.5 79 Z "></path><path fill="rgb(174,174,175)" stroke="rgb(174,174,175)" stroke-width="1" opacity="1" d="M 38.5 79 L 39 81 L 37 80.5 L 38.5 79 Z "></path><path fill="rgb(174,174,175)" stroke="rgb(174,174,175)" stroke-width="1" opacity="1" d="M 82.5 79 L 80.5 82 L 82.5 79 Z "></path><path fill="rgb(174,174,175)" stroke="rgb(174,174,175)" stroke-width="1" opacity="1" d="M 34.5 81 L 37 84.5 L 35.5 85 Q 33 84 34.5 81 Z "></path><path fill="rgb(174,174,175)" stroke="rgb(174,174,175)" stroke-width="1" opacity="1" d="M 46 81 L 49 81.5 L 46 83.5 L 49 85.5 L 45 86 L 46 81 Z "></path><path fill="rgb(174,174,175)" stroke="rgb(174,174,175)" stroke-width="1" opacity="1" d="M 53.5 81 L 54 83.5 L 53 83.5 L 53.5 81 Z "></path><path fill="rgb(174,174,175)" stroke="rgb(174,174,175)" stroke-width="1" opacity="1" d="M 55.5 84 L 54.5 86 L 55.5 84 Z "></path></svg>