<svg id="Layer_1" data-name="Layer 1" xmlns="http://www.w3.org/2000/svg" viewBox="0 0 469.5731 454.73097"><defs><style>.cls-1{fill:#a8deed;}</style></defs><title>OFX</title><path d="M38.37653,301.01929l-2.16823-6.35358a6.1781,6.1781,0,0,1,.7132-.35489c.26331-.11906.52088-.21751.77045-.30451.24727-.08472.50714-.16027.77388-.22667a7.62642,7.62642,0,0,1,.767-.14882L44.753,309.809a6.81429,6.81429,0,0,1-.67772.34573,7.53336,7.53336,0,0,1-.7361.28848c-.24842.087-.52088.16714-.81051.23812a7.91517,7.91517,0,0,1-.79792.16256L39.56024,304.488l-21.411,7.306a14.06094,14.06094,0,0,1-.68344-1.66223,15.83186,15.83186,0,0,1-.50142-1.8019Z" transform="translate(-16.96439 -20.80296)"/><path d="M46.82737,315.06127c.16485.24041.324.49684.47737.77159.15226.27017.2965.54492.427.82654.13165.28391.25185.5701.36175.86317s.20378.577.28277.85859l-9.6357,4.48987,4.64327,9.962,9.63455-4.49215c.1534.22209.30909.46478.4602.73724.1534.27246.29536.5495.42815.82883q.19577.42586.36863.8792c.11447.30222.21293.59529.28848.87462L31.16207,342.56827q-.2301-.32627-.4625-.735c-.15225-.27017-.29993-.56094-.44188-.86317-.13165-.2839-.25415-.57468-.36863-.87919a7.94164,7.94164,0,0,1-.27475-.84257l10.83887-5.05081-4.64327-9.95967L24.97105,329.291c-.16256-.24269-.32054-.49455-.46936-.75327-.14654-.2633-.29193-.54492-.43388-.84943-.13165-.28162-.253-.57469-.36862-.87462a8.76166,8.76166,0,0,1-.27361-.84257Z" transform="translate(-16.96439 -20.80296)"/><path d="M58.41492,338.5638l7.35184,12.13476a11.00172,11.00172,0,0,1-1.2959.909c-.22438.13508-.46364.27475-.71435.41441a5.263,5.263,0,0,1-.72351.3297l-5.45148-9.00033-6.32611,3.83733,4.35249,7.1847a7.78864,7.78864,0,0,1-.60445.49455c-.22209.16027-.44647.31138-.67085.44875-.22666.13738-.46707.26788-.72579.3961a7.33734,7.33734,0,0,1-.73267.31825l-4.35363-7.18928-7.55561,4.57916,5.60145,9.24761a11.571,11.571,0,0,1-1.2959.909c-.22438.13509-.46364.27246-.71435.41213a5.354,5.354,0,0,1-.7235.332l-7.50066-12.37747Z" transform="translate(-16.96439 -20.80296)"/><path d="M62.26027,389.46571a11.02945,11.02945,0,0,1-2.39375-4.32731,9.216,9.216,0,0,1-.0996-4.37767,12.18769,12.18769,0,0,1,1.90836-4.26549,20.27542,20.27542,0,0,1,3.63929-3.97928,20.47965,20.47965,0,0,1,4.50245-2.965,12.25355,12.25355,0,0,1,4.51505-1.20889,9.40969,9.40969,0,0,1,4.32044.77845,12.19455,12.19455,0,0,1,6.29176,7.37931,9.35638,9.35638,0,0,1,.08243,4.38684,11.9837,11.9837,0,0,1-1.91638,4.254,22.55163,22.55163,0,0,1-8.144,6.942,11.96549,11.96549,0,0,1-4.50475,1.22263,9.19748,9.19748,0,0,1-4.30555-.78761A11.03432,11.03432,0,0,1,62.26027,389.46571Zm2.40406-2.04689a6.50359,6.50359,0,0,0,2.5483,1.90951,5.89338,5.89338,0,0,0,2.95356.33886,9.96083,9.96083,0,0,0,3.27066-1.09442,20.94021,20.94021,0,0,0,6.436-5.48583,9.71989,9.71989,0,0,0,1.59355-3.05659,5.89581,5.89581,0,0,0,.11906-2.96042,7.23688,7.23688,0,0,0-4.02966-4.72569,5.90587,5.90587,0,0,0-2.93867-.348,9.71329,9.71329,0,0,0-3.27181,1.08984,20.93792,20.93792,0,0,0-6.43715,5.48812,9.93155,9.93155,0,0,0-1.5924,3.05659,5.85248,5.85248,0,0,0-.13394,2.96958A6.50806,6.50806,0,0,0,64.66433,387.41882Z" transform="translate(-16.96439 -20.80296)"/><path d="M94.21019,385.48413c.29536.20835.63651.46478,1.02917.76472q.58555.4499,1.21462.96391.62506.51172,1.24095,1.03489c.40984.3526.79907.69832,1.16769,1.04176a17.27525,17.27525,0,0,1,2.47274,2.85281,8.36918,8.36918,0,0,1,1.34857,3.12757,6.83874,6.83874,0,0,1-.19,3.33592,9.02447,9.02447,0,0,1-2.15678,3.46413,9.19641,9.19641,0,0,1-3.47215,2.4819,7.31229,7.31229,0,0,1-3.455.43273,8.61045,8.61045,0,0,1-3.26494-1.10815,15.589,15.589,0,0,1-2.90433-2.14992q-.498-.46364-.86775-.83341c-.245-.245-.50142-.52431-.76472-.838L79.23406,406.878a14.57407,14.57407,0,0,1-1.41267-1.17226c-.21064-.19462-.42815-.40984-.65711-.63879a7.05263,7.05263,0,0,1-.60674-.69146Zm-6.41883,12.23551q.3692.44646.66054.76472c.19233.21522.49112.50828.89294.88377a10.32577,10.32577,0,0,0,1.77442,1.33712,5.20885,5.20885,0,0,0,2.00567.72122,4.35246,4.35246,0,0,0,2.14992-.277,6.26881,6.26881,0,0,0,2.25523-1.65079,6.08694,6.08694,0,0,0,1.36459-2.11786,4.1345,4.1345,0,0,0,.198-2.02628,4.78685,4.78685,0,0,0-.8025-1.93011,10.95673,10.95673,0,0,0-1.58667-1.82708,22.78192,22.78192,0,0,0-1.779-1.51342Z" transform="translate(-16.96439 -20.80296)"/><path d="M110.5326,400.213l11.26244,8.62713a11.24229,11.24229,0,0,1-.87462,1.3188c-.16256.21064-.33314.42357-.51745.64566a5.30981,5.30981,0,0,1-.55178.57239l-8.35239-6.39937-4.499,5.87506,6.67183,5.108a7.20854,7.20854,0,0,1-.38465.67772c-.14882.23353-.30222.45333-.46249.66168-.16256.21065-.33657.42358-.53118.63422a6.87472,6.87472,0,0,1-.56553.56323l-6.67069-5.11034-5.37249,7.01527,8.58134,6.57109a10.77253,10.77253,0,0,1-.87691,1.3188c-.15913.21293-.332.42586-.51516.648a5.49649,5.49649,0,0,1-.55178.57011L94.833,420.71159Z" transform="translate(-16.96439 -20.80296)"/><path d="M127.25683,412.66372a8.43878,8.43878,0,0,1,.77731.34572c.26788.13738.51515.27246.73953.40755.22438.13737.45792.29535.70176.47165.24384.174.46364.35489.66512.52889l-.48768,22.4104,10.08788-16.56281c.27017.10761.54492.23354.82311.37549s.54835.29307.81623.45563c.22324.13737.45334.29077.68688.4602.23353.17172.44761.34115.648.51974L129.28425,444.1294c-.24957-.09388-.50829-.21293-.77617-.34573-.26788-.13738-.514-.27475-.73839-.40983-.22552-.13738-.45906-.29307-.7029-.46937a8.34526,8.34526,0,0,1-.66512-.53118l.40068-22.33484L116.7717,436.50739c-.24956-.09616-.50828-.20835-.77731-.34344-.26788-.13737-.52431-.28162-.77044-.42815-.26559-.16256-.51974-.33428-.76243-.50829a6.88763,6.88763,0,0,1-.63422-.51286Z" transform="translate(-16.96439 -20.80296)"/><path d="M159.42884,430.32782l13.11242,5.41485a10.7158,10.7158,0,0,1-.50371,1.502q-.15111.36405-.332.75556a5.16262,5.16262,0,0,1-.38465.696l-9.72613-4.01592-2.8219,6.839,7.7651,3.2077a6.88373,6.88373,0,0,1-.19232.75327c-.08472.2633-.174.51744-.27475.76014-.10189.24269-.21751.49455-.35031.74869a6.749,6.749,0,0,1-.40067.69145l-7.76625-3.2077-3.37141,8.16693,9.99172,4.12582a10.75485,10.75485,0,0,1-.50485,1.49967c-.10074.245-.20835.49455-.332.75785a5.06647,5.06647,0,0,1-.3835.696l-13.37687-5.52247Z" transform="translate(-16.96439 -20.80296)"/><path d="M178.92346,437.94524l12.90521,3.96555a7.11922,7.11922,0,0,1-.12479.77388c-.05838.27017-.12478.53118-.20262.77846-.0767.25643-.16943.51286-.277.78074a6.97505,6.97505,0,0,1-.33428.72351l-9.40559-2.88945-2.22776,7.24194,7.86012,2.41322c-.032.27017-.07555.53576-.13279.80593-.05953.27017-.12593.53347-.20377.783q-.11849.37779-.27246.76243c-.103.25873-.21751.50142-.33886.73954l-7.86127-2.4178-3.47215,11.29449c-.28963-.03892-.58155-.09158-.87232-.1534-.29536-.06869-.601-.14882-.9227-.24727-.29536-.09159-.59644-.19691-.89752-.316a8.09875,8.09875,0,0,1-.80937-.35718Z" transform="translate(-16.96439 -20.80296)"/><path d="M198.05747,443.44023l13.2143,2.77039a6.925,6.925,0,0,1-.05266.77617c-.03435.277-.0767.54263-.13165.80135-.05381.25644-.12135.52432-.20492.79907a7.10457,7.10457,0,0,1-.26559.751l-9.63226-2.01941-1.55462,7.41594,8.049,1.68742c-.008.27017-.02862.54034-.06067.8128-.0332.277-.07556.54263-.13051.79907s-.12135.51973-.20148.783c-.08014.26788-.17058.51974-.27132.77159l-8.04787-1.68971-2.4258,11.56237q-.4379-.0206-.88378-.07555c-.29765-.03664-.61132-.09159-.93873-.16027-.30451-.06411-.61246-.13967-.925-.23125a7.91407,7.91407,0,0,1-.838-.2862Z" transform="translate(-16.96439 -20.80296)"/><path d="M217.50858,447.16309l14.09465,1.59354a10.47647,10.47647,0,0,1-.071,1.5821c-.02862.2633-.06525.538-.1099.81967a5.19518,5.19518,0,0,1-.17744.77159l-10.45536-1.17913-.83227,7.34954,8.3501.94331a6.66835,6.66835,0,0,1,.01946.78075c-.00687.277-.02519.54721-.05495.80593-.02977.2633-.07212.53576-.12822.81967a7.1819,7.1819,0,0,1-.19576.77388l-8.35123-.94789-.99139,8.77824,10.74041,1.21577a10.81019,10.81019,0,0,1-.071,1.5821c-.0309.2633-.06754.53576-.111.81967a5.29672,5.29672,0,0,1-.17744.77388l-14.38085-1.62789Z" transform="translate(-16.96439 -20.80296)"/><path d="M254.578,471.38225a9.83031,9.83031,0,0,1,.97765,2.99019,14.46257,14.46257,0,0,1-3.0978.90438,19.37092,19.37092,0,0,1-3.41376.25644,13.2978,13.2978,0,0,1-5.03822-.96392,10.2358,10.2358,0,0,1-3.76406-2.6582,11.59825,11.59825,0,0,1-2.3308-4.167,17.065,17.065,0,0,1-.77387-5.50415,17.66469,17.66469,0,0,1,.8792-5.57741,12.09054,12.09054,0,0,1,2.40863-4.23114,10.32053,10.32053,0,0,1,3.79612-2.67652,12.60741,12.60741,0,0,1,5.00159-.90438,18.47392,18.47392,0,0,1,3.51679.32054,19.5781,19.5781,0,0,1,2.6147.70748,6.63715,6.63715,0,0,1-.32054,1.52486c-.158.46249-.348.96162-.57011,1.48364-.35717-.12363-.7029-.23353-1.03718-.33427s-.69374-.18546-1.0761-.261a12.07765,12.07765,0,0,0-1.273-.174c-.46708-.03893-.99826-.06411-1.59813-.06869a7.42572,7.42572,0,0,0-6.112,2.601q-2.198,2.63416-2.24608,7.62888a14.32088,14.32088,0,0,0,.57011,4.42346,8.41557,8.41557,0,0,0,1.69429,3.10238,7.05585,7.05585,0,0,0,2.6582,1.85685,9.5954,9.5954,0,0,0,3.49733.64337,13.74911,13.74911,0,0,0,2.73147-.22438A11.73423,11.73423,0,0,0,254.578,471.38225Z" transform="translate(-16.96439 -20.80296)"/><path d="M266.81351,451.68272l-6.68786.62047a7.37767,7.37767,0,0,1-.17859-.77617c-.05037-.2839-.087-.55865-.11219-.81966-.02518-.26331-.03892-.53119-.03892-.80823a6.45861,6.45861,0,0,1,.03663-.77845l17.02073-1.57752a6.77593,6.77593,0,0,1,.174.74182,7.49122,7.49122,0,0,1,.1099.783c.02519.261.03892.54492.0435.84256a6.88968,6.88968,0,0,1-.03434.81509l-6.68557.61819,2.08809,22.52945a13.74264,13.74264,0,0,1-1.779.27017,14.70287,14.70287,0,0,1-1.86829.0664Z" transform="translate(-16.96439 -20.80296)"/><path d="M285.63614,468.344q1.24323.20262,2.57348.2862a13.17579,13.17579,0,0,0,3.1642-.27017,6.78926,6.78926,0,0,0,4.10292-1.99652,3.98744,3.98744,0,0,0,.82654-3.45955,4.34326,4.34326,0,0,0-.61818-1.637,3.31525,3.31525,0,0,0-1.12877-1.05091,6.76958,6.76958,0,0,0-1.676-.65253c-.65253-.16943-1.41038-.34115-2.27126-.522l-2.16594-.43273a14.17715,14.17715,0,0,1-2.04688-.58384,5.71908,5.71908,0,0,1-2.99248-2.50709,6.86589,6.86589,0,0,1-.78762-2.2415,6.30206,6.30206,0,0,1,1.24095-5.44462,9.52211,9.52211,0,0,1,5.79951-2.97187,18.037,18.037,0,0,1,3.26493-.32283,17.09423,17.09423,0,0,1,2.8139.20377,11.22691,11.22691,0,0,1-.22438,3.07262,18.95648,18.95648,0,0,0-2.32621-.22209,13.44975,13.44975,0,0,0-2.894.25414,5.721,5.721,0,0,0-3.25349,1.54547,3.21141,3.21141,0,0,0-.69146,2.92379,2.89131,2.89131,0,0,0,.5495,1.26843,3.57929,3.57929,0,0,0,.98681.87461,5.79617,5.79617,0,0,0,1.31422.57469,12.749,12.749,0,0,0,1.52944.36862l2.12244.40526a21.18242,21.18242,0,0,1,2.72918.70977,8.00919,8.00919,0,0,1,2.143,1.0967,5.761,5.761,0,0,1,1.55234,1.7355,8.02614,8.02614,0,0,1,.90209,2.56891,7.20871,7.20871,0,0,1-1.42641,6.20705q-2.11214,2.57233-6.62833,3.42292c-.73037.13508-1.39206.23812-1.98964.29993a14.72409,14.72409,0,0,1-3.21228.02061q-.74526-.079-1.534-.18775a7.95,7.95,0,0,1,.02061-1.6462C285.46671,469.46358,285.54455,468.89806,285.63614,468.344Z" transform="translate(-16.96439 -20.80296)"/><path d="M331.762,454.1257l-9.25677,3.2283.30222,6.20934c-.27933.14653-.55865.28391-.84714.40754-.2862.12593-.57468.24041-.86775.34115-.31825.11219-.63192.20835-.9456.29307a8.81757,8.81757,0,0,1-.86546.18774l-.5701-27.14753c.27933-.14424.58155-.29307.91354-.43273q.498-.21293,1.03947-.40068c.316-.11219.64795-.21293.996-.30909s.68688-.174,1.01887-.2427l16.40483,21.62507c-.25644.13967-.5495.27933-.88149.42129-.332.13966-.65482.26788-.97078.37549-.29307.103-.59758.1969-.91125.28162-.31139.08242-.61132.15111-.89981.19919Zm-9.39415-.10761,7.4274-2.58952-8.07077-11.14567Z" transform="translate(-16.96439 -20.80296)"/><path d="M344.25393,451.3782a25.42377,25.42377,0,0,0,2.56432-.36862,13.39729,13.39729,0,0,0,2.99706-1.05092,6.81783,6.81783,0,0,0,3.471-2.95813,3.99668,3.99668,0,0,0-.06639-3.5603,4.37864,4.37864,0,0,0-1.00742-1.431,3.29974,3.29974,0,0,0-1.35543-.73267,6.964,6.964,0,0,0-1.78587-.21522c-.67543.00229-1.45159.0229-2.33079.0664l-2.20487.12135a13.77688,13.77688,0,0,1-2.127-.05266,5.76636,5.76636,0,0,1-3.526-1.676,6.94628,6.94628,0,0,1-1.32337-1.9759,6.28886,6.28886,0,0,1-.16027-5.5797,9.499,9.499,0,0,1,4.86993-4.33189,17.83385,17.83385,0,0,1,3.07948-1.12647,17.09906,17.09906,0,0,1,2.775-.51058,11.20041,11.20041,0,0,1,.55179,3.03141,18.05841,18.05841,0,0,0-2.3056.37091,13.0434,13.0434,0,0,0-2.73834.96849,5.72764,5.72764,0,0,0-2.76581,2.30789,3.22194,3.22194,0,0,0,.06411,3.00851,2.91408,2.91408,0,0,0,.84943,1.08984,3.5575,3.5575,0,0,0,1.17456.59529,5.64594,5.64594,0,0,0,1.415.229,12.99086,12.99086,0,0,0,1.57523-.02519l2.1545-.13966a21.37443,21.37443,0,0,1,2.82076.00458,7.97274,7.97274,0,0,1,2.34911.52431,5.6684,5.6684,0,0,1,1.93469,1.29361,8.01969,8.01969,0,0,1,1.52028,2.25982,7.22018,7.22018,0,0,1,.17172,6.3696q-1.39779,3.01538-5.5591,4.97068c-.67313.31367-1.29132.57926-1.85227.7899a15.83443,15.83443,0,0,1-1.6027.51287,14.11875,14.11875,0,0,1-1.502.30909q-.74181.10991-1.53172.20378a7.943,7.943,0,0,1-.39152-1.60042Q344.32833,452.21505,344.25393,451.3782Z" transform="translate(-16.96439 -20.80296)"/><path d="M364.35643,441.53072a25.06915,25.06915,0,0,0,2.51853-.60673,13.33312,13.33312,0,0,0,2.88487-1.328,6.795,6.795,0,0,0,3.17794-3.27181,4.0128,4.0128,0,0,0-.39839-3.53969,4.46539,4.46539,0,0,0-1.14021-1.33024,3.2806,3.2806,0,0,0-1.41725-.59987,6.87531,6.87531,0,0,0-1.79732-.0435q-1.0097.09273-2.31476.27933l-2.18426.3297a13.811,13.811,0,0,1-2.12244.14653,5.90391,5.90391,0,0,1-1.9324-.33886,5.83545,5.83545,0,0,1-1.73322-.99826,6.86213,6.86213,0,0,1-1.50425-1.8454,6.27992,6.27992,0,0,1-.68229-5.5362,9.49073,9.49073,0,0,1,4.43949-4.76919,18.12691,18.12691,0,0,1,2.96271-1.415,17.23658,17.23658,0,0,1,2.71544-.767,11.25108,11.25108,0,0,1,.83341,2.96959,17.78428,17.78428,0,0,0-2.25981.58384,13.14337,13.14337,0,0,0-2.6376,1.22034,5.71206,5.71206,0,0,0-2.53456,2.55975,3.21638,3.21638,0,0,0,.34344,2.9879,2.89961,2.89961,0,0,0,.94788,1.00284,3.58926,3.58926,0,0,0,1.22493.48768,5.883,5.883,0,0,0,1.431.09158,12.80858,12.80858,0,0,0,1.56379-.174l2.13617-.33885a20.99607,20.99607,0,0,1,2.807-.25873,7.83769,7.83769,0,0,1,2.388.29994,5.67555,5.67555,0,0,1,2.04688,1.10586,7.97061,7.97061,0,0,1,1.72634,2.10871,7.21824,7.21824,0,0,1,.767,6.32381q-1.1093,3.13215-5.06913,5.46981c-.64108.37549-1.2295.696-1.76984.96162a16.59448,16.59448,0,0,1-1.54776.66169,14.67145,14.67145,0,0,1-1.46533.44875c-.48539.11906-.98681.23125-1.50425.34573a7.96351,7.96351,0,0,1-.54263-1.5592Q364.50755,442.35726,364.35643,441.53072Z" transform="translate(-16.96439 -20.80296)"/><path d="M395.5588,426.38287a11.08253,11.08253,0,0,1-4.46468,2.12931,9.23242,9.23242,0,0,1-4.37538-.16943,12.15331,12.15331,0,0,1-4.14414-2.15907,21.85162,21.85162,0,0,1-6.43829-8.54929,12.162,12.162,0,0,1-.93415-4.57915,9.41731,9.41731,0,0,1,1.03718-4.26549,12.20391,12.20391,0,0,1,7.74564-5.83385,9.38588,9.38588,0,0,1,4.38455.18317,11.99128,11.99128,0,0,1,4.1304,2.17052,22.42127,22.42127,0,0,1,6.43829,8.54471,12.02254,12.02254,0,0,1,.94789,4.57229,9.214,9.214,0,0,1-1.04863,4.24945A11.05513,11.05513,0,0,1,395.5588,426.38287Zm-1.90035-2.52311a6.49436,6.49436,0,0,0,2.06062-2.42925,5.85585,5.85585,0,0,0,.51287-2.92837,9.96514,9.96514,0,0,0-.88836-3.33133,20.96294,20.96294,0,0,0-5.08973-6.75426,9.74323,9.74323,0,0,0-2.95356-1.77442,5.93625,5.93625,0,0,0-2.94668-.29994,7.24047,7.24047,0,0,0-4.96381,3.73888,5.91877,5.91877,0,0,0-.52431,2.91235,9.69671,9.69671,0,0,0,.89064,3.33133,20.97829,20.97829,0,0,0,5.08744,6.75655,9.96393,9.96393,0,0,0,2.95814,1.77213,5.87238,5.87238,0,0,0,2.95356.316A6.52447,6.52447,0,0,0,393.65845,423.85976Z" transform="translate(-16.96439 -20.80296)"/><path d="M420.719,398.8255a9.674,9.674,0,0,1,2.78642,1.46076,14.4157,14.4157,0,0,1-1.58439,2.807,19.47056,19.47056,0,0,1-2.26668,2.56662,13.226,13.226,0,0,1-4.27922,2.82763,10.2632,10.2632,0,0,1-4.5494.72579,11.70282,11.70282,0,0,1-4.57915-1.35772,17.09078,17.09078,0,0,1-4.396-3.4,17.64581,17.64581,0,0,1-3.26493-4.60434,12.12124,12.12124,0,0,1-1.22951-4.71425,10.35768,10.35768,0,0,1,.84944-4.56313,12.56885,12.56885,0,0,1,2.94668-4.13955,18.689,18.689,0,0,1,2.74292-2.22776,20.07675,20.07675,0,0,1,2.36513-1.32109,6.79994,6.79994,0,0,1,.83341,1.31422c.21064.44646.42128.93643.62963,1.463-.34343.16256-.66626.32283-.97765.48539q-.4602.24728-.95246.56552a11.41125,11.41125,0,0,0-1.03031.76472c-.36175.29536-.76014.65024-1.19058,1.067a7.4159,7.4159,0,0,0-2.562,6.12691q.27132,3.42406,3.72056,7.02672a14.30982,14.30982,0,0,0,3.4939,2.77268,8.33417,8.33417,0,0,0,3.38171,1.03489,7.03153,7.03153,0,0,0,3.19854-.52432,9.51438,9.51438,0,0,0,2.95127-1.98048,13.741,13.741,0,0,0,1.79961-2.06978A11.85924,11.85924,0,0,0,420.719,398.8255Z" transform="translate(-16.96439 -20.80296)"/><path d="M410.50059,377.2737c.15569-.24727.32512-.49455.51516-.74411.19-.24728.38694-.49.593-.72122.20606-.23354.42128-.4602.64566-.67771.22438-.21522.44876-.41671.67543-.59758l19.31946,17.12833c-.1534.24728-.32283.49226-.50142.73038-.18088.2404-.38236.48539-.60674.73495-.20377.23354-.42586.4625-.65711.68917a8.42327,8.42327,0,0,1-.664.58613Z" transform="translate(-16.96439 -20.80296)"/><path d="M441.80371,370.11648l-5.88422,7.83952,3.71141,4.9867c-.14882.27475-.3068.54721-.47394.81051-.16714.261-.34573.51973-.53118.767-.20149.27017-.40984.5266-.62048.7693a8.87928,8.87928,0,0,1-.6159.64108l-15.60805-22.22036q.22323-.41556.51744-.87c.19461-.29994.40984-.60445.63879-.909.20149-.27017.42129-.54034.65482-.8128s.47166-.5289.70977-.7693l25.67534,8.80343c-.13509.261-.29994.54034-.49455.84256-.19691.30223-.39839.58613-.59758.854-.18546.24728-.38694.49455-.59987.73725-.21293.245-.42586.46936-.63651.67084Zm-7.85783,5.14468,4.71882-6.28947-12.91094-4.75088Z" transform="translate(-16.96439 -20.80296)"/><path d="M436.05,348.757l-3.526,5.71708a7.38179,7.38179,0,0,1-.72809-.32283c-.25872-.13051-.49684-.26788-.7235-.40526-.22209-.13737-.44647-.29077-.66627-.45562a6.498,6.498,0,0,1-.60216-.49455l8.97744-14.55027c.22895.08471.4602.19.696.30451.23811.11906.46936.24727.69145.38465.22438.13966.45792.29764.70061.47165a7.3426,7.3426,0,0,1,.62964.51745l-3.52595,5.71707,19.25306,11.88063a13.92,13.92,0,0,1-.84943,1.5821,15.37077,15.37077,0,0,1-1.07152,1.53172Z" transform="translate(-16.96439 -20.80296)"/><path d="M441.50607,332.93372c.08929-.277.19461-.55865.31825-.84714.12134-.2862.25414-.56782.39609-.84486.14425-.277.29765-.54492.4625-.81051.16485-.26788.33428-.51286.50829-.7464l22.921,11.8852c-.0893.277-.19462.55408-.3091.82883-.11905.27933-.25185.56553-.40754.86317-.142.27475-.29994.55179-.46708.82883a8.1727,8.1727,0,0,1-.5037.73037Z" transform="translate(-16.96439 -20.80296)"/><path d="M474.98428,323.21217a11.02993,11.02993,0,0,1-2.74749,4.11438,9.3107,9.3107,0,0,1-3.84191,2.09725,12.265,12.265,0,0,1-4.66616.2633,21.88766,21.88766,0,0,1-9.9093-4.04568,12.30865,12.30865,0,0,1-3.14359-3.45956,9.39692,9.39692,0,0,1-1.29361-4.1968,12.17914,12.17914,0,0,1,3.6679-8.97285,9.39169,9.39169,0,0,1,3.86023-2.09039,12.06249,12.06249,0,0,1,4.65929-.24727,22.43336,22.43336,0,0,1,9.907,4.048,12.02626,12.02626,0,0,1,3.15275,3.439,9.19632,9.19632,0,0,1,1.27529,4.18993A11.03041,11.03041,0,0,1,474.98428,323.21217Zm-2.92379-1.19745a6.517,6.517,0,0,0,.5266-3.13672,5.86849,5.86849,0,0,0-1.05549-2.78184,10.03141,10.03141,0,0,0-2.47046-2.40406,20.936,20.936,0,0,0-7.82807-3.20083,9.7383,9.7383,0,0,0-3.4481-.01144,5.89685,5.89685,0,0,0-2.68339,1.25011,7.23983,7.23983,0,0,0-2.3491,5.75142,5.94311,5.94311,0,0,0,1.03717,2.77268,9.7215,9.7215,0,0,0,2.47046,2.40405,20.79557,20.79557,0,0,0,7.82807,3.19855,9.85357,9.85357,0,0,0,3.4481.01373,5.85535,5.85535,0,0,0,2.69942-1.24324A6.4785,6.4785,0,0,0,472.06049,322.01472Z" transform="translate(-16.96439 -20.80296)"/><path d="M456.87143,296.75609q.03433-.39838.11677-.84485c.055-.29307.11905-.56553.18774-.822.06869-.25414.15569-.522.25414-.80364.103-.28391.21294-.54263.32741-.78762l21.66171-5.75829-18.71273-5.08515c.03206-.29078.07327-.58842.1328-.89523s.12821-.609.21064-.91354c.06869-.25414.15111-.51744.24956-.78532a8.16853,8.16853,0,0,1,.32283-.7693l24.9152,6.77486c-.02519.27017-.06411.5495-.11906.84256-.05495.29536-.11906.5724-.18775.82425-.06868.25644-.1534.522-.25414.80593a8.19986,8.19986,0,0,1-.32741.78533l-21.56554,5.82011,18.6074,5.06a8.03908,8.03908,0,0,1-.119.84485c-.055.29536-.11906.58155-.19462.85859-.08242.29994-.174.59072-.27475.87462a7.31114,7.31114,0,0,1-.316.74869Z" transform="translate(-16.96439 -20.80296)"/><path d="M171.494,304.66645H134.7883L57.50283,222.4435l72.66733-65.40691h92.0214V202.005h-51.965v16.59871l39.29027,1.35273v40.34918H171.494Zm-34.25079-5.67705h28.57374V254.62859h38.02292v-29.188l-39.29028-1.35273V196.328h51.96495V162.71364H132.34784L65.61259,222.78279Z" transform="translate(-16.96439 -20.80296)"/><path d="M416.01064,304.66645H331.35609l-20.08034-27.16778-19.49046,27.16778H213.43205l59.93167-74.60218-60.01816-73.02768h79.70376l17.96919,24.92357,16.07093-26.93493,79.47423-2.63673-61.77338,76.12456Zm-81.78941-5.67705h68.70558l-65.663-70.21244,57.0499-70.30115-63.93776,2.12-18.90944,31.6939-21.3222-29.57609H225.3605l55.31685,67.31071L225.274,298.9894h63.59735l22.33785-31.13284Z" transform="translate(-16.96439 -20.80296)"/><path class="cls-1" d="M249.04486,23.64134c-111.90674,0-202.62516,90.71829-202.62516,202.62516s90.71842,202.625,202.62516,202.625S451.67,338.17323,451.67,226.2665,360.95172,23.64134,249.04486,23.64134ZM245.506,358.36043a129.58244,129.58244,0,1,1,129.5825-129.58237A129.58241,129.58241,0,0,1,245.506,358.36043Z" transform="translate(-16.96439 -20.80296)"/><path d="M249.04555,431.73032c-113.2937,0-205.46479-92.17-205.46479-205.46368,0-113.29259,92.17109-205.46368,205.46479-205.46368,113.29259,0,205.46257,92.17109,205.46257,205.46368C454.50812,339.56034,362.33814,431.73032,249.04555,431.73032Zm0-405.25031C138.882,26.48,49.25781,116.10418,49.25781,226.26664S138.882,426.05327,249.04555,426.05327c110.16134,0,199.78552-89.62418,199.78552-199.78663S359.20689,26.48,249.04555,26.48Zm-3.53929,334.71964c-73.0177,0-132.42158-59.405-132.42158-132.42159,0-73.0177,59.40388-132.42158,132.42158-132.42158,73.0166,0,132.42159,59.40388,132.42159,132.42158C377.92785,301.79466,318.52286,361.19965,245.50626,361.19965Zm0-259.16612A126.74454,126.74454,0,1,0,372.2508,228.77806,126.88758,126.88758,0,0,0,245.50626,102.03353Z" transform="translate(-16.96439 -20.80296)"/></svg>