<?xml version="1.0" encoding="UTF-8" standalone="no"?>
<!-- Created with Inkscape (http://www.inkscape.org/) -->

<svg
   xmlns:dc="http://purl.org/dc/elements/1.1/"
   xmlns:cc="http://creativecommons.org/ns#"
   xmlns:rdf="http://www.w3.org/1999/02/22-rdf-syntax-ns#"
   xmlns:svg="http://www.w3.org/2000/svg"
   xmlns="http://www.w3.org/2000/svg"
   xmlns:sodipodi="http://sodipodi.sourceforge.net/DTD/sodipodi-0.dtd"
   xmlns:inkscape="http://www.inkscape.org/namespaces/inkscape"
   version="1.1"
   id="svg236"
   width="180"
   height="180"
   viewBox="0 0 180 180"
   sodipodi:docname="oiio-logo-no-alpha.svg"
   inkscape:version="0.92.2 5c3e80d, 2017-08-06">
  <metadata
     id="metadata242">
    <rdf:RDF>
      <cc:Work
         rdf:about="">
        <dc:format>image/svg+xml</dc:format>
        <dc:type
           rdf:resource="http://purl.org/dc/dcmitype/StillImage" />
        <dc:title></dc:title>
      </cc:Work>
    </rdf:RDF>
  </metadata>
  <defs
     id="defs240" />
  <sodipodi:namedview
     pagecolor="#ffffff"
     bordercolor="#666666"
     borderopacity="1"
     objecttolerance="10"
     gridtolerance="10"
     guidetolerance="10"
     inkscape:pageopacity="0"
     inkscape:pageshadow="2"
     inkscape:window-width="936"
     inkscape:window-height="600"
     id="namedview238"
     showgrid="false"
     inkscape:zoom="1.3111111"
     inkscape:cx="117.45763"
     inkscape:cy="90"
     inkscape:window-x="96"
     inkscape:window-y="31"
     inkscape:window-maximized="0"
     inkscape:current-layer="svg236" />
  <path
     style="fill:#000000;stroke-width:1.33333337"
     d="m 57.333333,125.4219 c 4.943832,-1.56411 10.575025,-4.0781 9.928397,-10.70633 1.079626,-15.179797 0.878386,-30.454777 0.232806,-45.65247 0.488766,-6.522171 -2.997127,-12.342689 -9.874318,-12.635052 3.770226,-2.788397 12.015123,-1.338357 17.562074,-1.737233 2.474142,0.5937 12.233333,-0.872658 10.518989,2.250851 -9.410552,-0.737524 -7.657461,9.785272 -8.113247,15.993751 -0.162762,15.066028 -0.865623,30.215713 0.606661,45.231413 -0.977604,6.11133 6.757639,4.88443 8.206347,7.4558 -8.708848,1.66736 -17.77533,1.09253 -26.587405,0.4987 -0.723157,-0.33387 -1.897552,0.0156 -2.480304,-0.69943 z m 36,-0.0886 c 4.098262,-1.58892 10.032307,-2.83342 8.749467,-9.16082 0.8816,-18.40985 1.11151,-36.93459 -0.48422,-55.308348 0.91554,-4.599289 -13.604453,-3.563241 -5.170846,-5.742062 8.614796,-0.472334 17.468786,-1.071129 25.973306,0.588601 -1.40222,2.719747 -9.5561,0.752077 -8.32689,7.195305 -1.30208,15.708402 -0.6383,31.520978 -0.58104,47.269684 0.008,5.87299 -0.18356,15.5018 8.27273,14.21598 -0.15682,3.60578 -11.01393,1.6968 -15.3954,2.2689 -4.27561,-0.30893 -9.090882,0.37946 -13.037107,-1.32724 z M 25.117805,122.48799 C 16.613498,119.34668 9.0562581,112.54122 5.7497506,104.03084 3.621603,95.385388 2.9711558,85.790949 6.2101901,77.346474 12.025626,63.34429 29.226703,55.305742 43.549092,60.782367 55.983102,65.2037 64.870977,78.074874 63.89583,91.359979 64.509321,106.74645 52.439065,121.43055 37.073731,123.30642 c -3.985753,0.554 -8.082133,0.2688 -11.955926,-0.81843 z m 18.626384,-5.18719 c 9.409693,-5.96257 9.717998,-18.349982 9.509418,-28.288285 0.05539,-8.942603 -2.105575,-18.778115 -9.823848,-24.286816 -5.874612,-3.452008 -13.978534,-2.585524 -19.787861,0.706093 -8.975653,6.38014 -9.361095,18.662466 -9.224604,28.688995 0.279269,9.519123 3.20338,21.158783 13.122155,24.806043 5.302877,1.92303 11.3379,1.10597 16.20474,-1.62603 z m 93.373611,5.18719 c -8.5043,-3.14131 -16.06154,-9.94677 -19.36805,-18.45715 -2.12815,-8.645451 -2.7786,-18.239892 0.46044,-26.684366 5.81543,-14.002185 23.01651,-22.040732 37.3389,-16.564107 12.43401,4.421332 21.32188,17.292508 20.34675,30.577612 0.61348,15.386471 -11.45677,30.070571 -26.82211,31.946441 -3.98575,0.554 -8.08214,0.2688 -11.95593,-0.81843 z m 18.62639,-5.18719 c 9.4097,-5.96257 9.71798,-18.349983 9.50942,-28.288285 0.0554,-8.942613 -2.10559,-18.778109 -9.82386,-24.286816 -5.8746,-3.452011 -13.97853,-2.585521 -19.78785,0.706093 -8.97565,6.380138 -9.36111,18.662466 -9.2246,28.688995 0.27929,9.519113 3.20338,21.158773 13.12215,24.806043 5.30288,1.92303 11.3379,1.10597 16.20474,-1.62603 z"
     id="path246"
     inkscape:connector-curvature="0" />
</svg>
