<svg width="135" height="135" version="1.1" xmlns="http://www.w3.org/2000/svg"><path fill="rgb(207,207,207)" stroke="rgb(207,207,207)" stroke-width="1" opacity="1" d="M 75.5 44 L 77 46.5 L 76 46.5 L 75.5 44 Z "></path><path fill="rgb(207,207,207)" stroke="rgb(207,207,207)" stroke-width="1" opacity="1" d="M 58.5 46 L 59 48.5 L 58 48.5 L 58.5 46 Z "></path><path fill="rgb(207,207,207)" stroke="rgb(207,207,207)" stroke-width="1" opacity="1" d="M 18.5 48 L 17.5 50 L 18.5 48 Z "></path><path fill="rgb(207,207,207)" stroke="rgb(207,207,207)" stroke-width="1" opacity="1" d="M 32.5 48 L 36.5 53 L 32.5 48 Z "></path><path fill="rgb(207,207,207)" stroke="rgb(207,207,207)" stroke-width="1" opacity="1" d="M 102.5 48 L 101.5 50 L 102.5 48 Z "></path><path fill="rgb(207,207,207)" stroke="rgb(207,207,207)" stroke-width="1" opacity="1" d="M 116.5 48 L 120.5 53 L 116.5 48 Z "></path><path fill="rgb(207,207,207)" stroke="rgb(207,207,207)" stroke-width="1" opacity="1" d="M 10.5 49 L 8.5 52 L 10.5 49 Z "></path><path fill="rgb(207,207,207)" stroke="rgb(207,207,207)" stroke-width="1" opacity="1" d="M 40.5 49 L 42.5 52 L 40.5 49 Z "></path><path fill="rgb(207,207,207)" stroke="rgb(207,207,207)" stroke-width="1" opacity="1" d="M 50.5 49 L 51 86.5 L 50 86.5 L 50.5 49 Z "></path><path fill="rgb(207,207,207)" stroke="rgb(207,207,207)" stroke-width="1" opacity="1" d="M 94.5 49 L 92.5 52 L 94.5 49 Z "></path><path fill="rgb(207,207,207)" stroke="rgb(207,207,207)" stroke-width="1" opacity="1" d="M 124.5 49 L 126.5 52 L 124.5 49 Z "></path><path fill="rgb(207,207,207)" stroke="rgb(207,207,207)" stroke-width="1" opacity="1" d="M 2.5 64 L 3 72.5 L 2 72.5 L 2.5 64 Z "></path><path fill="rgb(207,207,207)" stroke="rgb(207,207,207)" stroke-width="1" opacity="1" d="M 86.5 64 L 87 72.5 L 86 72.5 L 86.5 64 Z "></path><path fill="rgb(207,207,207)" stroke="rgb(207,207,207)" stroke-width="1" opacity="1" d="M 48.5 65 L 49 71.5 L 48 71.5 L 48.5 65 Z "></path><path fill="rgb(207,207,207)" stroke="rgb(207,207,207)" stroke-width="1" opacity="1" d="M 132.5 65 L 133 71.5 L 132 71.5 L 132.5 65 Z "></path><path fill="rgb(207,207,207)" stroke="rgb(207,207,207)" stroke-width="1" opacity="1" d="M 7.5 84 L 11.5 89 L 7.5 84 Z "></path><path fill="rgb(207,207,207)" stroke="rgb(207,207,207)" stroke-width="1" opacity="1" d="M 36.5 84 L 33.5 88 L 36.5 84 Z "></path><path fill="rgb(207,207,207)" stroke="rgb(207,207,207)" stroke-width="1" opacity="1" d="M 91.5 84 L 95.5 89 L 91.5 84 Z "></path><path fill="rgb(207,207,207)" stroke="rgb(207,207,207)" stroke-width="1" opacity="1" d="M 120.5 84 L 117.5 88 L 120.5 84 Z "></path><path fill="rgb(207,207,207)" stroke="rgb(207,207,207)" stroke-width="1" opacity="1" d="M 15.5 85 L 17.5 88 L 15.5 85 Z "></path><path fill="rgb(207,207,207)" stroke="rgb(207,207,207)" stroke-width="1" opacity="1" d="M 99.5 85 L 101.5 88 L 99.5 85 Z "></path><path fill="rgb(207,207,207)" stroke="rgb(207,207,207)" stroke-width="1" opacity="1" d="M 58.5 87 L 59 89.5 L 58 89.5 L 58.5 87 Z "></path><path fill="rgb(207,207,207)" stroke="rgb(207,207,207)" stroke-width="1" opacity="1" d="M 38.5 88 L 37.5 90 L 38.5 88 Z "></path><path fill="rgb(207,207,207)" stroke="rgb(207,207,207)" stroke-width="1" opacity="1" d="M 122.5 88 L 121.5 90 L 122.5 88 Z "></path><path fill="rgb(207,207,207)" stroke="rgb(207,207,207)" stroke-width="1" opacity="1" d="M 13.5 89 L 14.5 91 L 13.5 89 Z "></path><path fill="rgb(207,207,207)" stroke="rgb(207,207,207)" stroke-width="1" opacity="1" d="M 97.5 89 L 98.5 91 L 97.5 89 Z "></path><path fill="rgb(255,255,255)" stroke="rgb(255,255,255)" stroke-width="1" opacity="1" d="M 0 0 L 135 0 L 135 135 L 0 135 L 0 0 Z M 43 41 L 43 43 L 49 44 L 50 46 L 50 91 L 47 93 Q 42 92 43 95 L 66 95 L 66 93 L 61 92 L 58 87 L 58 50 L 59 46 Q 61 42 66 43 L 66 41 L 43 41 Z M 69 41 L 69 43 L 75 44 L 77 48 L 77 88 L 76 91 L 73 93 Q 68 92 69 95 L 92 95 L 93 94 Q 87 94 85 91 L 85 47 L 86 44 L 92 43 L 92 41 L 69 41 Z M 21 44 L 11 49 Q 4 54 2 65 Q 1 78 7 85 Q 11 91 21 93 Q 32 95 38 90 Q 47 84 49 72 Q 50 58 43 52 L 32 44 L 21 44 Z M 105 44 L 95 49 Q 88 54 86 65 Q 85 78 91 85 Q 95 91 105 93 Q 116 95 122 90 Q 131 84 133 72 Q 134 58 127 52 L 116 44 L 105 44 Z "></path><path fill="rgb(255,255,255)" stroke="rgb(255,255,255)" stroke-width="1" opacity="1" d="M 21.5 47 Q 33.8 45.8 37 53.5 Q 41.6 61.4 40 75.5 Q 38.5 84 32.5 88 Q 29.5 91 22.5 90 Q 16.4 88.6 14 83.5 Q 9.4 75.6 11 61.5 L 16.5 50 L 21.5 47 Z "></path><path fill="rgb(255,255,255)" stroke="rgb(255,255,255)" stroke-width="1" opacity="1" d="M 105.5 47 Q 117.8 45.8 121 53.5 Q 125.6 61.4 124 75.5 Q 122.5 84 116.5 88 Q 113.5 91 106.5 90 Q 100.4 88.6 98 83.5 Q 93.4 75.6 95 61.5 L 100.5 50 L 105.5 47 Z "></path><path fill="rgb(69,69,69)" stroke="rgb(69,69,69)" stroke-width="1" opacity="1" d="M 43 41 L 64.5 41 L 66 42.5 L 62.5 43 L 61.5 42 L 46.5 42 L 43 43 L 43 41 Z "></path><path fill="rgb(69,69,69)" stroke="rgb(69,69,69)" stroke-width="1" opacity="1" d="M 70 41 L 91.5 41 L 92 43 L 88.5 42 L 72.5 42 L 70 43 L 70 41 Z "></path><path fill="rgb(69,69,69)" stroke="rgb(69,69,69)" stroke-width="1" opacity="1" d="M 48.5 43 L 49.5 45 L 48.5 43 Z "></path><path fill="rgb(69,69,69)" stroke="rgb(69,69,69)" stroke-width="1" opacity="1" d="M 86.5 43 L 85.5 45 L 86.5 43 Z "></path><path fill="rgb(69,69,69)" stroke="rgb(69,69,69)" stroke-width="1" opacity="1" d="M 22.5 44 L 30 44.5 L 22.5 45 L 22.5 44 Z "></path><path fill="rgb(69,69,69)" stroke="rgb(69,69,69)" stroke-width="1" opacity="1" d="M 106.5 44 L 114 44.5 L 106.5 45 L 106.5 44 Z "></path><path fill="rgb(69,69,69)" stroke="rgb(69,69,69)" stroke-width="1" opacity="1" d="M 22.5 46 L 28 46.5 L 22.5 47 L 22.5 46 Z "></path><path fill="rgb(69,69,69)" stroke="rgb(69,69,69)" stroke-width="1" opacity="1" d="M 50.5 46 L 51 48.5 L 50 48.5 L 50.5 46 Z "></path><path fill="rgb(69,69,69)" stroke="rgb(69,69,69)" stroke-width="1" opacity="1" d="M 84.5 46 L 85 89.5 L 84 89.5 L 84.5 46 Z "></path><path fill="rgb(69,69,69)" stroke="rgb(69,69,69)" stroke-width="1" opacity="1" d="M 106.5 46 L 112 46.5 L 106.5 47 L 106.5 46 Z "></path><path fill="rgb(69,69,69)" stroke="rgb(69,69,69)" stroke-width="1" opacity="1" d="M 12.5 48 L 11.5 50 L 12.5 48 Z "></path><path fill="rgb(69,69,69)" stroke="rgb(69,69,69)" stroke-width="1" opacity="1" d="M 38.5 48 L 39.5 50 L 38.5 48 Z "></path><path fill="rgb(69,69,69)" stroke="rgb(69,69,69)" stroke-width="1" opacity="1" d="M 96.5 48 L 95.5 50 L 96.5 48 Z "></path><path fill="rgb(69,69,69)" stroke="rgb(69,69,69)" stroke-width="1" opacity="1" d="M 122.5 48 L 123.5 50 L 122.5 48 Z "></path><path fill="rgb(69,69,69)" stroke="rgb(69,69,69)" stroke-width="1" opacity="1" d="M 16.5 49 L 15.5 51 L 16.5 49 Z "></path><path fill="rgb(69,69,69)" stroke="rgb(69,69,69)" stroke-width="1" opacity="1" d="M 100.5 49 L 99.5 51 L 100.5 49 Z "></path><path fill="rgb(69,69,69)" stroke="rgb(69,69,69)" stroke-width="1" opacity="1" d="M 42.5 52 L 43.5 54 L 42.5 52 Z "></path><path fill="rgb(69,69,69)" stroke="rgb(69,69,69)" stroke-width="1" opacity="1" d="M 126.5 52 L 127.5 54 L 126.5 52 Z "></path><path fill="rgb(69,69,69)" stroke="rgb(69,69,69)" stroke-width="1" opacity="1" d="M 7.5 53 L 6.5 55 L 7.5 53 Z "></path><path fill="rgb(69,69,69)" stroke="rgb(69,69,69)" stroke-width="1" opacity="1" d="M 91.5 53 L 90.5 55 L 91.5 53 Z "></path><path fill="rgb(69,69,69)" stroke="rgb(69,69,69)" stroke-width="1" opacity="1" d="M 10.5 62 L 11 73.5 L 10 73.5 L 10.5 62 Z "></path><path fill="rgb(69,69,69)" stroke="rgb(69,69,69)" stroke-width="1" opacity="1" d="M 94.5 62 L 95 73.5 L 94 73.5 L 94.5 62 Z "></path><path fill="rgb(69,69,69)" stroke="rgb(69,69,69)" stroke-width="1" opacity="1" d="M 40.5 64 L 41 73.5 L 40 73.5 L 40.5 64 Z "></path><path fill="rgb(69,69,69)" stroke="rgb(69,69,69)" stroke-width="1" opacity="1" d="M 124.5 64 L 125 73.5 L 124 73.5 L 124.5 64 Z "></path><path fill="rgb(69,69,69)" stroke="rgb(69,69,69)" stroke-width="1" opacity="1" d="M 6.5 82 L 7.5 84 L 6.5 82 Z "></path><path fill="rgb(69,69,69)" stroke="rgb(69,69,69)" stroke-width="1" opacity="1" d="M 90.5 82 L 91.5 84 L 90.5 82 Z "></path><path fill="rgb(69,69,69)" stroke="rgb(69,69,69)" stroke-width="1" opacity="1" d="M 43.5 83 L 39.5 88 L 43.5 83 Z "></path><path fill="rgb(69,69,69)" stroke="rgb(69,69,69)" stroke-width="1" opacity="1" d="M 127.5 83 L 123.5 88 L 127.5 83 Z "></path><path fill="rgb(69,69,69)" stroke="rgb(69,69,69)" stroke-width="1" opacity="1" d="M 50.5 87 L 51 89.5 L 50 89.5 L 50.5 87 Z "></path><path fill="rgb(69,69,69)" stroke="rgb(69,69,69)" stroke-width="1" opacity="1" d="M 23.5 90 L 28 90.5 L 23.5 91 L 23.5 90 Z "></path><path fill="rgb(69,69,69)" stroke="rgb(69,69,69)" stroke-width="1" opacity="1" d="M 107.5 90 L 112 90.5 L 107.5 91 L 107.5 90 Z "></path><path fill="rgb(69,69,69)" stroke="rgb(69,69,69)" stroke-width="1" opacity="1" d="M 49.5 91 L 48.5 93 L 49.5 91 Z "></path><path fill="rgb(69,69,69)" stroke="rgb(69,69,69)" stroke-width="1" opacity="1" d="M 22.5 92 L 29 92.5 L 22.5 93 L 22.5 92 Z "></path><path fill="rgb(69,69,69)" stroke="rgb(69,69,69)" stroke-width="1" opacity="1" d="M 106.5 92 L 113 92.5 L 106.5 93 L 106.5 92 Z "></path><path fill="rgb(69,69,69)" stroke="rgb(69,69,69)" stroke-width="1" opacity="1" d="M 43 93 L 45.5 94 L 63.5 94 L 65.5 93 L 64.5 95 L 43.5 95 L 43 93 Z "></path><path fill="rgb(69,69,69)" stroke="rgb(69,69,69)" stroke-width="1" opacity="1" d="M 70.5 93 L 71.5 94 L 89.5 94 L 92 93 L 91.5 95 L 70 95 L 70.5 93 Z "></path><path fill="rgb(0,0,0)" stroke="rgb(0,0,0)" stroke-width="1" opacity="1" d="M 46.5 42 L 62 42.5 L 58 45.5 L 58 90.5 L 60.5 93 L 64 93.5 L 45.5 94 L 45.5 93 Q 49.3 93.8 50 91.5 L 51 89.5 L 51 46.5 L 48.5 43 Q 45.5 43.5 46.5 42 Z "></path><path fill="rgb(0,0,0)" stroke="rgb(0,0,0)" stroke-width="1" opacity="1" d="M 72.5 42 L 89 42.5 L 85 44.5 L 84 46.5 L 84 89.5 L 85 92 L 90 93.5 L 71.5 94 L 71.5 93 Q 76.3 93.8 77 90.5 L 77 45.5 L 74.5 43 Q 71.5 43.5 72.5 42 Z "></path><path fill="rgb(0,0,0)" stroke="rgb(0,0,0)" stroke-width="1" opacity="1" d="M 19.5 45 L 31.5 45 L 42 51.5 Q 49.2 57.8 48 72.5 Q 46.1 84.1 37.5 89 Q 32 94 19.5 92 Q 12.1 89.9 8 84.5 L 3 73.5 L 3 63.5 Q 4.9 54.9 10.5 50 L 19.5 45 Z M 23 46 L 17 49 Q 11 54 10 63 L 10 74 L 14 85 Q 17 89 24 91 Q 30 92 33 89 L 38 84 L 41 74 L 41 65 L 38 54 Q 34 46 23 46 Z "></path><path fill="rgb(0,0,0)" stroke="rgb(0,0,0)" stroke-width="1" opacity="1" d="M 103.5 45 L 115.5 45 L 126 51.5 Q 133.2 57.8 132 72.5 Q 130.1 84.1 121.5 89 Q 116 94 103.5 92 Q 96.1 89.9 92 84.5 L 87 73.5 L 87 63.5 Q 88.9 54.9 94.5 50 L 103.5 45 Z M 107 46 L 101 49 Q 95 54 94 63 L 94 74 L 98 85 Q 101 89 108 91 Q 114 92 117 89 L 122 84 L 125 74 L 125 65 L 122 54 Q 118 46 107 46 Z "></path></svg>