<?xml version="1.0" encoding="UTF-8" standalone="no"?>
<svg
   width="161.89215"
   height="203.23296"
   viewBox="0 0 161.89215 203.23296"
   version="1.1"
   id="svg52"
   sodipodi:docname="olive.svg"
   inkscape:version="1.1 (c4e8f9e, 2021-05-24)"
   xmlns:inkscape="http://www.inkscape.org/namespaces/inkscape"
   xmlns:sodipodi="http://sodipodi.sourceforge.net/DTD/sodipodi-0.dtd"
   xmlns="http://www.w3.org/2000/svg"
   xmlns:svg="http://www.w3.org/2000/svg">
  <sodipodi:namedview
     id="namedview54"
     pagecolor="#ffffff"
     bordercolor="#666666"
     borderopacity="1.0"
     inkscape:pageshadow="2"
     inkscape:pageopacity="0.0"
     inkscape:pagecheckerboard="0"
     showgrid="false"
     inkscape:zoom="2.9414062"
     inkscape:cx="62.895086"
     inkscape:cy="147.37849"
     inkscape:window-width="1301"
     inkscape:window-height="869"
     inkscape:window-x="58"
     inkscape:window-y="25"
     inkscape:window-maximized="0"
     inkscape:current-layer="svg52" />
  <defs
     id="defs4">
    <style
       id="style2">
      .cls-1 {
        fill: #204020;
        fill-rule: evenodd;
      }
    </style>
  </defs>
  <path
     class="cls-1"
     d="m 24.719155,39.129231 c 0,0 11.254,11.327 17.058,22.762 a 55.7,55.7 0 0 1 5.686,22.05"
     id="path6" />
  <path
     class="cls-1"
     d="m 36.801155,49.798231 c 0,0 7.553,-3.239 23.455,1.423 19,5.571 50.463005,19.916 50.463005,19.916"
     id="path8" />
  <path
     class="cls-1"
     d="m 36.091155,50.506231 c 0,0 8.049,-8.539 27.719,-9.958 19.776,-1.426 51.173005,4.268 51.173005,4.268"
     id="path10" />
  <path
     class="cls-1"
     d="m 56.702155,66.870231 a 122.433,122.433 0 0 1 21.323,6.4 255.787,255.787 0 0 1 27.007005,13.516"
     id="path12" />
  <path
     class="cls-1"
     d="m 51.732155,61.891231 a 100.015,100.015 0 0 1 13.5,27.74 c 6.056,20.137999 7.108,46.233999 7.108,46.233999"
     id="path14" />
  <path
     class="cls-1"
     d="m 74.471155,80.384231 c 0,0 5.094,8.4 7.107,15.649 a 19.726,19.726 0 0 1 0,9.957999"
     id="path16" />
  <path
     class="cls-1"
     d="m 95.793155,100.30623 c 0,0 -3.609,3.933 0.711,14.937 3.383,8.618 14.926005,24.895 14.926005,24.895"
     id="path18" />
  <path
     class="cls-1"
     d="m 95.082155,99.589231 c 0,0 3.332,-3.867 18.480005,-1.422 17.7,2.856999 47.62,12.091999 47.62,12.091999"
     id="path20" />
  <path
     class="cls-1"
     d="m 117.11516,123.77323 c 0,0 3.365,-0.824 12.794,2.846 9.755,3.8 25.587,12.092 25.587,12.092"
     id="path22" />
  <path
     class="cls-1"
     d="m 65.942155,41.263231 c 0,0 6.36,-6.588 19.19,-5.69 32.233005,2.254 30.562005,12.8 30.562005,12.8 0,0 -7.729,-0.127 -12.793,-0.711 a 15.918,15.918 0 0 1 -5.686005,-1.423 c 0,0 1.636,4.036 0.71,4.268 -0.926,0.232 -10.948,-1.078 -19.9,-3.556 -10.947,-3.028 -12.083,-5.688 -12.083,-5.688 z"
     id="path24" />
  <path
     class="cls-1"
     d="m 53.149155,50.506231 c -1.531,-0.223 12.793,7.113 12.793,7.113 0,0 6.776,9.559 16.347,12.8 5.3,1.8 9.9,1.989 14.926,2.134 1.438,0.041 3.431005,2.772 4.975005,2.845 1.965,0.093 3.431,-2.48 4.579,-2.556 a 60.868,60.868 0 0 0 6.082,-1 c 0.016,-0.011 -5.06,-5.71 -17.277005,-10.271 a 195.791,195.791 0 0 0 -42.425,-11.065 z"
     id="path26" />
  <path
     class="cls-1"
     d="m 85.843155,77.539231 c 3.724,-7.721 28.525005,2.389 22.033005,12.8 -4.944,7.927 -25.753005,-5.088 -22.033005,-12.8 z"
     id="path28" />
  <path
     class="cls-1"
     d="m 78.732155,93.899231 c -9,0.41 -1.96,15.185999 4.265,14.936999 5.119,-0.205 4.744,-15.346999 -4.265,-14.936999 z"
     id="path30" />
  <path
     class="cls-1"
     d="m 41.777155,66.158231 c -13.805,2.978 -3.137,23.894 8.529,22.05 8.12,-1.282 5.642,-11.1 0,-17.071 -2.465,-2.61 -5.353,-5.664 -8.529,-4.979 z"
     id="path32" />
  <path
     class="cls-1"
     d="m 63.099155,87.497231 c 0,0 -10.352,5.164 -4.265,26.317999 6.087,21.154 12.798,23.473 12.798,23.473 0,0 0.745,0.558 1.421,-23.473 0.559,-20.008999 -9.954,-26.317999 -9.954,-26.317999 z"
     id="path34" />
  <path
     class="cls-1"
     d="m 94.372155,106.70623 c 0,0 6.658005,1.9 12.793005,10.67 6.135,8.77 4.265,24.9 4.265,24.9 l -15.637005,-18.494 c 0,0 -0.028,-0.343 -0.077,-0.931 -9.115,-11.412 -1.344,-16.145 -1.344,-16.145 z"
     id="path36" />
  <path
     class="cls-1"
     d="m 119.24816,130.17523 c 0,0 -4.236,1.917 -2.133,12.092 2.103,10.175 2.687,11.945 4.265,14.226 1.578,2.281 6.036,-3.681 5.686,-12.8 a 17.26,17.26 0 0 0 -7.818,-13.518 z"
     id="path38" />
  <path
     class="cls-1"
     d="m 127.77716,128.04123 c 0,0 4.778,-8.956 16.347,-0.711 11.569,8.245 14.215,12.092 14.215,12.092 0,0 -3.94,3.489 -19.19,-1.423 -15.25,-4.912 -11.372,-9.958 -11.372,-9.958 z"
     id="path40" />
  <path
     class="cls-1"
     d="m 128.48716,137.28823 c 0,0 -1.529,8.593 3.554,12.8 5.083,4.207 22.033,7.825 22.033,7.825 -0.077,-0.041 0.562,-3.1 -13.055,-16.217 -11.176,-10.761 -12.532,-4.408 -12.532,-4.408 z"
     id="path42" />
  <path
     class="cls-1"
     d="m 110.00816,98.167231 c 0,0 18.741,16.017999 24.876,17.070999 6.135,1.053 27.008,-3.557 27.008,-3.557 0,0 -9.294,-6.108 -26.3,-10.669 -17.006,-4.560999 -25.584,-2.844999 -25.584,-2.844999 z"
     id="path44" />
  <path
     class="cls-1"
     d="m 119.24816,126.61923 a 87.5,87.5 0 0 1 2.843,13.514 125.537,125.537 0 0 1 0.71,15.649"
     id="path46" />
  <path
     class="cls-1"
     d="m 114.98316,120.92823 c 0,0 12.273,14.15 21.323,22.05 7.508,6.555 17.768,14.226 17.768,14.226"
     id="path48" />
  <path
     class="cls-1"
     d="m 4.8181553,0.00623122 c -2.794,0.559 -12.873,3.02299998 8.5289997,29.16299978 22.394,27.351 49.925,43.347 71.074,63.305 24.692005,23.299999 41.934005,43.388999 41.934005,43.388999 A 225.312,225.312 0 0 0 89.396155,91.052231 c -22.92,-21.546 -56.264,-42.717 -72.495,-62.592 -7.6689997,-9.39 -15.1189997,-19.3539998 -6.397,-24.1849998 0.598,-0.331 -4.7359997,-4.45699998 -5.6859997,-4.26899998 z"
     id="path50"
     style="fill:#204020" />
  <g
     aria-label="Olive"
     id="text1291"
     style="font-size:40px;line-height:1.25"
     transform="translate(-46.867845,-49.393769)">
    <path
       d="m 109.6789,226.27907 q 1.77735,1.95312 2.71485,4.78515 0.95703,2.83204 0.95703,6.42579 0,3.59375 -0.97657,6.44531 -0.95703,2.83203 -2.69531,4.72656 -1.79687,1.97266 -4.25781,2.96875 -2.44141,0.99609 -5.585938,0.99609 -3.066407,0 -5.585938,-1.01562 -2.5,-1.01563 -4.257812,-2.94922 -1.757813,-1.93359 -2.714844,-4.74609 -0.9375,-2.8125 -0.9375,-6.42578 0,-3.55469 0.9375,-6.36719 0.9375,-2.83203 2.734375,-4.84375 1.71875,-1.91406 4.257812,-2.92969 2.558594,-1.01562 5.566407,-1.01562 3.124998,0 5.605468,1.03515 2.5,1.01563 4.23828,2.91016 z m -0.35156,11.21094 q 0,-5.66407 -2.53906,-8.73047 -2.53907,-3.08594 -6.933597,-3.08594 -4.433594,0 -6.972656,3.08594 -2.519532,3.0664 -2.519532,8.73047 0,5.72265 2.578125,8.76953 2.578125,3.02734 6.914063,3.02734 4.335937,0 6.894527,-3.02734 2.57813,-3.04688 2.57813,-8.76953 z"
       style="fill:#204020"
       id="path6179" />
    <path
       d="m 122.90156,252.02126 h -3.67188 v -30.39063 h 3.67188 z"
       style="fill:#204020"
       id="path6181" />
    <path
       d="m 134.15156,226.55251 h -4.14063 v -3.8086 h 4.14063 z m -0.23438,25.46875 h -3.67187 v -21.81641 h 3.67187 z"
       style="fill:#204020"
       id="path6183" />
    <path
       d="m 160.08906,230.20485 -8.82813,21.81641 h -3.6914 L 138.8,230.20485 h 3.98437 l 6.75781,17.36328 6.69922,-17.36328 z"
       style="fill:#204020"
       id="path6185" />
    <path
       d="m 183.15546,241.49391 h -16.07421 q 0,2.01172 0.60546,3.51563 0.60547,1.48437 1.66016,2.4414 1.01563,0.9375 2.40234,1.40625 1.40625,0.46875 3.08594,0.46875 2.22656,0 4.47266,-0.8789 2.26562,-0.89844 3.22265,-1.75782 h 0.19532 v 4.00391 q -1.85547,0.78125 -3.78907,1.30859 -1.93359,0.52735 -4.0625,0.52735 -5.42968,0 -8.47656,-2.92969 -3.04687,-2.94922 -3.04687,-8.35937 0,-5.35157 2.91015,-8.4961 2.92969,-3.14453 7.69532,-3.14453 4.41406,0 6.79687,2.57813 2.40234,2.57812 2.40234,7.32421 z m -3.57421,-2.8125 q -0.0195,-2.89062 -1.46485,-4.47265 -1.42578,-1.58204 -4.35547,-1.58204 -2.94922,0 -4.70703,1.73829 -1.73828,1.73828 -1.97265,4.3164 z"
       style="fill:#204020"
       id="path6187" />
  </g>
</svg>
