<?xml version="1.0" encoding="UTF-8"?><svg xmlns="http://www.w3.org/2000/svg" width="85.3669mm" height="27.1652mm" viewBox="0 0 241.9849 77.0037"><g id="uuid-c5b62c3c-584d-4021-9be7-04d5f2e1f0b1"><g><path d="m125.7768,28.6934v5.6514c0,5.8672-3.4199,10.2227-10.3672,10.2227-6.875,0-10.3301-4.3555-10.3301-10.2227v-5.6514c0-5.9395,3.4189-10.2588,10.3301-10.2588,6.9473,0,10.3672,4.3193,10.3672,10.2588Zm-16.1621-.0361v5.7598c0,3.959,1.8359,6.6592,5.7949,6.6592s5.7959-2.7002,5.7959-6.6592v-5.7598c0-4.0674-1.8721-6.7305-5.7959-6.7305s-5.7949,2.6631-5.7949,6.7305Z"/><path d="m146.8843,33.5167v1.9082c0,5.3633-3.3838,9.1426-7.8115,9.1426-1.7275,0-3.167-.54-4.4277-1.5479v8.2793h-4.4629v-26.3486h3.8154l.252,1.8359c1.2959-1.4766,3.0957-2.3398,5.3994-2.3398,4.2471,0,7.2354,3.5635,7.2354,9.0703Zm-4.4639-.1436c0-3.708-1.4033-5.543-3.7793-5.543-1.6201,0-3.0234.7559-3.9961,2.0156v10.0068c1.0801.8994,2.2324,1.3672,3.6357,1.3672,2.5557,0,4.1396-1.9072,4.1396-5.6514v-2.1953Z"/><path d="m166.2739,35.9288h-12.3467c.0723,3.6719,1.7637,5.291,5.0762,5.291,2.0869,0,3.6348-.7559,5.1113-1.584l1.583,2.6641c-1.6191,1.2236-4.2109,2.2676-6.9824,2.2676-5.832,0-9.1436-3.8516-9.1436-9.0352v-1.9795c0-5.1836,3.2402-9.1064,8.5674-9.1064,5.2197,0,8.2793,3.2393,8.2793,9.3223,0,.792-.0723,1.584-.1445,2.1602Zm-3.8516-3.0957c0-3.3115-1.4756-5.1113-4.2471-5.1113-2.7363,0-4.1758,1.7998-4.248,5.291h8.4951v-.1797Z"/><path d="m185.9653,30.8536v13.2461h-4.4629v-12.8867c0-2.4111-1.1523-3.3828-2.9883-3.3828-1.7275,0-3.0596.8994-4.1396,2.4111v13.8584h-4.4629v-19.1494h3.8154l.2881,1.9795c1.332-1.584,3.1318-2.4834,5.6875-2.4834,3.5635,0,6.2627,2.2676,6.2627,6.4072Z"/><path d="m209.0786,34.129h-3.7793v9.9707h-4.5361v-25.1973h8.4951c5.291,0,8.8193,2.5205,8.8193,6.6592v1.8721c0,2.8076-1.7646,4.8232-4.5723,5.9033l5.7959,10.7627h-4.9678l-5.2549-9.9707Zm-3.7793-3.3838h3.8154c2.6992,0,4.3906-1.2236,4.3906-3.4189v-1.5479c0-2.2686-1.7275-3.4561-4.4268-3.4561h-3.7793v8.4229Z"/><path d="m220.3872,18.9024h4.7148l6.3359,21.4541,5.9033-21.4541h4.6436l-7.4873,25.1973h-6.1914l-7.9189-25.1973Z"/></g></g><g id="uuid-20faba31-3ff2-4a3d-b14c-e579314c63bc"><path d="m13.6407.0379l.02-.0339,64.1293,14.1717h6.6615v62.8281H11.998c-2.513,0-4.5502-2.0372-4.5502-4.5502v-6.1561L13.6407.0379Z" fill="#3d3d3d"/><polygon points="0 71.2285 13.6507 63.0031 13.6507 0 0 8.2254 0 71.2285" fill="#fff"/><path d="m13.6507,1.1946v60.641l-12.6507,7.6228V8.7903L13.6507,1.1946Z"/><path d="m78.2487,63.0031H13.6507V.0379l.0199-.0379h60.0279c2.513,0,4.5502,2.0372,4.5502,4.5502v58.4528Z" fill="#fff"/><path d="m73.6984,1c1.9576,0,3.5503,1.5926,3.5503,3.5502v57.4529H14.6507V1h59.0477"/><g><rect x="36.8621" y="3.0006" width="18.175" height="51.0582" fill="#36a4cb"/><path d="m73.7526,3.0006h-17.3404v51.0582h17.3404c.8262,0,1.496-.6235,1.496-1.3925V4.3932c0-.7691-.6698-1.3926-1.496-1.3926Z" fill="#36a4cb"/><path d="m35.4871,3.0006h-17.3403c-.8262,0-1.496.6235-1.496,1.3926v48.2731c0,.769.6698,1.3925,1.496,1.3925h17.3403V3.0006Z" fill="#36a4cb"/></g><rect x="19.0007" y="29.1961" width="7.5118" height="7.5118" rx="1.4167" ry="1.4167"/><rect x="40.6473" y="20.436" width="7.5118" height="7.5118" rx="1.4167" ry="1.4167"/><rect x="62.0745" y="26.1739" width="7.5118" height="7.5118" rx="1.4167" ry="1.4167"/><path d="m10.994,4.7913l-7.9878,4.796c-.4691.2817-.7561.7887-.7561,1.3359v47.8228c0,.5931.6476.959,1.1556.6529l7.9889-4.8138c.4679-.2819.754-.7883.754-1.3346V5.4447c0-.5926-.6465-.9585-1.1546-.6535Z" fill="#52c7e8"/><path d="m10.994,56.8329l-7.9878,4.796c-.4691.2817-.7561.7887-.7561,1.3359v2.3895c0,.5931.6476.959,1.1556.6529l7.9889-4.8138c.4679-.2819.754-.7883.754-1.3346v-2.3724c0-.5926-.6465-.9585-1.1546-.6535Z" fill="#52ad72"/><path d="m4.8396,48.4858l3.4401-2.0729c.6389-.385,1.0295-1.0764,1.0295-1.8223v-4.4459c0-.8154-.8903-1.3184-1.5887-.8975l-3.4401,2.0729c-.6389.385-1.0295,1.0764-1.0295,1.8223v4.4459c0,.8154.8903,1.3184,1.5887.8975Z"/><path d="m65.8304,40.1986c-5.6621,0-10.2686-4.6064-10.2686-10.2686s4.6064-10.269,10.2686-10.269,10.2686,4.6069,10.2686,10.269-4.6064,10.2686-10.2686,10.2686Zm0-17.8003c-4.1533,0-7.5322,3.3784-7.5322,7.5317s3.3789,7.5312,7.5322,7.5312,7.5322-3.3784,7.5322-7.5312-3.3789-7.5317-7.5322-7.5317Z" fill="#e41a52"/><path d="m57.4414,56.0604h16.778c.568,0,1.0292.4612,1.0292,1.0292v1.8848c0,.5674-.4607,1.0281-1.0281,1.0281h-16.7791c-.568,0-1.0292-.4612-1.0292-1.0292v-1.8837c0-.568.4612-1.0292,1.0292-1.0292Z" fill="#e41a52"/><path d="m37.8731,56.0604h16.1531c.558,0,1.011.453,1.011,1.011v1.9213c0,.5574-.4525,1.0098-1.0098,1.0098h-16.1542c-.558,0-1.011-.453-1.011-1.011v-1.9201c0-.558.453-1.011,1.011-1.011Z" fill="#008c4a"/><path d="m17.68,56.0604h16.778c.568,0,1.0292.4612,1.0292,1.0292v1.8848c0,.5674-.4607,1.0281-1.0281,1.0281h-16.7791c-.568,0-1.0292-.4612-1.0292-1.0292v-1.8837c0-.568.4612-1.0292,1.0292-1.0292Z" fill="#008c4a"/></g></svg>