<?xml version="1.0" encoding="UTF-8" standalone="no"?>
<svg
   viewBox="0 0 380.47998 107.63707"
   height="107.63707"
   width="380.47998"
   xml:space="preserve"
   id="svg2"
   version="1.1"
   sodipodi:docname="openassetio.svg"
   inkscape:version="1.1.1 (c3084ef, 2021-09-22)"
   xmlns:inkscape="http://www.inkscape.org/namespaces/inkscape"
   xmlns:sodipodi="http://sodipodi.sourceforge.net/DTD/sodipodi-0.dtd"
   xmlns="http://www.w3.org/2000/svg"
   xmlns:svg="http://www.w3.org/2000/svg"
   xmlns:rdf="http://www.w3.org/1999/02/22-rdf-syntax-ns#"
   xmlns:cc="http://creativecommons.org/ns#"
   xmlns:dc="http://purl.org/dc/elements/1.1/"><sodipodi:namedview
     id="namedview15"
     pagecolor="#ffffff"
     bordercolor="#666666"
     borderopacity="1.0"
     inkscape:pageshadow="2"
     inkscape:pageopacity="0.0"
     inkscape:pagecheckerboard="0"
     showgrid="false"
     inkscape:zoom="2.9620479"
     inkscape:cx="190.24001"
     inkscape:cy="27.345946"
     inkscape:window-width="1908"
     inkscape:window-height="1020"
     inkscape:window-x="1770"
     inkscape:window-y="287"
     inkscape:window-maximized="0"
     inkscape:current-layer="svg2" /><metadata
     id="metadata8"><rdf:RDF><cc:Work
         rdf:about=""><dc:format>image/svg+xml</dc:format><dc:type
           rdf:resource="http://purl.org/dc/dcmitype/StillImage" /></cc:Work></rdf:RDF></metadata><defs
     id="defs6" /><g
     transform="matrix(1.3333333,0,0,-1.3333333,0,54.370265)"
     id="g10"><g
       transform="scale(0.1)"
       id="g12"><path
         id="path14"
         style="fill:#f9a70d;fill-opacity:1;fill-rule:nonzero;stroke:none"
         d="M 2853.6,97.8828 C 2853.6,43.8164 2809.79,0 2755.72,0 c -54.05,0 -97.88,43.8164 -97.88,97.8828 0,54.0702 43.83,97.8872 97.88,97.8872 54.07,0 97.88,-43.817 97.88,-97.8872" /><path
         id="path16"
         style="fill:#231f20;fill-opacity:1;fill-rule:nonzero;stroke:none"
         d="m 76.1836,327.637 v -90.02 H 244.121 v -69.98 H 76.1836 V 7.83203 H 0 V 399.883 H 277.563 V 327.637 H 76.1836" /><path
         id="path18"
         style="fill:#231f20;fill-opacity:1;fill-rule:nonzero;stroke:none"
         d="M 1109.13,399.883 V 168.027 C 1109.13,59.9414 1046.75,0 945.867,0 844.41,0 782.613,60.5078 782.613,168.027 v 231.856 h 79.883 V 168.027 c 0,-65.547 28.559,-96.3278 83.371,-96.3278 55.393,0 83.953,30.7808 83.953,96.3278 v 231.856 h 79.31" /><path
         id="path20"
         style="fill:#231f20;fill-opacity:1;fill-rule:nonzero;stroke:none"
         d="M 1503.43,399.883 V 7.85156 h -69.44 c 0,0 -169.41,258.18344 -169.96,258.18344 h -2.15 V 7.85156 h -72.62 V 399.883 h 69.44 c 0,0 169.69,-255.957 170.25,-255.957 h 1.12 v 255.957 h 73.36" /><path
         id="path22"
         style="fill:#231f20;fill-opacity:1;fill-rule:nonzero;stroke:none"
         d="m 1736.24,80.0664 c 62.73,0 108.65,44.2576 108.65,122.0896 0,80.117 -48.16,126.035 -110.89,126.035 h -72.8 V 80.0664 Z m -5.6,319.8166 c 111.45,0 193.22,-78.43 193.22,-197.727 0,-118.7107 -80.64,-194.31225 -190.98,-194.31225 H 1585.03 V 399.883 h 145.61" /><path
         id="path24"
         style="fill:#231f20;fill-opacity:1;fill-rule:nonzero;stroke:none"
         d="m 2072.7,210.012 h 97.12 c 39.77,0 59.94,27.437 59.94,59.375 0,32.476 -20.73,58.804 -59.94,58.804 H 2072.7 Z M 2237.04,7.84375 2165.9,142.258 h -93.2 V 7.84375 h -76.18 V 399.883 h 166.03 c 89.05,0 146.19,-51.535 146.19,-130.496 0,-53.203 -26.33,-92.407 -70.03,-112.016 L 2322.74,7.84375 h -85.7" /><path
         id="path26"
         style="fill:#231f20;fill-opacity:1;fill-rule:nonzero;stroke:none"
         d="M 2683.11,399.883 2544.22,181.453 V 7.84375 h -76.17 V 181.453 l -138.91,218.43 h 83.46 c 0,0 92.98,-150.11 93.53,-150.11 h 0.56 c 0.56,0 92.97,150.11 92.97,150.11 h 83.45" /><path
         id="path28"
         style="fill:#231f20;fill-opacity:1;fill-rule:nonzero;stroke:none"
         d="m 519.688,76.6484 c 70.625,0 127.894,57.2696 127.894,127.8716 0,70.648 -57.269,127.89 -127.894,127.89 -70.622,0 -127.879,-57.242 -127.879,-127.89 0,-70.602 57.257,-127.8716 127.879,-127.8716 z M 722.941,204.52 C 722.941,92.2852 631.949,1.30078 519.691,1.30078 407.457,1.30078 316.445,92.2852 316.445,204.52 c 0,112.257 91.012,203.257 203.246,203.257 112.258,0 203.25,-91 203.25,-203.257" /></g></g><g
     aria-label="OpenAssetIO"
     id="text437"
     style="font-size:40px;line-height:1.25"
     transform="translate(0,-0.00306769)"><path
       d="m 84.527103,73.851074 q 1.777344,1.953125 2.714844,4.785156 0.957031,2.832032 0.957031,6.425782 0,3.59375 -0.976562,6.445312 -0.957031,2.832031 -2.695313,4.726563 -1.796875,1.972656 -4.257812,2.96875 -2.441406,0.996093 -5.585938,0.996093 -3.066406,0 -5.585937,-1.015625 -2.5,-1.015625 -4.257813,-2.949218 -1.757812,-1.933594 -2.714843,-4.746094 -0.9375,-2.8125 -0.9375,-6.425781 0,-3.554688 0.9375,-6.367188 0.9375,-2.832031 2.734375,-4.84375 1.71875,-1.914062 4.257812,-2.929687 2.558594,-1.015625 5.566406,-1.015625 3.125,0 5.605469,1.035156 2.5,1.015625 4.238281,2.910156 z m -0.351562,11.210938 q 0,-5.664063 -2.539063,-8.730469 -2.539062,-3.085938 -6.933593,-3.085938 -4.433594,0 -6.972657,3.085938 -2.519531,3.066406 -2.519531,8.730469 0,5.722656 2.578125,8.769531 2.578125,3.027344 6.914063,3.027344 4.335937,0 6.894531,-3.027344 2.578125,-3.046875 2.578125,-8.769531 z"
       id="path1077" /><path
       d="m 113.23804,88.421387 q 0,2.65625 -0.76172,4.863281 -0.76172,2.1875 -2.14844,3.710937 -1.28906,1.445313 -3.04687,2.246094 -1.73828,0.781251 -3.69141,0.781251 -1.69922,0 -3.08593,-0.371095 -1.367192,-0.371093 -2.792973,-1.152343 v 9.140628 H 94.038822 V 77.776855 h 3.671875 v 2.285157 q 1.464844,-1.230469 3.281253,-2.050782 1.83593,-0.839843 3.90625,-0.839843 3.94531,0 6.13281,2.988281 2.20703,2.96875 2.20703,8.261719 z m -3.78906,0.09766 q 0,-3.945313 -1.34766,-5.898438 -1.34765,-1.953125 -4.14062,-1.953125 -1.58203,0 -3.1836,0.683594 -1.601559,0.683594 -3.066403,1.796875 V 95.51123 q 1.5625,0.703125 2.675783,0.957032 1.13281,0.253906 2.55859,0.253906 3.06641,0 4.78516,-2.070313 1.71875,-2.070312 1.71875,-6.132812 z"
       id="path1079" /><path
       d="M 137.22242,89.065918 H 121.1482 q 0,2.011719 0.60547,3.515625 0.60546,1.484375 1.66015,2.441406 1.01563,0.9375 2.40235,1.40625 1.40625,0.46875 3.08593,0.46875 2.22657,0 4.47266,-0.878906 2.26562,-0.898438 3.22266,-1.757813 h 0.19531 v 4.003907 q -1.85547,0.78125 -3.78906,1.308593 -1.9336,0.52734 -4.0625,0.52734 -5.42969,0 -8.47657,-2.929683 -3.04687,-2.949219 -3.04687,-8.359375 0,-5.351563 2.91015,-8.496094 2.92969,-3.144531 7.69532,-3.144531 4.41406,0 6.79687,2.578125 2.40235,2.578125 2.40235,7.324218 z m -3.57422,-2.8125 q -0.0195,-2.890625 -1.46485,-4.472656 -1.42578,-1.582032 -4.35547,-1.582032 -2.94921,0 -4.70703,1.738282 -1.73828,1.738281 -1.97265,4.316406 z"
       id="path1081" /><path
       d="m 161.03101,99.593262 h -3.67188 V 87.171387 q 0,-1.503907 -0.17578,-2.8125 -0.17578,-1.328125 -0.64453,-2.070313 -0.48828,-0.820312 -1.40625,-1.210937 -0.91797,-0.410157 -2.38281,-0.410157 -1.50391,0 -3.14453,0.742188 -1.64063,0.742187 -3.14453,1.894531 v 16.289063 h -3.67188 V 77.776855 h 3.67188 v 2.421875 q 1.71875,-1.425781 3.55468,-2.226562 1.83594,-0.800781 3.76954,-0.800781 3.53515,0 5.39062,2.128906 1.85547,2.128906 1.85547,6.132812 z"
       id="path1083" /><path
       d="m 191.32398,99.593262 h -4.1211 l -2.85156,-8.105469 H 171.7732 l -2.85157,8.105469 h -3.92578 L 175.58179,70.51123 h 5.15625 z M 183.15992,88.16748 178.06226,73.890137 172.94507,88.16748 Z"
       id="path1085" /><path
       d="m 211.03101,93.304199 q 0,2.988281 -2.48047,4.902344 -2.46094,1.914067 -6.73828,1.914067 -2.42188,0 -4.45313,-0.566411 -2.01171,-0.585937 -3.3789,-1.269531 v -4.121094 h 0.19531 q 1.73828,1.308594 3.86719,2.089844 2.1289,0.761719 4.08203,0.761719 2.42187,0 3.78906,-0.78125 1.36719,-0.78125 1.36719,-2.460938 0,-1.289062 -0.74219,-1.953125 -0.74219,-0.664062 -2.85156,-1.132812 -0.78125,-0.175782 -2.05078,-0.410157 -1.25,-0.234375 -2.28516,-0.507812 -2.87109,-0.761719 -4.08203,-2.226563 -1.19141,-1.484375 -1.19141,-3.632812 0,-1.347656 0.54688,-2.539063 0.56641,-1.191406 1.69922,-2.128906 1.09375,-0.917969 2.77344,-1.445312 1.69921,-0.546875 3.78906,-0.546875 1.95312,0 3.94531,0.488281 2.01172,0.46875 3.33984,1.152344 v 3.925781 h -0.19531 q -1.40625,-1.035156 -3.41797,-1.738281 -2.01172,-0.722657 -3.94531,-0.722657 -2.01172,0 -3.39844,0.78125 -1.38672,0.761719 -1.38672,2.285157 0,1.347656 0.83985,2.03125 0.82031,0.683593 2.65625,1.113281 1.01562,0.234375 2.26562,0.46875 1.26953,0.234375 2.10938,0.429687 2.55859,0.585938 3.94531,2.011719 1.38672,1.445313 1.38672,3.828125 z"
       id="path1087" /><path
       d="m 231.89038,93.304199 q 0,2.988281 -2.48046,4.902344 -2.46094,1.914067 -6.73829,1.914067 -2.42187,0 -4.45312,-0.566411 -2.01172,-0.585937 -3.37891,-1.269531 v -4.121094 h 0.19532 q 1.73828,1.308594 3.86718,2.089844 2.12891,0.761719 4.08203,0.761719 2.42188,0 3.78907,-0.78125 1.36718,-0.78125 1.36718,-2.460938 0,-1.289062 -0.74218,-1.953125 -0.74219,-0.664062 -2.85157,-1.132812 -0.78125,-0.175782 -2.05078,-0.410157 -1.25,-0.234375 -2.28515,-0.507812 -2.8711,-0.761719 -4.08203,-2.226563 -1.19141,-1.484375 -1.19141,-3.632812 0,-1.347656 0.54687,-2.539063 0.56641,-1.191406 1.69922,-2.128906 1.09375,-0.917969 2.77344,-1.445312 1.69922,-0.546875 3.78906,-0.546875 1.95313,0 3.94532,0.488281 2.01171,0.46875 3.33984,1.152344 v 3.925781 h -0.19531 q -1.40625,-1.035156 -3.41797,-1.738281 -2.01172,-0.722657 -3.94531,-0.722657 -2.01172,0 -3.39844,0.78125 -1.38672,0.761719 -1.38672,2.285157 0,1.347656 0.83984,2.03125 0.82032,0.683593 2.65625,1.113281 1.01563,0.234375 2.26563,0.46875 1.26953,0.234375 2.10937,0.429687 2.5586,0.585938 3.94532,2.011719 1.38671,1.445313 1.38671,3.828125 z"
       id="path1089" /><path
       d="m 255.42554,89.065918 h -16.07422 q 0,2.011719 0.60547,3.515625 0.60547,1.484375 1.66016,2.441406 1.01562,0.9375 2.40234,1.40625 1.40625,0.46875 3.08594,0.46875 2.22656,0 4.47265,-0.878906 2.26563,-0.898438 3.22266,-1.757813 h 0.19531 v 4.003907 q -1.85547,0.78125 -3.78906,1.308593 -1.93359,0.52734 -4.0625,0.52734 -5.42969,0 -8.47656,-2.929683 -3.04688,-2.949219 -3.04688,-8.359375 0,-5.351563 2.91016,-8.496094 2.92969,-3.144531 7.69531,-3.144531 4.41406,0 6.79688,2.578125 2.40234,2.578125 2.40234,7.324218 z m -3.57422,-2.8125 q -0.0195,-2.890625 -1.46484,-4.472656 -1.42578,-1.582032 -4.35547,-1.582032 -2.94922,0 -4.70703,1.738282 -1.73828,1.738281 -1.97266,4.316406 z"
       id="path1091" /><path
       d="m 272.32007,99.397949 q -1.03515,0.273438 -2.26562,0.449219 -1.21094,0.175782 -2.16797,0.175782 -3.33985,0 -5.07813,-1.796876 -1.73828,-1.796875 -1.73828,-5.761719 V 80.862793 h -2.48047 v -3.085938 h 2.48047 v -6.269531 h 3.67188 v 6.269531 h 7.57812 v 3.085938 h -7.57812 v 9.941406 q 0,1.71875 0.0781,2.695313 0.0781,0.957031 0.54688,1.796875 0.42968,0.78125 1.17187,1.152343 0.76172,0.351563 2.30469,0.351563 0.89844,0 1.875,-0.253906 0.97656,-0.273438 1.40625,-0.449219 h 0.19531 z"
       id="path1093" /><path
       d="M 287.32007,99.593262 H 275.8357 v -2.96875 h 3.80859 V 73.47998 h -3.80859 v -2.96875 h 11.48437 v 2.96875 h -3.80859 v 23.144532 h 3.80859 z"
       id="path1095" /><path
       d="m 315.62085,73.851074 q 1.77735,1.953125 2.71485,4.785156 0.95703,2.832032 0.95703,6.425782 0,3.59375 -0.97656,6.445312 -0.95704,2.832031 -2.69532,4.726563 -1.79687,1.972656 -4.25781,2.96875 -2.44141,0.996093 -5.58594,0.996093 -3.0664,0 -5.58593,-1.015625 -2.5,-1.015625 -4.25782,-2.949218 -1.75781,-1.933594 -2.71484,-4.746094 -0.9375,-2.8125 -0.9375,-6.425781 0,-3.554688 0.9375,-6.367188 0.9375,-2.832031 2.73437,-4.84375 1.71875,-1.914062 4.25782,-2.929687 2.55859,-1.015625 5.5664,-1.015625 3.125,0 5.60547,1.035156 2.5,1.015625 4.23828,2.910156 z m -0.35156,11.210938 q 0,-5.664063 -2.53906,-8.730469 -2.53906,-3.085938 -6.9336,-3.085938 -4.43359,0 -6.97265,3.085938 -2.51953,3.066406 -2.51953,8.730469 0,5.722656 2.57812,8.769531 2.57813,3.027344 6.91406,3.027344 4.33594,0 6.89454,-3.027344 2.57812,-3.046875 2.57812,-8.769531 z"
       id="path1097" /></g></svg>
