<?xml version="1.0" encoding="UTF-8"?>
<svg id="Layer_1" data-name="Layer 1" xmlns="http://www.w3.org/2000/svg" viewBox="0 0 400 200">
  <defs>
    <style>
      .cls-1 {
        fill: rgba(1, 1, 1, 1);
      }

      .cls-2 {
        fill: #fdc11f;
      }
    </style>
  </defs>
  <g>
    <path class="cls-1" d="M137.87,43.81c2.9-2.9,2.9-7.6,0-10.5-2.9-2.9-7.6-2.9-10.5,0-2.9,2.9-2.9,7.6,0,10.5,2.9,2.9,7.6,2.9,10.5,0Z"/>
    <path class="cls-1" d="M152.21,45.28c3.71,0,6.72-3.01,6.72-6.72s-3.01-6.72-6.72-6.72-6.72,3.01-6.72,6.72,3.01,6.72,6.72,6.72Z"/>
    <path class="cls-1" d="M174.58,42.81c2.35-2.35,2.35-6.16,0-8.51s-6.16-2.35-8.51,0c-2.35,2.35-2.35,6.16,0,8.51,2.35,2.35,6.16,2.35,8.51,0Z"/>
    <path class="cls-1" d="M191.13,39.63c.58-2.48-.95-4.96-3.42-5.54-2.48-.58-4.96.95-5.54,3.42-.58,2.48.95,4.96,3.42,5.54,2.48.58,4.96-.95,5.54-3.42Z"/>
    <path class="cls-1" d="M137.87,59.15c2.9-2.9,2.9-7.6,0-10.5-2.9-2.9-7.6-2.9-10.5,0-2.9,2.9-2.9,7.6,0,10.5,2.9,2.9,7.6,2.9,10.5,0Z"/>
    <path class="cls-1" d="M152.21,60.62c3.71,0,6.72-3.01,6.72-6.72s-3.01-6.72-6.72-6.72-6.72,3.01-6.72,6.72,3.01,6.72,6.72,6.72Z"/>
    <path class="cls-1" d="M170.33,59.91c3.32,0,6.02-2.69,6.02-6.02s-2.69-6.02-6.02-6.02-6.02,2.69-6.02,6.02,2.69,6.02,6.02,6.02Z"/>
    <path class="cls-1" d="M189.9,57.15c1.8-1.8,1.8-4.72,0-6.51-1.8-1.8-4.72-1.8-6.52,0-1.8,1.8-1.8,4.72,0,6.51,1.8,1.8,4.72,1.8,6.52,0Z"/>
    <path class="cls-1" d="M137.87,74c2.9-2.9,2.9-7.6,0-10.5-2.9-2.9-7.6-2.9-10.5,0-2.9,2.9-2.9,7.6,0,10.5,2.9,2.9,7.6,2.9,10.5,0Z"/>
    <path class="cls-1" d="M152.21,75.47c3.71,0,6.72-3.01,6.72-6.72s-3.01-6.72-6.72-6.72-6.72,3.01-6.72,6.72,3.01,6.72,6.72,6.72Z"/>
    <path class="cls-1" d="M170.33,74.77c3.32,0,6.02-2.69,6.02-6.02s-2.69-6.02-6.02-6.02-6.02,2.69-6.02,6.02,2.69,6.02,6.02,6.02Z"/>
    <path class="cls-1" d="M191.13,69.82c.58-2.48-.95-4.96-3.42-5.54-2.48-.58-4.96.95-5.54,3.42-.58,2.48.95,4.96,3.42,5.54,2.48.58,4.96-.95,5.54-3.42Z"/>
    <path class="cls-1" d="M137.87,89.33c2.9-2.9,2.9-7.6,0-10.5-2.9-2.9-7.6-2.9-10.5,0-2.9,2.9-2.9,7.6,0,10.5,2.9,2.9,7.6,2.9,10.5,0Z"/>
    <path class="cls-1" d="M152.21,90.8c3.71,0,6.72-3.01,6.72-6.72s-3.01-6.72-6.72-6.72-6.72,3.01-6.72,6.72,3.01,6.72,6.72,6.72Z"/>
    <path class="cls-1" d="M174.58,88.34c2.35-2.35,2.35-6.16,0-8.51-2.35-2.35-6.16-2.35-8.51,0-2.35,2.35-2.35,6.16,0,8.51,2.35,2.35,6.16,2.35,8.51,0Z"/>
    <path class="cls-1" d="M189.9,87.34c1.8-1.8,1.8-4.72,0-6.51-1.8-1.8-4.72-1.8-6.51,0-1.8,1.8-1.8,4.72,0,6.51,1.8,1.8,4.72,1.8,6.51,0Z"/>
    <path class="cls-1" d="M132.62,106.36c4.1,0,7.43-3.33,7.43-7.43s-3.33-7.43-7.43-7.43-7.43,3.33-7.43,7.43,3.33,7.43,7.43,7.43Z"/>
    <path class="cls-1" d="M152.21,105.66c3.71,0,6.72-3.01,6.72-6.72s-3.01-6.72-6.72-6.72-6.72,3.01-6.72,6.72,3.01,6.72,6.72,6.72Z"/>
    <path class="cls-1" d="M170.33,104.95c3.32,0,6.02-2.69,6.02-6.02s-2.69-6.02-6.02-6.02-6.02,2.69-6.02,6.02,2.69,6.02,6.02,6.02Z"/>
    <path class="cls-1" d="M186.64,103.54c2.54,0,4.61-2.06,4.61-4.61s-2.06-4.61-4.61-4.61-4.61,2.06-4.61,4.61,2.06,4.61,4.61,4.61Z"/>
    <path class="cls-1" d="M199.89,102.84c2.15,0,3.9-1.75,3.9-3.9s-1.75-3.9-3.9-3.9-3.9,1.75-3.9,3.9,1.75,3.9,3.9,3.9Z"/>
    <path class="cls-1" d="M211.19,102.13c1.76,0,3.2-1.43,3.2-3.2s-1.43-3.2-3.2-3.2-3.2,1.43-3.2,3.2,1.43,3.2,3.2,3.2Z"/>
    <path class="cls-1" d="M137.87,119.52c2.9-2.9,2.9-7.6,0-10.5-2.9-2.9-7.6-2.9-10.5,0-2.9,2.9-2.9,7.6,0,10.5,2.9,2.9,7.6,2.9,10.5,0Z"/>
    <path class="cls-1" d="M152.21,120.99c3.71,0,6.72-3.01,6.72-6.72s-3.01-6.72-6.72-6.72-6.72,3.01-6.72,6.72,3.01,6.72,6.72,6.72Z"/>
    <path class="cls-1" d="M174.58,118.52c2.35-2.35,2.35-6.16,0-8.51-2.35-2.35-6.16-2.35-8.51,0-2.35,2.35-2.35,6.16,0,8.51,2.35,2.35,6.16,2.35,8.51,0Z"/>
    <path class="cls-1" d="M191.12,115.34c.58-2.48-.95-4.96-3.42-5.54-2.48-.58-4.96.95-5.54,3.42-.58,2.48.95,4.96,3.42,5.54,2.48.58,4.96-.95,5.54-3.42Z"/>
    <path class="cls-1" d="M203.75,114.9c.35-2.13-1.1-4.13-3.23-4.48-2.13-.35-4.13,1.1-4.48,3.23-.35,2.13,1.1,4.13,3.23,4.48,2.13.35,4.13-1.1,4.48-3.23Z"/>
    <path class="cls-1" d="M212.42,117.22c1.63-.68,2.41-2.55,1.73-4.18-.68-1.63-2.55-2.41-4.18-1.73-1.63.68-2.41,2.55-1.73,4.18.68,1.63,2.55,2.41,4.18,1.73Z"/>
  </g>
  <g>
    <path class="cls-2" d="M262.13,12.68c-2.9-2.9-2.9-7.6,0-10.5,2.9-2.9,7.6-2.9,10.5,0,2.9,2.9,2.9,7.6,0,10.5-2.9,2.9-7.6,2.9-10.5,0Z"/>
    <path class="cls-2" d="M247.79,14.15c-3.71,0-6.72-3.01-6.72-6.72s3.01-6.72,6.72-6.72,6.72,3.01,6.72,6.72-3.01,6.72-6.72,6.72Z"/>
    <path class="cls-2" d="M225.42,11.68c-2.35-2.35-2.35-6.16,0-8.51,2.35-2.35,6.16-2.35,8.51,0,2.35,2.35,2.35,6.16,0,8.51-2.35,2.35-6.16,2.35-8.51,0Z"/>
    <path class="cls-2" d="M208.87,8.49c-.58-2.48.95-4.96,3.42-5.54,2.48-.58,4.96.95,5.54,3.42.58,2.48-.95,4.96-3.42,5.54-2.48.58-4.96-.95-5.54-3.42Z"/>
    <path class="cls-2" d="M196.25,8.05c-.35-2.13,1.1-4.13,3.23-4.48,2.13-.35,4.13,1.1,4.48,3.23.35,2.13-1.1,4.13-3.23,4.48-2.13.35-4.13-1.1-4.48-3.23Z"/>
    <path class="cls-2" d="M187.58,10.38c-1.63-.68-2.41-2.55-1.73-4.18.68-1.63,2.55-2.41,4.18-1.73,1.63.68,2.41,2.55,1.73,4.18-.68,1.63-2.55,2.41-4.18,1.73Z"/>
    <path class="cls-2" d="M262.13,28.01c-2.9-2.9-2.9-7.6,0-10.5,2.9-2.9,7.6-2.9,10.5,0,2.9,2.9,2.9,7.6,0,10.5-2.9,2.9-7.6,2.9-10.5,0Z"/>
    <path class="cls-2" d="M247.79,29.48c-3.71,0-6.72-3.01-6.72-6.72s3.01-6.72,6.72-6.72,6.72,3.01,6.72,6.72-3.01,6.72-6.72,6.72Z"/>
    <path class="cls-2" d="M229.67,28.78c-3.32,0-6.02-2.69-6.02-6.02s2.69-6.02,6.02-6.02,6.02,2.69,6.02,6.02-2.69,6.02-6.02,6.02Z"/>
    <path class="cls-2" d="M210.1,26.02c-1.8-1.8-1.8-4.72,0-6.51,1.8-1.8,4.72-1.8,6.51,0,1.8,1.8,1.8,4.72,0,6.51-1.8,1.8-4.72,1.8-6.51,0Z"/>
    <path class="cls-2" d="M200.11,26.66c-2.15,0-3.9-1.75-3.9-3.9s1.75-3.9,3.9-3.9,3.9,1.75,3.9,3.9-1.75,3.9-3.9,3.9Z"/>
    <path class="cls-2" d="M188.81,25.96c-1.77,0-3.2-1.43-3.2-3.2s1.43-3.2,3.2-3.2,3.2,1.43,3.2,3.2-1.43,3.2-3.2,3.2Z"/>
    <path class="cls-2" d="M262.13,42.87c-2.9-2.9-2.9-7.6,0-10.5,2.9-2.9,7.6-2.9,10.5,0,2.9,2.9,2.9,7.6,0,10.5-2.9,2.9-7.6,2.9-10.5,0Z"/>
    <path class="cls-2" d="M247.79,44.34c-3.71,0-6.72-3.01-6.72-6.72s3.01-6.72,6.72-6.72,6.72,3.01,6.72,6.72-3.01,6.72-6.72,6.72Z"/>
    <path class="cls-2" d="M229.67,43.63c-3.32,0-6.02-2.69-6.02-6.02s2.69-6.02,6.02-6.02,6.02,2.69,6.02,6.02-2.69,6.02-6.02,6.02Z"/>
    <path class="cls-2" d="M208.87,38.68c-.58-2.48.95-4.96,3.42-5.54,2.48-.58,4.96.95,5.54,3.42s-.95,4.96-3.42,5.54c-2.48.58-4.96-.95-5.54-3.42Z"/>
    <path class="cls-2" d="M200.11,41.52c-2.15,0-3.9-1.75-3.9-3.9s1.75-3.9,3.9-3.9,3.9,1.75,3.9,3.9-1.75,3.9-3.9,3.9Z"/>
    <path class="cls-2" d="M262.13,58.2c-2.9-2.9-2.9-7.6,0-10.5,2.9-2.9,7.6-2.9,10.5,0,2.9,2.9,2.9,7.6,0,10.5-2.9,2.9-7.6,2.9-10.5,0Z"/>
    <path class="cls-2" d="M247.79,59.67c-3.71,0-6.72-3.01-6.72-6.72s3.01-6.72,6.72-6.72,6.72,3.01,6.72,6.72-3.01,6.72-6.72,6.72Z"/>
    <path class="cls-2" d="M225.42,57.2c-2.35-2.35-2.35-6.16,0-8.51,2.35-2.35,6.16-2.35,8.51,0,2.35,2.35,2.35,6.16,0,8.51-2.35,2.35-6.16,2.35-8.51,0Z"/>
    <path class="cls-2" d="M210.1,56.21c-1.8-1.8-1.8-4.72,0-6.51,1.8-1.8,4.72-1.8,6.51,0,1.8,1.8,1.8,4.72,0,6.51-1.8,1.8-4.72,1.8-6.51,0Z"/>
    <path class="cls-2" d="M198.61,56.55c-1.99-.82-2.94-3.11-2.11-5.1s3.11-2.94,5.1-2.11c1.99.82,2.94,3.11,2.11,5.1-.82,1.99-3.11,2.94-5.1,2.11Z"/>
    <path class="cls-2" d="M267.38,75.23c-4.1,0-7.43-3.33-7.43-7.43s3.33-7.43,7.43-7.43,7.43,3.33,7.43,7.43-3.33,7.43-7.43,7.43Z"/>
    <path class="cls-2" d="M247.79,74.53c-3.71,0-6.72-3.01-6.72-6.72s3.01-6.72,6.72-6.72,6.72,3.01,6.72,6.72-3.01,6.72-6.72,6.72Z"/>
    <path class="cls-2" d="M229.67,73.82c-3.32,0-6.02-2.69-6.02-6.02s2.69-6.02,6.02-6.02,6.02,2.69,6.02,6.02-2.69,6.02-6.02,6.02Z"/>
    <path class="cls-2" d="M213.36,72.41c-2.54,0-4.61-2.06-4.61-4.61s2.06-4.61,4.61-4.61,4.61,2.06,4.61,4.61-2.06,4.61-4.61,4.61Z"/>
    <path class="cls-2" d="M200.11,71.71c-2.15,0-3.9-1.75-3.9-3.9s1.75-3.9,3.9-3.9,3.9,1.75,3.9,3.9-1.75,3.9-3.9,3.9Z"/>
    <path class="cls-2" d="M262.13,88.39c-2.9-2.9-2.9-7.6,0-10.5,2.9-2.9,7.6-2.9,10.5,0,2.9,2.9,2.9,7.6,0,10.5-2.9,2.9-7.6,2.9-10.5,0Z"/>
    <path class="cls-2" d="M247.79,89.86c-3.71,0-6.72-3.01-6.72-6.72s3.01-6.72,6.72-6.72,6.72,3.01,6.72,6.72-3.01,6.72-6.72,6.72Z"/>
    <path class="cls-2" d="M225.42,87.39c-2.35-2.35-2.35-6.16,0-8.51,2.35-2.35,6.16-2.35,8.51,0,2.35,2.35,2.35,6.16,0,8.51-2.35,2.35-6.16,2.35-8.51,0Z"/>
    <path class="cls-2" d="M208.88,84.21c-.58-2.48.95-4.96,3.42-5.54,2.48-.58,4.96.95,5.54,3.42.58,2.48-.95,4.96-3.42,5.54-2.48.58-4.96-.95-5.54-3.42Z"/>
    <path class="cls-2" d="M196.25,83.76c-.35-2.13,1.1-4.13,3.23-4.48,2.13-.35,4.13,1.1,4.48,3.23.35,2.13-1.1,4.13-3.23,4.48-2.13.35-4.13-1.1-4.48-3.23Z"/>
  </g>
  <g>
    <path d="M91.68,148.26c2.99,3.99,4.48,9.09,4.48,15.31,0,6.73-1.71,12.33-5.12,16.79-4.01,5.24-9.73,7.86-17.15,7.86-6.94,0-12.39-2.29-16.36-6.87-3.54-4.42-5.31-10-5.31-16.75,0-6.1,1.51-11.31,4.54-15.65,3.89-5.56,9.64-8.35,17.25-8.35s13.85,2.56,17.68,7.67ZM86.29,177c2.4-3.86,3.61-8.3,3.61-13.31,0-5.3-1.39-9.57-4.16-12.81-2.77-3.23-6.56-4.85-11.37-4.85s-8.47,1.6-11.42,4.81c-2.95,3.2-4.42,7.93-4.42,14.17,0,5,1.26,9.21,3.79,12.64,2.53,3.43,6.62,5.14,12.29,5.14s9.27-1.93,11.68-5.79Z"/>
    <path d="M102.23,154.19h5.4v4.36c1.11-1.49,2.32-2.65,3.63-3.47,1.87-1.23,4.06-1.84,6.58-1.84,3.73,0,6.9,1.43,9.51,4.28,2.6,2.85,3.91,6.93,3.91,12.23,0,7.16-1.88,12.27-5.64,15.34-2.38,1.94-5.16,2.92-8.32,2.92-2.49,0-4.57-.54-6.25-1.63-.99-.61-2.08-1.67-3.3-3.16v16.79h-5.52v-45.81ZM123.02,179.95c1.71-2.16,2.57-5.39,2.57-9.68,0-2.62-.38-4.87-1.14-6.75-1.44-3.62-4.06-5.43-7.88-5.43s-6.47,1.91-7.88,5.74c-.76,2.05-1.14,4.64-1.14,7.79,0,2.54.38,4.69,1.14,6.47,1.44,3.4,4.06,5.09,7.88,5.09,2.59,0,4.74-1.08,6.45-3.24Z"/>
    <path d="M157.95,154.94c2.18,1.09,3.83,2.51,4.97,4.25,1.1,1.66,1.83,3.59,2.2,5.8.33,1.51.49,3.93.49,7.24h-23.9c.1,3.34.88,6.03,2.34,8.05,1.46,2.02,3.72,3.03,6.79,3.03,2.86,0,5.15-.96,6.85-2.87.95-1.11,1.63-2.39,2.03-3.85h5.43c-.14,1.21-.62,2.55-1.43,4.04-.81,1.48-1.71,2.7-2.7,3.64-1.67,1.64-3.73,2.74-6.18,3.31-1.32.33-2.81.49-4.48.49-4.07,0-7.51-1.49-10.34-4.46-2.83-2.98-4.24-7.14-4.24-12.5s1.42-9.56,4.27-12.86c2.85-3.29,6.57-4.94,11.16-4.94,2.32,0,4.56.55,6.74,1.64ZM159.92,167.84c-.22-2.39-.74-4.31-1.55-5.74-1.5-2.66-4.01-3.99-7.52-3.99-2.52,0-4.62.92-6.33,2.75-1.7,1.83-2.61,4.16-2.71,6.98h18.1Z"/>
    <path d="M172.6,154.03h5.25v4.66c1.55-1.92,3.2-3.3,4.94-4.14,1.74-.84,3.67-1.26,5.8-1.26,4.66,0,7.81,1.63,9.45,4.88.9,1.78,1.35,4.33,1.35,7.64v21.08h-5.62v-20.71c0-2-.3-3.62-.89-4.85-.98-2.05-2.76-3.07-5.34-3.07-1.31,0-2.38.13-3.22.4-1.51.45-2.84,1.35-3.99,2.7-.92,1.08-1.52,2.2-1.8,3.36-.28,1.16-.41,2.81-.41,4.96v17.21h-5.52v-32.86Z"/>
    <path class="cls-2" d="M235.47,187.14c-2.03.68-4.45,1.01-7.27,1.01-5.89,0-10.76-1.76-14.61-5.28-4.66-4.23-7-10.45-7-18.66s2.39-14.51,7.18-18.75c3.91-3.46,8.77-5.19,14.58-5.19s10.76,1.83,14.73,5.49c4.58,4.23,6.87,10.16,6.87,17.77,0,4.03-.49,7.41-1.47,10.13-.8,2.6-1.97,4.76-3.53,6.47l5.22,4.88-4.94,5.16-5.46-5.16c-1.66,1-3.09,1.71-4.3,2.12ZM233.45,178.98l-4.57-4.36,4.88-5.09,4.57,4.36c.72-1.47,1.22-2.76,1.5-3.87.45-1.66.68-3.59.68-5.8,0-5.07-1.04-9-3.11-11.77-2.08-2.77-5.11-4.16-9.1-4.16-3.74,0-6.73,1.33-8.96,3.99-2.23,2.66-3.34,6.64-3.34,11.94,0,6.2,1.6,10.64,4.79,13.32,2.07,1.74,4.54,2.61,7.43,2.61,1.08,0,2.13-.13,3.13-.4.55-.14,1.26-.4,2.12-.77Z"/>
    <path class="cls-2" d="M265.82,186.9h-8.81v-45.23h13.75l8.22,35.56,8.16-35.56h13.59v45.23h-8.81v-30.59c0-.88,0-2.11.03-3.7.02-1.59.03-2.81.03-3.67l-8.56,37.96h-9.17l-8.5-37.96c0,.86.01,2.08.03,3.67.02,1.59.03,2.82.03,3.7v30.59Z"/>
    <path class="cls-2" d="M341.43,183.52c-3.38,3.09-7.69,4.63-12.95,4.63-6.51,0-11.62-2.09-15.34-6.26-3.72-4.19-5.58-9.94-5.58-17.25,0-7.9,2.12-13.98,6.35-18.26,3.68-3.72,8.37-5.58,14.05-5.58,7.61,0,13.17,2.5,16.69,7.49,1.94,2.8,2.99,5.62,3.13,8.44h-9.45c-.61-2.17-1.4-3.81-2.36-4.91-1.72-1.96-4.27-2.95-7.64-2.95s-6.15,1.39-8.13,4.16c-1.98,2.77-2.98,6.69-2.98,11.77s1.05,8.87,3.15,11.4c2.1,2.53,4.76,3.79,7.99,3.79s5.84-1.08,7.58-3.25c.96-1.17,1.76-2.92,2.39-5.25h9.36c-.82,4.93-2.91,8.94-6.26,12.03Z"/>
  </g>
</svg>