<svg id="Layer_1" data-name="Layer 1" xmlns="http://www.w3.org/2000/svg" viewBox="0 0 178.88 78.88"><title>open-image-io</title><path d="M57.50546,74.82519v-.97852a19.84554,19.84554,0,0,0,4.54834-1.27148,9.66626,9.66626,0,0,0,3.56983-2.543,3.93968,3.93968,0,0,0,.73388-1.66308,21.32734,21.32734,0,0,0,.39112-2.543q.14647-1.46631.1958-3.08106.04761-1.61279.04883-3.17871,0-1.36816.04883-3.7168.04833-2.34814.09765-5.13476.04834-2.7876.04883-5.72168V16.7246q0-1.76073-.14648-3.27636a20.05614,20.05614,0,0,0-.44043-2.73877,4.518,4.518,0,0,0-.87989-1.90772,7.76378,7.76378,0,0,0-3.375-2.396,19.87343,19.87343,0,0,0-4.54785-1.02735v-.978H87.04453v.978a25.36052,25.36052,0,0,0-4.40137,1.07617A6.298,6.298,0,0,0,79.024,9.58447a9.32911,9.32911,0,0,0-.9292,4.20605q-.05053,2.54444-.147,4.79248,0,2.44629-.04883,4.8418-.05053,2.39795-.04883,4.8418V61.0332q0,2.83887.09766,5.47754a6.99416,6.99416,0,0,0,.88037,3.71679A7.27153,7.27153,0,0,0,82.545,72.77148a20.02132,20.02132,0,0,0,4.59717,1.07519v.97852Z"/><path d="M91.95029,74.82519v-.97852a19.84982,19.84982,0,0,0,4.54883-1.27148,9.66053,9.66053,0,0,0,3.56933-2.543,3.93989,3.93989,0,0,0,.73438-1.66308,21.43653,21.43653,0,0,0,.39062-2.543q.14649-1.46631.19629-3.08106.04688-1.61279.04883-3.17871,0-1.36816.04883-3.7168.04833-2.34814.09765-5.13476.04834-2.7876.04883-5.72168V16.7246q0-1.76073-.14648-3.27636a20.13215,20.13215,0,0,0-.44043-2.73877,4.524,4.524,0,0,0-.87988-1.90772,7.7639,7.7639,0,0,0-3.375-2.396,19.87962,19.87962,0,0,0-4.54786-1.02735v-.978h29.24512v.978A25.37124,25.37124,0,0,0,117.088,6.45458a6.29946,6.29946,0,0,0-3.61914,3.12989,9.32945,9.32945,0,0,0-.92871,4.20605q-.05127,2.54444-.14746,4.79248,0,2.44629-.04883,4.8418-.0498,2.39795-.04883,4.8418V61.0332q0,2.83887.09766,5.47754a6.9935,6.9935,0,0,0,.88086,3.71679,7.26947,7.26947,0,0,0,3.7168,2.54395,20.01768,20.01768,0,0,0,4.59668,1.07519v.97852Z"/><path d="M145.90026,7.34674c-16.549,0-29.96466,14.446-29.96466,32.26605s13.41565,32.26605,29.96466,32.26605,29.9646-14.446,29.9646-32.266S162.44927,7.34674,145.90026,7.34674Zm15.03613,52.51391c-3.47925,5.19934-9.727,8.41516-15.03613,8.41516a17.77422,17.77422,0,0,1-14.43817-7.76043c-3.54834-5.21247-4.78809-12.9477-4.78809-20.97059,0-8.45587,1.0033-16.05853,4.8938-21.316a18.94552,18.94552,0,0,1,14.33246-7.415,18.63839,18.63839,0,0,1,13.19195,5.98907c4.54731,5.2547,6.03424,13.48731,6.03424,22.74194C165.12645,47.47863,164.41564,54.66137,160.93639,59.86065Z"/><path d="M33.19227,7.34674c-16.549,0-29.96466,14.446-29.96466,32.26605S16.64326,71.87884,33.19227,71.87884s29.9646-14.446,29.9646-32.266S49.74129,7.34674,33.19227,7.34674ZM48.22841,59.86065c-3.47925,5.19934-9.727,8.41516-15.03614,8.41516A17.77425,17.77425,0,0,1,18.7541,60.51538C15.20576,55.30291,13.966,47.56768,13.966,39.54479c0-8.45587,1.00329-16.05853,4.8938-21.316a18.94549,18.94549,0,0,1,14.33245-7.415,18.63841,18.63841,0,0,1,13.192,5.98907c4.5473,5.2547,6.03424,13.48731,6.03424,22.74194C52.41847,47.47863,51.70765,54.66137,48.22841,59.86065Z"/></svg>