<?xml version="1.0" standalone="no"?>
<!DOCTYPE svg PUBLIC "-//W3C//DTD SVG 20010904//EN"
 "http://www.w3.org/TR/2001/REC-SVG-20010904/DTD/svg10.dtd">
<svg version="1.0" xmlns="http://www.w3.org/2000/svg"
 width="300.000000pt" height="107.000000pt" viewBox="0 0 300.000000 107.000000"
 preserveAspectRatio="xMidYMid meet">
<metadata>
Created by potrace 1.10, written by Peter Selinger 2001-2011
</metadata>
<g transform="translate(0.000000,107.000000) scale(0.100000,-0.100000)"
fill="#000000" stroke="none">
<path d="M313 848 c-79 -45 -143 -87 -143 -93 1 -10 281 -175 300 -175 6 0 10
60 10 175 0 133 -3 175 -12 175 -7 0 -77 -37 -155 -82z m154 -93 c-1 -179 8
-170 -107 -102 -40 23 -92 54 -118 68 -25 14 -47 30 -49 35 -2 5 14 18 34 29
21 11 66 37 101 57 34 21 66 38 71 38 5 0 14 7 21 15 7 8 20 15 30 15 16 0 18
-13 17 -155z"/>
<path d="M520 754 c0 -145 2 -175 14 -172 28 6 295 163 296 173 0 12 -278 175
-298 175 -9 0 -12 -46 -12 -176z m156 84 c19 -14 98 -58 117 -64 27 -10 16
-24 -46 -58 -31 -17 -62 -37 -69 -44 -7 -7 -16 -12 -21 -12 -6 0 -32 -13 -59
-30 -26 -16 -52 -30 -57 -30 -5 0 -10 72 -11 161 l-1 160 68 -37 c37 -20 73
-41 79 -46z"/>
<path d="M1052 695 c-70 -59 -70 -261 0 -320 53 -45 119 -28 155 38 24 44 24
199 0 244 -35 66 -102 83 -155 38z m123 -39 c28 -38 29 -197 2 -239 -39 -61
-104 -53 -131 15 -21 50 -20 157 0 207 26 65 87 73 129 17z"/>
<path d="M2200 711 c-22 -6 -28 -21 -65 -159 -22 -83 -42 -152 -45 -152 -3 0
-23 69 -45 153 -39 147 -41 152 -67 155 l-28 3 0 -179 c0 -152 2 -179 15 -179
13 0 15 26 16 166 l0 166 46 -162 c35 -123 50 -163 62 -163 12 0 27 39 61 163
l45 162 5 -165 c4 -121 8 -166 18 -167 9 -2 12 39 12 182 0 102 -1 185 -2 184
-2 -1 -14 -4 -28 -8z"/>
<path d="M2713 713 c-10 -4 -13 -49 -13 -182 0 -151 2 -178 15 -178 12 0 15
19 15 107 0 118 10 140 63 140 39 0 47 -26 47 -145 0 -74 3 -106 11 -103 8 3
11 43 10 123 -1 110 -3 122 -23 138 -26 22 -76 17 -95 -9 -10 -14 -13 -5 -15
48 -2 46 -7 64 -15 61z"/>
<path d="M140 535 c0 -134 3 -175 13 -175 19 1 291 164 291 175 0 11 -272 174
-291 175 -10 0 -13 -41 -13 -175z m99 108 c36 -20 68 -39 71 -42 3 -3 23 -15
45 -26 22 -11 45 -25 51 -31 14 -12 18 -9 -138 -100 l-107 -62 -6 39 c-7 38
-5 237 2 252 6 11 12 9 82 -30z"/>
<path d="M693 627 c-78 -45 -142 -86 -142 -92 0 -11 281 -175 299 -175 6 0 10
60 10 175 0 134 -3 175 -12 174 -7 0 -77 -37 -155 -82z m147 -91 c0 -139 -1
-144 -20 -139 -11 3 -20 8 -20 12 0 3 -21 18 -47 31 -27 14 -49 28 -51 33 -2
4 -10 7 -18 7 -16 0 -65 28 -76 44 -11 16 1 31 35 45 17 8 34 17 37 21 7 9
149 90 158 90 1 0 2 -65 2 -144z"/>
<path d="M1330 610 c-24 -24 -31 -25 -24 -5 4 9 0 15 -10 15 -14 0 -16 -21
-16 -175 0 -149 2 -175 15 -175 12 0 15 13 15 60 l0 60 20 -20 c46 -46 113 -7
125 74 4 25 4 67 0 92 -12 81 -79 120 -125 74z m91 -48 c16 -42 7 -147 -15
-171 -45 -50 -96 -2 -96 90 0 71 13 107 42 118 30 11 56 -3 69 -37z"/>
<path d="M1553 620 c-38 -16 -55 -64 -51 -146 3 -60 8 -77 27 -98 40 -42 101
-32 129 21 16 29 15 43 -3 43 -8 0 -15 -7 -15 -15 0 -19 -36 -55 -55 -55 -29
0 -55 38 -55 80 l0 40 70 0 70 0 0 35 c0 46 -17 80 -47 94 -28 13 -40 13 -70
1z m77 -39 c5 -11 10 -31 10 -45 0 -25 -3 -26 -55 -26 -52 0 -55 1 -55 26 0
44 17 64 55 64 24 0 38 -6 45 -19z"/>
<path d="M1776 609 c-21 -17 -26 -18 -26 -5 0 9 -7 16 -15 16 -13 0 -15 -21
-15 -133 0 -112 2 -134 15 -134 12 0 15 18 15 101 0 107 10 139 49 149 11 2
29 -2 40 -10 19 -13 21 -24 21 -129 0 -88 3 -115 13 -111 9 3 12 36 12 121 0
112 -1 119 -24 137 -30 24 -52 24 -85 -2z"/>
<path d="M2335 618 c-31 -18 -43 -39 -51 -85 -10 -64 4 -132 31 -159 32 -32
78 -32 110 1 28 27 33 65 10 65 -8 0 -15 -8 -15 -18 0 -22 -30 -52 -52 -52
-24 0 -49 36 -55 79 l-6 41 78 0 77 0 -7 43 c-10 56 -21 76 -51 87 -32 13 -44
12 -69 -2z m73 -30 c5 -7 13 -28 17 -45 l7 -33 -61 0 c-57 0 -61 2 -61 23 0
53 68 91 98 55z"/>
<path d="M2535 618 c-28 -16 -35 -28 -35 -64 0 -36 16 -52 74 -75 55 -22 72
-62 37 -90 -13 -10 -31 -19 -41 -19 -21 0 -50 31 -50 53 0 9 -7 17 -16 17 -13
0 -15 -6 -10 -27 9 -37 41 -63 78 -63 42 0 64 15 77 51 16 46 -3 79 -59 100
-54 20 -76 49 -60 78 8 15 21 21 45 21 29 0 36 -4 41 -25 7 -27 34 -35 34 -10
0 24 -46 65 -72 65 -13 0 -32 -6 -43 -12z"/>
<path d="M313 407 c-79 -45 -143 -87 -143 -92 0 -12 278 -175 298 -175 9 0 12
43 12 175 0 134 -3 175 -12 174 -7 0 -77 -37 -155 -82z m147 -92 l0 -155 -37
20 c-21 12 -60 34 -88 50 -27 16 -67 38 -88 50 -20 11 -37 27 -37 34 0 12 46
42 215 138 17 9 31 17 33 17 1 1 2 -69 2 -154z"/>
<path d="M520 315 c0 -132 3 -175 12 -175 20 0 298 163 298 175 -1 10 -281
175 -300 175 -6 0 -10 -60 -10 -175z m60 127 c0 -4 27 -20 60 -35 33 -16 60
-33 60 -38 0 -5 7 -9 15 -9 8 0 29 -13 46 -28 l31 -28 -46 -19 c-25 -11 -46
-22 -46 -26 0 -4 -12 -14 -27 -22 -16 -7 -45 -24 -67 -36 -21 -12 -44 -20 -50
-18 -13 5 -22 239 -11 257 7 12 35 13 35 2z"/>
</g>
</svg>
