<svg xmlns="http://www.w3.org/2000/svg" role="img" viewBox="-12.72 -13.72 1025.44 786.44"><title>OpenEXR logo</title><style>svg {enable-background:new 0 0 1000 760}</style><style>.st5{fill:#541431}.st6{fill:#c92f3b}.st7{fill:#891720}</style><path fill="none" d="M394.8 609.1c-2.5-2.7-5.6-4.8-9.4-6.4-3.7-1.5-8.1-2.3-13.1-2.3-4.8 0-9.3.9-13.3 2.8-4 1.8-7.5 4.2-10.2 7.2-2.8 2.9-5 6.2-6.5 9.8-1.5 3.6-2.3 7.2-2.3 10.7h62.5c-.1-4.4-.8-8.4-2.1-12.1-1.2-3.8-3.1-7-5.6-9.7zm-125.1 4.2c-2.9-3.2-6.5-5.6-10.8-7.5-4.3-1.8-9-2.8-14.3-2.8s-10.1.9-14.3 2.8c-4.3 1.8-7.9 4.3-10.8 7.5-2.9 3.2-5.2 7-6.8 11.5-1.6 4.5-2.4 9.4-2.4 14.6 0 5.3.8 10.2 2.4 14.6 1.6 4.5 3.9 8.3 6.8 11.5 2.9 3.2 6.5 5.7 10.8 7.5 4.3 1.8 9 2.8 14.3 2.8s10.1-.9 14.3-2.8c4.3-1.8 7.9-4.3 10.8-7.5 2.9-3.2 5.2-7 6.8-11.5 1.6-4.5 2.4-9.4 2.4-14.6 0-5.3-.8-10.2-2.4-14.6-1.6-4.6-3.8-8.4-6.8-11.5zM131 569.8c-5.1-5.6-11.3-10-18.5-13.3-7.2-3.3-15.3-5-24.2-5-9 0-17 1.7-24.2 5-7.2 3.3-13.4 7.7-18.5 13.3-5.1 5.6-9.1 12.2-11.9 19.7-2.8 7.6-4.2 15.6-4.2 24.1 0 8.5 1.4 16.6 4.2 24.1 2.8 7.6 6.8 14.1 11.9 19.7 5.1 5.6 11.3 10 18.5 13.3 7.2 3.3 15.3 5 24.2 5 9 0 17-1.7 24.2-5 7.2-3.3 13.4-7.7 18.5-13.3 5.1-5.6 9.1-12.1 11.9-19.7 2.8-7.6 4.2-15.6 4.2-24.1 0-8.5-1.4-16.6-4.2-24.1-2.8-7.6-6.8-14.1-11.9-19.7zM599.4 77.4c-32.6 5.8-67.3 18.3-91.1 44.2 23.8-25.9 58.6-38.4 91.1-44.2zm344 490.5c-2.5-1.2-5.4-2.1-8.6-2.5-3.2-.4-6.4-.7-9.5-.7h-22.5v35.5h20.3c3.1 0 6.3-.1 9.8-.3 3.4-.2 6.6-.9 9.4-2 2.8-1.1 5.1-2.8 6.9-5.2 1.8-2.3 2.8-5.7 2.8-9.9 0-4-.8-7.1-2.4-9.5-1.7-2.4-3.7-4.2-6.2-5.4zM496.3 134.2c-.5.5-1.1 1-1.7 1.5.6-.5 1.2-1 1.7-1.5z"/><path d="M146.7 555.2c-7.1-7.3-15.7-13.1-25.7-17.3-10-4.2-20.9-6.3-32.8-6.3s-22.8 2.1-32.8 6.3c-10 4.2-18.5 9.9-25.7 17.3-7.1 7.3-12.7 16-16.7 26S7 602 7 613.6c0 11.6 2 22.4 6 32.4s9.6 18.6 16.7 26c7.1 7.3 15.7 13.1 25.7 17.3 10 4.2 20.9 6.3 32.8 6.3s22.8-2.1 32.8-6.3c10-4.2 18.5-9.9 25.7-17.3 7.1-7.3 12.7-16 16.7-26s6.1-20.8 6.1-32.4c0-11.6-2-22.4-6.1-32.4-4-10-9.6-18.6-16.7-26zm-3.8 82.5c-2.8 7.6-6.8 14.1-11.9 19.7-5.1 5.6-11.3 10-18.5 13.3-7.2 3.3-15.3 5-24.2 5-9 0-17-1.7-24.2-5-7.2-3.3-13.4-7.7-18.5-13.3-5.1-5.6-9.1-12.1-11.9-19.7-2.8-7.6-4.2-15.6-4.2-24.1 0-8.5 1.4-16.6 4.2-24.1 2.8-7.6 6.8-14.1 11.9-19.7 5.1-5.6 11.3-10 18.5-13.3 7.2-3.3 15.3-5 24.2-5 9 0 17 1.7 24.2 5 7.2 3.3 13.4 7.7 18.5 13.3 5.1 5.6 9.1 12.2 11.9 19.7 2.8 7.6 4.2 15.6 4.2 24.1 0 8.5-1.4 16.6-4.2 24.1zm142.8-37.3c-4.6-5-10.2-8.9-16.7-11.7-6.5-2.8-13.8-4.2-21.9-4.2-7 0-13.9 1.5-20.6 4.6-6.7 3.1-11.9 7.4-15.7 13h-.4v-15h-19.8v166.5h19.8v-77.1h.4c3.5 5.4 8.6 9.7 15.2 12.9 6.6 3.2 13.7 4.7 21.1 4.7 8.1 0 15.4-1.4 21.9-4.2 6.5-2.8 12.1-6.6 16.7-11.6 4.6-4.9 8.2-10.7 10.7-17.4 2.5-6.7 3.7-13.9 3.7-21.7 0-7.6-1.2-14.8-3.7-21.5-2.5-6.5-6.1-12.3-10.7-17.3zm-9.2 53.6c-1.6 4.5-3.9 8.3-6.8 11.5-2.9 3.2-6.5 5.7-10.8 7.5-4.3 1.8-9 2.8-14.3 2.8s-10.1-.9-14.3-2.8c-4.3-1.8-7.9-4.3-10.8-7.5-2.9-3.2-5.2-7-6.8-11.5-1.6-4.5-2.4-9.4-2.4-14.6 0-5.3.8-10.2 2.4-14.6 1.6-4.5 3.9-8.3 6.8-11.5 2.9-3.2 6.5-5.6 10.8-7.5 4.3-1.8 9-2.8 14.3-2.8s10.1.9 14.3 2.8c4.3 1.8 7.9 4.3 10.8 7.5 2.9 3.2 5.2 7 6.8 11.5 1.6 4.5 2.4 9.4 2.4 14.6.1 5.2-.7 10.1-2.4 14.6zM412 602c-4.1-5.2-9.4-9.4-15.7-12.7-6.4-3.2-14.2-4.8-23.5-4.8-7.8 0-15 1.4-21.6 4.2-6.6 2.8-12.3 6.6-17.1 11.6-4.8 4.9-8.5 10.7-11.2 17.4-2.7 6.7-4.1 13.9-4.1 21.7 0 7.8 1.2 15 3.7 21.7 2.5 6.7 6.1 12.5 10.7 17.4 4.6 4.9 10.3 8.8 17 11.6 6.7 2.8 14.1 4.2 22.4 4.2 19.8 0 35.2-7.1 46.2-21.4l-15-11.5c-3.8 4.7-8 8.5-12.6 11.3-4.6 2.9-9.9 4.3-16.1 4.3-4.6 0-9-.7-13.2-2.2-4.3-1.5-8-3.5-11.2-6.2-3.2-2.6-5.8-5.8-7.8-9.6s-3-7.9-3-12.4h83.7v-7c0-6.8-.9-13.4-2.8-19.9-1.7-6.6-4.7-12.5-8.8-17.7zm-72 28.8c0-3.5.8-7.1 2.3-10.7 1.5-3.6 3.7-6.9 6.5-9.8 2.8-2.9 6.2-5.3 10.2-7.2 4-1.8 8.5-2.8 13.3-2.8 5 0 9.4.8 13.1 2.3 3.7 1.5 6.9 3.7 9.4 6.4s4.4 5.9 5.6 9.6c1.2 3.7 1.9 7.7 2.1 12.1H340zM524.2 594c-3.5-3.2-7.5-5.6-12.1-7.2s-9.4-2.3-14.4-2.3c-8.1 0-15.2 1.7-21.4 5.2-6.2 3.5-10.5 8-13 13.5h-.4v-16.1H443v104.4h19.8v-53.7c0-6 .7-11.2 2.2-15.6 1.5-4.4 3.5-8 6.2-10.9 2.6-2.9 5.7-5 9.2-6.3s7.3-2 11.5-2c3.1 0 6.1.5 8.9 1.4 2.9 1 5.4 2.5 7.6 4.6 2.2 2.1 4 4.9 5.3 8.4 1.3 3.5 2 7.6 2 12.4v61.7h19.8v-67.2c0-6.9-1-12.9-3.1-17.9-2-5-4.8-9.2-8.2-12.4z" class="st5"/><path d="M606.4 628.1h67.7v-31.7h-67.7v-29.1H678v-31.7H572.1v156H682v-31.8h-75.6zm240.3-92.5h-41.6l-31.9 54.7-33.3-54.7h-43.2l51.6 74.5-54.6 81.5h40.7l37-62.8 38.1 62.8h43.2l-56.4-82.2zM954 625.7c11-2.1 19.4-6.9 25.1-14.6s8.6-17.1 8.6-28.1c0-9.1-1.6-16.7-4.7-22.8-3.2-6.1-7.4-10.9-12.8-14.5-5.4-3.6-11.6-6.2-18.7-7.7s-14.6-2.3-22.6-2.3h-60.3v155.9H903v-62.3h17l32.6 62.3h41.2L954 625.7zm-4.8-33c-1.8 2.4-4.1 4.1-6.9 5.2-2.8 1.1-5.9 1.8-9.4 2-3.5.2-6.7.3-9.8.3h-20.3v-35.5h22.5c3.1 0 6.2.2 9.5.7 3.2.4 6.1 1.3 8.6 2.5s4.5 3 6.2 5.4c1.6 2.4 2.4 5.5 2.4 9.5 0 4.2-.9 7.5-2.8 9.9z" class="st6"/><path d="M502 345.4l177.1-31.2L502 345.4zM340 411c-1 .2-2.1.4-3.1.5l49.1 61.2 368.2-64.9-67-83.4-202.6 35.7c-36.5 26.1-92.8 41.2-138.1 49.7-2.1.4-4.3.8-6.5 1.2z" class="st5"/><path d="M336.9 304.6l-24-29.9 25.3 31.6zm152.8-55c-36.2 28.4-95.6 44.5-143 53.3 47.4-8.9 106.7-24.9 143-53.3z" class="st7"/><path d="M340 411c2.2-.4 4.4-.8 6.7-1.2 45.3-8.4 101.6-23.5 138.1-49.7l-96.7 17.1-6.7 1.2-4.3-5.3-10.9-13.6c-15.1-2.7-30-10.2-38.2-20.5-8.3-10.3-7.7-20.6-.1-27.2l-28-34.8-62.2 11 99.2 123.6c1-.2 2.1-.4 3.1-.6z" class="st7"/><path d="M386.1 365.8l-4.5-5.5 4.5 5.5L502 345.4z" class="st7"/><path d="M338.2 306.3l43.4 54-43.4-54zm-10.3 32.6c8.3 10.3 23.1 17.9 38.2 20.5l-38.3-47.8c-7.6 6.8-8.1 17.1.1 27.3z" class="st5"/><path d="M505 235.1l172.1-30.3L505 235.1zm-165 69c-1 .2-2.1.4-3.1.5l1.3 1.6 43.4 54.1 4.4 5.5 116-20.4 177.1-31.2 75.2-13.3-68.9-85.9-195.7 34.5c-36.2 28.4-95.6 44.5-143 53.3-2.3.5-4.5.9-6.7 1.3z" class="st7"/><path d="M494.6 135.7c-35.6 31-98.3 48.2-148 57.4 49.7-9.2 112.5-26.4 148-57.4zM337.8 196l2.3 2.8zm48.3 60.1l118.9-21z" class="st6"/><path d="M312.9 274.7l24 29.9c1-.2 2.1-.4 3.1-.5 2.2-.4 4.4-.8 6.7-1.2 47.4-8.8 106.8-24.9 143-53.3l-101.6 17.9-6.7 1.2-4.3-5.3-8.4-10.4c-15.9-2.2-32-10.1-40.8-20.9s-7.7-21.8 1.2-28.3l-1.2-1.5-26-32.4-64.2 11.1 52.9 65.9 22.3 27.8z" class="st6"/><path d="M327.9 232c8.7 10.9 24.8 18.7 40.8 20.9l-39.5-49.3c-8.9 6.6-10 17.5-1.3 28.4zm12.2-33.2l12.2 15.3-12.2-15.3z" class="st7"/><path d="M600.2 77.2c-.1 0-.2 0-.3.1-.1 0-.3 0-.4.1-32.6 5.8-67.3 18.3-91.1 44.2-1 1-1.9 2.1-2.8 3.2l-2.4 2.7c-1.7 1.9-3.6 3.8-5.5 5.6-.4.4-.9.8-1.3 1.2-.5.5-1.1 1-1.7 1.5-35.6 31-98.3 48.2-148 57.4-2.3.4-4.5.8-6.7 1.2-1 .2-2.1.4-3.1.5l.9 1.1 2.2 2.8 12.3 15.3 33.7 42 118.9-21 172.2-30.4 13-2.3 64.2-11.3-95-118.4h-3.1c-15.5 0-35.3.9-56 4.5z" class="st6"/><path fill="#dd8799" d="M314.9 167.4l22.1 27.5c1-.2 2.1-.4 3.1-.5 2.2-.4 4.4-.8 6.7-1.2 49.6-9.2 112.4-26.5 148-57.4.6-.5 1.1-1 1.7-1.5.4-.4.9-.8 1.3-1.2 1.9-1.8 3.8-3.7 5.5-5.6l2.4-2.7c.9-1.1 1.9-2.1 2.8-3.2 23.7-25.9 58.5-38.4 91.1-44.2.1 0 .3 0 .4-.1.1 0 .2 0 .3-.1 20.7-3.6 40.5-4.5 56-4.5h3.1l-46.8-58.3-6.6-8.2-199 35.1-169.3 30 68.9 85.9 8.3 10.2zm28-78.9c20.4-3.6 46.7 5.7 58.8 20.8 12.1 15.1 5.4 30.2-15 33.8-20.4 3.6-46.7-5.7-58.8-20.8s-5.4-30.3 15-33.8z"/><ellipse cx="364.8" cy="115.7" class="st6" rx="26" ry="44.2" transform="rotate(-72.902 364.79 115.75)"/></svg>