<?xml version="1.0" standalone="no"?>
<!DOCTYPE svg PUBLIC "-//W3C//DTD SVG 20010904//EN"
 "http://www.w3.org/TR/2001/REC-SVG-20010904/DTD/svg10.dtd">
<svg version="1.0" xmlns="http://www.w3.org/2000/svg"
 width="600.000000pt" height="128.000000pt" viewBox="0 0 600.000000 128.000000"
 preserveAspectRatio="xMidYMid meet">

<g transform="translate(0.000000,128.000000) scale(0.100000,-0.100000)"
fill="#000000" stroke="none">
<path d="M194 1086 c-3 -8 -4 -25 -1 -38 3 -17 5 -15 6 10 l1 32 443 -2 442
-3 3 -47 c2 -44 -1 -50 -40 -87 -37 -35 -49 -40 -88 -40 l-45 0 28 24 c33 29
34 35 4 35 -13 0 -36 -13 -52 -30 -24 -25 -37 -30 -74 -30 l-45 0 29 30 29 30
-25 0 c-15 0 -37 -12 -54 -30 -24 -25 -37 -30 -74 -30 l-45 0 33 34 c28 29 30
34 15 40 -12 5 -30 -5 -59 -34 -35 -34 -47 -40 -85 -40 l-44 0 39 40 c38 39
38 40 14 40 -16 0 -39 -14 -64 -40 -36 -37 -43 -40 -94 -40 l-55 0 39 40 c37
38 38 40 15 40 -14 -1 -41 -15 -61 -33 l-37 -32 24 -28 24 -28 260 -7 260 -7
-248 -89 c-136 -49 -249 -91 -251 -92 -2 -2 -1 -10 2 -18 4 -11 14 -12 40 -6
49 11 67 -3 67 -51 0 -25 -5 -42 -14 -45 -8 -3 -16 -14 -19 -25 -3 -12 -14
-19 -30 -19 -25 0 -25 2 -20 54 4 34 2 56 -6 60 -7 5 -11 -2 -11 -18 0 -29
-31 -66 -55 -66 -25 0 -55 38 -55 70 0 22 -4 28 -15 24 -13 -5 -15 7 -15 74
l0 80 32 11 c33 12 68 38 68 52 0 5 -16 -3 -36 -16 -20 -14 -47 -25 -60 -25
-21 0 -24 5 -25 43 0 23 -4 51 -8 62 -15 37 -21 -72 -21 -362 0 -172 4 -292
10 -303 9 -17 6 -20 -27 -25 -84 -14 -133 -27 -144 -41 -15 -19 30 -38 131
-54 41 -6 98 -20 125 -30 92 -33 194 -44 395 -45 264 0 406 26 475 86 19 17
35 35 35 40 0 5 -25 16 -55 24 -49 15 -53 18 -40 31 8 9 17 25 20 37 6 21 1
493 -6 712 l-4 110 -448 3 c-382 2 -448 0 -453 -12z m891 -165 c-3 -6 -11 -11
-17 -11 -6 0 -6 6 2 15 14 17 26 13 15 -4z m-289 -256 c18 -25 18 -65 -2 -93
-11 -16 -25 -22 -55 -22 -41 0 -47 8 -28 39 9 14 9 25 -3 49 -10 18 -12 34 -7
39 17 17 80 9 95 -12z m122 -5 c5 -29 -15 -50 -24 -27 -12 31 -34 19 -34 -18
0 -24 5 -35 15 -35 8 0 15 7 15 15 0 20 19 19 27 0 6 -17 -23 -55 -42 -55 -40
0 -67 97 -36 134 20 24 75 15 79 -14z m112 0 c16 -29 3 -59 -27 -66 -22 -6
-23 -8 -9 -16 24 -14 9 -28 -30 -28 -33 0 -45 12 -24 25 6 3 10 21 10 40 0 19
-4 37 -10 40 -23 14 -7 25 35 25 34 0 47 -5 55 -20z m-476 -16 c27 -26 8 -103
-25 -104 -20 0 -42 31 -42 60 0 20 7 38 18 46 24 18 30 17 49 -2z m116 -35 c0
-15 5 -31 10 -34 20 -13 -1 -23 -47 -23 l-48 -1 -1 49 c0 48 0 49 30 52 40 4
56 -8 56 -43z m182 -116 c-112 -2 -292 -2 -400 0 -108 1 -17 2 203 2 220 0
309 -1 197 -2z"/>
<path d="M750 615 c0 -19 5 -35 10 -35 6 0 10 16 10 35 0 19 -4 35 -10 35 -5
0 -10 -16 -10 -35z"/>
<path d="M980 635 c0 -8 5 -15 10 -15 6 0 10 7 10 15 0 8 -4 15 -10 15 -5 0
-10 -7 -10 -15z"/>
<path d="M627 600 c-3 -11 -1 -23 4 -26 5 -3 9 6 9 20 0 31 -6 34 -13 6z"/>
<path d="M715 1068 c5 -13 18 -18 44 -18 34 1 35 2 17 15 -13 10 -23 11 -31 5
-7 -6 -16 -5 -24 3 -10 9 -11 8 -6 -5z"/>
<path d="M885 1070 c-4 -6 -11 -8 -16 -5 -5 4 -9 1 -9 -4 0 -6 16 -11 35 -11
40 0 43 5 16 20 -14 7 -22 7 -26 0z"/>
<path d="M1025 1070 c-4 -6 -11 -8 -16 -5 -5 4 -9 1 -9 -4 0 -6 16 -11 35 -11
40 0 43 5 16 20 -14 7 -22 7 -26 0z"/>
<path d="M260 1059 c0 -5 17 -9 37 -9 20 0 33 3 29 7 -10 11 -66 12 -66 2z"/>
<path d="M420 1058 c0 -4 16 -8 36 -8 21 0 33 4 29 10 -7 12 -65 10 -65 -2z"/>
<path d="M580 1058 c0 -4 16 -8 36 -8 21 0 33 4 29 10 -7 12 -65 10 -65 -2z"/>
<path d="M1460 645 l0 -365 2185 0 2185 0 0 365 0 365 -2185 0 -2185 0 0 -365z"/>
<path d="M190 971 c0 -24 22 -28 40 -6 8 9 8 15 2 15 -6 0 -17 3 -26 6 -12 4
-16 0 -16 -15z"/>
<path d="M304 636 c-8 -21 -1 -49 14 -54 8 -2 12 7 12 27 0 33 -17 51 -26 27z"/>
<path d="M424 609 c-3 -6 -1 -16 5 -22 8 -8 11 -5 11 11 0 24 -5 28 -16 11z"/>
</g>
</svg>
