<?xml version="1.0" encoding="utf-8"?>
<!-- Generator: Adobe Illustrator 26.4.0, SVG Export Plug-In . SVG Version: 6.00 Build 0)  -->
<svg version="1.1" id="Layer_1" xmlns="http://www.w3.org/2000/svg" xmlns:xlink="http://www.w3.org/1999/xlink" x="0px" y="0px"
	 viewBox="0 0 477 92" style="enable-background:new 0 0 477 92;" xml:space="preserve">
<style type="text/css">
	.st0{fill:url(#SVGID_1_);}
</style>
<linearGradient id="SVGID_1_" gradientUnits="userSpaceOnUse" x1="48.1311" y1="58.7847" x2="93.131" y2="34.4514">
	<stop  offset="0" style="stop-color:#30DAE2"/>
	<stop  offset="0.8487" style="stop-color:#FD338C"/>
</linearGradient>
<path class="st0" d="M95.5,3.3c-4.5,7.3-8.5,14.8-12.9,22.2c-6.5-12.1-19-20.3-32.6-22l0,0c-5.3-0.6-10.5-0.3-15.6,1
	C18.1,8.6,5.4,22.4,2.6,39c-2.8,15.8,3.9,32.3,16.8,41.8c7.4,5.5,16.4,8.4,25.5,8.4c9,0,18,0,27,0c-0.1-4.9-0.1-9.9-0.1-14.8
	c-7,0-13.9-0.2-20.9-0.1c-4.7,0-9.3,0.2-13.8-1.2c-8-2.3-14.8-8.3-18-16.1c-3.3-7.8-2.8-16.9,1.3-24.3c4.2-7.7,12-12.9,20.6-14.3
	c5.8-0.6,11.2,0.3,16.6,2.7c6.2,3.3,10.5,8.5,14.3,14.2c3.7,5.2,7.4,10.5,11.1,15.8c2.5-3.4,5-6.7,7.3-10.2c1.8-2.8,3.5-5.7,5.3-8.5
	c8,13.9,16.1,27.8,24,41.8c5.6,0.2,11.2,0.1,16.9,0.1C122.8,50.6,109.2,26.9,95.5,3.3z"/>
<g>
	<path d="M146.9,43.4c-9,0-15.4-6.7-15.4-14.9v-0.1c0-8.3,6.5-15,15.5-15s15.4,6.7,15.4,14.9v0.1C162.4,36.6,155.9,43.4,146.9,43.4z
		 M155.7,28.4c0-5-3.7-9.1-8.8-9.1s-8.7,4.1-8.7,9v0.1c0,5,3.7,9.1,8.8,9.1S155.7,33.4,155.7,28.4L155.7,28.4z"/>
	<path d="M175.4,34.2h-4.9v8.7h-6.4V13.8H176c6.9,0,11.1,4.1,11.1,10V24C187.2,30.7,181.9,34.2,175.4,34.2z M180.7,24
		c0-2.9-2-4.4-5.2-4.4h-4.9v8.9h5.1C178.8,28.5,180.7,26.6,180.7,24L180.7,24z"/>
	<path d="M189.8,42.9V13.8h21.9v5.7h-15.6v5.9h13.7v5.7h-13.7v6.1h15.8v5.7H189.8z"/>
	<path d="M235.9,42.9l-14.1-18.5v18.5h-6.3V13.8h5.9L235,31.7V13.8h6.3v29.1H235.9z"/>
</g>
<g>
	<path d="M176.8,77.6l-2.5-6.5h-11.5l-2.5,6.5h-6.1l11.7-29.3h5.5l11.7,29.3H176.8z M168.5,56l-3.6,9.4h7.3L168.5,56z"/>
	<path d="M204.1,77.6l-13.2-18.5v18.5H185V48.6h5.5l12.8,17.9V48.6h5.9v29.1H204.1z"/>
	<path d="M234.9,77.6l-13.2-18.5v18.5h-5.9V48.6h5.5l12.8,17.9V48.6h5.9v29.1H234.9z"/>
	<path d="M259.9,78.1c-8.4,0-14.5-6.7-14.5-14.9v-0.1c0-8.3,6.1-15,14.6-15s14.5,6.7,14.5,14.9v0.1
		C274.4,71.4,268.3,78.1,259.9,78.1z M268.1,63.1c0-5-3.4-9.1-8.3-9.1s-8.2,4.1-8.2,9v0.1c0,5,3.4,9.1,8.3,9.1
		S268.1,68.2,268.1,63.1L268.1,63.1z"/>
	<path d="M290,54.5v23.2h-6V54.5h-8.3v-5.9h22.6v5.9H290z"/>
	<path d="M318.7,77.6l-2.5-6.5h-11.5l-2.5,6.5h-6.1l11.7-29.3h5.5L325,77.6H318.7z M310.5,56l-3.6,9.4h7.3L310.5,56z"/>
	<path d="M338.1,54.5v23.2h-6V54.5h-8.3v-5.9h22.6v5.9H338.1z"/>
	<path d="M350.3,77.6V48.6h6v29.1H350.3z"/>
	<path d="M375.4,78.1c-8.4,0-14.5-6.7-14.5-14.9v-0.1c0-8.3,6.1-15,14.6-15S390,54.8,390,63v0.1C390,71.4,383.8,78.1,375.4,78.1z
		 M383.7,63.1c0-5-3.4-9.1-8.3-9.1s-8.2,4.1-8.2,9v0.1c0,5,3.4,9.1,8.3,9.1S383.7,68.2,383.7,63.1L383.7,63.1z"/>
	<path d="M413.5,77.6l-13.2-18.5v18.5h-5.9V48.6h5.5l12.8,17.9V48.6h5.9v29.1H413.5z"/>
	<path d="M423.5,77.6V71h5.2v6.6H423.5z"/>
	<path d="M434.9,77.6V48.6h5.8v29.1H434.9z"/>
	<path d="M459.8,78.1c-8.4,0-14.5-6.7-14.5-14.9v-0.1c0-8.3,6.1-15,14.6-15s14.5,6.7,14.5,14.9v0.1
		C474.4,71.4,468.2,78.1,459.8,78.1z M468.1,63.1c0-5-3.4-9.1-8.3-9.1s-8.2,4.1-8.2,9v0.1c0,5,3.4,9.1,8.3,9.1
		S468.1,68.2,468.1,63.1L468.1,63.1z"/>
</g>
</svg>
