<svg xmlns="http://www.w3.org/2000/svg" role="img" viewBox="0.38 0.38 71.11 36.11"><style>svg {enable-background:new 0 0 72 30}</style><path fill="#00c7fd" d="M1.8 2.1h4.96v4.96H1.8z"/><path fill="#0068b5" d="M6.63 27.9V10.06h-4.7V27.9h4.7zm31.15.18v-4.37c-.69 0-1.26-.04-1.7-.11-.48-.08-.86-.24-1.1-.49-.25-.25-.41-.61-.49-1.07-.07-.44-.11-1.02-.11-1.72v-6.24h3.4v-4.02h-3.4V3.11h-4.7v17.24c0 1.45.13 2.69.38 3.68.25.97.67 1.77 1.25 2.37.58.6 1.36 1.03 2.29 1.29.95.26 2.15.39 3.58.39h.6zm26.93-.18V1.74h-4.7V27.9h4.7zM25.15 11.82C23.84 10.41 22 9.7 19.68 9.7c-1.12 0-2.16.23-3.08.69-.92.46-1.71 1.1-2.33 1.9l-.26.33V10.06H9.37V27.9h4.67v-9.5.34c.05-1.67.46-2.91 1.24-3.7.83-.84 1.83-1.27 2.98-1.27 1.36 0 2.39.42 3.08 1.23.67.8 1.01 1.95 1.02 3.42v9.48h4.74V17.77c.01-2.54-.65-4.54-1.95-5.95zm32.41 7.12c0-1.28-.23-2.49-.68-3.61-.45-1.11-1.09-2.1-1.89-2.95-.8-.84-1.78-1.51-2.91-1.98-1.12-.46-2.38-.7-3.73-.7-1.28 0-2.5.25-3.62.73-1.13.49-2.12 1.15-2.95 1.98-.83.83-1.5 1.82-1.98 2.95-.49 1.12-.73 2.34-.73 3.62 0 1.28.23 2.5.7 3.62.46 1.13 1.11 2.12 1.93 2.94.82.83 1.82 1.5 2.98 1.98 1.16.49 2.45.73 3.82.73 3.98 0 6.46-1.81 7.94-3.5l-3.38-2.58c-.71.85-2.4 1.99-4.52 1.99-1.33 0-2.42-.31-3.24-.91-.83-.61-1.4-1.44-1.7-2.48l-.05-.17h14.01v-1.66zm-13.97-1.63c0-1.31 1.5-3.59 4.73-3.59 3.23 0 4.73 2.28 4.73 3.58l-9.46.01zm26.47 8.34c-.09-.21-.22-.39-.37-.55-.16-.16-.34-.28-.55-.37-.21-.09-.44-.14-.68-.14-.24 0-.47.05-.68.14-.21.09-.39.22-.55.37-.16.16-.28.34-.37.55-.09.21-.14.44-.14.68 0 .24.05.47.14.68.09.21.22.39.37.55.16.16.34.28.55.37.21.09.44.14.68.14.24 0 .47-.05.68-.14.21-.09.39-.22.55-.37.16-.16.28-.34.37-.55.09-.21.14-.44.14-.68 0-.24-.05-.47-.14-.68zm-.28 1.23c-.07.17-.18.33-.31.46s-.28.23-.46.31c-.17.07-.36.11-.56.11-.2 0-.38-.04-.56-.11-.17-.07-.33-.18-.46-.31s-.23-.28-.31-.46c-.07-.17-.11-.36-.11-.56 0-.2.04-.38.11-.56.07-.17.18-.33.31-.46s.28-.23.46-.31c.17-.07.36-.11.56-.11.2 0 .38.04.56.11.17.07.33.18.46.31s.23.28.31.46c.07.17.11.36.11.56 0 .2-.04.39-.11.56zm-.99-.41c.14-.02.25-.07.34-.15.09-.09.13-.22.13-.39 0-.19-.06-.34-.17-.44-.11-.1-.29-.15-.53-.15h-.77v1.99h.36v-.81h.27l.5.81h.38l-.51-.86zm-.2-.29c-.06 0-.11.01-.17.01h-.27v-.56H68.59c.06 0 .11.01.15.03.05.02.08.05.11.08.03.04.04.09.04.15s-.01.12-.04.15c-.03.04-.06.07-.11.08-.04.04-.09.05-.15.06z"/><path d="M10.57597 32.92164c-.2013.25322-.4729.37943-.81558.37943s-.61587-.1262-.82037-.37943c-.2037-.25242-.30594-.61188-.30594-1.07838 0-.4657.10225-.82516.30594-1.07838.2045-.25242.47769-.37943.82037-.37943.34269 0 .61428.12701.81558.38103.2013.25322.30194.61268.30194 1.07678 0 .4665-.10065.82596-.30194 1.07838zm.54078.62946c.41698-.3954.62626-.96415.62626-1.70784 0-.75806-.20928-1.3276-.62626-1.70703-.31313-.32272-.76525-.48327-1.35636-.48327-.59191 0-1.04403.16055-1.35636.48327-.41937.37943-.62946.94897-.62946 1.70703 0 .74369.21009 1.31243.62946 1.70784.31233.32192.76445.48247 1.35636.48247.59111 0 1.04323-.16055 1.35636-.48247zM9.7604 29.65296zm4.5252 2.10883c.10784.18132.16136.39061.16136.62626 0 .28677-.05831.51602-.17574.68776-.11662.17254-.28676.25881-.50963.25881-.15337 0-.28597-.04233-.3986-.1262-.18932-.14459-.28358-.39461-.28358-.75008 0-.22446.02796-.40978.08468-.55596.10863-.27559.30754-.41298.5975-.41298.24204 0 .41617.09106.52401.27239zm.61508-.57594c-.24843-.2636-.55117-.3954-.90824-.3954-.24523 0-.45691.0679-.63504.20449-.09746.07668-.18932.18213-.27479.31473v-.45212h-.76685v4.26559h.79161v-1.5952c.08468.1294.17095.22765.25881.29555.16056.12142.36266.18213.6063.18213.38182 0 .69415-.1414.93699-.42417.24203-.28277.36345-.69335.36345-1.23254 0-.51124-.12381-.89865-.37224-1.16306zm1.727.42417c.10225-.11583.24603-.17414.43136-.17414.17014 0 .31313.05511.42815.16455.11503.10944.17893.27.19251.48168h-1.24453c.02636-.1989.09027-.35547.19251-.4721zm1.11912-.69097c-.2037-.09505-.43375-.14298-.68776-.14298-.42896 0-.77803.14139-1.04643.42416-.2684.28278-.4026.68937-.4026 1.21897 0 .56555.14858.97374.44653 1.22456.29716.25082.64064.37623 1.03045.37623.4721 0 .83874-.14937 1.10075-.44652.16855-.18772.2628-.37225.28357-.55357h-.81717c-.04313.09026-.09266.16056-.14857.21088-.10305.09346-.23725.14059-.4018.14059-.15577 0-.28837-.03834-.3986-.11583-.18213-.12301-.27798-.33869-.28917-.64543h2.09446c.00399-.2644-.0048-.4665-.02477-.60709-.03594-.23964-.11343-.44972-.23325-.63185-.1334-.20529-.30114-.35626-.50564-.45212zm-.63185-.14298zm4.40778.25721c-.2013-.16615-.4601-.24843-.77643-.24843-.25322 0-.4617.06151-.62626.18533-.09186.0687-.18932.18212-.29236.33949v-.44653h-.77244v3.0554h.798v-1.6567c0-.18932.02636-.34429.07828-.4665.10145-.23006.28757-.34508.55916-.34508.22047 0 .37064.07828.44893.23564.04313.08627.0647.21009.0647.37064v1.862h.82037v-2.0609c0-.38422-.10065-.659-.30195-.82436zm-1.07119-.25721zm4.56594 3.14248v-4.13938h-.8595v4.13938zm-.42975-4.22086zm4.9901 1.17104c-.131-.05192-.2636-.07828-.3986-.07828-.2021 0-.38582.04153-.55037.1262-.15497.08388-.28518.21648-.39062.39621-.0599-.15017-.14778-.27239-.2636-.36825-.14379-.10304-.3331-.15416-.56715-.15416-.24763 0-.44893.0599-.6039.17973-.08786.0671-.18132.18053-.28117.33949v-.44653h-.77723v3.0554h.81158v-1.84203c0-.16694.02157-.29236.0639-.37623.07908-.14778.23245-.22207.46091-.22207.1965 0 .3283.0743.3962.22207.03755.08228.05592.21408.05592.3962v1.82207h.80599v-1.82207c0-.13739.02157-.25401.0647-.35147.08388-.18372.23645-.27478.45772-.27478.1909 0 .32191.07109.393.21327.03755.0743.05592.17015.05592.28598v1.94907h.82037l.00559-1.9291c0-.1989-.00959-.34908-.02796-.45213-.03035-.15576-.08787-.28676-.17414-.393-.10704-.131-.22606-.22287-.35706-.2756zm2.98272 1.56165v.29796c-.0056.2676-.08068.45212-.22606.55276-.14538.10145-.30355.15178-.47609.15178-.10863 0-.2005-.03036-.27638-.09107-.07589-.0607-.11423-.15976-.11423-.29635 0-.15337.0623-.2668.18532-.34029.0735-.04314.19411-.07908.36266-.10944l.17973-.03355c.08946-.01677.16056-.03514.21168-.05431.05192-.01997.10304-.04554.15337-.07749zm-.48567-.37384l-.2724.03355c-.30913.03994-.54318.10545-.70214.1973-.28996.16855-.43534.44095-.43534.81718 0 .28996.09026.51443.27079.67259.18053.15816.40978.23724.68697.23724.21727 0 .41138-.04952.58392-.14937.14378-.08388.2716-.18612.38183-.30594.00559.0695.01358.131.02236.18532.00959.05432.02636.11263.05113.17414h.86989v-.11823c-.05192-.02396-.09106-.05511-.11742-.09266-.02636-.03674-.04234-.10783-.04793-.21328-.004-.13819-.0056-.25641-.0056-.35386v-1.4035c0-.36904-.1302-.61986-.3906-.75326-.26042-.1326-.55757-.1989-.89306-.1989-.51443 0-.87789.1342-1.08957.40419-.1326.17254-.20769.3922-.22446.6598h.77244c.01837-.11822.05591-.21168.11183-.28037.07908-.09426.21248-.1406.4018-.1406.16854 0 .29635.02397.38342.0711.08707.04793.131.135.131.26041 0 .10305-.0575.17813-.17174.22686-.0639.02876-.16934.05192-.31712.0703zm.04234-1.28047zm3.74317 2.27338c-.1294.14139-.28757.21168-.47449.21168-.28117 0-.47608-.1286-.58472-.38741-.0599-.1382-.08946-.29636-.08946-.47449 0-.2061.02796-.37863.08387-.51922.10704-.2644.30115-.3962.58153-.3962.20609 0 .37064.07588.49286.22765.12301.15177.18372.37224.18372.663 0 .30834-.0639.5336-.1933.675zm-.27239-2.1943c-.11423-.04713-.24843-.0703-.4018-.0703-.41537 0-.73649.15497-.96335.4649-.22606.30914-.33949.69177-.33949 1.14708 0 .4713.11743.84513.35227 1.12152.23485.27638.54878.41458.94259.41458.25402 0 .4609-.06071.62066-.18293.08787-.0655.17015-.16375.24683-.29476v.1965c0 .29237-.03195.50006-.09585.62387-.09746.19251-.28997.28917-.57833.28917-.2037 0-.34908-.03675-.43535-.10944-.05032-.04154-.08707-.10864-.10944-.2021h-.87069c.02636.30515.16296.5344.41059.68777.24683.15337.56635.23006.95696.23006.64783 0 1.08637-.17255 1.31482-.51683.1326-.2005.1989-.49765.1989-.89306v-2.90363h-.77803v.44093c-.11982-.21487-.27638-.36345-.47129-.44333zm-.14618-.07908zm2.91961.83395c.10145-.11583.24524-.17414.43056-.17414.17014 0 .31313.05511.42815.16455.11503.10944.17973.27.19252.48168H38.1689c.02557-.1989.09027-.35547.19251-.4721zm1.11832-.69097c-.20369-.09505-.43294-.14298-.68776-.14298-.42896 0-.77723.14139-1.04563.42416-.2692.28278-.4034.68937-.4034 1.21897 0 .56555.14858.97374.44653 1.22456.29796.25082.64144.37623 1.03046.37623.47209 0 .83874-.14937 1.10074-.44652.16855-.18772.2636-.37225.28438-.55357h-.81798c-.04233.09026-.09266.16056-.14857.21088-.10305.09346-.23645.14059-.4018.14059-.15497 0-.28837-.03834-.3986-.11583-.18133-.12301-.27798-.33869-.28917-.64543h2.09526c.0032-.2644-.0048-.4665-.02557-.60709-.03514-.23964-.11342-.44972-.23324-.63185-.1326-.20529-.30115-.35626-.50565-.45212zm-.63185-.14298zm4.43734-.27798h.798c.393 0 .65502.11263.78762.33869.1318.22526.1981.54877.1981.96974 0 .30514-.04473.56875-.1326.78921-.16056.4026-.44493.6039-.85312.6039h-.798zm1.58402-.62866c-.17015-.05671-.38422-.08627-.64064-.09026H42.4457v4.13938h1.78292c.62546 0 1.08797-.25722 1.38752-.77244.22126-.38183.3315-.84753.3315-1.3979 0-.21728-.02636-.44573-.07828-.68537-.05272-.23964-.15098-.4625-.29556-.6686-.17973-.25482-.41458-.42975-.70454-.52481zm2.44193 1.74059c.10225-.11583.24523-.17414.43055-.17414.17095 0 .31313.05511.42896.16455.11503.10944.17893.27.19171.48168h-1.24373c.02636-.1989.09026-.35547.19251-.4721zm1.11912-.69097c-.2045-.09505-.43375-.14298-.68857-.14298-.42815 0-.77723.14139-1.04563.42416-.2684.28278-.40339.68937-.40339 1.21897 0 .56555.14938.97374.44653 1.22456.29795.25082.64144.37623 1.03125.37623.4713 0 .83874-.14937 1.10075-.44652.16854-.18772.2628-.37225.28357-.55357h-.81717c-.04314.09026-.09266.16056-.14938.21088-.10224.09346-.23644.14059-.401.14059-.15576 0-.28836-.03834-.3994-.11583-.18132-.12301-.27798-.33869-.28916-.64543h2.09525c.004-.2644-.0048-.4665-.02556-.60709-.03515-.23964-.11263-.44972-.23245-.63185-.1334-.20529-.30195-.35626-.50564-.45212zm-.63185-.14298zm4.40778.25721c-.2013-.16615-.46011-.24843-.77724-.24843-.25242 0-.4609.06151-.62626.18533-.09106.0687-.18851.18212-.29156.33949v-.44653h-.77244v3.0554h.798v-1.6567c0-.18932.02557-.34429.07829-.4665.10144-.23006.28756-.34508.55916-.34508.22047 0 .37064.07828.44892.23564.04314.08627.0647.21009.0647.37064v1.862h.81957v-2.0609c0-.38422-.10064-.659-.30114-.82436zm-1.072-.25721zm4.02436 2.3285c-.12541.16615-.30514.25002-.53919.25002-.23405 0-.41378-.08387-.54079-.25002-.1262-.16695-.18931-.4034-.18931-.71093 0-.30674.0631-.54319.18931-.70934.12701-.16535.30674-.24842.5408-.24842.23404 0 .41377.08307.53918.24842.12541.16615.18852.4026.18852.70934 0 .30754-.0631.54398-.18852.71093zm.64064.44174c.25801-.31872.38742-.70295.38742-1.15267 0-.44174-.1294-.82436-.38742-1.14868-.25881-.32351-.65102-.48567-1.17663-.48567-.52641 0-.91862.16216-1.17664.48567-.2588.32432-.38741.70694-.38741 1.14868 0 .44972.1286.83395.38741 1.15267.25802.31952.65023.47928 1.17664.47928.5256 0 .91782-.15976 1.17663-.47928zm-1.17663-2.77024zm2.95955-.28358v-.73889h-.81158v.7389zm-.81158.36506v3.061h.81158v-3.061zm2.21028 2.08406h-.81158c0 .31393.11503.57274.34428.77644.22926.2029.58392.30434 1.0656.30434.4713 0 .82037-.09585 1.04563-.28757.22606-.1917.3387-.43934.3387-.74288 0-.23006-.0783-.42257-.23566-.57594-.15976-.15177-.3978-.2644-.71652-.33949-.47688-.10464-.75486-.17893-.83395-.22206-.07828-.04074-.11822-.10784-.11822-.1989 0-.0735.03755-.1374.11103-.19172.0743-.05351.1981-.08067.37225-.08067.21168 0 .36105.05352.44972.16215.04633.05991.07589.14139.08707.24444h.8004c-.03595-.37384-.17414-.63745-.41458-.79002-.24044-.15257-.55197-.22925-.9338-.22925-.4026 0-.71492.10144-.9362.30514-.22206.2029-.3331.44573-.3331.7285 0 .23964.0711.42337.21329.55038.14219.1294.38662.23644.7333.32271.48087.11423.75886.1949.83394.24204.0751.04633.11264.11503.11264.2045 0 .09345-.04634.16375-.1398.21087-.09266.04633-.21727.0703-.37463.0703-.2676 0-.45132-.05352-.55038-.16056-.05591-.05991-.09266-.16056-.10943-.30275zm.61188-2.16554zm2.73988.83395c.10225-.11583.24603-.17414.43136-.17414.17014 0 .31313.05511.42815.16455.11503.10944.17893.27.19171.48168H62.1401c.02636-.1989.09027-.35547.19251-.4721zm1.11912-.69097c-.20449-.09505-.43375-.14298-.68776-.14298-.42896 0-.77804.14139-1.04643.42416-.2684.28278-.4034.68937-.4034 1.21897 0 .56555.14938.97374.44653 1.22456.29796.25082.64144.37623 1.03125.37623.4713 0 .83874-.14937 1.10075-.44652.16855-.18772.2628-.37225.28357-.55357h-.81717c-.04313.09026-.09266.16056-.14857.21088-.10305.09346-.23725.14059-.4018.14059-.15577 0-.28837-.03834-.3986-.11583-.18213-.12301-.27798-.33869-.28997-.64543h2.09526c.00399-.2644-.0048-.4665-.02557-.60709-.03514-.23964-.11263-.44972-.23245-.63185-.1334-.20529-.30194-.35626-.50564-.45212zm-.63185-.14298z"/></svg>