<?xml version="1.0" standalone="no"?>
<!DOCTYPE svg PUBLIC "-//W3C//DTD SVG 20010904//EN"
 "http://www.w3.org/TR/2001/REC-SVG-20010904/DTD/svg10.dtd">
<svg version="1.0" xmlns="http://www.w3.org/2000/svg"
 width="160.000000pt" height="160.000000pt" viewBox="0 0 160.000000 160.000000"
 preserveAspectRatio="xMidYMid meet">

<g transform="translate(0.000000,160.000000) scale(0.100000,-0.100000)"
fill="#000000" stroke="none">
<path d="M1 1173 c0 -236 3 -422 6 -415 2 6 11 12 19 12 9 0 12 5 8 12 -5 7
-3 8 6 3 8 -5 20 1 32 16 11 13 17 17 13 9 -5 -12 -4 -12 7 1 7 9 19 14 25 12
7 -3 25 8 39 24 15 15 24 21 20 13 -6 -12 -5 -12 6 1 7 9 19 14 25 12 7 -3 25
8 39 24 15 15 24 21 20 13 -5 -9 -2 -8 7 2 8 10 18 14 22 10 5 -4 5 -1 1 6 -4
7 -11 10 -15 8 -4 -3 -13 5 -21 17 -12 21 -12 21 5 7 18 -14 18 -13 0 11 -11
15 -23 22 -26 17 -4 -6 -8 6 -11 26 -2 20 0 36 5 36 4 0 5 5 1 12 -4 7 -3 8 4
4 7 -4 17 -4 22 -1 12 7 104 16 163 15 30 -1 37 3 37 19 0 11 -4 22 -9 25 -5
3 -7 15 -4 25 3 10 0 28 -6 40 -12 22 -4 74 9 66 5 -3 11 -1 14 4 3 5 22 12
41 15 20 4 33 11 30 16 -3 6 0 7 8 4 8 -3 20 2 27 11 7 8 18 15 24 15 6 0 4
-5 -4 -10 -9 -6 -10 -10 -3 -10 6 0 18 7 26 15 8 8 17 12 20 9 3 -4 12 -2 19
2 7 4 19 9 28 11 8 1 36 6 61 11 26 5 57 5 70 0 13 -5 34 -7 46 -5 12 2 20 0
17 -4 -3 -5 14 -10 38 -11 24 -1 57 -3 73 -3 59 -3 134 -26 139 -43 5 -23 2
-95 -6 -107 -3 -6 -9 -27 -13 -48 -7 -36 -6 -37 21 -38 16 -1 63 -3 104 -6 41
-3 83 -6 92 -6 20 -1 42 -53 27 -62 -5 -4 -7 -10 -4 -15 3 -5 0 -12 -6 -16 -8
-5 -10 -2 -5 7 4 8 -1 3 -12 -10 -11 -14 -17 -31 -14 -40 3 -9 1 -12 -6 -7 -6
3 -14 1 -18 -5 -5 -8 1 -10 19 -7 17 3 28 0 32 -9 3 -8 10 -13 17 -11 6 2 20
-4 31 -14 10 -11 24 -17 30 -15 7 2 18 -3 25 -12 8 -9 11 -10 7 -4 -4 9 -1 11
9 7 9 -3 14 -10 11 -14 -3 -4 2 -11 11 -14 10 -4 13 -2 9 7 -4 6 1 3 9 -7 9
-11 19 -17 22 -13 4 4 13 -1 21 -11 10 -11 12 -12 8 -2 -6 13 -5 13 7 0 50
-56 47 -76 48 374 l0 416 -800 0 -800 0 1 -427z"/>
<path d="M988 1202 c-47 -31 -89 -60 -93 -63 -3 -4 -10 -87 -15 -185 -5 -99
-12 -222 -16 -274 l-6 -95 39 50 c106 136 101 123 143 361 22 120 42 229 45
242 3 12 2 22 -2 22 -5 -1 -47 -26 -95 -58z"/>
<path d="M1073 936 c2 -16 -2 -44 -10 -63 -8 -19 -12 -42 -10 -51 2 -10 -3
-30 -10 -45 -8 -15 -11 -32 -8 -37 3 -5 0 -12 -6 -16 -8 -5 -9 -3 -4 6 6 9 4
11 -4 6 -7 -5 -10 -14 -7 -22 3 -7 0 -16 -6 -20 -7 -5 -8 -2 -3 7 8 12 6 12
-8 0 -10 -8 -16 -16 -14 -18 3 -2 -9 -18 -24 -34 -16 -17 -26 -35 -23 -40 7
-12 20 -11 36 4 7 6 19 12 26 13 38 3 43 5 38 13 -3 5 0 9 7 8 34 -1 48 4 41
15 -4 6 -3 8 4 4 6 -3 23 -1 39 5 31 12 94 19 89 10 -2 -3 0 -15 5 -26 5 -13
8 9 8 60 -1 44 4 93 10 108 15 38 14 56 -2 36 -8 -11 -19 -14 -32 -9 -11 4
-24 5 -29 2 -5 -3 -6 0 -2 6 7 11 -27 35 -37 26 -3 -3 -20 14 -38 38 -30 40
-31 41 -26 14z"/>
<path d="M469 903 c-13 -17 -13 -17 6 -3 11 8 22 16 24 17 2 2 0 3 -6 3 -6 0
-17 -8 -24 -17z"/>
<path d="M1110 916 c0 -2 8 -10 18 -17 15 -13 16 -12 3 4 -13 16 -21 21 -21
13z"/>
<path d="M475 890 c-4 -6 -10 -8 -15 -5 -4 3 -19 -4 -31 -16 -13 -11 -18 -17
-10 -13 9 5 12 3 7 -4 -4 -7 -22 -10 -42 -7 -26 3 -34 0 -34 -11 0 -8 3 -13 8
-11 7 5 10 -15 12 -102 0 -30 6 -61 12 -68 8 -9 7 -13 -2 -13 -7 0 -10 -7 -6
-16 3 -8 2 -12 -3 -9 -5 3 -12 1 -16 -4 -3 -6 -19 -9 -34 -8 -16 1 -27 5 -24
10 2 4 -6 8 -19 9 -13 1 -30 2 -38 3 -8 0 -21 4 -28 8 -6 5 -17 5 -24 1 -7 -5
-8 -3 -4 5 5 8 3 11 -5 10 -8 -2 -24 2 -37 9 -12 7 -38 14 -56 16 -18 2 -38 6
-45 10 -6 4 -16 4 -23 0 -6 -4 -8 -3 -4 4 3 6 2 13 -3 17 -7 3 -10 -123 -11
-350 l0 -355 800 0 800 0 0 354 c0 195 -4 357 -9 360 -4 3 -16 -1 -27 -8 -10
-8 -25 -11 -33 -8 -9 3 -12 1 -7 -6 4 -8 2 -10 -7 -6 -8 3 -18 0 -22 -5 -3 -6
-10 -9 -14 -7 -12 8 -81 -13 -81 -24 0 -5 -7 -7 -15 -3 -9 3 -24 -2 -34 -11
-10 -9 -20 -13 -24 -10 -3 3 -11 2 -19 -2 -18 -11 -62 -11 -71 1 -5 6 -5 -1
-1 -15 4 -14 10 -26 15 -28 4 -2 5 -10 2 -19 -4 -11 -2 -14 5 -9 8 4 10 2 6
-7 -3 -8 -1 -18 5 -21 6 -4 8 -13 5 -20 -3 -8 -1 -17 5 -20 6 -4 7 -14 4 -23
-5 -12 -3 -14 7 -8 8 5 11 4 7 -2 -8 -12 11 -83 22 -83 4 0 8 -26 8 -59 l0
-58 -39 1 c-22 1 -43 8 -47 15 -5 8 -13 11 -19 7 -5 -3 -15 1 -22 10 -7 8 -19
13 -27 10 -7 -3 -13 -1 -13 3 0 12 -60 32 -71 25 -5 -3 -9 -1 -9 4 0 6 -7 13
-16 16 -8 3 -12 2 -9 -4 3 -5 -1 -7 -9 -4 -8 3 -17 12 -20 20 -3 8 -10 14 -16
14 -6 0 -8 -6 -5 -12 4 -7 -1 -4 -9 6 -9 11 -19 17 -22 13 -4 -3 -18 2 -32 13
-13 11 -28 17 -32 15 -14 -8 -2 166 12 183 10 13 10 14 0 8 -6 -4 -19 -20 -27
-36 -13 -25 -19 -28 -39 -20 -13 5 -27 6 -30 3 -3 -4 -6 -1 -6 6 0 8 -6 11
-16 7 -8 -3 -13 -2 -10 3 7 10 -22 24 -34 16 -4 -3 -11 2 -14 11 -3 9 -13 14
-20 11 -8 -3 -17 1 -20 9 -4 11 -13 13 -27 9 -16 -6 -20 -4 -14 6 5 8 5 11 0
7 -4 -4 -14 0 -21 10 -7 9 -15 14 -19 10 -13 -13 35 -49 57 -42 13 4 18 2 14
-4 -4 -6 0 -14 8 -19 11 -6 15 -31 17 -96 1 -48 -1 -90 -5 -94 -4 -4 -16 -8
-28 -10 -11 -2 -27 -11 -35 -21 -8 -9 -12 -11 -8 -4 3 6 1 12 -5 12 -6 0 -13
-7 -16 -15 -4 -8 -10 -13 -15 -10 -7 5 -45 -11 -59 -25 -3 -3 -9 -5 -15 -6
-26 -2 -74 -27 -69 -36 3 -5 0 -9 -7 -7 -31 4 -50 -2 -65 -19 -11 -13 -25 -17
-50 -14 l-35 4 4 52 c3 28 8 59 12 69 4 10 5 21 1 24 -3 3 -1 12 4 18 14 17
42 124 35 135 -3 5 -1 12 5 15 6 4 10 14 8 23 -1 10 4 27 10 40 7 12 12 30 10
38 -4 22 26 26 77 12 22 -7 45 -12 50 -13 6 0 16 -6 24 -13 8 -8 22 -11 32 -9
10 3 20 0 22 -7 2 -6 7 -8 11 -5 10 9 -3 37 -20 43 -8 3 -12 2 -9 -3 3 -5 0
-13 -6 -17 -7 -4 -9 -3 -6 3 4 6 -1 19 -9 29 -9 10 -13 13 -9 7 11 -22 -4 -14
-16 8 -8 15 -8 19 0 15 14 -9 14 -4 0 31 -12 28 -18 62 -19 96 -2 48 -29 82
-45 57z"/>
</g>
</svg>
