<?xml version="1.0" encoding="utf-8"?>
<svg width="275.88452px" height="70.30298px" viewBox="0 0 275.88452 70.30298" version="1.1" xmlns:xlink="http://www.w3.org/1999/xlink" xmlns="http://www.w3.org/2000/svg">
  <g id="Group-5-Copy-2">
    <g id="Icon-Copy">
      <path d="M0 0L7.81146 0L7.81146 7.81145L11.7172 7.81145L11.7172 0L70.303 0L70.303 70.303L0 70.303L0 11.7172L7.8113 11.7172L7.8113 7.81145L0 7.81145L0 0L0 0ZM62.4916 7.8125L7.81152 7.8125L7.81152 62.4926L62.4916 62.4926L62.4916 7.8125L62.4916 7.8125Z" id="Outline" fill="#0583D6" fill-rule="evenodd" stroke="none" />
      <path d="M11.7173 37.7557L20.8306 37.7557L20.8306 46.869L11.7173 46.869L11.7173 37.7557Z" id="Pixel-6" fill="#0583D6" fill-rule="evenodd" stroke="none" />
      <path d="M24.7363 24.7371L33.8497 24.7371L33.8497 33.8505L24.7363 33.8505L24.7363 24.7371Z" id="Pixel-5" fill="#0583D6" fill-rule="evenodd" stroke="none" />
      <path d="M11.7173 24.7371L20.8306 24.7371L20.8306 33.8505L11.7173 33.8505L11.7173 24.7371Z" id="Pixel-4" fill="#0583D6" fill-rule="evenodd" stroke="none" />
      <path d="M37.7554 11.7164L46.8687 11.7164L46.8687 20.8297L37.7554 20.8297L37.7554 11.7164Z" id="Pixel-3" fill="#0583D6" fill-rule="evenodd" stroke="none" />
      <path d="M24.7363 11.7164L33.8497 11.7164L33.8497 20.8297L24.7363 20.8297L24.7363 11.7164Z" id="Pixel-2" fill="#0583D6" fill-rule="evenodd" stroke="none" />
      <path d="M11.7173 11.7164L20.8306 11.7164L20.8306 20.8297L11.7173 20.8297L11.7173 11.7164Z" id="Pixel-1" fill="#0583D6" fill-rule="evenodd" stroke="none" />
    </g>
    <path d="M148.979 60.8168C154.539 54.7929 157.319 46.1741 157.319 34.9603C157.319 23.7156 154.562 15.0968 149.048 9.10375C143.534 3.11071 135.572 0.114197 125.161 0.114197C114.75 0.114202 106.757 3.08755 101.181 9.03424C95.6051 14.9809 92.8171 23.5921 92.8171 34.8676C92.8171 46.1432 95.5974 54.7929 101.158 60.8168C106.719 66.8408 114.689 69.8527 125.068 69.8527C135.448 69.8527 143.418 66.8408 148.979 60.8168L148.979 60.8168ZM267.544 60.8168C273.104 54.7929 275.884 46.1741 275.884 34.9603C275.884 23.7156 273.127 15.0968 267.613 9.10375C262.099 3.11071 254.137 0.114197 243.726 0.114197C233.315 0.114202 225.322 3.08755 219.746 9.03424C214.17 14.9809 211.382 23.5921 211.382 34.8676C211.382 46.1432 214.162 54.7929 219.723 60.8168C225.283 66.8408 233.254 69.8527 243.633 69.8527C254.013 69.8527 261.983 66.8408 267.544 60.8168L267.544 60.8168ZM164.76 1.17993L164.76 68.9259L179.125 68.9259L179.125 1.17993L164.76 1.17993L164.76 1.17993ZM189.577 1.17993L189.577 68.9259L203.942 68.9259L203.942 1.17993L189.577 1.17993L189.577 1.17993ZM112.186 52.0589C109.313 48.2283 107.877 42.5288 107.877 34.9603C107.877 27.3917 109.329 21.6845 112.233 17.8384C115.137 13.9924 119.446 12.0693 125.161 12.0693C136.56 12.0693 142.26 19.6996 142.26 34.9603C142.26 50.19 136.529 57.8048 125.068 57.8048C119.353 57.8048 115.059 55.8895 112.186 52.0589L112.186 52.0589ZM230.751 52.0589C227.878 48.2283 226.442 42.5288 226.442 34.9603C226.442 27.3917 227.894 21.6845 230.798 17.8384C233.702 13.9924 238.011 12.0693 243.726 12.0693C255.125 12.0693 260.825 19.6996 260.825 34.9603C260.825 50.19 255.094 57.8048 243.633 57.8048C237.918 57.8048 233.624 55.8895 230.751 52.0589L230.751 52.0589Z" id="Vector" fill="#333B42" fill-rule="evenodd" stroke="none" />
  </g>
</svg>