<?xml version="1.0" encoding="UTF-8"?> <!-- Generator: Adobe Illustrator 23.0.4, SVG Export Plug-In . SVG Version: 6.00 Build 0) --> <svg xmlns="http://www.w3.org/2000/svg" xmlns:xlink="http://www.w3.org/1999/xlink" id="Layer_1" x="0px" y="0px" viewBox="0 0 1000 716.65" style="enable-background:new 0 0 1000 716.65;" xml:space="preserve"> <style type="text/css"> .st0{fill:#050606;} </style> <g> <g> <path class="st0" d="M485.84,399.02c-88.64,0-160.5-71.83-160.5-160.44S397.2,78.14,485.84,78.14 c42.22,0,80.63,16.31,109.28,42.95l47.98-51.26C601.9,31.45,546.62,7.97,485.85,7.97c-127.42,0-230.71,103.26-230.71,230.63 s103.29,230.63,230.71,230.63c60.77,0,116.06-23.49,157.26-61.88l-47.99-51.27C566.47,382.72,528.06,399.02,485.84,399.02z"></path> <path class="st0" d="M543.32,261.53c0.64-1.6,1.21-3.22,1.72-4.88l186.57,98.93l5.02-10.03l-190.54-92.79 c0.53-2.24,0.93-4.53,1.2-6.86l210.04,37.41l1.7-11.08l-211.41-30.2c0.06-1.14,0.1-2.28,0.1-3.43c0-1.15-0.03-2.3-0.1-3.43 l211.41-30.2l-1.7-11.08l-210.04,37.41c-0.27-2.33-0.68-4.62-1.2-6.86l190.54-92.79l-5.02-10.03l-186.57,98.93 c-0.51-1.66-1.08-3.29-1.72-4.88L714.88,77.18l5.02-4.05l-25.08-28.41l-8.92,9.48L540.18,208.98 c-10.5-19.2-30.89-32.23-54.32-32.23c-34.17,0-61.87,27.69-61.87,61.84s27.7,61.84,61.87,61.84c23.43,0,43.83-13.03,54.32-32.23 l145.73,154.78l8.92,9.48l25.08-28.41l-5.02-4.05L543.32,261.53z"></path> </g> <g> <path class="st0" d="M132.75,602.6c0,8.92-1.38,17.49-4.13,25.68c-2.76,8.2-6.79,15.42-12.1,21.65 c-5.31,6.23-11.78,11.22-19.39,14.96c-7.61,3.74-16.27,5.61-25.98,5.61c-9.71,0-18.37-1.87-25.98-5.61 c-7.61-3.74-14.07-8.73-19.39-14.96c-5.31-6.23-9.35-13.45-12.1-21.65c-2.76-8.2-4.13-16.76-4.13-25.68 c0-8.92,1.38-17.48,4.13-25.68c2.76-8.2,6.79-15.42,12.1-21.65c5.31-6.23,11.78-11.22,19.39-14.96 c7.61-3.74,16.27-5.61,25.98-5.61c9.71,0,18.37,1.87,25.98,5.61c7.61,3.74,14.07,8.73,19.39,14.96 c5.31,6.23,9.35,13.45,12.1,21.65C131.37,585.12,132.75,593.68,132.75,602.6z M124.09,602.6c0-8.27-1.21-16.04-3.64-23.32 c-2.43-7.28-5.94-13.68-10.53-19.19c-4.59-5.51-10.17-9.87-16.73-13.09c-6.56-3.21-13.91-4.82-22.04-4.82 c-8.14,0-15.48,1.61-22.04,4.82c-6.56,3.22-12.14,7.58-16.73,13.09c-4.59,5.51-8.1,11.91-10.53,19.19 c-2.43,7.28-3.64,15.06-3.64,23.32c0,8.27,1.21,16.04,3.64,23.32c2.43,7.28,5.93,13.68,10.53,19.19 c4.59,5.51,10.17,9.88,16.73,13.09c6.56,3.22,13.91,4.82,22.04,4.82c8.13,0,15.48-1.61,22.04-4.82 c6.56-3.21,12.14-7.58,16.73-13.09c4.59-5.51,8.1-11.91,10.53-19.19C122.87,618.64,124.09,610.86,124.09,602.6z"></path> <path class="st0" d="M225.25,620.9c0,7.48-1.12,14.27-3.35,20.37c-2.23,6.1-5.41,11.29-9.55,15.55 c-4.13,4.27-9.09,7.55-14.86,9.84c-5.78,2.29-12.14,3.44-19.09,3.44c-4.2,0-7.87-0.2-11.02-0.59c-3.15-0.39-6.23-1.12-9.25-2.16 v41.33h-8.66V574.85h8.07v14.17c3.41-4.46,7.77-8.27,13.09-11.42c5.31-3.15,11.64-4.72,18.99-4.72c5.51,0,10.46,1.21,14.86,3.64 c4.39,2.43,8.13,5.81,11.22,10.14c3.08,4.33,5.44,9.42,7.08,15.25C224.43,607.75,225.25,614.08,225.25,620.9z M216.59,620.9 c0-6.03-0.69-11.54-2.07-16.53c-1.38-4.98-3.32-9.25-5.81-12.79c-2.49-3.54-5.54-6.3-9.15-8.27c-3.61-1.97-7.65-2.95-12.1-2.95 c-3.15,0-6.13,0.49-8.95,1.48c-2.82,0.98-5.48,2.26-7.97,3.84c-2.49,1.57-4.76,3.38-6.79,5.41c-2.04,2.04-3.91,4.1-5.61,6.2v62.19 c2.88,1.18,5.97,2,9.25,2.46c3.28,0.46,6.82,0.69,10.63,0.69c4.99,0,9.81-0.82,14.47-2.46c4.66-1.64,8.76-4.13,12.3-7.48 c3.54-3.35,6.4-7.64,8.56-12.89C215.51,634.55,216.59,628.25,216.59,620.9z"></path> <path class="st0" d="M245.52,622.48c0,12.67,2.95,22.53,8.86,29.58c5.9,7.05,14.76,10.58,26.57,10.58c4.85,0,9.41-0.56,13.68-1.67 c4.26-1.11,8.49-2.66,12.69-4.62l1.97,6.9c-3.94,2.02-8.46,3.68-13.58,4.95c-5.12,1.28-10.43,1.92-15.94,1.92 c-6.96,0-13.12-1.25-18.5-3.74c-5.38-2.49-9.87-5.94-13.48-10.33c-3.61-4.39-6.33-9.58-8.17-15.55 c-1.84-5.97-2.76-12.43-2.76-19.39c0-7.09,0.92-13.58,2.76-19.49c1.84-5.9,4.46-10.99,7.87-15.25c3.41-4.26,7.54-7.58,12.4-9.94 c4.85-2.36,10.36-3.54,16.53-3.54c10.63,0,18.96,3.41,25,10.23c6.03,6.82,9.05,16.21,9.05,28.15c0,1.84-0.1,3.67-0.29,5.51 c-0.2,1.84-0.43,3.74-0.69,5.71H245.52z M301.81,615c0.79-10.96-1.08-19.57-5.61-25.84c-4.53-6.26-11.32-9.39-20.37-9.39 c-5.12,0-9.55,1.08-13.29,3.23c-3.74,2.15-6.86,4.93-9.35,8.32c-2.49,3.39-4.4,7.18-5.71,11.35c-1.31,4.18-1.97,8.28-1.97,12.33 H301.81z"></path> <path class="st0" d="M336.84,589.02c3.8-4.98,8.43-8.92,13.88-11.81c5.44-2.88,11.51-4.33,18.21-4.33c5.64,0,10.5,1.21,14.56,3.64 c4.07,2.43,7.41,5.71,10.04,9.84c2.62,4.13,4.56,8.96,5.81,14.47c1.25,5.51,1.87,11.35,1.87,17.52v49.8h-8.66v-48.42 c0-5.38-0.43-10.46-1.28-15.25c-0.85-4.79-2.26-8.96-4.23-12.5c-1.97-3.54-4.63-6.36-7.97-8.46c-3.35-2.1-7.45-3.15-12.3-3.15 c-5.78,0-11.19,1.61-16.24,4.82c-5.05,3.22-9.42,7.06-13.09,11.51v71.45h-8.66v-93.29h8.07V589.02z"></path> <path class="st0" d="M487.6,534.7c5.9,0,12.07,0.56,18.5,1.67c6.43,1.12,11.81,2.59,16.14,4.43l-2.95,13.97 c-4.46-1.57-9.25-2.85-14.37-3.84c-5.12-0.98-10.17-1.48-15.15-1.48c-16.4,0-29.2,4.59-38.38,13.78 c-9.19,9.19-13.78,22.31-13.78,39.36c0,17.06,4.59,30.18,13.78,39.36c9.18,9.19,21.98,13.78,38.38,13.78 c4.98,0,10.04-0.49,15.15-1.48c5.12-0.98,9.91-2.26,14.37-3.84l2.95,13.97c-4.33,1.84-9.71,3.32-16.14,4.43 c-6.43,1.11-12.6,1.67-18.5,1.67c-10.76,0-20.37-1.71-28.83-5.12c-8.46-3.41-15.58-8.13-21.35-14.17 c-5.78-6.03-10.2-13.19-13.29-21.45c-3.08-8.27-4.63-17.32-4.63-27.16s1.54-18.89,4.63-27.16c3.08-8.27,7.51-15.42,13.29-21.45 c5.77-6.03,12.89-10.76,21.35-14.17C467.23,536.4,476.84,534.7,487.6,534.7z"></path> <path class="st0" d="M616.91,620.9c0,6.69-1.02,12.99-3.05,18.89c-2.04,5.9-5.02,11.12-8.95,15.65 c-3.94,4.53-8.76,8.1-14.47,10.73c-5.71,2.62-12.17,3.94-19.39,3.94c-7.35,0-13.85-1.31-19.49-3.94 c-5.64-2.62-10.43-6.2-14.37-10.73c-3.94-4.53-6.92-9.74-8.96-15.65c-2.04-5.9-3.05-12.2-3.05-18.89s1.01-12.99,3.05-18.89 c2.03-5.9,5.02-11.12,8.96-15.65c3.94-4.53,8.72-8.1,14.37-10.73c5.64-2.62,12.14-3.94,19.49-3.94c7.21,0,13.68,1.31,19.39,3.94 c5.71,2.63,10.53,6.2,14.47,10.73c3.94,4.53,6.92,9.74,8.95,15.65C615.89,607.91,616.91,614.21,616.91,620.9z M599.2,620.9 c0-4.85-0.59-9.45-1.77-13.78c-1.18-4.33-2.92-8.1-5.22-11.32c-2.3-3.21-5.22-5.74-8.76-7.58c-3.54-1.84-7.68-2.76-12.4-2.76 c-4.72,0-8.86,0.92-12.4,2.76c-3.54,1.84-6.46,4.36-8.76,7.58c-2.3,3.22-4.03,6.99-5.22,11.32c-1.18,4.33-1.77,8.92-1.77,13.78 c0,4.99,0.59,9.61,1.77,13.88c1.18,4.27,2.92,8,5.22,11.22c2.29,3.22,5.22,5.74,8.76,7.58c3.54,1.84,7.68,2.76,12.4,2.76 c4.72,0,8.86-0.92,12.4-2.76c3.54-1.84,6.46-4.36,8.76-7.58c2.29-3.21,4.03-6.95,5.22-11.22 C598.61,630.52,599.2,625.89,599.2,620.9z"></path> <path class="st0" d="M646.43,643.56c0,3.8,0.75,6.72,2.26,8.75c1.51,2.03,4.1,3.04,7.77,3.04c2.88,0,5.84-0.39,8.86-1.18 l0.79,13.35c-4.33,1.46-9.12,2.2-14.37,2.2c-8.27,0-14.17-2.43-17.71-7.28c-3.54-4.85-5.31-10.83-5.31-17.91V529.19h17.71V643.56z "></path> <path class="st0" d="M758.02,620.9c0,6.69-1.02,12.99-3.05,18.89c-2.04,5.9-5.02,11.12-8.95,15.65s-8.76,8.1-14.47,10.73 c-5.71,2.62-12.17,3.94-19.39,3.94c-7.35,0-13.84-1.31-19.48-3.94c-5.64-2.62-10.43-6.2-14.37-10.73 c-3.94-4.53-6.92-9.74-8.95-15.65c-2.04-5.9-3.05-12.2-3.05-18.89s1.01-12.99,3.05-18.89c2.03-5.9,5.02-11.12,8.95-15.65 c3.94-4.53,8.72-8.1,14.37-10.73c5.64-2.62,12.13-3.94,19.48-3.94c7.21,0,13.68,1.31,19.39,3.94c5.71,2.63,10.53,6.2,14.47,10.73 c3.94,4.53,6.92,9.74,8.95,15.65C757.01,607.91,758.02,614.21,758.02,620.9z M740.31,620.9c0-4.85-0.59-9.45-1.77-13.78 s-2.92-8.1-5.22-11.32c-2.3-3.21-5.22-5.74-8.76-7.58c-3.54-1.84-7.68-2.76-12.4-2.76c-4.72,0-8.86,0.92-12.4,2.76 c-3.54,1.84-6.46,4.36-8.76,7.58c-2.3,3.22-4.03,6.99-5.22,11.32c-1.18,4.33-1.77,8.92-1.77,13.78c0,4.99,0.59,9.61,1.77,13.88 c1.18,4.27,2.92,8,5.22,11.22c2.29,3.22,5.22,5.74,8.76,7.58c3.54,1.84,7.68,2.76,12.4,2.76c4.72,0,8.86-0.92,12.4-2.76 c3.54-1.84,6.46-4.36,8.76-7.58c2.29-3.21,4.03-6.95,5.22-11.22C739.72,630.52,740.31,625.89,740.31,620.9z"></path> <path class="st0" d="M823.96,588.23h-4.53c-6.96,0-12.96,1.31-18.01,3.94c-5.05,2.63-9.35,6.89-12.89,12.79v63.18h-17.71v-94.47 h16.93v18.11c2.76-6.3,6.4-11.09,10.92-14.37c4.53-3.28,10.53-4.92,18.01-4.92c2.88,0,5.31,0.33,7.28,0.98V588.23z"></path> <path class="st0" d="M839.9,668.14V537.06h8.66v131.08H839.9z"></path> <path class="st0" d="M990.46,602.6c0,8.92-1.38,17.49-4.13,25.68c-2.76,8.2-6.79,15.42-12.1,21.65 c-5.31,6.23-11.78,11.22-19.39,14.96c-7.61,3.74-16.27,5.61-25.98,5.61c-9.71,0-18.37-1.87-25.98-5.61 c-7.61-3.74-14.07-8.73-19.39-14.96c-5.31-6.23-9.35-13.45-12.1-21.65c-2.76-8.2-4.13-16.76-4.13-25.68 c0-8.92,1.38-17.48,4.13-25.68c2.76-8.2,6.79-15.42,12.1-21.65c5.31-6.23,11.77-11.22,19.39-14.96 c7.61-3.74,16.27-5.61,25.98-5.61c9.71,0,18.37,1.87,25.98,5.61c7.61,3.74,14.07,8.73,19.39,14.96 c5.31,6.23,9.35,13.45,12.1,21.65C989.08,585.12,990.46,593.68,990.46,602.6z M981.8,602.6c0-8.27-1.22-16.04-3.64-23.32 c-2.43-7.28-5.94-13.68-10.53-19.19c-4.59-5.51-10.17-9.87-16.73-13.09c-6.56-3.21-13.91-4.82-22.04-4.82 c-8.14,0-15.48,1.61-22.04,4.82c-6.56,3.22-12.14,7.58-16.73,13.09c-4.59,5.51-8.1,11.91-10.53,19.19 c-2.43,7.28-3.64,15.06-3.64,23.32c0,8.27,1.21,16.04,3.64,23.32c2.43,7.28,5.94,13.68,10.53,19.19 c4.59,5.51,10.17,9.88,16.73,13.09c6.56,3.22,13.91,4.82,22.04,4.82c8.13,0,15.48-1.61,22.04-4.82 c6.56-3.21,12.13-7.58,16.73-13.09c4.59-5.51,8.1-11.91,10.53-19.19C980.59,618.64,981.8,610.86,981.8,602.6z"></path> </g> </g> </svg> 