<?xml version="1.0" encoding="UTF-8" standalone="no"?>
<svg
   width="954.00696"
   height="477.44611"
   version="1.1"
   id="svg183"
   sodipodi:docname="opentimelineio-stacked-color.svg"
   inkscape:version="1.1.2 (b8e25be8, 2022-02-05)"
   inkscape:export-filename="/Users/johnmertic/Code/aswf-artwork/projects/opentimelineio/stacked/color/opentimelineio-stacked-color.png"
   inkscape:export-xdpi="377.10001"
   inkscape:export-ydpi="377.10001"
   xmlns:inkscape="http://www.inkscape.org/namespaces/inkscape"
   xmlns:sodipodi="http://sodipodi.sourceforge.net/DTD/sodipodi-0.dtd"
   xmlns="http://www.w3.org/2000/svg"
   xmlns:svg="http://www.w3.org/2000/svg">
  <defs
     id="defs187" />
  <sodipodi:namedview
     id="namedview185"
     pagecolor="#ffffff"
     bordercolor="#666666"
     borderopacity="1.0"
     inkscape:pageshadow="2"
     inkscape:pageopacity="0.0"
     inkscape:pagecheckerboard="0"
     showgrid="false"
     inkscape:zoom="0.41986485"
     inkscape:cx="557.3222"
     inkscape:cy="170.29289"
     inkscape:window-width="1446"
     inkscape:window-height="711"
     inkscape:window-x="0"
     inkscape:window-y="25"
     inkscape:window-maximized="0"
     inkscape:current-layer="svg183" />
  <g
     id="g248"
     transform="translate(271.00348,0.5)">
    <path
       fill="#007e4c"
       stroke="#007e4c"
       stroke-width="1"
       opacity="0.988235"
       d="m 110,74 h 83 v 46 h -83 z"
       id="path137" />
    <path
       fill="#007e4c"
       stroke="#007e4c"
       stroke-width="1"
       opacity="0.988235"
       d="m 212,74 h 199.5 l 0.5,0.5 V 120 H 212.5 l -0.5,-0.5 z"
       id="path139" />
    <path
       fill="#007e4c"
       stroke="#007e4c"
       stroke-width="1"
       opacity="0.988235"
       d="m 0,252 h 192.5 l 0.5,0.5 V 297 H 0.5 L 0,296.5 Z"
       id="path141" />
    <path
       fill="#007e4c"
       stroke="#007e4c"
       stroke-width="1"
       opacity="0.988235"
       d="m 212,252 h 86 v 45 h -86 z"
       id="path143" />
    <path
       fill="#98c24f"
       stroke="#98c24f"
       stroke-width="1"
       opacity="0.984314"
       d="m 152.5,0 h 99 l 3.5,2.5 v 7 l -10.5,10.5 -34,33 -6,5 h -4 L 149,8.5 Q 147.8,1.3 152.5,0 Z"
       id="path145" />
    <path
       fill="#98c24f"
       stroke="#98c24f"
       stroke-width="1"
       opacity="0.984314"
       d="m 1,139 h 192 v 95 H 1 Z"
       id="path147" />
    <path
       fill="#98c24f"
       stroke="#98c24f"
       stroke-width="1"
       opacity="0.984314"
       d="m 212,139 h 200 v 95 H 212 Z"
       id="path149" />
  </g>
  <g
     id="g239"
     transform="matrix(0.61627864,0,0,0.61627864,325.88603,135.0206)">
    <path
       fill="#59595b"
       stroke="#59595b"
       stroke-width="1"
       opacity="0.960784"
       d="m 88.715761,376.13422 h 40.999999 v 29 H 88.715761 Z"
       id="path151" />
    <path
       fill="#59595b"
       stroke="#59595b"
       stroke-width="1"
       opacity="0.960784"
       d="m 464.71576,376.13422 h 38.5 l 0.5,0.5 v 146.5 h -38.5 l -0.5,-0.5 z"
       id="path153" />
    <path
       fill="#59595b"
       stroke="#59595b"
       stroke-width="1"
       opacity="0.960784"
       d="m 524.71576,376.13422 h 40 v 29 h -40 z"
       id="path155" />
    <path
       fill="#59595b"
       stroke="#59595b"
       stroke-width="1"
       opacity="0.960784"
       d="m -461.78424,379.13422 20,1 14,4 q 17.8,7.3 28.5,21.5 8.8,10.7 13,26 l 2,10 v 21 q -5.5,31.5 -26.5,47.5 -10.7,8.8 -26,13 l -10,2 h -18 l -11,-2 -17,-7 q -10.7,-6.2 -18.5,-15.5 -9.1,-10.9 -14,-26 l -2,-9 -1,-17 1,-1 v -8 l 2,-9 8,-18 16.5,-18.5 17,-10 z m -1.5,16 q -18,3 -28,13 -15,12 -19,36 v 17 l 2,9 q 4,13 13,23 11,12 31,16 h 18 l 5,-1 q 13,-4 22,-12 9,-9 14,-21 l 4,-17 v -11 l -3,-14 -10,-18 q -9,-11 -22,-17 l -12,-3 z"
       id="path157" />
    <path
       fill="#59595b"
       stroke="#59595b"
       stroke-width="1"
       opacity="0.960784"
       d="m 941.21579,379.13422 q 20.4,-0.9 34,5 18.4,7.6 29.50001,22.5 l 11,21 3,13 v 22 q -5.5,31.5 -26.50001,47.5 -9.3,7.7 -22,12 l -14,3 h -18 l -11,-2 -17,-7 q -10.7,-6.2 -18.50003,-15.5 l -11,-18 -5,-18 q 1.3,-8.3 -1,-13 l 1,-1 1,-16 4,-12 q 7.5,-17.5 21.50003,-28.5 l 17,-10 z m -1.5,16 q -18,3 -28,13 -15.00003,13 -19.00003,36 v 16 l 2,10 9.00003,18 q 11,16 35,21 h 18 l 5,-1 q 13,-4 22,-12 8,-8 13,-18 l 5.00001,-19 v -12 l -2.00001,-11 q -4,-13 -11,-21 -9,-11 -22,-17 l -12,-3 z"
       id="path159" />
    <path
       fill="#59595b"
       stroke="#59595b"
       stroke-width="1"
       opacity="0.960784"
       d="M -48.284243,382.13422 H 75.215761 l 0.5,0.5 v 34.5 h -42 v 106 H -6.2842426 v -105.5 l -0.5,-0.5 H -48.284243 Z"
       id="path161" />
    <path
       fill="#59595b"
       stroke="#59595b"
       stroke-width="1"
       opacity="0.960784"
       d="m 838.71576,382.13422 h 16.5 l 0.5,0.5 v 140.5 h -16.5 l -0.5,-0.5 z"
       id="path163" />
    <path
       fill="#59595b"
       stroke="#59595b"
       stroke-width="1"
       opacity="0.960784"
       d="m 213.21576,411.13422 q 25.7,-1.7 35.5,12.5 l 2.5,4.5 q 7,-9 18,-14 l 11,-3 h 14 q 16,2.5 23.5,13.5 l 4,7 3,12 v 79.5 h -39 v -64.5 q -1.6,-7 -6.5,-10.5 -3.7,-3.3 -12,-2 l -8.5,6.5 -2,5 v 65.5 h -39 v -61.5 l -2,-8 -4.5,-5.5 q -3.7,-3.3 -12,-2 -6.1,1.4 -8.5,6.5 l -3,9 v 61.5 h -39 v -110 h 39 v 13.5 l 3,-2 1.5,-2.5 q 7.8,-8.2 21,-11 z"
       id="path165" />
    <path
       fill="#59595b"
       stroke="#59595b"
       stroke-width="1"
       opacity="0.960784"
       d="m 386.21576,411.13422 h 16 l 13,3 q 14.2,5.3 22.5,16.5 7,9.5 10,23 l 1,5 v 20.5 l -72,0.5 q 2.5,8 8.5,12.5 l 6,3 12,1 11,-4 8,-7 h 2 l 20.5,17.5 -5.5,7.5 q -10.1,9.9 -26,14 -4.8,-1.2 -6,1 h -20 q -23.1,-3.9 -35.5,-18.5 -14.2,-14.8 -13,-45 l 5,-19 12.5,-17.5 13,-9 z m 5.5,29 -5,2 q -8,5 -10,16 v 1 h 36 l -4,-11 q -5,-8 -17,-8 z"
       id="path167" />
    <path
       fill="#59595b"
       stroke="#59595b"
       stroke-width="1"
       opacity="0.960784"
       d="m 649.21576,411.13422 q 25.7,-1.7 35.5,12.5 l 5,9 3,13 v 77.5 h -39 v -62.5 l -2,-7 -3.5,-4.5 q -3.8,-4.2 -13,-3 -5.7,1.3 -8.5,5.5 l -3,6 v 65.5 h -39 v -110 h 38.5 l 0.5,0.5 v 12 l 7.5,-6.5 q 7,-6 18,-8 z"
       id="path169" />
    <path
       fill="#59595b"
       stroke="#59595b"
       stroke-width="1"
       opacity="0.960784"
       d="m 754.21576,411.13422 h 16 l 13,3 q 13.4,5.1 21.5,15.5 7.9,10.1 11,25 l 1,24.5 h -71.5 l -0.5,1.5 q 2.6,7.4 8.5,11.5 l 10,4 h 8 l 11,-4 8,-7 h 2 l 20.5,17.5 -10.5,11.5 q -8.7,6.8 -21,10 -4.7,-1.2 -6,1 h -20 q -14.6,-2.4 -25,-9 l -11.5,-10.5 q -13.8,-14.7 -12,-45 l 2,-10 6,-14 10.5,-12.5 14,-9 z m 5.5,29 -7,3 q -7,5 -9,15 l 1,1 h 35 q 1,-8 -4,-12 -5,-7 -16,-7 z"
       id="path171" />
    <path
       fill="#59595b"
       stroke="#59595b"
       stroke-width="1"
       opacity="0.960784"
       d="m 89.715761,413.13422 h 38.999999 v 110 H 89.715761 Z"
       id="path173" />
    <path
       fill="#59595b"
       stroke="#59595b"
       stroke-width="1"
       opacity="0.960784"
       d="m 524.71576,413.13422 h 39 v 110 h -39 z"
       id="path175" />
    <path
       fill="#59595b"
       stroke="#59595b"
       stroke-width="1"
       opacity="0.960784"
       d="m -325.78424,416.13422 h 14 l 11,3 q 13.5,5.5 21.5,16.5 6.3,7.8 9,19 l 1,5 v 22 q -4.4,22.1 -19.5,33.5 l -15,8 -10,2 h -11 q -22.2,-3.8 -32.5,-19.5 l -0.5,-1.5 -0.5,51 h -15.5 l -0.5,-0.5 v -136.5 h 16 v 18.5 l 4,-3 6.5,-7.5 q 8.4,-7.6 22,-10 z m -1.5,15 -15,7 q -13,8 -16,26 v 14 q 2,10 7,17 8,11 25,15 18,1 27,-7 7,-6 11,-15 l 3,-14 -1,-13 -9,-18 q -5,-7 -13,-10 -8,-3 -19,-2 z"
       id="path177" />
    <path
       fill="#59595b"
       stroke="#59595b"
       stroke-width="1"
       opacity="0.960784"
       d="m -216.78424,416.13422 q 32.7,-1.7 44.5,17.5 12.7,15 11,43.5 h -81.5 l -0.5,2.5 q 3,15.5 13.5,23.5 8.4,8.1 25,8 l 13,-3 18,-12 9.5,9.5 -7.5,7.5 q -13.7,13.8 -43,12 l -17,-5 q -9.7,-5.2 -16.5,-13.5 -7,-8 -10,-20 l -2,-19 1,-1 1,-12 7,-16 12.5,-13.5 q 8.9,-6.6 22,-9 z m 2.5,14 q -10,2 -16,8 -10,9 -13,24 l 1,2 h 64 q 0,-14 -7,-21 -6,-8 -15,-12 z"
       id="path179" />
    <path
       fill="#59595b"
       stroke="#59595b"
       stroke-width="1"
       opacity="0.960784"
       d="m -106.78424,416.13422 q 28.799997,-1.8 39.499997,14.5 l 5,9 3,15 v 68.5 h -16.5 l -0.5,-0.5 v -68 q -2.4,-12.1 -10.5,-18.5 l -12,-5 h -9.999997 q -13.9,2.6 -20.5,12.5 l -5,12 v 67.5 h -16.5 l -0.5,-0.5 v -104.5 h 17 v 14.5 l 3,-2 4.5,-5.5 q 7.6,-6.9 20,-9 z"
       id="path181" />
  </g>
</svg>
