<svg id="Layer_1" data-name="Layer 1" xmlns="http://www.w3.org/2000/svg" viewBox="0 0 1540.80706 272.65246"><defs><style>.cls-1{fill:#c1c1c1;}.cls-2{fill:#f5a905;}</style></defs><title>openflipper</title><path class="cls-1" d="M1134.64316,171.10749c.00008-28.732.317-57.46954-.1872-86.19266-.15753-8.97218,1.782-11.7885,11.64306-11.97579,8.27485-.15715,19.15855-2.47012,24.66938,5.72758.22665.33716,3.70521-1.06227,5.58432-1.85489,45.40348-19.15163,87.53253,6.67809,90.41364,55.80488.87361,14.89432,1.28035,29.8938-4.40344,44.31134-14.48458,36.74148-49.17071,46.56168-83.16365,38.58136-10.06412-2.3627-10.22531.535-10.0423,8.10575.29178,12.06869-.30629,24.16587.20413,36.22.37265,8.8019-2.10941,12.915-11.83033,12.73234-26.73105-.50212-22.71086,1.31821-22.85252-22.75947C1134.52377,223.57528,1134.64308,197.341,1134.64316,171.10749Zm34.59711-26.04609c0,9.9697.17766,19.94381-.06942,29.90739-.1393,5.61842,1.64873,9.92857,6.94119,11.9797,20.71846,8.02983,50.9907.87539,54.71025-25.89548a141.50474,141.50474,0,0,0,1.1072-24.76757c-1.01832-27.99528-24.29887-44.00577-51.16974-35.29111-7.1953,2.33352-12.13494,6.58712-11.64268,15.41087C1169.64839,125.92986,1169.23714,135.5071,1169.24027,145.0614Z"/><path class="cls-1" d="M244.30439,213.683c0,15.33162-.53651,29.85279.17936,44.31194.51971,10.497-2.28777,15.11076-13.80457,14.62258-24.79588-1.05113-20.80529,2.74747-20.89584-21.53631-.205-54.96758.16325-109.93822-.27291-164.9031-.07905-9.96036,1.90731-12.89645,12.891-13.22916,8.60217-.26057,17.50918-2.43021,23.4504,5.73715.17926.24643,3.69769-1.10625,5.58419-1.89845,45.3163-19.0297,87.49082,6.87854,90.41007,55.89384.88761,14.90293,1.175,29.87029-4.43533,44.31394-14.10315,36.30811-48.88228,44.98426-82.25306,39.40806C251.93855,215.86558,248.8032,214.82617,244.30439,213.683Zm62.88081-68.67764c.06617-35.21833-14.40933-48.74177-48.00444-44.79076-9.61055,1.13026-15.02,5.97977-14.92561,16.293.179,19.56911.30638,39.1461-.08336,58.70908-.141,7.07618,2.75463,10.41617,9.12855,12.70606C283.6629,198.83085,307.11894,180.26506,307.1852,145.00535Z"/><path class="cls-1" d="M979.58468,170.76279c.00053-29.11045.2419-58.2242-.15585-87.32923-.11023-8.07329,2.2006-10.26107,10.53716-10.445,7.91355-.17461,20.73375-2.51963,23.44609,5.46761,1.56375,2.82782,4.42937-.046,6.53887-.94565,45.208-19.27971,86.13278,3.67445,91.50656,52.4671,2.82634,25.66249.7498,51.26243-20.041,70.33505-19.70716,18.07873-43.48531,21.6136-68.58775,14.61849-8.9786-2.502-10.95315-.50735-10.63863,8.03855.45855,12.459-.51247,24.98834.29484,37.41173.789,12.14095-6.36952,12.64757-14.99667,12.00009-8.10781-.60852-18.30024,2.88752-18.05423-11.79469C979.93559,230.65306,979.58414,200.705,979.58468,170.76279Zm32.72494-26.75642c0,9.97573.38531,19.97144-.13129,29.92036-.36311,6.99373,2.817,10.53331,8.70535,13.32959,24.96368,11.855,54.10623-4.6756,55.99373-32.07248.39912-5.79281.19224-11.63519.105-17.45236-.378-25.21451-14.62-39.3446-39.75394-39.51829-16.18633-.11185-24.91265,8.49885-24.92074,24.59472Q1012.30241,133.40713,1012.30962,144.00637Z"/><path class="cls-1" d="M679.79632,118.28622c.00107-29.14508.25631-58.2938-.161-87.43289-.11862-8.28369,2.678-10.68043,10.76968-10.59948,35.80324.3582,71.617.4797,107.4156-.0629,9.60237-.14554,12.99649,3.04627,11.61193,12.15194a16.503,16.503,0,0,0-.01549,2.49567c.04349,17.63169.04364,17.63425-17.15369,17.637-22.48337.00357-44.9701.22355-67.44822-.12179-7.40485-.11377-10.04055,2.12949-10.28206,9.88315-1.10208,35.38222-1.339,35.37482,33.97569,35.37485,7.49441,0,15.122.89561,22.45431-.19466,13.37586-1.98889,13.30461,5.62811,13.661,15.39695.39584,10.8506-1.90985,15.90532-14.20568,14.92374-14.48022-1.156-29.14605.22088-43.68769-.44969-9.12262-.42067-12.52971,2.15294-12.224,11.79088.67283,21.2129-.225,42.47474.40347,63.69036.28385,9.58531-2.188,13.19865-12.4278,12.79141-26.85492-1.06812-22.36032,3.21128-22.62976-22.33068C679.58913,168.25138,679.79525,143.26771,679.79632,118.28622Z"/><path class="cls-2" d="M129.00432,49.20057c-2.90863-.2045-5.81619-.42579-8.72605-.61076-17.35857-1.10337-20.22241,1.06683-23.692,17.8469-.42113,2.03675-1.07346,4.02581-1.49184,6.063-.90568,4.41-.7397,10.85322-6.01483,11.03568-4.99928.17291-3.5391-6.20474-4.59447-9.89551-3.19581-11.17617-9.02686-5.89126-13.416-1.476C54.88724,88.4421,44.73343,108.435,37.74584,129.99671a115.214,115.214,0,0,0-5.70414,38.09964c.12052,5.75316,1.26209,9.14026,7.7176,10.39585a28.4622,28.4622,0,0,1,19.01536,13.1849c5.12138,8.2234,1.80515,16.32049-7.656,15.64962-18.02475-1.2781-27.77954,5.01626-29.01886,23.604-.40762,6.11373-4.575,4.80965-7.98863,2.2074a18.13156,18.13156,0,0,1-7.04375-12.741C6.206,213.232,5.9667,205.48062,9.99535,199.745c9.90261-14.09843,7.62917-28.66274,4.7021-43.9639A152.65056,152.65056,0,0,1,17.58352,86.505c2.55447-9.41676.90571-13.52475-9.7472-11.79158-8.40482,1.36742-9.46538-2.89018-5.93349-9.53221,3.89684-7.32834,9.91644-12.72651,17.55635-15.13164,12.49237-3.93274,21.29727-11.762,29.54861-21.63438C64.07718,10.38532,83.36723-.06181,107.63113.00028c17.13367.04384,30.46158,6.826,40.41132,20.699,3.09076,4.30946,5.64676,9.12912,11.63514,10.68506,3.76162.97737,6.6023,3.77694,5.71134,8.38007-.82561,4.26559-4.21918,6.18483-7.885,7.18251C148.17637,49.48544,138.61517,49.8383,129.00432,49.20057Z"/><path class="cls-1" d="M444.90835,155.10107c-13.31372.00367-26.64758.45525-39.93491-.13706-10.9245-.487-11.82008,3.99908-8.46094,12.78132,6.19071,16.18529,25.29549,25.53793,46.8715,22.179,4.4795-.6974,8.77332-2.5578,13.24839-3.32148,4.70606-.80309,8.29951-8.74793,12.82352-4.36267,4.53267,4.39368,6.92723,11.22216,9.54478,17.29144,2.17025,5.0322-2.05987,7.53158-5.55385,9.78363-40.44011,26.06555-102.003,4.13944-111.96253-41.84707-7.66967-35.41321-1.386-63.61895,28.09459-84.3095,26.76808-18.78677,59.99177-16.966,85.96,2.701,17.05124,12.91369,26.95147,42.97655,21.18559,63.18122-1.71747,6.01821-5.92184,6.06726-10.62688,6.062Q465.503,155.07979,444.90835,155.10107Zm-15.411-25.02578c9.15673,0,18.31638-.14111,27.46918.04857,6.326.13111,7.73149-1.95208,6.01113-8.29222-4.093-15.08448-15.51686-23.8979-32.39169-23.80511-16.35061.0899-31.023,11.644-34.21752,25.85932-1.37617,6.1239,1.47126,6.20785,5.65882,6.19692C411.18386,130.05889,420.34058,130.07537,429.4973,130.07529Z"/><path class="cls-1" d="M1369.96083,155.10163c-13.74812.00517-27.505.30641-41.24117-.09883-9.44569-.27865-10.56783,3.63806-7.63958,11.48067,5.42611,14.53261,16.56348,21.67013,31.05767,23.481,12.085,1.50986,24.427.50031,34.85586-6.53408,6.47594-4.3681,8.34277-1.27525,11.12181,3.75672,9.37062,16.96792,8.29928,21.25272-10.26819,26.2023-28.12834,7.49816-55.85787,8.77938-80.74077-10.52334a53.09106,53.09106,0,0,1-18.10885-26.233c-18.56075-57.451,15.483-108.91174,72.3144-106.127a64.71524,64.71524,0,0,1,60.57988,77.1059c-1.28051,6.70483-5.21526,7.55689-10.687,7.51735C1397.45754,155.03,1383.709,155.09644,1369.96083,155.10163Zm-15.58368-25.02116c9.15,0,18.30276-.13775,27.44911.04791,6.2094.12605,7.8489-1.78735,6.11511-8.22489-4.06367-15.08915-15.35086-23.85373-32.31041-23.87732-16.04657-.02232-30.94568,11.6297-34.29655,25.8192-1.42529,6.03576,1.3359,6.25994,5.59287,6.24327C1336.07714,130.05284,1345.22714,130.07766,1354.37715,130.08047Z"/><path class="cls-1" d="M554.566,163.7316c-.00237,13.74742-.26066,27.50171.105,41.23939.18709,7.02913-1.26689,10.70188-9.49794,10.5117-28.81624-.66589-22.99055,2.76889-23.25316-22.87054-.367-35.82283-.18888-71.65284.03616-107.478.02735-4.34862-2.84865-11.55855,4.93717-11.8337,6.84259-.24182,15.22224-4.14779,20.30042,4.67719,2.05762,3.57583,2.358,8.81214,9.5008,4.04587,41.82868-27.91158,86.99514-5.66131,89.81759,44.67611,1.49029,26.57895.16714,53.30946.41567,79.96872.06034,6.47226-2.33239,8.47362-8.7338,8.81449-25.95531,1.38222-25.9238,1.59652-25.95-24.0169q-.03273-31.86818-.17065-63.7362c-.07087-12.09728-3.69842-22.32647-16.18423-26.81707-13.7085-4.9304-28.81166-.98149-37.68449,8.86848-3.12934,3.474-3.68267,7.19667-3.662,11.45862C554.611,135.40339,554.56831,149.56759,554.566,163.7316Z"/><path class="cls-1" d="M50.91755,118.084c5.252,6.53629,3.2127,12.6189,3.56608,18.1911,1.75871,27.73153,17.78508,49.34952,38.46781,51.39914,27.2745,2.70285,46.58-10.80236,54.434-40.03033,6.70648-24.95751,5.68219-49.88575-4.35681-74.2317-2.24927-5.45475-6.35371-9.40832-10.3275-14.90332,12.27323-1.80386,23.65-1.05625,33.4402-7.28685,2.52641-1.60782,4.61515-.1121,6.15783,2.29858C196.23149,90.918,197.21544,186.04069,137.263,211.30652c-21.06044,8.87555-42.82482,8.78327-64.68,3.56986-2.86056-.68238-7.66263-.58033-6.71646-6.73114,3.05187-19.83942-.02969-26.17093-17.95484-34.90679-6.1926-3.018-8.8868-6.42149-8.2065-13.25571C41.10751,145.89574,44.10835,132.32175,50.91755,118.084Z"/><path class="cls-1" d="M832.321,111.55673c0-30.43171.41255-54.55243-.20253-78.64692-.24694-9.66842,2.67232-13.75989,12.51148-15.81332,22.41113-4.67718,22.27924-5.30659,22.28,17.4537q.00218,67.3424.01587,134.68478c.00755,12.14421.04325,24.14994,11.69432,32.31739,4.73016,3.31593.8363,6.98711-1.72434,9.16454-8.53561,7.25846-18.68456,9.256-29.18961,5.78352-9.39328-3.105-12.15965-10.988-13.48342-20.43173C829.98328,165.82347,833.98584,135.4823,832.321,111.55673Z"/><path class="cls-1" d="M1478.41008,86.15947c18.4056-14.88843,35.04582-18.359,53.73778-13.6719,7.59762,1.9051,11.471,4.316,6.2956,12.36929a105.38631,105.38631,0,0,0-6.22481,12.22421c-2.02855,4.306-4.47469,5.81906-9.79751,4.69589-26.79138-5.65322-42.27238,6.95617-42.85611,35.00545-.45877,22.04748-.57732,44.12722.11839,66.16214.31109,9.85791-2.61243,12.99628-12.559,12.60207-23.89975-.94729-20.17143,2.49223-20.3153-20.85215q-.3117-50.56269-.00168-101.12857c.14021-23.49975-3.51305-20.36943,20.27746-20.70955C1474.36259,72.75232,1482.76211,71.12712,1478.41008,86.15947Z"/><path class="cls-1" d="M947.03169,144.51043c-.00016,19.56945-.392,39.1503.17675,58.70319.25715,8.84005-1.622,12.70633-11.54679,12.33984-25.4812-.94093-21.17792,2.45237-21.39144-21.07665q-.37418-41.21734.07194-82.43934c.09794-7.9326-1.05479-12.752-10.68234-11.85465-13.50157,1.2584-8.01077-9.39574-8.87912-15.64816-.92632-6.66961-.44809-12.53272,9.22843-11.77749,13.628,1.06368,30.83415-5.3493,40.01788,2.34075,9.01864,7.55188,2.18844,25.0729,2.8927,38.19069C947.477,123.668,947.03184,134.10114,947.03169,144.51043Z"/><path class="cls-1" d="M911.92469,37.60068a19.11355,19.11355,0,0,1,18.06659-19.64337c10.5348-.45125,19.54269,8.66245,19.51027,19.73945-.031,10.593-8.04778,18.69827-18.913,19.12193C920.83349,57.19906,912.16224,48.27029,911.92469,37.60068Z"/></svg>