<svg id="Layer_1" data-name="Layer 1" xmlns="http://www.w3.org/2000/svg" viewBox="0 0 1574.77285 363.90624"><defs><style>.cls-1{fill:#bd672c;}.cls-2{fill:#1fa7b7;}.cls-3{fill:#fff;}.cls-4{fill:#f2a426;}.cls-5{fill:#cfd0d2;}</style></defs><title>opensubdiv</title><path class="cls-1" d="M72.66267,18.2197S24.48557,98.41027,16.49152,184.7216c-6.00663,64.8533,2.91983,89.29153,6.84257,96.5972,1.01472,1.88981,1.02056,1.9918,1.35835,2.63321.61058,1.1594.99036,1.661,2.452,4.45573,7.74808,14.81451,38.18846,61.48659,114.18406,61.48659,5.12805,0,8.01142-2.55654,11.60714-4.57C212.6796,311.86945,72.66267,18.2197,72.66267,18.2197Z"/><ellipse class="cls-2" cx="60.31805" cy="204.58338" rx="24.3889" ry="64.84553" transform="translate(-28.38365 10.61267) rotate(-8.14706)"/><ellipse class="cls-3" cx="76.39478" cy="202.64769" rx="8.96831" ry="35.16499" transform="translate(-27.94708 12.87144) rotate(-8.14706)"/><path class="cls-4" d="M72.66267,18.2197s9.46336,104.097,25.97866,175.33283c10.16659,43.85185,46.287,155.86142,46.287,155.86142s93.7168-38.52089,135.87177-86.698c38.07049-43.50913,53.27153-90.46539,47.89462-115.45043-6.77007-31.45867-68.18341-79.48345-102.89768-96.07173C156.79221,18.2197,72.66267,18.2197,72.66267,18.2197Z"/><path class="cls-3" d="M150.47119,107.16555c-.07226-.25288-6.37628-25.81215-18.73143-45.10354C111.61748,30.63224,70.80952,17.866,70.41214,17.77565l6.92068-2.5366c1.73406.37933,37.73471,10.48,59.06722,43.82449,12.879,20.10422,19.20106,45.71768,19.454,46.80147Z"/><path class="cls-3" d="M149.76773,351.6272l-4.83939-2.21325c.16256-.25289,16.50714-31.93983,24.12977-53.61554,12.59-35.83717,12.68029-79.36922,12.68029-79.80273h5.56343c0,.43351-.10838,44.90484-13.00543,81.609C166.38477,320.11133,150.4722,350.68792,149.76773,351.6272Z"/><path class="cls-2" d="M150.14666,106.77467c2.42209-10.60913,48.12062-14.13854,76.5107,7.74275,26.17862,20.17684,31.7748,28.55957,30.9145,50.06721s-47.31135,65.95013-73.98082,51.32494-25.70175-26.76655-29.81978-36.188C144.95313,159.54711,145.84514,125.61606,150.14666,106.77467Z"/><path class="cls-3" d="M198.21088,140.49623c-11.84856-7.79065-39.38589-14.48641-46.83067-4.58472-10.72755,14.26785,2.79831,48.39039,2.79831,48.39039s15.1561,38.41014,40.10349,32.81736c24.94964-5.59053,29.79447-36.24555,29.79447-43.20436C224.07648,166.95384,210.931,148.86,198.21088,140.49623Z"/><path class="cls-3" d="M220.33922,174.41444l-3.1791-4.5519,37.93249-26.57081.99347.07226c40.67808,3.143,99.43732,2.23982,99.99727,2.16757l.10838,5.56343c-.65027-.03613-58.70505.92122-99.54569-2.13144Z"/><path class="cls-5" d="M390.65611,181.91062v-.39738c0-37.91443,28.46743-71.11439,70.31961-71.11439,41.83412,0,69.92223,32.80257,69.92223,70.717v.39739c0,37.91442-28.4855,71.11439-70.31962,71.11439S390.65611,219.82505,390.65611,181.91062Zm124.12956,0v-.39738c0-31.23109-22.77756-56.7723-54.20734-56.7723s-53.828,25.14382-53.828,56.37491v.39739c0,31.23108,22.79562,56.77229,54.2254,56.77229S514.78567,213.14171,514.78567,181.91062Z"/><path class="cls-5" d="M556.16821,148.71066h15.13687V169.14c8.23677-12.19259,20.23066-22.59693,38.88984-22.59693,24.349,0,48.51746,19.25526,48.51746,52.63585v.39739c0,33.218-23.96972,52.87066-48.51746,52.87066-18.85787,0-31.03239-10.22371-38.88984-21.63958V281.7092H556.16821Zm87.028,51.06436v-.39739c0-23.95166-16.50967-39.28722-35.74686-39.28722-18.85787,0-36.74033,15.91358-36.74033,39.08853v.39739c0,23.57233,17.88246,39.28722,36.74033,39.28722C627.08391,238.86355,643.19619,224.34082,643.19619,199.775Z"/><path class="cls-5" d="M726.41285,239.47769c13.9447,0,23.771-5.70793,32.00779-14.34209l9.42894,8.45353c-10.20565,11.37974-22.57887,19.0385-41.83412,19.0385-27.88941,0-50.685-21.42283-50.685-53.0513,0-29.46091,20.62805-53.03324,48.71616-53.03324,30.057,0,47.34336,23.96972,47.34336,53.828,0,1.3728,0,2.94429-.19869,5.29249H690.64793C692.8155,227.08641,708.53039,239.47769,726.41285,239.47769Zm29.65959-45.98863c-1.77018-18.46047-12.37322-34.17536-32.40518-34.17536-17.48508,0-30.85176,14.54078-33.01933,34.17536Z"/><path class="cls-5" d="M792.93921,148.71066h15.13687v17.66571c6.66528-11.00043,17.30444-19.83328,34.78951-19.83328,24.52968,0,38.87178,16.50967,38.87178,40.66v63.07631H866.63662V190.94217c0-18.85787-10.22371-30.65307-28.10617-30.65307-17.48507,0-30.45437,12.77061-30.45437,31.82717v58.16315H792.93921Z"/><path class="cls-5" d="M899.18631,230.22939l17.88246-21.42282c12.35516,10.22371,25.32446,16.72642,41.03935,16.72642,12.39128,0,19.83327-4.91316,19.83327-12.9693v-.39739c0-7.65875-4.6964-11.5965-27.67266-17.50313-27.70878-7.06267-45.59124-14.72142-45.59124-42.03282V152.233c0-24.94512,20.05-41.43673,48.12008-41.43673,20.05,0,37.13771,6.286,51.08242,17.48508L988.1651,151.05886c-12.17452-8.45352-24.16842-13.54731-35.76492-13.54731s-17.6657,5.29248-17.6657,11.97582v.39739c0,9.03155,5.88856,11.97583,29.65959,18.06309,27.88941,7.27943,43.6043,17.28638,43.6043,41.2561v.39739c0,27.3114-20.80868,42.6289-50.46827,42.6289A87.38065,87.38065,0,0,1,899.18631,230.22939Z"/><path class="cls-5" d="M1025.44732,213.14171V144.9716h29.87635v58.74117c0,14.16147,6.64722,21.42283,18.06309,21.42283,11.37975,0,18.64111-7.26136,18.64111-21.42283V144.9716h29.87636V250.27942h-29.87636V235.35931c-6.864,8.81479-15.71489,16.87093-30.81563,16.87093C1038.59725,252.23024,1025.44732,237.31012,1025.44732,213.14171Z"/><path class="cls-5" d="M1173.49241,236.51535v13.76407h-29.84022V106.85848h29.84022v53.23193c7.26137-9.80826,17.30445-17.08768,32.80258-17.08768,24.5658,0,47.93944,19.25525,47.93944,54.42409v.37932c0,35.16884-22.97625,54.4241-47.93944,54.4241C1190.39947,252.23024,1180.57315,244.96887,1173.49241,236.51535Zm50.9018-38.70921v-.37932c0-17.48507-11.81327-29.08158-25.758-29.08158s-25.54121,11.59651-25.54121,29.08158v.37932c0,17.50314,11.5965,29.09964,25.54121,29.09964S1224.39421,215.48991,1224.39421,197.80614Z"/><path class="cls-5" d="M1266.51733,197.80614v-.37932c0-35.16884,22.97626-54.42409,47.93945-54.42409,15.89552,0,25.72184,7.27942,32.80257,15.71488V106.85848h29.87635V250.27942h-29.87635V235.14255c-7.26136,9.82632-17.26831,17.08769-32.80257,17.08769C1289.891,252.23024,1266.51733,232.975,1266.51733,197.80614Zm81.13941,0v-.37932c0-17.48507-11.59651-29.08158-25.54121-29.08158s-25.72184,11.39781-25.72184,29.08158v.37932c0,17.50314,11.77713,29.09964,25.72184,29.09964S1347.65674,215.30928,1347.65674,197.80614Z"/><path class="cls-5" d="M1399.46168,106.85848h31.42978V133.3751h-31.42978Zm.79478,38.11312h29.84023V250.27942h-29.84023Z"/><path class="cls-5" d="M1443.82464,144.9716h31.61041l23.59039,70.51831,23.771-70.51831h31.03239L1512.356,251.0742h-27.09463Z"/></svg>