<?xml version="1.0" encoding="UTF-8"?> <!-- Generator: Adobe Illustrator 23.0.3, SVG Export Plug-In . SVG Version: 6.00 Build 0) --> <svg xmlns="http://www.w3.org/2000/svg" xmlns:xlink="http://www.w3.org/1999/xlink" id="Layer_1" x="0px" y="0px" viewBox="0 0 261.43 280.05" style="enable-background:new 0 0 261.43 280.05;" xml:space="preserve"> <style type="text/css"> .st0{fill:#9E0B0F;} .st1{fill:#FFFFFF;} </style> <g> <path class="st0" d="M27.37,47.73c0,0,36.32-45.41,102.07-45.41c65.75,0,95.9,38.51,97.35,45.41c1.46,6.9,1.82,16.71-2.18,21.8 c-3.99,5.08-83.18,74.83-83.18,74.83l48.31,62.12c0,0,7.99,17.07,69.38,20.71c-21.79,0-99.53,0-99.53,0v-5.81 c0,0,15.98,0.73,16.71-4.36c0.73-5.09,3.27-2.54-1.45-9.08c-4.72-6.54-43.23-55.94-43.23-55.94l-63.57,54.49 c0,0-18.06,16.65-2.18,34.51c2.91,3.27,68.29,67.57,166.01-10.17c-25.06,34.87-81.37,47.95-101.35,46.86 c-19.98-1.09-69.02-8.72-90.09-32.33c-23.97-23.97-12.17-38.32,2.91-53.4c6.58-6.58,70.83-61.39,70.83-61.39L69.51,73.88 c0,0-8.35-15.98-67.2-15.98c0-2.54,0-3.27,0-3.27h98.81v5.09h-8.36c0,0-14.89,2.54-9.44,10.53c5.45,7.99,40.68,53.04,40.68,53.04 l68.29-58.12c0,0,18.53-17.44-20.71-43.23C129.44-0.58,58.97,16.49,27.37,47.73z"></path> <g> <path class="st1" d="M35.99,125.28c5.17-0.19,9.38,1.32,12.61,4.53c3.23,3.21,4.85,7.22,4.85,12.05c0,4.12-1.21,7.74-3.62,10.87 c-3.19,4.15-7.7,6.23-13.53,6.23c-5.84,0-10.36-1.98-13.56-5.94c-2.52-3.13-3.78-6.84-3.78-11.14c0-4.82,1.64-8.84,4.92-12.06 C27.16,126.6,31.2,125.09,35.99,125.28z M36.28,126.81c-2.97,0-5.23,1.52-6.78,4.55c-1.26,2.49-1.89,6.07-1.89,10.73 c0,5.54,0.97,9.64,2.92,12.29c1.36,1.85,3.26,2.78,5.7,2.78c1.64,0,3.02-0.4,4.12-1.2c1.4-1.02,2.5-2.65,3.28-4.9 c0.78-2.24,1.17-5.17,1.17-8.78c0-4.29-0.4-7.51-1.2-9.64c-0.8-2.13-1.82-3.64-3.05-4.51C39.31,127.25,37.89,126.81,36.28,126.81z "></path> <path class="st1" d="M65.52,155.93v8.33c0,1.15,0.09,1.93,0.28,2.35c0.18,0.41,0.47,0.72,0.85,0.91c0.38,0.19,1.13,0.29,2.25,0.29 v0.89H56.13v-0.89c0.99-0.03,1.72-0.31,2.2-0.84c0.32-0.37,0.48-1.32,0.48-2.85v-23.64c0-1.58-0.18-2.59-0.55-3.03 c-0.37-0.44-1.08-0.69-2.13-0.75v-0.89h9.39v2.95c0.78-1.15,1.58-1.98,2.4-2.49c1.17-0.75,2.43-1.13,3.81-1.13 c1.64,0,3.14,0.52,4.49,1.56c1.35,1.04,2.37,2.47,3.08,4.3c0.7,1.83,1.05,3.8,1.05,5.9c0,2.27-0.36,4.34-1.09,6.22 c-0.73,1.88-1.78,3.3-3.16,4.29c-1.38,0.98-2.92,1.47-4.61,1.47c-1.23,0-2.38-0.27-3.45-0.82 C67.23,157.65,66.4,156.94,65.52,155.93z M65.52,153.52c1.37,1.95,2.84,2.92,4.41,2.92c0.86,0,1.57-0.46,2.13-1.37 c0.83-1.34,1.24-3.9,1.24-7.66c0-3.86-0.45-6.51-1.37-7.93c-0.61-0.94-1.42-1.41-2.44-1.41c-1.61,0-2.94,1.17-3.98,3.5V153.52z"></path> <path class="st1" d="M103.09,146.21H90.81c0.14,2.97,0.93,5.32,2.37,7.04c1.1,1.33,2.43,1.99,3.98,1.99c0.96,0,1.83-0.27,2.61-0.8 c0.78-0.54,1.62-1.5,2.51-2.89l0.81,0.53c-1.21,2.47-2.55,4.23-4.02,5.26c-1.47,1.03-3.17,1.55-5.1,1.55 c-3.32,0-5.84-1.28-7.54-3.83c-1.37-2.06-2.06-4.61-2.06-7.66c0-3.74,1.01-6.71,3.03-8.92c2.02-2.21,4.39-3.32,7.1-3.32 c2.27,0,4.24,0.93,5.9,2.79C102.07,139.8,102.96,142.55,103.09,146.21z M97.2,144.61c0-2.57-0.14-4.33-0.42-5.29 c-0.28-0.96-0.71-1.68-1.31-2.18c-0.34-0.29-0.78-0.43-1.34-0.43c-0.83,0-1.51,0.41-2.04,1.22c-0.94,1.42-1.41,3.37-1.41,5.84 v0.84H97.2z"></path> <path class="st1" d="M115.04,135.82v2.9c1.15-1.25,2.25-2.15,3.31-2.72c1.05-0.57,2.19-0.85,3.4-0.85c1.45,0,2.66,0.4,3.62,1.21 c0.96,0.81,1.6,1.81,1.92,3.01c0.26,0.91,0.38,2.66,0.38,5.25v8.72c0,1.72,0.16,2.8,0.47,3.22c0.31,0.42,0.96,0.69,1.95,0.8v0.86 h-11.33v-0.86c0.85-0.11,1.45-0.46,1.82-1.05c0.25-0.4,0.38-1.39,0.38-2.97v-9.96c0-1.84-0.07-2.99-0.22-3.47 c-0.14-0.48-0.39-0.85-0.73-1.11c-0.34-0.26-0.72-0.39-1.14-0.39c-1.37,0-2.65,0.98-3.83,2.94v12c0,1.68,0.16,2.74,0.47,3.19 c0.31,0.45,0.89,0.73,1.74,0.84v0.86h-11.33v-0.86c0.94-0.09,1.61-0.4,2.01-0.91c0.27-0.35,0.41-1.39,0.41-3.11v-12.65 c0-1.69-0.16-2.75-0.47-3.16c-0.31-0.42-0.96-0.69-1.95-0.81v-0.89H115.04z"></path> <path class="st1" d="M149.3,127.6v13.22h0.65c2.06,0,3.55-0.65,4.48-1.94c0.93-1.29,1.52-3.2,1.77-5.72h0.91v17h-0.91 c-0.19-1.85-0.59-3.37-1.21-4.55c-0.62-1.18-1.33-1.98-2.14-2.38c-0.81-0.41-2-0.61-3.54-0.61v9.15c0,1.79,0.08,2.88,0.23,3.28 c0.15,0.4,0.43,0.73,0.85,0.98c0.42,0.25,1.09,0.38,2.01,0.38h1.94c3.03,0,5.46-0.7,7.29-2.11c1.83-1.4,3.14-3.54,3.94-6.42h0.89 l-1.46,10.32h-28.07v-0.89H138c0.94,0,1.7-0.17,2.27-0.5c0.42-0.22,0.73-0.61,0.96-1.15c0.17-0.38,0.26-1.39,0.26-3.02v-21.36 c0-1.47-0.04-2.37-0.12-2.71c-0.16-0.56-0.46-0.99-0.89-1.29c-0.61-0.45-1.44-0.67-2.49-0.67h-1.08v-0.89h27.18v9.6h-0.91 c-0.46-2.35-1.11-4.03-1.95-5.05c-0.84-1.02-2.02-1.77-3.56-2.25c-0.89-0.29-2.57-0.43-5.03-0.43H149.3z"></path> <path class="st1" d="M188.38,139.17l8.96,13.29c1.49,2.2,2.54,3.54,3.17,4.01c0.63,0.47,1.38,0.75,2.24,0.85v0.89h-15.83v-0.89 c1.26-0.09,2.08-0.29,2.44-0.57c0.37-0.29,0.55-0.64,0.55-1.05c0-0.29-0.06-0.54-0.17-0.77c-0.22-0.48-0.78-1.37-1.68-2.68 l-4.74-7.02l-4.96,6.06c-1.48,1.84-2.23,3.08-2.23,3.74c0,0.46,0.19,0.89,0.58,1.29c0.38,0.4,0.95,0.69,1.7,0.86 c0.34,0.1,1.02,0.14,2.06,0.14v0.89H168v-0.89c1.42-0.21,2.54-0.59,3.35-1.15c1.07-0.73,2.56-2.27,4.48-4.6l6.44-7.86l-8.26-12.14 c-1.36-2-2.13-3.1-2.33-3.33c-0.43-0.53-0.85-0.9-1.27-1.13c-0.42-0.22-0.99-0.39-1.72-0.5v-0.89h16.12v0.89H184 c-0.93,0-1.57,0.15-1.94,0.44c-0.37,0.3-0.55,0.67-0.55,1.11c0,0.35,0.06,0.65,0.17,0.91l1.65,2.49l4.02,6.13l3.42-4.19 c1.76-2.16,2.63-3.66,2.63-4.53c0-0.43-0.12-0.83-0.37-1.2c-0.25-0.37-0.6-0.65-1.07-0.86c-0.46-0.21-1.18-0.31-2.16-0.31v-0.89 h11.95v0.89c-0.94,0.02-1.7,0.13-2.28,0.35c-0.57,0.22-1.19,0.62-1.84,1.21c-0.42,0.38-1.46,1.57-3.11,3.57L188.38,139.17z"></path> <path class="st1" d="M216.12,143.41v9.1c0,1.76,0.11,2.86,0.32,3.32c0.22,0.45,0.6,0.82,1.14,1.09c0.54,0.27,1.56,0.41,3.04,0.41 v0.89H204v-0.89c1.5,0,2.52-0.14,3.06-0.42c0.54-0.28,0.91-0.64,1.12-1.09c0.22-0.45,0.33-1.55,0.33-3.3v-21.08 c0-1.76-0.11-2.86-0.33-3.32c-0.21-0.45-0.59-0.82-1.14-1.09c-0.54-0.27-1.56-0.41-3.04-0.41v-0.89h15.09 c3.93,0,6.8,0.27,8.62,0.81c1.82,0.54,3.31,1.54,4.46,3.01c1.15,1.46,1.72,3.17,1.72,5.14c0,2.39-0.86,4.37-2.59,5.94 c-1.1,0.99-2.64,1.73-4.62,2.23l7.81,10.99c1.02,1.42,1.75,2.31,2.18,2.66c0.66,0.49,1.41,0.77,2.28,0.81v0.89h-10.23l-10.47-14.8 H216.12z M216.12,127.48v14.23h1.37c2.22,0,3.88-0.2,4.98-0.61c1.1-0.41,1.97-1.14,2.6-2.2c0.63-1.06,0.95-2.45,0.95-4.16 c0-2.47-0.58-4.3-1.74-5.48c-1.16-1.18-3.02-1.77-5.59-1.77H216.12z"></path> </g> <g> <path d="M37.75,124.25c5.17-0.19,9.38,1.32,12.61,4.53c3.23,3.21,4.85,7.22,4.85,12.05c0,4.12-1.21,7.74-3.62,10.87 c-3.19,4.15-7.7,6.23-13.53,6.23c-5.85,0-10.36-1.98-13.56-5.94c-2.52-3.13-3.78-6.84-3.78-11.14c0-4.82,1.64-8.84,4.92-12.06 C28.93,125.57,32.96,124.06,37.75,124.25z M38.04,125.78c-2.97,0-5.23,1.52-6.78,4.55c-1.26,2.49-1.89,6.07-1.89,10.73 c0,5.54,0.97,9.64,2.92,12.29c1.36,1.85,3.26,2.78,5.7,2.78c1.64,0,3.02-0.4,4.12-1.2c1.4-1.02,2.5-2.65,3.28-4.9 c0.78-2.24,1.17-5.17,1.17-8.78c0-4.29-0.4-7.51-1.2-9.64c-0.8-2.13-1.82-3.64-3.05-4.51C41.08,126.22,39.65,125.78,38.04,125.78z "></path> <path d="M67.28,154.9v8.34c0,1.15,0.09,1.93,0.27,2.35c0.18,0.42,0.47,0.72,0.85,0.91c0.38,0.19,1.13,0.29,2.25,0.29v0.89H57.89 v-0.89c0.99-0.03,1.73-0.31,2.2-0.84c0.32-0.37,0.48-1.32,0.48-2.85v-23.64c0-1.58-0.18-2.59-0.55-3.03 c-0.37-0.44-1.08-0.69-2.13-0.75v-0.89h9.39v2.95c0.78-1.15,1.58-1.98,2.39-2.49c1.17-0.75,2.44-1.12,3.81-1.12 c1.64,0,3.14,0.52,4.49,1.56c1.35,1.04,2.37,2.47,3.08,4.3c0.7,1.83,1.06,3.8,1.06,5.9c0,2.27-0.36,4.34-1.09,6.22 c-0.72,1.88-1.78,3.3-3.16,4.29c-1.38,0.98-2.92,1.47-4.61,1.47c-1.23,0-2.38-0.27-3.45-0.82C69,156.62,68.16,155.91,67.28,154.9z M67.28,152.49c1.37,1.95,2.84,2.92,4.41,2.92c0.86,0,1.57-0.46,2.13-1.37c0.83-1.34,1.24-3.9,1.24-7.66 c0-3.86-0.45-6.51-1.37-7.93c-0.61-0.94-1.42-1.41-2.44-1.41c-1.61,0-2.94,1.17-3.98,3.5V152.49z"></path> <path d="M104.86,145.18H92.57c0.14,2.97,0.94,5.32,2.37,7.04c1.1,1.33,2.43,1.99,3.97,1.99c0.96,0,1.83-0.27,2.61-0.8 c0.78-0.54,1.62-1.5,2.51-2.89l0.81,0.53c-1.21,2.47-2.55,4.23-4.02,5.26c-1.47,1.03-3.17,1.55-5.1,1.55 c-3.32,0-5.83-1.28-7.54-3.83c-1.37-2.06-2.06-4.61-2.06-7.66c0-3.74,1.01-6.71,3.03-8.92c2.02-2.21,4.39-3.32,7.1-3.32 c2.27,0,4.23,0.93,5.9,2.79C103.83,138.77,104.73,141.53,104.86,145.18z M98.97,143.58c0-2.57-0.14-4.34-0.42-5.29 c-0.28-0.96-0.71-1.68-1.31-2.18c-0.33-0.29-0.78-0.43-1.34-0.43c-0.83,0-1.51,0.41-2.04,1.22c-0.94,1.42-1.41,3.37-1.41,5.84 v0.84H98.97z"></path> <path d="M116.81,134.79v2.9c1.15-1.25,2.25-2.15,3.31-2.72c1.05-0.57,2.19-0.85,3.4-0.85c1.45,0,2.66,0.4,3.62,1.21 c0.96,0.81,1.6,1.81,1.92,3.01c0.26,0.91,0.38,2.66,0.38,5.25v8.72c0,1.72,0.16,2.8,0.47,3.22c0.31,0.42,0.96,0.69,1.95,0.8v0.86 h-11.33v-0.86c0.85-0.11,1.45-0.46,1.82-1.05c0.25-0.4,0.38-1.39,0.38-2.97v-9.96c0-1.84-0.07-2.99-0.22-3.47 c-0.14-0.48-0.39-0.85-0.73-1.11c-0.34-0.26-0.72-0.4-1.14-0.4c-1.37,0-2.65,0.98-3.83,2.94v12c0,1.68,0.15,2.74,0.47,3.19 c0.31,0.45,0.89,0.73,1.73,0.84v0.86h-11.33v-0.86c0.94-0.09,1.61-0.4,2.01-0.91c0.27-0.35,0.41-1.39,0.41-3.11v-12.65 c0-1.69-0.15-2.75-0.47-3.16c-0.31-0.42-0.96-0.69-1.95-0.81v-0.89H116.81z"></path> <path d="M151.06,126.57v13.22h0.65c2.06,0,3.55-0.65,4.48-1.94c0.93-1.29,1.52-3.2,1.77-5.72h0.91v17h-0.91 c-0.19-1.85-0.6-3.37-1.21-4.55c-0.61-1.18-1.33-1.98-2.14-2.38c-0.81-0.41-2-0.61-3.54-0.61v9.15c0,1.79,0.08,2.88,0.23,3.28 c0.15,0.4,0.43,0.73,0.85,0.98c0.42,0.25,1.09,0.38,2.01,0.38h1.94c3.03,0,5.46-0.7,7.29-2.11c1.83-1.4,3.14-3.54,3.94-6.42h0.89 l-1.46,10.32h-28.07v-0.89h1.08c0.94,0,1.7-0.17,2.27-0.5c0.42-0.22,0.73-0.61,0.96-1.15c0.17-0.38,0.26-1.39,0.26-3.02v-21.36 c0-1.47-0.04-2.37-0.12-2.71c-0.16-0.56-0.46-0.99-0.89-1.29c-0.61-0.45-1.44-0.67-2.49-0.67h-1.08v-0.89h27.18v9.6h-0.91 c-0.46-2.35-1.11-4.03-1.95-5.05c-0.84-1.02-2.02-1.77-3.56-2.25c-0.89-0.29-2.57-0.43-5.03-0.43H151.06z"></path> <path d="M190.15,138.14l8.96,13.29c1.49,2.2,2.54,3.54,3.17,4.01c0.63,0.47,1.38,0.75,2.24,0.85v0.89h-15.83v-0.89 c1.26-0.09,2.08-0.29,2.44-0.58c0.37-0.29,0.55-0.64,0.55-1.05c0-0.29-0.06-0.54-0.17-0.77c-0.22-0.48-0.78-1.37-1.68-2.68 l-4.74-7.02l-4.96,6.06c-1.48,1.84-2.23,3.08-2.23,3.74c0,0.46,0.19,0.89,0.58,1.29c0.38,0.4,0.95,0.69,1.7,0.86 c0.34,0.1,1.02,0.14,2.06,0.14v0.89h-12.48v-0.89c1.42-0.21,2.54-0.59,3.35-1.15c1.07-0.73,2.56-2.27,4.48-4.6l6.44-7.86 l-8.26-12.14c-1.36-2-2.13-3.11-2.32-3.33c-0.43-0.53-0.85-0.9-1.27-1.13c-0.41-0.22-0.99-0.39-1.72-0.5v-0.89h16.12v0.89h-0.81 c-0.93,0-1.57,0.15-1.94,0.44c-0.37,0.29-0.55,0.67-0.55,1.11c0,0.35,0.06,0.66,0.17,0.91l1.65,2.49l4.02,6.13l3.42-4.19 c1.76-2.16,2.63-3.66,2.63-4.53c0-0.43-0.12-0.83-0.37-1.2c-0.25-0.37-0.6-0.65-1.07-0.86c-0.46-0.21-1.18-0.31-2.15-0.31v-0.89 h11.95v0.89c-0.94,0.02-1.7,0.13-2.28,0.35c-0.58,0.21-1.19,0.62-1.84,1.21c-0.42,0.38-1.46,1.57-3.11,3.57L190.15,138.14z"></path> <path d="M217.88,142.38v9.1c0,1.76,0.11,2.86,0.32,3.32c0.22,0.45,0.59,0.82,1.14,1.09c0.54,0.27,1.56,0.41,3.04,0.41v0.89h-16.62 v-0.89c1.5,0,2.52-0.14,3.05-0.42c0.54-0.28,0.91-0.64,1.12-1.09c0.22-0.45,0.32-1.55,0.32-3.3v-21.08c0-1.76-0.11-2.86-0.32-3.32 c-0.21-0.45-0.6-0.82-1.14-1.09c-0.54-0.27-1.56-0.41-3.04-0.41v-0.89h15.09c3.93,0,6.8,0.27,8.62,0.81 c1.82,0.54,3.31,1.54,4.46,3.01c1.15,1.46,1.72,3.17,1.72,5.14c0,2.4-0.86,4.37-2.59,5.94c-1.1,0.99-2.64,1.73-4.62,2.23 l7.81,10.99c1.02,1.42,1.75,2.31,2.18,2.66c0.66,0.49,1.41,0.77,2.28,0.81v0.89h-10.23l-10.47-14.8H217.88z M217.88,126.45v14.23 h1.37c2.22,0,3.88-0.2,4.98-0.61c1.1-0.41,1.97-1.14,2.6-2.2c0.63-1.06,0.95-2.45,0.95-4.16c0-2.47-0.58-4.3-1.73-5.48 c-1.16-1.18-3.02-1.77-5.59-1.77H217.88z"></path> </g> </g> </svg> 