<svg width="209" height="45" version="1.1" xmlns="http://www.w3.org/2000/svg"><path fill="rgb(0,0,0)" stroke="rgb(0,0,0)" stroke-width="1" opacity="0" d="M 0 0 L 7 0.5 Q 1.1 6.1 0.5 17 L 0 0 Z "></path><path fill="rgb(0,0,0)" stroke="rgb(0,0,0)" stroke-width="1" opacity="0" d="M 17.5 0 L 208.5 0 L 209 0.5 L 209 16 L 203.5 16 L 203 17.5 L 202 21 Q 199 22.3 200 18.5 L 199 16 L 193 16 L 193 18.5 L 198 31 L 203.5 31 L 204 29.5 L 208.5 19 L 209 45 L 22 44.5 Q 32.5 41 38 32.5 Q 42.9 27.4 44 18.5 L 34.5 8 L 23.5 2 L 17.5 1 L 17.5 0 Z M 150 11 L 150 31 L 157 30 Q 158 33 164 31 L 167 27 L 166 19 Q 165 14 158 16 L 156 17 L 156 11 L 150 11 Z M 178 11 L 178 16 L 172 16 Q 166 18 168 28 L 172 31 L 184 31 L 184 12 L 184 11 L 178 11 Z M 186 11 L 186 31 L 187 31 L 192 31 L 192 12 L 192 11 L 186 11 Z M 57 12 L 52 17 L 51 21 L 53 28 Q 56 33 66 31 L 71 25 L 71 19 L 68 13 Q 65 11 57 12 Z M 120 12 Q 116 13 117 21 Q 120 25 127 25 L 127 26 Q 121 27 119 24 L 116 29 L 120 31 Q 127 33 131 30 L 133 27 L 132 22 L 124 18 L 124 17 L 130 18 Q 133 17 132 13 Q 128 11 120 12 Z M 79 16 L 77 17 L 75 17 L 72 18 L 72 35 Q 77 37 75 31 L 77 31 Q 83 32 85 30 L 88 25 L 88 28 Q 90 33 99 31 Q 103 29 100 27 L 96 29 L 91 27 L 92 25 L 101 25 L 100 19 L 97 16 L 91 17 L 88 23 L 85 19 Q 84 15 79 16 Z M 108 16 L 102 17 L 102 31 L 105 31 L 105 22 L 108 19 Q 111 18 112 22 L 112 31 L 115 31 L 115 21 L 114 19 Q 113 15 108 16 Z M 134 16 L 134 29 L 137 31 Q 141 32 143 30 L 149 31 L 149 16 L 143 16 L 143 25 L 142 26 L 140 26 L 140 16 L 134 16 Z "></path><path fill="rgb(0,0,0)" stroke="rgb(0,0,0)" stroke-width="1" opacity="0" d="M 60.5 14 Q 65.3 14.3 67 17.5 L 68 23.5 L 65.5 27 L 61.5 29 L 55 24.5 L 54 20.5 L 56 16 L 60.5 14 Z "></path><path fill="rgb(0,0,0)" stroke="rgb(0,0,0)" stroke-width="1" opacity="0" d="M 19.5 17 L 22.5 17 L 27 20.5 L 28 24.5 Q 27.3 27.8 22.5 27 L 20 24.5 L 18 18.5 L 19.5 17 Z "></path><path fill="rgb(0,0,0)" stroke="rgb(0,0,0)" stroke-width="1" opacity="0" d="M 78.5 19 Q 82.5 18.5 83 21.5 L 84 24.5 L 81.5 28 L 79.5 29 L 75 25.5 L 76 20 L 78.5 19 Z "></path><path fill="rgb(0,0,0)" stroke="rgb(0,0,0)" stroke-width="1" opacity="0" d="M 93.5 19 Q 97.5 18.5 98 21.5 L 97.5 23 L 91 23 L 93.5 19 Z "></path><path fill="rgb(0,0,0)" stroke="rgb(0,0,0)" stroke-width="1" opacity="0" d="M 157 21 L 161 22.5 L 159.5 26 Q 156.2 27.1 157 24.5 L 157 22.5 L 157 21 Z "></path><path fill="rgb(0,0,0)" stroke="rgb(0,0,0)" stroke-width="1" opacity="0" d="M 174 21 L 178 22.5 L 176.5 26 Q 173.2 27.1 174 24.5 L 174 22.5 L 174 21 Z "></path><path fill="rgb(0,0,0)" stroke="rgb(0,0,0)" stroke-width="1" opacity="0" d="M 7.5 23 L 8 25.5 L 7 25.5 L 7.5 23 Z "></path><path fill="rgb(0,0,0)" stroke="rgb(0,0,0)" stroke-width="1" opacity="0" d="M 0.5 35 L 4.5 42 L 10 44.5 L 0 45 L 0.5 35 Z "></path><path fill="rgb(227,147,39)" stroke="rgb(227,147,39)" stroke-width="1" opacity="0.9058823529411765" d="M 7.5 0 L 16.5 0 L 23.5 2 Q 35.8 6.8 43 16.5 L 44 20.5 Q 39.7 33.7 29.5 41 L 21.5 45 L 10.5 45 L 2 39.5 L 0 34.5 L 0 17.5 L 2 8.5 L 7.5 0 Z M 20 12 L 18 14 Q 17 25 25 29 L 30 27 Q 34 26 33 19 L 25 12 L 20 12 Z M 4 18 L 3 21 Q 1 29 4 33 Q 5 36 9 35 L 10 33 L 7 20 L 4 18 Z "></path><path fill="rgb(201,207,209)" stroke="rgb(201,207,209)" stroke-width="1" opacity="0.4117647058823529" d="M 150 11 L 156 11.5 L 151 12 L 151 29.5 Q 151 30.5 155.5 30 L 157.5 30 L 159 30.5 L 157.5 31 L 155.5 31 Q 150.1 31.6 150 30.5 L 150 11 Z "></path><path fill="rgb(201,207,209)" stroke="rgb(201,207,209)" stroke-width="1" opacity="0.4117647058823529" d="M 178 11 L 184 11.5 L 179 12 L 178.5 18 L 176 16.5 L 178 16 L 178 11 Z "></path><path fill="rgb(201,207,209)" stroke="rgb(201,207,209)" stroke-width="1" opacity="0.4117647058823529" d="M 186 11 L 191.5 11 L 192 11.5 L 192 31 L 186.5 31 L 186 30.5 L 186 11 Z M 187 12 Q 185 17 191 15 Q 193 10 187 12 Z M 187 17 L 187 30 L 191 30 L 191 18 L 187 17 Z "></path><path fill="rgb(201,207,209)" stroke="rgb(201,207,209)" stroke-width="1" opacity="0.4117647058823529" d="M 56.5 12 L 59 12.5 L 53 16.5 L 52.5 19 L 52 16.5 L 56.5 12 Z "></path><path fill="rgb(201,207,209)" stroke="rgb(201,207,209)" stroke-width="1" opacity="0.4117647058823529" d="M 64.5 12 L 68 13 L 70 16.5 L 65.5 13 L 64.5 12 Z "></path><path fill="rgb(201,207,209)" stroke="rgb(201,207,209)" stroke-width="1" opacity="0.4117647058823529" d="M 119.5 12 L 122 12.5 L 118 14.5 L 117.5 16 L 117 14.5 L 119.5 12 Z "></path><path fill="rgb(201,207,209)" stroke="rgb(201,207,209)" stroke-width="1" opacity="0.4117647058823529" d="M 127.5 12 L 132 13 Q 132.8 16.8 129.5 18 L 123.5 17 L 123.5 18 L 125 18.5 L 123.5 19 L 122 16 L 129.5 17 L 131 14.5 L 127.5 13 L 127.5 12 Z "></path><path fill="rgb(201,207,209)" stroke="rgb(201,207,209)" stroke-width="1" opacity="0.4117647058823529" d="M 58.5 14 L 60 14.5 L 56 16 L 54.5 20 L 54 18.5 L 56.5 15 L 58.5 14 Z "></path><path fill="rgb(201,207,209)" stroke="rgb(201,207,209)" stroke-width="1" opacity="0.4117647058823529" d="M 65.5 15 L 66.5 17 L 65.5 15 Z "></path><path fill="rgb(201,207,209)" stroke="rgb(201,207,209)" stroke-width="1" opacity="0.4117647058823529" d="M 78.5 16 Q 83.6 15.4 85 18.5 L 83.5 18 L 78.5 17 L 78.5 16 Z "></path><path fill="rgb(201,207,209)" stroke="rgb(201,207,209)" stroke-width="1" opacity="0.4117647058823529" d="M 92.5 16 Q 98.3 15.2 100 18.5 L 101 21.5 L 100 21.5 L 99 18 L 92.5 17 L 89.5 19 L 90.5 17 L 92.5 16 Z "></path><path fill="rgb(201,207,209)" stroke="rgb(201,207,209)" stroke-width="1" opacity="0.4117647058823529" d="M 107.5 16 L 111 16.5 L 106 18.5 Q 108.3 19.7 105.5 21 L 104.5 17 L 107.5 16 Z "></path><path fill="rgb(201,207,209)" stroke="rgb(201,207,209)" stroke-width="1" opacity="0.4117647058823529" d="M 134.5 16 L 140 16 L 140 25.5 L 141.5 26 L 143 25.5 L 140.5 27 L 139 25.5 L 139 17 L 134.5 17 L 134.5 16 Z "></path><path fill="rgb(201,207,209)" stroke="rgb(201,207,209)" stroke-width="1" opacity="0.4117647058823529" d="M 143 16 L 149 16 L 149 31 L 142.5 30 L 140.5 31 L 140.5 30 L 143.5 29 L 148 30 L 148 17.5 L 144 17 L 143.5 24 L 143 16 Z "></path><path fill="rgb(201,207,209)" stroke="rgb(201,207,209)" stroke-width="1" opacity="0.4117647058823529" d="M 157.5 16 L 159 16.5 L 156.5 18 L 157.5 16 Z "></path><path fill="rgb(201,207,209)" stroke="rgb(201,207,209)" stroke-width="1" opacity="0.4117647058823529" d="M 162.5 16 L 166 18.5 L 167 26.5 L 163.5 31 L 162 30.5 L 165 28.5 L 166 20.5 L 163.5 17 L 162.5 16 Z "></path><path fill="rgb(201,207,209)" stroke="rgb(201,207,209)" stroke-width="1" opacity="0.4117647058823529" d="M 171.5 16 L 173 16.5 L 169 19.5 L 168.5 21 L 168 19.5 L 171.5 16 Z "></path><path fill="rgb(201,207,209)" stroke="rgb(201,207,209)" stroke-width="1" opacity="0.4117647058823529" d="M 193 16 L 198.5 16 L 199 17.5 L 200 21 Q 203 22.3 202 18.5 L 203 16 L 209 16 L 209 18.5 L 204.5 29 L 204 27.5 L 208 17 Q 204.2 16 203 18.5 L 202 24 Q 199 25.3 200 21.5 L 197.5 17 Q 193.1 15.5 194 18.5 L 193 18.5 L 193 16 Z "></path><path fill="rgb(201,207,209)" stroke="rgb(201,207,209)" stroke-width="1" opacity="0.4117647058823529" d="M 72.5 17 L 73 34.5 L 72 34.5 L 72.5 17 Z "></path><path fill="rgb(201,207,209)" stroke="rgb(201,207,209)" stroke-width="1" opacity="0.4117647058823529" d="M 74.5 17 L 77 17.5 L 76.5 19 L 79.5 18 L 79.5 19 L 76 20 L 74.5 25 L 74 22.5 L 76 19.5 L 74 19 L 74.5 17 Z "></path><path fill="rgb(201,207,209)" stroke="rgb(201,207,209)" stroke-width="1" opacity="0.4117647058823529" d="M 102.5 17 L 103 30 L 105 30.5 L 102 31 L 102.5 17 Z "></path><path fill="rgb(201,207,209)" stroke="rgb(201,207,209)" stroke-width="1" opacity="0.4117647058823529" d="M 112.5 17 L 113.5 19 L 112.5 17 Z "></path><path fill="rgb(201,207,209)" stroke="rgb(201,207,209)" stroke-width="1" opacity="0.4117647058823529" d="M 70.5 18 L 71 24.5 L 65.5 31 L 63 30.5 L 69 26.5 L 70.5 18 Z "></path><path fill="rgb(201,207,209)" stroke="rgb(201,207,209)" stroke-width="1" opacity="0.4117647058823529" d="M 93.5 18 Q 98.5 17.5 99 21.5 L 98.5 23 L 95.5 19 Q 91.5 18.5 91 21.5 L 90.5 23 L 90 21.5 L 91 19 L 93.5 18 Z "></path><path fill="rgb(201,207,209)" stroke="rgb(201,207,209)" stroke-width="1" opacity="0.4117647058823529" d="M 81.5 19 L 84 22.5 L 83 22.5 L 81.5 19 Z "></path><path fill="rgb(201,207,209)" stroke="rgb(201,207,209)" stroke-width="1" opacity="0.4117647058823529" d="M 110.5 19 L 113 21.5 L 113.5 30 L 114.5 20 L 115 31 L 112 30.5 L 112 21.5 L 110.5 19 Z "></path><path fill="rgb(201,207,209)" stroke="rgb(201,207,209)" stroke-width="1" opacity="0.4117647058823529" d="M 51.5 20 L 52 22.5 L 51 22.5 L 51.5 20 Z "></path><path fill="rgb(201,207,209)" stroke="rgb(201,207,209)" stroke-width="1" opacity="0.4117647058823529" d="M 117.5 20 L 124 23.5 L 121.5 24 L 117.5 20 Z "></path><path fill="rgb(201,207,209)" stroke="rgb(201,207,209)" stroke-width="1" opacity="0.4117647058823529" d="M 129.5 20 L 132 21.5 L 133 26.5 L 130.5 30 L 131 28.5 L 132 23.5 L 131 21 L 129.5 20 Z "></path><path fill="rgb(201,207,209)" stroke="rgb(201,207,209)" stroke-width="1" opacity="0.4117647058823529" d="M 157.5 20 Q 161.5 19.5 162 22.5 Q 162.5 26.5 159.5 27 L 156 25.5 L 156.5 24 L 157 26 L 161 24.5 L 159.5 21 Q 156.2 19.9 157 22.5 L 156 22.5 L 157.5 20 Z "></path><path fill="rgb(201,207,209)" stroke="rgb(201,207,209)" stroke-width="1" opacity="0.4117647058823529" d="M 174.5 20 Q 178.5 19.5 179 22.5 Q 179.5 26.5 176.5 27 L 173 25.5 L 173.5 24 L 174 26 L 178 24.5 L 176.5 21 Q 173.2 19.9 174 22.5 L 173 22.5 L 174.5 20 Z "></path><path fill="rgb(201,207,209)" stroke="rgb(201,207,209)" stroke-width="1" opacity="0.4117647058823529" d="M 54.5 22 L 58.5 28 L 61 28.5 L 58.5 29 L 54 24.5 L 54.5 22 Z "></path><path fill="rgb(201,207,209)" stroke="rgb(201,207,209)" stroke-width="1" opacity="0.4117647058823529" d="M 86.5 22 L 88 24.5 L 85 30 L 81.5 31 L 81.5 30 L 85 27.5 L 86.5 22 Z "></path><path fill="rgb(201,207,209)" stroke="rgb(201,207,209)" stroke-width="1" opacity="0.4117647058823529" d="M 67.5 24 L 68 25.5 L 62.5 29 L 62.5 28 L 67 25.5 L 67.5 24 Z "></path><path fill="rgb(201,207,209)" stroke="rgb(201,207,209)" stroke-width="1" opacity="0.4117647058823529" d="M 90 24 L 101 24.5 L 91 25 L 92.5 28 L 94 28.5 L 92.5 29 Q 89.3 27.8 90 24 Z "></path><path fill="rgb(201,207,209)" stroke="rgb(201,207,209)" stroke-width="1" opacity="0.4117647058823529" d="M 118.5 24 L 127 26.5 L 122.5 27 L 118 25 L 117 29 L 122 30.5 L 119.5 31 L 116 28.5 L 118.5 24 Z "></path><path fill="rgb(201,207,209)" stroke="rgb(201,207,209)" stroke-width="1" opacity="0.4117647058823529" d="M 83.5 25 L 84 26.5 L 80.5 29 L 80.5 28 L 83 26.5 L 83.5 25 Z "></path><path fill="rgb(201,207,209)" stroke="rgb(201,207,209)" stroke-width="1" opacity="0.4117647058823529" d="M 196.5 25 L 198 28.5 L 197 28.5 L 196.5 25 Z "></path><path fill="rgb(201,207,209)" stroke="rgb(201,207,209)" stroke-width="1" opacity="0.4117647058823529" d="M 75.5 26 L 79 28.5 L 77.5 29 L 75.5 26 Z "></path><path fill="rgb(201,207,209)" stroke="rgb(201,207,209)" stroke-width="1" opacity="0.4117647058823529" d="M 88.5 26 L 91.5 30 L 93 30.5 L 91.5 31 L 88 27.5 L 88.5 26 Z "></path><path fill="rgb(201,207,209)" stroke="rgb(201,207,209)" stroke-width="1" opacity="0.4117647058823529" d="M 168.5 26 L 171.5 30 L 173 30.5 L 171.5 31 L 168 27.5 L 168.5 26 Z "></path><path fill="rgb(201,207,209)" stroke="rgb(201,207,209)" stroke-width="1" opacity="0.4117647058823529" d="M 53.5 27 L 55.5 30 L 53.5 27 Z "></path><path fill="rgb(201,207,209)" stroke="rgb(201,207,209)" stroke-width="1" opacity="0.4117647058823529" d="M 98.5 27 L 101 28.5 Q 100.5 31.5 96.5 31 L 96.5 30 L 100 28.5 L 98.5 28 L 96.5 29 L 96.5 28 L 98.5 27 Z "></path><path fill="rgb(201,207,209)" stroke="rgb(201,207,209)" stroke-width="1" opacity="0.4117647058823529" d="M 134.5 27 L 136.5 30 L 138 30.5 L 136.5 31 Q 132.9 29.9 134.5 27 Z "></path><path fill="rgb(201,207,209)" stroke="rgb(201,207,209)" stroke-width="1" opacity="0.4117647058823529" d="M 74.5 28 L 78 30.5 L 76.5 31 L 75 30.5 L 74.5 35 L 74.5 28 Z "></path><path fill="rgb(201,207,209)" stroke="rgb(201,207,209)" stroke-width="1" opacity="0.4117647058823529" d="M 178.5 29 L 184 30.5 L 176.5 31 L 176.5 30 L 178.5 29 Z "></path><path fill="rgb(201,207,209)" stroke="rgb(201,207,209)" stroke-width="1" opacity="0.4117647058823529" d="M 198.5 30 L 204 30.5 L 198.5 31 L 198.5 30 Z "></path><path fill="rgb(204,207,209)" stroke="rgb(204,207,209)" stroke-width="1" opacity="0.984313725490196" d="M 59.5 12 Q 67.6 11.9 70 17.5 Q 71.6 27.6 65.5 30 L 59.5 31 L 53 26.5 L 52 19.5 L 56.5 13 L 59.5 12 Z M 59 14 L 57 15 L 54 19 Q 53 28 59 29 Q 66 30 68 26 L 67 17 Q 65 13 59 14 Z "></path><path fill="rgb(204,207,209)" stroke="rgb(204,207,209)" stroke-width="1" opacity="0.984313725490196" d="M 122.5 12 Q 128.7 11.3 131 14.5 L 129.5 17 L 122 16 L 123.5 19 L 131 21 L 132 26.5 L 129.5 30 L 122.5 31 L 117 29 L 118 25 Q 121 27.7 127 27 Q 128.7 22.9 124.5 24 L 117 19.5 Q 116.4 14.4 119.5 13 L 122.5 12 Z "></path><path fill="rgb(204,207,209)" stroke="rgb(204,207,209)" stroke-width="1" opacity="0.984313725490196" d="M 151 12 Q 158.5 9.3 156 17.5 L 157.5 17 L 161.5 16 L 165 18.5 L 166 26.5 L 163.5 30 L 159.5 31 L 156.5 29 L 151 30 L 151 12 Z M 158 20 Q 155 21 156 26 L 160 27 Q 163 26 162 23 Q 161 20 158 20 Z "></path><path fill="rgb(204,207,209)" stroke="rgb(204,207,209)" stroke-width="1" opacity="0.984313725490196" d="M 179 12 L 184 12.5 L 184 30 L 178.5 29 L 173.5 31 L 169 27.5 L 168 21.5 L 171.5 17 L 175.5 16 L 178.5 18 L 179 12 Z M 175 20 Q 172 21 173 26 L 177 27 Q 180 26 179 23 Q 178 20 175 20 Z "></path><path fill="rgb(204,207,209)" stroke="rgb(204,207,209)" stroke-width="1" opacity="0.984313725490196" d="M 187 12 Q 192.6 10.1 191 15 Q 185.4 16.9 187 12 Z "></path><path fill="rgb(204,207,209)" stroke="rgb(204,207,209)" stroke-width="1" opacity="0.984313725490196" d="M 73.5 17 L 74 19 L 77.5 17 L 81.5 17 L 85 19.5 L 86 25.5 L 82.5 30 L 78.5 31 L 74.5 28 L 73.5 35 L 73.5 17 Z M 79 18 L 77 19 L 74 23 L 75 27 Q 76 30 82 29 Q 85 28 84 22 L 79 18 Z "></path><path fill="rgb(204,207,209)" stroke="rgb(204,207,209)" stroke-width="1" opacity="0.984313725490196" d="M 92.5 17 L 99 18 L 101 24 L 90.5 24 L 90 26.5 Q 91.3 30.3 97.5 29 L 99.5 28 L 98.5 30 L 93.5 31 L 89 27.5 L 88 21.5 L 90.5 18 L 92.5 17 Z M 94 18 L 91 19 L 90 23 L 99 23 L 99 22 Q 99 18 94 18 Z "></path><path fill="rgb(204,207,209)" stroke="rgb(204,207,209)" stroke-width="1" opacity="0.984313725490196" d="M 103.5 17 Q 105.5 21 107.5 17 Q 113 16 114 19.5 L 113.5 30 L 113 21.5 L 110.5 19 L 108.5 18 L 105 20.5 L 105 29.5 L 103 30 L 103.5 17 Z "></path><path fill="rgb(204,207,209)" stroke="rgb(204,207,209)" stroke-width="1" opacity="0.984313725490196" d="M 134 17 L 139 17 L 139 25.5 L 141.5 27 Q 145.5 24.2 144 17 L 148 17.5 L 148 30 L 142.5 29 L 138.5 31 L 135 28.5 L 134 26.5 L 134 17 Z "></path><path fill="rgb(204,207,209)" stroke="rgb(204,207,209)" stroke-width="1" opacity="0.984313725490196" d="M 187 17 L 191 17.5 L 191 30 L 187 29.5 L 187 17 Z "></path><path fill="rgb(204,207,209)" stroke="rgb(204,207,209)" stroke-width="1" opacity="0.984313725490196" d="M 194 17 Q 197.8 16 199 18.5 L 200 24 Q 203 25.3 202 21.5 L 204.5 17 Q 208.9 15.5 208 18.5 L 204 30 L 198 30 L 198 27.5 L 194 17 Z "></path><path fill="rgb(58,163,172)" stroke="rgb(58,163,172)" stroke-width="1" opacity="0.996078431372549" d="M 20.5 12 L 24.5 12 L 32 17.5 L 33 22.5 L 29.5 27 L 23.5 28 L 23.5 27 Q 27.5 27.5 28 24.5 L 25.5 19 Q 23.3 16 18 17 L 18 13 L 19.5 13 L 20.5 12 Z "></path><path fill="rgb(58,163,172)" stroke="rgb(58,163,172)" stroke-width="1" opacity="0.996078431372549" d="M 4 18 L 7 19.5 Q 6.1 28.4 10 32.5 L 9 35 Q 5.2 35.8 4 32.5 Q 1.3 28.7 3 20.5 L 4 18 Z "></path></svg>