<svg id="Layer_1" data-name="Layer 1" xmlns="http://www.w3.org/2000/svg" viewBox="0 0 500 452.0921"><defs><style>.cls-1{fill:#1973b6;}.cls-2{fill:#42fe2d;}.cls-3{fill:#17d102;}.cls-4{fill:#18d203;}.cls-5{fill:#3dfe28;}.cls-6{fill:#90fe84;}.cls-7{fill:#42fd2d;}.cls-8{fill:#21d40f;}.cls-9{fill:#4a9ad0;}.cls-10{fill:#93c2e1;}</style></defs><title>openMVG</title><path d="M90.69623,415.44644v-.13086c0-10.13769,8.1626-18.36621,19.15576-18.36621,10.92676,0,19.02344,8.09668,19.02344,18.23438v.13183c0,10.13672-8.16211,18.36524-19.15528,18.36524C98.79291,433.68079,90.69623,425.58411,90.69623,415.44644Zm28.30566,0v-.13086c0-5.20117-3.75244-9.74316-9.28174-9.74316-5.72705,0-9.1499,4.41113-9.1499,9.61133v.13183c0,5.2002,3.75195,9.74219,9.28174,9.74219C115.57855,425.05777,119.00189,420.64661,119.00189,415.44644Z"/><path d="M136.11078,397.60757h10.00586v5.06934a12.95576,12.95576,0,0,1,10.99267-5.72754c8.22852,0,16.062,6.45117,16.062,18.23438v.13183c0,11.78223-7.70167,18.2334-16.062,18.2334a13.55025,13.55025,0,0,1-10.99267-5.26562V443.423H136.11078Zm27.05469,17.708v-.13183c0-5.8584-3.94971-9.74219-8.62305-9.74219-4.67383,0-8.55762,3.88379-8.55762,9.74219v.13183c0,5.8584,3.88379,9.74219,8.55762,9.74219C159.21576,425.05777,163.16547,421.23941,163.16547,415.31558Z"/><path d="M178.8266,415.44644v-.13086c0-10.07226,7.17529-18.36621,17.44385-18.36621,11.7832,0,17.18066,9.15039,17.18066,19.15527,0,.79-.06543,1.71192-.13135,2.63379H188.76654c.98731,4.542,4.147,6.91114,8.62305,6.91114,3.35742,0,5.793-1.05274,8.55761-3.62012l5.727,5.06836c-3.2915,4.08105-8.03125,6.583-14.416,6.583C186.6601,433.68079,178.8266,426.24234,178.8266,415.44644Zm24.88232-2.96191c-.59228-4.47656-3.22558-7.50391-7.43847-7.50391-4.147,0-6.84571,2.96192-7.63575,7.50391Z"/><path d="M220.88422,397.60757h10.00586v5.00293c2.30371-2.96191,5.26611-5.66113,10.33447-5.66113,7.57031,0,11.98047,5.00293,11.98047,13.09961v22.8418H243.19965V413.20911c0-4.74024-2.2383-7.17578-6.05616-7.17578s-6.2534,2.43554-6.2534,7.17578v19.68164H220.88422Z"/><path d="M262.94232,386.81265h10.92774L285.98138,406.297l12.11231-19.48438h10.92773v46.07813H298.94916v-30.083l-12.96778,19.68262h-.26269L272.88177,403.006v29.88477h-9.93945Z"/><path d="M316.124,386.81265h11.19043l12.0459,32.45215,12.0459-32.45215H362.334l-18.629,46.40723h-8.95215Z"/><path d="M364.43549,409.98355v-.13183a23.65019,23.65019,0,0,1,23.465-23.83387q.34662-.0027.69318.00476c8.29394,0,13.29687,2.23828,18.10156,6.31934l-6.38476,7.70117c-3.55469-2.96191-6.71485-4.67383-12.0459-4.67383-7.373,0-13.23145,6.51758-13.23145,14.35059v.13184c0,8.42578,5.793,14.61328,13.95508,14.61328a16.17791,16.17791,0,0,0,9.54492-2.76465v-6.583H388.33v-8.75488h20.01172v20.01172a29.91022,29.91022,0,0,1-19.68262,7.30664C374.30853,433.68079,364.43549,423.6095,364.43549,409.98355Z"/><path class="cls-1" d="M320.54229,179.2072c-11.45871,14.74828-38.49364,52.3814-52.12655,65.36725,2.26038-51.38928,5.03641-125.162,7.29678-176.55134.8877-26.37619,12.8295-17.02482,32.031-27.82364,10.8226-6.08655,19.87225-16.77893,34.02387-15.23173"/><path class="cls-2" d="M400.56964,215.43849c.18323-21.821,4.34033-43.18947,7.08634-66.852,27.46069,14.12227,53.8735,27.62555,80.19482,41.305,5.73453,2.98029,4.14212,4.96562-1.31577,5.728-18.38534,2.37814-36.63449-1.22362-54.97534-1.37314-12.71588-.10364-23.41562.93973-25.45053,16.61734A5.14986,5.14986,0,0,1,400.56964,215.43849Z"/><path class="cls-3" d="M400.56964,215.43849c8.11768-25.63882,8.11783-25.54259,37.45392-25.59385,16.42386-.02869,32.502,2.47848,48.50937,5.77517-25.53049,8.33141-51.04236,16.72762-76.61511,24.93416C405.41687,221.9984,398.73959,226.127,400.56964,215.43849Z"/><polygon class="cls-4" points="210.697 256.101 104.094 342.673 210.697 295.298 210.697 256.101"/><polygon class="cls-5" points="132.113 227.497 104.094 342.673 210.697 256.101 132.113 227.497"/><polygon class="cls-5" points="7.607 197.831 90.17 153.587 98.606 201.96 7.607 197.831"/><polygon class="cls-6" points="98.606 227.497 98.606 201.96 7.607 197.831 98.606 227.497"/><polygon class="cls-7" points="83.893 104.667 142.828 99.955 111.54 136.072 83.893 104.667"/><polygon class="cls-6" points="114.151 148.31 83.893 104.667 107.968 119.329 114.151 148.31"/><polygon class="cls-4" points="107.969 119.329 142.828 99.955 144.174 128.904 114.151 148.31 107.969 119.329"/><polygon class="cls-6" points="297.223 252.815 403.826 339.388 297.223 292.012 297.223 252.815"/><polygon class="cls-5" points="375.807 224.212 403.826 339.388 297.223 252.815 375.807 224.212"/><polygon class="cls-5" points="491.514 193.64 408.951 149.396 400.515 197.769 491.514 193.64"/><polygon class="cls-4" points="400.515 223.306 400.515 197.769 491.514 193.64 400.515 223.306"/><polygon class="cls-7" points="412.446 101.842 353.511 97.13 384.798 133.247 412.446 101.842"/><polygon class="cls-8" points="382.188 145.486 412.446 101.842 388.37 116.504 382.188 145.486"/><polygon class="cls-6" points="388.37 116.505 353.511 97.13 352.165 126.08 382.188 145.486 388.37 116.505"/><path class="cls-9" d="M233.98353,7.72812,341.7674,24.96774,275.55865,71.53909c-7.14291,0-8.54345,3.68957-33.57514-2.12937-27.6958-6.43822-65.55858-26.21313-93.34865-32.22758"/><polygon class="cls-10" points="148.635 37.182 175.286 199.599 268.416 244.574 275.398 71.116 148.635 37.182"/></svg>