<?xml version="1.0" encoding="UTF-8" standalone="no"?>
<!-- Created with Inkscape (http://www.inkscape.org/) -->
<svg width="72.496094mm" height="7.7046399mm" viewBox="0 0 72.496094 7.7046399" version="1.1" id="svg5" inkscape:version="1.1.1 (c3084ef, 2021-09-22)" sodipodi:docname="openassetio-beta-logo.svg" xmlns:inkscape="http://www.inkscape.org/namespaces/inkscape" xmlns:sodipodi="http://sodipodi.sourceforge.net/DTD/sodipodi-0.dtd" xmlns="http://www.w3.org/2000/svg" xmlns:svg="http://www.w3.org/2000/svg">
  <sodipodi:namedview id="namedview7" pagecolor="#ffffff" bordercolor="#666666" borderopacity="1.0" inkscape:pageshadow="2" inkscape:pageopacity="0.0" inkscape:pagecheckerboard="0" inkscape:document-units="mm" showgrid="false" inkscape:zoom="0.98363857" inkscape:cx="202.8184" inkscape:cy="80.82237" inkscape:window-width="1312" inkscape:window-height="969" inkscape:window-x="0" inkscape:window-y="25" inkscape:window-maximized="0" inkscape:current-layer="text869"/>
  <defs id="defs2"/>
  <g inkscape:label="Layer 1" inkscape:groupmode="layer" id="layer1" transform="translate(-54.620654,-122.56175)">
    <g aria-label="OPENASSETIO" id="text869" style="">
      <g id="g20739">
        <path d="m 54.620654,126.41407 c 0,2.23308 1.714495,3.85232 3.841738,3.85232 2.127243,0 3.852321,-1.61924 3.852321,-3.85232 0,-2.23308 -1.725078,-3.85232 -3.852321,-3.85232 -2.127243,0 -3.841738,1.61924 -3.841738,3.85232 z m 0.412749,0 c 0,-2.07433 1.513412,-3.46074 3.428989,-3.46074 1.904994,0 3.439572,1.38641 3.439572,3.46074 0,2.04258 -1.534578,3.46074 -3.439572,3.46074 -1.915577,0 -3.428989,-1.41816 -3.428989,-3.46074 z" style="" id="path11513"/>
        <path d="m 63.7805,122.70992 v 7.40831 h 0.402166 v -2.8575 h 1.587495 c 1.672161,0 2.677574,-0.85724 2.677574,-2.27541 0,-1.41816 -1.005413,-2.2754 -2.677574,-2.2754 z m 0.402166,4.16982 v -3.77824 h 1.587495 c 1.386412,0 2.264826,0.65616 2.264826,1.88382 0,1.16417 -0.793748,1.89442 -2.264826,1.89442 z" style="" id="path11515"/>
        <path d="m 70.280466,129.72664 v -3.4184 h 3.503072 v -0.381 h -3.503072 v -2.82574 h 4.317986 v -0.39158 H 69.8783 v 7.40831 h 4.783652 v -0.39159 z" style="" id="path11517"/>
        <path d="m 81.724484,122.70992 v 4.98473 c 0,0.93133 0.04233,1.75683 0.03175,1.75683 h -0.01058 c -0.01058,0 -0.264582,-0.35983 -0.867831,-1.16417 l -4.148653,-5.57739 h -0.380999 v 7.40831 h 0.402166 v -5.01649 c 0,-0.9525 -0.03175,-1.76741 -0.02117,-1.76741 h 0.01058 c 0.01058,0 0.201083,0.30692 0.836081,1.16416 l 4.16982,5.61974 h 0.380999 v -7.40831 z" style="" id="path11519"/>
        <path d="m 89.41904,130.11823 h 1.259413 l -3.132657,-7.40831 h -1.09008 l -3.132656,7.40831 h 1.259412 l 0.687915,-1.68275 h 3.460739 z m -3.725321,-2.70933 0.952497,-2.31774 c 0.158749,-0.40217 0.338665,-0.96308 0.349249,-0.96308 h 0.01058 c 0.01058,0 0.190499,0.56091 0.349249,0.96308 l 0.952497,2.31774 z" style="" id="path11521"/>
        <path d="m 96.491496,124.56199 c -0.275165,-1.18533 -1.354662,-2.00024 -2.730491,-2.00024 -1.523995,0 -2.635242,0.92075 -2.635242,2.07433 0,1.29116 1.174747,1.70391 2.042577,2.00024 1.047747,0.34925 2.190743,0.53975 2.190743,1.46049 0,0.635 -0.550331,1.12183 -1.492245,1.12183 -1.068913,0 -1.714495,-0.68791 -1.852077,-1.46049 l -1.12183,0.30691 c 0.317499,1.29117 1.354662,2.20133 2.931574,2.20133 1.650995,0 2.762241,-0.93133 2.762241,-2.21191 0,-1.38641 -1.322912,-1.90499 -2.381242,-2.24366 -0.952497,-0.29633 -1.883828,-0.52916 -1.883828,-1.23824 0,-0.59267 0.560915,-0.99483 1.386413,-0.99483 0.793747,0 1.492245,0.46566 1.661578,1.29116 z" style="" id="path11523"/>
        <path d="m 102.85801,124.56199 c -0.27516,-1.18533 -1.35466,-2.00024 -2.73049,-2.00024 -1.523994,0 -2.63524,0.92075 -2.63524,2.07433 0,1.29116 1.174746,1.70391 2.042576,2.00024 1.047744,0.34925 2.190744,0.53975 2.190744,1.46049 0,0.635 -0.55033,1.12183 -1.49225,1.12183 -1.068909,0 -1.71449,-0.68791 -1.852073,-1.46049 l -1.12183,0.30691 c 0.317499,1.29117 1.354662,2.20133 2.931573,2.20133 1.651,0 2.76224,-0.93133 2.76224,-2.21191 0,-1.38641 -1.32291,-1.90499 -2.38124,-2.24366 -0.952497,-0.29633 -1.883828,-0.52916 -1.883828,-1.23824 0,-0.59267 0.560915,-0.99483 1.386408,-0.99483 0.79375,0 1.49225,0.46566 1.66158,1.29116 z" style="" id="path11525"/>
        <path d="m 105.41454,129.01756 v -2.24366 h 3.12207 v -1.03716 h -3.12207 v -1.92616 h 3.91582 v -1.10066 h -5.09057 v 7.40831 h 5.15407 v -1.10067 z" style="" id="path11527"/>
        <path d="m 110.27889,122.70992 v 1.10066 h 2.39183 v 6.30765 h 1.16416 v -6.30765 h 2.40241 v -1.10066 z" style="" id="path11529"/>
        <path d="m 117.90531,130.11823 v -7.40831 h -0.40216 v 7.40831 z" style="" id="path11531"/>
        <path d="m 119.42269,126.41407 c 0,2.23308 1.7145,3.85232 3.84174,3.85232 2.12725,0 3.85232,-1.61924 3.85232,-3.85232 0,-2.23308 -1.72507,-3.85232 -3.85232,-3.85232 -2.12724,0 -3.84174,1.61924 -3.84174,3.85232 z m 0.41275,0 c 0,-2.07433 1.51341,-3.46074 3.42899,-3.46074 1.905,0 3.43957,1.38641 3.43957,3.46074 0,2.04258 -1.53457,3.46074 -3.43957,3.46074 -1.91558,0 -3.42899,-1.41816 -3.42899,-3.46074 z" style="" id="path11533"/>
      </g>
      <text xml:space="preserve" style="" x="74.160789" y="143.63484" id="text13063"><tspan sodipodi:role="line" id="tspan13061" style="" x="74.160789" y="143.63484"/></text>
    </g>
  </g>
</svg>