<?xml version="1.0" encoding="UTF-8"?>
<svg id="Logo" xmlns="http://www.w3.org/2000/svg" viewBox="0 0 508.18 141.73">
  <defs>
    <style>
      .cls-1 {
        fill: #414141;
      }

      .cls-2 {
        fill: #828282;
      }

      .cls-3 {
        fill: #626262;
      }
    </style>
  </defs>
  <g>
    <path d="M32.99,96.56c-10.12,0-18.15-2.89-24.09-8.67C2.97,82.12,0,73.73,0,62.73v-19.37c0-11,2.97-19.39,8.91-25.16,5.94-5.78,13.97-8.67,24.09-8.67s18.05,2.89,24.03,8.67c5.98,5.78,8.97,14.17,8.97,25.16v19.37c0,11-2.99,19.39-8.97,25.17-5.98,5.78-13.99,8.67-24.03,8.67ZM32.99,86.88c7.09,0,12.57-2.11,16.44-6.34,3.86-4.22,5.8-10.04,5.8-17.45v-20.08c0-7.41-1.93-13.23-5.8-17.45-3.87-4.22-9.35-6.34-16.44-6.34s-12.47,2.11-16.38,6.34c-3.91,4.23-5.86,10.04-5.86,17.45v20.08c0,7.41,1.95,13.23,5.86,17.45,3.9,4.23,9.36,6.34,16.38,6.34Z"/>
    <path d="M74.36,118.8V36.31h9.92v9.32h1.79c1.51-2.87,3.92-5.42,7.23-7.65,3.31-2.23,7.95-3.35,13.93-3.35,5.02,0,9.6,1.2,13.75,3.59,4.14,2.39,7.47,5.84,9.98,10.34,2.51,4.5,3.77,9.9,3.77,16.2v1.67c0,6.22-1.24,11.6-3.71,16.14-2.47,4.54-5.8,8.01-9.98,10.4-4.18,2.39-8.79,3.59-13.81,3.59-3.99,0-7.37-.52-10.16-1.55-2.79-1.03-5.04-2.37-6.75-4-1.71-1.63-3.05-3.29-4-4.96h-1.79v32.76h-10.16ZM104.37,87.6c5.9,0,10.7-1.87,14.41-5.62,3.71-3.75,5.56-9.04,5.56-15.9v-.96c0-6.77-1.85-12.05-5.56-15.84-3.71-3.78-8.51-5.68-14.41-5.68s-10.5,1.89-14.29,5.68c-3.79,3.79-5.68,9.07-5.68,15.84v.96c0,6.85,1.89,12.15,5.68,15.9,3.78,3.75,8.55,5.62,14.29,5.62Z"/>
    <path d="M172.68,96.56c-5.98,0-11.18-1.25-15.6-3.77-4.42-2.51-7.89-6.04-10.4-10.58-2.51-4.54-3.77-9.84-3.77-15.9v-1.43c0-6.06,1.23-11.36,3.71-15.9,2.47-4.54,5.9-8.07,10.28-10.58,4.38-2.51,9.44-3.77,15.18-3.77s10.48,1.2,14.7,3.59c4.22,2.39,7.53,5.78,9.92,10.16,2.39,4.38,3.59,9.56,3.59,15.54v4.3h-47.1c.24,6.06,2.19,10.8,5.86,14.23,3.66,3.43,8.25,5.14,13.75,5.14,5.02,0,8.83-1.11,11.42-3.35,2.59-2.23,4.6-4.9,6.04-8.01l8.61,4.3c-1.12,2.39-2.73,4.82-4.84,7.29-2.11,2.47-4.88,4.54-8.31,6.22-3.43,1.67-7.77,2.51-13.03,2.51ZM153.31,60.1h36.58c-.32-5.18-2.09-9.22-5.32-12.13-3.23-2.91-7.43-4.36-12.61-4.36s-9.31,1.45-12.61,4.36c-3.31,2.91-5.32,6.95-6.04,12.13Z"/>
    <path d="M209.37,94.89v-58.58h9.92v9.68h1.79c1.2-2.71,3.31-5.18,6.34-7.41,3.03-2.23,7.49-3.35,13.39-3.35,4.38,0,8.31.94,11.78,2.81,3.47,1.87,6.24,4.62,8.31,8.25,2.07,3.63,3.11,8.03,3.11,13.21v35.39h-10.16v-34.67c0-5.66-1.42-9.76-4.24-12.31-2.83-2.55-6.68-3.83-11.54-3.83-5.42,0-9.86,1.79-13.33,5.38-3.47,3.59-5.2,8.93-5.2,16.02v29.41h-10.16Z"/>
  </g>
  <g>
    <g>
      <path class="cls-2" d="M464.66,93.26l-24.75-83.68h11.12l22.24,77.11h1.55l22.24-77.11h11.12l-24.75,83.68h-18.77Z"/>
      <g>
        <path class="cls-3" d="M412.61,52.15c0,13.46-10.95,24.42-24.42,24.42s-24.42-10.95-24.42-24.42,10.95-24.42,24.42-24.42,24.42,10.95,24.42,24.42ZM373.92,52.15c0,7.87,6.4,14.27,14.27,14.27s14.27-6.4,14.27-14.27-6.4-14.27-14.27-14.27-14.27,6.4-14.27,14.27Z"/>
        <path class="cls-1" d="M410.99,9.58v10.14h-51.53c-1.73,0-3.14,1.41-3.14,3.14v118.87h-10.14V22.86c0-7.33,5.96-13.29,13.29-13.29h51.53Z"/>
        <rect class="cls-2" x="425.15" y="9.58" width="24.42" height="10.14"/>
        <rect class="cls-1" x="332.36" y="84.75" width="18.29" height="10.14"/>
        <path class="cls-2" d="M430.22,0v81.6c0,7.33-5.96,13.29-13.29,13.29h-51.53v-10.14h51.53c1.73,0,3.14-1.41,3.14-3.14V0h10.14Z"/>
      </g>
    </g>
    <path class="cls-1" d="M271.07,94.89l25.34-83.68h18.89l25.34,83.68h-11.12l-6.22-20.8h-34.91l-6.22,20.8h-11.12ZM291.15,64.29h29.41l-13.87-46.5h-1.67l-13.87,46.5Z"/>
  </g>
</svg>