<svg id="Layer_1" data-name="Layer 1" xmlns="http://www.w3.org/2000/svg" viewBox="0 0 500 162.97642"><defs><style>.cls-1{fill:#02559f;}.cls-2{fill:#c7dcf1;}.cls-3{fill:#8eb9e4;}</style></defs><title>OpenMesh</title><path class="cls-1" d="M73.09983,122.77976c.0001-9.48682-.01948-18.9737.01019-28.46044.01115-3.56607,2.25937-4.80733,5.38844-3.00275q24.695,14.242,49.37315,28.51344c3.18192,1.84011,3.141,4.36216-.08357,6.22519q-24.521,14.1673-49.0513,28.31849c-3.54678,2.046-5.63077.81568-5.63441-3.322Q73.08991,136.91574,73.09983,122.77976Z"/><path class="cls-2" d="M72.99479,42.95625q0-13.84917.008-27.69834a8.21128,8.21128,0,0,1,.19312-2.0437c.60974-2.33706,2.50678-3.26524,4.59236-2.10161,4.54055,2.53334,9.01417,5.18653,13.51869,7.78459q14.08359,8.123,28.16949,16.242c2.984,1.72282,5.9977,3.40072,8.914,5.23268,2.68855,1.68892,2.44987,4.07366-.33125,5.67154Q112.98475,54.70427,97.95971,63.451c-6.6699,3.86-13.3292,7.73858-20.02013,11.5618-2.42559,1.386-4.6906-.0183-4.91742-3.04082-.11719-1.56157-.02692-3.13885-.02705-4.709Q72.994,55.10961,72.99479,42.95625Z"/><path class="cls-1" d="M136.29033,82.94139q0,14.1356-.002,28.27117c-.00265,3.99113-2.13244,5.25744-5.55563,3.28335q-24.6133-14.19411-49.21346-28.411c-3.13777-1.81331-3.17854-4.34745-.083-6.13767q24.759-14.31864,49.53825-28.6023c3.08893-1.78037,5.30466-.4636,5.31055,3.1368Q136.30828,68.71155,136.29033,82.94139Z"/><path class="cls-3" d="M3.95915,82.99108q0-14.23527.00191-28.47053c.00226-3.699,2.21729-4.96528,5.41839-3.117Q33.762,65.48168,58.14539,79.55853q.48912.28243.96344.59034c2.53439,1.644,2.58841,4.12831-.00873,5.66465-6.10518,3.61152-12.26319,7.1339-18.407,10.67987q-15.41373,8.89619-30.83589,17.77783c-.21751.12539-.42418.26977-.64291.39287-3.02651,1.70331-5.24748.44-5.25137-3.014Q3.94676,97.32063,3.95915,82.99108Z"/><path class="cls-3" d="M66.99346,122.77311q.00106,14.32734-.00209,28.6547c-.00326,3.71244-1.98615,4.93716-5.21584,3.08879-11.0585-6.32884-22.08-12.72229-33.11552-19.09133-5.273-3.0433-10.537-6.10256-15.82446-9.12048-1.40547-.80218-2.77766-1.60971-2.81283-3.44821-.033-1.72627,1.29264-2.42284,2.57333-3.16112q22.75736-13.1184,45.49856-26.26482c1.35878-.78486,2.68129-1.6367,4.06686-2.37013,2.65665-1.40628,4.81772-.12557,4.8239,2.86946Q67.01514,108.3515,66.99346,122.77311Z"/><path class="cls-2" d="M66.95849,43.19121c-.00021,9.54775-.12876,19.09829.07984,28.64148.06087,2.78443-2.37608,4.61657-5.04148,3.041-6.52629-3.85765-13.10372-7.629-19.66815-11.42187q-13.1022-7.57042-26.215-15.12244-2.19765-1.2682-4.38062-2.56184C9.676,44.54651,9.392,42.632,11.09587,40.96075c1.58646-1.55613,3.67-2.39089,5.55442-3.48508,13.54686-7.8661,27.143-15.64738,40.72363-23.45529,1.6294-.93679,3.22909-1.93116,4.89663-2.79435,2.741-1.41883,4.67476-.19116,4.68257,2.94508.01656,6.65825.00541,13.31658.00557,19.97487Q66.95879,38.6686,66.95849,43.19121Z"/><path d="M200.50586,82.23564c0,22.24121-4.99316,35.04834-19.14941,35.04834-13.56983,0-18.791-12.29541-18.791-34.832,0-22.34326,6.15527-34.01611,19.05078-34.01611C195.21729,48.43584,200.50586,59.73515,200.50586,82.23564Zm-32.08643.03516c0,20.27978,4.38428,29.96777,13.14942,29.96777,8.99414,0,13.083-9.56152,13.083-29.80224,0-20.94532-4.43506-28.93946-13.16553-28.93946C172.9375,53.49687,168.41943,62.81084,168.41943,82.2708Z"/><path d="M215.80078,110.804v23.88233h-5.52685V81.31279c0-6.812,0-11.44092-.09864-14.52588h5.36524c.11426.85108.22851,4.45557.22851,7.13819,1.82422-4.70752,5.50782-7.9419,12.07178-7.9419,9.45557,0,14.4751,8.48975,14.4751,24.94678,0,17.24609-6.11865,26.32275-15.88574,26.32275C220.15039,117.25273,217.19531,114.1248,215.80078,110.804Zm20.80713-19.61377c0-12.69385-3.0415-20.16162-10.15186-20.16162-8.41015,0-10.88378,8.03174-10.88378,20.48047,0,11.95313,1.31933,20.69824,10.30517,20.69824C232.93652,112.20732,236.60791,103.79326,236.60791,91.19023Z"/><path d="M255.41211,92.28691c0,11.00537,1.99707,20.0503,10.43457,20.0503,8.56055,0,9.66309-8.31885,9.94336-9.76124h5.51465c-.11426,1.17823-1.61231,14.67676-15.48926,14.67676-14.04688,0-15.99707-13.3247-15.99707-25.582,0-15.67236,5.14551-25.6875,16.44238-25.6875,12.52149,0,15.4375,10.71631,15.4375,22.88672,0,.647-.01562,2.0498-.11426,3.417Zm20.708-4.61181c0-9.92579-2.28028-16.79248-9.94239-16.79248-10.00976,0-10.48632,13.46289-10.65136,16.79248Z"/><path d="M291.33691,82.08135c0-10.12549-.083-13.11573-.09863-15.29444h5.36524c.11425,1.19776.22851,3.1167.22851,7.00781,1.72559-4.29736,5.27442-7.82763,12.03906-7.82763,6.833,0,12.76953,3.69629,12.76953,15.082v35.30127h-5.60937V82.01933c0-6.48046-2.35937-10.99072-8.37891-10.99072-7.5791,0-10.70605,5.12842-10.70605,16.28809v29.03369h-5.60938Z"/><path d="M376.44713,86.46123c0-12.8667.22125-25.22217.44361-32.07764h-.1464c-2.83342,11.166-10.67431,40.95947-17.1095,61.9668h-6.389c-4.84015-17.75781-13.07182-49.90674-15.96249-62.08106h-.25758c.44362,7.78125.77716,22.811.77716,34.252v27.8291h-6.14569V49.35381h9.47446c6.89091,21.96289,13.69267,50.002,15.60253,58.37841h.11118c1.36717-6.56054,9.67039-37.20361,16.46884-58.37841h9.47776v66.99658h-6.34492Z"/><path d="M396.0956,92.28691c0,11.00537,1.99707,20.0503,10.43457,20.0503,8.56054,0,9.66308-8.31885,9.94336-9.76124h5.51464c-.11425,1.17823-1.6123,14.67676-15.48925,14.67676-14.04688,0-15.99707-13.3247-15.99707-25.582,0-15.67236,5.1455-25.6875,16.44238-25.6875,12.52148,0,15.4375,10.71631,15.4375,22.88672,0,.647-.01563,2.0498-.11426,3.417Zm20.708-4.61181c0-9.92579-2.28027-16.79248-9.94238-16.79248-10.00976,0-10.48633,13.46289-10.65137,16.79248Z"/><path d="M434.45692,102.34355c.41407,6.03076,3.62793,10.12012,9.66309,10.12012,6.02734,0,8.94238-3.75781,8.94238-8.7959,0-5.73144-3.0332-8.26465-9.7705-10.92773-9.68165-3.78614-12.71875-7.293-12.71875-14.11719,0-6.57959,4.01855-12.65576,13.48339-12.65576,10.332,0,13.5,6.99023,13.582,13.60547h-5.51465c-.165-2.58448-.84278-8.832-8.28028-8.832-5.32129,0-7.6416,3.26123-7.6416,7.6416,0,4.29394,1.70606,6.41748,8.93945,9.2456,9.21192,3.625,13.58106,6.95069,13.58106,15.62207,0,8.75489-5.49219,13.98682-14.92969,13.98682-9.62988,0-14.56738-5.83154-14.89844-14.89307Z"/><path d="M471.46875,46.90333V73.31816c1.70605-4.37646,5.835-7.35107,12.1543-7.35107,6.93066,0,12.541,4.22412,12.541,15.0625v35.3208h-5.60937V82.18486c0-6.54736-2.09571-11.15625-8.64258-11.15625-7.47363,0-10.44336,6.2749-10.44336,15.72119v29.60059h-5.60937V46.7986Z"/></svg>