<svg xmlns="http://www.w3.org/2000/svg" role="img" xmlns:xlink="http://www.w3.org/1999/xlink" viewBox="-3.75 -3.75 455.00 105.50"><title>OpenMVG logo</title><defs><linearGradient id="b"><stop offset="0" stop-color="#0028ff"/><stop offset="1" stop-color="#0028ff" stop-opacity="0"/></linearGradient><linearGradient id="a"><stop offset="0" stop-color="#8ae234"/><stop offset="1" stop-color="#8ae234" stop-opacity="0"/></linearGradient><linearGradient id="c" x1="387.5" x2="385.869" y1="402.5" y2="187.742" gradientTransform="matrix(.10951 0 0 -.24068 352.187 191.656)" gradientUnits="userSpaceOnUse" xlink:href="#a"/><linearGradient id="d" x1="183.191" x2="154.005" y1="918.891" y2="903.487" gradientTransform="translate(-22.223 -775.797)" gradientUnits="userSpaceOnUse" xlink:href="#b"/></defs><path fill="url(#c)" fill-rule="evenodd" d="M366.626 93.755l27.984 56.122 24.995-56.144z" opacity=".5" transform="translate(-42.735 -68.85)"/><path d="M58.963 5c-4.897-.007-8.499.721-11.612 2.241-1.879.918-4.617 2.066-6.084 2.54a8.423 8.423 0 0 0-5.507 5.721c-.36 1.257-.06 1.507 2.263 1.879 4.02.643 4.178 2.261.362 3.949-2.548 1.127-4.242 1.345-8.88 1.153-5.056-.21-5.72-.1-5.72.939 0 .851-1.085 1.48-3.928 2.262-7.016 1.93-9.945 3.215-12.424 5.486L5 33.412l.17 5.678c.875 27.85 1.584 37.84 2.797 39.512 2.374 3.271 13.25 8.994 21.474 11.292 4.343 1.213 8.963.899 10.759-.726 1.26-1.14 1.345-2.195 1.345-18.08 0-9.66.286-17.715.683-18.849.381-1.09 1.61-2.498 2.732-3.138 2.122-1.21 2.38-2.143 2.177-7.727-.096-2.643-.066-2.66.64-.811 1.135 2.967-.045 8.094-2.091 9.115-.907.452-1.985 1.385-2.391 2.07-.445.751-.822 7.001-.96 15.754-.193 12.166-.08 14.582.747 14.9.763.292 15.885-4.048 16.735-4.804.103-.092-.588-1.663-1.537-3.5-2.476-4.798-3.548-13.256-2.519-19.874.922-5.927 3.798-12.322 7.3-16.265l2.434-2.733-2.775 4.398c-1.52 2.414-3.204 5.907-3.757 7.77-2.492 8.392-1.838 19.059 1.558 25.316 1.8 3.315 2.134 3.545 11.677 8.09 5.404 2.574 9.926 4.568 10.054 4.44.127-.127-.48-1.289-1.345-2.583-5.42-8.108-4.468-23.604 2.113-34.708 4.766-8.041 13.335-14.43 19.383-14.43 3.562 0 2.584-1.13-2.028-2.327-2.54-.659-5.004-1.431-5.486-1.73-.483-.297-1.567-2.59-2.412-5.101l-1.537-4.568 2.07-1.622c1.895-1.483 2.01-1.79 1.26-3.437C92.6 11.072 80.028 6.88 66.52 5.47c-2.834-.296-5.33-.467-7.557-.47z"/><path fill="#fff" d="M89.147 13.752c2.859-.05 3.639.184 4.247.918 1.278 1.54.271 2.456-3.479 3.18-1.627.315-5.826.603-9.328.62-5.696.026-6.332-.11-6.127-1.175.384-1.992 3.789-3.044 11.058-3.415 1.482-.076 2.676-.111 3.629-.128z"/><path d="M34.522 17.936c-4.768-.056-11.01 1.286-9.627 2.625.322.312 1.52.662 2.647.79 3.197.364 8.673-.213 10.929-1.152l2.049-.854-2.05-.833c-.924-.377-2.36-.558-3.948-.576zm9.307 16.266c.188 0 1.012.922 1.814 2.049.803 1.127 1.298 2.05 1.11 2.05-.188 0-.99-.923-1.793-2.05-.803-1.127-1.32-2.05-1.131-2.05z"/><path fill="#ffecec" d="M38.279 35.055c2.028.264 4.628 1.142 5.678 2.327 1.275 1.683 1.24 2.047-.363 3.65-.91.91-2.223 1.36-3.928 1.324-6.624-.14-13.628-5.359-8.538-6.361 3.399-.67 4.767-1.25 7.15-.94z"/><path fill="#007f00" d="M106.992 36.272c-2.148-.032-5.252.467-7.77 1.409-5.522 2.066-11.263 7.893-14.323 14.515C81.802 58.9 80.934 63.26 81.334 70c.396 6.674 2.08 10.853 5.934 14.708 1.526 1.526 3.098 2.775 3.5 2.775.403 0 .234-.493-.362-1.089-9.624-9.624-8.373-28.79 2.668-41.07 3.75-4.171 10.257-7.706 14.195-7.706 1.602 0 2.496-.272 2.242-.683-.27-.435-1.23-.642-2.519-.662z"/><path fill="#030000" d="M43.38 38.47c-.169.042-.445.3-.768.727-.992 1.308-4.33 1.756-5.934.79-.81-.489-.797-.407 0 .576 1.832 2.259 6.873.849 6.873-1.921 0-.141-.069-.196-.17-.171z"/><path fill="url(#d)" d="M149.578 109.198c-2.3 0-8.611 2.809-9.948 4.42-.636.766-.308.869 1.879.576 3.64-.489 6.6 1.17 8.41 4.717 1.797 3.523 1.544 9.67-.662 15.86-3.297 9.255-12.262 13.81-18.123 9.2-2.146-1.688-2.288-.777-.49 3.138 1.48 3.225 3.291 4.983 5.976 5.785 6.587 1.969 16.437-4.436 20.514-13.341 4.598-10.043 3.116-23.245-3.202-28.561-1.337-1.126-2.972-1.794-4.354-1.794z" transform="translate(-42.735 -68.85)"/><path fill="#007f00" d="M113.695 41.032c-.371 0-.047.692.725 1.537 11.463 12.536 1.058 42.061-15.305 43.418-2.423.201-3.412.52-2.817.897.505.32 2.302.592 4.013.598 8.237.027 16.822-8.455 20.257-20.023 1.936-6.52 1.125-16.3-1.729-20.962-1.483-2.422-4.348-5.465-5.144-5.465z"/><path d="M97.408 47.394c-3.957.117-9.42 9.629-9.948 17.866-.257 4.008-.096 5.48.79 6.831 2.79 4.259 9.834-.242 12.423-7.94 2.499-7.43 1.3-15.446-2.497-16.65a2.297 2.297 0 0 0-.768-.107zm39.73 1.475v-5.125l-11.395.844v2.421c5.626 0 6.182.47 6.182 3.875v36.438c0 3.516-.874 3.516-6.182 3.516v2.406c2.702-.094 6.802-.235 8.868-.235 2.13 0 6.182.141 8.964.235v-2.406c-5.324 0-6.183 0-6.183-3.516V73.54l1.113-1.016c-1.113-1.64-1.113-1.719-1.113-3.25v-17.39c2.273-3.954 6.183-6.22 10.204-6.22 5.784 0 10.616 6.86 10.616 15.657 0 9.422-5.563 15.953-11.411 15.953-3.163 0-6.167-1.562-8.296-4.75l-1.113 1.016c.398 1.25 3.72 5.453 9.727 5.453 9.44 0 17.657-7.625 17.657-17.672 0-9.89-7.677-17.578-16.545-17.578-6.182 0-9.504 3.406-11.093 5.125zm41.528 11.281l.08-1.64c.46-11.594 7.12-13.532 9.82-13.532 8.154 0 8.948 10.5 8.948 13.531h-18.769l-.08 1.641h22.092c1.748 0 1.97 0 1.97-1.64 0-7.688-4.275-15.235-14.16-15.235-9.186 0-16.48 8-16.48 17.75 0 10.422 8.311 17.969 17.433 17.969 9.647 0 13.207-8.64 13.207-10.11 0-.78-.62-.953-1.017-.953-.715 0-.874.469-1.049 1.094-2.75 8.016-9.885 8.016-10.68 8.016-3.973 0-7.12-2.328-8.931-5.203-2.384-3.735-2.384-8.891-2.384-11.688zm35.011-8.797v20.875c0 3.485-.874 3.485-6.182 3.485v2.421c2.781-.078 6.802-.25 8.932-.25 2.066 0 6.182.172 8.868.25v-2.421c-5.292 0-6.15 0-6.15-3.485V57.9c0-8.11 5.61-12.453 10.664-12.453 5.006 0 5.864 4.203 5.864 8.64v18.141c0 3.485-.858 3.485-6.182 3.485v2.421c2.78-.078 6.834-.25 8.963-.25 2.066 0 6.167.172 8.868.25v-2.421c-4.116 0-6.103 0-6.182-2.344v-14.86c0-6.687 0-9.109-2.463-11.89-1.081-1.344-3.72-2.875-8.28-2.875-5.801 0-9.52 3.344-11.73 8.14v-8.14l-11.172.844v2.421c5.53 0 6.182.532 6.182 4.344zm54.401-24.687l-.032-.078-.031-.079-.032-.062-.032-.078-.048-.14-.063-.126-.064-.11-.047-.109-.064-.109-.048-.094-.063-.078-.048-.078-.064-.078-.063-.062-.064-.063-.063-.062-.064-.047-.064-.032-.079-.047-.064-.03-.079-.032-.095-.016-.08-.03-.095-.017-.095-.015h-.111l-.112-.016h-.111l-.127-.015h-14.129v2.422h1.907c6.087 0 6.23.843 6.23 3.656v38.922c0 2.093 0 5.75-8.137 5.75v2.422c2.781-.079 6.66-.25 9.25-.25 2.622 0 6.516.171 9.265.25v-2.422c-8.137 0-8.137-3.657-8.137-5.75V28.01h.064l19.071 48.42c.397 1 .795 1.703 1.59 1.703.874 0 1.128-.64 1.43-1.484l19.484-49.266h.08v44.672c0 2.813-.143 3.656-6.262 3.656h-1.891v2.422c2.94-.25 8.296-.25 11.395-.25 3.083 0 8.407 0 11.331.25v-2.422h-1.907c-6.087 0-6.262-.843-6.262-3.656V31.041c0-2.813.175-3.657 6.262-3.657h1.907v-2.422h-13.381c-2.066 0-2.066.079-2.607 1.485l-17.355 43.828zm163.561 46.562l.11.172.112.172.127.172.127.187.143.188.16.187.158.203.175.188.159.203.19.203.366.406.382.391.381.39.19.172.207.188.175.172.19.156.192.156.174.157.175.125.16.125.158.125.159.093.143.094.127.078.127.047.112.047.063.016.048.015h.079c.731 0 .731-.625.731-1.797V62.73c0-3.048.286-3.438 5.452-3.438V56.9c-2.925.062-7.295.219-9.663.219-3.179 0-9.901 0-12.762-.219v2.39h2.543c7.12 0 7.374.86 7.374 3.735v4.984c0 8.735-10.06 9.422-12.27 9.422-5.164 0-20.835-2.719-20.835-25.906 0-23.297 15.591-25.86 20.343-25.86 8.487 0 15.686 7.016 17.275 18.47.16 1.062.16 1.312 1.272 1.312 1.271 0 1.271-.25 1.271-1.875V25.134c0-1.343 0-1.875-.874-1.875-.318 0-.651 0-1.303.922l-3.941 5.766c-2.527-2.5-6.802-6.688-14.653-6.688-14.717 0-27.543 12.297-27.543 28.266 0 15.937 12.667 28.312 27.717 28.312 5.77 0 12.095-2.015 14.796-6.609z"/><path fill="none" stroke="#000" stroke-miterlimit="10.433" stroke-width="2" d="M323.05 25.245l28.879 56.833 25.866-56.806"/><path fill="#729fcf" fill-rule="evenodd" stroke="#3465a4" stroke-linecap="round" stroke-linejoin="round" stroke-width=".645" d="M494.36-467.506h25.694v28.816H494.36z" opacity=".4" transform="matrix(.73445 -.67866 0 -1 -42.735 -68.85)"/><path fill="#729fcf" fill-rule="evenodd" stroke="#3465a4" stroke-linecap="round" stroke-linejoin="round" stroke-width=".645" d="M-577.681 260.045h25.694v28.816h-25.694z" opacity=".4" transform="matrix(-.73445 -.67866 0 -1 -42.735 -68.85)"/></svg>