<svg xmlns="http://www.w3.org/2000/svg" viewBox="0 8.84000015258789 210.3300018310547 46.36000061035156" data-asc="0.9052734375"><g fill="#000000"><g fill="#000000" transform="translate(0, 0)"><path d="M0 27.83Q0 18.92 4.79 13.88Q9.57 8.84 17.14 8.84Q22.09 8.84 26.07 11.21Q30.05 13.57 32.14 17.81Q34.23 22.05 34.23 27.42Q34.23 32.86 32.03 37.16Q29.83 41.46 25.81 43.66Q21.78 45.87 17.11 45.87Q12.06 45.87 8.08 43.43Q4.10 40.99 2.05 36.77Q0 32.54 0 27.83M4.88 27.91Q4.88 34.38 8.36 38.10Q11.84 41.82 17.09 41.82Q22.44 41.82 25.89 38.06Q29.35 34.30 29.35 27.39Q29.35 23.02 27.87 19.76Q26.39 16.50 23.55 14.71Q20.70 12.92 17.16 12.92Q12.13 12.92 8.51 16.37Q4.88 19.82 4.88 27.91ZM39.77 55.20L39.77 19.34L43.77 19.34L43.77 22.71Q45.19 20.73 46.97 19.74Q48.75 18.75 51.29 18.75Q54.61 18.75 57.15 20.46Q59.69 22.17 60.99 25.28Q62.28 28.39 62.28 32.10Q62.28 36.08 60.85 39.27Q59.42 42.46 56.70 44.15Q53.98 45.85 50.98 45.85Q48.78 45.85 47.03 44.92Q45.29 43.99 44.17 42.58L44.17 55.20L39.77 55.20M43.75 32.45Q43.75 37.45 45.78 39.84Q47.80 42.24 50.68 42.24Q53.61 42.24 55.70 39.76Q57.79 37.28 57.79 32.08Q57.79 27.12 55.75 24.66Q53.71 22.19 50.88 22.19Q48.07 22.19 45.91 24.82Q43.75 27.44 43.75 32.45ZM85.33 36.91L89.87 37.48Q88.79 41.46 85.89 43.65Q82.98 45.85 78.47 45.85Q72.78 45.85 69.45 42.35Q66.11 38.84 66.11 32.52Q66.11 25.98 69.48 22.36Q72.85 18.75 78.22 18.75Q83.42 18.75 86.72 22.29Q90.01 25.83 90.01 32.25Q90.01 32.64 89.99 33.42L70.65 33.42Q70.90 37.70 73.07 39.97Q75.24 42.24 78.49 42.24Q80.91 42.24 82.62 40.97Q84.33 39.70 85.33 36.91M70.90 29.81L85.38 29.81Q85.08 26.54 83.72 24.90Q81.62 22.36 78.27 22.36Q75.24 22.36 73.18 24.39Q71.12 26.42 70.90 29.81ZM95.39 45.26L95.39 19.34L99.34 19.34L99.34 23.02Q102.20 18.75 107.59 18.75Q109.94 18.75 111.90 19.59Q113.87 20.43 114.84 21.80Q115.82 23.17 116.21 25.05Q116.46 26.27 116.46 29.32L116.46 45.26L112.06 45.26L112.06 29.49Q112.06 26.81 111.55 25.48Q111.04 24.15 109.73 23.35Q108.42 22.56 106.67 22.56Q103.86 22.56 101.82 24.34Q99.78 26.12 99.78 31.10L99.78 45.26L95.39 45.26ZM121.34 35.11L125.61 34.52Q125.78 38.62 127.15 40.14Q128.52 41.65 130.93 41.65Q132.71 41.65 134.01 40.83Q135.30 40.01 135.79 38.61Q136.28 37.21 136.28 34.13L136.28 9.47L141.02 9.47L141.02 33.86Q141.02 38.35 139.93 40.82Q138.84 43.29 136.49 44.58Q134.13 45.87 130.96 45.87Q126.25 45.87 123.74 43.16Q121.24 40.45 121.34 35.11ZM148.75 45.26L148.75 9.47L162.26 9.47Q165.82 9.47 167.70 9.81Q170.34 10.25 172.12 11.49Q173.90 12.72 174.99 14.94Q176.07 17.16 176.07 19.82Q176.07 24.39 173.17 27.55Q170.26 30.71 162.67 30.71L153.49 30.71L153.49 45.26L148.75 45.26M153.49 26.49L162.74 26.49Q167.33 26.49 169.26 24.78Q171.19 23.07 171.19 19.97Q171.19 17.72 170.06 16.13Q168.92 14.53 167.07 14.01Q165.87 13.70 162.65 13.70L153.49 13.70L153.49 26.49ZM182.25 45.26L182.25 9.47L186.99 9.47L186.99 24.17L205.59 24.17L205.59 9.47L210.33 9.47L210.33 45.26L205.59 45.26L205.59 28.39L186.99 28.39L186.99 45.26L182.25 45.26Z"/></g></g></svg>