<?xml version="1.0" standalone="no"?>
<!DOCTYPE svg PUBLIC "-//W3C//DTD SVG 20010904//EN"
 "http://www.w3.org/TR/2001/REC-SVG-20010904/DTD/svg10.dtd">
<svg version="1.0" xmlns="http://www.w3.org/2000/svg"
 width="300.000000pt" height="54.000000pt" viewBox="0 0 300.000000 54.000000"
 preserveAspectRatio="xMidYMid meet">
<metadata>
Created by potrace 1.10, written by Peter Selinger 2001-2011
</metadata>
<g transform="translate(0.000000,54.000000) scale(0.100000,-0.100000)"
fill="#000000" stroke="none">
<path d="M227 510 c-16 -5 -48 -27 -72 -49 -25 -23 -51 -41 -59 -41 -9 0 -20
-9 -26 -20 -9 -17 -8 -20 7 -20 16 0 18 -10 16 -107 -1 -60 -6 -121 -12 -136
-8 -20 -8 -34 0 -49 11 -20 12 -20 25 10 9 23 20 32 37 32 13 0 27 3 30 7 10
9 -23 43 -41 43 -19 0 -11 84 14 132 30 60 74 97 74 63 0 -8 5 -15 10 -15 6 0
10 10 10 23 0 35 19 47 77 47 62 0 67 12 19 52 -38 32 -71 40 -109 28z m82
-33 c14 -18 4 -27 -29 -27 -15 0 -35 -9 -45 -20 -10 -11 -24 -20 -31 -20 -12
0 -59 -50 -80 -86 -10 -16 -11 -11 -10 29 2 44 6 50 55 92 42 36 60 45 91 45
20 0 43 -6 49 -13z"/>
<path d="M1645 483 c-19 -4 -20 -10 -15 -186 l5 -182 29 -3 c40 -5 49 9 31 46
-13 25 -15 61 -13 182 2 96 -1 150 -7 149 -5 -1 -19 -4 -30 -6z m16 -153 c0
-73 5 -144 10 -158 11 -28 -3 -53 -17 -31 -8 14 -15 309 -7 322 11 19 14 -7
14 -133z"/>
<path d="M1340 295 l0 -185 30 0 30 0 0 85 0 85 65 0 c63 0 65 1 65 25 0 24
-2 25 -65 25 l-65 0 0 45 0 45 90 0 90 0 0 30 0 30 -120 0 -120 0 0 -185z
m210 155 c0 -5 -32 -8 -71 -9 -39 0 -78 -6 -85 -12 -19 -15 -18 -69 2 -97 14
-21 14 -25 0 -47 -10 -15 -16 -46 -16 -84 0 -33 -4 -63 -10 -66 -11 -7 -12 -2
-12 45 0 17 1 86 1 154 l1 125 95 -1 c52 0 95 -4 95 -8z"/>
<path d="M1781 466 c-26 -31 14 -71 45 -45 21 17 14 53 -12 57 -11 2 -26 -4
-33 -12z m34 -16 c3 -5 2 -10 -4 -10 -5 0 -13 5 -16 10 -3 6 -2 10 4 10 5 0
13 -4 16 -10z"/>
<path d="M344 412 l-31 -3 18 -37 c21 -41 24 -80 9 -133 -13 -45 -38 -68 -81
-75 -47 -8 -78 19 -94 81 l-12 50 -8 -44 c-6 -39 -5 -46 18 -65 14 -11 27 -32
29 -46 3 -24 6 -25 63 -25 66 0 100 18 130 68 31 52 32 183 2 218 -7 8 -25 13
-43 11z m42 -58 c10 -56 -2 -140 -25 -173 -27 -38 -129 -71 -138 -45 -2 6 12
10 33 10 31 0 43 7 71 40 34 39 35 40 31 122 -2 59 0 82 9 82 7 0 15 -16 19
-36z"/>
<path d="M460 195 l0 -185 30 0 c30 0 30 1 30 54 l0 54 38 -5 c92 -12 147 47
140 150 -4 52 -9 64 -36 88 -25 23 -42 29 -77 29 -24 0 -47 -4 -50 -10 -3 -5
-11 -10 -16 -10 -6 0 -7 5 -4 10 4 6 -7 10 -24 10 l-31 0 0 -185z m50 155 c12
-7 12 -12 2 -22 -17 -17 -15 -148 2 -170 7 -10 19 -18 27 -19 8 -1 3 -4 -11
-8 -22 -6 -25 -13 -28 -54 -2 -26 -7 -47 -13 -47 -5 0 -9 68 -9 165 0 91 3
165 8 165 4 0 14 -5 22 -10z m141 -17 c19 -22 26 -41 28 -86 3 -53 1 -59 -29
-87 -18 -17 -39 -30 -47 -30 -10 0 -4 10 15 28 71 66 45 182 -43 195 -25 3
-23 4 11 6 32 1 45 -4 65 -26z m-31 -23 c27 -27 27 -89 -1 -124 -17 -22 -28
-27 -58 -24 l-36 3 -3 69 c-2 38 -1 75 2 83 8 21 73 16 96 -7z"/>
<path d="M799 363 c-40 -25 -59 -64 -59 -126 0 -90 53 -134 151 -125 61 6 75
18 59 48 -9 16 -15 19 -23 11 -19 -19 -85 -13 -107 9 -41 41 -28 50 75 50 l95
0 0 41 c0 33 -6 47 -34 75 -29 29 -40 34 -82 34 -27 0 -61 -8 -75 -17z m140
-29 c39 -32 44 -84 9 -84 -17 0 -19 3 -10 12 35 35 -14 91 -75 87 -53 -5 -97
-63 -62 -84 7 -5 5 -13 -6 -25 -22 -24 -13 -52 26 -85 19 -15 25 -25 16 -25
-9 0 -29 12 -46 26 -28 23 -31 31 -31 86 0 53 3 63 29 89 40 40 105 41 150 3z
m-19 -23 c19 -36 12 -41 -55 -41 -69 0 -78 7 -45 40 27 27 85 27 100 1z m-27
-178 c-7 -2 -19 -2 -25 0 -7 3 -2 5 12 5 14 0 19 -2 13 -5z"/>
<path d="M1040 245 l0 -135 30 0 30 0 0 98 c0 108 6 122 55 122 49 0 55 -14
55 -122 l0 -98 30 0 30 0 0 104 c0 98 -2 106 -26 135 -22 27 -32 31 -74 31
-31 0 -52 -5 -61 -16 -11 -14 -13 -14 -21 0 -5 9 -18 16 -28 16 -19 0 -20 -8
-20 -135z m51 72 c-6 -6 -11 -45 -11 -93 0 -46 -4 -86 -10 -89 -11 -7 -15 207
-4 218 4 3 13 -1 22 -9 11 -11 12 -18 3 -27z m140 21 c16 -17 19 -37 19 -109
0 -48 -4 -91 -10 -94 -6 -4 -10 24 -10 78 0 98 -18 133 -73 140 -27 3 -25 4
12 5 34 2 48 -3 62 -20z"/>
<path d="M1740 355 c0 -19 5 -25 21 -25 19 0 20 -5 17 -110 l-3 -110 31 0 32
0 1 135 1 135 -50 0 c-47 0 -50 -2 -50 -25z m78 -82 c1 -99 -3 -133 -19 -133
-6 0 -10 31 -9 83 2 108 2 103 -16 121 -14 15 -13 16 13 16 l29 0 2 -87z"/>
<path d="M1900 195 l0 -185 30 0 c30 0 30 1 30 54 l0 53 48 -4 c84 -7 133 39
134 126 0 66 -17 108 -53 126 -34 18 -100 20 -117 3 -9 -9 -12 -9 -12 0 0 7
-13 12 -30 12 l-30 0 0 -185z m62 155 c6 0 4 -8 -5 -18 -21 -23 -23 -148 -3
-174 19 -26 79 -23 111 5 54 46 40 159 -23 184 l-27 11 26 1 c46 2 72 -29 79
-93 3 -31 2 -56 -2 -56 -4 0 -7 -3 -6 -7 5 -19 -15 -51 -38 -61 -14 -7 -44
-12 -67 -12 -41 0 -70 -10 -68 -24 4 -31 -1 -76 -9 -76 -6 0 -10 62 -10 166 0
147 2 165 16 160 9 -3 20 -6 26 -6z m102 -42 c9 -12 16 -42 16 -65 0 -57 -27
-85 -78 -81 l-37 3 -3 74 c-3 82 2 91 55 91 22 0 37 -7 47 -22z"/>
<path d="M2190 195 l0 -185 30 0 c30 0 30 1 30 54 l0 53 48 -4 c83 -7 134 40
135 124 1 95 -39 143 -121 143 -21 0 -43 -5 -50 -12 -9 -9 -12 -9 -12 0 0 7
-13 12 -30 12 l-30 0 0 -185z m56 154 c3 -6 1 -16 -5 -22 -6 -6 -11 -41 -11
-78 0 -53 4 -72 22 -95 12 -16 18 -26 14 -22 -17 14 -36 -22 -36 -67 0 -27 -4
-44 -9 -40 -6 3 -10 78 -10 170 -1 137 2 165 13 165 8 0 18 -5 22 -11z m61 5
c-3 -3 -12 -4 -19 -1 -8 3 -5 6 6 6 11 1 17 -2 13 -5z m73 -13 c21 -17 25 -29
28 -88 3 -61 2 -70 -20 -90 -13 -13 -39 -25 -58 -28 -23 -3 -27 -2 -13 3 12 4
33 17 47 29 22 19 26 31 26 76 0 54 -8 69 -55 102 -20 14 -20 14 0 14 11 1 31
-8 45 -18z m-26 -30 c11 -13 18 -37 19 -67 0 -59 -27 -87 -82 -82 l-36 3 -3
74 c-2 53 1 77 10 82 24 15 74 10 92 -10z"/>
<path d="M2532 360 c-83 -51 -81 -195 3 -234 39 -19 104 -21 139 -5 21 10 23
15 14 35 -9 18 -15 21 -29 14 -36 -20 -86 -12 -108 16 -12 15 -21 31 -21 35 0
5 45 9 100 9 l100 0 0 25 c0 101 -109 159 -198 105z m27 -23 c-32 -28 -43 -55
-28 -74 9 -10 9 -17 1 -25 -7 -7 -12 -18 -12 -26 0 -23 41 -74 56 -68 7 3 16
1 19 -4 4 -6 -1 -10 -9 -10 -100 0 -131 153 -44 214 34 24 47 18 17 -7z m123
-4 c19 -17 33 -67 23 -82 -10 -18 -36 0 -30 20 10 31 -5 60 -38 75 l-32 15 30
-6 c17 -4 38 -13 47 -22z m-26 -28 c9 -14 14 -28 12 -31 -3 -3 -36 -4 -73 -2
l-67 3 22 28 c29 37 82 38 106 2z m-1 -165 c-3 -5 -16 -10 -28 -9 -20 1 -20 2
3 9 14 4 26 8 28 9 2 1 0 -3 -3 -9z"/>
<path d="M2770 245 l0 -135 30 0 30 0 0 74 c0 91 14 134 46 142 13 3 30 4 38
1 11 -4 36 29 36 48 0 10 -72 5 -93 -6 -16 -9 -22 -9 -25 0 -2 6 -17 11 -33
11 l-29 0 0 -135z m59 103 c17 -10 17 -14 5 -33 -17 -26 -22 -55 -23 -124 -1
-30 -4 -51 -8 -47 -11 11 -12 216 -1 216 4 0 17 -5 27 -12z"/>
</g>
</svg>
