<svg xmlns="http://www.w3.org/2000/svg" role="img" viewBox="0.20 4.20 1705.60 355.60"><path d="M222.55 87.1c-26.62 0-50 9.57-68.1 26.62l-40.18-27.24a64.65 64.65 0 0 1-6.74 7.28 173.21 173.21 0 0 1-13.78 10.95c-.9 1.25-3.12 2.45-4.24 3.45-1.52 1.34-2.84 2.87-4.29 4.26-.68 1-1.36 2.06-2 3.09a34.39 34.39 0 0 1 3.31 3.08l.76-.59 43.94 29.81c-4.29 11.67-7.48 24.44-7.48 38.29s2.1 26.62 7.48 38.29l-31.75 27a34.47 34.47 0 0 1-5.13 5.93c.33 1.46.62 2.94 1.07 4.37.19.32.39.64.6 1a13.3 13.3 0 0 1 2.28 3.56c.44.48.88 1 1.34 1.43 1.3 1.31 2.67 2.5 4 3.69.85.59 1.69 1.19 2.55 1.76a37.65 37.65 0 0 1 8.93 8.2 32.44 32.44 0 0 1 6.54 5l32.77-28c18.05 15.95 41.48 26.62 68.1 26.62 54.24 0 98.91-44.67 98.91-98.92S276.79 87.1 222.55 87.1zM879.2 268.45l-12.09-30.53h-60.18l-11.42 30.53h-40.86l65.24-155.51h36.46l64.58 155.51zm-41.74-114l-19.77 53.37h39.1zm178.54-1.09a34.1 34.1 0 0 0-12.63-9.78 35.75 35.75 0 0 0-15-3.62 44.72 44.72 0 0 0-7.58.66 19.68 19.68 0 0 0-6.92 2.52 17.23 17.23 0 0 0-5.17 4.86 12.9 12.9 0 0 0-2.09 7.58 12.18 12.18 0 0 0 1.65 6.59 14.71 14.71 0 0 0 4.83 4.62 43.63 43.63 0 0 0 7.58 3.62q4.4 1.65 9.89 3.4 7.91 2.64 16.47 5.83a61.74 61.74 0 0 1 15.6 8.45 44.72 44.72 0 0 1 11.64 13.07q4.61 7.8 4.61 19.44 0 13.4-4.94 23.17a46.34 46.34 0 0 1-13.29 16.15 57 57 0 0 1-19.11 9.44 80.4 80.4 0 0 1-22.19 3.08 91.54 91.54 0 0 1-32.28-5.82A68.32 68.32 0 0 1 921.15 250l24.6-25a45.23 45.23 0 0 0 15 11.75 40.72 40.72 0 0 0 18.56 4.73 37.09 37.09 0 0 0 8.13-.88 20.12 20.12 0 0 0 6.92-2.86 14.24 14.24 0 0 0 4.72-5.27 16.62 16.62 0 0 0 1.76-7.91 12.47 12.47 0 0 0-2.2-7.46 21.49 21.49 0 0 0-6.26-5.61 51.32 51.32 0 0 0-10.1-4.61q-6-2.09-13.73-4.5a130.39 130.39 0 0 1-14.55-5.75 49.11 49.11 0 0 1-12.74-8.46 39.15 39.15 0 0 1-9-12.52q-3.4-7.35-3.41-17.9 0-13 5.28-22.19a45.71 45.71 0 0 1 13.83-15.15 59.78 59.78 0 0 1 19.33-8.68A87.67 87.67 0 0 1 989 109a80.85 80.85 0 0 1 26.91 4.83A69.29 69.29 0 0 1 1040 128.1zm129.85 0a34.1 34.1 0 0 0-12.63-9.78 35.75 35.75 0 0 0-15-3.62 44.72 44.72 0 0 0-7.58.66 19.68 19.68 0 0 0-6.92 2.52 17.23 17.23 0 0 0-5.16 4.83 12.9 12.9 0 0 0-2.08 7.58 12.18 12.18 0 0 0 1.64 6.59 14.71 14.71 0 0 0 4.83 4.62 44 44 0 0 0 7.58 3.62q4.39 1.65 9.89 3.4 7.91 2.64 16.47 5.83a61.74 61.74 0 0 1 15.6 8.45 44.72 44.72 0 0 1 11.64 13.07q4.61 7.8 4.61 19.44 0 13.4-4.94 23.17a46.34 46.34 0 0 1-13.29 16.15 57 57 0 0 1-19.11 9.44 80.38 80.38 0 0 1-22.18 3.08 91.59 91.59 0 0 1-32.29-5.82A68.32 68.32 0 0 1 1051 250l24.6-25a45.27 45.27 0 0 0 15 11.75 40.69 40.69 0 0 0 18.56 4.73 37.07 37.07 0 0 0 8.12-.88 20.12 20.12 0 0 0 6.92-2.86 14.24 14.24 0 0 0 4.72-5.27 16.62 16.62 0 0 0 1.76-7.91 12.47 12.47 0 0 0-2.2-7.46 21.49 21.49 0 0 0-6.26-5.61 51.06 51.06 0 0 0-10.1-4.61q-6-2.09-13.73-4.5a129.49 129.49 0 0 1-14.6-5.71 48.94 48.94 0 0 1-12.74-8.46 39 39 0 0 1-9-12.52q-3.4-7.35-3.4-17.9 0-13 5.27-22.19a45.63 45.63 0 0 1 13.84-15.15 59.73 59.73 0 0 1 19.32-8.68 87.73 87.73 0 0 1 21.75-2.74 80.8 80.8 0 0 1 26.91 4.83 69.29 69.29 0 0 1 24 14.28zm47.66 115.09V112.94h104.55v31.63h-68.31V174h64.58v30.1h-64.58v32.28H1302v32.07zM1393.39 145v123.45h-37.56V145h-43.93v-32.06h125.42V145zm85.66 123.45h-21.74V112.94h21.74zm194.61-77.97a85.11 85.11 0 0 1-6.26 33.06 76.6 76.6 0 0 1-43.4 42.83 88.33 88.33 0 0 1-33 6 87.4 87.4 0 0 1-32.83-6 77.59 77.59 0 0 1-26-16.92 76.78 76.78 0 0 1-17.14-25.91 86.57 86.57 0 0 1-6.15-33.06 87.15 87.15 0 0 1 6.15-33.28 74.64 74.64 0 0 1 17.14-25.7 77.85 77.85 0 0 1 26-16.58 88.57 88.57 0 0 1 32.83-5.93 89.51 89.51 0 0 1 33 5.93 77.74 77.74 0 0 1 26.14 16.58 76 76 0 0 1 17.24 25.7 85.68 85.68 0 0 1 6.28 33.28zm-23.5 0a69 69 0 0 0-4.17-24 61.18 61.18 0 0 0-11.87-19.88 55.32 55.32 0 0 0-18.56-13.6 62.63 62.63 0 0 0-48.76 0 54.2 54.2 0 0 0-18.45 13.51 62.14 62.14 0 0 0-11.75 19.88 69 69 0 0 0-4.17 24 70.51 70.51 0 0 0 4.17 24.38 59.46 59.46 0 0 0 11.86 19.88 55.1 55.1 0 0 0 18.45 13.35 58.4 58.4 0 0 0 24.16 4.83 59.92 59.92 0 0 0 24.38-4.83 54.42 54.42 0 0 0 18.67-13.29 59.64 59.64 0 0 0 11.88-19.85 70.51 70.51 0 0 0 4.16-24.38z"/><circle cx="82.34" cy="86.48" r="49"/><path fill="#fff" d="M298.38 187.46a78.55 78.55 0 0 1-5.7 30.28A70.32 70.32 0 0 1 253 257a80.91 80.91 0 0 1-30.17 5.59 80 80 0 0 1-30.06-5.59A70.34 70.34 0 0 1 169 241.43a68.87 68.87 0 0 1-15.64-23.69 78.13 78.13 0 0 1-5.59-30.28 81.38 81.38 0 0 1 5.56-30.46A70 70 0 0 1 169 133.37a73.1 73.1 0 0 1 23.8-15.2 82.16 82.16 0 0 1 30.07-5.48 80.87 80.87 0 0 1 30.13 5.48 70.68 70.68 0 0 1 23.92 15.2A68.29 68.29 0 0 1 292.68 157a81.82 81.82 0 0 1 5.7 30.46zm-21.57 0a62.46 62.46 0 0 0-3.8-22 56.16 56.16 0 0 0-10.84-18.21 50.88 50.88 0 0 0-17-12.41 58.11 58.11 0 0 0-44.7 0 49.31 49.31 0 0 0-16.88 12.41 56.07 56.07 0 0 0-10.73 18.21 62.94 62.94 0 0 0-3.8 22 64.35 64.35 0 0 0 3.8 22.35A55.19 55.19 0 0 0 183.72 228a50 50 0 0 0 16.88 12.19 57.56 57.56 0 0 0 44.48 0A49.8 49.8 0 0 0 262.17 228 53.93 53.93 0 0 0 273 209.81a63.91 63.91 0 0 0 3.81-22.35z"/><circle cx="87.58" cy="278.21" r="49"/><path d="M341.32 113.25h46.85a95.14 95.14 0 0 1 22.56 2.5 48.92 48.92 0 0 1 17.35 7.7 35.07 35.07 0 0 1 11.06 13.23q3.9 8 3.91 19.3 0 11.51-4.23 19.74a36.28 36.28 0 0 1-11.72 13.45 52.34 52.34 0 0 1-17.78 7.7 94.49 94.49 0 0 1-22.23 2.49h-24.3v67.46h-21.47zm21.47 67.89h22.78a69.22 69.22 0 0 0 14.43-1.41 35.78 35.78 0 0 0 11.39-4.34 20.24 20.24 0 0 0 7.37-7.7 24.11 24.11 0 0 0 2.6-11.69 22.76 22.76 0 0 0-2.72-11.6 21.76 21.76 0 0 0-7.37-7.59 31.43 31.43 0 0 0-11.17-4.13 78.79 78.79 0 0 0-14.1-1.19h-23.21zm129.06 66.59h80.25v19.09H470.37V113.25h98.48v18.87h-77v46h72.44v18.43h-72.44zM709 236h.44V113.25h21.47v153.57h-27.15l-81.12-125.37h-.44v125.37h-21.47V113.25h28z"/></svg>