<?xml version="1.0" encoding="UTF-8" standalone="no"?>
<!-- Created with Inkscape (http://www.inkscape.org/) -->

<svg
   version="1.1"
   id="svg1"
   width="843"
   height="288"
   viewBox="0 0 843 288"
   sodipodi:docname="OpenVpCal_Full_Logo.svg"
   inkscape:version="1.3.2 (091e20e, 2023-11-25)"
   xmlns:inkscape="http://www.inkscape.org/namespaces/inkscape"
   xmlns:sodipodi="http://sodipodi.sourceforge.net/DTD/sodipodi-0.dtd"
   xmlns="http://www.w3.org/2000/svg"
   xmlns:svg="http://www.w3.org/2000/svg">
  <defs
     id="defs1" />
  <sodipodi:namedview
     id="namedview1"
     pagecolor="#ffffff"
     bordercolor="#666666"
     borderopacity="1.0"
     inkscape:showpageshadow="2"
     inkscape:pageopacity="0.0"
     inkscape:pagecheckerboard="0"
     inkscape:deskcolor="#d1d1d1"
     inkscape:zoom="1.0263363"
     inkscape:cx="421.88901"
     inkscape:cy="144.20225"
     inkscape:window-width="1584"
     inkscape:window-height="813"
     inkscape:window-x="0"
     inkscape:window-y="25"
     inkscape:window-maximized="0"
     inkscape:current-layer="g1" />
  <g
     inkscape:groupmode="layer"
     inkscape:label="Image"
     id="g1">
    <g
       id="g8">
      <path
         style="fill:#deb834"
         d="m 270,275.30602 c -3.87876,-1.38623 -3.99958,-2.59769 -4.01407,-40.24715 L 265.97187,198.5 261.89984,206 c -12.61312,23.23127 -36.4265,45.60887 -59.92967,56.31634 -43.53856,19.8351 -92.17899,16.01473 -131.563285,-10.33337 C 60.405777,245.29223 41.844223,226.79924 35.286234,216.99206 25.480307,202.32773 18.102977,185.04508 14.373319,168 c -1.447525,-6.6154 -1.854062,-12.60177 -1.833583,-27 0.02366,-16.63586 0.293145,-19.56247 2.674376,-29.04408 C 20.270827,91.821022 27.024402,77.403475 38.624499,61.979371 82.280959,3.9314242 163.39826,-8.9486695 222,32.862358 c 28.07601,20.031603 46.77146,48.835849 54.16289,83.449232 2.7109,12.69489 2.99583,35.99943 0.58305,47.68841 -0.85146,4.125 -1.43672,7.61841 -1.30057,7.76313 0.13615,0.14472 1.85087,-0.40679 3.81048,-1.22557 16.32884,-6.82262 38.77042,-2.18854 47.88776,9.88861 2.04538,2.70939 4.70747,8.00068 5.91574,11.75841 1.88707,5.8688 2.12516,8.34696 1.68837,17.57383 -0.83335,17.60425 -5.95865,27.00522 -18.09924,33.19817 -5.98191,3.05138 -7.87466,3.50461 -16.14662,3.8664 -6.89375,0.30151 -10.62419,-0.0174 -14.11425,-1.20658 C 283.77847,244.72738 281.27388,244 280.82186,244 280.36984,244 280,250.76114 280,259.02475 v 15.02475 l -2.5651,0.97525 c -2.75776,1.0485 -5.04594,1.13506 -7.4349,0.28127 z m 36.21164,-40.86247 C 316.20831,231.03735 321.3,221.94502 321.3,207.5 c 0,-14.45863 -5.46491,-24.43519 -14.94002,-27.274 -6.28699,-1.88363 -17.12088,-1.51757 -22.10998,0.74707 l -4.25,1.92915 v 24.39701 24.39702 l 3.75,1.58401 c 2.0625,0.87121 4.425,1.80402 5.25,2.07293 3.28029,1.06919 12.89548,0.56103 17.21164,-0.90964 z M 184.05633,163.59846 196.74736,141.69692 183.99091,119.59846 171.23446,97.5 145.3229,97.233798 119.41135,96.967597 106.70567,118.95613 C 99.717553,131.04982 94,141.25379 94,141.63161 c 0,0.37782 5.670579,10.52265 12.60129,22.54407 l 12.60128,21.85713 26.08136,-0.2664 26.08136,-0.26641 z m 577.23516,83.31845 c -15.84285,-2.00728 -24.21884,-9.98026 -24.26953,-23.10181 -0.0262,-6.77956 1.17641,-10.33257 4.79166,-14.15668 5.51484,-5.83345 12.20023,-8.04785 29.18638,-9.66737 17.44491,-1.66326 16.37626,-1.16627 15.65226,-7.27932 -0.71509,-6.03783 -2.93694,-9.49579 -7.72334,-12.02014 -5.12955,-2.70533 -19.28873,-1.91306 -27.61196,1.545 -5.71077,2.37267 -6.29111,2.44264 -7.598,0.91614 -5.76981,-6.73937 1.26501,-12.82391 17.64314,-15.25986 13.46506,-2.00268 25.41584,1.03144 32.46614,8.24265 C 799.20027,181.63016 800,186.37872 800,212.7815 V 236.2 l -3.31504,3.31504 c -5.77988,5.77988 -21.78204,9.12642 -35.39347,7.40187 z M 783.75,233.66823 787,231.94864 v -11.53559 -11.5356 l -4.25,0.54684 c -2.3375,0.30076 -8.47302,1.01989 -13.63449,1.59807 -9.78501,1.0961 -12.12974,1.87459 -15.8502,5.26253 -5.40358,4.92065 -3.30052,14.39581 3.94705,17.7831 3.56303,1.66525 5.89314,1.9461 13.78764,1.66187 6.50509,-0.23421 10.52457,-0.88414 12.75,-2.06163 z m -417.00408,12.2461 c -10.82154,-2.55045 -21.04253,-11.03691 -24.92282,-20.69335 -1.9675,-4.89629 -2.30063,-7.52288 -2.31099,-18.22098 -0.0116,-11.96348 0.12329,-12.7858 3.14259,-19.15863 6.77387,-14.29759 20.75105,-22.06235 36.53422,-20.29588 16.37685,1.83291 28.42355,14.23161 29.57423,30.4384 0.38785,5.46255 0.1612,6.78776 -1.40178,8.19624 -1.36874,1.23343 -8.76958,2.64433 -27.83628,5.30671 -14.28452,1.99462 -26.16129,3.81603 -26.39284,4.04758 -1.09631,1.09631 3.55215,10.14998 6.96218,13.56001 7.87817,7.87817 24.11864,9.22389 36.18905,2.99869 l 6.20953,-3.2025 1.7535,2.16547 c 4.09024,5.05124 -0.0648,10.88082 -9.92627,13.92672 -6.9853,2.15754 -20.44328,2.61218 -27.57432,0.93152 z m 29.23212,-49.36077 c -0.03,-2.80219 -3.26849,-9.56496 -5.88675,-12.29288 -6.70308,-6.98382 -19.46121,-7.69594 -28.33068,-1.58132 -4.33435,2.9881 -8.4387,10.60969 -9.36001,17.3811 l -0.62049,4.56045 22.10995,-3.0069 c 20.67925,-2.81233 22.10852,-3.13978 22.08798,-5.06045 z m 293.12659,48.86392 c -15.66184,-4.2117 -27.17035,-16.30502 -31.53097,-33.13322 -1.84152,-7.10666 -2.08871,-23.716 -0.46858,-31.48504 3.48908,-16.73119 15.28384,-30.01764 30.98588,-34.90466 10.57009,-3.28978 29.56454,-2.24719 37.95517,2.08333 7.34593,3.79135 10.0147,9.8471 5.95767,13.51867 -1.93553,1.75163 -2.18624,1.71115 -8.25,-1.33182 -16.05122,-8.05501 -31.75374,-6.3072 -42.84117,4.76853 -7.37139,7.36361 -9.9787,14.05816 -10.6754,27.41025 -1.33021,25.49308 9.43095,40.54999 30.76277,43.04297 7.65029,0.89407 16.36522,-0.77824 23.87023,-4.58045 l 6.37022,-3.22732 1.87978,2.32143 c 2.82391,3.48738 2.34041,6.48822 -1.60331,9.95085 -5.33732,4.68623 -14.72976,7.16196 -26.87226,7.08319 -5.57956,-0.0362 -12.57258,-0.71872 -15.54003,-1.51671 z M 417.22251,244.4433 c -2.21517,-1.55156 -2.22246,-1.65814 -2.20777,-32.25 0.0107,-22.31733 0.35184,-31.37553 1.25,-33.1933 0.77208,-1.56259 4.04748,-3.9084 8.73526,-6.2561 18.34213,-9.18597 43.27342,-6.26641 51.03779,5.97675 C 480.35087,185.52166 481,190.78324 481,218.94223 481,247.50055 481.36501,246 474.41821,246 c -2.08488,0 -4.19834,-0.78013 -5.41821,-2 -1.89583,-1.89583 -2,-3.33333 -2,-27.59887 0,-28.3575 -0.37388,-30.3914 -6.37329,-34.67082 C 457.9194,179.79916 456.22572,179.5 448,179.5 c -6.81641,0 -10.84179,0.51771 -14.25,1.83271 l -4.75,1.83271 v 30.80066 30.80066 l -2.25,0.60297 c -3.8285,1.026 -7.20938,0.69726 -9.52749,-0.92641 z m 105.18694,0.13288 c -3.52284,-1.53375 -7.24497,-9.23262 -17.05147,-35.26938 C 500.40098,196.14572 485,150.91173 485,149.51368 c 0,-1.43263 6.91093,-4.50663 10.13922,-4.50994 6.63006,-0.007 7.23995,1.1419 18.33296,34.52985 12.92568,38.90398 16.572,48.83648 17.54561,47.79382 1.20332,-1.28865 17.37751,-51.25965 21.46829,-66.32741 2.04594,-7.53589 4.37886,-14.05223 5.28066,-14.75 2.58224,-1.99799 9.5947,-1.54013 12.5984,0.82258 3.50994,2.76092 3.44683,6.68888 -0.3232,20.11517 -4.89507,17.43287 -21.20449,61.36991 -26.99043,72.71128 -1.32047,2.58834 -3.04004,4.24992 -5.16475,4.9906 -4.27245,1.48939 -11.68103,1.33934 -15.47731,-0.31345 z m 59.0451,-1.03073 L 579,241.09091 v -44.87114 -44.87114 l 2.33281,-2.19156 c 3.29478,-3.09529 14.07117,-5.11909 27.36797,-5.13971 22.4842,-0.0349 33.61722,4.989 40.46574,18.26044 3.0092,5.83139 3.67519,18.31499 1.39546,26.15699 -1.31696,4.53018 -2.88192,6.98035 -7.36707,11.53423 -8.28864,8.41564 -13.67579,10.23839 -31.94491,10.80861 L 597,211.22241 v 16.7818 C 597,246.9241 597.41734,246 588.87276,246 c -3.93673,0 -5.47149,-0.50782 -7.41821,-2.45455 z m 41.36909,-49.11623 C 630.43525,191.24889 634,185.66847 634,176.93325 c 0,-6.71026 -2.37088,-11.4881 -7.33045,-14.77249 C 622.85371,159.63379 622.01932,159.5 610.07584,159.5 H 597.5 l -0.27262,18.90172 -0.27263,18.90171 11.10992,-0.67477 c 6.13693,-0.37273 12.74329,-1.35723 14.75897,-2.19944 z M 814,244 c -1.9481,-1.9481 -2,-3.33333 -2,-53.38337 v -51.38337 l 2.25,-0.60297 c 4.21539,-1.12968 7.7467,-0.63359 9.75,1.36971 1.94811,1.94811 2,3.33333 2,53.39301 C 826,250.30708 826.53887,246 819.41821,246 817.33333,246 815.21987,245.21987 814,244 Z"
         id="path14" />
      <path
         style="fill:#78b03e"
         d="m 270,275.30602 c -3.87876,-1.38623 -3.99958,-2.59769 -4.01407,-40.24715 L 265.97187,198.5 261.89984,206 c -12.61312,23.23127 -36.4265,45.60887 -59.92967,56.31634 -43.53856,19.8351 -92.17899,16.01473 -131.563285,-10.33337 C 60.405777,245.29223 41.844223,226.79924 35.286234,216.99206 25.480307,202.32773 18.102977,185.04508 14.373319,168 c -1.447525,-6.6154 -1.854062,-12.60177 -1.833583,-27 0.02366,-16.63586 0.293145,-19.56247 2.674376,-29.04408 C 20.270827,91.821022 27.024402,77.403475 38.624499,61.979371 82.280959,3.9314242 163.39826,-8.9486695 222,32.862358 c 28.07601,20.031603 46.77146,48.835849 54.16289,83.449232 2.7109,12.69489 2.99583,35.99943 0.58305,47.68841 -0.85146,4.125 -1.43672,7.61841 -1.30057,7.76313 0.13615,0.14472 1.85087,-0.40679 3.81048,-1.22557 16.32884,-6.82262 38.77042,-2.18854 47.88776,9.88861 2.04538,2.70939 4.70747,8.00068 5.91574,11.75841 1.88707,5.8688 2.12516,8.34696 1.68837,17.57383 -0.83335,17.60425 -5.95865,27.00522 -18.09924,33.19817 -5.98191,3.05138 -7.87466,3.50461 -16.14662,3.8664 -6.89375,0.30151 -10.62419,-0.0174 -14.11425,-1.20658 C 283.77847,244.72738 281.27388,244 280.82186,244 280.36984,244 280,250.76114 280,259.02475 v 15.02475 l -2.5651,0.97525 c -2.75776,1.0485 -5.04594,1.13506 -7.4349,0.28127 z m 36.21164,-40.86247 C 316.20831,231.03735 321.3,221.94502 321.3,207.5 c 0,-14.45863 -5.46491,-24.43519 -14.94002,-27.274 -6.28699,-1.88363 -17.12088,-1.51757 -22.10998,0.74707 l -4.25,1.92915 v 24.39701 24.39702 l 3.75,1.58401 c 2.0625,0.87121 4.425,1.80402 5.25,2.07293 3.28029,1.06919 12.89548,0.56103 17.21164,-0.90964 z M 105.94608,185.25 C 105.81161,183.37958 43.386887,76.706283 42.5,76.83138 c -1.86133,0.262545 -9.3732,15.518096 -12.964466,26.32901 -8.198819,24.68118 -8.525674,49.2448 -0.982484,73.83505 L 31.315245,186 h 37.342378 c 20.538307,0 37.318117,-0.3375 37.288457,-0.75 z M 184.05633,163.59846 196.74736,141.69692 183.99091,119.59846 171.23446,97.5 145.3229,97.233798 119.41135,96.967597 106.70567,118.95613 C 99.717553,131.04982 94,141.25379 94,141.63161 c 0,0.37782 5.670579,10.52265 12.60129,22.54407 l 12.60128,21.85713 26.08136,-0.2664 L 171.36529,185.5 Z M 119.64621,74.778481 c 17.20316,-29.802919 31.07881,-54.386797 30.83476,-54.63084 -0.98672,-0.986728 -19.97257,-0.01248 -27.46892,1.409558 -24.060184,4.564139 -45.108211,15.69909 -63.374836,33.526929 -9.350832,9.126215 -9.797658,9.750189 -8.6081,12.020871 5.558605,10.610517 36.344998,62.854221 36.781676,62.417541 0.306315,-0.30631 14.63225,-24.94114 31.83542,-54.744059 z M 761.29149,246.91691 c -15.84285,-2.00728 -24.21884,-9.98026 -24.26953,-23.10181 -0.0262,-6.77956 1.17641,-10.33257 4.79166,-14.15668 5.51484,-5.83345 12.20023,-8.04785 29.18638,-9.66737 17.44491,-1.66326 16.37626,-1.16627 15.65226,-7.27932 -0.71509,-6.03783 -2.93694,-9.49579 -7.72334,-12.02014 -5.12955,-2.70533 -19.28873,-1.91306 -27.61196,1.545 -5.71077,2.37267 -6.29111,2.44264 -7.598,0.91614 -5.76981,-6.73937 1.26501,-12.82391 17.64314,-15.25986 13.46506,-2.00268 25.41584,1.03144 32.46614,8.24265 C 799.20027,181.63016 800,186.37872 800,212.7815 V 236.2 l -3.31504,3.31504 c -5.77988,5.77988 -21.78204,9.12642 -35.39347,7.40187 z M 783.75,233.66823 787,231.94864 v -11.53559 -11.5356 l -4.25,0.54684 c -2.3375,0.30076 -8.47302,1.01989 -13.63449,1.59807 -9.78501,1.0961 -12.12974,1.87459 -15.8502,5.26253 -5.40358,4.92065 -3.30052,14.39581 3.94705,17.7831 3.56303,1.66525 5.89314,1.9461 13.78764,1.66187 6.50509,-0.23421 10.52457,-0.88414 12.75,-2.06163 z m -417.00408,12.2461 c -10.82154,-2.55045 -21.04253,-11.03691 -24.92282,-20.69335 -1.9675,-4.89629 -2.30063,-7.52288 -2.31099,-18.22098 -0.0116,-11.96348 0.12329,-12.7858 3.14259,-19.15863 6.77387,-14.29759 20.75105,-22.06235 36.53422,-20.29588 16.37685,1.83291 28.42355,14.23161 29.57423,30.4384 0.38785,5.46255 0.1612,6.78776 -1.40178,8.19624 -1.36874,1.23343 -8.76958,2.64433 -27.83628,5.30671 -14.28452,1.99462 -26.16129,3.81603 -26.39284,4.04758 -1.09631,1.09631 3.55215,10.14998 6.96218,13.56001 7.87817,7.87817 24.11864,9.22389 36.18905,2.99869 l 6.20953,-3.2025 1.7535,2.16547 c 4.09024,5.05124 -0.0648,10.88082 -9.92627,13.92672 -6.9853,2.15754 -20.44328,2.61218 -27.57432,0.93152 z m 29.23212,-49.36077 c -0.03,-2.80219 -3.26849,-9.56496 -5.88675,-12.29288 -6.70308,-6.98382 -19.46121,-7.69594 -28.33068,-1.58132 -4.33435,2.9881 -8.4387,10.60969 -9.36001,17.3811 l -0.62049,4.56045 22.10995,-3.0069 c 20.67925,-2.81233 22.10852,-3.13978 22.08798,-5.06045 z m 293.12659,48.86392 c -15.66184,-4.2117 -27.17035,-16.30502 -31.53097,-33.13322 -1.84152,-7.10666 -2.08871,-23.716 -0.46858,-31.48504 3.48908,-16.73119 15.28384,-30.01764 30.98588,-34.90466 10.57009,-3.28978 29.56454,-2.24719 37.95517,2.08333 7.34593,3.79135 10.0147,9.8471 5.95767,13.51867 -1.93553,1.75163 -2.18624,1.71115 -8.25,-1.33182 -16.05122,-8.05501 -31.75374,-6.3072 -42.84117,4.76853 -7.37139,7.36361 -9.9787,14.05816 -10.6754,27.41025 -1.33021,25.49308 9.43095,40.54999 30.76277,43.04297 7.65029,0.89407 16.36522,-0.77824 23.87023,-4.58045 l 6.37022,-3.22732 1.87978,2.32143 c 2.82391,3.48738 2.34041,6.48822 -1.60331,9.95085 -5.33732,4.68623 -14.72976,7.16196 -26.87226,7.08319 -5.57956,-0.0362 -12.57258,-0.71872 -15.54003,-1.51671 z M 417.22251,244.4433 c -2.21517,-1.55156 -2.22246,-1.65814 -2.20777,-32.25 0.0107,-22.31733 0.35184,-31.37553 1.25,-33.1933 0.77208,-1.56259 4.04748,-3.9084 8.73526,-6.2561 18.34213,-9.18597 43.27342,-6.26641 51.03779,5.97675 C 480.35087,185.52166 481,190.78324 481,218.94223 481,247.50055 481.36501,246 474.41821,246 c -2.08488,0 -4.19834,-0.78013 -5.41821,-2 -1.89583,-1.89583 -2,-3.33333 -2,-27.59887 0,-28.3575 -0.37388,-30.3914 -6.37329,-34.67082 C 457.9194,179.79916 456.22572,179.5 448,179.5 c -6.81641,0 -10.84179,0.51771 -14.25,1.83271 l -4.75,1.83271 v 30.80066 30.80066 l -2.25,0.60297 c -3.8285,1.026 -7.20938,0.69726 -9.52749,-0.92641 z m 105.18694,0.13288 c -3.52284,-1.53375 -7.24497,-9.23262 -17.05147,-35.26938 C 500.40098,196.14572 485,150.91173 485,149.51368 c 0,-1.43263 6.91093,-4.50663 10.13922,-4.50994 6.63006,-0.007 7.23995,1.1419 18.33296,34.52985 12.92568,38.90398 16.572,48.83648 17.54561,47.79382 1.20332,-1.28865 17.37751,-51.25965 21.46829,-66.32741 2.04594,-7.53589 4.37886,-14.05223 5.28066,-14.75 2.58224,-1.99799 9.5947,-1.54013 12.5984,0.82258 3.50994,2.76092 3.44683,6.68888 -0.3232,20.11517 -4.89507,17.43287 -21.20449,61.36991 -26.99043,72.71128 -1.32047,2.58834 -3.04004,4.24992 -5.16475,4.9906 -4.27245,1.48939 -11.68103,1.33934 -15.47731,-0.31345 z m 59.0451,-1.03073 L 579,241.09091 v -44.87114 -44.87114 l 2.33281,-2.19156 c 3.29478,-3.09529 14.07117,-5.11909 27.36797,-5.13971 22.4842,-0.0349 33.61722,4.989 40.46574,18.26044 3.0092,5.83139 3.67519,18.31499 1.39546,26.15699 -1.31696,4.53018 -2.88192,6.98035 -7.36707,11.53423 -8.28864,8.41564 -13.67579,10.23839 -31.94491,10.80861 L 597,211.22241 v 16.7818 C 597,246.9241 597.41734,246 588.87276,246 c -3.93673,0 -5.47149,-0.50782 -7.41821,-2.45455 z m 41.36909,-49.11623 C 630.43525,191.24889 634,185.66847 634,176.93325 c 0,-6.71026 -2.37088,-11.4881 -7.33045,-14.77249 C 622.85371,159.63379 622.01932,159.5 610.07584,159.5 H 597.5 l -0.27262,18.90172 -0.27263,18.90171 11.10992,-0.67477 c 6.13693,-0.37273 12.74329,-1.35723 14.75897,-2.19944 z M 814,244 c -1.9481,-1.9481 -2,-3.33333 -2,-53.38337 v -51.38337 l 2.25,-0.60297 c 4.21539,-1.12968 7.7467,-0.63359 9.75,1.36971 1.94811,1.94811 2,3.33333 2,53.39301 C 826,250.30708 826.53887,246 819.41821,246 817.33333,246 815.21987,245.21987 814,244 Z"
         id="path13" />
      <path
         style="fill:#0088d4"
         d="m 127.5,273.59289 c -21.25538,-3.15392 -38.402764,-9.66181 -55.569255,-21.09 -30.21385,-20.11418 -50.553873,-50.59342 -57.605241,-86.32067 -2.607087,-13.20935 -2.340369,-37.58319 0.559604,-51.13889 10.09367,-47.182101 43.243326,-84.486965 88.454762,-99.542291 32.12054,-10.6960847 68.49179,-8.5223683 98.9076,5.911182 23.95742,11.368776 45.90924,31.956941 59.23949,55.559511 12.48503,22.106014 19.03941,51.926628 16.51408,75.134398 -0.62206,5.71663 -1.56705,12.36608 -2.1,14.77656 -0.53294,2.41049 -0.82188,4.5298 -0.64209,4.70959 0.17979,0.1798 3.23258,-0.58968 6.78397,-1.70995 9.44483,-2.97932 25.17522,-2.37489 33.04356,1.26968 C 328.04672,177.1551 335,189.84688 335,207.5 c 0,17.60079 -6.98608,30.39957 -19.79386,36.26317 -9.18104,4.20321 -24.31557,4.10238 -34.45614,-0.22957 -1.62518,-0.69425 -1.75,0.4013 -1.75,15.35941 V 275 h -4.92857 C 265.61174,275 266,276.91436 266,235.20279 v -36.65436 l -4.47314,7.84934 c -16.26708,28.54502 -41.65473,49.95287 -72.29319,60.96042 -17.60878,6.32635 -43.4962,8.94081 -61.73367,6.2347 z M 145.2483,230.5 c 9.88858,-17.05 18.20119,-31.5625 18.47246,-32.25 C 164.1122,197.25793 151.08896,197 100.60699,197 65.623145,197 37,197.24293 37,197.53984 c 0,1.55934 4.528945,8.99708 9.755064,16.02044 17.192696,23.10517 40.457586,38.92212 67.686556,46.01764 4.98211,1.29827 9.90642,2.26185 10.94291,2.14129 1.33468,-0.15525 7.13038,-9.26416 19.86377,-31.21921 z m 165.31636,1.96669 c 3.75309,-2.3211 5.61269,-4.41767 7.92002,-8.92929 2.76527,-5.40706 3.01494,-6.73111 3.0107,-15.96669 -0.004,-9.04392 -0.29566,-10.66439 -2.85917,-15.89352 -6.17223,-12.59031 -20.04886,-16.74592 -34.88621,-10.44732 l -4.75,2.01642 v 23.84167 c 0,23.67724 0.0155,23.85054 2.25,25.12686 5.24067,2.99343 8.62258,3.71986 16.32998,3.50765 7.03763,-0.19377 8.7127,-0.61378 12.98468,-3.25578 z M 171.60013,185.61735 c 0.0551,-0.0645 5.78968,-9.97697 12.74358,-22.02762 L 196.98715,141.67946 184.23021,119.58973 171.47327,97.5 145.34353,97.233605 119.21379,96.967211 106.99699,118.04586 c -6.71923,11.59326 -12.421824,21.8627 -12.67242,22.82098 -0.381783,1.45995 21.29498,40.52409 24.93808,44.94143 0.86511,1.04898 6.1487,1.17133 26.65816,0.61735 14.06855,-0.38 25.62425,-0.74372 25.67932,-0.80827 z M 103.59573,180.25 C 101.75793,177.0875 87.55162,152.45 72.026164,125.5 56.500709,98.55 43.483202,76.162203 43.098371,75.749339 42.18273,74.766999 34.994208,87.606829 31.522112,96.426358 26.139445,110.09896 23.840634,121.42774 23.288994,137 c -0.572843,16.1708 0.790088,26.81597 5.234708,40.88569 L 31.087013,186 H 69.012106 106.9372 Z M 119.94174,74.668898 c 17.09182,-29.607105 30.78344,-54.304554 30.4258,-54.883219 -0.82199,-1.330013 -17.66293,-0.256824 -28.63678,1.824879 C 98.582844,26.001643 75.960623,38.218345 58.501272,55.756445 53.825573,60.453234 50,64.696675 50,65.186313 c 0,0.787929 24.548789,43.814167 33.744311,59.143067 1.923314,3.20615 3.862434,5.45615 4.309156,5 0.446722,-0.45616 14.796443,-25.05338 31.888273,-54.660482 z M 366,245.45861 c -6.84821,-1.90914 -15.40939,-7.00098 -18.42529,-10.95861 -6.35774,-8.34298 -9.17779,-18.95619 -8.31628,-31.2982 1.19736,-17.15347 9.58736,-29.00053 23.90606,-33.75644 7.21373,-2.39601 21.71892,-1.65432 27.63057,1.41284 10.43856,5.41588 16.78455,14.83411 17.87687,26.53148 0.91007,9.74569 1.19,9.60457 -26.72933,13.47459 C 352.69035,214.91905 353,214.85755 353,216.6127 c 0,3.21703 5.25006,11.5559 8.97372,14.25331 5.57143,4.03591 11.62906,5.47184 20.83532,4.9389 6.30037,-0.36472 8.92463,-1.05206 13.52042,-3.54125 4.92328,-2.66656 5.89651,-2.89483 7.12109,-1.67025 4.42757,4.42756 2.08817,9.35497 -6.25491,13.17456 -7.16385,3.27972 -22.51185,4.1115 -31.19564,1.69064 z m 9.70864,-43.96128 C 385.72339,200.1238 394.38589,199 394.95864,199 c 1.91317,0 1.07097,-5.17494 -1.65831,-10.18953 -6.14342,-11.28749 -20.83978,-13.99749 -32.0135,-5.90329 -4.74194,3.43504 -8.11213,9.82214 -8.95995,16.98064 l -0.60616,5.11804 2.88964,-0.5056 c 1.5893,-0.27808 11.08353,-1.6294 21.09828,-3.00293 z M 690,245.45599 c -15.5431,-4.32988 -25.68569,-13.8021 -31.09171,-29.03672 -2.93327,-8.26619 -3.70943,-26.40054 -1.52667,-35.66929 4.43463,-18.83095 17.07136,-31.82849 34.77486,-35.76774 8.10852,-1.80425 23.80617,-0.81872 31.05202,1.94951 5.89467,2.25202 10.7915,6.80521 10.7915,10.03419 0,0.99687 -0.82076,2.82609 -1.82391,4.06493 l -1.82392,2.25244 -7.87422,-3.89166 c -7.50741,-3.71036 -8.31918,-3.89051 -17.42609,-3.86722 -11.3334,0.029 -17.02193,2.11839 -23.88605,8.77341 -8.09832,7.85164 -11.31083,17.02582 -11.29364,32.25203 0.0191,16.88698 6.22057,29.08966 17.84064,35.105 11.23226,5.81457 25.63342,5.47584 37.56491,-0.88358 l 5.97092,-3.18246 1.87568,2.31637 c 1.03162,1.274 1.87568,3.22588 1.87568,4.33751 0,3.0481 -6.05394,8.13801 -12.11333,10.18438 -7.46797,2.52208 -25.50128,3.08628 -32.88667,1.0289 z m 64.80321,0.19507 c -10.72563,-3.00263 -16.62749,-9.62164 -17.53863,-19.66981 -0.97336,-10.73443 3.93654,-18.60122 14.01088,-22.44865 2.46715,-0.94221 11.40196,-2.46477 19.85513,-3.38346 L 786.5,198.4788 l 0.2735,-3.9894 c 0.16093,-2.34734 -0.45648,-5.42182 -1.5,-7.46947 -4.84898,-9.51495 -17.89959,-11.28964 -34.30174,-4.66451 -5.63434,2.27581 -5.97088,2.30303 -7.50563,0.60715 -0.98748,-1.09115 -1.48333,-3.06422 -1.28646,-5.11903 0.28475,-2.9722 0.97405,-3.67015 6.20644,-6.2844 5.20863,-2.60237 7.17485,-2.99018 17.08319,-3.36945 15.12759,-0.57904 21.24086,1.14077 27.67321,7.78511 6.22796,6.43323 6.85749,9.88119 6.85749,37.55864 v 22.43501 l -2.75,3.02828 c -4.42637,4.8743 -12.78571,7.31632 -26.25,7.66844 -7.35252,0.19228 -13.1939,-0.17346 -16.19679,-1.01411 z M 782.25,234.3296 787,232.83927 v -11.91964 c 0,-10.69724 -0.17947,-11.91643 -1.75,-11.88844 -6.7309,0.11997 -25.76062,3.11728 -28.72628,4.52458 -6.28105,2.98055 -8.28404,10.04498 -4.57349,16.13041 2.41482,3.96039 4.99878,5.37682 11.47888,6.29229 6.2071,0.8769 12.53869,0.3222 18.82089,-1.64887 z M 417,244 c -1.91126,-1.91126 -2,-3.33333 -2,-32.04966 0,-34.1794 -0.0386,-33.98743 7.67136,-38.16028 8.6247,-4.66793 15.36905,-6.03831 27.69329,-5.62698 12.16647,0.40607 17.73548,2.23907 23.18707,7.63188 6.10955,6.04368 6.40221,7.85837 6.42632,39.84805 0.0193,25.6652 -0.1668,29.21545 -1.55983,29.75 -3.14065,1.20518 -7.45868,0.56652 -9.41821,-1.39301 -1.89881,-1.89881 -2,-3.33333 -2,-28.35212 0,-25.70607 -0.0555,-26.43542 -2.2632,-29.75 -5.07759,-7.62331 -17.9993,-9.66714 -30.2368,-4.78256 l -6,2.39489 -0.26496,30.44513 c -0.19867,22.82805 -0.57396,30.64138 -1.5,31.22958 C 424.37557,246.68357 419.03333,246.03333 417,244 Z m 106.5,1.05464 c -3.43909,-1.40759 -5.3193,-4.3282 -10.05128,-15.61309 -10.25816,-24.46379 -28.93546,-78.84496 -27.74243,-80.77534 0.8805,-1.42467 7.01845,-3.66621 10.03909,-3.66621 5.87805,0 6.49787,1.22613 17.8183,35.2479 12.99901,39.06647 16.40023,48.18819 17.54216,47.04626 1.36089,-1.36089 17.22689,-50.20171 21.48923,-66.151 3.30612,-12.37123 4.16167,-14.48037 6.18595,-15.25 4.01701,-1.52727 8.80758,-1.00461 11.70875,1.27745 2.59092,2.03802 2.72335,2.51622 2.16808,7.82882 -0.98255,9.40051 -14.74475,49.86243 -26.14221,76.86008 -4.25077,10.06896 -5.17368,11.51749 -8.1235,12.75 -3.6183,1.51183 -11.69604,1.75327 -14.89214,0.44513 z M 581.86078,244.089 579.5,242.17799 579.21979,197.45957 c -0.31941,-50.97639 -0.7408,-48.29944 8.02732,-50.99563 6.85092,-2.10666 28.37467,-3.04425 36.25289,-1.57922 19.43491,3.61412 29.53508,16.18328 28.23589,35.13816 -0.81267,11.85648 -6.81916,21.34898 -16.76238,26.49082 -5.22977,2.70442 -15.86697,4.45059 -27.22351,4.46894 L 597,211 v 16.88337 c 0,16.66335 -0.0293,16.89122 -2.25,17.48634 -4.59622,1.23174 -10.51152,0.64398 -12.88922,-1.28071 z m 36.05344,-48.16402 c 6.08466,-1.30493 10.74745,-4.3074 13.89729,-8.94878 2.05002,-3.02076 2.31296,-4.41943 2.00693,-10.67547 -0.38842,-7.94002 -2.19016,-11.43173 -7.5052,-14.5448 -4.58551,-2.68578 -12.97018,-3.93163 -21.56324,-3.204 L 597,159.20816 V 178.10408 197 h 7.95078 c 4.37293,0 10.20648,-0.48376 12.96344,-1.07502 z M 814.75,244.9199 c -1.63142,-0.95022 -1.75,-4.56867 -1.75,-53.4022 0,-52.23207 0.006,-52.38483 2.08694,-53.04529 3.80479,-1.2076 8.91697,0.40768 9.95826,3.14648 0.56048,1.47416 0.9548,23.29234 0.9548,52.82958 v 50.31827 l -2.25,0.60297 c -3.32177,0.8902 -7.01637,0.70555 -9,-0.44981 z"
         id="path12" />
      <path
         style="fill:#037bbf"
         d="m 127.5,273.59289 c -21.25538,-3.15392 -38.402764,-9.66181 -55.569255,-21.09 -30.21385,-20.11418 -50.553873,-50.59342 -57.605241,-86.32067 -2.607087,-13.20935 -2.340369,-37.58319 0.559604,-51.13889 10.09367,-47.182101 43.243326,-84.486965 88.454762,-99.542291 32.12054,-10.6960847 68.49179,-8.5223683 98.9076,5.911182 23.95742,11.368776 45.90924,31.956941 59.23949,55.559511 12.48503,22.106014 19.03941,51.926628 16.51408,75.134398 -0.62206,5.71663 -1.56705,12.36608 -2.1,14.77656 -0.53294,2.41049 -0.82188,4.5298 -0.64209,4.70959 0.17979,0.1798 3.23258,-0.58968 6.78397,-1.70995 9.44483,-2.97932 25.17522,-2.37489 33.04356,1.26968 C 328.04672,177.1551 335,189.84688 335,207.5 c 0,17.60079 -6.98608,30.39957 -19.79386,36.26317 -9.18104,4.20321 -24.31557,4.10238 -34.45614,-0.22957 -1.62518,-0.69425 -1.75,0.4013 -1.75,15.35941 V 275 h -4.92857 C 265.61174,275 266,276.91436 266,235.20279 v -36.65436 l -4.47314,7.84934 c -16.26708,28.54502 -41.65473,49.95287 -72.29319,60.96042 -17.60878,6.32635 -43.4962,8.94081 -61.73367,6.2347 z M 167,261.06798 c 2.93512,-0.81021 2.57029,-0.87486 -2.26046,-0.40053 l -5.76046,0.56561 2.87735,-6.36653 c 1.58254,-3.50159 4.9315,-10.64153 7.44213,-15.86653 2.51062,-5.225 4.70802,-10.175 4.88311,-11 0.17508,-0.825 4.146,-3.525 8.82426,-6 12.24673,-6.47904 22.81993,-14.10495 32.57864,-23.49729 l 8.53003,-8.20979 -10.3073,-18.10846 C 208.13828,162.22481 203.275,154.06449 203,154.05043 c -0.5021,-0.0257 -8.26968,13.32937 -43.30139,74.44957 -10.40287,18.15 -19.16023,33.40691 -19.46081,33.90425 -0.68414,1.132 21.90688,0.004 26.7622,-1.33627 z M 145.2483,230.5 c 9.88858,-17.05 18.20119,-31.5625 18.47246,-32.25 C 164.1122,197.25793 151.08896,197 100.60699,197 65.623145,197 37,197.24293 37,197.53984 c 0,1.55934 4.528945,8.99708 9.755064,16.02044 17.192696,23.10517 40.457586,38.92212 67.686556,46.01764 4.98211,1.29827 9.90642,2.26185 10.94291,2.14129 1.33468,-0.15525 7.13038,-9.26416 19.86377,-31.21921 z m 29.0017,28.83772 c -0.6875,-0.27741 -1.8125,-0.27741 -2.5,0 -0.6875,0.27741 -0.125,0.50439 1.25,0.50439 1.375,0 1.9375,-0.22698 1.25,-0.50439 z m 136.31466,-26.87103 c 3.75309,-2.3211 5.61269,-4.41767 7.92002,-8.92929 2.76527,-5.40706 3.01494,-6.73111 3.0107,-15.96669 -0.004,-9.04392 -0.29566,-10.66439 -2.85917,-15.89352 -6.17223,-12.59031 -20.04886,-16.74592 -34.88621,-10.44732 l -4.75,2.01642 v 23.84167 c 0,23.67724 0.0155,23.85054 2.25,25.12686 5.24067,2.99343 8.62258,3.71986 16.32998,3.50765 7.03763,-0.19377 8.7127,-0.61378 12.98468,-3.25578 z M 171.60013,185.61735 c 0.0551,-0.0645 5.78968,-9.97697 12.74358,-22.02762 L 196.98715,141.67946 184.23021,119.58973 171.47327,97.5 145.34353,97.233605 119.21379,96.967211 106.99699,118.04586 c -6.71923,11.59326 -12.421824,21.8627 -12.67242,22.82098 -0.381783,1.45995 21.29498,40.52409 24.93808,44.94143 0.86511,1.04898 6.1487,1.17133 26.65816,0.61735 14.06855,-0.38 25.62425,-0.74372 25.67932,-0.80827 z M 103.59573,180.25 C 101.75793,177.0875 87.55162,152.45 72.026164,125.5 56.500709,98.55 43.483202,76.162203 43.098371,75.749339 42.18273,74.766999 34.994208,87.606829 31.522112,96.426358 26.139445,110.09896 23.840634,121.42774 23.288994,137 c -0.572843,16.1708 0.790088,26.81597 5.234708,40.88569 L 31.087013,186 H 69.012106 106.9372 Z M 119.94174,74.668898 c 17.09182,-29.607105 30.78344,-54.304554 30.4258,-54.883219 -0.82199,-1.330013 -17.66293,-0.256824 -28.63678,1.824879 C 98.582844,26.001643 75.960623,38.218345 58.501272,55.756445 53.825573,60.453234 50,64.696675 50,65.186313 c 0,0.787929 24.548789,43.814167 33.744311,59.143067 1.923314,3.20615 3.862434,5.45615 4.309156,5 0.446722,-0.45616 14.796443,-25.05338 31.888273,-54.660482 z M 366,245.45861 c -6.84821,-1.90914 -15.40939,-7.00098 -18.42529,-10.95861 -6.35774,-8.34298 -9.17779,-18.95619 -8.31628,-31.2982 1.19736,-17.15347 9.58736,-29.00053 23.90606,-33.75644 7.21373,-2.39601 21.71892,-1.65432 27.63057,1.41284 10.43856,5.41588 16.78455,14.83411 17.87687,26.53148 0.91007,9.74569 1.19,9.60457 -26.72933,13.47459 C 352.69035,214.91905 353,214.85755 353,216.6127 c 0,3.21703 5.25006,11.5559 8.97372,14.25331 5.57143,4.03591 11.62906,5.47184 20.83532,4.9389 6.30037,-0.36472 8.92463,-1.05206 13.52042,-3.54125 4.92328,-2.66656 5.89651,-2.89483 7.12109,-1.67025 4.42757,4.42756 2.08817,9.35497 -6.25491,13.17456 -7.16385,3.27972 -22.51185,4.1115 -31.19564,1.69064 z m 9.70864,-43.96128 C 385.72339,200.1238 394.38589,199 394.95864,199 c 1.91317,0 1.07097,-5.17494 -1.65831,-10.18953 -6.14342,-11.28749 -20.83978,-13.99749 -32.0135,-5.90329 -4.74194,3.43504 -8.11213,9.82214 -8.95995,16.98064 l -0.60616,5.11804 2.88964,-0.5056 c 1.5893,-0.27808 11.08353,-1.6294 21.09828,-3.00293 z M 690,245.45599 c -15.5431,-4.32988 -25.68569,-13.8021 -31.09171,-29.03672 -2.93327,-8.26619 -3.70943,-26.40054 -1.52667,-35.66929 4.43463,-18.83095 17.07136,-31.82849 34.77486,-35.76774 8.10852,-1.80425 23.80617,-0.81872 31.05202,1.94951 5.89467,2.25202 10.7915,6.80521 10.7915,10.03419 0,0.99687 -0.82076,2.82609 -1.82391,4.06493 l -1.82392,2.25244 -7.87422,-3.89166 c -7.50741,-3.71036 -8.31918,-3.89051 -17.42609,-3.86722 -11.3334,0.029 -17.02193,2.11839 -23.88605,8.77341 -8.09832,7.85164 -11.31083,17.02582 -11.29364,32.25203 0.0191,16.88698 6.22057,29.08966 17.84064,35.105 11.23226,5.81457 25.63342,5.47584 37.56491,-0.88358 l 5.97092,-3.18246 1.87568,2.31637 c 1.03162,1.274 1.87568,3.22588 1.87568,4.33751 0,3.0481 -6.05394,8.13801 -12.11333,10.18438 -7.46797,2.52208 -25.50128,3.08628 -32.88667,1.0289 z m 64.80321,0.19507 c -10.72563,-3.00263 -16.62749,-9.62164 -17.53863,-19.66981 -0.97336,-10.73443 3.93654,-18.60122 14.01088,-22.44865 2.46715,-0.94221 11.40196,-2.46477 19.85513,-3.38346 L 786.5,198.4788 l 0.2735,-3.9894 c 0.16093,-2.34734 -0.45648,-5.42182 -1.5,-7.46947 -4.84898,-9.51495 -17.89959,-11.28964 -34.30174,-4.66451 -5.63434,2.27581 -5.97088,2.30303 -7.50563,0.60715 -0.98748,-1.09115 -1.48333,-3.06422 -1.28646,-5.11903 0.28475,-2.9722 0.97405,-3.67015 6.20644,-6.2844 5.20863,-2.60237 7.17485,-2.99018 17.08319,-3.36945 15.12759,-0.57904 21.24086,1.14077 27.67321,7.78511 6.22796,6.43323 6.85749,9.88119 6.85749,37.55864 v 22.43501 l -2.75,3.02828 c -4.42637,4.8743 -12.78571,7.31632 -26.25,7.66844 -7.35252,0.19228 -13.1939,-0.17346 -16.19679,-1.01411 z M 782.25,234.3296 787,232.83927 v -11.91964 c 0,-10.69724 -0.17947,-11.91643 -1.75,-11.88844 -6.7309,0.11997 -25.76062,3.11728 -28.72628,4.52458 -6.28105,2.98055 -8.28404,10.04498 -4.57349,16.13041 2.41482,3.96039 4.99878,5.37682 11.47888,6.29229 6.2071,0.8769 12.53869,0.3222 18.82089,-1.64887 z M 417,244 c -1.91126,-1.91126 -2,-3.33333 -2,-32.04966 0,-34.1794 -0.0386,-33.98743 7.67136,-38.16028 8.6247,-4.66793 15.36905,-6.03831 27.69329,-5.62698 12.16647,0.40607 17.73548,2.23907 23.18707,7.63188 6.10955,6.04368 6.40221,7.85837 6.42632,39.84805 0.0193,25.6652 -0.1668,29.21545 -1.55983,29.75 -3.14065,1.20518 -7.45868,0.56652 -9.41821,-1.39301 -1.89881,-1.89881 -2,-3.33333 -2,-28.35212 0,-25.70607 -0.0555,-26.43542 -2.2632,-29.75 -5.07759,-7.62331 -17.9993,-9.66714 -30.2368,-4.78256 l -6,2.39489 -0.26496,30.44513 c -0.19867,22.82805 -0.57396,30.64138 -1.5,31.22958 C 424.37557,246.68357 419.03333,246.03333 417,244 Z m 106.5,1.05464 c -3.43909,-1.40759 -5.3193,-4.3282 -10.05128,-15.61309 -10.25816,-24.46379 -28.93546,-78.84496 -27.74243,-80.77534 0.8805,-1.42467 7.01845,-3.66621 10.03909,-3.66621 5.87805,0 6.49787,1.22613 17.8183,35.2479 12.99901,39.06647 16.40023,48.18819 17.54216,47.04626 1.36089,-1.36089 17.22689,-50.20171 21.48923,-66.151 3.30612,-12.37123 4.16167,-14.48037 6.18595,-15.25 4.01701,-1.52727 8.80758,-1.00461 11.70875,1.27745 2.59092,2.03802 2.72335,2.51622 2.16808,7.82882 -0.98255,9.40051 -14.74475,49.86243 -26.14221,76.86008 -4.25077,10.06896 -5.17368,11.51749 -8.1235,12.75 -3.6183,1.51183 -11.69604,1.75327 -14.89214,0.44513 z M 581.86078,244.089 579.5,242.17799 579.21979,197.45957 c -0.31941,-50.97639 -0.7408,-48.29944 8.02732,-50.99563 6.85092,-2.10666 28.37467,-3.04425 36.25289,-1.57922 19.43491,3.61412 29.53508,16.18328 28.23589,35.13816 -0.81267,11.85648 -6.81916,21.34898 -16.76238,26.49082 -5.22977,2.70442 -15.86697,4.45059 -27.22351,4.46894 L 597,211 v 16.88337 c 0,16.66335 -0.0293,16.89122 -2.25,17.48634 -4.59622,1.23174 -10.51152,0.64398 -12.88922,-1.28071 z m 36.05344,-48.16402 c 6.08466,-1.30493 10.74745,-4.3074 13.89729,-8.94878 2.05002,-3.02076 2.31296,-4.41943 2.00693,-10.67547 -0.38842,-7.94002 -2.19016,-11.43173 -7.5052,-14.5448 -4.58551,-2.68578 -12.97018,-3.93163 -21.56324,-3.204 L 597,159.20816 V 178.10408 197 h 7.95078 c 4.37293,0 10.20648,-0.48376 12.96344,-1.07502 z M 814.75,244.9199 c -1.63142,-0.95022 -1.75,-4.56867 -1.75,-53.4022 0,-52.23207 0.006,-52.38483 2.08694,-53.04529 3.80479,-1.2076 8.91697,0.40768 9.95826,3.14648 0.56048,1.47416 0.9548,23.29234 0.9548,52.82958 v 50.31827 l -2.25,0.60297 c -3.32177,0.8902 -7.01637,0.70555 -9,-0.44981 z"
         id="path11" />
      <path
         style="fill:#c61b3e"
         d="m 127.5,273.59289 c -21.25538,-3.15392 -38.402764,-9.66181 -55.569255,-21.09 -30.21385,-20.11418 -50.553873,-50.59342 -57.605241,-86.32067 -2.607087,-13.20935 -2.340369,-37.58319 0.559604,-51.13889 10.09367,-47.182101 43.243326,-84.486965 88.454762,-99.542291 32.12054,-10.6960847 68.49179,-8.5223683 98.9076,5.911182 23.95742,11.368776 45.90924,31.956941 59.23949,55.559511 12.48503,22.106014 19.03941,51.926628 16.51408,75.134398 -0.62206,5.71663 -1.56705,12.36608 -2.1,14.77656 -0.53294,2.41049 -0.82188,4.5298 -0.64209,4.70959 0.17979,0.1798 3.23258,-0.58968 6.78397,-1.70995 9.44483,-2.97932 25.17522,-2.37489 33.04356,1.26968 C 328.04672,177.1551 335,189.84688 335,207.5 c 0,17.60079 -6.98608,30.39957 -19.79386,36.26317 -9.18104,4.20321 -24.31557,4.10238 -34.45614,-0.22957 -1.62518,-0.69425 -1.75,0.4013 -1.75,15.35941 V 275 h -4.92857 C 265.61174,275 266,276.91436 266,235.20279 v -36.65436 l -4.47314,7.84934 c -16.26708,28.54502 -41.65473,49.95287 -72.29319,60.96042 -17.60878,6.32635 -43.4962,8.94081 -61.73367,6.2347 z m 35.33817,-11.16607 c 25.30269,-3.75709 47.19923,-14.44517 66.40318,-32.41254 13.10838,-12.26431 13.84189,-7.73023 -7.1391,-44.12909 C 212.15219,168.62333 203.84531,154.05 203.64252,153.5 c -0.20279,-0.55 -0.5898,-0.775 -0.86003,-0.5 -0.27023,0.275 -10.98071,18.725 -23.80107,41 -12.82036,22.275 -27.06087,46.96436 -31.64558,54.86524 -4.58471,7.90088 -8.33584,14.53838 -8.33584,14.75 0,0.94961 14.21034,0.24117 23.83817,-1.18842 z M 145.2483,230.5 c 9.88858,-17.05 18.20119,-31.5625 18.47246,-32.25 C 164.1122,197.25793 151.08896,197 100.60699,197 65.623145,197 37,197.24293 37,197.53984 c 0,1.55934 4.528945,8.99708 9.755064,16.02044 17.192696,23.10517 40.457586,38.92212 67.686556,46.01764 4.98211,1.29827 9.90642,2.26185 10.94291,2.14129 1.33468,-0.15525 7.13038,-9.26416 19.86377,-31.21921 z m 165.31636,1.96669 c 3.75309,-2.3211 5.61269,-4.41767 7.92002,-8.92929 2.76527,-5.40706 3.01494,-6.73111 3.0107,-15.96669 -0.004,-9.04392 -0.29566,-10.66439 -2.85917,-15.89352 -6.17223,-12.59031 -20.04886,-16.74592 -34.88621,-10.44732 l -4.75,2.01642 v 23.84167 c 0,23.67724 0.0155,23.85054 2.25,25.12686 5.24067,2.99343 8.62258,3.71986 16.32998,3.50765 7.03763,-0.19377 8.7127,-0.61378 12.98468,-3.25578 z M 171.60013,185.61735 c 0.0551,-0.0645 5.78968,-9.97697 12.74358,-22.02762 L 196.98715,141.67946 184.23021,119.58973 171.47327,97.5 145.34353,97.233605 119.21379,96.967211 106.99699,118.04586 c -6.71923,11.59326 -12.421824,21.8627 -12.67242,22.82098 -0.381783,1.45995 21.29498,40.52409 24.93808,44.94143 0.86511,1.04898 6.1487,1.17133 26.65816,0.61735 14.06855,-0.38 25.62425,-0.74372 25.67932,-0.80827 z M 103.59573,180.25 C 101.75793,177.0875 87.55162,152.45 72.026164,125.5 56.500709,98.55 43.483202,76.162203 43.098371,75.749339 42.18273,74.766999 34.994208,87.606829 31.522112,96.426358 26.139445,110.09896 23.840634,121.42774 23.288994,137 c -0.572843,16.1708 0.790088,26.81597 5.234708,40.88569 L 31.087013,186 H 69.012106 106.9372 Z M 119.94174,74.668898 c 17.09182,-29.607105 30.78344,-54.304554 30.4258,-54.883219 -0.82199,-1.330013 -17.66293,-0.256824 -28.63678,1.824879 C 98.582844,26.001643 75.960623,38.218345 58.501272,55.756445 53.825573,60.453234 50,64.696675 50,65.186313 c 0,0.787929 24.548789,43.814167 33.744311,59.143067 1.923314,3.20615 3.862434,5.45615 4.309156,5 0.446722,-0.45616 14.796443,-25.05338 31.888273,-54.660482 z M 366,245.45861 c -6.84821,-1.90914 -15.40939,-7.00098 -18.42529,-10.95861 -6.35774,-8.34298 -9.17779,-18.95619 -8.31628,-31.2982 1.19736,-17.15347 9.58736,-29.00053 23.90606,-33.75644 7.21373,-2.39601 21.71892,-1.65432 27.63057,1.41284 10.43856,5.41588 16.78455,14.83411 17.87687,26.53148 0.91007,9.74569 1.19,9.60457 -26.72933,13.47459 C 352.69035,214.91905 353,214.85755 353,216.6127 c 0,3.21703 5.25006,11.5559 8.97372,14.25331 5.57143,4.03591 11.62906,5.47184 20.83532,4.9389 6.30037,-0.36472 8.92463,-1.05206 13.52042,-3.54125 4.92328,-2.66656 5.89651,-2.89483 7.12109,-1.67025 4.42757,4.42756 2.08817,9.35497 -6.25491,13.17456 -7.16385,3.27972 -22.51185,4.1115 -31.19564,1.69064 z m 9.70864,-43.96128 C 385.72339,200.1238 394.38589,199 394.95864,199 c 1.91317,0 1.07097,-5.17494 -1.65831,-10.18953 -6.14342,-11.28749 -20.83978,-13.99749 -32.0135,-5.90329 -4.74194,3.43504 -8.11213,9.82214 -8.95995,16.98064 l -0.60616,5.11804 2.88964,-0.5056 c 1.5893,-0.27808 11.08353,-1.6294 21.09828,-3.00293 z M 690,245.45599 c -15.5431,-4.32988 -25.68569,-13.8021 -31.09171,-29.03672 -2.93327,-8.26619 -3.70943,-26.40054 -1.52667,-35.66929 4.43463,-18.83095 17.07136,-31.82849 34.77486,-35.76774 8.10852,-1.80425 23.80617,-0.81872 31.05202,1.94951 5.89467,2.25202 10.7915,6.80521 10.7915,10.03419 0,0.99687 -0.82076,2.82609 -1.82391,4.06493 l -1.82392,2.25244 -7.87422,-3.89166 c -7.50741,-3.71036 -8.31918,-3.89051 -17.42609,-3.86722 -11.3334,0.029 -17.02193,2.11839 -23.88605,8.77341 -8.09832,7.85164 -11.31083,17.02582 -11.29364,32.25203 0.0191,16.88698 6.22057,29.08966 17.84064,35.105 11.23226,5.81457 25.63342,5.47584 37.56491,-0.88358 l 5.97092,-3.18246 1.87568,2.31637 c 1.03162,1.274 1.87568,3.22588 1.87568,4.33751 0,3.0481 -6.05394,8.13801 -12.11333,10.18438 -7.46797,2.52208 -25.50128,3.08628 -32.88667,1.0289 z m 64.80321,0.19507 c -10.72563,-3.00263 -16.62749,-9.62164 -17.53863,-19.66981 -0.97336,-10.73443 3.93654,-18.60122 14.01088,-22.44865 2.46715,-0.94221 11.40196,-2.46477 19.85513,-3.38346 L 786.5,198.4788 l 0.2735,-3.9894 c 0.16093,-2.34734 -0.45648,-5.42182 -1.5,-7.46947 -4.84898,-9.51495 -17.89959,-11.28964 -34.30174,-4.66451 -5.63434,2.27581 -5.97088,2.30303 -7.50563,0.60715 -0.98748,-1.09115 -1.48333,-3.06422 -1.28646,-5.11903 0.28475,-2.9722 0.97405,-3.67015 6.20644,-6.2844 5.20863,-2.60237 7.17485,-2.99018 17.08319,-3.36945 15.12759,-0.57904 21.24086,1.14077 27.67321,7.78511 6.22796,6.43323 6.85749,9.88119 6.85749,37.55864 v 22.43501 l -2.75,3.02828 c -4.42637,4.8743 -12.78571,7.31632 -26.25,7.66844 -7.35252,0.19228 -13.1939,-0.17346 -16.19679,-1.01411 z M 782.25,234.3296 787,232.83927 v -11.91964 c 0,-10.69724 -0.17947,-11.91643 -1.75,-11.88844 -6.7309,0.11997 -25.76062,3.11728 -28.72628,4.52458 -6.28105,2.98055 -8.28404,10.04498 -4.57349,16.13041 2.41482,3.96039 4.99878,5.37682 11.47888,6.29229 6.2071,0.8769 12.53869,0.3222 18.82089,-1.64887 z M 417,244 c -1.91126,-1.91126 -2,-3.33333 -2,-32.04966 0,-34.1794 -0.0386,-33.98743 7.67136,-38.16028 8.6247,-4.66793 15.36905,-6.03831 27.69329,-5.62698 12.16647,0.40607 17.73548,2.23907 23.18707,7.63188 6.10955,6.04368 6.40221,7.85837 6.42632,39.84805 0.0193,25.6652 -0.1668,29.21545 -1.55983,29.75 -3.14065,1.20518 -7.45868,0.56652 -9.41821,-1.39301 -1.89881,-1.89881 -2,-3.33333 -2,-28.35212 0,-25.70607 -0.0555,-26.43542 -2.2632,-29.75 -5.07759,-7.62331 -17.9993,-9.66714 -30.2368,-4.78256 l -6,2.39489 -0.26496,30.44513 c -0.19867,22.82805 -0.57396,30.64138 -1.5,31.22958 C 424.37557,246.68357 419.03333,246.03333 417,244 Z m 106.5,1.05464 c -3.43909,-1.40759 -5.3193,-4.3282 -10.05128,-15.61309 -10.25816,-24.46379 -28.93546,-78.84496 -27.74243,-80.77534 0.8805,-1.42467 7.01845,-3.66621 10.03909,-3.66621 5.87805,0 6.49787,1.22613 17.8183,35.2479 12.99901,39.06647 16.40023,48.18819 17.54216,47.04626 1.36089,-1.36089 17.22689,-50.20171 21.48923,-66.151 3.30612,-12.37123 4.16167,-14.48037 6.18595,-15.25 4.01701,-1.52727 8.80758,-1.00461 11.70875,1.27745 2.59092,2.03802 2.72335,2.51622 2.16808,7.82882 -0.98255,9.40051 -14.74475,49.86243 -26.14221,76.86008 -4.25077,10.06896 -5.17368,11.51749 -8.1235,12.75 -3.6183,1.51183 -11.69604,1.75327 -14.89214,0.44513 z M 581.86078,244.089 579.5,242.17799 579.21979,197.45957 c -0.31941,-50.97639 -0.7408,-48.29944 8.02732,-50.99563 6.85092,-2.10666 28.37467,-3.04425 36.25289,-1.57922 19.43491,3.61412 29.53508,16.18328 28.23589,35.13816 -0.81267,11.85648 -6.81916,21.34898 -16.76238,26.49082 -5.22977,2.70442 -15.86697,4.45059 -27.22351,4.46894 L 597,211 v 16.88337 c 0,16.66335 -0.0293,16.89122 -2.25,17.48634 -4.59622,1.23174 -10.51152,0.64398 -12.88922,-1.28071 z m 36.05344,-48.16402 c 6.08466,-1.30493 10.74745,-4.3074 13.89729,-8.94878 2.05002,-3.02076 2.31296,-4.41943 2.00693,-10.67547 -0.38842,-7.94002 -2.19016,-11.43173 -7.5052,-14.5448 -4.58551,-2.68578 -12.97018,-3.93163 -21.56324,-3.204 L 597,159.20816 V 178.10408 197 h 7.95078 c 4.37293,0 10.20648,-0.48376 12.96344,-1.07502 z M 814.75,244.9199 c -1.63142,-0.95022 -1.75,-4.56867 -1.75,-53.4022 0,-52.23207 0.006,-52.38483 2.08694,-53.04529 3.80479,-1.2076 8.91697,0.40768 9.95826,3.14648 0.56048,1.47416 0.9548,23.29234 0.9548,52.82958 v 50.31827 l -2.25,0.60297 c -3.32177,0.8902 -7.01637,0.70555 -9,-0.44981 z"
         id="path10" />
      <path
         style="fill:#4c585e"
         d="m 127.5,273.59289 c -21.25538,-3.15392 -38.402764,-9.66181 -55.569255,-21.09 -30.21385,-20.11418 -50.553873,-50.59342 -57.605241,-86.32067 -2.607087,-13.20935 -2.340369,-37.58319 0.559604,-51.13889 10.09367,-47.182101 43.243326,-84.486965 88.454762,-99.542291 32.12054,-10.6960847 68.49179,-8.5223683 98.9076,5.911182 23.95742,11.368776 45.90924,31.956941 59.23949,55.559511 12.48503,22.106014 19.03941,51.926628 16.51408,75.134398 -0.62206,5.71663 -1.56705,12.36608 -2.1,14.77656 -0.53294,2.41049 -0.82188,4.5298 -0.64209,4.70959 0.17979,0.1798 3.23258,-0.58968 6.78397,-1.70995 9.44483,-2.97932 25.17522,-2.37489 33.04356,1.26968 C 328.04672,177.1551 335,189.84688 335,207.5 c 0,17.60079 -6.98608,30.39957 -19.79386,36.26317 -9.18104,4.20321 -24.31557,4.10238 -34.45614,-0.22957 -1.62518,-0.69425 -1.75,0.4013 -1.75,15.35941 V 275 h -4.92857 C 265.61174,275 266,276.91436 266,235.20279 v -36.65436 l -4.47314,7.84934 c -16.26708,28.54502 -41.65473,49.95287 -72.29319,60.96042 -17.60878,6.32635 -43.4962,8.94081 -61.73367,6.2347 z m 35.33817,-11.16607 c 25.30269,-3.75709 47.19923,-14.44517 66.40318,-32.41254 13.10838,-12.26431 13.84189,-7.73023 -7.1391,-44.12909 C 212.15219,168.62333 203.84531,154.05 203.64252,153.5 c -0.20279,-0.55 -0.5898,-0.775 -0.86003,-0.5 -0.27023,0.275 -10.98071,18.725 -23.80107,41 -12.82036,22.275 -27.06087,46.96436 -31.64558,54.86524 -4.58471,7.90088 -8.33584,14.53838 -8.33584,14.75 0,0.94961 14.21034,0.24117 23.83817,-1.18842 z M 145.2483,230.5 c 9.88858,-17.05 18.20119,-31.5625 18.47246,-32.25 C 164.1122,197.25793 151.08896,197 100.60699,197 65.623145,197 37,197.24293 37,197.53984 c 0,1.55934 4.528945,8.99708 9.755064,16.02044 17.192696,23.10517 40.457586,38.92212 67.686556,46.01764 4.98211,1.29827 9.90642,2.26185 10.94291,2.14129 1.33468,-0.15525 7.13038,-9.26416 19.86377,-31.21921 z m 165.31636,1.96669 c 3.75309,-2.3211 5.61269,-4.41767 7.92002,-8.92929 2.76527,-5.40706 3.01494,-6.73111 3.0107,-15.96669 -0.004,-9.04392 -0.29566,-10.66439 -2.85917,-15.89352 -6.17223,-12.59031 -20.04886,-16.74592 -34.88621,-10.44732 l -4.75,2.01642 v 23.84167 c 0,23.67724 0.0155,23.85054 2.25,25.12686 5.24067,2.99343 8.62258,3.71986 16.32998,3.50765 7.03763,-0.19377 8.7127,-0.61378 12.98468,-3.25578 z m -56.99908,-35.59726 c 14.33515,-28.543 17.20878,-59.39254 8.37367,-89.89467 -3.18344,-10.990455 0.83171,-10.040786 -41.17524,-9.738828 L 184.02802,97.5 208.61206,140 c 13.52122,23.375 27.74127,48.00731 31.60013,54.73847 3.85885,6.73116 7.42752,11.9842 7.93038,11.67342 0.50286,-0.31079 2.94321,-4.60489 5.42301,-9.54246 z m -81.96545,-11.25208 c 0.0551,-0.0645 5.78968,-9.97697 12.74358,-22.02762 L 196.98715,141.67946 184.23021,119.58973 171.47327,97.5 145.34353,97.233605 119.21379,96.967211 106.99699,118.04586 c -6.71923,11.59326 -12.421824,21.8627 -12.67242,22.82098 -0.381783,1.45995 21.29498,40.52409 24.93808,44.94143 0.86511,1.04898 6.1487,1.17133 26.65816,0.61735 14.06855,-0.38 25.62425,-0.74372 25.67932,-0.80827 z M 103.59573,180.25 C 101.75793,177.0875 87.55162,152.45 72.026164,125.5 56.500709,98.55 43.483202,76.162203 43.098371,75.749339 42.18273,74.766999 34.994208,87.606829 31.522112,96.426358 26.139445,110.09896 23.840634,121.42774 23.288994,137 c -0.572843,16.1708 0.790088,26.81597 5.234708,40.88569 L 31.087013,186 H 69.012106 106.9372 Z M 119.94174,74.668898 c 17.09182,-29.607105 30.78344,-54.304554 30.4258,-54.883219 -0.82199,-1.330013 -17.66293,-0.256824 -28.63678,1.824879 C 98.582844,26.001643 75.960623,38.218345 58.501272,55.756445 53.825573,60.453234 50,64.696675 50,65.186313 c 0,0.787929 24.548789,43.814167 33.744311,59.143067 1.923314,3.20615 3.862434,5.45615 4.309156,5 0.446722,-0.45616 14.796443,-25.05338 31.888273,-54.660482 z M 251.906,82.25 C 232.75849,50.438145 206.42004,30.633272 172.84876,22.803873 c -4.89961,-1.142672 -9.077,-1.903501 -9.28308,-1.69073 C 163.35959,21.325915 155.91308,34.1 147.01786,49.5 138.12265,64.9 129.73571,79.4125 128.38022,81.75 L 125.91569,86 h 64.12372 l 64.12371,0 z M 366,245.45861 c -6.84821,-1.90914 -15.40939,-7.00098 -18.42529,-10.95861 -6.35774,-8.34298 -9.17779,-18.95619 -8.31628,-31.2982 1.19736,-17.15347 9.58736,-29.00053 23.90606,-33.75644 7.21373,-2.39601 21.71892,-1.65432 27.63057,1.41284 10.43856,5.41588 16.78455,14.83411 17.87687,26.53148 0.91007,9.74569 1.19,9.60457 -26.72933,13.47459 C 352.69035,214.91905 353,214.85755 353,216.6127 c 0,3.21703 5.25006,11.5559 8.97372,14.25331 5.57143,4.03591 11.62906,5.47184 20.83532,4.9389 6.30037,-0.36472 8.92463,-1.05206 13.52042,-3.54125 4.92328,-2.66656 5.89651,-2.89483 7.12109,-1.67025 4.42757,4.42756 2.08817,9.35497 -6.25491,13.17456 -7.16385,3.27972 -22.51185,4.1115 -31.19564,1.69064 z m 9.70864,-43.96128 C 385.72339,200.1238 394.38589,199 394.95864,199 c 1.91317,0 1.07097,-5.17494 -1.65831,-10.18953 -6.14342,-11.28749 -20.83978,-13.99749 -32.0135,-5.90329 -4.74194,3.43504 -8.11213,9.82214 -8.95995,16.98064 l -0.60616,5.11804 2.88964,-0.5056 c 1.5893,-0.27808 11.08353,-1.6294 21.09828,-3.00293 z M 690,245.45599 c -15.5431,-4.32988 -25.68569,-13.8021 -31.09171,-29.03672 -2.93327,-8.26619 -3.70943,-26.40054 -1.52667,-35.66929 4.43463,-18.83095 17.07136,-31.82849 34.77486,-35.76774 8.10852,-1.80425 23.80617,-0.81872 31.05202,1.94951 5.89467,2.25202 10.7915,6.80521 10.7915,10.03419 0,0.99687 -0.82076,2.82609 -1.82391,4.06493 l -1.82392,2.25244 -7.87422,-3.89166 c -7.50741,-3.71036 -8.31918,-3.89051 -17.42609,-3.86722 -11.3334,0.029 -17.02193,2.11839 -23.88605,8.77341 -8.09832,7.85164 -11.31083,17.02582 -11.29364,32.25203 0.0191,16.88698 6.22057,29.08966 17.84064,35.105 11.23226,5.81457 25.63342,5.47584 37.56491,-0.88358 l 5.97092,-3.18246 1.87568,2.31637 c 1.03162,1.274 1.87568,3.22588 1.87568,4.33751 0,3.0481 -6.05394,8.13801 -12.11333,10.18438 -7.46797,2.52208 -25.50128,3.08628 -32.88667,1.0289 z m 64.80321,0.19507 c -10.72563,-3.00263 -16.62749,-9.62164 -17.53863,-19.66981 -0.97336,-10.73443 3.93654,-18.60122 14.01088,-22.44865 2.46715,-0.94221 11.40196,-2.46477 19.85513,-3.38346 L 786.5,198.4788 l 0.2735,-3.9894 c 0.16093,-2.34734 -0.45648,-5.42182 -1.5,-7.46947 -4.84898,-9.51495 -17.89959,-11.28964 -34.30174,-4.66451 -5.63434,2.27581 -5.97088,2.30303 -7.50563,0.60715 -0.98748,-1.09115 -1.48333,-3.06422 -1.28646,-5.11903 0.28475,-2.9722 0.97405,-3.67015 6.20644,-6.2844 5.20863,-2.60237 7.17485,-2.99018 17.08319,-3.36945 15.12759,-0.57904 21.24086,1.14077 27.67321,7.78511 6.22796,6.43323 6.85749,9.88119 6.85749,37.55864 v 22.43501 l -2.75,3.02828 c -4.42637,4.8743 -12.78571,7.31632 -26.25,7.66844 -7.35252,0.19228 -13.1939,-0.17346 -16.19679,-1.01411 z M 782.25,234.3296 787,232.83927 v -11.91964 c 0,-10.69724 -0.17947,-11.91643 -1.75,-11.88844 -6.7309,0.11997 -25.76062,3.11728 -28.72628,4.52458 -6.28105,2.98055 -8.28404,10.04498 -4.57349,16.13041 2.41482,3.96039 4.99878,5.37682 11.47888,6.29229 6.2071,0.8769 12.53869,0.3222 18.82089,-1.64887 z M 417,244 c -1.91126,-1.91126 -2,-3.33333 -2,-32.04966 0,-34.1794 -0.0386,-33.98743 7.67136,-38.16028 8.6247,-4.66793 15.36905,-6.03831 27.69329,-5.62698 12.16647,0.40607 17.73548,2.23907 23.18707,7.63188 6.10955,6.04368 6.40221,7.85837 6.42632,39.84805 0.0193,25.6652 -0.1668,29.21545 -1.55983,29.75 -3.14065,1.20518 -7.45868,0.56652 -9.41821,-1.39301 -1.89881,-1.89881 -2,-3.33333 -2,-28.35212 0,-25.70607 -0.0555,-26.43542 -2.2632,-29.75 -5.07759,-7.62331 -17.9993,-9.66714 -30.2368,-4.78256 l -6,2.39489 -0.26496,30.44513 c -0.19867,22.82805 -0.57396,30.64138 -1.5,31.22958 C 424.37557,246.68357 419.03333,246.03333 417,244 Z m 106.5,1.05464 c -3.43909,-1.40759 -5.3193,-4.3282 -10.05128,-15.61309 -10.25816,-24.46379 -28.93546,-78.84496 -27.74243,-80.77534 0.8805,-1.42467 7.01845,-3.66621 10.03909,-3.66621 5.87805,0 6.49787,1.22613 17.8183,35.2479 12.99901,39.06647 16.40023,48.18819 17.54216,47.04626 1.36089,-1.36089 17.22689,-50.20171 21.48923,-66.151 3.30612,-12.37123 4.16167,-14.48037 6.18595,-15.25 4.01701,-1.52727 8.80758,-1.00461 11.70875,1.27745 2.59092,2.03802 2.72335,2.51622 2.16808,7.82882 -0.98255,9.40051 -14.74475,49.86243 -26.14221,76.86008 -4.25077,10.06896 -5.17368,11.51749 -8.1235,12.75 -3.6183,1.51183 -11.69604,1.75327 -14.89214,0.44513 z M 581.86078,244.089 579.5,242.17799 579.21979,197.45957 c -0.31941,-50.97639 -0.7408,-48.29944 8.02732,-50.99563 6.85092,-2.10666 28.37467,-3.04425 36.25289,-1.57922 19.43491,3.61412 29.53508,16.18328 28.23589,35.13816 -0.81267,11.85648 -6.81916,21.34898 -16.76238,26.49082 -5.22977,2.70442 -15.86697,4.45059 -27.22351,4.46894 L 597,211 v 16.88337 c 0,16.66335 -0.0293,16.89122 -2.25,17.48634 -4.59622,1.23174 -10.51152,0.64398 -12.88922,-1.28071 z m 36.05344,-48.16402 c 6.08466,-1.30493 10.74745,-4.3074 13.89729,-8.94878 2.05002,-3.02076 2.31296,-4.41943 2.00693,-10.67547 -0.38842,-7.94002 -2.19016,-11.43173 -7.5052,-14.5448 -4.58551,-2.68578 -12.97018,-3.93163 -21.56324,-3.204 L 597,159.20816 V 178.10408 197 h 7.95078 c 4.37293,0 10.20648,-0.48376 12.96344,-1.07502 z M 814.75,244.9199 c -1.63142,-0.95022 -1.75,-4.56867 -1.75,-53.4022 0,-52.23207 0.006,-52.38483 2.08694,-53.04529 3.80479,-1.2076 8.91697,0.40768 9.95826,3.14648 0.56048,1.47416 0.9548,23.29234 0.9548,52.82958 v 50.31827 l -2.25,0.60297 c -3.32177,0.8902 -7.01637,0.70555 -9,-0.44981 z"
         id="path9" />
      <path
         style="fill:#344147"
         d="m 267.91241,273.39574 c -1.14847,-1.38279 -1.46578,-8.61361 -1.69803,-38.69408 l -0.28562,-36.99349 -5.08987,8.89592 C 241.46693,240.4618 209.9802,263.46471 171.69166,271.73138 165.56585,273.05397 158.96059,273.5 145.5,273.5 c -21.25291,0 -31.16704,-1.70746 -48.714892,-8.38993 -2.670038,-1.01679 -2.69069,-1.0918 -1.25,-4.53985 2.011117,-4.81328 1.998409,-4.84446 -2.788856,-6.84215 C 90.410813,252.75352 87.375,251.0428 86,249.92647 c -1.535235,-1.24641 0.285167,-0.66061 4.717218,1.51799 8.541087,4.19842 19.503582,7.99103 28.958562,10.01858 6.48898,1.39151 6.88997,1.36944 8.16268,-0.44934 0.73615,-1.05202 9.34661,-15.77297 19.13436,-32.71323 L 164.76873,197.5 139.83526,196.86756 c -13.71341,-0.34784 -25.21137,-0.91034 -25.55103,-1.25 C 113.94457,195.2779 116.38991,195 119.71832,195 c 5.32859,0 6.24463,-0.29451 7.66667,-2.46482 2.48198,-3.78797 2.02191,-4.40671 -3.51922,-4.73292 -4.24099,-0.24967 -5.39319,-0.7372 -6.62276,-2.80226 l -1.48854,-2.5 1.89016,2.26735 c 1.88664,2.26314 1.93844,2.26686 27.86201,2 L 171.4785,186.5 l 12.74545,-22 c 7.00999,-12.1 12.7315,-22.45 12.71447,-23 -0.017,-0.55 -5.76944,-10.9 -12.78311,-23 L 171.40318,96.5 159.95159,95.921193 148.5,95.342386 l 11.83877,-0.05259 11.83876,-0.05259 1.91124,-3.142771 C 175.13994,90.365908 176,88.755057 176,88.514763 c 0,-0.240293 -3.9375,-0.586881 -8.75,-0.770195 -4.8125,-0.183314 5.91595,-0.425833 23.84101,-0.538933 17.92505,-0.113099 39.38832,-0.499845 47.69614,-0.859435 L 253.89229,85.692399 252.29898,82.5962 C 242.63535,63.817431 221.98133,43.624555 201,32.442567 c -4.675,-2.491538 -7.375,-4.238525 -6,-3.882193 1.375,0.356332 3.52592,1.295187 4.77982,2.086345 2.17969,1.375286 2.35981,1.259808 4.10094,-2.629121 l 1.82111,-4.06759 5.89907,3.09184 c 17.77566,9.31665 37.17383,28.812319 49.2108,49.458152 14.75565,25.30893 20.59988,60.68274 14.83339,89.78317 -0.93118,4.69919 -1.00634,6.63744 -0.24464,6.30884 8.10426,-3.49617 15.38762,-4.8233 23.99861,-4.37289 20.08603,1.05063 31.70973,11.44546 34.76354,31.08829 1.38514,8.90961 0.10997,20.55789 -3.06015,27.95348 -7.35279,17.15337 -29.56378,24.31056 -50.3266,16.21707 -1.58116,-0.61635 -1.74699,0.6419 -2,15.17498 L 278.5,274.5 l -4.58759,0.29816 c -3.36348,0.2186 -4.96446,-0.15561 -6,-1.40242 z M 164.59705,262.51649 c 24.40077,-3.9576 46.45266,-15.14546 65.40878,-33.18467 4.89744,-4.66055 9.18301,-9.35145 9.5235,-10.42422 0.44172,-1.39175 -4.63011,-11.11032 -17.70514,-33.92633 C 211.74589,167.39455 203.24395,153.0042 202.931,153.00271 202.31108,152.99976 139,262.27074 139,263.34363 c 0,1.19918 16.36388,0.67041 25.59705,-0.82714 z M 307.5,234.54059 c 4.88347,-2.01445 9.66795,-6.66604 11.78941,-11.46194 2.86621,-6.47955 3.47392,-19.92989 1.24854,-27.63382 -2.3231,-8.04224 -8.93024,-14.61977 -16.51282,-16.4388 -6.4555,-1.54865 -14.37593,-0.82914 -20.45006,1.85774 L 279,182.88754 v 24.40436 24.40435 l 4.01922,1.81242 c 7.86401,3.54617 17.4102,3.94857 24.48078,1.03192 z m -53.93442,-37.67116 c 13.81669,-27.51069 16.98623,-56.654 9.37981,-86.24563 -1.1135,-4.33191 -2.6933,-9.16941 -3.51065,-10.750001 L 257.94864,97 220.86733,97 c -34.7176,0 -37.03906,0.110094 -36.41855,1.727126 0.36452,0.949919 13.18133,23.112414 28.48181,49.250004 15.30047,26.13758 29.26833,50.11038 31.03969,53.27289 1.77136,3.1625 3.64049,5.49054 4.15362,5.17341 0.51312,-0.31713 2.96188,-4.61643 5.44168,-9.554 z m 115.61071,49.12706 c -6.50932,-1.38109 -14.42626,-5.32409 -19.01652,-9.47111 -13.75981,-12.43117 -14.61278,-42.0424 -1.65251,-57.36832 9.56334,-11.30895 29.39176,-14.59212 43.31364,-7.17184 9.36699,4.99256 14.20403,11.88252 16.2263,23.11307 1.42687,7.92396 0.35082,11.45985 -3.73723,12.28062 -1.54548,0.31029 -12.93497,1.95073 -25.30997,3.64543 -29.46171,4.03464 -27.02544,3.40015 -26.05453,6.78551 3.91892,13.66449 17.40113,21.01798 33.28629,18.15508 3.44753,-0.62133 8.39379,-2.28264 10.99169,-3.69179 5.47095,-2.96756 7.77655,-2.10863 7.77655,2.89705 0,3.72432 -3.62706,7.16435 -9.82052,9.31414 -5.61784,1.94999 -19.99815,2.78624 -26.00319,1.51216 z M 374.5,202 c 11.87771,-1.65 21.78802,-3 22.02292,-3 0.84215,0 -0.84579,-6.568 -2.56996,-10 -7.72359,-15.37403 -31.00374,-14.58176 -39.12202,1.33139 -2.13862,4.19204 -4.0752,14.66861 -2.71148,14.66861 0.43159,0 10.50283,-1.35 22.38054,-3 z m 319,43.98341 C 670.95924,241.48957 657.7379,224.78076 656.32298,199 c -1.52882,-27.85588 12.64371,-48.78649 36.47624,-53.86973 15.37141,-3.27856 35.84744,1.41818 39.83968,9.13834 1.45415,2.81201 1.24865,3.84044 -1.38054,6.90907 -1.32932,1.5515 -1.96694,1.40108 -8.478,-2 -6.82307,-3.56406 -7.36866,-3.67768 -17.66047,-3.67768 -9.5887,0 -11.16953,0.26992 -16.28043,2.77978 -10.65192,5.23095 -16.94417,15.04383 -19.00904,29.64493 -2.18422,15.44514 2.17561,31.13906 10.87934,39.16188 7.43317,6.85166 12.0349,8.41341 24.79024,8.41341 10.6631,0 11.22229,-0.11172 18.25791,-3.64768 l 7.2579,-3.64767 2.00961,2.5548 c 3.40526,4.32908 1.42476,7.9384 -6.37778,11.62309 -8.84896,4.17884 -22.70086,5.68359 -33.14764,3.60087 z m 63.84375,-0.0248 C 742.45074,243.01211 734.36716,231.04587 738.11906,217.5 c 2.0592,-7.43455 6.97385,-11.84718 16.35247,-14.68211 2.72007,-0.82222 26.43568,-3.74868 30.77847,-3.79801 1.41848,-0.0161 1.74971,-0.91971 1.74845,-4.76988 -0.002,-6.0993 -2.57738,-11.14668 -6.99845,-13.71598 -5.42075,-3.15026 -18.16883,-2.73318 -27.93151,0.91384 -7.17744,2.68125 -7.47804,2.71254 -8.79239,0.91506 -2.17379,-2.97284 -1.13858,-6.55485 2.62494,-9.08275 5.41277,-3.63567 10.79376,-4.74531 23.09896,-4.76333 9.91488,-0.0145 12.20743,0.30329 16.63243,2.30573 6.07712,2.75006 9.62518,6.20546 11.99058,11.67743 1.41954,3.28387 1.80254,8.02824 2.13929,26.5 0.48333,26.51228 -0.0285,29.18412 -6.2623,32.69041 -8.11578,4.56485 -24.7384,6.52711 -36.15625,4.26817 z M 782.75,234.48554 787,232.78284 V 220.89142 209 h -2.53941 c -6.37556,0 -22.36941,2.19985 -26.19984,3.60361 C 752.63852,214.66403 750,218.14439 750,223.5 c 0,6.3153 3.94739,10.65222 11.5,12.63481 4.54467,1.193 16.46483,0.26784 21.25,-1.64927 z m -363.96834,10.38611 c -1.93122,-0.72267 -2.89009,-1.9372 -3.31149,-4.19443 -0.32624,-1.74747 -0.45298,-16.06828 -0.28166,-31.82403 0.35325,-32.48701 -0.0641,-30.85048 9.04469,-35.46961 10.01154,-5.07694 24.16296,-6.77874 35.73385,-4.29723 6.90524,1.48091 13.94582,6.40921 17.01985,11.91365 2.50384,4.48342 2.51422,4.6091 2.81712,34.1142 l 0.30401,29.61419 -3.17114,0.63423 c -1.82898,0.3658 -4.2855,0.10091 -5.80402,-0.62585 L 468.5,243.47669 468,216.44166 c -0.53872,-29.12864 -0.68279,-29.9046 -6.42432,-34.60136 -5.49279,-4.49328 -17.25484,-4.86024 -27.82568,-0.86812 L 428,183.1437 v 30.92815 c 0,24.06857 -0.27724,30.93118 -1.25,30.9418 -0.6875,0.008 -2.15,0.20751 -3.25,0.44443 -1.1,0.23693 -3.22325,-0.027 -4.71834,-0.58643 z m 105.43025,-3e-4 c -4.26142,-1.22898 -5.8796,-3.97912 -13.16325,-22.37135 -13.23552,-33.42147 -25.87048,-71.36125 -24.5024,-73.57486 1.23284,-1.99477 7.5469,-4.06359 10.45364,-3.42516 1.53599,0.33736 3.51985,1.41685 4.40856,2.39887 0.88872,0.98202 6.73715,17.04402 12.99651,35.69332 13.71944,40.8761 15.56549,45.84035 16.64154,44.75109 1.33835,-1.35479 16.39286,-47.41878 21.02848,-64.34326 2.335,-8.525 4.63939,-16.01543 5.12086,-16.64539 1.54329,-2.01926 7.46338,-2.52383 11.21588,-0.95594 4.62068,1.93065 5.24643,4.77802 3.04369,13.84994 -3.96579,16.33297 -24.45037,72.39367 -29.39279,80.44002 -2.8868,4.69977 -10.15369,6.40252 -17.85072,4.18272 z m 59.81632,0.0154 c -1.35947,-0.54254 -2.81508,-1.52651 -3.23469,-2.18661 -0.4196,-0.66011 -0.76981,-21.73259 -0.77823,-46.82775 -0.0118,-35.30236 0.26756,-45.86016 1.23469,-46.65547 3.45772,-2.84342 13.53884,-4.55892 27.25,-4.63712 17.74609,-0.10122 25.58443,1.99328 33.24921,8.88458 6.90494,6.20813 9.61706,12.66009 9.68313,23.03557 0.15029,23.59859 -14.17209,34.40886 -45.68234,34.48019 L 597,211 v 16.86916 16.86916 l -3.75,0.61983 c -4.83512,0.7992 -6.21476,0.72868 -9.22177,-0.47135 z m 36.7463,-49.41248 c 10.49422,-3.11645 15.58074,-11.64404 13.36893,-22.41309 -1.42498,-6.938 -5.68398,-11.55033 -12.54769,-13.58863 -5.15635,-1.53127 -14.38302,-1.89898 -20.84577,-0.83075 L 597,159.26168 V 178.13084 197 h 9.3185 c 5.44125,0 11.45613,-0.63481 14.45603,-1.52568 z M 816,244.73295 813.5,243.44123 813.24108,191.22062 812.98216,139 l 2.75892,-0.11515 c 4.27225,-0.17832 6.64553,0.21733 8.00892,1.33517 0.97077,0.79593 1.25,12.61364 1.25,52.90242 0,40.8281 -0.26624,51.88047 -1.25,51.89121 -0.6875,0.008 -2.15,0.23807 -3.25,0.51234 -1.1,0.27427 -3.125,-0.0826 -4.5,-0.79304 z M 101.25,187.31067 c 0.9625,-0.25152 2.5375,-0.25152 3.5,0 0.9625,0.25153 0.175,0.45733 -1.75,0.45733 -1.925,0 -2.7125,-0.2058 -1.75,-0.45733 z M 105,182 c -0.5887,-1.1 -0.84537,-2 -0.57037,-2 0.275,0 0.98167,0.9 1.57037,2 0.5887,1.1 0.84537,2 0.57037,2 -0.275,0 -0.98167,-0.9 -1.57037,-2 z m 8,-4 c -0.5887,-1.1 -0.84537,-2 -0.57037,-2 0.275,0 0.98167,0.9 1.57037,2 0.5887,1.1 0.84537,2 0.57037,2 -0.275,0 -0.98167,-0.9 -1.57037,-2 z m -12,-3 c -0.5887,-1.1 -0.84537,-2 -0.57037,-2 0.275,0 0.98167,0.9 1.57037,2 0.5887,1.1 0.84537,2 0.57037,2 -0.275,0 -0.98167,-0.9 -1.57037,-2 z"
         id="path8" />
    </g>
  </g>
</svg>
