<svg xmlns="http://www.w3.org/2000/svg" role="img" viewBox="0.42 0.74 23.02 26.65"><path style="text-indent:0;text-align:start;text-decoration-line:none;text-decoration-style:solid;text-decoration-color:#000;text-transform:none;text-orientation:mixed;shape-padding:0;shape-margin:0;inline-size:0;isolation:auto;mix-blend-mode:normal;solid-color:#000;solid-opacity:1" fill="#282828" fill-opacity="1" fill-rule="evenodd" stroke="none" stroke-dasharray="none" stroke-dashoffset="3.9" stroke-linecap="round" stroke-linejoin="round" stroke-miterlimit="4" stroke-opacity="1" d="M11.98633 1.26563a.50005.50005 0 0 0-.24024.06054L1.2422 7.07422a.50005.50005 0 0 0 0 .8789l3.29687 1.8047L1.2422 11.5625a.50005.50005 0 0 0 0 .87695l3.29687 1.8047-3.29687 1.80468a.50005.50005 0 0 0 0 .87695l10.5039 5.75a.50005.50005 0 0 0 .48047 0l10.5039-5.75a.50005.50005 0 0 0 0-.87695l-3.29687-1.80469 3.29688-1.80469a.50005.50005 0 0 0 0-.87695l-3.29688-1.80469 3.29688-1.80468a.50005.50005 0 0 0 0-.87891l-10.5039-5.74805a.50005.50005 0 0 0-.24024-.06055z" baseline-shift="baseline" clip-rule="nonzero" color="#000" color-interpolation="sRGB" color-interpolation-filters="linearRGB" color-rendering="auto" display="inline" dominant-baseline="auto" image-rendering="auto" overflow="visible" shape-rendering="auto" stop-color="#000" text-anchor="start" text-rendering="auto" vector-effect="none" visibility="visible" writing-mode="lr-tb"/><path fill="none" fill-opacity="1" fill-rule="evenodd" stroke="none" stroke-dasharray="none" stroke-dashoffset="3.9" stroke-linecap="round" stroke-linejoin="round" stroke-miterlimit="4" stroke-opacity="1" stroke-width="2.411" d="M12.00001 1.77233L1.50394 7.51717 5.59831 9.7586l-4.09437 2.24142 4.09437 2.24142-4.09437 2.24143 10.49607 5.7448 10.49608-5.7448-4.09436-2.24143 4.09436-2.24142-4.09436-2.24142 4.09436-2.24143z" paint-order="normal"/><path fill="#434343" fill-opacity="1" fill-rule="evenodd" stroke="none" stroke-dasharray="none" stroke-dashoffset="3.9" stroke-linecap="round" stroke-linejoin="miter" stroke-miterlimit="4" stroke-opacity="1" stroke-width=".603" d="M4.13382 15.04194l-2.6299 1.44093 10.4961 5.7448 10.49604-5.7448-2.6299-1.44093-7.86613 4.30625z" paint-order="stroke fill markers"/><path fill="#757575" fill-opacity="1" fill-rule="evenodd" stroke="none" stroke-dasharray="none" stroke-dashoffset="3.9" stroke-linecap="round" stroke-linejoin="miter" stroke-miterlimit="4" stroke-opacity="1" stroke-width=".603" d="M4.13382 10.55909l-2.6299 1.44093 10.49607 5.7448 10.49607-5.7448-2.6299-1.44093-7.86613 4.30626z" paint-order="stroke fill markers"/><path fill="#e7e7e7" fill-opacity="1" fill-rule="evenodd" stroke="none" stroke-dasharray="none" stroke-dashoffset="3.9" stroke-linecap="butt" stroke-linejoin="miter" stroke-miterlimit="4" stroke-opacity="1" stroke-width=".603" d="M12.00003 1.77233L1.50395 7.51717 12 13.26197l10.49607-5.7448zm0 2.6346l5.68125 3.11024-5.68125 3.1102-5.68125-3.1102z" paint-order="stroke fill markers"/><path d="M4.8673 25.44297c-.13568.17067-.31873.25574-.5497.25574-.23098 0-.41511-.08507-.55294-.25574-.1373-.17014-.20621-.41242-.20621-.72684 0-.3139.06892-.55617.2062-.72684.13784-.17014.32197-.25574.55294-.25574.23098 0 .41403.0856.54971.25681.13568.17068.20352.41296.20352.72577 0 .31442-.06784.5567-.20352.72684zm.3645.42426c.28104-.26651.4221-.64985.4221-1.1511 0-.51095-.14106-.89482-.4221-1.15056-.21106-.21752-.51579-.32574-.9142-.32574-.39896 0-.7037.10822-.9142.32574-.28267.25574-.42427.63961-.42427 1.15056 0 .50125.1416.88459.42426 1.1511.21052.21697.51525.32519.9142.32519.39842 0 .70315-.10822.9142-.3252zm-.9142-2.6274zm3.05003 1.42138c.07268.12222.10876.26328.10876.4221 0 .1933-.0393.34781-.11845.46357-.0786.1163-.19329.17444-.3435.17444-.10337 0-.19275-.02854-.26866-.08507-.1276-.09745-.19113-.26597-.19113-.50556 0-.15129.01884-.2762.05707-.37472.07322-.18575.20728-.27835.40272-.27835.16314 0 .2805.06137.35319.18359zm.41457-.38819c-.16744-.17767-.3715-.2665-.61216-.2665-.1653 0-.30797.04576-.42803.13783-.06569.05168-.1276.12275-.18521.21213v-.30474h-.51686v2.87506h.53355V25.8516c.05707.08722.11522.15345.17444.19921.10822.08184.24444.12276.40865.12276.25735 0 .46787-.0953.63154-.2859.16314-.19059.24497-.46733.24497-.83075 0-.34457-.08345-.6057-.2509-.7839zm1.16402.2859c.06891-.07807.16583-.11738.29074-.11738.11467 0 .21105.03715.28858.11091.07753.07376.1206.18198.12975.32466h-.83883c.01777-.13406.06084-.23959.12976-.3182zm.7543-.46572c-.1373-.06407-.29235-.09638-.46356-.09638-.28913 0-.5244.0953-.7053.2859-.18091.19059-.27136.46463-.27136.8216 0 .38118.10014.6563.30096.82536.20029.16906.4318.25359.69454.25359.3182 0 .56532-.10068.74191-.30097.1136-.12652.17714-.2509.19114-.37311h-.55079c-.02907.06084-.06245.10822-.10014.14214-.06945.06299-.1599.09476-.27081.09476-.105 0-.19437-.02585-.26867-.07807-.12275-.08292-.18736-.22828-.1949-.43503h1.41169c.00269-.17821-.00323-.31443-.0167-.40918-.02422-.16152-.07645-.30312-.1572-.42588-.08992-.13837-.20298-.24012-.34081-.30473zm-.42588-.09638zm2.9709.17337c-.13568-.11199-.31012-.16744-.52333-.16744-.17067 0-.3112.04145-.4221.1249-.06192.0463-.1276.12276-.19706.22883v-.30097h-.52063v2.05938h.53786v-1.11664c0-.1276.01777-.23205.05276-.31443.06838-.15506.19383-.23259.37688-.23259.1486 0 .24982.05277.30258.15883.02908.05815.04361.1416.04361.24982v1.25501h.55294v-1.38907c0-.25897-.06784-.44418-.20352-.55563zm-.722-.17337zm2.03246-.18736h.53786c.2649 0 .44203.07592.53086.22828.08884.15183.13353.36988.13353.65362 0 .20567-.02961.38334-.08884.53194-.10876.27135-.30043.40703-.57555.40703H13.556zm1.06765-.42372c-.11468-.03823-.25843-.05815-.43126-.06084h-1.20225v2.78999h1.20225c.42103 0 .73276-.17337.93466-.52063.14914-.25736.22344-.57125.22344-.9422 0-.14645-.01777-.30043-.05277-.46195-.03553-.16152-.10175-.31173-.19867-.45064-.12114-.17175-.27996-.28966-.4754-.35373zm1.43699.23097c-.26167.26328-.39196.63908-.39196 1.1258 0 .45064.11468.80544.34458 1.06388.22936.25735.54486.38603.94597.38603.32465 0 .59062-.0953.7979-.2859.20783-.19005.33704-.43771.38711-.7419h-.57716c-.0393.14375-.0883.25196-.14752.32357-.10714.13406-.26328.20083-.46787.20083-.1992 0-.36342-.07807-.49264-.23367-.12975-.15614-.19436-.39034-.19436-.70315 0-.31281.06138-.5551.1836-.72576.12275-.17122.28965-.25682.50178-.25682.20836 0 .36504.06084.4711.18198.05923.06784.10822.16906.14591.30258h.58309c-.00916-.1739-.07323-.34727-.19329-.52063-.21697-.30743-.55993-.46141-1.02942-.46141-.35104 0-.64016.11468-.86682.34457zm.8496-.37688zm1.94954.37688c-.26113.26328-.39196.63908-.39196 1.1258 0 .45064.11522.80544.34458 1.06388.2299.25735.5454.38603.9465.38603.32412 0 .5901-.0953.79792-.2859.20728-.19005.3365-.43771.3871-.7419h-.57716c-.0393.14375-.0883.25196-.14806.32357-.10714.13406-.26274.20083-.46733.20083-.1992 0-.36396-.07807-.49318-.23367-.12921-.15614-.19382-.39034-.19382-.70315 0-.31281.06138-.5551.1836-.72576.12221-.17122.28965-.25682.50178-.25682.20783 0 .36504.06084.4711.18198.05923.06784.10768.16906.14591.30258h.58255c-.00862-.1739-.07322-.34727-.19275-.52063-.21697-.30743-.56047-.46141-1.02996-.46141-.3505 0-.63962.11468-.86682.34457zm.85013-.37688z"/></svg>