<svg width="512" height="512" version="1.1" xmlns="http://www.w3.org/2000/svg"><path fill="rgb(195,195,195)" stroke="rgb(195,195,195)" stroke-width="1" opacity="1" d="M 148.5 168 L 161 168.5 L 148.5 169 L 148.5 168 Z "></path><path fill="rgb(195,195,195)" stroke="rgb(195,195,195)" stroke-width="1" opacity="1" d="M 292.5 168 L 296 168.5 L 292.5 169 L 292.5 168 Z "></path><path fill="rgb(195,195,195)" stroke="rgb(195,195,195)" stroke-width="1" opacity="1" d="M 302.5 168 L 306 168.5 L 302.5 169 L 302.5 168 Z "></path><path fill="rgb(195,195,195)" stroke="rgb(195,195,195)" stroke-width="1" opacity="1" d="M 363.5 171 L 390 171.5 L 363.5 172 L 363.5 171 Z "></path><path fill="rgb(195,195,195)" stroke="rgb(195,195,195)" stroke-width="1" opacity="1" d="M 327.5 176 L 328.5 178 L 327.5 176 Z "></path><path fill="rgb(195,195,195)" stroke="rgb(195,195,195)" stroke-width="1" opacity="1" d="M 331.5 179 L 338.5 187 L 331.5 179 Z "></path><path fill="rgb(195,195,195)" stroke="rgb(195,195,195)" stroke-width="1" opacity="1" d="M 263.5 180 L 257.5 187 L 263.5 180 Z "></path><path fill="rgb(195,195,195)" stroke="rgb(195,195,195)" stroke-width="1" opacity="1" d="M 105.5 182 L 104.5 184 L 105.5 182 Z "></path><path fill="rgb(195,195,195)" stroke="rgb(195,195,195)" stroke-width="1" opacity="1" d="M 102.5 184 L 101.5 186 L 102.5 184 Z "></path><path fill="rgb(195,195,195)" stroke="rgb(195,195,195)" stroke-width="1" opacity="1" d="M 205.5 184 L 206.5 186 L 205.5 184 Z "></path><path fill="rgb(195,195,195)" stroke="rgb(195,195,195)" stroke-width="1" opacity="1" d="M 209.5 187 L 211.5 190 L 209.5 187 Z "></path><path fill="rgb(195,195,195)" stroke="rgb(195,195,195)" stroke-width="1" opacity="1" d="M 97.5 188 L 95.5 191 L 97.5 188 Z "></path><path fill="rgb(195,195,195)" stroke="rgb(195,195,195)" stroke-width="1" opacity="1" d="M 340.5 189 L 341.5 191 L 340.5 189 Z "></path><path fill="rgb(195,195,195)" stroke="rgb(195,195,195)" stroke-width="1" opacity="1" d="M 147.5 193 L 151 193.5 L 147.5 194 L 147.5 193 Z "></path><path fill="rgb(195,195,195)" stroke="rgb(195,195,195)" stroke-width="1" opacity="1" d="M 157.5 193 L 161 193.5 L 157.5 194 L 157.5 193 Z "></path><path fill="rgb(195,195,195)" stroke="rgb(195,195,195)" stroke-width="1" opacity="1" d="M 293.5 193 L 296 193.5 L 293.5 194 L 293.5 193 Z "></path><path fill="rgb(195,195,195)" stroke="rgb(195,195,195)" stroke-width="1" opacity="1" d="M 314.5 197 L 315.5 199 L 314.5 197 Z "></path><path fill="rgb(195,195,195)" stroke="rgb(195,195,195)" stroke-width="1" opacity="1" d="M 282.5 198 L 281.5 200 L 282.5 198 Z "></path><path fill="rgb(195,195,195)" stroke="rgb(195,195,195)" stroke-width="1" opacity="1" d="M 85.5 200 L 83.5 203 L 85.5 200 Z "></path><path fill="rgb(195,195,195)" stroke="rgb(195,195,195)" stroke-width="1" opacity="1" d="M 222.5 200 L 224.5 203 L 222.5 200 Z "></path><path fill="rgb(195,195,195)" stroke="rgb(195,195,195)" stroke-width="1" opacity="1" d="M 317.5 200 L 319.5 203 L 317.5 200 Z "></path><path fill="rgb(195,195,195)" stroke="rgb(195,195,195)" stroke-width="1" opacity="1" d="M 190.5 204 L 191.5 206 L 190.5 204 Z "></path><path fill="rgb(195,195,195)" stroke="rgb(195,195,195)" stroke-width="1" opacity="1" d="M 81.5 205 L 80.5 207 L 81.5 205 Z "></path><path fill="rgb(195,195,195)" stroke="rgb(195,195,195)" stroke-width="1" opacity="1" d="M 116.5 205 L 115.5 207 L 116.5 205 Z "></path><path fill="rgb(195,195,195)" stroke="rgb(195,195,195)" stroke-width="1" opacity="1" d="M 226.5 205 L 227.5 207 L 226.5 205 Z "></path><path fill="rgb(195,195,195)" stroke="rgb(195,195,195)" stroke-width="1" opacity="1" d="M 195.5 208 L 201.5 215 L 195.5 208 Z "></path><path fill="rgb(195,195,195)" stroke="rgb(195,195,195)" stroke-width="1" opacity="1" d="M 110.5 210 L 108.5 213 L 110.5 210 Z "></path><path fill="rgb(195,195,195)" stroke="rgb(195,195,195)" stroke-width="1" opacity="1" d="M 104.5 217 L 103.5 219 L 104.5 217 Z "></path><path fill="rgb(195,195,195)" stroke="rgb(195,195,195)" stroke-width="1" opacity="1" d="M 438.5 232 L 439.5 234 L 438.5 232 Z "></path><path fill="rgb(195,195,195)" stroke="rgb(195,195,195)" stroke-width="1" opacity="1" d="M 442.5 235 L 443.5 237 L 442.5 235 Z "></path><path fill="rgb(195,195,195)" stroke="rgb(195,195,195)" stroke-width="1" opacity="1" d="M 446.5 238 L 447.5 240 L 446.5 238 Z "></path><path fill="rgb(195,195,195)" stroke="rgb(195,195,195)" stroke-width="1" opacity="1" d="M 450.5 241 L 451.5 243 L 450.5 241 Z "></path><path fill="rgb(195,195,195)" stroke="rgb(195,195,195)" stroke-width="1" opacity="1" d="M 454.5 244 L 455.5 246 L 454.5 244 Z "></path><path fill="rgb(195,195,195)" stroke="rgb(195,195,195)" stroke-width="1" opacity="1" d="M 320.5 245 L 321 247 L 316 246.5 L 320.5 245 Z "></path><path fill="rgb(195,195,195)" stroke="rgb(195,195,195)" stroke-width="1" opacity="1" d="M 370.5 245 L 383 245.5 L 370.5 246 L 370.5 245 Z "></path><path fill="rgb(195,195,195)" stroke="rgb(195,195,195)" stroke-width="1" opacity="1" d="M 264.5 246 L 265.5 247 L 276 247.5 L 265.5 248 L 264.5 246 Z "></path><path fill="rgb(195,195,195)" stroke="rgb(195,195,195)" stroke-width="1" opacity="1" d="M 164.5 247 L 165 249.5 L 164 249.5 L 164.5 247 Z "></path><path fill="rgb(195,195,195)" stroke="rgb(195,195,195)" stroke-width="1" opacity="1" d="M 443.5 247 L 444 249 L 437 248.5 L 443.5 247 Z "></path><path fill="rgb(195,195,195)" stroke="rgb(195,195,195)" stroke-width="1" opacity="1" d="M 458.5 247 L 459.5 249 L 458.5 247 Z "></path><path fill="rgb(195,195,195)" stroke="rgb(195,195,195)" stroke-width="1" opacity="1" d="M 216.5 248 L 223 248.5 L 216.5 249 L 216.5 248 Z "></path><path fill="rgb(195,195,195)" stroke="rgb(195,195,195)" stroke-width="1" opacity="1" d="M 383.5 249 L 397 249.5 L 383.5 250 L 383.5 249 Z "></path><path fill="rgb(195,195,195)" stroke="rgb(195,195,195)" stroke-width="1" opacity="1" d="M 91.5 250 L 92 254.5 L 91 254.5 L 91.5 250 Z "></path><path fill="rgb(195,195,195)" stroke="rgb(195,195,195)" stroke-width="1" opacity="1" d="M 137.5 250 L 140 250.5 L 137.5 251 L 137.5 250 Z "></path><path fill="rgb(195,195,195)" stroke="rgb(195,195,195)" stroke-width="1" opacity="1" d="M 330.5 250 L 344 250.5 L 330.5 251 L 330.5 250 Z "></path><path fill="rgb(195,195,195)" stroke="rgb(195,195,195)" stroke-width="1" opacity="1" d="M 130.5 251 L 133 251.5 L 130.5 252 L 130.5 251 Z "></path><path fill="rgb(195,195,195)" stroke="rgb(195,195,195)" stroke-width="1" opacity="1" d="M 276.5 251 L 290 251.5 L 276.5 252 L 276.5 251 Z "></path><path fill="rgb(195,195,195)" stroke="rgb(195,195,195)" stroke-width="1" opacity="1" d="M 223.5 252 L 237 252.5 L 223.5 253 L 223.5 252 Z "></path><path fill="rgb(195,195,195)" stroke="rgb(195,195,195)" stroke-width="1" opacity="1" d="M 169.5 253 L 183 253.5 Q 178.2 256.6 168.5 255 L 169.5 253 Z "></path><path fill="rgb(195,195,195)" stroke="rgb(195,195,195)" stroke-width="1" opacity="1" d="M 214.5 255 L 226 255.5 L 214.5 256 L 214.5 255 Z "></path><path fill="rgb(195,195,195)" stroke="rgb(195,195,195)" stroke-width="1" opacity="1" d="M 260.5 256 L 272 256.5 L 260.5 257 L 260.5 256 Z "></path><path fill="rgb(195,195,195)" stroke="rgb(195,195,195)" stroke-width="1" opacity="1" d="M 307.5 257 L 319 257.5 L 307.5 258 L 307.5 257 Z "></path><path fill="rgb(195,195,195)" stroke="rgb(195,195,195)" stroke-width="1" opacity="1" d="M 353.5 258 L 365 258.5 L 353.5 259 L 353.5 258 Z "></path><path fill="rgb(195,195,195)" stroke="rgb(195,195,195)" stroke-width="1" opacity="1" d="M 461.5 258 L 460.5 260 L 461.5 258 Z "></path><path fill="rgb(195,195,195)" stroke="rgb(195,195,195)" stroke-width="1" opacity="1" d="M 91.5 259 L 92 263.5 L 91 263.5 L 91.5 259 Z "></path><path fill="rgb(195,195,195)" stroke="rgb(195,195,195)" stroke-width="1" opacity="1" d="M 399.5 259 L 411 259.5 L 399.5 260 L 399.5 259 Z "></path><path fill="rgb(195,195,195)" stroke="rgb(195,195,195)" stroke-width="1" opacity="1" d="M 216.5 261 L 217 264.5 L 216 264.5 L 216.5 261 Z "></path><path fill="rgb(195,195,195)" stroke="rgb(195,195,195)" stroke-width="1" opacity="1" d="M 294.5 261 L 307 261.5 L 296.5 262 L 295.5 263 L 294.5 261 Z "></path><path fill="rgb(195,195,195)" stroke="rgb(195,195,195)" stroke-width="1" opacity="1" d="M 457.5 261 L 456.5 263 L 457.5 261 Z "></path><path fill="rgb(195,195,195)" stroke="rgb(195,195,195)" stroke-width="1" opacity="1" d="M 387.5 263 L 390 263.5 L 387.5 264 L 387.5 263 Z "></path><path fill="rgb(195,195,195)" stroke="rgb(195,195,195)" stroke-width="1" opacity="1" d="M 453.5 264 L 452.5 266 L 453.5 264 Z "></path><path fill="rgb(195,195,195)" stroke="rgb(195,195,195)" stroke-width="1" opacity="1" d="M 138.5 265 L 133.5 271 L 138.5 265 Z "></path><path fill="rgb(195,195,195)" stroke="rgb(195,195,195)" stroke-width="1" opacity="1" d="M 449.5 267 L 448.5 269 L 449.5 267 Z "></path><path fill="rgb(195,195,195)" stroke="rgb(195,195,195)" stroke-width="1" opacity="1" d="M 65.5 268 L 66 270.5 L 65 270.5 L 65.5 268 Z "></path><path fill="rgb(195,195,195)" stroke="rgb(195,195,195)" stroke-width="1" opacity="1" d="M 151.5 268 L 153 268.5 L 150.5 270 L 151.5 268 Z "></path><path fill="rgb(195,195,195)" stroke="rgb(195,195,195)" stroke-width="1" opacity="1" d="M 242.5 269 L 243 271.5 L 242 271.5 L 242.5 269 Z "></path><path fill="rgb(195,195,195)" stroke="rgb(195,195,195)" stroke-width="1" opacity="1" d="M 311.5 270 L 312.5 272 L 311.5 270 Z "></path><path fill="rgb(195,195,195)" stroke="rgb(195,195,195)" stroke-width="1" opacity="1" d="M 445.5 270 L 444.5 272 L 445.5 270 Z "></path><path fill="rgb(195,195,195)" stroke="rgb(195,195,195)" stroke-width="1" opacity="1" d="M 441.5 273 L 440.5 275 L 441.5 273 Z "></path><path fill="rgb(195,195,195)" stroke="rgb(195,195,195)" stroke-width="1" opacity="1" d="M 143.5 275 L 138.5 281 L 143.5 275 Z "></path><path fill="rgb(195,195,195)" stroke="rgb(195,195,195)" stroke-width="1" opacity="1" d="M 436.5 275 L 437.5 277 L 436.5 275 Z "></path><path fill="rgb(195,195,195)" stroke="rgb(195,195,195)" stroke-width="1" opacity="1" d="M 127.5 277 L 122.5 283 L 127.5 277 Z "></path><path fill="rgb(195,195,195)" stroke="rgb(195,195,195)" stroke-width="1" opacity="1" d="M 349.5 281 L 350 283.5 L 349 283.5 L 349.5 281 Z "></path><path fill="rgb(195,195,195)" stroke="rgb(195,195,195)" stroke-width="1" opacity="1" d="M 131.5 286 L 126.5 292 L 131.5 286 Z "></path><path fill="rgb(195,195,195)" stroke="rgb(195,195,195)" stroke-width="1" opacity="1" d="M 115.5 290 L 111.5 295 L 115.5 290 Z "></path><path fill="rgb(195,195,195)" stroke="rgb(195,195,195)" stroke-width="1" opacity="1" d="M 323.5 290 L 324 295.5 L 323 295.5 L 323.5 290 Z "></path><path fill="rgb(195,195,195)" stroke="rgb(195,195,195)" stroke-width="1" opacity="1" d="M 204.5 295 L 203.5 297 L 204.5 295 Z "></path><path fill="rgb(195,195,195)" stroke="rgb(195,195,195)" stroke-width="1" opacity="1" d="M 119.5 297 L 114.5 303 L 119.5 297 Z "></path><path fill="rgb(195,195,195)" stroke="rgb(195,195,195)" stroke-width="1" opacity="1" d="M 199.5 301 L 196.5 305 L 199.5 301 Z "></path><path fill="rgb(195,195,195)" stroke="rgb(195,195,195)" stroke-width="1" opacity="1" d="M 104.5 302 L 99.5 308 L 104.5 302 Z "></path><path fill="rgb(195,195,195)" stroke="rgb(195,195,195)" stroke-width="1" opacity="1" d="M 97.5 303 L 92.5 309 L 97.5 303 Z "></path><path fill="rgb(195,195,195)" stroke="rgb(195,195,195)" stroke-width="1" opacity="1" d="M 115.5 307 L 113.5 310 L 115.5 307 Z "></path><path fill="rgb(195,195,195)" stroke="rgb(195,195,195)" stroke-width="1" opacity="1" d="M 192.5 307 L 191.5 309 L 192.5 307 Z "></path><path fill="rgb(195,195,195)" stroke="rgb(195,195,195)" stroke-width="1" opacity="1" d="M 80.5 308 L 81.5 310 L 80.5 308 Z "></path><path fill="rgb(195,195,195)" stroke="rgb(195,195,195)" stroke-width="1" opacity="1" d="M 107.5 308 L 102.5 314 L 107.5 308 Z "></path><path fill="rgb(195,195,195)" stroke="rgb(195,195,195)" stroke-width="1" opacity="1" d="M 118.5 309 L 119.5 311 L 118.5 309 Z "></path><path fill="rgb(195,195,195)" stroke="rgb(195,195,195)" stroke-width="1" opacity="1" d="M 318.5 309 L 317.5 311 L 318.5 309 Z "></path><path fill="rgb(195,195,195)" stroke="rgb(195,195,195)" stroke-width="1" opacity="1" d="M 225.5 310 L 224.5 312 L 225.5 310 Z "></path><path fill="rgb(195,195,195)" stroke="rgb(195,195,195)" stroke-width="1" opacity="1" d="M 273.5 310 L 274.5 312 L 273.5 310 Z "></path><path fill="rgb(195,195,195)" stroke="rgb(195,195,195)" stroke-width="1" opacity="1" d="M 83.5 312 L 85.5 315 L 83.5 312 Z "></path><path fill="rgb(195,195,195)" stroke="rgb(195,195,195)" stroke-width="1" opacity="1" d="M 93.5 314 L 88.5 320 L 93.5 314 Z "></path><path fill="rgb(195,195,195)" stroke="rgb(195,195,195)" stroke-width="1" opacity="1" d="M 277.5 314 L 278.5 316 L 277.5 314 Z "></path><path fill="rgb(195,195,195)" stroke="rgb(195,195,195)" stroke-width="1" opacity="1" d="M 106.5 315 L 101.5 321 L 106.5 315 Z "></path><path fill="rgb(195,195,195)" stroke="rgb(195,195,195)" stroke-width="1" opacity="1" d="M 220.5 316 L 214.5 323 L 220.5 316 Z "></path><path fill="rgb(195,195,195)" stroke="rgb(195,195,195)" stroke-width="1" opacity="1" d="M 95.5 319 L 90.5 325 L 95.5 319 Z "></path><path fill="rgb(195,195,195)" stroke="rgb(195,195,195)" stroke-width="1" opacity="1" d="M 146.5 320 L 149 320.5 L 146.5 321 L 146.5 320 Z "></path><path fill="rgb(195,195,195)" stroke="rgb(195,195,195)" stroke-width="1" opacity="1" d="M 158.5 320 L 162 320.5 L 158.5 321 L 158.5 320 Z "></path><path fill="rgb(195,195,195)" stroke="rgb(195,195,195)" stroke-width="1" opacity="1" d="M 290.5 320 L 293 320.5 L 290.5 321 L 290.5 320 Z "></path><path fill="rgb(195,195,195)" stroke="rgb(195,195,195)" stroke-width="1" opacity="1" d="M 339.5 324 L 338.5 326 L 339.5 324 Z "></path><path fill="rgb(195,195,195)" stroke="rgb(195,195,195)" stroke-width="1" opacity="1" d="M 210.5 325 L 208.5 328 L 210.5 325 Z "></path><path fill="rgb(195,195,195)" stroke="rgb(195,195,195)" stroke-width="1" opacity="1" d="M 82.5 326 L 77.5 332 L 82.5 326 Z "></path><path fill="rgb(195,195,195)" stroke="rgb(195,195,195)" stroke-width="1" opacity="1" d="M 98.5 326 L 99.5 328 L 98.5 326 Z "></path><path fill="rgb(195,195,195)" stroke="rgb(195,195,195)" stroke-width="1" opacity="1" d="M 252.5 326 L 254.5 329 L 252.5 326 Z "></path><path fill="rgb(195,195,195)" stroke="rgb(195,195,195)" stroke-width="1" opacity="1" d="M 102.5 329 L 103.5 331 L 102.5 329 Z "></path><path fill="rgb(195,195,195)" stroke="rgb(195,195,195)" stroke-width="1" opacity="1" d="M 83.5 330 L 78.5 336 L 83.5 330 Z "></path><path fill="rgb(195,195,195)" stroke="rgb(195,195,195)" stroke-width="1" opacity="1" d="M 105.5 331 L 106.5 333 L 105.5 331 Z "></path><path fill="rgb(195,195,195)" stroke="rgb(195,195,195)" stroke-width="1" opacity="1" d="M 259.5 333 L 260.5 335 L 259.5 333 Z "></path><path fill="rgb(195,195,195)" stroke="rgb(195,195,195)" stroke-width="1" opacity="1" d="M 330.5 333 L 329.5 335 L 330.5 333 Z "></path><path fill="rgb(195,195,195)" stroke="rgb(195,195,195)" stroke-width="1" opacity="1" d="M 71.5 338 L 66.5 344 L 71.5 338 Z "></path><path fill="rgb(195,195,195)" stroke="rgb(195,195,195)" stroke-width="1" opacity="1" d="M 71.5 341 L 66.5 347 L 71.5 341 Z "></path><path fill="rgb(195,195,195)" stroke="rgb(195,195,195)" stroke-width="1" opacity="1" d="M 363.5 342 L 440 342.5 L 363.5 343 L 363.5 342 Z "></path><path fill="rgb(195,195,195)" stroke="rgb(195,195,195)" stroke-width="1" opacity="1" d="M 145.5 345 L 150 345.5 L 145.5 346 L 145.5 345 Z "></path><path fill="rgb(195,195,195)" stroke="rgb(195,195,195)" stroke-width="1" opacity="1" d="M 157.5 345 L 162 345.5 L 157.5 346 L 157.5 345 Z "></path><path fill="rgb(195,195,195)" stroke="rgb(195,195,195)" stroke-width="1" opacity="1" d="M 288.5 345 L 292 345.5 L 288.5 346 L 288.5 345 Z "></path><path fill="rgb(195,195,195)" stroke="rgb(195,195,195)" stroke-width="1" opacity="1" d="M 298.5 345 L 302 345.5 L 298.5 346 L 298.5 345 Z "></path><path fill="rgb(195,195,195)" stroke="rgb(195,195,195)" stroke-width="1" opacity="1" d="M 59.5 351 L 59 352.5 L 55.5 357 L 55 355.5 L 59.5 351 Z "></path><path fill="rgb(255,255,255)" stroke="rgb(255,255,255)" stroke-width="1" opacity="1" d="M 0 0 L 512 0 L 512 512 L 0 512 L 0 0 Z M 149 168 L 124 173 Q 109 179 98 188 Q 72 207 65 244 L 65 271 L 68 285 Q 73 301 83 313 L 87 315 L 104 297 L 96 283 L 93 274 L 92 260 L 91 259 L 94 237 Q 98 225 105 217 L 122 202 L 135 196 L 152 193 L 171 195 Q 184 198 193 206 Q 212 220 216 249 L 223 249 L 224 248 L 243 248 Q 240 219 225 203 Q 210 184 188 174 L 170 169 L 149 168 Z M 293 168 L 277 172 L 264 180 Q 252 189 248 206 Q 246 220 250 229 Q 255 241 266 248 L 276 248 L 277 247 L 321 247 L 321 245 L 294 234 L 283 228 Q 277 224 275 218 Q 274 206 279 202 L 289 195 L 297 193 L 308 194 L 317 199 L 325 210 L 346 198 L 339 187 Q 332 177 321 172 L 306 168 L 293 168 Z M 363 171 L 363 246 L 383 246 L 384 245 L 390 245 L 390 171 L 363 171 Z M 436 230 L 435 232 L 443 248 L 437 249 L 277 251 L 276 252 L 224 252 L 223 253 L 170 253 L 168 255 L 444 261 L 436 277 L 441 275 L 467 255 L 436 230 Z M 160 247 L 159 248 L 138 250 L 125 253 L 144 260 L 55 356 L 56 357 L 150 270 L 153 269 L 159 285 L 160 283 L 163 257 L 165 250 L 165 247 L 160 247 Z M 218 260 L 216 262 L 216 269 L 212 283 L 203 298 L 187 312 L 171 319 L 159 320 L 158 321 Q 129 321 116 307 L 107 315 L 97 326 Q 107 335 121 340 L 138 345 Q 144 343 146 346 L 170 345 L 188 340 Q 203 333 215 323 Q 226 312 234 299 L 240 285 L 243 272 L 243 260 L 218 260 Z M 295 261 L 296 263 L 314 272 Q 321 277 323 287 L 323 300 L 317 312 L 311 317 L 299 321 L 288 320 L 277 314 L 270 305 L 267 289 L 242 294 L 240 296 Q 242 315 252 327 L 265 338 L 278 344 L 289 346 Q 316 347 330 335 Q 346 324 350 301 L 350 282 Q 347 270 342 262 L 295 261 Z M 363 263 L 363 343 L 440 343 L 440 318 L 390 318 L 390 263 L 363 263 Z "></path><path fill="rgb(82,82,82)" stroke="rgb(82,82,82)" stroke-width="1" opacity="1" d="M 296.5 168 L 302 168.5 L 296.5 169 L 296.5 168 Z "></path><path fill="rgb(82,82,82)" stroke="rgb(82,82,82)" stroke-width="1" opacity="1" d="M 141.5 169 L 145 169.5 L 141.5 170 L 141.5 169 Z "></path><path fill="rgb(82,82,82)" stroke="rgb(82,82,82)" stroke-width="1" opacity="1" d="M 164.5 169 L 168 169.5 L 164.5 170 L 164.5 169 Z "></path><path fill="rgb(82,82,82)" stroke="rgb(82,82,82)" stroke-width="1" opacity="1" d="M 363.5 172 L 364 245 L 370 245.5 L 364.5 246 L 363 244.5 L 363.5 172 Z "></path><path fill="rgb(82,82,82)" stroke="rgb(82,82,82)" stroke-width="1" opacity="1" d="M 389.5 172 L 390 244.5 L 389 244.5 L 389.5 172 Z "></path><path fill="rgb(82,82,82)" stroke="rgb(82,82,82)" stroke-width="1" opacity="1" d="M 269.5 176 L 268.5 178 L 269.5 176 Z "></path><path fill="rgb(82,82,82)" stroke="rgb(82,82,82)" stroke-width="1" opacity="1" d="M 266.5 178 L 265.5 180 L 266.5 178 Z "></path><path fill="rgb(82,82,82)" stroke="rgb(82,82,82)" stroke-width="1" opacity="1" d="M 329.5 178 L 330.5 180 L 329.5 178 Z "></path><path fill="rgb(82,82,82)" stroke="rgb(82,82,82)" stroke-width="1" opacity="1" d="M 100.5 186 L 99.5 188 L 100.5 186 Z "></path><path fill="rgb(82,82,82)" stroke="rgb(82,82,82)" stroke-width="1" opacity="1" d="M 207.5 186 L 208.5 188 L 207.5 186 Z "></path><path fill="rgb(82,82,82)" stroke="rgb(82,82,82)" stroke-width="1" opacity="1" d="M 338.5 187 L 339.5 189 L 338.5 187 Z "></path><path fill="rgb(82,82,82)" stroke="rgb(82,82,82)" stroke-width="1" opacity="1" d="M 256.5 188 L 255.5 190 L 256.5 188 Z "></path><path fill="rgb(82,82,82)" stroke="rgb(82,82,82)" stroke-width="1" opacity="1" d="M 212.5 190 L 221.5 200 L 212.5 190 Z "></path><path fill="rgb(82,82,82)" stroke="rgb(82,82,82)" stroke-width="1" opacity="1" d="M 94.5 191 L 86.5 200 L 94.5 191 Z "></path><path fill="rgb(82,82,82)" stroke="rgb(82,82,82)" stroke-width="1" opacity="1" d="M 144.5 193 L 147 193.5 L 144.5 194 L 144.5 193 Z "></path><path fill="rgb(82,82,82)" stroke="rgb(82,82,82)" stroke-width="1" opacity="1" d="M 161.5 193 L 165 193.5 L 161.5 194 L 161.5 193 Z "></path><path fill="rgb(82,82,82)" stroke="rgb(82,82,82)" stroke-width="1" opacity="1" d="M 284.5 196 L 283.5 198 L 284.5 196 Z "></path><path fill="rgb(82,82,82)" stroke="rgb(82,82,82)" stroke-width="1" opacity="1" d="M 280.5 199 L 279.5 201 L 280.5 199 Z "></path><path fill="rgb(82,82,82)" stroke="rgb(82,82,82)" stroke-width="1" opacity="1" d="M 83.5 203 L 82.5 205 L 83.5 203 Z "></path><path fill="rgb(82,82,82)" stroke="rgb(82,82,82)" stroke-width="1" opacity="1" d="M 118.5 203 L 117.5 205 L 118.5 203 Z "></path><path fill="rgb(82,82,82)" stroke="rgb(82,82,82)" stroke-width="1" opacity="1" d="M 224.5 203 L 225.5 205 L 224.5 203 Z "></path><path fill="rgb(82,82,82)" stroke="rgb(82,82,82)" stroke-width="1" opacity="1" d="M 192.5 205 L 194.5 208 L 192.5 205 Z "></path><path fill="rgb(82,82,82)" stroke="rgb(82,82,82)" stroke-width="1" opacity="1" d="M 114.5 206 L 111.5 210 L 114.5 206 Z "></path><path fill="rgb(82,82,82)" stroke="rgb(82,82,82)" stroke-width="1" opacity="1" d="M 227.5 207 L 228.5 209 L 227.5 207 Z "></path><path fill="rgb(82,82,82)" stroke="rgb(82,82,82)" stroke-width="1" opacity="1" d="M 248.5 207 L 249 210.5 L 248 210.5 L 248.5 207 Z "></path><path fill="rgb(82,82,82)" stroke="rgb(82,82,82)" stroke-width="1" opacity="1" d="M 229.5 210 L 230.5 212 L 229.5 210 Z "></path><path fill="rgb(82,82,82)" stroke="rgb(82,82,82)" stroke-width="1" opacity="1" d="M 274.5 210 L 275 216.5 L 274 216.5 L 274.5 210 Z "></path><path fill="rgb(82,82,82)" stroke="rgb(82,82,82)" stroke-width="1" opacity="1" d="M 107.5 213 L 104.5 217 L 107.5 213 Z "></path><path fill="rgb(82,82,82)" stroke="rgb(82,82,82)" stroke-width="1" opacity="1" d="M 202.5 215 L 203.5 217 L 202.5 215 Z "></path><path fill="rgb(82,82,82)" stroke="rgb(82,82,82)" stroke-width="1" opacity="1" d="M 248.5 216 L 249 219.5 L 248 219.5 L 248.5 216 Z "></path><path fill="rgb(82,82,82)" stroke="rgb(82,82,82)" stroke-width="1" opacity="1" d="M 205.5 219 L 206.5 221 L 205.5 219 Z "></path><path fill="rgb(82,82,82)" stroke="rgb(82,82,82)" stroke-width="1" opacity="1" d="M 277.5 223 L 282.5 229 L 277.5 223 Z "></path><path fill="rgb(82,82,82)" stroke="rgb(82,82,82)" stroke-width="1" opacity="1" d="M 435.5 231 L 438 232.5 L 436.5 232 L 435.5 231 Z "></path><path fill="rgb(82,82,82)" stroke="rgb(82,82,82)" stroke-width="1" opacity="1" d="M 440.5 234 L 441.5 236 L 440.5 234 Z "></path><path fill="rgb(82,82,82)" stroke="rgb(82,82,82)" stroke-width="1" opacity="1" d="M 444.5 237 L 445.5 239 L 444.5 237 Z "></path><path fill="rgb(82,82,82)" stroke="rgb(82,82,82)" stroke-width="1" opacity="1" d="M 256.5 238 L 263.5 246 L 256.5 238 Z "></path><path fill="rgb(82,82,82)" stroke="rgb(82,82,82)" stroke-width="1" opacity="1" d="M 241.5 239 L 242 241.5 L 241 241.5 L 241.5 239 Z "></path><path fill="rgb(82,82,82)" stroke="rgb(82,82,82)" stroke-width="1" opacity="1" d="M 448.5 240 L 449.5 242 L 448.5 240 Z "></path><path fill="rgb(82,82,82)" stroke="rgb(82,82,82)" stroke-width="1" opacity="1" d="M 452.5 243 L 453.5 245 L 452.5 243 Z "></path><path fill="rgb(82,82,82)" stroke="rgb(82,82,82)" stroke-width="1" opacity="1" d="M 65.5 245 L 66 249.5 L 65 249.5 L 65.5 245 Z "></path><path fill="rgb(82,82,82)" stroke="rgb(82,82,82)" stroke-width="1" opacity="1" d="M 242.5 245 L 243 248 L 236 247.5 L 242 247 L 242.5 245 Z "></path><path fill="rgb(82,82,82)" stroke="rgb(82,82,82)" stroke-width="1" opacity="1" d="M 91.5 246 L 92 249.5 L 91 249.5 L 91.5 246 Z "></path><path fill="rgb(82,82,82)" stroke="rgb(82,82,82)" stroke-width="1" opacity="1" d="M 290.5 246 L 316 246.5 L 290.5 247 L 290.5 246 Z "></path><path fill="rgb(82,82,82)" stroke="rgb(82,82,82)" stroke-width="1" opacity="1" d="M 456.5 246 L 457.5 248 L 456.5 246 Z "></path><path fill="rgb(82,82,82)" stroke="rgb(82,82,82)" stroke-width="1" opacity="1" d="M 161.5 247 L 164 247.5 L 161.5 248 L 161.5 247 Z "></path><path fill="rgb(82,82,82)" stroke="rgb(82,82,82)" stroke-width="1" opacity="1" d="M 154.5 248 L 157 248.5 L 154.5 249 L 154.5 248 Z "></path><path fill="rgb(82,82,82)" stroke="rgb(82,82,82)" stroke-width="1" opacity="1" d="M 147.5 249 L 150 249.5 L 147.5 250 L 147.5 249 Z "></path><path fill="rgb(82,82,82)" stroke="rgb(82,82,82)" stroke-width="1" opacity="1" d="M 397.5 249 L 424 249.5 L 397.5 250 L 397.5 249 Z "></path><path fill="rgb(82,82,82)" stroke="rgb(82,82,82)" stroke-width="1" opacity="1" d="M 460.5 249 L 461.5 251 L 460.5 249 Z "></path><path fill="rgb(82,82,82)" stroke="rgb(82,82,82)" stroke-width="1" opacity="1" d="M 140.5 250 L 143 250.5 L 140.5 251 L 140.5 250 Z "></path><path fill="rgb(82,82,82)" stroke="rgb(82,82,82)" stroke-width="1" opacity="1" d="M 344.5 250 L 370 250.5 L 344.5 251 L 344.5 250 Z "></path><path fill="rgb(82,82,82)" stroke="rgb(82,82,82)" stroke-width="1" opacity="1" d="M 133.5 251 L 136 251.5 L 133.5 252 L 133.5 251 Z "></path><path fill="rgb(82,82,82)" stroke="rgb(82,82,82)" stroke-width="1" opacity="1" d="M 163.5 251 L 164 253.5 L 163 253.5 L 163.5 251 Z "></path><path fill="rgb(82,82,82)" stroke="rgb(82,82,82)" stroke-width="1" opacity="1" d="M 290.5 251 L 317 251.5 L 290.5 252 L 290.5 251 Z "></path><path fill="rgb(82,82,82)" stroke="rgb(82,82,82)" stroke-width="1" opacity="1" d="M 125.5 252 Q 128.8 250.9 128 253.5 L 126.5 253 L 125.5 252 Z "></path><path fill="rgb(82,82,82)" stroke="rgb(82,82,82)" stroke-width="1" opacity="1" d="M 237.5 252 L 263 252.5 L 237.5 253 L 237.5 252 Z "></path><path fill="rgb(82,82,82)" stroke="rgb(82,82,82)" stroke-width="1" opacity="1" d="M 464.5 252 Q 469 254 465.5 256 L 464.5 252 Z "></path><path fill="rgb(82,82,82)" stroke="rgb(82,82,82)" stroke-width="1" opacity="1" d="M 183.5 253 L 210 253.5 L 202.5 255 L 180.5 255 L 180.5 254 L 183.5 253 Z "></path><path fill="rgb(82,82,82)" stroke="rgb(82,82,82)" stroke-width="1" opacity="1" d="M 226.5 255 L 249 255.5 L 226.5 256 L 226.5 255 Z "></path><path fill="rgb(82,82,82)" stroke="rgb(82,82,82)" stroke-width="1" opacity="1" d="M 272.5 256 L 295 256.5 L 272.5 257 L 272.5 256 Z "></path><path fill="rgb(82,82,82)" stroke="rgb(82,82,82)" stroke-width="1" opacity="1" d="M 319.5 257 L 341 257.5 L 319.5 258 L 319.5 257 Z "></path><path fill="rgb(82,82,82)" stroke="rgb(82,82,82)" stroke-width="1" opacity="1" d="M 162.5 258 L 163 260.5 L 162 260.5 L 162.5 258 Z "></path><path fill="rgb(82,82,82)" stroke="rgb(82,82,82)" stroke-width="1" opacity="1" d="M 365.5 258 L 388 258.5 L 365.5 259 L 365.5 258 Z "></path><path fill="rgb(82,82,82)" stroke="rgb(82,82,82)" stroke-width="1" opacity="1" d="M 411.5 259 L 434 259.5 L 411.5 260 L 411.5 259 Z "></path><path fill="rgb(82,82,82)" stroke="rgb(82,82,82)" stroke-width="1" opacity="1" d="M 143.5 260 L 139.5 265 L 143.5 260 Z "></path><path fill="rgb(82,82,82)" stroke="rgb(82,82,82)" stroke-width="1" opacity="1" d="M 226.5 260 L 243 260.5 L 226.5 261 L 226.5 260 Z "></path><path fill="rgb(82,82,82)" stroke="rgb(82,82,82)" stroke-width="1" opacity="1" d="M 318.5 262 L 341 262.5 L 318.5 263 L 318.5 262 Z "></path><path fill="rgb(82,82,82)" stroke="rgb(82,82,82)" stroke-width="1" opacity="1" d="M 65.5 263 L 66 267.5 L 65 267.5 L 65.5 263 Z "></path><path fill="rgb(82,82,82)" stroke="rgb(82,82,82)" stroke-width="1" opacity="1" d="M 363 263 L 387 263.5 L 364 264 L 363.5 342 L 363 263 Z "></path><path fill="rgb(82,82,82)" stroke="rgb(82,82,82)" stroke-width="1" opacity="1" d="M 91.5 264 L 92 266.5 L 91 266.5 L 91.5 264 Z "></path><path fill="rgb(82,82,82)" stroke="rgb(82,82,82)" stroke-width="1" opacity="1" d="M 389.5 264 L 390 317.5 L 389 317.5 L 389.5 264 Z "></path><path fill="rgb(82,82,82)" stroke="rgb(82,82,82)" stroke-width="1" opacity="1" d="M 161.5 265 L 162 267.5 L 161 267.5 L 161.5 265 Z "></path><path fill="rgb(82,82,82)" stroke="rgb(82,82,82)" stroke-width="1" opacity="1" d="M 216.5 265 L 217 267.5 L 216 267.5 L 216.5 265 Z "></path><path fill="rgb(82,82,82)" stroke="rgb(82,82,82)" stroke-width="1" opacity="1" d="M 242.5 265 L 243 268.5 L 242 268.5 L 242.5 265 Z "></path><path fill="rgb(82,82,82)" stroke="rgb(82,82,82)" stroke-width="1" opacity="1" d="M 451.5 265 L 450.5 267 L 451.5 265 Z "></path><path fill="rgb(82,82,82)" stroke="rgb(82,82,82)" stroke-width="1" opacity="1" d="M 447.5 268 L 446.5 270 L 447.5 268 Z "></path><path fill="rgb(82,82,82)" stroke="rgb(82,82,82)" stroke-width="1" opacity="1" d="M 149.5 269 L 144.5 275 L 149.5 269 Z "></path><path fill="rgb(82,82,82)" stroke="rgb(82,82,82)" stroke-width="1" opacity="1" d="M 160.5 271 L 161 273.5 L 160 273.5 L 160.5 271 Z "></path><path fill="rgb(82,82,82)" stroke="rgb(82,82,82)" stroke-width="1" opacity="1" d="M 313.5 271 L 318.5 277 L 313.5 271 Z "></path><path fill="rgb(82,82,82)" stroke="rgb(82,82,82)" stroke-width="1" opacity="1" d="M 443.5 271 L 442.5 273 L 443.5 271 Z "></path><path fill="rgb(82,82,82)" stroke="rgb(82,82,82)" stroke-width="1" opacity="1" d="M 132.5 272 L 128.5 277 L 132.5 272 Z "></path><path fill="rgb(82,82,82)" stroke="rgb(82,82,82)" stroke-width="1" opacity="1" d="M 437.5 274 L 440 274.5 Q 437.9 277.8 437.5 274 Z "></path><path fill="rgb(82,82,82)" stroke="rgb(82,82,82)" stroke-width="1" opacity="1" d="M 159.5 278 L 160 280.5 L 159 280.5 L 159.5 278 Z "></path><path fill="rgb(82,82,82)" stroke="rgb(82,82,82)" stroke-width="1" opacity="1" d="M 137.5 280 L 132.5 286 L 137.5 280 Z "></path><path fill="rgb(82,82,82)" stroke="rgb(82,82,82)" stroke-width="1" opacity="1" d="M 121.5 284 L 116.5 290 L 121.5 284 Z "></path><path fill="rgb(82,82,82)" stroke="rgb(82,82,82)" stroke-width="1" opacity="1" d="M 349.5 284 L 350 298.5 L 349 298.5 L 349.5 284 Z "></path><path fill="rgb(82,82,82)" stroke="rgb(82,82,82)" stroke-width="1" opacity="1" d="M 323.5 287 L 324 289.5 L 323 289.5 L 323.5 287 Z "></path><path fill="rgb(82,82,82)" stroke="rgb(82,82,82)" stroke-width="1" opacity="1" d="M 125.5 291 L 120.5 297 L 125.5 291 Z "></path><path fill="rgb(82,82,82)" stroke="rgb(82,82,82)" stroke-width="1" opacity="1" d="M 267.5 294 L 268 296.5 L 267 296.5 L 267.5 294 Z "></path><path fill="rgb(82,82,82)" stroke="rgb(82,82,82)" stroke-width="1" opacity="1" d="M 110.5 296 L 105.5 302 L 110.5 296 Z "></path><path fill="rgb(82,82,82)" stroke="rgb(82,82,82)" stroke-width="1" opacity="1" d="M 323.5 296 L 324 298.5 L 323 298.5 L 323.5 296 Z "></path><path fill="rgb(82,82,82)" stroke="rgb(82,82,82)" stroke-width="1" opacity="1" d="M 102.5 297 L 98.5 302 L 102.5 297 Z "></path><path fill="rgb(82,82,82)" stroke="rgb(82,82,82)" stroke-width="1" opacity="1" d="M 202.5 298 L 200.5 301 L 202.5 298 Z "></path><path fill="rgb(82,82,82)" stroke="rgb(82,82,82)" stroke-width="1" opacity="1" d="M 113.5 302 L 108.5 308 L 113.5 302 Z "></path><path fill="rgb(82,82,82)" stroke="rgb(82,82,82)" stroke-width="1" opacity="1" d="M 195.5 305 L 193.5 308 L 195.5 305 Z "></path><path fill="rgb(82,82,82)" stroke="rgb(82,82,82)" stroke-width="1" opacity="1" d="M 227.5 307 L 226.5 309 L 227.5 307 Z "></path><path fill="rgb(82,82,82)" stroke="rgb(82,82,82)" stroke-width="1" opacity="1" d="M 99.5 308 L 94.5 314 L 99.5 308 Z "></path><path fill="rgb(82,82,82)" stroke="rgb(82,82,82)" stroke-width="1" opacity="1" d="M 116.5 308 L 117.5 310 L 116.5 308 Z "></path><path fill="rgb(82,82,82)" stroke="rgb(82,82,82)" stroke-width="1" opacity="1" d="M 91.5 309 L 86.5 315 L 91.5 309 Z "></path><path fill="rgb(82,82,82)" stroke="rgb(82,82,82)" stroke-width="1" opacity="1" d="M 190.5 309 L 189.5 311 L 190.5 309 Z "></path><path fill="rgb(82,82,82)" stroke="rgb(82,82,82)" stroke-width="1" opacity="1" d="M 82.5 310 L 83.5 312 L 82.5 310 Z "></path><path fill="rgb(82,82,82)" stroke="rgb(82,82,82)" stroke-width="1" opacity="1" d="M 112.5 310 L 107.5 316 L 112.5 310 Z "></path><path fill="rgb(82,82,82)" stroke="rgb(82,82,82)" stroke-width="1" opacity="1" d="M 317.5 311 L 314.5 315 L 317.5 311 Z "></path><path fill="rgb(82,82,82)" stroke="rgb(82,82,82)" stroke-width="1" opacity="1" d="M 223.5 312 L 221.5 315 L 223.5 312 Z "></path><path fill="rgb(82,82,82)" stroke="rgb(82,82,82)" stroke-width="1" opacity="1" d="M 274.5 312 L 276.5 315 L 274.5 312 Z "></path><path fill="rgb(82,82,82)" stroke="rgb(82,82,82)" stroke-width="1" opacity="1" d="M 100.5 314 L 96.5 319 L 100.5 314 Z "></path><path fill="rgb(82,82,82)" stroke="rgb(82,82,82)" stroke-width="1" opacity="1" d="M 311.5 316 L 310.5 318 L 311.5 316 Z "></path><path fill="rgb(82,82,82)" stroke="rgb(82,82,82)" stroke-width="1" opacity="1" d="M 439.5 318 L 440 341.5 L 439 341.5 L 439.5 318 Z "></path><path fill="rgb(82,82,82)" stroke="rgb(82,82,82)" stroke-width="1" opacity="1" d="M 88.5 320 L 83.5 326 L 88.5 320 Z "></path><path fill="rgb(82,82,82)" stroke="rgb(82,82,82)" stroke-width="1" opacity="1" d="M 143.5 320 L 146 320.5 L 143.5 321 L 143.5 320 Z "></path><path fill="rgb(82,82,82)" stroke="rgb(82,82,82)" stroke-width="1" opacity="1" d="M 162.5 320 L 165 320.5 L 162.5 321 L 162.5 320 Z "></path><path fill="rgb(82,82,82)" stroke="rgb(82,82,82)" stroke-width="1" opacity="1" d="M 100.5 321 L 98 324.5 L 97.5 326 L 97 324.5 L 100.5 321 Z "></path><path fill="rgb(82,82,82)" stroke="rgb(82,82,82)" stroke-width="1" opacity="1" d="M 213.5 322 L 211.5 325 L 213.5 322 Z "></path><path fill="rgb(82,82,82)" stroke="rgb(82,82,82)" stroke-width="1" opacity="1" d="M 340.5 322 L 339.5 324 L 340.5 322 Z "></path><path fill="rgb(82,82,82)" stroke="rgb(82,82,82)" stroke-width="1" opacity="1" d="M 251.5 324 L 252.5 326 L 251.5 324 Z "></path><path fill="rgb(82,82,82)" stroke="rgb(82,82,82)" stroke-width="1" opacity="1" d="M 88.5 325 L 84.5 330 L 88.5 325 Z "></path><path fill="rgb(82,82,82)" stroke="rgb(82,82,82)" stroke-width="1" opacity="1" d="M 337.5 326 L 331.5 333 L 337.5 326 Z "></path><path fill="rgb(82,82,82)" stroke="rgb(82,82,82)" stroke-width="1" opacity="1" d="M 207.5 327 L 206.5 329 L 207.5 327 Z "></path><path fill="rgb(82,82,82)" stroke="rgb(82,82,82)" stroke-width="1" opacity="1" d="M 255.5 329 L 258.5 333 L 255.5 329 Z "></path><path fill="rgb(82,82,82)" stroke="rgb(82,82,82)" stroke-width="1" opacity="1" d="M 76.5 333 L 72.5 338 L 76.5 333 Z "></path><path fill="rgb(82,82,82)" stroke="rgb(82,82,82)" stroke-width="1" opacity="1" d="M 328.5 334 L 327.5 336 L 328.5 334 Z "></path><path fill="rgb(82,82,82)" stroke="rgb(82,82,82)" stroke-width="1" opacity="1" d="M 262.5 335 L 263.5 337 L 262.5 335 Z "></path><path fill="rgb(82,82,82)" stroke="rgb(82,82,82)" stroke-width="1" opacity="1" d="M 76.5 336 L 72.5 341 L 76.5 336 Z "></path><path fill="rgb(82,82,82)" stroke="rgb(82,82,82)" stroke-width="1" opacity="1" d="M 139.5 344 L 143 344.5 L 139.5 345 L 139.5 344 Z "></path><path fill="rgb(82,82,82)" stroke="rgb(82,82,82)" stroke-width="1" opacity="1" d="M 164.5 344 L 168 344.5 L 164.5 345 L 164.5 344 Z "></path><path fill="rgb(82,82,82)" stroke="rgb(82,82,82)" stroke-width="1" opacity="1" d="M 283.5 344 L 286 344.5 L 283.5 345 L 283.5 344 Z "></path><path fill="rgb(82,82,82)" stroke="rgb(82,82,82)" stroke-width="1" opacity="1" d="M 65.5 345 L 65 346.5 L 59.5 353 L 60 351.5 L 65.5 345 Z "></path><path fill="rgb(82,82,82)" stroke="rgb(82,82,82)" stroke-width="1" opacity="1" d="M 150.5 345 L 157 345.5 L 150.5 346 L 150.5 345 Z "></path><path fill="rgb(82,82,82)" stroke="rgb(82,82,82)" stroke-width="1" opacity="1" d="M 292.5 345 L 298 345.5 L 292.5 346 L 292.5 345 Z "></path><path fill="rgb(0,0,0)" stroke="rgb(0,0,0)" stroke-width="1" opacity="1" d="M 145.5 169 L 170.5 170 L 190.5 176 Q 210.9 185.6 224 202.5 Q 232.8 212.7 238 226.5 L 242 247 L 235.5 248 L 217 248 Q 212.5 219.3 192.5 205 Q 182.9 197.6 169.5 194 L 164.5 193 L 144.5 193 Q 117.6 198.1 104 216.5 Q 96.8 225.3 93 237.5 L 91 246.5 L 91 266.5 L 94 279.5 L 103 296.5 L 86.5 314 L 84 312.5 Q 73 300 68 281.5 L 66 272.5 L 66 263.5 L 65 262.5 L 65 250.5 L 66 249.5 L 66 241.5 L 68 232.5 L 75 215.5 Q 84.4 199.4 98.5 188 L 120.5 175 L 132.5 171 L 144.5 170 L 145.5 169 Z "></path><path fill="rgb(0,0,0)" stroke="rgb(0,0,0)" stroke-width="1" opacity="1" d="M 290.5 169 L 307.5 169 L 318.5 172 Q 330.3 177.2 338 186.5 L 345 198 L 324.5 209 L 313.5 196 Q 306.6 190.9 292.5 193 Q 283.9 194.9 279 200.5 L 274 210.5 L 274 216.5 Q 276.1 224.9 282.5 229 L 291.5 234 L 320 245.5 L 265.5 247 Q 256.1 240.4 251 229.5 L 249 222.5 L 248 211.5 L 250 200.5 L 253 193.5 L 264.5 180 L 278.5 172 L 290.5 169 Z "></path><path fill="rgb(0,0,0)" stroke="rgb(0,0,0)" stroke-width="1" opacity="1" d="M 364 172 L 389 172 L 389 245 L 364 245 L 364 172 Z "></path><path fill="rgb(0,0,0)" stroke="rgb(0,0,0)" stroke-width="1" opacity="1" d="M 436.5 232 L 466 254.5 L 437.5 276 L 438 274.5 L 444 260 L 434.5 260 L 433.5 259 L 388.5 259 L 387.5 258 L 341.5 258 L 340.5 257 L 295.5 257 L 294.5 256 L 249.5 256 L 248.5 255 L 203 254.5 L 210.5 253 L 262.5 253 L 263.5 252 L 316.5 252 L 317.5 251 L 369.5 251 L 370.5 250 L 423.5 250 L 424.5 249 L 444 249 L 444 246.5 L 436.5 232 Z "></path><path fill="rgb(0,0,0)" stroke="rgb(0,0,0)" stroke-width="1" opacity="1" d="M 157.5 248 L 164 248 L 164 250.5 L 163 251.5 L 163 257.5 L 162 258.5 L 162 264.5 L 158.5 284 L 152.5 267 L 65.5 347 L 66 345.5 L 144 260.5 L 144 258 L 128 254 L 128.5 252 L 135.5 252 L 157.5 248 Z "></path><path fill="rgb(0,0,0)" stroke="rgb(0,0,0)" stroke-width="1" opacity="1" d="M 217 260 L 243 261 L 241 277.5 L 237 290.5 Q 229 309.5 214.5 322 Q 200.5 335.5 179.5 342 L 163.5 345 L 143.5 345 L 119.5 339 Q 107.1 333.9 98 325.5 L 106.5 316 L 115.5 308 Q 124.7 316.3 138.5 320 L 143.5 321 L 164.5 321 Q 189.7 315.7 203 298.5 L 214 279.5 L 217 267.5 L 217 260 Z "></path><path fill="rgb(0,0,0)" stroke="rgb(0,0,0)" stroke-width="1" opacity="1" d="M 297.5 262 L 342 263 Q 346.8 269.9 349 280.5 L 349 302.5 Q 344.4 323.4 329.5 334 Q 315.4 346.9 286.5 345 L 267.5 339 L 253 326.5 Q 243 314.3 241 295 L 267 290 Q 267 306.7 276.5 315 L 288.5 321 L 302.5 321 Q 312.6 318.6 318 311.5 Q 325.4 303.9 324 287.5 Q 321.4 276.6 313.5 271 L 297.5 263 L 297.5 262 Z "></path><path fill="rgb(0,0,0)" stroke="rgb(0,0,0)" stroke-width="1" opacity="1" d="M 364 264 L 389 264 L 389 318 L 439 318 L 439 342 L 364 342 L 364 264 Z "></path></svg>