<svg xmlns="http://www.w3.org/2000/svg" viewBox="0 0 91.23 59.68"><defs><style>.cls-1{fill:#4570ee;}.cls-2{fill:#1dc5ed;}.cls-3{fill:#9661ee;}.cls-4{fill:#319fe0;}.cls-5{fill:#7870ee;}</style></defs><title>OSL_big_col</title><g id="Layer_2" data-name="Layer 2"><g id="Layer_1-2" data-name="Layer 1"><path class="cls-1" d="M2,58a2.07,2.07,0,0,1,0-4.13A2.07,2.07,0,0,1,2,58Zm0-3.37a1.19,1.19,0,0,0-1.24,1.3A1.21,1.21,0,0,0,2,57.22a1.31,1.31,0,0,0,0-2.61Z"/><path class="cls-1" d="M5.2,59.63c-.23,0-.38-.13-.38-.32v-5A.36.36,0,0,1,5.2,54a.35.35,0,0,1,.33.18c0,.05.06.06.06.07l0,0a1.91,1.91,0,0,1,1.17-.36,2.07,2.07,0,0,1,0,4.13,2.1,2.1,0,0,1-1.17-.36l0,0s0,0,0,0v1.69A.34.34,0,0,1,5.2,59.63Zm1.61-5a1.31,1.31,0,0,0,0,2.61,1.31,1.31,0,0,0,0-2.61Z"/><path class="cls-1" d="M11.48,58a2.07,2.07,0,0,1,0-4.13,1.93,1.93,0,0,1,2,2.05.4.4,0,0,1-.32.39h0l-2.69.43a1.18,1.18,0,0,0,1,.5,1.3,1.3,0,0,0,.55-.12.34.34,0,0,1,.47.21.36.36,0,0,1-.16.49A2,2,0,0,1,11.48,58Zm0-3.37a1.19,1.19,0,0,0-1.24,1.3V56l2.44-.39A1.17,1.17,0,0,0,11.48,54.63Z"/><path class="cls-1" d="M17.81,57.84a.34.34,0,0,1-.37-.34V55.91a1.24,1.24,0,1,0-2.48,0v1.6a.38.38,0,0,1-.76,0V54.35a.38.38,0,0,1,.38-.38.36.36,0,0,1,.35.21s0,0,.05,0l0,0a2.05,2.05,0,0,1,1.17-.36,1.94,1.94,0,0,1,2,2.06v1.6A.35.35,0,0,1,17.81,57.84Z"/><path class="cls-1" d="M23.77,58h-.2A2,2,0,0,1,22,57a.42.42,0,0,1,0-.38.41.41,0,0,1,.32-.18.49.49,0,0,1,.38.26l.05.07a1.22,1.22,0,0,0,.83.44h.13c.37,0,.79-.18.83-.55,0,0,0,0,0,0v0c0-.39-.4-.48-.84-.54a2.08,2.08,0,0,1-1.24-.44.91.91,0,0,1-.25-.65.93.93,0,0,1,.3-.71,1.92,1.92,0,0,1,1.19-.4,2.05,2.05,0,0,1,1.27.41.33.33,0,0,1,.11.33.41.41,0,0,1-.41.32.31.31,0,0,1-.2-.08,1.29,1.29,0,0,0-.75-.24c-.36,0-.75.11-.75.34s.35.33.7.37h.12c.64.08,1.51.29,1.51,1.24a.66.66,0,0,1,0,.14v0A1.49,1.49,0,0,1,23.77,58Z"/><path class="cls-1" d="M29.84,57.84a.34.34,0,0,1-.38-.33V55.88a1.24,1.24,0,1,0-2.48,0v1.63a.34.34,0,0,1-.38.33.35.35,0,0,1-.38-.33v-5a.35.35,0,0,1,.38-.34.34.34,0,0,1,.38.34v1.63s0,.06.07.06h0a2,2,0,0,1,1.13-.32,1.94,1.94,0,0,1,2,2.06v1.63A.35.35,0,0,1,29.84,57.84Z"/><path class="cls-1" d="M33,58a2.07,2.07,0,0,1,0-4.13,2.07,2.07,0,0,1,1.17.36l0,0s0,0,.06,0a.36.36,0,0,1,.33-.2.38.38,0,0,1,.4.37v3.13a.38.38,0,0,1-.4.37.35.35,0,0,1-.33-.21.06.06,0,0,0-.06,0l0,0A2.07,2.07,0,0,1,33,58Zm0-3.37a1.31,1.31,0,1,0,1.24,1.3A1.19,1.19,0,0,0,33,54.6Z"/><path class="cls-1" d="M37.78,58a2.07,2.07,0,0,1,0-4.13,2.05,2.05,0,0,1,1.18.36l0,0a0,0,0,0,0,0,0V52.46a.34.34,0,0,1,.38-.33.34.34,0,0,1,.38.33v5a.36.36,0,0,1-.38.36.35.35,0,0,1-.34-.19A.11.11,0,0,0,39,57.6l0,0A2,2,0,0,1,37.78,58Zm0-3.37A1.31,1.31,0,1,0,39,55.92,1.19,1.19,0,0,0,37.78,54.61Z"/><path class="cls-1" d="M41.87,57.91c-.35,0-.79-.66-.8-.67a2,2,0,0,1-.33-1.08V54.31a.35.35,0,0,1,.38-.34.36.36,0,0,1,.38.34v1.82a1.36,1.36,0,0,0,.61,1.1.35.35,0,0,1,.16.29A.4.4,0,0,1,41.87,57.91Zm-.76-4.39a.35.35,0,0,1-.38-.36.38.38,0,0,1,.76,0A.35.35,0,0,1,41.11,53.52Z"/><path class="cls-1" d="M46.35,57.84A.35.35,0,0,1,46,57.5V55.91a1.24,1.24,0,1,0-2.48,0v1.6a.38.38,0,0,1-.75,0V54.35a.38.38,0,0,1,.37-.38.35.35,0,0,1,.35.21s0,0,0,0l.05,0a2.07,2.07,0,0,1,1.17-.36,2,2,0,0,1,2,2.06v1.6A.35.35,0,0,1,46.35,57.84Z"/><path class="cls-1" d="M49.48,59.68a2.05,2.05,0,0,1-.87-.18.32.32,0,0,1-.18-.2.35.35,0,0,1,0-.28.36.36,0,0,1,.46-.22,1.34,1.34,0,0,0,.56.12,1.17,1.17,0,0,0,1.23-1.22v-.09s0,0,0,0h0a2,2,0,0,1-1.17.36,2.06,2.06,0,0,1,0-4.12,2,2,0,0,1,1.17.36h0a.09.09,0,0,0,.05,0,.39.39,0,0,1,.73.18v3.27A1.94,1.94,0,0,1,49.48,59.68Zm0-5.08a1.3,1.3,0,1,0,1.23,1.3A1.19,1.19,0,0,0,49.48,54.6Z"/><path class="cls-1" d="M57.58,58a2,2,0,0,1-2-2.07V52.47a.35.35,0,0,1,.38-.34.34.34,0,0,1,.38.34v3.44a1.2,1.2,0,0,0,1.24,1.31.36.36,0,0,1,.35.38A.36.36,0,0,1,57.58,58Z"/><path class="cls-1" d="M60,58a2.07,2.07,0,0,1,0-4.13,2.07,2.07,0,0,1,1.17.36l0,0s0,0,.06,0a.36.36,0,0,1,.33-.2.38.38,0,0,1,.4.37v3.13a.38.38,0,0,1-.4.37.35.35,0,0,1-.33-.21s-.05,0-.06,0l0,0A2.07,2.07,0,0,1,60,58Zm0-3.37a1.31,1.31,0,1,0,1.24,1.3A1.19,1.19,0,0,0,60,54.6Z"/><path class="cls-1" d="M66.68,57.84a.35.35,0,0,1-.38-.34V55.91a1.24,1.24,0,1,0-2.48,0v1.6a.38.38,0,0,1-.76,0V54.35a.38.38,0,0,1,.38-.38.35.35,0,0,1,.35.21s0,0,.05,0l0,0a2.07,2.07,0,0,1,1.17-.36,2,2,0,0,1,2,2.06v1.6A.35.35,0,0,1,66.68,57.84Z"/><path class="cls-1" d="M69.8,59.68a2,2,0,0,1-.86-.18.32.32,0,0,1-.18-.2.35.35,0,0,1,0-.28.35.35,0,0,1,.46-.22,1.33,1.33,0,0,0,.55.12A1.18,1.18,0,0,0,71,57.7v-.09s0,0,0,0h0A2,2,0,0,1,69.8,58a2.06,2.06,0,0,1,0-4.12A2.05,2.05,0,0,1,71,54.2h0a.09.09,0,0,0,0,0,.35.35,0,0,1,.35-.2.37.37,0,0,1,.38.38v3.27A1.94,1.94,0,0,1,69.8,59.68Zm0-5.08A1.3,1.3,0,1,0,71,55.9,1.19,1.19,0,0,0,69.8,54.6Z"/><path class="cls-1" d="M74.73,58a2,2,0,0,1-2-2.06v-1.6a.38.38,0,0,1,.76,0v1.6a1.24,1.24,0,1,0,2.48,0v-1.6a.38.38,0,0,1,.76,0v3.15a.38.38,0,0,1-.38.38.35.35,0,0,1-.35-.21.06.06,0,0,0-.06,0l0,0A2,2,0,0,1,74.73,58Z"/><path class="cls-1" d="M79.55,58a2.07,2.07,0,0,1,0-4.13,2.13,2.13,0,0,1,1.18.36l0,0a.08.08,0,0,0,0,0,.36.36,0,0,1,.34-.2.37.37,0,0,1,.39.37v3.13a.37.37,0,0,1-.39.37.37.37,0,0,1-.34-.21s0,0,0,0l0,0A2.07,2.07,0,0,1,79.55,58Zm0-3.37a1.31,1.31,0,1,0,1.24,1.3A1.19,1.19,0,0,0,79.55,54.6Z"/><path class="cls-1" d="M84.38,59.68a2,2,0,0,1-.86-.18.32.32,0,0,1-.18-.2.35.35,0,0,1,0-.28.36.36,0,0,1,.46-.22,1.33,1.33,0,0,0,.55.12,1.18,1.18,0,0,0,1.24-1.22v-.09s0,0,0,0h0a2,2,0,0,1-1.18.36,2.06,2.06,0,0,1,0-4.12,2,2,0,0,1,1.18.36h0a.09.09,0,0,0,.05,0A.35.35,0,0,1,86,54a.37.37,0,0,1,.38.38v3.27A1.94,1.94,0,0,1,84.38,59.68Zm0-5.08a1.3,1.3,0,1,0,1.24,1.3A1.18,1.18,0,0,0,84.38,54.6Z"/><path class="cls-1" d="M89.23,58a2.07,2.07,0,1,1,2-2.08.41.41,0,0,1-.32.39h0l-2.69.43a1.19,1.19,0,0,0,1,.5,1.26,1.26,0,0,0,.55-.12.35.35,0,0,1,.48.21.36.36,0,0,1-.17.49A2,2,0,0,1,89.23,58Zm0-3.37A1.19,1.19,0,0,0,88,55.93V56l2.45-.39A1.18,1.18,0,0,0,89.23,54.63Z"/><path class="cls-2" d="M27.11,19.12c-.15,0-.26-.18-.31-.28a14.81,14.81,0,0,1-.88-2.09,5.15,5.15,0,0,1,.23-2.69,18.79,18.79,0,0,1,1.3-2.63c.31-.51.67-.75.88-.75,0,0,.1,0,.19.12.5.63,1.07,1.33,1.7,2.08a2.48,2.48,0,0,1-.29,2.84c-.78,1-1.51,2-2.16,2.89C27.51,19,27.25,19.12,27.11,19.12Z"/><path class="cls-2" d="M32.06,12.31A1,1,0,0,1,31.3,12c-.62-.73-1.18-1.42-1.68-2.06-.3-.38-.14-1.39.57-2.19A24.92,24.92,0,0,1,32.6,5.32a2.66,2.66,0,0,1,1.66-.71.87.87,0,0,1,.54.15c.63.49,1.32,1.06,2.05,1.67a.92.92,0,0,1,.32.71,2.16,2.16,0,0,1-.74,1.55c-1,.93-1.94,1.9-2.87,2.88A2.2,2.2,0,0,1,32.06,12.31Z"/><path class="cls-2" d="M38.82,5.68a1.65,1.65,0,0,1-1.07-.32c-.74-.63-1.44-1.2-2.09-1.71a.24.24,0,0,1-.11-.21,1.36,1.36,0,0,1,.74-.85,18,18,0,0,1,2.65-1.31A5.73,5.73,0,0,1,40.81,1a3.15,3.15,0,0,1,.82.09,15.93,15.93,0,0,1,2.07.88c.1.05.27.15.28.29s-.11.41-.51.69c-.93.64-1.9,1.36-2.88,2.15A2.89,2.89,0,0,1,38.82,5.68Z"/><path class="cls-2" d="M45.74,1.22A3.41,3.41,0,0,1,44.21.91c-.21-.1-.42-.21-.63-.3a.27.27,0,0,1-.15-.29.26.26,0,0,1,.23-.21L44.49,0c.36,0,.76,0,1.19,0S46.55,0,47,0l.85,0a.27.27,0,0,1,.24.22.26.26,0,0,1-.15.28l-.66.32A3.46,3.46,0,0,1,45.74,1.22Z"/><path class="cls-3" d="M45.84,41.75l-1.33,0-.84-.06a.27.27,0,0,1-.24-.22.26.26,0,0,1,.15-.28l.65-.32a3.46,3.46,0,0,1,1.54-.31,3.55,3.55,0,0,1,1.53.31l.64.31a.26.26,0,0,1,.15.28.27.27,0,0,1-.24.22l-.83.07C46.67,41.74,46.27,41.75,45.84,41.75Z"/><path class="cls-2" d="M25.19,23.18A.26.26,0,0,1,25,23c0-.26,0-.54-.07-.83a21,21,0,0,1,0-2.51c0-.34,0-.6.06-.85a.27.27,0,0,1,.22-.24h0a.27.27,0,0,1,.24.15c.1.22.21.44.32.66a4,4,0,0,1,0,3.07c-.11.21-.21.42-.31.63a.25.25,0,0,1-.24.16Z"/><path class="cls-3" d="M66.27,23.19A.25.25,0,0,1,66,23l-.32-.65a3.94,3.94,0,0,1,0-3.07c.1-.22.21-.43.3-.64a.28.28,0,0,1,.24-.15h0a.27.27,0,0,1,.21.24c0,.26,0,.53.07.82a21.12,21.12,0,0,1,0,2.52c0,.33,0,.6,0,.84a.27.27,0,0,1-.22.24Z"/><path class="cls-4" d="M28.32,31.07c-.2,0-.56-.23-.86-.74a17.1,17.1,0,0,1-1.31-2.65A5.14,5.14,0,0,1,25.92,25a14.58,14.58,0,0,1,.88-2.06c.05-.12.16-.29.31-.29s.4.13.66.51c.64.93,1.37,1.9,2.16,2.88a2.5,2.5,0,0,1,.3,2.84c-.64.76-1.22,1.46-1.71,2.09A.23.23,0,0,1,28.32,31.07Z"/><path class="cls-4" d="M32.28,25.83A1.67,1.67,0,0,1,31,25.16c-.76-1-1.47-1.9-2.1-2.81a2.82,2.82,0,0,1,0-3c.62-.9,1.32-1.84,2.09-2.8a1.64,1.64,0,0,1,1.26-.67,1.36,1.36,0,0,1,1,.48c.82.91,1.71,1.86,2.63,2.85a2.43,2.43,0,0,1,0,3.23c-.93,1-1.81,2-2.63,2.86A1.39,1.39,0,0,1,32.28,25.83Z"/><path class="cls-4" d="M38.43,18.93A2,2,0,0,1,37,18.3c-.92-1-1.79-1.93-2.61-2.83a2.21,2.21,0,0,1,.23-2.94c.91-1,1.86-1.91,2.82-2.82A2.45,2.45,0,0,1,39.07,9a1.89,1.89,0,0,1,1.27.46c.9.82,1.85,1.69,2.83,2.62a2,2,0,0,1,.63,1.43,2.3,2.3,0,0,1-.69,1.64c-1,1-2.06,2-3.07,3.07A2.23,2.23,0,0,1,38.43,18.93Z"/><path class="cls-4" d="M45.74,11.69a2.35,2.35,0,0,1-1.61-.61c-1-.93-2-1.81-2.86-2.64a1.4,1.4,0,0,1-.48-1.07,1.65,1.65,0,0,1,.67-1.21c1-.77,1.9-1.48,2.81-2.1a2.64,2.64,0,0,1,1.47-.42,2.71,2.71,0,0,1,1.49.42c.9.62,1.84,1.33,2.8,2.1a1.61,1.61,0,0,1,.66,1.21,1.34,1.34,0,0,1-.48,1.07l-2.85,2.63A2.32,2.32,0,0,1,45.74,11.69Z"/><path class="cls-4" d="M52.67,5.68a2.84,2.84,0,0,1-1.76-.62c-1-.79-2-1.51-2.89-2.16-.4-.27-.53-.54-.52-.68s.18-.24.28-.29a15.62,15.62,0,0,1,2.1-.88,2.84,2.84,0,0,1,.8-.09,5.89,5.89,0,0,1,1.88.32,17.85,17.85,0,0,1,2.63,1.31,1.38,1.38,0,0,1,.75.85c0,.06,0,.12-.12.21-.63.5-1.33,1.08-2.08,1.71A1.7,1.7,0,0,1,52.67,5.68Z"/><path class="cls-1" d="M34.26,37.15a2.71,2.71,0,0,1-1.66-.71A29.09,29.09,0,0,1,30.18,34a2.06,2.06,0,0,1-.56-2.2c.48-.61,1.05-1.3,1.67-2.05a1,1,0,0,1,.77-.32,2.16,2.16,0,0,1,1.5.74c.93,1,1.9,1.95,2.87,2.87a2.16,2.16,0,0,1,.74,1.55,1,1,0,0,1-.32.71c-.75.63-1.44,1.2-2.06,1.68A.88.88,0,0,1,34.26,37.15Z"/><path class="cls-1" d="M39.07,32.73A2.45,2.45,0,0,1,37.4,32c-1-.9-1.9-1.85-2.82-2.82a2.21,2.21,0,0,1-.23-2.94c.82-.9,1.69-1.85,2.61-2.83a2,2,0,0,1,1.47-.63,2.28,2.28,0,0,1,1.61.69c1,1,2,2.06,3.07,3.07a2.3,2.3,0,0,1,.69,1.64,2,2,0,0,1-.63,1.44c-1,.92-1.93,1.79-2.84,2.61A1.84,1.84,0,0,1,39.07,32.73Z"/><path class="cls-1" d="M45.74,26.26a2.36,2.36,0,0,1-1.65-.67c-1-1-2.05-2-3.06-3.06a2.38,2.38,0,0,1,0-3.31c1-1,2-2,3.05-3a2.35,2.35,0,0,1,3.31,0c1,1,2.05,2,3.05,3a2.37,2.37,0,0,1,0,3.31c-1,1-2,2-3.05,3.06A2.38,2.38,0,0,1,45.74,26.26Z"/><path class="cls-1" d="M53.05,18.93a2.23,2.23,0,0,1-1.6-.69c-1-1-2-2.06-3.07-3.07a2.26,2.26,0,0,1-.69-1.63,2,2,0,0,1,.63-1.44c1-.93,1.93-1.8,2.83-2.62A1.86,1.86,0,0,1,52.41,9a2.46,2.46,0,0,1,1.68.69c1,.91,1.91,1.86,2.82,2.82a2.21,2.21,0,0,1,.23,2.94c-.82.9-1.7,1.85-2.61,2.83A2,2,0,0,1,53.05,18.93Z"/><path class="cls-1" d="M59.43,12.31a2.2,2.2,0,0,1-1.5-.74c-.93-1-1.89-2-2.88-2.88a2.16,2.16,0,0,1-.74-1.55.94.94,0,0,1,.33-.71c.72-.61,1.41-1.17,2.06-1.68a.86.86,0,0,1,.53-.14,2.68,2.68,0,0,1,1.66.71A26.1,26.1,0,0,1,61.3,7.73c.71.8.87,1.81.56,2.2-.5.64-1.06,1.33-1.67,2.05A1,1,0,0,1,59.43,12.31Z"/><path class="cls-5" d="M40.81,40.79a5.62,5.62,0,0,1-1.88-.32,18.79,18.79,0,0,1-2.63-1.3,1.36,1.36,0,0,1-.75-.86.24.24,0,0,1,.11-.21c.63-.49,1.33-1.07,2.09-1.7a1.65,1.65,0,0,1,1.07-.33,2.86,2.86,0,0,1,1.76.62c1,.79,2,1.51,2.89,2.16.4.28.52.54.51.68s-.18.24-.28.29a13.89,13.89,0,0,1-2.09.88A2.89,2.89,0,0,1,40.81,40.79Z"/><path class="cls-5" d="M45.74,38.11a2.68,2.68,0,0,1-1.48-.42c-.9-.62-1.84-1.33-2.8-2.09a1.69,1.69,0,0,1-.67-1.21,1.39,1.39,0,0,1,.49-1.08c.9-.82,1.86-1.7,2.85-2.63a2.41,2.41,0,0,1,3.23,0c1,.93,1.94,1.81,2.85,2.63a1.34,1.34,0,0,1,.48,1.08A1.64,1.64,0,0,1,50,35.6c-1,.76-1.9,1.47-2.81,2.1A2.73,2.73,0,0,1,45.74,38.11Z"/><path class="cls-5" d="M52.41,32.73a1.86,1.86,0,0,1-1.26-.46c-.9-.82-1.85-1.69-2.83-2.61a2,2,0,0,1-.63-1.44,2.26,2.26,0,0,1,.69-1.64c1-1,2.06-2,3.07-3.07a2.28,2.28,0,0,1,1.61-.69,2,2,0,0,1,1.46.63c.93,1,1.8,1.93,2.62,2.84a2.2,2.2,0,0,1-.23,2.93c-.91,1-1.86,1.91-2.82,2.82A2.46,2.46,0,0,1,52.41,32.73Z"/><path class="cls-5" d="M59.21,25.83a1.38,1.38,0,0,1-1-.48c-.83-.91-1.71-1.87-2.63-2.86a2.43,2.43,0,0,1,0-3.23c.92-1,1.81-1.94,2.63-2.85a1.34,1.34,0,0,1,1-.48,1.62,1.62,0,0,1,1.25.66c.77,1,1.48,1.91,2.1,2.81a2.82,2.82,0,0,1,0,3c-.62.9-1.33,1.84-2.09,2.8A1.67,1.67,0,0,1,59.21,25.83Z"/><path class="cls-5" d="M64.38,19.12c-.14,0-.4-.14-.67-.52-.64-.93-1.36-1.9-2.15-2.88a2.47,2.47,0,0,1-.3-2.83c.63-.75,1.21-1.45,1.71-2.1.09-.11.16-.11.19-.11.21,0,.57.24.87.75a17.1,17.1,0,0,1,1.31,2.65,5.1,5.1,0,0,1,.23,2.68,15.93,15.93,0,0,1-.88,2.07C64.64,18.94,64.53,19.12,64.38,19.12Z"/><path class="cls-3" d="M50.68,40.79a3.1,3.1,0,0,1-.82-.09,15.76,15.76,0,0,1-2.07-.87c-.11-.06-.27-.16-.29-.3s.12-.4.52-.68c.92-.64,1.89-1.37,2.88-2.16a2.89,2.89,0,0,1,1.77-.62,1.65,1.65,0,0,1,1.06.32c.75.63,1.45,1.21,2.1,1.72a.22.22,0,0,1,.11.2,1.36,1.36,0,0,1-.75.86,18.35,18.35,0,0,1-2.64,1.3A5.52,5.52,0,0,1,50.68,40.79Z"/><path class="cls-3" d="M57.23,37.15a.94.94,0,0,1-.54-.15c-.62-.49-1.31-1-2-1.67a1,1,0,0,1-.32-.72,2.14,2.14,0,0,1,.73-1.55c1-.93,2-1.9,2.88-2.87a2.16,2.16,0,0,1,1.5-.74.94.94,0,0,1,.76.32c.62.74,1.19,1.43,1.68,2.06.3.39.14,1.39-.57,2.2a28.85,28.85,0,0,1-2.41,2.41A2.74,2.74,0,0,1,57.23,37.15Z"/><path class="cls-3" d="M63.16,31.07s-.1,0-.19-.11c-.5-.64-1.07-1.34-1.71-2.09a2.47,2.47,0,0,1,.3-2.83c.78-1,1.51-2,2.16-2.89.26-.38.52-.51.66-.51s.26.17.31.28A15,15,0,0,1,65.57,25a5.12,5.12,0,0,1-.23,2.68A17.85,17.85,0,0,1,64,30.32C63.73,30.84,63.37,31.07,63.16,31.07Z"/></g></g></svg>
