<svg id="Layer_2" data-name="Layer 2" xmlns="http://www.w3.org/2000/svg" viewBox="0 0 512 343"><title>oslSource</title><polygon points="143.787 120.977 465.568 126.863 456.679 148.447 491.074 120.977 456.679 93.509 465.568 115.092 143.787 120.977"/><path d="M255.60626,112.64355l63.28363-1.15887q-5.01333-2.57346-10.76178-4.903l-19.6532-8.04657q-21.45574-8.81919-21.45159-23.25464a21.79441,21.79441,0,0,1,8.1701-17.37506q8.16843-7.02484,20.553-7.02887,10.0848,0,16.46966,4.08679,6.13029,3.575,12.89454,15.32263l24.12927-14.30267q-19.14615-33.06684-53.24158-33.064-25.27972,0-42.25415,15.05127-16.98093,14.92713-16.97913,37.128Q236.765,97.55172,255.60626,112.64355Zm145.632-85.89624H371.49164v83.77411l29.74664-.54474ZM53.06091,124.733q0-31.12134,21.18958-52.29718,21.19638-21.43167,51.964-21.43451,30.893,0,51.837,21.43451a70.63682,70.63682,0,0,1,20.31165,41.256l30.06927-.55066q-3.86379-34.3612-29.57263-59.966-30.129-30.134-72.26068-30.13116-42.64507,0-73.03223,29.877-30.51,29.87649-30.51123,71.49713,0,40.361,24.29419,67.556L67.51007,170.0777Q53.06242,151.22324,53.06091,124.733ZM401.23828,195.9118V131.97845l-29.74664-.54473v92.43762h87.70923V195.9118Zm-202.1842-67.63586q-.99638,29.14985-21.25672,49.78217-21.32509,21.43167-52.34869,21.43A69.16426,69.16426,0,0,1,81.33911,183.964L59.8103,203.78564q29.146,23.64717,65.25482,23.65973,43.157,0,73.66645-29.742,29.21237-28.4826,30.33819-68.87775Zm89.748,1.64355,7.455,3.09919a84.28972,84.28972,0,0,1,12.77093,6.69922,39.66656,39.66656,0,0,1,8.74366,7.52679,26.68538,26.68538,0,0,1,4.97509,8.80426A33.16716,33.16716,0,0,1,324.346,166.5705q0,14.297-9.19123,23.60839-9.19016,9.31028-23.10931,9.30921-17.62308,0-26.81366-12.7699-5.11029-6.6384-7.14673-24.001l-30.13238,6.63733q4.08343,27.57725,20.55877,42.83,16.718,15.2655,42.387,15.26086,27.05877,0,45.3222-17.88116,18.12617-17.76562,18.1272-44.97882,0-19.85184-10.62311-33.66016Z"/><polygon points="14.023 237.421 122.891 136.875 131.868 158.423 136.767 114.679 93.022 119.576 114.568 128.553 14.023 237.421"/><path d="M35.93743,319.61914q-3.39258,3.49365-9.812,3.49414-6.41967,0-9.812-3.49414-4.55054-4.28613-4.55029-12.35156,0-8.22657,4.55029-12.35059,3.39258-3.49365,9.812-3.49414,6.419,0,9.812,3.49414,4.53,4.12354,4.53028,12.35059Q40.46771,315.333,35.93743,319.61914Zm-3.91064-4.55078q2.18335-2.74219,2.18408-7.80078,0-5.0376-2.18408-7.79a7.13746,7.13746,0,0,0-5.90137-2.75293,7.23184,7.23184,0,0,0-5.93164,2.74219q-2.21484,2.74218-2.21435,7.80078,0,5.05811,2.21435,7.80078a7.23267,7.23267,0,0,0,5.93164,2.74316A7.14825,7.14825,0,0,0,32.02679,315.06836Z"/><path d="M63.395,302.51465q2.70924,2.86377,2.70948,8.41015,0,5.8506-2.64795,8.918a8.59491,8.59491,0,0,1-6.81885,3.06739,7.152,7.152,0,0,1-4.41651-1.32032,8.55633,8.55633,0,0,1-1.88085-2.13281v11.53809H44.61175V300.1377h5.54541v3.2705a9.31092,9.31092,0,0,1,2.00391-2.27539,7.393,7.393,0,0,1,4.6206-1.48242A8.75372,8.75372,0,0,1,63.395,302.51465Zm-4.44336,4.16406a4.11931,4.11931,0,0,0-3.82714-1.9707,4.354,4.354,0,0,0-4.37159,2.98633,11.21972,11.21972,0,0,0-.61572,4.02246q0,3.85986,2.0708,5.42383a4.75524,4.75524,0,0,0,2.915.91406,4.23684,4.23684,0,0,0,3.72559-1.86914,9.78673,9.78673,0,0,0,.103-9.50684Z"/><path d="M84.61663,300.58594a9.01214,9.01214,0,0,1,3.82617,3.27539,10.88918,10.88918,0,0,1,1.76465,4.57812,28.28962,28.28962,0,0,1,.19043,4.39453H74.27093q.13476,3.33252,2.31543,4.67286a5.88658,5.88658,0,0,0,3.19238.832A4.496,4.496,0,0,0,84.185,315.7998h5.91065a7.22842,7.22842,0,0,1-2.146,4.002q-2.97584,3.23-8.33057,3.23047a12.07005,12.07005,0,0,1-7.7998-2.72461q-3.37866-2.72461-3.37891-8.86524,0-5.75389,3.05078-8.82324a10.67376,10.67376,0,0,1,7.918-3.07031A12.61,12.61,0,0,1,84.61663,300.58594Zm-8.66113,5.002a6.011,6.011,0,0,0-1.54248,3.42676h9.97461a4.832,4.832,0,0,0-1.54248-3.499,5.07757,5.07757,0,0,0-3.4336-1.19336A4.59,4.59,0,0,0,75.9555,305.58789Z"/><path d="M111.18109,301.40723q2.17455,1.79736,2.1748,5.96191v14.91113h-5.93164V308.81152a6.19015,6.19015,0,0,0-.46387-2.68164,3.25787,3.25787,0,0,0-3.22656-1.70605,3.9994,3.9994,0,0,0-4.01318,2.499,8.63532,8.63532,0,0,0-.56446,3.37207v11.98535H93.36663V300.17773h5.60645v3.23047a9.80534,9.80534,0,0,1,2.104-2.458,7.29109,7.29109,0,0,1,4.51123-1.34082A8.4884,8.4884,0,0,1,111.18109,301.40723Z"/><path d="M135.27532,313.03711a6.07283,6.07283,0,0,0,1.14112,3.06738q1.55493,1.84863,5.33056,1.84864a11.46339,11.46339,0,0,0,3.6709-.48731,3.48565,3.48565,0,0,0,2.67627-3.47363,2.56123,2.56123,0,0,0-1.311-2.2959,14.21548,14.21548,0,0,0-4.15723-1.40137l-3.2417-.71094a20.189,20.189,0,0,1-6.56689-2.29589q-3.02711-2.07129-3.02686-6.48047a8.60559,8.60559,0,0,1,2.96143-6.6836q2.96118-2.66014,8.69873-2.66113a13.34193,13.34193,0,0,1,8.17431,2.50879,8.92127,8.92127,0,0,1,3.54786,7.2832H147.1596a4.28839,4.28839,0,0,0-2.416-3.83984,8.27674,8.27674,0,0,0-3.72754-.751,7.09573,7.09573,0,0,0-3.95752.97461,3.086,3.086,0,0,0-1.47852,2.72266,2.56835,2.56835,0,0,0,1.458,2.39648,18.073,18.073,0,0,0,3.978,1.23926l5.25488,1.23926a13.37659,13.37659,0,0,1,5.1792,2.17383,7.32545,7.32545,0,0,1,2.67724,6.11425,8.59077,8.59077,0,0,1-3.17236,6.81543q-3.17284,2.7129-8.96289,2.71192-5.91284,0-9.30127-2.6709a8.83746,8.83746,0,0,1-3.38769-7.34375Z"/><path d="M173.96136,300.25977a6.50423,6.50423,0,0,1,2.74121,2.17578,5.80051,5.80051,0,0,1,1.11182,2.55175,31.4972,31.4972,0,0,1,.20263,4.28028v13.01269H172.1054V308.79688a5.96923,5.96923,0,0,0-.605-2.8877,3.0301,3.0301,0,0,0-2.98437-1.5459,4.09447,4.09447,0,0,0-3.4585,1.53516,7.06854,7.06854,0,0,0-1.1792,4.38281v11.999H158.0888V292.43848h5.78955V303.002a7.07977,7.07977,0,0,1,2.90235-2.6914,8.173,8.173,0,0,1,3.46875-.76172A9.38274,9.38274,0,0,1,173.96136,300.25977Z"/><path d="M192.23138,308.81152a9.1285,9.1285,0,0,0,2.312-.50781,1.74119,1.74119,0,0,0,1.24854-1.64551,1.94588,1.94588,0,0,0-.95752-1.8789,6.04767,6.04767,0,0,0-2.811-.51758,3.68742,3.68742,0,0,0-2.94433,1.01562,4.18506,4.18506,0,0,0-.82374,2.03125h-5.58642a8.47192,8.47192,0,0,1,1.63183-4.77441q2.30566-2.9253,7.91651-2.9248a14.10967,14.10967,0,0,1,6.48779,1.44238q2.83595,1.44286,2.83594,5.44433v10.15723q0,1.05615.04053,2.55957a3.21708,3.21708,0,0,0,.34521,1.54395,2.07754,2.07754,0,0,0,.85352.66992v.85351h-6.29737a6.40454,6.40454,0,0,1-.36572-1.25976q-.10181-.58887-.1626-1.34082a11.95306,11.95306,0,0,1-2.77881,2.21484,8.399,8.399,0,0,1-4.25048,1.07617,7.33209,7.33209,0,0,1-4.99561-1.71679,6.10156,6.10156,0,0,1-1.97168-4.86524,6.30383,6.30383,0,0,1,3.17188-5.91113,14.17,14.17,0,0,1,5.11621-1.42188Zm3.54,2.70215a6.442,6.442,0,0,1-1.12256.5586,9.456,9.456,0,0,1-1.55469.39648l-1.31787.24316a8.662,8.662,0,0,0-2.66113.793,2.64291,2.64291,0,0,0-1.36768,2.458,2.56614,2.56614,0,0,0,.83545,2.14258,3.17254,3.17254,0,0,0,2.03174.66016,6.04928,6.04928,0,0,0,3.49609-1.09668q1.59888-1.09717,1.66065-4.002Z"/><path d="M218.34124,300.49316a7.036,7.036,0,0,1,2.53906,2.44727V292.377h5.8711v29.90332H221.124v-3.06738a8.16412,8.16412,0,0,1-2.82373,2.86426,7.92907,7.92907,0,0,1-3.94092.89355,8.22782,8.22782,0,0,1-6.53125-3.13867,12.051,12.051,0,0,1-2.65088-8.05469q0-5.66748,2.61035-8.918a8.49493,8.49493,0,0,1,6.978-3.25A7.14729,7.14729,0,0,1,218.34124,300.49316Zm1.42188,15.77442a8.08127,8.08127,0,0,0,1.27978-4.7334q0-4.06347-2.05176-5.81055a4.41642,4.41642,0,0,0-2.92529-1.05566,4.06713,4.06713,0,0,0-3.728,1.91894,10.353,10.353,0,0,0,.02051,9.66993,4.08932,4.08932,0,0,0,3.667,1.83886A4.27553,4.27553,0,0,0,219.76312,316.26758Z"/><path d="M237.96478,297.49707h-5.87061V292.1543h5.87061Zm-5.87061,2.64063h5.87061v22.14257h-5.87061Z"/><path d="M261.42816,301.40723q2.17381,1.79736,2.17382,5.96191v14.91113h-5.93164V308.81152a6.18286,6.18286,0,0,0-.46386-2.68164,3.25745,3.25745,0,0,0-3.22657-1.70605,3.99983,3.99983,0,0,0-4.01318,2.499,8.63552,8.63552,0,0,0-.56445,3.37207v11.98535h-5.78955V300.17773h5.60644v3.23047a9.80514,9.80514,0,0,1,2.104-2.458,7.294,7.294,0,0,1,4.5122-1.34082A8.49021,8.49021,0,0,1,261.42816,301.40723Z"/><path d="M279.93987,300.11719a6.95267,6.95267,0,0,1,3.40821,3.21V300.1377h5.64746v21.00488q0,4.28613-1.44238,6.46-2.47853,3.73829-9.50782,3.73828a12.95406,12.95406,0,0,1-6.92675-1.666,6.14424,6.14424,0,0,1-2.96582-4.97753h6.29687a2.60622,2.60622,0,0,0,.793,1.46289,4.8889,4.8889,0,0,0,3.14844.792q3.12744,0,4.18457-2.0918a10.5881,10.5881,0,0,0,.6914-4.50976v-1.42188a7.055,7.055,0,0,1-1.78808,2.13281,7.18477,7.18477,0,0,1-4.48926,1.32032,8.49553,8.49553,0,0,1-6.81543-2.9961,12.11333,12.11333,0,0,1-2.5498-8.11621,13.68925,13.68925,0,0,1,2.45507-8.29785,8.10748,8.10748,0,0,1,6.959-3.3623A7.61,7.61,0,0,1,279.93987,300.11719Zm1.97168,15.876q1.396-1.53369,1.39551-4.88574a7.49393,7.49393,0,0,0-1.32519-4.79394,4.32059,4.32059,0,0,0-3.54981-1.64551,4.183,4.183,0,0,0-4.1875,2.86426,10.18078,10.18078,0,0,0-.60742,3.75781,8.60553,8.60553,0,0,0,.64746,3.43359,4.21958,4.21958,0,0,0,4.208,2.80274A4.446,4.446,0,0,0,281.91155,315.99316Z"/><path d="M306.42523,292.33691h6.25683v24.55957h14.95117v5.38379h-21.208Z"/><path d="M340.14105,308.81152a9.12828,9.12828,0,0,0,2.3125-.50781,1.7423,1.7423,0,0,0,1.249-1.64551,1.94534,1.94534,0,0,0-.958-1.8789,6.04808,6.04808,0,0,0-2.81054-.51758,3.69044,3.69044,0,0,0-2.94532,1.01562,4.18953,4.18953,0,0,0-.82324,2.03125h-5.58691a8.47966,8.47966,0,0,1,1.63281-4.77441q2.30566-2.9253,7.916-2.9248a14.11465,14.11465,0,0,1,6.48829,1.44238q2.83593,1.44286,2.835,5.44433v10.15723q0,1.05615.041,2.55957a3.21019,3.21019,0,0,0,.34571,1.54395,2.07415,2.07415,0,0,0,.85253.66992v.85351H344.393a6.44166,6.44166,0,0,1-.36621-1.25976q-.10107-.58887-.16211-1.34082a11.94551,11.94551,0,0,1-2.7793,2.21484,8.396,8.396,0,0,1-4.25,1.07617,7.3325,7.3325,0,0,1-4.99609-1.71679,6.10313,6.10313,0,0,1-1.97168-4.86524,6.30473,6.30473,0,0,1,3.17187-5.91113,14.17313,14.17313,0,0,1,5.11719-1.42188Zm3.54,2.70215a6.3871,6.3871,0,0,1-1.12207.5586,9.46926,9.46926,0,0,1-1.55469.39648l-1.31738.24316a8.67429,8.67429,0,0,0-2.66211.793,2.64426,2.64426,0,0,0-1.36719,2.458,2.56737,2.56737,0,0,0,.835,2.14258,3.1739,3.1739,0,0,0,2.03223.66016,6.04933,6.04933,0,0,0,3.49609-1.09668q1.59961-1.09717,1.66016-4.002Z"/><path d="M372.36566,301.40723q2.17381,1.79736,2.17382,5.96191v14.91113h-5.93164V308.81152a6.18286,6.18286,0,0,0-.46386-2.68164,3.25655,3.25655,0,0,0-3.22657-1.70605,3.99876,3.99876,0,0,0-4.01269,2.499,8.64437,8.64437,0,0,0-.56445,3.37207v11.98535h-5.79V300.17773h5.60742v3.23047a9.795,9.795,0,0,1,2.10351-2.458,7.2906,7.2906,0,0,1,4.51075-1.34082A8.49113,8.49113,0,0,1,372.36566,301.40723Z"/><path d="M390.87737,300.11719a6.95267,6.95267,0,0,1,3.40821,3.21V300.1377H399.933v21.00488q0,4.28613-1.44238,6.46-2.47853,3.73829-9.50782,3.73828a12.95406,12.95406,0,0,1-6.92675-1.666,6.14424,6.14424,0,0,1-2.96582-4.97753h6.29687a2.60622,2.60622,0,0,0,.793,1.46289,4.8889,4.8889,0,0,0,3.14844.792q3.12744,0,4.18457-2.0918a10.5881,10.5881,0,0,0,.6914-4.50976v-1.42188a7.055,7.055,0,0,1-1.78808,2.13281,7.18477,7.18477,0,0,1-4.48926,1.32032,8.49553,8.49553,0,0,1-6.81543-2.9961,12.11333,12.11333,0,0,1-2.5498-8.11621,13.68925,13.68925,0,0,1,2.45507-8.29785,8.10748,8.10748,0,0,1,6.959-3.3623A7.61,7.61,0,0,1,390.87737,300.11719Zm1.97168,15.876q1.396-1.53369,1.39551-4.88574a7.49393,7.49393,0,0,0-1.32519-4.79394,4.32059,4.32059,0,0,0-3.54981-1.64551,4.183,4.183,0,0,0-4.1875,2.86426,10.18078,10.18078,0,0,0-.60742,3.75781,8.60553,8.60553,0,0,0,.64746,3.43359,4.21958,4.21958,0,0,0,4.208,2.80274A4.446,4.446,0,0,0,392.84905,315.99316Z"/><path d="M411.10589,300.1377v13.34668a7.01051,7.01051,0,0,0,.44531,2.84375,3.07472,3.07472,0,0,0,3.09278,1.68652,4.04293,4.04293,0,0,0,4.043-2.39746,8.7216,8.7216,0,0,0,.56542-3.4336V300.1377h5.8711v22.14257h-5.627v-3.1289q-.082.10254-.40528.61035a4.07609,4.07609,0,0,1-.76953.89355,8.0369,8.0369,0,0,1-2.624,1.666,8.94356,8.94356,0,0,1-2.96778.44629q-4.90136,0-6.60351-3.53418a13.56149,13.56149,0,0,1-.95215-5.749V300.1377Z"/><path d="M439.52,308.81152a9.12806,9.12806,0,0,0,2.3125-.50781,1.74231,1.74231,0,0,0,1.249-1.64551,1.94534,1.94534,0,0,0-.958-1.8789,6.04813,6.04813,0,0,0-2.81055-.51758,3.69042,3.69042,0,0,0-2.94531,1.01562,4.18953,4.18953,0,0,0-.82324,2.03125h-5.58692a8.47974,8.47974,0,0,1,1.63282-4.77441q2.30565-2.9253,7.916-2.9248a14.11461,14.11461,0,0,1,6.48828,1.44238q2.83595,1.44286,2.835,5.44433v10.15723q0,1.05615.041,2.55957a3.21009,3.21009,0,0,0,.3457,1.54395,2.07418,2.07418,0,0,0,.85254.66992v.85351h-6.29687a6.441,6.441,0,0,1-.36621-1.25976q-.10109-.58887-.16211-1.34082a11.94571,11.94571,0,0,1-2.7793,2.21484,8.396,8.396,0,0,1-4.25,1.07617,7.3325,7.3325,0,0,1-4.99609-1.71679,6.10309,6.10309,0,0,1-1.97168-4.86524,6.30471,6.30471,0,0,1,3.17187-5.91113,14.17307,14.17307,0,0,1,5.11719-1.42188Zm3.54,2.70215a6.3871,6.3871,0,0,1-1.12207.5586,9.46926,9.46926,0,0,1-1.55469.39648l-1.31738.24316a8.67438,8.67438,0,0,0-2.66211.793,2.64428,2.64428,0,0,0-1.36719,2.458,2.56735,2.56735,0,0,0,.835,2.14258,3.1739,3.1739,0,0,0,2.03222.66016,6.04933,6.04933,0,0,0,3.4961-1.09668q1.5996-1.09717,1.66015-4.002Z"/><path d="M464.8432,300.11719a6.95265,6.95265,0,0,1,3.4082,3.21V300.1377h5.64746v21.00488q0,4.28613-1.44238,6.46-2.47853,3.73829-9.50782,3.73828a12.95406,12.95406,0,0,1-6.92675-1.666,6.14424,6.14424,0,0,1-2.96582-4.97753H459.353a2.60622,2.60622,0,0,0,.793,1.46289,4.8889,4.8889,0,0,0,3.14844.792q3.12744,0,4.18457-2.0918a10.5881,10.5881,0,0,0,.6914-4.50976v-1.42188a7.055,7.055,0,0,1-1.78808,2.13281,7.18477,7.18477,0,0,1-4.48926,1.32032,8.49553,8.49553,0,0,1-6.81543-2.9961,12.11333,12.11333,0,0,1-2.5498-8.11621,13.68925,13.68925,0,0,1,2.45507-8.29785,8.10748,8.10748,0,0,1,6.959-3.3623A7.6101,7.6101,0,0,1,464.8432,300.11719Zm1.97167,15.876q1.396-1.53369,1.39551-4.88574a7.49393,7.49393,0,0,0-1.32519-4.79394,4.32059,4.32059,0,0,0-3.54981-1.64551,4.183,4.183,0,0,0-4.1875,2.86426,10.18078,10.18078,0,0,0-.60742,3.75781,8.60553,8.60553,0,0,0,.64746,3.43359,4.21958,4.21958,0,0,0,4.208,2.80274A4.446,4.446,0,0,0,466.81487,315.99316Z"/><path d="M493.73089,300.58594a9.00939,9.00939,0,0,1,3.82617,3.27539,10.88918,10.88918,0,0,1,1.76465,4.57812,28.41386,28.41386,0,0,1,.19043,4.39453H483.38519q.13476,3.33252,2.31543,4.67286a5.88772,5.88772,0,0,0,3.19238.832,4.496,4.496,0,0,0,4.40625-2.53907h5.91113a7.23565,7.23565,0,0,1-2.14648,4.002q-2.9751,3.23-8.33106,3.23047a12.0674,12.0674,0,0,1-7.79882-2.72461q-3.37939-2.72461-3.37891-8.86524,0-5.75389,3.0498-8.82324a10.6745,10.6745,0,0,1,7.91895-3.07031A12.61092,12.61092,0,0,1,493.73089,300.58594Zm-8.66113,5.002a6.01772,6.01772,0,0,0-1.543,3.42676h9.97461a4.83167,4.83167,0,0,0-1.542-3.499,5.07673,5.07673,0,0,0-3.4336-1.19336A4.58922,4.58922,0,0,0,485.06976,305.58789Z"/></svg>