<?xml version="1.0" encoding="utf-8"?>
<!-- Generator: Adobe Illustrator 27.4.0, SVG Export Plug-In . SVG Version: 6.00 Build 0)  -->
<svg version="1.1" xmlns="http://www.w3.org/2000/svg" xmlns:xlink="http://www.w3.org/1999/xlink" x="0px" y="0px"
	 viewBox="0 0 792 612" style="enable-background:new 0 0 792 612;" xml:space="preserve">
<style type="text/css">
	.Arched_x0020_Green{fill:url(#SVGID_1_);stroke:#FFFFFF;stroke-width:0.25;stroke-miterlimit:1;}
	.st0{fill:#D71920;}
</style>
<linearGradient id="SVGID_1_" gradientUnits="userSpaceOnUse" x1="0" y1="612" x2="0.7071" y2="611.2929">
	<stop  offset="0" style="stop-color:#20AC4B"/>
	<stop  offset="0.9831" style="stop-color:#19361A"/>
</linearGradient>
<g id="Layer_1">
</g>
<g id="Layer_2">
	<g>
		<path class="st0" d="M399.75,161.38c-33.62,0-60.87,27.25-60.87,60.87c0,33.62,27.25,60.87,60.87,60.87
			c33.62,0,60.87-27.25,60.87-60.87C460.62,188.63,433.37,161.38,399.75,161.38z M556.27,189.56L432.44,65.73
			c-17.98-17.98-47.39-17.98-65.37,0L243.23,189.57c-17.98,17.98-17.98,47.39,0,65.37l123.83,123.83
			c17.98,17.98,47.39,17.98,65.37,0l123.83-123.83C574.24,236.96,574.24,207.54,556.27,189.56z M399.75,321.64
			c-54.89,0-99.39-44.5-99.39-99.39c0-54.89,44.5-99.39,99.39-99.39c54.89,0,99.39,44.5,99.39,99.39
			C499.14,277.14,454.64,321.64,399.75,321.64z"/>
	</g>
	<path class="st0" d="M281.45,475.45c10.94,0,19.84,8.9,19.84,19.84c0,10.94-8.9,19.84-19.84,19.84c-10.94,0-19.84-8.9-19.84-19.84
		C261.61,484.35,270.51,475.45,281.45,475.45 M281.45,453.41c-23.13,0-41.88,18.75-41.88,41.88c0,23.13,18.75,41.88,41.88,41.88
		c23.13,0,41.88-18.75,41.88-41.88C323.33,472.16,304.59,453.41,281.45,453.41L281.45,453.41z"/>
	<path class="st0" d="M425.31,475.45c10.94,0,19.84,8.9,19.84,19.84c0,10.94-8.9,19.84-19.84,19.84c-10.94,0-19.84-8.9-19.84-19.84
		C405.47,484.35,414.37,475.45,425.31,475.45 M425.31,453.41c-23.13,0-41.88,18.75-41.88,41.88c0,23.13,18.75,41.88,41.88,41.88
		c23.13,0,41.88-18.75,41.88-41.88C467.19,472.16,448.44,453.41,425.31,453.41L425.31,453.41z"/>
	<polygon class="st0" points="377.33,456.83 359.33,456.83 359.33,428.83 333.83,428.83 333.83,537.17 359.33,537.17 359.33,478.5 
		377.33,478.5 	"/>
	<path class="st0" d="M534.76,456.83l-11.59,42.4l-6.4-0.05c-11.73-0.27-13.81-10.8-13.99-11.91l-8.32-30.44h-25.13
		c5.11,18.13,10.32,36.59,12.88,45.65c4.98,17.65,18.4,18.54,21.04,18.54c0.24,0,0.39-0.01,0.55-0.01l13.39,0.09l-1.71,6.26
		c-0.2,1.2-2.26,11.74-14.05,12.01L485,539.35l-4.64,21.81l34.21,0.03c0.02,0,0.17,0.01,0.43,0.01c2.64,0,16.06-0.89,21.04-18.54
		c4.51-15.98,17.29-61.31,23.2-82.31l0.99-3.51H534.76z"/>
</g>
</svg>
