<svg width="255" height="130" version="1.1" xmlns="http://www.w3.org/2000/svg"><path fill="rgb(0,0,0)" stroke="rgb(0,0,0)" stroke-width="1" opacity="0" d="M 0 0 L 126 0.5 L 123 5.5 L 125.5 9 L 130.5 10 Q 135 9 134 2.5 L 132.5 0 L 255 0 L 255 130 L 131 129.5 L 133 129 Q 134.6 126.9 134 121.5 L 127.5 118 L 123 120 L 122 126.5 L 124.5 130 L 0 130 L 0 0 Z M 141 1 L 138 2 L 137 9 Q 138 13 146 12 L 149 7 L 147 2 L 141 1 Z M 115 2 L 112 5 Q 111 10 116 11 L 120 10 Q 122 9 121 5 Q 120 1 115 2 Z M 106 5 L 102 9 Q 101 13 105 14 Q 110 15 111 11 L 110 8 Q 110 5 106 5 Z M 155 6 Q 150 8 151 16 Q 153 20 160 19 L 164 13 L 162 7 Q 160 5 155 6 Z M 98 10 Q 93 10 94 16 Q 95 19 100 18 L 102 14 L 98 10 Z M 91 16 Q 88 17 88 21 Q 89 24 93 23 Q 95 22 94 17 L 91 16 Z M 170 16 L 165 18 L 163 23 L 165 29 L 170 31 Q 176 31 178 27 L 177 20 Q 176 15 170 16 Z M 86 22 Q 83 22 83 27 Q 84 29 88 28 Q 90 27 89 23 L 86 22 Z M 81 28 L 79 32 Q 80 34 84 33 L 85 30 Q 84 27 81 28 Z M 181 32 L 176 34 L 172 41 L 174 46 L 180 49 L 185 48 L 189 43 L 188 37 Q 186 32 181 32 Z M 79 33 L 78 34 Q 75 33 76 37 L 80 39 Q 82 38 81 35 L 79 33 Z M 57 42 L 56 43 L 54 44 L 54 79 L 57 80 Q 62 81 64 79 L 65 66 L 79 66 L 84 64 L 88 60 L 89 61 L 95 61 Q 96 57 104 58 L 105 61 L 91 64 L 86 69 L 87 77 L 92 80 Q 101 82 105 78 L 110 80 Q 114 81 115 79 L 115 59 L 114 56 L 112 53 L 106 51 Q 92 49 89 56 L 87 49 L 80 43 Q 75 44 74 42 L 57 42 Z M 157 42 L 155 44 Q 154 48 157 49 L 164 49 L 164 44 Q 163 41 157 42 Z M 140 45 L 139 51 Q 137 55 135 51 L 131 51 L 127 54 L 122 51 L 120 52 L 117 53 L 117 79 Q 118 81 124 80 L 126 78 L 126 64 L 127 62 L 129 60 L 135 59 L 137 57 L 139 58 L 140 77 Q 142 82 152 80 Q 155 79 154 76 Q 153 72 149 73 L 149 59 L 153 58 L 154 54 Q 153 51 149 52 L 148 47 L 148 45 L 140 45 Z M 160 51 L 157 52 L 155 54 L 155 79 L 158 80 L 163 79 L 164 79 L 164 52 L 160 51 Z M 177 51 L 171 54 L 165 64 L 165 69 L 168 75 L 174 79 L 182 81 L 192 79 L 199 71 Q 201 61 197 58 Q 192 49 177 51 Z M 74 74 Q 71 75 72 79 L 75 80 L 77 77 L 74 74 Z M 75 81 Q 72 82 73 86 L 77 87 Q 79 86 78 83 L 75 81 Z M 178 82 L 174 84 L 170 91 L 171 95 L 178 100 Q 184 101 186 98 L 188 95 L 187 86 Q 185 81 178 82 Z M 77 89 Q 74 90 75 94 Q 76 96 80 95 Q 82 94 81 91 Q 80 88 77 89 Z M 82 96 Q 78 97 79 102 Q 80 105 84 104 Q 87 103 86 99 Q 85 95 82 96 Z M 164 103 L 162 104 Q 156 106 158 115 L 164 119 L 171 117 L 173 114 L 172 107 Q 170 102 164 103 Z M 89 104 Q 85 105 85 110 Q 86 113 92 112 Q 94 111 93 107 Q 93 104 89 104 Z M 98 111 Q 94 112 95 119 L 101 121 Q 105 120 104 115 Q 103 110 98 111 Z M 147 114 L 144 115 Q 139 117 140 125 Q 142 130 150 128 L 154 123 L 153 119 L 147 114 Z M 110 117 Q 106 118 107 125 Q 108 128 115 127 Q 118 126 117 120 Q 116 116 110 117 Z "></path><path fill="rgb(0,0,0)" stroke="rgb(0,0,0)" stroke-width="1" opacity="0" d="M 69.5 49 Q 70.8 51.3 75.5 50 L 77 51.5 Q 78.3 57.8 74.5 59 L 65 59 L 65 50 L 69.5 49 Z "></path><path fill="rgb(0,0,0)" stroke="rgb(0,0,0)" stroke-width="1" opacity="0" d="M 179.5 58 Q 184.9 57.4 187 59 Q 189.6 61.3 189 67.5 L 186.5 72 L 179.5 73 L 177 72 L 175 65.5 L 177 59 L 179.5 58 Z "></path><path fill="rgb(0,0,0)" stroke="rgb(0,0,0)" stroke-width="1" opacity="0" d="M 102.5 67 Q 106.7 65.7 105 70.5 L 104 73 L 97.5 74 L 95 70.5 L 102.5 67 Z "></path><path fill="rgb(0,0,0)" stroke="rgb(0,0,0)" stroke-width="1" opacity="0.9764705882352941" d="M 128.5 0 L 133 2.5 Q 134 8 130.5 9 Q 125.8 9.8 125 6.5 Q 124 2 126.5 1 L 128.5 0 Z "></path><path fill="rgb(0,0,0)" stroke="rgb(0,0,0)" stroke-width="1" opacity="0.9764705882352941" d="M 142.5 1 L 146 2 L 148 6.5 L 144.5 11 Q 139 12 138 8.5 L 139 2 L 142.5 1 Z "></path><path fill="rgb(0,0,0)" stroke="rgb(0,0,0)" stroke-width="1" opacity="0.9764705882352941" d="M 115.5 2 Q 119.5 1.5 120 4.5 Q 121.9 9.9 118.5 9 L 115.5 10 Q 112.3 9.3 113 4.5 L 115.5 2 Z "></path><path fill="rgb(0,0,0)" stroke="rgb(0,0,0)" stroke-width="1" opacity="0.9764705882352941" d="M 105.5 6 L 109 7 L 110 9.5 L 107.5 13 Q 103.5 13.5 103 10.5 Q 102.5 6.5 105.5 6 Z "></path><path fill="rgb(0,0,0)" stroke="rgb(0,0,0)" stroke-width="1" opacity="0.9764705882352941" d="M 154.5 7 Q 161.8 5.8 163 10.5 Q 163.6 15.6 160.5 17 L 155.5 18 L 152 15.5 Q 150.5 8.5 154.5 7 Z "></path><path fill="rgb(0,0,0)" stroke="rgb(0,0,0)" stroke-width="1" opacity="0.9764705882352941" d="M 97.5 11 L 101 13.5 L 100 17 Q 96.2 18 95 15.5 Q 94.5 11.5 97.5 11 Z "></path><path fill="rgb(0,0,0)" stroke="rgb(0,0,0)" stroke-width="1" opacity="0.9764705882352941" d="M 90.5 17 Q 93.8 15.9 93 18.5 L 94 20.5 L 90.5 22 L 89 18.5 L 90.5 17 Z "></path><path fill="rgb(0,0,0)" stroke="rgb(0,0,0)" stroke-width="1" opacity="0.9764705882352941" d="M 168.5 17 Q 174.3 16.2 176 19.5 L 177 25.5 L 174.5 29 L 168.5 30 Q 164.4 28.1 164 22.5 L 168.5 17 Z "></path><path fill="rgb(0,0,0)" stroke="rgb(0,0,0)" stroke-width="1" opacity="0.9764705882352941" d="M 85.5 23 Q 90.1 21.8 88 27 Q 82.8 29.1 84 24.5 L 85.5 23 Z "></path><path fill="rgb(0,0,0)" stroke="rgb(0,0,0)" stroke-width="1" opacity="0.9764705882352941" d="M 81.5 29 L 84 30.5 L 80 32 L 81.5 29 Z "></path><path fill="rgb(0,0,0)" stroke="rgb(0,0,0)" stroke-width="1" opacity="0.9764705882352941" d="M 180.5 33 Q 185.3 33.3 187 36.5 L 188 43.5 Q 186.4 48.9 178.5 48 L 175 45.5 L 173 40.5 L 177.5 34 L 180.5 33 Z "></path><path fill="rgb(0,0,0)" stroke="rgb(0,0,0)" stroke-width="1" opacity="0.9764705882352941" d="M 78.5 34 Q 81.1 33.2 80 36.5 Q 78.5 39.5 77 36.5 L 78.5 34 Z "></path><path fill="rgb(0,0,0)" stroke="rgb(0,0,0)" stroke-width="1" opacity="0.9764705882352941" d="M 56.5 43 L 77.5 43 Q 83.3 44.3 86 48.5 L 87 56.5 L 83.5 63 Q 76.1 67.4 64 66 L 63 78 L 57.5 79 L 54 76.5 L 54 44.5 L 55.5 44 L 56.5 43 Z M 64 49 L 63 52 Q 62 58 66 60 Q 72 61 76 59 Q 79 58 78 52 L 75 49 L 64 49 Z "></path><path fill="rgb(0,0,0)" stroke="rgb(0,0,0)" stroke-width="1" opacity="0.9764705882352941" d="M 156 43 L 163 43 L 163 48 L 157.5 49 Q 154.8 47.6 156 43 Z "></path><path fill="rgb(0,0,0)" stroke="rgb(0,0,0)" stroke-width="1" opacity="0.9764705882352941" d="M 141.5 45 Q 147 44 148 47.5 Q 147 52 149.5 53 L 153 54.5 L 151.5 57 L 148 58.5 L 148 72.5 L 149.5 74 L 153 75.5 L 151.5 79 Q 142.5 80.5 140 75.5 L 140 58.5 L 138.5 57 Q 135.5 57.9 137 53.5 L 140 52 Q 138.5 46.6 141.5 45 Z "></path><path fill="rgb(0,0,0)" stroke="rgb(0,0,0)" stroke-width="1" opacity="0.9764705882352941" d="M 95.5 52 Q 107.6 50.4 113 55.5 L 114 57.5 L 114 76.5 L 115 77.5 L 110.5 79 L 104.5 77 Q 100.5 80.5 91.5 79 L 88 77 Q 86.3 74.6 87 68.5 L 92.5 64 L 101.5 63 L 106 60.5 Q 107.1 57.2 104.5 58 Q 103 55.5 97.5 57 Q 95.5 61.8 88 60 L 88 57.5 L 92.5 53 L 95.5 52 Z M 100 67 L 97 68 Q 94 69 95 74 L 98 75 Q 104 76 106 72 L 106 67 L 100 67 Z "></path><path fill="rgb(0,0,0)" stroke="rgb(0,0,0)" stroke-width="1" opacity="0.9764705882352941" d="M 131.5 52 L 135 52 L 135 58 L 128.5 59 L 126 61.5 L 125 63.5 L 125 78 L 119.5 79 L 117 76.5 L 117 59.5 L 118 53 L 124.5 53 L 125 55 L 126.5 55 L 131.5 52 Z "></path><path fill="rgb(0,0,0)" stroke="rgb(0,0,0)" stroke-width="1" opacity="0.9764705882352941" d="M 176.5 52 Q 190.1 49.9 195 56.5 L 199 64.5 L 199 67.5 L 192.5 77 Q 187.5 81 176.5 79 L 170 76 Q 166.5 72.2 166 64.5 Q 167.4 56.4 173.5 53 L 176.5 52 Z M 180 57 L 178 58 L 174 64 L 175 71 L 180 74 L 187 73 L 190 68 L 189 61 Q 187 56 180 57 Z "></path><path fill="rgb(0,0,0)" stroke="rgb(0,0,0)" stroke-width="1" opacity="0.9764705882352941" d="M 156 53 L 162.5 53 L 163 53.5 L 163 78 L 157.5 79 L 156 77.5 L 156 53 Z "></path><path fill="rgb(0,0,0)" stroke="rgb(0,0,0)" stroke-width="1" opacity="0.9764705882352941" d="M 73.5 75 L 76 76.5 L 74.5 79 L 72 77.5 L 73.5 75 Z "></path><path fill="rgb(0,0,0)" stroke="rgb(0,0,0)" stroke-width="1" opacity="0.9764705882352941" d="M 74.5 82 Q 79.1 80.8 77 86 L 73 84.5 L 74.5 82 Z "></path><path fill="rgb(0,0,0)" stroke="rgb(0,0,0)" stroke-width="1" opacity="0.9764705882352941" d="M 176.5 83 Q 183.8 81.8 186 85.5 L 188 92.5 L 183.5 98 L 177.5 99 L 172 94.5 Q 170.3 84.8 176.5 83 Z "></path><path fill="rgb(0,0,0)" stroke="rgb(0,0,0)" stroke-width="1" opacity="0.9764705882352941" d="M 77.5 89 L 80 90.5 L 78.5 94 Q 74.3 95.3 76 90.5 L 77.5 89 Z "></path><path fill="rgb(0,0,0)" stroke="rgb(0,0,0)" stroke-width="1" opacity="0.9764705882352941" d="M 81.5 97 L 85 98.5 Q 85.8 102.3 83.5 103 L 80 101.5 Q 79.3 97.8 81.5 97 Z "></path><path fill="rgb(0,0,0)" stroke="rgb(0,0,0)" stroke-width="1" opacity="0.9764705882352941" d="M 162.5 104 Q 169 103 171 106.5 L 172 113.5 Q 169.9 117.9 163.5 118 L 159 114.5 L 158 109.5 L 162.5 104 Z "></path><path fill="rgb(0,0,0)" stroke="rgb(0,0,0)" stroke-width="1" opacity="0.9764705882352941" d="M 88.5 105 Q 92.5 104.5 93 107.5 L 90.5 112 Q 86.5 112.5 86 109.5 Q 85.5 105.5 88.5 105 Z "></path><path fill="rgb(0,0,0)" stroke="rgb(0,0,0)" stroke-width="1" opacity="0.9764705882352941" d="M 97.5 112 Q 102.3 111.3 103 114.5 Q 103.8 118.3 101.5 119 L 98.5 120 L 96 119 L 95 114.5 L 97.5 112 Z "></path><path fill="rgb(0,0,0)" stroke="rgb(0,0,0)" stroke-width="1" opacity="0.9764705882352941" d="M 143.5 116 Q 150.5 114.5 152 118.5 L 153 121.5 L 149.5 127 Q 143.5 128.5 142 125.5 L 141 118.5 L 143.5 116 Z "></path><path fill="rgb(0,0,0)" stroke="rgb(0,0,0)" stroke-width="1" opacity="0.9764705882352941" d="M 109.5 118 Q 114.8 116.8 116 119.5 Q 117.3 124.8 114.5 126 Q 109.3 127.3 108 124.5 Q 106.8 119.3 109.5 118 Z "></path><path fill="rgb(0,0,0)" stroke="rgb(0,0,0)" stroke-width="1" opacity="0.9764705882352941" d="M 127.5 119 L 132 120 L 133 126.5 Q 132.5 130.5 127.5 130 L 123 126.5 Q 122 121 125.5 120 L 127.5 119 Z "></path><path fill="rgb(0,0,0)" stroke="rgb(0,0,0)" stroke-width="1" opacity="0.49411764705882355" d="M 125.5 1 L 125 2.5 Q 124 7.5 127 8.5 L 124 6.5 Q 123 2 125.5 1 Z "></path><path fill="rgb(0,0,0)" stroke="rgb(0,0,0)" stroke-width="1" opacity="0.49411764705882355" d="M 118.5 2 Q 121.8 2.8 121 7.5 L 120 7.5 Q 120.5 2.8 118.5 2 Z "></path><path fill="rgb(0,0,0)" stroke="rgb(0,0,0)" stroke-width="1" opacity="0.49411764705882355" d="M 146.5 3 L 148 5.5 L 147 5.5 L 146.5 3 Z "></path><path fill="rgb(0,0,0)" stroke="rgb(0,0,0)" stroke-width="1" opacity="0.49411764705882355" d="M 112.5 5 L 115 9.5 L 112 7.5 L 112.5 5 Z "></path><path fill="rgb(0,0,0)" stroke="rgb(0,0,0)" stroke-width="1" opacity="0.49411764705882355" d="M 137.5 5 L 138 7.5 L 137 7.5 L 137.5 5 Z "></path><path fill="rgb(0,0,0)" stroke="rgb(0,0,0)" stroke-width="1" opacity="0.49411764705882355" d="M 104.5 6 L 103.5 8 L 104.5 6 Z "></path><path fill="rgb(0,0,0)" stroke="rgb(0,0,0)" stroke-width="1" opacity="0.49411764705882355" d="M 156.5 6 L 159 6.5 L 156.5 7 L 156.5 6 Z "></path><path fill="rgb(0,0,0)" stroke="rgb(0,0,0)" stroke-width="1" opacity="0.49411764705882355" d="M 132.5 7 L 131.5 9 L 132.5 7 Z "></path><path fill="rgb(0,0,0)" stroke="rgb(0,0,0)" stroke-width="1" opacity="0.49411764705882355" d="M 147.5 7 L 148 8.5 Q 147 13 140.5 12 L 138.5 9 Q 139.5 12 144.5 11 L 147.5 7 Z "></path><path fill="rgb(0,0,0)" stroke="rgb(0,0,0)" stroke-width="1" opacity="0.49411764705882355" d="M 153.5 7 L 152.5 9 L 153.5 7 Z "></path><path fill="rgb(0,0,0)" stroke="rgb(0,0,0)" stroke-width="1" opacity="0.49411764705882355" d="M 160.5 7 L 162.5 10 L 160.5 7 Z "></path><path fill="rgb(0,0,0)" stroke="rgb(0,0,0)" stroke-width="1" opacity="0.49411764705882355" d="M 151.5 10 L 152 14.5 L 151 14.5 L 151.5 10 Z "></path><path fill="rgb(0,0,0)" stroke="rgb(0,0,0)" stroke-width="1" opacity="0.49411764705882355" d="M 96.5 11 L 95.5 13 L 96.5 11 Z "></path><path fill="rgb(0,0,0)" stroke="rgb(0,0,0)" stroke-width="1" opacity="0.49411764705882355" d="M 98.5 11 L 101 12.5 L 99.5 12 L 98.5 11 Z "></path><path fill="rgb(0,0,0)" stroke="rgb(0,0,0)" stroke-width="1" opacity="0.49411764705882355" d="M 103.5 11 L 104.5 13 L 103.5 11 Z "></path><path fill="rgb(0,0,0)" stroke="rgb(0,0,0)" stroke-width="1" opacity="0.49411764705882355" d="M 89.5 17 L 89 18.5 L 90 21.5 L 88 20.5 L 89.5 17 Z "></path><path fill="rgb(0,0,0)" stroke="rgb(0,0,0)" stroke-width="1" opacity="0.49411764705882355" d="M 167.5 17 L 165.5 20 L 167.5 17 Z "></path><path fill="rgb(0,0,0)" stroke="rgb(0,0,0)" stroke-width="1" opacity="0.49411764705882355" d="M 177.5 22 L 178 24.5 L 177 24.5 L 177.5 22 Z "></path><path fill="rgb(0,0,0)" stroke="rgb(0,0,0)" stroke-width="1" opacity="0.49411764705882355" d="M 84.5 23 L 84 24.5 L 83.5 26 L 83 24.5 L 84.5 23 Z "></path><path fill="rgb(0,0,0)" stroke="rgb(0,0,0)" stroke-width="1" opacity="0.49411764705882355" d="M 165.5 27 L 167.5 30 L 165.5 27 Z "></path><path fill="rgb(0,0,0)" stroke="rgb(0,0,0)" stroke-width="1" opacity="0.49411764705882355" d="M 81.5 28 L 84 29.5 L 82.5 29 L 80.5 30 L 81.5 28 Z "></path><path fill="rgb(0,0,0)" stroke="rgb(0,0,0)" stroke-width="1" opacity="0.49411764705882355" d="M 83.5 31 L 82.5 33 L 81 32.5 L 83.5 31 Z "></path><path fill="rgb(0,0,0)" stroke="rgb(0,0,0)" stroke-width="1" opacity="0.49411764705882355" d="M 176.5 34 L 174.5 37 L 176.5 34 Z "></path><path fill="rgb(0,0,0)" stroke="rgb(0,0,0)" stroke-width="1" opacity="0.49411764705882355" d="M 185.5 34 L 186.5 36 L 185.5 34 Z "></path><path fill="rgb(0,0,0)" stroke="rgb(0,0,0)" stroke-width="1" opacity="0.49411764705882355" d="M 80.5 35 L 81 36.5 L 79 37.5 L 80.5 35 Z "></path><path fill="rgb(0,0,0)" stroke="rgb(0,0,0)" stroke-width="1" opacity="0.49411764705882355" d="M 188.5 39 L 189 41.5 L 188 41.5 L 188.5 39 Z "></path><path fill="rgb(0,0,0)" stroke="rgb(0,0,0)" stroke-width="1" opacity="0.49411764705882355" d="M 173.5 41 L 175 44.5 L 173 43.5 L 173.5 41 Z "></path><path fill="rgb(0,0,0)" stroke="rgb(0,0,0)" stroke-width="1" opacity="0.49411764705882355" d="M 157.5 42 L 161 42.5 L 157.5 43 L 157.5 42 Z "></path><path fill="rgb(0,0,0)" stroke="rgb(0,0,0)" stroke-width="1" opacity="0.49411764705882355" d="M 155.5 43 L 157 48.5 L 155 47.5 L 155.5 43 Z "></path><path fill="rgb(0,0,0)" stroke="rgb(0,0,0)" stroke-width="1" opacity="0.49411764705882355" d="M 163.5 43 L 164 47.5 L 161.5 49 L 161.5 48 L 163 48 L 163.5 43 Z "></path><path fill="rgb(0,0,0)" stroke="rgb(0,0,0)" stroke-width="1" opacity="0.49411764705882355" d="M 187.5 44 L 185.5 47 L 187.5 44 Z "></path><path fill="rgb(0,0,0)" stroke="rgb(0,0,0)" stroke-width="1" opacity="0.49411764705882355" d="M 146.5 45 L 147.5 47 L 146.5 45 Z "></path><path fill="rgb(0,0,0)" stroke="rgb(0,0,0)" stroke-width="1" opacity="0.49411764705882355" d="M 76.5 50 L 77.5 52 L 76.5 50 Z "></path><path fill="rgb(0,0,0)" stroke="rgb(0,0,0)" stroke-width="1" opacity="0.49411764705882355" d="M 148.5 50 L 149 52 L 153 53.5 L 151.5 53 L 148 51.5 L 148.5 50 Z "></path><path fill="rgb(0,0,0)" stroke="rgb(0,0,0)" stroke-width="1" opacity="0.49411764705882355" d="M 63.5 51 L 64 56.5 L 63 56.5 L 63.5 51 Z "></path><path fill="rgb(0,0,0)" stroke="rgb(0,0,0)" stroke-width="1" opacity="0.49411764705882355" d="M 98.5 51 L 104 51.5 L 98.5 52 L 98.5 51 Z "></path><path fill="rgb(0,0,0)" stroke="rgb(0,0,0)" stroke-width="1" opacity="0.49411764705882355" d="M 178.5 51 L 186 51.5 L 178.5 52 L 178.5 51 Z "></path><path fill="rgb(0,0,0)" stroke="rgb(0,0,0)" stroke-width="1" opacity="0.49411764705882355" d="M 106.5 52 L 109 52.5 L 106.5 53 L 106.5 52 Z "></path><path fill="rgb(0,0,0)" stroke="rgb(0,0,0)" stroke-width="1" opacity="0.49411764705882355" d="M 118.5 52 L 124 52.5 L 118 53 L 117.5 59 L 117 53.5 L 118.5 52 Z "></path><path fill="rgb(0,0,0)" stroke="rgb(0,0,0)" stroke-width="1" opacity="0.49411764705882355" d="M 156.5 52 Q 162.5 50.5 164 53.5 L 164 77.5 L 162.5 79 L 161 78.5 L 163 78 L 163 53.5 L 162.5 53 L 156 53 L 156 77.5 L 157 78.5 L 155 77.5 L 155 53.5 L 156.5 52 Z "></path><path fill="rgb(0,0,0)" stroke="rgb(0,0,0)" stroke-width="1" opacity="0.49411764705882355" d="M 91.5 53 L 88.5 57 L 91.5 53 Z "></path><path fill="rgb(0,0,0)" stroke="rgb(0,0,0)" stroke-width="1" opacity="0.49411764705882355" d="M 135.5 53 L 137 55.5 L 135 56.5 L 135.5 53 Z "></path><path fill="rgb(0,0,0)" stroke="rgb(0,0,0)" stroke-width="1" opacity="0.49411764705882355" d="M 172.5 53 L 168.5 58 L 172.5 53 Z "></path><path fill="rgb(0,0,0)" stroke="rgb(0,0,0)" stroke-width="1" opacity="0.49411764705882355" d="M 97.5 57 L 100 57.5 L 95.5 60 L 97.5 57 Z "></path><path fill="rgb(0,0,0)" stroke="rgb(0,0,0)" stroke-width="1" opacity="0.49411764705882355" d="M 137.5 57 L 140 58.5 L 139.5 62 L 139 58 L 137.5 57 Z "></path><path fill="rgb(0,0,0)" stroke="rgb(0,0,0)" stroke-width="1" opacity="0.49411764705882355" d="M 149.5 57 L 151 57.5 L 148.5 59 L 149.5 57 Z "></path><path fill="rgb(0,0,0)" stroke="rgb(0,0,0)" stroke-width="1" opacity="0.49411764705882355" d="M 195.5 57 L 197 59.5 L 196 59.5 L 195.5 57 Z "></path><path fill="rgb(0,0,0)" stroke="rgb(0,0,0)" stroke-width="1" opacity="0.49411764705882355" d="M 105.5 58 L 106 60.5 L 104 61.5 L 105.5 58 Z "></path><path fill="rgb(0,0,0)" stroke="rgb(0,0,0)" stroke-width="1" opacity="0.49411764705882355" d="M 177.5 58 L 176.5 60 L 177.5 58 Z "></path><path fill="rgb(0,0,0)" stroke="rgb(0,0,0)" stroke-width="1" opacity="0.49411764705882355" d="M 186.5 58 L 188.5 61 L 186.5 58 Z "></path><path fill="rgb(0,0,0)" stroke="rgb(0,0,0)" stroke-width="1" opacity="0.49411764705882355" d="M 65.5 59 L 74 59.5 L 65.5 60 L 65.5 59 Z "></path><path fill="rgb(0,0,0)" stroke="rgb(0,0,0)" stroke-width="1" opacity="0.49411764705882355" d="M 128.5 59 L 130 59.5 L 126.5 62 L 128.5 59 Z "></path><path fill="rgb(0,0,0)" stroke="rgb(0,0,0)" stroke-width="1" opacity="0.49411764705882355" d="M 89.5 60 L 94 60.5 L 89.5 61 L 89.5 60 Z "></path><path fill="rgb(0,0,0)" stroke="rgb(0,0,0)" stroke-width="1" opacity="0.49411764705882355" d="M 166.5 61 L 167 63.5 L 166 63.5 L 166.5 61 Z "></path><path fill="rgb(0,0,0)" stroke="rgb(0,0,0)" stroke-width="1" opacity="0.49411764705882355" d="M 197.5 61 Q 200.1 60.2 199 63.5 L 198 63.5 L 197.5 61 Z "></path><path fill="rgb(0,0,0)" stroke="rgb(0,0,0)" stroke-width="1" opacity="0.49411764705882355" d="M 99.5 62 L 102 62.5 L 99.5 63 L 99.5 62 Z "></path><path fill="rgb(0,0,0)" stroke="rgb(0,0,0)" stroke-width="1" opacity="0.49411764705882355" d="M 125.5 63 L 126 76.5 L 125 76.5 L 125.5 63 Z "></path><path fill="rgb(0,0,0)" stroke="rgb(0,0,0)" stroke-width="1" opacity="0.49411764705882355" d="M 174.5 63 L 175 67.5 L 174 67.5 L 174.5 63 Z "></path><path fill="rgb(0,0,0)" stroke="rgb(0,0,0)" stroke-width="1" opacity="0.49411764705882355" d="M 189.5 63 L 190 67.5 L 189 67.5 L 189.5 63 Z "></path><path fill="rgb(0,0,0)" stroke="rgb(0,0,0)" stroke-width="1" opacity="0.49411764705882355" d="M 75.5 65 L 78 65.5 L 75.5 66 L 75.5 65 Z "></path><path fill="rgb(0,0,0)" stroke="rgb(0,0,0)" stroke-width="1" opacity="0.49411764705882355" d="M 89.5 65 L 87.5 68 L 89.5 65 Z "></path><path fill="rgb(0,0,0)" stroke="rgb(0,0,0)" stroke-width="1" opacity="0.49411764705882355" d="M 96.5 68 L 95.5 70 L 96.5 68 Z "></path><path fill="rgb(0,0,0)" stroke="rgb(0,0,0)" stroke-width="1" opacity="0.49411764705882355" d="M 114.5 68 L 115 76.5 L 114 76.5 L 114.5 68 Z "></path><path fill="rgb(0,0,0)" stroke="rgb(0,0,0)" stroke-width="1" opacity="0.49411764705882355" d="M 198.5 68 L 199 69.5 L 197 70.5 L 198.5 68 Z "></path><path fill="rgb(0,0,0)" stroke="rgb(0,0,0)" stroke-width="1" opacity="0.49411764705882355" d="M 105.5 69 L 106 71.5 L 103 73.5 L 105.5 69 Z "></path><path fill="rgb(0,0,0)" stroke="rgb(0,0,0)" stroke-width="1" opacity="0.49411764705882355" d="M 175.5 69 L 178 72.5 L 175 70.5 L 175.5 69 Z "></path><path fill="rgb(0,0,0)" stroke="rgb(0,0,0)" stroke-width="1" opacity="0.49411764705882355" d="M 63.5 70 L 64 77.5 L 61.5 79 L 61.5 78 L 63 77.5 L 63.5 70 Z "></path><path fill="rgb(0,0,0)" stroke="rgb(0,0,0)" stroke-width="1" opacity="0.49411764705882355" d="M 86.5 70 L 87 73.5 L 86 73.5 L 86.5 70 Z "></path><path fill="rgb(0,0,0)" stroke="rgb(0,0,0)" stroke-width="1" opacity="0.49411764705882355" d="M 188.5 70 L 186.5 73 L 188.5 70 Z "></path><path fill="rgb(0,0,0)" stroke="rgb(0,0,0)" stroke-width="1" opacity="0.49411764705882355" d="M 148.5 71 L 150 73.5 L 148 72.5 L 148.5 71 Z "></path><path fill="rgb(0,0,0)" stroke="rgb(0,0,0)" stroke-width="1" opacity="0.49411764705882355" d="M 168.5 73 L 169.5 75 L 168.5 73 Z "></path><path fill="rgb(0,0,0)" stroke="rgb(0,0,0)" stroke-width="1" opacity="0.49411764705882355" d="M 97.5 74 L 102 74.5 L 97.5 75 L 97.5 74 Z "></path><path fill="rgb(0,0,0)" stroke="rgb(0,0,0)" stroke-width="1" opacity="0.49411764705882355" d="M 171.5 76 L 172.5 78 L 171.5 76 Z "></path><path fill="rgb(0,0,0)" stroke="rgb(0,0,0)" stroke-width="1" opacity="0.49411764705882355" d="M 54.5 77 L 57 78.5 L 55.5 79 L 54.5 77 Z "></path><path fill="rgb(0,0,0)" stroke="rgb(0,0,0)" stroke-width="1" opacity="0.49411764705882355" d="M 89.5 77 L 90.5 79 L 89.5 77 Z "></path><path fill="rgb(0,0,0)" stroke="rgb(0,0,0)" stroke-width="1" opacity="0.49411764705882355" d="M 104.5 77 L 110 78.5 L 107.5 79 L 104.5 78 L 104.5 77 Z "></path><path fill="rgb(0,0,0)" stroke="rgb(0,0,0)" stroke-width="1" opacity="0.49411764705882355" d="M 117.5 77 L 118.5 79 L 117.5 77 Z "></path><path fill="rgb(0,0,0)" stroke="rgb(0,0,0)" stroke-width="1" opacity="0.49411764705882355" d="M 93.5 79 L 100 79.5 L 93.5 80 L 93.5 79 Z "></path><path fill="rgb(0,0,0)" stroke="rgb(0,0,0)" stroke-width="1" opacity="0.49411764705882355" d="M 178.5 79 L 186 79.5 L 178.5 80 L 178.5 79 Z "></path><path fill="rgb(0,0,0)" stroke="rgb(0,0,0)" stroke-width="1" opacity="0.49411764705882355" d="M 178.5 82 L 182 82.5 L 178.5 83 L 178.5 82 Z "></path><path fill="rgb(0,0,0)" stroke="rgb(0,0,0)" stroke-width="1" opacity="0.49411764705882355" d="M 175.5 83 L 172.5 87 L 175.5 83 Z "></path><path fill="rgb(0,0,0)" stroke="rgb(0,0,0)" stroke-width="1" opacity="0.49411764705882355" d="M 171.5 88 L 172 93.5 L 171 93.5 L 171.5 88 Z "></path><path fill="rgb(0,0,0)" stroke="rgb(0,0,0)" stroke-width="1" opacity="0.49411764705882355" d="M 76.5 89 L 76 90.5 L 75.5 93 L 75 90.5 L 76.5 89 Z "></path><path fill="rgb(0,0,0)" stroke="rgb(0,0,0)" stroke-width="1" opacity="0.49411764705882355" d="M 79.5 89 L 81 92.5 L 77.5 95 L 77.5 94 L 80 92.5 L 79.5 89 Z "></path><path fill="rgb(0,0,0)" stroke="rgb(0,0,0)" stroke-width="1" opacity="0.49411764705882355" d="M 172.5 95 L 174.5 98 L 172.5 95 Z "></path><path fill="rgb(0,0,0)" stroke="rgb(0,0,0)" stroke-width="1" opacity="0.49411764705882355" d="M 186.5 95 L 184.5 98 L 186.5 95 Z "></path><path fill="rgb(0,0,0)" stroke="rgb(0,0,0)" stroke-width="1" opacity="0.49411764705882355" d="M 164.5 103 L 167 103.5 L 164.5 104 L 164.5 103 Z "></path><path fill="rgb(0,0,0)" stroke="rgb(0,0,0)" stroke-width="1" opacity="0.49411764705882355" d="M 87.5 105 L 86.5 107 L 87.5 105 Z "></path><path fill="rgb(0,0,0)" stroke="rgb(0,0,0)" stroke-width="1" opacity="0.49411764705882355" d="M 91.5 105 L 92.5 107 L 91.5 105 Z "></path><path fill="rgb(0,0,0)" stroke="rgb(0,0,0)" stroke-width="1" opacity="0.49411764705882355" d="M 160.5 105 L 159.5 107 L 160.5 105 Z "></path><path fill="rgb(0,0,0)" stroke="rgb(0,0,0)" stroke-width="1" opacity="0.49411764705882355" d="M 172.5 109 L 173 112.5 L 172 112.5 L 172.5 109 Z "></path><path fill="rgb(0,0,0)" stroke="rgb(0,0,0)" stroke-width="1" opacity="0.49411764705882355" d="M 86.5 110 L 87.5 112 L 86.5 110 Z "></path><path fill="rgb(0,0,0)" stroke="rgb(0,0,0)" stroke-width="1" opacity="0.49411764705882355" d="M 101.5 112 L 102.5 114 L 101.5 112 Z "></path><path fill="rgb(0,0,0)" stroke="rgb(0,0,0)" stroke-width="1" opacity="0.49411764705882355" d="M 171.5 114 L 168.5 118 L 166 117.5 L 171.5 114 Z "></path><path fill="rgb(0,0,0)" stroke="rgb(0,0,0)" stroke-width="1" opacity="0.49411764705882355" d="M 144.5 115 L 149 115.5 L 144.5 116 L 144.5 115 Z "></path><path fill="rgb(0,0,0)" stroke="rgb(0,0,0)" stroke-width="1" opacity="0.49411764705882355" d="M 150.5 116 L 151.5 118 L 150.5 116 Z "></path><path fill="rgb(0,0,0)" stroke="rgb(0,0,0)" stroke-width="1" opacity="0.49411764705882355" d="M 110.5 117 L 114 117.5 L 110.5 118 L 110.5 117 Z "></path><path fill="rgb(0,0,0)" stroke="rgb(0,0,0)" stroke-width="1" opacity="0.49411764705882355" d="M 125.5 119 L 127 119.5 L 123.5 122 L 125.5 119 Z "></path><path fill="rgb(0,0,0)" stroke="rgb(0,0,0)" stroke-width="1" opacity="0.49411764705882355" d="M 140.5 119 L 141 122.5 L 140 122.5 L 140.5 119 Z "></path><path fill="rgb(0,0,0)" stroke="rgb(0,0,0)" stroke-width="1" opacity="0.49411764705882355" d="M 107.5 120 L 108 123.5 L 107 123.5 L 107.5 120 Z "></path><path fill="rgb(0,0,0)" stroke="rgb(0,0,0)" stroke-width="1" opacity="0.49411764705882355" d="M 116.5 120 L 117 123.5 L 116 123.5 L 116.5 120 Z "></path><path fill="rgb(0,0,0)" stroke="rgb(0,0,0)" stroke-width="1" opacity="0.49411764705882355" d="M 133.5 123 L 134 125.5 L 133 125.5 L 133.5 123 Z "></path><path fill="rgb(0,0,0)" stroke="rgb(0,0,0)" stroke-width="1" opacity="0.49411764705882355" d="M 151.5 125 L 150.5 127 L 151.5 125 Z "></path><path fill="rgb(0,0,0)" stroke="rgb(0,0,0)" stroke-width="1" opacity="0.49411764705882355" d="M 110.5 126 L 114 126.5 L 110.5 127 L 110.5 126 Z "></path><path fill="rgb(0,0,0)" stroke="rgb(0,0,0)" stroke-width="1" opacity="0.49411764705882355" d="M 123.5 127 L 124.5 129 L 123.5 127 Z "></path><path fill="rgb(0,0,0)" stroke="rgb(0,0,0)" stroke-width="1" opacity="0.49411764705882355" d="M 132.5 127 L 130.5 130 L 132.5 127 Z "></path><path fill="rgb(0,0,0)" stroke="rgb(0,0,0)" stroke-width="1" opacity="0.49411764705882355" d="M 144.5 127 L 149 127.5 L 144.5 128 L 144.5 127 Z "></path><path fill="rgb(0,0,0)" stroke="rgb(0,0,0)" stroke-width="1" opacity="0.1411764705882353" d="M 131.5 0 L 134 3.5 L 133 3.5 L 131.5 0 Z "></path><path fill="rgb(0,0,0)" stroke="rgb(0,0,0)" stroke-width="1" opacity="0.1411764705882353" d="M 105.5 5 Q 109.5 4.5 110 7.5 L 107.5 6 Q 104.5 6.5 105.5 5 Z "></path><path fill="rgb(0,0,0)" stroke="rgb(0,0,0)" stroke-width="1" opacity="0.1411764705882353" d="M 124.5 7 L 125.5 9 L 124.5 7 Z "></path><path fill="rgb(0,0,0)" stroke="rgb(0,0,0)" stroke-width="1" opacity="0.1411764705882353" d="M 102.5 8 L 104.5 13 L 108 13.5 L 104.5 14 Q 100.7 12.7 102.5 8 Z "></path><path fill="rgb(0,0,0)" stroke="rgb(0,0,0)" stroke-width="1" opacity="0.1411764705882353" d="M 120.5 8 L 119.5 10 L 120.5 8 Z "></path><path fill="rgb(0,0,0)" stroke="rgb(0,0,0)" stroke-width="1" opacity="0.1411764705882353" d="M 110.5 9 L 111 10.5 L 109 11.5 L 110.5 9 Z "></path><path fill="rgb(0,0,0)" stroke="rgb(0,0,0)" stroke-width="1" opacity="0.1411764705882353" d="M 115.5 10 L 118 10.5 L 115.5 11 L 115.5 10 Z "></path><path fill="rgb(0,0,0)" stroke="rgb(0,0,0)" stroke-width="1" opacity="0.1411764705882353" d="M 146.5 10 L 145.5 12 L 146.5 10 Z "></path><path fill="rgb(0,0,0)" stroke="rgb(0,0,0)" stroke-width="1" opacity="0.1411764705882353" d="M 151.5 15 L 153.5 18 L 151.5 15 Z "></path><path fill="rgb(0,0,0)" stroke="rgb(0,0,0)" stroke-width="1" opacity="0.1411764705882353" d="M 100.5 16 L 99.5 18 L 98 17.5 L 100.5 16 Z "></path><path fill="rgb(0,0,0)" stroke="rgb(0,0,0)" stroke-width="1" opacity="0.1411764705882353" d="M 169.5 16 L 173 16.5 L 169.5 17 L 169.5 16 Z "></path><path fill="rgb(0,0,0)" stroke="rgb(0,0,0)" stroke-width="1" opacity="0.1411764705882353" d="M 160.5 17 L 159.5 19 L 155 18.5 L 160.5 17 Z "></path><path fill="rgb(0,0,0)" stroke="rgb(0,0,0)" stroke-width="1" opacity="0.1411764705882353" d="M 174.5 17 L 176.5 20 L 174.5 17 Z "></path><path fill="rgb(0,0,0)" stroke="rgb(0,0,0)" stroke-width="1" opacity="0.1411764705882353" d="M 93.5 21 L 92.5 23 L 93.5 21 Z "></path><path fill="rgb(0,0,0)" stroke="rgb(0,0,0)" stroke-width="1" opacity="0.1411764705882353" d="M 163.5 22 L 164 24.5 L 163 24.5 L 163.5 22 Z "></path><path fill="rgb(0,0,0)" stroke="rgb(0,0,0)" stroke-width="1" opacity="0.1411764705882353" d="M 177.5 25 L 178 26.5 L 176 27.5 L 177.5 25 Z "></path><path fill="rgb(0,0,0)" stroke="rgb(0,0,0)" stroke-width="1" opacity="0.1411764705882353" d="M 83.5 26 L 85 29.5 L 83.5 33 L 84 31.5 L 83 28.5 L 83.5 26 Z "></path><path fill="rgb(0,0,0)" stroke="rgb(0,0,0)" stroke-width="1" opacity="0.1411764705882353" d="M 88.5 26 L 87.5 28 L 88.5 26 Z "></path><path fill="rgb(0,0,0)" stroke="rgb(0,0,0)" stroke-width="1" opacity="0.1411764705882353" d="M 80.5 28 L 80 29.5 L 81 32.5 L 80.5 35 L 78 33.5 L 80 32.5 L 79 29.5 L 80.5 28 Z "></path><path fill="rgb(0,0,0)" stroke="rgb(0,0,0)" stroke-width="1" opacity="0.1411764705882353" d="M 76.5 34 L 77 36.5 L 76 36.5 L 76.5 34 Z "></path><path fill="rgb(0,0,0)" stroke="rgb(0,0,0)" stroke-width="1" opacity="0.1411764705882353" d="M 175.5 34 L 174.5 36 L 175.5 34 Z "></path><path fill="rgb(0,0,0)" stroke="rgb(0,0,0)" stroke-width="1" opacity="0.1411764705882353" d="M 80.5 37 L 79.5 39 L 78 38.5 L 80.5 37 Z "></path><path fill="rgb(0,0,0)" stroke="rgb(0,0,0)" stroke-width="1" opacity="0.1411764705882353" d="M 56.5 42 L 74 42.5 L 56.5 43 L 56.5 42 Z "></path><path fill="rgb(0,0,0)" stroke="rgb(0,0,0)" stroke-width="1" opacity="0.1411764705882353" d="M 82.5 44 L 83.5 46 L 82.5 44 Z "></path><path fill="rgb(0,0,0)" stroke="rgb(0,0,0)" stroke-width="1" opacity="0.1411764705882353" d="M 174.5 45 L 176.5 48 L 174.5 45 Z "></path><path fill="rgb(0,0,0)" stroke="rgb(0,0,0)" stroke-width="1" opacity="0.1411764705882353" d="M 85.5 47 L 86.5 49 L 85.5 47 Z "></path><path fill="rgb(0,0,0)" stroke="rgb(0,0,0)" stroke-width="1" opacity="0.1411764705882353" d="M 139.5 47 L 140 49.5 L 139 49.5 L 139.5 47 Z "></path><path fill="rgb(0,0,0)" stroke="rgb(0,0,0)" stroke-width="1" opacity="0.1411764705882353" d="M 148.5 47 L 149 49.5 L 148 49.5 L 148.5 47 Z "></path><path fill="rgb(0,0,0)" stroke="rgb(0,0,0)" stroke-width="1" opacity="0.1411764705882353" d="M 179.5 48 L 183 48.5 L 179.5 49 L 179.5 48 Z "></path><path fill="rgb(0,0,0)" stroke="rgb(0,0,0)" stroke-width="1" opacity="0.1411764705882353" d="M 65.5 49 L 69 49.5 L 65 50 L 64.5 59 L 64 50.5 L 65.5 49 Z "></path><path fill="rgb(0,0,0)" stroke="rgb(0,0,0)" stroke-width="1" opacity="0.1411764705882353" d="M 70.5 49 L 74 49.5 L 70.5 50 L 70.5 49 Z "></path><path fill="rgb(0,0,0)" stroke="rgb(0,0,0)" stroke-width="1" opacity="0.1411764705882353" d="M 87.5 51 L 88 56.5 L 87 56.5 L 87.5 51 Z "></path><path fill="rgb(0,0,0)" stroke="rgb(0,0,0)" stroke-width="1" opacity="0.1411764705882353" d="M 95.5 51 L 98 51.5 L 95.5 52 L 95.5 51 Z "></path><path fill="rgb(0,0,0)" stroke="rgb(0,0,0)" stroke-width="1" opacity="0.1411764705882353" d="M 130.5 51 Q 136 50 137 53.5 L 134.5 52 L 129.5 53 L 130.5 51 Z "></path><path fill="rgb(0,0,0)" stroke="rgb(0,0,0)" stroke-width="1" opacity="0.1411764705882353" d="M 77.5 52 L 78 56.5 L 76 57.5 L 77.5 52 Z "></path><path fill="rgb(0,0,0)" stroke="rgb(0,0,0)" stroke-width="1" opacity="0.1411764705882353" d="M 124.5 52 L 125.5 54 L 124.5 52 Z "></path><path fill="rgb(0,0,0)" stroke="rgb(0,0,0)" stroke-width="1" opacity="0.1411764705882353" d="M 152.5 52 L 154 55.5 L 153 55.5 L 152.5 52 Z "></path><path fill="rgb(0,0,0)" stroke="rgb(0,0,0)" stroke-width="1" opacity="0.1411764705882353" d="M 111.5 53 L 113.5 56 L 111.5 53 Z "></path><path fill="rgb(0,0,0)" stroke="rgb(0,0,0)" stroke-width="1" opacity="0.1411764705882353" d="M 192.5 53 L 196.5 58 L 192.5 53 Z "></path><path fill="rgb(0,0,0)" stroke="rgb(0,0,0)" stroke-width="1" opacity="0.1411764705882353" d="M 170.5 54 L 168.5 57 L 170.5 54 Z "></path><path fill="rgb(0,0,0)" stroke="rgb(0,0,0)" stroke-width="1" opacity="0.1411764705882353" d="M 136.5 56 L 134.5 59 L 136.5 56 Z "></path><path fill="rgb(0,0,0)" stroke="rgb(0,0,0)" stroke-width="1" opacity="0.1411764705882353" d="M 100.5 57 L 103 57.5 L 100.5 58 L 100.5 57 Z "></path><path fill="rgb(0,0,0)" stroke="rgb(0,0,0)" stroke-width="1" opacity="0.1411764705882353" d="M 87.5 58 L 89 60.5 L 87.5 60 L 83 63.5 L 87.5 58 Z "></path><path fill="rgb(0,0,0)" stroke="rgb(0,0,0)" stroke-width="1" opacity="0.1411764705882353" d="M 114.5 58 L 115 67.5 L 114 67.5 L 114.5 58 Z "></path><path fill="rgb(0,0,0)" stroke="rgb(0,0,0)" stroke-width="1" opacity="0.1411764705882353" d="M 148.5 59 L 149 70.5 L 148 70.5 L 148.5 59 Z "></path><path fill="rgb(0,0,0)" stroke="rgb(0,0,0)" stroke-width="1" opacity="0.1411764705882353" d="M 187.5 60 L 189 62.5 L 188 62.5 L 187.5 60 Z "></path><path fill="rgb(0,0,0)" stroke="rgb(0,0,0)" stroke-width="1" opacity="0.1411764705882353" d="M 139.5 62 L 140 70.5 L 139 70.5 L 139.5 62 Z "></path><path fill="rgb(0,0,0)" stroke="rgb(0,0,0)" stroke-width="1" opacity="0.1411764705882353" d="M 175.5 62 L 176 64.5 L 175 64.5 L 175.5 62 Z "></path><path fill="rgb(0,0,0)" stroke="rgb(0,0,0)" stroke-width="1" opacity="0.1411764705882353" d="M 165.5 63 L 166 68.5 L 165 68.5 L 165.5 63 Z "></path><path fill="rgb(0,0,0)" stroke="rgb(0,0,0)" stroke-width="1" opacity="0.1411764705882353" d="M 175.5 66 L 176 68.5 L 175 68.5 L 175.5 66 Z "></path><path fill="rgb(0,0,0)" stroke="rgb(0,0,0)" stroke-width="1" opacity="0.1411764705882353" d="M 64.5 67 L 65 71.5 L 64 71.5 L 64.5 67 Z "></path><path fill="rgb(0,0,0)" stroke="rgb(0,0,0)" stroke-width="1" opacity="0.1411764705882353" d="M 198.5 70 L 197.5 72 L 198.5 70 Z "></path><path fill="rgb(0,0,0)" stroke="rgb(0,0,0)" stroke-width="1" opacity="0.1411764705882353" d="M 95.5 72 L 96.5 74 L 95.5 72 Z "></path><path fill="rgb(0,0,0)" stroke="rgb(0,0,0)" stroke-width="1" opacity="0.1411764705882353" d="M 181.5 73 L 184 73.5 L 181.5 74 L 181.5 73 Z "></path><path fill="rgb(0,0,0)" stroke="rgb(0,0,0)" stroke-width="1" opacity="0.1411764705882353" d="M 196.5 73 L 195.5 75 L 196.5 73 Z "></path><path fill="rgb(0,0,0)" stroke="rgb(0,0,0)" stroke-width="1" opacity="0.1411764705882353" d="M 73.5 74 L 75 74.5 L 72.5 76 L 73.5 74 Z "></path><path fill="rgb(0,0,0)" stroke="rgb(0,0,0)" stroke-width="1" opacity="0.1411764705882353" d="M 168.5 74 L 171.5 78 L 168.5 74 Z "></path><path fill="rgb(0,0,0)" stroke="rgb(0,0,0)" stroke-width="1" opacity="0.1411764705882353" d="M 153.5 75 L 154 77.5 L 153 77.5 L 153.5 75 Z "></path><path fill="rgb(0,0,0)" stroke="rgb(0,0,0)" stroke-width="1" opacity="0.1411764705882353" d="M 87.5 76 L 89.5 79 L 87.5 76 Z "></path><path fill="rgb(0,0,0)" stroke="rgb(0,0,0)" stroke-width="1" opacity="0.1411764705882353" d="M 193.5 76 L 191.5 79 L 190 78.5 L 193.5 76 Z "></path><path fill="rgb(0,0,0)" stroke="rgb(0,0,0)" stroke-width="1" opacity="0.1411764705882353" d="M 72.5 78 L 75 79.5 L 73.5 80 L 72.5 78 Z "></path><path fill="rgb(0,0,0)" stroke="rgb(0,0,0)" stroke-width="1" opacity="0.1411764705882353" d="M 117.5 78 L 124 79.5 L 118.5 80 L 117.5 78 Z "></path><path fill="rgb(0,0,0)" stroke="rgb(0,0,0)" stroke-width="1" opacity="0.1411764705882353" d="M 56.5 79 L 62 79.5 L 56.5 80 L 56.5 79 Z "></path><path fill="rgb(0,0,0)" stroke="rgb(0,0,0)" stroke-width="1" opacity="0.1411764705882353" d="M 109.5 79 L 114 79.5 L 109.5 80 L 109.5 79 Z "></path><path fill="rgb(0,0,0)" stroke="rgb(0,0,0)" stroke-width="1" opacity="0.1411764705882353" d="M 144.5 79 L 152 79.5 L 144.5 80 L 144.5 79 Z "></path><path fill="rgb(0,0,0)" stroke="rgb(0,0,0)" stroke-width="1" opacity="0.1411764705882353" d="M 157.5 79 L 162 79.5 L 157.5 80 L 157.5 79 Z "></path><path fill="rgb(0,0,0)" stroke="rgb(0,0,0)" stroke-width="1" opacity="0.1411764705882353" d="M 186.5 79 L 189 79.5 L 186.5 80 L 186.5 79 Z "></path><path fill="rgb(0,0,0)" stroke="rgb(0,0,0)" stroke-width="1" opacity="0.1411764705882353" d="M 76.5 81 L 77.5 83 L 76.5 81 Z "></path><path fill="rgb(0,0,0)" stroke="rgb(0,0,0)" stroke-width="1" opacity="0.1411764705882353" d="M 184.5 83 L 186.5 86 L 184.5 83 Z "></path><path fill="rgb(0,0,0)" stroke="rgb(0,0,0)" stroke-width="1" opacity="0.1411764705882353" d="M 173.5 84 L 172.5 86 L 173.5 84 Z "></path><path fill="rgb(0,0,0)" stroke="rgb(0,0,0)" stroke-width="1" opacity="0.1411764705882353" d="M 77.5 85 L 76.5 87 L 74 86.5 L 77.5 85 Z "></path><path fill="rgb(0,0,0)" stroke="rgb(0,0,0)" stroke-width="1" opacity="0.1411764705882353" d="M 75.5 93 L 76.5 95 L 75.5 93 Z "></path><path fill="rgb(0,0,0)" stroke="rgb(0,0,0)" stroke-width="1" opacity="0.1411764705882353" d="M 80.5 93 L 79.5 95 L 80.5 93 Z "></path><path fill="rgb(0,0,0)" stroke="rgb(0,0,0)" stroke-width="1" opacity="0.1411764705882353" d="M 81.5 96 L 84 96.5 L 79.5 99 L 81.5 96 Z "></path><path fill="rgb(0,0,0)" stroke="rgb(0,0,0)" stroke-width="1" opacity="0.1411764705882353" d="M 177.5 99 L 182 99.5 L 177.5 100 L 177.5 99 Z "></path><path fill="rgb(0,0,0)" stroke="rgb(0,0,0)" stroke-width="1" opacity="0.1411764705882353" d="M 85.5 101 L 83.5 104 L 81 103.5 L 85.5 101 Z "></path><path fill="rgb(0,0,0)" stroke="rgb(0,0,0)" stroke-width="1" opacity="0.1411764705882353" d="M 88.5 104 L 91 104.5 L 88.5 105 L 88.5 104 Z "></path><path fill="rgb(0,0,0)" stroke="rgb(0,0,0)" stroke-width="1" opacity="0.1411764705882353" d="M 92.5 110 L 91.5 112 L 92.5 110 Z "></path><path fill="rgb(0,0,0)" stroke="rgb(0,0,0)" stroke-width="1" opacity="0.1411764705882353" d="M 97.5 111 L 101 111.5 Q 96.8 111.3 95.5 114 L 97.5 111 Z "></path><path fill="rgb(0,0,0)" stroke="rgb(0,0,0)" stroke-width="1" opacity="0.1411764705882353" d="M 158.5 114 L 159.5 116 L 158.5 114 Z "></path><path fill="rgb(0,0,0)" stroke="rgb(0,0,0)" stroke-width="1" opacity="0.1411764705882353" d="M 171.5 115 L 170.5 117 L 171.5 115 Z "></path><path fill="rgb(0,0,0)" stroke="rgb(0,0,0)" stroke-width="1" opacity="0.1411764705882353" d="M 103.5 117 L 100.5 121 L 98 120.5 L 103.5 117 Z "></path><path fill="rgb(0,0,0)" stroke="rgb(0,0,0)" stroke-width="1" opacity="0.1411764705882353" d="M 109.5 117 L 107.5 120 L 109.5 117 Z "></path><path fill="rgb(0,0,0)" stroke="rgb(0,0,0)" stroke-width="1" opacity="0.1411764705882353" d="M 141.5 117 L 140.5 119 L 141.5 117 Z "></path><path fill="rgb(0,0,0)" stroke="rgb(0,0,0)" stroke-width="1" opacity="0.1411764705882353" d="M 95.5 118 L 96.5 120 L 95.5 118 Z "></path><path fill="rgb(0,0,0)" stroke="rgb(0,0,0)" stroke-width="1" opacity="0.1411764705882353" d="M 127.5 118 L 130 118.5 L 127.5 119 L 127.5 118 Z "></path><path fill="rgb(0,0,0)" stroke="rgb(0,0,0)" stroke-width="1" opacity="0.1411764705882353" d="M 163.5 118 L 166 118.5 L 163.5 119 L 163.5 118 Z "></path><path fill="rgb(0,0,0)" stroke="rgb(0,0,0)" stroke-width="1" opacity="0.1411764705882353" d="M 132.5 120 L 134 122.5 L 133 122.5 L 132.5 120 Z "></path><path fill="rgb(0,0,0)" stroke="rgb(0,0,0)" stroke-width="1" opacity="0.1411764705882353" d="M 153.5 120 L 154 122.5 L 153 122.5 L 153.5 120 Z "></path><path fill="rgb(0,0,0)" stroke="rgb(0,0,0)" stroke-width="1" opacity="0.1411764705882353" d="M 140.5 123 L 144 127.5 L 140 124.5 L 140.5 123 Z "></path><path fill="rgb(0,0,0)" stroke="rgb(0,0,0)" stroke-width="1" opacity="0.1411764705882353" d="M 107.5 124 L 109.5 127 L 107.5 124 Z "></path><path fill="rgb(0,0,0)" stroke="rgb(0,0,0)" stroke-width="1" opacity="0.1411764705882353" d="M 116.5 124 L 114.5 127 L 116.5 124 Z "></path></svg>