<svg width="150" height="136" version="1.1" xmlns="http://www.w3.org/2000/svg"><path fill="rgb(0,0,0)" stroke="rgb(0,0,0)" stroke-width="1" opacity="0" d="M 0 0 L 74 0.5 Q 71 1.5 72 6.5 L 74.5 10 Q 79.9 10.6 82 9 L 83 4.5 L 81 0.5 L 150 0 L 149.5 63 L 144.5 56 L 136.5 53 L 129.5 53 L 121.5 56 L 119 58.5 Q 114.5 63 116 73.5 L 121.5 81 Q 126.3 85.2 136.5 84 L 143.5 82 L 149 76.5 L 149.5 74 L 150 136 L 80 135.5 Q 84.3 134.3 83 127.5 Q 81.4 123.1 74.5 124 L 72 125 L 70 130.5 L 73 135.5 L 0 136 L 0.5 82 Q 2.3 84.8 8.5 83 L 10 81.5 L 10 70.5 L 11.5 69 Q 25.9 71.1 32 66 L 33.5 62 Q 35 65.5 41.5 64 Q 43.5 60 49.5 60 L 53 62.5 L 49.5 65 L 39.5 66 L 34 69.5 Q 31.7 72.7 33 79.5 Q 36.7 85.3 47.5 84 Q 49.2 81.2 54.5 82 Q 56.3 84.8 62.5 83 Q 65.3 81.7 63 80.5 L 63 61.5 L 58.5 55 L 46.5 53 Q 45.3 55.3 40.5 54 L 35 58.5 L 34.5 60 L 34 51.5 L 32 48 L 22.5 44 L 1.5 44 L 0 44.5 L 0 0 Z M 90 1 L 87 2 Q 85 4 86 10 L 91 13 L 96 12 L 98 9 L 97 4 Q 96 0 90 1 Z M 63 2 Q 59 3 60 9 Q 61 12 67 11 Q 70 10 69 5 Q 68 1 63 2 Z M 52 6 Q 49 7 50 13 Q 51 15 56 14 Q 59 13 58 9 Q 57 5 52 6 Z M 106 6 L 104 7 L 100 12 L 101 17 L 106 20 L 111 19 L 114 15 L 113 10 Q 112 5 106 6 Z M 44 11 Q 40 12 41 17 Q 42 20 47 19 Q 50 18 49 14 Q 48 10 44 11 Z M 37 17 Q 34 18 35 23 Q 36 25 40 24 L 42 21 L 41 19 Q 40 16 37 17 Z M 119 17 L 115 19 L 114 22 L 115 30 Q 117 33 125 32 L 129 27 L 128 21 Q 126 16 119 17 Z M 32 23 L 30 25 Q 28 31 35 29 L 36 26 Q 35 23 32 23 Z M 28 29 Q 25 30 26 34 L 30 35 Q 32 34 31 31 L 28 29 Z M 130 34 L 128 35 L 123 41 Q 122 47 125 49 L 130 51 Q 136 52 138 49 L 140 46 Q 141 39 138 37 Q 136 33 130 34 Z M 23 35 L 22 39 Q 23 41 27 40 L 28 37 Q 27 34 23 35 Z M 107 44 Q 103 46 105 51 L 108 52 L 112 51 L 114 51 L 114 46 Q 112 43 107 44 Z M 89 47 L 88 50 Q 90 55 87 54 L 85 54 Q 78 53 76 56 L 73 54 Q 66 52 65 56 L 65 83 L 66 83 L 74 83 L 75 66 L 78 63 L 84 62 L 86 60 L 88 61 L 89 81 L 93 83 L 103 83 L 103 77 L 101 77 L 98 75 L 98 61 L 102 60 L 103 60 L 103 55 L 101 54 L 98 54 L 98 49 L 97 47 L 89 47 Z M 107 54 L 105 56 L 105 82 L 107 83 L 114 83 L 114 83 L 114 56 Q 112 53 107 54 Z M 18 78 L 18 83 L 22 83 L 23 80 Q 22 77 18 78 Z M 21 85 Q 18 86 19 90 L 23 91 Q 25 90 24 87 L 21 85 Z M 128 86 L 126 87 L 121 93 L 122 100 L 128 104 Q 137 105 139 100 Q 140 93 138 90 Q 136 85 128 86 Z M 23 93 Q 20 94 21 98 Q 22 100 27 99 L 28 97 L 27 95 Q 28 91 23 93 Z M 28 101 Q 24 102 25 107 L 31 108 Q 34 108 33 104 Q 32 100 28 101 Z M 113 108 L 109 110 L 107 116 L 109 122 L 113 124 Q 119 125 122 122 L 124 118 L 122 111 Q 120 107 113 108 Z M 35 109 Q 31 110 32 116 L 36 118 L 39 117 Q 41 115 40 110 L 35 109 Z M 44 117 L 41 122 L 42 124 Q 43 127 49 126 Q 52 125 51 120 Q 50 116 44 117 Z M 94 120 L 92 121 L 89 125 L 90 132 L 94 134 L 101 133 L 103 130 L 102 123 Q 100 119 94 120 Z M 58 122 L 54 128 L 55 131 Q 56 134 63 133 Q 67 132 65 125 Q 63 121 58 122 Z "></path><path fill="rgb(0,0,0)" stroke="rgb(0,0,0)" stroke-width="1" opacity="0" d="M 10 52 L 20.5 52 L 23 53 L 24 58.5 Q 21.3 63.8 11.5 62 L 10 60.5 L 10 52 Z "></path><path fill="rgb(0,0,0)" stroke="rgb(0,0,0)" stroke-width="1" opacity="0" d="M 132.5 60 Q 138.1 60.5 140 64.5 Q 141.5 73.5 136.5 76 L 131.5 77 L 127 73.5 L 126 65.5 L 129.5 61 L 132.5 60 Z "></path><path fill="rgb(0,0,0)" stroke="rgb(0,0,0)" stroke-width="1" opacity="0" d="M 50.5 70 L 53 71.5 Q 53.5 76.5 49.5 77 Q 42.5 78.5 43 75.5 Q 40.3 73.8 44.5 72 L 50.5 70 Z "></path><path fill="rgb(249,249,249)" stroke="rgb(249,249,249)" stroke-width="1" opacity="0.9647058823529412" d="M 94.5 2 L 95.5 4 L 94.5 2 Z "></path><path fill="rgb(249,249,249)" stroke="rgb(249,249,249)" stroke-width="1" opacity="0.9647058823529412" d="M 61.5 8 L 62.5 10 L 61.5 8 Z "></path><path fill="rgb(249,249,249)" stroke="rgb(249,249,249)" stroke-width="1" opacity="0.9647058823529412" d="M 110.5 8 L 111.5 10 L 110.5 8 Z "></path><path fill="rgb(249,249,249)" stroke="rgb(249,249,249)" stroke-width="1" opacity="0.9647058823529412" d="M 87.5 9 L 88.5 11 L 87.5 9 Z "></path><path fill="rgb(249,249,249)" stroke="rgb(249,249,249)" stroke-width="1" opacity="0.9647058823529412" d="M 43.5 12 L 42.5 14 L 43.5 12 Z "></path><path fill="rgb(249,249,249)" stroke="rgb(249,249,249)" stroke-width="1" opacity="0.9647058823529412" d="M 46.5 12 L 47.5 14 L 46.5 12 Z "></path><path fill="rgb(249,249,249)" stroke="rgb(249,249,249)" stroke-width="1" opacity="0.9647058823529412" d="M 102.5 16 L 103.5 18 L 102.5 16 Z "></path><path fill="rgb(249,249,249)" stroke="rgb(249,249,249)" stroke-width="1" opacity="0.9647058823529412" d="M 111.5 16 L 110.5 18 L 111.5 16 Z "></path><path fill="rgb(249,249,249)" stroke="rgb(249,249,249)" stroke-width="1" opacity="0.9647058823529412" d="M 125.5 19 L 126.5 21 L 125.5 19 Z "></path><path fill="rgb(249,249,249)" stroke="rgb(249,249,249)" stroke-width="1" opacity="0.9647058823529412" d="M 1.5 45 L 1 46.5 L 0.5 60 L 0 46.5 L 1.5 45 Z "></path><path fill="rgb(249,249,249)" stroke="rgb(249,249,249)" stroke-width="1" opacity="0.9647058823529412" d="M 91.5 47 L 94 47.5 L 91.5 48 L 91.5 47 Z "></path><path fill="rgb(249,249,249)" stroke="rgb(249,249,249)" stroke-width="1" opacity="0.9647058823529412" d="M 38.5 56 L 36.5 59 L 38.5 56 Z "></path><path fill="rgb(249,249,249)" stroke="rgb(249,249,249)" stroke-width="1" opacity="0.9647058823529412" d="M 23.5 60 L 22.5 62 L 23.5 60 Z "></path><path fill="rgb(249,249,249)" stroke="rgb(249,249,249)" stroke-width="1" opacity="0.9647058823529412" d="M 128.5 60 L 126.5 63 L 128.5 60 Z "></path><path fill="rgb(249,249,249)" stroke="rgb(249,249,249)" stroke-width="1" opacity="0.9647058823529412" d="M 53.5 63 L 52.5 65 L 53.5 63 Z "></path><path fill="rgb(249,249,249)" stroke="rgb(249,249,249)" stroke-width="1" opacity="0.9647058823529412" d="M 0.5 66 L 1 75.5 L 0 75.5 L 0.5 66 Z "></path><path fill="rgb(249,249,249)" stroke="rgb(249,249,249)" stroke-width="1" opacity="0.9647058823529412" d="M 13.5 68 L 19 68.5 L 13.5 69 L 13.5 68 Z "></path><path fill="rgb(249,249,249)" stroke="rgb(249,249,249)" stroke-width="1" opacity="0.9647058823529412" d="M 73.5 71 L 74 74.5 L 73 74.5 L 73.5 71 Z "></path><path fill="rgb(249,249,249)" stroke="rgb(249,249,249)" stroke-width="1" opacity="0.9647058823529412" d="M 33.5 74 L 34 76.5 L 33 76.5 L 33.5 74 Z "></path><path fill="rgb(249,249,249)" stroke="rgb(249,249,249)" stroke-width="1" opacity="0.9647058823529412" d="M 89.5 74 L 90 77.5 L 89 77.5 L 89.5 74 Z "></path><path fill="rgb(249,249,249)" stroke="rgb(249,249,249)" stroke-width="1" opacity="0.9647058823529412" d="M 120.5 78 L 121.5 80 L 120.5 78 Z "></path><path fill="rgb(249,249,249)" stroke="rgb(249,249,249)" stroke-width="1" opacity="0.9647058823529412" d="M 144.5 79 L 143.5 81 L 144.5 79 Z "></path><path fill="rgb(249,249,249)" stroke="rgb(249,249,249)" stroke-width="1" opacity="0.9647058823529412" d="M 23.5 87 L 24 88.5 L 22 89.5 L 23.5 87 Z "></path><path fill="rgb(249,249,249)" stroke="rgb(249,249,249)" stroke-width="1" opacity="0.9647058823529412" d="M 34.5 110 L 33.5 112 L 34.5 110 Z "></path><path fill="rgb(249,249,249)" stroke="rgb(249,249,249)" stroke-width="1" opacity="0.9647058823529412" d="M 49.5 123 L 48.5 125 L 49.5 123 Z "></path><path fill="rgb(249,249,249)" stroke="rgb(249,249,249)" stroke-width="1" opacity="1" d="M 75.5 1 Q 80 0 81 2.5 L 82 5.5 L 79.5 9 Q 74 10 73 6.5 Q 72.3 1.8 75.5 1 Z "></path><path fill="rgb(249,249,249)" stroke="rgb(249,249,249)" stroke-width="1" opacity="1" d="M 89.5 2 Q 96 1 97 5.5 L 94.5 11 L 90.5 12 Q 86 11 87 4.5 L 89.5 2 Z "></path><path fill="rgb(249,249,249)" stroke="rgb(249,249,249)" stroke-width="1" opacity="1" d="M 62 3 Q 66.6 1.8 68 4.5 Q 69 9 66.5 10 Q 61.8 10.8 61 7.5 L 62 3 Z "></path><path fill="rgb(249,249,249)" stroke="rgb(249,249,249)" stroke-width="1" opacity="1" d="M 52.5 7 Q 56.3 6.3 57 8.5 Q 57.8 12.3 55.5 13 Q 51.8 13.8 51 11.5 Q 50.3 7.8 52.5 7 Z "></path><path fill="rgb(249,249,249)" stroke="rgb(249,249,249)" stroke-width="1" opacity="1" d="M 106.5 7 Q 111.5 6.5 112 10.5 L 113 13.5 L 109.5 18 L 106.5 19 L 101 14.5 Q 100.4 9.4 103.5 8 L 106.5 7 Z "></path><path fill="rgb(249,249,249)" stroke="rgb(249,249,249)" stroke-width="1" opacity="1" d="M 44.5 12 L 48 14.5 L 45.5 18 L 42 15.5 L 44.5 12 Z "></path><path fill="rgb(249,249,249)" stroke="rgb(249,249,249)" stroke-width="1" opacity="1" d="M 37.5 18 L 40 19.5 L 38.5 23 L 36 21.5 L 37.5 18 Z "></path><path fill="rgb(249,249,249)" stroke="rgb(249,249,249)" stroke-width="1" opacity="1" d="M 119.5 18 Q 125.7 17.3 127 21.5 L 128 26.5 L 126 30 Q 123.9 31.6 118.5 31 Q 114.1 29.4 115 22.5 L 117.5 19 L 119.5 18 Z "></path><path fill="rgb(249,249,249)" stroke="rgb(249,249,249)" stroke-width="1" opacity="1" d="M 32.5 24 L 35 25.5 L 33.5 28 Q 29.8 29.3 31 25.5 L 32.5 24 Z "></path><path fill="rgb(249,249,249)" stroke="rgb(249,249,249)" stroke-width="1" opacity="1" d="M 28.5 30 L 30 32.5 Q 28.5 35.5 27 32.5 L 28.5 30 Z "></path><path fill="rgb(249,249,249)" stroke="rgb(249,249,249)" stroke-width="1" opacity="1" d="M 129.5 35 Q 136.4 34.1 138 38.5 L 139 45.5 Q 137.4 50.9 129.5 50 L 125 46.5 L 124 41.5 L 127.5 36 L 129.5 35 Z "></path><path fill="rgb(249,249,249)" stroke="rgb(249,249,249)" stroke-width="1" opacity="1" d="M 24.5 36 L 27 37.5 L 24.5 39 Q 21.5 37.5 24.5 36 Z "></path><path fill="rgb(249,249,249)" stroke="rgb(249,249,249)" stroke-width="1" opacity="1" d="M 2.5 45 L 22.5 45 L 32 50.5 Q 34.5 54 33 61.5 L 29.5 66 L 25.5 68 Q 15 67 9 69 L 9 80.5 L 7.5 82 L 1 82 L 1 66.5 Q -1.3 65.3 0 60.5 L 1 59.5 L 1 46.5 L 2.5 45 Z M 11 51 L 9 53 L 9 62 L 11 63 L 23 62 Q 26 60 25 55 Q 22 49 11 51 Z "></path><path fill="rgb(249,249,249)" stroke="rgb(249,249,249)" stroke-width="1" opacity="1" d="M 106 45 L 113 45 L 113 50 L 107.5 51 Q 104.8 49.6 106 45 Z "></path><path fill="rgb(249,249,249)" stroke="rgb(249,249,249)" stroke-width="1" opacity="1" d="M 90.5 48 L 97 48 L 97 53.5 L 102 56.5 Q 103.1 59.8 100.5 59 L 97 61.5 L 97 75.5 L 99.5 78 Q 104.1 76.8 102 82 L 92.5 82 L 90 79.5 L 89 60 L 86 58.5 L 87.5 55 Q 90.3 55.6 89 49.5 L 90.5 48 Z "></path><path fill="rgb(249,249,249)" stroke="rgb(249,249,249)" stroke-width="1" opacity="1" d="M 46.5 54 L 55.5 55 L 60 57 L 62 61.5 L 62 82 Q 55.3 83.4 52.5 80 Q 49 84 40.5 83 L 34 78.5 Q 32.3 69.8 37.5 68 L 44.5 66 L 49.5 66 L 54 63.5 L 52.5 60 L 47.5 59 L 40.5 63 L 35 63 L 35 60.5 L 39.5 56 L 46.5 54 Z M 51 69 L 44 71 L 41 75 L 44 78 L 52 77 Q 55 76 54 71 L 51 69 Z "></path><path fill="rgb(249,249,249)" stroke="rgb(249,249,249)" stroke-width="1" opacity="1" d="M 129.5 54 Q 143.7 52.8 148 61.5 L 149 73.5 L 146 79 Q 141 83.6 129.5 83 Q 121.4 81.6 118 75.5 L 117 64.5 L 122.5 57 L 129.5 54 Z M 133 59 L 129 60 L 125 65 Q 124 71 126 75 L 132 78 L 138 77 L 141 73 Q 142 66 140 63 L 138 60 L 133 59 Z "></path><path fill="rgb(249,249,249)" stroke="rgb(249,249,249)" stroke-width="1" opacity="1" d="M 66 55 L 71.5 55 Q 72.3 57.8 76.5 57 Q 78.8 54 84 55 Q 85.3 59.6 82.5 61 Q 76.1 60.6 74 64.5 L 73 82 L 66.5 82 L 66 81.5 L 66 55 Z "></path><path fill="rgb(249,249,249)" stroke="rgb(249,249,249)" stroke-width="1" opacity="1" d="M 106 55 L 112.5 55 L 113 55.5 L 113 82 L 106.5 82 L 106 81.5 L 106 55 Z "></path><path fill="rgb(249,249,249)" stroke="rgb(249,249,249)" stroke-width="1" opacity="1" d="M 19 79 L 22 80.5 L 19 82 L 19 79 Z "></path><path fill="rgb(249,249,249)" stroke="rgb(249,249,249)" stroke-width="1" opacity="1" d="M 20 86 Q 24.1 84.3 23 88.5 Q 21.5 91.5 20 88.5 L 20 86 Z "></path><path fill="rgb(249,249,249)" stroke="rgb(249,249,249)" stroke-width="1" opacity="1" d="M 127.5 87 L 133.5 87 L 137 89 L 139 96.5 L 137 101 L 133.5 103 L 127.5 103 L 124 101 L 122 93.5 L 124 89 L 127.5 87 Z "></path><path fill="rgb(249,249,249)" stroke="rgb(249,249,249)" stroke-width="1" opacity="1" d="M 23.5 94 L 27 95.5 L 25.5 98 L 22 96.5 L 23.5 94 Z "></path><path fill="rgb(249,249,249)" stroke="rgb(249,249,249)" stroke-width="1" opacity="1" d="M 27 102 L 31 102 L 31 103.5 L 32 105.5 Q 31.3 107.8 27.5 107 L 26 104.5 L 27 102 Z "></path><path fill="rgb(249,249,249)" stroke="rgb(249,249,249)" stroke-width="1" opacity="1" d="M 113.5 109 Q 120.4 108.1 122 112.5 L 123 116.5 L 119.5 122 L 113.5 123 L 109 119.5 L 108 115.5 L 111.5 110 L 113.5 109 Z "></path><path fill="rgb(249,249,249)" stroke="rgb(249,249,249)" stroke-width="1" opacity="1" d="M 35.5 110 L 39 111.5 Q 40.9 116.9 37.5 116 L 35.5 117 Q 32.5 116.5 33 112.5 L 35.5 110 Z "></path><path fill="rgb(249,249,249)" stroke="rgb(249,249,249)" stroke-width="1" opacity="1" d="M 44.5 118 Q 49 117 50 119.5 Q 50.8 124.3 47.5 125 Q 43.8 125.8 43 123.5 L 42 121.5 L 44.5 118 Z "></path><path fill="rgb(249,249,249)" stroke="rgb(249,249,249)" stroke-width="1" opacity="1" d="M 94.5 121 Q 100.7 120.3 102 124.5 Q 103.3 131.8 98.5 133 Q 92.7 133.8 91 130.5 L 90 125.5 L 92.5 122 L 94.5 121 Z "></path><path fill="rgb(249,249,249)" stroke="rgb(249,249,249)" stroke-width="1" opacity="1" d="M 58.5 123 Q 63.3 122.3 64 125.5 Q 65 131 61.5 132 L 56 131 L 55 127.5 L 58.5 123 Z "></path><path fill="rgb(249,249,249)" stroke="rgb(249,249,249)" stroke-width="1" opacity="1" d="M 75.5 125 Q 81.3 124.3 82 128.5 Q 82.6 133.6 79.5 135 Q 73.3 136.3 72 132.5 L 71 130.5 L 73.5 126 L 75.5 125 Z "></path><path fill="rgb(248,248,248)" stroke="rgb(248,248,248)" stroke-width="1" opacity="0.7607843137254902" d="M 75.5 0 L 77 0.5 L 73.5 3 L 75.5 0 Z "></path><path fill="rgb(248,248,248)" stroke="rgb(248,248,248)" stroke-width="1" opacity="0.7607843137254902" d="M 80.5 1 L 81.5 3 L 80.5 1 Z "></path><path fill="rgb(248,248,248)" stroke="rgb(248,248,248)" stroke-width="1" opacity="0.7607843137254902" d="M 63.5 2 L 66 2.5 L 63.5 3 L 63.5 2 Z "></path><path fill="rgb(248,248,248)" stroke="rgb(248,248,248)" stroke-width="1" opacity="0.7607843137254902" d="M 88.5 2 L 87.5 4 L 88.5 2 Z "></path><path fill="rgb(248,248,248)" stroke="rgb(248,248,248)" stroke-width="1" opacity="0.7607843137254902" d="M 60.5 5 L 61 7.5 L 60 7.5 L 60.5 5 Z "></path><path fill="rgb(248,248,248)" stroke="rgb(248,248,248)" stroke-width="1" opacity="0.7607843137254902" d="M 52.5 6 L 55 6.5 L 51 8.5 L 50.5 12 L 50 8.5 L 52.5 6 Z "></path><path fill="rgb(248,248,248)" stroke="rgb(248,248,248)" stroke-width="1" opacity="0.7607843137254902" d="M 73.5 7 L 74.5 9 L 73.5 7 Z "></path><path fill="rgb(248,248,248)" stroke="rgb(248,248,248)" stroke-width="1" opacity="0.7607843137254902" d="M 76.5 9 L 79 9.5 L 76.5 10 L 76.5 9 Z "></path><path fill="rgb(248,248,248)" stroke="rgb(248,248,248)" stroke-width="1" opacity="0.7607843137254902" d="M 63.5 10 L 66 10.5 L 63.5 11 L 63.5 10 Z "></path><path fill="rgb(248,248,248)" stroke="rgb(248,248,248)" stroke-width="1" opacity="0.7607843137254902" d="M 52.5 13 L 55 13.5 L 52.5 14 L 52.5 13 Z "></path><path fill="rgb(248,248,248)" stroke="rgb(248,248,248)" stroke-width="1" opacity="0.7607843137254902" d="M 47.5 16 L 46.5 18 L 47.5 16 Z "></path><path fill="rgb(248,248,248)" stroke="rgb(248,248,248)" stroke-width="1" opacity="0.7607843137254902" d="M 36.5 18 L 35.5 20 L 36.5 18 Z "></path><path fill="rgb(248,248,248)" stroke="rgb(248,248,248)" stroke-width="1" opacity="0.7607843137254902" d="M 35.5 21 L 36.5 23 L 35.5 21 Z "></path><path fill="rgb(248,248,248)" stroke="rgb(248,248,248)" stroke-width="1" opacity="0.7607843137254902" d="M 114.5 23 L 115 26.5 L 114 26.5 L 114.5 23 Z "></path><path fill="rgb(248,248,248)" stroke="rgb(248,248,248)" stroke-width="1" opacity="0.7607843137254902" d="M 31.5 24 L 31 25.5 Q 29.8 29.3 33.5 28 L 33.5 29 L 30 27.5 L 31.5 24 Z "></path><path fill="rgb(248,248,248)" stroke="rgb(248,248,248)" stroke-width="1" opacity="0.7607843137254902" d="M 116.5 29 L 117.5 31 L 116.5 29 Z "></path><path fill="rgb(248,248,248)" stroke="rgb(248,248,248)" stroke-width="1" opacity="0.7607843137254902" d="M 25.5 35 L 26.5 37 L 25.5 35 Z "></path><path fill="rgb(248,248,248)" stroke="rgb(248,248,248)" stroke-width="1" opacity="0.7607843137254902" d="M 136.5 36 L 137.5 38 L 136.5 36 Z "></path><path fill="rgb(248,248,248)" stroke="rgb(248,248,248)" stroke-width="1" opacity="0.7607843137254902" d="M 23.5 38 L 25.5 39 L 27 38.5 L 24.5 40 L 23.5 38 Z "></path><path fill="rgb(248,248,248)" stroke="rgb(248,248,248)" stroke-width="1" opacity="0.7607843137254902" d="M 139.5 41 L 140 43.5 L 139 43.5 L 139.5 41 Z "></path><path fill="rgb(248,248,248)" stroke="rgb(248,248,248)" stroke-width="1" opacity="0.7607843137254902" d="M 105.5 46 L 106 49.5 L 105 49.5 L 105.5 46 Z "></path><path fill="rgb(248,248,248)" stroke="rgb(248,248,248)" stroke-width="1" opacity="0.7607843137254902" d="M 113.5 46 L 114 49.5 L 112 50.5 L 113.5 46 Z "></path><path fill="rgb(248,248,248)" stroke="rgb(248,248,248)" stroke-width="1" opacity="0.7607843137254902" d="M 138.5 46 L 136.5 49 L 138.5 46 Z "></path><path fill="rgb(248,248,248)" stroke="rgb(248,248,248)" stroke-width="1" opacity="0.7607843137254902" d="M 125.5 47 L 126.5 49 L 125.5 47 Z "></path><path fill="rgb(248,248,248)" stroke="rgb(248,248,248)" stroke-width="1" opacity="0.7607843137254902" d="M 30.5 48 L 31.5 50 L 30.5 48 Z "></path><path fill="rgb(248,248,248)" stroke="rgb(248,248,248)" stroke-width="1" opacity="0.7607843137254902" d="M 10.5 51 L 9.5 53 L 10.5 51 Z "></path><path fill="rgb(248,248,248)" stroke="rgb(248,248,248)" stroke-width="1" opacity="0.7607843137254902" d="M 97.5 51 L 99 54.5 L 97 53.5 L 97.5 51 Z "></path><path fill="rgb(248,248,248)" stroke="rgb(248,248,248)" stroke-width="1" opacity="0.7607843137254902" d="M 22.5 52 L 23.5 54 L 22.5 52 Z "></path><path fill="rgb(248,248,248)" stroke="rgb(248,248,248)" stroke-width="1" opacity="0.7607843137254902" d="M 33.5 53 L 34 56.5 L 33 56.5 L 33.5 53 Z "></path><path fill="rgb(248,248,248)" stroke="rgb(248,248,248)" stroke-width="1" opacity="0.7607843137254902" d="M 80.5 54 L 84 54.5 L 80.5 55 L 80.5 54 Z "></path><path fill="rgb(248,248,248)" stroke="rgb(248,248,248)" stroke-width="1" opacity="0.7607843137254902" d="M 24.5 55 L 25 58.5 L 24 58.5 L 24.5 55 Z "></path><path fill="rgb(248,248,248)" stroke="rgb(248,248,248)" stroke-width="1" opacity="0.7607843137254902" d="M 72.5 55 L 73.5 57 L 72.5 55 Z "></path><path fill="rgb(248,248,248)" stroke="rgb(248,248,248)" stroke-width="1" opacity="0.7607843137254902" d="M 65.5 56 L 66 80.5 L 65 80.5 L 65.5 56 Z "></path><path fill="rgb(248,248,248)" stroke="rgb(248,248,248)" stroke-width="1" opacity="0.7607843137254902" d="M 84.5 56 L 85 58.5 L 84 58.5 L 84.5 56 Z "></path><path fill="rgb(248,248,248)" stroke="rgb(248,248,248)" stroke-width="1" opacity="0.7607843137254902" d="M 102.5 56 L 103 58.5 L 101 59.5 L 102.5 56 Z "></path><path fill="rgb(248,248,248)" stroke="rgb(248,248,248)" stroke-width="1" opacity="0.7607843137254902" d="M 105.5 56 L 106 80.5 L 105 80.5 L 105.5 56 Z "></path><path fill="rgb(248,248,248)" stroke="rgb(248,248,248)" stroke-width="1" opacity="0.7607843137254902" d="M 113.5 56 L 114 81.5 L 113 81.5 L 113.5 56 Z "></path><path fill="rgb(248,248,248)" stroke="rgb(248,248,248)" stroke-width="1" opacity="0.7607843137254902" d="M 122.5 56 L 119.5 60 L 122.5 56 Z "></path><path fill="rgb(248,248,248)" stroke="rgb(248,248,248)" stroke-width="1" opacity="0.7607843137254902" d="M 145.5 58 L 147.5 61 L 145.5 58 Z "></path><path fill="rgb(248,248,248)" stroke="rgb(248,248,248)" stroke-width="1" opacity="0.7607843137254902" d="M 9.5 59 L 10 61.5 L 9 61.5 L 9.5 59 Z "></path><path fill="rgb(248,248,248)" stroke="rgb(248,248,248)" stroke-width="1" opacity="0.7607843137254902" d="M 98.5 60 L 98 61.5 L 97.5 76 L 97 61.5 L 98.5 60 Z "></path><path fill="rgb(248,248,248)" stroke="rgb(248,248,248)" stroke-width="1" opacity="0.7607843137254902" d="M 11.5 62 L 20 62.5 L 11.5 63 L 11.5 62 Z "></path><path fill="rgb(248,248,248)" stroke="rgb(248,248,248)" stroke-width="1" opacity="0.7607843137254902" d="M 76.5 62 L 75.5 64 L 76.5 62 Z "></path><path fill="rgb(248,248,248)" stroke="rgb(248,248,248)" stroke-width="1" opacity="0.7607843137254902" d="M 31.5 64 L 30.5 66 L 31.5 64 Z "></path><path fill="rgb(248,248,248)" stroke="rgb(248,248,248)" stroke-width="1" opacity="0.7607843137254902" d="M 149.5 65 L 150 67.5 L 149 67.5 L 149.5 65 Z "></path><path fill="rgb(248,248,248)" stroke="rgb(248,248,248)" stroke-width="1" opacity="0.7607843137254902" d="M 116.5 66 L 117 70.5 L 116 70.5 L 116.5 66 Z "></path><path fill="rgb(248,248,248)" stroke="rgb(248,248,248)" stroke-width="1" opacity="0.7607843137254902" d="M 19.5 68 L 24 68.5 L 19.5 69 L 19.5 68 Z "></path><path fill="rgb(248,248,248)" stroke="rgb(248,248,248)" stroke-width="1" opacity="0.7607843137254902" d="M 36.5 68 L 34.5 71 L 36.5 68 Z "></path><path fill="rgb(248,248,248)" stroke="rgb(248,248,248)" stroke-width="1" opacity="0.7607843137254902" d="M 9.5 70 L 10 72.5 L 9 72.5 L 9.5 70 Z "></path><path fill="rgb(248,248,248)" stroke="rgb(248,248,248)" stroke-width="1" opacity="0.7607843137254902" d="M 53.5 70 L 54 73.5 L 53 73.5 L 53.5 70 Z "></path><path fill="rgb(248,248,248)" stroke="rgb(248,248,248)" stroke-width="1" opacity="0.7607843137254902" d="M 149.5 70 L 150 72.5 L 149 72.5 L 149.5 70 Z "></path><path fill="rgb(248,248,248)" stroke="rgb(248,248,248)" stroke-width="1" opacity="0.7607843137254902" d="M 43.5 71 L 42.5 73 L 43.5 71 Z "></path><path fill="rgb(248,248,248)" stroke="rgb(248,248,248)" stroke-width="1" opacity="0.7607843137254902" d="M 139.5 74 L 138.5 76 L 139.5 74 Z "></path><path fill="rgb(248,248,248)" stroke="rgb(248,248,248)" stroke-width="1" opacity="0.7607843137254902" d="M 52.5 75 L 51.5 77 L 52.5 75 Z "></path><path fill="rgb(248,248,248)" stroke="rgb(248,248,248)" stroke-width="1" opacity="0.7607843137254902" d="M 73.5 75 L 74 80.5 L 73 80.5 L 73.5 75 Z "></path><path fill="rgb(248,248,248)" stroke="rgb(248,248,248)" stroke-width="1" opacity="0.7607843137254902" d="M 0.5 76 L 1 81.5 L 0 81.5 L 0.5 76 Z "></path><path fill="rgb(248,248,248)" stroke="rgb(248,248,248)" stroke-width="1" opacity="0.7607843137254902" d="M 131.5 77 L 135 77.5 L 131.5 78 L 131.5 77 Z "></path><path fill="rgb(248,248,248)" stroke="rgb(248,248,248)" stroke-width="1" opacity="0.7607843137254902" d="M 102.5 78 L 103 81.5 L 101 82.5 L 102.5 78 Z "></path><path fill="rgb(248,248,248)" stroke="rgb(248,248,248)" stroke-width="1" opacity="0.7607843137254902" d="M 34.5 79 L 36.5 82 L 34.5 79 Z "></path><path fill="rgb(248,248,248)" stroke="rgb(248,248,248)" stroke-width="1" opacity="0.7607843137254902" d="M 90.5 80 L 91.5 82 L 90.5 80 Z "></path><path fill="rgb(248,248,248)" stroke="rgb(248,248,248)" stroke-width="1" opacity="0.7607843137254902" d="M 18.5 81 L 21 82.5 L 19.5 83 L 18.5 81 Z "></path><path fill="rgb(248,248,248)" stroke="rgb(248,248,248)" stroke-width="1" opacity="0.7607843137254902" d="M 2.5 82 L 6 82.5 L 2.5 83 L 2.5 82 Z "></path><path fill="rgb(248,248,248)" stroke="rgb(248,248,248)" stroke-width="1" opacity="0.7607843137254902" d="M 67.5 82 L 71 82.5 L 67.5 83 L 67.5 82 Z "></path><path fill="rgb(248,248,248)" stroke="rgb(248,248,248)" stroke-width="1" opacity="0.7607843137254902" d="M 93.5 82 L 99 82.5 L 93.5 83 L 93.5 82 Z "></path><path fill="rgb(248,248,248)" stroke="rgb(248,248,248)" stroke-width="1" opacity="0.7607843137254902" d="M 107.5 82 L 111 82.5 L 107.5 83 L 107.5 82 Z "></path><path fill="rgb(248,248,248)" stroke="rgb(248,248,248)" stroke-width="1" opacity="0.7607843137254902" d="M 129.5 86 L 133 86.5 L 129.5 87 L 129.5 86 Z "></path><path fill="rgb(248,248,248)" stroke="rgb(248,248,248)" stroke-width="1" opacity="0.7607843137254902" d="M 23.5 93 L 27 94.5 L 25.5 94 Q 22.5 94.5 23.5 93 Z "></path><path fill="rgb(248,248,248)" stroke="rgb(248,248,248)" stroke-width="1" opacity="0.7607843137254902" d="M 128.5 103 L 133 103.5 L 128.5 104 L 128.5 103 Z "></path><path fill="rgb(248,248,248)" stroke="rgb(248,248,248)" stroke-width="1" opacity="0.7607843137254902" d="M 114.5 108 L 117 108.5 L 114.5 109 L 114.5 108 Z "></path><path fill="rgb(248,248,248)" stroke="rgb(248,248,248)" stroke-width="1" opacity="0.7607843137254902" d="M 119.5 109 L 121.5 112 L 119.5 109 Z "></path><path fill="rgb(248,248,248)" stroke="rgb(248,248,248)" stroke-width="1" opacity="0.7607843137254902" d="M 110.5 110 L 109.5 112 L 110.5 110 Z "></path><path fill="rgb(248,248,248)" stroke="rgb(248,248,248)" stroke-width="1" opacity="0.7607843137254902" d="M 44.5 117 L 46 117.5 L 42.5 120 L 44.5 117 Z "></path><path fill="rgb(248,248,248)" stroke="rgb(248,248,248)" stroke-width="1" opacity="0.7607843137254902" d="M 109.5 120 L 110.5 122 L 109.5 120 Z "></path><path fill="rgb(248,248,248)" stroke="rgb(248,248,248)" stroke-width="1" opacity="0.7607843137254902" d="M 121.5 120 L 120.5 122 L 121.5 120 Z "></path><path fill="rgb(248,248,248)" stroke="rgb(248,248,248)" stroke-width="1" opacity="0.7607843137254902" d="M 91.5 122 L 90.5 124 L 91.5 122 Z "></path><path fill="rgb(248,248,248)" stroke="rgb(248,248,248)" stroke-width="1" opacity="0.7607843137254902" d="M 57.5 123 L 55.5 126 L 57.5 123 Z "></path><path fill="rgb(248,248,248)" stroke="rgb(248,248,248)" stroke-width="1" opacity="0.7607843137254902" d="M 62.5 123 L 63.5 125 L 62.5 123 Z "></path><path fill="rgb(248,248,248)" stroke="rgb(248,248,248)" stroke-width="1" opacity="0.7607843137254902" d="M 64.5 126 L 65 128.5 L 64 128.5 L 64.5 126 Z "></path><path fill="rgb(248,248,248)" stroke="rgb(248,248,248)" stroke-width="1" opacity="0.7607843137254902" d="M 63.5 130 L 62.5 132 L 63.5 130 Z "></path><path fill="rgb(248,248,248)" stroke="rgb(248,248,248)" stroke-width="1" opacity="0.7607843137254902" d="M 101.5 130 L 99.5 133 L 101.5 130 Z "></path><path fill="rgb(248,248,248)" stroke="rgb(248,248,248)" stroke-width="1" opacity="0.7607843137254902" d="M 71.5 131 L 73 133.5 L 71 132.5 L 71.5 131 Z "></path><path fill="rgb(248,248,248)" stroke="rgb(248,248,248)" stroke-width="1" opacity="0.7607843137254902" d="M 91.5 131 L 92.5 133 L 91.5 131 Z "></path><path fill="rgb(248,248,248)" stroke="rgb(248,248,248)" stroke-width="1" opacity="0.7607843137254902" d="M 94.5 133 L 98 133.5 L 94.5 134 L 94.5 133 Z "></path><path fill="rgb(250,250,250)" stroke="rgb(250,250,250)" stroke-width="1" opacity="0.24313725490196078" d="M 74.5 0 L 73 2.5 L 72.5 7 L 72 2.5 L 74.5 0 Z "></path><path fill="rgb(250,250,250)" stroke="rgb(250,250,250)" stroke-width="1" opacity="0.24313725490196078" d="M 79.5 0 L 82 1.5 L 80.5 1 L 79.5 0 Z "></path><path fill="rgb(250,250,250)" stroke="rgb(250,250,250)" stroke-width="1" opacity="0.24313725490196078" d="M 93.5 1 L 97 3.5 L 94.5 2 L 93.5 1 Z "></path><path fill="rgb(250,250,250)" stroke="rgb(250,250,250)" stroke-width="1" opacity="0.24313725490196078" d="M 62.5 2 L 60.5 5 L 62.5 2 Z "></path><path fill="rgb(250,250,250)" stroke="rgb(250,250,250)" stroke-width="1" opacity="0.24313725490196078" d="M 97.5 5 L 98 8.5 L 95.5 12 L 90.5 13 L 90.5 12 L 96 11 L 97.5 5 Z "></path><path fill="rgb(250,250,250)" stroke="rgb(250,250,250)" stroke-width="1" opacity="0.24313725490196078" d="M 51.5 6 L 50.5 8 L 51.5 6 Z "></path><path fill="rgb(250,250,250)" stroke="rgb(250,250,250)" stroke-width="1" opacity="0.24313725490196078" d="M 55.5 6 L 57.5 9 L 55.5 6 Z "></path><path fill="rgb(250,250,250)" stroke="rgb(250,250,250)" stroke-width="1" opacity="0.24313725490196078" d="M 105.5 6 L 109 6.5 L 105.5 7 L 105.5 6 Z "></path><path fill="rgb(250,250,250)" stroke="rgb(250,250,250)" stroke-width="1" opacity="0.24313725490196078" d="M 103.5 7 L 101.5 10 L 103.5 7 Z "></path><path fill="rgb(250,250,250)" stroke="rgb(250,250,250)" stroke-width="1" opacity="0.24313725490196078" d="M 110.5 7 L 112.5 10 L 110.5 7 Z "></path><path fill="rgb(250,250,250)" stroke="rgb(250,250,250)" stroke-width="1" opacity="0.24313725490196078" d="M 60.5 8 L 62.5 11 L 60.5 8 Z "></path><path fill="rgb(250,250,250)" stroke="rgb(250,250,250)" stroke-width="1" opacity="0.24313725490196078" d="M 73.5 8 L 76 9.5 L 74.5 10 L 73.5 8 Z "></path><path fill="rgb(250,250,250)" stroke="rgb(250,250,250)" stroke-width="1" opacity="0.24313725490196078" d="M 86.5 8 L 89 11.5 L 86 9.5 L 86.5 8 Z "></path><path fill="rgb(250,250,250)" stroke="rgb(250,250,250)" stroke-width="1" opacity="0.24313725490196078" d="M 43.5 11 Q 48.3 10.3 49 13.5 Q 49.8 18.3 46.5 19 Q 41.8 19.8 41 16.5 Q 40.3 11.8 43.5 11 Z M 44 12 Q 41 13 42 17 Q 43 19 47 18 Q 49 17 48 14 Q 47 11 44 12 Z "></path><path fill="rgb(250,250,250)" stroke="rgb(250,250,250)" stroke-width="1" opacity="0.24313725490196078" d="M 57.5 11 L 55.5 14 L 57.5 11 Z "></path><path fill="rgb(250,250,250)" stroke="rgb(250,250,250)" stroke-width="1" opacity="0.24313725490196078" d="M 100.5 11 L 101 14.5 L 100 14.5 L 100.5 11 Z "></path><path fill="rgb(250,250,250)" stroke="rgb(250,250,250)" stroke-width="1" opacity="0.24313725490196078" d="M 113.5 11 L 114 14.5 L 113 14.5 L 113.5 11 Z "></path><path fill="rgb(250,250,250)" stroke="rgb(250,250,250)" stroke-width="1" opacity="0.24313725490196078" d="M 50.5 12 L 51.5 14 L 50.5 12 Z "></path><path fill="rgb(250,250,250)" stroke="rgb(250,250,250)" stroke-width="1" opacity="0.24313725490196078" d="M 101.5 16 L 108 19.5 L 105.5 20 L 101.5 16 Z "></path><path fill="rgb(250,250,250)" stroke="rgb(250,250,250)" stroke-width="1" opacity="0.24313725490196078" d="M 112.5 16 L 110.5 19 L 112.5 16 Z "></path><path fill="rgb(250,250,250)" stroke="rgb(250,250,250)" stroke-width="1" opacity="0.24313725490196078" d="M 36.5 17 Q 40.3 16.3 41 18.5 L 39.5 18 L 35.5 19 L 36.5 17 Z "></path><path fill="rgb(250,250,250)" stroke="rgb(250,250,250)" stroke-width="1" opacity="0.24313725490196078" d="M 118.5 17 L 124 17.5 L 117.5 19 L 118.5 17 Z "></path><path fill="rgb(250,250,250)" stroke="rgb(250,250,250)" stroke-width="1" opacity="0.24313725490196078" d="M 125.5 18 Q 129.9 19.6 129 26.5 L 128 26.5 L 128 22.5 L 125.5 18 Z "></path><path fill="rgb(250,250,250)" stroke="rgb(250,250,250)" stroke-width="1" opacity="0.24313725490196078" d="M 115.5 19 L 116 20.5 L 114.5 23 L 114 21.5 L 115.5 19 Z "></path><path fill="rgb(250,250,250)" stroke="rgb(250,250,250)" stroke-width="1" opacity="0.24313725490196078" d="M 35.5 22 L 39.5 23 L 41 22.5 Q 40.3 24.8 36.5 24 L 35.5 22 Z "></path><path fill="rgb(250,250,250)" stroke="rgb(250,250,250)" stroke-width="1" opacity="0.24313725490196078" d="M 31.5 23 L 34 23.5 L 30.5 25 L 31.5 23 Z "></path><path fill="rgb(250,250,250)" stroke="rgb(250,250,250)" stroke-width="1" opacity="0.24313725490196078" d="M 35.5 25 L 36 27.5 L 34 28.5 L 35.5 25 Z "></path><path fill="rgb(250,250,250)" stroke="rgb(250,250,250)" stroke-width="1" opacity="0.24313725490196078" d="M 114.5 27 L 117 30.5 L 115 29.5 L 114.5 27 Z "></path><path fill="rgb(250,250,250)" stroke="rgb(250,250,250)" stroke-width="1" opacity="0.24313725490196078" d="M 30.5 28 L 30.5 31 L 27.5 30 L 26 30.5 L 30.5 28 Z "></path><path fill="rgb(250,250,250)" stroke="rgb(250,250,250)" stroke-width="1" opacity="0.24313725490196078" d="M 127.5 28 L 124.5 32 L 122 31.5 L 127.5 28 Z "></path><path fill="rgb(250,250,250)" stroke="rgb(250,250,250)" stroke-width="1" opacity="0.24313725490196078" d="M 26.5 33 L 29.5 34 L 31 33.5 L 27 35.5 L 28 37.5 L 27 37.5 L 26 35.5 L 26.5 33 Z "></path><path fill="rgb(250,250,250)" stroke="rgb(250,250,250)" stroke-width="1" opacity="0.24313725490196078" d="M 129.5 34 Q 136 33 138 36.5 L 136.5 36 L 129.5 35 L 129.5 34 Z "></path><path fill="rgb(250,250,250)" stroke="rgb(250,250,250)" stroke-width="1" opacity="0.24313725490196078" d="M 127.5 35 L 124.5 39 L 127.5 35 Z "></path><path fill="rgb(250,250,250)" stroke="rgb(250,250,250)" stroke-width="1" opacity="0.24313725490196078" d="M 22.5 37 L 24 39.5 L 22 38.5 L 22.5 37 Z "></path><path fill="rgb(250,250,250)" stroke="rgb(250,250,250)" stroke-width="1" opacity="0.24313725490196078" d="M 138.5 38 L 140 40.5 L 139 40.5 L 138.5 38 Z "></path><path fill="rgb(250,250,250)" stroke="rgb(250,250,250)" stroke-width="1" opacity="0.24313725490196078" d="M 123.5 40 L 124 44.5 L 123 44.5 L 123.5 40 Z "></path><path fill="rgb(250,250,250)" stroke="rgb(250,250,250)" stroke-width="1" opacity="0.24313725490196078" d="M 1.5 44 L 23 44.5 L 1.5 45 L 0.5 46 L 1.5 44 Z "></path><path fill="rgb(250,250,250)" stroke="rgb(250,250,250)" stroke-width="1" opacity="0.24313725490196078" d="M 106.5 44 Q 112.5 42.5 114 45.5 L 112.5 45 Q 107 43.5 105.5 46 L 106.5 44 Z "></path><path fill="rgb(250,250,250)" stroke="rgb(250,250,250)" stroke-width="1" opacity="0.24313725490196078" d="M 28.5 46 L 29.5 48 L 28.5 46 Z "></path><path fill="rgb(250,250,250)" stroke="rgb(250,250,250)" stroke-width="1" opacity="0.24313725490196078" d="M 96.5 47 L 98 50.5 L 97 50.5 L 96.5 47 Z "></path><path fill="rgb(250,250,250)" stroke="rgb(250,250,250)" stroke-width="1" opacity="0.24313725490196078" d="M 138.5 47 L 137.5 49 L 138.5 47 Z "></path><path fill="rgb(250,250,250)" stroke="rgb(250,250,250)" stroke-width="1" opacity="0.24313725490196078" d="M 88.5 49 L 89 53.5 L 86 55 L 86 60 L 87.5 60 L 89 61.5 L 89 73.5 L 88 73.5 L 88 61.5 L 86.5 61 Q 85 58.5 83.5 62 L 81 61.5 L 84 61 L 85 56.5 L 84 54.5 L 86.5 54 L 88 54 L 88.5 49 Z "></path><path fill="rgb(250,250,250)" stroke="rgb(250,250,250)" stroke-width="1" opacity="0.24313725490196078" d="M 135.5 49 L 134.5 51 L 129 50.5 L 135.5 49 Z "></path><path fill="rgb(250,250,250)" stroke="rgb(250,250,250)" stroke-width="1" opacity="0.24313725490196078" d="M 32.5 50 L 34 52.5 L 33 52.5 L 32.5 50 Z "></path><path fill="rgb(250,250,250)" stroke="rgb(250,250,250)" stroke-width="1" opacity="0.24313725490196078" d="M 11.5 51 L 20 51.5 L 11.5 52 L 11.5 51 Z "></path><path fill="rgb(250,250,250)" stroke="rgb(250,250,250)" stroke-width="1" opacity="0.24313725490196078" d="M 107.5 51 L 111 51.5 L 107.5 52 L 107.5 51 Z "></path><path fill="rgb(250,250,250)" stroke="rgb(250,250,250)" stroke-width="1" opacity="0.24313725490196078" d="M 9.5 53 L 10 58.5 L 9 58.5 L 9.5 53 Z "></path><path fill="rgb(250,250,250)" stroke="rgb(250,250,250)" stroke-width="1" opacity="0.24313725490196078" d="M 46.5 53 L 51 53.5 L 46.5 54 L 46.5 53 Z "></path><path fill="rgb(250,250,250)" stroke="rgb(250,250,250)" stroke-width="1" opacity="0.24313725490196078" d="M 129.5 53 L 137 53.5 L 129.5 54 L 129.5 53 Z "></path><path fill="rgb(250,250,250)" stroke="rgb(250,250,250)" stroke-width="1" opacity="0.24313725490196078" d="M 40.5 54 L 43 54.5 Q 37.8 55.3 35.5 59 L 38.5 55 L 40.5 54 Z "></path><path fill="rgb(250,250,250)" stroke="rgb(250,250,250)" stroke-width="1" opacity="0.24313725490196078" d="M 53.5 54 L 56 54.5 L 53.5 55 L 53.5 54 Z "></path><path fill="rgb(250,250,250)" stroke="rgb(250,250,250)" stroke-width="1" opacity="0.24313725490196078" d="M 66.5 54 Q 73.2 52.8 75.5 56 L 79.5 54 L 79.5 55 L 74.5 57 Q 73 53.5 66.5 55 L 65 55.5 L 66.5 54 Z "></path><path fill="rgb(250,250,250)" stroke="rgb(250,250,250)" stroke-width="1" opacity="0.24313725490196078" d="M 106.5 54 Q 112.5 52.5 114 55.5 L 112.5 55 Q 107 53.5 105.5 56 L 106.5 54 Z "></path><path fill="rgb(250,250,250)" stroke="rgb(250,250,250)" stroke-width="1" opacity="0.24313725490196078" d="M 57.5 55 L 62 58.5 L 58.5 56 L 57.5 55 Z "></path><path fill="rgb(250,250,250)" stroke="rgb(250,250,250)" stroke-width="1" opacity="0.24313725490196078" d="M 121.5 56 L 119.5 59 L 121.5 56 Z "></path><path fill="rgb(250,250,250)" stroke="rgb(250,250,250)" stroke-width="1" opacity="0.24313725490196078" d="M 144.5 56 L 147.5 60 L 144.5 56 Z "></path><path fill="rgb(250,250,250)" stroke="rgb(250,250,250)" stroke-width="1" opacity="0.24313725490196078" d="M 23.5 59 L 21.5 62 L 20 61.5 L 23.5 59 Z "></path><path fill="rgb(250,250,250)" stroke="rgb(250,250,250)" stroke-width="1" opacity="0.24313725490196078" d="M 33.5 59 L 35 63 Q 41.6 64.8 43.5 61 L 41.5 64 Q 34.5 65.5 33 61.5 L 33.5 59 Z "></path><path fill="rgb(250,250,250)" stroke="rgb(250,250,250)" stroke-width="1" opacity="0.24313725490196078" d="M 50.5 60 L 53 61.5 L 51.5 61 L 50.5 60 Z "></path><path fill="rgb(250,250,250)" stroke="rgb(250,250,250)" stroke-width="1" opacity="0.24313725490196078" d="M 118.5 60 L 117.5 62 L 118.5 60 Z "></path><path fill="rgb(250,250,250)" stroke="rgb(250,250,250)" stroke-width="1" opacity="0.24313725490196078" d="M 62.5 61 L 63 79.5 L 62 79.5 L 62.5 61 Z "></path><path fill="rgb(250,250,250)" stroke="rgb(250,250,250)" stroke-width="1" opacity="0.24313725490196078" d="M 128.5 61 L 127 63.5 L 126.5 65 L 126 63.5 L 128.5 61 Z "></path><path fill="rgb(250,250,250)" stroke="rgb(250,250,250)" stroke-width="1" opacity="0.24313725490196078" d="M 137.5 61 L 139.5 64 L 137.5 61 Z "></path><path fill="rgb(250,250,250)" stroke="rgb(250,250,250)" stroke-width="1" opacity="0.24313725490196078" d="M 77.5 62 L 79 62.5 L 75.5 65 L 77.5 62 Z "></path><path fill="rgb(250,250,250)" stroke="rgb(250,250,250)" stroke-width="1" opacity="0.24313725490196078" d="M 52.5 63 L 51.5 65 L 50 64.5 L 52.5 63 Z "></path><path fill="rgb(250,250,250)" stroke="rgb(250,250,250)" stroke-width="1" opacity="0.24313725490196078" d="M 44.5 65 L 47 65.5 L 44.5 66 L 44.5 65 Z "></path><path fill="rgb(250,250,250)" stroke="rgb(250,250,250)" stroke-width="1" opacity="0.24313725490196078" d="M 29.5 66 L 28.5 68 L 27 67.5 L 29.5 66 Z "></path><path fill="rgb(250,250,250)" stroke="rgb(250,250,250)" stroke-width="1" opacity="0.24313725490196078" d="M 74.5 66 L 75 70.5 L 74 70.5 L 74.5 66 Z "></path><path fill="rgb(250,250,250)" stroke="rgb(250,250,250)" stroke-width="1" opacity="0.24313725490196078" d="M 125.5 66 L 126 70.5 L 125 70.5 L 125.5 66 Z "></path><path fill="rgb(250,250,250)" stroke="rgb(250,250,250)" stroke-width="1" opacity="0.24313725490196078" d="M 140.5 66 L 141 71.5 L 136.5 77 L 135 76.5 L 139 73.5 L 140.5 66 Z "></path><path fill="rgb(250,250,250)" stroke="rgb(250,250,250)" stroke-width="1" opacity="0.24313725490196078" d="M 35.5 68 L 34.5 70 L 35.5 68 Z "></path><path fill="rgb(250,250,250)" stroke="rgb(250,250,250)" stroke-width="1" opacity="0.24313725490196078" d="M 47.5 70 L 50 70.5 L 47.5 71 L 47.5 70 Z "></path><path fill="rgb(250,250,250)" stroke="rgb(250,250,250)" stroke-width="1" opacity="0.24313725490196078" d="M 44.5 71 L 46 71.5 L 42.5 74 L 44.5 71 Z "></path><path fill="rgb(250,250,250)" stroke="rgb(250,250,250)" stroke-width="1" opacity="0.24313725490196078" d="M 116.5 71 L 117 73.5 L 116 73.5 L 116.5 71 Z "></path><path fill="rgb(250,250,250)" stroke="rgb(250,250,250)" stroke-width="1" opacity="0.24313725490196078" d="M 126.5 72 L 129.5 76 L 131 76.5 L 129.5 77 L 126 73.5 L 126.5 72 Z "></path><path fill="rgb(250,250,250)" stroke="rgb(250,250,250)" stroke-width="1" opacity="0.24313725490196078" d="M 9.5 73 L 10 81.5 L 6.5 83 L 6.5 82 L 9 81.5 L 9.5 73 Z "></path><path fill="rgb(250,250,250)" stroke="rgb(250,250,250)" stroke-width="1" opacity="0.24313725490196078" d="M 52.5 74 L 50.5 77 L 52.5 74 Z "></path><path fill="rgb(250,250,250)" stroke="rgb(250,250,250)" stroke-width="1" opacity="0.24313725490196078" d="M 98.5 75 L 99.5 77 Q 96.7 77.7 98.5 75 Z "></path><path fill="rgb(250,250,250)" stroke="rgb(250,250,250)" stroke-width="1" opacity="0.24313725490196078" d="M 117.5 75 L 122 80.5 L 118 77.5 L 117.5 75 Z "></path><path fill="rgb(250,250,250)" stroke="rgb(250,250,250)" stroke-width="1" opacity="0.24313725490196078" d="M 148.5 75 L 149 76.5 L 143 81.5 L 148.5 75 Z "></path><path fill="rgb(250,250,250)" stroke="rgb(250,250,250)" stroke-width="1" opacity="0.24313725490196078" d="M 44.5 77 L 49 77.5 L 44.5 78 L 44.5 77 Z "></path><path fill="rgb(250,250,250)" stroke="rgb(250,250,250)" stroke-width="1" opacity="0.24313725490196078" d="M 21.5 78 L 23 81.5 L 21 82.5 L 22 79.5 L 21.5 78 Z "></path><path fill="rgb(250,250,250)" stroke="rgb(250,250,250)" stroke-width="1" opacity="0.24313725490196078" d="M 33.5 78 L 36 81.5 L 33 79.5 L 33.5 78 Z "></path><path fill="rgb(250,250,250)" stroke="rgb(250,250,250)" stroke-width="1" opacity="0.24313725490196078" d="M 89.5 79 L 91 81.5 L 89 80.5 L 89.5 79 Z "></path><path fill="rgb(250,250,250)" stroke="rgb(250,250,250)" stroke-width="1" opacity="0.24313725490196078" d="M 51.5 81 L 54 81.5 L 51.5 82 L 51.5 81 Z "></path><path fill="rgb(250,250,250)" stroke="rgb(250,250,250)" stroke-width="1" opacity="0.24313725490196078" d="M 63.5 81 L 62.5 83 L 60 82.5 L 63.5 81 Z "></path><path fill="rgb(250,250,250)" stroke="rgb(250,250,250)" stroke-width="1" opacity="0.24313725490196078" d="M 65.5 81 L 66.5 83 Q 63.7 83.7 65.5 81 Z "></path><path fill="rgb(250,250,250)" stroke="rgb(250,250,250)" stroke-width="1" opacity="0.24313725490196078" d="M 73.5 81 L 74 83 L 71 82.5 L 73.5 81 Z "></path><path fill="rgb(250,250,250)" stroke="rgb(250,250,250)" stroke-width="1" opacity="0.24313725490196078" d="M 105.5 81 L 106.5 83 L 105.5 81 Z "></path><path fill="rgb(250,250,250)" stroke="rgb(250,250,250)" stroke-width="1" opacity="0.24313725490196078" d="M 55.5 82 L 58 82.5 L 55.5 83 L 55.5 82 Z "></path><path fill="rgb(250,250,250)" stroke="rgb(250,250,250)" stroke-width="1" opacity="0.24313725490196078" d="M 111.5 82 L 114 82.5 L 111.5 83 L 111.5 82 Z "></path><path fill="rgb(250,250,250)" stroke="rgb(250,250,250)" stroke-width="1" opacity="0.24313725490196078" d="M 40.5 83 L 48 83.5 L 40.5 84 L 40.5 83 Z "></path><path fill="rgb(250,250,250)" stroke="rgb(250,250,250)" stroke-width="1" opacity="0.24313725490196078" d="M 128.5 83 L 137 83.5 L 128.5 84 L 128.5 83 Z "></path><path fill="rgb(250,250,250)" stroke="rgb(250,250,250)" stroke-width="1" opacity="0.24313725490196078" d="M 20.5 85 L 19.5 87 L 20.5 85 Z "></path><path fill="rgb(250,250,250)" stroke="rgb(250,250,250)" stroke-width="1" opacity="0.24313725490196078" d="M 22.5 85 L 23.5 87 L 22.5 85 Z "></path><path fill="rgb(250,250,250)" stroke="rgb(250,250,250)" stroke-width="1" opacity="0.24313725490196078" d="M 125.5 87 L 122.5 91 L 125.5 87 Z "></path><path fill="rgb(250,250,250)" stroke="rgb(250,250,250)" stroke-width="1" opacity="0.24313725490196078" d="M 135.5 87 L 137.5 90 L 135.5 87 Z "></path><path fill="rgb(250,250,250)" stroke="rgb(250,250,250)" stroke-width="1" opacity="0.24313725490196078" d="M 19.5 89 L 22.5 90 L 24 89.5 L 20.5 91 L 19.5 89 Z "></path><path fill="rgb(250,250,250)" stroke="rgb(250,250,250)" stroke-width="1" opacity="0.24313725490196078" d="M 121.5 92 L 122 97.5 L 121 97.5 L 121.5 92 Z "></path><path fill="rgb(250,250,250)" stroke="rgb(250,250,250)" stroke-width="1" opacity="0.24313725490196078" d="M 22.5 93 L 22 94.5 L 23 98.5 L 21 97.5 Q 20.3 93.8 22.5 93 Z "></path><path fill="rgb(250,250,250)" stroke="rgb(250,250,250)" stroke-width="1" opacity="0.24313725490196078" d="M 138.5 98 L 139 99.5 L 135 102.5 L 138.5 98 Z "></path><path fill="rgb(250,250,250)" stroke="rgb(250,250,250)" stroke-width="1" opacity="0.24313725490196078" d="M 122.5 99 L 125.5 103 L 122.5 99 Z "></path><path fill="rgb(250,250,250)" stroke="rgb(250,250,250)" stroke-width="1" opacity="0.24313725490196078" d="M 27.5 101 L 26 103.5 L 25.5 107 L 25 103.5 L 27.5 101 Z "></path><path fill="rgb(250,250,250)" stroke="rgb(250,250,250)" stroke-width="1" opacity="0.24313725490196078" d="M 30.5 101 Q 33.5 101.5 33 105.5 L 32 105.5 L 30.5 101 Z "></path><path fill="rgb(250,250,250)" stroke="rgb(250,250,250)" stroke-width="1" opacity="0.24313725490196078" d="M 112.5 108 L 114 108.5 L 111.5 110 L 112.5 108 Z "></path><path fill="rgb(250,250,250)" stroke="rgb(250,250,250)" stroke-width="1" opacity="0.24313725490196078" d="M 34.5 109 L 38 109.5 Q 33.8 109.3 32.5 112 L 34.5 109 Z "></path><path fill="rgb(250,250,250)" stroke="rgb(250,250,250)" stroke-width="1" opacity="0.24313725490196078" d="M 120.5 109 L 121.5 111 L 120.5 109 Z "></path><path fill="rgb(250,250,250)" stroke="rgb(250,250,250)" stroke-width="1" opacity="0.24313725490196078" d="M 32.5 114 L 34 116.5 L 32 115.5 L 32.5 114 Z "></path><path fill="rgb(250,250,250)" stroke="rgb(250,250,250)" stroke-width="1" opacity="0.24313725490196078" d="M 39.5 115 L 38.5 117 L 39.5 115 Z "></path><path fill="rgb(250,250,250)" stroke="rgb(250,250,250)" stroke-width="1" opacity="0.24313725490196078" d="M 107.5 115 L 108 117.5 L 107 117.5 L 107.5 115 Z "></path><path fill="rgb(250,250,250)" stroke="rgb(250,250,250)" stroke-width="1" opacity="0.24313725490196078" d="M 123.5 115 L 124 117.5 L 123 117.5 L 123.5 115 Z "></path><path fill="rgb(250,250,250)" stroke="rgb(250,250,250)" stroke-width="1" opacity="0.24313725490196078" d="M 43.5 117 L 42.5 119 L 43.5 117 Z "></path><path fill="rgb(250,250,250)" stroke="rgb(250,250,250)" stroke-width="1" opacity="0.24313725490196078" d="M 93.5 120 Q 100 119 102 122.5 L 103 125.5 L 102 125.5 L 101 122 Q 98.9 120.4 93.5 121 L 90.5 123 L 91.5 121 L 93.5 120 Z "></path><path fill="rgb(250,250,250)" stroke="rgb(250,250,250)" stroke-width="1" opacity="0.24313725490196078" d="M 50.5 122 L 51 123.5 L 47.5 126 L 47.5 125 L 50 123.5 L 50.5 122 Z "></path><path fill="rgb(250,250,250)" stroke="rgb(250,250,250)" stroke-width="1" opacity="0.24313725490196078" d="M 57.5 122 L 62 122.5 Q 57 121.9 55.5 125 L 57.5 122 Z "></path><path fill="rgb(250,250,250)" stroke="rgb(250,250,250)" stroke-width="1" opacity="0.24313725490196078" d="M 111.5 122 L 114 123.5 L 112.5 124 L 111.5 122 Z "></path><path fill="rgb(250,250,250)" stroke="rgb(250,250,250)" stroke-width="1" opacity="0.24313725490196078" d="M 63.5 123 L 65 125.5 L 64 125.5 L 63.5 123 Z "></path><path fill="rgb(250,250,250)" stroke="rgb(250,250,250)" stroke-width="1" opacity="0.24313725490196078" d="M 74.5 124 L 79 124.5 L 72.5 126 L 72.5 125 L 74.5 124 Z "></path><path fill="rgb(250,250,250)" stroke="rgb(250,250,250)" stroke-width="1" opacity="0.24313725490196078" d="M 89.5 124 Q 89 130 92 132.5 L 90 131.5 L 89.5 124 Z "></path><path fill="rgb(250,250,250)" stroke="rgb(250,250,250)" stroke-width="1" opacity="0.24313725490196078" d="M 80.5 125 Q 84.3 126.3 83 132.5 L 79 135.5 Q 83.3 134.3 82 127.5 L 80.5 125 Z "></path><path fill="rgb(250,250,250)" stroke="rgb(250,250,250)" stroke-width="1" opacity="0.24313725490196078" d="M 64.5 129 L 65 130.5 Q 64.5 133.5 60.5 133 L 60.5 132 L 64 130.5 L 64.5 129 Z "></path><path fill="rgb(250,250,250)" stroke="rgb(250,250,250)" stroke-width="1" opacity="0.24313725490196078" d="M 55.5 130 L 59 132.5 L 57.5 133 L 55.5 130 Z "></path><path fill="rgb(250,250,250)" stroke="rgb(250,250,250)" stroke-width="1" opacity="0.24313725490196078" d="M 101.5 131 L 100.5 133 L 101.5 131 Z "></path><path fill="rgb(250,250,250)" stroke="rgb(250,250,250)" stroke-width="1" opacity="0.24313725490196078" d="M 71.5 133 L 75 135.5 L 73.5 136 L 71.5 133 Z "></path></svg>