<svg id="Layer_1" data-name="Layer 1" xmlns="http://www.w3.org/2000/svg" viewBox="0 0 500 439.81307"><defs><style>.cls-1{fill:#756d5a;}</style></defs><title>partio</title><path class="cls-1" d="M262.71458,12.81963c1.86519,2.41087,4.3319,4.56732,5.47979,7.28155,3.12152,7.38047,2.97265,14.57823-4.18195,19.76141-6.4633,4.68235-13.08194,3.95479-18.54635-1.66281-5.91838-6.0843-6.61451-12.92336-.85259-19.7351,1.66248-1.96538,3.51755-3.76786,5.2843-5.645Z"/><path class="cls-1" d="M444.93637,303.60317a26.11033,26.11033,0,0,1-25.86281,26.74174,26.55412,26.55412,0,0,1-27.44267-25.41552c-.623-14.97979,11.44386-27.46593,26.92055-27.856C432.43878,276.7234,444.71713,289.06915,444.93637,303.60317Z"/><path class="cls-1" d="M446.41638,142.83724c.35789,13.32443-10.20009,23.87665-24.0402,24.02714-13.98694.15208-24.73194-10.05265-24.64452-23.4054a24.65313,24.65313,0,0,1,24.09091-24.60737C434.97859,118.58879,446.05526,129.39153,446.41638,142.83724Z"/><path class="cls-1" d="M395.668,368.76918c-.42448,12.55993-11.70128,22.788-24.59748,22.31-11.78161-.43668-21.81742-11.18723-21.73484-23.28284.08561-12.5411,11.08739-23.28353,23.67283-23.1149C385.73948,344.852,396.10394,355.8698,395.668,368.76918Z"/><path class="cls-1" d="M390.862,67.10018c12.10088.34626,20.80726,9.37226,20.63535,21.39274-.17762,12.41748-10.21226,21.65963-22.88268,21.07559-11.16537-.51467-20.40482-11.03823-19.78365-22.53322C369.47548,75.111,378.71269,66.75253,390.862,67.10018Z"/><path class="cls-1" d="M310.77543,381.99658c13.59634.39261,22.92239,10.10637,22.36335,20.83491-.583,11.18749-10.34662,20.34635-21.33152,19.2075-12.6493-1.31134-19.11-9.13749-18.64984-21.56562C293.61216,388.1901,301.90487,383.18928,310.77543,381.99658Z"/><path class="cls-1" d="M365.56327,52.13985C364.41519,63.95846,358.264,71.15634,346.28952,70.855c-10.6829-.26886-18.169-6.06464-18.60574-17.52166-.46433-12.18175,6.5519-18.92247,18.26457-19.414C357.93056,33.41651,364.1256,40.52782,365.56327,52.13985Z"/><path class="cls-1" d="M316.97331,32.98551c-1.43538,10.74066-7.03105,17.29359-17.80562,17.08476-10.04882-.19476-16.23564-6.87705-16.16607-16.37443.0754-10.29233,6.93189-17.17365,17.46817-16.94475C310.19064,16.96227,315.45393,23.70546,316.97331,32.98551Z"/><path class="cls-1" d="M217.30214,404.73388c-1.28684,8.63909-7.02552,14.08373-15.87789,13.80577-8.84771-.27778-15.1992-5.84589-14.61059-15.397.55527-9.00981,5.85663-14.5526,15.60427-14.30777C212.27747,389.08258,216.37016,395.01929,217.30214,404.73388Z"/><path class="cls-1" d="M230.2413,32.15539c-1.39081,7.7756-5.35042,12.81194-13.481,13.05805-8.40328.25436-13.09788-5.089-13.20418-12.57593-.10751-7.57265,4.99522-13.06906,12.91821-13.12547C224.32421,19.45616,228.53753,24.84157,230.2413,32.15539Z"/><path class="cls-1" d="M173.79618,385.14737c-1.7363,7.41318-6.05711,12.75261-14.02715,12.30969-7.761-.43128-12.92749-5.33086-12.309-13.5716.58908-7.84894,5.5081-12.6359,13.61108-12.30954C169.22422,371.90432,173.14445,377.09714,173.79618,385.14737Z"/><path class="cls-1" d="M140.94284,360.14345c-1.52375,6.18276-4.32386,11.35133-11.43284,11.2699-7.626-.08735-11.96612-4.65258-11.46544-12.21152.44577-6.73043,4.95239-10.55693,11.7753-10.34544C136.80815,349.073,139.94932,353.70178,140.94284,360.14345Z"/><path class="cls-1" d="M195.39166,43.0451c-1.67725,7.43066-5.357,12.33852-12.82438,11.91177-6.64714-.37988-10.32609-4.80209-10.248-11.50365.078-6.69466,3.99208-10.99786,10.48257-11.416C190.39761,31.54778,193.64242,36.92482,195.39166,43.0451Z"/><path class="cls-1" d="M156.77453,48.23435c5.728,1.19512,9.77087,4.36085,9.66144,10.474-.11184,6.24876-4.23264,9.33822-10.30457,9.36191-6.38029.0249-9.74649-3.40668-9.40483-9.82825C147.05412,52.08573,150.68361,48.90776,156.77453,48.23435Z"/><path class="cls-1" d="M116.52858,332.56147c-.15643,6.11932-2.89412,10.16151-9.45988,10.21681-5.672.04781-9.16311-3.50565-9.36345-8.82395-.22767-6.0455,3.45482-10.23338,9.61155-10.44213C112.82116,323.32558,115.93447,326.90466,116.52858,332.56147Z"/><path class="cls-1" d="M144.29188,75.89253c-1.19776,5.80839-4.40766,8.83861-9.92421,8.19976-5.171-.59883-9.05738-3.67071-8.38917-9.198.62564-5.17495,4.44948-8.33816,9.89211-7.98168C141.41788,67.276,143.89683,70.9616,144.29188,75.89253Z"/><path class="cls-1" d="M92.79813,315.361c-5.21936-.44864-8.35472-3.46548-8.36147-8.15251-.00768-5.32458,3.0939-9.2727,8.92381-9.12561,4.83624.122,8.19595,3.29274,8.31979,8.068C101.82638,311.78582,97.99457,314.59587,92.79813,315.361Z"/><path class="cls-1" d="M125.92075,91.09082c.369,6.36941-2.04919,9.75348-6.72109,10.18358-4.8459.44612-7.63425-2.97046-8.075-7.59754-.40417-4.24286,2.2484-6.97458,6.232-7.58281C122.06528,85.37512,125.36673,87.3904,125.92075,91.09082Z"/><path class="cls-1" d="M112.61092,109.78849c.09317,4.6351-2.42388,7.40876-6.51376,7.72538-4.26374.3301-7.02982-2.47024-7.26988-6.78181-.20853-3.74544,2.50367-6.16668,5.74263-6.6894C108.69607,103.37675,111.66266,105.58964,112.61092,109.78849Z"/><path class="cls-1" d="M92.128,281.48716c-.36024,4.00076-2.37741,6.76568-6.63216,7.40588-4.31867.6498-7.50024-1.29853-8.19407-5.49915-.81779-4.9512,1.766-8.32857,6.90508-8.52312C88.337,274.71444,90.9393,277.34406,92.128,281.48716Z"/><path class="cls-1" d="M95.13611,121.19469c4.23358.86766,6.70188,2.88753,6.50753,6.45388-.22265,4.08575-2.77485,7.2182-7.04415,6.73128-4.106-.46829-6.3275-3.73768-5.51856-7.955A6.13776,6.13776,0,0,1,95.13611,121.19469Z"/><path class="cls-1" d="M79.77987,266.05257c-3.88669-1.13943-6.52017-3.70043-5.75838-7.81815a6.03933,6.03933,0,0,1,6.758-5.1463c4.35322.47063,6.446,3.3298,5.63231,7.57472A6.18467,6.18467,0,0,1,79.77987,266.05257Z"/><path class="cls-1" d="M77.96548,149.20082q12.03029,0,20.47309,3.1298a38.83833,38.83833,0,0,1,13.74,8.26347,31.25873,31.25873,0,0,1,7.72243,11.71424,39.35449,39.35449,0,0,1,0,27.19847,31.09513,31.09513,0,0,1-7.72243,11.794,38.81461,38.81461,0,0,1-13.74,8.26433q-8.44281,3.12808-20.47309,3.12894H48.33209V263.7729H20.13561V149.20082Zm-7.72339,53.91637a65.78059,65.78059,0,0,0,9.33895-.64192,23.43268,23.43268,0,0,0,7.903-2.487,14.33877,14.33877,0,0,0,5.47774-5.2152,19.89158,19.89158,0,0,0,0-17.65116,14.35784,14.35784,0,0,0-5.47774-5.2152,23.56772,23.56772,0,0,0-7.903-2.487,66.16125,66.16125,0,0,0-9.33895-.64192h-21.91v34.33944Z"/><path class="cls-1" d="M125.32359,206.91022a23.74162,23.74162,0,0,1,4.47109-13.04449,29.175,29.175,0,0,1,10.0143-8.32931,47.5471,47.5471,0,0,1,13.68012-4.479,88.33848,88.33848,0,0,1,15.28971-1.33555,118.14366,118.14366,0,0,1,14.12675.864,47.91127,47.91127,0,0,1,13.05465,3.37879,25.31,25.31,0,0,1,9.65661,6.99376q3.75429,4.47942,3.75476,11.86527V245.099a74.67593,74.67593,0,0,0,.71538,10.52972,17.338,17.338,0,0,0,2.50381,7.54345H186.84013a28.49154,28.49154,0,0,1-1.163-3.85031,29.37587,29.37587,0,0,1-.62548-4.00748,34.11669,34.11669,0,0,1-14.30655,7.70062,64.82388,64.82388,0,0,1-16.80941,2.20041,51.30974,51.30974,0,0,1-12.33927-1.41455A29.89357,29.89357,0,0,1,131.58216,259.4a21.08315,21.08315,0,0,1-6.7052-7.54345,22.85907,22.85907,0,0,1-2.41487-10.84323q0-6.9139,2.77255-11.39375a21.45644,21.45644,0,0,1,7.1528-7.15093,34.31516,34.31516,0,0,1,10.0143-4.00748q5.63214-1.33386,11.35515-2.12141,5.72109-.78545,11.2662-1.25738a76.43026,76.43026,0,0,0,9.83546-1.41455,18.29258,18.29258,0,0,0,6.79511-2.7501,5.69552,5.69552,0,0,0,2.325-5.26487,10.66277,10.66277,0,0,0-1.34085-5.73637,9.28583,9.28583,0,0,0-3.57688-3.30063,15.43329,15.43329,0,0,0-5.18647-1.57088,48.42629,48.42629,0,0,0-6.34752-.39336q-7.51144,0-11.80274,2.82911-4.29225,2.8291-5.00763,9.42952Zm58.655,16.50144a11.8748,11.8748,0,0,1-4.02351,1.96423,45.77114,45.77114,0,0,1-5.18647,1.17838q-2.77447.47151-5.81195.78586-3.04273.31772-6.07973.78586a51.26939,51.26939,0,0,0-5.63311,1.25738,17.69258,17.69258,0,0,0-4.82782,2.12141,10.57777,10.57777,0,0,0-3.30814,3.37879,9.77886,9.77886,0,0,0-1.2519,5.1867,9.43882,9.43882,0,0,0,1.2519,5.02868,8.9483,8.9483,0,0,0,3.39708,3.22162,15.59212,15.59212,0,0,0,5.00763,1.65073,36.19905,36.19905,0,0,0,5.90089.47152q7.51145,0,11.62389-2.20042a15.91549,15.91549,0,0,0,6.07974-5.26486,15.525,15.525,0,0,0,2.41391-6.20789,37.84254,37.84254,0,0,0,.44759-5.02869Z"/><path class="cls-1" d="M244.03059,181.93814v15.1955h.33674a27.32551,27.32551,0,0,1,4.54588-7.04411,29.27144,29.27144,0,0,1,6.56537-5.5398,33.08078,33.08078,0,0,1,7.9123-3.56142,30.25081,30.25081,0,0,1,8.75412-1.26643,19.79713,19.79713,0,0,1,5.21935.79152V201.407q-1.68546-.31491-4.04078-.55364a45.42207,45.42207,0,0,0-4.545-.237,26.901,26.901,0,0,0-11.11126,2.05711,19.05639,19.05639,0,0,0-7.32346,5.61937,21.88469,21.88469,0,0,0-3.95615,8.31054,42.622,42.622,0,0,0-1.17856,10.28808V263.7729H221.30389V181.93814Z"/><path class="cls-1" d="M330.8701,179.51119V195.135H318.58589v42.10252q0,5.92128,2.01949,7.89416,2.02039,1.97376,8.08067,1.97376,2.02038,0,3.87241-.16448a33.54013,33.54013,0,0,0,3.53569-.49344v18.09106a58.48655,58.48655,0,0,1-6.73464.65792q-3.70451.16228-7.23884.16448a71.378,71.378,0,0,1-10.52152-.7406,25.16493,25.16493,0,0,1-8.75412-2.878,15.37383,15.37383,0,0,1-5.97655-6.08489q-2.1892-3.94752-2.18875-10.36137V195.135h-8.50734V179.51119h8.50734V161.48233h23.90616v18.02886Z"/><path class="cls-1" d="M343.736,173.15012V153.79887H367.6413v19.35125Zm23.90526,8.09961v85.50833H343.736V181.24973Z"/><path class="cls-1" d="M379.87114,205.35007a38.84453,38.84453,0,0,1,10.03826-13.91081,46.08094,46.08094,0,0,1,15.61464-8.89669,62.21436,62.21436,0,0,1,20.44834-3.15416,63.07811,63.07811,0,0,1,20.5418,3.15416,45.97763,45.97763,0,0,1,15.70809,8.89669,38.92827,38.92827,0,0,1,10.03826,13.91081,45.44144,45.44144,0,0,1,3.53133,18.19824,44.849,44.849,0,0,1-3.53133,18.11693,39.06417,39.06417,0,0,1-10.03826,13.83036,44.88411,44.88411,0,0,1-15.70809,8.81537,64.64079,64.64079,0,0,1-20.5418,3.0737A63.75376,63.75376,0,0,1,405.524,264.311a44.97029,44.97029,0,0,1-15.61464-8.81537,38.97931,38.97931,0,0,1-10.03826-13.83036,44.799,44.799,0,0,1-3.53233-18.11693A45.39048,45.39048,0,0,1,379.87114,205.35007Zm23.97969,27.98426a24.12457,24.12457,0,0,0,3.81169,8.57314,19.26174,19.26174,0,0,0,7.15613,6.06608,24.49624,24.49624,0,0,0,11.15373,2.26484,25.09826,25.09826,0,0,0,11.24719-2.26484,19.1234,19.1234,0,0,0,7.24958-6.06608,24.193,24.193,0,0,0,3.8107-8.57314,42.83044,42.83044,0,0,0,1.11547-9.786,43.92009,43.92009,0,0,0-1.11547-9.86733,23.39714,23.39714,0,0,0-3.8107-8.57314,20.18765,20.18765,0,0,0-7.24958-6.06608,24.41113,24.41113,0,0,0-11.24719-2.34529,23.82794,23.82794,0,0,0-11.15373,2.34529,20.35547,20.35547,0,0,0-7.15613,6.06608,23.33315,23.33315,0,0,0-3.81169,8.57314,43.97648,43.97648,0,0,0-1.11448,9.86733A42.88523,42.88523,0,0,0,403.85083,233.33433Z"/><circle class="cls-1" cx="253.92844" cy="412.44283" r="17.59648"/><circle class="cls-1" cx="256.14916" cy="27.43686" r="15.50871"/></svg>