<?xml version="1.0" standalone="no"?>
<!DOCTYPE svg PUBLIC "-//W3C//DTD SVG 20010904//EN"
 "http://www.w3.org/TR/2001/REC-SVG-20010904/DTD/svg10.dtd">
<svg version="1.0" xmlns="http://www.w3.org/2000/svg"
 width="301.000000pt" height="102.000000pt" viewBox="0 0 301.000000 102.000000"
 preserveAspectRatio="xMidYMid meet">
<metadata>
Created by potrace 1.15, written by Peter Selinger 2001-2017
</metadata>
<g transform="translate(0.000000,102.000000) scale(0.100000,-0.100000)"
fill="#000000" stroke="none">
<path d="M835 865 c-42 -15 -63 -36 -70 -70 -15 -75 -15 -75 -45 -75 -29 0
-30 -1 -30 -50 0 -49 1 -50 30 -50 l30 0 0 -160 0 -160 70 0 70 0 0 160 0 160
55 0 55 0 0 50 0 50 -55 0 c-51 0 -55 2 -55 23 0 35 19 47 72 47 l48 0 0 45 0
45 -67 0 c-38 -1 -86 -7 -108 -15z"/>
<path d="M2440 545 l0 -245 30 0 30 0 0 245 0 245 -30 0 -30 0 0 -245z"/>
<path d="M1540 690 c0 -43 -3 -50 -20 -50 -13 0 -20 -7 -20 -20 0 -13 7 -20
20 -20 19 0 20 -7 20 -114 0 -171 11 -189 123 -201 56 -6 57 -6 57 18 0 22 -5
25 -50 31 -34 5 -53 13 -60 26 -5 10 -10 68 -10 129 l0 111 60 0 c53 0 60 2
60 20 0 18 -7 20 -60 20 l-60 0 0 50 c0 49 -1 50 -30 50 -29 0 -30 -1 -30 -50z"/>
<path d="M1174 719 c-88 -11 -124 -50 -124 -132 0 -45 18 -80 51 -97 11 -6 54
-18 96 -26 100 -19 121 -35 87 -68 -20 -21 -126 -21 -184 -1 -23 8 -44 15 -46
15 -2 0 -4 -22 -4 -49 l0 -49 50 -11 c64 -14 184 -14 232 -1 56 16 88 60 88
121 0 28 -5 59 -11 71 -14 27 -81 55 -152 63 -32 4 -67 15 -78 24 -18 14 -18
18 -5 36 12 16 25 19 73 18 32 -1 79 -8 106 -16 l47 -15 0 49 c0 47 -1 48 -37
58 -55 14 -131 18 -189 10z"/>
<path d="M197 713 c-4 -3 -7 -134 -7 -290 l0 -283 65 0 65 0 0 105 c0 58 3
105 7 105 4 0 20 -12 35 -27 22 -21 40 -27 85 -30 75 -5 118 17 158 82 27 44
30 57 30 129 0 67 -4 89 -25 126 -14 24 -41 55 -60 68 -50 34 -142 28 -194
-11 l-36 -28 0 30 0 31 -58 0 c-32 0 -62 -3 -65 -7z m254 -93 c72 -39 61 -215
-14 -234 -61 -15 -109 34 -110 112 -2 101 56 158 124 122z"/>
<path d="M2218 645 c-13 -28 -39 -33 -58 -10 -22 26 -39 17 -42 -22 -3 -36 -5
-38 -34 -36 -35 3 -52 -20 -34 -43 9 -10 6 -11 -17 -5 -20 6 -27 13 -25 27 9
52 7 59 -13 56 -55 -9 -60 -7 -63 21 -2 15 -7 27 -11 27 -4 0 -6 -13 -3 -30 5
-34 31 -47 62 -30 29 15 36 6 21 -26 -14 -30 -1 -54 30 -54 10 0 23 -10 30
-21 7 -15 8 -19 0 -15 -16 10 -51 -12 -51 -33 0 -10 7 -24 15 -31 23 -19 18
-30 -14 -30 -33 0 -54 -20 -45 -43 12 -31 -7 -39 -35 -15 l-26 23 24 -27 c30
-34 53 -27 49 16 -3 29 -1 31 32 34 39 4 54 20 38 39 -8 10 -5 13 11 13 27 0
37 -24 23 -54 -15 -34 3 -49 38 -31 32 16 50 5 50 -32 0 -32 33 -30 48 2 14
30 33 32 56 6 24 -26 49 -16 41 16 -8 32 9 51 40 45 32 -6 44 22 21 47 -23 25
-20 40 9 53 34 15 28 41 -10 48 -30 6 -32 10 -23 65 3 20 -4 22 -56 13 -14 -2
-21 5 -28 30 -10 38 -34 42 -50 7z m55 -113 c10 -9 17 -29 17 -53 0 -72 -86
-103 -132 -48 -61 73 42 165 115 101z"/>
<path d="M2665 651 c-36 -15 -60 -51 -60 -91 0 -52 32 -85 99 -101 77 -18 106
-35 106 -64 0 -51 -83 -71 -169 -40 l-41 14 0 -29 c0 -25 5 -30 38 -39 121
-34 232 9 232 90 0 21 -3 45 -6 54 -8 20 -64 48 -129 64 -57 14 -75 26 -75 51
0 44 94 67 164 40 24 -9 26 -7 26 19 0 21 -6 30 -22 35 -33 8 -139 6 -163 -3z"/>
<path d="M1820 535 c-34 -37 -33 -90 4 -121 56 -49 140 -13 140 61 0 75 -93
114 -144 60z m111 -4 c52 -42 17 -131 -51 -131 -43 0 -74 31 -74 73 0 69 71
102 125 58z"/>
</g>
</svg>
