<?xml version="1.0" encoding="UTF-8" standalone="no"?>
<svg
   role="img"
   viewBox="26.84 -6.66 332.73773 357.23407"
   version="1.1"
   id="svg347"
   sodipodi:docname="physx.svg"
   width="332.73773"
   height="357.23407"
   inkscape:version="1.2.1 (9c6d41e, 2022-07-14)"
   xmlns:inkscape="http://www.inkscape.org/namespaces/inkscape"
   xmlns:sodipodi="http://sodipodi.sourceforge.net/DTD/sodipodi-0.dtd"
   xmlns="http://www.w3.org/2000/svg"
   xmlns:svg="http://www.w3.org/2000/svg"
   xmlns:rdf="http://www.w3.org/1999/02/22-rdf-syntax-ns#"
   xmlns:cc="http://creativecommons.org/ns#"
   xmlns:dc="http://purl.org/dc/elements/1.1/">
  <defs
     id="defs351" />
  <sodipodi:namedview
     id="namedview349"
     pagecolor="#ffffff"
     bordercolor="#666666"
     borderopacity="1.0"
     inkscape:showpageshadow="2"
     inkscape:pageopacity="0.0"
     inkscape:pagecheckerboard="0"
     inkscape:deskcolor="#d1d1d1"
     showgrid="false"
     inkscape:zoom="1.728024"
     inkscape:cx="175.63413"
     inkscape:cy="212.3813"
     inkscape:window-width="1651"
     inkscape:window-height="978"
     inkscape:window-x="0"
     inkscape:window-y="25"
     inkscape:window-maximized="0"
     inkscape:current-layer="svg347" />
  <title
     id="title339">NVIDIA Corporation logo</title>
  <path
     d="m 357.25539,230.58769 c 0,3.57012 -2.6215,5.9663 -5.72487,5.9663 v -0.0218 c -3.19143,0.0218 -5.76464,-2.3744 -5.76464,-5.94357 0,-3.56823 2.5732,-5.95777 5.76464,-5.95777 3.10432,-9.5e-4 5.72487,2.3886 5.72487,5.95682 z m 2.32233,0 c 0,-4.89932 -3.80585,-7.7433 -8.0472,-7.7433 -4.2707,0 -8.07656,2.84398 -8.07656,7.7433 0,4.8965 3.8068,7.75183 8.07656,7.75183 4.2423,0 8.0472,-2.85534 8.0472,-7.75183 m -9.3821,0.65514 h 0.86153 l 1.99665,3.50574 h 2.19263 l -2.21156,-3.65343 c 1.1427,-0.0814 2.0828,-0.62579 2.0828,-2.16422 0,-1.91145 -1.31784,-2.52588 -3.55023,-2.52588 h -3.2293 v 8.34353 h 1.85654 v -3.50574 m 9.5e-4,-1.41252 v -2.00896 h 1.29134 c 0.70247,0 1.65961,0.0568 1.65961,0.9136 0,0.93252 -0.49514,1.09536 -1.32352,1.09536 h -1.62743 m -44.81063,-41.9231 10.03345,27.44854 h -20.37742 z m -10.74538,-10.68763 -23.12199,58.58365 h 16.3273 l 3.65722,-10.35155 h 27.36334 l 3.46125,10.35155 h 17.72467 L 316.75712,177.212 Z M 248.2186,235.825 h 16.56494 v -58.62341 l -16.56778,-0.004 z m -114.99645,-58.6272 -13.82036,46.46362 -13.23907,-46.45983 -17.87332,-0.004 18.9081,58.6272 h 23.86421 l 19.06052,-58.6272 z m 66.95748,12.7657 h 7.11941 c 10.32883,0 17.00895,4.6371 17.00895,16.67098 0,12.03672 -6.68012,16.67475 -17.00895,16.67475 h -7.1194 v -33.34572 z m -16.42576,-12.7657 v 58.6272 h 26.85494 c 14.30793,0 18.98004,-2.37818 24.0318,-7.71395 3.56822,-3.74621 5.87635,-11.96762 5.87635,-20.95492 0,-8.24318 -1.9531,-15.59075 -5.3585,-20.16914 -6.13575,-8.18827 -14.97442,-9.78919 -28.16521,-9.78919 H 183.75386 Z M 26.84,177.1164 v 58.70862 H 43.54505 V 191.2473 l 12.94369,0.004 c 4.28585,0 7.34094,1.06791 9.40481,3.27285 2.61771,2.78812 3.68657,7.28887 3.68657,15.52164 v 25.77945 h 16.1872 v -32.4371 c 0,-23.15039 -14.75574,-26.27176 -29.19338,-26.27176 z m 130.25395,0.0814 0.007,58.6272 h 16.55736 v -58.6272 h -16.564 z"
     id="path343" />
  <path
     fill="#77b900"
     d="m 71.35808,60.46504 c 0,0 21.30521,-31.43427 63.84463,-34.68629 v -11.4043 c -47.1178,3.78407 -87.91997,43.69064 -87.91997,43.69064 0,0 23.10968,66.806 87.91997,72.92282 V 118.86598 C 87.64184,112.88265 71.35808,60.46505 71.35808,60.46505 Z m 63.84463,34.2934 V 105.8598 C 99.25727,99.45139 89.27968,62.08585 89.27968,62.08585 c 0,0 17.25888,-19.11921 45.92303,-22.21976 v 12.18158 c -0.0218,0 -0.0369,-0.0066 -0.0549,-0.0066 -15.0445,-1.80541 -26.7972,12.2488 -26.7972,12.2488 0,0 6.58735,23.65972 26.8521,30.4686 m 0,-101.41844 v 21.03441 c 1.38317,-0.10603 2.76635,-0.19597 4.1571,-0.2433 53.56787,-1.80542 88.47096,43.93395 88.47096,43.93395 0,0 -40.08738,48.74523 -81.85143,48.74523 -3.82763,0 -7.411,-0.35502 -10.77663,-0.95146 v 13.00712 c 2.87806,0.36544 5.86215,0.58035 8.97595,0.58035 38.86421,0 66.96978,-19.8482 94.18449,-43.33941 4.51211,3.61367 22.9847,12.405 26.78204,16.25346 -25.87602,21.66402 -86.18178,39.1274 -120.37104,39.1274 -3.29557,0 -6.46048,-0.19976 -9.57144,-0.49987 v 18.27757 H 282.92289 V -6.66 Z m 0,46.5261 v -14.0864 c 1.36897,-0.09562 2.74836,-0.16947 4.1571,-0.21396 38.52054,-1.20992 63.79255,33.10241 63.79255,33.10241 0,0 -27.29612,37.90991 -56.56333,37.90991 -4.212,0 -7.9885,-0.67691 -11.38727,-1.81961 V 52.04767 c 14.9962,1.81204 18.01438,8.43631 27.0301,23.46565 l 20.05173,-16.90765 c 0,0 -14.63739,-19.19685 -39.31201,-19.19685 -2.68209,-9.4e-4 -5.24867,0.18746 -7.76887,0.45727"
     id="path345" />
  <g
     aria-label="PhysX "
     id="text407"
     style="font-size:40px"
     transform="translate(-6.79054,-6.66036)">
    <path
       d="m 78.917674,339.27609 v -61.08331 h 23.041656 q 6.08333,0 9.29166,0.58334 4.5,0.75 7.54167,2.875 3.04166,2.08333 4.87499,5.87499 1.875,3.79167 1.875,8.33333 0,7.79167 -4.95833,13.20833 -4.95833,5.375 -17.91666,5.375 H 87.001004 v 24.83332 z m 8.08333,-32.04165 h 15.791656 q 7.83333,0 11.125,-2.91667 3.29166,-2.91666 3.29166,-8.20833 0,-3.83333 -1.95833,-6.54166 -1.91666,-2.75 -5.08333,-3.625 -2.04167,-0.54166 -7.54166,-0.54166 H 87.001004 Z"
       style="-inkscape-font-specification:'Arial, Normal'"
       id="path567" />
    <path
       d="m 134.87598,339.27609 v -61.08331 h 7.5 v 21.91666 q 5.25,-6.08333 13.24999,-6.08333 4.91667,0 8.54167,1.95833 3.62499,1.91667 5.16666,5.33334 1.58333,3.41666 1.58333,9.91666 v 28.04165 h -7.49999 v -28.04165 q 0,-5.625 -2.45834,-8.16667 -2.41666,-2.58333 -6.87499,-2.58333 -3.33333,0 -6.29167,1.75 -2.91666,1.70833 -4.16666,4.66667 -1.25,2.95833 -1.25,8.16666 v 24.20832 z"
       style="-inkscape-font-specification:'Arial, Normal'"
       id="path569" />
    <path
       d="m 182.00096,356.31775 -0.83333,-7.04166 q 2.45833,0.66666 4.29166,0.66666 2.5,0 4,-0.83333 1.5,-0.83333 2.45833,-2.33333 0.70834,-1.125 2.29167,-5.58333 0.20833,-0.625 0.66667,-1.83333 L 178.0843,295.02611 h 8.08333 l 9.20833,25.62499 q 1.79166,4.875 3.20833,10.25 1.29166,-5.16667 3.08333,-10.08333 l 9.45833,-25.79166 h 7.5 l -16.83333,44.99998 q -2.70833,7.29167 -4.20833,10.04166 -2,3.70834 -4.58333,5.41667 -2.58334,1.75 -6.16667,1.75 -2.16666,0 -4.83333,-0.91667 z"
       style="-inkscape-font-specification:'Arial, Normal'"
       id="path571" />
    <path
       d="m 222.00094,326.06776 7.41666,-1.16666 q 0.625,4.45833 3.45833,6.83333 2.875,2.375 8,2.375 5.16666,0 7.66666,-2.08333 2.5,-2.125 2.5,-4.95834 0,-2.54166 -2.20833,-3.99999 -1.54167,-1 -7.66666,-2.54167 -8.25,-2.08333 -11.45833,-3.58333 -3.16667,-1.54167 -4.83333,-4.20833 -1.625,-2.70834 -1.625,-5.95833 0,-2.95834 1.33333,-5.45833 1.375,-2.54167 3.70833,-4.20834 1.75,-1.29166 4.75,-2.16666 3.04166,-0.91667 6.5,-0.91667 5.20833,0 9.12499,1.5 3.95833,1.5 5.83333,4.08333 1.875,2.54167 2.58334,6.83333 l -7.33333,1 q -0.5,-3.41666 -2.91667,-5.33333 -2.375,-1.91666 -6.75,-1.91666 -5.16666,0 -7.37499,1.70833 -2.20834,1.70833 -2.20834,4 0,1.45833 0.91667,2.625 0.91667,1.20833 2.875,1.99999 1.125,0.41667 6.625,1.91667 7.95833,2.125 11.08332,3.5 3.16667,1.33333 4.95834,3.91666 1.79166,2.58334 1.79166,6.41667 0,3.75 -2.20833,7.08333 -2.16667,3.29166 -6.29166,5.125 -4.125,1.79166 -9.33333,1.79166 -8.625,0 -13.16667,-3.58333 -4.49999,-3.58333 -5.74999,-10.625 z"
       style="-inkscape-font-specification:'Arial, Normal'"
       id="path573" />
    <path
       d="m 262.41759,339.27609 23.62499,-31.83332 -20.83332,-29.24999 h 9.625 l 11.08332,15.66666 q 3.45834,4.875 4.91667,7.5 2.04167,-3.33333 4.83333,-6.95833 l 12.29166,-16.20833 h 8.79167 l -21.45833,28.79166 23.12499,32.29165 h -9.99999 l -15.375,-21.79166 q -1.29166,-1.87499 -2.66666,-4.08333 -2.04167,3.33334 -2.91667,4.58333 l -15.33333,21.29166 z"
       style="-inkscape-font-specification:'Arial, Normal'"
       id="path575" />
  </g>
  <metadata
     id="metadata604">
    <rdf:RDF>
      <cc:Work
         rdf:about="">
        <dc:title>NVIDIA Corporation logo</dc:title>
      </cc:Work>
    </rdf:RDF>
  </metadata>
</svg>
