<svg xmlns="http://www.w3.org/2000/svg" role="img" viewBox="-4.40 -4.40 228.54 89.04"><g transform="translate(-5.466 -6.647) scale(.1998)"><path d="M785.11938 114.57447c-2.1717-15.8431-16.62905-41.53126-89.92925-43.04111-54.1892-1.11688-85.97881 10.2794-100.37411 28.12874V71.36789h-24.75743V33.78706h-65.85435v37.58083h-20.5588v37.02239c-13.48525-19.58671-39.60775-36.93966-90.19812-37.374-29.84542-.24819-51.56247 4.36409-67.34352 11.80994l4.57092-11.62379h-65.25455l-24.01285 71.99717-31.06571-71.99717h-62.85533l-30.81752 72.14195-24.05421-72.14195H27.36L87.25768 223.5113h57.91212l33.83722-89.1433 33.85791 89.1433h57.91212l17.415-44.28209c10.25872 24.01285 40.93146 49.43213 103.18698 48.68754 67.55035-.80663 100.64299-29.88679 106.68239-57.43641h-67.05396c-6.80467 13.83686-22.44095 21.79978-38.05653 21.84114-20.74495.062-36.79488-9.86574-40.2696-31.31391h145.35942v-1.42712h-.0207c-.0207-7.15628-.45502-22.27548-7.19765-38.03585h13.34047s-.16546 65.27523-.16546 65.70957c-1.15824 35.28503 19.2351 35.71937 28.95606 35.65732 1.15824-.0207 74.35502 0 74.35502 0v-8.02496c14.3953 7.05287 32.36874 10.32077 47.94296 10.19667 33.19605-.26888 45.41965-8.33521 65.23386-19.25578.0207 6.14282.0207 10.09325.0207 12.61657v4.57092h65.37864v-.20683h.0827c.062-55.26471.51707-98.28514-.848-108.23361zm-432.35532 16.4429c6.47375-17.97344 23.14416-24.32309 40.24892-24.36446 15.73969-.0207 31.99644 8.04565 36.87761 24.36446zm228.21511 47.83955v.74458c-7.83882-2.15102-10.75511-6.14282-10.73442-17.45637l-.16546-40.6419h24.75743v-.0827c32.05849.0414 56.19544.22751 56.19544.22751s3.0197-12.96818 34.87137-12.8234c34.89205.18615 33.96132 13.91959 34.16815 18.55256-36.46395-.22751-61.8005.45502-89.88788 5.29482-28.08738 4.88116-48.87369 15.94652-49.20462 46.18491zm94.27265 7.2597c-34.18883 1.09619-34.66454-23.51646-7.92155-28.48035 11.06535-2.06829 26.94982-3.7436 52.78276-3.10243 0 4.65365-9.96916 30.48659-44.86121 31.58279z"/><path d="M835.06858 90.54094v48.48072H944.2536v17.80798H835.06858v66.49552h-21.24134V71.88497h134.70772v18.65598H835.06858z"/><path d="M1098.2585 223.32515l-62.2142-66.28869-61.77981 66.28869h-29.3904l77.43681-80.22897-68.00541-71.21122h29.59723l52.34838 57.27095 52.9896-57.27095h29.3904l-69.2877 71.00439 79.1535 80.43579h-30.2384z"/><path d="M468.216 51.305H314.418V33.27h153.984z"/><path d="M761.024 51.305H607.226V33.27H761.21z"/></g><path d="M35.54921 50.67366c.74602.60417 1.11377 1.61286 1.11377 3.03133 0 1.41322-.36775 2.44818-1.11377 3.10488-.746.65144-1.79147.97717-3.13114.97717h-5.30088v-8.017h5.30088c1.33967 0 2.38513.30471 3.13114.90362zm4.31321 9.80847c1.62336-1.32916 2.43767-3.59871 2.43767-6.81392 0-2.94201-.8143-5.117-2.43767-6.51971-1.62862-1.40271-3.80886-2.1067-6.54073-2.1067H21.4643v27.22416h5.65288V62.4785h5.77896c3.01556 0 5.33765-.6672 6.96627-1.99637zM60.6299 52.2655c-1.01394-.4308-2.14347-.64619-3.38857-.64619-1.10851 0-2.16448.23116-3.16792.69348-1.00344.45706-1.88604 1.27662-2.65307 2.44292v-9.61934h-5.2431v27.12959h5.2431V61.36999c0-1.72318.3625-3.05234 1.08224-3.98223.71974-.92988 1.77572-1.3922 3.16792-1.3922 1.33967 0 2.2538.46757 2.73187 1.40271.37301.6672.55689 1.5393.55689 2.62155v12.24614h5.37443v-11.8206c0-1.79673-.06304-3.09437-.18388-3.88767-.12608-.79329-.46231-1.56557-1.0192-2.31683-.65144-.88786-1.48676-1.54456-2.5007-1.97536zm9.43021 23.86185v4.20814c.56214.04203.98768.06304 1.27137.0683.2837.00525.66196.0105 1.12953.0105 2.32734 0 3.87715-.46231 4.65469-1.37644.77228-.91938 1.82825-3.28875 3.15741-7.10287l6.90849-19.80082h-5.60034l-4.1556 14.85193-4.39201-14.85193h-5.85776l7.38656 21.01966c.05253.1471-.0578.55162-.32047 1.21883-.26268.66196-.55163 1.10326-.8616 1.3134-.3152.22065-.70923.3625-1.18205.42029-.46757.06304-.95616.08406-1.47626.05779zm7.12914-24.52905zm17.19503 14.2425h-5.33766c0 2.06467.75127 3.76684 2.25905 5.1065 1.50778 1.33442 3.84564 2.00163 7.01356 2.00163 3.09962 0 5.39544-.63044 6.87696-1.8913 1.48677-1.26086 2.22753-2.88948 2.22753-4.88585 0-1.51303-.52011-2.77915-1.55507-3.78784-1.04547-.99819-2.6163-1.73894-4.70723-2.23278-3.14165-.68822-4.9699-1.17681-5.48475-1.4605-.52011-.26794-.77754-.70924-.77754-1.30815 0-.48333.24167-.90362.73025-1.26086.48859-.352 1.3029-.53062 2.44818-.53062 1.3922 0 2.37463.352 2.95252 1.06648.30997.39402.4991.92989.57265 1.6076h5.2641c-.23115-2.45868-1.14003-4.19237-2.72136-5.1958-1.58133-1.00344-3.63024-1.50779-6.14146-1.50779-2.64781 0-4.70197.6672-6.16247 2.00688-1.45525 1.33441-2.1855 2.9315-2.1855 4.79128 0 1.57608.46757 2.7844 1.40271 3.61973.93514.85108 2.54274 1.55507 4.8228 2.12245 3.16267.75127 4.99093 1.28188 5.48477 1.59184.48858.30471.7355.75652.7355 1.34493 0 .61467-.30471 1.07698-.91413 1.38695-.60941.3047-1.42898.46231-2.46394.46231-1.75995 0-2.96828-.35199-3.61973-1.05597-.36775-.39402-.60941-1.05597-.71974-1.99111zm4.02426-14.2425zm13.33364-6.5565v27.22416h19.17564v-4.8911h-13.486V45.0418zm28.09625 4.69147v-4.85958h-5.33766v4.85958zm-5.33766 2.4009v20.13179h5.33766v-20.1318zm22.19646 14.41587c-.84583.92989-1.88604 1.3922-3.12064 1.3922-1.84401 0-3.12589-.84582-3.84038-2.54799-.39402-.90887-.5884-1.94909-.5884-3.12064 0-1.35543.18387-2.4902.55163-3.41484.70398-1.73894 1.97535-2.60578 3.82462-2.60578 1.35542 0 2.43241.49909 3.24147 1.49727.8038.99819 1.20833 2.44818 1.20833 4.36049 0 2.02789-.42555 3.5094-1.27663 4.4393zm-1.79148-14.43164c-.75126-.30996-1.62861-.46231-2.6373-.46231-2.73713 0-4.84908 1.0192-6.33585 3.0576-1.49202 2.03313-2.23803 4.5496-2.23803 7.54416 0 3.09962.77753 5.5583 2.3221 7.37605 1.54455 1.81775 3.60921 2.72662 6.19399 2.72662 1.6759 0 3.03658-.39927 4.08204-1.20307.5779-.4308 1.11902-1.07699 1.62337-1.93858v1.29239c0 1.92281-.2049 3.28875-.62518 4.10306-.64094 1.26612-1.90706 1.9018-3.8036 1.9018-1.34493 0-2.29583-.24166-2.86322-.71974-.33098-.27319-.57264-.7145-.71974-1.32916h-5.72643c.17337 2.00687 1.07174 3.51466 2.6951 4.52335 1.62861 1.00869 3.7248 1.51303 6.29906 1.51303 4.26067 0 7.13965-1.13477 8.64218-3.39908.87735-1.31865 1.3134-3.27299 1.3134-5.87352V52.13416h-5.11701v2.89999c-.78804-1.41322-1.823-2.39039-3.10488-2.91575zm-.95615-.5201zm28.57958.6672c-1.01394-.4308-2.14347-.64619-3.38857-.64619-1.10851 0-2.16448.23116-3.16792.69348-1.00344.45706-1.88604 1.27662-2.64782 2.44292v-9.61934h-5.24834v27.12959h5.24834V61.36999c0-1.72318.35725-3.05234 1.077-3.98223.71974-.92988 1.7757-1.3922 3.16791-1.3922 1.34492 0 2.2538.46757 2.73188 1.40271.373.6672.55688 1.5393.55688 2.62155v12.24614h5.37443v-11.8206c0-1.79673-.06304-3.09437-.18388-3.88767-.12608-.79329-.46231-1.56557-1.0192-2.31683-.65144-.88786-1.48676-1.54456-2.5007-1.97536zm6.54599 3.80361h2.81067v12.39324c0 1.25561.2942 2.1855.8826 2.78966.91413.94565 2.61105 1.37645 5.10125 1.29239l2.49021-.09457V68.5149c-.16812.01576-.34674.02627-.52536.03152-.17862.00525-.34674.0105-.50435.0105-1.07173 0-1.71267-.10507-1.92281-.30996-.21015-.19963-.31522-.71449-.31522-1.5393V56.06911h3.26774v-3.75107h-3.26774v-5.61085h-5.20632v5.61085h-2.81067z"/></svg>