<?xml version="1.0" encoding="UTF-8" standalone="no"?>
<!-- Created with Inkscape (http://www.inkscape.org/) -->

<svg
   version="1.1"
   id="svg1"
   width="1640.9769"
   height="565.83392"
   viewBox="0 0 1640.9769 565.83392"
   sodipodi:docname="NVIDIA_PhysX_Logo.svg"
   inkscape:version="1.3 (0e150ed, 2023-07-21)"
   xmlns:inkscape="http://www.inkscape.org/namespaces/inkscape"
   xmlns:sodipodi="http://sodipodi.sourceforge.net/DTD/sodipodi-0.dtd"
   xmlns="http://www.w3.org/2000/svg"
   xmlns:svg="http://www.w3.org/2000/svg">
  <defs
     id="defs1" />
  <sodipodi:namedview
     id="namedview1"
     pagecolor="#ffffff"
     bordercolor="#666666"
     borderopacity="1.0"
     inkscape:showpageshadow="2"
     inkscape:pageopacity="0.0"
     inkscape:pagecheckerboard="0"
     inkscape:deskcolor="#d1d1d1"
     inkscape:zoom="0.80547794"
     inkscape:cx="826.21754"
     inkscape:cy="276.85426"
     inkscape:window-width="1640"
     inkscape:window-height="997"
     inkscape:window-x="0"
     inkscape:window-y="25"
     inkscape:window-maximized="0"
     inkscape:current-layer="g1" />
  <g
     inkscape:groupmode="layer"
     inkscape:label="Image"
     id="g1"
     transform="translate(-22.993866,-23)">
    <g
       id="g2">
      <path
         style="fill:#cccccc"
         d="m 740.5,588.10809 -4,-0.60809 -0.29855,-6.87562 c -0.27261,-6.27816 -0.14227,-6.81346 1.5,-6.16032 0.9892,0.39342 5.19599,0.95808 9.34841,1.2548 5.82605,0.41631 8.26873,0.16775 10.69831,-1.08863 3.2826,-1.6975 8.25183,-7.43609 8.25183,-9.52942 0,-0.66573 -7.88099,-16.93575 -17.5133,-36.15561 L 730.97339,494 h 8.32121 8.32121 l 12.81744,26.75 c 7.04959,14.7125 13.13333,27.0998 13.51943,27.52734 0.3861,0.42753 6.96719,-11.60319 14.62466,-26.73493 L 802.5,494.03015 l 7.75,-0.0151 c 4.2625,-0.008 7.74305,0.32243 7.73456,0.73493 -0.008,0.4125 -9.40367,18.975 -20.87817,41.25 -23.1308,44.90291 -25.83134,48.94993 -34.35242,51.48042 -5.09812,1.51398 -14.65147,1.78343 -22.25397,0.62767 z m -68.5,-22.161 c -3.025,-0.5212 -8.5375,-2.4403 -12.25,-4.26465 l -6.75,-3.317 v 3.36109 3.36109 L 645.75,564.79381 638.5,564.5 638.24084,513.75 637.98167,463 H 645.49084 653 v 19.08156 19.08156 l 3.39891,-2.10064 c 17.79741,-10.99941 47.3876,-8.00311 60.11763,6.08751 15.21974,16.84643 11.04747,44.08469 -8.51654,55.59935 -8.12769,4.78365 -24.60005,7.16197 -36,5.19775 z m 22.3515,-13.64967 c 6.92042,-2.17616 13.01528,-8.34507 15.04612,-15.22892 1.97402,-6.69125 1.9894,-8.40826 0.1311,-14.637 -2.00283,-6.71322 -6.45782,-11.76626 -13.29994,-15.08536 -4.96208,-2.4071 -6.93328,-2.77953 -14.72878,-2.78278 -6.97449,-0.003 -10.01276,0.46033 -13.5,2.05828 -9.53996,4.37149 -14.71877,11.22001 -15.69553,20.75596 -2.04059,19.92211 18.75187,32.24509 42.04703,24.91982 z M 888,489 v -77 l 21.75,0.0282 21.75,0.0282 15.5,27.09569 c 18.29793,31.98678 35.48725,61.74023 36.88653,63.84789 0.66882,1.00741 1.01517,-13.68824 1.05466,-44.75 L 985,412 h 20 20 v 77 77 h -21.5246 -21.52464 l -2.53422,-4.25 c -1.39382,-2.3375 -12.62316,-22.025 -24.95408,-43.75 -12.33092,-21.725 -23.3191,-41.075 -24.41819,-43 l -1.99833,-3.5 -0.023,47.25 L 928,566 h -20 -20 z m 200.6669,76.25 c -0.2482,-0.4125 -7.7363,-23.475 -16.6404,-51.25 -16.3212,-50.91163 -24.776,-77.168 -30.0274,-93.25 l -2.8573,-8.75 h 21.8617 c 19.9563,0 21.907,0.15252 22.3807,1.75 0.2854,0.9625 3.956,14.575 8.1567,30.25 13.5356,50.50727 21.3871,79.26131 21.7389,79.61313 0.1889,0.18889 7.0865,-24.7343 15.328,-55.38485 l 14.9845,-55.72828 21.7039,-0.2695 c 11.9371,-0.14823 21.7038,0.0167 21.7038,0.36658 0,0.34984 -11.3436,35.00862 -25.208,77.0195 L 1136.584,566 h -23.733 c -13.0531,0 -23.936,-0.3375 -24.1841,-0.75 z M 1202,489 v -77 h 21 21 v 77 77 h -21 -21 z m 74,0 v -77 h 40.0422 c 32.5854,0 41.4775,0.29438 47.75,1.5808 23.128,4.74332 39.4754,16.79864 48.7076,35.9192 6.3611,13.17412 8.027,21.74385 7.8728,40.5 -0.101,12.29892 -0.5645,17.15217 -2.2441,23.5 -7.6714,28.99233 -27.4865,46.52833 -58.1285,51.44247 -3.6937,0.59237 -23.2298,1.04568 -45.25,1.04998 L 1276,566 Z m 77.5,39.68921 c 18.7709,-5.19647 26.556,-18.59023 25.2576,-43.45388 -0.6413,-12.2792 -3.365,-19.83225 -9.5277,-26.42061 C 1360.9962,450.01226 1351.0749,447 1330.3163,447 H 1318 v 42.15065 42.15064 l 15.25,-0.61395 c 8.3875,-0.33767 17.5,-1.23683 20.25,-1.99813 z M 1447,489 v -77 h 20.5 20.5 v 77 77 h -20.5 -20.5 z m 57.4761,75.26982 c 2.5106,-6.29973 50.4739,-131.90643 53.8533,-141.03133 l 4.1706,-11.26152 21.4364,0.26152 21.4364,0.26151 20.82,54.5 c 11.451,29.975 23.795,62.375 27.4311,72 3.636,9.625 7.4516,19.6375 8.479,22.25 l 1.8679,4.75 h -21.8557 -21.8558 l -2.7093,-7.75 c -1.4901,-4.2625 -3.6338,-10.3375 -4.7637,-13.5 L 1610.732,539 h -27.1303 -27.1304 l -4.6083,13.25 -4.6084,13.25 -21.7419,0.26982 c -20.4578,0.25389 -21.7002,0.1653 -21.0366,-1.5 z M 1600,506.89085 c 0,-1.24067 -14.9318,-47.85081 -15.806,-49.33896 -0.4738,-0.80659 -17.194,47.50727 -17.194,49.68298 0,0.42082 7.425,0.76513 16.5,0.76513 11.4158,0 16.5,-0.34176 16.5,-1.10915 z M 674.39933,418.93172 c -5.00536,-0.51664 -14.68036,-1.73567 -21.5,-2.70896 L 640.5,414.45315 l -0.27152,-19.84038 -0.27152,-19.84039 2.65779,0.66706 c 10.60205,2.66095 32.91255,5.55911 42.71472,5.54869 16.22056,-0.0172 26.05677,-3.17479 35.33713,-11.34369 4.51765,-3.9766 15.98638,-20.41363 16.96561,-24.31519 0.53445,-2.1294 -14.7242,-32.89849 -88.7606,-178.98598 C 636.84223,142.60707 627,122.91957 627,122.59327 627,122.26697 638.16883,122 651.81961,122 h 24.81961 l 4.33901,9.1848 c 2.38646,5.05164 9.7179,20.23914 16.2921,33.75 13.67587,28.10573 24.03175,49.46299 33.73135,69.5652 3.71536,7.7 11.9849,24.74375 18.37676,37.87499 6.39186,13.13125 11.62156,24.26875 11.62156,24.75 0,0.48126 0.3375,0.86897 0.75,0.8616 0.4125,-0.007 20.696,-39.60738 45.07444,-88 L 851.14888,122 h 23.92556 C 891.67595,122 899,122.33369 899,123.09006 c 0,0.59953 -7.48104,15.56203 -16.62453,33.25 -20.90881,40.44782 -29.63994,57.36527 -41.62873,80.65994 -5.23665,10.175 -16.71271,32.45 -25.50235,49.5 -8.78964,17.05 -21.96638,42.7 -29.28164,57 -19.99234,39.08138 -26.80374,49.57598 -38.54124,59.38203 -8.82007,7.36869 -18.56415,11.98074 -30.92151,14.6357 -8.90265,1.91272 -30.30472,2.63153 -42.10067,1.41399 z M 996.5,349.87189 c -30.9673,-2.95159 -62.27955,-11.24971 -84.5472,-22.40602 -12.27882,-6.15182 -34.42243,-21.44179 -32.94641,-22.74922 0.27149,-0.24047 8.72764,-5.92053 18.79146,-12.62236 l 18.29786,-12.18514 7.20214,5.2529 c 20.45353,14.91781 47.75206,24.62124 78.49525,27.90161 14.5831,1.55604 48.4779,0.69607 60.5805,-1.53703 24.7553,-4.56774 38.2379,-12.94274 41.7333,-25.92348 3.5733,-13.27045 -4.3157,-24.4986 -20.7877,-29.58628 -8.2038,-2.53391 -15.848,-3.45581 -58.3192,-7.0335 -70.43379,-5.93319 -83.11157,-8.44419 -101.60575,-20.12432 C 907.61213,218.89174 900,204.29529 900,184 c 0,-17.74343 4.3617,-28.4331 16.59852,-40.6797 7.07973,-7.08538 9.6976,-8.92669 19.56792,-13.76328 22.1998,-10.87821 45.29824,-14.95775 84.83356,-14.98293 29.1897,-0.0186 40.0534,1.10411 61.5584,6.36167 20.6092,5.03855 38.5822,12.61912 53.0987,22.39571 10.7988,7.27273 15.0742,11.27627 13.6251,12.75854 -0.6698,0.68511 -9.2125,5.61938 -18.9838,10.96503 l -17.7659,9.71937 -4.0163,-2.75426 c -15.6726,-10.748 -43.4704,-19.53004 -70.0162,-22.11992 -16.1669,-1.57728 -44.08564,-0.5956 -56.22005,1.97682 C 961.5518,158.27128 948,168.76967 948,180.43325 c 0,10.57924 8.85967,18.17137 25.78606,22.09686 8.24004,1.91099 33.62404,4.92168 58.71394,6.96382 60.453,4.92044 71.6001,6.73472 86.3528,14.05459 14.9071,7.39648 25.3425,19.031 30.0037,33.45148 3.6729,11.36303 3.2868,29.45715 -0.8874,41.58974 -9.6425,28.02645 -41.5118,46.18199 -90.1797,51.37426 -11.313,1.20695 -48.2422,1.15145 -61.2894,-0.0921 z M 23.246933,183.75 23.5,24.5 122,24.209306 c 103.14235,-0.304395 123.91698,0.250425 142.31424,3.800729 41.28004,7.966227 68.08458,31.140489 78.71847,68.057235 3.07395,10.67155 3.85633,33.43909 1.54165,44.86249 -4.02797,19.87888 -11.49976,34.24577 -24.47983,47.07024 -13.21788,13.05944 -27.51827,20.15264 -50.88585,25.24013 -9.42563,2.05211 -12.47101,2.12452 -104.45868,2.48385 L 70,216.0941 V 279.54705 343 H 46.496933 22.993866 Z M 251,174.61942 C 279.57716,167.94062 296,147.82468 296,119.5 296,91.394614 279.83794,72.524014 250,65.791017 240.77333,63.709 238.04719,63.636259 155.25,63.262833 L 70,62.878344 v 57.107006 57.107 l 86.75,-0.36005 c 78.35369,-0.3252 87.47591,-0.5297 94.25,-2.11288 z M 365,183.5 V 24 h 22 22 v 60.945078 60.945082 l 7.75,-5.32217 C 441.26627,123.73192 469.35459,116 506,116 c 17.38023,0 27.89653,1.16193 42,4.64052 31.17289,7.68873 54.60358,25.37818 66.04173,49.85948 8.18689,17.52254 8.92201,26.4625 8.94244,108.75 L 623,343 h -21.94346 -21.94346 l -0.37581,-68.75 C 578.32416,198.67731 578.4226,199.95736 571.9861,186.47087 565.67101,173.2388 547.79426,160.84615 528,155.9785 c -12.02419,-2.9569 -34.29769,-3.70986 -47.15596,-1.59412 -29.01714,4.77457 -52.70248,18.54511 -67.45391,39.21738 L 409,199.75398 V 271.37699 343 h -22 -22 z m 804.1908,153.25 c 2.4385,-2.8875 7.357,-8.85 10.93,-13.25 3.573,-4.4 10.7449,-13.21315 15.9377,-19.58479 5.1928,-6.37163 11.0165,-13.53843 12.9415,-15.92623 1.925,-2.38779 5.0155,-6.17464 6.8677,-8.41521 1.8522,-2.24057 5.0022,-6.05083 7,-8.46723 7.163,-8.66403 15.3218,-18.63397 16.4665,-20.12197 0.6412,-0.83348 3.1908,-3.97654 5.6658,-6.98457 2.475,-3.00803 5.0457,-6.15109 5.7126,-6.98457 0.6669,-0.83349 6.212,-7.59043 12.3224,-15.01543 11.6272,-14.12875 13.4333,-16.33956 22.1322,-27.0911 2.9331,-3.62511 8.8724,-10.94127 13.1985,-16.25813 6.9868,-8.58688 7.7131,-9.86029 6.5,-11.39672 -0.7511,-0.95132 -4.9657,-6.04313 -9.3657,-11.31512 -4.4,-5.27198 -9.575,-11.55004 -11.5,-13.95124 -1.925,-2.4012 -7.325,-8.95581 -12,-14.5658 -4.675,-5.60999 -10.075,-12.19412 -12,-14.63141 -1.925,-2.43729 -5.3654,-6.64972 -7.6453,-9.36096 -2.2798,-2.71123 -7.4705,-8.97952 -11.5347,-13.92952 -4.0643,-4.95 -12.7846,-15.525 -19.3784,-23.5 -6.5939,-7.975 -13.3282,-16.146652 -14.9652,-18.159226 -6.3143,-7.76289 -16.0225,-19.427889 -17.7097,-21.279335 C 1187.795,25.49523 1187,24.254751 1187,23.80482 c 0,-0.449932 32.2742,-0.702579 71.7205,-0.561439 70.6616,0.25283 71.7358,0.286251 72.75,2.263395 0.5662,1.103726 4.1422,7.403726 7.9467,14 3.8044,6.596273 8.2769,14.468224 9.9388,17.493224 1.6619,3.025 5.3911,9.55 8.2872,14.5 2.896,4.95 8.7735,15.185087 13.0611,22.744637 4.2877,7.559553 8.0607,13.747053 8.3847,13.750003 0.6112,0.006 44.8485,-77.390967 47.0083,-82.24464 L 1427.321,23 h 71.898 71.8979 l -4.5252,5.75 c -2.4889,3.1625 -7.1277,8.926721 -10.3085,12.809379 -5.7455,7.013347 -20.7137,25.556363 -22.9538,28.435863 -0.6439,0.827617 -3.5689,4.396609 -6.5,7.931093 -2.9312,3.534484 -7.5794,9.231364 -10.3294,12.659733 -2.75,3.428369 -11.3,13.955392 -19,23.393392 -31.2993,38.36395 -44.5,54.83735 -44.5,55.53228 0,0.57893 8.7101,11.67242 12.7874,16.28656 1.1171,1.26407 3.3736,3.96407 5.0146,6 15.7817,19.57961 22.1939,27.45939 28.5485,35.08253 6.0005,7.19835 6.6646,8.005 15.1576,18.41236 4.3956,5.38626 9.121,11.26622 10.5011,13.06659 1.38,1.80036 10.38,12.87887 20,24.6189 9.6199,11.74003 22.8613,27.91007 29.4252,35.93342 6.5639,8.02334 12.2127,14.8129 12.5529,15.0879 0.3401,0.275 1.8855,2.1875 3.4343,4.25 l 2.8158,3.75 -71.8687,-0.0284 -71.8687,-0.0284 -3.4355,-5.72164 c -3.0892,-5.14476 -7.069,-11.31195 -28.5368,-44.22164 -3.4084,-5.225 -8.2288,-12.65 -10.7119,-16.5 -6.6918,-10.37565 -19.4973,-30.12325 -24.1446,-37.23397 l -4.0743,-6.23397 -2.9702,4.73397 c -1.6337,2.60368 -6.6405,10.35897 -11.1263,17.23397 -4.4859,6.875 -10.5961,16.28563 -13.5783,20.91251 -2.9821,4.62688 -9.4721,14.63883 -14.4221,22.24877 -4.95,7.60994 -13.5,20.79998 -19,29.31119 l -10,15.47493 -71.3715,0.0263 L 1164.7571,342 Z M 1612.5,75.535377 c -0.55,-0.235204 -2.9533,-0.930211 -5.3406,-1.54446 -5.316,-1.367758 -12.7455,-7.923763 -15.2884,-13.490917 -2.5758,-5.639259 -2.4723,-16.576799 0.213,-22.5 2.6605,-5.868372 5.3091,-8.614205 11.416,-11.834956 4.2669,-2.250335 6.2463,-2.636986 13.5,-2.636986 7.2537,0 9.2331,0.386651 13.5,2.636986 6.1069,3.220751 8.7555,5.966584 11.416,11.834956 2.7041,5.964624 2.792,16.881879 0.1812,22.5 -2.3193,4.990942 -8.4141,10.909453 -13.3533,12.967143 -3.713,1.546833 -14.3085,2.895894 -16.2439,2.068234 z m 13.9825,-9.567522 3.0175,-1.934161 -3.7055,-0.01685 c -3.4431,-0.01565 -3.9403,-0.418646 -7.0207,-5.690411 C 1614.1919,50.484984 1613,50.400397 1613,57.916667 V 64 h -3.5 -3.5 V 49.40347 34.806941 l 9.4738,0.346529 c 8.0548,0.294625 9.7923,0.665241 11.6,2.474308 3.8035,3.806328 2.487,11.489381 -2.2702,13.24919 -1.5922,0.588962 -1.4418,1.192975 1.5276,6.138138 1.8115,3.016692 3.7155,5.399882 4.2312,5.295979 2.1855,-0.440365 4.9018,-7.926975 4.8295,-13.311085 -0.08,-5.93842 -1.8378,-10.259246 -5.5469,-13.633027 -14.1961,-12.912807 -35.0946,-0.465677 -30.8751,18.389178 1.2068,5.392555 4.5784,10.39293 8.388,12.44004 5.9267,3.184785 13.9491,3.089001 19.1246,-0.228336 z M 1621.5,43.5 c 0,-1.63804 -0.7692,-2.055651 -4.25,-2.307498 -3.9949,-0.28904 -4.25,-0.150536 -4.25,2.307498 0,2.458034 0.2551,2.596538 4.25,2.307498 3.4808,-0.251847 4.25,-0.669458 4.25,-2.307498 z"
         id="path8" />
      <path
         style="fill:#afafaf"
         d="m 743.5,588.38863 c -7.76899,-1.1318 -7.5,-0.85199 -7.5,-7.80138 v -6.37466 l 4.25,0.9741 c 2.3375,0.53576 7.26559,0.81195 10.9513,0.61377 7.2278,-0.38864 10.06723,-2.07614 13.89814,-8.25978 l 1.83336,-2.95931 -17.4664,-34.18939 C 739.85988,511.58782 732,495.70701 732,495.1013 732,494.39641 734.72896,494 739.58157,494 h 7.58157 l 13.64579,28.01638 13.64579,28.01637 14.02264,-27.76637 L 802.5,494.5 l 7.75,-0.29206 c 4.2625,-0.16064 7.75,-0.0532 7.75,0.23878 0,1.70794 -42.71037,82.95939 -45.18848,85.96577 -4.48836,5.44516 -9.80265,7.74526 -18.72962,8.10643 -4.17005,0.16872 -8.9319,0.11009 -10.5819,-0.13029 z m -77.66363,-24.25077 c -3.11499,-1.02739 -7.24762,-2.84694 -9.18362,-4.04345 l -3.51999,-2.17548 -0.31638,3.29054 L 652.5,564.5 l -6.75,0.29569 -6.75,0.29569 V 514 462.90862 l 6.75,0.29569 6.75,0.29569 0.27234,18.82589 c 0.14979,10.35423 0.59979,18.65903 1,18.45511 10.3937,-5.296 14.7453,-6.87481 21.55855,-7.82166 13.28813,-1.84668 26.73949,1.25165 36.48163,8.40303 9.32263,6.84345 13.18748,15.11558 13.18748,28.22584 0,15.55323 -6.0086,25.34143 -19.71425,32.11513 -7.4535,3.68372 -7.80839,3.75278 -20.68468,4.02526 -10.64139,0.22518 -14.1644,-0.0735 -18.7647,-1.59074 z m 30.11358,-12.21167 c 17.24902,-7.42034 20.11831,-30.26375 5.22789,-41.62106 -11.96111,-9.12304 -32.31342,-7.92244 -42.49237,2.50667 -10.25648,10.50854 -8.41961,29.13012 3.6069,36.56554 9.54304,5.9 23.42404,6.9512 33.65758,2.54885 z M 889,488.98011 v -77.01989 l 21.20272,0.26989 21.20273,0.26989 26.54727,46.14207 L 984.5,504.78414 984.75989,458.39207 985.01978,412 H 1004.5099 1024 v 77.01989 77.01989 L 1002.8488,565.76989 981.69757,565.5 970.59878,545.99958 C 964.49445,535.27435 952.525,514.21356 944,499.19783 L 928.5,471.89649 928.24021,518.94825 927.98042,566 H 908.49021 889 Z M 1088.4798,564.75 c -0.2516,-0.6875 -2.6716,-8.225 -5.3777,-16.75 -2.7061,-8.525 -13.3511,-41.6 -23.6555,-73.5 -10.3044,-31.9 -18.9478,-59.0125 -19.2075,-60.25 l -0.4723,-2.25 h 21.6166 c 11.8891,0 21.6166,0.22029 21.6166,0.48954 0,0.40224 8.6245,32.62914 27.535,102.88954 1.3144,4.8835 2.5495,9.03874 2.7446,9.23388 0.1952,0.19513 3.1371,-10.10045 6.5376,-22.87909 9.6635,-36.31372 21.07,-78.71084 22.7295,-84.48387 l 1.5092,-5.25 h 21.472 c 11.8097,0 21.4721,0.17753 21.4721,0.39452 0,0.21698 -10.851,33.17948 -24.1134,73.25 -13.2623,40.07051 -24.567,74.54298 -25.1216,76.60548 l -1.0083,3.75 h -23.9097 c -18.2172,0 -24.0187,-0.29761 -24.3672,-1.25 z M 1203,489 v -77 h 20.5 20.5 v 77 77 h -20.5 -20.5 z m 73,0 v -77 l 38.75,0.008 c 21.5421,0.004 41.6365,0.46297 45.25,1.03308 31.1257,4.91082 51.9407,24.13047 58.629,54.13562 2.266,10.16595 2.2247,32.6869 -0.079,43.32168 -6.7671,31.23296 -28.0991,50.3739 -60.6952,54.46111 -4.566,0.57253 -24.8511,1.04096 -45.0781,1.04096 H 1276 Z m 80.4239,39.02422 c 9.3515,-2.98757 17.2403,-10.6402 20.1267,-19.52422 2.7765,-8.54565 2.8027,-30.75966 0.045,-38 -2.8011,-7.35417 -6.9228,-12.86597 -12.2694,-16.40739 -7.9335,-5.25494 -13.0887,-6.3913 -31.0761,-6.85015 L 1317,446.82792 v 42.21591 42.21591 l 16.25,-0.51177 c 13.0079,-0.40966 17.6314,-0.95309 23.1739,-2.72375 z M 1447,489 v -77 h 20.5 20.5 v 77 77 h -20.5 -20.5 z m 59.0707,71.75 c 1.1014,-2.8875 14.3004,-37.425 29.3311,-76.75 l 27.3285,-71.5 h 21.2086 21.2087 l 8.7859,23 C 1654.311,541.2007 1663,564.13408 1663,565.00355 1663,565.63431 1655.1781,566 1641.6862,566 h -21.3138 l -4.0798,-11.75 c -2.2439,-6.4625 -4.3853,-12.76967 -4.7587,-14.01594 l -0.6788,-2.26594 -27.0617,0.26594 -27.0618,0.26594 -5,13.75 -5,13.75 h -21.3318 -21.3317 z m 89.3327,-69.5 c -9.3785,-29.15664 -11.0754,-34.25537 -11.5636,-34.74349 -0.4357,-0.43578 -16.8526,49.0218 -16.8437,50.74349 0,0.4125 7.6069,0.75 16.8994,0.75 h 16.8956 z M 678.81121,418.94288 c -9.81619,-0.705 -30.18281,-3.26841 -35.56121,-4.47586 -2.23825,-0.50249 -2.25,-0.60597 -2.25,-19.82319 v -19.31806 l 12.17474,2.32674 c 46.02237,8.79543 64.08313,3.14527 81.02348,-25.34752 l 4.69822,-7.90216 L 683.00643,233.45141 627.11642,122.5 l 24.1236,-0.26819 c 13.26798,-0.14751 24.48581,0.094 24.92851,0.53672 0.72944,0.72944 69.18091,141.14632 81.03576,166.23147 l 4.96214,10.5 44.47124,-88.75 44.47124,-88.75 h 23.94554 C 888.2245,122 899,122.34745 899,122.7721 c 0,2.23854 -130.16579,253.17691 -135.5448,261.30822 -14.70363,22.22709 -32.27207,32.47798 -59.84595,34.91908 -6.11009,0.54092 -11.78425,0.92221 -12.60925,0.84732 -0.825,-0.0749 -6.30996,-0.48163 -12.18879,-0.90384 z M 1005,350.32212 C 962.11925,347.1922 921.91689,335.37176 896.5,318.42059 888.88026,313.33879 879.09812,305.7987 879.08878,305 c -0.003,-0.275 8.35834,-5.95138 18.58123,-12.61418 l 18.58706,-12.11419 7.50508,5.38465 c 27.25943,19.55774 60.27158,28.68611 103.23785,28.54684 51.3568,-0.16647 78.0935,-12.27651 77.978,-35.31914 -0.058,-11.51037 -8.3387,-19.34067 -25.1548,-23.78568 -9.2467,-2.44417 -10.1843,-2.55733 -46.3232,-5.59059 -45.40059,-3.81063 -60.91242,-5.41205 -73.23868,-7.56107 -33.41369,-5.82548 -54.36213,-21.67001 -59.15961,-44.74586 -2.72071,-13.08662 -0.63706,-29.56904 5.1335,-40.60771 3.98677,-7.62642 15.15769,-18.82801 23.79674,-23.86208 36.6216,-21.3398 112.33725,-24.86225 166.46805,-7.74442 13.9657,4.41638 34.3276,14.67296 44.75,22.5412 4.8125,3.63313 8.75,6.98783 8.75,7.4549 0,0.8321 -35.5664,21.01733 -37.0325,21.01733 -0.4102,0 -3.8069,-1.78883 -7.5482,-3.97517 -17.1345,-10.01277 -37.3645,-16.54599 -60.8044,-19.63653 -15.0147,-1.97968 -51.26257,-1.393 -61.68613,0.9984 -21.71224,4.9813 -33.71165,13.95001 -34.70598,25.94028 -1.02746,12.38987 7.79588,19.73696 28.86954,24.03929 9.50813,1.94115 37.55137,4.99699 69.90767,7.61776 58.1659,4.71127 72.1755,8.54651 88.0476,24.10363 7.37,7.22368 12.8676,17.10907 14.8554,26.71156 1.559,7.5308 1.3316,23.57998 -0.4404,31.09767 -8.8266,37.44491 -53.548,58.61265 -122.3863,57.9284 -9.667,-0.0961 -19.6013,-0.32251 -22.0763,-0.50317 z M 24,184 V 25 h 108.03941 c 112.90342,0 118.85097,0.192478 138.07527,4.468466 38.07683,8.469287 64.26705,33.251965 73.48062,69.531534 1.51873,5.98021 1.8863,10.84353 1.8139,24 -0.10867,19.74766 -1.74116,27.17392 -9.34264,42.5 -5.73825,11.56943 -12.52911,20.33314 -21.34165,27.54174 -7.15521,5.8529 -25.20928,14.93784 -34.71388,17.46827 -18.0028,4.79292 -17.18159,4.75626 -116.26103,5.19086 L 70,216.1121 V 279.55605 343 H 47 24 Z m 219.67764,-8.07422 C 276.56496,171.40947 296.17645,150.56444 296.29391,120 296.35589,103.87225 291.64742,91.610387 281.49346,81.456422 271.65383,71.616791 259.22103,66.517864 239.02623,64.039799 233.80469,63.399074 199.74254,63 150.27623,63 H 70 v 57 57 h 82.92764 c 53.58355,0 85.6956,-0.38011 90.75,-1.07422 z M 365,184 V 25 h 22 22 v 60.457162 60.457158 l 8.25,-5.54263 c 26.30502,-17.67262 57.78701,-25.54375 96.25,-24.06445 23.81109,0.91579 40.85649,4.67415 57.25659,12.62457 25.73097,12.47383 41.98841,31.31307 48.38438,56.06819 2.87034,11.10944 3.79815,35.51207 3.83057,100.75 L 623,343 h -22 -22 l -0.0349,-65.75 c -0.0371,-69.91085 -0.28374,-74.21555 -4.9604,-86.57423 -6.82948,-18.04777 -26.62091,-31.63405 -52.70929,-36.18348 -10.81789,-1.88649 -31.35498,-1.91905 -41.88182,-0.0664 -23.45678,4.1282 -40.25244,12.4021 -55.74553,27.46146 -4.30756,4.18697 -9.59506,10.25145 -11.75,13.47662 L 408,201.22791 V 272.11395 343 H 386.5 365 Z m 804.7108,152.25 c 4.4175,-5.17466 15.5812,-18.84458 23.9261,-29.29748 1.7254,-2.16114 4.7213,-5.84706 6.6577,-8.19093 1.9364,-2.34387 6.3009,-7.63659 9.6989,-11.76159 3.3981,-4.125 6.9278,-8.4 7.8439,-9.5 0.9161,-1.1 3.4649,-4.24534 5.6641,-6.98964 2.1992,-2.74431 4.8152,-5.89431 5.8133,-7 0.9981,-1.1057 3.6981,-4.48536 6,-7.51036 2.3019,-3.025 4.6587,-6.00566 5.2375,-6.62369 0.5787,-0.61803 2.6037,-3.02104 4.5,-5.34002 1.8962,-2.31898 4.1943,-5.09756 5.1069,-6.17461 0.9125,-1.07706 3.1625,-3.81061 5,-6.07457 1.8374,-2.26395 6.8527,-8.42971 11.1451,-13.70169 4.2924,-5.27198 9.0784,-11.16042 10.6357,-13.08542 4.4687,-5.5241 19.0562,-23.24163 21.4182,-26.0139 1.178,-1.38265 3.4193,-4.21757 4.9807,-6.29982 3.3092,-4.41311 4.1058,-2.74944 -8.533,-17.81966 C 1290.0242,149.16498 1282.4372,140 1277.946,134.5 c -4.4912,-5.5 -9.6847,-11.8 -11.5411,-14 -1.8565,-2.2 -8.1542,-9.85 -13.995,-17 -5.8409,-7.15 -11.5884,-14.125 -12.7723,-15.5 -1.1839,-1.375 -5.9742,-7.225 -10.6451,-13 -4.6709,-5.775 -8.9807,-10.95 -9.5775,-11.5 -0.5967,-0.55 -2.8467,-3.25 -5,-6 -2.1532,-2.75 -4.14,-5.225 -4.415,-5.5 -0.275,-0.275 -2.2085,-2.626338 -4.2966,-5.225196 -2.0882,-2.598858 -4.3382,-5.305018 -5,-6.01369 C 1198.094,37.967215 1187,24.000129 1187,23.508952 c 0,-0.287204 32.2513,-0.406711 71.6695,-0.265571 l 71.6694,0.256619 2.1606,4 c 1.1883,2.2 3.2176,5.8 4.5096,8 1.2919,2.2 5.1379,8.95 8.5465,15 3.4086,6.05 8.503,15.002073 11.3209,19.893496 2.8179,4.891423 5.1235,9.278923 5.1235,9.75 0,0.471077 0.3975,0.856504 0.8834,0.856504 0.4858,0 1.1401,0.7875 1.454,1.75 0.5217,1.599959 5.3387,10.271595 11.6626,20.99527 1.375,2.33163 2.8185,4.24279 3.2078,4.24703 0.3894,0.004 1.784,-1.9048 3.0993,-4.2423 3.0831,-5.479152 11.203,-19.965836 14.4331,-25.75 1.3821,-2.475 3.9834,-6.975 5.7805,-10 8.0517,-13.552423 22.2014,-38.796807 23.4014,-41.75 l 1.3205,-3.25 h 71.3787 c 39.2583,0 71.3787,0.295024 71.3787,0.655609 0,0.797393 -4.2533,6.556807 -8.4301,11.415333 -3.5583,4.139061 -4.936,5.820428 -13.0699,15.951182 -3.3,4.110126 -8.25,10.219351 -11,13.576056 -2.75,3.356705 -6.125,7.575405 -7.5,9.37489 -1.375,1.799485 -3.5664,4.454197 -4.8698,5.89936 -1.3034,1.445164 -3.5351,4.20257 -4.9594,6.12757 -1.4242,1.925 -4.8936,6.2 -7.7098,9.5 -2.8161,3.3 -10.3605,12.525 -16.7652,20.5 -11.4032,14.19899 -18.1487,22.50029 -21.5336,26.5 -0.9308,1.1 -4.3857,5.375 -7.6773,9.5 -3.2917,4.125 -7.1934,8.82534 -8.6704,10.4452 -5.6549,6.20185 -5.6402,6.62666 0.496,14.31732 3.0509,3.82368 6.1519,7.57884 6.8912,8.34481 0.7394,0.76597 5.7166,6.86212 11.0607,13.547 5.344,6.68488 13.5416,16.75537 18.217,22.37886 4.6754,5.6235 9.5177,11.54015 10.7606,13.14812 1.243,1.60797 3.16,3.96521 4.26,5.23833 1.1,1.27312 5.2422,6.31202 9.2049,11.19756 10.7129,13.20755 41.0598,50.3566 58.2139,71.26209 8.2947,10.10861 15.0812,18.77111 15.0812,19.25 0,0.48615 -31.5317,0.87071 -71.393,0.87071 -61.7011,0 -71.4692,-0.1984 -71.9538,-1.46145 -0.9124,-2.37769 -33.0047,-52.00803 -33.865,-52.37188 -0.4335,-0.18334 -0.7882,-0.75637 -0.7882,-1.27341 0,-0.51704 -2.173,-4.19204 -4.8289,-8.16667 C 1401.6718,267.50381 1394.5509,256.60185 1394,255.5 c -0.275,-0.55 -3.8514,-6.05803 -7.9476,-12.24006 l -7.4476,-11.24006 -3.0008,4.74006 c -1.6505,2.60703 -7.5676,11.71506 -13.1492,20.24006 -14.494,22.13722 -17.8804,27.36808 -18.4509,28.5 -0.2771,0.55 -3.0277,4.825 -6.1124,9.5 -7.5787,11.48589 -19.0774,29.10966 -20.3539,31.1958 -0.5707,0.93269 -3.0626,4.85901 -5.5376,8.72515 l -4.5,7.02934 -71.3489,0.0249 -71.349,0.0249 z M 1604.4444,72.626299 c -5.913,-2.753392 -11.64,-8.998211 -13.2838,-14.484742 -2.0305,-6.776926 -1.4658,-15.136418 1.4125,-20.912491 7.7161,-15.484132 31.6204,-18.881751 44.2173,-6.284799 4.7637,4.763657 6.4509,8.695432 6.995,16.301046 0.8299,11.598876 -4.3235,20.767742 -14.2781,25.403377 -7.0432,3.279833 -17.9923,3.270051 -25.0629,-0.02239 z m 20.097,-5.505963 c 19.3409,-8.785348 12.0228,-38.658703 -9.0423,-36.911821 -9.7449,0.808127 -16.1174,7.225019 -17.2623,17.382735 -1.2274,10.890025 7.9718,21.364826 18.7632,21.364826 1.925,0 5.3186,-0.826083 7.5414,-1.83574 z M 1606,49 V 35 h 8.0497 c 8.3853,0 13.1671,1.516638 14.3291,4.544802 C 1630.2598,44.446505 1627.8526,51 1624.1713,51 c -1.653,0 -1.534,0.380453 1.8287,5.845576 1.65,2.681592 3,5.163352 3,5.515023 0,0.35167 -1.6875,0.637828 -3.75,0.635904 -3.5177,-0.0033 -3.9337,-0.343963 -6.7149,-5.5 C 1614.6671,50.325886 1613,50.326939 1613,57.5 V 63 h -3.5 -3.5 z m 13.4349,-2.975249 C 1624.2049,44.211205 1621.5004,40 1615.5657,40 1613.3001,40 1613,40.409419 1613,43.5 c 0,3.835358 1.4704,4.412262 6.4349,2.524751 z"
         id="path7" />
      <path
         style="fill:#8f8f8f"
         d="m 745,588.34413 c -9.88833,-1.51692 -9,-0.79547 -9,-7.3093 v -5.87454 l 9.63454,0.57481 c 11.412,0.68085 15.02593,-0.67889 18.85055,-7.09252 l 2.37543,-3.98342 -17.43026,-34.77003 C 739.84362,510.76561 732,494.8673 732,494.55955 732,494.2518 735.40025,494 739.5561,494 h 7.5561 l 13.64818,28.0624 13.64818,28.06241 L 788.45428,522.3124 802.5,494.5 h 7.25 c 3.9875,0 7.3625,0.24869 7.5,0.55265 0.1375,0.30396 -9.2,18.966 -20.75,41.47121 -23.24704,45.29691 -25.15771,48.10914 -34.58896,50.90992 -4.94095,1.4673 -11.11414,1.79961 -16.91104,0.91035 z m -73.5,-22.82446 c -0.55,-0.17733 -3.46584,-1.08475 -6.47964,-2.01647 -3.0138,-0.93173 -6.68327,-2.55111 -8.15437,-3.59862 -3.52272,-2.5084 -3.68629,-2.4541 -4.05263,1.34542 l -0.31336,3.25 -6.75,0.29569 -6.75,0.29569 V 514 462.90862 l 6.75,0.29569 6.75,0.29569 0.27144,19.20532 0.27143,19.20531 3.62601,-2.46068 c 8.38245,-5.68848 22.83398,-8.21479 34.87925,-6.09734 10.60896,1.86496 18.85444,6.11913 25.09533,12.94766 6.14503,6.72364 8.3723,13.03573 8.31495,23.56456 -0.12396,22.75848 -15.97011,36.26123 -42.31375,36.05622 C 677.0651,565.87763 672.05,565.69701 671.5,565.51967 Z m 18.70078,-11.64128 c 6.84542,-1.44888 9.90963,-3.06154 14.18833,-7.46718 6.46093,-6.65261 8.38803,-17.88821 4.52998,-26.41121 -2.64567,-5.84465 -6.2373,-9.55873 -12.41909,-12.84248 -4.45037,-2.36402 -6.09925,-2.65606 -15,-2.65675 -11.62711,-9e-4 -16.7882,1.80611 -22.78011,7.97578 -5.17103,5.32445 -7.03947,10.8618 -6.55545,19.42787 0.32749,5.79576 0.91609,7.75271 3.39952,11.30248 6.38318,9.12405 20.86601,13.58616 34.63682,10.67149 z M 889,489.00171 v -77.04149 l 21.1254,0.26989 21.12541,0.26989 26.62459,46.25144 26.6246,46.25143 0.25989,-46.50143 L 985.01978,412 H 1004.5099 1024 v 77.01989 77.01989 L 1002.9202,565.76989 981.84036,565.5 955.17018,518.60524 928.5,471.71048 928,518.60524 927.5,565.5 l -19.25,0.27159 -19.25,0.2716 z m 196.9803,67.26626 c -1.7188,-5.37238 -12.7675,-39.73689 -24.5527,-76.36557 C 1049.6424,443.27372 1040,413.01122 1040,412.6524 1040,412.29358 1049.5725,412 1061.2722,412 h 21.2722 l 13.9208,51.75 c 15.4931,57.59485 16.591,61.52875 17.0437,61.07072 0.1744,-0.1764 6.9042,-24.84572 14.9551,-54.82072 8.0509,-29.975 14.8703,-55.2875 15.1544,-56.25 0.471,-1.59617 2.4004,-1.75 21.949,-1.75 11.7879,0 21.4231,0.1125 21.4116,0.25 -0.012,0.1375 -11.4018,34.675 -25.3117,76.75 l -25.2906,76.5 -23.6356,0.26797 -23.6357,0.26798 z M 1203,489 v -77 h 20.5 20.5 v 77 77 h -20.5 -20.5 z m 73,-0.0679 v -77.06786 l 42.25,0.37357 c 47.4501,0.41955 49.8292,0.72618 65.692,8.46653 10.185,4.96986 22.3349,16.89061 27.3106,26.79563 9.6878,19.28531 11.9917,44.30139 6.1906,67.21984 -3.8128,15.06307 -14.6876,30.60148 -27.2557,38.94391 -6.9875,4.63816 -22.0383,9.85895 -32.5099,11.27697 -4.3226,0.58536 -24.3437,1.05928 -44.75,1.05928 H 1276 Z m 74.7424,40.48606 c 4.2119,-0.87 9.3865,-2.46362 11.4991,-3.54138 5.7136,-2.91488 11.3832,-9.30486 13.9323,-15.70256 1.9884,-4.99041 2.2647,-7.48199 2.2921,-20.67425 0.028,-13.29727 -0.2249,-15.63334 -2.2253,-20.57935 -3.0384,-7.5124 -7.901,-12.93496 -14.9146,-16.63211 C 1353.3136,448.06485 1347.1975,447 1330.9508,447 H 1317 v 42 42 h 13.0422 c 7.9986,0 16.0036,-0.6117 20.7002,-1.58181 z M 1447,489 v -77 h 20.5 20.5 v 77 77 h -20.5 -20.5 z m 58,76.07216 c 0,-0.51031 9.5012,-25.82281 21.1138,-56.25 11.6126,-30.42719 24.6238,-64.54716 28.9137,-75.82216 l 7.7998,-20.5 20.9817,-0.26958 20.9817,-0.26959 1.0011,2.76959 c 0.5505,1.52327 9.099,23.91958 18.9965,49.76958 28.4296,74.25157 38.2117,100.05742 38.2117,100.80505 0,0.38222 -9.5625,0.69187 -21.25,0.6881 l -21.25,-0.007 -4.8471,-13.99316 L 1610.8059,538 h -26.8678 c -24.5733,0 -26.9458,0.14945 -27.7822,1.75 -0.503,0.9625 -2.8293,7.2625 -5.1697,14 l -4.2551,12.25 h -20.8656 C 1513.7037,566 1505,565.61297 1505,565.07216 Z M 1600.7383,506.75 c -0.2616,-0.6875 -4.2147,-12.725 -8.7847,-26.75 -4.5701,-14.025 -8.4854,-24.72138 -8.7009,-23.76974 -0.2155,0.95165 -4.1512,12.98915 -8.7461,26.75 L 1566.1522,508 h 17.5309 c 13.6117,0 17.4245,-0.27945 17.0552,-1.25 z M 679.5,418.9832 c -9.79779,-0.73588 -31.80016,-3.55724 -36.25,-4.64832 C 641.01554,413.78699 641,413.65274 641,394.89159 641,378.59779 641.21048,376 642.53062,376 c 0.84183,0 7.47933,1.0833 14.75,2.40733 42.56354,7.75108 60.82216,1.56188 77.04966,-26.11784 l 4.72456,-8.05881 -55.52742,-109.99679 C 652.98734,173.73566 628,123.72576 628,123.10078 c 0,-0.8245 6.63485,-1.06285 24.17729,-0.86856 l 24.1773,0.26778 30.30234,62.5 c 16.66629,34.375 35.96693,74.17729 42.89032,88.44954 l 12.58797,25.94953 43.50973,-86.44953 c 23.93035,-47.54725 44.1603,-87.46204 44.95544,-88.69954 1.43214,-2.22886 1.66726,-2.25 25.02965,-2.25 22.049,0 23.54041,0.1139 22.91517,1.75 C 896.53366,129.01368 769.81893,373.87129 765.41737,381 747.03995,410.7638 721.33962,422.12566 679.5,418.9832 Z m 320,-69.06494 c -41.05237,-3.86332 -76.92159,-14.89365 -103,-31.67408 -7.73342,-4.97615 -16.5,-11.99604 -16.5,-13.21247 0,-0.82144 32.32218,-22.45064 35.2,-23.55496 1.07557,-0.41274 3.58487,0.77872 7.08375,3.3635 29.6162,21.87876 71.87805,32.28278 118.39895,29.14744 30.9164,-2.08366 47.1451,-6.96542 57.02,-17.15226 5.2798,-5.44663 7.2973,-10.2415 7.2973,-17.34315 0,-12.23397 -9.0276,-20.87689 -26.0975,-24.98532 -3.5214,-0.84754 -26.5669,-3.32739 -51.2122,-5.51078 -52.84987,-4.68211 -60.15814,-5.50355 -72.57255,-8.15704 C 919.07573,233.13541 900,213.61961 900,184.44986 c 0,-35.31955 25.41965,-57.95989 74.60727,-66.44991 23.93309,-4.13097 54.78433,-4.86515 79.89273,-1.90126 36.3933,4.29601 72.2443,18.16994 91.1261,35.26476 l 4.6998,4.25504 -18.48,10.19076 C 1121.6819,171.41416 1113.1156,176 1112.8096,176 c -0.306,0 -3.8945,-2.00639 -7.9744,-4.45864 -15.4551,-9.28929 -36.871,-16.21063 -59.2643,-19.15347 -15.3189,-2.01315 -52.25238,-1.43392 -63.0709,0.98915 -15.52276,3.4767 -27.83557,10.41442 -32.21918,18.15405 -1.53845,2.71629 -2.25311,5.64153 -2.26437,9.26857 -0.0255,8.21771 3.13986,12.79316 11.89104,17.18816 11.65466,5.85318 24.08434,7.71947 86.59251,13.00173 37.4122,3.16153 49.3805,4.757 60.7015,8.09205 19.4009,5.71531 33.9132,18.4786 40.4115,35.54098 5.1701,13.57494 4.2775,35.50346 -1.9896,48.87742 -10.8853,23.22969 -37.4033,38.51209 -78.1234,45.02284 -12.0678,1.92952 -53.3275,2.7762 -68,1.39542 z M 24,183.96381 V 24.927617 l 113.75,0.3519 c 109.57038,0.33897 114.13581,0.426786 124.25,2.389943 23.7384,4.607607 40.8911,12.682555 54.77547,25.786558 17.92579,16.918268 27.59965,38.032003 28.92128,63.122272 2.57094,48.8076 -25.60186,85.55233 -73.19654,95.46754 -16.9777,3.5369 -29.25064,3.95248 -116.75021,3.95333 L 70,216 V 279.5 343 H 47 24 Z m 228.31457,-9.23047 C 279.77493,168.06062 296.27286,147.53508 296.3079,120 296.32921,103.25516 292.00366,91.995407 281.50911,81.477544 271.56189,71.50823 258.8067,66.211323 239.5,64.032219 234.15044,63.428426 197.95026,63.013082 150.25,63.008205 L 70,63 v 57.04099 57.04098 l 87.75,-0.34636 c 77.48023,-0.30583 88.54754,-0.54016 94.56457,-2.00227 z M 365,184 V 25 h 22 22 v 60.530474 60.530476 l 7.25794,-4.89761 c 20.17982,-13.6172 42.5747,-21.37654 69.59801,-24.1142 35.18466,-3.56447 68.29842,2.15557 92.69229,16.01158 9.56859,5.43507 23.80502,18.69126 29.8554,27.79972 4.98135,7.4991 8.82898,16.57022 11.08744,26.13956 2.53318,10.73337 3.59983,43.4166 3.29625,101 l -0.28733,54.5 -21.69976,0.26936 -21.69977,0.26936 -0.36055,-69.76936 c -0.39391,-76.22369 -0.26452,-74.4721 -6.40971,-86.76906 -7.1292,-14.26604 -21.99568,-24.85076 -42.83021,-30.49448 -11.32434,-3.06757 -37.20676,-3.88367 -50.39953,-1.58915 -27.57076,4.79517 -49.74118,17.62304 -64.54226,37.34434 L 408,200.49933 V 271.74966 343 H 386.5 365 Z m 801,157.35781 c 0,-0.54585 8.3672,-10.87599 10.0096,-12.35781 0.3048,-0.275 1.8898,-2.32386 3.5223,-4.55302 1.6324,-2.22916 7.9813,-10.10416 14.1087,-17.5 9.8509,-11.89044 30.3798,-36.85621 33.6699,-40.94698 0.6635,-0.825 3.3674,-4.2 6.0087,-7.5 9.4705,-11.83236 11.2125,-13.92744 13.4308,-16.15235 1.2375,-1.24121 2.25,-2.5218 2.25,-2.84576 0,-0.32396 1.6323,-2.35316 3.6272,-4.50935 1.995,-2.15618 4.5825,-5.23429 5.75,-6.84024 1.8614,-2.56032 12.6962,-16.02883 17.4183,-21.6523 0.9237,-1.1 3.4545,-4.25 5.624,-7 2.1695,-2.75 4.2164,-5.225 4.5486,-5.5 0.3322,-0.275 3.5113,-4.1 7.0646,-8.5 7.4575,-9.23454 8.8219,-10.90539 11.2173,-13.73722 0.9625,-1.13784 1.75,-2.43492 1.75,-2.88241 0,-0.44749 -1.9125,-3.03063 -4.25,-5.74032 -9.7793,-11.3364 -21.9816,-26.14351 -27.2278,-33.04005 -1.0878,-1.43 -2.4378,-3.09901 -3,-3.70892 -2.3391,-2.53756 -9.1239,-10.6638 -19.1123,-22.89108 -5.8409,-7.15 -11.5884,-14.125 -12.7723,-15.5 -1.1839,-1.375 -5.9742,-7.208542 -10.6451,-12.963426 -4.6709,-5.754885 -9.1675,-11.186766 -9.9925,-12.070846 -0.825,-0.884081 -2.85,-3.342636 -4.5,-5.463456 -1.65,-2.12082 -3.45,-4.349808 -4,-4.953306 -1.0729,-1.177232 -9.2258,-11.067344 -11.1691,-13.548966 -0.646,-0.825 -3.6848,-4.504282 -6.7528,-8.176183 -3.0679,-3.6719 -5.5781,-6.937379 -5.5781,-7.256619 0,-0.319239 32.2385,-0.464957 71.6411,-0.323817 62.4602,0.223733 71.7489,0.448845 72.4818,1.756619 10.8144,19.294369 31.0007,54.754232 31.5947,55.5 0.4381,0.55 1.353,2.125 2.0332,3.5 3.3903,6.854048 13.7147,23.98972 14.457,23.99498 0.3894,0.003 1.784,-1.90748 3.0993,-4.24498 1.3153,-2.3375 4.535,-8.075 7.1548,-12.75 2.6198,-4.675 5.6126,-9.9625 6.6507,-11.75 1.0381,-1.7875 2.7191,-4.7125 3.7356,-6.5 1.0164,-1.7875 7.0028,-12.25 13.3029,-23.25 6.3001,-11 12.0481,-21.4625 12.7732,-23.25 l 1.3183,-3.25 h 71.3787 c 39.2583,0 71.3787,0.295024 71.3787,0.655609 0,0.637812 -4.8065,7.34352 -5.981,8.344391 -0.3228,0.275 -2.3716,2.75 -4.5529,5.5 -2.1814,2.75 -4.1921,5.225 -4.4684,5.5 -0.2762,0.275 -3.2012,3.873893 -6.5,7.99754 -3.2987,4.123647 -8.2477,10.207674 -10.9977,13.520059 -2.75,3.312386 -6.35,7.751752 -8,9.865259 -1.65,2.113507 -3.8419,4.80448 -4.8708,5.979941 -1.0289,1.17546 -3.5591,4.387201 -5.6226,7.137201 -2.0635,2.75 -4.8217,6.152117 -6.1292,7.560259 -2.4066,2.591652 -14.031,16.929471 -21.7719,26.853861 -2.3227,2.97776 -6.2223,7.70276 -8.6658,10.5 -2.4436,2.79723 -7.859,9.36088 -12.0342,14.58588 -4.1752,5.225 -9.237,11.48636 -11.2484,13.91413 -7.1446,8.62352 -7.1407,8.61333 -4.4071,11.65766 0.9625,1.07191 3.3873,3.96926 5.3884,6.43857 2.001,2.4693 4.476,5.47708 5.5,6.68395 1.0239,1.20686 5.0116,6.10797 8.8616,10.89134 3.85,4.78338 11.8333,14.59594 17.7407,21.8057 5.9074,7.20976 11.7574,14.37407 13,15.92069 1.2426,1.54663 2.9505,3.57163 3.7954,4.5 0.8448,0.92838 4.2198,5.03237 7.5,9.11997 3.2801,4.08761 6.7368,8.36261 7.6815,9.5 0.9446,1.1374 4.2414,5.21799 7.3263,9.06799 6.0245,7.51885 9.8069,12.14123 18.4561,22.55467 3.025,3.64203 6.9198,8.38215 8.6551,10.5336 1.7354,2.15145 8.2604,10.15938 14.5,17.7954 13.8787,16.98452 18.8449,23.32415 18.8449,24.05663 0,0.30784 -32.1225,0.5597 -71.3834,0.5597 -67.0789,0 -71.4211,-0.10553 -72.0097,-1.75 -0.3444,-0.9625 -2.3094,-4.32463 -4.3666,-7.47141 -2.0572,-3.14677 -7.3118,-11.24677 -11.6769,-18 -8.5613,-13.24499 -20.16,-31.03481 -31.1508,-47.77859 -3.7908,-5.775 -7.1219,-10.95 -7.4025,-11.5 -0.2805,-0.55 -3.8681,-6.06801 -7.9723,-12.26224 l -7.4621,-11.26224 -4.2544,6.76224 c -2.3399,3.71923 -4.7103,7.43724 -5.2674,8.26224 -8.6866,12.86217 -19.8897,30.12133 -24.5605,37.83712 -0.5537,0.91459 -4.1163,6.38788 -7.9169,12.16288 -11.4579,17.41019 -23.0339,35.21621 -26.1435,40.21349 l -2.933,4.71349 -70.75,0.0365 c -38.9125,0.0201 -70.75,-0.25247 -70.75,-0.60568 z M 1605.5,73.132659 c -9.2818,-4.231132 -14.3417,-11.294902 -15.2476,-21.286181 -0.7363,-8.120002 1.1602,-13.976792 6.4202,-19.827272 5.5538,-6.177125 11.34,-8.533059 20.8274,-8.480222 5.1975,0.02895 8.2202,0.629891 11.7387,2.333754 6.0638,2.936436 12.1417,9.842717 13.7652,15.641297 1.7282,6.172279 0.7692,15.358921 -2.1552,20.646091 -2.7667,5.002165 -9.3839,10.338977 -14.624,11.794267 -5.9331,1.647781 -16.2004,1.240684 -20.7247,-0.821734 z m 18.7329,-5.585492 c 7.6245,-3.185714 12.4636,-12.018739 11.4185,-20.842695 C 1634.4627,36.667498 1627.0181,30 1617,30 c -8.4696,0 -14.9143,4.290253 -17.5512,11.683804 -5.925,16.613147 9.185,32.381091 24.7841,25.863363 z M 1606,49 V 35 h 7.3508 c 11.8746,0 15.6492,2.154965 15.6492,8.934259 0,2.97112 -2.3653,6.354174 -5.0738,7.257015 -0.9654,0.321805 -0.4578,1.848762 1.875,5.640023 1.7593,2.859312 3.1988,5.416988 3.1988,5.683726 0,0.266737 -1.6875,0.483404 -3.75,0.48148 -3.5177,-0.0033 -3.9337,-0.343963 -6.7149,-5.5 C 1614.6671,50.325886 1613,50.326939 1613,57.5 V 63 h -3.5 -3.5 z m 13.75,-2.630286 c 1.4978,-0.401396 2.25,-1.363993 2.25,-2.879357 C 1622,40.97007 1620.3097,40 1615.9182,40 1613.2498,40 1613,40.299576 1613,43.5 c 0,2.967009 0.3426,3.497921 2.25,3.486345 1.2375,-0.0075 3.2625,-0.284994 4.5,-0.616631 z"
         id="path6" />
      <path
         style="fill:#84bf20"
         d="m 747.5,588.36151 c -1.65,-0.20739 -4.9125,-0.62615 -7.25,-0.93057 L 736,586.87745 v -5.97317 -5.97317 l 5.25,0.78445 c 12.56506,1.87744 18.44683,0.21541 23.1244,-6.53432 l 2.74285,-3.95793 -17.5614,-35.11165 L 731.99444,495 h 7.7832 7.78321 l 12.8854,26.75 c 7.08697,14.7125 13.15967,27.07639 13.49488,27.4753 0.33521,0.39892 6.89809,-11.62812 14.58417,-26.72675 L 802.5,495.0465 l 7.25,-0.0232 c 3.9875,-0.0128 7.25,0.28603 7.25,0.66404 0,1.51054 -40.45501,79.11419 -43.41116,83.27434 -5.02858,7.07665 -15.25579,10.76154 -26.08884,9.39988 z m -79.49304,-23.96902 c -3.02116,-0.81174 -7.85866,-2.81098 -10.75,-4.44274 L 652,556.9829 V 560.49145 564 h -6.5 -6.5 v -50 -50 h 6.5 6.5 v 19 c 0,10.45 0.1951,19 0.43355,19 0.23846,0 2.60096,-1.33552 5.25,-2.96781 C 664.20896,495.01134 672.6907,493 683.121,493 707.89142,493 725,507.64804 725,528.85601 c 0,23.21981 -16.09722,37.27062 -42.47836,37.07818 -4.9619,-0.0362 -11.49351,-0.72996 -14.51468,-1.5417 z m 24.64789,-10.88263 c 14.21772,-4.22221 21.25712,-17.28994 17.24327,-32.00986 -1.49011,-5.46465 -9.96193,-13.65227 -16.39377,-15.84382 -10.51649,-3.58333 -24.55731,-1.53125 -32.86161,4.80275 -7.80386,5.95229 -11.08106,19.44249 -7.12129,29.31391 4.67831,11.6627 23.66969,18.32925 39.1334,13.73702 z M 889,488.98011 v -77.01989 l 21.06404,0.26989 21.06403,0.26989 26.41122,45.92526 c 14.52618,25.25889 26.87236,46.38639 27.43597,46.95 C 985.67491,506.07491 986,491.42638 986,459.2 V 412 h 19 19 v 77 77 h -20.8856 -20.88557 L 955.36441,518.53856 C 940.58899,492.43477 928.1625,471.05977 927.75,471.03856 927.3375,471.01735 927,492.375 927,518.5 V 566 h -19 -19 z m 199.1277,73.78779 c -0.5715,-1.79734 -11.6341,-36.23584 -24.5834,-76.52998 -12.9494,-40.29414 -23.5443,-73.48164 -23.5443,-73.75 0,-0.26836 9.5625,-0.48515 21.25,-0.48177 l 21.25,0.006 14.9077,55.74386 c 8.1993,30.65912 15.1869,56.29691 15.5281,56.97287 0.3411,0.67596 7.486,-24.27737 15.8774,-55.45185 8.3914,-31.17448 15.4005,-56.82418 15.5756,-56.99934 0.1752,-0.17515 9.7791,-0.19682 21.3421,-0.0481 l 21.0235,0.27031 -25.2401,76.5 -25.2402,76.5 -23.5536,0.2679 -23.5536,0.2679 z M 1203,489.02071 V 412 h 20.5062 20.5062 l -0.2562,76.75 -0.2562,76.75 -20.25,0.27071 -20.25,0.2707 z m 73.6667,76.31262 C 1276.3,564.96667 1276,530.28208 1276,488.25647 v -76.41019 l 41.75,0.41227 c 38.7946,0.38308 42.3375,0.56526 50.0493,2.57352 25.1386,6.54637 42.1423,22.83737 49.2485,47.18426 3.3049,11.32341 3.855,35.00962 1.1205,48.25455 -4.446,21.53511 -16.482,37.93751 -34.1683,46.56357 -9.9756,4.86536 -17.1544,6.8537 -29.5,8.17076 -10.1246,1.08011 -76.8003,1.3612 -77.8333,0.32812 z M 1355.5,528.66527 c 10.811,-3.44924 18.8014,-11.10191 21.5413,-20.63075 2.2403,-7.79169 3.107,-19.73327 2.0065,-27.64588 -1.9416,-13.95982 -8.1616,-23.67156 -18.3582,-28.66438 -8.0089,-3.92154 -12.6348,-4.67279 -28.9396,-4.69981 L 1317,447 v 42.11539 42.1154 l 16.75,-0.48514 c 11.3801,-0.32961 18.353,-0.99656 21.75,-2.08038 z M 1447,489 v -77 h 20.5 20.5 v 77 77 h -20.5 -20.5 z m 58,76.15846 c 0,-0.66567 36.9094,-97.86969 54.6435,-143.90846 l 3.5631,-9.25 h 20.7449 20.7449 l 29.1518,76.3925 c 16.0335,42.01588 29.1518,76.67483 29.1518,77.01989 0,0.34506 -9.5593,0.50594 -21.243,0.3575 L 1620.514,565.5 1618.2487,559 c -1.2459,-3.575 -3.4322,-9.7625 -4.8585,-13.75 l -2.5931,-7.25 h -27.1769 -27.1768 l -3.3967,9.75 c -1.8682,5.3625 -4.2019,11.6625 -5.1861,14 l -1.7895,4.25 h -20.5356 C 1514.241,566 1505,565.62131 1505,565.15846 Z M 1600.7521,506.75 c -0.254,-0.6875 -3.9249,-12.05 -8.1575,-25.25 -4.2325,-13.2 -7.9462,-24.675 -8.2525,-25.5 -0.674,-1.81498 -1.1345,-0.56429 -10.77,29.25 l -7.3524,22.75 h 17.4971 c 13.5774,0 17.3937,-0.28003 17.0353,-1.25 z M 665.75124,417.48211 c -5.91182,-0.71554 -13.89932,-1.8324 -17.75,-2.4819 L 641,413.8193 V 394.90965 C 641,382.59539 641.35946,376 642.03062,376 c 0.56683,0 7.20433,1.14112 14.75,2.53583 26.22371,4.84707 41.63254,4.24073 54.68815,-2.15198 7.26803,-3.5588 17.62574,-14.47052 23.35876,-24.60814 l 4.32754,-7.65232 -55.57754,-110.05962 C 653.00989,173.53098 628,123.77822 628,123.50208 c 0,-0.27615 10.9125,-0.50005 24.25,-0.49757 l 24.25,0.005 42.44701,87.55823 c 23.34586,48.15703 42.69728,87.71291 43.00316,87.90195 0.30588,0.18905 20.49991,-39.21418 44.87562,-87.56274 L 851.14526,123 h 23.97793 23.97792 l -9.97321,19.25 c -5.48526,10.5875 -34.89573,67.625 -65.35659,126.75 -30.46087,59.125 -57.55576,110.79198 -60.21088,114.81552 -12.87475,19.51023 -27.50013,29.44023 -49.51055,33.61553 -10.03212,1.90306 -32.79857,1.92713 -48.29864,0.0511 z M 1009,350.30674 c -36.36836,-2.13775 -70.96692,-10.57225 -97.5,-23.76871 -12.754,-6.34331 -31,-18.8533 -31,-21.25449 0,-1.01793 31.68238,-22.63964 35.11325,-23.96312 0.61229,-0.2362 4.46757,1.97716 8.56729,4.91857 24.21505,17.37351 54.09837,26.50021 92.81946,28.34811 23.3261,1.1132 52.1633,-2.45826 66.6386,-8.25312 6.8684,-2.74962 16.3432,-10.46428 18.8825,-15.3747 2.5851,-4.99912 3.4365,-11.05014 2.3113,-16.4273 -0.853,-4.07668 -2.0466,-6.00399 -6.2872,-10.15196 -9.6292,-9.41897 -16.8247,-11.0526 -67.5603,-15.33863 -63.57054,-5.37029 -72.78673,-6.62405 -89.46403,-12.17054 -11.46884,-3.81428 -18.17622,-7.68144 -25.97268,-14.97466 -13.16966,-12.31956 -18.34561,-31.03473 -14.10984,-51.01819 7.1143,-33.56368 42.18498,-52.51278 103.34375,-55.83785 52.7109,-2.86577 98.6988,7.27501 130.8876,28.862 4.8566,3.25707 10.0708,7.22677 11.5869,8.82154 l 2.7567,2.89958 -18.4319,10.22435 -18.4318,10.22434 -8.7989,-5.04517 c -15.7138,-9.01017 -35.7695,-15.5627 -56.8796,-18.58355 -14.817,-2.1203 -46.6198,-2.12031 -59.78417,-1e-5 -27.02575,4.35287 -43.06894,17.2714 -39.71436,31.97938 2.56726,11.256 14.33529,17.43063 40.08704,21.0335 9.66786,1.3526 30.08059,3.30414 73.94039,7.069 31.6185,2.71409 45.0075,5.44282 57.5,11.71872 22.0032,11.05386 32.6876,30.48086 31.2375,56.79785 -1.6738,30.37501 -21.7533,51.29523 -59.7934,62.29666 -21.1148,6.10655 -51.9691,8.73035 -81.9441,6.9684 z M 24,183.97496 V 24.912374 l 113.25,0.36709 c 110.57678,0.358425 113.50965,0.417272 124.25,2.493013 26.30237,5.083346 44.6132,14.187503 59.05733,29.363339 11.08651,11.648121 18.35529,24.985164 22.54376,41.364184 3.0525,11.9368 3.30324,33.0068 0.53551,45 -8.78217,38.05516 -33.9583,61.54563 -73.92679,68.97704 -15.99035,2.97312 -33.12839,3.49148 -115.95235,3.50713 L 70.014915,216 69.757457,279.25 69.5,342.5 46.75,342.76877 24,343.03755 Z m 230.31395,-9.71941 C 279.65502,167.09996 294.733,149.1359 296.58017,123.89914 298.51268,97.49643 284.57334,76.683001 259.02248,67.820127 246.01741,63.309034 239.40189,63.012139 151.75,63.005895 L 69,63 v 57.0358 57.03581 l 88.75,-0.30482 c 88.02951,-0.30234 88.81344,-0.32272 96.56395,-2.51124 z M 365.66667,342.33333 C 365.3,341.96667 365,270.41667 365,183.33333 V 25 h 21.99225 21.99226 l 0.25774,60.47334 0.25775,60.47334 6.3751,-4.43671 c 14.22279,-9.89827 33.07596,-17.84137 50.93649,-21.46026 35.57568,-7.20832 76.19897,-3.88393 102.81603,8.4139 20.71615,9.57145 38.23973,27.25366 45.96608,46.38217 5.75698,14.25284 5.70288,13.42306 6.12384,93.92426 l 0.38838,74.27004 -21.30296,-0.27004 L 579.5,342.5 l -0.50746,-70 -0.50747,-70 -2.6344,-7.74394 c -5.13515,-15.09499 -13.8222,-24.66441 -29.35067,-32.33192 -32.64381,-16.11856 -79.48301,-12.4565 -110.61883,8.6486 -7.85156,5.3221 -19.16226,16.63059 -24.15071,24.14602 L 408,200.83894 V 271.91947 343 h -20.83333 c -11.45834,0 -21.13334,-0.3 -21.5,-0.66667 z M 1166,341.35781 c 0,-0.54585 8.3672,-10.87599 10.0096,-12.35781 0.3048,-0.275 1.8898,-2.32386 3.5223,-4.55302 1.6324,-2.22916 7.9813,-10.10416 14.1087,-17.5 9.8509,-11.89044 30.3798,-36.85621 33.6699,-40.94698 0.6635,-0.825 3.3674,-4.2 6.0087,-7.5 9.4705,-11.83236 11.2125,-13.92744 13.4308,-16.15235 1.2375,-1.24121 2.25,-2.5218 2.25,-2.84576 0,-0.32396 1.6323,-2.35316 3.6272,-4.50935 1.995,-2.15618 4.5825,-5.23429 5.75,-6.84024 1.8614,-2.56032 12.6962,-16.02883 17.4183,-21.6523 0.9237,-1.1 3.4545,-4.25 5.624,-7 2.1695,-2.75 4.2164,-5.225 4.5486,-5.5 0.3322,-0.275 3.5113,-4.1 7.0646,-8.5 7.4575,-9.23454 8.8219,-10.90539 11.2173,-13.73722 0.9625,-1.13784 1.75,-2.43492 1.75,-2.88241 0,-0.44749 -1.9125,-3.03063 -4.25,-5.74032 -9.7793,-11.3364 -21.9816,-26.14351 -27.2278,-33.04005 -1.0878,-1.43 -2.4378,-3.09901 -3,-3.70892 -2.3391,-2.53756 -9.1239,-10.6638 -19.1123,-22.89108 -5.8409,-7.15 -11.5884,-14.125 -12.7723,-15.5 -1.1839,-1.375 -5.9742,-7.208542 -10.6451,-12.963426 -4.6709,-5.754885 -9.1675,-11.186766 -9.9925,-12.070846 -0.825,-0.884081 -2.85,-3.342636 -4.5,-5.463456 -1.65,-2.12082 -3.45,-4.349808 -4,-4.953306 -1.0729,-1.177232 -9.2258,-11.067344 -11.1691,-13.548966 -0.646,-0.825 -3.6848,-4.504282 -6.7528,-8.176183 -3.0679,-3.6719 -5.5781,-6.937379 -5.5781,-7.256619 0,-0.319239 32.2385,-0.464957 71.6411,-0.323817 62.4602,0.223733 71.7489,0.448845 72.4818,1.756619 10.8144,19.294369 31.0007,54.754232 31.5947,55.5 0.4381,0.55 1.353,2.125 2.0332,3.5 3.3903,6.854048 13.7147,23.98972 14.457,23.99498 0.3894,0.003 1.784,-1.90748 3.0993,-4.24498 1.3153,-2.3375 4.535,-8.075 7.1548,-12.75 2.6198,-4.675 5.6126,-9.9625 6.6507,-11.75 1.0381,-1.7875 2.7191,-4.7125 3.7356,-6.5 1.0164,-1.7875 7.0028,-12.25 13.3029,-23.25 6.3001,-11 12.0481,-21.4625 12.7732,-23.25 l 1.3183,-3.25 h 71.3787 c 39.2583,0 71.3787,0.295024 71.3787,0.655609 0,0.637812 -4.8065,7.34352 -5.981,8.344391 -0.3228,0.275 -2.3716,2.75 -4.5529,5.5 -2.1814,2.75 -4.1921,5.225 -4.4684,5.5 -0.2762,0.275 -3.2012,3.873893 -6.5,7.99754 -3.2987,4.123647 -8.2477,10.207674 -10.9977,13.520059 -2.75,3.312386 -6.35,7.751752 -8,9.865259 -1.65,2.113507 -3.8419,4.80448 -4.8708,5.979941 -1.0289,1.17546 -3.5591,4.387201 -5.6226,7.137201 -2.0635,2.75 -4.8217,6.152117 -6.1292,7.560259 -2.4066,2.591652 -14.031,16.929471 -21.7719,26.853861 -2.3227,2.97776 -6.2223,7.70276 -8.6658,10.5 -2.4436,2.79723 -7.859,9.36088 -12.0342,14.58588 -4.1752,5.225 -9.237,11.48636 -11.2484,13.91413 -7.1446,8.62352 -7.1407,8.61333 -4.4071,11.65766 0.9625,1.07191 3.3873,3.96926 5.3884,6.43857 2.001,2.4693 4.476,5.47708 5.5,6.68395 1.0239,1.20686 5.0116,6.10797 8.8616,10.89134 3.85,4.78338 11.8333,14.59594 17.7407,21.8057 5.9074,7.20976 11.7574,14.37407 13,15.92069 1.2426,1.54663 2.9505,3.57163 3.7954,4.5 0.8448,0.92838 4.2198,5.03237 7.5,9.11997 3.2801,4.08761 6.7368,8.36261 7.6815,9.5 0.9446,1.1374 4.2414,5.21799 7.3263,9.06799 6.0245,7.51885 9.8069,12.14123 18.4561,22.55467 3.025,3.64203 6.9198,8.38215 8.6551,10.5336 1.7354,2.15145 8.2604,10.15938 14.5,17.7954 13.8787,16.98452 18.8449,23.32415 18.8449,24.05663 0,0.30784 -32.1225,0.5597 -71.3834,0.5597 -67.0789,0 -71.4211,-0.10553 -72.0097,-1.75 -0.3444,-0.9625 -2.3094,-4.32463 -4.3666,-7.47141 -2.0572,-3.14677 -7.3118,-11.24677 -11.6769,-18 -8.5613,-13.24499 -20.16,-31.03481 -31.1508,-47.77859 -3.7908,-5.775 -7.1219,-10.95 -7.4025,-11.5 -0.2805,-0.55 -3.8681,-6.06801 -7.9723,-12.26224 l -7.4621,-11.26224 -4.2544,6.76224 c -2.3399,3.71923 -4.7103,7.43724 -5.2674,8.26224 -8.6866,12.86217 -19.8897,30.12133 -24.5605,37.83712 -0.5537,0.91459 -4.1163,6.38788 -7.9169,12.16288 -11.4579,17.41019 -23.0339,35.21621 -26.1435,40.21349 l -2.933,4.71349 -70.75,0.0365 c -38.9125,0.0201 -70.75,-0.25247 -70.75,-0.60568 z M 1606.5907,73.426745 c -5.695,-2.086613 -10.1685,-5.852151 -13.3184,-11.210631 -2.4119,-4.102962 -2.77,-5.756211 -2.755,-12.716114 0.021,-9.46257 2.0991,-14.303866 8.4901,-19.774313 9.8709,-8.449157 27.8409,-7.930322 37.3342,1.077927 9.8604,9.356615 9.9998,26.907616 0.2907,36.616685 -2.5584,2.558403 -6.2138,4.930575 -9.1279,5.923514 -5.8709,2.000403 -15.5753,2.038885 -20.9137,0.08293 z m 17.6914,-5.807503 c 4.1655,-1.787379 9.1453,-7.206928 10.5838,-11.518465 3.8331,-11.488948 -2.1876,-23.006625 -13.6159,-26.047143 -8.3587,-2.223851 -17.8447,2.515247 -21.4787,10.730505 -2.7389,6.191619 -2.1294,14.565248 1.4542,19.980491 4.694,7.093091 15.2129,10.220288 23.0566,6.854612 z M 1606.2218,49.25 1606.5,35.5 l 5,-0.320471 c 11.8742,-0.761068 17.5,1.913743 17.5,8.320471 0,3.705836 -2.7979,7.5 -5.5307,7.5 -1.1328,0 -0.6128,1.435069 2,5.519417 1.9419,3.03568 3.5307,5.762844 3.5307,6.060366 0,0.297521 -1.6613,0.401283 -3.6918,0.230582 -3.3248,-0.279503 -4.0253,-0.882135 -7.0445,-6.060365 C 1616.4197,53.5875 1614.481,51 1613.9555,51 1613.43,51 1613,53.7 1613,57 v 6 h -3.5282 -3.5282 z m 14.1964,-2.856989 C 1621.2882,46.059167 1622,44.757312 1622,43.5 c 0,-2.529488 -1.6864,-3.5 -6.0818,-3.5 -2.6684,0 -2.9182,0.299576 -2.9182,3.5 0,3.200424 0.2498,3.5 2.9182,3.5 1.605,0 3.63,-0.273145 4.5,-0.606989 z"
         id="path5" />
      <path
         style="fill:#6d6d6d"
         d="m 747.5,588.36151 c -1.65,-0.20739 -4.9125,-0.62615 -7.25,-0.93057 L 736,586.87745 v -5.97317 -5.97317 l 5.25,0.78445 c 12.56506,1.87744 18.44683,0.21541 23.1244,-6.53432 l 2.74285,-3.95793 -17.5614,-35.11165 L 731.99444,495 h 7.7832 7.78321 l 12.8854,26.75 c 7.08697,14.7125 13.15967,27.07639 13.49488,27.4753 0.33521,0.39892 6.89809,-11.62812 14.58417,-26.72675 L 802.5,495.0465 l 7.25,-0.0232 c 3.9875,-0.0128 7.25,0.28603 7.25,0.66404 0,1.51054 -40.45501,79.11419 -43.41116,83.27434 -5.02858,7.07665 -15.25579,10.76154 -26.08884,9.39988 z m -79.49304,-23.96902 c -3.02116,-0.81174 -7.85866,-2.81098 -10.75,-4.44274 L 652,556.9829 V 560.49145 564 h -6.5 -6.5 v -50 -50 h 6.5 6.5 v 19 c 0,10.45 0.1951,19 0.43355,19 0.23846,0 2.60096,-1.33552 5.25,-2.96781 C 664.20896,495.01134 672.6907,493 683.121,493 707.89142,493 725,507.64804 725,528.85601 c 0,23.21981 -16.09722,37.27062 -42.47836,37.07818 -4.9619,-0.0362 -11.49351,-0.72996 -14.51468,-1.5417 z m 24.64789,-10.88263 c 14.21772,-4.22221 21.25712,-17.28994 17.24327,-32.00986 -1.49011,-5.46465 -9.96193,-13.65227 -16.39377,-15.84382 -10.51649,-3.58333 -24.55731,-1.53125 -32.86161,4.80275 -7.80386,5.95229 -11.08106,19.44249 -7.12129,29.31391 4.67831,11.6627 23.66969,18.32925 39.1334,13.73702 z M 889,488.98011 v -77.01989 l 21.06404,0.26989 21.06403,0.26989 26.41122,45.92526 c 14.52618,25.25889 26.87236,46.38639 27.43597,46.95 C 985.67491,506.07491 986,491.42638 986,459.2 V 412 h 19 19 v 77 77 h -20.8856 -20.88557 L 955.36441,518.53856 C 940.58899,492.43477 928.1625,471.05977 927.75,471.03856 927.3375,471.01735 927,492.375 927,518.5 V 566 h -19 -19 z m 199.1277,73.78779 c -0.5715,-1.79734 -11.6341,-36.23584 -24.5834,-76.52998 -12.9494,-40.29414 -23.5443,-73.48164 -23.5443,-73.75 0,-0.26836 9.5625,-0.48515 21.25,-0.48177 l 21.25,0.006 14.9077,55.74386 c 8.1993,30.65912 15.1869,56.29691 15.5281,56.97287 0.3411,0.67596 7.486,-24.27737 15.8774,-55.45185 8.3914,-31.17448 15.4005,-56.82418 15.5756,-56.99934 0.1752,-0.17515 9.7791,-0.19682 21.3421,-0.0481 l 21.0235,0.27031 -25.2401,76.5 -25.2402,76.5 -23.5536,0.2679 -23.5536,0.2679 z M 1203,489.02071 V 412 h 20.5062 20.5062 l -0.2562,76.75 -0.2562,76.75 -20.25,0.27071 -20.25,0.2707 z m 73.6667,76.31262 C 1276.3,564.96667 1276,530.28208 1276,488.25647 v -76.41019 l 41.75,0.41227 c 38.7946,0.38308 42.3375,0.56526 50.0493,2.57352 25.1386,6.54637 42.1423,22.83737 49.2485,47.18426 3.3049,11.32341 3.855,35.00962 1.1205,48.25455 -4.446,21.53511 -16.482,37.93751 -34.1683,46.56357 -9.9756,4.86536 -17.1544,6.8537 -29.5,8.17076 -10.1246,1.08011 -76.8003,1.3612 -77.8333,0.32812 z M 1355.5,528.66527 c 10.811,-3.44924 18.8014,-11.10191 21.5413,-20.63075 2.2403,-7.79169 3.107,-19.73327 2.0065,-27.64588 -1.9416,-13.95982 -8.1616,-23.67156 -18.3582,-28.66438 -8.0089,-3.92154 -12.6348,-4.67279 -28.9396,-4.69981 L 1317,447 v 42.11539 42.1154 l 16.75,-0.48514 c 11.3801,-0.32961 18.353,-0.99656 21.75,-2.08038 z M 1447,489 v -77 h 20.5 20.5 v 77 77 h -20.5 -20.5 z m 58,76.15846 c 0,-0.66567 36.9094,-97.86969 54.6435,-143.90846 l 3.5631,-9.25 h 20.7449 20.7449 l 29.1518,76.3925 c 16.0335,42.01588 29.1518,76.67483 29.1518,77.01989 0,0.34506 -9.5593,0.50594 -21.243,0.3575 L 1620.514,565.5 1618.2487,559 c -1.2459,-3.575 -3.4322,-9.7625 -4.8585,-13.75 l -2.5931,-7.25 h -27.1769 -27.1768 l -3.3967,9.75 c -1.8682,5.3625 -4.2019,11.6625 -5.1861,14 l -1.7895,4.25 h -20.5356 C 1514.241,566 1505,565.62131 1505,565.15846 Z M 1600.7521,506.75 c -0.254,-0.6875 -3.9249,-12.05 -8.1575,-25.25 -4.2325,-13.2 -7.9462,-24.675 -8.2525,-25.5 -0.674,-1.81498 -1.1345,-0.56429 -10.77,29.25 l -7.3524,22.75 h 17.4971 c 13.5774,0 17.3937,-0.28003 17.0353,-1.25 z M 665.75124,417.48211 c -5.91182,-0.71554 -13.89932,-1.8324 -17.75,-2.4819 L 641,413.8193 V 394.90965 C 641,382.59539 641.35946,376 642.03062,376 c 0.56683,0 7.20433,1.14112 14.75,2.53583 26.22371,4.84707 41.63254,4.24073 54.68815,-2.15198 7.26803,-3.5588 17.62574,-14.47052 23.35876,-24.60814 l 4.32754,-7.65232 -55.57754,-110.05962 C 653.00989,173.53098 628,123.77822 628,123.50208 c 0,-0.27615 10.9125,-0.50005 24.25,-0.49757 l 24.25,0.005 42.44701,87.55823 c 23.34586,48.15703 42.69728,87.71291 43.00316,87.90195 0.30588,0.18905 20.49991,-39.21418 44.87562,-87.56274 L 851.14526,123 h 23.97793 23.97792 l -9.97321,19.25 c -5.48526,10.5875 -34.89573,67.625 -65.35659,126.75 -30.46087,59.125 -57.55576,110.79198 -60.21088,114.81552 -12.87475,19.51023 -27.50013,29.44023 -49.51055,33.61553 -10.03212,1.90306 -32.79857,1.92713 -48.29864,0.0511 z M 1009,350.30674 c -36.36836,-2.13775 -70.96692,-10.57225 -97.5,-23.76871 -12.754,-6.34331 -31,-18.8533 -31,-21.25449 0,-1.01793 31.68238,-22.63964 35.11325,-23.96312 0.61229,-0.2362 4.46757,1.97716 8.56729,4.91857 24.21505,17.37351 54.09837,26.50021 92.81946,28.34811 23.3261,1.1132 52.1633,-2.45826 66.6386,-8.25312 6.8684,-2.74962 16.3432,-10.46428 18.8825,-15.3747 2.5851,-4.99912 3.4365,-11.05014 2.3113,-16.4273 -0.853,-4.07668 -2.0466,-6.00399 -6.2872,-10.15196 -9.6292,-9.41897 -16.8247,-11.0526 -67.5603,-15.33863 -63.57054,-5.37029 -72.78673,-6.62405 -89.46403,-12.17054 -11.46884,-3.81428 -18.17622,-7.68144 -25.97268,-14.97466 -13.16966,-12.31956 -18.34561,-31.03473 -14.10984,-51.01819 7.1143,-33.56368 42.18498,-52.51278 103.34375,-55.83785 52.7109,-2.86577 98.6988,7.27501 130.8876,28.862 4.8566,3.25707 10.0708,7.22677 11.5869,8.82154 l 2.7567,2.89958 -18.4319,10.22435 -18.4318,10.22434 -8.7989,-5.04517 c -15.7138,-9.01017 -35.7695,-15.5627 -56.8796,-18.58355 -14.817,-2.1203 -46.6198,-2.12031 -59.78417,-1e-5 -27.02575,4.35287 -43.06894,17.2714 -39.71436,31.97938 2.56726,11.256 14.33529,17.43063 40.08704,21.0335 9.66786,1.3526 30.08059,3.30414 73.94039,7.069 31.6185,2.71409 45.0075,5.44282 57.5,11.71872 22.0032,11.05386 32.6876,30.48086 31.2375,56.79785 -1.6738,30.37501 -21.7533,51.29523 -59.7934,62.29666 -21.1148,6.10655 -51.9691,8.73035 -81.9441,6.9684 z M 24,183.97496 V 24.912374 l 113.25,0.36709 c 110.57678,0.358425 113.50965,0.417272 124.25,2.493013 26.30237,5.083346 44.6132,14.187503 59.05733,29.363339 11.08651,11.648121 18.35529,24.985164 22.54376,41.364184 3.0525,11.9368 3.30324,33.0068 0.53551,45 -8.78217,38.05516 -33.9583,61.54563 -73.92679,68.97704 -15.99035,2.97312 -33.12839,3.49148 -115.95235,3.50713 L 70.014915,216 69.757457,279.25 69.5,342.5 46.75,342.76877 24,343.03755 Z m 230.31395,-9.71941 C 279.65502,167.09996 294.733,149.1359 296.58017,123.89914 298.51268,97.49643 284.57334,76.683001 259.02248,67.820127 246.01741,63.309034 239.40189,63.012139 151.75,63.005895 L 69,63 v 57.0358 57.03581 l 88.75,-0.30482 c 88.02951,-0.30234 88.81344,-0.32272 96.56395,-2.51124 z M 365.66667,342.33333 C 365.3,341.96667 365,270.41667 365,183.33333 V 25 h 21.99225 21.99226 l 0.25774,60.47334 0.25775,60.47334 6.3751,-4.43671 c 14.22279,-9.89827 33.07596,-17.84137 50.93649,-21.46026 35.57568,-7.20832 76.19897,-3.88393 102.81603,8.4139 20.71615,9.57145 38.23973,27.25366 45.96608,46.38217 5.75698,14.25284 5.70288,13.42306 6.12384,93.92426 l 0.38838,74.27004 -21.30296,-0.27004 L 579.5,342.5 l -0.50746,-70 -0.50747,-70 -2.6344,-7.74394 c -5.13515,-15.09499 -13.8222,-24.66441 -29.35067,-32.33192 -32.64381,-16.11856 -79.48301,-12.4565 -110.61883,8.6486 -7.85156,5.3221 -19.16226,16.63059 -24.15071,24.14602 L 408,200.83894 V 271.91947 343 h -20.83333 c -11.45834,0 -21.13334,-0.3 -21.5,-0.66667 z M 1606.5907,73.426745 c -5.695,-2.086613 -10.1685,-5.852151 -13.3184,-11.210631 -2.4119,-4.102962 -2.77,-5.756211 -2.755,-12.716114 0.021,-9.46257 2.0991,-14.303866 8.4901,-19.774313 9.8709,-8.449157 27.8409,-7.930322 37.3342,1.077927 9.8604,9.356615 9.9998,26.907616 0.2907,36.616685 -2.5584,2.558403 -6.2138,4.930575 -9.1279,5.923514 -5.8709,2.000403 -15.5753,2.038885 -20.9137,0.08293 z m 17.6914,-5.807503 c 4.1655,-1.787379 9.1453,-7.206928 10.5838,-11.518465 3.8331,-11.488948 -2.1876,-23.006625 -13.6159,-26.047143 -8.3587,-2.223851 -17.8447,2.515247 -21.4787,10.730505 -2.7389,6.191619 -2.1294,14.565248 1.4542,19.980491 4.694,7.093091 15.2129,10.220288 23.0566,6.854612 z M 1606.2218,49.25 1606.5,35.5 l 5,-0.320471 c 11.8742,-0.761068 17.5,1.913743 17.5,8.320471 0,3.705836 -2.7979,7.5 -5.5307,7.5 -1.1328,0 -0.6128,1.435069 2,5.519417 1.9419,3.03568 3.5307,5.762844 3.5307,6.060366 0,0.297521 -1.6613,0.401283 -3.6918,0.230582 -3.3248,-0.279503 -4.0253,-0.882135 -7.0445,-6.060365 C 1616.4197,53.5875 1614.481,51 1613.9555,51 1613.43,51 1613,53.7 1613,57 v 6 h -3.5282 -3.5282 z m 14.1964,-2.856989 C 1621.2882,46.059167 1622,44.757312 1622,43.5 c 0,-2.529488 -1.6864,-3.5 -6.0818,-3.5 -2.6684,0 -2.9182,0.299576 -2.9182,3.5 0,3.200424 0.2498,3.5 2.9182,3.5 1.605,0 3.63,-0.273145 4.5,-0.606989 z"
         id="path4" />
      <path
         style="fill:#505050"
         d="m 749,588.44515 c -0.825,-0.17714 -4.0875,-0.60715 -7.25,-0.95557 L 736,586.85609 V 580.80304 574.75 l 3.19722,0.63944 c 13.66566,2.73314 20.50525,1.03949 25.34672,-6.27647 l 2.68929,-4.06379 L 749.56917,530.02459 731.90511,495 l 7.79745,10e-4 7.79744,0.001 13,27.08856 c 7.15,14.89871 13.32818,27.29389 13.72928,27.54485 0.4011,0.25096 6.9223,-11.9395 14.49154,-27.08992 L 802.48309,495 h 7.25845 c 3.99216,0 7.25846,0.27095 7.25846,0.60211 0,1.39746 -40.58326,79.27142 -43.33926,83.16237 -1.96327,2.77176 -4.79527,5.10257 -8.09066,6.6588 -4.72549,2.2316 -13.12041,3.76258 -16.57008,3.02187 z m -80.74933,-23.99029 c -5.72655,-1.54203 -12.74831,-4.83301 -13.74184,-6.44057 C 653.21358,555.91853 652,557.12093 652,560.5 v 3.5 h -6.5 -6.5 v -50 -50 h 6.5 6.5 v 19 c 0,10.45 0.23465,19 0.52144,19 0.28679,0 2.19929,-1.08868 4.25,-2.41929 12.41609,-8.05621 35.16722,-8.75427 49.35847,-1.51443 6.24339,3.18514 12.53764,9.55709 15.59962,15.79221 2.46879,5.02721 2.76968,6.73041 2.76319,15.64151 -0.006,8.27785 -0.403,10.8769 -2.30512,15.09189 -2.62737,5.82207 -9.8236,13.29167 -15.6876,16.28352 -9.75523,4.97719 -27.04861,6.59554 -38.24933,3.57945 z m 24.40418,-10.945 c 11.63782,-3.45606 18.33734,-12.23949 18.31342,-24.00986 -0.0145,-7.12128 -2.25283,-12.61271 -7.06724,-17.33825 -5.69009,-5.58506 -10.40895,-7.46991 -19.90103,-7.94906 -10.05919,-0.50778 -15.09833,0.66745 -21.65734,5.0509 -12.79905,8.55375 -14.52218,28.67601 -3.26663,38.14693 6.3298,5.32618 12.31996,7.32064 22.49247,7.48903 3.33767,0.0553 8.32653,-0.57011 11.08635,-1.38969 z M 889,489 v -77 h 20.87132 20.87131 l 26.73412,46.50614 c 14.70376,25.57838 27.13667,46.75494 27.62868,47.05902 C 985.62668,505.88731 986,486.47958 986,459.05902 V 412 h 19 19 v 77 77 h -20.8111 -20.81119 L 954.93885,517.76409 927.5,469.52817 927.2404,517.76409 926.98079,566 H 907.9904 889 Z m 176.0501,1.25 c -13.3884,-41.6625 -24.5534,-76.3216 -24.8111,-77.02022 -0.3715,-1.00713 3.9457,-1.21425 20.843,-1 l 21.3115,0.27022 14.2507,53 c 17.7157,65.88632 16.4271,61.49793 17.3237,59 0.3948,-1.1 7.3882,-26.8625 15.5408,-57.25 l 14.823,-55.25 h 21.3932 c 11.7662,0 21.1927,0.3375 20.9477,0.75 -0.245,0.4125 -11.7641,35.0625 -25.598,77 L 1135.922,566 h -23.2647 -23.2647 z M 1203,489.02071 V 412 h 20.5062 20.5062 l -0.2562,76.75 -0.2562,76.75 -20.25,0.27071 -20.25,0.2707 z m 73.6667,76.31262 C 1276.3,564.96667 1276,530.27849 1276,488.2485 v -76.41816 l 41.75,0.41135 c 38.9653,0.38392 42.2836,0.55594 49.75,2.57899 20.7235,5.61511 36.4532,17.7853 44.2757,34.25647 6.5678,13.82914 7.7247,19.8102 7.7219,39.92285 0,15.27034 -0.2954,18.51927 -2.3022,25.5 -3.878,13.48935 -8.6996,22.05561 -17.2448,30.63776 -11.751,11.80173 -25.3495,17.65712 -46.0772,19.8403 -10.4436,1.1 -76.1596,1.4024 -77.2067,0.35527 z m 73.3133,-35.32954 c 17.9606,-3.40616 26.6817,-13.21949 29.0378,-32.67464 2.8424,-23.46996 -5.1549,-40.8758 -21.8162,-47.48252 -4.9634,-1.96815 -7.935,-2.30948 -22.9516,-2.63635 L 1317,446.83479 V 488.9174 531 h 13.8635 c 7.6249,0 16.2274,-0.4483 19.1165,-0.99621 z M 1447,489 v -77 h 20.5 20.5 v 77 77 h -20.5 -20.5 z m 58,76.41279 c 0,-0.34528 13.1183,-35.00441 29.1518,-77.02029 L 1563.3036,412 h 20.6193 20.6193 l 28.8803,75.75 c 15.8843,41.6625 29.0889,76.3216 29.3437,77.02022 0.3673,1.00696 -3.9442,1.21422 -20.8021,1 l -21.2654,-0.27022 -4.7355,-13.5 -4.7354,-13.5 -27.4588,-0.26555 -27.4587,-0.26554 -4.9051,13.76554 -4.9052,13.76555 -20.75,0.27029 c -11.4125,0.14866 -20.75,-0.0122 -20.75,-0.3575 z M 1600.4678,505.75 c -3.1069,-10.48178 -15.8526,-49.40568 -16.3638,-49.97372 -0.3583,-0.39805 -4.4178,10.62695 -9.0212,24.5 -4.6033,13.87305 -8.5783,25.78622 -8.8332,26.47372 -0.3599,0.97034 3.4907,1.25 17.2108,1.25 h 17.6744 z M 662.63027,417.0311 c -7.62836,-1.04267 -15.61586,-2.19077 -17.75,-2.55133 L 641,413.8242 V 394.7871 375.75 l 3.25,0.6514 c 28.4477,5.70182 49.12536,6.77716 60.25,3.13332 12.29267,-4.02644 23.41474,-14.5166 31.52596,-29.7348 l 3.09874,-5.81383 -55.31235,-109.64076 C 653.39056,174.04291 628.35,124.32104 628.16667,123.85229 c -0.18334,-0.46876 10.61666,-0.8392 24,-0.8232 l 24.33333,0.0291 42.5,87.93619 c 23.375,48.3649 42.76349,87.95181 43.08552,87.97091 C 762.40756,298.98438 782.5757,259.4 806.9036,211 l 44.23256,-88 h 23.94656 23.94656 l -6.92696,13.25 c -3.80983,7.2875 -33.08748,64.05377 -65.06145,126.14726 -31.97397,62.09349 -60.19694,116.09349 -62.7177,120 -12.13156,18.80064 -25.42099,28.79589 -45.32317,34.08846 -10.09748,2.68521 -38.69042,2.96185 -56.36973,0.54538 z M 1003.5,349.88091 c -42.64174,-3.24543 -80.89816,-14.73226 -107.28441,-32.21311 -12.06499,-7.99303 -17.11709,-12.3311 -15.59246,-13.38871 0.61772,-0.4285 8.81768,-5.89936 18.22212,-12.15747 l 17.09899,-11.37838 8.77788,6.00167 c 23.6287,16.15556 48.9829,24.53245 82.77788,27.34936 15.852,1.32132 36.6361,0.65496 52.3977,-1.67992 29.7927,-4.4134 45.2753,-15.61956 45.4008,-32.86072 0.071,-9.80833 -4.8968,-16.62452 -15.7918,-21.66583 -9.0233,-4.17522 -18.1285,-5.52035 -63.5067,-9.38195 -65.99709,-5.61624 -77.22367,-7.52452 -94.92348,-16.13498 -16.4356,-7.99545 -26.15324,-19.79239 -29.56273,-35.88831 -4.66333,-22.01526 2.53244,-42.79721 19.83845,-57.295 33.1366,-27.75956 125.59446,-33.09239 183.96166,-10.61064 12.5499,4.83395 25.8035,11.89485 34.6007,18.43369 4.172,3.10096 8.1212,6.29354 8.776,7.09462 0.9991,1.22223 -1.7806,3.1091 -17.28,11.72984 l -18.4706,10.27331 -5.72,-3.44283 c -28.0416,-16.87802 -61.9464,-23.89874 -104.3129,-21.60024 -16.88887,0.91628 -27.43172,3.12027 -37.53048,7.84579 -18.265,8.54675 -23.42024,23.62719 -11.87306,34.7318 9.57866,9.21155 24.36396,11.96411 95.99644,17.87155 44.5826,3.67667 57.1216,6.02692 70.978,13.30381 9.0662,4.76127 19.3161,14.44197 23.3962,22.09706 9.2893,17.4285 9.3696,40.77279 0.2028,58.93216 -3.9176,7.76062 -13.3881,17.87613 -22.2554,23.77112 -24.9038,16.55601 -68.6311,24.04422 -118.3216,20.26231 z M 24,184.01877 V 25 h 105.89405 c 121.25447,0 126.93133,0.291165 150.60595,7.724555 34.62335,10.871086 57.74787,37.36777 63.88548,73.201665 2.88531,16.84561 1.72402,30.80976 -3.99793,48.07378 -4.37922,13.2128 -9.67853,22.19482 -18.69488,31.68668 -16.7718,17.65635 -39.34487,26.74949 -72.69267,29.28288 -7.67968,0.58342 -49.17321,1.02663 -96.24254,1.02801 L 70.014915,216 69.757457,279.25 69.5,342.5 46.75,342.76877 24,343.03755 Z m 229.5,-9.3034 c 3.3,-0.95439 9.65433,-3.52375 14.12074,-5.70969 26.33962,-12.89113 36.96782,-46.81707 23.37871,-74.626418 C 282.62279,77.236896 267.15052,67.557717 242.5,64.038865 238.29525,63.438638 202.25648,63.031707 152.25,63.019809 L 69,63 v 57.03562 57.03563 l 89.25,-0.31032 c 81.16507,-0.2822 89.79352,-0.4675 95.25,-2.04556 z M 365.66667,342.33333 C 365.3,341.96667 365,270.41667 365,183.33333 V 25 h 21.99225 21.99226 l 0.25774,60.455775 0.25775,60.455775 8.5,-5.58773 c 21.42817,-14.08646 43.13036,-20.98528 73.81124,-23.46354 32.44529,-2.62079 65.75621,3.79961 87.51648,16.86808 15.53819,9.3317 29.35616,24.72981 35.51875,39.58045 6.56736,15.82609 6.48511,14.6797 6.88568,95.96122 l 0.36355,73.77002 -21.29785,-0.27002 L 579.5,342.5 l -0.55028,-70 c -0.59854,-76.13938 -0.49491,-74.74876 -6.44498,-86.49065 -16.878,-33.30713 -78.83708,-44.29841 -124.14749,-22.02324 -15.1916,7.46838 -24.69233,15.27883 -34.4859,28.35048 L 408,200.17319 V 271.58659 343 h -20.83333 c -11.45834,0 -21.13334,-0.3 -21.5,-0.66667 z M 1608.3647,73.970241 c -13.8541,-4.277274 -21.4578,-19.141782 -16.8649,-32.969607 7.7113,-23.216593 44.0388,-23.130109 50.9438,0.12128 1.9267,6.488175 1.9591,10.222299 0.1407,16.264243 -3.1421,10.440261 -11.8844,16.717499 -24.0171,17.244871 -3.887,0.168954 -8.4781,-0.1284 -10.2025,-0.660787 z m 18.7954,-7.856825 c 12.5138,-7.935986 11.5601,-27.966821 -1.6601,-34.869934 -1.6632,-0.868472 -5.4508,-1.566489 -8.5,-1.566489 -8.2059,0 -13.5411,3.425509 -17.4896,11.229371 -2.612,5.162431 -1.7401,14.63711 1.8457,20.055568 5.4228,8.194439 17.2748,10.560552 25.804,5.151484 z M 1606.2218,49.25 1606.5,35.5 l 8.091,0.03081 c 5.9493,0.02265 8.7906,0.489233 10.7341,1.76265 4.9988,3.27533 4.8048,11.068082 -0.32,12.854591 l -2.9244,1.019479 2.302,3.666236 c 5.0858,8.099657 5.0956,8.166235 1.197,8.166235 -3.1879,0 -3.7783,-0.492198 -6.8059,-5.673564 C 1614.1919,49.484984 1613,49.400397 1613,56.916667 V 63 h -3.5282 -3.5282 z M 1621.5,43.5 c 0,-2.81451 -0.2628,-3.019013 -4.25,-3.307498 L 1613,39.885004 V 43.5 47.114996 l 4.25,-0.307498 c 3.9872,-0.288485 4.25,-0.492988 4.25,-3.307498 z"
         id="path3" />
      <path
         style="fill:#000000"
         d="M 739.25,587.2766 736,586.87328 v -6.05327 c 0,-5.79257 0.0969,-6.02685 2.25,-5.4398 4.60253,1.2549 12.69039,1.85355 16.18489,1.19798 4.25425,-0.7981 9.82561,-5.37866 11.52127,-9.47234 1.13606,-2.7427 0.2406,-4.8179 -16.18349,-37.5046 L 732.38657,495 h 7.35862 7.35861 l 13.4234,27.57428 c 7.38288,15.16585 13.77202,27.35243 14.1981,27.08128 0.42609,-0.27115 6.84304,-12.67958 14.25989,-27.57428 L 802.47038,495 h 7.34814 c 4.04148,0 7.19815,0.38859 7.01481,0.86353 C 816.65,496.33847 807.275,514.65659 796,536.57047 c -22.19958,43.14667 -25.52518,48.14243 -33.5,50.3241 -3.80775,1.04168 -16.28272,1.24667 -23.25,0.38203 z M 671.5,564.9609 c -5.90141,-1.20975 -12.25178,-3.64796 -15.47044,-5.93985 C 652.25086,556.33038 652,556.42245 652,560.5 v 3.5 h -6.5 -6.5 v -50 -50 h 6.5 6.5 v 19.42704 19.42705 l 5.62354,-3.38632 c 15.03731,-9.05499 38.46686,-8.2786 53.17668,1.76214 12.09753,8.25762 17.01851,24.43342 12.18946,40.06808 -3.57667,11.57992 -13.32634,19.91966 -27.07631,23.16073 -6.85441,1.61568 -17.87555,1.84238 -24.41337,0.50218 z m 22.11218,-11.43837 c 10.87172,-3.22856 17.39443,-12.26968 17.37844,-24.08825 -0.008,-5.8443 -0.47453,-7.74529 -2.96855,-12.09379 C 702.9391,508.47797 693.92756,503.71946 682,503.59963 671.86344,503.49779 665.09658,505.92864 658.96546,511.8743 654.13653,516.55715 651,523.69446 651,530 c 0,8.14072 5.61675,17.23828 13,21.05635 7.79998,4.03357 20.71287,5.10899 29.61218,2.46618 z M 889,488.5 V 412 l 20.75,0.003 20.75,0.003 26.5,46.11871 c 14.575,25.36528 27.04819,46.85153 27.7182,47.74721 0.96347,1.28799 1.22484,-8.35613 1.25,-46.12148 L 986,412 h 19 19 v 76.51989 76.51989 L 1002.8887,564.76989 981.77746,564.5 955.33183,518 C 940.78674,492.425 928.46181,471.0725 927.9431,470.55 927.3522,469.95478 927,487.41354 927,517.3 V 565 h -19 -19 z m 199.1344,73.2679 c -1.5803,-5.00144 -47.1693,-147.09057 -47.658,-148.53772 -0.3395,-1.00541 3.966,-1.21363 20.6778,-1 l 21.1066,0.26982 14.8856,55.5 c 16.9695,63.26988 15.7218,59.0242 16.75,57 0.4191,-0.825 7.4763,-26.58603 15.6828,-57.24673 l 14.9208,-55.74673 20.75,-0.003 c 11.7069,-0.002 20.75,0.39088 20.75,0.90114 0,0.49742 -11.1893,34.80992 -24.8651,76.25 l -24.8651,75.34559 -23.5515,0.2679 -23.5514,0.2679 z M 1203,488.5 V 412 h 20 20 v 76.5 76.5 h -20 -20 z m 74,-0.10228 v -76.60228 l 40.25,0.48434 c 43.9911,0.52935 48.353,1.0069 62.25,6.81539 8.8849,3.7136 19.1655,11.28352 24.584,18.10196 6.3,7.92772 11.6979,19.97584 14.0636,31.3901 1.7129,8.26448 1.9675,12.24068 1.5312,23.91277 -0.3016,8.06725 -1.2313,16.75449 -2.1938,20.5 -2.398,9.33146 -9.6077,23.654 -14.9452,29.68968 -5.6444,6.38269 -16.1903,13.5156 -24.7413,16.73418 C 1364.2116,564.53797 1359.136,565 1316.5422,565 H 1277 Z m 75.9865,41.04394 c 17.0246,-4.01247 25.0293,-14.78879 26.6503,-35.87798 0.7079,-9.20914 -0.7484,-19.73904 -3.6347,-26.28091 -2.8142,-6.37859 -10.1622,-13.63271 -16.8485,-16.63334 -7.2147,-3.23778 -16.3343,-4.60397 -30.9036,-4.62962 L 1317,446 v 42.5 42.5 l 14.75,-0.0148 c 9.6904,-0.01 16.975,-0.53919 21.2365,-1.54356 z M 1447,488.5 V 412 h 20.5 20.5 v 76.5 76.5 h -20.5 -20.5 z m 59.3054,73.25 c 0.7327,-1.7875 13.9002,-36.2125 29.2611,-76.5 L 1563.4954,412 h 20.5079 20.5079 l 2.6453,7.25 c 1.4548,3.9875 14.5573,38.42128 29.1165,76.51952 l 26.4714,69.26951 -21.1203,-0.26951 -21.1203,-0.26952 -4.5415,-13 -4.5416,-13 -27.6101,-0.26564 -27.6101,-0.26565 -2.9806,8.26565 c -1.6393,4.5461 -3.815,10.62814 -4.835,13.51564 l -1.8543,5.25 h -20.7787 -20.7787 z M 1601,507.82024 c 0,-2.2103 -16.4969,-52.80028 -17.221,-52.81028 -0.6316,-0.009 -17.779,51.35626 -17.779,53.25697 0,0.40319 7.875,0.73307 17.5,0.73307 12.7776,0 17.5,-0.31836 17.5,-1.17976 z M 668.5,417.45609 c -6.05,-0.72985 -14.7125,-1.87851 -19.25,-2.55256 L 641,413.67797 v -18.94739 -18.9474 l 2.25,0.55785 c 17.70424,4.38945 44.79259,6.7295 55.21302,4.76964 9.63598,-1.81233 18.00697,-6.3222 24.91052,-13.42053 C 728.90324,362.00442 739,346.81031 739,344.17467 739,343.59493 714.05425,293.70597 683.565,233.3103 L 628.13,123.5 l 23.61647,-0.26853 c 12.98906,-0.14769 23.95267,0.0773 24.36356,0.5 0.4109,0.42269 19.71619,39.91853 42.90064,87.76853 23.18446,47.85 42.45411,87.30128 42.82144,87.66952 0.36734,0.36824 20.68496,-39.11926 45.15026,-87.75 L 851.46475,123 h 23.37461 c 21.61989,0 23.32548,0.12805 22.72005,1.70579 C 896.68862,126.97503 773.63774,365.94235 769.70586,373 c -18.85262,33.84005 -40.25393,46.26775 -79.02822,45.89155 -6.1477,-0.0596 -16.12764,-0.7056 -22.17764,-1.43546 z m 340.1427,-67.46123 C 961.71763,346.9451 922.65591,335.43716 894.5,316.36737 c -8.62516,-5.84175 -15.14107,-11.11198 -14.4374,-11.67732 0.24057,-0.19327 8.42153,-5.58589 18.17991,-11.98359 l 17.74251,-11.63219 9.75749,6.63142 C 952.59578,305.95582 985.69689,315 1025.6379,315 c 45.6196,0 73.4197,-9.98531 78.8667,-28.32755 2.0629,-6.94655 1.869,-10.32817 -0.9383,-16.35752 -3.059,-6.57007 -9.4004,-11.32627 -19.5663,-14.67507 -8.8925,-2.92932 -15.3062,-3.72234 -62,-7.66589 -56.35128,-4.75918 -68.29144,-6.58169 -84.7074,-12.92952 -21.73362,-8.40411 -33.71753,-22.74699 -36.3827,-43.54445 -0.95138,-7.42398 -0.88798,-10.51195 0.36201,-17.63416 5.3638,-30.56181 30.87156,-48.79581 78.88216,-56.38823 14.03547,-2.21957 52.93043,-3.09872 68.43073,-1.54674 39.1451,3.91944 74.5852,16.86946 96.7283,35.34513 l 4.8132,4.01596 -18.6426,10.23013 -18.6427,10.23013 -7.4259,-4.46335 c -20.4159,-12.27096 -47.8953,-19.52387 -79.1164,-20.88198 -41.38449,-1.80021 -69.99557,6.70619 -77.40138,23.01229 -6.18141,13.61025 4.12017,25.48495 26.10268,30.08872 10.72536,2.2462 35.7096,5.02415 72,8.00554 17.325,1.42331 37.0465,3.46899 43.8256,4.54595 33.9537,5.39408 53.2059,20.88584 58.5933,47.14845 6.2229,30.33612 -7.5208,56.8296 -37.1964,71.70253 -23.8027,11.92952 -63.3986,17.69595 -103.5798,15.08449 z M 24,183.44833 V 24.896651 l 111.75,0.401187 c 120.27081,0.431778 117.656,0.323187 138.68153,5.759318 29.48613,7.623612 52.36508,26.695623 63.51068,52.942844 10.6209,25.01158 10.09966,54.72551 -1.39647,79.60738 -12.12938,26.25244 -34.02349,42.10342 -67.04574,48.54002 -15.5841,3.0376 -39.94483,3.79346 -123.25,3.82414 L 69,216 v 63 63 H 46.5 24 Z m 214.18551,-6.4633 c 25.93553,-2.45946 42.86722,-12.13881 52.1565,-29.81634 5.22447,-9.94217 6.98632,-18.46124 6.34269,-30.66869 C 295.55074,94.992827 285.77631,79.720674 267.59062,71.041677 250.19749,62.740925 241.12699,62.081267 143.75,62.035292 L 69,62 v 58 58 l 79.25,-8.4e-4 c 45.82287,-4.8e-4 83.75708,-0.42824 89.93551,-1.01413 z M 366,183.5 V 25 h 21 21 v 61 c 0,33.55 0.22374,61 0.49719,61 0.27346,0 3.17468,-1.97106 6.44717,-4.38012 13.46463,-9.9121 34.56183,-18.82761 53.75585,-22.7168 15.13296,-3.06631 48.09026,-3.82432 64.11294,-1.47458 47.1851,6.91973 77.63648,31.70584 86.77059,70.62753 1.55665,6.63311 1.79042,15.36851 2.14603,80.19397 L 622.12885,342 H 601.06442 580 v -60.39405 c 0,-35.40547 -0.43901,-64.67891 -1.06104,-70.75 -1.20648,-11.77548 -4.65532,-23.12989 -8.89912,-29.29805 -23.65568,-34.38235 -92.22024,-39.74837 -134.49235,-10.52568 -8.25045,5.70353 -19.24756,16.74216 -24.29749,24.38922 L 408,200.34289 V 271.17144 342 H 387 366 Z M 1607.1826,73.098208 C 1596.6974,69.476845 1590.6385,60.857877 1590.5938,49.5 1590.5329,34.020361 1600.9094,24 1617,24 c 15.5713,0 26.2682,9.8923 26.4243,24.436718 0.087,8.122693 -2.4743,14.432837 -7.8819,19.417443 -7.396,6.81743 -18.0827,8.793513 -28.3598,5.244047 z m 21.187,-7.430938 C 1633.388,61.839566 1636,56.341123 1636,49.604938 c 0,-9.223071 -3.5757,-15.040224 -11.5,-18.709075 -7.6515,-3.542539 -16.1601,-1.463885 -22.2093,5.425776 -5.6086,6.387847 -5.9439,18.832394 -0.6826,25.332932 4.6525,5.748281 8.7558,7.521128 16.5023,7.129784 5.3823,-0.271915 7.2881,-0.850956 10.2592,-3.117085 z M 1607,49.5 V 36 h 8.5455 c 7.7396,0 8.7769,0.231464 11,2.454545 1.35,1.35 2.4545,3.620455 2.4545,5.045455 0,2.606713 -3.9382,7.5 -6.0361,7.5 -1.0093,0 0.18,2.395698 4.8403,9.75 1.3805,2.178436 1.313,2.25 -2.1215,2.25 -3.3024,0 -3.775,-0.414188 -6.8458,-6 -2.1053,-3.829435 -3.9386,-6 -5.0677,-6 -1.4957,0 -1.7692,0.927607 -1.7692,6 0,5.733333 -0.1111,6 -2.5,6 h -2.5 z m 15.0696,-4.083823 c 2.2011,-2.652257 -0.1043,-4.872227 -5.422,-5.220968 L 1612,39.890418 v 3.554791 c 0,3.531688 0.028,3.554791 4.3776,3.554791 2.7741,0 4.859,-0.58011 5.692,-1.583823 z"
         id="path2" />
    </g>
  </g>
</svg>
