<svg width="64" height="55" version="1.1" xmlns="http://www.w3.org/2000/svg"><path fill="rgb(0,0,0)" stroke="rgb(0,0,0)" stroke-width="1" opacity="0" d="M 0 0 L 54.5 0 L 55.5 1 L 56.5 0 L 64 0 L 64 55 L 35.5 55 L 31.5 54 Q 30 56.5 24.5 55 Q 23 52.5 17.5 54 L 16.5 55 L 0 55 L 0 0 Z M 54 2 L 54 5 L 53 3 L 52 7 L 54 6 L 52 9 L 50 8 L 50 10 L 47 12 L 37 15 L 20 16 L 14 18 L 8 24 L 6 24 L 7 26 L 7 30 L 6 26 L 5 26 Q 2 34 11 31 L 14 28 L 15 29 L 16 27 L 15 27 L 17 24 L 19 26 L 18 25 L 16 26 L 18 31 L 19 27 L 20 34 L 20 44 L 17 46 Q 15 49 13 48 L 14 51 L 18 53 Q 24 54 27 52 L 25 42 L 26 25 L 27 51 Q 28 53 30 51 L 32 53 L 37 54 L 37 52 L 37 41 L 36 40 L 37 33 L 36 33 L 32 31 L 30 31 Q 31 33 29 32 L 29 34 L 29 50 L 28 34 L 27 33 L 28 25 Q 31 23 30 21 L 34 22 L 38 21 Q 41 23 37 25 Q 36 28 39 27 L 40 24 L 42 39 L 42 51 L 41 39 L 40 39 L 40 52 L 52 52 L 55 51 L 55 48 L 54 50 L 53 50 L 54 47 Q 53 44 52 46 L 52 45 L 51 44 Q 49 46 48 44 L 50 44 L 50 42 L 49 42 L 47 41 L 47 20 Q 48 17 50 19 Q 52 18 50 17 L 55 12 Q 56 14 57 12 L 56 10 Q 58 8 57 4 L 54 2 Z M 59 6 L 58 9 L 59 9 L 59 6 Z M 45 10 L 45 11 L 47 11 L 45 10 Z M 42 11 L 42 12 L 44 12 L 42 11 Z M 38 12 L 38 13 L 41 13 L 38 12 Z M 33 13 L 33 14 L 37 14 L 33 13 Z M 20 14 L 20 15 L 30 15 L 20 14 Z M 17 15 L 17 16 L 19 16 L 17 15 Z M 49 19 L 48 25 L 49 25 L 49 19 Z M 33 22 L 31 23 Q 28 24 29 28 Q 29 31 34 30 Q 35 27 37 29 L 36 25 L 33 22 Z M 36 22 Q 36 26 38 23 L 36 22 Z M 49 28 L 48 40 L 49 40 L 49 28 Z M 40 29 L 39 37 L 40 37 L 40 29 Z M 8 32 L 8 33 L 11 33 L 8 32 Z M 19 33 L 18 44 L 19 44 L 19 33 Z M 38 34 L 37 40 L 38 40 L 38 34 Z M 39 41 L 38 52 L 39 52 L 39 41 Z M 43 53 L 43 54 L 52 54 L 43 53 Z "></path><path fill="rgb(0,0,0)" stroke="rgb(0,0,0)" stroke-width="1" opacity="0" d="M 27.5 22 L 26.5 24 L 27.5 22 Z "></path><path fill="rgb(0,0,0)" stroke="rgb(0,0,0)" stroke-width="1" opacity="0.984313725490196" d="M 55.5 3 L 56 8.5 L 50.5 15 L 47 17.5 L 45 25.5 L 46 26.5 L 46 40.5 L 48 46 L 52 48.5 L 50.5 51 L 43 51 L 43 36.5 L 40 21 L 32.5 19 L 25 22.5 L 24 24.5 L 24 43.5 L 25 44.5 L 25 51 Q 22.9 52.6 17.5 52 L 15 51 L 17.5 47 L 21 44.5 Q 22.9 30.1 17.5 23 L 12 27.5 L 10.5 30 Q 5.9 31.4 8 25.5 L 9.5 23 L 10 25 L 13 23.5 Q 13.8 21.3 11.5 22 L 12.5 20 L 19.5 17 L 31.5 17 L 41.5 15 Q 50.4 12.9 55 6.5 L 55.5 3 Z "></path><path fill="rgb(0,0,0)" stroke="rgb(0,0,0)" stroke-width="1" opacity="0.984313725490196" d="M 30 24 L 35 24 L 35 26.5 Q 33.2 30.7 31.5 28 L 30 28 L 30 24 Z "></path><path fill="rgb(0,0,0)" stroke="rgb(0,0,0)" stroke-width="1" opacity="0.984313725490196" d="M 31.5 32 Q 34.8 30.9 34 33.5 L 36 42.5 L 36 50.5 Q 34.8 53 31 52 L 30 48.5 L 30 33.5 L 31.5 32 Z "></path><path fill="rgb(0,0,0)" stroke="rgb(0,0,0)" stroke-width="1" opacity="0.5764705882352941" d="M 23.5 16 L 29 16.5 L 23.5 17 L 23.5 16 Z "></path><path fill="rgb(0,0,0)" stroke="rgb(0,0,0)" stroke-width="1" opacity="0.5764705882352941" d="M 11.5 20 L 9.5 23 L 11.5 20 Z "></path><path fill="rgb(0,0,0)" stroke="rgb(0,0,0)" stroke-width="1" opacity="0.5764705882352941" d="M 34.5 27 L 33.5 29 L 34.5 27 Z "></path><path fill="rgb(0,0,0)" stroke="rgb(0,0,0)" stroke-width="1" opacity="0.5764705882352941" d="M 7.5 29 L 8.5 31 L 7.5 29 Z "></path><path fill="rgb(0,0,0)" stroke="rgb(0,0,0)" stroke-width="1" opacity="0.5764705882352941" d="M 41.5 29 L 42 31.5 L 41 31.5 L 41.5 29 Z "></path><path fill="rgb(0,0,0)" stroke="rgb(0,0,0)" stroke-width="1" opacity="0.5764705882352941" d="M 29.5 34 L 30 40.5 L 29 40.5 L 29.5 34 Z "></path><path fill="rgb(0,0,0)" stroke="rgb(0,0,0)" stroke-width="1" opacity="0.5764705882352941" d="M 20.5 36 L 21 43.5 L 20 43.5 L 20.5 36 Z "></path><path fill="rgb(0,0,0)" stroke="rgb(0,0,0)" stroke-width="1" opacity="0.5764705882352941" d="M 24.5 36 L 25 40.5 L 24 40.5 L 24.5 36 Z "></path><path fill="rgb(0,0,0)" stroke="rgb(0,0,0)" stroke-width="1" opacity="0.5764705882352941" d="M 46.5 36 L 47 38.5 L 46 38.5 L 46.5 36 Z "></path><path fill="rgb(0,0,0)" stroke="rgb(0,0,0)" stroke-width="1" opacity="0.5764705882352941" d="M 42.5 40 L 43 47.5 L 42 47.5 L 42.5 40 Z "></path><path fill="rgb(0,0,0)" stroke="rgb(0,0,0)" stroke-width="1" opacity="0.5764705882352941" d="M 36.5 47 L 37 49.5 L 36 49.5 L 36.5 47 Z "></path><path fill="rgb(0,0,0)" stroke="rgb(0,0,0)" stroke-width="1" opacity="0.5764705882352941" d="M 42.5 50 L 45 51.5 L 43.5 52 L 42.5 50 Z "></path><path fill="rgb(0,0,0)" stroke="rgb(0,0,0)" stroke-width="1" opacity="0.5764705882352941" d="M 47.5 51 L 50 51.5 L 47.5 52 L 47.5 51 Z "></path><path fill="rgb(0,0,0)" stroke="rgb(0,0,0)" stroke-width="1" opacity="0.8235294117647058" d="M 29.5 16 L 32 16.5 L 29.5 17 L 29.5 16 Z "></path><path fill="rgb(0,0,0)" stroke="rgb(0,0,0)" stroke-width="1" opacity="0.8235294117647058" d="M 32.5 19 L 36 19.5 L 32.5 20 L 32.5 19 Z "></path><path fill="rgb(0,0,0)" stroke="rgb(0,0,0)" stroke-width="1" opacity="0.8235294117647058" d="M 26.5 21 L 25.5 23 L 26.5 21 Z "></path><path fill="rgb(0,0,0)" stroke="rgb(0,0,0)" stroke-width="1" opacity="0.8235294117647058" d="M 20.5 31 L 21 35.5 L 20 35.5 L 20.5 31 Z "></path><path fill="rgb(0,0,0)" stroke="rgb(0,0,0)" stroke-width="1" opacity="0.8235294117647058" d="M 42.5 36 L 43 39.5 L 42 39.5 L 42.5 36 Z "></path><path fill="rgb(0,0,0)" stroke="rgb(0,0,0)" stroke-width="1" opacity="0.8235294117647058" d="M 35.5 38 L 36 41.5 L 35 41.5 L 35.5 38 Z "></path><path fill="rgb(0,0,0)" stroke="rgb(0,0,0)" stroke-width="1" opacity="0.8235294117647058" d="M 24.5 41 L 25 43.5 L 24 43.5 L 24.5 41 Z "></path><path fill="rgb(0,0,0)" stroke="rgb(0,0,0)" stroke-width="1" opacity="0.8235294117647058" d="M 50.5 46 L 51.5 48 L 50.5 46 Z "></path><path fill="rgb(0,0,0)" stroke="rgb(0,0,0)" stroke-width="1" opacity="0.8235294117647058" d="M 16.5 47 L 15.5 49 L 16.5 47 Z "></path><path fill="rgb(0,0,0)" stroke="rgb(0,0,0)" stroke-width="1" opacity="0.25882352941176473" d="M 55.5 2 L 56.5 4 L 55 3.5 L 54.5 5 L 54 3.5 L 55.5 2 Z "></path><path fill="rgb(0,0,0)" stroke="rgb(0,0,0)" stroke-width="1" opacity="0.25882352941176473" d="M 53.5 7 L 52.5 9 L 53.5 7 Z "></path><path fill="rgb(0,0,0)" stroke="rgb(0,0,0)" stroke-width="1" opacity="0.25882352941176473" d="M 54.5 11 L 50.5 16 L 54.5 11 Z "></path><path fill="rgb(0,0,0)" stroke="rgb(0,0,0)" stroke-width="1" opacity="0.25882352941176473" d="M 20.5 16 L 23 16.5 L 20.5 17 L 20.5 16 Z "></path><path fill="rgb(0,0,0)" stroke="rgb(0,0,0)" stroke-width="1" opacity="0.25882352941176473" d="M 38.5 21 L 39.5 23 L 38.5 21 Z "></path><path fill="rgb(0,0,0)" stroke="rgb(0,0,0)" stroke-width="1" opacity="0.25882352941176473" d="M 11.5 22 L 10.5 24 L 11.5 22 Z "></path><path fill="rgb(0,0,0)" stroke="rgb(0,0,0)" stroke-width="1" opacity="0.25882352941176473" d="M 30.5 23 L 29.5 25 L 30.5 23 Z "></path><path fill="rgb(0,0,0)" stroke="rgb(0,0,0)" stroke-width="1" opacity="0.25882352941176473" d="M 15.5 24 L 14.5 26 L 15.5 24 Z "></path><path fill="rgb(0,0,0)" stroke="rgb(0,0,0)" stroke-width="1" opacity="0.25882352941176473" d="M 19.5 27 L 20 29.5 L 19 29.5 L 19.5 27 Z "></path><path fill="rgb(0,0,0)" stroke="rgb(0,0,0)" stroke-width="1" opacity="0.25882352941176473" d="M 24.5 27 L 25 35.5 L 24 35.5 L 24.5 27 Z "></path><path fill="rgb(0,0,0)" stroke="rgb(0,0,0)" stroke-width="1" opacity="0.25882352941176473" d="M 29.5 27 L 30.5 29 L 29.5 27 Z "></path><path fill="rgb(0,0,0)" stroke="rgb(0,0,0)" stroke-width="1" opacity="0.25882352941176473" d="M 46.5 30 L 47 35.5 L 46 35.5 L 46.5 30 Z "></path><path fill="rgb(0,0,0)" stroke="rgb(0,0,0)" stroke-width="1" opacity="0.25882352941176473" d="M 33.5 31 L 34.5 33 L 33.5 31 Z "></path><path fill="rgb(0,0,0)" stroke="rgb(0,0,0)" stroke-width="1" opacity="0.25882352941176473" d="M 41.5 32 L 42 34.5 L 41 34.5 L 41.5 32 Z "></path><path fill="rgb(0,0,0)" stroke="rgb(0,0,0)" stroke-width="1" opacity="0.25882352941176473" d="M 29.5 41 L 30 46.5 L 29 46.5 L 29.5 41 Z "></path><path fill="rgb(0,0,0)" stroke="rgb(0,0,0)" stroke-width="1" opacity="0.25882352941176473" d="M 36.5 43 L 37 46.5 L 36 46.5 L 36.5 43 Z "></path><path fill="rgb(0,0,0)" stroke="rgb(0,0,0)" stroke-width="1" opacity="0.25882352941176473" d="M 48.5 44 L 49.5 46 L 48.5 44 Z "></path><path fill="rgb(0,0,0)" stroke="rgb(0,0,0)" stroke-width="1" opacity="0.25882352941176473" d="M 25.5 46 L 26 50.5 L 25 50.5 L 25.5 46 Z "></path><path fill="rgb(0,0,0)" stroke="rgb(0,0,0)" stroke-width="1" opacity="0.25882352941176473" d="M 17.5 52 L 23 52.5 L 17.5 53 L 17.5 52 Z "></path><path fill="rgb(0,0,0)" stroke="rgb(0,0,0)" stroke-width="1" opacity="0.25882352941176473" d="M 32.5 52 L 35 52.5 L 32.5 53 L 32.5 52 Z "></path><path fill="rgb(0,0,0)" stroke="rgb(0,0,0)" stroke-width="1" opacity="0.027450980392156862" d="M 52.5 3 L 53 6.5 L 51 7.5 L 52.5 3 Z "></path><path fill="rgb(0,0,0)" stroke="rgb(0,0,0)" stroke-width="1" opacity="0.027450980392156862" d="M 49.5 8 L 50.5 10 L 48.5 10 L 47 9.5 L 49.5 8 Z "></path><path fill="rgb(0,0,0)" stroke="rgb(0,0,0)" stroke-width="1" opacity="0.027450980392156862" d="M 56.5 8 L 57.5 10 L 56.5 8 Z "></path><path fill="rgb(0,0,0)" stroke="rgb(0,0,0)" stroke-width="1" opacity="0.027450980392156862" d="M 42.5 11 L 45 12.5 L 43.5 12 L 42.5 11 Z "></path><path fill="rgb(0,0,0)" stroke="rgb(0,0,0)" stroke-width="1" opacity="0.027450980392156862" d="M 39.5 12 L 42 13.5 L 40.5 13 L 39.5 12 Z "></path><path fill="rgb(0,0,0)" stroke="rgb(0,0,0)" stroke-width="1" opacity="0.027450980392156862" d="M 33.5 13 L 36 13.5 L 33.5 14 L 33.5 13 Z "></path><path fill="rgb(0,0,0)" stroke="rgb(0,0,0)" stroke-width="1" opacity="0.027450980392156862" d="M 54.5 13 L 49.5 19 Q 46.5 17.5 49.5 16 L 50.5 17 L 54.5 13 Z "></path><path fill="rgb(0,0,0)" stroke="rgb(0,0,0)" stroke-width="1" opacity="0.027450980392156862" d="M 21.5 14 L 28 14.5 L 21.5 15 L 21.5 14 Z "></path><path fill="rgb(0,0,0)" stroke="rgb(0,0,0)" stroke-width="1" opacity="0.027450980392156862" d="M 14.5 16 L 15.5 18 L 14.5 16 Z "></path><path fill="rgb(0,0,0)" stroke="rgb(0,0,0)" stroke-width="1" opacity="0.027450980392156862" d="M 12.5 17 L 13.5 19 L 12.5 18 L 10 19.5 L 12.5 17 Z "></path><path fill="rgb(0,0,0)" stroke="rgb(0,0,0)" stroke-width="1" opacity="0.027450980392156862" d="M 32.5 20 L 36 20.5 L 32.5 21 L 32.5 20 Z "></path><path fill="rgb(0,0,0)" stroke="rgb(0,0,0)" stroke-width="1" opacity="0.027450980392156862" d="M 8.5 21 L 7.5 25 Q 4 23 8.5 21 Z "></path><path fill="rgb(0,0,0)" stroke="rgb(0,0,0)" stroke-width="1" opacity="0.027450980392156862" d="M 28.5 21 L 29.5 23 L 28.5 21 Z "></path><path fill="rgb(0,0,0)" stroke="rgb(0,0,0)" stroke-width="1" opacity="0.027450980392156862" d="M 26.5 22 L 27.5 24 L 26.5 22 Z "></path><path fill="rgb(0,0,0)" stroke="rgb(0,0,0)" stroke-width="1" opacity="0.027450980392156862" d="M 46.5 23 L 47 29.5 L 46 29.5 L 46.5 23 Z "></path><path fill="rgb(0,0,0)" stroke="rgb(0,0,0)" stroke-width="1" opacity="0.027450980392156862" d="M 16.5 25 L 18 25.5 L 15.5 27 L 16.5 25 Z "></path><path fill="rgb(0,0,0)" stroke="rgb(0,0,0)" stroke-width="1" opacity="0.027450980392156862" d="M 27.5 25 L 27 26.5 L 26.5 34 L 26 26.5 L 27.5 25 Z "></path><path fill="rgb(0,0,0)" stroke="rgb(0,0,0)" stroke-width="1" opacity="0.027450980392156862" d="M 31.5 29 L 30.5 31 L 31.5 29 Z "></path><path fill="rgb(0,0,0)" stroke="rgb(0,0,0)" stroke-width="1" opacity="0.027450980392156862" d="M 19.5 30 L 20 32.5 L 19 32.5 L 19.5 30 Z "></path><path fill="rgb(0,0,0)" stroke="rgb(0,0,0)" stroke-width="1" opacity="0.027450980392156862" d="M 39.5 30 L 40 33.5 L 39 33.5 L 39.5 30 Z "></path><path fill="rgb(0,0,0)" stroke="rgb(0,0,0)" stroke-width="1" opacity="0.027450980392156862" d="M 36.5 32 L 35.5 34 L 36.5 32 Z "></path><path fill="rgb(0,0,0)" stroke="rgb(0,0,0)" stroke-width="1" opacity="0.027450980392156862" d="M 48.5 32 L 49 38.5 L 48 38.5 L 48.5 32 Z "></path><path fill="rgb(0,0,0)" stroke="rgb(0,0,0)" stroke-width="1" opacity="0.027450980392156862" d="M 37.5 34 L 38 38.5 L 37 38.5 L 37.5 34 Z "></path><path fill="rgb(0,0,0)" stroke="rgb(0,0,0)" stroke-width="1" opacity="0.027450980392156862" d="M 18.5 35 L 19 43.5 L 20 44.5 Q 18.5 47.5 17 44.5 L 18 43.5 L 18.5 35 Z "></path><path fill="rgb(0,0,0)" stroke="rgb(0,0,0)" stroke-width="1" opacity="0.027450980392156862" d="M 26 35 L 28 35.5 L 28 49.5 L 27 49.5 L 27 40.5 L 26 35 Z "></path><path fill="rgb(0,0,0)" stroke="rgb(0,0,0)" stroke-width="1" opacity="0.027450980392156862" d="M 36.5 40 L 37 42.5 L 36 42.5 L 36.5 40 Z "></path><path fill="rgb(0,0,0)" stroke="rgb(0,0,0)" stroke-width="1" opacity="0.027450980392156862" d="M 25.5 43 L 26 45.5 L 25 45.5 L 25.5 43 Z "></path><path fill="rgb(0,0,0)" stroke="rgb(0,0,0)" stroke-width="1" opacity="0.027450980392156862" d="M 40.5 43 L 41 45.5 L 40 45.5 L 40.5 43 Z "></path><path fill="rgb(0,0,0)" stroke="rgb(0,0,0)" stroke-width="1" opacity="0.027450980392156862" d="M 38.5 44 L 39 50.5 L 38 50.5 L 38.5 44 Z "></path><path fill="rgb(0,0,0)" stroke="rgb(0,0,0)" stroke-width="1" opacity="0.027450980392156862" d="M 29.5 47 L 30 49.5 L 29 49.5 L 29.5 47 Z "></path><path fill="rgb(0,0,0)" stroke="rgb(0,0,0)" stroke-width="1" opacity="0.027450980392156862" d="M 52.5 50 L 51.5 52 L 52.5 50 Z "></path><path fill="rgb(0,0,0)" stroke="rgb(0,0,0)" stroke-width="1" opacity="0.027450980392156862" d="M 23.5 52 L 24.5 54 L 23.5 52 Z "></path><path fill="rgb(0,0,0)" stroke="rgb(0,0,0)" stroke-width="1" opacity="0.027450980392156862" d="M 43.5 53 L 51 53.5 L 43.5 54 L 43.5 53 Z "></path><path fill="rgb(0,0,0)" stroke="rgb(0,0,0)" stroke-width="1" opacity="0.027450980392156862" d="M 18.5 54 L 22 54.5 L 18.5 55 L 18.5 54 Z "></path><path fill="rgb(0,0,0)" stroke="rgb(0,0,0)" stroke-width="1" opacity="0.027450980392156862" d="M 32.5 54 L 35 54.5 L 32.5 55 L 32.5 54 Z "></path><path fill="rgb(0,0,0)" stroke="rgb(0,0,0)" stroke-width="1" opacity="0.00392156862745098" d="M 56.5 10 L 57 11.5 L 55 12.5 L 56.5 10 Z "></path><path fill="rgb(0,0,0)" stroke="rgb(0,0,0)" stroke-width="1" opacity="0.00392156862745098" d="M 37.5 12 L 39 12.5 L 36.5 14 L 37.5 12 Z "></path><path fill="rgb(0,0,0)" stroke="rgb(0,0,0)" stroke-width="1" opacity="0.00392156862745098" d="M 19.5 14 L 21 14.5 L 18.5 16 L 19.5 14 Z "></path><path fill="rgb(0,0,0)" stroke="rgb(0,0,0)" stroke-width="1" opacity="0.00392156862745098" d="M 28.5 14 L 31 15.5 L 29.5 15 L 28.5 14 Z "></path><path fill="rgb(0,0,0)" stroke="rgb(0,0,0)" stroke-width="1" opacity="0.00392156862745098" d="M 33.5 21 L 37 22 L 37.5 24 L 39 23.5 L 38 25.5 L 38.5 27 Q 36.3 26.3 37 28.5 L 35 27.5 L 37 27 Q 37.8 23.2 34.5 22 L 33.5 21 Z "></path><path fill="rgb(0,0,0)" stroke="rgb(0,0,0)" stroke-width="1" opacity="0.00392156862745098" d="M 28.5 22 L 29 23.5 Q 25.5 25 28 26.5 L 30 29.5 L 27 27.5 L 26 24 Q 28.8 25 28.5 22 Z "></path><path fill="rgb(0,0,0)" stroke="rgb(0,0,0)" stroke-width="1" opacity="0.00392156862745098" d="M 48.5 22 L 49 24.5 L 48 24.5 L 48.5 22 Z "></path><path fill="rgb(0,0,0)" stroke="rgb(0,0,0)" stroke-width="1" opacity="0.00392156862745098" d="M 14 27 L 16 27.5 L 11 31.5 L 14 27 Z "></path><path fill="rgb(0,0,0)" stroke="rgb(0,0,0)" stroke-width="1" opacity="0.00392156862745098" d="M 48.5 28 L 49 31.5 L 48 31.5 L 48.5 28 Z "></path><path fill="rgb(0,0,0)" stroke="rgb(0,0,0)" stroke-width="1" opacity="0.00392156862745098" d="M 33.5 29 L 35.5 32 L 33.5 29 Z "></path><path fill="rgb(0,0,0)" stroke="rgb(0,0,0)" stroke-width="1" opacity="0.00392156862745098" d="M 30.5 31 L 29.5 33 L 26.5 35 L 28.5 32 L 30.5 31 Z "></path><path fill="rgb(0,0,0)" stroke="rgb(0,0,0)" stroke-width="1" opacity="0.00392156862745098" d="M 39.5 34 L 40 36.5 L 39 36.5 L 39.5 34 Z "></path><path fill="rgb(0,0,0)" stroke="rgb(0,0,0)" stroke-width="1" opacity="0.00392156862745098" d="M 41.5 37 L 41 38.5 L 40.5 41 L 40 38.5 L 41.5 37 Z "></path><path fill="rgb(0,0,0)" stroke="rgb(0,0,0)" stroke-width="1" opacity="0.00392156862745098" d="M 38.5 41 L 39 43.5 L 38 43.5 L 38.5 41 Z "></path><path fill="rgb(0,0,0)" stroke="rgb(0,0,0)" stroke-width="1" opacity="0.00392156862745098" d="M 49.5 41 L 48.5 43 L 49.5 41 Z "></path><path fill="rgb(0,0,0)" stroke="rgb(0,0,0)" stroke-width="1" opacity="0.00392156862745098" d="M 16.5 44 L 14 47.5 L 13.5 49 L 13 47.5 L 16.5 44 Z "></path><path fill="rgb(0,0,0)" stroke="rgb(0,0,0)" stroke-width="1" opacity="0.00392156862745098" d="M 50 44 L 54 46.5 L 55 48.5 L 53.5 48 Q 50.9 48.8 52 45.5 L 50 45.5 L 50 44 Z "></path><path fill="rgb(0,0,0)" stroke="rgb(0,0,0)" stroke-width="1" opacity="0.00392156862745098" d="M 12.5 50 L 14.5 53 L 12.5 50 Z "></path><path fill="rgb(0,0,0)" stroke="rgb(0,0,0)" stroke-width="1" opacity="0.00392156862745098" d="M 27.5 50 L 30 50.5 L 26.5 52 L 27.5 50 Z "></path><path fill="rgb(0,0,0)" stroke="rgb(0,0,0)" stroke-width="1" opacity="0.00392156862745098" d="M 53 50 L 55 50.5 L 51 53.5 L 53 50 Z "></path><path fill="rgb(0,0,0)" stroke="rgb(0,0,0)" stroke-width="1" opacity="0.00392156862745098" d="M 35.5 52 L 36.5 54 Q 33.7 54.7 35.5 52 Z "></path><path fill="rgb(0,0,0)" stroke="rgb(0,0,0)" stroke-width="1" opacity="0.00392156862745098" d="M 16.5 53 L 17.5 55 L 16.5 53 Z "></path><path fill="rgb(0,0,0)" stroke="rgb(0,0,0)" stroke-width="1" opacity="0.00392156862745098" d="M 30.5 53 L 31.5 55 L 30.5 53 Z "></path></svg>