<svg id="Layer_1" data-name="Layer 1" xmlns="http://www.w3.org/2000/svg" viewBox="0 0 319.25517 411.90615"><title>pimath</title><path d="M299.87382,5.12886c16.19944,28.75211,2.81,48.35827-12.45346,59.52916-68.92893,50.44717-39.41151,118.59605-35.96573,182.10813.43161,7.95577,6.12611,14.72208,13.4701,18.99729,10.18195,5.92723,20.29015,14.51813,13.89967,26.11152-8.72476,15.82813-26.52693,10.37341-40.90075,10.09543-14.22608-.27513-17.613-10.45152-16.97159-23.07818,2.04028-40.16695-1.181-80.04607-7.12668-119.75288-6.81481-45.51091-27.3553-57.489-71.15612-43.839-22.69637,7.073-29.29524,23.671-29.05241,43.61761.4627,38.0084,3.21428,75.98378,4.42937,113.99161.32984,10.31743,5.58348,24.39814-8.05155,28.99465-15.05186,5.07409-32.62647,7.23395-46.57484-1.82709-13.06962-8.49022-7.347-21.20185,4.0341-25.77238,23.105-9.27877,23.5122-27.52025,22.51929-46.98561-1.2238-23.992-2.48173-48.02048-5.10042-71.88224-.90425-8.23983-2.19251-19.047-13.93506-20.51988-9.24461-1.15957-14.27975,5.8671-19.21419,12.2616-1.83364,2.3762-3.30529,5.04121-5.21863,7.34476-7.78012,9.367-13.89077,27.1954-28.90786,17.83138-15.38906-9.596-6.13988-25.79419.915-37.48286,16.92346-28.039,44.04186-39.723,75.50865-42.28848,48.8751-3.98472,98.19084-5.35574,144.468-24.32865C266.2004,56.8934,294.13947,45.382,299.87382,5.12886Z"/><path d="M145.8653,243.36176c-.90006-15.85115-3.62627-31.66176.20477-47.55629,2.16784-8.99415,7.52653-14.41426,16.49254-14.22771,7.651.15919,12.73507,5.48372,14.54294,12.94032,7.55739,31.17051,7.56958,63.12064,8.91191,94.86859.4592,10.86075-7.3449,15.06125-17.90186,15.3101-11.8828.2801-19.31545-4.20823-20.11034-16.60205C147.04992,273.19941,146.56356,258.274,145.8653,243.36176Z"/><path d="M178.6738,145.55274c-1.37252,10.50785-5.73967,19.3556-17.62711,19.441-10.2249.07342-16.1395-7.82284-17.03833-17.02637-1.02331-10.47806,6.58862-16.07081,16.24431-17.02311C170.26117,129.95716,177.02854,134.80582,178.6738,145.55274Z"/><path d="M83.24341,379.20667q-4.484,3.74214-12.80814,3.74178H59.801v18.36436H49.19848V350.23939H71.12761q7.58317,0,12.09213,3.9501,4.50859,3.95028,4.50878,12.23162Q87.72852,375.46454,83.24341,379.20667Zm-8.1453-18.39932a8.59842,8.59842,0,0,0-5.67968-1.69717H59.801V374.148h9.6174a8.15373,8.15373,0,0,0,5.67968-1.837q2.02731-1.83556,2.02749-5.82062Q77.1256,362.50561,75.09811,360.80735Z"/><path d="M105.64237,359.04026H95.62872v-9.11262h10.01365Zm-10.01365,4.50441h10.01365v37.76814H95.62872Z"/><path d="M149.88305,350.23939h15.35571v51.07342h-9.94408V366.7671q0-1.48922.0346-4.17518.03441-2.68451.0346-4.14021l-9.67859,42.8611h-10.372l-9.60939-42.8611q0,1.45535.035,4.14021.03387,2.6856.03459,4.17518v34.54571H115.829V350.23939h15.52943l9.29691,40.15911Z"/><path d="M189.27588,378.34061a15.6095,15.6095,0,0,0,3.94427-.8668,2.97,2.97,0,0,0,2.12911-2.80651,3.31837,3.31837,0,0,0-1.63307-3.20495,10.32054,10.32054,0,0,0-4.79431-.88355q-3.54657,0-5.0223,1.73213a7.1424,7.1424,0,0,0-1.40508,3.465h-9.52817a14.45087,14.45087,0,0,1,2.78321-8.142q3.93225-4.98989,13.503-4.98952a24.08079,24.08079,0,0,1,11.06582,2.4598q4.83692,2.46053,4.83656,9.28634v17.3242q0,1.80279.06992,4.366a5.48762,5.48762,0,0,0,.58855,2.63316,3.53473,3.53473,0,0,0,1.45534,1.14358v1.45534H196.52781a10.98854,10.98854,0,0,1-.62424-2.14805q-.17372-1.00518-.27679-2.28716a20.39547,20.39547,0,0,1-4.73968,3.77674,14.3241,14.3241,0,0,1-7.24974,1.83629,12.50956,12.50956,0,0,1-8.5208-2.92743q-3.36409-2.92816-3.363-8.29864,0-6.9642,5.40981-10.0832a24.17762,24.17762,0,0,1,8.72693-2.42557Zm6.03842,4.60784a10.894,10.894,0,0,1-1.91423.95274,16.173,16.173,0,0,1-2.6521.676l-2.24783.41591a14.77149,14.77149,0,0,0-4.53865,1.35118,4.50976,4.50976,0,0,0-2.333,4.19266,4.37955,4.37955,0,0,0,1.42474,3.65509,5.41465,5.41465,0,0,0,3.46572,1.12611,10.3221,10.3221,0,0,0,5.96339-1.87053q2.72712-1.87161,2.832-6.82581Z"/><path d="M209.90264,370.92552v-7.03414h5.26705V353.358h9.77072v10.53335h6.13311v7.03414h-6.13311v19.95809q0,2.32178.58927,2.8932.58891.57142,3.60339.57179.45015,0,.95274-.01748.50151-.01749.98771-.05245v7.38086l-4.67777.17335q-6.99918.24147-9.56313-2.42556-1.66293-1.6979-1.66293-5.23208V370.92552Z"/><path d="M264.55723,363.75372a11.09037,11.09037,0,0,1,4.67485,3.71118,9.8997,9.8997,0,0,1,1.89675,4.35291,53.82041,53.82041,0,0,1,.34526,7.29927v22.19573H261.39161V378.31438a10.18812,10.18812,0,0,0-1.03214-4.92542q-1.34171-2.63643-5.09-2.6368a6.98406,6.98406,0,0,0-5.89929,2.61932q-2.01256,2.619-2.01184,7.47481v20.46652h-9.87488V350.41275h9.87488v18.018a12.07237,12.07237,0,0,1,4.95092-4.59109,13.93173,13.93173,0,0,1,5.91677-1.29946A15.99851,15.99851,0,0,1,264.55723,363.75372Z"/></svg>