<svg width="150" height="50" version="1.1" xmlns="http://www.w3.org/2000/svg"><path fill="rgb(0,0,0)" stroke="rgb(0,0,0)" stroke-width="1" opacity="0" d="M 0 0 L 150 0 L 150 50 L 0 50 L 0 0 Z M 28 4 L 10 15 Q 7 14 8 18 L 12 21 L 11 21 Q 8 22 8 26 L 11 27 Q 14 29 11 30 Q 6 29 8 34 L 28 45 L 32 45 L 49 35 Q 51 34 50 30 L 47 29 L 50 27 L 50 22 L 49 22 Q 46 21 49 19 Q 52 20 50 16 L 36 6 Q 33 3 28 4 Z M 59 15 L 57 17 L 57 35 L 59 36 L 106 36 Q 108 34 108 29 L 108 35 Q 109 37 114 36 Q 116 35 115 30 Q 119 29 117 35 L 119 36 L 142 36 L 143 33 L 143 31 L 144 28 L 142 21 L 135 21 Q 137 15 131 17 L 129 21 L 123 21 L 123 17 Q 120 18 119 15 L 110 15 L 108 17 L 108 21 L 95 21 Q 96 16 94 15 Q 89 14 88 17 Q 90 22 87 21 L 85 21 L 70 21 Q 68 21 69 17 L 68 15 L 59 15 Z "></path><path fill="rgb(0,0,0)" stroke="rgb(0,0,0)" stroke-width="1" opacity="0" d="M 28.5 10 Q 36.3 11.7 41 16.5 L 29.5 24 L 17 16.5 L 28.5 10 Z "></path><path fill="rgb(0,0,0)" stroke="rgb(0,0,0)" stroke-width="1" opacity="0" d="M 17.5 24 L 30.5 30 L 37.5 25 L 41.5 24 L 41.5 25 L 28.5 31 L 17.5 25 L 17.5 24 Z "></path><path fill="rgb(0,0,0)" stroke="rgb(0,0,0)" stroke-width="1" opacity="0" d="M 18.5 32 L 27.5 37 L 31.5 37 L 40.5 32 L 40.5 33 L 28.5 39 L 22.5 35 L 20 35 Q 21.1 32.3 18.5 33 L 18.5 32 Z "></path><path fill="rgb(9,9,9)" stroke="rgb(9,9,9)" stroke-width="1" opacity="1" d="M 60 17 L 65 17.5 L 60.5 19 L 60 17 Z "></path><path fill="rgb(9,9,9)" stroke="rgb(9,9,9)" stroke-width="1" opacity="1" d="M 111.5 17 L 116 17.5 L 111.5 18 L 111.5 17 Z "></path><path fill="rgb(9,9,9)" stroke="rgb(9,9,9)" stroke-width="1" opacity="1" d="M 16.5 19 L 17.5 21 L 16.5 19 Z "></path><path fill="rgb(9,9,9)" stroke="rgb(9,9,9)" stroke-width="1" opacity="1" d="M 42.5 19 L 41.5 21 L 40 20.5 L 42.5 19 Z "></path><path fill="rgb(9,9,9)" stroke="rgb(9,9,9)" stroke-width="1" opacity="1" d="M 70.5 24 L 75 24.5 L 70.5 25 L 70.5 24 Z "></path><path fill="rgb(9,9,9)" stroke="rgb(9,9,9)" stroke-width="1" opacity="1" d="M 80.5 24 L 83 24.5 L 80.5 25 L 80.5 24 Z "></path><path fill="rgb(9,9,9)" stroke="rgb(9,9,9)" stroke-width="1" opacity="1" d="M 87.5 24 L 92 24.5 L 87.5 25 L 87.5 24 Z "></path><path fill="rgb(9,9,9)" stroke="rgb(9,9,9)" stroke-width="1" opacity="1" d="M 95.5 24 L 100 24.5 L 95.5 25 L 95.5 24 Z "></path><path fill="rgb(9,9,9)" stroke="rgb(9,9,9)" stroke-width="1" opacity="1" d="M 105.5 24 L 108 24.5 L 105.5 25 L 105.5 24 Z "></path><path fill="rgb(9,9,9)" stroke="rgb(9,9,9)" stroke-width="1" opacity="1" d="M 136.5 24 L 140 24.5 L 136.5 25 L 136.5 24 Z "></path><path fill="rgb(9,9,9)" stroke="rgb(9,9,9)" stroke-width="1" opacity="1" d="M 111.5 26 L 117 26.5 L 111.5 27 L 111.5 26 Z "></path><path fill="rgb(9,9,9)" stroke="rgb(9,9,9)" stroke-width="1" opacity="1" d="M 16.5 27 L 17.5 29 L 16.5 27 Z "></path><path fill="rgb(9,9,9)" stroke="rgb(9,9,9)" stroke-width="1" opacity="1" d="M 40.5 28 L 43 29.5 L 41.5 29 L 40.5 28 Z "></path><path fill="rgb(156,156,156)" stroke="rgb(156,156,156)" stroke-width="1" opacity="0.9921568627450981" d="M 20.5 10 L 21.5 12 L 20.5 10 Z "></path><path fill="rgb(156,156,156)" stroke="rgb(156,156,156)" stroke-width="1" opacity="0.9921568627450981" d="M 13.5 16 L 14.5 18 L 13.5 16 Z "></path><path fill="rgb(156,156,156)" stroke="rgb(156,156,156)" stroke-width="1" opacity="0.9921568627450981" d="M 48.5 16 L 47.5 18 L 48.5 16 Z "></path><path fill="rgb(156,156,156)" stroke="rgb(156,156,156)" stroke-width="1" opacity="0.9921568627450981" d="M 110.5 17 L 111 32.5 L 110 32.5 L 110.5 17 Z "></path><path fill="rgb(156,156,156)" stroke="rgb(156,156,156)" stroke-width="1" opacity="0.9921568627450981" d="M 61.5 18 L 65 18.5 L 61.5 19 L 61.5 18 Z "></path><path fill="rgb(156,156,156)" stroke="rgb(156,156,156)" stroke-width="1" opacity="0.9921568627450981" d="M 112.5 18 L 116 18.5 L 112.5 19 L 112.5 18 Z "></path><path fill="rgb(156,156,156)" stroke="rgb(156,156,156)" stroke-width="1" opacity="0.9921568627450981" d="M 117.5 18 L 118 26.5 Q 117.3 28.8 113.5 28 L 113.5 27 L 117 27 L 117.5 18 Z "></path><path fill="rgb(156,156,156)" stroke="rgb(156,156,156)" stroke-width="1" opacity="0.9921568627450981" d="M 19.5 20 L 18.5 22 L 19.5 20 Z "></path><path fill="rgb(156,156,156)" stroke="rgb(156,156,156)" stroke-width="1" opacity="0.9921568627450981" d="M 47.5 23 L 48.5 25 L 47.5 23 Z "></path><path fill="rgb(156,156,156)" stroke="rgb(156,156,156)" stroke-width="1" opacity="0.9921568627450981" d="M 124.5 23 L 123.5 25 L 124.5 23 Z "></path><path fill="rgb(156,156,156)" stroke="rgb(156,156,156)" stroke-width="1" opacity="0.9921568627450981" d="M 77.5 24 L 78 33.5 L 77 33.5 L 77.5 24 Z "></path><path fill="rgb(156,156,156)" stroke="rgb(156,156,156)" stroke-width="1" opacity="0.9921568627450981" d="M 75.5 25 L 76 27.5 L 75 27.5 L 75.5 25 Z "></path><path fill="rgb(156,156,156)" stroke="rgb(156,156,156)" stroke-width="1" opacity="0.9921568627450981" d="M 94.5 25 L 95 32.5 L 94 32.5 L 94.5 25 Z "></path><path fill="rgb(156,156,156)" stroke="rgb(156,156,156)" stroke-width="1" opacity="0.9921568627450981" d="M 125.5 25 L 124.5 27 L 125.5 25 Z "></path><path fill="rgb(156,156,156)" stroke="rgb(156,156,156)" stroke-width="1" opacity="0.9921568627450981" d="M 104.5 26 L 105 32.5 L 104 32.5 L 104.5 26 Z "></path><path fill="rgb(156,156,156)" stroke="rgb(156,156,156)" stroke-width="1" opacity="0.9921568627450981" d="M 136.5 29 L 137 31.5 L 136 31.5 L 136.5 29 Z "></path><path fill="rgb(156,156,156)" stroke="rgb(156,156,156)" stroke-width="1" opacity="0.9921568627450981" d="M 23.5 30 L 22.5 32 L 23.5 30 Z "></path><path fill="rgb(156,156,156)" stroke="rgb(156,156,156)" stroke-width="1" opacity="0.9921568627450981" d="M 74.5 30 L 76 32.5 L 75 32.5 L 74.5 30 Z "></path><path fill="rgb(156,156,156)" stroke="rgb(156,156,156)" stroke-width="1" opacity="0.9921568627450981" d="M 66.5 32 L 65.5 34 L 66.5 32 Z "></path><path fill="rgb(156,156,156)" stroke="rgb(156,156,156)" stroke-width="1" opacity="0.9921568627450981" d="M 123.5 32 L 124.5 34 L 123.5 32 Z "></path><path fill="rgb(156,156,156)" stroke="rgb(156,156,156)" stroke-width="1" opacity="0.9921568627450981" d="M 18.5 35 L 17.5 37 L 18.5 35 Z "></path><path fill="rgb(98,98,98)" stroke="rgb(98,98,98)" stroke-width="1" opacity="0.996078431372549" d="M 34.5 8 L 33.5 10 L 34.5 8 Z "></path><path fill="rgb(98,98,98)" stroke="rgb(98,98,98)" stroke-width="1" opacity="0.996078431372549" d="M 22.5 9 L 23.5 11 L 22.5 9 Z "></path><path fill="rgb(98,98,98)" stroke="rgb(98,98,98)" stroke-width="1" opacity="0.996078431372549" d="M 13.5 14 L 14.5 16 L 13.5 14 Z "></path><path fill="rgb(98,98,98)" stroke="rgb(98,98,98)" stroke-width="1" opacity="0.996078431372549" d="M 44.5 15 L 47 15.5 L 44 17.5 L 44.5 15 Z "></path><path fill="rgb(98,98,98)" stroke="rgb(98,98,98)" stroke-width="1" opacity="0.996078431372549" d="M 10.5 16 L 11.5 18 L 10.5 16 Z "></path><path fill="rgb(98,98,98)" stroke="rgb(98,98,98)" stroke-width="1" opacity="0.996078431372549" d="M 42.5 18 L 44 19.5 L 43.5 22 L 42 20.5 L 42.5 18 Z "></path><path fill="rgb(98,98,98)" stroke="rgb(98,98,98)" stroke-width="1" opacity="0.996078431372549" d="M 66.5 18 L 67 24.5 L 65 23.5 Q 64 19 66.5 18 Z "></path><path fill="rgb(98,98,98)" stroke="rgb(98,98,98)" stroke-width="1" opacity="0.996078431372549" d="M 132.5 19 L 131.5 21 L 132.5 19 Z "></path><path fill="rgb(98,98,98)" stroke="rgb(98,98,98)" stroke-width="1" opacity="0.996078431372549" d="M 11.5 23 L 10.5 25 L 11.5 23 Z "></path><path fill="rgb(98,98,98)" stroke="rgb(98,98,98)" stroke-width="1" opacity="0.996078431372549" d="M 70.5 23 L 75 23.5 L 70 24.5 L 71 27 L 74 27.5 L 71.5 28 L 69 24.5 L 70.5 23 Z "></path><path fill="rgb(98,98,98)" stroke="rgb(98,98,98)" stroke-width="1" opacity="0.996078431372549" d="M 82.5 23 L 84 24.5 L 84 32.5 L 82 33.5 L 82 25.5 L 83 24.5 L 82.5 23 Z "></path><path fill="rgb(98,98,98)" stroke="rgb(98,98,98)" stroke-width="1" opacity="0.996078431372549" d="M 96.5 23 Q 100.3 22.3 101 24.5 L 100.5 28 L 100 24 Q 95.6 25 96.5 23 Z "></path><path fill="rgb(98,98,98)" stroke="rgb(98,98,98)" stroke-width="1" opacity="0.996078431372549" d="M 128.5 23 L 129 25 L 127 24.5 L 128.5 23 Z "></path><path fill="rgb(98,98,98)" stroke="rgb(98,98,98)" stroke-width="1" opacity="0.996078431372549" d="M 131.5 23 L 133 24.5 L 133 32.5 L 131 33.5 L 132 32.5 L 132 24.5 L 131.5 23 Z "></path><path fill="rgb(98,98,98)" stroke="rgb(98,98,98)" stroke-width="1" opacity="0.996078431372549" d="M 136.5 23 L 140 23.5 L 135.5 25 L 136.5 23 Z "></path><path fill="rgb(98,98,98)" stroke="rgb(98,98,98)" stroke-width="1" opacity="0.996078431372549" d="M 26.5 24 L 25.5 26 L 26.5 24 Z "></path><path fill="rgb(98,98,98)" stroke="rgb(98,98,98)" stroke-width="1" opacity="0.996078431372549" d="M 45.5 24 L 46.5 26 L 44 25.5 L 45.5 24 Z "></path><path fill="rgb(98,98,98)" stroke="rgb(98,98,98)" stroke-width="1" opacity="0.996078431372549" d="M 86.5 24 L 88 25.5 L 88 32 L 91 33.5 L 87.5 34 Q 84.7 32.8 87 31.5 Q 87.5 25.5 86.5 24 Z "></path><path fill="rgb(98,98,98)" stroke="rgb(98,98,98)" stroke-width="1" opacity="0.996078431372549" d="M 108.5 25 L 107.5 27 L 108.5 25 Z "></path><path fill="rgb(98,98,98)" stroke="rgb(98,98,98)" stroke-width="1" opacity="0.996078431372549" d="M 16.5 26 L 15.5 28 L 16.5 26 Z "></path><path fill="rgb(98,98,98)" stroke="rgb(98,98,98)" stroke-width="1" opacity="0.996078431372549" d="M 96.5 27 L 99 27.5 L 96.5 28 L 96.5 27 Z "></path><path fill="rgb(98,98,98)" stroke="rgb(98,98,98)" stroke-width="1" opacity="0.996078431372549" d="M 137.5 27 L 141 28.5 L 139.5 28 Q 136.5 28.5 137.5 27 Z "></path><path fill="rgb(98,98,98)" stroke="rgb(98,98,98)" stroke-width="1" opacity="0.996078431372549" d="M 42.5 28 L 41.5 30 L 42.5 28 Z "></path><path fill="rgb(98,98,98)" stroke="rgb(98,98,98)" stroke-width="1" opacity="0.996078431372549" d="M 14.5 29 L 15.5 31 L 14.5 29 Z "></path><path fill="rgb(98,98,98)" stroke="rgb(98,98,98)" stroke-width="1" opacity="0.996078431372549" d="M 70.5 29 L 71 32 L 75 33.5 L 73.5 33 L 70 31.5 L 70.5 29 Z "></path><path fill="rgb(98,98,98)" stroke="rgb(98,98,98)" stroke-width="1" opacity="0.996078431372549" d="M 124.5 30 L 127 30.5 L 124.5 31 L 124.5 30 Z "></path><path fill="rgb(98,98,98)" stroke="rgb(98,98,98)" stroke-width="1" opacity="0.996078431372549" d="M 33.5 31 L 34.5 33 L 33.5 31 Z "></path><path fill="rgb(98,98,98)" stroke="rgb(98,98,98)" stroke-width="1" opacity="0.996078431372549" d="M 96.5 32 L 99 32.5 L 95.5 34 L 96.5 32 Z "></path><path fill="rgb(98,98,98)" stroke="rgb(98,98,98)" stroke-width="1" opacity="0.996078431372549" d="M 127.5 32 Q 129.8 31.3 129 33.5 L 127.5 32 Z "></path><path fill="rgb(98,98,98)" stroke="rgb(98,98,98)" stroke-width="1" opacity="0.996078431372549" d="M 137.5 32 L 140 32.5 L 137.5 33 L 137.5 32 Z "></path><path fill="rgb(98,98,98)" stroke="rgb(98,98,98)" stroke-width="1" opacity="0.996078431372549" d="M 43.5 33 L 44.5 35 L 43.5 33 Z "></path><path fill="rgb(98,98,98)" stroke="rgb(98,98,98)" stroke-width="1" opacity="0.996078431372549" d="M 20.5 36 L 19.5 38 L 20.5 36 Z "></path><path fill="rgb(98,98,98)" stroke="rgb(98,98,98)" stroke-width="1" opacity="0.996078431372549" d="M 38.5 36 L 39.5 38 L 38.5 36 Z "></path><path fill="rgb(98,98,98)" stroke="rgb(98,98,98)" stroke-width="1" opacity="0.996078431372549" d="M 25.5 39 L 24.5 41 L 25.5 39 Z "></path><path fill="rgb(98,98,98)" stroke="rgb(98,98,98)" stroke-width="1" opacity="0.996078431372549" d="M 29.5 41 L 30.5 43 L 29.5 41 Z "></path><path fill="rgb(23,23,23)" stroke="rgb(23,23,23)" stroke-width="1" opacity="1" d="M 28.5 6 L 27.5 8 L 28.5 6 Z "></path><path fill="rgb(23,23,23)" stroke="rgb(23,23,23)" stroke-width="1" opacity="1" d="M 25.5 8 L 24.5 10 L 25.5 8 Z "></path><path fill="rgb(23,23,23)" stroke="rgb(23,23,23)" stroke-width="1" opacity="1" d="M 35.5 9 L 36.5 11 L 35.5 9 Z "></path><path fill="rgb(23,23,23)" stroke="rgb(23,23,23)" stroke-width="1" opacity="1" d="M 21.5 10 L 20.5 12 L 21.5 10 Z "></path><path fill="rgb(23,23,23)" stroke="rgb(23,23,23)" stroke-width="1" opacity="1" d="M 16.5 13 L 15.5 15 L 13 16.5 L 12.5 18 L 12 16.5 L 16.5 13 Z "></path><path fill="rgb(23,23,23)" stroke="rgb(23,23,23)" stroke-width="1" opacity="1" d="M 91.5 17 L 92 23.5 L 91 23.5 L 91.5 17 Z "></path><path fill="rgb(23,23,23)" stroke="rgb(23,23,23)" stroke-width="1" opacity="1" d="M 111.5 18 L 112 25.5 L 111 25.5 L 111.5 18 Z "></path><path fill="rgb(23,23,23)" stroke="rgb(23,23,23)" stroke-width="1" opacity="1" d="M 60.5 19 L 61 32.5 L 60 32.5 L 60.5 19 Z "></path><path fill="rgb(23,23,23)" stroke="rgb(23,23,23)" stroke-width="1" opacity="1" d="M 18.5 20 L 22 22.5 L 20.5 22 L 18.5 20 Z "></path><path fill="rgb(23,23,23)" stroke="rgb(23,23,23)" stroke-width="1" opacity="1" d="M 38.5 21 L 37.5 23 L 35.5 24 L 36.5 22 L 38.5 21 Z "></path><path fill="rgb(23,23,23)" stroke="rgb(23,23,23)" stroke-width="1" opacity="1" d="M 42.5 21 L 45 22.5 L 43.5 23 L 42.5 21 Z "></path><path fill="rgb(23,23,23)" stroke="rgb(23,23,23)" stroke-width="1" opacity="1" d="M 23.5 23 L 27 25.5 L 25.5 25 L 23.5 23 Z "></path><path fill="rgb(23,23,23)" stroke="rgb(23,23,23)" stroke-width="1" opacity="1" d="M 79.5 24 L 78.5 26 L 79.5 24 Z "></path><path fill="rgb(23,23,23)" stroke="rgb(23,23,23)" stroke-width="1" opacity="1" d="M 120.5 24 L 121 32.5 L 120 32.5 L 120.5 24 Z "></path><path fill="rgb(23,23,23)" stroke="rgb(23,23,23)" stroke-width="1" opacity="1" d="M 91.5 25 L 92 31.5 L 90 32.5 L 91.5 25 Z "></path><path fill="rgb(23,23,23)" stroke="rgb(23,23,23)" stroke-width="1" opacity="1" d="M 140.5 25 L 141 27.5 L 140 27.5 L 140.5 25 Z "></path><path fill="rgb(23,23,23)" stroke="rgb(23,23,23)" stroke-width="1" opacity="1" d="M 111.5 27 L 112 32.5 L 111 32.5 L 111.5 27 Z "></path><path fill="rgb(23,23,23)" stroke="rgb(23,23,23)" stroke-width="1" opacity="1" d="M 15.5 29 L 17 29.5 L 14.5 31 L 15.5 29 Z "></path><path fill="rgb(23,23,23)" stroke="rgb(23,23,23)" stroke-width="1" opacity="1" d="M 22.5 30 L 23.5 32 L 22.5 30 Z "></path><path fill="rgb(23,23,23)" stroke="rgb(23,23,23)" stroke-width="1" opacity="1" d="M 34.5 31 L 33.5 33 L 34.5 31 Z "></path><path fill="rgb(23,23,23)" stroke="rgb(23,23,23)" stroke-width="1" opacity="1" d="M 27.5 33 L 28.5 35 L 27.5 33 Z "></path><path fill="rgb(23,23,23)" stroke="rgb(23,23,23)" stroke-width="1" opacity="1" d="M 17.5 35 L 21 37.5 L 19.5 37 L 17.5 35 Z "></path><path fill="rgb(23,23,23)" stroke="rgb(23,23,23)" stroke-width="1" opacity="1" d="M 37.5 37 L 36.5 39 L 37.5 37 Z "></path><path fill="rgb(23,23,23)" stroke="rgb(23,23,23)" stroke-width="1" opacity="1" d="M 22.5 38 L 25 39.5 L 23.5 40 L 22.5 38 Z "></path><path fill="rgb(23,23,23)" stroke="rgb(23,23,23)" stroke-width="1" opacity="1" d="M 32.5 40 L 31.5 42 L 29.5 43 L 30.5 41 L 32.5 40 Z "></path><path fill="rgb(205,205,205)" stroke="rgb(205,205,205)" stroke-width="1" opacity="0.9686274509803922" d="M 27.5 8 L 26.5 10 L 27.5 8 Z "></path><path fill="rgb(205,205,205)" stroke="rgb(205,205,205)" stroke-width="1" opacity="0.9686274509803922" d="M 39.5 10 L 40.5 12 L 39.5 10 Z "></path><path fill="rgb(205,205,205)" stroke="rgb(205,205,205)" stroke-width="1" opacity="0.9686274509803922" d="M 17.5 11 L 16.5 13 L 17.5 11 Z "></path><path fill="rgb(205,205,205)" stroke="rgb(205,205,205)" stroke-width="1" opacity="0.9686274509803922" d="M 36.5 11 L 37.5 13 L 36.5 11 Z "></path><path fill="rgb(205,205,205)" stroke="rgb(205,205,205)" stroke-width="1" opacity="0.9686274509803922" d="M 15.5 15 L 15.5 18 Q 12.5 16.5 15.5 15 Z "></path><path fill="rgb(205,205,205)" stroke="rgb(205,205,205)" stroke-width="1" opacity="0.9686274509803922" d="M 44.5 16 L 43.5 18 L 44.5 16 Z "></path><path fill="rgb(205,205,205)" stroke="rgb(205,205,205)" stroke-width="1" opacity="0.9686274509803922" d="M 60.5 16 L 66 16.5 L 60 17 L 59.5 34 L 59 17.5 L 60.5 16 Z "></path><path fill="rgb(205,205,205)" stroke="rgb(205,205,205)" stroke-width="1" opacity="0.9686274509803922" d="M 91.5 16 L 93 17.5 L 93.5 25 L 94.5 23 L 95 24.5 L 92.5 34 L 91.5 17 L 90.5 23 L 90 17.5 L 91.5 16 Z "></path><path fill="rgb(205,205,205)" stroke="rgb(205,205,205)" stroke-width="1" opacity="0.9686274509803922" d="M 111.5 16 Q 116.8 14.8 118 17.5 L 116.5 17 Q 110.5 18.2 111.5 16 Z "></path><path fill="rgb(205,205,205)" stroke="rgb(205,205,205)" stroke-width="1" opacity="0.9686274509803922" d="M 17.5 18 L 18.5 20 L 17.5 18 Z "></path><path fill="rgb(205,205,205)" stroke="rgb(205,205,205)" stroke-width="1" opacity="0.9686274509803922" d="M 120.5 18 L 122 20.5 L 121 20.5 L 120.5 19 L 119.5 21 L 119 19.5 L 120.5 18 Z "></path><path fill="rgb(205,205,205)" stroke="rgb(205,205,205)" stroke-width="1" opacity="0.9686274509803922" d="M 14.5 19 L 15.5 21 L 14.5 19 Z "></path><path fill="rgb(205,205,205)" stroke="rgb(205,205,205)" stroke-width="1" opacity="0.9686274509803922" d="M 44.5 19 L 44.5 22 Q 41.5 20.5 44.5 19 Z "></path><path fill="rgb(205,205,205)" stroke="rgb(205,205,205)" stroke-width="1" opacity="0.9686274509803922" d="M 61.5 19 Q 61 26 64 29.5 L 62 29.5 L 61.5 34 L 61.5 19 Z "></path><path fill="rgb(205,205,205)" stroke="rgb(205,205,205)" stroke-width="1" opacity="0.9686274509803922" d="M 112.5 19 L 113 25 Q 117 26.4 115 19.5 L 116 19.5 Q 117.3 24.8 114.5 26 L 112 24.5 L 112.5 19 Z "></path><path fill="rgb(205,205,205)" stroke="rgb(205,205,205)" stroke-width="1" opacity="0.9686274509803922" d="M 13.5 21 L 12.5 23 L 13.5 21 Z "></path><path fill="rgb(205,205,205)" stroke="rgb(205,205,205)" stroke-width="1" opacity="0.9686274509803922" d="M 21.5 23 L 22.5 25 L 21.5 23 Z "></path><path fill="rgb(205,205,205)" stroke="rgb(205,205,205)" stroke-width="1" opacity="0.9686274509803922" d="M 32.5 23 L 31.5 25 L 32.5 23 Z "></path><path fill="rgb(205,205,205)" stroke="rgb(205,205,205)" stroke-width="1" opacity="0.9686274509803922" d="M 43.5 23 L 44.5 25 L 43.5 23 Z "></path><path fill="rgb(205,205,205)" stroke="rgb(205,205,205)" stroke-width="1" opacity="0.9686274509803922" d="M 75.5 23 L 77 27.5 L 75 29.5 L 76.5 32 L 74 30.5 L 73.5 32 L 73 30 L 71 29.5 L 76 27.5 L 75.5 23 Z "></path><path fill="rgb(205,205,205)" stroke="rgb(205,205,205)" stroke-width="1" opacity="0.9686274509803922" d="M 108.5 23 L 110 26.5 L 109 26.5 L 108.5 23 Z "></path><path fill="rgb(205,205,205)" stroke="rgb(205,205,205)" stroke-width="1" opacity="0.9686274509803922" d="M 119.5 23 L 120 33.5 L 119 33.5 L 118 24.5 L 119.5 23 Z "></path><path fill="rgb(205,205,205)" stroke="rgb(205,205,205)" stroke-width="1" opacity="0.9686274509803922" d="M 121.5 23 L 122.5 32 L 124 31.5 L 123 34 L 121 33.5 L 121.5 23 Z "></path><path fill="rgb(205,205,205)" stroke="rgb(205,205,205)" stroke-width="1" opacity="0.9686274509803922" d="M 127.5 23 L 127 24.5 L 126.5 26 L 125.5 24 L 127.5 23 Z "></path><path fill="rgb(205,205,205)" stroke="rgb(205,205,205)" stroke-width="1" opacity="0.9686274509803922" d="M 129.5 23 L 131 24.5 L 131 34 Q 128.3 35.1 129 32.5 Q 131.5 31 130 25.5 L 128 25.5 L 129.5 23 Z "></path><path fill="rgb(205,205,205)" stroke="rgb(205,205,205)" stroke-width="1" opacity="0.9686274509803922" d="M 13.5 24 L 16 25.5 L 14.5 25 L 13.5 24 Z "></path><path fill="rgb(205,205,205)" stroke="rgb(205,205,205)" stroke-width="1" opacity="0.9686274509803922" d="M 102.5 24 L 103 33.5 L 102 33.5 L 101 25.5 L 102.5 24 Z "></path><path fill="rgb(205,205,205)" stroke="rgb(205,205,205)" stroke-width="1" opacity="0.9686274509803922" d="M 141.5 24 L 142 28.5 L 142 30.5 L 141.5 33 L 140.5 30 L 139.5 32 L 139 30 L 137 29.5 L 141 29 L 141.5 24 Z "></path><path fill="rgb(205,205,205)" stroke="rgb(205,205,205)" stroke-width="1" opacity="0.9686274509803922" d="M 68.5 25 L 69 31.5 L 68 31.5 L 68.5 25 Z "></path><path fill="rgb(205,205,205)" stroke="rgb(205,205,205)" stroke-width="1" opacity="0.9686274509803922" d="M 71 25 Q 75.1 23.7 74 27 Q 69.9 28.3 71 25 Z "></path><path fill="rgb(205,205,205)" stroke="rgb(205,205,205)" stroke-width="1" opacity="0.9686274509803922" d="M 84 25 L 86 25.5 L 86 32 L 84 31.5 L 84 25 Z "></path><path fill="rgb(205,205,205)" stroke="rgb(205,205,205)" stroke-width="1" opacity="0.9686274509803922" d="M 88.5 25 L 91 25 L 91 30.5 L 88.5 32 L 88.5 31 L 90 31 L 90 26 L 88.5 25 Z "></path><path fill="rgb(205,205,205)" stroke="rgb(205,205,205)" stroke-width="1" opacity="0.9686274509803922" d="M 96 25 Q 100.1 23.7 99 27 Q 94.9 28.3 96 25 Z "></path><path fill="rgb(205,205,205)" stroke="rgb(205,205,205)" stroke-width="1" opacity="0.9686274509803922" d="M 105.5 25 Q 107.8 24.3 107 26.5 L 105.5 25 Z "></path><path fill="rgb(205,205,205)" stroke="rgb(205,205,205)" stroke-width="1" opacity="0.9686274509803922" d="M 134.5 25 L 135 31.5 L 134 31.5 L 134.5 25 Z "></path><path fill="rgb(205,205,205)" stroke="rgb(205,205,205)" stroke-width="1" opacity="0.9686274509803922" d="M 137 25 Q 141.1 23.7 140 27 Q 135.9 28.3 137 25 Z "></path><path fill="rgb(205,205,205)" stroke="rgb(205,205,205)" stroke-width="1" opacity="0.9686274509803922" d="M 45.5 26 L 44.5 30 Q 41 28 45.5 26 Z "></path><path fill="rgb(205,205,205)" stroke="rgb(205,205,205)" stroke-width="1" opacity="0.9686274509803922" d="M 79.5 26 L 80 33.5 L 79 33.5 L 79.5 26 Z "></path><path fill="rgb(205,205,205)" stroke="rgb(205,205,205)" stroke-width="1" opacity="0.9686274509803922" d="M 14.5 27 L 15.5 29 L 14.5 27 Z "></path><path fill="rgb(205,205,205)" stroke="rgb(205,205,205)" stroke-width="1" opacity="0.9686274509803922" d="M 37.5 28 L 36.5 30 L 37.5 28 Z "></path><path fill="rgb(205,205,205)" stroke="rgb(205,205,205)" stroke-width="1" opacity="0.9686274509803922" d="M 112.5 28 L 113 33.5 L 112 33.5 L 112.5 28 Z "></path><path fill="rgb(205,205,205)" stroke="rgb(205,205,205)" stroke-width="1" opacity="0.9686274509803922" d="M 96 29 L 100 29.5 L 97 30 L 96.5 32 L 96 29 Z "></path><path fill="rgb(205,205,205)" stroke="rgb(205,205,205)" stroke-width="1" opacity="0.9686274509803922" d="M 26.5 31 L 27.5 33 L 26.5 31 Z "></path><path fill="rgb(205,205,205)" stroke="rgb(205,205,205)" stroke-width="1" opacity="0.9686274509803922" d="M 43.5 31 Q 45.8 30.3 45 32.5 L 43.5 31 Z "></path><path fill="rgb(205,205,205)" stroke="rgb(205,205,205)" stroke-width="1" opacity="0.9686274509803922" d="M 48.5 31 L 49 32.5 L 47 33.5 L 48.5 31 Z "></path><path fill="rgb(205,205,205)" stroke="rgb(205,205,205)" stroke-width="1" opacity="0.9686274509803922" d="M 126.5 31 L 128 33.5 L 126.5 33 L 125 32.5 L 126.5 31 Z "></path><path fill="rgb(205,205,205)" stroke="rgb(205,205,205)" stroke-width="1" opacity="0.9686274509803922" d="M 69.5 33 L 74 34.5 L 70.5 35 L 69.5 33 Z "></path><path fill="rgb(205,205,205)" stroke="rgb(205,205,205)" stroke-width="1" opacity="0.9686274509803922" d="M 100.5 33 L 99.5 35 L 96 34.5 L 100.5 33 Z "></path><path fill="rgb(205,205,205)" stroke="rgb(205,205,205)" stroke-width="1" opacity="0.9686274509803922" d="M 31.5 34 L 30.5 36 L 31.5 34 Z "></path><path fill="rgb(205,205,205)" stroke="rgb(205,205,205)" stroke-width="1" opacity="0.9686274509803922" d="M 136.5 34 L 140 34.5 L 136.5 35 L 136.5 34 Z "></path><path fill="rgb(205,205,205)" stroke="rgb(205,205,205)" stroke-width="1" opacity="0.9686274509803922" d="M 43.5 35 L 42.5 37 L 40.5 38 L 41.5 36 L 43.5 35 Z "></path><path fill="rgb(205,205,205)" stroke="rgb(205,205,205)" stroke-width="1" opacity="0.9686274509803922" d="M 20.5 38 L 21.5 40 L 20.5 38 Z "></path><path fill="rgb(205,205,205)" stroke="rgb(205,205,205)" stroke-width="1" opacity="0.9686274509803922" d="M 33.5 38 L 32.5 40 L 33.5 38 Z "></path><path fill="rgb(205,205,205)" stroke="rgb(205,205,205)" stroke-width="1" opacity="0.9686274509803922" d="M 27.5 42 L 30 43.5 L 28.5 44 L 27.5 42 Z "></path><path fill="rgb(47,47,47)" stroke="rgb(47,47,47)" stroke-width="1" opacity="0.996078431372549" d="M 15.5 18 L 16.5 20 L 18 19.5 L 15.5 23 L 15 21.5 L 15 19.5 L 15.5 18 Z "></path><path fill="rgb(47,47,47)" stroke="rgb(47,47,47)" stroke-width="1" opacity="0.996078431372549" d="M 116.5 19 L 117 24.5 L 116 24.5 L 116.5 19 Z "></path><path fill="rgb(47,47,47)" stroke="rgb(47,47,47)" stroke-width="1" opacity="0.996078431372549" d="M 63.5 24 L 66 25.5 L 63.5 27 L 63.5 24 Z "></path><path fill="rgb(47,47,47)" stroke="rgb(47,47,47)" stroke-width="1" opacity="0.996078431372549" d="M 103.5 24 L 104 32.5 L 103 32.5 L 103.5 24 Z "></path><path fill="rgb(47,47,47)" stroke="rgb(47,47,47)" stroke-width="1" opacity="0.996078431372549" d="M 124.5 24 L 126 27.5 L 125 27.5 L 124.5 24 Z "></path><path fill="rgb(47,47,47)" stroke="rgb(47,47,47)" stroke-width="1" opacity="0.996078431372549" d="M 131.5 24 L 132 32.5 L 131 32.5 L 131.5 24 Z "></path><path fill="rgb(47,47,47)" stroke="rgb(47,47,47)" stroke-width="1" opacity="0.996078431372549" d="M 69.5 25 L 71.5 28 L 75 28.5 L 71.5 29 L 70 28.5 Q 69.3 32.3 71.5 33 L 74 33.5 L 70.5 34 L 69 32.5 L 69.5 25 Z "></path><path fill="rgb(47,47,47)" stroke="rgb(47,47,47)" stroke-width="1" opacity="0.996078431372549" d="M 86.5 25 L 87 31.5 L 86 31.5 L 86.5 25 Z "></path><path fill="rgb(47,47,47)" stroke="rgb(47,47,47)" stroke-width="1" opacity="0.996078431372549" d="M 135.5 25 L 137.5 28 L 140 28.5 L 137.5 29 L 136 28.5 Q 135.3 32.3 137.5 33 L 140.5 32 L 139.5 34 Q 135.8 34.8 135 32.5 L 135.5 25 Z "></path><path fill="rgb(47,47,47)" stroke="rgb(47,47,47)" stroke-width="1" opacity="0.996078431372549" d="M 78.5 26 L 79 32.5 L 78 32.5 L 78.5 26 Z "></path><path fill="rgb(47,47,47)" stroke="rgb(47,47,47)" stroke-width="1" opacity="0.996078431372549" d="M 17.5 27 L 16.5 29 L 17.5 27 Z "></path><path fill="rgb(47,47,47)" stroke="rgb(47,47,47)" stroke-width="1" opacity="0.996078431372549" d="M 96.5 28 L 100 28.5 L 96 29 L 95.5 32 L 95 29.5 L 96.5 28 Z "></path><path fill="rgb(47,47,47)" stroke="rgb(47,47,47)" stroke-width="1" opacity="0.996078431372549" d="M 96.5 33 L 100 33.5 L 96.5 34 L 96.5 33 Z "></path><path fill="rgb(251,251,251)" stroke="rgb(251,251,251)" stroke-width="1" opacity="0.41568627450980394" d="M 27.5 4 Q 33.2 3.3 35.5 6 L 50 15.5 Q 51.5 19.9 48.5 19 Q 45.5 20.5 48.5 22 L 50 22 L 50 27 L 47 28.5 L 50 30 Q 51 33.8 48.5 35 L 31.5 45 L 27.5 45 L 8 34 Q 5.9 28.8 10.5 30 Q 13.5 28.5 10.5 27 L 8 25.5 Q 7.5 21.5 10.5 21 L 12 20.5 L 8 17.5 Q 6.9 14.2 9.5 15 L 27.5 4 Z M 29 5 L 12 15 Q 9 14 10 18 L 15 21 L 12 23 Q 9 22 10 25 L 15 29 L 12 30 L 10 33 L 29 44 L 48 34 L 49 31 L 44 29 L 48 26 L 49 23 L 44 21 L 49 17 Q 40 9 29 5 Z "></path><path fill="rgb(251,251,251)" stroke="rgb(251,251,251)" stroke-width="1" opacity="0.41568627450980394" d="M 28.5 8 L 44 16.5 L 30.5 25 L 28.5 25 L 15 16.5 L 28.5 8 Z M 29 10 L 17 17 L 30 24 L 41 17 Q 36 12 29 10 Z "></path><path fill="rgb(251,251,251)" stroke="rgb(251,251,251)" stroke-width="1" opacity="0.41568627450980394" d="M 58.5 15 L 67.5 15 L 69 16.5 Q 68.5 21 69.5 21 L 84.5 21 L 86.5 21 Q 89.9 21.9 88 16.5 Q 89 14 93.5 15 Q 96.3 16.4 95 21 L 108 21 L 108 16.5 L 109.5 15 L 118.5 15 Q 119.6 17.7 123 17 L 123 21 L 129 21 L 130.5 17 Q 137.3 15 135 21 L 141.5 21 L 144 27.5 L 143 30.5 L 143 32.5 L 141.5 36 L 118.5 36 L 117 34.5 Q 118.7 28.6 115 30 Q 116.3 34.6 113.5 36 Q 109 37 108 34.5 L 107.5 29 Q 108.4 34.4 105.5 36 L 58.5 36 L 57 34.5 L 57 16.5 L 58.5 15 Z M 61 16 L 59 18 L 59 34 L 62 34 L 63 29 L 64 33 L 67 34 Q 68 30 65 28 Q 69 26 67 18 Q 66 15 61 16 Z M 92 16 L 90 18 L 90 23 Q 85 21 86 25 Q 83 26 84 23 L 78 23 L 77 25 L 76 25 L 76 23 L 69 23 L 68 26 Q 67 33 71 35 L 75 34 Q 77 35 76 33 L 77 33 Q 76 36 80 34 L 81 26 Q 84 28 82 34 Q 85 35 84 32 Q 87 31 86 34 L 89 35 L 93 34 L 94 32 L 94 34 L 97 35 Q 100 36 101 34 L 100 30 L 102 27 L 102 34 L 105 34 L 105 27 L 107 27 L 110 27 L 110 34 L 113 34 L 113 28 Q 117 29 119 26 L 119 34 L 126 33 L 133 34 L 133 24 L 132 23 L 130 23 L 127 24 L 123 23 L 125 29 L 123 32 L 122 23 L 119 24 L 118 18 Q 117 15 112 16 L 110 18 L 110 24 Q 108 22 104 23 L 101 25 L 101 23 L 94 23 L 94 25 L 93 18 L 92 16 Z M 121 18 L 119 20 Q 118 23 122 21 L 121 18 Z M 131 18 Q 130 22 133 21 Q 134 17 131 18 Z M 135 23 L 134 26 Q 133 33 137 35 Q 141 36 142 33 L 141 30 L 142 25 Q 140 22 135 23 Z "></path><path fill="rgb(251,251,251)" stroke="rgb(251,251,251)" stroke-width="1" opacity="0.41568627450980394" d="M 62 19 L 65 20.5 L 63.5 24 L 62 24 L 62 19 Z "></path><path fill="rgb(251,251,251)" stroke="rgb(251,251,251)" stroke-width="1" opacity="0.41568627450980394" d="M 113 19 L 115 19 L 115 25 L 113 25 L 113 19 Z "></path><path fill="rgb(251,251,251)" stroke="rgb(251,251,251)" stroke-width="1" opacity="0.41568627450980394" d="M 17.5 22 L 30.5 28 L 40.5 22 L 44 24.5 L 28.5 33 L 15 24.5 Q 14.3 22.3 16.5 23 L 17.5 22 Z M 40 24 L 38 25 L 37 27 L 42 25 L 40 24 Z M 24 27 L 26 30 L 28 30 L 24 27 Z M 35 27 L 33 28 L 32 30 L 36 28 L 35 27 Z M 29 30 L 29 31 L 31 31 L 29 30 Z "></path><path fill="rgb(251,251,251)" stroke="rgb(251,251,251)" stroke-width="1" opacity="0.41568627450980394" d="M 129.5 25 L 130 31.5 L 129 31.5 L 128 26.5 L 129.5 25 Z "></path><path fill="rgb(251,251,251)" stroke="rgb(251,251,251)" stroke-width="1" opacity="0.41568627450980394" d="M 88 26 L 90 26 L 90 31 L 88 31 L 88 26 Z "></path><path fill="rgb(251,251,251)" stroke="rgb(251,251,251)" stroke-width="1" opacity="0.41568627450980394" d="M 76.5 28 L 77 30.5 L 75 29.5 L 76.5 28 Z "></path><path fill="rgb(251,251,251)" stroke="rgb(251,251,251)" stroke-width="1" opacity="0.41568627450980394" d="M 17.5 30 L 30.5 36 L 41.5 30 L 43.5 33 L 29.5 41 L 15 32.5 Q 14.3 30.3 16.5 31 L 17.5 30 Z M 20 33 L 20 35 L 23 35 L 20 33 Z M 38 33 L 37 35 L 39 34 L 38 33 Z M 34 35 L 33 37 L 36 36 L 34 35 Z M 26 36 L 29 39 L 32 38 L 26 36 Z "></path><path fill="rgb(251,251,251)" stroke="rgb(251,251,251)" stroke-width="1" opacity="0.41568627450980394" d="M 71.5 30 Q 73.8 29.3 73 31.5 L 71.5 30 Z "></path><path fill="rgb(251,251,251)" stroke="rgb(251,251,251)" stroke-width="1" opacity="0.41568627450980394" d="M 97 30 L 99 30.5 L 97 31.5 L 97 30 Z "></path><path fill="rgb(251,251,251)" stroke="rgb(251,251,251)" stroke-width="1" opacity="0.41568627450980394" d="M 137.5 30 Q 139.8 29.3 139 31.5 L 137.5 30 Z "></path></svg>