<?xml version="1.0" standalone="no"?>
<!DOCTYPE svg PUBLIC "-//W3C//DTD SVG 20010904//EN"
 "http://www.w3.org/TR/2001/REC-SVG-20010904/DTD/svg10.dtd">
<svg version="1.0" xmlns="http://www.w3.org/2000/svg"
 width="512.000000pt" height="512.000000pt" viewBox="0 0 512.000000 512.000000"
 preserveAspectRatio="xMidYMid meet">

<g transform="translate(0.000000,512.000000) scale(0.100000,-0.100000)"
fill="#000000" stroke="none">
<path d="M2390 4604 c-111 -13 -258 -37 -270 -44 -10 -6 -3 -16 25 -42 21 -18
44 -37 52 -41 7 -5 11 -12 8 -18 -10 -14 11 -11 196 30 96 21 237 51 314 67
124 25 136 29 105 36 -39 9 -375 19 -430 12z"/>
<path d="M2800 4555 c-58 -13 -207 -45 -332 -71 -126 -26 -228 -50 -228 -53 0
-3 172 -91 383 -195 210 -104 376 -191 368 -194 -7 -2 -191 84 -408 192 -218
108 -397 195 -398 194 -24 -32 -145 -258 -145 -271 0 -18 -667 -1150 -681
-1155 -5 -2 60 -78 144 -170 83 -91 187 -204 230 -250 42 -46 77 -89 77 -95 0
-16 -41 25 -258 260 -107 117 -197 211 -200 209 -5 -6 50 -450 57 -458 5 -6
284 -32 421 -39 14 -1 -2 -5 -35 -9 -33 -5 -129 -2 -220 5 -88 6 -161 11 -163
10 -1 -1 29 -262 68 -579 38 -318 70 -590 69 -604 -2 -70 -23 69 -84 564 -35
291 -67 550 -71 576 l-6 46 -96 7 c-139 10 -153 27 -19 23 102 -3 107 -3 107
17 0 40 -43 390 -49 397 -3 4 -53 -86 -110 -200 -57 -114 -109 -212 -117 -218
-19 -15 -15 -28 169 -554 163 -468 173 -498 164 -490 -3 3 -83 228 -177 500
-95 272 -174 497 -176 499 -2 2 -6 2 -9 0 -8 -8 -185 -621 -185 -641 0 -11
-18 -79 -40 -152 -22 -73 -40 -141 -40 -152 0 -59 232 -345 393 -486 l57 -50
109 36 c117 39 125 41 117 27 -3 -5 -49 -24 -101 -42 -52 -18 -94 -38 -92 -44
8 -22 240 -170 362 -230 450 -221 966 -274 1430 -146 211 58 429 155 600 268
496 327 820 836 911 1428 22 147 22 433 0 575 -37 233 -90 405 -186 608 -32
67 -61 122 -64 122 -3 0 -207 65 -452 145 -405 132 -520 173 -488 175 6 0 213
-65 460 -145 247 -80 452 -144 457 -142 8 2 -92 153 -151 227 -297 368 -715
632 -1158 730 -106 23 -85 24 -214 -5z m315 -551 c91 -24 160 -60 223 -119 68
-63 106 -127 127 -216 58 -249 -58 -486 -298 -607 l-58 -29 71 -23 c141 -45
260 -155 310 -287 32 -82 39 -229 15 -326 -58 -240 -252 -422 -527 -491 -74
-18 -264 -40 -278 -31 -6 3 -10 57 -10 121 l0 114 63 0 c296 1 501 193 472
444 -9 86 -39 148 -96 201 -79 73 -175 106 -351 120 l-88 7 0 103 0 104 38 6
c166 27 303 86 372 161 68 74 95 143 94 244 0 67 -5 96 -23 138 -30 67 -97
127 -164 147 -66 20 -196 19 -268 -1 l-57 -16 -6 -51 c-4 -29 -11 -85 -18
-124 l-11 -73 -83 0 -84 0 0 211 0 210 37 16 c50 20 177 52 255 63 84 12 268
3 343 -16z m384 -615 c9 -27 9 -30 -4 -19 -8 7 -15 21 -15 31 0 28 7 23 19
-12z m-1059 -1153 l0 -843 73 -7 c39 -3 111 -13 160 -22 l87 -16 0 -94 0 -94
-490 0 -491 0 3 93 3 92 80 16 c44 9 115 20 158 24 l77 8 0 723 0 723 -47 6
c-86 11 -246 37 -259 42 -11 4 -14 29 -14 99 l0 94 330 0 330 0 0 -844z m1313
494 c59 -143 107 -267 107 -277 -1 -16 -2 -16 -10 -2 -8 14 -169 397 -211 501
-13 34 -15 46 -5 42 7 -3 61 -122 119 -264z m-2025 -1052 c-68 -323 -127 -588
-131 -588 -5 0 -5 28 -1 63 4 34 7 73 6 87 -1 14 53 288 121 609 120 576 122
583 125 500 3 -75 -10 -144 -120 -671z m930 -273 c-3 -3 -13 7 -23 22 l-17 28
23 -22 c12 -12 20 -25 17 -28z m-1189 -35 c0 -10 -3 -8 -9 5 -12 27 -12 43 0
25 5 -8 9 -22 9 -30z m1006 -270 c-40 -4 4 -7 130 -9 117 -1 184 -5 175 -11
-9 -4 -283 -11 -610 -13 -327 -3 -554 -2 -505 2 50 4 77 8 61 9 -20 1 -27 5
-20 12 9 9 230 14 659 16 106 0 147 -2 110 -6z"/>
<path d="M1905 4502 c-302 -104 -562 -267 -791 -496 -160 -160 -282 -325 -368
-493 l-26 -52 63 -44 c376 -267 571 -397 579 -385 31 48 129 229 132 245 3 10
57 108 121 218 208 355 538 909 557 937 l18 27 -33 25 c-19 14 -41 26 -49 26
-9 0 -21 7 -28 15 -19 23 -54 18 -175 -23z"/>
<path d="M686 3393 c-22 -45 -86 -221 -86 -239 0 -12 125 -179 227 -304 4 -4
396 127 467 156 l29 11 -62 42 c-34 23 -71 44 -81 46 -11 2 -121 74 -245 159
-124 86 -227 156 -230 156 -2 0 -11 -12 -19 -27z"/>
<path d="M581 3087 c-25 -66 -72 -347 -59 -347 11 0 242 81 261 92 16 8 17 12
6 19 -8 5 -9 9 -4 9 6 0 -3 12 -20 26 -16 15 -23 23 -15 19 8 -3 4 3 -10 16
-14 12 -24 26 -22 30 1 5 -2 8 -7 7 -9 -3 -86 91 -107 130 l-13 26 -10 -27z"/>
<path d="M1236 2965 c-33 -13 -62 -28 -65 -33 -3 -5 -73 -33 -156 -63 -82 -29
-152 -54 -154 -55 -8 -7 231 -294 240 -288 6 3 8 13 5 20 -3 8 41 109 99 224
58 116 105 212 105 215 0 9 -13 5 -74 -20z"/>
<path d="M820 2813 c-3 -7 -72 -37 -155 -66 l-150 -52 -3 -108 -3 -107 43 0
c63 0 511 30 515 34 6 5 -218 276 -227 276 -5 0 -10 8 -12 18 -3 10 -6 12 -8
5z"/>
<path d="M918 2476 c-21 -7 -88 -16 -150 -20 -62 -3 -146 -9 -186 -12 l-73 -6
6 -62 c18 -171 62 -370 115 -516 42 -115 142 -322 150 -313 8 8 280 917 280
933 0 14 -99 11 -142 -4z"/>
</g>
</svg>
