<?xml version="1.0" standalone="no"?>
<!DOCTYPE svg PUBLIC "-//W3C//DTD SVG 20010904//EN"
 "http://www.w3.org/TR/2001/REC-SVG-20010904/DTD/svg10.dtd">
<svg version="1.0" xmlns="http://www.w3.org/2000/svg"
 width="1536.000000pt" height="870.000000pt" viewBox="0 0 1536.000000 870.000000"
 preserveAspectRatio="xMidYMid meet">
<metadata>
Created by potrace 1.15, written by Peter Selinger 2001-2017
</metadata>
<g transform="translate(0.000000,870.000000) scale(0.100000,-0.100000)"
fill="#000000" stroke="none">
<path d="M7060 7837 l0 -363 -76 -37 c-42 -21 -104 -56 -136 -78 -33 -21 -63
-39 -68 -39 -4 0 -151 83 -326 184 -176 102 -322 182 -326 178 -8 -8 -548
-940 -554 -956 -2 -6 140 -94 316 -196 l320 -185 0 -155 0 -155 -318 -183
c-174 -100 -323 -186 -330 -190 -10 -7 57 -129 263 -488 152 -263 280 -482
283 -486 4 -3 135 68 292 158 157 91 301 174 321 186 l36 20 64 -44 c35 -25
94 -61 132 -82 l67 -37 0 -373 0 -373 197 -6 c108 -4 360 -7 560 -7 l363 0 0
364 0 364 53 21 c30 12 95 47 145 77 50 29 93 54 95 54 3 0 147 -83 320 -184
l317 -184 274 472 c151 259 278 478 281 487 5 13 -58 54 -300 194 -305 178
-306 178 -299 208 3 16 6 96 6 177 l0 149 298 171 c165 95 306 178 315 184 14
10 -17 71 -259 491 -152 264 -281 481 -286 483 -5 2 -146 -76 -314 -172 -168
-97 -307 -176 -310 -176 -2 0 -42 24 -88 53 -46 28 -112 65 -146 81 l-62 30 0
363 0 363 -560 0 -560 0 0 -363z m714 -1083 c153 -37 311 -164 379 -304 48
-98 67 -176 67 -275 0 -260 -167 -490 -415 -572 -116 -38 -258 -37 -370 1
-383 131 -535 578 -309 909 145 211 393 304 648 241z"/>
<path d="M6460 2936 l0 -164 -31 29 c-97 90 -261 49 -332 -85 -19 -35 -22 -57
-22 -151 0 -94 3 -116 22 -151 71 -134 233 -164 334 -63 l39 39 0 -45 0 -45
38 0 37 0 -3 400 -2 400 -40 0 -40 0 0 -164z m-69 -179 c53 -35 69 -77 69
-182 -1 -148 -47 -215 -151 -215 -99 0 -154 74 -154 205 0 137 56 214 156 215
31 0 57 -7 80 -23z"/>
<path d="M8470 2936 l0 -164 -31 29 c-102 96 -276 43 -339 -104 -32 -74 -32
-192 -1 -264 65 -148 235 -189 342 -82 l39 39 0 -45 0 -45 38 0 37 0 -3 400
-2 400 -40 0 -40 0 0 -164z m-69 -179 c53 -35 69 -77 69 -182 -1 -147 -48
-215 -149 -215 -119 0 -191 142 -147 292 23 80 77 128 145 128 33 0 58 -7 82
-23z"/>
<path d="M10220 2700 l0 -400 40 0 40 0 0 177 c0 159 2 181 21 220 48 99 187
111 236 20 15 -27 19 -64 21 -224 l4 -193 40 0 40 0 -4 208 c-3 205 -3 207
-30 254 -61 102 -188 116 -286 32 l-42 -36 0 171 0 171 -40 0 -40 0 0 -400z"/>
<path d="M4793 3053 l-43 -4 0 -375 0 -374 40 0 40 0 0 156 0 156 38 -7 c58
-9 164 13 215 45 86 54 123 188 78 285 -39 84 -103 117 -236 120 -49 2 -109 1
-132 -2z m226 -81 c56 -28 76 -64 76 -137 0 -76 -19 -109 -86 -143 -35 -18
-57 -22 -109 -20 l-65 3 -3 158 -3 157 78 0 c55 0 88 -5 112 -18z"/>
<path d="M8794 3043 c3 -10 42 -164 86 -343 45 -179 85 -342 91 -363 10 -37
11 -38 52 -35 l42 3 71 265 c40 146 78 292 85 325 l13 60 26 -125 c14 -69 48
-216 76 -327 l49 -203 42 0 c49 0 31 -49 154 400 50 184 94 341 96 348 4 8 -8
12 -38 12 l-44 0 -68 -263 c-37 -144 -74 -291 -81 -327 -15 -73 -12 -80 -50
101 -14 63 -43 187 -64 275 -22 87 -43 171 -46 187 -6 24 -11 27 -49 27 l-43
0 -16 -62 c-49 -198 -150 -583 -152 -586 -2 -1 -6 17 -10 40 -4 24 -36 168
-71 321 -36 153 -65 281 -65 283 0 2 -21 4 -46 4 -39 0 -45 -3 -40 -17z"/>
<path d="M9968 2948 c-25 -9 -28 -14 -28 -59 l0 -49 -40 0 c-38 0 -40 -2 -40
-30 0 -28 2 -30 39 -30 l39 0 4 -197 c3 -226 11 -253 76 -280 32 -13 124 -15
136 -2 2 2 2 16 -1 32 -5 24 -9 27 -48 27 -30 0 -47 6 -61 21 -17 19 -19 38
-19 208 l0 186 68 3 c67 3 67 3 67 32 l0 30 -70 0 -70 0 0 60 c0 64 -3 67 -52
48z"/>
<path d="M5420 2832 c-19 -9 -46 -35 -60 -56 l-25 -39 -3 52 c-3 51 -3 51 -38
51 l-34 0 0 -270 0 -270 39 0 39 0 4 178 c2 150 6 183 22 216 23 45 68 76 114
76 31 0 32 2 32 40 0 37 -2 40 -27 40 -16 0 -44 -8 -63 -18z"/>
<path d="M5697 2836 c-56 -20 -102 -55 -131 -99 -51 -80 -59 -223 -15 -310 48
-95 108 -131 219 -132 64 0 82 4 122 28 90 53 127 126 127 252 1 94 -20 149
-77 208 -58 60 -162 82 -245 53z m160 -77 c68 -42 101 -178 69 -277 -21 -61
-77 -116 -130 -126 -51 -10 -117 21 -150 71 -63 96 -51 250 26 319 51 47 122
51 185 13z"/>
<path d="M7326 2830 c-210 -82 -231 -410 -32 -512 52 -27 155 -34 216 -15 40
12 45 16 43 41 -3 38 -7 40 -44 27 -91 -32 -192 1 -237 77 -23 40 -27 58 -27
122 0 64 4 82 27 122 45 76 146 109 237 77 37 -13 39 -12 47 28 6 29 4 31 -39
42 -66 16 -135 13 -191 -9z"/>
<path d="M7733 2826 c-116 -54 -172 -215 -128 -364 39 -131 174 -197 335 -163
74 15 83 22 74 55 -5 23 -10 26 -28 21 -11 -4 -56 -10 -98 -12 -65 -4 -84 -2
-121 16 -49 24 -82 73 -93 139 l-7 42 192 0 191 0 0 50 c0 62 -32 148 -68 183
-63 61 -161 74 -249 33z m174 -63 c30 -20 50 -58 55 -103 l3 -35 -139 -3 c-77
-1 -143 1 -147 5 -12 13 17 83 47 114 47 50 125 59 181 22z"/>
<path d="M6652 2633 c3 -200 4 -210 28 -253 57 -103 189 -119 288 -34 l42 36
0 -41 0 -41 41 0 c33 0 40 3 35 16 -3 9 -6 130 -6 270 l0 254 -40 0 -40 0 0
-178 c0 -164 -2 -181 -22 -222 -29 -57 -75 -83 -138 -77 -52 6 -83 35 -99 95
-6 20 -11 115 -11 210 l0 172 -41 0 -41 0 4 -207z"/>
<path d="M9720 2570 l0 -270 40 0 40 0 0 270 0 270 -40 0 -40 0 0 -270z"/>
<path d="M10280 1400 l0 -800 115 0 115 0 0 800 0 800 -115 0 -115 0 0 -800z"/>
<path d="M6854 2130 c-51 -4 -110 -11 -133 -15 l-41 -7 0 -754 0 -754 115 0
115 0 0 298 0 297 128 1 c143 0 219 16 322 66 81 39 167 124 203 199 53 112
61 287 18 399 -86 224 -303 305 -727 270z m341 -191 c119 -36 185 -129 185
-259 0 -121 -55 -217 -152 -266 -61 -31 -183 -50 -260 -40 l-58 7 0 284 0 284
33 4 c92 11 188 6 252 -14z"/>
<path d="M7791 2122 c-99 -54 -87 -211 19 -243 114 -34 209 63 169 175 -8 21
-26 48 -40 59 -39 28 -106 33 -148 9z"/>
<path d="M10783 2133 c-34 -7 -80 -58 -87 -97 -13 -67 14 -124 71 -151 96 -46
205 33 189 137 -14 89 -78 129 -173 111z"/>
<path d="M2711 1704 c-185 -40 -323 -177 -377 -375 -24 -88 -24 -280 0 -368
58 -214 206 -347 414 -373 160 -20 307 28 417 137 72 72 109 137 135 241 25
97 27 281 5 369 -72 281 -313 430 -594 369z m224 -189 c91 -53 144 -170 152
-335 10 -204 -60 -354 -189 -410 -163 -70 -321 70 -346 305 -15 143 14 286 78
374 72 99 201 127 305 66z"/>
<path d="M3933 1709 c-94 -18 -202 -86 -240 -149 -24 -42 -33 -37 -33 18 0 26
-3 64 -6 85 l-7 37 -100 0 -100 0 7 -52 c3 -29 6 -378 6 -775 l0 -723 115 0
115 0 0 292 0 292 34 -40 c71 -83 206 -127 330 -106 174 29 298 141 362 329
35 102 44 297 20 413 -57 269 -265 426 -503 379z m127 -202 c54 -28 100 -85
131 -164 20 -50 23 -76 23 -193 0 -117 -3 -143 -23 -193 -51 -130 -133 -192
-251 -192 -99 1 -174 48 -224 140 -19 37 -21 55 -21 235 0 193 0 196 27 246
71 134 213 185 338 121z"/>
<path d="M4911 1709 c-179 -31 -322 -179 -377 -389 -24 -88 -24 -272 -1 -360
47 -178 157 -299 320 -353 50 -16 88 -20 192 -20 72 0 153 6 180 12 92 21 155
44 155 55 -1 6 -9 43 -18 82 l-17 71 -55 -20 c-45 -17 -80 -21 -195 -21 -133
-1 -142 0 -190 26 -91 48 -144 123 -164 233 -6 32 -11 62 -11 67 0 4 157 8
350 8 l349 0 7 38 c10 51 -11 225 -36 297 -41 121 -127 214 -235 254 -64 24
-180 33 -254 20z m199 -187 c58 -36 99 -113 107 -200 l6 -62 -242 0 -241 0 0
30 c0 52 41 142 88 192 77 82 187 98 282 40z"/>
<path d="M6030 1710 c-77 -16 -146 -58 -203 -121 l-55 -60 -7 86 -7 85 -100 0
-101 0 7 -52 c3 -29 6 -277 6 -550 l0 -498 115 0 114 0 3 378 c3 364 4 378 25
417 60 112 194 164 298 116 49 -22 68 -43 97 -106 22 -49 23 -59 26 -427 l3
-378 115 0 116 0 -4 398 c-4 375 -5 401 -26 462 -53 159 -155 244 -308 254
-38 3 -89 1 -114 -4z"/>
<path d="M8643 1709 c-94 -18 -202 -86 -240 -149 -24 -42 -33 -37 -33 18 0 26
-3 64 -6 85 l-7 37 -100 0 -100 0 7 -61 c3 -34 6 -383 6 -775 l0 -714 115 0
115 0 0 292 0 292 34 -40 c71 -83 206 -127 330 -106 174 29 298 141 362 329
35 102 44 297 20 413 -57 269 -265 426 -503 379z m127 -202 c54 -28 100 -85
131 -164 20 -50 23 -76 23 -193 0 -117 -3 -143 -23 -193 -51 -130 -133 -192
-251 -192 -99 1 -174 48 -224 140 -19 37 -21 55 -21 235 0 193 0 196 27 246
71 134 213 185 338 121z"/>
<path d="M9621 1709 c-179 -31 -322 -179 -377 -389 -24 -88 -24 -272 -1 -360
47 -178 157 -299 320 -353 50 -16 88 -20 192 -20 72 0 153 6 180 12 92 21 155
44 155 55 -1 6 -9 43 -18 82 l-17 71 -55 -20 c-45 -17 -80 -21 -195 -21 -133
-1 -142 0 -190 26 -91 48 -144 123 -164 233 -6 32 -11 62 -11 67 0 4 157 8
350 8 l349 0 7 38 c10 51 -11 225 -36 297 -41 121 -127 214 -235 254 -64 24
-180 33 -254 20z m199 -187 c58 -36 99 -113 107 -200 l6 -62 -242 0 -241 0 0
30 c0 52 41 142 88 192 77 82 187 98 282 40z"/>
<path d="M11600 1710 c-77 -16 -146 -58 -203 -121 l-55 -60 -7 86 -7 85 -100
0 -101 0 7 -52 c3 -29 6 -277 6 -550 l0 -498 115 0 114 0 3 378 c3 364 4 378
25 417 60 112 194 164 298 116 49 -22 68 -43 97 -106 22 -49 23 -59 26 -427
l3 -378 115 0 116 0 -4 398 c-4 375 -5 401 -26 462 -53 159 -155 244 -308 254
-38 3 -89 1 -114 -4z"/>
<path d="M12571 1709 c-179 -31 -322 -179 -377 -389 -24 -88 -24 -272 -1 -360
47 -178 157 -299 320 -353 50 -16 88 -20 192 -20 72 0 153 6 180 12 92 21 155
44 155 55 -1 6 -9 43 -18 82 l-17 71 -55 -20 c-45 -17 -80 -21 -195 -21 -133
-1 -142 0 -190 26 -91 48 -144 123 -164 233 -6 32 -11 62 -11 67 0 4 157 8
350 8 l349 0 7 38 c10 51 -11 225 -36 297 -41 121 -127 214 -235 254 -64 24
-180 33 -254 20z m199 -187 c58 -36 99 -113 107 -200 l6 -62 -242 0 -241 0 0
30 c0 52 41 142 88 192 77 82 187 98 282 40z"/>
<path d="M7740 1150 l0 -550 115 0 115 0 0 550 0 550 -115 0 -115 0 0 -550z"/>
<path d="M10710 1150 l0 -550 115 0 115 0 0 550 0 550 -115 0 -115 0 0 -550z"/>
</g>
</svg>
