<?xml version="1.0" standalone="no"?>
<!DOCTYPE svg PUBLIC "-//W3C//DTD SVG 20010904//EN"
 "http://www.w3.org/TR/2001/REC-SVG-20010904/DTD/svg10.dtd">
<svg version="1.0" xmlns="http://www.w3.org/2000/svg"
 width="60.000000pt" height="64.000000pt" viewBox="0 0 60.000000 64.000000"
 preserveAspectRatio="xMidYMid meet">
<metadata>
Created by potrace 1.15, written by Peter Selinger 2001-2017
</metadata>
<g transform="translate(0.000000,64.000000) scale(0.100000,-0.100000)"
fill="#000000" stroke="none">
<path d="M185 522 c-75 -39 -93 -54 -109 -85 -14 -30 -16 -43 -8 -60 10 -21
11 -21 10 -2 -3 45 3 65 24 85 24 22 138 84 138 74 0 -3 7 2 16 10 16 17 56
20 89 7 18 -7 17 -10 -14 -25 -24 -13 -36 -15 -44 -7 -6 6 -15 11 -21 11 -6 0
-5 -5 2 -12 18 -18 -42 -52 -68 -38 -28 15 -25 8 12 -26 18 -16 26 -21 19 -12
-11 15 -9 19 23 34 20 10 38 16 40 13 2 -2 1 -18 -1 -35 -3 -22 -10 -31 -21
-29 -10 1 -11 0 -4 -2 6 -3 12 -9 12 -14 0 -16 82 10 95 30 12 21 44 11 69
-21 15 -20 26 -27 26 -18 0 8 10 21 21 29 18 11 23 11 31 -1 14 -20 -1 -199
-18 -226 -8 -13 -50 -45 -92 -72 -95 -61 -122 -61 -221 -1 -97 59 -105 70
-112 155 l-6 71 -1 -67 c-2 -82 14 -105 118 -168 101 -61 126 -61 228 3 46 29
89 61 96 73 8 12 17 63 21 120 5 88 4 102 -13 130 -24 37 -178 124 -219 124
-16 -1 -68 -22 -118 -48z"/>
<path d="M243 381 c-22 -19 -33 -48 -13 -36 5 3 23 -1 40 -10 26 -13 30 -21
30 -55 0 -22 -3 -40 -6 -40 -13 0 -51 25 -78 53 -30 29 -65 48 -78 41 -4 -3
-5 -25 -3 -49 3 -43 3 -45 -18 -35 -21 10 -21 10 1 -6 12 -9 23 -28 23 -43 2
-22 2 -23 6 -4 l4 21 34 -21 c22 -15 32 -28 29 -39 -3 -9 0 -19 6 -23 5 -3 10
3 10 14 0 19 1 20 30 3 16 -9 30 -25 30 -34 0 -10 5 -18 11 -18 6 0 9 6 6 14
-4 9 7 22 29 35 43 26 42 26 47 1 4 -17 4 -16 3 2 -1 16 11 31 38 50 35 23 40
31 44 74 2 29 10 53 20 61 12 9 5 9 -27 -2 -24 -8 -61 -31 -82 -50 -52 -46
-71 -46 -67 1 2 27 10 39 33 52 17 9 32 18 34 20 3 1 -3 10 -13 20 -15 14 -16
15 -11 1 4 -11 -3 -22 -21 -34 -25 -16 -29 -16 -62 -1 -33 16 -34 17 -17 36
23 25 17 25 -12 1z"/>
</g>
</svg>
