<svg id="Layer_1" data-name="Layer 1" xmlns="http://www.w3.org/2000/svg" xmlns:xlink="http://www.w3.org/1999/xlink" viewBox="0 0 491.1618 638.51034"><defs><style>.cls-1{fill:#f2793f;}.cls-2{fill:#fff;}.cls-3{fill:#515050;}.cls-4{fill:#dedede;}.cls-5{fill:#dadada;}.cls-6{fill:#959595;}.cls-7{fill:#eee;}.cls-8{fill:#eceded;}.cls-9{fill:#c8c8c8;}.cls-10{fill:#afafaf;}.cls-11{fill:#929292;}.cls-12{fill:#979797;}.cls-13{fill:url(#linear-gradient);}.cls-14{fill:#b5b5b5;}.cls-15{fill:#4c4b4b;}.cls-16{fill:#494949;}.cls-17{fill:#828282;}.cls-18{fill:#b7b7b7;}.cls-19{fill:url(#linear-gradient-2);}.cls-20{fill:#bcbcbc;}</style><linearGradient id="linear-gradient" x1="163.40836" y1="350.77348" x2="233.4859" y2="280.69595" gradientUnits="userSpaceOnUse"><stop offset="0" stop-color="#8f8f8f"/><stop offset="0.19486" stop-color="#7a7a7a"/><stop offset="0.41946" stop-color="#6a6a6a"/><stop offset="0.67065" stop-color="#606060"/><stop offset="1" stop-color="#5d5d5d"/></linearGradient><linearGradient id="linear-gradient-2" x1="244.05515" y1="307.46626" x2="374.85061" y2="307.46626" xlink:href="#linear-gradient"/></defs><title>Ptex</title><path class="cls-1" d="M202.51643,28.3371,90.29854,92.65382c-27.09155,16.03912-47.70718,40.6005-47.862,72.67834l.42959,129.97019c-.15715,32.55671,19.60859,62.67576,47.18281,78.81455l110.0795,56.23034c27.16864,15.90142,60.52739,16.60948,87.61894.57036l112.21789-61.41008c27.09155-16.03912,49.55686-44.29986,49.71171-76.3777l.62737-128.91323c.15715-32.55671-22.51523-58.44792-50.08945-74.58671L290.13537,27.322C262.96673,11.4206,229.608,12.298,202.51643,28.3371Z"/><polygon class="cls-2" points="113.442 131.068 174.696 99.723 244.262 157.773 227.525 245.58 92.12 172.651 113.442 131.068"/><path class="cls-3" d="M230.40071,251.62184,86.83187,174.29616l23.67187-46.16846L175.22249,95.01l73.36084,61.21728ZM97.409,171.0071l127.24073,68.53076,15.29-80.21875-65.77-54.8833-57.79,29.57275Z"/><polygon class="cls-2" points="370.422 127.617 366.357 197.692 282.59 230.557 216.727 171.878 345.914 87.924 370.422 127.617"/><path class="cls-4" d="M76.16654,133.94979l54.324-35.07348a177.35372,177.35372,0,0,1,21.13088,7.37781c6.38773,2.79487,23.90285,15.45811,23.90285,15.45811S156.89164,127.18,143.171,136.58279c-9.81008,6.72289-21.1865,18.94609-21.1865,18.94609Z"/><path class="cls-3" d="M122.3094,157.21266,73.31966,134.13991l56.93847-36.76172.5962.16211a180.29084,180.29084,0,0,1,21.32226,7.44531c6.44922,2.82227,23.439,15.084,24.15869,15.60449l2.28907,1.65479-2.71.7959c-.18457.0542-18.5874,5.519-31.96093,14.68408-9.57276,6.56006-20.84229,18.62646-20.95508,18.74756ZM79.013,133.76l42.65381,20.08886c2.64062-2.773,12.17382-12.55078,20.72119-18.4082,10.80664-7.40576,24.38818-12.33447,30.07422-14.21289-4.917-3.48438-16.56006-11.58936-21.396-13.70508a175.54116,175.54116,0,0,0-20.34814-7.145Z"/><path class="cls-5" d="M244.82115,82.29768,198.56653,59.49836s35.53828-19.22881,46.76923-19.24095c11.14668-.01205,49.10674,17.36175,49.10674,17.36175Z"/><path class="cls-3" d="M244.82405,83.84255,195.55159,59.55544l2.35645-1.27491c1.46338-.792,35.977-19.395,47.42627-19.40771h.01269c11.334,0,48.11133,16.77344,49.67188,17.48779l2.63769,1.207ZM201.60628,59.4529l43.21191,21.2998L291.2054,57.68288c-8.78613-3.90674-36.80518-16.04053-45.85693-16.04053h-.01123C236.22688,41.65212,209.71468,55.19606,201.60628,59.4529Z"/><path class="cls-6" d="M131.31631,98.45291l67.25022-38.95455,48.11266,23.64612-69.91625,38.56775c-19.66251-12.48723-19.63344-12.8781-26.09118-15.582C144.69742,103.62872,131.31631,98.45291,131.31631,98.45291Z"/><path class="cls-3" d="M176.71321,123.32057l-.69238-.43945c-4.36523-2.77246-7.76025-4.94873-10.47168-6.68652-9.50488-6.09278-10.49805-6.73-15.41211-8.78711-5.88867-2.46582-19.18652-7.61182-19.32031-7.66309l-2.69336-1.042L198.513,57.92946l51.16064,25.144ZM134.50472,98.20583c4.23388,1.64892,12.41162,4.85107,16.70166,6.647,5.13623,2.15088,6.35449,2.93164,15.8374,9.01025,2.56348,1.64356,5.73926,3.6792,9.769,6.24024L243.6844,83.2151l-45.064-22.148Z"/><path class="cls-7" d="M74.72139,135.00829c-12.081,6.69544-10.32249,66.31286-10.32249,66.31286l53.3785,25.9791,4.129-71.53376S83.43291,130.18025,74.72139,135.00829Z"/><path class="cls-3" d="M119.03987,229.45485,63.03938,202.19948l-.02441-.8374c-.18262-6.18848-1.42383-60.65967,11.03516-67.56494h.00049c9.17773-5.08985,44.61279,18.14941,48.62255,20.8164l.66162.43994ZM65.76253,200.44508l50.752,24.70118,3.96387-68.665C105.783,146.78786,81.116,133.04909,75.39241,136.219h.00049c-2.57422,1.42676-7.16357,7.812-8.98193,34.55029C65.49983,184.16579,65.69124,197.093,65.76253,200.44508Z"/><path class="cls-8" d="M117.7774,298.90029l2.0645,59.68915s-40.51-21.38063-47.39146-33.12135c-7.20512-12.293-8.05154-54.19411-8.05154-54.19411Z"/><path class="cls-3" d="M121.30843,360.92946l-2.1128-1.11524c-1.668-.88085-40.93945-21.70214-47.93945-33.6455-7.30371-12.46094-8.207-53.14063-8.2417-54.86621l-.04687-2.32813,56.16552,29.06836ZM65.85237,273.58571c.30811,8.94922,1.814,40.98242,7.79248,51.18262,5.71973,9.75879,36.356,26.89941,44.73,31.458l-1.95361-56.46875Z"/><path class="cls-4" d="M113.442,224.32194s17.32672,8.49635,32.80185,16.00743,33.43417,17.21245,43.36956,25.97344c1.75009,1.54322.38024-73.40861.38024-73.40861l-68.00914-37.15362a161.61736,161.61736,0,0,0-7.42247,33.938C113.47762,201.60287,113.442,224.32194,113.442,224.32194Z"/><path class="cls-3" d="M189.453,267.95583l-.75537-.61524c-8.03223-7.082-22.92188-15.99219-43.05811-25.76562-15.30078-7.42676-32.63379-15.92481-32.80713-16.00977l-.77636-.38086.001-.86426c.00049-.22851.04883-22.91845,1.126-34.76709,1.56689-17.2246,7.436-34.10253,7.49512-34.271l.54-1.53809,70.145,38.3208.01464.8042c.00342.18164.334,18.38477.46094,36.44629.2627,37.416-.38672,37.7168-1.56592,38.26172Zm-74.62354-44.49512c3.54737,1.73828,18.56934,9.09473,32.019,15.624,19.2539,9.34473,33.33252,17.63379,41.90429,24.66992.665-9.00878.31983-45.127-.1289-70.03076L122.7762,157.75026a160.30921,160.30921,0,0,0-6.83545,32.05371C114.99349,200.22243,114.84993,219.197,114.82942,223.46071Z"/><path class="cls-9" d="M249.53632,297.54413s7.84666-59.041-1.483-74.35972c-8.67919-14.25069-61.42872-31.44983-61.42872-31.44983s-9.08615,11.6808-10.40029,34.62007c-1.28061,22.35391,11.25875,39.36424,11.25875,39.36424s18.651,18.53309,26.24657,22.5094C221.93367,292.52316,249.53632,297.54413,249.53632,297.54413Z"/><path class="cls-10" d="M64.3989,273.391l-.97047-33.8783c-.27351-9.54789.97047-38.19154.97047-38.19154l51.314,23.8621a320.64537,320.64537,0,0,0-4.54189,32.04007c-1.56695,15.87012,6.60639,41.677,6.60639,41.677Z"/><path class="cls-3" d="M120.06136,301.52614l-57.02246-27.25-.99414-34.72363c-.272-9.48926.91992-37.12012.9707-38.29151l.08984-2.06836,54.19141,25.20069-.23,1.0791c-.02539.11914-2.57227,12.18457-4.51758,31.88672-1.522,15.40918,6.46729,40.86718,6.54785,41.123ZM65.75862,272.50661,115.556,296.30446c-2.10694-7.33106-7.03907-26.29492-5.7627-39.2168,1.62891-16.498,3.68213-27.708,4.34717-31.1084L65.69515,203.45094c-.27686,6.74952-1.10889,28.12207-.88282,36.02149Z"/><path class="cls-11" d="M117.7774,298.90029l69.11052,37.44984-2.06449,56.84415s-57.102-25.95945-63.39525-33.86768C114.85009,351.06036,117.7774,298.90029,117.7774,298.90029Z"/><path class="cls-3" d="M186.13216,395.31032l-1.88135-.85547c-2.34424-1.06543-57.47949-26.19043-63.90625-34.26563-2.9668-3.72851-4.46924-14.90527-4.59326-34.167-.08984-13.95508.63623-27.06836.64355-27.19922l.12207-2.18066,71.78614,38.90039Zm-67.08692-94.14844c-.769,15.748-1.41845,51.16406,3.46631,57.30274,4.80567,6.03906,43.9878,24.80859,61.00342,32.61035l1.958-53.917Z"/><path class="cls-12" d="M186.69041,335.70745,245.65068,366.229l.583,55.9212-59.54327-27.8715a62.15757,62.15757,0,0,1-4.63619-28.1709C182.74768,357.74506,186.69041,335.70745,186.69041,335.70745Z"/><path class="cls-3" d="M248.16943,422.22374l-2.21327,1.33487-60.31082-28.2395-.21191-.46a62.97011,62.97011,0,0,1-4.75928-28.86524c.69141-8.333,4.4917-29.62793,4.65332-30.53027l.33057-1.84961,61.36865,31.76855Zm-60.41715-28.97592,57.07421,26.71484-.55175-52.88672L187.7264,337.80348c-.958,5.47754-3.729,21.627-4.29248,28.41895A61.57668,61.57668,0,0,0,187.75228,393.24782Z"/><path class="cls-13" d="M120.168,294.54747c10.39881-10.66328,63.531-37.77118,63.531-37.77118s14.93633,25.02278,31.50889,30.91043c8.384,2.97855,34.3653,9.09656,34.3653,9.09656l-.66095,67.95464s-28.39421-8.86981-61.91189-21.8862c-7.50833-2.91581-23.86319-7.28793-30.8633-10.30674C127.44689,320.17225,112.558,302.351,120.168,294.54747Z"/><path class="cls-3" d="M250.27864,366.615l-1.77881-.55567c-.28466-.08887-28.82324-9.0332-62.001-21.917-3.36231-1.30566-8.479-2.89355-13.896-4.5752-6.45166-2.002-13.12353-4.07324-17.01416-5.751-21.0498-9.07715-36.54687-22.01758-38.5625-32.19922a8.6166,8.6166,0,0,1,2.15039-8.03613h0c10.438-10.70313,61.71533-36.92676,63.89307-38.03809l1.15381-.58887.66455,1.11231c.14648.24609,14.87744,24.66406,30.7832,30.31543,8.21729,2.91894,33.96,8.99316,34.21924,9.05371l1.07764.2539ZM121.159,295.51442a5.88727,5.88727,0,0,0-1.4165,5.56445c1.48682,7.51075,13.68164,20.16309,36.94287,30.19434,3.75586,1.62012,10.35547,3.66894,16.73828,5.64941,5.46436,1.69629,10.62549,3.29785,14.07764,4.6377,28.35644,11.01269,53.31152,19.13769,60.04492,21.291l.63184-64.97558c-5.05762-1.20313-25.94922-6.22559-33.4336-8.88477-15.02636-5.33886-28.3955-25.38672-31.55175-30.39843-7.75489,3.998-52.74512,27.39746-62.0337,36.92187Z"/><path class="cls-14" d="M174.90489,121.92393c27.38916-33.097,69.70981-39.62625,69.70981-39.62625s2.06449,65.3527,2.06449,76.32213c0,.02108-27.33389-5.23629-45.6474-15.43893C186.91112,135.31412,174.70269,122.16827,174.90489,121.92393Z"/><path class="cls-3" d="M246.76155,160.00319a36.98,36.98,0,0,1-4.96-1.00488c-2.605-.59424-6.70947-1.58545-11.46972-2.936-8.38575-2.37842-20.39307-6.33447-29.97413-11.67187-13.313-7.417-26.53662-20.70508-26.81543-22.19678l-.11962-.63867.41552-.51367c27.40772-33.11914,70.13672-40.0459,70.56543-40.11182l1.54541-.23877.04932,1.563c.02051.65381,2.06543,65.50049,2.06543,76.36621v.79248l-.68311.40137A1.02532,1.02532,0,0,1,246.76155,160.00319ZM176.67415,121.968c2.62695,2.99073,13.19336,13.40869,25.03125,20.00342,15.3833,8.56983,37.48145,13.6582,43.57813,14.95166-.147-13.25049-1.7002-63.31738-2.00245-72.97021C235.5428,85.50417,200.46712,93.8821,176.67415,121.968Z"/><path class="cls-15" d="M113.02906,223.27794c-1.5505,20.70358-2.05252,18.69026-2.05253,38.87347,0,12.93369,6.388,35.48625,6.388,35.48625s59.39564-25.85649,69.8582-34.6279c2.14925-1.80184-17.32815-23.90756-35.27839-32.86079S113.02906,223.27794,113.02906,223.27794Z"/><path class="cls-16" d="M116.46419,299.53981l-.43164-1.52539c-.26318-.92773-6.44092-22.88672-6.44092-35.86328,0-14.64356.272-17.74805.99805-26.04785.28027-3.2041.6289-7.19239,1.05859-12.92871l.08692-1.15918,1.15722-.11524c.87061-.084,21.57031-2.01758,39.66992,7.00977,16.70752,8.334,35.60157,28.3789,36.189,33.3584a1.94278,1.94278,0,0,1-.63916,1.80273c-10.49512,8.79883-67.76221,33.77734-70.19483,34.83594ZM114.31966,224.574c-.38965,5.12109-.71045,8.78516-.97168,11.77051-.73828,8.4414-.98682,11.28418-.98682,25.80664,0,10.6709,4.502,28.30176,5.91651,33.57519,9.07519-3.9873,57.41162-25.39257,67.648-33.44726-1.26221-3.6416-17.60547-22.415-34.59961-30.89063C136.32015,223.90309,118.90755,224.31422,114.31966,224.574Z"/><line class="cls-2" x1="191.01692" y1="336.35013" x2="191.67787" y2="267.36131"/><rect class="cls-3" x="156.85128" y="300.47138" width="68.99243" height="2.76869" transform="translate(-112.38328 490.21274) rotate(-89.43413)"/><path class="cls-3" d="M307.29329,346.46462c-.1084-1.5-2.64648-36.88477-2.37793-49.06934.208-9.5293,3.22852-37.04,3.35742-38.20606l2.752.30274c-.03125.28516-3.13477,28.55566-3.3418,37.96387-.26465,12.05566,2.3457,48.44336,2.37207,48.80957Z"/><path class="cls-17" d="M189.61337,265.24431s1.68035,30.4472,1.53978,39.47183a160.0984,160.0984,0,0,1-4.98827,37.65208l62.7474,25.3335,1.867-70.27576"/><path class="cls-3" d="M250.24349,369.73219l-65.75293-26.54687.34326-1.19922a160.2897,160.2897,0,0,0,4.93506-37.291c.13818-8.873-1.521-39.07128-1.5376-39.375l2.76465-.15234c.06885,1.24512,1.68115,30.59961,1.5415,39.57031a167.1737,167.1737,0,0,1-4.72119,36.80371l59.76514,24.12989,1.81347-68.28321,2.76856.07422Z"/><path class="cls-18" d="M190.81941,194.3761s41.49625-35.899,52.96949-35.968c17.76814-.10688,58.40072,33.03029,58.40072,33.03029s-40.47382,29.49665-50.79994,29.51084"/><path class="cls-3" d="M251.39144,222.33376l-.00391-2.76954c7.77-.00976,36.34717-19.418,48.51709-28.18066-7.27246-5.76025-40.74316-31.59131-56.02637-31.59131-.02734,0-.05371,0-.08105.00049-8.99121.0542-40.63721,25.73877-52.07227,35.63037l-1.81152-2.09375c1.71-1.47949,42.019-36.23437,53.86719-36.30615h.09179c18.09864,0,57.52051,31.97851,59.19239,33.34228l1.3916,1.13428-1.45117,1.05762c-.10157.07373-10.28028,7.48144-21.5918,14.79394C266.04524,217.28688,255.94466,222.3279,251.39144,222.33376Z"/><path class="cls-17" d="M419.11344,135.6695l-54.324-37.82559s-12.942,2.86053-22.78247,7.16611c-6.38773,2.79488-24.52221,14.61131-24.52221,14.61131s20.00658,8.29963,28.77086,12.68964c12.71876,6.37079,25.38827,21.33871,25.38827,21.33871Z"/><path class="cls-3" d="M371.21907,155.29079l-.63183-.74658c-.125-.14747-12.63965-14.82813-24.95215-20.99561-8.62012-4.31738-28.48145-12.56543-28.68067-12.64844l-2.4248-1.00586,2.19922-1.4331c.74414-.48487,18.30469-11.91114,24.72363-14.71973,9.85059-4.31006,22.50391-7.13135,23.03809-7.24951l.59179-.13086L422.05989,136.034Zm-50.77344-35.93213c5.61817,2.35889,19.542,8.26416,26.42969,11.71435,11.3418,5.68164,22.41114,17.7876,25.18262,20.93946L416.16731,135.305l-51.666-35.97461a143.26528,143.26528,0,0,0-21.93945,6.94824C337.66146,108.42262,325.46224,116.14089,320.44563,119.35866Z"/><path class="cls-6" d="M363.96366,97.63221l-68.90181-40.013L246.94918,81.26528,316.86543,119.833c19.66251-12.48723,20.6657-12.4547,27.12344-15.15861C349.96321,102.17292,363.96366,97.63221,363.96366,97.63221Z"/><path class="cls-3" d="M316.91536,121.44167,243.95394,81.1946l51.16259-25.14454,72.22364,41.94239L364.39,98.949c-.13867.04541-14.01367,4.55225-19.86621,7.00293-.59766.25-1.14844.47656-1.67188.69238-4.99023,2.0542-7.49511,3.08545-25.24414,14.35791ZM249.94417,81.3362l66.87158,36.88867c17.3291-10.99072,19.90821-12.05273,24.98145-14.14111.51855-.21387,1.06445-.43848,1.65625-.68653,4.33789-1.81592,12.69726-4.64209,17.14648-6.11718L295.00716,59.18874Z"/><path class="cls-10" d="M418.907,135.2461c12.081,6.69544,10.32249,64.19585,10.32249,64.19585l-51.314,25.9791L371.722,153.88729S410.19547,130.41806,418.907,135.2461Z"/><path class="cls-3" d="M376.71224,227.5818l-6.44336-74.42968.73242-.44678c.09668-.05908,9.79492-5.96045,20.43555-11.19141,22.06347-10.84668,26.63867-8.31152,28.14062-7.479h0c12.46,6.90576,11.21875,59.47754,11.03613,65.44971l-.02539.82128Zm-3.53711-72.957,5.94336,68.63477,48.751-24.68018c.42871-16.34814-.48828-57.05371-9.63379-62.12256h0C412.49739,133.27858,387.88411,145.73561,373.17513,154.62477Z"/><path class="cls-8" d="M375.851,297.02109l-2.06449,59.68915s40.51-23.49763,47.39145-35.23835c7.20512-12.29295,8.05155-54.19411,8.05155-54.19411Z"/><path class="cls-3" d="M372.31575,359.16383l2.17871-62.97168,56.168-31.29785-.04883,2.41211c-.03418,1.72559-.9375,42.4043-8.24121,54.86524-6.98535,11.91894-46.22461,34.76953-47.8916,35.73632Zm4.8916-61.31347-1.95019,56.38379c8.45312-5.04,39.00586-23.70215,44.72656-33.46289,5.96-10.16895,7.47461-42.03223,7.79-51.09668Z"/><path class="cls-4" d="M378.12192,224.55975s-15.26222,6.37934-30.73735,13.89042-33.43418,17.21245-43.36957,25.97344c-1.75009,1.54323-1.206-72.98521-1.206-72.98521l68.83495-37.577a161.61716,161.61716,0,0,1,7.42246,33.938C380.15076,199.72368,378.12192,224.55975,378.12192,224.55975Z"/><path class="cls-3" d="M304.25716,266.05544l-.89551-.3545c-1.14746-.52343-1.84082-.83886-1.99414-38.03808-.07422-17.957.05566-36.0542.05664-36.23487l.00586-.81445,70.98047-38.74805.54,1.5376c.05859.16846,5.92871,17.04639,7.49511,34.271,1.082,11.90674-.86035,35.979-.94335,36.99756l-.06836.83984-.77735.3252c-.15234.06347-15.40722,6.45214-30.668,13.85839-20.13769,9.77637-35.02734,18.68555-43.05761,25.76661Zm-.06934-73.79248c-.167,23.9038-.11035,60.62841.66016,69.63525,8.56738-7.03906,22.6543-15.33594,41.93164-24.69336,13.35937-6.48438,26.71094-12.19043,30.02832-13.59375.33691-4.4209,1.8291-25.23926.87988-35.686a160.318,160.318,0,0,0-6.835-32.05419Z"/><path class="cls-8" d="M429.22948,267.27778s.99137-22.448.99833-30.68639c.017-20.12229-.99833-37.14944-.99833-37.14944L375.851,225.42105s2.4774,28.63454,2.4774,38.39109c0,8.14346-2.4774,35.32595-2.4774,35.32595a224.0216,224.0216,0,0,0,21.11507-8.84358C409.71471,283.92,410.03978,282.739,429.22948,267.27778Z"/><path class="cls-3" d="M374.27571,301.16872l.19629-2.15625c.02442-.27051,2.47168-27.21289,2.47168-35.2002,0-9.58594-2.44726-37.98633-2.47168-38.27246l-.082-.94726,56.09863-27.30274.123,2.06983c.01074.17089,1.01758,17.29931,1.001,37.23291-.00684,8.17382-.98926,30.52148-1,30.74707l-.02735.624-.4873.39258c-3.54785,2.8584-6.4502,5.22851-8.90527,7.2334-10.82618,8.83984-13.08008,10.67968-23.60743,15.94335a227.42978,227.42978,0,0,1-21.2705,8.91016Zm3.03614-74.91895c.43457,5.11719,2.40136,28.74317,2.40136,37.5625,0,6.85156-1.69922,26.62207-2.28808,33.27442,3.78418-1.41211,12.126-4.63282,18.92187-8.03028,10.25293-5.127,12.21289-6.72754,23.09473-15.6123,2.3457-1.915,5.09863-4.16309,8.43164-6.85156.16016-3.68555.96387-22.6543.96973-30.002.01367-15.81738-.62012-29.85351-.88282-34.99072Z"/><path class="cls-12" d="M375.851,297.02109l-69.11052,37.44984,2.0645,56.84415s57.102-25.95945,63.39525-33.86768C378.77829,349.18116,375.851,297.02109,375.851,297.02109Z"/><path class="cls-3" d="M307.49642,393.43141l-2.1709-59.76855,71.78515-38.89942.123,2.18067c.00684.13086.73242,13.24414.64356,27.19922-.124,19.26172-1.626,30.4375-4.59375,34.166-6.42676,8.07617-61.56153,33.2002-63.90528,34.2666Zm.65918-58.15332,1.958,53.918c17.01563-7.80273,56.19727-26.57226,61.00391-32.61133,4.88477-6.13769,4.23437-41.55371,3.46484-57.30176Z"/><path class="cls-9" d="M306.938,333.82825l-61.85057,30.52154.8674,57.8265L306.938,392.3995a62.15754,62.15754,0,0,0,4.6362-28.1709C310.8807,355.86586,306.938,333.82825,306.938,333.82825Z"/><path class="cls-3" d="M244.39808,422.49633l-.7083-59.00144,64.28613-31.72363.32519,1.8125c.16114.90234,3.96289,22.19824,4.65332,30.53027a62.95221,62.95221,0,0,1-4.75976,28.86523l-.20606.44825-.44336.21582L248.8879,422.15345l-2.85813,1.39252Zm2.08662-57.29246.82177,54.77149,58.564-28.59571a61.54509,61.54509,0,0,0,4.32422-27.0371c-.56445-6.80762-3.34668-23.01563-4.29981-28.45606Z"/><path class="cls-19" d="M373.04746,292.66827c-10.39882-10.66328-60.53076-40.59448-60.53076-40.59448S288.57515,283.66225,270.694,288.708c-8.15158,2.30026-26.63884,6.196-26.63884,6.196l.661,67.95464s51.8194-16.46048,90.06845-32.95549C363.47475,317.5305,380.65747,300.47184,373.04746,292.66827Z"/><path class="cls-3" d="M243.34993,364.74587l-.69043-70.9629,1.10987-.23339c.18457-.03907,18.53564-3.91211,26.54834-6.17383,17.23535-4.86426,40.85937-35.82617,41.0957-36.1377l.749-.98828,1.06445.63574c2.05274,1.22559,50.40625,30.14551,60.81153,40.81641a7.75872,7.75872,0,0,1,2.00879,7.22656c-1.90137,9.60449-18.2627,22.56348-40.71485,32.2461-37.874,16.333-89.67822,32.83886-90.19726,33.0039Zm2.10059-68.72266.63183,64.94238c9.44727-3.05176,54.377-17.76758,88.1543-32.334,21.31348-9.19141,37.38965-21.627,39.09375-30.24024a4.97475,4.97475,0,0,0-1.27441-4.75586h0c-9.32715-9.56543-51.92286-35.36523-59.19532-39.74023-4.30078,5.51074-25.25976,31.48047-41.791,36.14453C264.12239,292.00075,249.57454,295.14235,245.45052,296.02321Z"/><path class="cls-15" d="M318.92993,119.833c-29.89744-40.84365-77.92725-37.03616-74.31523-37.747,0,0,2.19949,63.4258,2.19949,74.39523,0,.02107,27.46888-4.97689,45.7824-15.17953C306.71726,133.43492,319.11753,120.08932,318.92993,119.833Z"/><path class="cls-16" d="M246.73616,157.86256a1.02331,1.02331,0,0,1-.623-.1875l-.6836-.40136v-.79248c0-10.14405-1.91308-66.05518-2.17041-73.52686a1.42477,1.42477,0,0,1-.21777-.70166,1.44436,1.44436,0,0,1,1.30615-1.5249l1.59424-.314.01611.45508c17.95459.80664,51.19385,6.86768,74.08936,38.14649l.36914.50341-.13281.62549c-.335,1.53418-13.75586,14.981-27.0127,22.3667-9.584,5.33936-21.63184,9.22559-30.05176,11.54541-4.77832,1.31641-8.90088,2.27442-11.51806,2.84619A37.99,37.99,0,0,1,246.73616,157.86256Zm-.68262-74.21728c.32569,9.48389,1.97852,58.05127,2.13379,71.16016,6.064-1.227,28.35108-6.14258,43.73584-14.71338,12.31543-6.86133,22.79395-17.51465,25.26954-20.27881C295.09505,90.3196,263.39778,84.46169,246.05354,83.64528Z"/><path class="cls-15" d="M378.74127,223.30405c2.50923,19.59849,3.455,18.80937,3.2154,40.51473-.14275,12.93287-5.6928,31.93968-5.6928,31.93968s-61.46014-25.85649-71.9227-34.6279c-2.14924-1.80184,17.32816-21.79055,35.27839-30.74378S378.74127,223.30405,378.74127,223.30405Z"/><path class="cls-16" d="M377.15755,297.63649l-1.43067-.60156c-2.51757-1.05957-61.77343-26.03906-72.27539-34.84375a1.91131,1.91131,0,0,1-.64062-1.76758c.57715-4.88574,19.95215-23.17676,36.19043-31.27637,18.09375-9.02343,38.9834-7.2998,39.8623-7.22168l1.10938.09766.1416,1.10547c.59668,4.66211,1.11426,8.23242,1.53027,11.10156,1.36817,9.43652,1.87989,12.9668,1.69629,29.60449-.14355,12.97364-5.51953,31.52832-5.748,32.31153Zm-71.502-37.22363c10.34082,8.08105,60.498,29.55078,69.69824,33.457,1.28808-4.71875,5.10254-19.55274,5.21777-30.06641.18164-16.42187-.32129-19.89453-1.667-29.17578-.38281-2.6416-.85156-5.87695-1.38965-10.01172-4.53809-.2207-22.19824-.51269-37.27734,7.00977C323.79915,239.824,307.099,256.72633,305.6556,260.41286Z"/><path class="cls-18" d="M302.18962,191.4384s-24.41236-35.67883-56.27269-33.63928c-43.59455,2.79072-55.79279,27.26912-58.36806,34.4205l56.75433,29.17912Z"/><path class="cls-3" d="M244.305,222.9568l-58.47119-30.062.41211-1.14453c2.72607-7.56836,15.07861-32.48437,59.58252-35.333,13.39355-.85986,27.59961,4.80957,41.07519,16.38623a102.45371,102.45371,0,0,1,16.42871,17.853l.88379,1.292Zm-55.01953-31.40136,55.01562,28.28613L300.12142,190.95c-4.70606-6.27149-26.791-33.51465-54.11621-31.76905C205.22493,161.79128,192.62386,183.31862,189.28548,191.55544Z"/><path class="cls-9" d="M301.41729,259.34022s-13.62921,19.10663-20.10981,23.63618c-15.98645,11.17327-47.98222,12.62761-46.14725,11.0885,0,0-26.53155-6.30366-40.34049-21.02276-3.53639-3.76947-9.62992-18.44544-9.62992-18.44544l36.8844-1.11791,20.96189,40.79777"/><rect class="cls-3" x="213.8231" y="173.32308" width="2.76901" height="65.76794" transform="translate(-66.39761 303.85008) rotate(-62.89981)"/><path class="cls-12" d="M242.84911,295.54676l1.867,70.27577L307.4635,340.489a113.06776,113.06776,0,0,1-7.05277-37.65208c-.14057-9.02463,3.60427-41.58883,3.60427-41.58883"/><path class="cls-3" d="M243.38509,367.85329l-1.92041-72.26953,2.76855-.07422,1.814,68.2832L305.679,339.71657a115.94355,115.94355,0,0,1-6.65332-36.8584c-.13965-9.01074,3.46-40.43555,3.61426-41.76855l2.75.3164c-.03711.3252-3.73242,32.57715-3.59473,41.40918a112.55459,112.55459,0,0,0,6.94727,37.14453l.53418,1.29Z"/><path class="cls-20" d="M242.12686,296.10568s.44182-37.53269.49224-63.80626c.00947-4.93716-.23977-8.32419,1.40367-11.04027,8.67919-14.344,57.29973-29.52484,57.29973-29.52484s5.35035,4.7125,8.87067,27.55457c2.50737,16.26938-8.77588,43.50579-8.77588,43.50579s-20.12656,21.34915-28.60592,25.56786C265.22389,292.13751,242.12686,296.10568,242.12686,296.10568Z"/><path class="cls-20" d="M249.57323,267.36131,278.4208,234.4744h31.03208s.19607,17.59939-17.83891,40.20274c-6.1248,7.67625-30.24964,21.11318-39.80574,19.581-2.78793-.447-8.05377,1.67236-8.57888-1.17067C242.3021,288.06723,249.57323,267.36131,249.57323,267.36131Z"/><path class="cls-3" d="M244.26155,296.08473c-37.57812,0-68.15039-31.334-68.15039-69.84863,0-38.51416,30.57227-69.84766,68.15039-69.84766,37.57764,0,68.14991,31.3335,68.14991,69.84766C312.41146,264.75075,281.83919,296.08473,244.26155,296.08473Zm0-136.92676c-36.05127,0-65.38086,30.09083-65.38086,67.07813s29.32959,67.0791,65.38086,67.0791,65.38037-30.0918,65.38037-67.0791S280.31282,159.158,244.26155,159.158Z"/><polygon class="cls-3" points="244.614 294.719 241.845 294.68 242.889 220.332 301.769 190.416 303.023 192.885 245.634 222.043 244.614 294.719"/><path class="cls-15" d="M98.26906,474.89109c9.80069.31668,21.34639-.72253,32.81806,1.05794,12.36016,1.91837,22.72571,7.10726,28.27079,18.84245,6.93275,14.672,4.1626,33.19492-10.27089,43.888-8.84419,6.55221-18.962,8.32822-29.508,8.71457-6.18319.2265-12.38257.11041-18.57224.00546-2.10925-.03576-2.74888.69395-2.73679,2.77935q.11509,19.855-.00766,39.71073c-.01894,2.50568,1.01443,3.14869,3.24764,3.05263,2.55727-.11,5.12334.00353,7.6848-.034,1.75107-.02565,2.5048.75692,2.47792,2.5179-.05538,3.62866-.03628,7.25879-.01345,10.88814.01007,1.60154-.70072,2.30793-2.32485,2.30492q-19.85558-.03678-39.7112.00273c-1.57484.00415-2.00925-.67553-1.98757-2.125.05744-3.84216.07165-7.6868-.0059-11.52825-.032-1.58744.70857-2.05818,2.11792-2.04514,2.34825.02173,4.70281-.10657,7.04375.02423,2.3223.12976,3.26441-.68365,3.166-3.11023-.15993-3.94327-.04272-7.8978-.04272-11.84758,0-27.75523-.04247-55.51062.0649-83.26543.01082-2.7996-.65606-3.63079-3.52751-3.57606-8.79929.16767-8.80174.03938-8.80177-8.83747,0-7.4196,0-7.41969,7.453-7.4198C82.25557,474.891,89.40788,474.89109,98.26906,474.89109Zm14.06613,16.33021c-3.84067,0-7.68224.04831-11.5216-.02263-1.64722-.03045-2.54857.28239-2.5372,2.25362.06956,12.055.05277,24.11073.01373,36.166-.00552,1.70552.56573,2.67276,2.35525,2.62574,8.62269-.22661,17.25757.59359,25.87065-.7701,10.57018-1.67354,15.77594-8.37818,17.14286-16.39287,1.378-8.07949-1.87792-18.7796-12.02985-22.11011C125.26111,490.8819,118.8039,491.35241,112.33519,491.2213Z"/><path class="cls-15" d="M290.842,565.42634c-9.818-.00174-19.63692.06623-29.4536-.04982-2.435-.02879-3.04962.63779-2.84037,3.1076.92157,10.87666,5.28759,19.46742,15.56849,24.23136,7.61976,3.53081,15.51281,3.16368,23.45209,1.2286a55.62065,55.62065,0,0,0,14.20484-5.59164c1.95877-1.10434,3.2642-.98128,4.36935,1.1901,1.3025,2.559,2.84539,4.9995,4.354,7.44829.84763,1.37592.60469,2.24267-.76727,3.14019-12.034,7.87255-25.033,11.84361-39.57291,10.7547-9.36553-.70144-17.5885-3.62352-24.64431-9.88848-5.773-5.12592-9.28811-11.6407-11.55726-18.81712a64.98535,64.98535,0,0,1-2.6063-22.10888c.38277-10.55674,2.875-20.47849,9.23522-29.04185a38.66272,38.66272,0,0,1,24.83482-15.4358,49.15837,49.15837,0,0,1,22.71435,1.28246c11.36446,3.16857,18.08417,11.07692,21.79072,21.88047a68.631,68.631,0,0,1,3.42165,23.57355c-.03708,2.38659-.66832,3.16269-3.04977,3.139C310.4787,565.37128,300.66009,565.42808,290.842,565.42634Zm-8.93-13.32c6.61621,0,13.23321-.059,19.84819.03127,2.38475.03252,3.20133-.81664,2.9639-3.22484-.9241-9.37276-6.58058-18.66877-18.81244-19.24-13.92495-.65035-22.06352,4.73487-25.69344,17.76021-1.16677,4.18683-.824,4.66659,3.44586,4.676Q272.788,552.129,281.912,552.10635Z"/><path class="cls-15" d="M412.21944,608.60529c-4.27111-.00084-8.54387-.07086-12.81256.03049-1.95748.04648-2.69236-.73692-2.6633-2.62224.05432-3.52278.02253-7.047.01381-10.57059-.00352-1.43323.32757-2.51113,2.07969-2.58023,1.70984-.06744,1.69784-1.01.82772-2.098-4.66454-5.83207-9.37742-11.62561-14.02354-17.47224-1.01364-1.27556-1.7917-.82369-2.53811.12794-4.47636,5.707-8.91677,11.44223-13.39468,17.148-.96026,1.22358-1.06222,2.05351.73249,2.40644,1.17191.23044,1.41016,1.07862,1.40117,2.15323-.03129,3.73694-.05261,7.47491.00715,11.21116.02628,1.64563-.64567,2.28417-2.27824,2.27781q-13.29354-.05171-26.58741.01062c-1.49416.00839-2.10663-.45019-2.07875-2.0049.06883-3.8426.08459-7.68943-.02315-11.53049-.04846-1.72956.65322-2.46045,2.24946-2.15093,4.10693.79638,6.44063-1.53569,8.818-4.394q10.54012-12.6724,21.43715-25.0453c1.71168-1.94143,1.43347-3.05038-.15945-4.76353-6.61251-7.11164-13.25013-14.21063-19.56726-21.58107-2.609-3.044-5.33-4.6912-9.32885-4.03023-2.9534.48816-3.971-.81822-3.75633-3.761.23246-3.1864.10019-6.40379.035-9.60579-.0368-1.809.49479-2.76938,2.52916-2.7546,8.64848.06288,17.29778.0482,25.94662.01515,1.92987-.00737,2.67941.9,2.6624,2.7399-.03355,3.6301-.00587,7.26074-.01951,10.8911-.00157.42141.053,1.05795-.18405,1.23111-3.222,2.35352-.56292,4.03053.71079,5.71558,3.4098,4.511,6.98694,8.89571,10.386,13.41454,1.33476,1.77446,2.31011,1.793,3.64918.04861,4.027-5.24586,8.13338-10.43073,12.20567-15.64182.7824-1.00116,1.60821-2.02914-.53891-2.367-1.428-.22469-1.51888-1.30494-1.52271-2.40982-.01263-3.63037.04114-7.26164-.024-10.8909-.038-2.11823.98846-2.7584,2.96294-2.746q12.6526.07918,25.306-.0032c1.83921-.0125,2.79079.51723,2.751,2.51967-.07435,3.73575-.06254,7.47456-.00818,11.211.026,1.78932-.77571,2.6824-2.49916,2.36938-4.293-.77972-6.7901,1.47732-9.33944,4.5791-6.16465,7.5004-12.60521,14.77927-19.09062,22.0074-1.76386,1.9659-1.6172,3.24043.05178,5.11148q11.29586,12.66362,22.35493,25.53721c1.61555,1.88315,3.33185,2.90735,5.78651,2.57689,2.45669-.33074,3.53905.6228,3.42329,3.19582-.14392,3.19691-.10763,6.40715-.01369,9.6077.06551,2.23333-.864,2.99126-3.06373,2.925C420.7644,608.51517,416.49055,608.60611,412.21944,608.60529Z"/><path class="cls-15" d="M202.1171,560.31823c-.00156,8.43568-.05072,16.87172.01212,25.307.06406,8.59768,4.624,12.41216,13.12018,11.299,2.86074-.37481,5.72463-.59616,8.35019-1.90007,1.55666-.77307,2.37191-.24131,2.84537,1.32849.5208,1.72674,1.12989,3.42854,1.74772,5.124,1.69358,4.64764,1.7459,4.7514-2.671,6.50123a40.12385,40.12385,0,0,1-26.63187,1.44538c-9.42012-2.798-12.20787-10.80342-13.24095-19.62662-1.37138-11.71243-.55072-23.46547-.56505-35.20114q-.01212-9.9279.36629-19.8545c.10436-2.71547-.61469-3.95355-3.55759-3.70794-2.7571.23012-5.55214-.03751-8.32371.07746-1.87863.07793-2.75243-.49168-2.679-2.50521.10882-2.98593.0817-5.98015.00706-8.96822-.04818-1.92835.772-2.67683,2.67558-2.62836,3.09464.07879,6.19633-.072,9.28831.04777,2.08716.08085,2.83669-.71175,2.80028-2.78619-.09177-5.23072.08246-10.46756-.07847-15.6949-.06836-2.2203.52449-3.53791,2.65168-4.436,3.72665-1.57333,7.37925-3.339,10.98279-5.18086,2.209-1.129,2.97806-.74405,2.94722,1.81512-.09266,7.68721.07044,15.37845-.09257,23.06332-.05445,2.56824.7107,3.34239,3.26107,3.24308,4.90455-.191,9.82486.047,14.73257-.098,2.43221-.07189,3.55594.594,3.37071,3.22046a62.7446,62.7446,0,0,0-.00657,8.00369c.12692,2.20358-.59867,2.99165-2.8755,2.92248-5.01413-.15236-10.0411.08622-15.05289-.10087-2.60072-.09709-3.5031.597-3.44722,3.34359C202.22975,543.0172,202.11866,551.66884,202.1171,560.31823Z"/></svg>