<svg id="Layer_1" data-name="Layer 1" xmlns="http://www.w3.org/2000/svg" viewBox="0 0 319.25517 407.44104"><defs><style>.cls-1{fill:#010101;}.cls-2{fill:#e5e5e5;}.cls-3{fill:#040404;}.cls-4{fill:#e4e4e4;}.cls-5{fill:#e3e3e3;}.cls-6{fill:#f7f7f7;}.cls-7{fill:#fbfbfb;}.cls-8{fill:#fafafa;}.cls-9{fill:#f6f6f6;}.cls-10{fill:#f9f9f9;}.cls-11{fill:#f4f4f4;}.cls-12{fill:#f8f8f8;}.cls-13{fill:#fd5992;}.cls-14{fill:#191919;}.cls-15{fill:#0b0b0b;}.cls-16{fill:#d25c60;}</style></defs><title>puli</title><path class="cls-1" d="M311.13094,178.09543c-4.80727,4.50429-9.53739,5.04849-14.95249.61359-4.70048-3.84966-10.38115-5.774-17.07076-6.41735,2.829,5.65233,5.632,10.4845,7.73232,15.60492,4.739,11.55346,2.11079,15.61754-10.40916,15.96351,3.7231,11.5372,7.2043,23.0302,6.74691,35.22449-.19615,5.22957-.41808,10.73556-6.73384,12.1523-6.04853,1.35679-8.01877-3.56057-10.15328-7.90946-2.21983-4.52272-4.93926-8.69578-10.1914-11.97052-.28124,6.12035-.02088,11.72525-.943,17.12834-.8076,4.73195-.65844,10.57629-6.81356,12.53465-6.95368,2.2124-7.6017-4.7958-11.00839-8.8169-2.32379,14.17526-5.45354,26.99848-12.60172,38.45545-2.63,4.21525-5.7483,7.892-11.47966,6.30056-5.74613-1.59548-5.21691-6.31258-5.07946-10.8429.13015-4.29011.028-8.58724.028-12.88125q-1.16317-.21519-2.32636-.43034c-2.29314,3.50638-4.386,7.16636-6.92767,10.48221-3.56614,4.65229-6.33122,11.001-13.84978,9.71648-7.81693-1.33547-3.66154-8.92938-6.62352-14.08392-7.77612,8.83961-15.15205,17.50716-24.93451,23.40719a59.76237,59.76237,0,0,1-10.15606,5.066c-3.3358,1.22274-6.23842-.4234-8.34358-3.08393-1.9937-2.51967-1.86829-5.3132-.26706-8.0225,2.3719-4.01336,5.50712-7.63374,6.98394-13.63452-5.89113,2.7666-10.70944,5.34986-15.77014,7.30609-4.16617,1.61048-8.99169,2.92138-12.34395-1.28458-3.62991-4.55428-.159-8.18438,2.61929-11.74551,1.50727-1.932,3.986-3.31285,3.949-7.40459-12.24225,4.50732-24.03441,9.67665-36.97658,10.01259-3.487.09053-6.98311.188-10.46462.03887-4.22256-.18081-7.43124-2.2363-8.42781-6.43205-1.044-4.39551,1.58479-7.11209,5.25423-9.003,2.71877-1.401,5.8532-2.15688,8.09229-5.22449-5.1458-.8269-9.94986-1.66393-14.77478-2.3553-4.53053-.6492-8.028-2.73367-8.39471-7.52659-.35694-4.66548,3.45941-6.3231,7.11252-7.74563,3.97323-1.54718,8.6594-1.84123,11.79607-7.16827-14.25788-.21868-27.42324-2.62756-39.81338-8.25343a104.03412,104.03412,0,0,1-9.25054-4.83064c-4.11689-2.39419-7.1053-5.77787-5.86592-10.85,1.37341-5.62058,6.04122-5.66714,10.69636-5.35726,1.88884.12574,3.793.02075,7.15846.02075-4.27128-3.672-7.73681-6.48049-10.99929-9.50776-2.84135-2.63651-3.72423-6.0971-2.04308-9.57065,1.81608-3.75234,5.34193-4.15062,9.02916-3.176a31.65421,31.65421,0,0,0,16.9345.30115C35.39167,174.74333,24.08076,165.31,15.27224,153.16447a89.79087,89.79087,0,0,1-5.54439-8.8402c-2.35646-4.20376-3.036-8.61645.87671-12.20466,3.80088-3.48566,7.63363-1.61149,11.2551.8522,1.81122,1.23216,3.73529,2.29844,6.89295,4.22253-1.61743-5.27184-3.10925-9.21727-3.98867-13.29478-.68669-3.18386-.28894-6.52726,2.98059-8.38456,3.11177-1.76769,5.99547-.89826,8.79545,1.191,3.93266,2.93436,6.93689,7.39812,13.98991,8.42356-5.257-12.0788-11.09124-22.826-13.19055-34.92087a87.60257,87.60257,0,0,1-1.324-20.83512c.27323-4.15707,2.16523-7.47157,6.46327-8.37872,4.37595-.92361,7.12066,1.58366,9.00756,5.315,1.402,2.77235,2.9415,5.47514,5.46052,10.1336,1.12975-5.82091,1.58326-9.72058,2.69283-13.42368,1.05594-3.52414,3.5717-6.19154,7.4978-6.25756,3.6249-.061,5.504,2.56681,6.76821,5.71606,1.82541,4.54728,2.252,9.87066,7.83471,13.70118-.5527-14.32094.74722-27.6422,5.82328-40.3015a121.087,121.087,0,0,1,5.40569-12.1022c2.56025-4.7869,5.42452-10.06884,12.08943-8.65607,7.59524,1.61,5.52621,7.97529,5.54421,13.18745.00932,2.70259.22688,5.40446.39234,9.0253,6.85485-4.58393,9.10948-15.91733,18.42761-11.8121,9.57285,4.21744,1.06954,12.98431,3.02725,21.005,10.29085-18.32872,23.899-32.14685,41.293-42.07288h7.63266c6.6874,3.38527,6.63783,8.536,3.77681,14.421-1.51977,3.12612-3.75346,5.88426-5.18109,10.45165,5.57653-2.99076,10.75776-5.28955,16.36356-3.62783,6.42048,1.90322,7.37823,6.83972,5.9285,13.18905,13.50965-5.47282,26.79409-9.48911,41.10723-8.1764,5.58692.5124,11.20616,1.26675,12.78895,7.71489,1.58474,6.45618-2.82431,9.80434-7.81737,12.60768-2.41033,1.35326-5.1988,2.3922-6.68955,5.80154,3.75182,1.7093,7.91741,1.87415,11.60933,3.39981,4.81379,1.98928,8.6906,5.24827,7.14286,10.76938-1.7111,6.1039,2.10191,6.25749,5.86385,6.951,10.40118,1.91754,20.33525,5.059,29.118,11.14663,4.59734,3.18663,8.71581,6.90981,6.899,13.289-1.818,6.38327-7.08929,7.36572-12.83315,7.54328-3.6987.11434-7.58282-.71818-11.13369,1.39154,16.39392,14.329,17.83061,19.41728,7.89389,26.65127,10.64174,9.0034,21.1312,18.137,24.91818,32.48683Z"/><path class="cls-2" d="M232.905,190.9487c9.15617,7.23339,13.8358,16.96325,16.23025,29.10064-8.716-1.8407-16.47551-5.4056-25.0282-5.739,1.24239,6.16639,6.85454,10.25238,6.60114,17.57791-6.72372-3.41943-12.72678-6.56723-18.832-9.5026-1.3276-.63831-3.43235-1.20768-4.45889-.59736-2.0356,1.2103-.8939,3.23338-.14907,5.02059,4.30132,10.321,2.71035,20.44055-1.25344,31.70538a131.0492,131.0492,0,0,0-19.54415-20.27135c-2.55248,6.32631.9172,13.09489-3.1467,18.79475-3.62456-5.38812-6.9301-10.32534-10.26343-15.24369-1.063-1.56848-2.14669-3.68813-4.26978-3.23857-2.155.45628-2.12041,2.76794-2.35823,4.67817-1.42706,11.46206-8.48495,19.32736-17.47306,27.53807-1.63213-10.56447-3.38315-19.99911-7.12982-29.49032-5.06009,3.20052-5.23709,10.23583-11.212,13.1051-.353-5.5919-.70324-10.49752-.95254-15.40825-.09918-1.95355-.10538-4.15583-2.0392-4.99032-2.32262-1.00224-3.2,1.35417-4.31043,2.77433-7.78053,9.95081-19.00336,12.95163-32.037,16.09878,5.2801-10.93393,9.12089-20.9867,10.07665-32.50546l-11.48562,5.63935c-1.79432-.6069-1.729-.98144-1.33932-1.74833,2.38749-4.69863,7.63258-10.33495,5.25206-14.29236-2.391-3.97481-8.28736,1.65509-12.90324,2.015-10.11292.78851-19.45865-1.64155-30.3993-5.902,11.16076-6.01757,19.13793-13.77649,27.29335-23.5393l-10.70761-.80241c2.21529-5.2191,10.966-5.589,9.85289-10.644-1.00638-4.57026-8.4-1.964-12.67595-4.32279A64.60621,64.60621,0,0,1,40.58154,145.241c12.10618-.60106,22.89826-2.46863,33.12279-6.51071.5371-3.48965-4.47887-2.75628-3.82505-6.12838,1.78566-.15093,3.644-.22868,5.47789-.48271,2.38391-.33019,5.61535.58744,6.4924-2.57455.76254-2.74913-2.362-3.38725-3.90024-4.782C67.333,115.13656,64.57589,102.37146,62.4359,87.71816c9.149,4.42836,17.20515,7.907,25.89524,9.28251,2.20181.34853,6.68333,4.57271,5.88851-3.04126-.24-2.29945,3.32635.43226,5.09605.78255,2.34827.4648,4.687,3.45209,6.86121,1.79738,2.35112-1.7893.31072-4.59836-.39956-6.99958-4.02585-13.61-.42788-26.11823,5.29729-38.82353,15.13168,20.37466,20.24555,24.323,23.69375,18.64689,3.64516,3.00382,4.81495,10.36266,9.18692,10.049,5.85257-.41991,2.52521-7.78742,4.6234-11.83613A66.7035,66.7035,0,0,1,170.002,43.12326c1.42756,6.65277,2.06285,12.65633,4.12881,18.11881,1.27276,3.36522-.82034,9.60207,7.12655,9.33569,3.16728-.10617,1.86478,6.0006,2.60289,9.27286.40869,1.81175.30718,3.969,2.65362,4.45111,2.00178.4113,2.56088-1.53947,3.49279-2.70651C198.56422,70.87852,210.695,67.793,224.3811,65.20334,221.349,74.18676,218.54565,82.31744,217.3,91.92l13.23139-6.28142c-5.60716,6.86593-7.92724,12.654-10.48166,18.30943-.61355,1.35835-1.19634,3.49467-.56283,4.49013,1.24536,1.95685,3.33039.79544,5.08332.07364,11.66945-4.80517,22.81375-1.88919,35.15989,2.23006-6.41677,6.28713-12.16467,11.91895-19.26046,18.8714l17.03717,1.02143A214.227,214.227,0,0,0,238.61153,143.355c-1.36226,1.04051-2.54466,2.13277-2.17662,3.802.4029,1.82717,2.14423,1.98649,3.78666,2.14973,11.9332,1.186,19.91467,8.69685,28.33533,17.45434-8.43228,2.35489-16.02866,4.47631-24.19994,6.7583,4.01863,5.42507,10.74668,5.83278,14.16382,11.77549-8.71541,1.47459-17.60784-1.58664-25.65154,2.2673-.32419.555-.75022,1.4475-1.182,1.41466-8.49532-.6464-5.81771-8.86275-8.69851-13.32084-2.027-3.13688-.09676-5.82272,3.66879-7.17841,4.605-1.65794,10.07316-3.22286,5.8903-11.41481.46865,9.83979-1.63656,11.13089-15.8378,10.39466,3.70744,5.9945,7.394,11.52708,9.21094,17.93262.96208,3.39173,2.42958,7.265-.79893,9.76361-3.74076,2.8951-6.37672-.91783-8.94713-2.99476-3.44743-2.78558-6.13354-6.42684-10.438-9.59993-1.86615,2.87882.74822,8.48753-4.13723,8.98155-4.51884.45692-8.04957-2.578-10.12423-6.0941-3.31282-5.61448-7.08353-6.50972-12.34778-3.10313-.77958.50447-2.11494,1.03431-2.70341.63116-8.7054-5.964-18.85368-1.90322-27.931-4.24484-3.78479-.97634-5.74958-1.03133-7.83429,2.1a27.06118,27.06118,0,0,1-4.97749,5.74695c-2.63049,2.21805-5.396,6.0232-8.79575,4.72888-4.38539-1.66958-2.68214-6.43834-2.50506-10.9965-4.74419,4.39777-8.67115,8.85365-13.09891,12.7546-2.11767,1.86569-4.48785,4.28289-7.53021,2.49362-3.40358-2.00173-2.4752-5.4771-1.73306-8.58145,1.70014-7.11169,5.86545-13.13048,9.82867-19.77466-13.97155,1.44695-18.05962-.94912-14.89115-10.7975-5.22768,6.90994-2.04117,10.31484,3.147,11.2891,8.07405,1.51622,8.1411,5.07379,4.59837,11.06866a33.27012,33.27012,0,0,0-3.54538,10.80418c-.4806,2.51921-1.14069,5.20186,1.23374,7.05622,2.598,2.029,4.71657-.048,6.83471-1.33121,2.17846-1.31979,3.98373-3.15525,6.13368-4.51028,1.61319-1.01672,3.57771-2.41729,5.25456-1.04206,8.85287,7.2605,12.71717-1.14693,17.86558-5.49786,2.89952-2.45042,5.20327-7.64958,9.67765-1.8694,1.46771,5.66047-1.24617,11.174-.48575,16.87213,1.2023,9.0094,6.40049,15.22836,13.676,15.70789,8.711.57414,13.87717-5.66457,11.48949-14.34236-1.6267-5.91207-1.757-11.19565,3.403-15.4779,6.38034-4.78071,11.53156-4.51649,16.78991,2.37782,3.22608,4.22974,7.88945,9.02685,14.119,2.70674,2.25123-2.284,5.19063-.63395,6.78354,1.13784C220.56368,198.7305,226.723,197.64469,232.905,190.9487Z"/><path class="cls-3" d="M147.6918,182.9839c-2.05241-2.26883-3.96961-2.93257-5.73994.337-2.50415,4.62492-6.76315,7.50979-10.785,10.59545-2.43294,1.86662-6.47473,3.09893-7.79228.82064-4.79808-8.29671-7.3893-.81288-10.72775.9779-3.70522,1.98752-6.8644,7.12964-11.63607,3.84533-4.819-3.31692-2.84106-8.7192-1.50888-13.15637,1.53587-5.11557,3.90811-9.98,5.97322-15.09235-3.05413-1.57432-6.77682-.33718-9.7781-2.51708-5.329-3.87058-5.7641-8.13666-1.29327-12.69235,1.6365-1.66755,4.18411-4.37522,6.49381-2.38857,3.56457,3.066-.83456,3.74258-2.37968,5.19286-3.78071,3.54865-1.817,5.18724,2.026,6.44225,5.60648,1.83089,10.19761-2.32781,16.88642-2.99579-5.76917,10.9807-14.22918,19.75925-14.24546,33.10725,10.74711-4.19614,15.47018-14.27038,24.25693-20.73424.63393,5.53619-3.28752,10.39186-1.00754,15.6458,8.77267-3.03461,11.84415-11.3383,17.16089-17.34342,9.75642,8.099,9.98408,8.09487,19.755-.49279,5.77639,6.3784,11.46877,13.70524,20.73646,4.33377,3.07635-3.11082,4.24292.85382,5.47865,2.60408,3.30484,4.681,6.81181,9.05788,12.84795,11.87545,1.52972-4.61719-.03084-8.54392-2.18067-13.74847,11.41329,2.17323,14.29685,14.89726,24.94839,17.45137.32839-12.71639-7.64572-21.63021-13.99584-31.91417,5.54157-1.25207,9.3361,3.0909,13.90562,2.63527,2.48908-.24819,5.44536-.149,6.67967-2.78535,1.27234-2.71757-1.38548-3.68938-3.08567-4.93639-1.24046-.90981-2.93466-1.69636-1.67615-3.64459,1.50723-2.33326,3.28666-.98285,4.87366-.07289,3.21176,1.84155,5.41384,4.358,5.19212,8.377-.2073,3.75748-2.75781,5.6846-5.80243,6.81268-2.53232.93824-5.32064,1.18557-8.94219,1.93477,5.16751,4.831,2.96007,13.37367,10.53952,16.10424q.01791,1.69328.03579,3.38654c-2.92847.19315-1.99723,2.63124-2.48773,4.25494-1.71415,5.67428-5.20536,6.91125-9.99523,3.59768-3.88453-2.68727-7.49571-5.76967-11.20911-8.662-4.678,8.03542-9.83355,8.4794-17.5483-.76928-4.80294-5.75792-8.69784-6.93742-14.58455-2.94493-3.6384,1.66936-7.08819,1.02974-10.43792-.82563-2.92468-2.46027-5.95675-1.967-9.03618-.28077C153.92516,186.12362,150.38525,186.33328,147.6918,182.9839Z"/><path class="cls-4" d="M225.92913,102.30809c7.14553-18.04086,13.40716-21.72953,31.8979-18.77309,11.96062,1.91236,23.57022,4.96424,33.926,11.57447,2.06041,1.3152,4.93859,2.72764,3.58794,5.80682-1.06272,2.42285-3.78934,1.55221-5.9364,1.4313-.63357-.03569-1.36966-.36282-1.88153-.14321C267.22807,110.91157,246.80912,99.94314,225.92913,102.30809Z"/><path class="cls-4" d="M245.20369,144.35043c15.67336-12.52347,22.8228-12.63384,37.94184-.11979,8.58159,7.103,16.15255,15.14972,21.42068,25.09623,1.17947,2.22685,2.45014,5.08454.05989,6.91191-1.923,1.47016-4.13576-.2906-5.89907-1.70216a3.99869,3.99869,0,0,0-1.59115-1.00489C276.41842,170.278,263.10156,153.52638,245.20369,144.35043Z"/><path class="cls-4" d="M188.36391,75.26582c-2.66556-15.95219-.8199-20.46432,11.6702-27.13268,13.30332-7.10251,27.51-11.16191,42.7157-11.13074,2.82431.00579,6.32789-.13715,6.86442,3.41723.47657,3.15723-3.42284,3.04267-5.08714,4.63868-12.26757,11.76416-27.043,18.38443-43.3,22.60316C196.86483,68.79348,193.13433,72.36007,188.36391,75.26582Z"/><path class="cls-5" d="M239.87647,190.43c22.078-2.4522,26.846.62384,33.54734,20.18813,3.30021,9.63479,5.51413,19.43006,5.15108,29.68294-.091,2.56926-.34887,5.45507-3.351,5.99153-2.7348.48872-3.36925-2.30746-4.259-4.24428a40.87359,40.87359,0,0,0-13.04436-15.96252c-2.04449-1.51708-3.67995-2.992-4.18314-5.87829C251.87743,209.53871,247.35107,199.93994,239.87647,190.43Z"/><path class="cls-4" d="M142.3291,70.81985c-9.034-11.82575-9.53561-15.4229-2.352-27.42949,7.90593-13.21384,18.309-24.11111,31.7872-31.84478,2.49423-1.43118,5.53052-3.196,7.72714-.63586,1.96116,2.28576-.82227,4.5438-2.02224,6.64956a3.86061,3.86061,0,0,0-.50268.7978c-3.76362,14.53611-13.17617,25.04426-24.06716,34.72671C147.70058,57.70569,145.56529,64.64811,142.3291,70.81985Z"/><path class="cls-4" d="M214.4405,239.66309c1.36468-3.06829-4.604-8.64892,2.29585-9.90791,4.08156-.74475,16.06322,10.09641,15.96663,14.472-.35407,16.04343-4.12638,31.23808-12.77705,44.96394-1.15125,1.82666-2.68625,4.09031-5.24313,2.84332-2.38843-1.16486-1.2642-3.81278-1.50161-5.91486C211.42917,270.60793,208.71677,255.09794,214.4405,239.66309Z"/><path class="cls-5" d="M104.93967,27.96419c6.59667,13.49306-.86087,25.25354-4.07589,37.49485-1.4776,5.626-1.58678,11.26021-1.52325,16.97949.02224,2.00063,1.32517,4.62463-1.46283,5.7651-2.376.97192-4.15873-.876-6.03834-1.991-4.43685-2.63183-5.01272-7.22313-5.33163-11.5744C85.22357,57.117,89.1585,40.66759,97.55223,25.29078c1.31709-2.41283,2.713-6.05128,5.95781-5.27076C108.06327,21.11529,105.27643,25.21723,104.93967,27.96419Z"/><path class="cls-5" d="M170.71133,247.04534c11.78279,13.57069,12.01779,18.38842,1.58084,31.5228-7.131,8.974-15.3311,16.78825-25.52143,22.29877-2.25959,1.2219-4.92322,2.763-6.97034.81217-2.412-2.29853.56021-4.37466,1.37309-6.58957a90.18286,90.18286,0,0,1,21.91164-33.34007C166.90341,257.97483,168.686,252.6847,170.71133,247.04534Z"/><path class="cls-5" d="M73.48066,127.40169c-10.13407,3.31546-15.54333-.85143-19.88631-8.27072a92.8148,92.8148,0,0,1-13.27388-46.0162c-.04831-2.847-.10761-6.33094,3.19981-7.10554,3.20988-.75177,3.29439,3.0355,4.7798,4.87454,7.11278,8.80612,10.94844,18.73314,12.3146,30.01446C61.81118,110.77847,67.03953,119.22362,73.48066,127.40169Z"/><path class="cls-5" d="M125.4667,241.72305c1.48352,18.3835.88375,19.65193-14.068,25.974-11.4589,4.84521-23.38426,7.88227-35.9664,7.55558-2.57413-.06682-5.476-.3834-6.11551-3.26475-.60855-2.74167,2.40271-3.13043,4.13554-4.359,9.55332-6.77323,19.50081-12.12888,31.43225-14.07035C112.24145,252.36142,118.66718,247.63954,125.4667,241.72305Z"/><path class="cls-5" d="M68.84092,172.986c-6.504,7.711-13.20267,8.29134-21.20965,3.24287-13.34072-8.41145-24.76106-18.59251-32.68665-32.38843-1.43786-2.5029-3.274-5.50926-.73922-7.73729,2.26127-1.98764,4.45366,1.01253,6.68343,1.929,9.22649,3.79206,16.36979,9.86412,22.55538,17.75839A50.79208,50.79208,0,0,0,68.84092,172.986Z"/><path class="cls-5" d="M69.69625,229.53361c-14.66678-1.14156-29.06047-4.26979-42.0895-12.12657-2.131-1.285-5.04973-2.71909-4.33117-5.57526.80157-3.1862,4.08046-1.61513,6.38227-2.10565,12.35011-2.63191,23.43671,2.20362,34.8921,5.20655,3.91427,1.0261,8.23468.491,12.15964,1.49206,3.15035.80351,8.905-3.66823,9.10274,2.41693a10.086,10.086,0,0,1-9.18023,10.35655C74.44144,229.46734,72.21215,229.422,69.69625,229.53361Z"/><path class="cls-6" d="M94.10637,230.40478c-.14232,8.00775-4.0148,13.89882-7.51392,19.76552-2.79311,4.683-22.73525,4.92028-26.42218.72337-1.57609-1.79409-1.50216-3.97473.79183-4.391C73.39147,244.24684,80.483,231.36342,94.10637,230.40478Z"/><path class="cls-7" d="M140.789,253.31439c.35787,1.53446.54384,2.469.7944,3.38579,4.68117,17.12926-1.96106,27.42961-19.41085,30.06079-1.8601.28045-3.99166.716-5.161-1.089-.45582-.70363.01334-2.65078.72744-3.36978C126.34749,273.63454,128.42961,259.86381,140.789,253.31439Z"/><path class="cls-8" d="M191.24326,250.33417c14.17176,10.53095,13.26992,28.87209-1.75822,37.45705-3.9269,2.2433-5.3311.53033-4.78152-3.40046.78956-5.64725.68-11.34717,1.08214-16.9607C186.2002,261.643,189.304,256.04853,191.24326,250.33417Z"/><path class="cls-9" d="M233.84528,221.42657c16.29217,2.63457,24.07859,19.89063,15.47307,33.056a4.49528,4.49528,0,0,1-2.8556,1.99676c-2.42694.15272-2.72189-2.254-3.47295-3.83918C238.40482,242.96281,236.07485,232.59305,233.84528,221.42657Z"/><path class="cls-8" d="M65.43776,188.2567c-2.66779,4.04189-5.90425,6.47926-9.31238,8.77338-10.79778,7.2684-19.34634,5.96646-27.35267-4.30677-1.49758-1.9216-3.32591-6.26466.18408-5.378,11.94677,3.018,23.59592-3.13349,35.28427.035C64.5243,187.45715,64.75064,187.7438,65.43776,188.2567Z"/><path class="cls-8" d="M256.314,175.43856c15.27738-4.98392,26.97921,3.12423,28.13408,18.92639.10572,1.44642-.09058,3.61494-1.00247,4.28718-1.79,1.31952-3.42376-.39993-4.96031-1.5084C270.05843,191.06463,263.70665,182.95851,256.314,175.43856Z"/><path class="cls-10" d="M63.19725,135.08494a28.14018,28.14018,0,0,1-15.86363,4.91441c-10.83.08724-17.325-5.392-18.45669-16.17041-.33668-3.20644.8211-7.002,4.2859-3.866,7.72175,6.989,16.91685,10.41738,26.39415,13.63082C60.79644,134.014,61.98507,134.58418,63.19725,135.08494Z"/><path class="cls-11" d="M224.80955,81.7022c3.78665-21.48715,8.42264-18.16656,25.6618-15.90564,1.76049.23088,3.72834,1.2594,3.7084,3.62149-.01616,1.91418-1.79823,2.41182-3.12951,3.131a22.53184,22.53184,0,0,1-2.69949.84783C240.77174,76.29276,233.79631,80.83345,224.80955,81.7022Z"/><path class="cls-10" d="M253.30387,124.32506c10.17655-11.92979,24.81357-10.74712,32.14121,1.95513a4.78976,4.78976,0,0,1,.72572,3.43555c-.84431,2.29529-2.9072,1.63674-4.80424,1.431C271.94886,130.12574,262.90939,127.61434,253.30387,124.32506Z"/><path class="cls-12" d="M66.59242,61.3944c2.733.634,3.47508,2.47542,3.90892,4.27494,1.77233,7.35147,5.94586,13.23379,11.25227,18.34145,1.75474,1.689,3.4601,3.56856,2.0483,5.55891-1.48761,2.09726-4.07208.539-6.0897-.106C63.30256,84.8573,59.552,78.76443,63.21856,66.19238,63.85416,64.013,64.6339,62.09335,66.59242,61.3944Z"/><path class="cls-10" d="M178.39928,59.41993c-.90648-3.06545-1.68758-5.16048-2.139-7.3243-2.488-11.9257,3.96278-20.25752,16.11376-20.8958,2.91907-.15333,6.33818,1.27639,3.67451,3.96231C189.10484,42.16382,187.32172,52.76349,178.39928,59.41993Z"/><path class="cls-12" d="M128.67327,62.65862c-6.32493-3.6147-8.56085-8.18447-11.61086-12.08682-3.25823-4.16874-3.16595-7.89875.17276-11.80521,2.95457-3.457,5.17585-10.30995,9.71835-8.69685,4.50062,1.59822.14989,7.71582.4368,11.84069C127.83928,48.36555,128.19444,54.8272,128.67327,62.65862Z"/><path class="cls-1" d="M165.62745,139.707a24.08683,24.08683,0,0,1,11.64025,3.203c4.2423,2.45834,8.121,5.50842,7.96756,10.87-.15111,5.28154-6.11109,4.70576-8.64636,7.37692-10.68023,11.25265-19.85272,3.16825-29.75322-1.21636-7.38862-3.27218-6.69279-7.66166-2.75391-12.55416C149.00487,141.27144,156.0806,139.66081,165.62745,139.707Z"/><path class="cls-13" d="M147.6918,182.9839a19.66365,19.66365,0,0,0,10.75.26132c2.86745,3.5936.49077,7.27678.14139,10.90627-.41143,4.27412.89327,8.023,3.621,12.6874-5.37529-12.17515-3.8728-19.01291,4.40363-23.45453a24.19485,24.19485,0,0,0,10.4766,3.039c-2.976,4.04109-5.07529,8.55911-2.20437,13.20717,4.79971,7.77085,1.79856,12.35882-5.31052,15.96241-7.78642,3.947-15.291,2.4616-20.22877-4.43653C142.90355,202.16364,144.287,192.60792,147.6918,182.9839Z"/><path class="cls-14" d="M197.87693,127.35387c-.99884,3.37163-2.874,3.57283-5.05871,1.86453-3.36615-2.63207-5.52387-2.52974-7.81356,1.65282-1.6285,2.97479-5.10714,3.60247-8.28852,1.60592a9.1166,9.1166,0,0,1-4.16316-9.82727c.84467-4.54981,5.04285-2.88549,7.84049-2.8668a25.85723,25.85723,0,0,1,14.11713,4.743A36.04775,36.04775,0,0,1,197.87693,127.35387Z"/><path class="cls-15" d="M149.08193,122.75739c-.71532,5.37438-1.89092,8.16918-5.02373,9.75622-2.91634,1.47736-6.19,1.07694-7.66195-1.37524-2.66176-4.43441-5.23339-4.10522-8.77687-1.49232-.86452.6375-2.30993,1.17459-3.31348-.28505-1.219-1.77295-.19957-3.12064,1.08967-3.97047,5.911-3.8964,12.30687-6.14069,19.55595-5.56961C148.36,120.08944,149.29318,121.81938,149.08193,122.75739Z"/><path class="cls-16" d="M166.60779,183.38436c-9.13752,9.37524-5.894,18.52376,1.56771,27.78326-12.37984-1.9675-13.51828-14.25121-9.73427-27.92191C161.22033,179.97319,163.96023,178.96913,166.60779,183.38436Z"/><path d="M89.81486,341.13654h22.83252c13.332,0,21.3955,7.90332,21.3955,19.31933v.16016c0,12.93359-10.05908,19.63867-22.59277,19.63867h-9.34082v16.76563H89.81486ZM111.849,369.31818c6.147,0,9.73974-3.67285,9.73974-8.46289v-.15918c0-5.50879-3.832-8.46289-9.97949-8.46289h-9.5v17.085Z"/><path d="M141.94962,381.93146V354.22931h12.13477v23.87012c0,5.74805,2.71435,8.70215,7.34521,8.70215,4.62989,0,7.584-2.9541,7.584-8.70215V354.22931h12.13476v42.791H169.01359v-6.06739c-2.79492,3.59278-6.38672,6.86622-12.53418,6.86622C147.29874,397.81916,141.94962,391.7508,141.94962,381.93146Z"/><path d="M192.56632,338.741h12.13477v58.2793H192.56632Z"/><path d="M216.35734,338.741h12.77343v10.77832H216.35734Zm.31933,15.48828h12.13477v42.791H216.67667Z"/></svg>