<svg id="Layer_1" data-name="Layer 1" xmlns="http://www.w3.org/2000/svg" viewBox="0 0 1097.19995 438.02937"><title>py-mel</title><path d="M165.11412,9.76012c-4.58639.40771-8.05165,4.38254-10.59965,12.23037-4.58638,13.963-15.28795,32.81815-27.62024,48.51375C103.86037,99.85711,62.99057,142.56149,31.80314,169.876c-14.06493,12.33226-19.67051,21.40314-18.54939,29.86246a9.93156,9.93156,0,0,0,3.771,7.13438c2.64991,2.4461,3.97487,2.85374,9.58045,2.85374A105.59674,105.59674,0,0,0,42.60662,207.79c16.91867-3.4653,28.12984-4.28064,72.26108-5.19788,58.70576-1.22305,73.17835-3.4653,96.2122-14.77836,17.12249-8.35743,26.703-16.1033,55.44431-45.25237,20.18009-20.282,25.68378-25.378,25.07225-23.03383-.40767,1.73264-2.548,8.56128-4.79023,15.28795-3.56719,10.90542-4.07679,13.65727-4.58639,24.66458-.5096,15.18607,1.22305,24.35884,7.03245,35.87575,8.35743,16.71486,21.81081,23.74728,40.76789,21.40314,14.16683-1.73264,26.60105-8.96892,39.54483-23.03383,4.07679-4.38253,13.86109-17.63209,21.81081-29.35286,25.8876-38.72949,29.86246-43.41777,35.87575-41.889,4.99406,1.223,5.91133,5.29983,6.72671,29.149.81534,23.23768,1.83454,29.45482,6.52285,38.83138,12.74,25.07222,37.60837,24.35884,70.83423-2.24225,11.51692-9.27466,20.48584-18.54939,37.6084-38.83138,7.03248-8.35743,12.84186-14.98221,12.94381-14.77836.20385.20386-1.01919,4.79024-2.64988,10.29387-8.15358,26.90683-8.05169,41.27748,0,52.48865,4.79023,6.62478,11.415,10.29386,18.34554,10.29386,8.66318,0,16.30716-4.28064,27.31447-15.0841,9.47852-9.37663,13.35146-14.37065,36.28339-46.57732,19.97624-28.12981,29.251-36.28339,34.44885-30.37206,3.36334,3.87294,4.07679,7.13438,4.99409,21.607,1.73265,28.74137,4.68828,41.68519,11.72077,51.16371,7.23627,9.88622,21.19929,16.1033,32.7162,14.67646,8.66318-1.0192,18.65129-6.62478,25.07222-14.06491,7.44013-8.45932,10.90542-14.16686,22.21849-36.38535,7.44012-14.47261,10.80346-19.97623,14.88025-24.155,4.07679-4.28064,5.91133-5.40173,8.45932-5.40173,6.62478,0,10.192,7.74587,10.192,22.21848,0,9.07088,2.548,24.155,5.29984,31.49322,3.05759,8.35743,14.16686,19.46664,22.72808,22.72808,7.54209,2.85374,19.67049,3.771,27.21258,2.03839,15.89945-3.771,27.62021-13.35145,49.02335-39.95253,18.75325-23.44154,26.39723-31.28937,34.85655-35.97765,10.29387-5.80943,14.88026-4.58639,21.40314,5.70748,2.24225,3.56719,7.33823,11.415,11.31307,17.42825l7.33823,11.00731H978.9429c-7.84783,0-26.703,2.75185-30.98361,4.58639-4.48449,1.83454-6.82863,5.80943-6.82863,11.31306s2.44609,9.27467,7.74587,11.92462c3.56719,1.73265,4.17868,1.83454,11.51691.30575,4.99409-1.0192,13.04571-1.63069,22.72809-1.63069,17.22439,0,23.64538,1.32494,40.66592,8.05168,22.72815,9.07088,35.77379,11.00731,50.14445,7.33823,7.13438-1.73265,9.27467-2.75185,12.02657-5.70748,3.771-4.07679,4.07679-7.23627,1.325-13.45341-3.05759-6.52289-5.29978-7.44013-20.18015-8.45933-36.1815-2.4461-53.30406-14.37065-75.82829-52.48865-10.29387-17.63209-21.70889-25.98952-35.468-25.98952-19.26285,0-37.40454,13.35145-62.68062,46.27157-14.0649,18.34555-23.13578,27.62022-30.77976,31.49321-13.14767,6.72668-22.42234,3.87294-26.90683-8.15357-1.22305-3.15949-2.75184-11.61887-3.66908-19.5686-2.64989-23.74728-5.70748-32.92-13.45342-40.666-6.21707-6.21707-10.49771-7.84783-21.09739-7.84783-8.05168,0-9.88622.30575-14.88025,2.9557-13.24956,6.62478-20.99544,16.511-35.06041,44.33507-13.04571,25.68378-18.85514,32.7162-26.80487,32.7162-3.771,0-8.867-5.40173-10.29386-10.90542-1.63069-6.01328-2.9557-16.1033-3.66909-27.82406-1.73264-28.02792-7.23627-41.99094-18.85514-47.80037-4.99409-2.548-8.56128-3.26145-16.00141-3.26145-15.69566,0-26.19338,9.58048-58.90958,53.60975-22.01463,29.65861-22.32044,30.06631-27.82406,35.57-4.79024,4.58639-5.096,4.79024-5.80944,2.75184-1.12109-3.46529.4077-11.51691,4.68828-25.07222,9.68237-31.18741,9.88623-48.208.61149-54.93475-4.28064-3.15948-14.67646-2.85374-22.11658.5096-6.42093,2.9557-14.77836,10.29387-21.40314,18.75325-24.053,30.67781-49.63491,55.54624-64.61712,62.88447-3.66909,1.73265-5.29984,2.0384-7.33823,1.22305-7.03246-2.44609-9.58045-11.31306-9.58045-33.53161,0-18.54939-1.5288-27.41642-5.80944-35.36615-6.52285-12.02651-15.0841-17.5302-27.31447-17.63209-14.9822,0-26.703,9.47852-43.82547,35.67189-26.49912,40.666-43.01013,57.89039-56.97311,59.31729-9.88622,1.01919-19.16089-10.90542-19.16089-24.86844,0-8.66317,1.01919-12.43421,7.44012-29.45482,7.23631-19.36474,8.05165-22.42233,8.05165-32.00281,0-9.98812-1.93646-14.47261-8.45932-19.77245-3.15952-2.548-4.99406-3.15948-10.39582-3.46529-11.00732-.71345-12.23037.20385-48.92146,37.09879-26.09145,26.19338-34.44885,33.83736-41.58323,38.52564-12.02653,7.84783-21.607,12.12847-34.34694,15.288-14.77836,3.56719-29.86248,4.68828-68.2862,4.79024-18.24362,0-36.48726.4077-40.46212.81534-4.07679.40771-7.44014.5096-7.44014.30575,0-.30575,6.93054-7.13438,15.49179-15.38985,35.77382-34.44885,63.80174-66.34971,80.92424-92.03349,12.74-19.059,22.83-41.17558,22.83-49.83876,0-7.33823-6.93055-12.23036-16.00139-11.31306Z"/><path d="M372.126,356.6416q-9.03443,7.53809-25.80323,7.53809H324.8999v36.99609H303.54053V298.28613h44.17724q15.27686,0,24.35987,7.958,9.08349,7.957,9.08349,24.64063Q381.16113,349.103,372.126,356.6416ZM355.7168,319.57617q-4.08326-3.41893-11.44239-3.41992H324.8999V346.4502h19.37451q7.35865,0,11.44239-3.69922,4.08324-3.69873,4.08447-11.72754Q359.80127,322.99755,355.7168,319.57617Z"/><path d="M399.79834,415.76465l2.51318.13965a31.40406,31.40406,0,0,0,5.584-.21,10.03393,10.03393,0,0,0,4.46728-1.60547q1.7439-1.188,3.2461-4.95606,1.5-3.769,1.29248-4.60644l-27.957-79.43555h22.12744l16.61279,56.12109,15.70557-56.12109h21.15039L438.45605,399.919q-7.56152,21.6372-11.96337,26.83886-4.40259,5.2002-17.60987,5.2002-2.65577,0-4.26269-.03418-1.60767-.03663-4.82178-.24414Z"/><path d="M546.16113,298.28613h30.93555V401.17578h-20.0332V331.582q0-3,.07031-8.41113.06885-5.40821.06933-8.34082l-19.498,86.3457h-20.895l-19.35791-86.3457q0,2.93115.06982,8.34082.06812,5.41113.06983,8.41113v69.59375H477.55811V298.28613h31.28466l18.729,80.90137Z"/><path d="M673.07617,316.50488H618.62988v21.84864H668.6084v17.86914H618.62988v26.45507h56.959v18.498H597.61914V298.28613h75.457Z"/><path d="M692.34082,298.28613h21.499v84.3916h51.375v18.498h-72.874Z"/></svg>