<?xml version="1.0" encoding="UTF-8" standalone="no"?>
<!-- Created with Inkscape (http://www.inkscape.org/) -->

<svg
   version="1.1"
   id="svg118"
   width="845.85046"
   height="467.04367"
   viewBox="0 0 845.85046 467.04367"
   sodipodi:docname="pyscenedetect.svg"
   inkscape:version="1.4 (e7c3feb1, 2024-10-09)"
   xmlns:inkscape="http://www.inkscape.org/namespaces/inkscape"
   xmlns:sodipodi="http://sodipodi.sourceforge.net/DTD/sodipodi-0.dtd"
   xmlns="http://www.w3.org/2000/svg"
   xmlns:svg="http://www.w3.org/2000/svg"
   xmlns:rdf="http://www.w3.org/1999/02/22-rdf-syntax-ns#"
   xmlns:cc="http://creativecommons.org/ns#"
   xmlns:dc="http://purl.org/dc/elements/1.1/">
  <metadata
     id="metadata124">
    <rdf:RDF>
      <cc:Work
         rdf:about="">
        <dc:format>image/svg+xml</dc:format>
        <dc:type
           rdf:resource="http://purl.org/dc/dcmitype/StillImage" />
        <dc:title />
      </cc:Work>
    </rdf:RDF>
  </metadata>
  <defs
     id="defs122" />
  <sodipodi:namedview
     pagecolor="#ffffff"
     bordercolor="#666666"
     borderopacity="1"
     objecttolerance="10"
     gridtolerance="10"
     guidetolerance="10"
     inkscape:pageopacity="0"
     inkscape:pageshadow="2"
     inkscape:window-width="1137"
     inkscape:window-height="751"
     id="namedview120"
     showgrid="false"
     inkscape:zoom="0.64770981"
     inkscape:cx="425.3448"
     inkscape:cy="301.8327"
     inkscape:window-x="316"
     inkscape:window-y="32"
     inkscape:window-maximized="0"
     inkscape:current-layer="svg118"
     inkscape:showpageshadow="2"
     inkscape:pagecheckerboard="0"
     inkscape:deskcolor="#d1d1d1" />
  <g
     id="g130"
     transform="translate(-75.89197,-195.89197)">
    <path
       style="fill:#969fa5"
       d="m 176,662.09179 c -2.24117,-0.63546 -2.49611,-1.22045 -2.46245,-5.65032 0.0539,-7.08664 0.80957,-8.44147 4.70856,-8.44147 4.35056,0 6.98332,-1.96478 9.19,-6.85833 l 1.80535,-4.00354 -9.37073,-24.72112 c -8.54204,-22.53493 -9.65814,-24.89328 -12.62073,-26.66784 -2.94403,-1.76345 -3.25,-2.39807 -3.25,-6.74096 0,-3.44922 0.44377,-4.96452 1.58179,-5.40122 3.06287,-1.17534 27.95507,-0.67013 29.21821,0.59301 0.66,0.66 1.2,3.17409 1.2,5.58686 0,3.95599 -0.29466,4.49809 -3,5.51924 -1.65,0.62281 -3,1.59537 -3,2.16126 0,1.9839 7.17269,22.53264 7.86518,22.53264 0.73082,0 8.57468,-22.9826 7.97683,-23.37218 -0.18811,-0.12257 -1.57951,-0.75433 -3.09201,-1.4039 -2.46674,-1.05939 -2.75,-1.68725 -2.75,-6.09549 0,-3.55885 0.43632,-5.08188 1.58179,-5.52144 3.06287,-1.17534 27.95507,-0.67013 29.21821,0.59301 0.66,0.66 1.2,3.15796 1.2,5.55103 0,3.96192 -0.29064,4.47321 -3.25,5.71731 -3.06507,1.28854 -3.66989,2.49481 -10.62917,21.19897 -15.41586,41.43254 -17.05154,45.22679 -21.47827,49.8228 -5.51682,5.72777 -13.01839,7.76344 -20.64256,5.60168 z m 86,-23.71715 c -9.24773,-1.79031 -20.99037,-7.61962 -23.03139,-11.43328 -1.40518,-2.62561 -1.22418,-17.28579 0.23139,-18.74136 1.59098,-1.59098 11.26494,-1.55254 12.58397,0.05 0.56587,0.6875 1.34299,3.3603 1.72692,5.93957 0.38394,2.57926 1.43856,5.32804 2.34359,6.10839 4.95769,4.27472 17.82844,5.06024 23.24764,1.41886 2.90376,-1.95117 3.44083,-2.93558 3.69325,-6.76944 0.4198,-6.37592 -2.69813,-9.04526 -15.83529,-13.55705 -12.5129,-4.29739 -16.74018,-6.38034 -21.58926,-10.63789 -10.07444,-8.84548 -9.78138,-24.10939 0.63405,-33.02462 10.23804,-8.76337 29.65401,-9.96955 44.64773,-2.77364 9.48042,4.54991 10.3474,5.79707 10.3474,14.88478 0,4.70303 -0.47282,8.23386 -1.2,8.96104 -1.62534,1.62534 -11.26519,1.54933 -12.63369,-0.0996 -0.59323,-0.71479 -1.38572,-3.2203 -1.7611,-5.5678 -0.90567,-5.66376 -3.57626,-7.31559 -12.78267,-7.90642 -8.10301,-0.52002 -12.38878,0.96124 -15.2015,5.254 -2.13894,3.26442 -1.0493,7.93628 2.42861,10.41277 1.48321,1.05614 7.27749,3.51471 12.87618,5.46348 11.85403,4.12612 15.38313,5.82435 20.562,9.89459 6.96595,5.47476 10.14948,15.67162 7.72681,24.74899 -1.56963,5.88116 -8.85345,13.06731 -15.60866,15.39935 -4.94212,1.70612 -18.76892,2.87301 -23.40598,1.97529 z m 67.7175,-0.40501 c -5.47773,-1.37849 -8.73293,-3.30297 -12.91815,-7.63721 -11.34887,-11.75297 -11.77989,-36.12053 -0.85837,-48.52803 5.8284,-6.62141 12.37423,-9.22385 23.05902,-9.16764 9.31674,0.049 15.17719,1.73555 20.7191,5.96257 l 3.35644,2.56008 -0.28777,8.6703 -0.28777,8.6703 -6.33731,0.29998 c -7.23242,0.34236 -8.68932,-0.46318 -9.598,-5.30687 C 345.77475,589.28237 342.7334,587 337.91235,587 c -7.53038,0 -11.23942,6.10505 -11.23942,18.5 0,12.15213 3.73328,18.5 10.88014,18.5 4.9059,0 6.33508,-0.86044 8.50985,-5.12333 L 348.04065,615 h 7.51106 c 8.64629,0 9.43856,0.75141 7.52532,7.13724 -1.55529,5.1911 -7.47759,11.69513 -12.80076,14.05814 -5.01019,2.22409 -15.25716,3.10841 -20.55877,1.77425 z m 63.01697,0.006 c -13.52163,-3.41382 -21.41694,-13.55579 -22.46166,-28.85327 -1.26915,-18.58368 7.7075,-33.10794 22.33958,-36.14555 12.61161,-2.61816 24.19226,2.04376 29.75727,11.97911 2.66557,4.75891 3.10846,6.65754 3.4674,14.86418 0.31657,7.23814 0.0945,9.6092 -0.96279,10.27891 -0.75585,0.47878 -8.88521,0.8774 -18.06525,0.88582 -9.18004,0.008 -16.91188,0.37273 -17.18186,0.80957 -1.05243,1.70286 3.29854,9.11596 6.2446,10.63942 4.18738,2.16538 12.68564,1.95011 17.98744,-0.45564 2.39757,-1.08792 4.75092,-1.97804 5.22968,-1.97804 1.1881,0 4.91112,7.46341 4.91112,9.84515 0,5.54965 -20.43723,10.86418 -31.26553,8.13034 z M 408,595.95034 c 0,-2.83195 -2.59031,-7.57915 -4.5448,-8.32916 -3.09697,-1.18842 -7.20125,-0.60877 -9.72042,1.3728 -2.55211,2.0075 -5.07359,7.33387 -3.98646,8.42101 0.32176,0.32175 4.56001,0.58501 9.41835,0.58501 8.238,0 8.83333,-0.13814 8.83333,-2.04966 z m 121.73447,42.02515 c -13.52163,-3.41382 -21.41694,-13.55579 -22.46166,-28.85327 -1.26915,-18.58368 7.7075,-33.10794 22.33958,-36.14555 12.61161,-2.61816 24.19226,2.04376 29.75727,11.97911 2.66557,4.75891 3.10846,6.65754 3.4674,14.86418 0.31657,7.23814 0.0945,9.6092 -0.96279,10.27891 -0.75585,0.47878 -8.88521,0.8774 -18.06525,0.88582 -9.18004,0.008 -16.91188,0.37273 -17.18186,0.80957 -1.05243,1.70286 3.29854,9.11596 6.2446,10.63942 4.18738,2.16538 12.68564,1.95011 17.98744,-0.45564 2.39757,-1.08792 4.75092,-1.97804 5.22968,-1.97804 1.1881,0 4.91112,7.46341 4.91112,9.84515 0,5.54965 -20.43723,10.86418 -31.26553,8.13034 z M 545,595.95034 c 0,-2.83195 -2.59031,-7.57915 -4.5448,-8.32916 -3.09697,-1.18842 -7.20125,-0.60877 -9.72042,1.3728 -2.55211,2.0075 -5.07359,7.33387 -3.98646,8.42101 0.32176,0.32175 4.56001,0.58501 9.41835,0.58501 8.238,0 8.83333,-0.13814 8.83333,-2.04966 z m 128.73447,42.02515 c -13.52163,-3.41382 -21.41694,-13.55579 -22.46166,-28.85327 -1.26915,-18.58368 7.7075,-33.10794 22.33958,-36.14555 12.61161,-2.61816 24.19226,2.04376 29.75727,11.97911 2.66557,4.75891 3.10846,6.65754 3.4674,14.86418 0.31657,7.23814 0.0945,9.6092 -0.96279,10.27891 -0.75585,0.47878 -8.88521,0.8774 -18.06525,0.88582 -9.18004,0.008 -16.91188,0.37273 -17.18186,0.80957 -1.05243,1.70286 3.29854,9.11596 6.2446,10.63942 4.18738,2.16538 12.68564,1.95011 17.98744,-0.45564 2.39757,-1.08792 4.75092,-1.97804 5.22968,-1.97804 1.1881,0 4.91112,7.46341 4.91112,9.84515 0,5.54965 -20.43723,10.86418 -31.26553,8.13034 z M 689,595.95034 c 0,-2.83195 -2.59031,-7.57915 -4.5448,-8.32916 -3.09697,-1.18842 -7.20125,-0.60877 -9.72042,1.3728 -2.55211,2.0075 -5.07359,7.33387 -3.98646,8.42101 0.32176,0.32175 4.56001,0.58501 9.41835,0.58501 8.238,0 8.83333,-0.13814 8.83333,-2.04966 z m 44.6838,41.6644 c -4.54652,-1.69721 -7.30211,-4.04137 -9.53618,-8.11238 -1.31265,-2.39196 -1.74927,-6.96443 -2.14762,-22.4906 -0.47531,-18.5259 -0.59876,-19.50309 -2.5,-19.78893 -6.63111,-0.99698 -6.5,-0.85128 -6.5,-7.22283 0,-6.37086 -0.12427,-6.23282 6.5,-7.22026 1.7231,-0.25685 2.06922,-1.266 2.5,-7.28893 L 722.5,558.5 h 8.5 8.5 l 0.5,7 c 0.49452,6.92333 0.53286,7.003 3.5,7.27421 7.436,0.67966 7.5,0.74133 7.5,7.22579 0,6.48446 -0.064,6.54613 -7.5,7.22579 l -3,0.27421 -0.27608,15.88572 c -0.32631,18.7755 0.19146,20.31301 7.00658,20.80604 l 4.2607,0.30824 0.84963,5.36906 c 0.65671,4.14999 0.53166,5.68702 -0.55075,6.76943 -2.08278,2.08278 -13.49389,2.69804 -18.10628,0.97625 z m 47.05067,0.36075 c -13.52163,-3.41382 -21.41694,-13.55579 -22.46166,-28.85327 -1.26915,-18.58368 7.7075,-33.10794 22.33958,-36.14555 12.61161,-2.61816 24.19226,2.04376 29.75727,11.97911 2.66557,4.75891 3.10846,6.65754 3.4674,14.86418 0.31657,7.23814 0.0945,9.6092 -0.96279,10.27891 -0.75585,0.47878 -8.88521,0.8774 -18.06525,0.88582 -9.18004,0.008 -16.91188,0.37273 -17.18186,0.80957 -1.05243,1.70286 3.29854,9.11596 6.2446,10.63942 4.18738,2.16538 12.68564,1.95011 17.98744,-0.45564 2.39757,-1.08792 4.75092,-1.97804 5.22968,-1.97804 1.1881,0 4.91112,7.46341 4.91112,9.84515 0,5.54965 -20.43723,10.86418 -31.26553,8.13034 z M 796,595.95034 c 0,-2.83195 -2.59031,-7.57915 -4.5448,-8.32916 -3.09697,-1.18842 -7.20125,-0.60877 -9.72042,1.3728 -2.55211,2.0075 -5.07359,7.33387 -3.98646,8.42101 0.32176,0.32175 4.56001,0.58501 9.41835,0.58501 8.238,0 8.83333,-0.13814 8.83333,-2.04966 z m 46.7175,42.01929 c -5.47773,-1.37849 -8.73293,-3.30297 -12.91815,-7.63721 -11.34887,-11.75297 -11.77989,-36.12053 -0.85837,-48.52803 5.8284,-6.62141 12.37423,-9.22385 23.05902,-9.16764 9.31674,0.049 15.17719,1.73555 20.7191,5.96257 l 3.35644,2.56008 -0.28777,8.6703 -0.28777,8.6703 -6.33731,0.29998 c -7.23242,0.34236 -8.68932,-0.46318 -9.598,-5.30687 C 858.77475,589.28237 855.7334,587 850.91235,587 c -7.53038,0 -11.23942,6.10505 -11.23942,18.5 0,12.15213 3.73328,18.5 10.88014,18.5 4.9059,0 6.33508,-0.86044 8.50985,-5.12333 L 861.04065,615 h 7.51106 c 8.64629,0 9.43856,0.75141 7.52532,7.13724 -1.55529,5.1911 -7.47759,11.69513 -12.80076,14.05814 -5.01019,2.22409 -15.25716,3.10841 -20.55877,1.77425 z m 59.9663,-0.35489 c -4.54652,-1.69721 -7.30211,-4.04137 -9.53618,-8.11238 -1.31265,-2.39196 -1.74927,-6.96443 -2.14762,-22.4906 -0.47531,-18.5259 -0.59876,-19.50309 -2.5,-19.78893 -6.63111,-0.99698 -6.5,-0.85128 -6.5,-7.22283 0,-6.37086 -0.12427,-6.23282 6.5,-7.22026 1.7231,-0.25685 2.06922,-1.266 2.5,-7.28893 L 891.5,558.5 h 8.5 8.5 l 0.5,7 c 0.49452,6.92333 0.53286,7.003 3.5,7.27421 7.436,0.67966 7.5,0.74133 7.5,7.22579 0,6.48446 -0.064,6.54613 -7.5,7.22579 l -3,0.27421 -0.27608,15.88572 c -0.32631,18.7755 0.19146,20.31301 7.00658,20.80604 l 4.2607,0.30824 0.84963,5.36906 c 0.65671,4.14999 0.53166,5.68702 -0.55075,6.76943 -2.08278,2.08278 -13.49389,2.69804 -18.10628,0.97625 z M 89.2,636.8 c -1.3158,-1.3158 -1.604365,-7.6164 -0.433129,-9.45703 0.404936,-0.63637 2.310545,-1.56497 4.234688,-2.06357 L 96.5,624.37286 V 594.5 564.62714 l -3.498441,-0.90654 c -1.924143,-0.4986 -3.829752,-1.4272 -4.234688,-2.06357 -1.278182,-2.0087 -0.827651,-8.3617 0.681823,-9.61445 1.069449,-0.88756 7.679488,-1.09877 25.249996,-0.80678 19.32459,0.32114 24.65824,0.71758 28.35732,2.10777 6.05001,2.27371 11.33238,6.75988 14.69498,12.48005 2.42023,4.11708 2.74757,5.69298 2.73701,13.17638 -0.0142,10.03081 -1.98087,14.69814 -8.5701,20.33828 -5.96823,5.10858 -11.64641,6.81018 -24.70498,7.40345 l -11.28707,0.51278 0.28707,8.5617 0.28708,8.5617 3.49844,0.90402 c 1.92414,0.4972 3.82975,1.42467 4.23469,2.06104 1.17124,1.84063 0.88267,8.14123 -0.43313,9.45703 -0.83395,0.83395 -6.11111,1.2 -17.3,1.2 -11.188889,0 -16.466046,-0.36605 -17.3,-1.2 z m 46.7036,-46.06474 c 4.23008,-2.17392 6.48568,-6.25003 6.40535,-11.57513 -0.14916,-9.88734 -4.5047,-13.15082 -17.55895,-13.15639 L 116,566 v 13 13 l 8.75,-0.0147 c 4.95045,-0.008 9.79373,-0.55114 11.1536,-1.25 z m 297.28535,46.40268 c -0.8678,-0.55034 -1.20589,-2.48915 -1,-5.73469 0.29329,-4.62326 0.51091,-4.9678 3.81105,-6.03365 l 3.5,-1.13041 0.27215,-18.64248 c 0.21059,-14.42531 -0.0156,-18.71954 -1,-18.98313 -7.1606,-1.9174 -7.2615,-2.0033 -7.58326,-6.45605 -0.47935,-6.63361 0.45515,-7.15984 12.68355,-7.14222 5.84516,0.008 11.15438,0.35043 11.79828,0.76002 0.64389,0.40959 1.46955,1.93538 1.83481,3.39066 l 0.66409,2.64596 4.66519,-2.89474 c 8.61456,-5.3453 18.80184,-4.80917 25.82728,1.35925 5.92168,5.1993 6.66693,8.07315 7.28565,28.0949 l 0.55226,17.87135 3.5,1.12865 c 3.20445,1.03334 3.52627,1.49376 3.81111,5.45254 0.49942,6.94113 -0.0485,7.1761 -16.73355,7.1761 -10.08255,0 -15.05324,-0.37568 -15.87756,-1.2 -1.32597,-1.32597 -1.6009,-7.62134 -0.41434,-9.48744 0.41528,-0.65309 1.98339,-1.65445 3.48469,-2.22525 L 477,624.0495 v -16.0702 c 0,-15.72886 -0.0521,-16.12235 -2.45455,-18.52475 -4.26392,-4.26393 -14.49939,-2.49069 -15.90469,2.7554 -0.86839,3.24176 -0.76163,30.07965 0.12455,31.3104 0.40408,0.5612 1.97219,1.56405 3.48469,2.22857 2.46305,1.08213 2.75,1.721 2.75,6.12265 0,3.55885 -0.43632,5.08188 -1.58179,5.52144 -2.39471,0.91894 -28.7284,0.69674 -30.22926,-0.25507 z M 570.2,636.8 c -1.3158,-1.3158 -1.60437,-7.6164 -0.43313,-9.45703 0.40494,-0.63637 2.31055,-1.56497 4.23469,-2.06357 L 577.5,624.37286 V 594.5 564.62714 l -3.49844,-0.90654 c -1.92414,-0.4986 -3.82975,-1.4272 -4.23469,-2.06357 -1.17124,-1.84063 -0.88267,-8.14123 0.43313,-9.45703 1.73752,-1.73752 39.43106,-1.60866 46.94745,0.1605 10.97092,2.58226 18.80276,9.04317 23.75144,19.59387 2.482,5.29169 2.60111,6.32409 2.60111,22.54563 0,16.22154 -0.11911,17.25394 -2.60111,22.54563 -4.94868,10.5507 -12.78052,17.01161 -23.75144,19.59387 -7.51639,1.76916 -45.20993,1.89802 -46.94745,0.1605 z m 44.09774,-15.15104 c 4.4182,-1.84605 9.43626,-7.81662 10.40294,-12.37758 C 625.1403,607.19712 625.5,600.55 625.5,594.5 c 0,-13.87691 -0.8139,-17.64899 -4.7837,-22.17034 C 616.48769,567.51354 612.49819,566 604.03212,566 H 597 v 28.5 28.5 h 7.03212 c 3.86766,0 8.48719,-0.60797 10.26562,-1.35104 z M 77.2,484.8 c -1.74404,-1.74404 -1.74404,-285.85596 0,-287.6 1.74404,-1.74404 285.85596,-1.74404 287.6,0 1.74404,1.74404 1.74404,285.85596 0,287.6 -1.74404,1.74404 -285.85596,1.74404 -287.6,0 z M 278,398 c 1.91924,-1.91924 1.99938,-3.32251 1.98469,-34.75 -0.008,-18.0125 -0.36967,-33.30795 -0.80277,-33.98988 -0.60409,-0.95118 -11.60249,-1.30045 -47.23468,-1.5 C 192.98939,327.54194 185.5,327.2749 185.5,326.10399 c 0,-0.96917 13.5583,-5.55556 44.34305,-15 L 274.1861,297.5 273.71672,294 c -0.83829,-6.25083 -3.369,-11 -5.8616,-11 -2.64566,0 -100.83001,29.84124 -102.47965,31.14671 -1.01887,0.8063 -2.42917,8.42945 -2.45922,13.29291 -0.007,1.06679 0.90956,3.18607 2.03588,4.70951 1.96016,2.65126 2.04787,4.09687 2.04787,33.75367 0,30.88415 0.007,30.9888 2.22251,32.5405 1.94273,1.36074 8.80325,1.5567 54.5,1.5567 50.94416,0 52.3285,-0.051 54.27749,-2 z m -107.42857,-1.57143 c -2.35357,-2.35356 -2.35357,-48.50358 0,-50.85714 C 171.9592,344.18365 178.14502,344 223.5,344 c 45.35498,0 51.5408,0.18365 52.92857,1.57143 2.35357,2.35356 2.35357,48.50358 0,50.85714 C 275.0408,397.81635 268.85498,398 223.5,398 c -45.35498,0 -51.5408,-0.18365 -52.92857,-1.57143 z M 172,340.12736 c 0,-1.02995 2.04324,-3.75603 4.54052,-6.05795 3.85671,-3.55498 5.08755,-4.13893 8.1727,-3.87736 1.9977,0.16937 3.82239,0.88673 4.05488,1.59413 0.23248,0.70741 -1.58603,3.29491 -4.04113,5.75 C 180.88244,341.38072 179.68997,342 176.13158,342 172.76033,342 172,341.65538 172,340.12736 Z m 14,0 c 0,-1.02995 2.01495,-3.72995 4.47766,-6 3.69971,-3.41028 5.17649,-4.12736 8.5,-4.12736 5.36327,0 5.31242,2.1098 -0.18587,7.71215 -3.66143,3.73073 -4.76584,4.28785 -8.5,4.28785 C 186.76396,342 186,341.66666 186,340.12736 Z m 14.44086,0.77695 c -0.37245,-0.60263 1.5135,-3.32195 4.19098,-6.04293 4.39616,-4.46757 5.24845,-4.91884 8.79044,-4.65431 2.15725,0.16111 4.11268,0.87171 4.34539,1.57911 0.23272,0.70741 -1.5856,3.29491 -4.0407,5.75 -3.82366,3.82366 -5.04786,4.46382 -8.53637,4.46382 -2.23991,0 -4.37729,-0.49306 -4.74974,-1.09569 z M 215,340.12736 c 0,-1.02995 2.04324,-3.75603 4.54052,-6.05795 3.85671,-3.55498 5.08755,-4.13893 8.1727,-3.87736 1.9977,0.16937 3.82239,0.88673 4.05488,1.59413 0.23248,0.70741 -1.58603,3.29491 -4.04113,5.75 C 223.88244,341.38072 222.68997,342 219.13158,342 215.76033,342 215,341.65538 215,340.12736 Z m 14.44086,0.77695 c -0.37245,-0.60263 1.49658,-3.30263 4.15339,-6 4.09641,-4.15895 5.40621,-4.90431 8.61816,-4.90431 5.11362,0 4.9939,2.19516 -0.42062,7.71215 -3.46746,3.53309 -4.86526,4.28785 -7.94098,4.28785 -2.05303,0 -4.0375,-0.49306 -4.40995,-1.09569 z M 244,340.12736 c 0,-1.02995 2.04324,-3.75603 4.54052,-6.05795 3.85671,-3.55498 5.08755,-4.13893 8.1727,-3.87736 1.9977,0.16937 3.82239,0.88673 4.05488,1.59413 0.23248,0.70741 -1.58603,3.29491 -4.04113,5.75 C 252.88244,341.38072 251.68997,342 248.13158,342 244.76033,342 244,341.65538 244,340.12736 Z m 14,0 c 0,-1.02995 2.01495,-3.72995 4.47766,-6 3.69971,-3.41028 5.17649,-4.12736 8.5,-4.12736 5.36327,0 5.31242,2.1098 -0.18587,7.71215 -3.66143,3.73073 -4.76584,4.28785 -8.5,4.28785 C 258.76396,342 258,341.66666 258,340.12736 Z m 14.47293,0.82884 c -0.79421,-1.28507 1.29242,-3.9562 3.0905,-3.9562 1.78069,0 2.57454,1.47688 1.83283,3.40976 -0.68538,1.78605 -3.93435,2.14665 -4.92333,0.54644 z m -105.25042,-9.5129 c -2.47805,-1.73569 -3.08085,-7.18496 -1.02251,-9.2433 2.05834,-2.05834 7.50761,-1.45554 9.2433,1.02251 2.13569,3.04913 1.96238,4.46272 -0.89785,7.32294 -2.86022,2.86023 -4.27381,3.03354 -7.32294,0.89785 z m 10.27367,-9.44752 c -0.99758,-1.10232 -3.54233,-2.46966 -5.65498,-3.03854 -4.95458,-1.33413 -4.92759,-3.55147 0.0614,-5.04621 3.62775,-1.0869 4.29685,-0.94369 9.5,2.03325 6.10885,3.49513 6.99851,5.57252 3.03229,7.08047 -3.69301,1.40408 -4.89864,1.2253 -6.93872,-1.02897 z M 187.5,316.96861 c -6.11906,-3.58652 -6.57518,-6.07937 -1.34866,-7.37087 3.16122,-0.78116 4.36927,-0.49695 9,2.11735 6.40521,3.6161 7.17645,5.62639 2.75049,7.16929 -4.3234,1.50714 -4.67121,1.44308 -10.40183,-1.91577 z m 14.99204,-3.57849 c -2.74562,-1.43543 -5.53827,-3.12293 -6.20588,-3.75 -1.92457,-1.80769 0.0485,-3.74767 4.31972,-4.24723 2.97826,-0.34835 5.05406,0.19866 8.82603,2.32582 2.71255,1.52971 5.11469,3.35019 5.33808,4.04552 0.22825,0.71045 -1.15146,1.91504 -3.1498,2.75 -4.35498,1.81963 -3.23331,1.95776 -9.12815,-1.12411 z m 12.32673,-4.9209 c -5.72101,-2.9791 -6.68734,-4.36094 -4.28042,-6.12092 2.77117,-2.02633 6.96392,-1.63421 12.49489,1.16855 5.43995,2.75663 6.64638,5.79977 2.71676,6.85286 -3.81502,1.02239 -6.0716,0.63006 -10.93123,-1.90049 z m 13.69372,-4.24258 c -6.40653,-3.5024 -6.9391,-5.71893 -1.74782,-7.27428 3.60739,-1.0808 4.29912,-0.93346 9.56202,2.03674 6.18301,3.48948 7.08216,5.52476 3.10821,7.03565 -3.83583,1.45838 -5.45255,1.19223 -10.92241,-1.79811 z m 13.68583,-4.36108 c -6.18913,-3.60761 -6.52606,-5.90729 -1.06383,-7.26111 3.14677,-0.77994 4.3396,-0.47998 9.23938,2.32339 3.09437,1.77042 5.62613,3.81689 5.62613,4.54773 0,1.23453 -4.89704,3.55252 -7.39922,3.50237 -0.60543,-0.0121 -3.48654,-1.41271 -6.40246,-3.11238 z m 14.69005,-3.7447 c -6.57493,-3.51314 -7.20603,-6.17164 -1.78322,-7.51184 3.07454,-0.75984 4.38955,-0.46549 8.93476,2 2.93129,1.59004 5.51111,3.45988 5.73293,4.15521 0.22624,0.70917 -1.15793,1.91655 -3.15265,2.75 -4.41562,1.84496 -3.39871,1.99056 -9.73182,-1.39337 z m 8.11205,-7.62035 c -0.91998,-1.10851 -0.99946,-1.90147 -0.26426,-2.63667 1.64441,-1.64441 4.76384,-0.57302 4.76384,1.63616 0,2.48425 -2.75904,3.09773 -4.49958,1.00051 z"
       id="path134"
       inkscape:connector-curvature="0" />
    <path
       style="fill:#585f6c"
       d="m 175.843,659.97195 c -0.91135,-0.53198 -1.50095,-1.7558 -1.31023,-2.71959 1.43138,-7.23337 1.44293,-7.25236 4.40956,-7.25236 3.82475,0 8.43209,-3.97925 10.45178,-9.02695 l 1.61424,-4.0344 -9.60479,-25.21932 C 176.12092,597.8487 171.33894,585.9375 170.77694,585.25 170.21493,584.5625 168.91021,584 167.87756,584 166.31897,584 166,583.23551 166,579.5 V 575 h 14.0575 14.0575 l -0.3075,4.21015 c -0.25945,3.5523 -0.69814,4.30092 -2.8075,4.791 -1.46356,0.34004 -2.61408,1.39299 -2.77518,2.53984 -0.41189,2.93229 8.34888,26.95901 9.82996,26.95901 1.15917,0 9.94522,-24.07005 9.94522,-27.24568 0,-0.71738 -1.35,-1.57432 -3,-1.90432 -2.78476,-0.55695 -3,-0.91389 -3,-4.975 V 575 h 14 14 v 4.02475 c 0,3.35197 -0.4099,4.18059 -2.4521,4.95704 -3.21892,1.22383 -3.46087,1.75602 -16.06332,35.33299 -5.94829,15.84813 -12.09635,30.83516 -13.66237,33.30451 -1.90522,3.00423 -4.24933,5.12616 -7.08475,6.41326 -4.52,2.05178 -12.16299,2.53383 -14.89446,0.9394 z m 81.38715,-24.52235 c -6.33181,-1.70468 -9.94608,-3.49825 -14.11027,-7.00218 C 240.08206,625.89126 240,625.60097 240,617.41111 V 609 h 5.4121 5.4121 l 0.66095,4.25 c 1.09105,7.01562 1.4909,7.69713 5.80815,9.89963 12.40898,6.33059 27.7067,1.50146 27.7067,-8.74634 0,-6.81886 -4.94418,-10.62306 -20.5,-15.7733 -10.33282,-3.42101 -17.66685,-7.67112 -21.17567,-12.27141 -2.35527,-3.08793 -2.84908,-4.80215 -3.1012,-10.76566 -0.37071,-8.76829 1.98826,-13.52707 9.05865,-18.27409 11.3613,-7.62792 32.96121,-6.68416 45.87544,2.00444 3.28507,2.21016 3.34779,2.39079 3.63322,10.46286 L 299.08088,578 h -5.46954 -5.46954 l -1.16013,-5.58831 c -1.05194,-5.06715 -1.50153,-5.73183 -4.8209,-7.12722 -10.58908,-4.45141 -23.76669,-1.86522 -26.73863,5.24764 -3.29702,7.89088 1.8317,12.85562 19.07786,18.46789 18.65453,6.07058 25.5,13.09165 25.5,26.15413 0,9.65554 -8.01382,18.39634 -19.03295,20.75952 -6.84052,1.46703 -17.32554,1.26205 -23.7369,-0.46405 z m 69.95246,-0.29072 c -6.56247,-2.3414 -11.33241,-6.83735 -14.36582,-13.54062 -1.97086,-4.35526 -2.31619,-6.75809 -2.31647,-16.11826 -2.9e-4,-10.03632 0.24617,-11.50195 2.81324,-16.72959 5.30865,-10.81063 14.61004,-15.51864 28.57305,-14.46262 5.45004,0.41218 8.99916,1.33914 13.0497,3.40833 l 5.56369,2.84216 0.29044,8.22086 0.29044,8.22086 h -5.92172 -5.92173 l -1.12783,-4.47904 c -1.39541,-5.54166 -5.31569,-8.02491 -11.38393,-7.21099 -8.46061,1.13481 -12.29905,8.76874 -11.52765,22.92632 0.51479,9.44779 2.40791,13.99145 6.76925,16.24678 6.0204,3.11328 11.79055,1.44492 15.5389,-4.49284 2.57833,-4.08434 2.58465,-4.08723 8.28706,-3.78884 4.99341,0.26128 5.74561,0.57141 6.01745,2.48093 0.35723,2.50928 -2.07172,7.74704 -5.17765,11.165 -5.91304,6.50708 -19.32158,8.92539 -29.45042,5.31156 z m 64.1821,0.75206 c -6.39445,-1.85325 -12.66678,-7.11088 -15.78772,-13.23367 -2.44954,-4.80561 -3.04128,-7.35566 -3.38756,-14.59828 -0.93662,-19.59034 8.02881,-32.38167 23.69175,-33.80193 9.25853,-0.83954 15.65924,1.16812 21.11367,6.62256 5.33769,5.33768 7.09272,10.28471 7.34059,20.69137 L 424.5,608.5 l -18,0.5 -18,0.5 -0.27203,3 c -0.34477,3.80207 2.77611,8.92221 7.01289,11.5054 4.23395,2.58147 11.19859,2.57958 17.99841,-0.005 2.8934,-1.09972 5.36408,-1.99972 5.49041,-2 0.12632,-2.7e-4 1.13402,1.77216 2.23932,3.93874 1.80647,3.54096 1.8545,4.0944 0.47511,5.47379 -4.21757,4.21758 -21.91543,6.86402 -30.0794,4.49791 z m 18.4324,-39.44314 c 0.74359,-7.58864 -8.13213,-13.58593 -15.15219,-10.2383 -4.56784,2.17825 -8.41141,10.67068 -5.94547,13.13661 0.38469,0.3847 5.22219,0.5722 10.75,0.41667 L 409.5,599.5 Z m 118.5676,39.44314 c -6.39445,-1.85325 -12.66678,-7.11088 -15.78772,-13.23367 -2.44954,-4.80561 -3.04128,-7.35566 -3.38756,-14.59828 -0.93662,-19.59034 8.02881,-32.38167 23.69175,-33.80193 9.25853,-0.83954 15.65924,1.16812 21.11367,6.62256 5.33769,5.33768 7.09272,10.28471 7.34059,20.69137 L 561.5,608.5 l -18,0.5 -18,0.5 -0.27203,3 c -0.34477,3.80207 2.77611,8.92221 7.01289,11.5054 4.23395,2.58147 11.19859,2.57958 17.99841,-0.005 2.8934,-1.09972 5.36408,-1.99972 5.49041,-2 0.12632,-2.7e-4 1.13402,1.77216 2.23932,3.93874 1.80647,3.54096 1.8545,4.0944 0.47511,5.47379 -4.21757,4.21758 -21.91543,6.86402 -30.0794,4.49791 z m 18.4324,-39.44314 c 0.74359,-7.58864 -8.13213,-13.58593 -15.15219,-10.2383 -4.56784,2.17825 -8.41141,10.67068 -5.94547,13.13661 0.38469,0.3847 5.22219,0.5722 10.75,0.41667 L 546.5,599.5 Z m 125.5676,39.44314 c -6.39445,-1.85325 -12.66678,-7.11088 -15.78772,-13.23367 -2.44954,-4.80561 -3.04128,-7.35566 -3.38756,-14.59828 -0.93662,-19.59034 8.02881,-32.38167 23.69175,-33.80193 9.25853,-0.83954 15.65924,1.16812 21.11367,6.62256 5.33769,5.33768 7.09272,10.28471 7.34059,20.69137 L 705.5,608.5 l -18,0.5 -18,0.5 -0.27203,3 c -0.34477,3.80207 2.77611,8.92221 7.01289,11.5054 4.23395,2.58147 11.19859,2.57958 17.99841,-0.005 2.8934,-1.09972 5.36408,-1.99972 5.49041,-2 0.12632,-2.7e-4 1.13402,1.77216 2.23932,3.93874 1.80647,3.54096 1.8545,4.0944 0.47511,5.47379 -4.21757,4.21758 -21.91543,6.86402 -30.0794,4.49791 z m 18.4324,-39.44314 c 0.74359,-7.58864 -8.13213,-13.58593 -15.15219,-10.2383 -4.56784,2.17825 -8.41141,10.67068 -5.94547,13.13661 0.38469,0.3847 5.22219,0.5722 10.75,0.41667 L 690.5,599.5 Z m 42.84544,39.50399 c -1.5716,-0.47096 -3.7712,-1.66978 -4.88802,-2.66404 C 724.62963,629.63548 724,626.04992 724,606.23212 c 0,-13.31387 -0.35163,-19.18375 -1.2,-20.03212 -0.66,-0.66 -2.685,-1.2 -4.5,-1.2 -3.29333,0 -3.3,-0.0101 -3.3,-5 0,-4.9899 0.007,-5 3.3,-5 4.70329,0 5.7,-1.52129 5.7,-8.7 V 560 h 7 7 v 6.3 c 0,3.56667 0.52063,6.82063 1.2,7.5 0.66,0.66 3.135,1.2 5.5,1.2 h 4.3 v 5 5 h -4.37756 c -2.61089,0 -4.86485,0.58716 -5.58501,1.4549 -0.87016,1.04847 -1.11387,6.24154 -0.87244,18.58993 0.32472,16.60858 0.40754,17.19372 2.69579,19.0451 1.29844,1.05054 3.83345,1.91007 5.63337,1.91007 3.47753,0 4.46327,1.56346 4.4922,7.125 0.0111,2.14432 -0.55858,2.73945 -3.11135,3.25 -4.17652,0.8353 -10.71798,0.64999 -14.23245,-0.40321 z m 45.72216,-0.0609 c -6.39445,-1.85325 -12.66678,-7.11088 -15.78772,-13.23367 -2.44954,-4.80561 -3.04128,-7.35566 -3.38756,-14.59828 -0.93662,-19.59034 8.02881,-32.38167 23.69175,-33.80193 9.25853,-0.83954 15.65924,1.16812 21.11367,6.62256 5.33769,5.33768 7.09272,10.28471 7.34059,20.69137 L 812.5,608.5 l -18,0.5 -18,0.5 -0.27203,3 c -0.34477,3.80207 2.77611,8.92221 7.01289,11.5054 4.23395,2.58147 11.19859,2.57958 17.99841,-0.005 2.8934,-1.09972 5.36408,-1.99972 5.49041,-2 0.12632,-2.7e-4 1.13402,1.77216 2.23932,3.93874 1.80647,3.54096 1.8545,4.0944 0.47511,5.47379 -4.21757,4.21758 -21.91543,6.86402 -30.0794,4.49791 z m 18.4324,-39.44314 c 0.74359,-7.58864 -8.13213,-13.58593 -15.15219,-10.2383 -4.56784,2.17825 -8.41141,10.67068 -5.94547,13.13661 0.38469,0.3847 5.22219,0.5722 10.75,0.41667 L 797.5,599.5 l 0.29711,-3.0322 z m 42.3855,38.69108 c -6.56247,-2.3414 -11.33241,-6.83735 -14.36582,-13.54062 -1.97086,-4.35526 -2.31619,-6.75809 -2.31647,-16.11826 -2.9e-4,-10.03632 0.24617,-11.50195 2.81324,-16.72959 5.30865,-10.81063 14.61004,-15.51864 28.57305,-14.46262 5.45004,0.41218 8.99916,1.33914 13.0497,3.40833 l 5.56369,2.84216 0.29044,8.22086 0.29044,8.22086 h -5.92172 -5.92173 l -1.12783,-4.47904 c -1.39541,-5.54166 -5.31569,-8.02491 -11.38393,-7.21099 -8.46061,1.13481 -12.29905,8.76874 -11.52765,22.92632 0.51479,9.44779 2.40791,13.99145 6.76925,16.24678 6.0204,3.11328 11.79055,1.44492 15.5389,-4.49284 2.57833,-4.08434 2.58465,-4.08723 8.28706,-3.78884 4.99341,0.26128 5.74561,0.57141 6.01745,2.48093 0.35723,2.50928 -2.07172,7.74704 -5.17765,11.165 -5.91304,6.50708 -19.32158,8.92539 -29.45042,5.31156 z m 62.45994,0.81291 c -1.5716,-0.47096 -3.7712,-1.66978 -4.88802,-2.66404 C 893.62963,629.63548 893,626.04992 893,606.23212 c 0,-13.31387 -0.35163,-19.18375 -1.2,-20.03212 -0.66,-0.66 -2.685,-1.2 -4.5,-1.2 -3.29333,0 -3.3,-0.0101 -3.3,-5 0,-4.9899 0.007,-5 3.3,-5 4.70329,0 5.7,-1.52129 5.7,-8.7 V 560 h 7 7 v 6.3 c 0,3.56667 0.52063,6.82063 1.2,7.5 0.66,0.66 3.135,1.2 5.5,1.2 h 4.3 v 5 5 h -4.37756 c -2.61089,0 -4.86485,0.58716 -5.58501,1.4549 -0.87016,1.04847 -1.11387,6.24154 -0.87244,18.58993 0.32472,16.60858 0.40754,17.19372 2.69579,19.0451 1.29844,1.05054 3.83345,1.91007 5.63337,1.91007 3.47753,0 4.46327,1.56346 4.4922,7.125 0.0111,2.14432 -0.55858,2.73945 -3.11135,3.25 -4.17652,0.8353 -10.71798,0.64999 -14.23245,-0.40321 z M 90.403828,634.60998 c -0.304136,-0.79257 -0.406917,-2.70054 -0.228402,-4.23994 0.257442,-2.22 0.963126,-2.92838 3.411864,-3.4249 1.69801,-0.34429 3.61051,-0.94935 4.25,-1.34458 1.656392,-1.02371 1.656392,-61.17741 0,-62.20112 -0.63949,-0.39523 -2.55199,-1.00273 -4.25,-1.35001 C 90.763772,561.47196 90.5,561.07976 90.5,557.459 V 553.5 l 21.49232,-0.27059 c 24.33812,-0.30643 29.82995,0.45493 36.71097,5.08942 9.97925,6.72119 13.38128,21.09855 7.69333,32.51279 -4.95973,9.95288 -11.8353,13.24526 -29.39662,14.07662 l -12.5,0.59176 -0.28965,9.41035 c -0.1593,5.1757 0.1365,9.8365 0.65735,10.35735 0.52085,0.52085 2.45119,1.25464 4.28965,1.63065 3.1122,0.63651 3.34265,0.95658 3.34265,4.64265 v 3.959 l -15.7716,0.2755 c -12.991193,0.22694 -15.869082,0.0215 -16.324572,-1.16552 z M 136.59131,591.9558 c 5.55432,-2.6888 7.79772,-7.25112 7.18697,-14.6159 -0.82009,-9.88923 -7.00796,-13.71453 -21.27828,-13.15409 l -8,0.31419 -0.28041,13.44955 c -0.15423,7.39725 -0.0559,14.03475 0.21861,14.75 0.87067,2.26894 17.05194,1.72568 22.15311,-0.74375 z m 297.60119,39.86076 c 0.26974,-3.66977 0.66539,-4.27849 3.22227,-4.95758 1.60312,-0.42578 3.28373,-1.35573 3.73468,-2.06656 1.01845,-1.60535 1.09517,-36.85986 0.0837,-38.44945 -0.40494,-0.63637 -2.31055,-1.56257 -4.23469,-2.05823 -3.22786,-0.83149 -3.52235,-1.22798 -3.80757,-5.12627 l -0.30912,-4.22508 11.30912,0.28331 11.30913,0.2833 0.32212,2.80906 c 0.42156,3.67623 2.73014,4.4602 5.49241,1.86518 5.29165,-4.97125 14.50725,-6.52902 21.45394,-3.62651 9.2977,3.88483 11.22509,9.26309 11.24684,31.38377 0.008,8.56268 0.38428,16.15009 0.83524,16.86092 0.45095,0.71083 2.13156,1.64078 3.73468,2.06656 2.5609,0.68016 2.95226,1.28533 3.22359,4.98465 l 0.30882,4.21051 -14.80882,-0.27707 L 472.5,635.5 l -0.30812,-3.7123 c -0.28383,-3.41974 -0.0277,-3.82945 3.25,-5.19897 L 479,625.10205 v -16.10068 c 0,-17.95866 -0.74411,-20.82431 -5.96936,-22.98868 -3.75411,-1.555 -9.57727,-0.7412 -13.00719,1.81779 -2.50702,1.87043 -2.52524,1.99509 -2.79757,19.14457 C 456.94079,624.92746 457.34408,627 461.12244,627 462.68103,627 463,627.76449 463,631.5 V 636 H 448.4425 433.885 Z m 137.2275,2.83556 c -0.31303,-0.81575 -0.42309,-2.74268 -0.24457,-4.28208 0.25744,-2.22 0.96312,-2.92838 3.41186,-3.4249 1.69801,-0.34429 3.61051,-0.94935 4.25,-1.34458 1.65639,-1.02371 1.65639,-61.17741 0,-62.20112 -0.63949,-0.39523 -2.55199,-1.00273 -4.25,-1.35001 C 571.76377,561.47196 571.5,561.07976 571.5,557.459 V 553.5 h 23 c 22.79479,0 23.05046,0.0237 28.65538,2.65136 6.67663,3.13014 12.72015,9.03059 15.99097,15.61242 2.20895,4.44503 2.35365,5.84287 2.35365,22.73622 0,17.10616 -0.12205,18.24619 -2.45781,22.95781 -3.27919,6.61467 -9.01292,12.16803 -15.89423,15.39423 -5.51024,2.58339 -6.20283,2.65571 -28.40339,2.96561 -19.39126,0.27069 -22.83956,0.0984 -23.32457,-1.16553 z m 43.32552,-11.19026 c 5.14418,-2.14937 7.18084,-4.20157 9.88645,-9.96186 2.11473,-4.50231 2.34849,-6.39352 2.34849,-19 0,-12.62174 -0.23282,-14.5 -2.36494,-19.07886 C 620.53496,566.65785 614.58881,563.63636 602.5,564.1833 l -7,0.3167 -0.26573,28.98783 c -0.14615,15.9433 -0.0478,29.5558 0.21862,30.25 0.71169,1.85462 14.67131,1.65494 19.29263,-0.27597 z M 78.46293,482.75343 C 78.200618,482.06404 78.10165,417.825 78.243,340 L 78.5,198.5 H 221 363.5 V 341 483.5 l -142.28007,0.25343 c -113.29773,0.2018 -142.37722,-0.002 -142.757,-1 z M 279.68555,399.82569 282,397.65137 v -34.62568 c 0,-25.59776 -0.31288,-34.93857 -1.2,-35.82569 -0.89595,-0.89595 -12.04444,-1.2 -44,-1.2 -23.54,0 -42.8,-0.37877 -42.8,-0.84171 0,-0.46294 1.9125,-1.39654 4.25,-2.07467 2.3375,-0.67813 15.275,-4.60637 28.75,-8.72944 13.475,-4.12306 29.675,-9.06819 36,-10.98917 6.325,-1.92097 12.1396,-4.11963 12.92133,-4.88589 C 278.54861,295.90382 272.35645,280 268.72648,280 c -3.45669,0 -103.49007,31.42837 -105.14737,33.03508 -1.08409,1.051 -2.03682,3.51821 -2.18704,5.66358 -0.14638,2.09074 -0.5537,5.15134 -0.90516,6.80134 -0.48564,2.27999 -0.0207,3.91067 1.93704,6.79441 L 165,336.08882 v 30.95559 c 0,29.62226 0.0861,31.04173 2,32.95559 1.95079,1.95079 3.33333,2 56.18555,2 H 277.3711 Z M 172,371 v -24 h 51.5 51.5 v 24 24 H 223.5 172 Z m 6.5,-35 c 3.61273,-3.69977 6.5,-5.11949 6.5,-3.19617 0,1.58168 -6.63218,7.19617 -8.50056,7.19617 -1.54036,0 -1.15714,-0.76622 2.00056,-4 z m 14.17198,-0.14257 c 2.95579,-2.95579 4.64618,-3.94932 5.90045,-3.46801 1.53872,0.59046 1.33881,1.10694 -1.60344,4.14257 -2.09767,2.16425 -4.31588,3.46801 -5.90045,3.46801 -2.46079,0 -2.41133,-0.1278 1.60344,-4.14257 z M 204,339.10359 C 204,337.72634 210.88006,332 212.5348,332 c 2.26522,0 1.76155,1.32043 -1.83241,4.80383 C 207.5808,339.8294 204,341.05806 204,339.10359 Z M 221.5,336 c 3.61273,-3.69977 6.5,-5.11949 6.5,-3.19617 0,1.58168 -6.63218,7.19617 -8.50056,7.19617 -1.54036,0 -1.15714,-0.76622 2.00056,-4 z m 11.5,3.10359 C 233,338.05018 239.70135,332 240.86813,332 c 2.22521,0 1.84522,1.70054 -1.04671,4.68425 C 236.8202,339.78072 233,341.13562 233,339.10359 Z M 250.5,336 c 3.61273,-3.69977 6.5,-5.11949 6.5,-3.19617 0,1.58168 -6.63218,7.19617 -8.50056,7.19617 -1.54036,0 -1.15714,-0.76622 2.00056,-4 z m 14.17198,-0.14257 c 2.95579,-2.95579 4.64618,-3.94932 5.90045,-3.46801 1.53872,0.59046 1.33881,1.10694 -1.60344,4.14257 -2.09767,2.16425 -4.31588,3.46801 -5.90045,3.46801 -2.46079,0 -2.41133,-0.1278 1.60344,-4.14257 z m -97.26224,-7.23205 C 166.2113,325.5023 167.4239,323.5 170.5137,323.5 c 2.65144,0 2.9863,0.33639 2.9863,3 0,2.53088 -0.43092,3.04957 -2.75569,3.31697 -1.75858,0.20228 -2.96514,-0.22887 -3.33457,-1.19159 z M 176.5,318.469 c -2.41079,-1.9761 -2.6375,-2.46004 -1.15429,-2.46403 2.11895,-0.006 7.65429,3.03929 7.65429,4.21064 0,1.60081 -3.59462,0.6349 -6.5,-1.74661 z m 11.5866,-3.73933 c -3.18915,-1.96637 -3.28037,-2.16399 -1.38853,-3.00815 2.17996,-0.97272 10.30193,2.41642 10.30193,4.2988 0,1.68418 -5.34358,0.91044 -8.9134,-1.29065 z m 14.16184,-3.90548 C 199.03606,308.8383 198.72381,307 201.59886,307 c 2.15408,0 9.40114,3.87002 9.40114,5.02032 0,1.65393 -5.3168,0.92724 -8.75156,-1.19613 z M 216.75,306.93191 C 212.62919,304.75646 211.86522,303 215.03984,303 c 2.88064,0 10.15118,3.88191 9.43646,5.03834 -0.90544,1.46503 -3.58118,1.08186 -7.7263,-1.10643 z m 14,-4 C 226.44691,300.66023 225.89497,299 229.44284,299 c 3.50423,0 10.1043,4.03752 8.38349,5.1285 -1.88827,1.19714 -2.85016,1.03448 -7.07633,-1.19659 z m 13,-4.69014 C 240.30193,296.10396 240.24939,295 243.59571,295 c 2.70886,0 8.40429,2.85684 8.40429,4.21561 0,1.41174 -5.43756,0.76989 -8.25,-0.97384 z m 13.34974,-4.45196 c -3.17229,-2.03057 -3.26539,-2.23667 -1.38854,-3.07415 2.1673,-0.96707 10.2888,2.43083 10.2888,4.30466 0,1.75021 -5.4127,1.00187 -8.90026,-1.23051 z"
       id="path132"
       inkscape:connector-curvature="0" />
  </g>
  <path
     style="display:none;fill:#000000"
     d="m 100.02421,465.46403 c -2.48489,-0.43928 -2.55417,-0.63671 -1.80961,-5.15639 0.42581,-2.58478 0.80103,-5.26211 0.83382,-5.94961 0.0353,-0.74055 1.4311,-1.25 3.42475,-1.25 4.25307,0 7.76095,-2.73561 10.06783,-7.85135 l 1.80224,-3.99665 -9.86761,-25.78263 c -8.81547,-23.03356 -10.13416,-25.8449 -12.3676,-26.36664 -2.2182,-0.51818 -2.53407,-1.17122 -2.80226,-5.79337 l -0.30226,-5.20936 h 15.05226 15.05226 v 4.89301 c 0,5.05746 -0.87334,6.10699 -5.08179,6.10699 -1.05501,0 -1.91821,0.15319 -1.91821,0.34042 0,0.18723 1.9745,6.14973 4.38777,13.25 2.41327,7.10027 4.57216,13.80958 4.79752,14.90958 0.37379,1.82446 9.81471,-24.32499 9.81471,-27.18476 0,-0.65032 -1.2375,-1.32479 -2.75,-1.49882 -2.56493,-0.29513 -2.77034,-0.66973 -3.05226,-5.56642 l -0.30226,-5.25 h 15.05226 15.05226 v 5.025 c 0,4.74243 -0.16274,5.05755 -2.89401,5.6038 -2.78874,0.55775 -3.32522,1.72933 -14.75,32.21143 -12.18933,32.52202 -15.5187,39.22964 -21.06481,42.43896 -3.22744,1.86759 -11.57191,2.9259 -16.375,2.07681 z m 84.08782,-24.38947 c -6.28087,-1.32187 -11.54858,-3.55711 -16.64274,-7.06199 l -4.36126,-3.00062 v -9.45196 -9.45196 h 6.36045 6.36046 l 0.88954,6.25 c 0.8505,5.97563 1.06515,6.3378 4.88955,8.25 3.02804,1.51402 6,2 12.23077,2 7.82458,0 8.37602,-0.14805 11.17399,-3 2.87741,-2.93292 3.44405,-4.58299 3.21039,-9.34879 -0.18823,-3.83935 -5.47861,-7.77748 -14.39288,-10.71398 -23.36369,-7.69636 -30.72227,-14.14835 -30.72227,-26.93723 0,-12.15568 8.32976,-20.20478 23.51294,-22.72071 11.1798,-1.85256 24.84302,1.14899 34.23023,7.5197 3.24166,2.19999 3.24317,2.20506 3.25,10.95101 l 0.007,8.75 h -6.40616 -6.40616 l -0.69125,-5.02598 c -0.803,-5.83846 -2.16591,-7.51038 -7.28017,-8.93076 -9.5684,-2.65741 -19.97042,-0.35313 -22.76031,5.04193 -3.71177,7.17776 0.50317,11.87114 15.1336,16.85144 17.48698,5.95269 23.46005,9.82728 27.05687,17.55119 5.96295,12.80499 0.0442,26.31911 -13.59041,31.03078 -5.62421,1.94353 -19.01874,2.7177 -25.05201,1.44793 z m 69.7135,-0.0581 c -8.12793,-1.9139 -14.06371,-7.02188 -17.90551,-15.40842 -3.22471,-7.03943 -3.34227,-24.72562 -0.20939,-31.5 5.15482,-11.14651 13.21334,-16.25085 25.8974,-16.40363 10.214,-0.12304 14.03742,0.72441 19.82344,4.3938 l 4.67656,2.96578 v 8.56772 8.56771 l -6.6432,-0.29569 -6.64319,-0.29569 -1.32145,-4.48756 c -1.62453,-5.51684 -3.54545,-7.01245 -9.00656,-7.01245 -8.52839,0 -12.77292,6.69937 -12.67143,20 0.0988,12.94898 4.11201,19 12.60131,19 4.05018,0 8.20808,-2.96557 9.09119,-6.48418 0.6042,-2.40729 0.95415,-2.51582 8.11238,-2.51582 7.09786,0 7.47983,0.11522 7.45899,2.25 -0.0121,1.2375 -0.84144,4.05386 -1.84302,6.25858 -4.68967,10.32307 -17.97289,15.56568 -31.41752,12.39984 z m 62.08571,-0.24352 c -14.52558,-4.10922 -21.78756,-16.40056 -20.53313,-34.75357 1.28284,-18.76875 13.87987,-30.3303 31.08715,-28.53178 9.3549,0.97778 15.38828,4.8867 19.39277,12.56421 2.95749,5.67017 3.25,7.03316 3.25,15.14361 v 8.91263 h -18.5 c -10.175,0 -18.49749,0.3375 -18.49442,0.75 0.0227,3.05667 2.4815,8.34247 5.00544,10.76056 4.24641,4.06832 13.29992,4.70184 20.83981,1.45826 2.86552,-1.23271 5.36602,-2.06748 5.55668,-1.85506 0.19066,0.21243 1.3493,2.3736 2.57476,4.80259 l 2.22811,4.41636 -2.35519,1.80475 c -6.06805,4.64986 -21.43545,6.96501 -30.05198,4.52744 z m 16.89029,-41.91334 c -1.50447,-11.2167 -14.76641,-12.00131 -19.3037,-1.14206 -0.76439,1.82945 -1.3898,3.79072 -1.3898,4.35838 0,0.64477 3.98999,1.03212 10.63167,1.03212 h 10.63167 z m 120.10971,41.91334 c -14.52558,-4.10922 -21.78756,-16.40056 -20.53313,-34.75357 1.28284,-18.76875 13.87987,-30.3303 31.08715,-28.53178 9.3549,0.97778 15.38828,4.8867 19.39277,12.56421 2.95749,5.67017 3.25,7.03316 3.25,15.14361 v 8.91263 h -18.5 c -10.175,0 -18.49749,0.3375 -18.49442,0.75 0.0227,3.05667 2.4815,8.34247 5.00544,10.76056 4.24641,4.06832 13.29992,4.70184 20.83981,1.45826 2.86552,-1.23271 5.36602,-2.06748 5.55668,-1.85506 0.19066,0.21243 1.3493,2.3736 2.57476,4.80259 l 2.22811,4.41636 -2.35519,1.80475 c -6.06805,4.64986 -21.43545,6.96501 -30.05198,4.52744 z m 16.89029,-41.91334 c -1.50447,-11.2167 -14.76641,-12.00131 -19.3037,-1.14206 -0.76439,1.82945 -1.3898,3.79072 -1.3898,4.35838 0,0.64477 3.98999,1.03212 10.63167,1.03212 h 10.63167 z m 127.10971,41.91334 c -14.52558,-4.10922 -21.78756,-16.40056 -20.53313,-34.75357 1.28284,-18.76875 13.87987,-30.3303 31.08715,-28.53178 9.3549,0.97778 15.38828,4.8867 19.39277,12.56421 2.95749,5.67017 3.25,7.03316 3.25,15.14361 v 8.91263 h -18.5 c -10.175,0 -18.49749,0.3375 -18.49442,0.75 0.0227,3.05667 2.4815,8.34247 5.00544,10.76056 4.24641,4.06832 13.29992,4.70184 20.83981,1.45826 2.86552,-1.23271 5.36602,-2.06748 5.55668,-1.85506 0.19066,0.21243 1.3493,2.3736 2.57476,4.80259 l 2.22811,4.41636 -2.35519,1.80475 c -6.06805,4.64986 -21.43545,6.96501 -30.05198,4.52744 z m 16.89029,-41.91334 c -1.50447,-11.2167 -14.76641,-12.00131 -19.3037,-1.14206 -0.76439,1.82945 -1.3898,3.79072 -1.3898,4.35838 0,0.64477 3.98999,1.03212 10.63167,1.03212 h 10.63167 z m 43.96169,41.85334 c -9.40594,-3.50915 -10.65519,-7.25754 -10.65519,-31.97093 v -18.63398 h -4.5 -4.5 v -6 -6 h 4.5 4.5 v -7.5 -7.5 h 8 8 v 7.5 7.5 h 5.5 5.5 v 6 6 h -5.5 -5.5 l 0.0147,16.75 c 0.0178,20.22483 0.46793,21.61553 7.13688,22.0498 l 4.60393,0.2998 0.67606,5.09637 c 0.37183,2.803 0.28243,5.48999 -0.19868,5.9711 -1.65566,1.65566 -13.52125,1.95121 -17.57774,0.43783 z m 46.14802,0.06 c -14.52558,-4.10922 -21.78756,-16.40056 -20.53313,-34.75357 1.28284,-18.76875 13.87987,-30.3303 31.08715,-28.53178 9.3549,0.97778 15.38828,4.8867 19.39277,12.56421 2.95749,5.67017 3.25,7.03316 3.25,15.14361 v 8.91263 h -18.5 c -10.175,0 -18.49749,0.3375 -18.49442,0.75 0.0227,3.05667 2.4815,8.34247 5.00544,10.76056 4.24641,4.06832 13.29992,4.70184 20.83981,1.45826 2.86552,-1.23271 5.36602,-2.06748 5.55668,-1.85506 0.19066,0.21243 1.3493,2.3736 2.57476,4.80259 l 2.22811,4.41636 -2.35519,1.80475 c -6.06805,4.64986 -21.43545,6.96501 -30.05198,4.52744 z m 16.89029,-41.91334 c -1.50447,-11.2167 -14.76641,-12.00131 -19.3037,-1.14206 -0.76439,1.82945 -1.3898,3.79072 -1.3898,4.35838 0,0.64477 3.98999,1.03212 10.63167,1.03212 h 10.63167 z m 46.024,42.15686 c -8.12793,-1.9139 -14.06371,-7.02188 -17.90551,-15.40842 -3.22471,-7.03943 -3.34227,-24.72562 -0.20939,-31.5 5.15482,-11.14651 13.21334,-16.25085 25.8974,-16.40363 10.214,-0.12304 14.03742,0.72441 19.82344,4.3938 l 4.67656,2.96578 v 8.56772 8.56771 l -6.6432,-0.29569 -6.64319,-0.29569 -1.32145,-4.48756 c -1.62453,-5.51684 -3.54545,-7.01245 -9.00656,-7.01245 -8.52839,0 -12.77292,6.69937 -12.67143,20 0.0988,12.94898 4.11201,19 12.60131,19 4.05018,0 8.20808,-2.96557 9.09119,-6.48418 0.6042,-2.40729 0.95415,-2.51582 8.11238,-2.51582 7.09786,0 7.47983,0.11522 7.45899,2.25 -0.0121,1.2375 -0.84144,4.05386 -1.84302,6.25858 -4.68967,10.32307 -17.97289,15.56568 -31.41752,12.39984 z m 59.93769,-0.30352 c -9.40594,-3.50915 -10.65519,-7.25754 -10.65519,-31.97093 v -18.63398 h -4.5 -4.5 v -6 -6 h 4.5 4.5 v -7.5 -7.5 h 8 8 v 7.5 7.5 h 5.5 5.5 v 6 6 h -5.5 -5.5 l 0.0147,16.75 c 0.0178,20.22483 0.46793,21.61553 7.13688,22.0498 l 4.60393,0.2998 0.67606,5.09637 c 0.37183,2.803 0.28243,5.48999 -0.19868,5.9711 -1.65566,1.65566 -13.52125,1.95121 -17.57774,0.43783 z M 13.10803,436.16688 v -4.94115 l 4.25,-0.84048 4.25,-0.84047 v -30.93675 -30.93675 l -4.25,-0.84047 -4.25,-0.84048 v -4.94115 -4.94115 h 21.83322 c 12.63024,0 24.2783,0.49104 27.63395,1.16495 7.49871,1.50596 14.19098,6.06195 18.00369,12.25663 2.7543,4.47504 3.02914,5.69991 3.02914,13.5 0,7.2961 -0.37371,9.24411 -2.5,13.03172 -2.87864,5.12779 -9.38036,10.45534 -14.77526,12.10694 -2.04861,0.62716 -9.02786,1.3762 -15.50945,1.66452 l -11.78471,0.52422 0.28471,9.596 0.28471,9.596 4.25,0.83836 4.25,0.83836 v 4.94115 4.94115 h -17.5 -17.5 z m 49.95275,-42.51122 c 6.08991,-5.83917 6.08991,-15.25609 0,-21.09526 -2.9462,-2.82489 -3.52981,-2.9671 -13.51595,-3.29339 l -10.4368,-0.34103 v 14.18205 14.18205 l 10.4368,-0.34103 c 9.98614,-0.32629 10.56975,-0.4685 13.51595,-3.29339 z m 294.04725,42.47142 c 0,-4.62101 0.19872,-5.02449 2.75,-5.58352 1.5125,-0.33142 3.3125,-0.77587 4,-0.98767 0.944,-0.29082 1.25,-5.14994 1.25,-19.84909 0,-21.36978 0.55255,-19.51101 -6.25,-21.02488 -2.55002,-0.56749 -2.75,-0.97421 -2.75,-5.59294 v -4.98095 h 11.98818 11.98818 l 0.63299,3.95847 0.63299,3.95847 3.3768,-2.57561 c 9.33968,-7.12372 21.04981,-6.91049 28.47325,0.51848 4.83526,4.83886 5.90761,10.23378 5.90761,29.7208 0,11.51368 0.32041,15.58087 1.25,15.86725 0.6875,0.2118 2.4875,0.65625 4,0.98767 2.55128,0.55903 2.75,0.96251 2.75,5.58352 v 4.98095 h -16 -16 v -4.97141 c 0,-4.76957 0.13195,-5.00555 3.25,-5.81251 l 3.25,-0.84109 0.27655,-15.91628 c 0.29928,-17.22367 -0.3419,-20.48401 -4.39119,-22.32899 -5.21967,-2.37824 -13.08732,-0.42364 -15.35572,3.81489 -0.58341,1.09012 -1.02964,8.87415 -1.02964,17.96106 v 16.03715 l 3.25,0.83764 c 3.08413,0.79489 3.26543,1.10257 3.55226,6.02859 l 0.30226,5.19095 h -15.55226 -15.55226 z m 137,0.13199 v -5.03334 l 4.25,-0.84048 4.25,-0.84047 v -30.93675 -30.93675 l -4.25,-0.84047 -4.25,-0.84048 v -5.03334 -5.03334 l 23.75,0.34536 c 23.12872,0.33632 23.89507,0.41331 29.29563,2.9433 7.91234,3.70667 12.43659,8.09853 16.18383,15.71025 l 3.27054,6.64342 V 398.587 c 0,16.24419 -0.11871,17.27413 -2.60111,22.56666 -3.71174,7.9135 -8.10293,12.43699 -15.71051,16.18383 l -6.64052,3.27054 -23.77393,0.34219 -23.77393,0.34219 z m 45.68386,-10.0945 c 7.90183,-3.58754 11.34049,-12.2493 11.29169,-28.44303 -0.0627,-20.80885 -6.34589,-28.54371 -23.22555,-28.59155 l -7.75,-0.022 v 29.5 29.5 l 7.75,-0.022 c 5.44007,-0.0154 8.99702,-0.58813 11.93386,-1.9215 z M 1.10803,145.10803 v -144 h 144 144 v 144 144 h -144 -144 z m 202.89033,58.63214 c 0.81153,-0.97783 1.06029,-11.59903 0.87244,-37.25 l -0.26277,-35.88214 -46,-0.5 -46,-0.5 11,-3.32372 c 6.05,-1.82804 25.7375,-7.86769 43.75,-13.42143 37.35911,-11.51883 34.67846,-9.64709 30.44056,-21.25485 -1.80426,-4.94192 -2.63143,-6.05125 -4.69056,-6.29059 -2.67037,-0.3104 -103.62452,30.26268 -105.78173,32.03507 -0.70495,0.57919 -1.265,2.67363 -1.24454,4.6543 0.0205,1.98067 -0.24433,5.33006 -0.5884,7.4431 -0.50254,3.08618 -0.16569,4.46307 1.71255,7 2.32993,3.14703 2.33834,3.26747 2.39593,34.28552 0.0456,24.55683 0.34205,31.4699 1.40444,32.75 1.2125,1.46098 6.85045,1.6226 56.60175,1.6226 45.52324,0 55.45505,-0.24092 56.39033,-1.36786 z M 95.10803,175.10803 v -25 h 52.5 52.5 v 25 25 h -52.5 -52.5 z m 6,-34.5 c 3.28965,-3.35191 5.18181,-4.5 7.41642,-4.5 h 3 l -4.41642,4.5 c -3.28965,3.35191 -5.18181,4.5 -7.41642,4.5 h -3 z m 14,0 c 3.56745,-3.63497 5.08922,-4.5 7.91642,-4.5 h 3.5 l -4.41642,4.5 c -3.56745,3.63497 -5.08922,4.5 -7.91642,4.5 h -3.5 z m 14,0 c 3.56745,-3.63497 5.08922,-4.5 7.91642,-4.5 h 3.5 l -4.41642,4.5 c -3.56745,3.63497 -5.08922,4.5 -7.91642,4.5 h -3.5 z m 15,0 c 3.28965,-3.35191 5.18181,-4.5 7.41642,-4.5 h 3 l -4.41642,4.5 c -3.28965,3.35191 -5.18181,4.5 -7.41642,4.5 h -3 z m 14,0 c 3.56745,-3.63497 5.08922,-4.5 7.91642,-4.5 h 3.5 l -4.41642,4.5 c -3.56745,3.63497 -5.08922,4.5 -7.91642,4.5 h -3.5 z m 15,0 c 3.28965,-3.35191 5.18181,-4.5 7.41642,-4.5 h 3 l -4.41642,4.5 c -3.28965,3.35191 -5.18181,4.5 -7.41642,4.5 h -3 z m 14,0 c 3.56745,-3.63497 5.08922,-4.5 7.91642,-4.5 h 3.5 l -4.41642,4.5 c -3.56745,3.63497 -5.08922,4.5 -7.91642,4.5 h -3.5 z m 10,4.12244 c 0,-0.20765 0.675,-0.93775 1.5,-1.62244 1.22851,-1.01957 1.5,-0.95124 1.5,0.37756 0,0.89234 -0.675,1.62244 -1.5,1.62244 -0.825,0 -1.5,-0.1699 -1.5,-0.37756 z M 91.08781,133.07026 c -2.29531,-4.28883 1.69362,-8.27776 5.98245,-5.98245 2.25244,1.20547 2.71192,4.94607 0.83777,6.82022 -1.87415,1.87415 -5.61475,1.41467 -6.82022,-0.83777 z m 9.71446,-9.49383 c -1.54317,-1.35762 -4.01817,-2.51434 -5.5,-2.57049 -2.55777,-0.0969 -2.5226,-0.15691 0.69442,-1.18443 2.98118,-0.95219 4.04907,-0.73657 8.88075,1.79314 4.52768,2.37055 5.16183,3.00519 3.61134,3.61414 -3.187,1.2517 -4.77311,0.91074 -7.68651,-1.65236 z m 10.97419,-4.34716 c -3.70096,-2.17899 -4.44233,-2.99402 -3.16821,-3.48295 2.99548,-1.14947 5.48863,-0.67813 10.78302,2.0386 4.92302,2.52616 5.07599,2.71763 2.71676,3.40032 -4.18514,1.21106 -5.31613,0.99694 -10.33157,-1.95597 z m 13.85702,-4.08351 c -4.81791,-2.83596 -4.87872,-3.40201 -0.4555,-4.24022 1.76011,-0.33354 11.93005,4.14769 11.93005,5.2568 0,0.69708 -3.51727,1.92172 -5.5,1.91498 -0.55,-0.002 -3.23855,-1.32107 -5.97455,-2.93156 z m 14.72455,-3.87618 c -2.8875,-1.41636 -5.25,-2.87967 -5.25,-3.2518 0,-0.37213 1.22491,-0.91075 2.72201,-1.19694 1.81465,-0.34689 4.56473,0.41909 8.25,2.29789 5.49307,2.80043 5.52151,2.95976 0.77799,4.35767 -0.6875,0.20261 -3.6125,-0.79046 -6.5,-2.20682 z m 13.21409,-4.44986 -5.96409,-3.03501 3,-0.85149 c 3.69426,-1.04854 5.89184,-0.54145 10.88322,2.51129 l 3.88322,2.37499 -2.91913,1.01761 c -2.47118,0.86146 -3.83432,0.55189 -8.88322,-2.01739 z m 13.03591,-4.44014 -5,-2.63533 3.38866,-1.00254 c 2.92519,-0.86542 4.13983,-0.60925 8.88075,1.87294 4.52768,2.37055 5.16183,3.00519 3.61134,3.61414 -3.2654,1.28249 -5.73546,0.86269 -10.88075,-1.84921 z m 14.13522,-4.02716 -4.86478,-2.70695 2.82504,-1.15473 c 2.42759,-0.99228 3.56925,-0.78974 8.11478,1.43959 5.84785,2.86806 6.37326,3.65406 3.03974,4.54741 -3.38939,0.90832 -3.86018,0.79855 -9.11478,-2.12532 z m 9.86478,-7.24439 c 0.33992,-0.55 0.81648,-1 1.05902,-1 0.24254,0 0.44098,0.45 0.44098,1 0,0.55 -0.47656,1 -1.05902,1 -0.58246,0 -0.7809,-0.45 -0.44098,-1 z"
     id="path128"
     inkscape:connector-curvature="0" />
</svg>
