<svg id="Layer_1" data-name="Layer 1" xmlns="http://www.w3.org/2000/svg" viewBox="0 0 512 587"><title>pystringSrc</title><path d="M93.83912,388.65193a54.798,54.798,0,0,1-14.22781-37.00727h0c.003-10.93944.3385-32.17582.54021-56.90165h0a94.12963,94.12963,0,0,1-7.17377,11.40211h0c-12.52812,16.902-28.10854,25.37579-42.17417,25.47822h0A26.8963,26.8963,0,0,1,16.02,327.50844h0c-7.99463-5.48267-11.21151-14.98514-11.31268-25.456h0c.00442-11.68932,4.4596-25.2832,14.98464-37.64245h0c7.99034-9.336,18.75523-17.40275,28.81218-24.854h0c10.02929-7.35515,19.43551-14.24272,23.868-19.33561h0c.80671-.91154,1.70778-1.95748,2.69018-3.12682h0c-.9824-1.16567-1.88347-2.21337-2.69018-3.12315h0c-4.43244-5.09592-13.83866-11.98412-23.868-19.33864h0C38.45277,187.18351,27.68232,179.1112,19.692,169.77584h0C9.16264,157.41228,4.71176,143.81412,4.70734,132.12909h0c.10117-10.47578,3.318-19.9746,11.30839-25.44551h0a26.80728,26.80728,0,0,1,14.78785-4.1235h0c14.06563.10054,29.64605,8.57312,42.17417,25.47507h0a94.34533,94.34533,0,0,1,7.17377,11.40336h0c-.20045-24.72582-.53591-45.95474-.53591-56.89242h0A54.74808,54.74808,0,0,1,93.83912,45.54072h0c9.24848-10.12111,23.06743-16.783,39.54083-16.73434h0l230.074.6655a54.78849,54.78849,0,0,1,37.00487,14.22781h0c10.12047,9.24909,16.77981,23.06743,16.73422,39.5162h0V351.641c.04559,16.44435-6.61375,30.26154-16.73422,39.51367h0A54.79089,54.79089,0,0,1,363.45391,405.385H133.19617c-16.37715,0-30.13889-6.65327-39.357-16.73308Zm2.69814-127.16642c0,37.99157-.68457,74.86065-.68457,90.15915h0a38.5777,38.5777,0,0,0,9.9367,26.00858h0c6.41152,6.89376,15.40523,11.44518,27.56707,11.48837h0l230.09745.00619a38.58757,38.58757,0,0,0,26.0111-9.94289h0c6.8925-6.41026,11.44392-15.40081,11.48837-27.56391h0V83.21589c-.04445-12.16248-4.59587-21.15555-11.48837-27.5658h0a38.57419,38.57419,0,0,0-26.03573-9.93671h0l-230.07282-.66917c-12.16184.04383-21.15555,4.59462-27.56707,11.49267h0a38.57153,38.57153,0,0,0-9.9367,26.00921h0c0,15.29358.68457,52.16025.68457,90.15421h0c0,5.74982-.016,11.52791-.05242,17.26408h0c6.28876-8.21668,12.95125-17.0525,19.25238-25.48188h0c16.3044-21.805,30.36271-41.06167,30.39226-41.10045h0l13.11594,9.57522c-.00922.01478-14.13724,19.364-30.50391,41.25164h0c-11.08559,14.815-23.09573,30.68453-32.60691,42.68482h0c-.00126.0826-.00316.16281-.00429.243h0c.00113.053.00176.10231.00176.15409h0c9.51182,12.00522,21.52385,27.87361,32.60944,42.68735h0c16.36667,21.8914,30.49469,41.23925,30.50391,41.2553h0l-13.11594,9.57535c-.02955-.04446-14.08786-19.30113-30.39226-41.10613h0c-6.30113-8.42939-12.96362-17.26584-19.25238-25.483h0c.03638,5.7368.05242,11.51541.05242,17.26584Zm-38.38993-8.86728c-9.91258,7.29213-19.89248,14.995-26.0961,22.32173h0c-8.15871,9.57534-11.11287,19.54034-11.10794,27.11248h0c-.10042,6.9247,2.71733,11.3195,3.94591,11.85479h0a10.75113,10.75113,0,0,0,5.91438,1.47525h0c7.13424.10357,18.98283-5.05842,29.10269-18.87434h0c9.22926-12.50715,17.15241-32.0254,19.25906-60.1962h0c-6.055,5.45311-13.49145,10.715-21.018,16.30629ZM30.80358,118.79729a10.74711,10.74711,0,0,0-5.91009,1.47891h0c-1.22857.53894-4.05062,4.93134-3.9502,11.85289h0c-.00493,7.57214,2.94367,17.5384,11.10794,27.11868h0c6.20362,7.3266,16.18352,15.02833,26.0961,22.31982h0c7.52655,5.58763,14.963,10.85381,21.018,16.30693h0c-2.10665-28.17573-10.0298-47.694-19.25906-60.20176h0c-10.02424-13.682-21.74211-18.878-28.89669-18.878h0c-.06845,0-.13754.00126-.206.00253Z"/><path d="M180.66558,167.74c0-21.1803-.8585-33.487-1.14282-43.219h19.74812l1.14534,17.74632h.57229c7.44079-14.88346,18.3186-20.03624,29.19464-20.03624,24.04175,0,40.07106,25.76066,40.07106,71.26954,0,51.23457-21.18081,71.84182-42.9339,71.84182-12.87912,0-20.32054-8.29991-24.04251-16.02753h-.57292v68.69352h-22.0393Zm22.0393,44.36608c0,4.29237,0,8.30042.8585,11.44707,4.29552,19.74875,14.31231,23.47135,20.32293,23.47135,18.3186,0,24.04314-25.18961,24.04314-53.237,0-28.62234-6.86912-52.666-24.32871-52.666-10.01742,0-18.89151,12.59418-20.32294,25.189a63.88994,63.88994,0,0,0-.57292,10.58908Z"/><path d="M295.08372,124.52106l18.3167,79.56946c2.5779,10.87591,4.0087,20.03622,5.72442,28.62348h.57355c1.43079-7.73,3.72008-18.31923,6.00937-28.33677l16.31488-79.85617h21.7545l-22.61173,89.01458c-8.586,34.91843-18.033,68.40543-34.34791,89.30129-9.73322,12.30746-20.03495,18.89038-24.90214,21.18206l-8.01257-18.89391c6.29557-3.434,13.1647-9.44336,19.46267-17.4558a84.87556,84.87556,0,0,0,12.59607-23.184c1.14332-3.43512,1.42827-4.86717,1.42827-6.86912a15.84968,15.84968,0,0,0-.5723-5.15213l-34.919-127.94295Z"/><path d="M446.67737,195.09427c-8.01611,0-14.02926-6.58354-14.02926-16.0274,0-9.44525,6.29924-16.31425,14.31294-16.31425,8.87347,0,14.31307,6.58228,14.31307,16.31425,0,9.44386-5.15339,16.0274-14.31307,16.0274Z"/><path d="M446.67737,276.94063c-8.01611,0-14.02926-6.58418-14.02926-16.02741,0-9.44588,6.29924-16.60235,14.31294-16.60235,8.87347,0,14.31307,6.87039,14.31307,16.60235,0,9.44323-5.15339,16.02741-14.31307,16.02741Z"/><path d="M489.51275,195.09427c-8.01129,0-14.02433-6.58354-14.02433-16.0274,0-9.44525,6.298-16.31425,14.3142-16.31425,8.86981,0,14.30675,6.58228,14.30675,16.31425,0,9.44386-5.15086,16.0274-14.30675,16.0274Z"/><path d="M489.51275,276.94063c-8.01129,0-14.02433-6.58418-14.02433-16.02741,0-9.44588,6.298-16.60235,14.3142-16.60235,8.86981,0,14.30675,6.87039,14.30675,16.60235,0,9.44323-5.15086,16.02741-14.30675,16.02741Z"/><path d="M124.85412,513.00905q5.53982,5.85582,5.54032,17.197,0,11.96326-5.41452,18.23543a17.57483,17.57483,0,0,1-13.94315,6.27217,14.62425,14.62425,0,0,1-9.03085-2.69977,17.49582,17.49582,0,0,1-3.846-4.36116v23.593H86.4463V508.14866H97.78553v6.68753a19.03924,19.03924,0,0,1,4.09758-4.65271,15.11714,15.11714,0,0,1,9.4482-3.03125A17.8996,17.8996,0,0,1,124.85412,513.00905Zm-9.08576,8.51466q-2.41272-4.02868-7.82574-4.02969a8.903,8.903,0,0,0-8.939,6.10643,22.94176,22.94176,0,0,0-1.259,8.22512q0,7.89262,4.23436,11.09062a9.72342,9.72342,0,0,0,5.96066,1.86907,8.66345,8.66345,0,0,0,7.61807-3.822q2.62389-3.819,2.62389-10.17606A17.68177,17.68177,0,0,0,115.76836,521.52371Z"/><path d="M140.52956,562.10812l1.49566.08187a18.66917,18.66917,0,0,0,3.32279-.12381,5.97847,5.97847,0,0,0,2.65883-.9565,6.3978,6.3978,0,0,0,1.932-2.94938,7.10727,7.10727,0,0,0,.76879-2.7417l-16.63693-47.26994H147.238l9.88651,33.39768,9.34635-33.39768h12.58628l-15.52268,44.53023q-4.499,12.87383-7.11884,15.971-2.62089,3.09416-10.47958,3.09515-1.58,0-2.537-.022-.957-.021-2.8695-.14577Z"/><path d="M196.23328,534.52534a12.41779,12.41779,0,0,0,2.33334,6.27217q3.17952,3.78008,10.89993,3.78008a23.44048,23.44048,0,0,0,7.50623-.99644q5.47244-1.911,5.47243-7.10287a5.2372,5.2372,0,0,0-2.6808-4.69465,29.0675,29.0675,0,0,0-8.50068-2.86551l-6.62861-1.45372q-9.77369-2.15961-13.428-4.69464-6.18981-4.23537-6.18931-13.25124a17.59662,17.59662,0,0,1,6.05552-13.66659q6.055-5.43948,17.78713-5.44147a27.28166,27.28166,0,0,1,16.71481,5.13q6.91766,5.131,7.25463,14.89267H220.5342a8.76887,8.76887,0,0,0-4.94025-7.8517,16.92429,16.92429,0,0,0-7.62206-1.5356,14.50938,14.50938,0,0,0-8.09232,1.99288,6.31016,6.31016,0,0,0-3.02327,5.56728,5.25178,5.25178,0,0,0,2.98133,4.90032q1.9155,1.08131,8.13426,2.534l10.74516,2.534q7.06443,1.66239,10.59041,4.445,5.47392,4.31924,5.47442,12.50241a17.56643,17.56643,0,0,1-6.48684,13.93617q-6.48783,5.5473-18.32728,5.54531-12.09055,0-19.0192-5.46144-6.92814-5.46045-6.92715-15.01647Z"/><path d="M238.14661,516.9968V508.564h6.31411V495.9358h11.71364V508.564h7.35248v8.43279h-7.35248v23.92651q0,2.78264.7059,3.46857.70539.68292,4.32023.68492c.35943,0,.74084-.006,1.14221-.022.40137-.012.79575-.034,1.18414-.06191v8.84814l-5.60821.20768q-8.39136.29053-11.464-2.90745-1.99488-2.03381-1.99387-6.27217V516.9968Z"/><path d="M296.28052,507.08833c.15176.014.49123.03594,1.01741.0639v12.129q-1.12175-.1258-1.99388-.16574-.87313-.04193-1.41279-.04193-7.14379,0-9.595,4.65271-1.37036,2.6149-1.37085,8.05737v21.64209H271.00413V508.14866h11.29829v7.89164a25.00428,25.00428,0,0,1,4.77652-6.1883,13.00606,13.00606,0,0,1,8.64046-2.78364C295.94105,507.06836,296.12776,507.07435,296.28052,507.08833Z"/><path d="M316.405,502.74912H304.4008V491.82424H316.405Zm-12.00419,5.39954H316.405v45.27706H304.4008Z"/><path d="M364.38082,510.7446q4.44652,3.67524,4.447,12.1909v30.49022h-12.129V525.88487a12.65746,12.65746,0,0,0-.94851-5.4834q-1.73278-3.48954-6.59766-3.48854-5.98014,0-8.20614,5.11a17.65754,17.65754,0,0,0-1.1542,6.89519v24.5076H327.95389V508.23054h11.464v6.60565a20.04994,20.04994,0,0,1,4.30226-5.02613,14.90882,14.90882,0,0,1,9.22455-2.7417Q359.93429,507.06836,364.38082,510.7446Z"/><path d="M402.23451,508.10673a14.2128,14.2128,0,0,1,6.96908,6.56372v-6.52179h11.5479v42.95071q0,8.76426-2.94938,13.2093-5.06805,7.644-19.43954,7.644-8.6834,0-14.1648-3.40666a12.56613,12.56613,0,0,1-6.0645-10.178h12.87682a5.33364,5.33364,0,0,0,1.61947,2.99131q1.911,1.62047,6.43891,1.61946,6.39648,0,8.55659-4.27729,1.41228-2.74071,1.41279-9.22156v-2.90744a14.43891,14.43891,0,0,1-3.65528,4.36117,14.69443,14.69443,0,0,1-9.18061,2.69977q-8.72233,0-13.93617-6.1264-5.21332-6.1284-5.21283-16.596,0-10.09419,5.01914-16.96742,5.02013-6.87421,14.2297-6.87522A15.547,15.547,0,0,1,402.23451,508.10673Zm4.03168,32.46314q2.85453-3.1361,2.85453-9.99035,0-6.4399-2.70976-9.80264a8.836,8.836,0,0,0-7.25862-3.36473,8.55337,8.55337,0,0,0-8.56259,5.85682,20.83966,20.83966,0,0,0-1.241,7.684,17.59678,17.59678,0,0,0,1.32292,7.021,8.629,8.629,0,0,0,8.60452,5.731A9.08911,9.08911,0,0,0,406.26619,540.56987Z"/></svg>