<?xml version="1.0" encoding="UTF-8" standalone="no"?>
<!-- Created with Inkscape (http://www.inkscape.org/) -->

<svg
   xmlns:dc="http://purl.org/dc/elements/1.1/"
   xmlns:cc="http://creativecommons.org/ns#"
   xmlns:rdf="http://www.w3.org/1999/02/22-rdf-syntax-ns#"
   xmlns:svg="http://www.w3.org/2000/svg"
   xmlns="http://www.w3.org/2000/svg"
   xmlns:sodipodi="http://sodipodi.sourceforge.net/DTD/sodipodi-0.dtd"
   xmlns:inkscape="http://www.inkscape.org/namespaces/inkscape"
   width="141.64027mm"
   height="42.509979mm"
   viewBox="0 0 141.64027 42.509979"
   version="1.1"
   id="svg4204"
   inkscape:version="0.92.2 (5c3e80d, 2017-08-06)"
   sodipodi:docname="logo-black-full-square_en.svg">
  <defs
     id="defs4198" />
  <sodipodi:namedview
     id="base"
     pagecolor="#ffffff"
     bordercolor="#666666"
     borderopacity="1.0"
     inkscape:pageopacity="0.0"
     inkscape:pageshadow="2"
     inkscape:zoom="0.35"
     inkscape:cx="773.38094"
     inkscape:cy="354.61949"
     inkscape:document-units="mm"
     inkscape:current-layer="layer1"
     showgrid="false"
     inkscape:window-width="2560"
     inkscape:window-height="1412"
     inkscape:window-x="2560"
     inkscape:window-y="28"
     inkscape:window-maximized="1" />
  <metadata
     id="metadata4201">
    <rdf:RDF>
      <cc:Work
         rdf:about="">
        <dc:format>image/svg+xml</dc:format>
        <dc:type
           rdf:resource="http://purl.org/dc/dcmitype/StillImage" />
        <dc:title></dc:title>
      </cc:Work>
    </rdf:RDF>
  </metadata>
  <g
     inkscape:label="Layer 1"
     inkscape:groupmode="layer"
     id="layer1"
     transform="translate(98.790373,-200.14976)">
    <path
       d="m 42.849897,241.4999 h -8.11389 v -1.05833 h 7.05556 V 201.20809 H -97.73204 v 39.23348 h 7.055556 v 1.05833 h -8.113889 v -41.35014 h 141.64027 z"
       style="fill:#181818;fill-opacity:1;fill-rule:nonzero;stroke:none;stroke-width:0.35277775"
       id="path245"
       inkscape:connector-curvature="0" />
    <path
       d="m -85.240452,237.82089 h 0.694267 l -1.518709,3.67912 h -0.564091 l -1.518356,-3.67912 h 0.709436 l 1.101725,2.80776 z"
       style="fill:#181818;fill-opacity:1;fill-rule:nonzero;stroke:none;stroke-width:0.35277775"
       id="path249"
       inkscape:connector-curvature="0" />
    <path
       d="m -79.062325,241.50007 h -0.642055 v -3.65266 h 0.642055 z"
       style="fill:#181818;fill-opacity:1;fill-rule:nonzero;stroke:none;stroke-width:0.35277775"
       id="path251"
       inkscape:connector-curvature="0" />
    <path
       d="m -72.49946,239.32898 c 0.772231,0.18802 1.174043,0.4646 1.174043,1.07456 0,0.68897 -0.537278,1.09643 -1.304218,1.09643 -0.558447,0 -1.085497,-0.19332 -1.524,-0.58455 l 0.385939,-0.45967 c 0.349603,0.30303 0.699558,0.47519 1.153583,0.47519 0.396521,0 0.646995,-0.18274 0.646995,-0.46426 0,-0.26634 -0.14605,-0.40745 -0.824442,-0.56409 -0.777522,-0.18732 -1.215672,-0.41698 -1.215672,-1.09573 0,-0.63676 0.521405,-1.06433 1.247069,-1.06433 0.531988,0 0.95497,0.16122 1.325738,0.45897 l -0.344662,0.48577 c -0.329142,-0.24553 -0.657579,-0.37641 -0.991659,-0.37641 -0.376061,0 -0.594783,0.19332 -0.594783,0.4385 0,0.28681 0.167216,0.4124 0.866069,0.57962"
       style="fill:#181818;fill-opacity:1;fill-rule:nonzero;stroke:none;stroke-width:0.35277775"
       id="path263"
       inkscape:connector-curvature="0" />
    <path
       d="m -63.32071,239.86125 c 0,1.09043 -0.615598,1.63865 -1.570918,1.63865 -0.94968,0 -1.554692,-0.54822 -1.554692,-1.60761 v -2.10255 h 0.641702 v 2.07645 c 0,0.67874 0.349602,1.04422 0.923573,1.04422 0.568677,0 0.918633,-0.34502 0.918633,-1.01812 v -2.10255 h 0.641702 z"
       style="fill:#181818;fill-opacity:1;fill-rule:nonzero;stroke:none;stroke-width:0.35277775"
       id="path267"
       inkscape:connector-curvature="0" />
    <path
       d="m -56.808433,238.58758 -0.626181,1.46156 h 1.257654 z m 1.915584,2.91218 h -0.678744 l -0.370417,-0.88195 h -1.727554 l -0.375354,0.88195 h -0.657931 l 1.607608,-3.67877 h 0.594783 z"
       style="fill:#181818;fill-opacity:1;fill-rule:nonzero;stroke:none;stroke-width:0.35277775"
       id="path271"
       inkscape:connector-curvature="0" />
    <path
       d="m -50.087416,237.84706 h 0.641702 v 3.06846 h 1.920523 v 0.5842 h -2.562225 z"
       style="fill:#181818;fill-opacity:1;fill-rule:nonzero;stroke:none;stroke-width:0.35277775"
       id="path275"
       inkscape:connector-curvature="0" />
    <path
       d="m -28.222426,238.4138 h -2.066573 v 0.95038 h 1.831975 v 0.57362 h -1.831975 v 0.98108 h 2.092325 v 0.57432 h -2.734027 v -3.65302 h 2.708275 z"
       style="fill:#181818;fill-opacity:1;fill-rule:nonzero;stroke:none;stroke-width:0.35277775"
       id="path279"
       inkscape:connector-curvature="0" />
    <path
       d="m -18.419757,238.42463 h -2.07645 v 0.99695 h 1.841852 v 0.5842 h -1.841852 v 1.48731 h -0.642056 v -3.65301 h 2.718506 z"
       style="fill:#181818;fill-opacity:1;fill-rule:nonzero;stroke:none;stroke-width:0.35277775"
       id="path283"
       inkscape:connector-curvature="0" />
    <path
       d="m -8.7000871,238.42463 h -2.0775079 v 0.99695 h 1.8429099 v 0.5842 h -1.8429099 v 1.48731 h -0.641702 v -3.65301 h 2.7192099 z"
       style="fill:#181818;fill-opacity:1;fill-rule:nonzero;stroke:none;stroke-width:0.35277775"
       id="path287"
       inkscape:connector-curvature="0" />
    <path
       d="m 1.0085339,238.4138 h -2.066218 v 0.95038 h 1.83162 v 0.57362 h -1.83162 v 0.98108 h 2.092325 v 0.57432 h -2.734382 v -3.65302 h 2.708275 z"
       style="fill:#181818;fill-opacity:1;fill-rule:nonzero;stroke:none;stroke-width:0.35277775"
       id="path291"
       inkscape:connector-curvature="0" />
    <path
       d="m 9.7549469,241.49302 c -1.04528,0 -1.82457,-0.81492 -1.82457,-1.84961 0,-1.02518 0.76341,-1.86091 1.84997,-1.86091 0.6611001,0 1.0611501,0.23107 1.4044101,0.55916 l -0.40535,0.46637 c -0.28645,-0.2667 -0.59372,-0.44627 -1.0036501,-0.44627 -0.68756,0 -1.18463,0.56374 -1.18463,1.27106 0,0.70732 0.49707,1.28129 1.18463,1.28129 0.4406201,0 0.7221401,-0.17956 1.0297601,-0.46637 l 0.40464,0.40993 c -0.3743,0.38946 -0.78423,0.63535 -1.4552101,0.63535"
       style="fill:#181818;fill-opacity:1;fill-rule:nonzero;stroke:none;stroke-width:0.35277775"
       id="path295"
       inkscape:connector-curvature="0" />
    <path
       d="m 19.783947,241.49302 h -0.64699 v -3.05823 h -1.15888 v -0.59443 h 2.9644 v 0.59443 h -1.15853 z"
       style="fill:#181818;fill-opacity:1;fill-rule:nonzero;stroke:none;stroke-width:0.35277775"
       id="path299"
       inkscape:connector-curvature="0" />
    <path
       d="m 29.247647,239.37427 c 0.77258,0.18803 1.17475,0.46461 1.17475,1.07456 0,0.68933 -0.53799,1.09644 -1.30457,1.09644 -0.55845,0 -1.0855,-0.19333 -1.524,-0.58456 l 0.38594,-0.45967 c 0.34995,0.30304 0.69955,0.47519 1.15323,0.47519 0.39722,0 0.6477,-0.18238 0.6477,-0.46425 0,-0.26635 -0.14676,-0.40711 -0.8248,-0.56409 -0.77752,-0.18733 -1.21602,-0.41663 -1.21602,-1.09538 0,-0.63711 0.52175,-1.06468 1.24707,-1.06468 0.53234,0 0.95497,0.16122 1.32609,0.45896 l -0.34502,0.48578 c -0.32844,-0.24554 -0.65722,-0.37606 -0.9913,-0.37606 -0.37606,0 -0.59514,0.19297 -0.59514,0.4385 0,0.28681 0.16722,0.4124 0.86607,0.57926"
       style="fill:#181818;fill-opacity:1;fill-rule:nonzero;stroke:none;stroke-width:0.35277775"
       id="path303"
       inkscape:connector-curvature="0" />
    <path
       d="m -77.865562,207.8775 c -0.953911,-0.13618 -2.009069,-0.20426 -3.268486,-0.20426 -1.089378,0 -1.634772,0.47695 -1.634772,0.95356 v 7.4549 0.47801 5.71888 c 5.311422,-0.91899 10.04323,-3.40466 10.04323,-8.10295 0,-3.54013 -1.089378,-5.44689 -4.493683,-6.16127 z m -9.907411,14.84347 v -5.71923 -0.44203 -5.88998 c 0,-1.26012 -0.681214,-2.3495 -0.918986,-2.96227 0,0 0,-0.0681 0.03457,-0.0681 0,0 3.335867,-0.47625 7.148689,-0.47625 1.157817,0 2.281414,0.0339 3.337278,0.0681 l 0.645936,0.0339 c 6.093882,0.34043 10.009716,1.66829 10.009716,5.85506 0,2.31634 -2.588329,4.80095 -6.2992,6.57119 3.098096,5.3788 6.196189,10.24678 6.809316,11.50655 0,0 0.03387,0.0342 -0.03422,0.0342 h -4.595636 c -0.783873,0 -1.63442,-0.57821 -2.008364,-1.32645 -0.06809,-0.1718 -2.247195,-3.88232 -4.767439,-8.376 -1.360311,0.54504 -2.824692,0.95285 -4.357511,1.2252 v 5.44689 c 0,1.26012 0.681566,2.34914 0.919691,2.96227 0,0 0,0.0681 -0.03422,0.0681 h -4.697589 c -0.817739,0 -1.192036,-0.81703 -1.192036,-1.49825 v -6.57013"
       style="fill:#181818;fill-opacity:1;fill-rule:nonzero;stroke:none;stroke-width:0.35277775"
       id="path307"
       inkscape:connector-curvature="0" />
    <path
       d="m -62.578289,225.68311 c 0,1.90641 0.443794,3.57364 2.04329,3.57364 1.32715,0 2.553052,-2.0761 2.553052,-2.58657 v -5.54884 c 0,0 -0.03351,-0.23883 -1.192035,-0.23883 -2.382663,0 -3.404307,1.70215 -3.404307,4.8006 m -0.30621,5.95806 c -2.553055,0 -4.153607,-1.59984 -4.153607,-5.14103 0,-3.81353 2.587977,-6.0258 9.056159,-6.0258 v -3.71051 c 0,-1.09009 -0.646994,-1.63442 -1.940277,-1.63442 -1.429808,0 -2.008365,0.61313 -2.008365,1.49825 v 0.98707 c 0,1.63442 -1.192035,1.83832 -2.89419,1.83832 -0.783166,0 -1.361368,-0.0346 -1.361368,-0.0346 v -3.67594 c 0.748593,-0.51082 3.063523,-1.02129 5.991931,-1.02129 4.969934,0 6.331302,1.32715 6.331302,3.74473 v 9.46362 c 0,1.2259 0.238832,1.63407 0.95391,1.63407 1.191332,0 2.68958,-1.8034 3.710872,-3.19935 0,0 0.203903,0.067 0.203903,0.30586 0,0.3743 -3.98286,5.07189 -6.774037,5.07189 -0.851958,0 -2.213681,-0.1009 -2.213681,-2.51848 v -1.29399 c 0,-0.0681 0,-0.10125 -0.03351,-0.10125 -0.03422,0 -0.10301,0.10125 -0.10301,0.10125 -0.64629,0.95391 -3.029657,3.71157 -4.766027,3.71157"
       style="fill:#181818;fill-opacity:1;fill-rule:nonzero;stroke:none;stroke-width:0.35277775"
       id="path311"
       inkscape:connector-curvature="0" />
    <path
       d="m -28.983087,218.15903 c 0.03387,0 0.102658,-0.0681 0.102658,-0.0681 0.646994,-0.95321 3.47204,-3.43853 5.786967,-3.43853 0.851958,0 2.723443,0.10195 2.723443,2.51954 v 10.68952 c 0,1.22626 0.341138,1.6002 1.056217,1.6002 1.156406,0 2.689225,-1.90535 3.539421,-3.13161 0,0 0.239183,0.0681 0.239183,0.30621 0,0.3743 -3.948641,5.07189 -6.706306,5.07189 -0.851958,0 -2.247194,-0.10196 -2.247194,-2.51848 0,-0.23813 0.03422,-10.38366 0.03422,-10.65565 0,-1.09009 -0.511881,-1.83833 -1.532467,-1.83833 -1.395941,0 -3.031066,1.66758 -3.031066,3.0293 v 11.50727 h -4.117976 v -13.24328 c 0,-0.71508 -0.545042,-1.70251 -0.715082,-1.94028 0,0 0,-0.0342 0.03387,-0.0681 0.510117,-0.47625 3.166533,-1.56633 4.79919,-1.56633 v 3.67665 c 0,0.0339 0,0.0681 0.03493,0.0681"
       style="fill:#181818;fill-opacity:1;fill-rule:nonzero;stroke:none;stroke-width:0.35277775"
       id="path315"
       inkscape:connector-curvature="0" />
    <path
       d="m -12.270591,225.68311 c 0,1.90641 0.44309,3.57364 2.042231,3.57364 1.3289119,0 2.5541109,-2.0761 2.5541109,-2.58657 v -5.54884 c 0,0 -0.03387,-0.23883 -1.192036,-0.23883 -2.3826629,0 -3.4043059,1.70215 -3.4043059,4.8006 m -0.30621,5.95806 c -2.553407,0 -4.153959,-1.59984 -4.153959,-5.14103 0,-3.81353 2.588329,-6.0258 9.0565109,-6.0258 v -3.71051 c 0,-1.09009 -0.6477,-1.63442 -1.940277,-1.63442 -1.4298089,0 -2.0090719,0.61313 -2.0090719,1.49825 v 0.98707 c 0,1.63442 -1.191328,1.83832 -2.893483,1.83832 -0.783167,0 -1.362075,-0.0346 -1.362075,-0.0346 v -3.67594 c 0.748948,-0.51082 3.06423,-1.02129 5.9926379,-1.02129 4.969933,0 6.331302,1.32715 6.331302,3.74473 v 9.46362 c 0,1.2259 0.238831,1.63407 0.95391,1.63407 1.190273,0 2.688521,-1.8034 3.710517,-3.19935 0,0 0.204256,0.067 0.204256,0.30586 0,0.3743 -3.982858,5.07189 -6.77439,5.07189 -0.851603,0 -2.213326,-0.1009 -2.213326,-2.51848 v -1.29399 c 0,-0.0681 0,-0.10125 -0.03387,-0.10125 -0.03387,0 -0.102658,0.10125 -0.102658,0.10125 -0.64629,0.95391 -3.0296569,3.71157 -4.7660269,3.71157"
       style="fill:#181818;fill-opacity:1;fill-rule:nonzero;stroke:none;stroke-width:0.35277775"
       id="path319"
       inkscape:connector-curvature="0" />
    <path
       d="m 4.6127969,227.72555 c 0,1.25942 0.74895,1.83833 1.63406,1.83833 1.49755,0 2.89349,-2.07575 2.89349,-3.02966 V 215.0954 h 4.1197401 v 12.76632 c 0,1.22591 0.34113,1.59985 1.05516,1.59985 1.08831,0 2.79152,-1.94028 3.54047,-3.09739 0,0 0.23919,0.0339 0.23919,0.30621 0,0.37395 -3.91584,5.07189 -6.70737,5.07189 -0.85196,0 -2.2122701,-0.10125 -2.2122701,-2.51848 0,-0.0342 -0.0349,-0.375 -0.0349,-1.15817 0,-0.0332 -0.0332,-0.0681 -0.0332,-0.0681 -0.0356,0 -0.0695,0.0681 -0.0695,0.0681 -0.61207,0.88582 -2.79083,3.50732 -5.24263,3.50732 -1.3275,0 -3.302003,-0.51083 -3.302003,-2.96157 0,0 0.03493,-9.87355 0.03493,-10.58828 0,-0.71508 -0.5461,-1.7025 -0.715785,-1.94133 0,0 -0.03422,-0.0332 0,-0.067 0.545042,-0.47696 3.166188,-1.56563 4.800608,-1.56563 z"
       style="fill:#181818;fill-opacity:1;fill-rule:nonzero;stroke:none;stroke-width:0.35277775"
       id="path323"
       inkscape:connector-curvature="0" />
    <path
       d="m 22.959317,229.42777 c 1.08938,0 2.62185,-1.73531 3.5747,-3.06352 0,0 0.20426,0.067 0.20426,0.30621 0,0.40781 -3.91513,5.07189 -6.70631,5.07189 -0.85196,0 -2.24719,-0.13617 -2.24719,-2.58657 v -18.33492 c 0,-0.64734 -0.44309,-1.49754 -0.64735,-1.87254 -0.0339,-0.0681 -0.0677,-0.10195 -0.0339,-0.13617 0.54505,-0.4759 3.16654,-1.56598 4.8006,-1.56598 v 20.6502 c 0,1.19133 0.34044,1.5314 1.05516,1.5314"
       style="fill:#181818;fill-opacity:1;fill-rule:nonzero;stroke:none;stroke-width:0.35277775"
       id="path327"
       inkscape:connector-curvature="0" />
    <path
       d="m 25.204097,215.09547 h 1.56633 v -4.18783 c 0,-0.74894 -0.54433,-1.70109 -0.71508,-1.97414 0,0 0,-0.0339 0.0342,-0.0339 0.51082,-0.4766 3.16618,-1.56633 4.80025,-1.56633 v 7.76217 h 2.31493 c 0,0.30621 -0.30551,0.40887 -0.40781,0.40887 h -1.90712 v 12.56136 c 0,1.19133 0.27235,1.6002 0.98742,1.6002 0.40817,0 0.85126,-0.23813 1.26013,-0.64629 0.0339,0 0.10195,0.13582 0.10195,0.27199 0,0.17004 -0.0346,0.20426 -0.13653,0.27234 -1.12359,1.12325 -2.85996,2.17841 -4.08481,2.17841 -0.88618,0 -2.24755,-0.10125 -2.24755,-2.5527 v -13.68531 h -1.56633 z"
       style="fill:#181818;fill-opacity:1;fill-rule:nonzero;stroke:none;stroke-width:0.35277775"
       id="path331"
       inkscape:connector-curvature="0" />
    <path
       d="m -49.813873,228.61145 c 0,2.45039 1.939573,2.96156 3.301648,2.96156 2.451803,0 4.664075,-2.62149 5.209116,-3.50731 0,0 0.06844,-0.0681 0.102659,-0.0681 0.03422,0 0.03422,0.0349 0.03422,0.10301 -0.03422,1.73602 -0.06668,13.56995 -0.06173,14.55913 h 1.426633 c 1.498952,0 2.714977,-1.2132 2.718504,-2.71215 0.0049,-2.28106 0.01482,-6.59624 0.03528,-8.95385 2.58727,-1.80411 4.902552,-3.71122 4.902552,-4.32329 0,-0.20426 -0.204613,-0.27235 -0.204613,-0.27235 -0.953204,1.32751 -2.791529,2.72274 -4.697939,4.08482 v -15.38747 h -4.118682 v 11.5069 c -0.06844,0.8509 -1.29399,2.99544 -2.89419,2.99544 -0.919337,0 -1.634418,-0.5782 -1.634418,-1.8041 v -13.34453 c -1.668285,0 -4.289777,1.08832 -4.799894,1.56528 0,0 -0.03457,0.0342 -0.03457,0.0674 0.170392,0.23883 0.715434,1.2259 0.715434,1.94098 z"
       style="fill:#181818;fill-opacity:1;fill-rule:nonzero;stroke:none;stroke-width:0.35277775"
       id="path335"
       inkscape:connector-curvature="0" />
  </g>
</svg>
