<svg id="Layer_1" data-name="Layer 1" xmlns="http://www.w3.org/2000/svg" viewBox="0 0 500 156.27875"><defs><style>.cls-1{fill:none;}</style></defs><title>render-pixie</title><rect class="cls-1" x="229.13989" y="79.03169" width="10.97913" height="9.32074"/><rect class="cls-1" x="320.36853" y="79.03169" width="10.97906" height="9.32074"/><rect class="cls-1" x="194.92273" y="55.84944" width="13.70154" height="21.26373"/><polygon class="cls-1" points="391.416 57.28 377.782 57.28 377.782 84.13 391.416 84.632 391.416 57.28"/><polygon class="cls-1" points="40.31 96.931 19.625 107.867 81.231 143.174 141.684 107.866 121.416 96.946 81.26 120.4 40.31 96.931"/><rect class="cls-1" x="289.17316" y="79.91895" width="11.81061" height="25.85791"/><rect class="cls-1" x="466.04706" y="79.03169" width="10.97913" height="9.32074"/><path d="M214.57019,83.05915V49.90345H188.97681v61.8194h5.94592V82.60859l15.99371,29.11426h6.78376l-15.74451-28.6637ZM194.92273,55.84944h13.70154V77.11317H194.92273Z"/><polygon points="253.525 111.723 259.471 111.723 259.471 79.847 271.944 79.847 271.944 111.723 277.89 111.723 277.89 73.901 253.525 73.901 253.525 111.723"/><path d="M332.11176,105.77687H320.36853V94.29841h16.92505V73.08576h-22.871v38.63709h23.63519v-10.6098h-5.946ZM320.36853,79.03169H331.3476v9.32074H320.36853Z"/><polygon points="343.13 111.723 349.076 111.723 349.076 79.527 358.727 79.527 358.727 83.858 364.673 83.858 364.673 73.086 343.13 73.086 343.13 111.723"/><path d="M371.83588,111.72285h5.946V90.08051l19.57983.31524V51.33424H371.83588Zm5.946-54.44269h13.63385l.40473,26.94671-14.03858-.097Z"/><polygon points="404.193 111.723 404.787 111.723 404.787 106.302 409.544 106.302 409.544 111.723 410.139 111.723 410.139 74.628 404.193 74.628 404.193 111.723"/><rect x="404.78717" y="106.30238" width="4.75677" height="5.42047"/><polygon points="422.439 74.628 415.927 75.055 425.027 92.095 428.396 85.785 422.439 74.628"/><polygon points="428.396 98.405 435.509 111.723 442.246 111.723 431.766 92.095 428.396 98.405"/><polygon points="440.865 75.055 434.353 74.628 428.396 85.785 431.766 92.095 440.865 75.055"/><polygon points="414.547 111.723 421.285 111.723 428.396 98.405 425.027 92.095 414.547 111.723"/><polygon points="428.396 85.785 425.027 92.095 428.396 98.405 431.766 92.095 428.396 85.785"/><path d="M240.88312,105.77687H229.13989V94.29841h16.92505V73.08576h-22.871v38.63709H246.8291v-10.6098h-5.946ZM229.13989,79.03169H240.119v9.32074H229.13989Z"/><path d="M477.79028,101.11305v4.66382H466.04706V94.29841h16.92505V73.08576h-22.871v38.63709h23.6352v-10.6098ZM466.04706,79.03169h10.97912v9.32074H466.04706Z"/><rect x="445.55487" y="74.62837" width="5.94598" height="37.09448"/><rect x="445.73492" y="59.95564" width="5.58588" height="6.36523"/><rect x="404.78717" y="59.95564" width="5.58582" height="6.36523"/><polygon points="300.984 73.973 303.957 73.973 303.957 79.919 300.984 79.919 300.984 105.777 289.173 105.777 289.173 79.919 286.2 79.919 286.2 73.973 289.173 73.973 289.173 73.903 283.227 73.903 283.227 111.723 306.93 111.723 306.93 51.337 300.984 51.337 300.984 73.973"/><rect x="289.17316" y="73.97297" width="11.81061" height="5.94598"/><rect x="300.98376" y="73.97297" width="2.97296" height="5.94598"/><rect x="286.20013" y="73.97297" width="2.97302" height="5.94598"/><polygon points="141.684 107.866 81.231 143.174 19.625 107.867 40.31 96.931 34.15 93.4 7.188 107.654 81.26 150.106 153.941 107.655 127.485 93.401 121.416 96.946 141.684 107.866"/><polygon points="43.449 95.272 40.31 96.931 81.26 120.4 121.416 96.946 118.322 95.279 81.246 116.934 43.449 95.272"/><polygon points="13.407 78.054 37.23 65.459 34.15 63.694 7.188 77.948 34.15 93.4 37.288 91.741 13.407 78.054"/><polygon points="147.813 78.054 124.391 91.734 127.485 93.401 153.941 77.949 127.485 63.695 124.451 65.467 147.813 78.054"/><polygon points="43.449 95.272 37.288 91.741 34.15 93.4 40.31 96.931 43.449 95.272"/><polygon points="118.322 95.279 121.416 96.946 127.485 93.401 124.391 91.734 118.322 95.279"/><polygon points="81.231 113.468 46.587 93.613 43.449 95.272 81.246 116.934 118.322 95.279 115.228 93.612 81.231 113.468"/><polygon points="141.684 78.16 121.297 90.067 124.391 91.734 147.813 78.054 124.451 65.467 121.416 67.24 141.684 78.16"/><polygon points="19.625 78.161 40.31 67.225 37.23 65.459 13.407 78.054 37.288 91.741 40.426 90.082 19.625 78.161"/><polygon points="40.426 90.082 37.288 91.741 43.449 95.272 46.587 93.613 40.426 90.082"/><polygon points="115.228 93.612 118.322 95.279 124.391 91.734 121.297 90.067 115.228 93.612"/><polygon points="81.259 9.083 7.188 48.242 34.15 63.694 37.288 62.035 13.407 48.348 81.246 12.484 147.813 48.348 124.391 62.028 127.485 63.695 153.941 48.243 81.259 9.083"/><polygon points="81.246 87.228 70.41 81.018 67.272 82.677 81.26 90.694 94.96 82.692 91.866 81.025 81.246 87.228"/><polygon points="64.25 77.488 43.449 65.566 40.31 67.225 61.112 79.147 64.25 77.488"/><polygon points="101.029 79.147 121.416 67.24 118.322 65.573 97.935 77.48 101.029 79.147"/><polygon points="94.96 82.692 101.029 79.147 97.935 77.48 91.866 81.025 94.96 82.692"/><polygon points="64.25 77.488 61.112 79.147 67.272 82.677 70.41 81.018 64.25 77.488"/><polygon points="40.368 63.8 37.288 62.035 34.15 63.694 37.23 65.459 40.368 63.8"/><polygon points="121.357 63.8 124.451 65.467 127.485 63.695 124.391 62.028 121.357 63.8"/><polygon points="121.416 67.24 124.451 65.467 121.357 63.8 118.322 65.573 121.416 67.24"/><polygon points="43.449 65.566 40.368 63.8 37.23 65.459 40.31 67.225 43.449 65.566"/><polygon points="19.625 48.455 81.232 15.884 141.684 48.454 121.297 60.361 124.391 62.028 147.813 48.348 81.246 12.484 13.407 48.348 37.288 62.035 40.426 60.376 19.625 48.455"/><polygon points="97.935 77.48 118.322 65.573 115.228 63.906 94.841 75.813 97.935 77.48"/><polygon points="67.388 75.829 46.587 63.907 43.449 65.566 64.25 77.488 67.388 75.829"/><polygon points="91.866 81.025 88.772 79.358 81.231 83.762 73.548 79.359 70.41 81.018 81.246 87.228 91.866 81.025"/><polygon points="91.866 81.025 97.935 77.48 94.841 75.813 88.772 79.358 91.866 81.025"/><polygon points="70.41 81.018 73.548 79.359 67.388 75.829 64.25 77.488 70.41 81.018"/><polygon points="118.263 62.133 121.357 63.8 124.391 62.028 121.297 60.361 118.263 62.133"/><polygon points="43.506 62.141 40.426 60.376 37.288 62.035 40.368 63.8 43.506 62.141"/><polygon points="115.228 63.906 118.322 65.573 121.357 63.8 118.263 62.133 115.228 63.906"/><polygon points="46.587 63.907 43.506 62.141 40.368 63.8 43.449 65.566 46.587 63.907"/></svg>