<svg id="ART_-_V2" data-name="ART - V2" xmlns="http://www.w3.org/2000/svg" viewBox="0 0 500 500"><g id="Black_Logo" data-name="Black Logo"><path d="M125.83,380.41h21v12.33A26.31,26.31,0,0,1,156,381.67a21.92,21.92,0,0,1,12.42-3.77,23.1,23.1,0,0,1,10,2.51l-7.65,21.15a16.9,16.9,0,0,0-7.11-2.16q-5.67,0-9.58,7T150.12,434l.09,4.77v39.59H125.83Z"/><path d="M288.6,436.47H209.69a26.23,26.23,0,0,0,9.13,16.6q7.43,6.17,18.94,6.17a32.76,32.76,0,0,0,23.67-9.63l20.69,9.72a48.82,48.82,0,0,1-18.53,16.24q-10.8,5.26-25.65,5.26-23,0-37.52-14.53t-14.49-36.4q0-22.39,14.45-37.2t36.21-14.8q23.13,0,37.62,14.8t14.48,39.09ZM264,417.13a24.63,24.63,0,0,0-9.6-13.32,27.83,27.83,0,0,0-16.63-5.13,29.42,29.42,0,0,0-18,5.76q-4.86,3.6-9,12.69Z"/><path d="M304.35,380.41H379.3l-44,77.12h41.46v20.78H297.6l44.19-77.11H304.35Z"/><path d="M412,137.42A172,172,0,0,0,351.16,52.6a169.77,169.77,0,0,0-202.32,0A172,172,0,0,0,88,137.42l-1.18,3.66H38.89v96.44h47.9L88,241.17A172.05,172.05,0,0,0,148.84,326a169.77,169.77,0,0,0,202.32,0A172.05,172.05,0,0,0,412,241.17l1.18-3.65h47.9V141.08h-47.9ZM76.93,223H53.37V155.56h67.48V223H76.93Zm318.54,21.62a155.69,155.69,0,0,1-290.94,0l-2.72-7.14h33.52V141.08H101.81l2.72-7.15a155.69,155.69,0,0,1,290.94,0l2.72,7.15H364.67v41H329.26V110H170.74V268.55H329.26v-72h35.41v41h33.52ZM250,148.19a41.11,41.11,0,1,0,39.57,52.19l1.08-3.84h24.13v57.53H185.22V124.52H314.78v57.54H290.65l-1.08-3.85A41.26,41.26,0,0,0,250,148.19Zm26.62,41.11A26.62,26.62,0,1,1,250,162.67,26.65,26.65,0,0,1,276.62,189.3Zm146.45-33.74h23.56V223H379.15V155.56h43.92Z"/></g></svg>
