<svg width="584" height="256" version="1.1" xmlns="http://www.w3.org/2000/svg"><path fill="rgb(134,0,0)" stroke="rgb(134,0,0)" stroke-width="1" opacity="0.24313725490196078" d="M 133.5 12 L 155 12.5 L 133.5 13 L 133.5 12 Z "></path><path fill="rgb(134,0,0)" stroke="rgb(134,0,0)" stroke-width="1" opacity="0.24313725490196078" d="M 122.5 13 L 127 13.5 L 122.5 14 L 122.5 13 Z "></path><path fill="rgb(134,0,0)" stroke="rgb(134,0,0)" stroke-width="1" opacity="0.24313725490196078" d="M 159.5 13 L 163 13.5 L 159.5 14 L 159.5 13 Z "></path><path fill="rgb(134,0,0)" stroke="rgb(134,0,0)" stroke-width="1" opacity="0.24313725490196078" d="M 117.5 14 L 120 14.5 L 117.5 15 L 117.5 14 Z "></path><path fill="rgb(134,0,0)" stroke="rgb(134,0,0)" stroke-width="1" opacity="0.24313725490196078" d="M 165.5 14 L 168 14.5 L 165.5 15 L 165.5 14 Z "></path><path fill="rgb(134,0,0)" stroke="rgb(134,0,0)" stroke-width="1" opacity="0.24313725490196078" d="M 112.5 15 L 115 15.5 L 112.5 16 L 112.5 15 Z "></path><path fill="rgb(134,0,0)" stroke="rgb(134,0,0)" stroke-width="1" opacity="0.24313725490196078" d="M 108.5 16 L 111 16.5 L 108.5 17 L 108.5 16 Z "></path><path fill="rgb(134,0,0)" stroke="rgb(134,0,0)" stroke-width="1" opacity="0.24313725490196078" d="M 180.5 18 L 184 19.5 L 182.5 20 L 180.5 18 Z "></path><path fill="rgb(134,0,0)" stroke="rgb(134,0,0)" stroke-width="1" opacity="0.24313725490196078" d="M 96.5 20 L 98 20.5 L 94.5 22 L 94.5 21 L 96.5 20 Z "></path><path fill="rgb(134,0,0)" stroke="rgb(134,0,0)" stroke-width="1" opacity="0.24313725490196078" d="M 185.5 20 L 192 23.5 L 190.5 23 L 185.5 21 L 185.5 20 Z "></path><path fill="rgb(134,0,0)" stroke="rgb(134,0,0)" stroke-width="1" opacity="0.24313725490196078" d="M 91.5 22 L 93 22.5 L 80.5 29 L 81.5 27 L 91.5 22 Z "></path><path fill="rgb(134,0,0)" stroke="rgb(134,0,0)" stroke-width="1" opacity="0.24313725490196078" d="M 193.5 24 L 197 26.5 L 195.5 26 L 193.5 24 Z "></path><path fill="rgb(134,0,0)" stroke="rgb(134,0,0)" stroke-width="1" opacity="0.24313725490196078" d="M 198.5 27 L 199.5 29 L 198.5 27 Z "></path><path fill="rgb(134,0,0)" stroke="rgb(134,0,0)" stroke-width="1" opacity="0.24313725490196078" d="M 78.5 29 L 77.5 31 L 75.5 32 L 76.5 30 L 78.5 29 Z "></path><path fill="rgb(134,0,0)" stroke="rgb(134,0,0)" stroke-width="1" opacity="0.24313725490196078" d="M 201.5 29 L 216 42.5 L 223 52.5 L 221 51.5 Q 215 40.5 205.5 33 L 201.5 29 Z "></path><path fill="rgb(134,0,0)" stroke="rgb(134,0,0)" stroke-width="1" opacity="0.24313725490196078" d="M 73.5 32 L 72.5 34 L 73.5 32 Z "></path><path fill="rgb(134,0,0)" stroke="rgb(134,0,0)" stroke-width="1" opacity="0.24313725490196078" d="M 70.5 34 L 68.5 37 Q 55.6 45.1 46 56.5 L 40.5 63 L 45 57.5 L 57.5 44 L 70.5 34 Z "></path><path fill="rgb(134,0,0)" stroke="rgb(134,0,0)" stroke-width="1" opacity="0.24313725490196078" d="M 223.5 54 L 227 60.5 L 226 60.5 L 223.5 54 Z "></path><path fill="rgb(134,0,0)" stroke="rgb(134,0,0)" stroke-width="1" opacity="0.24313725490196078" d="M 39.5 64 L 37 67.5 L 34.5 71 L 36 68.5 L 39.5 64 Z "></path><path fill="rgb(134,0,0)" stroke="rgb(134,0,0)" stroke-width="1" opacity="0.24313725490196078" d="M 33.5 72 L 32.5 74 L 33.5 72 Z "></path><path fill="rgb(134,0,0)" stroke="rgb(134,0,0)" stroke-width="1" opacity="0.24313725490196078" d="M 231.5 73 L 232 75.5 L 231 75.5 L 231.5 73 Z "></path><path fill="rgb(134,0,0)" stroke="rgb(134,0,0)" stroke-width="1" opacity="0.24313725490196078" d="M 31.5 75 L 31 76.5 L 29.5 79 L 30 77.5 L 31.5 75 Z "></path><path fill="rgb(134,0,0)" stroke="rgb(134,0,0)" stroke-width="1" opacity="0.24313725490196078" d="M 232.5 78 L 233 80.5 L 232 80.5 L 232.5 78 Z "></path><path fill="rgb(134,0,0)" stroke="rgb(134,0,0)" stroke-width="1" opacity="0.24313725490196078" d="M 28.5 80 L 28 81.5 L 22.5 93 L 22 91.5 L 28.5 80 Z "></path><path fill="rgb(134,0,0)" stroke="rgb(134,0,0)" stroke-width="1" opacity="0.24313725490196078" d="M 233.5 84 L 234 111.5 L 233 111.5 L 233.5 84 Z "></path><path fill="rgb(134,0,0)" stroke="rgb(134,0,0)" stroke-width="1" opacity="0.24313725490196078" d="M 19.5 99 L 20 100.5 L 17.5 107 L 17 104.5 L 19.5 99 Z "></path><path fill="rgb(134,0,0)" stroke="rgb(134,0,0)" stroke-width="1" opacity="0.24313725490196078" d="M 16.5 108 L 17 110.5 L 16 110.5 L 16.5 108 Z "></path><path fill="rgb(134,0,0)" stroke="rgb(134,0,0)" stroke-width="1" opacity="0.24313725490196078" d="M 15.5 112 L 16 114.5 L 15 114.5 L 15.5 112 Z "></path><path fill="rgb(134,0,0)" stroke="rgb(134,0,0)" stroke-width="1" opacity="0.24313725490196078" d="M 232.5 115 L 233 117.5 L 232 117.5 L 232.5 115 Z "></path><path fill="rgb(134,0,0)" stroke="rgb(134,0,0)" stroke-width="1" opacity="0.24313725490196078" d="M 14.5 116 L 15 119.5 L 14 119.5 L 14.5 116 Z "></path><path fill="rgb(134,0,0)" stroke="rgb(134,0,0)" stroke-width="1" opacity="0.24313725490196078" d="M 231.5 120 L 232 122.5 L 231 122.5 L 231.5 120 Z "></path><path fill="rgb(134,0,0)" stroke="rgb(134,0,0)" stroke-width="1" opacity="0.24313725490196078" d="M 13.5 122 L 14 126.5 L 13 126.5 L 13.5 122 Z "></path><path fill="rgb(134,0,0)" stroke="rgb(134,0,0)" stroke-width="1" opacity="0.24313725490196078" d="M 230.5 124 L 231 126.5 L 230 126.5 L 230.5 124 Z "></path><path fill="rgb(134,0,0)" stroke="rgb(134,0,0)" stroke-width="1" opacity="0.24313725490196078" d="M 12.5 131 L 13 152.5 L 12 152.5 L 12.5 131 Z "></path><path fill="rgb(134,0,0)" stroke="rgb(134,0,0)" stroke-width="1" opacity="0.24313725490196078" d="M 227.5 134 L 228 135.5 L 226.5 138 L 226 136.5 L 227.5 134 Z "></path><path fill="rgb(134,0,0)" stroke="rgb(134,0,0)" stroke-width="1" opacity="0.24313725490196078" d="M 225.5 139 L 226 140.5 L 220.5 150 L 221 148.5 L 225.5 139 Z "></path><path fill="rgb(134,0,0)" stroke="rgb(134,0,0)" stroke-width="1" opacity="0.24313725490196078" d="M 219.5 151 L 219 152.5 L 214.5 159 L 216 156.5 L 219.5 151 Z "></path><path fill="rgb(134,0,0)" stroke="rgb(134,0,0)" stroke-width="1" opacity="0.24313725490196078" d="M 13.5 157 L 14 161.5 L 13 161.5 L 13.5 157 Z "></path><path fill="rgb(134,0,0)" stroke="rgb(134,0,0)" stroke-width="1" opacity="0.24313725490196078" d="M 213.5 160 L 211 163.5 L 202.5 174 L 183.5 188 L 184.5 186 L 204 172 L 213.5 160 Z "></path><path fill="rgb(134,0,0)" stroke="rgb(134,0,0)" stroke-width="1" opacity="0.24313725490196078" d="M 14.5 164 L 15 166.5 L 14 166.5 L 14.5 164 Z "></path><path fill="rgb(134,0,0)" stroke="rgb(134,0,0)" stroke-width="1" opacity="0.24313725490196078" d="M 16.5 172 L 17 174.5 L 16 174.5 L 16.5 172 Z "></path><path fill="rgb(134,0,0)" stroke="rgb(134,0,0)" stroke-width="1" opacity="0.24313725490196078" d="M 18.5 179 L 20 182.5 L 19 182.5 L 18.5 179 Z "></path><path fill="rgb(134,0,0)" stroke="rgb(134,0,0)" stroke-width="1" opacity="0.24313725490196078" d="M 20.5 184 L 26 194.5 L 24 193.5 L 20 185.5 L 20.5 184 Z "></path><path fill="rgb(134,0,0)" stroke="rgb(134,0,0)" stroke-width="1" opacity="0.24313725490196078" d="M 327.5 184 L 329 184.5 L 325.5 186 L 325.5 185 L 327.5 184 Z "></path><path fill="rgb(134,0,0)" stroke="rgb(134,0,0)" stroke-width="1" opacity="0.24313725490196078" d="M 491.5 184 Q 494.3 183.4 493 189.5 L 492 189.5 L 491.5 184 Z "></path><path fill="rgb(134,0,0)" stroke="rgb(134,0,0)" stroke-width="1" opacity="0.24313725490196078" d="M 488.5 185 L 490 185.5 L 485 187.5 L 488 188 L 487.5 194 L 487 189 Q 483.2 190.5 484 187.5 L 488.5 185 Z "></path><path fill="rgb(134,0,0)" stroke="rgb(134,0,0)" stroke-width="1" opacity="0.24313725490196078" d="M 321.5 186 L 324 186.5 L 321 187.5 L 324 188.5 L 320 189 L 321.5 186 Z "></path><path fill="rgb(134,0,0)" stroke="rgb(134,0,0)" stroke-width="1" opacity="0.24313725490196078" d="M 389.5 186 L 393 187.5 L 391.5 187 L 388.5 188 L 389.5 186 Z "></path><path fill="rgb(134,0,0)" stroke="rgb(134,0,0)" stroke-width="1" opacity="0.24313725490196078" d="M 462.5 186 L 466 187.5 Q 466.8 192.3 463.5 193 L 460 191.5 Q 459.3 186.8 462.5 186 Z M 463 187 Q 460 188 461 192 L 465 191 Q 467 186 463 187 Z "></path><path fill="rgb(134,0,0)" stroke="rgb(134,0,0)" stroke-width="1" opacity="0.24313725490196078" d="M 250.5 187 L 253 187.5 L 250.5 188 L 250.5 187 Z "></path><path fill="rgb(134,0,0)" stroke="rgb(134,0,0)" stroke-width="1" opacity="0.24313725490196078" d="M 328.5 187 L 329 189.5 L 328 189.5 L 328.5 187 Z "></path><path fill="rgb(134,0,0)" stroke="rgb(134,0,0)" stroke-width="1" opacity="0.24313725490196078" d="M 254.5 188 L 258 192.5 L 257 192.5 L 254.5 188 Z "></path><path fill="rgb(134,0,0)" stroke="rgb(134,0,0)" stroke-width="1" opacity="0.24313725490196078" d="M 245 189 Q 249.7 188.1 252 190.5 L 250.5 191 L 246 190 L 245.5 193 L 245 189 Z "></path><path fill="rgb(134,0,0)" stroke="rgb(134,0,0)" stroke-width="1" opacity="0.24313725490196078" d="M 177.5 190 Q 180.5 198.5 187 203.5 L 181 198.5 L 177 192.5 L 177.5 190 Z "></path><path fill="rgb(134,0,0)" stroke="rgb(134,0,0)" stroke-width="1" opacity="0.24313725490196078" d="M 323.5 190 L 324 194.5 L 323 194.5 L 323.5 190 Z "></path><path fill="rgb(134,0,0)" stroke="rgb(134,0,0)" stroke-width="1" opacity="0.24313725490196078" d="M 392.5 190 L 390.5 193 L 389 192.5 L 392.5 190 Z "></path><path fill="rgb(134,0,0)" stroke="rgb(134,0,0)" stroke-width="1" opacity="0.24313725490196078" d="M 240.5 191 L 241 194.5 L 240 194.5 L 240.5 191 Z "></path><path fill="rgb(134,0,0)" stroke="rgb(134,0,0)" stroke-width="1" opacity="0.24313725490196078" d="M 491.5 191 L 492 194.5 L 491 194.5 L 491.5 191 Z "></path><path fill="rgb(134,0,0)" stroke="rgb(134,0,0)" stroke-width="1" opacity="0.24313725490196078" d="M 327.5 192 L 328 195.5 L 327 195.5 L 327.5 192 Z "></path><path fill="rgb(134,0,0)" stroke="rgb(134,0,0)" stroke-width="1" opacity="0.24313725490196078" d="M 399 192 L 403 192.5 L 400 193 L 399.5 197 L 399 192 Z "></path><path fill="rgb(134,0,0)" stroke="rgb(134,0,0)" stroke-width="1" opacity="0.24313725490196078" d="M 472 192 L 475 192.5 L 473 193 L 472.5 196 L 472 192 Z "></path><path fill="rgb(134,0,0)" stroke="rgb(134,0,0)" stroke-width="1" opacity="0.24313725490196078" d="M 244.5 194 L 245 197.5 L 244 197.5 L 244.5 194 Z "></path><path fill="rgb(134,0,0)" stroke="rgb(134,0,0)" stroke-width="1" opacity="0.24313725490196078" d="M 476.5 194 L 477 197.5 L 476 197.5 L 476.5 194 Z "></path><path fill="rgb(134,0,0)" stroke="rgb(134,0,0)" stroke-width="1" opacity="0.24313725490196078" d="M 403.5 195 L 404 197.5 L 403 197.5 L 403.5 195 Z "></path><path fill="rgb(134,0,0)" stroke="rgb(134,0,0)" stroke-width="1" opacity="0.24313725490196078" d="M 486.5 195 L 487 198.5 L 486 198.5 L 486.5 195 Z "></path><path fill="rgb(134,0,0)" stroke="rgb(134,0,0)" stroke-width="1" opacity="0.24313725490196078" d="M 26.5 196 L 32 203.5 L 29 201.5 L 26.5 196 Z "></path><path fill="rgb(134,0,0)" stroke="rgb(134,0,0)" stroke-width="1" opacity="0.24313725490196078" d="M 239.5 196 L 240 199.5 L 239 199.5 L 239.5 196 Z "></path><path fill="rgb(134,0,0)" stroke="rgb(134,0,0)" stroke-width="1" opacity="0.24313725490196078" d="M 257.5 196 L 258 198.5 L 255.5 202 L 251.5 204 L 251.5 203 L 256 201 L 257.5 196 Z "></path><path fill="rgb(134,0,0)" stroke="rgb(134,0,0)" stroke-width="1" opacity="0.24313725490196078" d="M 322.5 196 L 323 199.5 L 322 199.5 L 322.5 196 Z "></path><path fill="rgb(134,0,0)" stroke="rgb(134,0,0)" stroke-width="1" opacity="0.24313725490196078" d="M 490.5 196 L 491 199.5 L 490 199.5 L 490.5 196 Z "></path><path fill="rgb(134,0,0)" stroke="rgb(134,0,0)" stroke-width="1" opacity="0.24313725490196078" d="M 252.5 197 L 253 198.5 L 251.5 201 L 251 199.5 L 252.5 197 Z "></path><path fill="rgb(134,0,0)" stroke="rgb(134,0,0)" stroke-width="1" opacity="0.24313725490196078" d="M 269.5 197 Q 277.5 195.5 279 200.5 L 278.5 204 Q 278.7 199.3 275.5 198 Q 266.1 196.7 264 202.5 L 262.5 206 L 262 204.5 L 267.5 198 L 269.5 197 Z "></path><path fill="rgb(134,0,0)" stroke="rgb(134,0,0)" stroke-width="1" opacity="0.24313725490196078" d="M 286.5 197 L 293 197.5 L 286.5 198 L 286.5 197 Z "></path><path fill="rgb(134,0,0)" stroke="rgb(134,0,0)" stroke-width="1" opacity="0.24313725490196078" d="M 305.5 197 L 311 197.5 Q 301.6 197.1 299 203.5 L 297.5 207 L 297 205.5 L 300 200 L 305.5 197 Z "></path><path fill="rgb(134,0,0)" stroke="rgb(134,0,0)" stroke-width="1" opacity="0.24313725490196078" d="M 326.5 197 L 327 200.5 L 326 200.5 L 326.5 197 Z "></path><path fill="rgb(134,0,0)" stroke="rgb(134,0,0)" stroke-width="1" opacity="0.24313725490196078" d="M 335.5 197 L 339 197 L 339 203.5 L 338 203.5 L 338 198 L 335.5 198 L 335.5 197 Z "></path><path fill="rgb(134,0,0)" stroke="rgb(134,0,0)" stroke-width="1" opacity="0.24313725490196078" d="M 347.5 197 Q 354.7 194.7 352 202.5 L 350.5 205 L 350 203.5 L 351 198 Q 346.6 199 347.5 197 Z "></path><path fill="rgb(134,0,0)" stroke="rgb(134,0,0)" stroke-width="1" opacity="0.24313725490196078" d="M 361.5 197 L 367 197.5 L 361.5 198 L 361.5 197 Z "></path><path fill="rgb(134,0,0)" stroke="rgb(134,0,0)" stroke-width="1" opacity="0.24313725490196078" d="M 388.5 197 Q 393.1 195.7 391 201.5 L 390 201.5 Q 391.5 197.1 388.5 198 L 388.5 197 Z "></path><path fill="rgb(134,0,0)" stroke="rgb(134,0,0)" stroke-width="1" opacity="0.24313725490196078" d="M 424.5 197 L 428 197.5 L 420 200 L 419.5 202 L 419 200.5 L 424.5 197 Z "></path><path fill="rgb(134,0,0)" stroke="rgb(134,0,0)" stroke-width="1" opacity="0.24313725490196078" d="M 437.5 197 L 441 197 L 441 203.5 L 440 203.5 L 440 198 L 437.5 198 L 437.5 197 Z "></path><path fill="rgb(134,0,0)" stroke="rgb(134,0,0)" stroke-width="1" opacity="0.24313725490196078" d="M 449.5 197 Q 453.3 196.3 454 198.5 L 453.5 202 L 453 198 Q 448.6 199 449.5 197 Z "></path><path fill="rgb(134,0,0)" stroke="rgb(134,0,0)" stroke-width="1" opacity="0.24313725490196078" d="M 461.5 197 Q 465.7 195.7 464 200.5 L 463 200.5 Q 464.1 197.2 461.5 198 L 461.5 197 Z "></path><path fill="rgb(134,0,0)" stroke="rgb(134,0,0)" stroke-width="1" opacity="0.24313725490196078" d="M 497.5 197 Q 502 196 503 198.5 L 502.5 200 L 502 198 Q 493.8 197.6 491 203.5 L 488.5 207 L 489 205.5 L 489.5 201 L 490.5 203 L 497.5 197 Z "></path><path fill="rgb(134,0,0)" stroke="rgb(134,0,0)" stroke-width="1" opacity="0.24313725490196078" d="M 523.5 197 L 526 197.5 L 521.5 199 L 521.5 198 L 523.5 197 Z "></path><path fill="rgb(134,0,0)" stroke="rgb(134,0,0)" stroke-width="1" opacity="0.24313725490196078" d="M 531.5 197 Q 536.8 195.3 535 200.5 L 534 200.5 Q 535.3 196.8 531.5 198 L 528 200.5 L 524.5 206 L 524 204.5 Q 527.5 203 525 201.5 L 525.5 199 L 526.5 202 L 529.5 198 L 531.5 197 Z "></path><path fill="rgb(134,0,0)" stroke="rgb(134,0,0)" stroke-width="1" opacity="0.24313725490196078" d="M 543.5 197 L 549 197.5 L 543.5 198 L 543.5 197 Z "></path><path fill="rgb(134,0,0)" stroke="rgb(134,0,0)" stroke-width="1" opacity="0.24313725490196078" d="M 556.5 197 L 560 197.5 L 556 198 L 555.5 200 L 555 198.5 L 556.5 197 Z "></path><path fill="rgb(134,0,0)" stroke="rgb(134,0,0)" stroke-width="1" opacity="0.24313725490196078" d="M 284.5 198 L 282 201.5 L 282 205.5 L 290 213.5 L 290 215.5 L 286.5 218 L 286.5 217 L 289 215.5 L 289 213.5 L 281 205.5 L 281 201.5 L 284.5 198 Z "></path><path fill="rgb(134,0,0)" stroke="rgb(134,0,0)" stroke-width="1" opacity="0.24313725490196078" d="M 294.5 198 L 295 202.5 L 294 202.5 L 294.5 198 Z "></path><path fill="rgb(134,0,0)" stroke="rgb(134,0,0)" stroke-width="1" opacity="0.24313725490196078" d="M 312.5 198 L 313.5 200 L 312.5 198 Z "></path><path fill="rgb(134,0,0)" stroke="rgb(134,0,0)" stroke-width="1" opacity="0.24313725490196078" d="M 333.5 198 L 332.5 200 L 331 200.5 L 333 201.5 L 330 202 L 331.5 199 L 333.5 198 Z "></path><path fill="rgb(134,0,0)" stroke="rgb(134,0,0)" stroke-width="1" opacity="0.24313725490196078" d="M 345.5 198 L 347 201.5 L 346 201.5 L 345.5 198 Z "></path><path fill="rgb(134,0,0)" stroke="rgb(134,0,0)" stroke-width="1" opacity="0.24313725490196078" d="M 359.5 198 L 358.5 200 Q 356.3 199.3 357 201.5 L 353.5 208 L 353 205.5 L 357.5 199 L 359.5 198 Z "></path><path fill="rgb(134,0,0)" stroke="rgb(134,0,0)" stroke-width="1" opacity="0.24313725490196078" d="M 368.5 198 L 370 200.5 L 369 200.5 L 368.5 198 Z "></path><path fill="rgb(134,0,0)" stroke="rgb(134,0,0)" stroke-width="1" opacity="0.24313725490196078" d="M 447.5 198 Q 449.9 200.1 449 205.5 L 448 205.5 L 447.5 198 Z "></path><path fill="rgb(134,0,0)" stroke="rgb(134,0,0)" stroke-width="1" opacity="0.24313725490196078" d="M 541.5 198 L 540.5 200 L 538.5 201 L 539.5 199 L 541.5 198 Z "></path><path fill="rgb(134,0,0)" stroke="rgb(134,0,0)" stroke-width="1" opacity="0.24313725490196078" d="M 550.5 198 L 552 200.5 L 551 200.5 L 550.5 198 Z "></path><path fill="rgb(134,0,0)" stroke="rgb(134,0,0)" stroke-width="1" opacity="0.24313725490196078" d="M 561.5 198 L 564 198.5 L 561.5 199 L 561.5 198 Z "></path><path fill="rgb(134,0,0)" stroke="rgb(134,0,0)" stroke-width="1" opacity="0.24313725490196078" d="M 571.5 198 L 572 199.5 L 559 214.5 L 567 215.5 L 557.5 216 L 559 213.5 L 571.5 198 Z "></path><path fill="rgb(134,0,0)" stroke="rgb(134,0,0)" stroke-width="1" opacity="0.24313725490196078" d="M 270.5 199 L 274 200.5 L 272.5 200 Q 268.5 199.5 268 202.5 L 267 206.5 L 267.5 208 Q 264.5 208.9 266 204.5 L 270.5 199 Z "></path><path fill="rgb(134,0,0)" stroke="rgb(134,0,0)" stroke-width="1" opacity="0.24313725490196078" d="M 286.5 199 Q 291 198 292 200.5 L 290.5 200 Q 284.2 197.8 286 203.5 L 293 209.5 L 294 214.5 L 293 214.5 Q 293.7 208.3 289.5 207 L 285 203.5 Q 284.3 199.8 286.5 199 Z "></path><path fill="rgb(134,0,0)" stroke="rgb(134,0,0)" stroke-width="1" opacity="0.24313725490196078" d="M 306.5 199 L 310 200.5 L 308.5 200 Q 303.5 199.5 303 203.5 L 301.5 208 L 301 205.5 L 304 200 L 306.5 199 Z "></path><path fill="rgb(134,0,0)" stroke="rgb(134,0,0)" stroke-width="1" opacity="0.24313725490196078" d="M 362.5 199 L 366 200.5 Q 366.8 206.3 362.5 207 L 361 206.5 L 365 203.5 Q 366.7 198.7 362.5 200 L 362.5 199 Z "></path><path fill="rgb(134,0,0)" stroke="rgb(134,0,0)" stroke-width="1" opacity="0.24313725490196078" d="M 519.5 199 L 519.5 201 L 521 201.5 L 519.5 202 L 517 201.5 Q 516.3 199.3 518.5 200 L 519.5 199 Z "></path><path fill="rgb(134,0,0)" stroke="rgb(134,0,0)" stroke-width="1" opacity="0.24313725490196078" d="M 544.5 199 L 548 200.5 Q 548.8 206.3 544.5 207 L 543 206.5 L 547 203.5 Q 548.7 198.7 544.5 200 L 544.5 199 Z "></path><path fill="rgb(134,0,0)" stroke="rgb(134,0,0)" stroke-width="1" opacity="0.24313725490196078" d="M 243.5 200 L 244 202 L 248 202.5 L 245 203 L 247 207.5 L 245 206.5 Q 242 204 243.5 200 Z "></path><path fill="rgb(134,0,0)" stroke="rgb(134,0,0)" stroke-width="1" opacity="0.24313725490196078" d="M 360.5 200 L 360 201.5 L 358.5 205 L 358 203.5 L 360.5 200 Z "></path><path fill="rgb(134,0,0)" stroke="rgb(134,0,0)" stroke-width="1" opacity="0.24313725490196078" d="M 398.5 200 L 399 202.5 L 398 202.5 L 398.5 200 Z "></path><path fill="rgb(134,0,0)" stroke="rgb(134,0,0)" stroke-width="1" opacity="0.24313725490196078" d="M 402.5 200 L 403 203.5 L 402 203.5 L 402.5 200 Z "></path><path fill="rgb(134,0,0)" stroke="rgb(134,0,0)" stroke-width="1" opacity="0.24313725490196078" d="M 405.5 200 L 408 200.5 L 405.5 201 L 405.5 200 Z "></path><path fill="rgb(134,0,0)" stroke="rgb(134,0,0)" stroke-width="1" opacity="0.24313725490196078" d="M 475.5 200 L 476 202.5 L 475 202.5 L 475.5 200 Z "></path><path fill="rgb(134,0,0)" stroke="rgb(134,0,0)" stroke-width="1" opacity="0.24313725490196078" d="M 478.5 200 L 481 200.5 L 478.5 201 L 478.5 200 Z "></path><path fill="rgb(134,0,0)" stroke="rgb(134,0,0)" stroke-width="1" opacity="0.24313725490196078" d="M 485.5 200 L 486 203.5 L 485 203.5 L 485.5 200 Z "></path><path fill="rgb(134,0,0)" stroke="rgb(134,0,0)" stroke-width="1" opacity="0.24313725490196078" d="M 542.5 200 L 542 201.5 L 540.5 205 L 540 203.5 L 542.5 200 Z "></path><path fill="rgb(134,0,0)" stroke="rgb(134,0,0)" stroke-width="1" opacity="0.24313725490196078" d="M 238.5 201 L 239 204.5 L 238 204.5 L 238.5 201 Z "></path><path fill="rgb(134,0,0)" stroke="rgb(134,0,0)" stroke-width="1" opacity="0.24313725490196078" d="M 321.5 201 L 322 204.5 L 321 204.5 L 321.5 201 Z "></path><path fill="rgb(134,0,0)" stroke="rgb(134,0,0)" stroke-width="1" opacity="0.24313725490196078" d="M 427.5 201 L 428 205.5 L 427 205.5 L 427.5 201 Z "></path><path fill="rgb(134,0,0)" stroke="rgb(134,0,0)" stroke-width="1" opacity="0.24313725490196078" d="M 457.5 201 Q 460.9 200.1 459 205.5 L 458 205.5 L 457.5 201 Z "></path><path fill="rgb(134,0,0)" stroke="rgb(134,0,0)" stroke-width="1" opacity="0.24313725490196078" d="M 495.5 201 L 497 201.5 L 493 204.5 L 490.5 208 L 492 205.5 L 495.5 201 Z "></path><path fill="rgb(134,0,0)" stroke="rgb(134,0,0)" stroke-width="1" opacity="0.24313725490196078" d="M 498.5 201 L 499 203.5 L 498 203.5 L 498.5 201 Z "></path><path fill="rgb(134,0,0)" stroke="rgb(134,0,0)" stroke-width="1" opacity="0.24313725490196078" d="M 502.5 201 L 503 204.5 L 502 204.5 L 502.5 201 Z "></path><path fill="rgb(134,0,0)" stroke="rgb(134,0,0)" stroke-width="1" opacity="0.24313725490196078" d="M 554.5 201 L 555.5 203 Q 556.3 200.3 560.5 201 L 560.5 202 L 557 202 Q 558.1 205.3 554 204 L 554.5 201 Z "></path><path fill="rgb(134,0,0)" stroke="rgb(134,0,0)" stroke-width="1" opacity="0.24313725490196078" d="M 194.5 202 Q 199 201 200 203.5 L 199.5 205 L 199 203 L 194.5 203 L 194.5 202 Z "></path><path fill="rgb(134,0,0)" stroke="rgb(134,0,0)" stroke-width="1" opacity="0.24313725490196078" d="M 310.5 202 L 311 210.5 L 310 210.5 L 310.5 202 Z "></path><path fill="rgb(134,0,0)" stroke="rgb(134,0,0)" stroke-width="1" opacity="0.24313725490196078" d="M 325.5 202 L 326 205.5 L 325 205.5 L 325.5 202 Z "></path><path fill="rgb(134,0,0)" stroke="rgb(134,0,0)" stroke-width="1" opacity="0.24313725490196078" d="M 530.5 202 L 532 202.5 L 528 204 L 523.5 213 L 523 211.5 L 528.5 203 L 530.5 202 Z "></path><path fill="rgb(134,0,0)" stroke="rgb(134,0,0)" stroke-width="1" opacity="0.24313725490196078" d="M 537.5 202 L 537 203.5 L 535.5 208 L 535 205.5 L 537.5 202 Z "></path><path fill="rgb(134,0,0)" stroke="rgb(134,0,0)" stroke-width="1" opacity="0.24313725490196078" d="M 565.5 202 L 562 206.5 L 552.5 218 L 555 214.5 L 565.5 202 Z "></path><path fill="rgb(134,0,0)" stroke="rgb(134,0,0)" stroke-width="1" opacity="0.24313725490196078" d="M 273.5 203 L 274 204.5 L 272 205.5 L 273.5 203 Z "></path><path fill="rgb(134,0,0)" stroke="rgb(134,0,0)" stroke-width="1" opacity="0.24313725490196078" d="M 333.5 203 L 334 207.5 L 333 207.5 L 333.5 203 Z "></path><path fill="rgb(134,0,0)" stroke="rgb(134,0,0)" stroke-width="1" opacity="0.24313725490196078" d="M 369.5 203 L 370 204.5 L 366 207.5 L 369.5 203 Z "></path><path fill="rgb(134,0,0)" stroke="rgb(134,0,0)" stroke-width="1" opacity="0.24313725490196078" d="M 385.5 203 L 386 205.5 L 385 205.5 L 385.5 203 Z "></path><path fill="rgb(134,0,0)" stroke="rgb(134,0,0)" stroke-width="1" opacity="0.24313725490196078" d="M 452.5 203 L 453 204.5 L 447.5 213 L 449 210.5 L 452.5 203 Z "></path><path fill="rgb(134,0,0)" stroke="rgb(134,0,0)" stroke-width="1" opacity="0.24313725490196078" d="M 462.5 203 L 463 205.5 L 462 205.5 L 462.5 203 Z "></path><path fill="rgb(134,0,0)" stroke="rgb(134,0,0)" stroke-width="1" opacity="0.24313725490196078" d="M 520.5 203 L 521 206.5 L 520 206.5 L 520.5 203 Z "></path><path fill="rgb(134,0,0)" stroke="rgb(134,0,0)" stroke-width="1" opacity="0.24313725490196078" d="M 551.5 203 L 552 204.5 Q 550 208.5 544.5 209 L 544.5 208 Q 549.3 207.8 551 204.5 L 551.5 203 Z "></path><path fill="rgb(134,0,0)" stroke="rgb(134,0,0)" stroke-width="1" opacity="0.24313725490196078" d="M 249.5 204 L 250.5 206 L 249.5 204 Z "></path><path fill="rgb(134,0,0)" stroke="rgb(134,0,0)" stroke-width="1" opacity="0.24313725490196078" d="M 346.5 204 L 347 206.5 L 340.5 216 L 337.5 217 L 337.5 216 L 342 213.5 L 346.5 204 Z "></path><path fill="rgb(134,0,0)" stroke="rgb(134,0,0)" stroke-width="1" opacity="0.24313725490196078" d="M 389.5 204 L 390 206.5 L 389 206.5 L 389.5 204 Z "></path><path fill="rgb(134,0,0)" stroke="rgb(134,0,0)" stroke-width="1" opacity="0.24313725490196078" d="M 397.5 204 L 398 207.5 L 397 207.5 L 397.5 204 Z "></path><path fill="rgb(134,0,0)" stroke="rgb(134,0,0)" stroke-width="1" opacity="0.24313725490196078" d="M 470.5 204 L 471 206.5 L 470 206.5 L 470.5 204 Z "></path><path fill="rgb(134,0,0)" stroke="rgb(134,0,0)" stroke-width="1" opacity="0.24313725490196078" d="M 32.5 205 L 45.5 219 L 60 229.5 L 58.5 229 Q 45.4 221.6 36 210.5 L 32.5 205 Z "></path><path fill="rgb(134,0,0)" stroke="rgb(134,0,0)" stroke-width="1" opacity="0.24313725490196078" d="M 242.5 205 L 243 207.5 L 242 207.5 L 242.5 205 Z "></path><path fill="rgb(134,0,0)" stroke="rgb(134,0,0)" stroke-width="1" opacity="0.24313725490196078" d="M 277.5 205 L 275.5 208 L 274 207.5 L 277.5 205 Z "></path><path fill="rgb(134,0,0)" stroke="rgb(134,0,0)" stroke-width="1" opacity="0.24313725490196078" d="M 474.5 205 L 475 208.5 L 474 208.5 L 474.5 205 Z "></path><path fill="rgb(134,0,0)" stroke="rgb(134,0,0)" stroke-width="1" opacity="0.24313725490196078" d="M 320.5 206 L 321 209.5 L 320 209.5 L 320.5 206 Z "></path><path fill="rgb(134,0,0)" stroke="rgb(134,0,0)" stroke-width="1" opacity="0.24313725490196078" d="M 337.5 206 L 338 211.5 L 337 211.5 L 337.5 206 Z "></path><path fill="rgb(134,0,0)" stroke="rgb(134,0,0)" stroke-width="1" opacity="0.24313725490196078" d="M 357.5 206 L 360 207.5 L 357 208 L 357.5 206 Z "></path><path fill="rgb(134,0,0)" stroke="rgb(134,0,0)" stroke-width="1" opacity="0.24313725490196078" d="M 401.5 206 L 402 209.5 L 401 209.5 L 401.5 206 Z "></path><path fill="rgb(134,0,0)" stroke="rgb(134,0,0)" stroke-width="1" opacity="0.24313725490196078" d="M 422.5 206 L 423 210.5 L 422 210.5 L 422.5 206 Z "></path><path fill="rgb(134,0,0)" stroke="rgb(134,0,0)" stroke-width="1" opacity="0.24313725490196078" d="M 484.5 206 L 485 208.5 L 484 208.5 L 484.5 206 Z "></path><path fill="rgb(134,0,0)" stroke="rgb(134,0,0)" stroke-width="1" opacity="0.24313725490196078" d="M 497.5 206 L 498 208.5 L 497 208.5 L 497.5 206 Z "></path><path fill="rgb(134,0,0)" stroke="rgb(134,0,0)" stroke-width="1" opacity="0.24313725490196078" d="M 539.5 206 L 542 207.5 L 539 208 L 539.5 206 Z "></path><path fill="rgb(134,0,0)" stroke="rgb(134,0,0)" stroke-width="1" opacity="0.24313725490196078" d="M 237.5 207 L 238 209.5 L 237 209.5 L 237.5 207 Z "></path><path fill="rgb(134,0,0)" stroke="rgb(134,0,0)" stroke-width="1" opacity="0.24313725490196078" d="M 251.5 207 L 257 216.5 L 256 216.5 L 251.5 207 Z "></path><path fill="rgb(134,0,0)" stroke="rgb(134,0,0)" stroke-width="1" opacity="0.24313725490196078" d="M 261.5 207 L 262 215.5 L 264.5 219 L 267 219.5 L 264.5 220 Q 258.8 216.7 261.5 207 Z "></path><path fill="rgb(134,0,0)" stroke="rgb(134,0,0)" stroke-width="1" opacity="0.24313725490196078" d="M 324.5 207 L 325 210.5 L 324 210.5 L 324.5 207 Z "></path><path fill="rgb(134,0,0)" stroke="rgb(134,0,0)" stroke-width="1" opacity="0.24313725490196078" d="M 434.5 207 L 435 208.5 L 429.5 216 L 431 213.5 L 434.5 207 Z "></path><path fill="rgb(134,0,0)" stroke="rgb(134,0,0)" stroke-width="1" opacity="0.24313725490196078" d="M 439.5 207 L 440 211.5 L 439 211.5 L 439.5 207 Z "></path><path fill="rgb(134,0,0)" stroke="rgb(134,0,0)" stroke-width="1" opacity="0.24313725490196078" d="M 447.5 207 L 448 208.5 L 444.5 213 L 446 210.5 L 447.5 207 Z "></path><path fill="rgb(134,0,0)" stroke="rgb(134,0,0)" stroke-width="1" opacity="0.24313725490196078" d="M 457.5 207 L 458 210.5 L 457 210.5 L 457.5 207 Z "></path><path fill="rgb(134,0,0)" stroke="rgb(134,0,0)" stroke-width="1" opacity="0.24313725490196078" d="M 501.5 207 L 502 209.5 L 501 209.5 L 501.5 207 Z "></path><path fill="rgb(134,0,0)" stroke="rgb(134,0,0)" stroke-width="1" opacity="0.24313725490196078" d="M 199.5 208 L 192.5 216 L 188.5 219 L 191.5 215 L 199.5 208 Z "></path><path fill="rgb(134,0,0)" stroke="rgb(134,0,0)" stroke-width="1" opacity="0.24313725490196078" d="M 296.5 208 L 297 215.5 L 296 215.5 L 296.5 208 Z "></path><path fill="rgb(134,0,0)" stroke="rgb(134,0,0)" stroke-width="1" opacity="0.24313725490196078" d="M 348.5 208 L 348 209.5 L 341.5 218 L 345 213.5 L 348.5 208 Z "></path><path fill="rgb(134,0,0)" stroke="rgb(134,0,0)" stroke-width="1" opacity="0.24313725490196078" d="M 362.5 208 L 365 208.5 L 362.5 209 L 362.5 208 Z "></path><path fill="rgb(134,0,0)" stroke="rgb(134,0,0)" stroke-width="1" opacity="0.24313725490196078" d="M 384.5 208 L 385 210.5 L 384 210.5 L 384.5 208 Z "></path><path fill="rgb(134,0,0)" stroke="rgb(134,0,0)" stroke-width="1" opacity="0.24313725490196078" d="M 461.5 208 L 462 210.5 L 461 210.5 L 461.5 208 Z "></path><path fill="rgb(134,0,0)" stroke="rgb(134,0,0)" stroke-width="1" opacity="0.24313725490196078" d="M 247.5 209 L 251 214.5 L 249 213.5 L 247.5 209 Z "></path><path fill="rgb(134,0,0)" stroke="rgb(134,0,0)" stroke-width="1" opacity="0.24313725490196078" d="M 266.5 209 L 269 209.5 L 266 210 L 265.5 213 L 265 210.5 L 266.5 209 Z "></path><path fill="rgb(134,0,0)" stroke="rgb(134,0,0)" stroke-width="1" opacity="0.24313725490196078" d="M 314.5 209 L 315 211.5 L 312.5 215 L 313 213.5 L 314.5 209 Z "></path><path fill="rgb(134,0,0)" stroke="rgb(134,0,0)" stroke-width="1" opacity="0.24313725490196078" d="M 357.5 209 L 360 209.5 L 357.5 210 L 357.5 209 Z "></path><path fill="rgb(134,0,0)" stroke="rgb(134,0,0)" stroke-width="1" opacity="0.24313725490196078" d="M 388.5 209 L 389 211.5 L 388 211.5 L 388.5 209 Z "></path><path fill="rgb(134,0,0)" stroke="rgb(134,0,0)" stroke-width="1" opacity="0.24313725490196078" d="M 426.5 209 L 428 216.5 L 426 217 L 426.5 209 Z "></path><path fill="rgb(134,0,0)" stroke="rgb(134,0,0)" stroke-width="1" opacity="0.24313725490196078" d="M 469.5 209 L 470 212.5 L 469 212.5 L 469.5 209 Z "></path><path fill="rgb(134,0,0)" stroke="rgb(134,0,0)" stroke-width="1" opacity="0.24313725490196078" d="M 489.5 209 L 489 210.5 L 488.5 212 L 488 210.5 L 489.5 209 Z "></path><path fill="rgb(134,0,0)" stroke="rgb(134,0,0)" stroke-width="1" opacity="0.24313725490196078" d="M 519.5 209 L 520 211.5 L 519 211.5 L 519.5 209 Z "></path><path fill="rgb(134,0,0)" stroke="rgb(134,0,0)" stroke-width="1" opacity="0.24313725490196078" d="M 539.5 209 L 542 209.5 L 539.5 210 L 539.5 209 Z "></path><path fill="rgb(134,0,0)" stroke="rgb(134,0,0)" stroke-width="1" opacity="0.24313725490196078" d="M 241.5 210 L 242 213.5 L 241 213.5 L 241.5 210 Z "></path><path fill="rgb(134,0,0)" stroke="rgb(134,0,0)" stroke-width="1" opacity="0.24313725490196078" d="M 352.5 210 L 353 212.5 L 352 212.5 L 352.5 210 Z "></path><path fill="rgb(134,0,0)" stroke="rgb(134,0,0)" stroke-width="1" opacity="0.24313725490196078" d="M 396.5 210 L 397 212.5 L 396 212.5 L 396.5 210 Z "></path><path fill="rgb(134,0,0)" stroke="rgb(134,0,0)" stroke-width="1" opacity="0.24313725490196078" d="M 534.5 210 L 535 212.5 L 534 212.5 L 534.5 210 Z "></path><path fill="rgb(134,0,0)" stroke="rgb(134,0,0)" stroke-width="1" opacity="0.24313725490196078" d="M 332.5 211 L 333 219 L 335 219.5 L 333.5 220 L 332 218.5 L 332.5 211 Z "></path><path fill="rgb(134,0,0)" stroke="rgb(134,0,0)" stroke-width="1" opacity="0.24313725490196078" d="M 357.5 211 Q 357.3 215.3 360 216.5 L 357 214.5 L 357.5 211 Z "></path><path fill="rgb(134,0,0)" stroke="rgb(134,0,0)" stroke-width="1" opacity="0.24313725490196078" d="M 400.5 211 L 401 214.5 L 400 214.5 L 400.5 211 Z "></path><path fill="rgb(134,0,0)" stroke="rgb(134,0,0)" stroke-width="1" opacity="0.24313725490196078" d="M 473.5 211 L 474 214.5 L 473 214.5 L 473.5 211 Z "></path><path fill="rgb(134,0,0)" stroke="rgb(134,0,0)" stroke-width="1" opacity="0.24313725490196078" d="M 483.5 211 L 484 213.5 L 483 213.5 L 483.5 211 Z "></path><path fill="rgb(134,0,0)" stroke="rgb(134,0,0)" stroke-width="1" opacity="0.24313725490196078" d="M 496.5 211 L 497 213.5 L 496 213.5 L 496.5 211 Z "></path><path fill="rgb(134,0,0)" stroke="rgb(134,0,0)" stroke-width="1" opacity="0.24313725490196078" d="M 500.5 211 L 501 214.5 L 500 214.5 L 500.5 211 Z "></path><path fill="rgb(134,0,0)" stroke="rgb(134,0,0)" stroke-width="1" opacity="0.24313725490196078" d="M 236.5 212 L 237 214.5 L 236 214.5 L 236.5 212 Z "></path><path fill="rgb(134,0,0)" stroke="rgb(134,0,0)" stroke-width="1" opacity="0.24313725490196078" d="M 309.5 212 L 310 213.5 L 308 214.5 L 309.5 212 Z "></path><path fill="rgb(134,0,0)" stroke="rgb(134,0,0)" stroke-width="1" opacity="0.24313725490196078" d="M 319.5 212 L 320 214.5 L 319 214.5 L 319.5 212 Z "></path><path fill="rgb(134,0,0)" stroke="rgb(134,0,0)" stroke-width="1" opacity="0.24313725490196078" d="M 434.5 212 L 435 219 L 437 219.5 L 435.5 220 L 433 213.5 L 434.5 212 Z "></path><path fill="rgb(134,0,0)" stroke="rgb(134,0,0)" stroke-width="1" opacity="0.24313725490196078" d="M 456.5 212 L 457 215.5 L 456 215.5 L 456.5 212 Z "></path><path fill="rgb(134,0,0)" stroke="rgb(134,0,0)" stroke-width="1" opacity="0.24313725490196078" d="M 539.5 212 L 542 216.5 L 539 214.5 L 539.5 212 Z "></path><path fill="rgb(134,0,0)" stroke="rgb(134,0,0)" stroke-width="1" opacity="0.24313725490196078" d="M 279.5 213 L 280 215.5 L 279 215.5 L 279.5 213 Z "></path><path fill="rgb(134,0,0)" stroke="rgb(134,0,0)" stroke-width="1" opacity="0.24313725490196078" d="M 281.5 213 L 284 217.5 L 281 215.5 L 281.5 213 Z "></path><path fill="rgb(134,0,0)" stroke="rgb(134,0,0)" stroke-width="1" opacity="0.24313725490196078" d="M 323.5 213 L 324.5 216 L 326.5 215 L 326.5 216 L 325 216.5 L 327 217.5 L 324.5 219 L 324.5 217 Q 321 217.8 323.5 213 Z "></path><path fill="rgb(134,0,0)" stroke="rgb(134,0,0)" stroke-width="1" opacity="0.24313725490196078" d="M 383.5 213 L 384 215.5 L 383 215.5 L 383.5 213 Z "></path><path fill="rgb(134,0,0)" stroke="rgb(134,0,0)" stroke-width="1" opacity="0.24313725490196078" d="M 460.5 213 L 461.5 216 L 463.5 215 L 463.5 216 L 462 216.5 L 464 217.5 L 461.5 219 L 461.5 217 Q 458 217.8 460.5 213 Z "></path><path fill="rgb(134,0,0)" stroke="rgb(134,0,0)" stroke-width="1" opacity="0.24313725490196078" d="M 266.5 214 L 267 216 L 269 216.5 L 267.5 217 L 266.5 214 Z "></path><path fill="rgb(134,0,0)" stroke="rgb(134,0,0)" stroke-width="1" opacity="0.24313725490196078" d="M 387.5 214 L 388.5 216 L 390.5 215 Q 393.5 216.5 390.5 218 L 390.5 216 L 387 217 L 387.5 214 Z "></path><path fill="rgb(134,0,0)" stroke="rgb(134,0,0)" stroke-width="1" opacity="0.24313725490196078" d="M 421.5 214 L 422 217.5 L 421 217.5 L 421.5 214 Z "></path><path fill="rgb(134,0,0)" stroke="rgb(134,0,0)" stroke-width="1" opacity="0.24313725490196078" d="M 443.5 214 L 442.5 216 L 439.5 217 L 439.5 216 L 443.5 214 Z "></path><path fill="rgb(134,0,0)" stroke="rgb(134,0,0)" stroke-width="1" opacity="0.24313725490196078" d="M 446.5 214 L 443.5 218 L 446.5 214 Z "></path><path fill="rgb(134,0,0)" stroke="rgb(134,0,0)" stroke-width="1" opacity="0.24313725490196078" d="M 468.5 214 L 470 219.5 L 468 218.5 L 468.5 214 Z "></path><path fill="rgb(134,0,0)" stroke="rgb(134,0,0)" stroke-width="1" opacity="0.24313725490196078" d="M 518.5 214 L 519 216.5 L 518 216.5 L 518.5 214 Z "></path><path fill="rgb(134,0,0)" stroke="rgb(134,0,0)" stroke-width="1" opacity="0.24313725490196078" d="M 522.5 214 L 523 220 L 519 219.5 L 522 219 L 522.5 214 Z "></path><path fill="rgb(134,0,0)" stroke="rgb(134,0,0)" stroke-width="1" opacity="0.24313725490196078" d="M 240.5 215 L 241 217 L 244 217.5 L 241.5 218 L 240.5 215 Z "></path><path fill="rgb(134,0,0)" stroke="rgb(134,0,0)" stroke-width="1" opacity="0.24313725490196078" d="M 274.5 215 L 273.5 217 L 271 216.5 L 274.5 215 Z "></path><path fill="rgb(134,0,0)" stroke="rgb(134,0,0)" stroke-width="1" opacity="0.24313725490196078" d="M 276.5 215 L 277 216.5 L 275 217.5 L 276.5 215 Z "></path><path fill="rgb(134,0,0)" stroke="rgb(134,0,0)" stroke-width="1" opacity="0.24313725490196078" d="M 353.5 215 L 356.5 219 L 358 219.5 L 356.5 220 L 353 216.5 L 353.5 215 Z "></path><path fill="rgb(134,0,0)" stroke="rgb(134,0,0)" stroke-width="1" opacity="0.24313725490196078" d="M 365.5 215 L 367.5 216 L 369 215.5 Q 369.8 217.8 367.5 217 L 361.5 220 L 361.5 219 L 367 216.5 L 365.5 216 L 363.5 217 L 363.5 216 L 365.5 215 Z "></path><path fill="rgb(134,0,0)" stroke="rgb(134,0,0)" stroke-width="1" opacity="0.24313725490196078" d="M 395.5 215 L 396 219 L 398 219.5 L 396.5 220 Q 393.8 218.8 395.5 215 Z "></path><path fill="rgb(134,0,0)" stroke="rgb(134,0,0)" stroke-width="1" opacity="0.24313725490196078" d="M 432.5 215 L 429.5 219 L 426.5 220 L 426.5 219 L 432.5 215 Z "></path><path fill="rgb(134,0,0)" stroke="rgb(134,0,0)" stroke-width="1" opacity="0.24313725490196078" d="M 495.5 215 L 496 219.5 L 495 219.5 L 495.5 215 Z "></path><path fill="rgb(134,0,0)" stroke="rgb(134,0,0)" stroke-width="1" opacity="0.24313725490196078" d="M 502.5 215 Q 504.8 214.3 504 216.5 L 498.5 220 L 498.5 219 L 503 216.5 L 502.5 215 Z "></path><path fill="rgb(134,0,0)" stroke="rgb(134,0,0)" stroke-width="1" opacity="0.24313725490196078" d="M 535.5 215 L 538.5 219 L 540 219.5 L 538.5 220 L 535 216.5 L 535.5 215 Z "></path><path fill="rgb(134,0,0)" stroke="rgb(134,0,0)" stroke-width="1" opacity="0.24313725490196078" d="M 547.5 215 L 549.5 216 L 551 215.5 Q 549 219.5 543.5 220 L 543.5 219 L 549 216.5 L 547.5 216 L 545.5 217 L 545.5 216 L 547.5 215 Z "></path><path fill="rgb(134,0,0)" stroke="rgb(134,0,0)" stroke-width="1" opacity="0.24313725490196078" d="M 235.5 216 L 234.5 218 L 232 217.5 L 235.5 216 Z "></path><path fill="rgb(134,0,0)" stroke="rgb(134,0,0)" stroke-width="1" opacity="0.24313725490196078" d="M 251.5 216 Q 253.3 220.3 260 219.5 L 254.5 220 L 251.5 216 Z "></path><path fill="rgb(134,0,0)" stroke="rgb(134,0,0)" stroke-width="1" opacity="0.24313725490196078" d="M 292.5 216 L 290.5 219 L 292.5 216 Z "></path><path fill="rgb(134,0,0)" stroke="rgb(134,0,0)" stroke-width="1" opacity="0.24313725490196078" d="M 306.5 216 L 305.5 218 L 302 217.5 L 306.5 216 Z "></path><path fill="rgb(134,0,0)" stroke="rgb(134,0,0)" stroke-width="1" opacity="0.24313725490196078" d="M 311.5 216 L 310.5 218 L 308.5 219 L 309.5 217 L 311.5 216 Z "></path><path fill="rgb(134,0,0)" stroke="rgb(134,0,0)" stroke-width="1" opacity="0.24313725490196078" d="M 400.5 216 L 401.5 218 L 400.5 216 Z "></path><path fill="rgb(134,0,0)" stroke="rgb(134,0,0)" stroke-width="1" opacity="0.24313725490196078" d="M 403.5 216 Q 406.8 214.9 406 217.5 L 400.5 220 L 400.5 219 L 405 217.5 L 403.5 216 Z "></path><path fill="rgb(134,0,0)" stroke="rgb(134,0,0)" stroke-width="1" opacity="0.24313725490196078" d="M 476.5 216 Q 479.8 214.9 479 217.5 L 473.5 220 L 473.5 219 L 478 217.5 L 476.5 216 Z "></path><path fill="rgb(134,0,0)" stroke="rgb(134,0,0)" stroke-width="1" opacity="0.24313725490196078" d="M 482.5 216 L 483 219.5 L 482 219.5 L 482.5 216 Z "></path><path fill="rgb(134,0,0)" stroke="rgb(134,0,0)" stroke-width="1" opacity="0.24313725490196078" d="M 297.5 217 L 301 219.5 L 299.5 220 L 297.5 217 Z "></path><path fill="rgb(134,0,0)" stroke="rgb(134,0,0)" stroke-width="1" opacity="0.24313725490196078" d="M 318.5 217 L 320 219.5 L 318 220 L 318.5 217 Z "></path><path fill="rgb(134,0,0)" stroke="rgb(134,0,0)" stroke-width="1" opacity="0.24313725490196078" d="M 455.5 217 L 457 219.5 L 455 220 L 455.5 217 Z "></path><path fill="rgb(134,0,0)" stroke="rgb(134,0,0)" stroke-width="1" opacity="0.24313725490196078" d="M 568.5 217 L 569 218.5 Q 567.5 221.5 561.5 220 L 561.5 219 Q 568.8 220.5 568.5 217 Z "></path><path fill="rgb(134,0,0)" stroke="rgb(134,0,0)" stroke-width="1" opacity="0.24313725490196078" d="M 339.5 218 L 338.5 220 L 336 219.5 L 339.5 218 Z "></path><path fill="rgb(134,0,0)" stroke="rgb(134,0,0)" stroke-width="1" opacity="0.24313725490196078" d="M 382.5 218 L 383.5 220 L 382.5 218 Z "></path><path fill="rgb(134,0,0)" stroke="rgb(134,0,0)" stroke-width="1" opacity="0.24313725490196078" d="M 441.5 218 L 440.5 220 L 439 219.5 L 441.5 218 Z "></path><path fill="rgb(134,0,0)" stroke="rgb(134,0,0)" stroke-width="1" opacity="0.24313725490196078" d="M 554.5 218 L 560 218.5 L 552.5 220 L 552.5 219 L 554.5 218 Z "></path><path fill="rgb(134,0,0)" stroke="rgb(134,0,0)" stroke-width="1" opacity="0.24313725490196078" d="M 186.5 219 L 184.5 222 L 186.5 219 Z "></path><path fill="rgb(134,0,0)" stroke="rgb(134,0,0)" stroke-width="1" opacity="0.24313725490196078" d="M 232.5 219 L 244 219.5 L 232.5 220 L 232.5 219 Z "></path><path fill="rgb(134,0,0)" stroke="rgb(134,0,0)" stroke-width="1" opacity="0.24313725490196078" d="M 280.5 219 L 283 219.5 L 280.5 220 L 280.5 219 Z "></path><path fill="rgb(134,0,0)" stroke="rgb(134,0,0)" stroke-width="1" opacity="0.24313725490196078" d="M 304.5 219 L 307 219.5 L 304.5 220 L 304.5 219 Z "></path><path fill="rgb(134,0,0)" stroke="rgb(134,0,0)" stroke-width="1" opacity="0.24313725490196078" d="M 484.5 219 L 487 219.5 L 484.5 220 L 484.5 219 Z "></path><path fill="rgb(134,0,0)" stroke="rgb(134,0,0)" stroke-width="1" opacity="0.24313725490196078" d="M 182.5 222 L 181.5 224 L 176.5 227 L 177.5 225 L 182.5 222 Z "></path><path fill="rgb(134,0,0)" stroke="rgb(134,0,0)" stroke-width="1" opacity="0.24313725490196078" d="M 174.5 227 L 173.5 229 L 164.5 233 L 164.5 232 L 174.5 227 Z "></path><path fill="rgb(134,0,0)" stroke="rgb(134,0,0)" stroke-width="1" opacity="0.24313725490196078" d="M 61.5 230 L 72 235.5 L 70.5 236 L 62.5 232 L 61.5 230 Z "></path><path fill="rgb(134,0,0)" stroke="rgb(134,0,0)" stroke-width="1" opacity="0.24313725490196078" d="M 159.5 234 L 161 234.5 L 157.5 236 L 157.5 235 L 159.5 234 Z "></path><path fill="rgb(134,0,0)" stroke="rgb(134,0,0)" stroke-width="1" opacity="0.24313725490196078" d="M 73.5 236 L 77 237.5 L 75.5 238 L 73.5 236 Z "></path><path fill="rgb(134,0,0)" stroke="rgb(134,0,0)" stroke-width="1" opacity="0.24313725490196078" d="M 144.5 239 L 147 239.5 L 144.5 240 L 144.5 239 Z "></path><path fill="rgb(134,0,0)" stroke="rgb(134,0,0)" stroke-width="1" opacity="0.24313725490196078" d="M 140.5 240 L 143 240.5 L 140.5 241 L 140.5 240 Z "></path><path fill="rgb(134,0,0)" stroke="rgb(134,0,0)" stroke-width="1" opacity="0.24313725490196078" d="M 89.5 241 L 92 241.5 L 89.5 242 L 89.5 241 Z "></path><path fill="rgb(134,0,0)" stroke="rgb(134,0,0)" stroke-width="1" opacity="0.24313725490196078" d="M 135.5 241 L 139 241.5 L 135.5 242 L 135.5 241 Z "></path><path fill="rgb(134,0,0)" stroke="rgb(134,0,0)" stroke-width="1" opacity="0.24313725490196078" d="M 94.5 242 L 98 242.5 L 94.5 243 L 94.5 242 Z "></path><path fill="rgb(134,0,0)" stroke="rgb(134,0,0)" stroke-width="1" opacity="0.24313725490196078" d="M 129.5 242 L 133 242.5 L 129.5 243 L 129.5 242 Z "></path><path fill="rgb(134,0,0)" stroke="rgb(134,0,0)" stroke-width="1" opacity="0.24313725490196078" d="M 103.5 243 L 124 243.5 L 103.5 244 L 103.5 243 Z "></path><path fill="rgb(0,0,0)" stroke="rgb(0,0,0)" stroke-width="1" opacity="0" d="M 0 0 L 584 0 L 584 256 L 0 256 L 0 0 Z M 134 12 L 133 13 L 123 13 L 113 15 L 92 22 Q 72 31 58 44 Q 40 60 27 82 L 17 105 L 12 132 L 12 153 L 16 175 Q 23 196 36 211 Q 50 227 71 236 L 90 242 L 103 243 L 104 244 L 133 243 L 159 236 Q 183 226 200 209 Q 201 203 199 202 L 188 204 Q 180 199 178 190 L 186 187 L 203 174 L 222 149 L 231 127 L 234 112 L 234 85 L 232 74 Q 227 55 216 43 Q 203 26 182 18 L 168 14 L 156 13 L 155 12 L 134 12 Z M 328 184 Q 326 187 322 186 L 320 189 L 324 190 L 318 220 Q 324 221 327 218 Q 329 214 326 215 L 324 216 L 329 190 Q 330 183 328 184 Z M 492 184 L 484 188 Q 483 191 487 189 L 485 206 L 482 217 L 482 220 L 487 220 Q 487 210 493 205 L 497 202 L 498 202 L 495 220 L 502 219 L 504 215 L 502 216 L 500 216 L 503 205 Q 504 198 502 197 L 496 198 L 490 203 L 493 190 Q 494 183 492 184 Z M 239 186 L 238 189 L 241 191 L 236 216 L 232 217 L 233 220 L 244 220 Q 246 216 241 217 L 244 203 L 251 217 Q 253 222 260 220 Q 262 216 257 217 L 250 205 L 256 202 Q 259 199 258 192 L 253 187 L 240 187 L 239 186 Z M 390 186 L 387 191 L 391 193 Q 394 192 393 188 L 390 186 Z M 463 186 Q 459 187 460 192 L 464 193 Q 467 192 466 188 L 463 186 Z M 399 192 L 399 198 L 395 198 Q 394 201 398 200 L 395 216 Q 394 219 397 220 L 405 219 L 406 216 L 403 217 L 400 216 L 403 200 L 406 201 Q 409 202 408 200 L 409 198 L 404 198 L 404 192 L 399 192 Z M 472 192 L 472 198 L 468 198 Q 467 201 471 200 L 468 215 Q 467 219 470 220 L 478 219 L 479 216 L 473 217 L 476 200 L 481 201 Q 483 196 477 198 L 477 192 L 472 192 Z M 270 197 L 268 198 Q 263 201 261 208 Q 259 217 265 220 Q 272 221 276 218 L 277 215 L 271 217 L 267 216 L 266 210 L 276 208 Q 280 207 279 201 Q 278 196 270 197 Z M 287 197 L 281 202 L 281 206 L 289 214 L 289 216 L 286 218 L 282 216 Q 283 211 279 213 L 278 219 L 281 220 Q 287 221 291 219 L 294 215 L 293 210 L 286 204 Q 284 198 291 200 L 292 203 L 295 203 L 295 198 Q 293 196 287 197 Z M 306 197 L 300 200 L 296 209 Q 294 218 300 220 Q 307 221 311 218 L 315 212 Q 317 203 314 200 Q 312 196 306 197 Z M 336 197 L 330 201 Q 329 203 333 202 L 334 202 L 332 212 Q 330 218 334 220 Q 340 221 342 218 Q 351 211 352 197 L 345 198 L 347 203 L 342 214 L 337 216 L 339 204 L 339 197 L 336 197 Z M 362 197 L 358 199 L 353 206 L 352 211 L 353 217 L 357 220 Q 365 222 368 217 Q 370 218 369 215 L 361 217 L 358 215 L 357 211 L 367 208 Q 371 207 370 200 Q 368 196 362 197 Z M 389 197 L 384 200 Q 381 199 382 202 L 386 203 L 383 218 Q 381 219 384 220 Q 390 221 392 217 L 390 215 L 388 216 L 391 202 Q 393 196 389 197 Z M 425 197 L 419 201 Q 418 203 422 202 L 423 202 L 422 214 L 421 215 L 422 220 L 430 219 L 434 214 Q 433 219 436 220 Q 442 221 444 218 Q 451 212 454 202 Q 455 198 453 197 L 447 198 L 448 201 L 448 207 L 444 214 L 439 216 L 441 197 L 436 198 L 436 200 Q 436 209 431 214 L 427 216 L 427 207 L 428 206 L 428 197 L 425 197 Z M 462 197 L 455 200 Q 454 203 458 202 L 455 220 Q 461 221 464 218 Q 465 214 463 215 L 461 216 L 464 201 Q 466 196 462 197 Z M 524 197 L 519 200 Q 516 199 517 202 L 521 203 L 517 219 L 518 220 L 523 220 L 523 214 L 528 204 L 534 203 L 535 197 L 530 198 L 526 203 L 526 202 Q 528 196 524 197 Z M 544 197 L 540 199 L 535 206 L 534 211 L 535 217 L 539 220 L 548 219 L 551 215 L 543 217 Q 539 215 539 210 L 549 208 Q 553 207 552 200 Q 550 196 544 197 Z M 557 197 L 554 204 Q 558 205 557 202 L 565 203 L 552 218 L 552 220 L 555 219 L 568 220 L 570 213 Q 566 212 567 215 L 559 215 L 572 198 L 568 199 L 557 197 Z "></path><path fill="rgb(0,0,0)" stroke="rgb(0,0,0)" stroke-width="1" opacity="0" d="M 246 190 L 252 191 L 253 196.5 L 251 201 L 244 202 L 246 190 Z "></path><path fill="rgb(0,0,0)" stroke="rgb(0,0,0)" stroke-width="1" opacity="0" d="M 270.5 200 L 274 201.5 L 271.5 206 L 267 207 Q 266.9 202.1 270.5 200 Z "></path><path fill="rgb(0,0,0)" stroke="rgb(0,0,0)" stroke-width="1" opacity="0" d="M 306.5 200 L 310 201.5 Q 311.4 211.8 308 216 L 302 217 L 301 208.5 Q 302.3 202.8 306.5 200 Z "></path><path fill="rgb(0,0,0)" stroke="rgb(0,0,0)" stroke-width="1" opacity="0" d="M 361.5 200 Q 366.8 198.3 365 203.5 Q 362.9 207.1 358 207 L 361.5 200 Z "></path><path fill="rgb(0,0,0)" stroke="rgb(0,0,0)" stroke-width="1" opacity="0" d="M 543.5 200 Q 548.8 198.3 547 203.5 Q 544.9 207.1 540 207 L 543.5 200 Z "></path><path fill="rgb(143,2,0)" stroke="rgb(143,2,0)" stroke-width="1" opacity="0.9882352941176471" d="M 127.5 13 L 158.5 13 L 179.5 18 Q 201.4 26.1 215 42.5 Q 225.9 54.6 231 72.5 L 233 81.5 L 233 114.5 Q 229.2 135.2 220 150.5 L 204 172 L 191.5 182 L 177 190 Q 179.4 198.8 186.5 204 L 189.5 205 Q 192.8 202 199 203 L 200 207.5 Q 182.8 226.3 156.5 236 L 128.5 243 L 98.5 243 Q 58.4 236.1 37 210.5 Q 23.9 196.1 17 175.5 L 13 156.5 L 13 127.5 L 17 107.5 Q 21.3 91.8 29 79.5 Q 40.8 59.8 57.5 45 Q 72.9 30.9 93.5 22 L 107.5 17 L 127.5 13 Z M 130 31 L 112 35 L 102 39 L 82 52 L 144 53 Q 155 55 162 62 Q 168 68 170 79 Q 171 97 162 107 Q 152 118 136 122 L 136 125 L 162 168 L 168 172 Q 177 173 182 168 Q 195 157 202 140 L 209 113 L 209 89 L 207 80 Q 203 64 193 54 Q 183 41 167 35 L 151 31 L 130 31 Z M 76 60 L 72 61 Q 45 85 38 128 L 38 156 L 41 170 L 48 186 L 55 196 Q 71 218 105 224 L 131 224 Q 132 222 138 223 Q 151 221 161 214 L 163 211 L 163 205 L 158 195 L 116 124 L 115 119 L 120 116 L 130 115 L 139 111 Q 148 105 150 92 Q 152 76 146 69 Q 142 63 135 61 L 120 60 L 99 169 L 100 175 L 112 179 L 113 180 L 113 185 L 108 184 L 68 184 L 67 185 L 65 185 L 65 179 L 78 175 L 81 172 L 82 168 L 101 67 L 100 63 L 96 60 L 76 60 Z "></path><path fill="rgb(143,2,0)" stroke="rgb(143,2,0)" stroke-width="1" opacity="0.9882352941176471" d="M 327.5 185 Q 329.8 184.3 329 186.5 L 323 217 L 326.5 216 L 326.5 217 L 320.5 220 Q 318.3 219.3 319 215.5 L 324 194.5 L 324 188 L 321 187.5 L 327.5 185 Z "></path><path fill="rgb(143,2,0)" stroke="rgb(143,2,0)" stroke-width="1" opacity="0.9882352941176471" d="M 490.5 185 Q 493.3 184.4 492 190.5 L 489 205.5 L 491 204.5 L 495.5 199 L 502 198 L 503 200.5 L 500 211.5 L 500 216.5 L 501.5 216 L 503 216.5 L 496 220 L 499 201 Q 493.4 200 492 204.5 L 488 210.5 L 487 219 L 483.5 220 L 483 214.5 L 488 193.5 L 488 188 L 485 187.5 L 490.5 185 Z "></path><path fill="rgb(143,2,0)" stroke="rgb(143,2,0)" stroke-width="1" opacity="0.9882352941176471" d="M 238.5 187 Q 252.1 184.9 257 191.5 L 258 195.5 L 256 201 L 249 204.5 L 256 217 L 260 218.5 L 254.5 219 L 251 215.5 L 245 203 L 252 201 Q 253.7 198.6 253 192.5 L 252 190 L 245 189 L 240 216.5 L 244 218.5 L 232.5 219 L 232.5 218 L 236 216.5 L 241 194.5 L 241 189 L 238.5 187 Z "></path><path fill="rgb(143,2,0)" stroke="rgb(143,2,0)" stroke-width="1" opacity="0.9882352941176471" d="M 389.5 187 L 393 188.5 L 390.5 192 Q 386.3 193.3 388 188.5 L 389.5 187 Z "></path><path fill="rgb(143,2,0)" stroke="rgb(143,2,0)" stroke-width="1" opacity="0.9882352941176471" d="M 462.5 187 Q 466.7 185.7 465 190.5 L 461 192 Q 460 188.2 462.5 187 Z "></path><path fill="rgb(143,2,0)" stroke="rgb(143,2,0)" stroke-width="1" opacity="0.9882352941176471" d="M 403.5 192 L 404 194.5 L 403 198 L 408 198 L 408 200 L 402 200 L 402 205.5 L 400 211.5 L 400 216.5 Q 401.2 219.3 402.5 217 L 405 217.5 L 398.5 220 L 396 219 L 399 200 Q 394.9 201.3 396 198 L 400 196.5 Q 398.3 191.7 402.5 193 L 403.5 192 Z "></path><path fill="rgb(143,2,0)" stroke="rgb(143,2,0)" stroke-width="1" opacity="0.9882352941176471" d="M 475.5 192 Q 478.3 193.3 476 194.5 L 476 198 L 481 198 L 481 200 L 475 200 L 475 204.5 L 474 205.5 L 473 216.5 Q 474.3 219.3 475.5 217 L 478 217.5 L 470.5 220 Q 467.8 218.8 469 213.5 L 472 200 Q 467.9 201.3 469 198 Q 472.7 199.5 472 196.5 L 473 193 L 475.5 192 Z "></path><path fill="rgb(143,2,0)" stroke="rgb(143,2,0)" stroke-width="1" opacity="0.9882352941176471" d="M 269.5 198 Q 276.5 196.5 278 200.5 Q 279 206 275.5 207 Q 272.6 209.6 266.5 209 L 265 210.5 L 267.5 217 Q 274 218.5 275.5 215 L 276 216.5 Q 273.3 219.8 267.5 220 L 263 217.5 Q 260.5 214 262 206.5 L 267.5 199 L 269.5 198 Z M 271 199 Q 266 202 266 208 L 273 206 Q 275 205 274 201 L 271 199 Z "></path><path fill="rgb(143,2,0)" stroke="rgb(143,2,0)" stroke-width="1" opacity="0.9882352941176471" d="M 285.5 198 L 294 198 L 294 202.5 L 292 201.5 L 290.5 199 Q 286 198 285 200.5 Q 284.3 206.3 288.5 207 L 292 209.5 L 293 215.5 Q 290.8 220.3 283.5 220 L 279 219 L 280.5 213 L 283.5 218 Q 289 219 290 215.5 L 290 213.5 L 282 205.5 L 282 201.5 L 285.5 198 Z "></path><path fill="rgb(143,2,0)" stroke="rgb(143,2,0)" stroke-width="1" opacity="0.9882352941176471" d="M 305.5 198 Q 312.5 196.5 314 200.5 L 315 208.5 L 310.5 217 Q 307.5 220 301.5 220 L 297 216.5 L 297 207.5 L 303.5 199 L 305.5 198 Z M 307 199 L 304 200 L 301 206 L 301 216 L 302 217 Q 301 220 306 218 L 311 211 Q 312 204 310 201 L 307 199 Z "></path><path fill="rgb(143,2,0)" stroke="rgb(143,2,0)" stroke-width="1" opacity="0.9882352941176471" d="M 334.5 198 L 338 198 L 338 205.5 L 337 206.5 L 337 217 L 343 213.5 L 347 206.5 L 347 200.5 L 346 198 L 351 198 L 351 202.5 Q 347.7 212.2 340.5 218 L 335.5 220 L 333 219 L 334 201 L 331 200.5 L 334.5 198 Z "></path><path fill="rgb(143,2,0)" stroke="rgb(143,2,0)" stroke-width="1" opacity="0.9882352941176471" d="M 360.5 198 Q 367.3 196.3 369 199.5 L 370 202.5 L 365.5 208 L 357 209 Q 355.5 215.3 359.5 217 Q 365.5 218 367.5 215 L 365.5 218 L 358.5 220 L 354 216.5 L 353 208.5 L 357 200 L 360.5 198 Z M 363 199 L 361 200 L 357 208 L 363 207 Q 367 206 366 201 L 363 199 Z "></path><path fill="rgb(143,2,0)" stroke="rgb(143,2,0)" stroke-width="1" opacity="0.9882352941176471" d="M 387.5 198 L 390 198 L 390 203.5 L 387 217 L 390.5 216 L 389.5 218 L 384.5 220 L 383 216.5 L 386 201 L 383.5 202 L 383 200 L 387.5 198 Z "></path><path fill="rgb(143,2,0)" stroke="rgb(143,2,0)" stroke-width="1" opacity="0.9882352941176471" d="M 424.5 198 Q 429.3 196.3 428 200.5 L 427 201.5 L 426 217 L 432 213.5 Q 437.3 208.5 436 198 L 440 198 L 440 206.5 L 439 207.5 L 439 217 L 444 214.5 Q 449.2 210.2 449 200.5 L 448 198 L 453 198 L 453 202.5 Q 449.7 212.2 442.5 218 L 437.5 220 L 435 219 L 434.5 212 L 429.5 218 L 424.5 220 L 422 219 L 423 203.5 L 424 201 L 420.5 202 L 420 200 L 424.5 198 Z "></path><path fill="rgb(143,2,0)" stroke="rgb(143,2,0)" stroke-width="1" opacity="0.9882352941176471" d="M 460.5 198 Q 465.1 196.7 463 202.5 L 460 217 L 463.5 216 L 463.5 217 L 457.5 220 L 456 216.5 L 459 201 L 456.5 202 L 456 200 L 460.5 198 Z "></path><path fill="rgb(143,2,0)" stroke="rgb(143,2,0)" stroke-width="1" opacity="0.9882352941176471" d="M 523.5 198 L 526 198.5 L 524 205.5 L 526 204.5 L 529.5 199 L 534 198 Q 535 201.8 532.5 203 L 530.5 202 L 527 204.5 Q 522 209.8 522 219 L 518.5 220 L 518 217.5 L 521 206.5 L 521 201 L 518.5 202 L 520.5 199 L 523.5 198 Z "></path><path fill="rgb(143,2,0)" stroke="rgb(143,2,0)" stroke-width="1" opacity="0.9882352941176471" d="M 542.5 198 Q 549.3 196.3 551 199.5 L 552 202.5 L 548.5 207 L 539 209 Q 537.5 215.3 541.5 217 Q 547.5 218 549.5 215 L 547.5 218 L 540.5 220 L 536 216.5 L 535 208.5 L 539.5 200 L 542.5 198 Z M 545 199 L 543 200 L 539 208 L 545 207 Q 549 206 548 201 L 545 199 Z "></path><path fill="rgb(143,2,0)" stroke="rgb(143,2,0)" stroke-width="1" opacity="0.9882352941176471" d="M 556 198 L 569.5 199 L 571 198.5 L 557 215.5 L 567 216 L 568.5 213 L 569 216.5 L 568 219 L 554.5 218 L 552.5 219 L 556 214.5 L 566 202.5 L 557.5 201 L 555 202.5 L 556 198 Z "></path><path fill="rgb(254,184,24)" stroke="rgb(254,184,24)" stroke-width="1" opacity="1" d="M 129.5 31 L 136 31.5 L 129.5 32 L 129.5 31 Z "></path><path fill="rgb(254,184,24)" stroke="rgb(254,184,24)" stroke-width="1" opacity="1" d="M 140.5 31 L 151 31.5 L 140.5 32 L 140.5 31 Z "></path><path fill="rgb(254,184,24)" stroke="rgb(254,184,24)" stroke-width="1" opacity="1" d="M 123.5 32 L 126 32.5 L 123.5 33 L 123.5 32 Z "></path><path fill="rgb(254,184,24)" stroke="rgb(254,184,24)" stroke-width="1" opacity="1" d="M 118.5 33 L 121 33.5 L 118.5 34 L 118.5 33 Z "></path><path fill="rgb(254,184,24)" stroke="rgb(254,184,24)" stroke-width="1" opacity="1" d="M 170.5 37 L 177 40.5 L 175.5 40 L 170.5 38 L 170.5 37 Z "></path><path fill="rgb(254,184,24)" stroke="rgb(254,184,24)" stroke-width="1" opacity="1" d="M 101.5 39 L 103 39.5 L 94.5 44 L 95.5 42 L 101.5 39 Z "></path><path fill="rgb(254,184,24)" stroke="rgb(254,184,24)" stroke-width="1" opacity="1" d="M 178.5 41 L 179.5 43 L 178.5 41 Z "></path><path fill="rgb(254,184,24)" stroke="rgb(254,184,24)" stroke-width="1" opacity="1" d="M 181.5 43 L 183.5 46 L 181.5 43 Z "></path><path fill="rgb(254,184,24)" stroke="rgb(254,184,24)" stroke-width="1" opacity="1" d="M 92.5 44 L 91.5 46 L 85.5 50 L 87.5 47 L 92.5 44 Z "></path><path fill="rgb(254,184,24)" stroke="rgb(254,184,24)" stroke-width="1" opacity="1" d="M 185.5 46 L 192.5 54 L 185.5 46 Z "></path><path fill="rgb(254,184,24)" stroke="rgb(254,184,24)" stroke-width="1" opacity="1" d="M 83.5 50 L 82.5 52 L 83.5 50 Z "></path><path fill="rgb(254,184,24)" stroke="rgb(254,184,24)" stroke-width="1" opacity="1" d="M 115.5 52 L 140 52.5 L 115.5 53 L 115.5 52 Z "></path><path fill="rgb(254,184,24)" stroke="rgb(254,184,24)" stroke-width="1" opacity="1" d="M 193.5 55 L 196.5 59 L 193.5 55 Z "></path><path fill="rgb(254,184,24)" stroke="rgb(254,184,24)" stroke-width="1" opacity="1" d="M 153.5 56 L 157 58.5 L 155.5 58 L 153.5 56 Z "></path><path fill="rgb(254,184,24)" stroke="rgb(254,184,24)" stroke-width="1" opacity="1" d="M 158.5 59 L 160.5 62 L 158.5 59 Z "></path><path fill="rgb(254,184,24)" stroke="rgb(254,184,24)" stroke-width="1" opacity="1" d="M 75.5 60 L 96 60.5 L 75.5 61 L 75.5 60 Z "></path><path fill="rgb(254,184,24)" stroke="rgb(254,184,24)" stroke-width="1" opacity="1" d="M 120.5 60 L 128 60.5 L 120.5 61 L 120.5 60 Z "></path><path fill="rgb(254,184,24)" stroke="rgb(254,184,24)" stroke-width="1" opacity="1" d="M 197.5 60 L 198.5 62 L 197.5 60 Z "></path><path fill="rgb(254,184,24)" stroke="rgb(254,184,24)" stroke-width="1" opacity="1" d="M 71.5 61 L 65.5 68 L 71.5 61 Z "></path><path fill="rgb(254,184,24)" stroke="rgb(254,184,24)" stroke-width="1" opacity="1" d="M 98.5 61 L 99.5 63 L 98.5 61 Z "></path><path fill="rgb(254,184,24)" stroke="rgb(254,184,24)" stroke-width="1" opacity="1" d="M 132.5 61 L 135 61.5 L 132.5 62 L 132.5 61 Z "></path><path fill="rgb(254,184,24)" stroke="rgb(254,184,24)" stroke-width="1" opacity="1" d="M 119.5 62 L 120 64.5 L 119 64.5 L 119.5 62 Z "></path><path fill="rgb(254,184,24)" stroke="rgb(254,184,24)" stroke-width="1" opacity="1" d="M 139.5 63 L 140.5 65 L 139.5 63 Z "></path><path fill="rgb(254,184,24)" stroke="rgb(254,184,24)" stroke-width="1" opacity="1" d="M 100.5 64 L 101 66.5 L 100 66.5 L 100.5 64 Z "></path><path fill="rgb(254,184,24)" stroke="rgb(254,184,24)" stroke-width="1" opacity="1" d="M 163.5 64 L 165.5 67 L 163.5 64 Z "></path><path fill="rgb(254,184,24)" stroke="rgb(254,184,24)" stroke-width="1" opacity="1" d="M 142.5 65 L 145.5 69 L 142.5 65 Z "></path><path fill="rgb(254,184,24)" stroke="rgb(254,184,24)" stroke-width="1" opacity="1" d="M 200.5 65 L 203 69.5 L 202 69.5 L 200.5 65 Z "></path><path fill="rgb(254,184,24)" stroke="rgb(254,184,24)" stroke-width="1" opacity="1" d="M 118.5 67 L 119 69.5 L 118 69.5 L 118.5 67 Z "></path><path fill="rgb(254,184,24)" stroke="rgb(254,184,24)" stroke-width="1" opacity="1" d="M 166.5 68 L 168 70.5 L 167 70.5 L 166.5 68 Z "></path><path fill="rgb(254,184,24)" stroke="rgb(254,184,24)" stroke-width="1" opacity="1" d="M 64.5 69 L 61.5 73 L 64.5 69 Z "></path><path fill="rgb(254,184,24)" stroke="rgb(254,184,24)" stroke-width="1" opacity="1" d="M 99.5 70 L 100 73.5 L 99 73.5 L 99.5 70 Z "></path><path fill="rgb(254,184,24)" stroke="rgb(254,184,24)" stroke-width="1" opacity="1" d="M 146.5 70 L 148 72.5 L 147 72.5 L 146.5 70 Z "></path><path fill="rgb(254,184,24)" stroke="rgb(254,184,24)" stroke-width="1" opacity="1" d="M 117.5 73 L 118 75.5 L 117 75.5 L 117.5 73 Z "></path><path fill="rgb(254,184,24)" stroke="rgb(254,184,24)" stroke-width="1" opacity="1" d="M 60.5 74 L 58.5 77 L 60.5 74 Z "></path><path fill="rgb(254,184,24)" stroke="rgb(254,184,24)" stroke-width="1" opacity="1" d="M 169.5 75 L 170 77.5 L 169 77.5 L 169.5 75 Z "></path><path fill="rgb(254,184,24)" stroke="rgb(254,184,24)" stroke-width="1" opacity="1" d="M 98.5 76 L 99 78.5 L 98 78.5 L 98.5 76 Z "></path><path fill="rgb(254,184,24)" stroke="rgb(254,184,24)" stroke-width="1" opacity="1" d="M 149.5 77 L 150 91.5 L 149 91.5 L 149.5 77 Z "></path><path fill="rgb(254,184,24)" stroke="rgb(254,184,24)" stroke-width="1" opacity="1" d="M 57.5 78 L 56.5 80 L 57.5 78 Z "></path><path fill="rgb(254,184,24)" stroke="rgb(254,184,24)" stroke-width="1" opacity="1" d="M 116.5 78 L 117 80.5 L 116 80.5 L 116.5 78 Z "></path><path fill="rgb(254,184,24)" stroke="rgb(254,184,24)" stroke-width="1" opacity="1" d="M 55.5 81 L 55 82.5 L 53.5 85 L 54 83.5 L 55.5 81 Z "></path><path fill="rgb(254,184,24)" stroke="rgb(254,184,24)" stroke-width="1" opacity="1" d="M 97.5 82 L 98 84.5 L 97 84.5 L 97.5 82 Z "></path><path fill="rgb(254,184,24)" stroke="rgb(254,184,24)" stroke-width="1" opacity="1" d="M 115.5 83 L 116 85.5 L 115 85.5 L 115.5 83 Z "></path><path fill="rgb(254,184,24)" stroke="rgb(254,184,24)" stroke-width="1" opacity="1" d="M 52.5 86 L 52 87.5 L 47.5 97 L 47 95.5 L 52.5 86 Z "></path><path fill="rgb(254,184,24)" stroke="rgb(254,184,24)" stroke-width="1" opacity="1" d="M 96.5 87 L 97 89.5 L 96 89.5 L 96.5 87 Z "></path><path fill="rgb(254,184,24)" stroke="rgb(254,184,24)" stroke-width="1" opacity="1" d="M 169.5 87 L 170 90.5 L 169 90.5 L 169.5 87 Z "></path><path fill="rgb(254,184,24)" stroke="rgb(254,184,24)" stroke-width="1" opacity="1" d="M 114.5 88 L 115 90.5 L 114 90.5 L 114.5 88 Z "></path><path fill="rgb(254,184,24)" stroke="rgb(254,184,24)" stroke-width="1" opacity="1" d="M 208.5 88 L 209 112.5 L 208 112.5 L 208.5 88 Z "></path><path fill="rgb(254,184,24)" stroke="rgb(254,184,24)" stroke-width="1" opacity="1" d="M 95.5 92 L 96 94.5 L 95 94.5 L 95.5 92 Z "></path><path fill="rgb(254,184,24)" stroke="rgb(254,184,24)" stroke-width="1" opacity="1" d="M 113.5 94 L 114 96.5 L 113 96.5 L 113.5 94 Z "></path><path fill="rgb(254,184,24)" stroke="rgb(254,184,24)" stroke-width="1" opacity="1" d="M 94.5 98 L 95 100.5 L 94 100.5 L 94.5 98 Z "></path><path fill="rgb(254,184,24)" stroke="rgb(254,184,24)" stroke-width="1" opacity="1" d="M 112.5 99 L 113 101.5 L 112 101.5 L 112.5 99 Z "></path><path fill="rgb(254,184,24)" stroke="rgb(254,184,24)" stroke-width="1" opacity="1" d="M 93.5 103 L 94 105.5 L 93 105.5 L 93.5 103 Z "></path><path fill="rgb(254,184,24)" stroke="rgb(254,184,24)" stroke-width="1" opacity="1" d="M 164.5 103 L 163 105.5 L 157.5 112 L 162 106.5 L 164.5 103 Z "></path><path fill="rgb(254,184,24)" stroke="rgb(254,184,24)" stroke-width="1" opacity="1" d="M 111.5 104 L 112 106.5 L 111 106.5 L 111.5 104 Z "></path><path fill="rgb(254,184,24)" stroke="rgb(254,184,24)" stroke-width="1" opacity="1" d="M 144.5 104 L 138.5 111 L 136.5 112 L 137.5 110 L 144.5 104 Z "></path><path fill="rgb(254,184,24)" stroke="rgb(254,184,24)" stroke-width="1" opacity="1" d="M 42.5 108 L 43 110.5 L 42 110.5 L 42.5 108 Z "></path><path fill="rgb(254,184,24)" stroke="rgb(254,184,24)" stroke-width="1" opacity="1" d="M 92.5 108 L 93 110.5 L 92 110.5 L 92.5 108 Z "></path><path fill="rgb(254,184,24)" stroke="rgb(254,184,24)" stroke-width="1" opacity="1" d="M 110.5 109 L 111 111.5 L 110 111.5 L 110.5 109 Z "></path><path fill="rgb(254,184,24)" stroke="rgb(254,184,24)" stroke-width="1" opacity="1" d="M 155.5 112 L 153.5 115 L 155.5 112 Z "></path><path fill="rgb(254,184,24)" stroke="rgb(254,184,24)" stroke-width="1" opacity="1" d="M 91.5 113 L 92 115.5 L 91 115.5 L 91.5 113 Z "></path><path fill="rgb(254,184,24)" stroke="rgb(254,184,24)" stroke-width="1" opacity="1" d="M 123.5 115 L 126 115.5 L 123.5 116 L 123.5 115 Z "></path><path fill="rgb(254,184,24)" stroke="rgb(254,184,24)" stroke-width="1" opacity="1" d="M 151.5 115 L 150.5 117 L 146.5 119 L 147.5 117 L 151.5 115 Z "></path><path fill="rgb(254,184,24)" stroke="rgb(254,184,24)" stroke-width="1" opacity="1" d="M 40.5 116 L 41 118.5 L 40 118.5 L 40.5 116 Z "></path><path fill="rgb(254,184,24)" stroke="rgb(254,184,24)" stroke-width="1" opacity="1" d="M 115 116 L 119 116.5 L 115.5 118 L 115 116 Z "></path><path fill="rgb(254,184,24)" stroke="rgb(254,184,24)" stroke-width="1" opacity="1" d="M 108.5 120 L 109 122.5 L 108 122.5 L 108.5 120 Z "></path><path fill="rgb(254,184,24)" stroke="rgb(254,184,24)" stroke-width="1" opacity="1" d="M 39.5 121 L 40 123.5 L 39 123.5 L 39.5 121 Z "></path><path fill="rgb(254,184,24)" stroke="rgb(254,184,24)" stroke-width="1" opacity="1" d="M 136.5 122 L 138 125.5 L 136 124.5 L 136.5 122 Z "></path><path fill="rgb(254,184,24)" stroke="rgb(254,184,24)" stroke-width="1" opacity="1" d="M 89.5 124 L 90 126.5 L 89 126.5 L 89.5 124 Z "></path><path fill="rgb(254,184,24)" stroke="rgb(254,184,24)" stroke-width="1" opacity="1" d="M 116.5 124 L 119 127.5 L 117 126.5 L 116.5 124 Z "></path><path fill="rgb(254,184,24)" stroke="rgb(254,184,24)" stroke-width="1" opacity="1" d="M 107.5 125 L 108 127.5 L 107 127.5 L 107.5 125 Z "></path><path fill="rgb(254,184,24)" stroke="rgb(254,184,24)" stroke-width="1" opacity="1" d="M 38.5 127 L 39 132.5 L 38 132.5 L 38.5 127 Z "></path><path fill="rgb(254,184,24)" stroke="rgb(254,184,24)" stroke-width="1" opacity="1" d="M 138.5 127 L 141 130.5 L 139 129.5 L 138.5 127 Z "></path><path fill="rgb(254,184,24)" stroke="rgb(254,184,24)" stroke-width="1" opacity="1" d="M 88.5 129 L 89 131.5 L 88 131.5 L 88.5 129 Z "></path><path fill="rgb(254,184,24)" stroke="rgb(254,184,24)" stroke-width="1" opacity="1" d="M 119.5 129 L 122 132.5 L 120 131.5 L 119.5 129 Z "></path><path fill="rgb(254,184,24)" stroke="rgb(254,184,24)" stroke-width="1" opacity="1" d="M 106.5 130 L 107 132.5 L 106 132.5 L 106.5 130 Z "></path><path fill="rgb(254,184,24)" stroke="rgb(254,184,24)" stroke-width="1" opacity="1" d="M 87.5 134 L 88 136.5 L 87 136.5 L 87.5 134 Z "></path><path fill="rgb(254,184,24)" stroke="rgb(254,184,24)" stroke-width="1" opacity="1" d="M 142.5 134 L 143.5 136 L 142.5 134 Z "></path><path fill="rgb(254,184,24)" stroke="rgb(254,184,24)" stroke-width="1" opacity="1" d="M 105.5 136 L 106 138.5 L 105 138.5 L 105.5 136 Z "></path><path fill="rgb(254,184,24)" stroke="rgb(254,184,24)" stroke-width="1" opacity="1" d="M 123.5 136 L 124.5 138 L 123.5 136 Z "></path><path fill="rgb(254,184,24)" stroke="rgb(254,184,24)" stroke-width="1" opacity="1" d="M 201.5 138 L 202 139.5 L 200.5 142 L 200 140.5 L 201.5 138 Z "></path><path fill="rgb(254,184,24)" stroke="rgb(254,184,24)" stroke-width="1" opacity="1" d="M 86.5 139 L 87 141.5 L 86 141.5 L 86.5 139 Z "></path><path fill="rgb(254,184,24)" stroke="rgb(254,184,24)" stroke-width="1" opacity="1" d="M 145.5 139 L 146.5 141 L 145.5 139 Z "></path><path fill="rgb(254,184,24)" stroke="rgb(254,184,24)" stroke-width="1" opacity="1" d="M 104.5 141 L 105 143.5 L 104 143.5 L 104.5 141 Z "></path><path fill="rgb(254,184,24)" stroke="rgb(254,184,24)" stroke-width="1" opacity="1" d="M 127.5 143 L 128.5 145 L 127.5 143 Z "></path><path fill="rgb(254,184,24)" stroke="rgb(254,184,24)" stroke-width="1" opacity="1" d="M 85.5 144 L 86 146.5 L 85 146.5 L 85.5 144 Z "></path><path fill="rgb(254,184,24)" stroke="rgb(254,184,24)" stroke-width="1" opacity="1" d="M 148.5 144 L 151 147.5 L 149 146.5 L 148.5 144 Z "></path><path fill="rgb(254,184,24)" stroke="rgb(254,184,24)" stroke-width="1" opacity="1" d="M 103.5 146 L 104 148.5 L 103 148.5 L 103.5 146 Z "></path><path fill="rgb(254,184,24)" stroke="rgb(254,184,24)" stroke-width="1" opacity="1" d="M 197.5 147 L 197 148.5 L 195.5 151 L 196 149.5 L 197.5 147 Z "></path><path fill="rgb(254,184,24)" stroke="rgb(254,184,24)" stroke-width="1" opacity="1" d="M 130.5 148 L 133 151.5 L 131 150.5 L 130.5 148 Z "></path><path fill="rgb(254,184,24)" stroke="rgb(254,184,24)" stroke-width="1" opacity="1" d="M 151.5 149 L 154 152.5 L 152 151.5 L 151.5 149 Z "></path><path fill="rgb(254,184,24)" stroke="rgb(254,184,24)" stroke-width="1" opacity="1" d="M 38.5 151 L 39 155.5 L 38 155.5 L 38.5 151 Z "></path><path fill="rgb(254,184,24)" stroke="rgb(254,184,24)" stroke-width="1" opacity="1" d="M 102.5 152 L 103 154.5 L 102 154.5 L 102.5 152 Z "></path><path fill="rgb(254,184,24)" stroke="rgb(254,184,24)" stroke-width="1" opacity="1" d="M 194.5 152 L 194 153.5 L 191.5 157 L 193 154.5 L 194.5 152 Z "></path><path fill="rgb(254,184,24)" stroke="rgb(254,184,24)" stroke-width="1" opacity="1" d="M 154.5 154 L 157 157.5 L 155 156.5 L 154.5 154 Z "></path><path fill="rgb(254,184,24)" stroke="rgb(254,184,24)" stroke-width="1" opacity="1" d="M 83.5 155 L 84 157.5 L 83 157.5 L 83.5 155 Z "></path><path fill="rgb(254,184,24)" stroke="rgb(254,184,24)" stroke-width="1" opacity="1" d="M 134.5 155 L 137 158.5 L 135 157.5 L 134.5 155 Z "></path><path fill="rgb(254,184,24)" stroke="rgb(254,184,24)" stroke-width="1" opacity="1" d="M 101.5 157 L 102 159.5 L 101 159.5 L 101.5 157 Z "></path><path fill="rgb(254,184,24)" stroke="rgb(254,184,24)" stroke-width="1" opacity="1" d="M 190.5 158 L 187.5 162 L 190.5 158 Z "></path><path fill="rgb(254,184,24)" stroke="rgb(254,184,24)" stroke-width="1" opacity="1" d="M 39.5 159 L 40 161.5 L 39 161.5 L 39.5 159 Z "></path><path fill="rgb(254,184,24)" stroke="rgb(254,184,24)" stroke-width="1" opacity="1" d="M 157.5 159 L 160 162.5 L 158 161.5 L 157.5 159 Z "></path><path fill="rgb(254,184,24)" stroke="rgb(254,184,24)" stroke-width="1" opacity="1" d="M 82.5 160 L 83 162.5 L 82 162.5 L 82.5 160 Z "></path><path fill="rgb(254,184,24)" stroke="rgb(254,184,24)" stroke-width="1" opacity="1" d="M 138.5 162 L 141 165.5 L 139 164.5 L 138.5 162 Z "></path><path fill="rgb(254,184,24)" stroke="rgb(254,184,24)" stroke-width="1" opacity="1" d="M 100.5 163 L 101 165.5 L 100 165.5 L 100.5 163 Z "></path><path fill="rgb(254,184,24)" stroke="rgb(254,184,24)" stroke-width="1" opacity="1" d="M 160.5 164 L 161.5 166 L 160.5 164 Z "></path><path fill="rgb(254,184,24)" stroke="rgb(254,184,24)" stroke-width="1" opacity="1" d="M 81.5 165 L 82 167.5 L 81 167.5 L 81.5 165 Z "></path><path fill="rgb(254,184,24)" stroke="rgb(254,184,24)" stroke-width="1" opacity="1" d="M 183.5 165 L 181.5 168 L 183.5 165 Z "></path><path fill="rgb(254,184,24)" stroke="rgb(254,184,24)" stroke-width="1" opacity="1" d="M 162.5 167 L 165.5 171 L 162.5 167 Z "></path><path fill="rgb(254,184,24)" stroke="rgb(254,184,24)" stroke-width="1" opacity="1" d="M 99.5 168 L 100 172.5 L 99 172.5 L 99.5 168 Z "></path><path fill="rgb(254,184,24)" stroke="rgb(254,184,24)" stroke-width="1" opacity="1" d="M 179.5 168 L 178.5 170 L 175.5 171 L 175.5 170 L 179.5 168 Z "></path><path fill="rgb(254,184,24)" stroke="rgb(254,184,24)" stroke-width="1" opacity="1" d="M 142.5 169 L 143.5 171 L 142.5 169 Z "></path><path fill="rgb(254,184,24)" stroke="rgb(254,184,24)" stroke-width="1" opacity="1" d="M 80.5 170 L 81 171.5 L 77 174.5 L 80.5 170 Z "></path><path fill="rgb(254,184,24)" stroke="rgb(254,184,24)" stroke-width="1" opacity="1" d="M 167.5 171 L 174 171.5 L 167.5 172 L 167.5 171 Z "></path><path fill="rgb(254,184,24)" stroke="rgb(254,184,24)" stroke-width="1" opacity="1" d="M 145.5 174 L 148 177.5 L 146 176.5 L 145.5 174 Z "></path><path fill="rgb(254,184,24)" stroke="rgb(254,184,24)" stroke-width="1" opacity="1" d="M 44.5 176 L 46 179.5 L 45 179.5 L 44.5 176 Z "></path><path fill="rgb(254,184,24)" stroke="rgb(254,184,24)" stroke-width="1" opacity="1" d="M 64.5 179 L 65 184.5 L 64 184.5 L 64.5 179 Z "></path><path fill="rgb(254,184,24)" stroke="rgb(254,184,24)" stroke-width="1" opacity="1" d="M 113.5 180 L 114 183.5 L 113 183.5 L 113.5 180 Z "></path><path fill="rgb(254,184,24)" stroke="rgb(254,184,24)" stroke-width="1" opacity="1" d="M 46.5 181 L 50 186.5 L 48 185.5 L 46.5 181 Z "></path><path fill="rgb(254,184,24)" stroke="rgb(254,184,24)" stroke-width="1" opacity="1" d="M 149.5 181 L 152 184.5 L 150 183.5 L 149.5 181 Z "></path><path fill="rgb(254,184,24)" stroke="rgb(254,184,24)" stroke-width="1" opacity="1" d="M 67.5 184 L 90 184.5 L 67.5 185 L 67.5 184 Z "></path><path fill="rgb(254,184,24)" stroke="rgb(254,184,24)" stroke-width="1" opacity="1" d="M 96.5 184 L 108 184.5 L 96.5 185 L 96.5 184 Z "></path><path fill="rgb(254,184,24)" stroke="rgb(254,184,24)" stroke-width="1" opacity="1" d="M 152.5 186 L 155 189.5 L 153 188.5 L 152.5 186 Z "></path><path fill="rgb(254,184,24)" stroke="rgb(254,184,24)" stroke-width="1" opacity="1" d="M 50.5 188 L 51.5 190 L 50.5 188 Z "></path><path fill="rgb(254,184,24)" stroke="rgb(254,184,24)" stroke-width="1" opacity="1" d="M 52.5 191 L 54.5 194 L 52.5 191 Z "></path><path fill="rgb(254,184,24)" stroke="rgb(254,184,24)" stroke-width="1" opacity="1" d="M 156.5 193 L 159 196.5 L 157 195.5 L 156.5 193 Z "></path><path fill="rgb(254,184,24)" stroke="rgb(254,184,24)" stroke-width="1" opacity="1" d="M 55.5 195 L 67.5 208 L 55.5 195 Z "></path><path fill="rgb(254,184,24)" stroke="rgb(254,184,24)" stroke-width="1" opacity="1" d="M 69.5 208 L 71.5 211 L 69.5 208 Z "></path><path fill="rgb(254,184,24)" stroke="rgb(254,184,24)" stroke-width="1" opacity="1" d="M 73.5 211 L 74.5 213 L 73.5 211 Z "></path><path fill="rgb(254,184,24)" stroke="rgb(254,184,24)" stroke-width="1" opacity="1" d="M 161.5 212 L 160.5 214 L 161.5 212 Z "></path><path fill="rgb(254,184,24)" stroke="rgb(254,184,24)" stroke-width="1" opacity="1" d="M 78.5 214 L 85 217.5 L 83.5 218 Q 78.9 216.8 78.5 214 Z "></path><path fill="rgb(254,184,24)" stroke="rgb(254,184,24)" stroke-width="1" opacity="1" d="M 158.5 214 L 157.5 216 L 158.5 214 Z "></path><path fill="rgb(254,184,24)" stroke="rgb(254,184,24)" stroke-width="1" opacity="1" d="M 140.5 221 L 143 221.5 L 140.5 222 L 140.5 221 Z "></path><path fill="rgb(254,184,24)" stroke="rgb(254,184,24)" stroke-width="1" opacity="1" d="M 135.5 222 L 138 222.5 L 135.5 223 L 135.5 222 Z "></path><path fill="rgb(254,184,24)" stroke="rgb(254,184,24)" stroke-width="1" opacity="1" d="M 104.5 223 L 111 223.5 L 104.5 224 L 104.5 223 Z "></path><path fill="rgb(254,184,24)" stroke="rgb(254,184,24)" stroke-width="1" opacity="1" d="M 120.5 223 L 131 223.5 L 120.5 224 L 120.5 223 Z "></path><path fill="rgb(255,185,25)" stroke="rgb(255,185,25)" stroke-width="1" opacity="1" d="M 136.5 31 Q 143.6 33.4 154.5 32 L 167.5 36 Q 183.1 42.4 193 54.5 Q 203.8 66.7 208 85.5 L 208 116.5 Q 202.5 147 184.5 165 L 174.5 171 L 166.5 171 L 160 163.5 L 138 126.5 L 137 122 Q 153.5 118.3 163 106.5 Q 168.1 100.1 170 90.5 L 170 75.5 Q 166.9 64.6 158.5 59 L 151.5 55 L 139.5 52 L 83 51.5 Q 94.7 41.7 110.5 36 L 126.5 32 L 135.5 32 L 136.5 31 Z "></path><path fill="rgb(255,185,25)" stroke="rgb(255,185,25)" stroke-width="1" opacity="1" d="M 72.5 61 L 97.5 61 L 100 63.5 L 98 81.5 L 95 92.5 L 95 97.5 L 91 113.5 L 91 118.5 L 85 144.5 L 81 169.5 L 76.5 175 L 64 179 L 64 184.5 L 64.5 185 L 89.5 185 Q 90.8 182.8 95.5 184 L 96.5 185 L 112.5 185 Q 114.8 184.3 114 180.5 L 111.5 178 L 100 173.5 L 101 160.5 L 120 61 Q 138.7 59 146 69.5 L 149 75.5 L 149 93.5 Q 146.6 104.6 138.5 110 Q 129.8 116.6 115 116 L 114 120.5 L 159 197.5 L 163 208.5 L 159.5 214 L 152.5 218 L 139.5 222 L 111.5 224 L 110.5 223 L 101.5 223 L 93.5 221 L 75.5 213 L 55 194.5 Q 45.7 183.3 41 167.5 L 38 150.5 L 38 133.5 L 39 132.5 L 39 124.5 L 41 114.5 L 46 99.5 Q 55.5 76.5 72.5 61 Z "></path></svg>