<svg id="Layer_1" data-name="Layer 1" xmlns="http://www.w3.org/2000/svg" viewBox="0 0 643.29999 870.81095"><defs><style>.cls-1{fill:#ffb919;fill-rule:evenodd;}.cls-2{fill:#900000;}</style></defs><title>rez</title><path class="cls-1" d="M68.204,271.983l-18.572,150,71.429,138.571,108.571,62.857,140-1.428,62.857-20,28.572-41.429-12.857-62.857,110-81.429,41.428-182.857L515.347,74.84,336.775,39.125,172.49,106.268Z"/><path d="M229.5,623.91211l-.11865-.06836L120.68359,560.91309l-.06689-.12989-71.5-138.708.019-.15332L67.72168,271.811l.05908-.09424L172.15234,105.86572l.14893-.06054L336.72559,38.605l.14746.02979L515.67676,74.396l.11133.209,84.37207,158.73535L558.65039,416.55859l-.14844.11036L448.75781,497.90918l12.835,62.75293-.12011.17578L432.80371,602.4082l-63.167,20.0752ZM121.43848,560.19434l108.32519,62.71582,139.78809-1.42578,62.623-19.92579,28.35352-41.11328-12.87793-62.96,110.10742-81.50879,41.34571-182.49463L515.0166,75.28369,336.8252,39.645,172.82812,106.67041,68.68652,272.15479,50.147,421.8916Z"/><path class="cls-2" d="M254.06731,656.112c-61.821-7.917-115.499-34.215-159.354-78.07-44.487-44.487-70.395-97.876-78.182-161.111-2.196-17.84-2.542-60.512-.639-78.788,7.88-75.632,37.876-141.313,92.132-201.737,60.071-66.9,133.407-107.343,218.084-120.272,17.52-2.675,70.618-3.755,88.897-1.808,63.086,6.72,114.84,30.849,154.64,72.1,32.734,33.927,50.083,68.334,59.489,117.979,2.69,14.193,3.78,62.74,1.803,80.186-7.065,62.32-31.836,115.947-76.81,166.289-18.077,20.233-47.11,42.451-72.654,55.601l-9.063,4.666,6.286,10.06c7.788,12.466,16.183,23.263,19.845,25.526,6.503,4.019,9.71,4.004,20.072-.09,12.333-4.874,15.71-4.204,18.44,3.655,2.987,8.598.478,11.622-29.316,35.326-47.143,37.507-107.752,62.728-169.751,70.637-18.602,2.374-64.868,2.291-83.92-.149Zm106.17-55.334c25.606-4.586,46.86-12.041,61.544-21.587,12.374-8.045,15.763-15.873,12.19-28.161-2.95-10.152-4.88-13.69-39.737-72.887-17.206-29.218-32.686-55.937-34.4-59.375-1.715-3.437-15.933-28.225-31.595-55.085l-28.477-48.835,1.306-5.142,1.305-5.142,8.307-.764c47.79-4.397,73.506-22.207,83.984-58.166,3.855-13.23,4.868-43.361,1.848-54.99-4.195-16.157-13.745-28.472-27.95-36.043-10.018-5.34-20.509-7.484-38.857-7.944l-15.531-.389-29.133,152.5c-16.024,83.875-29.144,154.766-29.156,157.535-.013,2.769.797,6.205,1.8,7.636,2.4,3.428,12.567,7.713,23.636,9.96,11.545,2.345,15.11,5.837,14.2,13.91-.339,3.002-.935,5.777-1.326,6.168-.39.39-10.262.004-21.936-.86-19.07-1.41-44.483-1.304-104.522.434l-7.5.217-.37-6.317c-.473-8.11,1.08-9.505,14.393-12.92,19.117-4.903,28.983-11.123,31.114-19.615.42-1.669,13.285-68.093,28.592-147.61,29.984-155.767,29.09-149.582,22.562-156.11-5.217-5.217-11.355-5.94-43.48-5.122-22.79.58-30.532,1.193-33.317,2.633-1.995,1.032-7.97,6.811-13.276,12.844-46.903,53.32-73.156,111.464-80.533,178.359-2.033,18.435-1.72,56.45.6,73.09,7.149,51.258,28.158,93.968,63.712,129.522,32.958,32.958,72.555,53.023,118.364,59.978,18.34,2.785,72.116,1.774,91.639-1.722Zm110.182-145.344c16.788-6.193,33.39-21.242,48.506-43.97,21.29-32.01,34.784-67,41.532-107.696,1.798-10.84,2.272-20.493,2.241-45.625-.034-28.413-.348-33.3-2.887-45-7.23-33.309-19.164-57.94-40.381-83.343-26.523-31.755-61.671-52.748-103.423-61.771-15.248-3.296-55.117-4.652-73.434-2.498a262.50985,262.50985,0,0,0-128.364,51.773l-8.528,6.464,82.903.71c73.363.627,83.982.964,92.278,2.923,37.722,8.91,62.85,30.393,70.528,60.298,3.131,12.195,2.658,34.92-1.03,49.458-9.201,36.273-36.47,62.87-80.437,78.452l-12.814,4.541,37.584,63.684c20.927,35.46,39.642,65.77,42.226,68.39,7.163,7.263,19.35,8.43,33.5,3.21Z"/><path d="M247.43362,727.38086a33.30013,33.30013,0,0,1,12.61914,9.41992,41.95448,41.95448,0,0,1,6.77734,11.33984,37.79183,37.79183,0,0,1,2.498,14.17579,40.38864,40.38864,0,0,1-4.84717,18.88476q-4.84863,9.28272-16.0044,13.124,9.32813,3.75,13.21485,10.65429,3.88623,6.90528,3.88721,21.08008v9.05371q0,9.2373.74267,12.5293a11.2499,11.2499,0,0,0,5.20166,7.68164V858.708H240.42873q-1.28173-4.47949-1.8291-7.22461a66.30176,66.30176,0,0,1-1.189-11.61524l-.18262-12.52832q-.17431-12.895-4.45557-17.19336-4.2832-4.29784-16.04736-4.29882H189.21487V858.708H161.687V723.90527h64.47754Q239.98611,724.18067,247.43362,727.38086Zm-58.21875,19.93652V783.5332h30.314q9.03223,0,13.54932-2.19531,7.99073-3.84082,7.99072-15.18066,0-12.2549-7.73047-16.46192-4.34327-2.37744-13.02783-2.37793Z"/><path d="M361.44184,761.043A40.54536,40.54536,0,0,1,378.66742,775.79a48.99263,48.99263,0,0,1,7.94238,20.6084,127.40384,127.40384,0,0,1,.8584,19.7832H314.86615q.60645,15,10.42432,21.03516a26.47438,26.47438,0,0,0,14.37109,3.749q8.90625,0,14.47266-4.57227a21.92051,21.92051,0,0,0,5.36426-6.85937h26.60937q-1.05175,8.87256-9.66211,18.0166-13.39454,14.54151-37.50293,14.541a54.336,54.336,0,0,1-35.1123-12.26465Q288.61811,837.562,288.61908,809.918q0-25.90137,13.73242-39.72363,13.73072-13.82227,35.647-13.82325A56.75116,56.75116,0,0,1,361.44184,761.043Zm-38.99219,22.51562q-5.5254,5.69532-6.94336,15.43067h44.90332q-.71191-10.37842-6.94336-15.752a22.84165,22.84165,0,0,0-15.458-5.374Q327.9726,777.86328,322.44965,783.55859Z"/><path d="M404.34418,780.24121V759.02344h78.833v21.6748l-48.91407,56.60938h50.65137V858.708h-84.0459V838.40527l49.41407-58.16406Z"/></svg>