<svg id="Layer_1" data-name="Layer 1" xmlns="http://www.w3.org/2000/svg" viewBox="0 0 606.84003 234"><defs><style>.cls-1{fill:#e94740;}</style></defs><title>rmanPtc-SOP</title><path class="cls-1" d="M285.26108,14.25l.09,129.4h-25.64l-58.75-88.24v88.25h-23.15V14.25h13a23.26,23.26,0,0,1,19.4,10.42l51.85,78.36V14.25Zm73.68,129.28h76.79v-22.9h-66.33v-30h54.46V66.82h-54.46V36.25h66.33v-22h-91.12v115a14.33,14.33,0,0,0,14.33,14.29ZM56.01107,11.67c-23.73-.25-44.19,12-44.19,12V97.15l23.06-20.49V39.71s7.73-4.46,19.65-4.46c24.65,0,44.7,19.57,44.7,43.64a43,43,0,0,1-42.7947,43.20432q-.83282.004-1.6653-.02432a44,44,0,0,1-16.92-4.13l-19.11,17a67.29,67.29,0,1,0,37.27-123.27Zm495.62,134.75c23.72.24,44.19-12,44.19-12V69.13l-23.07,20.49v28.76s-7.73,4.43-19.65,4.43c-24.65,0-44.7-19.58-44.7-43.64A43,43,0,0,1,551.1857,35.95574q.8378-.00418,1.67535.02428a44.13971,44.13971,0,0,1,16.92,4.13l19.12-17a67.29,67.29,0,1,0-37.27,123.33Z"/><path d="M147.84424,193.30078q.14794.01318.66015.04V201.21q-.72729-.08057-1.29345-.1084-.56616-.02637-.91651-.02636-4.63476,0-6.22461,3.01855a11.73283,11.73283,0,0,0-.88964,5.22754v14.04h-7.73389v-29.374h7.32959v5.12012a16.2448,16.2448,0,0,1,3.09912-4.01465,8.43515,8.43515,0,0,1,5.60547-1.80566C147.624,193.28711,147.74512,193.292,147.84424,193.30078Z"/><path d="M189.65479,194.0957a8.543,8.543,0,0,1,3.42236,2.64063,8.44774,8.44774,0,0,1,1.6709,3.77246,26.12986,26.12986,0,0,1,.26953,4.33887l-.0542,18.51367h-7.86865V204.65918a6.14088,6.14088,0,0,0-.53907-2.749,3.83021,3.83021,0,0,0-3.77295-2.04786,4.41581,4.41581,0,0,0-4.39257,2.64063,8.29959,8.29959,0,0,0-.61963,3.36914v17.48926h-7.73438V205.87207a9.83612,9.83612,0,0,0-.53857-3.7998,3.76319,3.76319,0,0,0-3.79981-2.12891q-3.28857,0-4.41943,2.12891a8.19666,8.19666,0,0,0-.62012,3.61132v17.67774h-7.78808V194.042H160.335v4.28418a12.35977,12.35977,0,0,1,2.69483-3.26074,10.66187,10.66187,0,0,1,11.2373-.24219,8.62221,8.62221,0,0,1,2.5332,3.53028,9.76323,9.76323,0,0,1,3.7461-3.79981,11.42673,11.42673,0,0,1,5.28173-1.21289A10.22808,10.22808,0,0,1,189.65479,194.0957Z"/><path d="M213.71191,205.49414a12.11773,12.11773,0,0,0,3.06739-.67285,2.3125,2.3125,0,0,0,1.65625-2.18359,2.58067,2.58067,0,0,0-1.27051-2.49219,8.02887,8.02887,0,0,0-3.72852-.6875q-2.759,0-3.90625,1.34765A5.55839,5.55839,0,0,0,208.4375,203.5h-7.41064a11.23436,11.23436,0,0,1,2.165-6.332q3.05861-3.88183,10.50147-3.88086a18.72651,18.72651,0,0,1,8.60644,1.91309q3.76173,1.91454,3.76221,7.22265v13.47363q0,1.40186.05371,3.39551a4.25567,4.25567,0,0,0,.458,2.04785,2.74473,2.74473,0,0,0,1.13184.88965v1.13184h-8.354a8.52033,8.52033,0,0,1-.48486-1.6709q-.1355-.78077-.21582-1.77832a15.86233,15.86233,0,0,1-3.68652,2.9375,11.13833,11.13833,0,0,1-5.6377,1.42773A9.72572,9.72572,0,0,1,202.69922,222a8.09594,8.09594,0,0,1-2.61572-6.4541q0-5.41552,4.208-7.8418a18.79329,18.79329,0,0,1,6.78711-1.88574Zm4.69629,3.585a8.48658,8.48658,0,0,1-1.48925.74024,12.53639,12.53639,0,0,1-2.062.52636l-1.74853.32325a11.4921,11.4921,0,0,0-3.53028,1.05078,3.508,3.508,0,0,0-1.81445,3.26074,3.40556,3.40556,0,0,0,1.1084,2.84277,4.21175,4.21175,0,0,0,2.69531.876,8.03072,8.03072,0,0,0,4.63819-1.45508q2.12035-1.456,2.20263-5.30859Z"/><path d="M256.458,195.67188q2.88427,2.38476,2.88476,7.90917v19.78028h-7.86914V205.49414a8.203,8.203,0,0,0-.61523-3.55664q-1.12426-2.26319-4.27979-2.26367a5.30483,5.30483,0,0,0-5.32373,3.31445,11.45942,11.45942,0,0,0-.749,4.47363v15.89942h-7.68018V194.042h7.4375v4.28418a13.02536,13.02536,0,0,1,2.791-3.26074,9.6693,9.6693,0,0,1,5.98389-1.77832A11.26035,11.26035,0,0,1,256.458,195.67188Z"/><path d="M293.771,206.168q-3.4878,2.91064-9.96192,2.91113h-8.27051v14.28223h-8.24609V183.63965h17.05518q5.89819,0,9.40478,3.07226,3.50684,3.07179,3.50635,9.5127Q297.25879,203.25733,293.771,206.168Zm-6.335-14.30957a6.68768,6.68768,0,0,0-4.41749-1.32031h-7.48V202.2334h7.48a6.34533,6.34533,0,0,0,4.41749-1.42774,5.82991,5.82991,0,0,0,1.57666-4.52734Q289.0127,193.18017,287.436,191.8584Z"/><path d="M300.27734,199.72754v-5.4707h4.09571v-8.19239h7.59961v8.19239h4.76953v5.4707h-4.76953V215.25a3.4921,3.4921,0,0,0,.458,2.25q.45851.44532,2.80274.44434.3501,0,.74121-.0127.38966-.01318.76758-.041v5.74024l-3.6377.13476q-5.44335.1875-7.4375-1.88671a5.61558,5.61558,0,0,1-1.29394-4.06934v-18.082Z"/><path d="M339.24414,204.52441a6.791,6.791,0,0,0-1.10742-2.96386,4.64593,4.64593,0,0,0-4.02442-1.7793,5.30007,5.30007,0,0,0-5.32226,3.85352,16.00911,16.00911,0,0,0-.75586,5.42968,14.7172,14.7172,0,0,0,.75586,5.18848,5.1369,5.1369,0,0,0,5.18652,3.665,4.57811,4.57811,0,0,0,3.83594-1.45508,7.23059,7.23059,0,0,0,1.37793-3.77344h7.8418a12.84707,12.84707,0,0,1-2.53516,6.62989q-3.61524,5.03905-10.709,5.03906-7.09571,0-10.43946-4.2041-3.34571-4.20411-3.34472-10.90137,0-7.55713,3.69433-11.76172,3.69581-4.20409,10.19727-4.2041a15.35986,15.35986,0,0,1,9.0498,2.47949q3.52,2.47852,4.168,8.75781Z"/><path d="M374.30371,211.09961a8.05564,8.05564,0,0,0,1.51367,4.06934q2.0625,2.45214,7.07129,2.45214a15.23088,15.23088,0,0,0,4.87012-.64648q3.54932-1.23926,3.54883-4.6084a3.39518,3.39518,0,0,0-1.73828-3.04492,18.85215,18.85215,0,0,0-5.51465-1.85938l-4.30078-.94336q-6.33986-1.40039-8.71094-3.04492-4.01514-2.74952-4.01563-8.59668a11.41612,11.41612,0,0,1,3.92871-8.86621q3.92872-3.53026,11.53907-3.53027a17.6922,17.6922,0,0,1,10.84375,3.32812q4.48827,3.3296,4.70605,9.66114h-7.97656a5.68622,5.68622,0,0,0-3.20508-5.09278,10.96891,10.96891,0,0,0-4.94433-.99707,9.41442,9.41442,0,0,0-5.25,1.293,4.09308,4.09308,0,0,0-1.96094,3.61133,3.4063,3.4063,0,0,0,1.93359,3.17969,23.96984,23.96984,0,0,0,5.27735,1.64355l6.9707,1.64453a17.7364,17.7364,0,0,1,6.87012,2.88282q3.55224,2.80371,3.55175,8.1123a11.397,11.397,0,0,1-4.208,9.041q-4.20851,3.59765-11.88965,3.59765-7.84423,0-12.33887-3.54394a11.72548,11.72548,0,0,1-4.49414-9.74219Z"/><path d="M435.71875,219.83105q-4.5,4.63477-13.01563,4.63477-8.51659,0-13.0166-4.63477-6.03661-5.685-6.03613-16.38476,0-10.91309,6.03613-16.38477,4.50147-4.63476,13.0166-4.63476t13.01563,4.63476q6.00879,5.47119,6.00977,16.38477Q441.72852,214.14551,435.71875,219.83105Zm-5.1875-6.03613q2.89746-3.63867,2.89746-10.34863,0-6.68262-2.89746-10.334a9.468,9.468,0,0,0-7.82813-3.65234,9.593,9.593,0,0,0-7.86914,3.63867q-2.937,3.63721-2.9375,10.34766,0,6.71044,2.9375,10.34863a9.59488,9.59488,0,0,0,7.86914,3.6377A9.48278,9.48278,0,0,0,430.53125,213.79492Z"/><path d="M474.72852,206.168q-3.4878,2.91064-9.96192,2.91113h-8.27051v14.28223H448.25V183.63965h17.05566q5.89746,0,9.4043,3.07226,3.50683,3.07179,3.50684,9.5127Q478.2168,203.25733,474.72852,206.168Zm-6.335-14.30957a6.68727,6.68727,0,0,0-4.418-1.32031h-7.4795V202.2334h7.4795a6.345,6.345,0,0,0,4.418-1.42774,5.83,5.83,0,0,0,1.57715-4.52734Q469.9707,193.18017,468.39355,191.8584Z"/></svg>