<?xml version="1.0" encoding="UTF-8" ?>
<!DOCTYPE svg PUBLIC "-//W3C//DTD SVG 1.1//EN" "http://www.w3.org/Graphics/SVG/1.1/DTD/svg11.dtd">
<svg width="1000pt" height="496pt" viewBox="0 0 1000 496" version="1.1" xmlns="http://www.w3.org/2000/svg">
<g id="#ffffffff">
</g>
<g id="#272526ff">
<path fill="#272526" opacity="1.00" d=" M 305.52 104.79 C 319.44 103.25 334.44 103.95 346.80 111.22 C 356.59 116.94 362.95 127.25 365.52 138.12 C 367.41 145.57 367.81 153.29 367.88 160.95 C 367.88 177.64 367.87 194.33 367.88 211.02 C 368.03 225.75 366.89 241.66 357.82 253.92 C 350.27 264.33 337.50 269.60 324.98 270.63 C 310.87 271.95 295.52 270.60 283.60 262.26 C 273.54 255.25 268.10 243.36 266.27 231.53 C 264.83 223.76 265.29 215.84 265.23 207.99 C 265.24 189.97 265.19 171.95 265.25 153.93 C 265.70 141.52 268.68 128.51 276.99 118.89 C 284.09 110.52 294.84 106.20 305.52 104.79 M 308.45 132.65 C 300.19 134.51 296.57 143.40 296.45 151.08 C 296.20 173.73 296.43 196.38 296.34 219.03 C 296.32 225.32 296.67 232.18 300.61 237.40 C 303.92 241.78 309.71 243.33 314.97 243.40 C 320.54 243.63 326.70 242.92 330.95 238.95 C 335.40 234.57 336.51 227.98 336.59 222.00 C 336.57 198.63 336.62 175.26 336.57 151.90 C 336.33 145.21 334.40 137.42 328.00 134.06 C 322.01 131.06 314.84 131.20 308.45 132.65 Z" />
<path fill="#272526" opacity="1.00" d=" M 870.53 104.73 C 884.65 103.26 899.95 104.04 912.31 111.79 C 922.51 118.07 928.53 129.43 930.73 140.94 C 932.94 150.82 932.27 160.97 932.36 171.01 C 932.34 187.65 932.40 204.30 932.33 220.94 C 931.78 233.48 928.89 246.68 920.44 256.38 C 912.61 265.43 900.62 269.76 888.94 270.69 C 875.88 271.84 861.94 270.63 850.48 263.76 C 841.73 258.60 835.69 249.68 832.85 240.04 C 830.18 231.64 829.65 222.76 829.66 214.00 C 829.68 195.33 829.62 176.66 829.69 157.98 C 829.81 144.87 832.07 130.97 840.34 120.37 C 847.48 110.97 859.08 106.13 870.53 104.73 M 873.45 132.54 C 869.91 133.42 866.62 135.47 864.61 138.55 C 861.37 143.35 860.98 149.36 860.87 154.98 C 860.89 177.00 860.87 199.03 860.88 221.06 C 861.05 226.98 861.69 233.49 865.81 238.11 C 869.56 242.39 875.61 243.52 881.05 243.44 C 886.71 243.54 893.05 242.26 896.76 237.59 C 900.24 233.23 901.04 227.42 901.15 222.00 C 901.12 198.67 901.18 175.33 901.12 152.00 C 900.94 145.37 899.06 137.66 892.81 134.20 C 886.91 131.12 879.81 131.19 873.45 132.54 Z" />
<path fill="#272526" opacity="1.00" d=" M 75.37 106.26 C 90.95 106.35 106.53 106.14 122.11 106.38 C 135.73 106.52 150.21 109.17 160.93 118.15 C 170.09 125.65 174.56 137.47 175.41 149.03 C 176.24 160.53 175.06 172.80 168.75 182.74 C 164.70 189.20 158.19 193.68 151.18 196.43 C 161.43 220.50 171.51 244.65 181.75 268.72 C 170.58 268.79 159.41 268.78 148.25 268.73 C 139.26 246.73 130.28 224.73 121.30 202.73 C 116.44 202.72 111.59 202.72 106.73 202.73 C 106.73 224.74 106.72 246.74 106.74 268.75 C 96.28 268.77 85.82 268.74 75.37 268.77 C 75.37 214.60 75.37 160.43 75.37 106.26 M 106.72 132.15 C 106.73 147.05 106.73 161.95 106.73 176.85 C 115.92 176.27 125.75 178.51 134.41 174.48 C 141.04 171.41 144.22 163.92 144.37 156.95 C 144.95 149.04 143.11 139.58 135.71 135.27 C 126.91 130.21 116.35 132.79 106.72 132.15 Z" />
<path fill="#272526" opacity="1.00" d=" M 460.24 106.27 C 476.45 106.39 492.68 106.02 508.89 106.50 C 522.36 106.96 536.79 110.57 546.29 120.75 C 556.41 131.48 559.48 146.76 560.10 161.03 C 560.16 178.33 560.11 195.63 560.13 212.93 C 559.68 227.56 556.67 243.26 546.38 254.33 C 536.62 264.74 521.85 268.28 508.05 268.71 C 492.12 268.82 476.17 268.74 460.23 268.75 C 460.24 214.59 460.24 160.43 460.24 106.27 M 491.30 133.94 C 491.34 169.70 491.20 205.47 491.37 241.24 C 500.38 240.94 510.29 242.42 518.27 237.23 C 525.98 232.29 528.28 222.56 528.80 213.99 C 528.98 198.33 528.82 182.67 528.88 167.00 C 528.99 157.17 528.21 145.55 520.01 138.84 C 511.84 132.52 500.93 134.19 491.30 133.94 Z" />
<path fill="#272526" opacity="1.00" d=" M 652.57 106.33 C 680.96 106.20 709.35 106.32 737.73 106.27 C 737.75 115.50 737.74 124.72 737.74 133.95 C 719.73 133.94 701.73 133.93 683.72 133.95 C 683.73 146.35 683.70 158.76 683.74 171.16 C 697.42 171.15 711.11 171.16 724.80 171.15 C 724.80 180.32 724.80 189.49 724.80 198.66 C 711.11 198.66 697.41 198.65 683.72 198.66 C 683.73 212.84 683.71 227.02 683.73 241.19 C 702.44 241.20 721.14 241.18 739.85 241.20 C 739.84 250.38 739.85 259.57 739.85 268.75 C 710.78 268.78 681.71 268.74 652.64 268.77 C 652.57 214.63 652.72 160.48 652.57 106.33 Z" />
<path fill="#272526" opacity="1.00" d=" M 50.07 328.07 C 55.67 322.93 63.62 320.98 71.08 321.63 C 78.24 322.30 84.99 324.97 91.74 327.29 C 94.00 325.61 96.58 324.22 99.49 324.49 C 100.79 329.25 95.05 329.42 91.82 329.12 C 87.02 333.87 87.68 341.10 88.57 347.21 C 89.34 353.77 91.12 360.36 90.22 367.00 C 88.62 375.24 83.98 382.40 79.96 389.63 C 90.45 378.67 99.14 366.17 107.49 353.55 C 112.93 345.44 117.32 336.32 125.02 330.01 C 132.48 323.88 142.60 321.74 152.05 322.85 C 160.68 323.93 168.92 329.70 171.76 338.10 C 174.24 346.21 172.87 355.29 168.53 362.54 C 169.46 362.76 171.31 363.19 172.24 363.41 C 173.62 362.30 174.95 361.12 176.33 360.02 C 172.06 368.16 167.78 376.30 163.42 384.40 C 162.28 386.76 160.92 389.43 161.70 392.11 C 162.58 393.89 164.86 393.56 166.06 392.32 C 174.55 384.57 179.25 373.86 185.03 364.14 C 186.17 361.48 189.40 363.02 191.53 363.30 C 192.89 362.22 194.18 361.05 195.58 360.03 C 191.02 369.23 185.96 378.17 181.25 387.28 C 180.59 388.81 179.46 390.82 180.52 392.38 C 182.75 393.66 185.47 392.63 187.47 391.36 C 192.27 388.35 196.08 384.08 199.95 380.00 C 203.33 376.59 205.07 371.94 208.61 368.66 C 213.12 364.05 219.53 361.17 226.05 361.63 C 227.82 361.57 229.22 362.78 230.66 363.62 C 232.81 362.19 235.37 363.01 237.76 362.94 C 238.99 362.08 240.06 361.03 241.20 360.07 C 236.42 369.90 230.90 379.36 226.01 389.13 C 224.90 390.93 224.71 394.66 227.83 393.93 C 232.95 392.37 236.64 388.02 240.51 384.52 C 245.10 379.52 251.00 375.35 253.60 368.86 C 258.01 359.60 263.82 351.09 269.93 342.88 C 274.64 336.70 279.50 330.50 285.53 325.54 C 287.66 323.98 290.20 322.17 293.00 322.82 C 295.14 324.03 295.64 326.71 295.03 328.94 C 293.57 335.63 289.64 341.44 285.74 346.95 C 298.58 338.13 314.85 336.64 329.97 338.02 C 333.38 338.36 336.78 338.81 340.21 338.93 C 341.38 332.72 345.02 326.55 351.11 324.14 C 357.01 321.83 364.37 321.37 369.72 325.28 C 373.79 327.97 376.26 333.23 374.95 338.04 C 373.46 342.80 368.75 345.90 364.02 346.80 C 359.12 347.87 354.24 346.19 349.63 344.68 C 350.02 347.10 350.13 349.63 351.04 351.95 C 351.89 354.53 356.53 354.62 355.84 357.78 C 352.74 359.52 350.73 355.42 347.95 354.83 C 341.75 353.43 335.51 356.99 332.12 362.07 C 325.19 371.22 327.45 385.62 336.44 392.58 C 340.30 395.50 345.46 395.98 350.07 394.97 C 361.39 392.84 370.93 381.81 369.65 370.04 C 369.42 365.39 365.98 360.61 361.07 360.37 C 353.68 360.10 347.07 365.53 343.91 371.88 C 342.00 375.87 342.11 381.36 345.81 384.29 C 349.26 387.27 354.95 385.94 357.57 382.47 C 360.69 378.41 361.38 373.14 361.57 368.18 C 361.90 368.18 362.56 368.18 362.89 368.18 C 363.01 373.59 362.39 379.49 358.77 383.80 C 355.32 388.10 347.93 389.24 344.00 385.00 C 340.24 381.24 340.35 375.12 342.58 370.60 C 346.14 363.53 353.92 357.85 362.11 358.82 C 367.82 359.60 371.51 365.49 371.36 370.98 C 372.24 384.78 359.68 397.55 345.98 397.53 C 339.00 397.71 331.66 396.29 326.03 391.94 C 314.10 383.06 314.72 362.20 327.18 354.05 C 332.07 350.56 338.24 349.84 344.09 350.07 C 342.47 347.19 341.20 344.12 340.22 340.97 C 324.93 338.39 308.57 337.80 294.08 344.16 C 287.64 346.89 281.11 351.68 279.75 358.98 C 278.65 362.45 280.31 365.82 280.96 369.18 C 279.81 368.87 278.75 368.30 278.64 367.00 C 277.19 362.87 277.91 358.39 279.46 354.41 C 275.40 358.80 270.62 362.45 265.56 365.62 C 263.32 366.74 262.76 369.35 261.71 371.41 C 258.91 377.95 254.84 384.58 255.53 391.96 C 256.44 394.63 260.04 393.01 261.77 392.00 C 269.87 386.36 274.89 377.54 279.95 369.30 C 280.82 371.27 279.12 372.90 278.31 374.54 C 273.69 382.07 268.82 390.30 260.54 394.25 C 257.32 395.60 252.68 397.01 250.15 393.68 C 246.70 388.71 248.43 382.24 250.08 376.92 C 244.97 382.54 239.89 388.31 233.72 392.80 C 231.05 394.63 227.73 396.59 224.40 395.36 C 221.65 394.55 220.02 392.02 218.49 389.79 C 216.39 392.14 214.08 394.58 210.91 395.37 C 208.10 396.28 204.56 395.63 202.85 393.06 C 200.57 389.44 200.96 384.90 201.34 380.83 C 195.46 387.50 188.47 395.08 179.03 395.75 C 174.55 395.73 173.11 390.62 172.65 387.04 C 169.50 390.32 166.75 394.81 161.87 395.54 C 159.29 396.08 155.82 395.80 154.53 393.12 C 153.20 389.59 154.74 385.76 155.78 382.38 C 152.07 386.93 146.54 388.94 141.06 390.31 C 136.82 394.20 131.02 397.48 125.09 395.54 C 122.00 394.99 120.49 392.07 119.95 389.26 C 117.19 391.55 114.41 394.01 111.01 395.31 C 107.72 396.61 102.78 395.07 102.33 391.13 C 101.51 385.14 104.63 379.60 107.43 374.56 C 109.57 370.97 111.26 367.11 113.68 363.69 C 115.05 361.46 117.83 363.32 119.85 363.22 C 121.25 362.24 122.50 361.07 123.82 360.00 C 119.48 368.86 114.65 377.46 110.17 386.24 C 109.24 388.18 108.49 390.52 109.46 392.59 C 111.73 394.71 114.36 391.62 116.28 390.36 C 119.03 388.67 120.30 385.65 122.29 383.32 C 127.45 380.82 130.60 375.87 134.56 371.94 C 129.65 367.98 126.83 361.85 127.17 355.53 C 125.68 355.29 123.85 355.67 122.74 354.39 C 120.22 352.14 121.41 347.62 124.25 346.16 C 125.89 345.00 127.92 345.68 129.74 345.83 C 132.70 341.69 136.98 338.31 142.06 337.30 C 140.48 339.06 138.13 339.71 136.20 340.98 C 133.81 342.39 132.09 344.63 130.54 346.89 C 131.20 349.62 130.62 352.46 128.60 354.48 C 127.82 360.52 130.46 366.38 134.85 370.44 C 134.83 366.12 134.73 361.23 137.73 357.76 C 139.13 356.06 141.49 356.59 143.38 356.73 C 143.32 358.77 143.18 360.82 142.94 362.86 C 141.54 361.29 142.48 358.69 140.87 357.38 C 138.63 359.54 138.14 363.08 139.72 365.78 L 139.90 363.34 C 140.39 363.87 140.89 364.41 141.38 364.96 C 139.07 367.85 142.43 371.10 142.84 374.16 C 148.09 374.81 153.65 374.14 158.10 371.09 C 166.88 365.21 172.90 354.63 171.82 343.90 C 171.49 337.87 167.78 332.36 162.62 329.35 C 154.92 324.89 145.20 324.57 136.93 327.59 C 126.95 331.34 118.28 338.69 113.12 348.04 C 102.62 365.76 89.71 381.91 75.57 396.85 C 75.00 396.77 73.86 396.62 73.29 396.55 C 75.51 390.80 79.18 385.39 79.23 379.03 C 79.46 370.67 79.41 362.30 79.97 353.97 C 81.25 344.78 83.16 334.76 90.38 328.24 C 81.15 324.85 71.04 320.52 61.13 323.74 C 52.72 326.17 47.02 335.38 48.95 343.99 C 49.78 348.22 53.19 351.11 55.79 354.31 C 52.69 353.38 49.71 351.76 47.84 349.05 C 42.99 342.86 44.45 333.28 50.07 328.07 M 287.88 325.73 C 284.80 328.45 282.73 332.07 280.50 335.47 C 275.07 344.22 270.02 353.25 266.21 362.83 C 275.36 357.15 281.35 347.83 286.46 338.60 C 288.30 334.95 290.36 331.15 290.39 326.97 C 290.66 325.22 288.99 324.67 287.88 325.73 M 93.97 327.31 C 94.53 328.81 98.42 327.81 97.75 326.03 C 96.48 325.23 94.75 326.24 93.97 327.31 M 361.43 326.65 C 355.23 328.04 350.26 333.74 349.34 339.95 C 348.75 343.27 352.83 343.93 355.13 344.88 C 361.72 347.04 371.32 345.38 373.58 337.88 C 375.57 330.93 368.00 324.65 361.43 326.65 M 213.27 375.37 C 210.09 380.93 206.13 387.27 207.98 393.93 C 212.43 394.60 215.58 390.95 217.58 387.51 C 221.28 381.18 225.12 374.91 228.28 368.29 C 229.13 366.73 229.41 364.03 227.15 363.61 C 220.52 364.16 216.52 370.27 213.27 375.37 M 162.22 370.11 C 156.95 374.49 150.02 376.62 143.19 375.62 C 143.65 379.92 143.23 384.27 141.86 388.39 C 151.38 386.47 158.41 378.67 162.22 370.11 M 126.97 382.25 C 129.06 383.81 131.10 385.44 133.15 387.05 C 136.63 383.05 137.79 377.49 136.00 372.48 C 133.00 375.74 130.09 379.09 126.97 382.25 M 126.07 388.76 C 127.96 389.92 130.11 388.82 132.05 388.41 C 130.08 386.99 128.38 384.96 126.01 384.24 C 123.44 384.30 123.94 388.26 126.07 388.76 Z" />
<path fill="#272526" opacity="1.00" d=" M 635.53 336.28 C 646.15 330.79 657.95 326.46 670.09 327.27 C 673.56 327.41 677.98 329.10 678.20 333.13 C 678.42 338.16 673.48 341.23 669.17 342.29 C 659.54 344.78 649.55 342.42 639.89 341.34 C 629.67 350.37 619.61 360.39 614.60 373.37 C 612.46 378.64 610.51 385.22 614.10 390.32 C 613.82 379.99 618.88 370.25 625.96 363.02 C 630.80 357.96 637.87 354.75 644.94 355.65 C 648.98 356.07 651.50 360.16 651.69 363.94 C 652.29 371.89 648.49 379.45 643.36 385.29 C 637.63 392.37 629.16 397.35 619.89 397.39 C 622.94 399.74 626.90 400.56 630.61 399.42 C 638.40 397.07 643.84 390.59 648.98 384.66 C 648.97 385.39 649.83 386.28 649.02 386.89 C 644.57 392.81 639.06 398.48 631.86 400.84 C 627.17 402.43 621.47 401.72 618.09 397.85 C 615.26 394.63 610.86 393.02 608.82 389.09 C 604.39 381.31 605.10 371.45 608.68 363.48 C 613.36 353.42 621.61 345.52 630.50 339.11 C 616.48 337.60 601.13 335.97 588.43 343.49 C 575.78 350.95 565.17 363.88 563.96 378.92 C 563.46 378.16 562.98 377.40 562.51 376.63 C 562.71 375.35 562.88 374.08 563.00 372.80 C 559.20 378.77 554.83 385.00 548.21 388.05 C 545.21 389.54 541.40 389.34 539.04 391.96 C 535.27 395.65 529.46 396.83 524.47 395.33 C 522.54 394.74 521.43 393.01 520.43 391.40 C 516.79 394.02 512.42 395.90 507.86 395.73 C 504.70 395.27 502.57 391.99 502.65 388.94 C 502.55 384.85 504.90 381.26 506.52 377.68 C 498.51 386.44 488.23 394.19 476.10 395.55 C 471.86 396.02 466.63 395.89 463.69 392.31 C 461.08 388.83 461.85 384.29 462.38 380.31 C 456.16 386.58 449.42 393.31 440.57 395.48 C 435.03 397.08 428.79 392.79 428.64 386.97 C 427.79 375.78 436.98 366.72 446.66 362.81 C 450.32 361.58 455.29 360.41 458.21 363.76 C 461.17 367.44 458.98 372.89 455.57 375.49 C 450.32 379.57 443.77 381.98 437.16 382.63 C 435.93 385.73 434.54 389.24 435.75 392.58 C 437.08 394.82 440.14 393.75 442.17 393.25 C 449.69 390.48 455.67 384.85 461.32 379.36 C 463.86 377.01 464.71 373.49 466.94 370.90 C 471.91 364.91 479.70 360.99 487.57 361.68 C 490.63 361.97 493.31 364.93 492.79 368.07 C 492.36 372.45 486.64 375.52 482.94 372.86 C 481.65 371.18 482.73 369.02 483.00 367.20 C 485.14 368.81 488.46 368.95 489.54 366.08 C 491.13 363.83 487.61 362.48 485.88 362.83 C 480.87 364.18 477.98 369.02 475.18 373.01 C 471.90 378.54 467.91 384.37 468.10 391.07 C 468.13 393.57 470.95 394.43 473.02 394.33 C 481.54 394.22 489.45 390.20 496.13 385.17 C 503.35 379.57 510.14 372.82 513.09 363.94 C 510.49 363.94 507.90 363.94 505.31 363.85 C 505.90 363.30 506.51 362.76 507.12 362.22 C 510.01 362.17 512.92 362.39 515.81 362.08 C 521.66 358.76 526.04 353.38 529.69 347.83 C 531.04 345.90 532.10 343.57 534.37 342.56 C 531.07 349.30 527.03 355.65 523.40 362.21 C 525.93 362.64 529.53 361.27 531.44 362.96 C 529.17 364.88 525.35 363.52 522.48 364.16 C 518.46 371.79 513.78 379.07 509.81 386.72 C 508.55 388.87 509.08 391.64 510.99 393.22 C 514.47 393.74 517.35 391.19 520.04 389.37 C 519.73 385.34 522.61 381.23 527.02 382.13 C 529.89 378.50 532.71 374.83 535.48 371.13 C 534.79 366.64 534.68 361.44 537.82 357.79 C 539.23 356.12 542.78 355.69 543.64 358.11 C 543.50 361.32 541.70 364.12 540.31 366.92 C 543.53 373.54 544.70 381.38 541.89 388.37 C 546.33 387.19 550.78 385.44 553.99 382.02 C 558.10 378.29 560.46 373.12 564.33 369.20 C 569.13 355.72 580.13 344.65 593.42 339.45 C 605.13 334.88 617.98 336.53 630.12 338.00 C 632.13 338.48 633.80 337.04 635.53 336.28 M 662.20 329.24 C 654.97 331.37 648.56 335.58 642.60 340.08 C 650.31 341.16 658.10 342.45 665.92 341.70 C 669.35 341.24 673.23 340.45 675.47 337.53 C 677.10 335.39 677.43 331.52 674.73 330.05 C 670.93 328.04 666.27 328.25 662.20 329.24 M 539.27 365.64 C 540.80 363.23 543.51 359.73 540.96 357.09 C 538.87 359.48 538.93 362.66 539.27 365.64 M 634.82 358.88 C 628.87 361.55 624.67 366.90 621.24 372.27 C 617.36 378.51 614.67 386.36 617.40 393.58 C 624.56 396.97 632.07 391.89 636.71 386.62 C 641.36 381.37 645.72 375.47 647.42 368.55 C 647.99 365.41 648.39 361.48 645.80 359.11 C 642.63 356.70 638.23 357.44 634.82 358.88 M 447.03 366.04 C 443.36 370.17 440.77 375.12 438.35 380.04 C 443.84 378.75 448.18 374.84 451.69 370.62 C 453.25 368.71 454.71 366.00 453.44 363.55 C 450.96 362.34 448.61 364.31 447.03 366.04 M 528.23 383.08 C 529.88 384.41 531.53 385.75 533.20 387.08 C 536.68 383.19 537.75 377.73 536.22 372.77 C 533.51 376.17 530.98 379.71 528.23 383.08 M 524.47 387.82 C 526.76 389.51 529.54 389.54 532.12 388.46 C 530.48 387.14 528.86 385.82 527.21 384.54 C 526.28 385.62 525.37 386.71 524.47 387.82 Z" />
<path fill="#272526" opacity="1.00" d=" M 417.16 329.14 C 420.17 327.85 423.89 330.83 423.18 334.06 C 422.41 340.40 418.58 345.80 414.74 350.70 C 410.43 356.18 404.84 360.39 399.18 364.36 C 398.53 363.97 397.88 363.58 397.25 363.19 C 404.20 358.25 410.20 351.91 414.77 344.71 C 416.97 340.92 419.48 336.67 418.65 332.11 C 417.98 329.67 415.09 331.63 414.20 333.00 C 406.43 342.79 400.60 353.96 394.88 365.03 L 396.08 364.25 C 396.48 364.76 396.89 365.27 397.30 365.79 C 399.09 365.64 400.88 365.58 402.67 365.61 C 400.90 369.04 396.66 367.15 393.64 367.59 C 386.05 381.74 379.56 396.50 371.09 410.17 C 373.13 411.14 375.40 412.43 375.84 414.87 C 376.96 418.63 372.51 422.09 369.00 421.06 C 367.96 420.39 366.96 419.66 365.99 418.89 C 367.13 418.33 368.24 417.74 369.34 417.11 C 369.89 416.07 369.10 414.88 369.05 413.81 C 366.62 416.98 364.41 420.32 361.68 423.25 C 362.57 427.11 366.06 430.10 370.03 430.29 C 373.32 430.62 376.45 429.00 378.77 426.79 C 383.18 422.66 385.97 417.19 388.69 411.87 C 396.07 397.17 402.62 382.06 410.46 367.59 C 408.33 367.60 406.21 367.60 404.10 367.61 C 404.45 366.92 404.81 366.25 405.18 365.58 C 407.40 365.52 409.62 365.56 411.85 365.46 C 417.18 356.18 423.14 347.19 430.10 339.05 C 433.77 335.14 437.57 330.77 442.86 329.12 C 445.20 328.17 447.80 329.78 448.70 331.98 C 449.11 335.52 447.74 338.96 446.14 342.05 C 440.76 352.08 432.17 360.19 422.19 365.58 C 424.19 365.56 426.19 365.58 428.19 365.65 C 426.48 369.03 422.19 367.13 419.20 367.61 C 410.18 384.65 402.51 402.51 391.36 418.31 C 386.53 424.97 379.72 431.74 370.93 431.75 C 366.30 431.99 362.13 428.98 360.38 424.79 C 356.39 428.37 351.60 431.61 346.04 431.74 C 341.96 432.08 337.67 430.09 335.71 426.42 C 332.28 419.89 337.42 410.35 345.03 410.44 C 349.11 410.40 352.26 416.04 349.16 419.14 C 346.86 422.01 342.07 421.96 340.59 418.32 C 341.43 418.10 343.12 417.64 343.96 417.42 C 343.57 416.38 344.16 414.65 342.95 414.16 C 339.01 413.28 337.38 418.13 336.51 421.07 C 334.78 427.75 343.50 432.27 348.97 429.59 C 354.97 426.79 358.38 420.68 361.42 415.10 C 369.51 399.39 376.44 383.10 384.89 367.57 C 382.69 367.57 380.50 367.68 378.32 367.72 C 378.73 366.98 379.16 366.25 379.61 365.54 C 381.78 365.55 383.95 365.54 386.13 365.54 C 391.76 355.95 397.90 346.58 405.25 338.21 C 408.63 334.56 412.30 330.71 417.16 329.14 M 436.05 337.98 C 430.30 346.71 424.94 355.74 420.52 365.22 C 429.73 358.28 438.46 349.97 443.22 339.28 C 444.13 336.60 445.59 332.80 443.04 330.62 C 439.80 332.00 438.08 335.31 436.05 337.98 Z" />
<path fill="#272526" opacity="1.00" d=" M 712.99 363.13 C 714.30 362.08 715.60 361.03 716.94 360.01 C 715.31 363.33 713.51 366.56 711.85 369.86 C 716.34 365.85 721.52 360.88 728.05 361.74 C 731.11 362.66 731.17 366.26 731.65 368.86 C 735.14 365.64 738.73 361.30 743.98 361.60 C 747.41 361.26 750.68 365.64 748.69 368.69 C 744.77 375.65 740.16 382.21 736.21 389.16 C 735.09 390.63 734.86 393.37 737.07 393.92 C 740.13 393.16 742.30 390.63 744.51 388.55 C 747.47 385.33 750.67 382.28 753.08 378.60 C 753.56 379.03 754.04 379.47 754.54 379.92 C 750.15 384.06 746.53 388.95 742.01 392.95 C 739.57 394.96 736.13 396.52 732.98 395.34 C 729.92 394.17 727.59 390.35 729.23 387.22 C 732.69 379.71 738.66 373.59 741.80 365.91 C 741.33 365.52 740.40 364.73 739.93 364.34 C 736.18 365.86 733.72 369.26 731.00 372.09 C 724.82 378.41 722.45 387.29 717.24 394.27 C 715.31 395.09 713.18 394.08 711.18 394.16 C 709.84 395.00 708.70 396.10 707.49 397.08 C 712.20 388.54 716.73 379.90 721.27 371.27 C 722.22 369.31 723.41 367.40 723.76 365.21 C 722.88 363.36 720.81 365.27 719.72 365.86 C 713.94 370.38 708.50 375.63 705.15 382.24 C 702.64 386.35 701.10 391.17 697.67 394.64 C 695.81 394.59 694.00 394.15 692.15 394.19 C 690.83 395.08 689.68 396.18 688.48 397.22 C 692.53 389.97 696.18 382.51 700.23 375.26 C 696.16 378.12 691.92 380.75 687.19 382.33 C 682.08 389.09 674.86 395.20 666.04 395.74 C 661.93 396.12 658.51 392.65 657.56 388.90 C 656.11 382.46 658.63 375.70 662.97 370.93 C 667.69 365.46 674.54 361.28 681.97 361.61 C 686.48 361.54 689.95 365.76 690.37 369.99 C 690.95 373.63 689.54 377.10 688.15 380.37 C 692.79 378.69 696.93 375.92 700.66 372.73 C 703.76 370.18 704.48 365.90 707.15 363.00 C 708.91 362.01 711.08 363.05 712.99 363.13 M 673.58 368.47 C 669.40 374.45 665.43 380.87 663.75 388.05 C 663.41 390.08 662.86 392.97 665.04 394.20 C 671.80 393.30 675.11 386.32 678.73 381.37 L 676.90 380.91 C 677.89 380.39 678.91 379.92 679.95 379.49 C 681.86 374.49 684.54 369.21 683.44 363.71 C 679.41 361.49 675.85 365.61 673.58 368.47 Z" />
<path fill="#272526" opacity="1.00" d=" M 831.15 363.19 C 832.38 362.13 833.62 361.06 834.88 360.03 C 830.10 369.44 824.95 378.66 820.07 388.03 C 819.36 389.82 817.87 391.92 819.36 393.72 C 822.50 394.68 825.12 392.19 827.46 390.48 C 833.64 385.34 839.22 379.51 844.61 373.56 C 847.35 370.74 848.42 366.82 850.75 363.72 C 852.19 361.55 854.97 363.18 857.02 363.29 C 858.33 362.19 859.66 361.12 861.00 360.05 C 859.34 363.45 857.55 366.78 855.74 370.11 C 859.86 366.96 863.90 363.35 869.00 361.93 C 871.44 361.25 874.90 361.34 876.14 364.00 C 877.12 366.67 876.34 369.63 874.87 371.97 C 870.68 378.79 865.99 385.31 862.08 392.30 C 864.63 395.29 868.24 392.50 870.38 390.48 C 875.71 385.15 880.56 379.35 885.71 373.85 C 888.90 370.63 889.65 365.73 893.02 362.68 C 894.83 362.42 896.59 363.06 898.37 363.40 C 899.75 362.24 901.09 361.01 902.49 359.86 C 897.96 368.79 892.96 377.49 888.40 386.40 C 887.46 388.49 886.17 392.04 888.75 393.42 C 893.04 392.06 897.28 389.57 899.62 385.60 C 903.82 378.42 907.53 370.94 911.93 363.88 C 913.22 361.47 916.18 363.16 918.21 363.39 C 919.55 362.23 920.88 361.05 922.25 359.90 C 916.26 372.53 909.44 384.80 901.35 396.22 C 907.45 392.56 912.07 387.07 917.33 382.38 C 922.07 378.09 926.49 373.45 931.38 369.32 C 932.18 371.13 930.16 372.06 929.26 373.23 C 922.52 379.46 916.01 385.94 909.21 392.11 C 906.42 394.76 902.78 396.26 899.89 398.74 C 895.06 406.90 891.94 416.45 884.57 422.84 C 880.87 426.03 875.21 427.70 870.70 425.32 C 867.74 423.72 865.89 420.33 866.43 416.97 C 866.89 412.54 870.39 409.24 873.93 406.96 C 879.55 403.44 885.91 401.38 892.17 399.29 C 893.57 396.44 895.00 393.61 896.46 390.79 C 893.23 392.88 889.95 395.46 885.98 395.77 C 883.17 395.88 880.80 393.59 880.52 390.87 C 879.40 386.18 882.04 381.90 884.05 377.89 C 879.67 382.54 875.75 387.64 871.08 392.02 C 868.12 394.75 863.78 396.87 859.76 395.25 C 856.42 393.66 855.91 389.15 857.02 386.01 C 860.28 378.64 866.36 372.77 869.34 365.30 C 867.21 364.05 864.75 365.56 862.96 366.74 C 854.21 373.41 849.04 383.38 843.84 392.80 C 842.97 395.05 840.59 394.65 838.72 394.29 C 836.33 393.46 834.78 395.85 833.05 397.02 C 836.42 390.61 839.84 384.23 843.08 377.75 C 836.66 384.00 831.05 391.73 822.57 395.31 C 818.14 397.03 814.03 393.51 812.11 389.80 C 809.04 393.62 803.99 397.24 798.90 395.14 C 794.25 392.87 794.57 386.86 794.64 382.47 C 789.49 388.67 783.57 395.13 775.51 397.26 C 772.67 398.11 769.81 397.23 767.65 395.30 C 765.02 396.73 762.12 398.28 759.03 397.74 C 756.74 397.49 756.13 395.04 755.21 393.37 C 751.95 400.10 748.58 406.78 745.77 413.71 C 743.15 419.56 741.20 425.87 737.09 430.92 C 735.08 430.51 733.08 430.03 731.12 429.47 C 729.54 430.81 727.96 432.16 726.35 433.46 C 736.25 416.42 744.98 398.74 754.31 381.40 C 754.62 380.58 755.24 378.94 755.56 378.12 L 756.41 378.48 C 755.74 378.04 755.08 377.61 754.43 377.17 C 759.60 373.68 761.18 367.37 764.92 362.73 C 766.76 362.37 768.56 363.07 770.37 363.39 C 771.75 362.19 773.15 360.99 774.54 359.79 L 773.04 362.89 C 775.61 361.69 778.86 360.81 781.38 362.65 C 785.21 365.44 785.80 370.90 784.47 375.16 C 782.25 383.42 775.54 389.33 769.11 394.47 C 773.36 398.08 778.99 394.77 782.77 392.05 C 788.46 387.32 794.21 382.08 797.26 375.20 C 801.48 367.38 809.77 361.23 818.95 361.61 C 820.97 361.40 822.63 362.66 824.27 363.65 C 826.32 362.10 828.84 362.86 831.15 363.19 M 770.12 368.06 C 765.19 373.93 761.65 380.79 758.36 387.66 C 761.32 387.30 763.89 388.79 766.20 390.45 C 771.02 383.90 775.59 376.92 777.95 369.07 C 778.29 367.45 779.18 364.65 776.91 364.08 C 774.03 363.82 771.88 366.12 770.12 368.06 M 818.15 364.07 C 813.50 365.70 810.45 369.89 807.81 373.82 C 805.08 378.21 802.31 382.77 801.26 387.89 C 801.03 389.85 800.52 392.29 802.05 393.88 C 806.69 394.56 809.57 390.05 811.68 386.65 C 815.40 380.03 819.64 373.63 822.47 366.57 C 823.21 364.00 820.06 362.95 818.15 364.07 M 756.87 389.85 C 757.42 391.54 757.56 393.71 759.28 394.73 C 761.69 395.22 763.35 393.14 765.06 391.84 C 762.71 389.98 759.85 388.55 756.87 389.85 M 876.81 406.69 C 873.17 408.56 869.49 411.14 867.92 415.08 C 867.10 417.47 867.07 421.13 869.98 422.10 C 873.60 423.10 876.90 420.69 879.35 418.30 C 884.36 413.16 887.78 406.77 891.61 400.76 C 886.56 402.44 881.59 404.35 876.81 406.69 Z" />
<path fill="#272526" opacity="1.00" d=" M 673.11 374.13 C 673.90 371.93 676.52 372.57 678.31 372.58 C 678.34 373.43 678.40 375.12 678.43 375.96 C 676.63 376.44 674.64 378.20 677.75 379.20 C 677.03 379.62 676.31 380.04 675.60 380.46 C 673.96 378.80 671.88 376.67 673.11 374.13 Z" />
<path fill="#272526" opacity="1.00" d=" M 562.00 378.12 C 562.51 378.85 563.03 379.60 563.54 380.35 C 563.18 384.02 563.52 387.71 563.41 391.39 C 560.32 387.71 562.51 382.45 562.00 378.12 Z" />
<path fill="#272526" opacity="1.00" d=" M 562.23 391.36 C 562.74 391.53 563.76 391.87 564.27 392.03 C 565.48 405.93 577.08 418.47 591.03 420.37 C 600.87 421.98 610.54 418.55 619.49 414.81 C 630.72 410.55 641.75 404.67 654.00 404.22 C 663.75 403.84 674.25 405.73 681.97 412.05 C 686.61 415.73 688.28 423.74 683.15 427.75 C 684.54 423.93 686.04 419.32 683.07 415.79 C 677.54 409.00 668.27 406.73 659.96 405.67 C 641.27 404.00 625.43 415.80 608.11 420.55 C 597.63 423.59 585.58 422.62 576.54 416.16 C 568.46 410.41 563.68 401.03 562.23 391.36 Z" />
</g>
</svg>
