<?xml version="1.0" encoding="UTF-8" standalone="no"?>
<!-- Generator: Adobe Illustrator 22.0.1, SVG Export Plug-In . SVG Version: 6.00 Build 0)  -->

<svg
   version="1.1"
   id="Layer_1"
   x="0px"
   y="0px"
   viewBox="0 0 300 300.00001"
   xml:space="preserve"
   sodipodi:docname="rust-wg.svg"
   inkscape:version="1.3 (0e150ed, 2023-07-21)"
   width="300"
   height="300"
   inkscape:export-filename="../../../../../../Downloads/rust-wg.png"
   inkscape:export-xdpi="1200"
   inkscape:export-ydpi="1200"
   xmlns:inkscape="http://www.inkscape.org/namespaces/inkscape"
   xmlns:sodipodi="http://sodipodi.sourceforge.net/DTD/sodipodi-0.dtd"
   xmlns="http://www.w3.org/2000/svg"
   xmlns:svg="http://www.w3.org/2000/svg"><defs
   id="defs19" /><sodipodi:namedview
   id="namedview19"
   pagecolor="#ffffff"
   bordercolor="#666666"
   borderopacity="1.0"
   inkscape:showpageshadow="2"
   inkscape:pageopacity="0.0"
   inkscape:pagecheckerboard="0"
   inkscape:deskcolor="#d1d1d1"
   inkscape:zoom="2.2989541"
   inkscape:cx="130.71161"
   inkscape:cy="183.34425"
   inkscape:window-width="1680"
   inkscape:window-height="892"
   inkscape:window-x="0"
   inkscape:window-y="25"
   inkscape:window-maximized="0"
   inkscape:current-layer="Layer_1" />&#10;<style
   type="text/css"
   id="style1">&#10;	.st0{fill:#BA9D5C;}&#10;</style>&#10;&#10;&#10;&#10;&#10;&#10;&#10;&#10;&#10;&#10;&#10;&#10;&#10;&#10;&#10;&#10;&#10;&#10;&#10;&#10;&#10;&#10;&#10;&#10;&#10;&#10;&#10;<g
   id="g1"
   transform="translate(21.75,37.55)"><polygon
     class="st0"
     points="14.9,0 13.2,0 0,37.2 1.7,37.2 "
     id="polygon1" /><polygon
     class="st0"
     points="25.4,7.5 25.8,1.8 24.2,1.8 24.6,7.5 20.1,4.5 19.3,5.9 24.3,8.3 19.3,10.7 20.1,12.1 24.6,9.1 24.2,14.9 25.8,14.9 25.4,9.1 29.9,12.1 30.7,10.7 25.7,8.3 30.7,5.9 29.9,4.5 "
     id="polygon2" /><path
     class="st0"
     d="m 50,23.6 h 14.2 l 3.1,8 h 1.8 L 57.4,1.5 H 56.9 L 45.2,31.6 H 47 Z M 56.3,7.4 c 0.4,-1 0.8,-2.5 0.8,-2.7 0,0.1 0.4,1.7 0.8,2.7 L 63.6,22 h -13 z"
     id="path2" /><path
     class="st0"
     d="m 86.4,31.9 c 5,0 9.2,-2.1 11.8,-5.9 l -1.3,-1 c -2.3,3.4 -6,5.3 -10.5,5.3 -7.4,0 -13,-5.8 -13,-13.6 0,-7.8 5.6,-13.6 13,-13.6 4.6,0 8,1.9 10.1,5 l 1.3,-1 C 95.4,3.5 91.4,1.5 86.4,1.5 c -8.1,0 -14.7,6.2 -14.7,15.2 0,9 6.5,15.2 14.7,15.2 z"
     id="path3" /><path
     class="st0"
     d="m 106.4,23.6 h 14.2 l 3.1,8 h 1.8 L 113.8,1.5 h -0.5 l -11.6,30.1 h 1.7 z m 6.3,-16.2 c 0.4,-1 0.8,-2.5 0.8,-2.7 0,0.1 0.4,1.7 0.8,2.7 L 120,22 h -13 z"
     id="path4" /><path
     class="st0"
     d="m 153.6,16.7 c 0,-9.1 -5.8,-14.9 -15.7,-14.9 h -6.1 v 29.7 h 6.1 c 9.9,0.1 15.7,-5.7 15.7,-14.8 z M 133.4,30 V 3.5 h 4.2 c 9.5,0 14.1,5.5 14.1,13.3 0,7.8 -4.6,13.2 -14.1,13.2 z"
     id="path5" /><polygon
     class="st0"
     points="177.1,1.8 160.3,1.8 160.3,31.6 177.7,31.6 177.7,30 162.1,30 162.1,17.4 175.6,17.4 175.6,15.8 162.1,15.8 162.1,3.4 177.1,3.4 "
     id="polygon5" /><path
     class="st0"
     d="m 186.2,8 c 0,-1 -0.1,-2.6 -0.1,-2.6 0,0 0.8,1.5 1.6,2.4 l 10,13.7 h 0.5 L 208.3,7.8 c 0.8,-1 1.6,-2.4 1.6,-2.4 0,0 -0.1,1.5 -0.1,2.6 v 23.6 h 1.7 V 1.5 H 211 L 198,19.2 185,1.5 h -0.4 v 30.1 h 1.7 V 8 Z"
     id="path6" /><path
     class="st0"
     d="m 227.6,31.6 h 1.8 V 20.7 l 10,-18.9 h -1.8 l -8.3,15.6 c -0.4,0.7 -0.8,1.7 -0.8,1.8 0,-0.2 -0.3,-1.1 -0.7,-1.8 L 219.5,1.8 h -1.9 l 10,18.8 z"
     id="path7" /><path
     class="st0"
     d="m 18.5,76.8 c 0,-4.1 -2.2,-6.6 -6.9,-8.8 L 8.9,66.7 c -3.6,-1.7 -5,-3.1 -5,-6.1 0,-3 2,-5 5.4,-5 3.2,0 4.8,1.7 6,3.6 l 1.4,-0.9 C 15.3,56 13.2,54 9.3,54 c -3.9,0 -7.1,2.5 -7.1,6.6 0,3.8 2,5.7 6,7.7 l 2.7,1.3 c 4,1.9 5.9,3.8 5.9,7.3 0,3.8 -3.1,6 -6.9,6 -4.6,0 -6.8,-2.5 -8.1,-5.1 l -1.5,0.7 c 1.4,3 4.2,5.9 9.7,5.9 4.9,0 8.5,-3 8.5,-7.6 z"
     id="path8" /><path
     class="st0"
     d="m 37.8,84.4 c 8.1,0 14.7,-6.2 14.7,-15.2 0,-9 -6.6,-15.2 -14.7,-15.2 -8.1,0 -14.7,6.2 -14.7,15.2 0,9 6.6,15.2 14.7,15.2 z m 0,-28.8 c 7.4,0 13,5.8 13,13.6 0,7.8 -5.5,13.6 -13,13.6 -7.4,0 -13,-5.8 -13,-13.6 0,-7.8 5.6,-13.6 13,-13.6 z"
     id="path9" /><polygon
     class="st0"
     points="61.1,55.9 76.1,55.9 76.1,54.3 59.3,54.3 59.3,84.1 61.1,84.1 61.1,70.6 74.7,70.6 74.7,69 61.1,69 "
     id="polygon9" /><polygon
     class="st0"
     points="100.3,54.3 80.3,54.3 80.3,55.9 89.5,55.9 89.5,84.1 91.2,84.1 91.2,55.9 100.3,55.9 "
     id="polygon10" /><path
     class="st0"
     d="m 132,78.2 c -0.3,0.8 -0.5,2 -0.5,2.1 0,-0.2 -0.3,-1.4 -0.5,-2.1 L 122.7,54 h -0.5 L 114,78.2 c -0.3,0.8 -0.6,2 -0.6,2.1 0,-0.2 -0.3,-1.4 -0.5,-2.1 l -7,-23.9 H 104 l 9,30.1 h 0.5 l 8.4,-24.7 c 0.3,-0.8 0.5,-2 0.5,-2.1 0,0.3 0.2,1.4 0.5,2.1 l 8.4,24.7 h 0.5 l 9,-30.1 H 139 Z"
     id="path10" /><path
     class="st0"
     d="M 146.8,76.1 H 161 l 3.1,8 h 1.8 L 154.2,54 h -0.5 L 142,84.1 h 1.7 z m 6.3,-16.2 c 0.4,-1 0.8,-2.5 0.8,-2.7 0,0.1 0.4,1.7 0.8,2.7 l 5.6,14.6 h -13 z"
     id="path11"
     style="opacity:0.921914;fill:#ba9d5c" /><path
     class="st0"
     d="m 189.8,63.1 c 0,-5.8 -3.9,-8.7 -10,-8.7 h -7.7 v 29.7 h 1.7 V 71.8 h 6 c 0.7,0 1.3,0 1.9,-0.1 l 7,12.4 h 2.1 l -7.2,-12.7 c 3.9,-1.2 6.2,-4 6.2,-8.3 z m -10.2,7.1 h -5.8 V 55.9 h 5.8 c 5.5,0 8.4,2.4 8.4,7.2 0,4.6 -2.9,7.1 -8.4,7.1 z"
     id="path12" /><polygon
     class="st0"
     points="214.2,54.3 197.4,54.3 197.4,84.1 214.8,84.1 214.8,82.5 199.2,82.5 199.2,69.9 212.7,69.9 212.7,68.3 199.2,68.3 199.2,55.9 214.2,55.9 "
     id="polygon12" /><polygon
     class="st0"
     points="15.5,121.5 1.9,121.5 1.9,108.4 16.9,108.4 16.9,106.8 0.1,106.8 0.1,136.5 1.9,136.5 1.9,123.1 15.5,123.1 "
     id="polygon13" /><path
     class="st0"
     d="m 35.8,106.5 c -8.1,0 -14.7,6.2 -14.7,15.2 0,9.1 6.6,15.2 14.7,15.2 8.1,0 14.7,-6.2 14.7,-15.2 0.1,-9.1 -6.5,-15.2 -14.7,-15.2 z m 0,28.8 c -7.4,0 -13,-5.8 -13,-13.6 0,-7.8 5.5,-13.6 13,-13.6 7.5,0 13,5.8 13,13.6 0,7.8 -5.6,13.6 -13,13.6 z"
     id="path13" /><path
     class="st0"
     d="m 74.7,126.5 c 0,5.7 -3.3,8.8 -8,8.8 -4.7,0 -8,-3.1 -8,-8.8 V 106.8 H 57 v 19.9 c 0,6.7 4.1,10.2 9.7,10.2 5.5,0 9.7,-3.5 9.7,-10.2 v -19.9 h -1.7 z"
     id="path14" /><path
     class="st0"
     d="m 105,130.9 c 0,0.9 0.1,2.2 0.1,2.2 0,0 -0.8,-1.2 -1.3,-2 L 85.4,106.4 h -0.5 v 30.1 h 1.6 v -24.1 c 0,-0.9 -0.1,-2.2 -0.1,-2.2 0,0 0.8,1.2 1.3,2 l 18.4,24.7 h 0.5 V 106.8 H 105 Z"
     id="path15" /><path
     class="st0"
     d="m 121.5,106.8 h -6.1 v 29.7 h 6.1 c 10,0 15.7,-5.7 15.7,-14.9 0,-9.2 -5.8,-14.8 -15.7,-14.8 z m -0.2,28.1 h -4.2 v -26.5 h 4.2 c 9.5,0 14.1,5.5 14.1,13.3 0,7.8 -4.6,13.2 -14.1,13.2 z"
     id="path16" /><path
     class="st0"
     d="m 151.4,106.5 -11.6,30.1 h 1.7 l 3,-8 h 14.2 l 3.1,8 h 1.8 L 152,106.5 Z m 6.8,20.5 h -13 l 5.6,-14.7 c 0.4,-1 0.8,-2.5 0.8,-2.7 0,0.1 0.4,1.7 0.8,2.7 z"
     id="path17" /><polygon
     class="st0"
     points="174.8,108.4 184,108.4 184,106.8 163.9,106.8 163.9,108.4 173.1,108.4 173.1,136.5 174.8,136.5 "
     id="polygon17" /><rect
     x="189.89999"
     y="106.8"
     class="st0"
     width="1.7"
     height="29.700001"
     id="rect17" /><path
     class="st0"
     d="m 213.3,106.5 c -8.1,0 -14.7,6.2 -14.7,15.2 0,9.1 6.6,15.2 14.7,15.2 8.1,0 14.7,-6.2 14.7,-15.2 0,-9.1 -6.6,-15.2 -14.7,-15.2 z m 0,28.8 c -7.4,0 -13,-5.8 -13,-13.6 0,-7.8 5.5,-13.6 13,-13.6 7.4,0 13,5.8 13,13.6 0,7.8 -5.6,13.6 -13,13.6 z"
     id="path18" /><path
     class="st0"
     d="m 254.9,106.8 v 24.1 c 0,0.9 0.1,2.2 0.1,2.2 0,0 -0.8,-1.2 -1.3,-2 l -18.4,-24.7 h -0.5 v 30.1 h 1.6 v -24.1 c 0,-0.9 -0.1,-2.2 -0.1,-2.2 0,0 0.8,1.2 1.3,2 l 18.4,24.7 h 0.5 v -30.1 z"
     id="path19" /></g><g
   id="text4"
   style="font-size:40px;-inkscape-font-specification:'sans-serif, Normal';text-align:center;text-anchor:middle"
   aria-label="Working Group for &#10;Rust Bindings"
   transform="matrix(0.78151795,0,0,0.78151795,-6.0481786,75.094517)"><path
     d="M 51.470062,170.42287 43.911469,199.5049 H 39.556 l -6.113281,-24.14063 -5.976563,24.14063 h -4.257812 l -7.695313,-29.08203 h 3.964844 l 6.113281,24.17968 6.015625,-24.17968 h 3.925781 l 6.074219,24.41406 6.074219,-24.41406 z m 22.050782,18.18359 q 0,5.33203 -2.734375,8.41797 -2.734375,3.08594 -7.324219,3.08594 -4.628906,0 -7.363281,-3.08594 -2.714844,-3.08594 -2.714844,-8.41797 0,-5.33203 2.714844,-8.41797 2.734375,-3.10547 7.363281,-3.10547 4.589844,0 7.324219,3.10547 2.734375,3.08594 2.734375,8.41797 z m -3.789063,0 q 0,-4.23828 -1.660156,-6.28906 -1.660156,-2.07031 -4.609375,-2.07031 -2.988281,0 -4.648438,2.07031 -1.640625,2.05078 -1.640625,6.28906 0,4.10156 1.660157,6.23047 1.660156,2.10937 4.628906,2.10937 2.929687,0 4.589844,-2.08984 1.679687,-2.10937 1.679687,-6.25 z m 23.085938,-6.91406 h -0.195313 q -0.820312,-0.19531 -1.601562,-0.27344 -0.761719,-0.0977 -1.816407,-0.0977 -1.699218,0 -3.28125,0.76172 -1.582031,0.74219 -3.046875,1.9336 v 15.48828 h -3.671875 v -21.81641 h 3.671875 v 3.22266 q 2.1875,-1.75781 3.847657,-2.48047 1.679687,-0.74219 3.417968,-0.74219 0.957032,0 1.386719,0.0586 0.429688,0.0391 1.289063,0.17578 z m 23.261721,17.8125 h -4.84375 l -8.75,-9.55078 -2.38282,2.26562 v 7.28516 H 96.431 v -30.39063 h 3.67187 v 19.49219 l 10.60547,-10.91797 h 4.62891 l -10.13672,10.07813 z m 7.8125,-25.46875 h -4.14063 v -3.8086 h 4.14063 z m -0.23438,25.46875 h -3.67187 v -21.81641 h 3.67187 z m 25.50781,0 h -3.67187 v -12.42188 q 0,-1.5039 -0.17578,-2.8125 -0.17578,-1.32812 -0.64453,-2.07031 -0.48828,-0.82031 -1.40625,-1.21094 -0.91797,-0.41015 -2.38282,-0.41015 -1.5039,0 -3.14453,0.74218 -1.64062,0.74219 -3.14453,1.89454 v 16.28906 h -3.67187 v -21.81641 h 3.67187 v 2.42188 q 1.71875,-1.42578 3.55469,-2.22657 1.83594,-0.80078 3.76953,-0.80078 3.53516,0 5.39063,2.12891 1.85546,2.12891 1.85546,6.13281 z m 24.76563,-2.48047 q 0,5.54687 -2.51953,8.14453 -2.51953,2.59766 -7.75391,2.59766 -1.73828,0 -3.39844,-0.25391 -1.64062,-0.23437 -3.24218,-0.68359 v -3.75 h 0.19531 q 0.89844,0.35156 2.85156,0.85937 1.95313,0.52735 3.90625,0.52735 1.875,0 3.10547,-0.44922 1.23047,-0.44922 1.91406,-1.25 0.6836,-0.76172 0.97657,-1.83594 0.29296,-1.07422 0.29296,-2.40234 v -1.99219 q -1.66015,1.32812 -3.18359,1.99219 -1.50391,0.64453 -3.84766,0.64453 -3.90625,0 -6.21093,-2.8125 -2.28516,-2.83203 -2.28516,-7.96875 0,-2.8125 0.78125,-4.84375 0.80078,-2.05078 2.16797,-3.53516 1.26953,-1.38672 3.08594,-2.14844 1.8164,-0.78125 3.61328,-0.78125 1.89453,0 3.16406,0.39063 1.28906,0.37109 2.71484,1.15234 l 0.23438,-0.9375 h 3.4375 z m -3.67188,-3.51563 v -11.89453 q -1.46484,-0.66406 -2.73437,-0.9375 -1.25,-0.29297 -2.5,-0.29297 -3.02734,0 -4.76563,2.03125 -1.73828,2.03125 -1.73828,5.89844 0,3.67188 1.28907,5.56641 1.28906,1.89453 4.27734,1.89453 1.60156,0 3.20312,-0.60547 1.6211,-0.625 2.96875,-1.66016 z m 49.51172,3.84766 q -2.38281,1.09375 -5.21484,1.91406 -2.8125,0.80078 -5.44922,0.80078 -3.39844,0 -6.23047,-0.9375 -2.83203,-0.9375 -4.82422,-2.8125 -2.01172,-1.89453 -3.10547,-4.72656 -1.09375,-2.85156 -1.09375,-6.66015 0,-6.97266 4.0625,-10.9961 4.08204,-4.04297 11.19141,-4.04297 2.48047,0 5.05859,0.60547 2.59766,0.58594 5.58594,2.01172 v 4.58984 h -0.35156 q -0.60547,-0.46875 -1.75781,-1.23046 -1.15235,-0.76172 -2.26563,-1.26954 -1.34765,-0.60546 -3.0664,-0.99609 -1.69922,-0.41016 -3.86719,-0.41016 -4.88281,0 -7.73438,3.14454 -2.83203,3.125 -2.83203,8.47656 0,5.64453 2.96875,8.78906 2.96875,3.125 8.08594,3.125 1.875,0 3.73047,-0.37109 1.875,-0.3711 3.28125,-0.95703 v -7.12891 h -7.79297 v -3.39844 h 11.62109 z m 20.07813,-15.66406 h -0.19531 q -0.82032,-0.19531 -1.60157,-0.27344 -0.76172,-0.0977 -1.8164,-0.0977 -1.69922,0 -3.28125,0.76172 -1.58203,0.74219 -3.04688,1.9336 v 15.48828 h -3.67187 v -21.81641 h 3.67187 v 3.22266 q 2.1875,-1.75781 3.84766,-2.48047 1.67969,-0.74219 3.41797,-0.74219 0.95703,0 1.38672,0.0586 0.42968,0.0391 1.28906,0.17578 z m 22.05078,6.91406 q 0,5.33203 -2.73438,8.41797 -2.73437,3.08594 -7.32421,3.08594 -4.62891,0 -7.36329,-3.08594 -2.71484,-3.08594 -2.71484,-8.41797 0,-5.33203 2.71484,-8.41797 2.73438,-3.10547 7.36329,-3.10547 4.58984,0 7.32421,3.10547 2.73438,3.08594 2.73438,8.41797 z m -3.78906,0 q 0,-4.23828 -1.66016,-6.28906 -1.66016,-2.07031 -4.60937,-2.07031 -2.98829,0 -4.64844,2.07031 -1.64063,2.05078 -1.64063,6.28906 0,4.10156 1.66016,6.23047 1.66016,2.10937 4.62891,2.10937 2.92968,0 4.58984,-2.08984 1.67969,-2.10937 1.67969,-6.25 z m 27.55859,10.89844 h -3.67187 v -2.42188 q -1.85547,1.46485 -3.55469,2.2461 -1.69922,0.78125 -3.75,0.78125 -3.4375,0 -5.35156,-2.08985 -1.91407,-2.10937 -1.91407,-6.17187 v -14.16016 h 3.67188 v 12.42188 q 0,1.66015 0.15625,2.85156 0.15625,1.17187 0.66406,2.01172 0.52734,0.85937 1.36719,1.25 0.83984,0.39062 2.4414,0.39062 1.42579,0 3.10547,-0.74218 1.69922,-0.74219 3.16407,-1.89454 v -16.28906 h 3.67187 z m 26.42578,-11.17188 q 0,2.65625 -0.76172,4.86328 -0.76172,2.1875 -2.14843,3.71094 -1.28907,1.44531 -3.04688,2.2461 -1.73828,0.78125 -3.69141,0.78125 -1.69921,0 -3.08593,-0.3711 -1.36719,-0.37109 -2.79297,-1.15234 v 9.14062 h -3.67188 v -29.86328 h 3.67188 v 2.28516 q 1.46484,-1.23047 3.28125,-2.05078 1.83594,-0.83985 3.90625,-0.83985 3.94531,0 6.13281,2.98828 2.20703,2.96875 2.20703,8.26172 z m -3.78906,0.0977 q 0,-3.94531 -1.34766,-5.89844 -1.34765,-1.95312 -4.14062,-1.95312 -1.58203,0 -3.1836,0.68359 -1.60156,0.68359 -3.0664,1.79688 v 12.36328 q 1.5625,0.70312 2.67578,0.95703 1.13281,0.2539 2.55859,0.2539 3.06641,0 4.78516,-2.07031 1.71875,-2.07031 1.71875,-6.13281 z M 343.6185,172.669 h -0.19531 q -0.60547,-0.17578 -1.58203,-0.35156 -0.97657,-0.19531 -1.71875,-0.19531 -2.36329,0 -3.4375,1.05468 -1.05469,1.03516 -1.05469,3.76953 v 0.74219 h 6.62109 v 3.08594 h -6.5039 v 18.73047 h -3.67188 v -18.73047 h -2.48047 v -3.08594 h 2.48047 v -0.72265 q 0,-3.88672 1.93359,-5.95704 1.9336,-2.08984 5.58594,-2.08984 1.23047,0 2.20703,0.11719 0.9961,0.11719 1.81641,0.27344 z m 20.91797,15.9375 q 0,5.33203 -2.73438,8.41797 -2.73437,3.08594 -7.32422,3.08594 -4.6289,0 -7.36328,-3.08594 -2.71484,-3.08594 -2.71484,-8.41797 0,-5.33203 2.71484,-8.41797 2.73438,-3.10547 7.36328,-3.10547 4.58985,0 7.32422,3.10547 2.73438,3.08594 2.73438,8.41797 z m -3.78906,0 q 0,-4.23828 -1.66016,-6.28906 -1.66016,-2.07031 -4.60938,-2.07031 -2.98828,0 -4.64843,2.07031 -1.64063,2.05078 -1.64063,6.28906 0,4.10156 1.66016,6.23047 1.66015,2.10937 4.6289,2.10937 2.92969,0 4.58985,-2.08984 1.67969,-2.10937 1.67969,-6.25 z m 23.08593,-6.91406 h -0.19531 q -0.82031,-0.19531 -1.60156,-0.27344 -0.76172,-0.0977 -1.81641,-0.0977 -1.69922,0 -3.28125,0.76172 -1.58203,0.74219 -3.04687,1.9336 v 15.48828 h -3.67188 v -21.81641 h 3.67188 v 3.22266 q 2.1875,-1.75781 3.84765,-2.48047 1.67969,-0.74219 3.41797,-0.74219 0.95703,0 1.38672,0.0586 0.42969,0.0391 1.28906,0.17578 z"
     id="path6-7" /><path
     d="m 96.655609,249.5049 h -5.019531 l -9.726563,-11.5625 h -5.449218 v 11.5625 h -3.867188 v -29.08203 h 8.144531 q 2.636719,0 4.394532,0.35156 1.757812,0.33203 3.164062,1.21094 1.582031,0.99609 2.460938,2.51953 0.898437,1.5039 0.898437,3.82812 0,3.14453 -1.582031,5.27344 -1.582031,2.10938 -4.355469,3.18359 z M 87.61264,228.60646 q 0,-1.25 -0.449218,-2.20703 -0.429688,-0.97656 -1.445313,-1.64063 -0.839844,-0.5664 -1.992187,-0.78125 -1.152344,-0.23437 -2.714844,-0.23437 h -4.550781 v 10.97656 h 3.90625 q 1.835937,0 3.203125,-0.3125 1.367187,-0.33203 2.324218,-1.21094 0.878907,-0.82031 1.289063,-1.875 0.429687,-1.07421 0.429687,-2.71484 z m 30.19531,20.89844 h -3.67187 v -2.42188 q -1.85547,1.46485 -3.55469,2.2461 -1.69922,0.78125 -3.75,0.78125 -3.4375,0 -5.35156,-2.08985 -1.914065,-2.10937 -1.914065,-6.17187 v -14.16016 h 3.671875 v 12.42188 q 0,1.66015 0.15625,2.85156 0.15625,1.17187 0.66406,2.01172 0.52735,0.85937 1.36719,1.25 0.83984,0.39062 2.44141,0.39062 1.42578,0 3.10547,-0.74218 1.69921,-0.74219 3.16406,-1.89454 v -16.28906 h 3.67187 z m 22.8125,-6.28906 q 0,2.98828 -2.48047,4.90234 -2.46093,1.91406 -6.73828,1.91406 -2.42187,0 -4.45312,-0.5664 -2.01172,-0.58594 -3.37891,-1.26954 v -4.12109 h 0.19531 q 1.73829,1.30859 3.86719,2.08984 2.12891,0.76172 4.08203,0.76172 2.42188,0 3.78907,-0.78125 1.36718,-0.78125 1.36718,-2.46093 0,-1.28907 -0.74218,-1.95313 -0.74219,-0.66406 -2.85157,-1.13281 -0.78125,-0.17578 -2.05078,-0.41016 -1.25,-0.23437 -2.28515,-0.50781 -2.8711,-0.76172 -4.08204,-2.22656 -1.1914,-1.48438 -1.1914,-3.63282 0,-1.34765 0.54687,-2.53906 0.56641,-1.1914 1.69922,-2.1289 1.09375,-0.91797 2.77344,-1.44532 1.69922,-0.54687 3.78906,-0.54687 1.95313,0 3.94531,0.48828 2.01172,0.46875 3.33985,1.15234 v 3.92578 h -0.19531 q -1.40625,-1.03515 -3.41797,-1.73828 -2.01172,-0.72265 -3.94532,-0.72265 -2.01171,0 -3.39843,0.78125 -1.38672,0.76172 -1.38672,2.28515 0,1.34766 0.83984,2.03125 0.82031,0.6836 2.65625,1.11328 1.01563,0.23438 2.26563,0.46875 1.26953,0.23438 2.10937,0.42969 2.5586,0.58594 3.94531,2.01172 1.38672,1.44531 1.38672,3.82813 z m 16.58203,6.09375 q -1.03515,0.27343 -2.26562,0.44921 -1.21094,0.17579 -2.16797,0.17579 -3.33984,0 -5.07812,-1.79688 -1.73829,-1.79687 -1.73829,-5.76172 v -11.60156 h -2.48046 v -3.08594 h 2.48046 v -6.26953 h 3.67188 v 6.26953 h 7.57812 v 3.08594 h -7.57812 v 9.94141 q 0,1.71875 0.0781,2.69531 0.0781,0.95703 0.54688,1.79687 0.42969,0.78125 1.17187,1.15235 0.76172,0.35156 2.30469,0.35156 0.89844,0 1.875,-0.25391 0.97656,-0.27343 1.40625,-0.44922 h 0.19531 z m 40.72266,-8.75 q 0,2.16796 -0.82031,3.82812 -0.82031,1.66016 -2.20703,2.73438 -1.64063,1.28906 -3.61328,1.83593 -1.95313,0.54688 -4.98047,0.54688 h -10.3125 v -29.08203 h 8.61328 q 3.18359,0 4.76562,0.23437 1.58203,0.23438 3.02735,0.97656 1.60156,0.83985 2.32422,2.16797 0.72265,1.3086 0.72265,3.14453 0,2.07032 -1.05469,3.53516 -1.05468,1.44531 -2.8125,2.32422 v 0.15625 q 2.94922,0.60547 4.64844,2.59766 1.69922,1.97265 1.69922,5 z m -6.50391,-13.10547 q 0,-1.05469 -0.35156,-1.77735 -0.35156,-0.72265 -1.13281,-1.17187 -0.91797,-0.52735 -2.22656,-0.64453 -1.3086,-0.13672 -3.24219,-0.13672 h -4.60938 v 8.39844 h 5 q 1.81641,0 2.89063,-0.17579 1.07422,-0.19531 1.99219,-0.78125 0.91797,-0.58593 1.28906,-1.5039 0.39062,-0.9375 0.39062,-2.20703 z m 2.48047,13.26172 q 0,-1.75782 -0.52734,-2.79297 -0.52734,-1.03516 -1.91406,-1.75782 -0.9375,-0.48828 -2.28516,-0.625 -1.32812,-0.15625 -3.24219,-0.15625 h -6.07422 v 10.82032 h 5.11719 q 2.53906,0 4.16016,-0.25391 1.62109,-0.27344 2.65625,-0.97656 1.09375,-0.76172 1.60156,-1.73828 0.50781,-0.97657 0.50781,-2.51953 z m 13.16407,-16.67969 h -4.14063 v -3.8086 h 4.14063 z m -0.23438,25.46875 h -3.67187 v -21.81641 h 3.67187 z m 25.50781,0 h -3.67187 v -12.42188 q 0,-1.5039 -0.17578,-2.8125 -0.17578,-1.32812 -0.64453,-2.07031 -0.48829,-0.82031 -1.40625,-1.21094 -0.91797,-0.41015 -2.38282,-0.41015 -1.5039,0 -3.14453,0.74218 -1.64062,0.74219 -3.14453,1.89454 v 16.28906 h -3.67187 v -21.81641 h 3.67187 v 2.42188 q 1.71875,-1.42578 3.55469,-2.22657 1.83594,-0.80078 3.76953,-0.80078 3.53516,0 5.39062,2.12891 1.85547,2.12891 1.85547,6.13281 z m 24.76563,0 h -3.67188 v -2.28516 q -1.58203,1.36719 -3.30078,2.12891 -1.71875,0.76172 -3.73047,0.76172 -3.90625,0 -6.21093,-3.00782 -2.28516,-3.00781 -2.28516,-8.33984 0,-2.77344 0.78125,-4.94141 0.80078,-2.16796 2.14844,-3.6914 1.32812,-1.48438 3.08593,-2.26563 1.77735,-0.78125 3.67188,-0.78125 1.71875,0 3.04687,0.3711 1.32813,0.35156 2.79297,1.11328 v -9.45313 h 3.67188 z m -3.67188,-5.3711 v -12.51953 q -1.48437,-0.66406 -2.65625,-0.91797 -1.17187,-0.2539 -2.55859,-0.2539 -3.08594,0 -4.80469,2.14844 -1.71875,2.14843 -1.71875,6.09375 0,3.88671 1.32813,5.91796 1.32812,2.01172 4.25781,2.01172 1.5625,0 3.16406,-0.68359 1.60156,-0.70313 2.98828,-1.79688 z m 14.84375,-20.09765 h -4.14062 v -3.8086 h 4.14062 z m -0.23437,25.46875 h -3.67188 v -21.81641 h 3.67188 z m 25.50781,0 h -3.67187 v -12.42188 q 0,-1.5039 -0.17579,-2.8125 -0.17578,-1.32812 -0.64453,-2.07031 -0.48828,-0.82031 -1.40625,-1.21094 -0.91797,-0.41015 -2.38281,-0.41015 -1.50391,0 -3.14453,0.74218 -1.64063,0.74219 -3.14453,1.89454 v 16.28906 h -3.67188 v -21.81641 h 3.67188 v 2.42188 q 1.71875,-1.42578 3.55469,-2.22657 1.83593,-0.80078 3.76953,-0.80078 3.53515,0 5.39062,2.12891 1.85547,2.12891 1.85547,6.13281 z m 24.76563,-2.48047 q 0,5.54687 -2.51954,8.14453 -2.51953,2.59766 -7.7539,2.59766 -1.73828,0 -3.39844,-0.25391 -1.64062,-0.23437 -3.24219,-0.68359 v -3.75 h 0.19532 q 0.89843,0.35156 2.85156,0.85937 1.95312,0.52735 3.90625,0.52735 1.875,0 3.10547,-0.44922 1.23047,-0.44922 1.91406,-1.25 0.68359,-0.76172 0.97656,-1.83594 0.29297,-1.07422 0.29297,-2.40234 v -1.99219 q -1.66016,1.32812 -3.18359,1.99219 -1.50391,0.64453 -3.84766,0.64453 -3.90625,0 -6.21094,-2.8125 -2.28515,-2.83203 -2.28515,-7.96875 0,-2.8125 0.78125,-4.84375 0.80078,-2.05078 2.16797,-3.53516 1.26953,-1.38672 3.08593,-2.14844 1.81641,-0.78125 3.61328,-0.78125 1.89454,0 3.16407,0.39063 1.28906,0.37109 2.71484,1.15234 l 0.23438,-0.9375 h 3.4375 z m -3.67188,-3.51563 v -11.89453 q -1.46484,-0.66406 -2.73437,-0.9375 -1.25,-0.29297 -2.5,-0.29297 -3.02735,0 -4.76563,2.03125 -1.73828,2.03125 -1.73828,5.89844 0,3.67188 1.28906,5.56641 1.28906,1.89453 4.27735,1.89453 1.60156,0 3.20312,-0.60547 1.62109,-0.625 2.96875,-1.66016 z m 26.48438,-0.29296 q 0,2.98828 -2.48047,4.90234 -2.46094,1.91406 -6.73828,1.91406 -2.42188,0 -4.45313,-0.5664 -2.01172,-0.58594 -3.37891,-1.26954 v -4.12109 h 0.19532 q 1.73828,1.30859 3.86718,2.08984 2.12891,0.76172 4.08204,0.76172 2.42187,0 3.78906,-0.78125 1.36719,-0.78125 1.36719,-2.46093 0,-1.28907 -0.74219,-1.95313 -0.74219,-0.66406 -2.85156,-1.13281 -0.78125,-0.17578 -2.05079,-0.41016 -1.25,-0.23437 -2.28515,-0.50781 -2.8711,-0.76172 -4.08203,-2.22656 -1.19141,-1.48438 -1.19141,-3.63282 0,-1.34765 0.54688,-2.53906 0.5664,-1.1914 1.69921,-2.1289 1.09375,-0.91797 2.77344,-1.44532 1.69922,-0.54687 3.78906,-0.54687 1.95313,0 3.94532,0.48828 2.01172,0.46875 3.33984,1.15234 v 3.92578 h -0.19531 q -1.40625,-1.03515 -3.41797,-1.73828 -2.01172,-0.72265 -3.94531,-0.72265 -2.01172,0 -3.39844,0.78125 -1.38672,0.76172 -1.38672,2.28515 0,1.34766 0.83984,2.03125 0.82032,0.6836 2.65625,1.11328 1.01563,0.23438 2.26563,0.46875 1.26953,0.23438 2.10937,0.42969 2.5586,0.58594 3.94532,2.01172 1.38672,1.44531 1.38672,3.82813 z"
     id="path7-6" /></g>&#10;</svg>
