<svg id="Layer_1" data-name="Layer 1" xmlns="http://www.w3.org/2000/svg" viewBox="0 0 453 473"><defs><style>.cls-1{fill:#fff;}</style></defs><title>scalaMigratationsSrc</title><path d="M11.84445,34.65089s19.6318-8.7212,30.4922-12.1729l4.7461,10.2993c8.8105-2.4482,19.708-7.03951,36.26369-6.3339l4.205,10.4135c6.50981.023,14.8926,2.1924,18.7325,9.5738,3.8408,7.3813,7.6582,21.2734,8.1211,23.437.4619,2.164-.26179,17.3086-13.0577,30.22509a158.0526,158.0526,0,0,1-58.748,37.44481l-9.5889-19.73,18.3438-20.0415s6.8379.2349,9.33-.0141l4.1407-11.0669s7.30269-1.5606,10.47169-3.9346l-4.8038-10.5703,3.8067-3.3589c-5.8291-6.1074-11.37109-10.8628-17.959-12.5669a85.8082,85.8082,0,0,0-23.9522-2.2349l-14.8691-8.7021Z"/><path class="cls-1" d="M14.83855,35.42478s6.6856-3.125,12.6182-5.80709a89.80376,89.80376,0,0,1,14.8584-4.5894l3.8584,8.79249-19.1484,8.334Z"/><path class="cls-1" d="M47.64235,34.07278s10.5302-3.66559,17.3505-4.84039a94.7371,94.7371,0,0,1,15.93749-.8594L62.45385,42.50339l-10.877,2.041Z"/><path class="cls-1" d="M66.83374,53.729l19.0556-15.3853s7.4766-.749,11.9571,1.688a16.7944,16.7944,0,0,1,6.5439,6.8033L71.526,55.83839S67.54754,54.42478,66.83374,53.729Z"/><path class="cls-1" d="M76.23314,67.27689l33.3476-9.3887s-.2148,4.28859-4.7959,10.64159c-3.3203,4.602-11.80859,9.59471-11.80859,9.59471l-20.47461-5.8076S76.86884,70.252,76.23314,67.27689Z"/><path class="cls-1" d="M66.31125,88.34719c2.917-.9058,8.26859-2.3321,9.81539-4.3599l20.416,5.5361c-8.6582,5.8101-23.69139,13.5479-35.34079,14.6236Z"/><path class="cls-1" d="M34.74775,118.002,52.241,99.27339s6.2402.0816,7.0508-.0927c.8115-.1724-1.336,5.6596-1.336,5.6596l4.3213,10.9556C55.78585,117.18359,35.46265,118.69729,34.74775,118.002Z"/><path d="M165.11054,42.21s10.6348-5.4131,14.1651-7.0811c3.5293-1.666,12.498-3.5264,12.498-3.5264l7.8027,8.002c8.0987-1.5454,23.9556-1.7583,32.437.4907l.8458,10.5147c10.6328,1.66889,23.1523,8.56,28.1308,15.8115l.3828,10.87839a58.98788,58.98788,0,0,1,2.4629,7.37211c.2207,1.69189.43361,17.5468-2.5898,25.52289-3.0215,7.97611-14.3125,22.47611-29.3008,29.45851-14.9859,6.98149-34.7593,12.1504-43.9917,12.72849l-1.5195-18.92619,8.875-22.2827c6.9375,1.2333,17.8125.8476,19.5546.2197l-.2168-8.7725a31.15549,31.15549,0,0,0,3.6153-.6147,23.74935,23.74935,0,0,0,5.9087-2.4283l.6328-12.4248s-6.7427-9.958-9.3765-12.35151c-2.63469-2.39409-12.7363-8.583-23.7588-6.96629l-25.4482-13.8306Z"/><path class="cls-1" d="M167.48554,43.04929l23.1172,13.7451a62.06845,62.06845,0,0,1,15.0928-7.5288l-14.4766-16.4004C186.34394,34.74019,173.58125,39.11429,167.48554,43.04929Z"/><path class="cls-1" d="M200.66234,40.51119a77.61682,77.61682,0,0,1,30.2065.7408l-11.8642,17.226c-1.5679-.0551-8.8755.1983-10.3833.7412l-.7989-10.4546Z"/><path class="cls-1" d="M231.59934,51.58109c4.1406.6435,19.6484,5.59569,27.58791,15.123l-32.958,6.5835c-.795-1.8901-3.15041-3.106-6.58991-3.7441Z"/><path class="cls-1" d="M226.78974,83.11869c.4678,1.3037.125,4.2314-1.18549,5.4042l30.00289,12.5196c4.58011-4.3819,9.502-13.0181,4.3145-24.0191Z"/><path class="cls-1" d="M225.47925,99.52439l29.18449,12.186c-8.26949,6.524-21.0781,13.1382-34.6279,12.7911l-4.437-20.6758C218.29225,103.51949,223.47725,101.94189,225.47925,99.52439Z"/><path class="cls-1" d="M188.29225,134.03909c3.21769.5351,21.81639,1.79,30.73579.3422l-3.8481-21.7001c-2.71.4609-15.3545.3774-19.17-.3843Z"/><path d="M335.99284,129.12839l-1.2705-11.51461c5.4405-3.51269,16-7.79789,23.88191-9.916l16.373,6.93551c3.83789-1.0469,19.26079-2.7471,23.94239-1.8066l1.042,11.332c8.49709-.3125,19.98729.0859,32.91309,5.9453l.8574,11.5596c5.4346,3.9804,6.3789,21.9814,4.9756,31.9179-1.4024,9.9356-20.1182,25.458-27.7588,29.49129-7.47459,3.94531-30.64749,14.61621-42.80268,17.622l-2.836-21.957,4.60549-16.74019c2.9023-.1114,18.5508-1.6299,20.9961-2.1065l-.3565-10.7832c2.0342-.4316,7.4952-1.8682,8.3858-3.2139,0,0-.2676-8.0869-.336-8.7031-.0664-.6162-8.8964-12.7549-12.664-14.8379-3.7676-2.082-13.1065-7.5049-22.8604-7.2617Z"/><path class="cls-1" d="M336.738,117.96439l25.5244,4.9902c3.0674-1.8984,8.58881-5.6289,14.1064-6.54881l-18-7.53709C355.35125,109.82469,343.04564,114.30319,336.738,117.96439Z"/><path class="cls-1" d="M379.21944,128.10989c1.7481-1.1289,8.4502-2.6485,10.6436-2.5782l7.9414-11.4892c-3.459-.2432-16.1739.5342-20.545,1.9521l.8223.378Z"/><path class="cls-1" d="M391.12084,136.94378c2.9463-.16789,6.3203.70811,7.7578,2.42291l32.76761-8.6074c-7.31452-2.628-20.21292-6.35651-32.65241-5.9219Z"/><path class="cls-1" d="M399.92454,150.25149l32.30171-7.97271c2.92188,3.89751,6.05468,11.416,1.29108,16.92771l-33.91119-4.8925C400.57394,152.67239,400.95484,152.63039,399.92454,150.25149Z"/><path class="cls-1" d="M400.48114,165.72509l33.38379,5.335c-9.2891,6.2011-19.2715,11.33-34.43159,13.0009l-7.6319-13.5439C395.55054,169.72019,399.446,168.52489,400.48114,165.72509Z"/><path class="cls-1" d="M367.50464,198.897c4.9267-.543,23.2861-1.03321,32.8232-3.2354l-8.4922-14.4062c-2.8428.31439-16.2529,2.1748-20.8867,1.917Z"/><path d="M245.08464,308.936l-6.5029-18.29,17.1377-23.5195c2.0801-.1836,11.1885.8994,13.2061.0234l2.2685-9.1436a49.32423,49.32423,0,0,0,10.4434-3.5751l-3.28619-10.3292a35.0694,35.0694,0,0,0,3.73829-3.5439c-2.6299-6.0557-10.40129-11.7969-14.7178-14.001-4.3173-2.20509-19.7529-2.94039-24.9199-2.13469l-15.80859-12.0889-3.51561-9.751c6.8027-3.6748,21.3887-10.96971,29.18261-12.914l3.62889,9.4619c9.085-3.9463,29.126-6.4121,36.5059-4.3389l3.3135,9.8369c6.5966,1.9346,17.1191,2.40239,22.50971,17.5781,5.39069,15.17289,8.29589,36.22659-11.11421,56.17289C287.74484,298.32568,264.13744,304.74068,245.08464,308.936Z"/><path class="cls-1" d="M238.87084,213.853a74.48291,74.48291,0,0,1,17.9306-7.7881l-5.1416-14.1738c-6.4707,1.4561-21.8769,8.8252-26.3447,11.7803Z"/><path class="cls-1" d="M261.51144,215.352c2.3389-.8457,7.876-1.7285,10.3447-1.1083l19.041-18.0811a99.6765,99.6765,0,0,0-34.4091,4.11819Z"/><path class="cls-1" d="M275.36494,223.88229l19.0234-17.7344c5.1778.627,14.2647.9092,21.25691,14.2803l-35.22761,7.68749C279.55244,226.12349,276.85514,224.58839,275.36494,223.88229Z"/><path class="cls-1" d="M283.55054,238.31488l35.5693-8.457c.1465,7.6045-2.5801,16.9072-15.6563,25.7451l-23.3056-11.0801C282.37764,242.88328,284.05244,241.02688,283.55054,238.31488Z"/><path class="cls-1" d="M306.23014,266.12838c-9.58689,5.9688-25.4677,13.543-38.7724,14.584l4.8672-21.5098c2.333-.3369,8.084-2.1572,10.6836-3.9638Z"/><path class="cls-1" d="M268.90594,290.79638c-6.09269,1.291-24.9463.4599-28.3193-.5567l15.6348-21.9003a123.36423,123.36423,0,0,0,12.4951.2099l-3.1436,12.7559Z"/><path d="M108.54954,242.65278c3.768-1.3183,19.2168-4.7099,31.0864-4.8974l1.5068,9.6074c9.9854-.377,26.753,1.3184,35.043,6.4062l.18851,9.9844a27.75784,27.75784,0,0,1,17.333,24.6817c.75339,15.4482-1.31891,37.8681-22.98541,50.4912-21.666,12.622-35.2304,16.3906-68.57759,13.7529l-.75391-17.709,20.9126-21.666c3.0142,1.1299,11.3042,4.5215,15.4487,4.5215l3.0147-8.291c3.0146.5664,9.6084.3769,10.3618-.5645l.5654-9.9844c1.5069-.7539,4.3311-1.4043,3.9566-2.8261-.9424-3.5801-3.9566-12.6241-9.9854-16.5801a44.92587,44.92587,0,0,0-22.9848-7.3477l-14.1304-19.2168Z"/><path class="cls-1" d="M109.571,243.61668c6.1303-1.6582,22.0361-4.8047,29.1601-4.6387l2.982,18.8867c-5.1358.3321-15.0767,2.1543-19.2188,3.8106Z"/><path class="cls-1" d="M142.70774,267.30908a17.586,17.586,0,0,1,10.60351,1.9873l21.53809-14.7461c-7.124-2.6504-16.4019-6.1289-33.4673-5.9629l1.6567,9.2773Z"/><path class="cls-1" d="M153.47625,279.23778l21.37309-14.457c5.4673,2.6933,15.9053,9.8164,17.23091,20.9179l-34.79341-.9941C156.62425,282.38428,155.63,280.23188,153.47625,279.23778Z"/><path class="cls-1" d="M173.19214,318.50338c6.7929-3.6445,19.2187-10.9355,19.2187-23.5273l-34.4614-.8282c0,2.3194-1.3257,4.6387-4.8047,5.7989Z"/><path class="cls-1" d="M152.15014,309.55618l20.3794,18.7216c-6.7935,3.1485-11.5972,7.2901-38.9351,5.4678l8.1187-22.8643C144.52954,310.88128,149.99584,311.71038,152.15014,309.55618Z"/><path class="cls-1" d="M103.27514,335.07178c3.6445,1.4902,17.562,7.123,28.1655,7.9511l.166-9.9404,5.4673-13.917c-2.4854-.8281-12.09469-3.4795-14.7456-4.8047Z"/><path d="M20.689,444.64355a7.896,7.896,0,0,0,1.48292,3.98731q2.02147,2.40234,6.92822,2.40234a14.8927,14.8927,0,0,0,4.77148-.63379q3.47827-1.21436,3.478-4.51464a3.32571,3.32571,0,0,0-1.70361-2.9834,18.4876,18.4876,0,0,0-5.40332-1.82227l-4.21338-.92383q-6.2124-1.37256-8.53516-2.98339-3.93458-2.69385-3.93408-8.42286a11.18823,11.18823,0,0,1,3.84863-8.6875q3.84962-3.45849,11.30664-3.458a17.33723,17.33723,0,0,1,10.62451,3.26074q4.39674,3.26074,4.61084,9.46582H36.13525a5.5743,5.5743,0,0,0-3.14013-4.99121,10.7663,10.7663,0,0,0-4.84522-.97657,9.22389,9.22389,0,0,0-5.14306,1.26758A4.01019,4.01019,0,0,0,21.085,428.168a3.33746,3.33746,0,0,0,1.895,3.11523,23.52813,23.52813,0,0,0,5.17041,1.61133l6.83008,1.61035a17.36936,17.36936,0,0,1,6.731,2.8252q3.47973,2.74658,3.48,7.94726a11.16653,11.16653,0,0,1-4.12354,8.8584q-4.1228,3.52441-11.64892,3.52442-7.686,0-12.08936-3.47168a11.48822,11.48822,0,0,1-4.40332-9.54493Z"/><path d="M67.50244,438.20117a6.67158,6.67158,0,0,0-1.085-2.90429,4.55386,4.55386,0,0,0-3.94336-1.74317,5.19161,5.19161,0,0,0-5.21435,3.77637,15.66719,15.66719,0,0,0-.74122,5.31933,14.4067,14.4067,0,0,0,.74122,5.083,5.03193,5.03193,0,0,0,5.082,3.59082,4.48466,4.48466,0,0,0,3.7583-1.42578,7.08394,7.08394,0,0,0,1.34961-3.69629H75.1333a12.58585,12.58585,0,0,1-2.48437,6.49512q-3.542,4.938-10.49268,4.9375-6.95142,0-10.22852-4.11817-3.27685-4.11914-3.27734-10.68164,0-7.40478,3.62061-11.52441,3.62109-4.11913,9.99072-4.11816a15.05528,15.05528,0,0,1,8.86719,2.42871q3.449,2.42871,4.08349,8.58105Z"/><path d="M91.75977,439.15137a11.87088,11.87088,0,0,0,3.00537-.66016,2.26329,2.26329,0,0,0,1.62256-2.13867,2.52979,2.52979,0,0,0-1.24463-2.44238,7.8739,7.8739,0,0,0-3.65332-.67286,4.797,4.797,0,0,0-3.82715,1.32032,5.4411,5.4411,0,0,0-1.0708,2.64062H79.33105a11.00367,11.00367,0,0,1,2.12159-6.20508q2.99634-3.80273,10.28906-3.80175a18.35772,18.35772,0,0,1,8.43262,1.874q3.68555,1.875,3.68554,7.07617v13.20215q0,1.37256.05274,3.32617a4.178,4.178,0,0,0,.44873,2.00684,2.69131,2.69131,0,0,0,1.10937.87109v1.10938H97.28564a8.35946,8.35946,0,0,1-.47558-1.63672q-.13257-.76611-.21094-1.74317a15.53078,15.53078,0,0,1-3.6123,2.87793,10.91587,10.91587,0,0,1-5.52393,1.39942,9.5309,9.5309,0,0,1-6.49316-2.23047A7.93432,7.93432,0,0,1,78.40674,449q0-5.30714,4.12305-7.68359a18.4051,18.4051,0,0,1,6.6499-1.84766Zm4.60107,3.51172a8.28742,8.28742,0,0,1-1.459.72656,12.33893,12.33893,0,0,1-2.02051.51465l-1.71289.3164a11.29442,11.29442,0,0,0-3.459,1.03028,3.43692,3.43692,0,0,0-1.77734,3.19433,3.34,3.34,0,0,0,1.08545,2.78614,4.12589,4.12589,0,0,0,2.64111.85839,7.86659,7.86659,0,0,0,4.54395-1.42578q2.07861-1.42676,2.1582-5.20215Z"/><path d="M118.11816,456.65723h-7.52539v-38.919h7.52539Z"/><path d="M136.85693,439.15137a11.88108,11.88108,0,0,0,3.00586-.66016,2.26316,2.26316,0,0,0,1.62305-2.13867,2.52988,2.52988,0,0,0-1.24609-2.44238,7.87215,7.87215,0,0,0-3.65235-.67286,4.79927,4.79927,0,0,0-3.82812,1.32032,5.441,5.441,0,0,0-1.07032,2.64062h-7.26074a11.00749,11.00749,0,0,1,2.12207-6.20508q2.99415-3.80273,10.28907-3.80175a18.35073,18.35073,0,0,1,8.43164,1.874q3.68555,1.875,3.68554,7.07617v13.20215q0,1.37256.05274,3.32617a4.18255,4.18255,0,0,0,.44922,2.00684,2.68171,2.68171,0,0,0,1.10937.87109v1.10938h-8.18555a8.38725,8.38725,0,0,1-.47461-1.63672q-.13184-.76611-.21093-1.74317a15.53609,15.53609,0,0,1-3.61328,2.87793,10.91276,10.91276,0,0,1-5.52344,1.39942,9.53345,9.53345,0,0,1-6.49414-2.23047A7.93686,7.93686,0,0,1,123.50391,449q0-5.30714,4.12255-7.68359a18.41122,18.41122,0,0,1,6.6504-1.84766Zm4.60157,3.51172a8.32116,8.32116,0,0,1-1.459.72656,12.31413,12.31413,0,0,1-2.02148.51465l-1.71289.3164a11.30341,11.30341,0,0,0-3.459,1.03028,3.43605,3.43605,0,0,0-1.77734,3.19433,3.33736,3.33736,0,0,0,1.08594,2.78614,4.12641,4.12641,0,0,0,2.64062.85839,7.86731,7.86731,0,0,0,4.54492-1.42578q2.07716-1.42676,2.15821-5.20215Z"/><path d="M196.98,417.73828h11.70215v38.919H201.104V430.333q0-1.13526.02637-3.18164t.02637-3.15528l-7.375,32.66114h-7.9043l-7.32226-32.66114q0,1.10889.02636,3.15528t.02637,3.18164v26.32422h-7.57715v-38.919h11.833l7.085,30.60156Z"/><path d="M223.33643,424.44531h-7.63086V417.501h7.63086Zm-7.63086,3.43164h7.63086v28.78028h-7.63086Z"/><path d="M244.86035,427.85059a9.04162,9.04162,0,0,1,4.42969,4.17187V427.877h7.34082v27.30176q0,5.5708-1.875,8.39649-3.22119,4.85742-12.35645,4.85839a16.84549,16.84549,0,0,1-9.0039-2.165,7.99312,7.99312,0,0,1-3.855-6.46972h8.18506a3.39041,3.39041,0,0,0,1.02929,1.90137,6.35918,6.35918,0,0,0,4.09278,1.03027q4.0664,0,5.43945-2.71973a13.79262,13.79262,0,0,0,.89746-5.8623v-1.84766a9.17679,9.17679,0,0,1-2.32324,2.77246,9.34061,9.34061,0,0,1-5.835,1.71582,11.0389,11.0389,0,0,1-8.8584-3.89453q-3.31421-3.89355-3.314-10.54785a17.80389,17.80389,0,0,1,3.19092-10.78613,10.53591,10.53591,0,0,1,9.04492-4.36914A9.89938,9.89938,0,0,1,244.86035,427.85059Zm2.5625,20.63476q1.81494-1.99365,1.81445-6.34961,0-4.09276-1.72265-6.23144a5.61747,5.61747,0,0,0-4.61328-2.13868,5.43919,5.43919,0,0,0-5.44336,3.72266,13.26215,13.26215,0,0,0-.78906,4.88477,11.17373,11.17373,0,0,0,.84179,4.46191,5.4831,5.4831,0,0,0,5.46875,3.64356A5.77664,5.77664,0,0,0,247.42285,448.48535Z"/><path d="M279.64062,427.2041q.145.01319.64649.04v7.709q-.71191-.07909-1.2666-.10546c-.37012-.01661-.66992-.02637-.89844-.02637q-4.541,0-6.09863,2.957a11.50763,11.50763,0,0,0-.8711,5.123v13.75586h-7.57812V427.877h7.18164v5.01758A15.9227,15.9227,0,0,1,273.792,428.96a8.26851,8.26851,0,0,1,5.49219-1.76855C279.4248,427.19141,279.544,427.19531,279.64062,427.2041Z"/><path d="M296.0957,439.15137a11.87043,11.87043,0,0,0,3.00586-.66016,2.26316,2.26316,0,0,0,1.623-2.13867,2.52925,2.52925,0,0,0-1.24512-2.44238,7.87662,7.87662,0,0,0-3.65332-.67286,4.797,4.797,0,0,0-3.82715,1.32032,5.44107,5.44107,0,0,0-1.07031,2.64062H283.667a11.00749,11.00749,0,0,1,2.12207-6.20508q2.99561-3.80273,10.28906-3.80175a18.35769,18.35769,0,0,1,8.43262,1.874q3.68554,1.875,3.68555,7.07617v13.20215q0,1.37256.05273,3.32617a4.17114,4.17114,0,0,0,.44922,2.00684,2.6848,2.6848,0,0,0,1.1084.87109v1.10938h-8.18457a8.32654,8.32654,0,0,1-.47559-1.63672q-.13184-.76611-.21093-1.74317a15.531,15.531,0,0,1-3.61231,2.87793,10.91528,10.91528,0,0,1-5.52344,1.39942,9.53349,9.53349,0,0,1-6.49414-2.23047A7.93719,7.93719,0,0,1,282.74316,449q0-5.30714,4.12305-7.68359a18.39911,18.39911,0,0,1,6.64941-1.84766Zm4.60157,3.51172a8.25446,8.25446,0,0,1-1.459.72656,12.325,12.325,0,0,1-2.02051.51465l-1.71289.3164a11.29425,11.29425,0,0,0-3.459,1.03028,3.436,3.436,0,0,0-1.77735,3.19433,3.33736,3.33736,0,0,0,1.08594,2.78614,4.12454,4.12454,0,0,0,2.64063.85839,7.86431,7.86431,0,0,0,4.54394-1.42578q2.07861-1.42676,2.15821-5.20215Z"/><path d="M311.81348,433.501V428.1416h4.01269v-8.02637h7.44629v8.02637h4.67285V433.501h-4.67285V448.71a3.41751,3.41751,0,0,0,.44922,2.2041q.44825.43653,2.74512.43653.34277,0,.72656-.01368c.25488-.00879.50586-.02148.752-.04v5.624l-3.56445.13281q-5.33349.1831-7.28711-1.84863a5.50368,5.50368,0,0,1-1.26758-3.98731V433.501Z"/><path d="M340.51367,424.44531h-7.63086V417.501h7.63086Zm-7.63086,3.43164h7.63086v28.78028h-7.63086Z"/><path d="M371.80273,453.13672q-3.64452,4.49707-11.06347,4.49707-7.41943,0-11.0625-4.49707a17.85265,17.85265,0,0,1,0-21.61914q3.64307-4.56446,11.0625-4.56446t11.06347,4.56446a17.85644,17.85644,0,0,1,0,21.61914Zm-6.0205-4.15918a13.43137,13.43137,0,0,0,0-13.32715,6.68707,6.68707,0,0,0-10.15235,0,13.34838,13.34838,0,0,0,0,13.32715,6.66535,6.66535,0,0,0,10.15235,0Z"/><path d="M404.03906,429.52734q2.82716,2.33643,2.82715,7.75v19.37989h-7.71V439.15137a8.05124,8.05124,0,0,0-.60254-3.48535q-1.10156-2.21778-4.19433-2.21778a5.19874,5.19874,0,0,0-5.21583,3.248,11.23144,11.23144,0,0,0-.73339,4.38281v15.57813h-7.52539V427.93066h7.28711v4.19727a12.76389,12.76389,0,0,1,2.73437-3.19434,9.47166,9.47166,0,0,1,5.86328-1.74218A11.03133,11.03133,0,0,1,404.03906,429.52734Z"/><path d="M419.69824,447.46875a5.00614,5.00614,0,0,0,1.03516,2.85156q1.40478,1.50439,5.19922,1.50489a7.95142,7.95142,0,0,0,3.542-.66016,2.2109,2.2109,0,0,0,.25586-3.90723q-1.05909-.66064-7.87305-2.27051-4.90577-1.21436-6.91211-3.0371a6.58077,6.58077,0,0,1-2.00586-5.17481,8.96986,8.96986,0,0,1,3.13477-6.85156q3.13623-2.86524,8.82519-2.86524a16.21838,16.21838,0,0,1,8.79786,2.15235q3.39843,2.15186,3.90234,7.43261H430.0752a4.457,4.457,0,0,0-.82032-2.29687q-1.24512-1.53222-4.2373-1.53223a6.096,6.096,0,0,0-3.50781.7666,2.20205,2.20205,0,0,0-1.0459,1.79493,1.96586,1.96586,0,0,0,1.1123,1.875q1.11182.6079,7.85645,2.08593a14.40954,14.40954,0,0,1,6.74121,3.19434,7.25455,7.25455,0,0,1,2.21777,5.41309,8.73786,8.73786,0,0,1-3.1875,6.98339q-3.189,2.70558-9.85449,2.70606-6.7998,0-10.041-2.86426a9.31157,9.31157,0,0,1-3.24121-7.30078Z"/></svg>