<svg id="Layer_1" data-name="Layer 1" xmlns="http://www.w3.org/2000/svg" viewBox="0 0 783.62633 194.23217"><title>se-expr</title><path d="M639.81326,83.75012c.02051-22.24973,10.27884-46.56655,27.32539-69.19984,3.236-4.29457,7.094-7.928,13.966-8.04517,6.60539-.11158,9.68084,2.66266,8.11577,7.868a64.55223,64.55223,0,0,1-4.33638,9.82631c-22.22013,44.70449-21.05317,89.3002.85087,133.81361.6373,1.29437,1.35662,2.56641,1.88457,3.89008,1.31048,3.28194,3.67687,6.96839-.83208,9.54875-4.74815,2.71845-9.8722,1.72954-14.21542-1.0991a22.36615,22.36615,0,0,1-4.95489-4.73392C650.78579,145.0094,639.51939,113.64331,639.81326,83.75012Z"/><path d="M745.596,84.509c.11789-18.21739-5.8109-39.8283-16.1854-60.70416-1.06787-2.15077-2.18871-4.29038-3.09253-6.48858-1.35491-3.30008-3.33687-6.99349,1.2575-9.47064,4.497-2.42694,9.3118-1.47569,13.5952.90243,3.37958,1.87739,5.43845,4.72138,7.47334,7.51235,36.2356,49.70065,33.548,99.23531-1.085,148.58725a22.89317,22.89317,0,0,1-4.6559,4.94175c-4.034,3.11876-9.00422,4.54283-14.00358,2.10195-5.43328-2.6529-3.47525-6.73546-1.71713-10.54184,13.58665-29.43431,18.63721-49.30592,18.41342-76.84052Z"/><path d="M64.56388,156.20334c-20.33117-.324-40.32868-4.68023-52.825-23.65608A48.90656,48.90656,0,0,1,8.342,126.39755c-5.01523-10.70251-4.37122-16.215,2.10218-18.84225,11.11158-4.51133,20.99021-1.82726,26.2607,7.13706,9.02913,15.67,30.07438,21.74,47.20585,13.61537,7.1975-3.32592,12.0926-8.40845,11.72888-16.24571-.34536-7.42726-5.88446-11.47026-12.80166-13.60923-8.94265-2.76392-18.11888-4.90135-27.2217-7.21689-8.85923-2.25567-17.69511-4.61574-25.63-9.00423C15.713,74.33761,7.8381,62.87656,9.04269,47.28652c1.17455-15.22459,10.1756-25.95781,25.33973-31.51636a87.18781,87.18781,0,0,1,61.81441.33167c11.96529,4.19805,20.87879,13.59758,23.77978,25.07642,2.08717,7.55471-.94266,11.17545-9.29469,11.94628-9.44316.87217-16.94432-.8476-22.63859-9.25146C80.25188,32.3721,55.773,30.164,44.58806,38.96865c-6.50011,5.11786-6.20647,12.64493.86256,17.68447,5.63254,4.01383,12.48134,5.51249,19.16163,7.2384,10.69782,2.76545,21.60585,4.88139,31.92327,8.8077,20.95016,7.97084,31.27426,22.65645,29.85612,42.44458-1.328,18.529-14.59855,32.8891-35.34016,38.205a109.39478,109.39478,0,0,1-26.48593,2.85452Z"/><path d="M186.32186,38.61541c-27.344-3.27106-49.03514,12.76252-54.46156,40.18569a79.67407,79.67407,0,0,0-.84894,25.72058c4.72311,36.94532,41.746,56.42615,75.11144,39.49036a39.37221,39.37221,0,0,0,15.59377-13.71486c5.10461-7.876,3.2888-12.46819-5.59948-14.80949-8.14123-2.144-14.7998-1.23371-21.00559,5.73848-9.93119,11.16014-27.22918,7.20834-32.80757-6.78788-3.12066-7.82755-.30886-12.73981,8.214-13.20547,8.05072-.43982,16.1451-.09543,24.22167-.09543V100.806c8.34335,0,16.6916.17462,25.03017-.05661,6.37713-.17462,10.15268-3.53463,9.83741-10.20445C228.52055,67.45346,217.59015,42.357,186.32186,38.61541Zm3.99546,44.32343c-3.46021.33306-6.97711.055-10.46965.055v-.034a95.42134,95.42134,0,0,1-9.66279-.055c-8.08954-.82623-10.85776-5.75786-7.12587-12.8061a19.683,19.683,0,0,1,34.34693-.59015C201.547,76.80419,198.72539,82.12878,190.31732,82.93884Z"/><circle cx="252.58957" cy="86.66696" r="13.95346"/><path d="M364.61745,127.8789c-17.68243-.21538-35.37086.01048-53.0533-.20939-9.0731-.11372-11.525-2.69878-11.899-11.60881-.1885-4.47594-.14363-8.96683-.06285-13.44883.202-11.24822,2.46837-13.5924,13.68371-13.69716,14.94479-.14211,29.8926.08981,44.83139-.20793,8.15464-.16156,11.14952-3.81022,10.81593-11.83316-.30518-7.3258-3.2403-10.19957-11.6357-10.32522-15.19165-.22737-30.38779-.07926-45.5809-.18547-4.00478-.02846-8.64972.00145-10.418-4.29646a26.386,26.386,0,0,1,.02241-21.07829c2.46837-5.50522,8.43881-4.38923,13.31422-4.42811,15.94112-.12564,31.8852.07182,47.82336-.14962,8.96683-.12414,11.73736-3.149,11.79125-11.691.05535-8.86516-2.82291-11.99174-12.21167-12.05157q-37.73593-.18251-75.472-.04487c-11.58036.04191-13.82281,2.37561-13.88711,14.23571-.10028,18.18206-.02695,36.36714-.02695,54.54926h.04493c0,18.93006-.13012,37.86164.05686,56.79025.08829,8.88461,2.588,11.75535,10.84585,11.82117q41.09895.32469,82.19341.00152c7.91218-.06279,10.72317-3.51854,10.63633-11.23181C376.34295,131.03691,373.33451,127.98366,364.61745,127.8789Z"/><path d="M447.14288,107.01222c-8.36194-12.5582-8.323-14.24054.21442-26.85328,5.59715-8.26988,11.2633-16.493,16.66254-24.89994,2.399-3.73535,3.606-7.801-1.88619-10.14062-8.90027-3.79147-21.10815-.15738-26.78626,7.91932C432.845,56.594,430.56586,60.33558,427.867,63.722c-3.44411,4.32419-7.2285,4.184-10.686-.095a30.28968,30.28968,0,0,1-4.28224-6.35539c-5.16085-11.46161-14.199-14.183-25.40683-13.00687-9.30659.97666-11.26925,4.32419-6.14591,12.404,5.62713,8.87107,11.70561,17.43383,17.55317,26.15384,7.12047,10.61886,7.149,13.23581.33731,23.68961-1.81724,2.79141-3.70495,5.53295-5.54016,8.31187-4.93744,7.48326-10.00379,14.88083-14.73428,22.50418-2.27455,3.66688-3.76194,7.78389,1.71376,10.25752,8.64689,3.90831,21.279.23367,26.77424-7.7963,3.18016-4.64506,6.05148-9.53,9.41007-14.02718,3.55947-4.76813,7.63475-4.59833,11.16577.09351a95.04657,95.04657,0,0,1,7.58232,11.5519c4.56559,8.37272,11.14331,12.34332,20.5234,11.13607l-.00152.00152c4.18331-.70719,9.67692,1.43309,12.2199-3.50484,2.55341-4.95818-1.76779-8.71686-4.16377-12.4507C458.65355,123.96005,452.821,115.54067,447.14288,107.01222Z"/><path d="M508.95112,48.831c-5.3284,2.95116-9.28426,3.65281-14.33259-.95855-5.13147-4.68679-12.09847-4.10516-18.23465-1.76945-6.00694,2.28488-5.2422,8.23639-5.27148,13.27862-.10307,18.4454-.04154,36.88931-.04154,55.33478l.077-.00006c0,19.98105-.17544,39.96516.07848,59.94309.1154,9.11194,3.2681,11.48607,13.37248,11.55377,10.63674.07231,13.66637-2.31416,14.028-11.7061.29539-7.67482-.03694-15.37579.28157-23.04911.39236-9.47659,3.108-11.03061,11.37987-6.99933,21.33042,10.39361,43.46252,3.51735,53.85-17.87616a67.43324,67.43324,0,0,0,.4524-60.19539C554.1446,44.16885,530.3939,36.9541,508.95112,48.831Zm31.02665,64.50676c-3.088,7.6902-8.41022,12.88314-16.94214,13.63711a19.10107,19.10107,0,0,1-19.62406-10.786,42.94093,42.94093,0,0,1-1.037-39.162,19.05,19.05,0,0,1,18.41775-11.56759c8.53342.02615,14.41723,4.54211,18.1946,11.94,3.10506,6.0777,3.682,12.69393,3.72973,19.38708A45.86592,45.86592,0,0,1,539.97777,113.33773Z"/><path d="M638.3348,48.45429c-3.1859-4.90342-8.7361-4.82757-13.93664-4.83841A20.00627,20.00627,0,0,0,612.719,47.119c-5.06125,3.55567-9.16625,3.32362-14.67775-.05881-12.22689-7.49984-22.66811-1.39259-22.78266,12.6462-.09745,12.09687-.02011,24.1953-.02011,36.29373l.06188.00157c0,13.3858-.05887,26.77.03094,40.15428.02937,4.464.55391,8.82278,5.47129,10.98129,12.51618,5.496,22.091-.557,22.26734-14.12391.02787-2.05949-.0077-4.11891.01553-6.17839.1485-13.63025-.64522-27.32865,1.84592-40.82581,2.423-13.129,7.89277-17.53415,21.13315-17.16281,4.88332.13616,8.7006-1.029,10.6873-5.73278C638.74171,58.40041,641.57644,53.44132,638.3348,48.45429Z"/></svg>