<svg width="529" height="160" version="1.1" xmlns="http://www.w3.org/2000/svg"><path fill="rgb(0,0,0)" stroke="rgb(0,0,0)" stroke-width="1" opacity="0" d="M 0 0 L 528.5 0 L 529 0.5 L 529 160 L 0.5 160 L 0 159.5 L 0 0 Z M 489 10 L 487 12 L 487 17 L 496 41 L 499 58 L 499 83 Q 497 84 498 90 L 495 104 L 487 124 L 487 128 Q 489 132 497 130 L 502 125 L 510 109 L 516 89 L 517 76 L 518 75 L 518 64 L 517 63 L 517 55 L 515 46 Q 510 28 501 15 Q 499 8 489 10 Z M 27 11 L 20 19 L 12 35 L 7 51 L 6 65 L 5 66 L 6 85 L 10 102 L 21 126 L 27 131 Q 34 133 36 129 L 36 125 L 28 105 L 24 84 L 24 59 Q 27 57 25 52 L 27 42 L 36 18 L 36 13 L 35 11 L 27 11 Z M 77 26 L 66 28 L 58 32 L 50 40 L 46 53 Q 49 54 47 60 L 52 69 Q 58 75 67 78 L 87 83 L 96 87 L 99 93 L 96 101 L 88 105 Q 76 107 71 102 Q 66 99 64 93 L 59 88 L 49 89 L 44 93 L 44 98 L 49 109 L 58 117 L 67 121 L 78 123 L 94 122 L 108 116 L 115 108 L 119 95 L 118 86 L 113 76 L 102 67 L 72 58 L 67 54 L 67 49 Q 70 44 76 43 Q 85 42 91 45 Q 95 48 97 54 L 104 56 L 113 55 L 115 53 Q 116 43 111 39 Q 107 32 99 29 L 85 26 L 77 26 Z M 210 27 L 207 28 L 203 34 L 203 115 L 204 118 L 210 121 L 269 121 L 273 119 L 274 117 Q 275 109 273 106 L 269 104 L 227 104 L 224 103 L 223 101 L 223 84 L 224 81 L 227 80 L 264 80 L 268 78 L 269 76 Q 270 68 268 65 L 264 63 L 227 63 L 224 62 L 223 60 Q 222 50 224 46 L 227 45 L 267 45 L 270 44 L 273 39 L 272 31 L 267 27 L 210 27 Z M 157 51 L 148 53 L 142 56 L 133 65 L 129 73 L 127 84 L 128 98 L 134 111 L 145 119 L 158 122 L 173 120 L 180 116 Q 186 112 187 103 L 183 99 Q 178 100 177 98 L 172 99 Q 169 105 162 107 L 155 106 Q 148 103 148 95 L 151 92 L 185 92 L 190 89 L 190 79 Q 189 69 184 64 Q 179 57 171 53 L 157 51 Z M 394 51 L 381 57 L 372 52 L 363 53 L 359 59 L 359 140 L 360 143 L 366 146 L 376 145 L 379 140 L 379 120 L 382 117 L 394 122 L 402 122 L 412 118 L 420 110 L 425 98 Q 423 91 426 90 L 424 72 L 417 60 L 406 52 L 394 51 Z M 290 52 L 285 55 L 286 61 L 302 84 Q 303 89 300 92 L 286 111 Q 283 113 284 119 L 289 121 L 301 120 L 314 104 L 318 105 L 325 117 L 333 121 Q 343 123 347 119 L 346 113 L 328 87 L 329 81 L 345 59 L 345 55 L 341 52 Q 331 51 327 54 L 318 66 L 315 67 L 308 59 L 303 53 L 290 52 Z M 444 52 L 441 53 L 437 59 L 437 115 L 438 118 L 444 121 L 454 120 L 457 115 L 457 83 L 460 74 L 467 69 Q 471 68 473 70 L 476 69 L 478 67 L 481 59 L 480 56 L 476 52 Q 463 50 459 56 L 450 52 L 444 52 Z "></path><path fill="rgb(0,0,0)" stroke="rgb(0,0,0)" stroke-width="1" opacity="0" d="M 157.5 66 L 161.5 66 L 169 71.5 L 170 76.5 L 167.5 79 L 150.5 79 Q 147.5 78.5 148 74.5 L 152.5 68 L 157.5 66 Z "></path><path fill="rgb(0,0,0)" stroke="rgb(0,0,0)" stroke-width="1" opacity="0" d="M 390.5 67 Q 399.7 66.8 403 72.5 Q 407.6 79.4 406 92.5 Q 404.8 100.3 399.5 104 Q 396.6 106.6 390.5 106 L 382 99.5 Q 377.4 92.6 379 79.5 Q 380.6 72.5 385.5 69 L 390.5 67 Z "></path><path fill="rgb(3,3,3)" stroke="rgb(3,3,3)" stroke-width="1" opacity="1" d="M 489.5 11 L 491 11.5 L 489 12 L 488.5 17 L 488 12.5 L 489.5 11 Z "></path><path fill="rgb(3,3,3)" stroke="rgb(3,3,3)" stroke-width="1" opacity="1" d="M 32.5 12 L 35 13.5 L 34.5 18 L 34 13 L 32.5 12 Z "></path><path fill="rgb(3,3,3)" stroke="rgb(3,3,3)" stroke-width="1" opacity="1" d="M 497.5 12 L 498.5 14 L 497.5 12 Z "></path><path fill="rgb(3,3,3)" stroke="rgb(3,3,3)" stroke-width="1" opacity="1" d="M 25.5 13 L 24.5 15 L 25.5 13 Z "></path><path fill="rgb(3,3,3)" stroke="rgb(3,3,3)" stroke-width="1" opacity="1" d="M 499.5 15 L 500.5 17 L 499.5 15 Z "></path><path fill="rgb(3,3,3)" stroke="rgb(3,3,3)" stroke-width="1" opacity="1" d="M 23.5 16 L 22.5 18 L 23.5 16 Z "></path><path fill="rgb(3,3,3)" stroke="rgb(3,3,3)" stroke-width="1" opacity="1" d="M 501.5 18 L 502.5 20 L 501.5 18 Z "></path><path fill="rgb(3,3,3)" stroke="rgb(3,3,3)" stroke-width="1" opacity="1" d="M 21.5 19 L 21 20.5 L 19.5 23 L 20 21.5 L 21.5 19 Z "></path><path fill="rgb(3,3,3)" stroke="rgb(3,3,3)" stroke-width="1" opacity="1" d="M 78.5 27 L 84 27.5 L 78.5 28 L 78.5 27 Z "></path><path fill="rgb(3,3,3)" stroke="rgb(3,3,3)" stroke-width="1" opacity="1" d="M 70.5 28 L 73 28.5 L 70.5 29 L 70.5 28 Z "></path><path fill="rgb(3,3,3)" stroke="rgb(3,3,3)" stroke-width="1" opacity="1" d="M 89.5 28 L 92 28.5 L 89.5 29 L 89.5 28 Z "></path><path fill="rgb(3,3,3)" stroke="rgb(3,3,3)" stroke-width="1" opacity="1" d="M 210.5 28 L 266 28.5 L 210.5 29 L 210.5 28 Z "></path><path fill="rgb(3,3,3)" stroke="rgb(3,3,3)" stroke-width="1" opacity="1" d="M 207.5 29 L 205.5 32 L 207.5 29 Z "></path><path fill="rgb(3,3,3)" stroke="rgb(3,3,3)" stroke-width="1" opacity="1" d="M 268.5 29 L 270.5 32 L 268.5 29 Z "></path><path fill="rgb(3,3,3)" stroke="rgb(3,3,3)" stroke-width="1" opacity="1" d="M 100.5 31 L 104 33.5 L 102.5 33 L 100.5 31 Z "></path><path fill="rgb(3,3,3)" stroke="rgb(3,3,3)" stroke-width="1" opacity="1" d="M 59.5 32 L 58.5 34 L 59.5 32 Z "></path><path fill="rgb(3,3,3)" stroke="rgb(3,3,3)" stroke-width="1" opacity="1" d="M 56.5 34 L 52.5 39 L 56.5 34 Z "></path><path fill="rgb(3,3,3)" stroke="rgb(3,3,3)" stroke-width="1" opacity="1" d="M 204.5 34 L 205 113.5 L 204 113.5 L 204.5 34 Z "></path><path fill="rgb(3,3,3)" stroke="rgb(3,3,3)" stroke-width="1" opacity="1" d="M 271.5 34 L 272 37.5 L 271 37.5 L 271.5 34 Z "></path><path fill="rgb(3,3,3)" stroke="rgb(3,3,3)" stroke-width="1" opacity="1" d="M 106.5 35 L 108.5 38 L 106.5 35 Z "></path><path fill="rgb(3,3,3)" stroke="rgb(3,3,3)" stroke-width="1" opacity="1" d="M 109.5 39 L 110.5 41 L 109.5 39 Z "></path><path fill="rgb(3,3,3)" stroke="rgb(3,3,3)" stroke-width="1" opacity="1" d="M 51.5 40 L 51 41.5 L 49.5 45 L 49 43.5 L 51.5 40 Z "></path><path fill="rgb(3,3,3)" stroke="rgb(3,3,3)" stroke-width="1" opacity="1" d="M 270.5 40 L 268.5 43 L 270.5 40 Z "></path><path fill="rgb(3,3,3)" stroke="rgb(3,3,3)" stroke-width="1" opacity="1" d="M 77.5 41 L 84 41.5 L 77.5 42 L 77.5 41 Z "></path><path fill="rgb(3,3,3)" stroke="rgb(3,3,3)" stroke-width="1" opacity="1" d="M 70.5 43 L 69.5 45 L 70.5 43 Z "></path><path fill="rgb(3,3,3)" stroke="rgb(3,3,3)" stroke-width="1" opacity="1" d="M 89.5 43 L 92 44.5 L 90.5 44 L 89.5 43 Z "></path><path fill="rgb(3,3,3)" stroke="rgb(3,3,3)" stroke-width="1" opacity="1" d="M 226.5 43 L 266 43.5 L 226.5 44 L 226.5 43 Z "></path><path fill="rgb(3,3,3)" stroke="rgb(3,3,3)" stroke-width="1" opacity="1" d="M 224.5 44 L 222.5 47 L 224.5 44 Z "></path><path fill="rgb(3,3,3)" stroke="rgb(3,3,3)" stroke-width="1" opacity="1" d="M 67.5 45 L 67 46.5 L 65.5 54 L 65 48.5 L 67.5 45 Z "></path><path fill="rgb(3,3,3)" stroke="rgb(3,3,3)" stroke-width="1" opacity="1" d="M 48.5 46 L 49 48.5 L 48 48.5 L 48.5 46 Z "></path><path fill="rgb(3,3,3)" stroke="rgb(3,3,3)" stroke-width="1" opacity="1" d="M 498.5 46 L 499 48.5 L 498 48.5 L 498.5 46 Z "></path><path fill="rgb(3,3,3)" stroke="rgb(3,3,3)" stroke-width="1" opacity="1" d="M 24.5 47 L 25 49.5 L 24 49.5 L 24.5 47 Z "></path><path fill="rgb(3,3,3)" stroke="rgb(3,3,3)" stroke-width="1" opacity="1" d="M 94.5 47 L 95.5 49 L 94.5 47 Z "></path><path fill="rgb(3,3,3)" stroke="rgb(3,3,3)" stroke-width="1" opacity="1" d="M 113.5 47 L 114 51.5 L 110.5 54 L 110.5 53 L 113 51.5 L 113.5 47 Z "></path><path fill="rgb(3,3,3)" stroke="rgb(3,3,3)" stroke-width="1" opacity="1" d="M 221.5 48 L 222 59.5 L 221 59.5 L 221.5 48 Z "></path><path fill="rgb(3,3,3)" stroke="rgb(3,3,3)" stroke-width="1" opacity="1" d="M 96.5 50 L 101 53.5 L 99.5 54 L 96.5 50 Z "></path><path fill="rgb(3,3,3)" stroke="rgb(3,3,3)" stroke-width="1" opacity="1" d="M 8.5 51 L 9 53.5 L 8 53.5 L 8.5 51 Z "></path><path fill="rgb(3,3,3)" stroke="rgb(3,3,3)" stroke-width="1" opacity="1" d="M 394.5 52 L 401 52.5 L 394.5 53 L 394.5 52 Z "></path><path fill="rgb(3,3,3)" stroke="rgb(3,3,3)" stroke-width="1" opacity="1" d="M 499.5 52 L 500 55.5 L 499 55.5 L 499.5 52 Z "></path><path fill="rgb(3,3,3)" stroke="rgb(3,3,3)" stroke-width="1" opacity="1" d="M 23.5 53 L 24 56.5 L 23 56.5 L 23.5 53 Z "></path><path fill="rgb(3,3,3)" stroke="rgb(3,3,3)" stroke-width="1" opacity="1" d="M 150.5 53 L 153 53.5 L 150.5 54 L 150.5 53 Z "></path><path fill="rgb(3,3,3)" stroke="rgb(3,3,3)" stroke-width="1" opacity="1" d="M 164.5 53 L 167 53.5 L 164.5 54 L 164.5 53 Z "></path><path fill="rgb(3,3,3)" stroke="rgb(3,3,3)" stroke-width="1" opacity="1" d="M 290.5 53 L 299 53.5 L 290.5 54 L 290.5 53 Z "></path><path fill="rgb(3,3,3)" stroke="rgb(3,3,3)" stroke-width="1" opacity="1" d="M 332.5 53 L 339 53.5 L 332.5 54 L 332.5 53 Z "></path><path fill="rgb(3,3,3)" stroke="rgb(3,3,3)" stroke-width="1" opacity="1" d="M 366.5 53 L 371 53.5 L 366.5 54 L 366.5 53 Z "></path><path fill="rgb(3,3,3)" stroke="rgb(3,3,3)" stroke-width="1" opacity="1" d="M 444.5 53 L 449 53.5 L 444.5 54 L 444.5 53 Z "></path><path fill="rgb(3,3,3)" stroke="rgb(3,3,3)" stroke-width="1" opacity="1" d="M 474.5 53 L 479 55.5 L 478.5 57 L 478 55 Q 473.8 55 474.5 53 Z "></path><path fill="rgb(3,3,3)" stroke="rgb(3,3,3)" stroke-width="1" opacity="1" d="M 104.5 54 L 108 54.5 L 104.5 55 L 104.5 54 Z "></path><path fill="rgb(3,3,3)" stroke="rgb(3,3,3)" stroke-width="1" opacity="1" d="M 287.5 54 L 289 54.5 L 287 55 L 288 59.5 L 286 58.5 Q 285.3 54.8 287.5 54 Z "></path><path fill="rgb(3,3,3)" stroke="rgb(3,3,3)" stroke-width="1" opacity="1" d="M 328.5 54 L 330 54.5 L 327.5 56 L 328.5 54 Z "></path><path fill="rgb(3,3,3)" stroke="rgb(3,3,3)" stroke-width="1" opacity="1" d="M 341.5 54 Q 343.8 53.3 343 55.5 L 344 57.5 L 341.5 61 L 342 59.5 L 343 56.5 L 341.5 54 Z "></path><path fill="rgb(3,3,3)" stroke="rgb(3,3,3)" stroke-width="1" opacity="1" d="M 363.5 54 L 361.5 57 L 363.5 54 Z "></path><path fill="rgb(3,3,3)" stroke="rgb(3,3,3)" stroke-width="1" opacity="1" d="M 387.5 54 L 389 54.5 L 384.5 57 L 385.5 55 L 387.5 54 Z "></path><path fill="rgb(3,3,3)" stroke="rgb(3,3,3)" stroke-width="1" opacity="1" d="M 441.5 54 L 439.5 57 L 441.5 54 Z "></path><path fill="rgb(3,3,3)" stroke="rgb(3,3,3)" stroke-width="1" opacity="1" d="M 66.5 55 L 68.5 58 L 66.5 55 Z "></path><path fill="rgb(3,3,3)" stroke="rgb(3,3,3)" stroke-width="1" opacity="1" d="M 171.5 55 L 174 56.5 L 172.5 56 L 171.5 55 Z "></path><path fill="rgb(3,3,3)" stroke="rgb(3,3,3)" stroke-width="1" opacity="1" d="M 303.5 55 L 305.5 58 L 303.5 55 Z "></path><path fill="rgb(3,3,3)" stroke="rgb(3,3,3)" stroke-width="1" opacity="1" d="M 375.5 55 L 381 58.5 L 378.5 59 L 376 58 L 375.5 55 Z "></path><path fill="rgb(3,3,3)" stroke="rgb(3,3,3)" stroke-width="1" opacity="1" d="M 409.5 55 L 410.5 57 L 409.5 55 Z "></path><path fill="rgb(3,3,3)" stroke="rgb(3,3,3)" stroke-width="1" opacity="1" d="M 453.5 55 Q 454.8 57.8 459 57.5 L 455.5 58 L 453.5 55 Z "></path><path fill="rgb(3,3,3)" stroke="rgb(3,3,3)" stroke-width="1" opacity="1" d="M 461.5 55 L 460.5 57 L 461.5 55 Z "></path><path fill="rgb(3,3,3)" stroke="rgb(3,3,3)" stroke-width="1" opacity="1" d="M 515.5 55 L 516 58.5 L 515 58.5 L 515.5 55 Z "></path><path fill="rgb(3,3,3)" stroke="rgb(3,3,3)" stroke-width="1" opacity="1" d="M 7.5 56 L 8 60.5 L 7 60.5 L 7.5 56 Z "></path><path fill="rgb(3,3,3)" stroke="rgb(3,3,3)" stroke-width="1" opacity="1" d="M 143.5 56 L 142.5 58 L 143.5 56 Z "></path><path fill="rgb(3,3,3)" stroke="rgb(3,3,3)" stroke-width="1" opacity="1" d="M 175.5 57 L 176.5 59 L 175.5 57 Z "></path><path fill="rgb(3,3,3)" stroke="rgb(3,3,3)" stroke-width="1" opacity="1" d="M 325.5 57 L 323.5 60 L 325.5 57 Z "></path><path fill="rgb(3,3,3)" stroke="rgb(3,3,3)" stroke-width="1" opacity="1" d="M 412.5 57 L 417.5 63 L 412.5 57 Z "></path><path fill="rgb(3,3,3)" stroke="rgb(3,3,3)" stroke-width="1" opacity="1" d="M 70.5 58 L 73 59.5 L 71.5 60 L 70.5 58 Z "></path><path fill="rgb(3,3,3)" stroke="rgb(3,3,3)" stroke-width="1" opacity="1" d="M 140.5 58 L 135.5 64 L 140.5 58 Z "></path><path fill="rgb(3,3,3)" stroke="rgb(3,3,3)" stroke-width="1" opacity="1" d="M 178.5 59 L 181.5 63 L 178.5 59 Z "></path><path fill="rgb(3,3,3)" stroke="rgb(3,3,3)" stroke-width="1" opacity="1" d="M 306.5 59 L 307.5 61 L 306.5 59 Z "></path><path fill="rgb(3,3,3)" stroke="rgb(3,3,3)" stroke-width="1" opacity="1" d="M 360.5 59 L 361 138.5 L 360 138.5 L 360.5 59 Z "></path><path fill="rgb(3,3,3)" stroke="rgb(3,3,3)" stroke-width="1" opacity="1" d="M 438.5 59 L 439 113.5 L 438 113.5 L 438.5 59 Z "></path><path fill="rgb(3,3,3)" stroke="rgb(3,3,3)" stroke-width="1" opacity="1" d="M 222.5 61 L 224.5 64 L 222.5 61 Z "></path><path fill="rgb(3,3,3)" stroke="rgb(3,3,3)" stroke-width="1" opacity="1" d="M 288.5 61 L 289.5 63 L 288.5 61 Z "></path><path fill="rgb(3,3,3)" stroke="rgb(3,3,3)" stroke-width="1" opacity="1" d="M 322.5 61 L 321.5 63 L 322.5 61 Z "></path><path fill="rgb(3,3,3)" stroke="rgb(3,3,3)" stroke-width="1" opacity="1" d="M 500.5 61 L 501 78.5 L 500 78.5 L 500.5 61 Z "></path><path fill="rgb(3,3,3)" stroke="rgb(3,3,3)" stroke-width="1" opacity="1" d="M 22.5 62 L 23 79.5 L 22 79.5 L 22.5 62 Z "></path><path fill="rgb(3,3,3)" stroke="rgb(3,3,3)" stroke-width="1" opacity="1" d="M 308.5 62 L 309.5 64 L 308.5 62 Z "></path><path fill="rgb(3,3,3)" stroke="rgb(3,3,3)" stroke-width="1" opacity="1" d="M 340.5 62 L 339.5 64 L 340.5 62 Z "></path><path fill="rgb(3,3,3)" stroke="rgb(3,3,3)" stroke-width="1" opacity="1" d="M 477.5 63 L 478 64.5 L 476 65.5 L 477.5 63 Z "></path><path fill="rgb(3,3,3)" stroke="rgb(3,3,3)" stroke-width="1" opacity="1" d="M 87.5 64 L 90 64.5 L 87.5 65 L 87.5 64 Z "></path><path fill="rgb(3,3,3)" stroke="rgb(3,3,3)" stroke-width="1" opacity="1" d="M 182.5 64 L 183.5 66 L 182.5 64 Z "></path><path fill="rgb(3,3,3)" stroke="rgb(3,3,3)" stroke-width="1" opacity="1" d="M 226.5 64 L 263 64.5 L 226.5 65 L 226.5 64 Z "></path><path fill="rgb(3,3,3)" stroke="rgb(3,3,3)" stroke-width="1" opacity="1" d="M 290.5 64 L 291.5 66 L 290.5 64 Z "></path><path fill="rgb(3,3,3)" stroke="rgb(3,3,3)" stroke-width="1" opacity="1" d="M 320.5 64 L 316.5 69 L 314 68.5 Q 319.1 68.1 320.5 64 Z "></path><path fill="rgb(3,3,3)" stroke="rgb(3,3,3)" stroke-width="1" opacity="1" d="M 418.5 64 L 419.5 66 L 418.5 64 Z "></path><path fill="rgb(3,3,3)" stroke="rgb(3,3,3)" stroke-width="1" opacity="1" d="M 51.5 65 L 57.5 72 L 51.5 65 Z "></path><path fill="rgb(3,3,3)" stroke="rgb(3,3,3)" stroke-width="1" opacity="1" d="M 134.5 65 L 133.5 67 L 134.5 65 Z "></path><path fill="rgb(3,3,3)" stroke="rgb(3,3,3)" stroke-width="1" opacity="1" d="M 264.5 65 L 267 66.5 L 265.5 66 L 264.5 65 Z "></path><path fill="rgb(3,3,3)" stroke="rgb(3,3,3)" stroke-width="1" opacity="1" d="M 310.5 65 L 312.5 68 L 310.5 65 Z "></path><path fill="rgb(3,3,3)" stroke="rgb(3,3,3)" stroke-width="1" opacity="1" d="M 338.5 65 L 337.5 67 L 338.5 65 Z "></path><path fill="rgb(3,3,3)" stroke="rgb(3,3,3)" stroke-width="1" opacity="1" d="M 516.5 65 L 517 72.5 L 516 72.5 L 516.5 65 Z "></path><path fill="rgb(3,3,3)" stroke="rgb(3,3,3)" stroke-width="1" opacity="1" d="M 6.5 66 L 7 74.5 L 6 74.5 L 6.5 66 Z "></path><path fill="rgb(3,3,3)" stroke="rgb(3,3,3)" stroke-width="1" opacity="1" d="M 152.5 66 L 151.5 68 L 152.5 66 Z "></path><path fill="rgb(3,3,3)" stroke="rgb(3,3,3)" stroke-width="1" opacity="1" d="M 165.5 66 L 166.5 68 L 165.5 66 Z "></path><path fill="rgb(3,3,3)" stroke="rgb(3,3,3)" stroke-width="1" opacity="1" d="M 387.5 66 L 389 66.5 L 380.5 73 L 385.5 67 L 387.5 66 Z "></path><path fill="rgb(3,3,3)" stroke="rgb(3,3,3)" stroke-width="1" opacity="1" d="M 396.5 66 Q 402.6 67.4 405 72.5 L 406 75.5 L 405 75.5 L 399.5 68 Q 395.8 67.8 396.5 66 Z "></path><path fill="rgb(3,3,3)" stroke="rgb(3,3,3)" stroke-width="1" opacity="1" d="M 292.5 67 L 293.5 69 L 292.5 67 Z "></path><path fill="rgb(3,3,3)" stroke="rgb(3,3,3)" stroke-width="1" opacity="1" d="M 267.5 68 L 268 70.5 L 267 70.5 L 267.5 68 Z "></path><path fill="rgb(3,3,3)" stroke="rgb(3,3,3)" stroke-width="1" opacity="1" d="M 336.5 68 L 334.5 71 L 336.5 68 Z "></path><path fill="rgb(3,3,3)" stroke="rgb(3,3,3)" stroke-width="1" opacity="1" d="M 148.5 70 L 148 71.5 L 147.5 73 L 147 71.5 L 148.5 70 Z "></path><path fill="rgb(3,3,3)" stroke="rgb(3,3,3)" stroke-width="1" opacity="1" d="M 169.5 70 L 171 72.5 L 170 72.5 L 169.5 70 Z "></path><path fill="rgb(3,3,3)" stroke="rgb(3,3,3)" stroke-width="1" opacity="1" d="M 106.5 71 L 112.5 78 L 106.5 71 Z "></path><path fill="rgb(3,3,3)" stroke="rgb(3,3,3)" stroke-width="1" opacity="1" d="M 295.5 71 L 296.5 73 L 295.5 71 Z "></path><path fill="rgb(3,3,3)" stroke="rgb(3,3,3)" stroke-width="1" opacity="1" d="M 59.5 72 L 60.5 74 L 59.5 72 Z "></path><path fill="rgb(3,3,3)" stroke="rgb(3,3,3)" stroke-width="1" opacity="1" d="M 267.5 72 L 268 74.5 L 267 74.5 L 267.5 72 Z "></path><path fill="rgb(3,3,3)" stroke="rgb(3,3,3)" stroke-width="1" opacity="1" d="M 333.5 72 L 332.5 74 L 333.5 72 Z "></path><path fill="rgb(3,3,3)" stroke="rgb(3,3,3)" stroke-width="1" opacity="1" d="M 459.5 72 L 458.5 74 L 459.5 72 Z "></path><path fill="rgb(3,3,3)" stroke="rgb(3,3,3)" stroke-width="1" opacity="1" d="M 146.5 74 L 147 76.5 L 146 76.5 L 146.5 74 Z "></path><path fill="rgb(3,3,3)" stroke="rgb(3,3,3)" stroke-width="1" opacity="1" d="M 171.5 74 L 172 76.5 L 171 76.5 L 171.5 74 Z "></path><path fill="rgb(3,3,3)" stroke="rgb(3,3,3)" stroke-width="1" opacity="1" d="M 297.5 74 L 298.5 76 L 297.5 74 Z "></path><path fill="rgb(3,3,3)" stroke="rgb(3,3,3)" stroke-width="1" opacity="1" d="M 331.5 75 L 329.5 78 L 331.5 75 Z "></path><path fill="rgb(3,3,3)" stroke="rgb(3,3,3)" stroke-width="1" opacity="1" d="M 266.5 76 L 265.5 78 L 264 77.5 L 266.5 76 Z "></path><path fill="rgb(3,3,3)" stroke="rgb(3,3,3)" stroke-width="1" opacity="1" d="M 423.5 76 L 424 78.5 L 423 78.5 L 423.5 76 Z "></path><path fill="rgb(3,3,3)" stroke="rgb(3,3,3)" stroke-width="1" opacity="1" d="M 129.5 77 L 130 79.5 L 129 79.5 L 129.5 77 Z "></path><path fill="rgb(3,3,3)" stroke="rgb(3,3,3)" stroke-width="1" opacity="1" d="M 299.5 77 L 303 81.5 L 301 80.5 L 299.5 77 Z "></path><path fill="rgb(3,3,3)" stroke="rgb(3,3,3)" stroke-width="1" opacity="1" d="M 147.5 78 L 148.5 80 L 147.5 78 Z "></path><path fill="rgb(3,3,3)" stroke="rgb(3,3,3)" stroke-width="1" opacity="1" d="M 170.5 78 L 169.5 80 L 170.5 78 Z "></path><path fill="rgb(3,3,3)" stroke="rgb(3,3,3)" stroke-width="1" opacity="1" d="M 188.5 78 L 189 81.5 L 188 81.5 L 188.5 78 Z "></path><path fill="rgb(3,3,3)" stroke="rgb(3,3,3)" stroke-width="1" opacity="1" d="M 226.5 78 L 263 78.5 L 226.5 79 L 226.5 78 Z "></path><path fill="rgb(3,3,3)" stroke="rgb(3,3,3)" stroke-width="1" opacity="1" d="M 113.5 79 L 116 83.5 L 115 83.5 L 113.5 79 Z "></path><path fill="rgb(3,3,3)" stroke="rgb(3,3,3)" stroke-width="1" opacity="1" d="M 224.5 79 L 222.5 82 L 224.5 79 Z "></path><path fill="rgb(3,3,3)" stroke="rgb(3,3,3)" stroke-width="1" opacity="1" d="M 456.5 79 L 457 81.5 L 456 81.5 L 456.5 79 Z "></path><path fill="rgb(3,3,3)" stroke="rgb(3,3,3)" stroke-width="1" opacity="1" d="M 515.5 79 L 516 82.5 L 515 82.5 L 515.5 79 Z "></path><path fill="rgb(3,3,3)" stroke="rgb(3,3,3)" stroke-width="1" opacity="1" d="M 150.5 80 L 168 80.5 L 150.5 81 L 150.5 80 Z "></path><path fill="rgb(3,3,3)" stroke="rgb(3,3,3)" stroke-width="1" opacity="1" d="M 7.5 81 L 8 84.5 L 7 84.5 L 7.5 81 Z "></path><path fill="rgb(3,3,3)" stroke="rgb(3,3,3)" stroke-width="1" opacity="1" d="M 377.5 81 L 378 89.5 L 377 89.5 L 377.5 81 Z "></path><path fill="rgb(3,3,3)" stroke="rgb(3,3,3)" stroke-width="1" opacity="1" d="M 407.5 82 L 408 90.5 L 407 90.5 L 407.5 82 Z "></path><path fill="rgb(3,3,3)" stroke="rgb(3,3,3)" stroke-width="1" opacity="1" d="M 221.5 83 L 222 100.5 L 221 100.5 L 221.5 83 Z "></path><path fill="rgb(3,3,3)" stroke="rgb(3,3,3)" stroke-width="1" opacity="1" d="M 303.5 83 L 304 87.5 L 303 87.5 L 303.5 83 Z "></path><path fill="rgb(3,3,3)" stroke="rgb(3,3,3)" stroke-width="1" opacity="1" d="M 326.5 83 L 327 85.5 L 326 85.5 L 326.5 83 Z "></path><path fill="rgb(3,3,3)" stroke="rgb(3,3,3)" stroke-width="1" opacity="1" d="M 424.5 83 L 425 88.5 L 424 88.5 L 424.5 83 Z "></path><path fill="rgb(3,3,3)" stroke="rgb(3,3,3)" stroke-width="1" opacity="1" d="M 499.5 83 L 500 87.5 L 499 87.5 L 499.5 83 Z "></path><path fill="rgb(3,3,3)" stroke="rgb(3,3,3)" stroke-width="1" opacity="1" d="M 128.5 84 L 129 89.5 L 128 89.5 L 128.5 84 Z "></path><path fill="rgb(3,3,3)" stroke="rgb(3,3,3)" stroke-width="1" opacity="1" d="M 23.5 85 L 24 88.5 L 23 88.5 L 23.5 85 Z "></path><path fill="rgb(3,3,3)" stroke="rgb(3,3,3)" stroke-width="1" opacity="1" d="M 95.5 85 L 98.5 89 L 95.5 85 Z "></path><path fill="rgb(3,3,3)" stroke="rgb(3,3,3)" stroke-width="1" opacity="1" d="M 116.5 85 L 117 87.5 L 116 87.5 L 116.5 85 Z "></path><path fill="rgb(3,3,3)" stroke="rgb(3,3,3)" stroke-width="1" opacity="1" d="M 188.5 86 L 189 87.5 L 186 89.5 L 188.5 86 Z "></path><path fill="rgb(3,3,3)" stroke="rgb(3,3,3)" stroke-width="1" opacity="1" d="M 455.5 86 L 456 113.5 L 455 113.5 L 455.5 86 Z "></path><path fill="rgb(3,3,3)" stroke="rgb(3,3,3)" stroke-width="1" opacity="1" d="M 514.5 86 L 515 88.5 L 514 88.5 L 514.5 86 Z "></path><path fill="rgb(3,3,3)" stroke="rgb(3,3,3)" stroke-width="1" opacity="1" d="M 8.5 87 L 9 89.5 L 8 89.5 L 8.5 87 Z "></path><path fill="rgb(3,3,3)" stroke="rgb(3,3,3)" stroke-width="1" opacity="1" d="M 54.5 89 L 58 89.5 L 54.5 90 L 54.5 89 Z "></path><path fill="rgb(3,3,3)" stroke="rgb(3,3,3)" stroke-width="1" opacity="1" d="M 48.5 90 L 51 90.5 L 46 93.5 L 45.5 97 L 45 93.5 L 48.5 90 Z "></path><path fill="rgb(3,3,3)" stroke="rgb(3,3,3)" stroke-width="1" opacity="1" d="M 150.5 90 L 184 90.5 L 150.5 91 L 150.5 90 Z "></path><path fill="rgb(3,3,3)" stroke="rgb(3,3,3)" stroke-width="1" opacity="1" d="M 328.5 90 L 329.5 92 L 328.5 90 Z "></path><path fill="rgb(3,3,3)" stroke="rgb(3,3,3)" stroke-width="1" opacity="1" d="M 498.5 90 L 499 93.5 L 498 93.5 L 498.5 90 Z "></path><path fill="rgb(3,3,3)" stroke="rgb(3,3,3)" stroke-width="1" opacity="1" d="M 513.5 90 L 514 92.5 L 513 92.5 L 513.5 90 Z "></path><path fill="rgb(3,3,3)" stroke="rgb(3,3,3)" stroke-width="1" opacity="1" d="M 148.5 91 L 147 93.5 L 146.5 98 L 146 93.5 L 148.5 91 Z "></path><path fill="rgb(3,3,3)" stroke="rgb(3,3,3)" stroke-width="1" opacity="1" d="M 301.5 91 L 300.5 93 L 301.5 91 Z "></path><path fill="rgb(3,3,3)" stroke="rgb(3,3,3)" stroke-width="1" opacity="1" d="M 24.5 92 L 25 94.5 L 24 94.5 L 24.5 92 Z "></path><path fill="rgb(3,3,3)" stroke="rgb(3,3,3)" stroke-width="1" opacity="1" d="M 330.5 93 L 332.5 96 L 330.5 93 Z "></path><path fill="rgb(3,3,3)" stroke="rgb(3,3,3)" stroke-width="1" opacity="1" d="M 129.5 94 L 130 96.5 L 129 96.5 L 129.5 94 Z "></path><path fill="rgb(3,3,3)" stroke="rgb(3,3,3)" stroke-width="1" opacity="1" d="M 299.5 94 L 297.5 97 L 299.5 94 Z "></path><path fill="rgb(3,3,3)" stroke="rgb(3,3,3)" stroke-width="1" opacity="1" d="M 423.5 94 L 424 96.5 L 423 96.5 L 423.5 94 Z "></path><path fill="rgb(3,3,3)" stroke="rgb(3,3,3)" stroke-width="1" opacity="1" d="M 99.5 96 L 100 97.5 L 94.5 104 L 98 99.5 L 99.5 96 Z "></path><path fill="rgb(3,3,3)" stroke="rgb(3,3,3)" stroke-width="1" opacity="1" d="M 64.5 97 L 65.5 99 L 64.5 97 Z "></path><path fill="rgb(3,3,3)" stroke="rgb(3,3,3)" stroke-width="1" opacity="1" d="M 333.5 97 L 334.5 99 L 333.5 97 Z "></path><path fill="rgb(3,3,3)" stroke="rgb(3,3,3)" stroke-width="1" opacity="1" d="M 116.5 98 L 117 100.5 L 116 100.5 L 116.5 98 Z "></path><path fill="rgb(3,3,3)" stroke="rgb(3,3,3)" stroke-width="1" opacity="1" d="M 296.5 98 L 295.5 100 L 296.5 98 Z "></path><path fill="rgb(3,3,3)" stroke="rgb(3,3,3)" stroke-width="1" opacity="1" d="M 147.5 99 L 149 101.5 L 147 100.5 L 147.5 99 Z "></path><path fill="rgb(3,3,3)" stroke="rgb(3,3,3)" stroke-width="1" opacity="1" d="M 172.5 100 L 167.5 106 L 172.5 100 Z "></path><path fill="rgb(3,3,3)" stroke="rgb(3,3,3)" stroke-width="1" opacity="1" d="M 179.5 100 L 182 100.5 L 179.5 101 L 179.5 100 Z "></path><path fill="rgb(3,3,3)" stroke="rgb(3,3,3)" stroke-width="1" opacity="1" d="M 335.5 100 L 336.5 102 L 335.5 100 Z "></path><path fill="rgb(3,3,3)" stroke="rgb(3,3,3)" stroke-width="1" opacity="1" d="M 404.5 100 L 403.5 102 L 404.5 100 Z "></path><path fill="rgb(3,3,3)" stroke="rgb(3,3,3)" stroke-width="1" opacity="1" d="M 496.5 100 L 497 102.5 L 496 102.5 L 496.5 100 Z "></path><path fill="rgb(3,3,3)" stroke="rgb(3,3,3)" stroke-width="1" opacity="1" d="M 26.5 101 L 27 103.5 L 26 103.5 L 26.5 101 Z "></path><path fill="rgb(3,3,3)" stroke="rgb(3,3,3)" stroke-width="1" opacity="1" d="M 183.5 101 Q 186.8 101.8 186 106.5 L 185 106.5 Q 185.4 101.8 183.5 101 Z "></path><path fill="rgb(3,3,3)" stroke="rgb(3,3,3)" stroke-width="1" opacity="1" d="M 294.5 101 L 293.5 103 L 294.5 101 Z "></path><path fill="rgb(3,3,3)" stroke="rgb(3,3,3)" stroke-width="1" opacity="1" d="M 69.5 102 L 70.5 104 L 69.5 102 Z "></path><path fill="rgb(3,3,3)" stroke="rgb(3,3,3)" stroke-width="1" opacity="1" d="M 115.5 102 L 116 103.5 L 111.5 110 L 113 107.5 L 115.5 102 Z "></path><path fill="rgb(3,3,3)" stroke="rgb(3,3,3)" stroke-width="1" opacity="1" d="M 222.5 102 L 224.5 105 L 222.5 102 Z "></path><path fill="rgb(3,3,3)" stroke="rgb(3,3,3)" stroke-width="1" opacity="1" d="M 313.5 102 L 316.5 102 L 321 106.5 L 316.5 103 L 312.5 104 L 313.5 102 Z "></path><path fill="rgb(3,3,3)" stroke="rgb(3,3,3)" stroke-width="1" opacity="1" d="M 382.5 102 L 384.5 105 L 382.5 102 Z "></path><path fill="rgb(3,3,3)" stroke="rgb(3,3,3)" stroke-width="1" opacity="1" d="M 421.5 102 L 422 103.5 L 418.5 109 L 419 107.5 L 421.5 102 Z "></path><path fill="rgb(3,3,3)" stroke="rgb(3,3,3)" stroke-width="1" opacity="1" d="M 149.5 103 L 151.5 106 L 149.5 103 Z "></path><path fill="rgb(3,3,3)" stroke="rgb(3,3,3)" stroke-width="1" opacity="1" d="M 337.5 103 L 338.5 105 L 337.5 103 Z "></path><path fill="rgb(3,3,3)" stroke="rgb(3,3,3)" stroke-width="1" opacity="1" d="M 292.5 104 L 291.5 106 L 292.5 104 Z "></path><path fill="rgb(3,3,3)" stroke="rgb(3,3,3)" stroke-width="1" opacity="1" d="M 400.5 104 L 399.5 106 L 400.5 104 Z "></path><path fill="rgb(3,3,3)" stroke="rgb(3,3,3)" stroke-width="1" opacity="1" d="M 226.5 105 L 268 105.5 L 226.5 106 L 226.5 105 Z "></path><path fill="rgb(3,3,3)" stroke="rgb(3,3,3)" stroke-width="1" opacity="1" d="M 310.5 105 L 308.5 108 L 310.5 105 Z "></path><path fill="rgb(3,3,3)" stroke="rgb(3,3,3)" stroke-width="1" opacity="1" d="M 49.5 106 L 50.5 108 L 49.5 106 Z "></path><path fill="rgb(3,3,3)" stroke="rgb(3,3,3)" stroke-width="1" opacity="1" d="M 79.5 106 L 86 106.5 L 79.5 107 L 79.5 106 Z "></path><path fill="rgb(3,3,3)" stroke="rgb(3,3,3)" stroke-width="1" opacity="1" d="M 165.5 106 L 164.5 108 L 163 107.5 L 165.5 106 Z "></path><path fill="rgb(3,3,3)" stroke="rgb(3,3,3)" stroke-width="1" opacity="1" d="M 269.5 106 L 272 107.5 L 270.5 107 L 269.5 106 Z "></path><path fill="rgb(3,3,3)" stroke="rgb(3,3,3)" stroke-width="1" opacity="1" d="M 290.5 107 L 288.5 110 L 290.5 107 Z "></path><path fill="rgb(3,3,3)" stroke="rgb(3,3,3)" stroke-width="1" opacity="1" d="M 340.5 107 L 341.5 109 L 340.5 107 Z "></path><path fill="rgb(3,3,3)" stroke="rgb(3,3,3)" stroke-width="1" opacity="1" d="M 134.5 108 L 136.5 111 L 134.5 108 Z "></path><path fill="rgb(3,3,3)" stroke="rgb(3,3,3)" stroke-width="1" opacity="1" d="M 184.5 108 L 183.5 110 L 184.5 108 Z "></path><path fill="rgb(3,3,3)" stroke="rgb(3,3,3)" stroke-width="1" opacity="1" d="M 321.5 108 L 322.5 110 L 321.5 108 Z "></path><path fill="rgb(3,3,3)" stroke="rgb(3,3,3)" stroke-width="1" opacity="1" d="M 51.5 109 L 56.5 115 L 51.5 109 Z "></path><path fill="rgb(3,3,3)" stroke="rgb(3,3,3)" stroke-width="1" opacity="1" d="M 272.5 109 L 273 111.5 L 272 111.5 L 272.5 109 Z "></path><path fill="rgb(3,3,3)" stroke="rgb(3,3,3)" stroke-width="1" opacity="1" d="M 307.5 109 L 307 110.5 L 304.5 114 L 306 111.5 L 307.5 109 Z "></path><path fill="rgb(3,3,3)" stroke="rgb(3,3,3)" stroke-width="1" opacity="1" d="M 342.5 110 L 343.5 112 L 342.5 110 Z "></path><path fill="rgb(3,3,3)" stroke="rgb(3,3,3)" stroke-width="1" opacity="1" d="M 417.5 110 L 412.5 116 L 417.5 110 Z "></path><path fill="rgb(3,3,3)" stroke="rgb(3,3,3)" stroke-width="1" opacity="1" d="M 110.5 111 L 109.5 113 L 110.5 111 Z "></path><path fill="rgb(3,3,3)" stroke="rgb(3,3,3)" stroke-width="1" opacity="1" d="M 287.5 111 L 287 112.5 L 286 118 L 288 118.5 L 286.5 119 Q 284.3 118.3 285 114.5 L 287.5 111 Z "></path><path fill="rgb(3,3,3)" stroke="rgb(3,3,3)" stroke-width="1" opacity="1" d="M 323.5 111 L 324.5 113 L 323.5 111 Z "></path><path fill="rgb(3,3,3)" stroke="rgb(3,3,3)" stroke-width="1" opacity="1" d="M 139.5 113 L 141.5 116 L 139.5 113 Z "></path><path fill="rgb(3,3,3)" stroke="rgb(3,3,3)" stroke-width="1" opacity="1" d="M 272.5 113 L 273 115.5 L 272 115.5 L 272.5 113 Z "></path><path fill="rgb(3,3,3)" stroke="rgb(3,3,3)" stroke-width="1" opacity="1" d="M 106.5 114 L 105.5 116 L 106.5 114 Z "></path><path fill="rgb(3,3,3)" stroke="rgb(3,3,3)" stroke-width="1" opacity="1" d="M 178.5 114 L 177.5 116 L 178.5 114 Z "></path><path fill="rgb(3,3,3)" stroke="rgb(3,3,3)" stroke-width="1" opacity="1" d="M 325.5 114 L 331 118.5 L 329.5 119 L 325.5 114 Z "></path><path fill="rgb(3,3,3)" stroke="rgb(3,3,3)" stroke-width="1" opacity="1" d="M 58.5 115 L 65 118.5 L 63.5 119 Q 58.9 117.8 58.5 115 Z "></path><path fill="rgb(3,3,3)" stroke="rgb(3,3,3)" stroke-width="1" opacity="1" d="M 303.5 115 L 301.5 118 L 303.5 115 Z "></path><path fill="rgb(3,3,3)" stroke="rgb(3,3,3)" stroke-width="1" opacity="1" d="M 345.5 115 L 346 117.5 L 343.5 119 L 343.5 118 Q 346.4 118.7 345.5 115 Z "></path><path fill="rgb(3,3,3)" stroke="rgb(3,3,3)" stroke-width="1" opacity="1" d="M 379.5 115 L 383 115.5 L 379 116 L 378.5 118 L 378 116.5 L 379.5 115 Z "></path><path fill="rgb(3,3,3)" stroke="rgb(3,3,3)" stroke-width="1" opacity="1" d="M 175.5 116 L 174.5 118 L 173 117.5 L 175.5 116 Z "></path><path fill="rgb(3,3,3)" stroke="rgb(3,3,3)" stroke-width="1" opacity="1" d="M 205.5 116 L 207.5 119 L 205.5 116 Z "></path><path fill="rgb(3,3,3)" stroke="rgb(3,3,3)" stroke-width="1" opacity="1" d="M 410.5 116 L 409.5 118 L 406.5 119 L 406.5 118 L 410.5 116 Z "></path><path fill="rgb(3,3,3)" stroke="rgb(3,3,3)" stroke-width="1" opacity="1" d="M 439.5 116 L 441.5 119 L 439.5 116 Z "></path><path fill="rgb(3,3,3)" stroke="rgb(3,3,3)" stroke-width="1" opacity="1" d="M 454.5 116 L 452.5 119 L 454.5 116 Z "></path><path fill="rgb(3,3,3)" stroke="rgb(3,3,3)" stroke-width="1" opacity="1" d="M 271.5 117 L 270.5 119 L 269 118.5 L 271.5 117 Z "></path><path fill="rgb(3,3,3)" stroke="rgb(3,3,3)" stroke-width="1" opacity="1" d="M 151.5 119 L 154 119.5 L 151.5 120 L 151.5 119 Z "></path><path fill="rgb(3,3,3)" stroke="rgb(3,3,3)" stroke-width="1" opacity="1" d="M 166.5 119 L 169 119.5 L 166.5 120 L 166.5 119 Z "></path><path fill="rgb(3,3,3)" stroke="rgb(3,3,3)" stroke-width="1" opacity="1" d="M 210.5 119 L 268 119.5 L 210.5 120 L 210.5 119 Z "></path><path fill="rgb(3,3,3)" stroke="rgb(3,3,3)" stroke-width="1" opacity="1" d="M 289.5 119 L 297 119.5 L 289.5 120 L 289.5 119 Z "></path><path fill="rgb(3,3,3)" stroke="rgb(3,3,3)" stroke-width="1" opacity="1" d="M 333.5 119 L 342 119.5 L 333.5 120 L 333.5 119 Z "></path><path fill="rgb(3,3,3)" stroke="rgb(3,3,3)" stroke-width="1" opacity="1" d="M 377.5 119 L 378 138.5 L 377 138.5 L 377.5 119 Z "></path><path fill="rgb(3,3,3)" stroke="rgb(3,3,3)" stroke-width="1" opacity="1" d="M 444.5 119 L 450 119.5 L 444.5 120 L 444.5 119 Z "></path><path fill="rgb(3,3,3)" stroke="rgb(3,3,3)" stroke-width="1" opacity="1" d="M 70.5 120 L 73 120.5 L 70.5 121 L 70.5 120 Z "></path><path fill="rgb(3,3,3)" stroke="rgb(3,3,3)" stroke-width="1" opacity="1" d="M 90.5 120 L 93 120.5 L 90.5 121 L 90.5 120 Z "></path><path fill="rgb(3,3,3)" stroke="rgb(3,3,3)" stroke-width="1" opacity="1" d="M 158.5 120 L 162 120.5 L 158.5 121 L 158.5 120 Z "></path><path fill="rgb(3,3,3)" stroke="rgb(3,3,3)" stroke-width="1" opacity="1" d="M 394.5 120 L 401 120.5 L 394.5 121 L 394.5 120 Z "></path><path fill="rgb(3,3,3)" stroke="rgb(3,3,3)" stroke-width="1" opacity="1" d="M 502.5 120 L 502 121.5 L 500.5 124 L 501 122.5 L 502.5 120 Z "></path><path fill="rgb(3,3,3)" stroke="rgb(3,3,3)" stroke-width="1" opacity="1" d="M 20.5 121 L 21.5 123 L 20.5 121 Z "></path><path fill="rgb(3,3,3)" stroke="rgb(3,3,3)" stroke-width="1" opacity="1" d="M 78.5 121 L 85 121.5 L 78.5 122 L 78.5 121 Z "></path><path fill="rgb(3,3,3)" stroke="rgb(3,3,3)" stroke-width="1" opacity="1" d="M 34.5 125 L 35 127.5 L 32 129.5 L 34.5 125 Z "></path><path fill="rgb(3,3,3)" stroke="rgb(3,3,3)" stroke-width="1" opacity="1" d="M 499.5 125 L 497.5 128 L 499.5 125 Z "></path><path fill="rgb(3,3,3)" stroke="rgb(3,3,3)" stroke-width="1" opacity="1" d="M 23.5 126 L 25.5 129 L 23.5 126 Z "></path><path fill="rgb(3,3,3)" stroke="rgb(3,3,3)" stroke-width="1" opacity="1" d="M 489.5 127 L 490.5 129 L 489.5 127 Z "></path><path fill="rgb(3,3,3)" stroke="rgb(3,3,3)" stroke-width="1" opacity="1" d="M 361.5 141 L 363.5 144 L 361.5 141 Z "></path><path fill="rgb(3,3,3)" stroke="rgb(3,3,3)" stroke-width="1" opacity="1" d="M 376.5 141 L 374.5 144 L 376.5 141 Z "></path><path fill="rgb(3,3,3)" stroke="rgb(3,3,3)" stroke-width="1" opacity="1" d="M 366.5 144 L 372 144.5 L 366.5 145 L 366.5 144 Z "></path><path fill="rgb(0,0,0)" stroke="rgb(0,0,0)" stroke-width="1" opacity="1" d="M 491.5 11 Q 497.1 10.9 499 14.5 Q 508.1 27.4 513 44.5 L 516 59.5 L 516 78.5 L 513 94.5 L 509 106.5 Q 504.7 119.2 496.5 128 L 491.5 129 Q 488.3 128.3 489 123.5 L 494 112.5 L 499 93.5 L 500 79.5 L 501 78.5 L 501 61.5 L 500 60.5 L 499 46.5 L 494 28.5 L 489 17.5 L 489 12 L 491.5 11 Z "></path><path fill="rgb(0,0,0)" stroke="rgb(0,0,0)" stroke-width="1" opacity="1" d="M 29.5 12 L 34 13 L 34 18.5 L 28 32.5 L 24 47.5 L 23 61.5 L 22 62.5 L 22 79.5 L 23 80.5 L 23 88.5 L 26 103.5 L 33 121.5 L 34 127.5 Q 33.3 130.8 28.5 130 L 23 125.5 Q 14.6 112.4 10 95.5 L 7 80.5 L 7 61.5 L 10 45.5 L 15 31.5 L 26.5 13 L 29.5 12 Z "></path><path fill="rgb(0,0,0)" stroke="rgb(0,0,0)" stroke-width="1" opacity="1" d="M 73.5 28 Q 98.9 25.6 109 38.5 L 113 45.5 L 113 51.5 Q 110.2 55.7 101.5 54 L 96 49.5 L 90.5 43 L 83.5 41 L 77.5 41 L 70.5 43 L 66 46.5 L 65 53.5 L 68.5 58 L 80.5 63 L 99.5 68 Q 108.3 71.3 113 78.5 L 117 88.5 L 117 97.5 Q 114.5 108 107.5 114 Q 96 123 73.5 121 Q 64 119.5 57.5 115 L 51 108.5 Q 46 103.5 46 93.5 Q 49.1 88.6 58.5 90 L 62 92.5 L 67 102 L 74.5 106 L 85.5 107 L 94.5 104 L 99 99.5 L 100 90.5 L 95.5 85 L 63.5 75 L 51 64.5 L 48 56.5 L 48 49.5 Q 50.1 39.1 57.5 34 L 62.5 31 L 73.5 28 Z "></path><path fill="rgb(0,0,0)" stroke="rgb(0,0,0)" stroke-width="1" opacity="1" d="M 208.5 29 L 267.5 29 L 271 32.5 Q 272.8 41.3 267.5 43 L 226.5 43 L 222 46.5 L 221 48.5 L 221 59.5 L 224.5 64 L 226.5 65 L 263.5 65 L 267 67.5 L 268 71.5 L 265.5 77 L 263.5 78 L 226.5 78 L 222 81.5 L 221 83.5 L 221 100.5 L 224.5 105 L 226.5 106 L 268.5 106 L 272 108.5 L 273 112.5 L 270.5 118 L 268.5 119 L 208.5 119 L 205 115.5 L 205 32.5 L 208.5 29 Z "></path><path fill="rgb(0,0,0)" stroke="rgb(0,0,0)" stroke-width="1" opacity="1" d="M 153.5 53 Q 174 52 182 63.5 Q 188.6 71.4 189 85.5 L 185.5 90 L 150.5 90 L 146 93.5 Q 145.8 102.7 151.5 106 Q 155.5 109.5 164.5 108 L 173.5 100 L 178.5 100 L 182.5 101 L 185 103.5 L 185 107.5 L 179.5 114 L 165.5 120 L 154.5 120 L 146.5 118 L 137 111.5 Q 127.2 101.8 129 80.5 L 133 67.5 L 141.5 58 L 153.5 53 Z M 155 65 L 153 66 Q 147 68 146 75 L 147 79 L 151 81 L 168 81 L 170 80 L 172 77 L 169 68 L 164 65 L 155 65 Z "></path><path fill="rgb(0,0,0)" stroke="rgb(0,0,0)" stroke-width="1" opacity="1" d="M 392.5 53 Q 411.8 51.8 418 63.5 L 421 68.5 L 424 79.5 L 424 93.5 Q 422.5 103 418 109.5 L 411.5 116 L 402.5 120 L 392.5 120 L 382.5 115 L 379.5 115 L 377 119.5 L 377 140.5 L 373.5 144 Q 363.3 146.3 361 140.5 L 361 57.5 L 364.5 54 Q 373.2 52.3 376 56.5 Q 375.3 58.8 377.5 58 L 380.5 59 L 392.5 53 Z M 388 66 L 386 67 L 380 73 L 377 82 Q 376 95 382 103 L 389 107 Q 396 109 400 106 L 405 101 L 408 91 L 408 83 L 405 73 L 398 66 L 388 66 Z "></path><path fill="rgb(0,0,0)" stroke="rgb(0,0,0)" stroke-width="1" opacity="1" d="M 467.5 53 Q 475.1 52.1 478 55 L 479 59.5 L 476 67 Q 472.7 69.1 464.5 68 L 458 73.5 L 455 86.5 L 455 115.5 L 451.5 119 Q 441.3 121.3 439 115.5 L 439 57.5 L 442.5 54 L 450.5 54 L 455.5 58 L 458.5 58 L 467.5 53 Z "></path><path fill="rgb(0,0,0)" stroke="rgb(0,0,0)" stroke-width="1" opacity="1" d="M 289.5 54 Q 302.5 51.5 306 58.5 L 312.5 68 L 316.5 69 L 326 56 Q 330.2 52.6 340.5 54 L 343 57.5 L 329 77.5 L 326 85.5 L 328 90.5 L 344 112.5 L 345 118 Q 341.1 120.4 331.5 119 L 325 113.5 L 316.5 102 L 313.5 102 L 308 107.5 L 300.5 118 Q 296.7 120.7 288.5 119 L 286 118 L 288 110.5 L 302 91.5 Q 304.7 89.2 304 83.5 L 288 60.5 L 287 55 L 289.5 54 Z "></path><path fill="rgb(158,158,158)" stroke="rgb(158,158,158)" stroke-width="1" opacity="0.996078431372549" d="M 488.5 10 Q 499 8 501 14.5 Q 510.2 27.8 515 45.5 L 517 54.5 L 517 62.5 L 518 63.5 L 518 74.5 L 517 75.5 L 516 88.5 L 510 108.5 L 502 124.5 L 496.5 130 Q 488.8 131.8 487 127.5 L 487 123.5 L 495 103.5 L 498 89.5 Q 496.5 84 499 82.5 L 499 57.5 L 496 40.5 L 487 16.5 L 487 11.5 L 488.5 10 Z M 490 11 L 488 13 L 489 20 L 496 37 L 500 57 L 500 83 L 499 84 L 498 96 L 493 114 L 488 125 L 491 129 L 498 128 L 502 123 L 510 106 L 515 89 L 516 74 L 517 73 L 516 56 L 513 43 Q 508 26 499 14 Q 497 10 490 11 Z "></path><path fill="rgb(158,158,158)" stroke="rgb(158,158,158)" stroke-width="1" opacity="0.996078431372549" d="M 26.5 11 L 34.5 11 L 36 12.5 L 36 17.5 L 27 41.5 L 25 51.5 Q 26.5 57 24 58.5 L 24 83.5 L 28 104.5 L 36 124.5 L 36 128.5 Q 34.3 132.8 26.5 131 L 21 125.5 L 10 101.5 L 6 84.5 L 5 65.5 L 6 64.5 L 7 50.5 L 12 34.5 L 20 18.5 L 26.5 11 Z M 28 12 L 26 13 Q 17 23 12 38 L 8 52 L 7 66 L 6 67 L 7 85 L 10 98 Q 15 114 23 127 L 28 130 Q 34 131 35 128 L 28 109 L 23 85 L 23 58 Q 26 56 24 51 Q 27 32 35 18 L 35 14 Q 34 10 28 12 Z "></path><path fill="rgb(158,158,158)" stroke="rgb(158,158,158)" stroke-width="1" opacity="0.996078431372549" d="M 76.5 26 L 84.5 26 L 98.5 29 Q 106.6 31.9 111 38.5 Q 116 42.5 115 52.5 L 112.5 55 L 103.5 56 L 97 54 Q 95.5 48.4 90.5 45 Q 85.4 41.6 75.5 43 Q 69.8 44.3 67 48.5 L 67 53.5 L 71.5 58 L 101.5 67 L 113 75.5 L 118 85.5 L 119 94.5 L 115 107.5 L 107.5 116 L 93.5 122 L 77.5 123 L 66.5 121 L 57.5 117 L 49 108.5 L 44 97.5 L 44 92.5 L 48.5 89 L 58.5 88 L 64 92.5 Q 65.5 99 70.5 102 Q 76 106.5 87.5 105 L 96 101 L 99 92.5 L 95.5 87 L 86.5 83 L 66.5 78 Q 57.8 74.8 52 68.5 L 47 59.5 Q 48.5 54 46 52.5 L 50 39.5 L 57.5 32 L 65.5 28 L 76.5 26 Z M 79 27 L 78 28 L 67 29 L 57 34 Q 51 38 48 47 Q 46 59 51 66 Q 56 72 65 76 L 95 85 L 100 93 L 98 100 Q 95 105 88 106 Q 74 108 69 102 Q 63 98 62 91 L 58 89 L 49 90 L 45 94 Q 46 104 51 110 Q 56 116 64 119 L 79 122 L 97 120 L 110 113 Q 115 108 117 101 Q 120 85 113 78 Q 108 70 99 67 L 76 61 L 66 55 L 67 47 L 72 43 L 76 42 Q 87 41 93 45 L 96 51 L 100 54 L 105 55 L 112 54 L 114 52 Q 114 42 109 38 L 99 30 L 92 28 L 79 27 Z "></path><path fill="rgb(158,158,158)" stroke="rgb(158,158,158)" stroke-width="1" opacity="0.996078431372549" d="M 209.5 27 L 266.5 27 L 272 30.5 L 273 38.5 L 269.5 44 L 266.5 45 L 226.5 45 L 224 46 Q 221.6 49.9 223 59.5 L 224 62 L 226.5 63 L 263.5 63 L 268 65 Q 270 68 269 75.5 L 268 78 L 263.5 80 L 226.5 80 L 224 81 L 223 83.5 L 223 100.5 L 224 103 L 226.5 104 L 268.5 104 L 273 106 Q 275 109 274 116.5 L 273 119 L 268.5 121 L 209.5 121 L 204 117.5 L 203 114.5 L 203 33.5 L 206.5 28 L 209.5 27 Z M 211 28 L 208 29 L 204 35 L 204 114 L 205 117 L 211 120 L 268 120 L 271 119 L 273 116 L 272 108 L 268 105 L 226 105 L 222 102 L 222 83 L 226 79 L 263 79 L 266 78 L 268 75 L 267 67 L 263 64 L 226 64 L 222 61 L 222 48 L 226 44 L 266 44 L 269 43 L 272 38 L 271 32 L 266 28 L 211 28 Z "></path><path fill="rgb(158,158,158)" stroke="rgb(158,158,158)" stroke-width="1" opacity="0.996078431372549" d="M 156.5 51 L 170.5 53 Q 178.9 56.6 184 63.5 Q 188.5 69.5 190 78.5 L 190 88.5 L 184.5 92 L 150.5 92 L 148 94.5 Q 148 103.5 154.5 106 L 161.5 107 Q 168.8 105.3 171.5 99 L 176.5 98 Q 177.8 100.3 182.5 99 L 187 102.5 Q 186.4 112.4 179.5 116 L 172.5 120 L 157.5 122 L 144.5 119 L 134 110.5 L 128 97.5 L 127 83.5 L 129 72.5 L 133 64.5 L 141.5 56 L 147.5 53 L 156.5 51 Z M 159 52 L 148 54 L 141 58 Q 134 63 131 71 L 128 85 L 130 101 L 134 109 L 142 116 L 148 119 L 159 121 L 169 120 L 178 116 L 185 109 L 186 104 L 182 100 L 173 100 L 163 108 Q 156 109 153 106 L 147 99 L 147 94 L 150 91 L 184 91 L 189 88 Q 190 71 182 63 L 173 55 L 159 52 Z "></path><path fill="rgb(158,158,158)" stroke="rgb(158,158,158)" stroke-width="1" opacity="0.996078431372549" d="M 393.5 51 L 405.5 52 L 417 59.5 L 424 71.5 L 426 89.5 Q 423.3 91.3 425 97.5 L 420 109.5 L 411.5 118 L 401.5 122 L 393.5 122 L 381.5 117 L 379 119.5 L 379 139.5 L 375.5 145 L 365.5 146 L 360 142.5 L 359 139.5 L 359 58.5 L 362.5 53 L 371.5 52 L 380.5 57 L 393.5 51 Z M 395 52 Q 386 53 382 58 L 379 58 L 371 53 L 364 54 L 360 60 L 360 139 L 361 142 L 367 145 L 375 144 L 378 139 L 378 119 L 379 116 L 384 116 L 395 121 Q 406 121 413 116 Q 419 111 422 104 L 425 89 L 423 73 L 418 63 Q 412 52 395 52 Z "></path><path fill="rgb(158,158,158)" stroke="rgb(158,158,158)" stroke-width="1" opacity="0.996078431372549" d="M 289.5 52 L 302.5 53 L 308 58.5 L 314.5 67 L 318 66 L 326.5 54 Q 331.2 50.7 340.5 52 L 345 54.5 L 345 58.5 L 329 80.5 L 328 86.5 L 346 112.5 L 347 118.5 Q 342.8 122.8 332.5 121 L 325 116.5 L 317.5 105 L 313.5 104 L 300.5 120 L 288.5 121 L 284 118.5 Q 283.3 112.8 286 110.5 L 300 91.5 Q 302.7 89.2 302 83.5 L 286 60.5 L 285 54.5 L 289.5 52 Z M 291 53 L 286 56 L 286 59 L 303 83 L 302 91 L 286 113 L 285 118 L 290 120 Q 298 121 302 118 L 311 104 L 317 103 L 325 115 L 330 119 L 334 120 Q 342 121 346 118 L 344 112 L 327 88 Q 326 81 329 79 L 344 58 L 343 54 L 339 53 L 329 54 L 321 64 L 317 68 L 314 68 L 306 58 Q 302 52 291 53 Z "></path><path fill="rgb(158,158,158)" stroke="rgb(158,158,158)" stroke-width="1" opacity="0.996078431372549" d="M 443.5 52 L 449.5 52 L 458.5 56 Q 463.2 50.2 475.5 52 L 480 55.5 L 481 58.5 L 478 66.5 L 475.5 69 L 472.5 70 Q 471.2 67.8 466.5 69 L 460 73.5 L 457 82.5 L 457 114.5 L 453.5 120 L 443.5 121 L 438 117.5 L 437 114.5 L 437 58.5 L 440.5 53 L 443.5 52 Z M 445 53 L 442 54 L 438 60 L 438 114 L 439 117 L 445 120 L 453 119 L 456 114 L 456 83 L 460 72 Q 464 66 475 68 Q 480 65 479 56 L 476 53 Q 464 51 460 57 L 456 57 L 449 53 L 445 53 Z "></path><path fill="rgb(158,158,158)" stroke="rgb(158,158,158)" stroke-width="1" opacity="0.996078431372549" d="M 156.5 65 Q 165.5 64.5 169 69.5 Q 171.7 71.8 171 77.5 L 168.5 80 L 149.5 80 Q 146 79 147 73.5 L 150.5 68 L 156.5 65 Z M 158 66 L 153 68 L 148 75 Q 148 79 151 79 L 168 79 L 170 77 L 169 72 L 162 66 L 158 66 Z "></path><path fill="rgb(158,158,158)" stroke="rgb(158,158,158)" stroke-width="1" opacity="0.996078431372549" d="M 389.5 66 L 395.5 66 L 404 72.5 Q 409.1 79.4 407 93.5 Q 405.8 100.3 401.5 104 Q 398.3 107.8 390.5 107 Q 384 105.5 381 100.5 Q 376.2 93.3 378 79.5 Q 379.4 71.4 385.5 68 L 389.5 66 Z M 391 67 L 386 69 Q 381 73 379 80 Q 377 93 382 100 L 391 106 Q 397 107 400 104 Q 405 100 406 93 Q 408 79 403 73 Q 400 67 391 67 Z "></path></svg>