<svg id="Layer_1" data-name="Layer 1" xmlns="http://www.w3.org/2000/svg" viewBox="0 0 520.1053 145.96538"><title>seexprlogo</title><path d="M78.59067,118.46276c-12.18625-.21076-24.17266-3.04795-31.66221-15.40583a32.76336,32.76336,0,0,1-2.03638-4.00473c-3.00643-6.9707-2.62055-10.55956,1.25987-12.27133,6.65987-2.93786,12.58152-1.18915,15.7405,4.64829a21.09146,21.09146,0,0,0,28.29387,8.86692c4.31321-2.1665,7.24774-5.47572,7.02955-10.58074-.20668-4.83588-3.52673-7.46947-7.67322-8.862-5.36053-1.80025-10.86011-3.1921-16.31612-4.70086C67.91628,74.684,62.621,73.147,57.86525,70.28905,49.31,65.14782,44.58974,57.68383,45.3116,47.53051c.70488-9.91456,6.09911-16.90464,15.18857-20.525a48.37843,48.37843,0,0,1,37.049.216,23.07135,23.07135,0,0,1,14.2536,16.33171c1.25133,4.92-.56433,7.27819-5.57123,7.78048-5.65907.56773-10.15549-.55223-13.56853-6.02584-4.6701-7.48958-19.34243-8.9274-26.04608-3.19354-3.89619,3.33254-3.72007,8.23421.51706,11.51619,3.3758,2.61482,7.48144,3.58995,11.48527,4.7146,6.41206,1.80113,12.94972,3.17858,19.13406,5.73547C110.31048,69.27225,116.49793,78.83612,115.648,91.723c-.79588,12.06693-8.75024,21.41861-21.18227,24.88107A60.573,60.573,0,0,1,78.59067,118.46276Z"/><path d="M201.92224,70.55828c0-12.15472-.049-24.3097.01744-36.464.04335-7.9286,1.54273-9.48869,9.28352-9.51677q25.22475-.09151,50.44993.03082c6.27624.04056,8.19955,2.13058,8.16241,8.05548-.0358,5.71077-1.88739,7.73227-7.8815,7.8153-10.65424.1476-21.31206.01586-31.96761.1-3.25906.02573-7.24952-.71916-8.90019,2.96036a17.63762,17.63762,0,0,0-.01562,14.08886c1.18263,2.87361,4.28775,2.8538,6.96443,2.87259,10.15614.07134,20.31422-.02792,30.46876.12388,5.61179.08389,7.57437,2.00479,7.77793,6.90243.2229,5.36326-1.77829,7.80142-7.22892,7.90992-9.98638.19878-19.97924.04426-29.96846.1386-7.49784.0708-9.01216,1.6372-9.14756,9.15659-.05393,2.99571-.08422,5.99757.04182,8.9896.25089,5.9565,1.8891,7.68416,7.95467,7.75985,11.82.1475,23.64363-.00416,35.46368.13932,5.82694.07074,7.83774,2.112,7.89618,7.29353.05817,5.1566-1.82153,7.46666-7.11029,7.50821q-27.47024.2159-54.943-.00082c-5.52019-.04367-7.19082-1.96323-7.24968-7.90177-.12538-12.65286-.03833-25.30783-.03833-37.96193Z"/><path d="M357.92236,95.045c0-11.98759-.04083-23.9754.02677-35.9626.01849-3.27715-.47776-7.14491,3.42538-8.63031,3.98865-1.518,8.51608-1.89631,11.85156,1.15027,3.28113,2.997,5.852,2.541,9.315.6228,13.93566-7.71909,29.37207-3.03032,36.161,11.41042a43.8262,43.8262,0,0,1-.29407,39.12157c-6.75125,13.90358-21.13455,18.373-34.99817,11.61774-5.37613-2.61961-7.14127-1.60972-7.39606,4.54907-.20633,4.98735.00919,9.99179-.18274,14.9802-.2348,6.1036-2.20453,7.65513-9.11676,7.6082-6.56729-.0446-8.61621-1.58731-8.69128-7.50925-.16458-12.98416-.051-25.97185-.051-38.9581Zm46.87519-11.65321c-.03089-4.34911-.40555-8.64918-2.42344-12.60053-2.45489-4.80723-6.27893-7.74178-11.82513-7.75948a12.38117,12.38117,0,0,0-11.96948,7.51847,27.90784,27.90784,0,0,0,.67321,25.45128,12.4137,12.4137,0,0,0,12.75409,7.00983c5.54541-.48978,9.00425-3.86455,11.01123-8.86238A29.809,29.809,0,0,0,404.79755,83.39175Z"/><path d="M165.84358,87.6512c-4.99452,0-10.00072-.21364-14.98038.05844-5.27038.288-7.00962,3.326-5.07977,8.16765,3.45,8.65564,14.14906,11.09876,20.29108,4.19793,3.83781-4.312,7.95573-4.87486,12.99051-3.54907,5.49719,1.44756,6.61946,4.28738,3.46252,9.15887a24.35057,24.35057,0,0,1-9.64349,8.48243c-20.63484,10.47359-43.53246-1.574-46.45346-24.42318a49.27411,49.27411,0,0,1,.52583-15.90748c3.35564-16.96071,16.77057-26.87594,33.68208-24.85268,19.33705,2.31345,26.09761,17.83516,26.7699,32.11548.19423,4.12568-2.14026,6.20308-6.08475,6.3119-5.15637.14225-10.31962.03484-15.47992.03484Zm-9.21-11.24257.00008.02147c2.15939,0,4.33539.172,6.4749-.03415,5.20123-.50129,6.94582-3.79368,4.38426-8.30618a12.17294,12.17294,0,0,0-21.24209.36474c-2.30768,4.35922-.59612,7.40946,4.40754,7.92107A59.0242,59.0242,0,0,0,156.6336,76.40863Z"/><path d="M335.33374,116.53328c-6.25568.77456-10.64307-1.77444-13.68735-7.14933a60.85678,60.85678,0,0,0-5.05786-7.41625c-2.35437-3.01163-5.07269-3.12076-7.447-.05991-2.23944,2.88692-4.155,6.02282-6.27536,9.00484-3.66559,5.15511-12.08951,7.514-17.85669,5.00572-3.65259-1.58856-2.66083-4.23143-1.143-6.58571,3.15482-4.89336,6.53363-9.64244,9.82688-14.44636,1.22329-1.78443,2.48227-3.54455,3.69491-5.33609,4.54288-6.71152,4.52359-8.39166-.22491-15.2077-3.90042-5.59873-7.95462-11.0951-11.70709-16.79074-3.41739-5.187-2.10871-7.33592,4.09832-7.96256,7.47568-.75471,13.50379.99223,16.94492,8.35055a19.42061,19.42061,0,0,0,2.85617,4.07869c2.30631,2.74709,4.83057,2.8379,7.12775.06173,1.79873-2.17378,3.32016-4.57569,4.98828-6.85909,3.78778-5.18488,11.92911-7.51782,17.8652-5.084,3.663,1.50187,2.85794,4.1122,1.25781,6.51025-3.60116,5.397-7.38037,10.67572-11.11306,15.98432-5.69336,8.097-5.72,9.1778-.14316,17.23912,3.78754,5.47486,7.67752,10.88077,11.36792,16.42,1.59726,2.39744,4.48007,4.80987,2.777,7.99342C341.78747,117.45436,338.1224,116.08007,335.33374,116.53328Z"/><path d="M4.02007,63.30706c.01237-15.952,6.0158-33.38609,15.99318-49.61279,1.89335-3.07924,4.15141-5.68458,8.17421-5.768C32.05283,7.846,33.8533,9.835,32.9368,13.567a52.11128,52.11128,0,0,1-2.53814,7.045c-13.00437,32.05123-12.3215,64.02442.49854,95.938.37271.9278.79371,1.84014,1.10278,2.78881.76654,2.35278,2.15161,4.99636-.48653,6.84617-2.77931,1.9488-5.77871,1.23941-8.321-.78756a14.73737,14.73737,0,0,1-2.9002-3.39471C10.44258,107.22738,3.84877,84.73868,4.02007,63.30706Z"/><path d="M497.81686,62.77661c.069-13.06068-3.40133-28.55508-9.47265-43.5214-.62549-1.54193-1.28165-3.076-1.81-4.65174-.79358-2.36689-1.95355-5.014.73553-6.79085,2.632-1.73906,5.44959-1.05777,7.957.6478,1.97815,1.34557,3.18345,3.38483,4.374,5.38519,21.208,35.63389,19.63513,71.147-.63471,106.53059a15.5639,15.5639,0,0,1-2.72537,3.54278c-2.361,2.23636-5.27048,3.25667-8.19534,1.50732-3.1799-1.90189-2.03385-4.82893-1.0054-7.55826C494.99158,96.76531,497.94775,82.51722,497.81686,62.77661Z"/><path d="M435.92,82.77649c0-7.819-.05057-15.6383.01328-23.45673.07406-9.07247,6.8222-13.02,14.724-8.1723,3.56182,2.18519,6.21478,2.33575,9.48535.03741a12.93072,12.93072,0,0,1,7.54834-2.26355c3.36126.00659,6.94769-.04238,9.00732,3.12686,2.09421,3.22242.26221,6.42791-1.02344,9.47348-1.28372,3.04108-3.75128,3.79363-6.9064,3.70526-8.55759-.23966-12.09216,2.60721-13.6586,11.0922-1.61041,8.72313-1.09677,17.57551-1.19324,26.38526-.01458,1.33074.00843,2.66192-.00891,3.9926-.11426,8.76843-6.303,12.68028-14.39212,9.12833-3.1774-1.39521-3.51666-4.2126-3.53583-7.09719-.05746-8.6502-.02069-17.301-.02069-25.95162Z"/></svg>