<svg width="400" height="92" version="1.1" xmlns="http://www.w3.org/2000/svg"><path fill="rgb(0,0,0)" stroke="rgb(0,0,0)" stroke-width="1" opacity="0" d="M 0 0 L 351 0.5 L 343 7.5 Q 335.9 15.4 332 26.5 L 330 34.5 L 330 53.5 Q 334.7 73.3 347.5 85 Q 349.4 88.6 355.5 88 Q 358.3 86.8 357 81.5 L 347 64.5 L 344 50.5 L 344 36.5 L 348 20.5 L 357 4.5 L 357 0 L 375 0.5 L 373 1 L 373 5.5 Q 380.8 13.7 384 26.5 L 386 35.5 L 386 52.5 L 383 64.5 L 373 81.5 L 373 85.5 L 376.5 88 L 379.5 87 L 389 77.5 Q 397.1 69.1 399.5 55 L 400 92 L 254 91.5 L 256 88.5 L 257 77.5 L 259.5 74 L 277.5 75 Q 285.2 73.1 289 67.5 Q 296.5 58 294 38.5 Q 292.4 29.1 286.5 24 L 277.5 19 L 264.5 19 Q 261.2 21.7 254.5 21 L 253.5 20 L 245.5 20 L 243 21 L 242 23.5 L 242 89.5 L 243.5 92 L 0.5 92 L 0 91.5 L 0 67.5 L 4.5 71 L 21.5 77 L 37.5 77 L 51.5 72 L 58 65.5 Q 62.2 59.7 61 48.5 Q 58.9 40.6 52.5 37 L 48.5 35 L 24.5 30 L 19 27 L 18 20.5 Q 20.9 13.4 31.5 14 L 36.5 15 L 47.5 21 L 50.5 21 L 57 16.5 L 58 13.5 L 53.5 8 Q 42.2 -0.7 19.5 2 Q 10.1 4.1 5 10.5 Q -1 16.5 1 30.5 L 6.5 39 L 16.5 44 L 38.5 48 L 44 52.5 Q 45 59 41.5 61 Q 36 66 23.5 64 L 11.5 58 L 5.5 58 L 0.5 62 L 0 0 Z M 142 3 L 138 7 L 138 72 L 142 75 L 189 75 L 193 72 L 198 75 L 206 74 L 209 72 L 213 65 Q 213 61 218 62 L 224 72 L 232 75 Q 238 76 240 73 L 240 68 L 228 48 L 228 43 L 239 25 Q 240 20 237 19 Q 227 18 223 21 L 218 29 L 215 28 L 211 23 L 206 19 L 197 19 L 194 22 L 196 29 L 205 43 L 205 49 L 194 67 L 192 64 L 189 63 L 160 63 L 158 62 L 154 57 L 155 47 L 160 43 L 184 43 L 186 42 L 188 39 L 187 34 L 185 31 L 161 31 L 156 29 L 154 24 L 156 18 L 160 15 L 187 15 Q 191 14 190 7 L 187 3 L 142 3 Z M 84 18 L 76 21 L 66 32 L 63 44 Q 62 58 68 66 L 77 73 L 88 76 L 100 75 L 110 70 L 114 65 Q 115 58 111 57 L 104 57 Q 100 62 93 64 L 86 62 L 81 58 L 81 53 L 84 50 L 101 50 L 102 49 L 114 49 L 116 48 L 117 45 Q 117 33 111 27 Q 106 20 98 18 L 84 18 Z M 302 18 L 300 19 L 297 23 L 297 69 L 298 73 L 302 75 L 312 74 L 314 71 L 314 49 Q 317 47 315 41 L 320 36 L 329 31 L 329 22 L 327 19 Q 321 18 320 20 Q 313 21 310 18 L 302 18 Z M 125 34 L 123 35 L 119 40 L 120 47 L 125 50 L 132 49 L 135 45 L 134 38 Q 132 33 125 34 Z "></path><path fill="rgb(0,0,0)" stroke="rgb(0,0,0)" stroke-width="1" opacity="0" d="M 378.5 0 L 400 0 L 400 32.5 L 399 32.5 Q 395.3 13.2 382.5 3 Q 377.8 2.2 378.5 0 Z "></path><path fill="rgb(0,0,0)" stroke="rgb(0,0,0)" stroke-width="1" opacity="0" d="M 87.5 30 Q 96.8 28.6 99 34.5 Q 99.8 38.3 97.5 39 L 85.5 40 L 82 37.5 L 81 35.5 L 83 32 L 87.5 30 Z "></path><path fill="rgb(0,0,0)" stroke="rgb(0,0,0)" stroke-width="1" opacity="0" d="M 265.5 30 Q 275.9 28.6 278 35.5 Q 281.1 40.9 280 50.5 L 278 57.5 L 273.5 63 L 265.5 64 L 261 62 L 257 54.5 L 256 44.5 L 259 35.5 L 263.5 31 L 265.5 30 Z "></path><path fill="rgb(255,255,255)" stroke="rgb(255,255,255)" stroke-width="1" opacity="0.2" d="M 375.5 0 L 378 0.5 L 375.5 1 L 375.5 0 Z "></path><path fill="rgb(255,255,255)" stroke="rgb(255,255,255)" stroke-width="1" opacity="0.2" d="M 349.5 1 L 343.5 8 L 349.5 1 Z "></path><path fill="rgb(255,255,255)" stroke="rgb(255,255,255)" stroke-width="1" opacity="0.2" d="M 379.5 1 L 380.5 3 L 379.5 1 Z "></path><path fill="rgb(255,255,255)" stroke="rgb(255,255,255)" stroke-width="1" opacity="0.2" d="M 19.5 2 L 22 2.5 L 19.5 3 L 19.5 2 Z "></path><path fill="rgb(255,255,255)" stroke="rgb(255,255,255)" stroke-width="1" opacity="0.2" d="M 36.5 2 L 39 2.5 L 36.5 3 L 36.5 2 Z "></path><path fill="rgb(255,255,255)" stroke="rgb(255,255,255)" stroke-width="1" opacity="0.2" d="M 141.5 3 L 139 6.5 L 138.5 9 L 138 6.5 L 141.5 3 Z "></path><path fill="rgb(255,255,255)" stroke="rgb(255,255,255)" stroke-width="1" opacity="0.2" d="M 186.5 3 L 187.5 5 L 186.5 3 Z "></path><path fill="rgb(255,255,255)" stroke="rgb(255,255,255)" stroke-width="1" opacity="0.2" d="M 382.5 3 L 383.5 5 L 382.5 3 Z "></path><path fill="rgb(255,255,255)" stroke="rgb(255,255,255)" stroke-width="1" opacity="0.2" d="M 13.5 4 L 15 4.5 L 12.5 6 L 13.5 4 Z "></path><path fill="rgb(255,255,255)" stroke="rgb(255,255,255)" stroke-width="1" opacity="0.2" d="M 50.5 6 L 51.5 8 L 50.5 6 Z "></path><path fill="rgb(255,255,255)" stroke="rgb(255,255,255)" stroke-width="1" opacity="0.2" d="M 374.5 7 L 375.5 9 L 374.5 7 Z "></path><path fill="rgb(255,255,255)" stroke="rgb(255,255,255)" stroke-width="1" opacity="0.2" d="M 7.5 8 L 5.5 11 L 7.5 8 Z "></path><path fill="rgb(255,255,255)" stroke="rgb(255,255,255)" stroke-width="1" opacity="0.2" d="M 53.5 8 L 56.5 12 L 53.5 8 Z "></path><path fill="rgb(255,255,255)" stroke="rgb(255,255,255)" stroke-width="1" opacity="0.2" d="M 342.5 9 L 340 12.5 L 338.5 15 L 339 13.5 L 342.5 9 Z "></path><path fill="rgb(255,255,255)" stroke="rgb(255,255,255)" stroke-width="1" opacity="0.2" d="M 387.5 9 L 389.5 12 L 387.5 9 Z "></path><path fill="rgb(255,255,255)" stroke="rgb(255,255,255)" stroke-width="1" opacity="0.2" d="M 376.5 10 L 377.5 12 L 376.5 10 Z "></path><path fill="rgb(255,255,255)" stroke="rgb(255,255,255)" stroke-width="1" opacity="0.2" d="M 4.5 12 L 3.5 14 L 4.5 12 Z "></path><path fill="rgb(255,255,255)" stroke="rgb(255,255,255)" stroke-width="1" opacity="0.2" d="M 352.5 12 L 352 13.5 L 350.5 16 L 351 14.5 L 352.5 12 Z "></path><path fill="rgb(255,255,255)" stroke="rgb(255,255,255)" stroke-width="1" opacity="0.2" d="M 187.5 13 L 186.5 15 L 185 14.5 L 187.5 13 Z "></path><path fill="rgb(255,255,255)" stroke="rgb(255,255,255)" stroke-width="1" opacity="0.2" d="M 378.5 13 L 379.5 15 L 378.5 13 Z "></path><path fill="rgb(255,255,255)" stroke="rgb(255,255,255)" stroke-width="1" opacity="0.2" d="M 390.5 13 L 391.5 15 L 390.5 13 Z "></path><path fill="rgb(255,255,255)" stroke="rgb(255,255,255)" stroke-width="1" opacity="0.2" d="M 32.5 14 L 35 14.5 L 32.5 15 L 32.5 14 Z "></path><path fill="rgb(255,255,255)" stroke="rgb(255,255,255)" stroke-width="1" opacity="0.2" d="M 22.5 15 L 18.5 20 L 22.5 15 Z "></path><path fill="rgb(255,255,255)" stroke="rgb(255,255,255)" stroke-width="1" opacity="0.2" d="M 56.5 16 L 54.5 19 L 56.5 16 Z "></path><path fill="rgb(255,255,255)" stroke="rgb(255,255,255)" stroke-width="1" opacity="0.2" d="M 337.5 16 L 336.5 18 L 337.5 16 Z "></path><path fill="rgb(255,255,255)" stroke="rgb(255,255,255)" stroke-width="1" opacity="0.2" d="M 83.5 18 L 86 18.5 L 83.5 19 L 83.5 18 Z "></path><path fill="rgb(255,255,255)" stroke="rgb(255,255,255)" stroke-width="1" opacity="0.2" d="M 155.5 18 L 155 19.5 L 154.5 22 L 154 19.5 L 155.5 18 Z "></path><path fill="rgb(255,255,255)" stroke="rgb(255,255,255)" stroke-width="1" opacity="0.2" d="M 301.5 18 L 304 18.5 L 301.5 19 L 301.5 18 Z "></path><path fill="rgb(255,255,255)" stroke="rgb(255,255,255)" stroke-width="1" opacity="0.2" d="M 307.5 18 L 310 18.5 L 307.5 19 L 307.5 18 Z "></path><path fill="rgb(255,255,255)" stroke="rgb(255,255,255)" stroke-width="1" opacity="0.2" d="M 393.5 18 L 394.5 20 L 393.5 18 Z "></path><path fill="rgb(255,255,255)" stroke="rgb(255,255,255)" stroke-width="1" opacity="0.2" d="M 196.5 19 L 200 19.5 L 195 21.5 L 194.5 25 L 194 21.5 L 196.5 19 Z "></path><path fill="rgb(255,255,255)" stroke="rgb(255,255,255)" stroke-width="1" opacity="0.2" d="M 227.5 19 L 236.5 19 L 239 21.5 L 238.5 25 L 236.5 20 L 227.5 20 L 227.5 19 Z "></path><path fill="rgb(255,255,255)" stroke="rgb(255,255,255)" stroke-width="1" opacity="0.2" d="M 275.5 19 L 278 19.5 L 275.5 20 L 275.5 19 Z "></path><path fill="rgb(255,255,255)" stroke="rgb(255,255,255)" stroke-width="1" opacity="0.2" d="M 299.5 19 L 298.5 21 L 299.5 19 Z "></path><path fill="rgb(255,255,255)" stroke="rgb(255,255,255)" stroke-width="1" opacity="0.2" d="M 320.5 19 L 323 19.5 L 320.5 20 L 320.5 19 Z "></path><path fill="rgb(255,255,255)" stroke="rgb(255,255,255)" stroke-width="1" opacity="0.2" d="M 324.5 19 Q 328.5 18.5 329 21.5 L 328.5 23 L 326.5 20 Q 323.5 20.5 324.5 19 Z "></path><path fill="rgb(255,255,255)" stroke="rgb(255,255,255)" stroke-width="1" opacity="0.2" d="M 47.5 20 L 51 20.5 L 47.5 21 L 47.5 20 Z "></path><path fill="rgb(255,255,255)" stroke="rgb(255,255,255)" stroke-width="1" opacity="0.2" d="M 77.5 20 L 76.5 22 L 71.5 26 L 75.5 21 L 77.5 20 Z "></path><path fill="rgb(255,255,255)" stroke="rgb(255,255,255)" stroke-width="1" opacity="0.2" d="M 208.5 20 L 210.5 23 L 208.5 20 Z "></path><path fill="rgb(255,255,255)" stroke="rgb(255,255,255)" stroke-width="1" opacity="0.2" d="M 250.5 20 L 254 20.5 L 250.5 21 L 250.5 20 Z "></path><path fill="rgb(255,255,255)" stroke="rgb(255,255,255)" stroke-width="1" opacity="0.2" d="M 282.5 21 L 284.5 24 L 282.5 21 Z "></path><path fill="rgb(255,255,255)" stroke="rgb(255,255,255)" stroke-width="1" opacity="0.2" d="M 106.5 22 L 110.5 27 L 106.5 22 Z "></path><path fill="rgb(255,255,255)" stroke="rgb(255,255,255)" stroke-width="1" opacity="0.2" d="M 297.5 22 L 298 31.5 L 297 31.5 L 297.5 22 Z "></path><path fill="rgb(255,255,255)" stroke="rgb(255,255,255)" stroke-width="1" opacity="0.2" d="M 222.5 23 L 220.5 26 L 222.5 23 Z "></path><path fill="rgb(255,255,255)" stroke="rgb(255,255,255)" stroke-width="1" opacity="0.2" d="M 211.5 24 L 212.5 26 L 211.5 24 Z "></path><path fill="rgb(255,255,255)" stroke="rgb(255,255,255)" stroke-width="1" opacity="0.2" d="M 286.5 24 L 287.5 26 L 286.5 24 Z "></path><path fill="rgb(255,255,255)" stroke="rgb(255,255,255)" stroke-width="1" opacity="0.2" d="M 20.5 27 L 21.5 29 L 20.5 27 Z "></path><path fill="rgb(255,255,255)" stroke="rgb(255,255,255)" stroke-width="1" opacity="0.2" d="M 69.5 27 L 68.5 29 L 69.5 27 Z "></path><path fill="rgb(255,255,255)" stroke="rgb(255,255,255)" stroke-width="1" opacity="0.2" d="M 219.5 27 L 218.5 29 L 219.5 27 Z "></path><path fill="rgb(255,255,255)" stroke="rgb(255,255,255)" stroke-width="1" opacity="0.2" d="M 288.5 27 L 291 30.5 L 290 30.5 L 288.5 27 Z "></path><path fill="rgb(255,255,255)" stroke="rgb(255,255,255)" stroke-width="1" opacity="0.2" d="M 111.5 28 L 112.5 30 L 111.5 28 Z "></path><path fill="rgb(255,255,255)" stroke="rgb(255,255,255)" stroke-width="1" opacity="0.2" d="M 196.5 28 L 197.5 30 L 196.5 28 Z "></path><path fill="rgb(255,255,255)" stroke="rgb(255,255,255)" stroke-width="1" opacity="0.2" d="M 236.5 28 L 236 29.5 L 234.5 32 L 235 30.5 L 236.5 28 Z "></path><path fill="rgb(255,255,255)" stroke="rgb(255,255,255)" stroke-width="1" opacity="0.2" d="M 88.5 29 L 93 29.5 L 88.5 30 L 88.5 29 Z "></path><path fill="rgb(255,255,255)" stroke="rgb(255,255,255)" stroke-width="1" opacity="0.2" d="M 157.5 29 L 160 30.5 L 158.5 31 L 157.5 29 Z "></path><path fill="rgb(255,255,255)" stroke="rgb(255,255,255)" stroke-width="1" opacity="0.2" d="M 266.5 29 L 271 29.5 L 266.5 30 L 266.5 29 Z "></path><path fill="rgb(255,255,255)" stroke="rgb(255,255,255)" stroke-width="1" opacity="0.2" d="M 328.5 29 L 329 30.5 L 326 32.5 L 328.5 29 Z "></path><path fill="rgb(255,255,255)" stroke="rgb(255,255,255)" stroke-width="1" opacity="0.2" d="M 67.5 30 L 67 31.5 L 66.5 33 L 66 31.5 L 67.5 30 Z "></path><path fill="rgb(255,255,255)" stroke="rgb(255,255,255)" stroke-width="1" opacity="0.2" d="M 85.5 30 L 87 30.5 L 84.5 32 L 85.5 30 Z "></path><path fill="rgb(255,255,255)" stroke="rgb(255,255,255)" stroke-width="1" opacity="0.2" d="M 263.5 30 L 265 30.5 L 259.5 35 L 263.5 30 Z "></path><path fill="rgb(255,255,255)" stroke="rgb(255,255,255)" stroke-width="1" opacity="0.2" d="M 96.5 31 L 98.5 34 L 96.5 31 Z "></path><path fill="rgb(255,255,255)" stroke="rgb(255,255,255)" stroke-width="1" opacity="0.2" d="M 180.5 31 L 185 31.5 L 180.5 32 L 180.5 31 Z "></path><path fill="rgb(255,255,255)" stroke="rgb(255,255,255)" stroke-width="1" opacity="0.2" d="M 274.5 31 L 277.5 35 L 274.5 31 Z "></path><path fill="rgb(255,255,255)" stroke="rgb(255,255,255)" stroke-width="1" opacity="0.2" d="M 385.5 32 L 386 34.5 L 385 34.5 L 385.5 32 Z "></path><path fill="rgb(255,255,255)" stroke="rgb(255,255,255)" stroke-width="1" opacity="0.2" d="M 2.5 33 L 3.5 35 L 2.5 33 Z "></path><path fill="rgb(255,255,255)" stroke="rgb(255,255,255)" stroke-width="1" opacity="0.2" d="M 82.5 33 L 81.5 35 L 82.5 33 Z "></path><path fill="rgb(255,255,255)" stroke="rgb(255,255,255)" stroke-width="1" opacity="0.2" d="M 199.5 33 L 200.5 35 L 199.5 33 Z "></path><path fill="rgb(255,255,255)" stroke="rgb(255,255,255)" stroke-width="1" opacity="0.2" d="M 233.5 33 L 232.5 35 L 233.5 33 Z "></path><path fill="rgb(255,255,255)" stroke="rgb(255,255,255)" stroke-width="1" opacity="0.2" d="M 344.5 33 L 345 35.5 L 344 35.5 L 344.5 33 Z "></path><path fill="rgb(255,255,255)" stroke="rgb(255,255,255)" stroke-width="1" opacity="0.2" d="M 399.5 33 L 400 35.5 L 399 35.5 L 399.5 33 Z "></path><path fill="rgb(255,255,255)" stroke="rgb(255,255,255)" stroke-width="1" opacity="0.2" d="M 330.5 34 L 331 39.5 L 330 39.5 L 330.5 34 Z "></path><path fill="rgb(255,255,255)" stroke="rgb(255,255,255)" stroke-width="1" opacity="0.2" d="M 122.5 35 L 120.5 38 L 122.5 35 Z "></path><path fill="rgb(255,255,255)" stroke="rgb(255,255,255)" stroke-width="1" opacity="0.2" d="M 131.5 35 L 133.5 38 L 131.5 35 Z "></path><path fill="rgb(255,255,255)" stroke="rgb(255,255,255)" stroke-width="1" opacity="0.2" d="M 187.5 35 L 188 38.5 L 187 38.5 L 187.5 35 Z "></path><path fill="rgb(255,255,255)" stroke="rgb(255,255,255)" stroke-width="1" opacity="0.2" d="M 4.5 36 L 6.5 39 L 4.5 36 Z "></path><path fill="rgb(255,255,255)" stroke="rgb(255,255,255)" stroke-width="1" opacity="0.2" d="M 81.5 36 L 83 38.5 L 81 37.5 L 81.5 36 Z "></path><path fill="rgb(255,255,255)" stroke="rgb(255,255,255)" stroke-width="1" opacity="0.2" d="M 318.5 36 L 315.5 40 L 318.5 36 Z "></path><path fill="rgb(255,255,255)" stroke="rgb(255,255,255)" stroke-width="1" opacity="0.2" d="M 52.5 37 L 54.5 40 L 52.5 37 Z "></path><path fill="rgb(255,255,255)" stroke="rgb(255,255,255)" stroke-width="1" opacity="0.2" d="M 202.5 38 L 203.5 40 L 202.5 38 Z "></path><path fill="rgb(255,255,255)" stroke="rgb(255,255,255)" stroke-width="1" opacity="0.2" d="M 230.5 38 L 229.5 40 L 230.5 38 Z "></path><path fill="rgb(255,255,255)" stroke="rgb(255,255,255)" stroke-width="1" opacity="0.2" d="M 8.5 39 L 9.5 41 L 8.5 39 Z "></path><path fill="rgb(255,255,255)" stroke="rgb(255,255,255)" stroke-width="1" opacity="0.2" d="M 186.5 40 L 185.5 42 L 186.5 40 Z "></path><path fill="rgb(255,255,255)" stroke="rgb(255,255,255)" stroke-width="1" opacity="0.2" d="M 386.5 40 L 387 46.5 L 386 46.5 L 386.5 40 Z "></path><path fill="rgb(255,255,255)" stroke="rgb(255,255,255)" stroke-width="1" opacity="0.2" d="M 56.5 41 L 58.5 44 L 56.5 41 Z "></path><path fill="rgb(255,255,255)" stroke="rgb(255,255,255)" stroke-width="1" opacity="0.2" d="M 116.5 41 L 117 44.5 L 116 44.5 L 116.5 41 Z "></path><path fill="rgb(255,255,255)" stroke="rgb(255,255,255)" stroke-width="1" opacity="0.2" d="M 256.5 41 L 257 43.5 L 256 43.5 L 256.5 41 Z "></path><path fill="rgb(255,255,255)" stroke="rgb(255,255,255)" stroke-width="1" opacity="0.2" d="M 314.5 41 L 315 47.5 L 314 47.5 L 314.5 41 Z "></path><path fill="rgb(255,255,255)" stroke="rgb(255,255,255)" stroke-width="1" opacity="0.2" d="M 169.5 42 L 184 42.5 L 169.5 43 L 169.5 42 Z "></path><path fill="rgb(255,255,255)" stroke="rgb(255,255,255)" stroke-width="1" opacity="0.2" d="M 63.5 43 L 64 52.5 L 63 52.5 L 63.5 43 Z "></path><path fill="rgb(255,255,255)" stroke="rgb(255,255,255)" stroke-width="1" opacity="0.2" d="M 157.5 43 L 159 43.5 L 155.5 46 L 157.5 43 Z "></path><path fill="rgb(255,255,255)" stroke="rgb(255,255,255)" stroke-width="1" opacity="0.2" d="M 205.5 44 L 206 46.5 L 205 46.5 L 205.5 44 Z "></path><path fill="rgb(255,255,255)" stroke="rgb(255,255,255)" stroke-width="1" opacity="0.2" d="M 120.5 46 L 122.5 49 L 120.5 46 Z "></path><path fill="rgb(255,255,255)" stroke="rgb(255,255,255)" stroke-width="1" opacity="0.2" d="M 133.5 46 L 131.5 49 L 133.5 46 Z "></path><path fill="rgb(255,255,255)" stroke="rgb(255,255,255)" stroke-width="1" opacity="0.2" d="M 60.5 48 L 61 57.5 L 60 57.5 L 60.5 48 Z "></path><path fill="rgb(255,255,255)" stroke="rgb(255,255,255)" stroke-width="1" opacity="0.2" d="M 228.5 48 L 231 52.5 L 229 51.5 L 228.5 48 Z "></path><path fill="rgb(255,255,255)" stroke="rgb(255,255,255)" stroke-width="1" opacity="0.2" d="M 41.5 49 L 43.5 52 L 41.5 49 Z "></path><path fill="rgb(255,255,255)" stroke="rgb(255,255,255)" stroke-width="1" opacity="0.2" d="M 85.5 49 L 101 49.5 L 85.5 50 L 85.5 49 Z "></path><path fill="rgb(255,255,255)" stroke="rgb(255,255,255)" stroke-width="1" opacity="0.2" d="M 124.5 49 L 129 49.5 L 124.5 50 L 124.5 49 Z "></path><path fill="rgb(255,255,255)" stroke="rgb(255,255,255)" stroke-width="1" opacity="0.2" d="M 204.5 49 L 203.5 51 L 204.5 49 Z "></path><path fill="rgb(255,255,255)" stroke="rgb(255,255,255)" stroke-width="1" opacity="0.2" d="M 256.5 49 L 257 52.5 L 256 52.5 L 256.5 49 Z "></path><path fill="rgb(255,255,255)" stroke="rgb(255,255,255)" stroke-width="1" opacity="0.2" d="M 82.5 50 L 81 52.5 L 80.5 57 L 80 52.5 L 82.5 50 Z "></path><path fill="rgb(255,255,255)" stroke="rgb(255,255,255)" stroke-width="1" opacity="0.2" d="M 279.5 51 L 280 53.5 L 279 53.5 L 279.5 51 Z "></path><path fill="rgb(255,255,255)" stroke="rgb(255,255,255)" stroke-width="1" opacity="0.2" d="M 330.5 51 L 331 53.5 L 330 53.5 L 330.5 51 Z "></path><path fill="rgb(255,255,255)" stroke="rgb(255,255,255)" stroke-width="1" opacity="0.2" d="M 344.5 51 L 345 54.5 L 344 54.5 L 344.5 51 Z "></path><path fill="rgb(255,255,255)" stroke="rgb(255,255,255)" stroke-width="1" opacity="0.2" d="M 399.5 52 L 400 54.5 L 399 54.5 L 399.5 52 Z "></path><path fill="rgb(255,255,255)" stroke="rgb(255,255,255)" stroke-width="1" opacity="0.2" d="M 44.5 53 L 45 57.5 L 43 58.5 L 44.5 53 Z "></path><path fill="rgb(255,255,255)" stroke="rgb(255,255,255)" stroke-width="1" opacity="0.2" d="M 293.5 53 L 294 55.5 L 293 55.5 L 293.5 53 Z "></path><path fill="rgb(255,255,255)" stroke="rgb(255,255,255)" stroke-width="1" opacity="0.2" d="M 385.5 53 L 386 55.5 L 385 55.5 L 385.5 53 Z "></path><path fill="rgb(255,255,255)" stroke="rgb(255,255,255)" stroke-width="1" opacity="0.2" d="M 201.5 54 L 200.5 56 L 201.5 54 Z "></path><path fill="rgb(255,255,255)" stroke="rgb(255,255,255)" stroke-width="1" opacity="0.2" d="M 231.5 54 L 234 57.5 L 232 56.5 L 231.5 54 Z "></path><path fill="rgb(255,255,255)" stroke="rgb(255,255,255)" stroke-width="1" opacity="0.2" d="M 64.5 55 L 65 57.5 L 64 57.5 L 64.5 55 Z "></path><path fill="rgb(255,255,255)" stroke="rgb(255,255,255)" stroke-width="1" opacity="0.2" d="M 103.5 57 L 102.5 59 L 103.5 57 Z "></path><path fill="rgb(255,255,255)" stroke="rgb(255,255,255)" stroke-width="1" opacity="0.2" d="M 109.5 57 L 114 60.5 L 110.5 58 L 109.5 57 Z "></path><path fill="rgb(255,255,255)" stroke="rgb(255,255,255)" stroke-width="1" opacity="0.2" d="M 398.5 57 L 399 59.5 L 398 59.5 L 398.5 57 Z "></path><path fill="rgb(255,255,255)" stroke="rgb(255,255,255)" stroke-width="1" opacity="0.2" d="M 81.5 58 L 89 63.5 L 87.5 64 L 81.5 58 Z "></path><path fill="rgb(255,255,255)" stroke="rgb(255,255,255)" stroke-width="1" opacity="0.2" d="M 277.5 58 L 276.5 60 L 277.5 58 Z "></path><path fill="rgb(255,255,255)" stroke="rgb(255,255,255)" stroke-width="1" opacity="0.2" d="M 3.5 59 L 0.5 63 L 3.5 59 Z "></path><path fill="rgb(255,255,255)" stroke="rgb(255,255,255)" stroke-width="1" opacity="0.2" d="M 100.5 59 L 98.5 62 L 100.5 59 Z "></path><path fill="rgb(255,255,255)" stroke="rgb(255,255,255)" stroke-width="1" opacity="0.2" d="M 198.5 59 L 197.5 61 L 198.5 59 Z "></path><path fill="rgb(255,255,255)" stroke="rgb(255,255,255)" stroke-width="1" opacity="0.2" d="M 234.5 59 L 237 62.5 L 235 61.5 L 234.5 59 Z "></path><path fill="rgb(255,255,255)" stroke="rgb(255,255,255)" stroke-width="1" opacity="0.2" d="M 259.5 59 L 260.5 61 L 259.5 59 Z "></path><path fill="rgb(255,255,255)" stroke="rgb(255,255,255)" stroke-width="1" opacity="0.2" d="M 155.5 60 L 156.5 62 L 155.5 60 Z "></path><path fill="rgb(255,255,255)" stroke="rgb(255,255,255)" stroke-width="1" opacity="0.2" d="M 17.5 61 L 21 62.5 L 19.5 63 L 17.5 61 Z "></path><path fill="rgb(255,255,255)" stroke="rgb(255,255,255)" stroke-width="1" opacity="0.2" d="M 40.5 61 L 39.5 63 L 38 62.5 L 40.5 61 Z "></path><path fill="rgb(255,255,255)" stroke="rgb(255,255,255)" stroke-width="1" opacity="0.2" d="M 66.5 61 L 68 63.5 L 66 62.5 L 66.5 61 Z "></path><path fill="rgb(255,255,255)" stroke="rgb(255,255,255)" stroke-width="1" opacity="0.2" d="M 275.5 61 L 274.5 63 L 275.5 61 Z "></path><path fill="rgb(255,255,255)" stroke="rgb(255,255,255)" stroke-width="1" opacity="0.2" d="M 291.5 61 L 292 62.5 L 289.5 66 L 290 64.5 L 291.5 61 Z "></path><path fill="rgb(255,255,255)" stroke="rgb(255,255,255)" stroke-width="1" opacity="0.2" d="M 214.5 62 L 213.5 64 L 214.5 62 Z "></path><path fill="rgb(255,255,255)" stroke="rgb(255,255,255)" stroke-width="1" opacity="0.2" d="M 218.5 62 L 219.5 64 L 218.5 62 Z "></path><path fill="rgb(255,255,255)" stroke="rgb(255,255,255)" stroke-width="1" opacity="0.2" d="M 262.5 62 L 265 63.5 L 263.5 64 L 262.5 62 Z "></path><path fill="rgb(255,255,255)" stroke="rgb(255,255,255)" stroke-width="1" opacity="0.2" d="M 176.5 63 L 189 63.5 L 176.5 64 L 176.5 63 Z "></path><path fill="rgb(255,255,255)" stroke="rgb(255,255,255)" stroke-width="1" opacity="0.2" d="M 297.5 63 L 298 68.5 L 297 68.5 L 297.5 63 Z "></path><path fill="rgb(255,255,255)" stroke="rgb(255,255,255)" stroke-width="1" opacity="0.2" d="M 25.5 64 L 33 64.5 L 25.5 65 L 25.5 64 Z "></path><path fill="rgb(255,255,255)" stroke="rgb(255,255,255)" stroke-width="1" opacity="0.2" d="M 195.5 64 L 194.5 66 L 195.5 64 Z "></path><path fill="rgb(255,255,255)" stroke="rgb(255,255,255)" stroke-width="1" opacity="0.2" d="M 237.5 64 L 240 67.5 L 238 66.5 L 237.5 64 Z "></path><path fill="rgb(255,255,255)" stroke="rgb(255,255,255)" stroke-width="1" opacity="0.2" d="M 266.5 64 L 271 64.5 L 266.5 65 L 266.5 64 Z "></path><path fill="rgb(255,255,255)" stroke="rgb(255,255,255)" stroke-width="1" opacity="0.2" d="M 57.5 65 L 55.5 68 L 57.5 65 Z "></path><path fill="rgb(255,255,255)" stroke="rgb(255,255,255)" stroke-width="1" opacity="0.2" d="M 68.5 65 L 73.5 71 L 68.5 65 Z "></path><path fill="rgb(255,255,255)" stroke="rgb(255,255,255)" stroke-width="1" opacity="0.2" d="M 212.5 65 L 211.5 67 L 212.5 65 Z "></path><path fill="rgb(255,255,255)" stroke="rgb(255,255,255)" stroke-width="1" opacity="0.2" d="M 220.5 65 L 221.5 67 L 220.5 65 Z "></path><path fill="rgb(255,255,255)" stroke="rgb(255,255,255)" stroke-width="1" opacity="0.2" d="M 0.5 66 L 4.5 71 L 0.5 66 Z "></path><path fill="rgb(255,255,255)" stroke="rgb(255,255,255)" stroke-width="1" opacity="0.2" d="M 112.5 66 L 109.5 70 L 112.5 66 Z "></path><path fill="rgb(255,255,255)" stroke="rgb(255,255,255)" stroke-width="1" opacity="0.2" d="M 192.5 66 L 193.5 68 L 192.5 66 Z "></path><path fill="rgb(255,255,255)" stroke="rgb(255,255,255)" stroke-width="1" opacity="0.2" d="M 288.5 67 L 284.5 72 L 288.5 67 Z "></path><path fill="rgb(255,255,255)" stroke="rgb(255,255,255)" stroke-width="1" opacity="0.2" d="M 210.5 68 L 209.5 70 L 210.5 68 Z "></path><path fill="rgb(255,255,255)" stroke="rgb(255,255,255)" stroke-width="1" opacity="0.2" d="M 222.5 68 L 223.5 70 L 222.5 68 Z "></path><path fill="rgb(255,255,255)" stroke="rgb(255,255,255)" stroke-width="1" opacity="0.2" d="M 53.5 69 L 51.5 72 L 53.5 69 Z "></path><path fill="rgb(255,255,255)" stroke="rgb(255,255,255)" stroke-width="1" opacity="0.2" d="M 107.5 70 L 106.5 72 L 107.5 70 Z "></path><path fill="rgb(255,255,255)" stroke="rgb(255,255,255)" stroke-width="1" opacity="0.2" d="M 393.5 70 L 392.5 72 L 393.5 70 Z "></path><path fill="rgb(255,255,255)" stroke="rgb(255,255,255)" stroke-width="1" opacity="0.2" d="M 75.5 71 L 78 72.5 L 76.5 73 L 75.5 71 Z "></path><path fill="rgb(255,255,255)" stroke="rgb(255,255,255)" stroke-width="1" opacity="0.2" d="M 138.5 71 L 143 74.5 L 141.5 75 L 138.5 71 Z "></path><path fill="rgb(255,255,255)" stroke="rgb(255,255,255)" stroke-width="1" opacity="0.2" d="M 192.5 71 L 194.5 74 L 192.5 71 Z "></path><path fill="rgb(255,255,255)" stroke="rgb(255,255,255)" stroke-width="1" opacity="0.2" d="M 224.5 71 L 225.5 73 L 224.5 71 Z "></path><path fill="rgb(255,255,255)" stroke="rgb(255,255,255)" stroke-width="1" opacity="0.2" d="M 239.5 72 L 238.5 74 L 239.5 72 Z "></path><path fill="rgb(255,255,255)" stroke="rgb(255,255,255)" stroke-width="1" opacity="0.2" d="M 298.5 72 L 299.5 74 L 298.5 72 Z "></path><path fill="rgb(255,255,255)" stroke="rgb(255,255,255)" stroke-width="1" opacity="0.2" d="M 312.5 72 L 311.5 74 L 312.5 72 Z "></path><path fill="rgb(255,255,255)" stroke="rgb(255,255,255)" stroke-width="1" opacity="0.2" d="M 379.5 72 L 378.5 74 L 379.5 72 Z "></path><path fill="rgb(255,255,255)" stroke="rgb(255,255,255)" stroke-width="1" opacity="0.2" d="M 338.5 73 L 339.5 75 L 338.5 73 Z "></path><path fill="rgb(255,255,255)" stroke="rgb(255,255,255)" stroke-width="1" opacity="0.2" d="M 391.5 73 L 390.5 75 L 391.5 73 Z "></path><path fill="rgb(255,255,255)" stroke="rgb(255,255,255)" stroke-width="1" opacity="0.2" d="M 81.5 74 L 84 74.5 L 81.5 75 L 81.5 74 Z "></path><path fill="rgb(255,255,255)" stroke="rgb(255,255,255)" stroke-width="1" opacity="0.2" d="M 176.5 74 L 189 74.5 L 176.5 75 L 176.5 74 Z "></path><path fill="rgb(255,255,255)" stroke="rgb(255,255,255)" stroke-width="1" opacity="0.2" d="M 231.5 74 L 236 74.5 L 231.5 75 L 231.5 74 Z "></path><path fill="rgb(255,255,255)" stroke="rgb(255,255,255)" stroke-width="1" opacity="0.2" d="M 265.5 74 L 268 74.5 L 265.5 75 L 265.5 74 Z "></path><path fill="rgb(255,255,255)" stroke="rgb(255,255,255)" stroke-width="1" opacity="0.2" d="M 301.5 74 L 308 74.5 L 301.5 75 L 301.5 74 Z "></path><path fill="rgb(255,255,255)" stroke="rgb(255,255,255)" stroke-width="1" opacity="0.2" d="M 87.5 75 L 94 75.5 L 87.5 76 L 87.5 75 Z "></path><path fill="rgb(255,255,255)" stroke="rgb(255,255,255)" stroke-width="1" opacity="0.2" d="M 352.5 75 L 353.5 77 L 352.5 75 Z "></path><path fill="rgb(255,255,255)" stroke="rgb(255,255,255)" stroke-width="1" opacity="0.2" d="M 377.5 75 L 376.5 77 L 377.5 75 Z "></path><path fill="rgb(255,255,255)" stroke="rgb(255,255,255)" stroke-width="1" opacity="0.2" d="M 31.5 76 L 38 76.5 L 31.5 77 L 31.5 76 Z "></path><path fill="rgb(255,255,255)" stroke="rgb(255,255,255)" stroke-width="1" opacity="0.2" d="M 340.5 76 L 342.5 79 L 340.5 76 Z "></path><path fill="rgb(255,255,255)" stroke="rgb(255,255,255)" stroke-width="1" opacity="0.2" d="M 388.5 77 L 379.5 87 L 378 86.5 L 388.5 77 Z "></path><path fill="rgb(255,255,255)" stroke="rgb(255,255,255)" stroke-width="1" opacity="0.2" d="M 256.5 78 L 257 81.5 L 256 81.5 L 256.5 78 Z "></path><path fill="rgb(255,255,255)" stroke="rgb(255,255,255)" stroke-width="1" opacity="0.2" d="M 354.5 78 L 357 81.5 L 355 80.5 L 354.5 78 Z "></path><path fill="rgb(255,255,255)" stroke="rgb(255,255,255)" stroke-width="1" opacity="0.2" d="M 374.5 80 L 374 81.5 L 373.5 83 L 373 81.5 L 374.5 80 Z "></path><path fill="rgb(255,255,255)" stroke="rgb(255,255,255)" stroke-width="1" opacity="0.2" d="M 344.5 81 L 347.5 85 L 344.5 81 Z "></path><path fill="rgb(255,255,255)" stroke="rgb(255,255,255)" stroke-width="1" opacity="0.2" d="M 349.5 85 L 350.5 87 L 349.5 85 Z "></path><path fill="rgb(255,255,255)" stroke="rgb(255,255,255)" stroke-width="1" opacity="0.2" d="M 373.5 85 L 374.5 87 L 373.5 85 Z "></path><path fill="rgb(255,255,255)" stroke="rgb(255,255,255)" stroke-width="1" opacity="0.2" d="M 356.5 86 L 355.5 88 L 352 87.5 L 356.5 86 Z "></path><path fill="rgb(255,255,255)" stroke="rgb(255,255,255)" stroke-width="1" opacity="0.2" d="M 242.5 88 L 245 91.5 L 242 89.5 L 242.5 88 Z "></path><path fill="rgb(255,255,255)" stroke="rgb(255,255,255)" stroke-width="1" opacity="0.2" d="M 254.5 90 L 253.5 92 L 254.5 90 Z "></path><path fill="rgb(255,255,255)" stroke="rgb(255,255,255)" stroke-width="1" opacity="0.9254901960784314" d="M 28.5 2 L 34 2.5 L 28.5 3 L 28.5 2 Z "></path><path fill="rgb(255,255,255)" stroke="rgb(255,255,255)" stroke-width="1" opacity="0.9254901960784314" d="M 348.5 3 L 345.5 7 L 348.5 3 Z "></path><path fill="rgb(255,255,255)" stroke="rgb(255,255,255)" stroke-width="1" opacity="0.9254901960784314" d="M 28.5 13 L 33 13.5 L 28.5 14 L 28.5 13 Z "></path><path fill="rgb(255,255,255)" stroke="rgb(255,255,255)" stroke-width="1" opacity="0.9254901960784314" d="M 55.5 16 L 54.5 18 L 55.5 16 Z "></path><path fill="rgb(255,255,255)" stroke="rgb(255,255,255)" stroke-width="1" opacity="0.9254901960784314" d="M 196.5 20 L 195.5 22 L 196.5 20 Z "></path><path fill="rgb(255,255,255)" stroke="rgb(255,255,255)" stroke-width="1" opacity="0.9254901960784314" d="M 236.5 20 L 237.5 22 L 236.5 20 Z "></path><path fill="rgb(255,255,255)" stroke="rgb(255,255,255)" stroke-width="1" opacity="0.9254901960784314" d="M 326.5 20 L 327.5 22 L 326.5 20 Z "></path><path fill="rgb(255,255,255)" stroke="rgb(255,255,255)" stroke-width="1" opacity="0.9254901960784314" d="M 208.5 21 L 209.5 23 L 208.5 21 Z "></path><path fill="rgb(255,255,255)" stroke="rgb(255,255,255)" stroke-width="1" opacity="0.9254901960784314" d="M 1.5 22 L 2 26.5 L 1 26.5 L 1.5 22 Z "></path><path fill="rgb(255,255,255)" stroke="rgb(255,255,255)" stroke-width="1" opacity="0.9254901960784314" d="M 75.5 22 L 73.5 25 L 75.5 22 Z "></path><path fill="rgb(255,255,255)" stroke="rgb(255,255,255)" stroke-width="1" opacity="0.9254901960784314" d="M 282.5 22 L 283.5 24 L 282.5 22 Z "></path><path fill="rgb(255,255,255)" stroke="rgb(255,255,255)" stroke-width="1" opacity="0.9254901960784314" d="M 222.5 24 L 221.5 26 L 222.5 24 Z "></path><path fill="rgb(255,255,255)" stroke="rgb(255,255,255)" stroke-width="1" opacity="0.9254901960784314" d="M 328.5 24 L 329 27.5 L 328 27.5 L 328.5 24 Z "></path><path fill="rgb(255,255,255)" stroke="rgb(255,255,255)" stroke-width="1" opacity="0.9254901960784314" d="M 108.5 25 L 109.5 27 L 108.5 25 Z "></path><path fill="rgb(255,255,255)" stroke="rgb(255,255,255)" stroke-width="1" opacity="0.9254901960784314" d="M 327.5 30 L 325.5 33 L 327.5 30 Z "></path><path fill="rgb(255,255,255)" stroke="rgb(255,255,255)" stroke-width="1" opacity="0.9254901960784314" d="M 97.5 31 L 98.5 33 L 97.5 31 Z "></path><path fill="rgb(255,255,255)" stroke="rgb(255,255,255)" stroke-width="1" opacity="0.9254901960784314" d="M 160.5 31 L 166 31.5 L 160.5 32 L 160.5 31 Z "></path><path fill="rgb(255,255,255)" stroke="rgb(255,255,255)" stroke-width="1" opacity="0.9254901960784314" d="M 276.5 32 L 277.5 34 L 276.5 32 Z "></path><path fill="rgb(255,255,255)" stroke="rgb(255,255,255)" stroke-width="1" opacity="0.9254901960784314" d="M 318.5 35 L 317.5 37 L 318.5 35 Z "></path><path fill="rgb(255,255,255)" stroke="rgb(255,255,255)" stroke-width="1" opacity="0.9254901960784314" d="M 122.5 36 L 121.5 38 L 122.5 36 Z "></path><path fill="rgb(255,255,255)" stroke="rgb(255,255,255)" stroke-width="1" opacity="0.9254901960784314" d="M 81.5 38 L 82.5 40 L 81.5 38 Z "></path><path fill="rgb(255,255,255)" stroke="rgb(255,255,255)" stroke-width="1" opacity="0.9254901960784314" d="M 399.5 38 L 400 42.5 L 399 42.5 L 399.5 38 Z "></path><path fill="rgb(255,255,255)" stroke="rgb(255,255,255)" stroke-width="1" opacity="0.9254901960784314" d="M 56.5 42 L 57.5 44 L 56.5 42 Z "></path><path fill="rgb(255,255,255)" stroke="rgb(255,255,255)" stroke-width="1" opacity="0.9254901960784314" d="M 156.5 43 L 155.5 45 L 156.5 43 Z "></path><path fill="rgb(255,255,255)" stroke="rgb(255,255,255)" stroke-width="1" opacity="0.9254901960784314" d="M 399.5 44 L 400 46.5 L 399 46.5 L 399.5 44 Z "></path><path fill="rgb(255,255,255)" stroke="rgb(255,255,255)" stroke-width="1" opacity="0.9254901960784314" d="M 255.5 45 L 256 48.5 L 255 48.5 L 255.5 45 Z "></path><path fill="rgb(255,255,255)" stroke="rgb(255,255,255)" stroke-width="1" opacity="0.9254901960784314" d="M 121.5 46 L 122.5 48 L 121.5 46 Z "></path><path fill="rgb(255,255,255)" stroke="rgb(255,255,255)" stroke-width="1" opacity="0.9254901960784314" d="M 132.5 46 L 131.5 48 L 132.5 46 Z "></path><path fill="rgb(255,255,255)" stroke="rgb(255,255,255)" stroke-width="1" opacity="0.9254901960784314" d="M 41.5 48 L 44.5 52 L 41.5 48 Z "></path><path fill="rgb(255,255,255)" stroke="rgb(255,255,255)" stroke-width="1" opacity="0.9254901960784314" d="M 103.5 48 L 111 48.5 L 103.5 49 L 103.5 48 Z "></path><path fill="rgb(255,255,255)" stroke="rgb(255,255,255)" stroke-width="1" opacity="0.9254901960784314" d="M 313.5 49 L 314 54.5 L 313 54.5 L 313.5 49 Z "></path><path fill="rgb(255,255,255)" stroke="rgb(255,255,255)" stroke-width="1" opacity="0.9254901960784314" d="M 81.5 50 L 80.5 52 L 81.5 50 Z "></path><path fill="rgb(255,255,255)" stroke="rgb(255,255,255)" stroke-width="1" opacity="0.9254901960784314" d="M 83.5 61 L 84.5 63 L 83.5 61 Z "></path><path fill="rgb(255,255,255)" stroke="rgb(255,255,255)" stroke-width="1" opacity="0.9254901960784314" d="M 214.5 61 L 212.5 64 L 214.5 61 Z "></path><path fill="rgb(255,255,255)" stroke="rgb(255,255,255)" stroke-width="1" opacity="0.9254901960784314" d="M 69.5 65 L 70.5 67 L 69.5 65 Z "></path><path fill="rgb(255,255,255)" stroke="rgb(255,255,255)" stroke-width="1" opacity="0.9254901960784314" d="M 110.5 67 L 109.5 69 L 110.5 67 Z "></path><path fill="rgb(255,255,255)" stroke="rgb(255,255,255)" stroke-width="1" opacity="0.9254901960784314" d="M 287.5 67 L 284.5 71 L 287.5 67 Z "></path><path fill="rgb(255,255,255)" stroke="rgb(255,255,255)" stroke-width="1" opacity="0.9254901960784314" d="M 72.5 68 L 73.5 70 L 72.5 68 Z "></path><path fill="rgb(255,255,255)" stroke="rgb(255,255,255)" stroke-width="1" opacity="0.9254901960784314" d="M 200.5 73 L 204 73.5 L 200.5 74 L 200.5 73 Z "></path><path fill="rgb(255,255,255)" stroke="rgb(255,255,255)" stroke-width="1" opacity="0.9254901960784314" d="M 387.5 77 L 386.5 79 L 387.5 77 Z "></path><path fill="rgb(255,255,255)" stroke="rgb(255,255,255)" stroke-width="1" opacity="0.9254901960784314" d="M 380.5 84 L 379.5 86 L 380.5 84 Z "></path><path fill="rgb(255,255,255)" stroke="rgb(255,255,255)" stroke-width="1" opacity="0.9254901960784314" d="M 243.5 89 L 244.5 91 L 243.5 89 Z "></path><path fill="rgb(255,255,255)" stroke="rgb(255,255,255)" stroke-width="1" opacity="0.9254901960784314" d="M 254.5 89 L 253.5 91 L 254.5 89 Z "></path><path fill="rgb(255,255,255)" stroke="rgb(255,255,255)" stroke-width="1" opacity="1" d="M 351.5 1 Q 357.8 -1.2 356 4.5 L 345 26.5 L 343 36.5 L 343 50.5 L 346 64.5 L 356 82.5 L 356 87 Q 347.1 85.8 343 78.5 Q 335.8 69.7 332 57.5 Q 329.2 48.8 331 35.5 L 336 19.5 Q 342.1 8.5 351.5 1 Z "></path><path fill="rgb(255,255,255)" stroke="rgb(255,255,255)" stroke-width="1" opacity="1" d="M 375.5 1 Q 383.4 3.1 387 9.5 L 397 26.5 L 400 43.5 L 399 44.5 L 399 54.5 L 396 64.5 Q 390.4 75.9 381.5 84 L 376.5 87 L 374 86 L 374 82.5 L 385 62.5 L 387 52.5 L 387 35.5 L 384 22.5 L 374 2.5 L 375.5 1 Z "></path><path fill="rgb(255,255,255)" stroke="rgb(255,255,255)" stroke-width="1" opacity="1" d="M 26.5 2 L 42.5 4 L 53.5 9 L 56 11.5 L 57 14.5 Q 54.8 19.8 47.5 20 L 36.5 14 L 28.5 13 L 21.5 15 L 18 18.5 L 17 24.5 L 21.5 30 L 44.5 35 L 56 41.5 Q 61.3 46.2 60 57.5 Q 58.2 65.7 52.5 70 L 45.5 74 L 37.5 76 L 21.5 76 L 10.5 73 L 2 68 L 1 62.5 Q 2.9 57.9 10.5 59 L 23.5 65 L 35.5 65 Q 42 63.5 45 58.5 L 46 55.5 L 45 51.5 L 41.5 48 L 16.5 43 Q 8.5 40.5 4 34.5 Q 0 29.5 2 18.5 Q 4.6 11.1 10.5 7 L 19.5 3 Q 25 4.5 26.5 2 Z "></path><path fill="rgb(255,255,255)" stroke="rgb(255,255,255)" stroke-width="1" opacity="1" d="M 142.5 4 L 185.5 4 L 189 6.5 Q 190.3 11.8 187.5 13 L 185.5 14 L 159.5 14 L 154 18.5 L 153 23.5 L 154 27.5 L 157.5 31 L 160.5 32 L 183.5 32 L 186 33 L 187 37.5 L 183.5 42 L 158.5 42 L 155 44.5 Q 151.7 48.2 153 56.5 L 155 62 L 159.5 64 L 188.5 64 L 192 66.5 Q 193.3 71.8 190.5 73 L 188.5 74 L 142.5 74 L 140 73 L 139 70.5 L 139 7.5 L 140 5 L 142.5 4 Z "></path><path fill="rgb(255,255,255)" stroke="rgb(255,255,255)" stroke-width="1" opacity="1" d="M 83.5 19 Q 104.5 16.5 111 28.5 L 114 33.5 L 116 44.5 L 113.5 48 L 83.5 49 L 80 51.5 Q 78.7 60.9 84.5 63 L 92.5 65 L 104.5 58 L 109.5 58 L 113 60.5 L 113 64.5 L 107.5 70 Q 100.3 75.3 87.5 75 L 79.5 73 L 71 68 L 65 56.5 L 64 43.5 L 66 34.5 L 72.5 25 L 83.5 19 Z M 87 29 L 85 30 L 80 36 L 81 39 L 86 41 Q 97 43 100 38 L 99 33 Q 96 27 87 29 Z "></path><path fill="rgb(255,255,255)" stroke="rgb(255,255,255)" stroke-width="1" opacity="1" d="M 301.5 19 L 309.5 19 Q 312.8 21.7 319.5 21 Q 320.8 18.7 325.5 20 Q 329.8 21.8 328 29.5 L 315 38.5 L 313 49.5 L 313 70.5 L 310.5 73 L 302.5 74 L 299 71.5 L 298 68.5 L 298 22.5 L 301.5 19 Z "></path><path fill="rgb(255,255,255)" stroke="rgb(255,255,255)" stroke-width="1" opacity="1" d="M 197.5 20 Q 208.3 18.2 211 24.5 L 215.5 30 L 220 29 L 225.5 21 Q 228.7 18.7 235.5 20 Q 238.5 20.5 238 24.5 L 227 42.5 L 227 48.5 L 237 64.5 L 239 71.5 Q 237.3 74.8 231.5 74 L 227.5 73 L 224 69.5 L 217.5 61 Q 212.8 60.3 212 63.5 L 206.5 72 L 197.5 74 L 194 71.5 L 196 64.5 L 206 48.5 L 206 42.5 L 195 24.5 L 195 22.5 L 197.5 20 Z "></path><path fill="rgb(255,255,255)" stroke="rgb(255,255,255)" stroke-width="1" opacity="1" d="M 265.5 20 Q 274.4 18.6 279.5 21 L 289 28.5 Q 295.4 37.6 293 55.5 Q 290.9 65.9 283.5 71 Q 278 76 265.5 74 Q 264.3 71.8 259.5 73 L 256 76.5 L 255 88.5 L 252.5 91 Q 244.7 92.8 243 88.5 L 243 23.5 L 245.5 21 L 259.5 22 L 265.5 20 Z M 265 29 L 263 30 L 257 37 L 255 46 L 256 55 L 258 60 L 265 65 L 273 65 L 276 63 L 280 56 L 281 51 Q 282 39 278 34 Q 275 27 265 29 Z "></path><path fill="rgb(255,255,255)" stroke="rgb(255,255,255)" stroke-width="1" opacity="1" d="M 124.5 35 Q 129.9 34.4 132 36 L 134 39.5 L 134 44.5 Q 131.9 48.9 125.5 49 L 120 44.5 L 120 39.5 L 124.5 35 Z "></path><path fill="rgb(255,255,255)" stroke="rgb(255,255,255)" stroke-width="1" opacity="0.6274509803921569" d="M 350.5 1 L 349.5 3 L 350.5 1 Z "></path><path fill="rgb(255,255,255)" stroke="rgb(255,255,255)" stroke-width="1" opacity="0.6274509803921569" d="M 22.5 2 L 25 2.5 L 22.5 3 L 22.5 2 Z "></path><path fill="rgb(255,255,255)" stroke="rgb(255,255,255)" stroke-width="1" opacity="0.6274509803921569" d="M 142.5 3 L 186 3.5 L 142.5 4 L 142.5 3 Z "></path><path fill="rgb(255,255,255)" stroke="rgb(255,255,255)" stroke-width="1" opacity="0.6274509803921569" d="M 381.5 3 L 386.5 9 L 381.5 3 Z "></path><path fill="rgb(255,255,255)" stroke="rgb(255,255,255)" stroke-width="1" opacity="0.6274509803921569" d="M 374.5 6 L 375.5 8 L 374.5 6 Z "></path><path fill="rgb(255,255,255)" stroke="rgb(255,255,255)" stroke-width="1" opacity="0.6274509803921569" d="M 9.5 7 L 5.5 12 L 9.5 7 Z "></path><path fill="rgb(255,255,255)" stroke="rgb(255,255,255)" stroke-width="1" opacity="0.6274509803921569" d="M 189.5 7 L 190 9.5 L 189 9.5 L 189.5 7 Z "></path><path fill="rgb(255,255,255)" stroke="rgb(255,255,255)" stroke-width="1" opacity="0.6274509803921569" d="M 344.5 7 L 343.5 9 L 344.5 7 Z "></path><path fill="rgb(255,255,255)" stroke="rgb(255,255,255)" stroke-width="1" opacity="0.6274509803921569" d="M 138.5 9 L 139 70.5 L 138 70.5 L 138.5 9 Z "></path><path fill="rgb(255,255,255)" stroke="rgb(255,255,255)" stroke-width="1" opacity="0.6274509803921569" d="M 388.5 11 L 389.5 13 L 388.5 11 Z "></path><path fill="rgb(255,255,255)" stroke="rgb(255,255,255)" stroke-width="1" opacity="0.6274509803921569" d="M 160.5 14 L 185 14.5 L 160.5 15 L 160.5 14 Z "></path><path fill="rgb(255,255,255)" stroke="rgb(255,255,255)" stroke-width="1" opacity="0.6274509803921569" d="M 20.5 16 L 18.5 19 L 20.5 16 Z "></path><path fill="rgb(255,255,255)" stroke="rgb(255,255,255)" stroke-width="1" opacity="0.6274509803921569" d="M 155.5 17 L 154.5 19 L 155.5 17 Z "></path><path fill="rgb(255,255,255)" stroke="rgb(255,255,255)" stroke-width="1" opacity="0.6274509803921569" d="M 86.5 18 L 96 18.5 L 86.5 19 L 86.5 18 Z "></path><path fill="rgb(255,255,255)" stroke="rgb(255,255,255)" stroke-width="1" opacity="0.6274509803921569" d="M 304.5 18 L 307 18.5 L 304.5 19 L 304.5 18 Z "></path><path fill="rgb(255,255,255)" stroke="rgb(255,255,255)" stroke-width="1" opacity="0.6274509803921569" d="M 200.5 19 L 204 19.5 L 200.5 20 L 200.5 19 Z "></path><path fill="rgb(255,255,255)" stroke="rgb(255,255,255)" stroke-width="1" opacity="0.6274509803921569" d="M 266.5 19 L 270 19.5 L 266.5 20 L 266.5 19 Z "></path><path fill="rgb(255,255,255)" stroke="rgb(255,255,255)" stroke-width="1" opacity="0.6274509803921569" d="M 271.5 19 L 275 19.5 L 271.5 20 L 271.5 19 Z "></path><path fill="rgb(255,255,255)" stroke="rgb(255,255,255)" stroke-width="1" opacity="0.6274509803921569" d="M 247.5 20 L 250 20.5 L 247.5 21 L 247.5 20 Z "></path><path fill="rgb(255,255,255)" stroke="rgb(255,255,255)" stroke-width="1" opacity="0.6274509803921569" d="M 315.5 20 L 319 20.5 L 315.5 21 L 315.5 20 Z "></path><path fill="rgb(255,255,255)" stroke="rgb(255,255,255)" stroke-width="1" opacity="0.6274509803921569" d="M 224.5 21 L 223.5 23 L 224.5 21 Z "></path><path fill="rgb(255,255,255)" stroke="rgb(255,255,255)" stroke-width="1" opacity="0.6274509803921569" d="M 244.5 21 L 243.5 23 L 244.5 21 Z "></path><path fill="rgb(255,255,255)" stroke="rgb(255,255,255)" stroke-width="1" opacity="0.6274509803921569" d="M 255.5 21 L 259 21.5 L 255.5 22 L 255.5 21 Z "></path><path fill="rgb(255,255,255)" stroke="rgb(255,255,255)" stroke-width="1" opacity="0.6274509803921569" d="M 105.5 22 L 107.5 25 L 105.5 22 Z "></path><path fill="rgb(255,255,255)" stroke="rgb(255,255,255)" stroke-width="1" opacity="0.6274509803921569" d="M 242.5 24 L 243 87.5 L 242 87.5 L 242.5 24 Z "></path><path fill="rgb(255,255,255)" stroke="rgb(255,255,255)" stroke-width="1" opacity="0.6274509803921569" d="M 285.5 24 L 287.5 27 L 285.5 24 Z "></path><path fill="rgb(255,255,255)" stroke="rgb(255,255,255)" stroke-width="1" opacity="0.6274509803921569" d="M 18.5 26 L 20.5 29 L 18.5 26 Z "></path><path fill="rgb(255,255,255)" stroke="rgb(255,255,255)" stroke-width="1" opacity="0.6274509803921569" d="M 212.5 26 L 214.5 29 L 212.5 26 Z "></path><path fill="rgb(255,255,255)" stroke="rgb(255,255,255)" stroke-width="1" opacity="0.6274509803921569" d="M 1.5 27 L 2 29.5 L 1 29.5 L 1.5 27 Z "></path><path fill="rgb(255,255,255)" stroke="rgb(255,255,255)" stroke-width="1" opacity="0.6274509803921569" d="M 155.5 28 L 156.5 30 L 155.5 28 Z "></path><path fill="rgb(255,255,255)" stroke="rgb(255,255,255)" stroke-width="1" opacity="0.6274509803921569" d="M 83.5 31 L 81.5 34 L 83.5 31 Z "></path><path fill="rgb(255,255,255)" stroke="rgb(255,255,255)" stroke-width="1" opacity="0.6274509803921569" d="M 166.5 31 L 180 31.5 L 166.5 32 L 166.5 31 Z "></path><path fill="rgb(255,255,255)" stroke="rgb(255,255,255)" stroke-width="1" opacity="0.6274509803921569" d="M 261.5 31 L 259.5 34 L 261.5 31 Z "></path><path fill="rgb(255,255,255)" stroke="rgb(255,255,255)" stroke-width="1" opacity="0.6274509803921569" d="M 297.5 32 L 298 62.5 L 297 62.5 L 297.5 32 Z "></path><path fill="rgb(255,255,255)" stroke="rgb(255,255,255)" stroke-width="1" opacity="0.6274509803921569" d="M 125.5 34 L 129 34.5 L 125.5 35 L 125.5 34 Z "></path><path fill="rgb(255,255,255)" stroke="rgb(255,255,255)" stroke-width="1" opacity="0.6274509803921569" d="M 4.5 35 L 7.5 39 L 4.5 35 Z "></path><path fill="rgb(255,255,255)" stroke="rgb(255,255,255)" stroke-width="1" opacity="0.6274509803921569" d="M 99.5 37 L 97.5 40 L 99.5 37 Z "></path><path fill="rgb(255,255,255)" stroke="rgb(255,255,255)" stroke-width="1" opacity="0.6274509803921569" d="M 343.5 37 L 344 49.5 L 343 49.5 L 343.5 37 Z "></path><path fill="rgb(255,255,255)" stroke="rgb(255,255,255)" stroke-width="1" opacity="0.6274509803921569" d="M 386.5 37 L 387 39.5 L 386 39.5 L 386.5 37 Z "></path><path fill="rgb(255,255,255)" stroke="rgb(255,255,255)" stroke-width="1" opacity="0.6274509803921569" d="M 86.5 40 L 94 40.5 L 86.5 41 L 86.5 40 Z "></path><path fill="rgb(255,255,255)" stroke="rgb(255,255,255)" stroke-width="1" opacity="0.6274509803921569" d="M 134.5 40 L 135 42.5 L 134 42.5 L 134.5 40 Z "></path><path fill="rgb(255,255,255)" stroke="rgb(255,255,255)" stroke-width="1" opacity="0.6274509803921569" d="M 293.5 40 L 294 45.5 L 293 45.5 L 293.5 40 Z "></path><path fill="rgb(255,255,255)" stroke="rgb(255,255,255)" stroke-width="1" opacity="0.6274509803921569" d="M 330.5 40 L 331 50.5 L 330 50.5 L 330.5 40 Z "></path><path fill="rgb(255,255,255)" stroke="rgb(255,255,255)" stroke-width="1" opacity="0.6274509803921569" d="M 159.5 42 L 169 42.5 L 159.5 43 L 159.5 42 Z "></path><path fill="rgb(255,255,255)" stroke="rgb(255,255,255)" stroke-width="1" opacity="0.6274509803921569" d="M 227.5 42 L 228 44.5 L 227 44.5 L 227.5 42 Z "></path><path fill="rgb(255,255,255)" stroke="rgb(255,255,255)" stroke-width="1" opacity="0.6274509803921569" d="M 280.5 43 L 281 48.5 L 280 48.5 L 280.5 43 Z "></path><path fill="rgb(255,255,255)" stroke="rgb(255,255,255)" stroke-width="1" opacity="0.6274509803921569" d="M 22.5 44 L 25 44.5 L 22.5 45 L 22.5 44 Z "></path><path fill="rgb(255,255,255)" stroke="rgb(255,255,255)" stroke-width="1" opacity="0.6274509803921569" d="M 115.5 46 L 114.5 48 L 115.5 46 Z "></path><path fill="rgb(255,255,255)" stroke="rgb(255,255,255)" stroke-width="1" opacity="0.6274509803921569" d="M 386.5 47 L 387 51.5 L 386 51.5 L 386.5 47 Z "></path><path fill="rgb(255,255,255)" stroke="rgb(255,255,255)" stroke-width="1" opacity="0.6274509803921569" d="M 399.5 47 L 400 51.5 L 399 51.5 L 399.5 47 Z "></path><path fill="rgb(255,255,255)" stroke="rgb(255,255,255)" stroke-width="1" opacity="0.6274509803921569" d="M 293.5 48 L 294 52.5 L 293 52.5 L 293.5 48 Z "></path><path fill="rgb(255,255,255)" stroke="rgb(255,255,255)" stroke-width="1" opacity="0.6274509803921569" d="M 153.5 49 L 154 54.5 L 153 54.5 L 153.5 49 Z "></path><path fill="rgb(255,255,255)" stroke="rgb(255,255,255)" stroke-width="1" opacity="0.6274509803921569" d="M 313.5 55 L 314 69.5 L 313 69.5 L 313.5 55 Z "></path><path fill="rgb(255,255,255)" stroke="rgb(255,255,255)" stroke-width="1" opacity="0.6274509803921569" d="M 6.5 58 L 11 58.5 L 6.5 59 L 6.5 58 Z "></path><path fill="rgb(255,255,255)" stroke="rgb(255,255,255)" stroke-width="1" opacity="0.6274509803921569" d="M 101.5 59 L 100.5 61 L 101.5 59 Z "></path><path fill="rgb(255,255,255)" stroke="rgb(255,255,255)" stroke-width="1" opacity="0.6274509803921569" d="M 277.5 59 L 276.5 61 L 277.5 59 Z "></path><path fill="rgb(255,255,255)" stroke="rgb(255,255,255)" stroke-width="1" opacity="0.6274509803921569" d="M 259.5 60 L 262.5 64 L 259.5 60 Z "></path><path fill="rgb(255,255,255)" stroke="rgb(255,255,255)" stroke-width="1" opacity="0.6274509803921569" d="M 113.5 61 L 114 63.5 L 113 63.5 L 113.5 61 Z "></path><path fill="rgb(255,255,255)" stroke="rgb(255,255,255)" stroke-width="1" opacity="0.6274509803921569" d="M 160.5 63 L 176 63.5 L 160.5 64 L 160.5 63 Z "></path><path fill="rgb(255,255,255)" stroke="rgb(255,255,255)" stroke-width="1" opacity="0.6274509803921569" d="M 190.5 64 L 191.5 66 L 190.5 64 Z "></path><path fill="rgb(255,255,255)" stroke="rgb(255,255,255)" stroke-width="1" opacity="0.6274509803921569" d="M 112.5 65 L 111.5 67 L 112.5 65 Z "></path><path fill="rgb(255,255,255)" stroke="rgb(255,255,255)" stroke-width="1" opacity="0.6274509803921569" d="M 192.5 67 L 195.5 73 L 197 73.5 L 195.5 74 Q 190.6 72.6 192.5 67 Z "></path><path fill="rgb(255,255,255)" stroke="rgb(255,255,255)" stroke-width="1" opacity="0.6274509803921569" d="M 4.5 69 L 5.5 71 L 4.5 69 Z "></path><path fill="rgb(255,255,255)" stroke="rgb(255,255,255)" stroke-width="1" opacity="0.6274509803921569" d="M 208.5 70 L 206.5 73 L 208.5 70 Z "></path><path fill="rgb(255,255,255)" stroke="rgb(255,255,255)" stroke-width="1" opacity="0.6274509803921569" d="M 224.5 70 L 226.5 73 L 224.5 70 Z "></path><path fill="rgb(255,255,255)" stroke="rgb(255,255,255)" stroke-width="1" opacity="0.6274509803921569" d="M 312.5 71 L 310.5 74 L 312.5 71 Z "></path><path fill="rgb(255,255,255)" stroke="rgb(255,255,255)" stroke-width="1" opacity="0.6274509803921569" d="M 260.5 73 L 264 73.5 L 260.5 74 L 260.5 73 Z "></path><path fill="rgb(255,255,255)" stroke="rgb(255,255,255)" stroke-width="1" opacity="0.6274509803921569" d="M 143.5 74 L 176 74.5 L 143.5 75 L 143.5 74 Z "></path><path fill="rgb(255,255,255)" stroke="rgb(255,255,255)" stroke-width="1" opacity="0.6274509803921569" d="M 268.5 74 L 276 74.5 L 268.5 75 L 268.5 74 Z "></path><path fill="rgb(255,255,255)" stroke="rgb(255,255,255)" stroke-width="1" opacity="0.6274509803921569" d="M 340.5 75 L 341.5 77 L 340.5 75 Z "></path><path fill="rgb(255,255,255)" stroke="rgb(255,255,255)" stroke-width="1" opacity="0.6274509803921569" d="M 389.5 75 L 388.5 77 L 389.5 75 Z "></path><path fill="rgb(255,255,255)" stroke="rgb(255,255,255)" stroke-width="1" opacity="0.6274509803921569" d="M 23.5 76 L 31 76.5 L 23.5 77 L 23.5 76 Z "></path><path fill="rgb(255,255,255)" stroke="rgb(255,255,255)" stroke-width="1" opacity="0.6274509803921569" d="M 343.5 79 L 348.5 85 L 343.5 79 Z "></path><path fill="rgb(255,255,255)" stroke="rgb(255,255,255)" stroke-width="1" opacity="0.6274509803921569" d="M 255.5 85 L 256 87.5 L 255 87.5 L 255.5 85 Z "></path><path fill="rgb(255,255,255)" stroke="rgb(255,255,255)" stroke-width="1" opacity="0.6274509803921569" d="M 249.5 91 L 253 91.5 L 249.5 92 L 249.5 91 Z "></path></svg>