<?xml version="1.0" encoding="UTF-8" standalone="no"?>
<svg
   role="img"
   viewBox="382.21 304.46 164.43233 214.50331"
   version="1.1"
   id="svg17"
   sodipodi:docname="sequencer.svg"
   width="164.43233"
   height="214.50331"
   inkscape:version="1.4 (e7c3feb1, 2024-10-09)"
   xmlns:inkscape="http://www.inkscape.org/namespaces/inkscape"
   xmlns:sodipodi="http://sodipodi.sourceforge.net/DTD/sodipodi-0.dtd"
   xmlns="http://www.w3.org/2000/svg"
   xmlns:svg="http://www.w3.org/2000/svg">
  <defs
     id="defs17" />
  <sodipodi:namedview
     id="namedview17"
     pagecolor="#ffffff"
     bordercolor="#000000"
     borderopacity="0.25"
     inkscape:showpageshadow="2"
     inkscape:pageopacity="0.0"
     inkscape:pagecheckerboard="0"
     inkscape:deskcolor="#d1d1d1"
     inkscape:zoom="1"
     inkscape:cx="85.5"
     inkscape:cy="108"
     inkscape:window-width="2064"
     inkscape:window-height="1389"
     inkscape:window-x="0"
     inkscape:window-y="25"
     inkscape:window-maximized="0"
     inkscape:current-layer="svg17" />
  <linearGradient
     id="a"
     x1="718.37598"
     x2="975.03302"
     y1="466.12"
     y2="788.94702"
     gradientTransform="rotate(45.001,729.26093,119.08783)"
     gradientUnits="userSpaceOnUse">
    <stop
       offset="0"
       stop-color="#fff"
       id="stop1" />
    <stop
       offset="1"
       id="stop2" />
  </linearGradient>
  <path
     fill="url(#a)"
     stroke="#808184"
     d="m 488.24132,305.71031 -78.28,78.279 64.204,64.205 61.75,-61.886 -1.289,-34.211 -46.385,-46.387"
     id="path2"
     style="fill:url(#a)" />
  <path
     fill="none"
     stroke="#808184"
     stroke-width="3"
     d="m 489.11032,306.58131 -78.279,78.279 64.203,64.203 61.751,-61.886 -0.139,-33.061 z"
     id="path3" />
  <path
     fill="#ffffff"
     stroke="#808184"
     stroke-width="3"
     d="m 534.92132,353.54231 -15.886,15.887 16.024,16.023"
     id="path4" />
  <linearGradient
     id="b"
     x1="712.36499"
     x2="969.021"
     y1="472.13"
     y2="794.95502"
     gradientTransform="rotate(45.001,729.26093,119.08783)"
     gradientUnits="userSpaceOnUse">
    <stop
       offset="0"
       stop-color="#fff"
       id="stop4" />
    <stop
       offset="1"
       id="stop5" />
  </linearGradient>
  <path
     fill="url(#b)"
     d="m 479.74132,305.71031 -78.28,78.279 64.204,64.205 61.75,-61.886 -1.289,-34.211 -46.385,-46.387"
     id="path5"
     style="fill:url(#b)" />
  <path
     fill="none"
     stroke="#545454"
     stroke-width="3"
     d="m 480.61032,306.58131 -78.279,78.279 64.203,64.203 61.751,-61.886 -0.139,-33.061 z"
     id="path6" />
  <path
     fill="#ffffff"
     stroke="#545454"
     stroke-width="3"
     d="m 526.42132,353.54231 -15.886,15.887 16.024,16.023"
     id="path7" />
  <linearGradient
     id="c"
     x1="706.00201"
     x2="962.65601"
     y1="478.49399"
     y2="801.31702"
     gradientTransform="rotate(45.001,729.26093,119.08783)"
     gradientUnits="userSpaceOnUse">
    <stop
       offset="0"
       stop-color="#fff"
       id="stop7" />
    <stop
       offset="1"
       id="stop8" />
  </linearGradient>
  <path
     fill="url(#c)"
     d="m 470.74132,305.71031 -78.28,78.279 64.204,64.205 61.75,-61.886 -1.289,-34.211 -46.385,-46.387"
     id="path8"
     style="fill:url(#c)" />
  <path
     fill="none"
     stroke="#231f20"
     stroke-width="3"
     d="m 471.61032,306.58131 -78.279,78.279 64.203,64.203 61.751,-61.886 -0.139,-33.061 z"
     id="path9" />
  <path
     fill="#ffffff"
     stroke="#231f20"
     stroke-width="3"
     d="m 517.42132,353.54231 -15.886,15.887 16.024,16.023"
     id="path10" />
  <linearGradient
     id="d"
     x1="700.34601"
     x2="956.99799"
     y1="485.565"
     y2="808.38599"
     gradientTransform="rotate(45.001,729.26093,119.08783)"
     gradientUnits="userSpaceOnUse">
    <stop
       offset="0"
       stop-color="#fff"
       id="stop10" />
    <stop
       offset="1"
       id="stop11" />
  </linearGradient>
  <path
     fill="url(#d)"
     d="m 461.74132,306.71131 -78.28,78.279 64.204,64.204 61.75,-61.886 -1.289,-34.211 -46.385,-46.386"
     id="path11"
     style="fill:url(#d)" />
  <path
     fill="none"
     stroke="#231f20"
     stroke-width="3"
     d="m 462.61032,307.58131 -78.279,78.279 64.203,64.203 61.751,-61.886 -0.139,-33.061 z"
     id="path12" />
  <path
     fill="#ffffff"
     stroke="#231f20"
     stroke-width="3"
     d="m 508.42132,354.54231 -15.886,15.887 16.024,16.023"
     id="path13" />
  <circle
     cx="410.3743"
     cy="385.37833"
     r="10.75"
     fill="#be1e2d"
     id="circle13" />
  <path
     fill="#be1e2d"
     d="m 394.71132,510.06531 c 0.836,0.496 2.263,1.055 3.627,1.055 1.953,0 2.883,-0.961 2.883,-2.232 0,-1.303 -0.774,-1.984 -2.759,-2.729 -2.729,-0.992 -3.999,-2.449 -3.999,-4.248 0,-2.418 1.984,-4.402 5.178,-4.402 1.52,0 2.852,0.402 3.658,0.93 l -0.65,1.984 a 5.823,5.823 0 0 0 -3.07,-0.899 c -1.612,0 -2.48,0.931 -2.48,2.047 0,1.24 0.868,1.798 2.822,2.573 2.572,0.961 3.938,2.264 3.938,4.496 0,2.666 -2.078,4.526 -5.582,4.526 -1.643,0 -3.162,-0.434 -4.217,-1.054 z m 16.647,-4.248 c 0.062,3.69 2.387,5.209 5.146,5.209 1.953,0 3.163,-0.341 4.155,-0.774 l 0.496,1.953 c -0.962,0.435 -2.636,0.961 -5.022,0.961 -4.621,0 -7.38,-3.069 -7.38,-7.597 0,-4.526 2.667,-8.061 7.038,-8.061 4.93,0 6.201,4.278 6.201,7.038 0,0.558 -0.031,0.961 -0.093,1.271 z m 8,-1.953 c 0.031,-1.705 -0.713,-4.402 -3.783,-4.402 -2.791,0 -3.969,2.512 -4.186,4.402 z m 18.723,6.666 h -0.061 c -0.838,1.458 -2.48,2.636 -4.9,2.636 -3.503,0 -6.355,-3.007 -6.355,-7.565 0,-5.643 3.627,-8.092 6.791,-8.092 2.324,0 3.875,1.146 4.619,2.573 h 0.062 l 0.092,-2.264 h 2.574 a 79.324,79.324 0 0 0 -0.124,4.124 v 17.021 h -2.698 z m 0,-6.634 c 0,-0.372 -0.03,-0.775 -0.123,-1.116 -0.434,-1.675 -1.861,-3.101 -3.906,-3.101 -2.822,0 -4.527,2.388 -4.527,5.736 0,3.008 1.426,5.581 4.434,5.581 1.768,0 3.287,-1.085 3.906,-2.946 0.125,-0.402 0.217,-0.93 0.217,-1.333 v -2.821 z"
     id="path14" />
  <path
     d="m 460.33932,508.70131 c 0,1.581 0.03,2.946 0.124,4.124 h -2.418 l -0.156,-2.449 h -0.061 c -0.684,1.209 -2.295,2.79 -4.961,2.79 -2.357,0 -5.179,-1.333 -5.179,-6.573 v -8.774 h 2.729 v 8.278 c 0,2.853 0.899,4.807 3.349,4.807 1.83,0 3.101,-1.271 3.597,-2.512 0.155,-0.372 0.248,-0.868 0.248,-1.396 v -9.178 h 2.729 v 10.883 z m 8.523,-2.884 c 0.062,3.69 2.389,5.209 5.147,5.209 1.954,0 3.163,-0.341 4.155,-0.774 l 0.496,1.953 c -0.961,0.435 -2.637,0.961 -5.023,0.961 -4.619,0 -7.379,-3.069 -7.379,-7.597 0,-4.526 2.666,-8.061 7.037,-8.061 4.931,0 6.201,4.278 6.201,7.038 0,0.558 -0.03,0.961 -0.092,1.271 z m 8,-1.953 c 0.031,-1.705 -0.713,-4.402 -3.783,-4.402 -2.79,0 -3.969,2.512 -4.186,4.402 z m 8.492,-1.984 c 0,-1.581 -0.031,-2.821 -0.125,-4.062 h 2.42 l 0.154,2.48 h 0.062 c 0.744,-1.396 2.48,-2.79 4.961,-2.79 2.076,0 5.301,1.24 5.301,6.387 v 8.93 h -2.729 v -8.65 c 0,-2.419 -0.898,-4.434 -3.473,-4.434 -1.767,0 -3.162,1.271 -3.658,2.79 -0.123,0.341 -0.186,0.806 -0.186,1.271 v 9.022 h -2.729 v -10.944 z m 30.381,10.418 c -0.713,0.342 -2.294,0.868 -4.309,0.868 -4.527,0 -7.473,-3.069 -7.473,-7.658 0,-4.62 3.162,-7.999 8.061,-7.999 1.613,0 3.039,0.402 3.783,0.806 l -0.62,2.077 c -0.651,-0.341 -1.675,-0.713 -3.163,-0.713 -3.441,0 -5.301,2.573 -5.301,5.674 0,3.473 2.232,5.612 5.209,5.612 a 7.817,7.817 0 0 0 3.348,-0.713 z m 7.005,-6.481 c 0.062,3.69 2.388,5.209 5.147,5.209 1.953,0 3.162,-0.341 4.154,-0.774 l 0.496,1.953 c -0.961,0.435 -2.635,0.961 -5.023,0.961 -4.619,0 -7.379,-3.069 -7.379,-7.597 0,-4.526 2.666,-8.061 7.039,-8.061 4.93,0 6.201,4.278 6.201,7.038 0,0.558 -0.031,0.961 -0.094,1.271 z m 7.999,-1.953 c 0.031,-1.705 -0.713,-4.402 -3.782,-4.402 -2.79,0 -3.969,2.512 -4.187,4.402 z m 8.492,-1.364 c 0,-1.767 -0.031,-3.286 -0.123,-4.682 h 2.387 l 0.124,2.977 h 0.093 c 0.682,-2.016 2.357,-3.286 4.186,-3.286 0.279,0 0.496,0.03 0.744,0.062 v 2.573 c -0.279,-0.062 -0.558,-0.062 -0.93,-0.062 -1.922,0 -3.287,1.426 -3.658,3.473 a 8.157,8.157 0 0 0 -0.094,1.271 v 8 h -2.729 z"
     id="path15" />
</svg>
