<svg xmlns="http://www.w3.org/2000/svg" role="img" viewBox="382.21 304.46 173.08 223.08"><linearGradient id="a" x1="718.376" x2="975.033" y1="466.12" y2="788.947" gradientTransform="rotate(45.001 726.05 126.695)" gradientUnits="userSpaceOnUse"><stop offset="0" stop-color="#fff"/><stop offset="1"/></linearGradient><path fill="url(#a)" stroke="#808184" d="M492.68 310.209l-78.28 78.279 64.204 64.205 61.75-61.886-1.289-34.211-46.385-46.387"/><path fill="none" stroke="#808184" stroke-width="3" d="M493.549 311.08l-78.279 78.279 64.203 64.203 61.751-61.886-.139-33.061z"/><path fill="#FFF" stroke="#808184" stroke-width="3" d="M539.36 358.041l-15.886 15.887 16.024 16.023"/><linearGradient id="b" x1="712.365" x2="969.021" y1="472.13" y2="794.955" gradientTransform="rotate(45.001 726.05 126.695)" gradientUnits="userSpaceOnUse"><stop offset="0" stop-color="#fff"/><stop offset="1"/></linearGradient><path fill="url(#b)" d="M484.18 310.209l-78.28 78.279 64.204 64.205 61.75-61.886-1.289-34.211-46.385-46.387"/><path fill="none" stroke="#545454" stroke-width="3" d="M485.049 311.08l-78.279 78.279 64.203 64.203 61.751-61.886-.139-33.061z"/><path fill="#FFF" stroke="#545454" stroke-width="3" d="M530.86 358.041l-15.886 15.887 16.024 16.023"/><linearGradient id="c" x1="706.002" x2="962.656" y1="478.494" y2="801.317" gradientTransform="rotate(45.001 726.05 126.695)" gradientUnits="userSpaceOnUse"><stop offset="0" stop-color="#fff"/><stop offset="1"/></linearGradient><path fill="url(#c)" d="M475.18 310.209l-78.28 78.279 64.204 64.205 61.75-61.886-1.289-34.211-46.385-46.387"/><path fill="none" stroke="#231F20" stroke-width="3" d="M476.049 311.08l-78.279 78.279 64.203 64.203 61.751-61.886-.139-33.061z"/><path fill="#FFF" stroke="#231F20" stroke-width="3" d="M521.86 358.041l-15.886 15.887 16.024 16.023"/><linearGradient id="d" x1="700.346" x2="956.998" y1="485.565" y2="808.386" gradientTransform="rotate(45.001 726.05 126.695)" gradientUnits="userSpaceOnUse"><stop offset="0" stop-color="#fff"/><stop offset="1"/></linearGradient><path fill="url(#d)" d="M466.18 311.21l-78.28 78.279 64.204 64.204 61.75-61.886-1.289-34.211-46.385-46.386"/><path fill="none" stroke="#231F20" stroke-width="3" d="M467.049 312.08l-78.279 78.279 64.203 64.203 61.751-61.886-.139-33.061z"/><path fill="#FFF" stroke="#231F20" stroke-width="3" d="M512.86 359.041l-15.886 15.887 16.024 16.023"/><circle cx="414.813" cy="389.877" r="10.75" fill="#BE1E2D"/><path fill="#BE1E2D" d="M399.15 514.564c.836.496 2.263 1.055 3.627 1.055 1.953 0 2.883-.961 2.883-2.232 0-1.303-.774-1.984-2.759-2.729-2.729-.992-3.999-2.449-3.999-4.248 0-2.418 1.984-4.402 5.178-4.402 1.52 0 2.852.402 3.658.93l-.65 1.984a5.823 5.823 0 0 0-3.07-.899c-1.612 0-2.48.931-2.48 2.047 0 1.24.868 1.798 2.822 2.573 2.572.961 3.938 2.264 3.938 4.496 0 2.666-2.078 4.526-5.582 4.526-1.643 0-3.162-.434-4.217-1.054l.651-2.047zm16.647-4.248c.062 3.69 2.387 5.209 5.146 5.209 1.953 0 3.163-.341 4.155-.774l.496 1.953c-.962.435-2.636.961-5.022.961-4.621 0-7.38-3.069-7.38-7.597 0-4.526 2.667-8.061 7.038-8.061 4.93 0 6.201 4.278 6.201 7.038 0 .558-.031.961-.093 1.271h-10.541zm8-1.953c.031-1.705-.713-4.402-3.783-4.402-2.791 0-3.969 2.512-4.186 4.402h7.969zm18.723 6.666h-.061c-.838 1.458-2.48 2.636-4.9 2.636-3.503 0-6.355-3.007-6.355-7.565 0-5.643 3.627-8.092 6.791-8.092 2.324 0 3.875 1.146 4.619 2.573h.062l.092-2.264h2.574a79.324 79.324 0 0 0-.124 4.124v17.021h-2.698v-8.433zm0-6.634c0-.372-.03-.775-.123-1.116-.434-1.675-1.861-3.101-3.906-3.101-2.822 0-4.527 2.388-4.527 5.736 0 3.008 1.426 5.581 4.434 5.581 1.768 0 3.287-1.085 3.906-2.946.125-.402.217-.93.217-1.333v-2.821z"/><path d="M464.778 513.2c0 1.581.03 2.946.124 4.124h-2.418l-.156-2.449h-.061c-.684 1.209-2.295 2.79-4.961 2.79-2.357 0-5.179-1.333-5.179-6.573v-8.774h2.729v8.278c0 2.853.899 4.807 3.349 4.807 1.83 0 3.101-1.271 3.597-2.512.155-.372.248-.868.248-1.396v-9.178h2.729V513.2zm8.523-2.884c.062 3.69 2.389 5.209 5.147 5.209 1.954 0 3.163-.341 4.155-.774l.496 1.953c-.961.435-2.637.961-5.023.961-4.619 0-7.379-3.069-7.379-7.597 0-4.526 2.666-8.061 7.037-8.061 4.931 0 6.201 4.278 6.201 7.038 0 .558-.03.961-.092 1.271h-10.542zm8-1.953c.031-1.705-.713-4.402-3.783-4.402-2.79 0-3.969 2.512-4.186 4.402h7.969zm8.492-1.984c0-1.581-.031-2.821-.125-4.062h2.42l.154 2.48h.062c.744-1.396 2.48-2.79 4.961-2.79 2.076 0 5.301 1.24 5.301 6.387v8.93h-2.729v-8.65c0-2.419-.898-4.434-3.473-4.434-1.767 0-3.162 1.271-3.658 2.79-.123.341-.186.806-.186 1.271v9.022h-2.729v-10.944zm30.381 10.418c-.713.342-2.294.868-4.309.868-4.527 0-7.473-3.069-7.473-7.658 0-4.62 3.162-7.999 8.061-7.999 1.613 0 3.039.402 3.783.806l-.62 2.077c-.651-.341-1.675-.713-3.163-.713-3.441 0-5.301 2.573-5.301 5.674 0 3.473 2.232 5.612 5.209 5.612a7.817 7.817 0 0 0 3.348-.713l.465 2.046zm7.005-6.481c.062 3.69 2.388 5.209 5.147 5.209 1.953 0 3.162-.341 4.154-.774l.496 1.953c-.961.435-2.635.961-5.023.961-4.619 0-7.379-3.069-7.379-7.597 0-4.526 2.666-8.061 7.039-8.061 4.93 0 6.201 4.278 6.201 7.038 0 .558-.031.961-.094 1.271h-10.541zm7.999-1.953c.031-1.705-.713-4.402-3.782-4.402-2.79 0-3.969 2.512-4.187 4.402h7.969zm8.492-1.364c0-1.767-.031-3.286-.123-4.682h2.387l.124 2.977h.093c.682-2.016 2.357-3.286 4.186-3.286.279 0 .496.03.744.062v2.573c-.279-.062-.558-.062-.93-.062-1.922 0-3.287 1.426-3.658 3.473a8.157 8.157 0 0 0-.094 1.271v8h-2.729v-10.326z"/><path fill="none" d="M94.032 286.889H348v270H94.032z"/><path fill="none" d="M345.5 286.889h256v270h-256z"/></svg>