<?xml version="1.0" encoding="UTF-8" standalone="no"?>
<svg
   xmlns:dc="http://purl.org/dc/elements/1.1/"
   xmlns:cc="http://creativecommons.org/ns#"
   xmlns:rdf="http://www.w3.org/1999/02/22-rdf-syntax-ns#"
   xmlns:svg="http://www.w3.org/2000/svg"
   xmlns="http://www.w3.org/2000/svg"
   viewBox="0 0 508.93332 107.38667"
   height="107.38667"
   width="508.93332"
   xml:space="preserve"
   id="svg2"
   version="1.1"><metadata
     id="metadata8"><rdf:RDF><cc:Work
         rdf:about=""><dc:format>image/svg+xml</dc:format><dc:type
           rdf:resource="http://purl.org/dc/dcmitype/StillImage" /></cc:Work></rdf:RDF></metadata><defs
     id="defs6" /><g
     transform="matrix(1.3333333,0,0,-1.3333333,0,107.38667)"
     id="g10"><g
       transform="scale(0.1)"
       id="g12"><path
         id="path14"
         style="fill:#f3632a;fill-opacity:1;fill-rule:nonzero;stroke:none"
         d="m 208.547,299.023 c 39.637,8.465 55.781,43.668 55.781,70.969 0,28.793 -27.133,75.321 -94.488,73.723 C 86.4961,441.738 34.0508,381.781 32.2813,307.66 30.0547,214.32 117.363,152.973 206.973,151.859 c 131.562,-1.64 209.605,84.664 209.437,211.055 -0.148,114.449 -92,224.637 -230.055,229.41 C 110.75,594.938 48.1211,574.09 0,540.02 v -84.747 c 45.3047,53.247 112.793,78.09 171.852,77.497 100.093,-1.004 177.308,-76.5 177.757,-161.832 0.426,-81.567 -33.746,-141.61 -125.957,-156.411 -50.285,-8.07 -128.9684,21.422 -125.4684,97.383 1.8047,39.176 32.3124,61.289 67.2654,59.695 -34.195,-45.835 11.082,-79.425 43.098,-72.582" /><path
         id="path16"
         style="fill:#f3632a;fill-opacity:1;fill-rule:nonzero;stroke:none"
         d="m 673.313,294.387 121.851,-62.321 v 173.657 l -97.793,-9.61 97.793,54.239 v 355.043 h -196.57 c 8.355,-27.821 35.648,-47.696 35.648,-94.258 0,-64.309 -76.043,-78.965 -77.465,-144.922 -1.375,-63.727 46.465,-79.66 47.879,-132.93 1.395,-52.48 -21.277,-76.082 -21.277,-76.082 0,0 12.559,15.945 7.203,54.742 -10.902,78.993 -85.68,84.934 -87.754,154.176 -1.808,60.457 41.125,73.852 40.52,127.746 -0.664,59.453 -54.7,80.219 -60.914,111.528 L 0,805.395 V 620.523 c 52.0977,29.965 114.816,48.239 186.355,48.196 C 379.512,668.602 502.129,533.648 502.082,363.387 502.031,187.164 379.52,76.0352 213.742,74.1875 118.895,73.125 45.4297,113.535 0,168.348 V 10.2305 H 522.293 L 583.379,235.781 637.156,10.2305 H 795.164 V 158.531 L 673.313,294.387" /><path
         id="path18"
         style="fill:#100f0d;fill-opacity:1;fill-rule:nonzero;stroke:none"
         d="m 929.727,97.2617 41.808,49.4883 c 62.285,-56.3125 122.015,-84.4766 204.785,-84.4766 80.2,0 133.1,42.6676 133.1,101.5466 v 1.703 c 0,55.454 -29.87,87.028 -155.29,113.473 -137.38,29.867 -200.509,74.238 -200.509,172.359 v 1.708 c 0,93.847 82.769,162.957 196.239,162.957 87.03,0 149.31,-24.739 209.9,-73.368 l -39.26,-52.054 c -55.45,45.218 -110.92,64.84 -172.35,64.84 -77.63,0 -127.12,-42.653 -127.12,-96.415 v -1.703 c 0,-56.312 30.71,-87.875 162.11,-116.039 133.1,-29.008 194.53,-77.636 194.53,-168.933 v -1.707 c 0,-102.391 -85.32,-168.93397 -203.92,-168.93397 -94.71,0 -172.35,31.55857 -244.023,95.55467" /><path
         id="path20"
         style="fill:#100f0d;fill-opacity:1;fill-rule:nonzero;stroke:none"
         d="m 1449.92,451.355 h 65.7 V 10.2344 h -65.7 z m -4.26,168.938 h 75.07 V 547.77 h -75.07 v 72.523" /><path
         id="path22"
         style="fill:#100f0d;fill-opacity:1;fill-rule:nonzero;stroke:none"
         d="m 1974.99,230.363 v 1.707 c 0,101.532 -77.65,169.797 -159.56,169.797 -85.32,0 -155.28,-63.137 -155.28,-169.797 v -1.707 c 0,-104.093 72.52,-170.6403 155.28,-170.6403 81.91,0 159.56,69.1133 159.56,170.6403 z m -382.24,-0.843 v 1.707 c 0,144.183 104.94,229.503 210.74,229.503 81.91,0 134.81,-44.359 168.94,-93.847 V 633.09 h 65.7 V 10.2344 h -65.7 V 98.9648 C 1936.59,46.0664 1884.54,0.847656 1803.49,0.847656 c -105.8,0 -210.74,83.613244 -210.74,228.672344" /><path
         id="path24"
         style="fill:#100f0d;fill-opacity:1;fill-rule:nonzero;stroke:none"
         d="m 2458.23,255.102 c -6.82,80.207 -52.9,150.175 -140.79,150.175 -76.78,0 -134.81,-63.996 -143.34,-150.175 z M 2107.56,229.52 v 1.707 c 0,127.125 89.58,229.503 211.59,229.503 130.55,0 205.62,-104.082 205.62,-232.929 0,-8.528 0,-13.645 -0.84,-21.328 H 2174.1 c 9.39,-95.555 76.8,-149.3167 155.29,-149.3167 60.59,0 103.24,24.7539 139.07,62.2887 l 40.96,-36.6872 C 2465.05,33.2656 2411.3,0 2327.69,0 2206.52,0 2107.56,93.0039 2107.56,229.52" /><path
         id="path26"
         style="fill:#100f0d;fill-opacity:1;fill-rule:nonzero;stroke:none"
         d="m 2608.27,607.492 h 454.77 V 488.047 H 2739.66 V 360.906 h 284.98 V 241.457 H 2739.66 V 10.2344 H 2608.27 V 607.492" /><path
         id="path28"
         style="fill:#100f0d;fill-opacity:1;fill-rule:nonzero;stroke:none"
         d="M 3655.87,607.492 3456.22,315.688 3664.4,10.2344 H 3510.82 L 3376.86,215.016 3242.05,10.2344 h -149.32 l 208.2,303.7456 -199.65,293.512 h 153.57 l 124.57,-193.687 127.13,193.687 h 149.32" /><path
         id="path30"
         style="fill:#231f20;fill-opacity:1;fill-rule:nonzero;stroke:none"
         d="m 3749.46,555.551 h 8 c 2.76,0 5.08,0.246 6.93,0.746 1.85,0.496 3.33,1.219 4.43,2.156 1.1,0.942 1.87,2.117 2.31,3.527 0.45,1.407 0.67,3.028 0.67,4.86 0,1.773 -0.2,3.316 -0.59,4.625 -0.39,1.305 -1.09,2.39 -2.08,3.25 -0.99,0.863 -2.32,1.512 -4,1.961 -1.67,0.445 -3.78,0.664 -6.34,0.664 h -9.33 z m 0,-10.574 V 518.48 h -14.58 v 70.071 h 23.91 c 9.4,0 16.33,-1.68 20.77,-5.02 4.44,-3.343 6.66,-8.277 6.66,-14.808 0,-4.758 -1.28,-8.875 -3.84,-12.352 -2.56,-3.469 -6.48,-5.941 -11.76,-7.402 1.05,-0.625 1.92,-1.399 2.63,-2.313 0.71,-0.918 1.37,-1.976 1.99,-3.176 l 15.99,-25 h -14.02 c -2.04,0 -3.5,0.758 -4.4,2.278 l -13.4,21.941 c -0.52,0.731 -1.09,1.293 -1.72,1.684 -0.62,0.394 -1.62,0.594 -2.98,0.594 z m -38.25,8.378 c 0,-6.894 1.25,-13.335 3.73,-19.32 2.48,-5.98 5.89,-11.18 10.22,-15.594 4.34,-4.414 9.45,-7.902 15.33,-10.461 5.87,-2.562 12.18,-3.843 18.92,-3.843 4.5,0 8.83,0.578 13.02,1.726 4.17,1.149 8.06,2.782 11.64,4.899 3.57,2.117 6.84,4.664 9.79,7.64 2.95,2.981 5.48,6.297 7.57,9.95 2.08,3.664 3.7,7.589 4.85,11.8 1.15,4.203 1.73,8.606 1.73,13.203 0,4.598 -0.58,9.028 -1.73,13.286 -1.15,4.261 -2.77,8.214 -4.85,11.879 -2.09,3.652 -4.62,6.984 -7.57,9.992 -2.95,3.004 -6.22,5.574 -9.79,7.718 -3.58,2.141 -7.47,3.801 -11.64,4.973 -4.19,1.184 -8.52,1.77 -13.02,1.77 -6.74,0 -13.05,-1.297 -18.92,-3.887 -5.88,-2.582 -10.99,-6.109 -15.33,-10.574 -4.33,-4.473 -7.74,-9.719 -10.22,-15.754 -2.48,-6.039 -3.73,-12.5 -3.73,-19.403 z m -9.32,0 c 0,5.282 0.67,10.372 2.03,15.29 1.36,4.906 3.29,9.503 5.81,13.789 2.5,4.285 5.51,8.175 9.01,11.679 3.5,3.5 7.38,6.504 11.63,9.012 4.26,2.508 8.85,4.457 13.76,5.844 4.91,1.383 10.01,2.07 15.28,2.07 5.28,0 10.37,-0.687 15.29,-2.07 4.91,-1.387 9.51,-3.336 13.79,-5.844 4.29,-2.508 8.18,-5.512 11.68,-9.012 3.5,-3.504 6.51,-7.394 9.01,-11.679 2.51,-4.286 4.44,-8.883 5.8,-13.789 1.36,-4.918 2.04,-10.008 2.04,-15.29 0,-5.273 -0.69,-10.371 -2.08,-15.281 -1.38,-4.914 -3.31,-9.5 -5.8,-13.754 -2.48,-4.257 -5.47,-8.136 -8.97,-11.636 -3.5,-3.504 -7.39,-6.508 -11.68,-9.016 -4.28,-2.504 -8.88,-4.445 -13.79,-5.805 -4.92,-1.351 -10.01,-2.035 -15.29,-2.035 -5.27,0 -10.37,0.684 -15.28,2.035 -4.91,1.36 -9.5,3.301 -13.76,5.805 -4.25,2.508 -8.13,5.512 -11.63,9.016 -3.5,3.5 -6.51,7.379 -9.01,11.636 -2.52,4.254 -4.45,8.84 -5.81,13.754 -1.36,4.91 -2.03,10.008 -2.03,15.281" /></g></g></svg>