<svg xmlns="http://www.w3.org/2000/svg" role="img" viewBox="-10.68 -10.18 529.36 127.36"><title>SideFX logo</title><path fill="#f3632a" d="M27.806 67.517c5.285-1.129 7.438-5.822 7.438-9.463 0-3.839-3.618-10.042-12.599-9.83-11.112.264-18.105 8.259-18.34 18.141-.299 12.446 11.342 20.625 23.29 20.775C45.137 87.358 55.543 75.851 55.52 59c-.02-15.26-12.266-29.952-30.674-30.589-10.08-.348-18.43 2.431-24.847 6.974v11.3c6.04-7.1 15.04-10.412 22.914-10.333 13.345.134 23.64 10.2 23.7 21.577.057 10.876-4.499 18.882-16.794 20.855C23.115 79.86 12.623 75.928 13.09 65.8c.24-5.224 4.308-8.172 8.969-7.96-4.56 6.112 1.477 10.59 5.746 9.678"/><path fill="#f3632a" d="M89.775 68.135l16.247 8.31V53.29l-13.04 1.282 13.04-7.232V0h-26.21c1.115 3.71 4.754 6.36 4.754 12.568 0 8.575-10.14 10.53-10.33 19.323-.182 8.497 6.196 10.622 6.385 17.724.186 6.998-2.837 10.145-2.837 10.145s1.674-2.126.96-7.3c-1.453-10.532-11.424-11.324-11.7-20.556-.241-8.061 5.483-9.847 5.402-17.033-.088-7.927-7.293-10.696-8.121-14.87H0v24.65c6.946-3.996 15.309-6.433 24.847-6.427 25.755.016 42.104 18.01 42.097 40.711-.007 23.496-16.341 38.314-38.445 38.56C15.853 97.637 6.057 92.249 0 84.94v21.083h69.64l8.144-30.074 7.17 30.074h21.068V86.249L89.775 68.135"/><path fill="#100f0d" d="M123.964 94.418l5.574-6.598c8.305 7.508 16.269 11.264 27.305 11.264 10.693 0 17.746-5.69 17.746-13.54v-.227c0-7.394-3.982-11.604-20.705-15.13-18.317-3.982-26.735-9.898-26.735-22.981v-.228c0-12.513 11.036-21.727 26.166-21.727 11.604 0 19.908 3.298 27.986 9.782l-5.234 6.94c-7.394-6.028-14.79-8.645-22.98-8.645-10.351 0-16.95 5.687-16.95 12.856v.227c0 7.508 4.095 11.716 21.615 15.472 17.747 3.867 25.937 10.351 25.937 22.524v.228c0 13.652-11.376 22.524-27.189 22.524-12.628 0-22.98-4.208-32.536-12.74m69.359-47.213h8.76v58.816h-8.76zm-.568-22.525h10.009v9.67h-10.01v-9.67m70.578 51.991v-.228c0-13.538-10.353-22.64-21.275-22.64-11.376 0-20.704 8.419-20.704 22.64v.228c0 13.879 9.67 22.752 20.704 22.752 10.922 0 21.275-9.215 21.275-22.752zm-50.965.112v-.228c0-19.224 13.992-30.6 28.098-30.6 10.922 0 17.975 5.915 22.526 12.513V22.975h8.76v83.047h-8.76v-11.83c-4.779 7.052-11.719 13.082-22.526 13.082-14.106 0-28.098-11.149-28.098-30.49m115.397-3.411c-.91-10.694-7.053-20.023-18.772-20.023-10.237 0-17.975 8.533-19.112 20.023zm-46.756 3.411v-.228c0-16.95 11.944-30.6 28.212-30.6 17.407 0 27.416 13.878 27.416 31.057 0 1.137 0 1.82-.112 2.844H289.88c1.252 12.74 10.24 19.909 20.705 19.909 8.079 0 13.766-3.3 18.543-8.305l5.461 4.891c-5.916 6.6-13.082 11.035-24.23 11.035-16.156 0-29.351-12.4-29.351-30.603m66.762-50.396h60.635v15.926h-43.117v16.952h37.997v15.926h-37.997v30.83h-17.519V26.388m139.681 0l-26.62 38.907 27.757 40.727h-20.478l-17.861-27.304-17.975 27.304h-19.909l27.76-40.5-26.62-39.134h20.476l16.61 25.825 16.95-25.825h19.91"/><path fill="#231f20" d="M499.928 33.313h1.067a3.6 3.6 0 0 0 .924-.1 1.48 1.48 0 0 0 .59-.287.997.997 0 0 0 .308-.47c.06-.188.09-.404.09-.648a2.17 2.17 0 0 0-.079-.617.906.906 0 0 0-.277-.433 1.316 1.316 0 0 0-.534-.261 3.355 3.355 0 0 0-.845-.089h-1.244zm0 1.41v3.533h-1.944v-9.343h3.188c1.253 0 2.177.224 2.77.67.591.445.887 1.103.887 1.974 0 .634-.17 1.183-.512 1.647-.341.462-.864.792-1.568.987.14.083.256.186.351.308.095.123.183.264.265.424l2.132 3.333h-1.869c-.272 0-.467-.101-.587-.304l-1.786-2.925a.811.811 0 0 0-.23-.225c-.082-.052-.216-.079-.397-.079zm-5.1-1.117c0 .92.167 1.778.497 2.576.331.797.786 1.49 1.363 2.08a6.437 6.437 0 0 0 2.044 1.394 6.238 6.238 0 0 0 2.523.512c.6 0 1.177-.077 1.736-.23a6.35 6.35 0 0 0 2.857-1.672c.393-.397.73-.84 1.01-1.326a6.799 6.799 0 0 0 .646-1.574 6.65 6.65 0 0 0 .23-1.76 6.766 6.766 0 0 0-.877-3.355 6.528 6.528 0 0 0-2.314-2.362 6.37 6.37 0 0 0-1.552-.663 6.346 6.346 0 0 0-1.736-.236 6.18 6.18 0 0 0-2.523.519 6.418 6.418 0 0 0-2.044 1.41 6.584 6.584 0 0 0-1.363 2.1 6.74 6.74 0 0 0-.497 2.587zm-1.243 0a7.608 7.608 0 0 1 1.046-3.877 7.768 7.768 0 0 1 2.752-2.759 7.756 7.756 0 0 1 1.834-.78 7.483 7.483 0 0 1 2.038-.275c.704 0 1.382.091 2.038.276a7.833 7.833 0 0 1 1.839.779 7.66 7.66 0 0 1 2.759 2.759 7.68 7.68 0 0 1 1.045 3.877c0 .703-.092 1.383-.277 2.037a7.773 7.773 0 0 1-.774 1.834 7.644 7.644 0 0 1-4.592 3.528 7.66 7.66 0 0 1-2.038.271 7.618 7.618 0 0 1-5.423-2.247 7.706 7.706 0 0 1-1.201-1.552 7.6 7.6 0 0 1-1.045-3.871"/></svg>