<?xml version="1.0" encoding="UTF-8"?>
<svg id="Layer_1" xmlns="http://www.w3.org/2000/svg" version="1.1" viewBox="0 0 455.9 130">
  <!-- Generator: Adobe Illustrator 29.6.0, SVG Export Plug-In . SVG Version: 2.1.1 Build 207)  -->
  <defs>
    <style>
      .st0, .st1 {
        fill: #231f20;
      }

      .st1 {
        fill-rule: evenodd;
      }

      .st2 {
        isolation: isolate;
      }

      .st3 {
        fill: none;
        stroke: #1c1b1a;
        stroke-miterlimit: 10;
        stroke-width: .2px;
      }
    </style>
  </defs>
  <g id="ANIMATION_Brother_1816">
    <g>
      <path class="st0" d="M46.4,90.1h0l11.6,26.3h-2.2l-3-6.7h-13l-2.9,6.7h-2.2l11.7-26.3h0ZM52.2,107.9c-2-4.5-3.8-8.8-5.7-13.3-1.9,4.5-3.8,8.8-5.8,13.3h11.5,0Z"/>
      <path class="st0" d="M88.5,96.4c-.2-.3-.6-.7-.7-.9,0,.4,0,1,0,1.7v19.3h-2.1v-26.3h0l16.9,20.5c.2.3.6.7.7.9,0-.4,0-1,0-1.7v-19.3h2.1v26.3h0l-16.9-20.5h0Z"/>
      <path class="st0" d="M136.4,116.4v-25.9h2.1v25.9h-2.1Z"/>
      <path class="st0" d="M172.1,97.1l-.8-1.2c0,.7,0,1.3,0,1.9v18.6h-2.1v-26.3h0l11.3,15.8,11.3-15.8h0v26.3h-2.1v-18.6c0-.6,0-1.2,0-1.9-.5.8-1.4,2.1-2.1,3.1l-7.3,10.2-8.6-12.1h0Z"/>
      <path class="st0" d="M231.4,90.1h0l11.6,26.3h-2.2l-2.9-6.7h-13l-2.9,6.7h-2.2l11.7-26.3h0ZM237.1,107.9c-2-4.5-3.9-8.8-5.7-13.3-1.9,4.5-3.8,8.8-5.8,13.3h11.5,0Z"/>
      <path class="st0" d="M275.1,92.3v24.2h-2v-24.2h-8.1v-1.8h18.2v1.8h-8.1Z"/>
      <path class="st0" d="M311,116.4v-25.9h2.1v25.9h-2.1Z"/>
      <path class="st0" d="M355.4,90.1c7.5,0,13.1,6,13.1,13.4s-5.6,13.4-13.1,13.4-13.1-5.9-13.1-13.4,5.6-13.4,13.1-13.4ZM355.4,114.9c6.4,0,10.9-5,10.9-11.4s-4.5-11.4-10.9-11.4-11,5-11,11.4,4.6,11.4,11,11.4Z"/>
      <path class="st0" d="M400.5,96.4c-.2-.3-.6-.7-.7-.9,0,.4,0,1,0,1.7v19.3h-2.1v-26.3h0l16.9,20.5c.2.3.6.7.7.9,0-.4,0-1,0-1.7v-19.3h2v26.3h0l-16.9-20.5h0Z"/>
    </g>
  </g>
  <g id="LINE_vector" class="st2">
    <g id="LINE_vector-2">
      <path class="st1" d="M428.1,85.4c-67-10.2-123.6-16.7-201.3-16.7s-134.3,6.6-201.3,16.7c0,0,0,0,0,0,67-10.2,129.5-14.1,201.3-14.1s134.3,3.9,201.3,14.1c0,0,0,0,0,0Z"/>
      <path class="st3" d="M428.1,85.4c-67-10.2-123.6-16.7-201.3-16.7s-134.3,6.6-201.3,16.7c0,0,0,0,0,0,67-10.2,129.5-14.1,201.3-14.1s134.3,3.9,201.3,14.1c0,0,0,0,0,0Z"/>
    </g>
  </g>
  <g id="SKYDANCE_Minion" class="st2">
    <g id="Minion-exp_hand_skew_E_wider_S_fix_-2_curve_fix">
      <path class="st1" d="M439,64.7v.3c-1.3,2.8-2.5,4.8-3.8,6-1.4,1.4-3.4,1.6-7.8.9-2.6-.4-7-.8-8.5-1.9-1.1-.8-1.5-2.2-1.5-5.6v-19.3s7.9.5,7.9.5c5.9.5,6.3.8,7.1,5.6v.3s3.1.3,3.1.3l.2-14.5-3-.3v.3c-1,4.5-1.4,4.7-7.3,4.3l-8-.5v-21.6c0-1.3.8-2,2.3-2h7c4.1,0,6,.4,7,1.7,1,1.2,1.9,3.1,2.5,5.8v.3c0,0,3.1-.5,3.1-.5l-.2-3.2c-.2-3.3-.4-6.4-.5-7.4v-.4h-35.7v3h.3c4.8.4,5.4.5,5.4,6.5v40c0,5.5-.4,5.9-6.2,5.5h-.3s0,2.9,0,2.9l37.5,5.7v-.2c.7-2,2.1-8.3,2.5-11v-.3s-2.9-1-2.9-1h0ZM386.3,55.6c-3.7,7.1-7.8,9.9-13.5,9.5-9.7-.7-16.5-12.5-16.5-25.7s4.9-23.1,15.9-23.1,10.9,3.4,12.8,10.3v.3c0,0,3.2-.6,3.2-.6v-.3c-.4-3.3-.8-6.1-1.3-9l-.3-2.3h-.2c-.3-.1-.6-.2-1-.3-2.4-.6-6.7-1.6-11.6-1.6-16.5,0-27.5,11.7-27.5,27.4s8.1,27.3,26,28.7c4.8.4,10.9-.5,12.9-.8h.2s0-.2,0-.2c1.1-2.2,2.8-7.1,3.9-10.8v-.3c0,0-2.8-1.4-2.8-1.4v.3q-.1,0-.1,0ZM316.6,16.7h.4c5.1.3,6.2,1.5,6.5,4.1v1.1c.2,2.1.5,8.4.5,13.6v13.1l-27.1-34.8h-12.5v2.9h.3c3.1.3,4.4.9,5.7,2.5,1.2,1.5,1.3,2.3,1.3,7.1v16.5c0,5.6-.3,8.7-.5,11v.6c-.4,2.8-1.7,3.8-5.6,3.9h-.4v3l17.5.8v-3h-.4c-5-.5-6-1.7-6.3-4.6-.2-1.7-.5-4.9-.5-11.4v-17.4l28.8,38,3.5.2v-28.1c0-6.6.3-13.1.5-14.9.3-2.8,1.5-3.8,5.3-4h.4v-3h-17.5v2.9h0ZM266.4,49.6c-2.8-7.2-5.5-14.9-8.1-22.2-1.7-4.8-3.5-9.6-5.2-14.4v-.3c-.1,0-3.7,1-3.7,1l-14.4,36.3c-2.3,5.9-3.1,6.3-7.5,6.9h-.3v3l16.1.2v-2.9h-.3c-2.6-.4-3.8-.8-4.3-1.5-.4-.6-.2-1.7.3-3.4.7-2.2,1.6-4.6,2.3-6.7l.4-1.2h13.3c1.3,3.5,2.4,6.7,3.1,8.8.5,1.4.5,2.5.2,2.9-.4.6-1.4.9-3.6,1.2h-.3v3l19.6.5v-2.9h-.3c-4.2-.7-4.9-1.7-7.3-8h0ZM243.1,40.1c.9-2.3,1.7-4.6,2.5-6.9.9-2.6,1.9-5.2,2.9-7.9l5.1,14.8h-10.5ZM194.5,13.7h-20.8v3h.3c4.8.4,5.4.7,5.4,6.5v27.6c0,5.8-.5,6.5-6,7.1h-.3v3l17.7-.6c9-.3,16.1-2.2,21.1-6,5.7-4.4,8.8-11.3,8.8-19.3s-2.2-11.4-6.1-15.1c-4.3-4.1-10.9-6.1-20-6.1ZM194.3,56.6c-4.7.2-6-1.4-6-6.3v-28.7c0-2.1.2-3.2.6-3.6.5-.4,1.9-.9,4.5-.9,4.6,0,8.3,1.2,11.2,3.7,4,3.2,6.2,8.6,6.2,15.3,0,12.1-6.5,20.1-16.6,20.4h0ZM144,16.7h.3c2.7.3,3.9.7,4.3,1.3.3.5,0,1.4-.6,2.7-1.5,3.7-4.6,10.7-6.7,14.9l-.6,1-.6-1.1c-2.6-4.8-5.3-10.9-7.5-15.4-.5-1.1-.8-1.8-.6-2.2.3-.5,1.4-.9,3.7-1.2h.3v-3h-19.3v3h.3c3.8.5,4.9,1.1,7.4,5.7,3.6,7,6.4,13,8.6,17.1.8,1.6,1.1,2.3,1.1,3.8v10.2c0,5.8-.4,6.3-6.2,7.1h-.3v3l22.2-1.5v-2.9h-.3c-6.2,0-6.5-.4-6.5-6.2v-10.4c0-2,.3-2.7,1.2-4.5,3.4-6.6,5.4-10.8,8.1-15.7,2.3-4.2,3.5-5,8.1-5.5h.3v-3h-16.6v3h0ZM99.2,58.1c-6.6-9-10.7-14.5-15.3-21.6l1.1-1.5c2.8-3.6,6.5-8.8,9.5-12.5,3.4-4.1,6.3-5.4,10.9-5.8h.3v-3h-18.2v3l1.6.2c1.4.2,2.2.5,2.3.8.2.5-.4,2.1-1.1,3.1-2.8,4.3-6.7,10.2-10.5,14.5-1.6,1.8-3.1,2.7-4.4,3.5v-14.6c0-5.9.5-7.1,5.3-7.5h.3v-3h-20.2v3h.3c5.1.4,5.6,1.6,5.6,7.6v35.8c0,5.8-.6,6.2-5.4,7.2h-.3v3l20.5-2.3v-2.9h-.3c-5.2.1-5.8,0-5.8-5.9v-17.3h0c.8,0,1.6.5,2.8,2.3,5.6,8.4,11.7,17.3,15.3,22.3h.1c0,.1,13.3-1,13.3-1v-2.9h-.3c-2.7-.2-4.7-.5-7.7-4.3h0ZM31.6,39.6c-6.5-4.2-10.3-7.6-10.3-12.6s2.7-10.9,8.2-10.9c6.4,0,9,4.9,10.5,9.1v.3c.1,0,3.2-.6,3.2-.6v-.3c-.3-1.6-.5-3-.7-4.2-.3-2.2-.6-4-.8-5.6v-.2s-.7-.2-.7-.2c-2.1-.6-5.9-1.6-10.3-1.6-11.3,0-18,8.6-18,18s7.4,13.2,13.9,17.1c6.9,4.1,10.4,9.4,10.4,14.4s-4,9.8-9,10.4c-9.1,1.1-12.8-9.4-13.1-10.5v-.3c-.1,0-3.1,1.3-3.1,1.3v.3c.6,3.6,1.5,9.5,2.2,11.2h0c0,.1.1.2.1.2,1.1.3,2.3.9,4.3,1.2,2.6.5,5.2.8,8,.5,11.2-.8,20-8.4,19.8-19.2-.2-9.1-8.4-13.3-14.8-17.6h0Z"/>
    </g>
  </g>
</svg>