<?xml version="1.0" encoding="utf-8"?>
<!-- Generator: Adobe Illustrator 24.2.0, SVG Export Plug-In . SVG Version: 6.00 Build 0)  -->
<svg version="1.1" id="Layer_1" xmlns="http://www.w3.org/2000/svg" xmlns:xlink="http://www.w3.org/1999/xlink" x="0px" y="0px"
	 viewBox="0 0 593.96 367.11" style="enable-background:new 0 0 593.96 367.11;" xml:space="preserve">
<style type="text/css">
	.st0{fill:#FFFFFF;}
	.st1{fill:none;stroke:#000000;stroke-width:2.52;stroke-miterlimit:3.8637;}
	.st2{clip-path:url(#SVGID_2_);fill-rule:evenodd;clip-rule:evenodd;fill:#0070AF;}
	.st3{fill-rule:evenodd;clip-rule:evenodd;}
	.st4{fill-rule:evenodd;clip-rule:evenodd;fill:#0070AF;}
	.st5{fill-rule:evenodd;clip-rule:evenodd;fill:#8CB3D8;}
	.st6{fill-rule:evenodd;clip-rule:evenodd;fill:#B8CDE6;}
	.st7{fill-rule:evenodd;clip-rule:evenodd;fill:#89B1D7;}
	.st8{fill-rule:evenodd;clip-rule:evenodd;fill:#EBF0F7;}
	.st9{fill-rule:evenodd;clip-rule:evenodd;fill:#A3C0DF;}
	.st10{fill-rule:evenodd;clip-rule:evenodd;fill:#A5C2E0;}
	.st11{fill-rule:evenodd;clip-rule:evenodd;fill:#DCE5F2;}
	.st12{fill:#A3C0DF;}
	.st13{fill:#B8CDE6;}
	.st14{fill:#0070AF;}
	.st15{fill:#A5C2E0;}
	.st16{fill:#DCE5F2;}
	.st17{fill:#EBF0F7;}
	.st18{fill:#89B1D7;}
</style>
<g>
	<polygon class="st0" points="144.77,133.15 414.08,133.15 414.08,237.09 144.77,237.09 144.77,133.15 	"/>
	<path class="st1" d="M134.23,182.59c0-80.03,65.06-144.91,145.31-144.91c80.26,0,145.32,64.88,145.32,144.91
		c0,80.03-65.06,144.91-145.32,144.91C199.29,327.5,134.23,262.62,134.23,182.59L134.23,182.59z"/>
	<line class="st1" x1="279.46" y1="257" x2="279.46" y2="326.06"/>
	<line class="st1" x1="279.46" y1="38.06" x2="279.46" y2="122.42"/>
	<path class="st1" d="M135.15,182.24c0-71.32,64.73-123.13,144.58-123.13c79.85,0,144.58,51.81,144.58,123.13
		s-64.73,123.13-144.58,123.13C199.88,305.36,135.15,253.55,135.15,182.24L135.15,182.24z"/>
	<path class="st1" d="M357.93,254.15c-16.27,43.47-46.32,73.27-78.67,73.27c-30.18,0-61.71-29.79-79.19-73.27"/>
	<path class="st1" d="M193.76,127.57c14.74-52.37,49.34-89.75,85.38-89.75c38.65,0,71.11,37.38,84.66,89.75"/>
	<g>
		<defs>
			<path id="SVGID_1_" d="M123.73,182.59c0-86.05,69.76-155.81,155.81-155.81c86.06,0,155.81,69.76,155.81,155.81
				c0,86.05-69.76,155.81-155.81,155.81C193.49,338.4,123.73,268.64,123.73,182.59L123.73,182.59z"/>
		</defs>
		<clipPath id="SVGID_2_">
			<use xlink:href="#SVGID_1_"  style="overflow:visible;"/>
		</clipPath>
		<path class="st2" d="M152.07,202.04l2.65,23.63h1.38c0.15-1.82,1.09-2.66,1.96-2.66c1.38,0,6.88,3.51,12.1,3.51
			c8.69,0,15.43-10.29,15.43-23.62c0-0.29,0-0.58-0.01-0.86l9.93,0v3.33c0,12.65,0,17.16-7.19,17.54v2.51h18.21v-2.51
			c-7.42,0-7.64-5.64-7.64-18.91v-1.96h13.39l6.69,23.38h1.27l6.33-23.38h13.58l0.02,5.84c0,9.39-0.3,15.03-7.27,15.03v2.51h22.7
			v-2.51c-7.27-0.38-7.72-4.26-7.72-15.03v-5.84l20.36,0v9.66c0,10.35-2.12,12.05-8.07,12.58v2.62h25.07v-2.62
			c-6.42-0.52-8.54-2.23-8.54-12.58v-9.66h50.68V210c0,11.21-1.21,13.73-7.99,14.11v2.52h24.42v-2.52
			c-7.01-0.38-8.29-2.02-8.29-14.11v-7.96h31.19v11.39c0,6.9-3.11,9.45-7.61,9.45v2.42h44.26l3.91-20.47l-1.38-0.85
			c-1.88,9.57-5.94,16.23-12.46,16.23h-15.29c-3.33,0-3.62-2.54-3.62-10.17v-8l64.32,0c-1.07,31.45-6.45,55.49-6.45,55.49
			c-149.2,24.51-150.42,24.51-304.5,0c0.16,0.07-5.33-25.15-7.36-55.49L152.07,202.04L152.07,202.04z M176.9,202.04
			c0.8,2.07,1.23,4.15,1.23,6.31c0,8.36-4.35,13.68-9.49,13.68c-7.37,0-11.83-10.01-14.75-20L176.9,202.04L176.9,202.04z
			 M222.68,202.04l-0.8,2.83l-0.8-2.83H222.68L222.68,202.04z"/>
		<path class="st2" d="M158.9,178.04c2.25,3.12,5.11,6.3,8.43,10.09c4.49,5.11,7.87,9.49,9.57,13.91l-23.01,0
			c-0.21-0.73-0.41-1.45-0.61-2.16h-1.45l0.24,2.16h-31.53c-0.45-6.74-0.73-13.74-0.74-20.78c0-1.07,0-2.14,0.02-3.22L158.9,178.04
			L158.9,178.04z M195.51,178.04v24l-9.93,0c-0.29-10.87-5.98-18.12-12.04-24L195.51,178.04L195.51,178.04z M205.4,178.04l6.87,24
			l-13.39,0v-24H205.4L205.4,178.04z M229.42,178.04l-6.74,24h-1.59l-6.77-24H229.42L229.42,178.04z M240.09,178.04l0.06,24
			l-13.58,0l6.5-24L240.09,178.04L240.09,178.04z M268.24,178.04v24l-20.36,0v-24L268.24,178.04L268.24,178.04z M289.03,178.04
			c-2.49,2.13-5.63,3.01-9.04,3.01h-3.29v-3.01L289.03,178.04L289.03,178.04z M327.38,178.04v24H276.7v-16.15h7.05
			c5.61,0,11.61-2.27,15.68-7.85L327.38,178.04L327.38,178.04z M366.71,178.04v24h-31.19v-24L366.71,178.04L366.71,178.04z
			 M392.9,178.04c-0.84,0.43-1.86,0.63-3.08,0.63h-15.29v-0.63H392.9L392.9,178.04z M438.79,178.04c0.16,4.54,0.25,9.07,0.25,13.5
			c0,3.58-0.07,7.08-0.18,10.51l-64.32-0.01v-18.28h15.29c4.93,0,6.59,3.51,7.03,11.75h1.45v-17.47H438.79L438.79,178.04z"/>
		<path class="st2" d="M119.82,178.04c0.43-33.8,8.09-67.77,8.09-67.77c154.07-24.22,155.29-24.22,304.5,0
			c0.09,0.32,5.18,34.37,6.39,67.76l-40.5,0v-11.12h-1.45c-0.38,6.31-1.34,9.79-3.95,11.12l-18.36,0V155.3c0-7.02,0-8.48,3.26-8.48
			h13.76c6.01-0.36,9.13,3.03,9.92,13.2h1.45l-0.65-18.29H359.1v2.42h0.65c6.01,0,6.95,4.12,6.95,13.32v20.56h-31.19v-27.51
			c0-4.66,0-6.17,4.3-6.17c10.25,0,12.36,1.39,14.17,17.51h1.51l-0.45-22.18h-47.18l-0.45,22.18h1.51
			c1.81-16.13,3.92-17.51,14.17-17.51c4.22,0,4.3,1.51,4.3,6.17v27.52l-27.95,0c2.98-4.08,4.92-9.93,4.92-17.95
			c0-22.01-13.95-23.58-23.82-23.58h-20.37v2.62c5.95,0.52,8.07,2.23,8.07,12.57v26.33h-20.36v-24.15c0-9.77,1.8-12.4,7.57-12.4
			v-2.5h-15.06l-10.97,39.05h-15.1l-11.01-39.05h-14.99v2.5c3.6,0,5.62,1.63,6.37,4.51c0.82,3.01,0.82,7.64,0.82,11.77v20.27
			l-21.97,0c-0.28-0.27-0.56-0.54-0.84-0.81c-7.97-7.63-12.97-12.72-12.97-20.59c0-7.51,3.62-13.08,8.11-13.08
			c7.32,0,11.81,10.54,13.69,21.31h1.59l-1.67-24.95h-1.45c0.22,1.94,0,3.03-1.23,3.03c-3.12,0-5.14-3.88-10.87-3.88
			c-7.97,0-14.56,8.6-14.56,22.65c0,6.71,2.04,11.45,5.55,16.31L119.82,178.04L119.82,178.04z M198.88,178.04v-22.77l6.52,22.77
			L198.88,178.04L198.88,178.04z M233.07,178.04l6.95-25.65l0.07,25.65L233.07,178.04L233.07,178.04z M276.7,178.04v-26.86
			c0-9.3,0.24-9.82,6.11-9.82c7.13,0,11.99,6.94,11.99,19.12c0,9.04-2.25,14.54-5.77,17.55L276.7,178.04L276.7,178.04z"/>
		<use xlink:href="#SVGID_1_"  style="overflow:visible;fill:none;stroke:#000000;stroke-width:1.8;stroke-miterlimit:3.8637;"/>
	</g>
	<path class="st3" d="M116.66,184.23c0,90.65,73.49,164.14,164.14,164.14c90.65,0,164.14-73.49,164.14-164.14
		c0-90.65-73.49-164.14-164.14-164.14C190.14,20.09,116.66,93.58,116.66,184.23L116.66,184.23z M111.9,184.23
		c0-93.28,75.62-168.9,168.9-168.9s168.9,75.62,168.9,168.9c0,93.28-75.62,168.9-168.9,168.9S111.9,277.51,111.9,184.23
		L111.9,184.23z"/>
	<path class="st4" d="M44.38,131.45c0,0.7,0.57,1.27,1.27,1.27h5.23c0.7,0,1.27-0.57,1.27-1.27v-8.84c0-0.7-0.57-1.27-1.27-1.27
		h-5.23c-0.7,0-1.27,0.57-1.27,1.27V131.45L44.38,131.45z M64.93,131.45c0,0.7,0.57,1.27,1.27,1.27h5.23c0.7,0,1.27-0.57,1.27-1.27
		v-8.84c0-0.7-0.57-1.27-1.27-1.27H66.2c-0.7,0-1.27,0.57-1.27,1.27V131.45L64.93,131.45z M85.45,131.45c0,0.7,0.57,1.27,1.27,1.27
		h5.23c0.7,0,1.27-0.57,1.27-1.27v-8.84c0-0.7-0.57-1.27-1.27-1.27h-5.23c-0.7,0-1.27,0.57-1.27,1.27V131.45L85.45,131.45z
		 M106.01,131.46c0,0.7,0.57,1.27,1.27,1.27h5.23c0.7,0,1.27-0.57,1.27-1.27v-8.84c0-0.7-0.57-1.27-1.27-1.27h-5.23
		c-0.7,0-1.27,0.57-1.27,1.27V131.46L106.01,131.46z M44.38,248.75c0,0.7,0.57,1.27,1.27,1.27h5.23c0.7,0,1.27-0.57,1.27-1.27v-8.84
		c0-0.7-0.57-1.27-1.27-1.27h-5.23c-0.7,0-1.27,0.57-1.27,1.27V248.75L44.38,248.75z M64.93,248.75c0,0.7,0.57,1.27,1.27,1.27h5.23
		c0.7,0,1.27-0.57,1.27-1.27v-8.84c0-0.7-0.57-1.27-1.27-1.27H66.2c-0.7,0-1.27,0.57-1.27,1.27V248.75L64.93,248.75z M85.45,248.75
		c0,0.7,0.57,1.27,1.27,1.27h5.23c0.7,0,1.27-0.57,1.27-1.27v-8.84c0-0.7-0.57-1.27-1.27-1.27h-5.23c-0.7,0-1.27,0.57-1.27,1.27
		V248.75L85.45,248.75z M106.01,248.78c0,0.7,0.57,1.27,1.27,1.27h5.23c0.7,0,1.27-0.57,1.27-1.27v-8.84c0-0.7-0.57-1.27-1.27-1.27
		h-5.23c-0.7,0-1.27,0.57-1.27,1.27V248.78L106.01,248.78z M33.86,258.94v-21.31c9.03-0.07,8.86-15.3,8.86-28.87v-42.45
		c0-13.57,0.17-32.1-8.86-32.17v-21.52h92.06c-10.08,21.77-15.71,46.03-15.71,71.6c0,26.8,6.18,52.15,17.19,74.72H33.86
		L33.86,258.94z"/>
	<path class="st4" d="M435.6,112.48h86.29v146.44l-87.68-0.03c11-22.55,17.17-47.89,17.17-74.67
		C451.38,158.6,445.73,134.29,435.6,112.48L435.6,112.48z"/>
	<polygon class="st4" points="508.68,160.81 521.89,160.81 521.89,177.15 508.68,177.15 508.68,160.81 	"/>
	<polygon class="st5" points="482.22,160.65 495.36,160.65 495.36,177.15 482.22,177.15 482.22,160.65 	"/>
	<polygon class="st6" points="469.09,226.3 482.22,226.3 482.22,242.6 469.09,242.6 469.09,226.3 	"/>
	<polygon class="st6" points="469.09,144.27 482.22,144.27 482.22,160.65 469.09,160.65 469.09,144.27 	"/>
	<polygon class="st6" points="495.36,177.15 508.48,177.15 508.48,193.65 495.36,193.65 495.36,177.15 	"/>
	<polygon class="st6" points="469.09,193.65 482.22,193.65 482.22,210 469.09,209.99 469.09,193.65 	"/>
	<polygon class="st7" points="482.22,210 495.36,210 495.36,226.3 482.22,226.3 482.22,210 	"/>
	<polygon class="st7" points="482.22,193.65 495.36,193.65 495.36,210 482.22,209.99 482.22,193.65 	"/>
	<polygon class="st8" points="482.22,242.6 495.36,242.6 495.36,258.89 482.22,258.89 482.22,242.6 	"/>
	<polygon class="st9" points="455.96,242.6 469.09,242.6 469.09,258.89 455.96,258.89 455.96,242.6 	"/>
	<polygon class="st10" points="455.96,160.65 469.21,160.65 469.21,177.15 455.96,177.15 455.96,160.65 	"/>
	<polygon class="st7" points="508.49,242.6 521.62,242.6 521.62,258.89 508.49,258.89 508.49,242.6 	"/>
	<polygon class="st4" points="547.88,242.6 561.1,242.6 561.1,258.93 547.88,258.93 547.88,242.6 	"/>
	<polygon class="st7" points="521.62,226.3 534.75,226.3 534.75,242.6 521.62,242.6 521.62,226.3 	"/>
	<polygon class="st11" points="534.75,242.6 547.97,242.6 547.97,258.93 534.75,258.93 534.75,242.6 	"/>
	<polygon class="st12" points="508.49,144.27 521.7,144.27 521.7,160.61 508.49,160.61 508.49,144.27 	"/>
	<polygon class="st13" points="534.75,193.66 547.97,193.66 547.97,210 534.75,210 534.75,193.66 	"/>
	<polygon class="st14" points="521.89,127.94 534.75,127.95 534.75,144.27 521.89,144.27 521.89,127.94 	"/>
	<polygon class="st15" points="495.36,127.94 508.57,127.94 508.57,144.27 495.36,144.27 495.36,127.94 	"/>
	<polygon class="st13" points="521.62,144.31 534.75,144.27 534.75,160.65 521.62,160.65 521.62,144.31 	"/>
	<polygon class="st16" points="482.22,112.48 495.36,112.48 495.36,127.95 482.22,127.95 482.22,112.48 	"/>
	<polygon class="st17" points="469.09,127.95 482.22,127.95 482.22,144.27 469.09,144.29 469.09,127.95 	"/>
	<polygon class="st17" points="534.75,127.99 547.89,127.95 547.88,144.27 534.75,144.27 534.75,127.99 	"/>
	<polygon class="st17" points="534.75,160.65 547.88,160.65 547.88,177.15 534.75,177.15 534.75,160.65 	"/>
	<polygon class="st17" points="521.62,193.65 534.75,193.65 534.75,210 521.62,209.99 521.62,193.65 	"/>
	<polygon class="st14" points="547.88,112.49 561.02,112.48 561.02,127.95 547.88,127.95 547.88,112.49 	"/>
	<polygon class="st18" points="547.88,193.65 561.02,193.65 561.02,210 547.88,209.99 547.88,193.65 	"/>
	<polygon class="st17" points="547.88,210 561.02,210 561.02,226.3 547.88,226.33 547.88,210 	"/>
	<polygon class="st15" points="547.88,160.65 561.02,160.65 561.02,177.15 547.88,177.15 547.88,160.65 	"/>
	<polygon class="st17" points="495.36,193.65 508.49,193.65 508.49,210 495.36,210 495.36,193.65 	"/>
	<polygon class="st15" points="521.54,112.48 534.75,112.48 534.75,127.95 521.54,127.95 521.54,112.48 	"/>
	<polygon class="st14" points="521.62,210 534.75,210.03 534.75,226.33 521.62,226.33 521.62,210 	"/>
	<polygon class="st14" points="534.75,226.3 547.97,226.3 547.97,242.64 534.75,242.64 534.75,226.3 	"/>
	<polygon class="st14" points="521.62,242.6 534.84,242.6 534.84,258.93 521.62,258.93 521.62,242.6 	"/>
	<polygon class="st12" points="508.49,210 521.62,210 521.62,226.3 508.49,226.3 508.49,210 	"/>
	<polygon class="st15" points="521.62,177.15 534.75,177.15 534.75,193.65 521.62,193.65 521.62,177.15 	"/>
	<polygon class="st17" points="508.49,112.48 521.62,112.48 521.62,127.95 508.49,127.95 508.49,112.48 	"/>
</g>
<g>
	<path class="st14" d="M546.97,267.79c0.42-0.95,0.99-1.77,1.71-2.47c0.72-0.7,1.56-1.25,2.52-1.65c0.96-0.4,1.97-0.6,3.05-0.6
		c1.08,0,2.09,0.2,3.04,0.6c0.95,0.4,1.78,0.95,2.5,1.65c0.71,0.7,1.28,1.52,1.7,2.47c0.42,0.95,0.63,1.98,0.63,3.08
		c0,1.13-0.21,2.18-0.63,3.13c-0.42,0.96-0.99,1.79-1.7,2.49c-0.71,0.71-1.54,1.25-2.5,1.65c-0.95,0.39-1.96,0.59-3.04,0.59
		c-1.08,0-2.09-0.2-3.05-0.59c-0.96-0.39-1.8-0.94-2.52-1.65c-0.72-0.71-1.29-1.54-1.71-2.49c-0.42-0.96-0.63-2-0.63-3.13
		C546.35,269.77,546.55,268.74,546.97,267.79z M548.26,273.55c0.33,0.82,0.78,1.53,1.36,2.13c0.58,0.6,1.27,1.07,2.06,1.42
		c0.79,0.34,1.65,0.51,2.57,0.51c0.91,0,1.75-0.17,2.54-0.51c0.78-0.34,1.46-0.81,2.05-1.42c0.58-0.6,1.03-1.31,1.36-2.13
		c0.33-0.82,0.49-1.71,0.49-2.67c0-0.94-0.17-1.81-0.49-2.62c-0.33-0.81-0.78-1.51-1.36-2.11c-0.58-0.59-1.26-1.06-2.05-1.4
		s-1.63-0.51-2.54-0.51c-0.92,0-1.78,0.17-2.57,0.51c-0.79,0.34-1.48,0.81-2.06,1.4c-0.58,0.59-1.04,1.3-1.36,2.11
		c-0.33,0.81-0.49,1.68-0.49,2.62C547.77,271.84,547.93,272.73,548.26,273.55z M554.73,266.33c1.09,0,1.9,0.22,2.42,0.65
		c0.52,0.43,0.79,1.09,0.79,1.97c0,0.82-0.23,1.43-0.69,1.81c-0.46,0.38-1.03,0.61-1.72,0.68l2.62,4.05h-1.53l-2.5-3.94h-1.51v3.94
		h-1.42v-9.16H554.73z M554.1,270.39c0.32,0,0.63-0.01,0.91-0.03c0.29-0.02,0.54-0.08,0.77-0.18c0.22-0.1,0.4-0.25,0.54-0.45
		c0.13-0.2,0.2-0.48,0.2-0.85c0-0.31-0.06-0.55-0.18-0.73c-0.12-0.18-0.27-0.32-0.46-0.42c-0.19-0.1-0.41-0.16-0.65-0.2
		s-0.49-0.05-0.72-0.05h-1.89v2.91H554.1z"/>
</g>
</svg>
