<svg xmlns="http://www.w3.org/2000/svg" role="img" viewBox="162.77 283.77 635.96 182.96"><path fill="#100f0d" d="M398.3327 415.07149h-60.04382v-13.693h60.0345c4.53322 0 8.1478-1.13863 10.85439-3.3959 2.4786-2.12395 3.72124-4.64522 3.72124-7.56382 0-2.9186-1.19864-5.37053-3.61458-7.34515-2.6986-2.1866-6.34917-3.28791-10.96105-3.28791H361.0803c-7.74114 0-13.88632-2.25728-18.40888-6.7905-4.0919-4.09057-6.13718-9.09044-6.13718-15.0063 0-5.84518 2.04529-10.81039 6.13718-14.90095 4.52256-4.53189 10.65974-6.78917 18.40088-6.78917h59.49718v13.693H361.0723c-2.92793 0-5.2292.80264-6.90383 2.4066-1.68396 1.6133-2.52127 3.50925-2.52127 5.69586 0 2.19594.76665 4.02123 2.30127 5.4852 1.75463 1.67462 4.12657 2.51193 7.12383 2.51193h37.25106c8.4038 0 15.13163 2.55727 20.16617 7.6718 4.53188 4.67323 6.79716 10.33308 6.79716 16.98092 0 6.64917-2.23061 12.23836-6.68383 16.77158-4.97188 5.0332-11.72504 7.55581-20.27016 7.55581m79.80467-4.16256l-26.398-50.83873-11.40106 55.21328h-15.4476l17.53689-72.30085c1.17197-4.82388 3.90656-7.41449 8.21712-7.78648 3.13993-.28932 6.10118 2.30261 8.87845 7.77714l26.37267 51.46672 26.31001-51.57071c2.76927-5.40654 5.73052-7.96247 8.87045-7.67315 4.31189.372 7.05315 2.92793 8.22646 7.67315l17.52756 72.41418h-15.44761L519.991 360.0702l-26.406 50.83873c-1.8253 3.50124-4.3039 5.25587-7.44249 5.25587-3.50924 0-6.17184-1.75463-8.00513-5.25587m86.92716 4.16256h-13.693v-78.7727h56.5266c9.86508 0 17.71289 2.9546 23.5594 8.87045 5.25454 5.33453 7.89048 11.84103 7.89048 19.51151 0 7.6718-2.63594 14.16898-7.89047 19.50351-5.84652 5.84652-13.72766 8.76512-23.66608 8.76512h-34.61513v-13.693h36.80308c5.0332 0 9.05444-1.53462 12.0437-4.60255 2.7066-2.7786 4.0559-6.13718 4.0559-10.08774 0-3.94124-1.3493-7.29982-4.0559-10.07709-2.9186-2.99859-6.9385-4.49722-12.0437-4.49722h-44.91488v65.07971m117.49573-65.0797v65.0797h-13.693v-65.0797H637.7614v-13.693h75.81944v13.693h-31.02056m100.57748 31.98853h-45.0282v-13.693h45.0282v13.693"/><path fill="#100f0d" d="M732.30703 401.3785H786.647v13.69299h-68.0423v-78.7727h68.0423v13.693h-54.33997v51.3867"/><path fill="#55bf35" fill-rule="evenodd" d="M181.53013 334.04418c-8.15313 24.75805-8.59445 54.45464 1.99728 73.75416 16.75692 3.6199 45.38553 3.09859 60.4265-4.3399-18.33822-3.87056-47.16016-27.9993-62.42378-69.41426"/><path fill="#b333a0" fill-rule="evenodd" d="M251.33372 296.39179c-25.51803 5.31853-51.45605 19.78484-62.8731 38.60704 5.24387 16.32225 20.0075 40.85364 33.96982 50.16007-5.81586-17.81555.66798-54.8413 28.90328-88.76711"/><path fill="#ea1c24" fill-rule="evenodd" d="M318.8427 338.01742c-17.3649-19.43952-42.8616-34.6698-64.87172-35.1458-11.5117 12.70102-25.37536 37.75373-26.454 54.49865 12.52102-13.94499 47.82814-26.842 91.32572-19.35285"/><path fill="#2c3493" fill-rule="evenodd" d="M316.54942 417.29543c8.1518-24.75938 8.59312-54.45463-1.99995-73.75415-16.75425-3.61858-45.38287-3.0986-60.42382 4.33989 18.3382 3.87057 47.16015 27.9993 62.42377 69.41426"/><path fill="#e0e90e" fill-rule="evenodd" d="M246.7445 454.9465c25.51936-5.3172 51.45604-19.78485 62.87443-38.60704-5.24387-16.32093-20.00884-40.85231-33.97115-50.16008 5.81718 17.81689-.66665 54.84263-28.90328 88.76711"/><path fill="#6ccdbb" fill-rule="evenodd" d="M179.23552 413.32087c17.36623 19.44084 42.8616 34.67113 64.87304 35.14845 11.51172-12.70368 25.37537-37.75639 26.45268-54.5013-12.5197 13.94632-47.8268 26.84333-91.32572 19.35285"/><path fill="#55bf35" fill-rule="evenodd" d="M181.53013 334.04418c-8.15313 24.75805-8.59445 54.45464 1.99728 73.75416 16.75692 3.6199 45.38553 3.09859 60.4265-4.3399-18.33822-3.87056-47.16016-27.9993-62.42378-69.41426"/></svg>