<?xml version="1.0" encoding="UTF-8" standalone="no"?>
<!-- Created with Inkscape (http://www.inkscape.org/) -->

<svg
   xmlns:dc="http://purl.org/dc/elements/1.1/"
   xmlns:cc="http://creativecommons.org/ns#"
   xmlns:rdf="http://www.w3.org/1999/02/22-rdf-syntax-ns#"
   xmlns:svg="http://www.w3.org/2000/svg"
   xmlns="http://www.w3.org/2000/svg"
   version="1.1"
   width="500.00504"
   height="164.34407"
   id="svg5855">
  <defs
     id="defs5857">
    <clipPath
       id="clipPath3495">
      <path
         d="m 237.708,259.318 69.492,0 0,28.404 -69.492,0 0,-28.404 z"
         id="path3497" />
    </clipPath>
    <clipPath
       id="clipPath6480">
      <path
         d="m 155.08801,510.89703 303.73642,0 0,99.83832 -303.73642,0 0,-99.83832 z"
         id="path6482" />
    </clipPath>
  </defs>
  <metadata
     id="metadata5860">
    <rdf:RDF>
      <cc:Work
         rdf:about="">
        <dc:format>image/svg+xml</dc:format>
        <dc:type
           rdf:resource="http://purl.org/dc/dcmitype/StillImage" />
        <dc:title></dc:title>
      </cc:Work>
    </rdf:RDF>
  </metadata>
  <g
     transform="translate(-331.56785,-382.29375)"
     id="layer1">
    <g
       id="g8017">
      <g
         transform="matrix(7.1951349,0,0,-7.1951349,682.70985,422.73904)"
         id="g3499"
         style="fill:#211c1c;fill-opacity:1">
        <path
           d="m 0,0 c -0.019,0.208 -0.153,0.328 -0.365,0.328 -0.19,0 -0.334,-0.114 -0.334,-0.264 0,-0.073 0.04,-0.138 0.114,-0.181 0.061,-0.039 0.098,-0.055 0.349,-0.162 0.303,-0.126 0.395,-0.181 0.475,-0.27 0.079,-0.095 0.122,-0.217 0.122,-0.358 0,-0.368 -0.276,-0.607 -0.701,-0.607 -0.463,0 -0.72,0.242 -0.742,0.699 l 0.307,0 c 0.024,-0.279 0.174,-0.423 0.441,-0.423 0.217,0 0.371,0.116 0.371,0.279 0,0.092 -0.043,0.162 -0.132,0.223 -0.065,0.043 -0.101,0.062 -0.337,0.163 -0.224,0.095 -0.353,0.168 -0.426,0.239 -0.104,0.101 -0.156,0.227 -0.156,0.371 0,0.331 0.272,0.567 0.658,0.567 0.245,0 0.448,-0.095 0.561,-0.267 C 0.269,0.245 0.294,0.153 0.303,0 L 0,0 z"
           id="path3501"
           style="fill:#211c1c;fill-opacity:1;fill-rule:nonzero;stroke:none" />
      </g>
      <g
         transform="matrix(7.1951349,0,0,-7.1951349,690.12516,425.93656)"
         id="g3503"
         style="fill:#211c1c;fill-opacity:1">
        <path
           d="m 0,0 c 0,-0.493 0.208,-0.797 0.551,-0.797 0.337,0 0.549,0.304 0.549,0.788 C 1.1,0.472 0.888,0.775 0.551,0.775 0.214,0.775 0,0.472 0,0 m 1.431,-0.009 c 0,-0.634 -0.353,-1.06 -0.88,-1.06 -0.533,0 -0.882,0.422 -0.882,1.072 0,0.619 0.362,1.045 0.882,1.045 0.527,0 0.88,-0.426 0.88,-1.057"
           id="path3505"
           style="fill:#211c1c;fill-opacity:1;fill-rule:nonzero;stroke:none" />
      </g>
      <g
         transform="matrix(7.1951349,0,0,-7.1951349,705.77098,418.66084)"
         id="g3507"
         style="fill:#211c1c;fill-opacity:1">
        <path
           d="m 0,0 0.898,-1.563 0,1.563 0.3,0 0,-2.044 -0.328,0 -0.91,1.56 0,-1.56 -0.3,0 L -0.34,0 0,0 z"
           id="path3509"
           style="fill:#211c1c;fill-opacity:1;fill-rule:nonzero;stroke:none" />
      </g>
      <g
         transform="matrix(7.1951349,0,0,-7.1951349,719.65903,418.66084)"
         id="g3511"
         style="fill:#211c1c;fill-opacity:1">
        <path
           d="M 0,0 0.457,-0.879 0.907,0 1.259,0 0.61,-1.213 l 0,-0.831 -0.316,0 0,0.831 L -0.358,0 0,0 z"
           id="path3513"
           style="fill:#211c1c;fill-opacity:1;fill-rule:nonzero;stroke:none" />
      </g>
      <g
         transform="matrix(7.1951349,0,0,-7.1951349,739.65719,425.69481)"
         id="g3515"
         style="fill:#211c1c;fill-opacity:1">
        <path
           d="m 0,0 c 0.215,0 0.279,0.006 0.364,0.031 0.132,0.037 0.212,0.156 0.212,0.315 0,0.147 -0.064,0.261 -0.172,0.31 -0.085,0.037 -0.177,0.049 -0.407,0.049 l -0.132,0 L -0.135,0 0,0 z M -0.04,0.978 C 0.266,0.978 0.401,0.965 0.533,0.919 0.763,0.843 0.904,0.622 0.904,0.343 0.904,0.074 0.766,-0.141 0.542,-0.218 0.42,-0.26 0.291,-0.273 0,-0.273 l -0.135,0 0,-0.793 -0.315,0 0,2.044 0.41,0 z"
           id="path3517"
           style="fill:#211c1c;fill-opacity:1;fill-rule:nonzero;stroke:none" />
      </g>
      <path
         d="m 748.58635,418.6594 2.29525,0 0,14.70686 -2.29525,0 0,-14.70686 z"
         id="path3519"
         style="fill:#211c1c;fill-opacity:1;fill-rule:nonzero;stroke:none" />
      <g
         transform="matrix(7.1951349,0,0,-7.1951349,763.04929,423.11535)"
         id="g3521"
         style="fill:#211c1c;fill-opacity:1">
        <path
           d="m 0,0 c -0.049,0.251 -0.193,0.38 -0.423,0.38 -0.331,0 -0.539,-0.303 -0.539,-0.784 0,-0.482 0.208,-0.782 0.545,-0.782 0.258,0 0.408,0.166 0.438,0.49 l 0.289,0 c -0.031,-0.496 -0.282,-0.765 -0.717,-0.765 -0.54,0 -0.886,0.413 -0.886,1.054 0,0.367 0.107,0.661 0.312,0.852 0.151,0.134 0.35,0.211 0.561,0.211 C -0.012,0.656 0.242,0.42 0.279,0 L 0,0 z"
           id="path3523"
           style="fill:#211c1c;fill-opacity:1;fill-rule:nonzero;stroke:none" />
      </g>
      <g
         transform="matrix(7.1951349,0,0,-7.1951349,776.41066,418.66084)"
         id="g3525"
         style="fill:#211c1c;fill-opacity:1">
        <path
           d="m 0,0 0,-0.273 -0.539,0 0,-1.771 -0.316,0 0,1.771 -0.533,0 0,0.273 L 0,0 z"
           id="path3527"
           style="fill:#211c1c;fill-opacity:1;fill-rule:nonzero;stroke:none" />
      </g>
      <g
         transform="matrix(7.1951349,0,0,-7.1951349,781.10476,418.66084)"
         id="g3529"
         style="fill:#211c1c;fill-opacity:1">
        <path
           d="M 0,0 0,-1.186 C 0,-1.437 0.009,-1.514 0.055,-1.6 0.12,-1.728 0.267,-1.805 0.454,-1.805 c 0.217,0 0.373,0.098 0.426,0.27 0.021,0.07 0.027,0.141 0.027,0.349 l 0,1.186 0.316,0 0,-1.192 c 0,-0.303 -0.012,-0.392 -0.065,-0.509 -0.11,-0.239 -0.37,-0.38 -0.704,-0.38 -0.334,0 -0.595,0.141 -0.705,0.38 -0.052,0.12 -0.064,0.206 -0.064,0.509 L -0.315,0 0,0 z"
           id="path3531"
           style="fill:#211c1c;fill-opacity:1;fill-rule:nonzero;stroke:none" />
      </g>
      <g
         transform="matrix(7.1951349,0,0,-7.1951349,796.40666,425.4955)"
         id="g3533"
         style="fill:#211c1c;fill-opacity:1">
        <path
           d="M 0,0 C 0.221,0 0.288,0.006 0.371,0.037 0.496,0.083 0.57,0.196 0.57,0.346 0.57,0.475 0.512,0.576 0.411,0.625 0.325,0.668 0.258,0.677 -0.015,0.677 l -0.126,0 L -0.141,0 0,0 z m -0.018,0.95 c 0.34,0 0.469,-0.018 0.606,-0.083 0.193,-0.092 0.31,-0.288 0.31,-0.524 0,-0.266 -0.132,-0.459 -0.389,-0.564 l 0.502,-0.873 -0.374,0 -0.462,0.821 -0.316,0 0,-0.821 -0.315,0 0,2.044 0.438,0 z"
           id="path3535"
           style="fill:#211c1c;fill-opacity:1;fill-rule:nonzero;stroke:none" />
      </g>
      <g
         transform="matrix(7.1951349,0,0,-7.1951349,814.04409,424.76735)"
         id="g3537"
         style="fill:#211c1c;fill-opacity:1">
        <path
           d="m 0,0 0,-0.273 -0.821,0 0,-0.649 0.919,0 0,-0.273 -1.235,0 0,2.044 1.211,0 0,-0.273 -0.895,0 L -0.821,0 0,0 z"
           id="path3539"
           style="fill:#211c1c;fill-opacity:1;fill-rule:nonzero;stroke:none" />
      </g>
      <g
         transform="matrix(7.1951349,0,0,-7.1951349,824.66051,422.73904)"
         id="g3541"
         style="fill:#211c1c;fill-opacity:1">
        <path
           d="m 0,0 c -0.018,0.208 -0.153,0.328 -0.365,0.328 -0.19,0 -0.334,-0.114 -0.334,-0.264 0,-0.073 0.04,-0.138 0.113,-0.181 0.062,-0.039 0.098,-0.055 0.35,-0.162 0.303,-0.126 0.395,-0.181 0.475,-0.27 0.08,-0.095 0.123,-0.217 0.123,-0.358 0,-0.368 -0.276,-0.607 -0.702,-0.607 -0.463,0 -0.72,0.242 -0.742,0.699 l 0.307,0 c 0.024,-0.279 0.174,-0.423 0.441,-0.423 0.218,0 0.371,0.116 0.371,0.279 0,0.092 -0.044,0.162 -0.132,0.223 -0.065,0.043 -0.101,0.062 -0.337,0.163 -0.224,0.095 -0.353,0.168 -0.426,0.239 -0.104,0.101 -0.156,0.227 -0.156,0.371 0,0.331 0.272,0.567 0.658,0.567 0.245,0 0.448,-0.095 0.561,-0.267 C 0.27,0.245 0.294,0.153 0.303,0 L 0,0 z"
           id="path3543"
           style="fill:#211c1c;fill-opacity:1;fill-rule:nonzero;stroke:none" />
      </g>
      <g
         transform="matrix(7.1951349,0,0,-7.1951349,418.65776,447.05716)"
         id="g3545"
         style="fill:#211c1c;fill-opacity:1">
        <path
           d="M 0,0 1.738,-1.737 3.475,0 1.737,1.738 0,0 z m -7.259,-7.26 1.737,-1.737 1.737,1.737 -1.737,1.738 -1.737,-1.738 z m -2.42,-2.419 1.737,-1.737 1.737,1.737 -1.737,1.737 -1.737,-1.737 z M 4.84,4.84 6.577,3.103 8.314,4.84 6.577,6.577 4.84,4.84 z M 2.42,2.42 4.157,0.682 5.894,2.42 4.157,4.158 2.42,2.42 z M 6.797,-5.696 7.433,-3.323 5.06,-2.687 4.424,-5.06 6.797,-5.696 z m 3.306,-0.885 0.636,2.373 -2.373,0.636 -0.636,-2.374 2.373,-0.635 z m -21.571,8.323 -0.636,-2.373 2.373,-0.636 0.636,2.374 -2.373,0.635 z m 5.043,-3.895 0.636,2.374 -2.373,0.636 -0.636,-2.374 2.373,-0.636 z m 5.475,-6.008 -2.373,0.635 -0.635,-2.373 2.373,-0.636 0.635,2.374 z m -3.258,-2.67 -0.636,-2.373 2.373,-0.636 0.636,2.373 -2.373,0.636 z M 2.843,5.992 3.479,8.365 1.106,9.001 0.47,6.628 2.843,5.992 z M 0.22,5.696 -0.416,3.323 1.957,2.687 2.593,5.06 0.22,5.696 z m 0,-16.231 2.373,0.636 -0.636,2.373 -2.373,-0.635 0.636,-2.374 z m 0.25,-0.932 0.636,-2.373 2.373,0.636 -0.636,2.373 -2.373,-0.636 z M -1.835,6.628 -2.471,9.001 -4.844,8.365 -4.208,5.992 -1.835,6.628 z M -1.585,5.696 -3.958,5.06 -3.323,2.687 -0.95,3.323 -1.585,5.696 z m -7.213,-9.019 0.636,-2.373 2.373,0.636 -0.636,2.373 -2.373,-0.636 z m -3.306,-0.885 0.636,-2.373 2.373,0.635 -0.636,2.374 -2.373,-0.636 z M 10.739,-0.631 10.103,1.742 7.73,1.107 8.366,-1.267 10.739,-0.631 z M 7.433,-1.517 6.797,0.857 4.424,0.221 5.06,-2.153 7.433,-1.517 z M 5.894,-7.26 4.157,-5.522 2.42,-7.26 4.157,-8.997 5.894,-7.26 z M 6.577,-7.942 4.84,-9.679 6.577,-11.416 8.314,-9.679 6.577,-7.942 z M -6.205,4.84 -7.942,6.577 -9.679,4.84 -7.942,3.103 -6.205,4.84 z M -5.522,4.158 -7.259,2.42 -5.522,0.682 -3.785,2.42 -5.522,4.158 z"
           id="path3547"
           style="fill:#211c1c;fill-opacity:1;fill-rule:nonzero;stroke:none" />
      </g>
      <g
         transform="matrix(7.1951349,0,0,-7.1951349,522.66415,446.83483)"
         id="g3549"
         style="fill:#ec2724;fill-opacity:1">
        <path
           d="m 0,0 0.757,0 0,-0.719 0.018,0 c 0.36,0.549 0.908,0.832 1.58,0.832 0.595,0 1.144,-0.236 1.343,-0.832 0.331,0.52 0.907,0.832 1.532,0.832 0.974,0 1.626,-0.406 1.626,-1.418 l 0,-3.584 -0.804,0 0,3.206 c 0,0.605 -0.161,1.087 -0.945,1.087 -0.776,0 -1.277,-0.492 -1.277,-1.248 l 0,-3.045 -0.804,0 0,3.206 c 0,0.633 -0.198,1.087 -0.917,1.087 -0.955,0 -1.305,-0.879 -1.305,-1.248 l 0,-3.045 L 0,-4.889 0,0 z"
           id="path3551"
           style="fill:#ec2724;fill-opacity:1;fill-rule:nonzero;stroke:none" />
      </g>
      <g
         transform="matrix(7.1951349,0,0,-7.1951349,597.44247,463.84701)"
         id="g3553"
         style="fill:#ec2724;fill-opacity:1">
        <path
           d="m 0,0 c -0.312,-0.227 -0.917,-0.236 -1.456,-0.331 -0.53,-0.094 -0.984,-0.283 -0.984,-0.879 0,-0.53 0.454,-0.719 0.946,-0.719 1.059,0 1.494,0.662 1.494,1.106 L 0,0 z M 1.305,-2.506 C 1.163,-2.591 0.983,-2.638 0.728,-2.638 c -0.416,0 -0.681,0.227 -0.681,0.756 -0.444,-0.52 -1.04,-0.756 -1.721,-0.756 -0.889,0 -1.617,0.397 -1.617,1.371 0,1.106 0.823,1.343 1.655,1.504 0.889,0.17 1.645,0.113 1.645,0.718 0,0.7 -0.577,0.813 -1.087,0.813 -0.681,0 -1.182,-0.207 -1.22,-0.926 l -0.804,0 c 0.047,1.21 0.984,1.636 2.071,1.636 0.88,0 1.835,-0.199 1.835,-1.343 l 0,-2.516 c 0,-0.378 0,-0.548 0.255,-0.548 0.066,0 0.142,0.01 0.246,0.047 l 0,-0.624 z"
           id="path3555"
           style="fill:#ec2724;fill-opacity:1;fill-rule:nonzero;stroke:none" />
      </g>
      <g
         transform="matrix(7.1951349,0,0,-7.1951349,632.14245,463.7103)"
         id="g3557"
         style="fill:#ec2724;fill-opacity:1">
        <path
           d="m 0,0 c 0,0.861 -0.378,1.749 -1.39,1.749 -1.031,0 -1.447,-0.841 -1.447,-1.777 0,-0.88 0.322,-1.863 1.381,-1.863 C -0.397,-1.891 0,-0.917 0,0 m 0.794,-2.128 c 0,-1.589 -0.728,-2.402 -2.269,-2.402 -0.918,0 -1.976,0.369 -2.024,1.438 l 0.804,0 c 0.038,-0.587 0.737,-0.795 1.267,-0.795 1.05,0 1.466,0.757 1.466,1.854 l 0,0.321 -0.019,0 c -0.265,-0.595 -0.908,-0.889 -1.523,-0.889 -1.456,0 -2.184,1.145 -2.184,2.478 0,1.154 0.567,2.582 2.26,2.582 0.615,0 1.163,-0.274 1.457,-0.814 l -0.01,0 0.019,0 0,0.7 0.756,0 0,-4.473 z"
           id="path3559"
           style="fill:#ec2724;fill-opacity:1;fill-rule:nonzero;stroke:none" />
      </g>
      <g
         transform="matrix(7.1951349,0,0,-7.1951349,666.23084,461.05602)"
         id="g3561"
         style="fill:#ec2724;fill-opacity:1">
        <path
           d="M 0,0 C -0.038,0.766 -0.615,1.381 -1.409,1.381 -2.251,1.381 -2.752,0.747 -2.808,0 L 0,0 z m 0.775,-1.362 c -0.217,-1.078 -0.992,-1.664 -2.09,-1.664 -1.56,0 -2.298,1.078 -2.345,2.572 0,1.466 0.965,2.544 2.298,2.544 1.731,0 2.26,-1.617 2.213,-2.799 l -3.659,0 c -0.029,-0.851 0.453,-1.608 1.522,-1.608 0.662,0 1.125,0.322 1.267,0.955 l 0.794,0 z"
           id="path3563"
           style="fill:#ec2724;fill-opacity:1;fill-rule:nonzero;stroke:none" />
      </g>
      <g
         transform="matrix(7.1951349,0,0,-7.1951349,708.14322,482.01185)"
         id="g3565"
         style="fill:#ec2724;fill-opacity:1">
        <path
           d="m 0,0 -0.851,0 -0.993,3.886 -0.019,0 L -2.846,0 l -0.87,0 -1.57,4.889 0.889,0 1.106,-4 0.019,0 0.984,4 0.879,0 1.021,-4 0.019,0 1.097,4 0.832,0 L 0,0 z"
           id="path3567"
           style="fill:#ec2724;fill-opacity:1;fill-rule:nonzero;stroke:none" />
      </g>
      <g
         transform="matrix(7.1951349,0,0,-7.1951349,734.27163,477.72714)"
         id="g3569"
         style="fill:#ec2724;fill-opacity:1">
        <path
           d="M 0,0 C 0.842,0 1.523,0.662 1.523,1.844 1.523,3.036 0.842,3.698 0,3.698 -0.841,3.698 -1.522,3.036 -1.522,1.844 -1.522,0.662 -0.841,0 0,0 m 0,4.407 c 1.551,0 2.374,-1.125 2.374,-2.563 0,-1.428 -0.823,-2.553 -2.374,-2.553 -1.551,0 -2.374,1.125 -2.374,2.553 0,1.438 0.823,2.563 2.374,2.563"
           id="path3571"
           style="fill:#ec2724;fill-opacity:1;fill-rule:nonzero;stroke:none" />
      </g>
      <g
         transform="matrix(7.1951349,0,0,-7.1951349,753.59632,446.83483)"
         id="g3573"
         style="fill:#ec2724;fill-opacity:1">
        <path
           d="m 0,0 0.757,0 0,-1.031 0.018,0 c 0.388,0.785 0.927,1.173 1.797,1.144 l 0,-0.851 c -1.296,0 -1.768,-0.737 -1.768,-1.976 l 0,-2.175 L 0,-4.889 0,0 z"
           id="path3575"
           style="fill:#ec2724;fill-opacity:1;fill-rule:nonzero;stroke:none" />
      </g>
      <g
         transform="matrix(7.1951349,0,0,-7.1951349,774.21038,433.43102)"
         id="g3577"
         style="fill:#ec2724;fill-opacity:1">
        <path
           d="m 0,0 0.804,0 0,-4 2.231,2.137 1.079,0 -1.939,-1.778 2.08,-3.111 -1.021,0 -1.673,2.553 -0.757,-0.7 0,-1.853 L 0,-6.752 0,0 z"
           id="path3579"
           style="fill:#ec2724;fill-opacity:1;fill-rule:nonzero;stroke:none" />
      </g>
      <g
         transform="matrix(7.1951349,0,0,-7.1951349,807.48357,470.92199)"
         id="g3581"
         style="fill:#ec2724;fill-opacity:1">
        <path
           d="m 0,0 c 0.028,-0.719 0.653,-0.946 1.314,-0.946 0.502,0 1.183,0.114 1.183,0.728 0,0.625 -0.795,0.729 -1.599,0.908 C 0.104,0.87 -0.7,1.135 -0.7,2.071 c 0,0.984 0.974,1.39 1.825,1.39 1.078,0 1.939,-0.34 2.005,-1.532 l -0.804,0 C 2.27,2.553 1.721,2.752 1.192,2.752 0.709,2.752 0.151,2.619 0.151,2.128 c 0,-0.577 0.852,-0.672 1.598,-0.851 0.804,-0.18 1.599,-0.445 1.599,-1.39 0,-1.164 -1.088,-1.542 -2.081,-1.542 -1.096,0 -2.023,0.444 -2.071,1.655 L 0,0 z"
           id="path3583"
           style="fill:#ec2724;fill-opacity:1;fill-rule:nonzero;stroke:none" />
      </g>
      <path
         d="m 513.61483,482.01257 5.78489,0 0,-35.17702 -5.78489,0 0,35.17702 z"
         id="path3585"
         style="fill:#ec2724;fill-opacity:1;fill-rule:nonzero;stroke:none" />
      <path
         d="m 513.61483,440.50383 5.78489,0 0,-5.79208 -5.78489,0 0,5.79208 z"
         id="path3587"
         style="fill:#ec2724;fill-opacity:1;fill-rule:nonzero;stroke:none" />
    </g>
  </g>
</svg>
