<?xml version="1.0" encoding="utf-8"?>
<!-- Generator: Adobe Illustrator 16.0.0, SVG Export Plug-In . SVG Version: 6.00 Build 0)  -->
<!DOCTYPE svg PUBLIC "-//W3C//DTD SVG 1.1//EN" "http://www.w3.org/Graphics/SVG/1.1/DTD/svg11.dtd">
<svg version="1.1" id="Layer_1" xmlns="http://www.w3.org/2000/svg" xmlns:xlink="http://www.w3.org/1999/xlink" x="0px" y="0px"
	 width="253.859803829" height="393.91821191" viewBox="0 0 644.448 1000" enable-background="new 0 0 644.448 1000" xml:space="preserve">
<g>
	<g>
		<path id="path4025" inkscape:connector-curvature="0" d="M110.312,795.384h13.938v35.221h-12.993
			c0-6.305-9.184-23.746-46.986-25.211c-38.594-1.475-42.482,17.471-29.42,21.514c16.81,5.188,50.057,4.076,70.685,10.742
			c27.16,8.783,34.851,38.01,11.075,53.576c-21.341,13.967-58.694,12.318-85.192,3.145c-4.841-1.672-12.608-5.934-12.225-0.367v3.32
			H3.139v-38.537h14.334c0.185,2.225-1.724,10.746,14.322,19.645c18.603,10.314,52.528,10.74,66.098,3.33
			c8.036-4.391,9.157-18.471-5.358-20.387c-15.569-2.053-40.278-3.576-58.742-7.768c-13.075-2.994-23.144-6.742-29.119-14.469
			c-4.592-5.939-12.225-29.295,14.137-41.15c32.676-14.715,77.933-4.451,85.958,2.217
			C108.023,802.921,111.642,802.052,110.312,795.384"/>
		<path id="path4029" inkscape:connector-curvature="0" d="M229.664,789.707c36.29,0,74.889,17.42,74.116,57.455
			c-0.76,40.045-38.965,55.605-74.116,55.605c-35.144,0-76.785-15.561-77.559-55.605
			C151.343,807.126,194.135,789.707,229.664,789.707 M272.052,846.429c0.047-26.508-18.54-41.51-43.008-41.51
			c-24.464,0-43.035,15.002-43.01,41.51c0.019,26.496,19.189,42.148,43.01,41.494C252.86,887.257,272.018,872.742,272.052,846.429"
			/>
		<path id="path4033" inkscape:connector-curvature="0" d="M623.245,813.044c-2.885,2.895-38.967,45.654-38.967,45.654v22.912
			c-0.059,2.48,0.135,2.385,2.861,2.385h14.908v13.104h-68.398v-13.104c0,0,13.762,0.193,16.623,0
			c2.866-0.188,3.104-0.855,3.156-2.385V858.5c0,0-40.031-43.936-40.439-44.518c-1.357-1.939-5.059-5.303-11.611-5.461h-11.27
			v-13.24h69.15v13.24h-7.071c-1.515,0-3.63,3.178-0.754,6.043c2.853,2.863,23.487,27.504,23.487,27.504l23.486-27.695
			c1.391-1.811,0.957-5.852-1.906-5.852h-8.604v-13.24h56.551v13.24h-13.182C627.012,808.521,624.206,812.085,623.245,813.044"/>
		<path id="path4037" inkscape:connector-curvature="0" d="M359.138,877.824c0,6.686,3.469,6.316,6.526,6.225h13.623v13.053h-59.979
			v-12.578h13.265c5.382-0.383,6.162-3.174,6.35-6.227v-61.891c0.151-4.109,0.19-7.557-7.109-7.73h-12.705l-0.099-13.561h50.72
			l68.49,63.404V815.74c0-7.275-3.604-7.275-6.649-7.641h-12.742v-12.984h58.072v13.166h-13.949c-3.262,0-4.682,3.254-4.864,6.309
			v82.512h-19.015l-79.935-70.287V877.824z"/>
		<path id="path4041" inkscape:connector-curvature="0" d="M1.667,996.865v-8.145h7.126c2.78,0,3.427-1.092,3.427-3.461
			l-0.02-39.084c0-2.383-0.7-3.625-3.476-3.625H2.02v-8.326h53.093c18.178,0,23.984,4.271,23.984,17.314
			c0,13.041-8.146,18.336-28.548,18.336H28.132v15.41c0,2.375,0.649,3.463,3.427,3.463h7.3l-0.124,8.117H1.667z M28.132,961.496
			h20.252c8.166-0.184,12.977-2.209,12.977-9.508c0-6.824-4.76-9.619-11.889-9.619h-21.34V961.496z"/>
		<path id="path4045" inkscape:connector-curvature="0" d="M113.841,985.238c0,2.391,0.645,3.465,3.425,3.465h7.149v8.125H87.376
			v-8.15h7.125c2.768,0,3.425-1.084,3.425-3.465v-39.131c0-2.383-0.657-3.941-3.425-3.941h-7.125v-8.135h37.039v8.111h-7.149
			c-2.78,0-3.425,1.545-3.425,3.922V985.238z"/>
		<path id="path4049" inkscape:connector-curvature="0" d="M206.13,977.525c-1.286,9.67-12.397,22.475-32.474,22.475
			c-19.007,0-42.644-8.049-43.044-33.824c-0.402-25.186,22.232-35.852,40.862-35.5c11.075,0.213,20.986,3.99,23.537,6.537
			c1.613,1.605,3.697,1.721,2.91-3.029h7.307v21.516h-6.807c-0.633-11.254-13.695-18.432-27.718-16.705
			c-14.801,1.814-22.108,13.086-22.091,27.033c0.008,15.461,12.742,26.006,25.628,25.988c8.494-0.01,21.842-2.518,24.565-14.527
			L206.13,977.525z"/>
		<path id="path4053" inkscape:connector-curvature="0" d="M216.347,958.027V934.21h74.577v23.816h-7.499
			c0.174-16.816-1.447-15.205-7.244-15.838l-14.531-0.041v43.279c0,2.385,0.62,3.93,3.395,3.93h7.131v7.676h-37.068v-7.676h7.125
			c2.769,0,3.414-1.545,3.414-3.93v-43.279l-14.423,0.045c-6.433,0.629-7.271-0.488-7.271,15.838L216.347,958.027z"/>
		<path id="path4057" inkscape:connector-curvature="0" d="M341.069,999.654c-14.965,0-30.782-3.414-30.782-22.756v-30.766
			c0-2.383-0.659-3.926-3.429-3.926h-7.122v-8.166h37.03v8.121h-7.14c-2.78,0-3.436,1.553-3.436,3.943v31.729
			c0,2.105-0.859,14.582,14.878,14.582c17.589,0,19.235-7.641,19.235-14.652l0.035-31.631c0-2.383-0.627-3.926-3.399-3.926h-7.136
			v-8.166h31.435v8.121h-7.159c-1.748,0-3.363,1.795-3.277,6.539l0.141,28.801C370.943,996.056,356.326,999.654,341.069,999.654"/>
		<path id="path4061" inkscape:connector-curvature="0" d="M450.241,966.564c6.247,1.51,10.673,2.811,11.014,10.426v9.051
			c0,1.811,0.314,4.439,3.301,4.439c3.202,0,2.985-3.633,2.814-7.1v-3.814h6.625v4.619c0,11.246-2.681,14.395-12.505,14.385
			c-8.3-0.01-16.266-2.574-16.266-15.1v-6.857c0-4.648-3.837-6.762-10.969-6.752l-18.228,0.006v15.41
			c0,2.375,0.658,3.463,3.427,3.463h7.134l0.031,8.352h-37.063v-8.389h7.13c2.774,0,3.42-1.086,3.42-3.467v-39.066
			c0-2.377-0.721-4.166-3.479-4.166h-6.712v-7.789h51.912c18.191,0,24.229,5.836,24.134,17.66
			C465.878,962.003,457.467,965.228,450.241,966.564 M416.028,961.486h20.249c7.771,0,11.938-3.609,11.938-9.521
			c0-5.895-4.99-9.607-11.203-9.607h-20.984V961.486z"/>
		<path id="path4065" inkscape:connector-curvature="0" d="M508.739,988.9l33.354,0.137c6.432-0.617,7.586-3.67,7.586-15.824h7.162
			v23.844l-74.66,0.025v-8.135h7.134c2.769,0,3.423-1.088,3.423-3.453v-39.141c0-2.381-0.654-3.932-3.423-3.932h-7.134v-8.195h74.66
			v23.789h-7.162c0-12.137-1.154-15.463-7.586-16.094l-33.354-0.027v18.82l15.52-0.016c2.016,0,3.336-0.74,3.336-4.014v-6.5h6.922
			v29.438h-6.889v-6.525c0-3.26-1.328-4.027-3.336-4.027l-15.553-0.01V988.9z"/>
		<path id="path4069" inkscape:connector-curvature="0" d="M630.1,934.916h7.307v21.809H630.6c0-3.814-4.917-15.736-24.754-16.287
			c-20.322-0.563-23.004,10.553-15.297,14.045c8.513,3.855,26.234,2.475,37.045,6.502c14.24,5.311,18.263,22.973,5.801,32.379
			c-11.18,8.443-30.764,7.459-44.66,1.904c-2.525-1.01-6.611-3.584-6.406-0.219v2.018h-8.41v-23.303h7.516
			c-0.016,1.34-0.899,6.49,7.508,11.867c12.451,7.971,24.555,8.805,34.652,2.443c4.652-2.938,6.621-11.316-2.807-12.752
			c-8.169-1.236-21.128-2.168-30.791-4.695c-6.864-1.797-12.141-4.088-15.285-8.746c-2.623-3.912-7.029-17.375,7.412-24.883
			c17.131-8.889,36.186-3.631,45.068,1.355C629.272,939.507,630.792,939.455,630.1,934.916"/>
	</g>
	<g>
		<g id="g4071">
			<g>
				<defs>
					<path id="SVGID_1_" d="M2.41,294.078v453.435l628.952-292.828c-2.1-88.935-6.037-136.929-6.057-200.709l0,0
						c-0.159-37.057-2.545-72.994-2.529-115.851l0,0c0.006-38.418,1.965-82.391,9.201-137.689l0,0l0.107-0.24L2.41,294.078z"/>
				</defs>
				<clipPath id="SVGID_2_">
					<use xlink:href="#SVGID_1_"  overflow="visible"/>
				</clipPath>
				<g id="g4073" clip-path="url(#SVGID_2_)">
					<g id="g4079" transform="translate(295.9707,387.4082)">
						<path id="path4081" inkscape:connector-curvature="0" fill="#3CADE3" d="M0,225.183l459.313,146.861
							c0,0-10.62-208.48-13.14-280.554c-2.461-70.706-53.254-554.994-53.254-554.994L-321.602-99.663l10.798,187.245l16.93,293.195
							L0,225.183"/>
					</g>
					<g id="g4083" transform="translate(-13.8193,524.9888)">
						<path id="path4085" inkscape:connector-curvature="0" fill="#3AACE1" d="M-0.002-49.978
							c-0.016-0.256-10.171-185.429-9.408-186.191c2.049-2.05,710.501-364.038,711.594-364.935c0.173-0.157,0.505,2.031,0.956,6.251
							c5.996,57.283,49.912,479.774,52.334,546.927c1.23,34.406,4.236,99.013,7.049,157.255
							c3.105,64.41,5.977,121.459,5.957,121.912c-0.062,0.936-145.934-44.725-145.934-44.725s-308.46-98.447-310.181-98.82
							c-1.073-0.23-292.018,152.902-293.052,152.609C17.852,239.872-0.002-49.627-0.002-49.978"/>
					</g>
					<g id="g4087" transform="translate(-12.8232,524.9702)">
						<path id="path4089" inkscape:connector-curvature="0" fill="#37AAE1" d="M-0.001-49.941
							c-0.017-0.488-9.528-183.611-8.007-185.135c4.119-4.103,706.479-364.233,708.669-366.03c0.352-0.293,0.796,1.778,1.229,5.94
							c5.895,56.462,49.521,476.961,52.102,545.421c1.25,34.543,4.251,98.737,7.029,156.375
							c3.084,63.824,5.894,120.523,5.836,121.426c-0.098,1.854-143.996-42.203-143.996-42.203S317.389,88.576,313.971,87.84
							c-2.168-0.475-290.165,150.176-292.257,149.596C18.768,236.594,0.04-49.219-0.001-49.941"/>
					</g>
					<g id="g4091" transform="translate(-11.8057,524.9517)">
						<path id="path4093" inkscape:connector-curvature="0" fill="#39A9E0" d="M0.001-49.904
							c-0.023-0.723-8.885-181.812-6.603-184.079c6.172-6.154,702.416-364.43,705.719-367.105c0.547-0.449,1.074,1.485,1.5,5.607
							c5.82,55.623,49.174,474.15,51.849,543.916c1.287,34.697,4.298,98.466,7.03,155.496c3.045,63.246,5.796,119.568,5.737,120.92
							c-0.155,2.791-142.084-39.643-142.084-39.643S320.666,89.063,315.528,87.972C312.287,87.249,27.22,235.435,24.094,234.56
							C19.682,233.308,0.037-48.81,0.001-49.904"/>
					</g>
					<g id="g4095" transform="translate(-10.79,524.9331)">
						<path id="path4097" inkscape:connector-curvature="0" fill="#35A8DF" d="M-0.001-49.867
							c-0.04-0.954-8.261-179.995-5.216-183.023c8.221-8.205,698.396-364.623,702.79-368.199c0.723-0.585,1.364,1.231,1.793,5.295
							c5.723,54.802,48.781,471.336,51.592,542.411c1.311,34.834,4.297,98.194,7.011,154.62
							c3.028,62.633,5.722,118.609,5.626,120.41c-0.215,3.729-140.132-37.084-140.132-37.084s-299.518-94.99-306.353-96.477
							c-4.333-0.938-286.455,144.771-290.633,143.602c-5.88-1.66-26.439-280.106-26.476-281.552"/>
					</g>
					<g id="g4099" transform="translate(-9.7969,524.8921)">
						<path id="path4101" inkscape:connector-curvature="0" fill="#36A7DE" d="M-0.001-49.785
							c-0.039-1.212-7.594-178.218-3.807-182.009c10.291-10.238,694.372-364.8,699.859-369.273c0.918-0.743,1.641,0.977,2.07,4.963
							c5.641,54,48.408,468.542,51.355,540.926c1.35,34.993,4.318,97.924,7.013,153.739c2.97,62.07,5.621,117.676,5.487,119.922
							c-0.252,4.65-138.18-34.545-138.18-34.545S327.25,90.098,318.714,88.242c-5.426-1.189-284.618,142.057-289.813,140.576
							C21.523,226.744,0.058-47.988-0.001-49.785"/>
					</g>
					<g id="g4103" transform="translate(-8.7783,524.8706)">
						<path id="path4105" inkscape:connector-curvature="0" fill="#33A6DE" d="M-0.001-49.742
							c-0.062-1.47-6.974-176.404-2.404-180.957C9.92-242.987,687.925-595.693,694.505-601.045c1.094-0.9,1.934,0.702,2.342,4.63
							c5.547,53.18,48.038,465.728,51.127,539.422c1.367,35.147,4.334,97.651,6.991,152.838
							c2.946,61.486,5.525,116.736,5.387,119.434c-0.31,5.588-136.263-31.986-136.263-31.986S330.526,90.59,320.273,88.361
							C313.77,86.957,37.512,227.723,31.281,225.945C22.436,223.463,0.075-47.596-0.001-49.742"/>
					</g>
					<g id="g4107" transform="translate(-7.7861,524.853)">
						<path id="path4109" inkscape:connector-curvature="0" fill="#33A4DD" d="M0-49.707c-0.058-1.698-6.307-174.605-0.994-179.898
							c14.39-14.342,686.304-365.19,693.978-371.443c1.271-1.034,2.207,0.45,2.618,4.318
							c5.468,52.359,47.669,462.915,50.887,537.918c1.39,35.284,4.36,97.354,6.973,151.961
							c2.911,60.893,5.449,115.771,5.274,118.943c-0.352,6.502-134.334-29.445-134.334-29.445s-290.573-91.553-302.525-94.15
							c-7.598-1.641-280.906,136.625-288.19,134.596C23.375,220.18,0.1-47.184,0-49.707"/>
					</g>
					<g id="g4111" transform="translate(-6.7676,524.8345)">
						<path id="path4113" inkscape:connector-curvature="0" fill="#34A3DC" d="M-0.001-49.669
							c-0.079-1.934-5.683-172.788,0.41-178.843c16.439-16.393,682.264-365.385,691.028-372.518c1.47-1.19,2.503,0.177,2.896,3.986
							c5.387,51.54,47.295,460.102,50.631,536.416c1.447,35.438,4.378,97.08,6.973,151.08c2.891,60.313,5.354,114.838,5.156,118.436
							c-0.41,7.441-132.377-26.885-132.377-26.885S337.109,91.585,323.459,88.636C314.79,86.739,44.386,222.563,36.066,220.2
							C24.292,216.874,0.099-46.776-0.001-49.669"/>
					</g>
					<g id="g4115" transform="translate(-5.7725,524.8159)">
						<path id="path4117" inkscape:connector-curvature="0" fill="#33A2DB" d="M-0.001-49.632
							c-0.057-2.164-5.017-170.988,1.816-177.807c18.492-18.424,678.238-365.563,688.102-373.591
							c1.644-1.349,2.774-0.079,3.163,3.653c5.313,50.738,46.928,457.308,50.402,534.931c1.462,35.595,4.395,96.805,6.954,150.198
							c2.851,59.729,5.271,113.889,5.055,117.932c-0.467,8.381-130.466-24.344-130.466-24.344S340.408,92.092,325.039,88.75
							c-9.743-2.109-277.196,131.213-286.57,128.574C25.209,213.594,0.117-46.389-0.001-49.632"/>
					</g>
					<g id="g4119" transform="translate(-4.7578,524.7739)">
						<path id="path4121" inkscape:connector-curvature="0" fill="#34A0D9" d="M-0.001-49.548
							c-0.078-2.425-4.392-169.194,3.204-176.773c20.561-20.476,674.221-365.756,685.175-374.686
							c1.834-1.484,3.066-0.332,3.434,3.342c5.214,49.917,46.557,454.493,50.167,533.424c1.482,35.734,4.417,96.532,6.937,149.323
							c2.81,59.139,5.193,112.943,4.938,117.438c-0.508,9.301-128.512-21.803-128.512-21.803S343.692,92.62,326.625,88.909
							C315.786,86.567,51.261,217.405,40.852,214.476C26.13,210.333,0.136-45.958-0.001-49.548"/>
					</g>
					<g id="g4123" transform="translate(-3.7412,524.7554)">
						<path id="path4125" inkscape:connector-curvature="0" fill="#329FD9" d="M0-49.511c-0.101-2.678-3.771-167.396,4.605-175.719
							c22.598-22.526,670.178-365.949,682.229-375.759c2.01-1.642,3.336-0.624,3.711,3.009c5.132,49.096,46.18,451.68,49.93,531.922
							c1.527,35.887,4.436,96.257,6.916,148.44c2.791,58.555,5.094,111.988,4.822,116.93c-0.569,10.238-126.58-19.242-126.58-19.242
							s-278.66-86.963-297.446-91.025c-11.915-2.6-273.51,125.799-284.951,122.559C27.028,207.029,0.137-45.544,0-49.511"/>
					</g>
					<g id="g4127" transform="translate(-2.7451,524.7349)">
						<path id="path4129" inkscape:connector-curvature="0" fill="#359DD7" d="M-0.001-49.47
							c-0.099-2.911-3.104-165.58,6.014-174.664c24.664-24.579,666.154-366.148,679.295-376.854
							c2.189-1.777,3.637-0.878,4.004,2.697c5.039,48.257,45.792,448.866,49.68,530.436c1.545,36.008,4.452,95.964,6.909,147.542
							c2.736,57.967,5.005,111.033,4.707,116.426c-0.622,11.195-124.646-16.684-124.646-16.684S350.27,93.616,329.783,89.167
							C316.78,86.352,58.131,212.249,45.636,208.733C27.963,203.751,0.157-45.156-0.001-49.47"/>
					</g>
					<g id="g4131" transform="translate(-1.7295,524.7163)">
						<path id="path4133" inkscape:connector-curvature="0" fill="#329DD8" d="M-0.001-49.433
							c-0.118-3.146-2.478-163.78,7.402-173.629c26.734-26.608,662.108-366.304,676.366-377.927
							c2.379-1.934,3.904-1.131,4.275,2.364c4.963,47.455,45.419,446.093,49.428,528.949c1.58,36.165,4.49,95.693,6.908,146.667
							c2.717,57.385,4.926,110.074,4.594,115.936c-0.668,12.113-122.715-14.146-122.715-14.146S353.551,94.123,331.37,89.301
							C317.267,86.234,61.551,209.672,48.016,205.859C28.879,200.467,0.156-44.745-0.001-49.433"/>
					</g>
					<g id="g4135" transform="translate(-0.7139,524.6958)">
						<path id="path4137" inkscape:connector-curvature="0" fill="#309BD6" d="M0.001-49.392
							c-0.139-3.378-1.839-161.964,8.807-172.573c28.761-28.662,658.069-366.498,673.416-379.003c2.558-2.09,4.181-1.408,4.55,2.031
							c4.861,46.636,45.051,443.281,49.189,527.447c1.601,36.319,4.491,95.419,6.895,145.765
							c2.675,56.814,4.823,109.158,4.473,115.449c-0.707,13.049-120.762-11.588-120.762-11.588S356.831,94.614,332.93,89.437
							C317.756,86.134,64.968,207.089,50.398,202.989C29.799,197.169,0.155-44.353,0.001-49.392"/>
					</g>
					<g id="g4139" transform="translate(0.2803,524.6616)">
						<path id="path4141" inkscape:connector-curvature="0" fill="#309AD6" d="M-0.001-49.324
							c-0.118-3.633-1.192-160.182,10.215-171.534C41.05-251.569,664.259-587.55,680.701-600.953
							c2.734-2.228,4.473-1.662,4.826,1.719c4.783,45.815,44.68,440.467,48.953,525.941c1.64,36.455,4.512,95.128,6.875,144.888
							c2.656,56.229,4.748,108.199,4.372,114.955c-0.78,13.971-118.844-9.061-118.844-9.061s-266.748-82.354-292.35-87.922
							c-16.271-3.535-266.109,114.957-281.73,110.563C30.719,193.898,0.196-43.928-0.001-49.324"/>
					</g>
					<g id="g4143" transform="translate(1.2959,524.6382)">
						<path id="path4145" inkscape:connector-curvature="0" fill="#3299D5" d="M0-49.277c-0.137-3.888-0.55-158.37,11.618-170.48
							c32.887-32.765,650.004-366.892,667.541-381.174c2.926-2.383,4.742-1.934,5.094,1.387
							c4.709,44.995,44.311,437.653,48.723,524.439c1.66,36.611,4.531,94.855,6.856,144.005
							c2.615,55.645,4.646,107.262,4.257,114.449c-0.82,14.906-116.896-6.502-116.896-6.502S363.414,95.629,336.094,89.711
							C318.75,85.938,71.843,201.951,55.183,197.264C31.632,190.619,0.195-43.514,0-49.277"/>
					</g>
					<g id="g4147" transform="translate(2.292,524.6196)">
						<path id="path4149" inkscape:connector-curvature="0" fill="#3097D3" d="M0-49.24c-0.138-4.12,0.096-156.571,13.025-169.446
							c34.936-34.795,645.979-367.065,664.608-382.246c3.104-2.539,5.036-2.207,5.369,1.056
							c4.629,44.193,43.939,434.86,48.488,522.954c1.682,36.769,4.555,94.576,6.836,143.128
							c2.598,55.053,4.568,106.303,4.139,113.961c-0.86,15.824-114.959-3.967-114.959-3.967S366.71,96.136,337.694,89.829
							C319.282,85.841,75.298,199.372,57.606,194.392C32.572,187.317,0.214-43.125,0-49.24"/>
					</g>
					<g id="g4151" transform="translate(3.3066,524.5991)">
						<path id="path4153" inkscape:connector-curvature="0" fill="#3295D2" d="M0.001-49.199
							c-0.155-4.356,0.742-154.755,14.41-168.392c37.005-36.847,641.959-367.26,661.681-383.34c3.301-2.676,5.312-2.46,5.646,0.745
							c4.531,43.371,43.564,432.046,48.232,521.449c1.74,36.906,4.591,94.302,6.854,142.247
							c2.542,54.473,4.471,105.346,4.026,113.455c-0.92,16.76-113.031-1.408-113.031-1.408S369.994,96.643,339.277,89.965
							c-19.508-4.244-260.56,106.83-279.286,101.557C33.474,184.039,0.235-42.712,0.001-49.199"/>
					</g>
					<g id="g4155" transform="translate(4.3242,524.5806)">
						<path id="path4157" inkscape:connector-curvature="0" fill="#3095D2" d="M-0.001-49.162
							c-0.173-4.592,1.366-152.937,15.817-167.336c39.056-38.897,637.917-367.455,658.731-384.415
							c3.479-2.833,5.604-2.735,5.936,0.412c4.436,42.55,43.177,429.232,47.982,519.942c1.756,37.063,4.588,94.032,6.834,141.374
							c2.52,53.883,4.375,104.402,3.906,112.943c-0.977,17.699-111.094,1.152-111.094,1.152S373.271,97.132,340.837,90.102
							c-20.582-4.48-258.704,104.111-278.464,98.547C34.385,180.751,0.234-42.303-0.001-49.162"/>
					</g>
					<g id="g4159" transform="translate(5.3193,524.5415)">
						<path id="path4161" inkscape:connector-curvature="0" fill="#2E93D1" d="M-0.001-49.083
							c-0.177-4.845,2.011-151.159,17.227-166.301c41.103-40.949,633.892-367.651,655.802-385.508
							c3.648-2.969,5.874-2.989,6.207,0.098c4.355,41.712,42.809,426.419,47.75,518.44c1.775,37.217,4.604,93.754,6.81,140.496
							c2.482,53.293,4.299,103.443,3.794,112.449c-1.019,18.623-109.143,3.693-109.143,3.693S376.572,97.659,342.44,90.239
							C320.765,85.53,85.589,191.655,64.774,185.796C35.327,177.47,0.254-41.895-0.001-49.083"/>
					</g>
					<g id="g4163" transform="translate(6.334,524.5229)">
						<path id="path4165" inkscape:connector-curvature="0" fill="#2D92CF" d="M0.001-49.046
							c-0.178-5.078,2.654-149.341,18.628-165.264c43.156-43.002,629.852-367.829,652.855-386.564
							c3.846-3.145,6.171-3.261,6.482-0.233c4.275,40.891,42.432,423.605,47.512,516.933c1.814,37.356,4.626,93.487,6.793,139.612
							c2.464,52.717,4.203,102.494,3.695,111.947c-1.072,19.559-107.229,6.256-107.229,6.256S379.856,98.15,344.003,90.373
							C321.255,85.43,89.008,189.078,67.157,182.92C36.225,174.188,0.254-41.486,0.001-49.046"/>
					</g>
					<g id="g4167" transform="translate(7.3301,524.5024)">
						<path id="path4169" inkscape:connector-curvature="0" fill="#3090CF" d="M-0.001-49.005
							c-0.173-5.336,3.301-147.545,20.038-164.21c45.207-45.054,625.829-368.023,649.927-387.658c4.02-3.281,6.44-3.516,6.758-0.566
							c4.197,40.09,42.059,420.813,47.256,515.449c1.855,37.511,4.666,93.194,6.794,138.716c2.423,52.143,4.124,101.57,3.57,111.479
							c-1.128,20.473-105.271,8.791-105.271,8.791S383.157,98.657,345.605,90.513c-23.842-5.178-253.142,95.984-276.046,89.518
							C37.164,170.907,0.293-41.092,0-49.005"/>
					</g>
					<g id="g4171" transform="translate(8.3447,524.4839)">
						<path id="path4173" inkscape:connector-curvature="0" fill="#2D8FCD" d="M0.001-48.968
							c-0.196-5.566,3.943-145.727,21.423-163.154C68.7-259.227,643.228-580.34,668.417-600.874
							c4.196-3.419,6.738-3.771,7.031-0.879c4.099,39.27,41.691,417.998,47.023,513.947c1.874,37.647,4.668,92.919,6.777,137.835
							c2.398,51.561,4.043,100.613,3.457,110.971c-1.178,21.414-103.346,11.332-103.346,11.332s-242.926-73.17-282.175-81.703
							c-24.939-5.412-251.303,93.289-275.245,86.549C38.078,167.619,0.291-40.684,0.001-48.968"/>
					</g>
					<g id="g4175" transform="translate(9.3623,524.4604)">
						<path id="path4177" inkscape:connector-curvature="0" fill="#2C8ECD" d="M-0.001-48.921
							c-0.214-5.807,4.569-143.934,22.828-162.103c49.328-49.156,617.745-368.413,644.048-389.826
							c4.39-3.575,7.012-4.064,7.305-1.212c4.023,38.451,41.32,415.187,46.789,512.443c1.91,37.804,4.686,92.646,6.756,136.955
							c2.363,50.969,3.943,99.658,3.356,110.463c-1.229,22.352-101.407,13.893-101.407,13.893S389.719,99.658,348.748,90.768
							C322.733,85.121,99.299,181.34,74.32,174.307C38.975,164.326,0.292-40.271-0.001-48.921"/>
					</g>
					<g id="g4179" transform="translate(10.3564,524.4233)">
						<path id="path4181" inkscape:connector-curvature="0" fill="#2E8DCC" d="M0-48.848c-0.211-6.055,5.233-142.132,24.234-161.083
							c51.381-51.187,613.721-368.589,641.118-390.901c4.569-3.731,7.284-4.317,7.577-1.523
							c3.945,37.628,40.949,412.371,46.554,510.938c1.932,37.96,4.706,92.369,6.739,136.072c2.32,50.389,3.864,98.727,3.237,109.975
							c-1.267,23.291-99.474,16.436-99.474,16.436S393.018,100.184,350.349,90.9c-27.105-5.879-247.593,87.881-273.624,80.553
							C39.915,161.061,0.309-39.86,0-48.848"/>
					</g>
					<g id="g4183" transform="translate(11.3701,524.4058)">
						<path id="path4185" inkscape:connector-curvature="0" fill="#2F8ACA" d="M-0.001-48.812
							C-0.235-55.1,5.858-189.146,25.622-208.84c53.447-53.239,609.697-368.786,638.19-391.994c4.744-3.869,7.576-4.572,7.849-1.856
							c3.849,36.827,40.578,409.577,46.322,509.454c1.954,38.095,4.726,92.096,6.737,135.195
							c2.287,49.801,3.765,97.768,3.123,109.465c-1.347,24.211-97.541,18.992-97.541,18.992s-233.999-69.727-278.388-79.377
							c-28.18-6.119-245.74,85.158-272.806,77.541C40.835,157.779,0.314-39.454,0.001-48.812"/>
					</g>
					<g id="g4187" transform="translate(12.3701,524.3872)">
						<path id="path4189" inkscape:connector-curvature="0" fill="#2B89CA" d="M0-48.775c-0.217-6.544,6.503-138.517,27.043-158.972
							c55.497-55.291,605.654-368.98,635.244-393.069c4.938-4.025,7.869-4.845,8.143-2.188
							c3.748,36.006,40.205,406.764,46.066,507.949c1.99,38.252,4.744,91.824,6.715,134.318c2.267,49.211,3.67,96.826,3.006,108.955
							c-1.386,25.146-95.608,21.551-95.608,21.551s-231.011-68.592-277.094-78.594c-29.259-6.371-243.906,82.445-272.006,74.514
							C41.748,154.474,0.351-39.042,0-48.775"/>
					</g>
					<g id="g4191" transform="translate(13.3857,524.3638)">
						<path id="path4193" inkscape:connector-curvature="0" fill="#2D88C8" d="M0.001-48.728
							c-0.235-6.78,7.146-136.723,28.433-157.92c57.545-57.341,601.629-369.156,632.309-394.165
							c5.115-4.161,8.143-5.098,8.416-2.499c3.67,35.187,39.837,403.95,45.812,506.444c2.032,38.393,4.783,91.551,6.718,133.44
							c2.227,48.629,3.592,95.867,2.893,108.469c-1.428,26.084-93.68,24.092-93.68,24.092s-228.022-67.445-275.804-77.84
							c-30.35-6.582-242.051,79.754-271.185,71.529C42.667,151.192,0.35-38.646,0.001-48.728"/>
					</g>
					<g id="g4195" transform="translate(14.3975,524.3452)">
						<path id="path4197" inkscape:connector-curvature="0" fill="#2B87C8" d="M-0.001-48.691
							c-0.253-7.015,7.774-134.903,29.841-156.865c59.599-59.393,597.593-369.352,629.362-395.239
							c5.312-4.336,8.414-5.372,8.691-2.833c3.592,34.347,39.462,401.138,45.576,504.939c2.053,38.549,4.784,91.277,6.698,132.559
							c2.185,48.043,3.495,94.914,2.792,107.965c-1.502,27.02-91.74,26.631-91.74,26.631s-225.057-66.293-274.56-77.039
							c-31.422-6.818-240.195,77.039-270.364,68.521C43.569,147.914,0.354-38.24-0.001-48.691"/>
					</g>
					<g id="g4199" transform="translate(15.3936,524.3247)">
						<path id="path4201" inkscape:connector-curvature="0" fill="#2F84C5" d="M0-48.65c-0.252-7.248,8.437-133.088,31.245-155.83
							c61.668-61.423,593.566-369.527,626.436-396.312c5.484-4.474,8.709-5.628,8.963-3.166
							c3.514,33.546,39.096,398.365,45.344,503.473c2.07,38.687,4.803,90.966,6.678,131.642
							c2.166,47.457,3.415,93.992,2.674,107.498c-1.543,27.936-89.788,29.168-89.788,29.168S409.46,102.685,358.259,91.567
							c-32.512-7.072-238.355,74.318-269.563,65.51C44.507,144.608,0.373-37.846,0.004-48.65"/>
					</g>
					<g id="g4203" transform="translate(16.4092,524.2876)">
						<path id="path4205" inkscape:connector-curvature="0" fill="#3583C4" d="M-0.001-48.576
							c-0.271-7.501,9.064-131.309,32.633-154.792c63.719-63.476,589.548-369.723,623.507-397.408c5.661-4.61,8.979-5.9,9.236-3.478
							c3.414,32.727,38.723,395.552,45.109,501.97c2.107,38.822,4.824,90.693,6.655,130.763c2.13,46.869,3.341,93.035,2.559,106.986
							c-1.579,28.877-87.853,31.729-87.853,31.729S412.743,103.21,359.822,91.7c-33.585-7.283-236.482,71.625-268.742,62.52
							C45.423,141.345,0.394-37.421,0.003-48.576"/>
					</g>
					<g id="g4207" transform="translate(17.4072,524.2671)">
						<path id="path4209" inkscape:connector-curvature="0" fill="#3A83C3" d="M-0.001-48.535
							c-0.273-7.754,9.726-129.491,34.055-153.739C99.828-267.8,619.562-572.192,654.61-600.755
							c5.862-4.766,9.278-6.173,9.512-3.809c3.339,31.904,38.352,392.738,44.853,500.464c2.15,38.979,4.864,90.418,6.662,129.883
							c2.107,46.283,3.24,92.08,2.461,106.5c-1.663,29.793-85.922,34.268-85.922,34.268s-216.134-62.85-270.751-74.715
							c-34.685-7.537-234.649,68.912-267.943,59.518C46.358,138.064,0.409-37.008-0.001-48.535"/>
					</g>
					<g id="g4211" transform="translate(18.4219,524.2485)">
						<path id="path4213" inkscape:connector-curvature="0" fill="#3C80C2" d="M-0.001-48.497
							c-0.272-7.989,10.353-127.694,35.444-152.683c67.82-67.579,581.481-370.112,617.624-399.574
							c6.035-4.924,9.553-6.429,9.784-4.124c3.263,31.084,37.983,389.924,44.622,498.963c2.17,39.131,4.861,90.143,6.66,129.004
							c2.049,45.697,3.142,91.141,2.323,105.988c-1.701,30.73-83.987,36.828-83.987,36.828s-213.15-61.697-269.468-73.93
							c-35.774-7.775-232.79,66.193-267.141,56.5C47.257,134.761,0.409-36.62-0.001-48.497"/>
					</g>
					<g id="g4215" transform="translate(19.417,524.228)">
						<path id="path4217" inkscape:connector-curvature="0" fill="#417FC1" d="M-0.001-48.457
							c-0.27-8.227,11.017-125.877,36.854-151.647c69.89-69.612,577.456-370.289,614.692-400.651
							c6.215-5.06,9.844-6.682,10.059-4.453c3.183,30.281,37.612,387.13,44.389,497.477c2.207,39.27,4.885,89.868,6.641,128.12
							c2.027,45.115,3.063,90.186,2.202,105.486c-1.733,31.67-82.052,39.385-82.052,39.385s-210.158-60.566-268.194-73.166
							c-36.852-8.01-230.938,63.496-266.323,53.512C48.197,131.479,0.432-36.208-0.001-48.457"/>
					</g>
					<g id="g4219" transform="translate(20.4346,524.186)">
						<path id="path4221" inkscape:connector-curvature="0" fill="#447EBF" d="M-0.001-48.372
							c-0.294-8.48,11.64-124.103,38.258-150.615c71.938-71.664,573.412-370.483,611.748-401.725
							c6.399-5.217,10.113-6.956,10.349-4.787c3.065,29.462,37.217,384.317,44.134,495.974c2.224,39.426,4.9,89.595,6.616,127.246
							c1.993,44.527,2.969,89.225,2.11,104.996c-1.797,32.584-80.119,41.92-80.119,41.92s-207.191-59.408-266.932-72.381
							c-37.941-8.248-229.1,60.779-265.52,50.502C49.111,128.222,0.448-35.794-0.001-48.377"/>
					</g>
					<g id="g4223" transform="translate(21.4482,524.1704)">
						<path id="path4225" inkscape:connector-curvature="0" fill="#497DBD" d="M0.001-48.341
							c-0.311-8.713,12.265-122.284,39.643-149.557c73.99-73.715,569.37-370.679,608.821-402.818
							c6.578-5.354,10.404-7.209,10.621-5.098c2.99,28.64,36.845,381.503,43.898,494.466c2.244,39.583,4.919,89.326,6.6,126.369
							c1.973,43.936,2.893,88.287,1.991,104.486c-1.854,33.52-78.188,44.484-78.188,44.484s-204.203-58.262-265.639-71.627
							c-39.032-8.457-227.244,58.088-264.721,47.514C50.012,124.911,0.448-35.389,0.001-48.341"/>
					</g>
					<g id="g4227" transform="translate(22.4443,524.1499)">
						<path id="path4229" inkscape:connector-curvature="0" fill="#4C7ABC" d="M0-48.3c-0.313-8.967,12.928-120.487,41.068-148.502
							c76.042-75.767,565.33-370.876,605.87-403.893c6.775-5.53,10.685-7.484,10.896-5.432
							c2.912,27.821,36.479,378.69,43.666,492.964c2.285,39.717,4.938,89.051,6.582,125.486c1.93,43.352,2.791,87.332,1.875,103.998
							c-1.897,34.445-76.237,47.008-76.237,47.008s-201.235-57.104-264.39-70.824c-40.087-8.717-225.391,55.365-263.897,44.504
							C50.948,121.633,0.471-34.977,0-48.3"/>
					</g>
					<g id="g4231" transform="translate(23.4609,524.1313)">
						<path id="path4233" inkscape:connector-curvature="0" fill="#4E79BC" d="M0.001-48.263
							c-0.331-9.2,13.553-118.667,42.451-147.465c78.112-77.799,561.311-371.053,602.943-404.969
							c6.953-5.666,10.975-7.756,11.168-5.763c2.832,27.001,36.108,375.896,43.412,491.479c2.321,39.872,4.961,88.757,6.58,124.591
							c1.916,42.781,2.714,86.41,1.777,103.504c-1.954,35.381-74.322,49.568-74.322,49.568s-198.25-55.955-263.097-70.045
							c-41.186-8.945-223.538,52.652-263.078,41.498C51.868,118.351,0.468-34.584,0.001-48.263"/>
					</g>
					<g id="g4235" transform="translate(24.4541,524.1128)">
						<path id="path4237" inkscape:connector-curvature="0" fill="#5079BB" d="M0-48.226c-0.311-9.433,14.219-116.87,43.861-146.41
							c80.162-79.85,557.282-371.246,600.013-406.063c7.127-5.802,11.246-8.01,11.443-6.075
							c2.754,26.18,35.733,373.082,43.176,489.971c2.344,40.034,4.982,88.487,6.563,123.71c1.873,42.199,2.615,85.461,1.658,103
							c-2.01,36.32-72.369,52.127-72.369,52.127s-195.279-54.822-261.852-69.279c-42.255-9.186-221.68,49.955-262.277,38.508
							C52.785,115.066,0.509-34.176,0-48.226"/>
					</g>
					<g id="g4239" transform="translate(25.4717,524.0942)">
						<path id="path4241" inkscape:connector-curvature="0" fill="#5376BA" d="M0-48.189c-0.332-9.67,14.84-115.052,45.266-145.354
							c82.211-81.9,553.241-371.442,597.063-407.136c7.324-5.959,11.523-8.285,11.717-6.408
							c2.654,25.358,35.365,370.269,42.943,488.469c2.362,40.168,4.997,88.212,6.563,122.832
							c1.832,41.613,2.515,84.502,1.519,102.514c-2.048,37.234-70.436,54.662-70.436,54.662s-192.29-53.672-260.562-68.498
							c-43.349-9.418-219.844,47.24-261.456,35.5C53.704,111.769,0.509-33.766,0-48.189"/>
					</g>
					<g id="g4243" transform="translate(26.4873,524.0542)">
						<path id="path4245" inkscape:connector-curvature="0" fill="#5676BA" d="M0-48.109
							c-0.352-9.923,15.484-113.275,46.652-144.319c84.283-83.952,549.221-371.638,594.131-408.229
							c7.502-6.116,11.818-8.539,12.012-6.723c2.559,24.539,34.976,367.456,42.688,486.966c2.403,40.325,5.021,87.935,6.542,121.951
							c1.797,41.025,2.438,83.561,1.426,102.002c-2.109,38.195-68.504,57.227-68.504,57.227s-189.32-52.52-259.29-67.713
							c-44.444-9.656-217.991,44.523-260.658,32.488C54.62,108.5,0.508-33.357,0-48.109"/>
					</g>
					<g id="g4247" transform="translate(27.4834,524.0317)">
						<path id="path4249" inkscape:connector-curvature="0" fill="#5874B8" d="M0-48.064
							c-0.352-10.181,16.13-111.461,48.077-143.287c86.313-85.984,545.179-371.793,591.187-409.306
							c7.693-6.251,12.086-8.791,12.285-7.034c2.477,23.72,34.599,364.663,42.429,485.462c2.446,40.461,5.038,87.662,6.542,121.071
							c1.759,40.441,2.346,82.604,1.311,101.516c-2.145,39.092-66.57,59.766-66.57,59.766s-186.336-51.387-258.023-66.955
							c-45.519-9.885-216.132,41.828-259.837,29.5C55.536,105.224,0.525-32.943,0-48.064"/>
					</g>
					<g id="g4251" transform="translate(28.501,524.0112)">
						<path id="path4253" inkscape:connector-curvature="0" fill="#5A73B7" d="M-0.001-48.023
							C-0.375-58.437,16.776-157.668,49.46-190.254c88.383-88.057,541.156-371.991,588.257-410.382
							c7.87-6.407,12.383-9.065,12.553-7.384c2.386,22.917,34.237,361.869,42.206,483.976c2.459,40.619,5.053,87.39,6.521,120.189
							c1.737,39.859,2.264,81.652,1.189,101.014c-2.208,40.049-64.616,62.305-64.616,62.305s-183.365-50.215-256.75-66.156
							c-46.613-10.121-214.302,39.117-259.039,26.492C56.45,101.924,0.544-32.533-0.001-48.023"/>
					</g>
					<g id="g4255" transform="translate(29.4951,523.9937)">
						<path id="path4257" inkscape:connector-curvature="0" fill="#5B71B6" d="M0.001-47.988
							C-0.374-58.636,17.418-155.834,50.87-189.163C141.303-279.27,588-561.348,636.199-600.636
							c8.043-6.547,12.652-9.341,12.826-7.699c2.307,22.097,33.863,359.036,41.967,482.471c2.498,40.756,5.076,87.115,6.504,119.313
							c1.696,39.273,2.188,80.707,1.094,100.5c-2.269,40.986-62.703,64.867-62.703,64.867s-180.38-49.082-255.481-65.375
							c-47.688-10.377-212.43,36.377-258.219,23.484C57.393,98.641,0.563-32.144,0.001-47.988"/>
					</g>
					<g id="g4259" transform="translate(30.5107,523.9751)">
						<path id="path4261" inkscape:connector-curvature="0" fill="#5E6FB4" d="M0-47.952C-0.372-58.83,18.043-153.978,52.275-188.07
							c92.482-92.158,533.072-372.379,582.379-412.548c8.24-6.722,12.947-9.612,13.104-8.031
							c2.227,21.277,33.489,356.241,41.73,480.968c2.518,40.912,5.093,86.821,6.482,118.438c1.68,38.682,2.091,79.748,0.977,100.01
							c-2.303,41.908-60.75,67.402-60.75,67.402S458.79,110.243,381.985,93.56c-48.782-10.594-210.589,33.699-257.421,20.492
							C58.29,95.354,0.567-31.733,0-47.952"/>
					</g>
					<g id="g4263" transform="translate(31.5283,523.9351)">
						<path id="path4265" inkscape:connector-curvature="0" fill="#606EB4" d="M0.001-47.871
							c-0.394-11.136,18.687-104.251,53.66-139.104c94.553-94.19,529.044-372.556,579.446-413.624
							c8.418-6.858,13.223-9.866,13.377-8.343c2.148,20.455,33.123,353.43,41.5,479.484c2.536,41.048,5.114,86.531,6.461,117.514
							c1.645,38.115,2.011,78.816,0.858,99.525c-2.36,42.842-58.818,69.961-58.818,69.961s-174.419-46.775-252.94-63.83
							c-49.835-10.838-208.716,30.969-256.599,17.488C59.204,92.072,0.562-31.323-0.002-47.871"/>
					</g>
					<g id="g4267" transform="translate(32.5195,523.9155)">
						<path id="path4269" inkscape:connector-curvature="0" fill="#626DB2" d="M-0.001-47.832
							c-0.388-11.391,19.334-102.434,55.07-138.049c96.604-96.242,525.027-372.751,576.521-414.718
							c8.594-6.995,13.514-10.12,13.65-8.673c2.053,19.633,32.749,350.634,41.242,477.998c2.578,41.186,5.155,86.256,6.482,116.64
							c1.603,37.525,1.896,77.873,0.744,99.031c-2.424,43.762-56.886,72.504-56.886,72.504S465.368,111.26,385.15,93.832
							c-50.926-11.061-206.878,28.291-255.796,14.48C60.147,88.793,0.606-30.912,0.003-47.832"/>
					</g>
					<g id="g4271" transform="translate(33.5371,523.895)">
						<path id="path4273" inkscape:connector-curvature="0" fill="#656BB1" d="M0-47.79
							c-0.411-11.626,19.979-100.637,56.476-136.997c98.654-98.292,520.981-372.946,573.572-415.792
							c8.787-7.148,13.787-10.391,13.924-9.005c1.971,18.813,32.373,347.821,41.008,476.493c2.617,41.344,5.152,85.986,6.46,115.759
							c1.562,36.943,1.821,76.916,0.626,98.525c-2.461,44.705-54.949,75.061-54.949,75.061s-168.467-44.484-250.388-62.285
							c-52.02-11.291-205.043,25.559-254.995,11.471C61.043,85.513,0.604-30.503,0-47.79"/>
					</g>
					<g id="g4275" transform="translate(34.5332,523.8765)">
						<path id="path4277" inkscape:connector-curvature="0" fill="#656AAF" d="M-0.001-47.753
							c-0.408-11.86,20.621-98.82,57.881-135.941C158.606-284.036,574.838-556.835,628.522-600.58
							c8.962-7.305,14.078-10.647,14.219-9.318c1.873,17.994,31.981,345.008,40.75,474.989c2.637,41.499,5.178,85.709,6.445,114.882
							c1.543,36.355,1.735,75.957,0.507,98.016c-2.499,45.639-52.998,77.623-52.998,77.623S471.948,112.258,388.31,94.105
							c-53.096-11.547-203.17,22.836-254.174,8.463C61.979,82.205,0.625-30.109-0.001-47.753"/>
					</g>
					<g id="g4279" transform="translate(35.5479,523.8579)">
						<path id="path4281" inkscape:connector-curvature="0" fill="#6968AD" d="M-0.002-47.716
							c-0.428-12.094,21.268-97.021,59.268-134.885c102.773-102.394,512.94-373.335,567.711-417.979
							c9.159-7.443,14.356-10.901,14.493-9.631c1.797,17.173,31.615,342.195,40.521,473.485
							c2.653,41.634,5.193,85.437,6.424,114.001c1.504,35.77,1.639,75.02,0.41,97.529c-2.576,46.553-51.084,80.137-51.084,80.137
							s-162.511-42.18-247.846-60.717c-54.195-11.762-201.336,20.162-253.375,5.469C62.899,78.923,0.623-29.7-0.002-47.716"/>
					</g>
					<g id="g4283" transform="translate(36.5654,523.8188)">
						<path id="path4285" inkscape:connector-curvature="0" fill="#6A66AD" d="M-0.001-47.638
							c-0.43-12.347,21.89-95.224,60.671-133.869c104.827-104.425,508.898-373.512,564.766-419.034
							c9.333-7.599,14.625-11.174,14.762-9.983c1.719,16.373,31.247,339.401,40.284,472c2.698,41.792,5.216,85.163,6.407,113.118
							c1.485,35.188,1.562,74.067,0.293,97.026c-2.617,47.49-49.133,82.701-49.133,82.701s-159.539-41.033-246.575-59.943
							c-55.283-11.994-199.497,17.426-252.551,2.459C63.793,75.663,0.623-29.27-0.001-47.638"/>
					</g>
					<g id="g4287" transform="translate(37.5596,523.7983)">
						<path id="path4289" inkscape:connector-curvature="0" fill="#6D64AA" d="M-0.001-47.597
							c-0.431-12.582,22.533-93.406,62.077-132.815c106.878-106.477,504.874-373.706,561.837-420.127
							c9.512-7.737,14.918-11.449,15.034-10.297c1.622,15.553,30.893,336.587,40.034,470.496
							c2.734,41.947,5.232,84.89,6.401,112.244c1.45,34.599,1.489,73.128,0.179,96.531c-2.654,48.414-47.199,85.242-47.199,85.242
							s-156.553-39.898-245.307-59.16c-56.361-12.246-197.623,14.711-251.734-0.547C64.734,72.381,0.661-28.881-0.002-47.597"/>
					</g>
					<g id="g4291" transform="translate(38.5732,523.7798)">
						<path id="path4293" inkscape:connector-curvature="0" fill="#6E63A9" d="M0.001-47.559
							c-0.449-12.836,23.181-91.611,63.486-131.757C172.415-287.848,564.314-553.22,622.375-600.521
							c9.705-7.913,15.188-11.722,15.309-10.628c1.542,14.731,30.521,333.774,39.797,468.991
							c2.754,42.085,5.253,84.596,6.385,111.364c1.41,33.991,1.388,72.172,0.076,96.024c-2.709,49.35-45.281,87.801-45.281,87.801
							s-153.568-38.744-244.022-58.396c-57.45-12.461-195.785,12.016-250.931-3.537C65.655,69.075,0.666-28.47,0.001-47.559"/>
					</g>
					<g id="g4295" transform="translate(39.5928,523.7593)">
						<path id="path4297" inkscape:connector-curvature="0" fill="#7160A8" d="M-0.001-47.52
							c-0.47-13.071,23.802-89.813,64.869-130.703c110.995-110.579,496.811-374.098,555.959-422.297
							c9.881-8.049,15.484-11.977,15.582-10.939c1.464,13.91,30.15,330.96,39.564,467.485c2.791,42.239,5.27,84.323,6.383,110.465
							c1.369,33.427,1.287,71.232-0.057,95.533c-2.774,50.289-43.332,90.361-43.332,90.361s-150.6-37.588-242.771-57.615
							c-58.521-12.717-193.913,9.303-250.113-6.545C66.549,65.797,0.661-28.058-0.001-47.52"/>
					</g>
					<g id="g4299" transform="translate(40.5859,523.7388)">
						<path id="path4301" inkscape:connector-curvature="0" fill="#725FA8" d="M0-47.479c-0.47-13.304,24.467-87.995,66.276-129.669
							c113.048-112.611,492.787-374.274,553.028-423.371c10.079-8.187,15.759-12.23,15.858-11.273
							c1.386,13.109,29.781,328.167,39.332,466.001c2.813,42.376,5.289,84.049,6.363,109.584
							c1.346,32.844,1.189,70.297-0.154,95.049c-2.834,51.207-41.422,92.898-41.422,92.898s-147.607-36.459-241.48-56.85
							c-59.599-12.934-192.077,6.602-249.312-9.537C67.489,62.515,0.682-27.666,0-47.479"/>
					</g>
					<g id="g4303" transform="translate(41.6016,523.7007)">
						<path id="path4305" inkscape:connector-curvature="0" fill="#725DA7" d="M-0.002-47.401
							c-0.486-13.561,25.098-86.219,67.681-128.635c115.1-114.664,488.749-374.47,550.083-424.445
							c10.256-8.343,16.053-12.504,16.152-11.606c1.269,12.269,29.387,325.353,39.055,464.498
							c2.85,42.532,5.332,83.778,6.363,108.705c1.311,32.259,1.113,69.341-0.273,94.542c-2.872,52.143-39.465,95.455-39.465,95.455
							s-144.643-35.301-240.211-56.068c-60.69-13.189-190.239,3.889-248.512-12.543C68.405,59.23,0.705-27.242-0.002-47.401"/>
					</g>
					<g id="g4307" transform="translate(42.5986,523.6831)">
						<path id="path4309" inkscape:connector-curvature="0" fill="#745BA4" d="M0-47.368
							c-0.468-13.789,25.755-84.398,69.089-127.575c117.164-116.716,484.7-374.666,547.151-425.541
							c10.426-8.5,16.324-12.757,16.422-11.919c1.191,11.452,29.019,322.541,38.822,462.995
							c2.893,42.688,5.329,83.502,6.344,107.826c1.271,31.671,1.034,68.378-0.388,94.05c-2.931,53.061-37.513,97.998-37.513,97.998
							s-141.676-34.17-238.963-55.289c-61.768-13.42-188.366,1.172-247.692-15.551C69.342,55.945,0.722-26.849,0.002-47.368"/>
					</g>
					<g id="g4311" transform="translate(43.6113,523.6616)">
						<path id="path4313" inkscape:connector-curvature="0" fill="#765AA3" d="M-0.001-47.323
							c-0.486-14.05,26.383-82.583,70.498-126.524C189.693-292.614,551.153-548.688,614.7-600.461
							c10.621-8.654,16.619-13.05,16.695-12.25c1.115,10.628,28.65,319.727,38.588,461.487c2.908,42.825,5.35,83.233,6.326,106.946
							c1.25,31.086,0.936,67.444-0.486,93.543c-2.99,54.023-35.6,100.539-35.6,100.539s-138.689-32.998-237.676-54.51
							c-62.858-13.635-186.53-1.521-246.89-18.537C70.244,52.668,0.725-26.437-0.001-47.323"/>
					</g>
					<g id="g4315" transform="translate(44.6299,523.6421)">
						<path id="path4317" inkscape:connector-curvature="0" fill="#7857A2" d="M-0.001-47.285
							c-0.509-14.283,27.006-80.788,71.881-125.488c121.269-120.799,476.639-375.017,541.274-427.69
							c10.795-8.791,16.891-13.304,16.969-12.581c1.031,9.827,28.275,316.953,38.352,460.006c2.93,42.98,5.371,82.952,6.308,106.066
							c1.21,30.5,0.862,66.485-0.604,93.034c-3.029,54.963-33.668,103.102-33.668,103.102s-135.699-31.85-236.402-53.729
							c-63.931-13.893-184.676-4.244-246.071-21.553C71.16,49.365,0.741-26.027-0.001-47.285"/>
					</g>
					<g id="g4319" transform="translate(45.626,523.6206)">
						<path id="path4321" inkscape:connector-curvature="0" fill="#7955A1" d="M0-47.243c-0.512-14.518,27.667-78.97,73.284-124.435
							C196.625-294.527,545.9-546.889,611.628-600.459c10.975-8.929,17.186-13.56,17.244-12.896
							c0.938,9.007,27.906,314.141,38.113,458.499c2.953,43.139,5.394,82.664,6.293,105.191c1.191,29.908,0.781,65.529-0.723,92.546
							c-3.067,55.877-31.711,105.639-31.711,105.639s-132.734-30.715-235.137-52.945c-65.026-14.125-182.822-6.957-245.272-24.559
							C72.095,46.086,0.759-25.635,0-47.243"/>
					</g>
					<g id="g4323" transform="translate(46.6396,523.5835)">
						<path id="path4325" inkscape:connector-curvature="0" fill="#7B54A0" d="M0-47.167
							c-0.526-14.771,28.294-77.192,74.695-123.398c125.367-124.902,468.568-375.409,535.395-429.857
							c11.168-9.105,17.457-13.833,17.515-13.227c0.86,8.185,27.536,311.326,37.864,456.996c3.01,43.274,5.43,82.385,6.307,104.307
							c1.137,29.327,0.664,64.588-0.838,92.042c-3.143,56.813-29.797,108.197-29.797,108.197s-129.748-29.561-233.85-52.186
							C341.172,81.35,226.307,86.055,162.842,68.16C72.994,42.82,0.761-25.208,0-47.167"/>
					</g>
					<g id="g4327" transform="translate(47.6357,523.5649)">
						<path id="path4329" inkscape:connector-curvature="0" fill="#7D519E" d="M-0.001-47.129
							c-0.529-15.006,28.961-75.375,76.101-122.342c127.44-126.953,464.547-375.604,532.469-430.953
							c11.34-9.243,17.729-14.086,17.787-13.54c0.783,7.366,27.162,308.512,37.629,455.51c3.028,43.413,5.432,82.096,6.287,103.392
							c1.115,28.758,0.585,63.65-0.957,91.574c-3.182,57.732-27.846,110.732-27.846,110.732s-126.775-28.424-232.596-51.398
							c-67.194-14.598-179.108-12.369-243.628-30.561C73.932,39.519,0.778-24.817-0.001-47.129"/>
					</g>
					<g id="g4331" transform="translate(48.6504,523.5454)">
						<path id="path4333" inkscape:connector-curvature="0" fill="#7E509D" d="M-0.001-47.091
							c-0.523-15.26,29.585-73.578,77.487-121.306c129.49-128.985,460.524-375.779,529.538-432.026
							c11.52-9.378,18.023-14.34,18.082-13.852c0.684,6.544,26.773,305.699,37.377,454.005c3.045,43.55,5.446,81.821,6.266,102.512
							c1.076,28.174,0.488,62.712-1.072,91.062c-3.223,58.672-25.915,113.297-25.915,113.297s-123.784-27.273-231.306-50.619
							c-68.288-14.828-177.274-15.084-242.829-33.568C74.83,36.239,0.783-24.408,0.003-47.091"/>
					</g>
					<g id="g4335" transform="translate(49.6484,523.5239)">
						<path id="path4337" inkscape:connector-curvature="0" fill="#7F4D9C" d="M0.002-47.049
							c-0.531-15.49,30.246-71.759,78.905-120.252c131.542-131.035,456.486-375.973,526.589-433.101
							c11.718-9.534,18.3-14.614,18.356-14.203c0.588,5.744,26.403,302.906,37.144,452.521c3.087,43.707,5.466,81.548,6.248,101.635
							c1.056,27.587,0.41,61.755-1.169,90.556c-3.303,59.602-23.982,115.852-23.982,115.852s-120.816-26.123-230.057-49.854
							c-69.345-15.07-175.422-17.781-242.011-36.559C75.766,32.952,0.822-23.997,0.002-47.049"/>
					</g>
					<g id="g4339" transform="translate(50.6631,523.5054)">
						<path id="path4341" inkscape:connector-curvature="0" fill="#804C9B" d="M-0.001-47.012
							c-0.546-15.729,30.875-69.96,80.299-119.195c133.608-133.088,452.459-376.17,523.658-434.196
							c11.893-9.69,18.592-14.868,18.631-14.516c0.51,4.905,26.026,300.092,36.908,451.017c3.105,43.862,5.486,81.272,6.229,100.75
							c1.013,27.002,0.331,60.804-1.292,90.067c-3.339,60.529-22.045,118.379-22.045,118.379s-117.83-24.969-228.77-49.057
							c-70.436-15.301-173.563-20.494-241.206-39.586C76.688,29.654,0.821-23.605-0.001-47.012"/>
					</g>
					<g id="g4343" transform="translate(51.6768,523.4849)">
						<path id="path4345" inkscape:connector-curvature="0" fill="#82499A" d="M0-46.97c-0.565-15.964,31.519-68.144,81.703-118.143
							c135.643-135.139,448.419-376.365,520.712-435.271c12.088-9.846,18.863-15.16,18.9-14.848
							c0.431,4.084,25.662,297.279,36.676,449.514c3.125,43.997,5.506,81.001,6.207,99.873c0.998,26.414,0.234,59.859-1.404,89.559
							c-3.377,61.467-20.096,120.934-20.096,120.934s-114.861-23.814-227.498-48.273c-71.526-15.555-171.728-23.213-240.407-42.596
							C77.583,26.374,0.819-23.195,0-46.973"/>
					</g>
					<g id="g4347" transform="translate(52.6748,523.4468)">
						<path id="path4349" inkscape:connector-curvature="0" fill="#834698" d="M-0.001-46.894
							C-0.567-63.111,32.161-113.26,83.109-164C220.821-301.208,527.486-540.56,600.89-600.364
							c12.266-9.984,19.155-15.415,19.178-15.161c0.349,3.264,25.287,294.466,36.418,448.007c3.184,44.154,5.527,80.71,6.21,98.995
							c0.956,25.83,0.152,58.904-1.503,89.076c-3.438,62.377-18.185,123.471-18.185,123.471s-111.872-22.666-226.229-47.518
							c-72.602-15.764-169.851-25.904-239.585-45.578C78.52,23.105,0.84-22.767-0.001-46.894"/>
					</g>
					<g id="g4351" transform="translate(53.6904,523.4272)">
						<path id="path4353" inkscape:connector-curvature="0" fill="#844597" d="M0-46.855c-0.585-16.468,32.808-64.549,84.497-116.07
							c139.778-139.241,440.351-376.737,514.851-437.438c12.439-10.12,19.427-15.668,19.451-15.493
							c0.254,2.461,24.914,291.67,36.182,446.522c3.202,44.31,5.547,80.436,6.211,98.117c0.92,25.242,0.039,57.946-1.639,88.561
							c-3.496,63.318-16.229,126.037-16.229,126.037S534.418,121.85,418.361,96.648c-73.694-16.023-168.017-28.627-238.786-48.592
							C79.434,19.822,0.857-22.379-0.002-46.855"/>
					</g>
					<g id="g4355" transform="translate(54.6865,523.4087)">
						<path id="path4357" inkscape:connector-curvature="0" fill="#844396" d="M0-46.819c-0.565-16.7,33.45-62.731,85.922-115.014
							c141.808-141.292,436.311-376.933,511.922-438.513c12.615-10.297,19.704-15.943,19.704-15.825
							c0.176,1.642,24.548,288.856,35.952,445.019c3.223,44.447,5.563,80.159,6.187,97.218c0.88,24.676-0.036,57.03-1.757,88.075
							c-3.533,64.258-14.293,128.59-14.293,128.59S537.718,122.354,419.96,96.782c-74.784-16.256-166.179-31.34-237.982-51.602
							C80.355,16.524,0.876-21.964,0-46.819"/>
					</g>
					<g id="g4359" transform="translate(55.7021,523.3872)">
						<path id="path4361" inkscape:connector-curvature="0" fill="#874095" d="M0.001-46.774
							c-0.59-16.938,34.073-60.938,87.307-113.962c143.88-143.346,432.288-377.127,508.974-439.606
							c12.811-10.435,19.995-16.196,20.018-16.138c0.078,0.82,24.154,286.045,35.693,443.514c3.244,44.605,5.588,79.89,6.174,96.338
							c0.859,24.088-0.119,56.074-1.857,87.585c-3.592,65.178-12.359,131.133-12.359,131.133s-102.951-19.24-222.426-45.189
							C345.66,80.411,257.219,62.866,184.362,42.312C81.273,13.239,0.876-21.571,0.001-46.774"/>
					</g>
					<g id="g4363" transform="translate(700.96,335.207)">
						<path id="path4365" inkscape:connector-curvature="0" fill="#873E94" d="M-0.001,329.584c0,0,14.92-148.678,12.401-220.747
							c-2.521-72.095-41.616-537.47-41.616-537.47S-646.742,70.036-644.244,141.423C-641.724,213.513-0.001,329.584-0.001,329.584"
							/>
					</g>
					<g id="g4367" transform="translate(57.9658,523.5835)">
						<path id="path4369" inkscape:connector-curvature="0" fill="#8B3E90" d="M0.001-47.167
							c-2.482-70.841,609.284-564.725,612.49-567.245c0.39-0.312,0.778,1.31,1.054,4.709c4.219,50.249,37.65,460.335,39.994,529.304
							c0.33,9.806,0.368,20.863,0.154,32.605c-0.779,49.858-5.547,112.729-8.844,150.575c-1.818,20.846-3.223,34.424-3.301,34.424
							C639.871,137.164,2.496,24.475,0.001-47.167"/>
					</g>
					<g id="g4371" transform="translate(59.2168,523.7983)">
						<path id="path4373" inkscape:connector-curvature="0" fill="#8D3E8D" d="M-0.001-47.597
							c-2.463-70.297,603.565-559.391,609.953-564.411c0.801-0.645,1.403,0.742,1.678,4.024
							c4.084,48.591,36.463,456.117,38.803,526.53c0.332,9.883,0.369,20.904,0.174,32.468c-0.683,50.23-5.252,112.087-8.435,148.697
							c-1.757,20.146-3.165,33.254-3.358,33.254C635.475,132.906,2.479,23.596-0.001-47.597"/>
					</g>
					<g id="g4375" transform="translate(60.4648,524.0112)">
						<path id="path4377" inkscape:connector-curvature="0" fill="#933D8B" d="M0-48.023
							c-2.441-69.75,597.847-554.041,607.415-561.6c1.213-0.957,2.031,0.196,2.301,3.36c3.93,46.909,35.293,451.897,37.613,523.736
							c0.332,10.002,0.371,20.98,0.196,32.354c-0.585,50.603-4.96,111.457-8.028,146.8c-1.701,19.461-3.121,32.121-3.376,32.121
							C631.102,128.65,2.461,22.719,0-48.023"/>
					</g>
					<g id="g4379" transform="translate(61.7158,524.228)">
						<path id="path4381" inkscape:connector-curvature="0" fill="#953C88" d="M0-48.457
							c-2.419-69.201,592.121-548.703,604.875-558.784c1.619-1.271,2.674-0.352,2.93,2.695
							c3.787,45.25,34.094,447.656,36.418,520.963c0.312,10.08,0.371,21.019,0.215,32.215
							c-0.508,50.993-4.666,110.834-7.637,144.907c-1.637,18.756-3.045,30.969-3.396,30.969C626.707,124.369,2.442,21.836,0-48.458"
							/>
					</g>
					<g id="g4383" transform="translate(62.9658,524.4233)">
						<path id="path4385" inkscape:connector-curvature="0" fill="#9A3B86" d="M0.001-48.848
							c-2.404-68.653,586.382-543.369,602.334-555.972c2.032-1.602,3.3-0.917,3.536,2.015
							c3.652,43.567,32.941,443.436,35.242,518.165c0.315,10.199,0.377,21.082,0.236,32.1
							c-0.407,51.363-4.373,110.208-7.221,143.029c-1.584,18.059-2.986,29.818-3.441,29.818
							C622.33,120.15,2.438,20.979,0.001-48.848"/>
					</g>
					<g id="g4387" transform="translate(64.2139,524.6382)">
						<path id="path4389" inkscape:connector-curvature="0" fill="#9C3C83" d="M-0.001-49.277
							c-2.382-68.106,580.661-538.036,599.797-553.158c2.442-1.914,3.927-1.485,4.163,1.347
							c3.512,41.889,31.754,439.218,34.057,515.391c0.31,10.277,0.371,21.14,0.232,31.967
							c-0.289,51.755-4.063,109.582-6.817,141.134c-1.502,17.371-2.925,28.68-3.454,28.66
							C617.939,115.869,2.424,20.098-0.001-49.277"/>
					</g>
					<g id="g4391" transform="translate(65.4639,524.853)">
						<path id="path4393" inkscape:connector-curvature="0" fill="#9F3C7F" d="M-0.001-49.707
							c-2.362-67.562,574.939-532.703,597.263-550.326c2.827-2.246,4.544-2.049,4.78,0.665
							c3.357,40.227,30.58,434.978,32.867,512.599c0.311,10.373,0.371,21.197,0.256,31.844c-0.2,52.126-3.771,108.958-6.408,139.244
							c-1.443,16.662-2.869,27.527-3.494,27.51C613.568,111.613,2.403,19.223-0.001-49.707"/>
					</g>
					<g id="g4395" transform="translate(66.7158,525.0903)">
						<path id="path4397" inkscape:connector-curvature="0" fill="#A33B7D" d="M0.001-50.181
							c-2.347-66.99,569.213-527.327,594.739-547.489c3.219-2.54,5.174-2.6,5.39,0c3.222,38.545,29.386,430.757,31.672,509.822
							c0.313,10.474,0.371,21.239,0.272,31.712c-0.096,52.496-3.473,108.332-5.99,137.345c-1.39,15.982-2.814,26.393-3.538,26.375
							C609.169,107.331,2.38,18.319,0.001-50.181"/>
					</g>
					<g id="g4399" transform="translate(67.9443,525.2993)">
						<path id="path4401" inkscape:connector-curvature="0" fill="#A63C7B" d="M0.001-50.598
							c-2.308-66.45,563.495-522,592.223-544.664c3.63-2.872,5.798-3.164,5.995-0.662c3.102,36.845,28.234,426.515,30.479,507.009
							c0.313,10.567,0.394,21.294,0.313,31.594c-0.02,52.886-3.185,107.708-5.604,135.468c-1.329,15.277-2.752,25.219-3.553,25.201
							C604.815,103.077,2.383,17.448,0.001-50.598"/>
					</g>
					<g id="g4403" transform="translate(69.2119,525.5005)">
						<path id="path4405" inkscape:connector-curvature="0" fill="#A83B77" d="M0-51.001
							c-2.303-65.917,557.758-516.679,589.666-541.862c4.041-3.184,6.423-3.713,6.619-1.329
							c2.947,35.186,27.045,422.296,29.311,504.217c0.293,10.667,0.389,21.374,0.313,31.476
							c0.076,53.254-2.892,107.061-5.195,133.571c-1.271,14.596-2.693,24.096-3.593,24.072C600.406,98.81,2.344,16.581,0-51.001"/>
					</g>
					<g id="g4407" transform="translate(70.4463,525.7339)">
						<path id="path4409" inkscape:connector-curvature="0" fill="#AB3C75" d="M0-51.468
							c-2.267-65.348,552.049-511.308,587.139-539.011c4.454-3.517,7.051-4.279,7.243-2.012
							c2.814,33.505,25.879,418.057,28.104,501.442c0.313,10.766,0.408,21.414,0.354,31.318c0.171,53.67-2.6,106.459-4.781,131.7
							c-1.214,13.893-2.641,22.936-3.637,22.916C596.044,94.533,2.344,15.682,0-51.468"/>
					</g>
					<g id="g4411" transform="translate(71.7119,525.9478)">
						<path id="path4413" inkscape:connector-curvature="0" fill="#AF3B71" d="M-0.001-51.896
							c-2.264-64.805,546.313-505.974,584.589-536.198c4.844-3.832,7.676-4.827,7.869-2.679
							c2.654,31.847,24.686,413.839,26.909,498.652c0.313,10.858,0.409,21.487,0.353,31.198
							c0.293,54.042-2.268,105.83-4.375,129.804c-1.134,13.209-2.579,21.805-3.653,21.785C591.636,90.276,2.324,14.806-0.001-51.896
							"/>
					</g>
					<g id="g4415" transform="translate(72.9434,526.1626)">
						<path id="path4417" inkscape:connector-curvature="0" fill="#B23B6E" d="M-0.002-52.325
							c-2.227-64.258,540.592-500.623,582.066-533.366c5.258-4.162,8.32-5.394,8.476-3.36c2.54,30.164,23.53,409.617,25.738,495.874
							c0.294,10.96,0.409,21.53,0.371,31.063c0.392,54.411-1.972,105.204-3.965,127.928c-1.093,12.506-2.517,20.631-3.69,20.615
							C587.279,86.013,2.322,13.923-0.002-52.325"/>
					</g>
					<g id="g4419" transform="translate(74.1924,526.3774)">
						<path id="path4421" inkscape:connector-curvature="0" fill="#B63B6C" d="M-0.001-52.754
							c-2.225-63.711,534.871-495.289,579.526-530.553c5.67-4.475,8.948-5.941,9.102-4.025
							c2.385,28.484,22.342,405.396,24.549,493.08c0.293,11.06,0.409,21.59,0.389,30.946c0.493,54.8-1.681,104.585-3.554,126.038
							c-1.034,11.797-2.46,19.496-3.731,19.459C582.906,81.757,2.306,13.044-0.001-52.754"/>
					</g>
					<g id="g4423" transform="translate(75.4434,526.5913)">
						<path id="path4425" inkscape:connector-curvature="0" fill="#B83C69" d="M-0.002-53.184
							c-2.205-63.165,529.148-489.935,576.988-527.72c6.074-4.807,9.57-6.506,9.729-4.709
							c2.244,26.827,21.166,401.158,23.354,490.309c0.295,11.134,0.409,21.644,0.409,30.809
							c0.567,55.169-1.386,103.958-3.163,124.138c-0.957,11.115-2.401,18.344-3.748,18.326
							C578.514,77.482,2.287,12.168,0.001-53.184"/>
					</g>
					<g id="g4427" transform="translate(76.6914,526.8071)">
						<path id="path4429" inkscape:connector-curvature="0" fill="#BC3B67" d="M0.001-53.615
							c-2.188-62.596,523.403-484.603,574.447-524.908c6.483-5.117,10.195-7.053,10.354-5.373
							c2.088,25.146,19.976,396.938,22.162,487.514c0.293,11.253,0.41,21.705,0.43,30.695c0.666,55.566-1.09,103.332-2.752,122.262
							c-0.9,10.41-2.346,17.189-3.789,17.15C574.139,73.224,2.268,11.29,0.001-53.615"/>
					</g>
					<g id="g4431" transform="translate(77.9424,527.022)">
						<path id="path4433" inkscape:connector-curvature="0" fill="#BE3C63" d="M-0.001-54.044
							c-2.165-62.05,517.685-479.268,571.913-522.094c6.895-5.411,10.84-7.599,10.955-6.018
							c1.972,23.446,18.826,392.7,20.992,484.722c0.293,11.33,0.41,21.744,0.449,30.556c0.764,55.933-0.801,102.688-2.342,120.366
							c-0.859,9.73-2.283,16.041-3.828,16.02C569.744,68.962,2.268,10.409-0.001-54.044"/>
					</g>
					<g id="g4435" transform="translate(79.1924,527.2358)">
						<path id="path4437" inkscape:connector-curvature="0" fill="#C13A60" d="M-0.001-54.472
							c-2.147-61.504,511.963-473.916,569.39-519.262c7.266-5.744,11.446-8.186,11.563-6.701
							c1.817,21.784,17.633,388.459,19.801,481.926c0.275,11.446,0.41,21.823,0.449,30.439
							c0.877,56.324-0.486,102.058-1.914,118.476c-0.799,9.023-2.244,14.904-3.867,14.867C565.351,64.701,2.247,9.527-0.001-54.472"
							/>
					</g>
					<g id="g4439" transform="translate(80.4443,527.4526)">
						<path id="path4441" inkscape:connector-curvature="0" fill="#C6395D" d="M0-54.906
							c-2.131-60.955,506.235-468.582,566.854-516.447c7.671-6.056,12.066-8.732,12.182-7.364
							c1.683,20.104,16.464,384.237,18.612,479.13c0.275,11.545,0.428,21.883,0.467,30.323
							c0.977,56.695-0.193,101.435-1.521,116.576c-0.723,8.344-2.168,13.754-3.888,13.732C560.972,60.443,2.223,8.647,0-54.904"/>
					</g>
					<g id="g4443" transform="translate(81.6924,527.6646)">
						<path id="path4445" inkscape:connector-curvature="0" fill="#CA395C" d="M-0.001-55.33
							c-2.108-60.412,500.519-463.249,564.314-513.616c8.086-6.389,12.697-9.3,12.813-8.05
							c1.541,18.425,15.271,380.018,17.418,476.356c0.273,11.625,0.43,21.923,0.486,30.186c1.075,57.07,0.1,100.812-1.112,114.705
							c-0.664,7.635-2.11,12.602-3.927,12.561C556.603,56.171,2.208,7.778-0.001-55.33"/>
					</g>
					<g id="g4447" transform="translate(82.9443,527.8628)">
						<path id="path4449" inkscape:connector-curvature="0" fill="#CD3A58" d="M0-55.726
							c-2.093-59.881,494.773-457.913,561.773-510.82c8.495-6.7,13.34-9.847,13.418-8.712
							c1.406,16.763,14.119,375.779,16.246,473.562c0.275,11.742,0.432,21.998,0.51,30.047c1.15,57.481,0.388,100.208-0.726,112.827
							c-0.604,6.957-2.048,11.449-3.942,11.43C552.209,51.924,2.184,6.893,0-55.726"/>
					</g>
					<g id="g4451" transform="translate(84.1934,528.0747)">
						<path id="path4453" inkscape:connector-curvature="0" fill="#D03A55" d="M0.001-56.149
							c-2.072-59.339,489.05-452.583,559.235-507.991c8.904-7.034,13.961-10.413,14.041-9.398
							c1.267,15.084,12.928,371.559,15.055,470.79c0.256,11.819,0.432,22.037,0.527,29.91c1.25,57.849,0.684,99.58-0.311,110.933
							c-0.547,6.256-1.994,10.314-3.987,10.275C547.832,47.667,2.166,6.036,0.001-56.149"/>
					</g>
					<g id="g4455" transform="translate(85.4404,528.2954)">
						<path id="path4457" inkscape:connector-curvature="0" fill="#D23952" d="M0-56.59
							c-2.05-58.786,483.336-447.224,556.701-505.17c9.297-7.347,14.588-10.961,14.664-10.062
							c1.113,13.421,11.756,367.338,13.865,467.994c0.252,11.937,0.43,22.098,0.527,29.796c1.367,58.243,0.998,98.952,0.116,109.034
							c-0.486,5.572-1.95,9.166-4.001,9.129C543.443,43.401,2.17,5.149,0-56.587"/>
					</g>
					<g id="g4459" transform="translate(86.6924,528.5249)">
						<path id="path4461" inkscape:connector-curvature="0" fill="#D6384F" d="M-0.001-57.05
							c-2.03-58.221,477.612-441.875,554.161-502.323c9.703-7.678,15.211-11.527,15.273-10.745
							c0.992,11.741,10.582,363.118,12.689,465.22c0.256,12.017,0.432,22.154,0.549,29.66c1.464,58.606,1.289,98.329,0.508,107.157
							c-0.413,4.867-1.875,8.008-4.023,7.977C539.064,39.113,2.145,4.256-0.001-57.05"/>
					</g>
					<g id="g4463" transform="translate(87.9385,528.7407)">
						<path id="path4465" inkscape:connector-curvature="0" fill="#DB394A" d="M0-57.481
							c-2.01-57.676,471.874-436.542,551.622-499.509c10.117-7.972,15.838-12.075,15.896-11.391
							c0.861,10.042,9.414,358.859,11.5,462.406c0.257,12.114,0.429,22.215,0.568,29.543c1.562,58.979,1.584,97.685,0.918,105.265
							c-0.371,4.16-1.816,6.859-4.061,6.818C534.674,34.851,2.127,3.354,0-57.481"/>
					</g>
					<g id="g4467" transform="translate(89.1924,528.9565)">
						<path id="path4469" inkscape:connector-curvature="0" fill="#DB3648" d="M0-57.913
							C-1.993-115.021,466.146-489.1,549.101-554.587c10.505-8.304,16.445-12.643,16.502-12.075
							c0.705,8.382,8.223,354.641,10.311,459.634c0.252,12.21,0.432,22.253,0.588,29.403c1.658,59.372,1.872,97.057,1.326,103.375
							c-0.313,3.471-1.76,5.719-4.1,5.662C530.298,30.588,2.107,2.473,0-57.913"/>
					</g>
					<g id="g4471" transform="translate(90.4404,529.1714)">
						<path id="path4473" inkscape:connector-curvature="0" fill="#DF3844" d="M-0.001-58.344
							c-1.973-56.559,460.433-425.852,546.565-493.86c10.918-8.616,17.088-13.187,17.127-12.738
							c0.568,6.701,7.049,350.419,9.119,456.837c0.233,12.31,0.451,22.331,0.604,29.29c1.739,59.743,2.171,96.432,1.722,101.493
							c-0.237,2.771-1.699,4.551-4.119,4.512C525.904,26.33,2.09,1.592-0.001-58.344"/>
					</g>
					<g id="g4475" transform="translate(91.6895,529.3862)">
						<path id="path4477" inkscape:connector-curvature="0" fill="#E33841" d="M-0.002-58.773
							c-1.951-56.016,454.707-420.499,544.024-491.03c11.33-8.947,17.716-13.754,17.755-13.421
							c0.408,5.02,5.857,346.18,7.93,454.065c0.232,12.387,0.447,22.367,0.625,29.152c1.833,60.134,2.46,95.81,2.125,99.601
							c-0.172,2.088-1.639,3.418-4.158,3.359C521.532,22.072,2.071,0.721,0.001-58.773"/>
					</g>
					<g id="g4479" transform="translate(92.9404,529.6011)">
						<path id="path4481" inkscape:connector-curvature="0" fill="#E6373F" d="M0.001-59.203
							c-1.932-55.463,448.962-415.165,541.488-488.215c11.716-9.262,18.333-14.302,18.351-14.087
							c0.299,3.36,4.707,341.959,6.762,451.27c0.232,12.505,0.447,22.429,0.626,29.035c1.952,60.502,2.768,95.184,2.559,97.704
							c-0.12,1.387-1.601,2.268-4.2,2.227C517.136,17.793,2.068-0.158,0.001-59.203"/>
					</g>
					<g id="g4483" transform="translate(94.1904,529.7974)">
						<path id="path4485" inkscape:connector-curvature="0" fill="#E9383D" d="M0-59.595
							c-1.912-54.939,443.242-409.851,538.949-485.4c12.127-9.593,18.96-14.889,18.98-14.771
							c0.134,1.68,3.516,337.739,5.563,448.476c0.236,12.603,0.453,22.508,0.646,28.917c2.048,60.898,3.068,94.56,2.951,95.808
							c-0.061,0.705-1.525,1.139-4.219,1.074C512.765,13.55,2.049-1.021,0-59.595"/>
					</g>
					<g id="g4487" transform="translate(659.8535,459.6191)">
						<path id="path4489" inkscape:connector-curvature="0" fill="#ED393B" d="M-0.002,80.761c0,0-1.21-32.666-3.356-93.934
							c-2.147-61.271-5.039-474.481-5.039-474.481S-566.563-50.92-564.413,10.369C-562.267,71.64-0.002,80.761-0.002,80.761"/>
					</g>
					<g id="g4491" transform="translate(96.2979,530.0894)">
						<path id="path4493" inkscape:connector-curvature="0" fill="#EF403A" d="M-0.002-60.179
							c-2.126-60.994,555.604-496.852,555.604-496.852s3.695,412.274,5.844,473.663c0.993,28.308,1.735,48.527,2.283,63.651
							c0.666,18.523,0.92,28.09,0.706,28.115C561.993,8.551,2.108,0.658-0.002-60.179"/>
					</g>
					<g id="g4495" transform="translate(97.1377,530.1685)">
						<path id="path4497" inkscape:connector-curvature="0" fill="#F0493A" d="M0-60.337
							c-2.108-60.681,555.218-495.698,555.218-495.698s4.49,411.377,6.639,472.86c1.015,29.11,1.737,47.804,2.269,62.402
							c0.641,17.895,0.776,27.172,0.367,27.197C559.591,6.735,2.11,0.071,0-60.337"/>
					</g>
					<g id="g4499" transform="translate(97.998,530.2466)">
						<path id="path4501" inkscape:connector-curvature="0" fill="#F05038" d="M0-60.494
							c-2.111-60.388,554.805-494.525,554.805-494.525s5.293,410.438,7.44,472.04c1.037,29.891,1.756,47.065,2.266,61.174
							c0.604,17.266,0.604,26.234,0,26.275C557.168,4.938,2.091-0.513,0.002-60.494"/>
					</g>
					<g id="g4503" transform="translate(98.8564,530.3228)">
						<path id="path4505" inkscape:connector-curvature="0" fill="#F15739" d="M-0.001-60.646
							C-2.108-120.743,554.395-554.02,554.395-554.02s6.075,409.539,8.222,471.219c1.076,30.712,1.777,46.343,2.266,59.943
							c0.603,16.66,0.469,25.316-0.354,25.375C554.746,3.122,2.07-1.079-0.001-60.646"/>
					</g>
					<g id="g4507" transform="translate(99.6982,530.4028)">
						<path id="path4509" inkscape:connector-curvature="0" fill="#F15D39" d="M0-60.806c-2.089-59.784,554.02-492.2,554.02-492.2
							s6.859,408.62,9.009,470.417c1.112,31.475,1.776,45.579,2.241,58.691c0.586,16.039,0.333,24.383-0.702,24.438
							C552.343,1.319,2.069-1.663,0-60.806"/>
					</g>
					<g id="g4511" transform="translate(100.5557,530.479)">
						<path id="path4513" inkscape:connector-curvature="0" fill="#F06339" d="M-0.001-60.958
							c-2.089-59.493,553.613-491.049,553.613-491.049s7.656,407.703,9.807,469.597c1.131,32.294,1.774,44.876,2.244,57.457
							c0.547,15.438,0.178,23.465-1.055,23.539C549.945-0.489,2.05-2.251-0.001-60.958"/>
					</g>
					<g id="g4515" transform="translate(101.3955,530.5601)">
						<path id="path4517" inkscape:connector-curvature="0" fill="#F26A38" d="M0-61.121
							c-2.052-59.195,553.224-489.874,553.224-489.874s8.436,406.784,10.602,468.776c1.152,33.076,1.799,44.137,2.229,56.207
							c0.524,14.813,0.037,22.547-1.407,22.627C547.518-2.291,2.051-2.818,0-61.121"/>
					</g>
					<g id="g4519" transform="translate(102.2549,530.6147)">
						<path id="path4521" inkscape:connector-curvature="0" fill="#F36F38" d="M-0.001-61.229
							c-2.048-58.908,552.813-488.746,552.813-488.746s9.24,405.865,11.407,467.974c1.19,33.879,1.795,43.393,2.202,54.976
							c0.512,14.188-0.098,21.609-1.756,21.709C545.121-4.088,2.032-3.385-0.001-61.229"/>
					</g>
					<g id="g4523" transform="translate(103.1152,530.6938)">
						<path id="path4525" inkscape:connector-curvature="0" fill="#F47539" d="M0-61.388
							C-2.051-120.001,552.424-548.96,552.424-548.96s10.014,404.948,12.182,467.155c1.211,34.659,1.799,42.65,2.209,53.729
							c0.486,13.574-0.255,20.67-2.109,20.789C542.677-5.882,1.99-3.972,0-61.388"/>
					</g>
					<g id="g4527" transform="translate(103.9531,530.7739)">
						<path id="path4529" inkscape:connector-curvature="0" fill="#F47C38" d="M-0.001-61.548
							c-2.03-58.318,552.035-486.417,552.035-486.417s10.797,404.049,12.984,466.354c1.232,35.459,1.797,41.927,2.188,52.496
							c0.469,12.957-0.41,19.73-2.459,19.867C540.295-7.704,1.993-4.538-0.001-61.548"/>
					</g>
					<g id="g4531" transform="translate(104.8135,530.853)">
						<path id="path4533" inkscape:connector-curvature="0" fill="#F48036" d="M-0.001-61.707
							c-2.032-58.005,551.623-485.245,551.623-485.245s11.599,403.113,13.787,465.533c1.266,36.243,1.815,41.188,2.165,51.246
							c0.45,12.349-0.551,18.814-2.808,18.968C537.875-9.52,1.97-5.127-0.001-61.707"/>
					</g>
					<g id="g4535" transform="translate(105.6729,530.9312)">
						<path id="path4537" inkscape:connector-curvature="0" fill="#F68634" d="M0-61.864
							c-2.033-57.711,551.21-484.091,551.21-484.091s12.4,402.213,14.586,464.731c1.29,37.044,1.82,40.442,2.152,50.016
							c0.428,11.721-0.686,17.877-3.165,18.034C535.451-11.322,1.954-5.709,0-61.864"/>
					</g>
					<g id="g4539" transform="translate(106.5127,531.0083)">
						<path id="path4541" inkscape:connector-curvature="0" fill="#F68B37" d="M0-62.016
							c-2.013-57.417,550.817-482.922,550.817-482.922s13.186,401.296,15.369,463.912c1.33,37.824,1.837,39.7,2.168,48.766
							c0.393,11.121-0.838,16.957-3.517,17.134C533.048-13.136,1.95-6.296,0-62.016"/>
					</g>
					<g id="g4543" transform="translate(107.3721,531.0659)">
						<path id="path4545" inkscape:connector-curvature="0" fill="#F78F37" d="M-0.001-62.131
							C-1.994-119.262,550.412-543.92,550.412-543.92s13.982,400.375,16.168,463.109c1.348,38.626,1.832,38.958,2.148,47.517
							c0.368,10.511-0.975,16.039-3.866,16.212C530.63-14.91,1.931-6.842-0.001-62.131"/>
					</g>
					<g id="g4547" transform="translate(108.2119,531.144)">
						<path id="path4549" inkscape:connector-curvature="0" fill="#F89737" d="M0-62.289
							c-1.976-56.833,550.041-480.615,550.041-480.615s14.763,399.458,16.949,462.287c1.387,39.409,1.836,38.235,2.131,46.287
							c0.367,9.863-1.113,15.103-4.221,15.294C528.228-16.728,1.931-7.428,0-62.289"/>
					</g>
					<g id="g4551" transform="translate(109.0713,531.2212)">
						<path id="path4553" inkscape:connector-curvature="0" fill="#F99C37" d="M0-62.443
							c-1.976-56.542,549.632-479.463,549.632-479.463S565.175-143.35,567.38-80.417c1.406,40.206,1.857,37.491,2.127,45.033
							c0.333,9.262-1.285,14.186-4.568,14.379C525.804-18.524,1.893-8.019,0-62.443"/>
					</g>
					<g id="g4555" transform="translate(109.9287,531.2993)">
						<path id="path4557" inkscape:connector-curvature="0" fill="#F9A237" d="M0-62.6
							c-1.971-56.23,549.219-478.291,549.219-478.291s16.347,397.621,18.552,460.669c1.43,40.989,1.857,36.749,2.111,43.8
							c0.309,8.635-1.426,13.245-4.92,13.461C523.384-20.339,1.876-8.599,0-62.6"/>
					</g>
					<g id="g4559" transform="translate(110.7686,531.3794)">
						<path id="path4561" inkscape:connector-curvature="0" fill="#FAA637" d="M-0.001-62.759
							c-1.932-55.935,548.832-477.137,548.832-477.137s17.143,396.722,19.35,459.867c1.445,41.791,1.855,36.007,2.092,42.551
							c0.291,8.029-1.563,12.31-5.271,12.544C520.982-22.144,1.874-9.173-0.001-62.759"/>
					</g>
					<g id="g4563" transform="translate(111.6299,531.4565)">
						<path id="path4565" inkscape:connector-curvature="0" fill="#FBAC31" d="M0-62.914
							c-1.937-55.644,548.419-475.966,548.419-475.966s17.942,395.784,20.152,459.048c1.482,42.571,1.855,35.263,2.087,41.318
							c0.255,7.407-1.718,11.369-5.624,11.623C518.56-23.955,1.854-9.754,0-62.914"/>
					</g>
					<g id="g4567" transform="translate(112.4902,531.5356)">
						<path id="path4569" inkscape:connector-curvature="0" fill="#FAB131" d="M-0.001-63.071
							C-1.936-118.4,548.026-537.884,548.026-537.884s18.707,394.885,20.934,458.246c1.508,43.351,1.875,34.521,2.07,40.069
							c0.234,6.804-1.854,10.453-5.975,10.728C516.139-25.755,1.83-10.341-0.001-63.071"/>
					</g>
					<g id="g4571" transform="translate(113.3291,531.5923)">
						<path id="path4573" inkscape:connector-curvature="0" fill="#FBB62E" d="M0-63.185
							c-1.918-55.057,547.634-473.661,547.634-473.661s19.508,393.966,21.717,457.425c1.543,44.152,1.895,33.797,2.072,38.821
							c0.232,6.191-1.994,9.53-6.33,9.803C513.736-27.55,1.831-10.886,0-63.185"/>
					</g>
					<g id="g4575" transform="translate(114.1865,531.6724)">
						<path id="path4577" inkscape:connector-curvature="0" fill="#FBBB30" d="M0.001-63.345
							C-1.914-118.107,547.23-535.853,547.23-535.853s20.307,393.05,22.516,456.606c1.58,44.954,1.893,33.076,2.051,37.608
							c0.217,5.548-2.129,8.599-6.682,8.891C511.318-29.37,1.819-11.474,0.002-63.345"/>
					</g>
					<g id="g4579" transform="translate(115.0439,531.7505)">
						<path id="path4581" inkscape:connector-curvature="0" fill="#FCC231" d="M0.001-63.502
							c-1.914-54.45,546.821-471.333,546.821-471.333s21.089,392.131,23.313,455.805c1.605,45.732,1.896,32.312,2.05,36.355
							c0.183,4.923-2.3,7.658-7.026,7.951C508.898-31.167,1.797-12.062,0.001-63.502"/>
					</g>
					<g id="g4583" transform="translate(115.8877,531.8286)">
						<path id="path4585" inkscape:connector-curvature="0" fill="#FFC931" d="M0-63.657
							c-1.898-54.159,546.427-470.185,546.427-470.185s21.888,391.235,24.113,454.985c1.621,46.537,1.914,31.591,2.033,35.126
							c0.156,4.315-2.439,6.74-7.383,7.054C506.492-32.984,1.794-12.626,0-63.657"/>
					</g>
					<g id="g4587" transform="translate(116.7441,531.9058)">
						<path id="path4589" inkscape:connector-curvature="0" fill="#FED02F" d="M-0.001-63.812
							c-1.873-53.864,546.038-469.011,546.038-469.011s22.671,390.294,24.899,454.161c1.641,47.34,1.912,30.87,2.031,33.879
							c0.117,3.712-2.6,5.822-7.755,6.135C504.094-34.78,1.755-13.211-0.001-63.812"/>
					</g>
					<g id="g4591" transform="translate(117.583,531.9849)">
						<path id="path4593" inkscape:connector-curvature="0" fill="#FDD32E" d="M-0.001-63.97
							c-1.854-53.552,545.646-467.858,545.646-467.858s23.456,389.396,25.704,453.362c1.678,48.12,1.912,30.125,2.008,32.648
							c0.098,3.087-2.736,4.865-8.087,5.216C501.689-36.6,1.757-13.796-0.001-63.97"/>
					</g>
					<g id="g4595" transform="translate(118.4424,532.0601)">
						<path id="path4597" inkscape:connector-curvature="0" fill="#FCD927" d="M-0.001-64.122
							c-1.853-53.26,545.236-466.688,545.236-466.688S569.492-142.35,571.736-78.27c1.701,48.92,1.916,29.386,1.992,31.4
							c0.097,2.482-2.873,3.942-8.437,4.296C499.271-38.392,1.739-14.361-0.001-64.122"/>
					</g>
					<g id="g4599" transform="translate(119.3027,532.1216)">
						<path id="path4601" inkscape:connector-curvature="0" fill="#FBDF23" d="M-0.001-64.244
							c-1.853-52.983,544.828-465.553,544.828-465.553s25.055,387.561,27.301,451.74c1.719,49.704,1.932,28.642,1.972,30.167
							c0.077,1.836-3.009,3.005-8.788,3.378C496.846-40.194,1.719-14.935-0.001-64.244"/>
					</g>
					<g id="g4603" transform="translate(120.1416,532.1987)">
						<path id="path4605" inkscape:connector-curvature="0" fill="#FBE520" d="M-0.001-64.398
							c-1.832-52.674,544.437-464.381,544.437-464.381s25.835,386.642,28.082,450.917c1.779,50.506,1.953,27.92,1.992,28.918
							c0.041,1.228-3.184,2.089-9.158,2.462C494.443-41.991,1.721-15.516-0.001-64.398"/>
					</g>
					<g id="g4607" transform="translate(121.001,532.2769)">
						<path id="path4609" inkscape:connector-curvature="0" fill="#FAEA23" d="M-0.001-64.554
							c-1.833-52.382,544.045-463.229,544.045-463.229s26.62,385.724,28.866,450.118c1.797,51.284,1.951,27.177,1.971,27.684
							c0.019,0.605-3.316,1.156-9.486,1.546C492.025-43.807,1.7-16.1,0.001-64.554"/>
					</g>
					<g id="g4611" transform="translate(697.1133,518.6792)">
						<path id="path4613" inkscape:connector-curvature="0" fill="#F8ED3B" d="M-0.001-37.358c0,0-0.138,25.649-1.954-26.436
							c-2.243-64.492-29.661-449.297-29.661-449.297S-577.073-103.123-575.25-51.038C-573.437,1.053-0.001-37.358-0.001-37.358"/>
					</g>
					<g id="g4615" transform="translate(122.5264,532.4731)">
						<path id="path4617" inkscape:connector-curvature="0" fill="#F8ED3B" d="M-0.001-64.947
							c-1.799-51.733,540.587-458.792,542.541-460.18c0.154-0.116,0.233,0,0.272,0.333c0.393,5.433,3.907,57.029,8.36,121.795
							c7.204,104.251,17.436,251.991,20.345,308.628c0.331,6.583,0.587,12.036,0.705,16.14c1.7,50.41,1.718,25.596,1.561,25.612
							C571.306-52.424,1.777-14.13-0.001-64.947"/>
					</g>
					<g id="g4619" transform="translate(123.208,532.5903)">
						<path id="path4621" inkscape:connector-curvature="0" fill="#F8ED3F" d="M-0.001-65.18
							c-1.794-51.383,537.526-455.53,541.451-458.324c0.292-0.196,0.468-0.137,0.487,0.176c0.369,5.255,3.826,58.142,8.201,122.323
							c7.011,102.256,17.518,251.658,20.326,306.42c0.334,6.37,0.551,11.625,0.646,15.61c1.602,48.727,1.502,24.736,1.172,24.773
							C567.324-53.809,1.717-15.632-0.001-65.18"/>
					</g>
					<g id="g4623" transform="translate(123.8721,532.687)">
						<path id="path4625" inkscape:connector-curvature="0" fill="#F7ED4A" d="M0-65.375
							c-1.776-51.051,534.479-452.286,540.374-456.467c0.428-0.313,0.682-0.313,0.703,0c0.354,5.079,3.767,59.254,8.025,122.849
							c6.838,100.247,17.615,251.328,20.35,304.198c0.312,6.152,0.508,11.229,0.564,15.081c1.484,47.043,1.289,23.911,0.803,23.951
							C563.356-55.175,1.68-17.098,0-65.375"/>
					</g>
					<g id="g4627" transform="translate(124.5381,532.8052)">
						<path id="path4629" inkscape:connector-curvature="0" fill="#F8EE52" d="M-0.001-65.611
							C-1.758-116.309,531.41-514.635,539.3-520.204c0.586-0.411,0.896-0.469,0.918-0.176c0.35,4.886,3.688,60.371,7.867,123.378
							c6.641,98.252,17.712,250.997,20.326,301.988c0.315,5.938,0.49,10.822,0.529,14.537c1.371,45.383,1.057,23.072,0.41,23.109
							C559.394-56.586,1.64-18.604-0.001-65.611"/>
					</g>
					<g id="g4631" transform="translate(125.2217,532.9224)">
						<path id="path4633" inkscape:connector-curvature="0" fill="#F8EE59" d="M-0.001-65.845
							c-1.758-50.347,528.362-445.761,538.206-452.736c0.721-0.488,1.111-0.625,1.133-0.333c0.332,4.71,3.631,61.486,7.713,123.887
							c6.444,96.26,17.791,250.703,20.33,299.798c0.291,5.705,0.446,10.416,0.446,13.987c1.272,43.707,0.821,22.235,0.024,22.294
							C555.429-57.971,1.604-20.11-0.001-65.845"/>
					</g>
					<g id="g4635" transform="translate(125.8848,533.0405)">
						<path id="path4637" inkscape:connector-curvature="0" fill="#F8EF62" d="M-0.001-66.082
							c-1.738-49.995,525.3-442.498,537.134-450.859c0.857-0.604,1.323-0.782,1.346-0.507c0.332,4.531,3.572,62.597,7.557,124.41
							c6.248,94.268,17.887,250.372,20.308,297.574c0.278,5.487,0.41,10.022,0.39,13.459c1.153,42.025,0.608,21.396-0.351,21.472
							C551.465-59.36,1.56-21.596-0.001-66.082"/>
					</g>
					<g id="g4639" transform="translate(126.5479,533.1372)">
						<path id="path4641" inkscape:connector-curvature="0" fill="#F8EF6A" d="M-0.001-66.275
							C-1.721-115.92,522.25-505.531,536.058-515.28c0.998-0.703,1.543-0.958,1.563-0.683c0.311,4.337,3.496,63.71,7.381,124.941
							c6.074,92.254,17.986,250.039,20.31,295.365c0.271,5.251,0.392,9.63,0.351,12.913c1.035,40.364,0.371,20.555-0.742,20.651
							C547.501-60.729,1.52-23.081-0.001-66.275"/>
					</g>
					<g id="g4643" transform="translate(127.2314,533.2524)">
						<path id="path4645" inkscape:connector-curvature="0" fill="#F9F072" d="M-0.001-66.505
							c-1.718-49.293,519.188-435.994,534.968-447.13c1.15-0.822,1.777-1.114,1.777-0.86c0.312,4.161,3.434,64.824,7.223,125.468
							c5.879,90.263,18.063,249.705,20.311,293.135c0.252,5.061,0.354,9.241,0.271,12.408c0.938,38.666,0.155,19.714-1.131,19.811
							C543.517-62.112,1.464-24.581-0.001-66.505"/>
					</g>
					<g id="g4647" transform="translate(127.8955,533.3716)">
						<path id="path4649" inkscape:connector-curvature="0" fill="#F9F07A" d="M-0.001-66.743
							c-1.698-48.94,516.143-432.731,533.889-445.274c1.292-0.897,1.993-1.27,2.013-1.016c0.275,3.986,3.34,65.939,7.051,125.996
							c5.684,88.249,18.159,249.372,20.289,290.928c0.256,4.828,0.332,8.832,0.212,11.859c0.823,37-0.054,18.874-1.499,18.989
							C539.574-63.501,1.423-26.069-0.001-66.743"/>
					</g>
					<g id="g4651" transform="translate(128.5791,533.4897)">
						<path id="path4653" inkscape:connector-curvature="0" fill="#F9F180" d="M0-66.98
							c-1.698-48.588,513.073-429.466,532.8-443.396c1.422-1.015,2.205-1.426,2.223-1.192c0.273,3.792,3.281,67.053,6.877,126.524
							c5.523,86.256,18.256,249.059,20.304,288.7c0.237,4.614,0.295,8.441,0.157,11.332c0.705,35.322-0.313,18.032-1.912,18.151
							C535.592-64.889,1.367-27.572,0-66.98"/>
					</g>
					<g id="g4655" transform="translate(129.2412,533.605)">
						<path id="path4657" inkscape:connector-curvature="0" fill="#FAF287" d="M0-67.21
							c-1.679-48.238,510.027-426.208,531.707-441.522c1.577-1.114,2.438-1.603,2.457-1.368c0.256,3.616,3.203,68.167,6.719,127.052
							c5.332,84.263,18.361,248.729,20.288,286.493c0.235,4.395,0.255,8.03,0.098,10.787c0.61,33.642-0.524,17.19-2.285,17.326
							C531.628-66.293,1.33-29.078,0-67.21"/>
					</g>
					<g id="g4659" transform="translate(129.9082,533.7222)">
						<path id="path4661" inkscape:connector-curvature="0" fill="#FAF28F" d="M-0.001-67.445
							c-1.661-47.887,506.98-422.943,530.629-439.647c1.738-1.231,2.654-1.758,2.676-1.544c0.254,3.438,3.143,69.279,6.563,127.578
							c5.134,82.252,18.433,248.396,20.285,284.266c0.219,4.182,0.219,7.639,0.043,10.259c0.469,31.979-0.765,16.352-2.697,16.508
							C527.678-67.68,1.287-30.58-0.001-67.445"/>
					</g>
					<g id="g4663" transform="translate(130.5908,533.8208)">
						<path id="path4665" inkscape:connector-curvature="0" fill="#FAF392" d="M0-67.643
							c-1.662-47.554,503.916-419.698,529.533-437.809c1.875-1.31,2.895-1.916,2.895-1.719c0.232,3.262,3.063,70.411,6.404,128.104
							c4.941,80.278,18.512,248.083,20.268,282.078c0.197,3.947,0.197,7.23-0.02,9.71c0.37,30.302-0.973,15.531-3.063,15.69
							C523.695-69.049,1.228-32.048,0-67.643"/>
					</g>
					<g id="g4667" transform="translate(131.2559,533.938)">
						<path id="path4669" inkscape:connector-curvature="0" fill="#FAF399" d="M0-67.876
							c-1.645-47.201,500.867-416.417,528.459-435.935c2.014-1.406,3.104-2.07,3.104-1.895c0.217,3.086,3.012,71.526,6.254,128.633
							c4.744,78.266,18.607,247.75,20.248,279.87c0.195,3.73,0.176,6.817-0.078,9.182c0.273,28.623-1.191,14.672-3.455,14.848
							C519.73-70.434,1.212-33.55,0-67.876"/>
					</g>
					<g id="g4671" transform="translate(131.9365,534.0562)">
						<path id="path4673" inkscape:connector-curvature="0" fill="#FAF39E" d="M-0.001-68.114
							c-1.638-46.849,497.808-413.151,527.372-434.057c2.148-1.523,3.318-2.246,3.318-2.07c0.217,2.908,2.928,72.639,6.076,129.16
							c4.568,76.273,18.709,247.439,20.268,277.643c0.176,3.52,0.135,6.426-0.136,8.654c0.155,26.942-1.423,13.831-3.849,14.029
							C515.753-71.825,1.151-35.055,0.001-68.114"/>
					</g>
					<g id="g4675" transform="translate(132.6025,534.1753)">
						<path id="path4677" inkscape:connector-curvature="0" fill="#FAF4A5" d="M-0.001-68.352
							c-1.62-46.496,494.757-409.886,526.296-432.179c2.283-1.621,3.531-2.403,3.531-2.247c0.197,2.716,2.872,73.754,5.917,129.689
							c4.375,74.261,18.788,247.106,20.255,275.435c0.172,3.282,0.115,6.016-0.197,8.109c0.039,25.261-1.658,12.992-4.217,13.205
							C511.802-73.214,1.109-36.542-0.001-68.352"/>
					</g>
					<g id="g4679" transform="translate(133.2656,534.2905)">
						<path id="path4681" inkscape:connector-curvature="0" fill="#FBF5AA" d="M-0.001-68.582
							c-1.6-46.145,491.712-406.628,525.223-430.326c2.438-1.72,3.748-2.561,3.768-2.404c0.174,2.539,2.79,74.866,5.742,130.215
							c4.178,72.269,18.883,246.773,20.252,273.208c0.154,3.087,0.054,5.645-0.258,7.578c-0.076,23.603-1.891,12.155-4.627,12.367
							C507.836-74.597,1.074-38.043-0.001-68.582"/>
					</g>
					<g id="g4683" transform="translate(133.9492,534.3872)">
						<path id="path4685" inkscape:connector-curvature="0" fill="#FBF5B0" d="M-0.001-68.774
							c-1.603-45.815,488.646-403.387,524.129-428.471c2.575-1.817,3.962-2.717,3.982-2.58c0.156,2.364,2.715,75.98,5.583,130.743
							c3.985,70.254,18.964,246.444,20.235,271.001c0.154,2.854,0.037,5.235-0.313,7.035c-0.178,21.917-2.111,11.33-5.004,11.544
							C503.854-75.962,1.013-39.528-0.001-68.774"/>
					</g>
					<g id="g4687" transform="translate(134.6123,534.5054)">
						<path id="path4689" inkscape:connector-curvature="0" fill="#FBF6B7" d="M-0.001-69.011
							c-1.58-45.463,485.603-400.122,523.056-426.595c2.713-1.936,4.178-2.892,4.199-2.754c0.154,2.168,2.652,77.093,5.404,131.27
							c3.811,68.264,19.082,246.131,20.236,268.773c0.154,2.638,0.02,4.846-0.373,6.509c-0.291,20.259-2.324,10.489-5.391,10.726
							C499.894-77.351,0.977-41.012-0.001-69.011"/>
					</g>
					<g id="g4691" transform="translate(135.2783,534.6216)">
						<path id="path4693" inkscape:connector-curvature="0" fill="#F9F6BD" d="M0-69.244
							c-1.565-45.11,482.551-396.861,521.977-424.72c2.871-2.031,4.413-3.048,4.413-2.93c0.138,1.992,2.579,78.206,5.255,131.796
							c3.61,66.251,19.153,245.798,20.232,266.565c0.117,2.423-0.02,4.436-0.43,5.98c-0.41,18.558-2.576,9.631-5.781,9.885
							C495.949-78.759,0.938-42.519,0-69.244"/>
					</g>
					<g id="g4695" transform="translate(135.96,534.7417)">
						<path id="path4697" inkscape:connector-curvature="0" fill="#FAF7C3" d="M0-69.484
							c-1.563-44.757,479.485-393.595,520.864-422.861c3.026-2.129,4.648-3.203,4.648-3.086c0.14,1.817,2.52,79.32,5.095,132.325
							c3.438,64.257,19.257,245.464,20.216,264.339c0.115,2.209-0.039,4.043-0.491,5.45c-0.505,16.879-2.792,8.793-6.171,9.065
							C491.966-80.149,0.875-44.024,0-69.484"/>
					</g>
					<g id="g4699" transform="translate(136.623,534.855)">
						<path id="path4701" inkscape:connector-curvature="0" fill="#FBF8C9" d="M-0.001-69.709
							c-1.541-44.412,476.441-390.336,519.798-420.99c3.161-2.229,4.86-3.362,4.86-3.262c0.117,1.62,2.441,80.434,4.938,132.833
							c3.24,62.284,19.331,245.154,20.21,262.149c0.098,1.976-0.097,3.634-0.564,4.905c-0.627,15.22-3.011,7.951-6.542,8.242
							C487.999-81.532,0.839-45.528,0.002-69.709"/>
					</g>
					<g id="g4703" transform="translate(137.3076,534.9526)">
						<path id="path4705" inkscape:connector-curvature="0" fill="#FAF8CF" d="M0-69.906
							c-1.541-44.078,473.354-387.093,518.701-419.135c3.299-2.322,5.076-3.535,5.076-3.438c0.117,1.445,2.383,81.548,4.764,133.359
							c3.064,60.274,19.431,244.844,20.211,259.944c0.1,1.757-0.117,3.224-0.607,4.359c-0.742,13.535-3.24,7.129-6.93,7.422
							C484.017-82.9,0.801-46.99,0-69.906"/>
					</g>
					<g id="g4707" transform="translate(137.9727,535.0708)">
						<path id="path4709" inkscape:connector-curvature="0" fill="#FDFAD5" d="M-0.002-70.142
							c-1.521-43.705,470.309-383.829,517.625-417.257c3.437-2.441,5.291-3.692,5.291-3.615c0.102,1.271,2.303,82.664,4.606,133.889
							c2.872,58.279,19.529,244.509,20.216,257.714c0.076,1.545-0.16,2.833-0.687,3.849c-0.837,11.86-3.458,6.271-7.323,6.565
							C480.071-84.288,0.757-48.496-0.004-70.142"/>
					</g>
					<g id="g4711" transform="translate(138.6357,535.188)">
						<path id="path4713" inkscape:connector-curvature="0" fill="#FCFADB" d="M-0.001-70.375
							c-1.506-43.355,467.265-380.568,516.552-415.382c3.594-2.54,5.508-3.87,5.525-3.791c0.076,1.075,2.227,83.777,4.434,134.417
							c2.676,56.267,19.607,244.174,20.191,255.508c0.056,1.308-0.178,2.424-0.745,3.303c-0.956,10.178-3.671,5.431-7.69,5.742
							C476.107-85.674,0.721-50-0.001-70.375"/>
					</g>
					<g id="g4715" transform="translate(139.3193,535.3062)">
						<path id="path4717" inkscape:connector-curvature="0" fill="#FCFBE2" d="M-0.001-70.613
							c-1.502-43.002,464.196-377.302,515.454-413.525c3.732-2.638,5.725-4.005,5.744-3.945c0.061,0.896,2.149,84.889,4.277,134.943
							c2.477,54.275,19.682,243.845,20.169,253.3c0.058,1.091-0.194,2.014-0.776,2.752c-1.074,8.503-3.928,4.593-8.105,4.925
							C472.123-87.062,0.663-51.486-0.003-70.613"/>
					</g>
					<g id="g4719" transform="translate(139.9824,535.4233)">
						<path id="path4721" inkscape:connector-curvature="0" fill="#FBFBE7" d="M0-70.847
							c-1.484-42.648,461.149-374.04,514.386-411.648c3.865-2.735,5.955-4.182,5.955-4.143c0.037,0.742,2.086,86.022,4.1,135.491
							c2.305,52.261,19.798,243.511,20.189,251.071c0.041,0.88-0.252,1.643-0.857,2.228c-1.174,6.837-4.14,3.751-8.476,4.105
							C468.175-88.471,0.624-52.989,0-70.847"/>
					</g>
					<g id="g4723" transform="translate(140.6689,535.52)">
						<path id="path4725" inkscape:connector-curvature="0" fill="#FEFDEE" d="M-0.001-71.041
							c-1.487-42.318,458.084-370.797,513.286-409.793c4.004-2.854,6.17-4.338,6.17-4.317c0.044,0.545,2.035,87.134,3.947,136.017
							c2.109,50.27,19.879,243.201,20.172,248.864c0.039,0.645-0.271,1.231-0.896,1.682c-1.31,5.158-4.375,2.931-8.868,3.279
							C464.193-89.836,0.561-54.474-0.001-71.041"/>
					</g>
					<g id="g4727" transform="translate(141.3301,535.6382)">
						<path id="path4729" inkscape:connector-curvature="0" fill="#FFFEF4" d="M0-71.277
							c-1.467-41.966,455.037-367.535,512.214-407.937c4.158-2.931,6.388-4.495,6.388-4.475c0.018,0.371,1.953,88.249,3.789,136.545
							c1.912,48.257,19.975,242.867,20.172,246.638c0.018,0.449-0.313,0.839-0.979,1.149c-1.405,3.499-4.586,2.093-9.254,2.466
							C460.233-91.225,0.527-55.98,0-71.277"/>
					</g>
					<g id="g4731" transform="translate(141.9932,535.7554)">
						<path id="path4733" inkscape:connector-curvature="0" fill="#FFFFFA" d="M-0.001-71.511
							c-1.439-41.613,451.995-364.271,511.142-406.062c4.297-3.028,6.603-4.65,6.603-4.65c0.019,0.195,1.895,89.364,3.632,137.054
							c1.716,46.284,20.057,242.557,20.156,244.45c0.018,0.214-0.334,0.432-1.039,0.625c-1.504,1.796-4.803,1.23-9.627,1.623
							C456.269-92.612,0.491-57.464-0.001-71.511"/>
					</g>
					<g id="g4735" transform="translate(683.1719,565.0806)">
						<path id="path4737" inkscape:connector-curvature="0" fill="#FFFFFF" d="M-0.001-130.161c0,0-18.611-197.951-20.172-242.224
							c-1.642-47.103-3.457-137.581-3.457-137.581s-518.407,364.741-516.866,409.012C-540.005-86.986-0.001-130.161-0.001-130.161"
							/>
					</g>
				</g>
			</g>
		</g>
		<g id="g4741">
			<g id="g4747" transform="translate(197.6094,343.332)">
				<path id="path4749" inkscape:connector-curvature="0" fill="#010101" d="M-0.002,313.334V196.63
					c0-16.529-14.37-57.884-14.37-101.985c0-42.539,15.678-94.937,15.678-113.07l0.008-122.621l-43.84,20.454
					c-0.019,98.787-0.019,187.704,0.06,191.507c0.326,15.672,12.76,15.849,12.56,31.065c-0.241,17.662-12.953,26.216-12.56,36.112
					c0.211,5.336,0.217,97.345,0.166,194.933L-0.002,313.334z"/>
			</g>
			<g id="g4751" transform="translate(210.1416,349.1641)">
				<path id="path4753" inkscape:connector-curvature="0" fill="#010101" d="M0,301.671l41.248-19.195
					c-0.011-29.094,0.009-49.672,0.051-53.5c0.667-56.217-15.29-94.51-15.425-164.163C25.755,2.044,42.603-43.209,43.908-94.96
					c0.091-3.327,0.124-34.923,0.135-77.692L0.62-152.401L0.543-26.713c0.242,17.61,12.441,55.248,12.441,96.995
					c0,41.739-13.176,101.798-12.909,116.265L0,301.671z"/>
			</g>
			<g id="g4755" transform="translate(263.6904,374.084)">
				<path id="path4757" inkscape:connector-curvature="0" fill="#010101" d="M0,251.832l44.543-20.73
					C40.674,188.31,26.299,103.127,26.299,14.456c0-103.973,20.501-203.483,20.501-228.728v-9.568L2.961-203.388
					c0.008,43.584,0.025,75.893,0.068,79.205c0.676,49.32,11.973,90.705,11.965,144.159C14.977,72.501,0.753,146.443,0.086,199.505
					C0.043,203.32,0.018,223.396,0,251.832"/>
			</g>
			<g id="g4759" transform="translate(40.6904,723.8916)">
				<path id="path4761" inkscape:connector-curvature="0" fill="#010101" d="M-0.001-447.783l-38.279,17.858V23.622L-0.027,5.819
					L-0.001-447.783z"/>
			</g>
			<g id="g4763" transform="translate(51.4482,275.3066)">
				<path id="path4765" inkscape:connector-curvature="0" fill="#010101" d="M-0.001,449.384l39.13-18.211L39.154-22.48L0.032-4.235
					L-0.001,449.384z"/>
			</g>
			<g id="g4767" transform="translate(143.7656,771.98)">
				<path id="path4769" inkscape:connector-curvature="0" fill="#010101" d="M-0.002-543.961l-42.457,19.807l0.04,453.646
					l42.324-19.699C0.09-191.58,0.217-283.795,0.008-286.042c-1.298-14.398-11.539-9.595-11.783-24.577
					c-0.301-17.982,11.792-27.414,11.792-38.435C0.017-353.171,0.008-443.676-0.002-543.961"/>
			</g>
			<g id="g4771" transform="translate(362.877,420.2402)">
				<path id="path4773" inkscape:connector-curvature="0" fill="#010101" d="M0.001,159.517
					C-5.771,101.365-14.158,16.898-14.158-58.45c0-76.343,8.489-173.666,14.198-236.003l-40.235,18.763c0,3.94,0,6.7-0.009,8.018
					c-0.087,25.244,15.461,109.271,15.768,213.393c0.295,99.11-13.32,187.468-16.143,232.679L0.001,159.517z"/>
			</g>
			<g id="g4775" transform="translate(404.9629,665.6362)">
				<path id="path4777" inkscape:connector-curvature="0" fill="#010101" d="M-0.001-331.272
					c0.419-68.692,6.23-156.437,11.646-233.627l-35.136,16.387c4.414,56.933,13.538,137.664,13.572,222.181
					c0.034,75.756-5.09,166.164-8.823,229.59l31.123-14.49C6.282-180.815-0.417-263.806-0.001-331.272"/>
			</g>
			<g id="g4779" transform="translate(473.7393,471.834)">
				<path id="path4781" inkscape:connector-curvature="0" fill="#010101" d="M-0.001,56.333
					c-6.164-78.198-12.185-165.616-12.041-219.777C-11.865-229.2-5.78-319.852-0.446-397.542l-32.166,15.001
					c4.809,68.584,11.723,151.588,12.082,223.338c0.314,64.199-5.059,150.967-8.955,229.252L-0.001,56.333z"/>
			</g>
			<g id="g4783" transform="translate(502.3213,485.1426)">
				<path id="path4785" inkscape:connector-curvature="0" fill="#010101" d="M0,29.716l25.609-11.918
					c-5.035-69.34-11.139-150.735-11.121-219.682c0.018-79.92,5.658-148.491,10.512-234.173L-5.12-422.009
					C0.607-348.103,7.289-271.157,7.23-199C7.179-131.256,3.929-44.897,0,29.716"/>
			</g>
			<g id="g4787" transform="translate(582.2354,945.0312)">
				<path id="path4789" inkscape:connector-curvature="0" fill="#010101" d="M-0.003-890.062c0.484-10.73,0.635-21.316,0.645-31.799
					L-29.1-907.99c1.035,11.21,1.873,21.321,2.227,31.005c3.686,99.719,10.393,101.525,10.156,192.012
					c-0.231,90.826-3.392,147.346-7.758,228.997l21.715-10.101c-3.053-83.906-7.66-128.358-7.711-221.07
					C-10.514-763.881-4.405-791.707-0.003-890.062"/>
			</g>
			<g id="g4791" transform="translate(619.1953,765.0244)">
				<path id="path4793" inkscape:connector-curvature="0" fill="#010101" d="M-0.001-530.049
					c0.204,30.051-5.469,137.712-10.68,230.467l23.194-10.795c-3.218-94.65-7.766-189.947-8.093-222.007
					c-0.309-31.059,3.916-119.942,8.748-214.42c0.072-5.953,0.125-12.007,0.168-18.22l-23.705,11.061
					C-5.387-655.655,0.709-568.421-0.001-530.049"/>
			</g>
		</g>
	</g>
</g>
</svg>
