<svg xmlns="http://www.w3.org/2000/svg" role="img" viewBox="-9.99 -9.99 519.48 183.98"><title>Sony Imageworks logo</title><path fill="#211c1c" d="M351.142 40.445c-.137-1.496-1.1-2.36-2.626-2.36-1.367 0-2.403.82-2.403 1.9 0 .525.287.993.82 1.302.439.28.705.396 2.51 1.166 2.181.906 2.843 1.302 3.419 1.942.568.684.877 1.562.877 2.576 0 2.648-1.985 4.368-5.043 4.368-3.332 0-5.18-1.741-5.34-5.03h2.21c.172 2.008 1.252 3.044 3.173 3.044 1.561 0 2.67-.835 2.67-2.008 0-.662-.31-1.165-.95-1.604-.468-.31-.727-.446-2.425-1.173-1.612-.683-2.54-1.209-3.065-1.72-.749-.726-1.123-1.633-1.123-2.669 0-2.382 1.957-4.08 4.735-4.08 1.762 0 3.223.684 4.036 1.922.46.661.64 1.323.705 2.424h-2.18zm7.415 3.198c0 3.547 1.497 5.734 3.965 5.734 2.425 0 3.95-2.187 3.95-5.67 0-3.46-1.525-5.64-3.95-5.64-2.425 0-3.965 2.18-3.965 5.576m10.297.065c0 4.561-2.54 7.626-6.332 7.626-3.835 0-6.346-3.036-6.346-7.713 0-4.454 2.604-7.519 6.346-7.519 3.792 0 6.332 3.065 6.332 7.606m5.349-7.341l6.461 11.246V36.367h2.159v14.707h-2.36l-6.548-11.224v11.224h-2.158V36.367h2.446zm13.888 0l3.288 6.325 3.238-6.325h2.533l-4.67 8.728v5.979h-2.273v-5.98l-4.692-8.727h2.576zm19.999 7.034c1.546 0 2.007-.043 2.618-.223.95-.266 1.526-1.122 1.526-2.266 0-1.058-.46-1.878-1.238-2.23-.611-.267-1.273-.354-2.928-.354h-.95v5.073h.971zm-.288-7.037c2.201 0 3.173.094 4.122.425 1.655.547 2.67 2.137 2.67 4.144 0 1.936-.993 3.483-2.605 4.037-.878.302-1.806.395-3.9.395h-.971v5.706h-2.266V36.364h2.95zm9.217.002h2.295v14.707h-2.295V36.366zm14.462 4.456c-.352-1.806-1.388-2.735-3.043-2.735-2.382 0-3.878 2.18-3.878 5.641 0 3.468 1.496 5.627 3.921 5.627 1.856 0 2.936-1.194 3.152-3.526h2.079c-.223 3.57-2.03 5.505-5.159 5.505-3.885 0-6.375-2.972-6.375-7.584 0-2.64.77-4.756 2.245-6.13a6.076 6.076 0 0 1 4.036-1.518c2.936 0 4.764 1.698 5.03 4.72h-2.008zm13.362-4.455v1.964h-3.878v12.743h-2.274V38.33h-3.835v-1.964h9.987zm4.694 0v8.534c0 1.805.065 2.36.396 2.978.467.921 1.525 1.475 2.87 1.475 1.562 0 2.684-.705 3.066-1.942.15-.504.194-1.015.194-2.511v-8.534h2.274v8.577c0 2.18-.087 2.82-.468 3.662-.792 1.72-2.662 2.734-5.065 2.734-2.404 0-4.282-1.014-5.073-2.734-.374-.863-.46-1.482-.46-3.662v-8.577h2.266zm15.302 6.835c1.59 0 2.072-.043 2.67-.266.899-.331 1.431-1.144 1.431-2.224 0-.928-.417-1.655-1.144-2.007-.619-.31-1.1-.374-3.065-.374h-.907v4.87h1.015zm-.13-6.836c2.447 0 3.375.13 4.36.598 1.39.662 2.231 2.072 2.231 3.77 0 1.914-.95 3.302-2.799 4.058l3.612 6.281h-2.69l-3.325-5.907h-2.274v5.907h-2.266V36.366h3.151zm17.767 6.108v1.964h-5.907v4.67h6.612v1.964h-8.886V36.365h8.714v1.964h-6.44v4.145h5.907zm10.617-2.029c-.13-1.496-1.101-2.36-2.627-2.36-1.367 0-2.403.82-2.403 1.9 0 .525.288.993.813 1.302.446.28.705.396 2.519 1.166 2.18.906 2.842 1.302 3.417 1.942.576.684.885 1.562.885 2.576 0 2.648-1.986 4.368-5.05 4.368-3.332 0-5.181-1.741-5.34-5.03h2.21c.172 2.008 1.251 3.044 3.172 3.044 1.569 0 2.67-.835 2.67-2.008 0-.662-.317-1.165-.95-1.604-.468-.31-.727-.446-2.425-1.173-1.611-.683-2.54-1.209-3.065-1.72-.748-.726-1.122-1.633-1.122-2.669 0-2.382 1.957-4.08 4.734-4.08 1.763 0 3.224.684 4.037 1.922.467.661.64 1.323.705 2.424h-2.18zM87.09 64.763l12.505 12.498 12.498-12.498-12.505-12.505L87.09 64.763zM34.86 117l12.498 12.498L59.856 117l-12.498-12.505L34.86 117zm-17.412 17.405l12.498 12.498 12.498-12.498-12.498-12.498-12.498 12.498zM121.914 29.94l12.498 12.498L146.91 29.94l-12.498-12.498-12.498 12.498zm-17.412 17.412L117 59.856l12.498-12.505L117 34.846l-12.498 12.505zm31.493 58.396l4.576-17.074-17.074-4.576-4.576 17.074 17.074 4.576zm23.787 6.368l4.576-17.074-17.074-4.577-4.576 17.082 17.074 4.569zM4.576 52.229L0 69.304l17.074 4.576 4.576-17.082L4.576 52.23zm36.285 28.026l4.576-17.082-17.074-4.576-4.576 17.081 17.074 4.577zm39.394 43.228l-17.075-4.569-4.568 17.074 17.074 4.576 4.569-17.081zm-23.442 19.21l-4.576 17.075 17.074 4.576 4.576-17.074-17.074-4.576zM107.546 21.65l4.576-17.074L95.048 0l-4.576 17.074 17.074 4.576zm-18.873 2.13l-4.576 17.074 17.074 4.576 4.576-17.074-17.074-4.576zm0 116.784l17.074-4.576-4.576-17.074-17.074 4.569 4.576 17.081zm1.799 6.706l4.576 17.074 17.074-4.576-4.576-17.074-17.074 4.576zM73.887 17.074L69.31 0 52.237 4.576l4.576 17.074 17.074-4.576zm1.799 6.706l-17.074 4.576L63.18 45.43l17.075-4.576-4.57-17.074zM23.787 88.673l4.576 17.074 17.074-4.576-4.576-17.074-17.074 4.576zM0 95.04l4.576 17.074 17.074-4.57-4.576-17.08L0 95.04zm164.358-25.737l-4.576-17.075-17.074 4.57 4.576 17.08 17.074-4.575zm-23.787 6.374l-4.576-17.08-17.074 4.575 4.576 17.082 17.074-4.577zM129.498 117L117 104.495 104.502 117 117 129.498 129.498 117zm4.914 4.907l-12.498 12.498 12.498 12.498 12.498-12.498-12.498-12.498zM42.444 29.94L29.946 17.441 17.448 29.939l12.498 12.498 12.498-12.498zm4.914 4.907L34.86 47.351l12.498 12.505 12.498-12.505-12.498-12.505z"/><path fill="#ec2724" d="M191.096 64.541h5.447v5.173h.13c2.59-3.95 6.533-5.986 11.368-5.986 4.28 0 8.231 1.698 9.663 5.986 2.381-3.741 6.526-5.986 11.023-5.986 7.008 0 11.7 2.921 11.7 10.203v25.787h-5.786V76.65c0-4.353-1.158-7.82-6.8-7.82-5.583 0-9.187 3.54-9.187 8.979v21.91h-5.785V76.65c0-4.554-1.425-7.82-6.598-7.82-6.872 0-9.39 6.324-9.39 8.979v21.91h-5.785V64.54zm74.779 17.012c-2.245 1.634-6.598 1.698-10.476 2.382-3.814.676-7.08 2.036-7.08 6.324 0 3.814 3.266 5.174 6.806 5.174 7.62 0 10.75-4.764 10.75-7.958v-5.922zm9.39 18.031c-1.022.612-2.318.95-4.152.95-2.993 0-4.9-1.633-4.9-5.44-3.195 3.742-7.483 5.44-12.383 5.44-6.397 0-11.635-2.856-11.635-9.865 0-7.957 5.922-9.663 11.908-10.821 6.397-1.223 11.836-.813 11.836-5.166 0-5.037-4.151-5.85-7.82-5.85-4.9 0-8.505 1.49-8.779 6.663h-5.785c.338-8.706 7.08-11.771 14.901-11.771 6.332 0 13.204 1.432 13.204 9.663V91.49c0 2.72 0 3.943 1.834 3.943.475 0 1.022-.072 1.77-.338v4.49z"/><path fill="#ec2724" d="M300.575 81.417c0-6.195-2.72-12.585-10.002-12.585-7.418 0-10.411 6.051-10.411 12.786 0 6.332 2.317 13.405 9.936 13.405 7.62 0 10.477-7.009 10.477-13.606m5.713 15.31c0 11.434-5.239 17.284-16.326 17.284-6.605 0-14.218-2.655-14.563-10.347h5.785c.273 4.223 5.303 5.72 9.116 5.72 7.555 0 10.548-5.447 10.548-13.34v-2.31h-.137c-1.906 4.282-6.533 6.397-10.958 6.397-10.476 0-15.714-8.238-15.714-17.83 0-8.303 4.08-18.577 16.26-18.577 4.426 0 8.369 1.971 10.484 5.857h-.072.137v-5.037h5.44v32.184zm28.375-17.965c-.273-5.511-4.425-9.936-10.138-9.936-6.058 0-9.663 4.562-10.066 9.936h20.204zm5.576 9.8c-1.561 7.756-7.137 11.973-15.038 11.973-11.224 0-16.534-7.757-16.872-18.506 0-10.548 6.943-18.305 16.534-18.305 12.455 0 16.261 11.635 15.923 20.14h-26.327c-.209 6.123 3.26 11.57 10.951 11.57 4.763 0 8.095-2.317 9.116-6.872h5.713zm36.336 11.156h-6.123l-7.144-27.96h-.137l-7.073 27.96h-6.26l-11.296-35.177h6.396l7.958 28.78h.137l7.08-28.78h6.324l7.347 28.78h.136l7.893-28.78h5.987l-11.225 35.177zm26.129-4.285c6.058 0 10.958-4.763 10.958-13.267 0-8.577-4.9-13.34-10.958-13.34-6.051 0-10.951 4.763-10.951 13.34 0 8.504 4.9 13.267 10.95 13.267m0-31.709c11.16 0 17.082 8.095 17.082 18.442 0 10.274-5.922 18.369-17.081 18.369-11.16 0-17.081-8.095-17.081-18.37 0-10.346 5.921-18.44 17.08-18.44m19.325.816h5.447v7.418h.13c2.791-5.648 6.67-8.44 12.93-8.231v6.123c-9.326 0-12.722 5.303-12.722 14.218v15.65h-5.785V64.54zm20.615-13.404h5.784v28.78l16.053-15.375h7.763l-13.951 12.793 14.966 22.384h-7.346l-12.038-18.37-5.447 5.037V99.72h-5.784V51.137z"/><path fill="#ec2724" d="M475.916 88.628c.201 5.174 4.698 6.807 9.454 6.807 3.612 0 8.512-.82 8.512-5.238 0-4.497-5.72-5.245-11.505-6.533-5.713-1.296-11.498-3.202-11.498-9.937 0-7.08 7.008-10.001 13.131-10.001 7.757 0 13.952 2.446 14.426 11.023h-5.784c-.403-4.49-4.353-5.922-8.16-5.922-3.475 0-7.49.957-7.49 4.49 0 4.152 6.13 4.835 11.498 6.123 5.785 1.295 11.505 3.202 11.505 10.001 0 8.375-7.828 11.095-14.973 11.095-7.886 0-14.556-3.194-14.901-11.908h5.785zM182.047 99.719h5.785V64.542h-5.785v35.177zm0-41.509h5.785v-5.792h-5.785v5.792z"/></svg>