<svg id="Layer_1" data-name="Layer 1" xmlns="http://www.w3.org/2000/svg" viewBox="0 0 351.6272 477.20834"><title>spreticleSrc</title><polygon points="286.724 349.085 286.717 70.541 8.174 70.541 8.174 15.07 342.194 15.07 342.194 349.085 286.724 349.085 286.724 349.085"/><rect x="8.17417" y="15.06974" width="10.69137" height="334.01075"/><rect x="10.50767" y="338.39123" width="331.68586" height="10.69361"/><polygon points="154.131 238.83 189.83 238.83 189.83 167.432 118.432 167.432 118.432 203.13 154.131 203.13 154.131 238.83"/><polygon points="154.131 276.649 154.131 343.945 154.131 347.703 189.828 347.706 189.828 343.945 189.83 276.649 154.131 276.649"/><rect x="8.11583" y="168.38956" width="71.05492" height="35.69853"/><path d="M41.58,416.50364H53.39686v39.30273H45.74452v-26.584q0-1.14552.02686-3.2129.02563-2.06688.02636-3.18652L38.35,455.80637H30.36806L22.97352,422.823q0,1.12061.02686,3.18652.02564,2.06689.02637,3.2129v26.584H15.3744V416.50364H27.3246L34.4789,447.407Z"/><path d="M71.89442,438.12864a12.02646,12.02646,0,0,0,3.03516-.667,2.28622,2.28622,0,0,0,1.63867-2.16015,2.5537,2.5537,0,0,0-1.25683-2.46582A7.9453,7.9453,0,0,0,71.622,432.155q-2.72973,0-3.86523,1.334a5.4964,5.4964,0,0,0-1.08106,2.666H59.34315a11.11713,11.11713,0,0,1,2.14258-6.26562q3.02564-3.84083,10.39014-3.83985a18.53282,18.53282,0,0,1,8.51611,1.89258q3.72217,1.894,3.72217,7.14649v13.332q0,1.3872.05322,3.35937a4.21887,4.21887,0,0,0,.45313,2.02637,2.71158,2.71158,0,0,0,1.12011.87988v1.12012H77.4745a8.47759,8.47759,0,0,1-.48-1.65332q-.13331-.77344-.21289-1.75977a15.688,15.688,0,0,1-3.648,2.90625,11.01788,11.01788,0,0,1-5.57861,1.41309,9.6263,9.6263,0,0,1-6.55713-2.25293,8.01069,8.01069,0,0,1-2.58789-6.38574q0-5.35986,4.16308-7.75977A18.60975,18.60975,0,0,1,69.289,438.448Zm4.64649,3.54589a8.36162,8.36162,0,0,1-1.47315.7334,12.49425,12.49425,0,0,1-2.04052.51953l-1.73.32032a11.35244,11.35244,0,0,0-3.49268,1.04,3.46955,3.46955,0,0,0-1.79541,3.22558,3.36988,3.36988,0,0,0,1.09668,2.81348,4.16339,4.16339,0,0,0,2.6665.86621,7.94189,7.94189,0,0,0,4.58936-1.43945q2.09838-1.44,2.1792-5.25293Z"/><path d="M91.89979,461.37961l.96.05274a12.01045,12.01045,0,0,0,2.13281-.08008,3.82513,3.82513,0,0,0,1.70654-.61328,4.1061,4.1061,0,0,0,1.24024-1.89258,4.58554,4.58554,0,0,0,.49365-1.75977L87.75331,426.74289H96.206l6.34619,21.4375,5.99951-21.4375h8.0791l-9.96435,28.584q-2.88795,8.26464-4.56983,10.25195-1.68163,1.98633-6.72656,1.98633-1.0144,0-1.62842-.01367-.61451-.01318-1.8418-.09278Z"/><path d="M132.63466,438.12864a12.02624,12.02624,0,0,0,3.03515-.667,2.28621,2.28621,0,0,0,1.63868-2.16015,2.55371,2.55371,0,0,0-1.25684-2.46582,7.94523,7.94523,0,0,0-3.68945-.68067q-2.72975,0-3.86524,1.334a5.4963,5.4963,0,0,0-1.08105,2.666h-7.33252a11.117,11.117,0,0,1,2.14258-6.26562q3.02563-3.84083,10.39013-3.83985a18.53289,18.53289,0,0,1,8.51612,1.89258q3.72216,1.894,3.72216,7.14649v13.332q0,1.3872.05323,3.35937a4.2189,4.2189,0,0,0,.45312,2.02637,2.71162,2.71162,0,0,0,1.12012.87988v1.12012h-8.26611a8.47689,8.47689,0,0,1-.48-1.65332q-.1333-.77344-.2129-1.75977a15.68769,15.68769,0,0,1-3.64794,2.90625,11.01794,11.01794,0,0,1-5.57862,1.41309,9.62634,9.62634,0,0,1-6.55713-2.25293,8.01072,8.01072,0,0,1-2.58789-6.38574q0-5.35986,4.16309-7.75977a18.60969,18.60969,0,0,1,6.71582-1.86621Zm4.64648,3.54589a8.36187,8.36187,0,0,1-1.47314.7334,12.49441,12.49441,0,0,1-2.04053.51953l-1.73.32032a11.35262,11.35262,0,0,0-3.49268,1.04,3.46956,3.46956,0,0,0-1.79541,3.22558,3.36991,3.36991,0,0,0,1.09668,2.81348,4.1634,4.1634,0,0,0,2.66651.86621,7.94186,7.94186,0,0,0,4.58935-1.43945q2.09839-1.44,2.1792-5.25293Z"/><path d="M192.46522,417.51731a9.7011,9.7011,0,0,1,3.6792,2.74609A12.23524,12.23524,0,0,1,198.1205,423.57a11.02832,11.02832,0,0,1,.728,4.13281,11.7816,11.7816,0,0,1-1.41308,5.50586,7.89561,7.89561,0,0,1-4.666,3.82618,7.34532,7.34532,0,0,1,3.853,3.10644,12.93542,12.93542,0,0,1,1.13281,6.14649v2.63964a19.86543,19.86543,0,0,0,.2168,3.65235,3.28242,3.28242,0,0,0,1.51611,2.24023v.98633h-9.06543q-.37353-1.30664-.5332-2.10645a19.31923,19.31923,0,0,1-.34668-3.38671l-.05322-3.65235q-.05054-3.76025-1.29883-5.01269-1.24878-1.25391-4.67871-1.25391h-8.021v15.41211h-8.02588V416.50364h18.79883A17.13008,17.13008,0,0,1,192.46522,417.51731Zm-16.97412,5.8125V433.8884h8.83838a9.40319,9.40319,0,0,0,3.9502-.63965q2.32983-1.1206,2.33008-4.42676,0-3.57275-2.25391-4.79882a8.14789,8.14789,0,0,0-3.79883-.69336Z"/><path d="M225.04091,427.33176a11.82538,11.82538,0,0,1,5.02246,4.29883,14.28905,14.28905,0,0,1,2.31543,6.00879,37.13562,37.13562,0,0,1,.25,5.76855h-21.168q.17724,4.37256,3.04,6.13281a7.71928,7.71928,0,0,0,4.18945,1.09278,5.90278,5.90278,0,0,0,5.78418-3.333h7.75781a9.48485,9.48485,0,0,1-2.81738,5.25293q-3.90527,4.23925-10.93359,4.23926a15.84112,15.84112,0,0,1-10.23731-3.5752q-4.43554-3.57714-4.43554-11.63672,0-7.55127,4.0039-11.58105a14.01216,14.01216,0,0,1,10.39356-4.03027A16.54137,16.54137,0,0,1,225.04091,427.33176Zm-11.36817,6.56445a7.89045,7.89045,0,0,0-2.02441,4.499h13.0918a6.34338,6.34338,0,0,0-2.02442-4.59278,6.65824,6.65824,0,0,0-4.50683-1.56738A6.02364,6.02364,0,0,0,213.67274,433.89621Z"/><path d="M233.48524,432.4216v-5.41211H237.539v-8.10644h7.51856v8.10644h4.71973v5.41211h-4.71973V447.781a3.45972,3.45972,0,0,0,.45312,2.22559q.45411.44091,2.77344.44042c.23047,0,.47559-.0039.7334-.01367.25781-.00879.51074-.02148.75977-.04V456.073l-3.59961.13379q-5.38623.186-7.35938-1.86719a5.55424,5.55424,0,0,1-1.2793-4.02636V432.4216Z"/><path d="M262.46864,423.2761h-7.70508v-7.0127h7.70508Zm-7.70508,3.46679h7.70508v29.06348h-7.70508Z"/><path d="M287.21376,437.16867a6.75243,6.75243,0,0,0-1.0957-2.93359,4.60294,4.60294,0,0,0-3.9834-1.75976,5.24354,5.24354,0,0,0-5.26563,3.81347,15.82448,15.82448,0,0,0-.748,5.37207,14.54937,14.54937,0,0,0,.748,5.13281,5.08319,5.08319,0,0,0,5.13184,3.627,4.53051,4.53051,0,0,0,3.7959-1.44043,7.1574,7.1574,0,0,0,1.36328-3.73242h7.75879a12.6971,12.6971,0,0,1-2.50879,6.55859q-3.57716,4.98633-10.5957,4.98633-7.01954,0-10.32911-4.15918-3.31054-4.16016-3.30957-10.78613,0-7.478,3.65625-11.63868,3.65625-4.15869,10.08887-4.15918a15.20233,15.20233,0,0,1,8.95508,2.45313q3.48193,2.45361,4.123,8.666Z"/><path d="M307.9579,455.80637h-7.59961V416.50364h7.59961Z"/><path d="M334.30946,427.33176a11.82532,11.82532,0,0,1,5.02246,4.29883,14.28892,14.28892,0,0,1,2.31543,6.00879,37.13436,37.13436,0,0,1,.25,5.76855h-21.168q.17726,4.37256,3.04,6.13281a7.71932,7.71932,0,0,0,4.18946,1.09278,5.90281,5.90281,0,0,0,5.78418-3.333h7.75781a9.48491,9.48491,0,0,1-2.81738,5.25293q-3.90528,4.23925-10.9336,4.23926a15.84109,15.84109,0,0,1-10.2373-3.5752q-4.43554-3.57714-4.43555-11.63672,0-7.55127,4.00391-11.58105a14.01214,14.01214,0,0,1,10.39355-4.03027A16.5413,16.5413,0,0,1,334.30946,427.33176Zm-11.36816,6.56445a7.89046,7.89046,0,0,0-2.02442,4.499h13.0918a6.34337,6.34337,0,0,0-2.02441-4.59278,6.65828,6.65828,0,0,0-4.50684-1.56738A6.02362,6.02362,0,0,0,322.9413,433.89621Z"/></svg>