<?xml version="1.0" encoding="UTF-8"?>
<svg id="black" xmlns="http://www.w3.org/2000/svg" viewBox="0 0 771.45 150.51">
  <defs>
    <style>
      .cls-1 {
        fill: #e80000;
      }
    </style>
  </defs>
  <g>
    <path d="m57.56,42.09v18c-5.8-4.31-15.32-7.58-24.69-7.58-8.33,0-12.94,3.12-12.94,8.03,0,5.21,5.35,7.29,15.32,9.96,13.09,3.42,27.36,7.88,27.36,24.84,0,15.76-12.34,26.03-33.46,26.03-11.45,0-21.56-3.12-28.85-8.33v-19.48c6.69,5.95,16.06,10.71,27.96,10.71,9.22,0,14.43-3.42,14.43-8.77,0-5.8-6.4-7.73-17.4-11.01C12.05,80.76,0,75.7,0,60.98s12.05-25.43,32.12-25.43c9.52,0,19.33,2.53,25.43,6.54Z"/>
    <path d="m103.22,37.48h22.31v17.1h-22.31v33.02c0,11.01,6.99,15.32,16.51,15.32,2.23,0,4.76-.3,7.29-.74v17.55c-2.68.59-6.4,1.19-11.75,1.19-20.38,0-31.98-12.2-31.98-32.27v-34.06h-11.9v-17.1h12.05v-19.04h19.78v19.04Z"/>
    <path d="m136.68,78.53c0-26.03,18-42.98,36.59-42.98,12.05,0,22.01,5.95,27.66,15.32l2.08-13.39h17.25v81.8h-17.25l-2.08-13.39c-5.65,9.37-15.62,15.47-27.66,15.47-18.59,0-36.59-17.1-36.59-42.83Zm63.36-.15c0-14.28-9.07-24.24-21.12-24.24s-21.56,10.11-21.56,24.24,9.22,24.24,21.56,24.24,21.12-9.96,21.12-24.24Z"/>
    <path d="m262.21,50.27c5.35-9.07,16.06-14.72,26.92-14.72,19.04,0,36.14,16.66,36.14,42.83s-17.85,42.98-36.88,42.98c-11.75,0-21.71-6.1-27.36-15.47l-2.08,13.39h-17.25V0h20.52v50.27Zm-.3,28.11c0,14.28,9.22,24.24,21.27,24.24s21.42-9.96,21.42-24.09-9.22-24.39-21.56-24.39-21.12,9.96-21.12,24.24Z"/>
    <path d="m341.18,12.49c0-6.4,5.06-11.45,11.6-11.45s11.45,5.06,11.45,11.45-5.06,11.3-11.45,11.3-11.6-4.91-11.6-11.3Zm1.34,24.99h20.52v81.8h-20.52V37.48Z"/>
    <path d="m384.91,0h20.52v119.28h-20.52V0Z"/>
    <path d="m425.95,12.49c0-6.4,5.06-11.45,11.6-11.45s11.45,5.06,11.45,11.45-5.06,11.3-11.45,11.3-11.6-4.91-11.6-11.3Zm1.34,24.99h20.52v81.8h-20.52V37.48Z"/>
    <path d="m493.92,37.48h22.31v17.1h-22.31v33.02c0,11.01,6.99,15.32,16.51,15.32,2.23,0,4.76-.3,7.29-.74v17.55c-2.68.59-6.4,1.19-11.75,1.19-20.38,0-31.98-12.2-31.98-32.27v-34.06h-11.9v-17.1h12.05v-19.04h19.78v19.04Z"/>
    <path d="m561.29,150.51h-20.67l13.98-33.76-30.79-79.27h22.16l19.04,56.51h.45l19.18-56.51h21.12l-44.47,113.03Z"/>
    <path d="m644.44,78.53c0-26.03,18-42.98,36.59-42.98,12.05,0,22.01,5.95,27.66,15.32l2.08-13.39h17.25v81.8h-17.25l-2.08-13.39c-5.65,9.37-15.62,15.47-27.66,15.47-18.59,0-36.59-17.1-36.59-42.83Zm63.36-.15c0-14.28-9.07-24.24-21.12-24.24s-21.56,10.11-21.56,24.24,9.22,24.24,21.56,24.24,21.12-9.96,21.12-24.24Z"/>
    <path d="m748.4,12.49c0-6.4,5.06-11.45,11.6-11.45s11.45,5.06,11.45,11.45-5.06,11.3-11.45,11.3-11.6-4.91-11.6-11.3Zm1.34,24.99h20.52v81.8h-20.52V37.48Z"/>
  </g>
  <path class="cls-1" d="m606.57,108.12c0-6.84,5.21-12.05,12.05-12.05s12.05,5.21,12.05,12.05-5.35,12.05-12.05,12.05-12.05-5.35-12.05-12.05Z"/>
</svg>