<svg id="Layer_1" data-name="Layer 1" xmlns="http://www.w3.org/2000/svg" viewBox="0 0 500 97.95329"><title>tactic</title><path d="M454.50876,14.82167V28.007h-1.60343q-28.91956,0-57.83914.001c-.51572,0-1.03224-.00077-1.547.02518-2.38637.12024-3.31289,1.05494-3.3142,3.40638q-.01062,19.20933.00148,38.41868c.00206,2.52271.98646,3.47616,3.49735,3.47632q29.48246.0019,58.96493.00072h1.79744V86.56772h-1.49834q-29.69356,0-59.38707-.0215a26.81977,26.81977,0,0,1-5.16354-.49964c-6.61809-1.31844-10.50438-5.62538-11.19511-12.31226a45.84189,45.84189,0,0,1-.2415-4.62965c-.01918-12.10252-.04213-24.20523.01684-36.3075a35.28306,35.28306,0,0,1,.62354-6.98232c1.32206-6.3492,5.88444-10.169,12.56886-10.74267,1.81875-.1561,3.64956-.23843,5.475-.24006q28.427-.02539,56.854-.01045Z"/><path d="M254.04532,14.82167V28.007h-1.72376q-28.85075,0-57.70151.00135c-.56257.00005-1.12622.00184-1.68751.03444-2.27183.13194-3.184,1.08383-3.18529,3.38539q-.01087,19.2104.00115,38.42077c.002,2.52878.98325,3.48537,3.48857,3.48554q29.48409.002,58.96816.00076h1.80039V86.56772h-1.49074q-29.69517,0-59.39033-.017a25.96107,25.96107,0,0,1-4.75465-.40119c-7.0812-1.33564-11.12522-5.95306-11.615-13.17764-.10769-1.58861-.14089-3.18488-.14244-4.77766-.01144-11.77486-.03414-23.54986.018-35.32449a35.818,35.818,0,0,1,.55366-6.85037c1.30743-6.51817,5.79022-10.35754,12.52891-10.94647,1.772-.15483,3.556-.23915,5.33452-.24073q28.49886-.02519,56.99773-.01045Z"/><path d="M176.26612,86.0489c-5.23519,0-10.2465.02682-15.25641-.04511-.45742-.00656-1.03272-.55856-1.33946-1.0044q-8.08892-11.758-16.09633-23.57177a2.72488,2.72488,0,0,0-2.59017-1.40611c-10.27255.0604-20.54562.03413-30.81854.03413h-1.68707a6.77281,6.77281,0,0,1,.42825-.94406c2.5133-3.73232,5.065-7.43917,7.5377-11.19813a2.22694,2.22694,0,0,1,2.16859-1.11359c4.86991.05384,9.74077.02437,14.971.02437-4.37191-6.37344-8.58842-12.52034-12.92466-18.84175-1.88057,2.72634-3.6743,5.31639-5.45754,7.91366Q98.40805,60.35576,81.6395,84.83241A2.5055,2.5055,0,0,1,79.247,86.07634c-4.26772-.06284-8.53693-.02552-12.80558-.0255H64.85c.34166-.57394.54808-.97.79916-1.33545q23.85-34.70874,47.6951-69.42087a2.0244,2.0244,0,0,1,1.91431-1.06317c3.61066.06753,7.22418-.01062,10.83446.06655a2.39472,2.39472,0,0,1,1.69611.84937q24.07423,35.06621,48.06919,70.18683C175.95961,85.48215,176.03758,85.64621,176.26612,86.0489Z"/><path d="M345.61554,27.82513H311.1162V85.943H297.82558V27.86706H264.08385V14.71544h81.53169Z"/><path d="M53.21648,85.9996H40.02075V27.88541H6.24905V14.72355H87.71454V27.83578H53.21648Z"/><path d="M368.01778,86.84056H354.91653l0-1.46708v-68.685c0-.04691-.0002-.09382.0001-.14073.01537-2.28892.01537-2.289,2.25409-2.28911,3.515-.00011,7.03,0,10.50933,0C368.24052,15.521,368.53846,82.44061,368.01778,86.84056Z"/><path d="M493.87752,27.52073h-2.20274V17.732l-.36478-.09884c-.66894,1.24128-1.34582,2.47837-2.00489,3.7249q-1.24708,2.3586-2.47006,4.73c-.427.82369-.73592,1.59426-2.0009,1.55075-1.18174-.04064-1.3388-.84392-1.70344-1.545-1.53274-2.94688-3.03754-5.90831-4.75968-8.84659V27.46478h-2.25416V14.72845c.80108,0,1.58842.06213,2.36159-.016a1.60323,1.60323,0,0,1,1.82463,1.10665c1.52714,3.20386,3.1471,6.36347,4.79652,9.66833,1.39943-2.70053,2.75772-5.32136,4.11532-7.94255.06461-.1247.12173-.25327.18552-.37844,1.34626-2.64306,1.34633-2.643,4.47707-2.33965Z"/><path d="M467.29438,27.49083h-2.64832v-11.123h-6.04215l-.08774-1.52538h14.90055v1.456h-6.12234Z"/></svg>