<svg width="240" height="135" version="1.1" xmlns="http://www.w3.org/2000/svg"><path fill="rgb(0,0,0)" stroke="rgb(0,0,0)" stroke-width="1" opacity="0" d="M 0 0 L 240 0 L 240 135 L 0 135 L 0 0 Z M 19 64 Q 18 69 21 70 L 34 70 L 34 94 L 40 94 L 40 94 L 40 70 L 54 70 L 54 65 L 54 64 L 19 64 Z M 66 64 L 45 93 Q 45 95 52 94 L 69 70 L 73 77 Q 73 79 67 78 L 63 83 L 77 83 L 84 93 L 85 94 L 91 94 L 73 67 Q 72 63 66 64 Z M 97 64 L 92 68 L 92 91 L 93 93 L 98 95 L 124 95 L 125 94 Q 125 89 125 89 L 98 89 L 98 70 L 125 70 L 125 65 L 125 64 L 97 64 Z M 129 64 L 129 70 L 143 70 L 143 94 L 149 94 L 149 94 L 149 70 L 164 70 L 164 65 L 164 64 L 129 64 Z M 167 64 L 167 94 Q 168 96 173 95 L 173 65 L 173 64 L 167 64 Z M 182 64 L 177 68 L 177 91 L 178 93 L 183 95 L 210 95 L 210 90 L 210 89 L 183 89 L 183 70 L 210 70 L 210 65 L 210 64 L 182 64 Z M 213 64 L 214 65 L 215 70 L 215 65 L 218 65 L 213 64 Z M 219 64 L 220 70 L 221 66 Q 222 63 219 64 Z M 226 64 L 224 66 Q 223 68 226 67 L 225 69 L 227 69 L 227 64 L 226 64 Z M 224 67 L 222 70 L 224 69 L 224 67 Z "></path><path fill="rgb(0,0,0)" stroke="rgb(0,0,0)" stroke-width="1" opacity="0.7568627450980392" d="M 19.5 64 L 20 69 L 34 69.5 L 20.5 70 Q 17.6 68.6 19.5 64 Z "></path><path fill="rgb(0,0,0)" stroke="rgb(0,0,0)" stroke-width="1" opacity="0.7568627450980392" d="M 96.5 64 L 124.5 64 L 125 64.5 L 125 70 L 98 70 L 98 88.5 L 97 88.5 L 97 70.5 L 98.5 69 L 123.5 69 L 124 65 L 96.5 65 L 96.5 64 Z "></path><path fill="rgb(0,0,0)" stroke="rgb(0,0,0)" stroke-width="1" opacity="0.7568627450980392" d="M 163.5 64 L 164 70 L 149.5 70 L 148.5 71 L 149.5 69 L 163 69 L 163.5 64 Z "></path><path fill="rgb(0,0,0)" stroke="rgb(0,0,0)" stroke-width="1" opacity="0.7568627450980392" d="M 167.5 64 L 168 94 L 173 94.5 L 168.5 95 L 167 93.5 L 167.5 64 Z "></path><path fill="rgb(0,0,0)" stroke="rgb(0,0,0)" stroke-width="1" opacity="0.7568627450980392" d="M 181.5 64 L 209.5 64 L 210 64.5 L 210 70 L 183 70 L 183 88.5 L 182 88.5 L 182 70.5 L 183.5 69 L 208.5 69 L 209 65 L 181.5 65 L 181.5 64 Z "></path><path fill="rgb(0,0,0)" stroke="rgb(0,0,0)" stroke-width="1" opacity="0.7568627450980392" d="M 212.5 64 L 218 64.5 L 215 65 L 214.5 70 L 214 65 L 212.5 64 Z "></path><path fill="rgb(0,0,0)" stroke="rgb(0,0,0)" stroke-width="1" opacity="0.7568627450980392" d="M 219 64 Q 221.7 62.9 221 65.5 L 222.5 68 L 225.5 64 L 227 64 L 227 69 L 225 68.5 L 225.5 67 Q 223.3 66.3 224 68.5 L 222 69.5 L 220.5 66 L 219.5 70 L 219 64 Z "></path><path fill="rgb(0,0,0)" stroke="rgb(0,0,0)" stroke-width="1" opacity="0.7568627450980392" d="M 64.5 65 L 63.5 67 L 64.5 65 Z "></path><path fill="rgb(0,0,0)" stroke="rgb(0,0,0)" stroke-width="1" opacity="0.7568627450980392" d="M 94.5 65 L 93 67.5 L 92.5 69 L 92 67.5 L 94.5 65 Z "></path><path fill="rgb(0,0,0)" stroke="rgb(0,0,0)" stroke-width="1" opacity="0.7568627450980392" d="M 179.5 65 L 178 67.5 L 177.5 69 L 177 67.5 L 179.5 65 Z "></path><path fill="rgb(0,0,0)" stroke="rgb(0,0,0)" stroke-width="1" opacity="0.7568627450980392" d="M 62.5 68 L 61.5 70 L 62.5 68 Z "></path><path fill="rgb(0,0,0)" stroke="rgb(0,0,0)" stroke-width="1" opacity="0.7568627450980392" d="M 39 69 L 54 69.5 L 40 70 L 39.5 94 L 39 69 Z "></path><path fill="rgb(0,0,0)" stroke="rgb(0,0,0)" stroke-width="1" opacity="0.7568627450980392" d="M 74.5 69 L 75.5 71 L 74.5 69 Z "></path><path fill="rgb(0,0,0)" stroke="rgb(0,0,0)" stroke-width="1" opacity="0.7568627450980392" d="M 129.5 69 L 142.5 69 L 144 70.5 L 143.5 94 L 143 70 L 129.5 70 L 129.5 69 Z "></path><path fill="rgb(0,0,0)" stroke="rgb(0,0,0)" stroke-width="1" opacity="0.7568627450980392" d="M 67.5 70 L 66.5 72 L 67.5 70 Z "></path><path fill="rgb(0,0,0)" stroke="rgb(0,0,0)" stroke-width="1" opacity="0.7568627450980392" d="M 60.5 71 L 59.5 73 L 60.5 71 Z "></path><path fill="rgb(0,0,0)" stroke="rgb(0,0,0)" stroke-width="1" opacity="0.7568627450980392" d="M 76.5 72 L 77.5 74 L 76.5 72 Z "></path><path fill="rgb(0,0,0)" stroke="rgb(0,0,0)" stroke-width="1" opacity="0.7568627450980392" d="M 65.5 73 L 64.5 75 L 65.5 73 Z "></path><path fill="rgb(0,0,0)" stroke="rgb(0,0,0)" stroke-width="1" opacity="0.7568627450980392" d="M 71.5 74 L 72.5 76 L 71.5 74 Z "></path><path fill="rgb(0,0,0)" stroke="rgb(0,0,0)" stroke-width="1" opacity="0.7568627450980392" d="M 57.5 75 L 56.5 77 L 57.5 75 Z "></path><path fill="rgb(0,0,0)" stroke="rgb(0,0,0)" stroke-width="1" opacity="0.7568627450980392" d="M 78.5 75 L 79.5 77 L 78.5 75 Z "></path><path fill="rgb(0,0,0)" stroke="rgb(0,0,0)" stroke-width="1" opacity="0.7568627450980392" d="M 63.5 76 L 62.5 78 L 63.5 76 Z "></path><path fill="rgb(0,0,0)" stroke="rgb(0,0,0)" stroke-width="1" opacity="0.7568627450980392" d="M 55.5 78 L 54.5 80 L 55.5 78 Z "></path><path fill="rgb(0,0,0)" stroke="rgb(0,0,0)" stroke-width="1" opacity="0.7568627450980392" d="M 66.5 78 L 65.5 80 L 66.5 78 Z "></path><path fill="rgb(0,0,0)" stroke="rgb(0,0,0)" stroke-width="1" opacity="0.7568627450980392" d="M 80.5 78 L 81.5 80 L 80.5 78 Z "></path><path fill="rgb(0,0,0)" stroke="rgb(0,0,0)" stroke-width="1" opacity="0.7568627450980392" d="M 60.5 80 L 59.5 82 L 60.5 80 Z "></path><path fill="rgb(0,0,0)" stroke="rgb(0,0,0)" stroke-width="1" opacity="0.7568627450980392" d="M 53.5 81 L 52.5 83 L 53.5 81 Z "></path><path fill="rgb(0,0,0)" stroke="rgb(0,0,0)" stroke-width="1" opacity="0.7568627450980392" d="M 82.5 81 L 83.5 83 L 82.5 81 Z "></path><path fill="rgb(0,0,0)" stroke="rgb(0,0,0)" stroke-width="1" opacity="0.7568627450980392" d="M 58.5 83 L 57.5 85 L 58.5 83 Z "></path><path fill="rgb(0,0,0)" stroke="rgb(0,0,0)" stroke-width="1" opacity="0.7568627450980392" d="M 77.5 83 L 78.5 85 L 77.5 83 Z "></path><path fill="rgb(0,0,0)" stroke="rgb(0,0,0)" stroke-width="1" opacity="0.7568627450980392" d="M 51.5 84 L 50.5 86 L 51.5 84 Z "></path><path fill="rgb(0,0,0)" stroke="rgb(0,0,0)" stroke-width="1" opacity="0.7568627450980392" d="M 85.5 85 L 86.5 87 L 85.5 85 Z "></path><path fill="rgb(0,0,0)" stroke="rgb(0,0,0)" stroke-width="1" opacity="0.7568627450980392" d="M 56.5 86 L 55.5 88 L 56.5 86 Z "></path><path fill="rgb(0,0,0)" stroke="rgb(0,0,0)" stroke-width="1" opacity="0.7568627450980392" d="M 79.5 86 L 80.5 88 L 79.5 86 Z "></path><path fill="rgb(0,0,0)" stroke="rgb(0,0,0)" stroke-width="1" opacity="0.7568627450980392" d="M 87.5 88 L 88.5 90 L 87.5 88 Z "></path><path fill="rgb(0,0,0)" stroke="rgb(0,0,0)" stroke-width="1" opacity="0.7568627450980392" d="M 54.5 89 L 53.5 91 L 54.5 89 Z "></path><path fill="rgb(0,0,0)" stroke="rgb(0,0,0)" stroke-width="1" opacity="0.7568627450980392" d="M 124.5 89 L 125 93.5 L 123.5 95 L 97.5 95 L 97.5 94 L 123.5 94 L 124.5 89 Z "></path><path fill="rgb(0,0,0)" stroke="rgb(0,0,0)" stroke-width="1" opacity="0.7568627450980392" d="M 209.5 89 L 210 95 L 182 94.5 L 209 94 L 209.5 89 Z "></path><path fill="rgb(0,0,0)" stroke="rgb(0,0,0)" stroke-width="1" opacity="0.7568627450980392" d="M 82.5 90 L 83.5 92 L 82.5 90 Z "></path><path fill="rgb(0,0,0)" stroke="rgb(0,0,0)" stroke-width="1" opacity="0.7568627450980392" d="M 46.5 91 L 45.5 93 L 46.5 91 Z "></path><path fill="rgb(0,0,0)" stroke="rgb(0,0,0)" stroke-width="1" opacity="0.7568627450980392" d="M 89.5 91 L 90.5 93 L 89.5 91 Z "></path><path fill="rgb(0,0,0)" stroke="rgb(0,0,0)" stroke-width="1" opacity="0.7568627450980392" d="M 52.5 92 L 51.5 94 L 52.5 92 Z "></path><path fill="rgb(0,0,0)" stroke="rgb(0,0,0)" stroke-width="1" opacity="0.7568627450980392" d="M 93.5 92 L 94.5 94 L 93.5 92 Z "></path><path fill="rgb(0,0,0)" stroke="rgb(0,0,0)" stroke-width="1" opacity="0.7568627450980392" d="M 178.5 92 L 181 93.5 L 179.5 94 L 178.5 92 Z "></path><path fill="rgb(0,0,0)" stroke="rgb(0,0,0)" stroke-width="1" opacity="0.996078431372549" d="M 20 64 L 53.5 64 L 54 69 L 39 69 L 39 93.5 L 34 94 L 34 69 L 20 69 L 20 64 Z "></path><path fill="rgb(0,0,0)" stroke="rgb(0,0,0)" stroke-width="1" opacity="0.996078431372549" d="M 65 64 Q 70.4 62.5 72 65.5 L 91 93.5 L 85.5 94 L 77.5 83 L 64.5 83 L 64 81.5 Q 66 76.5 74 77.5 L 68.5 70 L 66 71.5 L 50.5 94 L 45 93.5 L 65 64 Z "></path><path fill="rgb(0,0,0)" stroke="rgb(0,0,0)" stroke-width="1" opacity="0.996078431372549" d="M 130.5 64 L 162.5 64 L 163 69 L 149.5 69 L 148 70.5 L 149 71.5 L 149 94 L 144 93.5 L 144 70.5 L 142.5 69 L 129 69 Q 128 65.2 130.5 64 Z "></path><path fill="rgb(0,0,0)" stroke="rgb(0,0,0)" stroke-width="1" opacity="0.996078431372549" d="M 168 64 L 173 64.5 L 173 94 L 168 93.5 L 168 64 Z "></path><path fill="rgb(0,0,0)" stroke="rgb(0,0,0)" stroke-width="1" opacity="0.996078431372549" d="M 95.5 65 L 123.5 65 L 124 69 L 98.5 69 L 97 70.5 L 97 89 L 123.5 89 L 124 94 L 95.5 94 L 93 91.5 L 92 89.5 L 92 69.5 L 95.5 65 Z "></path><path fill="rgb(0,0,0)" stroke="rgb(0,0,0)" stroke-width="1" opacity="0.996078431372549" d="M 180.5 65 L 208.5 65 L 209 69 L 183.5 69 L 182 70.5 L 182 89 L 208.5 89 L 209 94 L 181.5 94 L 178 91.5 L 177 88.5 L 177 69.5 L 180.5 65 Z "></path></svg>