<?xml version="1.0" encoding="UTF-8" standalone="no"?>
<svg
   xmlns:dc="http://purl.org/dc/elements/1.1/"
   xmlns:cc="http://creativecommons.org/ns#"
   xmlns:rdf="http://www.w3.org/1999/02/22-rdf-syntax-ns#"
   xmlns:svg="http://www.w3.org/2000/svg"
   xmlns="http://www.w3.org/2000/svg"
   viewBox="0 0 380.48001 54.373333"
   height="54.373333"
   width="380.48001"
   xml:space="preserve"
   id="svg2"
   version="1.1"><metadata
     id="metadata8"><rdf:RDF><cc:Work
         rdf:about=""><dc:format>image/svg+xml</dc:format><dc:type
           rdf:resource="http://purl.org/dc/dcmitype/StillImage" /></cc:Work></rdf:RDF></metadata><defs
     id="defs6" /><g
     transform="matrix(1.3333333,0,0,-1.3333333,0,54.373333)"
     id="g10"><g
       transform="scale(0.1)"
       id="g12"><path
         id="path14"
         style="fill:#f9a70d;fill-opacity:1;fill-rule:nonzero;stroke:none"
         d="M 2853.6,97.8828 C 2853.6,43.8164 2809.79,0 2755.72,0 c -54.05,0 -97.88,43.8164 -97.88,97.8828 0,54.0702 43.83,97.8872 97.88,97.8872 54.07,0 97.88,-43.817 97.88,-97.8872" /><path
         id="path16"
         style="fill:#231f20;fill-opacity:1;fill-rule:nonzero;stroke:none"
         d="m 76.1836,327.637 v -90.02 H 244.121 v -69.98 H 76.1836 V 7.83203 H 0 V 399.883 H 277.563 V 327.637 H 76.1836" /><path
         id="path18"
         style="fill:#231f20;fill-opacity:1;fill-rule:nonzero;stroke:none"
         d="M 1109.13,399.883 V 168.027 C 1109.13,59.9414 1046.75,0 945.867,0 844.41,0 782.613,60.5078 782.613,168.027 v 231.856 h 79.883 V 168.027 c 0,-65.547 28.559,-96.3278 83.371,-96.3278 55.393,0 83.953,30.7808 83.953,96.3278 v 231.856 h 79.31" /><path
         id="path20"
         style="fill:#231f20;fill-opacity:1;fill-rule:nonzero;stroke:none"
         d="M 1503.43,399.883 V 7.85156 h -69.44 c 0,0 -169.41,258.18344 -169.96,258.18344 h -2.15 V 7.85156 h -72.62 V 399.883 h 69.44 c 0,0 169.69,-255.957 170.25,-255.957 h 1.12 v 255.957 h 73.36" /><path
         id="path22"
         style="fill:#231f20;fill-opacity:1;fill-rule:nonzero;stroke:none"
         d="m 1736.24,80.0664 c 62.73,0 108.65,44.2576 108.65,122.0896 0,80.117 -48.16,126.035 -110.89,126.035 h -72.8 V 80.0664 Z m -5.6,319.8166 c 111.45,0 193.22,-78.43 193.22,-197.727 0,-118.7107 -80.64,-194.31225 -190.98,-194.31225 H 1585.03 V 399.883 h 145.61" /><path
         id="path24"
         style="fill:#231f20;fill-opacity:1;fill-rule:nonzero;stroke:none"
         d="m 2072.7,210.012 h 97.12 c 39.77,0 59.94,27.437 59.94,59.375 0,32.476 -20.73,58.804 -59.94,58.804 H 2072.7 Z M 2237.04,7.84375 2165.9,142.258 h -93.2 V 7.84375 h -76.18 V 399.883 h 166.03 c 89.05,0 146.19,-51.535 146.19,-130.496 0,-53.203 -26.33,-92.407 -70.03,-112.016 L 2322.74,7.84375 h -85.7" /><path
         id="path26"
         style="fill:#231f20;fill-opacity:1;fill-rule:nonzero;stroke:none"
         d="M 2683.11,399.883 2544.22,181.453 V 7.84375 h -76.17 V 181.453 l -138.91,218.43 h 83.46 c 0,0 92.98,-150.11 93.53,-150.11 h 0.56 c 0.56,0 92.97,150.11 92.97,150.11 h 83.45" /><path
         id="path28"
         style="fill:#231f20;fill-opacity:1;fill-rule:nonzero;stroke:none"
         d="m 519.688,76.6484 c 70.625,0 127.894,57.2696 127.894,127.8716 0,70.648 -57.269,127.89 -127.894,127.89 -70.622,0 -127.879,-57.242 -127.879,-127.89 0,-70.602 57.257,-127.8716 127.879,-127.8716 z M 722.941,204.52 C 722.941,92.2852 631.949,1.30078 519.691,1.30078 407.457,1.30078 316.445,92.2852 316.445,204.52 c 0,112.257 91.012,203.257 203.246,203.257 112.258,0 203.25,-91 203.25,-203.257" /></g></g></svg>