<?xml version="1.0" encoding="UTF-8" standalone="no"?>
<svg
   fill="none"
   stroke-linecap="square"
   stroke-miterlimit="10"
   version="1.1"
   viewBox="0 0 177.22973 224.865"
   id="svg196"
   sodipodi:docname="threejs.svg"
   width="177.22974"
   height="224.86501"
   inkscape:version="1.2.1 (9c6d41e, 2022-07-14)"
   xmlns:inkscape="http://www.inkscape.org/namespaces/inkscape"
   xmlns:sodipodi="http://sodipodi.sourceforge.net/DTD/sodipodi-0.dtd"
   xmlns="http://www.w3.org/2000/svg"
   xmlns:svg="http://www.w3.org/2000/svg">
  <defs
     id="defs200" />
  <sodipodi:namedview
     id="namedview198"
     pagecolor="#ffffff"
     bordercolor="#666666"
     borderopacity="1.0"
     inkscape:showpageshadow="2"
     inkscape:pageopacity="0.0"
     inkscape:pagecheckerboard="0"
     inkscape:deskcolor="#d1d1d1"
     showgrid="false"
     inkscape:zoom="1.040702"
     inkscape:cx="87.921421"
     inkscape:cy="90.323646"
     inkscape:window-width="910"
     inkscape:window-height="638"
     inkscape:window-x="1784"
     inkscape:window-y="144"
     inkscape:window-maximized="0"
     inkscape:current-layer="svg196" />
  <g
     transform="translate(-17.807077,-23.670088)"
     fill-rule="evenodd"
     stroke="#000000"
     stroke-linecap="butt"
     stroke-linejoin="round"
     stroke-width="4"
     id="g194">
    <path
       d="M 63.02,200.61 19.807,25.67 193.037,75.544 Z"
       id="path182" />
    <path
       d="m 106.39,50.612 21.591,87.496 -86.567,-24.945 z"
       id="path184" />
    <path
       d="M 84.91,125.03 74.186,81.565 117.194,93.911 Z"
       id="path186" />
    <path
       d="M 63.458,38.153 74.182,81.618 31.174,69.272 Z"
       id="path188" />
    <path
       d="m 149.47,62.93 10.724,43.465 -43.008,-12.346 z"
       id="path190" />
    <path
       d="M 84.915,125.06 95.639,168.525 52.631,156.179 Z"
       id="path192" />
  </g>
  <g
     aria-label="three.js"
     id="text373"
     style="font-size:40px;fill:#000000"
     transform="translate(-26.771077,-27.922788)">
    <path
       d="m 41.429366,227.42779 h 7.84 v 2.76 h -7.84 v 8.64 q 0,1.4 0.2,2.28 0.2,0.88 0.64,1.44 0.48,0.52 1.2,0.72 0.72,0.2 1.76,0.2 1.44,0 2.32,-0.24 0.88,-0.24 1.68,-0.64 l 0.48,2.8 q -0.56,0.24 -1.8,0.64 -1.2,0.4 -3,0.4 -2.08,0 -3.4,-0.48 -1.32,-0.48 -2.08,-1.44 -0.72,-0.96 -1,-2.36 -0.28,-1.44 -0.28,-3.32 v -8.64 h -3.92 v -2.76 h 3.92 v -5.2 l 3.28,-0.56 z"
       style="-inkscape-font-specification:'UbuntuMonoDerivativePowerline Nerd Font, Normal'"
       id="path533" />
    <path
       d="m 54.54929,245.98779 v -27.16 l 3.32,-0.56 v 9.44 q 0.8,-0.32 1.8,-0.48 1,-0.2 1.96,-0.2 2.12,0 3.52,0.64 1.44,0.6 2.28,1.72 0.84,1.12 1.2,2.68 0.36,1.56 0.36,3.44 v 10.48 h -3.28 v -9.76 q 0,-3.44 -0.96,-4.84 -0.96,-1.44 -3.44,-1.44 -1.04,0 -2.04,0.24 -0.96,0.2 -1.4,0.4 v 15.4 z"
       style="-inkscape-font-specification:'UbuntuMonoDerivativePowerline Nerd Font, Normal'"
       id="path535" />
    <path
       d="m 75.989213,245.98779 v -17.56 q 4.08,-1.4 8.24,-1.4 1.28,0 2.44,0.12 1.16,0.08 2.56,0.4 l -0.6,2.92 q -1.28,-0.36 -2.28,-0.44 -0.96,-0.12 -2.12,-0.12 -2.44,0 -4.96,0.68 v 15.4 z"
       style="-inkscape-font-specification:'UbuntuMonoDerivativePowerline Nerd Font, Normal'"
       id="path537" />
    <path
       d="m 102.06914,226.98779 q 3.76,0 5.8,2.36 2.04,2.32 2.04,7.08 v 1.16 H 96.629137 q 0.2,2.88 1.88,4.4 1.720003,1.48 4.800003,1.48 1.76,0 3,-0.28 1.24,-0.28 1.88,-0.6 l 0.44,2.8 q -0.6,0.32 -2.16,0.68 -1.56,0.36 -3.52,0.36 -2.4,0 -4.240003,-0.72 -1.8,-0.76 -3,-2.04 -1.2,-1.28 -1.8,-3.04 -0.6,-1.8 -0.6,-3.88 0,-2.48 0.76,-4.32 0.76,-1.84 2,-3.04 1.24,-1.2 2.8,-1.8 1.560003,-0.6 3.200003,-0.6 z m 4.48,7.92 q 0,-2.36 -1.24,-3.72 -1.24,-1.4 -3.28,-1.4 -1.16,0 -2.120003,0.44 -0.92,0.44 -1.6,1.16 -0.68,0.72 -1.08,1.64 -0.4,0.92 -0.52,1.88 z"
       style="-inkscape-font-specification:'UbuntuMonoDerivativePowerline Nerd Font, Normal'"
       id="path539" />
    <path
       d="m 122.06906,226.98779 q 3.76,0 5.8,2.36 2.04,2.32 2.04,7.08 v 1.16 h -13.28 q 0.2,2.88 1.88,4.4 1.72,1.48 4.8,1.48 1.76,0 3,-0.28 1.24,-0.28 1.88,-0.6 l 0.44,2.8 q -0.6,0.32 -2.16,0.68 -1.56,0.36 -3.52,0.36 -2.4,0 -4.24,-0.72 -1.8,-0.76 -3,-2.04 -1.2,-1.28 -1.8,-3.04 -0.6,-1.8 -0.6,-3.88 0,-2.48 0.76,-4.32 0.76,-1.84 2,-3.04 1.24,-1.2 2.8,-1.8 1.56,-0.6 3.2,-0.6 z m 4.48,7.92 q 0,-2.36 -1.24,-3.72 -1.24,-1.4 -3.28,-1.4 -1.16,0 -2.12,0.44 -0.92,0.44 -1.6,1.16 -0.68,0.72 -1.08,1.64 -0.4,0.92 -0.52,1.88 z"
       style="-inkscape-font-specification:'UbuntuMonoDerivativePowerline Nerd Font, Normal'"
       id="path541" />
    <path
       d="m 144.66898,243.42779 q 0,1.2 -0.8,2.12 -0.8,0.92 -2.12,0.92 -1.36,0 -2.16,-0.92 -0.8,-0.92 -0.8,-2.12 0,-1.24 0.8,-2.16 0.8,-0.92 2.16,-0.92 1.32,0 2.12,0.92 0.8,0.92 0.8,2.16 z"
       style="-inkscape-font-specification:'UbuntuMonoDerivativePowerline Nerd Font, Normal'"
       id="path543" />
    <path
       d="m 164.02891,224.54779 q -1.04,0 -1.8,-0.72 -0.76,-0.72 -0.76,-1.96 0,-1.24 0.76,-1.96 0.76,-0.72 1.8,-0.72 1.08,0 1.8,0.72 0.76,0.72 0.76,1.96 0,1.24 -0.76,1.96 -0.72,0.72 -1.8,0.72 z m -7.76,5.64 v -2.76 h 10.8 v 18.36 q 0,1.92 -0.56,3.24 -0.52,1.36 -1.44,2.2 -0.88,0.84 -2.08,1.2 -1.16,0.36 -2.48,0.36 -1.52,0 -3.08,-0.32 -1.52,-0.32 -2.88,-1 l 1,-2.8 q 1,0.48 2.2,0.8 1.24,0.36 2.36,0.36 1.6,0 2.64,-0.84 1.04,-0.8 1.04,-3.16 v -15.64 z"
       style="-inkscape-font-specification:'UbuntuMonoDerivativePowerline Nerd Font, Normal'"
       id="path545" />
    <path
       d="m 185.74883,241.34779 q 0,-1 -0.84,-1.64 -0.8,-0.64 -2.04,-1.12 -1.2,-0.48 -2.64,-0.92 -1.44,-0.48 -2.68,-1.16 -1.2,-0.68 -2.04,-1.68 -0.8,-1 -0.8,-2.6 0,-2.24 1.8,-3.72 1.84,-1.52 5.72,-1.52 1.52,0 3.12,0.24 1.64,0.2 2.8,0.56 l -0.6,2.96 q -0.32,-0.16 -0.88,-0.32 -0.56,-0.2 -1.28,-0.32 -0.72,-0.16 -1.56,-0.24 -0.8,-0.08 -1.56,-0.08 -4.32,0 -4.32,2.36 0,0.84 0.8,1.44 0.84,0.56 2.08,1.04 1.24,0.48 2.68,1 1.44,0.48 2.68,1.2 1.24,0.72 2.04,1.76 0.84,1 0.84,2.56 0,2.52 -1.96,3.92 -1.96,1.36 -6.2,1.36 -1.92,0 -3.52,-0.32 -1.6,-0.32 -3.04,-0.96 l 0.64,-3 q 1.4,0.64 2.92,1.08 1.56,0.4 3.32,0.4 4.52,0 4.52,-2.28 z"
       style="-inkscape-font-specification:'UbuntuMonoDerivativePowerline Nerd Font, Normal'"
       id="path547" />
  </g>
</svg>
