<?xml version="1.0" encoding="UTF-8" standalone="no"?>
<svg
   role="img"
   viewBox="167.05 354.3 116.624 160.16887"
   version="1.1"
   id="svg3"
   sodipodi:docname="timecode.svg"
   width="116.624"
   height="160.16887"
   inkscape:version="1.4 (e7c3feb1, 2024-10-09)"
   xmlns:inkscape="http://www.inkscape.org/namespaces/inkscape"
   xmlns:sodipodi="http://sodipodi.sourceforge.net/DTD/sodipodi-0.dtd"
   xmlns="http://www.w3.org/2000/svg"
   xmlns:svg="http://www.w3.org/2000/svg">
  <defs
     id="defs3" />
  <sodipodi:namedview
     id="namedview3"
     pagecolor="#ffffff"
     bordercolor="#000000"
     borderopacity="0.25"
     inkscape:showpageshadow="2"
     inkscape:pageopacity="0.0"
     inkscape:pagecheckerboard="0"
     inkscape:deskcolor="#d1d1d1"
     inkscape:zoom="0.97"
     inkscape:cx="58.247423"
     inkscape:cy="79.896907"
     inkscape:current-layer="svg3" />
  <path
     fill="#be1e2d"
     d="m 191.703,390.71488 c -3.329,3.328 -6.416,3.916 -8.57,1.762 -1.913,-1.912 -1.431,-5.016 1.777,-8.284 3.299,-3.299 6.522,-3.661 8.511,-1.672 2.048,2.048 1.4,5.076 -1.718,8.194 z m -5.467,-5.166 c -2.545,2.545 -3.208,4.773 -2.003,5.979 1.34,1.341 3.57,0.407 6.07,-2.093 2.41,-2.41 3.389,-4.595 2.003,-5.979 -1.145,-1.146 -3.404,-0.573 -6.07,2.093 z m 12.894,12.592 c -3.329,3.329 -6.416,3.917 -8.569,1.764 -1.913,-1.914 -1.431,-5.017 1.777,-8.285 3.299,-3.299 6.522,-3.66 8.511,-1.672 2.047,2.048 1.399,5.076 -1.719,8.193 z m -5.467,-5.166 c -2.545,2.546 -3.208,4.775 -2.003,5.98 1.34,1.34 3.569,0.406 6.069,-2.094 2.41,-2.41 3.39,-4.594 2.004,-5.98 -1.145,-1.144 -3.404,-0.572 -6.07,2.094 z m 2.26,10.424 c 0.557,-0.558 1.325,-0.572 1.837,-0.061 0.542,0.542 0.497,1.28 -0.06,1.838 -0.527,0.527 -1.281,0.587 -1.838,0.029 -0.512,-0.511 -0.467,-1.279 0.061,-1.806 z m 5.316,-5.318 c 0.557,-0.558 1.325,-0.572 1.837,-0.06 0.542,0.541 0.497,1.279 -0.06,1.837 -0.527,0.527 -1.281,0.587 -1.838,0.03 -0.511,-0.511 -0.466,-1.279 0.061,-1.807 z m -3.388,8.783 0.813,-0.812 2.049,0.029 c 4.88,0.121 7.29,0 8.766,-1.477 0.994,-0.994 1.446,-2.379 -0.016,-3.84 -0.889,-0.889 -2.077,-1.176 -2.907,-1.251 l 0.512,-1.356 a 6.133,6.133 0 0 1 3.751,1.764 c 2.109,2.108 1.551,4.443 0.15,5.844 -1.807,1.808 -4.579,1.959 -8.63,1.883 l -1.492,-0.045 -0.03,0.029 4.384,4.384 -1.1,1.101 z m 21.947,4.595 -3.736,-3.736 -2.892,2.139 c 0.256,0.195 0.482,0.393 0.843,0.754 0.769,0.769 1.355,1.656 1.582,2.636 0.346,1.189 0.12,2.681 -1.1,3.901 -1.913,1.912 -4.865,1.822 -6.988,-0.301 -1.07,-1.07 -1.657,-2.26 -1.838,-3.043 l 1.341,-0.678 c 0.166,0.647 0.662,1.746 1.566,2.65 1.234,1.234 3.133,1.506 4.428,0.181 1.265,-1.265 1.295,-3.013 -0.648,-4.956 a 14.798,14.798 0 0 0 -1.461,-1.279 l 5.332,-4.066 4.685,4.684 z m -6.205,9.61 c 0.557,-0.557 1.325,-0.572 1.837,-0.061 0.542,0.543 0.497,1.281 -0.06,1.838 -0.527,0.527 -1.281,0.588 -1.838,0.03 -0.511,-0.511 -0.466,-1.28 0.061,-1.807 z m 5.317,-5.317 c 0.557,-0.558 1.325,-0.573 1.837,-0.061 0.542,0.542 0.497,1.28 -0.06,1.838 -0.527,0.527 -1.281,0.587 -1.838,0.029 -0.511,-0.511 -0.467,-1.278 0.061,-1.806 z m 8.044,3.104 -0.03,-0.031 -2.621,-0.783 0.754,-1.264 3.283,0.994 1.129,1.129 -9.791,9.791 -1.28,-1.281 z m -4.006,13.105 0.813,-0.813 2.048,0.03 c 4.88,0.12 7.29,-0.001 8.766,-1.477 0.994,-0.994 1.446,-2.38 -0.015,-3.841 -0.889,-0.889 -2.078,-1.175 -2.907,-1.251 l 0.512,-1.355 a 6.13,6.13 0 0 1 3.75,1.762 c 2.109,2.109 1.551,4.444 0.15,5.846 -1.807,1.807 -4.579,1.957 -8.63,1.883 l -1.492,-0.046 -0.03,0.03 4.383,4.383 -1.1,1.1 z m 8.315,6.778 c 0.557,-0.557 1.325,-0.572 1.837,-0.061 0.542,0.543 0.497,1.281 -0.06,1.838 -0.527,0.527 -1.281,0.588 -1.838,0.03 -0.511,-0.512 -0.467,-1.28 0.061,-1.807 z m 5.317,-5.317 c 0.557,-0.558 1.325,-0.572 1.837,-0.061 0.542,0.542 0.497,1.28 -0.06,1.838 -0.527,0.527 -1.281,0.587 -1.838,0.029 -0.512,-0.511 -0.467,-1.279 0.061,-1.806 z m -3.388,8.782 0.813,-0.813 2.048,0.029 c 4.88,0.121 7.29,0 8.766,-1.476 0.994,-0.994 1.446,-2.38 -0.016,-3.841 -0.889,-0.889 -2.077,-1.175 -2.907,-1.25 l 0.512,-1.356 a 6.132,6.132 0 0 1 3.751,1.763 c 2.109,2.109 1.551,4.443 0.15,5.845 -1.807,1.808 -4.579,1.958 -8.63,1.882 l -1.492,-0.045 -0.03,0.029 4.384,4.385 -1.1,1.1 z m 9.25,6.237 c 0.149,0.603 0.631,1.837 1.566,2.772 1.687,1.687 3.299,1.158 4.112,0.315 1.355,-1.386 0.708,-3.208 -0.572,-4.488 l -0.738,-0.738 0.994,-0.994 0.738,0.738 c 0.964,0.964 2.681,1.687 3.84,0.526 0.784,-0.783 0.98,-1.973 -0.24,-3.193 -0.783,-0.783 -1.883,-1.189 -2.606,-1.311 l 0.603,-1.324 c 0.903,0.15 2.274,0.768 3.329,1.822 1.928,1.928 1.657,3.945 0.466,5.137 -1.024,1.023 -2.5,1.265 -4.127,0.512 l -0.03,0.029 c 0.979,1.432 1.04,3.299 -0.316,4.686 -1.566,1.566 -4.172,1.701 -6.507,-0.634 -1.099,-1.099 -1.717,-2.409 -1.882,-3.208 z m -37.239,-71.226 c -3.329,3.328 -6.416,3.916 -8.57,1.762 -1.913,-1.912 -1.431,-5.016 1.777,-8.284 3.299,-3.299 6.522,-3.661 8.511,-1.672 2.048,2.048 1.4,5.076 -1.718,8.194 z m -5.467,-5.166 c -2.545,2.545 -3.208,4.773 -2.003,5.979 1.34,1.341 3.57,0.407 6.07,-2.093 2.41,-2.41 3.389,-4.595 2.003,-5.979 -1.145,-1.146 -3.404,-0.573 -6.07,2.093 z m 12.894,12.592 c -3.329,3.329 -6.416,3.917 -8.569,1.764 -1.913,-1.914 -1.431,-5.017 1.777,-8.285 3.299,-3.299 6.522,-3.66 8.511,-1.672 2.047,2.048 1.399,5.076 -1.719,8.193 z m -5.467,-5.166 c -2.545,2.546 -3.208,4.775 -2.003,5.98 1.34,1.34 3.569,0.406 6.069,-2.094 2.41,-2.41 3.39,-4.594 2.004,-5.98 -1.145,-1.144 -3.404,-0.572 -6.07,2.094 z m 2.26,10.424 c 0.557,-0.558 1.325,-0.572 1.837,-0.061 0.542,0.542 0.497,1.28 -0.06,1.838 -0.527,0.527 -1.281,0.587 -1.838,0.029 -0.512,-0.511 -0.467,-1.279 0.061,-1.806 z m 5.316,-5.318 c 0.557,-0.558 1.325,-0.572 1.837,-0.06 0.542,0.541 0.497,1.279 -0.06,1.837 -0.527,0.527 -1.281,0.587 -1.838,0.03 -0.511,-0.511 -0.466,-1.279 0.061,-1.807 z m -3.388,8.783 0.813,-0.812 2.049,0.029 c 4.88,0.121 7.29,0 8.766,-1.477 0.994,-0.994 1.446,-2.379 -0.016,-3.84 -0.889,-0.889 -2.077,-1.176 -2.907,-1.251 l 0.512,-1.356 a 6.133,6.133 0 0 1 3.751,1.764 c 2.109,2.108 1.551,4.443 0.15,5.844 -1.807,1.808 -4.579,1.959 -8.63,1.883 l -1.492,-0.045 -0.03,0.029 4.384,4.384 -1.1,1.101 z m 21.947,4.595 -3.736,-3.736 -2.892,2.139 c 0.256,0.195 0.482,0.393 0.843,0.754 0.769,0.769 1.355,1.656 1.582,2.636 0.346,1.189 0.12,2.681 -1.1,3.901 -1.913,1.912 -4.865,1.822 -6.988,-0.301 -1.07,-1.07 -1.657,-2.26 -1.838,-3.043 l 1.341,-0.678 c 0.166,0.647 0.662,1.746 1.566,2.65 1.234,1.234 3.133,1.506 4.428,0.181 1.265,-1.265 1.295,-3.013 -0.648,-4.956 a 14.798,14.798 0 0 0 -1.461,-1.279 l 5.332,-4.066 4.685,4.684 z m -6.205,9.61 c 0.557,-0.557 1.325,-0.572 1.837,-0.061 0.542,0.543 0.497,1.281 -0.06,1.838 -0.527,0.527 -1.281,0.588 -1.838,0.03 -0.511,-0.511 -0.466,-1.28 0.061,-1.807 z m 5.317,-5.317 c 0.557,-0.558 1.325,-0.573 1.837,-0.061 0.542,0.542 0.497,1.28 -0.06,1.838 -0.527,0.527 -1.281,0.587 -1.838,0.029 -0.511,-0.511 -0.467,-1.278 0.061,-1.806 z m 8.044,3.104 -0.03,-0.031 -2.621,-0.783 0.754,-1.264 3.283,0.994 1.129,1.129 -9.791,9.791 -1.28,-1.281 z m -4.006,13.105 0.813,-0.813 2.048,0.03 c 4.88,0.12 7.29,-0.001 8.766,-1.477 0.994,-0.994 1.446,-2.38 -0.015,-3.841 -0.889,-0.889 -2.078,-1.175 -2.907,-1.251 l 0.512,-1.355 a 6.13,6.13 0 0 1 3.75,1.762 c 2.109,2.109 1.551,4.444 0.15,5.846 -1.807,1.807 -4.579,1.957 -8.63,1.883 l -1.492,-0.046 -0.03,0.03 4.383,4.383 -1.1,1.1 z m 8.315,6.778 c 0.557,-0.557 1.325,-0.572 1.837,-0.061 0.542,0.543 0.497,1.281 -0.06,1.838 -0.527,0.527 -1.281,0.588 -1.838,0.03 -0.511,-0.512 -0.467,-1.28 0.061,-1.807 z m 5.317,-5.317 c 0.557,-0.558 1.325,-0.572 1.837,-0.061 0.542,0.542 0.497,1.28 -0.06,1.838 -0.527,0.527 -1.281,0.587 -1.838,0.029 -0.512,-0.511 -0.467,-1.279 0.061,-1.806 z m -3.388,8.782 0.813,-0.813 2.048,0.029 c 4.88,0.121 7.29,0 8.766,-1.476 0.994,-0.994 1.446,-2.38 -0.016,-3.841 -0.889,-0.889 -2.077,-1.175 -2.907,-1.25 l 0.512,-1.356 a 6.132,6.132 0 0 1 3.751,1.763 c 2.109,2.109 1.551,4.443 0.15,5.845 -1.807,1.808 -4.579,1.958 -8.63,1.882 l -1.492,-0.045 -0.03,0.029 4.384,4.385 -1.1,1.1 z m 7.426,7.427 0.813,-0.813 2.048,0.03 c 4.88,0.119 7.29,0 8.766,-1.477 0.994,-0.994 1.446,-2.379 -0.016,-3.841 -0.889,-0.889 -2.078,-1.176 -2.907,-1.251 l 0.512,-1.355 a 6.132,6.132 0 0 1 3.751,1.763 c 2.109,2.108 1.551,4.444 0.15,5.845 -1.807,1.807 -4.579,1.958 -8.63,1.883 l -1.492,-0.046 -0.03,0.03 4.384,4.383 -1.1,1.101 z m -35.415,-72.416 c -3.329,3.328 -6.416,3.916 -8.57,1.762 -1.913,-1.912 -1.431,-5.016 1.777,-8.284 3.299,-3.299 6.522,-3.661 8.511,-1.672 2.048,2.048 1.4,5.076 -1.718,8.194 z m -5.467,-5.166 c -2.545,2.545 -3.208,4.773 -2.003,5.979 1.34,1.341 3.57,0.407 6.07,-2.093 2.41,-2.41 3.389,-4.595 2.003,-5.979 -1.145,-1.146 -3.404,-0.573 -6.07,2.093 z m 12.894,12.592 c -3.329,3.329 -6.416,3.917 -8.569,1.764 -1.913,-1.914 -1.431,-5.017 1.777,-8.285 3.299,-3.299 6.522,-3.66 8.511,-1.672 2.047,2.048 1.399,5.076 -1.719,8.193 z m -5.467,-5.166 c -2.545,2.546 -3.208,4.775 -2.003,5.98 1.34,1.34 3.569,0.406 6.069,-2.094 2.41,-2.41 3.39,-4.594 2.004,-5.98 -1.145,-1.144 -3.404,-0.572 -6.07,2.094 z m 2.26,10.424 c 0.557,-0.558 1.325,-0.572 1.837,-0.061 0.542,0.542 0.497,1.28 -0.06,1.838 -0.527,0.527 -1.281,0.587 -1.838,0.029 -0.512,-0.511 -0.467,-1.279 0.061,-1.806 z m 5.316,-5.318 c 0.557,-0.558 1.325,-0.572 1.837,-0.06 0.542,0.541 0.497,1.279 -0.06,1.837 -0.527,0.527 -1.281,0.587 -1.838,0.03 -0.511,-0.511 -0.466,-1.279 0.061,-1.807 z m -3.388,8.783 0.813,-0.812 2.049,0.029 c 4.88,0.121 7.29,0 8.766,-1.477 0.994,-0.994 1.446,-2.379 -0.016,-3.84 -0.889,-0.889 -2.077,-1.176 -2.907,-1.251 l 0.512,-1.356 a 6.133,6.133 0 0 1 3.751,1.764 c 2.109,2.108 1.551,4.443 0.15,5.844 -1.807,1.808 -4.579,1.959 -8.63,1.883 l -1.492,-0.045 -0.03,0.029 4.384,4.384 -1.1,1.101 z m 21.947,4.595 -3.736,-3.736 -2.892,2.139 c 0.256,0.195 0.482,0.393 0.843,0.754 0.769,0.769 1.355,1.656 1.582,2.636 0.346,1.189 0.12,2.681 -1.1,3.901 -1.913,1.912 -4.865,1.822 -6.988,-0.301 -1.07,-1.07 -1.657,-2.26 -1.838,-3.043 l 1.341,-0.678 c 0.166,0.647 0.662,1.746 1.566,2.65 1.234,1.234 3.133,1.506 4.428,0.181 1.265,-1.265 1.295,-3.013 -0.648,-4.956 a 14.798,14.798 0 0 0 -1.461,-1.279 l 5.332,-4.066 4.685,4.684 z m -6.205,9.61 c 0.557,-0.557 1.325,-0.572 1.837,-0.061 0.542,0.543 0.497,1.281 -0.06,1.838 -0.527,0.527 -1.281,0.588 -1.838,0.03 -0.511,-0.511 -0.466,-1.28 0.061,-1.807 z m 5.317,-5.317 c 0.557,-0.558 1.325,-0.573 1.837,-0.061 0.542,0.542 0.497,1.28 -0.06,1.838 -0.527,0.527 -1.281,0.587 -1.838,0.029 -0.511,-0.511 -0.467,-1.278 0.061,-1.806 z m 8.044,3.104 -0.03,-0.031 -2.621,-0.783 0.754,-1.264 3.283,0.994 1.129,1.129 -9.791,9.791 -1.28,-1.281 z m -4.006,13.105 0.813,-0.813 2.048,0.03 c 4.88,0.12 7.29,-0.001 8.766,-1.477 0.994,-0.994 1.446,-2.38 -0.015,-3.841 -0.889,-0.889 -2.078,-1.175 -2.907,-1.251 l 0.512,-1.355 a 6.13,6.13 0 0 1 3.75,1.762 c 2.109,2.109 1.551,4.444 0.15,5.846 -1.807,1.807 -4.579,1.957 -8.63,1.883 l -1.492,-0.046 -0.03,0.03 4.383,4.383 -1.1,1.1 z m 8.315,6.778 c 0.557,-0.557 1.325,-0.572 1.837,-0.061 0.542,0.543 0.497,1.281 -0.06,1.838 -0.527,0.527 -1.281,0.588 -1.838,0.03 -0.511,-0.512 -0.467,-1.28 0.061,-1.807 z m 5.317,-5.317 c 0.557,-0.558 1.325,-0.572 1.837,-0.061 0.542,0.542 0.497,1.28 -0.06,1.838 -0.527,0.527 -1.281,0.587 -1.838,0.029 -0.512,-0.511 -0.467,-1.279 0.061,-1.806 z m -3.388,8.782 0.813,-0.813 2.048,0.029 c 4.88,0.121 7.29,0 8.766,-1.476 0.994,-0.994 1.446,-2.38 -0.016,-3.841 -0.889,-0.889 -2.077,-1.175 -2.907,-1.25 l 0.512,-1.356 a 6.132,6.132 0 0 1 3.751,1.763 c 2.109,2.109 1.551,4.443 0.15,5.845 -1.807,1.808 -4.579,1.958 -8.63,1.882 l -1.492,-0.045 -0.03,0.029 4.384,4.385 -1.1,1.1 z m 18.859,1.748 -0.031,-0.03 -2.621,-0.783 0.754,-1.266 3.283,0.994 1.13,1.131 -9.791,9.79 -1.28,-1.28 z m -101.848,-11.737 c -3.329,3.328 -6.416,3.916 -8.57,1.762 -1.913,-1.912 -1.431,-5.016 1.777,-8.284 3.299,-3.299 6.522,-3.661 8.511,-1.672 2.048,2.048 1.4,5.076 -1.718,8.194 z m -5.467,-5.166 c -2.545,2.545 -3.208,4.773 -2.003,5.979 1.34,1.341 3.57,0.407 6.07,-2.093 2.41,-2.41 3.389,-4.595 2.003,-5.979 -1.145,-1.146 -3.404,-0.573 -6.07,2.093 z m 12.894,12.592 c -3.329,3.329 -6.416,3.917 -8.569,1.764 -1.913,-1.914 -1.431,-5.017 1.777,-8.285 3.299,-3.299 6.522,-3.66 8.511,-1.672 2.047,2.048 1.399,5.076 -1.719,8.193 z m -5.467,-5.166 c -2.545,2.546 -3.208,4.775 -2.003,5.98 1.34,1.34 3.569,0.406 6.069,-2.094 2.41,-2.41 3.39,-4.594 2.004,-5.98 -1.145,-1.144 -3.404,-0.572 -6.07,2.094 z m 2.26,10.424 c 0.557,-0.558 1.325,-0.572 1.837,-0.061 0.542,0.542 0.497,1.28 -0.06,1.838 -0.527,0.527 -1.281,0.587 -1.838,0.029 -0.512,-0.511 -0.467,-1.279 0.061,-1.806 z m 5.316,-5.318 c 0.557,-0.558 1.325,-0.572 1.837,-0.06 0.542,0.541 0.497,1.279 -0.06,1.837 -0.527,0.527 -1.281,0.587 -1.838,0.03 -0.511,-0.511 -0.466,-1.279 0.061,-1.807 z m -3.388,8.783 0.813,-0.812 2.049,0.029 c 4.88,0.121 7.29,0 8.766,-1.477 0.994,-0.994 1.446,-2.379 -0.016,-3.84 -0.889,-0.889 -2.077,-1.176 -2.907,-1.251 l 0.512,-1.356 a 6.133,6.133 0 0 1 3.751,1.764 c 2.109,2.108 1.551,4.443 0.15,5.844 -1.807,1.808 -4.579,1.959 -8.63,1.883 l -1.492,-0.045 -0.03,0.029 4.384,4.384 -1.1,1.101 z m 21.947,4.595 -3.736,-3.736 -2.892,2.139 c 0.256,0.195 0.482,0.393 0.843,0.754 0.769,0.769 1.355,1.656 1.582,2.636 0.346,1.189 0.12,2.681 -1.1,3.901 -1.913,1.912 -4.865,1.822 -6.988,-0.301 -1.07,-1.07 -1.657,-2.26 -1.838,-3.043 l 1.341,-0.678 c 0.166,0.647 0.662,1.746 1.566,2.65 1.234,1.234 3.133,1.506 4.428,0.181 1.265,-1.265 1.295,-3.013 -0.648,-4.956 a 14.798,14.798 0 0 0 -1.461,-1.279 l 5.332,-4.066 4.685,4.684 z m -6.205,9.61 c 0.557,-0.557 1.325,-0.572 1.837,-0.061 0.542,0.543 0.497,1.281 -0.06,1.838 -0.527,0.527 -1.281,0.588 -1.838,0.03 -0.511,-0.511 -0.466,-1.28 0.061,-1.807 z m 5.317,-5.317 c 0.557,-0.558 1.325,-0.573 1.837,-0.061 0.542,0.542 0.497,1.28 -0.06,1.838 -0.527,0.527 -1.281,0.587 -1.838,0.029 -0.511,-0.511 -0.467,-1.278 0.061,-1.806 z m 8.044,3.104 -0.03,-0.031 -2.621,-0.783 0.754,-1.264 3.283,0.994 1.129,1.129 -9.791,9.791 -1.28,-1.281 z m -4.006,13.105 0.813,-0.813 2.048,0.03 c 4.88,0.12 7.29,-0.001 8.766,-1.477 0.994,-0.994 1.446,-2.38 -0.015,-3.841 -0.889,-0.889 -2.078,-1.175 -2.907,-1.251 l 0.512,-1.355 a 6.13,6.13 0 0 1 3.75,1.762 c 2.109,2.109 1.551,4.444 0.15,5.846 -1.807,1.807 -4.579,1.957 -8.63,1.883 l -1.492,-0.046 -0.03,0.03 4.383,4.383 -1.1,1.1 z m 8.315,6.778 c 0.557,-0.557 1.325,-0.572 1.837,-0.061 0.542,0.543 0.497,1.281 -0.06,1.838 -0.527,0.527 -1.281,0.588 -1.838,0.03 -0.511,-0.512 -0.467,-1.28 0.061,-1.807 z m 5.317,-5.317 c 0.557,-0.558 1.325,-0.572 1.837,-0.061 0.542,0.542 0.497,1.28 -0.06,1.838 -0.527,0.527 -1.281,0.587 -1.838,0.029 -0.512,-0.511 -0.467,-1.279 0.061,-1.806 z m -3.388,8.782 0.813,-0.813 2.048,0.029 c 4.88,0.121 7.29,0 8.766,-1.476 0.994,-0.994 1.446,-2.38 -0.016,-3.841 -0.889,-0.889 -2.077,-1.175 -2.907,-1.25 l 0.512,-1.356 a 6.132,6.132 0 0 1 3.751,1.763 c 2.109,2.109 1.551,4.443 0.15,5.845 -1.807,1.808 -4.579,1.958 -8.63,1.882 l -1.492,-0.045 -0.03,0.029 4.384,4.385 -1.1,1.1 z m 11.523,11.525 2.681,-2.682 -4.549,-4.549 0.859,-0.859 10.619,-1.883 1.431,1.432 -6.085,6.084 1.371,1.371 -1.024,1.025 -1.371,-1.371 -2.681,2.681 z m 3.706,-3.706 3.269,-3.269 a 36.503,36.503 0 0 1 1.581,-1.491 l -0.045,-0.045 c -0.874,0.271 -1.537,0.451 -2.259,0.632 l -5.724,0.934 -0.03,0.031 z m -61.879,31.001 v 3.597 h 3.907 v 2.077 h -3.907 v 8.093 c 0,1.86 0.527,2.915 2.047,2.915 0.744,0 1.178,-0.062 1.581,-0.187 l 0.124,2.077 c -0.527,0.187 -1.364,0.372 -2.418,0.372 -1.271,0 -2.294,-0.434 -2.946,-1.147 -0.744,-0.837 -1.054,-2.17 -1.054,-3.938 v -8.186 h -2.326 v -2.077 h 2.326 v -2.79 z m 9.392,-0.62 c 0,0.931 -0.651,1.675 -1.736,1.675 -0.992,0 -1.643,-0.744 -1.643,-1.675 0,-0.931 0.682,-1.705 1.706,-1.705 0.992,0 1.673,0.744 1.673,1.705 z m -3.038,19.223 v -15.007 h 2.729 v 15.007 z m 6.634,-10.945 c 0,-1.581 -0.062,-2.821 -0.124,-4.062 h 2.387 l 0.124,2.449 h 0.093 c 0.837,-1.426 2.232,-2.759 4.744,-2.759 2.015,0 3.566,1.24 4.217,3.007 h 0.062 a 5.92,5.92 0 0 1 1.705,-1.953 c 0.899,-0.683 1.86,-1.054 3.287,-1.054 2.015,0 4.961,1.302 4.961,6.511 v 8.806 h -2.667 v -8.465 c 0,-2.914 -1.085,-4.619 -3.255,-4.619 -1.582,0 -2.759,1.146 -3.255,2.449 a 4.652,4.652 0 0 0 -0.217,1.364 v 9.271 h -2.667 v -8.992 c 0,-2.387 -1.054,-4.092 -3.132,-4.092 -1.674,0 -2.945,1.363 -3.379,2.729 -0.155,0.371 -0.217,0.867 -0.217,1.333 v 9.022 h -2.666 v -10.945 z m 26.753,3.937 c 0.062,3.69 2.387,5.209 5.147,5.209 1.953,0 3.163,-0.341 4.155,-0.774 l 0.496,1.953 c -0.961,0.435 -2.635,0.961 -5.023,0.961 -4.62,0 -7.379,-3.069 -7.379,-7.597 0,-4.526 2.667,-8.061 7.039,-8.061 4.93,0 6.201,4.278 6.201,7.038 0,0.558 -0.031,0.961 -0.093,1.271 z m 8,-1.953 c 0.031,-1.705 -0.713,-4.402 -3.783,-4.402 -2.791,0 -3.969,2.512 -4.186,4.402 z"
     id="path1" />
  <path
     fill="#231f20"
     d="m 235.872,513.59988 c -0.713,0.342 -2.294,0.868 -4.31,0.868 -4.527,0 -7.473,-3.069 -7.473,-7.658 0,-4.62 3.163,-7.999 8.062,-7.999 1.612,0 3.039,0.402 3.783,0.806 l -0.62,2.077 c -0.651,-0.341 -1.674,-0.713 -3.163,-0.713 -3.441,0 -5.302,2.573 -5.302,5.674 0,3.473 2.232,5.612 5.209,5.612 1.55,0 2.573,-0.372 3.349,-0.713 z m 15.965,-7.1 c 0,5.55 -3.875,7.968 -7.472,7.968 -4.031,0 -7.193,-2.977 -7.193,-7.72 0,-4.992 3.318,-7.938 7.441,-7.938 4.31,10e-4 7.224,3.132 7.224,7.69 z m -11.875,0.155 c 0,3.287 1.86,5.768 4.527,5.768 2.604,0 4.558,-2.449 4.558,-5.829 0,-2.543 -1.271,-5.736 -4.496,-5.736 -3.194,-0.001 -4.589,2.975 -4.589,5.797 z m 27.623,-14.541 v 18.138 c 0,1.333 0.062,2.853 0.124,3.876 h -2.418 l -0.124,-2.604 h -0.093 c -0.806,1.675 -2.604,2.945 -5.054,2.945 -3.628,0 -6.449,-3.069 -6.449,-7.627 -0.031,-4.992 3.101,-8.03 6.729,-8.03 2.325,0 3.845,1.085 4.526,2.263 h 0.062 v -8.96 h 2.697 z m -2.698,13.115 c 0,-0.342 -0.031,-0.807 -0.124,-1.147 -0.403,-1.705 -1.892,-3.132 -3.938,-3.132 -2.822,0 -4.496,2.48 -4.496,5.768 0,3.038 1.519,5.55 4.434,5.55 1.829,0 3.504,-1.24 4,-3.256 0.093,-0.372 0.124,-0.744 0.124,-1.178 z m 8.152,1.89 c 0.062,3.69 2.388,5.209 5.147,5.209 1.954,0 3.163,-0.341 4.155,-0.774 l 0.496,1.953 c -0.961,0.435 -2.636,0.961 -5.023,0.961 -4.62,0 -7.379,-3.069 -7.379,-7.597 0,-4.526 2.667,-8.061 7.038,-8.061 4.93,0 6.201,4.278 6.201,7.038 0,0.558 -0.031,0.961 -0.093,1.271 z m 7.999,-1.953 c 0.031,-1.705 -0.713,-4.402 -3.783,-4.402 -2.791,0 -3.969,2.512 -4.186,4.402 z"
     id="path2" />
</svg>
