<svg xmlns="http://www.w3.org/2000/svg" role="img" viewBox="167.05 354.30 123.03 166.53"><path fill="#BE1E2D" d="M194.968 393.912c-3.329 3.328-6.416 3.916-8.57 1.762-1.913-1.912-1.431-5.016 1.777-8.284 3.299-3.299 6.522-3.661 8.511-1.672 2.048 2.048 1.4 5.076-1.718 8.194zm-5.467-5.166c-2.545 2.545-3.208 4.773-2.003 5.979 1.34 1.341 3.57.407 6.07-2.093 2.41-2.41 3.389-4.595 2.003-5.979-1.145-1.146-3.404-.573-6.07 2.093zm12.894 12.592c-3.329 3.329-6.416 3.917-8.569 1.764-1.913-1.914-1.431-5.017 1.777-8.285 3.299-3.299 6.522-3.66 8.511-1.672 2.047 2.048 1.399 5.076-1.719 8.193zm-5.467-5.166c-2.545 2.546-3.208 4.775-2.003 5.98 1.34 1.34 3.569.406 6.069-2.094 2.41-2.41 3.39-4.594 2.004-5.98-1.145-1.144-3.404-.572-6.07 2.094zm2.26 10.424c.557-.558 1.325-.572 1.837-.061.542.542.497 1.28-.06 1.838-.527.527-1.281.587-1.838.029-.512-.511-.467-1.279.061-1.806zm5.316-5.318c.557-.558 1.325-.572 1.837-.06.542.541.497 1.279-.06 1.837-.527.527-1.281.587-1.838.03-.511-.511-.466-1.279.061-1.807zm-3.388 8.783l.813-.812 2.049.029c4.88.121 7.29 0 8.766-1.477.994-.994 1.446-2.379-.016-3.84-.889-.889-2.077-1.176-2.907-1.251l.512-1.356a6.133 6.133 0 0 1 3.751 1.764c2.109 2.108 1.551 4.443.15 5.844-1.807 1.808-4.579 1.959-8.63 1.883l-1.492-.045-.03.029 4.384 4.384-1.1 1.101-6.25-6.253zm21.947 4.595l-3.736-3.736-2.892 2.139c.256.195.482.393.843.754.769.769 1.355 1.656 1.582 2.636.346 1.189.12 2.681-1.1 3.901-1.913 1.912-4.865 1.822-6.988-.301-1.07-1.07-1.657-2.26-1.838-3.043l1.341-.678c.166.647.662 1.746 1.566 2.65 1.234 1.234 3.133 1.506 4.428.181 1.265-1.265 1.295-3.013-.648-4.956a14.798 14.798 0 0 0-1.461-1.279l5.332-4.066 4.685 4.684-1.114 1.114zm-6.205 9.61c.557-.557 1.325-.572 1.837-.061.542.543.497 1.281-.06 1.838-.527.527-1.281.588-1.838.03-.511-.511-.466-1.28.061-1.807zm5.317-5.317c.557-.558 1.325-.573 1.837-.061.542.542.497 1.28-.06 1.838-.527.527-1.281.587-1.838.029-.511-.511-.467-1.278.061-1.806zm8.044 3.104l-.03-.031-2.621-.783.754-1.264 3.283.994 1.129 1.129-9.791 9.791-1.28-1.281 8.556-8.555zm-4.006 13.105l.813-.813 2.048.03c4.88.12 7.29-.001 8.766-1.477.994-.994 1.446-2.38-.015-3.841-.889-.889-2.078-1.175-2.907-1.251l.512-1.355a6.13 6.13 0 0 1 3.75 1.762c2.109 2.109 1.551 4.444.15 5.846-1.807 1.807-4.579 1.957-8.63 1.883l-1.492-.046-.03.03 4.383 4.383-1.1 1.1-6.248-6.251zm8.315 6.778c.557-.557 1.325-.572 1.837-.061.542.543.497 1.281-.06 1.838-.527.527-1.281.588-1.838.03-.511-.512-.467-1.28.061-1.807zm5.317-5.317c.557-.558 1.325-.572 1.837-.061.542.542.497 1.28-.06 1.838-.527.527-1.281.587-1.838.029-.512-.511-.467-1.279.061-1.806zm-3.388 8.782l.813-.813 2.048.029c4.88.121 7.29 0 8.766-1.476.994-.994 1.446-2.38-.016-3.841-.889-.889-2.077-1.175-2.907-1.25l.512-1.356a6.132 6.132 0 0 1 3.751 1.763c2.109 2.109 1.551 4.443.15 5.845-1.807 1.808-4.579 1.958-8.63 1.882l-1.492-.045-.03.029 4.384 4.385-1.1 1.1-6.249-6.252zm9.25 6.237c.149.603.631 1.837 1.566 2.772 1.687 1.687 3.299 1.158 4.112.315 1.355-1.386.708-3.208-.572-4.488l-.738-.738.994-.994.738.738c.964.964 2.681 1.687 3.84.526.784-.783.98-1.973-.24-3.193-.783-.783-1.883-1.189-2.606-1.311l.603-1.324c.903.15 2.274.768 3.329 1.822 1.928 1.928 1.657 3.945.466 5.137-1.024 1.023-2.5 1.265-4.127.512l-.03.029c.979 1.432 1.04 3.299-.316 4.686-1.566 1.566-4.172 1.701-6.507-.634-1.099-1.099-1.717-2.409-1.882-3.208l1.37-.647zm-37.239-71.226c-3.329 3.328-6.416 3.916-8.57 1.762-1.913-1.912-1.431-5.016 1.777-8.284 3.299-3.299 6.522-3.661 8.511-1.672 2.048 2.048 1.4 5.076-1.718 8.194zm-5.467-5.166c-2.545 2.545-3.208 4.773-2.003 5.979 1.34 1.341 3.57.407 6.07-2.093 2.41-2.41 3.389-4.595 2.003-5.979-1.145-1.146-3.404-.573-6.07 2.093zm12.894 12.592c-3.329 3.329-6.416 3.917-8.569 1.764-1.913-1.914-1.431-5.017 1.777-8.285 3.299-3.299 6.522-3.66 8.511-1.672 2.047 2.048 1.399 5.076-1.719 8.193zm-5.467-5.166c-2.545 2.546-3.208 4.775-2.003 5.98 1.34 1.34 3.569.406 6.069-2.094 2.41-2.41 3.39-4.594 2.004-5.98-1.145-1.144-3.404-.572-6.07 2.094zm2.26 10.424c.557-.558 1.325-.572 1.837-.061.542.542.497 1.28-.06 1.838-.527.527-1.281.587-1.838.029-.512-.511-.467-1.279.061-1.806zm5.316-5.318c.557-.558 1.325-.572 1.837-.06.542.541.497 1.279-.06 1.837-.527.527-1.281.587-1.838.03-.511-.511-.466-1.279.061-1.807zm-3.388 8.783l.813-.812 2.049.029c4.88.121 7.29 0 8.766-1.477.994-.994 1.446-2.379-.016-3.84-.889-.889-2.077-1.176-2.907-1.251l.512-1.356a6.133 6.133 0 0 1 3.751 1.764c2.109 2.108 1.551 4.443.15 5.844-1.807 1.808-4.579 1.959-8.63 1.883l-1.492-.045-.03.029 4.384 4.384-1.1 1.101-6.25-6.253zm21.947 4.595l-3.736-3.736-2.892 2.139c.256.195.482.393.843.754.769.769 1.355 1.656 1.582 2.636.346 1.189.12 2.681-1.1 3.901-1.913 1.912-4.865 1.822-6.988-.301-1.07-1.07-1.657-2.26-1.838-3.043l1.341-.678c.166.647.662 1.746 1.566 2.65 1.234 1.234 3.133 1.506 4.428.181 1.265-1.265 1.295-3.013-.648-4.956a14.798 14.798 0 0 0-1.461-1.279l5.332-4.066 4.685 4.684-1.114 1.114zm-6.205 9.61c.557-.557 1.325-.572 1.837-.061.542.543.497 1.281-.06 1.838-.527.527-1.281.588-1.838.03-.511-.511-.466-1.28.061-1.807zm5.317-5.317c.557-.558 1.325-.573 1.837-.061.542.542.497 1.28-.06 1.838-.527.527-1.281.587-1.838.029-.511-.511-.467-1.278.061-1.806zm8.044 3.104l-.03-.031-2.621-.783.754-1.264 3.283.994 1.129 1.129-9.791 9.791-1.28-1.281 8.556-8.555zm-4.006 13.105l.813-.813 2.048.03c4.88.12 7.29-.001 8.766-1.477.994-.994 1.446-2.38-.015-3.841-.889-.889-2.078-1.175-2.907-1.251l.512-1.355a6.13 6.13 0 0 1 3.75 1.762c2.109 2.109 1.551 4.444.15 5.846-1.807 1.807-4.579 1.957-8.63 1.883l-1.492-.046-.03.03 4.383 4.383-1.1 1.1-6.248-6.251zm8.315 6.778c.557-.557 1.325-.572 1.837-.061.542.543.497 1.281-.06 1.838-.527.527-1.281.588-1.838.03-.511-.512-.467-1.28.061-1.807zm5.317-5.317c.557-.558 1.325-.572 1.837-.061.542.542.497 1.28-.06 1.838-.527.527-1.281.587-1.838.029-.512-.511-.467-1.279.061-1.806zm-3.388 8.782l.813-.813 2.048.029c4.88.121 7.29 0 8.766-1.476.994-.994 1.446-2.38-.016-3.841-.889-.889-2.077-1.175-2.907-1.25l.512-1.356a6.132 6.132 0 0 1 3.751 1.763c2.109 2.109 1.551 4.443.15 5.845-1.807 1.808-4.579 1.958-8.63 1.882l-1.492-.045-.03.029 4.384 4.385-1.1 1.1-6.249-6.252zm7.426 7.427l.813-.813 2.048.03c4.88.119 7.29 0 8.766-1.477.994-.994 1.446-2.379-.016-3.841-.889-.889-2.078-1.176-2.907-1.251l.512-1.355a6.132 6.132 0 0 1 3.751 1.763c2.109 2.108 1.551 4.444.15 5.845-1.807 1.807-4.579 1.958-8.63 1.883l-1.492-.046-.03.03 4.384 4.383-1.1 1.101-6.249-6.252zm-35.415-72.416c-3.329 3.328-6.416 3.916-8.57 1.762-1.913-1.912-1.431-5.016 1.777-8.284 3.299-3.299 6.522-3.661 8.511-1.672 2.048 2.048 1.4 5.076-1.718 8.194zm-5.467-5.166c-2.545 2.545-3.208 4.773-2.003 5.979 1.34 1.341 3.57.407 6.07-2.093 2.41-2.41 3.389-4.595 2.003-5.979-1.145-1.146-3.404-.573-6.07 2.093zm12.894 12.592c-3.329 3.329-6.416 3.917-8.569 1.764-1.913-1.914-1.431-5.017 1.777-8.285 3.299-3.299 6.522-3.66 8.511-1.672 2.047 2.048 1.399 5.076-1.719 8.193zm-5.467-5.166c-2.545 2.546-3.208 4.775-2.003 5.98 1.34 1.34 3.569.406 6.069-2.094 2.41-2.41 3.39-4.594 2.004-5.98-1.145-1.144-3.404-.572-6.07 2.094zm2.26 10.424c.557-.558 1.325-.572 1.837-.061.542.542.497 1.28-.06 1.838-.527.527-1.281.587-1.838.029-.512-.511-.467-1.279.061-1.806zm5.316-5.318c.557-.558 1.325-.572 1.837-.06.542.541.497 1.279-.06 1.837-.527.527-1.281.587-1.838.03-.511-.511-.466-1.279.061-1.807zm-3.388 8.783l.813-.812 2.049.029c4.88.121 7.29 0 8.766-1.477.994-.994 1.446-2.379-.016-3.84-.889-.889-2.077-1.176-2.907-1.251l.512-1.356a6.133 6.133 0 0 1 3.751 1.764c2.109 2.108 1.551 4.443.15 5.844-1.807 1.808-4.579 1.959-8.63 1.883l-1.492-.045-.03.029 4.384 4.384-1.1 1.101-6.25-6.253zm21.947 4.595l-3.736-3.736-2.892 2.139c.256.195.482.393.843.754.769.769 1.355 1.656 1.582 2.636.346 1.189.12 2.681-1.1 3.901-1.913 1.912-4.865 1.822-6.988-.301-1.07-1.07-1.657-2.26-1.838-3.043l1.341-.678c.166.647.662 1.746 1.566 2.65 1.234 1.234 3.133 1.506 4.428.181 1.265-1.265 1.295-3.013-.648-4.956a14.798 14.798 0 0 0-1.461-1.279l5.332-4.066 4.685 4.684-1.114 1.114zm-6.205 9.61c.557-.557 1.325-.572 1.837-.061.542.543.497 1.281-.06 1.838-.527.527-1.281.588-1.838.03-.511-.511-.466-1.28.061-1.807zm5.317-5.317c.557-.558 1.325-.573 1.837-.061.542.542.497 1.28-.06 1.838-.527.527-1.281.587-1.838.029-.511-.511-.467-1.278.061-1.806zm8.044 3.104l-.03-.031-2.621-.783.754-1.264 3.283.994 1.129 1.129-9.791 9.791-1.28-1.281 8.556-8.555zm-4.006 13.105l.813-.813 2.048.03c4.88.12 7.29-.001 8.766-1.477.994-.994 1.446-2.38-.015-3.841-.889-.889-2.078-1.175-2.907-1.251l.512-1.355a6.13 6.13 0 0 1 3.75 1.762c2.109 2.109 1.551 4.444.15 5.846-1.807 1.807-4.579 1.957-8.63 1.883l-1.492-.046-.03.03 4.383 4.383-1.1 1.1-6.248-6.251zm8.315 6.778c.557-.557 1.325-.572 1.837-.061.542.543.497 1.281-.06 1.838-.527.527-1.281.588-1.838.03-.511-.512-.467-1.28.061-1.807zm5.317-5.317c.557-.558 1.325-.572 1.837-.061.542.542.497 1.28-.06 1.838-.527.527-1.281.587-1.838.029-.512-.511-.467-1.279.061-1.806zm-3.388 8.782l.813-.813 2.048.029c4.88.121 7.29 0 8.766-1.476.994-.994 1.446-2.38-.016-3.841-.889-.889-2.077-1.175-2.907-1.25l.512-1.356a6.132 6.132 0 0 1 3.751 1.763c2.109 2.109 1.551 4.443.15 5.845-1.807 1.808-4.579 1.958-8.63 1.882l-1.492-.045-.03.029 4.384 4.385-1.1 1.1-6.249-6.252zm18.859 1.748l-.031-.03-2.621-.783.754-1.266 3.283.994 1.13 1.131-9.791 9.79-1.28-1.28 8.556-8.556zm-101.848-11.737c-3.329 3.328-6.416 3.916-8.57 1.762-1.913-1.912-1.431-5.016 1.777-8.284 3.299-3.299 6.522-3.661 8.511-1.672 2.048 2.048 1.4 5.076-1.718 8.194zm-5.467-5.166c-2.545 2.545-3.208 4.773-2.003 5.979 1.34 1.341 3.57.407 6.07-2.093 2.41-2.41 3.389-4.595 2.003-5.979-1.145-1.146-3.404-.573-6.07 2.093zm12.894 12.592c-3.329 3.329-6.416 3.917-8.569 1.764-1.913-1.914-1.431-5.017 1.777-8.285 3.299-3.299 6.522-3.66 8.511-1.672 2.047 2.048 1.399 5.076-1.719 8.193zm-5.467-5.166c-2.545 2.546-3.208 4.775-2.003 5.98 1.34 1.34 3.569.406 6.069-2.094 2.41-2.41 3.39-4.594 2.004-5.98-1.145-1.144-3.404-.572-6.07 2.094zm2.26 10.424c.557-.558 1.325-.572 1.837-.061.542.542.497 1.28-.06 1.838-.527.527-1.281.587-1.838.029-.512-.511-.467-1.279.061-1.806zm5.316-5.318c.557-.558 1.325-.572 1.837-.06.542.541.497 1.279-.06 1.837-.527.527-1.281.587-1.838.03-.511-.511-.466-1.279.061-1.807zm-3.388 8.783l.813-.812 2.049.029c4.88.121 7.29 0 8.766-1.477.994-.994 1.446-2.379-.016-3.84-.889-.889-2.077-1.176-2.907-1.251l.512-1.356a6.133 6.133 0 0 1 3.751 1.764c2.109 2.108 1.551 4.443.15 5.844-1.807 1.808-4.579 1.959-8.63 1.883l-1.492-.045-.03.029 4.384 4.384-1.1 1.101-6.25-6.253zm21.947 4.595l-3.736-3.736-2.892 2.139c.256.195.482.393.843.754.769.769 1.355 1.656 1.582 2.636.346 1.189.12 2.681-1.1 3.901-1.913 1.912-4.865 1.822-6.988-.301-1.07-1.07-1.657-2.26-1.838-3.043l1.341-.678c.166.647.662 1.746 1.566 2.65 1.234 1.234 3.133 1.506 4.428.181 1.265-1.265 1.295-3.013-.648-4.956a14.798 14.798 0 0 0-1.461-1.279l5.332-4.066 4.685 4.684-1.114 1.114zm-6.205 9.61c.557-.557 1.325-.572 1.837-.061.542.543.497 1.281-.06 1.838-.527.527-1.281.588-1.838.03-.511-.511-.466-1.28.061-1.807zm5.317-5.317c.557-.558 1.325-.573 1.837-.061.542.542.497 1.28-.06 1.838-.527.527-1.281.587-1.838.029-.511-.511-.467-1.278.061-1.806zm8.044 3.104l-.03-.031-2.621-.783.754-1.264 3.283.994 1.129 1.129-9.791 9.791-1.28-1.281 8.556-8.555zm-4.006 13.105l.813-.813 2.048.03c4.88.12 7.29-.001 8.766-1.477.994-.994 1.446-2.38-.015-3.841-.889-.889-2.078-1.175-2.907-1.251l.512-1.355a6.13 6.13 0 0 1 3.75 1.762c2.109 2.109 1.551 4.444.15 5.846-1.807 1.807-4.579 1.957-8.63 1.883l-1.492-.046-.03.03 4.383 4.383-1.1 1.1-6.248-6.251zm8.315 6.778c.557-.557 1.325-.572 1.837-.061.542.543.497 1.281-.06 1.838-.527.527-1.281.588-1.838.03-.511-.512-.467-1.28.061-1.807zm5.317-5.317c.557-.558 1.325-.572 1.837-.061.542.542.497 1.28-.06 1.838-.527.527-1.281.587-1.838.029-.512-.511-.467-1.279.061-1.806zm-3.388 8.782l.813-.813 2.048.029c4.88.121 7.29 0 8.766-1.476.994-.994 1.446-2.38-.016-3.841-.889-.889-2.077-1.175-2.907-1.25l.512-1.356a6.132 6.132 0 0 1 3.751 1.763c2.109 2.109 1.551 4.443.15 5.845-1.807 1.808-4.579 1.958-8.63 1.882l-1.492-.045-.03.029 4.384 4.385-1.1 1.1-6.249-6.252zm11.523 11.525l2.681-2.682-4.549-4.549.859-.859 10.619-1.883 1.431 1.432-6.085 6.084 1.371 1.371-1.024 1.025-1.371-1.371-2.681 2.681-1.251-1.249zm3.706-3.706l3.269-3.269a36.503 36.503 0 0 1 1.581-1.491l-.045-.045c-.874.271-1.537.451-2.259.632l-5.724.934-.03.031 3.208 3.208zm-61.879 31.001v3.597h3.907v2.077h-3.907v8.093c0 1.86.527 2.915 2.047 2.915.744 0 1.178-.062 1.581-.187l.124 2.077c-.527.187-1.364.372-2.418.372-1.271 0-2.294-.434-2.946-1.147-.744-.837-1.054-2.17-1.054-3.938v-8.186h-2.326v-2.077h2.326v-2.79l2.666-.806zm9.392-.62c0 .931-.651 1.675-1.736 1.675-.992 0-1.643-.744-1.643-1.675s.682-1.705 1.706-1.705c.992 0 1.673.744 1.673 1.705zm-3.038 19.223v-15.007h2.729v15.007h-2.729zm6.634-10.945c0-1.581-.062-2.821-.124-4.062h2.387l.124 2.449h.093c.837-1.426 2.232-2.759 4.744-2.759 2.015 0 3.566 1.24 4.217 3.007h.062a5.92 5.92 0 0 1 1.705-1.953c.899-.683 1.86-1.054 3.287-1.054 2.015 0 4.961 1.302 4.961 6.511v8.806h-2.667v-8.465c0-2.914-1.085-4.619-3.255-4.619-1.582 0-2.759 1.146-3.255 2.449a4.652 4.652 0 0 0-.217 1.364v9.271h-2.667v-8.992c0-2.387-1.054-4.092-3.132-4.092-1.674 0-2.945 1.363-3.379 2.729-.155.371-.217.867-.217 1.333v9.022h-2.666v-10.945zm26.753 3.937c.062 3.69 2.387 5.209 5.147 5.209 1.953 0 3.163-.341 4.155-.774l.496 1.953c-.961.435-2.635.961-5.023.961-4.62 0-7.379-3.069-7.379-7.597 0-4.526 2.667-8.061 7.039-8.061 4.93 0 6.201 4.278 6.201 7.038 0 .558-.031.961-.093 1.271h-10.543zm8-1.953c.031-1.705-.713-4.402-3.783-4.402-2.791 0-3.969 2.512-4.186 4.402h7.969z"/><path fill="#231F20" d="M239.137 516.797c-.713.342-2.294.868-4.31.868-4.527 0-7.473-3.069-7.473-7.658 0-4.62 3.163-7.999 8.062-7.999 1.612 0 3.039.402 3.783.806l-.62 2.077c-.651-.341-1.674-.713-3.163-.713-3.441 0-5.302 2.573-5.302 5.674 0 3.473 2.232 5.612 5.209 5.612 1.55 0 2.573-.372 3.349-.713l.465 2.046zm15.965-7.1c0 5.55-3.875 7.968-7.472 7.968-4.031 0-7.193-2.977-7.193-7.72 0-4.992 3.318-7.938 7.441-7.938 4.31.001 7.224 3.132 7.224 7.69zm-11.875.155c0 3.287 1.86 5.768 4.527 5.768 2.604 0 4.558-2.449 4.558-5.829 0-2.543-1.271-5.736-4.496-5.736-3.194-.001-4.589 2.975-4.589 5.797zm27.623-14.541v18.138c0 1.333.062 2.853.124 3.876h-2.418l-.124-2.604h-.093c-.806 1.675-2.604 2.945-5.054 2.945-3.628 0-6.449-3.069-6.449-7.627-.031-4.992 3.101-8.03 6.729-8.03 2.325 0 3.845 1.085 4.526 2.263h.062v-8.96h2.697zm-2.698 13.115c0-.342-.031-.807-.124-1.147-.403-1.705-1.892-3.132-3.938-3.132-2.822 0-4.496 2.48-4.496 5.768 0 3.038 1.519 5.55 4.434 5.55 1.829 0 3.504-1.24 4-3.256.093-.372.124-.744.124-1.178v-2.605zm8.152 1.89c.062 3.69 2.388 5.209 5.147 5.209 1.954 0 3.163-.341 4.155-.774l.496 1.953c-.961.435-2.636.961-5.023.961-4.62 0-7.379-3.069-7.379-7.597 0-4.526 2.667-8.061 7.038-8.061 4.93 0 6.201 4.278 6.201 7.038 0 .558-.031.961-.093 1.271h-10.542zm7.999-1.953c.031-1.705-.713-4.402-3.783-4.402-2.791 0-3.969 2.512-4.186 4.402h7.969z"/><path fill="none" d="M94.032 286.889H348v270H94.032z"/></svg>