<?xml version="1.0" encoding="UTF-8" standalone="no"?>
<!-- Created with Inkscape (http://www.inkscape.org/) -->

<svg
   width="44.312397mm"
   height="8.2010241mm"
   viewBox="0 0 44.312397 8.2010241"
   version="1.1"
   id="svg5"
   inkscape:version="1.2.1 (9c6d41e, 2022-07-14)"
   sodipodi:docname="tlrender.svg"
   xmlns:inkscape="http://www.inkscape.org/namespaces/inkscape"
   xmlns:sodipodi="http://sodipodi.sourceforge.net/DTD/sodipodi-0.dtd"
   xmlns="http://www.w3.org/2000/svg"
   xmlns:svg="http://www.w3.org/2000/svg">
  <sodipodi:namedview
     id="namedview7"
     pagecolor="#ffffff"
     bordercolor="#666666"
     borderopacity="1.0"
     inkscape:showpageshadow="2"
     inkscape:pageopacity="0.0"
     inkscape:pagecheckerboard="0"
     inkscape:deskcolor="#d1d1d1"
     inkscape:document-units="mm"
     showgrid="false"
     inkscape:zoom="0.2102413"
     inkscape:cx="-61.833711"
     inkscape:cy="335.32897"
     inkscape:window-width="1259"
     inkscape:window-height="805"
     inkscape:window-x="0"
     inkscape:window-y="25"
     inkscape:window-maximized="0"
     inkscape:current-layer="layer1" />
  <defs
     id="defs2" />
  <g
     inkscape:label="Layer 1"
     inkscape:groupmode="layer"
     id="layer1"
     transform="translate(-90.930561,-63.69222)">
    <g
       aria-label="tlRender"
       id="text113"
       style="font-size:10.5833px;stroke-width:0.264583">
      <path
         d="m 94.563403,71.681371 q -0.273884,0.07235 -0.599445,0.118856 -0.320393,0.04651 -0.573606,0.04651 -0.883665,0 -1.343583,-0.475421 -0.459919,-0.475422 -0.459919,-1.52445 V 66.777293 H 90.930561 V 65.960808 H 91.58685 V 64.302 h 0.971514 v 1.658808 h 2.005039 v 0.816485 h -2.005039 v 2.630322 q 0,0.454752 0.02067,0.713133 0.02067,0.253214 0.144694,0.475422 0.113688,0.206705 0.310057,0.30489 0.201538,0.09302 0.60978,0.09302 0.237711,0 0.496093,-0.06718 0.258381,-0.07235 0.372069,-0.118856 h 0.05168 z"
         id="path312" />
      <path
         d="M 96.718303,71.733047 H 95.746789 V 63.69222 h 0.971514 z"
         id="path309" />
      <path
         d="m 105.08469,71.733047 h -1.32808 l -2.57348,-3.059235 h -1.441765 v 3.059235 h -1.02319 v -7.694596 h 2.154905 q 0.69762,0 1.16271,0.09302 0.46509,0.08785 0.83716,0.320393 0.41857,0.263549 0.65112,0.666624 0.23771,0.397907 0.23771,1.012855 0,0.831988 -0.41858,1.395259 -0.41858,0.558104 -1.15238,0.842323 z m -2.39261,-5.52936 q 0,-0.330728 -0.11886,-0.583942 -0.11368,-0.258381 -0.3824,-0.434081 -0.22221,-0.149861 -0.5271,-0.206705 -0.30489,-0.06201 -0.7183,-0.06201 h -1.204055 v 2.904206 h 1.033525 q 0.48576,0 0.84749,-0.08268 0.36173,-0.08785 0.61495,-0.320393 0.23254,-0.21704 0.34106,-0.496092 0.11369,-0.28422 0.11369,-0.7183 z"
         id="path306" />
      <path
         d="m 110.57271,68.947697 h -4.25296 q 0,0.532265 0.1602,0.930172 0.1602,0.39274 0.43925,0.645954 0.26872,0.248046 0.63562,0.372069 0.37207,0.124023 0.81648,0.124023 0.58911,0 1.18339,-0.232543 0.59944,-0.237711 0.85266,-0.465087 h 0.0517 v 1.059364 q -0.49092,0.206705 -1.00252,0.346231 -0.51159,0.139526 -1.07486,0.139526 -1.4366,0 -2.24275,-0.775144 -0.80615,-0.780312 -0.80615,-2.211744 0,-1.41593 0.76997,-2.247918 0.77515,-0.831988 2.03605,-0.831988 1.16788,0 1.79833,0.682127 0.63562,0.682126 0.63562,1.93786 z m -0.94567,-0.744139 q -0.005,-0.764808 -0.38758,-1.183386 -0.37723,-0.418578 -1.15238,-0.418578 -0.78031,0 -1.2454,0.459919 -0.45991,0.459919 -0.52193,1.142045 z"
         id="path303" />
      <path
         d="m 116.87205,71.733047 h -0.97152 v -3.28661 q 0,-0.397907 -0.0465,-0.744138 -0.0465,-0.351399 -0.17054,-0.547769 -0.12919,-0.21704 -0.37207,-0.320393 -0.24287,-0.10852 -0.63045,-0.10852 -0.3979,0 -0.83198,0.19637 -0.43408,0.19637 -0.83199,0.50126 v 4.3098 h -0.97152 v -5.772239 h 0.97152 v 0.640786 q 0.45475,-0.377237 0.94051,-0.589109 0.48575,-0.211873 0.99735,-0.211873 0.93534,0 1.42626,0.563271 0.49093,0.563272 0.49093,1.622635 z"
         id="path300" />
      <path
         d="m 123.4246,71.733047 h -0.97152 v -0.604612 q -0.41857,0.361734 -0.87333,0.563271 -0.45475,0.201538 -0.98701,0.201538 -1.03353,0 -1.64331,-0.795815 -0.60461,-0.795814 -0.60461,-2.206576 0,-0.733803 0.20671,-1.30741 0.21187,-0.573606 0.56843,-0.976681 0.3514,-0.39274 0.81649,-0.599445 0.47025,-0.206705 0.97151,-0.206705 0.45475,0 0.80615,0.09819 0.3514,0.09302 0.73897,0.294555 V 63.69222 h 0.97152 z m -0.97152,-1.421097 v -3.312449 q -0.39274,-0.175699 -0.70279,-0.242878 -0.31006,-0.06718 -0.67696,-0.06718 -0.81649,0 -1.27124,0.568439 -0.45475,0.568439 -0.45475,1.612299 0,1.028358 0.3514,1.565791 0.3514,0.532266 1.12654,0.532266 0.41341,0 0.83716,-0.180867 0.42374,-0.186035 0.79064,-0.475422 z"
         id="path297" />
      <path
         d="m 130.16835,68.947697 h -4.25296 q 0,0.532265 0.1602,0.930172 0.1602,0.39274 0.43925,0.645954 0.26871,0.248046 0.63562,0.372069 0.37206,0.124023 0.81648,0.124023 0.58911,0 1.18339,-0.232543 0.59944,-0.237711 0.85266,-0.465087 h 0.0517 v 1.059364 q -0.49092,0.206705 -1.00252,0.346231 -0.51159,0.139526 -1.07486,0.139526 -1.4366,0 -2.24275,-0.775144 -0.80615,-0.780312 -0.80615,-2.211744 0,-1.41593 0.76997,-2.247918 0.77515,-0.831988 2.03605,-0.831988 1.16788,0 1.79833,0.682127 0.63562,0.682126 0.63562,1.93786 z m -0.94568,-0.744139 q -0.005,-0.764808 -0.38757,-1.183386 -0.37723,-0.418578 -1.15238,-0.418578 -0.78031,0 -1.2454,0.459919 -0.45992,0.459919 -0.52193,1.142045 z"
         id="path294" />
      <path
         d="m 135.24296,67.020172 h -0.0517 q -0.21704,-0.05168 -0.42374,-0.07235 -0.20154,-0.02584 -0.48059,-0.02584 -0.44959,0 -0.86816,0.201537 -0.41858,0.19637 -0.80615,0.511595 v 4.097928 h -0.97152 v -5.772239 h 0.97152 v 0.852659 q 0.57877,-0.465087 1.01802,-0.656289 0.44442,-0.19637 0.90433,-0.19637 0.25322,0 0.36691,0.0155 0.11368,0.01034 0.34106,0.04651 z"
         id="path291" />
    </g>
  </g>
</svg>
