<?xml version="1.0" encoding="UTF-8" standalone="no"?>
<svg
   role="img"
   viewBox="142.45 33.2 172.82932 214.77932"
   version="1.1"
   id="svg14"
   sodipodi:docname="tracksperanto.svg"
   width="172.82932"
   height="214.77931"
   inkscape:version="1.4 (e7c3feb1, 2024-10-09)"
   xmlns:inkscape="http://www.inkscape.org/namespaces/inkscape"
   xmlns:sodipodi="http://sodipodi.sourceforge.net/DTD/sodipodi-0.dtd"
   xmlns="http://www.w3.org/2000/svg"
   xmlns:svg="http://www.w3.org/2000/svg">
  <defs
     id="defs14" />
  <sodipodi:namedview
     id="namedview14"
     pagecolor="#ffffff"
     bordercolor="#000000"
     borderopacity="0.25"
     inkscape:showpageshadow="2"
     inkscape:pageopacity="0.0"
     inkscape:pagecheckerboard="0"
     inkscape:deskcolor="#d1d1d1"
     inkscape:zoom="0.95204795"
     inkscape:cx="85.604932"
     inkscape:cy="103.46118"
     inkscape:current-layer="svg14" />
  <title
     id="title1">tracksperanto logo</title>
  <linearGradient
     id="a"
     x1="356.957"
     x2="672.59802"
     y1="460.03201"
     y2="857.04999"
     gradientTransform="rotate(45.001,729.09702,119.17693)"
     gradientUnits="userSpaceOnUse">
    <stop
       offset="0"
       stop-color="#fff"
       id="stop1" />
    <stop
       offset="1"
       id="stop2" />
  </linearGradient>
  <path
     fill="url(#a)"
     d="m 239.77332,34.251311 -96.272,96.270999 78.96,78.961 75.943,-76.111 -1.584,-42.072999 -57.047,-57.048"
     id="path2"
     style="fill:url(#a)" />
  <path
     fill="none"
     stroke="#231f20"
     stroke-width="3"
     d="m 240.84232,35.321311 -96.271,96.270999 78.96,78.96 75.943,-76.11 -0.169,-40.658999 z"
     id="path3" />
  <path
     fill="#ffffff"
     stroke="#231f20"
     stroke-width="3"
     d="m 298.25432,94.145311 -19.539,19.537999 19.709,19.708"
     id="path4" />
  <path
     fill="none"
     stroke="#6d6e70"
     stroke-width="2"
     d="m 247.22732,127.29731 -0.001,11.847 -32.499,0.001 v -32.5 h 10.183"
     id="path5" />
  <path
     fill="none"
     stroke="#be1e2d"
     stroke-width="2"
     d="m 224.91032,106.64531 h 22.317 v 20.652"
     id="path6" />
  <path
     fill="none"
     stroke="#6d6e70"
     stroke-width="2"
     d="m 259.72632,139.97731 v 11.667 l -57.499,0.001 V 94.145311 h 11.553"
     id="path7" />
  <path
     fill="none"
     stroke="#be1e2d"
     stroke-width="2"
     d="m 213.78032,94.145311 h 45.947 l -0.001,45.831999 m -22.82,-23.003 c 23.298,-22.829999 41.946,-22.828999 41.946,-22.828999"
     id="path8" />
  <path
     fill="none"
     stroke="#6d6e70"
     stroke-width="2"
     d="m 190.56032,163.31131 40.383,-40.383 5.073,-5.073 c 0.298,-0.297 0.595,-0.591 0.891,-0.881"
     id="path9" />
  <path
     fill="#bf0015"
     d="m 274.98932,97.536311 3.392,-3.391 -3.392,-3.393 h 2.878 l 3.391,3.393 -3.391,3.391 z"
     id="path10" />
  <path
     fill="#6d6e70"
     d="m 228.60232,120.52031 h 4.75 v 4.75 h -4.75 z"
     id="path11" />
  <path
     fill="#be1e2d"
     d="m 151.28732,223.23631 v 3.597 h 3.907 v 2.077 h -3.907 v 8.093 c 0,1.86 0.527,2.915 2.047,2.915 0.744,0 1.178,-0.062 1.581,-0.187 l 0.124,2.077 c -0.527,0.187 -1.364,0.372 -2.418,0.372 -1.271,0 -2.294,-0.434 -2.946,-1.147 -0.744,-0.837 -1.054,-2.17 -1.054,-3.938 v -8.186 h -2.326 v -2.077 h 2.326 v -2.79 z m 6.355,8.278 c 0,-1.767 -0.031,-3.286 -0.124,-4.682 h 2.387 l 0.124,2.977 h 0.093 c 0.682,-2.016 2.356,-3.286 4.186,-3.286 0.279,0 0.496,0.03 0.744,0.062 v 2.573 c -0.279,-0.062 -0.558,-0.062 -0.93,-0.062 -1.922,0 -3.287,1.426 -3.659,3.473 a 8.161,8.161 0 0 0 -0.093,1.271 v 8 h -2.729 v -10.326 z m 19.903,6.729 c 0,1.302 0.062,2.573 0.217,3.597 h -2.45 l -0.217,-1.892 h -0.093 c -0.837,1.179 -2.45,2.232 -4.589,2.232 -3.039,0 -4.589,-2.14 -4.589,-4.31 0,-3.628 3.225,-5.612 9.022,-5.581 v -0.31 c 0,-1.21 -0.341,-3.473 -3.411,-3.442 -1.426,0 -2.883,0.403 -3.938,1.116 l -0.62,-1.829 c 1.24,-0.775 3.07,-1.302 4.961,-1.302 4.589,0 5.705,3.131 5.705,6.107 v 5.614 z m -2.635,-4.062 c -2.977,-0.062 -6.356,0.465 -6.356,3.379 0,1.799 1.178,2.605 2.542,2.605 1.984,0 3.256,-1.24 3.69,-2.512 0.093,-0.311 0.124,-0.62 0.124,-0.868 z m 17.113,7.131 c -0.713,0.342 -2.294,0.868 -4.31,0.868 -4.527,0 -7.473,-3.069 -7.473,-7.658 0,-4.62 3.163,-7.999 8.062,-7.999 1.612,0 3.039,0.402 3.783,0.806 l -0.62,2.077 c -0.651,-0.341 -1.674,-0.713 -3.163,-0.713 -3.441,0 -5.302,2.573 -5.302,5.674 0,3.473 2.232,5.612 5.209,5.612 1.55,0 2.573,-0.372 3.349,-0.713 z m 5.268,-7.596 h 0.062 c 0.372,-0.527 0.868,-1.179 1.302,-1.706 l 4.434,-5.178 h 3.256 l -5.767,6.17 6.604,8.837 h -3.349 l -5.146,-7.193 -1.396,1.551 v 5.643 h -2.697 v -22.014 h 2.697 z m 10.85,5.364 c 0.837,0.496 2.263,1.055 3.627,1.055 1.954,0 2.883,-0.961 2.883,-2.232 0,-1.303 -0.775,-1.984 -2.759,-2.729 -2.729,-0.992 -4,-2.449 -4,-4.248 0,-2.418 1.984,-4.402 5.178,-4.402 1.52,0 2.853,0.402 3.659,0.93 l -0.651,1.984 a 5.817,5.817 0 0 0 -3.07,-0.899 c -1.612,0 -2.48,0.931 -2.48,2.047 0,1.24 0.868,1.798 2.822,2.573 2.573,0.961 3.938,2.264 3.938,4.496 0,2.666 -2.077,4.526 -5.581,4.526 -1.644,0 -3.163,-0.434 -4.217,-1.054 z"
     id="path12" />
  <path
     fill="#231f20"
     d="m 220.16832,231.73231 c 0,-1.923 -0.062,-3.473 -0.124,-4.899 h 2.419 l 0.155,2.573 h 0.062 c 1.085,-1.829 2.884,-2.883 5.333,-2.883 3.659,0 6.387,3.069 6.387,7.596 0,5.396 -3.318,8.062 -6.852,8.062 -1.984,0 -3.721,-0.868 -4.62,-2.356 h -0.062 v 8.154 h -2.698 z m 2.698,3.999 c 0,0.403 0.031,0.775 0.124,1.116 0.496,1.892 2.139,3.193 4.093,3.193 2.883,0 4.558,-2.355 4.558,-5.798 0,-2.977 -1.582,-5.55 -4.465,-5.55 -1.86,0 -3.628,1.303 -4.124,3.349 -0.093,0.341 -0.186,0.744 -0.186,1.085 z m 15.841,-0.9 c 0.062,3.69 2.387,5.209 5.147,5.209 1.953,0 3.163,-0.341 4.155,-0.774 l 0.496,1.953 c -0.961,0.435 -2.635,0.961 -5.023,0.961 -4.62,0 -7.379,-3.069 -7.379,-7.597 0,-4.526 2.667,-8.061 7.039,-8.061 4.93,0 6.201,4.278 6.201,7.038 0,0.558 -0.031,0.961 -0.093,1.271 z m 7.999,-1.953 c 0.031,-1.705 -0.713,-4.402 -3.783,-4.402 -2.791,0 -3.969,2.512 -4.186,4.402 z m 5.392,-1.364 c 0,-1.767 -0.031,-3.286 -0.124,-4.682 h 2.388 l 0.124,2.977 h 0.093 c 0.683,-2.016 2.356,-3.286 4.186,-3.286 0.279,0 0.496,0.03 0.744,0.062 v 2.573 c -0.279,-0.062 -0.558,-0.062 -0.93,-0.062 -1.922,0 -3.287,1.426 -3.659,3.473 a 8.161,8.161 0 0 0 -0.093,1.271 v 8 h -2.729 z m 19.904,6.729 c 0,1.302 0.062,2.573 0.217,3.597 h -2.449 l -0.217,-1.892 h -0.093 c -0.837,1.179 -2.449,2.232 -4.589,2.232 -3.038,0 -4.589,-2.14 -4.589,-4.31 0,-3.628 3.225,-5.612 9.023,-5.581 v -0.31 c 0,-1.21 -0.341,-3.473 -3.411,-3.442 -1.426,0 -2.884,0.403 -3.938,1.116 l -0.62,-1.829 c 1.24,-0.775 3.069,-1.302 4.961,-1.302 4.589,0 5.705,3.131 5.705,6.107 z m -2.635,-4.062 c -2.977,-0.062 -6.356,0.465 -6.356,3.379 0,1.799 1.179,2.605 2.543,2.605 1.984,0 3.255,-1.24 3.689,-2.512 0.093,-0.311 0.124,-0.62 0.124,-0.868 z m 6.415,-3.287 c 0,-1.581 -0.031,-2.821 -0.124,-4.062 h 2.419 l 0.155,2.48 h 0.062 c 0.744,-1.396 2.48,-2.79 4.961,-2.79 2.077,0 5.302,1.24 5.302,6.387 v 8.93 h -2.729 v -8.65 c 0,-2.419 -0.899,-4.434 -3.473,-4.434 -1.767,0 -3.162,1.271 -3.658,2.79 -0.124,0.341 -0.187,0.806 -0.187,1.271 v 9.022 h -2.729 v -10.944 z m 19.747,-7.658 v 3.597 h 3.908 v 2.077 h -3.908 v 8.093 c 0,1.86 0.527,2.915 2.047,2.915 0.744,0 1.178,-0.062 1.582,-0.187 l 0.123,2.077 c -0.527,0.187 -1.363,0.372 -2.418,0.372 -1.271,0 -2.295,-0.434 -2.945,-1.147 -0.744,-0.837 -1.055,-2.17 -1.055,-3.938 v -8.186 h -2.325 v -2.077 h 2.325 v -2.79 z m 19.75,10.976 c 0,5.55 -3.877,7.968 -7.473,7.968 -4.031,0 -7.193,-2.977 -7.193,-7.72 0,-4.992 3.316,-7.938 7.441,-7.938 4.309,0.001 7.225,3.132 7.225,7.69 z m -11.876,0.155 c 0,3.287 1.86,5.768 4.526,5.768 2.605,0 4.559,-2.449 4.559,-5.829 0,-2.543 -1.271,-5.736 -4.496,-5.736 -3.193,-0.001 -4.589,2.975 -4.589,5.797 z"
     id="path13" />
</svg>
