<svg xmlns="http://www.w3.org/2000/svg" role="img" viewBox="142.45 33.20 181.34 223.34"><title>tracksperanto logo</title><linearGradient id="a" x1="356.957" x2="672.598" y1="460.032" y2="857.05" gradientTransform="rotate(45.001 726.05 126.695)" gradientUnits="userSpaceOnUse"><stop offset="0" stop-color="#fff"/><stop offset="1"/></linearGradient><path fill="url(#a)" d="M244.197 38.608l-96.272 96.271 78.96 78.961 75.943-76.111-1.584-42.073-57.047-57.048"/><path fill="none" stroke="#231F20" stroke-width="3" d="M245.266 39.678l-96.271 96.271 78.96 78.96 75.943-76.11-.169-40.659z"/><path fill="#FFF" stroke="#231F20" stroke-width="3" d="M302.678 98.502l-19.539 19.538 19.709 19.708"/><path fill="none" stroke="#6D6E70" stroke-width="2" d="M251.651 131.654l-.001 11.847-32.499.001v-32.5h10.183"/><path fill="none" stroke="#BE1E2D" stroke-width="2" d="M229.334 111.002h22.317v20.652"/><path fill="none" stroke="#6D6E70" stroke-width="2" d="M264.15 144.334v11.667l-57.499.001v-57.5h11.553"/><path fill="none" stroke="#BE1E2D" stroke-width="2" d="M218.204 98.502h45.947l-.001 45.832m-22.82-23.003c23.298-22.83 41.946-22.829 41.946-22.829"/><path fill="none" stroke="#6D6E70" stroke-width="2" d="M194.984 167.668l40.383-40.383 5.073-5.073c.298-.297.595-.591.891-.881"/><path fill="#BF0015" d="M279.413 101.893l3.392-3.391-3.392-3.393h2.878l3.391 3.393-3.391 3.391z"/><path fill="#6D6E70" d="M233.026 124.877h4.75v4.75h-4.75z"/><path fill="#BE1E2D" d="M155.711 227.593v3.597h3.907v2.077h-3.907v8.093c0 1.86.527 2.915 2.047 2.915.744 0 1.178-.062 1.581-.187l.124 2.077c-.527.187-1.364.372-2.418.372-1.271 0-2.294-.434-2.946-1.147-.744-.837-1.054-2.17-1.054-3.938v-8.186h-2.326v-2.077h2.326v-2.79l2.666-.806zm6.355 8.278c0-1.767-.031-3.286-.124-4.682h2.387l.124 2.977h.093c.682-2.016 2.356-3.286 4.186-3.286.279 0 .496.03.744.062v2.573c-.279-.062-.558-.062-.93-.062-1.922 0-3.287 1.426-3.659 3.473a8.161 8.161 0 0 0-.093 1.271v8h-2.729v-10.326zm19.903 6.729c0 1.302.062 2.573.217 3.597h-2.45l-.217-1.892h-.093c-.837 1.179-2.45 2.232-4.589 2.232-3.039 0-4.589-2.14-4.589-4.31 0-3.628 3.225-5.612 9.022-5.581v-.31c0-1.21-.341-3.473-3.411-3.442-1.426 0-2.883.403-3.938 1.116l-.62-1.829c1.24-.775 3.07-1.302 4.961-1.302 4.589 0 5.705 3.131 5.705 6.107v5.614zm-2.635-4.062c-2.977-.062-6.356.465-6.356 3.379 0 1.799 1.178 2.605 2.542 2.605 1.984 0 3.256-1.24 3.69-2.512.093-.311.124-.62.124-.868v-2.604zm17.113 7.131c-.713.342-2.294.868-4.31.868-4.527 0-7.473-3.069-7.473-7.658 0-4.62 3.163-7.999 8.062-7.999 1.612 0 3.039.402 3.783.806l-.62 2.077c-.651-.341-1.674-.713-3.163-.713-3.441 0-5.302 2.573-5.302 5.674 0 3.473 2.232 5.612 5.209 5.612 1.55 0 2.573-.372 3.349-.713l.465 2.046zm5.268-7.596h.062c.372-.527.868-1.179 1.302-1.706l4.434-5.178h3.256l-5.767 6.17 6.604 8.837h-3.349l-5.146-7.193-1.396 1.551v5.643h-2.697v-22.014h2.697v13.89zm10.85 5.364c.837.496 2.263 1.055 3.627 1.055 1.954 0 2.883-.961 2.883-2.232 0-1.303-.775-1.984-2.759-2.729-2.729-.992-4-2.449-4-4.248 0-2.418 1.984-4.402 5.178-4.402 1.52 0 2.853.402 3.659.93l-.651 1.984a5.817 5.817 0 0 0-3.07-.899c-1.612 0-2.48.931-2.48 2.047 0 1.24.868 1.798 2.822 2.573 2.573.961 3.938 2.264 3.938 4.496 0 2.666-2.077 4.526-5.581 4.526-1.644 0-3.163-.434-4.217-1.054l.651-2.047z"/><path fill="#231F20" d="M224.592 236.089c0-1.923-.062-3.473-.124-4.899h2.419l.155 2.573h.062c1.085-1.829 2.884-2.883 5.333-2.883 3.659 0 6.387 3.069 6.387 7.596 0 5.396-3.318 8.062-6.852 8.062-1.984 0-3.721-.868-4.62-2.356h-.062v8.154h-2.698v-16.247zm2.698 3.999c0 .403.031.775.124 1.116.496 1.892 2.139 3.193 4.093 3.193 2.883 0 4.558-2.355 4.558-5.798 0-2.977-1.582-5.55-4.465-5.55-1.86 0-3.628 1.303-4.124 3.349-.093.341-.186.744-.186 1.085v2.605zm15.841-.9c.062 3.69 2.387 5.209 5.147 5.209 1.953 0 3.163-.341 4.155-.774l.496 1.953c-.961.435-2.635.961-5.023.961-4.62 0-7.379-3.069-7.379-7.597 0-4.526 2.667-8.061 7.039-8.061 4.93 0 6.201 4.278 6.201 7.038 0 .558-.031.961-.093 1.271h-10.543zm7.999-1.953c.031-1.705-.713-4.402-3.783-4.402-2.791 0-3.969 2.512-4.186 4.402h7.969zm5.392-1.364c0-1.767-.031-3.286-.124-4.682h2.388l.124 2.977h.093c.683-2.016 2.356-3.286 4.186-3.286.279 0 .496.03.744.062v2.573c-.279-.062-.558-.062-.93-.062-1.922 0-3.287 1.426-3.659 3.473a8.161 8.161 0 0 0-.093 1.271v8h-2.729v-10.326zm19.904 6.729c0 1.302.062 2.573.217 3.597h-2.449l-.217-1.892h-.093c-.837 1.179-2.449 2.232-4.589 2.232-3.038 0-4.589-2.14-4.589-4.31 0-3.628 3.225-5.612 9.023-5.581v-.31c0-1.21-.341-3.473-3.411-3.442-1.426 0-2.884.403-3.938 1.116l-.62-1.829c1.24-.775 3.069-1.302 4.961-1.302 4.589 0 5.705 3.131 5.705 6.107v5.614zm-2.635-4.062c-2.977-.062-6.356.465-6.356 3.379 0 1.799 1.179 2.605 2.543 2.605 1.984 0 3.255-1.24 3.689-2.512.093-.311.124-.62.124-.868v-2.604zm6.415-3.287c0-1.581-.031-2.821-.124-4.062h2.419l.155 2.48h.062c.744-1.396 2.48-2.79 4.961-2.79 2.077 0 5.302 1.24 5.302 6.387v8.93h-2.729v-8.65c0-2.419-.899-4.434-3.473-4.434-1.767 0-3.162 1.271-3.658 2.79-.124.341-.187.806-.187 1.271v9.022h-2.729v-10.944zm19.747-7.658v3.597h3.908v2.077h-3.908v8.093c0 1.86.527 2.915 2.047 2.915.744 0 1.178-.062 1.582-.187l.123 2.077c-.527.187-1.363.372-2.418.372-1.271 0-2.295-.434-2.945-1.147-.744-.837-1.055-2.17-1.055-3.938v-8.186h-2.325v-2.077h2.325v-2.79l2.666-.806zm19.75 10.976c0 5.55-3.877 7.968-7.473 7.968-4.031 0-7.193-2.977-7.193-7.72 0-4.992 3.316-7.938 7.441-7.938 4.309.001 7.225 3.132 7.225 7.69zm-11.876.155c0 3.287 1.86 5.768 4.526 5.768 2.605 0 4.559-2.449 4.559-5.829 0-2.543-1.271-5.736-4.496-5.736-3.193-.001-4.589 2.975-4.589 5.797z"/><path fill="none" d="M92 16.889h256v270H92zm2.032 270H348v270H94.032z"/></svg>