<svg id="Layer_1" data-name="Layer 1" xmlns="http://www.w3.org/2000/svg" viewBox="0 0 342.69698 430.04565"><defs><style>.cls-1{fill:#010101;}.cls-2{fill:#2c7408;}.cls-3{fill:#2c7508;}.cls-4{fill:#43a212;}.cls-5{fill:#43a112;}.cls-6{fill:#2a7108;}.cls-7{fill:#1e4f05;}.cls-8{fill:#296e07;}.cls-9{fill:#bdd933;}.cls-10{fill:#2a6f08;}.cls-11{fill:#419f12;}.cls-12{fill:#1e4e05;}.cls-13{fill:#44a213;}.cls-14{fill:#47a413;}.cls-15{fill:#2b7208;}.cls-16{fill:#4ca515;}.cls-17{fill:#48a413;}.cls-18{fill:#bed933;}.cls-19{fill:#41a112;}.cls-20{fill:#add02f;}.cls-21{fill:#3c8410;}.cls-22{fill:#839523;}.cls-23{fill:#3d8511;}.cls-24{fill:#41a012;}.cls-25{fill:#849e23;}.cls-26{fill:#bdd832;}.cls-27{fill:#77921f;}.cls-28{fill:#a8cf2d;}.cls-29{fill:#45a313;}</style></defs><title>tuttleOFX</title><path class="cls-1" d="M208.92609,187.18185q0,38.30606.00731,76.61215c.00265,4.49051-1.52012,9.42175,6.138,9.90427,3.63655.22911,4.26325,4.67428,4.24549,8.29824-.05838,11.91717-.10507,23.83562.01467,35.75185.05773,5.74491-2.07542,9.09978-8.24629,9.09669-25.44068-.01279-50.88262-.12371-76.32128.10871-7.987.073-9.77331-3.97469-9.50513-10.92432.3411-8.83979-.25478-17.71993.195-26.55.32778-6.435-3.48358-14.92714,7.52864-17.19731,2.07468-.42773,1.21985-4.29555,1.22114-6.61783q.04377-78.14441-.02536-156.28873c-.01813-9.44239-10.00493-18.90463-19.34611-18.90911-9.50066-.00456-19.00219-.07213-28.50166.036-5.35208.061-11.73757-2.0896-13.216,6.54205-.42989,2.5098-3.66639,2.71427-6.08834,2.72653-9.53341.04829-19.06816-.05026-28.60039.06829-5.58894.06949-8.16811-2.70335-8.17574-8.05906q-.05531-38.81619-.01858-77.63249c.00513-5.40965,2.86718-8.13425,8.25191-8.15027,9.1933-.02734,18.38674-.01409,27.58012-.01,2.834.00126,6.63912.50353,7.01927,3.07125,1.31332,8.8707,7.70772,6.48741,12.96022,6.57376,8.51016.13991,17.02988.22588,25.53489-.02591,6.06613-.17958,13.576,3.04543,15.86309-7.01037.65784-2.89233,5.13627-2.62971,8.23776-2.62845q36.77385.01491,73.54768.00471c3.11166-.00043,7.40547-.12342,8.0862,2.93343,1.97237,8.85677,8.42018,6.70388,14.0922,6.74731q12.76794.09774,25.53708-.00317c5.30784-.04681,10.7984,1.88348,13.20057-6.4184,1.52209-5.26038,38.40018-4.88459,41.38856-.02965a13.612,13.612,0,0,1,1.46561,6.80415c.09948,24.5155-.06012,49.03253.13756,73.54682.05884,7.29678-2.63313,10.718-10.21066,10.3486-7.13347-.34778-14.29812-.00626-21.44751-.09346-5.61662-.06852-11.89809,1.40838-13.30442-7.18809-.61424-3.75483-4.525-2.03189-6.92961-2.07449-10.516-.1863-21.038-.00017-31.55632-.10153-10.28972-.09913-20.71695,9.82489-20.74043,20.12711C208.887,136.108,208.9261,161.645,208.92609,187.18185Z"/><path class="cls-2" d="M170.33394,321.90458c-10.84.59824-21.57239-.62338-32.34491-1.58465-4.69293-.4188-6.63674-1.88682-6.52171-6.68234.21921-9.13816.38261-18.30081-.05268-27.42359-.30431-6.37755,3.04395-7.43512,8.102-7.111,2.29676-3.42924,1.12027-7.28016,1.12744-10.90914.09284-46.92474.01513-93.84982.08866-140.77463.02291-14.607,12.09776-25.74424,25.96678-24.27249,2.83227,3.48133,2.35128,7.677,2.35636,11.69883q.09592,75.83775.044,151.67562c.00087,5.49431-1.84652,10.46116-3.2247,15.68825-3.2102,12.17535-6.9281,24.994,3.12361,36.26625A4.10758,4.10758,0,0,1,170.33394,321.90458Z"/><path class="cls-3" d="M139.553,97.33845c-7.072-1.16116-8.48577-6.09183-8.12906-12.202-11.58607-2.56118-23.3236-.61764-34.98008-1.15487-11.39184-.525-22.55608-11.10028-23.35483-22.43323a4.64411,4.64411,0,0,1,1.99-4.359c16.45149-3.35921,33.22248-2.54141,49.5836-1.14841,24.0819,2.05035,48.09021.677,72.11469,1.38237,4.745.13933,9.49759.00473,14.24815-.05064a4.389,4.389,0,0,1,3.27544,1.7761c2.67629,8.75278,3.68885,17.44569-1.03988,25.90638.17025,6.03421-.69158,11.35206-8.3136,11.97774A9.70679,9.70679,0,0,1,202.5962,91.562c-2.15051-14.3468-2.15953-14.34545-16.54681-17.93579-5.72663.19066-11.36946-1.23349-17.09652-.76154-6.50607.61912-8.03986,4.76965-8.1449,10.5597-.09447,5.20912,1.32268,10.94866-3.48537,15.16584C151.20157,100.86072,145.218,101.32551,139.553,97.33845Z"/><path class="cls-4" d="M170.33394,321.90458q-.18006-.74151-.37381-1.47955c.33117-.43275.66235-.86547.98865-1.30361,12.82918-4.11081,12.87913-4.111,12.83014-17.89017-.02736-7.69438.95742-15.54892-3.03994-22.75314a20.0376,20.0376,0,0,1-.94368-3.59265c-1.0737-55.22941-.36076-110.44489-.38822-165.65859-.00168-3.39185.37-6.78894,2.4914-9.69133,3.61189-3.15418,7.40552-3.13073,11.337-.6521,3.65661,5.11624,2.75536,11.053,2.76551,16.74122q.12987,72.79809.006,145.59649c-.01023,7.03049.3618,13.6577,7.20129,17.80076a11.51416,11.51416,0,0,1,1.698.44752c5.3554,13.50291,5.14253,27.02543.143,40.56485C193.5707,322.38694,181.96978,322.46973,170.33394,321.90458Z"/><path class="cls-2" d="M306.86666,60.323c.10964,3.03345.3942,6.07223.30183,9.09951-.88729,29.07506,5.16023,23.00906-24.77777,24.02347-6.61053.224-8.31214-2.74063-7.86274-8.41324-9.24036-2.36488-18.70731-1.438-27.9385-.84637-12.82545.822-21.26866-4.13613-26.77819-15.36719a42.67786,42.67786,0,0,0-6.427-10.22112l-.25677-.23245c-1.17455-1.79914-.79458-3.31917.83121-4.621a6.8277,6.8277,0,0,1,5.30684.05837c4.12288,2.13027,8.61024,1.95029,12.99522,1.73654,21.75668-1.06056,43.38708,1.75542,65.09888,1.977C300.768,57.55129,304.20119,57.68581,306.86666,60.323Z"/><path class="cls-3" d="M203.20834,279.02191c-8.99541,1.79445-10.57719-2.65487-10.53718-10.71168.27974-56.33429.12745-112.67075.11347-169.00651a2.141,2.141,0,0,1,.7196-3.04707c3.54155-1.63014,6.913-1.92767,9.83233,1.26726Z"/><path class="cls-5" d="M306.9265,25.8168q-.04047,6.22221-.081,12.44441c-4.26161,3.64094-9.45362,2.60927-14.3452,2.67377-6.35014.08375-12.6689-.00464-18.55,2.93836a268.58391,268.58391,0,0,1-56.45047.22493A7.6722,7.6722,0,0,1,214.359,41.8862c-1.89435-3.78247-1.98708-7.41285.92605-10.78082,14.109-4.68035,28.66109-1.37613,42.99023-2.25952,6.0564-.37337,12.24084.13691,16.16893-5.88531C285.59,20.32465,296.81925,16.71561,306.9265,25.8168Z"/><path class="cls-2" d="M68.25709,85.18461c.612,5.79892-1.32661,8.18579-7.80765,8.32508-24.30944.52242-24.76505.34993-24.83637-24.05645-.01275-4.36379.07121-8.72787.11052-13.09181,7.3211,1.46888,14.74488.99411,22.13518,1.21114,4.02017.11807,8.21731-.14969,11.33919,3.24876C72.02085,69.06506,72.83564,77.23052,68.25709,85.18461Z"/><path class="cls-6" d="M131.479,21.65394c.08008-6.20336,1.835-10.1742,9.4072-10.0481,21.02376.35011,42.0572.09582,63.08665.14948,2.89174.00738,6.402-.90128,7.33835,3.44549a12.08814,12.08814,0,0,1,.33061,8.72916,8.29583,8.29583,0,0,1-3.15925,1.92239c-25.18556,1.03764-50.38078,2.79337-75.5127-.92516A3.24334,3.24334,0,0,1,131.479,21.65394Z"/><path class="cls-7" d="M139.553,97.33845l18.59994-.17739c2.964-2.59862,6.41025-2.44,9.95395-1.7575a7.4322,7.4322,0,0,1,2.59633,1.42152,5.53146,5.53146,0,0,1,.8224,2.795,5.065,5.065,0,0,1-1.26806,2.59207,5.72276,5.72276,0,0,1-4.12351,1.12354c-19.39236,6.76089-24.40119,13.53766-24.40122,33.01483-.00009,43.77369.048,87.54754-.08409,131.32084-.01157,3.83049,1.74789,8.22957-2.13109,11.43184Q139.53434,188.22061,139.553,97.33845Z"/><path class="cls-8" d="M211.21457,23.64652q.04744-4.22018.09576-8.443c1.84939,4.87874,4.84683,6.96607,10.57172,6.71332,12.85676-.56763,25.758-.039,38.63672-.23779,6.16751-.0952,13.89039,2.84184,15.41391-7.691.39415-2.72491,4.53458-2.23363,7.21882-2.26977,3.38935-.04563,6.77974-.01887,10.16968-.01525,13.91386.01487,13.91386.016,13.60622,14.11364-10.50756-4.24662-21.47323-1.171-32.193-2.01784a13.50708,13.50708,0,0,1-8.47011,2.97794c-15.5755.35873-31.15292.38105-46.72725-.02065C216.47619,26.67719,213.4423,26.14038,211.21457,23.64652Z"/><path class="cls-9" d="M274.43105,41.78654c.55864-4.5246,4.05212-3.76637,6.98235-3.76059,8.47748.01674,16.95469.14833,25.43208.23505q.025,7.96539.04987,15.93037c-10.74376,5.37953-21.64987,4.07724-32.61354.79818C271.03172,50.55307,271.40166,46.15383,274.43105,41.78654Z"/><path class="cls-10" d="M131.479,21.65394l.1141,2.15514c-.4945.4268-.989.85361-1.47907,1.28851-11.33775,3.52119-22.98032,1.29175-34.47676,1.69791-9.1756.32417-18.38187.32289-27.57216-.09713-10.28729-.74892-21.036,3.03967-30.77318-3.11449-1.61916-9.14682,1.60608-13.42133,11.3958-11.96694,3.99067.59287,8.14106.08692,12.21826.13,2.39031.02525,5.91454.00883,6.1723,2.3909,1.10086,10.17363,8.49384,7.53582,14.45129,7.56783C98.1788,21.79511,114.8291,21.68518,131.479,21.65394Z"/><path class="cls-11" d="M37.29191,23.58388l30.68088.18521c2.58725,2.49951,3.42228,5.74215,3.90054,9.15016.14122,3.26814-.98517,5.77555-4.21906,7.01936a90.10192,90.10192,0,0,1-28.865.10493,9.58191,9.58191,0,0,1-3.0154-2.0483C35.92294,33.15386,34.42547,28.139,37.29191,23.58388Z"/><path class="cls-12" d="M68.25709,85.18462l-.19977-24.78579a4.58282,4.58282,0,0,1-1.25493-4.85152,4.2883,4.2883,0,0,1,1.637-2.00605,4.3072,4.3072,0,0,1,3.77.40229,5.26159,5.26159,0,0,1,1.97811,4.586C83.38833,82.60306,90.08531,83.8143,107.844,83.143c7.7891-.29446,16.07052-2.51339,23.58021,1.99251Q99.84043,85.161,68.25709,85.18462Z"/><path class="cls-13" d="M203.33656,97.52391l-10.50339-.17462c-2.45716,1.21829-4.849,1.50322-7.0858-.49367-3.073-8.75724-3.84337-17.45161.72594-25.99592a32.64786,32.64786,0,0,1,3.87752.73725c14.76763,4.643,14.76624,4.65424,14.68885,20.45022-.00815,1.66238-.0601,3.32454-.092,4.98626A5.2787,5.2787,0,0,1,203.33656,97.52391Z"/><path class="cls-14" d="M274.53577,54.08515q16.17991.05264,32.3597.10573-.0138,3.06687-.0281,6.13244c-27.32193,1.1211-54.5109-3.60381-81.84572-1.85122-3.28537.21065-5.98351-.76558-7.80793-3.64759.42566-.50243.85133-1.00486,1.27286-1.5135C237.21243,50.29411,255.92029,48.87283,274.53577,54.08515Z"/><path class="cls-12" d="M213.38426,58.59806c4.9077.24826,6.54813,3.66306,8.30867,7.6514,5.12046,11.6,13.2326,17.9241,27.03039,16.987,8.46128-.57468,17.50715-2.719,25.80469,1.7961q-30.63373.01118-61.26718.02229Q213.3228,71.82677,213.38426,58.59806Z"/><path class="cls-15" d="M205.04934,320.03428q-.07113-20.28316-.14263-40.56559c6.14225-1.24458,8.65058,1.06988,8.351,7.48959-.39361,8.43311-.41467,16.91443.00786,25.34476C213.58272,318.63139,211.21864,321.09737,205.04934,320.03428Z"/><path class="cls-16" d="M68.292,54.62117q-.11677,2.88954-.23412,5.77837c-7.65438.02677-15.31633-.14615-22.95873.16345-4.02194.16293-7.12861-.83536-9.37629-4.20181q.02587-9.18237.05064-18.36559.89959.00527,1.797.05639c2.226,11.45015,9.39442,15.07319,20.43343,13.49046C61.55283,51.03361,65.57811,51.23356,68.292,54.62117Z"/><path class="cls-4" d="M166.13409,103.33572a4.4299,4.4299,0,0,1,4.05491-2.00063c3.41235,3.1017,3.32977,7.31911,3.3303,11.3449.00732,54.28451.43192,108.56972-.16662,162.84931-.03753,1.31583-.06442,2.63634-.04846,3.95414.45154,9.7074.15432,19.422.13237,29.1344-.00911,4.02611-.1098,8.09563-3.0676,11.35654l-.40674.44781c-7.92442.70967-10.85465-2.76-10.02824-10.7141.66376-6.38869-.02236-12.90647.18812-19.35722.14494-4.44251-1.57888-9.28778,4.43168-12.27373,3.14343-1.56163,1.58109-6.26781,1.58386-9.56215Q166.20739,185.92541,166.13409,103.33572Z"/><path class="cls-17" d="M74.18742,58.52953q-1.1288-1.81677-2.25757-3.63354c.40081-.50548.8016-1.011,1.19832-1.5222,7.69144-3.7545,15.91979-1.93164,23.90924-2.09107,11.11809-.22187,22.25194-.35833,33.37359.10482,1.27193.004,2.54525.01347,3.81792-.00924,25.38.276,50.7882-1.49114,76.14737.98409a6.09763,6.09763,0,0,1,2.93026,2.42986q-.08821,1.78755-.17775,3.57423c-2.96738,2.02486-6.30965,2.16168-9.76062,2.153-21.74336-.05491-43.62393,1.4847-65.19167-.46366C116.78186,58.12307,95.504,59.18669,74.18742,58.52953Z"/><path class="cls-18" d="M186.47331,70.8597q.06565,13.1774.13129,26.35479c-1.32466,1.31433-3.23588.98137-4.77351,1.70617-4.09531,1.37843-7.98695,1.33266-11.46041-1.63409l-.24521.11975c-4.40506-8.93471-4.47032-17.86042.0555-26.77662C175.63357,69.16052,181.04069,70.91385,186.47331,70.8597Z"/><path class="cls-19" d="M170.181,70.6297q-.02748,13.388-.05525,26.77635-5.98759-.12123-11.97371-.244c-.02783-4.75677.44544-9.58077-.18979-14.25412C156.63336,73.13147,160.32743,68.97328,170.181,70.6297Z"/><path class="cls-18" d="M170.57774,277.06364q-.19389-87.86478-.38828-175.72906l.25625.10461c3.16-2.944,7.30643-2.23467,11.05894-2.98672q.6117.40908,1.22265.82033-.12385,88.91167-.24771,177.82334C178.50368,280.24266,174.536,280.37323,170.57774,277.06364Z"/><path class="cls-9" d="M170.369,319.97438q.11325-20.38342.22647-40.7668c4.09217-1.72809,8.22682-1.39317,12.378-.2549,3.60421.354,3.96694,2.86208,3.95382,5.761-.04394,9.7127-.15952,19.42865.04068,29.1374.09894,4.79793-1.96312,6.71166-6.57232,6.45726C177.05747,320.1241,173.71149,320.08062,170.369,319.97438Z"/><path class="cls-20" d="M182.97349,278.95268q-6.19012.12723-12.37913.25471-.00828-1.07146-.01768-2.14356,5.953.0161,11.90342.0324Q182.7414,278.02035,182.97349,278.95268Z"/><path class="cls-21" d="M182.75793,97.49916q1.92323-.142,3.84658-.28437,3.114.066,6.22817.13358-.03318.97845-.048,1.95544-5.02961-.01569-10.05823-.0311l-.312.16944q-.91926-.83041-.46033-1.41731A1.09825,1.09825,0,0,1,182.75793,97.49916Z"/><path class="cls-22" d="M217.21372,54.82451q-1.95372-.019-3.90733-.03511c-.13612-.32655-.26065-.66032-.37345-.99848-2.87833-3.56493-2.49216-7.33253-.70109-11.19081a2.92328,2.92328,0,0,1,2.96972-1.15863l.10994.72713c2.64983,3.60228,4.5899,7.33322,2.14924,11.85814Z"/><path class="cls-18" d="M217.46075,54.02674c-1.06425-3.89-2.7252-7.67189-2.14966-11.85864q29.56092-.18868,59.12046-.38.05165,6.14819.10422,12.29829Q245.99827,54.05531,217.46075,54.02674Z"/><path class="cls-2" d="M211.21457,23.64652q31.75785.07512,63.51776.15128c.46543,5.87028-1.80328,8.29617-8.103,8.16223-17.11592-.36389-34.24512-.10307-51.369-.08989a2.02167,2.02167,0,0,1-2.60912.09893c-1.75877-2.52215-2.953-5.14838-1.4821-8.2516Z"/><path class="cls-23" d="M213.25614,31.85144q1.00227-.0009,2.00422.01868-.02929,4.79066-.05857,9.57631a4.65063,4.65063,0,0,1-1.90552.59783,6.1365,6.1365,0,0,1-2.17155-4.25453C211.0247,35.52195,211.37646,33.41052,213.25614,31.85144Z"/><path class="cls-24" d="M213.25614,31.85144q-.17567,3.3384-.35132,6.67678c-4.10771,3.25666-9.015,2.59853-13.707,2.63827-21.06627.17843-42.13437-.12391-63.1937.21386-1.915-.08476-3.69171.69649-5.54981.9635-19.29421.96344-38.59869.67572-57.90806.22644a10.18705,10.18705,0,0,1-3.53209-1.27035,2.55772,2.55772,0,0,1-1.07348-3.23027c2.53107-1.41324,2.16709-3.86985,2.22524-6.17432,3.47795-3.56629,8.04241-3.006,12.346-3.07086,11.45-.17259,22.90359.0218,34.35463-.10019,5.4-.05753,10.89395-.05135,14.70921-4.9325l.01628.0162q39.78977-.04447,79.57719-.09082A14.16014,14.16014,0,0,1,213.25614,31.85144Z"/><path class="cls-25" d="M182.75793,97.49916q-.171.97087-.34275,1.94237-5.98579.99945-11.96978,1.99766-.03745-2.07678-.07513-4.15309Q176.56451,97.39309,182.75793,97.49916Z"/><path class="cls-2" d="M131.57568,23.7918c.64878,5.98592-1.75454,8.27313-8.01115,8.15818-17.79387-.32691-35.59832-.0777-53.39863-.055-2.99312-2.09919-1.6788-5.35925-2.19151-8.12671Q99.77343,23.78083,131.57568,23.7918Z"/><path class="cls-26" d="M67.94064,38.06967q.214.94482.42763,1.88973c3.275,4.85082,3.2651,9.68165-.08817,14.49214l.01158.16885c-5.0826-.02722-10.16549-.07593-15.24842-.07943-16.49839-.01137-16.4984-.005-15.47308-16.48921Q52.75575,38.06093,67.94064,38.06967Z"/><path class="cls-27" d="M68.2801,54.45154q.043-7.24592.08707-14.492a15.12044,15.12044,0,0,0,1.79406.08516,17.36911,17.36911,0,0,1,1.81861,2.40352c1.12673,3.80222,3.25957,7.56505.52178,11.54248q-.26541.46279-.57082.90309Q70.1045,54.67486,68.2801,54.45154Z"/><path class="cls-18" d="M133.59668,38.29324q39.65519.11615,79.30924.23365.19362,1.76022.3899,3.51758-.17925,5.87544-.36115,11.74888c-26.45852,1.58077-52.93164.62687-79.39937.50879C129.49366,48.95026,130.2713,43.61686,133.59668,38.29324Z"/><path class="cls-18" d="M72.50162,53.99071q-1.13028-5.9087-2.26057-11.81738c20.17091-2.29147,40.39659-.70284,60.5974-.85576,2.88314,4.1577,1.93838,8.492.59069,12.84486Z"/><path class="cls-28" d="M131.42914,54.16243l-.05969-12.44081q-.95328-.40243-.78364-1.02464.18336-.67679.45073-.677,1.27977-.86454,2.55983-1.72789-.03032,8.00653-.06117,16.01039Q132.48227,54.23214,131.42914,54.16243Z"/><path class="cls-29" d="M131.03654,40.01994a8.46807,8.46807,0,0,1,.33361,1.70374q-30.566.22251-61.12986.44939-.0387-1.06394-.079-2.12837Z"/><path d="M23.66553,383.54506H10.27783v-8.9248H46.73145v8.9248H33.34424v35.07129H23.66553Z"/><path d="M49.74854,406.73744V384.92787h9.55322v18.793c0,4.52539,2.13721,6.85059,5.78222,6.85059,3.64551,0,5.9712-2.3252,5.9712-6.85059v-18.793H80.6084v33.68848H71.05518V413.84c-2.2002,2.82813-5.02832,5.40528-9.86768,5.40528C53.95947,419.24526,49.74854,414.46791,49.74854,406.73744Z"/><path d="M90.72607,409.06264V393.09877H86.70361v-8.1709h4.02246v-8.61035h9.55323v8.61035h7.91943v8.1709H100.2793v14.39258c0,2.2002.94287,3.26856,3.07959,3.26856a9.7094,9.7094,0,0,0,4.71386-1.19434v7.668a14.08175,14.08175,0,0,1-7.542,1.94824C94.68555,419.18178,90.72607,416.85658,90.72607,409.06264Z"/><path d="M116.80859,409.06264V393.09877h-4.02246v-8.1709h4.02246v-8.61035h9.55323v8.61035h7.91943v8.1709h-7.91943v14.39258c0,2.2002.94287,3.26856,3.07959,3.26856a9.7094,9.7094,0,0,0,4.71386-1.19434v7.668a14.08175,14.08175,0,0,1-7.542,1.94824C120.76807,419.18178,116.80859,416.85658,116.80859,409.06264Z"/><path d="M141.75977,372.73549H151.313v45.88086h-9.55322Z"/><path d="M158.66553,401.96108v-.126c0-9.61621,6.85107-17.53516,16.65576-17.53516,11.251,0,16.4043,8.73633,16.4043,18.28907,0,.75488-.0625,1.63476-.126,2.51465H168.15625c.94336,4.33691,3.96,6.59863,8.2334,6.59863,3.20605,0,5.53125-1.00488,8.1709-3.45606l5.46777,4.83887a16.84544,16.84544,0,0,1-13.76367,6.28516C166.145,419.37026,158.66553,412.26869,158.66553,401.96108Zm23.7583-2.82813c-.56543-4.27441-3.08008-7.165-7.10254-7.165-3.96,0-6.53613,2.82813-7.291,7.165Z"/><path d="M197.88477,396.74428v-.126c0-12.50683,9.86718-22.75195,23.44336-22.75195s23.31738,10.11914,23.31738,22.62695v.125c0,12.50782-9.86719,22.752-23.44336,22.752C207.627,419.37026,197.88477,409.25112,197.88477,396.74428Zm36.64257,0v-.126c0-7.542-5.53125-13.82714-13.32519-13.82714-7.793,0-13.19824,6.15917-13.19824,13.70214v.125c0,7.542,5.53125,13.82715,13.32422,13.82715C229.12207,410.44545,234.52734,404.28627,234.52734,396.74428Z"/><path d="M253.25488,374.62026h33.5v8.7998H262.93457v9.36426h20.99219v8.7998H262.93457v17.03223h-9.67969Z"/><path d="M306.48926,396.24135l-14.707-21.62109h11.3125l9.23925,14.26757,9.30176-14.26757h10.999l-14.707,21.49511,15.33594,22.501H321.9502l-9.86719-15.084-9.93067,15.084h-10.999Z"/></svg>