<svg width="160" height="160" version="1.1" xmlns="http://www.w3.org/2000/svg"><path fill="rgb(28,76,5)" stroke="rgb(28,76,5)" stroke-width="1" opacity="1" d="M 15.5 4 L 30 4.5 L 15 5 L 14.5 11 L 14 5.5 L 15.5 4 Z "></path><path fill="rgb(28,76,5)" stroke="rgb(28,76,5)" stroke-width="1" opacity="1" d="M 62.5 4 L 99.5 4 L 101 5.5 L 101.5 9 L 130.5 9 L 130.5 10 L 101.5 10 L 100 8.5 L 99.5 5 L 62 5 Q 63 8.8 60.5 10 L 31 9.5 L 61 9 Q 60 5.2 62.5 4 Z "></path><path fill="rgb(28,76,5)" stroke="rgb(28,76,5)" stroke-width="1" opacity="1" d="M 132.5 4 L 145.5 4 L 147 5.5 L 146.5 10 L 146 5 L 132.5 5 L 132 7.5 L 131 7.5 L 132.5 4 Z "></path><path fill="rgb(28,76,5)" stroke="rgb(28,76,5)" stroke-width="1" opacity="1" d="M 31.5 27 Q 33.8 26.3 33 28.5 L 39.5 38 L 41.5 39 L 61 39.5 L 30 40 L 30 28.5 L 31.5 27 Z "></path><path fill="rgb(28,76,5)" stroke="rgb(28,76,5)" stroke-width="1" opacity="1" d="M 101 27 L 105 29.5 L 105 31.5 L 110.5 38 L 112.5 39 L 131 39.5 L 101 40 L 101 27 Z "></path><path fill="rgb(28,76,5)" stroke="rgb(28,76,5)" stroke-width="1" opacity="1" d="M 14.5 28 L 15 42.5 L 14 42.5 L 14.5 28 Z "></path><path fill="rgb(28,76,5)" stroke="rgb(28,76,5)" stroke-width="1" opacity="1" d="M 146.5 38 L 147 43.5 L 146 43.5 L 146.5 38 Z "></path><path fill="rgb(28,76,5)" stroke="rgb(28,76,5)" stroke-width="1" opacity="1" d="M 131.5 41 L 132 43.5 L 131 43.5 L 131.5 41 Z "></path><path fill="rgb(28,76,5)" stroke="rgb(28,76,5)" stroke-width="1" opacity="1" d="M 65 46 L 76.5 46 L 78 47.5 Q 78.8 49.8 76.5 49 L 66 57.5 L 65.5 135 L 65 46 Z "></path><path fill="rgb(28,76,5)" stroke="rgb(28,76,5)" stroke-width="1" opacity="1" d="M 95.5 47 L 96 133.5 L 95 133.5 L 95.5 47 Z "></path><path fill="rgb(28,76,5)" stroke="rgb(28,76,5)" stroke-width="1" opacity="1" d="M 65.5 155 L 75 155.5 L 65.5 156 L 65.5 155 Z "></path><path fill="rgb(28,76,5)" stroke="rgb(28,76,5)" stroke-width="1" opacity="1" d="M 93.5 155 L 97 155.5 L 93.5 156 L 93.5 155 Z "></path><path fill="rgb(122,186,32)" stroke="rgb(122,186,32)" stroke-width="1" opacity="1" d="M 14 17 L 29.5 17 L 30 18.5 L 31.5 18 L 101 17 L 101.5 19 L 102.5 18 L 130.5 18 L 131.5 17 L 147 17 L 147 25.5 L 146.5 26 L 104.5 26 L 101.5 25 L 100.5 26 L 33.5 26 L 30.5 25 L 29.5 26 L 15.5 26 L 14 24.5 L 14 17 Z "></path><path fill="rgb(122,186,32)" stroke="rgb(122,186,32)" stroke-width="1" opacity="1" d="M 80 32 L 89 33 L 89 45.5 L 86.5 46 L 87 47.5 L 87 133.5 L 89 135.5 L 89 154.5 L 87.5 156 L 80 156 L 80 134.5 L 79 133.5 L 79 49.5 L 80 48.5 L 80 32 Z "></path><path fill="rgb(44,118,8)" stroke="rgb(44,118,8)" stroke-width="1" opacity="1" d="M 15 10 L 30.5 10 L 31 11.5 L 30.5 13 L 60.5 13 L 61.5 10 L 101 10 L 101.5 13 L 131 13 L 131.5 10 L 147 10 L 147 17 L 131.5 17 L 130.5 18 L 102.5 18 L 101.5 19 L 101 17 L 61.5 17 L 60.5 18 L 31.5 18 L 30.5 19 L 30 17 L 14.5 17 Q 13.5 17 14 12.5 L 15 10 Z "></path><path fill="rgb(44,118,8)" stroke="rgb(44,118,8)" stroke-width="1" opacity="1" d="M 14.5 25 L 15.5 26 L 30 26 L 29.5 29 L 15.5 29 Q 13 28 14.5 25 Z "></path><path fill="rgb(44,118,8)" stroke="rgb(44,118,8)" stroke-width="1" opacity="1" d="M 32.5 25 L 33.5 26 L 101 26 L 99.5 29 L 33.5 28 L 32 26.5 L 32.5 25 Z "></path><path fill="rgb(44,118,8)" stroke="rgb(44,118,8)" stroke-width="1" opacity="1" d="M 103.5 25 L 104.5 26 L 147 26 L 146.5 29 L 131.5 29 L 130.5 28 L 104.5 28 L 103 26.5 L 103.5 25 Z "></path><path fill="rgb(44,118,8)" stroke="rgb(44,118,8)" stroke-width="1" opacity="1" d="M 75.5 32 L 80 32 L 80 46 L 74 46 L 74 33.5 L 75.5 32 Z "></path><path fill="rgb(44,118,8)" stroke="rgb(44,118,8)" stroke-width="1" opacity="1" d="M 89 33 L 97 35 L 97 45.5 L 95.5 46 L 93.5 46 L 92 46.5 L 92 134 L 97 135 L 97 154.5 Q 96.9 155.6 91.5 155 L 88.5 156 L 89 154.5 L 89 135.5 L 87 133.5 L 87 47.5 L 86 46.5 L 89 46 L 89 33 Z "></path><path fill="rgb(44,118,8)" stroke="rgb(44,118,8)" stroke-width="1" opacity="1" d="M 78.5 48 L 80 48.5 L 79 49.5 L 79 133.5 L 80 134.5 L 80 156 L 74 155 L 74 134.5 L 77 133.5 L 77 49.5 L 78.5 48 Z "></path><path fill="rgb(44,117,8)" stroke="rgb(44,117,8)" stroke-width="1" opacity="1" d="M 15 5 L 29.5 5 L 30 8.5 L 31.5 10 L 60.5 10 Q 63 8.8 62 5 L 99.5 5 L 100 8.5 L 101.5 10 L 131 10 L 132 5 L 146 5 L 146 10 L 131.5 10 L 130.5 13 L 101 13 L 100.5 10 L 61 10 L 60.5 13 L 30.5 13 L 31 11.5 L 30.5 10 L 15 10 L 15 5 Z "></path><path fill="rgb(44,117,8)" stroke="rgb(44,117,8)" stroke-width="1" opacity="1" d="M 30 25 Q 32.7 23.9 32 26.5 L 30 27.5 L 30 25 Z "></path><path fill="rgb(44,117,8)" stroke="rgb(44,117,8)" stroke-width="1" opacity="1" d="M 101 25 Q 103.7 23.9 103 26.5 L 104.5 28 L 130.5 28 L 131.5 29 L 147 29 L 146 44 L 132.5 44 L 132 41.5 L 131 39 L 112.5 39 L 107 34.5 L 102.5 27 Q 99.9 27.7 101 25 Z "></path><path fill="rgb(44,117,8)" stroke="rgb(44,117,8)" stroke-width="1" opacity="1" d="M 33.5 28 L 99.5 29 L 101 28.5 L 101 42.5 L 100 45 L 97.5 46 L 97 35 L 86.5 32 L 75.5 32 L 74 33.5 L 74 46 L 64.5 46 L 61 43.5 Q 61.5 39 60.5 39 L 41.5 39 L 37 35.5 L 33.5 28 Z "></path><path fill="rgb(44,117,8)" stroke="rgb(44,117,8)" stroke-width="1" opacity="1" d="M 15 29 L 30 29 L 30 44 L 15 44 L 15 29 Z "></path><path fill="rgb(44,117,8)" stroke="rgb(44,117,8)" stroke-width="1" opacity="1" d="M 77.5 46 Q 81.3 45 80 48 L 77.5 46 Z "></path><path fill="rgb(44,117,8)" stroke="rgb(44,117,8)" stroke-width="1" opacity="1" d="M 92 46 L 94.5 47 L 96 46.5 L 95 47.5 L 95 133.5 L 95.5 135 L 92 134 L 92 46 Z "></path><path fill="rgb(44,117,8)" stroke="rgb(44,117,8)" stroke-width="1" opacity="1" d="M 76.5 49 L 77 134 L 74 134.5 L 74 155 L 61 155 L 61 136.5 L 62.5 135 L 66 134.5 L 66 57.5 L 76.5 49 Z "></path><path fill="rgb(44,117,8)" stroke="rgb(44,117,8)" stroke-width="1" opacity="1" d="M 97 135 L 101 136.5 L 101 154.5 L 97 155 L 97 135 Z "></path><path fill="rgb(44,117,8)" stroke="rgb(44,117,8)" stroke-width="1" opacity="1" d="M 75.5 155 L 78 155.5 L 75.5 156 L 75.5 155 Z "></path><path fill="rgb(0,0,0)" stroke="rgb(0,0,0)" stroke-width="1" opacity="0" d="M 0 0 L 160 0 L 160 160 L 0 160 L 0 0 Z M 14 1 L 11 5 L 11 45 L 12 47 L 32 47 L 33 46 L 34 43 L 58 43 L 59 47 L 62 48 L 62 132 L 60 132 L 58 134 L 58 157 L 62 159 L 101 159 L 103 158 L 104 157 L 104 134 Q 103 131 99 132 L 99 50 L 104 43 L 128 43 L 128 46 L 130 47 L 149 47 L 150 46 L 150 4 L 148 1 L 131 1 Q 127 2 128 6 L 105 6 L 104 4 L 102 1 L 61 1 Q 57 2 58 6 L 34 6 L 33 2 L 31 1 L 14 1 Z "></path><path fill="rgb(0,0,0)" stroke="rgb(0,0,0)" stroke-width="1" opacity="0.6862745098039216" d="M 13.5 1 L 31 1.5 L 13.5 2 L 12.5 3 L 13.5 1 Z "></path><path fill="rgb(0,0,0)" stroke="rgb(0,0,0)" stroke-width="1" opacity="0.6862745098039216" d="M 60.5 1 L 102 1.5 L 60.5 2 L 60.5 1 Z "></path><path fill="rgb(0,0,0)" stroke="rgb(0,0,0)" stroke-width="1" opacity="0.6862745098039216" d="M 130.5 1 L 148 1.5 L 130.5 2 L 130.5 1 Z "></path><path fill="rgb(0,0,0)" stroke="rgb(0,0,0)" stroke-width="1" opacity="0.6862745098039216" d="M 103.5 3 L 104 5.5 L 103 5.5 L 103.5 3 Z "></path><path fill="rgb(0,0,0)" stroke="rgb(0,0,0)" stroke-width="1" opacity="0.6862745098039216" d="M 149.5 3 L 150 45.5 L 148 46.5 L 149 45.5 L 149.5 3 Z "></path><path fill="rgb(0,0,0)" stroke="rgb(0,0,0)" stroke-width="1" opacity="0.6862745098039216" d="M 11.5 4 L 12 44.5 L 11 44.5 L 11.5 4 Z "></path><path fill="rgb(0,0,0)" stroke="rgb(0,0,0)" stroke-width="1" opacity="0.6862745098039216" d="M 33.5 42 L 42 42.5 L 33.5 43 L 33.5 42 Z "></path><path fill="rgb(0,0,0)" stroke="rgb(0,0,0)" stroke-width="1" opacity="0.6862745098039216" d="M 44.5 42 L 58 42.5 L 44.5 43 L 44.5 42 Z "></path><path fill="rgb(0,0,0)" stroke="rgb(0,0,0)" stroke-width="1" opacity="0.6862745098039216" d="M 104.5 42 L 112 42.5 L 104 43 L 103.5 45 L 103 43.5 L 104.5 42 Z "></path><path fill="rgb(0,0,0)" stroke="rgb(0,0,0)" stroke-width="1" opacity="0.6862745098039216" d="M 115.5 42 L 128 42.5 L 115.5 43 L 115.5 42 Z "></path><path fill="rgb(0,0,0)" stroke="rgb(0,0,0)" stroke-width="1" opacity="0.6862745098039216" d="M 128.5 45 L 129.5 47 L 128.5 45 Z "></path><path fill="rgb(0,0,0)" stroke="rgb(0,0,0)" stroke-width="1" opacity="0.6862745098039216" d="M 59.5 46 L 60.5 48 L 59.5 46 Z "></path><path fill="rgb(0,0,0)" stroke="rgb(0,0,0)" stroke-width="1" opacity="0.6862745098039216" d="M 99.5 48 L 99 49.5 L 98.5 131 L 98 49.5 L 99.5 48 Z "></path><path fill="rgb(0,0,0)" stroke="rgb(0,0,0)" stroke-width="1" opacity="0.6862745098039216" d="M 62.5 49 L 63 131.5 L 62 131.5 L 62.5 49 Z "></path><path fill="rgb(0,0,0)" stroke="rgb(0,0,0)" stroke-width="1" opacity="0.6862745098039216" d="M 59.5 132 L 58.5 134 L 59.5 132 Z "></path><path fill="rgb(0,0,0)" stroke="rgb(0,0,0)" stroke-width="1" opacity="0.6862745098039216" d="M 102.5 132 L 104 134.5 L 103 134.5 L 102.5 132 Z "></path><path fill="rgb(0,0,0)" stroke="rgb(0,0,0)" stroke-width="1" opacity="0.6862745098039216" d="M 103.5 156 L 102.5 158 L 103.5 156 Z "></path><path fill="rgb(0,0,0)" stroke="rgb(0,0,0)" stroke-width="1" opacity="0.6862745098039216" d="M 61.5 158 L 101 158.5 L 61.5 159 L 61.5 158 Z "></path><path fill="rgb(0,1,0)" stroke="rgb(0,1,0)" stroke-width="1" opacity="0.996078431372549" d="M 31.5 2 L 32.5 4 L 31.5 2 Z "></path><path fill="rgb(0,1,0)" stroke="rgb(0,1,0)" stroke-width="1" opacity="0.996078431372549" d="M 58.5 4 L 59 5.5 L 57.5 7 L 34.5 7 L 34.5 6 L 57.5 6 L 58.5 4 Z "></path><path fill="rgb(0,1,0)" stroke="rgb(0,1,0)" stroke-width="1" opacity="0.996078431372549" d="M 128.5 4 L 129 5.5 L 127.5 7 L 104.5 7 L 104.5 6 L 127.5 6 L 128.5 4 Z "></path><path fill="rgb(0,1,0)" stroke="rgb(0,1,0)" stroke-width="1" opacity="0.996078431372549" d="M 30.5 5 L 31 8.5 L 30 8.5 L 30.5 5 Z "></path><path fill="rgb(0,1,0)" stroke="rgb(0,1,0)" stroke-width="1" opacity="0.996078431372549" d="M 30.5 40 L 31 42.5 L 30 42.5 L 30.5 40 Z "></path><path fill="rgb(0,1,0)" stroke="rgb(0,1,0)" stroke-width="1" opacity="0.996078431372549" d="M 14.5 43 L 15.5 44 L 30 44.5 L 14 45 L 14.5 43 Z "></path><path fill="rgb(0,1,0)" stroke="rgb(0,1,0)" stroke-width="1" opacity="0.996078431372549" d="M 61.5 44 L 62.5 46 L 61.5 44 Z "></path><path fill="rgb(0,1,0)" stroke="rgb(0,1,0)" stroke-width="1" opacity="0.996078431372549" d="M 100.5 44 L 99.5 46 L 100.5 44 Z "></path><path fill="rgb(0,1,0)" stroke="rgb(0,1,0)" stroke-width="1" opacity="0.996078431372549" d="M 131.5 44 L 147 44.5 L 131.5 45 L 131.5 44 Z "></path><path fill="rgb(0,1,0)" stroke="rgb(0,1,0)" stroke-width="1" opacity="0.996078431372549" d="M 12.5 45 L 13.5 47 L 12.5 45 Z "></path><path fill="rgb(0,1,0)" stroke="rgb(0,1,0)" stroke-width="1" opacity="0.996078431372549" d="M 102.5 45 L 100.5 48 L 102.5 45 Z "></path><path fill="rgb(0,1,0)" stroke="rgb(0,1,0)" stroke-width="1" opacity="0.996078431372549" d="M 103.5 135 L 104 155.5 L 103 155.5 L 103.5 135 Z "></path><path fill="rgb(0,1,0)" stroke="rgb(0,1,0)" stroke-width="1" opacity="0.996078431372549" d="M 61.5 155 L 65 155.5 L 61.5 156 L 61.5 155 Z "></path><path fill="rgb(0,1,0)" stroke="rgb(0,1,0)" stroke-width="1" opacity="0.996078431372549" d="M 97.5 155 L 101 155.5 L 97.5 156 L 97.5 155 Z "></path><path fill="rgb(0,0,0)" stroke="rgb(0,0,0)" stroke-width="1" opacity="1" d="M 13.5 2 L 30.5 2 L 33 4.5 L 34.5 7 L 57.5 7 L 59 5.5 L 60.5 2 L 101.5 2 L 103 3.5 L 104.5 7 L 127.5 7 L 129 5.5 L 130.5 2 L 147.5 2 L 149 3.5 L 149 45.5 L 147.5 47 L 130.5 47 L 129 45.5 L 127.5 42 L 114.5 42 L 113.5 43 L 112.5 42 L 104.5 42 L 98 49.5 L 98 132 L 103 133 L 103 156.5 L 101.5 158 L 60.5 158 L 59 156.5 L 58 154.5 L 58 135.5 L 59 133 L 63 132 L 63 49.5 L 57.5 42 L 44.5 42 L 42.5 43 L 41.5 42 L 33 42 Q 33.8 45.8 30.5 47 L 14.5 47 L 12 44.5 L 12 3.5 L 13.5 2 Z M 14 4 L 14 45 L 30 45 L 31 40 L 61 40 Q 62 40 61 45 L 65 48 L 65 135 L 61 135 L 61 156 L 101 156 L 101 136 L 98 135 L 96 134 L 96 47 L 100 46 Q 102 45 101 40 L 131 40 L 131 45 L 147 45 L 147 4 L 132 4 L 131 9 L 102 9 L 101 4 L 62 4 L 61 9 L 32 9 L 31 6 L 30 4 L 14 4 Z "></path></svg>