<svg xmlns="http://www.w3.org/2000/svg" role="img" viewBox="-23.90 -23.90 1450.80 560.80"><title>Unity Technologies</title><path d="M454.00902 4.49164L247.57527 58.28422l-30.54778 52.4288-61.99855-.4515L3.92378 257.21485l151.10516 146.92072 61.96597-.45149 30.6176 52.39622 206.3965 53.79258 55.296-200.68072-31.41817-51.97731 31.41818-51.97731-55.296-200.7459zM221.99854 119.1517l157.91012-39.47055-90.64728 152.70633H107.94356l114.05499-113.23578zm0 276.08902L107.94357 282.0096h181.31782l90.64728 152.70167-157.91011-39.47054zm202.10037 14.64785l-90.67985-152.67374 90.67985-152.73891 43.7853 152.7389-43.7853 152.67375zm498.15738-256.49803c-27.58749 0-46.10327 11.4269-59.89935 33.10312h-1.18225v-27.58749h-48.27695v202.15157h49.4592V246.3837c0-27.58284 17.33819-46.49426 40.98328-46.49426 22.45818 0 39.20058 13.31666 39.20058 37.04088v124.12742H992V229.05018c0-44.13905-27.97847-75.65964-69.7437-75.65964M737.66166 275.456c0 26.79622-15.3693 45.70764-40.58763 45.70764-22.85848 0-37.23171-13.0048-37.23171-36.64524V158.8131h-49.4592v134.76305c0 44.13905 25.21367 72.90414 70.13934 72.90414 28.36946 0 44.1344-10.64029 57.92582-29.15607h1.18225v23.64043h47.54619V158.8131h-49.51506V275.456M1017.93 361.058h49.464V158.906h-49.464zm0-224.568h49.464V95.856h-49.464zm329.00236 22.41618l-29.3888 91.0243c-6.30225 18.52043-11.81789 44.13905-11.81789 44.13905h-1.25207s-6.70255-25.61862-13.00945-44.13906l-33.18691-91.02429h-52.87564l54.38371 143.83011c11.42225 30.73397 15.36 43.73877 15.36 54.7747 0 16.5469-8.66676 27.58283-29.94269 27.58283h-18.91607v42.16553h31.52058c40.98327 0 55.21222-16.16059 70.58152-61.0816l71.27971-207.27157h-52.736m-187.38269 142.64786V194.37382h31.52058v-35.46764h-31.52058V95.85571h-49.12407v63.05047h-27.97382v35.46764h27.97382v118.60713c0 38.22778 28.76975 48.46778 54.77935 48.46778 21.27592 0 27.04756-.78662 27.04756-.78662v-39.07957s-5.91127.06982-12.60916.06982c-11.82255 0-20.09368-5.12465-20.09368-20.09832" fill="#0A0B09" fill-rule="evenodd"/></svg>