<?xml version="1.0" encoding="UTF-8"?>
<svg width="1402px" height="512px" viewBox="0 0 1402 512" version="1.1" xmlns="http://www.w3.org/2000/svg" xmlns:xlink="http://www.w3.org/1999/xlink">
    <!-- Generator: Sketch 64 (93537) - https://sketch.com -->
    <title>Unity-Logo-Black</title>
    <desc>Created with Sketch.</desc>
    <g id="Unity-Logo-Black" stroke="none" stroke-width="1" fill="none" fill-rule="evenodd">
        <path d="M454.009018,4.49163636 L247.575273,58.2842182 L217.027491,110.713018 L155.028945,110.261527 L3.92378182,257.214836 L155.028945,404.135564 L216.994909,403.684073 L247.612509,456.080291 L454.009018,509.872873 L509.305018,309.192145 L477.886836,257.214836 L509.305018,205.237527 L454.009018,4.49163636 Z M221.998545,119.151709 L379.908655,79.6811636 L289.261382,232.387491 L107.943564,232.387491 L221.998545,119.151709 Z M221.998545,395.240727 L107.943564,282.0096 L289.261382,282.0096 L379.908655,434.711273 L221.998545,395.240727 Z M424.098909,409.888582 L333.419055,257.214836 L424.098909,104.475927 L467.884218,257.214836 L424.098909,409.888582 L424.098909,409.888582 Z" id="Fill-1" fill="#0A0B09"></path>
        <path d="M922.256291,153.390545 C894.6688,153.390545 876.153018,164.817455 862.356945,186.493673 L861.174691,186.493673 L861.174691,158.906182 L812.897745,158.906182 L812.897745,361.057745 L862.356945,361.057745 L862.356945,246.383709 C862.356945,218.800873 879.695127,199.889455 903.340218,199.889455 C925.7984,199.889455 942.5408,213.206109 942.5408,236.930327 L942.5408,361.057745 L992,361.057745 L992,229.050182 C992,184.911127 964.021527,153.390545 922.256291,153.390545" id="Fill-2" fill="#0A0B09"></path>
        <path d="M737.661673,275.456 C737.661673,302.252218 722.292364,321.163636 697.074036,321.163636 C674.215564,321.163636 659.842327,308.158836 659.842327,284.5184 L659.842327,158.813091 L610.383127,158.813091 L610.383127,293.576145 C610.383127,337.7152 635.5968,366.480291 680.522473,366.480291 C708.891927,366.480291 724.656873,355.84 738.448291,337.324218 L739.630545,337.324218 L739.630545,360.964655 L787.176727,360.964655 L787.176727,158.813091 L737.661673,158.813091 L737.661673,275.456" id="Fill-3" fill="#0A0B09"></path>
        <polygon id="Fill-4" fill="#0A0B09" points="1017.93047 361.057745 1067.39433 361.057745 1067.39433 158.906182 1017.93047 158.906182"></polygon>
        <polygon id="Fill-5" fill="#0A0B09" points="1017.93047 136.489891 1067.39433 136.489891 1067.39433 95.8557091 1017.93047 95.8557091"></polygon>
        <path d="M1346.93236,158.906182 L1317.54356,249.930473 C1311.24131,268.450909 1305.72567,294.069527 1305.72567,294.069527 L1304.4736,294.069527 C1304.4736,294.069527 1297.77105,268.450909 1291.46415,249.930473 L1258.27724,158.906182 L1205.4016,158.906182 L1259.78531,302.736291 C1271.20756,333.470255 1275.14531,346.475055 1275.14531,357.510982 C1275.14531,374.057891 1266.47855,385.093818 1245.20262,385.093818 L1226.28655,385.093818 L1226.28655,427.259345 L1257.80713,427.259345 C1298.7904,427.259345 1313.01935,411.098764 1328.38865,366.177745 L1399.66836,158.906182 L1346.93236,158.906182" id="Fill-6" fill="#0A0B09"></path>
        <path d="M1159.54967,301.554036 L1159.54967,194.373818 L1191.07025,194.373818 L1191.07025,158.906182 L1159.54967,158.906182 L1159.54967,95.8557091 L1110.4256,95.8557091 L1110.4256,158.906182 L1082.45178,158.906182 L1082.45178,194.373818 L1110.4256,194.373818 L1110.4256,312.980945 C1110.4256,351.208727 1139.19535,361.448727 1165.20495,361.448727 C1186.48087,361.448727 1192.25251,360.662109 1192.25251,360.662109 L1192.25251,321.582545 C1192.25251,321.582545 1186.34124,321.652364 1179.64335,321.652364 C1167.8208,321.652364 1159.54967,316.527709 1159.54967,301.554036" id="Fill-7" fill="#0A0B09"></path>
    </g>
</svg>