<?xml version="1.0" encoding="UTF-8"?>
<svg id="Logos" xmlns="http://www.w3.org/2000/svg" viewBox="0 0 273.6 110.57">
  <defs>
    <style>
      .cls-1 {
        fill: #35c3f1;
      }

      .cls-2 {
        fill: #292926;
      }

      .cls-3 {
        fill: #208ecd;
      }

      .cls-4 {
        fill: #7dd1f6;
      }
    </style>
  </defs>
  <g>
    <path class="cls-2" d="M144.23,39.02v23.03c0,3.7-1.18,6.53-3.55,8.49-2.37,1.96-5.46,2.94-9.27,2.94s-6.66-.98-8.95-2.95c-2.29-1.97-3.44-4.79-3.44-8.48v-23.03h4.53v23.01c0,2.56.72,4.51,2.16,5.84,1.44,1.33,3.34,1.99,5.7,1.99,2.48,0,4.48-.66,6.01-1.99,1.52-1.33,2.29-3.28,2.29-5.84v-23.01h4.53Z"/>
    <path class="cls-2" d="M169.08,64.44c0-1.55-.57-2.84-1.72-3.88-1.15-1.04-3.19-1.92-6.11-2.63-3.54-.86-6.3-2.12-8.28-3.79s-2.98-3.77-2.98-6.29c0-2.65,1.07-4.86,3.21-6.64,2.14-1.78,4.91-2.67,8.31-2.67,3.66,0,6.58,1.02,8.74,3.06,2.17,2.04,3.21,4.4,3.14,7.09l-.05.14h-4.32c0-1.99-.65-3.6-1.94-4.83-1.29-1.23-3.15-1.84-5.57-1.84-2.25,0-3.98.52-5.18,1.55-1.2,1.03-1.8,2.38-1.8,4.05,0,1.48.65,2.71,1.95,3.7s3.42,1.85,6.34,2.6c3.52.89,6.2,2.19,8.04,3.92,1.84,1.73,2.76,3.87,2.76,6.42,0,2.74-1.1,4.94-3.31,6.6-2.21,1.66-5.09,2.5-8.64,2.5-3.34,0-6.29-.92-8.86-2.76-2.57-1.84-3.81-4.3-3.73-7.38l.05-.14h4.32c0,2.18.79,3.83,2.37,4.97,1.58,1.14,3.53,1.7,5.86,1.7s4.09-.49,5.42-1.46c1.33-.97,2-2.3,2-3.97Z"/>
    <path class="cls-2" d="M179.18,72.99v-33.97h10.27c4.38,0,7.9,1.36,10.55,4.09,2.65,2.73,3.98,6.26,3.98,10.58v4.64c0,4.34-1.33,7.87-3.98,10.58-2.65,2.71-6.17,4.07-10.55,4.07h-10.27ZM183.71,42.64v26.74h5.75c3.09,0,5.53-1.03,7.32-3.1,1.78-2.07,2.68-4.72,2.68-7.95v-4.69c0-3.2-.89-5.83-2.68-7.9-1.79-2.07-4.22-3.1-7.32-3.1h-5.75Z"/>
    <path class="cls-2" d="M215.89,61.23l.62,4.25.14.02.9-4.27,6.14-22.21h4l6.18,22.21.92,4.36h.14l.67-4.36,4.99-22.21h4.53l-8.07,33.97h-4.04l-6.6-23.56-.6-3.06h-.14l-.57,3.06-6.71,23.56h-4.04l-8.04-33.97h4.5l5.1,22.21Z"/>
    <path class="cls-2" d="M273.6,68.49c-.8,1.24-2.18,2.39-4.15,3.43-1.97,1.04-4.52,1.56-7.64,1.56-4,0-7.3-1.3-9.92-3.9s-3.92-5.96-3.92-10.08v-7c0-4.12,1.22-7.48,3.65-10.08,2.44-2.6,5.58-3.9,9.42-3.9s6.84.96,9.03,2.87c2.19,1.91,3.31,4.38,3.35,7.4l-.05.14h-4.32c-.14-1.98-.88-3.6-2.22-4.88-1.34-1.28-3.27-1.91-5.8-1.91s-4.62.97-6.18,2.91c-1.56,1.94-2.34,4.41-2.34,7.39v7.04c0,3.02.87,5.5,2.62,7.45,1.75,1.95,3.97,2.93,6.66,2.93,1.9,0,3.45-.26,4.66-.77,1.21-.51,2.08-1.09,2.6-1.75v-7.71h-7.33v-3.62h11.86v12.46Z"/>
  </g>
  <g>
    <g>
      <g>
        <polygon class="cls-1" points="94.5 28.45 48.11 55.27 48.08 108.85 94.5 82.05 94.5 28.45"/>
        <polygon class="cls-4" points="21.6 39.98 48.11 55.27 48.11 85.87 21.6 70.57 21.6 39.98"/>
        <polygon class="cls-3" points="74.58 39.98 48.11 55.27 21.6 40 48.11 24.7 74.58 39.98"/>
      </g>
      <path class="cls-2" d="M48.08,110.57h0s0,0,0,0t0,0c-.32,0-.62-.09-.87-.25L.89,83.59c-.26-.15-.49-.36-.66-.64-.16-.28-.24-.59-.23-.89V28.52c0-.3.07-.61.23-.89.16-.28.39-.5.66-.65L47.19.25c.26-.15.55-.24.87-.25,0,0,0,0,0,0h.01s0,0,0,0h0s0,0,0,0c.32,0,.62.09.87.24l46.37,26.69c.27.15.5.36.66.65.16.28.24.59.23.89v53.57c0,.62-.33,1.18-.86,1.49l-46.4,26.79c-.25.15-.55.24-.87.24,0,0,0,0,0,0,0,0,0,0,0,0h0ZM5.17,82.08l41.19,23.78v-19.01s-24.75-14.3-24.75-14.3l-16.44,9.52ZM49.81,86.13v19.73s42.96-24.81,42.96-24.81V31.43l-17.11,9.89c-.14.11-.29.2-.45.26l-25.38,14.67-.02,29.36c.03.17.03.34,0,.51ZM23.33,69.57l23.04,13.3.02-26.62-23.06-13.31v26.63ZM3.45,31.47v47.62l16.43-9.52v-28.62L3.45,31.47ZM25.08,39.98l23.03,13.3,23.01-13.3-23.04-13.3-23,13.31ZM5.17,28.49l16.46,9.51,24.72-14.31V4.71L5.17,28.49ZM49.8,23.68l24.76,14.3,16.48-9.53L49.8,4.7v18.98Z"/>
    </g>
    <g>
      <ellipse class="cls-2" cx="64.42" cy="64.7" rx="3.14" ry="4.61"/>
      <ellipse class="cls-2" cx="81.87" cy="56.17" rx="3.14" ry="4.61"/>
      <path class="cls-2" d="M69.27,85.58c-2.54,0-5.17-.77-7.79-2.28-.69-.4-.92-1.28-.52-1.96.4-.69,1.28-.92,1.96-.52,3.52,2.04,6.86,2.44,9.93,1.19,4.17-1.7,7.6-6.47,9.41-13.08.21-.76,1-1.21,1.77-1,.76.21,1.21,1,1,1.77-2.05,7.47-6.1,12.93-11.09,14.97-1.5.61-3.07.92-4.67.92Z"/>
    </g>
  </g>
</svg>