<?xml version="1.0" encoding="UTF-8" standalone="no"?>
<svg
   role="img"
   viewBox="-7.51 -7.51 375.7657 168.2888"
   version="1.1"
   id="svg11"
   sodipodi:docname="logo (2).svg"
   width="375.76569"
   height="168.2888"
   inkscape:version="1.3 (0e150ed, 2023-07-21)"
   xmlns:inkscape="http://www.inkscape.org/namespaces/inkscape"
   xmlns:sodipodi="http://sodipodi.sourceforge.net/DTD/sodipodi-0.dtd"
   xmlns="http://www.w3.org/2000/svg"
   xmlns:svg="http://www.w3.org/2000/svg">
  <defs
     id="defs11" />
  <sodipodi:namedview
     id="namedview11"
     pagecolor="#ffffff"
     bordercolor="#666666"
     borderopacity="1.0"
     inkscape:showpageshadow="2"
     inkscape:pageopacity="0.0"
     inkscape:pagecheckerboard="0"
     inkscape:deskcolor="#d1d1d1"
     inkscape:zoom="3.1923782"
     inkscape:cx="187.94766"
     inkscape:cy="72.98634"
     inkscape:window-width="1368"
     inkscape:window-height="847"
     inkscape:window-x="0"
     inkscape:window-y="25"
     inkscape:window-maximized="0"
     inkscape:current-layer="svg11" />
  <style
     id="style1">.st0{fill:#f2783c}.st1{fill:#272727}</style>
  <style
     id="style2">.st0{fill:#f2783c}.st1{fill:#272727}</style>
  <style
     id="style3">.st0{fill:#f2783c}.st1{fill:#272727}</style>
  <style
     id="style4">.st0{fill:#f2783c}.st1{fill:#272727}</style>
  <style
     id="style5">.st0{fill:#f2783c}.st1{fill:#272727}</style>
  <style
     id="style6">.st0{fill:#f2783c}.st1{fill:#272727}</style>
  <style
     id="style7">.st0{fill:#f2783c}.st1{fill:#272727}</style>
  <style
     id="style8">.st0{fill:#f2783c}.st1{fill:#272727}</style>
  <style
     id="style9">.st0{fill:#f2783c}.st1{fill:#272727}</style>
  <style
     id="style10">.st0{fill:#f2783c}.st1{fill:#272727}</style>
  <style
     id="style11">.st0{fill:#f2783c}.st1{fill:#272727}</style>
  <g
     id="Layer_1-2"
     transform="translate(-7.51,-7.51)">
    <g
       id="Group_14">
      <path
         id="Path_1"
         d="m 56.3,116.6 2.9,-5.8 H 66 l 2.9,5.8 2.4,-0.5 -8.6,-17.3 -8.7,17.3 z m 3.9,-8.1 2.4,-4.8 2.4,4.8"
         class="st0" />
      <path
         id="Path_2"
         d="M 75.5,116.5 V 98.8 l 10.9,11.9 V 99.6 l 2.4,-0.4 v 17.3 L 77.9,104.6 v 11.5"
         class="st0" />
      <path
         id="Path_3"
         d="M 93.9,116.4 V 99.2 l 2.4,-0.4 v 17.4"
         class="st0" />
      <path
         id="Path_4"
         d="m 100.7,116.2 3.4,-17.4 5.8,13 5.8,-13 3.5,17.4 -2.4,0.3 -2,-10.7 -4.9,10.6 -5,-10.6 -2,10.7"
         class="st0" />
      <path
         id="Path_5"
         d="m 124.4,116.6 2.9,-5.8 h 6.8 l 2.9,5.8 2.4,-0.5 -8.7,-17.3 -8.6,17.3 z m 3.9,-8.1 2.4,-4.8 2.4,4.8"
         class="st0" />
      <path
         id="Path_6"
         d="m 141.9,101.5 0.8,-2.2 h 10 v 2.2 h -4 v 14.7 l -2.4,0.3 v -15"
         class="st0" />
      <path
         id="Path_7"
         d="M 157.5,116.4 V 99.2 l 2.4,-0.4 v 17.4"
         class="st0" />
      <path
         id="Path_8"
         d="m 164.2,107.7 c 0,4.9 4,8.9 8.9,8.9 4.9,0 8.9,-4 8.9,-8.9 0,-4.9 -4,-8.9 -8.9,-8.9 -4.9,0 -8.9,3.9 -8.9,8.8 z m 2.4,0 c 0.1,-3.6 3.1,-6.4 6.7,-6.3 3.6,0.1 6.4,3.1 6.3,6.7 -0.1,3.5 -3,6.3 -6.5,6.3 -3.6,-0.1 -6.5,-3.1 -6.5,-6.7"
         class="st0" />
      <path
         id="Path_9"
         d="M 186.8,116.5 V 98.8 l 10.9,11.9 V 99.6 l 2.4,-0.4 v 17.3 l -10.9,-11.9 v 11.5"
         class="st0" />
      <path
         id="Path_10"
         d="m 214.7,112.3 c 0.7,1.2 1.9,1.9 3.2,2 1.5,0.2 2.9,-0.8 3.1,-2.3 v -0.6 c 0,-3.9 -7.8,-1.8 -7.8,-7.7 -0.1,-2.6 2,-4.8 4.7,-4.9 h 0.6 c 1.9,0.1 3.6,1 4.8,2.5 l -1.6,1.7 c -0.8,-1.1 -2,-1.8 -3.3,-1.9 -1.4,-0.1 -2.6,0.9 -2.7,2.3 v 0.3 c 0,3.5 7.8,1.9 7.8,7.8 0.1,2.8 -2.2,5.1 -5,5.2 h -0.3 c -2.1,-0.1 -4,-1.1 -5.3,-2.8"
         class="st0" />
      <path
         id="Path_11"
         d="m 226.2,101.5 0.8,-2.2 h 10 v 2.2 h -3.9 v 14.7 l -2.4,0.3 v -15"
         class="st0" />
      <path
         id="Path_12"
         d="m 252.9,98.8 v 10.8 c 0,5.2 -1.7,7 -6,7 -4.7,0 -6,-2.1 -6,-7 V 99.2 l 2.4,-0.4 v 12.1 c -0.2,1.7 1.1,3.3 2.8,3.4 h 0.6 c 1.8,0.3 3.4,-0.9 3.7,-2.7 V 99.2"
         class="st0" />
      <path
         id="Path_13"
         d="m 258,116.2 h 4.2 c 4.7,0.1 8.6,-3.7 8.6,-8.4 0,-4.7 -3.7,-8.6 -8.4,-8.6 H 258 Z m 2.4,-14.7 h 1.8 c 3.5,0.1 6.1,3.1 6,6.5 -0.1,3.3 -2.7,5.9 -6,6 h -1.8"
         class="st0" />
      <path
         id="Path_14"
         d="M 276,116.4 V 99.2 l 2.4,-0.4 v 17.4"
         class="st0" />
      <path
         id="Path_15"
         d="m 282.7,107.7 c 0,4.9 4,8.9 8.9,8.9 4.9,0 8.9,-4 8.9,-8.9 0,-4.9 -4,-8.9 -8.9,-8.9 -4.9,0 -8.8,3.9 -8.9,8.9 0,-0.1 0,-0.1 0,0 z m 2.4,0 c 0.1,-3.6 3.1,-6.4 6.7,-6.3 3.6,0.1 6.4,3.1 6.3,6.7 -0.1,3.5 -3,6.3 -6.5,6.3 -3.6,-0.1 -6.5,-3.1 -6.5,-6.7"
         class="st0" />
      <path
         id="Path_16"
         d="m 306.4,112.3 c 0.7,1.2 1.9,1.9 3.2,2 1.5,0.2 2.9,-0.8 3.1,-2.3 v -0.6 c 0,-3.9 -7.8,-1.8 -7.8,-7.7 -0.1,-2.6 2,-4.8 4.6,-4.9 h 0.6 c 1.9,0.1 3.6,1 4.8,2.5 l -1.6,1.7 c -0.8,-1.1 -1.9,-1.8 -3.2,-1.9 -1.4,-0.1 -2.6,0.9 -2.7,2.3 v 0.3 c 0,3.5 7.8,1.9 7.8,7.8 0.1,2.8 -2.2,5.1 -5,5.2 h -0.3 c -2.1,-0.1 -4,-1.1 -5.2,-2.8"
         class="st0" />
      <path
         id="Path_17"
         d="m 40.1,41.8 c -0.3,0.3 -0.5,0.7 -0.7,1 -0.2,0.5 -0.4,0.9 -0.7,1.3 -0.3,0.3 -0.5,0.6 -0.6,1 0,0.3 -0.3,1 -0.5,1.4 -0.2,0.4 -0.7,0.8 -0.8,1 -0.3,0.7 -0.6,1.5 -0.7,2.2 -0.3,1.4 -1.3,4.8 -1.5,5.4 -0.3,1 -0.6,2 -0.7,3.1 0,0.7 -0.3,0.9 -0.3,1.5 -0.1,0.5 -0.2,0.9 -0.4,1.3 -0.1,0.6 -0.1,1.2 0,1.9 0.2,0.5 -0.2,0.7 -0.3,1.1 -0.1,0.5 -0.1,1 0,1.4 0.1,0.3 -0.4,0.8 -0.4,1.1 l 0.3,1.2 c 0.2,0.3 0.2,0.7 0.3,0.4 0.1,-0.3 0.4,-0.5 0.5,-0.7 0.1,-0.1 0.2,-0.3 0.3,-0.5 0.1,-0.2 0.3,-0.5 0.5,-0.6 0.3,-0.2 0.2,-0.6 0.4,-0.9 0.3,-0.4 0.5,-0.9 0.7,-1.3 0.1,-0.2 0.3,-0.7 0.6,-0.8 0.3,-0.1 0.5,-0.5 0.4,-0.9 0,-0.4 0.1,-0.7 0.3,-1 0.2,-0.2 0.3,-0.5 0.3,-0.8 0.1,-0.2 0.1,-0.4 0.4,-0.5 0.3,-0.1 0.4,-0.6 0.6,-1.2 l 0.4,-1.2 c 0,0 0,-0.4 0.2,-0.6 0.2,-0.1 0.2,-0.3 0.2,-0.5 0,-0.2 0.1,-0.4 0.2,-0.6 0.1,-0.3 0.2,-0.6 0.4,-0.9 0.4,-0.4 0.6,-0.9 0.6,-1.4 0.1,-0.5 0.2,-1 0.4,-1.5 0.1,-0.4 0.2,-0.8 0.2,-1.2 0,-0.3 0.1,-0.9 0.2,-1.2 C 41,49.5 41,49.3 41,49 c 0,-0.2 0,-0.3 0.1,-0.5 0.2,-0.2 0.3,-0.5 0.3,-0.8 0.1,-0.4 0.2,-1.2 0.2,-1.9 0,-0.5 0,-1 -0.1,-1.5 -0.1,-0.2 0,-0.8 0.3,-0.9 0.3,-0.1 0,-0.6 0,-0.6 0,0 -0.3,-0.5 -0.3,-0.8 0,-0.3 -0.3,-0.6 -0.5,-0.7 z m 6,-39.2 C 46.3,2.5 45.8,2.3 45.8,2.3 45.8,2.3 45.7,2.1 45.6,2 45.5,1.9 45.4,1.9 45.4,1.9 45.3,1.8 45.3,1.7 45.3,1.6 V 1.1 c 0,-0.1 0,-0.3 0.1,-0.4 0.2,-0.1 0.4,-0.1 0.6,-0.2 l 0.2,-0.3 h 0.5 c 0,0 0.1,-0.2 0.3,-0.2 0.2,0.1 0.4,0.1 0.6,0.1 0.3,0 0.6,-0.1 0.7,0.1 0.1,0.2 0.2,0.4 0.4,0.4 0.2,0 0.3,0 0.4,0.1 0.1,0.1 0,0.2 0.5,0.5 0.5,0.3 1.7,1 2.2,1.4 0.3,0.2 0.5,0.4 0.9,0.5 0.2,0.1 0.2,0.2 0.2,0.3 0,0.1 0,0.2 0.2,0.3 0.2,0.1 0.3,0.1 0.3,0.2 0,0.1 0.1,0.2 0.2,0.3 H 54 v 0.2 c 0,0.1 0.1,0.3 0.2,0.4 0.1,0.1 0.2,0.2 0.4,0.3 0.1,0 0.3,0 0.3,0.1 0.2,0.4 0.4,0.7 0.7,1 l 1.2,1.2 c 0.5,0.5 0.4,0.8 0.7,0.9 0.3,0.1 0.5,0.1 0.5,0.4 0.1,0.5 0.3,0.9 0.7,1.2 0.4,0.4 0.7,0.8 1,1.3 0,0.2 0,0.4 0.2,0.5 0.2,0.1 0.3,0.2 0.3,0.4 0,0.2 0.2,0.3 0.2,0.3 0,0 0.4,0.1 0.3,0.2 0,0.3 0,0.6 0.1,0.9 0,0 0.4,-0.3 0.5,-0.1 0.1,0.2 0,0.3 0.1,0.4 0,0.1 0.1,0.2 0.2,0.2 0.2,0.1 0.3,0.2 0.4,0.4 0.2,0.6 0.5,1.1 0.9,1.6 0.3,0.5 1,1.3 1,1.3 0.1,0.1 0.2,0.3 0.2,0.5 0,0.1 0.1,0.3 0.2,0.4 l 0.6,0.7 c 0.1,0.5 0.3,0.9 0.6,1.3 0.3,0.4 0.6,0.9 0.9,1.2 0.1,0.1 0.4,0.5 0.3,0.7 -0.1,0.2 -0.2,0.2 0,0.5 0.2,0.3 0.8,1.5 1,1.8 0.2,0.3 0.3,0.6 0.4,1 0,0.4 -0.2,0.7 0.1,0.8 0.3,0.3 0.6,0.7 0.7,1.2 0.1,0.4 0.3,0.9 0.4,1.2 0.1,0.3 0.2,0.2 0.2,0.5 0,0.2 0.1,0.4 0.2,0.6 0,0 0.6,1.8 0.7,2.3 0.1,0.5 0.6,1.4 0.7,1.7 0.1,0.3 -0.2,0.4 0,0.9 0.3,0.5 0.5,1.1 0.7,1.6 0.1,0.4 0.2,0.9 0.2,1.1 0,0.2 0.2,1.5 0.3,1.9 0.1,0.3 0.3,0.7 0.3,1 0,0.3 0.3,2.1 0.3,2.8 0,0.7 0.1,1.5 0.1,1.5 0,0 0.2,0.1 0.1,0.4 -0.1,0.3 0.1,1.4 0.1,1.8 0,0.4 -0.1,0.7 -0.2,1 0.1,0.4 0.2,0.9 0.2,1.3 -0.1,0.4 -0.1,0.8 -0.1,1.1 V 52 c -0.1,0.5 -0.2,0.9 -0.2,0.9 -0.1,0.3 -0.1,0.7 -0.2,1 0,0.5 0.2,1 0,1 -0.2,0 -0.2,0.2 -0.2,0.4 v 1 c 0,0.4 0,0.8 -0.1,1.2 -0.1,0.2 -0.2,0.2 -0.2,0.6 0,0.7 0,1.3 -0.2,2 -0.2,0.7 -0.2,1.1 -0.5,2.6 -0.3,1.5 -0.7,2.6 -0.7,2.8 0,0.3 -0.1,0.7 -0.3,1 -0.1,0.2 -0.5,1 -0.5,1.2 -0.3,0.3 -0.5,0.6 -0.7,1 -0.2,0.5 -0.3,1.1 -0.4,1.7 -0.2,0.4 -0.4,0.9 -0.5,1.4 0,0.4 -0.2,0.9 -0.4,1.3 -0.6,0.8 -1.1,1.6 -1.5,2.5 -0.1,0.4 -0.3,0.7 -0.5,1.1 -0.1,0.3 -0.4,0.5 -0.8,1 -0.3,0.3 -0.5,0.7 -0.7,1.1 -0.4,0.7 -0.9,1.3 -1.5,1.8 -0.9,0.6 -1.6,1.5 -2.1,2.4 -0.4,0.9 -0.2,0.8 -1,1.3 -0.8,0.5 -1.3,0.7 -1.4,0.9 -0.1,0.2 -0.1,0.4 -1.2,1 -0.5,0.3 -1.1,0.5 -1.7,0.6 -0.4,0.2 -0.5,0.1 -0.9,0.4 -0.5,0.5 -1,1 -1.5,1.3 -0.4,0.1 -0.8,0.2 -1.2,0.1 -0.7,0 -1.5,0.1 -2.2,0.3 -0.7,0.2 -1.3,0.3 -2,0.4 -0.3,0.1 -0.7,0.2 -0.9,0.2 -0.2,0 -0.2,-0.2 -0.5,-0.2 -0.5,0 -1,-0.1 -1.5,-0.2 -0.5,-0.1 -1.2,-0.1 -1.8,-0.2 -0.6,-0.1 -1,-0.4 -1.2,-0.4 -0.2,-0.1 -0.4,-0.2 -0.5,-0.4 0,0 0,-0.1 -0.2,-0.1 -0.2,0 -0.8,-0.1 -1,-0.1 -0.2,0 -0.2,-0.1 -0.6,-0.3 -0.3,-0.1 -0.5,-0.3 -0.7,-0.5 0,0 0,-0.2 -0.2,-0.1 -0.2,0.1 -0.2,0 -0.3,-0.1 -0.2,-0.2 -0.4,-0.3 -0.5,-0.4 -0.2,-0.1 -0.4,-0.2 -0.6,-0.2 -0.4,0 -0.7,-0.1 -1,-0.4 -0.5,-0.4 -1.1,-1 -1.3,-1.2 -0.2,-0.2 -0.2,-0.2 -0.6,-0.3 -0.4,-0.1 -0.5,-0.1 -1,-0.7 -0.5,-0.6 -1,-0.9 -1.1,-1.1 -0.1,-0.2 -0.6,-0.4 -0.8,-0.7 -0.2,-0.3 -0.4,-0.8 -0.5,-1.2 -0.1,-0.2 -0.3,-0.4 -0.5,-0.6 -0.1,-0.3 -0.5,-0.4 -0.8,-0.3 -0.5,0 -1,0.2 -1.5,0.3 -0.5,0.2 -0.9,0.4 -1.2,0.7 -0.2,0.2 0,0.3 -0.6,0.3 -0.5,0 -1.1,0.2 -1.5,0.4 -0.4,0.3 -0.8,0.6 -1.3,0.8 -0.3,0 -0.2,-0.2 -0.3,-0.3 -0.2,-0.1 -0.3,-0.1 -0.5,-0.1 l -0.6,0.3 c 0,0 0,0.4 -0.4,0.4 -0.3,0 -0.6,0 -0.9,0.1 -0.3,0.1 -0.9,0.1 -0.9,0 -0.1,-0.2 -0.4,-0.4 -0.7,-0.4 -0.5,-0.1 -0.9,0.1 -1.3,0.4 -0.2,0.3 -0.4,0.3 -0.5,0.2 -0.1,-0.1 -0.1,-0.3 -0.7,-0.4 -0.3,0 -0.6,-0.1 -0.9,-0.2 v -0.2 l -0.6,-0.3 c -0.4,-0.2 -0.8,-0.6 -1,-0.4 -0.2,0.2 -0.5,0.2 -0.7,0.1 C 13.3,81.3 13.1,81.2 12.7,81.1 12.4,81 12,81 11.7,81 c 0,0 -0.4,-0.4 -0.2,-0.6 0.2,-0.2 0.4,-0.5 0.3,-0.4 -0.3,-0.1 -0.7,-0.2 -1,-0.3 0,0 -0.6,-0.1 -0.4,0.2 0.2,0.3 0.1,0.7 -0.3,0.1 C 9.8,79.5 9.4,79.1 8.9,78.8 8.7,78.7 8.5,78.5 8.4,78.3 7.6,78 6,76.1 5.2,74.9 4.3,73.8 3.5,72.7 2.8,71.6 2.6,70.8 2.3,70 2,69.3 1.8,68.9 1.7,68.2 1.5,68.1 1.3,68 1.3,67.7 1,66.8 0.6,65.9 0.4,65 0.3,64 0.4,63.1 0.4,62.1 0.3,61.2 0.1,60.4 0,59.6 0,58.8 0.1,58.4 0.1,58 0.2,57.6 L 0.4,57.5 V 56 C 0.4,55.4 0.5,54.7 0.6,54.1 0.6,53.6 0.7,53 0.7,52.8 0.8,52.7 0.8,52.5 0.9,52.4 1,51.6 1,50.5 1.1,50.2 1.2,49.9 1.3,49.3 1.4,49.1 1.5,48.9 1.8,48.8 1.8,48.8 1.9,48.6 2,48.5 2,48.3 v -0.9 c 0,-0.2 0.1,-0.5 0.2,-0.7 0.1,-0.2 0.2,-0.3 0.3,-0.3 0.1,0 0.3,0 0.4,-0.1 V 45.4 L 2.7,45.1 c 0.2,-0.2 0.3,-0.5 0.4,-0.7 0.1,-0.2 0.1,-0.3 0.2,-0.5 0,0 0,-0.6 0.1,-0.9 C 3.5,42.5 3.7,42.1 3.9,41.7 4,41.3 4.1,41 4.1,40.6 4.1,40.3 4.1,40 4.3,39.9 4.7,39.5 4.9,39 5,38.5 5.1,38 5.3,37.6 5.6,37.3 6.1,36.7 5.8,37.2 5.8,37.2 5.8,37.2 6.7,36 7.1,35.4 7.5,34.8 8,34.7 8,34.2 c 0,-0.5 0.1,-0.5 0.5,-1 0.4,-0.5 1.1,-1.6 1.3,-2 0.2,-0.5 0.5,-0.9 0.9,-1.3 0.4,-0.5 0.7,-0.7 0.7,-0.8 0,-0.1 0.1,-0.5 0.1,-0.5 0.4,-0.4 0.8,-0.8 1.2,-1.1 0.9,-0.7 1.3,-1.1 1.4,-1.5 0.1,-0.4 0.5,-0.4 0.7,-0.7 0.2,-0.3 1.4,-1.4 2.3,-2.3 0.9,-0.9 1,-0.9 1,-0.9 l 0.2,-0.4 c 0.5,-0.4 1,-0.7 1.5,-1 0.2,-0.1 0.3,-0.2 0.5,-0.3 0,0 -0.2,0 0.4,-0.4 l 1.8,-0.9 c 0.6,-0.3 1.2,-0.5 1.6,-0.7 0.4,-0.2 1.1,0 1.5,-0.2 0.3,-0.1 0.7,-0.3 0.9,-0.5 0.1,-0.1 0.1,-0.4 0.6,-0.4 0.5,0 0.7,-0.1 0.9,-0.3 0.2,-0.2 0.4,-0.4 0.6,-0.4 0.2,0 1,0.4 1.2,0.4 0.2,0 0.9,0.4 1.1,0.1 0.2,-0.2 0.5,-0.4 0.8,-0.4 0.2,0 0.6,0.4 0.7,0.4 0,0.3 0.1,0.4 0.2,0.5 0.1,0.1 -0.1,0.2 -0.2,0.4 -0.1,0.2 -0.4,0.2 -0.5,0.2 -0.1,0 -0.2,0.1 -0.4,0.2 -0.2,0.1 -0.4,0.2 -0.6,0.2 -0.3,0 -0.5,0.1 -1,0.2 -0.6,0 -1.2,0.2 -1.8,0.5 -0.4,0.3 -0.7,0.7 -1,0.7 -0.3,0 -0.6,0.2 -0.7,0.5 -0.1,0.2 -0.3,0.4 -0.5,0.5 -0.2,0.1 -0.3,0.2 -0.4,0.3 -0.1,0.1 -0.1,0.3 -0.4,0.1 -0.3,-0.2 -0.7,-0.2 -0.6,0 0.1,0.2 -0.1,0.8 -0.3,0.9 -0.2,0.1 -0.9,0.6 -1.1,0.8 -0.2,0.2 -0.6,0.5 -0.6,0.7 -0.6,0.5 -1.8,1.7 -2,1.9 -0.2,0.2 -0.4,0.4 -0.6,0.5 -0.2,0.2 -0.4,0.4 -0.4,0.6 -0.1,0.3 -0.5,0.4 -0.9,0.8 -0.5,0.5 -0.8,1.2 -1.1,1.9 -0.1,0.5 -0.4,0.5 -0.5,0.8 -0.2,0.5 -0.4,1 -0.8,1.4 -0.6,0.8 -0.9,0.8 -1,1.1 -0.1,0.3 0,0.4 -0.2,0.5 -0.2,0.1 -0.5,0.2 -0.5,0.3 0,0.1 -0.3,1 -0.2,1.1 -0.3,0.6 -0.5,1.3 -0.9,1.9 -0.3,0.4 -0.6,0.8 -0.9,1.1 -0.3,0.5 -0.5,1.1 -0.5,1.7 -0.1,0.4 -0.2,0.7 -0.4,1.1 -0.3,0.3 -0.5,0.6 -0.6,0.9 -0.1,0.4 -0.2,0.8 -0.3,1.3 0,0.5 -0.1,1.1 -0.3,1.5 -0.5,0.5 -0.8,1.2 -1,1.9 C 9,46.8 9,47 8.9,47.3 8.7,47.8 8.6,48.4 8.6,49 c 0,0.4 -0.2,0.5 -0.2,0.8 0,0.3 -0.1,1.1 -0.2,1.5 -0.1,0.4 -0.1,0.7 -0.3,0.8 -0.1,0 -0.3,0.1 -0.3,0.2 0,0.5 0,0.5 -0.2,2.1 -0.2,1.6 0,3.7 -0.1,4.2 -0.1,0.5 0.2,0.4 0.1,0.7 0,0.9 -0.1,1.8 -0.3,2.7 -0.1,0.5 -0.2,1.1 -0.3,1.6 0.1,1 0.2,1.9 0.4,2.9 0.1,0.7 0.3,1.3 0.5,2 0,0.5 0.1,1 0.3,1.5 0.2,0.6 0.4,1.2 0.7,1.9 0.3,0.7 0.7,1.4 0.8,1.7 0.1,0.4 0.2,0.8 0.4,1.1 0.1,0.1 0.4,0.2 0.5,0.5 0.1,0.3 0.3,1.1 0.6,1.2 0.2,0.1 0.3,0.2 0.4,0.4 0.3,0.3 0.6,0.5 0.9,0.8 0.4,0.1 0.7,0.4 0.9,0.7 0,0 0.5,0.4 0.6,0.6 0,0 0.7,-0.1 0.8,0.1 0.1,0.2 0.5,0.2 0.6,0.3 0.1,0.1 0.5,0.2 0.7,0.4 0.3,0.2 0.6,0.2 0.9,0.2 0.3,0 1.1,0.5 1.4,0.4 0.4,0 0.7,0 1.1,0.1 0.3,0 0.7,-0.1 0.9,-0.2 0.5,-0.2 1,-0.3 1.5,-0.3 0.7,0 1.4,-0.2 2,-0.6 0.6,-0.4 1.2,-1.2 1.4,-1.1 0.2,0.1 0.5,-0.2 0.7,-0.3 0.3,-0.3 0.6,-0.5 1,-0.7 0.4,-0.1 1.1,-0.4 0.9,-0.8 C 27.5,76 27.4,75.7 27.3,75.3 27.2,75 27.1,73.8 26.9,73.4 26.7,73 26.6,72.5 26.4,72.1 c -0.1,-0.3 -0.2,-0.7 -0.3,-1 0,-0.2 -0.1,-0.5 0,-0.5 0.1,0 0.4,-0.3 0.2,-0.4 L 26,69.6 c -0.1,-0.5 -0.2,-0.9 -0.2,-1.4 0,-0.5 0,-1 -0.2,-1.6 -0.2,-0.3 -0.3,-0.6 -0.3,-0.9 0.2,-0.3 0.3,-0.7 0.2,-1.1 -0.1,-1 -0.1,-1.9 -0.1,-2.9 0,-0.3 0.2,-0.3 0.2,-0.5 V 57.9 L 25.9,57 c 0.2,-0.7 0.3,-1.5 0.5,-2.2 0.2,-0.8 0.4,-1.6 0.6,-2.5 0.2,-0.4 0.4,-0.9 0.5,-1.3 0,-0.3 0.1,-0.6 0.2,-0.9 0.3,-0.4 0.5,-0.9 0.7,-1.3 0.1,-0.4 0.2,-0.6 0.2,-0.8 -0.1,-0.3 0,-0.7 0.2,-0.9 0.3,-0.4 0.5,-0.8 0.6,-1.3 l 0.2,-0.9 0.3,-0.3 c 0.4,-0.5 0.7,-1 1,-1.5 0.5,-0.9 1.1,-1.8 1.8,-2.6 0.6,-0.7 1.3,-1.2 2,-1.8 0.3,-0.2 0.6,-0.3 0.7,-0.5 0.1,-0.2 0.3,-0.2 0.5,-0.3 l 0.6,-0.3 c 0.2,-0.1 0.2,0 0.4,-0.1 0.3,-0.1 0.5,-0.3 0.7,-0.5 0.1,-0.2 0.4,-0.1 0.6,-0.1 0.2,0 0.7,0 1,0.1 0.2,0 0.1,0.4 0.3,0.3 0.2,-0.1 0.4,-0.2 0.5,-0.3 0.5,-0.1 1,0 1.4,0.1 0.5,0.2 0.9,0.3 1.4,0.3 0.3,-0.1 0.7,0.1 0.8,0.4 l 0.6,0.6 c 0,0 0.5,0.2 0.4,0.6 -0.1,0.4 0,0.8 0.2,1.2 0.1,0.2 0.5,0.8 0.3,1.2 -0.1,1.5 -0.1,2.9 -0.1,4.4 0,1.2 0,2.5 -0.2,3.7 -0.1,0.6 -0.3,1.3 -0.3,1.9 0,0.1 -0.3,0.1 -0.2,0.5 0,0.4 -0.1,0.9 -0.3,1.2 -0.1,0.4 -0.1,0.9 -0.1,1.3 0,0.3 -0.7,2 -0.8,2.5 -0.1,0.5 -0.9,2.2 -1,2.8 -0.1,0.4 -0.2,0.8 -0.5,1.2 -0.2,0.3 -0.7,1.5 -1,2.1 -0.3,0.6 -0.4,1.2 -0.6,1.8 -0.2,0.5 -0.4,0.9 -0.7,1.3 -0.2,0.2 -0.3,0.4 -0.3,0.7 0,0.2 -0.1,0.4 -0.2,0.6 -0.1,0.2 -0.7,0.9 -0.6,1.2 0.1,0.2 0,0.5 -0.2,0.6 -0.4,0.4 -0.7,0.9 -0.9,1.3 -0.1,0.2 -0.3,0.5 -0.3,0.7 0,0.2 -0.3,1.1 -0.7,1.4 -0.4,0.3 -0.8,0.4 -1,0.8 -0.2,0.4 -0.9,1.2 -1,1.4 -0.1,0.2 -0.2,0.4 0,0.7 0.3,0.4 0.5,0.8 0.7,1.3 0.1,0.5 0.2,1 0.5,1.5 0.3,0.6 0.8,0.8 0.8,1.1 0,0.5 0.1,1 0.3,1.4 0.3,0.3 0.5,0.8 0.7,0.9 0.3,0 0.5,0.1 0.7,0.3 0.4,0.6 0.9,1.2 1.4,1.8 0.3,0.3 0.7,0.6 1.1,0.9 0.4,0.3 1.2,1 1.2,1.3 0,0.3 0.6,0.4 0.6,0.4 0.2,0 0.5,0.1 0.7,0.2 0.2,0.1 0.2,0.3 0.5,0.3 0.3,0 1.2,0.1 1.6,0.1 0.4,0 0.6,0.1 1,0.2 0.6,0 1.2,0 1.8,-0.1 0.6,0 1.1,-0.2 1.6,-0.4 0.3,-0.3 0.7,-0.5 1.1,-0.6 0.3,0 0.6,-0.1 0.8,-0.3 0.3,-0.4 0.7,-0.6 1.2,-0.8 0.7,-0.3 1.3,-0.6 1.9,-1.1 1.2,-0.8 0.9,-0.9 1.3,-1.4 0.4,-0.5 0.5,-0.9 0.8,-1 0.3,-0.1 0.6,-0.1 0.7,-0.3 0.1,-0.2 0.3,-0.4 0.4,-0.5 0.2,-0.1 0.3,-0.3 0.4,-0.5 0.2,-0.2 0.4,-0.3 0.6,-0.3 0.2,0 0.3,0.1 0.4,-0.1 0.1,-0.2 0.7,-1.5 0.8,-1.7 0.1,-0.2 0.3,-0.3 0.4,-0.5 0.1,-0.2 0.5,-0.2 0.6,-0.4 0.1,-0.2 0,-0.4 0.2,-0.6 0.4,-0.3 0.8,-0.7 0.9,-1.2 0.4,-0.9 0.8,-1.7 1.2,-2.6 0.7,-1.3 0.9,-1.6 0.9,-2.1 0,-0.5 -0.1,-0.6 0.3,-0.8 0.4,-0.2 0.7,-0.6 0.7,-1.1 0.1,-0.5 0.1,-0.9 0.3,-1.4 0.2,-0.2 0.2,-0.7 0.4,-0.8 0.2,-0.2 0.4,-0.5 0.4,-0.8 -0.1,-0.6 0,-1.1 0.1,-1.7 0.2,-0.5 0.6,-0.7 0.8,-1.1 0.2,-0.6 0.3,-1.3 0.3,-2 -0.1,-0.4 0,-0.9 0.3,-1.3 0.2,-0.5 0.1,-0.9 0.4,-1.5 0.3,-0.7 0.3,-1.4 0.2,-2.1 -0.2,-0.2 -0.2,-0.5 0,-0.7 0.2,-0.2 0.3,-0.4 0.4,-0.6 l 0.2,-0.4 c 0.2,-0.3 0.3,-0.6 0.3,-1 0,-0.4 0.1,-0.7 0,-1.1 -0.1,-0.4 0,-0.8 0.2,-1.2 0.1,-0.2 0.3,-0.4 0.4,-0.5 0.2,-0.2 0,-0.1 -0.1,-0.3 v -1.9 c -0.1,-0.5 -0.2,-1 -0.2,-1.6 0.1,-0.8 0.1,-1.6 0,-2.4 -0.2,-1 -0.3,-2 -0.4,-3 0.1,-1.1 0,-2.2 -0.2,-3.2 C 68.6,37.7 68.5,37.3 68.2,36.9 68,36.8 68,36.8 68,36.4 68,35.8 67.8,35.1 67.7,34.5 67.6,34.3 67.6,34.2 67.5,34.1 67.3,34 67.2,33.9 67.3,33.7 c 0,-0.2 0,-0.2 -0.1,-0.6 C 67.1,32.7 67,32.7 67,32.5 66.9,32 66.8,31.4 66.7,30.9 c -0.1,-0.5 -0.4,-0.7 -0.5,-1 l -0.6,-1.8 c -0.1,-0.3 -0.3,-0.7 -0.3,-1.1 -0.2,-0.8 -0.4,-1.6 -0.7,-2.4 -0.2,-0.5 0,-0.6 -0.3,-1 -0.2,-0.3 -0.4,-0.5 -0.7,-0.7 -0.3,-0.2 -0.7,-0.7 -0.6,-1 0.1,-0.3 0.2,-0.5 -0.3,-1.1 C 62.4,20.4 62.2,19.9 62,19.4 61.9,19.2 61.8,19 61.6,18.8 61.3,18.6 61.2,18.3 61.2,18 c -0.1,-0.6 -0.4,-1.2 -0.7,-1.6 -0.2,-0.3 -0.4,-0.5 -0.6,-0.7 -0.2,-0.1 -0.3,-0.1 -0.3,-0.5 0,-0.4 0.1,-1 0,-1.2 -0.1,-0.2 -0.2,-0.1 -0.3,-0.2 -0.1,-0.1 -0.5,0 -0.5,-0.2 0,-0.4 -0.1,-0.8 -0.3,-1.1 l -0.6,-0.6 c -0.3,-0.2 -0.6,-1 -1,-1.4 C 56.5,10.1 56.3,10 56.2,9.9 56.1,9.7 56.1,9.6 56,9.4 55.8,9 55.5,8.7 55.2,8.4 54.8,8.1 54.4,7.7 54.4,7.7 54.4,7.7 54.2,7.1 54,6.9 53.8,6.7 53.7,6.9 53.6,6.5 53.5,6.1 53.3,5.7 53,5.3 52.7,5 52.4,4.7 52,4.5 51.8,4.3 51.5,4.2 51.5,4 51.5,3.8 51.2,3.6 51.2,3.6 L 50.5,3.3 C 50.2,3.2 50,3.1 49.8,3 49.6,2.9 49.4,2.7 49.2,2.5 49.1,2.3 48.9,2.2 48.7,2.2 48.6,2.2 48.4,2.2 48.3,2.1 48.2,1.9 48,1.9 47.8,1.9 47.5,1.9 47.5,2 47.4,1.9 47.3,1.8 47.2,1.7 46.9,1.7 c -0.3,0 -0.4,0.1 -0.4,0.3 0,0.2 -0.2,0.8 -0.4,0.6"
         class="st1" />
      <path
         id="Path_18"
         d="m 82.9,68 c 0.4,0.4 1,1.1 1.5,1.1 0.4,0 0.8,0 1.1,0.1 0.4,0.2 0.8,0.2 1.3,0.2 0.4,-0.2 1.7,-0.4 2,-0.5 0.5,-0.2 1.1,-0.4 1.6,-0.6 0.3,-0.1 0.5,-0.1 0.4,-0.9 -0.1,-0.8 -0.3,-2.6 -0.6,-3.3 -0.3,-0.8 -0.5,-1.6 -0.6,-2.5 0,-0.6 -0.1,-1.2 -0.3,-1.7 -0.1,-0.4 -0.2,-0.8 -0.3,-1.1 -0.1,-0.3 -0.2,-0.8 -0.4,-1.2 -0.1,-0.5 -0.2,-1 -0.2,-1.5 0,0 0,-0.6 -0.2,-0.5 -0.2,0.1 -0.3,0.3 -0.6,0.4 -0.3,0.1 -0.4,0.1 -0.4,0.3 0,0.3 -0.2,0.6 -0.3,0.9 -0.3,0.4 -0.5,0.8 -0.7,1.3 -0.1,0.3 -0.2,0.7 -0.4,0.9 -0.4,0.5 -0.6,1.1 -0.8,1.7 -0.1,0.5 -0.9,2.1 -1,2.8 -0.2,0.9 -0.5,1.7 -0.8,2.6 -0.2,0.4 -0.3,0.9 -0.3,1.5 z M 72.1,66 c 0,0 0.5,0.4 0.9,0.8 0.4,0.4 0.6,0.4 0.8,0.6 l 0.9,0.6 c 0.4,0.2 0.9,0.2 1.4,0.2 0.5,0 0.7,-0.6 0.7,-0.9 0,-0.3 0.2,-0.4 0.6,-0.6 0.4,-0.2 0.3,-0.4 0.3,-0.7 0.1,-0.3 0.3,-0.6 0.5,-0.8 0.2,-0.2 0,-0.9 0,-1.1 0.2,-0.4 0.4,-0.9 0.6,-1.3 0.2,-0.7 0.4,-1.4 0.5,-2.1 0.1,-0.6 0.1,-0.9 0.3,-1 0.2,-0.3 0.3,-0.6 0.3,-0.9 0,-0.3 0,-0.7 0.3,-0.8 0.3,-0.1 0.4,-0.8 0.4,-1.2 0,-0.4 0.6,-1.3 0.6,-1.6 0,-0.3 0.3,-0.6 0.6,-0.7 0.3,-0.1 0.3,-0.3 0.4,-0.6 0.2,-0.4 0.3,-0.8 0.3,-1.2 0,-0.3 0.3,-0.6 0.5,-0.9 0.3,-0.4 0.5,-0.8 0.6,-1.2 0.1,-0.4 0.3,-0.3 0.5,-0.7 0.2,-0.2 0.3,-0.5 0.3,-0.8 l 0.5,-0.3 c 0.2,-0.2 0,-0.3 0.2,-0.5 0.5,-0.7 0.9,-1.4 1.2,-2.2 0.4,-0.9 0.7,-0.6 1.4,-0.7 0.3,-0.1 0.7,0 0.9,0.2 0.3,0.2 0.7,0.4 1.1,0.6 0.6,0.2 0.7,0.3 0.7,0.3 0,0 0.2,0.3 0.4,0.3 0.2,0 0.3,0.1 0.5,0.5 0.1,0.2 0.3,0.3 0.5,0.4 0.2,0.1 0.2,0.5 0.4,1.1 0.2,0.9 0.3,1.9 0.3,2.8 0.1,0.9 0.4,1.8 0.6,2.6 0.2,0.6 0.4,1.1 0.7,1.6 0.1,0.2 0.1,0.4 0,0.5 0,0 0.1,0.5 0.2,0.8 0.1,0.3 0.3,0.6 0.4,0.9 0,0.2 0.3,1.4 0.5,2.2 0.2,0.8 0.3,2 0.5,2.8 -0.2,0 -0.2,0.9 -0.2,1.4 0.2,0.6 0.4,1.1 0.6,1.7 0.1,0.3 0.4,0.4 0.6,0.3 h 0.7 c 0.2,0.1 0.3,0.2 0.5,0.3 0.2,0 0.4,0.1 0.4,0.3 0,0 0,0.4 -0.2,0.5 -0.2,0.1 -0.4,0.5 -0.5,0.7 -0.2,0.3 -0.4,0.6 -0.7,0.9 l 0.2,0.7 v 1.5 c 0.1,0.3 0.2,0.5 0.4,0.8 0.1,0.2 0.1,0.4 -0.1,0.6 0,0.4 0,0.8 0.2,1.1 0.1,0.4 0.2,0.9 0.2,1.4 0.1,0.4 0.2,0.8 0.3,1.1 0.1,0.2 0.2,0.5 0.2,0.7 -0.1,0.4 -0.1,0.8 -0.1,1.2 0.1,0.6 0.1,1.7 0.2,1.9 0.1,0.2 0.3,0.6 0.2,0.8 -0.2,0.3 -0.2,0.7 -0.2,1 0.1,0.2 0.3,0.4 0.4,0.6 -0.1,0.2 0,0.5 0.2,0.7 0.3,0.3 -0.3,0.3 -0.5,0.3 -0.3,-0.1 -0.7,-0.1 -1,-0.1 C 97,83 96.6,83 96.3,83 96,83.1 95.9,82.7 95.9,82.5 c 0,-0.1 -0.1,-0.3 -0.2,-0.3 l -0.4,0.3 c -0.2,0 -0.4,-0.1 -0.6,-0.1 -0.2,-0.1 -0.8,-0.2 -1,-0.2 -0.2,0 -0.1,-0.4 -0.2,-0.6 -0.1,-0.2 0,-0.7 -0.1,-1 -0.2,-0.4 -0.3,-0.9 -0.3,-1.3 -0.4,-0.7 -0.6,-1.4 -0.7,-2.2 -0.1,-0.5 -0.2,-2.6 -0.2,-3.4 0,-0.8 -0.2,-0.7 -0.6,-1 -0.4,-0.3 -0.3,-0.5 -0.5,-0.8 -0.2,-0.3 -0.5,0.3 -0.7,0.3 h -1.6 c -0.5,0 -1.7,0.2 -2.2,0.3 -0.5,0.1 -0.5,-0.2 -0.7,-0.3 -0.2,-0.1 -0.7,0 -1,0.1 -0.3,0.1 -0.2,-0.4 -0.2,-0.4 h -0.6 c -0.3,0.1 -0.7,0.2 -1,0.4 l -0.9,0.3 c -0.3,0.1 -0.4,1.6 -0.5,1.9 -0.1,0.3 -0.2,1.3 -0.4,1.7 -0.2,0.4 -0.2,0.9 -0.1,1.3 0,0.4 -0.1,0.9 -0.2,1.3 0,0.2 -0.4,0.5 -0.6,0.7 0,0.2 0.1,0.5 0.1,0.7 0.1,0.3 -0.3,0.7 -0.3,1.1 0,0.2 0,0.4 -0.1,0.7 -0.2,0.6 -0.4,1.2 -0.5,1.8 -0.2,0.9 -0.5,0.9 -0.5,0.9 L 78.6,85 77.7,84.7 C 77.4,84.6 77,84 77,84 l -0.2,0.3 c -0.2,0.1 -0.5,0.1 -0.7,0 -0.3,-0.1 -0.6,-0.2 -0.8,-0.2 -0.3,-0.1 -0.6,-0.2 -0.8,-0.3 0,0 -0.1,-0.9 -0.1,-1.2 v -1.4 c 0,-0.5 0,-1 0.2,-1.4 0,-0.3 -0.1,-0.6 -0.3,-0.8 -0.2,-0.2 0.2,-0.6 0.4,-0.9 0.1,-0.2 0.1,-0.5 0,-0.7 -0.1,-0.2 -0.1,-0.4 -0.1,-0.6 0.1,-0.3 0.2,-0.7 0.2,-1.1 0.1,-0.5 0.1,-1 0.1,-1.5 0,-0.3 0,-0.6 0.2,-0.8 0.2,-0.2 0.2,-0.6 0.2,-0.9 0.1,-0.5 0.2,-1 0.4,-1.4 0.1,-0.2 0.1,-0.4 0.1,-0.6 0,0 -0.7,-0.1 -0.9,-0.1 -0.2,0 -0.6,-0.4 -0.8,-0.7 -0.2,-0.3 -0.5,-0.6 -0.9,-0.8 -0.3,-0.1 -0.6,-0.9 -0.8,-1 l -0.6,-1.2 c -0.2,-0.3 -0.4,-0.8 -0.2,-1"
         class="st1" />
      <path
         id="Path_19"
         d="m 108.5,48.3 h 0.5 c 0,0 -0.1,-0.3 0.5,-0.4 0.5,-0.1 1.1,-0.1 1.6,-0.1 0.3,0.1 0.6,0.3 0.9,0.5 0.2,0.2 0.4,0.3 0.7,0.4 l 0.3,0.4 c 0.2,0.2 0.3,0.5 0.3,0.7 -0.1,0.5 -0.3,1.1 -0.5,1.5 -0.2,0.3 -0.3,0.6 -0.4,1 0,0.3 -0.1,0.6 -0.2,0.9 -0.2,0.5 -0.3,1 -0.3,1.5 0,0.3 0,0.5 -0.2,0.8 -0.2,0.3 -0.3,0.7 -0.3,1.1 0,0.3 -0.2,0.5 -0.5,1.3 -0.3,0.8 -0.5,1.3 -0.4,1.5 0.1,0.2 0.3,0.7 0.1,0.7 -0.2,0 -0.2,0.2 -0.3,0.9 -0.2,0.7 -0.3,1.5 -0.3,2.3 0,0.4 -0.1,0.8 -0.3,1.2 -0.2,0.5 -0.3,1 -0.3,1.4 -0.1,0.3 0.1,1.3 -0.1,1.2 -0.2,-0.1 -0.2,0.9 -0.3,1.5 -0.2,0.5 -0.2,1 -0.2,1.6 0.1,0.4 0.1,0.7 0,1.1 0,0.5 0,1 0.1,1.5 0.1,0.4 0.5,2.1 0.7,2.5 0.2,0.4 0.5,0.4 0.5,0.8 0,0.4 0,0.7 0.4,0.9 0.4,0.2 0.5,0.1 0.9,0.4 0.4,0.3 -0.1,0.5 0.3,0.4 0.4,-0.1 0.6,-0.3 0.8,-0.3 0.2,0 1,-0.2 1.2,-0.2 0.3,0 0.5,-0.1 0.7,-0.3 0.3,-0.2 1,-0.3 1.4,-0.7 0.4,-0.4 1.9,-1.6 1.9,-1.6 0,0 0.1,0.1 0.3,-0.1 0.4,-0.4 0.8,-0.8 1.3,-1.2 0.5,-0.3 1,-0.7 1.4,-1.2 0.3,-0.5 0.7,-1 1.1,-1.4 0.1,-0.2 0.2,-0.4 0.2,-0.6 l 0.3,-0.3 0.7,-0.7 0.5,-0.4 c 0,0 0.4,0.2 0.3,0.4 0,0.3 -0.1,0.5 -0.2,0.8 -0.1,0.3 -0.3,0.5 -0.6,0.8 0,0 -0.1,0.3 -0.2,0.5 -0.1,0.2 -0.3,0.3 -0.4,0.6 -0.1,0.3 0.3,0.4 -0.2,0.7 -0.5,0.3 -0.8,0.6 -0.8,0.9 0,0.3 -0.3,0.4 -0.4,0.6 -0.1,0.2 -0.4,0.4 -0.9,0.9 -0.5,0.5 -0.6,0.9 -0.8,1 -0.2,0.1 -0.5,0.3 -0.5,0.5 0,0.2 0.3,0.3 0,0.4 -0.3,0.1 -0.6,0.3 -0.8,0.5 -0.3,0.3 -0.4,0.6 -0.6,0.8 -0.2,0.2 -0.3,0.1 -0.7,0.3 l -1.2,0.9 c -0.4,0.3 -0.7,0.2 -1.1,0.6 -0.4,0.4 -0.9,0.8 -1.5,1 -0.6,0.3 -0.7,0 -1.1,0.1 -0.3,0.1 -0.7,0.2 -1,0.3 -0.2,0.1 -0.6,0 -0.8,0 -0.2,-0.1 -0.5,-0.1 -0.7,-0.2 -0.4,-0.1 -0.8,-0.2 -1.3,-0.2 -0.4,0.1 -0.6,0.1 -1,-0.2 -0.2,-0.2 -0.5,-0.4 -0.7,-0.4 -0.3,0 -1.1,-0.2 -1.3,-0.3 -0.2,-0.1 -0.3,-0.2 -0.4,-0.3 -0.1,-0.1 -0.2,-0.2 -0.4,-0.3 -0.3,-0.2 -0.4,-0.7 -0.6,-1 -0.2,-0.3 -0.3,-1 -0.5,-1.1 -0.2,-0.1 -0.3,-0.7 -0.3,-1 0,-0.5 -0.1,-0.9 -0.2,-1.4 -0.1,-0.4 -0.2,-0.8 -0.2,-1.2 0,-0.3 -0.2,-1.3 -0.2,-1.5 v -1 C 102.1,71 102,70.6 102,70.2 c 0.1,-0.2 0.1,-0.5 0,-0.7 0,-0.3 0.3,-0.7 0.3,-0.9 0,-0.2 -0.2,-1.1 -0.3,-1.4 0,-0.5 0.2,-1.1 0.3,-1.6 0,-0.2 0.2,-1.6 0.1,-1.9 0.1,-0.6 0.3,-1.3 0.5,-1.9 0.2,-0.8 0.5,-1.7 0.6,-2.1 0.1,-0.6 0.1,-1.2 0.3,-1.7 0.1,-0.4 0.3,-0.7 0.5,-1.1 0.1,-0.2 0.1,-0.9 0.3,-0.9 0.2,0 0.4,-0.5 0.7,-1.5 0.3,-1 0.8,-2.3 1,-2.8 0.2,-0.5 0.7,-1.5 0.9,-2.1 0.2,-0.5 0.4,-0.9 0.7,-1.3"
         class="st1" />
      <path
         id="Path_20"
         d="m 136.9,53.7 c 0,0 1,0 1.2,-0.2 0.2,-0.2 0.5,-0.4 0.8,-0.4 0.5,-0.2 1.2,-0.5 1.2,-0.5 0.1,-0.2 0.3,-0.2 0.5,-0.3 0.2,0 0.5,0.2 0.6,0 0,-0.3 0.2,-0.6 0.4,-0.9 0.4,-0.4 0.8,-0.8 1.1,-1.2 0.2,-0.5 0.3,-1.1 0.1,-1.7 -0.1,-0.4 -0.3,-0.8 -0.6,-1 -0.3,-0.2 -0.7,-0.2 -1,-0.1 -0.4,0.1 -0.7,-0.1 -1.1,0.1 -0.4,0.2 -0.5,0.2 -0.6,0.5 -0.1,0.3 -0.5,0.3 -0.6,0.5 -0.2,0.2 -0.3,0.4 -0.5,0.7 -0.1,0.4 -0.3,0.8 -0.5,1.1 -0.2,0.3 -0.3,0.4 -0.3,0.6 -0.1,0.3 -0.2,0.6 -0.4,0.9 -0.1,0.3 -0.3,0.6 -0.5,0.9 0,0.1 -0.6,1.3 0.2,1 z m -16.5,-4.9 c 0.5,0 0.9,0.2 0.9,0.5 0,0.3 0,0.2 0.1,0.4 0.1,0.2 0.3,0.4 0.5,0.5 0.2,0.1 0.4,0.3 0.5,0.5 0.3,0.2 0.4,0.7 0.7,0.7 0.5,0.2 0.9,0.5 1.3,0.8 0.3,0.3 0.6,0.5 1,0.5 0.7,0.3 0.9,0.5 1.8,1 0.9,0.5 0.2,0.4 0.2,0.4 0.2,0.1 0.5,0.1 0.7,0.1 0.3,0 0.6,-0.1 0.9,-0.1 0.2,0 1,0.1 1,0.1 0,0 0.6,-1.3 0.8,-1.5 0.2,-0.2 0.3,-0.3 0.3,-0.5 0.2,-0.5 0.5,-0.9 0.8,-1.3 0.4,-0.5 0.9,-1.1 1.4,-1.5 0,0 0,-0.4 0.3,-0.5 0.3,-0.1 0.4,-0.2 1,-0.9 0.6,-0.7 0.6,-0.8 1,-1.1 0.4,-0.3 0.8,-0.2 1.1,-0.4 0.2,-0.2 0.4,-0.3 0.7,-0.4 0.4,-0.1 0.9,-0.2 1.3,-0.2 0.4,0 0.9,-0.1 1.3,-0.2 0.5,-0.2 1.1,-0.3 1.6,-0.3 0.9,0 0.4,0.2 0.5,0.4 0.1,0.2 0.4,0.2 0.9,0.3 0.5,0.1 0.7,0.3 1,0.4 0.3,0.1 0.4,0.5 0.6,0.7 0.2,0.2 0.5,0.4 0.6,0.7 0.1,0.3 0.4,0.4 0.5,1.2 0.1,0.6 0.1,1.2 0,1.8 0,0.3 -0.3,0.5 -0.3,0.8 -0.1,0.3 -0.2,0.5 -0.4,0.7 -0.3,0.3 -0.6,0.6 -0.9,1 -0.3,0.5 -0.7,0.9 -1.2,1.3 -0.4,0.3 -0.9,0.4 -1.3,0.6 l -0.5,0.5 c -0.2,0.2 -0.6,0 -0.9,0.2 -0.4,0.3 -0.9,0.6 -1.4,0.8 -0.5,0.2 -0.7,0 -1,0.2 -0.3,0.1 -0.7,0.2 -1.1,0.2 -0.3,0 -1,-0.2 -1.2,-0.2 -0.2,0 -0.3,0.1 -0.4,0.3 -0.1,0.2 -0.1,0.5 -0.2,0.8 -0.2,0.5 -0.3,1 -0.3,1.6 0,0.8 -0.2,1.5 -0.4,2.3 0,0.4 -0.1,0.9 -0.2,1.3 -0.1,0.4 -0.2,0.9 -0.3,1.4 0,0.6 -0.5,3.4 -0.6,4.8 -0.1,1 -0.1,2 0,3 0,0.8 0.1,1.1 0,1.3 -0.1,0.4 -0.2,0.8 -0.2,1.2 0,0.5 0,1 0.1,1.5 0.1,0.4 -0.2,0.9 -0.2,1.1 -0.1,0.4 -0.2,0.8 -0.2,1.2 0,0.5 0,1 -0.2,1.4 0,0.8 0.1,1.5 0.4,2.2 0.2,0.4 0.1,0.8 -0.1,1.1 -0.3,0.3 -0.2,0.6 0.4,1.6 0.6,1 -0.2,0.3 0.1,1.2 0.3,0.9 -0.2,0.7 -0.4,1 -0.2,0.3 -0.6,0.7 -0.9,1 -0.3,0.3 -0.5,0.1 -0.8,0.1 -0.3,0 -0.5,0 -0.8,0.1 -0.2,0.1 -0.1,-0.3 -0.2,-0.6 -0.1,-0.3 -0.8,-0.5 -1.5,-1 -0.6,-0.5 -1,-1.3 -1.1,-2.1 0,-0.5 0,-1 -0.1,-1.5 -0.1,-0.4 -0.6,-1.6 -0.7,-2.5 -0.1,-0.9 -0.2,-2.1 -0.2,-2.1 0,0 -0.5,-0.3 -0.1,-0.6 0.4,-0.3 0.3,-0.5 0.4,-0.7 0.1,-0.2 -0.5,-0.5 -0.5,-0.5 -0.1,0 -0.2,-0.2 -0.2,-0.3 v -0.1 c 0.1,-0.4 0.1,-0.8 0,-1.2 -0.1,-0.7 -0.1,-1.5 0,-2.2 0.1,-0.5 0.1,-1.1 0,-1.7 0,-0.3 0,-0.6 0.2,-0.8 0.2,-0.5 0.3,-1 0.4,-1.5 0.1,-0.3 0,-0.6 -0.2,-0.8 -0.2,-0.1 -0.2,-0.2 0,-0.3 0.2,-0.1 0.2,-0.6 0.2,-1 0,-0.4 0.3,-1.3 0.3,-1.6 0,-0.3 0.2,-0.3 0.3,-0.6 0.1,-0.3 0.1,-0.5 0.1,-0.7 0.1,-0.4 0.1,-0.8 0.2,-1.3 0,0 0.1,-0.5 0.1,-0.7 0.1,-0.2 0.2,-0.3 0.3,-0.3 0,-0.3 0.1,-0.6 0.1,-0.9 0,-0.3 -0.1,-0.4 0,-0.7 0.1,-0.3 0.3,-0.9 0.4,-1.3 0.2,-0.5 0.3,-1 0.4,-1.5 0.1,-0.4 0.2,-0.9 0.4,-1.3 -0.2,0 -0.4,-0.1 -0.6,-0.2 -0.2,-0.2 -0.4,-0.1 -1.4,-0.3 -0.6,-0.1 -1.1,-0.3 -1.6,-0.6 -0.7,-0.5 -1.4,-0.9 -2.2,-1.2 -0.8,-0.3 -1.5,-0.8 -2.2,-1.3 -0.7,-0.4 -1,-0.9 -1,-1.1 0,-0.2 -0.6,-0.8 -0.7,-1.1 -0.1,-0.3 -0.3,-0.4 -0.3,-0.7 0,-0.3 0.5,-0.7 1.1,-0.8"
         class="st1" />
      <path
         id="Path_21"
         d="m 172,60.4 c -0.1,-0.2 0.2,-0.8 -0.5,-0.7 -0.7,0.1 -2,0.1 -2.9,0.2 -0.6,0 -1.2,0.1 -1.8,0.3 -0.6,0.2 -1.2,0.3 -1.9,0.2 0.1,0 0,-0.3 -0.5,-0.1 -0.3,0.1 -0.6,0.2 -0.9,0.4 -0.2,0.1 -0.2,0.2 -0.5,0.1 -0.3,-0.1 -0.4,-0.1 -0.5,0.1 -0.1,0.2 -0.1,0.4 -0.5,0.3 -0.4,-0.1 -0.3,0 -0.9,0.1 -0.3,0.1 -0.5,0.1 -0.8,0.3 -0.2,0.1 -0.5,0.5 -1.1,0.5 -0.6,0 -0.9,0.2 -1,0.4 -0.1,0.2 0.1,0.5 -0.2,0.4 -0.2,0 -0.3,0 -0.4,0.1 l -0.2,0.2 c -0.2,0 -0.4,0.1 -0.5,0.2 l -0.5,0.3 c 0,0 -0.4,0.2 -0.2,0.3 0.1,0.1 0.2,0.2 0.2,0.4 -0.1,0.2 -0.1,0.4 -0.5,0.3 -0.4,-0.1 -0.4,0.1 -0.7,0.2 -0.3,0.1 -0.6,0.4 -0.9,0.5 -0.3,0.1 -0.5,0.2 -0.8,0.1 -0.3,-0.1 -0.6,-0.1 -0.7,0 -0.1,0.1 -0.1,0.3 -0.3,0.4 -0.2,0.1 -0.4,0.1 -0.5,0.3 -0.1,0.2 -0.4,0.3 -0.5,0.5 -0.1,0.2 -0.7,0.4 -0.7,0.6 0,0.3 0.1,0.6 0.2,0.9 l 0.3,0.6 c 0.7,0.7 1.4,1.4 2.3,1.9 1.4,0.8 3,1.8 3.9,2.4 0.8,0.5 1.6,1 2.5,1.4 0.2,0 0.5,0.1 0.7,0.3 0.2,0.2 0.5,0.6 0.8,0.4 0.3,-0.2 0.2,-0.1 0.6,0.1 0.6,0.3 1.3,0.5 1.9,0.6 0.5,-0.1 0.9,0.3 1.4,0.7 0.5,0.4 1,0.7 1.6,1 0.1,0 0.3,0.3 0.3,0.3 0.1,0.1 0.3,0.2 0.4,0.2 0.2,0 2,0.4 2.5,0.6 0.4,0.1 0.9,0.2 1.3,0.3 0.3,0.1 0.6,0.2 0.5,-0.3 -0.1,-0.5 -0.1,-4.4 -0.1,-5.7 0.1,-1.1 0.1,-2.1 0,-3.2 -0.2,-1 -0.4,-2.9 -0.4,-2.9 0.2,-0.4 0.3,-0.8 0.2,-1.3 -0.1,-0.6 -0.1,-1.3 -0.1,-1.9 0,-0.6 0,-1.3 0.1,-1.9 0.3,-0.5 0.3,-0.9 0.3,-1.4 z m 0.1,-5.5 c 0,-0.6 0.1,-1.2 0.3,-1.8 0.1,-0.2 0.1,-0.7 0,-1.1 0,-0.4 0,-0.7 0.2,-1.1 0.1,-0.1 0.1,-0.5 0,-1 -0.1,-0.6 0,-1.2 0.2,-1.8 0.1,-0.3 0.2,-0.8 0.3,-1.2 0.1,-0.4 0.3,-1 0.3,-1.1 l -0.1,-0.3 c -0.1,-0.3 -0.1,-0.7 -0.1,-1 0,-0.4 0.1,-0.7 0.4,-1 0.2,-0.8 0.4,-1.5 0.5,-2.3 0.2,-0.7 0.4,-1.3 0.5,-2 0,-0.5 0.1,-1 0.3,-1.5 0.1,-0.3 0.2,-0.7 0.2,-1 0,-0.2 0.2,-0.3 0.4,-0.3 0.1,0 0.3,-0.2 0.4,-0.4 0.1,-0.3 0.2,-0.6 0.4,-0.8 0.2,-0.2 0.5,-0.5 0.6,-0.7 0.2,-0.3 0.5,-0.6 0.8,-0.8 0.3,-0.2 0.6,-0.1 0.9,-0.1 0.3,0 0.8,-0.1 1.3,-0.1 0.5,0 0.2,0.5 0.1,1 0.1,0 0.2,0.3 0.3,0.6 0.1,0.3 -0.3,1 -0.2,1.4 -0.1,0.4 -0.1,0.8 -0.2,1.1 0,0.3 -0.2,0.7 -0.3,1 -0.2,0.2 0,1.2 0,1.7 0,0.5 0.1,1.1 -0.1,1.4 -0.2,0.3 -0.3,0.3 -0.1,1.1 0.1,0.4 0.1,0.8 -0.1,1.2 -0.1,0.5 -0.1,1 0,1.5 0.1,0.5 0.1,1 0,1.4 -0.1,0.2 -0.1,0.3 -0.1,0.8 0,0.3 0.1,0.7 0.2,1 0.1,0.3 -0.2,0.5 -0.2,0.8 v 2.8 c -0.1,0.5 -0.2,1 -0.2,1.4 0.1,0.9 0.2,2 0.2,2.2 0,0.1 0.2,0.2 0.3,0.2 0,0 0.1,0 0.1,-0.1 0.3,-0.2 0.6,-0.3 1,-0.3 0.4,0 0.8,0.1 1.2,0.2 0.7,0 1.4,-0.1 2.1,-0.2 0.4,-0.1 0.3,0.2 0.3,0.2 l 0.6,0.1 c 0.9,0 1.8,0 2.7,-0.1 1.6,-0.1 1.1,0.2 1.8,0.2 0.7,0 1.9,0.1 1.9,0.1 0.2,0.1 0.3,0.1 0.5,0 0.2,-0.1 0.2,0.2 0.4,0.3 0,0.1 0.1,0.2 0.2,0.2 0.2,0 0.3,-0.2 0.4,-0.5 0.1,-0.3 1,-0.2 1,-0.2 0.3,0.1 0.5,0.2 0.7,0.3 0.3,0.2 0.5,0.2 0.9,0.3 0.2,0 0.4,-0.3 0.7,-0.2 0.4,0.1 0.7,0.3 1,0.5 0.3,0.1 1,-0.1 2.1,0 0.7,0.1 1.4,0.2 2.1,0.4 0.4,0.2 0.9,0.2 1.4,0.2 0.6,0 0.5,0.1 0.5,0.1 0,0 0.1,0.2 0.2,0.2 0.2,-0.1 0.4,0 0.5,0.2 0.2,0.2 0.3,0.1 0.9,-0.1 0.6,-0.2 0.5,0.1 0.5,0.1 l 0.5,0.4 0.6,0.1 c 0.2,0 0.4,0.1 0.7,0.1 0.8,0.1 2,0.6 2.2,0.6 0.3,0.1 0.7,0.2 1,0.3 0.4,0.1 0.5,0.4 0.7,0.5 0.4,0 0.8,0 1.2,-0.1 0.7,0 1.4,0.2 2,0.5 0.9,0.3 2.1,0.7 2.6,1 0.5,0.3 0.9,0.6 1.3,1 0.2,0.5 0.2,1.1 0.2,1.7 -0.1,0.4 -0.2,0.7 -0.5,1 -0.1,0.2 -0.2,0.4 -0.2,0.6 0,0.2 -0.4,0.5 -0.6,0.7 -0.2,0.2 -1.1,0.1 -1.4,0.2 -0.7,0.4 -1.5,0.6 -2.4,0.6 -0.9,0.1 -1.7,0.1 -2.6,0.1 -0.2,0.1 -0.3,0.1 -0.5,0.2 -0.2,0.1 -0.5,-0.1 -0.7,-0.1 -0.2,0 -0.6,-0.1 -0.4,-0.2 0.2,-0.1 -0.2,-0.3 -0.5,-0.4 -0.5,-0.1 -1,-0.1 -1.5,-0.1 -0.3,0.1 -0.7,0.2 -1,0.2 -0.3,-0.2 -0.7,-0.4 -1,-0.5 -0.4,-0.1 -0.4,-0.6 -0.4,-0.7 0,-0.1 -0.2,-0.2 -0.4,-0.2 -0.2,0 -0.6,-0.6 -0.5,-0.9 0.1,-0.3 0.4,0 0.6,-0.1 l 0.6,-0.3 c 0.3,0 0.7,-0.1 1,-0.1 l 1.4,-0.2 c 0.6,-0.1 0.4,0 0.9,-0.1 0.5,-0.1 0.5,-0.1 0.4,-0.2 -0.1,-0.1 0.4,-0.2 0.9,-0.3 0.5,-0.1 1.1,-0.2 1.5,-0.3 0.4,-0.1 0.5,-0.3 0.5,-0.5 0,-0.2 -0.7,-0.1 -1,-0.3 -0.3,-0.2 -0.7,-0.3 -1.1,-0.5 -0.2,0 -0.5,-0.1 -0.6,0 -0.1,0.1 -0.2,-0.1 -0.2,-0.2 0,-0.1 -0.2,0.1 -0.5,0.1 -0.3,0 -0.1,-0.2 -0.7,-0.6 -0.6,-0.3 -1.3,-0.5 -1.9,-0.5 -0.6,0 -1.2,-0.1 -1.8,-0.3 -0.2,-0.1 -0.4,-0.2 -0.5,-0.4 h -1 c -0.3,0 -0.6,-0.1 -0.9,-0.3 -0.6,-0.2 -1.2,-0.4 -1.9,-0.5 h -1 c -0.2,-0.1 -0.4,-0.2 -0.5,-0.3 -0.1,-0.2 -0.7,-0.2 -0.9,-0.3 -0.4,0 -0.8,0 -1.2,0.1 -0.2,0.1 -0.5,0.1 -1,-0.2 -0.5,-0.3 -0.4,-0.2 -0.5,-0.1 -0.4,0 -0.9,-0.1 -1.3,-0.2 -0.2,-0.1 -0.5,-0.2 -0.7,-0.2 -0.3,-0.1 -0.7,0 -1,0.1 -0.3,0.2 -0.5,-0.1 -0.9,-0.2 -0.5,-0.1 -1.1,-0.1 -1.6,-0.1 -0.5,0 -0.9,0 -1.4,0.1 -0.3,0.1 -0.6,0.1 -0.9,-0.1 -0.3,-0.2 -0.6,-0.3 -0.9,-0.3 -0.3,0 -0.5,0 -0.8,0.1 -0.2,0.1 -0.3,0 -0.5,-0.1 -0.2,-0.1 -2.3,0 -2.6,0 -0.6,0.1 -1.3,0.1 -1.9,0.1 -0.3,0 -0.5,0.2 -0.5,0.4 v 0.9 c -0.1,0.6 -0.1,1.2 0,1.8 0,0.3 0,0.7 0.1,0.9 0.1,0.3 0.2,0.5 0.1,0.8 0,0.5 0.2,1.8 0.2,1.8 0.1,0.3 0.1,0.6 0.1,0.9 0,0.5 0.1,1 0.3,1.5 0.2,0.4 -0.2,0.7 -0.1,1.3 0,0.5 0.1,1.1 0.2,1.6 0.2,0.6 0.3,1.2 0.4,1.8 0.1,0.8 -0.1,2.5 0.1,3.7 0,0.9 0.2,1.8 0.4,2.7 0.3,0.6 -0.1,1.4 0.2,1.9 0.3,0.5 0.4,0.3 0.4,0.3 0.2,0 0.3,0 0.5,0.1 0.3,0.1 0.2,0.1 0.4,0 0.2,-0.1 0.4,-0.1 0.8,0 0.3,0.1 0.6,0.1 0.9,0 0.4,0 0.8,0 1.2,0.1 0.7,0.1 2,0.3 2.7,0.4 0.6,0.1 1.3,0.1 1.9,0 0.4,-0.1 0.7,-0.1 1.1,0 0.2,0 0.7,0.1 0.7,0.1 0,0 0.3,0.2 0.5,0 0.2,-0.2 0.5,0.1 1.3,0.2 0.9,0.1 1.8,0 2.7,-0.2 0.7,-0.2 1.5,-0.2 2.2,-0.2 0.7,0.2 1.4,0.2 2.1,-0.1 1.2,-0.4 1.3,-0.5 1.7,-0.6 0.8,-0.1 1.5,-0.1 2.3,0 0.4,0.1 0.9,-0.1 1.2,-0.3 0.2,-0.1 0.4,-0.1 0.6,-0.1 0.3,0.1 0.6,-0.1 1,-0.3 0.6,-0.3 1.1,-0.5 1.8,-0.6 0.8,-0.2 1.5,-0.5 2.3,-0.8 0.8,-0.3 1.5,-0.6 2.2,-1 0.5,-0.4 1,-0.6 1.6,-0.7 0.9,-0.3 0.7,-0.5 0.9,-0.6 0.2,-0.4 0.5,-0.6 0.9,-0.8 0.4,-0.2 0.7,-0.4 1.1,-0.6 0.3,-0.2 0.7,-0.5 1.1,-0.7 0.4,-0.3 0.8,-0.6 1.2,-1 l -0.1,-0.5 1.6,-1 c 1,-0.7 0.6,-1.2 1,-1.5 0.7,-0.6 0.3,-0.6 0.3,-0.6 0.4,-0.4 0.8,-0.8 1.2,-1.1 1.1,-0.9 0.3,-1.2 0.4,-1.3 0.1,-0.1 0.2,-0.4 0.4,-0.4 0.2,0 0.4,-0.4 0.4,-0.6 0,-0.2 0.3,-0.7 0.9,-1.4 0.5,-0.4 0.6,-1 0.5,-1.5 -0.1,-0.6 0.1,-0.5 0.3,-0.7 0.2,-0.2 0.4,-0.5 0.4,-0.8 0.1,-0.6 0.2,-1.3 0.4,-1.9 0.2,-0.5 0.3,-0.9 0.1,-1 -0.2,-0.1 0.1,-0.8 0.2,-1.2 0.1,-0.3 0.1,-0.7 -0.1,-1 -0.1,-0.2 0,-0.4 0.1,-0.5 0.1,-0.1 0,-0.3 -0.1,-0.5 -0.1,-0.2 0.1,-0.4 0.1,-0.7 0,-0.2 -0.1,-0.4 -0.2,-0.5 0,0 -0.3,-0.5 -0.5,-1 -0.2,-0.5 0.2,-0.8 0.2,-0.8 0.1,-0.2 0.2,-0.3 0.3,-0.5 0.1,-0.3 -0.2,-0.3 -0.4,-0.4 -0.2,-0.1 -0.1,-0.2 0,-0.4 0.1,-0.2 0,-0.4 -0.1,-0.5 -0.2,-0.2 -0.4,-0.5 -0.3,-0.7 0.1,-0.2 -0.4,-0.8 -0.6,-1.2 -0.3,-0.6 -0.4,-1.2 -0.5,-1.8 -0.1,-0.2 -0.1,-0.4 -0.2,-0.5 -0.1,-0.3 -0.2,-0.5 -0.5,-0.7 -0.2,-0.1 0.4,-0.6 0.4,-0.9 -0.1,-0.3 -0.4,-0.5 -0.8,-0.5 -0.5,-0.1 -0.6,-0.5 -0.8,-0.9 -0.2,-0.4 -0.4,-0.8 -0.5,-1.1 -0.1,-0.2 -0.3,-0.4 -0.6,-0.6 -0.2,-0.1 -0.3,-0.8 -0.5,-1 -0.2,-0.3 -0.4,-0.7 -0.7,-0.9 -0.3,-0.3 -0.5,-0.7 -0.6,-1.1 -0.2,-0.6 -1.1,-1 -2.2,-2.3 -1.1,-1.3 -2.2,-2.3 -3.3,-3.3 -0.2,-0.3 -0.5,-0.5 -0.8,-0.7 -0.4,-0.2 -0.8,-0.4 -1.1,-0.8 -0.4,-0.6 -1,-1 -1.6,-1.3 -1,-0.6 -2,-1.3 -3,-2 -0.6,-0.5 -1.3,-1 -2,-1.3 -1.2,-0.6 -2.3,-1.2 -3.4,-1.9 -0.4,-0.3 -0.9,-0.5 -1.4,-0.6 -0.5,0 2.6,1.5 2.4,1.2 -0.2,-0.3 -0.1,-0.3 -0.5,-0.4 -0.4,-0.1 -0.9,-0.1 -1.1,-0.4 -0.2,-0.3 -0.3,-0.2 -0.8,-0.2 -0.5,0 -5.9,-2.8 -6.4,-2.8 -0.3,0 -0.6,-0.1 -0.9,-0.4 -0.1,-0.2 -0.6,-0.1 -1.9,-0.2 -0.9,-0.1 -1.7,-0.5 -2.3,-1.1 0,0 -0.2,0 -0.8,-0.2 -0.6,-0.2 -0.2,-0.2 -1,-0.3 -0.8,-0.1 -0.7,-0.2 -0.9,-0.1 -0.2,0.1 -1,-0.7 -1.6,-0.7 -0.4,-0.1 -0.7,-0.2 -1.1,-0.3 -0.2,0 -0.3,0.1 -0.5,0.2 -0.3,0 -0.7,-0.1 -1,-0.2 0,0 -0.9,0 -0.9,-0.1 -0.3,-0.2 -0.7,-0.3 -1.1,-0.3 -0.3,0 -0.5,-0.2 -0.9,-0.5 C 181.1,16.5 180,17 180,17 h -0.9 c -0.2,0 -1.2,-0.3 -1.6,-0.4 -0.7,-0.2 -1.4,-0.3 -2.1,-0.2 -0.5,0 -1.1,0 -1.6,-0.1 -0.3,0 -1.4,-0.2 -1.6,-0.2 -0.2,0 -0.1,-0.2 -0.2,-0.3 -0.8,0 -1.6,0 -2.5,0.1 h -2.9 c -0.5,0.1 -1.4,-0.2 -1.8,-0.3 -0.5,-0.1 -0.9,-0.1 -1.4,0 -0.7,0.1 -1.8,-0.1 -3.1,-0.1 h -3.6 c -1.2,-0.1 -2.5,0 -3.7,0.3 -0.8,0.2 -1.7,0.3 -2.5,0.2 -0.7,0.1 -1.3,0.2 -1.9,0.5 -0.1,0.1 -0.3,0.5 -0.9,0.8 -0.6,0.2 -1.1,0.5 -1.7,0.8 -0.2,0.2 -0.4,0.5 -0.6,0.7 -0.2,0.2 -0.5,0.5 0,0.9 0.5,0.4 0.1,0.6 -0.2,0.6 -0.3,0 -0.6,0.4 -0.9,0.5 -0.4,0.1 -0.7,0.2 -1.1,0.2 -0.4,-0.1 -0.4,0.2 -0.7,0.3 -0.3,0.1 -0.7,0.1 -0.9,0 -0.2,-0.1 0.1,-0.4 0.1,-0.5 0,-0.1 0,-0.2 0.1,-0.3 0.1,-0.2 0.1,-0.5 0.1,-0.8 -0.1,-0.1 -0.4,-0.1 -0.6,-0.1 -0.4,0 -0.7,0 -1.1,-0.2 -0.5,-0.2 -0.1,-0.7 0,-1.1 0.1,-0.4 0.1,-0.8 0,-1.1 0,-0.3 0.1,-0.6 0.4,-0.8 0.4,-0.2 0.7,-0.5 1,-0.7 0.7,-0.4 1.4,-0.6 2.2,-0.8 0.6,-0.2 1.2,-0.3 1.8,-0.3 0.3,-0.1 0.7,-0.2 1.1,-0.2 0.8,-0.1 1.6,-0.3 2.3,-0.5 1.1,-0.2 2.1,-0.2 3.2,-0.1 0.7,-0.1 1.5,-0.1 2.2,0 1.1,0.1 1.2,0.3 1.1,0 -0.1,-0.3 2.6,-0.3 3.2,-0.2 0.6,0.1 0.4,0.1 0.8,0 0.5,-0.1 0.9,-0.1 1.4,0.1 0.5,0.2 1.1,0.2 1.6,0 0.6,-0.1 1.2,0 1.8,0.1 0.7,0.1 1.4,0.1 2.1,0 1.2,0 2.4,0 3.7,0.1 0.7,0.1 1.3,0.1 1.6,0.2 0.3,0.1 0.4,0.1 0.6,0 0.2,-0.1 0.7,0.2 1.2,0.3 0.6,0.1 1.1,0.1 1.7,0.1 0.5,0 1,0.1 1.5,0.2 0.6,0.1 1.2,0.2 1.9,0.1 0.9,-0.1 1.8,0 2.7,0.2 1.6,0.4 1.2,0.3 2.2,0.5 1,0.2 1.2,0.2 2,0.3 0.7,0.1 1.3,0.2 2,0.4 0.6,0.2 1.2,0.4 1.8,0.4 0.4,0.1 0.8,0.1 1.2,0.1 0.4,0.2 0.8,0.3 1.2,0.6 0.2,0.1 0.8,0 0.8,0 0.3,0 0.6,0.1 0.9,0.2 0.6,0.3 1.2,0.5 1.9,0.6 0.8,0.2 0.7,0.2 0.9,0.2 0.2,0 1.1,0.6 1.8,0.8 0.7,0.2 0.7,0.1 0.8,0.4 0.1,0.3 1.6,0.3 1.8,0.3 0.3,0 0.5,-0.1 0.8,-0.2 0.5,0 0.4,0.4 0.6,0.4 0.3,0.1 0.5,0.2 0.8,0.4 0.2,0.1 0.5,0.2 0.7,0.2 l 0.6,0.1 c 0.4,0 0.8,0.2 1.1,0.4 0.6,0.3 1.2,0.6 1.9,0.8 0.5,0.2 0.9,0.4 1.4,0.7 0.4,0.2 0.8,0.5 1.2,0.6 0.4,0.2 0.9,0.4 1.3,0.6 0.2,0.2 0.4,0.3 0.7,0.4 0.5,0.2 0.6,0.4 1.4,0.7 0.4,0.1 0.7,0.3 1,0.6 l 0.3,0.3 0.1,0.4 c 0,0 0,0.2 0.4,0.2 0.4,0 0.5,-0.1 0.5,-0.1 0.2,0.1 0.3,0.3 0.5,0.4 0.2,0.3 0.1,0.2 0.6,0.5 0.5,0.3 0.3,0.2 0.6,0.4 0.5,0.3 0.9,0.6 1.4,1 0.4,0.4 0.9,0.6 1.4,0.5 0.4,0.1 0.7,0.3 0.9,0.6 0.1,0.2 0.3,0.4 0.5,0.6 0.3,0.1 -0.1,0.6 0.2,0.9 0.7,0.5 1.3,1.1 1.9,1.8 0.8,0.9 0.5,0.8 0.5,0.8 0.4,0.1 0.7,0.2 1,0.5 0.2,0.2 0.4,0.4 0.7,0.6 0.3,0.2 0.5,0.5 0.6,0.8 0.1,0.1 0.4,1 0.4,1.2 0.2,0.2 0.5,0.3 0.7,0.4 0.2,0 0.3,0.1 0.5,0.2 0.1,0.1 0.1,0.5 0.3,1 0.2,0.5 1,1.2 1.2,1.6 0.2,0.4 0.5,0.5 0.7,1 0.2,0.5 0,0.5 0.9,1.3 0.9,0.8 0.7,0.5 1,1.2 0.3,0.6 0.5,1.2 0.6,1.8 0.2,0.6 0.4,0.2 0.7,0.6 0.3,0.4 0.1,0.9 0.2,1.6 0.1,0.7 0,0.7 0,0.7 0,0 -0.4,0.3 -0.3,0.5 0.1,0.2 0.3,0.7 0.6,0.9 0.3,0.2 0.4,0.8 0.5,1.2 0,0.7 0.1,1.4 0.3,2.1 0.1,0.8 0.3,0.7 0.4,1 0.1,0.3 -0.1,0.5 0.1,1 0.2,0.4 0.2,0.8 0,1.1 -0.1,0.2 -0.1,0.4 0,0.7 0.1,0.3 0.2,0.2 0.1,0.6 -0.1,0.7 -0.2,1.3 -0.2,2 0,0.7 -0.1,1.3 -0.2,2 0,0 -0.1,0.8 -0.3,0.9 -0.2,0.1 0.1,0 0.1,0.3 -0.2,0.5 -0.4,1.1 -0.6,1.6 -0.1,0.3 -0.1,0.9 -0.4,1.1 -0.3,0.2 -0.2,0.3 -0.1,0.6 0,0.2 -0.2,0.4 -0.4,0.4 -0.2,0 -0.4,0.2 -0.5,0.7 -0.1,0.5 -0.5,1.3 -0.8,1.7 -0.1,0.2 -0.3,0.4 -0.5,0.6 0,0 -0.3,0.8 -0.4,1 -0.1,0.2 -0.4,0.6 -0.5,0.6 -0.1,0 -0.4,0.3 -0.6,0.8 -0.2,0.4 -0.4,0.7 -0.6,1 -0.1,0.2 -0.3,0.4 -0.5,0.4 -0.2,0.1 -0.4,0.4 -0.8,0.8 -0.5,0.5 -1.1,1 -1.7,1.4 -0.4,0.2 -0.4,0.4 -0.6,0.5 -0.2,0.1 -0.7,0.6 -0.8,0.8 -0.8,0.7 -1.7,1.2 -2.8,1.5 -1,0.3 -1.9,0.9 -2.6,1.6 -0.5,0.3 -1.1,0.5 -1.7,0.6 l -1.8,0.6 c 0,0 -0.2,0.4 -0.5,0.4 -0.4,0 -0.8,0.1 -1.1,0.3 -0.4,0.2 -0.9,0.3 -1.1,0.4 -0.2,0.1 -0.2,0.2 -0.4,0.2 -0.4,-0.1 -0.9,0 -1.2,0.2 -0.7,0.3 -1.4,0.5 -2.1,0.5 -0.5,0.1 -0.9,0.3 -1.3,0.6 -1.1,0.2 -2.3,0.4 -3.4,0.4 -0.4,0 -0.7,0.1 -1.1,0.2 -0.7,0.2 -1.4,0.3 -2.2,0.3 -0.9,0.1 -1.8,0 -1.9,0 -0.5,0.1 -1.1,0.2 -1.6,0.3 h -1.2 c -0.4,0.1 -0.6,0 -0.7,0.2 -0.1,0.2 -0.6,0.1 -0.8,-0.1 -0.2,-0.2 -0.8,0.1 -1,0.2 -0.2,0.1 -0.5,-0.1 -0.7,-0.2 -1,-0.1 -2,-0.1 -3,0 -0.7,0 -1.3,0.1 -2,0.1 -0.2,0 -0.4,0 -0.5,-0.2 -0.8,-0.1 -1.6,-0.1 -2.4,-0.1 -0.6,0 -1.3,0 -1.9,0.1 -0.8,0.1 -0.8,0 -1.2,-0.4 -0.4,-0.4 -0.1,0.3 0,0.7 0.1,0.4 0.2,0.5 0.3,0.6 0.1,0.1 0.2,0.6 0.3,0.8 0.1,0.3 0.1,0.6 0,0.9 -0.2,0.5 -0.6,0.9 -1.1,1.2 -0.3,0.1 -0.5,0.2 -0.7,0.4 -0.3,0.2 -0.6,0.4 -1,0.6 -0.3,0.1 -0.9,-0.1 -1,-0.1 -0.2,0 -0.4,-0.1 -0.7,-0.2 -0.4,-0.1 -0.6,0 -1.2,0 -0.6,0 -0.4,-0.3 -0.5,-0.6 -0.1,-0.3 -0.4,-0.3 -0.7,-0.7 -0.3,-0.4 -0.8,-0.3 -1.1,-0.5 -0.4,-0.5 -0.5,-1.3 -0.3,-1.9 0.1,-0.6 0,-1.2 -0.2,-1.8 -0.3,0 -0.7,-0.1 -1,-0.1 -0.2,0.1 -0.4,-0.1 -1.3,-0.4 -0.5,-0.2 -1,-0.3 -1.6,-0.3 -0.4,0 -0.7,-0.1 -1,-0.3 -0.4,-0.2 -0.7,-0.3 -1.1,-0.2 -0.3,0.1 -0.6,-0.2 -0.9,-0.5 -0.3,-0.3 -0.4,-0.2 -0.7,-0.4 -0.7,-0.2 -1.4,-0.2 -2.1,-0.2 -0.4,0 -0.6,-0.3 -0.8,-0.5 -0.2,-0.2 -0.5,-0.5 -0.7,-0.8 -0.2,-0.3 -1.2,-0.1 -1.8,-0.1 -0.6,0 -0.2,0 -0.2,-0.6 0,-0.6 -0.1,-0.2 -0.6,-0.4 -0.3,-0.2 -0.6,-0.2 -0.9,-0.1 -0.2,0.1 -0.4,0 -0.5,-0.3 -0.1,-0.2 -0.4,-0.3 -0.7,-0.2 -0.2,0.1 -0.5,-0.2 -0.5,-0.4 0,-0.2 -0.1,-0.3 -0.6,-0.5 -0.5,-0.2 -0.7,-0.4 -1.4,-0.8 -0.7,-0.3 -1.2,-0.7 -1.7,-1.2 -0.6,-0.6 -0.9,-0.9 -1.9,-1.7 -0.6,-0.5 -1.4,-0.9 -2.2,-1.2 -0.6,-0.2 -0.5,-0.8 -0.8,-0.9 -0.3,-0.1 0,-0.4 -0.2,-0.7 -0.2,-0.3 -0.4,-0.7 -0.7,-1 -0.3,-0.4 -0.5,-0.7 -0.7,-0.9 -0.2,-0.2 0.2,-0.6 0.2,-0.8 0.1,-0.2 0.1,-0.4 0,-0.7 -0.1,-0.3 -0.2,-0.6 -0.2,-0.9 0,-0.2 -0.1,-0.3 -0.3,-0.5 -0.2,-0.2 0,-0.4 0.4,-0.5 0.4,-0.1 0.3,-0.3 0.3,-0.4 0,-0.1 0.3,-0.2 0.5,-0.3 0.2,-0.1 0.2,-0.7 0.1,-0.8 0,-0.3 0.1,-0.5 0.3,-0.6 0.3,-0.2 0.8,-0.7 1,-0.9 v -0.3 c 0,0 0.7,-0.6 1.1,-0.8 0.4,-0.2 0.9,-0.4 1.4,-0.5 0.5,-0.2 0.9,-0.6 2.1,-1.3 0.6,-0.4 1.3,-0.7 2.1,-0.9 0.4,-0.1 0.8,-0.2 1.3,-0.2 0.6,-0.1 1.1,-0.3 1.7,-0.6 0.7,-0.3 1.5,-0.5 2,-0.6 0.5,-0.1 0.4,0.2 0.4,0.2 0.4,-0.1 0.9,-0.2 1.3,-0.3 0.7,-0.2 1.4,-0.4 2.2,-0.5 1.2,-0.1 0.9,0.1 1.8,-0.2 0.7,-0.2 1.5,-0.3 2.3,-0.3 1,-0.1 1.4,0 2.9,-0.1 -0.7,0.2 -0.9,-0.7 -0.8,-1.3"
         class="st1" />
      <path
         id="Path_22"
         d="m 241.4,46.3 c 0.1,0 0.2,0.1 0.3,0.3 0.1,0.2 0.3,0.3 0.4,0.3 h 0.1 c 0.2,-0.2 0.4,-0.9 0.4,-0.9 0,0 0.3,-0.1 0.5,0.1 0.2,0.2 0.1,0.4 0.7,0.7 0.5,0.3 0.7,0.8 0.8,1.4 0.1,0.5 0,3.1 0.1,3.5 0.1,0.5 0.1,1 0,1.5 0,0.4 0,0.8 0.1,1.2 0.1,0.3 0.1,0.6 0,0.9 0,1.2 0,2.3 0.1,3.5 0.1,0.8 0.1,1.6 0.1,2.4 -0.1,0.3 -0.1,0.7 -0.1,1 0,0.2 0.1,0.8 0.1,0.8 0,0 0.3,0.5 0.2,0.8 -0.1,0.3 -0.2,0.4 -0.4,0.4 -0.2,0 -0.1,0.3 -0.1,0.4 0,0.1 0.1,0.3 0.3,0.3 0.2,0 0.4,0.1 0.3,0.3 -0.1,0.2 -0.2,0.5 -0.2,0.7 V 68 c 0,0.7 0.2,1.9 0.2,2.5 v 2.3 c 0.1,0.4 0.2,0.8 0.3,1.1 0,0 0.5,0.4 0.5,0.6 0,0.2 0.1,0.6 0,0.7 -0.1,0.1 -0.2,0.6 0,0.6 0.2,0 0.4,0.2 0.4,0.4 0,0.2 -0.2,0.1 -0.3,0.3 -0.1,0.2 -0.1,0.6 -0.2,0.9 -0.1,0.3 -0.3,0.3 -0.3,0.5 0,0.2 -0.2,0.7 -0.6,0.8 -0.2,0 -0.4,0.1 -0.7,0.1 0,0 -0.1,-0.3 -0.5,-0.2 -0.8,0.1 -1.7,-0.1 -2.4,-0.4 -0.2,-0.2 -0.2,-0.6 -0.4,-0.7 -0.2,-0.1 -0.7,-0.5 -0.6,-0.7 0.1,-0.2 0.1,-0.3 0,-0.4 -0.2,-0.1 -0.4,-0.3 -0.5,-0.6 0,-0.2 0,-0.6 -0.3,-0.9 -0.3,-0.3 -0.5,-0.7 -0.6,-1.2 0,-0.2 -0.2,-2.9 -0.3,-3.9 0,-0.6 -0.1,-1.2 -0.4,-1.8 -0.1,-0.2 -0.2,-0.8 0,-0.8 0.2,0 0.4,0.3 0.2,-0.4 -0.2,-0.7 0.1,-0.9 0.1,-1.4 0,-0.5 -0.2,-0.8 0,-0.9 0.2,-0.1 0.4,-0.1 0.2,-0.4 -0.2,-0.3 0,-0.3 -0.1,-0.6 -0.1,-0.3 -0.4,-0.4 -0.2,-0.6 0.2,-0.2 0,-0.7 0.2,-1.3 0.2,-0.6 0,-1.8 0.2,-3.3 0.1,-0.8 0.2,-1.6 0.4,-2.4 0.1,-0.8 0.2,-1.6 0.2,-2.5 0.1,-0.9 0.2,-1.7 0.4,-2.6 0.1,-0.4 0.2,-0.7 0.2,-1.1 0.1,-0.3 0.3,-2.2 0.4,-2.4 0.1,-0.2 0.4,-0.7 0.4,-0.7 l 0.4,-0.3"
         class="st1" />
      <path
         id="Path_23"
         d="m 274.7,52.5 c 0.3,-0.2 0.6,-0.3 0.9,-0.2 0.4,0.1 0.7,0.1 1.1,0.1 0.4,0 0.4,-0.1 0.7,-0.1 0.3,0 0.7,-0.1 0.8,-0.3 0.1,-0.2 0.1,-0.5 0.4,-0.5 0.3,0 0.5,-0.1 0.4,-0.3 -0.1,-0.2 0.1,0.2 0,0 -0.1,-0.2 -0.2,-0.1 -0.4,-0.2 -0.3,-0.3 -0.6,-0.5 -1,-0.6 -0.5,-0.1 -0.9,-0.3 -1.2,-0.3 -0.5,-0.1 -1.1,-0.2 -1.7,-0.2 -0.6,0.1 -1.2,0.5 -1.6,0.3 -0.3,-0.2 -0.6,-0.2 -0.9,-0.2 -0.3,0 -0.5,0 -0.8,0.1 -0.2,0 -0.5,0.1 -0.7,0.2 -0.1,0.1 -0.2,0.2 -0.4,0.1 -1,0.1 -1.9,0.2 -2.9,0.5 -0.5,0.1 -0.6,0.1 -0.9,0.2 h -0.7 c -0.3,0 -0.7,0.1 -0.8,0 -0.1,-0.1 -0.5,0.1 -0.5,0.1 0,0 0,0.1 -0.6,0.2 -0.6,0.1 -0.7,0.1 -1.3,0.2 -0.6,0.1 -0.6,0 -0.9,0.1 -0.4,0.1 -0.9,0.2 -1.3,0.3 -0.2,0 -0.4,0 -0.6,0.1 -0.4,0.1 -0.3,0.2 -0.8,0.2 -0.2,0 -0.4,0 -0.6,0.1 l -0.2,0.5 c -0.1,0.1 -0.3,0.1 -0.4,0 -0.2,-0.1 -0.2,-0.2 -0.4,-0.2 -0.4,0.1 -0.7,0.2 -1.1,0.3 -0.6,0.1 -1.1,0.4 -1.7,0.7 -0.2,0.2 -0.4,0.3 -0.6,0.4 -0.4,0.1 -0.7,0.3 -1,0.5 -0.2,0.2 -0.4,0.3 -0.6,0.4 -0.3,0.1 -0.5,0.3 -0.7,0.4 -0.2,0.1 -0.7,0.4 -0.7,0.6 0,0.2 -0.2,0.4 -0.4,0.5 -0.3,0.1 -0.2,0.3 -0.4,0.4 -0.2,0.1 -0.4,0.2 -0.5,0.5 -0.2,0.3 -0.4,0.7 -0.6,1 -0.2,0.2 -0.5,0.7 -0.4,0.9 0.1,0.2 0.2,0.4 0.3,0.5 0.1,0.1 0.4,0.3 0.3,0.6 -0.1,0.3 -0.1,0.5 0.1,0.6 0.2,0.1 0.9,0.4 1,0.6 0.2,0.3 0.5,0.5 0.9,0.6 0.6,0 1.2,0.2 1.7,0.5 0.5,0.3 1,0.4 1.5,0.5 0.5,0.1 1,0.1 1.1,0.3 0.2,0.2 0.5,0.3 0.8,0.3 0.3,-0.1 0.7,-0.2 1,-0.1 0.6,0.1 1,0.4 1.2,0.3 0.2,-0.1 0.1,-0.5 0.6,0 0.3,0.3 0.7,0.5 1.2,0.3 0.2,-0.1 0.1,-0.2 0.7,-0.1 0.3,0.1 0.7,0.2 1.1,0.3 0.8,0.2 1.6,0.4 2.5,0.5 1,0.1 1.9,0.3 2.8,0.6 l 1.8,0.6 c 0.3,0 0.6,0.1 0.8,0.3 0.1,0.2 0.4,0.1 0.5,0.3 0.1,0.2 0.3,0.6 0.4,0.6 0.1,0 0.2,-0.1 0.4,-0.1 0.1,0.1 0.2,0.3 0.3,0.4 0.3,0.2 0.5,0.5 0.7,0.9 0.1,0.2 0.2,0.5 0.4,0.7 0.1,0.2 0.2,0.5 0.2,0.7 0.1,0.2 0.2,0.5 0.1,0.6 -0.1,0.1 0,0.2 0,0.6 0,0.6 -0.2,1.1 -0.5,1.6 -0.4,0.4 -0.6,0.7 -0.9,1 -0.3,0.3 -0.5,0.2 -1,0.5 -0.5,0.3 -1.1,0.5 -1.5,0.7 -0.4,0.2 -0.8,0.3 -1.2,0.4 -0.1,0 -0.2,-0.2 -0.5,0 -0.3,0.2 -0.6,0.2 -0.9,0.2 -0.4,0 -0.7,-0.1 -1,0 -0.2,0 -0.4,0.1 -0.5,0.2 -0.1,0.1 -0.2,0.2 -0.4,0.3 -0.2,0.1 -0.6,0.1 -0.6,-0.1 0,-0.2 0.1,-0.2 -0.6,-0.2 -0.7,0 -1.4,-0.2 -2,-0.2 -0.3,0.1 -0.6,0 -0.9,-0.2 -0.3,-0.1 -0.5,-0.2 -0.8,-0.2 h -0.7 c 0,0 -0.3,-0.2 -0.5,-0.1 -0.2,0.1 -0.2,0 -0.5,-0.3 -0.3,-0.3 -0.2,-0.4 -0.3,-0.7 -0.1,-0.3 -0.4,-0.5 -0.2,-0.7 0.2,-0.2 0.5,-0.2 0.7,-0.4 0.2,-0.2 -0.4,-0.6 0.3,-0.8 0.7,-0.2 1.2,-0.1 1.5,-0.4 0.3,-0.3 1,-0.3 1.3,-0.3 0.4,0 0.8,0 1.2,-0.1 0.3,-0.1 0.4,-0.3 0.6,-0.2 0.2,0.1 0.9,0 0.7,0.2 -0.2,0.2 0,0.6 0,0.6 l 0.4,0.3 h 0.5 c 0,-0.2 0.1,-0.4 0.2,-0.6 0.1,-0.2 0.3,-0.6 0.1,-0.6 -0.2,0 -0.3,-0.2 -0.3,-0.2 0,0 0,-0.4 -0.2,-0.4 -0.2,0 -1,-0.2 -1.4,-0.2 -0.4,0 0.2,-0.2 -0.5,-0.2 h -2.2 c -0.1,0.1 -0.2,0.1 -0.3,0.1 -0.2,-0.1 -0.4,-0.2 -0.7,-0.2 -0.1,0 -0.7,-0.1 -0.9,0 -0.2,0.1 -0.3,0.1 -0.9,0.1 -0.6,0 -0.9,0.1 -1.4,0.1 -0.5,0 -0.8,0 -1,0.2 -0.3,0.2 -0.6,0.3 -1,0.3 -0.5,0.1 -0.7,0.1 -0.8,0.3 -0.1,0.2 -0.4,0 -0.4,0 -0.3,0.1 -0.7,0.2 -0.7,0.3 0,0.2 -0.2,0.3 -0.3,0.4 -0.1,0 -0.4,0.1 -0.5,0.3 -0.1,0.2 -0.2,0.4 -0.1,0.6 0.1,0.2 0.1,0.3 -0.1,0.3 -0.2,0 -0.4,0.1 -0.4,0.3 0,0.2 -0.1,0.5 -0.2,0.7 -0.2,0.1 0.1,0.3 0.1,0.3 -0.2,0.1 -0.5,0.3 -0.5,0.5 0,0.2 -0.5,0.4 -0.1,0.6 0.4,0.2 0.6,0.3 0.7,0.3 0.2,-0.1 0.4,0 0.6,0.1 0.3,0.3 0.6,0.5 0.8,0.8 0,0 0,0.3 0.7,0.3 0.4,0 0.8,0.1 1.2,0.2 0.7,0.1 1.4,-0.1 1.7,0.1 0.3,0.2 1,0.2 1.2,0.3 0.2,0.1 0.4,0.4 0.5,0.3 0.1,-0.1 0,-0.2 0.5,-0.3 0.3,0 0.6,0.1 0.9,0.3 0,0 0.3,0.4 2,0.4 1.4,0.2 2.8,0.2 4.2,0.2 0.7,-0.2 1.4,-0.3 2.1,-0.3 0.3,0.1 0.5,0.1 0.8,0 0.7,-0.2 1.5,-0.4 2.2,-0.5 0.4,0 0.9,-0.1 1.3,-0.2 0.6,-0.1 1.1,-0.4 1.7,-0.7 0.2,-0.1 0.4,0.1 0.5,-0.1 0.1,-0.1 0.2,-0.2 0.4,-0.3 L 274,76 c 0,0 0.4,0.1 0.6,-0.1 0.2,-0.2 -0.1,-0.1 0.6,-0.6 l 1.8,-1.2 c 0.2,-0.2 0.6,-1.3 0.7,-1.3 0.1,0 0.7,-0.2 0.7,-0.3 0.1,-0.3 0.2,-0.5 0.3,-0.8 0,0 0.5,-0.3 0.9,-2 0.2,-1.2 -0.2,-2.4 -0.9,-3.3 -0.7,-0.6 -1,-1.3 -1.4,-1.4 -0.4,-0.1 -0.1,-0.2 -0.6,-0.4 -0.4,-0.2 -0.8,-0.3 -1.2,-0.4 -0.3,0 -0.8,0.3 -0.9,0.1 -0.1,-0.2 -0.1,-0.3 -0.1,-0.5 v -0.4 c 0,0 0.1,-0.1 -0.6,-0.1 -0.7,0 -0.7,0 -1,-0.2 -0.3,-0.2 -0.2,-0.2 -0.5,-0.2 -0.3,-0.1 -0.7,-0.1 -1,0 -0.6,0.1 0.4,-0.2 -0.9,-0.2 -0.8,0 -1.6,-0.2 -2.4,-0.4 -0.6,-0.1 -1.1,-0.2 -1.7,-0.2 -0.3,0.1 -0.4,0 -0.9,-0.1 -0.5,-0.1 -0.3,-0.2 -0.7,-0.1 -0.4,0.1 -0.9,0 -1.3,-0.1 -0.8,-0.2 -2.5,-0.5 -2.5,-0.5 0,0 -0.8,-0.5 -1.1,-0.4 -0.3,0.1 -0.2,0.4 -0.6,0.2 -0.4,-0.2 -0.1,-0.3 -0.7,-0.3 -0.6,0 -0.8,0 -1.1,-0.4 -0.3,-0.4 0,-0.3 -0.7,-0.5 -0.3,-0.1 -0.6,-0.3 -0.9,-0.5 -0.3,-0.2 -0.4,-0.7 -0.3,-0.9 0.1,-0.2 0,-0.9 0.2,-1 l 0.6,-0.1 c 0.1,-0.1 0.2,-0.3 0.2,-0.4 0,-0.1 0.4,-0.3 0.5,-0.3 0.1,0 0.5,-0.2 0.9,-0.3 0.4,-0.1 0.4,-0.2 0.4,-0.3 0,-0.1 0.5,-0.3 0.8,-0.4 0.4,-0.1 0.7,-0.2 1,-0.4 0.2,-0.2 0.4,-0.3 0.7,-0.3 0.2,0 1.9,0 1.6,-0.2 -0.3,-0.2 -0.3,-0.1 0.2,-0.3 0.4,-0.2 0.9,-0.2 1.3,-0.1 0.3,0.1 0.6,-0.4 0.7,-0.6 0.3,0 0.7,0.1 1,0.2 0.3,0.1 0.6,-0.1 0.5,-0.2 -0.1,-0.1 -0.2,-0.2 0.2,-0.2 0.4,0 1,0.1 0.8,0.3 -0.2,0.2 0.3,0.1 0.3,0.1 0.3,-0.1 0.6,-0.2 0.9,-0.2 0.5,-0.1 1.1,-0.3 1.5,-0.7 0,-0.1 -0.2,0 0.2,-0.1 0.4,-0.1 0.8,-0.3 1,-0.1 0.2,0.2 0.3,0.3 0.7,0.3 0.3,0 0.6,0 0.9,-0.1 0.6,-0.2 1.2,-0.3 1.8,-0.3"
         class="st1" />
      <path
         id="Path_24"
         d="m 288.5,50.9 c 0,0 0.4,-0.7 -0.4,-0.6 -0.8,0.1 -0.3,0.3 -0.5,0.3 -0.2,0 -0.6,0.1 -0.6,0.2 0,0.1 0,0.4 -0.3,0.4 -0.3,0 -0.4,0.3 -0.4,0.5 0,0.3 -0.1,0.5 -0.2,0.7 -0.2,0.2 -0.4,0.3 -0.4,0.7 0.1,0.3 0,0.7 -0.1,1 -0.1,0.4 -0.2,0.8 -0.3,1.1 0,0.1 -0.1,0.5 -0.1,0.7 -0.1,0.3 -0.2,0.5 -0.2,0.8 0,0.2 0.3,0 0.3,0.3 0,0.5 0,0.9 -0.2,1.3 -0.1,0.1 -0.3,0.2 -0.5,0.2 -0.1,0.1 -0.2,0.2 -0.1,0.3 0,0.2 0.2,0.8 0,0.9 -0.2,0.1 -0.1,0.3 -0.1,0.6 0,0.4 0,0.8 -0.2,1.2 -0.2,0.3 -0.3,0.6 -0.3,1 0,0.3 0.1,0.7 0,0.9 -0.1,0.2 0,0.2 0,0.5 0,0.3 0,0.6 -0.2,0.7 -0.2,0.1 -0.3,0.3 -0.3,0.5 v 1.5 c -0.1,0.4 -0.2,0.7 -0.2,1.1 0.1,0.4 0.1,0.8 0,1.1 -0.2,0.4 -0.4,1.7 -0.2,1.6 0.2,-0.1 0.4,-0.1 0.5,0.1 0,0.3 0,0.6 -0.1,0.9 0,0.2 -0.4,0.6 -0.4,0.6 v 0.3 c 0.2,0.3 0.2,0.6 0.2,0.9 -0.2,0.3 0.1,1.1 0.1,1.3 0.2,0.4 0.2,0.8 0.2,1.2 0,0.6 0.2,0.8 0.2,1.1 0,0.3 0,0.7 0.2,1 0.2,0.1 0.2,0.4 0.5,0.7 0.3,0.3 0.8,0.4 1,0.6 0.2,0.2 0.5,0.3 0.8,0.2 0.3,0 0.6,0 0.8,0.2 0.2,0.1 0.4,0.2 0.6,0.1 0.4,-0.1 0.3,-0.3 0.5,-0.3 0.2,0 0.6,-0.1 0.7,-0.1 0.1,0 0.6,-0.2 0.5,-0.5 -0.1,-0.3 0.1,-0.5 0.1,-0.8 0,-0.3 -0.2,-1 -0.3,-2.3 l -0.2,-2 c 0,-0.4 -0.1,-0.8 -0.2,-1.1 0,-0.2 -0.1,0 -0.2,-0.3 -0.1,-0.4 -0.1,-0.8 -0.1,-1.2 0,-0.3 -0.1,-1 0,-1.2 0.2,-0.3 0.3,-0.7 0.2,-1.1 -0.1,-0.8 -0.1,-1.6 0,-2.3 0.1,-0.7 0.1,-0.8 0.1,-1.1 0,-0.4 0.1,-0.8 0.2,-1.1 0.1,-0.4 0.4,-1.3 0.4,-1.7 0.1,-0.3 0.1,-0.5 0.1,-0.8 0,-0.2 0.3,-0.7 0.3,-0.9 0,-0.2 0.1,-0.5 0.2,-0.6 0.1,-0.3 0.2,-0.7 0.2,-1.1 0.1,-0.4 0.2,-0.7 0.4,-1 0.1,-0.2 0.2,-0.8 0.7,-0.3 0.5,0.5 0.9,1.2 1.1,1.5 0.2,0.3 0.6,0.5 0.7,0.7 0.1,0.2 0.3,0.5 0.4,0.7 0.1,0.3 0.6,0.7 0.7,1.1 0.1,0.4 0,0.8 0.2,0.8 0.2,0 0.4,-0.1 0.5,0.4 0.1,0.3 0.3,0.6 0.5,0.9 0.1,0.2 0.2,0.4 0.2,0.6 0,0.2 0,0.6 0.1,0.7 0.1,0.1 0.2,0.3 0.3,0.5 0.1,0.5 0.3,1 0.6,1.4 0.3,0.3 0.7,0.5 0.7,0.8 0,0.2 0.1,0.3 0.1,0.4 0.1,0 0.2,0.1 0.3,0.3 0.1,0.2 0.3,0.8 0.3,0.8 0.1,0.5 0.3,0.9 0.5,1.3 0.3,0.3 0.3,-0.3 0.5,0.4 0.1,0.5 0.3,0.9 0.6,1.3 l 0.4,0.4 c 0,0 0.1,0 0.2,0.3 0.2,0.6 0.5,1.1 0.8,1.6 0.4,0.5 1.1,1 1.3,1.4 0.1,0.3 0.3,0.7 0.6,0.9 0.4,0.4 0.5,0.9 0.9,1 0.2,0 0.4,0.1 0.6,0.3 0.1,0.1 0.5,0.2 0.4,0.3 -0.1,0.1 0,0.4 0.3,0.4 0.3,0 0.7,-0.1 1,-0.2 0.2,-0.1 0.4,-0.1 0.5,-0.3 l 0.2,-0.4 c 0,0 0.3,-0.1 0.4,0 0.1,0.1 0.1,0.3 0.3,0.3 0.2,0 0.2,0.2 0.2,0.2 0.1,0 0.3,-0.1 0.4,-0.2 l 0.4,-0.4 c 0.1,-0.1 0.2,-0.3 0.2,-0.5 0,-0.2 0,-0.4 0.1,-0.7 0.2,-0.2 0.3,-0.3 0.5,-0.4 l 0.2,-0.3 -0.2,-0.3 c 0,0 0,-0.3 0.1,-0.4 0.1,-0.1 0,-0.2 0.1,-0.4 0.1,-0.2 0.3,0.1 0.3,-0.1 0.1,-0.3 0.2,-0.7 0.1,-1 -0.1,-0.4 0,-0.8 0.3,-1.1 0.3,-0.4 0.2,-0.4 0.4,-0.6 0.2,-0.1 0.2,-0.3 0.1,-0.5 v -0.5 c 0,-0.3 0.4,-0.6 0.2,-1.2 -0.2,-0.6 0.2,-0.8 0.1,-1.1 -0.1,-0.7 -0.1,-1.5 0,-2.2 0,0 0.4,-0.1 0.2,-0.5 0,-0.2 -0.1,-0.5 -0.2,-0.7 -0.1,-0.2 -0.2,-0.5 -0.1,-0.8 v -0.2 c 0.1,0 0.3,-0.1 0.3,-0.2 v -0.1 c 0,-0.3 -0.3,-0.8 -0.3,-0.9 0,-0.1 0,0 -0.1,-0.5 -0.1,-0.5 -0.1,-1 -0.1,-1.5 -0.1,-0.2 -0.1,0.1 -0.2,-0.7 -0.1,-0.8 -0.1,-1.6 -0.1,-2.3 v -1 c 0,-0.1 -0.1,-0.2 -0.2,-0.3 -0.2,-0.1 -0.3,-0.3 -0.3,-0.5 0,-0.2 -0.2,-0.1 -0.2,-0.6 0,-0.5 0,-0.6 -0.2,-0.7 -0.2,-0.1 -0.4,-0.1 -0.4,-0.3 0,-0.2 -0.1,-0.5 -0.1,-0.8 0,-0.2 -0.1,-0.4 -0.3,-0.6 -0.2,-0.2 -0.1,-0.4 -0.2,-0.9 -0.1,-0.5 -0.1,-0.9 -0.3,-1 -0.2,-0.1 -0.3,-0.3 -0.4,-0.7 -0.1,-0.3 -0.2,-0.5 -0.3,-0.8 -0.1,-0.3 -0.1,-0.5 -0.3,-0.8 0,0 -0.2,0 -0.4,-0.4 -0.2,-0.4 -0.1,-1.1 -0.3,-1.2 -0.2,-0.1 -0.3,-0.1 -0.5,-0.5 -0.2,-0.4 0,-0.4 -0.4,-0.7 -0.4,-0.3 -0.1,-0.1 -0.5,-0.7 -0.4,-0.6 -0.8,-0.8 -0.8,-1.1 0,-0.3 -0.1,-0.4 -0.4,-0.5 -0.3,-0.1 -0.6,-0.2 -0.7,-0.5 -0.1,-0.3 0,-0.7 -0.1,-0.8 -0.1,-0.1 -0.4,-0.3 -0.5,-0.3 -0.1,0 -0.4,0.2 -0.4,-0.2 0,-0.3 -0.2,-0.6 -0.4,-0.7 -0.2,-0.1 -0.5,-0.3 -0.7,-0.5 -0.3,-0.2 -0.5,-0.2 -0.5,-0.4 0,-0.2 -0.1,-0.3 -0.3,-0.2 -0.2,0.1 -0.5,0 -0.7,0 -0.2,0 -0.8,0.1 -0.8,0.3 0,0.2 0.1,0.4 0.3,0.5 0.2,0.1 0.4,0.1 0.4,0.3 0,0.2 0.2,0.5 0.4,0.3 0.2,-0.2 0.2,-0.1 0.3,0.1 0.1,0.3 0.3,0.5 0.5,0.7 0.2,0.2 0.5,0.6 0.6,0.7 0.1,0.1 0.5,0.7 0.5,0.8 0,0.1 0.4,0.4 0.5,0.7 0.1,0.3 0.7,0.5 0.7,0.7 0,0.2 -0.1,0.5 0.1,0.7 0.1,0.2 0.2,0.4 0.1,0.7 0,0.4 0.2,0.8 0.4,1.2 0.3,0.2 0.8,0.6 0.8,0.6 0.1,0.2 0.1,0.5 0.1,0.7 -0.1,0.4 0,0.7 0.2,1 0.3,0.3 0.4,0.7 0.5,1.2 0,0.3 0.1,1.2 0.2,1 0.1,-0.2 0.2,0 0.2,0.5 -0.1,0.6 -0.1,1.2 0.2,1.7 0.3,0.3 0.4,0.7 0.5,1.1 0.1,0.4 0.3,0.7 0.2,1 -0.1,0.2 -0.1,0.5 0,0.7 0.1,0.3 -0.2,0.5 0,0.8 0.2,0.4 0.3,0.8 0.3,1.2 0,0.7 -0.1,1.4 0,1.8 0.1,0.4 0,0.7 0.1,0.7 0.1,0 0.3,0.4 0.2,0.9 -0.1,0.3 -0.2,0.7 -0.1,1 0,0.1 0.1,0.2 0.2,0.3 0,0 0.3,0 0.2,0.2 -0.1,0.2 -0.1,0.5 -0.3,0.4 -0.2,-0.1 -0.4,0 -0.3,0.2 0,0.4 0,0.8 -0.1,1.1 -0.2,0.6 -0.3,1.3 -0.2,2 0.1,1.1 0.1,1.5 0,1.7 -0.3,0.4 -0.5,0.8 -0.6,1.3 -0.1,0.7 -0.1,1.1 -0.4,1 -0.3,-0.1 -0.4,-0.3 -0.6,-0.4 -0.2,-0.1 -0.4,-0.2 -0.6,-0.6 -0.2,-0.4 0,-0.6 -0.4,-0.9 -0.4,-0.3 -0.9,-0.2 -1,-0.8 -0.1,-0.4 -0.2,-0.9 -0.4,-1.3 -0.1,-0.1 -0.2,-0.2 -0.4,-0.3 -0.1,0 -0.4,-0.1 -0.4,-0.3 0,-0.2 0.1,-0.2 -0.1,-0.3 -0.2,-0.1 -0.3,-0.2 -0.3,-0.4 0,-0.2 0,-0.7 -0.3,-1 -0.3,-0.3 -0.4,-0.3 -0.5,-0.6 -0.1,-0.3 -0.2,-0.4 -0.3,-0.5 -0.1,-0.1 0,0.3 -0.3,-0.6 -0.3,-0.9 -0.9,-1.3 -1.9,-2.9 -1,-1.6 -1.7,-2.5 -2,-3 -0.3,-0.5 -0.4,-0.6 -0.4,-0.8 0,-0.2 0.2,-0.3 0,-0.7 -0.2,-0.4 -0.6,-0.8 -1.2,-1.7 -0.6,-0.9 -1.3,-1 -1.6,-1.5 -0.2,-0.4 -0.4,-0.8 -0.7,-1.1 -0.3,-0.3 -0.5,-0.5 -0.7,-0.4 -0.5,-0.5 -1,-0.8 -1,-1 0,-0.2 0.2,-0.1 -0.4,-0.2 -0.6,-0.1 -1.1,-0.3 -1.4,-0.2"
         class="st1" />
      <path
         id="Path_25"
         d="m 318.8,52.6 c -0.1,-0.2 -0.3,-0.2 -0.5,-0.2 0,0 -0.1,-0.2 -0.6,-0.2 -0.5,0 -1.2,0.3 -1,0.1 0.2,-0.2 0.1,-0.2 0,-0.4 -0.1,-0.2 -0.2,-0.3 -0.2,-0.4 0,-0.2 0,-0.4 0.1,-0.6 0,-0.3 0.2,-0.5 0.4,-0.7 0.3,-0.3 0.6,-0.5 1,-0.7 0.3,-0.1 0.7,-0.4 0.9,-0.3 0.2,0.1 0.5,-0.1 0.9,-0.2 0.4,-0.2 0.9,-0.3 1.4,-0.4 0.6,-0.1 1.2,-0.3 1.8,-0.6 0.3,-0.1 0.6,-0.1 0.9,-0.1 0.2,0 0.5,0 0.7,-0.1 l 1.1,-0.3 c 0.3,-0.1 0.7,-0.1 1,-0.1 l 0.4,0.3 0.3,-0.2 c 0.2,-0.1 0.4,-0.2 0.6,-0.2 h 0.9 l 0.5,-0.2 0.4,0.1 c 0,-0.2 0.2,-0.3 0.4,-0.3 h 0.1 c 0.5,0.2 1,0.2 1.5,0 0.3,-0.1 0.5,-0.2 0.8,-0.1 0,0 0.1,0.1 0.6,0.1 0.5,0 1.4,0.1 2.1,0.1 0.7,0 1.1,-0.1 1.2,0.1 0.1,0.2 0.6,0.2 0.6,0.2 h 1 c 0.5,0 1.1,0.1 1.1,0.2 0,0.1 0.2,0.3 0.4,0.2 0.3,0 0.6,0 0.9,0.1 l 0.4,0.4 c 0.2,0.1 0.4,0.2 0.5,0.3 0.1,0.2 0.2,0.4 0.1,0.7 -0.1,0.2 0.1,0.3 0.1,0.3 l -0.1,0.3 c -0.2,0 -0.3,0.1 -0.5,0.1 -0.2,0.1 -1,0.4 -1.2,0.5 -0.2,0.1 -0.6,-0.1 -1,0.1 -0.4,0.2 -0.6,0.5 -0.8,0.4 -0.2,-0.1 0,-0.2 -0.6,0 -0.4,0.1 -0.8,0.1 -1.2,0 h -0.9 c -0.2,0.1 -0.5,0.2 -0.8,0.2 -0.3,0 -0.9,0 -1,-0.3 -0.1,-0.3 0.1,-0.5 0,-0.6 0,-0.2 -0.1,-0.3 -0.1,-0.5 0,0 0.3,-0.3 0,-0.3 -0.3,0 -0.5,0.1 -0.7,0.1 -0.2,0 -0.2,-0.2 -0.7,-0.2 -0.5,0.1 -1.1,0.1 -1.6,0.1 -0.2,-0.1 0,-0.1 -0.7,0 -0.6,0 -1.2,0.2 -1.7,0.5 -1.4,0.5 -1.5,0.4 -2,0.7 -0.3,0.2 -0.6,0.3 -1,0.3 -0.4,0 -0.4,0.2 -0.7,0.3 -0.3,0.1 -0.2,0.3 -0.3,0.6 -0.1,0.3 -0.2,0.5 0,0.6 0.2,0.1 0.2,0.3 0.2,0.6 0,0.3 -0.3,1 -0.4,1.5 -0.1,0.5 -0.2,1 -0.2,1.4 -0.1,0.7 -0.3,1.3 -0.5,1.9 -0.1,0.3 -0.1,0.6 0,0.9 0,0.3 -0.1,0.5 -0.1,0.8 v 0.6 c 0.2,-0.1 0.3,-0.1 0.5,0 0.3,0.1 0.4,0.1 0.9,0 0.5,-0.1 1.2,-0.2 1.6,-0.3 0.4,-0.2 0.8,-0.2 1.2,-0.1 0.2,0 0.5,0 0.7,-0.1 0.1,0 0.2,-0.1 0.4,-0.1 0.3,-0.1 0.7,-0.1 0.7,-0.1 0,0 -0.2,0.4 0.2,0.3 0.3,-0.1 0.5,-0.2 0.7,-0.4 0,0 0,-0.3 0.2,-0.2 0.2,0.1 0.3,0.1 0.5,0.1 h 0.3 c 0.1,0 0.4,0 0.3,-0.2 -0.1,-0.2 0,-0.4 0.2,-0.2 0.2,0.1 0.4,0.2 0.6,0.2 0.1,-0.2 0.3,-0.3 0.5,-0.3 0.2,0 0.4,0 0.7,0.1 0.2,0 0.4,0 0.6,-0.1 0.4,-0.1 0.8,-0.1 1.2,-0.1 0.4,0.1 0.7,0.2 1.1,0.3 0.3,0 0.5,0.1 0.8,0.1 0.3,0 0.5,0.1 0.7,0.3 0.2,0.1 0.4,0.4 0.1,0.6 -0.3,0.2 -0.7,0.4 -0.6,0.3 0.1,-0.1 -0.3,0.2 -0.4,0.2 -0.1,0 -0.5,0.1 -0.6,0.1 -0.1,0 -0.4,0.4 -0.4,0.4 0,0.1 -0.1,0.2 -0.2,0.2 -0.2,0 -0.4,-0.1 -0.6,0 -0.5,0.3 -1,0.5 -1.5,0.7 -0.5,0.1 -0.4,0.2 -0.9,0.3 -0.5,0.1 -0.5,0.5 -0.8,0.3 -0.3,-0.2 -0.4,-0.3 -0.5,-0.1 -0.1,0.2 -0.3,0.5 -0.5,0.4 h -0.5 c -0.3,0.1 -0.7,0.1 -1,0.2 -0.4,0.1 -0.1,0.5 -0.4,0.5 -0.3,0 -1.2,0.2 -1.5,0.2 -0.3,0 -0.6,0 -0.9,0.1 -0.3,0.1 -0.6,0.1 -0.9,0.1 -0.4,0 -0.8,0.1 -1.1,0.2 -0.3,0.2 -0.7,0.2 -1,0.1 -0.2,0.1 -0.4,0.3 -0.3,0.6 0.1,0.4 0.2,0.7 -0.1,1 -0.2,0.3 -0.4,0.7 -0.5,1.1 0,0.3 0.2,0.5 0.1,0.7 -0.2,0.4 -0.3,0.8 -0.4,1.3 -0.1,0.4 -0.2,0.7 -0.1,0.9 0.1,0.2 0.1,0.1 0,0.4 -0.1,0.3 -0.5,0.9 -0.5,1.1 0,0.2 0.4,-0.7 0.3,0 -0.1,0.7 -0.2,1.2 -0.2,1.5 0,0.3 0.1,0.3 0,0.7 -0.1,0.4 -0.5,1 -0.2,1.2 0.2,0.2 0.4,0.5 0.5,0.8 0.1,0.3 -0.1,0.9 0.3,0.8 0.3,-0.1 0.5,0 0.7,0.2 0.2,0.2 0.6,0.4 0.9,0.4 0.2,-0.1 1,0 1.2,-0.1 0.8,-0.3 1.6,-0.6 2.4,-0.6 0.8,0 1,0 1,-0.2 0,-0.2 0.1,-0.3 0.4,-0.3 0.3,0 0.5,-0.1 0.7,-0.2 l 0.9,-0.3 c 0.2,-0.1 0.5,-0.2 0.7,-0.3 0.1,-0.1 0.2,-0.1 0.4,-0.2 0.4,0 0.8,-0.2 1,-0.5 0.2,-0.3 0.4,-0.5 0.7,-0.7 0.2,0 0.4,-0.2 0.6,-0.2 0.2,0 0.3,0.2 0.6,-0.1 0.3,-0.3 0.5,-0.6 0.8,-0.5 0.3,0.1 0,0.4 0.4,0.3 0.4,-0.1 0.7,0.1 0.7,0.3 0,0.4 0,0.7 -0.2,1 l -0.9,1.2 c -0.3,0.6 -0.2,0.8 -0.7,1 -0.5,0.3 -0.9,0.7 -1.2,1.2 -0.2,0.2 -0.7,0.2 -0.7,0 0,-0.2 0.3,-0.2 -0.5,0.3 -0.8,0.6 -1.8,1.1 -2.8,1.4 -1,0.3 -1.3,0.3 -2.3,0.6 -0.7,0.3 -1.4,0.5 -2.1,0.6 -0.9,0.2 -1.8,0.3 -2.8,0.4 -0.4,0 -0.7,-0.1 -1.1,-0.2 -0.2,-0.1 -0.4,-0.2 -0.7,-0.2 -0.4,-0.1 -0.9,-0.2 -0.8,-0.4 0.1,-0.2 0,-0.4 -0.2,-0.3 -0.2,0 -0.4,0.1 -0.7,0.1 -0.3,0.1 -0.6,0.2 -0.9,0.2 0,0 0.1,-0.3 -0.2,-0.3 -0.3,0 -0.8,0 -0.9,-0.2 -0.1,-0.2 -0.3,-0.7 -0.2,-0.9 0.1,-0.3 0,-0.7 -0.3,-0.9 -0.4,-0.3 -0.6,-0.1 -0.7,-0.5 0,-0.3 -0.1,-0.7 -0.2,-1 -0.1,-0.2 -0.1,-0.3 -0.2,-0.4 -0.1,-0.1 -0.2,-0.2 -0.2,-0.4 -0.2,-0.5 -0.2,-1 0,-1.5 0.2,-0.4 0.2,-0.8 0.2,-1.2 0,-0.2 0.2,-1.1 0.2,-1.5 0,-0.4 0.1,-1.2 0.2,-1.8 0.1,-0.6 0.1,-1.2 0.2,-1.4 0.1,-0.3 0.2,-0.6 0.2,-0.9 0,-0.2 0,-0.2 0.2,-0.5 0.2,-0.3 0.3,-0.7 0,-0.8 -0.3,-0.1 -0.5,0.3 -0.7,-0.1 -0.2,-0.5 -0.2,-1 0,-1.5 0.2,-0.3 0.2,-0.7 0.7,-1 0.5,-0.3 0.8,-0.3 0.8,-0.7 0,-0.4 0.3,-1.1 0.4,-1.6 0.1,-0.5 0.1,-1 0.2,-1.5 0.1,-0.5 0.5,-1.4 0.4,-1.6 -0.1,-0.2 -0.3,-0.3 0,-0.5 0.4,-0.4 0.7,-0.9 0.7,-1.5 0,-0.5 -0.2,-0.7 0.2,-1.1 0.2,-0.3 0.3,-0.6 0.2,-1 -0.2,-0.7 -0.2,-1 -0.2,-1.2"
         class="st1" />
      <path
         id="Path_26"
         d="m 371.8,53.1 c -0.1,0.1 -0.5,0.1 -0.7,0.1 -0.3,0.1 -0.6,0.3 -0.8,0.6 -0.4,0.3 -0.7,0.7 -1,1.1 -0.2,0.3 -0.4,0.1 -0.9,0.3 -0.5,0.2 -0.4,0.3 -0.7,0.6 -0.3,0.3 -0.2,0.2 -0.2,0.4 0,0.2 -0.3,0.6 -0.5,0.7 -0.2,0.1 -0.6,0.5 -0.9,1 -0.3,0.5 -0.4,0.6 -0.4,1 0,0.4 -0.4,0.3 -0.6,0.5 -0.4,0.3 -0.7,0.6 -1,1 -0.3,0.4 -0.1,0.3 -0.4,0.8 -0.3,0.5 -0.2,0.2 -0.3,0.3 -0.1,0.1 -0.1,0.5 -0.6,0.7 -0.5,0.2 -0.5,0.2 -0.6,0.5 -0.1,0.3 -0.2,0.7 -0.3,1 0,0.2 -0.1,0.4 -0.2,0.6 -0.1,0.1 -0.3,0.2 -0.3,0.3 0,0.1 -0.4,0.3 -0.7,0.4 -0.3,0.1 -0.6,0.6 -0.9,1 -0.2,0.3 -0.4,0.6 -0.4,1 -0.1,0.3 -0.3,0.6 -0.5,0.8 l -0.6,0.9 c -0.1,0.2 -0.1,0.4 -0.4,0.6 -0.3,0.1 -0.4,0.4 -0.4,0.7 -0.1,0.4 -0.3,0.7 -0.5,0.9 -0.3,0.4 -0.5,0.9 -0.7,1.3 -0.2,0.2 -0.2,0.5 -0.3,0.8 -0.1,0.4 -0.3,0.7 -0.6,1 -0.3,0.3 -0.3,0.6 -0.5,1.5 -0.2,0.9 0.4,0.3 0.6,0.1 0.2,-0.2 0.4,-0.3 0.6,-0.5 0.2,-0.2 0.2,-0.1 0.6,-0.1 0.3,-0.1 0.6,-0.2 0.8,-0.4 0.2,-0.2 0.5,-0.4 0.8,-0.5 0.4,-0.1 0.3,-0.1 0.5,0 0.2,0.1 0.2,0.1 0.4,0 0.2,-0.1 0.1,-0.2 0.4,-0.3 0.3,-0.1 0.3,0 0.4,-0.2 0.1,-0.2 0.2,-0.2 0.5,-0.3 0.3,-0.1 0.4,-0.2 0.4,-0.4 0.1,-0.2 0.3,-0.3 0.5,-0.4 0.2,-0.1 0.4,-0.5 0.4,-0.7 0,-0.2 0.2,-0.2 0.5,-0.1 0.3,0.1 0.7,-0.4 0.6,-0.7 -0.1,-0.3 0.4,-0.2 0.5,-0.4 0.1,-0.3 0.3,-0.5 0.5,-0.7 0.2,-0.2 0.4,-0.1 0.7,-0.2 0.5,-0.4 0.9,-0.8 1.2,-1.3 l 0.6,-0.9 c 0.4,-0.6 0.2,-0.4 0.5,-0.6 0.3,-0.2 0.4,-0.8 0.4,-1 0,-0.2 0.1,-0.2 0.4,-0.1 0.3,0.1 0.2,-0.1 0.2,-0.3 0,-0.2 0.1,-0.4 0.3,-0.5 0.2,-0.1 0.2,0 0.3,-0.2 0.1,-0.3 0.2,-0.5 0.4,-0.7 0.3,-0.3 0.5,-0.4 0.7,-0.7 l 0.3,-0.9 0.4,-0.1 c 0.1,-0.3 0.3,-0.6 0.5,-0.9 0.3,-0.5 0.4,-0.7 0.5,-0.9 0.1,-0.2 0.2,-0.4 0.2,-0.6 0,-0.2 0.3,-0.4 0.4,-0.8 l 0.2,-0.8 c 0.1,-0.2 0.2,-0.3 0.4,-0.5 0.2,-0.3 0.3,-0.6 0.3,-0.9 -0.1,-0.3 0.2,-0.5 0.3,-0.6 0.1,-0.3 0.2,-0.7 0.2,-1 0.1,-0.3 0.1,-0.6 0,-0.9 -0.1,-0.4 -0.1,-0.8 0,-1.2 0,-0.4 -0.2,-0.5 -0.4,-0.7 0,0 -0.2,-0.2 -0.2,-0.4 0,-0.2 -0.2,0 -0.5,0.2 m -21.1,-5.7 c 0.4,0 0.5,-0.1 1,-0.4 0.5,-0.3 0.5,0 1.4,-0.2 0.9,-0.2 0.7,0.1 1.5,0.4 0.3,0.1 0.7,0.2 1,0.3 0.3,0.1 0.3,0.2 0.3,0.2 0.1,0.2 0.2,0.4 0.2,0.6 0.2,0.4 0.2,0.9 -0.1,1.2 -0.4,0.4 -0.5,0.3 -0.9,0.5 -0.4,0.2 -0.3,0.1 -0.5,0.5 -0.2,0.4 -0.5,0.7 -0.8,0.9 -0.4,0.3 0,0.5 -0.1,0.9 -0.1,0.4 -0.7,0.4 -1.3,0.7 -0.6,0.3 -0.1,0.2 -0.2,0.4 -0.1,0.2 -0.3,0.2 -0.3,0.5 0,0.2 -0.2,0.5 -0.4,0.7 -0.3,0.4 -0.6,0.8 -0.8,1.2 -0.4,0.8 -0.8,1.5 -1.4,2.2 -0.5,0.9 -1,1.8 -1.4,2.8 -0.5,0.9 -0.9,1.9 -1.2,2.9 -0.4,1.2 -0.5,1.8 -0.8,2.7 -0.3,0.9 0.1,0.5 0.3,0.9 0.2,0.4 -0.5,1.2 -0.5,1.5 0,0.3 0.1,0.4 -0.1,0.9 -0.2,0.5 0.1,0.4 -0.1,0.9 -0.1,0.4 0,0.8 0.1,1.1 0,0 -0.2,0.3 0,1.1 0.2,0.8 0.2,0.3 0,0.5 -0.2,0.2 0,0.6 0,0.9 0,0.3 0.4,0.6 0.5,0.9 0.1,0.3 0.1,0.3 0.3,0.6 0.2,0.3 0.5,0 0.7,-0.1 0.2,-0.1 0.2,-0.2 0.6,-0.1 0.4,0.1 0.2,-0.4 0.4,-1.2 0.2,-0.8 0.8,-1.2 1.2,-1.8 0.4,-0.6 0.4,-0.4 0.4,-0.7 0.1,-0.5 0.4,-1 0.8,-1.4 0.3,-0.4 0.6,-0.8 0.9,-1.3 0.2,-0.3 0.1,-0.2 0.3,-0.3 0.2,-0.1 0.2,-0.5 0.4,-0.8 0.2,-0.3 0.4,-0.6 0.5,-0.9 0.1,-0.4 0.7,-0.9 0.8,-1.1 0.1,-0.2 0.2,0 0.3,-0.2 0.1,-0.2 0.2,-0.6 0.2,-0.6 l 0.1,-0.3 c 0.1,-0.2 0.1,-0.3 0.2,-0.5 0,-0.1 0.5,-0.5 0.9,-0.7 0.4,-0.2 0.4,-0.1 1,-1.2 0.6,-1.1 0.6,-1 0.9,-1.3 0.3,-0.3 0.3,-0.2 0.9,-1.2 0.6,-1 0.7,-0.9 1.1,-1.1 0.4,-0.2 0.3,-0.1 0.5,-0.1 0.1,-0.4 0.1,-0.7 0.3,-1.1 0.1,-0.3 0.5,-0.3 1,-0.8 0.5,-0.5 0.3,-0.4 0.3,-0.4 l 1.5,-1.5 c 1.2,-1.2 0.8,-0.7 1.3,-1.1 0.5,-0.4 0.3,-0.1 0.4,-0.4 0.1,-0.3 0.3,-0.4 0.8,-0.7 0.5,-0.3 0.5,-0.1 0.8,-0.5 0.4,-0.5 1,-0.9 1.6,-1.2 0.6,-0.3 0.7,-0.5 1.2,-0.8 0.4,-0.2 0.8,-0.2 1.2,-0.2 0.4,-0.1 1,-0.4 1.8,-0.5 0.6,-0.1 1.2,-0.1 1.7,0 0.9,0.1 0.9,0.1 1.1,0.4 0.2,0.3 0,0 0,0.4 0,0.4 0.2,0.1 0.4,0.6 0.1,0.3 0.2,0.7 0.4,0.9 0.1,0.2 0.1,0.4 -0.1,0.6 -0.2,0.3 -0.3,0.6 -0.3,1 0,0.5 0,1 -0.1,1.5 -0.2,0.5 -0.1,0.6 -0.5,1 -0.4,0.4 -0.2,0.6 -0.4,1 -0.2,0.4 0.1,0.3 0.1,0.8 0,0.5 -0.3,0.4 -0.3,0.5 -0.1,0.4 -0.2,0.7 -0.4,1 -0.2,0.3 -0.3,0.6 -0.3,0.9 0,0.1 -0.5,0.3 -0.5,0.3 l -0.1,0.5 c 0,0 -0.5,0.7 -0.7,1 -0.2,0.3 0,0.6 -0.1,0.9 -0.1,0.3 -0.2,0.3 -0.3,0.5 -0.3,0.4 -0.7,0.8 -1.1,1.1 -0.3,0.3 -0.4,0.6 -0.4,1 -0.1,0.2 -0.3,0.4 -0.5,0.6 -0.2,0.1 -0.2,0.3 -0.3,0.6 -0.1,0.3 -0.4,0.3 -0.5,0.6 -0.2,0.4 -0.5,0.8 -0.8,1.2 -0.3,0.3 -0.2,0.4 -0.2,0.5 -0.1,0.2 -0.2,0.3 -0.4,0.4 -0.2,0.1 -0.2,0.1 -0.4,0.5 -0.2,0.4 -0.6,0.4 -0.8,0.6 -0.2,0.2 -0.3,0.4 -0.4,0.7 -0.1,0.3 -0.3,0.5 -1,1.1 -0.7,0.6 -1.9,1.6 -2.3,2 -0.2,0.2 -0.4,0.4 -0.5,0.6 -0.1,0.2 -0.5,0.1 -0.6,0.4 -0.1,0.3 -0.7,0.4 -0.9,0.5 -0.2,0.1 -0.4,0.3 -0.6,0.6 -0.1,0.2 -1,0.7 -1,0.7 0,0 -0.5,0.2 -0.9,0.4 -0.3,0.1 -0.5,0.2 -0.8,0.4 -0.2,0.2 -0.5,0.2 -0.6,0.2 -0.2,0.1 -0.3,0.2 -0.5,0.3 h -0.4 c -0.2,-0.1 -0.2,0 -0.6,0.2 -0.4,0.2 -0.4,0.4 -0.7,0.7 -0.3,0.3 -0.4,0.1 -0.7,0.3 -0.3,0.2 -0.8,0.4 -1.2,0.4 -0.4,0 -0.2,0.4 -0.3,0.9 -0.1,0.5 -0.4,0.6 -0.7,1.3 -0.2,0.5 -0.5,0.9 -0.8,1.3 0,0 -0.1,0.9 -0.1,1.2 0,0.3 -0.5,1 -0.6,1.3 -0.1,0.3 -0.5,0.7 -0.4,1.1 0.1,0.4 -0.3,1.2 -0.4,1.4 -0.1,0.3 -0.2,0.6 -0.2,0.9 0,0.5 -0.1,1 -0.3,1.5 -0.1,0.5 -0.2,1.1 -0.3,1.6 -0.2,0.4 -0.3,0.9 -0.4,1.3 -0.1,0.6 0,0.9 -0.2,1.3 -0.2,0.5 -0.2,1 -0.2,1.4 0,0.5 -0.1,0.9 0.1,1.1 0.2,0.2 0.1,0.4 -0.1,1.1 -0.1,0.4 -0.2,0.8 -0.1,1.2 0,0.3 0.1,0.5 0.3,0.8 0.1,0.2 0.2,0.2 0.3,0.4 0.1,0.2 -0.5,0.5 -0.7,0.6 -0.2,0.1 0,0.4 -0.2,1.1 -0.2,0.7 0,0.9 0.2,0.9 0.2,0 0.1,0.3 0,0.7 -0.1,0.6 0,1.2 0.1,1.8 0.2,0.7 -0.2,0.8 -0.2,1 0,0.2 0.2,0.3 0.4,0.7 0.1,0.4 0.1,0.8 0,1.1 0,0.1 -0.3,0.7 -0.4,1.2 -0.1,0.5 0.1,0.4 0.2,1.1 0.1,0.7 0,1.6 0,1.9 0,0.2 0.1,0.4 0.1,0.6 0,0.1 -0.3,0.2 -0.4,0.3 -0.1,0.1 -0.1,0.3 -0.1,0.5 0,0.1 -0.4,0.3 -0.5,0.5 -0.2,0.2 -0.4,0.4 -0.7,0.6 -0.1,0.2 -0.1,-0.2 0,-0.3 0.1,-0.1 -0.6,0.2 -0.9,0.4 -0.3,0.2 -0.4,-0.1 -0.8,-0.1 -0.4,0 -0.6,-0.3 -0.8,-0.4 -0.2,-0.1 -0.4,-0.2 -0.9,-0.4 -0.5,-0.2 -0.4,-0.5 -0.4,-0.5 -0.2,0 -0.4,0 -0.6,0.1 -0.2,0.1 -0.4,0 -0.7,-0.1 -0.3,-0.1 -0.8,-0.4 -0.8,-0.4 -0.2,0 -0.4,0 -0.5,-0.1 -0.2,-0.1 -0.1,-0.9 -0.1,-1.2 0,-0.3 0,-0.6 -0.1,-0.8 -0.2,-0.3 -0.4,-0.6 -0.8,-0.8 -0.3,-0.2 -0.3,-0.8 -0.4,-0.9 -0.1,-0.1 -0.2,-0.2 -0.3,-0.2 0,0 -0.6,-0.9 -0.8,-1.1 -0.1,-0.2 -0.3,-0.4 -0.4,-0.6 -0.1,-0.3 -0.3,-0.2 -0.3,-0.2 0,0 -0.2,-0.4 0.2,-0.5 0.4,-0.1 0.4,-0.4 0.7,-0.4 h 0.6 c 0.3,-0.1 0.7,-0.2 1,-0.4 0.5,-0.1 0.4,0.2 0.6,0.3 0.2,0.1 0.2,0 0.5,-0.1 0.2,-0.2 0.3,-0.4 0.4,-0.7 v -0.7 c 0.1,-0.3 0.2,-0.5 0.2,-0.8 0,-0.2 -0.1,-0.3 -0.1,-0.7 0,-0.3 0,-0.5 -0.1,-0.8 0,-0.2 0.1,-0.4 0.4,-0.4 0.2,0 0,-0.4 0,-0.6 0,-0.2 0.4,-0.1 0.4,-0.5 0,-0.4 0.1,-0.4 0.1,-0.6 0.1,-0.4 0.1,-0.7 -0.1,-1.1 -0.2,-0.7 0,-0.8 0,-1.3 0,-0.5 0.4,-0.4 0.3,-0.8 -0.1,-0.4 0.2,-0.7 0.4,-1.5 0.2,-0.8 -0.5,-0.9 -0.5,-1.1 -0.1,-0.3 0,-0.6 0.2,-0.8 0.3,-0.2 0.4,-0.6 0.3,-0.9 0,-0.3 -0.1,-0.2 -0.3,-0.1 -0.2,0.1 0.1,-0.3 0.1,-0.3 0.1,-0.1 0.1,-0.3 0.1,-0.4 0,-0.2 0.2,-0.2 0.4,-0.4 0.2,-0.2 0,-1 0,-1.2 0,-0.2 0.2,-0.4 0.5,-0.4 0.2,0 0.2,-0.4 0.2,-0.5 0,-0.1 0.1,-0.7 0.1,-0.9 0,-0.2 -0.3,-0.2 -0.3,-0.4 0.1,-0.4 0.2,-0.9 0.4,-1.3 0.1,-0.2 0.1,-0.4 0.1,-0.6 0,-0.2 0.1,-0.4 0.2,-0.6 0.2,-0.3 0.3,-0.6 0.3,-0.9 0,-0.4 1,-2.6 1.1,-3.3 0.1,-0.7 0.1,-0.4 0.3,-1.2 0.2,-0.8 0,-0.7 -0.1,-1.1 -0.1,-0.4 -0.2,-0.4 -0.4,-0.3 -0.2,0.1 -0.2,-0.6 -0.2,-0.7 l -0.6,-0.6 c -0.2,-0.1 -0.5,-0.1 -0.7,-0.1 -0.2,0.1 -0.2,0 -0.3,-0.2 -0.1,-0.1 -0.2,-0.2 -0.3,-0.2 V 76 c 0,-0.3 -0.2,-0.2 -0.6,-0.3 -0.4,-0.1 -0.3,-0.7 -0.3,-0.9 0,-0.1 -0.1,-0.3 -0.2,-0.3 -0.2,-0.1 -0.1,-0.1 -0.1,-0.3 0,-0.2 -0.1,-0.4 -0.2,-0.5 -0.2,-0.1 -0.2,-0.4 -0.2,-0.5 0,-0.1 -0.2,-0.6 -0.4,-0.6 -0.2,0 -0.4,-0.6 -0.4,-1 0,-0.4 -0.1,-0.9 -0.1,-1.1 0,-0.2 -0.2,-0.3 -0.5,-0.9 -0.3,-0.6 0.1,-1.8 0.2,-2 0,-0.2 0,-0.3 -0.1,-0.5 0,-0.2 0.1,-0.4 0.3,-0.9 0.1,-0.4 0.1,-0.8 0.2,-1.2 0,-0.1 -0.1,-0.3 -0.2,-0.4 -0.1,-0.1 0,-0.7 0.2,-0.9 0.2,-0.3 0.4,-0.6 0.5,-0.9 0.1,-0.2 -0.1,-0.3 -0.1,-0.4 -0.1,-0.2 -0.2,-0.4 -0.1,-0.6 0.1,-0.3 0.5,-0.6 0.6,-1 0.2,-0.3 0.3,-0.7 0.4,-1.1 0,-0.2 0.1,-0.3 0.2,-0.5 0.2,-0.2 0.2,-0.9 0.4,-1.3 0.2,-0.4 0.5,-0.8 0.7,-1.2 0.4,-0.5 0.6,-1.1 0.9,-1.4 0.3,-0.3 0.2,-0.2 0.5,-0.2 0.3,0 0.1,-0.5 0.1,-0.5 -0.1,-0.2 -0.1,-0.5 -0.1,-0.8 0.1,-0.3 0.4,-0.5 0.5,-0.7 0.2,-0.4 0.5,-0.8 0.9,-1.1 0.5,-0.3 0.9,-0.9 1.1,-1.5 0.3,-0.7 0.1,-0.4 0.4,-0.4 0.3,0 0.4,-0.5 0.4,-0.6 0.1,-0.4 0.4,-0.8 0.8,-1 0.4,-0.3 0.2,-0.6 0.4,-1.1 0.2,-0.3 0.5,-0.6 0.8,-0.8 1,0.1 1.3,0 1.7,0.1"
         class="st1" />
      <path
         id="Path_27"
         d="m 258.6,23.5 c -0.2,0.4 -0.2,0.8 -0.2,1.3 0,0.3 -0.1,0.7 -0.3,1 -0.2,0.2 -0.3,0.6 -0.5,0.8 -0.4,0.2 -0.7,0.5 -0.9,0.8 -0.1,0.3 -0.3,0.6 -0.5,0.8 -0.4,0.4 -0.7,0.8 -0.6,0.9 0.1,0.1 0.1,0.3 -0.2,0.5 l -0.9,0.9 c -0.3,0.4 -0.3,0.1 -0.7,0.6 -0.4,0.5 -0.1,0.7 -0.9,1 -0.4,0.2 -0.7,0.5 -1,0.8 -0.2,0.1 -0.5,0.1 -0.6,0.2 -0.2,0.3 -0.4,0.6 -0.7,0.7 -0.4,0.2 -0.7,0.4 -1,0.8 -0.3,0.3 -0.1,0.2 -0.8,0.4 -0.7,0.2 -1.2,0.1 -1.5,0.2 -0.3,0 -0.6,0.1 -0.8,0.3 0,0.2 -0.2,0.4 -0.4,0.4 -0.4,0.1 -0.5,0.3 -0.6,0.2 -0.1,-0.1 -0.3,-0.3 -0.4,-0.1 -0.1,0.2 -0.9,0.2 -1,0.3 -0.3,0 -0.6,0 -0.9,0.1 -0.2,0.2 -0.6,-0.1 -0.6,-0.2 -0.1,-1.1 0,-2.3 0.3,-3.3 0.4,-0.8 0.6,-1.6 0.8,-2.4 0,-0.2 0.1,-0.2 0.3,-0.5 0.2,-0.5 0.3,-1 0.4,-1.5 0.1,-0.4 0.3,-0.9 0.6,-1.3 0.3,-0.3 0.4,-0.7 0.5,-1.1 0,-0.4 0.2,-0.7 0.4,-1 0.2,-0.4 0.4,-0.8 0.5,-1.2 0.1,-0.4 0,-0.5 0.4,-0.8 0.4,-0.3 0.6,-0.5 0.6,-0.9 0,-0.4 0.1,0.1 0.6,-0.5 0.2,-0.2 0.6,-0.3 0.9,-0.2 0.3,0.1 0.5,0.1 0.8,0.1 0.2,-0.1 0.2,0 0.4,-0.1 0.2,-0.1 0.3,-0.2 0.4,-0.4 l 0.4,-0.4 c 0.2,-0.1 0.3,-0.3 0.5,-0.5 0,0 0.2,-0.3 -0.1,-0.3 -0.3,0 -0.3,-0.1 -0.5,-0.2 -0.2,-0.1 -0.4,-0.3 -0.6,-0.4 -0.2,-0.1 -0.3,-0.4 -0.1,-0.6 l 0.1,-0.1 c 0.2,-0.2 0.6,-0.4 0.6,-0.7 0,-0.3 0,-0.4 0.4,-0.5 0.4,-0.1 0.8,0.1 0.9,-0.2 0.1,-0.3 -0.2,-0.5 0.2,-0.7 0.4,-0.2 0.6,-0.4 0.9,-0.6 0.3,-0.2 0.2,-0.1 0.7,-0.1 h 1 c 0.1,-0.1 0.1,-0.3 0.6,-0.1 0.5,0.1 1,0.4 1.3,0.7 0.2,0.3 0.2,0.5 0.4,0.7 0.3,0.1 0.5,0.3 0.5,0.6 0.1,0.4 0.1,0.6 0.3,0.8 0.2,0.2 0.4,0.2 0.4,0.4 0,0.2 0.1,0.3 0.1,0.8 0,0.4 0.1,0.9 0.2,1.3 0.2,0.3 0.3,0.1 0.3,0.6 0,0.6 -0.1,1.2 -0.4,1.9 z m -16.7,-1 c 0,0.2 -0.3,0.6 -0.5,1 -0.2,0.4 -0.4,0.8 -0.5,1.2 0,0.2 -0.1,0.5 -0.4,0.5 -0.2,0.2 -0.3,0.4 -0.4,0.6 -0.1,0.4 -0.2,0.8 -0.4,1.2 -0.2,0.3 -0.3,0.7 -0.4,1.1 L 239,29 c -0.1,0.4 -0.5,1.1 -0.7,1.5 -0.2,0.4 -0.3,0.9 -0.5,0.9 -0.2,0 -0.3,-0.4 -0.3,-0.4 -0.1,-0.4 -0.1,-0.8 -0.1,-1.3 v -1.2 c 0,-0.2 0,-0.4 -0.1,-0.5 0,-0.4 0,-0.7 0.1,-1.1 0.1,-0.2 0,-0.5 -0.1,-0.7 -0.2,0 -0.1,-0.6 -0.1,-1.1 0.1,-0.4 0.3,-0.8 0.6,-1.1 0.3,-0.4 0.5,-0.2 0.6,-0.4 0.1,-0.2 0,-0.9 -0.1,-1.2 -0.1,-0.3 0.2,-0.4 0.4,-0.7 0.2,-0.3 0.2,-0.4 0.5,-0.5 0.3,-0.1 0.4,-0.1 0.5,-0.4 0.1,-0.3 0.7,-0.5 1,-0.8 0.3,-0.3 0.3,0 0.5,0 0.2,0 0.2,-0.1 0.3,-0.2 0.1,-0.2 0.3,-0.2 0.4,-0.2 0.2,0 0.3,-0.3 0.4,-0.4 0.1,-0.1 0.6,0 0.8,0 0.2,0 0.5,-0.6 0.7,-0.8 0.2,-0.2 0.5,-0.2 0.6,-0.1 0.1,0.1 -0.2,0.4 -0.2,0.4 -0.2,0.1 -0.4,0.3 -0.6,0.5 -0.1,0.2 -0.3,0.4 -0.4,0.6 -0.2,0.3 -0.4,0.7 -0.7,0.9 -0.3,0.2 -0.6,0.9 -0.7,1.1 -0.1,0.2 0.2,0.5 0.1,0.7 z m 18.3,2.6 c 0.4,-0.9 0.7,-1.8 0.6,-2.8 -0.1,-0.8 0.1,-1.5 -0.2,-2.2 -0.2,-0.4 -0.4,-0.8 -0.5,-1.2 -0.2,-0.7 -0.5,-1.4 -0.9,-2 -0.6,-0.9 -0.6,-1.1 -1,-1.5 -0.5,-0.4 -1.1,-0.7 -1.7,-0.8 -0.5,-0.2 -1.1,-0.3 -1.6,-0.4 -0.8,-0.2 -1.2,-0.4 -1.5,-0.2 -0.3,0.2 -0.4,0.1 -0.8,0.2 -0.3,0.1 -0.7,0.2 -1,0.4 -0.5,0.3 -0.4,0.5 -1.1,0.4 -0.7,-0.1 -1.3,-0.4 -1.8,0.4 -0.5,0.8 -0.7,1 -1,1.1 -0.3,0.1 -0.5,0.3 -0.6,0.4 -0.1,0.1 -0.3,0.4 -0.4,0.4 -0.1,0 -0.6,-0.1 -0.8,-0.1 -0.1,0 -0.2,0.1 -0.3,0.2 -0.1,0.1 -0.3,0.2 -0.4,0.1 -0.2,-0.1 -0.5,-0.2 -0.8,-0.3 -0.3,0.1 -0.6,0.1 -0.9,0.1 -0.5,0 -0.9,0 -1.4,0.1 -0.3,0 -0.6,0.1 -0.9,0.2 -0.1,0.2 -0.3,0.3 -0.5,0.2 -0.2,-0.1 -0.4,-0.1 -0.7,0 -0.4,0.1 -0.3,0.3 -0.5,0.4 -0.2,0.1 -0.2,0.1 -0.4,0.1 -0.3,0.1 -0.6,0.1 -0.9,0.2 0,0 -0.1,0.1 -0.5,0.3 -0.4,0.2 -1.1,0.3 -1,0.5 0.1,0.2 0,0.4 -0.4,0.5 -0.4,0.1 -1,0.2 -1.2,0.4 -0.2,0.2 -0.4,0.4 -0.6,0.4 -0.3,0.1 -0.5,0.1 -0.5,0.3 0,0.2 -1.8,1.9 -2,2.4 -0.2,0.5 -0.5,0.8 -0.5,0.9 0,0.2 -0.1,0.4 -0.2,0.5 -0.3,0.4 -0.5,1 -0.5,1.5 0,0.5 0.1,1 0.1,1.8 -0.1,0.7 0,1.4 0.1,2.1 l 0.3,0.9 c 0.1,0.5 0.2,1.1 0.5,1.6 0.4,0.5 0.6,0.9 0.8,0.9 0.2,0 0.4,0.1 0.6,0.2 0.2,0.1 0.3,0.3 0.3,0.5 0,0.2 0,0.5 0.2,0.3 0.2,-0.2 0.6,0.3 0.5,0.7 -0.1,0.4 0,0.5 0.2,0.4 0.2,-0.1 0.3,-0.4 0.4,-0.2 0.1,0.2 0.3,0.2 0.4,0.1 0.3,-0.1 0.7,-0.1 1,0.1 0.3,0.3 0.4,0.6 0.7,0.6 0.3,0 0.5,-0.2 0.7,0 0.2,0.3 0.5,0.5 0.9,0.7 0.3,0.1 0.1,0.1 0.6,0.4 0.5,0.3 0.4,0.1 0.6,0.7 0.1,0.3 0.2,0.6 0.4,0.8 0,0 0.4,0.3 0.5,0.5 0.1,0.2 0.1,0.4 0.3,0.4 0.2,0 0.3,0.3 0.4,0.6 0.1,0.3 -0.2,0.2 0.7,0.9 0.9,0.7 1.3,0.9 1.2,0.6 -0.1,-0.3 -0.2,-0.6 -0.4,-0.9 -0.2,-0.2 -0.2,-0.5 -0.5,-0.8 -0.3,-0.3 -0.1,-0.4 -0.3,-0.5 -0.2,-0.1 -0.2,0 -0.3,-0.2 -0.1,-0.2 0,-0.7 0,-0.8 0,-0.1 0.1,-0.7 0.3,-0.7 0.3,0 0.5,0.1 0.8,0.3 0.1,0.1 0.4,0.3 0.5,0.2 h 0.7 c 0.2,0.1 0.4,0.1 0.6,0.1 0.4,-0.1 0.6,-0.1 0.5,-0.2 -0.1,-0.1 -0.3,-0.3 -0.1,-0.4 0.1,-0.1 0.3,-0.2 0.4,-0.2 0.1,-0.1 0.9,-0.3 1.2,0 0.3,0.3 0.6,0.4 1,0.3 0.3,-0.2 0.7,-0.3 1,-0.2 l 0.8,0.1 c 0.2,0 0.6,0 0.6,-0.2 0.1,-0.3 0.2,-0.5 0.5,-0.7 0.2,-0.1 0.6,-0.4 0.8,-0.3 0.2,0.1 0.6,0.1 0.7,-0.1 0.1,-0.2 0.3,-0.2 0.6,-0.2 0.2,0 0.5,0.1 0.5,-0.2 0,-0.3 0.4,-0.4 0.6,-0.7 0.2,-0.3 0.1,-0.2 0.5,-0.4 0.4,-0.3 0.7,-0.7 1,-1.1 0.1,-0.2 0.3,-0.3 0.5,-0.3 v -0.5 c 0,-0.1 -0.7,-0.2 -0.2,-0.5 0.5,-0.3 0.3,-0.4 0.7,-0.6 0.3,-0.2 0.6,-0.4 0.9,-0.7 0.7,-0.6 1.3,-1.2 1.8,-2 0.4,-0.6 1,-1 1,-1.3 0,-0.3 -0.3,-0.2 0.2,-1 0.5,-0.8 0.5,-0.8 0.5,-1 0,-0.2 -0.5,-0.8 -0.4,-1"
         class="st1" />
    </g>
  </g>
  <path
     d="m 26.18219,139.92038 v 12.49698 c 0,2.16196 0.33744,3.84523 1.00839,5.0498 1.2595,2.20513 3.65296,3.3116 7.17252,3.3116 3.52348,0 5.9091,-1.10647 7.16075,-3.3116 0.67096,-1.20457 1.00447,-2.88784 1.00447,-5.0498 v -12.49698 h -4.31607 v 12.49698 c 0,1.40076 -0.1648,2.42093 -0.49438,3.06441 -0.51793,1.13788 -1.63619,1.71074 -3.35477,1.71074 -1.72643,0 -2.8486,-0.57286 -3.36653,-1.71074 -0.3296,-0.64348 -0.49439,-1.66365 -0.49439,-3.0644 v -12.497 z m 8.18091,0 z M 49.6616,153.979 h -4.0571 c 0,2.11487 0.7612,3.7746 2.27967,4.9831 1.51455,1.21242 3.59804,1.81667 6.24653,1.81667 2.59357,0 4.6025,-0.61602 6.02288,-1.84414 1.42038,-1.2242 2.13057,-2.77013 2.13057,-4.62604 0,-1.81275 -0.60817,-3.19782 -1.8206,-4.15128 -0.78081,-0.61602 -1.94223,-1.1104 -3.4764,-1.4753 l -3.50386,-0.8436 c -1.35367,-0.32175 -2.2365,-0.60033 -2.6485,-0.83968 -0.64348,-0.36098 -0.96523,-0.90245 -0.96523,-1.62833 0,-0.79259 0.32567,-1.40861 0.977,-1.84806 0.65526,-0.44338 1.52633,-0.6631 2.62104,-0.6631 0.98485,0 1.80882,0.16871 2.47193,0.51007 0.9927,0.514 1.52632,1.38507 1.59694,2.60534 h 4.08458 c -0.07455,-2.15804 -0.86714,-3.80599 -2.37777,-4.94386 -1.51454,-1.13395 -3.34299,-1.70289 -5.48533,-1.70289 -2.5661,0 -4.50833,0.60033 -5.83454,1.8049 -1.32229,1.2085 -1.9854,2.71913 -1.9854,4.53972 0,1.99717 0.68273,3.46463 2.05603,4.4024 0.80828,0.56108 2.27182,1.07901 4.3867,1.5577 l 2.15018,0.48262 c 1.2595,0.27466 2.1855,0.59248 2.77406,0.95346 0.58855,0.3649 0.88283,0.88675 0.88283,1.5577 0,1.14965 -0.59248,1.9344 -1.78136,2.35815 -0.62387,0.21973 -1.44,0.3296 -2.44054,0.3296 -1.67542,0 -2.85646,-0.41592 -3.54703,-1.2556 -0.37667,-0.45907 -0.62779,-1.15356 -0.75727,-2.07955 z m 4.12382,-14.67857 z m 15.76935,4.15128 h 3.91585 c 1.93046,0 3.22136,0.55324 3.86877,1.66365 0.6474,1.10648 0.97308,2.69558 0.97308,4.76337 0,1.49885 -0.2158,2.79367 -0.64741,3.87662 -0.7926,1.97754 -2.18943,2.96631 -4.19444,2.96631 h -3.91585 z m 7.77677,-3.08795 c -0.83575,-0.27859 -1.88338,-0.42376 -3.14288,-0.44338 h -8.76162 v 20.33261 h 8.76162 c 3.07225,0 5.34408,-1.26343 6.81546,-3.79422 1.08295,-1.87552 1.62442,-4.16304 1.62442,-6.86647 0,-1.06725 -0.12556,-2.18942 -0.38453,-3.36653 -0.25896,-1.17711 -0.74158,-2.27183 -1.44784,-3.28414 -0.88283,-1.25166 -2.0364,-2.11095 -3.46463,-2.57787 z m 16.27943,-0.44338 v 20.33261 H 97.57 v -14.44314 l 8.30254,14.44314 h 4.24937 v -20.33261 h -3.95901 v 14.19595 l -8.09852,-14.19595 z m 8.41241,-0.0392 z m 21.13305,16.3736 c -0.61602,0.81613 -1.49885,1.22812 -2.6485,1.22812 -1.14964,0 -2.03247,-0.41199 -2.65242,-1.22812 -0.62386,-0.82005 -0.93384,-1.98147 -0.93384,-3.49209 0,-1.5067 0.30998,-2.66812 0.93384,-3.48425 0.61995,-0.8122 1.50278,-1.22027 2.65243,-1.22027 1.14964,0 2.03247,0.40807 2.6485,1.22027 0.61601,0.81613 0.92599,1.97755 0.92599,3.48425 0,1.51062 -0.30998,2.67204 -0.926,3.4921 z m 3.14681,2.1698 c 1.26736,-1.56555 1.903,-3.45285 1.903,-5.66189 0,-2.1698 -0.63564,-4.04926 -1.903,-5.64228 -1.27128,-1.5891 -3.19781,-2.38561 -5.77961,-2.38561 -2.58572,0 -4.51225,0.79651 -5.77961,2.3856 -1.27128,1.59303 -1.903,3.47248 -1.903,5.64229 0,2.20904 0.63172,4.09634 1.903,5.6619 1.26736,1.56948 3.1939,2.35422 5.77961,2.35422 2.5818,0 4.50833,-0.78474 5.77961,-2.35422 z m -5.77961,-13.60738 z m 8.94996,3.33907 h 2.09918 v 9.256 c 0,0.93777 0.21973,1.63226 0.6631,2.08349 0.6788,0.70626 1.94616,1.028 3.806,0.96523 l 1.85983,-0.0706 v -2.93885 c -0.12556,0.0118 -0.25897,0.0196 -0.39237,0.0235 -0.1334,0.004 -0.25897,0.008 -0.37668,0.008 -0.80043,0 -1.27912,-0.0785 -1.43607,-0.2315 -0.15695,-0.1491 -0.23542,-0.53362 -0.23542,-1.14964 v -7.9455 h 2.44054 v -2.80152 h -2.44054 v -4.1905 h -3.88839 v 4.1905 h -2.09918 z m 14.99638,-4.73199 v -3.62942 h -3.98648 v 3.62942 z m -3.98648,1.79313 V 160.253 h 3.98648 v -15.03562 z m 16.77382,5.3951 h 4.02572 c -0.21973,-2.14235 -0.92992,-3.63728 -2.13057,-4.4848 -1.20066,-0.8436 -2.74267,-1.26735 -4.62605,-1.26735 -2.21689,0 -3.95508,0.71803 -5.2146,2.15019 -1.2595,1.43607 -1.89122,3.445 -1.89122,6.0268 0,2.29144 0.57286,4.1552 1.71074,5.58735 1.1418,1.43607 2.91923,2.1541 5.34015,2.1541 2.417,0 4.24152,-0.85928 5.47356,-2.58179 0.77297,-1.06724 1.20458,-2.19727 1.29875,-3.394 h -4.01395 c -0.0824,0.7926 -0.31782,1.43608 -0.70234,1.93439 -0.38844,0.49438 -1.03978,0.7455 -1.96185,0.7455 -1.29482,0 -2.17765,-0.6278 -2.6485,-1.87945 -0.25504,-0.67095 -0.38452,-1.55771 -0.38452,-2.66027 0,-1.1575 0.12948,-2.0874 0.38452,-2.78583 0.49047,-1.31444 1.39292,-1.97362 2.71913,-1.97362 0.92992,0 1.61264,0.30213 2.05602,0.9103 0.30212,0.45123 0.49046,0.95738 0.56501,1.51847 z m -2.6642,-5.79531 z m 13.2111,4.09634 c 0.49832,-0.56894 1.20458,-0.85537 2.11488,-0.85537 0.83967,0 1.53809,0.27074 2.1031,0.80829 0.56894,0.53754 0.88284,1.3262 0.94561,2.36599 h -6.1092 c 0.12949,-0.977 0.44338,-1.74605 0.94562,-2.31891 z m 5.4971,-3.394 c -1.00446,-0.46692 -2.13056,-0.70234 -3.38222,-0.70234 -2.1031,0 -3.81776,0.6945 -5.13612,2.08348 -1.32229,1.389 -1.98147,3.38615 -1.98147,5.98757 0,2.77798 0.73373,4.78299 2.19335,6.01503 1.46354,1.23204 3.15073,1.84806 5.06157,1.84806 2.3189,0 4.11988,-0.73373 5.41078,-2.19335 0.82398,-0.92207 1.2909,-1.82844 1.39292,-2.71912 h -4.01395 c -0.21188,0.44338 -0.45515,0.78866 -0.73373,1.03586 -0.50616,0.45907 -1.16142,0.69057 -1.9697,0.69057 -0.76512,0 -1.41646,-0.18834 -1.96185,-0.56894 -0.89068,-0.60425 -1.36545,-1.66365 -1.42038,-3.17035 h 10.29187 c 0.0196,-1.29874 -0.0236,-2.29144 -0.12556,-2.98201 -0.17264,-1.17711 -0.55717,-2.20904 -1.14572,-3.10365 -0.65134,-1.00839 -1.47924,-1.74997 -2.47978,-2.22081 z m -3.10364,-0.70234 z m 17.66842,-4.86931 v 20.30514 h 4.2219 v -8.5262 h 8.9225 v -3.53133 h -8.9225 v -4.67312 h 10.19378 v -3.5745 z m 25.29217,4.9164 c -0.051,-0.004 -0.11378,-0.004 -0.18441,-0.004 -1.17711,0 -2.1345,0.30605 -2.87215,0.92207 -0.45122,0.36882 -0.977,1.05547 -1.58517,2.05602 v -2.62104 h -3.75106 V 160.253 h 3.95901 v -7.1843 c 0,-1.2085 0.1491,-2.09917 0.45515,-2.67988 0.54147,-1.028 1.6048,-1.54201 3.18605,-1.54201 0.1177,0 0.27466,0.004 0.46692,0.0118 0.19618,0.0118 0.4159,0.0275 0.6631,0.0549 v -4.02572 c -0.17264,-0.0118 -0.28643,-0.0157 -0.33744,-0.0235 z m 10.93143,8.07889 v 1.46354 c -0.0275,1.31444 -0.3963,2.22081 -1.1104,2.7152 -0.71412,0.49831 -1.49101,0.7455 -2.33853,0.7455 -0.53362,0 -0.98485,-0.1491 -1.3576,-0.4473 -0.37275,-0.2982 -0.55717,-0.78474 -0.55717,-1.4557 0,-0.75334 0.30213,-1.3105 0.9103,-1.67149 0.35706,-0.21188 0.94954,-0.38844 1.77744,-0.53754 l 0.88283,-0.1648 c 0.44338,-0.0824 0.78866,-0.17264 1.0437,-0.26681 0.25112,-0.0981 0.50224,-0.22365 0.74943,-0.3806 z m -2.3856,-1.8363 -1.33799,0.1648 c -1.51847,0.19619 -2.66812,0.51793 -3.44893,0.96916 -1.4243,0.8279 -2.13842,2.16588 -2.13842,4.01394 0,1.4243 0.44338,2.52687 1.33014,3.30376 0.88675,0.7769 2.01285,1.16534 3.37438,1.16534 1.06724,0 2.02463,-0.24327 2.86822,-0.73374 0.7102,-0.41198 1.33406,-0.91422 1.87553,-1.50277 0.0275,0.34136 0.0667,0.64348 0.10987,0.9103 0.0471,0.2668 0.12948,0.55324 0.25111,0.85536 h 4.27683 v -0.5807 c -0.25896,-0.11772 -0.45122,-0.27074 -0.5807,-0.45515 -0.12948,-0.1805 -0.20796,-0.5297 -0.23542,-1.04763 -0.0196,-0.6788 -0.0275,-1.25951 -0.0275,-1.7382 v -6.89394 c 0,-1.81275 -0.63956,-3.0448 -1.91869,-3.70005 -1.2752,-0.65134 -2.73874,-0.977 -4.3867,-0.977 -2.52686,0 -4.31214,0.65918 -5.35192,1.98539 -0.65134,0.84752 -1.02017,1.92654 -1.10256,3.24098 h 3.79421 c 0.0902,-0.58071 0.27466,-1.03978 0.55325,-1.37722 0.38452,-0.463 1.0437,-0.69057 1.9697,-0.69057 0.8279,0 1.45569,0.1177 1.88337,0.3492 0.42768,0.23543 0.64349,0.66311 0.64349,1.27913 0,0.50616 -0.28251,0.87499 -0.8436,1.11433 -0.3139,0.14126 -0.83182,0.25504 -1.5577,0.34529 z m 0.20795,-6.28968 z m 28.3605,0.45515 c -0.64348,-0.25504 -1.29874,-0.38453 -1.95792,-0.38453 -0.99662,0 -1.89515,0.20404 -2.70736,0.61995 -0.7612,0.41199 -1.40076,1.06332 -1.91476,1.94615 -0.29428,-0.73765 -0.72589,-1.33798 -1.29875,-1.80882 -0.70626,-0.50616 -1.63618,-0.75728 -2.78582,-0.75728 -1.21243,0 -2.2012,0.29428 -2.96632,0.88284 -0.4316,0.32959 -0.89068,0.88675 -1.37722,1.66757 v -2.19335 h -3.82168 v 15.00815 h 3.98647 v -9.04805 c 0,-0.82005 0.10594,-1.43607 0.31782,-1.84806 0.38453,-0.72589 1.13788,-1.0908 2.26006,-1.0908 0.96523,0 1.61656,0.36491 1.94615,1.0908 0.18441,0.40414 0.27466,1.05155 0.27466,1.94615 v 8.94996 h 3.95901 v -8.94996 c 0,-0.67487 0.10594,-1.24773 0.31782,-1.72642 0.41592,-0.90246 1.16534,-1.34976 2.24828,-1.34976 0.93777,0 1.58125,0.34921 1.93046,1.04763 0.18442,0.3649 0.27859,0.83575 0.27859,1.40468 v 9.57383 h 4.02571 l 0.0275,-9.47573 c 0,-0.977 -0.0432,-1.71466 -0.13733,-2.22082 -0.14518,-0.76512 -0.4316,-1.4086 -0.85537,-1.93046 -0.52185,-0.64348 -1.10648,-1.09471 -1.74997,-1.35367 z m 10.17416,3.64119 c 0.4983,-0.56894 1.20457,-0.85537 2.11487,-0.85537 0.83575,0 1.5381,0.27074 2.1031,0.80829 0.56502,0.53754 0.88284,1.3262 0.94562,2.36599 h -6.1092 c 0.12948,-0.977 0.44337,-1.74605 0.9456,-2.31891 z m 5.4971,-3.394 c -1.00447,-0.46692 -2.13057,-0.70234 -3.38223,-0.70234 -2.10703,0 -3.81776,0.6945 -5.13612,2.08348 -1.32229,1.389 -1.98147,3.38615 -1.98147,5.98757 0,2.77798 0.7298,4.78299 2.19335,6.01503 1.46354,1.23204 3.15073,1.84806 5.06157,1.84806 2.3189,0 4.11988,-0.73373 5.40686,-2.19335 0.8279,-0.92207 1.29482,-1.82844 1.39684,-2.71912 h -4.01395 c -0.21188,0.44338 -0.45907,0.78866 -0.73373,1.03586 -0.50616,0.45907 -1.16142,0.69057 -1.97362,0.69057 -0.7612,0 -1.41646,-0.18834 -1.95793,-0.56894 -0.89068,-0.60425 -1.36545,-1.66365 -1.42038,-3.17035 h 10.29187 c 0.0157,-1.29874 -0.0236,-2.29144 -0.12556,-2.98201 -0.17264,-1.17711 -0.55717,-2.20904 -1.14572,-3.10365 -0.65134,-1.00839 -1.47924,-1.74997 -2.47978,-2.22081 z m -3.10365,-0.70234 z m 16.59333,0.40021 -2.16588,10.78626 -2.34637,-10.78626 h -4.2219 l 4.2219,15.03562 h 4.08457 l 2.3856,-10.95104 2.35815,10.95104 h 4.04141 l 4.35923,-15.03562 h -4.09634 l -2.34637,10.82942 -2.28752,-10.82942 z m 24.27593,11.03737 c -0.61602,0.81613 -1.49885,1.22812 -2.6485,1.22812 -1.14964,0 -2.03247,-0.41199 -2.65242,-1.22812 -0.62386,-0.82005 -0.93384,-1.98147 -0.93384,-3.49209 0,-1.5067 0.30998,-2.66812 0.93384,-3.48425 0.61995,-0.8122 1.50278,-1.22027 2.65242,-1.22027 1.14965,0 2.03248,0.40807 2.6485,1.22027 0.61602,0.81613 0.926,1.97755 0.926,3.48425 0,1.51062 -0.30998,2.67204 -0.926,3.4921 z m 3.14681,2.1698 c 1.26735,-1.56555 1.903,-3.45285 1.903,-5.66189 0,-2.1698 -0.63565,-4.04926 -1.903,-5.64228 -1.27128,-1.5891 -3.19782,-2.38561 -5.77961,-2.38561 -2.58572,0 -4.51226,0.79651 -5.77961,2.3856 -1.27128,1.59303 -1.903,3.47248 -1.903,5.64229 0,2.20904 0.63172,4.09634 1.903,5.6619 1.26735,1.56948 3.1939,2.35422 5.77961,2.35422 2.5818,0 4.50833,-0.78474 5.77961,-2.35422 z m -5.77961,-13.60738 z m 18.84945,0.0471 c -0.051,-0.004 -0.11378,-0.004 -0.18833,-0.004 -1.17711,0 -2.13057,0.30605 -2.86823,0.92207 -0.45122,0.36882 -0.977,1.05547 -1.58517,2.05602 v -2.62104 h -3.75106 V 160.253 h 3.95901 v -7.1843 c 0,-1.2085 0.1491,-2.09917 0.45515,-2.67988 0.54147,-1.028 1.6048,-1.54201 3.18605,-1.54201 0.1177,0 0.27466,0.004 0.46692,0.0118 0.19618,0.0118 0.4159,0.0275 0.6631,0.0549 v -4.02572 c -0.17264,-0.0118 -0.28643,-0.0157 -0.33744,-0.0235 z m 2.60142,-4.87323 v 20.26198 h 3.86092 v -4.73198 l 1.62833,-1.69504 3.59804,6.42702 h 4.74767 l -5.46179,-9.21284 5.25384,-5.75215 h -4.86931 l -4.89678,5.65405 v -10.95104 z"
     id="path11" />
</svg>
