<?xml version="1.0" standalone="no"?>
<!DOCTYPE svg PUBLIC "-//W3C//DTD SVG 20010904//EN"
 "http://www.w3.org/TR/2001/REC-SVG-20010904/DTD/svg10.dtd">
<svg version="1.0" xmlns="http://www.w3.org/2000/svg"
 width="133.000000pt" height="43.000000pt" viewBox="0 0 133.000000 43.000000"
 preserveAspectRatio="xMidYMid meet">

<g transform="translate(0.000000,43.000000) scale(0.100000,-0.100000)"
fill="#000000" stroke="none">
<path d="M40 215 l0 -215 216 0 c193 0 215 2 210 16 -3 9 -6 16 -6 17 0 1 -24
0 -54 -1 -51 -4 -55 -2 -77 30 -20 28 -25 48 -29 137 l-5 103 -79 28 c-76 27
-115 57 -116 88 0 7 -13 12 -30 12 l-30 0 0 -215z m143 60 c17 -8 36 -15 44
-15 10 0 13 -21 13 -90 0 -53 -4 -90 -10 -90 -5 0 -10 5 -10 12 0 6 -3 8 -7 5
-3 -4 -12 -2 -20 4 -7 6 -13 9 -13 5 0 -3 -21 2 -46 12 l-46 19 0 61 c1 114
-2 105 34 98 17 -3 45 -13 61 -21z"/>
</g>
</svg>
