<svg id="Layer_1" data-name="Layer 1" xmlns="http://www.w3.org/2000/svg" viewBox="0 0 648 312.55751"><defs><style>.cls-1{fill:#2291d0;}.cls-2{fill:#d1d2d4;}.cls-3{fill:#35c6f2;}.cls-4{fill:#7dd2f6;}.cls-5{fill:#fcfdfe;}.cls-6{fill:#fefefe;}</style></defs><title>USD</title><path class="cls-1" d="M186.24269,299.16219c-13.64761-4.62211-27.21312-9.18886-40.76022-13.80953q-65.60126-22.37544-131.221-44.696c-4.03-1.36154-5.60619-3.00276-5.59267-7.55418q.27766-93.5334.1254-187.068c.00008-5.26855.01758-5.30744,4.94589-3.61928Q98.57181,71.47381,183.40233,100.5358c2.01318.68905,3.31571,1.3923,3.312,4.028q-.13584,96.514-.09874,193.02833A8.21168,8.21168,0,0,1,186.24269,299.16219ZM42.02538,90.3357a6.61362,6.61362,0,0,0-.4053,1.3286q-.04656,59.59379-.12108,119.18746c-.00545,2.35094,1.05443,3.09847,3.00188,3.76q51.96888,17.65209,103.88,35.4733c3.41687,1.17784,3.81491.09928,3.81018-2.90372q-.09063-57.761.02842-115.52207c.00816-3.03412-1.11618-4.18253-3.85121-5.0826-12.74292-4.19361-25.4069-8.6268-38.10354-12.96129C87.62637,105.88683,64.98485,98.16768,42.02538,90.3357Z"/><path class="cls-2" d="M538.06121,148.06743c.00006-16.191.08276-32.38274-.06641-48.57235-.0317-3.44145.70018-4.81614,4.52114-4.75741,15.11829.23235,30.29185-.65886,45.35152.31321,20.20539,1.30422,37.61492,8.96533,46.86831,28.33927,14.27682,29.89169,1.45737,66.841-34.91463,75.99656a93.63359,93.63359,0,0,1-22.57027,2.74314c-10.84477.041-21.68976.0119-32.5347.00986-6.65261-.00126-6.65423-.00369-6.65468-6.874Q538.0599,171.66657,538.06121,148.06743Zm30.2479-.00023c0,7.94581.09094,15.89322-.04945,23.83655-.04894,2.7702.85916,3.6395,3.6608,3.74679a93.27707,93.27707,0,0,0,14.56533-1.042c12.04439-1.4251,20.64407-8.301,22.97349-22.28217,1.94422-11.66972-4.39839-23.6512-14.2028-28.221-7.45308-3.4739-15.227-2.36714-22.941-2.757-3.351-.16934-4.13566,1.18187-4.064,4.25788C568.42592,133.08967,568.30827,140.5798,568.30911,148.0672Z"/><path class="cls-3" d="M226.0983,229.84472c-8.9318-3.0068-17.133-5.835-25.38455-8.50747-2.73837-.88688-2.12782-2.96625-2.12964-4.84879q-.03018-31.40354-.01271-62.80714c0-18.7963-.07837-37.59325.07726-56.38827.02584-3.122-.886-4.43476-3.89066-5.45855C159.96613,79.98,125.24588,67.91531,90.464,56.03124c-3.29948-1.12734-4.97124-2.397-4.73446-6.331.42157-7.00413.301-14.05858.04336-21.07864-.13366-3.64145.62569-4.40525,4.22268-3.13469,18.11926,6.40019,36.31735,12.57736,54.492,18.82053,25.67252,8.81875,51.33193,17.67645,77.04416,26.37792,3.30555,1.11866,4.69713,2.44647,4.68324,6.316-.177,49.35877-.11665,98.71838-.11667,148.07777Z"/><path class="cls-2" d="M321.47958,132.8126c0-12.82809.11818-23.07038-.06613-33.30722-.06185-3.43419.676-4.93175,4.51907-4.76579,7.17005.30961,14.36883.2607,21.54381.01478,3.46442-.11874,4.412,1.01542,4.38417,4.41956-.15108,18.49219-.02243,36.98652-.11751,55.47946a32.85079,32.85079,0,0,0,1.35269,9.45575c2.76765,9.40469,11.32624,13.94244,22.68822,12.3545,8.21913-1.14868,13.84277-7.92433,14.62012-16.86071,1.72468-19.826.45061-39.67754.69209-59.51382.05093-4.18387,1.0894-5.563,5.35217-5.35611,7.16655.3479,14.36328.1686,21.54495.058,2.50441-.03855,3.54072.72323,3.53011,3.3786-.07882,19.7158.41242,39.44655-.21038,59.143-.41021,12.9747-3.65935,25.34085-13.87026,34.71872-6.41588,5.89244-14.1001,8.87712-22.45438,10.54905a66.93306,66.93306,0,0,1-36.82659-2.5876c-14.94378-5.46524-22.85528-16.69167-25.6541-31.82931C320.18541,155.60378,322.13744,142.86542,321.47958,132.8126Z"/><path class="cls-2" d="M476.33544,92.99332c16.05339-.30242,29.54441,3.00726,41.69284,11.4077,2.74139,1.89562,2.94623,3.45027,1.187,5.90251-3.64277,5.07788-7.28633,10.15719-10.81061,15.31716-1.4365,2.10314-2.59183,2.17633-4.79811.78829-8.78889-5.52934-18.24051-9.09894-28.87261-8.64833-4.96083.21022-8.75647,2.52457-8.892,6.24747-.158,4.34021,3.03423,6.29689,6.70942,7.59154,9.34993,3.29366,19.29438,4.45831,28.56883,8.03032a52.24659,52.24659,0,0,1,14.90551,8.71049c11.89415,9.90871,9.66944,31.93636.81845,41.66829-7.65681,8.41885-17.33074,11.94176-28.2884,13.1643-18.25485,2.0367-35.01464-2.09686-50.63125-11.55362-8.1647-4.94423-8.27806-5.46-1.8871-12.65438,2.62774-2.95806,5.25944-5.94049,7.577-9.13817,2.1719-2.99665,3.91108-3.76766,7.348-1.29094,10.08537,7.26777,21.40239,10.84417,33.99018,9.88931a12.8264,12.8264,0,0,0,5.65228-1.58595c4.49163-2.60606,4.59332-8.01166.12711-10.65947-6.16-3.65193-13.24782-4.40908-19.99386-6.21981-9.1498-2.45592-18.34216-4.8834-25.84629-11.07316-14.00431-11.55142-12.27465-36.661,3.18861-47.59649C457.09381,94.91625,463.98978,92.9926,476.33544,92.99332Z"/><path class="cls-4" d="M265.46932,102.209q0,27.04062-.00426,54.08122c-.00316,5.1968-.089,5.27161-5.11628,3.5778-6.35776-2.142-12.63432-4.54617-19.05718-6.46484-3.27736-.979-4.08864-2.72162-4.07434-5.94159.11622-26.12347-.04034-52.24854.17382-78.37077.03393-4.13991-1.3613-5.76084-5.14075-7.022C211.28027,55.07158,190.4275,47.7235,169.47978,40.658c-4.21222-1.42076-6.48641-3.22011-5.99788-8.29692a132.07055,132.07055,0,0,0,.06387-19.23089c-.21884-4.33951,1.15159-4.75,4.89451-3.444,27.63974,9.64395,55.34147,19.11,82.99792,28.70636,4.57667,1.588,10.55362,1.79022,13.22759,5.49069,2.5615,3.54477.74039,9.16652.76962,13.86938C265.5275,72.57086,265.46934,87.39009,265.46932,102.209Z"/><path class="cls-5" d="M42.02538,90.3357c22.95947,7.832,45.601,15.55113,68.23931,23.27964,12.69664,4.33449,25.36062,8.76768,38.10354,12.96129,2.735.90007,3.85937,2.04848,3.85121,5.0826Q152.064,189.42,152.191,247.1813c.00473,3.003-.39331,4.08156-3.81018,2.90372q-51.88847-17.88633-103.88-35.4733c-1.94745-.66149-3.00733-1.409-3.00188-3.76q.13811-59.59355.12108-119.18746A6.61362,6.61362,0,0,1,42.02538,90.3357Zm12.43328,66.09916c0,14.36155.02687,28.72318-.027,43.08454-.00877,2.33737.32028,3.86176,3.01214,4.76691q39.02286,13.12131,77.92749,26.59244c3.10749,1.07514,3.6799.19008,3.6743-2.70006q-.0838-43.31364.026-86.62736c.00875-2.64942-1.00912-3.72727-3.35847-4.52359q-38.77409-13.14241-77.47959-26.48609c-3.14141-1.086-3.86376-.40554-3.83358,2.80912C54.53481,127.71105,54.45858,142.07331,54.45866,156.43486Z"/><path class="cls-6" d="M568.30866,148.0672c-.00039-7.4874.11726-14.97753-.05717-22.46086-.07168-3.076.713-4.42722,4.064-4.25788,7.714.38981,15.48793-.71695,22.941,2.757,9.80441,4.56981,16.147,16.55129,14.2028,28.221-2.32942,13.98114-10.9291,20.85707-22.97349,22.28217a93.27707,93.27707,0,0,1-14.56533,1.042c-2.80164-.10729-3.70974-.97659-3.6608-3.74679C568.40005,163.96042,568.30911,156.013,568.30866,148.0672Z"/><path class="cls-4" d="M54.45862,156.43486c0-14.36155.07619-28.72381-.05864-43.08409-.03018-3.21466.69217-3.89513,3.83358-2.80912q38.69369,13.37679,77.47959,26.48609c2.34935.79632,3.36722,1.87417,3.35847,4.52359q-.14321,43.31335-.026,86.62736c.0056,2.89014-.56681,3.7752-3.6743,2.70006q-38.907-13.46113-77.92749-26.59244c-2.69186-.90515-3.02091-2.42954-3.01214-4.76691C54.48553,185.158,54.45866,170.79641,54.45862,156.43486Z"/></svg>