<?xml version="1.0" encoding="UTF-8" standalone="no"?>
<svg
   xmlns:dc="http://purl.org/dc/elements/1.1/"
   xmlns:cc="http://creativecommons.org/ns#"
   xmlns:rdf="http://www.w3.org/1999/02/22-rdf-syntax-ns#"
   xmlns:svg="http://www.w3.org/2000/svg"
   xmlns="http://www.w3.org/2000/svg"
   viewBox="0 0 840.65332 246.77333"
   height="246.77333"
   width="840.65332"
   xml:space="preserve"
   id="svg2"
   version="1.1"><metadata
     id="metadata8"><rdf:RDF><cc:Work
         rdf:about=""><dc:format>image/svg+xml</dc:format><dc:type
           rdf:resource="http://purl.org/dc/dcmitype/StillImage" /></cc:Work></rdf:RDF></metadata><defs
     id="defs6" /><g
     transform="matrix(1.3333333,0,0,-1.3333333,0,246.77333)"
     id="g10"><g
       transform="scale(0.1)"
       id="g12"><path
         id="path14"
         style="fill:#100f0d;fill-opacity:1;fill-rule:evenodd;stroke:none"
         d="m 1591.43,1103.49 h -335.44 c -31.25,0 -33.34,32.54 -33.34,32.54 0,21.54 18.23,34.39 34.38,34.39 h 301.41 c 0,6.26 0.44,91.83 0.44,96.36 -46.18,37.5 -100.44,60.61 -178.57,60.61 -45.09,0 -99.6,-10.03 -149.32,-28.83 -42.7,-16.15 -79.52,-41.8 -94.27,-56 -16.67,-16 -32.08,-34.13 -42.46,-59.37 -7.83,-19.03 -7.65,-33.93 -8.33,-55.21 -1.38,-42.73 10.59,-106.72 16.15,-135.167 5.54,-28.504 34.11,-173.192 34.11,-173.192 4.14,-29 -19.48,-42.332 -37.7,-39.832 H 851.797 c -13.024,0 -32.035,12.723 -32.035,32.793 0,20.047 17.441,34.129 32.301,34.129 h 210.697 c -1.32,7.019 -28.65,145.309 -30.23,154.169 -1.56,8.85 -7.56,44.53 -8.85,55.48 -1.3,10.93 -14.32,102.08 9.89,156.26 14.02,31.33 31.77,52.93 50.53,71.61 22.57,22.44 47.37,40.02 78.92,56.77 8.33,4.44 94.79,51.84 217.19,53.39 130.73,1.67 208.09,-64.07 228.41,-81.77 16.51,-14.41 17.19,-22.41 17.19,-32.56 0,-10.15 -1.31,-119.54 -1.31,-140.11 0,-20.57 -12.5,-36.46 -33.07,-36.46 z M 1128.12,556.551 c -85.93,-8.551 -232.573,-6.512 -283.1,-1.031 -38.543,4.179 -35.938,64.851 5.656,62.941 126.574,-5.82 188.864,-4.922 278.504,1.211 14.05,0.976 28.28,-13.5 29.4,-29.531 1.08,-15.411 -9.27,-31.461 -30.46,-33.59 z M 965.156,1850.77 c -191.98,0 -368.879,-64.49 -510.328,-172.91 l 0.676,-0.63 c 38.875,-28.49 177.793,-156.96 209.039,-187.52 31.25,-30.56 56.957,-72.22 65.977,-87.5 9.023,-15.3 90.281,-148.62 112.507,-243.07 22.223,-94.46 -7.636,-147.93 -158.347,-129.88 -150.7,18.06 -311.836,86.8 -356.981,113.2 -45.125,26.39 -121.527,82.64 -165.277,115.28 0,0 -0.098,0.06 -0.113,0.07 -23.95,-78.02 -36.86,-160.87 -36.86,-246.75 0,-463.74 375.946,-839.701 839.707,-839.701 10.891,0 21.664,0.391 32.442,0.813 82.132,18.207 129.412,96.898 103.432,171.098 -14.6,41.652 -63.39,61.46 -101.581,65.109 -31.289,2.98 -48.437,2.601 -77.09,-5.731 -41.011,-11.898 -51.031,46.364 -24.468,57.313 73.961,30.449 184.909,10.949 239.079,-54.699 63.79,-77.25 23.66,-185.801 -2.9,-216.891 382.81,78.149 670.79,416.777 670.79,822.689 0,463.76 -375.94,839.71 -839.704,839.71" /><path
         id="path16"
         style="fill:#100f0d;fill-opacity:1;fill-rule:evenodd;stroke:none"
         d="m 389.871,1185.16 c 47.359,-21.88 178.484,-71.51 290.289,-87.5 0,0 87.516,-13.53 101.055,2.09 13.543,15.63 -19.797,95.51 -25.692,109.73 -5.906,14.23 -51.734,118.07 -97.925,181.27 -8.387,11.48 -17.825,28.27 -32.285,43.07 -64.59,65.97 -172.293,158.92 -185.094,169.43 -15.614,12.87 -64.992,55.47 -64.992,55.47 0,0 -112.45,96.64 -143.008,110.53 -28.094,12.77 -108.356,-4.18 -184.7424,-112.87 C -17.4453,1564.01 -0.09375,1485.2 9.63281,1466.45 28.3945,1445.61 199.926,1312.28 229.086,1291.09 c 29.172,-21.18 118.781,-86.47 160.785,-105.93" /><path
         id="path18"
         style="fill:#100f0d;fill-opacity:1;fill-rule:nonzero;stroke:none"
         d="m 5978.38,1230.3 c -105.19,40.28 -145.7,49.11 -366.81,71.97 -216.03,20.96 -265.2,28.03 -335.35,43.81 -42.11,10.61 -65.08,29.81 -65.08,61.49 0,4.95 0.82,9.66 1.94,14.26 l 944.41,0.12 c -18.73,50.53 -52.66,110.25 -107.02,164.79 -115.85,115.79 -319.63,171.97 -625.13,171.97 -489.84,0 -747.92,-140.41 -747.92,-405.56 0,-144.06 79.04,-247.6 224.75,-293.31 94.76,-31.55 240.59,-59.59 368.57,-71.965 l 173.92,-15.785 c 180.82,-17.434 213.45,-37.281 212.56,-83.996 -0.24,-14.258 -5,-27.332 -13.95,-38.883 l -1882.28,0.25 v 143.711 h 725.13 v 298.488 h -725.13 v 129.93 h 911.66 v 298.49 H 2879.67 l -210.73,-491.55 c -36.87,-85.99 -60.75,-151.01 -76.53,-261.737 h -1.42 c -12.28,93.047 -44.94,194.947 -74.74,261.737 l -219.53,491.55 H 1806.9 L 2326.58,550.969 h 524.97 L 3311.58,1633.27 V 550.969 h 1379.86 v 241.48 c 22.73,-71.148 62.54,-104.961 91.4,-130.879 119.57,-107.769 324.7,-147.468 633.73,-147.468 526.83,0 777.84,131.687 777.84,410.769 0,147.339 -71.97,250.999 -216.03,305.429" /><path
         id="path20"
         style="fill:#100f0d;fill-opacity:1;fill-rule:nonzero;stroke:none"
         d="m 1961.36,79.1016 h -42.9 L 1818.23,360.672 h 43.29 l 79.95,-240.621 84.24,240.621 h 39.39 L 1961.36,79.1016" /><path
         id="path22"
         style="fill:none;stroke:#100f0d;stroke-width:10;stroke-linecap:butt;stroke-linejoin:miter;stroke-miterlimit:4;stroke-dasharray:none;stroke-opacity:1"
         d="m 1961.36,79.1016 h -42.9 L 1818.23,360.672 h 43.29 l 79.95,-240.621 84.24,240.621 h 39.39 z" /><path
         id="path24"
         style="fill:#100f0d;fill-opacity:1;fill-rule:nonzero;stroke:none"
         d="m 2131.79,274.879 h 36.66 V 79.1016 h -36.66 z m -3.9,85.019 h 44.07 V 319.73 h -44.07 v 40.168" /><path
         id="path26"
         style="fill:none;stroke:#100f0d;stroke-width:10;stroke-linecap:butt;stroke-linejoin:miter;stroke-miterlimit:4;stroke-dasharray:none;stroke-opacity:1"
         d="m 2131.79,274.879 h 36.66 V 79.1016 h -36.66 z m -3.9,85.019 h 44.07 V 319.73 h -44.07 z" /><path
         id="path28"
         style="fill:#100f0d;fill-opacity:1;fill-rule:nonzero;stroke:none"
         d="m 2277.26,137.211 c -0.39,-14.82 7.41,-35.492 42.9,-35.492 15.21,0 26.52,2.73 34.32,12.48 3.9,5.071 6.24,11.699 6.24,18.332 0,19.11 -13.65,22.61 -42.9,29.25 -40.95,9.36 -75.27,17.539 -75.27,58.5 0,35.879 31.2,59.278 76.44,59.278 24.57,0 58.89,-7.02 70.59,-30.418 5.07,-10.922 5.07,-20.282 5.07,-28.469 h -37.44 c 1.17,29.637 -24.57,31.969 -37.83,31.969 -5.46,0 -39.78,0 -39.78,-28.071 0,-17.941 17.55,-22.23 27.69,-24.961 54.21,-12.871 65.91,-15.988 77.61,-26.91 10.92,-10.14 14.82,-23.801 14.82,-36.269 0,-21.84 -12.09,-40.5589 -26.52,-49.5316 -17.16,-10.5273 -37.83,-13.2578 -58.11,-13.2578 -39.78,0 -76.83,16.3789 -76.44,63.5704 h 38.61" /><path
         id="path30"
         style="fill:none;stroke:#100f0d;stroke-width:10;stroke-linecap:butt;stroke-linejoin:miter;stroke-miterlimit:4;stroke-dasharray:none;stroke-opacity:1"
         d="m 2277.26,137.211 c -0.39,-14.82 7.41,-35.492 42.9,-35.492 15.21,0 26.52,2.73 34.32,12.48 3.9,5.071 6.24,11.699 6.24,18.332 0,19.11 -13.65,22.61 -42.9,29.25 -40.95,9.36 -75.27,17.539 -75.27,58.5 0,35.879 31.2,59.278 76.44,59.278 24.57,0 58.89,-7.02 70.59,-30.418 5.07,-10.922 5.07,-20.282 5.07,-28.469 h -37.44 c 1.17,29.637 -24.57,31.969 -37.83,31.969 -5.46,0 -39.78,0 -39.78,-28.071 0,-17.941 17.55,-22.23 27.69,-24.961 54.21,-12.871 65.91,-15.988 77.61,-26.91 10.92,-10.14 14.82,-23.801 14.82,-36.269 0,-21.84 -12.09,-40.5589 -26.52,-49.5316 -17.16,-10.5273 -37.83,-13.2578 -58.11,-13.2578 -39.78,0 -76.83,16.3789 -76.44,63.5704 z" /><path
         id="path32"
         style="fill:#100f0d;fill-opacity:1;fill-rule:nonzero;stroke:none"
         d="M 2501.12,274.879 V 148.898 c 0,-19.097 4.29,-43.277 41.73,-43.277 18.33,0 35.48,6.238 46.02,21.84 8.19,11.699 8.19,26.91 8.19,36.66 v 110.758 h 37.82 V 115.762 c 0,-3.903 0.78,-25.7425 1.17,-36.6604 h -38.21 l -0.78,33.5394 c -7.03,-13.6527 -20.28,-35.4926 -62.41,-35.4926 -48.36,0 -70.97,27.6916 -70.97,66.3006 v 131.43 h 37.44" /><path
         id="path34"
         style="fill:none;stroke:#100f0d;stroke-width:10;stroke-linecap:butt;stroke-linejoin:miter;stroke-miterlimit:4;stroke-dasharray:none;stroke-opacity:1"
         d="M 2501.12,274.879 V 148.898 c 0,-19.097 4.29,-43.277 41.73,-43.277 18.33,0 35.48,6.238 46.02,21.84 8.19,11.699 8.19,26.91 8.19,36.66 v 110.758 h 37.82 V 115.762 c 0,-3.903 0.78,-25.7425 1.17,-36.6604 h -38.21 l -0.78,33.5394 c -7.03,-13.6527 -20.28,-35.4926 -62.41,-35.4926 -48.36,0 -70.97,27.6916 -70.97,66.3006 v 131.43 z" /><path
         id="path36"
         style="fill:#100f0d;fill-opacity:1;fill-rule:nonzero;stroke:none"
         d="m 2816.24,175.43 c -14.83,0 -70.6,0 -70.6,-39.782 0,-12.476 7.8,-33.929 40.57,-33.929 18.71,0 32.75,7.41 41.72,21.062 8.19,13.258 8.58,24.18 9.36,51.481 -6.63,0.777 -12.08,1.168 -21.05,1.168 z m 25.34,-96.3284 c -2.73,9.75 -3.51,19.1093 -3.51,29.2504 -17.55,-32.3715 -44.07,-35.4926 -60.45,-35.4926 -44.85,0 -69.03,25.3515 -69.03,57.7226 0,15.598 5.46,40.559 34.33,57.328 21.05,11.699 52.26,12.871 67.85,12.871 9.36,0 15.21,-0.39 26.52,-1.172 0,24.18 0,34.7 -7.02,43.289 -7.41,9.743 -23.39,12.872 -33.93,12.872 -37.05,0 -39,-25.348 -39.39,-33.149 h -36.66 c 1.17,10.141 2.34,23.777 13.66,37.051 14.81,16.367 42.51,21.058 63.17,21.058 28.47,0 58.89,-8.968 69.42,-28.871 6.24,-11.699 6.63,-21.05 6.63,-30.027 l -1.56,-93.594 c 0,-3.117 0.39,-29.2497 3.12,-49.1364 h -33.15" /><path
         id="path38"
         style="fill:none;stroke:#100f0d;stroke-width:10;stroke-linecap:butt;stroke-linejoin:miter;stroke-miterlimit:4;stroke-dasharray:none;stroke-opacity:1"
         d="m 2816.24,175.43 c -14.83,0 -70.6,0 -70.6,-39.782 0,-12.476 7.8,-33.929 40.57,-33.929 18.71,0 32.75,7.41 41.72,21.062 8.19,13.258 8.58,24.18 9.36,51.481 -6.63,0.777 -12.08,1.168 -21.05,1.168 z m 25.34,-96.3284 c -2.73,9.75 -3.51,19.1093 -3.51,29.2504 -17.55,-32.3715 -44.07,-35.4926 -60.45,-35.4926 -44.85,0 -69.03,25.3515 -69.03,57.7226 0,15.598 5.46,40.559 34.33,57.328 21.05,11.699 52.26,12.871 67.85,12.871 9.36,0 15.21,-0.39 26.52,-1.172 0,24.18 0,34.7 -7.02,43.289 -7.41,9.743 -23.39,12.872 -33.93,12.872 -37.05,0 -39,-25.348 -39.39,-33.149 h -36.66 c 1.17,10.141 2.34,23.777 13.66,37.051 14.81,16.367 42.51,21.058 63.17,21.058 28.47,0 58.89,-8.968 69.42,-28.871 6.24,-11.699 6.63,-21.05 6.63,-30.027 l -1.56,-93.594 c 0,-3.117 0.39,-29.2497 3.12,-49.1364 z" /><path
         id="path40"
         style="fill:#100f0d;fill-opacity:1;fill-rule:nonzero;stroke:none"
         d="m 2971.84,360.289 h 36.66 V 79.1016 h -36.66 V 360.289" /><path
         id="path42"
         style="fill:none;stroke:#100f0d;stroke-width:10;stroke-linecap:butt;stroke-linejoin:miter;stroke-miterlimit:4;stroke-dasharray:none;stroke-opacity:1"
         d="m 2971.84,360.289 h 36.66 V 79.1016 h -36.66 z" /><path
         id="path44"
         style="fill:#100f0d;fill-opacity:1;fill-rule:nonzero;stroke:none"
         d="m 3254.97,360.672 h 176.68 V 327.531 H 3293.97 V 239.77 h 131.04 v -32.75 h -131.04 v -93.598 h 140.79 V 79.1016 H 3254.97 V 360.672" /><path
         id="path46"
         style="fill:none;stroke:#100f0d;stroke-width:10;stroke-linecap:butt;stroke-linejoin:miter;stroke-miterlimit:4;stroke-dasharray:none;stroke-opacity:1"
         d="m 3254.97,360.672 h 176.68 V 327.531 H 3293.97 V 239.77 h 131.04 v -32.75 h -131.04 v -93.598 h 140.79 V 79.1016 h -179.79 z" /><path
         id="path48"
         style="fill:#100f0d;fill-opacity:1;fill-rule:nonzero;stroke:none"
         d="m 3612.22,333.379 c -6.25,0.391 -14.05,0.781 -21.45,0.781 -29.65,0 -29.65,-14.828 -29.65,-28.469 v -30.812 h 45.63 v -26.52 h -45.63 V 79.1016 h -36.27 V 248.359 h -38.61 v 26.52 h 38.61 v 22.23 c 0,26.911 1.57,36.661 8.19,46.789 8.2,12.493 23.79,21.461 49.14,21.461 10.53,0 22.22,-1.558 30.04,-2.73 v -29.25" /><path
         id="path50"
         style="fill:none;stroke:#100f0d;stroke-width:10;stroke-linecap:butt;stroke-linejoin:miter;stroke-miterlimit:4;stroke-dasharray:none;stroke-opacity:1"
         d="m 3612.22,333.379 c -6.25,0.391 -14.05,0.781 -21.45,0.781 -29.65,0 -29.65,-14.828 -29.65,-28.469 v -30.812 h 45.63 v -26.52 h -45.63 V 79.1016 h -36.27 V 248.359 h -38.61 v 26.52 h 38.61 v 22.23 c 0,26.911 1.57,36.661 8.19,46.789 8.2,12.493 23.79,21.461 49.14,21.461 10.53,0 22.22,-1.558 30.04,-2.73 z" /><path
         id="path52"
         style="fill:#100f0d;fill-opacity:1;fill-rule:nonzero;stroke:none"
         d="m 3766.26,333.379 c -6.25,0.391 -14.04,0.781 -21.45,0.781 -29.64,0 -29.64,-14.828 -29.64,-28.469 v -30.812 h 45.62 v -26.52 h -45.62 V 79.1016 H 3678.9 V 248.359 h -38.62 v 26.52 h 38.62 v 22.23 c 0,26.911 1.56,36.661 8.18,46.789 8.2,12.493 23.79,21.461 49.14,21.461 10.53,0 22.23,-1.558 30.04,-2.73 v -29.25" /><path
         id="path54"
         style="fill:none;stroke:#100f0d;stroke-width:10;stroke-linecap:butt;stroke-linejoin:miter;stroke-miterlimit:4;stroke-dasharray:none;stroke-opacity:1"
         d="m 3766.26,333.379 c -6.25,0.391 -14.04,0.781 -21.45,0.781 -29.64,0 -29.64,-14.828 -29.64,-28.469 v -30.812 h 45.62 v -26.52 h -45.62 V 79.1016 H 3678.9 V 248.359 h -38.62 v 26.52 h 38.62 v 22.23 c 0,26.911 1.56,36.661 8.18,46.789 8.2,12.493 23.79,21.461 49.14,21.461 10.53,0 22.23,-1.558 30.04,-2.73 z" /><path
         id="path56"
         style="fill:#100f0d;fill-opacity:1;fill-rule:nonzero;stroke:none"
         d="m 3940.21,196.102 c 0.37,18.718 -3.13,57.718 -48.36,57.718 -23.81,0 -52.66,-14.429 -53.44,-57.718 z m -103.36,-25.743 c -0.79,-40.558 15.99,-70.5895 56.15,-70.5895 23.79,0 42.91,12.4805 46.03,40.5585 h 36.66 c -1.17,-9.746 -2.73,-25.738 -16.77,-40.9491 -8.58,-9.75 -28.09,-26.1289 -67.46,-26.1289 -61.63,0 -90.88,38.219 -90.88,100.23 0,38.61 7.79,70.59 38.61,92.04 18.71,13.261 42.11,14.429 53.42,14.429 87.75,0 85.8,-77.609 85.02,-109.59 h -140.78" /><path
         id="path58"
         style="fill:none;stroke:#100f0d;stroke-width:10;stroke-linecap:butt;stroke-linejoin:miter;stroke-miterlimit:4;stroke-dasharray:none;stroke-opacity:1"
         d="m 3940.21,196.102 c 0.37,18.718 -3.13,57.718 -48.36,57.718 -23.81,0 -52.66,-14.429 -53.44,-57.718 z m -103.36,-25.743 c -0.79,-40.558 15.99,-70.5895 56.15,-70.5895 23.79,0 42.91,12.4805 46.03,40.5585 h 36.66 c -1.17,-9.746 -2.73,-25.738 -16.77,-40.9491 -8.58,-9.75 -28.09,-26.1289 -67.46,-26.1289 -61.63,0 -90.88,38.219 -90.88,100.23 0,38.61 7.79,70.59 38.61,92.04 18.71,13.261 42.11,14.429 53.42,14.429 87.75,0 85.8,-77.609 85.02,-109.59 z" /><path
         id="path60"
         style="fill:#100f0d;fill-opacity:1;fill-rule:nonzero;stroke:none"
         d="m 4159.37,212.09 c -0.79,8.969 -3.52,40.949 -39.01,40.949 -50.68,0 -50.68,-58.891 -50.68,-73.719 0,-40.16 9.74,-77.601 48.75,-77.601 31.19,0 41.72,23.402 42.5,42.511 h 37.05 c -2.35,-38.218 -30.8,-70.1987 -79.16,-70.1987 -13.26,0 -43.69,2.7304 -64.36,25.3476 -11.7,13.6521 -23.4,34.3201 -23.4,74.8831 0,81.508 49.93,105.687 88.91,105.687 12.87,0 42.13,-2.73 60.06,-24.179 14.43,-16.77 15.6,-32.758 16.39,-43.68 h -37.05" /><path
         id="path62"
         style="fill:none;stroke:#100f0d;stroke-width:10;stroke-linecap:butt;stroke-linejoin:miter;stroke-miterlimit:4;stroke-dasharray:none;stroke-opacity:1"
         d="m 4159.37,212.09 c -0.79,8.969 -3.52,40.949 -39.01,40.949 -50.68,0 -50.68,-58.891 -50.68,-73.719 0,-40.16 9.74,-77.601 48.75,-77.601 31.19,0 41.72,23.402 42.5,42.511 h 37.05 c -2.35,-38.218 -30.8,-70.1987 -79.16,-70.1987 -13.26,0 -43.69,2.7304 -64.36,25.3476 -11.7,13.6521 -23.4,34.3201 -23.4,74.8831 0,81.508 49.93,105.687 88.91,105.687 12.87,0 42.13,-2.73 60.06,-24.179 14.43,-16.77 15.6,-32.758 16.39,-43.68 z" /><path
         id="path64"
         style="fill:#100f0d;fill-opacity:1;fill-rule:nonzero;stroke:none"
         d="m 4236.98,275.66 h 34.71 v 40.949 l 36.27,11.7 V 275.66 h 43.67 v -26.91 h -43.67 V 131.359 c 0,-9.75 0,-26.129 26.13,-26.129 7.4,0 14.44,1.168 17.54,1.95 V 78.7109 c -6.62,-1.1718 -17.15,-2.3398 -30.41,-2.3398 -33.53,0 -49.53,9.75 -49.53,41.7309 V 248.75 h -34.71 v 26.91" /><path
         id="path66"
         style="fill:none;stroke:#100f0d;stroke-width:10;stroke-linecap:butt;stroke-linejoin:miter;stroke-miterlimit:4;stroke-dasharray:none;stroke-opacity:1"
         d="m 4236.98,275.66 h 34.71 v 40.949 l 36.27,11.7 V 275.66 h 43.67 v -26.91 h -43.67 V 131.359 c 0,-9.75 0,-26.129 26.13,-26.129 7.4,0 14.44,1.168 17.54,1.95 V 78.7109 c -6.62,-1.1718 -17.15,-2.3398 -30.41,-2.3398 -33.53,0 -49.53,9.75 -49.53,41.7309 V 248.75 h -34.71 z" /><path
         id="path68"
         style="fill:#100f0d;fill-opacity:1;fill-rule:nonzero;stroke:none"
         d="m 4442.12,137.211 c -0.39,-14.82 7.4,-35.492 42.89,-35.492 15.21,0 26.52,2.73 34.32,12.48 3.9,5.071 6.25,11.699 6.25,18.332 0,19.11 -13.66,22.61 -42.91,29.25 -40.94,9.36 -75.26,17.539 -75.26,58.5 0,35.879 31.19,59.278 76.43,59.278 24.57,0 58.88,-7.02 70.58,-30.418 5.08,-10.922 5.08,-20.282 5.08,-28.469 h -37.44 c 1.17,29.637 -24.57,31.969 -37.83,31.969 -5.45,0 -39.79,0 -39.79,-28.071 0,-17.941 17.56,-22.23 27.7,-24.961 54.22,-12.871 65.92,-15.988 77.62,-26.91 10.91,-10.14 14.82,-23.801 14.82,-36.269 0,-21.84 -12.09,-40.5589 -26.52,-49.5316 -17.17,-10.5273 -37.84,-13.2578 -58.11,-13.2578 -39.78,0 -76.83,16.3789 -76.44,63.5704 h 38.61" /><path
         id="path70"
         style="fill:none;stroke:#100f0d;stroke-width:10;stroke-linecap:butt;stroke-linejoin:miter;stroke-miterlimit:4;stroke-dasharray:none;stroke-opacity:1"
         d="m 4442.12,137.211 c -0.39,-14.82 7.4,-35.492 42.89,-35.492 15.21,0 26.52,2.73 34.32,12.48 3.9,5.071 6.25,11.699 6.25,18.332 0,19.11 -13.66,22.61 -42.91,29.25 -40.94,9.36 -75.26,17.539 -75.26,58.5 0,35.879 31.19,59.278 76.43,59.278 24.57,0 58.88,-7.02 70.58,-30.418 5.08,-10.922 5.08,-20.282 5.08,-28.469 h -37.44 c 1.17,29.637 -24.57,31.969 -37.83,31.969 -5.45,0 -39.79,0 -39.79,-28.071 0,-17.941 17.56,-22.23 27.7,-24.961 54.22,-12.871 65.92,-15.988 77.62,-26.91 10.91,-10.14 14.82,-23.801 14.82,-36.269 0,-21.84 -12.09,-40.5589 -26.52,-49.5316 -17.17,-10.5273 -37.84,-13.2578 -58.11,-13.2578 -39.78,0 -76.83,16.3789 -76.44,63.5704 z" /><path
         id="path72"
         style="fill:#100f0d;fill-opacity:1;fill-rule:nonzero;stroke:none"
         d="m 4839.91,161.391 c 0.78,-19.5 3.13,-55.77 67.85,-55.77 58.52,0 65.92,36.27 65.92,50.309 0,31.59 -25.35,37.832 -64.74,47.57 -42.9,10.539 -62,15.219 -76.43,24.969 -23.01,15.601 -29.26,36.66 -29.26,55.383 0,57.328 54.22,82.289 107.25,82.289 18.73,0 56.56,-3.121 79.18,-27.692 15.58,-17.16 16.36,-36.269 17.15,-47.969 h -40.55 c -1.95,35.09 -31.6,42.899 -59.28,42.899 -39,0 -62.4,-17.551 -62.4,-45.629 0,-24.961 16.37,-33.539 50.7,-41.738 67.07,-17.153 74.48,-18.711 90.86,-29.633 26.13,-17.16 28.09,-44.457 28.09,-56.16 0,-49.918 -39.01,-87.7502 -111.15,-87.7502 -21.45,0 -65.14,3.5117 -87.37,31.9802 -15.99,20.672 -16.38,43.289 -16.38,56.942 h 40.56" /><path
         id="path74"
         style="fill:none;stroke:#100f0d;stroke-width:10;stroke-linecap:butt;stroke-linejoin:miter;stroke-miterlimit:4;stroke-dasharray:none;stroke-opacity:1"
         d="m 4839.91,161.391 c 0.78,-19.5 3.13,-55.77 67.85,-55.77 58.52,0 65.92,36.27 65.92,50.309 0,31.59 -25.35,37.832 -64.74,47.57 -42.9,10.539 -62,15.219 -76.43,24.969 -23.01,15.601 -29.26,36.66 -29.26,55.383 0,57.328 54.22,82.289 107.25,82.289 18.73,0 56.56,-3.121 79.18,-27.692 15.58,-17.16 16.36,-36.269 17.15,-47.969 h -40.55 c -1.95,35.09 -31.6,42.899 -59.28,42.899 -39,0 -62.4,-17.551 -62.4,-45.629 0,-24.961 16.37,-33.539 50.7,-41.738 67.07,-17.153 74.48,-18.711 90.86,-29.633 26.13,-17.16 28.09,-44.457 28.09,-56.16 0,-49.918 -39.01,-87.7502 -111.15,-87.7502 -21.45,0 -65.14,3.5117 -87.37,31.9802 -15.99,20.672 -16.38,43.289 -16.38,56.942 z" /><path
         id="path76"
         style="fill:#100f0d;fill-opacity:1;fill-rule:nonzero;stroke:none"
         d="m 5155.42,99.7695 c 27.7,0 59.28,19.8905 59.28,78.7815 0,48.75 -22.62,74.488 -56.94,74.488 -23.39,0 -61.23,-14.82 -61.23,-76.051 0,-40.179 17.17,-77.2185 58.89,-77.2185 z m 2.34,180.1795 c 78.38,0 95.94,-61.621 95.94,-102.57 0,-57.328 -32.36,-104.9102 -99.06,-104.9102 -64.75,0 -96.33,44.8512 -96.33,102.1792 0,48.364 22.62,105.301 99.45,105.301" /><path
         id="path78"
         style="fill:none;stroke:#100f0d;stroke-width:10;stroke-linecap:butt;stroke-linejoin:miter;stroke-miterlimit:4;stroke-dasharray:none;stroke-opacity:1"
         d="m 5155.42,99.7695 c 27.7,0 59.28,19.8905 59.28,78.7815 0,48.75 -22.62,74.488 -56.94,74.488 -23.39,0 -61.23,-14.82 -61.23,-76.051 0,-40.179 17.17,-77.2185 58.89,-77.2185 z m 2.34,180.1795 c 78.38,0 95.94,-61.621 95.94,-102.57 0,-57.328 -32.36,-104.9102 -99.06,-104.9102 -64.75,0 -96.33,44.8512 -96.33,102.1792 0,48.364 22.62,105.301 99.45,105.301 z" /><path
         id="path80"
         style="fill:#100f0d;fill-opacity:1;fill-rule:nonzero;stroke:none"
         d="m 5423.35,212.09 c -0.78,8.969 -3.52,40.949 -39,40.949 -50.71,0 -50.71,-58.891 -50.71,-73.719 0,-40.16 9.75,-77.601 48.75,-77.601 31.19,0 41.74,23.402 42.52,42.511 h 37.03 c -2.32,-38.218 -30.8,-70.1987 -79.16,-70.1987 -13.26,0 -43.67,2.7304 -64.35,25.3476 -11.7,13.6521 -23.4,34.3201 -23.4,74.8831 0,81.508 49.92,105.687 88.93,105.687 12.87,0 42.1,-2.73 60.05,-24.179 14.44,-16.77 15.61,-32.758 16.39,-43.68 h -37.05" /><path
         id="path82"
         style="fill:none;stroke:#100f0d;stroke-width:10;stroke-linecap:butt;stroke-linejoin:miter;stroke-miterlimit:4;stroke-dasharray:none;stroke-opacity:1"
         d="m 5423.35,212.09 c -0.78,8.969 -3.52,40.949 -39,40.949 -50.71,0 -50.71,-58.891 -50.71,-73.719 0,-40.16 9.75,-77.601 48.75,-77.601 31.19,0 41.74,23.402 42.52,42.511 h 37.03 c -2.32,-38.218 -30.8,-70.1987 -79.16,-70.1987 -13.26,0 -43.67,2.7304 -64.35,25.3476 -11.7,13.6521 -23.4,34.3201 -23.4,74.8831 0,81.508 49.92,105.687 88.93,105.687 12.87,0 42.1,-2.73 60.05,-24.179 14.44,-16.77 15.61,-32.758 16.39,-43.68 z" /><path
         id="path84"
         style="fill:#100f0d;fill-opacity:1;fill-rule:nonzero;stroke:none"
         d="m 5531.38,274.879 h 36.66 V 79.1016 h -36.66 z m -3.91,85.019 h 44.08 V 319.73 h -44.08 v 40.168" /><path
         id="path86"
         style="fill:none;stroke:#100f0d;stroke-width:10;stroke-linecap:butt;stroke-linejoin:miter;stroke-miterlimit:4;stroke-dasharray:none;stroke-opacity:1"
         d="m 5531.38,274.879 h 36.66 V 79.1016 h -36.66 z m -3.91,85.019 h 44.08 V 319.73 h -44.08 z" /><path
         id="path88"
         style="fill:#100f0d;fill-opacity:1;fill-rule:nonzero;stroke:none"
         d="m 5765.77,196.102 c 0.37,18.718 -3.12,57.718 -48.36,57.718 -23.81,0 -52.65,-14.429 -53.44,-57.718 z m -103.36,-25.743 c -0.78,-40.558 16,-70.5895 56.15,-70.5895 23.79,0 42.91,12.4805 46.04,40.5585 h 36.66 c -1.17,-9.746 -2.73,-25.738 -16.78,-40.9491 -8.57,-9.75 -28.08,-26.1289 -67.46,-26.1289 -61.62,0 -90.88,38.219 -90.88,100.23 0,38.61 7.8,70.59 38.62,92.04 18.71,13.261 42.11,14.429 53.41,14.429 87.76,0 85.8,-77.609 85.02,-109.59 h -140.78" /><path
         id="path90"
         style="fill:none;stroke:#100f0d;stroke-width:10;stroke-linecap:butt;stroke-linejoin:miter;stroke-miterlimit:4;stroke-dasharray:none;stroke-opacity:1"
         d="m 5765.77,196.102 c 0.37,18.718 -3.12,57.718 -48.36,57.718 -23.81,0 -52.65,-14.429 -53.44,-57.718 z m -103.36,-25.743 c -0.78,-40.558 16,-70.5895 56.15,-70.5895 23.79,0 42.91,12.4805 46.04,40.5585 h 36.66 c -1.17,-9.746 -2.73,-25.738 -16.78,-40.9491 -8.57,-9.75 -28.08,-26.1289 -67.46,-26.1289 -61.62,0 -90.88,38.219 -90.88,100.23 0,38.61 7.8,70.59 38.62,92.04 18.71,13.261 42.11,14.429 53.41,14.429 87.76,0 85.8,-77.609 85.02,-109.59 z" /><path
         id="path92"
         style="fill:#100f0d;fill-opacity:1;fill-rule:nonzero;stroke:none"
         d="m 5843.37,275.66 h 34.73 v 40.949 l 36.27,11.7 V 275.66 h 43.67 v -26.91 h -43.67 V 131.359 c 0,-9.75 0,-26.129 26.11,-26.129 7.42,0 14.43,1.168 17.56,1.95 V 78.7109 c -6.64,-1.1718 -17.17,-2.3398 -30.43,-2.3398 -33.54,0 -49.51,9.75 -49.51,41.7309 V 248.75 h -34.73 v 26.91" /><path
         id="path94"
         style="fill:none;stroke:#100f0d;stroke-width:10;stroke-linecap:butt;stroke-linejoin:miter;stroke-miterlimit:4;stroke-dasharray:none;stroke-opacity:1"
         d="m 5843.37,275.66 h 34.73 v 40.949 l 36.27,11.7 V 275.66 h 43.67 v -26.91 h -43.67 V 131.359 c 0,-9.75 0,-26.129 26.11,-26.129 7.42,0 14.43,1.168 17.56,1.95 V 78.7109 c -6.64,-1.1718 -17.17,-2.3398 -30.43,-2.3398 -33.54,0 -49.51,9.75 -49.51,41.7309 V 248.75 h -34.73 z" /><path
         id="path96"
         style="fill:#100f0d;fill-opacity:1;fill-rule:nonzero;stroke:none"
         d="M 6115.6,77.9297 6087.51,5 h -37.83 l 29.65,74.8789 -81.53,195.0001 h 41.35 l 61.23,-154.438 62.4,154.438 h 39.77 L 6115.6,77.9297" /><path
         id="path98"
         style="fill:none;stroke:#100f0d;stroke-width:10;stroke-linecap:butt;stroke-linejoin:miter;stroke-miterlimit:4;stroke-dasharray:none;stroke-opacity:1"
         d="M 6115.6,77.9297 6087.51,5 h -37.83 l 29.65,74.8789 -81.53,195.0001 h 41.35 l 61.23,-154.438 62.4,154.438 h 39.77 z" /><path
         id="path100"
         style="fill:#100f0d;fill-opacity:1;fill-rule:nonzero;stroke:none"
         d="m 6216.88,543.559 h 11.58 c 12.09,0 19.75,6.632 19.75,16.64 0,11.313 -8.18,16.25 -20.14,16.25 -5.46,0 -9.23,-0.519 -11.19,-1.027 z m -11.3,39.793 c 5.72,1.168 14.04,1.937 21.71,1.937 12.09,0 20.01,-2.328 25.47,-7.269 4.3,-3.77 6.9,-9.758 6.9,-16.641 0,-11.449 -7.41,-19.117 -16.52,-22.238 v -0.379 c 6.64,-2.352 10.66,-8.602 12.88,-17.692 2.86,-12.211 4.94,-20.672 6.63,-24.05 h -11.7 c -1.43,2.468 -3.38,10.011 -5.73,20.941 -2.59,12.09 -7.41,16.641 -17.67,17.019 h -10.67 v -37.96 h -11.3 v 86.332" /><path
         id="path102"
         style="fill:none;stroke:#100f0d;stroke-width:10;stroke-linecap:butt;stroke-linejoin:miter;stroke-miterlimit:4;stroke-dasharray:none;stroke-opacity:1"
         d="m 6299.86,542.43 c 0,-38.891 -31.53,-70.41 -70.42,-70.41 -38.88,0 -70.41,31.519 -70.41,70.41 0,38.89 31.53,70.422 70.41,70.422 38.89,0 70.42,-31.532 70.42,-70.422 z" /></g></g></svg>