<svg width="160" height="160" version="1.1" xmlns="http://www.w3.org/2000/svg"><path fill="rgb(0,1,0)" stroke="rgb(0,1,0)" stroke-width="1" opacity="1" d="M 19 0 L 25 0 L 25 4.5 L 28 6.5 L 26 7.5 L 26.5 9 L 24.5 10 L 21 9 Q 18.9 14.2 23.5 13 L 25 12.5 L 26 14.5 L 25 18.5 L 26.5 18 L 31.5 16 L 31.5 17 L 26 19 Q 24.3 23.5 29.5 22 L 33 19.5 L 32.5 23 L 30.5 23 Q 26 24 25 21.5 L 25 19 L 19.5 19 L 19 18.5 L 19 0 Z "></path><path fill="rgb(0,1,0)" stroke="rgb(0,1,0)" stroke-width="1" opacity="1" d="M 29.5 0 L 30 4.5 L 29 4.5 L 29.5 0 Z "></path><path fill="rgb(0,1,0)" stroke="rgb(0,1,0)" stroke-width="1" opacity="1" d="M 31.5 0 L 33 5.5 L 32 5.5 L 31.5 0 Z "></path><path fill="rgb(0,1,0)" stroke="rgb(0,1,0)" stroke-width="1" opacity="1" d="M 54.5 0 L 55.5 2 L 54.5 0 Z "></path><path fill="rgb(0,1,0)" stroke="rgb(0,1,0)" stroke-width="1" opacity="1" d="M 65 0 L 85.5 0 L 86 2.5 L 88.5 4 L 90.5 1 L 91.5 3 L 93 2.5 L 90.5 5 L 88.5 5 L 84.5 4 Q 83 6.5 81.5 3 L 78.5 2 L 75.5 6 L 72.5 2 L 68.5 2 L 61.5 6 L 65 1.5 L 65 0 Z "></path><path fill="rgb(0,1,0)" stroke="rgb(0,1,0)" stroke-width="1" opacity="1" d="M 97.5 0 L 98 2 L 94 1.5 L 97.5 0 Z "></path><path fill="rgb(0,1,0)" stroke="rgb(0,1,0)" stroke-width="1" opacity="1" d="M 109.5 0 L 114.5 1 L 116 0.5 L 117 4.5 L 116 4.5 Q 116.8 2.3 114.5 3 L 113 3.5 Q 114.3 -0.7 109.5 1 L 109.5 0 Z "></path><path fill="rgb(0,1,0)" stroke="rgb(0,1,0)" stroke-width="1" opacity="1" d="M 129 0 L 140 0 L 140 5.5 L 141 10 L 144 10 L 144.5 13 L 154 13 L 154 19 Q 148.4 17.1 150 22 L 144 22 L 144 26 L 138 26 L 138 13 Q 132 15 134 9 L 122.5 9 L 122 7.5 L 119 5.5 L 122.5 4 Q 123 7.5 127.5 7 Q 130.5 5.4 129 0 Z "></path><path fill="rgb(0,1,0)" stroke="rgb(0,1,0)" stroke-width="1" opacity="1" d="M 31.5 7 L 30.5 9 L 31.5 7 Z "></path><path fill="rgb(0,1,0)" stroke="rgb(0,1,0)" stroke-width="1" opacity="1" d="M 33.5 10 L 36 10.5 L 33.5 11 L 33.5 10 Z "></path><path fill="rgb(0,1,0)" stroke="rgb(0,1,0)" stroke-width="1" opacity="1" d="M 32.5 12 L 31.5 14 L 32.5 12 Z "></path><path fill="rgb(0,1,0)" stroke="rgb(0,1,0)" stroke-width="1" opacity="1" d="M 38.5 18 L 37 20.5 Q 37.8 22.8 35.5 22 L 34 22.5 L 35 20 L 38.5 18 Z "></path><path fill="rgb(0,1,0)" stroke="rgb(0,1,0)" stroke-width="1" opacity="1" d="M 39.5 20 L 39 21.5 L 38.5 23 L 38 21.5 L 39.5 20 Z "></path><path fill="rgb(0,1,0)" stroke="rgb(0,1,0)" stroke-width="1" opacity="1" d="M 26.5 25 L 30 26 L 29 32 Q 22.6 34.3 25 26.5 L 26.5 25 Z M 26 26 Q 24 31 28 30 Q 30 25 26 26 Z "></path><path fill="rgb(0,1,0)" stroke="rgb(0,1,0)" stroke-width="1" opacity="1" d="M 38.5 25 L 39.5 27 L 37 26.5 L 38.5 25 Z "></path><path fill="rgb(0,1,0)" stroke="rgb(0,1,0)" stroke-width="1" opacity="1" d="M 34.5 26 L 35 29 L 37 29.5 L 37 43.5 L 39 44 L 39.5 31 L 40 43.5 L 43 48.5 L 40 49.5 L 40.5 51 L 42.5 50 L 42 51.5 L 43 55.5 L 39.5 53 L 37.5 52 L 36 52.5 L 35.5 33 L 35 35 Q 29.8 33.2 32 40.5 L 31 40.5 L 31 32.5 L 32.5 32 Q 35.1 30.6 34.5 26 Z M 39 48 L 38 51 L 39 51 L 39 48 Z "></path><path fill="rgb(0,1,0)" stroke="rgb(0,1,0)" stroke-width="1" opacity="1" d="M 120.5 35 L 122 42.5 L 117.5 49 L 117 47.5 L 120 43.5 L 120.5 35 Z "></path><path fill="rgb(0,1,0)" stroke="rgb(0,1,0)" stroke-width="1" opacity="1" d="M 137 35 L 141 35 L 141 39 L 146.5 39 L 147 40.5 L 150 42 Q 148.5 46.5 153 45 L 153 51 L 147 52 Q 148.1 55.3 144 54 L 144 61 Q 139.9 59.3 141 63.5 L 140 64.5 L 140 74 L 137 74 Q 138.1 76.7 135.5 76 L 134 80 L 129 80 L 129 83 Q 126 81.8 127 85.5 Q 122.1 88.6 124 98.5 L 126.5 103 L 139.5 103 L 143 101 Q 142.2 92.8 147 88.5 L 147 83 L 154 83 L 154 86.5 L 156 86.5 L 157 98.5 L 156 102 L 149.5 101 L 146 103.5 L 144 122 L 141 122 L 141 116 L 138.5 116 L 137.5 115 L 131 115 Q 132 119.3 129 118.5 L 129 125 L 127.5 125 L 125.5 124 L 124 127.5 L 125 130 Q 128.8 131.5 128 128.5 L 129 128.5 L 130 140.5 L 132 147 L 134 147.5 L 134 154 L 131 154 Q 132.1 157.3 128 156 L 128 160 L 125 160 Q 126.7 155.9 122.5 157 L 121 153.5 L 122 150.5 L 120 145.5 L 121 143.5 L 120.5 142 Q 123.5 142.5 122 135.5 Q 124.8 133.8 123 127.5 L 120 125.5 L 123 123.5 L 122 116.5 L 123 111.5 L 125 109.5 L 125 105.5 L 122.5 102 L 119 100.5 L 117.5 98 Q 116.3 101 112 100 L 111 93.5 L 112 93.5 L 112.5 95 L 113.5 90 L 114.5 93 L 115 87 L 119 86 Q 117.8 80.9 121 79.5 L 120.5 78 L 123 76.5 L 122 74.5 L 124 75.5 L 125.5 78 L 129 76.5 L 128 71 L 122 70.5 L 125 70 L 125.5 67 L 126 69 L 128.5 70 L 129 68 L 131 67.5 L 131 61 L 134 61 L 134 54.5 L 135.5 55 L 137 55 L 137 51 L 135 50.5 L 135 42 L 138 40.5 L 137 35 Z M 131 74 L 130 77 L 131 77 L 131 74 Z M 126 134 L 124 137 L 128 137 L 128 136 L 126 134 Z "></path><path fill="rgb(0,1,0)" stroke="rgb(0,1,0)" stroke-width="1" opacity="1" d="M 0 38 Q 4.9 36.4 3 42 L 6 42 L 6 48 L 0 48 L 0 38 Z "></path><path fill="rgb(0,1,0)" stroke="rgb(0,1,0)" stroke-width="1" opacity="1" d="M 31.5 45 L 32 50.5 L 31 53.5 L 31.5 55 Q 28.5 55.9 30 51.5 L 31.5 45 Z "></path><path fill="rgb(0,1,0)" stroke="rgb(0,1,0)" stroke-width="1" opacity="1" d="M 34.5 54 L 37 55.5 L 36 60.5 Q 39.7 62.3 38 69.5 L 37 69.5 Q 38.8 62.8 35.5 61 Q 32.9 61.8 34 58.5 L 35 55.5 L 34.5 54 Z "></path><path fill="rgb(0,1,0)" stroke="rgb(0,1,0)" stroke-width="1" opacity="1" d="M 115.5 56 L 116 57.5 L 114 58.5 L 115.5 56 Z "></path><path fill="rgb(0,1,0)" stroke="rgb(0,1,0)" stroke-width="1" opacity="1" d="M 41.5 58 L 42.5 60 L 41.5 58 Z "></path><path fill="rgb(0,1,0)" stroke="rgb(0,1,0)" stroke-width="1" opacity="1" d="M 29.5 60 L 33 61 L 32.5 63 L 29 61 L 28.5 63 L 28 61.5 L 29.5 60 Z "></path><path fill="rgb(0,1,0)" stroke="rgb(0,1,0)" stroke-width="1" opacity="1" d="M 27.5 64 Q 26.7 70.3 30.5 72 L 32 72.5 L 30 73 Q 31 76.8 28.5 78 Q 24.8 78.8 24 76.5 Q 22.5 72.1 25.5 73 L 27.5 72 L 29 72.5 Q 25.6 70 27.5 64 Z M 27 73 L 25 75 L 27 77 Q 30 78 29 75 L 27 73 Z "></path><path fill="rgb(0,1,0)" stroke="rgb(0,1,0)" stroke-width="1" opacity="1" d="M 46.5 64 L 47 65.5 L 44.5 67 L 44.5 66 Q 47 66.7 46.5 64 Z "></path><path fill="rgb(0,1,0)" stroke="rgb(0,1,0)" stroke-width="1" opacity="1" d="M 111.5 69 L 112.5 71 L 111.5 69 Z "></path><path fill="rgb(0,1,0)" stroke="rgb(0,1,0)" stroke-width="1" opacity="1" d="M 38 71 Q 40.7 69.9 40 72.5 L 44 74.5 L 41.5 75 Q 40 71.5 38.5 74 L 37 73.5 L 38 71 Z "></path><path fill="rgb(0,1,0)" stroke="rgb(0,1,0)" stroke-width="1" opacity="1" d="M 35.5 73 L 35 74.5 L 33.5 77 Q 30.5 76.2 32 80 L 38 78 L 38.5 76 L 39 77.5 L 36 79 Q 37.3 82.3 32.5 81 L 31 77.5 L 34 76 L 35.5 73 Z "></path><path fill="rgb(0,1,0)" stroke="rgb(0,1,0)" stroke-width="1" opacity="1" d="M 98.5 74 L 99.5 76 Q 96.7 76.7 98.5 74 Z "></path><path fill="rgb(0,1,0)" stroke="rgb(0,1,0)" stroke-width="1" opacity="1" d="M 63 75 L 65 75.5 L 63 76.5 L 63 75 Z "></path><path fill="rgb(0,1,0)" stroke="rgb(0,1,0)" stroke-width="1" opacity="1" d="M 44.5 76 L 45 80.5 L 44 80.5 L 44.5 76 Z "></path><path fill="rgb(0,1,0)" stroke="rgb(0,1,0)" stroke-width="1" opacity="1" d="M 94.5 77 L 95 81 Q 92 82.3 93 78.5 L 94.5 77 Z "></path><path fill="rgb(0,1,0)" stroke="rgb(0,1,0)" stroke-width="1" opacity="1" d="M 69.5 80 L 69 81.5 L 68.5 83 L 68 81.5 L 69.5 80 Z "></path><path fill="rgb(0,1,0)" stroke="rgb(0,1,0)" stroke-width="1" opacity="1" d="M 42 82 Q 45 81 44 84 Q 41.3 82.9 42 85.5 L 39 87 L 35.5 92 L 35 90.5 L 38 89 L 39.5 86 Q 41.8 86.8 41 84.5 L 42 82 Z "></path><path fill="rgb(0,1,0)" stroke="rgb(0,1,0)" stroke-width="1" opacity="1" d="M 25 83 Q 30.2 80.9 29 85.5 Q 31.2 86.8 30 91.5 L 29 95.5 L 30 96.5 L 30 105.5 L 29 105.5 L 28.5 96 L 26 97 L 24.5 106 L 24 99.5 L 25 98.5 L 25 83 Z M 26 86 L 26 93 L 28 93 L 28 87 L 26 86 Z "></path><path fill="rgb(0,1,0)" stroke="rgb(0,1,0)" stroke-width="1" opacity="1" d="M 68.5 84 L 67.5 86 L 64 85.5 L 68.5 84 Z "></path><path fill="rgb(0,1,0)" stroke="rgb(0,1,0)" stroke-width="1" opacity="1" d="M 42 87 Q 44.7 85.9 44 88.5 L 47 95.5 L 45 96 L 43.5 89 Q 43.1 96.1 39 99.5 L 43 101.5 L 40.5 102 L 39 101.5 Q 37.8 107.6 40.5 107 L 43.5 109 L 46 107.5 L 43.5 112 L 41.5 109 Q 38.1 108.1 40 113.5 L 37 119.5 L 37 126.5 Q 34.3 127.6 35 131 L 29 131 L 29 118.5 L 28 115 Q 25 113.8 26 117.5 L 25 117.5 L 25.5 108 L 27.5 109 L 29 108.5 Q 26.8 109.7 28 114.5 L 30 118.5 L 30 130 L 34 130 L 34 121.5 L 32 116.5 L 33 116.5 Q 32.3 119.1 35 118 L 37 103.5 L 36 101 Q 39 102.3 38 98.5 Q 43.2 95.3 42 87 Z M 36 119 L 35 122 L 36 122 L 36 119 Z "></path><path fill="rgb(0,1,0)" stroke="rgb(0,1,0)" stroke-width="1" opacity="1" d="M 61 88 L 63 88.5 L 62 91 L 59 90.5 L 61 90 L 61 88 Z "></path><path fill="rgb(0,1,0)" stroke="rgb(0,1,0)" stroke-width="1" opacity="1" d="M 34.5 93 L 35 100.5 L 32 102 L 31.5 115 L 31 102.5 L 34 101 L 34.5 93 Z "></path><path fill="rgb(0,1,0)" stroke="rgb(0,1,0)" stroke-width="1" opacity="1" d="M 114 102 L 116 102.5 L 114 103.5 L 114 102 Z "></path><path fill="rgb(0,1,0)" stroke="rgb(0,1,0)" stroke-width="1" opacity="1" d="M 44.5 103 L 47 104.5 L 46.5 106 L 46 104 L 44.5 103 Z "></path><path fill="rgb(0,1,0)" stroke="rgb(0,1,0)" stroke-width="1" opacity="1" d="M 0 106 L 5.5 106 L 6 106.5 L 6 150 L 0.5 150 L 0 149.5 L 0 106 Z "></path><path fill="rgb(0,1,0)" stroke="rgb(0,1,0)" stroke-width="1" opacity="1" d="M 40.5 118 L 41 126.5 L 40 126.5 L 40.5 118 Z "></path><path fill="rgb(0,1,0)" stroke="rgb(0,1,0)" stroke-width="1" opacity="1" d="M 25.5 124 L 26 127.5 L 25 130.5 L 25.5 132 L 24 128.5 L 25.5 124 Z "></path><path fill="rgb(0,1,0)" stroke="rgb(0,1,0)" stroke-width="1" opacity="1" d="M 144 125 L 147 125.5 L 147 146.5 L 148 150.5 L 147 157 L 144 157 L 144 151 Q 139.1 152.6 141 147 L 144 145.5 L 144 141 Q 139.1 142.6 141 137 L 144 136.5 L 144 125 Z "></path><path fill="rgb(0,1,0)" stroke="rgb(0,1,0)" stroke-width="1" opacity="1" d="M 40.5 130 L 43 130.5 Q 40.9 133.8 40.5 130 Z "></path><path fill="rgb(0,1,0)" stroke="rgb(0,1,0)" stroke-width="1" opacity="1" d="M 36.5 131 L 39 132.5 L 39.5 135 L 42 134 L 41.5 137 L 40 136.5 L 39.5 139 L 38 138.5 Q 38.8 141.1 35.5 140 L 34 140.5 L 38 137.5 L 36 137 L 35.5 134 L 34 134.5 L 36.5 131 Z "></path><path fill="rgb(0,1,0)" stroke="rgb(0,1,0)" stroke-width="1" opacity="1" d="M 27.5 135 L 28 137.5 L 27 137.5 L 27.5 135 Z "></path><path fill="rgb(0,1,0)" stroke="rgb(0,1,0)" stroke-width="1" opacity="1" d="M 32.5 140 L 31.5 142 L 32.5 140 Z "></path><path fill="rgb(0,1,0)" stroke="rgb(0,1,0)" stroke-width="1" opacity="1" d="M 40.5 140 L 42.5 141 L 44 140.5 L 43.5 142 L 48 145.5 L 47.5 148 L 42.5 145 Q 41 148.5 39.5 146 L 36 145.5 L 41 143.5 L 40.5 140 Z M 45 143 Q 43 146 46 145 L 45 143 Z "></path><path fill="rgb(0,1,0)" stroke="rgb(0,1,0)" stroke-width="1" opacity="1" d="M 27.5 145 L 26 147.5 L 27 152.5 L 25 153.5 Q 23.5 146.5 27.5 145 Z "></path><path fill="rgb(0,1,0)" stroke="rgb(0,1,0)" stroke-width="1" opacity="1" d="M 39.5 149 L 43 151.5 L 41.5 152 L 39 151 L 39.5 149 Z "></path><path fill="rgb(0,1,0)" stroke="rgb(0,1,0)" stroke-width="1" opacity="1" d="M 71.5 149 L 75.5 150 Q 76.7 147.7 81.5 149 L 81.5 150 L 78 150.5 L 85 151.5 L 73 152 Q 74.1 149.3 71.5 150 L 71.5 149 Z "></path><path fill="rgb(0,1,0)" stroke="rgb(0,1,0)" stroke-width="1" opacity="1" d="M 32.5 150 L 31.5 152 L 30 151.5 L 32.5 150 Z "></path><path fill="rgb(0,1,0)" stroke="rgb(0,1,0)" stroke-width="1" opacity="1" d="M 69.5 154 L 82.5 154 L 83 156 Q 79.2 157.8 71.5 157 L 69.5 154 Z "></path><path fill="rgb(0,1,0)" stroke="rgb(0,1,0)" stroke-width="1" opacity="1" d="M 95.5 156 Q 100.8 154.8 102 157.5 L 101.5 160 L 101 157 L 95.5 157 L 95.5 156 Z "></path><path fill="rgb(0,1,0)" stroke="rgb(0,1,0)" stroke-width="1" opacity="1" d="M 110.5 157 Q 114.3 155.8 113 159.5 L 112 159.5 Q 112.8 157.3 110.5 158 L 110.5 157 Z "></path><path fill="rgb(0,1,0)" stroke="rgb(0,1,0)" stroke-width="1" opacity="1" d="M 55.5 159 L 58 159.5 L 55.5 160 L 55.5 159 Z "></path><path fill="rgb(64,106,100)" stroke="rgb(64,106,100)" stroke-width="1" opacity="1" d="M 49.5 5 Q 54.1 3.8 52 9 L 56.5 9 L 56.5 10 Q 52 11 51 8.5 Q 52.1 5.2 49.5 6 L 48 6.5 L 49.5 5 Z "></path><path fill="rgb(64,106,100)" stroke="rgb(64,106,100)" stroke-width="1" opacity="1" d="M 108.5 5 L 111 5.5 L 111 12.5 Q 110 16 104.5 15 L 104.5 14 Q 108.3 14.8 109 12.5 L 110 10.5 L 107 9.5 L 109 9 L 108.5 5 Z "></path><path fill="rgb(64,106,100)" stroke="rgb(64,106,100)" stroke-width="1" opacity="1" d="M 48.5 9 L 51.5 14 L 55.5 15 L 59 14 L 58 10.5 L 60 10 Q 61 13.8 58.5 15 L 54.5 16 L 49 13.5 L 48.5 9 Z "></path><path fill="rgb(64,106,100)" stroke="rgb(64,106,100)" stroke-width="1" opacity="1" d="M 100.5 10 L 102 10.5 L 100 11 L 101.5 15 L 103 15.5 L 100 16 L 99 11.5 L 100.5 10 Z "></path><path fill="rgb(64,106,100)" stroke="rgb(64,106,100)" stroke-width="1" opacity="1" d="M 63.5 16 L 67 16.5 L 63.5 17 L 63.5 16 Z "></path><path fill="rgb(64,106,100)" stroke="rgb(64,106,100)" stroke-width="1" opacity="1" d="M 73.5 16 L 92 16.5 L 68.5 18 L 68.5 17 L 73.5 16 Z "></path><path fill="rgb(64,106,100)" stroke="rgb(64,106,100)" stroke-width="1" opacity="1" d="M 52.5 17 L 57.5 19 L 61.5 17 L 60.5 19 L 56.5 20 L 49 18.5 L 52.5 17 Z "></path><path fill="rgb(64,106,100)" stroke="rgb(64,106,100)" stroke-width="1" opacity="1" d="M 93.5 17 L 99.5 19 L 105.5 19 Q 106.7 16.8 111.5 18 L 111.5 19 L 98.5 20 L 93.5 18 L 93.5 17 Z "></path><path fill="rgb(64,106,100)" stroke="rgb(64,106,100)" stroke-width="1" opacity="1" d="M 46.5 19 L 45 21.5 L 46.5 23 L 54.5 23 Q 57.5 26 64.5 25 L 67.5 24 L 68.5 25 L 82 25.5 L 57.5 26 Q 52.6 23.1 45 24 L 44 21.5 L 46.5 19 Z "></path><path fill="rgb(64,106,100)" stroke="rgb(64,106,100)" stroke-width="1" opacity="1" d="M 113.5 19 Q 116 20.2 115 24 L 107.5 24 L 106 25.5 Q 105.3 28.1 108 27 L 108 29.5 L 110 33 L 114.5 32 L 115 43.5 Q 112.7 44.7 114 49.5 L 111 55.5 L 111 61.5 L 106.5 74 L 106 64.5 Q 109.9 62.9 109 56.5 L 107.5 54 L 105 56.5 L 105 60.5 L 102 63.5 Q 103.3 68.8 100.5 70 L 99 69.5 L 101 69 L 100 64.5 L 104 54.5 L 106.5 52 Q 108.8 52.8 108 50.5 L 109 48 Q 111.7 49.1 111 46.5 L 112 42 L 110 41.5 L 110 39.5 L 109 34 L 104 30.5 L 106 27.5 L 88 25.5 L 97.5 25 L 100.5 26 Q 104.9 21.7 114 23 L 113.5 19 Z "></path><path fill="rgb(64,106,100)" stroke="rgb(64,106,100)" stroke-width="1" opacity="1" d="M 49.5 57 L 50 59.5 L 49 59.5 L 49.5 57 Z "></path><path fill="rgb(64,106,100)" stroke="rgb(64,106,100)" stroke-width="1" opacity="1" d="M 62.5 61 L 64.5 62 L 66.5 61 L 65.5 63 L 61 64 L 60 67.5 L 63.5 71 Q 68.8 69.8 70 72.5 Q 69.1 75.9 74.5 74 L 75.5 73 L 87.5 73 L 90.5 71 L 97.5 70 L 97.5 71 Q 90.8 72.3 87 76.5 Q 88.3 82.8 84.5 84 L 83 83.5 L 85 79.5 Q 82.2 75.5 75 77 L 77.5 83 L 79 83.5 L 76 84 L 71.5 76 L 66.5 72 L 63.5 72 L 59 67.5 Q 59.3 62.8 62.5 61 Z "></path><path fill="rgb(64,106,100)" stroke="rgb(64,106,100)" stroke-width="1" opacity="1" d="M 63.5 94 L 63 95.5 L 62 100 Q 59.3 101.1 60 98.5 L 63.5 94 Z "></path><path fill="rgb(64,106,100)" stroke="rgb(64,106,100)" stroke-width="1" opacity="1" d="M 107.5 98 L 108 101.5 L 106 100.5 L 107.5 98 Z "></path><path fill="rgb(64,106,100)" stroke="rgb(64,106,100)" stroke-width="1" opacity="1" d="M 110.5 108 L 112 117.5 L 114 120.5 Q 112.7 127.3 115 130.5 L 112 140.5 L 107.5 145 L 95.5 146 L 95.5 145 L 107.5 144 L 111 140.5 L 112 133 L 106.5 134 L 107.5 132 Q 111.7 133.3 110 128.5 L 111 125.5 L 110 125.5 L 108.5 129 L 107 113.5 L 110.5 108 Z "></path><path fill="rgb(64,106,100)" stroke="rgb(64,106,100)" stroke-width="1" opacity="1" d="M 49 112 Q 52 110.8 51 114.5 L 49 115.5 L 49 112 Z "></path><path fill="rgb(64,106,100)" stroke="rgb(64,106,100)" stroke-width="1" opacity="1" d="M 47.5 118 L 48 126.5 L 46 127.5 Q 44.7 120.7 47.5 118 Z "></path><path fill="rgb(64,106,100)" stroke="rgb(64,106,100)" stroke-width="1" opacity="1" d="M 47.5 135 L 51 135.5 L 48 137 L 48 139.5 L 53.5 145 L 57.5 144 L 57.5 145 L 52.5 146 L 46 136.5 L 47.5 135 Z "></path><path fill="rgb(64,106,100)" stroke="rgb(64,106,100)" stroke-width="1" opacity="1" d="M 52 138 Q 55.8 136.5 55 139.5 L 52 141 L 52 138 Z "></path><path fill="rgb(64,106,100)" stroke="rgb(64,106,100)" stroke-width="1" opacity="1" d="M 60.5 145 L 64 145.5 L 60.5 146 L 60.5 145 Z "></path><path fill="rgb(64,106,100)" stroke="rgb(64,106,100)" stroke-width="1" opacity="1" d="M 66.5 146 L 78 146.5 L 66.5 147 L 66.5 146 Z "></path><path fill="rgb(64,106,100)" stroke="rgb(64,106,100)" stroke-width="1" opacity="1" d="M 81.5 146 L 93 146.5 L 81.5 147 L 81.5 146 Z "></path><path fill="rgb(64,106,100)" stroke="rgb(64,106,100)" stroke-width="1" opacity="1" d="M 105 148 Q 109.9 146.4 108 152 L 105 150.5 L 105 148 Z "></path><path fill="rgb(14,130,126)" stroke="rgb(14,130,126)" stroke-width="1" opacity="1" d="M 98.5 29 Q 102.5 28.5 103 31.5 L 105 36.5 L 103 37 Q 104.3 33.7 99.5 35 L 96 37.5 L 94.5 41 L 90 40 L 89 36 L 79.5 34 L 77.5 34 L 71 31.5 L 75.5 30 L 97.5 30 L 98.5 29 Z "></path><path fill="rgb(14,130,126)" stroke="rgb(14,130,126)" stroke-width="1" opacity="1" d="M 103.5 38 L 111 42 L 108.5 50 L 104 49 L 103 54 Q 96.7 55.5 95 51.5 Q 96.3 46.9 90.5 49 Q 87 51 91.5 53 L 94 54.5 L 95 58 L 101.5 57 Q 105 59 100.5 61 Q 98.3 60.3 99 62.5 L 99.5 64 L 93.5 61 L 82.5 60 L 77.5 58 L 72.5 60 L 72.5 59 L 75 57.5 Q 74.2 54.9 77.5 56 L 86.5 59 L 89 57.5 L 81 53 Q 79.9 50.3 82.5 51 L 84 48.5 L 83 46 L 85.5 45 L 96.5 45 L 97.5 44 L 99.5 45 L 102 44 L 103.5 38 Z "></path><path fill="rgb(14,130,126)" stroke="rgb(14,130,126)" stroke-width="1" opacity="1" d="M 68.5 60 L 71 60.5 L 67.5 62 L 68.5 60 Z "></path><path fill="rgb(14,130,126)" stroke="rgb(14,130,126)" stroke-width="1" opacity="1" d="M 74.5 88 L 80.5 89 Q 82 86.5 87.5 88 L 101 98.5 L 103 105.5 L 97.5 109 L 93.5 108 Q 92.2 110.3 87.5 109 L 86.5 108 L 78.5 108 Q 74.7 103.8 67.5 103 L 62 98.5 L 65.5 94 L 74.5 88 Z M 85 89 L 83 90 L 80 95 L 78 95 L 78 90 L 74 90 L 67 95 L 65 99 L 69 101 Q 73 100 75 102 Q 80 103 82 100 L 89 103 L 99 100 L 98 98 L 89 90 L 85 89 Z "></path><path fill="rgb(14,130,126)" stroke="rgb(14,130,126)" stroke-width="1" opacity="1" d="M 104.5 115 Q 110 117 108 126.5 L 104 133 L 106 133.5 L 103.5 134 L 102 131 Q 96.8 132.8 87.5 132 L 86.5 131 L 75.5 131 L 74.5 132 L 59.5 132 Q 59 135.5 54.5 135 L 54.5 134 L 58.5 131 L 70.5 131 L 71.5 130 Q 81.8 131.3 88.5 129 L 89.5 130 L 97.5 130 L 104 127 Q 105.9 124.3 105 117.5 L 104.5 115 Z "></path><path fill="rgb(8,0,1)" stroke="rgb(8,0,1)" stroke-width="1" opacity="1" d="M 36 0 Q 39.8 -1.5 39 1.5 L 42.5 3 L 44 0 L 50 0.5 L 47 2.5 L 44 8.5 L 46 11.5 L 45 14.5 L 45.5 16 L 42 15 L 40.5 12 Q 37.9 12.7 39 10 L 36 10 L 36 8.5 Q 33.8 7.2 36.5 6 Q 39.1 6.8 38 3.5 L 36 0 Z M 40 6 L 38 8 Q 37 11 41 9 L 40 6 Z "></path><path fill="rgb(8,0,1)" stroke="rgb(8,0,1)" stroke-width="1" opacity="1" d="M 100 0 L 106 1.5 L 101.5 3 L 100 0 Z "></path><path fill="rgb(8,0,1)" stroke="rgb(8,0,1)" stroke-width="1" opacity="1" d="M 141 0 L 151 0 L 151 4 L 141 4 L 141 0 Z "></path><path fill="rgb(8,0,1)" stroke="rgb(8,0,1)" stroke-width="1" opacity="1" d="M 108.5 1 L 112 1.5 L 108.5 2 L 108.5 1 Z "></path><path fill="rgb(8,0,1)" stroke="rgb(8,0,1)" stroke-width="1" opacity="1" d="M 102.5 5 L 105 6 Q 106.4 10 99.5 8 L 99.5 7 Q 103 8 102.5 5 Z "></path><path fill="rgb(8,0,1)" stroke="rgb(8,0,1)" stroke-width="1" opacity="1" d="M 89.5 6 L 89 7.5 L 88 11 L 93 11 L 93 8.5 L 95 7.5 L 95.5 9 L 97.5 8 L 97.5 9 Q 94.5 8.1 96 12.5 Q 98.3 13.8 95.5 15 L 90.5 14 L 89.5 15 L 77.5 15 L 75.5 14 L 74.5 15 L 63.5 15 Q 60.7 13.8 63 12.5 L 64 9 L 62 8.5 Q 63.3 5.8 68.5 7 L 70.5 8 Q 72 5.5 77.5 7 L 79.5 7 L 86.5 8 L 89.5 6 Z M 76 9 L 76 11 L 86 11 L 85 9 L 76 9 Z M 65 12 L 65 14 L 67 13 L 65 12 Z M 84 12 Q 82 14 78 13 L 78 14 L 89 14 L 90 13 L 84 12 Z M 92 12 Q 91 14 95 14 Q 96 11 92 12 Z "></path><path fill="rgb(8,0,1)" stroke="rgb(8,0,1)" stroke-width="1" opacity="1" d="M 114.5 9 L 115.5 11 L 117.5 11 L 120.5 12 L 123.5 10 L 124 14 Q 127.8 13 129 15.5 L 132 21.5 L 128.5 27 L 127 26.5 L 123.5 32 L 121.5 24 L 119 25.5 Q 120.5 19.5 117.5 18 Q 114.5 18.9 116 14.5 L 113 11.5 L 114 10.5 L 114.5 9 Z M 121 15 L 120 19 L 122 18 L 121 15 Z M 126 22 L 123 29 L 125 28 Q 124 25 127 26 L 128 24 L 126 22 Z "></path><path fill="rgb(8,0,1)" stroke="rgb(8,0,1)" stroke-width="1" opacity="1" d="M 37.5 12 L 36.5 14 L 37.5 12 Z "></path><path fill="rgb(8,0,1)" stroke="rgb(8,0,1)" stroke-width="1" opacity="1" d="M 126 36 Q 130.9 34.2 129 40.5 L 131 43.5 L 132 57.5 L 123.5 69 Q 117.4 70.8 120 63.5 L 119 60 Q 122.7 61.4 121 55.5 L 120 55.5 L 118.5 58 L 118 54.5 L 120 46.5 L 126 36 Z "></path><path fill="rgb(8,0,1)" stroke="rgb(8,0,1)" stroke-width="1" opacity="1" d="M 150.5 57 L 151 62.5 L 154 67.5 L 154 73.5 L 151.5 78 L 146 76 L 148 63 L 150 63 L 150.5 57 Z "></path><path fill="rgb(8,0,1)" stroke="rgb(8,0,1)" stroke-width="1" opacity="1" d="M 49.5 70 L 50 73.5 L 49 73.5 L 49.5 70 Z "></path><path fill="rgb(8,0,1)" stroke="rgb(8,0,1)" stroke-width="1" opacity="1" d="M 56.5 71 L 60 77 L 63 77 L 63 83.5 L 62 86 Q 59 87.3 60 83.5 Q 57.5 82 59 76.5 L 56 72.5 L 56.5 71 Z "></path><path fill="rgb(8,0,1)" stroke="rgb(8,0,1)" stroke-width="1" opacity="1" d="M 110.5 72 L 111.5 79 L 113 75 L 116.5 73 L 116 74.5 Q 116.8 81.8 113.5 85 L 111.5 82 L 110.5 91 L 110.5 72 Z M 115 76 L 113 79 Q 112 81 115 80 L 115 76 Z "></path><path fill="rgb(8,0,1)" stroke="rgb(8,0,1)" stroke-width="1" opacity="1" d="M 99.5 76 L 101 83.5 L 100 83.5 L 99.5 81 L 97 82 L 99.5 76 Z "></path><path fill="rgb(8,0,1)" stroke="rgb(8,0,1)" stroke-width="1" opacity="1" d="M 135 87 L 140 87 L 140 88.5 L 141 92.5 Q 138.5 94 140 99.5 L 138.5 101 L 129 102 Q 130 99 127 100 L 127 97.5 L 132.5 90 L 135 88.5 L 135 87 Z "></path><path fill="rgb(8,0,1)" stroke="rgb(8,0,1)" stroke-width="1" opacity="1" d="M 116.5 102 Q 122 101 123 104.5 L 122 114.5 L 119.5 119 L 118.5 115 L 116 116.5 L 116 111.5 L 113 103.5 Q 114.8 105.1 116.5 102 Z "></path><path fill="rgb(8,0,1)" stroke="rgb(8,0,1)" stroke-width="1" opacity="1" d="M 149.5 104 Q 153.3 103.3 154 105.5 L 155 109.5 L 154 110.5 Q 155 119.5 153 124 Q 149.3 125.5 150 122.5 L 148 118.5 L 147 106.5 L 149.5 104 Z "></path><path fill="rgb(8,0,1)" stroke="rgb(8,0,1)" stroke-width="1" opacity="1" d="M 133.5 120 Q 138.3 119.3 139 122.5 L 140 125.5 L 140 140.5 L 138.5 148 L 132 137.5 L 131 128.5 Q 133.5 127 132 121.5 L 133.5 120 Z "></path><path fill="rgb(8,0,1)" stroke="rgb(8,0,1)" stroke-width="1" opacity="1" d="M 42.5 133 L 43 135.5 L 42 135.5 L 42.5 133 Z "></path><path fill="rgb(8,0,1)" stroke="rgb(8,0,1)" stroke-width="1" opacity="1" d="M 117.5 138 L 120 143.5 L 121 152.5 Q 117.4 158.4 105.5 156 L 105.5 155 Q 110.8 156.3 112 153.5 L 111 146.5 L 114.5 142 L 117 140.5 L 117.5 138 Z "></path><path fill="rgb(8,0,1)" stroke="rgb(8,0,1)" stroke-width="1" opacity="1" d="M 44 148 L 47 149.5 L 46.5 151 L 44 150 L 44 148 Z "></path><path fill="rgb(8,0,1)" stroke="rgb(8,0,1)" stroke-width="1" opacity="1" d="M 63.5 149 L 65 149.5 L 62.5 154 L 56.5 155 L 56.5 154 Q 58.8 154.8 58 152.5 L 63.5 149 Z "></path><path fill="rgb(8,0,1)" stroke="rgb(8,0,1)" stroke-width="1" opacity="1" d="M 93.5 149 L 103 153.5 Q 103.8 156.1 100.5 155 L 96.5 154 Q 95.3 156.3 94 153.5 L 93.5 149 Z "></path><path fill="rgb(4,2,2)" stroke="rgb(4,2,2)" stroke-width="1" opacity="1" d="M 0 0 L 6 0 L 6 9 L 3 10.5 Q 3.7 13.5 0 12 L 0 0 Z "></path><path fill="rgb(4,2,2)" stroke="rgb(4,2,2)" stroke-width="1" opacity="1" d="M 25.5 0 L 26 5 Q 29.7 6.3 28 0.5 L 29 0.5 L 29 6 L 26.5 6 Q 23.6 4.6 25.5 0 Z "></path><path fill="rgb(4,2,2)" stroke="rgb(4,2,2)" stroke-width="1" opacity="1" d="M 32 0 Q 37.2 -2.1 36 2.5 Q 33.8 3.7 36.5 5 L 38 5.5 L 33 7 Q 31.9 9.7 34.5 9 L 36 8.5 L 36 10 Q 32.2 8.5 33 11.5 Q 31.8 15.3 25.5 14 L 25.5 13 Q 30.8 14.3 32 11.5 L 31 8.5 L 33 3.5 L 32 0 Z "></path><path fill="rgb(4,2,2)" stroke="rgb(4,2,2)" stroke-width="1" opacity="1" d="M 64.5 0 L 65 1.5 L 62 3.5 L 64.5 0 Z "></path><path fill="rgb(4,2,2)" stroke="rgb(4,2,2)" stroke-width="1" opacity="1" d="M 98.5 0 L 101 4.5 L 98 5 Q 99.3 1.3 93.5 3 L 90 5.5 Q 91.6 0.8 98 2 L 98.5 0 Z "></path><path fill="rgb(4,2,2)" stroke="rgb(4,2,2)" stroke-width="1" opacity="1" d="M 140.5 0 L 141 5.5 L 140 5.5 L 140.5 0 Z "></path><path fill="rgb(4,2,2)" stroke="rgb(4,2,2)" stroke-width="1" opacity="1" d="M 68.5 2 L 67 4.5 L 68 6.5 L 65.5 7 L 66 5.5 L 68.5 2 Z "></path><path fill="rgb(4,2,2)" stroke="rgb(4,2,2)" stroke-width="1" opacity="1" d="M 78.5 2 L 86.5 7 L 88.5 6 L 88.5 7 L 85.5 8 Q 84.2 5.8 79.5 7 L 77.5 7 Q 72.7 8.7 74 4.5 L 75 4.5 L 75.5 6 L 78.5 2 Z M 79 3 L 77 6 Q 78 8 80 6 Q 82 7 81 5 L 79 3 Z "></path><path fill="rgb(4,2,2)" stroke="rgb(4,2,2)" stroke-width="1" opacity="1" d="M 89.5 2 L 88.5 4 L 87 3.5 L 89.5 2 Z "></path><path fill="rgb(4,2,2)" stroke="rgb(4,2,2)" stroke-width="1" opacity="1" d="M 97.5 6 L 98.5 8 L 95.5 9 L 95 7 L 97.5 6 Z "></path><path fill="rgb(4,2,2)" stroke="rgb(4,2,2)" stroke-width="1" opacity="1" d="M 27.5 8 L 30 8.5 L 27.5 9 L 27.5 8 Z "></path><path fill="rgb(4,2,2)" stroke="rgb(4,2,2)" stroke-width="1" opacity="1" d="M 25.5 9 L 25 10.5 L 24.5 12 L 24 10.5 L 25.5 9 Z "></path><path fill="rgb(4,2,2)" stroke="rgb(4,2,2)" stroke-width="1" opacity="1" d="M 121.5 9 L 123 9.5 L 119.5 11 L 119.5 10 L 121.5 9 Z "></path><path fill="rgb(4,2,2)" stroke="rgb(4,2,2)" stroke-width="1" opacity="1" d="M 128.5 9 L 131 15.5 L 129 16.5 L 127 13.5 L 128.5 9 Z "></path><path fill="rgb(4,2,2)" stroke="rgb(4,2,2)" stroke-width="1" opacity="1" d="M 36.5 12 L 36 13.5 Q 34.1 18.9 37.5 18 L 39.5 17 L 39.5 18 L 35 20 L 34 14.5 L 36.5 12 Z "></path><path fill="rgb(4,2,2)" stroke="rgb(4,2,2)" stroke-width="1" opacity="1" d="M 29.5 17 Q 33.3 15.8 32 19.5 Q 30.7 23 26 22 Q 24.5 18.2 27.5 19 L 29.5 17 Z "></path><path fill="rgb(4,2,2)" stroke="rgb(4,2,2)" stroke-width="1" opacity="1" d="M 41.5 18 L 41 19.5 L 39.5 26 Q 38.3 23.7 37 26.5 Q 38 30.3 35 29 L 34 23.5 L 37.5 22 L 39 22.5 L 41.5 18 Z "></path><path fill="rgb(4,2,2)" stroke="rgb(4,2,2)" stroke-width="1" opacity="1" d="M 132.5 22 L 134 25 Q 130.5 26.1 132.5 22 Z "></path><path fill="rgb(4,2,2)" stroke="rgb(4,2,2)" stroke-width="1" opacity="1" d="M 26 26 Q 29.7 24.8 28 30 Q 24.3 31.2 26 26 Z "></path><path fill="rgb(4,2,2)" stroke="rgb(4,2,2)" stroke-width="1" opacity="1" d="M 125.5 29 L 126 35 L 128 35.5 L 126 36 L 123.5 41 L 123 32.5 L 125.5 29 Z "></path><path fill="rgb(4,2,2)" stroke="rgb(4,2,2)" stroke-width="1" opacity="1" d="M 150.5 29 L 153 30 Q 154 33 151 32 L 151 34.5 L 149.5 34 L 148 34 L 148 30 L 150.5 29 Z "></path><path fill="rgb(4,2,2)" stroke="rgb(4,2,2)" stroke-width="1" opacity="1" d="M 35.5 33 L 36 54 L 32.5 55 L 31 51.5 Q 33.2 50.2 32 45.5 L 31 41.5 L 32 35 Q 35.8 36.3 35.5 33 Z M 33 38 L 33 47 L 35 48 L 35 39 L 33 38 Z "></path><path fill="rgb(4,2,2)" stroke="rgb(4,2,2)" stroke-width="1" opacity="1" d="M 119.5 42 L 120.5 44 L 122 43.5 L 119.5 48 L 119 45.5 L 119 43.5 L 119.5 42 Z "></path><path fill="rgb(4,2,2)" stroke="rgb(4,2,2)" stroke-width="1" opacity="1" d="M 25 45 L 28 46.5 L 29 51 L 25 51 L 25 45 Z "></path><path fill="rgb(4,2,2)" stroke="rgb(4,2,2)" stroke-width="1" opacity="1" d="M 38.5 48 L 39 50.5 L 38 50.5 L 38.5 48 Z "></path><path fill="rgb(4,2,2)" stroke="rgb(4,2,2)" stroke-width="1" opacity="1" d="M 42.5 51 L 43 54.5 L 42 54.5 L 42.5 51 Z "></path><path fill="rgb(4,2,2)" stroke="rgb(4,2,2)" stroke-width="1" opacity="1" d="M 37.5 56 L 41 57.5 L 44.5 67 L 46.5 66 L 48.5 69 L 45.5 68 Q 41.5 68.5 41 65.5 Q 41.6 60.1 40 58 Q 37 56.8 38 60.5 L 40 70.5 L 42.5 73 L 46 74 L 46.5 71 L 47 73.5 Q 44.2 75.3 46 81.5 L 47 86.5 L 45.5 92 L 44 87 Q 40 85.6 42 92.5 L 38 98.5 L 38 101 L 36 101.5 L 36 114.5 L 35 118 Q 32.3 119.1 33 116.5 L 32 115.5 L 32 102 L 35 100.5 L 35 92.5 L 39 87 L 42 85.5 Q 41.3 82.9 44 84 L 44 81.5 L 45 76.5 L 44 74 L 40 72.5 L 40 71 L 38 70.5 L 38 62.5 Q 35.3 61.8 36 57.5 L 37.5 56 Z M 46 83 L 45 86 L 46 86 L 46 83 Z M 34 104 L 33 107 L 34 107 L 34 104 Z "></path><path fill="rgb(4,2,2)" stroke="rgb(4,2,2)" stroke-width="1" opacity="1" d="M 117.5 56 L 118 58.5 L 117 58.5 L 117.5 56 Z "></path><path fill="rgb(4,2,2)" stroke="rgb(4,2,2)" stroke-width="1" opacity="1" d="M 29 61 L 33 63.5 Q 33.8 69.6 32 72 L 28 69.5 Q 27.3 63.4 29 61 Z M 31 63 Q 28 64 29 69 Q 31 72 32 69 Q 33 64 31 63 Z "></path><path fill="rgb(4,2,2)" stroke="rgb(4,2,2)" stroke-width="1" opacity="1" d="M 118.5 62 Q 122 64 117.5 66 L 117 63.5 L 118.5 62 Z "></path><path fill="rgb(4,2,2)" stroke="rgb(4,2,2)" stroke-width="1" opacity="1" d="M 114.5 66 Q 117 67.2 116 71 L 122 73.5 L 123 76.5 L 116.5 79 L 116 77 L 121 77 L 121 74.5 Q 120.3 72.3 116.5 73 L 114 74.5 L 113 71.5 L 115 71.5 L 114.5 66 Z "></path><path fill="rgb(4,2,2)" stroke="rgb(4,2,2)" stroke-width="1" opacity="1" d="M 124.5 68 L 125 70 L 121 69.5 L 124.5 68 Z "></path><path fill="rgb(4,2,2)" stroke="rgb(4,2,2)" stroke-width="1" opacity="1" d="M 124 71 L 128 71.5 L 125 73.5 Q 123.5 78.8 128 77 L 128.5 73 L 129 76.5 L 125.5 78 Q 122.5 76.4 124 71 Z "></path><path fill="rgb(4,2,2)" stroke="rgb(4,2,2)" stroke-width="1" opacity="1" d="M 26.5 73 L 29 74.5 Q 30.3 78.3 26.5 77 L 25 74.5 L 26.5 73 Z "></path><path fill="rgb(4,2,2)" stroke="rgb(4,2,2)" stroke-width="1" opacity="1" d="M 36.5 73 L 39 74 L 38 78 L 32 80 Q 30.5 76.2 33.5 77 L 36.5 73 Z "></path><path fill="rgb(4,2,2)" stroke="rgb(4,2,2)" stroke-width="1" opacity="1" d="M 59.5 73 L 63 75 L 62.5 77 L 59.5 73 Z "></path><path fill="rgb(4,2,2)" stroke="rgb(4,2,2)" stroke-width="1" opacity="1" d="M 101.5 74 L 100.5 76 L 101.5 74 Z "></path><path fill="rgb(4,2,2)" stroke="rgb(4,2,2)" stroke-width="1" opacity="1" d="M 97.5 76 L 99 76.5 L 96 78.5 L 95.5 80 L 95 77 L 97.5 76 Z "></path><path fill="rgb(4,2,2)" stroke="rgb(4,2,2)" stroke-width="1" opacity="1" d="M 115.5 80 L 116 86.5 L 114.5 93 L 114 83.5 L 115.5 80 Z "></path><path fill="rgb(4,2,2)" stroke="rgb(4,2,2)" stroke-width="1" opacity="1" d="M 63 81 L 65 81.5 L 63.5 84 L 63 81 Z "></path><path fill="rgb(4,2,2)" stroke="rgb(4,2,2)" stroke-width="1" opacity="1" d="M 138.5 81 Q 143 80.5 143 81.5 L 143 94.5 L 140 102 L 134.5 103 L 134.5 102 L 140 99.5 L 141 89.5 L 140 87 L 135 87 L 135 88.5 L 126 96.5 L 127.5 100 L 130.5 102 L 130.5 103 Q 126 104 125 101.5 L 124 96.5 L 126.5 93 L 129 91.5 Q 127.1 86.1 130.5 87 L 132 84 Q 136.6 84.6 138.5 81 Z "></path><path fill="rgb(4,2,2)" stroke="rgb(4,2,2)" stroke-width="1" opacity="1" d="M 49.5 83 L 50 85.5 L 49 85.5 L 49.5 83 Z "></path><path fill="rgb(4,2,2)" stroke="rgb(4,2,2)" stroke-width="1" opacity="1" d="M 26 86 L 28 86.5 L 28 93 L 26 92.5 L 26 86 Z "></path><path fill="rgb(4,2,2)" stroke="rgb(4,2,2)" stroke-width="1" opacity="1" d="M 60 86 L 64 86.5 L 59.5 89 L 60 87.5 L 60 86 Z "></path><path fill="rgb(4,2,2)" stroke="rgb(4,2,2)" stroke-width="1" opacity="1" d="M 47.5 95 L 49 95.5 L 45 98.5 Q 44.3 102.8 47 103.5 L 45.5 103 Q 42.1 103.9 44 98.5 L 45 96 L 47.5 95 Z "></path><path fill="rgb(4,2,2)" stroke="rgb(4,2,2)" stroke-width="1" opacity="1" d="M 28.5 96 L 29 102.5 L 28 102.5 Q 28.7 99.9 26 101 L 25.5 103 L 25 100.5 L 26 97 L 28.5 96 Z "></path><path fill="rgb(4,2,2)" stroke="rgb(4,2,2)" stroke-width="1" opacity="1" d="M 117.5 98 L 119 102 L 113.5 103 L 113 100 Q 116.4 100.8 117.5 98 Z "></path><path fill="rgb(4,2,2)" stroke="rgb(4,2,2)" stroke-width="1" opacity="1" d="M 39.5 101 L 43 102 L 43 107.5 L 41.5 108 L 39 107 L 39.5 101 Z M 42 103 L 40 105 L 42 105 L 42 103 Z "></path><path fill="rgb(4,2,2)" stroke="rgb(4,2,2)" stroke-width="1" opacity="1" d="M 149.5 101 Q 153.3 100.3 154 102.5 L 156 108.5 L 155 108.5 L 152.5 104 Q 148.3 103.3 147.5 106 L 147 104.5 L 147.5 102 L 149.5 101 Z "></path><path fill="rgb(4,2,2)" stroke="rgb(4,2,2)" stroke-width="1" opacity="1" d="M 121.5 102 L 124 103.5 L 125 109.5 L 123 111.5 L 122 120.5 L 123 123.5 L 120.5 125 L 119.5 123 L 122 124 L 120.5 119 L 119.5 121 L 119 119.5 L 122 114.5 L 123 104.5 L 121.5 102 Z "></path><path fill="rgb(4,2,2)" stroke="rgb(4,2,2)" stroke-width="1" opacity="1" d="M 28.5 105 L 29 107.5 L 26.5 109 L 25 106.5 L 26.5 107 Q 29 107.7 28.5 105 Z "></path><path fill="rgb(4,2,2)" stroke="rgb(4,2,2)" stroke-width="1" opacity="1" d="M 147.5 110 Q 147.1 119.2 150 124 Q 154.1 125.7 153 121.5 L 154 120.5 L 154.5 110 L 156 120.5 Q 151.7 123 153 130 L 149 129 L 147 120.5 L 147.5 110 Z "></path><path fill="rgb(4,2,2)" stroke="rgb(4,2,2)" stroke-width="1" opacity="1" d="M 43.5 112 L 44 115.5 L 43 115.5 L 43.5 112 Z "></path><path fill="rgb(4,2,2)" stroke="rgb(4,2,2)" stroke-width="1" opacity="1" d="M 39.5 114 L 40 119 L 38 119.5 L 38 128.5 L 40 128.5 L 41.5 132 L 43 131.5 L 42 134 L 39.5 135 L 37.5 131 L 35 132.5 Q 32.2 134.2 33 139.5 L 31 141.5 L 31.5 143 L 28.5 144 L 28 141.5 L 28 139.5 L 28.5 138 L 29 140 L 32 138.5 L 33 132 L 29 133 L 28.5 135 L 28 132 L 25 130.5 L 26 124.5 Q 23.8 123.3 25 118.5 L 26 115 Q 29 113.8 28 117.5 L 29 118.5 L 29 131 L 35 131 L 35 128.5 L 37 126.5 Q 35.9 117.9 39.5 114 Z M 26 128 Q 25 131 28 130 Q 29 127 26 128 Z "></path><path fill="rgb(4,2,2)" stroke="rgb(4,2,2)" stroke-width="1" opacity="1" d="M 35.5 119 L 36 121.5 L 35 121.5 L 35.5 119 Z "></path><path fill="rgb(4,2,2)" stroke="rgb(4,2,2)" stroke-width="1" opacity="1" d="M 117.5 119 L 118 123.5 L 117 123.5 L 117.5 119 Z "></path><path fill="rgb(4,2,2)" stroke="rgb(4,2,2)" stroke-width="1" opacity="1" d="M 128.5 125 L 129 127.5 L 128 127.5 L 128.5 125 Z "></path><path fill="rgb(4,2,2)" stroke="rgb(4,2,2)" stroke-width="1" opacity="1" d="M 120.5 126 L 123 127.5 L 121.5 127 L 120.5 126 Z "></path><path fill="rgb(4,2,2)" stroke="rgb(4,2,2)" stroke-width="1" opacity="1" d="M 120 136 Q 123 135 122 138 Q 119 137 120 140 Q 123 139 122 142 Q 117.9 143.7 119 139.5 L 117.5 137 L 120 138 L 120 136 Z "></path><path fill="rgb(4,2,2)" stroke="rgb(4,2,2)" stroke-width="1" opacity="1" d="M 38.5 138 L 39.5 140 Q 36.7 140.7 38.5 138 Z "></path><path fill="rgb(4,2,2)" stroke="rgb(4,2,2)" stroke-width="1" opacity="1" d="M 35.5 140 L 37 140.5 L 35 142.5 L 36.5 145 L 34 143.5 L 35.5 140 Z "></path><path fill="rgb(4,2,2)" stroke="rgb(4,2,2)" stroke-width="1" opacity="1" d="M 40.5 141 L 41 143.5 L 38.5 145 L 38.5 144 Q 41.4 144.7 40.5 141 Z "></path><path fill="rgb(4,2,2)" stroke="rgb(4,2,2)" stroke-width="1" opacity="1" d="M 32.5 144 L 33 149.5 L 27.5 152 Q 25.3 151.3 26 147.5 L 28 146.5 L 27 151 Q 30.8 151.8 32 148.5 L 32.5 144 Z "></path><path fill="rgb(4,2,2)" stroke="rgb(4,2,2)" stroke-width="1" opacity="1" d="M 42.5 145 L 41 147.5 L 42 150.5 L 40 149.5 Q 39.5 145.5 42.5 145 Z "></path><path fill="rgb(4,2,2)" stroke="rgb(4,2,2)" stroke-width="1" opacity="1" d="M 44.5 146 L 47 147.5 L 45.5 147 L 44.5 146 Z "></path><path fill="rgb(4,2,2)" stroke="rgb(4,2,2)" stroke-width="1" opacity="1" d="M 120.5 148 L 122 152.5 L 120 153.5 L 121 150.5 L 120.5 148 Z "></path><path fill="rgb(4,2,2)" stroke="rgb(4,2,2)" stroke-width="1" opacity="1" d="M 35.5 149 L 39 149.5 L 35 150 Q 32.8 155.6 38.5 154 L 38.5 155 Q 34.8 155.8 34 153.5 Q 33.3 149.8 35.5 149 Z "></path><path fill="rgb(4,2,2)" stroke="rgb(4,2,2)" stroke-width="1" opacity="1" d="M 44.5 150 L 46 150.5 L 43.5 152 L 44.5 150 Z "></path><path fill="rgb(4,2,2)" stroke="rgb(4,2,2)" stroke-width="1" opacity="1" d="M 46.5 152 L 48 154.5 L 46 153.5 L 46.5 152 Z "></path><path fill="rgb(4,2,2)" stroke="rgb(4,2,2)" stroke-width="1" opacity="1" d="M 64.5 152 L 67 153.5 L 63.5 154 L 64.5 152 Z "></path><path fill="rgb(4,2,2)" stroke="rgb(4,2,2)" stroke-width="1" opacity="1" d="M 71 152 Q 77.2 150.7 80 153.5 L 71 154 L 71 152 Z "></path><path fill="rgb(4,2,2)" stroke="rgb(4,2,2)" stroke-width="1" opacity="1" d="M 91 152 Q 95.1 150.7 94 154 Q 90.6 155.7 83.5 155 L 83.5 154 L 90.5 154 L 91 152 Z "></path><path fill="rgb(4,2,2)" stroke="rgb(4,2,2)" stroke-width="1" opacity="1" d="M 97.5 155 Q 102.9 153.1 102 156.5 L 103 159.5 L 102 159.5 L 100.5 156 Q 96.5 156.8 97.5 155 Z "></path><path fill="rgb(4,2,2)" stroke="rgb(4,2,2)" stroke-width="1" opacity="1" d="M 105.5 156 L 106.5 158 Q 103.7 158.7 105.5 156 Z "></path><path fill="rgb(4,2,2)" stroke="rgb(4,2,2)" stroke-width="1" opacity="1" d="M 108.5 158 Q 112.9 156.5 112 159.5 L 110.5 159 Q 107.5 159.5 108.5 158 Z "></path><path fill="rgb(4,2,2)" stroke="rgb(4,2,2)" stroke-width="1" opacity="1" d="M 49.5 159 L 55 159.5 L 49.5 160 L 49.5 159 Z "></path><path fill="rgb(155,182,169)" stroke="rgb(155,182,169)" stroke-width="1" opacity="1" d="M 54.5 10 L 58 11.5 L 56.5 14 L 52 13 Q 50.9 10.3 53.5 11 L 54.5 10 Z "></path><path fill="rgb(155,182,169)" stroke="rgb(155,182,169)" stroke-width="1" opacity="1" d="M 101 11 L 106.5 11 L 107 12.5 Q 105.6 15.3 101 14 L 101 11 Z "></path><path fill="rgb(155,182,169)" stroke="rgb(155,182,169)" stroke-width="1" opacity="1" d="M 64.5 17 L 72.5 19 Q 76 15 85.5 17 Q 87.3 19.8 93.5 18 L 101.5 22 Q 105 18.8 112 20 Q 113.1 23.5 105.5 22 Q 102.2 25.2 94.5 24 L 90.5 23 L 83.5 25 L 79 24 Q 80.8 19.1 74.5 21 L 73.5 24 L 67 23 Q 68.3 19.7 63.5 21 L 62.5 24 L 55.5 22 L 46 21.5 L 47.5 20 L 62 20 Q 60.9 17.3 63.5 18 L 64.5 17 Z M 87 20 L 88 22 L 91 22 Q 90 19 87 20 Z "></path><path fill="rgb(155,182,169)" stroke="rgb(155,182,169)" stroke-width="1" opacity="1" d="M 72.5 62 Q 90.3 59.3 97 67.5 L 92.5 68 Q 91 65.5 85.5 67 L 82.5 68 L 80 67 Q 81.3 64 77.5 65 L 71.5 68 L 69.5 67 Q 68.8 69.8 64.5 69 L 63 66.5 L 72.5 62 Z "></path><path fill="rgb(155,182,169)" stroke="rgb(155,182,169)" stroke-width="1" opacity="1" d="M 74.5 134 Q 78.3 133 77 136 L 80.5 136 Q 82 138.5 87.5 137 Q 88.8 134.8 93.5 136 Q 94.7 138.3 99.5 137 Q 102.1 133.6 109.5 135 L 111 137.5 L 107.5 143 L 89.5 145 L 88.5 146 L 77.5 146 L 72.5 145 L 70.5 146 L 54 142.5 L 57 138 Q 60.3 135.9 68.5 137 L 74.5 134 Z "></path><path fill="rgb(79,166,159)" stroke="rgb(79,166,159)" stroke-width="1" opacity="1" d="M 75.5 59 L 92.5 61 L 100 66.5 Q 100.8 68.8 98.5 68 L 94.5 70 Q 91.8 67.2 85.5 68 L 79.5 70 L 77.5 69 L 73.5 71 L 68.5 69 L 64.5 70 L 62 66.5 L 69.5 61 Q 74.1 61.6 75.5 59 Z M 73 62 L 63 67 L 65 69 Q 69 70 70 67 L 72 68 L 78 65 Q 81 64 80 67 L 83 68 L 86 67 Q 91 66 93 68 L 97 68 Q 90 59 73 62 Z "></path><path fill="rgb(79,166,159)" stroke="rgb(79,166,159)" stroke-width="1" opacity="1" d="M 77 79 Q 80.8 78 82 80.5 Q 82.9 83.5 78.5 82 L 77 79 Z "></path><path fill="rgb(79,166,159)" stroke="rgb(79,166,159)" stroke-width="1" opacity="1" d="M 73 90 L 76 91.5 L 74.5 94 L 73 94 L 73 90 Z "></path><path fill="rgb(79,166,159)" stroke="rgb(79,166,159)" stroke-width="1" opacity="1" d="M 91 95 Q 96.6 93.1 95 98 L 91 96.5 L 91 95 Z "></path><path fill="rgb(79,166,159)" stroke="rgb(79,166,159)" stroke-width="1" opacity="1" d="M 76.5 131 L 95.5 134 L 100.5 132 Q 102.8 134.8 108 134.5 Q 102 134 99.5 137 L 94.5 137 Q 93.3 134.8 88.5 136 Q 87 138.5 81.5 137 L 77 136 Q 78.3 133 74.5 134 L 68.5 137 Q 60.3 135.9 57 138 L 55.5 141 L 56 139.5 L 54.5 137 Q 51.9 137.7 53 135 L 58.5 135 L 59 133.5 Q 60.3 130.8 65.5 132 L 69.5 133 L 76.5 131 Z "></path><path fill="rgb(1,0,0)" stroke="rgb(1,0,0)" stroke-width="1" opacity="1" d="M 6 0 L 9 0.5 L 9 10 L 6 10 L 6 19 L 0 19 L 0 12 Q 3.8 13.5 3 10.5 L 6 9 L 6 0 Z "></path><path fill="rgb(1,0,0)" stroke="rgb(1,0,0)" stroke-width="1" opacity="1" d="M 151 0 L 156 0 L 156 6 Q 152.7 4.9 154 9 L 148.5 9 L 147.5 10 L 141 10 L 141 4 L 151 4 L 151 0 Z "></path><path fill="rgb(1,0,0)" stroke="rgb(1,0,0)" stroke-width="1" opacity="1" d="M 36.5 2 L 38 5 Q 34.5 6.1 36.5 2 Z "></path><path fill="rgb(1,0,0)" stroke="rgb(1,0,0)" stroke-width="1" opacity="1" d="M 64.5 5 L 66 5.5 L 61.5 8 L 61.5 7 L 64.5 5 Z "></path><path fill="rgb(1,0,0)" stroke="rgb(1,0,0)" stroke-width="1" opacity="1" d="M 84.5 5 L 87 6.5 L 85.5 7 L 84.5 5 Z "></path><path fill="rgb(1,0,0)" stroke="rgb(1,0,0)" stroke-width="1" opacity="1" d="M 36.5 10 Q 39.1 9.3 38 12 L 34 14.5 Q 35.7 20.4 32 19 L 33 14.5 L 32.5 13 L 34 12.5 L 33.5 11 L 36.5 10 Z "></path><path fill="rgb(1,0,0)" stroke="rgb(1,0,0)" stroke-width="1" opacity="1" d="M 129.5 10 L 130 12 L 134 10 Q 132.5 14.5 137 13 L 137 19 Q 133 17.6 135 24.5 L 134 25.5 L 134 32 L 132 32.5 L 132 40.5 Q 134.2 41.7 133 46.5 L 135 48.5 L 135 53.5 L 134 54.5 L 134 61 L 131 61 L 131 66.5 L 129.5 67 Q 128.3 64.8 127 67.5 L 126.5 69 L 126 65.5 L 132 57.5 L 132 49.5 L 131 46.5 L 129 36.5 L 127.5 35 Q 124.5 35.5 126 28.5 L 130 25.5 L 132 20.5 L 130 16.5 L 131 14.5 Q 127.9 13.4 129.5 10 Z M 133 22 Q 130 26 134 25 L 133 22 Z "></path><path fill="rgb(1,0,0)" stroke="rgb(1,0,0)" stroke-width="1" opacity="1" d="M 65 12 L 67 12.5 L 65 13.5 L 65 12 Z "></path><path fill="rgb(1,0,0)" stroke="rgb(1,0,0)" stroke-width="1" opacity="1" d="M 83.5 12 L 85 12.5 Q 83.5 15.5 77.5 14 L 77.5 13 Q 82.3 14.2 83.5 12 Z "></path><path fill="rgb(1,0,0)" stroke="rgb(1,0,0)" stroke-width="1" opacity="1" d="M 88 12 L 90 12.5 L 88 13.5 L 88 12 Z "></path><path fill="rgb(1,0,0)" stroke="rgb(1,0,0)" stroke-width="1" opacity="1" d="M 91.5 12 Q 96.3 10.7 95 14 Q 90.8 14 91.5 12 Z "></path><path fill="rgb(1,0,0)" stroke="rgb(1,0,0)" stroke-width="1" opacity="1" d="M 40.5 17 L 44 17.5 L 39.5 20 L 39 18.5 L 40.5 17 Z "></path><path fill="rgb(1,0,0)" stroke="rgb(1,0,0)" stroke-width="1" opacity="1" d="M 121.5 24 L 122 29.5 L 121 29.5 L 120 25.5 L 121.5 24 Z "></path><path fill="rgb(1,0,0)" stroke="rgb(1,0,0)" stroke-width="1" opacity="1" d="M 150 26 L 154 26 Q 152.7 30.1 156 29 L 156 42 Q 153 40.8 154 44.5 L 152.5 44 L 150.5 45 L 146 37.5 L 146 29.5 L 150 28 L 150 26 Z M 151 29 L 148 30 L 148 34 L 150 34 L 151 35 L 151 32 Q 154 33 153 30 L 151 29 Z "></path><path fill="rgb(1,0,0)" stroke="rgb(1,0,0)" stroke-width="1" opacity="1" d="M 13 32 L 26 32 Q 25 36.3 28 35.5 L 28 44.5 L 30 50.5 L 28 51.5 L 29 48.5 L 28 45 Q 22.7 43.2 25 50.5 L 25.5 52 L 16 51 L 16 48 L 13 47.5 L 13 32 Z "></path><path fill="rgb(1,0,0)" stroke="rgb(1,0,0)" stroke-width="1" opacity="1" d="M 121.5 41 Q 123.8 40.3 123 42.5 L 121.5 41 Z "></path><path fill="rgb(1,0,0)" stroke="rgb(1,0,0)" stroke-width="1" opacity="1" d="M 153.5 51 L 154.5 55 L 156 54.5 L 157 73.5 Q 154.7 74.7 156 79.5 L 154.5 81 L 147 83 Q 148 87.3 145 86.5 L 145 92.5 L 142 100.5 L 139.5 103 L 138 102.5 L 140 102 Q 144.9 95 143 81 L 138.5 81 Q 136.6 84.6 132 84 L 130.5 87 Q 127.1 86.1 129 91.5 L 125 93 L 124.5 96 L 124 93.5 L 127 92 L 127 86.5 L 128.5 86 L 132.5 82 L 138 79.5 Q 136.9 76.2 139.5 77 L 142 76 L 141 70 Q 145 71.4 143 64.5 L 145 62.5 Q 144 56 147.5 54 L 150 54 Q 148.8 51 152.5 52 L 153.5 51 Z M 151 57 L 150 63 L 148 63 L 146 76 L 152 78 L 154 74 L 154 68 L 151 63 L 151 57 Z "></path><path fill="rgb(1,0,0)" stroke="rgb(1,0,0)" stroke-width="1" opacity="1" d="M 118.5 52 L 119 53.5 L 117.5 56 L 117 54.5 L 118.5 52 Z "></path><path fill="rgb(1,0,0)" stroke="rgb(1,0,0)" stroke-width="1" opacity="1" d="M 119.5 64 Q 119 69.5 122.5 71 Q 124.8 70.3 124 72.5 Q 122.3 75.8 120.5 72 L 116 71 L 116 66 L 117.5 66 L 119.5 64 Z "></path><path fill="rgb(1,0,0)" stroke="rgb(1,0,0)" stroke-width="1" opacity="1" d="M 58.5 72 L 60 74.5 L 58 73.5 L 58.5 72 Z "></path><path fill="rgb(1,0,0)" stroke="rgb(1,0,0)" stroke-width="1" opacity="1" d="M 111.5 72 L 112.5 74 L 113.5 72 L 114 74.5 L 111.5 79 L 111.5 72 Z "></path><path fill="rgb(1,0,0)" stroke="rgb(1,0,0)" stroke-width="1" opacity="1" d="M 49.5 74 L 50 82.5 L 49 82.5 L 49.5 74 Z "></path><path fill="rgb(1,0,0)" stroke="rgb(1,0,0)" stroke-width="1" opacity="1" d="M 117.5 78 L 117 79.5 L 116.5 84 L 116 79.5 L 117.5 78 Z "></path><path fill="rgb(1,0,0)" stroke="rgb(1,0,0)" stroke-width="1" opacity="1" d="M 65.5 81 L 64.5 83 L 65.5 81 Z "></path><path fill="rgb(1,0,0)" stroke="rgb(1,0,0)" stroke-width="1" opacity="1" d="M 99.5 81 L 101 84.5 L 99 83.5 L 99.5 81 Z "></path><path fill="rgb(1,0,0)" stroke="rgb(1,0,0)" stroke-width="1" opacity="1" d="M 111.5 82 Q 114.8 83.7 114 89.5 L 113 89.5 L 111.5 82 Z "></path><path fill="rgb(1,0,0)" stroke="rgb(1,0,0)" stroke-width="1" opacity="1" d="M 62 84 Q 65 83 64 86 Q 61 87 62 84 Z "></path><path fill="rgb(1,0,0)" stroke="rgb(1,0,0)" stroke-width="1" opacity="1" d="M 131.5 102 L 134 102.5 L 131.5 103 L 131.5 102 Z "></path><path fill="rgb(1,0,0)" stroke="rgb(1,0,0)" stroke-width="1" opacity="1" d="M 154.5 102 L 157 106.5 L 157 121.5 L 156 122.5 L 156 130.5 L 154 132.5 L 154 141 L 150 141 L 150 134.5 L 148.5 135 Q 145.5 135.9 147 131.5 L 148 128.5 L 146 124.5 L 146 103 L 148 103.5 L 147 104.5 L 147 120.5 L 149 129 L 153 130 L 153 124.5 L 156 118.5 L 155 117.5 L 155 109.5 L 156 106.5 L 154.5 102 Z "></path><path fill="rgb(1,0,0)" stroke="rgb(1,0,0)" stroke-width="1" opacity="1" d="M 31.5 115 L 32 117.5 L 31 117.5 L 31.5 115 Z "></path><path fill="rgb(1,0,0)" stroke="rgb(1,0,0)" stroke-width="1" opacity="1" d="M 118.5 115 L 119 121.5 L 118 121.5 L 117 116.5 L 118.5 115 Z "></path><path fill="rgb(1,0,0)" stroke="rgb(1,0,0)" stroke-width="1" opacity="1" d="M 131 116 L 138 116 Q 136.9 119.3 141 118 L 141 121.5 L 142 122.5 L 142 136.5 L 141 140.5 Q 143.3 141.8 142 146.5 L 138 156 L 134 156 L 134 147.5 L 132 141 L 130 140.5 L 130 131.5 L 129 130.5 L 129 118 Q 132 119 131 116 Z M 134 120 L 132 122 Q 134 127 131 129 L 132 138 L 139 148 L 140 141 L 140 126 L 139 123 Q 138 119 134 120 Z "></path><path fill="rgb(1,0,0)" stroke="rgb(1,0,0)" stroke-width="1" opacity="1" d="M 119.5 142 L 121 144.5 L 120 144.5 L 119.5 142 Z "></path><path fill="rgb(1,0,0)" stroke="rgb(1,0,0)" stroke-width="1" opacity="1" d="M 61.5 154 Q 66 153 67 155.5 L 62.5 157 L 60.5 156 L 58.5 156 L 53 155.5 L 61.5 154 Z "></path><path fill="rgb(1,0,0)" stroke="rgb(1,0,0)" stroke-width="1" opacity="1" d="M 92.5 154 L 95.5 155 L 99.5 154 L 99.5 155 L 95 156.5 L 98 157.5 L 95.5 158 L 90 155.5 L 92.5 154 Z "></path><path fill="rgb(1,0,0)" stroke="rgb(1,0,0)" stroke-width="1" opacity="1" d="M 119.5 154 Q 122.1 153.3 121 156 L 115.5 158 L 110.5 157 L 109 157.5 L 109.5 156 L 116.5 156 L 119.5 154 Z "></path><path fill="rgb(0,0,0)" stroke="rgb(0,0,0)" stroke-width="1" opacity="1" d="M 9 0 L 19 0 L 19 18.5 L 19.5 19 L 25 19 Q 24 15.2 26.5 14 Q 34.1 12.5 33 16 L 29.5 16 L 25 19.5 L 26.5 23 L 31.5 22 L 33 22.5 Q 31.7 17.7 35 19 Q 33.2 22.8 34 30.5 L 32.5 32 L 31 32.5 L 31 50.5 L 30 55 L 33.5 56 L 35 55.5 L 34 61 L 37 62.5 Q 36.3 69.5 38 73 L 34 74.5 Q 34.8 76.8 32.5 76 L 31 79.5 Q 32.2 82 36 81 Q 34.9 78.3 37.5 79 Q 40.1 77.6 39.5 73 Q 40.6 75.8 44 75 L 44 81.5 L 42 82 L 42 83.5 L 41 86 L 38 87.5 Q 38.8 89.8 36.5 89 Q 32.6 92.8 34 101 L 31 102.5 L 31 117.5 L 33 118 L 33 120.5 L 34 121.5 L 34 130 L 30 130 L 30 118.5 Q 27.2 115.8 28 109.5 Q 31.5 105.5 30 96.5 L 29 92.5 Q 31.2 91.3 30 86.5 L 29 83 L 25 83.5 L 25 98.5 Q 22.5 100 24 105.5 L 25 106.5 L 25 127.5 L 24 130.5 L 28 132 L 27 137.5 Q 29.5 139 28 144.5 Q 23.5 146 25 153.5 L 27.5 152 Q 32 153 33 150.5 L 32 141.5 L 33 135 L 35.5 134 L 36 137 L 38 137.5 L 34 140.5 Q 32.1 145.9 35.5 145 L 40 146 L 40 149 L 34 149 L 34 155 L 40 155 L 40 151.5 L 41.5 152 L 46 152 L 46.5 155 L 52.5 155 L 53.5 156 L 64.5 157 L 69.5 155 Q 71.5 159 79.5 157 Q 82.5 154 89.5 155 L 97.5 158 L 101 157 L 100.5 160 L 87.5 160 L 85.5 160 L 47.5 159 L 46.5 160 L 37.5 160 L 35.5 160 L 0.5 160 L 0 159.5 L 0 150 L 5.5 150 L 6 149.5 L 6 106 L 0.5 106 L 0 105.5 L 0 48 L 6 48 L 6 42 L 3 42 L 3 38 L 0 37.5 L 0 19 L 6 19 L 6 10 L 9 9.5 L 9 0 Z M 27 25 L 25 27 L 25 32 L 13 32 L 13 48 L 16 48 L 16 51 L 24 51 L 25 52 Q 29 53 30 51 L 28 45 L 28 36 L 26 35 Q 25 31 29 32 L 30 26 L 27 25 Z M 30 60 L 27 65 Q 26 71 29 73 L 28 72 L 24 73 Q 23 77 26 78 Q 29 79 30 77 Q 29 72 32 73 Q 34 69 33 61 L 30 60 Z "></path><path fill="rgb(0,0,0)" stroke="rgb(0,0,0)" stroke-width="1" opacity="1" d="M 30.5 0 L 32 6.5 Q 31 9 26.5 8 L 26.5 7 L 30 4.5 L 30.5 0 Z "></path><path fill="rgb(0,0,0)" stroke="rgb(0,0,0)" stroke-width="1" opacity="1" d="M 55.5 0 Q 60.3 -1.3 59 2 Q 55.2 2.8 55.5 0 Z "></path><path fill="rgb(0,0,0)" stroke="rgb(0,0,0)" stroke-width="1" opacity="1" d="M 91 0 L 97 0.5 L 91.5 3 L 91 0 Z "></path><path fill="rgb(0,0,0)" stroke="rgb(0,0,0)" stroke-width="1" opacity="1" d="M 105.5 0 L 109 0.5 L 105.5 1 L 105.5 0 Z "></path><path fill="rgb(0,0,0)" stroke="rgb(0,0,0)" stroke-width="1" opacity="1" d="M 156 0 L 160 0.5 L 160 160 L 128.5 160 L 128 156 L 131 156 Q 129.9 152.7 134 154 Q 132.8 157.7 138 156 L 140 151 L 144 151 L 144 157 L 147 157 L 148 147.5 L 147 146.5 L 147 135 L 149.5 134 L 150 141 L 154 141 L 154 132.5 L 156 130.5 L 157 106.5 L 155 102.5 L 157 96.5 L 156 95.5 L 155.5 86 L 154 86.5 Q 155.7 81.7 151.5 83 L 151.5 82 L 156 79.5 L 157 67.5 L 156 66.5 L 155.5 54 L 154 54.5 L 153.5 51 L 150 52 Q 151.3 55 147.5 54 L 145 57.5 L 145 62.5 Q 141.5 64.2 143 70 Q 140 68.8 141 72.5 L 142 76 L 138 77 L 136.5 81 L 132.5 82 L 127 86 L 127 91.5 L 125.5 92 L 124 92.5 L 124 89.5 L 127 85.5 L 127 83 Q 130.3 84.1 129 80 L 134 80 L 134 77.5 L 137 76 L 137 74 L 140 73.5 L 140 64.5 L 141 61 L 144 61 L 144 54 L 147 54 Q 145.8 51 149.5 52 L 153 51 L 153 45.5 L 151.5 45 L 151.5 44 L 153.5 45 L 154 42 L 156 41.5 L 156 29 Q 152.7 30.1 154 26 L 150 26 Q 151.3 29 147.5 28 L 146 29.5 L 146 37.5 L 149 41.5 L 147 40.5 L 146.5 39 L 141 39 L 141 35 L 137 35 L 138 40.5 L 135 42 L 134.5 48 L 133 46.5 L 132 32 Q 135.5 33.1 134 25.5 L 135 19 Q 139 20.4 137 13.5 L 138 13.5 L 138 26 L 144 26 L 144 22 L 150 22 Q 148.4 17.1 154 19 L 154 13 L 144.5 13 L 144 10 L 154 9 Q 153 4.8 156 5.5 L 156 0 Z "></path><path fill="rgb(0,0,0)" stroke="rgb(0,0,0)" stroke-width="1" opacity="1" d="M 114 3 Q 117 2 116 5 Q 113 6 114 3 Z "></path><path fill="rgb(0,0,0)" stroke="rgb(0,0,0)" stroke-width="1" opacity="1" d="M 84.5 4 L 88 5.5 L 86.5 6 L 84.5 4 Z "></path><path fill="rgb(0,0,0)" stroke="rgb(0,0,0)" stroke-width="1" opacity="1" d="M 62.5 5 L 64 5.5 L 59 8 Q 57.8 5 61.5 6 L 62.5 5 Z "></path><path fill="rgb(0,0,0)" stroke="rgb(0,0,0)" stroke-width="1" opacity="1" d="M 98 5 L 102 6.5 L 98 7 L 98 5 Z "></path><path fill="rgb(0,0,0)" stroke="rgb(0,0,0)" stroke-width="1" opacity="1" d="M 21 9 Q 25.9 7.4 24 13 Q 19.1 14.6 21 9 Z "></path><path fill="rgb(0,0,0)" stroke="rgb(0,0,0)" stroke-width="1" opacity="1" d="M 129.5 9 L 134 9.5 L 132 10 Q 133 13 130 12 L 129.5 9 Z "></path><path fill="rgb(0,0,0)" stroke="rgb(0,0,0)" stroke-width="1" opacity="1" d="M 85.5 12 Q 89.3 11 88 14 L 84 13.5 L 85.5 12 Z "></path><path fill="rgb(0,0,0)" stroke="rgb(0,0,0)" stroke-width="1" opacity="1" d="M 43.5 15 L 44.5 17 L 42 16.5 L 43.5 15 Z "></path><path fill="rgb(0,0,0)" stroke="rgb(0,0,0)" stroke-width="1" opacity="1" d="M 38.5 19 L 39 20.5 L 37 21.5 L 38.5 19 Z "></path><path fill="rgb(0,0,0)" stroke="rgb(0,0,0)" stroke-width="1" opacity="1" d="M 37 27 Q 41.5 25.3 40 30.5 L 39 31.5 L 39 44 L 37 43.5 L 37 27 Z "></path><path fill="rgb(0,0,0)" stroke="rgb(0,0,0)" stroke-width="1" opacity="1" d="M 120.5 28 Q 124.3 32.5 123 41 Q 119 42.4 121 35.5 Q 118.2 33.7 120.5 28 Z "></path><path fill="rgb(0,0,0)" stroke="rgb(0,0,0)" stroke-width="1" opacity="1" d="M 41.5 48 L 42.5 50 L 40.5 51 L 40 49.5 L 41.5 48 Z "></path><path fill="rgb(0,0,0)" stroke="rgb(0,0,0)" stroke-width="1" opacity="1" d="M 118.5 48 L 119 51.5 L 117.5 54 L 117 49.5 L 118.5 48 Z "></path><path fill="rgb(0,0,0)" stroke="rgb(0,0,0)" stroke-width="1" opacity="1" d="M 135 51 Q 138.7 49.8 137 55 Q 133.3 56.2 135 51 Z "></path><path fill="rgb(0,0,0)" stroke="rgb(0,0,0)" stroke-width="1" opacity="1" d="M 37.5 52 L 43 56.5 L 46 62.5 L 46 66 L 43 66 L 43 59.5 L 42 57 L 36 55 L 37.5 52 Z "></path><path fill="rgb(0,0,0)" stroke="rgb(0,0,0)" stroke-width="1" opacity="1" d="M 116.5 55 L 117 66 Q 112.1 67.8 114 61.5 L 116 57.5 L 116.5 55 Z "></path><path fill="rgb(0,0,0)" stroke="rgb(0,0,0)" stroke-width="1" opacity="1" d="M 128.5 66 L 131 67.5 L 129 68 L 128.5 70 L 127 67.5 L 128.5 66 Z "></path><path fill="rgb(0,0,0)" stroke="rgb(0,0,0)" stroke-width="1" opacity="1" d="M 47.5 68 L 49 71.5 L 48 73.5 L 49 74.5 Q 47.7 84.8 50 91.5 L 49 95 Q 43.8 96.8 46 89.5 Q 48.8 87.8 47 81.5 Q 44.8 80.3 46 75.5 L 47.5 68 Z "></path><path fill="rgb(0,0,0)" stroke="rgb(0,0,0)" stroke-width="1" opacity="1" d="M 111.5 70 L 113 73.5 L 112 73.5 L 111.5 70 Z "></path><path fill="rgb(0,0,0)" stroke="rgb(0,0,0)" stroke-width="1" opacity="1" d="M 99 73 L 102 73.5 L 99 75 L 99 73 Z "></path><path fill="rgb(0,0,0)" stroke="rgb(0,0,0)" stroke-width="1" opacity="1" d="M 130.5 74 L 131 76.5 L 130 76.5 L 130.5 74 Z "></path><path fill="rgb(0,0,0)" stroke="rgb(0,0,0)" stroke-width="1" opacity="1" d="M 118.5 78 L 121 79.5 Q 117.8 80.9 119 86 L 116.5 87 L 116 84.5 L 118.5 78 Z "></path><path fill="rgb(0,0,0)" stroke="rgb(0,0,0)" stroke-width="1" opacity="1" d="M 68.5 79 L 70 79.5 Q 67 80.8 68 85 L 64 85 L 64 83.5 L 68.5 79 Z "></path><path fill="rgb(0,0,0)" stroke="rgb(0,0,0)" stroke-width="1" opacity="1" d="M 111.5 85 L 113 86.5 L 113 94.5 L 112 94.5 Q 109.6 91.2 111.5 85 Z "></path><path fill="rgb(0,0,0)" stroke="rgb(0,0,0)" stroke-width="1" opacity="1" d="M 145 86 Q 148 84.8 147 88.5 L 145 89.5 L 145 86 Z "></path><path fill="rgb(0,0,0)" stroke="rgb(0,0,0)" stroke-width="1" opacity="1" d="M 60.5 88 L 61 90 L 59 89.5 L 60.5 88 Z "></path><path fill="rgb(0,0,0)" stroke="rgb(0,0,0)" stroke-width="1" opacity="1" d="M 43.5 89 L 45 96.5 L 44 97.5 L 44 104 Q 47 102.8 46 106.5 L 43 108.5 L 43 101.5 L 40.5 101 Q 37.8 99.8 40 98.5 L 43.5 89 Z "></path><path fill="rgb(0,0,0)" stroke="rgb(0,0,0)" stroke-width="1" opacity="1" d="M 36.5 103 L 37 105.5 L 36 105.5 L 36.5 103 Z "></path><path fill="rgb(0,0,0)" stroke="rgb(0,0,0)" stroke-width="1" opacity="1" d="M 145.5 105 L 146 125 L 144 125 L 144 136.5 L 142 137 L 142 122.5 Q 145.2 123.4 144 115.5 L 145 114.5 L 145.5 105 Z "></path><path fill="rgb(0,0,0)" stroke="rgb(0,0,0)" stroke-width="1" opacity="1" d="M 40 109 L 43 110.5 L 43 129.5 L 40 130 Q 41.8 126.2 41 118.5 L 40 117.5 L 40 109 Z "></path><path fill="rgb(0,0,0)" stroke="rgb(0,0,0)" stroke-width="1" opacity="1" d="M 131.5 115 L 141 116 Q 142.1 119.3 138 118 Q 139.1 114.5 131.5 116 L 131.5 115 Z "></path><path fill="rgb(0,0,0)" stroke="rgb(0,0,0)" stroke-width="1" opacity="1" d="M 118.5 122 L 120 126.5 L 119 127.5 L 119 135.5 L 119.5 137 L 117 136 Q 115.8 127.4 118.5 122 Z "></path><path fill="rgb(0,0,0)" stroke="rgb(0,0,0)" stroke-width="1" opacity="1" d="M 147.5 128 L 148 130.5 L 147 130.5 L 147.5 128 Z "></path><path fill="rgb(0,0,0)" stroke="rgb(0,0,0)" stroke-width="1" opacity="1" d="M 129.5 131 L 130 133.5 L 129 133.5 L 129.5 131 Z "></path><path fill="rgb(0,0,0)" stroke="rgb(0,0,0)" stroke-width="1" opacity="1" d="M 40.5 136 L 44 141.5 L 41.5 140 Q 38 140.8 40.5 136 Z "></path><path fill="rgb(0,0,0)" stroke="rgb(0,0,0)" stroke-width="1" opacity="1" d="M 131.5 141 L 133 146.5 L 132 146.5 L 131.5 141 Z "></path><path fill="rgb(0,0,0)" stroke="rgb(0,0,0)" stroke-width="1" opacity="1" d="M 142 141 Q 145.7 139.7 144 145.5 L 142 146.5 L 142 141 Z "></path><path fill="rgb(0,0,0)" stroke="rgb(0,0,0)" stroke-width="1" opacity="1" d="M 44.5 143 L 45.5 145 Q 42.7 145.7 44.5 143 Z "></path><path fill="rgb(0,0,0)" stroke="rgb(0,0,0)" stroke-width="1" opacity="1" d="M 65.5 149 Q 70.9 148.4 73 150 Q 74.3 153 70.5 152 L 68.5 152 L 64 150.5 L 65.5 149 Z "></path><path fill="rgb(0,0,0)" stroke="rgb(0,0,0)" stroke-width="1" opacity="1" d="M 82.5 149 L 92.5 149 L 93 152 L 89.5 151 L 78 150.5 L 82.5 149 Z "></path><path fill="rgb(0,0,0)" stroke="rgb(0,0,0)" stroke-width="1" opacity="1" d="M 106.5 156 Q 110.3 155 109 158 L 106.5 156 Z "></path><path fill="rgb(0,0,0)" stroke="rgb(0,0,0)" stroke-width="1" opacity="1" d="M 119.5 156 L 125 157 L 124.5 160 L 113 160 Q 111.5 156.2 114.5 157 L 116.5 158 L 119.5 156 Z "></path><path fill="rgb(85,130,126)" stroke="rgb(85,130,126)" stroke-width="1" opacity="1" d="M 49.5 6 Q 52.1 5.2 51 8.5 L 54 10.5 L 52 11 Q 50.9 13.7 53.5 13 L 53.5 14 L 50 12.5 L 48 7.5 L 49.5 6 Z "></path><path fill="rgb(85,130,126)" stroke="rgb(85,130,126)" stroke-width="1" opacity="1" d="M 57.5 10 L 59 14 L 57 13.5 L 58 11.5 L 57.5 10 Z "></path><path fill="rgb(85,130,126)" stroke="rgb(85,130,126)" stroke-width="1" opacity="1" d="M 102.5 10 L 110 10.5 L 107.5 14 L 106 13.5 L 107 11 L 102.5 11 L 102.5 10 Z "></path><path fill="rgb(85,130,126)" stroke="rgb(85,130,126)" stroke-width="1" opacity="1" d="M 100.5 11 L 101 14 L 104 14.5 L 101.5 15 Q 99 14 100.5 11 Z "></path><path fill="rgb(85,130,126)" stroke="rgb(85,130,126)" stroke-width="1" opacity="1" d="M 62.5 17 L 64 17.5 L 62 18 Q 63.3 21.3 58.5 20 L 58.5 19 L 62.5 17 Z "></path><path fill="rgb(85,130,126)" stroke="rgb(85,130,126)" stroke-width="1" opacity="1" d="M 65.5 17 L 68 17.5 L 65.5 18 L 65.5 17 Z "></path><path fill="rgb(85,130,126)" stroke="rgb(85,130,126)" stroke-width="1" opacity="1" d="M 73.5 17 L 75 17.5 L 69.5 19 L 69.5 18 L 73.5 17 Z "></path><path fill="rgb(85,130,126)" stroke="rgb(85,130,126)" stroke-width="1" opacity="1" d="M 86.5 17 L 93 17.5 L 86.5 18 L 86.5 17 Z "></path><path fill="rgb(85,130,126)" stroke="rgb(85,130,126)" stroke-width="1" opacity="1" d="M 47.5 19 L 56 19.5 L 47.5 20 L 46 21.5 L 55.5 22 L 62.5 24 L 63.5 21 L 67 21 Q 65.9 23.7 68.5 23 L 73.5 24 L 74.5 21 L 79 21 Q 77.3 25.5 82.5 24 L 86.5 25 L 93.5 23 Q 95.3 25.8 101.5 24 Q 105 20.8 112 22 Q 113.4 18 106.5 20 L 106.5 19 Q 112.5 17.5 114 20.5 L 113.5 23 L 106.5 23 L 98.5 26 L 97.5 25 L 88.5 25 Q 87.3 27.3 82.5 26 L 81.5 25 Q 71.4 26.6 65.5 24 Q 64 26.5 58.5 25 Q 54.8 21.7 46.5 23 L 45 21.5 L 47.5 19 Z "></path><path fill="rgb(85,130,126)" stroke="rgb(85,130,126)" stroke-width="1" opacity="1" d="M 97.5 19 L 105 20.5 L 100.5 22 L 97.5 19 Z "></path><path fill="rgb(85,130,126)" stroke="rgb(85,130,126)" stroke-width="1" opacity="1" d="M 86.5 20 Q 90.3 19.3 91 21.5 L 87.5 22 L 86.5 20 Z "></path><path fill="rgb(85,130,126)" stroke="rgb(85,130,126)" stroke-width="1" opacity="1" d="M 111.5 42 L 112 45.5 L 110.5 48 L 110 44.5 L 111.5 42 Z "></path><path fill="rgb(85,130,126)" stroke="rgb(85,130,126)" stroke-width="1" opacity="1" d="M 68.5 61 L 67.5 63 L 62 66.5 L 64.5 70 L 70.5 69 L 73.5 71 L 78.5 69 L 81.5 70 Q 84.2 67.2 90.5 68 L 94.5 70 L 100 68 L 97 63.5 L 98.5 64 L 101 65.5 Q 102.5 69.9 99.5 69 Q 96.8 71.8 90.5 71 L 87.5 73 L 75.5 73 L 70 74 L 68.5 71 Q 61.3 72.3 60 67.5 L 61 64 L 68.5 61 Z "></path><path fill="rgb(85,130,126)" stroke="rgb(85,130,126)" stroke-width="1" opacity="1" d="M 75 77 Q 82.2 75.5 85 79.5 L 83.5 83 L 79.5 84 L 76 81.5 L 75 77 Z M 77 79 L 79 82 Q 83 83 82 81 Q 81 78 77 79 Z "></path><path fill="rgb(85,130,126)" stroke="rgb(85,130,126)" stroke-width="1" opacity="1" d="M 59.5 132 L 59 133.5 Q 59.8 135.8 57.5 135 L 59.5 132 Z "></path><path fill="rgb(85,130,126)" stroke="rgb(85,130,126)" stroke-width="1" opacity="1" d="M 66.5 132 L 70 132.5 L 66.5 133 L 66.5 132 Z "></path><path fill="rgb(85,130,126)" stroke="rgb(85,130,126)" stroke-width="1" opacity="1" d="M 110.5 133 Q 113.3 132.4 112 138.5 L 107.5 144 L 104 143.5 L 109 141.5 L 111 136.5 L 108 134.5 L 110.5 133 Z "></path><path fill="rgb(85,130,126)" stroke="rgb(85,130,126)" stroke-width="1" opacity="1" d="M 51.5 135 L 54.5 137 L 56 139.5 L 54 142.5 L 57 143.5 L 53.5 145 L 48 139.5 L 48 137 L 51.5 135 Z M 52 138 L 52 141 L 55 140 Q 56 136 52 138 Z "></path><path fill="rgb(85,130,126)" stroke="rgb(85,130,126)" stroke-width="1" opacity="1" d="M 58.5 144 L 70 145.5 L 64.5 146 Q 63.3 143.8 58.5 145 L 58.5 144 Z "></path><path fill="rgb(85,130,126)" stroke="rgb(85,130,126)" stroke-width="1" opacity="1" d="M 96.5 144 L 102 144.5 L 96.5 145 L 96.5 144 Z "></path><path fill="rgb(85,130,126)" stroke="rgb(85,130,126)" stroke-width="1" opacity="1" d="M 72.5 145 L 77 145.5 L 72.5 146 L 72.5 145 Z "></path><path fill="rgb(85,130,126)" stroke="rgb(85,130,126)" stroke-width="1" opacity="1" d="M 89.5 145 L 95 145.5 L 89.5 146 L 89.5 145 Z "></path><path fill="rgb(85,130,126)" stroke="rgb(85,130,126)" stroke-width="1" opacity="1" d="M 78.5 146 L 81 146.5 L 78.5 147 L 78.5 146 Z "></path><path fill="rgb(26,165,161)" stroke="rgb(26,165,161)" stroke-width="1" opacity="1" d="M 84.5 89 Q 91.1 89.9 94 94.5 L 91 95 L 92.5 98 Q 96.3 99.3 95 95.5 L 98 97.5 L 100 100.5 L 98.5 100 L 88.5 103 L 81.5 100 Q 80.3 103.3 74.5 102 Q 73.3 99.8 68.5 101 L 65 98.5 L 66.5 95 L 72.5 91 L 73 94 L 76 92.5 L 75 90.5 L 78 90 L 78 95 L 79.5 95 L 82.5 90 L 84.5 89 Z "></path><path fill="rgb(26,165,161)" stroke="rgb(26,165,161)" stroke-width="1" opacity="1" d="M 81.5 131 L 97.5 132 L 102 131 L 101.5 133 L 99.5 132 L 93.5 134 L 92.5 133 L 81.5 132 L 81.5 131 Z "></path><path fill="rgb(26,27,24)" stroke="rgb(26,27,24)" stroke-width="1" opacity="1" d="M 118 0 L 122 0.5 L 121 3 L 118 1.5 L 118 0 Z "></path><path fill="rgb(26,27,24)" stroke="rgb(26,27,24)" stroke-width="1" opacity="1" d="M 50.5 1 L 60 4.5 L 56 7.5 L 59 8.5 L 54.5 9 L 53 6 L 56 4.5 Q 54.3 2.3 49.5 3 Q 45.8 4.3 47 10.5 L 49 16.5 L 43 20.5 L 44 25.5 L 43 26.5 L 43 40.5 Q 45.7 43.8 45 50.5 L 46.5 52 Q 48.8 51.3 48 53.5 Q 45.7 54.8 47 59.5 L 51 65.5 L 52 89.5 L 51 90.5 L 51 100.5 L 48 103.5 Q 48.9 112.4 45 116.5 L 45 133.5 L 44 135.5 L 52 148.5 Q 49.2 149.6 50 153 L 55 152 L 57.5 148 L 66.5 147 L 66.5 148 L 58 151 Q 59.1 153.7 56.5 153 L 55.5 154 L 48 154 Q 47 148.8 50 146.5 L 44 139.5 L 43 132.5 L 44 131.5 L 44 114.5 L 47 108.5 L 47 101.5 L 50 96.5 L 50 68.5 L 47 63.5 L 44 53.5 L 44 47.5 L 41 40.5 L 41 25.5 L 42 22.5 L 42 20.5 L 43.5 18 L 47 16.5 L 45 7.5 L 48.5 2 L 50.5 1 Z "></path><path fill="rgb(26,27,24)" stroke="rgb(26,27,24)" stroke-width="1" opacity="1" d="M 103.5 2 L 111.5 2 L 113 3.5 L 114 9.5 L 113 13 Q 116.3 11.7 115 16.5 L 119 22.5 L 119 40.5 Q 115.1 44.6 116 53.5 L 113 57.5 L 113 64.5 L 110 69.5 L 109 80.5 L 110 81.5 L 110 95.5 L 115 110.5 L 117 123.5 L 116 124.5 L 116 141 L 113 142.5 Q 110.4 143.9 111 148.5 L 112 151.5 L 111 154 L 105.5 155 L 102.5 152 L 90 147.5 L 95.5 147 L 107.5 154 Q 110.5 153.5 110 149.5 L 109 145.5 L 115 138.5 L 115 118.5 L 113 114.5 L 112 104.5 L 109 97.5 L 108 77.5 L 109 76.5 L 109 68.5 L 112 63.5 Q 111 55 115 51.5 L 115 45.5 L 118 35.5 L 118 27.5 Q 115.8 26.2 117 21.5 L 113.5 17 L 112 16.5 L 112 9.5 L 113 6.5 L 110.5 3 L 105 4.5 Q 107.7 5.6 107 9 Q 99.9 7.3 98 11.5 L 98 16 L 86.5 16 L 86.5 15 L 95.5 15 L 97 13.5 Q 95.1 8.1 98.5 9 L 105 8 Q 106.1 5.3 103.5 6 L 102 3.5 L 103.5 2 Z "></path><path fill="rgb(26,27,24)" stroke="rgb(26,27,24)" stroke-width="1" opacity="1" d="M 60.5 9 L 63 10.5 L 62 13.5 L 62.5 15 Q 59.1 15.9 61 10.5 L 60.5 9 Z "></path><path fill="rgb(26,27,24)" stroke="rgb(26,27,24)" stroke-width="1" opacity="1" d="M 38.5 14 Q 40.8 13.3 40 15.5 L 38.5 14 Z "></path><path fill="rgb(26,27,24)" stroke="rgb(26,27,24)" stroke-width="1" opacity="1" d="M 65.5 15 L 74 15.5 L 65.5 16 L 65.5 15 Z "></path><path fill="rgb(26,27,24)" stroke="rgb(26,27,24)" stroke-width="1" opacity="1" d="M 45 26 Q 50.6 23.8 49 29.5 L 46.5 31 Q 44 29.8 45 26 Z "></path><path fill="rgb(26,27,24)" stroke="rgb(26,27,24)" stroke-width="1" opacity="1" d="M 52 55 Q 55.7 53.6 54 59.5 Q 57.6 61.4 57 67.5 L 61.5 72 L 65.5 73 L 72 78.5 L 73 84.5 L 63.5 93 L 59 95 L 56.5 101 Q 53.9 101.8 55 98.5 L 54 95.5 L 56 87.5 L 56 75.5 L 55 74.5 L 55 66.5 L 53.5 65 Q 50.1 65.9 52 60.5 L 53 57.5 L 52 55 Z M 56 70 L 59 84 L 59 87 L 56 93 L 57 95 L 70 86 L 71 80 L 69 78 L 66 74 L 63 74 L 56 70 Z "></path><path fill="rgb(26,27,24)" stroke="rgb(26,27,24)" stroke-width="1" opacity="1" d="M 103 67 Q 107 65.6 105 72.5 L 104 73.5 L 104 89.5 L 105 90.5 L 105 101 Q 101.7 102.3 103 97.5 L 88 85.5 Q 87.6 76.6 93.5 74 L 103 68.5 L 103 67 Z M 102 71 L 94 76 L 91 79 L 90 85 Q 95 91 103 93 Q 101 89 102 81 L 101 80 L 103 75 Q 104 70 102 71 Z "></path><path fill="rgb(26,27,24)" stroke="rgb(26,27,24)" stroke-width="1" opacity="1" d="M 64 78 Q 67 77 66 80 Q 63 81 64 78 Z "></path><path fill="rgb(26,27,24)" stroke="rgb(26,27,24)" stroke-width="1" opacity="1" d="M 106 103 L 109 104.5 L 107.5 107 L 106 103 Z "></path><path fill="rgb(26,27,24)" stroke="rgb(26,27,24)" stroke-width="1" opacity="1" d="M 50.5 124 L 51 128 Q 48 129.3 49 125.5 L 50.5 124 Z "></path><path fill="rgb(26,27,24)" stroke="rgb(26,27,24)" stroke-width="1" opacity="1" d="M 120.5 129 L 121 131.5 L 120 131.5 L 120.5 129 Z "></path><path fill="rgb(26,27,24)" stroke="rgb(26,27,24)" stroke-width="1" opacity="1" d="M 49 130 L 52 131.5 L 50.5 134 L 49 134 L 49 130 Z "></path><path fill="rgb(26,27,24)" stroke="rgb(26,27,24)" stroke-width="1" opacity="1" d="M 72.5 148 L 80 148.5 L 72.5 149 L 72.5 148 Z "></path><path fill="rgb(47,72,67)" stroke="rgb(47,72,67)" stroke-width="1" opacity="1" d="M 49.5 3 Q 54.3 2.3 56 4.5 L 53 6 L 54 8.5 L 52 9 Q 54.1 3.8 49.5 5 Q 47 6 48 10.5 L 50.5 15 L 55.5 16 L 60 13.5 Q 61.7 8.7 57.5 10 L 57.5 9 L 61 10.5 Q 58.8 16.8 64.5 15 L 64.5 16 L 56.5 19 L 52.5 17 L 46.5 19 L 44 21.5 L 45 24 Q 52.6 23.1 57.5 26 L 97 26.5 L 95.5 28 L 62.5 29 L 60.5 29 Q 54.5 27.5 53 30.5 L 54 34.5 L 52 41.5 L 53 42.5 L 53 50.5 L 55.5 54 Q 60.3 54.3 62 57.5 L 63 60.5 Q 59.4 62.3 59 67.5 L 63.5 72 L 66.5 72 L 73 77.5 L 77 84.5 L 61 96.5 L 59 106.5 Q 63.8 107.9 63 113 L 57.5 114 L 53 117.5 L 53 129.5 L 55 132.5 L 46 136.5 L 52.5 146 L 59.5 145 L 66 146.5 Q 57.8 145.8 55 150.5 Q 55.8 152.8 53.5 152 L 50 153 L 52 147.5 L 46 140.5 L 44 134.5 L 45 133.5 L 45 116.5 Q 48.9 112.4 48 103.5 L 51 100.5 L 52 79.5 L 51 78.5 L 51 65.5 Q 46.1 62.9 47 54.5 L 48 52 L 45 50.5 Q 45.7 43.8 43 40.5 L 43 26.5 L 44 24.5 L 43 20.5 L 49 16.5 L 47 10.5 L 47 5.5 L 49.5 3 Z M 45 26 Q 44 30 47 31 L 49 30 Q 51 24 45 26 Z M 52 55 L 53 58 L 52 61 Q 50 66 54 65 L 55 67 L 55 75 L 56 76 L 56 88 L 54 96 L 55 99 Q 54 102 57 101 L 59 95 L 64 93 L 73 85 L 72 79 L 66 73 L 62 72 L 57 68 Q 58 61 54 60 Q 56 54 52 55 Z M 50 57 L 49 60 L 50 60 L 50 57 Z M 49 112 L 49 116 L 51 115 Q 52 111 49 112 Z M 48 118 Q 45 121 46 128 L 48 127 L 48 118 Z M 51 124 L 49 126 Q 48 129 51 128 L 51 124 Z M 49 130 L 49 134 L 51 134 L 52 132 L 49 130 Z "></path><path fill="rgb(47,72,67)" stroke="rgb(47,72,67)" stroke-width="1" opacity="1" d="M 108.5 3 L 112 4.5 L 113 8.5 L 112 9.5 L 112 17 L 116 19.5 L 118 27.5 L 118 35.5 L 115 45.5 L 115 51.5 L 112 57.5 L 112 63.5 L 109 68.5 L 108 91.5 L 110 101.5 L 112 104.5 L 113 114.5 L 115 118.5 L 115 128.5 L 114 128.5 L 114 120.5 L 112 117.5 L 110.5 108 L 107.5 112 L 101 96.5 L 97.5 93 L 93.5 92 L 86 84.5 L 87 76.5 L 88.5 75 L 102 68.5 L 102 63.5 L 105 60.5 Q 104 55 107.5 54 Q 109.8 55.8 109 60.5 Q 104.1 63.6 106 73.5 L 107 73.5 L 108 67.5 L 111 61.5 L 111 55.5 L 114 49.5 L 115 32.5 L 113.5 33 Q 109.1 34.5 110 31.5 Q 107.3 30.4 108 27 L 103.5 29 L 101 27.5 L 106 27 L 107.5 24 L 115 24 L 115 20.5 Q 113 17 106.5 18 Q 105 20.5 99.5 19 L 92 16.5 L 98 16 Q 96.8 10.5 100.5 9 L 107 9 L 107 6.5 L 105.5 4 L 108.5 3 Z M 109 5 L 109 9 Q 107 11 101 10 L 99 12 L 100 16 L 109 15 L 111 13 L 111 6 L 109 5 Z M 103 67 L 103 69 L 94 74 Q 88 77 88 86 L 103 98 Q 102 102 105 101 L 105 91 L 104 90 L 104 74 L 105 73 Q 107 66 103 67 Z M 108 98 L 106 101 L 108 102 L 108 98 Z M 106 103 L 108 107 L 109 105 L 106 103 Z "></path><path fill="rgb(47,72,67)" stroke="rgb(47,72,67)" stroke-width="1" opacity="1" d="M 74.5 15 L 86 15.5 L 74.5 16 L 74.5 15 Z "></path><path fill="rgb(47,72,67)" stroke="rgb(47,72,67)" stroke-width="1" opacity="1" d="M 67.5 16 L 73 16.5 L 67.5 17 L 67.5 16 Z "></path><path fill="rgb(47,72,67)" stroke="rgb(47,72,67)" stroke-width="1" opacity="1" d="M 65.5 58 L 66 60 L 64 59.5 L 65.5 58 Z "></path><path fill="rgb(47,72,67)" stroke="rgb(47,72,67)" stroke-width="1" opacity="1" d="M 110.5 125 L 111 127.5 L 110 132 Q 107 133.3 108 129.5 L 110.5 125 Z "></path><path fill="rgb(47,72,67)" stroke="rgb(47,72,67)" stroke-width="1" opacity="1" d="M 114.5 131 L 115 138.5 L 109 145.5 L 109 148.5 L 110 151.5 Q 108.3 155.8 106.5 153 L 102.5 150 L 99.5 150 L 93 146.5 L 107.5 145 L 112 140.5 Q 114.8 137.3 114.5 131 Z M 105 148 L 105 151 L 108 152 Q 110 146 105 148 Z "></path><path fill="rgb(47,72,67)" stroke="rgb(47,72,67)" stroke-width="1" opacity="1" d="M 67.5 147 L 90 147.5 L 67.5 148 L 67.5 147 Z "></path><path fill="rgb(4,109,109)" stroke="rgb(4,109,109)" stroke-width="1" opacity="1" d="M 96.5 27 Q 102.3 26.2 104 29.5 L 107.5 34 Q 109.8 33.3 109 35.5 L 111 40.5 Q 109.8 43.3 108.5 41 L 103.5 38 L 102 44 L 98.5 45 L 96.5 45 Q 86.9 43.6 83 46 L 84 49.5 L 81 51 Q 79.9 53.7 82.5 53 L 89 57.5 L 85.5 59 L 75 56 L 73.5 59 L 64.5 62 L 59.5 55 L 54 52.5 L 52 39.5 L 54 33.5 L 53 30.5 L 54.5 29 Q 60 30.5 61.5 28 L 62.5 29 L 73.5 29 L 74.5 28 L 95.5 28 L 96.5 27 Z M 99 29 L 98 30 L 76 30 L 71 32 L 78 34 L 80 34 L 89 36 L 90 40 L 95 41 L 96 38 L 100 35 Q 104 34 103 37 L 105 37 L 103 32 Q 103 28 99 29 Z M 66 58 L 64 60 L 66 60 L 66 58 Z "></path><path fill="rgb(4,109,109)" stroke="rgb(4,109,109)" stroke-width="1" opacity="1" d="M 90.5 49 Q 96.3 46.9 95 51.5 Q 96.7 55.5 103 54 L 104 49 Q 109.6 47.1 108 52 L 104 54.5 L 102.5 58 L 98.5 57 L 95 58 L 92.5 53 L 89 50.5 L 90.5 49 Z "></path><path fill="rgb(4,109,109)" stroke="rgb(4,109,109)" stroke-width="1" opacity="1" d="M 101.5 60 L 102 61.5 L 100.5 64 L 99 61 L 101.5 60 Z "></path><path fill="rgb(4,109,109)" stroke="rgb(4,109,109)" stroke-width="1" opacity="1" d="M 85.5 83 L 93.5 92 Q 99.1 92.5 101 96.5 L 105 104.5 L 106 110.5 L 108 112.5 L 106.5 117 L 104 115.5 L 105 124.5 L 104 127 L 97.5 130 L 89.5 130 L 85.5 129 L 84.5 130 L 58.5 131 L 54.5 134 L 55 132.5 L 53 129.5 L 53 117.5 L 57.5 114 L 63 113 Q 63.8 107.9 59 106.5 L 59 103.5 L 60 100 L 62.5 99 L 67.5 103 Q 74.7 103.8 78.5 108 L 92.5 109 L 96.5 108 L 98.5 109 L 103 105.5 Q 102.3 97.3 96.5 94 Q 90.4 92.6 87.5 88 L 81.5 88 L 78.5 89 L 74.5 88 L 63.5 96 L 67.5 91 L 77.5 84 Q 83.8 85.8 85.5 83 Z "></path><path fill="rgb(4,109,109)" stroke="rgb(4,109,109)" stroke-width="1" opacity="1" d="M 107.5 127 L 108 131.5 L 104 133 L 107.5 127 Z "></path><path fill="rgb(5,6,6)" stroke="rgb(5,6,6)" stroke-width="1" opacity="1" d="M 26 0 L 28 0 L 28 5 L 26 5 L 26 0 Z "></path><path fill="rgb(5,6,6)" stroke="rgb(5,6,6)" stroke-width="1" opacity="1" d="M 39 0 L 44 0 L 44 1.5 L 40.5 3 L 39 0 Z "></path><path fill="rgb(5,6,6)" stroke="rgb(5,6,6)" stroke-width="1" opacity="1" d="M 50.5 0 Q 54.3 -0.8 55 1.5 L 53.5 2 L 50.5 1 L 47.5 3 L 48.5 1 L 50.5 0 Z "></path><path fill="rgb(5,6,6)" stroke="rgb(5,6,6)" stroke-width="1" opacity="1" d="M 61 0 Q 64.8 -1.5 64 1.5 L 62 5 L 59.5 6 L 58.5 3 L 56 2.5 L 61 2 L 61 0 Z "></path><path fill="rgb(5,6,6)" stroke="rgb(5,6,6)" stroke-width="1" opacity="1" d="M 86 0 L 90 0 L 90 1.5 L 86 3 L 86 0 Z "></path><path fill="rgb(5,6,6)" stroke="rgb(5,6,6)" stroke-width="1" opacity="1" d="M 116 0 Q 118.7 -1.1 118 1.5 L 121 3 L 122.5 0 L 124.5 1 L 129 0 Q 130.5 5.4 127.5 7 L 121.5 4 L 119 5.5 L 122 7 L 120.5 10 L 119 10.5 L 121 11.5 L 119.5 12 L 114 8.5 L 113 4.5 L 114 4.5 Q 113.3 6.8 115.5 6 L 117 2.5 L 116 0 Z "></path><path fill="rgb(5,6,6)" stroke="rgb(5,6,6)" stroke-width="1" opacity="1" d="M 69.5 2 L 74 3 Q 76.3 9.4 68.5 7 L 67 4.5 L 69.5 2 Z "></path><path fill="rgb(5,6,6)" stroke="rgb(5,6,6)" stroke-width="1" opacity="1" d="M 100.5 2 L 103 2.5 L 101.5 5 L 100.5 2 Z "></path><path fill="rgb(5,6,6)" stroke="rgb(5,6,6)" stroke-width="1" opacity="1" d="M 78.5 3 L 81 4.5 Q 81.8 6.8 79.5 6 Q 78.3 8.3 77 5.5 L 78.5 3 Z "></path><path fill="rgb(5,6,6)" stroke="rgb(5,6,6)" stroke-width="1" opacity="1" d="M 93.5 3 Q 99.3 0.9 98 5.5 L 93 8.5 L 93 11 L 88 11 Q 88.7 5.6 93.5 3 Z "></path><path fill="rgb(5,6,6)" stroke="rgb(5,6,6)" stroke-width="1" opacity="1" d="M 39.5 6 L 41 9 Q 37.2 10.5 38 7.5 L 39.5 6 Z "></path><path fill="rgb(5,6,6)" stroke="rgb(5,6,6)" stroke-width="1" opacity="1" d="M 45.5 6 L 45 7.5 L 46 10.5 L 45 10.5 L 44 7.5 L 45.5 6 Z "></path><path fill="rgb(5,6,6)" stroke="rgb(5,6,6)" stroke-width="1" opacity="1" d="M 57.5 6 L 56.5 8 L 57.5 6 Z "></path><path fill="rgb(5,6,6)" stroke="rgb(5,6,6)" stroke-width="1" opacity="1" d="M 33 7 Q 36 6 35 9 Q 32 10 33 7 Z "></path><path fill="rgb(5,6,6)" stroke="rgb(5,6,6)" stroke-width="1" opacity="1" d="M 59.5 8 L 64 9 L 63.5 11 L 59.5 9 L 59.5 8 Z "></path><path fill="rgb(5,6,6)" stroke="rgb(5,6,6)" stroke-width="1" opacity="1" d="M 26.5 9 Q 31 8 32 10.5 L 30.5 13 L 25 13 L 25 10.5 L 26.5 9 Z "></path><path fill="rgb(5,6,6)" stroke="rgb(5,6,6)" stroke-width="1" opacity="1" d="M 76 9 L 84.5 9 L 86 10.5 L 81.5 11 L 79.5 11 Q 74.7 12.3 76 9 Z "></path><path fill="rgb(5,6,6)" stroke="rgb(5,6,6)" stroke-width="1" opacity="1" d="M 96.5 9 L 97 12.5 L 96 12.5 L 96.5 9 Z "></path><path fill="rgb(5,6,6)" stroke="rgb(5,6,6)" stroke-width="1" opacity="1" d="M 123.5 9 Q 129.8 6.8 128 12.5 L 124 14 L 123.5 10 L 122 10.5 L 123.5 9 Z "></path><path fill="rgb(5,6,6)" stroke="rgb(5,6,6)" stroke-width="1" opacity="1" d="M 38.5 12 L 42 13.5 L 40.5 17 L 36 18 Q 35 13.3 38.5 12 Z M 39 14 L 40 16 Q 41 13 39 14 Z "></path><path fill="rgb(5,6,6)" stroke="rgb(5,6,6)" stroke-width="1" opacity="1" d="M 45.5 12 L 47 16.5 L 44.5 18 L 44.5 17 Q 46.8 17.8 46 15.5 L 45.5 12 Z "></path><path fill="rgb(5,6,6)" stroke="rgb(5,6,6)" stroke-width="1" opacity="1" d="M 115.5 14 L 116 16.5 L 115 16.5 L 115.5 14 Z "></path><path fill="rgb(5,6,6)" stroke="rgb(5,6,6)" stroke-width="1" opacity="1" d="M 120.5 15 L 122 17.5 L 120 18.5 L 121 16.5 L 120.5 15 Z "></path><path fill="rgb(5,6,6)" stroke="rgb(5,6,6)" stroke-width="1" opacity="1" d="M 42.5 18 L 42 19.5 L 41 21.5 L 42 24.5 L 41 25.5 L 41 40.5 L 44 47.5 L 44 53.5 L 47 62.5 L 46 62.5 L 43 55.5 L 43 47.5 L 40 42.5 L 40 21.5 L 42.5 18 Z "></path><path fill="rgb(5,6,6)" stroke="rgb(5,6,6)" stroke-width="1" opacity="1" d="M 117.5 18 L 119 21.5 L 118 21.5 L 117.5 18 Z "></path><path fill="rgb(5,6,6)" stroke="rgb(5,6,6)" stroke-width="1" opacity="1" d="M 125.5 22 L 128 23.5 L 126.5 26 Q 124.3 25.3 125 27.5 L 123 28.5 L 125.5 22 Z "></path><path fill="rgb(5,6,6)" stroke="rgb(5,6,6)" stroke-width="1" opacity="1" d="M 119.5 26 L 120 41.5 L 117 47.5 L 117 53.5 L 113.5 60 L 113 57.5 L 116 53.5 Q 115.1 44.6 119 40.5 L 119.5 26 Z "></path><path fill="rgb(5,6,6)" stroke="rgb(5,6,6)" stroke-width="1" opacity="1" d="M 33 38 L 35 38.5 L 35 47.5 L 33 46.5 L 33 38 Z "></path><path fill="rgb(5,6,6)" stroke="rgb(5,6,6)" stroke-width="1" opacity="1" d="M 120.5 55 L 121 60 Q 118.3 58.9 119 61.5 L 117 62.5 L 117 59.5 L 120.5 55 Z "></path><path fill="rgb(5,6,6)" stroke="rgb(5,6,6)" stroke-width="1" opacity="1" d="M 38 58 Q 40.7 56.9 40 59.5 Q 42.3 60.8 41 65.5 L 43.5 68 L 47 69.5 L 46 74 L 40 70.5 L 38 58 Z "></path><path fill="rgb(5,6,6)" stroke="rgb(5,6,6)" stroke-width="1" opacity="1" d="M 113.5 62 L 115 71.5 L 113 70.5 Q 113.7 67.9 111 69 L 110.5 71 L 110 69.5 L 113.5 62 Z "></path><path fill="rgb(5,6,6)" stroke="rgb(5,6,6)" stroke-width="1" opacity="1" d="M 30.5 63 Q 33 64 32 68.5 Q 30.5 71.5 29 68.5 Q 28 64 30.5 63 Z "></path><path fill="rgb(5,6,6)" stroke="rgb(5,6,6)" stroke-width="1" opacity="1" d="M 47.5 64 L 50 69.5 L 49 69.5 Q 46 67.7 47.5 64 Z "></path><path fill="rgb(5,6,6)" stroke="rgb(5,6,6)" stroke-width="1" opacity="1" d="M 56.5 70 L 62.5 74 L 66 74 L 68.5 78 L 71 79.5 L 70 86 L 56.5 95 L 56 92.5 L 59 86.5 L 59 83.5 Q 56.5 82 58 76.5 L 56 73.5 L 58 74.5 L 60 87.5 L 59 91 Q 62.7 92.5 62 89.5 L 64.5 86 Q 68.3 86.8 69 84.5 L 70 79 Q 65.9 77.7 67 81 L 63 81 L 63 77 Q 66 78 65 75 L 61.5 75 L 56.5 70 Z M 64 78 Q 63 81 66 80 Q 67 77 64 78 Z "></path><path fill="rgb(5,6,6)" stroke="rgb(5,6,6)" stroke-width="1" opacity="1" d="M 101.5 71 Q 104.5 70.1 103 74.5 L 101 79.5 L 102 80.5 Q 100.8 89.4 103 93 Q 94.5 91.3 90 84.5 L 91 78.5 L 93.5 76 L 101.5 71 Z M 102 72 L 100 73 L 98 76 L 98 78 L 97 81 L 99 87 L 101 86 Q 102 81 100 80 Q 99 75 102 75 L 102 72 Z M 95 77 L 93 79 Q 92 82 95 81 L 97 78 L 95 77 Z "></path><path fill="rgb(5,6,6)" stroke="rgb(5,6,6)" stroke-width="1" opacity="1" d="M 126.5 72 L 128 72 L 128 77 Q 123.5 78.8 125 73.5 L 126.5 72 Z "></path><path fill="rgb(5,6,6)" stroke="rgb(5,6,6)" stroke-width="1" opacity="1" d="M 117.5 73 L 121 74.5 L 121 77 L 116 77 L 117.5 73 Z "></path><path fill="rgb(5,6,6)" stroke="rgb(5,6,6)" stroke-width="1" opacity="1" d="M 114.5 76 L 115 80 Q 112.3 81.1 113 78.5 L 114.5 76 Z "></path><path fill="rgb(5,6,6)" stroke="rgb(5,6,6)" stroke-width="1" opacity="1" d="M 109.5 78 L 110 80.5 L 109 80.5 L 109.5 78 Z "></path><path fill="rgb(5,6,6)" stroke="rgb(5,6,6)" stroke-width="1" opacity="1" d="M 45.5 83 L 46 85.5 L 45 85.5 L 45.5 83 Z "></path><path fill="rgb(5,6,6)" stroke="rgb(5,6,6)" stroke-width="1" opacity="1" d="M 49.5 94 L 50 96.5 L 46.5 103 Q 44.3 102.3 45 98.5 L 49 95.5 L 49.5 94 Z "></path><path fill="rgb(5,6,6)" stroke="rgb(5,6,6)" stroke-width="1" opacity="1" d="M 110.5 94 L 113 102.5 L 112 102.5 L 110.5 94 Z "></path><path fill="rgb(5,6,6)" stroke="rgb(5,6,6)" stroke-width="1" opacity="1" d="M 127.5 95 L 128 96.5 L 126.5 99 L 126 96.5 L 127.5 95 Z "></path><path fill="rgb(5,6,6)" stroke="rgb(5,6,6)" stroke-width="1" opacity="1" d="M 26 101 Q 28.7 99.9 28 102.5 L 29 104.5 L 28 107 L 25 105.5 L 26 101 Z "></path><path fill="rgb(5,6,6)" stroke="rgb(5,6,6)" stroke-width="1" opacity="1" d="M 41.5 103 L 42 105 L 40 104.5 L 41.5 103 Z "></path><path fill="rgb(5,6,6)" stroke="rgb(5,6,6)" stroke-width="1" opacity="1" d="M 33.5 104 L 34 106.5 L 33 106.5 L 33.5 104 Z "></path><path fill="rgb(5,6,6)" stroke="rgb(5,6,6)" stroke-width="1" opacity="1" d="M 46.5 107 L 47 108.5 L 44.5 114 L 44 111.5 L 46.5 107 Z "></path><path fill="rgb(5,6,6)" stroke="rgb(5,6,6)" stroke-width="1" opacity="1" d="M 115.5 111 L 116 115.5 L 115 115.5 L 115.5 111 Z "></path><path fill="rgb(5,6,6)" stroke="rgb(5,6,6)" stroke-width="1" opacity="1" d="M 43.5 116 L 44 131.5 L 42 132.5 L 43 131.5 L 43.5 116 Z "></path><path fill="rgb(5,6,6)" stroke="rgb(5,6,6)" stroke-width="1" opacity="1" d="M 116.5 117 L 117 120.5 L 116 120.5 L 116.5 117 Z "></path><path fill="rgb(5,6,6)" stroke="rgb(5,6,6)" stroke-width="1" opacity="1" d="M 38 119 L 40 119.5 L 40 127.5 L 38 128.5 L 38 119 Z "></path><path fill="rgb(5,6,6)" stroke="rgb(5,6,6)" stroke-width="1" opacity="1" d="M 120.5 119 L 122 124 L 119 122.5 L 120.5 119 Z "></path><path fill="rgb(5,6,6)" stroke="rgb(5,6,6)" stroke-width="1" opacity="1" d="M 116.5 124 L 117 140.5 L 113.5 143 L 114.5 141 L 116 140.5 L 116.5 124 Z "></path><path fill="rgb(5,6,6)" stroke="rgb(5,6,6)" stroke-width="1" opacity="1" d="M 125.5 124 L 128 125.5 Q 129.9 131.8 125 130 L 124 125.5 L 125.5 124 Z "></path><path fill="rgb(5,6,6)" stroke="rgb(5,6,6)" stroke-width="1" opacity="1" d="M 119 127 L 123 128.5 Q 124.5 134.5 121.5 136 Q 119.3 136.8 120 134.5 L 119 133.5 L 119 127 Z M 121 129 L 120 132 L 121 132 L 121 129 Z "></path><path fill="rgb(5,6,6)" stroke="rgb(5,6,6)" stroke-width="1" opacity="1" d="M 26 128 Q 29 127 28 130 Q 25 131 26 128 Z "></path><path fill="rgb(5,6,6)" stroke="rgb(5,6,6)" stroke-width="1" opacity="1" d="M 31.5 132 Q 34.1 131.2 33 134.5 L 30.5 140 Q 28.3 140.8 29 138.5 L 28 135.5 L 29 133 L 31.5 132 Z "></path><path fill="rgb(5,6,6)" stroke="rgb(5,6,6)" stroke-width="1" opacity="1" d="M 125.5 134 L 128 135.5 L 128 137 L 124 137 L 125.5 134 Z "></path><path fill="rgb(5,6,6)" stroke="rgb(5,6,6)" stroke-width="1" opacity="1" d="M 42.5 136 L 44 138.5 L 43 138.5 L 42.5 136 Z "></path><path fill="rgb(5,6,6)" stroke="rgb(5,6,6)" stroke-width="1" opacity="1" d="M 120 138 Q 123 137 122 140 Q 119 141 120 138 Z "></path><path fill="rgb(5,6,6)" stroke="rgb(5,6,6)" stroke-width="1" opacity="1" d="M 37.5 140 Q 42.1 138.8 40 144 L 37.5 145 Q 32.5 142.5 37.5 140 Z "></path><path fill="rgb(5,6,6)" stroke="rgb(5,6,6)" stroke-width="1" opacity="1" d="M 44.5 140 L 48.5 145 L 45 142.5 L 44.5 140 Z "></path><path fill="rgb(5,6,6)" stroke="rgb(5,6,6)" stroke-width="1" opacity="1" d="M 29.5 143 L 32 143 L 32 148.5 Q 30.8 151.8 27 151 Q 26.3 145.7 29.5 143 Z "></path><path fill="rgb(5,6,6)" stroke="rgb(5,6,6)" stroke-width="1" opacity="1" d="M 42.5 146 L 49 148 L 49.5 146 L 50 147.5 Q 46.8 148.9 48 154 L 57.5 153 L 57.5 154 L 48.5 155 L 46 151.5 L 47 149.5 L 44 148 Q 45.5 151.8 42.5 151 L 41 147.5 L 42.5 146 Z "></path><path fill="rgb(5,6,6)" stroke="rgb(5,6,6)" stroke-width="1" opacity="1" d="M 64.5 148 L 72 148.5 L 64.5 149 L 64.5 148 Z "></path><path fill="rgb(5,6,6)" stroke="rgb(5,6,6)" stroke-width="1" opacity="1" d="M 80.5 148 L 94 148.5 L 80.5 149 L 80.5 148 Z "></path><path fill="rgb(5,6,6)" stroke="rgb(5,6,6)" stroke-width="1" opacity="1" d="M 62.5 149 L 61.5 151 L 60 150.5 L 62.5 149 Z "></path><path fill="rgb(5,6,6)" stroke="rgb(5,6,6)" stroke-width="1" opacity="1" d="M 95.5 149 L 96.5 151 L 95.5 149 Z "></path><path fill="rgb(5,6,6)" stroke="rgb(5,6,6)" stroke-width="1" opacity="1" d="M 35 150 Q 41 148 39 154 Q 33 156 35 150 Z "></path><path fill="rgb(5,6,6)" stroke="rgb(5,6,6)" stroke-width="1" opacity="1" d="M 86.5 151 L 91 152 L 90.5 154 L 80.5 154 L 78 152.5 L 86.5 151 Z "></path><path fill="rgb(5,6,6)" stroke="rgb(5,6,6)" stroke-width="1" opacity="1" d="M 66.5 152 Q 72.3 150.3 71 154 Q 66.3 155 66.5 152 Z "></path><path fill="rgb(5,6,6)" stroke="rgb(5,6,6)" stroke-width="1" opacity="1" d="M 102.5 152 Q 106 153.3 105 158 L 111 159.5 L 103 160 L 102 155.5 L 103 153.5 L 102.5 152 Z "></path><path fill="rgb(5,6,6)" stroke="rgb(5,6,6)" stroke-width="1" opacity="1" d="M 111.5 152 L 112 153.5 L 109.5 155 L 109.5 154 Q 112 154.7 111.5 152 Z "></path></svg>