<?xml version="1.0" encoding="UTF-8" standalone="no"?>
<!-- Created with Inkscape (http://www.inkscape.org/) -->

<svg
   xmlns:dc="http://purl.org/dc/elements/1.1/"
   xmlns:cc="http://creativecommons.org/ns#"
   xmlns:rdf="http://www.w3.org/1999/02/22-rdf-syntax-ns#"
   xmlns:svg="http://www.w3.org/2000/svg"
   xmlns="http://www.w3.org/2000/svg"
   version="1.1"
   width="300"
   height="89.406982"
   id="svg3602">
  <defs
     id="defs3604" />
  <metadata
     id="metadata3607">
    <rdf:RDF>
      <cc:Work
         rdf:about="">
        <dc:format>image/svg+xml</dc:format>
        <dc:type
           rdf:resource="http://purl.org/dc/dcmitype/StillImage" />
        <dc:title></dc:title>
      </cc:Work>
    </rdf:RDF>
  </metadata>
  <g
     transform="translate(-224.99999,-487.65869)"
     id="layer1">
    <g
       transform="matrix(1.2506792,0,0,1.2506792,263.43561,328.36944)"
       id="g3503">
      <path
         d="m 30.737,156.22595 -12.95625,0 c -1.2075,0 -1.2875,-1.25625 -1.2875,-1.25625 0,-0.8325 0.70375,-1.32875 1.3275,-1.32875 l 11.6425,0 c 0,-0.2425 0.01625,-3.5475 0.01625,-3.7225 -1.78375,-1.4475 -3.87875,-2.34125 -6.8975,-2.34125 -1.74125,0 -3.84625,0.3875 -5.7675,1.11375 -1.64875,0.62375 -3.07125,1.615 -3.64125,2.16375 -0.64375,0.6175 -1.23875,1.3175 -1.64,2.2925 -0.30125,0.735 -0.295,1.31125 -0.32125,2.1325 -0.05375,1.65125 0.40875,4.1225 0.62375,5.22125 0.21375,1.10125 1.3175,6.69 1.3175,6.69 0.16,1.12 -0.7525,1.635 -1.45625,1.5375 l -9.52875,0 c -0.5025,0 -1.2375,-0.49125 -1.2375,-1.26625 0,-0.77375 0.67375,-1.3175 1.2475,-1.3175 l 8.13875,0 c -0.05125,-0.27125 -1.10625,-5.61375 -1.1675,-5.955 -0.06,-0.3425 -0.2925,-1.72 -0.34125,-2.14375 -0.05125,-0.42125 -0.55375,-3.9425 0.38125,-6.035 0.54125,-1.21 1.2275,-2.045 1.9525,-2.76625 0.87125,-0.86625 1.82875,-1.545 3.0475,-2.1925 0.3225,-0.17125 3.66125,-2.0025 8.38875,-2.0625 5.05,-0.0637 8.0375,2.475 8.8225,3.15875 0.6375,0.55625 0.66375,0.865 0.66375,1.2575 0,0.3925 -0.05,4.6175 -0.05,5.41125 0,0.795 -0.4825,1.40875 -1.2775,1.40875 m -17.895,21.125 c -3.32,0.33125 -8.98375,0.2525 -10.935,0.04 -1.48875,-0.16125 -1.38875,-2.505 0.21875,-2.43125 4.88875,0.225 7.295,0.19 10.75625,-0.0462 0.54375,-0.0375 1.0925,0.52125 1.13625,1.14 0.04125,0.595 -0.3575,1.21625 -1.17625,1.2975 M 6.547,127.3622 c -7.415,0 -14.2475,2.49125 -19.71125,6.67875 l 0.02625,0.0237 c 1.50125,1.10125 6.8675,6.06375 8.07375,7.24375 1.2075,1.18 2.2,2.78875 2.54875,3.38 0.34875,0.59 3.4875,5.74 4.345,9.3875 0.85875,3.64875 -0.295,5.715 -6.11625,5.0175 -5.82,-0.6975 -12.04375,-3.3525 -13.7875,-4.3725 -1.74375,-1.02 -4.695,-3.1925 -6.38375,-4.4525 0,0 -0.0038,-0.002 -0.005,-0.002 -0.925,3.0125 -1.42375,6.2125 -1.42375,9.53 0,17.9125 14.52125,32.43375 32.43375,32.43375 0.42,0 0.8375,-0.015 1.25375,-0.0312 3.17125,-0.70375 4.9975,-3.7425 3.99375,-6.60875 -0.5625,-1.60875 -2.4475,-2.375 -3.9225,-2.515 -1.20875,-0.115 -1.87125,-0.10125 -2.9775,0.22125 -1.58375,0.46 -1.97125,-1.79125 -0.945,-2.21375 2.85625,-1.17625 7.14125,-0.4225 9.23375,2.1125 2.46375,2.98375 0.91375,7.1775 -0.11125,8.3775 14.785,-3.01875 25.90875,-16.09875 25.90875,-31.77625 0,-17.9125 -14.52125,-32.43375 -32.43375,-32.43375"
         id="path2769"
         style="fill:#e6b748;fill-opacity:1;fill-rule:evenodd;stroke:none" />
      <path
         d="m -15.673125,153.07133 c 1.82875,0.845 6.89375,2.7625 11.2125,3.38 0,0 3.38,0.5225 3.9025,-0.0813 0.52375,-0.6025 -0.76375,-3.68875 -0.99125,-4.2375 -0.22875,-0.55 -1.99875,-4.56125 -3.7825,-7.00125 -0.32375,-0.44375 -0.68875,-1.0925 -1.2475,-1.665 -2.495,-2.5475 -6.655,-6.1375 -7.14875,-6.54375 -0.60375,-0.4975 -2.51125,-2.1425 -2.51125,-2.1425 0,0 -4.3425,-3.7325 -5.52375,-4.26875 -1.085,-0.49375 -4.185,0.16125 -7.135,4.36 -2.5075,3.5675 -1.8375,6.61125 -1.46125,7.335 0.72375,0.805 7.35,5.955 8.47625,6.77375 1.12625,0.81875 4.5875,3.34 6.21,4.09125"
         id="path2773"
         style="fill:#e6b748;fill-opacity:1;fill-rule:evenodd;stroke:none" />
      <path
         d="m 200.18287,151.32807 c -4.0625,-1.55625 -5.6275,-1.8975 -14.1675,-2.78 -8.345,-0.81 -10.24375,-1.0825 -12.95375,-1.6925 -1.62625,-0.40875 -2.51375,-1.15125 -2.51375,-2.375 0,-0.19125 0.0325,-0.3725 0.075,-0.55 l 36.4775,-0.005 c -0.7225,-1.95125 -2.0325,-4.25875 -4.1325,-6.365 -4.475,-4.4725 -12.34625,-6.6425 -24.14625,-6.6425 -18.92,0 -28.88875,5.42375 -28.88875,15.665 0,5.56375 3.05375,9.56375 8.68125,11.32875 3.66,1.21875 9.2925,2.3025 14.23625,2.78 l 6.7175,0.61 c 6.98375,0.6725 8.245,1.44 8.21,3.24375 -0.009,0.55125 -0.1925,1.05625 -0.53875,1.5025 l -72.7025,-0.01 0,-5.55125 28.0075,0 0,-11.52875 -28.0075,0 0,-5.01875 35.2125,0 0,-11.53 -69.25375,0 -8.14,18.9875 c -1.42375,3.32 -2.34625,5.8325 -2.955,10.10875 l -0.055,0 c -0.475,-3.59375 -1.73625,-7.53 -2.8875,-10.10875 l -8.47875,-18.9875 -18.91875,0 20.07125,45.1575 20.2775,0 17.76875,-41.80375 0,41.80375 53.2975,0 0,-9.32625 c 0.8775,2.7475 2.415,4.05375 3.53,5.055 4.61875,4.1625 12.54125,5.69625 24.4775,5.69625 20.34875,0 30.045,-5.0875 30.045,-15.8675 0,-5.69 -2.78125,-9.69375 -8.345,-11.79625"
         id="path2777"
         style="fill:#000000;fill-opacity:1;fill-rule:nonzero;stroke:none" />
      <path
         d="m 45.025625,195.79295 -1.6575,0 -3.87125,-10.87625 1.6725,0 3.0875,9.295 3.25375,-9.295 1.5225,0 L 45.025625,195.79295 Z"
         id="path2781"
         style="fill:#000000;fill-opacity:1;fill-rule:nonzero;stroke:none" />
      <path
         d="m 45.025625,195.79295 -1.6575,0 -3.87125,-10.87625 1.6725,0 3.0875,9.295 3.25375,-9.295 1.5225,0 L 45.025625,195.79295 Z"
         id="path2785"
         style="fill:#000000;stroke:#000000;stroke-width:0.38624999;stroke-linecap:butt;stroke-linejoin:miter;stroke-miterlimit:4;stroke-opacity:1;stroke-dasharray:none" />
      <path
         d="m 51.60875,188.23095 1.41625,0 0,7.5625 -1.41625,0 L 51.60875,188.23095 z m -0.15125,-3.28375 1.7025,0 0,1.5525 -1.7025,0 L 51.4575,184.9472 Z"
         id="path2787"
         style="fill:#000000;fill-opacity:1;fill-rule:nonzero;stroke:none" />
      <path
         d="m 51.6085,188.23108 1.41625,0 0,7.5625 -1.41625,0 L 51.6085,188.23108 z m -0.15,-3.28375 1.70125,0 0,1.55125 -1.70125,0 L 51.4585,184.94733 Z"
         id="path2791"
         style="fill:#000000;stroke:#000000;stroke-width:0.38624999;stroke-linecap:butt;stroke-linejoin:miter;stroke-miterlimit:4;stroke-opacity:1;stroke-dasharray:none" />
      <path
         d="m 57.227125,193.5487 c -0.015,0.5725 0.28625,1.37125 1.6575,1.37125 0.5875,0 1.02375,-0.10625 1.325,-0.4825 0.15125,-0.19625 0.24125,-0.4525 0.24125,-0.7075 0,-0.73875 -0.5275,-0.87375 -1.6575,-1.13 -1.58125,-0.3625 -2.9075,-0.67875 -2.9075,-2.26 0,-1.38625 1.20625,-2.29 2.9525,-2.29 0.95,0 2.275,0.27125 2.7275,1.175 0.195,0.42125 0.195,0.78375 0.195,1.1 l -1.44625,0 c 0.04625,-1.145 -0.94875,-1.235 -1.46,-1.235 -0.21125,0 -1.5375,0 -1.5375,1.085 0,0.6925 0.67875,0.8575 1.07,0.96375 2.09375,0.4975 2.54625,0.6175 2.9975,1.03875 0.42125,0.3925 0.5725,0.91875 0.5725,1.40125 0,0.84375 -0.4675,1.56625 -1.02375,1.9125 -0.66375,0.4075 -1.46125,0.5125 -2.245,0.5125 -1.53625,0 -2.9675,-0.6325 -2.9525,-2.455 L 57.227125,193.5487 Z"
         id="path2795"
         style="fill:#000000;fill-opacity:1;fill-rule:nonzero;stroke:none" />
      <path
         d="m 57.227125,193.5487 c -0.015,0.5725 0.28625,1.37125 1.6575,1.37125 0.5875,0 1.02375,-0.10625 1.325,-0.4825 0.15125,-0.19625 0.24125,-0.4525 0.24125,-0.7075 0,-0.73875 -0.5275,-0.87375 -1.6575,-1.13 -1.58125,-0.3625 -2.9075,-0.67875 -2.9075,-2.26 0,-1.38625 1.20625,-2.29 2.9525,-2.29 0.95,0 2.275,0.27125 2.7275,1.175 0.195,0.42125 0.195,0.78375 0.195,1.1 l -1.44625,0 c 0.04625,-1.145 -0.94875,-1.235 -1.46,-1.235 -0.21125,0 -1.5375,0 -1.5375,1.085 0,0.6925 0.67875,0.8575 1.07,0.96375 2.09375,0.4975 2.54625,0.6175 2.9975,1.03875 0.42125,0.3925 0.5725,0.91875 0.5725,1.40125 0,0.84375 -0.4675,1.56625 -1.02375,1.9125 -0.66375,0.4075 -1.46125,0.5125 -2.245,0.5125 -1.53625,0 -2.9675,-0.6325 -2.9525,-2.455 L 57.227125,193.5487 Z"
         id="path2799"
         style="fill:#000000;stroke:#000000;stroke-width:0.38624999;stroke-linecap:butt;stroke-linejoin:miter;stroke-miterlimit:4;stroke-opacity:1;stroke-dasharray:none" />
      <path
         d="m 65.873625,188.23095 0,4.86625 c 0,0.7375 0.16625,1.67125 1.61125,1.67125 0.70875,0 1.37125,-0.24125 1.7775,-0.84375 0.3175,-0.45125 0.3175,-1.03875 0.3175,-1.41625 l 0,-4.2775 1.46,0 0,6.14625 c 0,0.15 0.03125,0.99375 0.04625,1.41625 l -1.47625,0 -0.03,-1.295 c -0.27125,0.52625 -0.78375,1.37 -2.41125,1.37 -1.8675,0 -2.74125,-1.07 -2.74125,-2.56 l 0,-5.0775 L 65.873625,188.23095 Z"
         id="path2803"
         style="fill:#000000;fill-opacity:1;fill-rule:nonzero;stroke:none" />
      <path
         d="m 65.873625,188.23095 0,4.86625 c 0,0.7375 0.16625,1.67125 1.61125,1.67125 0.70875,0 1.37125,-0.24125 1.7775,-0.84375 0.3175,-0.45125 0.3175,-1.03875 0.3175,-1.41625 l 0,-4.2775 1.46,0 0,6.14625 c 0,0.15 0.03125,0.99375 0.04625,1.41625 l -1.47625,0 -0.03,-1.295 c -0.27125,0.52625 -0.78375,1.37 -2.41125,1.37 -1.8675,0 -2.74125,-1.07 -2.74125,-2.56 l 0,-5.0775 L 65.873625,188.23095 Z"
         id="path2807"
         style="fill:#000000;stroke:#000000;stroke-width:0.38624999;stroke-linecap:butt;stroke-linejoin:miter;stroke-miterlimit:4;stroke-opacity:1;stroke-dasharray:none" />
      <path
         d="m 78.045,192.07233 c -0.5725,0 -2.72625,0 -2.72625,1.53625 0,0.4825 0.30125,1.31125 1.56625,1.31125 0.72375,0 1.265,-0.28625 1.6125,-0.81375 0.31625,-0.5125 0.33125,-0.93375 0.36125,-1.98875 -0.25625,-0.03 -0.4675,-0.045 -0.81375,-0.045 m 0.97875,3.72125 c -0.105,-0.3775 -0.135,-0.73875 -0.135,-1.13 -0.6775,1.25 -1.7025,1.37 -2.335,1.37 -1.7325,0 -2.66625,-0.97875 -2.66625,-2.22875 0,-0.6025 0.21125,-1.56625 1.325,-2.215 0.81375,-0.45125 2.01875,-0.49625 2.62125,-0.49625 0.3625,0 0.5875,0.015 1.025,0.045 0,-0.93375 0,-1.34125 -0.27125,-1.6725 -0.28625,-0.37625 -0.90375,-0.49625 -1.31125,-0.49625 -1.43,0 -1.50625,0.97875 -1.52125,1.28 l -1.41625,0 c 0.04625,-0.39125 0.09125,-0.91875 0.5275,-1.43125 0.5725,-0.6325 1.6425,-0.81375 2.44125,-0.81375 1.09875,0 2.27375,0.34625 2.68125,1.115 0.24,0.4525 0.255,0.81375 0.255,1.16 l -0.06,3.615 c 0,0.12125 0.015,1.13 0.12125,1.89875 L 79.02375,195.79358 Z"
         id="path2811"
         style="fill:#000000;fill-opacity:1;fill-rule:nonzero;stroke:none" />
      <path
         d="m 78.045,192.07233 c -0.5725,0 -2.72625,0 -2.72625,1.53625 0,0.4825 0.30125,1.31125 1.56625,1.31125 0.72375,0 1.265,-0.28625 1.6125,-0.81375 0.31625,-0.5125 0.33125,-0.93375 0.36125,-1.98875 C 78.6025,192.08733 78.39125,192.07233 78.045,192.07233 z m 0.97875,3.72125 c -0.105,-0.3775 -0.135,-0.73875 -0.135,-1.13 -0.6775,1.25 -1.7025,1.37 -2.335,1.37 -1.7325,0 -2.66625,-0.97875 -2.66625,-2.22875 0,-0.6025 0.21125,-1.56625 1.325,-2.215 0.81375,-0.45125 2.01875,-0.49625 2.62125,-0.49625 0.3625,0 0.5875,0.015 1.025,0.045 0,-0.93375 0,-1.34125 -0.27125,-1.6725 -0.28625,-0.37625 -0.90375,-0.49625 -1.31125,-0.49625 -1.43,0 -1.50625,0.97875 -1.52125,1.28 l -1.41625,0 c 0.04625,-0.39125 0.09125,-0.91875 0.5275,-1.43125 0.5725,-0.6325 1.6425,-0.81375 2.44125,-0.81375 1.09875,0 2.27375,0.34625 2.68125,1.115 0.24,0.4525 0.255,0.81375 0.255,1.16 l -0.06,3.615 c 0,0.12125 0.015,1.13 0.12125,1.89875 L 79.02375,195.79358 Z"
         id="path2815"
         style="fill:#000000;stroke:#000000;stroke-width:0.38624999;stroke-linecap:butt;stroke-linejoin:miter;stroke-miterlimit:4;stroke-opacity:1;stroke-dasharray:none" />
      <path
         d="m 84.055,184.9322 1.41625,0 0,10.86125 -1.41625,0 L 84.055,184.9322 Z"
         id="path2817"
         style="fill:#000000;fill-opacity:1;fill-rule:nonzero;stroke:none" />
      <path
         d="m 84.055375,184.93207 1.41625,0 0,10.86125 -1.41625,0 L 84.055375,184.93207 Z"
         id="path2821"
         style="fill:#000000;stroke:#000000;stroke-width:0.38624999;stroke-linecap:butt;stroke-linejoin:miter;stroke-miterlimit:4;stroke-opacity:1;stroke-dasharray:none" />
      <path
         d="m 94.99125,184.91732 6.82375,0 0,1.28 -5.3175,0 0,3.39 5.06125,0 0,1.265 -5.06125,0 0,3.615 5.4375,0 0,1.32625 -6.94375,0 L 94.99125,184.91732 Z"
         id="path2825"
         style="fill:#000000;fill-opacity:1;fill-rule:nonzero;stroke:none" />
      <path
         d="m 94.99125,184.91732 6.82375,0 0,1.28 -5.3175,0 0,3.39 5.06125,0 0,1.265 -5.06125,0 0,3.615 5.4375,0 0,1.32625 -6.94375,0 L 94.99125,184.91732 Z"
         id="path2829"
         style="fill:#000000;stroke:#000000;stroke-width:0.38624999;stroke-linecap:butt;stroke-linejoin:miter;stroke-miterlimit:4;stroke-opacity:1;stroke-dasharray:none" />
      <path
         d="m 108.78987,185.97158 c -0.24125,-0.015 -0.5425,-0.03 -0.82875,-0.03 -1.145,0 -1.145,0.5725 -1.145,1.1 l 0,1.19 1.7625,0 0,1.02375 -1.7625,0 0,6.5375 -1.4,0 0,-6.5375 -1.4925,0 0,-1.02375 1.4925,0 0,-0.85875 c 0,-1.04 0.06,-1.41625 0.315,-1.8075 0.3175,-0.4825 0.91875,-0.82875 1.89875,-0.82875 0.40625,0 0.85875,0.06 1.16,0.105 L 108.78987,185.97158 Z"
         id="path2833"
         style="fill:#000000;fill-opacity:1;fill-rule:nonzero;stroke:none" />
      <path
         d="m 108.78987,185.97158 c -0.24125,-0.015 -0.5425,-0.03 -0.82875,-0.03 -1.145,0 -1.145,0.5725 -1.145,1.1 l 0,1.19 1.7625,0 0,1.02375 -1.7625,0 0,6.5375 -1.4,0 0,-6.5375 -1.4925,0 0,-1.02375 1.4925,0 0,-0.85875 c 0,-1.04 0.06,-1.41625 0.315,-1.8075 0.3175,-0.4825 0.91875,-0.82875 1.89875,-0.82875 0.40625,0 0.85875,0.06 1.16,0.105 L 108.78987,185.97158 Z"
         id="path2837"
         style="fill:#000000;stroke:#000000;stroke-width:0.38624999;stroke-linecap:butt;stroke-linejoin:miter;stroke-miterlimit:4;stroke-opacity:1;stroke-dasharray:none" />
      <path
         d="m 114.73975,185.97158 c -0.24125,-0.015 -0.5425,-0.03 -0.82875,-0.03 -1.145,0 -1.145,0.5725 -1.145,1.1 l 0,1.19 1.7625,0 0,1.02375 -1.7625,0 0,6.5375 -1.4,0 0,-6.5375 -1.4925,0 0,-1.02375 1.4925,0 0,-0.85875 c 0,-1.04 0.06,-1.41625 0.315,-1.8075 0.3175,-0.4825 0.91875,-0.82875 1.89875,-0.82875 0.40625,0 0.85875,0.06 1.16,0.105 L 114.73975,185.97158 Z"
         id="path2841"
         style="fill:#000000;fill-opacity:1;fill-rule:nonzero;stroke:none" />
      <path
         d="m 114.73975,185.97158 c -0.24125,-0.015 -0.5425,-0.03 -0.82875,-0.03 -1.145,0 -1.145,0.5725 -1.145,1.1 l 0,1.19 1.7625,0 0,1.02375 -1.7625,0 0,6.5375 -1.4,0 0,-6.5375 -1.4925,0 0,-1.02375 1.4925,0 0,-0.85875 c 0,-1.04 0.06,-1.41625 0.315,-1.8075 0.3175,-0.4825 0.91875,-0.82875 1.89875,-0.82875 0.40625,0 0.85875,0.06 1.16,0.105 L 114.73975,185.97158 Z"
         id="path2845"
         style="fill:#000000;stroke:#000000;stroke-width:0.38624999;stroke-linecap:butt;stroke-linejoin:miter;stroke-miterlimit:4;stroke-opacity:1;stroke-dasharray:none" />
      <path
         d="m 121.45837,191.27382 c 0.0138,-0.7225 -0.12125,-2.22875 -1.8675,-2.22875 -0.92,0 -2.035,0.55625 -2.065,2.22875 L 121.45837,191.27382 z m -3.9925,0.99375 c -0.03,1.5675 0.61875,2.7275 2.16875,2.7275 0.91875,0 1.6575,-0.4825 1.77875,-1.5675 l 1.41625,0 c -0.0463,0.3775 -0.10625,0.995 -0.64875,1.5825 -0.33125,0.37625 -1.085,1.00875 -2.605,1.00875 -2.38,0 -3.51125,-1.47625 -3.51125,-3.87125 0,-1.49125 0.30125,-2.72625 1.49125,-3.555 0.72375,-0.5125 1.6275,-0.5575 2.06375,-0.5575 3.39,0 3.31375,2.9975 3.28375,4.2325 L 117.46587,192.26757 Z"
         id="path2849"
         style="fill:#000000;fill-opacity:1;fill-rule:nonzero;stroke:none" />
      <path
         d="m 121.45837,191.27382 c 0.0138,-0.7225 -0.12125,-2.22875 -1.8675,-2.22875 -0.92,0 -2.035,0.55625 -2.065,2.22875 L 121.45837,191.27382 z m -3.9925,0.99375 c -0.03,1.5675 0.61875,2.7275 2.16875,2.7275 0.91875,0 1.6575,-0.4825 1.77875,-1.5675 l 1.41625,0 c -0.0463,0.3775 -0.10625,0.995 -0.64875,1.5825 -0.33125,0.37625 -1.085,1.00875 -2.605,1.00875 -2.38,0 -3.51125,-1.47625 -3.51125,-3.87125 0,-1.49125 0.30125,-2.72625 1.49125,-3.555 0.72375,-0.5125 1.6275,-0.5575 2.06375,-0.5575 3.39,0 3.31375,2.9975 3.28375,4.2325 L 117.46587,192.26757 Z"
         id="path2853"
         style="fill:#000000;stroke:#000000;stroke-width:0.38624999;stroke-linecap:butt;stroke-linejoin:miter;stroke-miterlimit:4;stroke-opacity:1;stroke-dasharray:none" />
      <path
         d="m 129.9235,190.65633 c -0.03,-0.34625 -0.13625,-1.58125 -1.50625,-1.58125 -1.9575,0 -1.9575,2.27375 -1.9575,2.84625 0,1.5525 0.37625,2.9975 1.8825,2.9975 1.205,0 1.61125,-0.90375 1.64125,-1.64125 l 1.43125,0 c -0.09,1.47625 -1.19,2.71125 -3.0575,2.71125 -0.5125,0 -1.6875,-0.105 -2.485,-0.97875 -0.4525,-0.5275 -0.90375,-1.32625 -0.90375,-2.8925 0,-3.14875 1.9275,-4.0825 3.43375,-4.0825 0.4975,0 1.62625,0.105 2.31875,0.93375 0.55875,0.64875 0.60375,1.26625 0.63375,1.6875 L 129.9235,190.65633 Z"
         id="path2857"
         style="fill:#000000;fill-opacity:1;fill-rule:nonzero;stroke:none" />
      <path
         d="m 129.9235,190.65633 c -0.03,-0.34625 -0.13625,-1.58125 -1.50625,-1.58125 -1.9575,0 -1.9575,2.27375 -1.9575,2.84625 0,1.5525 0.37625,2.9975 1.8825,2.9975 1.205,0 1.61125,-0.90375 1.64125,-1.64125 l 1.43125,0 c -0.09,1.47625 -1.19,2.71125 -3.0575,2.71125 -0.5125,0 -1.6875,-0.105 -2.485,-0.97875 -0.4525,-0.5275 -0.90375,-1.32625 -0.90375,-2.8925 0,-3.14875 1.9275,-4.0825 3.43375,-4.0825 0.4975,0 1.62625,0.105 2.31875,0.93375 0.55875,0.64875 0.60375,1.26625 0.63375,1.6875 L 129.9235,190.65633 Z"
         id="path2861"
         style="fill:#000000;stroke:#000000;stroke-width:0.38624999;stroke-linecap:butt;stroke-linejoin:miter;stroke-miterlimit:4;stroke-opacity:1;stroke-dasharray:none" />
      <path
         d="m 132.92137,188.20082 1.34125,0 0,-1.58125 1.4,-0.4525 0,2.03375 1.6875,0 0,1.04 -1.6875,0 0,4.53375 c 0,0.37625 0,1.00875 1.01,1.00875 0.285,0 0.5575,-0.045 0.6775,-0.075 l 0,1.1 c -0.25625,0.045 -0.6625,0.09 -1.175,0.09 -1.295,0 -1.9125,-0.37625 -1.9125,-1.61125 l 0,-5.04625 -1.34125,0 L 132.92137,188.20082 Z"
         id="path2865"
         style="fill:#000000;fill-opacity:1;fill-rule:nonzero;stroke:none" />
      <path
         d="m 132.92137,188.20082 1.34125,0 0,-1.58125 1.4,-0.4525 0,2.03375 1.6875,0 0,1.04 -1.6875,0 0,4.53375 c 0,0.37625 0,1.00875 1.01,1.00875 0.285,0 0.5575,-0.045 0.6775,-0.075 l 0,1.1 c -0.25625,0.045 -0.6625,0.09 -1.175,0.09 -1.295,0 -1.9125,-0.37625 -1.9125,-1.61125 l 0,-5.04625 -1.34125,0 L 132.92137,188.20082 Z"
         id="path2869"
         style="fill:#000000;stroke:#000000;stroke-width:0.38624999;stroke-linecap:butt;stroke-linejoin:miter;stroke-miterlimit:4;stroke-opacity:1;stroke-dasharray:none" />
      <path
         d="m 140.84475,193.5487 c -0.015,0.5725 0.28625,1.37125 1.65625,1.37125 0.58875,0 1.025,-0.10625 1.32625,-0.4825 0.15,-0.19625 0.24125,-0.4525 0.24125,-0.7075 0,-0.73875 -0.5275,-0.87375 -1.6575,-1.13 -1.58125,-0.3625 -2.9075,-0.67875 -2.9075,-2.26 0,-1.38625 1.205,-2.29 2.9525,-2.29 0.94875,0 2.275,0.27125 2.72625,1.175 0.19625,0.42125 0.19625,0.78375 0.19625,1.1 l -1.44625,0 c 0.045,-1.145 -0.94875,-1.235 -1.46125,-1.235 -0.21,0 -1.53625,0 -1.53625,1.085 0,0.6925 0.6775,0.8575 1.07,0.96375 2.09375,0.4975 2.54625,0.6175 2.9975,1.03875 0.42125,0.3925 0.5725,0.91875 0.5725,1.40125 0,0.84375 -0.4675,1.56625 -1.02375,1.9125 -0.66375,0.4075 -1.46125,0.5125 -2.245,0.5125 -1.53625,0 -2.9675,-0.6325 -2.9525,-2.455 L 140.84475,193.5487 Z"
         id="path2873"
         style="fill:#000000;fill-opacity:1;fill-rule:nonzero;stroke:none" />
      <path
         d="m 140.84475,193.5487 c -0.015,0.5725 0.28625,1.37125 1.65625,1.37125 0.58875,0 1.025,-0.10625 1.32625,-0.4825 0.15,-0.19625 0.24125,-0.4525 0.24125,-0.7075 0,-0.73875 -0.5275,-0.87375 -1.6575,-1.13 -1.58125,-0.3625 -2.9075,-0.67875 -2.9075,-2.26 0,-1.38625 1.205,-2.29 2.9525,-2.29 0.94875,0 2.275,0.27125 2.72625,1.175 0.19625,0.42125 0.19625,0.78375 0.19625,1.1 l -1.44625,0 c 0.045,-1.145 -0.94875,-1.235 -1.46125,-1.235 -0.21,0 -1.53625,0 -1.53625,1.085 0,0.6925 0.6775,0.8575 1.07,0.96375 2.09375,0.4975 2.54625,0.6175 2.9975,1.03875 0.42125,0.3925 0.5725,0.91875 0.5725,1.40125 0,0.84375 -0.4675,1.56625 -1.02375,1.9125 -0.66375,0.4075 -1.46125,0.5125 -2.245,0.5125 -1.53625,0 -2.9675,-0.6325 -2.9525,-2.455 L 140.84475,193.5487 Z"
         id="path2877"
         style="fill:#000000;stroke:#000000;stroke-width:0.38624999;stroke-linecap:butt;stroke-linejoin:miter;stroke-miterlimit:4;stroke-opacity:1;stroke-dasharray:none" />
      <path
         d="m 156.2095,192.6147 c 0.03,0.7525 0.12125,2.15375 2.62125,2.15375 2.26,0 2.545,-1.40125 2.545,-1.9425 0,-1.22 -0.97875,-1.46125 -2.5,-1.83875 -1.6575,-0.40625 -2.395,-0.58625 -2.9525,-0.96375 -0.88875,-0.6025 -1.13,-1.41625 -1.13,-2.13875 0,-2.21375 2.095,-3.17875 4.1425,-3.17875 0.72375,0 2.185,0.12125 3.05875,1.07 0.60125,0.6625 0.63125,1.40125 0.6625,1.8525 l -1.56625,0 c -0.0763,-1.355 -1.22125,-1.65625 -2.29,-1.65625 -1.50625,0 -2.41,0.6775 -2.41,1.76125 0,0.96375 0.63125,1.29625 1.95875,1.6125 2.59,0.6625 2.87625,0.7225 3.50875,1.145 1.01,0.6625 1.085,1.71625 1.085,2.16875 0,1.9275 -1.50625,3.39 -4.29375,3.39 -0.8275,0 -2.515,-0.13625 -3.37375,-1.23625 -0.61875,-0.7975 -0.63375,-1.67125 -0.63375,-2.19875 L 156.2095,192.6147 Z"
         id="path2881"
         style="fill:#000000;fill-opacity:1;fill-rule:nonzero;stroke:none" />
      <path
         d="m 156.2095,192.6147 c 0.03,0.7525 0.12125,2.15375 2.62125,2.15375 2.26,0 2.545,-1.40125 2.545,-1.9425 0,-1.22 -0.97875,-1.46125 -2.5,-1.83875 -1.6575,-0.40625 -2.395,-0.58625 -2.9525,-0.96375 -0.88875,-0.6025 -1.13,-1.41625 -1.13,-2.13875 0,-2.21375 2.095,-3.17875 4.1425,-3.17875 0.72375,0 2.185,0.12125 3.05875,1.07 0.60125,0.6625 0.63125,1.40125 0.6625,1.8525 l -1.56625,0 c -0.0763,-1.355 -1.22125,-1.65625 -2.29,-1.65625 -1.50625,0 -2.41,0.6775 -2.41,1.76125 0,0.96375 0.63125,1.29625 1.95875,1.6125 2.59,0.6625 2.87625,0.7225 3.50875,1.145 1.01,0.6625 1.085,1.71625 1.085,2.16875 0,1.9275 -1.50625,3.39 -4.29375,3.39 -0.8275,0 -2.515,-0.13625 -3.37375,-1.23625 -0.61875,-0.7975 -0.63375,-1.67125 -0.63375,-2.19875 L 156.2095,192.6147 Z"
         id="path2885"
         style="fill:#000000;stroke:#000000;stroke-width:0.38624999;stroke-linecap:butt;stroke-linejoin:miter;stroke-miterlimit:4;stroke-opacity:1;stroke-dasharray:none" />
      <path
         d="m 168.39612,194.99445 c 1.07,0 2.29,-0.7675 2.29,-3.0425 0,-1.88375 -0.87375,-2.8775 -2.2,-2.8775 -0.9025,0 -2.365,0.5725 -2.365,2.9375 0,1.55125 0.66375,2.9825 2.275,2.9825 m 0.09,-6.96 c 3.0275,0 3.70625,2.38125 3.70625,3.9625 0,2.215 -1.25,4.0525 -3.82625,4.0525 -2.50125,0 -3.72125,-1.7325 -3.72125,-3.94625 0,-1.86875 0.87375,-4.06875 3.84125,-4.06875"
         id="path2889"
         style="fill:#000000;fill-opacity:1;fill-rule:nonzero;stroke:none" />
      <path
         d="m 168.39612,194.99445 c 1.07,0 2.29,-0.7675 2.29,-3.0425 0,-1.88375 -0.87375,-2.8775 -2.2,-2.8775 -0.9025,0 -2.365,0.5725 -2.365,2.9375 C 166.12112,193.5632 166.78487,194.99445 168.39612,194.99445 z m 0.09,-6.96 c 3.0275,0 3.70625,2.38125 3.70625,3.9625 0,2.215 -1.25,4.0525 -3.82625,4.0525 -2.50125,0 -3.72125,-1.7325 -3.72125,-3.94625 C 164.64487,190.23445 165.51862,188.03445 168.48612,188.03445 Z"
         id="path2893"
         style="fill:#000000;stroke:#000000;stroke-width:0.38624999;stroke-linecap:butt;stroke-linejoin:miter;stroke-miterlimit:4;stroke-opacity:1;stroke-dasharray:none" />
      <path
         d="m 178.74487,190.65633 c -0.03,-0.34625 -0.13625,-1.58125 -1.50625,-1.58125 -1.95875,0 -1.95875,2.27375 -1.95875,2.84625 0,1.5525 0.37625,2.9975 1.8825,2.9975 1.205,0 1.6125,-0.90375 1.6425,-1.64125 l 1.43,0 c -0.0888,1.47625 -1.18875,2.71125 -3.0575,2.71125 -0.51125,0 -1.68625,-0.105 -2.485,-0.97875 -0.4525,-0.5275 -0.90375,-1.32625 -0.90375,-2.8925 0,-3.14875 1.9275,-4.0825 3.435,-4.0825 0.4975,0 1.62625,0.105 2.31875,0.93375 0.55875,0.64875 0.60375,1.26625 0.63375,1.6875 L 178.74487,190.65633 Z"
         id="path2897"
         style="fill:#000000;fill-opacity:1;fill-rule:nonzero;stroke:none" />
      <path
         d="m 178.74487,190.65633 c -0.03,-0.34625 -0.13625,-1.58125 -1.50625,-1.58125 -1.95875,0 -1.95875,2.27375 -1.95875,2.84625 0,1.5525 0.37625,2.9975 1.8825,2.9975 1.205,0 1.6125,-0.90375 1.6425,-1.64125 l 1.43,0 c -0.0888,1.47625 -1.18875,2.71125 -3.0575,2.71125 -0.51125,0 -1.68625,-0.105 -2.485,-0.97875 -0.4525,-0.5275 -0.90375,-1.32625 -0.90375,-2.8925 0,-3.14875 1.9275,-4.0825 3.435,-4.0825 0.4975,0 1.62625,0.105 2.31875,0.93375 0.55875,0.64875 0.60375,1.26625 0.63375,1.6875 L 178.74487,190.65633 Z"
         id="path2901"
         style="fill:#000000;stroke:#000000;stroke-width:0.38624999;stroke-linecap:butt;stroke-linejoin:miter;stroke-miterlimit:4;stroke-opacity:1;stroke-dasharray:none" />
      <path
         d="m 182.9175,188.23095 1.41625,0 0,7.5625 -1.41625,0 L 182.9175,188.23095 z m -0.15125,-3.28375 1.7025,0 0,1.5525 -1.7025,0 L 182.76625,184.9472 Z"
         id="path2903"
         style="fill:#000000;fill-opacity:1;fill-rule:nonzero;stroke:none" />
      <path
         d="m 182.91725,188.23108 1.41625,0 0,7.5625 -1.41625,0 L 182.91725,188.23108 z m -0.15125,-3.28375 1.70375,0 0,1.55125 -1.70375,0 L 182.766,184.94733 Z"
         id="path2907"
         style="fill:#000000;stroke:#000000;stroke-width:0.38624999;stroke-linecap:butt;stroke-linejoin:miter;stroke-miterlimit:4;stroke-opacity:1;stroke-dasharray:none" />
      <path
         d="m 191.97087,191.27382 c 0.0138,-0.7225 -0.12125,-2.22875 -1.8675,-2.22875 -0.92,0 -2.035,0.55625 -2.065,2.22875 L 191.97087,191.27382 z m -3.9925,0.99375 c -0.03,1.5675 0.61875,2.7275 2.16875,2.7275 0.91875,0 1.6575,-0.4825 1.77875,-1.5675 l 1.41625,0 c -0.0462,0.3775 -0.10625,0.995 -0.64875,1.5825 -0.33125,0.37625 -1.085,1.00875 -2.605,1.00875 -2.38,0 -3.51125,-1.47625 -3.51125,-3.87125 0,-1.49125 0.30125,-2.72625 1.49125,-3.555 0.72375,-0.5125 1.6275,-0.5575 2.06375,-0.5575 3.39,0 3.31375,2.9975 3.28375,4.2325 L 187.97837,192.26757 Z"
         id="path2911"
         style="fill:#000000;fill-opacity:1;fill-rule:nonzero;stroke:none" />
      <path
         d="m 191.97087,191.27382 c 0.0138,-0.7225 -0.12125,-2.22875 -1.8675,-2.22875 -0.92,0 -2.035,0.55625 -2.065,2.22875 L 191.97087,191.27382 z m -3.9925,0.99375 c -0.03,1.5675 0.61875,2.7275 2.16875,2.7275 0.91875,0 1.6575,-0.4825 1.77875,-1.5675 l 1.41625,0 c -0.0462,0.3775 -0.10625,0.995 -0.64875,1.5825 -0.33125,0.37625 -1.085,1.00875 -2.605,1.00875 -2.38,0 -3.51125,-1.47625 -3.51125,-3.87125 0,-1.49125 0.30125,-2.72625 1.49125,-3.555 0.72375,-0.5125 1.6275,-0.5575 2.06375,-0.5575 3.39,0 3.31375,2.9975 3.28375,4.2325 L 187.97837,192.26757 Z"
         id="path2915"
         style="fill:#000000;stroke:#000000;stroke-width:0.38624999;stroke-linecap:butt;stroke-linejoin:miter;stroke-miterlimit:4;stroke-opacity:1;stroke-dasharray:none" />
      <path
         d="m 194.96812,188.20082 1.34125,0 0,-1.58125 1.40125,-0.4525 0,2.03375 1.68625,0 0,1.04 -1.68625,0 0,4.53375 c 0,0.37625 0,1.00875 1.00875,1.00875 0.28625,0 0.5575,-0.045 0.6775,-0.075 l 0,1.1 c -0.25625,0.045 -0.6625,0.09 -1.175,0.09 -1.295,0 -1.9125,-0.37625 -1.9125,-1.61125 l 0,-5.04625 -1.34125,0 L 194.96812,188.20082 Z"
         id="path2919"
         style="fill:#000000;fill-opacity:1;fill-rule:nonzero;stroke:none" />
      <path
         d="m 194.96812,188.20082 1.34125,0 0,-1.58125 1.40125,-0.4525 0,2.03375 1.68625,0 0,1.04 -1.68625,0 0,4.53375 c 0,0.37625 0,1.00875 1.00875,1.00875 0.28625,0 0.5575,-0.045 0.6775,-0.075 l 0,1.1 c -0.25625,0.045 -0.6625,0.09 -1.175,0.09 -1.295,0 -1.9125,-0.37625 -1.9125,-1.61125 l 0,-5.04625 -1.34125,0 L 194.96812,188.20082 Z"
         id="path2923"
         style="fill:#000000;stroke:#000000;stroke-width:0.38624999;stroke-linecap:butt;stroke-linejoin:miter;stroke-miterlimit:4;stroke-opacity:1;stroke-dasharray:none" />
      <path
         d="m 205.48275,195.83832 -1.085,2.8175 -1.46125,0 1.145,-2.8925 -3.14875,-7.5325 1.5975,0 2.365,5.965 2.41,-5.965 1.53625,0 L 205.48275,195.83832 Z"
         id="path2927"
         style="fill:#000000;fill-opacity:1;fill-rule:nonzero;stroke:none" />
      <path
         d="m 205.48275,195.83832 -1.085,2.8175 -1.46125,0 1.145,-2.8925 -3.14875,-7.5325 1.5975,0 2.365,5.965 2.41,-5.965 1.53625,0 L 205.48275,195.83832 Z"
         id="path2931"
         style="fill:#000000;stroke:#000000;stroke-width:0.38624999;stroke-linecap:butt;stroke-linejoin:miter;stroke-miterlimit:4;stroke-opacity:1;stroke-dasharray:none" />
    </g>
  </g>
</svg>
