<?xml version="1.0" encoding="UTF-8" standalone="no"?>
<!-- Created with Inkscape (http://www.inkscape.org/) -->

<svg
   version="1.1"
   id="svg1"
   width="207.03783"
   height="169.98573"
   viewBox="0 0 207.03783 169.98573"
   sodipodi:docname="vmaf_logo.svg"
   inkscape:version="1.3.2 (091e20e, 2023-11-25)"
   xmlns:inkscape="http://www.inkscape.org/namespaces/inkscape"
   xmlns:sodipodi="http://sodipodi.sourceforge.net/DTD/sodipodi-0.dtd"
   xmlns="http://www.w3.org/2000/svg"
   xmlns:svg="http://www.w3.org/2000/svg">
  <defs
     id="defs1" />
  <sodipodi:namedview
     id="namedview1"
     pagecolor="#ffffff"
     bordercolor="#666666"
     borderopacity="1.0"
     inkscape:showpageshadow="2"
     inkscape:pageopacity="0.0"
     inkscape:pagecheckerboard="0"
     inkscape:deskcolor="#d1d1d1"
     inkscape:zoom="2.8764428"
     inkscape:cx="104.99079"
     inkscape:cy="86.391428"
     inkscape:window-width="1248"
     inkscape:window-height="790"
     inkscape:window-x="0"
     inkscape:window-y="25"
     inkscape:window-maximized="0"
     inkscape:current-layer="g1" />
  <g
     inkscape:groupmode="layer"
     inkscape:label="Image"
     id="g1"
     transform="translate(-6.6666665,-9.4141373)">
    <g
       id="g8">
      <path
         style="fill:#a5d1f6"
         d="M 26.997374,165.16666 C 24.135417,157.375 20.938114,148.66063 19.892259,145.8014 l -1.901557,-5.1986 4.103824,0.1986 4.103823,0.1986 4.848881,12.8925 c 2.666884,7.09087 4.973129,13.01674 5.124988,13.1686 0.151859,0.15186 2.512017,-5.64976 5.244795,-12.8925 L 46.3857,141 l 3.80715,-0.19994 c 2.782741,-0.14614 3.806446,0.0333 3.804536,0.66667 -0.0026,0.85013 -12.921631,35.99867 -13.686307,37.23594 -0.214373,0.34686 -2.126854,0.63066 -4.249957,0.63066 H 32.200934 Z M 68.666665,160 v -19.33334 h 3.622468 3.622467 l 5.125513,7.16667 c 2.819032,3.94167 5.331955,7.3947 5.584272,7.67341 0.252318,0.2787 2.840726,-2.93261 5.752019,-7.13625 l 5.29326,-7.64298 3.833336,-0.0304 3.83333,-0.0304 V 160 179.33333 h -3.65227 -3.652272 L 97.847726,166.5 97.666664,153.66666 92.666665,160.8085 c -2.75,3.92801 -5.3,7.15041 -5.666667,7.16089 -0.366667,0.0105 -2.916667,-3.1994 -5.666667,-7.13305 l -4.999999,-7.15211 -0.181062,12.82455 -0.181062,12.82455 h -3.652272 -3.652271 z m 50.666665,18.94924 c 0,-0.24624 3.12133,-7.83555 6.93628,-16.86514 3.81496,-9.02959 7.39965,-17.54244 7.96599,-18.91744 1.02393,-2.48599 1.05136,-2.49992 4.89705,-2.48661 l 3.86735,0.0134 7.83333,18.83344 c 4.30833,10.3584 7.83333,19.05237 7.83333,19.31995 0,0.26757 -1.76824,0.4865 -3.92943,0.4865 h -3.92944 l -1.66598,-4.16667 -1.66599,-4.16666 -8.32628,-0.186 -8.32628,-0.186 -1.672,4.186 -1.672,4.186 -4.07296,0.19847 c -2.24014,0.10917 -4.07297,-0.003 -4.07297,-0.24923 z m 22.52949,-21.11591 c -1.10426,-2.65833 -2.23773,-5.08093 -2.51883,-5.38355 -0.41528,-0.44707 -4.67733,8.51672 -4.67733,9.8372 0,0.20883 2.07088,0.37968 4.60195,0.37968 h 4.60194 z m 30.80384,2.19993 v -19.3666 H 187.33333 202 V 144.33333 148 h -10.66667 -10.66667 v 3.64071 3.64071 l 5.83334,0.19262 5.83333,0.19262 V 159 v 3.33333 l -5.81302,0.19232 -5.81302,0.19233 -0.18698,8.14101 -0.18698,8.14101 -3.83333,0.19993 -3.83334,0.19994 z M 101,125.31325 C 70.465228,123.13898 42.451814,110.23556 21.964771,88.908379 13.604547,80.205318 6.6666665,70.415482 6.6666665,67.321682 c 0,-2.048975 5.1395395,-9.676844 11.6876055,-17.346208 15.61203,-18.285453 41.007261,-32.848407 66.144906,-37.930951 13.868039,-2.8039591 26.492782,-3.3455843 40.171572,-1.723437 33.85763,4.015126 63.7783,20.91098 83.02593,46.883785 7.03072,9.487268 7.54822,11.741728 3.32974,14.505785 -2.56934,1.683493 -5.05659,0.34282 -7.91548,-4.266588 C 192.54965,50.416067 172.27472,34.473361 150.9297,26.412619 144.83143,24.109666 132.13287,20.911693 127,20.386224 l -4,-0.409493 4.35048,1.559514 c 17.34469,6.217537 30.20526,20.093973 34.72111,37.463753 1.8485,7.110094 1.99288,18.787386 0.31186,25.224129 -4.27289,16.361233 -13.85001,28.468603 -28.24369,35.705603 -9.66133,4.85762 -19.06716,6.38559 -33.13976,5.38352 z M 67.945193,104.92759 C 51.811789,83.612408 53.21303,54.578771 71.282905,35.770418 c 6.893406,-7.175125 14.044412,-11.749335 22.698136,-14.51908 4.986603,-1.596032 2.268212,-1.543685 -6.366244,0.122593 -26.067066,5.030425 -50.34701,19.630264 -65.715282,39.515435 -2.5114,3.249528 -4.566182,6.199719 -4.566182,6.555982 0,0.82978 3.683557,6.202675 6.308365,9.201482 10.788898,12.326165 20.125474,19.758681 33.714104,26.8386 5.002032,2.60615 12.135267,5.68448 13.450807,5.80466 0.260303,0.0238 -1.027334,-1.93934 -2.861416,-4.3625 z m 24.964899,2.35735 c 2.101321,-1.6529 2.383479,-5.07647 0.589906,-7.15764 -3.228009,-3.745619 -9.1,-1.462084 -9.1,3.53886 0,4.50807 4.790055,6.54497 8.510094,3.61878 z M 79.798872,92.999169 c 3.189266,-2.233848 2.301395,-7.566985 -1.500406,-9.012427 -3.141741,-1.194488 -6.965134,1.41725 -6.965134,4.757844 0,4.113194 5.046438,6.649416 8.46554,4.254583 z m 65.377048,-3.741458 c 0.1106,-1.000231 -0.61054,-2.522996 -1.94199,-4.100752 l -2.11792,-2.509706 -2.44697,4.509706 -2.44697,4.509705 3.05563,0.364224 c 3.6097,0.430268 5.65009,-0.529063 5.89822,-2.773177 z M 76.618278,72.910092 c 4.133087,-5.254369 -2.913894,-11.341752 -7.648583,-6.607063 -1.999794,1.999794 -2.087556,4.276892 -0.254643,6.607063 1.951935,2.481483 5.951291,2.481483 7.903226,0 z m 6.146941,-18.118794 c 3.820678,-3.911378 7.901446,-9.177699 7.901446,-10.19699 0,-4.107243 -3.794115,-6.588662 -7.626053,-4.987576 -2.459295,1.027558 -8.160185,7.642785 -8.806861,10.219346 -1.311337,5.224782 4.80234,8.782875 8.531468,4.96522 z m 61.478201,-0.17302 c 3.46432,-2.725034 1.7354,-7.567414 -4.80275,-13.451612 -3.36241,-3.026098 -6.03594,-3.29867 -8.47098,-0.863637 -2.72351,2.723517 -2.17473,4.553824 3.1253,10.423515 5.24718,5.811168 6.90168,6.445635 10.14843,3.891734 z M 118.66666,38.666666 c 1.74016,-1.74016 1.76897,-5.56437 0.0548,-7.278513 -2.54889,-2.548899 -14.39433,-2.613121 -17.5042,-0.0949 -1.88104,1.523172 -2.011345,5.390998 -0.24729,7.340256 1.10823,1.224576 2.02214,1.366492 8.8,1.366492 6.67445,0 7.72004,-0.156701 8.89667,-1.333333 z"
         id="path14" />
      <path
         style="fill:#66b1f7"
         d="m 25.499999,160.80165 c -3.758333,-10.22217 -6.833333,-18.9493 -6.833333,-19.39364 0,-0.56038 1.144026,-0.74663 3.734207,-0.60795 L 26.13508,141 l 4.608164,12.33333 c 2.53449,6.78333 4.761158,12.75127 4.948152,13.26208 0.186993,0.51082 0.506301,0.76244 0.709573,0.55917 0.203272,-0.20327 2.551468,-6.17121 5.218213,-13.26208 L 46.467809,141 l 3.766095,-0.19994 c 2.760094,-0.14653 3.757522,0.0316 3.734,0.66667 -0.01765,0.47663 -3.113896,9.1166 -6.880543,19.19993 L 40.238912,179 l -3.95279,0.1937 -3.952789,0.1937 z M 68.666665,160 v -19.33334 h 3.613954 3.613955 l 5.472215,7.71383 c 3.009719,4.24261 5.696848,7.46761 5.971398,7.16667 0.274551,-0.30094 2.805664,-3.77216 5.624696,-7.71383 l 5.125513,-7.16667 h 3.622464 3.62247 V 160 179.33333 h -3.65257 -3.652576 l -0.18076,-12.95798 -0.18076,-12.95798 -4.999999,7.07039 c -2.75,3.88871 -5.3,7.15906 -5.666667,7.26743 -0.366667,0.10837 -2.991667,-3.1558 -5.833333,-7.2537 l -5.166667,-7.45074 v 13.14129 13.14129 h -3.666666 -3.666667 z m 50.666665,19.07734 c 0,-0.14079 3.58008,-8.76579 7.95573,-19.16666 L 135.24478,141 h 3.81852 3.81852 l 7.56171,18 c 4.15894,9.9 7.73075,18.525 7.93735,19.16666 0.32901,1.02188 -0.11332,1.16667 -3.56418,1.16667 h -3.9398 l -1.63185,-4.16667 -1.63184,-4.16666 -8.39006,-0.18597 -8.39006,-0.18596 -1.84989,4.35263 -1.84989,4.35263 h -3.89999 c -2.145,0 -3.89999,-0.1152 -3.89999,-0.25599 z m 24.44479,-16.69397 c -1.52581,-3.97618 -4.63042,-11.08127 -4.77065,-10.9179 -0.74832,0.87184 -4.78683,11.19962 -4.49395,11.4925 0.20645,0.20645 2.45746,0.37536 5.00225,0.37536 3.73055,0 4.55626,-0.18403 4.26235,-0.94996 z M 172.66666,160 V 140.66666 H 187.33333 202 V 144.33333 148 h -11.03484 -11.03484 l 0.2015,3.5 0.20151,3.5 5.83333,0.19262 L 192,155.38524 V 159 v 3.61475 l -5.83334,0.19262 -5.83333,0.19263 -0.18719,8.16666 -0.18718,8.16667 h -3.64615 -3.64615 z M 96.666664,124.64195 C 76.028128,122.14097 57.52875,115.38342 40.772855,104.22478 29.20532,96.521343 16.654696,83.941223 9.7989059,73.178037 6.0002419,67.214359 6.0106975,67.06806 10.740984,59.996205 18.336815,48.640315 31.734108,35.98983 44.692736,27.937034 66.042606,14.669722 94.554718,7.7536148 119.1255,9.8820764 c 29.23783,2.5327486 52.76863,12.4899386 74.11042,31.3602416 9.17577,8.113174 20.09741,22.484363 20.09741,26.445095 0,2.791846 -1.8971,4.468935 -4.74285,4.192808 -2.31604,-0.224727 -2.64197,-0.574339 -9.25715,-9.929805 -3.66766,-5.186952 -13.52029,-15.219677 -19.18257,-19.533204 -14.57668,-11.104519 -32.07527,-18.603674 -50.81743,-21.778204 -9.17428,-1.553931 -14.81556,-1.730434 -7.91618,-0.247679 17.79611,3.824586 33.23549,17.450437 38.8372,34.275336 3.88815,11.67815 4.03958,22.645683 0.46707,33.828582 -5.38785,16.865463 -18.93632,29.927233 -36.17409,34.874633 -5.65989,1.62445 -19.69024,2.26459 -27.880666,1.27207 z M 70.564056,107.5 C 56.71082,92.906619 53.253688,68.61783 62.309215,49.503908 69.57203,34.173946 82.857331,23.710561 99.333331,20.344044 c 7.331559,-1.498047 0.663726,-1.207063 -8.749782,0.38184 -15.466899,2.610653 -31.755332,9.074485 -45.002952,17.858778 -10.389226,6.888937 -28.262851,25.426374 -28.240855,29.2897 0.0098,1.720878 6.342384,9.799112 12.660257,16.150194 9.891848,9.943844 22.435589,18.317184 35.377656,23.615704 7.275675,2.97868 8.125345,2.9557 5.186401,-0.14026 z m 21.872322,0.54599 c 4.843842,-2.95357 2.767602,-9.969451 -2.966683,-10.02479 -5.739727,-0.05539 -7.539074,7.59963 -2.469697,10.50692 1.889446,1.0836 3.03526,0.98198 5.43638,-0.48213 z M 79.285651,93.691321 c 2.130675,-1.101815 2.714347,-2.220602 2.714347,-5.202881 0,-5.100802 -6.271087,-7.068946 -9.666468,-3.033765 -2.165893,2.574018 -1.906913,5.415341 0.702931,7.711989 1.983084,1.745104 3.62288,1.882775 6.24919,0.524657 z M 145.1958,89.248023 c 0.10769,-0.880404 -0.35281,-2.196374 -1.02333,-2.92438 -0.67052,-0.728005 -1.6985,-2.015239 -2.2844,-2.86052 l -1.06526,-1.536875 -0.76741,2.203542 c -0.42207,1.211947 -1.50721,3.322109 -2.4114,4.689247 -0.9042,1.367139 -1.644,2.625702 -1.644,2.796806 0,0.698205 6.43024,0.688091 7.66666,-0.01206 0.73334,-0.415265 1.42145,-1.475357 1.52914,-2.35576 z M 76.717947,73.384613 c 1.17478,-1.17478 1.948718,-2.651372 1.948718,-3.717948 0,-2.515781 -3.324567,-5.666667 -5.979021,-5.666667 -4.784742,0 -7.176598,6.23832 -3.717949,9.69697 2.293718,2.293718 5.261833,2.174064 7.748252,-0.312355 z m 8.709499,-20.884614 c 4.313072,-4.496187 6.14265,-7.718991 5.466587,-9.629402 -0.908656,-2.567671 -3.073326,-4.203931 -5.561536,-4.203931 -2.073096,0 -2.988663,0.558006 -6.159023,3.753715 -2.048167,2.064544 -4.243956,4.719328 -4.879532,5.899521 -2.129633,3.954489 0.372369,8.346763 4.754627,8.346763 2.051014,0 2.937156,-0.578826 6.378877,-4.166666 z m 59.739214,1.771058 c 2.85526,-3.195494 1.93079,-5.809122 -4.38949,-12.40982 -3.24984,-3.394035 -5.54932,-4.295064 -8.29609,-3.250745 -2.17052,0.82523 -4.05264,4.255345 -3.42317,6.238629 0.57347,1.806846 8.83286,10.998826 10.23965,11.395829 1.91316,0.539905 4.35751,-0.282178 5.8691,-1.973893 z M 117.54382,39.891104 c 3.51553,-1.87238 4.08113,-5.316619 1.39691,-8.506621 -1.71454,-2.037626 -1.76971,-2.05115 -8.36643,-2.05115 -6.89456,0 -9.99738,0.868318 -10.826848,3.029868 -0.889957,2.31919 -0.388092,5.056766 1.222238,6.667101 1.5216,1.521591 2.10916,1.636364 8.37717,1.636364 3.84592,0 7.36615,-0.33307 8.19696,-0.775562 z"
         id="path13" />
      <path
         style="fill:#5cb2f9"
         d="m 25.499999,160.80165 c -3.758333,-10.22217 -6.833333,-18.9493 -6.833333,-19.39364 0,-0.56038 1.144026,-0.74663 3.734207,-0.60795 L 26.13508,141 l 4.608164,12.33333 c 2.53449,6.78333 4.761158,12.75127 4.948152,13.26208 0.186993,0.51082 0.506301,0.76244 0.709573,0.55917 0.203272,-0.20327 2.551468,-6.17121 5.218213,-13.26208 L 46.467809,141 l 3.766095,-0.19994 c 2.760094,-0.14653 3.757522,0.0316 3.734,0.66667 -0.01765,0.47663 -3.113896,9.1166 -6.880543,19.19993 L 40.238912,179 l -3.95279,0.1937 -3.952789,0.1937 z M 68.666665,160 v -19.33334 h 3.613954 3.613955 l 5.472215,7.71383 c 3.009719,4.24261 5.696848,7.46761 5.971398,7.16667 0.274551,-0.30094 2.805664,-3.77216 5.624696,-7.71383 l 5.125513,-7.16667 h 3.622464 3.62247 V 160 179.33333 h -3.65257 -3.652576 l -0.18076,-12.95798 -0.18076,-12.95798 -4.999999,7.07039 c -2.75,3.88871 -5.3,7.15906 -5.666667,7.26743 -0.366667,0.10837 -2.991667,-3.1558 -5.833333,-7.2537 l -5.166667,-7.45074 v 13.14129 13.14129 h -3.666666 -3.666667 z m 50.666665,19.07734 c 0,-0.14079 3.58008,-8.76579 7.95573,-19.16666 L 135.24478,141 h 3.81852 3.81852 l 7.56171,18 c 4.15894,9.9 7.73075,18.525 7.93735,19.16666 0.32901,1.02188 -0.11332,1.16667 -3.56418,1.16667 h -3.9398 l -1.63185,-4.16667 -1.63184,-4.16666 -8.39006,-0.18597 -8.39006,-0.18596 -1.84989,4.35263 -1.84989,4.35263 h -3.89999 c -2.145,0 -3.89999,-0.1152 -3.89999,-0.25599 z m 24.44479,-16.69397 c -1.52581,-3.97618 -4.63042,-11.08127 -4.77065,-10.9179 -0.74832,0.87184 -4.78683,11.19962 -4.49395,11.4925 0.20645,0.20645 2.45746,0.37536 5.00225,0.37536 3.73055,0 4.55626,-0.18403 4.26235,-0.94996 z M 172.66666,160 V 140.66666 H 187.33333 202 V 144.33333 148 h -11.03484 -11.03484 l 0.2015,3.5 0.20151,3.5 5.83333,0.19262 L 192,155.38524 V 159 v 3.61475 l -5.83334,0.19262 -5.83333,0.19263 -0.18719,8.16666 -0.18718,8.16667 h -3.64615 -3.64615 z M 101.06665,123.89215 C 101.56043,123.0932 114,123.30555 114,124.11293 c 0,0.34736 -2.92135,0.56878 -6.65535,0.50445 -3.82965,-0.066 -6.49513,-0.3739 -6.278,-0.72523 z m -9.733319,-1.2054 c 2.227002,-0.74005 4.666667,-0.81568 4.666667,-0.14466 0,0.29815 -1.425,0.57729 -3.166667,0.6203 -2.509551,0.062 -2.820816,-0.0367 -1.5,-0.47564 z m 28.999999,-0.0201 C 120.10672,122.3 119.33901,122 118.62732,122 c -0.71169,0 -1.29399,-0.3 -1.29399,-0.66667 0,-0.36667 0.4323,-0.66667 0.96066,-0.66667 0.52836,0 1.14606,0.3 1.37267,0.66667 0.22662,0.36667 1.31203,0.66667 2.41203,0.66667 1.16357,0 1.82768,0.27881 1.58797,0.66666 -0.22661,0.36667 -0.97661,0.66667 -1.66666,0.66667 -0.69006,0 -1.44006,-0.3 -1.66667,-0.66667 z m -38.944443,-0.90621 c 0.152778,-0.13175 1.177778,-0.44087 2.277778,-0.68692 1.46061,-0.32672 1.730305,-0.26486 1,0.22934 -0.900247,0.60921 -3.946769,1.0345 -3.277778,0.45758 z m 44.277773,-0.42712 c 0.22662,-0.36667 0.84432,-0.66667 1.37268,-0.66667 0.52836,0 0.96066,0.3 0.96066,0.66667 C 128,121.7 127.38229,122 126.62732,122 c -0.75497,0 -1.18727,-0.3 -0.96066,-0.66667 z m -39.019075,-1.09779 c -1.216199,-0.32994 -2.976927,-2.90221 -1.98657,-2.90221 0.369774,0 0.672316,0.31448 0.672316,0.69885 0,0.38437 0.975,1.12262 2.166667,1.64057 2.007545,0.87256 1.507194,1.20291 -0.852413,0.56279 z m 6.352413,-0.90221 c 0.226612,-0.36667 0.994317,-0.66667 1.706011,-0.66667 0.711694,0 1.293989,0.3 1.293989,0.66667 0,0.36667 -0.767705,0.66667 -1.706011,0.66667 -0.967579,0 -1.527671,-0.28856 -1.293989,-0.66667 z M 128,118.96065 c 0,-0.57164 0.30489,-0.85091 0.67754,-0.6206 0.37265,0.23031 0.50494,0.69802 0.29399,1.03935 C 128.40003,120.30409 128,120.13167 128,118.96065 Z M 72.666665,118.66666 C 72.666665,118.3 73.24896,118 73.960654,118 c 0.711693,0 1.479398,0.3 1.706011,0.66666 0.233682,0.37811 -0.326411,0.66667 -1.293989,0.66667 -0.938306,0 -1.706011,-0.3 -1.706011,-0.66667 z m 59.866665,-0.13333 c 0.62222,-0.62222 0.97778,-0.62222 1.6,0 0.62222,0.62222 0.44444,0.8 -0.8,0.8 -1.24444,0 -1.42222,-0.17778 -0.8,-0.8 z m -62.658332,-0.98874 c 0.48125,-0.19258 1.05625,-0.1689 1.277778,0.0526 0.221528,0.22153 -0.172222,0.37909 -0.875,0.35015 -0.776628,-0.032 -0.934599,-0.18996 -0.402778,-0.40278 z m 8,0 c 0.48125,-0.19258 1.05625,-0.1689 1.277778,0.0526 0.221528,0.22153 -0.172222,0.37909 -0.875,0.35015 -0.776629,-0.032 -0.9346,-0.18996 -0.402778,-0.40278 z m 10.791667,-0.21126 c 0,-0.78248 0.512413,-0.78248 2.333333,0 1.1815,0.50771 1.124563,0.57829 -0.5,0.61981 -1.008333,0.0258 -1.833333,-0.25314 -1.833333,-0.61981 z m 28.666665,0.11546 c 0,-0.30316 0.9,-0.41911 2,-0.25766 1.1,0.16144 2,0.40948 2,0.5512 0,0.14172 -0.9,0.25767 -2,0.25767 -1.1,0 -2,-0.24805 -2,-0.55121 z M 129,117.33333 c -1.08694,-0.46707 -1.12501,-0.58161 -0.20601,-0.61981 0.62002,-0.0258 1.31273,0.25314 1.53934,0.61981 0.47378,0.76659 0.45061,0.76659 -1.33333,0 z m 8.69513,-0.6206 c -0.21095,-0.34133 -0.0787,-0.80904 0.29399,-1.03935 0.37265,-0.2303 0.67754,0.049 0.67754,0.62061 0,1.17101 -0.40003,1.34343 -0.97153,0.41874 z m -70.04646,-0.74185 c -0.216715,-0.35065 0.223678,-0.63755 0.97865,-0.63755 1.60971,0 1.772104,0.37074 0.394028,0.89956 -0.538257,0.20655 -1.155962,0.0886 -1.372678,-0.26201 z m 54.68466,-0.63755 c 0.22661,-0.36667 0.69432,-0.66667 1.03935,-0.66667 0.34502,0 0.62732,0.3 0.62732,0.66667 C 124,115.7 123.53229,116 122.96065,116 c -0.57164,0 -0.85393,-0.3 -0.62732,-0.66667 z m -49.666665,-0.67261 -1.666667,-0.42548 1.550241,-0.51183 c 1.615561,-0.53339 2.423079,-0.22224 2.019204,0.77802 -0.129861,0.32162 -0.986111,0.3933 -1.902778,0.15929 z m 12.666666,0.006 C 85.333331,114.3 85.951036,114 86.706009,114 c 0.754973,0 1.187268,0.3 0.960656,0.66666 -0.226613,0.36667 -0.844318,0.66667 -1.372678,0.66667 -0.528361,0 -0.960656,-0.3 -0.960656,-0.66667 z m 33.333329,0 c 0,-0.36666 0.45,-0.66666 1,-0.66666 0.55,0 1,0.3 1,0.66666 0,0.36667 -0.45,0.66667 -1,0.66667 -0.55,0 -1,-0.3 -1,-0.66667 z m 8.36181,-0.6206 c -0.21096,-0.34133 -0.0787,-0.80903 0.29399,-1.03934 0.37264,-0.23031 0.67754,0.049 0.67754,0.6206 0,1.17102 -0.40004,1.34344 -0.97153,0.41874 z m 3.30486,-0.71273 c 0.22661,-0.36667 0.69432,-0.66667 1.03935,-0.66667 0.34502,0 0.62732,0.3 0.62732,0.66667 C 132,113.7 131.53229,114 130.96065,114 c -0.57164,0 -0.85393,-0.3 -0.62732,-0.66667 z m 7.29409,-0.31213 c -1.09842,-0.8308 -1.12847,-0.982 -0.19875,-1 0.60244,-0.0117 1.26802,0.4288 1.47908,0.9788 0.47671,1.24228 0.33714,1.24459 -1.28033,0.0212 z M 142,113.37113 c 0,-0.68572 2.62453,-2.70447 3.51602,-2.70447 0.30397,0 -0.25659,0.75 -1.24569,1.66667 C 142.29045,114.16822 142,114.30099 142,113.37113 Z M 56.333332,112.66666 C 56.10672,112.3 56.371309,112 56.921309,112 c 0.55,0 1.185411,0.3 1.412023,0.66666 0.226612,0.36667 -0.03798,0.66667 -0.587977,0.66667 -0.55,0 -1.18541,-0.3 -1.412023,-0.66667 z m 9,-0.66666 c 0,-0.36667 0.432295,-0.66667 0.960655,-0.66667 0.528361,0 1.146066,0.3 1.372678,0.66667 0.226613,0.36666 -0.205682,0.66666 -0.960655,0.66666 -0.754973,0 -1.372678,-0.3 -1.372678,-0.66666 z m 57.003698,-0.66258 C 121.67134,110.60184 121.43644,110 121.81504,110 c 0.83883,0 2.5016,1.90557 2.05365,2.35353 -0.17672,0.17672 -0.86597,-0.28053 -1.53166,-1.01611 z m -69.128698,-0.4595 c 0.48125,-0.19258 1.05625,-0.1689 1.277778,0.0526 0.221528,0.22153 -0.172222,0.3791 -0.875,0.35015 -0.776629,-0.032 -0.9346,-0.18996 -0.402778,-0.40278 z m 4.791667,-0.1335 c 0,-0.3239 -0.675,-0.79409 -1.5,-1.04487 -0.999919,-0.30394 -1.20273,-0.57713 -0.608334,-0.81942 0.490417,-0.19991 1.225417,-0.0297 1.633334,0.3782 C 57.932915,109.66625 58.82437,110 59.50601,110 c 0.68164,0 1.053934,0.3 0.827322,0.66666 -0.509021,0.82362 -2.333333,0.88441 -2.333333,0.0778 z m 30.666666,-0.1171 c 0,-0.38831 0.3,-0.5206 0.666666,-0.29399 0.366667,0.22661 0.666667,0.54432 0.666667,0.70601 0,0.1617 -0.3,0.29399 -0.666667,0.29399 -0.366666,0 -0.666666,-0.3177 -0.666666,-0.70601 z m 40.999995,0.0393 c 0.22662,-0.36666 1.12662,-0.66666 2,-0.66666 0.87339,0 1.77339,-0.3 2,-0.66667 0.22662,-0.36667 0.73478,-0.66667 1.12925,-0.66667 0.39448,0 -0.0455,0.6 -0.97783,1.33334 -1.73267,1.36292 -4.89565,1.87085 -4.15142,0.66666 z m -61.197579,-0.73575 c 0.527297,-0.52729 1.084494,-0.53304 1.966667,-0.0203 1.079081,0.62722 0.988326,0.71798 -0.73575,0.73575 -1.434217,0.0148 -1.767472,-0.17892 -1.230917,-0.71548 z m 17.550224,0.0951 c -0.539381,-0.34112 -0.807131,-0.79377 -0.595001,-1.0059 0.212131,-0.21214 0.765177,0.0716 1.22899,0.63041 0.961729,1.15882 0.777325,1.26803 -0.633989,0.37549 z m 39.035495,-1.41582 c -1.54943,-1.8414 -1.82456,-3.83131 -0.40874,-2.95629 0.30467,0.18829 0.55394,-0.73054 0.55394,-2.04186 0,-1.50452 0.51655,-2.93405 1.4,-3.874443 0.77,-0.819627 1.40459,-1.920896 1.41021,-2.447264 0.008,-0.757406 0.12464,-0.776626 0.55884,-0.09214 0.43147,0.680184 0.74963,0.617261 1.48979,-0.294639 0.80233,-0.988485 0.80304,-1.076286 0.005,-0.595217 -0.65056,0.392075 -0.78452,0.318654 -0.43891,-0.240552 0.27359,-0.442675 0.8419,-0.690043 1.2629,-0.549707 0.71138,0.237127 3.55898,-2.693392 3.02168,-3.109665 -0.37042,-0.286988 -20.48558,-1.748008 -24.02073,-1.744693 -3.20833,0.003 -7.99605,-1.700047 -11.207104,-3.986522 -1.007601,-0.717475 -2.023139,-1.113364 -2.25675,-0.879753 -0.233612,0.233611 -0.424748,-0.103941 -0.424748,-0.750116 0,-0.646175 -0.559275,-1.971175 -1.242834,-2.944445 -1.769915,-2.520053 -3.039321,-6.40604 -2.527938,-7.738683 0.351457,-0.915883 0.857926,-1.032806 2.603555,-0.601056 5.457089,1.349715 9.216359,-0.122403 10.958189,-4.291186 1.56315,-3.741148 0.79723,-7.340874 -2.13339,-10.026583 -1.35138,-1.23845 -2.27011,-2.624911 -2.07547,-3.132127 0.57093,-1.48781 5.6978,-2.498875 10.61373,-2.093124 5.29919,0.437385 7.87787,1.810912 11.83076,6.301626 2.35436,2.674697 3.03862,3.077115 4.95196,2.912272 1.22106,-0.105201 2.43798,0.161241 2.70426,0.592093 0.32992,0.53381 0.0859,0.659273 -0.766,0.39383 -0.68759,-0.214245 -1.65035,-0.13811 -2.13947,0.169189 -0.66785,0.419585 0.65598,2.565203 5.31596,8.615889 3.77358,4.89975 6.39067,7.7572 6.67836,7.291708 0.26019,-0.421001 0.67935,-2.966639 0.93145,-5.656973 0.57234,-6.107667 1.65187,-7.584407 6.03823,-8.259942 L 151,66.077985 l -3.44442,0.191137 c -2.88553,0.160124 -3.2989,0.04563 -2.54762,-0.70566 0.49324,-0.493238 1.50411,-0.896797 2.24638,-0.896797 2.05763,0 4.83573,1.470354 4.48837,2.375545 -0.16984,0.442595 0.14324,1.450088 0.69573,2.238873 0.75922,1.083949 0.95043,2.877406 0.78304,7.344513 -0.12182,3.250696 -0.44648,5.772062 -0.72148,5.603035 -0.275,-0.169028 -0.5,0.460383 -0.5,1.398689 0,0.938306 -0.31771,1.706011 -0.70601,1.706011 -0.38831,0 -0.55366,0.24651 -0.36746,0.5478 0.18621,0.30129 -0.0993,1.391717 -0.63439,2.42317 -0.67843,1.307667 -0.76552,2.12531 -0.28771,2.701034 0.74341,0.895761 0.22306,2.994663 -0.74243,2.994663 -0.32743,0 -0.60104,-0.375 -0.608,-0.833334 -0.007,-0.458333 -0.88996,0.563447 -1.9622,2.270622 -1.07223,1.707175 -2.25343,3.291783 -2.62488,3.52135 -0.37145,0.229567 -0.50166,0.870055 -0.28935,1.423304 0.24261,0.63224 0.0461,0.93387 -0.52912,0.81199 -0.50332,-0.10666 -0.84012,0.18107 -0.74845,0.6394 0.0917,0.45833 -0.20834,0.75833 -0.66667,0.66667 -0.45833,-0.0917 -0.75833,0.20833 -0.66667,0.66666 0.0917,0.45834 -0.0583,0.79781 -0.33333,0.75439 -1.42715,-0.22534 -2.08402,0.18526 -1.73818,1.08651 0.25508,0.66473 0.0778,0.89036 -0.52093,0.66311 -0.49915,-0.18944 -1.78907,0.41562 -2.86649,1.3446 -2.85652,2.46297 -4.88475,2.76914 -7.79262,1.17634 -1.58319,-0.86719 -2.35554,-1.04442 -2.1435,-0.49186 0.18231,0.4751 0.75828,1.0276 1.27993,1.22778 0.52165,0.20017 0.94846,0.67337 0.94846,1.05154 0,1.26416 -1.19829,0.70723 -2.9452,-1.36885 z m 20.141,-19.362197 c 0.10769,-0.880404 -0.35281,-2.196374 -1.02333,-2.92438 -0.67052,-0.728005 -1.6985,-2.015239 -2.2844,-2.86052 l -1.06526,-1.536875 -0.76741,2.203542 c -0.42207,1.211947 -1.50721,3.322109 -2.4114,4.689247 -0.9042,1.367139 -1.644,2.625702 -1.644,2.796806 0,0.698205 6.43024,0.688091 7.66666,-0.01206 0.73334,-0.415265 1.42145,-1.475357 1.52914,-2.35576 z M 73.506636,108.968 c -0.525255,-0.57025 -0.58431,-1.04732 -0.161959,-1.30835 0.365606,-0.22596 0.849681,0.0711 1.075722,0.66018 0.550806,1.43538 0.103549,1.75263 -0.913763,0.64817 z m 18.493362,0.36533 c 0,-0.36667 0.617705,-0.66667 1.372678,-0.66667 0.754973,0 1.187268,0.3 0.960655,0.66667 C 94.106719,109.7 93.489014,110 92.960653,110 c -0.52836,0 -0.960655,-0.3 -0.960655,-0.66667 z M 65.333332,108.66666 C 65.333332,108.3 65.615627,108 65.960654,108 c 0.345027,0 0.812732,0.3 1.039344,0.66666 0.226613,0.36667 -0.05568,0.66667 -0.627322,0.66667 -0.571639,0 -1.039344,-0.3 -1.039344,-0.66667 z m -16.993279,-0.67754 c 0.230309,-0.37265 0.698014,-0.50494 1.039345,-0.29399 0.924695,0.5715 0.752274,0.97153 -0.418744,0.97153 -0.571639,0 -0.85091,-0.30489 -0.620601,-0.67754 z m 90.336817,0.42066 c -0.0131,-0.75965 3.19433,-3.74312 4.02414,-3.74312 0.34778,0 0.63232,-0.27457 0.63232,-0.61015 0,-0.33559 0.8896,-1.4498 1.97689,-2.47602 1.5032,-1.41878 1.88072,-2.249023 1.57555,-3.464916 -0.39812,-1.586232 -0.38725,-1.589816 1.35645,-0.447305 1.56579,1.025946 2.6603,2.968201 1.14486,2.031612 -0.78179,-0.483168 -2.72042,1.427429 -2.72042,2.681069 0,0.52381 -0.55184,0.95238 -1.22632,0.95238 -0.67448,0 -1.55619,0.72398 -1.95936,1.60884 -0.40317,0.88487 -1.42633,1.8253 -2.27368,2.08986 -0.84735,0.26455 -1.76104,0.81557 -2.03043,1.22449 -0.26938,0.40891 -0.49438,0.47788 -0.5,0.15326 z m 10.05785,-0.0764 c 0.0564,-1.46671 1.05563,-3.21189 1.46225,-2.55396 0.23484,0.37997 -0.004,1.26006 -0.53046,1.95575 -0.52659,0.69568 -0.9459,0.96488 -0.93179,0.59821 z m -53.233267,-2.66667 c 0.0074,-1.46666 0.143923,-1.98817 0.303385,-1.15889 0.159463,0.82928 0.153408,2.02927 -0.01345,2.66667 -0.166862,0.63739 -0.297331,-0.0411 -0.289932,-1.50778 z m 25.165207,1.66667 c 0,-0.36667 0.31771,-0.66667 0.70602,-0.66667 0.3883,0 0.5206,0.3 0.29398,0.66667 C 121.44005,107.7 121.12235,108 120.96065,108 c -0.16169,0 -0.29399,-0.3 -0.29399,-0.66667 z m -64.124995,-0.45541 c 0.48125,-0.19258 1.05625,-0.1689 1.277778,0.0526 0.221528,0.22153 -0.172222,0.3791 -0.875,0.35015 -0.776628,-0.032 -0.934599,-0.18996 -0.402778,-0.40278 z M 146,107.08163 c 0,-0.13844 0.45,-0.62517 1,-1.08163 0.819,-0.67972 1,-0.63416 1,0.2517 0,0.5949 -0.45,1.08163 -1,1.08163 -0.55,0 -1,-0.11327 -1,-0.2517 z M 46.666666,106 c 1.305581,-0.84373 2.188121,-0.84373 1.666666,0 -0.226612,0.36666 -0.919317,0.66207 -1.539344,0.65646 -0.971517,-0.009 -0.989114,-0.0995 -0.127322,-0.65646 z m 23.670365,-0.67076 c 1.360118,-1.50291 1.903946,-1.39961 1.274001,0.24201 -0.231194,0.60248 -0.884752,1.09541 -1.452351,1.09541 -0.872286,0 -0.844685,-0.20698 0.17835,-1.33742 z m 8.996301,0.0434 c 0,-1.60971 0.370741,-1.77211 0.899558,-0.39403 0.206548,0.53825 0.08864,1.15596 -0.262008,1.37268 -0.350653,0.21671 -0.63755,-0.22368 -0.63755,-0.97865 z m 2.962962,-1.00231 c -0.250991,-1.3379 -0.28968,-2.59921 -0.08598,-2.80291 0.203704,-0.20371 0.575727,0.72427 0.826718,2.06217 0.250991,1.33789 0.289681,2.5992 0.08598,2.80291 -0.203703,0.2037 -0.575726,-0.72427 -0.826718,-2.06217 z m -25.316987,0.92948 c -0.612306,-0.99073 -0.125334,-1.34147 0.944507,-0.68027 0.573153,0.35423 0.641339,0.6978 0.193425,0.97463 -0.380477,0.23514 -0.892546,0.10268 -1.137932,-0.29436 z m 61.506803,0.29737 C 118.21875,105.32986 118,104.65111 118,104.08889 c 0,-0.7504 0.19722,-0.825 0.74166,-0.28056 0.40792,0.40792 0.62667,1.08667 0.48612,1.50833 -0.14056,0.42167 -0.47431,0.54792 -0.74167,0.28056 z M 121.14016,104 c 0.19178,-0.73334 0.46369,-1.33334 0.60426,-1.33334 0.14057,0 0.25558,0.6 0.25558,1.33334 0,0.73333 -0.27192,1.33333 -0.60426,1.33333 -0.33234,0 -0.44735,-0.6 -0.25558,-1.33333 z m -69.273495,-0.8 c 0.622223,-0.62222 0.977778,-0.62222 1.6,0 0.622223,0.62222 0.444445,0.8 -0.8,0.8 -1.244444,0 -1.422222,-0.17778 -0.8,-0.8 z m 100.031015,0.47546 c -0.49139,-0.49139 0.89319,-3.66288 1.60232,-3.67026 0.275,-0.003 0.5,-0.605203 0.5,-1.338536 0,-0.733333 0.3,-1.333333 0.66666,-1.333333 1.1032,0 0.75146,2.324235 -0.56569,3.738029 -0.67779,0.72753 -1.35904,1.70285 -1.51389,2.16738 -0.15484,0.46452 -0.46507,0.66105 -0.6894,0.43672 z m -28.2102,-1.20421 c -0.28538,-0.65749 -0.33181,-1.38249 -0.10318,-1.61112 0.677,-0.67699 1.22273,0.27397 0.91113,1.58769 -0.27623,1.16463 -0.31217,1.16567 -0.80795,0.0234 z m -85.687481,-0.80459 c -0.679714,-0.819 -0.634157,-1 0.251704,-1 0.594896,0 1.081629,0.45 1.081629,1 0,0.55 -0.113266,1 -0.251703,1 -0.138437,0 -0.62517,-0.45 -1.08163,-1 z m 10,0 c 0.456459,-0.55 1.318193,-0.99045 1.914963,-0.97879 0.911547,0.0178 0.878121,0.1777 -0.20905,1 -1.684359,1.27398 -2.769629,1.26049 -1.705913,-0.0212 z m 19.333333,0.41203 c 0,-0.36667 0.3,-0.85208 0.666666,-1.07869 0.366667,-0.22662 0.666667,-0.11203 0.666667,0.25464 0,0.36667 -0.3,0.85208 -0.666667,1.07869 -0.366666,0.22661 -0.666666,0.11202 -0.666666,-0.25464 z m 3.695136,-0.69929 c -0.210953,-0.34133 -0.07866,-0.80904 0.293989,-1.03935 0.372648,-0.23031 0.677541,0.049 0.677541,0.6206 0,1.17102 -0.400036,1.34344 -0.97153,0.41875 z m 8.357495,-1.10162 c 0.03199,-0.776634 0.18996,-0.934604 0.402778,-0.402783 0.19258,0.481253 0.168896,1.056253 -0.05263,1.277783 -0.221527,0.22152 -0.379093,-0.17223 -0.350146,-0.875 z m 39.280697,0.59354 c 0,-1.09684 1.57447,-2.204656 3.13334,-2.204656 1.80142,0 2.05076,1.02905 0.36666,1.513276 -0.64166,0.1845 -1.69166,0.55159 -2.33333,0.81575 -0.64167,0.26416 -1.16667,0.2082 -1.16667,-0.12437 z M 42.666666,99.666664 c 0,-0.55 0.3,-1 0.666666,-1 0.366667,0 0.666667,0.45 0.666667,1 0,0.549996 -0.3,0.999996 -0.666667,0.999996 -0.366666,0 -0.666666,-0.45 -0.666666,-0.999996 z m 29.999999,-0.706011 c 0,-0.57164 0.304894,-0.85091 0.677541,-0.620601 0.372648,0.230309 0.504943,0.698014 0.293989,1.039344 -0.571493,0.924694 -0.97153,0.752274 -0.97153,-0.418743 z M 83.999998,98.666664 C 83.1454,98.11438 83.169633,98.01893 84.166665,98.010206 c 0.641666,-0.0056 1.166666,0.289791 1.166666,0.656458 0,0.813074 -0.07519,0.813074 -1.333333,0 z M 35.771943,97.632712 c 0.20389,-0.531326 0.638611,-0.966048 0.966049,-0.966048 0.958416,0 0.68378,1.156744 -0.370708,1.561389 -0.645681,0.247771 -0.843112,0.05034 -0.595341,-0.595341 z m 88.881347,0.01784 c -0.46381,-0.55886 -0.66348,-1.195922 -0.44371,-1.415692 0.6827,-0.682705 2.45708,0.33616 2.45708,1.41088 0,1.305745 -0.93184,1.307972 -2.01337,0.0048 z m -92.600659,0.258982 c -0.02895,-0.233087 0.348493,-1.196963 0.838756,-2.141946 0.67751,-1.305903 1.077405,-1.532132 1.666666,-0.942871 1.138945,1.138945 0.94716,1.841946 -0.502498,1.841946 -0.702778,0 -1.429094,0.375 -1.614035,0.833333 -0.184942,0.458334 -0.359942,0.642626 -0.388889,0.409538 z m 35.039617,-0.909538 c -0.211055,-0.55 -0.09315,-1 0.262007,-1 0.355159,0 0.645743,0.45 0.645743,1 0,0.55 -0.117903,1 -0.262007,1 -0.144104,0 -0.434689,-0.45 -0.645743,-1 z m 18.90775,0.333334 c -0.854598,-0.552284 -0.830365,-0.647734 0.166667,-0.656458 0.641666,-0.0056 1.166666,0.289791 1.166666,0.656458 0,0.813073 -0.07519,0.813073 -1.333333,0 z m 5,0 c 0.226612,-0.366667 0.694317,-0.666667 1.039345,-0.666667 0.345027,0 0.627322,0.3 0.627322,0.666667 0,0.366666 -0.467706,0.666666 -1.039345,0.666666 -0.57164,0 -0.853935,-0.3 -0.627322,-0.666666 z M 70.666665,96.827029 c 0,-0.910259 2.577035,-2.17807 3.008438,-1.480046 0.221971,0.359158 -0.06412,0.653014 -0.63576,0.653014 -0.57164,0 -1.039345,0.3 -1.039345,0.666667 0,0.366667 -0.3,0.666667 -0.666666,0.666667 -0.366667,0 -0.666667,-0.227836 -0.666667,-0.506302 z m 10,0.125349 c 0,-0.209523 0.430872,-0.811825 0.957495,-1.338447 0.993725,-0.993725 1.967591,-0.365843 1.165183,0.75123 -0.518295,0.721545 -2.122678,1.165381 -2.122678,0.587217 z M 41.333332,95.999997 c 0,-0.366666 0.432295,-0.666666 0.960656,-0.666666 0.52836,0 1.146065,0.3 1.372678,0.666666 0.226612,0.366667 -0.205683,0.666667 -0.960656,0.666667 -0.754973,0 -1.372678,-0.3 -1.372678,-0.666667 z m 22.376195,-0.195418 c 0.250354,-0.657481 0.623128,-1.027481 0.828386,-0.822222 0.205258,0.205258 4.23e-4,0.743196 -0.455189,1.195418 -0.658411,0.653512 -0.734987,0.576936 -0.373197,-0.373196 z m 53.623803,0.195418 c 0,-0.366666 0.2823,-0.666666 0.62732,-0.666666 0.34503,0 0.81273,0.3 1.03935,0.666666 0.22661,0.366667 -0.0557,0.666667 -0.62732,0.666667 -0.57164,0 -1.03935,-0.3 -1.03935,-0.666667 z m 37.5099,0.228447 c -0.63188,-0.255503 -0.58677,-0.790599 0.19391,-2.30028 0.55954,-1.082028 0.83738,-2.258513 0.61742,-2.614412 -0.21995,-0.355898 -0.0472,-0.647088 0.38385,-0.647088 0.51296,0 0.61513,0.518271 0.29569,1.5 -0.26844,0.825 -0.52843,2.175 -0.57776,3 -0.0493,0.825 -0.0897,1.476316 -0.0897,1.447369 0,-0.02895 -0.37054,-0.202463 -0.82343,-0.385589 z M 29.999999,95.293986 c 0,-0.388306 0.274377,-0.536437 0.609727,-0.329179 0.335349,0.207257 0.761665,-3.8e-5 0.947368,-0.460656 0.203694,-0.505243 0.358522,-0.374652 0.390274,0.32918 0.02895,0.641666 -0.397369,1.166666 -0.947369,1.166666 -0.55,0 -1,-0.317705 -1,-0.706011 z m 9.105278,-0.32794 c 0.203889,-0.531327 0.638611,-0.966048 0.966048,-0.966048 0.958416,0 0.68378,1.156744 -0.370708,1.561389 -0.645681,0.247771 -0.843111,0.05034 -0.59534,-0.595341 z m 30.228055,-0.0054 c 0,-0.57164 0.304893,-0.85091 0.677541,-0.620601 0.372648,0.230309 0.504943,0.698014 0.293989,1.039344 -0.571494,0.924696 -0.97153,0.752274 -0.97153,-0.418743 z m 6.315338,0.401794 c 0.216716,-0.350653 0.834421,-0.468556 1.372678,-0.262008 1.378076,0.528817 1.215682,0.899558 -0.394028,0.899558 -0.754973,0 -1.195365,-0.286897 -0.97865,-0.63755 z m 23.559661,0.182141 c 0.48125,-0.19258 1.056249,-0.168896 1.277779,0.05263 0.22153,0.221527 -0.17222,0.379093 -0.875001,0.350146 -0.776629,-0.03199 -0.9346,-0.18996 -0.402778,-0.402778 z m 48.124999,-0.250602 c 0,-0.388306 0.3,-0.520601 0.66667,-0.293989 0.36666,0.226613 0.66666,0.544318 0.66666,0.706012 0,0.161694 -0.3,0.293988 -0.66666,0.293988 -0.36667,0 -0.66667,-0.317705 -0.66667,-0.706011 z M 152,95.333331 c 0,-0.366667 0.3,-0.666667 0.66666,-0.666667 0.36667,0 0.66667,0.3 0.66667,0.666667 0,0.366666 -0.3,0.666666 -0.66667,0.666666 -0.36666,0 -0.66666,-0.3 -0.66666,-0.666666 z m -67.228072,-2 c 0,-0.916667 0.151316,-1.291667 0.336257,-0.833333 0.184942,0.458333 0.184942,1.208333 0,1.666666 -0.184941,0.458333 -0.336257,0.08333 -0.336257,-0.833333 z m 30.394732,0.891813 c 0.45834,-0.184942 1.20834,-0.184942 1.66667,0 0.45833,0.184941 0.0833,0.336257 -0.83333,0.336257 -0.91667,0 -1.29167,-0.151316 -0.83334,-0.336257 z m 13.66636,-0.391813 c 0.15261,-0.458333 0.84306,-0.942935 1.53433,-1.076893 1.0874,-0.21072 1.13636,-0.09836 0.36313,0.833333 -1.05747,1.27417 -2.29344,1.43282 -1.89746,0.24356 z M 36.333333,91.917453 c -2.436911,-2.334508 -2.01999,-2.478866 0.91194,-0.315757 1.194039,0.880934 1.927323,1.743452 1.62952,1.916706 -0.297804,0.173254 -1.441461,-0.547173 -2.54146,-1.600949 z m 34.385964,1.026989 c 0.03199,-0.776629 0.18996,-0.9346 0.402777,-0.402778 0.192581,0.48125 0.168897,1.05625 -0.05263,1.277778 -0.221528,0.221528 -0.379094,-0.172222 -0.350146,-0.875 z m 30.742313,0.07625 c -1.10149,-0.607591 -1.27914,-0.948058 -0.62554,-1.198868 0.50206,-0.192659 1.64433,0.211946 2.53838,0.899121 1.86827,1.435967 0.52781,1.64602 -1.91284,0.299747 z M 124,93.333331 c -1.41585,-0.453435 -1.24028,-0.543761 1.16666,-0.600213 C 126.725,92.696568 128,92.966664 128,93.333331 c 0,0.768344 -1.60085,0.768344 -4,0 z M 82.402002,92.111109 c -0.188844,-0.305556 0.08025,-0.555556 0.597996,-0.555556 0.517742,0 0.78684,0.25 0.597996,0.555556 -0.188843,0.305555 -0.457942,0.555555 -0.597996,0.555555 -0.140054,0 -0.409152,-0.25 -0.597996,-0.555555 z m 23.264658,-0.111111 c -0.25394,-0.410888 0.88197,-0.666667 2.96066,-0.666667 1.85497,0 3.37268,0.3 3.37268,0.666667 0,0.366666 -1.3323,0.666666 -2.96066,0.666666 -1.62836,0 -3.14606,-0.3 -3.37268,-0.666666 z m 12.16667,0.225146 c 0.45833,-0.184942 1.20833,-0.184942 1.66667,0 0.45833,0.184941 0.0833,0.336257 -0.83334,0.336257 -0.91666,0 -1.29166,-0.151316 -0.83333,-0.336257 z M 25.758915,90.999998 c -0.211055,-0.55 -0.125248,-1 0.190682,-1 0.315929,0 0.747099,0.45 0.958153,1 0.211055,0.55 0.125248,1 -0.190681,1 -0.31593,0 -0.747099,-0.45 -0.958154,-1 z M 63.333332,89.62732 c 0,-0.938307 0.271836,-1.538008 0.60408,-1.33267 0.332244,0.205338 0.447254,0.973043 0.255579,1.706012 -0.479698,1.834366 -0.859659,1.669352 -0.859659,-0.373342 z m 96.105258,0.372678 c 0,-0.916667 0.15132,-1.291667 0.33626,-0.833334 0.18494,0.458334 0.18494,1.208334 0,1.666667 -0.18494,0.458333 -0.33626,0.08333 -0.33626,-0.833333 z M 32.052631,90.206009 c -0.07605,-1.147254 1.103737,-1.698357 1.670975,-0.780547 0.287528,0.46523 0.194483,0.602602 -0.230328,0.340054 -0.392002,-0.242271 -0.864671,-0.06362 -1.050374,0.396995 -0.241665,0.599427 -0.352602,0.611792 -0.390273,0.0435 z m 28.82365,-0.706011 c -0.228363,-0.641667 -0.523841,-1.370938 -0.656618,-1.620601 -0.132778,-0.249664 0.02988,-0.621603 0.36146,-0.826531 0.33158,-0.204928 0.734516,0.524342 0.895413,1.620601 0.325271,2.216216 0.03605,2.614462 -0.600255,0.826531 z m 90.687099,0.137914 c -0.21712,-0.565813 -0.24581,-1.177712 -0.0637,-1.359775 0.18206,-0.182063 0.49103,0.280875 0.68661,1.028752 0.41543,1.588619 -0.0462,1.833927 -0.62287,0.331023 z M 68.935464,87.833331 c 0.231073,-1.191667 0.465123,-2.557071 0.520111,-3.034231 0.111317,-0.965951 3.632682,-4.132435 4.595574,-4.132435 0.338534,0 0.615516,0.45 0.615516,0.999999 0,0.55 -0.565818,1 -1.257372,1 -1.366579,0 -3.409295,3.555472 -3.409295,5.934086 0,0.769586 -0.334049,1.399248 -0.742332,1.399248 -0.479241,0 -0.593433,-0.767896 -0.322202,-2.166667 z M 21.513156,86.620479 c -0.05333,-0.707931 0.184397,-1.287148 0.528276,-1.287148 0.758917,0 0.836169,1.790946 0.09696,2.247803 -0.290552,0.179571 -0.571907,-0.252724 -0.625234,-0.960655 z m 60.889338,0.319357 c -0.223752,-0.583088 -0.230021,-1.34623 -0.01393,-1.69587 0.216089,-0.349639 0.142062,-1.011706 -0.164504,-1.471258 -0.306566,-0.459553 -0.03239,-0.263176 0.609273,0.436392 1.222738,1.333074 1.593157,3.790898 0.571326,3.790898 -0.327437,0 -0.77841,-0.477073 -1.002163,-1.060162 z M 154,87.187856 c 0,-1.601016 0.72157,-3.187858 1.44958,-3.187858 0.35381,0 0.43751,0.671095 0.18708,1.5 C 155.02915,87.510781 154,88.572127 154,87.187856 Z M 62.129964,84.999998 c 0.01359,-1.1 0.162999,-1.469291 0.332028,-0.820646 0.169029,0.648645 0.157913,1.548645 -0.0247,2 -0.182616,0.451355 -0.320912,-0.07935 -0.307326,-1.179354 z m -2.691369,-0.333334 c 0,-0.916666 0.151316,-1.291666 0.336257,-0.833333 0.184942,0.458333 0.184942,1.208333 0,1.666667 -0.184941,0.458333 -0.336257,0.08333 -0.336257,-0.833334 z M 19.00672,84.65579 c 0.230309,-0.372648 0.698014,-0.504943 1.039345,-0.293989 0.924696,0.571493 0.752274,0.97153 -0.418743,0.97153 -0.57164,0 -0.85091,-0.304893 -0.620602,-0.677541 z m 4.058986,-0.391628 c -0.23425,-0.610444 -0.836916,-0.905454 -1.404659,-0.68759 -1.063839,0.408233 -1.283361,-0.155447 -0.484172,-1.243241 0.294316,-0.400601 1.204504,0.06501 2.280608,1.166667 1.046387,1.071229 1.422447,1.833333 0.904659,1.833333 -0.487386,0 -1.070783,-0.481126 -1.296436,-1.069169 z m 4.585087,-0.0102 c 0.593651,-0.593651 1.24512,-0.91361 1.447709,-0.711021 0.59347,0.59347 -0.421885,1.790386 -1.5188,1.790386 -0.870648,0 -0.860945,-0.147329 0.07109,-1.079365 z m 57.73517,0.02381 c 0.03199,-0.776629 0.18996,-0.9346 0.402778,-0.402778 0.19258,0.48125 0.168896,1.05625 -0.05263,1.277778 -0.221528,0.221527 -0.379093,-0.172223 -0.350146,-0.875 z m 5.280702,0.349544 c 0,-0.388306 0.3,-0.520601 0.666666,-0.293989 0.366667,0.226613 0.666667,0.544318 0.666667,0.706011 0,0.161694 -0.3,0.293989 -0.666667,0.293989 -0.366666,0 -0.666666,-0.317705 -0.666666,-0.706011 z m 67.666665,0.03934 c 0.22661,-0.366666 0.54432,-0.666666 0.70601,-0.666666 0.16169,0 0.29399,0.3 0.29399,0.666666 0,0.366667 -0.31771,0.666667 -0.70601,0.666667 -0.38831,0 -0.5206,-0.3 -0.29399,-0.666667 z M 92.666665,82.333331 c 0,-0.55 0.117903,-1 0.262007,-1 0.144104,0 0.434689,0.45 0.645743,1 0.211055,0.55 0.09315,1 -0.262007,1 -0.355159,0 -0.645743,-0.45 -0.645743,-1 z m 62.666665,0 c 0,-0.55 0.29058,-1 0.64574,-1 0.35516,0 0.47307,0.45 0.26201,1 -0.21105,0.55 -0.50164,1 -0.64574,1 -0.14411,0 -0.26201,-0.45 -0.26201,-1 z m 6.18158,-1.666666 c 0,-1.65 0.13001,-2.325 0.28891,-1.5 0.1589,0.825 0.1589,2.175 0,2.999999 -0.1589,0.825 -0.28891,0.15 -0.28891,-1.499999 z M 66.262006,81.61214 c 0.222563,-0.579989 0.404659,-1.179989 0.404659,-1.333334 0,-0.153344 0.45,-0.278808 1,-0.278808 1.205461,0 1.288804,0.777863 0.2,1.866666 -1.139223,1.139223 -2.0821,0.989667 -1.604659,-0.254524 z m 22.91743,-0.249695 c -0.460785,-1.64075 -0.185141,-2.590372 0.541097,-1.864134 0.212961,0.212961 0.281809,1.087961 0.152996,1.944444 l -0.234207,1.557243 z M 60.675768,79.611109 c 0.01162,-2.481447 0.66712,-4.944444 1.315915,-4.944444 0.513047,0 -0.387887,5.951758 -0.992449,6.55632 -0.182913,0.182913 -0.328472,-0.542432 -0.323466,-1.611876 z m 16.157564,-0.04496 c -1.549889,-0.639663 -0.845834,-1.656154 1,-1.443767 1.008333,0.116022 1.774179,0.510948 1.70188,0.877615 -0.153109,0.776499 -1.505561,1.059892 -2.70188,0.566152 z M 139.71611,78.46895 c -0.2986,-1.025409 -0.35688,-2.050409 -0.12951,-2.277778 0.74623,-0.746226 1.18508,0.318626 0.92641,2.247877 l -0.25399,1.894281 z M 13.70984,78.73652 c -0.202867,-0.328245 0.06415,-0.762967 0.59337,-0.966048 0.641849,-0.246301 0.838793,-0.04759 0.591512,0.59681 -0.429737,1.119877 -0.673931,1.195974 -1.184882,0.369238 z m 5.446365,-0.236523 c -0.521719,-1.359576 -0.519015,-1.833333 0.01046,-1.833333 0.275,0 0.504594,0.225 0.510209,0.5 0.0056,0.275 0.24832,0.875 0.539344,1.333333 0.291025,0.458333 0.243528,0.833333 -0.105549,0.833333 -0.349077,0 -0.778586,-0.375 -0.954465,-0.833333 z m 2.177128,0.359407 c 0,-0.382881 0.525,-1.107881 1.166666,-1.611111 1.079171,-0.846343 1.093319,-0.814967 0.188646,0.418371 -0.537912,0.733333 -1.062912,1.458333 -1.166667,1.611111 -0.103755,0.152777 -0.188645,-0.03549 -0.188645,-0.418371 z m 36.805864,-7.127238 c -0.0059,-4.872911 0.218696,-7.573915 0.582059,-7 0.724407,1.144168 0.707748,7.859603 -0.02961,11.934498 -0.418497,2.312769 -0.545051,1.182389 -0.552452,-4.934498 z m 5.860802,5.934498 c 0,-0.993808 0.287065,-1.56794 0.666666,-1.333334 0.366667,0.226613 0.666667,0.826613 0.666667,1.333334 0,0.50672 -0.3,1.10672 -0.666667,1.333333 -0.379601,0.234606 -0.666666,-0.339525 -0.666666,-1.333333 z M 154,74.999998 c 0,-2.383333 0.28125,-4.333333 0.625,-4.333333 0.34375,0 0.625,1.95 0.625,4.333333 0,2.383333 -0.28125,4.333333 -0.625,4.333333 -0.34375,0 -0.625,-1.95 -0.625,-4.333333 z m 5.43859,1 c 0,-0.916667 0.15132,-1.291667 0.33626,-0.833333 0.18494,0.458333 0.18494,1.208333 0,1.666666 -0.18494,0.458334 -0.33626,0.08333 -0.33626,-0.833333 z M 67.999998,75.333331 c 0,-0.366666 0.467706,-0.666666 1.039345,-0.666666 0.57164,0 0.853935,0.3 0.627322,0.666666 -0.226612,0.366667 -0.694317,0.666667 -1.039345,0.666667 -0.345027,0 -0.627322,-0.3 -0.627322,-0.666667 z m 68.695942,-0.298058 c -0.5979,-0.720422 -0.6031,-1.296409 -0.0215,-2.383091 0.42182,-0.788175 0.94764,-1.252352 1.16849,-1.031504 0.22085,0.220848 0.0465,0.756542 -0.38735,1.190431 -1.10165,1.101653 -0.98439,1.71905 0.37778,1.98898 0.76396,0.151388 0.90509,0.395848 0.40887,0.708209 -0.41679,0.262361 -1.1126,0.0495 -1.54626,-0.473025 z M 17.090779,74.33716 c 0.210247,-0.547894 0.655725,-0.827164 0.989952,-0.620601 0.699057,0.432041 0.137883,1.616772 -0.76582,1.616772 -0.333519,0 -0.434378,-0.448277 -0.224132,-0.996171 z m 65.249273,-0.348037 c 0.230309,-0.372647 0.698014,-0.504942 1.039345,-0.293988 0.924695,0.571493 0.752274,0.97153 -0.418744,0.97153 -0.571639,0 -0.85091,-0.304894 -0.620601,-0.677542 z m 2.993279,-0.02847 c 0,-0.388306 0.3,-0.520601 0.666667,-0.293988 0.366667,0.226612 0.666667,0.544317 0.666667,0.706011 0,0.161694 -0.3,0.293989 -0.666667,0.293989 -0.366667,0 -0.666667,-0.317705 -0.666667,-0.706012 z M 63.999999,72.293987 c 0,-0.57164 0.304893,-0.85091 0.677541,-0.620601 0.372647,0.230309 0.504942,0.698014 0.293988,1.039344 -0.571493,0.924696 -0.971529,0.752274 -0.971529,-0.418743 z M 88.410005,71.69012 c -1.205773,-1.840241 -1.386771,-3.419782 -0.45767,-3.993998 0.340452,-0.210411 0.715452,0.266246 0.833333,1.059237 0.117882,0.792991 0.81433,1.772441 1.547663,2.176554 0.733334,0.404114 1.474645,0.826064 1.64736,0.937667 0.34344,0.221922 -1.387635,1.437071 -2.070686,1.453543 -0.23283,0.0056 -0.90783,-0.729237 -1.5,-1.633003 z m 5.962573,0.622009 c -1.26467,-0.956548 -1.260881,-0.978798 0.166667,-0.978798 0.854002,0 1.460753,0.415369 1.460753,1 0,1.206366 -0.0045,1.206307 -1.62742,-0.0212 z M 12.666666,71.999998 c 0,-0.366667 0.467705,-0.666667 1.039345,-0.666667 0.57164,0 0.853934,0.3 0.627322,0.666667 -0.226612,0.366667 -0.694318,0.666667 -1.039345,0.666667 -0.345027,0 -0.627322,-0.3 -0.627322,-0.666667 z m 4.666667,0.06952 c -1.357011,-0.377987 -1.458963,-0.544071 -0.548742,-0.893919 0.632476,-0.243095 1.464031,-0.01265 1.914963,0.530693 0.438371,0.528205 0.685305,0.930469 0.548742,0.893919 C 19.111733,72.563662 18.25,72.32485 17.333333,72.069518 Z M 101.49048,71.86188 C 101.79755,70.35971 104,69.290158 104,70.643209 c 0,0.353766 -0.60428,0.966613 -1.34285,1.361882 -1.03203,0.552327 -1.30207,0.519179 -1.16667,-0.143211 z m 36.89232,-0.306694 c -0.23458,-0.611313 -0.11668,-1.421313 0.26201,-1.799999 0.47358,-0.473585 0.68852,-0.126613 0.68852,1.111478 0,2.056567 -0.333,2.297777 -0.95053,0.688521 z M 9.2499998,71.666665 C 9.2041665,71.483331 9.1291665,71.022389 9.0833331,70.642348 9.0374998,70.262308 8.5499998,69.666902 7.9999998,69.319224 c -0.8035962,-0.507987 -0.7053944,-0.634147 0.5,-0.642351 0.825,-0.0056 1.5,0.265256 1.5,0.601934 0,0.336677 0.1820962,1.086677 0.4046592,1.666666 0.222563,0.579989 0.07256,1.054525 -0.333333,1.054525 -0.4058962,0 -0.7754929,-0.15 -0.8213262,-0.333333 z M 80.133332,71.199998 c -0.44,-0.44 -0.8,-1.465 -0.8,-2.277778 0,-0.812777 -0.375,-1.629093 -0.833334,-1.814035 -0.523615,-0.211283 -0.553954,-0.355818 -0.08163,-0.388889 1.021574,-0.07153 1.975829,1.243076 2.502407,3.447369 0.488366,2.044342 0.373846,2.194623 -0.787443,1.033333 z m 125.416218,-0.7 c -0.74224,-0.825 -2.3469,-3 -3.56592,-4.833333 C 189.11721,46.316272 167.16911,30.703237 142.93563,23.662184 121.71729,17.49718 95.910118,17.797368 74.999998,24.452407 65.875961,27.356304 53.643422,33.243831 45.333332,38.730987 37.883368,43.650202 22.960093,58.232637 19.333333,64.137161 L 17,67.935928 l -5.166667,0.03203 c -4.0581308,0.02516 -5.1666665,-0.173146 -5.1666665,-0.924276 0,-2.022407 8.5363005,-13.582084 14.9522295,-20.247992 C 35.762115,32.101424 51.06056,22.480382 70.633998,15.970578 105.48776,4.3787889 143.85762,8.69539 175.22108,27.736604 c 13.93699,8.461353 26.37372,20.257092 35.02602,33.220801 3.38151,5.066499 3.94381,8.059846 1.86707,9.939268 -1.75654,1.589649 -4.95123,1.396606 -6.56462,-0.396675 z M 134.7193,70.277776 c 0.032,-0.776629 0.18996,-0.9346 0.40277,-0.402778 0.19258,0.48125 0.1689,1.05625 -0.0526,1.277778 -0.22153,0.221528 -0.37909,-0.172222 -0.35014,-0.875 z M 81.999998,70.039343 c 0,-0.345027 0.3,-0.812732 0.666667,-1.039345 0.366666,-0.226612 0.666666,0.05568 0.666666,0.627322 0,0.57164 -0.3,1.039345 -0.666666,1.039345 -0.366667,0 -0.666667,-0.282295 -0.666667,-0.627322 z m 58.702692,0.293988 c 0.008,-0.882039 1.86782,-3.318373 2.24482,-2.941372 0.16205,0.162045 -0.27818,1.040144 -0.97828,1.951333 -0.70011,0.911188 -1.27005,1.356706 -1.26654,0.990039 z m -129.369357,-1 c -0.804514,-0.519917 -0.69908,-0.648245 0.539345,-0.656458 0.858378,-0.0057 1.357076,0.284708 1.127322,0.656458 -0.495457,0.801667 -0.426177,0.801667 -1.666667,0 z m 141.333327,-0.59534 c 0,-0.327438 0.47454,-0.777438 1.05453,-1 1.63124,-0.625966 1.79275,-0.490033 0.70738,0.595341 -1.13336,1.13336 -1.76191,1.277719 -1.76191,0.404659 z M 92.166665,67.833332 c 0.152777,-0.458334 0.677777,-0.833334 1.166666,-0.833334 0.488889,0 1.013889,0.375 1.166667,0.833334 0.165242,0.495726 -0.307408,0.833333 -1.166667,0.833333 -0.859259,0 -1.331909,-0.337607 -1.166666,-0.833333 z m 40.654715,-0.5 c -0.46126,-0.738586 -0.54325,-1.333334 -0.18382,-1.333334 0.35687,0 0.96997,0.6 1.36244,1.333334 0.39247,0.733333 0.47518,1.333333 0.18382,1.333333 -0.29137,0 -0.90447,-0.6 -1.36244,-1.333333 z m 26.26195,0.801502 c -0.18078,-0.292506 -0.0531,-0.967506 0.28378,-1.5 0.47819,-0.755905 0.61471,-0.639306 0.62268,0.531831 0.0105,1.542022 -0.32822,1.903789 -0.90646,0.968169 z m 2.37997,-1.134836 c 0.0136,-1.1 0.16299,-1.46929 0.33202,-0.820645 0.16903,0.648645 0.15792,1.548645 -0.0247,2 -0.18261,0.451355 -0.32091,-0.07936 -0.30732,-1.179355 z m -97.15738,0.288979 c -0.24169,-0.391061 -0.296456,-0.853999 -0.121704,-1.028752 0.174752,-0.174752 0.495377,0.145208 0.7125,0.711021 0.45079,1.174738 0.06657,1.381372 -0.590796,0.317731 z m 31.746709,-1.011201 c 0.03199,-0.776629 0.189961,-0.9346 0.402778,-0.402778 0.192581,0.48125 0.168896,1.05625 -0.05263,1.277778 -0.221528,0.221528 -0.379094,-0.172222 -0.350148,-0.875 z m 4.614031,0.05556 c 0,-1.075283 0.61065,-1.235477 2.27498,-0.596811 1.35686,0.520676 0.69574,1.596811 -0.98099,1.596811 -0.71169,0 -1.29399,-0.45 -1.29399,-1 z m 39.63926,0.288979 c -0.24169,-0.391062 -0.29646,-0.854 -0.12171,-1.028752 0.17476,-0.174752 0.49538,0.145207 0.7125,0.711021 0.45079,1.174738 0.0666,1.381372 -0.59079,0.317731 z m 16.36074,-0.622313 c 0,-0.366666 0.3,-0.666666 0.66667,-0.666666 0.36667,0 0.66667,0.3 0.66667,0.666666 0,0.366667 -0.3,0.666667 -0.66667,0.666667 -0.36667,0 -0.66667,-0.3 -0.66667,-0.666667 z M 81.783925,64.398509 c -0.376413,-0.980916 0.05452,-1.731844 0.993851,-1.731844 0.305555,0 0.555555,0.6 0.555555,1.333333 0,1.528614 -1.015516,1.789806 -1.549406,0.398511 z m 71.549405,0.247233 c 0,-0.355159 0.45,-0.645744 1,-0.645744 0.55,0 1,0.117904 1,0.262008 0,0.144104 -0.45,0.434688 -1,0.645743 -0.55,0.211055 -1,0.09315 -1,-0.262007 z M 67.874998,64.211256 c 0.48125,-0.192581 1.05625,-0.168897 1.277778,0.05263 0.221528,0.221528 -0.172222,0.379094 -0.875,0.350146 -0.776628,-0.03199 -0.934599,-0.18996 -0.402778,-0.402777 z m 8.791667,-0.211258 c 0.55,-0.355437 1.3,-0.646249 1.666667,-0.646249 0.366666,0 0.216666,0.290812 -0.333334,0.646249 -0.55,0.355438 -1.3,0.64625 -1.666666,0.64625 -0.366667,0 -0.216667,-0.290812 0.333333,-0.64625 z m 64.541665,0.211258 c 0.48125,-0.192581 1.05625,-0.168897 1.27778,0.05263 0.22153,0.221528 -0.17222,0.379094 -0.875,0.350146 -0.77663,-0.03199 -0.9346,-0.18996 -0.40278,-0.402777 z M 72.179353,63.538004 c 0.648645,-0.169028 1.548645,-0.157912 2,0.0247 0.451355,0.182616 -0.07936,0.320912 -1.179355,0.307325 -1.1,-0.01359 -1.46929,-0.162999 -0.820645,-0.332028 z m 26.653978,0.0024 c 1.603049,-0.418922 1.463199,-1.923813 -0.293112,-3.15398 -0.802878,-0.562357 -1.236566,-1.24568 -0.963751,-1.518495 0.272815,-0.272815 0.767223,-0.05722 1.098685,0.479093 0.479962,0.776595 0.771181,0.806596 1.430417,0.14736 0.45527,-0.455269 1.14276,-0.81822 1.52776,-0.806559 0.385,0.01166 0.13049,0.452285 -0.56559,0.979163 -0.96914,0.733573 -1.089976,1.169561 -0.51586,1.861327 0.89667,1.080417 -0.21435,2.516859 -1.851882,2.394307 -0.793545,-0.05939 -0.762605,-0.148083 0.133333,-0.382216 z m 62.552629,-0.596005 c 0.032,-0.776629 0.18996,-0.9346 0.40278,-0.402778 0.19258,0.48125 0.1689,1.05625 -0.0526,1.277778 -0.22153,0.221528 -0.3791,-0.172222 -0.35015,-0.875 z M 142,62.737991 c 0,-0.675792 2.03052,-1.596357 2.49551,-1.131372 0.16757,0.167569 0.10692,0.62463 -0.13477,1.015692 C 143.82887,63.482899 142,63.572516 142,62.737991 Z M 59.333332,60.039343 c 0,-1.121639 0.3,-2.039345 0.666667,-2.039345 0.366666,0 0.666666,0.732295 0.666666,1.627322 0,0.895027 -0.3,1.812733 -0.666666,2.039345 -0.388949,0.240383 -0.666667,-0.437522 -0.666667,-1.627322 z m 16,1.372678 c 0,-0.366667 0.3,-0.852077 0.666666,-1.078689 0.366667,-0.226613 0.666667,-0.112023 0.666667,0.254644 0,0.366666 -0.3,0.852077 -0.666667,1.078689 -0.366666,0.226612 -0.666666,0.112023 -0.666666,-0.254644 z m 5,-0.07869 c -0.226613,-0.366667 0.05568,-0.666667 0.627321,-0.666667 0.57164,0 1.039345,0.3 1.039345,0.666667 0,0.366666 -0.282295,0.666666 -0.627322,0.666666 -0.345027,0 -0.812732,-0.3 -1.039344,-0.666666 z m 15.719297,-0.388889 c 0.03199,-0.776629 0.189961,-0.9346 0.402778,-0.402778 0.192581,0.48125 0.168896,1.05625 -0.05263,1.277778 -0.221528,0.221528 -0.379094,-0.172222 -0.350148,-0.875 z m 7.614031,0.388889 c 0.22662,-0.366667 0.54432,-0.666667 0.70602,-0.666667 0.16169,0 0.29398,0.3 0.29398,0.666667 0,0.366666 -0.3177,0.666666 -0.70601,0.666666 -0.3883,0 -0.5206,-0.3 -0.29399,-0.666666 z m 30.66667,0 c -0.22661,-0.366667 0.0557,-0.666667 0.62732,-0.666667 0.57164,0 1.03935,0.3 1.03935,0.666667 0,0.366666 -0.2823,0.666666 -0.62733,0.666666 -0.34502,0 -0.81273,-0.3 -1.03934,-0.666666 z m -7.29047,-1.804582 c -0.36179,-0.950132 -0.28521,-1.026708 0.3732,-0.373196 0.45561,0.452222 0.66044,0.990161 0.45519,1.195419 -0.20526,0.205258 -0.57804,-0.164742 -0.82839,-0.822223 z m 33.0871,-0.528752 c 0.0136,-1.1 0.163,-1.46929 0.33203,-0.820645 0.16903,0.648645 0.15791,1.548645 -0.0247,2 -0.18262,0.451355 -0.32091,-0.07935 -0.30733,-1.179355 z m -19.78991,0.322459 c 0.23031,-0.372648 0.69802,-0.504942 1.03935,-0.293989 0.92469,0.571494 0.75227,0.97153 -0.41875,0.97153 -0.57164,0 -0.85091,-0.304893 -0.6206,-0.677541 z M 146,58.944443 c 0,-1.177285 1.43517,-0.97226 1.84722,0.263889 0.14514,0.435416 -0.21111,0.791666 -0.79167,0.791666 -0.58055,0 -1.05555,-0.475 -1.05555,-1.055555 z M 81.833331,58.405301 c -1.422775,-1.08004 -1.494793,-1.738636 -0.190122,-1.738636 0.537099,0 1.297654,0.6 1.690122,1.333333 0.817059,1.526688 0.197699,1.69404 -1.5,0.405303 z m -5.166666,-0.405303 c -0.600861,-0.388306 -0.683088,-0.650324 -0.206011,-0.656458 0.436693,-0.0056 0.979398,0.289792 1.206011,0.656458 0.511536,0.827684 0.280749,0.827684 -1,0 z m 52.999995,0 c 0.22662,-0.366666 0.84432,-0.666666 1.37268,-0.666666 0.52836,0 0.96066,0.3 0.96066,0.666666 0,0.366667 -0.61771,0.666667 -1.37268,0.666667 -0.75497,0 -1.18727,-0.3 -0.96066,-0.666667 z m 7.64943,-0.01065 c -0.79108,-0.488913 -0.76436,-0.653754 0.16365,-1.009866 0.60997,-0.234068 1.65156,-0.312083 2.31465,-0.173366 1.10795,0.231782 1.09469,0.313587 -0.16365,1.009865 -0.82713,0.457681 -1.74356,0.526321 -2.31465,0.173367 z m -41.419042,-2.53742 c -0.160061,-1.678396 0.0067,-2.524516 0.463119,-2.349382 0.392299,0.150539 0.650135,1.185662 0.572969,2.300273 -0.208379,3.009876 -0.75128,3.035609 -1.036088,0.04911 z m 47.100042,1.876695 c -0.50619,-0.819027 1.32855,-1.618081 2.31519,-1.008301 0.39021,0.241161 0.53687,0.717745 0.32591,1.059075 -0.50882,0.823299 -2.12004,0.792324 -2.6411,-0.05077 z M 99.999998,56.129247 c 0,-0.34796 0.450002,-1.006122 1.000002,-1.462582 0.55,-0.456459 1,-0.621764 1,-0.367344 0,0.25442 -0.45,0.912582 -1,1.462582 -0.55,0.55 -1.000002,0.715305 -1.000002,0.367344 z m 20.666662,-0.05056 c 0,-0.366667 0.3,-0.852077 0.66667,-1.078689 C 121.7,54.773386 122,54.887976 122,55.254643 c 0,0.366666 -0.3,0.852076 -0.66667,1.078689 -0.36667,0.226612 -0.66667,0.112022 -0.66667,-0.254645 z M 63.463298,53.666665 c 0.01359,-1.1 0.162999,-1.46929 0.332028,-0.820645 0.169029,0.648645 0.157912,1.548645 -0.0247,2 -0.182615,0.451355 -0.320912,-0.07935 -0.307325,-1.179355 z M 117.33333,54.29142 115,53.408588 l 2.81241,-0.03763 c 2.23497,-0.0299 2.73362,0.16769 2.42867,0.962372 -0.21105,0.55 -0.42664,0.964207 -0.47908,0.92046 -0.0524,-0.04375 -1.14534,-0.476814 -2.42867,-0.962372 z m 10,0.825885 c 0,-0.415098 3.2361,-3.783973 3.63483,-3.783973 0.95362,0 0.17096,1.226178 -1.63483,2.561253 -1.1,0.813265 -2,1.363489 -2,1.22272 z m 6,-0.712647 c 0,-0.510771 0.41604,-1.088326 0.92454,-1.283455 0.64859,-0.248885 0.82437,0.02831 0.58892,0.928674 -0.38602,1.476109 -1.51346,1.740402 -1.51346,0.354781 z m 14.30592,0.217653 c -0.24169,-0.391061 -0.27935,-0.871102 -0.0837,-1.066757 0.47754,-0.477541 1.77778,0.363882 1.77778,1.150456 0,0.851981 -1.15094,0.795117 -1.69408,-0.0837 z M 84.666665,53.732294 c 0,-1.132424 1.088934,-2.005446 1.550627,-1.24317 0.170184,0.280981 -0.109086,0.897703 -0.620601,1.370492 -0.763884,0.706053 -0.930026,0.683308 -0.930026,-0.127322 z m 18.541665,-0.187705 c 0.48125,-0.19258 1.05625,-0.168896 1.27778,0.05263 0.22153,0.221528 -0.17222,0.379093 -0.875,0.350146 -0.77663,-0.03199 -0.9346,-0.18996 -0.40278,-0.402778 z m 50.13521,-0.5684 c 0.0182,-1.147692 1.23697,-2.617896 1.74719,-2.107677 0.27311,0.273111 -0.0106,1.003709 -0.63042,1.62355 -0.61984,0.619841 -1.12239,0.837698 -1.11677,0.484127 z M 70.179821,51.379517 c 0.05333,-0.707931 0.32158,-1.148324 0.596119,-0.97865 0.274538,0.169674 0.330165,0.748891 0.123617,1.287148 -0.520822,1.357239 -0.835065,1.222546 -0.719736,-0.308498 z m 76.762999,-1.200189 c -0.63569,-2.527956 0.20894,-5.576402 1.82112,-6.572785 0.37374,-0.23098 0.1811,0.543863 -0.42807,1.721874 -0.92489,1.788549 -0.97308,2.466555 -0.29215,4.110466 0.52294,1.262503 0.58507,2.198993 0.17319,2.610869 -0.41187,0.411875 -0.86888,-0.259026 -1.27409,-1.870424 z M 66.010062,49.999999 c -0.01676,-0.916667 -0.299759,-2.092097 -0.628878,-2.612068 -0.383812,-0.606379 -0.259779,-1.462197 0.34588,-2.38655 0.519353,-0.792632 0.718226,-1.6903 0.44194,-1.994816 -0.276287,-0.304517 -0.149441,-0.351524 0.281879,-0.10446 0.549777,0.314917 0.603674,1.078729 0.180288,2.554987 -0.394769,1.376482 -0.359521,2.400276 0.101776,2.956105 0.493308,0.5944 0.49531,1.211964 0.0067,2.051896 -0.623214,1.071213 -0.702361,1.020755 -0.729536,-0.465094 z m 65.331298,0.015 c -0.57562,-1.075563 -0.51856,-1.246575 0.30988,-0.928674 0.55848,0.214311 1.01542,0.807559 1.01542,1.31833 0,1.30221 -0.49824,1.155721 -1.3253,-0.389656 z m 25.93075,0.122144 c -1.2852,-1.501006 -2.06531,-3.470481 -1.37467,-3.470481 0.28725,0 1.02298,1.05 1.63496,2.333334 1.25734,2.636674 1.20805,2.85204 -0.26029,1.137147 z m -5.51186,-4.192381 c -1.67811,-3.637792 -0.87908,-4.149555 0.85973,-0.550638 1.55407,3.216555 1.57098,3.279107 0.88002,3.255339 -0.275,-0.0095 -1.05789,-1.226574 -1.73975,-2.704701 z m -83.760252,1.427912 c 0,-0.345027 0.3,-0.812732 0.666667,-1.039345 0.366667,-0.226612 0.666667,0.05568 0.666667,0.627322 0,0.57164 -0.3,1.039345 -0.666667,1.039345 -0.366667,0 -0.666667,-0.282295 -0.666667,-0.627322 z m 4.819445,-0.164345 c 0.412049,-1.236149 1.847222,-1.441173 1.847222,-0.263889 0,0.580556 -0.475,1.055556 -1.055556,1.055556 -0.580555,0 -0.936805,-0.35625 -0.791666,-0.791667 z m 21.569188,0.214477 c -0.287181,-0.464669 -0.342107,-1.024892 -0.122057,-1.244942 0.596641,-0.596641 1.247178,0.280868 0.924925,1.247629 -0.225817,0.67745 -0.382845,0.676924 -0.802868,-0.0027 z M 149.38596,46.94444 c 0.032,-0.776628 0.18996,-0.934599 0.40278,-0.402778 0.19258,0.48125 0.1689,1.05625 -0.0526,1.277778 -0.22153,0.221528 -0.3791,-0.172222 -0.35015,-0.875 z M 91.333331,44.666665 c 0,-1.21603 0.276668,-1.907699 0.666667,-1.666666 0.366667,0.226612 0.666667,0.976612 0.666667,1.666666 0,0.690055 -0.3,1.440055 -0.666667,1.666667 -0.389999,0.241033 -0.666667,-0.450636 -0.666667,-1.666667 z M 71.333332,44.039343 c 0,-0.754972 0.3,-1.372677 0.666666,-1.372677 0.366667,0 0.666667,0.432294 0.666667,0.960655 0,0.52836 -0.3,1.146065 -0.666667,1.372678 -0.366666,0.226612 -0.666666,-0.205683 -0.666666,-0.960656 z m 73.999998,-0.706011 c 0,-0.366666 0.31771,-0.666666 0.70601,-0.666666 0.38831,0 0.5206,0.3 0.29399,0.666666 -0.22661,0.366667 -0.54432,0.666667 -0.70601,0.666667 -0.1617,0 -0.29399,-0.3 -0.29399,-0.666667 z M 68.541665,42.211256 c 0.48125,-0.19258 1.05625,-0.168896 1.277778,0.05263 0.221528,0.221528 -0.172222,0.379093 -0.875,0.350146 -0.776629,-0.03199 -0.9346,-0.18996 -0.402778,-0.402778 z m 48.791665,-0.211257 c 0,-0.366667 0.3,-0.666667 0.66667,-0.666667 0.36666,0 0.66666,0.3 0.66666,0.666667 0,0.366667 -0.3,0.666667 -0.66666,0.666667 -0.36667,0 -0.66667,-0.3 -0.66667,-0.666667 z m 5.33333,-0.333333 c 0,-0.55 0.3,-1 0.66667,-1 0.36667,0 0.66667,0.45 0.66667,1 0,0.55 -0.3,1 -0.66667,1 -0.36667,0 -0.66667,-0.45 -0.66667,-1 z M 91.588979,40.048011 c -0.641828,-1.086526 -1.391184,-1.836924 -1.665238,-1.667549 -0.274053,0.169374 -0.673902,0.02379 -0.888552,-0.323523 -0.21465,-0.347312 -0.137633,-0.787616 0.17115,-0.978455 0.308783,-0.190838 1.518524,0.667732 2.688313,1.907933 1.16979,1.240201 1.842129,2.430903 1.494087,2.646004 -0.348041,0.215102 -1.157933,-0.497883 -1.79976,-1.58441 z m 36.463651,0.896432 c 0.032,-0.776628 0.18996,-0.934599 0.40278,-0.402777 0.19258,0.48125 0.16889,1.05625 -0.0526,1.277777 -0.22152,0.221528 -0.37909,-0.172222 -0.35014,-0.875 z m 13.66406,-0.3174 c -1.26705,-1.277315 -1.26494,-1.293711 0.16666,-1.293711 1.00554,0 1.44998,0.408691 1.44998,1.333334 0,1.595051 0.005,1.595174 -1.61664,-0.03962 z m 9.39442,0.928511 c -0.24445,-0.244444 -0.44445,-0.754444 -0.44445,-1.133333 0,-0.417736 0.31052,-0.378375 0.78889,0.1 0.43389,0.433889 0.63389,0.943889 0.44445,1.133333 -0.18945,0.189445 -0.54445,0.144445 -0.78889,-0.1 z M 72.333332,40.666666 c 0.226612,-0.366667 0.544317,-0.666667 0.706011,-0.666667 0.161694,0 0.293989,0.3 0.293989,0.666667 0,0.366666 -0.317705,0.666666 -0.706012,0.666666 -0.388306,0 -0.520601,-0.3 -0.293988,-0.666666 z m 4.333333,0.07133 c 0,-0.739377 2.050944,-1.575936 2.576112,-1.050769 0.211901,0.211901 -0.05604,0.664369 -0.595419,1.005484 -1.246575,0.788358 -1.980693,0.805143 -1.980693,0.04528 z m 22.766666,-0.03799 c 0.146667,-0.44 0.484167,-0.7775 0.749999,-0.75 0.79714,0.08246 0.64276,0.996859 -0.216666,1.283333 -0.44,0.146667 -0.68,-0.09333 -0.533333,-0.533333 z M 73.999998,39.333332 c 0,-0.733333 0.115011,-1.333333 0.255579,-1.333333 0.140569,0 0.412483,0.6 0.604254,1.333333 0.191771,0.733334 0.07676,1.333334 -0.255579,1.333334 -0.33234,0 -0.604254,-0.6 -0.604254,-1.333334 z M 120,39.372677 c 0,-0.345027 0.3,-0.812732 0.66666,-1.039345 0.36667,-0.226612 0.66667,0.05568 0.66667,0.627322 0,0.57164 -0.3,1.039345 -0.66667,1.039345 C 120.3,39.999999 120,39.717704 120,39.372677 Z M 71.345683,36.79254 c 1.548391,-2.094311 2.654315,-2.721207 2.654315,-1.504604 0,0.341699 -0.950859,1.298342 -2.113021,2.125875 l -2.113021,1.504603 z m 10.654315,1.207459 c -0.854598,-0.552284 -0.830365,-0.647734 0.166667,-0.656458 0.641666,-0.0056 1.166666,0.289791 1.166666,0.656458 0,0.813074 -0.07519,0.813074 -1.333333,0 z m 46.231012,-0.165554 c -0.28018,-0.453344 0.40546,-0.571612 4.78571,-0.825497 0.74253,-0.04304 1.76304,-0.333491 2.2678,-0.64545 0.60321,-0.372801 1.21484,-0.1609 1.78458,0.618268 0.48407,0.661994 1.31313,1.014209 1.87752,0.797632 0.55587,-0.213308 1.14162,-0.175936 1.30165,0.08305 0.16004,0.258987 -2.40869,0.471385 -5.70829,0.471997 -3.29959,6.12e-4 -6.13863,-0.224388 -6.30897,-0.5 z M 86.294084,37.033157 c -1.249846,-0.933789 -1.242807,-0.953922 0.205914,-0.588913 0.825,0.207862 1.5,0.642941 1.5,0.966843 0,0.79336 -0.196426,0.749843 -1.705914,-0.37793 z m 6.846866,-0.826743 c 0.387817,-1.010635 1.280486,-1.142547 1.820367,-0.269002 0.205338,0.332244 1.048043,0.437949 1.872678,0.2349 0.824635,-0.203049 1.314865,-0.165414 1.089401,0.08363 -0.225465,0.249048 -1.469133,0.53623 -2.763707,0.638182 -1.717703,0.135276 -2.263234,-0.05057 -2.018739,-0.687713 z m -13.807618,-0.24576 c 0,-0.388306 0.3,-0.520601 0.666666,-0.293988 0.366667,0.226612 0.666667,0.544317 0.666667,0.706011 0,0.161694 -0.3,0.293989 -0.666667,0.293989 -0.366666,0 -0.666666,-0.317705 -0.666666,-0.706012 z m 46.425578,-0.293988 c -0.21105,-0.55 -0.0931,-1 0.26201,-1 0.35516,0 0.64574,0.45 0.64574,1 0,0.55 -0.1179,1 -0.262,1 -0.14411,0 -0.43469,-0.45 -0.64575,-1 z m 14.90775,-0.08163 c 0,-0.88586 0.181,-0.931418 1,-0.251704 0.55,0.45646 1,0.943193 1,1.08163 0,0.138437 -0.45,0.251704 -1,0.251704 -0.55,0 -1,-0.486734 -1,-1.08163 z m 4.44445,-0.02948 C 144.36363,34.808079 144.61518,34 145.59534,34 c 0.51077,0 1.10135,0.45 1.31241,1 0.38464,1.002367 -0.94017,1.412025 -1.79664,0.555556 z M 82.666665,33.960654 c 0,-0.388306 0.3,-0.520601 0.666666,-0.293988 0.366667,0.226612 0.666667,0.544317 0.666667,0.706011 0,0.161694 -0.3,0.293989 -0.666667,0.293989 -0.366666,0 -0.666666,-0.317705 -0.666666,-0.706012 z m 10,-0.314911 c 0,-0.561508 0.462938,-1.19857 1.028752,-1.415693 1.506962,-0.578276 1.586024,-0.05931 0.19347,1.269949 -1.034105,0.9871 -1.222222,1.009532 -1.222222,0.145744 z m -5.580337,-0.630318 c 0.21431,-0.558484 0.807558,-1.015426 1.318329,-1.015426 1.302211,0 1.155721,0.498243 -0.389655,1.325304 -1.075564,0.575624 -1.246576,0.518561 -0.928674,-0.309878 z m 46.247002,0.338831 c 0,-0.355159 0.45,-0.473063 1,-0.262008 0.55,0.211055 1,0.50164 1,0.645744 0,0.144104 -0.45,0.262007 -1,0.262007 -0.55,0 -1,-0.290584 -1,-0.645743 z m -35.666666,-0.68759 c -0.226612,-0.366667 0.05568,-0.666667 0.627322,-0.666667 0.57164,0 1.039345,0.3 1.039345,0.666667 0,0.366666 -0.282295,0.666666 -0.627322,0.666666 -0.345027,0 -0.812732,-0.3 -1.039345,-0.666666 z M 79.166665,32.225145 c 0.458333,-0.184941 1.208333,-0.184941 1.666666,0 0.458334,0.184942 0.08333,0.336258 -0.833333,0.336258 -0.916666,0 -1.291666,-0.151316 -0.833333,-0.336258 z m 41.679825,-0.937998 c -0.11533,-1.531043 0.19891,-1.665736 0.71973,-0.308498 0.20655,0.538258 0.15092,1.117474 -0.12361,1.287148 -0.27454,0.169674 -0.5428,-0.270719 -0.59612,-0.97865 z m 21.69517,0.924109 c 0.48125,-0.19258 1.05625,-0.168896 1.27778,0.05263 0.22153,0.221528 -0.17222,0.379094 -0.875,0.350146 -0.77663,-0.03199 -0.9346,-0.18996 -0.40278,-0.402778 z m -8.70833,-0.652777 c 0.45833,-0.184942 1.20833,-0.184942 1.66667,0 0.45833,0.184941 0.0833,0.336257 -0.83334,0.336257 -0.91666,0 -1.29166,-0.151316 -0.83333,-0.336257 z M 78.008251,30.833333 c 0.0045,-0.275 1.040725,-1.168704 2.302637,-1.986007 1.702542,-1.102688 2.415857,-1.274656 2.765297,-0.666667 0.259003,0.450637 0.240573,0.612097 -0.04095,0.3588 -0.281527,-0.253297 -1.301559,0.271703 -2.266738,1.166667 -1.767627,1.639036 -2.775482,2.050616 -2.760241,1.127207 z m 19.715141,0.0012 c -0.194597,-0.194596 -0.194263,-0.611968 7.41e-4,-0.927492 0.466827,-0.755342 2.942527,-0.742526 2.942527,0.01523 0,0.684946 -2.420388,1.43514 -2.943268,0.912259 z m -13.278625,-1.57557 c 1.121187,-1.121187 1.66022,-1.261014 2.648148,-0.686939 1.16226,0.675377 1.148383,0.72207 -0.220239,0.741065 -0.80336,0.01115 -1.646065,0.320273 -1.872678,0.686939 -0.226612,0.366667 -0.760984,0.666667 -1.187493,0.666667 -0.426508,0 -0.14199,-0.63348 0.632262,-1.407732 z M 128,29.922245 c 0,-0.416078 -0.58781,-0.590707 -1.33267,-0.39592 -1.60597,0.419969 -2.54489,-0.77222 -1.25274,-1.590653 C 126.82381,27.043087 128,27.223996 128,28.333333 c 0,0.565109 0.59696,1 1.37268,1 0.75497,0 1.18726,0.3 0.96065,0.666666 C 129.77334,30.906089 128,30.846995 128,29.922245 Z m -9.33334,-0.588912 c -0.55,-0.355438 -1.975,-0.650844 -3.16666,-0.656459 -1.19167,-0.0056 -2.16667,-0.34303 -2.16667,-0.749812 0,-0.482278 0.86981,-0.598561 2.5,-0.33422 1.375,0.222962 2.825,0.455784 3.22222,0.517382 0.39723,0.0616 0.72223,0.511997 0.72223,1.000886 0,0.488889 -0.025,0.884295 -0.0556,0.878681 -0.0306,-0.0056 -0.50556,-0.301021 -1.05556,-0.656458 z m -14,-1.29142 c 0,-0.346076 1.11515,-0.452672 2.5,-0.238972 3.46169,0.53418 3.56767,0.863725 0.27778,0.863725 -1.52778,0 -2.77778,-0.281139 -2.77778,-0.624753 z m 27.66667,-0.04191 c -0.22661,-0.366666 0.0557,-0.666666 0.62732,-0.666666 0.57164,0 1.03935,0.3 1.03935,0.666666 0,0.366667 -0.2823,0.666667 -0.62733,0.666667 -0.34502,0 -0.81273,-0.3 -1.03934,-0.666667 z m 5.33333,0 c -0.22661,-0.366666 -0.0943,-0.666666 0.29399,-0.666666 0.38831,0 0.70601,0.3 0.70601,0.666666 0,0.366667 -0.13229,0.666667 -0.29399,0.666667 -0.16169,0 -0.47939,-0.3 -0.70601,-0.666667 z m -41.666662,-0.66667 c 0,-0.366667 0.282295,-0.666667 0.627322,-0.666667 0.345027,0 0.812732,0.3 1.039344,0.666667 0.226613,0.366666 -0.05568,0.666666 -0.627322,0.666666 -0.571639,0 -1.039344,-0.3 -1.039344,-0.666666 z m 6.145442,-1.436331 c 0.34603,-1.038073 1.8375,-1.219862 1.88977,-0.230336 0.0194,0.366667 -0.46518,0.770318 -1.07678,0.897002 -0.69514,0.143991 -0.9999,-0.105919 -0.81299,-0.666666 z m 18.11944,-0.206811 c -0.90422,-0.667516 -1.0608,-1.141143 -0.54913,-1.661064 0.51536,-0.52367 1.04081,-0.368113 1.87676,0.555602 1.41881,1.567771 0.42244,2.397407 -1.32763,1.105462 z m 14.06845,0.309808 c -0.22661,-0.366666 -0.11202,-0.666666 0.25464,-0.666666 0.36667,0 0.85208,0.3 1.07869,0.666666 0.22662,0.366667 0.11203,0.666667 -0.25464,0.666667 -0.36667,0 -0.85208,-0.3 -1.07869,-0.666667 z m -5.94678,-0.580558 c -0.19734,-0.319308 -1.26505,-0.761808 -2.37268,-0.983334 -2.00537,-0.401074 -2.84862,-1.769441 -1.09041,-1.769441 1.54216,0 4.7325,1.629643 4.90987,2.507994 0.18968,0.939314 -0.90325,1.124227 -1.44678,0.244781 z M 91.333331,23.999999 c 0,-0.366666 0.675,-0.662072 1.5,-0.656458 1.212959,0.0083 1.308639,0.133876 0.5,0.656458 -1.292506,0.835282 -2,0.835282 -2,0 z m 5.333333,0 c 0.55,-0.355437 1.75,-0.620939 2.666667,-0.590004 L 101,23.466239 l -1.666669,0.53376 c -0.916667,0.293568 -2.116667,0.55907 -2.666667,0.590005 -0.888888,0.05 -0.888888,-0.01556 0,-0.590005 z m 8.931306,-2.111153 c -0.18883,-0.305532 0.72438,-0.555513 2.02935,-0.555513 1.30497,0 2.37268,0.11595 2.37268,0.257667 0,0.547454 -4.07727,0.823326 -4.40203,0.297846 z m 12.77038,-0.279008 c -1.17976,-0.862663 -1.03713,-0.936571 1.67089,-0.865838 1.62842,0.04253 2.36076,0.227239 1.62742,0.410455 -0.73333,0.183216 -1.48523,0.572843 -1.67089,0.865837 -0.18565,0.292994 -0.91799,0.10829 -1.62742,-0.410454 z m 6.17331,-0.06525 c 0.48125,-0.19258 1.05625,-0.168896 1.27778,0.05263 0.22153,0.221527 -0.17222,0.379093 -0.875,0.350146 -0.77663,-0.03199 -0.9346,-0.18996 -0.40278,-0.402778 z M 97.833331,20.891812 c 0.458333,-0.184941 1.208333,-0.184941 1.666667,0 0.458333,0.184942 0.08333,0.336258 -0.833334,0.336258 -0.916666,0 -1.291666,-0.151316 -0.833333,-0.336258 z m 11.341109,-0.696653 c 0.82927,-0.159462 2.02927,-0.153408 2.66666,0.01345 0.6374,0.166861 -0.0411,0.29733 -1.50777,0.289931 -1.46667,-0.0074 -1.98817,-0.143923 -1.15889,-0.303385 z"
         id="path12" />
      <path
         style="fill:#edbb4f"
         d="m 25.499999,160.80165 c -3.758333,-10.22217 -6.833333,-18.9493 -6.833333,-19.39364 0,-0.56038 1.144026,-0.74663 3.734207,-0.60795 L 26.13508,141 l 4.608164,12.33333 c 2.53449,6.78333 4.761158,12.75127 4.948152,13.26208 0.186993,0.51082 0.506301,0.76244 0.709573,0.55917 0.203272,-0.20327 2.551468,-6.17121 5.218213,-13.26208 L 46.467809,141 l 3.766095,-0.19994 c 2.760094,-0.14653 3.757522,0.0316 3.734,0.66667 -0.01765,0.47663 -3.113896,9.1166 -6.880543,19.19993 L 40.238912,179 l -3.95279,0.1937 -3.952789,0.1937 z M 68.666665,160 v -19.33334 h 3.613954 3.613955 l 5.472215,7.71383 c 3.009719,4.24261 5.696848,7.46761 5.971398,7.16667 0.274551,-0.30094 2.805664,-3.77216 5.624696,-7.71383 l 5.125513,-7.16667 h 3.622464 3.62247 V 160 179.33333 h -3.65257 -3.652576 l -0.18076,-12.95798 -0.18076,-12.95798 -4.999999,7.07039 c -2.75,3.88871 -5.3,7.15906 -5.666667,7.26743 -0.366667,0.10837 -2.991667,-3.1558 -5.833333,-7.2537 l -5.166667,-7.45074 v 13.14129 13.14129 h -3.666666 -3.666667 z m 50.666665,19.07734 c 0,-0.14079 3.58008,-8.76579 7.95573,-19.16666 L 135.24478,141 h 3.81852 3.81852 l 7.56171,18 c 4.15894,9.9 7.73075,18.525 7.93735,19.16666 0.32901,1.02188 -0.11332,1.16667 -3.56418,1.16667 h -3.9398 l -1.63185,-4.16667 -1.63184,-4.16666 -8.39006,-0.18597 -8.39006,-0.18596 -1.84989,4.35263 -1.84989,4.35263 h -3.89999 c -2.145,0 -3.89999,-0.1152 -3.89999,-0.25599 z m 24.44479,-16.69397 c -1.52581,-3.97618 -4.63042,-11.08127 -4.77065,-10.9179 -0.74832,0.87184 -4.78683,11.19962 -4.49395,11.4925 0.20645,0.20645 2.45746,0.37536 5.00225,0.37536 3.73055,0 4.55626,-0.18403 4.26235,-0.94996 z M 172.66666,160 V 140.66666 H 187.33333 202 V 144.33333 148 h -11.03484 -11.03484 l 0.2015,3.5 0.20151,3.5 5.83333,0.19262 L 192,155.38524 V 159 v 3.61475 l -5.83334,0.19262 -5.83333,0.19263 -0.18719,8.16666 -0.18718,8.16667 h -3.64615 -3.64615 z M 127.5,108.0073 c -3.2449,-1.97845 -3.229,-6.00073 0.0352,-8.901423 4.25722,-3.783161 6.4648,-5.968972 6.4648,-6.401078 0,-0.452488 -19.35287,-2.065457 -24.57136,-2.047905 -2.7709,0.0093 -9.603229,-2.722125 -12.095309,-4.835491 -2.095038,-1.776663 -5.485243,-8.747193 -5.206461,-10.704899 0.215202,-1.511221 0.44012,-1.542256 5.285069,-0.729257 4.921141,0.825783 9.254721,-3.264561 9.254721,-8.73526 0,-2.78278 -0.30842,-3.450608 -2.69646,-5.838647 -1.48305,-1.483054 -2.5485,-3.082036 -2.36766,-3.553294 1.00714,-2.624578 13.21449,-2.845261 17.31184,-0.312962 1.93182,1.19393 8.646,7.961908 9.2076,9.281384 0.11624,0.273104 2.90065,3.997082 6.18758,8.275507 3.69543,4.810153 6.15922,7.482868 6.45571,7.00314 0.26371,-0.426697 0.68971,-3.019293 0.94666,-5.761325 0.5741,-6.126468 2.07557,-8.079125 6.21237,-8.079125 3.61707,0 5.40903,2.450257 5.40903,7.396116 0,4.196168 -1.36379,11.27055 -2.17273,11.27055 -0.31494,0 -0.42027,0.24651 -0.23407,0.5478 0.18621,0.30129 -0.0961,1.385582 -0.62732,2.409538 -0.53123,1.023956 -0.96588,2.121621 -0.96588,2.439255 0,1.312985 -5.12349,8.448702 -8.31192,11.576386 -7.49482,7.35203 -9.45678,8.17925 -13.52141,5.70099 z m 17.6958,-18.759277 c 0.10769,-0.880404 -0.35281,-2.196374 -1.02333,-2.92438 -0.67052,-0.728005 -1.6985,-2.015239 -2.2844,-2.86052 l -1.06526,-1.536875 -0.76741,2.203542 c -0.42207,1.211947 -1.50721,3.322109 -2.4114,4.689247 -0.9042,1.367139 -1.644,2.625702 -1.644,2.796806 0,0.698205 6.43024,0.688091 7.66666,-0.01206 0.73334,-0.415265 1.42145,-1.475357 1.52914,-2.35576 z m 60.35375,-18.748025 c -0.74224,-0.825 -2.3469,-3 -3.56592,-4.833333 C 189.11721,46.316272 167.16911,30.703237 142.93563,23.662184 121.71729,17.49718 95.910118,17.797368 74.999998,24.452407 65.875961,27.356304 53.643422,33.243831 45.333332,38.730987 37.883368,43.650202 22.960093,58.232637 19.333333,64.137161 L 17,67.935928 l -5.166667,0.03203 c -4.0581308,0.02516 -5.1666665,-0.173146 -5.1666665,-0.924276 0,-2.022407 8.5363005,-13.582084 14.9522295,-20.247992 C 35.762115,32.101424 51.06056,22.480382 70.633998,15.970578 105.48776,4.3787889 143.85762,8.69539 175.22108,27.736604 c 13.93699,8.461353 26.37372,20.257092 35.02602,33.220801 3.38151,5.066499 3.94381,8.059846 1.86707,9.939268 -1.75654,1.589649 -4.95123,1.396606 -6.56462,-0.396675 z"
         id="path11" />
      <path
         style="fill:#9fa19f"
         d="m 25.499999,160.80165 c -3.758333,-10.22217 -6.833333,-18.9493 -6.833333,-19.39364 0,-0.56038 1.144026,-0.74663 3.734207,-0.60795 L 26.13508,141 l 4.608164,12.33333 c 2.53449,6.78333 4.761158,12.75127 4.948152,13.26208 0.186993,0.51082 0.506301,0.76244 0.709573,0.55917 0.203272,-0.20327 2.551468,-6.17121 5.218213,-13.26208 L 46.467809,141 l 3.766095,-0.19994 c 2.760094,-0.14653 3.757522,0.0316 3.734,0.66667 -0.01765,0.47663 -3.113896,9.1166 -6.880543,19.19993 L 40.238912,179 l -3.95279,0.1937 -3.952789,0.1937 z M 68.666665,160 v -19.33334 h 3.613954 3.613955 l 5.472215,7.71383 c 3.009719,4.24261 5.696848,7.46761 5.971398,7.16667 0.274551,-0.30094 2.805664,-3.77216 5.624696,-7.71383 l 5.125513,-7.16667 h 3.622464 3.62247 V 160 179.33333 h -3.65257 -3.652576 l -0.18076,-12.95798 -0.18076,-12.95798 -4.999999,7.07039 c -2.75,3.88871 -5.3,7.15906 -5.666667,7.26743 -0.366667,0.10837 -2.991667,-3.1558 -5.833333,-7.2537 l -5.166667,-7.45074 v 13.14129 13.14129 h -3.666666 -3.666667 z m 50.666665,19.07734 c 0,-0.14079 3.58008,-8.76579 7.95573,-19.16666 L 135.24478,141 h 3.81852 3.81852 l 7.56171,18 c 4.15894,9.9 7.73075,18.525 7.93735,19.16666 0.32901,1.02188 -0.11332,1.16667 -3.56418,1.16667 h -3.9398 l -1.63185,-4.16667 -1.63184,-4.16666 -8.39006,-0.18597 -8.39006,-0.18596 -1.84989,4.35263 -1.84989,4.35263 h -3.89999 c -2.145,0 -3.89999,-0.1152 -3.89999,-0.25599 z m 24.44479,-16.69397 c -1.52581,-3.97618 -4.63042,-11.08127 -4.77065,-10.9179 -0.74832,0.87184 -4.78683,11.19962 -4.49395,11.4925 0.20645,0.20645 2.45746,0.37536 5.00225,0.37536 3.73055,0 4.55626,-0.18403 4.26235,-0.94996 z M 172.66666,160 V 140.66666 H 187.33333 202 V 144.33333 148 h -11.03484 -11.03484 l 0.2015,3.5 0.20151,3.5 5.83333,0.19262 L 192,155.38524 V 159 v 3.61475 l -5.83334,0.19262 -5.83333,0.19263 -0.18719,8.16666 -0.18718,8.16667 h -3.64615 -3.64615 z m -45.0766,-51.93793 c -3.74533,-2.28382 -3.36541,-6.36551 0.92196,-9.905331 1.55172,-1.281163 2.82131,-2.055224 2.82131,-1.720136 0,0.335088 -0.92876,1.157881 -2.0639,1.828428 -2.21125,1.306215 -4.02461,4.672209 -3.42995,6.366719 1.13859,3.24448 4.49719,4.62977 7.54203,3.1108 1.0735,-0.53553 1.95182,-0.74484 1.95182,-0.46513 0,0.66342 -3.07442,2.05662 -4.53137,2.05342 -0.62441,-10e-4 -2.06977,-0.57232 -3.2119,-1.26877 z m 9.2274,-2.44789 c 0.63293,-0.66082 1.29429,-1.05799 1.46968,-0.8826 0.17539,0.17539 -0.34247,0.71606 -1.1508,1.20149 -1.4042,0.84328 -1.41841,0.82907 -0.31888,-0.31889 z m 4.07948,-3.8889 c 1.2511,-1.2511 3.5561,-4.256096 5.12223,-6.677772 1.56613,-2.421676 2.97498,-4.275579 3.13078,-4.119783 C 149.88919,91.666968 140.55811,104 139.25956,104 c -0.35054,0 0.38628,-1.02363 1.63738,-2.27472 z M 132,95.540668 c 0,-0.390909 0.45,-1.084211 1,-1.54067 0.55,-0.45646 1,-1.033899 1,-1.283199 0,-0.461405 -19.27984,-2.077702 -24.57136,-2.059905 -2.7709,0.0093 -9.603229,-2.722125 -12.095309,-4.835491 -2.095038,-1.776663 -5.485243,-8.747193 -5.206461,-10.704899 0.215202,-1.511221 0.44012,-1.542256 5.285069,-0.729257 4.921141,0.825783 9.254721,-3.264561 9.254721,-8.73526 0,-2.78278 -0.30842,-3.450608 -2.69646,-5.838647 -1.48305,-1.483054 -2.5485,-3.082036 -2.36766,-3.553294 1.00714,-2.624578 13.21449,-2.845261 17.31184,-0.312962 1.93182,1.19393 8.646,7.961908 9.2076,9.281384 0.11624,0.273104 2.90065,3.997082 6.18758,8.275507 3.9168,5.09829 6.15321,7.500467 6.48979,6.970821 1.02617,-1.614765 0.54526,0.72167 -0.78944,3.835403 C 138.02842,88.932833 132,97.38511 132,95.540668 Z m 17.33333,-6.707239 c 0,-0.318226 0.43508,-1.160931 0.96684,-1.872678 0.93278,-1.248495 0.95343,-1.240875 0.5862,0.216303 -0.37925,1.50482 -1.55304,2.756718 -1.55304,1.656375 z m 1.72467,-5.000098 c 1.79299,-5.58932 2.13229,-12.754774 0.69365,-14.648868 -0.47994,-0.631878 -1.5954,-1.437862 -2.4788,-1.791076 -1.54597,-0.618131 -1.55165,-0.643791 -0.15158,-0.684465 2.33103,-0.06772 4.21206,3.216376 4.21206,7.353859 0,4.209381 -1.36474,11.27055 -2.17831,11.27055 -0.31801,0 -0.36167,-0.675 -0.097,-1.5 z M 141.67601,76.40695 C 141.8542,74.614108 142,72.425471 142,71.543314 c 0,-1.637983 2.67031,-4.876649 4.02084,-4.876649 0.41147,0 -0.17489,0.776668 -1.30303,1.725929 -1.72247,1.449366 -2.0618,2.22386 -2.1176,4.833333 -0.0366,1.709072 -0.33234,3.857404 -0.65732,4.774071 -0.43544,1.228248 -0.50564,0.809194 -0.26688,-1.593048 z m 63.87354,-5.906952 c -0.74224,-0.825 -2.3469,-3 -3.56592,-4.833333 C 189.11721,46.316272 167.16911,30.703237 142.93563,23.662184 121.71729,17.49718 95.910118,17.797368 74.999998,24.452407 65.875961,27.356304 53.643422,33.243831 45.333332,38.730987 37.883368,43.650202 22.960093,58.232637 19.333333,64.137161 L 17,67.935928 l -5.166667,0.03203 c -4.0581308,0.02516 -5.1666665,-0.173146 -5.1666665,-0.924276 0,-2.022407 8.5363005,-13.582084 14.9522295,-20.247992 C 35.762115,32.101424 51.06056,22.480382 70.633998,15.970578 105.48776,4.3787889 143.85762,8.69539 175.22108,27.736604 c 13.93699,8.461353 26.37372,20.257092 35.02602,33.220801 3.38151,5.066499 3.94381,8.059846 1.86707,9.939268 -1.75654,1.589649 -4.95123,1.396606 -6.56462,-0.396675 z"
         id="path10" />
      <path
         style="fill:#646565"
         d="m 31.930816,177.5 c -2.663286,-6.947 -13.26415,-36.02946 -13.26415,-36.38894 0,-0.24442 1.600031,-0.4444 3.555624,-0.4444 h 3.555623 l 4.878595,13.16667 c 2.683228,7.24167 5.097613,13.41608 5.3653,13.72092 0.476245,0.54235 1.134838,-1.04396 7.634049,-18.38759 l 3.185221,-8.5 h 3.579461 c 1.968703,0 3.57946,0.14337 3.57946,0.3186 0,0.25442 -11.931557,32.66248 -13.688941,37.1814 -0.354563,0.91172 -1.24299,1.16667 -4.065552,1.16667 -3.325358,0 -3.66759,-0.14542 -4.31469,-1.83333 z m 37.051382,1.02734 C 68.796554,178.04356 68.724614,169.402 68.822331,159.32387 L 68.999998,141 l 3.333334,-0.17689 3.333333,-0.17689 5.333333,7.64986 c 2.933333,4.20742 5.543934,7.66202 5.801335,7.67689 0.257401,0.0149 2.935392,-3.42297 5.951091,-7.63964 l 5.483088,-7.66667 h 3.215578 3.21557 V 160 179.33333 h -3.31924 -3.319236 l -0.18076,-13.15381 -0.18076,-13.15381 -5.248349,7.47601 c -2.886592,4.1118 -5.462119,7.34388 -5.723394,7.18241 -0.261275,-0.16148 -2.671336,-3.44524 -5.355691,-7.29724 -2.684355,-3.85201 -5.145361,-6.84005 -5.468904,-6.64009 -0.323542,0.19996 -0.549877,5.96373 -0.502966,12.80838 L 75.452653,179 l -3.066461,0.20347 c -2.078198,0.13789 -3.175241,-0.08 -3.403994,-0.67613 z M 120,178.52794 c 0,-0.44297 3.51901,-9.14297 7.82002,-19.33334 l 7.82002,-18.52794 h 3.45081 3.45081 l 2.99997,7.16667 c 1.64998,3.94167 5.12811,12.23645 7.72917,18.43285 2.60106,6.1964 4.7292,11.68708 4.7292,12.2015 0,0.7079 -0.83692,0.88633 -3.44198,0.73382 L 151.11605,179 l -1.83497,-4.33334 -1.83496,-4.33333 -8.28202,-0.18578 -8.28203,-0.18578 -2.06966,4.68578 -2.06966,4.68578 h -3.37138 c -2.19027,0 -3.37137,-0.28216 -3.37137,-0.80539 z m 24,-15.79691 c 0,-1.43082 -4.52091,-11.03603 -5.06558,-10.76243 -0.3306,0.16606 -1.42949,2.26546 -2.44197,4.66532 -3.07021,7.27724 -3.28261,6.69941 2.46262,6.69941 2.77471,0 5.04493,-0.27103 5.04493,-0.6023 z m 29.33333,-2.74429 V 140.64015 L 187.5,140.82007 201.66666,141 v 3.33333 3.33333 L 190.83333,147.84984 180,148.03302 v 3.65016 3.65015 h 6 6 V 159 v 3.66666 h -6 -6 V 171 v 8.33333 h -3.33334 -3.33333 z M 116.98101,91.011901 C 104.3164,90.098384 101.23272,89.18828 97.225898,85.181454 93.653906,81.609462 90.844196,74.793012 92.517543,73.758827 c 0.28465,-0.175923 1.727775,0.0032 3.206946,0.397982 3.544528,0.946088 5.999791,0.252239 8.714801,-2.462774 1.9165,-1.916499 2.22737,-2.681201 2.22737,-5.479033 0,-3.397954 -0.99933,-5.418219 -3.92493,-7.934719 -0.89213,-0.767378 -1.41314,-1.733261 -1.15781,-2.146407 1.25946,-2.037844 10.16428,-2.759987 14.5841,-1.182709 4.25273,1.517649 6.85162,4.059475 15.23989,14.905267 4.45663,5.762294 8.38495,10.834059 8.72959,11.27059 0.69932,0.885768 -1.16132,5.629559 -3.49172,8.902298 -1.63869,2.301327 -1.48716,2.293756 -19.66477,0.982579 z m 89.85047,-19.45404 c -0.45935,-0.185281 -2.70935,-3.076505 -5,-6.424943 C 186.00397,41.996488 158.73997,25.205524 129,20.278501 118.79293,18.587495 99.896494,18.737635 89.766866,20.590224 69.316973,24.330268 50.014769,33.458322 34.993286,46.49277 29.60094,51.171818 21.711197,60.011004 18.388443,65.095819 l -1.805192,2.762488 -4.791625,-0.14041 C 6.0949619,67.550966 6.0044633,67.21702 10.043904,61.26868 28.54666,34.022164 58.517214,15.792243 92.630943,11.034199 102.16336,9.7046567 118.78497,9.7028063 127.91444,11.030271 155.22811,15.0018 179.55806,27.288286 198,46.423068 c 7.78885,8.081479 15.33333,18.50768 15.33333,21.190127 0,3.117128 -3.41575,5.189456 -6.50185,3.944666 z"
         id="path9" />
      <path
         style="fill:#040405"
         d="m 32.103723,177.41666 c -0.349402,-0.9625 -3.515677,-9.5223 -7.036166,-19.02178 -3.52049,-9.49948 -6.400891,-17.39016 -6.400891,-17.53484 0,-0.14468 1.575,-0.17238 3.5,-0.0616 l 3.5,0.20151 5,13.4805 c 2.75,7.41428 5.274627,13.39774 5.610282,13.29657 0.335655,-0.10116 2.793313,-5.98505 5.461463,-13.0753 2.66815,-7.09025 5.127765,-13.16795 5.465809,-13.506 0.6344,-0.63439 6.032132,-0.48443 6.307544,0.17525 0.0852,0.20406 -2.970324,8.79156 -6.790044,19.08333 l -6.944945,18.71231 h -3.518888 c -3.19238,0 -3.577833,-0.16238 -4.154164,-1.75 z m 37.229609,-17.54843 v -19.27462 l 3.137798,0.20319 3.137798,0.2032 5.236888,7.33333 c 2.880288,4.03333 5.465595,7.56565 5.745127,7.84959 0.279532,0.28394 2.553296,-2.41606 5.052809,-6 6.449043,-9.247 6.735924,-9.51626 10.139118,-9.51626 h 2.88379 v 19.2381 19.23809 h -3 -2.999996 v -12.90476 c 0,-8.33244 -0.241076,-12.90476 -0.680405,-12.90476 -0.374222,0 -1.649222,1.38104 -2.833333,3.06897 -1.18411,1.68794 -3.523274,4.97878 -5.198141,7.31298 l -3.045213,4.244 -5.167471,-7.31298 c -2.842109,-4.02213 -5.446763,-7.31297 -5.78812,-7.31297 -0.361713,0 -0.620649,5.38391 -0.620649,12.90476 v 12.90476 h -3 -3 z m 50.719008,18.54417 c 0.0288,-0.41016 3.55981,-8.99574 7.8467,-19.07907 L 135.69339,141 l 3.34462,-0.19658 3.34462,-0.19659 7.82304,18.86325 c 4.30267,10.37479 7.81657,19.05659 7.80868,19.29289 -0.008,0.2363 -1.53547,0.3863 -3.39461,0.33333 L 151.23948,179 l -1.80741,-4.33334 -1.8074,-4.33333 h -8.5977 -8.5977 l -1.76393,4.33333 -1.76393,4.33334 -3.4507,0.0791 c -2.17437,0.0498 -3.43135,-0.19676 -3.39837,-0.66667 z m 23.56191,-17.57907 c -0.58867,-1.375 -1.6881,-4.08486 -2.44319,-6.02192 -0.75508,-1.93706 -1.68051,-3.41938 -2.05649,-3.29405 C 138.45504,151.7372 134,161.50487 134,162.73103 c 0,0.33127 2.40402,0.6023 5.34228,0.6023 h 5.34228 z m 29.71908,-0.95248 v -19.21419 h 14 14 V 144 147.33333 H 190.66666 180 v 4 4 h 6.03484 6.03484 l -0.20151,3.5 -0.20151,3.5 -5.83333,0.19262 L 180,162.71857 v 8.34034 8.34033 l -3.33334,-0.1521 -3.33333,-0.15209 z M 121.06035,90.928761 c -15.1861,-0.972012 -18.64428,-1.737169 -22.604426,-5.001453 -2.472851,-2.038333 -5.192735,-6.57374 -6.030251,-10.055443 l -0.431735,-1.794799 4.50303,0.33997 c 3.707852,0.279935 4.865622,0.110442 6.556382,-0.959828 2.16828,-1.372539 4.27998,-5.029906 4.27998,-7.412708 0,-2.326961 -1.71383,-5.722626 -3.66151,-7.254675 -1.05621,-0.830816 -1.66891,-1.835821 -1.45656,-2.389191 0.59873,-1.56028 7.25702,-2.624297 11.17029,-1.785051 6.4519,1.383686 8.18358,2.943298 19.57652,17.631357 8.10397,10.44784 8.13262,10.558157 4.29451,16.539332 -1.13423,1.767549 -2.10597,3.173449 -2.15941,3.124223 -0.0534,-0.04923 -6.37001,-0.491007 -14.03682,-0.981734 z M 206.16666,70.773884 C 205.525,70.099521 203.1359,66.866439 200.85757,63.589257 188.30418,45.532323 166.51504,30.250825 143.6312,23.45438 131.41951,19.827536 125.106,19.007637 109.66666,19.043603 97.127466,19.072812 94.79308,19.261238 87.294422,20.849429 59.249733,26.789204 34.438726,42.26401 19.584168,63.080807 l -3.034539,4.252525 h -4.608148 c -3.3667373,0 -4.6081478,-0.236492 -4.6081478,-0.877863 0,-2.627589 12.9479088,-18.874835 19.9999998,-25.096324 22.057063,-19.459161 48.513992,-30.024821 78.046827,-31.168254 42.55288,-1.6475339 83.12105,18.272324 104.97446,51.544749 3.43248,5.226054 3.6706,6.956679 1.22214,8.882638 -2.16999,1.706912 -3.88701,1.756298 -5.4101,0.155606 z"
         id="path8" />
    </g>
  </g>
</svg>
