<?xml version="1.0" encoding="UTF-8" standalone="no"?>
<!-- Created with Inkscape (http://www.inkscape.org/) -->

<svg
   xmlns:dc="http://purl.org/dc/elements/1.1/"
   xmlns:cc="http://creativecommons.org/ns#"
   xmlns:rdf="http://www.w3.org/1999/02/22-rdf-syntax-ns#"
   xmlns:svg="http://www.w3.org/2000/svg"
   xmlns="http://www.w3.org/2000/svg"
   version="1.1"
   width="300"
   height="89.278625"
   id="svg1324">
  <defs
     id="defs1326">
    <clipPath
       id="clipPath410">
      <path
         d="M 0,0 612,0 612,792 0,792 0,0 Z"
         id="path412" />
    </clipPath>
    <clipPath
       id="clipPath436">
      <path
         d="M 0,0 612,0 612,792 0,792 0,0 Z"
         id="path438" />
    </clipPath>
    <clipPath
       id="clipPath456">
      <path
         d="M 0,0 612,0 612,792 0,792 0,0 Z"
         id="path458" />
    </clipPath>
  </defs>
  <metadata
     id="metadata1329">
    <rdf:RDF>
      <cc:Work
         rdf:about="">
        <dc:format>image/svg+xml</dc:format>
        <dc:type
           rdf:resource="http://purl.org/dc/dcmitype/StillImage" />
        <dc:title></dc:title>
      </cc:Work>
    </rdf:RDF>
  </metadata>
  <g
     transform="translate(-319.54114,-279.00027)"
     id="layer1">
    <g
       transform="matrix(1.6324321,0,0,1.6324321,-509.25802,-401.49893)"
       id="g1147">
      <g
         transform="matrix(1.25,0,0,-1.25,-7.5,1027.3622)"
         id="g406">
        <g
           clip-path="url(#clipPath410)"
           id="g408">
          <g
             transform="translate(487.7391,451.6655)"
             id="g414">
            <path
               d="m 0,0 1.11,0.582 c 0.493,-0.974 1.256,-1.445 2.287,-1.445 1.009,0 1.693,0.324 1.693,1.076 0,0.718 -0.516,1.054 -1.884,1.457 -1.603,0.471 -2.892,0.909 -2.892,2.489 0,1.413 1.154,2.343 2.836,2.343 1.637,0 2.602,-0.806 3.106,-1.782 L 5.236,4.014 C 4.742,4.844 4.036,5.224 3.139,5.224 2.22,5.224 1.693,4.888 1.693,4.283 1.693,3.509 2.287,3.252 3.644,2.847 5.213,2.388 6.469,1.872 6.469,0.313 6.469,-1.043 5.314,-2.108 3.341,-2.108 1.693,-2.108 0.527,-1.256 0,0"
               id="path416"
               style="fill:#141006;fill-opacity:1;fill-rule:nonzero;stroke:none" />
          </g>
          <g
             transform="translate(495.5677,451.2735)"
             id="g418">
            <path
               d="m 0,0 0,3.296 -1.032,0 0,1.098 1.032,0 0,2.074 1.378,0 0,-2.074 1.537,0 0,-1.098 -1.537,0 0,-2.949 c 0,-0.639 0.192,-0.897 0.875,-0.897 0.202,0 0.46,0.033 0.595,0.079 l 0,-1.088 C 2.702,-1.592 2.186,-1.638 1.838,-1.638 0.325,-1.638 0,-1.077 0,0"
               id="path420"
               style="fill:#141006;fill-opacity:1;fill-rule:nonzero;stroke:none" />
          </g>
          <g
             transform="translate(499.2469,451.3958)"
             id="g422">
            <path
               d="m 0,0 0,4.272 1.39,0 0,-3.946 c 0,-0.662 0.281,-0.965 0.886,-0.965 0.606,0 1.11,0.314 1.615,0.773 l 0,4.138 1.39,0 0,-5.953 -1.39,0 0,0.807 C 3.509,-1.278 2.792,-1.793 1.715,-1.793 0.673,-1.793 0,-1.177 0,0"
               id="path424"
               style="fill:#141006;fill-opacity:1;fill-rule:nonzero;stroke:none" />
          </g>
          <g
             transform="translate(505.54,452.6746)"
             id="g426">
            <path
               d="m 0,0 c 0,2.063 1.02,3.105 2.545,3.105 0.639,0 1.267,-0.258 1.704,-0.751 l 0,2.982 1.379,0 0,-6.838 c 0,-0.718 0.045,-1.155 0.18,-1.458 l -1.424,0 C 4.305,-2.792 4.249,-2.456 4.249,-2.153 3.812,-2.657 3.24,-3.05 2.354,-3.05 0.998,-3.05 0,-2.063 0,0 m 4.249,-1.166 0,2.387 c -0.37,0.483 -0.908,0.74 -1.402,0.74 -1.042,0 -1.468,-0.672 -1.468,-1.995 0,-1.255 0.538,-1.884 1.424,-1.884 0.572,0 1.121,0.36 1.446,0.752"
               id="path428"
               style="fill:#141006;fill-opacity:1;fill-rule:nonzero;stroke:none" />
          </g>
        </g>
      </g>
      <path
         d="m 633.10375,454.98845 1.765,0 0,1.49875 -1.765,0 L 633.10375,454.98845 z m 0.0125,2.78875 1.73875,0 0,7.44125 -1.73875,0 L 633.11625,457.7772 Z"
         id="path430"
         style="fill:#141006;fill-opacity:1;fill-rule:nonzero;stroke:none" />
      <g
         transform="matrix(1.25,0,0,-1.25,-7.5,1027.3622)"
         id="g432">
        <g
           clip-path="url(#clipPath436)"
           id="g434">
          <g
             transform="translate(514.8763,452.6859)"
             id="g440">
            <path
               d="M 0,0 C 0,2.197 1.446,3.094 2.903,3.094 4.35,3.094 5.807,2.197 5.807,0 5.807,-2.175 4.35,-3.095 2.903,-3.095 1.458,-3.095 0,-2.175 0,0 M 4.417,0 C 4.417,1.11 3.946,1.917 2.903,1.917 1.906,1.917 1.39,1.199 1.39,0 c 0,-1.133 0.46,-1.94 1.513,-1.94 0.999,0 1.514,0.718 1.514,1.94"
               id="path442"
               style="fill:#141006;fill-opacity:1;fill-rule:nonzero;stroke:none" />
          </g>
          <g
             transform="translate(521.1348,450.5333)"
             id="g444">
            <path
               d="M 0,0 0.752,0.841 C 1.2,0.459 1.862,0.134 2.624,0.134 c 0.74,0 1.188,0.191 1.188,0.684 0,0.483 -0.605,0.628 -1.323,0.796 -1.02,0.236 -2.242,0.505 -2.242,1.884 0,1.043 0.897,1.748 2.208,1.748 1.133,0 1.828,-0.324 2.445,-0.84 L 4.238,3.509 C 3.801,3.867 3.094,4.159 2.557,4.159 1.794,4.159 1.548,3.89 1.548,3.554 1.548,3.072 2.142,2.926 2.848,2.769 3.869,2.545 5.113,2.287 5.113,0.897 5.113,-0.359 3.98,-0.943 2.624,-0.943 1.525,-0.943 0.539,-0.55 0,0"
               id="path446"
               style="fill:#141006;fill-opacity:1;fill-rule:nonzero;stroke:none" />
          </g>
        </g>
      </g>
      <g
         transform="matrix(1.25,0,0,-1.25,563.84375,445.1337)"
         id="g448">
        <path
           d="m 0,0 0,6.996 -2.556,0 0,1.301 6.514,0 0,-1.301 -2.557,0 L 1.401,0 0,0 Z"
           id="path450"
           style="fill:#141006;fill-opacity:1;fill-rule:nonzero;stroke:none" />
      </g>
      <g
         transform="matrix(1.25,0,0,-1.25,-7.5,1027.3622)"
         id="g452">
        <g
           clip-path="url(#clipPath456)"
           id="g454">
          <g
             transform="translate(461.8598,465.7828)"
             id="g460">
            <path
               d="m 0,0 0,8.297 1.391,0 0,-3.15 c 0.381,0.403 1.098,0.919 2.174,0.919 1.043,0 1.716,-0.617 1.716,-1.794 l 0,-4.272 -1.39,0 0,3.925 C 3.891,4.586 3.61,4.888 3.005,4.888 2.4,4.888 1.895,4.574 1.391,4.115 L 1.391,0 0,0 Z"
               id="path462"
               style="fill:#141006;fill-opacity:1;fill-rule:nonzero;stroke:none" />
          </g>
          <g
             transform="translate(468.0786,468.7542)"
             id="g464">
            <path
               d="m 0,0 c 0,2.264 1.603,3.094 2.837,3.094 1.334,0 2.612,-0.796 2.612,-3.217 l 0,-0.326 -4.07,0 c 0.056,-1.075 0.717,-1.546 1.592,-1.546 0.773,0 1.222,0.258 1.67,0.694 L 5.37,-2.018 C 4.753,-2.702 3.935,-3.094 2.87,-3.094 1.379,-3.094 0,-2.186 0,0 M 4.182,0.583 C 4.103,1.491 3.655,1.973 2.825,1.973 2.153,1.973 1.536,1.592 1.402,0.583 L 4.182,0.583 Z"
               id="path466"
               style="fill:#141006;fill-opacity:1;fill-rule:nonzero;stroke:none" />
          </g>
          <g
             transform="translate(527.6423,475.9227)"
             id="g468">
            <path
               d="m 0,0 c 0,0 0.205,0.308 0.377,0.542 0.313,0.426 0.881,1.015 1.307,1.381 0.131,0.111 0.285,0.238 0.285,0.238 0,0 -0.241,-0.025 -0.378,-0.052 C 1.268,2.045 0.793,1.729 0.555,1.524 0.164,1.19 -0.267,0.644 -0.072,0.16 -0.044,0.092 0,0 0,0 m 2.178,-0.583 c 0.617,0.042 1.198,0.221 1.737,0.521 C 4.444,0.233 5.222,0.81 5.142,1.489 5.116,1.71 4.974,1.875 4.792,1.953 4.556,2.055 4.433,2.038 4.132,1.95 3.912,1.884 3.814,1.846 3.607,1.727 2.999,1.375 2.139,0.62 1.672,0.017 1.564,-0.124 1.456,-0.284 1.369,-0.393 1.315,-0.459 1.274,-0.52 1.279,-0.537 1.297,-0.606 1.936,-0.598 2.178,-0.583 M 0.601,-1.739 C 0.538,-1.807 0.471,-1.971 0.4,-2.088 0.363,-2.151 0.294,-2.233 0.248,-2.264 c -0.161,-0.119 -0.297,-0.125 -0.454,0.012 -0.218,0.192 -0.343,0.492 -0.352,0.781 -0.005,0.128 0.016,0.266 -0.008,0.374 -0.039,0.18 -0.219,0.364 -0.317,0.537 -0.114,0.205 -0.205,0.557 -0.217,0.787 -0.04,0.712 0.336,1.367 0.824,1.886 C 0.215,2.634 0.858,3.071 1.557,3.366 2.218,3.647 3.185,3.834 3.911,3.585 4.147,3.502 4.476,3.301 4.642,3.092 4.677,3.047 4.706,2.999 4.742,2.977 4.774,2.956 4.858,2.948 4.925,2.936 5.157,2.895 5.491,2.721 5.627,2.603 5.899,2.368 6.05,2.142 6.118,1.816 6.258,1.156 5.879,0.434 5.447,-0.006 4.707,-0.761 3.977,-1.293 3.031,-1.665 2.616,-1.828 1.968,-1.979 1.496,-1.937 1.351,-1.924 1.2,-1.885 1.057,-1.875 0.985,-1.87 0.718,-1.801 0.69,-1.781 0.655,-1.755 0.61,-1.73 0.601,-1.739 m -22.566,-1.944 c 0.392,0.023 0.636,0.042 0.943,0.175 0.17,0.073 0.366,0.238 0.269,0.435 -0.057,0.121 -0.266,0.163 -0.388,0.155 -0.411,-0.029 -0.707,-0.331 -0.848,-0.736 -0.005,-0.015 -0.003,-0.03 0.024,-0.029 m 1.72,1.017 c 0.229,-0.288 0.333,-0.625 0.357,-0.993 0.026,-0.373 -0.092,-0.731 -0.3,-1.016 -0.355,-0.484 -0.949,-0.722 -1.544,-0.768 -0.082,-0.006 -0.569,-0.019 -0.693,0.018 -0.023,0.008 -0.037,0.017 -0.049,0.016 -0.014,-0.002 -0.096,-0.338 -0.111,-0.457 -0.053,-0.411 -0.118,-0.701 -0.166,-1.025 -0.039,-0.257 -0.067,-0.532 -0.09,-0.807 -0.135,-1.6 -0.088,-2.391 0.045,-3.956 0.008,-0.096 0.013,-0.206 0,-0.272 -0.036,-0.188 -0.151,-0.317 -0.334,-0.364 -0.552,-0.147 -1.08,0.4 -1.352,0.838 -0.631,1.021 -0.424,3.107 -0.242,4.139 0.074,0.426 0.269,1.373 0.403,1.716 0.072,0.185 0.186,0.544 0.178,0.561 -0.008,0.016 -0.297,0.127 -0.562,0.228 -0.099,0.036 -0.434,0.211 -0.576,0.3 -0.295,0.184 -0.496,0.336 -0.7,0.564 -0.062,0.071 -0.269,0.378 -0.298,0.447 -0.165,0.373 -0.175,0.699 -0.028,1.097 0.037,0.102 0.242,0.532 0.378,0.519 0.196,-0.018 0.153,-0.344 0.205,-0.512 0.017,-0.057 0.071,-0.155 0.115,-0.205 0.272,-0.321 1.184,-0.677 1.558,-0.789 0.053,-0.016 0.637,-0.195 0.724,-0.154 0.022,0.009 0.133,0.207 0.204,0.328 0.039,0.066 0.081,0.116 0.128,0.167 0.356,0.383 0.881,0.744 1.403,0.851 0.231,0.047 0.682,0.009 0.91,-0.121 0.051,-0.03 0.222,-0.096 0.437,-0.35 m -5.522,-4.537 c 0.016,-10e-4 0.042,-0.01 0.064,-0.019 0.268,-0.118 0.268,-0.595 0.203,-0.822 -0.174,-0.594 -0.736,-1.205 -1.185,-1.508 -0.267,-0.181 -0.816,-0.435 -1.208,-0.51 -0.614,-0.116 -1.156,0.045 -1.485,0.542 -0.296,0.449 -0.428,1.005 -0.452,1.526 -0.067,1.5 0.406,3.69 0.988,4.941 0.078,0.168 0.462,0.949 0.821,1.076 0.356,0.126 0.512,-0.29 0.547,-0.605 0.046,-0.399 -0.083,-0.932 -0.184,-1.362 -0.178,-0.751 -0.435,-1.929 -0.496,-2.266 -0.065,-0.357 -0.213,-1.119 -0.16,-1.511 0.028,-0.205 0.067,-0.311 0.224,-0.297 0.072,0.007 1.079,0.468 1.628,0.675 0.207,0.077 0.462,0.159 0.695,0.14 m -7.447,0.691 c 0,0 0.114,-0.003 0.233,0 0.376,0.004 1.005,0.074 1.005,0.074 0,0 -0.07,0.554 -0.128,0.909 -0.038,0.234 -0.069,0.381 -0.12,0.568 -0.024,0.085 -0.08,0.322 -0.141,0.414 -0.011,0.018 -0.026,0.039 -0.026,0.039 0,0 -0.304,-0.589 -0.474,-0.996 -0.136,-0.324 -0.204,-0.567 -0.298,-0.764 -0.023,-0.045 -0.048,-0.107 -0.051,-0.163 -0.003,-0.036 0,-0.081 0,-0.081 m -2.015,-0.064 c 0,0 0.18,0.405 0.321,0.71 0.147,0.323 0.892,1.819 1.199,2.244 0.341,0.472 0.992,1.363 0.996,1.389 0.014,0.1 0.036,0.275 0.127,0.414 0.071,0.111 0.247,0.157 0.417,0.169 0.19,0.012 0.385,-0.129 0.47,-0.284 0.164,-0.297 0.444,-1.139 0.503,-1.339 0.327,-1.12 0.679,-3.214 0.795,-4.291 0.03,-0.281 0.123,-1.753 0.131,-2.083 0.007,-0.232 0,-0.619 -0.133,-0.809 -0.05,-0.073 -0.144,-0.133 -0.235,-0.13 -0.125,0.003 -0.373,0.175 -0.482,0.278 -0.301,0.282 -0.501,0.571 -0.565,0.924 -0.056,0.308 -0.133,1.19 -0.133,1.19 l -1.313,-0.051 -0.731,-0.013 c 0,0 -0.07,-0.17 -0.126,-0.313 -0.122,-0.304 -0.232,-0.609 -0.28,-0.78 -0.095,-0.342 -0.28,-1.025 -0.323,-1.131 -0.092,-0.225 -0.174,-0.354 -0.391,-0.384 -0.241,-0.031 -0.406,-0.048 -0.58,0.047 -0.328,0.18 -0.477,0.559 -0.533,0.95 -0.098,0.669 0.173,1.207 0.45,1.999 0.117,0.334 -0.044,0.445 -0.32,0.877 -0.036,0.056 -0.073,0.115 -0.08,0.158 -0.009,0.045 0.033,0.16 0.093,0.208 0.019,0.015 0.025,0.017 0.059,0.02 L -35.229,-6.576 z m -7.497,4.324 c 0,0 -0.017,0.423 -0.052,0.659 -0.03,0.199 -0.07,0.35 -0.165,0.504 -0.104,0.167 -0.184,0.273 -0.349,0.297 -0.203,0.031 -0.314,-0.108 -0.44,-0.307 -0.168,-0.268 -0.335,-0.767 -0.433,-1.083 -0.143,-0.449 -0.203,-0.725 -0.28,-1.237 -0.126,-0.835 -0.254,-2.259 -0.117,-3.228 0.024,-0.167 0.066,-0.412 0.066,-0.412 0,0 0.202,0.227 0.349,0.385 0.063,0.07 0.363,0.517 0.389,0.565 0.052,0.091 0.191,0.327 0.21,0.376 0.029,0.051 0.245,0.515 0.283,0.623 0.073,0.207 0.178,0.527 0.26,0.782 0.189,0.589 0.156,0.807 0.279,1.458 0.014,0.077 0.026,0.617 0.013,0.618 l -0.013,0 m -1.433,-6.212 c 0,0 0.079,-0.14 0.142,-0.245 0.349,-0.583 0.908,-0.915 1.582,-0.95 0.691,-0.033 1.578,0.366 2.084,0.718 1.446,1.006 2.206,2.819 2.621,4.555 0.488,2.038 0.511,4.185 -0.072,6.157 -0.337,1.144 -0.995,2.576 -1.809,3.433 -0.243,0.255 -0.614,0.603 -0.72,0.743 -0.111,0.147 -0.137,0.27 0.03,0.367 0.178,0.104 0.567,-0.107 0.761,-0.225 0.951,-0.578 1.573,-1.152 2.135,-1.98 0.143,-0.21 0.713,-1.149 0.818,-1.346 0.639,-1.205 0.967,-2.256 1.142,-3.586 0.221,-1.695 0.08,-3.619 -0.507,-5.318 -0.256,-0.746 -0.651,-1.513 -1.064,-2.16 -0.097,-0.152 -0.697,-0.957 -0.772,-1.038 -0.206,-0.217 -0.715,-0.66 -0.954,-0.852 -1.191,-0.956 -2.48,-1.581 -3.893,-1.409 -0.777,0.095 -1.415,0.354 -2.038,0.86 -0.239,0.194 -0.642,0.605 -0.804,0.895 -0.104,0.186 -0.235,0.414 -0.252,0.417 -0.018,0.005 -0.087,-0.043 -0.163,-0.096 -0.066,-0.044 -0.345,-0.174 -0.493,-0.23 -0.97,-0.363 -2.056,-0.278 -2.946,0.301 -0.646,0.418 -1.193,1.214 -1.434,1.933 -0.357,1.068 -0.386,2.177 -0.24,3.314 0.247,1.928 0.941,3.757 1.977,5.374 0.654,1.019 1.501,2.027 2.513,2.749 0.114,0.082 0.731,0.441 0.856,0.5 0.229,0.106 0.532,0.205 0.707,0.018 0.092,-0.097 0.088,-0.176 0.021,-0.304 -0.108,-0.199 -0.382,-0.469 -0.533,-0.631 -0.132,-0.14 -0.877,-1.056 -1.031,-1.268 -0.169,-0.229 -0.926,-1.363 -1.026,-1.538 -0.956,-1.655 -1.715,-4.279 -1.642,-6.313 0.015,-0.42 0.078,-1.026 0.172,-1.42 0.128,-0.532 0.444,-1.253 0.919,-1.588 0.501,-0.355 0.965,-0.335 1.563,-0.097 0.16,0.065 0.385,0.168 0.385,0.168 0,0 -0.174,0.446 -0.288,0.781 -0.314,0.935 -0.44,2.423 -0.324,3.447 0.095,0.842 0.282,1.484 0.662,2.153 0.304,0.533 0.71,1.057 1.22,1.492 0.49,0.419 1.274,0.784 1.965,0.801 0.573,0.015 1.165,-0.234 1.467,-0.755 0.523,-0.908 0.556,-2.337 0.409,-3.281 -0.222,-1.425 -0.959,-2.763 -2.024,-3.671 -0.382,-0.325 -1.122,-0.875 -1.122,-0.875 m 45.606,5.265 c 0.028,-0.006 0.074,-0.019 0.111,-0.033 0.331,-0.126 0.468,-0.434 0.55,-0.77 0.189,-0.783 0.27,-2.515 0.301,-3.193 0.023,-0.508 0.036,-1.011 0.057,-1.512 0.018,-0.426 0.053,-0.994 -0.036,-1.391 -0.032,-0.145 -0.129,-0.312 -0.266,-0.398 -0.158,-0.099 -0.516,-0.107 -0.713,-0.066 -0.486,0.101 -0.644,0.412 -0.713,0.891 -0.165,1.148 -0.085,3.397 0.012,4.346 0.032,0.313 0.15,1.316 0.314,1.737 0.056,0.143 0.176,0.428 0.383,0.389 m -14.963,-1.72 c 0,0 -0.719,-0.052 -1.213,-0.106 -0.63,-0.067 -1.812,-0.272 -2.495,-0.517 -0.204,-0.073 -0.62,-0.247 -0.656,-0.457 -0.038,-0.219 0.096,-0.389 0.248,-0.566 0.087,-0.101 0.58,-0.576 0.718,-0.692 0.579,-0.483 1.754,-1.23 2.62,-1.591 0.297,-0.123 0.789,-0.3 0.789,-0.3 0,0 -0.037,1.402 -0.031,2.781 0.005,0.726 0.02,1.448 0.02,1.448 m 13.178,-0.557 c 0.041,-0.378 -0.055,-1.089 -0.072,-1.183 -0.03,-0.214 -0.193,-0.714 -0.221,-0.775 -0.131,-0.303 -0.261,-0.553 -0.398,-0.799 -0.236,-0.424 -0.797,-1.096 -1.129,-1.384 -1.237,-1.071 -3.152,-1.679 -4.796,-1.879 -1.115,-0.134 -2.396,-0.115 -3.577,0.105 -0.407,0.074 -1.011,0.213 -1.011,0.213 0,0 0.002,-0.244 -0.018,-0.413 -0.009,-0.077 -0.068,-0.282 -0.1,-0.349 -0.086,-0.177 -0.228,-0.269 -0.432,-0.308 -0.247,-0.047 -0.51,-0.06 -0.739,0.036 -0.375,0.159 -0.51,0.511 -0.575,0.914 -0.054,0.325 -0.109,0.888 -0.109,0.888 0,0 -0.281,0.135 -0.515,0.25 -0.72,0.356 -1.403,0.784 -2,1.226 -0.166,0.123 -0.877,0.719 -1.034,0.869 -0.441,0.415 -0.837,0.834 -1.138,1.367 -0.235,0.417 -0.302,0.787 -0.124,1.228 0.246,0.615 1.129,1.079 1.733,1.344 0.444,0.195 1.822,0.646 2.395,0.729 0.27,0.039 0.689,0.114 0.716,0.131 0.01,0.008 0.018,0.015 0.025,0.024 0.013,0.018 0.036,0.628 0.032,0.851 -0.006,0.219 0.161,1.658 0.216,1.964 0.028,0.163 0.152,0.797 0.281,0.965 0.082,0.112 0.229,0.103 0.35,0.028 0.656,-0.407 0.857,-1.825 0.905,-2.546 0.029,-0.438 0.044,-1.1 0.044,-1.1 0,0 0.753,0.023 1.217,0.01 0.45,-0.012 0.947,-0.083 1.415,-0.157 0.598,-0.096 1.765,-0.35 2.434,-0.69 0.552,-0.279 1.067,-0.749 1.234,-1.248 0.155,-0.457 0.133,-0.773 -0.104,-1.186 -0.266,-0.463 -0.769,-0.811 -1.279,-0.839 -0.151,-0.008 -0.723,0.066 -0.899,0.203 -0.069,0.055 -0.065,0.152 -0.015,0.218 0.018,0.026 0.285,0.165 0.443,0.249 0.079,0.043 0.144,0.089 0.206,0.145 0.131,0.117 0.249,0.242 0.236,0.391 -0.018,0.194 -0.222,0.312 -0.418,0.39 -0.913,0.362 -2.738,0.665 -3.62,0.716 -0.345,0.021 -0.835,0.037 -0.835,0.037 l 0.102,-4.868 c 0,0 0.407,-0.078 0.727,-0.13 0.183,-0.028 0.961,-0.096 1.168,-0.102 1.572,-0.043 3.329,0.098 4.773,0.781 0.633,0.297 1.215,0.669 1.655,1.172 0.581,0.665 0.885,1.575 0.805,2.527 -0.089,1.039 -0.821,2.271 -1.404,3.022 -1.542,1.984 -4.186,3.616 -6.511,4.572 -2.374,0.974 -4.722,1.537 -7.241,1.63 -0.65,0.026 -2.067,-0.009 -2.783,-0.206 -0.102,-0.028 -0.205,-0.065 -0.3,-0.086 -0.075,-0.016 -0.193,-0.066 -0.226,-0.093 -0.018,-0.015 -0.036,-0.034 -0.036,-0.034 0,0 0.044,-0.024 0.087,-0.043 0.076,-0.032 0.395,-0.053 0.561,-0.083 0.147,-0.028 0.301,-0.105 0.361,-0.215 0.058,-0.102 0.066,-0.183 -0.004,-0.269 -0.162,-0.198 -0.773,-0.164 -1.041,-0.121 -0.28,0.045 -0.628,0.13 -0.692,0.373 -0.074,0.287 0.062,0.568 0.209,0.827 0.296,0.521 0.719,0.79 1.339,0.96 0.88,0.241 1.991,0.41 2.823,0.442 1.882,0.072 3.662,-0.257 5.484,-0.811 1.044,-0.316 2.41,-0.844 3.41,-1.325 0.717,-0.348 1.847,-0.982 2.482,-1.399 0.2,-0.132 1.373,-0.994 1.556,-1.144 0.379,-0.312 0.876,-0.758 1.235,-1.115 0.697,-0.689 1.562,-1.747 1.983,-2.584 0.1,-0.201 0.179,-0.399 0.31,-0.633 0.044,-0.079 0.237,-0.556 0.268,-0.694 0.033,-0.137 0.078,-0.336 0.086,-0.345 0.009,-0.074 0.097,-0.484 0.09,-0.641 m 8.106,-0.355 c 0.036,-0.003 0.043,-0.004 0.077,-0.01 0.576,-0.078 1.14,-0.182 1.572,-0.375 0.402,-0.177 0.636,-0.4 0.851,-0.799 0.326,-0.606 0.347,-1.455 0.053,-2.095 -0.22,-0.479 -0.703,-0.88 -1.146,-1.093 -0.457,-0.222 -0.909,-0.327 -1.426,-0.385 -0.906,-0.1 -1.885,0.086 -2.699,0.481 -0.482,0.237 -1.071,0.642 -1.368,1.163 -0.218,0.383 -0.211,0.882 0.055,1.244 0.423,0.581 1.33,0.707 2.012,0.683 0.522,-0.018 1.46,-0.181 1.954,-0.356 C 7.841,-7.422 8.346,-7.62 8.435,-7.71 8.496,-7.772 8.537,-7.864 8.509,-7.949 8.396,-8.295 7.556,-8.478 7.314,-8.514 6.664,-8.612 6.327,-8.367 5.589,-8.076 5.406,-8.003 5.162,-7.925 4.974,-7.906 4.64,-7.875 4.236,-7.968 4.172,-8.334 4.139,-8.523 4.361,-8.698 4.53,-8.774 c 0.395,-0.17 0.717,-0.229 1.108,-0.237 1.151,-0.016 2.444,0.171 3.385,0.839 0.13,0.092 0.255,0.228 0.257,0.395 0,0.025 -0.031,0.206 -0.089,0.225 -0.009,0.004 -0.017,-0.001 -0.026,0.002 -0.021,0.005 -0.056,0.065 -0.088,0.103 -0.067,0.083 -0.34,0.201 -0.392,0.223 -0.635,0.265 -1.808,0.393 -2.412,0.443 -0.634,0.054 -1.63,0.139 -1.87,0.172 -0.246,0.036 -0.513,0.086 -0.728,0.181 -0.213,0.097 -0.423,0.313 -0.485,0.553 -0.111,0.432 0.03,0.963 0.271,1.308 0.628,0.905 2.101,1.25 3.203,1.386 1.066,0.131 2.789,0.13 3.835,-0.426 0.161,-0.085 0.245,-0.167 0.21,-0.339 C 10.642,-4.27 10.398,-4.48 10.102,-4.573 9.793,-4.669 9.151,-4.709 8.87,-4.725 7.607,-4.797 6.082,-4.76 4.881,-5.088 4.787,-5.115 4.624,-5.159 4.571,-5.217 4.383,-5.422 4.92,-5.48 5.036,-5.505 5.07,-5.511 5.077,-5.513 5.112,-5.517 L 7.768,-5.831 z m 3.938,-4.719 c -0.511,0.186 -0.625,1.009 -0.648,1.424 -0.08,1.355 0.278,3.241 0.731,4.51 0.13,0.364 0.319,0.953 0.722,0.92 0.279,-0.025 0.477,-0.24 0.633,-0.46 0.4,-0.562 0.924,-1.327 1.273,-1.858 0.39,-0.596 0.762,-1.195 1.13,-1.738 0.044,-0.065 0.088,-0.129 0.138,-0.17 0.065,-0.054 0.127,-0.057 0.152,-0.007 0.013,0.021 -0.01,0.704 -0.028,0.843 -0.028,0.216 -0.042,0.394 -0.065,0.583 -0.07,0.547 -0.244,1.318 -0.38,1.839 -0.151,0.583 -0.336,1.19 -0.473,1.755 -0.043,0.182 -0.084,0.368 -0.083,0.542 0,0.253 0.162,0.392 0.426,0.297 0.517,-0.182 1.204,-1.306 1.405,-1.697 0.067,-0.132 0.337,-0.803 0.399,-0.991 0.213,-0.644 0.344,-1.256 0.403,-1.957 0.058,-0.682 0.01,-1.678 -0.279,-2.35 -0.106,-0.249 -0.323,-0.582 -0.505,-0.749 -0.283,-0.262 -0.848,-0.469 -1.238,-0.247 -0.426,0.242 -1.126,1.455 -1.246,1.664 -0.407,0.71 -1.105,2.096 -1.213,2.252 -0.026,0.036 -0.056,0.068 -0.109,0.084 -0.041,0.013 -0.058,-0.072 -0.069,-0.129 -0.069,-0.404 -0.118,-2.295 -0.119,-2.346 -0.01,-0.318 -0.027,-1.1 -0.119,-1.482 -0.06,-0.253 -0.119,-0.458 -0.351,-0.564 -0.164,-0.074 -0.288,-0.042 -0.487,0.032 m 7.024,0.119 c -0.054,0.043 -0.144,0.135 -0.21,0.206 -0.009,0.01 -0.193,0.287 -0.23,0.37 -0.031,0.072 -0.055,0.125 -0.078,0.186 -0.167,0.432 -0.163,0.856 -0.071,1.317 0.087,0.432 0.168,0.45 0.389,1.044 0.013,0.033 0.022,0.06 0.026,0.096 0.009,0.08 -0.124,0.627 -0.13,0.803 -0.009,0.268 0.198,0.457 0.546,0.495 0.033,0.003 0.057,10e-4 0.079,0.008 0.14,0.034 0.227,0.3 0.304,0.515 0.105,0.299 0.271,0.756 0.271,0.756 0,0 -0.441,0.101 -0.675,0.189 -0.263,0.1 -0.461,0.228 -0.581,0.469 -0.141,0.282 -0.048,0.439 0.245,0.531 0.109,0.034 0.964,0.198 1.233,0.237 0.337,0.048 0.652,0.091 0.973,0.13 0.279,0.035 1.555,0.182 1.962,0.171 0.619,-0.017 1.021,-0.272 1.384,-0.796 0.195,-0.281 0.328,-0.615 0.034,-0.795 C 23.748,-4.773 22.287,-4.792 22.018,-4.795 21.591,-4.801 21,-4.793 21,-4.793 l -0.297,-0.994 c 0,0 1.048,0.009 1.637,0.012 0.142,0 0.286,-0.006 0.366,-0.024 0.301,-0.068 0.405,-0.298 0.418,-0.632 0.015,-0.389 -0.058,-0.569 -0.368,-0.621 -0.16,-0.025 -1.961,-0.034 -2.206,-0.063 -0.152,-0.018 -0.312,-0.042 -0.312,-0.042 0,0 -0.13,-0.339 -0.242,-0.682 -0.116,-0.358 -0.213,-0.72 -0.213,-0.72 0,0 0.091,-0.005 0.167,-0.005 0.127,0 0.254,0.017 0.356,0.035 0.549,0.1 1.365,0.221 2.035,0.328 0.36,0.056 0.542,0.083 0.73,-0.157 0.165,-0.212 0.251,-0.388 0.262,-0.642 0.01,-0.24 -0.172,-0.4 -0.397,-0.571 -0.708,-0.542 -1.919,-1.13 -2.821,-1.23 -0.417,-0.047 -0.518,-10e-4 -0.882,0.095 -0.069,0.018 -0.322,0.135 -0.32,0.148 0,0 -0.137,0.093 -0.183,0.127 m 11.381,5.003 C 29.646,-5.816 29.047,-6.61 28.76,-7.02 28.38,-7.565 28.019,-8.19 27.676,-8.675 27.6,-8.783 27.379,-9.172 27.386,-9.186 c 0.016,-0.027 0.239,-0.018 0.468,0.021 0.49,0.083 1.154,0.425 1.509,0.709 0.541,0.433 0.919,1.028 1.095,1.726 0.08,0.316 0.12,0.98 -0.105,1.274 -0.044,0.059 -0.156,0.102 -0.242,0.028 m -3.686,-5.69 c 0,0 -0.147,-0.432 -0.254,-0.77 -0.187,-0.585 -0.595,-2.156 -0.692,-2.646 -0.142,-0.725 -0.546,-2.623 -0.569,-2.666 -0.027,-0.054 -0.046,-0.072 -0.116,-0.115 -0.167,-0.099 -0.233,-0.066 -0.436,0.041 -0.262,0.139 -0.494,0.281 -0.693,0.54 -0.395,0.515 -0.3,1.483 -0.222,2.052 0.271,1.988 0.545,2.865 1.303,4.843 0.013,0.032 0.012,0.04 -0.002,0.071 -0.237,0.502 -0.364,1.109 -0.364,1.599 0.002,1.551 0.894,3.087 1.892,4.318 0.076,0.096 0.567,0.683 0.791,0.671 0.222,-0.01 0.259,-0.272 0.225,-0.489 -0.112,-0.718 -0.617,-1.446 -0.961,-2.05 -0.388,-0.675 -0.471,-0.955 -0.661,-1.574 -0.03,-0.097 -0.107,-0.547 -0.103,-0.607 0.008,-0.165 0.043,-0.375 0.043,-0.375 0,0 0.632,0.882 1.047,1.427 0.228,0.298 0.391,0.496 0.58,0.71 0.192,0.218 0.931,0.985 1.145,1.188 0.446,0.427 0.645,0.604 1.129,0.855 0.383,0.198 0.726,0.247 1.101,0 0.592,-0.39 0.85,-1.212 0.917,-1.879 0.078,-0.8 -0.085,-1.697 -0.437,-2.38 -0.417,-0.812 -0.988,-1.4 -1.763,-1.914 -0.793,-0.525 -1.722,-0.883 -2.633,-0.861 -0.122,0.003 -0.267,0.011 -0.267,0.011"
               id="path470"
               style="fill:#141006;fill-opacity:1;fill-rule:nonzero;stroke:none" />
          </g>
          <g
             transform="translate(445.7092,454.5182)"
             id="g472">
            <path
               d="M 0,0 C -0.225,0.73 -0.579,1.417 -1.042,2.011 -1.506,2.6 -2.085,3.101 -2.751,3.417 -3.411,3.734 -4.176,3.84 -4.863,3.653 -5.559,3.484 -6.113,2.99 -6.458,2.44 -6.651,2.138 -6.792,1.816 -6.898,1.491 -7.077,1.027 -7.225,0.425 -7.318,-0.172 -7.446,-0.93 -7.534,-1.695 -7.671,-2.193 c -0.017,-0.044 -0.031,-0.085 -0.048,-0.126 -0.114,0.082 -0.234,0.15 -0.356,0.203 -0.234,0.098 -0.469,0.143 -0.69,0.148 -0.047,0.003 -0.092,0.003 -0.139,0 -0.086,0 -0.173,-0.011 -0.257,-0.029 -0.752,0.858 -1.547,1.651 -2.232,2.255 0.48,0.274 0.841,0.662 1.063,0.949 0.196,0.205 0.304,0.355 0.308,0.355 0.011,0.018 0.013,0.039 0.005,0.057 -0.075,0.177 -0.135,0.342 -0.186,0.5 -0.099,0.437 -0.209,1.093 -0.165,1.745 0.297,0.429 0.609,0.981 0.796,1.604 0.118,0.357 0.187,0.715 0.226,1.055 0.098,0.578 0.131,1.199 0.072,1.814 0.167,-0.036 0.337,-0.057 0.511,-0.059 0.062,-0.065 0.13,-0.122 0.202,-0.175 0.356,-0.255 0.768,-0.346 1.158,-0.329 0.378,0.004 0.764,0.111 1.094,0.333 0.372,0.245 0.646,0.642 0.767,1.071 0.305,-0.037 0.673,0.019 0.971,0.263 0.244,0.197 0.376,0.487 0.43,0.79 0.052,0.043 0.099,0.082 0.145,0.126 0.061,0.06 0.117,0.125 0.167,0.19 0.101,0.125 0.188,0.27 0.25,0.435 0.157,0.399 0.186,0.891 0.058,1.376 0.007,0.006 0.013,0.011 0.017,0.02 0.156,0.34 0.26,0.672 0.314,0.994 0.013,0.068 0.027,0.139 0.039,0.213 0.053,0.373 0.045,0.843 -0.168,1.293 -0.204,0.45 -0.669,0.823 -1.181,0.929 -1.006,0.218 -1.996,0.082 -2.739,0.056 -0.098,-0.008 -0.193,-0.012 -0.283,-0.018 -0.24,0 -0.476,0 -0.708,0.007 -0.296,0.156 -0.609,0.284 -0.944,0.373 -0.614,0.176 -1.27,-0.028 -1.779,-0.312 -0.097,-0.05 -0.19,-0.108 -0.28,-0.166 -0.289,0.01 -0.539,0.031 -0.761,0.066 0.124,0.06 0.241,0.125 0.347,0.195 0.267,0.136 0.592,0.346 0.869,0.64 0.149,0.046 0.299,0.094 0.445,0.151 1.206,0.419 2.286,1.422 2.529,2.655 0.109,0.498 0.098,1.007 -0.025,1.468 0.383,0.322 0.703,0.841 0.83,1.589 0.22,1.308 -0.741,2.141 -1.54,2.112 -0.801,-0.026 -1.284,-0.89 -1.34,-2.035 -0.002,-0.05 -0.006,-0.121 -0.011,-0.204 -0.117,-0.009 -0.231,-0.024 -0.342,-0.045 -0.036,0.802 -0.252,1.739 -0.783,2.625 -0.552,0.94 -1.457,1.804 -2.604,2.355 -0.93,0.455 -2.013,0.704 -3.123,0.685 0.977,0.962 1.412,2.291 1.019,3.531 -0.593,1.866 -2.853,2.815 -5.046,2.118 -2.193,-0.696 -3.49,-2.776 -2.895,-4.645 0.41,-1.293 1.616,-2.143 3.046,-2.317 -0.216,-0.163 -0.425,-0.34 -0.62,-0.532 -0.833,-0.807 -1.423,-1.858 -1.692,-2.967 -0.712,1.509 -2.161,2.46 -3.676,2.25 -1.943,-0.269 -3.261,-2.336 -2.945,-4.615 0.315,-2.278 2.144,-3.91 4.086,-3.642 1.272,0.176 2.276,1.124 2.729,2.397 0.119,-0.341 0.265,-0.663 0.433,-0.965 1.15,-2.1 3.125,-3.209 4.7,-3.589 -0.213,-0.029 -0.469,-0.043 -0.841,-0.111 -0.121,-0.015 -0.251,-0.036 -0.387,-0.06 -0.964,-0.168 -2.231,-0.549 -3.38,-1.166 -0.829,-0.452 -1.603,-1 -2.206,-1.564 -0.659,0.121 -1.382,-0.06 -1.847,-0.501 -0.015,-0.015 -0.028,-0.029 -0.042,-0.043 -0.07,0.003 -0.14,0.003 -0.208,0.002 -0.431,0 -0.946,-0.07 -1.474,-0.28 -0.687,-0.256 -1.36,-0.762 -1.865,-1.398 -0.506,-0.633 -0.849,-1.42 -0.883,-2.167 -0.03,-0.557 0.09,-1.102 0.349,-1.453 0.074,-0.107 0.158,-0.196 0.251,-0.261 -0.002,-0.015 -0.003,-0.029 -0.007,-0.044 -0.036,-0.364 -0.093,-0.826 0.135,-1.287 0.26,-0.464 0.767,-0.637 1.239,-0.757 0.007,-0.264 0.052,-0.547 0.203,-0.823 0.272,-0.482 0.847,-0.727 1.383,-0.787 0.488,-0.051 0.974,0.038 1.398,0.21 0.405,0.146 0.791,0.382 1.101,0.716 0.311,0.331 0.513,0.775 0.563,1.233 0.345,-0.049 0.825,-0.076 1.285,0.181 0.531,0.269 0.894,0.888 0.988,1.509 0.201,1.169 -0.252,2.352 -0.8,2.885 0.321,0.337 0.544,0.802 0.548,1.295 0.359,0.246 0.726,0.5 1.11,0.71 0.151,0.09 0.303,0.172 0.457,0.249 0.149,0.072 0.301,0.139 0.454,0.199 1.073,0.467 2.305,0.559 2.994,0.609 0,-0.001 0.001,-0.004 0.001,-0.007 0.002,-0.003 0.054,-0.168 0.105,-0.448 0.113,-0.691 0.131,-1.56 -0.118,-2.454 -0.287,-1.092 -1.325,-2.059 -1.518,-3.419 -0.053,-0.261 -0.077,-0.522 -0.083,-0.781 -0.868,-0.805 -1.947,-1.423 -3.026,-1.914 -1.184,-0.534 -2.385,-0.988 -3.559,-1.417 -2.346,-0.849 -4.693,-1.628 -6.362,-2.803 -0.828,-0.573 -1.541,-1.262 -1.811,-2.074 -0.132,-0.404 -0.112,-0.833 0.052,-1.165 0.157,-0.338 0.439,-0.559 0.715,-0.675 0.562,-0.231 1.05,-0.159 1.355,-0.123 0.313,0.05 0.473,0.102 0.473,0.1 0,0.006 -0.163,-0.039 -0.474,-0.072 -0.307,-0.026 -0.793,-0.074 -1.323,0.166 -0.537,0.207 -0.954,0.96 -0.657,1.722 0.273,0.751 0.972,1.391 1.798,1.935 1.661,1.104 3.832,1.879 6.192,2.692 1.182,0.412 2.393,0.838 3.602,1.374 0.996,0.445 2.186,0.858 3.053,1.581 0.084,-0.818 0.331,-1.6 0.585,-2.281 0.123,-0.331 0.234,-0.655 0.328,-0.966 -0.435,-0.394 -0.935,-0.664 -1.416,-0.85 -0.079,0.072 -0.162,0.142 -0.246,0.202 -0.17,0.132 -0.365,0.254 -0.593,0.348 -0.208,0.092 -0.453,0.149 -0.71,0.158 -0.322,0.112 -0.653,0.175 -0.985,0.194 -0.09,0.006 -0.186,0.012 -0.286,0.012 -0.865,-0.034 -1.959,-0.528 -2.755,-1.34 -0.385,-0.388 -0.685,-0.842 -0.91,-1.298 -0.504,-0.941 -0.754,-2.062 -0.778,-3.184 0.011,-1.178 0.395,-2.352 1.111,-3.221 0.787,-0.787 1.771,-1.109 2.6,-1.314 0.734,-0.206 1.613,-0.343 2.558,-0.355 0.959,-0.03 2.005,0.144 2.943,0.569 0.58,0.263 1.135,0.617 1.586,1.059 0.291,0.275 0.552,0.597 0.756,0.972 0.357,0.648 0.359,1.488 0.014,2.095 -0.059,0.112 -0.127,0.214 -0.201,0.308 -0.181,0.264 -0.435,0.512 -0.731,0.689 -0.556,0.338 -1.164,0.464 -1.603,0.511 -0.006,0 -0.013,0 -0.02,0.004 l -0.049,0.008 -0.002,0 c -0.064,0.096 -0.132,0.191 -0.201,0.287 -0.013,0.024 -0.026,0.048 -0.04,0.072 -0.069,0.121 -0.155,0.258 -0.252,0.402 -0.048,0.069 -0.099,0.137 -0.15,0.208 l -0.005,0.02 -0.016,0.071 c 0,0 -0.029,0.145 -0.026,0.145 0.575,0.162 1.097,0.378 1.508,0.586 0.091,0.046 0.176,0.091 0.257,0.136 0.259,0.127 0.499,0.263 0.713,0.406 0.393,0.004 0.82,0.04 1.247,0.135 0.807,-0.774 1.99,-1.965 3.061,-3.245 0.154,-0.177 0.3,-0.347 0.443,-0.516 0,-0.016 0,-0.026 0,-0.038 0.005,-0.101 0.013,-0.201 0.025,-0.299 0.057,-0.595 0.291,-1.315 0.929,-1.837 0.063,-0.052 0.129,-0.095 0.196,-0.141 -10e-4,-0.086 -10e-4,-0.169 -10e-4,-0.252 -0.005,-0.427 0.055,-0.952 0.334,-1.465 0.176,-0.327 0.447,-0.629 0.792,-0.842 0.343,-0.225 0.765,-0.317 1.159,-0.352 0.871,-0.071 1.688,0.144 2.374,0.444 0.153,0.062 0.303,0.129 0.45,0.2 1.234,0.61 2.379,1.559 3.254,2.764 0.867,1.207 1.477,2.654 1.662,4.17 C 0.34,-1.515 0.23,-0.722 0,0"
               id="path474"
               style="fill:#141006;fill-opacity:1;fill-rule:nonzero;stroke:none" />
          </g>
          <g
             transform="translate(421.6563,459.1649)"
             id="g476">
            <path
               d="m 0,0 0.001,0.035 c 0.012,0.012 0.025,0.025 0.037,0.039 0.345,0.372 0.626,0.84 0.75,1.249 0.068,0.206 0.081,0.376 0.078,0.485 0.003,0.062 0,0.204 -0.055,0.23 C 0.805,2.041 0.8,2.048 0.786,2.044 0.78,2.045 0.773,2.045 0.766,2.041 0.764,2.041 0.762,2.038 0.762,2.038 0.752,2.032 0.748,2.024 0.744,2.023 0.744,2.021 0.742,2.02 0.741,2.018 0.735,2.006 0.734,1.995 0.732,1.976 0.708,1.787 0.647,1.603 0.55,1.422 0.392,1.106 0.101,0.711 -0.245,0.34 -0.379,0.192 -0.523,0.054 -0.661,-0.082 l -0.003,-0.004 c -0.189,-0.181 -0.402,-0.39 -0.554,-0.586 -0.208,-0.266 -0.115,-0.487 -0.091,-0.435 0.05,0.108 0.105,0.184 0.197,0.266 0.103,0.093 0.313,0.19 0.449,0.297 0.078,0.062 0.145,0.118 0.216,0.174 -0.146,-0.571 -0.592,-1.097 -1.206,-1.39 -0.465,-0.199 -0.979,-0.279 -1.442,-0.228 -0.531,0.056 -0.968,0.283 -1.169,0.606 -0.22,0.349 -0.228,0.797 -0.235,1.157 L -4.5,-0.168 c 0.034,0.724 -0.095,1.277 -0.164,1.342 -0.004,0.009 -0.011,0.018 -0.027,0.018 -0.003,0.001 -0.004,0.004 -0.008,0.004 -0.004,0 -0.007,-0.004 -0.01,-0.003 l -0.001,0 c 0.003,-0.001 0.004,0.003 0.006,0.003 l -0.007,0 c -0.003,0 -0.003,-0.004 -0.005,-0.004 l -10e-4,0 C -4.72,1.19 -4.721,1.189 -4.724,1.187 l -0.002,0 C -4.73,1.186 -4.734,1.184 -4.738,1.183 l 0,-0.002 c 0.004,0.003 0.01,0.006 0.016,0.006 l 0.002,0 c -0.01,0 -0.015,-0.007 -0.022,-0.013 l -0.001,-0.002 -0.004,0 0,-0.003 0,0.003 0,0 c -0.005,-0.004 -0.005,-0.01 -0.008,-0.018 0,0 -0.003,0 -0.003,-10e-4 l 0,-0.003 c 0,0 0.002,0 0.002,0.001 0,0 0.001,0 0.001,-0.001 l 0,0.001 c 0,-0.001 0.001,0 0.001,-0.001 l 0,0 0.002,0 c 0,-0.005 -0.002,-0.006 -0.002,-0.008 0,0.002 -0.004,0 -0.004,0.003 0,0 0.001,0 0.001,0.003 0,-0.003 -0.001,-0.003 -0.001,-0.003 l 0,-0.009 c 0,-0.003 0,-0.006 0,-0.008 0,-0.007 0.002,-0.013 0.004,-0.021 0,-10e-4 0.002,-0.004 0.002,-0.004 0.003,-0.017 0.009,-0.038 0.015,-0.067 0.007,-0.047 0.07,-0.486 -0.018,-1.193 0.001,0.009 0.005,0.018 0.012,0.023 -0.012,-0.009 -0.012,-0.009 -0.019,-0.12 0,0 -0.003,-0.056 -0.005,-0.099 -0.49,0.132 -0.8,0.309 -0.936,0.54 -0.206,0.36 -0.194,0.825 -0.187,1.135 0.075,1.016 0.077,1.196 0.049,1.249 l 0,0 c -0.004,0.008 -0.007,0.005 -0.011,0.008 -0.002,0.006 -0.002,0.01 -0.007,0.015 -0.001,0 -0.005,0.003 -0.008,0.004 l -0.003,0 c -0.002,0 -0.003,0.002 -0.004,0.002 l 10e-4,0 c 0,0 -0.004,0 -0.004,10e-4 0,-10e-4 0,-10e-4 0,-10e-4 0,0 -0.001,0 -0.001,10e-4 l 0.001,0 c -0.004,0.002 -0.007,0.005 -0.016,0.005 0.002,0 0.002,-0.003 0.004,-0.003 -0.004,0 -0.006,0 -0.01,10e-4 -0.029,-10e-4 -0.053,-0.022 -0.054,-0.051 0,-0.014 0.002,-0.026 0.008,-0.035 C -5.947,2.521 -5.948,2.524 -5.95,2.529 -5.945,2.496 -5.987,2.255 -6.027,2.023 L -6.035,1.982 -6.096,1.631 c -0.035,0.037 -0.07,0.074 -0.101,0.12 -0.191,0.315 -0.274,0.809 -0.22,1.322 0.066,0.652 0.376,1.358 0.876,1.981 0.48,0.605 1.087,1.087 1.711,1.359 0.523,0.237 1.006,0.315 1.348,0.341 -0.302,-0.397 -0.452,-0.909 -0.381,-1.36 0.015,-0.121 0.043,-0.241 0.082,-0.364 0.255,-0.864 1.042,-1.417 2.053,-1.436 0.106,-0.008 0.218,-0.006 0.343,0 0.404,0.024 0.997,0.134 1.53,0.522 0.053,0.035 0.11,0.085 0.173,0.138 C 1.532,3.98 1.712,3.588 1.82,3.136 1.945,2.618 1.967,2.083 1.882,1.586 1.786,0.992 1.487,0.492 1.083,0.252 0.713,0.015 0.316,-0.009 0,0"
               id="path478"
               style="fill:#ffffff;fill-opacity:1;fill-rule:nonzero;stroke:none" />
          </g>
          <g
             transform="translate(420.9156,466.3432)"
             id="g480">
            <path
               d="m 0,0 c -0.1,-0.104 -0.196,-0.208 -0.276,-0.31 -0.098,-0.133 -0.175,-0.273 -0.233,-0.42 -0.206,-0.444 -0.189,-0.858 0.051,-1.226 0.169,-0.26 0.593,-0.508 1.155,-0.478 0.105,0 0.209,0.013 0.308,0.031 0.454,0.09 0.889,0.344 1.299,0.61 C 2.213,-2.174 1.992,-2.544 1.676,-2.789 1.223,-3.148 0.695,-3.281 0.332,-3.329 0.216,-3.343 0.092,-3.352 -0.037,-3.352 c -0.861,0.035 -1.52,0.486 -1.759,1.207 -0.039,0.124 -0.063,0.255 -0.071,0.388 -0.042,0.482 0.189,1.006 0.587,1.34 C -0.949,-0.131 -0.486,0.015 0,0"
               id="path482"
               style="fill:#ffffff;fill-opacity:1;fill-rule:nonzero;stroke:none" />
          </g>
          <g
             transform="translate(427.696,451.1254)"
             id="g484">
            <path
               d="M 0,0 C 0.005,0 0.032,-0.008 0.084,-0.018 0.38,-0.083 1.28,-0.276 2.04,-0.751 2.304,-0.908 2.54,-1.106 2.726,-1.323 2.79,-1.415 2.846,-1.509 2.887,-1.594 3.168,-2.147 3.148,-2.841 2.837,-3.408 2.657,-3.743 2.412,-4.06 2.11,-4.351 1.713,-4.713 1.209,-5.038 0.654,-5.287 -1.137,-6.112 -3.224,-5.92 -4.659,-5.612 c -0.7,0.198 -1.716,0.553 -2.434,1.314 -0.619,0.78 -0.993,1.911 -1,3.028 0.026,1.122 0.265,2.167 0.693,3.021 0.257,0.477 0.561,0.89 0.901,1.228 0.718,0.737 1.71,1.276 2.531,1.373 0.121,0.011 0.239,0.012 0.351,0.008 C -3.539,4.355 -3.438,4.334 -3.346,4.319 -3.363,4.314 -3.381,4.313 -3.398,4.305 -3.924,4.153 -4.383,3.764 -4.624,3.27 -4.88,2.769 -4.941,2.159 -4.791,1.594 c 0.145,-0.561 0.504,-1.056 0.984,-1.363 0.542,-0.347 1.13,-0.42 1.528,-0.42 0.502,0 1.002,0.18 1.338,0.485 0.173,0.153 0.315,0.337 0.423,0.547 0.031,0.053 0.056,0.118 0.083,0.18 l 0.002,-0.009 0.087,-0.186 c -0.002,0.001 0.045,-0.05 0.045,-0.05 0,-0.003 0.094,-0.103 0.094,-0.103 L -0.008,0.464 0.127,0.316 0.181,0.26 C 0.18,0.26 0.206,0.231 0.205,0.233 0.234,0.193 0.258,0.157 0.284,0.119 0.206,0.122 0.113,0.125 0.006,0.119 -0.119,0.109 -0.096,0.029 0,0"
               id="path486"
               style="fill:#ffffff;fill-opacity:1;fill-rule:nonzero;stroke:none" />
          </g>
          <g
             transform="translate(426.1673,454.8415)"
             id="g488">
            <path
               d="M 0,0 C 0.047,-0.033 0.086,-0.068 0.128,-0.101 -0.127,-0.189 -0.396,-0.266 -0.68,-0.328 -0.84,-0.347 -1.013,-0.369 -1.181,-0.385 -1.26,-0.393 -1.336,-0.403 -1.41,-0.412 c 0.047,0.084 0.097,0.148 0.118,0.169 0.003,0.001 0.003,0.004 0.005,0.004 0.002,0.005 0.003,0.006 0.006,0.009 0.004,0.006 0.008,0.011 0.011,0.017 -0.004,-0.008 -0.01,-0.012 -0.016,-0.015 0.01,0.004 0.022,0.015 0.022,0.041 l 0,0.004 0,0.006 c -0.002,0.011 -0.011,0.014 -0.017,0.021 -0.003,0.006 -0.003,0.013 -0.007,0.016 -10e-4,0.001 -0.004,0 -0.006,0 -10e-4,0.001 -10e-4,0.003 -0.003,0.004 0.002,-0.001 10e-4,-0.003 0.002,-0.004 -0.011,0.007 -0.023,0.006 -0.035,0 0,0 -10e-4,0.001 -0.002,0.001 0,0 0,0.002 0.001,0.002 0.01,0.007 0.023,0.007 0.034,0.001 0,0.002 0,0.002 -0.001,0.002 l 0.001,-0.002 c -0.005,0.003 -0.012,0.006 -0.022,0.006 -0.007,0 -0.011,0 -0.02,-0.003 -0.001,0 -0.003,-0.001 -0.004,-0.001 l -0.001,0 c -10e-4,0 -0.003,-0.002 -0.006,-0.003 0,0 0,-0.002 -0.002,-0.002 0,0.002 0,0.002 0,0.002 l 0,-0.002 -10e-4,0 c -0.001,0 0,0 -0.001,-0.001 -0.083,-0.035 -0.298,-0.182 -0.406,-0.508 -0.124,-0.346 -0.126,-0.914 0.15,-1.403 0.096,-0.191 0.248,-0.346 0.452,-0.463 0.073,-0.051 0.157,-0.096 0.249,-0.137 0.485,-0.174 0.995,-0.11 1.405,-0.057 l 0.005,0 c 0.136,0.024 0.255,0.046 0.371,0.07 C 0.863,-2.656 0.855,-2.675 0.846,-2.693 0.735,-2.9 0.59,-3.077 0.414,-3.215 0.113,-3.465 -0.31,-3.597 -0.744,-3.577 c -0.352,0.014 -0.868,0.092 -1.329,0.402 -0.397,0.266 -0.694,0.687 -0.815,1.155 -0.127,0.475 -0.081,0.99 0.125,1.414 0.196,0.416 0.56,0.739 0.996,0.885 C -1.017,0.563 -0.338,0.227 0,0"
               id="path490"
               style="fill:#ffffff;fill-opacity:1;fill-rule:nonzero;stroke:none" />
          </g>
          <g
             transform="translate(434.1614,457.3325)"
             id="g492">
            <path
               d="m 0,0 c 0.001,0.001 -0.008,-0.001 -0.017,-0.008 -0.133,-0.081 -0.904,-0.48 -1.687,-0.5 -0.251,0.162 -0.506,0.31 -0.758,0.437 -0.018,0.14 -0.061,0.328 -0.167,0.461 -0.097,0.148 -0.222,0.275 -0.322,0.379 -0.193,0.183 -0.416,0.356 -0.682,0.533 -0.174,0.109 -0.351,0.21 -0.528,0.299 -0.204,0.104 -0.227,0.101 -0.242,0.101 -0.008,0 -0.016,-10e-4 -0.022,-0.006 C -4.43,1.69 -4.441,1.681 -4.445,1.665 -4.449,1.657 -4.453,1.648 -4.449,1.633 -4.446,1.612 -4.436,1.606 -4.383,1.568 L -4.358,1.55 c 0.099,-0.067 0.303,-0.207 0.553,-0.403 0.228,-0.186 0.413,-0.351 0.578,-0.523 -0.001,0.001 0,0.001 0,0.001 0.006,-0.01 0.017,-0.022 0.043,-0.052 0.129,-0.141 0.245,-0.29 0.316,-0.445 -0.005,0.002 -0.01,0.005 -0.015,0.006 L -2.937,0.16 c -0.373,0.163 -0.954,0.382 -1.596,0.499 -0.019,0.003 -0.026,0.004 -0.029,0.004 0.003,0 0.003,-0.001 0.005,-0.001 -0.002,0 -0.005,-0.002 -0.008,0 -0.065,0.003 -0.072,-0.058 -0.07,-0.065 0,0 0.002,0 0.002,-0.002 0,-0.006 0.003,-0.01 0.005,-0.015 -10e-4,0.002 -0.004,0 -0.005,0.002 0.002,-0.002 0.004,0 0.005,-0.003 0.001,-0.003 0.001,-0.006 0.004,-0.008 0.013,-0.017 0.027,-0.021 0.107,-0.044 l 0.008,-0.001 c 0.197,-0.062 0.721,-0.224 1.373,-0.553 0.437,-0.219 0.912,-0.512 1.374,-0.849 0.257,-0.186 0.498,-0.378 0.716,-0.568 0.114,-0.098 0.231,-0.206 0.348,-0.314 0.006,-0.008 0.013,-0.012 0.019,-0.02 -0.653,0.181 -1.661,-0.015 -2.58,-0.53 -0.304,-0.159 -0.594,-0.331 -0.874,-0.499 -0.535,-0.317 -1.04,-0.618 -1.453,-0.702 -0.035,-0.006 -0.075,-0.006 -0.115,-0.008 -0.002,0.079 -0.004,0.157 -0.011,0.248 -0.015,0.399 -0.088,0.867 -0.215,1.388 -0.001,0.002 -0.001,0.002 -0.001,0.003 l 0,-0.003 c 0,0.002 0,0.002 0,0.002 -0.001,0.006 -0.002,0.012 -0.002,0.013 0,-10e-4 0,-0.003 0,-0.006 l 0,0.002 0,0.001 0,0.002 c 0,0.003 0,0.006 -0.001,0.009 -0.092,0.37 -0.211,0.77 -0.353,1.19 -0.381,1.141 -0.7,2.366 -0.459,3.591 0.089,0.678 0.428,1.281 0.757,1.861 10e-4,0.003 0.005,0.012 0.005,0.012 0.274,0.487 0.558,0.991 0.692,1.535 0.033,0.137 0.059,0.282 0.081,0.427 C -5.139,6.645 -5.062,6.536 -4.964,6.45 -4.714,6.228 -4.369,6.051 -3.908,5.909 -3.15,5.681 -2.233,5.606 -1.256,5.686 -1.134,5.468 -0.931,5.283 -0.674,5.16 -0.07,4.885 0.553,5.023 0.871,5.132 1.178,5.234 1.469,5.4 1.761,5.636 1.827,5.606 1.884,5.582 1.938,5.564 2.007,4.922 1.988,4.255 1.881,3.58 1.819,3.28 1.744,3.002 1.661,2.755 1.502,2.212 1.156,1.332 0.403,0.227 0.404,0.228 0.384,0.198 0.384,0.198 0.358,0.163 0.347,0.144 0.35,0.116 0.358,0.056 0.41,0.066 0.41,0.066 0.416,0.066 0.426,0.069 0.431,0.073 0.454,0.085 0.483,0.112 0.595,0.23 0.659,0.301 0.758,0.411 0.871,0.548 0.918,0.057 1.045,-0.379 1.151,-0.657 1.205,-0.834 1.272,-1.015 1.348,-1.198 1.302,-1.257 1.217,-1.361 1.088,-1.497 0.688,-1.84 0.302,-2.107 -0.059,-2.298 l -0.091,0.079 c 0,0.154 -0.007,0.308 -0.08,0.489 -0.018,0.055 -0.079,0.132 -0.119,0.167 0.002,0 -0.091,0.084 -0.091,0.084 -0.026,0.026 -0.054,0.051 -0.082,0.073 -0.018,0.016 -0.034,0.031 -0.05,0.048 l -0.058,0.047 c -0.182,0.16 -0.394,0.323 -0.617,0.485 0.395,0.095 0.725,0.27 0.929,0.411 0.144,0.096 0.306,0.252 0.363,0.308 C 0.102,-0.051 0.14,0.064 0,0"
               id="path494"
               style="fill:#de1f2a;fill-opacity:1;fill-rule:nonzero;stroke:none" />
          </g>
          <g
             transform="translate(427.8825,470.2285)"
             id="g496">
            <path
               d="m 0,0 c 0.001,-0.003 0.016,-0.024 0.028,-0.045 l 0.029,-0.049 0.032,-0.051 c 0.055,-0.089 0.138,-0.222 0.234,-0.375 -0.527,0.136 -1.076,0.349 -1.593,0.632 -0.128,0.084 -0.238,0.163 -0.339,0.239 -0.175,0.149 -0.343,0.302 -0.496,0.457 -0.431,0.446 -0.733,0.911 -0.896,1.381 -0.212,0.584 -0.178,1.24 0.093,1.754 0.261,0.512 0.755,0.933 1.356,1.16 0.611,0.237 1.224,0.248 1.631,0.216 C 0.303,5.301 0.521,5.268 0.727,5.224 1.041,5.142 1.358,5.026 1.669,4.881 L 1.839,4.802 C 1.858,4.79 1.886,4.795 1.905,4.811 1.923,4.831 1.925,4.863 1.91,4.884 1.911,4.882 1.816,5.042 1.816,5.042 1.624,5.367 1.448,5.698 1.295,6.023 1.183,6.293 1.1,6.514 1.032,6.713 0.515,8.239 0.397,9.55 0.684,10.611 c 0.101,0.351 0.267,0.646 0.48,0.853 0.264,0.26 0.602,0.325 0.84,0.334 0.525,0.024 1.09,-0.165 1.68,-0.558 0.213,-0.145 0.412,-0.296 0.592,-0.45 0.259,-0.25 0.505,-0.522 0.73,-0.812 L 5.125,9.827 C 5.126,9.823 5.128,9.823 5.13,9.82 5.146,9.807 5.167,9.805 5.186,9.811 5.212,9.817 5.232,9.84 5.228,9.867 L 5.211,10.061 C 5.199,10.183 5.181,10.446 5.173,10.663 5.751,10.233 6.249,9.704 6.609,9.127 7.195,8.2 7.375,7.271 7.422,6.645 7.327,6.62 7.236,6.591 7.149,6.556 7.146,6.878 7.108,7.2 7.028,7.515 6.966,7.771 6.883,7.999 6.777,8.212 6.73,8.299 6.657,8.429 6.545,8.544 6.49,8.614 6.369,8.686 6.249,8.685 6.16,8.685 6.087,8.645 6.032,8.57 6.039,8.579 6.05,8.586 6.062,8.586 6.047,8.586 6.024,8.574 6.024,8.546 6.024,8.55 6.026,8.555 6.028,8.562 5.911,8.326 5.936,8.117 5.959,7.914 5.961,7.891 5.962,7.87 5.966,7.849 5.968,7.817 5.972,7.784 5.974,7.754 6.001,7.535 6.039,7.323 6.076,7.12 L 6.089,7.044 c 0,0.002 0,0.005 0,0.006 0,-0.004 0,-0.004 0.069,-0.387 C 6.207,6.387 6.247,6.177 6.287,5.991 6.082,5.792 5.962,5.622 5.916,5.558 5.903,5.542 5.862,5.465 5.894,5.441 5.906,5.434 5.926,5.423 5.966,5.444 5.982,5.45 5.996,5.461 6.029,5.494 6.106,5.57 6.342,5.804 6.715,6.027 7.026,6.219 7.447,6.334 7.872,6.352 7.87,5.465 8.122,4.938 8.627,4.792 8.979,4.692 9.404,4.769 9.777,4.991 9.844,4.609 9.835,4.203 9.74,3.81 9.624,3.278 9.332,2.769 8.895,2.337 8.481,1.928 7.956,1.601 7.379,1.396 5.896,0.84 4.163,0.831 2.739,1.37 2.133,1.591 1.596,1.941 1.143,2.416 0.702,2.876 0.45,3.334 0.307,3.656 0.568,3.693 0.83,3.715 1.109,3.716 1.23,3.722 1.181,3.799 1.181,3.799 1.149,3.864 0.82,3.928 0.782,3.935 0.584,3.971 0.281,4.003 -0.034,3.934 -0.647,3.826 -1.034,3.313 -1.048,3.271 -1.054,3.254 -1.05,3.233 -1.04,3.216 -1.038,3.213 -1.037,3.212 -1.034,3.209 -1.024,3.2 -1.008,3.192 -0.989,3.192 c 0.005,0 0.009,0.003 0.012,0.003 0.006,0.003 0.011,0.006 0.016,0.009 l 0.008,0.005 C -0.765,3.328 -0.394,3.533 0.01,3.603 0.28,3.221 0.45,2.579 0.515,1.683 0.548,1.281 0.599,0.805 0.745,0.307 c 0.167,-0.585 0.417,-1.009 0.766,-1.298 0.386,-0.326 0.963,-0.437 1.507,-0.29 0.508,0.139 0.908,0.428 1.244,0.687 0.185,0.145 0.357,0.29 0.502,0.413 0.439,0.371 0.855,0.719 1.256,0.846 0.002,0 0.002,0 0.004,0.001 C 6.184,0.687 6.311,0.713 6.44,0.739 6.318,0.631 6.195,0.526 6.052,0.422 5.916,0.335 5.767,0.257 5.614,0.187 5.601,0.181 5.585,0.171 5.575,0.157 5.576,0.157 5.577,0.159 5.578,0.16 5.392,-0.035 5.191,-0.228 4.983,-0.415 4.918,-0.467 4.851,-0.523 4.777,-0.578 4.059,-1.15 3.367,-1.5 2.72,-1.619 2.315,-1.699 1.914,-1.646 1.592,-1.471 1.268,-1.302 1.015,-1.038 0.789,-0.775 0.213,-0.057 0.118,0.05 0.085,0.079 L 0.084,0.08 C -0.012,0.181 -0.046,0.08 0,0"
               id="path498"
               style="fill:#ffffff;fill-opacity:1;fill-rule:nonzero;stroke:none" />
          </g>
          <g
             transform="translate(434.3124,477.3072)"
             id="g500">
            <path
               d="m 0,0 c -0.055,0.024 -0.113,0.023 -0.161,0.001 -0.002,0.016 -0.008,0.061 -0.008,0.061 -0.03,0.205 -0.059,0.415 -0.082,0.636 l -0.008,0.083 c -0.017,0.204 -0.039,0.443 0.036,0.586 0.016,0.02 0.033,0.027 0.057,0.026 C -0.068,1.382 0.086,1.198 0.165,1.038 0.265,0.847 0.351,0.628 0.421,0.39 0.544,-0.023 0.582,-0.379 0.594,-0.61 0.52,-0.643 0.448,-0.68 0.382,-0.719 0.279,-0.215 0.119,-0.05 0,0"
               id="path502"
               style="fill:#ffffff;fill-opacity:1;fill-rule:nonzero;stroke:none" />
          </g>
          <g
             transform="translate(431.8709,469.7889)"
             id="g504">
            <path
               d="m 0,0 c -0.293,-0.207 -0.647,-0.431 -1.051,-0.532 -0.445,-0.112 -0.912,-0.021 -1.214,0.237 -0.558,0.49 -0.748,1.262 -0.856,1.963 0.497,-0.05 0.986,-0.268 1.254,-0.567 0.167,-0.177 0.297,-0.377 0.386,-0.596 0.02,-0.044 0.027,-0.061 0.053,-0.073 0.004,-0.005 0.01,-0.005 0.015,-0.005 0.01,0 0.016,0.008 0.022,0.014 0.01,0.003 0.019,-0.001 0.026,0.003 0.008,0.009 10e-4,0.02 0.004,0.03 C -1.365,0.47 -1.37,0.468 -1.375,0.465 c 0,0.003 0,0.003 0,0.003 0.006,0.003 0.012,0.008 0.014,0.014 10e-4,0.001 0.004,0.001 0.004,0.004 0,0.003 0.006,0.003 0.006,0.006 0,0.005 -0.001,0.008 -0.002,0.014 0,0.003 0,0.005 0,0.008 C -1.385,0.707 -1.462,0.89 -1.561,1.069 -1.185,1.038 -0.391,0.923 0.01,0.447 0.147,0.279 0.064,0.097 0,0"
               id="path506"
               style="fill:#de1f2a;fill-opacity:1;fill-rule:nonzero;stroke:none" />
          </g>
          <g
             transform="translate(437.8121,468.8795)"
             id="g508">
            <path
               d="m 0,0 c -0.004,0 0.559,0.024 1.065,-0.156 0.172,-0.048 0.359,-0.128 0.557,-0.235 0.109,-0.103 0.204,-0.2 0.296,-0.295 -0.091,0.02 -0.184,0.041 -0.261,0.036 -0.175,-0.003 -0.308,-0.045 -0.359,-0.075 0,0 -0.115,-0.101 0.026,-0.107 l 0.004,0 c 0.002,0 0.012,0.003 0.015,0.003 C 1.425,-0.832 1.893,-0.888 2.237,-1.16 2.344,-1.231 2.456,-1.323 2.566,-1.427 2.651,-1.536 2.73,-1.647 2.802,-1.754 3.181,-2.412 3.4,-3.047 3.45,-3.639 3.486,-4.103 3.371,-4.491 3.136,-4.702 2.857,-4.962 2.464,-4.999 2.19,-4.944 2.104,-4.929 2.022,-4.911 1.943,-4.896 l -0.085,0.018 c 10e-4,0 -0.009,0.003 -0.009,0.003 -0.136,0.029 -0.247,0.047 -0.355,0.059 0.216,0.189 0.244,0.224 0.247,0.243 0.005,0.02 -0.003,0.044 -0.022,0.059 C 1.718,-4.512 1.716,-4.512 1.716,-4.512 1.667,-4.482 1.355,-4.509 1.134,-4.684 0.882,-4.87 0.853,-5.209 0.888,-5.26 c 0.01,-0.014 0.022,-0.023 0.036,-0.024 0.014,-0.003 0.027,0 0.039,0.006 0.012,0.006 0.024,0.015 0.028,0.029 -0.001,-0.002 -0.003,-0.006 -0.004,-0.009 0.013,0.018 0.172,0.181 0.339,0.3 0.011,0 0.023,-0.003 0.032,-0.004 0.093,-0.012 0.208,-0.052 0.34,-0.094 l 0.058,-0.018 0.102,-0.035 c 0.051,-0.016 0.104,-0.035 0.158,-0.05 -0.176,-0.58 -0.709,-1.03 -1.343,-1.121 -0.428,-0.039 -0.833,0.064 -1.142,0.289 -0.305,0.221 -0.509,0.579 -0.547,0.959 -0.036,0.239 -0.003,0.472 0.03,0.698 0.02,0.144 0.037,0.272 0.041,0.405 0.015,0.358 -0.02,0.646 -0.053,0.823 -0.018,0.104 -0.039,0.186 -0.051,0.228 -0.023,0.082 -0.033,0.105 -0.062,0.114 0,0 -0.062,0.016 -0.073,-0.082 l 0.002,-0.008 c 0.039,-0.339 0.032,-0.693 -0.019,-1.052 -0.011,-0.097 -0.035,-0.198 -0.059,-0.307 l -0.008,-0.033 -10e-4,-0.009 c -0.055,-0.237 -0.117,-0.506 -0.093,-0.807 0.007,-0.216 0.076,-0.444 0.181,-0.656 -0.485,0.079 -0.959,0.31 -1.276,0.645 -0.209,0.245 -0.336,0.52 -0.378,0.813 -0.111,0.511 -0.093,1.042 -0.079,1.514 l 0.002,0.083 c 0.004,0.148 0.008,0.288 0.006,0.418 0.02,0.473 -0.089,0.852 -0.162,0.956 -0.046,0.079 -0.131,0.052 -0.105,-0.033 0,-0.004 0,-0.007 10e-4,-0.012 0,-0.004 0.002,-0.009 0.003,-0.012 l 0.002,-0.004 c 0,0.001 0.004,-0.016 0.004,-0.016 0.004,-0.013 0.083,-0.349 0.002,-0.862 -0.006,-0.073 -0.015,-0.145 -0.025,-0.221 l -0.015,-0.125 c -0.054,-0.414 -0.126,-0.977 -0.046,-1.551 -0.426,-0.074 -0.864,0.089 -1.125,0.427 -0.31,0.369 -0.394,0.869 -0.438,1.354 -0.043,0.45 -0.015,0.897 0.086,1.332 0.117,0.459 0.317,0.876 0.592,1.24 0.322,0.431 0.745,0.792 1.226,1.042 0.595,0.312 1.103,0.401 1.552,0.272 C -0.96,1.438 -0.566,1.255 -0.157,1.006 -0.323,1.008 -0.497,0.989 -0.527,0.946 -0.541,0.924 -0.538,0.9 -0.526,0.884 -0.516,0.869 -0.5,0.863 -0.494,0.863 c -0.004,0 -0.007,0.001 -0.011,0.003 L -0.477,0.855 C -0.079,0.746 0.174,0.647 0.317,0.58 0.44,0.535 0.573,0.474 0.714,0.397 0.787,0.34 0.863,0.275 0.942,0.21 0.756,0.242 0.56,0.252 0.35,0.221 0.232,0.201 -0.034,0.139 -0.062,0.083 -0.062,0.083 -0.11,0.015 0,0"
               id="path510"
               style="fill:#ffffff;fill-opacity:1;fill-rule:nonzero;stroke:none" />
          </g>
          <g
             transform="translate(434.9481,462.7404)"
             id="g512">
            <path
               d="m 0,0 c -0.281,-0.069 -0.826,-0.153 -1.316,0.074 -0.252,0.11 -0.446,0.308 -0.502,0.518 -0.041,0.15 -0.013,0.296 0.08,0.425 0.175,0.299 0.425,0.525 0.646,0.714 0.265,-0.095 0.551,-0.118 0.809,-0.06 C -0.189,1.322 -0.002,1 0.234,0.789 0.4,0.615 0.595,0.467 0.813,0.347 0.535,0.183 0.269,0.066 0,0"
               id="path514"
               style="fill:#ffffff;fill-opacity:1;fill-rule:nonzero;stroke:none" />
          </g>
          <g
             transform="translate(430.3902,454.3113)"
             id="g516">
            <path
               d="M 0,0 C 0.118,-0.092 0.29,-0.234 0.49,-0.403 -0.149,-0.521 -0.771,-0.559 -1.225,-0.565 -0.834,-0.431 -0.412,-0.222 0,0"
               id="path518"
               style="fill:#de1f2a;fill-opacity:1;fill-rule:nonzero;stroke:none" />
          </g>
          <g
             transform="translate(441.9342,466.9399)"
             id="g520">
            <path
               d="m 0,0 c 0.171,-0.462 0.186,-0.964 0.045,-1.384 -0.056,-0.17 -0.143,-0.332 -0.261,-0.477 -0.036,-0.042 -0.068,-0.076 -0.098,-0.106 -0.003,-0.003 -0.005,-0.003 -0.005,-0.004 0.006,0.099 0.006,0.199 -0.002,0.297 -0.063,0.675 -0.332,1.352 -0.795,2.011 C -1.399,0.79 -1.766,1.243 -2.207,1.686 -1.736,1.671 -1.257,1.492 -0.85,1.175 -0.446,0.861 -0.145,0.444 0,0"
               id="path522"
               style="fill:#ffffff;fill-opacity:1;fill-rule:nonzero;stroke:none" />
          </g>
          <g
             transform="translate(438.2374,444.9909)"
             id="g524">
            <path
               d="m 0,0 c -0.725,0.026 -1.394,0.408 -1.748,0.999 -0.235,0.379 -0.363,0.83 -0.394,1.38 l 0,0.059 C -1.764,2.258 -1.345,2.192 -0.95,2.263 -0.387,2.357 0.144,2.731 0.469,3.264 1.04,4.21 1.047,5.503 0.487,6.477 0.341,6.733 0.143,6.965 -0.085,7.154 c 0.009,0.02 0.017,0.041 0.026,0.062 l 0.015,0.042 c 0.24,0.544 0.417,1.411 0.523,2.041 L 0.496,9.411 0.51,9.499 c 0.085,0.524 0.166,1.021 0.269,1.427 0.113,0.339 0.255,0.638 0.435,0.91 0.371,0.568 0.891,0.953 1.462,1.086 1.342,0.347 2.728,-0.54 3.507,-1.574 C 6.616,10.771 6.955,10.109 7.164,9.431 7.389,8.703 7.463,7.98 7.383,7.286 7.211,5.881 6.662,4.488 5.795,3.261 4.978,2.115 3.899,1.181 2.677,0.554 2.558,0.495 2.428,0.435 2.289,0.375 1.481,0.062 0.71,-0.063 0,0"
               id="path526"
               style="fill:#ffffff;fill-opacity:1;fill-rule:nonzero;stroke:none" />
          </g>
          <g
             transform="translate(435.0833,449.423)"
             id="g528">
            <path
               d="m 0,0 0.116,-0.139 0.476,-0.569 c -0.002,0.002 -0.003,0.006 -0.005,0.007 0.008,-0.014 0.023,-0.024 0.04,-0.024 -0.007,0 -0.014,0.001 -0.019,0.004 0.379,-0.216 0.834,-0.092 1.095,0.115 0.092,0.068 0.179,0.147 0.258,0.239 0.18,0.18 0.333,0.414 0.443,0.674 C 2.585,0.74 2.635,1.218 2.543,1.648 2.525,1.749 2.492,1.858 2.441,1.994 2.442,1.989 2.443,1.985 2.443,1.98 2.443,1.999 2.434,2.006 2.429,2.011 2.432,2.009 2.434,2.006 2.436,2.005 2.373,2.11 2.326,2.165 2.281,2.216 L 2.265,2.236 C 2.248,2.257 2.23,2.276 2.211,2.304 2.099,2.444 1.984,2.582 1.871,2.715 L 1.855,2.734 C 1.856,2.731 1.781,2.823 1.781,2.823 1.78,2.825 1.716,2.899 1.669,2.952 c 0.02,10e-4 0.041,0.004 0.06,0.006 0.076,0 0.14,0 0.199,-0.008 C 2.396,2.885 3.018,2.574 3.356,1.887 3.573,1.483 3.689,0.983 3.686,0.48 3.682,-0.051 3.545,-0.553 3.293,-0.965 3.021,-1.405 2.59,-1.721 2.138,-1.807 c -0.45,-0.09 -0.946,0.024 -1.329,0.31 -0.64,0.482 -0.845,1.193 -0.913,1.624 L 0,0 Z"
               id="path530"
               style="fill:#ffffff;fill-opacity:1;fill-rule:nonzero;stroke:none" />
          </g>
          <g
             transform="translate(432.0628,476.8253)"
             id="g532">
            <path
               d="M 0,0 C 0.009,-0.029 0.02,-0.054 0.031,-0.083 0.26,-0.719 0.549,-1.168 0.968,-1.056 1.33,-0.959 1.494,-0.414 1.435,0.344 1.434,0.379 1.432,0.415 1.429,0.452 1.393,0.908 1.281,1.429 1.088,1.967 0.989,2.234 0.871,2.508 0.695,2.76 0.529,2.994 0.271,3.292 -0.113,3.224 -0.316,3.172 -0.399,2.977 -0.439,2.832 -0.478,2.68 -0.489,2.526 -0.493,2.373 -0.496,2.07 -0.459,1.775 -0.411,1.497 -0.311,0.937 -0.156,0.428 0,0"
               id="path534"
               style="fill:#141006;fill-opacity:1;fill-rule:nonzero;stroke:none" />
          </g>
          <g
             transform="translate(441.3134,449.8958)"
             id="g536">
            <path
               d="m 0,0 c 0.004,-0.005 0.008,-0.006 0.011,-0.009 0,0 0,0.003 -0.002,0.003 0.005,0 0.014,-0.008 0.017,-0.008 -0.003,0 -0.007,-10e-4 -0.011,0.002 0.008,-0.006 0.016,-0.008 0.022,-0.008 l 0.001,0 0.001,0 c 0.004,0.002 0.008,0.002 0.011,0.002 -0.003,0 -0.005,0.003 -0.007,0.003 0.013,0.003 0.026,0.01 0.028,0.024 0.003,0.012 -0.002,0.027 -0.012,0.036 l -10e-4,0 C 0.004,0.094 -0.799,1.059 -1.288,2.141 -1.846,3.252 -2.209,4.465 -2.211,4.476 -2.209,4.468 -2.213,4.462 -2.218,4.456 -2.213,4.462 -2.209,4.468 -2.212,4.476 -2.215,4.49 -2.225,4.5 -2.237,4.503 -2.251,4.506 -2.264,4.5 -2.274,4.491 c 10e-4,0 0,0.002 10e-4,0.003 C -2.274,4.493 -2.274,4.491 -2.275,4.49 l -10e-4,0 C -2.28,4.485 -2.282,4.476 -2.28,4.465 -2.281,4.471 -2.278,4.476 -2.276,4.48 -2.278,4.476 -2.277,4.461 -2.278,4.453 -2.278,4.455 -2.279,4.455 -2.28,4.456 -2.278,4.452 -2.278,4.45 -2.278,4.446 -2.287,4.329 -2.223,3.926 -2.163,3.651 -2.073,3.227 -1.9,2.592 -1.597,1.988 -1.108,0.911 -0.187,0.1 0,0"
               id="path538"
               style="fill:#141006;fill-opacity:1;fill-rule:nonzero;stroke:none" />
          </g>
          <g
             transform="translate(417.7747,462.7208)"
             id="g540">
            <path
               d="m 0,0 c -0.395,-0.411 -0.625,-0.955 -0.613,-0.955 0.002,0.002 0.392,0.41 0.773,0.804 C 0.533,0.254 0.894,0.698 0.89,0.704 0.887,0.708 0.387,0.415 0,0"
               id="path542"
               style="fill:#141006;fill-opacity:1;fill-rule:nonzero;stroke:none" />
          </g>
          <g
             transform="translate(418.2472,464.2435)"
             id="g544">
            <path
               d="m 0,0 c 0.001,0.011 -0.45,-0.038 -0.83,-0.26 -0.388,-0.213 -0.647,-0.59 -0.638,-0.593 0.005,0 0.383,0.209 0.746,0.403 C -0.366,-0.242 0,-0.003 0,0"
               id="path546"
               style="fill:#141006;fill-opacity:1;fill-rule:nonzero;stroke:none" />
          </g>
          <g
             transform="translate(418.3476,460.9428)"
             id="g548">
            <path
               d="M 0,0 C 0.003,0 0.283,0.412 0.507,0.835 0.726,1.266 0.88,1.74 0.875,1.746 0.87,1.749 0.534,1.372 0.313,0.935 0.084,0.503 -0.011,0.003 0,0"
               id="path550"
               style="fill:#141006;fill-opacity:1;fill-rule:nonzero;stroke:none" />
          </g>
          <g
             transform="translate(432.704,462.1423)"
             id="g552">
            <path
               d="m 0,0 c -0.189,0.059 -0.393,0.03 -0.593,-0.079 -0.149,-0.083 -0.29,-0.208 -0.417,-0.367 -0.015,-0.018 -0.03,-0.036 -0.044,-0.053 -0.264,-0.335 -0.461,-0.802 -0.543,-1.327 -0.06,-0.506 -0.083,-1.145 0.369,-1.608 0.242,-0.226 0.638,-0.214 0.884,-0.039 0.252,0.165 0.411,0.406 0.533,0.641 0.239,0.478 0.329,0.969 0.355,1.386 0.002,0.02 0.003,0.043 0.004,0.059 C 0.59,-0.727 0.437,-0.133 0,0"
               id="path554"
               style="fill:#141006;fill-opacity:1;fill-rule:nonzero;stroke:none" />
          </g>
          <g
             transform="translate(435.1456,459.2208)"
             id="g556">
            <path
               d="M 0,0 C 0.164,0.172 0.274,0.373 0.361,0.571 0.532,0.959 0.591,1.364 0.565,1.704 0.557,2.03 0.484,2.343 0.354,2.568 0.267,2.719 0.162,2.814 0.048,2.846 -0.062,2.876 -0.177,2.854 -0.292,2.784 -0.469,2.672 -0.633,2.449 -0.763,2.157 -0.907,1.861 -1.013,1.491 -1.06,1.089 -1.084,0.876 -1.092,0.651 -1.061,0.423 -1.023,0.205 -0.978,-0.07 -0.708,-0.225 -0.411,-0.355 -0.149,-0.16 0,0"
               id="path558"
               style="fill:#141006;fill-opacity:1;fill-rule:nonzero;stroke:none" />
          </g>
          <g
             transform="translate(428.0378,450.787)"
             id="g560">
            <path
               d="m 0,0 0.002,0 c -0.148,0.074 -1.628,0.227 -3.001,-0.239 -0.757,-0.226 -1.436,-0.604 -1.872,-0.882 -0.251,-0.162 -0.446,-0.303 -0.566,-0.394 -0.225,-0.171 -0.223,-0.18 -0.22,-0.201 0.002,-0.017 0.017,-0.029 0.034,-0.03 0.005,0 0.023,0.01 0.031,0.013 -0.001,0 0,-10e-4 -0.001,-0.003 0.001,0.002 0.006,0.005 0.007,0.006 0.013,0.005 0.021,0.006 0.047,0.02 1.178,0.645 2.088,0.976 2.643,1.141 1.319,0.45 2.782,0.522 2.882,0.5 C 0.068,-0.065 0.048,-0.02 0,0"
               id="path562"
               style="fill:#141006;fill-opacity:1;fill-rule:nonzero;stroke:none" />
          </g>
          <g
             transform="translate(432.5636,479.4462)"
             id="g564">
            <path
               d="m 0,0 c 0.171,-0.237 0.293,-0.517 0.382,-0.733 0.19,-0.494 0.323,-0.997 0.38,-1.454 0.011,-0.088 0.018,-0.167 0.022,-0.239 0.022,-0.497 -0.068,-0.851 -0.233,-1.008 0.023,0.198 -0.004,0.454 -0.118,0.762 -0.139,0.374 -0.349,0.649 -0.575,0.755 -0.11,0.05 -0.219,0.057 -0.319,0.021 -0.02,-0.007 -0.037,-0.03 -0.056,-0.042 -0.073,0.291 -0.135,0.577 -0.176,0.847 -0.049,0.328 -0.069,0.596 -0.063,0.839 0.007,0.139 0.026,0.568 0.204,0.619 C -0.359,0.409 -0.134,0.196 0,0"
               id="path566"
               style="fill:#ffffff;fill-opacity:1;fill-rule:nonzero;stroke:none" />
          </g>
          <g
             transform="translate(431.6576,458.9156)"
             id="g568">
            <path
               d="m 0,0 c -0.352,0.346 -0.345,1.006 -0.309,1.37 0.056,0.482 0.212,0.928 0.44,1.257 0.001,0.001 0.002,0.001 0.003,0.003 0,0 0,10e-4 0.002,0.003 0.001,10e-4 0.004,0.006 0.008,0.011 0,10e-4 0.002,0.004 0.004,0.006 l 0,0.003 C 0.269,2.808 0.399,2.924 0.535,3 0.693,3.086 0.853,3.109 0.997,3.067 1.299,2.973 1.469,2.5 1.428,1.857 1.427,1.846 1.424,1.834 1.423,1.82 1.423,1.813 1.422,1.805 1.421,1.799 1.379,1.467 1.277,0.976 1.021,0.511 0.88,0.258 0.728,0.085 0.56,-0.02 0.375,-0.142 0.147,-0.133 0,0"
               id="path570"
               style="fill:#ffffff;fill-opacity:1;fill-rule:nonzero;stroke:none" />
          </g>
          <g
             transform="translate(435.1482,461.896)"
             id="g572">
            <path
               d="m 0,0 c 0.068,-0.018 0.139,-0.086 0.203,-0.196 0.107,-0.189 0.176,-0.481 0.188,-0.783 0,-0.331 -0.09,-0.695 -0.252,-1.022 -0.102,-0.204 -0.21,-0.365 -0.332,-0.486 -0.114,-0.12 -0.286,-0.221 -0.396,-0.166 -0.142,0.07 -0.197,0.355 -0.211,0.441 -0.029,0.185 -0.036,0.381 -0.019,0.603 0.027,0.403 0.109,0.771 0.237,1.068 0.111,0.241 0.242,0.414 0.38,0.5 C -0.132,0.003 -0.062,0.017 0,0"
               id="path574"
               style="fill:#ffffff;fill-opacity:1;fill-rule:nonzero;stroke:none" />
          </g>
        </g>
      </g>
    </g>
  </g>
</svg>
