<?xml version="1.0" encoding="UTF-8" standalone="no"?>
<!-- Generator: Adobe Illustrator 13.0.1, SVG Export Plug-In . SVG Version: 6.00 Build 14948)  -->

<svg
   xmlns:dc="http://purl.org/dc/elements/1.1/"
   xmlns:cc="http://creativecommons.org/ns#"
   xmlns:rdf="http://www.w3.org/1999/02/22-rdf-syntax-ns#"
   xmlns:svg="http://www.w3.org/2000/svg"
   xmlns="http://www.w3.org/2000/svg"
   xmlns:sodipodi="http://sodipodi.sourceforge.net/DTD/sodipodi-0.dtd"
   xmlns:inkscape="http://www.inkscape.org/namespaces/inkscape"
   version="1.1"
   id="Layer_1"
   x="0px"
   y="0px"
   width="354.64999"
   height="370.16"
   viewBox="0 0 354.65 370.16001"
   enable-background="new 0 0 70.21 73.279"
   xml:space="preserve"
   sodipodi:version="0.32"
   inkscape:version="0.48.4 r9939"
   sodipodi:docname="Warner_Bros_logo.svg"
   inkscape:output_extension="org.inkscape.output.svg.inkscape"><metadata
   id="metadata20"><rdf:RDF><cc:Work
       rdf:about=""><dc:format>image/svg+xml</dc:format><dc:type
         rdf:resource="http://purl.org/dc/dcmitype/StillImage" /></cc:Work></rdf:RDF></metadata><defs
   id="defs18">
	
	
	
	
	
	
</defs><sodipodi:namedview
   inkscape:window-height="706"
   inkscape:window-width="1360"
   inkscape:pageshadow="2"
   inkscape:pageopacity="0.0"
   guidetolerance="10.0"
   gridtolerance="10.0"
   objecttolerance="10.0"
   borderopacity="1.0"
   bordercolor="#666666"
   pagecolor="#ffffff"
   id="base"
   inkscape:zoom="256"
   inkscape:cx="355.80569"
   inkscape:cy="369.95031"
   inkscape:window-x="-8"
   inkscape:window-y="-8"
   inkscape:current-layer="Layer_1"
   showgrid="false"
   inkscape:window-maximized="1" />
<path
   style="fill:#007ac2"
   d="M 177.25826,3.4148925e-4 C 168.59542,1.8490915 92.354842,11.831561 82.863603,16.574651 c -2.187178,4.37941 -6.758533,18.04297 -8.208233,20.20488 -6.127129,1.31837 -30.956394,6.04126 -32.517223,6.94544 -0.873861,2.62662 -6.579213,13.84033 -7.892531,15.15364 -5.258319,1.31332 -29.7718853,5.85815 -32.8329239,8.05038 C -0.33502981,77.435521 -7.0076905,182.56657 36.771225,251.2985 80.550143,320.03044 157.11904,365.7806 177.25826,370.16001 l 0.15783,0 C 197.5553,365.7806 273.96636,320.03045 317.74528,251.2985 361.51915,182.56152 355.0195,77.435521 353.26166,66.928991 c -3.06609,-2.19223 -27.58469,-6.73706 -32.83293,-8.05038 -1.31332,-1.31331 -7.01363,-12.52702 -7.89252,-15.15364 -1.55578,-0.90418 -26.38,-5.63212 -32.51723,-6.94544 -1.4497,-2.16191 -6.016,-15.82547 -8.20824,-20.20488 C 262.34982,11.846711 186.04232,1.8844415 177.25825,3.4148925e-4 z m 0,26.83460951075 c 7.50611,1.60629 72.73251,10.32342 80.8195,14.36439 1.86391,3.74296 5.71294,15.35697 6.94544,17.20572 5.23811,1.12138 26.60603,5.06763 27.93956,5.84047 0.74757,2.24274 5.5033,11.98024 6.62971,13.10162 4.49053,1.12136 25.48087,4.91861 28.0974,6.78756 1.50022,8.98107 7.11214,98.789229 -30.30731,157.534909 -37.41943,58.75072 -102.75189,97.91788 -119.96645,101.65578 l -0.15783,0 C 160.04371,339.58749 94.711236,300.4153 57.291804,241.66962 19.877424,182.92394 25.489328,93.115781 26.984489,84.134711 c 2.621583,-1.874 23.606872,-5.6662 28.097407,-6.78756 1.126422,-1.12138 5.882144,-10.85888 6.629724,-13.10162 1.333523,-0.77284 22.543592,-4.71909 27.781707,-5.84047 1.237544,-1.84875 5.234326,-13.46276 7.103277,-17.20572 8.107206,-4.05612 73.256576,-12.78842 80.661656,-14.36439 z"
   id="path5"
   inkscape:connector-curvature="0" /><path
   style="fill:#007ac2"
   d="m 189.25491,55.563751 c -2.4594,0.24246 -2.82617,1.96367 -2.84131,2.68346 -0.50512,84.082609 -0.26519,173.283359 -0.94711,259.664249 0.55562,2.7327 4.91357,-1.46739 7.41897,-2.84131 31.8934,-17.53279 131.36959,-113.87469 74.18979,-148.37957 43.78396,-28.63031 35.98109,-55.95362 16.57431,-70.874919 -40.1269,-30.868 -85.9086,-38.53196 -91.23764,-39.93621 -1.33226,-0.35105 -2.33722,-0.39651 -3.15701,-0.3157 z m 26.67674,34.56929 c 0.62131,-0.33844 26.34212,9.197 40.40976,18.784229 16.12853,10.99145 10.66818,21.55481 1.2628,27.93955 -5.10678,3.48029 -36.70973,26.17794 -41.98826,27.466 -0.1162,-4.3794 -0.13894,-53.76265 0.3157,-74.189779 z m 23.51975,96.131019 c 3.5236,0.10844 6.87091,1.23502 9.31319,3.78841 2.18212,2.08616 11.80089,12.45504 -8.68179,42.14611 -7.62733,13.46655 -23.62076,30.35656 -25.41394,32.04367 -0.21723,0.0606 -0.30686,-0.27403 -0.47356,-0.15785 0.1667,-9.65287 -0.0921,-56.38171 0.47356,-69.45426 1.13272,-0.59099 14.21168,-8.69141 24.78254,-8.36607 z"
   id="path9"
   inkscape:connector-curvature="0" /><path
   style="fill:#007ac2"
   id="path15"
   d="m 80.528675,85.840761 c -2.621583,1.12138 -24.953022,15.340569 -27.200816,17.583309 -0.621298,19.82098 4.692584,73.29824 24.266058,115.03646 2.475098,5.27852 5.162345,10.22872 8.071848,14.70915 5.581599,9.63772 5.894774,8.87499 12.390641,-0.35359 4.500634,-6.08672 10.991444,-15.11325 12.617944,-16.97209 2.24274,7.48085 16.74479,54.14401 37.14162,82.34497 9.04167,12.51187 22.92747,24.33172 22.87191,19.46235 -0.55563,-47.64815 -1.91946,-253.899539 -0.4243,-262.304759 -6.016,-0.14146 -25.75111,2.42963 -29.65571,4.45517 -0.32327,7.54146 2.71251,148.965509 0.84356,165.048589 -13.82519,-33.68153 -18.54302,-122.56277 -15.81032,-159.234629 -7.48085,1.49515 -25.725854,8.81437 -28.342386,11.43594 -3.364113,6.73328 1.227447,80.582119 6.005896,105.368449 -1.63154,2.57107 -6.334227,9.55186 -7.081807,10.67323 C 86.756829,176.06564 77.710095,123.42184 80.528675,85.840761 z"
   inkscape:connector-curvature="0" />
</svg>