<svg xmlns="http://www.w3.org/2000/svg" role="img" viewBox="-20.34 -20.34 1057.68 405.68"><title>Weta Digital logo</title><path fill="#1d2123" d="M865.736 329.28l10.768-28.076 11.03 27.948zm-4.077-54.321l-43.555 89.164h33.765l7.498-16.602h35.062l7.274 16.602h34.686l-43.161-89.164zm7.525-70.566c-45.877 1.466-46.516-31.546-10.635-38.222 14.836-2.766 36.154-5.036 70.812-4.158 0 6.246-13.36 40.896-60.177 42.38zm-126.487-9.734c-.005.341.006.674.008 1.013-10.526-2.901-14.422-8.245-14.404-23.421l-.224-54.54h33.203v-.112c43.021.041 75.388.296 75.388.296s4.05-17.418 46.797-17.199c46.8.239 45.558 18.664 45.842 24.881-48.922-.293-82.915.614-120.599 7.115-37.667 6.539-65.56 21.373-66.01 61.967zm-306.196-64.182c8.68-24.126 31.068-32.642 54-32.684 21.106-.038 42.936 10.788 49.483 32.684zm580.076-22.07c-2.921-21.244-22.322-55.712-120.642-57.746-72.716-1.502-115.347 13.775-134.655 37.726V50.424h-33.203V.004h-88.344v50.42H612.16v49.67c-18.1-26.282-53.135-49.57-121.012-50.144-40.05-.341-69.172 5.867-90.347 15.842l6.138-15.606h-87.551l-32.227 96.586L245.5 50.185h-84.335l-41.347 96.768-32.276-96.768H0l80.367 204.328h77.688l45.409-119.601 45.41 119.601h77.7L349.94 195.1c13.776 32.223 54.915 66.312 138.439 65.31 90.641-1.09 135.013-40.105 143.113-77.051h-89.943c-9.122 18.56-30.122 29.246-51.048 29.314-27.822.091-49.38-13.229-54.036-42.006h195.032v-1.923h-.018c-.036-9.593-.612-29.89-9.648-51.033h17.902s-.208 87.589-.216 88.148c-1.57 47.331 25.8 47.936 38.839 47.829 1.541-.019 99.755 0 99.755 0v-10.779c19.302 9.463 43.441 13.848 64.326 13.679 44.534-.367 60.938-11.17 87.507-25.84.019 8.25.019 13.552.037 16.94v6.135h87.716v-.274h.112c0-74.064.602-131.809-1.232-145.142zM714.38 363.967h31.539v-89.135H714.38zm121.039-88.97h-80.886v22.71h24.599v66.554h31.85v-66.554h24.437zm135.612-.038h-31.672v89.164h78.385v-22.9h-46.713zm-423.139 89.164h31.55v-89.164h-31.55zm105.943-34.458h20.068c-1.052 5.375-7.242 9.506-10.334 11.116-4.492 2.363-11.293 4.15-18.161 3.808-6.87-.346-10.899-.895-17.495-6.136-4.68-3.752-7.806-10.64-7.806-19.156 0-8.661 2.424-15.768 7.233-19.87 4.943-4.275 10.655-7.307 19.787-7.564 14.844-.419 19.844 5.698 20.518 6.96l33.055-5.64c-5-8.902-16.216-22.638-54.363-21.75-17.137.394-31.661 3.856-42.26 12.354-10.841 8.664-15.276 21.464-15.754 35.786-.538 16.374 7.186 27.69 17.689 36.172 9.453 7.618 18.792 10.202 34.407 10.202 9.47 0 19.033-2.705 25.63-5.663 2.406-1.042 6.388-3.515 9.01-5.768l.105 9.79h29.37v-53.367h-50.7zm-148.455 2.47c-3.523 6.384-12.43 9.692-21.713 9.692h-17.024l-.038-44.478h17.026c9.273 0 18.188 3.306 21.712 9.688 1.906 3.49 2.884 7.73 2.96 12.628h.037c-.113 4.818-1.072 9.01-2.96 12.47zm25.377-40.5c-8.841-11.043-25.198-16.584-43.229-16.584h-51.945l.037 89.072h51.956c18.01 0 34.376-5.541 43.217-16.575 6.147-7.719 9.386-17.141 9.678-28.03h-.036c-.339-10.814-3.552-20.202-9.678-27.882"/></svg>