<?xml version="1.0" encoding="UTF-8" standalone="no"?>
<svg
   viewBox="0 0 220.00369 38.893002"
   id="icon-weta-logo"
   width="220.00369"
   height="38.893002"
   version="1.1"
   sodipodi:docname="Weta_FX_logo_2.svg"
   inkscape:version="1.2.1 (9c6d41e, 2022-07-14)"
   xmlns:inkscape="http://www.inkscape.org/namespaces/inkscape"
   xmlns:sodipodi="http://sodipodi.sourceforge.net/DTD/sodipodi-0.dtd"
   xmlns="http://www.w3.org/2000/svg"
   xmlns:svg="http://www.w3.org/2000/svg"
   xmlns:rdf="http://www.w3.org/1999/02/22-rdf-syntax-ns#"
   xmlns:cc="http://creativecommons.org/ns#"
   xmlns:dc="http://purl.org/dc/elements/1.1/">
  <defs
     id="defs66" />
  <sodipodi:namedview
     id="namedview64"
     pagecolor="#ffffff"
     bordercolor="#666666"
     borderopacity="1.0"
     inkscape:showpageshadow="2"
     inkscape:pageopacity="0.0"
     inkscape:pagecheckerboard="0"
     inkscape:deskcolor="#d1d1d1"
     showgrid="false"
     inkscape:zoom="12.090233"
     inkscape:cx="50.164459"
     inkscape:cy="8.8501189"
     inkscape:window-width="1309"
     inkscape:window-height="484"
     inkscape:window-x="0"
     inkscape:window-y="37"
     inkscape:window-maximized="0"
     inkscape:current-layer="icon-weta-logo" />
  <title
     id="title43">weta-logo</title>
  <g
     id="g61"
     transform="matrix(0.19979686,0,0,0.19979686,-5.4664421,-6.6472415)">
    <g
       id="g49">
      <g
         id="g47">
        <path
           d="M 785.11938,114.57447 C 782.94768,98.73137 768.49033,73.04321 695.19013,71.53336 641.00093,70.41648 609.21132,81.81276 594.81602,99.6621 V 71.36789 H 570.05859 V 33.78706 h -65.85435 v 37.58083 h -20.5588 v 37.02239 C 470.16019,88.80357 444.03769,71.45062 393.44732,71.01628 363.6019,70.76809 341.88485,75.38037 326.1038,82.82622 l 4.57092,-11.62379 H 265.42017 L 241.40732,143.1996 210.34161,71.20243 H 147.48628 L 116.66876,143.34438 92.61455,71.20243 H 27.36 L 87.25768,223.5113 h 57.91212 l 33.83722,-89.1433 33.85791,89.1433 h 57.91212 l 17.415,-44.28209 c 10.25872,24.01285 40.93146,49.43213 103.18698,48.68754 67.55035,-0.80663 100.64299,-29.88679 106.68239,-57.43641 h -67.05396 c -6.80467,13.83686 -22.44095,21.79978 -38.05653,21.84114 -20.74495,0.062 -36.79488,-9.86574 -40.2696,-31.31391 h 145.35942 v -1.42712 h -0.0207 c -0.0207,-7.15628 -0.45502,-22.27548 -7.19765,-38.03585 h 13.34047 c 0,0 -0.16546,65.27523 -0.16546,65.70957 -1.15824,35.28503 19.2351,35.71937 28.95606,35.65732 1.15824,-0.0207 74.35502,0 74.35502,0 0,0 0,-3.66087 0,-8.02496 14.3953,7.05287 32.36874,10.32077 47.94296,10.19667 33.19605,-0.26888 45.41965,-8.33521 65.23386,-19.25578 0.0207,6.14282 0.0207,10.09325 0.0207,12.61657 v 4.57092 h 65.37864 v -0.20683 h 0.0827 c 0.062,-55.26471 0.51707,-98.28514 -0.848,-108.23361 z m -432.35532,16.4429 c 6.47375,-17.97344 23.14416,-24.32309 40.24892,-24.36446 15.73969,-0.0207 31.99644,8.04565 36.87761,24.36446 z m 228.21511,47.83955 c 0,0.24819 0,0.49639 0,0.74458 -7.83882,-2.15102 -10.75511,-6.14282 -10.73442,-17.45637 l -0.16546,-40.6419 h 24.75743 v -0.0827 c 32.05849,0.0414 56.19544,0.22751 56.19544,0.22751 0,0 3.0197,-12.96818 34.87137,-12.8234 34.89205,0.18615 33.96132,13.91959 34.16815,18.55256 -36.46395,-0.22751 -61.8005,0.45502 -89.88788,5.29482 -28.08738,4.88116 -48.87369,15.94652 -49.20462,46.18491 z m 94.27265,7.2597 c -34.18883,1.09619 -34.66454,-23.51646 -7.92155,-28.48035 11.06535,-2.06829 26.94982,-3.7436 52.78276,-3.10243 0,4.65365 -9.96916,30.48659 -44.86121,31.58279 z"
           id="path45" />
      </g>
    </g>
    <g
       id="g55">
      <path
         d="m 835.06858,90.54094 v 48.48072 H 944.2536 v 17.80798 H 835.06858 v 66.49552 H 813.82724 V 71.88497 H 948.53496 V 90.54095 H 835.06858 Z"
         id="path51" />
      <path
         d="m 1098.2585,223.32515 -62.2142,-66.28869 -61.77981,66.28869 h -29.3904 l 77.43681,-80.22897 -68.00541,-71.21122 h 29.59723 l 52.34838,57.27095 52.9896,-57.27095 h 29.3904 l -69.2877,71.00439 79.1535,80.43579 h -30.2384 z"
         id="path53" />
    </g>
    <polygon
       points="468.216,51.305489 314.41797,51.305489 314.41797,33.27 468.40216,33.27 "
       id="polygon57" />
    <polygon
       points="761.02374,51.305489 607.22577,51.305489 607.22577,33.27 761.20996,33.27 "
       id="polygon59" />
  </g>
  <metadata
     id="metadata327">
    <rdf:RDF>
      <cc:Work
         rdf:about="">
        <dc:title>weta-logo</dc:title>
      </cc:Work>
    </rdf:RDF>
  </metadata>
</svg>
