<?xml version="1.0" encoding="UTF-8" standalone="no"?>
<svg
   xmlns:dc="http://purl.org/dc/elements/1.1/"
   xmlns:cc="http://creativecommons.org/ns#"
   xmlns:rdf="http://www.w3.org/1999/02/22-rdf-syntax-ns#"
   xmlns:svg="http://www.w3.org/2000/svg"
   xmlns="http://www.w3.org/2000/svg"
   viewBox="0 0 1017.9067 365.94666"
   height="365.94666"
   width="1017.9067"
   xml:space="preserve"
   id="svg2"
   version="1.1"><metadata
     id="metadata8"><rdf:RDF><cc:Work
         rdf:about=""><dc:format>image/svg+xml</dc:format><dc:type
           rdf:resource="http://purl.org/dc/dcmitype/StillImage" /></cc:Work></rdf:RDF></metadata><defs
     id="defs6" /><g
     transform="matrix(1.3333333,0,0,-1.3333333,0,365.94667)"
     id="g10"><g
       transform="scale(0.1)"
       id="g12"><path
         id="path14"
         style="fill:#1d2123;fill-opacity:1;fill-rule:nonzero;stroke:none"
         d="m 6493.02,275 80.76,210.57 82.72,-209.609 z M 6462.44,682.41 6135.78,13.6797 h 253.24 l 56.23,124.5113 h 262.97 l 54.55,-124.5113 h 260.15 L 6699.21,682.41 Z m 56.44,529.24 c -344.08,-10.99 -348.87,236.6 -79.76,286.67 111.27,20.74 271.15,37.77 531.09,31.18 0,-46.84 -100.2,-306.72 -451.33,-317.85 z m -948.65,73.01 c -0.04,-2.56 0.04,-5.06 0.06,-7.6 -78.95,21.76 -108.17,61.84 -108.03,175.66 l -1.68,409.05 h 249.02 v 0.84 c 322.66,-0.31 565.41,-2.22 565.41,-2.22 0,0 30.38,130.63 350.98,128.99 351,-1.79 341.68,-139.98 343.81,-186.61 -366.91,2.2 -621.86,-4.6 -904.49,-53.36 -282.5,-49.04 -491.7,-160.3 -495.08,-464.75 z m -2296.47,481.36 c 65.1,180.95 233.01,244.82 405,245.13 158.29,0.29 322.02,-80.91 371.12,-245.13 z m 4350.57,165.53 c -21.91,159.33 -167.42,417.84 -904.82,433.09 -545.37,11.27 -865.1,-103.31 -1009.91,-282.94 v 284.72 h -249.02 v 378.15 H 4798 v -378.15 h -206.81 v -372.53 c -135.73,197.13 -398.5,371.79 -907.58,376.09 -300.38,2.56 -518.79,-44 -677.6,-118.81 l 46.03,117.04 h -656.63 l -241.7,-724.39 -312.46,724.39 H 1208.74 L 898.633,1642.45 656.563,2368.21 H 0 L 602.754,835.75 h 582.656 l 340.57,897.01 340.58,-897.01 h 582.74 l 175.25,445.6 c 103.32,-241.67 411.86,-497.338 1038.29,-489.819 679.81,8.168 1012.6,300.779 1073.35,577.879 h -674.57 c -68.42,-139.2 -225.92,-219.35 -382.86,-219.86 -208.67,-0.68 -370.35,99.22 -405.27,315.05 h 1462.74 v 14.42 h -0.14 c -0.27,71.95 -4.59,224.17 -72.36,382.75 H 4798 c 0,0 -1.56,-656.92 -1.62,-661.11 -11.78,-354.988 193.5,-359.519 291.29,-358.719 11.56,0.141 748.16,0 748.16,0 0,0 0,36.879 0,80.84 144.77,-70.972 325.81,-103.859 482.45,-102.59 334,2.75 457.03,83.778 656.3,193.799 0.14,-61.869 0.14,-101.638 0.28,-127.049 V 840.93 h 657.87 v 2.05 h 0.84 c 0,555.48 4.51,988.57 -9.24,1088.57 z M 5357.85,14.8516 h 236.54 V 683.359 H 5357.85 Z M 6265.64,682.129 H 5659 V 511.801 h 184.49 V 12.6406 h 238.87 V 511.801 h 183.28 z m 1017.09,0.281 H 7045.19 V 13.6797 h 587.89 V 185.43 H 7282.73 Z M 4109.19,13.6797 h 236.63 V 682.41 h -236.63 z m 794.57,258.4293 h 150.51 c -7.89,-40.308 -54.31,-71.289 -77.5,-83.367 -33.69,-17.722 -84.7,-31.121 -136.21,-28.562 -51.52,2.601 -81.74,6.718 -131.21,46.019 -35.1,28.141 -58.55,79.801 -58.55,143.672 0,64.961 18.18,118.258 54.25,149.02 37.07,32.07 79.91,54.808 148.4,56.738 111.33,3.141 148.83,-42.738 153.89,-52.207 l 247.91,42.308 c -37.5,66.762 -121.62,169.782 -407.72,163.122 C 4719,705.898 4610.07,679.93 4530.58,616.199 4449.27,551.219 4416.01,455.219 4412.42,347.801 4408.39,225 4466.32,140.121 4545.09,76.5117 4615.99,19.3789 4686.03,0 4803.14,0 c 71.03,0 142.75,20.2813 192.23,42.4688 18.04,7.8125 47.91,26.3632 67.57,43.2617 l 0.79,-73.4219 H 5284 V 412.559 H 4903.76 Z M 3790.35,253.582 c -26.42,-47.871 -93.22,-72.684 -162.85,-72.684 h -127.68 l -0.28,333.582 h 127.69 c 69.55,0 136.41,-24.789 162.84,-72.66 14.3,-26.172 21.63,-57.968 22.2,-94.711 h 0.28 c -0.85,-36.129 -8.04,-67.57 -22.2,-93.527 z m 190.33,303.75 c -66.31,82.828 -188.99,124.387 -324.22,124.387 h -389.59 l 0.28,-668.0393 h 389.67 c 135.07,0 257.82,41.5586 324.13,124.3123 46.1,57.887 70.39,128.559 72.58,210.219 h -0.27 c -2.54,81.109 -26.64,151.519 -72.58,209.121" /></g></g></svg>