<svg xmlns="http://www.w3.org/2000/svg" role="img" viewBox="-1.11 -1.86 135.59 48.09"><path d="M46.283 43.034h-6.9l-8.2-27-.7-2.8-.6 2.8-8.2 27h-7L1.583.834h7.2l8.9 28.9.7 3.1.6-3.1 8.5-28.9h6l8.6 28.9.5 3.1.7-3.1 9-28.9h7.1l-13.1 42.2zm38.6-15.5v2.5h-22.2c.4 4.9 3.7 8 8.4 8 3.6 0 6.2-1.5 7.3-4.3h6.3c-1.9 6.3-6.6 10-13.7 10-8.7 0-14.9-6.2-14.9-15.8 0-9.2 5.9-15.9 14.9-15.9 7.9-.1 13.9 5 13.9 15.5zm-22.1-2.5h15.7c-.1-4.6-3.1-7.5-7.6-7.5-4.7-.1-7.7 3.1-8.1 7.5zm40.1 18h-6.4l-11.3-30.5h6.9l7 20.4.6 2.5.6-2.5 7.1-20.4h6.9l-11.4 30.5zm29-24.3c-2.4 0-4.3.5-6.1 2-1.6 1.3-2.6 3.4-2.6 6.4v15.8h-6.4v-30.4h5.6l.5 5.2c1-2.8 3.8-5.5 9-5.5v6.5z" class="st0"/></svg>