<svg xmlns="http://www.w3.org/2000/svg" role="img" viewBox="0.24 31.75 299.26 250.51"><title>Working Group for Rust Bindings logo</title><style>.st0{fill:#ba9d5c}</style><style>.st0{fill:#ba9d5c}</style><style>.st0{fill:#ba9d5c}</style><style>.st0{fill:#ba9d5c}</style><style id="style1" type="text/css">.st0{fill:#ba9d5c}</style><g id="g1" transform="translate(21.75 37.55)"><path id="polygon1" d="M14.9 0h-1.7L0 37.2h1.7z" class="st0"/><path id="polygon2" d="M25.4 7.5l.4-5.7h-1.6l.4 5.7-4.5-3-.8 1.4 5 2.4-5 2.4.8 1.4 4.5-3-.4 5.8h1.6l-.4-5.8 4.5 3 .8-1.4-5-2.4 5-2.4-.8-1.4z" class="st0"/><path id="path2" d="M50 23.6h14.2l3.1 8h1.8L57.4 1.5h-.5L45.2 31.6H47zm6.3-16.2c.4-1 .8-2.5.8-2.7 0 .1.4 1.7.8 2.7L63.6 22h-13z" class="st0"/><path id="path3" d="M86.4 31.9c5 0 9.2-2.1 11.8-5.9l-1.3-1c-2.3 3.4-6 5.3-10.5 5.3-7.4 0-13-5.8-13-13.6S79 3.1 86.4 3.1c4.6 0 8 1.9 10.1 5l1.3-1c-2.4-3.6-6.4-5.6-11.4-5.6-8.1 0-14.7 6.2-14.7 15.2s6.5 15.2 14.7 15.2z" class="st0"/><path id="path4" d="M106.4 23.6h14.2l3.1 8h1.8L113.8 1.5h-.5l-11.6 30.1h1.7zm6.3-16.2c.4-1 .8-2.5.8-2.7 0 .1.4 1.7.8 2.7L120 22h-13z" class="st0"/><path id="path5" d="M153.6 16.7c0-9.1-5.8-14.9-15.7-14.9h-6.1v29.7h6.1c9.9.1 15.7-5.7 15.7-14.8zM133.4 30V3.5h4.2c9.5 0 14.1 5.5 14.1 13.3 0 7.8-4.6 13.2-14.1 13.2z" class="st0"/><path id="polygon5" d="M177.1 1.8h-16.8v29.8h17.4V30h-15.6V17.4h13.5v-1.6h-13.5V3.4h15z" class="st0"/><path id="path6" d="M186.2 8c0-1-.1-2.6-.1-2.6s.8 1.5 1.6 2.4l10 13.7h.5l10.1-13.7c.8-1 1.6-2.4 1.6-2.4s-.1 1.5-.1 2.6v23.6h1.7V1.5h-.5l-13 17.7-13-17.7h-.4v30.1h1.7V8z" class="st0"/><path id="path7" d="M227.6 31.6h1.8V20.7l10-18.9h-1.8l-8.3 15.6c-.4.7-.8 1.7-.8 1.8 0-.2-.3-1.1-.7-1.8l-8.3-15.6h-1.9l10 18.8z" class="st0"/><path id="path8" d="M18.5 76.8c0-4.1-2.2-6.6-6.9-8.8l-2.7-1.3c-3.6-1.7-5-3.1-5-6.1 0-3 2-5 5.4-5 3.2 0 4.8 1.7 6 3.6l1.4-.9C15.3 56 13.2 54 9.3 54c-3.9 0-7.1 2.5-7.1 6.6 0 3.8 2 5.7 6 7.7l2.7 1.3c4 1.9 5.9 3.8 5.9 7.3 0 3.8-3.1 6-6.9 6-4.6 0-6.8-2.5-8.1-5.1l-1.5.7c1.4 3 4.2 5.9 9.7 5.9 4.9 0 8.5-3 8.5-7.6z" class="st0"/><path id="path9" d="M37.8 84.4c8.1 0 14.7-6.2 14.7-15.2S45.9 54 37.8 54s-14.7 6.2-14.7 15.2 6.6 15.2 14.7 15.2zm0-28.8c7.4 0 13 5.8 13 13.6s-5.5 13.6-13 13.6c-7.4 0-13-5.8-13-13.6s5.6-13.6 13-13.6z" class="st0"/><path id="polygon9" d="M61.1 55.9h15v-1.6H59.3v29.8h1.8V70.6h13.6V69H61.1z" class="st0"/><path id="polygon10" d="M100.3 54.3h-20v1.6h9.2v28.2h1.7V55.9h9.1z" class="st0"/><path id="path10" d="M132 78.2c-.3.8-.5 2-.5 2.1 0-.2-.3-1.4-.5-2.1L122.7 54h-.5L114 78.2c-.3.8-.6 2-.6 2.1 0-.2-.3-1.4-.5-2.1l-7-23.9H104l9 30.1h.5l8.4-24.7c.3-.8.5-2 .5-2.1 0 .3.2 1.4.5 2.1l8.4 24.7h.5l9-30.1H139z" class="st0"/><path id="path11" fill="#ba9d5c" d="M146.8 76.1H161l3.1 8h1.8L154.2 54h-.5L142 84.1h1.7zm6.3-16.2c.4-1 .8-2.5.8-2.7 0 .1.4 1.7.8 2.7l5.6 14.6h-13z" class="st0" opacity=".922"/><path id="path12" d="M189.8 63.1c0-5.8-3.9-8.7-10-8.7h-7.7v29.7h1.7V71.8h6c.7 0 1.3 0 1.9-.1l7 12.4h2.1l-7.2-12.7c3.9-1.2 6.2-4 6.2-8.3zm-10.2 7.1h-5.8V55.9h5.8c5.5 0 8.4 2.4 8.4 7.2 0 4.6-2.9 7.1-8.4 7.1z" class="st0"/><path id="polygon12" d="M214.2 54.3h-16.8v29.8h17.4v-1.6h-15.6V69.9h13.5v-1.6h-13.5V55.9h15z" class="st0"/><path id="polygon13" d="M15.5 121.5H1.9v-13.1h15v-1.6H.1v29.7h1.8v-13.4h13.6z" class="st0"/><path id="path13" d="M35.8 106.5c-8.1 0-14.7 6.2-14.7 15.2 0 9.1 6.6 15.2 14.7 15.2s14.7-6.2 14.7-15.2c.1-9.1-6.5-15.2-14.7-15.2zm0 28.8c-7.4 0-13-5.8-13-13.6s5.5-13.6 13-13.6 13 5.8 13 13.6-5.6 13.6-13 13.6z" class="st0"/><path id="path14" d="M74.7 126.5c0 5.7-3.3 8.8-8 8.8s-8-3.1-8-8.8v-19.7H57v19.9c0 6.7 4.1 10.2 9.7 10.2 5.5 0 9.7-3.5 9.7-10.2v-19.9h-1.7z" class="st0"/><path id="path15" d="M105 130.9c0 .9.1 2.2.1 2.2s-.8-1.2-1.3-2l-18.4-24.7h-.5v30.1h1.6v-24.1c0-.9-.1-2.2-.1-2.2s.8 1.2 1.3 2l18.4 24.7h.5v-30.1H105z" class="st0"/><path id="path16" d="M121.5 106.8h-6.1v29.7h6.1c10 0 15.7-5.7 15.7-14.9s-5.8-14.8-15.7-14.8zm-.2 28.1h-4.2v-26.5h4.2c9.5 0 14.1 5.5 14.1 13.3 0 7.8-4.6 13.2-14.1 13.2z" class="st0"/><path id="path17" d="M151.4 106.5l-11.6 30.1h1.7l3-8h14.2l3.1 8h1.8L152 106.5zm6.8 20.5h-13l5.6-14.7c.4-1 .8-2.5.8-2.7 0 .1.4 1.7.8 2.7z" class="st0"/><path id="polygon17" d="M174.8 108.4h9.2v-1.6h-20.1v1.6h9.2v28.1h1.7z" class="st0"/><path id="rect17" d="M189.9 106.8h1.7v29.7h-1.7z" class="st0"/><path id="path18" d="M213.3 106.5c-8.1 0-14.7 6.2-14.7 15.2 0 9.1 6.6 15.2 14.7 15.2s14.7-6.2 14.7-15.2c0-9.1-6.6-15.2-14.7-15.2zm0 28.8c-7.4 0-13-5.8-13-13.6s5.5-13.6 13-13.6c7.4 0 13 5.8 13 13.6s-5.6 13.6-13 13.6z" class="st0"/><path id="path19" d="M254.9 106.8v24.1c0 .9.1 2.2.1 2.2s-.8-1.2-1.3-2l-18.4-24.7h-.5v30.1h1.6v-24.1c0-.9-.1-2.2-.1-2.2s.8 1.2 1.3 2l18.4 24.7h.5v-30.1z" class="st0"/></g><g id="text4" style="text-align:center" text-anchor="middle" transform="translate(-6.048 75.095) scale(.78152)"><path id="path6-7" d="M51.47006 170.42287l-7.5586 29.08203H39.556l-6.11328-24.14063-5.97656 24.14063h-4.25782l-7.6953-29.08203h3.96483l6.11329 24.17968 6.01562-24.17968h3.92578l6.07422 24.41406 6.07422-24.41406zm22.05078 18.18359q0 5.33203-2.73437 8.41797-2.73438 3.08594-7.32422 3.08594-4.6289 0-7.36328-3.08594-2.71485-3.08594-2.71485-8.41797 0-5.33203 2.71485-8.41797 2.73437-3.10547 7.36328-3.10547 4.58984 0 7.32422 3.10547 2.73437 3.08594 2.73437 8.41797zm-3.78906 0q0-4.23828-1.66016-6.28906-1.66015-2.07031-4.60937-2.07031-2.98828 0-4.64844 2.07031-1.64062 2.05078-1.64062 6.28906 0 4.10156 1.66015 6.23047 1.66016 2.10937 4.62891 2.10937 2.92969 0 4.58984-2.08984 1.6797-2.10937 1.6797-6.25zm23.08594-6.91406h-.19531q-.82032-.19531-1.60157-.27344-.76172-.0977-1.8164-.0977-1.69922 0-3.28125.76172-1.58203.74219-3.04688 1.9336v15.48828h-3.67187v-21.81641h3.67187v3.22266q2.1875-1.75781 3.84766-2.48047 1.67969-.74219 3.41797-.74219.95703 0 1.38672.0586.42968.0391 1.28906.17578zm23.26172 17.8125h-4.84375l-8.75-9.55078-2.38282 2.26562v7.28516H96.431v-30.39063h3.67187v19.49219l10.60547-10.91797h4.62891l-10.13672 10.07813zm7.8125-25.46875h-4.14063v-3.8086h4.14063zm-.23438 25.46875h-3.67187v-21.81641h3.67187zm25.50781 0h-3.67187v-12.42188q0-1.5039-.17578-2.8125-.17578-1.32812-.64453-2.07031-.48828-.82031-1.40625-1.21094-.91797-.41015-2.38282-.41015-1.5039 0-3.14453.74218-1.64062.74219-3.14453 1.89454v16.28906h-3.67187v-21.81641h3.67187v2.42188q1.71875-1.42578 3.55469-2.22657 1.83594-.80078 3.76953-.80078 3.53516 0 5.39063 2.12891 1.85546 2.12891 1.85546 6.13281zm24.76563-2.48047q0 5.54687-2.51953 8.14453-2.51953 2.59766-7.75391 2.59766-1.73828 0-3.39844-.25391-1.64062-.23437-3.24218-.68359v-3.75h.19531q.89844.35156 2.85156.85937 1.95313.52735 3.90625.52735 1.875 0 3.10547-.44922t1.91406-1.25q.6836-.76172.97657-1.83594.29296-1.07422.29296-2.40234v-1.99219q-1.66015 1.32812-3.18359 1.99219-1.50391.64453-3.84766.64453-3.90625 0-6.21093-2.8125-2.28516-2.83203-2.28516-7.96875 0-2.8125.78125-4.84375.80078-2.05078 2.16797-3.53516 1.26953-1.38672 3.08594-2.14844 1.8164-.78125 3.61328-.78125 1.89453 0 3.16406.39063 1.28906.37109 2.71484 1.15234l.23438-.9375h3.4375zm-3.67188-3.51563v-11.89453q-1.46484-.66406-2.73437-.9375-1.25-.29297-2.5-.29297-3.02734 0-4.76563 2.03125-1.73828 2.03125-1.73828 5.89844 0 3.67188 1.28907 5.56641 1.28906 1.89453 4.27734 1.89453 1.60156 0 3.20312-.60547 1.6211-.625 2.96875-1.66016zm49.51172 3.84766q-2.38281 1.09375-5.21484 1.91406-2.8125.80078-5.44922.80078-3.39844 0-6.23047-.9375-2.83203-.9375-4.82422-2.8125-2.01172-1.89453-3.10547-4.72656-1.09375-2.85156-1.09375-6.66015 0-6.97266 4.0625-10.9961 4.08204-4.04297 11.19141-4.04297 2.48047 0 5.05859.60547 2.59766.58594 5.58594 2.01172v4.58984h-.35156q-.60547-.46875-1.75781-1.23046-1.15235-.76172-2.26563-1.26954-1.34765-.60546-3.0664-.99609-1.69922-.41016-3.86719-.41016-4.88281 0-7.73438 3.14454-2.83203 3.125-2.83203 8.47656 0 5.64453 2.96875 8.78906 2.96875 3.125 8.08594 3.125 1.875 0 3.73047-.37109 1.875-.3711 3.28125-.95703v-7.12891h-7.79297v-3.39844h11.62109zm20.07813-15.66406h-.19531q-.82032-.19531-1.60157-.27344-.76172-.0977-1.8164-.0977-1.69922 0-3.28125.76172-1.58203.74219-3.04688 1.9336v15.48828h-3.67187v-21.81641h3.67187v3.22266q2.1875-1.75781 3.84766-2.48047 1.67969-.74219 3.41797-.74219.95703 0 1.38672.0586.42968.0391 1.28906.17578zm22.05078 6.91406q0 5.33203-2.73438 8.41797-2.73437 3.08594-7.32421 3.08594-4.62891 0-7.36329-3.08594-2.71484-3.08594-2.71484-8.41797 0-5.33203 2.71484-8.41797 2.73438-3.10547 7.36329-3.10547 4.58984 0 7.32421 3.10547 2.73438 3.08594 2.73438 8.41797zm-3.78906 0q0-4.23828-1.66016-6.28906-1.66016-2.07031-4.60937-2.07031-2.98829 0-4.64844 2.07031-1.64063 2.05078-1.64063 6.28906 0 4.10156 1.66016 6.23047 1.66016 2.10937 4.62891 2.10937 2.92968 0 4.58984-2.08984 1.67969-2.10937 1.67969-6.25zm27.55859 10.89844h-3.67187v-2.42188q-1.85547 1.46485-3.55469 2.2461-1.69922.78125-3.75.78125-3.4375 0-5.35156-2.08985-1.91407-2.10937-1.91407-6.17187v-14.16016h3.67188v12.42188q0 1.66015.15625 2.85156.15625 1.17187.66406 2.01172.52734.85937 1.36719 1.25.83984.39062 2.4414.39062 1.42579 0 3.10547-.74218 1.69922-.74219 3.16407-1.89454v-16.28906h3.67187zm26.42578-11.17188q0 2.65625-.76172 4.86328-.76172 2.1875-2.14843 3.71094-1.28907 1.44531-3.04688 2.2461-1.73828.78125-3.69141.78125-1.69921 0-3.08593-.3711-1.36719-.37109-2.79297-1.15234v9.14062h-3.67188v-29.86328h3.67188v2.28516q1.46484-1.23047 3.28125-2.05078 1.83594-.83985 3.90625-.83985 3.94531 0 6.13281 2.98828 2.20703 2.96875 2.20703 8.26172zm-3.78906.0977q0-3.94531-1.34766-5.89844-1.34765-1.95312-4.14062-1.95312-1.58203 0-3.1836.68359-1.60156.68359-3.0664 1.79688v12.36328q1.5625.70312 2.67578.95703 1.13281.2539 2.55859.2539 3.06641 0 4.78516-2.07031 1.71875-2.07031 1.71875-6.13281zm35.3125-15.76172h-.19531q-.60547-.17578-1.58203-.35156-.97657-.19531-1.71875-.19531-2.36329 0-3.4375 1.05468-1.05469 1.03516-1.05469 3.76953v.74219h6.62109v3.08594h-6.5039v18.73047h-3.67188v-18.73047h-2.48047v-3.08594h2.48047v-.72265q0-3.88672 1.93359-5.95704 1.9336-2.08984 5.58594-2.08984 1.23047 0 2.20703.11719.9961.11719 1.81641.27344zm20.91797 15.9375q0 5.33203-2.73438 8.41797-2.73437 3.08594-7.32422 3.08594-4.6289 0-7.36328-3.08594-2.71484-3.08594-2.71484-8.41797 0-5.33203 2.71484-8.41797 2.73438-3.10547 7.36328-3.10547 4.58985 0 7.32422 3.10547 2.73438 3.08594 2.73438 8.41797zm-3.78906 0q0-4.23828-1.66016-6.28906-1.66016-2.07031-4.60938-2.07031-2.98828 0-4.64843 2.07031-1.64063 2.05078-1.64063 6.28906 0 4.10156 1.66016 6.23047 1.66015 2.10937 4.6289 2.10937 2.92969 0 4.58985-2.08984 1.67969-2.10937 1.67969-6.25zm23.08593-6.91406h-.19531q-.82031-.19531-1.60156-.27344-.76172-.0977-1.81641-.0977-1.69922 0-3.28125.76172-1.58203.74219-3.04687 1.9336v15.48828h-3.67188v-21.81641h3.67188v3.22266q2.1875-1.75781 3.84765-2.48047 1.67969-.74219 3.41797-.74219.95703 0 1.38672.0586.42969.0391 1.28906.17578z"/><path id="path7-6" d="M96.6556 249.5049h-5.01952l-9.72657-11.5625H76.4603v11.5625h-3.8672v-29.08203h8.14454q2.63672 0 4.39453.35156 1.75781.33203 3.16406 1.21094 1.58204.99609 2.46094 2.51953.89844 1.5039.89844 3.82812 0 3.14453-1.58203 5.27344-1.58203 2.10938-4.35547 3.18359zm-9.04296-20.89844q0-1.25-.44922-2.20703-.42969-.97656-1.44531-1.64063-.83984-.5664-1.99219-.78125-1.15234-.23437-2.71484-.23437H76.4603v10.97656h3.90625q1.83593 0 3.20312-.3125 1.36719-.33203 2.32422-1.21094.8789-.82031 1.28906-1.875.42969-1.07421.42969-2.71484zm30.19531 20.89844h-3.67187v-2.42188q-1.85547 1.46485-3.55469 2.2461-1.69922.78125-3.75.78125-3.4375 0-5.35156-2.08985-1.91406-2.10937-1.91406-6.17187v-14.16016h3.67187v12.42188q0 1.66015.15625 2.85156.15625 1.17187.66406 2.01172.52735.85937 1.36719 1.25.83984.39062 2.44141.39062 1.42578 0 3.10547-.74218 1.69921-.74219 3.16406-1.89454v-16.28906h3.67187zm22.8125-6.28906q0 2.98828-2.48047 4.90234-2.46093 1.91406-6.73828 1.91406-2.42187 0-4.45312-.5664-2.01172-.58594-3.37891-1.26954v-4.12109h.19531q1.73829 1.30859 3.86719 2.08984 2.12891.76172 4.08203.76172 2.42188 0 3.78907-.78125 1.36718-.78125 1.36718-2.46093 0-1.28907-.74218-1.95313-.74219-.66406-2.85157-1.13281-.78125-.17578-2.05078-.41016-1.25-.23437-2.28515-.50781-2.8711-.76172-4.08204-2.22656-1.1914-1.48438-1.1914-3.63282 0-1.34765.54687-2.53906.56641-1.1914 1.69922-2.1289 1.09375-.91797 2.77344-1.44532 1.69922-.54687 3.78906-.54687 1.95313 0 3.94531.48828 2.01172.46875 3.33985 1.15234v3.92578h-.19531q-1.40625-1.03515-3.41797-1.73828-2.01172-.72265-3.94532-.72265-2.01171 0-3.39843.78125-1.38672.76172-1.38672 2.28515 0 1.34766.83984 2.03125.82031.6836 2.65625 1.11328 1.01563.23438 2.26563.46875 1.26953.23438 2.10937.42969 2.5586.58594 3.94531 2.01172 1.38672 1.44531 1.38672 3.82813zm16.58203 6.09375q-1.03515.27343-2.26562.44921-1.21094.17579-2.16797.17579-3.33984 0-5.07812-1.79688-1.73829-1.79687-1.73829-5.76172v-11.60156h-2.48046v-3.08594h2.48046v-6.26953h3.67188v6.26953h7.57812v3.08594h-7.57812v9.94141q0 1.71875.0781 2.69531.0781.95703.54688 1.79687.42969.78125 1.17187 1.15235.76172.35156 2.30469.35156.89844 0 1.875-.25391.97656-.27343 1.40625-.44922h.19531zm40.72266-8.75q0 2.16796-.82031 3.82812-.82031 1.66016-2.20703 2.73438-1.64063 1.28906-3.61328 1.83593-1.95313.54688-4.98047.54688h-10.3125v-29.08203h8.61328q3.18359 0 4.76562.23437 1.58203.23438 3.02735.97656 1.60156.83985 2.32422 2.16797.72265 1.3086.72265 3.14453 0 2.07032-1.05469 3.53516-1.05468 1.44531-2.8125 2.32422v.15625q2.94922.60547 4.64844 2.59766 1.69922 1.97265 1.69922 5zm-6.50391-13.10547q0-1.05469-.35156-1.77735-.35156-.72265-1.13281-1.17187-.91797-.52735-2.22656-.64453-1.3086-.13672-3.24219-.13672h-4.60938v8.39844h5q1.81641 0 2.89063-.17579 1.07422-.19531 1.99219-.78125.91797-.58593 1.28906-1.5039.39062-.9375.39062-2.20703zm2.48047 13.26172q0-1.75782-.52734-2.79297-.52734-1.03516-1.91406-1.75782-.9375-.48828-2.28516-.625-1.32812-.15625-3.24219-.15625h-6.07422v10.82032h5.11719q2.53906 0 4.16016-.25391 1.62109-.27344 2.65625-.97656 1.09375-.76172 1.60156-1.73828.50781-.97657.50781-2.51953zm13.16407-16.67969h-4.14063v-3.8086h4.14063zm-.23438 25.46875h-3.67187v-21.81641h3.67187zm25.50781 0h-3.67187v-12.42188q0-1.5039-.17578-2.8125-.17578-1.32812-.64453-2.07031-.48829-.82031-1.40625-1.21094-.91797-.41015-2.38282-.41015-1.5039 0-3.14453.74218-1.64062.74219-3.14453 1.89454v16.28906h-3.67187v-21.81641h3.67187v2.42188q1.71875-1.42578 3.55469-2.22657 1.83594-.80078 3.76953-.80078 3.53516 0 5.39062 2.12891 1.85547 2.12891 1.85547 6.13281zm24.76563 0h-3.67188v-2.28516q-1.58203 1.36719-3.30078 2.12891t-3.73047.76172q-3.90625 0-6.21093-3.00782-2.28516-3.00781-2.28516-8.33984 0-2.77344.78125-4.94141.80078-2.16796 2.14844-3.6914 1.32812-1.48438 3.08593-2.26563 1.77735-.78125 3.67188-.78125 1.71875 0 3.04687.3711 1.32813.35156 2.79297 1.11328v-9.45313h3.67188zm-3.67188-5.3711v-12.51953q-1.48437-.66406-2.65625-.91797-1.17187-.2539-2.55859-.2539-3.08594 0-4.80469 2.14844-1.71875 2.14843-1.71875 6.09375 0 3.88671 1.32813 5.91796 1.32812 2.01172 4.25781 2.01172 1.5625 0 3.16406-.68359 1.60156-.70313 2.98828-1.79688zm14.84375-20.09765h-4.14062v-3.8086h4.14062zm-.23437 25.46875h-3.67188v-21.81641h3.67188zm25.50781 0h-3.67187v-12.42188q0-1.5039-.17579-2.8125-.17578-1.32812-.64453-2.07031-.48828-.82031-1.40625-1.21094-.91797-.41015-2.38281-.41015-1.50391 0-3.14453.74218-1.64063.74219-3.14453 1.89454v16.28906h-3.67188v-21.81641h3.67188v2.42188q1.71875-1.42578 3.55469-2.22657 1.83593-.80078 3.76953-.80078 3.53515 0 5.39062 2.12891 1.85547 2.12891 1.85547 6.13281zm24.76563-2.48047q0 5.54687-2.51954 8.14453-2.51953 2.59766-7.7539 2.59766-1.73828 0-3.39844-.25391-1.64062-.23437-3.24219-.68359v-3.75h.19532q.89843.35156 2.85156.85937 1.95312.52735 3.90625.52735 1.875 0 3.10547-.44922t1.91406-1.25q.68359-.76172.97656-1.83594.29297-1.07422.29297-2.40234v-1.99219q-1.66016 1.32812-3.18359 1.99219-1.50391.64453-3.84766.64453-3.90625 0-6.21094-2.8125-2.28515-2.83203-2.28515-7.96875 0-2.8125.78125-4.84375.80078-2.05078 2.16797-3.53516 1.26953-1.38672 3.08593-2.14844 1.81641-.78125 3.61328-.78125 1.89454 0 3.16407.39063 1.28906.37109 2.71484 1.15234l.23438-.9375h3.4375zm-3.67188-3.51563v-11.89453q-1.46484-.66406-2.73437-.9375-1.25-.29297-2.5-.29297-3.02735 0-4.76563 2.03125-1.73828 2.03125-1.73828 5.89844 0 3.67188 1.28906 5.56641 1.28906 1.89453 4.27735 1.89453 1.60156 0 3.20312-.60547 1.62109-.625 2.96875-1.66016zm26.48438-.29296q0 2.98828-2.48047 4.90234-2.46094 1.91406-6.73828 1.91406-2.42188 0-4.45313-.5664-2.01172-.58594-3.37891-1.26954v-4.12109h.19532q1.73828 1.30859 3.86718 2.08984 2.12891.76172 4.08204.76172 2.42187 0 3.78906-.78125t1.36719-2.46093q0-1.28907-.74219-1.95313-.74219-.66406-2.85156-1.13281-.78125-.17578-2.05079-.41016-1.25-.23437-2.28515-.50781-2.8711-.76172-4.08203-2.22656-1.19141-1.48438-1.19141-3.63282 0-1.34765.54688-2.53906.5664-1.1914 1.69921-2.1289 1.09375-.91797 2.77344-1.44532 1.69922-.54687 3.78906-.54687 1.95313 0 3.94532.48828 2.01172.46875 3.33984 1.15234v3.92578h-.19531q-1.40625-1.03515-3.41797-1.73828-2.01172-.72265-3.94531-.72265-2.01172 0-3.39844.78125-1.38672.76172-1.38672 2.28515 0 1.34766.83984 2.03125.82032.6836 2.65625 1.11328 1.01563.23438 2.26563.46875 1.26953.23438 2.10937.42969 2.5586.58594 3.94532 2.01172 1.38672 1.44531 1.38672 3.82813z"/></g></svg>