<svg xmlns="http://www.w3.org/2000/svg" role="img" xmlns:xlink="http://www.w3.org/1999/xlink" viewBox="8.88 -5.12 237.98 265.98"><defs id="defs15"><linearGradient id="linear-gradient" x1="128" x2="128" y1="-.94" y2="257.37" gradientUnits="userSpaceOnUse"><stop id="stop1" offset="0" stop-color="#00ebef"/><stop id="stop2" offset="1" stop-color="#ed5240"/></linearGradient><linearGradient id="linear-gradient-2" x1="134.33" x2="134.33" y1="-.7" y2="191.15" gradientUnits="userSpaceOnUse"><stop id="stop3" offset="0" stop-color="#fff"/><stop id="stop4" offset=".34" stop-color="#fff" stop-opacity=".62"/><stop id="stop5" offset=".66" stop-color="#fff" stop-opacity=".29"/><stop id="stop6" offset=".89" stop-color="#fff" stop-opacity=".08"/><stop id="stop7" offset="1" stop-color="#fff" stop-opacity="0"/></linearGradient><linearGradient id="linear-gradient-3" x1="134.33" x2="134.33" y1="609.81" y2="417.96" gradientTransform="matrix(1 0 0 -1 0 674.98)" xlink:href="#linear-gradient-2"/><linearGradient id="linear-gradient-4" x1="143.94" x2="9.98" y1="54.43" y2="242.76" gradientUnits="userSpaceOnUse"><stop id="stop8" offset="0" stop-color="#fff"/><stop id="stop9" offset="1" stop-color="#fff" stop-opacity="0"/></linearGradient><linearGradient id="linear-gradient-5" x1="92.7" x2="53.03" y1="136.29" y2="191.35" gradientUnits="userSpaceOnUse"><stop id="stop10" offset="0" stop-color="#fff"/><stop id="stop11" offset="1" stop-color="#fff" stop-opacity=".7"/></linearGradient><linearGradient id="linear-gradient-6" x1="98.48" x2="98.48" y1="66.32" y2="190.58" gradientUnits="userSpaceOnUse"><stop id="stop12" offset="0" stop-color="#fff"/><stop id="stop13" offset="1" stop-color="#fff"/></linearGradient><linearGradient id="linear-gradient-7" x1="135.94" x2="218.35" y1="54.21" y2="102.81" gradientUnits="userSpaceOnUse"><stop id="stop14" offset=".29" stop-color="#fff"/><stop id="stop15" offset="1" stop-color="#fff" stop-opacity="0"/></linearGradient><clipPath id="clip-path"><path id="path9" fill="none" d="M229.19 105.76L52.43 3.44A25.62 25.62 0 0 0 14 25.68v204.64a25.61 25.61 0 0 0 38.43 22.24l176.76-102.32a25.71 25.71 0 0 0 0-44.48z"/></clipPath><style id="style1"/></defs><g id="g21" style="isolation:isolate"><g id="Layer_6" data-name="Layer 6"><path id="path15" fill="url(#linear-gradient)" d="M229.19 105.76L52.43 3.44A25.62 25.62 0 0 0 14 25.68v204.64a25.61 25.61 0 0 0 38.43 22.24l176.76-102.32a25.71 25.71 0 0 0 0-44.48z"/><path id="path16" fill="url(#linear-gradient-2)" d="M229.19 105.76L52.43 3.44a25.56 25.56 0 0 0-25.62 0l-.16.1 133.63 186.59 68.91-39.89a25.71 25.71 0 0 0 0-44.48z" opacity=".5"/><path id="path17" fill="url(#linear-gradient-3)" d="M229.19 150.24L52.43 252.56a25.56 25.56 0 0 1-25.62 0l-.16-.1L160.28 65.87l68.91 39.89a25.71 25.71 0 0 1 0 44.48z" opacity=".5"/><path id="path18" fill="url(#linear-gradient-4)" d="M39.62 5a20.65 20.65 0 0 1 10.32 2.76L226.7 110.08a20.72 20.72 0 0 1 0 35.84L49.94 248.24a20.64 20.64 0 0 1-31-17.92V25.68A20.65 20.65 0 0 1 39.62 5m0-5A25.64 25.64 0 0 0 14 25.68v204.64a25.61 25.61 0 0 0 38.43 22.24l176.76-102.32a25.71 25.71 0 0 0 0-44.48L52.43 3.44A25.62 25.62 0 0 0 39.62 0z"/><g id="g20" clip-path="url(#clip-path)"><path id="polygon18" fill="url(#linear-gradient-5)" d="M72.67 139.97l-35.92 50.16h34.54l35.92-50.16H72.67z"/><path id="polygon19" fill="url(#linear-gradient-6)" d="M36.6 65.87l89.22 124.26h34.54L71.14 65.87H36.6z"/><path id="polygon20" fill="#fff" d="M124.38 116l35.96-50.1-24.4-14.12L90.03 116h34.35z"/></g><path id="polygon21" fill="url(#linear-gradient-7)" d="M220.92 100.97l-84.98-49.19-2.93 4.07 85.46 49.46 2.45-4.34z"/></g></g></svg>