<?xml version="1.0" encoding="UTF-8"?>
<svg id="Logos" xmlns="http://www.w3.org/2000/svg" viewBox="0 0 294.18 72.08">
  <defs>
    <style>
      .cls-1 {
        fill: #1cb7b7;
      }

      .cls-2 {
        fill: #1dcad3;
      }
    </style>
  </defs>
  <g>
    <g>
      <path class="cls-2" d="M61.25,33.03l10.81-15.29h-10.36v-2.27h13.1v2.49l-10.81,15.29h10.92v2.27h-13.66v-2.49Z"/>
      <path class="cls-2" d="M78.44,15.47h11.59v2.27h-9.21v6.64h8.31v2.24h-8.31v6.64h9.21v2.27h-11.59V15.47Z"/>
      <path class="cls-2" d="M93.87,15.47h6.78c1.1,0,2.13.25,3.08.76.95.5,1.71,1.21,2.28,2.11.57.91.85,1.93.85,3.07,0,.93-.21,1.8-.63,2.6-.42.8-1,1.47-1.74,2.02-.74.54-1.55.91-2.45,1.09l-.06.08,5.66,8.2v.11h-2.8l-5.46-8.18h-3.14v8.18h-2.38V15.47ZM100.5,25.13c.69,0,1.34-.16,1.95-.48s1.09-.76,1.46-1.33c.36-.57.55-1.21.55-1.92,0-.62-.16-1.2-.48-1.76-.32-.56-.76-1.02-1.33-1.37-.57-.35-1.23-.53-1.97-.53h-4.42v7.39h4.26Z"/>
      <path class="cls-2" d="M114.33,34.57c-1.57-.93-2.8-2.2-3.7-3.81-.9-1.61-1.34-3.36-1.34-5.26s.45-3.66,1.34-5.26c.9-1.6,2.13-2.87,3.7-3.81,1.57-.93,3.31-1.4,5.24-1.4s3.67.47,5.24,1.4c1.57.93,2.8,2.2,3.7,3.81.9,1.61,1.34,3.36,1.34,5.26s-.45,3.66-1.34,5.26c-.9,1.6-2.13,2.87-3.7,3.81-1.57.93-3.31,1.4-5.24,1.4s-3.67-.47-5.24-1.4ZM123.53,32.65c1.2-.7,2.16-1.67,2.86-2.91.7-1.24,1.05-2.66,1.05-4.24s-.35-3-1.05-4.24c-.7-1.24-1.65-2.21-2.86-2.91-1.2-.7-2.52-1.05-3.96-1.05s-2.76.35-3.96,1.05-2.16,1.67-2.86,2.91c-.7,1.24-1.05,2.66-1.05,4.24s.35,3,1.05,4.24c.7,1.24,1.65,2.21,2.86,2.91,1.2.7,2.52,1.05,3.96,1.05s2.76-.35,3.96-1.05Z"/>
      <path class="cls-2" d="M142.83,17.74h-5.63v-2.27h13.61v2.27h-5.6v17.78h-2.38v-17.78Z"/>
      <path class="cls-2" d="M153.78,15.47h6.78c1.1,0,2.13.25,3.08.76.95.5,1.71,1.21,2.28,2.11.57.91.85,1.93.85,3.07,0,.93-.21,1.8-.63,2.6-.42.8-1,1.47-1.74,2.02-.74.54-1.55.91-2.45,1.09l-.06.08,5.66,8.2v.11h-2.8l-5.46-8.18h-3.14v8.18h-2.38V15.47ZM160.41,25.13c.69,0,1.34-.16,1.95-.48s1.09-.76,1.46-1.33c.36-.57.55-1.21.55-1.92,0-.62-.16-1.2-.48-1.76-.32-.56-.76-1.02-1.33-1.37-.57-.35-1.23-.53-1.97-.53h-4.42v7.39h4.26Z"/>
      <path class="cls-2" d="M173.24,34.97c-1.12-.66-1.99-1.59-2.6-2.77-.62-1.19-.92-2.55-.92-4.1v-12.63h2.38v12.74c0,1.62.43,2.94,1.29,3.96.86,1.02,2.09,1.53,3.7,1.53s2.84-.51,3.71-1.53c.87-1.02,1.3-2.34,1.3-3.96v-12.74h2.38v12.63c0,1.55-.29,2.92-.88,4.12-.59,1.19-1.44,2.12-2.56,2.77-1.12.65-2.44.98-3.95.98s-2.72-.33-3.84-.99Z"/>
      <path class="cls-2" d="M191.14,35.33c-.94-.42-1.78-1.04-2.51-1.85s-1.25-1.8-1.57-2.95l2.27-.92c.32,1.19.9,2.17,1.76,2.94.86.77,1.87,1.15,3.02,1.15s2.14-.31,2.94-.94c.8-.62,1.2-1.48,1.2-2.56,0-.93-.34-1.7-1.02-2.31-.68-.61-1.8-1.17-3.35-1.69l-1.26-.45c-1.42-.5-2.58-1.17-3.47-1.99-.9-.82-1.34-1.96-1.34-3.42,0-.95.26-1.83.78-2.65.52-.81,1.25-1.46,2.18-1.95.93-.48,1.98-.73,3.14-.73s2.17.21,3.02.64c.86.43,1.54.95,2.06,1.57.51.62.87,1.22,1.08,1.82l-2.21.95c-.21-.69-.64-1.32-1.3-1.88s-1.54-.84-2.62-.84c-1.03,0-1.9.29-2.63.87-.73.58-1.09,1.31-1.09,2.18,0,.78.31,1.42.92,1.92.62.5,1.55.96,2.8,1.39l1.32.45c1.7.62,3.02,1.39,3.98,2.31.95.92,1.43,2.18,1.43,3.77,0,1.29-.33,2.37-.99,3.25-.66.88-1.5,1.52-2.51,1.93s-2.04.62-3.11.62c-1.01,0-1.98-.21-2.93-.63Z"/>
      <path class="cls-2" d="M208.04,17.74h-5.63v-2.27h13.61v2.27h-5.6v17.78h-2.38v-17.78Z"/>
      <path class="cls-2" d="M60.66,43.47h2.63l3.64,14.73.34,1.37h.11l.42-1.37,4.48-14.73h2.46l4.28,14.73.42,1.37h.11l3.95-16.1h2.63l-5.4,20.05h-2.46l-4.26-14.5-.45-1.57h-.11l-.48,1.57-4.42,14.5h-2.46l-5.43-20.05Z"/>
      <path class="cls-2" d="M92.63,62.56c-1.57-.93-2.8-2.2-3.7-3.81-.9-1.61-1.34-3.36-1.34-5.26s.45-3.66,1.34-5.26c.9-1.6,2.13-2.87,3.7-3.81,1.57-.93,3.31-1.4,5.24-1.4s3.67.47,5.24,1.4c1.57.93,2.8,2.2,3.7,3.81.9,1.61,1.34,3.36,1.34,5.26s-.45,3.66-1.34,5.26c-.9,1.6-2.13,2.87-3.7,3.81-1.57.93-3.31,1.4-5.24,1.4s-3.67-.47-5.24-1.4ZM101.83,60.64c1.2-.7,2.16-1.67,2.86-2.91.7-1.24,1.05-2.66,1.05-4.24s-.35-3-1.05-4.24c-.7-1.24-1.65-2.21-2.86-2.91-1.2-.7-2.52-1.05-3.96-1.05s-2.76.35-3.96,1.05-2.16,1.67-2.86,2.91c-.7,1.24-1.05,2.66-1.05,4.24s.35,3,1.05,4.24c.7,1.24,1.65,2.21,2.86,2.91,1.2.7,2.52,1.05,3.96,1.05s2.76-.35,3.96-1.05Z"/>
      <path class="cls-2" d="M111.64,43.47h6.78c1.1,0,2.13.25,3.08.76.95.5,1.71,1.21,2.28,2.11.57.91.85,1.93.85,3.07,0,.93-.21,1.8-.63,2.6-.42.8-1,1.47-1.74,2.02-.74.54-1.55.91-2.45,1.09l-.06.08,5.66,8.2v.11h-2.8l-5.46-8.18h-3.14v8.18h-2.38v-20.05ZM118.28,53.13c.69,0,1.34-.16,1.95-.48s1.09-.76,1.46-1.33c.36-.57.55-1.21.55-1.92,0-.62-.16-1.2-.48-1.76-.32-.56-.76-1.02-1.33-1.37-.57-.35-1.23-.53-1.97-.53h-4.42v7.39h4.26Z"/>
      <path class="cls-2" d="M128.05,43.47h2.38v10.55h.11l9.02-10.55h3.05v.11l-7.42,8.57,7.95,11.25v.11h-2.88l-6.66-9.55-3.16,3.67v5.88h-2.38v-20.05Z"/>
      <path class="cls-2" d="M145.58,43.47h2.38v20.05h-2.38v-20.05Z"/>
      <path class="cls-2" d="M152.43,43.47h2.91l10.05,15.96h.11l-.11-3.86v-12.09h2.38v20.05h-2.46l-10.5-16.71h-.11l.11,3.86v12.85h-2.38v-20.05Z"/>
      <path class="cls-2" d="M176.18,62.59c-1.59-.91-2.85-2.17-3.78-3.78-.93-1.6-1.4-3.38-1.4-5.32s.47-3.71,1.4-5.32c.93-1.6,2.19-2.87,3.78-3.78,1.59-.91,3.32-1.37,5.21-1.37,1.47,0,2.86.26,4.16.78,1.3.52,2.37,1.26,3.21,2.21l-1.68,1.71c-.65-.78-1.47-1.39-2.46-1.81-.99-.42-2.05-.63-3.19-.63-1.4,0-2.72.34-3.95,1.02-1.23.68-2.22,1.64-2.95,2.88s-1.11,2.67-1.11,4.3.37,3.06,1.11,4.3c.74,1.24,1.72,2.2,2.95,2.88,1.23.68,2.55,1.02,3.95,1.02s2.47-.21,3.37-.63,1.68-.98,2.34-1.67c.49-.52.88-1.15,1.18-1.89.3-.74.49-1.55.56-2.45h-7.42v-2.21h9.63c.09.52.14,1.01.14,1.46,0,1.23-.2,2.43-.59,3.6-.39,1.17-1.02,2.19-1.88,3.07-1.85,2-4.3,3-7.36,3-1.89,0-3.62-.46-5.21-1.37Z"/>
      <path class="cls-2" d="M204.87,62.59c-1.59-.91-2.85-2.17-3.78-3.78-.93-1.6-1.4-3.38-1.4-5.32s.47-3.71,1.4-5.32c.93-1.6,2.19-2.87,3.78-3.78,1.59-.91,3.32-1.37,5.21-1.37,1.47,0,2.86.26,4.16.78,1.3.52,2.37,1.26,3.21,2.21l-1.68,1.71c-.65-.78-1.47-1.39-2.46-1.81-.99-.42-2.05-.63-3.19-.63-1.4,0-2.72.34-3.95,1.02-1.23.68-2.22,1.64-2.95,2.88s-1.11,2.67-1.11,4.3.37,3.06,1.11,4.3c.74,1.24,1.72,2.2,2.95,2.88,1.23.68,2.55,1.02,3.95,1.02s2.47-.21,3.37-.63,1.68-.98,2.34-1.67c.49-.52.88-1.15,1.18-1.89.3-.74.49-1.55.56-2.45h-7.42v-2.21h9.63c.09.52.14,1.01.14,1.46,0,1.23-.2,2.43-.59,3.6-.39,1.17-1.02,2.19-1.88,3.07-1.85,2-4.3,3-7.36,3-1.89,0-3.62-.46-5.21-1.37Z"/>
      <path class="cls-2" d="M223.43,43.47h6.78c1.1,0,2.13.25,3.08.76.95.5,1.71,1.21,2.28,2.11.57.91.85,1.93.85,3.07,0,.93-.21,1.8-.63,2.6-.42.8-1,1.47-1.74,2.02-.74.54-1.55.91-2.45,1.09l-.06.08,5.66,8.2v.11h-2.8l-5.46-8.18h-3.14v8.18h-2.38v-20.05ZM230.07,53.13c.69,0,1.34-.16,1.95-.48s1.09-.76,1.46-1.33c.36-.57.55-1.21.55-1.92,0-.62-.16-1.2-.48-1.76-.32-.56-.76-1.02-1.33-1.37-.57-.35-1.23-.53-1.97-.53h-4.42v7.39h4.26Z"/>
      <path class="cls-2" d="M243.9,62.56c-1.57-.93-2.8-2.2-3.7-3.81-.9-1.61-1.34-3.36-1.34-5.26s.45-3.66,1.34-5.26c.9-1.6,2.13-2.87,3.7-3.81,1.57-.93,3.31-1.4,5.24-1.4s3.67.47,5.24,1.4c1.57.93,2.8,2.2,3.7,3.81.9,1.61,1.34,3.36,1.34,5.26s-.45,3.66-1.34,5.26c-.9,1.6-2.13,2.87-3.7,3.81-1.57.93-3.31,1.4-5.24,1.4s-3.67-.47-5.24-1.4ZM253.1,60.64c1.2-.7,2.16-1.67,2.86-2.91.7-1.24,1.05-2.66,1.05-4.24s-.35-3-1.05-4.24c-.7-1.24-1.65-2.21-2.86-2.91-1.2-.7-2.52-1.05-3.96-1.05s-2.76.35-3.96,1.05-2.16,1.67-2.86,2.91c-.7,1.24-1.05,2.66-1.05,4.24s.35,3,1.05,4.24c.7,1.24,1.65,2.21,2.86,2.91,1.2.7,2.52,1.05,3.96,1.05s2.76-.35,3.96-1.05Z"/>
      <path class="cls-2" d="M265.96,62.97c-1.12-.66-1.99-1.59-2.6-2.77-.62-1.19-.92-2.55-.92-4.1v-12.63h2.38v12.74c0,1.62.43,2.94,1.29,3.96.86,1.02,2.09,1.53,3.7,1.53s2.84-.51,3.71-1.53c.87-1.02,1.3-2.34,1.3-3.96v-12.74h2.38v12.63c0,1.55-.29,2.92-.88,4.12-.59,1.19-1.44,2.12-2.56,2.77-1.12.65-2.44.98-3.95.98s-2.72-.33-3.84-.99Z"/>
      <path class="cls-2" d="M281.19,43.47h6.75c1.12,0,2.16.25,3.11.76.95.5,1.71,1.21,2.28,2.11.57.91.85,1.93.85,3.07s-.28,2.16-.85,3.07c-.57.91-1.33,1.61-2.28,2.11-.95.5-1.99.76-3.11.76h-4.37v8.18h-2.38v-20.05ZM288,53.07c.75,0,1.4-.18,1.97-.53.57-.35,1.01-.81,1.33-1.37s.48-1.15.48-1.76-.16-1.2-.48-1.76c-.32-.56-.76-1.02-1.33-1.37-.57-.35-1.23-.53-1.97-.53h-4.42v7.34h4.42Z"/>
    </g>
    <path class="cls-2" d="M41.23,14.91L24.11.96c-1.57-1.28-3.84-1.28-5.41,0L1.57,14.95c-1.45,1.19-1.96,3.18-1.26,4.92l21.1,52.21,21.08-52.25c.7-1.74.19-3.73-1.26-4.92ZM25.71,32.69h-8.62l2.12-7.82c-1.32-.76-2.21-2.19-2.21-3.82,0-2.43,1.97-4.41,4.41-4.41s4.41,1.97,4.41,4.41c0,1.61-.86,3.01-2.14,3.78l2.05,7.86Z"/>
  </g>
  <path class="cls-1" d="M41.22,14.91L24.07.93C22.93-.04,21.4,0,21.4,0v16.64c2.43,0,4.41,1.97,4.41,4.41,0,1.61-.86,3.01-2.14,3.78l2.05,7.86h-4.31v39.38l21.09-52.24c.7-1.74.19-3.73-1.26-4.92Z"/>
</svg>