<svg xmlns="http://www.w3.org/2000/svg" role="img" viewBox="-5.99 -5.99 196.49 311.74"><title>Academy of Motion Picture Arts and Sciences logo</title><g fill="#b49823"><path d="M88.654 0l85.333 193.698h-54.095l-7.05-16.586h-8.598c-1.683-2.48-1.508-2.97-4.393-3.3-6.438-.336-7.297-1.151-7.297-5.932 0-4.298 1.907-12.378 2.068-15.495.175-3.97-.331-5.44-.331-8.248 0-2.81 1.868-5.943 2.198-12.54.346-6.59-1.23-11.355-1.23-11.355 1.379-.183 3.055-1.161 3.574-2.323.671-1.64 2.877-10.555 2.877-14.172 0-1.486-.166-2.799-.5-3.79-1.554-3.653-6.066-3.018-8.098-5.355-.637-.729-1.036-.688-1.082-3.319 1.058-1.45 1.383-3.631 1.383-6.777 0-2.623-2.047-4.653-4.76-4.653-2.722 0-4.761 2.03-4.761 4.653 0 3.146.322 5.327 1.383 6.777-.05 2.631-.45 2.59-1.09 3.319-2.027 2.337-6.534 1.702-8.101 5.355-.328.991-.486 2.304-.486 3.79 0 3.617 2.2 12.532 2.869 14.172.52 1.162 2.202 2.14 3.568 2.323 0 0-1.57 4.764-1.226 11.356.334 6.596 2.203 9.73 2.203 12.539 0 2.809-.512 4.278-.334 8.248.163 3.117 2.07 11.197 2.07 15.495 0 4.78-.856 5.596-7.296 5.933-2.881.329-2.713.82-4.391 3.299h-8.6l-7.049 16.586H3.315L88.654 0zm91.504 186.807c-2.421 0-4.396 1.96-4.396 4.37a4.4 4.4 0 0 0 4.396 4.388c2.408 0 4.368-1.97 4.368-4.388 0-2.41-1.96-4.37-4.368-4.37m0 8.143c-2.116 0-3.775-1.657-3.775-3.773 0-2.069 1.693-3.752 3.775-3.752a3.754 3.754 0 0 1 3.75 3.752c0 2.116-1.648 3.773-3.75 3.773"/><path d="M181.029 191.292c.41-.245.632-.656.632-1.19 0-.506-.192-.902-.55-1.152-.369-.272-.792-.272-1.167-.272h-1.26v5.01h.685v-2.18h.515l1.342 2.165.02.019h.742l-1.31-2.253c.117-.031.24-.077.358-.147m-.991-.457h-.669v-1.488H180c.214 0 .436 0 .609.092.272.123.373.416.373.65a.732.732 0 0 1-.263.58c-.177.155-.411.166-.673.166M10.342 289.076l1.984 5.245h-3.98l1.996-5.245zM5.3 299.35h1.135l1.512-3.98h4.776l1.508 3.98h1.133l-5.022-13.145L5.3 299.35zm14.626-11.399h-1.059v4.613h1.16c.77 0 1.455-.039 2.094-.515.47-.354.748-1.024.748-1.804 0-.73-.31-1.654-1.193-2.046-.485-.229-1.103-.25-1.75-.25m3.734 11.396l-3.621-5.718h-1.172v5.718h-1.096v-12.447h2.015c.926 0 1.977 0 2.862.64.842.593 1.289 1.54 1.289 2.736 0 1.145-.493 2.157-1.318 2.715-.397.267-.856.443-1.39.544l3.68 5.812H23.66zm2.673-12.45l-.401 1.046h3.21v11.411h1.097v-11.41h3.21v-1.047h-7.116zm50.262 1.052h2.032c1.705 0 2.814.372 3.814 1.279 1.095 1.005 1.703 2.39 1.703 3.913a5.265 5.265 0 0 1-1.563 3.746c-1.01.991-2.188 1.417-3.954 1.417h-2.032v-10.355zm6.662.519c-1.407-1.301-2.857-1.566-4.613-1.566h-3.15v12.45h3.15c1.54 0 3.172-.204 4.678-1.654 1.236-1.188 1.914-2.807 1.914-4.557 0-1.814-.7-3.473-1.98-4.673m-29.732.597l1.981 5.245h-3.977l1.996-5.245zm-5.046 10.27h1.14l1.51-3.974h4.777l1.505 3.975h1.135l-5.021-13.143-5.046 13.143zm12.23.015h1.095v-10.17L71.983 300v-13.102h-1.1v10.339l-10.175-10.745v12.856zm67.665 0h1.097v-10.17L139.647 300v-13.102h-1.1v10.339l-10.174-10.745v12.856zm-14.103 0h1.095v-12.452h-1.094v12.452zm4.866-12.448v12.45h5.488l.4-1.05h-4.789v-5.09h4.516v-1.051h-4.516v-4.214h5.618l-.402-1.046h-6.315zm36.209 0v12.45h5.486l.404-1.05h-4.793v-5.09h4.519v-1.051h-4.52v-4.214h5.621l-.402-1.046h-6.315zm-44.596 11.688c-.563.359-1.751.96-3.446.96a6.394 6.394 0 0 1-4.546-1.88 6.436 6.436 0 0 1 0-9.091 6.398 6.398 0 0 1 4.546-1.88c2.416 0 3.806 1.223 3.806 1.223l.52 1.402s-1.77-1.567-4.326-1.567a5.362 5.362 0 0 0-5.368 5.367c0 1.433.558 2.782 1.568 3.792a5.369 5.369 0 0 0 3.8 1.57c1.887 0 3.354-.858 3.984-1.307l-.538 1.406zm-15.539.964c-1.506 0-2.85-.762-3.6-2.037l-.085-.142.478-1.229.349.565c.765 1.22 1.657 1.765 2.893 1.765 1.611 0 2.823-1.082 2.823-2.515 0-1.352-1.493-2.11-2.482-2.612l-.274-.138a4.485 4.485 0 0 0-.296-.143c-.913-.44-2.825-1.354-2.825-3.273 0-1.796 1.378-3.092 3.263-3.092 1.402 0 2.345.736 2.345.736l.483 1.248s-1.479-.91-2.876-.91c-1.229 0-2.119.85-2.119 2.018 0 1.193 1.236 1.814 2.335 2.36l.202.101c.085.045.168.085.263.131 1.087.527 3.107 1.513 3.107 3.641 0 1.98-1.751 3.528-3.985 3.528m56.81-.966c-.56.359-1.754.96-3.449.96a6.382 6.382 0 0 1-4.54-1.88 6.436 6.436 0 0 1 0-9.091 6.391 6.391 0 0 1 4.54-1.88c2.42 0 3.814 1.223 3.814 1.223l.517 1.402s-1.774-1.567-4.33-1.567a5.341 5.341 0 0 0-3.793 1.572 5.34 5.34 0 0 0-1.573 3.795c0 1.433.56 2.782 1.573 3.792a5.349 5.349 0 0 0 3.792 1.57c1.895 0 3.357-.858 3.99-1.307l-.541 1.406zm15.387.964c-1.505 0-2.854-.762-3.604-2.037l-.083-.142.478-1.229.352.565c.762 1.22 1.652 1.765 2.888 1.765 1.61 0 2.825-1.082 2.825-2.515 0-1.352-1.493-2.11-2.481-2.612-.098-.048-.19-.096-.277-.138a4.09 4.09 0 0 0-.296-.143c-.914-.44-2.82-1.354-2.82-3.273 0-1.796 1.377-3.092 3.258-3.092 1.407 0 2.347.736 2.347.736l.479 1.248s-1.475-.91-2.874-.91c-1.229 0-2.116.85-2.116 2.018 0 1.193 1.238 1.814 2.332 2.36l.207.101c.077.045.164.085.26.131 1.087.527 3.107 1.513 3.107 3.641 0 1.98-1.75 3.528-3.983 3.528m-128.957-.002c-1.506 0-2.853-.762-3.605-2.037l-.08-.142.48-1.229.353.565c.758 1.22 1.65 1.765 2.886 1.765 1.611 0 2.823-1.082 2.823-2.515 0-1.352-1.491-2.11-2.482-2.612l-.271-.138a4.485 4.485 0 0 0-.296-.143c-.917-.44-2.826-1.354-2.826-3.273 0-1.796 1.378-3.092 3.259-3.092 1.409 0 2.35.736 2.35.736l.478 1.248s-1.477-.91-2.874-.91c-1.229 0-2.119.85-2.119 2.018 0 1.193 1.239 1.814 2.335 2.36l.205.101c.077.045.165.085.26.131 1.086.527 3.109 1.513 3.109 3.641 0 1.98-1.75 3.528-3.985 3.528m62.775-26.706l-10.172-10.74v12.856h1.092v-10.175l10.177 10.824v-13.101h-1.097v10.336zm-30.6 2.115h1.094v-12.447h-1.094v12.447zm85.031-4.929c0 1.08 0 2.2-.593 2.965-.59.765-1.758 1.111-2.595 1.111-.837 0-2.01-.346-2.6-1.113-.594-.765-.594-1.883-.594-2.963v-7.52h-1.101v7.744c0 1.27 0 2.366.865 3.43.813.925 2.09 1.476 3.43 1.476 1.332 0 2.614-.551 3.427-1.482.863-1.058.863-2.154.863-3.424v-7.744h-1.102v7.52zM6.423 274.106a5.368 5.368 0 1 1 .002-10.737 5.368 5.368 0 0 1-.002 10.737m0-11.791A6.422 6.422 0 0 0 0 268.738a6.423 6.423 0 1 0 12.847 0 6.422 6.422 0 0 0-6.424-6.423m46.114 11.791a5.368 5.368 0 0 1 0-10.735 5.365 5.365 0 0 1 5.365 5.367c0 2.963-2.4 5.368-5.365 5.368m0-11.791a6.422 6.422 0 0 0-6.424 6.423 6.423 6.423 0 1 0 12.845 0 6.42 6.42 0 0 0-6.421-6.423m-35.517 6.377h3.502v-1.048H17.02v-4.079h4.675l-.401-1.05H15.92v12.447h1.1v-6.27zm26.781 6.271h1.138l-5.024-13.143-4.016 10.466-4.002-10.466-5.045 13.143h1.138l3.907-10.269 3.432 9.071.565 1.496 4.021-10.567 3.886 10.269zm19.544 0h1.097V263.56h3.21v-1.046h-7.111l-.404 1.046h3.208v11.402zm18.242-.857a5.368 5.368 0 0 1 0-10.735 5.369 5.369 0 1 1 0 10.735m0-11.791a6.424 6.424 0 1 0 .002 12.85 6.424 6.424 0 0 0-.002-12.85m81.107 1.255h-1.058v4.615h1.162c.767 0 1.457-.04 2.092-.517.469-.354.748-1.027.748-1.804 0-.733-.313-1.654-1.19-2.044-.489-.233-1.107-.25-1.754-.25m3.735 11.394l-3.62-5.719h-1.173v5.719h-1.094v-12.45h2.01c.93 0 1.98 0 2.864.642.842.592 1.29 1.542 1.29 2.742 0 1.14-.491 2.154-1.318 2.71-.4.264-.854.447-1.393.546l3.682 5.81h-1.248zm-52.093-11.396h-1.058v4.618h1.161c.767 0 1.455-.04 2.095-.518.469-.35.748-1.024.748-1.8 0-.734-.31-1.657-1.19-2.047-.489-.233-1.11-.253-1.754-.253m.114 5.68h-1.174v5.717h-1.094v-12.452h2.016c.928 0 1.979 0 2.861.644.847.594 1.294 1.542 1.294 2.742 0 1.142-.507 2.133-1.32 2.712-.87.618-1.703.638-2.583.638m6.988 5.714h1.096v-12.447h-1.097v12.447zm19.775 0h1.096V263.56h3.208v-1.046h-7.108l-.407 1.046h3.21v11.402zm29.145-12.448v12.448h5.487l.4-1.049h-4.789v-5.09h4.519v-1.05h-4.519v-4.213h5.618l-.402-1.046h-6.315zm-34.845 11.686c-.56.36-1.75.962-3.446.962a6.395 6.395 0 0 1-4.545-1.885 6.427 6.427 0 0 1 0-9.083 6.4 6.4 0 0 1 4.545-1.88c2.417 0 3.812 1.22 3.812 1.22l.512 1.4s-1.767-1.565-4.324-1.565c-1.423 0-2.78.555-3.792 1.57a5.344 5.344 0 0 0-1.575 3.795c0 1.436.56 2.782 1.575 3.792a5.337 5.337 0 0 0 3.792 1.573c1.893 0 3.355-.86 3.987-1.306l-.54 1.402zM83.552 240.14h1.619c1.522 0 2.5.32 3.381 1.115a4.63 4.63 0 0 1 1.5 3.454c0 1.24-.49 2.414-1.375 3.304-.887.868-1.936 1.24-3.506 1.24h-1.619v-9.114zm6.239-.105c-1.414-1.31-2.865-1.577-4.603-1.577h-3.324v12.474h3.324c1.532 0 3.152-.2 4.672-1.66 1.234-1.192 1.915-2.813 1.915-4.564 0-1.813-.705-3.473-1.984-4.673m38.775-1.573l-3.275 5.543-3.276-5.547h-1.895l4.331 7.5v4.976h1.677v-4.976l4.336-7.496h-1.898zm-26.678 1.628l-.625-1.63h-6.705v12.47h5.892l.623-1.632h-4.836v-4.223h4.432v-1.633h-4.432v-3.352h5.651zm-34.068 1.105s-1.767-1.243-4.302-1.243c-1.26 0-2.453.493-3.352 1.39a4.718 4.718 0 0 0-1.388 3.357c0 1.265.49 2.456 1.388 3.353l.102.102a4.722 4.722 0 0 0 3.251 1.289c2.292 0 4.17-1.388 4.17-1.388l-.786 2.085c-.601.366-1.79.996-3.384.996a6.406 6.406 0 0 1-4.552-1.886 6.391 6.391 0 0 1-1.88-4.55c0-1.722.668-3.34 1.88-4.552a6.406 6.406 0 0 1 4.552-1.886c1.847 0 3.095.707 3.595 1.059l.707 1.875zm-18.091 4.95l1.611-3.963 1.606 3.963H49.73zm5.16 4.776h1.76l-5.307-13.056-5.307 13.056h1.76l1.282-3.15h4.54l1.28 3.15zm17.867-4.776l1.609-3.963 1.608 3.963h-3.217zm5.156 4.776h1.762l-5.305-13.056-5.31 13.056h1.76l1.28-3.15h4.543l1.277 3.15zm37.572-13.055l-3.766 9.266-3.77-9.266-5.308 13.054h1.758l3.55-8.737 3.773 9.278 3.768-9.278 3.552 8.737h1.758l-5.307-13.054z"/></g></svg>