<svg xmlns="http://www.w3.org/2000/svg" role="img" viewBox="-5.99 -5.99 196.24 311.74"><title>Academy of Motion Picture Arts and Sciences logo</title><g fill="#b49823" fill-opacity="1" fill-rule="nonzero" stroke="none" transform="translate(846.549 -119.505) translate(-3194.86 -1623.186) scale(1.92388)"><path d="M1266.6954 905.82318l44.355 100.68122h-28.1175l-3.665-8.62122h-4.4687c-.875-1.28875-.7838-1.54375-2.2838-1.715-3.3462-.175-3.7925-.59875-3.7925-3.08375 0-2.23375.9913-6.43375 1.075-8.05375.091-2.06375-.1725-2.8275-.1725-4.2875 0-1.46.9713-3.08875 1.1425-6.5175.18-3.42625-.6387-5.9025-.6387-5.9025.7162-.095 1.5875-.60375 1.8575-1.2075.3487-.8525 1.495-5.48625 1.495-7.36625 0-.7725-.086-1.455-.26-1.97-.8075-1.89875-3.1525-1.56875-4.2088-2.78375-.3312-.37875-.5387-.3575-.5625-1.725.55-.75375.7188-1.8875.7188-3.5225 0-1.36375-1.0638-2.41875-2.4738-2.41875-1.415 0-2.475 1.055-2.475 2.41875 0 1.635.1675 2.76875.7188 3.5225-.026 1.3675-.2338 1.34625-.5663 1.725-1.0537 1.215-3.3962.885-4.2112 2.78375-.17.515-.2525 1.1975-.2525 1.97 0 1.88 1.1437 6.51375 1.4912 7.36625.27.60375 1.145 1.1125 1.855 1.2075 0 0-.8162 2.47625-.6375 5.9025.1738 3.42875 1.145 5.0575 1.145 6.5175s-.2662 2.22375-.1737 4.2875c.085 1.62 1.0762 5.82 1.0762 8.05375 0 2.485-.445 2.90875-3.7925 3.08375-1.4975.17125-1.41.42625-2.2825 1.715h-4.47l-3.6637 8.62122h-28.1188l44.3575-100.68122z"/><path d="M1314.2582 1002.9225c-1.2587 0-2.285 1.0187-2.285 2.2713 0 1.2574 1.0263 2.2812 2.285 2.2812 1.2513 0 2.27-1.0238 2.27-2.2812 0-1.2526-1.0187-2.2713-2.27-2.2713m0 4.2325c-1.1 0-1.9625-.8612-1.9625-1.9612 0-1.0751.88-1.9501 1.9625-1.9501 1.075 0 1.9488.875 1.9488 1.9501 0 1.1-.8563 1.9612-1.9488 1.9612"/><path d="M1314.7105 1005.2537c.2137-.1275.3287-.3412.3287-.6188 0-.2625-.1-.4687-.2862-.5987-.1913-.1413-.4113-.1413-.6063-.1413h-.6549v2.6038h.3562v-1.1325h.2675l.6975 1.125.01.01h.3862l-.6812-1.1713c.061-.016.125-.04.1862-.076m-.515-.2375h-.3475v-.7738h.3238c.1112 0 .2262 0 .3162.048.1413.064.1938.2163.1938.3375 0 .1226-.049.23-.1363.3013-.092.081-.2138.087-.35.087"/><path d="M1225.9905 1056.0803l1.0313 2.7263h-2.0688l1.0375-2.7263zm-2.6212 5.34h.59l.7862-2.0687h2.4825l.7838 2.0687h.5887l-2.61-6.8325-2.6212 6.8325z"/><path d="M1230.9717 1055.4956h-.55v2.3975h.6025c.4 0 .7563-.02 1.0888-.2676.2437-.1837.3887-.5324.3887-.9375 0-.3799-.1612-.8599-.62-1.0637-.2525-.1187-.5737-.13-.91-.13m1.9413 5.9237l-1.8825-2.9724h-.6088v2.9724h-.57v-6.47h1.0475c.4813 0 1.0275 0 1.4875.3326.4375.3087.67.8012.67 1.4225 0 .595-.2562 1.1212-.685 1.4112-.2062.1388-.445.23-.7225.2825l1.9125 3.0212h-.6487z"/><path d="M1234.3024 1054.9466l-.2087.5438h1.6687v5.9312h.57v-5.9312h1.6688v-.5438h-3.6988z"/><path d="M1260.4277 1055.4932h1.0563c.8862 0 1.4625.1937 1.9824.665.5688.5225.885 1.2425.885 2.0338 0 .7325-.2887 1.4237-.8125 1.9474-.5249.5151-1.1374.7363-2.0549.7363h-1.0563v-5.3825zm3.4625.27c-.7312-.6763-1.485-.8138-2.3975-.8138h-1.6375v6.4713h1.6375c.8 0 1.6487-.1063 2.4312-.86.6426-.6175.9951-1.4587.9951-2.3687 0-.9426-.3638-1.8051-1.0288-2.4288"/><path d="M1248.4355 1056.0734l1.03 2.7263h-2.0675l1.0375-2.7263zm-2.6225 5.3387h.5925l.785-2.0662h2.4825l.7825 2.0662h.59l-2.61-6.8312-2.6225 6.8312z"/><path d="M1252.17 1061.4197h.5688v-5.2863l5.2912 5.625v-6.81h-.5712v5.3738l-5.2888-5.585v6.6825z"/><path d="M1287.3409 1061.4197h.57v-5.2863l5.29 5.625v-6.81h-.5713v5.3738l-5.2887-5.585v6.6825z"/><path d="M1280.0107 1061.4196h.5688v-6.4725h-.5688v6.4725z"/><path d="M1282.5397 1054.9488v6.4713h2.8525l.2075-.5451h-2.4887v-2.6462h2.3475v-.5462h-2.3475v-2.19h2.92l-.2088-.5438h-3.2825z"/><path d="M1301.3607 1054.9488v6.4713h2.8512l.2101-.5451h-2.4913v-2.6462h2.3488v-.5462h-2.3488v-2.19h2.9213l-.2088-.5438h-3.2825z"/><path d="M1278.1801 1061.0246c-.2925.1863-.91.4988-1.7912.4988-.8938 0-1.7313-.3476-2.3625-.9775-1.3025-1.3025-1.3025-3.4225 0-4.725.6312-.6288 1.4687-.9776 2.3625-.9776 1.2562 0 1.9787.6363 1.9787.6363l.27.7287s-.92-.8149-2.2487-.8149c-.7413 0-1.445.29-1.975.8175-.525.5274-.815 1.2275-.815 1.9725 0 .745.29 1.4462.815 1.9712.53.5263 1.2337.8163 1.975.8163.9812 0 1.7437-.4463 2.0712-.68l-.28.7312z"/><path d="M1270.1029 1061.5256c-.7825 0-1.4812-.3962-1.8712-1.0587l-.044-.074.2488-.6387.1812.2937c.3975.6338.8613.9175 1.5038.9175.8375 0 1.4675-.5625 1.4675-1.3075 0-.7025-.7763-1.0962-1.29-1.3575-.05-.025-.099-.05-.1425-.072-.043-.023-.095-.048-.1538-.074-.475-.2288-1.4687-.7038-1.4687-1.7013 0-.9337.7162-1.6075 1.6962-1.6075.7288 0 1.2188.3825 1.2188.3825l.2512.6487s-.7687-.4724-1.495-.4724c-.6387 0-1.1012.4412-1.1012 1.0487 0 .62.6425.9425 1.2137 1.2262l.105.053c.044.023.087.044.1363.068.565.2737 1.615.7862 1.615 1.8925 0 1.0287-.91 1.8337-2.0713 1.8337"/><path d="M1299.6316 1061.0246c-.2912.1863-.9113.4988-1.7925.4988-.8925 0-1.7287-.3476-2.36-.9775-1.3025-1.3025-1.3025-3.4225 0-4.725.6313-.6288 1.4675-.9776 2.36-.9776 1.2575 0 1.9825.6363 1.9825.6363l.2688.7287s-.9225-.8149-2.2513-.8149c-.74 0-1.4437.29-1.9713.8175-.5262.5274-.8174 1.2275-.8174 1.9725 0 .745.2912 1.4462.8174 1.9712.5276.5263 1.2313.8163 1.9713.8163.985 0 1.745-.4463 2.0738-.68l-.2813.7312z"/><path d="M1307.6299 1061.5256c-.7825 0-1.4838-.3962-1.8737-1.0587l-.043-.074.2487-.6387.1825.2937c.3963.6338.8587.9175 1.5012.9175.8375 0 1.4688-.5625 1.4688-1.3075 0-.7025-.7762-1.0962-1.29-1.3575-.051-.025-.099-.05-.1438-.072-.043-.023-.094-.048-.1537-.074-.475-.2288-1.4662-.7038-1.4662-1.7013 0-.9337.7162-1.6075 1.6937-1.6075.7313 0 1.22.3825 1.22.3825l.2488.6487s-.7663-.4724-1.4938-.4724c-.6387 0-1.1.4412-1.1 1.0487 0 .62.6437.9425 1.2125 1.2262l.1075.053c.04.023.085.044.135.068.565.2737 1.615.7862 1.615 1.8925 0 1.0287-.91 1.8337-2.07 1.8337"/><path d="M1240.5991 1061.5256c-.7825 0-1.4825-.3962-1.8737-1.0587l-.041-.074.2488-.6387.1837.2937c.3938.6338.8575.9175 1.5.9175.8375 0 1.4675-.5625 1.4675-1.3075 0-.7025-.775-1.0962-1.29-1.3575-.049-.025-.098-.05-.1412-.072-.043-.023-.095-.048-.1538-.074-.4763-.2288-1.4687-.7038-1.4687-1.7013 0-.9337.7162-1.6075 1.6937-1.6075.7325 0 1.2213.3825 1.2213.3825l.2487.6487s-.7675-.4724-1.4938-.4724c-.6387 0-1.1012.4412-1.1012 1.0487 0 .62.6437.9425 1.2137 1.2262l.1063.053c.04.023.086.044.135.068.565.2737 1.6162.7862 1.6162 1.8925 0 1.0287-.9099 1.8337-2.0712 1.8337"/><path d="M1273.229 1047.6451l-5.2875-5.5825v6.6825h.5675v-5.2887l5.29 5.6262v-6.81h-.57v5.3725z"/><path d="M1257.3232 1048.7446h.5688v-6.47h-.5688v6.47z"/><path d="M1301.5214 1046.1826c0 .5613 0 1.1438-.3087 1.5413-.3063.3975-.9138.5775-1.3488.5775-.435 0-1.045-.18-1.3512-.5788-.3088-.3975-.3088-.9787-.3088-1.54v-3.9087h-.5725v4.025c0 .66 0 1.23.45 1.7825.4225.4812 1.0863.7675 1.7825.7675.6925 0 1.3588-.2863 1.7813-.77.4487-.55.4487-1.12.4487-1.78v-4.025h-.5725v3.9087z"/><path d="M1223.9534 1048.2991c-1.5412 0-2.79-1.25-2.79-2.79 0-1.5412 1.2488-2.79 2.79-2.79 1.54 0 2.79 1.2488 2.79 2.79 0 1.54-1.25 2.79-2.79 2.79m0-6.1288c-1.845 0-3.3387 1.4951-3.3387 3.3388 0 1.845 1.4937 3.34 3.3387 3.34 1.845 0 3.3388-1.495 3.3388-3.34 0-1.8437-1.4938-3.3388-3.3388-3.3388"/><path d="M1247.9224 1048.2991c-1.5412 0-2.79-1.25-2.79-2.79 0-1.5412 1.2488-2.79 2.79-2.79 1.5413 0 2.7887 1.2488 2.7887 2.79 0 1.54-1.2474 2.79-2.7887 2.79m0-6.1288c-1.845 0-3.3387 1.4951-3.3387 3.3388 0 1.845 1.4937 3.34 3.3387 3.34 1.845 0 3.3375-1.495 3.3375-3.34 0-1.8437-1.4925-3.3388-3.3375-3.3388"/><path d="M1229.4615 1045.4852h1.82v-.545h-1.82v-2.12h2.43l-.2087-.5462h-2.7925v6.47h.5712v-3.2588z"/><path d="M1243.3819 1048.7444h.5913l-2.6113-6.8312-2.0875 5.44-2.08-5.44-2.6225 6.8312h.5913l2.0312-5.3375 1.7838 4.715.2937.7775 2.09-5.4925 2.02 5.3375z"/><path d="M1253.5404 1048.7444h.57v-5.9262h1.6688v-.5438h-3.6963l-.21.5438h1.6675v5.9262z"/><path d="M1263.0225 1048.2991c-1.54 0-2.79-1.25-2.79-2.79 0-1.5412 1.25-2.79 2.79-2.79 1.5413 0 2.7913 1.2488 2.7913 2.79 0 1.54-1.25 2.79-2.7913 2.79m0-6.1288c-1.8437 0-3.3387 1.4951-3.3387 3.3388 0 1.845 1.495 3.34 3.3387 3.34 1.845 0 3.34-1.495 3.34-3.34 0-1.8437-1.495-3.3388-3.34-3.3388"/><path d="M1305.1805 1042.8226h-.55v2.3988h.6038c.3987 0 .7575-.021 1.0874-.2688.2438-.1837.3888-.5337.3888-.9375 0-.3812-.1625-.86-.6187-1.0625-.2538-.1212-.575-.13-.9113-.13m1.9413 5.9225l-1.8813-2.9725h-.61v2.9725h-.5688v-6.4712h1.0451c.4837 0 1.0287 0 1.4887.3337.4375.3075.67.8013.67 1.425 0 .5925-.255 1.12-.685 1.4088-.2075.1374-.4438.2325-.7237.2837l1.9137 3.02h-.6487z"/><path d="M1280.0447 1042.8218h-.55v2.4h.6038c.3987 0 .7562-.021 1.0887-.2688.2438-.1824.3888-.5324.3888-.9362 0-.3812-.1613-.8612-.6188-1.0638-.2537-.1212-.5762-.1312-.9112-.1312m.059 2.9525h-.61v2.9712h-.5688v-6.4724h1.0476c.4825 0 1.0287 0 1.4875.335.44.3087.6724.8012.6724 1.425 0 .5937-.2637 1.1087-.6862 1.4099-.4525.3213-.885.3313-1.3425.3313"/><path d="M1283.737 1048.7446h.57v-6.47h-.57v6.47z"/><path d="M1294.0159 1048.7444h.57v-5.9262h1.6675v-.5438h-3.695l-.2112.5438h1.6687v5.9262z"/><path d="M1309.1647 1042.2744v6.47h2.8525l.2075-.545h-2.4887v-2.6462h2.3487v-.545h-2.3487v-2.19h2.92l-.2088-.5438h-3.2825z"/><path d="M1291.0534 1048.3486c-.2912.1875-.91.5-1.7912.5-.8913 0-1.73-.3487-2.3625-.98-1.3025-1.3012-1.3025-3.4187 0-4.7212.6325-.63 1.4712-.9775 2.3625-.9775 1.2562 0 1.9812.635 1.9812.635l.2663.7275s-.9188-.8138-2.2475-.8138c-.74 0-1.445.2888-1.9713.8163-.5275.53-.8187 1.2287-.8187 1.9725 0 .7462.2912 1.4462.8187 1.9712.5263.5275 1.2313.8175 1.9713.8175.9837 0 1.7437-.4475 2.0725-.6787l-.2813.7287z"/><path d="M1264.0439 1030.6438h.8412c.7913 0 1.3.1663 1.7576.58.5024.4613.78 1.0988.78 1.795 0 .645-.2551 1.255-.7151 1.7175-.4612.4513-1.0062.645-1.8225.645h-.8412v-4.7375zm3.2425-.054c-.735-.6813-1.4887-.82-2.3925-.82h-1.7275v6.4837h1.7275c.7963 0 1.6387-.1037 2.4287-.8625.6413-.62.9951-1.4625.9951-2.3725 0-.9425-.3663-1.805-1.0313-2.4287"/><path d="M1287.4414 1029.7721l-1.7025 2.8812-1.7025-2.8837h-.985l2.2512 3.8988v2.5862h.8713v-2.5862l2.2537-3.8963h-.9862z"/><path d="M1273.5746 1030.6179l-.325-.8475h-3.485v6.4825h3.0625l.3238-.8487h-2.5138v-2.195h2.3038v-.8488h-2.3038v-1.7425h2.9375z"/><path d="M1255.8667 1031.1927s-.9187-.6462-2.2362-.6462c-.655 0-1.275.2562-1.7425.7225-.4663.4662-.7213 1.0875-.7213 1.745 0 .6575.255 1.2762.7213 1.7425l.053.053c.4612.4337 1.06.67 1.69.67 1.1912 0 2.1675-.7213 2.1675-.7213l-.4088 1.0838c-.3125.19-.93.5175-1.7587.5175-.8913 0-1.7325-.3475-2.3663-.98-.63-.63-.9775-1.47-.9775-2.365 0-.895.3475-1.7363.9775-2.3663.6338-.6325 1.475-.98 2.3663-.98.96 0 1.6087.3675 1.8687.55l.3675.975z"/><path d="M1246.4629 1033.7653l.8375-2.06.835 2.06h-1.6725zm2.6825 2.4825h.915l-2.7588-6.7862-2.7587 6.7862h.915l.6662-1.6375h2.36l.665 1.6375z"/><path d="M1258.4319 1033.7653l.8363-2.06.8362 2.06h-1.6725zm2.68 2.4825h.9163l-2.7575-6.7862-2.76 6.7862h.915l.665-1.6375h2.3613l.6637 1.6375z"/><path d="M1280.6416 1029.4622l-1.9575 4.8163-1.96-4.8163-2.7587 6.785h.9138l1.8449-4.5412 1.9613 4.8225 1.9587-4.8225 1.8463 4.5412h.9137l-2.7587-6.785z"/></g></svg>