<svg xmlns="http://www.w3.org/2000/svg" role="img" viewBox="677.70 158.20 769.60 512.10"><title>ACES: Academy Color Encoding System logo</title><path d="M1297.4 179c0 3.3.4 6 .9 6 .4 0 .5.4.2 1-.4.7 22.2 1 66.9 1h67.6v-14h-135.7l.1 6zm-443.4-.1c-60.4 19.9-107.2 57.6-138.3 111.2-9.4 16.3-22.7 47.8-22.7 53.8 0 1 2.8 7.6 6.1 14.7l6.2 12.9 2.3-10.5c15.2-67.8 61.3-126.7 122.9-157 12.6-6.1 32.3-14.2 35-14.3.8 0 1.3-5.2.5-5.2-.1 0-.3-1.7-.4-3.7-.1-2 .2-3.4.6-3.2.4.3.5-.2.2-1-.3-.9-.7-1.6-.8-1.5 0 0-5.3 1.7-11.6 3.8zm443.4 209.6c0 2.5.4 4.5.9 4.5s.3.8-.4 1.7c-1.2 1.5-1.2 1.6.1.8s1.3-.7.1.8c-1.3 1.6 2.8 1.7 64.3 1.7h65.6v-14h-130.7l.1 4.5zM816.2 618.9c.2.4 2.3 5.4 4.8 11.1l4.5 10.3 6.2 2.8c3.4 1.6 12.4 4.9 19.9 7.4 10.6 3.6 13.9 4.3 14.8 3.4.8-.9.8-1-.1-.5-1 .5-1.1.1-.4-1.7.6-1.4.7-2.8.3-3.1-1-1.1-.8-7.5.3-6.8.5.3.4-.1-.2-.9-.7-.9-3.2-2.1-5.5-2.8-7.5-2.3-26-10.1-35.6-15.1-5.1-2.7-9.2-4.6-9-4.1zm481.1 26.6c.1 1.9.6 3.5 1.1 3.5.5 0 .2.8-.5 1.7-1.2 1.4-1.2 1.6 0 .8 1.1-.6 1.2-.5.5.6-2.5 4-3.9 3.9 66.7 3.9h67.9v-14h-136l.3 3.5z"/></svg>