<svg xmlns="http://www.w3.org/2000/svg" role="img" xmlns:xlink="http://www.w3.org/1999/xlink" viewBox="-3.81 -2.31 367.12 150.37"><title>ACES: Academy Color Encoding System logo</title><defs><style>.cls-8{fill:none}.cls-7{fill:#b89b34}.cls-8{stroke:#b89b34;stroke-linecap:round;stroke-linejoin:round;stroke-width:0}</style><linearGradient id="linear-gradient" x1="289.654" x2="356.267" y1="73.563" y2="73.563" gradientUnits="userSpaceOnUse"><stop offset="0" stop-color="#12aec9"/><stop offset="1" stop-color="#22bef0"/></linearGradient><linearGradient id="linear-gradient-2" x1="222.255" x2="274.925" y1="73.335" y2="73.335" gradientUnits="userSpaceOnUse"><stop offset="0" stop-color="#81bb41"/><stop offset="1" stop-color="#15958a"/></linearGradient><linearGradient id="linear-gradient-3" x1="102.525" x2="195.761" y1="39.279" y2="39.279" gradientUnits="userSpaceOnUse"><stop offset="0" stop-color="#ee3640"/><stop offset="1" stop-color="#fbc52a"/></linearGradient><linearGradient id="linear-gradient-4" x1="131.264" x2="195.779" y1="122.615" y2="122.615" xlink:href="#linear-gradient-3"/></defs><path fill="#b99c35" d="M120.668 141.017c-1.375.217-2.208-.5-2.836-1.932Q99.833 98.06 81.758 57.07q-8.672-19.698-17.364-39.387c-.261-.59-.295-1.616-1.165-1.522-.73.08-.845 1.041-1.117 1.66Q54.369 35.37 46.66 52.936 30.5 89.66 14.334 126.377c-1.854 4.211-3.816 8.377-5.544 12.639-.92 2.266-2.623 2.206-4.417 1.902-1.61-.273-.793-1.396-.457-2.171 2.198-5.081 4.433-10.147 6.664-15.214q18.523-42.071 37.05-84.142 7.258-16.485 14.52-32.97c.267-.604.359-1.597 1.185-1.553.79.043.814 1.033 1.083 1.645q28.629 64.972 57.24 129.952c.283.642.596 1.271.881 1.913 1.073 2.41.9 2.678-1.871 2.639z"/><path fill="url(#linear-gradient)" d="M321.55 131.644c-14.906.014-24.87-7.598-31.456-20.43-.624-1.215-.76-2.074.782-2.781 1.536-.704 2.357-.492 3.106 1.08 3.273 6.876 7.866 12.585 15.014 15.732 17.424 7.672 39.894-1.165 42.443-23.353 1.013-8.815-3.685-17.305-12.324-22.152-7.215-4.049-14.721-7.524-22.085-11.28a352.239 352.239 0 0 1-8.065-4.261c-12.512-6.797-15.904-19.356-11.477-31.631 3.67-10.179 11.42-15.6 21.957-16.822 11.867-1.376 21.863 2.22 29.05 12.21.6.833 1.545 1.687.33 2.833-1.16 1.093-1.94 1.752-3.194-.14-8.142-12.293-23.623-13.805-33.142-8.958-7.479 3.808-11.132 10.162-11.909 18.344-.96 10.116 3.796 16.931 12.348 21.694 7.982 4.447 16.43 7.94 24.493 12.211a54.526 54.526 0 0 1 10.164 6.641c8.001 6.874 10.059 15.65 7.854 25.622-2.831 12.803-13.779 22.771-27.12 24.933a34.027 34.027 0 0 1-6.768.508z"/><path fill="url(#linear-gradient-2)" d="M222.3 73.164q0-26.444.002-52.887c0-3.367.014-3.385 3.39-3.387q23.05-.015 46.1.004c1.023.001 2.279-.397 2.881.935.745 1.648-.207 2.874-2.31 2.88q-13.807.038-27.614.02c-5.226 0-10.454.048-15.679-.04-1.84-.031-2.439.646-2.432 2.458q.078 20.125-.011 40.25c-.012 2.099.746 2.655 2.736 2.645 13.807-.067 27.614-.04 41.42-.032a3.827 3.827 0 0 1 2.495.353c.63.48.561 1.243.487 1.95a1.394 1.394 0 0 1-1.269 1.44 23.8 23.8 0 0 1-2.334.094c-13.495.003-26.99.05-40.484-.05-2.359-.017-3.074.681-3.061 3.053q.136 25.039.001 50.078c-.012 2.346.66 3.094 3.043 3.078 14.04-.1 28.081-.06 42.122-.036 1.024.002 2.28-.397 2.887.928.753 1.64-.204 2.88-2.299 2.887q-11.35.043-22.7.021c-8.112-.002-16.225-.086-24.336.024-2.353.032-3.09-.715-3.08-3.078.083-17.862.046-35.725.045-53.588z"/><path fill="url(#linear-gradient-3)" d="M105.632 63.169c-2.08-3.044-4.173-5.614-2.499-9.738 8.858-21.818 24.778-34.5 48.1-37.53 15.664-2.034 29.813 2.014 42.275 11.825 1.54 1.212 2.484 2.54 2.203 4.55-.082.589.272 1.401-.379 1.705-.69.323-1.053-.486-1.49-.876a53.033 53.033 0 0 0-87.414 26.757c-.272 1.1-.531 2.205-.796 3.307z"/><path fill="url(#linear-gradient-4)" d="M131.264 120.603c1.444.697 2.869 1.435 4.334 2.083 20.907 9.243 40.119 6.091 57.848-7.923.58-.459 1.074-1.537 1.842-1.16.858.422.305 1.552.42 2.364a3.654 3.654 0 0 1-1.727 3.572 56.148 56.148 0 0 1-32.343 12.09 63.064 63.064 0 0 1-25.895-4.232c-3.237-1.237-3.776-3.904-4.48-6.794z"/><path fill="none" d="M75.148 140.602a.938.938 0 0 0 .454-.309.938.938 0 0 1-.454.309zm.724-.369a.889.889 0 0 0 .296-.166.889.889 0 0 1-.296.166zm0 0a1.508 1.508 0 0 1-.27.06 1.508 1.508 0 0 0 .27-.06zm-2.242-2.148a3.569 3.569 0 0 1-.104.883 3.568 3.568 0 0 0 .103-.883zm-23.564 1.103a4.482 4.482 0 0 1-.023.841 4.478 4.478 0 0 0 .023-.841z"/><path d="M80.071 130.668c-.311-.786-.656-1.026-1.367-1.028-1.35-.004-2.7-.014-4.049.002-.616.007-1.205-.121-1.438-.713a2.579 2.579 0 0 0-2.53-1.575c-.771-.07-1.547-.132-2.31-.264-2.054-.356-2.588-1.018-2.63-3.13a33.295 33.295 0 0 1 .602-5.966c.488-3.019 1.101-6.024.67-9.122a8.199 8.199 0 0 1 .063-3.174 55.467 55.467 0 0 0 1.394-6.707 28.798 28.798 0 0 0-.715-7.507c-.121-.452-.045-.802.463-.954 1.386-.415 1.898-1.492 2.232-2.788a19.53 19.53 0 0 1 .957-3.506l-.004-.001c.051-1.631.571-3.202.555-4.852-.029-2.926-.595-3.796-3.364-4.814a11.18 11.18 0 0 1-1.583-.649 2.668 2.668 0 0 1-1.35-3.702 9.853 9.853 0 0 0 .634-3.588 3.214 3.214 0 0 0-1.527-3.004 3.822 3.822 0 0 0-3.853.158 1.899 1.899 0 0 0-.985 1.479 9.578 9.578 0 0 0 .465 4.98 2.48 2.48 0 0 1-1.23 3.596c-.922.51-1.94.849-2.908 1.277a3.304 3.304 0 0 0-2.027 3.096c-.054 1.181.014 2.367.028 3.551l-.012.007 1.388 5.928a3.272 3.272 0 0 0 2.26 2.92c.637.191.42.717.317 1.131-.771 3.095-.523 6.238-.415 9.368a7.28 7.28 0 0 0 .584 1.83 16.73 16.73 0 0 1 .706 6.901 19.077 19.077 0 0 0 .164 5.626c.363 1.788.668 3.586.98 5.381a14.712 14.712 0 0 1 .14 3.674 2.281 2.281 0 0 1-2.194 2.491c-1.039.2-2.095.323-3.15.424a2.215 2.215 0 0 0-1.961 1.25 1.684 1.684 0 0 1-1.805.955c-1.103-.046-2.216.061-3.313-.036a1.75 1.75 0 0 0-2.004 1.325c-1.228 3.028-2.535 6.024-3.827 9.025-.122.284-.126.66-.49.803l.06.254h8.6c-.145-.187-.286-.379-.439-.56a1.85 1.85 0 0 1-.014-2.633 2.121 2.121 0 0 1 2.485-.125 1.66 1.66 0 0 1 .535 1.866 2.758 2.758 0 0 1-.353.71h.006l-.499.742h4.67c-.217-1.4-.654-1.57-2.165-.702l1.238-2.988a23.026 23.026 0 0 1 1.418 3.69h.737a24.628 24.628 0 0 1 1.349-3.764 9.18 9.18 0 0 1 .974 2.723c-.646-.38-.508-1.09-.975-1.561a13.17 13.17 0 0 0-1.102 2.602h4.424a13.036 13.036 0 0 0-1.026-2.582c-.28.083-.213.488-.6.484-.119-.575.341-.935.512-1.535a31.903 31.903 0 0 1 1.605 3.633h.738c.005-.9 0-1.799.021-2.698.01-.381-.13-.885.502-.927.51-.033 1.001.016 1.203.604.168.489.049 1.057-.401 1.144-1.284.246-.859 1.124-.834 1.877h1.72l1.306-3.542a5.41 5.41 0 0 1 1.154 2.656c-1.386-.649-1.735-.479-1.968.886h3.44l-.377-.728c.386-.211.515.197.775.247.394.076.788.037.971-.325.179-.353-.168-.586-.403-.794a5.323 5.323 0 0 0-.61-.405c-.452-.298-.776-.714-.446-1.22.373-.572.909-.549 1.494-.1-.412.25-1.008-.213-1.168.396-.147.556.408.638.707.86.816.604 1.044 1.261.287 2.07h2.703c-.418-.951-1.594-1.839-.257-2.936v-.024l.03-.008c.612-.937 1.422-.717 2.252-.382-.815-.269-1.51.21-2.253.382-.005.008-.012.013-.017.022l-.012.01a3.568 3.568 0 0 1-.103.883 2.621 2.621 0 0 0-.045.388 1.051 1.051 0 0 0 .032.3c.078.285.312.517.87.639l-.016-.016h-.001l.018-.014v-1.912c1.131.237 1.03.969.974 1.676l.005.006.008.008c.147 0 .195.093.22.21l.026.026-.015.015a1.508 1.508 0 0 0 .27-.061.889.889 0 0 0 .296-.166.778.778 0 0 0 .182-.207 1.181 1.181 0 0 0 .126-.36c.018-.087.03-.176.038-.267.014-.136.023-.275.039-.41.009-.082.021-.162.037-.239l-.007-.014-.008-.031-.2-.198.127-.1.073.298.02.02-.005.025c.66 1.082-.127 1.733-.738 2.437h8.356l.186-.261c-1.456-3.358-2.976-6.69-4.323-10.092zm-6.443 7.393l.013.014-.013-.014z" class="cls-7"/><path d="M52.498 140.292l.001-.013-.678.062a1.159 1.159 0 0 1-1.765-.296h-.016l.003-.016c-.707-.597-.442-1.254-.02-1.826a1.5 1.5 0 0 1 2.56 1.244c-.046.274-.057.555-.084.832h.007a2.758 2.758 0 0 0 .353-.711 1.66 1.66 0 0 0-.535-1.866 2.121 2.121 0 0 0-2.485.125 1.85 1.85 0 0 0 .014 2.632c.153.182.294.374.44.561h1.72l.499-.742zm0 0l.014-.014-.014.014zm23.104.001zm.981-1.723l.007.014.005-.025z" class="cls-7"/><path d="M73.513 139.656a1.051 1.051 0 0 1-.032-.3" class="cls-8"/><path d="M73.628 138.06l.001.025z" class="cls-7"/><path d="M76.59 138.584l.005-.025" class="cls-8"/><path d="M73.64 138.075l-.012-.014.001.024zm1.962 2.218l.015-.015-.015.015zm-.977-.304c.181-.245.37-.458.733.04.055-.708.157-1.44-.974-1.676v1.912a.566.566 0 0 0 .09-.082c.053-.058.102-.127.151-.194zm-.259.29h.001-.001zm1.544-2.609c-.829-.334-1.639-.554-2.252.383.744-.173 1.438-.651 2.253-.382z" class="cls-7"/><path d="M73.658 138.053l-.03.008.013.014c.005-.009.012-.014.017-.022zm2.717.288l.2.198-.073-.298zm.2.198l.008.03.012-.01zm-1.205 1.504l.22.21c-.024-.117-.072-.211-.22-.21zm-22.872.249l.008-.013h-.007zm0 0l.008-.013-.008.013zm-2.455-.262l-.003.014.003-.015z" class="cls-7"/><path d="M52.512 140.278h-.006l-.008.014zm-2.456-.233a1.159 1.159 0 0 0 1.765.296l-.086-.09c-.596.227-1.109-.222-1.679-.206zm25.092.557a.938.938 0 0 0 .454-.309H75.6c-.002-.014-.007-.026-.01-.04l-.22-.21c-.005 0-.008-.003-.013-.002v-.012c-.362-.498-.55-.285-.732-.04-.05.067-.098.136-.15.194a.566.566 0 0 1-.09.082v.03h-.001a.81.81 0 0 0 .764.307zm-.764-.337l-.018.014.018-.014z" class="cls-7"/><path d="M75.6 140.294l.017-.015v-.001l-.017.016zm0 0l.002-.001-.002.001z" class="cls-7"/><path d="M74.367 140.28l.017.015zm1.235.013l.015-.014-.017.015zm-1.127-.11a.566.566 0 0 1-.09.082.566.566 0 0 0 .09-.082z" class="cls-7"/><path d="M74.625 139.989c-.05.067-.098.136-.15.194" class="cls-8"/><path d="M75.363 140.035l-.005-.006-.001.012zm-.979.23l-.018.014.018.016z" class="cls-7"/><path d="M74.366 140.279h.001l.017.016-.018-.016zm1.251-.001l-.026-.025.009.04zm-.247-.235l-.007-.008-.006.006.014.002zm-10.734-1.107a.665.665 0 0 0 .621-.695.576.576 0 0 0-.575-.429c-.49 0-.433.383-.44.69-.005.248.045.515.394.434zm-12.901 1.316c-.024-.758-.787-.218-1.094-.636-.375-.51.118-.898.1-1.388a.966.966 0 0 0-.62.595 1.115 1.115 0 0 0-.045.223 1.743 1.743 0 0 0-.01.142 4.478 4.478 0 0 1-.023.842l.006.005.007.01c.57-.016 1.083.433 1.679.207z" class="cls-7"/><path d="M50.076 139.046a1.743 1.743 0 0 0-.01.142" class="cls-8"/><path d="M50.043 140.03l-.003.014.009-.009zm-.003.014l.016.001-.007-.01z" class="cls-7"/></svg>