<svg xmlns="http://www.w3.org/2000/svg" role="img" viewBox="-9.07 -9.07 471.64 136.14"><title>Adobe Inc. logo</title><defs><style>.cls-1{fill:#fa0f00}</style></defs><path d="M195.93 78.75l-4.89 15.08a1.1 1.1 0 0 1-1.12.82h-11.87c-.71 0-.92-.41-.81-1l20.39-58.85a18.89 18.89 0 0 0 1-6.22.68.68 0 0 1 .61-.71h16.31c.51 0 .71.1.82.61l23.14 65.25c.2.51.1.92-.51.92h-13.23a1 1 0 0 1-1.13-.71l-5.2-15.19zM215.71 66c-2-6.73-6.12-19.06-8.05-26.3h-.1c-1.64 6.83-5.31 18-8 26.3zm25.43 3.77c0-14.58 10.91-26.81 29.57-26.81.81 0 1.83.1 3.36.2V23.08a.64.64 0 0 1 .71-.71h12.85c.51 0 .61.2.61.61v60.25a56.68 56.68 0 0 0 .41 7.44c0 .51-.1.72-.71.92a51.21 51.21 0 0 1-20.09 4.08c-15.09 0-26.71-8.56-26.71-25.9zm32.93-14.47a10.53 10.53 0 0 0-3.77-.51c-7.85 0-14.58 4.79-14.58 14.27 0 10.09 5.81 14.48 13.56 14.48a14.38 14.38 0 0 0 4.79-.61zm72.56 13.76c0 16-10.4 26.61-25.08 26.61-17.44 0-25.18-13.15-25.18-26.3 0-14.48 9.68-26.41 25.38-26.41 16.42 0 24.88 12.34 24.88 26.1zm-35.89.1c0 9 4.18 14.68 11 14.68 5.92 0 10.4-5.09 10.4-14.47 0-8-3.26-14.58-11-14.58-5.91 0-10.4 5.3-10.4 14.37zm57.32-46.79c.81 0 1 .1 1 .81v20.9a32.93 32.93 0 0 1 8.56-1.12c15 0 24.47 10.6 24.47 24.26 0 19.07-15.09 28.45-30.58 28.45a53.11 53.11 0 0 1-16-2.35 1.18 1.18 0 0 1-.61-1V23.08c0-.51.2-.71.71-.71zm7 32.62a20.49 20.49 0 0 0-6 .82v27.68a16.11 16.11 0 0 0 3.77.4c7.75 0 14.78-4.69 14.78-15.29.02-9.33-5.38-13.61-12.52-13.61zm46.98 18.05c.51 5.81 4.59 10.6 14.58 10.6a31.41 31.41 0 0 0 12.54-2.35c.31-.2.61-.1.61.51v9.69c0 .71-.2 1-.71 1.22-4.08 1.94-8.56 3-15.6 3-19.17 0-25.89-13.15-25.89-25.79 0-14.07 8.66-26.92 24.67-26.92 15.39 0 21.51 11.93 21.51 22a32.37 32.37 0 0 1-.51 6.83.88.88 0 0 1-.82.82 95.25 95.25 0 0 1-10.5.41zm13.26-9.89a32.77 32.77 0 0 0 5.09-.21v-.71a8.29 8.29 0 0 0-8.66-8.06c-6.42 0-9.18 4.8-9.79 9z" class="cls-1"/><path d="M84.13 0h49.33v118.11L84.13 0zM49.37 0H0v118.11L49.37 0zm17.38 43.53l31.43 74.58h-20.6l-9.4-23.75h-23l21.57-50.83z" class="cls-1"/></svg>