<svg xmlns="http://www.w3.org/2000/svg" role="img" viewBox="-7.99 62.01 415.74 111.24"><title>Advanced Micro Devices, Inc logo</title><g><g><path d="M696.621 265.754H587.52l-33.379 80.508H372.309L341.902 265.754H234.598l163.941 406.59H515.977zM458.75 575.184L399.137 417.207h125.187zM1092.93 672.344h88.23V265.754H1079.8V519.727L970.117 392.156h-15.5L844.934 519.727V265.754h-101.36v406.59h88.235L962.363 521.516 1092.93 672.344M1437.98 672.344c148.43 0 224.73-92.395 224.73-203.875 0-116.848-73.9-202.715-236.06-202.715h-168.11v406.59zm-78.1-332.071h66.17c101.94 0 132.35 69.161 132.35 128.79 0 69.753-37.56 128.757-133.55 128.757h-64.97V340.273M2074.02 575.938h-209.66l-127.8 127.824h465.26V238.484l-127.8 127.817v209.637M1864.22 366.141V550.32L1732.64 418.75V234.559h184.15l131.57 131.582h-184.14" transform="matrix(.20333 0 0 -.20333 -47.701 213.097)"/></g></g></svg>