<svg xmlns="http://www.w3.org/2000/svg" role="img" viewBox="-7.99 62.01 415.74 111.24"><title>Advanced Micro Devices (AMD) logo</title><path d="M93.94295 159.06124h-22.1835l-6.78696-16.3697h-36.9719l-6.18266 16.3697H-.00019l33.33412-82.67195H57.2126zm-48.36631-62.9164L33.45553 128.2663H58.9098zm128.94782-19.75555h17.9398v82.67195h-20.60953V107.4209l-22.30184 25.93901h-3.15162l-22.30184-25.93901v51.64033H103.4899V76.38929h17.94082l26.54555 30.66786 26.54819-30.66786m70.15901 0c30.18028 0 45.69435 18.78668 45.69435 41.4539 0 23.75871-15.02608 41.21805-47.99808 41.21805h-34.1818V76.38929zm-15.88007 67.52h13.45435c20.72746 0 26.91072-14.0625 26.91072-26.18687 0-14.18288-7.63707-26.18016-27.15472-26.18016H228.8034v52.36703m145.20609-47.91776h-42.63017l-25.98558-25.99046h94.60132v94.60498l-25.98557-25.98903v-42.6255m-42.65864 42.65803v-37.44912l-26.75416 26.75213v37.45156h37.44322l26.75213-26.75457h-37.44119"/></svg>