<svg xmlns="http://www.w3.org/2000/svg" role="img" viewBox="-5.05 -4.80 212.34 262.34"><title>Affogato logo</title><path d="M85.835 201.457c-32.215-5.019-60.44-25.732-74.809-54.898-14.383-29.195-14.383-60.923 0-90.118 9.589-19.464 25.95-35.826 45.415-45.415C68.519 5.076 77.903 2.39 92.144.806c23.038-2.562 47.594 4.006 67.493 18.05 44.718 31.562 56.213 93.074 25.905 138.624-15.934 23.947-40.779 39.74-69.272 44.036-11.68 1.76-18.842 1.746-30.435-.06zM122 192.47c63.532-15.045 93.102-89.122 56.924-142.607C161.024 23.4 133.2 8.555 101.5 8.555c-26.087 0-46.934 8.693-65.593 27.352C17.248 54.566 8.555 75.413 8.555 101.5c0 25.07 8.487 46.216 25.776 64.225 15.086 15.713 32.57 24.784 54.483 28.266 7.55 1.2 25.09.396 33.186-1.521zM138 129v-26h9.184c11.462 0 16.852 2.19 19.85 8.066 6.93 13.584-4.92 29.982-18.791 26.004l-3.243-.93V155h-7zm17.401 1.606c4.661-1.948 6.599-5.15 6.599-10.905 0-4.033-.495-5.35-2.923-7.778-2.532-2.532-3.67-2.923-8.5-2.923H145v10.532c0 9.988.116 10.58 2.25 11.437 3.17 1.274 4.36 1.22 8.151-.363zm-39.901 6.713c-7.554-1.697-8.5-2.365-8.5-6.004 0-2.979.273-3.413 1.75-2.782 10.262 4.379 13.37 4.305 14.063-.335.243-1.627-1.155-3.056-6.233-6.371-8.797-5.743-10.405-9.114-7.38-15.467 2.042-4.285 9.753-5.66 16.332-2.911 2.883 1.204 3.468 1.964 3.468 4.5 0 3.421-.434 3.59-4 1.551-3.26-1.864-8.434-1.887-9.964-.044-1.579 1.903-.882 2.88 4.765 6.678C127.981 121.636 130 123.984 130 128c0 4.471-2.649 7.532-7.743 8.947-2.067.573-3.982.993-4.257.932-.275-.06-1.4-.312-2.5-.56zM79 120v-17h3c2.788 0 3 .26 3 3.666v3.667l3.971-4.302c3.623-3.924 4.29-4.25 7.59-3.715 6.005.975 7.79 3.455 5.117 7.11-1.238 1.693-1.523 1.705-4.444.195-3.851-1.991-7.33-.93-9.922 3.026-1.369 2.089-1.881 5.296-2.163 13.545L84.779 137H79z"/><path d="M56.396 213.703c-2.434 0-4.296.697-5.585 2.09-1.29 1.38-1.934 3.366-1.934 5.957v.723h-2.48v3.086h2.48v18.73h3.672v-18.73h6.504v-3.086h-6.621v-.743c0-1.822.351-3.079 1.054-3.77.716-.702 1.862-1.054 3.438-1.054a8.9 8.9 0 0 1 1.719.196c.65.117 1.178.234 1.582.351h.195v-3.36a25.992 25.992 0 0 0-1.816-.273 18.683 18.683 0 0 0-2.208-.117zm14.063 0c-2.435 0-4.297.697-5.586 2.09-1.289 1.38-1.934 3.366-1.934 5.957v.723h-2.48v3.086h2.48v18.73h3.672v-18.73h6.504v-3.086h-6.62v-.743c0-1.822.35-3.079 1.054-3.77.716-.702 1.862-1.054 3.437-1.054a8.9 8.9 0 0 1 1.72.196c.65.117 1.177.234 1.581.351h.195v-3.36a25.992 25.992 0 0 0-1.816-.273 18.683 18.683 0 0 0-2.207-.117zm-41.64 1.504l-10.587 29.082h3.926l2.852-8.105h12.578l2.851 8.105h4.122l-10.586-29.082zm121.347.996v6.27h-2.48v3.086h2.48v11.601c0 2.643.58 4.564 1.738 5.762 1.16 1.198 2.852 1.797 5.078 1.797.638 0 1.361-.059 2.168-.176a19.93 19.93 0 0 0 2.266-.45v-3.3h-.195c-.287.117-.756.267-1.407.45a7.448 7.448 0 0 1-1.875.253c-1.028 0-1.796-.117-2.304-.351a2.703 2.703 0 0 1-1.172-1.153 4.376 4.376 0 0 1-.547-1.797c-.052-.65-.078-1.55-.078-2.695v-9.941h7.578v-3.086h-7.578v-6.27zm-118.867 2.383l5.097 14.277H26.182zm54.043 3.281c-3.086 0-5.54 1.035-7.363 3.106-1.81 2.057-2.715 4.863-2.715 8.418 0 3.554.905 6.36 2.715 8.418 1.822 2.057 4.277 3.086 7.363 3.086 3.06 0 5.501-1.03 7.324-3.086 1.823-2.058 2.734-4.864 2.734-8.418 0-3.555-.911-6.361-2.734-8.418-1.823-2.07-4.264-3.106-7.324-3.106zm23.906 0c-1.198 0-2.402.26-3.613.781a8.667 8.667 0 0 0-3.086 2.149c-.912.99-1.634 2.168-2.168 3.535-.521 1.354-.781 2.969-.781 4.844 0 3.424.761 6.08 2.285 7.969 1.536 1.875 3.607 2.812 6.21 2.812 1.563 0 2.846-.215 3.848-.644 1.016-.443 2.077-1.107 3.184-1.993v1.993c0 .885-.098 1.686-.293 2.402a4.457 4.457 0 0 1-.977 1.836c-.455.534-1.093.95-1.914 1.25-.82.3-1.855.449-3.105.449a14.93 14.93 0 0 1-3.906-.527c-1.302-.339-2.253-.625-2.852-.86h-.195v3.75c1.067.3 2.148.528 3.242.684 1.107.17 2.24.254 3.398.254 3.49 0 6.075-.866 7.754-2.598 1.68-1.732 2.52-4.446 2.52-8.144v-19.336h-3.438l-.234.937c-.95-.52-1.856-.905-2.715-1.152-.846-.26-1.9-.39-3.164-.39zm65.156 0c-3.086 0-5.54 1.035-7.363 3.106-1.81 2.057-2.715 4.863-2.715 8.418 0 3.554.905 6.36 2.715 8.418 1.823 2.057 4.277 3.086 7.363 3.086 3.06 0 5.502-1.03 7.325-3.086 1.822-2.058 2.734-4.864 2.734-8.418 0-3.555-.912-6.361-2.734-8.418-1.823-2.07-4.265-3.106-7.325-3.106zm-40.918.078c-1.315 0-2.65.117-4.004.352-1.354.234-2.389.45-3.105.644v3.73h.195a24.206 24.206 0 0 1 3.672-1.093c1.185-.26 2.26-.39 3.223-.39.794 0 1.556.052 2.285.156.73.104 1.354.306 1.875.605.547.313.963.742 1.25 1.29.3.546.45 1.236.45 2.07v.566c-2.136.104-4.135.26-5.997.469-1.862.208-3.457.605-4.785 1.191-1.315.586-2.33 1.393-3.047 2.422-.703 1.016-1.055 2.35-1.055 4.004 0 2.018.684 3.678 2.051 4.98 1.367 1.302 3.034 1.954 5 1.954 1.068 0 1.999-.105 2.793-.313a10.506 10.506 0 0 0 2.11-.742 9.44 9.44 0 0 0 1.601-.938 62.83 62.83 0 0 1 1.328-.937v2.324h3.653v-14.805c0-1.406-.215-2.584-.645-3.535a5.763 5.763 0 0 0-1.875-2.324c-.833-.612-1.823-1.042-2.969-1.29-1.133-.26-2.467-.39-4.004-.39zm-48.144 3.086c1.966 0 3.502.69 4.61 2.07 1.106 1.368 1.66 3.464 1.66 6.29 0 2.76-.56 4.843-1.68 6.25-1.107 1.393-2.637 2.09-4.59 2.09-1.98 0-3.522-.704-4.63-2.11-1.106-1.42-1.66-3.496-1.66-6.23 0-2.826.548-4.922 1.641-6.29 1.107-1.38 2.657-2.07 4.649-2.07zm89.062 0c1.966 0 3.503.69 4.61 2.07 1.106 1.368 1.66 3.464 1.66 6.29 0 2.76-.56 4.843-1.68 6.25-1.107 1.393-2.637 2.09-4.59 2.09-1.979 0-3.522-.704-4.629-2.11-1.106-1.42-1.66-3.496-1.66-6.23 0-2.826.547-4.922 1.64-6.29 1.108-1.38 2.657-2.07 4.65-2.07zm-64.511.137c.833 0 1.666.098 2.5.293.846.182 1.757.495 2.734.937v11.895a11.832 11.832 0 0 1-2.969 1.66 9.003 9.003 0 0 1-3.203.606c-1.992 0-3.418-.632-4.277-1.895-.86-1.263-1.29-3.118-1.29-5.566 0-2.578.58-4.545 1.739-5.899 1.159-1.354 2.747-2.031 4.766-2.031zm29.433 7.676v6.074a16.316 16.316 0 0 1-2.969 1.816c-1.067.495-2.246.743-3.535.743-1.55 0-2.702-.313-3.457-.938-.755-.638-1.133-1.582-1.133-2.832 0-1.107.326-1.973.977-2.598.651-.638 1.504-1.106 2.559-1.406.885-.247 2.083-.436 3.593-.566 1.524-.13 2.845-.228 3.965-.293z"/></svg>