<svg xmlns="http://www.w3.org/2000/svg" role="img" viewBox="-0.56 -2.56 214.12 276.12"><title>Affogato logo</title><path d="M93.763 105.259v7.87l.373-.597q4.924-7.944 9.847-7.944 3.842 0 8.021 3.879l-3.582 5.968q-3.544-3.357-6.565-3.357a7.033 7.033 0 0 0-5.688 3.133 11.834 11.834 0 0 0-2.406 7.423v17.94h-6.826V105.26zm21.299 31.854v-7.311a30.942 30.942 0 0 0 5.875 3.264 13.699 13.699 0 0 0 5.054 1.25 6.326 6.326 0 0 0 3.656-1.045 3.004 3.004 0 0 0 1.529-2.5 3.365 3.365 0 0 0-.99-2.48 23.058 23.058 0 0 0-4.27-2.853q-6.565-3.654-8.597-6.247a8.961 8.961 0 0 1-2.033-5.651 7.934 7.934 0 0 1 3.077-6.453 12.172 12.172 0 0 1 7.926-2.5 21.828 21.828 0 0 1 10.332 2.836v6.714q-6.042-3.655-9.885-3.656a5.489 5.489 0 0 0-3.188.84 2.584 2.584 0 0 0-1.213 2.222 3.193 3.193 0 0 0 1.099 2.279 18.73 18.73 0 0 0 3.86 2.61l2.424 1.38q8.58 4.849 8.582 10.74a8.547 8.547 0 0 1-3.3 6.916 12.963 12.963 0 0 1-8.487 2.703 20.711 20.711 0 0 1-5.446-.652 36.678 36.678 0 0 1-6.005-2.406zm30.623 19.955v-51.809h11.884q9.126 0 14.212 4.55 5.086 4.552 5.086 12.72a17.513 17.513 0 0 1-4.786 12.681 16.212 16.212 0 0 1-12.196 4.961 21.372 21.372 0 0 1-7.263-1.454v18.35zm11.738-45.468h-4.8v21.111a14.164 14.164 0 0 0 6.55 1.605 10.085 10.085 0 0 0 7.798-3.32 12.167 12.167 0 0 0 3.033-8.542 11.98 11.98 0 0 0-1.434-5.93 8.684 8.684 0 0 0-3.907-3.749 17.471 17.471 0 0 0-7.24-1.175z"/><path d="M106.559 206.433a101.814 101.814 0 1 1 101.814-101.815A101.93 101.93 0 0 1 106.56 206.433zm0-195.63a93.814 93.814 0 1 0 93.814 93.815 93.92 93.92 0 0 0-93.814-93.814zM25.945 225.754h7.738L45.26 258.48h-7.416l-2.159-6.727h-12.05l-2.219 6.727h-7.152zm-.45 20.359h8.381l-4.134-12.878zm33.431-20.659q.488.034 1.332.1v5.15q-.533-.066-1.788-.1a2.054 2.054 0 0 0-1.731.556 2.012 2.012 0 0 0-.478 1.298v2.043h4.152v4.463h-4.152v19.515H49.98v-19.515h-3.553v-4.463h3.464v-1.554q0-3.884 1.31-5.35 1.376-2.177 6.638-2.176.599 0 1.088.033zm15.141 0q.488.034 1.332.1v5.15q-.533-.066-1.788-.1a2.054 2.054 0 0 0-1.731.556 2.012 2.012 0 0 0-.478 1.298v2.043h4.152v4.463h-4.152v19.515H65.12v-19.515h-3.553v-4.463h3.464v-1.554q0-3.884 1.31-5.35 1.376-2.177 6.638-2.176.6 0 1.088.033zm25.309 30.065q-3.063 3.78-9.302 3.781-6.239 0-9.302-3.781a15.014 15.014 0 0 1 0-18.179q3.064-3.838 9.302-3.838 6.238 0 9.302 3.838a15.014 15.014 0 0 1 0 18.179zm-5.062-3.497a11.296 11.296 0 0 0 0-11.207 5.623 5.623 0 0 0-8.536 0 11.226 11.226 0 0 0 0 11.207 5.604 5.604 0 0 0 8.536 0zm24.626-17.765a7.6 7.6 0 0 1 3.726 3.508v-3.486h6.172v22.957q0 4.684-1.576 7.06-2.71 4.085-10.39 4.084a14.153 14.153 0 0 1-7.571-1.82 6.715 6.715 0 0 1-3.242-5.44h6.882a2.85 2.85 0 0 0 .867 1.599 5.346 5.346 0 0 0 3.441.866q3.418 0 4.573-2.287a11.584 11.584 0 0 0 .755-4.929v-1.553a7.723 7.723 0 0 1-1.954 2.33 7.856 7.856 0 0 1-4.906 1.444 9.282 9.282 0 0 1-7.448-3.275q-2.787-3.274-2.787-8.87a14.963 14.963 0 0 1 2.683-9.069 8.86 8.86 0 0 1 7.606-3.674 8.309 8.309 0 0 1 3.17.555zm2.156 17.35q1.526-1.675 1.525-5.34a8.193 8.193 0 0 0-1.448-5.239 4.724 4.724 0 0 0-3.88-1.798 4.573 4.573 0 0 0-4.576 3.13 11.142 11.142 0 0 0-.663 4.108 9.407 9.407 0 0 0 .707 3.752 4.611 4.611 0 0 0 4.598 3.063 4.86 4.86 0 0 0 3.737-1.675zm23.231-7.848a10.006 10.006 0 0 0 2.527-.555 1.903 1.903 0 0 0 1.365-1.799 2.127 2.127 0 0 0-1.046-2.053 6.624 6.624 0 0 0-3.072-.566 4.035 4.035 0 0 0-3.218 1.11 4.576 4.576 0 0 0-.9 2.22h-6.106a9.263 9.263 0 0 1 1.784-5.217q2.52-3.197 8.652-3.197a15.43 15.43 0 0 1 7.09 1.577q3.099 1.576 3.099 5.949v11.101q0 1.155.045 2.797a3.515 3.515 0 0 0 .377 1.688 2.264 2.264 0 0 0 .933.732v.933h-6.883a7.055 7.055 0 0 1-.4-1.377q-.111-.643-.177-1.465a13.05 13.05 0 0 1-3.038 2.42 9.178 9.178 0 0 1-4.644 1.177 8.017 8.017 0 0 1-5.46-1.876 6.672 6.672 0 0 1-2.155-5.318 6.892 6.892 0 0 1 3.466-6.46 15.491 15.491 0 0 1 5.592-1.554zm3.87 2.953a6.963 6.963 0 0 1-1.227.61 10.348 10.348 0 0 1-1.7.433l-1.44.267a9.474 9.474 0 0 0-2.908.866 2.89 2.89 0 0 0-1.494 2.686 2.804 2.804 0 0 0 .913 2.342 3.466 3.466 0 0 0 2.22.722 6.61 6.61 0 0 0 3.82-1.2q1.748-1.198 1.815-4.372zm9.347-7.704v-4.507h3.375v-6.749h6.26v6.75h3.93v4.506h-3.93v12.788a2.875 2.875 0 0 0 .379 1.854 4.153 4.153 0 0 0 2.308.366 16.743 16.743 0 0 0 1.243-.044v4.728l-2.997.112q-4.485.155-6.128-1.554a4.63 4.63 0 0 1-1.065-3.353v-14.897zm37.81 16.511q-3.063 3.78-9.303 3.781-6.239 0-9.302-3.781a15.012 15.012 0 0 1 0-18.179q3.063-3.838 9.302-3.838t9.303 3.838a15.016 15.016 0 0 1 0 18.179zm-5.062-3.497a11.3 11.3 0 0 0 0-11.207 5.625 5.625 0 0 0-8.537 0 11.23 11.23 0 0 0 0 11.207 5.605 5.605 0 0 0 8.537 0z"/></svg>