<svg xmlns="http://www.w3.org/2000/svg" role="img" viewBox="-1.79 -0.29 364.58 509.08"><title>Alembic logo</title><defs><style>.cls-1{fill:none}</style></defs><path d="M288.163 392.437h14.987v106.784h-14.987z"/><path d="M346.3 409.08c-6.539 3.083-10.893 9.855-12.856 17.004a68.99 68.99 0 0 0 .402 39.081 31.186 31.186 0 0 0 14.04 18.234c1.32.78 2.435 3.235 3.091 5.979v-84.08a10.528 10.528 0 0 1-4.678 3.783z" class="cls-1"/><path d="M347.885 483.4a31.186 31.186 0 0 1-14.04-18.235 68.99 68.99 0 0 1-.401-39.08c1.963-7.15 6.317-13.922 12.855-17.004a10.528 10.528 0 0 0 4.678-3.784v-12.66a7.39 7.39 0 0 0-3.816.13c-11.966 2.475-20.25 9.45-25.496 20.274-4.981 10.277-5.641 21.339-5.806 34.56a88.798 88.798 0 0 0 1.184 15.101c2.545 17.654 11.87 29.91 28.996 35.776 1.515.519 3.19 1.818 4.652-.054a2.92 2.92 0 0 0 .286-.484v-8.562c-.656-2.744-1.772-5.2-3.092-5.979z"/><path fill="#fff" d="M350.977 489.378v8.562c.896-1.785.765-5.363 0-8.562zm1.606-92.471c.108-2.6-.44-3.83-1.606-4.27v12.66c1.486-2.355 1.47-5.146 1.606-8.39z"/><path d="M253.777 438.384c9.168-6.982 4.358-21.792-2.495-27.157-2.351-1.84-2.922.983-3.013 2.455-.235 3.802-.079 7.628-.079 11.444l-.112 10.882c.399 4.743 1.904 5.265 5.7 2.376zm-1.179 15.944c-2.665-1.453-3.963-.77-4.182 2.077l-.503 12.599c0 3.251-.057 6.504.022 9.754.045 1.86-.353 4.155 1.838 5.02 1.973.78 3.692-.57 5.205-1.733 8.442-6.49 6.996-22.601-2.38-27.717zM267.16 90.909c-6.207-1.862-12.47-2.228-18.4 1.016-8.518 4.66-9.282 15.189-1.751 21.224 4.924 3.947 10.573 5.111 17.594 5.033.393-.028 1.727-.178 3.065-.212 8.45-.214 17.157-3.26 25.1 2.252.72.5 1.698.405 1.92-.37a4.012 4.012 0 0 0-.254-2.691c-6.067-11.88-13.722-22.187-27.275-26.252z" class="cls-1"/><path d="M327.161 93.828c-29.574-50.236-75.262-77.715-133.52-83.326-42.276-4.072-80.668 6.04-113.57 33.538-41.468 34.657-39.508 87.13-20.144 117.301 14.351 22.362 36.797 32.839 61.574 38.829 19.465 4.705 38.018 1.697 55.141-9.022 4.705-2.946 9.44-5.844 14.175-8.742 14.24-8.717 28.611-16.658 45.81-18.592 36.453-4.098 64.719 14.853 69.39 48.52 4.961 35.755-19.902 70.075-61.348 63.925-23.648-3.51-36.685-18.595-34.768-39.89 2.006-22.298 24.589-36.63 44.088-27.982 8.674 3.848 13.167 12.387 10.753 20.438-2.054 6.852-8.488 9.645-18.613 8-2.7-.439-5.366-1.206-8.442-.581a26.267 26.267 0 0 0 27.325 10.055c9.684-2.207 14.77-8.944 16.764-18.331 3.54-16.664-9.96-36.896-27.423-41.128-34.868-8.45-72.04 20.966-71.845 56.853.153 28.234 24.049 55.005 52.485 58.97 3.95.552 8.237.192 11.843 2.684-.413.742-.521 1.153-.787 1.372a13.72 13.72 0 0 1-2.324 1.673c-33.944 17.541-68.887 19.942-104.033 4.781-17.269-7.449-29.277-20.874-32.72-40.222-2.62-14.72 7.641-27.947 23.363-30.81 11.9-2.166 22.215 6.528 25.154 21.217.225 1.125.355 2.27.539 3.402.21 1.293-.102 3.12 1.337 3.543 1.946.572 2.342-1.573 3.08-2.736 8.166-12.87 2.532-30.86-12.042-38.641-23.657-12.632-57.424 3.445-62.467 29.791-2.567 13.407-1.237 26.276 5.52 38.391 1.12 2.011 2.967 3.959 2.337 6.783a7.047 7.047 0 0 1-1.935-.28c-1.705-.862-3.406-1.75-5.025-2.763a93.258 93.258 0 0 1-29.273-29.554c-7.825-12.283-13.513-25.347-13.17-40.316.382-16.689 7.97-25.672 24.145-28.797.494-.095.906-.609 1.37-.936-5.467-5.787-13.229-7.202-20.908-3.448-10.653 5.208-16.112 14.257-18.2 25.64-.281 1.534.733 4.037-1.686 4.218-1.939.145-2.529-2.156-3.013-3.743-6.812-22.34-10.91-44.978-7.65-68.467 1.555-11.201 4.958-21.888 8.395-32.625-5.285 5.667-8.509 12.321-11.145 19.312-8.557 22.686-8.873 45.666-4.77 69.473C23.822 286.391 88.107 347.27 163.607 352.77c67.993 4.954 123.33-20.503 160.408-78.074 37.82-58.722 38.58-120.68 3.147-180.868zm-32.472 26.025c-.223.774-1.2.868-1.92.369-7.944-5.512-16.65-2.466-25.101-2.252-1.338.034-2.672.184-3.065.212-7.021.078-12.67-1.086-17.594-5.033-7.53-6.035-6.767-16.564 1.752-21.224 5.929-3.244 12.192-2.878 18.398-1.016 13.553 4.065 21.208 14.372 27.275 26.252a4.012 4.012 0 0 1 .255 2.692zm-40.538 377.834c9.08-1.263 16.299-6.175 18.743-14.87 2.946-10.477 4.26-21.624-2.396-31.524-2.678-3.984-2.856-7.086-.788-11.425 8.99-18.858-6.619-45.005-30.724-47a16.514 16.514 0 0 0-1.473-.062l-4.74-.768v106.784m15.496-85.14c.091-1.472.662-4.296 3.013-2.455 6.853 5.365 11.663 20.175 2.495 27.157-3.795 2.89-5.3 2.367-5.699-2.376l.112-10.882c0-3.816-.156-7.642.079-11.444zm6.709 68.363c-1.513 1.163-3.233 2.512-5.205 1.733-2.191-.865-1.793-3.16-1.838-5.02-.079-3.25-.022-6.503-.022-9.754l.503-12.6c.22-2.845 1.517-3.53 4.182-2.076 9.376 5.116 10.822 21.226 2.38 27.717zm47.22-84.718c-.198-6.147-4.768-4.557-8.36-4.891-4.224-.393-5.056 1.795-5.026 5.501.133 16.064.057 32.13.057 48.195l-.703 47.62c-.08 4.443 1.346 5.887 5.513 5.268a11.369 11.369 0 0 1 3.435.001c4.754.77 6.086-1.092 6.035-5.904-.275-25.817-.132-51.638-.243-77.457-.026-6.112-.51-12.22-.708-18.333zm-269.563-4.914L9.299 498.55h14.778l3.13-14.194h18.332l4.026 14.194h15.256L39.147 392.311zm-2.158 76.128l5.423-30.288 5.699 30.288zm59.088-76.23l-15.143.102v106.136h35.356v-13.45H89.565v-92.788zm46.983 61.393h11.715v-14.093h-11.861v-32.512h18.14v-14.788l-34.095.126v106.112h35.441v-12.892h-19.34v-31.953zm56.245-16.715l-17.042-44.273-8.937-.405v106.732h14.239l.54-53.901 11.209 17.185 10.856-16.897v53.791h15.115v-106.91h-8.948l-17.032 44.678z"/></svg>