<svg xmlns="http://www.w3.org/2000/svg" role="img" viewBox="-5.62 -5.62 265.98 244.98"><title>Alembic logo</title><path stroke="#000" d="M0 0h255v234H0V0zm131 16l-2 2h2v-2zm-22 1l-1 1H88l-6 2h-2l-1 2-2 1-3-1v2l-10 6-3 4-2-1v2l-7 10-4 18 2 2q-1 6 2 9l-1 2h2l9 13 2-1 2 4 2-1v2l2-1 9 4h6l3 2v-2q7 1 11-2l2 1-1-1 19-11 3-1 3 1-1-1 11-1h2l9 4 5 6-1 2 2-1-1 2h2l1 4v11l-6 11-7 4-4-1-4 2v-2l-3 1-4-2-1 1-1-1h-1q-6-2-6-9v-2l1-2-1-2 3-4q2 1 1-1l6-4 3 1 2-1 4 2 2 4-1 2q1 2-2 1v2l-2-1-2 1q-2-4-3-1l-1-2-3 2q3 5 10 7 6 1 9-2l3-4q-1-5 1-6l-1-4-5-7-11-5-8 1-5 3h-2l-10 13-2 7 2 10 2 2-1 2 1 2 2-1 5 6q2-1 1 2 3-1 5 2l9 2-7 2-2 2q-5-1-6 1l-2-1q-2 3-7 1h-2l-9-1-9-4q-8-5-10-15-1-4 2-3l-1-1 2-3 6-4h3l5 3 1 6v2l-1 2h3l4-6q1-8-3-10l-9-6-9 1-4 2-6 6h-2l1 2-3 4 1 2-1 2 2 11 2 2-3-2-9-8-1-6-3-1 1-2-3-4 1-3-1-2 1-4q3-2 1-3l2-1q1-4 3-1v-1l3 1 3-1-3-4h-1l-3-2-2 1q-3 1-2-2h-2v1q2-1 1 2l-5 3q1 2-2 1l-1 6-2-3 1-3-2-1v-5l2-1v-1h-1l-2-2 1-2-1-2 1-2v-8l2-1-1-1 1-4 5-7v-2l-3 2-5 7-3 2 1 3-3 1 1 2v18l-1 1 1 2-1 4 5 15v2l3 4v2h2l1 3q3 1 1 3l4 3q-1 3 2 2l6 8q1 2 3 0l9 6 1 3h3q2-1 1 3h1q-1-3 2-2 1 3 3 1l5 3 2-1 7 2h17l1 1 7-2h2l5-2 4-2 2 1v-2l13-7 3-3 1 1 8-10 3-2q2-1 0-2l3-2q2-1 0-2l4-6 4-11v-2l2-5-1-1V79l1-4-3-9v-2l-7-13q1-3-2-2l-7-10-15-13-14-6-7-2h-7l-3-1zM59 27v2l2-1-2-1zm97 7l1 2q1-3-1-2zM51 45l-2 2h2v-2zm63 44v1h3l-3-1zm-55 1l-2 2h2v-2zm45 4v1h2l-2-1zm20 6l-1 2v1h2l-1-3zm2 0l1 2q1-3-1-2zm7 0l1 2q1-3-1-2zm42 2l-1 3h1v-3zm-53 3l-1 2q2 3 3 0l-2-2zm-55 1v2l2-1-2-1zm82 7l-1 4h1v-4zm-19 8v2l2-1-2-1zm-72 2q-2 3 1 2l-1-2zm21 4l-1 3h1v-3zm31 3l1 2h1l-2-2zm0 3v1h2l-2-1zm55 0v2l2-1-2-1zm-71 3l-1 3h1v-3zm-9 22v2l2-1-2-1zm-40 10l-2 2h2v-2zm130 0l-2 2h2v-2zm-89 1l-1 2h-5l-1 1v42l-3-1 1-2-1-3h-8l1-1v-31l1-1-2-4q-7-2-8 2l1 2v34l-1 1 1 2-1 3h10l3 1 2-1 3 1q1-3 8-1h2q4-1 6 1l2-1v-2q2-1 1 2l2 1 3-1 3 1q2-1 0-2v-7l3-1v-1h-3v-7l1-2 1 5 3 1 1-2v-2l2-3v15l-1 2 3 4 3-1 3 1v-4q3 1 2-1h-1l-1-37h2l-1-1-1-3-4 1-4 5-2 7q-4 1-1 3v1l-7-14q1-4-4-2l-2 4v2q1 4-1 6l1 1v28q-4 1-2-4h-8v-9l5-1q2-1 0-2l1-4-3-2h-2l-1-6v-4l7-1 1-1v-7l-2-1-7 1v-2zm11 0v2l2-1-2-1zm5 0v1h2l-2-1zm44 0l-1 3h1v-3zm-18 1l-4 3 1 2v36l-1 4q1 2 3 0l2 1 2-1 3 1q6-1 9-5l-1-2q3-2 1-3l1-2-1-6q-4-2-1-3l-2-1 2-3q-1-6 1-7l-2-3 1-2h-2q1-3-2-2l-1-3q-3 1-2-1h-1l-1-3-1 2-4-2zm25 0l-5 1q-3 1-1 3v35l-1 1 1 2-1 3 8 1 1-3-1-2v-17l1-1q-3-2-1-8v-2q-1-5 1-6l-1-3q3-2-1-4zm11 0q-2 3 1 2l-1-2zm9 0l-6 3h-2l-3 5-2 1v2l-1 2v2l-2 7 1 6-2 1h2l3 10q3 1 1 3l9 4 3-1-1-2v-2l1-2-2-1-4-3 1-1-2-1-1-4q-2-7 1-8l-1-2 4-8 3-2 1-1-1-3 1-2-1-3zm-129 1q-3 1-1 3 1 2-1 1v2l-3 14v2l-1 5-2 2 1 2-2 10-1 3q1 2 3 0l4 1 3-6v2h1q-1-4 4-2l-1 4 4 2 4-1q1 2 2 0l-1-3 1-2-3-6 1-3q-3-2-2-7v-2l-2-3 1-4h-1l-3-10 1-2q-1-3-6-2zm11 6l-1 3h1v-3zm38 6l1 2q1-3-1-2zm-56 11l-1 3h1v-3zm119 7l-1 3h1v-3z"/><path stroke="#000" d="M134.5 51l3 1 1.5-.5.5 1.5 2.5-1q-1.1 2.7 1.5 2l3 5 1.5-.5 1 2-1.5-.5-2-1q-2.9 2.6-9 2l-3-1-3.5-2.5q-1.1-3.3 1.5-2.5v-2l2 1 1-3zm-2 129l1.5 3.5 1 4-3 2 1-3-.5-6.5zm-87 17l1.5 2.5-.5 2.5q-2.2.8-1.5-1.5v-2l.5-1.5zm87 0q3.3 1.8 3.5 6.5l-3.5 4.5.5-1.5-1-6v-2l.5-1.5z"/><path fill="#2F2F2F" stroke="#2F2F2F" d="M71.5 25l-1 2 1-2zm-6 4l-1 2 1-2zm79 1l1 2-1-2zm4 3l2 3-2-3zm-89 2l-2 3 2-3zm97 6l2 3-2-3zm4 5l1 2-1-2zm2 3l1 2-1-2zm-28 1l3.5.5-3.5.5v-1zm8 2l1 2-1-2zm-13 2q-.2 4.3 2.5 5.5l-3-2 .5-3.5zm16 1l2 3-2-3zm-102 5q2.3-.7 1.5 1.5h-3l1.5-1.5zm100 0l3.5.5-3.5.5v-1zm-104 14l.5 2.5h-1l.5-2.5zm86 6l10.5.5-10.5.5v-1zm-69 1l5 6-5-6zm89 3l1 2-1-2zm-38 4l-1 2 1-2zm42 0l1 2-1-2zm-110 3l.5 2.5h-1l.5-2.5zm77 0l-1 2 1-2zm23 0l3 4-3-4zm-91 3l-2 3 2-3zm12 0l1 2-1-2zm52 0l-3 4 3-4zm-4 5l-1 2 1-2zm27 0l1 2-1-2zm19 0l.5 7.5h-1l.5-7.5zm-111 3l.5 3-2-.5 1.5-2.5zm102 3l.5 2.5h-1l.5-2.5zm-73 2l-4 5 4-5zm44 0l.5 3.5h-1l.5-3.5zm-12 1l.5 6.5h-1l.5-6.5zm22 1l3 4-3-4zm18 0l-3 4 3-4zm-28 3l.5 2.5h-1l.5-2.5zm-37 1l-1 2 1-2zm14 5l1 6 2.5-1.5-4 2.5.5-7zm52 3l-1 2 1-2zm-89 4l2 3-2-3zm58 6l1 2-1-2zm-51 1l1 2-1-2zm4 1v3q-3-1.5 0-3zm12 0l3 4-3-4zm77 0l-6 7 6-7zm-104 1l3 4-3-4zm73 2l2.5.5-2.5.5v-1zm-65 5l2 3-2-3zm86 1l-1 2 1-2zm-45 1l8.5.5-8.5.5v-1zm-7 13l3.5.5-3.5.5v-1zm16 0l3.5.5-3.5.5v-1zm-66 15q3.8-.7 4.5 1.5l-.5 1.5-.5-2-4.5 1 1-2zm17 0l6.5.5-6.5.5v-1zm19 0h13l1.5 1.5-.5 1.5-.5-2H80.5l-.5.5v42h-1v-42l1.5-1.5zm18 0q3.8-.7 4.5 1.5l-1.5-.5q-4 .8-3-1zm18 0l2.5.5-3.5 1.5 1-2zm10 0l2.5.5-2.5.5v-1zm21 0l6.5.5-6.5.5v-1zm-27 2l.5 41.5h-1l.5-41.5zm14 0l1 2-1-2z"/><path fill="#2F2F2F" stroke="#2F2F2F" d="M94.5 175l.5 2.5-1.5 1.5H87v11h3.5v1q-3.7.8-4.5-1.5v-10l1.5-1.5H94l.5-3zm44 2l1 2-1-2zm32 2l-2 3 2-3zm-39 1l.5 10.5h-1l.5-10.5zm-91 5l.5 2.5h-1l.5-2.5zm68 1l1 2-1-2zm50 0l.5 2.5h-1l.5-2.5zm7 2l.5 9.5h-1l.5-9.5zm-61 5q2.3-.7 1.5 1.5l-1.5-1.5zm9 0l.5 21.5h-1v-19l-1-1 1.5-1.5zm26 0l1 2-1-2zm-94 1l1.5 2.5-2-1 .5-1.5zm42 3l4.5.5-5 .5v10h7.5v1q-6.7 1.8-8.5-1.5v-9l1.5-1.5zm44 0l.5 10.5 1 1-2-1 .5-10.5zm2 0l1 2-1-2zm25 0l.5 2.5h-1l.5-2.5zm-104 2l.5 2.5h-1l.5-2.5zm114 6l2 3-2-3zm-100 3l7.5.5-7.5.5v-1zm-24 1l3.5.5-3.5.5v-1zm96 2l-2 3 2-3zm25 1l1 2-1-2z"/><path fill="#FCFCFC" stroke="#FCFCFC" d="M102.5 18l1.5.5-3.5 1.5v-1l2-1zm11 1l3.5 1.5-1.5.5-2-2zm-26 1l1.5 3 2 .5-1.5.5-2-4zm16 0l2.5.5-3.5 2.5v-1l1.5-.5-.5-1.5zm6 0l4.5 1.5-1.5.5-3-1v-1zm-26 1l.5 1.5-2 1 1.5-2.5zm15 0l2.5.5-2.5.5v-1zm24 0q2.3-.7 1.5 1.5l-1.5-1.5zm-44 2l.5 2.5-.5 1.5-1.5-2.5 1.5-1.5zm35 0l3.5.5-3.5.5v-1zm14.5 0l4 1.5-1.5.5-2.5-.5V23zm-52.5 1l.5 2.5-3 2 .5 1.5q-1.2-2.2-2.5.5l.5 1.5-2.5-.5.5-1.5-2 1 1-2q2.3.8 1.5-1.5h1l.5 1.5 1-3 2.5 1 .5-3zm54 2l2 1h2l2-1v5l-3-1v1l1.5.5-1.5.5q-3-1.5 0-3l2.5-.5-2.5-1.5q-4.8 2.5-3 5-2.7-1.2-.5-2.5l-1-2 1.5-1.5zm-53 2q3.3-1.1 2.5 1.5l-1.5-.5-1.5.5.5 1.5q-2.2.8-1.5-1.5l1.5-1.5zm61 2l3.5 1.5-1.5.5-2-2zm-74 2l-1 4q-3.5-2 1-4zm82 0l-1 2 1-2zm1 3l2.5 1-1 2.5.5 1.5-2.5-2.5.5-2.5z"/><path fill="#FCFCFC" stroke="#FCFCFC" d="M59.5 36q2.3-.7 1.5 1.5l1 2h-1l-.5-1.5-1 2-.5-1.5.5-2.5zm91 1l4.5 3.5-.5 1.5-1.5-3-2.5-2zm-6 1l1 2-1-2zm-87 1l.5 1.5-2 1 1.5-2.5zm3 2l1 2q-2.8.7-1-2z"/><path fill="#FCFCFC" stroke="#FCFCFC" d="M57.5 44q2.3-.7 1.5 1.5L57.5 44zm96 0l-1 2 1-2zM61 45l2 .5-2 1V45zm93.5 1l1 2-2.5-.5 1.5-1.5zm-100 2l.5 2.5-4 3 3.5-5.5zm75 0l2.5.5q.8 2.3-1.5 1.5l-2.5 1.5 1.5-3.5zm5.5 0l3 1.5-3 .5v-2zm14.5 0l-1.5 2.5 2.5 3.5-2-1-.5 2 3 .5-1 1 1.5 2.5-3.5-1.5q2.5-1.5-1-3l-.5-1.5-1.5.5 3-1q.8-2.2-1.5-1.5v-1l3-2zm-6 2l1 2-2.5-.5 1.5-1.5zm7 0l1 2-1-2zm10 0l1.5 2.5-2 1v-2l.5-1.5zm-106 3l.5 1.5-1.5 3.5-.5-2.5 1.5-2.5zm109 1l1.5.5-2 1 .5 1.5q-3-1.5 0-3zm3 4v2l1.5.5-1.5.5q-3-1.5 0-3zm-38 1l1.5 2.5-2-1 .5-1.5zm33 0l.5 1.5-1 2h3l.5-1.5.5 1.5-1.5 1.5-3.5-1.5 1.5-3.5zm-29 2l-2 3 2-3zm6.5 1l2 .5-2 1V62zm5.5 0l1 2-1-2zm4 0l1 2-2.5-.5 1.5-1.5zm19 0l1.5 2.5h-1l-.5-1.5-1.5.5 1.5-1.5zm-116 2l4.5 7.5-1 3 1 2-2 .5-1-3.5 2-3.5-4-2.5.5-3.5zm2 0l1.5 2.5h-1l-.5-2.5zm116 2l-1 2 1-2zm-129 1l-1 2 1-2zM38 70q3-1 2 2-3 1-2-2zm84.5 3l-1 2 1-2zm8 0l4.5.5-5.5 1.5 1-2zm3 2l1.5.5-3.5 1.5v-1l2-1zm2 2l-1 2-2.5-.5 3.5-1.5zm-8 1l.5 2-2-.5 1.5-1.5zm-70 2l2.5.5q-2.1 3.3-2.5-.5zm48 0l2 1h2l3-1v1l-1.5.5 3 2-1.5-.5-4-2-2 1-2.5-.5 1.5-1.5zm9 0l1.5 2.5-2-1 .5-1.5zm27 0q2.3-.7 1.5 1.5l-1.5-1.5zm6 0l2 1q1.3-2.2 2.5.5l-.5 2.5q-1.2-2.3-2.5.5l-.5 1.5-1-2 2.5-1.5-4-.5-.5 2-1.5-2.5q1.8 1.6 3.5-1.5zm24 0q2.6-.8 1.5 2.5h-1l-.5-2.5zm-136 2l1.5 3.5h-1l-.5-3.5zm25 0h2l1.5.5-4 1.5.5-2zm46 1l4.5 2.5h-3q.8-2.2-1.5-1.5v-1zm-43 1v3q-3-1.5 0-3zm41 0l2.5 1 1 2.5-2.5.5-1.5-1.5.5-2.5zm-69 3l.5 6.5h-1l.5-6.5zm35 1l1 3 4-3-.5 1.5q-.7 2.3 1.5 1.5l1.5 2.5-4-1 .5-1.5-3 1-2.5-1 1.5-3zm9 0l-1 2-1.5-.5 2.5-1.5zm2 0l1 2q-2.8.7-1-2zm6 0l3.5 1.5-1.5.5-2-2zm14 0l-2 3 2-3zm-6 1l1 2h-2l-1.5-.5 2.5-1.5zm8 0l1.5.5-2.5 1.5 1-2zm50 0l.5 2 2 .5-2.5 1.5v-2l-1.5-.5 1.5-1.5zm-32 1l-2 3-1.5.5 4 3q.5 4-2.5 4.5v-6l-2 1-.5-2.5 1.5-1.5 3-2zm50 0l1.5 3.5h-1l-.5-3.5zm-92 1l2.5.5-2.5.5v-1zm44 0l2.5.5-2.5.5v-1zm14 0v2l3.5 1.5-1.5.5h-2l-1.5-.5.5-1.5-1.5-.5 2.5-1.5zm-49 1l.5 1.5-2 1 1.5-2.5zm8 0l.5 2-2-.5 1.5-1.5zm61.5 0l2 .5-1 2 .5 1.5-3.5-1 .5-2 1.5.5V92zM53.5 93l3.5 1.5-3.5 2.5v-2l-2 1-1-2q1.5 2.5 3-1zm27 0l2 1 2-1-1 2q-3.8.5-3-2zm11 0l1 2-1-2zm24 0l-1.5 2.5.5 1.5 1.5-.5-1 2 3-1-2.5 3.5-1-2q-1.5 3.5-3 1l-2.5-.5 2.5-.5q1.3 2.2 2.5-.5l-.5-1.5-2 1v-1q2.3.8 1.5-1.5l2.5-2.5zm11 0l-1 2-1.5-.5 2.5-1.5zm-89 1l.5 2-2-.5 1.5-1.5zm92 0l2.5.5-2.5.5v-1zm41 1l1.5 3-2-.5.5-2.5zm-34 1l2.5 1 .5 2 2-1-1.5 2.5 1 1 1.5 4.5 2.5-1-.5 2-1.5-.5q1.1 3.3-1.5 2.5l-1.5-.5-.5 1.5-1-2q-2.7 1.3-.5 2.5l-.5 1.5-1.5-2.5q2-3.7 4-2l-1-4 1-2h-2l1-2-2.5-3.5zm4.5 7l-1 3h1v-3zm15.5-7l1.5.5-2 3 1 2-2-1q-.7-3.7 1.5-4.5zm-120 1q2.3-.7 1.5 1.5l-2 1 .5-2.5zm3 0l.5 2.5h-1l.5-2.5zm8 0l3 2 1.5-.5-3 1 1 3.5-2.5 1-1.5-.5q-.2 4.8-3.5 6.5l-1.5-.5 2-1-.5-1.5 1.5.5 1-3-.5-1.5q2.3.8 1.5-1.5l-.5-1.5 2 3 1.5-4.5-1.5-1.5zm-7 4l-1 2 1-2z"/><path fill="#FCFCFC" stroke="#FCFCFC" d="M110.5 101l.5 2 2.5-1 .5 2.5-.5 1.5-2.5-1.5-1.5 2.5.5-1.5-.5-1.5-2.5 1 .5-2q1.3 2.3 2.5-.5l.5-1.5zm34 0l-1 2 1-2zm-28 1l1 2-1.5-.5-.5 1.5-.5-1.5 1.5-1.5zm-79 1l4.5 2.5-1.5-.5q-5.1 1.3-3-2zm133 0l.5 2-3-.5 2.5-1.5zm-122 2l-1 2 1-2zm107 0q2.3-.7 1.5 1.5h1l.5-1.5 1.5 3.5h-1l-.5-1.5-1 2-1-2-1 2-.5-1.5.5-2.5zm-66 1l6.5 4.5 1 2-.5 2.5-2.5-.5.5-1.5-3-1h-2l-1.5-.5 1.5-.5q1.5 2.5 3-1l1.5-.5-1.5-1.5-4 2-4 1-1-2 3 1 2.5-1.5q-2.2-1.2.5-2.5zm.5 1l1 2q1-3-1-2zm5 3l-2 2h2v-2zm-20.5-3l1.5 3-3 1.5.5 1.5 2.5-1.5-1 3 .5 1.5q-1.7-3.1-3.5-1.5l.5-1.5q-2.6.7-1.5-2l3-1.5q-2.2-1.3.5-2.5zm4 1l1 2-1-2zm35.5 0l2 .5-2 1V108zm-66.5 1l1 2-1-2zm62 0q2.3-.7 1.5 1.5l-1.5-1.5zm18 0q2.3-.7 1.5 1.5l-1.5-1.5zm-21 1l-.5 1.5-.5 2.5-.5-2.5 1.5-1.5zm25 0l1 2-1-2zm3 0l1.5 2.5h-1l-.5-2.5zm-93 1l3.5 1.5-1 2h2l-1 3 1 2.5 2 .5-1.5.5-4-5-1.5-.5 2-.5-.5-2-1.5.5.5-2.5zm5 0l2 3 1.5-.5-3 1.5-.5-4zm62 0l1.5 2.5h-1l-.5-2.5zm-39 1l-1 2 1-2z"/><path fill="#FCFCFC" stroke="#FCFCFC" d="M111.5 112l2.5 3.5-1 3 .5 1.5-1.5-3-3.5 1-1.5-2.5 2.5 1.5 1-1q3.8 1 2.5-2-3.2 1-1.5-2zm52 0l3.5 1.5q1.1 3.3-1.5 2.5l-2-4zm-93 2l-1 2 1-2zm84 1l.5 1.5-2 1 1.5-2.5zm-81 1l-1 2 1-2zm22 0l1 2-1.5-.5-.5 1.5-.5-1.5 1.5-1.5z"/><path fill="#FCFCFC" stroke="#FCFCFC" d="M115.5 116l1 2-2.5-.5 1.5-1.5zm48 0l.5 1.5-2 1 1.5-2.5zM66 118l2 .5-2 1V118zm40.5 0l2.5 1.5-1.5.5-1-2zm44 0l1 4-4.5-.5 3.5-3.5zm-35 1l4.5 2.5-.5 2.5-3.5-2.5-.5-2.5zm-64 1l1 2-1-2zm59 0l2.5 3.5-2.5 1.5.5-1.5-.5-1.5q-1.2 2.2-2.5-.5h2l.5-1.5zm51 1l2.5.5-1.5 2.5-1-3zm-94 1l1.5 2.5-2-1 .5-1.5zm5 0l.5 1.5-2 1 1.5-2.5zm-22 1l2.5 1.5-1.5-.5-1-1zm71 0l2.5 1.5-1.5.5-1-2zm26 1l4.5 3.5-1.5.5-3-4zm-98 1l.5 1.5q-2.2 1.2.5 2.5l3-1-.5 1.5.5 1.5 1.5-.5-.5 2.5q-2.3-4.3-4.5-2.5l-2-3 1.5-2.5zm63.5 0q3-1 2 2-3 1-2-2zm6.5 0l2.5 1.5-1.5-.5-1-1zm20 0l-1 2-2 1 1-2 2-1zm-85 1l3.5 4.5-1.5 2.5-.5-1.5q2.5-1.5-1-3l-.5-2.5zm12 0l2.5 3.5-2 1 1-2.5q-3.2 1-1.5-2zm6 0l2.5.5-1 2.5-2 .5 1 1-1.5 2.5 1.5.5q-2 4.5-4 1h2q.8-2.2-1.5-1.5v-1l2.5-1.5-2-1 3-2-.5-1.5zm56 0l2.5.5-3.5 1.5 1-2zm-14 2l4 1 1.5-.5-1 2.5 5.5 2 2-1-1 2-3 1v-2l-3 1-3.5-2.5 2-1-3.5-1.5-1.5.5 1.5-1.5zm42 0l2.5.5-2.5 3.5q-2.2-.7-1.5 1.5l-2 1 .5-2.5q2.3.8 1.5-1.5h2l-.5-2.5zm-81 1l-1 2 1-2zm50 0l2.5 1.5-1.5-.5-1-1zm28 0l-1 2 1-2zm-92 3l1 2h-2l-1.5-.5 2.5-1.5zm3 2l.5 2-2-.5 1.5-1.5zm63 0l-1 2 1-2zm-71 1l1.5 2.5-2-1 .5-1.5zm2 0l1 2-1-2zm9 1l1 2-2.5-.5 1.5-1.5zm79 0l-1 2 1-2zm5 0l-1 2 1-2z"/><path fill="#FCFCFC" stroke="#FCFCFC" d="M70 137l2 .5-1 2 .5 3.5-2.5-1.5q.8-2.2-1.5-1.5v-1l2 1 .5-3zm10.5 0l1 2 2-1v1l-1.5.5.5 2.5 1.5.5-1.5.5-2.5-.5q4-2 0-4l.5-1.5zm68 0l-1 4-2-1-1 3-.5-2.5 1.5-1.5 3-2zm-86 1l1.5 2.5-2 1 .5-1.5-2 1 2-3zm68 0l.5 1.5-1.5 2.5 4-3 1 2 1.5-.5-1.5 2.5-.5-2-3 1.5 2 1-1.5.5-2-1-2 1-2.5-1.5 4-2-.5-1.5 1.5.5.5-1.5zm-65 1l4.5 5.5-2.5 1.5.5-1.5-2-3-.5-2.5zm20 1l2.5 1.5-1.5-.5-1-1zm6 2l1 2-1-2zm31 0l1 2q-2.8.7-1-2zm-47 2l1.5 4.5-1.5-.5-2 1-.5-2q3.1 1.1 2.5-3zm23 0l13.5.5-5.5 1.5q-1.7-2.7-8-1v-1zm37.5 0l3 1.5q.8 2.3-1.5 1.5l-1.5-3zm-64.5 1l-1 2-1.5-.5 2.5-1.5zm58 2l-1 2 1-2zm4 0q2.3-.7 1.5 1.5l-1.5-1.5zm-32 3l2.5.5-2.5.5v-1zm5 1l2.5.5-6.5 1.5v-1l4-1zm-21 1l2 1 3-1v1l-3 1-2-2zm28 0l.5 1.5-2 1 1.5-2.5zm8 0q2.3-.7 1.5 1.5h-3l1.5-1.5zm-29 1l-1 2-1.5-.5 2.5-1.5zm23 0l2.5 1.5-1.5.5-1-2zm-18 2l2.5.5-2.5.5v-1zm5 0l3.5.5-3.5.5v-1zm6 0l2.5.5-2.5.5v-1zm41 17q3.3-1.1 2.5 1.5l-2.5 1.5v-3zm23 0l-.5 1.5-.5 1.5-.5-1.5 1.5-1.5zm-125 1l.5 2.5-1.5-.5-1.5-.5 2.5-1.5zm42 0l-1 2 1-2zm38 0l2 1 2-1v1l-3 2v-2l-1-1zm41 0l.5 2q-2.7-1.1-2 1.5l-5.5 4.5v-1l1.5-.5q-2.2-1.3.5-2.5 1.3 2.3 2.5-.5-1.1-3.3 1.5-2.5l1-1zm-103 1q2.3-.7 1.5 1.5l-1.5-1.5zm27 0l.5 1.5q-1.5 3-3 0h2l.5-1.5zm26 0l-.5 1.5 1 3h-1l-.5-1.5-2 3-1-2 1.5.5-1-3h1l.5 1.5 2-3zm14 1l3.5 4.5q-1.7 3.3-3.5-.5l-4 1v-1l1.5-.5-.5-1.5 2 1 1-3zm3 0l1 2-1-2zm-33 1l1 2-1-2zm67 0l1 2-1.5-.5-.5 1.5-.5-1.5 1.5-1.5zm-126 2l1.5 2.5h-1l-.5-2.5zm42 0l.5 12.5-1.5 2.5-.5-1.5 1-5-2-3 2-.5q1.1-2.7-1.5-2v-1q2.5.7 2-2zm15 0l1 2-1-2zm66 1l.5 1.5-.5 2.5-2.5-.5 2.5-3.5zm-53 1l.5 1.5-.5 4.5q-2.2.8-1.5-1.5l1-3 .5-1.5zm-66 1l2.5 1.5-3 .5.5-2zm68 0l1.5 3.5-2 1v-2l.5-2.5zm13 0l2.5.5q-2.1 3.3-2.5-.5zm-86 1l4.5 2.5-1.5 2.5-2.5-.5 1-2h-2l.5-2.5zm119 0q3 1.5 0 3-3-1.5 0-3zm-55 2l-.5 1.5q.8 2.3-1.5 1.5l2-3z"/><path fill="#FCFCFC" stroke="#FCFCFC" d="M129.5 184l1.5.5-2 1 2 3-2 1 1-2q-3.8-1.7-.5-3.5zm6.5 0l2 .5-1.5 3.5-.5-4zm2.5 2l2.5 1-.5 2-2-3zm-88 1l-.5 1.5 2 4-2 1-1-5 1.5-1.5zm61 0q3 1.5 0 3l-2.5-.5 2.5-2.5zm49 0l-.5 1.5.5 1.5 1.5-.5q.7 3-3 1.5l1.5-4zm-116 1l.5 2.5h-1l.5-2.5zm60 0l1 2-1-2zm-23 1l1.5 5q3.8-1.5 3 1.5v13l1 1h-2q.7 2.6-2 1.5l.5-3 1.5.5v-8l-1-1 1-2.5q-3-1.2-2 2.5h-1l1.5-3.5 1.5-.5-3-.5-.5-6zm26 0l.5 1.5q-2.2 1.3.5 2.5l1-2 2.5 3.5-2 1 .5 1.5-3-4-1.5.5.5-1.5-1.5-.5 2-.5.5-2zm28 0l1.5 3-2-.5.5-2.5zm3 0l1.5 2.5-1.5 3.5-1.5-1.5q3.5-1.5 1-3l.5-1.5zm-25 1l2.5 1.5-.5 1.5-.5-2-3.5 1v-1l2-1zm-10 2l.5 15.5v2l-.5 2.5-.5-3-2 .5 1 2h-1l-1-2 3-1.5.5-16zm14 0l.5 3.5h-1l.5-3.5zm-28 1q2.3-.7 1.5 1.5l-1.5-1.5z"/><path fill="#FCFCFC" stroke="#FCFCFC" d="M159.5 193q2.6-.8 1.5 2.5l-1.5 3.5-.5-3.5.5-2.5zm-45 1l1.5 3.5-1 1v14l-.5 1.5v-20zm19 0l1.5.5-3.5 1.5v-1l2-1zm-93 1l-1 2 1-2zm2.5 0l2 .5-2 1V195zm8.5 0l1 2-1-2zm78 0l-1 2 1-2zm6 1l2.5 1.5.5-1.5 2.5.5q-2.5 1.5 1 3l-.5 1.5-.5-2q-2.7-1.1-2 1.5h-1l-.5-1.5-1.5.5 1-1-1.5-2.5zm-94 1l.5 1.5q-2.5 1.5 1 3l-.5 1.5-2-3-2.5 1.5q-.7-2.2 1.5-1.5v-2l1.5.5.5-1.5zm9 0l1 2 1.5-.5-3.5 4.5-1.5-3.5h1l.5 1.5q2.8-1.2.5-2.5l.5-1.5zm58 0l1 2q-2.8.7-1-2zm22 0l-.5 1.5-.5 3.5-.5-3.5 1.5-1.5zm34 1l-.5 1.5-.5 1.5-.5-1.5 1.5-1.5z"/><path fill="#FCFCFC" stroke="#FCFCFC" d="M40.5 202l1.5 2.5-2 1 .5-1.5-1.5-.5 1.5-1.5zm11 0l.5 3-2.5 1 1.5-2.5.5-1.5zm109 0l2.5.5-3 1.5.5-2zm-107 1l1.5 4q-3.8 1.2-1.5-4zm85 0l.5 2.5h-1l.5-2.5zm26 0l-.5 1.5q.8 2.3-1.5 1.5l2-3z"/><path fill="#FCFCFC" stroke="#FCFCFC" d="M46.5 204l-1 4-2.5-1-1.5 3 .5-1.5q-1.2-3.7 2.5-2.5l2-2zm120 0l1.5 1.5-1.5 4.5 2.5.5-2.5.5q-1.7-3.1-3.5-1.5l2-3.5 2-.5-.5-1.5zm-129 1l2 3 1.5-.5q-2 3.5-4-1l.5-1.5zm91 1l1 3h2l1.5.5-2 1-.5-1.5-1 2-.5-2-2-.5 1.5-2.5zm8 0l2.5 1-1 3.5q2.3 1.2-.5 2.5l-2.5-4 3-.5-3-1 1.5-1.5zm-87 1l3.5 1.5-1 3q2.3 1.3-.5 2.5l.5-3.5q1.3-3.7-2.5-2.5v-1zm120 1l1 2-1-2z"/><path fill="#FCFCFC" stroke="#FCFCFC" d="M37.5 209l2.5 1.5-.5 1.5q2.6-.7 1.5 2l-2.5 1 .5-1.5-.5-1.5-3.5 2.5 3-4h-2l1.5-1.5zm32 0q4.8-1.7 3.5 2.5h-1l-.5-1.5-1 2-1-3zm20 0l4.5.5-3 2q.8-2.2-1.5-1.5v-1zm-34 1l-1 2 1-2zm63 0l-1 2 1-2zm54 0l.5 4.5h-1l.5-4.5zm-97 1l-1 2 1-2zm11 0l1.5.5-4.5 2.5-.5-2 3.5-1zm13 0l1.5 2.5-2 1v-2l.5-1.5zm34 0l.5 2 2 .5-1.5.5-1-3zm17 0l2.5 1.5-.5 2.5-3-1-1.5.5.5-2.5 2-1zm20 0l.5 1.5-2 1 1.5-2.5zm-108 1l2.5.5-3 2 .5-2.5zm64.5 0q3-1 2 2-3 1-2-2zm-58.5 1l1 2-2.5-.5 1.5-1.5zm3 0l1 2-1-2zm20 0l-1 2 1-2z"/><path fill="#D9D9D9" stroke="#D9D9D9" d="M95.5 18l2.5.5-2.5.5v-1zm14 0l2.5.5-2.5.5v-1zm-44 12l-1 2 1-2zm78 0l1 2-1-2zm4 3l3 4-3-4zm-89 4l-1 2 1-2zm97 4l2 3-2-3zm4 5l1 2-1-2zm2 3l1 2-1-2zm-31 2l-1 2 1-2zm13 1l1 2-1-2zm-15 2l.5 3.5h-1l.5-3.5zm14 7l4.5.5-4.5.5v-1zm-103 6l1 2-1-2zm89 12l6.5.5-6.5.5v-1zm-71 2l5 6-5-6zm81 10l4 5-4-5zm-103 3l.5 2.5h-1l.5-2.5zm78 0l-3 4 3-4zm59 0l.5 2.5h-1l.5-2.5zm-124 1l-2 3 2-3zm79 1l3.5.5-3.5.5v-1zm8 2l2 3-2-3zm20 3l.5 3.5h-1l.5-3.5zm-113 5l1 2-1-2zm30 2l-4 5 4-5zm33 0l.5 2.5h-1l.5-2.5zm10 1l.5 4.5h-1l.5-4.5zm28 0l-2 3 2-3zm-46 5l.5 4.5h-1l.5-4.5zm8 0l.5 2.5h-1l.5-2.5zm-29 1l-1 2 1-2zm41 3l4 5-4-5zm-23 1l1.5 3.5-2 1 .5-4.5zm-41 3l1 2-1-2zm-7 3l1 2-1-2zm9 0l2 3-2-3zm54 0l1 2-1-2zm52 0l-1 2 1-2zm-113 3l1 2-1-2zm111 0l-1 2 1-2zm-45 2l1 2-1-2zm-52 2l1 2-1-2zm15 0l1 2-1-2zm77 2l-3 4 3-4zm-100 1l3 4-3-4zm15 0q3 1.5 0 3v-3zm12 1l1 2-1-2zm51 0l-1 2 1-2zm-71 5l1 2-1-2zm85 0l-1 2 1-2zm-51 2l2.5.5-2.5.5v-1zm19 0l2.5.5-2.5.5v-1zm-21 12l3.5.5-3.5.5v-1zm18 0l3.5.5-3.5.5v-1zm-67 17l3.5.5-3.5.5v-1zm18 0l2.5.5-2.5.5v-1zm17.5 0h14v6l-8-.5 7-.5v-4H81l-.5 42-.5-43zm19.5 0l3.5 1.5-1.5-.5-3 1 1-2zm18 0l2.5 1.5v41q-.1 1.1-5.5.5v-1q4.5.5 4.5-.5V173l-1.5-1zm9 0l3.5.5-3.5.5v-1zm-28 3l.5 4.5h-1l.5-4.5zm39 2l1 2-1-2zm33 1l-3 4 3-4zm-11 7l.5 2.5h-1l.5-2.5zm-49 1l.5 1.5-2.5 1.5v-1q2.5.7 2-2zm54 3l.5 8.5h-1l.5-8.5z"/><path fill="#D9D9D9" stroke="#D9D9D9" d="M86.5 191l4.5.5-4.5.5v-1zm18 0l1 2-1-2zm9 0q2.6-.8 1.5 2.5h-1l-.5-1.5-1.5.5 1.5-1.5zm-15 1l.5 16.5h-1l.5-16.5zm35 4l2 3-2-3zm26 3l.5 2.5h-1l.5-2.5zm-111 2l.5 3-6-.5 5-.5.5-2zm120 5l2 3-2-3zm-125 2l6.5.5-6.5.5v-1zm24 0l1 2-1-2zm6 1q3.3-1.1 2.5 1.5l-1.5-.5-1-1zm66 2l-1 2 1-2zm26 0l1 2-1-2zm-109 2l.5 2-6-.5 5.5-1.5zm70 1l6.5.5-6.5.5v-1z"/><path fill="#FFF" stroke="#FFF" d="M99.5 18l4 1 4-1 9 3 3-1 4 3 2.5-1 .5 2 1.5-.5.5 1.5h2l7 2 12.5 9.5 1.5 2.5q2.3-.7 1.5 1.5l5 4q-1.1 3.3 1.5 2.5l4.5 6.5-.5 1.5q2.3-.7 1.5 1.5l2 3-.5 1.5 1.5.5v2l2 4 2 12v2q2.3 3.2 1 10l-3 6 2 .5-2.5 6-1.5.5 2 .5q1.5 3.7-1.5 3l.5 1.5-1.5 4.5-1.5-.5-1 2 1 2-3.5 4.5-1.5-.5 1 3-2 3.5-3 1.5-.5 1.5-1.5-.5 1 2-1.5-.5-1.5.5v2q.8 2.3-1.5 1.5l-3 4-4.5 2.5q.8 2.3-1.5 1.5l-2.5.5-.5 1.5q-1.2-2.2-2.5.5.8 2.3-1.5 1.5l-2-1-1 3-9 3-2-1v2h-2l-6 1h-2l-5 1-4-1-2 1-5-2-3 1-3.5-1.5 2-1-2.5-.5-2.5 1.5.5-1.5-2 1-10.5-4.5 2-.5-.5-4-.5 3-4 1q1.3-3-2.5-2l-5.5-3q1.1-2.7-1.5-2l-3.5-2.5-1.5-3.5-1.5.5q.8-2.2-1.5-1.5l-2.5-3.5h2q.8-2.6-2.5-1.5-6-4.5-8.5-12.5l.5-1.5-2.5-1.5-2-8 2.5-.5 3 4 1.5-3.5-.5-1.5 1.5.5-1-3 1-3.5 3-.5q-2.2-1.2.5-2.5l2-1 2 1 1.5-.5-5.5 6.5-1-2-.5 3.5 1 2v2l-1 4 2 5-.5 1.5q2.3-.7 1.5 1.5v2l4 4 7.5 9.5 1.5.5-.5 1.5 2-1 4.5 3 .5 2 1.5-2.5q-4.2-2.8-5-9 2.5-1.5-1-3-1.3-5.7 2-7l-1-2 5.5-7.5 5-3q1.5 2.5 3-1 7.6-.9 10.5 2l.5 2q1.8-2.7 3.5 1.5l2 3v2l-1 2 1 2-1.5 2.5-.5-4.5-5.5-6.5-6-2v2l-5.5 1-1.5 3q-2.6-.8-1.5 2.5l-1 1v8l2 5 6 7.5h3q-1.1 2.7 1.5 2l3 1 3 2 2-1 4 2 10 1 4-2 9-1 2 1v-2l6-3 1.5.5q-.8-2.6 2.5-1.5l-1-2-9-1-11.5-6-4-6.5.5-1.5-1.5-.5 2-1-3-2q-1.5-5.5 1-7l-1-4 3-2-1-2 1-2.5 3-.5-2-1 3-1-.5-1.5 1.5.5 3.5-4.5 2 1v-2q1.5 2.5 3-1l4-1h2q2.3-.7 1.5 1.5h1q-.7-2.2 1.5-1.5l7.5 4.5-.5 1.5q3.3-1.1 2.5 1.5l3 8.5-2 .5 1 3-3 1.5q1.1 2.7-1.5 2l-3.5 1-.5-2-.5 2-6-2.5 1.5-.5h2l2 1 4.5-3.5 1-4-5.5-6.5-9-1-2.5.5-.5 1.5-1-2-2.5 4.5-3 7.5q-2.7-1.1-2 1.5v2l2 4-1.5 2.5 3.5 1.5 1.5 2.5q2.3-.7 1.5 1.5h2l-.5 1.5 2-1 3.5 1q-1.2 3 2.5 2l2-1 2 1 2-1 2 1q2.2-3.5 7.5-3-1.1-2.7 1.5-2 6.4-5.1 8.5-14.5l-.5-1.5 1.5.5-1-4 1-2-1-2 1.5-2.5-2 1-1.5-3.5 1.5-2.5-2 1 .5-1.5-.5-1.5-1 1-3.5-3.5V84q-3.7 1.5-3-1.5l-3-1q.8-2.2-1.5-1.5h-6l-.5-2h-2.5l-3 1-2-1-2 2-8 1-20 12q-1.5-2.5-3 1l-6 1 .5-1.5-.5-1.5-1.5 3-3-.5.5-1.5-3 1h-2q-2.2.8-1.5-1.5L75.5 91v2l-6-4-1.5.5-.5-1.5h-2q-2.2.8-1.5-1.5l-3-2q2.3-1.2-.5-2.5l-1.5.5-1.5-2.5q-2.2.8-1.5-1.5l-1-3-3-6 1.5.5 1.5-.5q-5.2-2.8-4-12l1-2v-4l3-9.5 3-1.5 1.5-3.5 1.5.5-1-2 7.5-6.5 2 1v-2l1.5.5q-.7-2.2 1.5-1.5l2.5-1.5.5 1.5 1-3 1 1q1.8-3.1 3.5-1.5-.7-2.2 1.5-1.5l1.5.5.5-1.5h2l8-2h2l3-1zm4.5 2q0 4 2 1l-2-1zm6 0v1h2l-2-1zm-11 1v1h2l-2-1zm15 2v1h3l-3-1zm17 4l-2 3 3-2-1-1zm-54 1l1 1 1 1q1-3-2-2zm-1 1q-2 3 1 2l-1-2zm57 0v1h2l-2-1zm15 7l1 2q1-3-1-2zm-87 5q-2 3 1 2l-1-2zm-3 3l1 2q1-3-1-2zm3 1v2l2-1-2-1zm-6 3l-1 3h1v-3zm77 0l-2 2h2v-2zm3 0v2l-1-1-3 2q-4 1-3 7l7 5 2-1 1 2 1-2 1 2 4-2h2l6 2-6-11-11-5zm-6 1v3q3-1 0-3zm20 2l-1 2 3 1-2-3zm-95 4l-1 3h1v-3zm95 0q0 4 2 1l-2-1zm-18 18l-1 2 5-1-4-1zm17 7l-1 2h3l-2-2zm-40 4v2l2-1-2-1zm-2 1l1 2q1-3-1-2zm-24 3q-2 3 1 2l-1-2zm-7 1l-2 2h2v-2zm5 2v1h2l-2-1zm44 0v1h2l-2-1zm34 1v2h-2q-1 3 3 1l1-2-2-1zm-20 1l-1 2 2-1-1-1zm-8 1v1h2l-2-1zm8 3l1 2q1-3-1-2zm3 1l-2 3 3-2-1-1zm-29 5l2 3v-1l-2-2zm30 0l-1 3h1v-3zm1 3l-2 3h2v-3zm-67 2l-2 2h2v-2zm34 1l1 2q1-3-1-2zm-17 1l-1 2 2-1-1-1zm-51 1v3q3-1 0-3zm29 0q-1 3 2 2 1-3-2-2zm4 1l-2 2 2 1v-3zm37 0q-2 3 1 2l-1-2zm-64 1q-2 3 1 2l-1-2zm-2 1q-5 2-1 4l1-2v-2zm62 1l-1 2 3 1-2-3zm3 1v1q2-1 1 2h1q1-4-2-3zm53 0l-2 3 2-1v-2zm-47 4l-1 2 4 2-3-4zm-49 2l-1 2 2 1-1-3zm5 0l-2 3 2-1v-2zm39 0l-2 3h2q3-1 0-3zm1 3q-1 3 2 2 1-3-2-2zm36 0l2 3h1l-3-3zm-93 2l-1 2 3 2-2-4zm18 0l-2 2h2v-2zm42 2q-1 2 2 1l1 1q1-4-3-2zm10 3l-2 1v1l3-1-1-1zm-55 1v2l2-1-2-1zm-8 5l-2 2h2v-2zm71 1l-2 2h2v-2zm-64 1l-1 2 3 1-2-3zm-3 1q-2 3 1 2l-1-2zm2 2q-2 3 1 2l-1-2zm67 1v2l2-1-2-1zm-34 6v1h2l-2-1zm5 1v1h2l-2-1zm-4 1v1h3l-3-1z"/><path fill="#FFF" stroke="#FFF" d="M37 74l2 .5-1 1v17q2.5 1.5 1 7l2 4.5-4-1.5-1-4h2q.8-2.2-1.5-1.5v-1q2.3.8 1.5-1.5h-2l-1-10h1l.5 1.5.5-2.5-1-2v-2l1-5.5zm7 99l3 .5-2 1 3 2 1 5h-2q-.8 3 3 1.5v4.5l1 2-1 4h2l-1 2 2 4 1 3-1 4.5 2 .5v2l1 4-2.5.5-2.5-1.5v-2l-1-2 2-1-2.5-.5-3 1h-2l-1.5-.5 2-1-3-.5-1 6q-2.7-1.1-2 1.5l.5 1.5h-2l-1.5-.5v-2l2-3-1-2 1-5 2-2v-6q-.3-6.8 3-10v-2l1-9.5zm1 15l-1 3h1v-3zm1 4q-3 1-1 3h-2l1 3-2 5 5 2 3-2-2-7v-2l-2-2zm-5 10l-2 2h2v-2zm11 0l-2 3h2v-3zm1 6l-1 3h1v-3zm-15 2v2l2-1-2-1zm24.5-37h2l2.5.5-2 1 2 2v31l-.5 1.5 3.5 1 .5 2 1-2 1 2 .5-2q2.7-1.1 2 1.5v2q.8 2.3-1.5 1.5h-2l-3-2q-.7 2.7-5 2l-1.5-3.5.5-38.5zm20 0q5.5-1.5 7 1l3-1-.5 1.5 1 2-2.5.5q-4.5-1-5.5 1.5.8 2.3-1.5 1.5v1q2.6-.7 1.5 2l-2 .5 3.5 9.5 4-1v1l-1.5.5 1.5 2.5q-4.5-1-5.5 1.5l-1 2 1 1v8l1.5 1.5q5.4-1.9 4.5 1.5l3-1-1 2q2.3 1.3-.5 2.5l-2-1-4 1h-2q-3.3 1.1-2.5-1.5v-2l-1-2v-18l1-2-1-4 1-2-1-3 1-4-1-2 1.5-1.5zm.5 18q-3 5 2 4l1 1q1-3-3-2v-3zm0 6l-1 3h1v-3zm1 11q-3 4 1 3l-1-3zm-1 4l1 2 2-1-3-1zm16.5-39l2.5.5 1 2q-2.5 1.5 1 3l1 2-.5 1.5q2.6-.8 1.5 2.5l3.5 5.5 2.5-.5-1-3 .5-1.5 2 1-1.5-2.5 2-2 3.5-8.5 1.5.5v2l-1 3q2.5 1.5 1 7l-1 2 1 1v23l-.5 2.5-2-1-1.5.5 1-2-1-1v-12l1-2-1-3 1-2-2.5-1.5-2.5 1.5 1 2h-2l1 2-1.5 2.5-3.5-5.5.5-1.5-3.5 1.5v15l1 1-1 3 1 2-3.5 1.5q-2.7-1.2-.5-2.5l-1-2v-27l1-2-1-5v-2l.5-1.5zm16.5 8l-1 3h1v-3zm-10 4l-2 2h2v-2zm12 7l-1 4h1v-4zm8.5-19l2 1h5l5.5 5.5 2 7-2 1 1 3q-5.3 2.3-1.5 4.5 2.3-.7 1.5 1.5l.5 1.5-2.5-1.5 1.5 2.5q2.3-.7 1.5 1.5l1 5-2 5.5-9 3-.5-2-1 2-.5-2q-2.7-1.1-2 1.5h-1l1-3-1-1v-35l.5-1.5zm6.5 2l-1 3-2-1 1 3-1 2 1 2-2 1h2l-1 3 1 2-1 2 1 1 3-1 4-7-2-1-1-3q-4-2-1-3l-1-3zm4 15l-2 2h2v-2zm-6 5v4q1 4-1 6l1 2-1 2 2 2 3-2q4-2 2-9l-6-5zm-1 3l-1 4h1v-4zm9 5l-1 3h1v-3zm-10 3l-2 3h2v-3zm9 1l1 2q1-3-1-2zm-3 2v2h3q1-4-3-2zm13-36l2 .5-.5 1.5 3-2 .5 5.5v2q1.5 5.5-1 7l1 2v19l-1.5.5v1q2.3-.7 1.5 1.5l-1.5 3.5-3.5-1.5 1.5.5 2.5-.5-4-2 1-2-1-1V173zm21 0q2.7-1.1 2 1.5h1l.5-1.5.5 3.5-3 1q-5.5 5-7 14v2l3 11 4.5 5.5 1.5-.5q1.9 5.4-1.5 4.5l-6.5-3-3-6.5q2.5-1.5-1-3l1-8.5q-3 1-2-2 3.7 1.5 3-1.5h-2l1-2-1-3q3.1-1.7 1.5-3.5l1.5-.5q-2.5-1.5 1-3l1.5-2.5 1 2 .5-2q3 1 2-2zm-2 6l-2 3 2-1v-2zm-3 25l-2 2h2v-2zm1 2v2l2-1-2-1zm2 4v1h2l-2-1z"/><path fill="#040404" stroke="#040404" d="M130.5 16l.5 2-3.5 1v-1l3-2zm-47 2l2.5 1.5-1.5.5-1-2zm39 0l1.5.5-2.5 1.5 1-2zm11 2l2.5 1.5-1.5-.5-1-1zm-58 1l1.5.5-2 .5-.5 2-1-2 2-1zm56 0l-1 2 1-2zm2 1l-1 2 1-2zm-65 2l2.5 1.5-2 1 .5-1.5-1-1zm-10 1l-1 2 1-2zm6 0l.5 2.5-.5 1.5-.5-2-2-.5 2.5-1.5zm75 1l1 2-1-2zM59 27l2 .5-2 1V27zm3.5 1l-2 3 2-3zm1 2l-2 3 2-3zm83 1l2.5.5q-2.1 3.3-2.5-.5zm6 1l1 2-1-2zm-96 1h2q2.3-.7 1.5 1.5L58.5 36l-2-3zm95 1l1 2-1-2zm4 0q2.3-.7 1.5 1.5l.5 1.5-2-3zm-1 2q3 1.5 0 3-3-1.5 0-3zm4 2l1.5 2.5-.5 2.5-3-4 2.5 1.5-.5-2.5zm3 2l1.5 2.5-2-1 .5-1.5zm6 3l-1 2 1-2zm-6 1l1 2-1-2zm-111 1l1.5 2.5-1.5-.5-2 1 2-3zm114 3l-1 2 1-2zm1 2l1 2-2.5-.5 1.5-1.5zm-33 1l1.5.5-.5 2.5-3.5 1 2.5-4zm5 0v2q2.3.8 1.5-1.5h1l-1.5 2.5-3.5-1.5 2.5-1.5zm28 2l2.5.5-1.5 2.5-1-3zm-116 2l.5 8.5-4 1q2.3-1.2-.5-2.5l-1.5.5 3.5-5.5-.5 1.5-1 3q1.5 3 3 0l.5-6.5zm-8 1q2.8 1.3.5 2.5l-.5 1.5-1.5-2.5 1.5-1.5zm104 0l1.5 2.5-2 1 1-2-3 1 2.5-2.5zm25 2l-1 2 1-2zm-36 1l1 2-1-2zm36 2l1.5.5-2 1q1.5 3 3 0l.5-1.5 1.5 2.5-3.5 1.5-2.5-2.5 1.5-1.5zm-133 3l2.5 1.5-1.5-.5-2 1 1-2zm1 3l-.5 1.5-.5 1.5-1-2 2-1zm3 1l1 2-1-2zm-7 1l1.5 2.5v2l-.5 2.5-1.5-3.5v-2l.5-1.5zm15 2l.5 1.5-2 1 1.5-2.5zm-10 6l.5 3.5h-1l.5-3.5zm134 2l1.5 2.5h-1l-.5-2.5zm-51 2l2.5 1.5-2.5 1.5v-3zm13 0l2 1 1.5-.5-.5 1.5 2-1v3q-4.6-1.2-5-4zm-9 2l-1 2-1.5-.5 2.5-1.5zm16 0l2.5 1.5-1.5.5-1-2zm-13 1l1 2-1-2zm-73 1l2.5 1.5-1.5-.5-1-1zm57 0l-1 2-1.5-.5 2.5-1.5zm2 0l.5 1.5-2 1 1.5-2.5zm30 1l3.5 1.5v2l-.5 1.5-3-5zm-106 1l1 2 1.5-.5q.8 2.3-1.5 1.5l-1.5.5.5-3.5zm23 0l1.5 2.5-2-1 .5-1.5zm65 0l2.5.5-2.5.5v-1zm-19 1q3.5 2-1 4l-2.5-1.5 1.5.5 2.5-1.5-.5-1.5zm13 0l2.5.5-2.5.5v-1zm22 0l-1 2 1-2zm-95 1l3.5 1-.5 3-.5-2-2.5 1v-3zm11 0l-.5 1.5 1 3h-1q.8-2.2-1.5-1.5l2-3z"/><path fill="#040404" stroke="#040404" d="M113.5 89l3.5.5-5.5 1.5v-1l2-1zm-52 1l1 2 2-1 1.5.5.5-1.5.5 1.5-1 1 1.5 2.5-4-3q-1.3 2.3-2.5-.5l.5-1.5zm77 0l2.5 1.5-1.5-.5-1-1zm-35 1l1 2-1-2zm11 0l.5 1.5-1.5 1.5-2.5-.5 3-1 .5-1.5zm35.5 0l2 .5-.5 1.5 1.5.5-1.5.5-1.5-.5 1 2-2-1 1-3.5zM47.5 94l-1 2 1-2zm17 0l1 2-1-2zm35 0l3 1 3-1v1l-4 1-2-1-1.5.5 1.5-1.5zm47 0q3 1.5 0 3v-3zm-106 2l2.5 1.5-.5 1.5-.5-2-1.5-1zm18 0l4.5.5-3.5 1.5-1-2zm27 0q3.3-1.1 2.5 1.5l-1.5-.5-1-1zM44 97l2 .5-2 1V97zm10.5 0l-1 2 1-2zm74 0l2.5 1.5-1.5.5-2.5-.5 1.5-1.5zm-94 2l-1 2-1.5-.5 2.5-1.5zm100 0l-.5 1.5-.5 1.5-1-2 2-1zm-82 1l-1 2 1-2zm69 0l-.5 1.5q.8 2.3-1.5 1.5l2-3zm2 0l1.5 2.5-2.5.5.5-1.5.5-1.5zm2 0q2.3-.7 1.5 1.5l.5 1.5-2-3zm-71 1l-1 2 1-2zm50 1l1.5 2.5h-1l-.5-2.5zm31 0l-1 2 1-2zm39 0l.5 2.5h-1l.5-2.5zm-92 1l4.5.5-4.5.5v-1zm-11 1l2 3-2.5-.5.5-2.5zm28 0l1.5 2.5h-1l-.5-2.5zm33 0l-1 2 1-2zm4 0l1 2-1-2zm-70 1l2.5 1.5q-3.5 1.5-1 3l-1 2 .5 1.5q-2.2.8-1.5-1.5l-1-2 2-3-3 1 2.5-2.5zm37 0l1.5 2.5-2-1 .5-1.5zm18 0l4 2v-2l1.5 2.5-2.5 3.5-2-3-2.5 1.5q3.5-1.5 1-3l.5-1.5zm51 0l-.5 1.5-.5 1.5-.5-1.5 1.5-1.5zm-78 2l1 2-1-2zm23 0l1.5 3.5-2.5 1.5v-1q2.3.8 1.5-1.5l-.5-2.5zm11 0l2.5.5q-2.1 3.3-2.5-.5zm6.5 0l2 .5-2 1V107zm10.5 1l1.5 2.5h-1l-.5-2.5zm29 0l.5 1.5-2 1 1.5-2.5zm-76 1l2 4 3.5-2.5-3.5 3.5-1.5-1.5-.5-1.5-1.5.5 1.5-2.5zm24 1l-1 2 1-2zm24 2l-1 2 1-2zm3 0l-.5 1.5 1 4q-1.5 3-3 0l2.5-5.5zm-115 1l-.5 1.5-.5 1.5-.5-1.5 1.5-1.5zm55 0l1 2-2.5-.5 1.5-1.5zm29 0l.5 1.5-2 1 1.5-2.5zm-81 1l2.5.5-1 1 1.5 2.5-3-4zm14 0l1 2q-2.8.7-1-2zm15 0l-.5 1.5-1.5 3.5-.5-1.5 2.5-3.5zm32 0l.5 4.5h-1l.5-4.5zm35 0l5.5.5-5.5.5v-1zm35 0l2.5.5q-2.1 3.3-2.5-.5zm-91 1l1 2 1.5-.5-1 3 1 2-2-1 1-2q-3-1-1.5-3.5zm27 0l.5 2.5h-1l.5-2.5zm-50 1l1 2-1-2zm33 1l3.5 3.5-1 1-1.5 2.5.5-1.5 1-2-2.5-3.5zm-47 2l2 3 1.5.5-1.5.5-2.5-.5v-2l.5-1.5zm13 0q2.6-.8 1.5 2.5h-1l-.5-2.5zm66 0l1 2-1-2zm22 0l1 2-1-2zm-84 1l1 2-1-2zm71 0l-1 2 1-2zm11 0l1 2-1-2zm-75 1l.5 2.5h-1l.5-2.5zm65.5 0l2 .5-2 1V121zm36.5 0l1 2-1-2zm-110 1l5.5 6.5q-2.2 1.3.5 2.5l1-2 1.5 2.5-2.5.5-3.5-3.5v-2l-2-3h-2l1.5-1.5zm69 0l1 2-1-2zm-63 1l-.5 1.5 1 2-2-1 1.5-2.5zm13 0l.5 2.5h-1l.5-2.5zm16 0l1 2-1-2zm37 0l3 1 1.5-.5q.9 3-3.5 1.5l-1-2zm8 0l1 2-2.5-.5 1.5-1.5zm-93 1l-.5 1.5-1.5 2.5-1.5-.5 2-.5 1.5-3zm63 0l2.5 1.5q-2 3.7-4 2l-.5 1.5-.5-1.5 2.5-3.5zm56.5 0l2.5 1 1.5-.5-2.5 3.5.5-1.5-.5-1.5-1.5.5V124zm-74.5 2l1 2-1-2zm-43 1l2.5 1-.5 2-2-3zm33 0l.5 2.5h-1l.5-2.5zm84 0l-2 3-.5-2 2.5-1zm-52 1l3 4h-2l-2.5-1.5 2-1-.5-1.5zm-3 3l-1 2 1-2zm-57 1l1 2-3 2 1.5-2.5.5-1.5zm16 0l-1 2 1-2zm14 0l3.5 2.5-2.5-1.5-1-1zm77 0l1.5 1.5-1 3-.5 1.5-1.5-2.5q3.1-1.7 1.5-3.5zm-48 1l2.5.5-2.5.5v-1zm55.5 0l2 .5-2 1V133zm-46.5 1l2.5 1.5-1.5.5-1-2zm-67 1l3.5 4.5-3-2-.5-2.5zm42 1l.5 2.5h-1l.5-2.5zm10 0l1 2-1-2zm52 1l-2 3 2-3zm-67 1l-1 2 1-2zm7 1l-1 2-1.5-.5 2.5-1.5zm29 0l1.5.5-5.5 2.5 1-2 3-1zm-66 1l1.5 2.5-2-1 .5-1.5zm91 0l.5 1.5-3 2 2.5-3.5zm-37 1l-1 2 1-2zm-44 8l1 2-1-2zm71 0l-1 2 1-2zm-64 2l.5 2.5h-1l.5-2.5zm3 1q1.8 3.1 3.5 1.5l-1.5 1.5-2-3zm51 0l-2 3-1-2q1.5 2.5 3-1zm-52 2l1 2-1-2zm6 0l4.5 2.5-1.5-.5q-3.7-.2-3-2zm40 0l1.5.5-4.5 2.5 1-2 2-1zM85 158l3 1.5h-3V158zm-43.5 10l2 1 1.5-.5q.8 2.3-1.5 1.5l-2-2zm49 0l-1 2-1.5-.5 2.5-1.5zm23 0l-1 2 1-2zm27 0l3 4-3-4zm21 0l.5 1.5-2.5 1.5v-1q2.5.7 2-2zm3 0l2 1 1.5-.5-2.5 1.5-1-2zm10 0l1.5 2.5-1.5-.5-2 1 2-3zM97 169l2 .5-2 1V169zm4.5 0l2.5.5-2.5.5v-1zm27 0l-1 2 1-2zm2 0l2.5 1.5-.5 1.5-.5-2-1.5-1zm5 0l2.5 1.5-3.5 2.5 1-4zm10 0l1.5 3.5-2-1 .5-2.5zm-27 1l2.5.5q-2.2 1.3.5 2.5l1.5.5-1.5.5-3-4zm45 0l1 2q-2.8.7-1-2zm5 0l2.5 1.5-1.5-.5-2 1 1-2zm-125 1l-1 2 1-2zm5 0l2.5.5q-2.1 3.3-2.5-.5zm77 0l-.5 1.5-.5 1.5-.5-1.5 1.5-1.5zm30 0l-1 2 1-2zm-87 1l1 2 2-1v1l-2.5 1.5-.5 31.5v-35zm29 0l.5 41.5-1.5-.5-1.5-.5 2-.5v-28.5l-1-1q2.3-1.2 1-6v-2l.5-2.5zm40 0l2 3-2-3zm-1 2l1 2-1-2zm5 0l.5 1.5-3 2 2.5-3.5zm14 0l.5 1.5-2 1 1.5-2.5zm7 0v3q-3-1.5 0-3zm12 0l1.5.5-2.5 1.5 1-2zm-17 2l1.5.5-2 .5-.5 2-.5-1.5 1.5-1.5zm-103 1l.5 2.5h-1l.5-2.5zm88 0l1 2-1.5-.5 1 2v2l-.5 1.5-1.5-2.5.5-1.5-1.5-.5 2.5-2.5zm-47 2l-.5 1.5-.5 1.5-.5-1.5 1.5-1.5zm-4 1l.5 1.5-2 1 1.5-2.5zm17 0l.5 1.5-2 1 1.5-2.5zm2 0l1 2-1-2zm63 0l2.5 1.5-2.5 1.5q-3-1.5 0-3zm-4 1l2 3q-1.7-3.7-3.5-.5l-.5 1.5-.5-1.5 2.5-2.5zm-36 1l1.5 2.5h-1l-.5-2.5zm-41 1q2.3-.7 1.5 1.5l-1.5-1.5zm18 0l.5 2-2.5 1 2-3zm-58 1l.5 2-2-.5 1.5-1.5zm80 1l2.5 3.5-3 2v-4l.5-1.5zm-93 1l.5 4.5-3 2q3.1-1.5 2.5-6.5zm50 2l-1 2 1-2zm3 1l1.5.5-2 1 .5 1.5q-3-1.5 0-3zm65 2l-1 2 1-2zm-122 1l1.5 4.5h-1l-.5-4.5zm108 0l-2 3 2-3zm-98 4l1.5 2.5q-2.5 1.5 1 3l-1.5 1.5q1.6-1.7-1.5-3.5l1-1-.5-2.5zm61 1l-1 2 1-2zm-69 1l-.5 1.5-.5 1.5-.5-1.5 1.5-1.5zm56 0l-1 2 1-2zm18 0l-.5 1.5 1 2-2.5.5-2.5-1.5.5-1.5.5 2q2.7 1.1 2-1.5l1.5-1.5zm24 3l-1 2-1.5-.5 2.5-1.5zm8 0l.5 2.5h-1l.5-2.5zm12 0l.5 2.5h-1l.5-2.5zm18 0l2.5.5q-2.1 3.3-2.5-.5zm-3 3l1.5 2.5h-1l-.5-2.5zm-65 1l2.5.5-2.5.5v-1zm27 0l1 2 1.5-.5q-1.5 3-3 0l.5-1.5zm43 1l-2 3 2-3zm-17 1q3 1.5 0 3l-1.5-.5 2-1-.5-1.5zm-102 1l3 2v-2q3 1.5 0 3l-3-3zm54 0l2.5.5q-2.1 3.3-2.5-.5zm-67 1l1.5 2.5h-1l-.5-2.5zm34 0l-1 2 1-2zm46 0l-.5 1.5q.8 2.3-1.5 1.5l2-3zm20 0l-1 2-1.5-.5 2.5-1.5zm-110 1l1.5 2.5-2-1 .5-1.5zm127 0l3.5 1.5-2 1 1.5 2.5 1.5-.5-1.5 1.5-2.5-.5 1-2-4 2q3.1-1.7 1.5-3.5 1.3 2.3 2.5-.5l-1.5-1.5zm-118 1l1.5 2.5-2-1 .5-1.5zm4 0h2q3-.8 1.5 3l-3.5-3zm78 0l1.5 4.5h-3l1.5-4.5zm-47 1v2l1.5.5-1.5 1.5-2.5-.5 2.5-3.5zm64 0l2.5 1.5-4.5 2.5v-1l1.5-.5q-2.2-1.3.5-2.5zm4 0l1.5 2.5-2 1v-2l.5-1.5zm-111 2l1 2-1-2zm26 0l-1 2 1-2zm35 0l1 2-1-2zm10 0l1 2h-2l-1.5-.5 2.5-1.5zm49 0l1 2-2.5-.5 1.5-1.5zm19 0l-1 2 1-2z"/><path fill="#848484" stroke="#848484" d="M92.5 18l2.5.5-2.5.5v-1zm20 0l2.5.5-2.5.5v-1zm-25 1l2.5.5-2.5.5v-1zm30 0l2.5.5-2.5.5v-1zm22 8l1 2-1-2zm-72 1l-1 2 1-2zm-4 3l-3 4 3-4zm88 5l4 5-4-5zm7 8l1 2-1-2zm-108 9l.5 13.5h-1l.5-13.5zm95 1l1 2-1-2zm-16 4l1 2-1-2zm-86 3l.5 2-2 .5.5 1.5q-3.5-2 1-4zm95 0l3.5.5-3.5.5v-1zm34 14l.5 2.5h-1l.5-2.5zm-137 2l.5 2.5h-1l.5-2.5zm3 1l.5 11.5h-1l.5-11.5zm17 1l1 2-1-2zm56 6l-1 2 1-2zm36 0l3 4-3-4zm-84 2l1 2-1-2zm63 1l5.5.5-5.5.5v-1zm-67 6l1 2h-2l-1.5-.5 2.5-1.5zm23 1l9.5.5-9.5.5v-1zm-47 2l.5 2.5h-1l.5-2.5zm137 0l.5 2.5h-1l.5-2.5zm-120 1l-1 2 1-2zm69 1l-3 4 3-4zm24 3l.5 2.5h-1l.5-2.5zm-7 1l.5 2.5h-1l.5-2.5zm-89 1l.5 7.5h-1l.5-7.5zm31 0l7.5.5-7.5.5v-1zm-38 1q2.3-.7 1.5 1.5l-1.5-1.5zm50 1l3 4-3-4zm45 1l-1 2 1-2zm-7 2l4.5.5-4.5.5v-1zm-46 2l2.5.5-2.5.5v-1zm5 1l3 4-3-4zm44 1l5.5.5-5.5.5v-1zm17 4l-4 5 4-5zm-85 2l.5 2.5h-1l.5-2.5zm9 0l.5 5.5h-1l.5-5.5zm-9 5l.5 3.5h-1l.5-3.5zm65 1l7.5.5-7.5.5v-1zm31 1l-1 2 1-2zm-51 1l3 4-3-4zm-52 1l3 4-3-4zm-9 2l4 5-4-5zm109 0l-3 4 3-4zm-81 1l1 2-1-2zm2 3l1 2-1-2zm49 2l3.5.5-3.5.5v-1zm-45 1l1 2-1-2zm67 1l-3 4 3-4zm-92 1l1 2-1-2zm5 4l1 2-1-2zm35 0l2.5.5-2.5.5v-1zm12 0l3.5.5-3.5.5v-1zm34 0l-1 2 1-2zm-54 12l2.5.5-2.5.5v-1zm25 0l2.5.5-2.5.5v-1zm-17 1l11.5.5-11.5.5v-1zm-37 16l.5 42.5h-1l.5-42.5zm6 0l.5 35.5h-1l.5-35.5zm49 0l-1 2 1-2zm9 0l.5 42.5h-1l.5-42.5zm22 0l.5 42.5h-1l.5-42.5zm6 0l.5 42.5h-1l.5-42.5zm-110 1l.5 2.5h-1l.5-2.5zm122 1l-1 2 1-2zm-29 1l1 2-1-2zm-5 4l3.5 2.5-2.5-1.5-1-1zm-33 1l.5 2.5h-1l.5-2.5zm0 4l.5 7.5h-1l.5-7.5zm43 1l.5 2.5h-1l.5-2.5zm-90 2l.5 2.5h-1l.5-2.5zm83 2l-1 2 1-2zm24 0l.5 7.5h-1l.5-7.5zm-18 1l.5 1.5-2 1 1.5-2.5zm-49 1l.5 5.5h-1l.5-5.5zm22 1l-1 2 1-2zm-68 1q2.3-.7 1.5 1.5l-1.5-1.5zm59 1l.5 20.5h-1l.5-20.5zm35 0l1 2-1-2zm26 4l.5 2.5h-1l.5-2.5zm-23 1l.5 2.5h-1l.5-2.5zm-6 2l.5 3.5h-1l.5-3.5zm-42 8l.5 5.5h-1l.5-5.5zm68 0l2 3-2-3zm-127 1l.5 2.5h-1l.5-2.5zm21 0l.5 2.5h-1l.5-2.5z"/></svg>