<svg xmlns="http://www.w3.org/2000/svg" role="img" viewBox="-9.99 -9.99 519.48 340.48"><title>Animal Logic logo</title><defs><clipPath id="a"><path d="M138.898 623.102h123.543v88.11H138.898v-88.11z"/></clipPath><clipPath id="b"><path d="M145.705 641.919h106.214v68.16H145.705v-68.16z"/></clipPath></defs><path fill="#231f20" d="M23.335 284.957l-4.486-45.926-4.34 45.926h8.826zm-11.816-64.925h14.96l11.369 99.78H26.927l-2.542-24.983H13.459l-2.542 24.982H0l11.52-99.779zm39.194 0h11.816l12.117 62.83v-62.83h10.027v99.779H72.702l-11.967-63.876v63.876H50.713v-99.78zm52.801-.002h11.072v99.78h-11.072v-99.78zm31.118.002h15.71l7.329 57.445 6.731-57.445h15.71v99.779h-10.023v-72.848l-8.68 72.848h-7.627l-9.127-72.848v72.848h-10.023v-99.78zm84.731 64.925l-4.486-45.926-4.34 45.926h8.826zm-11.815-64.925h14.96l11.368 99.78H222.95l-2.542-24.983h-10.92l-2.543 24.982H196.03l11.519-99.779zm43.679 0h11.072v89.757h13.91v10.022h-24.982v-99.78z"/><path fill="#7d98ae" d="M293.111 220.032h11.072v89.757h13.91v10.022h-24.982v-99.78z"/><g fill="#7d98ae" clip-path="url(#a)" transform="matrix(4.70746 0 0 -4.70746 -685.899 3342.668)"><path d="M218.965 645.16c.063-.699.477-1.112 1.145-1.112.38 0 .794.222.952.508.096.16.128.35.16.604.031.35.031.413.031 1.271v12.616c0 .858 0 .89-.032 1.24-.063.73-.477 1.144-1.11 1.144-.415 0-.797-.223-.955-.509-.19-.318-.222-.667-.222-1.875v-12.616c0-.604 0-.953.031-1.27m4.45-.923c-.35-1.493-1.526-2.319-3.305-2.319-1.113 0-2.098.381-2.67.985a3.293 3.293 0 0 0-.668 1.334c-.159.635-.159.922-.159 2.193v12.616c0 1.271 0 1.525.16 2.193.35 1.493 1.525 2.288 3.337 2.288 1.08 0 2.065-.35 2.637-.954.318-.349.54-.794.667-1.334.16-.668.191-.922.191-2.193v-12.616c0-1.27-.032-1.558-.19-2.193m8.579 11.568v3.24c0 .86 0 .89-.032 1.24-.063.732-.477 1.145-1.113 1.145-.412 0-.794-.223-.952-.508-.19-.318-.223-.668-.223-1.876v-12.615c0-.604 0-.954.032-1.272.063-.7.477-1.112 1.143-1.112.382 0 .796.223.954.509.096.159.127.349.16.603.031.349.031.414.031 1.272v4.512h-1.145v2.098h3.497v-10.9h-1.145l-.254.984c-.636-.858-1.239-1.207-2.256-1.207-.953 0-1.97.413-2.51.985a3.293 3.293 0 0 0-.668 1.334c-.159.636-.159.922-.159 2.194v12.615c0 1.272 0 1.526.16 2.193.348 1.494 1.524 2.288 3.335 2.288 1.081 0 2.067-.35 2.638-.953.318-.35.54-.794.668-1.335.16-.667.191-.921.191-2.193v-3.241h-2.352m6.609 7.532h2.352v-21.196h-2.352v21.196z"/></g><g clip-path="url(#b)" transform="matrix(4.70746 0 0 -4.70746 -685.899 3342.668)"><path fill="#7d98ae" d="M251.919 646.432c0-1.271-.032-1.558-.191-2.193-.349-1.493-1.525-2.32-3.305-2.32-1.112 0-2.097.382-2.67.986-.286.349-.54.793-.666 1.334-.16.634-.16.921-.16 2.192v12.616c0 1.271 0 1.525.16 2.193.349 1.493 1.525 2.288 3.336 2.288 1.081 0 2.066-.35 2.637-.954.319-.349.541-.794.668-1.334.159-.668.191-.922.191-2.193v-3.877h-2.352v3.878c0 .858 0 .889-.032 1.239-.063.73-.476 1.144-1.112 1.144-.413 0-.795-.223-.954-.508-.19-.318-.221-.667-.221-1.875v-12.616c0-.604 0-.953.031-1.271.064-.7.477-1.112 1.144-1.112.381 0 .795.222.953.508.096.159.128.35.159.604.032.349.032.413.032 1.27v4.196h2.352v-4.195"/><path d="M203.861 675.6a46.65 46.65 0 0 1-.424.011l-.578 20.002a16 16 0 0 1 1.665.53l.69-20.616a31.07 31.07 0 0 1-1.353.073m-10.795 20.02c.662-.185 1.367-.33 2.107-.435l-.485-20.048c-.694-.066-1.39-.133-2.085-.205l.463 20.688zm8.26-20.034c-1.344-.043-2.89-.139-4.522-.267l.48 19.688a19.468 19.468 0 0 1 1.524.012c.67.027 1.32.09 1.948.177l.57-19.61zm-11.589 25.03c-.079 1.834 3.445 4.035 8.636 4.265 5.19.227 8.896-1.656 8.98-3.485.08-1.834-3.45-4.038-8.639-4.266-5.189-.227-8.894 1.655-8.977 3.486m17.59-25.33l-.716 21.758c0 .042-.01.078-.014.12 1.851 1.155 2.94 2.676 2.87 4.324-.15 3.358-5.063 5.774-11.189 5.507-3.777-.167-7.005-1.314-8.888-2.959-.003 0-.005-.004-.005-.004-.035-.03-.07-.062-.105-.09-2.534-2.274-4.306-2.762-6.71-2.59-1.68.12-3.423 1.142-4.146 2.43-.26.461-.375.941-.356 1.436-.023 1.106.456 3.166 3.34 3.101 2.017-.04 2.264-1.605 1.512-2.576-.324-.42-1.49-.869-2.545-.582-.382.093-.646-.087-.704-.32a.485.485 0 0 1 .275-.588c.57-.215 1.203-.243 1.846-.168.982.112 1.946.62 2.39 1.222.667.908.623 1.723.513 2.237-.178.804-.777 1.528-1.692 2.04-.982.55-2.272.646-3.536.265-1.29-.389-2.339-1.21-2.885-2.262-.844-1.62-.844-3.34-.004-4.837 1.061-1.9 3.465-3.34 5.84-3.508 1.726-.124 3.403.167 5.222 1.098.16-1.597 1.393-2.97 3.327-3.925l-.483-21.717c-6.303-.727-11.58-1.665-9.028-1.929 1.591-.167 15.458 1.446 27.066 1.066 1.92-.064 2.088.916-1.196 1.451"/></g></svg>