<svg xmlns="http://www.w3.org/2000/svg" role="img" viewBox="0.77 2.77 271.96 237.46"><title>ANN logo</title><path fill="#80CFCF" stroke="#80CFCF" d="M184.5 156l1 2-1-2zm5 0q3 1.5 0 3v-3zm2 3l-1 2 1-2zm1 2l2 1 1.5-.5-1.5 2.5-2-3zm16 5l-1 2 1-2zm3 0l3.5 2.5-1.5.5-2-3zm-10 2l3.5 2.5-3 3 1 1q.8 2.3-1.5 1.5l.5 1.5-.5 1.5-.5-2-2-.5 3-2-1.5-2.5q1.3 2.3 2.5-.5l-.5-1.5-1.5.5.5-2.5zm6 2l1 2-2 1-.5-1.5 1.5-1.5zm4 3l2.5.5-2.5.5v-1zm0 2l.5 2 3 .5v2q.7 2.6-2 1.5v3.5h1q-1.2-3.7 2.5-2.5l-.5-1.5.5-1.5 1 2 1.5-.5-1 2 4.5 1.5v-2l3.5 1.5-2 1 .5 1.5-1-1-2.5 1.5.5-1.5-6.5-2-1.5 3-2.5.5 2 3-3-1-1.5 3.5-.5-2h-4q1.3-3-2.5-2l.5-1.5-1-3 2-1-1 2 1 2.5 2-.5-1-2v-2q-.8-2.6 2.5-1.5h2l3 1 .5-2 2-.5-2-.5-.5-4zm-4.5 8l-1 2 2-1-1-1zm10.5-8q2.6-.8 1.5 2.5h-1l-.5-1.5-1.5.5 1.5-1.5zm-21 3l.5 1.5-2 1 1.5-2.5zm-8 2l-1 2 1-2zm7 2l-1 2 1-2zm-11 1l2.5 1.5-1.5.5-1-2z"/><path fill="#80CFCF" stroke="#80CFCF" d="M216.5 184l.5 1.5-2 1 1.5-2.5zm-27 1l.5 2-2-.5 1.5-1.5zm7 0q2.3-.7 1.5 1.5l-1.5 3.5-1.5-3.5 1.5-1.5zm-13 2l1.5 3q2.7-1.1 2 1.5l-2 4 1.5-.5 1.5.5-2.5 1.5-4.5-2.5h2q-1.2-3.7 2.5-2.5l-1-2-2.5-.5 2-1-.5-1.5zm18 2l1.5.5-2 1 .5 1.5-2.5-.5 2.5-2.5zm-7 2l-.5 1.5 1 2-1.5-.5q-3.7 1-2.5-2l3.5-1zm-15 4l-1 2 1-2zm24 0l-1 2 1-2zm9 1l1 2-1-2zm-30 1l1 2-1-2zm6 0l3 2 2.5-1.5-3.5 2.5-2-3zm12 0l1 2-1-2zm11.5 2l3 .5-2.5 1.5-.5-2zm-30.5 1l1 2-1-2zm6 2l1 2-2.5-.5 1.5-1.5zm23 6l-1 2 1-2zm-28 1l1 2q-2.8.7-1-2zm20 0l1 2-1-2zm-17.5 3l2 .5-2 1V212z"/><path fill="#FFF" stroke="#FFF" d="M0 0h271v241H0V0zm132 10l-2 2h2v-2zm-44 1q-2 3 1 2l-1-2zm12 0v2l3 1v-1l-3-2zm6 0q-2 3 1 2l-1-2zm14 0l-1 3h1v-3zm7 0l-3 2h3v-2zm29 0l-2 2 2 1v-3zm80 0l-1 1h-68l-1 2 3-1h29v26h-21l-1-1-3 1q-7-1-6 2l2-1 7 1h1l-1 9 6-1 1 3h-15v-2l-3 2h2l-1 2 2 2 1-3h6v6h-7l-2 2 1 1q1-3 4-2v2h-4v2l-1-1-1 2-1-1-2 3 2 2 2-1 1-2 1 2 1-1h6v5l-1-2-3-1-4 1q1 2-2 4h2l-1 2 1 2 4 1h-5l1 3-1-1-2 3q1 2 3 0v2h1v-6h7v13h-8l1 2 1-1h14v7l-1 1 1 3q1 3-2 2-1 4 2 4v8l-19 1 4 1 1-1h14l1 1-2 1 3 4h1l-2-3q1-4 5-3l1 2q2-3 9-2h2l2 1 3-1v1q-3-1-2 3l4 1v-2h-3l5-3-1 2h3l-1-1 16-1h31l1 1 1-1V12h-21l-3-1zM49 12q-1 2 2 1 1 2 2 0l-4-1zm28 0v2l2-1-2-1zm61 0v1h2l-2-1zm5 0l1 2q1-2 6-1l1 1v-2h-8zm-20 1l1 2q1-3-1-2zm-99 1q0 4 2 1l-2-1zm113 0l1 2h1l-2-2zm31 1l-1 4h1v-4zm0 10l-2 2h2v-2zM14 26l-1 4h1v-4zm122 6v2l2-1-2-1zm31 0v3h1q1-4-1-3zM46 36l-1 2 2-1-1-1zm31 1l-1 3h2l1-2-2-1zm62 1l-2 2 4 1v-2l-2-1zm11 0l-1 2 4 1h1l-4-3zm15 0q0 4 2 1l-2-1zM31 39v3l2-1 2 1v-2l-4-1zm38 0v1h3l-3-1zm74 0v1h5l-5-1zm12 0v1h2l-2-1zm3 0v2l4-1q1 2 2 0l-6-1zm-15 2l-2 2q-1 2 3 1 1-4-1-3zm11 1l-1 4 2-1-1-3zM14 43l1 2q1-3-1-2zm150 0l-2 2h2q-1 4 2 5h1l-3-7zm2 0l2 6 1-3q1-5-3-3zm-9 1l-1 2 2 1-1-3zm-20 2q-2 3 1 2l-1-2zm24 0l-2 3 2 4h-2l2 6-4-1q1-3-2-2v2l-1-2h-1l-2-1v-1q1-3-2-2v6h2l2 1-1 4q1 2 5 1l1-2v2l-4 3 3 1 4-1-3-1 1-6q3-1 2 4-2 1 1 2v-5h2v-2h3l-3-1 1-5-2 1v-1l-1-3h2l-1-1-2-3zM50 48l-1 3h1v-3zm2 1l-1 4 2 1-1-5zm2 0v2l2-1-2-1zm98 1l1 4 3-1v-1h-3q1-3-1-2zm-11 1l-1 3h2l-1-3zm2 1l1 1 1 1q1-3-2-2zm4 0q-2 3 1 2l-1-2zm24 2q-2 6 3 4 2-6-3-4zm-25 1l-2 3 2-1v-2zm-96 1v1h2l-2-1zm-2 2l-1 4h1v-4zm28 1v2l3-1-3-1zm-45 1l-2 2h2v-2zm24 0l-2 2h3l-1-2zm84 0l-1 4-1-1-2 4 2 1q1-4 3-1l1-2 3 1v-4l-4 1-1-3zM39 63l-1 2h3l-2-2zm12 0q-2 3 1 2l-1-2zm15 0q0 3-3 2v2q4 1 3-1 2-2 0-3zm2 0l1 2q1-3-1-2zm22 1l1 2q1-3-1-2zm38 0l-2 3h2v-3zm18 0l-3 4h2l-1 2 1 1 2-1-1-1h2q1-3-1-2l-1-3zm-73 1l-1 2v1h2l-1-3zm5 0l-4 2 3 1 1 4-1 2 3 1 1-3h-1l-2-2 1-4-1-1zm2 0v2h3l-3-2zm15 0l2 2h1l-3-2zm23 0l-3 2h3v-2zm4 0v1h2l-2-1zm30 0q-3 2 0 3 3-1 0-3zM48 66v1h2l-2-1zm38 0l-1 2q4 1 3-1l-2-1zm17 0v1h2l-2-1zm-40 1l-2 2 1 2 2-1-1-3zm76 0l-2 2 2 1v-3zm15 0l-2 2h2v-2zM52 69v1h2l-2-1zm9 0q-2 3 1 4h1l-2-4zm7 0v1h2l-2-1zm12 0q-1 2 2 1l1 1q1-3-3-2zm50 0v1h2l-2-1zm-58 1v2l2-1v2l2-1v-2h-4zm19 0l-1 3 2 3 1-4-2-2zm37 0l1 2q1-3-1-2zm7 0l-3 3 1 1 4-2q1-3-2-2zm-70 1v3h1q1-4-1-3zm31 0v1h2l-2-1zm43 0l-3 5h3l-4 3q1 2-1 1v1l3-1-2 3h2l2 5 1-2-2-1 1-5 5-1 1 2q-2-2-4 2h4v3l-3 4 2 3-1-1-2 1-2-4q-3 1-1 3h-3v2l-5-1 1 2 2-1q1 3 3 1l1 3q2-1 0-2h2l2-1 3-1q4 1 3-1l1-1-2-4 2 1h2l-1-3q-5 1-3-3h2l-2-1v-2q3 1 2-1h-1l-1-2-2 1-4-1h4l1-1q-1-3-4-2l-2-3zm6 0v3l2-1q1-3-2-2zm-59 1l1 2q1-3-1-2zm9 0q-3 2 0 3 3-1 0-3zm36 0l-1 1q-3-1-2 2l3-1v-2zm19 0l-2 4 1 3-1 2h3l1 4-1 2 1 2 5-4-1 2h2l1 1-1-2q-1-3 2-2v-2l2-3-2 1q-2-2-6-1l-2-1q1-3-2-2l1-2 2 1 1 2 1-2 4 1-1-1 3-1 4 1v-3l-5 1h-2l-8-1zm-26 1q1 2-2 4l1 2 1-2v3l3-2 2 1 1-2h-1l-3-1v-1l-2-2zm-74 1q0 4 2 1l-2-1zm21 0v1h2l-2-1zm4 0q-3 5 1 4l1-3-2-1zm7 0l-2 2h3q1-3-1-2zm-12 1l-2 4 2-1v-3zm-6 1l-2 4 2-1v-3zm19 0v2l-3-1-2 4 3 2 2-1 1 2v-4l3 2h1l-4-3 1-2-2-1zm15 0l-2 2 2 4h3l-2-1-1-5zm8 0l-2 3 2-1v-2zm27 0l-1 4 3-2q1-3-2-2zm-39 1l1 2q1-3-1-2zm7 0q-2 3 1 4 3-2-1-4zm-36 1v2q2 3 3 0l-3-2zm12 0l-2 3 2 2 1-3-1-2zm9 0l1 1 1 1q1-3-2-2zm-27 1v1h2l-2-1zm48 0v1h2l-2-1zm-54 1l1 2h1l-2-2zm41 0v3q3-1 0-3zm23 0l-1 1q-3-1-2 2h4l-1-3zm-58 1l1 2q1-3-1-2zm9 0l-2 4 5 1 1-2-4-3zm64 0l1 3-1 3 3-2-1-2-2-2zm-82 1q-2 3 1 2l-1-2zm15 0v2l2-1-2-1zm14 0l-2 2h2v-2zm23 0v4h1l-1-4zm8 0v1h2l-2-1zm-47 1l1 2q1-3-1-2zm32 0l-3 2-5 1-6-2-2 1 3 2-3 1q-3-1-2 2l-4 3 3 1 1-2h1q-1 3 2 2h2l2 1 1-4q2 1 0 3l2 3-1-1-4 3-3-1q1 2-2 4l1 3 2-1-1-2h2v-2l3 1q2-1 1 2l2-1-2-3h1q-1 2 2 1v-2l5 2 2-1 3 1q2-1 1-6l-2-2 1 5-1 1-2-1-4 1v-2l-2 1-1-2v-2l-1-2h3l-1 2 5 2 2-1-4-2v-1q4 2 3-2 2-2-1-3l3 1 2-2-2-2v2l-2-2zm13 0l-1 3v1l2-1 2 1v-2l-3-2zm-49 1l-2 2h2v-2zm14 0l1 2q1-3-1-2zm88 0l1 2q1-3-1-2zm-61 1l-1 2h3l-2-2zm-40 1l-2 2q-1 2 2 1t0-3zm3 0l2 3v-2h2l-4-1zm6 0q-4 2 1 4l2-1-3-1v-2zm46 0l-2 2h2v-2zm55 0q-1 5 3 3 2-4-3-3zm-49 1v2l2-1-2-1zm-59 1l-1 2h3l-2-2zm95 0v3l-3-2-1 2v2q1 2 5 1 2-1 0-2h2q3 1 2-1h-1l-4-3zm-91 1l-3 4 4-3-1-1zm31 0v2l2-1-2-1zm10 0v2l-2 1 1 2h3l-1-1v-1q3 1 2-1l-3-2zm-38 2l-1 2 3-1-2-1zm42 0l-2 4 1 1 3-4-2-1zm7 0v3q3-1 0-3zm-72 1l1 4 1-2q1-3-2-2zm55 0v1h2l-2-1zm48 0v5h-2l-4 2-1-2-2-1q-3 1-1 3l-3 1q-3-1-2 2h3l2-2q2-1 1 2v2q1 2 3 0h2v-2q3 1 2-1h2l3-1-1-1 2-5q-1-3-2-1l-2-1zm16 0l-1 1q-6-2-5 2l2-1 3 1-3 1 2 2q2 1 1-1h2v-1l-1-4zm-95 1v2l3-1-3-1zm5 1q0 3-2 2v1q2-1 1 2v1l2-1-1 2 1 1q4-2 1-3l1-3-3-2zm29 0v1h2l-2-1zm23 0l-2 3h2q3-1 0-3zm-57 1l-2 1-2 3 3-2 1 1q3-1 0-3zm10 0l-2 2h2v-2zm13 0q-2 3 1 2l-1-2zm14 0v3h1q1-4-1-3zm25 0l-1 2 2-1-1-1zm-27 1l-2 3 2-1 2 1-1-1q1-3-1-2zm27 1v3l3-1-3-2zm21 0l1 2q1-3-1-2zm-53 2l-1 2-2 1h3q3-1 0-3zm-5 1v1h2l-2-1zm57 0v2l2-1-2-1zm-80 1l-1 2 2 1-1-3zm11 0q-2 3 1 2l-1-2zm-6 1l-2 2h2v-2zm61 0l-1 3q1 2-1 1v1l3-1 3 2v-1l-3-3 1-1-2-1zm-69 1l-2 2h2v-2zm13 0l-2 2h3l-1-2zm43 0l-1 2-1 2 2-1v-3zm-51 1l-2 1v2q-1 2 2 1v-4zm14 0l-3 1-1 2 3-1 1 3 2-1-2-4zm6 0l2 2q1-3-2-2zm28 0l-2 2h2v-2zm24 0l-3 2q2 3 3 0v-2zm-69 1l-1 2 2-1-1-1zm21 0q-2 3 1 2l-1-2zm4 0l-2 3q3 1 2-2l3 1 2-1-5-1zm25 0l1 2q1-3-1-2zm26 0l-3 1v1q3 1 4-1l-1-1zm-87 2l-1 4 2-1q2 1 1-1h-1l-1-2zm4 0l1 2q1-3-1-2zm-55 2v1h2l-2-1zm59 1l-1 2 2-1-1-1zm63 0l1 3 1-2-2-1zm15 0v2l2-1-2-1zm-77 2l1 2q1-3-1-2zm75 0l1 3 1-2-2-1zm4 0l-2 3 2 1v-4zm-107 3q-2 3 1 2l-1-2zm119 0v2l2 1q1-4-2-3zm-103 1l-1 3h1v-3zm8 0q-2 3 1 2l-1-2zm23 0l-2 2h2v-2zm43 0q-5 2-1 4l2-3-1 2 4 1-2-2q1-3-2-2zm15 0l-1 4h3l-2-1v-3zm-126 1l-1 3h1v-3zm26 0v1h2l-2-1zm23 0v3h1q1-4-1-3zm6 1l1 2q1-3-1-2zm69 0l-7 2h6l1 1v-3zm-138 1v1h2l-2-1zm101 0v1h2l-2-1zm43 0v1h6l-6-1zm-65 1v3h1q1-4-1-3zm29 0q0 4 2 1l-2-1zm18 0l-2 2h2v-2zm123 1l-1 6h1v-6zm-92 1l-2 2h2v-2zm23 1l-6 2h2l2 3q2-1 0-2l2-1v-2zm18 0v4h1q1-5-1-4zm-17 1l1 3q-1 3 2 2l2 3 1-2-2-3 2-1-1-1h-2l-3-1zm10 0l-1 3q3-1 2 2h3l3-1-1-2-3 1-3-1v-2zm10 0l-2 4 4 1-1-1 3-2-2-2v2l-2-2zm18 1l-1 4h1v-4zm-93 2l-1 4h1v-4zm49 0l-1 3h1v-3zm74 1l-2 2h2v-2zm-30 4l-2 2h2v-2zm30 0l-1 4h1v-4zm-92 1l-1 3h1v-3zm-30 2l-2 3h2v-3zm-129 1l-2 2h2v-2zm190 0l-1 3h1v-3zm30 4l-1 4h1v-4zm31 1l-1 3h1v-3zm-239 3q-2 3 1 2l-1-2zm147 0l-2 3 1 1q4-2 1-4zm60 0l-1 2v1l3-1-2-2zm-44 1l-1 2 2-1-1-1zm7 0l-2 2h8v2h1l1-2h10v-2l-1 1h-11q-5 1-6-1zm-21 1v1h6l-6-1zm8 0v1h2l-2-1zm8 0v1h2l-2-1zm25 0v1h8l-8-1zm10 0v1h4l-4-1zm-86 2l1 2q1-3-1-2zm64 1q-2 3 1 2l-1-2zm31 4l-2 3h2q3-1 0-3zm-42 3v5l3-1-2-1 2-1-3-2zm-3 3v1h2l-2-1zm7 1l-2 3 2-1v-2zm-56 2l1 2q1-3-1-2zm57 0l1 2q1-3-1-2zm8 2l-2 3 2-1v-2zm-94 1l-2 2h2v-2zm38 0v2l2-1-2-1zm8 0v2h3q1-4-3-2zm53 1l-2 3 5-2-3-1zm-75 1l-1 2 2-1-1-1zm4 0l-1 3v1h3l-2-1v-3zm65 0v4h2v1l-2-1-1 2 4 1q4 1 3-1l3 1 1-3q1-3-2-2v2l-1-2-2 4h-1v-4l-4-2zm11 0v2h3l-3-2zm46 0l1 2q1-3-1-2zm-97 1v3l2-1-2-2zm70 0v3h1q1-4-1-3zm-110 1l1 1 1 1q1-3-2-2zm-7 1l-2 3 2 1v-4zm3 0q-2 3 1 2l-1-2zm32 0l-2 1 1 2h2l-1-3zm50 0l-1 3h1v-3zm-65 1l-3 4 3-1 1 1-1-4zm17 0l1 2h1l-2-2zm46 0l-2 2h2v-2zm47 0l1 2h1l-2-2zm13 0l-1 2q2 3 3 0l-2-2zm-135 1l-1 3h1v-3zm3 0l-2 2h2v-2zm16 0q-2 3 1 2l-1-2zm4 0l-2 3 3-2-1-1zm11 0v4h1l-1-4zm12 0l-4 1 1 4 2-3 1 2v-1h1q-1 2 2 1v-2l-3-2zm17 0q-2 3 1 2l-1-2zm7 0q-2 3 1 2l-1-2zm-53 1l-3 3-3-1 1 3-2 2-3-2-2 1 3 1v2l2-1q3 3 0 6l2-1v3q-4 1-1 3l-2-2-1 2 1 2 2-1-1 2 2 6-1 3v2q-1 3 2 2v-2l3 1v-3l-4 1 1-2 2 1-2-2 3-3 3 6-1-1-1 3 4-2-1 3q3-1 1 3h2l-1-3h2l-3-4 1-2h1q-1 2 2 1h2l-1 2 3 1h-1v1l8-1 1-2-3 1q-1-3 2-2l3-1 2 1h2l-4-3 3-1v2l2 1-1-4h3l-2-1q-1-3 2-2l1-2 1 2 2-1 1 1q-1-3 4-2l1 1v-2h-7v-1q-1-3-4-2l-3 2 2-3q3 1 2-1h-1v-1l-1-1-2-2 2-3-2 1-3-2q-2-2-3 1l1 3 1 1h-4l2-1-1-6-3 2v1q3-1 2 2l-4-1 1-2-2-1-3 4q-1 4 5 2-2 2 1 4l-1 3-1-1-1 2h-1q1-3-1-2v2h-5q-1-3 2-2l-1-1q1-4-2-3l1 3h-1l-1 3v-1l-1-3-2 3-2-2h2v-1q-2-4-3 0v-1l-1-3 3-1 1 1-2 1 4 2 1-5 1 3v-3l-4-3 2-1q1-4-1-3v2q-3-1-1-2v-2zm21 0v1h2l-2-1zm19 0l1 2 2-1-3-1zm11 0l-2 2 1 2q4-2 1-4zm21 0q-1 4 2 7-1 2-4 1l-2 1 1-2v-2l-2 1v2l-7 2 2 1h-1v1h2q-1-3 2-2v4l-1-1h-1q1 2-3 1v2l3-1 2 1-3 1h2v1l-2-1-2 1-2-3-4 1q-1 2 3 1l2 3q-4 1-3-2l-5 2-7-1v3l-2-1-1 3 2 2 1-3h2l1-2h7l2 1h2l2-1 1-2h6v-1h1q-1 3 3 1l1 3v-2l1-2q-3 1-2-2h2l-1-2 6-4 7 3 1 1-1-2 2-1v-1l-3 1q-3 1-2-2h-2v-2l-3 2v-1q2 1 1-1h-1q-3-1-1-2l-3-2 1-2v2h1q-1-3 2-2l1 1v-2h-6zm11 0l1 2 2-1-3-1zm22 0q-2 3 1 2l-1-2zm-41 1l-2 1-1 2q2-1 1 2l2-1q2 1 1-1h-1v-3zm-86 1l1 2q1-3-1-2zm78 0l-2 3h2v-3zm23 0v3h1q1-4-1-3zm-92 1q-2 3 1 2l-1-2zm5 0v3h1q1-4-1-3zm18 0q-2 3 1 2l-1-2zm9 0l1 2q1-3-1-2zm64 0q-3 2 0 3l1-2-1-1zm40 0q-2 3 1 2l-1-2zm-148 1l-2 2h2v-2zm9 0l-3 3-2-1-1 2q5 1 6-2v-2zm22 0l-1 4h3l1-1-3-3zm16 0l3 3v-1l-3-2zm6 0l-2 2h2v-2zm43 0q-2 3 1 2l-1-2zm14 0q-2 3 1 2l-1-2zm-82 1l1 2q1-3-1-2zm50 0l-2 2h2v-2zm3 0l1 3 2-1-3-2zm-71 1q-1 3 2 2 1-3-2-2zm-1 1q0 3-2 2h-2l-3 2h4v1h-4v4h-1l1 2q3 0 2-4h4l1-1-2-1 1-2 2 1-1-4zm98 0q0 4 2 1l-2-1zm-94 1v3l2-1-2-2zm40 0v2l-1-1-1 2 4-1-2-2zm31 1q-2 3 1 2l-1-2zm-52 1l1 2q1-3-1-2zm39 0q-3 1-1 3l-1 3q-2 1 1 2l1-3v-2h3l-3-3zm-60 1v2l-2 1h3q1 2 2 0l-1-1v-1l-2-1zm25 1l-3 4 3-2v-2zm19 0l1 2q1-3-1-2zm12 0l-2 2h2v-2zm9 0l-2 2h2v-2zm3 0q-2 3 1 2l-1-2zm2 0v2h3q1-3-3-2zm-65 1l-2 3h2v-3zm22 0q-3 2 0 3 3-1 0-3zm-31 2l-3 2 5 1v-2l-2-1zm91 1v2l3 1-1-1q1-3-2-2zm5 0l-1 3h1v-3zm-99 1q-2 3 1 4h1l-2-4zm68 0l1 2q1-3-1-2zm-74 1l1 2q1-3-1-2zm15 0l-3 2 4 1 1-2-2-1zm95 0v1q2-1 1 2h1q1-4-2-3zm-99 1l-5 4h5v-4zm-7 1l-1 2h3l-2-2zm63 1q-3 2 0 3 3-1 0-3zm27 0v2q-1 2 2 1l-1-1q1-3-1-2zm7 0l1 2q1-3-1-2zm-87 1l-1 3v1l3-1 4 3v-1l-6-3v-2zm6 0l-1 3h1v-3zm40 0l-3 2q2 3 3 0v-2zm15 0l-2 4h2l1-3-1-1zm15 0q0 4 2 1l-2-1zm25 0l-2 3h2v-3zm-53 1q-2 3 1 2l-1-2zm-74 1v2l2-1-2-1zm101 0l-2 3h2q3-1 0-3zm13 0l-2 3 1 1 2-1-1-3zm-102 1v3l3 1v-2h-2q1-3-1-2zm8 0l-1 3q-1 2 2 1l1 1-1-2q1-4-1-3zm49 0l-3 2 1 2h2q-1 2-2 0l-2 3 2 2v-1l4-2 1-4q-2 1-3-2zm24 0l-3 1 1 2 2-1v-2zm35 1l1 2q1-3-1-2zm-54 1l-2 2h2v-2zm6 0l2 2 1 3v-3l-3-2zm34 2l-1 3h1v-3zm-28 1l1 2h1l-2-2zm18 0l-2 2h2v-2zm-42 1v2l-2 1h-2q1 3-3 1l-1 2 3-1v5l-2-3-2 1-2-1 2 3q3-1 2 2-2 1 1 2v-3l3-1-1-2 1-3 2 1v2l2-1v3l3 1h1l-3-2 4-2 1-4-2 1-2-2-3-2zm57 0l-2 2h2v-2zm3 0l-2 2h2v-2zm42 0q-2 3 1 2l-1-2zm-136 1v1h2l-2-1zm20 0q-3 2 0 3h1l-1-3zm25 0q-1 3 2 2 1-3-2-2zm-56 1v1h2l-2-1zm63 0l-2 3 2-1v-2zm21 0l-2 3 3-2-1-1zm6 0q-2 3 1 2l-1-2zm-96 1l1 2h2l-3-2zm17 0l1 4v-3h2l-3-1zm75 0l-1 3h1v-3zm8 0q-2 3 1 2l-1-2zm10 0q-3 2 0 3l1-2-1-1zm-105 1l1 2q1-3-1-2zm16 0l-1 3h1v-3zm4 0v4h1q1-5-1-4zm15 0l-1 1q-5-1-3 4l-2 1h4l2 3q2 1 1-1l-3-3v-1q-1-4 3-2 1-3-1-2zm23 0l-1 1q-4-1-3 2l2-1v2h1q-1-3 2-2 1-3-1-2zm21 0v2l3-1-3-1zm-54 1q-3 1-1 3l-2 1h2l-1 2 1 1 1-3 1-3-1-1zm42 0l-1 2h3l-2-2zm6 0v1q2-1 1 2l2-1-3-2zm-19 2l-2 2h2v-2zm-37 1v1h3l-3-1zm52 0v2l2-1-2-1zm-50 2l1 2h2l-3-2zm25 0l-2 2 3 1v-2l-1-1zm3 0q-3 2 0 3 3-1 0-3zm11 1l1 4 1-2-2-2zm-47 1v1h2l-2-1zm43 0v1h2l-2-1zm17 0l-1 3h1v-3zm-24 1l1 3v-2h2l-3-1zm-11 1v2l2-1-2-1zm17 0l-2 2 2 1v-3zm9 0q-2 3 1 2l-1-2zm-27 2l-2 2h3q1-3-1-2zm28 0v2l3 1h1l-4-3zm-17 1v1h2l-2-1zm-19 1l-2 4 2-1v-3zm9 1l-2 2h3l-1-2zm9 0l-2 2h2v-2zm4 0l-2 2h2v-2zm17 1v2l2-1-2-1zm-11 1l-2 2h2v-2zm2 0l1 3 1-2-2-1zm77 0q-2 3 1 2l-1-2zm-112 1l-3 2h3v-2zm5 0l-3 2q2 3 3 0v-2zm6 0l1 2 2-1-3-1zm14 0v1h2l-2-1zm42 0l1 2q1-3-1-2zm28 0q-2 3 1 2l-1-2zm-21 2q0 4 2 1l-2-1z"/><path fill="#FFF" stroke="#FFF" d="M199 13h14v26h-14V13zm10 22q-1 5 3 3 2-4-3-3zm5-22l7 .5-3 .5v3q4.1-1.3 3 2h-7v-6z"/><path fill="#FFF" stroke="#FFF" d="M222.5 13h2.5v6q-3.7 1.5-3-1.5l1-3-.5-1.5zm3.5 0q4.9-1.6 3 4-2.7-1.1-2 1.5h-1V13z"/><path fill="#FFF" stroke="#FFF" d="M230 13q4.1-1.7 3 2.5l-1.5-.5q-2.6.7-1.5-2zm4.5 0l.5 2.5h-1l.5-2.5z"/><path fill="#FFF" stroke="#FFF" d="M238 13h6v13h-14v-8l5.5-1 3.5 1-1-5zm7 0h14v13h-13.5l-.5-3q4.5 1.5 3-3h-3v-7zm-31 7h7v6h-3q1.1-3.3-3-2l-.5 2-.5-6zm8 0h7v6h-7v-6zm-8 7h7v12h-7V27zm2 6q-1 5 3 3 2-4-3-3zm14-6l3 .5-2.5 1.5-.5-2zm7 0h6.5l.5 2h-2.5l-4.5 3v-5zm8 0l7 .5-2 .5q-1.5 3.7 1.5 3v1H245v-5zm8 0h6v12h-6V27zm-31 2l3 1.5q.7 3-3 1.5v-3zm11.5 2l2.5.5-2.5.5v-1z"/><path fill="#FFF" stroke="#FFF" d="M226 33q4.1-1.7 3 2.5l-1 3.5-6-.5 2-.5q-1-3 2-2v-3zm4 0q4-1.4 2 5.5h-1l-1-5.5z"/><path fill="#FFF" stroke="#FFF" d="M233.5 33l.5 2q3.7-1.2 2 4h-3l.5-6z"/><path fill="#FFF" stroke="#FFF" d="M237 33l3 1.5-3 .5v-2zm13 0h2v6h-7v-3h5v-3zm-9 4q4.1-1.3 3 2-4.1 1.3-3-2zm-62.5 3l.5 2q3.8 1.5 3-1.5h1V44h-5l.5-4zm5.5 0h14v12h-3l-.5-3h-9l-1.5-1.5V40z"/><path fill="#FFF" stroke="#FFF" d="M201 40h2v6q-6 2-4-4 3 1 2-2zm3 0q4.9-1.8 3 4.5l-3 1.5v-6z"/><path fill="#FFF" stroke="#FFF" d="M208 40l5 .5V66h-12.5l-1.5-1.5V47h6.5l3.5 1-1-8zm6 0l6 .5-1 3 1 5.5h4q-1.1 3.3 3 2-1-3 2-2v17h-15V40zm11 0q3.8-1.5 3 1.5l1 2.5-4-1.5V40zm7.5 0h3.5v6h-6v-2q4.1 1.7 3-2.5l-.5-1.5z"/><path fill="#FFF" stroke="#FFF" d="M237 40q4.5-1.5 3 3-4.5 1.5-3-3zm4.5 0l2.5.5-2.5.5v-1zm3.5 0h14v26h-14V49h5.5q-.7 3 3.5 2l-1-8-8-1v-2z"/><path fill="#FFF" stroke="#FFF" d="M242 44q3-1 2 2-3 1-2-2zm8 0q3-1 2 2-3 1-2-2zm-72 1h5v3q-3.8 1-5-1.5V45zm43 0q3.3-1.1 2 3-3.3 1.1-2-3zm5 0q4.5-1.5 3 3-4.5 1.5-3-3zm19 0l3 1.5q.7 3-3 1.5v-3zm-15 2h6v4.5h-1q.7-3-3-1.5 1 3-2 2v-5zm12 0h2v5h-2v-5zm7.5 0l2.5.5-2.5.5v-1zm-64 3q3.8-1 2.5 2l-4-.5 1.5-1.5zm-9.5 3q3.7-1.5 3 1.5l-1 3.5h3q-1-3 2-2 1.1 2.7-1.5 2l-5.5 1v-6zm8 0h14v11.5l-4 1.5-1-3.5 1-3-1.5-1.5q-6.1.8-8.5-1v-4zm46 0h6v13h-6V53zm1 1q-1 5 3 3 2-4-3-3zm8-1h5v3h-3v7.5l-1 2.5-3-.5V55q3 1 2-2zm-84.5 6q2.7 1.3.5 2.5l-.5 1.5-.5-1.5.5-2.5z"/><path fill="#FFF" stroke="#FFF" d="M186.5 59q3-.8 1.5 3-5.2 1.7-4-2l2.5-1z"/><path fill="#FFF" stroke="#FFF" d="M189 59q3-1.2 2 2.5v2q1 3.8-2 2.5v-7zm53 0q3-1 2 2-3 1-2-2zm-70 1q4.5-1.7 3 3.5l-1 2.5h-2v-6z"/><path fill="#FFF" stroke="#FFF" d="M176 60l7 1v5h-2q1.5-4.5-3-3l-.5 3-1.5-6zm66 2q3.3-1.3 2 3.5h-1l-1-3.5zm-54.5 1l.5 2.5h-1l.5-2.5z"/><path fill="#FFF" stroke="#FFF" d="M180 67q4.1-1.7 3 2.5l-1 2.5h-2v-5zm4 0h6v12h-6v-5.5l1-3-1-3.5zm7 0q6-2.2 4 4.5l-1 3.5 3.5-1 .5 5h-7V67z"/><path fill="#FFF" stroke="#FFF" d="M196.5 67l1 2q-2.8.7-1-2zm4 0H229v26h-14.5l-.5-2.5-1-3.5-11.5-1-2.5 1V68.5l1.5-1.5zm29.5 0h29v52h-29V67zm11 42q-1 5 3 3 2-4-3-3z"/><path fill="#FFF" stroke="#FFF" d="M196 70q3-1.2 2 2.5l-2-1V70zm-28 3q4.1-1.3 3 2-4.1 1.3-3-2zm4.5 0l.5 3q3.3-1.1 2 3h-3l.5-6z"/><path fill="#FFF" stroke="#FFF" d="M178 73l5 .5-2 .5v3q3-1 2 2h-7v-4q3 1 2-2zm-24.5 7l2.5.5 1 3-1.5-.5q-2.2.8-1.5-1.5h-2l1.5-1.5zm22.5 0h7v2.5l-1 3 .5 1.5H180v4l-4 2V80zm8.5 0l.5 2.5h-1l.5-2.5zm2 0l1.5 4q-3.8 1.2-1.5-4zm4.5 0h7v7h-7v-7z"/><path fill="#FFF" stroke="#FFF" d="M189.5 82l.5 11h-6v-6.5q1.2-2.5 5-1.5l.5-3zm-106 4l1.5 2.5q-1.5 3-3 0h2l-.5-2.5zM199 88q3.3-1.3 2 3.5l-2 1V88zm8.5 0l.5 5q-3 1.3-2-2.5l1.5-2.5zm1.5 0q3.8-1.5 3 1.5l-1 3.5h-2v-5z"/><path fill="#FFF" stroke="#FFF" d="M193.5 89l4.5 1q1.7 4.1-2.5 3l-3-1-1.5.5q-1.1-3.3 1.5-2.5l1-1zm8.5 0l3 1.5q1.1 3.3-1.5 2.5l-1.5-4zm-21 2q3-1 2 2-3 1-2-2zm3.5 3h5.5v2.5l-1 2.5-5-.5 2-.5q1.5-3.8-1.5-3v-1zm7 0l2.5 1.5-3 .5.5-2z"/><path fill="#FFF" stroke="#FFF" d="M195 94q4.1-1.3 3 2-4.1 1.3-3-2zm4.5 0l2.5 1q1.9 5.6-3 4l.5-5z"/><path fill="#FFF" stroke="#FFF" d="M203 94q4.5-1.5 3 3-4.5 1.5-3-3z"/><path fill="#FFF" stroke="#FFF" d="M207 94h6v12h-4q1.3-4.1-2-3v-9zm7 0h15v12h-15V94zm8 3q-1 5 3 3 2-4-3-3zm-30 0q3-1 2 2-3 1-2-2z"/><path fill="#FFF" stroke="#FFF" d="M184.5 100q8.3-2.7 5.5 5.5h-1l-1.5-3.5q-3.8.5-3-2z"/><path fill="#FFF" stroke="#FFF" d="M191 100h7v6q-3 1-2-2h-3q1 3-2 2v-6zm8 0h7v6q-3 1-2-2h-3q1 3-2 2v-6zm-15 4q3-1 2 2-3 1-2-2zm0 3h6v6h-6v-6zm7.5 0l.5 3 5-1 .5-2 .5 12h-7l.5-12zm14 0l.5 12h-7v-7h3q-1.1-2.7 1.5-2l2-3zm1.5 0h6v5l-6 1v-6zm7 0h15v12h-15v-12zm11 1l-6 1-1 7 8-1 1-4q1-4-2-3z"/><path fill="#FFF" stroke="#FFF" d="M220 110q3.3-1.3 2 3.5l-2-1V110z"/><path fill="#FFF" stroke="#FFF" d="M223.5 110l1.5 4q-3.8 1.2-1.5-4zm-39.5 4h2v3q3-1 2 2-6.4 2.1-4-5zm-23.5 66l1.5 2.5-2-1 .5-1.5zm-10 1l-1 2 1-2zm12 4l1.5.5-2 4 .5 1.5-1.5-2.5 1.5-3.5zm-8 6l1 2-2.5-.5 1.5-1.5zm6 0l2.5 1.5-1.5.5-1-2zm5.5 0l2 .5-2 1V191zm-16 3h5.5l.5 1.5 2 3-1.5.5-2-4-3.5.5 3 1-4 .5v-3zm8 0l2 .5-1 2 .5 1.5-1.5-4zm3.5 0l2.5.5-2.5.5v-1zm-25 2l1 2-1-2zm15.5 2l4 2.5-4-1V198zm-10.5 1l1 2-2.5-.5 1.5-1.5zm7 1q4.8.3 6.5 3.5h-2l1 2-2 .5 1-3.5-2-.5-.5 2-2-4zm15 6l.5 2.5.5 1.5 1.5-.5q-1.2 2.8-2.5.5l-1.5-.5 1.5-3.5z"/><path fill="#A700FF" stroke="#A700FF" d="M235 11q4.5-1.5 3 3-4.5 1.5-3-3zm-17 3h5v3h-5v-3zm11 1q4.5-1.5 3 3-3-1-2 2h-3v-3q3 1 2-2zm7 0q4.5-1.5 3 3-4.5 1.5-3-3zm9 5q4.5-1.5 3 3-4.5 1.5-3-3zm-30 4q4.5-1.5 3 3-4.5 1.5-3-3zm6 2l6 1q-1.7 4.1 2.5 3l3.5-1q-1.1-3.3 3-2v3h-3q1.3 3-2.5 2l-3.5 1q1.7-4.1-2.5-3l-3.5-1v-3zm29 2q4.5-1.5 3 3-4.5 1.5-3-3z"/><path fill="#A700FF" stroke="#A700FF" d="M241 29q4.1-1.7 3 2.5l-1 2 1.5-.5q7.3-2.3 5.5 3l-9 1-.5-2-.5 4h-3v-4q-4.5 1.5-3-3h3q-1.7 4.1 2.5 3l-.5-1.5V31q3 1 2-2zm-25 4q4.5-1.5 3 3-4.5 1.5-3-3zm7 0q4.5-1.5 3 3-3-1-2 2h-3v-3q3 1 2-2zm-14 2q4.5-1.5 3 3-4.5 1.5-3-3zm19 1h3v4.5q3-.7 2 3.5h-4v-1.5l-1-6.5zm-55 2q4.5-1.5 3 3-4.5 1.5-3-3zm6 1q4.5-1.5 3 3-4.5 1.5-3-3zm19 0q4.5-1.5 3 3-4.5 1.5-3-3zm24.5 1q3.8-1.2 2.5 2.5l2 8.5q-4.1 1.7-3-2.5l-2.5-4.5q-4.2 1.1-2.5-3l3.5-1zm-80 1q3-.8 1.5 3-3.8 1.5-3-1.5l1.5-1.5zm98.5 0q4.5-1.5 3 3-2.7-1.1-2 1.5V52h-3q1.5 4.5-3 3v-4q4.5 1.8 3-3.5l-3-1.5v-3h5v-2zm-85.5 1l-.5 1.5-.5 1.5-.5-1.5 1.5-1.5zm89.5 0l5 1q1.7 4.1-2.5 3l-2.5-1v-3zm-87.5 1q3 1.5 0 3-2.2.8-1.5-1.5l1.5-1.5zm8.5 0q4.5-1.5 3 3-4.5 1.5-3-3zm40 2q4.5-1.5 3 3-4.5 1.5-3-3zm-30 2q4.5-1.5 3 3-4.5 1.5-3-3zm-16.5 1l3.5 1.5-2.5 1.5-1-3zm22.5 0q4.5-1.5 3 3-4.5 1.5-3-3zm69 0q4.5-1.5 3 3-4.5 1.5-3-3zm-63 1q4.5-1.5 3 3-4.5 1.5-3-3z"/><path fill="#A700FF" stroke="#A700FF" d="M192 49q4.5-1.5 3 3-4.5 1.5-3-3zm40 1q4.5-1.5 3 3-4.5 1.5-3-3zm-65.5 1l2.5 1q1.5 4.5-3 3l1-2.5-.5-1.5zm13.5 2q4.5-1.5 3 3-3-1-2 2l5-1q1.5 3.7-1.5 3l-3.5 1v-3q-4.5 1.5-3-3 3 1 2-2zm-18 1q3-1 2 2-3 1-2-2z"/><path fill="#A700FF" stroke="#A700FF" d="M171 54q4.9-1.6 3 4-4.9 1.6-3-4zm60 0q4.5-1.5 3 3-4.5 1.5-3-3zm-82 1q3.7-1.5 3 1.5h2q-1.7 4.3-3.5 1.5-3 .7-1.5-3zm6 1q2.7-1.1 2 1.5l2 3-2 3.5q-3.8.8-5-2.5l3 1-1-2 1-4.5zm86 0q4.5-1.5 3 3-4.5 1.5-3-3zm-79 1l3 1.5-1.5 2.5-1.5-.5-.5 1.5-1.5-2.5 2-.5v-2zm29 2q4.5-1.5 3 3-4.5 1.5-3-3zm-51.5 2l4.5 1.5-1.5 2.5-2.5-1v2q-3.7-1.5-3 1.5h-1l.5-4.5 3.5.5-.5-2.5zm29 1q4.2-1.1 2.5 3l-3.5 2-1-1-3.5 2.5.5-4.5 1.5.5.5-1.5q1.5 2.5 3-1zm9.5 1q4.1-1.7 3 2.5l-1 3.5h-3q1.1-3.3-3-2v-3q3.8-1.5 3 1.5h1V63zm6 0q4.5-1.5 3 3-4.5 1.5-3-3z"/><path fill="#A700FF" stroke="#A700FF" d="M191 63q4.5-1.5 3 3-4.5 1.5-3-3zm-32.5 1l.5 2.5-1.5 1.5-2.5-1.5 3.5-2.5zm81.5 0q4.5-1.5 3 3-4.5 1.5-3-3zm-43 1q4.5-1.5 3 3-4.5 1.5-3-3zm-53.5 2q3.8-.7 4.5 1.5l-3.5 1.5v-2l-1-1zm-14 2l-.5 1.5-.5 1.5-.5-1.5 1.5-1.5zm38.5 0l6 1 .5 2 .5-2h3v5l-5 1q1.5-3.7-1.5-3l-3.5-1q1 3-2 2-1-3 2-2v-3zm-35.5 1h2q3-.8 1.5 3l-4-.5.5-2.5zm49.5 0q4.5-1.5 3 3-4.5 1.5-3-3zm-43.5 2l5.5 3.5-.5 1.5q-1.2-2.2-2.5.5l-.5 2.5-1.5-.5q.8 2.3-1.5 1.5l-2.5-.5-.5-2.5-1.5.5q-1-3.7 2-2.5l.5 2 1.5-.5q-2.2 1.3.5 2.5l1.5-2.5-3-2 2.5-3.5zm11 0h2l4 2 2.5-1q1.5 4.5-3 3l-.5-2-1.5.5-.5-1.5-1 2-2-3zm44.5 0q4.5-1.5 3 3-4.5 1.5-3-3zm-70.5 1l2.5 1.5-1.5.5-2.5-.5 1.5-1.5zm5 0l1 2-1-2zm20 1l4 6q1.3-2.2 2.5.5l-1 2.5h2q-1.7-5.2 2-4l.5 4 1-2 .5 1.5-4.5 3.5-1-1-2.5 1.5-1-4.5 2-.5-3.5-1.5-1.5.5 1-2-1-3 .5-1.5z"/><path fill="#A700FF" stroke="#A700FF" d="M181 74q4.5-1.5 3 3-4.5 1.5-3-3zm-14.5 1q6.3-1.9 4.5 3h-3q1.1-2.7-1.5-2v-1zm-44 1l.5 2.5h-1l.5-2.5zm1.5 0l5 1-.5 2-3-2-1.5.5V76zm7.5 1l-1 2 1-2zm13 2v2l3.5 1.5-2 .5-.5 2-.5-2-4-.5 3.5-3.5zm42.5 0q4.5-1.5 3 3-4.5 1.5-3-3zm-54.5 3q2.3-.7 1.5 1.5l1 1q-3.1 1.8-1.5 3.5l-1.5-3.5.5-2.5zm33 0l2.5.5q.8 2.3-1.5 1.5v2q-4.5-2-1-4z"/><path fill="#A700FF" stroke="#A700FF" d="M182 83q4.5-1.5 3 3-4.5 1.5-3-3zm-55.5 2l1 2-1-2zm22 1l1.5 2.5-2.5.5-1.5-1.5 2.5-1.5zm21.5 0q4.5-1.5 3 3-4.5 1.5-3-3zm-28.5 2h2l2.5 1.5 1 3h-1l-.5-1.5-1 2-3-5zm16 0l2 3q-2.2-.7-1.5 1.5l-4 1.5.5-4 2.5 1 .5-3zM135 92h5v3h-5v-3zm-5 1l2 .5-.5 1.5 1.5.5-2 1-1-3.5zm-3.5 1l2.5.5-3 1.5.5-2zm22 0h2l2.5 1.5-2 .5q1 3.8-1.5 5l-2-1-.5 2-2.5 1-4-1v1l1.5.5-2 1q2.3 1.3-.5 2.5l-3-4q1.8 3.8 3.5.5v-2q.8-2.2-1.5-1.5v-3l4 2 2-2 3 1 1.5-1.5-.5-2.5zm13 1h2l1.5.5-1 2.5-3-1.5.5-1.5zm-28 3l1.5 3.5h-1q.8-2.2-1.5-1.5l1-2zm-16 3l1 2-1-2zm-2 2l2 3-2-3zm34.5 9l3 1.5-.5 1.5-1-2-1 2-.5-3zm-13.5 4l1 2 1.5-.5q.8 2.3-1.5 1.5l-1.5-.5-.5 1.5-.5-2.5 1.5-1.5z"/><path fill="#001D00" stroke="#001D00" d="M47.5 9l1 3 4.5.5q-1.3 2.8-2.5.5l-4-2-1.5.5L47.5 9zm17 1l1 2-1-2zm14 0l2.5 1.5-1.5-.5-1-1zm5 0l2.5 1.5-1.5.5-1-2zm7 0l-2 3q-2.2.8-1.5-1.5 1.8 1.6 3.5-1.5zm6 0l1.5 1.5-.5 2.5-1.5-1.5.5-2.5zm33 0l2.5.5q.8 2.3-1.5 1.5l-2.5-.5 1.5-1.5zm-96 1l-1 2 1-2zm23 0l1 2-1-2zm43.5 0l3 1.5-.5 1.5-2.5-1v-2zm5.5 0l1 2q-2.8.7-1-2zm14 0l.5 2.5h-1l.5-2.5zm7 0l.5 2q-3.8-1.5-3 1.5l-2-1 4.5-2.5zm10 0l3 1 1.5-.5-3.5 1.5-1-1-2.5 1.5 2.5-2.5zm19 0l.5 2.5-2-1 1.5-1.5zm3 0l-1 2 1-2zm3 0l3.5 1.5-1.5.5-2-2zm-87 1q3 1.5 0 3v-3z"/><path fill="#001D00" stroke="#001D00" d="M77 12l2 .5-2 1V12zm65.5 0h8l.5 1.5-1.5-.5q-4.7-1.2-6 1l-1-2zm23.5 0l69 .5-1 3h1q-.8-2.6 2.5-1.5v1q-2.6-.7-1.5 2h-3.5l.5-1.5q1.1-4.2-3-2.5l-.5 2-.5-2q-5.2-1.8-3 5.5l.5 1.5q-7.2-2.3-4.5 5.5l-3.5 1.5v-1h2.5v-6h-7v19h8.5l5.5.5-7.5 1.5-6.5-1v26h15V49.5l-1.5-.5v-1q3 .7 1.5-3l-3-.5 4-.5.5 2h7v2q2.6-.8 1.5 2.5h-1l-.5-1.5-1 2-.5-4h-6v5l2 .5-2 .5v13h6l.5-11 .5 11 3 .5-10 .5v52h29V67.5l-.5-.5h-15l.5-1.5q1.3-4.8-2-3.5l-.5 2-.5-4.5h1q-.7 2.6 2 1.5v-8h-4.5v-1h4.5v-5l-3-.5 3-.5v-6h-3l-.5 3-.5-3q-4.1-1.7-3 2.5h-1q1.3-4.2-3.5-2.5l-1.5.5 1-7.5q-3-1.2-2 2.5h-1l1.5-3.5 3.5.5-1 6.5q4.5 1.8 3-3.5h1q-1.5 5.3 3 3.5l.5-4 .5 4q3.7 1.5 3-1.5h1l.5 1.5h6.5v-6h-8.5l.5-1.5V27h-7v5h1.5v1l-5.5-2.5 3-.5v-3h-6l-.5 3q-1.7-2.7-3.5 1.5l.5 1.5q-5.4-1.9-4.5 1.5h-1l.5-5.5.5 3h3v-2h2q-1.1-2.7 1.5-2v-1l-4.5-.5 5-.5.5-6 .5 6h14V13l-6-.5 22-.5v107.5l-1.5 1.5-1-1h-29l1 2 1.5.5-1.5.5-3-3h-15v2l-2.5.5 2 .5.5 4 1-3h2l2.5 1.5-3 2 .5 1.5-4-2-4 2-2.5-.5q.7-2.6-2-1.5v-2.5h1q-.7 2.3 1.5 1.5l5.5.5-1.5-3.5-1 2-3.5-1q-1.5-3.8 1.5-3v-1l-3 1-2-1-1.5 2.5.5 1.5-1.5-2.5.5-1.5q-7.8-1.3-10 3l.5-1.5q.8-2.6-2.5-1.5l-2.5 3.5q1.2 2.7 2.5.5l5-1 .5 2-2 .5 2.5 3.5-1.5-.5-.5 1.5-2.5-5-3.5 1-4-6h-12l-2 2v-2l-2.5-.5 19-.5v-8.5q-3 .8-2-3.5 3 1.3 2-2.5l-1-3 1-1V94h-14.5l-1 1-.5-2h8V80h-6.5l-.5 1.5q-1.5 3-3 0l.5-2.5h5.5v-6q-3.8.8-5-2.5l2-.5q-1.2 3 2.5 2 3 1.6 1.5 7 4.1 1.7 3-2.5h1V79h7l.5-2 .5 2 3 .5-1 4.5q2.7 1.1 2-1.5h1q1.2 4.6-4 2.5l-.5-5-1 3-.5-3h-7v13l4-2v-4h2.5l1.5-.5V93h6V67.5l-.5-.5H184l-.5 3-.5-3-3-.5 3-.5.5-5 4.5 1q1.5-3.8-1.5-3v-1l6.5.5-4 .5v7h7.5l-.5 1.5q-.7 2.3 1.5 1.5l1.5-.5v18l1.5.5 3-1 1 1h8.5l1 6h15V67l-29-.5 13-.5V40.5l-5-.5-.5 5-.5-5h-3v6l2 .5-7 .5-.5 18-.5-12h-13.5l-.5 3.5h-1q1.5-5.2-3-3.5l-.5 2-.5-2h-3v6l5 .5-5 .5-.5 4-.5-4h-3v6l2 .5-6.5 1.5 1-2h2.5v-6l-4 1.5.5 1.5-1.5-2.5.5-1.5-1.5-.5 2.5-1.5v2h7.5v-6l-6-.5 13.5-.5 1-1 1 1H198l.5-10 .5 4h4v-6l-2-.5 12-.5V13h-14v25.5l-1.5 1.5H184v7.5h-1V45h-5l-.5 2-1.5-7.5 2.5-.5-.5 1.5V44h5l-1-4.5 16-.5V13h-29.5l-3 2 .5-1.5V12zm48 1v6h7l1-2v2h3v-6l-3 1-1-1h-7zm31 0v13h14V13h-14zm0 14v5h7l1-1v8h6V27l-6 1-1-1h-7zm0 13v8q4 1 3-2h4q1-3-1-2v-1q4-1 2 5l-1-1-3 1 2 1h-6v17h14V40h-14zm-61 23q-2 5 4 3 2-5-4-3zm7 4v12h7l-1-5 1-4q-3-1-2 2h-1q2-7-4-5zm0 13v7h7v-7h-7zm8 8v5l2-1q1-5-2-4zm9 0l-2 3q-1 3 2 2v-5zm1 0v5h2l1-3q1-4-3-2zm-15 1l-1 1q-3-1-2 3l2-1 3 1q4 1 2-3l-4-1zm8 0l2 4q2 1 1-2l-3-2zm-21 2q-1 3 2 2 1-3-2-2zm4 3v1q2-1 1 3l-2 1h5l1-2v-3h-5zm7 0l-1 2h3l-2-2zm3 0q-1 3 3 2 1-3-3-2zm5 0l-1 5q5 2 3-4l-2-1zm3 0q-1 5 3 3 2-4-3-3zm4 0v9q3-1 2 3h4V94h-6zm7 0v12h15V94h-15zm-22 3q-1 3 2 2 1-3-2-2zm-7 3q-1 2 3 2l1 4h1q3-9-5-6zm6 0v6q3 1 2-2h3q-1 3 2 2v-6h-7zm8 0v6q3 1 2-2h3q-1 3 2 2v-6h-7zm-15 4q-1 3 2 2 1-3-2-2zm0 3v6h6v-6h-6zm8 0l-1 12h7v-12l-1 2-5 1v-3zm14 0l-2 3q-3-1-2 2h-3v7h7v-12zm1 0v6l6-1v-5h-6zm7 0v12h15v-12h-15zm-30 7q-2 7 4 5 1-3-2-2v-3h-2zm25 6l-3 2v1q4 1 4-2l-1-1zm-11 6l1 2q1-3-1-2zM16.5 13l.5 1.5-2 1 1.5-2.5zm7 1l3.5 1.5-2.5.5-1-2zm113 0l2.5 1.5-1.5.5-1-2zm-118 1l1 2-1-2z"/><path fill="#001D00" stroke="#001D00" d="M167.5 15l.5 3.5-2.5 3.5.5-1.5 1.5-5.5zm-119 1l-1 2 1-2zm24 0l1.5.5-2.5 1.5 1-2zm-49 3l1 2-1-2zm19 0l1 2-1-2zm94 0l2.5 1.5-1.5 2.5-.5-1.5.5-1.5-1-1zm-88 1l1 2-1-2zm29 1l1.5 2.5h-1l-.5-2.5zm90 1l.5 1.5v2q.8 2.3-1.5 1.5l.5-3.5.5-1.5zm-30 2l1.5.5-2.5 1.5 1-2zm-124 2l.5 3.5h-1l.5-3.5zm123 1l1 2-1-2zm-60 2l1 2-1-2zm61 1l1.5 1.5-1.5 2.5 1.5.5-1.5.5-1.5-3 2-.5-.5-1.5zm29 2q2.6-.8 1.5 2.5v2l-1 2 6 1-5.5 1.5-1-2h-2l-3 3-3.5-1q-1.4-4 5.5-2l3.5-1-1-2.5 1-2-.5-1.5zm-97 2l1 2-1-2zm-40 2l1 2-1-2zm16 0l1.5.5-2.5 1.5 1-2zm18 1l-1 2 1-2zM77 37l2 .5-1 2.5-2-.5 1-2.5zm-60.5 1l1 2-1-2zm21 0l-1 2 1-2zm12 0l1 2-1-2zm5 0l-1 2 1-2zm5 0l1 2-1-2zm79 0l2.5.5q.8 2.3-1.5 1.5-1.2 2.3-2.5-.5l1.5-1.5zm11 0l4 2 3-1v1l-4 1-3.5-1.5.5-1.5zm-125 1l1.5 2.5-2 1v-2l.5-1.5zm6.5 0l4 1-1.5 3v-2l-2 1-.5-3zm37.5 0l3.5.5-3.5.5v-1zm74 0l5.5.5-5.5.5v-1zm11 3l.5 3.5h-1l.5-3.5zm-140 1q2.3-.7 1.5 1.5L13.5 43zm61 0l-1 2 1-2zm87 0l4.5.5-1 4 2 1 .5-2.5.5 2.5v2l-.5 1.5-.5-2-2 .5v2q.8 2.3-1.5 1.5l-1.5-.5q-1.1 3.3 1.5 2.5v1q-2.2-.7-1.5 1.5h-1q.6-4.6-2-6h1l.5 1.5 1-3q1.8 3.8 3.5.5-3.5-1.5-1-3 1.5-4.4-1.5-3.5l-1-2zm-118 1l1.5 2.5h-1l-.5-1.5-1 2-.5-1.5 1.5-1.5zm93 0l2.5 1.5-2 1 .5 1.5q-2.2.8-1.5-1.5l.5-2.5zm83.5 0l2 .5-1 3.5 3 .5-4 .5v-5z"/><path fill="#001D00" stroke="#001D00" d="M160.5 46l.5 2.5h-1l.5-2.5zm-86 1l-1 2 1-2zm-56 1l-.5 1.5-.5 1.5-.5-1.5 1.5-1.5zm22 0l-1 2 1-2zm9 0l.5 2.5h-1l.5-2.5zm130 0l2.5.5-2.5.5v-1zm-144 1l-1 2 1-2zm16 0l1.5 4.5-2-1 .5-3.5zm2.5 0l2 .5-2 1V49zm131.5 0l2.5.5-2.5.5v-1zm-153 1v3q-3-1.5 0-3zm119 0q2.6-.7 1.5 2h2.5l2-1v1l-5 2-1-4zm-108 1l-2 3 2-3zm3 0l2.5 1.5-1.5-.5-1-1zm13 0l-1 2-1.5-.5 2.5-1.5zm78 0l-.5 1.5.5 1.5 1.5-.5-1 2 1 2h-1l-2-5 1.5-1.5zm3 0l1 2 3.5-1-.5 2-2-1-2.5 1 .5-3zm-72 1l-1 2 1-2zm78 0l1 2q-2.8.7-1-2zm2.5 0q2.7-1.1 2 1.5l-2 1V52zM38.5 54l1.5 2.5-2-1 .5-1.5zm17 0v3q-3-1.5 0-3zm-3 1l-1 2-2.5-.5 3.5-1.5zm93 0l.5 1.5-2 1 1.5-2.5zm8 0q-1.6 1.8 1.5 3.5l-1 1-1 3q2.5 1.5-1 3l1.5 1.5 1.5-.5-1 2.5-4-2.5 3-3v-2l-1-5 1.5-1.5zm-123 1l3.5 2.5-1.5.5-2-3zm10 2l1 2 1.5-.5-1.5 1.5-2.5-.5 1.5-2.5zm7 0l.5 3.5-2 1 1.5-4.5zM76 59l3 .5-3 1.5v-2zm61.5 0l3.5 7q3 1.3 2-2.5h1l.5 2.5 1-2q3 1.5 0 3l-2-1-2 1-2.5-.5 1-2h-2v-2l-.5-3.5zm-122 1l-1 2 1-2zm15 0l.5 2-2-.5 1.5-1.5zm24 0l1 2-2.5-.5 1.5-1.5zm5 0l-1 2-1.5-.5 2.5-1.5zm99 1l.5 2.5-2 1 1.5-3.5zm-107 1v3q-2.2.8-1.5-1.5l1.5-1.5zm110 0l1.5 4.5-1.5 2.5-.5-1.5v-2l.5-3.5zm-132 1l2 3-2-3zm9 0l2.5 1.5-4 1 2 1-1.5.5q-3.5-2 1-4zm19 0l-1 2 1-2zm8 0h2q2.3-.7 1.5 1.5l-3 1V67q-3.8-1.5-3 1.5l1 1q-3.1 1.8-1.5 3.5L60 71.5l1-3-.5-1.5q1.3 2.3 2.5-.5l2.5-3.5zm-48 1l1.5 2.5-2 1v-2l.5-1.5zm43 0l1 2-1-2zm11 0l2 3 6-3 3.5 2.5-3.5 1.5.5-1.5-.5-1.5q-2.2.8-1.5 4.5l1.5-.5q4.4-1.5 3.5 1.5l-1.5-.5q-3.3-1.1-2.5 1.5h2q-1.1 3.3 1.5 2.5l1.5-.5-1 2.5 2 .5-1 2 1.5-.5q3.3-1.1 2.5 1.5-2.8 1.8 1.5 3.5l2-1v1l-1.5.5 2.5 1.5q2.8-1.2.5-2.5l-1-3 3 2q-2.2 1.3.5 2.5l2-1 2.5.5q-2.2 1.3.5 2.5 2.3.8 1.5-1.5l-1-2.5q-3.7 1.5-3-1.5l-2-3 2-1 1 4.5 2-.5-2-4h2l.5-1.5 2 3 2.5-1.5-1.5 2.5-1.5.5.5 1.5q-1.2-2.2-2.5.5l4 2h-2l1 3-2.5.5-4.5 1.5 2 1v4l.5 5.5 1.5-.5-1.5 3.5-7-2-1.5.5.5-1.5-4-1 1 3-2-1-1 3-.5-2-2 .5.5 1.5-1.5.5.5 1.5-4 2h-2l-1.5-.5 3-1.5-.5-3-.5 2-3-1.5 1-2.5-3 1.5 2 4-.5 2.5q-2.2.8-1.5-1.5l-3.5-1.5-1.5-.5.5-2.5 2 3 4.5-8-2-.5 2-.5 1-2.5-1.5-.5-3.5 2.5 1 3-.5 1.5-2-3-4 3v-1q2.3.8 1.5-1.5l-.5-1.5h2l1.5-.5-4.5-3.5-1.5.5 1-2-4-.5-.5 2-.5-1.5.5-1.5q-2.2.8-1.5-1.5l.5-1.5-1.5-.5 2-1 .5 1.5 2.5-2.5-1.5-3.5-2.5-.5 2.5-.5 1.5.5 3-7-.5-1.5 5-2v1L66 71.5l-2 7-2 2 .5 2.5q2.3-.7 1.5 1.5l-.5 1.5 4 1 1-2-3.5-1.5q-.7-2.2 1.5-1.5l1.5.5q-.7-2.2 1.5-1.5h2l2-1q1.3 2.3 2.5-.5.8-2.2-1.5-1.5l-2 1-1-1-2 2-1-1-2 2-2.5-.5 1-2.5 2.5 1 3-5 2.5.5-3 .5.5 3h2q3 .9 1.5-3.5v-2l-.5-1.5q-1.5 3.5-3 1l-1.5-.5 1.5-.5 1.5.5V70h4l-1 2.5.5 2.5q2.3-.7 1.5 1.5l2.5.5 3.5 1q1.3-3-2.5-2L77 73.5l1-2-1-3.5-2.5-1-3 1 .5-1.5-.5-2.5zM74 81l-2 1 1 2q2-1 1 2l-2-2-1 2 1 1-3-1q-1 3 3 2l-1 2-6-3q-1 3 2 2l-2 3 2 1 4-2v2l4-1 2-3h-2q1-3 3-1h1l-1-2 1-2q-3-1-2 2h-1l1-2-1-2-2-1zm10 0v3h-1q1-3-1-2l-1 3h5l3 1 1-1-6-4zm-4 1q-2 3 1 2l-1-2zm-18 3l-2 2 3 1-1-3zm18 0l-1 2q2 3 3 0l-2-2zm19 0l-2 2h2v-2zm-3 3l-1 3-4 1 4 1 3-1-2-4zm-8 2l-1 2 2 1-1-3zm-10 1l-3 4h3q1 2 2 0l-2-1v-3zm7 0v4-1q2-2 0-3zm-17 2l1 1 1 1q1-3-2-2zm22 0l-2 2 1 2 2-1v2h3l-2-1 1-2-3-2zm7 0l-3 2 2 1-2 1 3 1 1-3-1-2zm-16 2l-1 2-2-1-1 3 2-1 3 1 2-1v-2l-2-1v2l-1-2zm14 4v1h2l-2-1zm4 0l-2 2h2v-2zm-18 1v2h-2l2 2 2-3-2-1zm-9 3q-2 3 1 2l-1-2zm17.5-39q2.3-.7 1.5 1.5L89.5 64zm38 0l.5 3-2-.5 1.5-2.5zm-106 1l1 2-1-2zm73 0l3.5 1.5-1.5.5-2-2zm15 0l2.5.5-2.5 4.5-.5-1.5 1-2-.5-1.5zm5 0l2 1 1.5-.5q.8 2.6-2.5 1.5l-1-2zm7 0l2.5.5-2.5.5v-1z"/><path fill="#001D00" stroke="#001D00" d="M148.5 65l.5 1.5-2 1 1.5-2.5zm-101 1l2.5.5-2.5.5v-1zm38 0l2.5.5q.8 2.6-2.5 1.5l-1.5.5 1.5-2.5zm17 0l2.5.5-3.5 1.5 1-2zm73 1l.5 2h4q-1.5 3.7 1.5 3v1l-3.5-.5 1-2.5q-5.9 1.9-3.5-3zm-153 1l1.5.5-2.5 1.5 1-2zm81 0l-2 3 2-3zm34 0q2.3-.7 1.5 1.5l-1.5-1.5zm-90 1l-1 2 1-2zm4 0l3 1 1.5-.5-.5 2.5-4-2v-1zm35 0l.5 2 2 .5-2 .5-.5 2-1-2 1.5-.5-.5-2.5zm4 1l2.5 1.5.5 1.5 4-2v1l-2.5.5q2.3 1.3-.5 2.5L92 73.5l1.5 3.5q2.3-.7 1.5 1.5l.5 1.5q-2.7-5.4-5.5-3.5l1-3h-1l-.5 1.5-.5-1.5q3.1-1.7 1.5-3.5zm46 0l1 2 1.5-.5q-1.5 3-3 0l.5-1.5zm8 0l2.5 1-1.5 3-1-3-1.5.5 1.5-1.5zm8 0l1 2-1-2zm-112 2l-1 2 1-2zm90 0l.5 2-2.5 1 2-3zm20 0l-.5 1.5-.5 1.5-1-2 2-1zm8 0l6 2 1.5-.5q-.7 2.3-4.5 1.5l-1-1-2.5 1.5v-2l.5-1.5zm-110 1l3.5 1.5-1.5 1.5-2-3zm84 0l1 2-1-2zm20 0l1 2 2.5-1.5-2.5 3.5-1-4zm-99 1l1.5 2.5-2-1 .5-1.5zm2 0l2.5 1.5-1.5-.5-1-1zm5 0l1.5 2.5h-1l-.5-1.5-1.5.5 1.5-1.5zm83 0l1 2-1-2zM123 75l2 .5-2 1V75zm3.5 1l1.5.5-2 .5-1.5 3-.5-1.5 2.5-2.5zm25 0l-1 2 1-2zm-104 1l2.5.5-.5 2.5-2-3zm5 0l.5 1.5-.5 1.5 3 2 3-1q2.3-.7 1.5 1.5l-5.5-.5-3.5-2.5 1.5-2.5zm85 0l1.5.5-2 1 .5 1.5q-3-1.5 0-3zm5 0l2 1 1.5-.5-.5 3.5-.5-2-2.5 1q-3-1.5 0-3zm-31 1l-1 2 1-2zm-5 1l2.5.5-3 .5-.5 2-.5-1.5 1.5-1.5zm23 0l-.5 1.5-.5 1.5-.5-1.5 1.5-1.5zm29 0h2l2 1 1.5-.5-3.5 1.5-2 1v-3zm-42 1l1.5 2.5-1.5.5-2.5-.5q-.7-2.2 1.5-1.5l1-1zm-9 1l4 1 1.5-.5-3.5 1.5-2-2zm24 0l1.5.5-2.5 1.5 1-2zm5 0h1.5v4h1.5l1.5 2.5h-1l-.5-1.5-1 2-1-2q-1.2 2.3-2.5-.5h2q1.1-3.3-1.5-2.5l1-2zm-118 1l-1 2 1-2zm31 0l1 2-2.5 1.5.5 1.5q-3.2-1.7.5-3.5l.5-1.5zm73 0l-1 2 1-2zm-69 1l-1 2 1-2zm54 0l3 2 1.5-.5-1 2 .5 1.5-3-2v2l-2.5-1.5 1.5-3.5zm52 0q4.5 2 1 4l-1.5-.5-.5 1.5-2.5-1.5 1.5-2.5 1 2 1-3zm-15 1l3.5 2.5-2 1 .5 1.5-2.5-1.5 1-2-.5-1.5zm-90 1l1.5.5-2.5 1.5 1-2zm100 0l.5 2-3.5 2-.5-2.5q1.8 1.6 3.5-1.5zm-40 1l.5 2-2-.5 1.5-1.5zm6.5 1l2 .5-.5 2.5-1.5-3zM15.5 88l1 2-1-2zm35 1l1 2-1-2zm23 0l-1 2 1-2zm29 0l1.5 2.5-3.5 1.5v-1l2.5-.5-.5-2.5zm4.5 0l3 1.5q.8 2.6-2.5 1.5v1l2 1 1.5-3 3 1.5h-2l-2.5 3.5-.5-2-3 .5 2 .5 2 5.5-2-1-.5-1.5-2 1q-1.2-2.2-2.5.5l-.5 1.5-.5-1.5 2.5-3.5 1.5-.5-3-1 3-.5-1-2.5 2-.5v-2zm29.5 0l2.5.5-.5 2.5-2-3zm12 0l.5 1.5q-2.2 1.3.5 2.5l2-1 2.5.5-1.5 2.5-2-1 1 3q-1.7-3.1-3.5-1.5v-2l-2-3h2l.5-1.5zm13 1l.5 2-3 .5 4.5.5q1.3-2.2 2.5.5v2l-.5 1.5-2-3-4 1-1-2-1.5.5 4.5-3.5zm-105 1l2 3q-1.8-3.1-3.5-1.5l1.5-1.5zm61 0q1.8 3.1 3.5 1.5l-4 3v-2l.5-2.5zm7 0v2l1.5.5-1.5.5q-3-1.5 0-3zM46 92q2.7-1.1 2 1.5L46.5 96l-.5-4zm15.5 0l.5 2 2 .5-1.5.5-1-3zm81 0l2 1q1.3-2.2 2.5.5l-4.5 1.5-2.5-.5q-.7-2.2 1.5-1.5l1-1z"/><path fill="#001D00" stroke="#001D00" d="M115.5 93l-1 2-1.5-.5 2.5-1.5zm17 0l2.5 1.5.5 1.5 3-1q1.8 3.1 3.5 1.5l-.5 2.5-3-3-1 1q-5.6.5-5-4zm-12 2l-1 2 1-2zm4 0l2.5 1.5-1.5.5-1-2zm-2 2l2.5 1.5-1.5-.5-1-1z"/><path fill="#001D00" stroke="#001D00" d="M132 97l3 1.5-4 1 1-2.5zm90 0q4.5-1.5 3 3-4.5 1.5-3-3zM60.5 98l1 2-1-2zm77 1l.5 2-3-.5 2.5-1.5zm14 0l2.5 1.5v2l-.5 1.5-2-5zm-87 2l-1 2 1-2zm58 0l2.5 3.5-1 2.5-3.5-1v2l-1.5-1.5.5-2.5 3 2 1.5-2.5-1.5-2.5zm22 0q-1.6 1.8 1.5 3.5-.7 2.3 1.5 1.5v1l-2-1q-1.2 2.3-2.5-.5l2-1-2.5-.5-1.5.5.5-2.5q1.5 2.5 3-1zm-96 1q3 1.5 0 3v-3z"/><path fill="#001D00" stroke="#001D00" d="M138.5 102l2 4q2.3-.7 1.5 1.5l-4-2 1 2-1.5-.5-4 2 2-3 2.5-1.5.5-2.5zm-118 1l1 2-1-2zm67 1l2 3q1.3-2.2 2.5.5l-2.5.5-2 1-.5-3-3.5 1 1-2 3-1zm6 0q3.8-1 2.5 2l-2 .5q2.3 1.3-.5 2.5 1.6-1.7-1.5-3.5l1.5-1.5zm7 0q1.3 2.3 6 1l2-1v1l-1.5.5 3 2-1.5.5q-1.5-3.5-3-1l-3.5-1q1 3-2 2l1-2.5-.5-1.5zm67 0l.5 2.5-1 2 .5 1.5q-2.7-1.2-.5-2.5l-1-2 1.5-1.5zm-102 1q2.8 1.3.5 2.5l.5 1.5 1.5-.5q.8 2.3-1.5 1.5l-1.5.5-1-4 1.5-1.5z"/><path fill="#001D00" stroke="#001D00" d="M97.5 105l1 2q-2.8.7-1-2zm29 0q2.3-.7 1.5 1.5l-1.5-1.5zm4 0l2.5.5q-2.1 3.3-2.5-.5zm22 0l1.5.5q-.7 2.3-4.5 1.5v-1l3-1zm-91 1q3 1.5 0 3v-3zm8 1q2.3-.7 1.5 1.5l1.5 2.5 2-1v2q2.3-.7 1.5 1.5l-2.5-1.5-2.5-1.5-1.5-3.5z"/><path fill="#001D00" stroke="#001D00" d="M75.5 108l1.5 2.5h-1l-.5-2.5zm61 0l.5 2 2 .5-1 2 1 2h-1l-1.5-6.5zm12 0l1 2-1-2zm76 0q3.8-1.2 2.5 2.5l-1 4.5-8 1 1-7 5.5-1zm-4.5 2v3l2 1q1-5-2-4zm4 0q-3 5 1 4l-1-4zm-209.5-1l2.5.5-2.5.5v-1zm90 0l2 3-2-3zm136.5 0q4.5-1.5 3 3-4.5 1.5-3-3zm-147.5 1l1.5 2.5-2-1 .5-1.5zm26 0l1 4q-4.5-2-1-4zm32.5 0l2 .5v2l-.5 3.5-1.5-6zm12.5 0l1 2-1-2zm-56 2l-2 3 2-3zm-89 3q3 1.5 0 3-3-1.5 0-3zm20 0l-2 3 2-3zm7 0q1.8 3.1 3.5 1.5l-3 2 .5-1.5q-2.8.7-1-2zm17 0l-.5 1.5-.5 2.5-.5-2.5 1.5-1.5zm102.5 0q3-1.2 2 2.5l-2-1V115zm-95.5 1l1 2q-2.8.7-1-2zm3 0l2.5 1-.5 3-2-4zm20 0l.5 2 2-.5-.5-1.5q3 1.5 0 3l-3.5-1.5 1.5-1.5zm10 0l.5 2 2 .5-1.5.5-1-3zm23 0l2.5 1.5-1.5-.5-1-1zm25 0l.5 3 2 .5-3 .5.5-4zm-126 1l.5 2.5h-1l.5-2.5zm26 0l2.5.5-2.5.5v-1zm50 0l.5 1.5-2 1 1.5-2.5zm11 0v2l2.5.5-2.5.5q-3-1.5 0-3zm11 0l1 2-1-2zm-43 1q2.3-.7 1.5 1.5l.5 1.5-2-3zm36 0l1 2-1-2zm23 0l1 2q-2.8.7-1-2zm3 0q1.3 2.2 6 1l1.5-.5-.5 2.5q-1.2-2.3-6-1l-1-2zm-131 1l2.5.5-2.5.5v-1zm120 0l1.5.5-2 1 .5 1.5q-3-1.5 0-3zm24 0q6-1.5 7.5 1.5l-.5 1.5-.5-2h-6.5v-1zm-118 1l1.5 2.5-2-1 .5-1.5zm31 0l-1 2 1-2zm22 0q2.6-.8 1.5 2.5h-1l-.5-2.5zm29 0l2.5.5q-2.1 3.3-2.5-.5zm-66 1l1 2-1-2zm162 0l-1 2 1-2zm45 0l.5 5.5v2q.8 2.3-1.5 1.5l.5-3.5.5-5.5zm-126 1l2.5 3.5-2-1-.5-2.5zm34 0l.5 2-2-.5 1.5-1.5zm27 1l4.5 3.5-2 5q2.3 1.3-.5 2.5l-.5-2.5-1.5-2.5q-2.6.8-1.5-2.5l-1-2.5 2.5-1zm34 1q2.3.8 1.5 4.5h-1l-.5-4.5zm-62 1l.5 1.5-.5 2.5q-2.7-1.3-.5-2.5l.5-1.5zm-30 2l.5 3.5h-1l.5-3.5zm45 0l2.5 1.5-1.5.5-1-2zm4 0l.5 2.5h-1l.5-2.5zm-174 1l-1 2 1-2zm218 2l.5 2.5q.8 2.3-1.5 1.5l-.5-2.5 1.5-1.5zm-63 2l1.5 3.5-1 3-1 2 1 2h-1l-1-2 2-3v-2l-.5-2.5-1.5.5 1.5-1.5zm93 0l.5 3.5h-1l.5-3.5zm-122 3l.5 3-2-.5 1.5-2.5zm-129 1l.5 2-2-.5 1.5-1.5zm190 0l.5 2.5h-1l.5-2.5zm30 1l1 2-1-2zm-32 2q3 1.5 0 3v-3zm31 0q2.3.8 1.5 4.5l-.5 1.5 1.5.5-2 1 .5 1.5-2.5-1.5q2.6-1.4 2-6l-.5-1.5zm32 0l.5 2.5q.5 4-2.5 4.5l1.5-2.5-1-3 1.5-1.5zm-122 1l.5 1.5-1 2 1 2h-1l-1-3 1.5-2.5zm-117 4l1 2q-2.8.7-1-2zm147 0q1.5 3.5 8 2h2l3-1-1 2-3-1q-1.5 2.5-7 1-1.2-2.2-2.5.5l.5 1.5-1.5-2.5 1.5-2.5zm29 0l2.5.5-.5 1.5h9l1-1 .5 2h-10.5l-.5 1.5 1.5 2.5-3-2v-2l-7.5-.5q1.3-2.7 2.5-.5l5.5-.5-.5-1.5zm-13 1l4.5 1.5-2.5.5h-2l-1.5-.5 1.5-1.5zm36 0l5.5 1.5-4.5.5h-2l-8.5-.5 8.5-.5 1-1zm-84 1q2.8 1.3.5 2.5l1 2-3-2 2-1-.5-1.5zm124 0l-1 2 1-2zm-253 4l1 2-1-2zm254 1l1.5.5-3 2-.5 1.5-.5-1.5 2.5-2.5zm-30 1l.5 2.5-1.5 1.5-1.5-.5 2.5-3.5zm31 1l-1 2 1-2zm-96 1l-1 2 1-2zm29 0l-1 2 1-2zm-5 2l1 2-1-2zm-1.5 3l2 .5-2 1V159zm3.5 1l-.5 1.5 1 2-2-1 1.5-2.5zm-56 2q2.3-.7 1.5 1.5l-1.5-1.5zm121 0l1 2-1-2zm-58 1l-1 2 1-2zm-189 1l-.5 1.5-.5 1.5-.5-1.5 1.5-1.5zm191 0l.5 1.5-.5 1.5 2-1-1 2-2-1-1.5.5 2.5-3.5zm-94 1l.5 2-2-.5 1.5-1.5zm17 0l-1 2 1-2zm21.5 0l2 .5-2 1V165zm8 0l2 .5v2l-.5 1.5-1.5-4zm-53.5 1l-1 2 1-2zm105.5 0l2 .5-1 2q2.3 1.2-.5 2.5l-.5-2.5V166zm-70.5 1l.5 3 2.5-1v3l-4.5-1 1 2.5-2-1 1-2-.5-1.5 1.5.5.5-2.5zm15 0l-1 2-1.5-.5 2.5-1.5z"/><path fill="#001D00" stroke="#001D00" d="M152.5 167q3 1.5 0 3v-3zm105 0q2.3-.7 1.5 1.5l-1.5-1.5zm-27 1q2.6-.8 1.5 2.5h-1l-.5-2.5zm-68 1l-1 2 1-2zm47 0q2.8 1.3.5 2.5l-.5 2.5q-2.7-1.2-.5-2.5l.5-2.5zm-61 1v3l-2 1v-3l2-1zm-35 1l.5 2-2-.5 1.5-1.5zm3 0l1.5.5-2.5 1.5 1-2zm25 0v3q-2.2.8-1.5-1.5l1.5-1.5zm10 0l2.5.5-3 1.5.5-2zm21 0l1 2-1-2zm11 0l2 3q-2.2.8-1.5-1.5l-2.5 1.5-2 1-.5-2q3.4.8 4.5-2zm13 0l1 2 1-2 1.5 3.5h-1l-.5-1.5-1 2-.5-2-3 1.5 2 5h-1q.8-2.2-1.5-1.5l.5-1.5-1.5-2.5-4 3-.5-2.5 1.5-1.5 1.5.5.5-1.5q2.5 4.5 5-1zm4 0l1 2-1-2zm4 0l.5 2 2 .5-4 .5 1.5-3zm39 0l2.5 1.5-2 1 .5 1.5q-2.2.8-1.5-1.5l.5-2.5zm4 0l3.5 2.5-2.5-1.5-1-1zm9 0l2.5 1.5q-1.5 3-3 0l.5-1.5zm-112 1l.5 1.5-2 1 1.5-2.5zm11 0l3.5 5.5h-2l1 5-2 1 .5 1.5q-2.2.8-1.5-1.5l-.5-1.5 1.5.5-1-4q3.5-1.5 1-3l-.5-3.5zm3 0l3.5 1.5-2.5.5-1-2zm9 0l.5 2.5-1.5-.5-2.5-.5 3.5-1.5zm59 0l2.5 1.5-.5 1.5-.5-2-1.5-1zm-95 1l-1 2 1-2zm83 0q3.3-1.1 2.5 1.5l-1.5-.5q-2.2-.7-1.5 1.5l-2 1 2.5-3.5zm7.5 0l4 1.5-.5 1.5-.5-2-2.5 1-.5-2zm15.5 0l1 2-1-2zm-122 1l2 3-1.5-.5 1 2-2-1 1-2-.5-1.5zm11 0l2.5.5q-2.1 3.3-2.5-.5zm6 1l-.5 1.5-.5 1.5-1-2 2-1zm4 0l2.5 1.5-5.5 2.5 1-2 2.5-.5-.5-1.5zm73 0l.5 2.5-.5 1.5-1.5-2.5 1.5-1.5zm-84 1l1 2-1-2z"/><path fill="#001D00" stroke="#001D00" d="M191.5 176v3q-3-1.5 0-3zm10 0l2.5.5q.8 2.3-1.5 1.5l-1-2zm20 0l1.5.5-2.5 1.5 1-2zm40 0l1 2q-2.8.7-1-2zm-148 1l-1 2 1-2zm70 0l2.5 4.5-2-1-.5-3.5zm42 0l-1 2-1.5-.5 2.5-1.5zm-80 1l1.5.5-2.5 1.5 1-2zm20 0l3.5 1.5-1.5.5-2-2zm93 0l1 2-1-2zm-138 1l-1 2 1-2zm30 0l1.5.5-3.5 2.5 2-3zm47 0l2.5 1.5-1.5.5-1-2zm8 0q2.3-.7 1.5 1.5l-1.5-1.5zm-100 1l-1 2 1-2zm26 0q2.3-.7 1.5 1.5l-1.5-1.5zm62 0v3l-2.5-.5 2.5-2.5zm22 0l-2 3 2-3zm5 0l2.5.5-2.5 3.5-2.5-1.5 3-1-.5-1.5zm-57.5 1l2 .5-2 1V181zm98.5 0l1.5 2.5-2-1 .5-1.5zm-141 1l-1 2 1-2zm30 0q3.3-1.1 2.5 1.5l.5 1.5-3-3zm17 0l1.5.5-2.5 1.5 1-2zm32 0l2.5.5-2.5.5v-1zm4 0l2 3-2.5-.5.5-2.5zm-90 2l1 2q-1.5-2.5-3 1l-1.5-1.5q1.8 1.6 3.5-1.5zm24 0q3 1.5 0 3v-3zm9 0l1 3 2-1 2.5.5q.8 2.3-1.5 1.5h-2l-2.5-1.5.5-2.5zm17 0l4 2 2.5-1-.5 2-1.5-.5-.5 1.5-.5-2q-4.2 0-3.5-2zm12 0v3l-2.5-.5 2.5-2.5zm4 0l2.5.5-1 2.5-2.5 1 1-4zm4 0q2.3-.7 1.5 1.5l1.5-.5 2-1-1 2-4 3 .5-1.5-.5-3.5zm-65 1l1 2-1-2zm74 0l1 2-2.5 1.5.5 1.5q-3.2-1.7.5-3.5l.5-1.5zm31 0l1 2-1-2zm-80.5 1q3-1.2 2 2.5l.5 1.5-2.5-.5V186zm11.5 0l1.5 2.5-3 2q3.5-1.5 1-3l.5-1.5zm66 0l-1 2 1-2zm-124 2l1 2-1-2zm14 0l1.5.5-3.5 2.5 2-3zm83 0l2.5.5q-.7 2.3 1.5 1.5l1.5-.5v2q1.3 4.6-4.5 2.5l-1.5.5 1-2.5-2-.5 1.5-.5q1.1 2.8 4.5 2 1.1-2.7-1.5-2l-3.5-1 .5-2zm15 0l2 3 5-3 1.5 3.5h-1q1-3.7-2-2.5l1 2.5-1.5.5q-1.2-2.3-2.5.5l-.5 1.5-2-4-1 2-.5-1.5 1.5-2.5zm-90 1l2.5.5-3.5 1.5 1-2zm49 0l3.5 2.5-3 2-.5 1.5-4.5-1.5 6-2-1.5-2.5zm36 0l.5 3-2-.5 1.5-2.5zm20 0q2.8 1.3.5 2.5l-.5 2.5-.5-2.5.5-2.5zm-93 1l2.5.5q-2.1 3.3-2.5-.5zm90 0l1 2-1-2zm43 0l-1 2 1-2zm-146 2l-.5 1.5-.5 1.5-.5-1.5 1.5-1.5zm35 0l3.5 1.5-4 .5.5-2zm19.5 0h5.5l.5 1.5 1 2.5-2-.5q2.3-1.2-.5-2.5l-4 1-.5-2zm18.5 0l1.5 2.5-1.5-.5-4.5-.5 4.5-1.5zm-184 1l1 2-1-2zm115 0l1.5 2.5h-3l1.5-2.5zm59 1q2.3.8 1.5 4.5h-1l-1-2 .5-2.5zm26 0l1.5 2.5-2-1 .5-1.5zm-35 1l.5 1.5-2 1 1.5-2.5zm55 0l.5 2.5h-1l.5-2.5zm-97 1l-.5 1.5-.5 1.5-.5-1.5 1.5-1.5zm5 0l1.5 1.5-.5 2.5-2.5-.5 1.5-3.5zm31 0l.5 1.5-1.5 3.5-.5-2.5 1.5-2.5zm8 0l1 2-3 2 1.5-2.5.5-1.5zm13 0l.5 3-2-.5 1.5-2.5zm30 0l-.5 1.5-.5 1.5-.5-1.5 1.5-1.5zM100 197l2 .5-2 1V197zm38.5 0l-1 2 1-2zm11 0l2.5.5-2.5.5v-1zm-25 1l2.5.5-2.5.5v-1zm6 0l1 2-1-2zm17 0q3 1.5 0 3l-2.5-.5 2.5-2.5zm21 0l1.5 2.5h-3l1.5-2.5zm32 0l.5 2-2-.5 1.5-1.5zm-86 1l.5 2.5-2 1 1.5-3.5zm78 0l3.5 1.5-1.5 1.5-2-3zm30 0l-1 2 1-2zm-103 1l2.5 1.5-.5 1.5-2-3zm60 0l3.5 2.5-1.5-.5-2 1v-3zm11 0l1 2-2.5-.5 1.5-1.5zm7 0l.5 1.5-.5 2.5q-2.7-1.2-.5-2.5l.5-1.5zm20 0l-1 2 1-2zm-62 1q3 1.5 0 3v-3zm59 0l-1 2 1-2zm-81.5 1l3 1.5-3 1 1 2h-1l-1-2 1-2.5zm15.5 0l-1 2 1-2zm20 0l2.5.5q.8 2.3-1.5 1.5l-1-2zm36 0l-2 3 2-3zm-19 1l2.5 1.5-1.5.5-1-2zm-44 1l1 2q1.3-2.2 2.5.5l-4 1v-2l.5-1.5zm24.5 0l2 .5-1 2q2.3 1.3-.5 2.5-2.7-1.2-.5-2.5V204zm28.5 0q3 1.5 0 3v-3zm24 0l1.5 2.5-2-1 .5-1.5zm45 0l2.5.5-3 1.5.5-2zm-112 1l1 2-1-2zm22 0l1 2-1-2zm5 0l1 2-1-2zm-47 1l-1 2 1-2zm51 0l-1 2 1-2zm24 0l1 2q-2.8.7-1-2zm-96 1q2.3-.7 1.5 1.5l-1.5-1.5zm89 0l1.5 2.5-2-1 .5-1.5zm11 0l1 2-1-2zm11 0l-.5 1.5-.5 1.5-1-2 2-1zm-209 1l1 2-1-2zm138 0l-1 2 1-2zm12 0v3q-3-1.5 0-3zm12 0l.5 2-3-.5 2.5-1.5zm20.5 0l3 .5-3 1.5v-2zm-73.5 1l-1 2 1-2zm22 0l1 2q-2.8.7-1-2zm34 0l1.5 1.5-1.5 2.5 3-1v1l-1.5.5.5 1.5-3.5-2.5q3.1-1.7 1.5-3.5zm12 0l2.5 1.5-2 1 .5-1.5-1-1zm77 0l.5 1.5-2 1 1.5-2.5zm-130 1l.5 1.5q-.7 2.3-4.5 1.5v-1q4.5 1.3 4-2zm4 1l.5 2-3-.5 2.5-1.5zm7 0l.5 2 4 2.5h-3l.5-1.5-4.5-.5 2-.5.5-2zm-27 1l1 2-1-2zm33 1l2.5 1.5-1.5-.5-1-1zm-14.5 1l2 .5-2 1V214zm-19.5 2l-1 2 1-2zm7 0l2.5.5-2.5.5v-1zm49 0l.5 2-2-.5 1.5-1.5zm11 0l.5 2.5h-1l.5-2.5zm-48 1q3 1.5 0 3-3-1.5 0-3zm9 0l1 2-1-2zm53 0l-1 2-1.5-.5 2.5-1.5zm-80 1l-1 2 1-2zm33 0l-1.5 2.5-.5 1.5-.5-1.5 2.5-2.5zm-116 2l2.5.5q-2.1 3.3-2.5-.5zm108 1l1.5 2.5h-1l-.5-2.5zm26 0l-2 3 2-3zm10 0l1 2q-2.8.7-1-2zm-148 1l1 2-1-2zm12 0l-1 2 1-2zm111 0l1.5.5-2.5 1.5 1-2zm-116 1v3q-3-1.5 0-3zm67 0l1 2-1-2zm34 0l1.5 3.5-1.5 2.5-2-3 2 1-.5-1.5.5-2.5zm10 0l.5 2-2-.5 1.5-1.5zm9 0l.5 2-2-.5 1.5-1.5zm4 0l1.5 2.5-.5 2.5-3.5-1.5 3-1-2-1 1.5-1.5zm23 0l1.5 3.5-2 1 1-2-.5-2.5zm5 0l1 2-1-2zm29 0l1 2-1-2zm28 0l1 4q-2.2.8-1.5-1.5-2.2-1.2.5-2.5zm-233 1l-1 2 1-2zm12 0l2.5.5-3 2 .5-2.5zm57 0l-1 2 1-2zm17 0l-1 2 1-2zm79.5 0l2 .5-2 1V224zm-171.5 1l1 2-1-2zm101 0l1 2-1-2zm59 0l.5 2-2-.5 1.5-1.5zm2.5 0l2 .5-1.5 2.5-.5-3zm22.5 0l.5 1.5-2 1 1.5-2.5zm3 0l1 2-2.5-.5 1.5-1.5zm-49 1l2.5.5-2.5.5v-1zm55 0q2.3-.7 1.5 1.5l-1.5-1.5zm28 0l1 2q-2.8.7-1-2zm9 0l-1 2 1-2zm-199 1l1 2-1-2zm93 0l2.5.5-2.5.5v-1zm22 0l-2 3 2-3zm2 0l1.5 2.5-2-1 .5-1.5zm49 0l-2 3 2-3zm2 0l3.5 1.5-1.5 1.5-2-3zm19 0l-1 2 1-2zm-164 1l1 2-1-2zm118 0l-1 2 1-2zm68 1l-1 2 1-2zm-212 4l1 2-1-2zm88 0l-1 2 1-2z"/><path fill="gold" stroke="gold" d="M130.5 166l1.5 2.5h-1l-.5-2.5zm30 2q2.3-.7 1.5 1.5l-1.5-1.5zm-39 1l1 2-1-2zm6 2l1 2-1-2zm21 0l2.5.5q-2.1 3.3-2.5-.5zm-29 1l-1 2 1-2zm13 0q3.7 2 2 4 3.3 1.1 2.5-1.5l2-1 4 6-1 2.5q-2.7-1.1-2 1.5v2l-2 5 2-1 1.5-2.5-.5 1.5.5 1.5q1.3-2.2 2.5.5l.5 2.5 1-2 3 1v-2q2.3-.7 1.5 1.5h1l.5-1.5 2 1-.5-1.5-.5-1.5-1.5.5q3.1-1.7 1.5-3.5l1.5-.5-1-2.5-2.5-1-1 2 2.5.5-4 .5 2-3.5q-2.3-1.2.5-2.5l2.5.5-3 1 4.5 3.5 1.5-.5-3 5 2 .5 2.5-4 3.5-.5-2-.5.5-2h2q2.3-.7 1.5 1.5l1 1-3 3v2l.5 1.5 3-5 2 3-1.5-.5-1.5 2.5-1.5.5 4 .5.5-2h2l2.5 1.5-2 1 3 .5q1.1 2.7-1.5 2l-1 3q-2.7-1.2-.5-2.5l-1.5-3.5q-2.6-.7-1.5 2h-2.5l-2.5 1.5 2.5.5 3-1-1.5 2.5-3 4 3 2-3 .5-.5-2-2.5 4-5.5 2-.5-2.5-.5-1.5-.5 2h-4q1.1 2.7-1.5 2l-3 2q-3-1.5 0-3l2 1v-2q1.8 2.7 3.5-1.5l-.5-1.5-3.5 1-.5-2-1.5 2.5.5 1.5-4.5-3.5-1-3 .5-1.5q-2.6-.8-1.5 2.5-3.7 1.8-.5 3.5l1.5-.5-.5 4.5-4.5-2.5 1.5.5 2.5-.5-4-6v-2l-.5-1.5-1 3-.5-2.5.5-1.5-1.5-.5.5-2.5 2.5 1v-3q3.7 1.5 3-1.5h-2q.8-2.2-1.5-1.5l-1.5.5q3-1 2-6l-2-1q1.1 3.3-1.5 2.5v2l-1-1-2.5 1.5 1-2h-2l.5-1.5q-2.2.8-1.5-1.5l2.5 1.5 2 1 3-4 2 1 6.5-2.5q-1.7-3.2-3.5.5-4.4 1.5-3.5-1.5l.5-1.5-2 1 .5-1.5.5-1.5zm7.5 6l1 2h1l-2-2zm-5 2l1 1 1 1q1-3-2-2zm3 3l-4 2q1 2 3 0v2q3 1 2-1v-2l-1-1zm17 8l-1 1q-3-1-2 2h-2v4l3-1-1 2 1 1 1-4h-2l3-1 3 6 1-5 1-2q-3-1-2 2h-2v-5h-1zm-21 1l-2 2h3q1-3-1-2zm11 4l-2 2h2v-2zm17 0q-2 3 1 2l-1-2zm-26 1l-2 2 2 1v-3zm10 1v2l2-1-2-1zm3 1l-2 2h2l1 3 3-2-4-3zm21 1l-2 3 2-1v-2zm-13 2l-3 2 3 1q3-1 0-3zm11.5-29l2 3q-2.2.8-1.5-1.5l-.5-1.5zm-47 1l-1 2 1-2zm51 2l1 2-2.5-.5 1.5-1.5z"/><path fill="gold" stroke="gold" d="M122.5 177l.5 1.5v2l1 3.5-2.5-1-.5 2 2 .5q-1.2 2.8-2.5.5l-1.5-.5 3-5h-2l2.5-3.5zm22 0l.5 2 3 .5-1.5 1.5-2.5-.5v-2l.5-1.5zm-17 1q2.3-.7 1.5 1.5l-1.5-1.5zm32 0l2.5 1.5-3.5.5 1-2zm-42 1l1 2-1-2zm46 0l4.5 2.5-2 .5-.5 2-.5-1.5.5-1.5-2-2zm-46 6l.5 3.5-3.5 1.5v-1l2.5-.5-1-2 1.5-1.5zm32 0l-1 2 1-2zm-25 1q3.3-1.1 2.5 1.5l-1.5-.5-1-1z"/><path fill="gold" stroke="gold" d="M120.5 188l2.5.5-.5 2.5-2-3zm-22 1l1 2-1-2zm13 2q2.3-.7 1.5 1.5l.5 1.5-2-3zm6 0q2.6-.8 1.5 2.5l-.5 1.5 2-1-1 2-2 1 .5-3.5-.5-2.5zm9 0l2.5 1.5q-1.3 2.8-2.5.5l-2.5-.5 2.5-1.5zm-2 3l1 2-1-2zm1 3l2.5.5-2.5.5v-1zm-13 1l.5 2.5h-1l.5-2.5zm3 0l2.5 1.5-1.5.5-1-2zm4 0q2.3-.7 1.5 1.5l-1.5-1.5zm10 0q4.3 1.7 1.5 3.5l-.5 1.5-.5-1.5 1-1-1.5-2.5zm37 1l2 1h2l3.5 1.5-1.5.5-1-1-3 3-3.5 1.5 1.5 3.5q2-4 4 0l2.5 1.5h-3l-1.5-2.5-1 3-1.5.5q2.3 1.3-.5 2.5v-2l-2 1-.5-2.5 1-2-2-1-1 2 1 2.5-2-.5.5-1.5-4 2 .5-1.5-.5-1.5-4 2-2.5-1.5 2-1 .5 1.5 4-2 1.5.5.5-2.5 3.5 1q-1.5-3.7 1.5-3 1.3 2.3 2.5-.5l2-3-1.5-.5-1.5.5 1.5-1.5zm-47 2l-1 2 1-2zm-15 4l1 2-1-2zm11 0l3.5 1.5-2.5.5-1-2zm12 0l2.5.5-2.5.5v-1zm11.5 0q3-1 2 2-3 1-2-2zm10.5 1l2.5.5-2.5.5v-1zm-35 1l2.5 1.5-2 1 .5 1.5-3.5-2.5 2.5-1.5zm15 0l-1 2 1-2zm4 0l3.5 2.5-2.5-1.5-1-1zm7 2l1.5.5-1 1 1.5 2.5-3.5-2.5 1.5-1.5zm6.5 0q3-1.2 2 2.5l-2-1V209zm-22.5 2l-1 2 1-2z"/><path fill="gold" stroke="gold" d="M152 212l5.5 2h2l2-1q3.7 2 2 4l1.5.5-1.5.5q-1.5-3.5-3-1l-2-1-1.5.5.5-1.5-2 1-1-3-2 1-.5-2zm-2.5 2l2 3-2 1 .5-1.5-.5-2.5zm24 1l1 2-1-2zm-5 3l.5 2-2-.5 1.5-1.5zm6 0l1 2-1-2zm-16 1l-1 2 1-2zm19 0l2.5 1.5-1.5-.5-1-1zm-24 1l1 2-1-2zm-11 2l.5 3 2 .5-1.5.5q-2.5-1-1-4z"/></svg>