<svg xmlns="http://www.w3.org/2000/svg" role="img" viewBox="-2.62 -2.12 552.24 189.74"><title>Appleseed logo</title><g fill="#ff5a11"><path fill="#c8c8c8" d="M184.61689 126.29481q-7.54011 0-10.44796 1.72442t-2.90785 5.88332q0 3.31359 2.16398 5.2747 2.19779 1.9273 5.95094 1.9273 5.17327 0 8.28399-3.65172 3.14453-3.68553 3.14453-9.77172v-1.3863zm12.40908-2.56973v21.60599h-6.22145V139.583q-2.13016 3.44884-5.30851 5.10564-3.17835 1.62298-7.7768 1.62298-5.8157 0-9.26454-3.24597-3.41503-3.27978-3.41503-8.75735 0-6.39051 4.26033-9.63648 4.29415-3.24597 12.78101-3.24597h8.72354v-.60862q0-4.29414-2.84022-6.62718-2.80641-2.36686-7.91205-2.36686-3.24597 0-6.32288.77768t-5.91713 2.33304v-5.74807q3.41503-1.31867 6.62718-1.96111 3.21216-.67624 6.25526-.67624 8.21636 0 12.27382 4.26034 4.05747 4.26033 4.05747 12.91625zm18.83338 15.92554v20.08444h-6.25525v-52.27364h6.25525v5.74807q1.96111-3.38122 4.93658-5.0042 3.00929-1.6568 7.16819-1.6568 6.89768 0 11.19183 5.47758 4.32796 5.47757 4.32796 14.40399 0 8.92641-4.32796 14.40399-4.29415 5.47757-11.19183 5.47757-4.1589 0-7.16819-1.62298-2.97547-1.6568-4.93658-5.03802zm21.16643-13.22056q0-6.86388-2.84022-10.75228-2.80641-3.92221-7.74299-3.92221-4.93658 0-7.7768 3.92221-2.80642 3.8884-2.80642 10.75228 0 6.86387 2.80642 10.78608 2.84022 3.88841 7.7768 3.88841 4.93658 0 7.74299-3.88841 2.84022-3.92221 2.84022-10.78608zm22.78942 13.22056v20.08444h-6.25526v-52.27364h6.25526v5.74807q1.9611-3.38122 4.93658-5.0042 3.00928-1.6568 7.16818-1.6568 6.89769 0 11.19183 5.47758 4.32796 5.47757 4.32796 14.40399 0 8.92641-4.32796 14.40399-4.29414 5.47757-11.19183 5.47757-4.1589 0-7.16818-1.62298-2.97548-1.6568-4.93658-5.03802zm21.16643-13.22056q0-6.86388-2.84023-10.75228-2.80641-3.92221-7.74299-3.92221-4.93658 0-7.7768 3.92221-2.80641 3.8884-2.80641 10.75228 0 6.86387 2.80641 10.78608 2.84022 3.88841 7.7768 3.88841 4.93658 0 7.74299-3.88841 2.84023-3.92221 2.84023-10.78608zm16.77084-33.71076h6.22144v52.61177h-6.22144zm51.63121 32.12158v3.0431h-28.60511q.40574 6.42432 3.85459 9.80554 3.48265 3.3474 9.67028 3.3474 3.58409 0 6.9315-.87911 3.38122-.87912 6.69481-2.63736v5.88333q-3.3474 1.42011-6.86387 2.16398-3.51647.74386-7.13437.74386-9.06167 0-14.37018-5.2747-5.2747-5.2747-5.2747-14.26874 0-9.29835 5.0042-14.74211 5.03802-5.47758 13.55869-5.47758 7.64155 0 12.07095 4.93658 4.46321 4.90277 4.46321 13.35581zm-6.22144-1.82585q-.0676-5.10564-2.87404-8.14874-2.7726-3.0431-7.37106-3.0431-5.20707 0-8.35161 2.94166-3.11072 2.94166-3.58409 8.28399z"/><path d="M383.73687 108.57722v5.88332q-2.63735-1.35248-5.47758-2.02873-2.84022-.67624-5.88332-.67624-4.63227 0-6.96531 1.42011-2.29923 1.42011-2.29923 4.26034 0 2.16398 1.6568 3.41503 1.6568 1.21723 6.661 2.33304l2.13017.47337q6.62719 1.42011 9.39979 4.02365 2.80641 2.56972 2.80641 7.20199 0 5.27471-4.19271 8.35161-4.1589 3.07691-11.46233 3.07691-3.0431 0-6.35669-.60862-3.27979-.5748-6.9315-1.75823v-6.42432q3.44884 1.79205 6.79625 2.70498 3.3474.87912 6.62719.87912 4.39558 0 6.76243-1.48774 2.36686-1.52155 2.36686-4.26034 0-2.53591-1.72443-3.8884-1.69061-1.35248-7.47249-2.60354l-2.16398-.50718q-5.78188-1.21724-8.35161-3.71934-2.56973-2.53591-2.56973-6.9315 0-5.34232 3.78697-8.25017 3.78696-2.90785 10.75227-2.90785 3.44885 0 6.49194.50718 3.0431.50719 5.61283 1.52155zm44.32778 16.26366v3.0431h-28.60511q.40574 6.42432 3.85459 9.80554 3.48265 3.3474 9.67028 3.3474 3.58409 0 6.9315-.87911 3.38122-.87912 6.69481-2.63736v5.88333q-3.3474 1.42011-6.86387 2.16398-3.51647.74386-7.13437.74386-9.06167 0-14.37018-5.2747-5.2747-5.2747-5.2747-14.26874 0-9.29835 5.0042-14.74211 5.03802-5.47758 13.55869-5.47758 7.64155 0 12.07095 4.93658 4.46321 4.90277 4.46321 13.35581zm-6.22144-1.82585q-.0676-5.10564-2.87404-8.14874-2.7726-3.0431-7.37106-3.0431-5.20707 0-8.35161 2.94166-3.11072 2.94166-3.58409 8.28399zm48.8248 1.82585v3.0431H442.0629q.40575 6.42432 3.85459 9.80554 3.48266 3.3474 9.67029 3.3474 3.58409 0 6.93149-.87911 3.38122-.87912 6.69482-2.63736v5.88333q-3.34741 1.42011-6.86388 2.16398-3.51646.74386-7.13437.74386-9.06166 0-14.37018-5.2747-5.2747-5.2747-5.2747-14.26874 0-9.29835 5.0042-14.74211 5.03802-5.47758 13.55869-5.47758 7.64156 0 12.07095 4.93658 4.46321 4.90277 4.46321 13.35581zm-6.22144-1.82585q-.0676-5.10564-2.87404-8.14874-2.7726-3.0431-7.37105-3.0431-5.20708 0-8.35161 2.94166-3.11073 2.94166-3.5841 8.28399zm41.35228-9.80554V92.71931h6.22144v52.61176h-6.22144v-5.68045q-1.96111 3.38122-4.97039 5.03802-2.97547 1.62298-7.16819 1.62298-6.86387 0-11.19183-5.47757-4.29415-5.47758-4.29415-14.40399 0-8.92642 4.29415-14.40399 4.32796-5.47758 11.19183-5.47758 4.19272 0 7.16819 1.6568 3.00928 1.62298 4.97039 5.0042zm-21.20024 13.22057q0 6.86387 2.80641 10.78608 2.84022 3.88841 7.7768 3.88841 4.93658 0 7.77681-3.88841 2.84022-3.92221 2.84022-10.78608 0-6.86388-2.84022-10.75228-2.84023-3.92221-7.77681-3.92221t-7.7768 3.92221q-2.80641 3.8884-2.80641 10.75228z"/></g><path fill="#c8c8c8" d="M94.25458 8.6635s-17.6992 30.653-17.6992 48.864c0 16.288 8.8496 24.432 17.6992 24.432s17.6992-8.144 17.6992-24.432c0-16.288-17.6992-48.864-17.6992-48.864zM7.97305 71.38883s23.68467 26.30492 41.0048 31.9328c15.4912 5.0336 25.9712-.8656 28.7056-9.2816 2.7344-8.416-2.2768-19.3488-17.768-24.3824-15.4912-5.0336-51.9424 1.7312-51.9424 1.7312zm32.9292 101.35645s32.33842-14.39622 43.0432-29.1296c9.5744-13.1776 7.2016-24.968.0416-30.1696-7.16-5.2016-19.1072-3.8144-28.6816 9.3632-9.5744 13.1776-14.4032 49.936-14.4032 49.936zm106.6116-.01616s-3.69842-35.20262-14.4032-49.936c-9.5744-13.1776-21.5216-14.5648-28.6816-9.3632-7.16 5.2016-9.5328 16.992.0416 30.1696 9.5744 13.1776 43.0432 29.1296 43.0432 29.1296z"/><path fill="#ff5a11" d="M180.48535 71.28927s-34.62227-7.35908-51.9424-1.7312c-15.4912 5.0336-20.5024 15.9664-17.768 24.3824 2.7344 8.416 13.2144 14.3152 28.7056 9.2816 15.4912-5.0336 41.0048-31.9328 41.0048-31.9328z"/><path d="M169.87114 165.29816q-1.1397 0-1.74307.76262-.59379.75377-.59379 2.18148t.5938 2.19034q.60336.75376 1.74306.75376 1.12054 0 1.71434-.75376.59379-.76263.59379-2.19034t-.5938-2.18148q-.5938-.76262-1.71433-.76262zm0-2.27015q2.76783 0 4.31936 1.38337 1.5611 1.38337 1.5611 3.83088 0 2.4475-1.5611 3.83088-1.55153 1.38337-4.31936 1.38337-2.77741 0-4.3481-1.38337-1.56109-1.38337-1.56109-3.83088 0-2.4475 1.5611-3.83088 1.57068-1.38337 4.34809-1.38337zm11.79922 8.73476v5.21425h-3.42868v-13.70958h3.42868v1.45432q.70872-.86905 1.57067-1.27697.86196-.41678 1.9825-.41678 1.9825 0 3.25628 1.46318 1.27377 1.45432 1.27377 3.75107 0 2.29676-1.27377 3.75994-1.27378 1.45431-3.25628 1.45431-1.12054 0-1.9825-.40791-.86195-.4168-1.57067-1.28583zm2.2794-6.42914q-1.1014 0-1.69519.75376-.58421.7449-.58421 2.15487t.58421 2.16374q.5938.7449 1.69518.7449t1.67603-.7449q.58421-.7449.58421-2.16374 0-1.41884-.58421-2.16373-.57464-.7449-1.67603-.7449zm19.03964 2.87316v.90451h-8.0162q.12452 1.11735.87155 1.676.74702.55868 2.08784.55868 1.08223 0 2.21236-.29264 1.1397-.3015 2.33685-.9045v2.4475q-1.21631.42565-2.43262.63848-1.21632.2217-2.43263.2217-2.9115 0-4.53006-1.36564-1.609-1.3745-1.609-3.84862 0-2.42976 1.58026-3.822 1.58983-1.39225 4.36724-1.39225 2.52841 0 4.04162 1.40998 1.52279 1.40997 1.52279 3.7688zm-3.52444-1.05527q0-.90451-.57464-1.45431-.56505-.55867-1.48448-.55867-.99604 0-1.61856.5232-.62252.51433-.77576 1.48978zm16.90391 0v6.04783h-3.44782v-4.62898q0-1.28582-.06703-1.77356-.05747-.48773-.2107-.71828-.20112-.31038-.5459-.47887-.34479-.17735-.78534-.17735-1.07266 0-1.6856.7715-.61295.76263-.61295 2.11939v4.88615h-3.42867v-9.93191h3.42867v1.45432q.77576-.86905 1.64729-1.27697.87154-.41678 1.92503-.41678 1.858 0 2.81573 1.05526.9673 1.05527.9673 3.06825zm18.3884-3.5737v2.41203q-1.10139-.42565-2.12616-.63848-1.02477-.21283-1.9346-.21283-.9769 0-1.45576.23056-.46928.2217-.46928.69168 0 .38132.35436.58528.36393.20396 1.29292.3015l.60338.07978q2.63375.31037 3.54359 1.01979.90984.70943.90984 2.22582 0 1.58732-1.2642 2.38542-1.2642.7981-3.77345.7981-1.06308 0-2.20278-.15961-1.13012-.15076-2.32728-.46113v-2.41204q1.02477.46113 2.09743.69169 1.08223.23056 2.1932.23056 1.00562 0 1.51321-.25716.5076-.25717.5076-.76263 0-.42565-.35436-.62961-.34479-.21283-1.38872-.3281l-.60336-.07093q-2.28898-.26603-3.2084-.98432t-.9194-2.18147q0-1.57846 1.16842-2.3411 1.16843-.76262 3.5819-.76262.94816 0 1.99208.13302t2.26982.41678zm8.39928 1.72034q-1.13969 0-1.74306.76262-.5938.75377-.5938 2.18148t.5938 2.19034q.60337.75376 1.74306.75376 1.12054 0 1.71434-.75376.5938-.76263.5938-2.19034t-.5938-2.18148q-.5938-.76262-1.71434-.76262zm0-2.27015q2.76784 0 4.31937 1.38337 1.56109 1.38337 1.56109 3.83088 0 2.4475-1.5611 3.83088-1.55152 1.38337-4.31936 1.38337-2.7774 0-4.34808-1.38337-1.5611-1.38337-1.5611-3.83088 0-2.4475 1.5611-3.83088 1.57067-1.38337 4.34808-1.38337zm8.25562 6.30498v-6.06555H254.86v.99319q0 .80697-.00936 2.03072-.00935 1.21489-.00935 1.6228 0 1.19715.06703 1.72922.06703.5232.22986.76263.2107.31037.5459.47886.34478.16848.78533.16848 1.07267 0 1.68561-.76262.61294-.76263.61294-2.1194v-4.90388h3.42868v9.93191h-3.42868v-1.43658q-.77576.86904-1.64728 1.28583-.86196.40791-1.90589.40791-1.858 0-2.83488-1.05526-.9673-1.05527-.9673-3.06826zm22.04692-3.36088q-.45013-.1951-.90027-.28376-.44055-.09756-.89069-.09756-1.32166 0-2.03995.78924-.70872.78037-.70872 2.24354v4.57578h-3.42867v-9.93191h3.42867v1.63167q.66083-.97545 1.5132-1.41884.86196-.45226 2.05912-.45226.1724 0 .37352.0177.20112.00867.58422.05322zm10.3722-2.3943v2.58939q-.69913-.44339-1.40785-.65622-.69915-.21282-1.45575-.21282-1.4366 0-2.24109.78037-.79491.7715-.79491 2.16373 0 1.39224.79491 2.17261.8045.7715 2.24109.7715.80449 0 1.52279-.2217.72787-.2217 1.34081-.65622v2.59826q-.8045.2749-1.63771.40792-.82365.14188-1.65687.14188-2.90193 0-4.53963-1.3745-1.63772-1.38337-1.63772-3.83975t1.63772-3.83088q1.6377-1.38337 4.53963-1.38337.8428 0 1.65687.14189.82365.133 1.63771.40791zm13.6668 4.62898v.90451h-8.01619q.1245 1.11735.87153 1.676.74703.55868 2.08785.55868 1.08224 0 2.21236-.29264 1.1397-.3015 2.33685-.9045v2.4475q-1.21631.42565-2.43263.63848-1.21631.2217-2.43263.2217-2.9115 0-4.53006-1.36564-1.60898-1.3745-1.60898-3.84862 0-2.42976 1.58025-3.822 1.58983-1.39225 4.36725-1.39225 2.5284 0 4.04161 1.40998 1.5228 1.40997 1.5228 3.7688zm-3.52445-1.05527q0-.90451-.57463-1.45431-.56506-.55867-1.48449-.55867-.99602 0-1.61855.5232-.62253.51433-.77576 1.48978zm16.37717 4.61125v5.21425h-3.42867v-13.70958h3.42867v1.45432q.70872-.86905 1.57067-1.27697.86196-.41678 1.9825-.41678 1.9825 0 3.25628 1.46318 1.27378 1.45432 1.27378 3.75107 0 2.29676-1.27378 3.75994-1.27377 1.45431-3.25628 1.45431-1.12054 0-1.9825-.40791-.86195-.4168-1.57067-1.28583zm2.2794-6.42914q-1.1014 0-1.69518.75376-.58422.7449-.58422 2.15487t.58422 2.16374q.59379.7449 1.69517.7449t1.67603-.7449q.58422-.7449.58422-2.16374 0-1.41884-.58422-2.16373-.57464-.7449-1.67603-.7449zm16.30054.63848q-.45014-.1951-.90027-.28376-.44055-.09756-.89069-.09756-1.32166 0-2.03996.78924-.70872.78037-.70872 2.24354v4.57578h-3.42866v-9.93191h3.42866v1.63167q.66084-.97545 1.51321-1.41884.86196-.45226 2.05912-.45226.1724 0 .37352.0177.20112.00867.5842.05322zm6.80946-.67395q-1.1397 0-1.74306.76262-.5938.75377-.5938 2.18148t.5938 2.19034q.60336.75376 1.74306.75376 1.12054 0 1.71433-.75376.5938-.76263.5938-2.19034t-.5938-2.18148q-.59379-.76262-1.71433-.76262zm0-2.27015q2.76783 0 4.31935 1.38337 1.5611 1.38337 1.5611 3.83088 0 2.4475-1.5611 3.83088-1.55152 1.38337-4.31935 1.38337-2.77742 0-4.3481-1.38337-1.5611-1.38337-1.5611-3.83088 0-2.4475 1.5611-3.83088 1.57068-1.38337 4.3481-1.38337zm15.66842 1.69375v-5.32067h3.44783v13.79826h-3.44783v-1.43658q-.7087.8779-1.56109 1.28583-.85237.40791-1.97292.40791-1.9825 0-3.25628-1.45431-1.27378-1.46318-1.27378-3.75994 0-2.29675 1.27378-3.75107 1.27378-1.46318 3.25628-1.46318 1.11096 0 1.96335.41678.86195.40792 1.57066 1.27697zm-2.26023 6.42913q1.10139 0 1.67603-.7449.5842-.74489.5842-2.16373t-.5842-2.16373q-.57464-.7449-1.67603-.7449-1.09181 0-1.67602.7449-.57464.74489-.57464 2.16373t.57464 2.16374q.5842.7449 1.67602.7449zm8.88774-1.8179v-6.06555h3.44782v.99319q0 .80697-.00935 2.03072-.00935 1.21489-.00935 1.6228 0 1.19715.06703 1.72922.06703.5232.22985.76263.2107.31037.5459.47886.34479.16848.78534.16848 1.07265 0 1.6856-.76262.61295-.76263.61295-2.1194v-4.90388h3.42867v9.93191h-3.42867v-1.43658q-.77576.86904-1.6473 1.28583-.86195.40791-1.90587.40791-1.858 0-2.83488-1.05526-.9673-1.05527-.9673-3.06826zm22.74604-5.75518v2.58939q-.69914-.44339-1.40786-.65622-.69914-.21282-1.45574-.21282-1.4366 0-2.2411.78037-.7949.7715-.7949 2.16373 0 1.39224.7949 2.17261.8045.7715 2.2411.7715.8045 0 1.52278-.2217.72788-.2217 1.34082-.65622v2.59826q-.80448.2749-1.6377.40792-.82366.14188-1.65688.14188-2.90192 0-4.53964-1.3745-1.63771-1.38337-1.63771-3.83975t1.63771-3.83088q1.63772-1.38337 4.53964-1.38337.8428 0 1.65687.14189.82364.133 1.63771.40791zm6.7041-3.13032v2.81995h3.53403v2.27015h-3.53402v4.2122q0 .69168.2969.93998.29689.23942 1.178.23942h1.76223v2.27016h-2.94023q-2.03039 0-2.88277-.78036-.8428-.78924-.8428-2.6692v-4.2122h-1.70475v-2.27015h1.70475v-2.81995zm5.63146 2.81995h3.42867v9.93191h-3.42867zm0-3.86635h3.42867v2.58939h-3.42867zm11.82795 5.89707q-1.1397 0-1.74307.76262-.59379.75377-.59379 2.18148t.59379 2.19034q.60336.75376 1.74307.75376 1.12054 0 1.71433-.75376.59379-.76263.59379-2.19034t-.5938-2.18148q-.59378-.76262-1.71432-.76262zm0-2.27015q2.76783 0 4.31935 1.38337 1.5611 1.38337 1.5611 3.83088 0 2.4475-1.5611 3.83088-1.55152 1.38337-4.31935 1.38337-2.77741 0-4.3481-1.38337-1.5611-1.38337-1.5611-3.83088 0-2.4475 1.5611-3.83088 1.57069-1.38337 4.3481-1.38337zm19.15457 4.12351v6.04783h-3.44782v-4.62898q0-1.28582-.06703-1.77356-.05747-.48773-.21071-.71828-.20112-.31038-.5459-.47887-.3448-.17735-.78535-.17735-1.07265 0-1.6856.7715-.61295.76263-.61295 2.11939v4.88615h-3.42867v-9.93191h3.42867v1.45432q.77577-.86905 1.6473-1.27697.87153-.41678 1.92504-.41678 1.858 0 2.81572 1.05526.9673 1.05527.9673 3.06825zm17.97659-1.1794q-.45014-.1951-.90028-.28377-.44055-.09756-.89068-.09756-1.32167 0-2.03996.78924-.70872.78037-.70872 2.24354v4.57578h-3.42867v-9.93191h3.42867v1.63167q.66083-.97545 1.51321-1.41884.86196-.45226 2.05911-.45226.1724 0 .37352.0177.20112.00867.58422.05322zm12.41217 2.23467v.90451h-8.0162q.12451 1.11735.87154 1.676.74703.55868 2.08785.55868 1.08224 0 2.21235-.29264 1.1397-.3015 2.33686-.9045v2.4475q-1.21631.42565-2.43263.63848-1.21631.2217-2.43263.2217-2.9115 0-4.53006-1.36564-1.60898-1.3745-1.60898-3.84862 0-2.42976 1.58025-3.822 1.58983-1.39225 4.36725-1.39225 2.5284 0 4.04161 1.40998 1.5228 1.40997 1.5228 3.7688zm-3.52445-1.05527q0-.90451-.57463-1.45431-.56506-.55867-1.48449-.55867-.99603 0-1.61855.5232-.62252.51433-.77576 1.48978zm16.9039 0v6.04783h-3.44783v-4.62898q0-1.28582-.06703-1.77356-.05747-.48773-.2107-.71828-.20112-.31038-.5459-.47887-.34478-.17735-.78534-.17735-1.07266 0-1.6856.7715-.61295.76263-.61295 2.11939v4.88615h-3.42867v-9.93191h3.42867v1.45432q.77576-.86905 1.64729-1.27697.87154-.41678 1.92504-.41678 1.858 0 2.81572 1.05526.9673 1.05527.9673 3.06825zm10.47757-2.42976v-5.32067h3.44783v13.79826h-3.44783v-1.43658q-.70872.8779-1.5611 1.28583-.85238.40791-1.97292.40791-1.9825 0-3.25628-1.45431-1.27377-1.46318-1.27377-3.75994 0-2.29675 1.27377-3.75107 1.27379-1.46318 3.25628-1.46318 1.11097 0 1.96335.41678.86195.40792 1.57067 1.27697zm-2.26024 6.42913q1.10139 0 1.67602-.7449.58422-.74489.58422-2.16373t-.58422-2.16373q-.57463-.7449-1.67602-.7449-1.0918 0-1.67602.7449-.57464.74489-.57464 2.16373t.57464 2.16374q.58422.7449 1.67602.7449zm19.71006-2.9441v.90451h-8.01619q.1245 1.11735.87153 1.676.74703.55868 2.08785.55868 1.08224 0 2.21236-.29264 1.1397-.3015 2.33685-.9045v2.4475q-1.21631.42565-2.43263.63848-1.21631.2217-2.43263.2217-2.9115 0-4.53006-1.36564-1.60898-1.3745-1.60898-3.84862 0-2.42976 1.58025-3.822 1.58983-1.39225 4.36725-1.39225 2.5284 0 4.04161 1.40998 1.52279 1.40997 1.52279 3.7688zm-3.52445-1.05527q0-.90451-.57464-1.45431-.56505-.55867-1.48447-.55867-.99604 0-1.61856.5232-.62253.51433-.77576 1.48978zm14.08818-1.1794q-.45014-.1951-.90027-.28377-.44056-.09756-.89068-.09756-1.32168 0-2.03997.78924-.70872.78037-.70872 2.24354v4.57578h-3.42867v-9.93191h3.42867v1.63167q.66083-.97545 1.51322-1.41884.86195-.45226 2.0591-.45226.1724 0 .37352.0177.20112.00867.58422.05322zm1.70476-2.70468h3.42867v9.93191h-3.42867zm0-3.86635h3.42867v2.58939h-3.42867zm17.50727 7.75043v6.04783h-3.44782v-4.62898q0-1.28582-.06703-1.77356-.05747-.48773-.2107-.71828-.20112-.31038-.5459-.47887-.34479-.17735-.78534-.17735-1.07265 0-1.6856.7715-.61295.76263-.61295 2.11939v4.88615h-3.42867v-9.93191h3.42867v1.45432q.77576-.86905 1.6473-1.27697.87152-.41678 1.92503-.41678 1.85799 0 2.81572 1.05526.9673 1.05527.9673 3.06825zm10.47758 4.36295q-.70872.86904-1.5611 1.27695-.85237.40793-1.97292.40793-1.96334 0-3.2467-1.42772-1.28336-1.43657-1.28336-3.65352 0-2.2258 1.28336-3.64465 1.28336-1.42771 3.2467-1.42771 1.12055 0 1.97293.40791t1.56109 1.28583v-1.47205h3.44782v8.92985q0 2.3943-1.63771 3.65352-1.62814 1.2681-4.73117 1.2681-1.00563 0-1.9442-.14189-.93857-.14188-1.88672-.43452v-2.47411q.90026.47886 1.76221.70942.86196.23943 1.7335.23943 1.6856 0 2.47094-.68282.78533-.68282.78533-2.13713zm-2.26023-6.18084q-1.06308 0-1.65687.72715-.5938.72717-.5938 2.05733 0 1.36564.57463 2.07506.57464.70055 1.67604.70055 1.07265 0 1.66644-.72715.59379-.72716.59379-2.04846 0-1.33016-.5938-2.05733-.59378-.72715-1.66643-.72715z" fill="#777"/></svg>