<svg xmlns="http://www.w3.org/2000/svg" role="img" viewBox="-2.81 -2.56 61.88 59.63"><title>Arsenal Suite logo</title><path fill="#02052C" stroke="#02052C" d="M42.5 4l1 2-1-2zm-21 1l1.5.5L17.5 8V7l4-2zm3 0l6 1L32 7.5l-1.5.5-5-1-1-2zm15 0l.5 2.5-1.5 3.5L33 8.5 39.5 5zm4 2q2.3-.7 1.5 1.5L43.5 7zm-32 1l4.5.5-3 1-4 6-2 13-5 10V42q2.7-1.1 2 1.5l.5 1.5L0 42.5v-2l4-7-.5-1.5q2.6.8 1.5-2.5l2-6v-2L10 11l2-.5-.5-2.5zm39 2l.5 7.5-2 1q.8-2.2-1.5-1.5L45 16l.5-3q1.1 2.8 4.5 2l.5-5zm3 0l1.5 4.5h-1l-.5-4.5zm-17 18l1 2-1-2zm15 1l.5 1.5-1.5 1.5-6 1v-3l6.5 1 .5-2zM31 30l2 .5-.5 2.5-1.5-3zm3.5 11l1.5.5-3.5 3.5-1.5-1.5 3.5-2.5zm-28 5l3.5 1-2.5 5-1-2q2.3.8 1.5-1.5L6.5 46zm-2 6l1.5.5L3.5 54l1-2zm-4 1l1 2-1-2z"/><path fill="#FAFCF4" stroke="#FAFCF4" d="M24.5 8L28 9.5l-.5 2.5h-2q-3.3 1.1-2.5-1.5h-2L24.5 8zm-7 3l1.5 2.5h-1l-.5-2.5zm-2 1l1.5 2.5-3 3 1 1-.5 1.5-2.5-3.5 3.5-4.5zM7 35q2.7-1.1 2 1.5l3 4-2 1 .5 1.5L6 39.5 7 35z"/><path fill="#F7FDFD" stroke="#F7FDFD" d="M34.5 10l1 2q-2.2-.7-1.5 1.5-1.7 3.3-3.5-.5l-2 1-.5-2.5 1.5.5 3 1 2-3zm-8 1l-1 2-3.5 1 .5-2h2l2-1z"/><path fill="#F7FDFD" stroke="#F7FDFD" d="M20.5 13l.5 3 2.5 1 3-1v1l-4 1h-2L17 15.5l3.5-2.5zm-9 1l.5 2.5q.7 2.6-2 1.5l1.5-4zm34 3l1 3 1.5-.5q-1.7 3.3-3.5-.5l-1.5-.5 2.5-1.5zm-18 1l3.5 2 .5-2 .5 1.5-1.5 2.5-3-4zm-5 1l3.5 5.5q-3.5 1.5-1 3l-.5 1.5-3.5-2.5q3-1 2-6l-.5-1.5zm-2 10l3.5 1.5-4 1.5 1 3.5-2-1 2-4-.5-1.5zm-12 1q2.3-.7 1.5 1.5L8.5 30zm3 0l5.5 3.5-1 3L11.5 47 10 43.5l2-1-1-3Q10 35 12.5 34h2l1.5-.5-3.5-1.5-1.5.5.5-2.5zm12 2l.5 3.5-2-1 1.5-2.5zM4 36q3-1 2 2-3 1-2-2zm2.5 6L9 43.5l-2 1 .5-1.5-1-1z"/><path fill="#060446" stroke="#060446" d="M0 0h15.5l.5 1.5h1Q16.3-.8 18.5 0q.8 3.8 6 3V2L21 .5l1.5.5 2-1H41q.1 4.9-3.5 7l-5 1-1-3-4 1-3-1q-1.5 2.5-3-1-4-.5-4.5 2.5L16.5 8H11v1.5Q7.9 11.3 9.5 13l-1.5.5v2q.8 5.3-2 7 2.5 1.5-1 3l1 3L3.5 32l-1.5.5v2L.5 39 0 34.5v-2l1-4-1-2 1-2L0 19q5.6 1.9 4-3l-4-.5V0zm35 3l-2 4 4-2-2-2zM3 25l-2 2q-1 2 2 1v3h1l-1-6zM42.5 0H57v28l-2.5-1-.5 1.5.5 1.5-2.5-1.5 4-6-1-4q2.5-1.5-1-3l2-2-1-3.5-3-.5.5-1.5q-2.2-.7-1.5 1.5L50 15q-4.9 1.8-3-4.5l.5-1.5-2.5.5 1 3-2-1L45 7l-3-1.5v-2l.5-3.5zM45 1l1 2 2-1-3-1zm1 3l-1 3h1V4zM2.5 46L8 48q1.1 2.7-1.5 2v2l-2-1L2 52.5l.5 1.5L0 52.5l2-1-2-1 5-1-5-2 1.5.5 2.5-.5L2.5 46z"/><path fill="#D2E5F0" stroke="#D2E5F0" d="M41.5 5l.5 2.5h-1l.5-2.5zm-27 5l-1 2 1-2zm8 4l-1 2 1-2zm9 0l2 3-2-3zm-14 2l3 4-3-4zm15 3l2.5.5-2.5.5v-1zm9 1l4.5 3.5-3.5 2.5.5-1.5-1.5-2.5-1.5.5 1 2-1.5-.5q-2.2-.7-1.5 1.5h-1l2-4.5 2.5-1zm-30 2q2.3-.7 1.5 1.5h-3l1.5-1.5zm14 4l.5 4.5h-1l.5-4.5zm-16 2l3.5 1.5-2.5.5-1-2zm9 4l1.5 4.5-2 .5.5-5zm5.5 0q2.7-1.1 2 1.5v2l-.5 1.5-1.5-5zm-8.5 7l.5 3.5q-2.8 1.8 1.5 3.5l1.5.5-5 1.5-1-3.5 1-2q-2.7-1.8 1.5-3.5z"/><path fill="#535D7F" stroke="#535D7F" d="M40.5 3l.5 2.5h-1l.5-2.5zm-28 8l-1 2 1-2zm25 0l-.5 1.5-.5 1.5-.5-1.5 1.5-1.5zM51 11l2 .5-1.5 5.5-.5-6zm2.5 7l.5 1.5-1.5 2.5-3.5-2.5 1.5.5q3.5 1 3-2zm-11 12l1 2-2.5-.5 1.5-1.5zm-25 8l3.5 1.5-2.5.5-1-2zm19 1l1 2-1-2zm4 2l-2 3 2-3zm2 1q7.3-.2 9.5 4.5L49.5 52l-7 1-3.5-2.5.5-2.5H42l.5 2H47v-4h-6v-2.5l1.5-1.5zm-8 2l1 2-1-2zM23 46l2 .5-1.5 2.5-.5-3zm5.5 4l.5 1.5-2 1 1.5-2.5z"/><path fill="#B1E2F1" stroke="#B1E2F1" d="M40.5 7L42 9.5l-2-1 .5-1.5zm-1 3l1 2-1-2zm0 3l-.5 1.5-.5 1.5-.5-1.5 1.5-1.5zm-15 1l1.5.5-2.5 1.5 1-2zm3 0q4.4-1.5 3.5 1.5l-1.5-.5q-3 .5-2-1zm9 0l.5 2.5h-1l.5-2.5zm-4 2l2 3q-2.2.8-1.5-1.5l-.5-1.5zm16 3l2.5 3.5-2.5 4.5-1.5.5.5 1.5-2 1 .5-1.5q-1.1-3.3 1.5-2.5v-1l-5 2v-1q2.6.7 1.5-2h2.5v-1l-1.5-.5 1.5-.5q1.3 2.3 2.5-.5l-.5-2.5zm-14 3l1 2-1-2zm6 0l2.5 1-.5 2-2-3zm-11 1q2.8 1.3.5 2.5.8 5.8-1.5 8.5l-.5-2.5 1-2-1-4 1.5-2.5zm-20 1l2 3q2.3-.7 1.5 1.5l.5 1.5q-2.2-4.2-4.5-2.5l-1-2L9.5 24z"/><path fill="#B1E2F1" stroke="#B1E2F1" d="M12.5 24l2.5 3.5h-1L12.5 24zm18 9l.5 5-2.5 1-.5-3.5h2l.5-2.5zm7 0l.5 5-2.5 1-1.5-.5q.8 2.6-2.5 1.5l3-4 2.5-1.5.5-1.5zm-12 1l-1 2 1-2zm-1 3q3-.8 1.5 3-3.7 1.5-3-1.5l1.5-1.5zm-6 3l.5 6-2.5-1-1 2-1.5-2.5 2.5-3.5 1.5.5.5-1.5zm8.5 2l2 .5-1 1 3 3q.8 2.6-2.5 1.5L24 44.5l3-.5v-2zm11.5 2q2.3-.7 1.5 1.5L38.5 44zm-20 3l.5 2.5h-2l-.5 1.5-1.5-2.5 3.5-1.5zm6 0l3 4-3.5-1.5.5-2.5zM10 49l3 1.5-.5 1.5q3.8-.7 4.5 1.5l-.5 1.5h-2l-2-1-3 1L7 52.5l3-1V49zm15.5 4l.5 2-6-.5 5.5-1.5z"/><path fill="#93BDD0" stroke="#93BDD0" d="M41.5 10l.5 2.5-3 2 2.5-4.5zm-10 5l1.5 3.5h-1l-.5-3.5zm4 0l-.5 1.5-.5 1.5-.5-1.5 1.5-1.5zm2 0l.5 1.5-2 1 1.5-2.5zm-21 2l4.5 5.5-2-1-2.5-4.5zm31 0l1 2-1-2zm-32 3l.5 5.5h-1l.5-5.5zm35 1l.5 2.5-.5 2.5-1.5-3.5 1.5-1.5zm-39 2l2.5 5.5h-1q.8-2.2-1.5-1.5L10 24.5l1.5-1.5zm43 0l-1 2 1-2zm-24 2l2.5 1.5-2.5 1.5v-3zm-15 6q3 .5 2.5 4.5h-1L15.5 31zm21 3v3q-3-1.5 0-3zm-5 2q3 1.5 0 3L27 40l.5-2h2q2.5.7 2-2zm-12 4l.5 3.5h-1l.5-3.5zm4 0l2.5.5q-3.1 1.8-1.5 3.5L23 42.5l.5-2.5zm8 1l1 2-1-2zm-27 1l1 2-1-2zm24 1q2.3-.7 1.5 1.5l.5 1.5-2-3zm9 2l2.5 1.5-2.5 1.5v-3zm-24 3l1 4q-2.2.8-1.5-1.5-2.2-1.2.5-2.5zm4 1q3 1.5 0 3v-3zm4 2l3.5 2.5-5 .5 1.5-3zm4.5 2l5 1.5-1.5.5h-2q-2.6.7-1.5-2z"/><path fill="#FCFDFE" stroke="#FCFDFE" d="M22.5 7q2.6-.7 1.5 2l-5 1.5 1 3h-1l-.5-1.5-3 6-1.5-.5 2-.5 1-3.5q-3.8-1.7-.5-3.5l6-3zm3 1l2.5.5-2.5.5V8zm4 1l4.5 1.5-4.5 1.5-2.5-1.5L29.5 9zm-2 7l3.5 1.5-.5 2.5-4-2v2l-1.5.5.5 1.5-1.5-1.5 1.5-3.5 2-1zm-15 1l2.5 4.5-1.5-.5-3.5 1q-1-3 2-2l.5-3zM21 27q2.7-1.1 2 1.5l-2 1V27zM7 31l2.5 1 2-1 2.5 1 1 3.5-2 1q2.3-1.2-.5-2.5l-2 4L9 35q-3.3-1.3-2 3.5l4 3-1 3 .5 1.5L5 42.5l-2-4 3-1-1-2L7 31zm0 10q-2 3 1 2l-1-2zm15.5-10l.5 1.5-1.5 2.5 1.5.5-2 1-.5-1.5-1.5.5 3.5-4.5z"/><path fill="#E7F3F8" stroke="#E7F3F8" d="M20.5 10l.5 2.5h-1l.5-2.5zm13 1l-1 2 1-2zm-19 1l1 2-1-2zM28 15l2 .5-2 1V15zm17.5 1l-1 2 1-2zm-25 2l1 2-1-2zm3 0q6.5 3 1 6l1.5-2.5-1.5-1.5q-2.8.7-1-2zm3 0l1 2-1-2zm17 1l3 2v1q-3.3 1.1-2.5-1.5h-2l1.5-1.5zm-34 1l1.5 2.5-2-1 .5-1.5zm24 0l1 2-1-2zm-21 1q2.3-.7 1.5 1.5L12.5 21zm-4 6l2.5 3.5-1.5-.5-2 1 .5-1.5.5-2.5zm15 1l1.5 2.5-2 1v-2l.5-1.5zm-10 2l1 2-1-2zm9 6l1.5.5-2 .5-.5 2-.5-1.5 1.5-1.5zm-18 2l-1 2 1-2zm11 0l-1 2 1-2zm-9 15l1 2q-2.8.7-1-2z"/><path fill="#2E3B69" stroke="#2E3B69" d="M42.5 13l.5 1.5-6 5-.5 3.5-.5-5 6-3.5.5-1.5zm-25 4l-1 2 1-2zM53 20l2 .5-2.5 3.5q-2.6.8-1.5-2.5h2V20zm-33.5 3l1.5 3.5-2.5 1.5.5-1.5.5-3.5zm8 2l.5 2.5h-1l.5-2.5zm8 0l2.5 1-.5 2q-1.8-3.1-3.5-1.5l1.5-1.5zm16 0l1 2-1-2zm-16 3l.5 2.5q.8 2.6-2.5 1.5l.5-1.5 1.5-2.5zm4 0l2.5 1.5-1.5-.5-1-1zm-9 1l.5 2.5h-1l.5-2.5zm-3 2l.5 3.5h-1l.5-3.5zM54 31l3 1.5v20L56 55H40.5L38 54l-.5-2-2.5 1.5.5 1.5-2-1-1.5.5q-.8-2.6 2.5-1.5v-1L31 50.5l1.5-.5 1.5.5-2-5 2-1 .5 4.5 1-2 1 2 1.5-.5q-1.1 3.3 1.5 2.5 2 3 8 2l3.5-2.5 1-4q-2.2-4.7-9.5-4.5-2.6 1.4-2 6l-.5-5.5 1-2q-2.6-1.4-2-6h1l.5 3.5 1-2 1 2 1.5-.5q-.7 2.6 2 1.5l.5-4 .5 2q4.7-.4 7-4.5V31z"/><path fill="#2E3B69" stroke="#2E3B69" d="M39.5 32l4.5 1q1.1 3.3-3 2 1.1-2.7-1.5-2v-1zm-7 1l3.5.5-3.5.5v-1zm5 6q2.6-.8 1.5 2.5-1.7 3.3-3.5-.5l-1.5-.5 1.5-.5 2.5 1.5-.5-2.5zm-14 2l1 2-1-2zm-19 2l1 2-1-2zm17 1l1.5 2.5-2-1 .5-1.5zm-9 4l2 3-2-3zm10 0l2 3q-2.2.8-1.5-1.5l-.5-1.5zm-6 3l1 2-1-2zm12 1l2.5.5-2.5.5v-1z"/><path fill="#0F0D4F" stroke="#0F0D4F" d="M19.5 0l2 1 2-1v1l-1.5.5 3 1-3.5.5-2-3zM45 1l3 .5L45.5 3 45 1zM34.5 3L37 4.5 33 7l1.5-4zm-15 1l2.5.5L17.5 7l2-3zm26 0l.5 2.5h-1l.5-2.5zm7 4v3q-3-1.5 0-3zm-7 1l2.5.5-1.5 4.5-1-5zm-37 1h2l1.5.5L9.5 12l-1-2zm46 0l1.5 3.5h-1l-.5-3.5zM0 16q5.6-1.9 4 3-5.6 1.9-4-3zm.5 8l1 2 3-2L6 27.5H5q1-3.7-2-2.5l2 6.5-2-1q1-3.7-2-2.5l-.5 2-.5-1.5 1-2L.5 24zm54 1l1 3q3-.9 1.5 3.5l-1.5-.5q-2.2-.7-1.5 1.5-2.3 4-7 4.5l-.5-2-.5 4q-2.7 1.1-2-1.5h-2l2-4.5 6.5-1 1.5-1.5.5-1.5 2 1-.5-1.5-1-2 1.5-1.5zm-52 7q2.7 1.3.5 2.5L2.5 36 2 34.5l.5-2.5zm-1 11l4 3 1.5-.5-.5 2.5-2-1L1 48.5l4 1-5 .5 1-2.5L.5 46q2.3.8 1.5-1.5H0L1.5 43zm33 5l-.5 1.5-.5 1.5-.5-1.5 1.5-1.5zm-34 3l3 1 2-1v1L2 53.5l.5 1.5-1-3-1-1zm35 2l3 1 1.5.5-3.5.5-1-2z"/><path fill="#E4FDFE" stroke="#E4FDFE" d="M40.5 9l.5 1.5-2.5 3.5-1.5-.5 2-.5 1.5-4zm-14 3l1 2-3.5-.5 2.5-1.5zm-5 5l1 2q-2.8.7-1-2zm21 2l1 2-1-2zM31 20l2.5 1q1.3-2.2 2.5.5L34.5 24l.5-1.5-.5-1.5-3.5 2v-3zm16.5 0l1 2q-2.8.7-1-2zm-9 2l-1 2 1-2zM13 23q3-1.2 2 2.5l-2-1V23zm11.5 1q3 1.5 0 3v-3zm25 2l.5 2.5h-1l.5-2.5zm-20 5l.5 4.5-2-1 1.5-3.5zm-6 6l-.5 1.5-.5 1.5-.5-1.5 1.5-1.5zM12 45q3-1.2 2 2.5l1.5 2.5-3.5-2v-3zm-2.5 6l3 3 1-1 2.5 1.5-1.5-.5-2 1h-4L7 53.5 9.5 51z"/><path fill="#07233E" stroke="#07233E" d="M44.5 15l-3 4 3-4zm-17 6l.5 2.5h-1l.5-2.5zm9 2l-1 2 1-2zm-1 3l1 2q-2.8.7-1-2zm1 3l.5 2.5h-1l.5-2.5zm6 0l2.5.5-2.5.5v-1zm-9 1l-1 2 1-2zm11 1l-1 2-1.5-.5 2.5-1.5zm-18 6l.5 3.5h-1l.5-3.5zm3 3l2.5.5-2.5.5v-1zm-9 1l3.5 4.5-3-1-.5 1.5-.5-1.5v-2l.5-1.5zm-1 8l.5 2.5h-1l.5-2.5zm9 0l2.5 1.5-.5 1.5-2-3zm9.5 0l2 .5-2 1V49zm-.5 3l-1 2 1-2z"/><path fill="#426D90" stroke="#426D90" d="M38.5 11l-1 2 1-2zm5 0l.5 3.5q-2 4.5-4 1l3-1-1-2 1.5-1.5zm-6 6l2.5.5-1 2.5-2-.5.5-2.5zm-18 2l-1 2 1-2zm-3 2l1.5 2.5-1.5 2.5v-5zm23 8l1.5 3-2 .5.5 1.5-2-3q2.5.7 2-2zm-8 4l1 2 2-1v1q-2.2-.7-1.5 1.5h-1l-.5-3.5zm-5 1l1 2q-2.8.7-1-2zm12 2l.5 1.5-2 1 1.5-2.5zm-6 5l-2 3 2-3zm5 0l1 2-1-2zm-14 3l-1 2 1-2zM36 44l2 .5-2 1V44zm-3.5 2l.5 3-2-.5 1.5-2.5zm9 0l2.5.5-2.5.5v-1zM21 47l2 .5v2l-.5 1.5-1.5-4zm-1.5 5l-1 2 1-2z"/><path fill="#6786A3" stroke="#6786A3" d="M42.5 8l.5 3.5h-1l.5-3.5zm-1 5l-3 4 3-4zm2 2l-1 2 1-2zm-3 2l1.5 2.5-1.5-.5-1.5-.5 1.5-1.5zm10 1l2.5 1.5-3 .5.5-2zm-34 2q2.3-.7 1.5 1.5L16.5 20zm2 3l-.5 1.5 1 2-2 4.5 2 .5-1.5.5-2.5-1v-5q2.7 1.1 2-1.5l1.5-1.5zm8 1l.5 2.5h-1l.5-2.5zm8 0l.5 1.5v2q.8 2.6-2.5 1.5v-1l1.5-.5v-2l.5-1.5zm6 1l-1 2 1-2zm-14 3l.5 5.5h-1l.5-5.5zm20 2l2.5.5-2.5.5v-1zm-10 3l-3 4-.5-2 3.5-2zm-1 6l1 2-1-2zm-32 1q2.3-.7 1.5 1.5L3.5 40zm37 0l-1 2 1-2zm-4 3l1.5.5-2.5 1.5 1-2zm-17 1l.5 2.5h-1l.5-2.5zm11 0l1.5 3.5-.5 2.5-2.5-1.5 2-.5-.5-4zm-6 1l1 2-1-2zm20 1l1 2 1-2 .5 1.5-1 2.5h-4v-1.5l-.5-1.5 3-1zm-33 1l.5 2-2-.5 1.5-1.5zm28 0l-1 2 1-2zm-18 2l.5 2 4 1.5-1.5.5-2-1q-1.2 2.3-2.5-.5l1.5-2.5zm8 4l-1 2 1-2z"/></svg>