<svg xmlns="http://www.w3.org/2000/svg" role="img" viewBox="-16.16 -15.66 814.32 291.32"><title>ASWF Language Interop Project logo</title><defs><style>.st0{fill:#0271e8}.st3{fill:#eb0000}</style></defs><path fill="#4c4c4c" d="M319.7 0c.3 0 .5.1.6.4l27.5 66.3v.6c0 .2-.3.3-.5.3h-7.5c-.3 0-.5-.1-.6-.4l-10.8-26h-23.9l-10.8 26c0 .3-.3.4-.6.4h-7.5c-.2 0-.4 0-.5-.3s-.1-.4 0-.6L312.6.4c.1-.3.3-.4.6-.4h6.5zm5.2 33l-8.5-20.5-8.5 20.5h17zm52.6-4.3c.6.3 1.1.5 1.4.6l1.4.6c1.1.5 2.1 1 3 1.5 2.4 1.3 4.3 2.6 6 4 4.4 3.7 6.5 8.2 6.5 13.5s-2 10.3-5.9 13.7c-3.9 3.4-9.3 5-16 5s-9.6-1.1-14-3.3c-1.5-.8-3-1.7-4.3-2.7-.5-.4-1-.8-1.5-1.1-.3-.3-.7-.6-.9-.8-.3-.3-.3-.6 0-.9l5.4-5c.3-.3.6-.3.8 0 .2.2.5.4.7.6.3.3.7.5 1 .8.9.7 2 1.3 3.1 1.8 3 1.4 6.3 2.2 9.7 2.2 8.9 0 13.3-3.4 13.3-10.1s-1.1-4.9-3.4-6.8c-1.9-1.7-5.2-3.5-9.8-5.6h-.1l-2.2-1.1-1.2-.5-1.3-.6c-1-.5-1.9-.9-2.7-1.4-2.1-1.1-3.9-2.3-5.4-3.5-3.9-3.4-5.9-7.5-5.9-12.3s1.8-9.4 5.3-12.4S368.9.3 375 .3s8.6 1 12.5 2.9c1.4.7 2.7 1.5 3.9 2.4.4.3.9.6 1.3 1l.8.8c.3.3.3.6 0 .9l-2.6 2.5-2.7 2.5c-.3.3-.6.3-.8 0l-.6-.6c-.3-.2-.6-.4-.9-.7-.8-.6-1.7-1-2.6-1.5-2.6-1.2-5.4-1.8-8.3-1.8-7.5 0-11.3 2.8-11.3 8.4s1 4.1 2.9 5.7c1.6 1.4 4.4 3 8.5 4.7h.1l2.2 1.1zm88-28.5c.4 0 .6.2.6.7l-4.5 66.2c0 .4-.2.6-.6.6h-6.1c-.2 0-.4 0-.5-.3l-17.3-26.9-17.3 26.9c-.1.2-.3.3-.5.3h-6.2c-.4 0-.6-.2-.6-.6L407.9.8c0-.4.2-.7.6-.7h6.9c.4 0 .6.2.6.6l3.5 51.9 15.6-24.2c.1-.2.3-.3.5-.3h2.7c.2 0 .4 0 .5.3l15.5 24.2L457.8.8c0-.4.2-.6.6-.6h6.9zm23.1 8.5v20.8h25.5c.4 0 .6.2.6.6v7.4c0 .4-.2.6-.6.6h-25.5V67c0 .4-.2.6-.6.6h-7.4c-.4 0-.6-.2-.6-.6V.7c0-.4.2-.6.6-.6h40.9c.4 0 .6.2.6.6v7.4c0 .4-.2.6-.6.6h-32.9zM330.4 155.4c.4 0 .6.2.6.6v7.4c0 .4-.2.6-.6.6h-37.5c-.4 0-.6-.2-.6-.6V97.2c0-.4.2-.6.6-.6h7.4c.4 0 .6.2.6.6v58.2h29.5zm38.5-59c.3 0 .5.1.6.4l27.5 66.3v.6c0 .2-.3.3-.5.3H389c-.3 0-.5-.1-.6-.4l-10.8-26h-23.9l-10.8 26c0 .3-.3.4-.6.4h-7.5c-.2 0-.4 0-.5-.3s-.1-.4 0-.6l27.5-66.3c.1-.3.3-.4.6-.4h6.5zm5.2 33l-8.5-20.5-8.5 20.5h17zm80.3-32.9c.4 0 .6.2.6.6v66.2c0 .4-.2.6-.6.6h-3.3c-.2 0-.3 0-.5-.2l-35.9-48v47.6c0 .4-.2.6-.6.6h-7c-.4 0-.6-.2-.6-.6V97.1c0-.4.2-.6.6-.6h3.1c.2 0 .3 0 .5.3l36.2 48.3V97.2c0-.4.2-.6.6-.6h7zm71.2 32.6c.4 0 .6.2.6.6v22.6c0 .2 0 .3-.2.4l-.7.7c-6.4 6.5-13.9 9.9-22.6 10.4-4.9.3-9.6-.5-14.1-2.3-4.3-1.7-8.2-4.2-11.5-7.5-3.3-3.3-5.8-7.2-7.5-11.5-1.8-4.5-2.6-9.2-2.3-14.1.5-8.9 4-16.5 10.6-22.7s14.4-9.3 23.4-9.2c9.1 0 16.9 3.4 23.4 9.8.3.3.3.6 0 .9l-5.3 5.1c-.3.3-.6.2-.8 0-5.1-5-11.3-7.4-18.5-7.2-6.3.2-11.8 2.5-16.5 7-4.6 4.5-7.2 9.8-7.7 16.1-.6 7.3 1.6 13.7 6.6 19.1 5 5.3 11.1 8 18.4 8s12-2.1 16.7-6.4v-11.3h-11c-.4 0-.6-.2-.6-.6v-7.3c0-.4.2-.6.6-.6h19zm61.8-32.5c.4 0 .6.2.6.6v42.6c0 6.6-2.3 12.2-7 17-4.6 4.7-10.3 7.1-16.9 7.3-6.8.1-12.5-2.3-17.4-7.2-4.8-4.9-7.2-10.7-7.2-17.5V97.3c0-.4.2-.6.6-.6h7.3c.4 0 .6.2.6.6v42.2c0 4.3 1.4 8 4.3 11.1 2.9 3.1 6.5 4.8 10.7 4.9 4.4.2 8.2-1.3 11.4-4.4 3.2-3.1 4.8-6.9 4.8-11.3V97.2c0-.4.2-.6.6-.6h7.3zm44-.2c.3 0 .5.1.6.4l27.5 66.3v.6c0 .2-.3.3-.5.3h-7.5c-.3 0-.5-.1-.6-.4l-10.8-26h-23.9l-10.8 26c0 .3-.3.4-.6.4h-7.5c-.2 0-.4 0-.5-.3s-.1-.4 0-.6l27.5-66.3c.1-.3.3-.4.6-.4h6.5zm5.2 33l-8.5-20.5-8.5 20.5h17zm86.2-.3c.4 0 .6.2.6.6v22.6c0 .2 0 .3-.2.4l-.7.7c-6.4 6.5-13.9 9.9-22.6 10.4-4.9.3-9.6-.5-14.1-2.3-4.3-1.7-8.2-4.2-11.5-7.5-3.3-3.3-5.8-7.2-7.5-11.5-1.8-4.5-2.6-9.2-2.3-14.1.5-8.9 4-16.5 10.6-22.7s14.4-9.3 23.4-9.2c9.1 0 16.9 3.4 23.4 9.8.3.3.3.6 0 .9l-5.3 5.1c-.3.3-.6.2-.8 0-5.1-5-11.3-7.4-18.5-7.2-6.3.2-11.8 2.5-16.5 7-4.6 4.5-7.2 9.8-7.7 16.1-.6 7.3 1.6 13.7 6.6 19.1 5 5.3 11.1 8 18.4 8s12-2.1 16.7-6.4v-11.3h-11c-.4 0-.6-.2-.6-.6v-7.3c0-.4.2-.6.6-.6h19zm59.5-32.5c.4 0 .6.2.6.6v7.3c0 .4-.2.6-.6.6h-35.8V126h25.9c.4 0 .6.2.6.6v7.3c0 .4-.2.6-.6.6h-25.9v20.9h35.8c.4 0 .6.2.6.6v7.3c0 .4-.2.6-.6.6h-43.8c-.4 0-.6-.2-.6-.6V97.1c0-.4.2-.6.6-.6h43.8zM300.4 193c.4 0 .6.2.6.6v66.2c0 .4-.2.6-.6.6H293c-.4 0-.6-.2-.6-.6v-66.2c0-.4.2-.6.6-.6h7.4zm65.3 0c.4 0 .6.2.6.6v66.2c0 .4-.2.6-.6.6h-3.3c-.2 0-.3 0-.5-.2l-35.9-48v47.6c0 .4-.2.6-.6.6h-7c-.4 0-.6-.2-.6-.6v-66.2c0-.4.2-.6.6-.6h3.1c.2 0 .3 0 .5.3l36.2 48.3v-47.9c0-.4.2-.6.6-.6h7zm56.5 0c.4 0 .6.2.6.6v7.3c0 .4-.2.6-.6.6h-17.7v58.2c0 .4-.2.6-.6.6h-7.3c-.4 0-.6-.2-.6-.6v-58.2h-17.7c-.4 0-.6-.2-.6-.6v-7.3c0-.4.2-.6.6-.6h43.9zm55.1 0c.4 0 .6.2.6.6v7.3c0 .4-.2.6-.6.6h-35.8v20.9h25.9c.4 0 .6.2.6.6v7.3c0 .4-.2.6-.6.6h-25.9v20.9h35.8c.4 0 .6.2.6.6v7.3c0 .4-.2.6-.6.6h-43.8c-.4 0-.6-.2-.6-.6v-66.2c0-.4.2-.6.6-.6h43.8zm57.4 66.5v.6c0 .2-.3.3-.5.3h-8.4c-.3 0-.4-.1-.5-.3l-15.8-28.9h-11.6v28.5c0 .4-.2.6-.6.6H490c-.4 0-.6-.2-.6-.6v-66.1c0-.4.2-.6.6-.6h24.8c5.4 0 10 1.9 13.7 5.8 3.8 3.9 5.6 8.5 5.4 13.9-.2 4.4-1.6 8.2-4.5 11.6-2.8 3.3-6.3 5.4-10.5 6.4l15.9 28.9zm-20.1-36.9c2.9 0 5.4-1 7.5-3.1 2.1-2.1 3.1-4.6 3.1-7.4s-1-5.4-3.1-7.5c-2.1-2-4.6-3.1-7.5-3.1h-16.8v21.1h16.8zm61-29.6c9.3 0 17.2 3.3 23.8 9.9 6.6 6.6 9.9 14.5 9.9 23.8s-3.3 17.2-9.9 23.8c-6.6 6.6-14.5 9.9-23.8 9.9s-17.2-3.3-23.8-9.9c-6.6-6.6-9.9-14.5-9.9-23.8s3.3-17.2 9.9-23.8c6.6-6.6 14.5-9.9 23.8-9.9zm0 58.8c6.9 0 12.8-2.4 17.7-7.3 4.9-4.9 7.3-10.8 7.3-17.8s-2.4-12.8-7.3-17.7c-4.9-4.9-10.8-7.3-17.7-7.3s-12.9 2.4-17.8 7.3-7.3 10.8-7.3 17.7 2.4 12.9 7.3 17.8 10.8 7.3 17.8 7.3zm73.1-58.8c5.4 0 10 1.9 13.8 5.8 3.8 3.9 5.6 8.6 5.5 14-.2 5.2-2.2 9.6-6 13.3-3.8 3.6-8.4 5.4-13.6 5.4h-16.5v28.4c0 .4-.2.6-.6.6h-7.4c-.4 0-.6-.2-.6-.6v-66.3c0-.4.2-.6.6-.6h24.9zm0 29.8c2.9 0 5.5-1 7.5-3.1s3.1-4.6 3.1-7.5-1-5.4-3.1-7.5-4.6-3.1-7.5-3.1h-16.9v21.2h16.9z"/><path d="M69.8 153.7L29.1 113c-1.3-1.3-2.5-2.8-3.4-4.5-1.7-3-2.6-6.5-2.6-10 0-5.4 2.1-10.6 6-14.4 3.9-3.8 9-6 14.4-6s6.3.7 9.1 2.2l16.8-16.8C62 58 52.8 55 43.5 55c-11.7 0-22.6 4.5-30.8 12.7C4.5 76 0 87 0 98.6c0 9.9 3.2 19.3 9.4 27 1.1 1.3 2.2 2.6 3.4 3.8l40.7 40.7 16.4-16.4z" class="st0"/><path d="M115 152.1l-16.4-16.4-18.9 18.9-3.7 3.7-18.1 18.1c-1.3 1.3-2.8 2.5-4.5 3.4-3 1.7-6.5 2.6-10 2.6-5.5 0-10.6-2.1-14.4-6-3.9-3.9-6-9-6-14.4 0-3.2.7-6.3 2.2-9.2L8.4 136c-5.6 7.5-8.5 16.4-8.5 25.9s4.5 22.6 12.8 30.8c8.2 8.2 19.2 12.8 30.8 12.8 9.9 0 19.3-3.2 27-9.4 1.3-1 2.6-2.2 3.8-3.4l18.1-18.1 3.7-3.7L115 152zm0-90.5L98.7 45.2 79.8 64.1l-3.7 3.7L58 85.9l-3.7 3.7-18.9 18.9 16.4 16.4L70.7 106l3.7-3.7 18-18.1 3.7-3.7L115 61.6z" class="st3"/><path fill="#ffcc01" d="M80.66124 106.75361l16.40488-16.40488 63.28606 63.28606-16.40488 16.40488z"/><path d="M142.2 215.3l18.9-18.9 3.7-3.7 18.1-18.1 3.7-3.6 18.9-18.9-16.4-16.4-18.9 18.9-3.7 3.7-18.1 18.1-3.7 3.6-18.9 18.9 16.4 16.4z" class="st3"/><path d="M240.9 161.9c0-9.9-3.2-19.3-9.4-27-1.1-1.3-2.2-2.6-3.4-3.8l-17.7-17.7-22.9-22.9-16.4 16.4 40.7 40.7c1.3 1.3 2.5 2.8 3.4 4.5 1.7 3 2.6 6.5 2.6 10 0 5.4-2.1 10.6-6 14.4-3.8 3.9-9 6-14.4 6s-6.3-.7-9.1-2.2l-16.8 16.8c8.1 6 18.1 9 28.3 8.5 10.7-.6 20.8-5.1 28.4-12.7 8.2-8.2 12.8-19.2 12.8-30.8z" class="st0"/><path d="M142.2 124.9l18.9-18.9 3.7-3.7 18.1-18.1c1.3-1.3 2.8-2.5 4.5-3.4 7.9-4.4 18-3 24.4 3.4 3.9 3.9 6 9 6 14.4s-.7 6.3-2.2 9.2l16.8 16.8c5.6-7.5 8.5-16.4 8.5-25.9s-4.5-22.6-12.8-30.8c-8.2-8.2-19.2-12.7-30.8-12.7-9.8 0-19.4 3.3-27 9.4-1.3 1-2.6 2.2-3.8 3.4l-18.1 18.1-3.7 3.7-18.9 18.9 16.4 16.4z" class="st3"/><path d="M119.6 203.5l-.4-.4L97 180.9l-16.4 16.4 23.5 23.4 17.2 17.3.4.3 22.2 22.2 16.4-16.3-23.5-23.5-17.2-17.2zM121.3 57l.4.4 22.2 22.2 16.4-16.3-23.5-23.5-17.2-17.2-.4-.4L97 0 80.6 16.4l23.5 23.4L121.3 57z" class="st0"/></svg>