<svg xmlns="http://www.w3.org/2000/svg" role="img" viewBox="-3.10 -2.60 502.70 629.20"><title>Aton logo</title><defs><style>.cls-1{fill:#465755}.cls-2{fill:#445553}.cls-3{fill:#415350}.cls-5{fill:#354644}.cls-7{fill:#3f514e}.cls-8{fill:#3c4d4b}.cls-10{fill:#374846}.cls-12{fill:#3e4f4d}.cls-17{fill:#445452}.cls-19{fill:#4b5c5a}.cls-21{fill:#74c4a4}.cls-22{fill:#76c5a5}.cls-23{fill:#374745}.cls-25{fill:#3a4b48}.cls-28{fill:#6fbf9e}.cls-33{fill:#4d5e5c}.cls-34{fill:#627371}.cls-35{fill:#526361}.cls-48{fill:#54ccc4}.cls-49{fill:#56cdc5}.cls-50{fill:#56cec6}.cls-52{fill:#50615f}.cls-53{fill:#5bd3cb}.cls-60{fill:#546563}.cls-67{fill:#59d0c8}.cls-68{fill:#7fd5cb}.cls-69{fill:#5dd5cd}.cls-75{fill:#56bebe}.cls-77{fill:#7fc3c3}.cls-82{fill:#4ab3b2}.cls-84{fill:#65b8b7}.cls-87{fill:#52b9b5}.cls-89{fill:#4fb7b7}</style></defs><path d="M91.489 488.275h-30.1c-1.224-.625-2.732-.105-3.9-.967-1.063-1.54-.193-2.793.67-3.98a35.844 35.844 0 0 1 3.866-4.101q99.74-99.75 199.489-199.491c4.49-4.492 4.456-4.471.882-9.74-1.08-1.592-2.644-3.08-1.992-5.352.42-.644.997-.574 1.608-.36a2.415 2.415 0 0 1 .703.532 6.53 6.53 0 0 0 2.082 2.116c3.485 4.174 6.964 8.353 10.15 12.766 1.388 3.66 4.178 6.427 6.262 9.636 3.326 5.123 3.396 6.705-.961 11.064q-92.285 92.32-184.577 184.636a41.617 41.617 0 0 1-4.182 3.241z" class="cls-1"/><path d="M91.489 488.275c.238-1.733 1.676-2.594 2.758-3.676q92.668-92.706 185.363-185.386c3.869-3.87 3.702-4.765.664-9.556-2.05-3.23-5.06-5.826-6.31-9.568 1.3-.594 1.88.381 2.558 1.165 4.216 4.884 8.033 10.088 12.06 15.122a52.503 52.503 0 0 1 4.489 5.614 9.07 9.07 0 0 0 2.658 3.818 2.84 2.84 0 0 1 .427.77c.82 2.589 2.856 4.5 3.75 7.13a4.987 4.987 0 0 1-.881 5.457c-.82.952-1.728 1.817-2.615 2.703q-81.46 81.459-162.897 162.939a33.485 33.485 0 0 1-4.4 3.468z" class="cls-2"/><path d="M129.112 488.275c.24-1.734 1.68-2.595 2.762-3.678q82.438-82.478 164.904-164.929c3.222-3.221 3.362-5.009.69-8.855-.941-1.356-2.221-2.543-2.184-4.386 2.853-.111 3.195 2.875 5.004 4.052 2.569 4.19 5.988 7.743 8.807 11.75 2.153 3.06 4.112 6.254 6.456 9.183 1.392 1.739.9 3.54-.268 5.207a27.054 27.054 0 0 1-3.202 3.434q-72.567 72.603-145.147 145.193a18.91 18.91 0 0 1-3.96 3.03z" class="cls-3"/><path fill="#485957" d="M487.793 62.499v.627c-1.743 2.086-3.7 3.967-5.62 5.886q-57.195 57.187-114.386 114.38l-2.44 2.437c-5.328 5.303-6.51 5.272-11.398-.315a4.453 4.453 0 0 0-3.135-1.856c-2.25-.934-3.465-3.05-5.214-4.558a3.914 3.914 0 0 1-.471-.712 7.812 7.812 0 0 0-2.685-3.554 3.474 3.474 0 0 1-.553-.664c-1.808-3.31-4.77-5.67-7.066-8.574-.956-1.208-2.102-2.342-1.724-4.113.504-1.015 1.322-.841 2.142-.532a7.696 7.696 0 0 1 2.332 1.556c4.87 4.314 4.872 4.316 9.394-.206q60.809-60.799 121.607-121.608c.812-.812 1.62-1.63 2.44-2.433 3.697-3.619 4.382-3.669 8.402-.633 5.596 6.798 7.69 14.803 8.06 23.401.023.508-.087 1.044.315 1.47z"/><path d="M487.793 353.456v44.522a29.77 29.77 0 0 1-4.81 5.715q-39.91 39.861-79.772 79.771a29.76 29.76 0 0 1-5.715 4.811h-44.522c-.595-1.173.152-1.993.783-2.81a24.515 24.515 0 0 1 2.159-2.27q63.396-63.4 126.823-126.77c1.375-1.374 2.436-3.585 5.054-2.969z" class="cls-5"/><path fill="#3a4b49" d="M302.182 488.275h-47.03c-.98-1.195-.214-2.158.469-3.073a30.35 30.35 0 0 1 3.014-3.177q46.164-46.156 92.32-92.32a28.995 28.995 0 0 1 2.222-2.204c2.15-1.725 2.473-3.433.828-5.87-1.45-2.148-2.662-4.45-4.318-6.484-.943-1.158-2.206-2.377-1.263-4.176 1.723-.727 2.498.635 3.188 1.668a18.061 18.061 0 0 0 3.124 3.371 17.856 17.856 0 0 1 1.505 2.172 10.396 10.396 0 0 0 3.713 4.006 68.68 68.68 0 0 0 11.922 10.119 31.62 31.62 0 0 0 10.51 6.584c5.03 2.063 5.672 4.322 1.812 8.22-12.55 12.673-25.21 25.238-37.814 37.857q-19.24 19.26-38.488 38.511a29.02 29.02 0 0 1-5.714 4.796z"/><path d="M162.974 488.275c.692-1.827 2.127-3.069 3.455-4.396l146.037-146.037c3.71-3.71 3.57-4.456.413-8.568-4.118-5.364-7.785-11.07-12.265-16.17a7.738 7.738 0 0 1-.94-2.287l.406-.197a2.409 2.409 0 0 1 2.055 1.216c5.782 7.832 12.434 14.983 17.992 22.991 1.496 3.633 4.77 6.047 6.519 9.51.182.363.552.626.77.984 3.798 6.19 2.859 6.64-.963 10.462q-46.102 46.105-92.206 92.209-17.735 17.73-35.452 35.477a29.282 29.282 0 0 1-5.722 4.806z" class="cls-7"/><path d="M487.793 93.225v36.37a29.414 29.414 0 0 1-4.8 5.71q-43.06 43.018-86.086 86.069l-1.106 1.106c-5.392 5.377-7.071 5.304-11.857-.555a8.967 8.967 0 0 0-3.902-2.46c-3.237-1.83-4.65-5.438-7.485-7.666q-.538-.67-1.027-1.375a7.858 7.858 0 0 0-2.682-3.557 3.436 3.436 0 0 1-.55-.656c-.872-2.079-3.356-3.292-3.2-5.927.725-1.302 1.71-.927 2.654-.352a11.782 11.782 0 0 1 1.954 1.559c3.609 3.43 3.618 3.433 7.229-.177q52.473-52.47 104.975-104.911c1.58-1.577 2.86-4.106 5.883-3.178z" class="cls-2"/><path d="M487.793 93.225a12.414 12.414 0 0 0-4.176 3.23q-53.508 53.518-107.024 107.028c-3.41 3.41-3.79 3.31-7.057-.344-1.04-1.162-2.02-2.81-4.05-2.599-1.976.475-2.67-1.193-3.7-2.255a26.914 26.914 0 0 1-3.305-4.112c-1.697-2.74-4.32-4.7-6.167-7.313-.82-1.16-2.006-2.193-1.256-3.86 1.098-1.038 1.682.03 2.3.624a26.854 26.854 0 0 1 2.079 2.33c2.873 3.487 4.375 3.581 7.557.4Q423.346 126.009 483.7 65.666c1.154-1.154 2.118-2.681 4.093-2.54z" class="cls-1"/><path d="M348.585 371.014c2.028 4.096 5.423 7.281 7.468 11.414.912 1.843 1.032 3.026-.39 4.392-.678.651-1.328 1.332-1.993 1.997q-47.995 47.995-95.98 95.999c-1.012 1.013-2.338 1.834-2.538 3.46h-31.353c-.757-1.373.029-2.406.796-3.405a33.682 33.682 0 0 1 3.02-3.177q54.274-54.293 108.563-108.571 1.554-1.547 3.063-3.14a3.93 3.93 0 0 0 .842-4.652c-2.032-3.465-3.418-7.415-6.767-10-1.18-1.461-2.763-2.78-1.852-5.013 1.427-.747 2.068.41 2.853 1.192 3.26 3.24 5.7 7.146 8.644 10.648a61.103 61.103 0 0 1 4.546 5.536c.66 1.005 1.746 1.88 1.078 3.32z" class="cls-8"/><path fill="#334542" d="M397.496 488.275c.136-1.39 1.213-2.143 2.085-3.016q42.59-42.606 85.197-85.196c.872-.872 1.625-1.949 3.015-2.085v38.25c-.77 7.373-2.18 14.53-5.878 21.127-8.11 14.47-19.832 24.475-35.752 29.374-3.782 1.163-7.808.81-11.67 1.546z"/><path d="M487.793 353.456c-.86.755-1.764 1.464-2.57 2.271q-65 64.977-129.978 129.977c-.807.807-1.516 1.712-2.27 2.571h-21.32c-.705-1.396.176-2.4.896-3.401a30.962 30.962 0 0 1 3.413-3.663q37.203-37.215 74.41-74.426c1.294-1.295 3.008-2.403 2.5-4.68.406-1.292 1.576-1.114 2.556-1.39 8.412-2.381 16.93-4.58 24.117-9.88a56.01 56.01 0 0 0 18.44-22.79 9.893 9.893 0 0 0 .666-3.675c1.402-4.963 3.543-9.745 4.016-14.934.467-5.124 1.12-10.292-.73-15.32-1.442-1.119-.837-2.904-1.43-4.3-.81-5.152-3.22-9.833-4.373-14.883.487-2.185 1.612-2.217 3.042-.83a7.843 7.843 0 0 1 1.662 2.989c1.297 3.413 2.75 6.762 4.203 10.11 1.116 2.57 1.429 2.673 3.403.742 5.073-4.963 10.013-10.061 15.102-15.007 1.127-1.095 2.245-2.677 4.245-1.494z" class="cls-10"/><path d="M380.516 218.777c2.014-.11 3.153 1.37 4.134 2.67a22.515 22.515 0 0 0 3.43 3.147c1.502 1.331 2.817 1.018 4.09-.319.577-.605 1.183-1.181 1.773-1.772q45.192-45.191 90.393-90.373c1.012-1.011 1.834-2.336 3.457-2.536v33.235a18.765 18.765 0 0 1-3.026 3.949q-36.748 36.687-73.453 73.417c-.811.81-1.613 1.632-2.44 2.427-3.524 3.395-4.874 3.27-8.2-.25-1.886-2-3.284-4.638-6.257-5.403-3.877-2.966-6.435-7.125-9.657-10.688-1.266-1.379-2.33-2.92-3.504-4.371-.72-.889-1.346-1.89-.74-3.133z" class="cls-3"/><path fill="#fdfdfd" d="M487.793 62.499c-1.343-2.588-1.197-5.535-1.992-8.257-1.685-5.77-3.792-11.342-7.45-16.203-4.988-5.06-9.157-10.942-15.094-15.055-4.206-4.154-9.683-5.962-14.986-8.054a31.373 31.373 0 0 0-7.483-2.14c-2.803-1.145-5.82-1.155-8.746-1.662a22.716 22.716 0 0 0-5.308-.361q-171.308-.003-342.616.086c-8.625.01-17.325.002-25.897 1.639a57.332 57.332 0 0 0-46.135 45.947 72.15 72.15 0 0 0-1.35 13.06c-1.04 118.27-.164 236.543-.448 354.814a24.35 24.35 0 0 0 .355 5.919 57.947 57.947 0 0 0 5.144 20.648 17.364 17.364 0 0 0 2.916 5.094c3.447 6.519 8.796 11.458 13.895 16.594a7.563 7.563 0 0 0 2.668 1.576 60.413 60.413 0 0 0 18.623 8.69 6.705 6.705 0 0 1 3.74 2.1c1.146.75 2.715.311 3.76 1.341-16.721 0-33.443-.05-50.164.063-2.15.015-2.573-.424-2.57-2.571q.12-70.231.06-140.462 0-166.643-.058-333.285c-.001-2.351.53-2.881 2.88-2.88q236.718.097 473.434 0c2.35-.001 2.9.526 2.885 2.88-.117 16.826-.063 33.652-.063 50.479z"/><path d="M413.173 402.367c1.51.084 2.284.652 1.216 2.134a17.7 17.7 0 0 1-1.943 2.039q-38.215 38.22-76.443 76.427a26.604 26.604 0 0 0-4.35 5.308h-29.471c.2-1.623 1.525-2.445 2.536-3.457q39.19-39.228 78.409-78.43c3.824-3.824 3.573-4.487-1.526-6.76-3.782-1.686-7.616-3.423-10.442-6.667a1.624 1.624 0 0 1 2.28-.157c5.008 3.6 10.987 4.87 16.606 7.008 5.795 2.14 11.845 1.492 17.82 1.679 1.794.056 3.755-.706 5.308.876z" class="cls-10"/><path d="M394.949 236.31c2.137.006 3.098 1.647 4.237 3.043 5.005 6.137 5.006 6.137 10.504.638q36.967-36.966 73.93-73.935a12.401 12.401 0 0 1 4.173-3.227v30.726a29.803 29.803 0 0 1-4.808 5.71q-29.365 29.313-58.692 58.665c-4.765 4.761-5.286 5.377-11.103-.073-1.275-1.194-2.228-2.818-4.14-3.191a3.211 3.211 0 0 1-.783-.401 66.528 66.528 0 0 1-6.46-7.407c-1.737-2.097-3.817-3.903-5.298-6.22-.445-1.468-2.456-2.38-1.56-4.329z" class="cls-7"/><path d="M331.655 350.32c.35 1.74 1.699 2.911 2.507 4.39 2.822 5.582 2.825 5.585-1.684 10.098q-60.342 60.387-120.7 120.757c-.963.966-2.12 1.695-3.028 2.71h-15.677c.239-1.733 1.677-2.594 2.759-3.676q65.214-65.255 130.457-130.481c3.198-3.198 3.353-3.566.815-7.382-2.243-3.371-4.816-6.522-7.21-9.794a9.325 9.325 0 0 1-.78-1.67c1.723-.735 2.473.729 3.184 1.667 1.354 1.788 2.914 3.394 4.266 5.173 1.11 1.285 2.059 2.702 3.192 3.97.499 1.323 1.825 2.12 2.236 3.501a.965.965 0 0 1-.337.736z" class="cls-12"/><path d="M208.749 488.275c-.14-1.977 1.39-2.942 2.544-4.096q59.4-59.427 118.842-118.81c3.023-3.018 6.53-5.646 4.027-10.659 3.283 2.73 5.33 6.442 7.207 10.091 1.209 2.349.215 4.853-1.94 6.993q-35.563 35.348-70.957 70.867-20.83 20.83-41.665 41.657a11.83 11.83 0 0 0-3.008 3.957z" class="cls-12"/><path d="M487.793 227.416v37.624a29.164 29.164 0 0 1-4.804 5.72q-13.55 13.484-27.048 27.018a13.593 13.593 0 0 1-3.075 2.65c-1.83.969-3.42 1.028-4.998-.78-1.827-2.094-3.48-4.485-6.287-5.493a4.627 4.627 0 0 1-1.464-1.015c-3.22-3.33-6.046-6.992-8.922-10.614-1.573-2.604-4.121-4.386-5.808-6.898-.757-1.128-1.67-2.165-1.4-3.67 1.188-1.833 2.356-.553 3.42.105 1.525.942 2.453 2.543 3.817 3.687 2.899 2.43 2.956 2.466 5.598-.141 3.194-3.152 6.354-6.338 9.526-9.513q18.253-18.272 36.55-36.5c1.287-1.277 2.4-3.416 4.895-2.18z" class="cls-8"/><path fill="#394a48" d="M441.969 293.393c2.98.42 4.198 3.108 5.905 4.96 2.165 2.351 3.659 2.054 5.668.031q15.456-15.565 31.013-31.031c.943-.941 1.728-2.147 3.238-2.313v46.403c-1.393.137-2.145 1.218-3.02 2.09-5.404 5.383-10.78 10.795-16.193 16.17-2.537 2.52-3.136 2.317-4.431-1.011q-2.543-6.562-5.367-13.009c-.174-.396.053-2.647-1.706-1.135-1.653.38-2.138-.972-2.72-1.976-1.2-2.067-2.477-4.088-3.671-6.158-2.163-3.305-5.16-5.93-7.445-9.132-.83-1.162-1.978-2.223-1.27-3.889z"/><path d="M409.38 253.842c1.45-.466 2 .748 2.717 1.529 1.2 1.306 2.63 2.388 3.824 3.647 2.458 2.59 4.024 1.522 6.083-.548q31.098-31.262 62.338-62.385c1.01-1.01 1.83-2.331 3.45-2.53v16.93a29.3 29.3 0 0 1-4.793 5.707q-25.228 25.175-50.414 50.39c-.884.885-1.74 1.801-2.682 2.624-2.808 2.451-4.57 2.23-7.21-.41-2.401-2.402-4.31-5.407-7.665-6.736-2.262-1.249-3.571-3.426-5.142-5.339a2.46 2.46 0 0 1-.505-2.88z" class="cls-12"/><path fill="#3d4f4c" d="M415.633 261.42c2.306-.2 2.948 1.952 4.177 3.13 7.568 7.25 5.574 7.357 12.963-.005q25.82-25.727 51.567-51.528c1.012-1.01 1.832-2.333 3.453-2.531v16.93c-1.622.2-2.442 1.523-3.453 2.533q-23.588 23.546-47.11 47.16c-2.147 2.167-3.576 2.84-6.097.321-1.733-1.731-3.138-3.901-5.368-5.149-.452-.253-.811-.708-1.353-.206-1.476.422-2.324-.568-3.11-1.495a41.196 41.196 0 0 1-4.4-5.536c-.875-1.05-1.988-2.017-1.27-3.624z"/><path fill="#fefefe" d="M434.493 488.275c3.448-.828 6.968-1.434 10.333-2.519 22.788-7.345 36.8-22.689 41.829-46.17.242-1.131.077-2.476 1.138-3.357 0 16.722-.025 33.443.04 50.165.007 1.568-.353 1.928-1.921 1.922-17.14-.065-34.28-.04-51.42-.04z"/><path fill="#485a57" d="M57.629 486.934a51.98 51.98 0 0 1-23.191-9.982c-2.948-4.347-2.935-4.855.852-8.647q31.664-31.71 63.358-63.39a11.682 11.682 0 0 0 3.09-3.814c-3.424.276-6.51-.365-9.655-.615-7.807-.621-15.577-1.477-22.675-5.258-1.14-.607-2.445-.865-1.583-2.592 3.847-.756 7.043 1.404 10.49 2.389a58.232 58.232 0 0 0 21.887 1.677 60.286 60.286 0 0 0 18.23-5.14 50.238 50.238 0 0 0 18.532-13.559c.608-.718 1.296-1.361 1.867-2.106 1.03-1.285 2.462-2.233 3.188-3.777a4.013 4.013 0 0 1 .574-.692c5.126-5.346 9.779-11.108 14.644-16.684 4.592-5.263 9.207-10.51 13.682-15.873 7.334-8.79 15.056-17.244 22.463-25.972 5.733-6.755 11.72-13.304 17.323-20.163 4.933-6.038 10.003-11.958 15.072-17.874 4.604-5.374 9.27-10.7 13.925-16.032 2.052-2.35 4.13-4.68 6.063-7.133 1.718-2.181 3.48-2.519 5.29-.714a94.599 94.599 0 0 1 9.619 11.913 1.853 1.853 0 0 1 .122 1.517 18.924 18.924 0 0 0 4.815 7.578c1.923 2.046 1.87 3.791-.143 5.63-.693.633-1.333 1.324-1.998 1.99Q162.21 380.87 60.95 482.134c-1.395 1.395-3.001 2.654-3.32 4.799z"/><path d="M260.796 264.413c-3.463-3.893-6.207-8.364-9.866-12.11-1.818-1.86-2.923-1.862-4.698.279-5.913 7.13-12.133 14.006-18.148 21.054-5.8 6.794-11.453 13.71-17.24 20.515-6.068 7.137-12.217 14.206-18.334 21.302q-6.934 8.042-13.877 16.077-9.156 10.58-18.324 21.15-6.938 8.037-13.816 16.125a16.938 16.938 0 0 1-3.585 3.463 1.7 1.7 0 0 1-1.106-1.393c.007-2.08 1.432-3.39 2.65-4.802q29.108-33.76 58.289-67.46c14.465-16.715 28.794-33.55 43.44-50.11a6.376 6.376 0 0 1 2.357-2.004 2.405 2.405 0 0 1 .929-.075 4.457 4.457 0 0 1 1.923 1.227c2.347 2.506 4.006 5.567 6.423 8.02a11.63 11.63 0 0 1 3.17 4.632c-.135 1.687 2.416 2.78 1.067 4.737z" class="cls-17"/><path fill="#3f4f4d" d="M262.05 265.04c.23-1.855-2.848-2.231-1.96-4.38 2.955.376 3.918 3.163 5.72 4.884a38.882 38.882 0 0 1 3.78 4.518c3.48 3.091 5.46 7.441 8.904 10.562 2.028 2.234 3.484 4.928 5.677 7.03 3.305 3.205 5.51 7.301 8.64 10.648a17.507 17.507 0 0 1 4.455 5.863 7.079 7.079 0 0 0 2.013 4.016c.728.753 1.378 1.59.396 2.634l-.002.002c-1.95-.978-2.732-3.12-4.39-4.39-.85-1.417-2.281-2.349-3.134-3.763-6.054-7.53-11.446-15.595-18.184-22.575a126.32 126.32 0 0 0-10.032-12.541c-.576-.875-1.305-1.634-1.883-2.508z"/><path d="M262.05 265.04a3.238 3.238 0 0 1 1.883 2.508 3.228 3.228 0 0 1-1.883-2.508z" class="cls-17"/><path d="M292.149 302.664c1.352.998 2.776 1.937 3.135 3.763-1.352-1-2.776-1.937-3.135-3.763z" class="cls-3"/><path d="M464.17 22.29c5.887 4.206 10.86 9.234 14.18 15.75-2.171-2.428-3.79-1.589-5.855.481q-63.167 63.335-126.46 126.543c-3.62 3.62-4.99 3.522-8.18-.437-1.133-1.406-2.28-2.888-4.355-2.948-2.088.426-2.764-1.376-3.9-2.457-3.225-3.739-6.296-7.605-9.372-11.469-1.055-1.633-2.772-2.69-3.783-4.363a4.22 4.22 0 0 1-.936-3.12c1.064-1.668 2.158-.624 3.128.056 1.283.9 2.26 2.164 3.45 3.183 2.584 2.215 3.706 2.189 6.145-.121.986-.934 1.93-1.91 2.89-2.869Q390.386 81.27 449.639 22.012c5.566-5.565 5.56-5.551 12.174-1.219.777.51 1.387 1.295 2.36 1.496z" class="cls-19"/><path fill="#72c1a1" d="M277.695 281.461l-8.822-10.734c-.644-2.314-2.505-3.797-3.933-5.537-2.868-3.497-2.985-4.04.193-7.233 12.073-12.131 24.39-24.026 36.24-36.372 13.224-13.778 26.777-27.224 40.266-40.735 1.242-1.244 2.274-3.197 4.638-2.442 2.172.928 2.993 3.263 4.78 4.591 2.28 3.866 5.8 6.762 8.218 10.519.21.515-.12.945-.504.847-3.01-.76-4.566 1.357-6.31 3.1q-36.387 36.369-72.76 72.755c-.662.664-1.292 1.363-1.971 2.007-1.771 1.679-2.252 3.342-.445 5.399.92 1.048 1.895 2.39.41 3.835z"/><path d="M346.277 178.408c-.947.808-1.953 1.557-2.832 2.433-9.672 9.644-19.527 19.115-28.938 29.008-16.093 16.92-32.812 33.213-49.291 49.746-1.71 1.715-1.846 2.988-.337 4.707 1.234 1.405 2.382 2.887 3.58 4.325.526.632 1.296 1.198.414 2.1l-8.783-10.068c-.615-1.757-2.16-2.85-3.114-4.366a1.653 1.653 0 0 0-.14-.916c-2.453-4-2.465-4.212.873-7.563 11.63-11.676 23.208-23.408 34.974-34.946 13.33-13.072 25.945-26.844 39.25-39.937 5.374-5.287 5.338-5.324 10.287.195.278.31.472.687.78.974l-.027-.037c.775 1.498 2.267 2.408 3.137 3.828a2.38 2.38 0 0 1 .167.517z" class="cls-21"/><path d="M343 174.1a10.275 10.275 0 0 1-3.578-3.435c-1.006-1.57-2.037-1.27-3.043-.262q-10.17 10.183-20.263 20.44c-1.02 1.035-1.874 2.235-2.9 3.262q-27.094 27.129-54.227 54.217c-2.102 2.097-4.555 3.966-1.664 7.177.08.088-.224.522-.35.794-2.207-2.654-4.688-5.088-6.462-8.09a2.96 2.96 0 0 1 1.5-2.079 3.787 3.787 0 0 0 2.999-3.092 2.447 2.447 0 0 1 .498-.704 42.16 42.16 0 0 0 10.716-12.693c3.683-5.391 8.188-10.088 12.59-14.87a5.539 5.539 0 0 0 2.667-3.235c4.76-6.218 10.279-11.792 15.156-17.91a55.868 55.868 0 0 0 12.76-35.456c.009-1.669-.092-3.34.068-5.012.013-.137 1.277-.97-.223-.84-1.524-.726-.996-2.222-1.33-3.389a66.788 66.788 0 0 1-1.267-7.934c-.925-3.415-3.292-6.496-2.413-10.334 1.862-1.412 2.314.366 2.93 1.4 2.425 4.067 3.423 8.636 4.382 13.196a15.494 15.494 0 0 1 .58 3.357c1.835 8.48-.666 16.861-.648 25.838 3.563-3.417 6.714-6.683 9.94-9.87 1.48-1.462 2.917-2.967 4.446-4.378 1.266-1.168 2.652-2.02 4.487-1.622l3.149 3.102c2.272 3.694 5.443 6.674 8.043 10.108A5.338 5.338 0 0 1 343 174.1z" class="cls-22"/><path d="M346.11 177.891c-1.372-1.009-2.85-1.93-3.137-3.828 1.345 1.031 2.672 2.076 3.137 3.828z" class="cls-22"/><path d="M331.655 350.32l-.002-.625c-.702-1.152-1.803-1.985-2.508-3.135l-3.134-3.764c-.368-.888-1.73-1.69-.242-2.743a2.854 2.854 0 0 1 2.06.943c2.376 2.749 4.655 5.585 7.16 8.224 6.46 7.476 12.282 15.468 18.667 23.005a4.142 4.142 0 0 1 1.654 3.084 1.592 1.592 0 0 1-1.083 1.35c-2.484-1.279-3.24-4.285-5.642-5.645-5.453-7.054-10.506-14.435-16.93-20.695z" class="cls-23"/><path fill="#334341" d="M354.227 376.66l.45-1.245c1.73-.117 2.127 1.434 3.004 2.39a24.633 24.633 0 0 0 3.405 3.223c2.82 2.178 5.145 4.947 8.197 6.846 2.89 1.984 6.23 3.265 8.885 5.627 1.654 2.25 4.266 2.727 6.674 3.501 1.364.439 2.722.912 4.105 1.3 1.164.327 2.176.8 1.683 2.337a1.118 1.118 0 0 1-1.286-.153c-5.73-1.714-11.526-3.259-16.445-6.918a6.187 6.187 0 0 0-1.74-.607 77.603 77.603 0 0 1-11.914-10.033c-1.017-1.666-2.744-2.724-3.762-4.39z"/><path d="M355.483 378.539c1.534 1.223 3.247 2.293 3.762 4.39-1.534-1.224-3.247-2.294-3.762-4.39z" class="cls-23"/><path d="M325.818 340.3c-.564.88.2 1.658.193 2.496-2.65-2.188-3.92-5.637-6.897-7.525a306.58 306.58 0 0 0-19.44-24.456c-.13-1.498-1.568-2.137-2.167-3.3-.472-.917-1.862-1.566-1.056-2.95 2.112-.522 2.936 1.2 3.753 2.453a35.276 35.276 0 0 0 3.482 4.285c3.453 3.536 6.109 7.721 9.328 11.448 3.466 3.13 5.359 7.557 8.823 10.69 1.88 1.482 2.712 3.763 4.207 5.543a.859.859 0 0 1-.226 1.315z" class="cls-25"/><path fill="#6bbb9a" d="M302.909 312.026l-6.458-7.462-4.367-5.623a4.966 4.966 0 0 0-1.798-2.854c-1.657-1.68-1.482-3.303.035-4.943.355-.384.708-.769 1.07-1.145 24.976-25.846 50.499-51.148 75.94-76.531 1.555-1.55 3.02-3.742 5.842-2.405 2.468.987 3.3 3.545 5.03 5.244.803.79 1.544 1.644 2.313 2.47l5.013 6.854c.31 1.041-.517 1.472-1.092 2.04-25.97 25.706-51.694 51.656-77.567 77.458-1.74 1.735-3.945 3.245-3.081 6.297.102.36-.38.688-.88.6z"/><path fill="#6ebe9d" d="M373.174 211.063a7.458 7.458 0 0 0-4.204 2.54c-20.164 20.181-40.464 40.228-60.43 60.602-5.62 5.735-11.16 11.567-16.852 17.236-1.867 1.858-2.274 3.308-.272 5.188.622.583 1.657 1.198.668 2.312q-4.392-5.33-8.783-10.662a1.946 1.946 0 0 0-.273-1.197c-2.582-3.828-2.591-4.286.666-7.558q21.33-21.428 42.746-42.771 16.172-16.173 32.348-32.343a22.134 22.134 0 0 1 2.755-2.552c1.776-1.253 3.4-1.546 4.736.682.807 1.345 2.129 2.28 3.093 3.513l-.018-.042c.677 1.569 2.249 2.421 3.09 3.859l.73 1.193z"/><path d="M369.372 206.053a10.175 10.175 0 0 1-3.446-3.13c-1.246-1.563-2.405-1.36-3.671-.132-.6.581-1.19 1.172-1.78 1.763q-37.865 37.863-75.75 75.706c-2.15 2.143-4.16 4.044-1.126 6.94.128.122-.188.709-.298 1.08l-5.606-6.819a3.729 3.729 0 0 0-1.532-3.262c-2.4-2.212-1.912-4.341.173-6.43.443-.444.883-.89 1.326-1.334q37.57-37.57 75.113-75.164c1.93-1.938 3.7-3.495 6.5-1.753l6.212 7.022c.934 2.092 3.08 3.33 3.885 5.513z" class="cls-28"/><path d="M372.443 209.87c-1.356-1.025-2.892-1.905-3.09-3.858a7.634 7.634 0 0 1 3.09 3.858z" class="cls-28"/><path fill="#5aa989" d="M377.41 394.228c-2.845-2.017-6.264-3.138-8.811-5.623-2.234-2.344-2.254-3.168-.1-5.697.744-.875 1.58-1.664 2.393-2.475q36.193-36.2 72.392-72.392c.81-.812 1.6-1.65 2.475-2.394 2.537-2.16 3.36-2.139 5.69.11 2.533 2.51 3.6 5.957 5.627 8.79 1.716 4.929 4.138 9.647 4.45 14.992.165 1.683-1.058 2.6-2.056 3.598q-31.907 31.897-63.812 63.798c-1.005 1.005-1.903 2.253-3.465 2.55-5.111-1.24-10.404-1.962-14.782-5.257z"/><path fill="#57a686" d="M392.369 398.655c6.087-6.171 12.144-12.372 18.266-18.508q23.137-23.19 46.328-46.326c1.475-1.473 3.04-2.857 4.563-4.282l1.139 4.58c1.592 8.158.537 16.11-1.808 23.976a62.59 62.59 0 0 1-6.67 15.089c-6.123 8.857-13.717 16.134-23.33 21.082a60.284 60.284 0 0 1-32.535 6.396c-1.918-.14-4.694.712-5.953-2.007z"/><path d="M389.344 400.486l1.255-.001c.885-1.224 2.1-.71 3.165-.497 8.54 1.714 16.977.891 25.286-1.27 12.836-3.34 23.113-10.66 31.422-20.874.724-.89 1.332-1.873 2.106-2.724a63.747 63.747 0 0 0 5.105-8.403c.442-.774.337-2.219 1.892-1.974-.445 5.915-3.955 10.455-7.23 14.908a48.572 48.572 0 0 1-19.168 16.027 79.588 79.588 0 0 1-17.973 6.036 3.616 3.616 0 0 0-2.031.653c-6.697.1-13.4.444-20.065-.608a7.563 7.563 0 0 1-3.764-1.273z" class="cls-5"/><path fill="#334442" d="M459.575 364.743c-1.89 3.672-3.433 7.547-6.27 10.66-.971-.832.203-1.68-.02-2.519 4.797-8.157 8.152-16.803 9.153-26.298.44-4.16.152-8.313.227-12.468l.134-1.703c2.086 7.094 1.533 17.43-1.348 26.394-.635 1.975-1.25 3.956-1.876 5.934z"/><path fill="#69b898" d="M302.909 312.026c.29-.359.428-.844.104-1.137-1.922-1.748-.844-2.945.564-4.329 5.51-5.416 10.948-10.908 16.412-16.372q30.79-30.792 61.568-61.596a14.292 14.292 0 0 1 3.972-2.961c3.614 3.14 5.946 7.413 9.42 10.678l2.445 3.645a1.168 1.168 0 0 1-1.405.399c-2.738-1.535-4.385.072-6.171 1.862q-36.816 36.9-73.7 73.733c-1.705 1.706-3.562 3.288-2.77 6.166.16.579-.03 1.561-1.186 1.282z"/><path d="M464.17 22.29c-2.406-.3-4.025-2.123-5.98-3.25-1.708-.984-2.888-.798-4.16.431-.75.726-1.488 1.464-2.226 2.202l-122.23 122.228c-3.9 3.9-4.963 3.83-9.002.083-1.421-1.318-2.24-3.517-4.63-3.624-1.66.427-2.404-.836-3.301-1.8-4.082-4.384-7.267-9.488-11.225-13.976-.752-.853-1.482-1.718-2.31-2.497-2.57-3.782-6.37-6.549-8.715-10.522a2.275 2.275 0 0 1 .037-.9c1.087-1.75 2.329-.887 3.435-.101a17.901 17.901 0 0 1 3.686 3.815c2.869 3.73 6.23 7.02 9.34 10.533 1.077 1.217 2.007 1.297 3.163.23 1.075-.992 2.105-2.027 3.138-3.06q53.809-53.79 107.62-107.578c1.512-1.51 2.84-3.31 5.014-4.03a45.17 45.17 0 0 1 6.848.178 42.475 42.475 0 0 1 8.76 1.034 49.806 49.806 0 0 1 22.74 10.603z" class="cls-33"/><path d="M9.91 433.206c-.79-1.685-.54-3.491-.54-5.247q-.002-178.827.05-357.654c.017-30.286 21.029-54.937 50.693-59.678a67.68 67.68 0 0 1 10.616-.717q177.887-.075 355.774-.058c2.07 0 4.182-.256 6.203.491l-.485.368c-14.23 1.013-28.48.636-42.724.67-4.372.01-8.747-.142-13.034.967a33.27 33.27 0 0 1-6.054-.086 140.517 140.517 0 0 1-15.658.024c-12.506.284-25.012.32-37.518.029-12.01.317-24.02.097-36.03.164a56.864 56.864 0 0 1-5.948-.21c-11.918.347-23.837.31-35.756.046-9.734.287-19.47.128-29.206.148a15.98 15.98 0 0 1-3.407-.148c-9.724.287-19.45.127-29.175.148a16.177 16.177 0 0 1-3.404-.15c-7.948.16-15.895.34-23.842-.002-7.294.153-14.588.345-21.88.001-7.047.184-14.095.247-21.138.083q-12.036-.042-24.083.056a3.655 3.655 0 0 0-2.696 1.32C59.15 35.962 37.122 57.643 15.16 79.39a9.657 9.657 0 0 0-3.298 7.835c.176 6.877.056 13.761.04 20.648.15 7.05.149 14.094-.081 21.137.333 7.294.198 14.587-.004 21.88.34 7.947.206 15.895.006 23.842.302 10.86.253 21.72-.003 32.58.31 10.87.252 21.742 0 32.612.267 11.92.327 23.84-.037 35.758.299 13.583.44 27.166-.065 40.748a6.813 6.813 0 0 0 .102 1.24c.243 12.451.378 24.904-.073 37.354a10.24 10.24 0 0 0 .08 1.55 212.83 212.83 0 0 1-.643 29.37c-.292 3.026-.258 6.041-.265 9.062-.025 11.377.008 22.753-.031 34.129-.005 1.402.425 2.976-.978 4.07z" class="cls-34"/><path d="M67.662 392.96c4.27 3.04 9.25 4.21 14.265 4.945 6.556.962 13.114 2.359 19.826 1.506a1.927 1.927 0 0 1 1.894.9c.484.764.026 1.398-.49 1.95-.642.686-1.31 1.348-1.975 2.013q-32.142 32.144-64.34 64.23c-2.593 2.569-4.45 4.81-2.404 8.448a50.962 50.962 0 0 1-16.41-17.902c-.185-.899-.91-1.579-1.018-2.507.137-2.888 2.135-4.65 3.972-6.49q23.763-23.796 47.553-47.565c.59-.59 1.152-1.212 1.77-1.768 1.615-1.447 1.428-2.598-.472-3.585a60.138 60.138 0 0 1-8.453-5.335c-1.074-.809-2.645-1.573-1.81-3.473 3.446-.291 5.6 2.248 8.229 3.753a.766.766 0 0 1-.137.879z" class="cls-19"/><path d="M17.493 456.295l.536 2.756a50.615 50.615 0 0 1-8.117-25.845q.038-21.435.07-42.869c0-11.253 1.036-22.486.61-33.746 3.188-4.963 7.744-8.675 11.896-12.722 3.81-3.714 7.18-7.448 7.633-13.098.11-1.383.63-3.33 2.975-2.098 1.083 3.02-.383 5.95-.335 8.96a91.722 91.722 0 0 0 1.448 14.214 86.5 86.5 0 0 0 1.739 9.406c.74 2.562-.43 4.632-2.234 6.449-6.462 6.514-12.917 13.037-19.493 19.435a7.098 7.098 0 0 0-2.296 5.514c-.014 10.944.174 21.89-.112 32.831a70.342 70.342 0 0 0 5.367 27.726 8.383 8.383 0 0 1 .313 3.087z" class="cls-35"/><path d="M441.432 11.686l-8.81-.613q-.255-.075-.242-.248.014-.196.08-.196l.245-.285a21.92 21.92 0 0 1 8.727 1.342z" class="cls-34"/><path fill="#64b393" d="M334.133 349.78a32.48 32.48 0 0 1-6.951-8.189c-.154-1.61-1.468-2.479-2.37-3.58a3.332 3.332 0 0 1-.053-4.712l.067-.066q.907-1.077 1.909-2.07 37.74-37.744 75.484-75.487.777-.772 1.594-1.503c1.554-1.398 3.178-1.977 5.005-.48q.283.07.563.148a37.9 37.9 0 0 0 6.252 7.579l1.957 2.959c.384 1.15-.476 1.697-1.137 2.34-24.976 24.298-49.38 49.17-74.02 73.807-2.92 2.92-5.522 6.178-8.3 9.254z"/><path fill="#65b595" d="M408.819 253.692c-2.068-.516-3.402.566-4.776 1.942q-38.685 38.761-77.47 77.422c-2.208 2.196-2.343 3.87-.25 6.006.636.647 1.953 1.228.859 2.53l-1.364-1.293-4.881-6.25c-.126-1.865-1.664-2.839-2.734-4.026-1.62-1.798-1.44-3.289.156-4.864.297-.293.57-.608.864-.905 24.975-25.293 49.804-50.73 75.09-75.715.742-.733 1.547-1.4 2.3-2.117 1.922-1.832 3.87-2.206 5.957-.294a61.015 61.015 0 0 1 6.248 7.564z"/><path fill="#67b696" d="M402.569 246.128c-3.016-1.2-4.804.784-6.62 2.598q-18.263 18.235-36.492 36.504c-13.427 13.541-26.737 27.2-40.193 40.713-1.663 1.67-1.597 2.58-.117 4.294.823.954 2.83 1.817 1.79 3.813l-8.775-10.654c-1.811-4.898 1.92-7.224 4.667-9.972q35.98-36.007 71.982-71.992c3.856-3.857 3.856-3.856 8.584-1.478l5.175 6.174z"/><path d="M329.145 346.56c1.177.772 2.284 1.6 2.508 3.135-1.173-.776-2.28-1.604-2.508-3.135z" class="cls-25"/><path fill="#61b090" d="M334.133 349.78a4.506 4.506 0 0 1 1.168-3.44c2.884-3.009 5.606-6.177 8.548-9.127q33.31-33.386 66.68-66.713c2.209-2.21 4.334-4.51 7.06-6.121l6.823 7.695c2.095 3.623 5.37 6.329 7.63 9.824.252.748-.326 1.057-.786.924-2.653-.773-4.046 1.052-5.582 2.588q-37.107 37.087-74.195 74.192c-.59.59-1.14 1.224-1.742 1.8-1.312 1.255-1.242 2.469-.13 3.839 1.314 1.618 2.92 3.036 3.843 4.924.44.9 1.724 2.257-.525 2.77q-9.2-11.005-18.386-22.02a3.604 3.604 0 0 1-.406-1.135z"/><path fill="#5dac8c" d="M451.449 305.757c-2.33-1.783-3.817-.257-5.374 1.3q-38.07 38.101-76.173 76.17c-1.568 1.566-3.037 3.057-1.303 5.378a34.64 34.64 0 0 1-8.147-6.903c-.412-1.773-2.073-2.534-3.097-3.812-2.076-2.588-2.103-3.716-.04-6.3a22.499 22.499 0 0 1 1.695-1.84q37.592-37.607 75.196-75.201.777-.77 1.592-1.502c1.553-1.407 3.18-1.948 5.01-.495l1.16.84 9.48 12.365z"/><path fill="#5eae8e" d="M440.809 292.552c-2.046-.451-3.4.566-4.78 1.95q-38.272 38.358-76.606 76.653c-3.633 3.634-3.596 4.062-.12 7.801.669.718 2.228 1.233 1.149 2.746-2.453-1.611-3.97-4.081-5.775-6.287l-1.752-2.48a1.084 1.084 0 0 0-.027-1.649c-1.065-1.282-2.085-2.603-3.19-3.848-3.435-3.865-3.43-4.463.285-8.178q37.674-37.676 75.339-75.36c1.914-1.916 3.66-4.047 6.709-2.002z"/><path fill="#425351" d="M67.662 392.96l-.004-.623c-1.016-.713-.894-1.302.192-1.792 2.236-.257 4.24.693 6.27 1.341a66.268 66.268 0 0 0 10.514 2.396c4.734 1.276 9.573.699 14.28.27a56.706 56.706 0 0 0 30.05-12.191 75.83 75.83 0 0 0 9.574-9.449c.98-1.092 1.84-2.338 3.606-1.942l.764 1.298c-.856 1.412-2.28 2.35-3.136 3.763-9.515 12.61-22.664 18.826-37.848 21.317a54.067 54.067 0 0 1-29.11-3.146 36.65 36.65 0 0 0-5.152-1.242z"/><path d="M139.772 376.03c.36-1.825 1.784-2.764 3.136-3.762-.36 1.826-1.784 2.764-3.136 3.763z" class="cls-17"/><path fill="#46adad" d="M142.144 370.97c-2.767 2.958-5.396 6.061-8.324 8.85-13.42 12.78-29.567 17.637-47.826 16.157a6.506 6.506 0 0 1-1.464-.481 55.325 55.325 0 0 1 5.849-6.043q71.557-71.63 143.17-143.205c5.073-5.073 5.11-5.406 1.21-11.635q-1.575-2.525-3.22-5.006c-.8-1.2-1.682-2.59.194-3.737a2.207 2.207 0 0 1 1.328.254 48.313 48.313 0 0 1 6.767 7.572c2.81 3.081 5.34 6.4 8.027 9.585.837.993 1.856 2.09 1.046 3.629-7.792 9.117-15.551 18.262-23.384 27.345q-29.127 33.775-58.303 67.508-12.572 14.57-25.07 29.207z"/><path fill="#52cac2" d="M248.9 246.91c-2.921-4.54-6.89-8.244-10.032-12.608-.253-2.75 1.596-4.374 3.285-6.064q23.358-23.361 46.72-46.719c5.094-5.09 10.133-10.238 15.31-15.245 1.23-1.191 2.495-3.152 4.705-1.366.229 4.487-1.5 8.522-2.912 12.627-2.556 7.077-6.863 13.036-11.742 18.674q-9.287 10.732-18.515 21.518c-4.318 5.058-8.646 10.12-13.082 15.081-3.745 4.188-7.335 8.508-11.043 12.726-.486.552-.894 1.163-1.682 1.31l-.45.047q-.28.003-.561.019z"/><path fill="#70bc9e" d="M305.297 177.808c.812-4.424 3.088-8.495 3.159-13.099a15.473 15.473 0 0 1 1.238-12.52l.134-1.964c1.367 6.614-.152 19.366-2.29 25.805-3.482 10.49-10.124 18.795-17.39 26.778-2.8 3.075-5.362 6.365-8.033 9.557-.703 1.152-1.804 1.986-2.51 3.136a162.797 162.797 0 0 0-12.54 14.422 112.671 112.671 0 0 1-11.286 13.17 14.354 14.354 0 0 1-3.137 3.76l-2.128 1.35q-.526-.655-1.051-1.312l.048-.07c3.609-2.858 6.157-6.686 9.18-10.077 7.748-8.69 15.318-17.54 22.86-26.408 6.39-7.51 13.424-14.506 18.82-22.835a47.966 47.966 0 0 0 4.926-9.693z"/><path fill="#79c8a8" d="M330.35 158.576c-6.315 4.187-10.807 10.32-16.373 15.305-1.17 1.047-2.18 3.46-3.703 2.656-1.464-.772-.087-3.01-.048-4.608.186-7.634 2.275-15.21.735-22.896 1.096-.764 2.48-1.037 3.486-1.93 2.215-1.965 4.382-1.9 6.57.007a99.663 99.663 0 0 1 9.334 11.466z"/><path fill="#7bcaaa" d="M321.017 147.11c-2.39-.707-4.525-.716-6.348 1.468a2.734 2.734 0 0 1-3.708.455c-1.162-5.287-2.088-10.648-4.481-15.573-.452-.93-.303-2.356-1.8-2.583a.904.904 0 0 1-.87.122 20.877 20.877 0 0 1-4.77-8.412 1.59 1.59 0 0 1 .635-1.24c5.11 5.258 9.403 11.208 14.19 16.74.672.775 1.384 1.516 2.077 2.273 1.317 2.532 3.345 4.53 5.075 6.75z"/><path d="M309.694 152.188a60.44 60.44 0 0 1-1.238 12.521c-1.392.136-2.146 1.213-3.02 2.086q-31.673 31.656-63.36 63.302c-1.281 1.278-2.053 2.871-3.21 4.205l-6.3-7.483c-1.076-1.525-.771-2.926.359-4.274.673-.802 1.407-1.543 2.146-2.28q34.563-34.56 69.145-69.1c1.312-1.309 2.354-3.378 4.836-2.75.154 1.268-.261 2.633.642 3.773z" class="cls-48"/><path d="M309.052 148.415c-.858.76-1.758 1.476-2.567 2.285q-35.702 35.679-71.391 71.371c-1.335 1.334-2.843 2.548-2.527 4.748l-.642-.631c-2.914-.725-4.073-3.358-5.78-5.374a16.413 16.413 0 0 1-2.571-3.86c-.56-2.917.964-4.958 2.863-6.86q8.26-8.273 16.524-16.541c2.088-2.1 4.557-3.961 4.713-7.314 1.229-.833 2.624-.456 3.95-.513 5.775-.246 10.834-2.753 15.846-5.211 4.656-2.283 5.937-7.177 8.072-11.411 1.457-2.891 1.417-6.232 3.067-9.017 1.802.843 1.802.843 2.105 4.529a7.51 7.51 0 0 0 2.88-2.299c6.592-6.544 13.114-13.16 19.744-19.667 1.16-1.137 2.244-3.006 4.442-1.765l1.272 7.53z" class="cls-49"/><path d="M307.779 140.885c-1.38.157-2.122 1.239-2.993 2.107q-10.607 10.578-21.193 21.18c-.59.588-1.158 1.202-1.796 1.732-.628.52-1.33 1.233-2.2.827-.937-.438-.53-1.456-.593-2.245-.11-1.387 1.225-2.782-.023-4.165-1.856-3.098-1.311-6.632-1.818-9.971.147-.382.31-.96.737-.89 3.096.5 4.637-1.758 6.438-3.547 4.867-4.832 9.644-9.756 14.59-14.506 1.467-1.408 3.143-3.174 5.16-.563q.297.007.593.032l3.099 10.009z" class="cls-50"/><path d="M255.779 243.093c.628-2.633 3.123-3.814 4.596-5.806a91.231 91.231 0 0 1 6.69-7.364c.158 2.475-1.984 3.607-3.277 5.066-2.511 2.833-4.29 6.455-8.01 8.104zm-3.137 3.761c.364-1.822 1.784-2.764 3.137-3.761a3.709 3.709 0 0 1-3.137 3.76zm26.963-31.353c.232-1.53 1.336-2.36 2.51-3.136-.225 1.535-1.331 2.365-2.51 3.136z" class="cls-21"/><path fill="#30403e" d="M453.285 372.884c.85.834.005 1.68.02 2.52-7.903 10.686-17.677 19.129-30.44 23.222-9.328 2.991-19.022 4.41-28.877 2.261a34.019 34.019 0 0 0-3.39-.402c-1.648-1.892-4.192-1.56-6.214-2.51-2.39-1.121-5.473-.97-6.973-3.747a44.606 44.606 0 0 0 14.959 4.427c11.336 2.603 22.312 1.093 32.998-3.069 11.72-4.564 20.738-12.518 27.917-22.702z"/><path d="M425.09 11.085c-.144 1.389-1.221 2.143-2.095 3.017q-55.726 55.743-111.466 111.471c-2.926 2.925-3.182 2.65-6.08-.338-4.145-4.274-7.701-9.051-11.87-13.284-.675-.685-1.247-2.247-2.738-1.048-1.65.472-2.585-1.044-3.938-1.407a20.024 20.024 0 0 0-2.201-2.12 2.027 2.027 0 0 1-.496-1.695c1.123-1.946 2.51-.852 3.753-.242 4.06 1.994 4.703 2.01 7.68-.964q45.743-45.708 91.413-91.49c1.213-1.223 2.393-2.34 4.274-2.22q15.36.001 30.704.015c1.02.003 2.09-.28 3.06.305z" class="cls-52"/><path d="M299.675 121.347l.014 1.351a1.743 1.743 0 0 1-2.21-.647c-1.7-2.041-3.103-1.342-4.653.216q-7.041 7.078-14.125 14.116c-3.405 3.362-3.674 3.26-7.87.906a14.179 14.179 0 0 0-4.86-1.935c-2.62-2.035-6.398-2.101-8.52-4.993.216-2.488 2.208-2.653 3.893-2.527 2.687.2 4.48-.95 6.244-2.758 4.862-4.991 9.819-9.892 14.758-14.808.942-.938 1.743-2.111 3.227-2.311.879-.004 1.078.99 1.795 1.225 1.64.044 2.31 1.632 3.589 2.254 3.563 2.726 5.922 6.51 8.718 9.911z" class="cls-53"/><path d="M425.09 11.085l-35.117-.001c-4.604 1.862-9.207 2.401-13.808-.01a3.036 3.036 0 0 1 2.048-.595l54.247.148a1.51 1.51 0 0 1 .16.446z" class="cls-35"/><path fill="#85d6c6" d="M290.957 111.436c-1.565-.072-2.28-1.811-3.813-1.945q-.275-.256-.163-.487.109-.224.209-.224c1.676-.082 2.4 1.475 3.65 2.123a2.647 2.647 0 0 0 .117.533z"/><path fill="#566866" d="M275.219 11.082l42.013-.003c1.043 1.357.094 2.353-.66 3.327a32.442 32.442 0 0 1-2.821 2.937q-38.342 38.351-76.676 76.71a19.321 19.321 0 0 1-7.537 4.763 58.112 58.112 0 0 0-27.694 20.071c-5.465 5.315-10.106 11.37-15.145 17.062-4.688 5.295-9.287 10.68-13.85 16.092q-11.072 13.132-22.715 25.763c-7.54 8.192-14.43 16.927-22.222 24.933-36.956 37.966-74.894 74.948-112.194 112.567-1.326 1.336-2.445 3.693-5.12 2.41l.002-42.013c1.437-1.655 2.952-3.234 4.503-4.785q128.56-128.543 257.088-257.12c.964-.966 2.12-1.698 3.028-2.714z"/><path fill="#596a68" d="M275.219 11.082c.127 2.11-1.552 3.094-2.77 4.313Q194.01 93.871 115.546 172.319q-50.42 50.42-100.848 100.834c-1.156 1.154-2.12 2.686-4.098 2.548v-35.742a29.389 29.389 0 0 1 4.81-5.72Q124.606 125.086 233.758 15.893a29.401 29.401 0 0 1 5.72-4.81z"/><path fill="#5b6c6a" d="M239.477 11.083c-.14 1.39-1.218 2.144-2.091 3.018Q125.51 125.99 13.62 237.865c-.874.874-1.628 1.953-3.02 2.094v-32.607a29.312 29.312 0 0 1 4.81-5.72q92.89-92.849 185.74-185.74a29.307 29.307 0 0 1 5.719-4.808z"/><path fill="#5c6e6b" d="M206.869 11.084c-.14 1.39-1.218 2.143-2.09 3.016q-95.573 95.587-191.16 191.16c-.873.873-1.626 1.952-3.017 2.093v-32.608a29.312 29.312 0 0 1 4.808-5.718Q91.998 92.48 168.544 15.892a29.315 29.315 0 0 1 5.718-4.808z"/><path fill="#5e6f6d" d="M174.262 11.084c-.14 1.39-1.218 2.143-2.09 3.016Q92.902 93.384 13.619 172.653c-.874.873-1.627 1.95-3.017 2.091v-23.829c1.19-2.012 3.089-3.355 4.7-4.967q65.09-65.074 130.164-130.163c1.612-1.612 2.955-3.511 4.968-4.701z"/><path d="M201.225 118.307a58.345 58.345 0 0 1 29.583-20.985c2.187-.704 3.4-2.278 4.854-3.731l29.89-29.892q24.578-24.578 49.146-49.165c1.01-1.011 2.335-1.832 2.534-3.455l37.624-.003c.889 1.037.317 1.954-.27 2.836a15.78 15.78 0 0 1-2.102 2.316q-38.548 38.561-77.092 77.126c-2.365 2.37-4.78 4.398-8.42 3.94a79.465 79.465 0 0 0-21.536-1.884c-1.66.075-3.332-.004-4.701 1.176-1.846 1.013-4.002 1.015-5.915 1.81-9.543 2.9-18.4 6.986-25.233 14.578-2.28 2.535-5.236 4.448-6.923 7.53-.508.545-1.06 1.047-1.554 1.609-.95.632-1.622 1.908-3.09 1.342-.75-1.267.352-1.852.979-2.596a13.127 13.127 0 0 0 2.226-2.552z" class="cls-60"/><path fill="#5f706e" d="M150.434 11.084a11.087 11.087 0 0 1-3.294 4.855L15.459 147.622a11.086 11.086 0 0 1-4.856 3.293v-21.947a29.266 29.266 0 0 1 4.803-5.712q53.707-53.662 107.37-107.37a29.266 29.266 0 0 1 5.712-4.802z"/><path fill="#60716f" d="M128.487 11.084c-.141 1.39-1.22 2.144-2.092 3.017Q70.015 70.497 13.619 126.877c-.873.873-1.627 1.95-3.017 2.091v-21.947a28.114 28.114 0 0 1 3.825-4.109c29.912-29.938 59.93-59.77 89.715-89.836.747-.753 1.67-1.243 2.397-1.993z"/><path fill="#617270" d="M106.539 11.083a6.936 6.936 0 0 1-2.368 3.94q-44.824 44.806-89.63 89.63a6.936 6.936 0 0 1-3.94 2.368c0-7.617.033-15.233-.028-22.85-.015-1.895.167-3.435 2.174-4.366a10.262 10.262 0 0 0 2.556-2.269c20.59-20.578 41.348-40.992 61.59-61.906 3.583-3.7 6.844-4.807 11.494-4.612 6.04.254 12.1.064 18.152.065z"/><path d="M201.225 118.307c.042 2.371-3.285 2.776-3.064 5.252.044 1.976-1.443 3.187-2.551 4.4-6.061 6.638-11.795 13.552-17.598 20.408-6.353 7.227-12.87 14.314-18.812 21.894a241.505 241.505 0 0 0-15.82 18.376 92.735 92.735 0 0 1-6.26 7.312 11.714 11.714 0 0 0-2.673 3.783 2.903 2.903 0 0 1-.573.699c-.515.352-1.17.525-1.561 1.027-4.154 5.331-8.9 10.156-13.146 15.411-3.07 3.799-6.46 7.33-9.587 11.087-4.716 5.669-9.617 11.182-14.45 16.75-4.495 5.182-8.917 10.43-13.467 15.562-4.756 5.365-9.268 10.942-14.037 16.288-4.78 5.357-9.291 10.942-14.13 16.245-6.28 6.88-12.008 14.144-15.137 23.1a6.483 6.483 0 0 1-1.28 1.838c-2.043 2.253-1.984 5.284-2.893 7.95-.361 1.062-.32 2.253-1.642 2.684-2.05 1.44-1.297 3.817-1.762 5.733a13.55 13.55 0 0 1-3.706 7c-4.565 4.396-8.984 8.943-13.476 13.414-.871.867-1.62 1.939-3.006 2.071l.003-38.877c1.392-.137 2.146-1.215 3.02-2.088q54.507-54.491 108.938-109.06c4.548-4.577 9.395-8.926 13.585-13.762 4.414-5.094 8.638-10.384 13.142-15.426 4.784-5.357 9.59-10.698 14.3-16.119 7.443-8.563 14.67-17.317 22.267-25.74 5.153-5.713 9.618-12.043 15.376-17.212z" class="cls-60"/><path d="M240.285 95.822c.9-1.634 2.5-1.279 3.922-1.333a85.873 85.873 0 0 1 23.487 1.871 24.899 24.899 0 0 1 10.33 3.039 3.102 3.102 0 0 0 3.968-.717c.875-.894 1.793-1.748 2.679-2.634q40.074-40.085 80.15-80.168a30.054 30.054 0 0 1 5.71-4.806h5.634l13.808.01a27.02 27.02 0 0 1-4.352 5.306q-44.22 44.178-88.408 88.387c-4.38 4.38-5.183 4.484-10.463 1.38-.685-.403-1.315-1.198-2.167-.276-1.112.515-1.954-.1-2.873-.607a102.966 102.966 0 0 0-9.72-4.817 61.153 61.153 0 0 0-13.771-3.705c-5.028-.572-10.043-1.179-15.094-.137a2.68 2.68 0 0 1-2.84-.793z" class="cls-35"/><path d="M370.532 11.074c-.133 1.392-1.21 2.147-2.083 3.02q-42.517 42.534-85.01 85.093c-2.104 2.112-3.932 2.59-6.607 1.18-2.934-1.548-6.083-2.689-9.138-4.007a6.15 6.15 0 0 0 4.984-2.145q40.257-40.294 80.542-80.56a4.238 4.238 0 0 0 1.636-2.58l15.676-.001z" class="cls-35"/><path d="M17.493 456.295c-3.772-5.885-5.113-12.551-6.266-19.293a62.902 62.902 0 0 1-.624-11.432 18.024 18.024 0 0 1 3.248-4.164q16.505-16.436 32.947-32.935c2.994-3.002 2.903-3.094.404-6.436-1.31-1.753-3.29-3.374-2.282-6.052 2.273-.698 3.02 1.311 4.036 2.5 1.402 1.64 2.708 3.302 4.726 4.218 1.508 1.087 2.87 2.355 4.349 3.483.72.55 1.99.983 1.477 2.387 2.743 2.754 6.088 4.649 9.405 6.58.9.524 1.858.957 2.714 1.543 1.915 1.311 2.18 2.458.265 4.355-16.677 16.516-33.228 33.157-49.852 49.726a34.367 34.367 0 0 0-4.547 5.519z" class="cls-33"/><path d="M59.509 388.572q-3.136-2.508-6.27-5.017a15 15 0 0 1-2.95-2.682c-.66-.716-.83-1.423.21-1.982 2.957-.1 4.06 2.893 6.398 3.826 1.79 1.33 3.376 2.96 5.525 3.77 1.11.608 2.087 1.432 3.226 2.002 1.04.577 2.275.989 2.155 2.545-.535.38-.32.844-.145 1.303-3.053-.528-5.182-3.054-8.15-3.765z" class="cls-1"/><path d="M45.087 376.03a17.34 17.34 0 0 0 3.993 6.233c1.91 1.923 2.098 3.749-.055 5.88q-17.765 17.571-35.361 35.313a10.2 10.2 0 0 1-3.061 2.114c-.002-11.467.026-22.934-.032-34.4a5.598 5.598 0 0 1 2.059-4.51c7.077-6.773 13.945-13.765 20.862-20.706 1.635-1.64 1.697-3.594 1.22-5.803-1.75-8.116-3.145-16.29-2.78-24.646.106-2.382.403-4.756.612-7.133.724-2.894 1.37-5.81 2.217-8.668.268-.905.048-2.34 1.615-2.476 1.33 1.325.433 2.816.078 4.084a86.31 86.31 0 0 0-2.226 12.799c-.498 4.036.455 8.009.963 11.991a19.412 19.412 0 0 1 .264 2.01 47.56 47.56 0 0 1 1.069 5.194c-.172 4.726 1.553 8.934 3.667 13.004 1.198 2.305 2.76 4.402 4.13 6.61.575.927 1.547 1.822.766 3.11z" class="cls-52"/><path fill="#49b1b0" d="M67.803 391.034l-2.7-1.8c-.665-1.687.006-3.049 1.06-4.312 1.005-1.206 2.15-2.278 3.259-3.386q75.588-75.58 151.169-151.168c5.046-5.046 5.114-7.75.34-13.42a2.976 2.976 0 0 1-.57-.714c-.002-1.602-2.894-2.944-.443-4.775 3.184.338 3.32 3.267 4.506 5.304l7.5 9.424c-.99 1.13-.12 1.855.533 2.686a47.283 47.283 0 0 1 6.395 11.038 2.83 2.83 0 0 1-.447 3.183c-.734.879-1.56 1.684-2.37 2.495q-73.173 73.18-146.381 146.325c-1.457 1.454-2.373 3.896-5.124 3.582-5.868-.393-11.321-2.338-16.727-4.462z"/><path fill="#6ab497" d="M305.297 177.808c-1.202 6.033-4.647 10.993-8.397 15.518-9.367 11.303-19.166 22.248-28.767 33.359q-7.966 9.219-15.826 18.53c-.791.94-1.474 1.742-2.796 1.606 4.702-6.372 10.223-12.05 15.33-18.079 8.743-10.316 17.47-20.652 26.51-30.702a96.322 96.322 0 0 0 13.946-20.232z"/><path fill="#59d1c9" d="M266.429 134.654c2.263-.195 4.133 1.074 5.619 2.312 1.994 1.664 3.124 1.227 4.683-.375 4.5-4.624 9.102-9.146 13.665-13.709 4.762-4.762 4.762-4.762 9.293-.184a23.872 23.872 0 0 1 4.4 8.146c-1.76-1.097-2.854-.014-4.006 1.146-5.77 5.808-11.668 11.496-17.306 17.43-1.88 1.979-3.271 2.087-5.05.24-1.166-.179-1.457-1.043-1.594-2.027-1.243-2.377-1.908-5.156-4.557-6.554a4.992 4.992 0 0 1-1.39-1.073c-.748-2.135-3.626-2.783-3.757-5.352z"/><path d="M224.424 216.763c-1.885-1.302-2.83-3.435-4.413-5.001a20.693 20.693 0 0 1-8.05-9.296c.223-1.895 1.477-3.162 2.726-4.425 3.735-3.778 7.508-7.518 11.26-11.279 1.846-1.851 3.74-3.66 3.439-6.644a1.345 1.345 0 0 1 .818-1.243c2.11-.147 3.248 1.596 4.79 2.52a36.11 36.11 0 0 0 10.824 4.295c.71.157 1.444.197 1.809.968 1.439 1.625 1.24 2.935-.357 4.496-6.823 6.673-13.513 13.48-20.288 20.202-1.532 1.519-2.76 3.104-2.558 5.407z" class="cls-67"/><path d="M247.627 186.658c-6.868-.14-12.268-3.704-17.557-7.526-1.823.072-2.708-1.278-3.63-2.481a21.826 21.826 0 0 1-4.276-7.743 9.958 9.958 0 0 0-.99-3.856 4.227 4.227 0 0 1-.165-.91q-.057-1.667-.007-3.336a2.297 2.297 0 0 1 .693-1.797 1.138 1.138 0 0 1 .96-.087c1.934 2.436 1.875 5.66 3.282 8.331a47.128 47.128 0 0 1 1.973 4.547c3.143 6.835 9.087 10.145 15.883 11.924 9.507 2.488 18.029-.277 24.947-6.853a23.33 23.33 0 0 0 7.389-16.078 3.615 3.615 0 0 1-.024-.933 7.944 7.944 0 0 0-.238-5.782c-.394-2.265-1.456-4.462-.717-6.846.612-.928 1.256-1.133 1.949-.08l.628 2.508a46.415 46.415 0 0 1 1.254 10.66c-.422 5.532-3.013 10.357-5.244 15.24-1.76 3.85-5.314 5.758-9.184 7.48-5.462 2.43-10.922 4.087-16.926 3.618z" class="cls-48"/><path d="M272.688 99.629c4.273 1.497 8.057 3.926 11.895 6.251l.826.958a1.117 1.117 0 0 1-.62.628 3.074 3.074 0 0 1-2.67-.578c-3.25-2.378-7.533-3.08-10.238-6.331-.038-.576.343-.788.807-.928z" class="cls-68"/><path d="M287.189 108.78l-.045.711-1.284-1.201c-.51-.254-.927-.556-.643-1.226l.192-.226c.898.368 1.74.788 1.78 1.942z" class="cls-68"/><path d="M285.217 107.064l.643 1.225q-9.742 9.89-19.49 19.774a3.603 3.603 0 0 1-3.678 1.082 5.431 5.431 0 0 0-5.025.932c-.878 1.365-2.248.94-3.388.745-10.452-1.787-18.85 1.896-25.8 9.535-4.99 3.369-5.757 8.81-6.894 14.066-.065.302-.071.618-.144.922-3.737 8.219-11.06 13.346-17.09 19.554-2.64 2.716-4.256 5.145-2.71 8.975.495 1.228.905 2.915-.953 3.78-.92.122-1.446-.47-1.966-1.076a58.937 58.937 0 0 1-3.44-6.45 4.743 4.743 0 0 1-.526-2.25 8.338 8.338 0 0 0-.097-2.795 8.448 8.448 0 0 1 2.827-7.572c6.096-6.005 12.1-12.103 18.176-18.13a31.21 31.21 0 0 0 4.495-5.196 53.815 53.815 0 0 1 15.475-15.666c6.316-4.29 11.092-10.4 16.553-15.7 4.044-3.924 7.965-7.974 11.974-11.935 1.37-1.354 2.813-2.533 4.947-2.007a5.03 5.03 0 0 1 2.944 1.28z" class="cls-69"/><path fill="#c076e5" d="M227.626 139.623c7.99-9.551 18.154-12.258 30.04-9.546a38.727 38.727 0 0 1 8.763 4.576c1.623 1.584 3.673 2.765 4.662 4.947-1.903.99-2.85-.621-3.983-1.54-3.567-2.89-4.054-2.92-7.25.263q-13.842 13.79-27.634 27.629c-3.89 3.895-3.81 3.964-.23 8.042.97 1.105 3.278 2.137 1.269 4.26-3.046-1.053-4.368-3.882-6.285-6.1-2.053-4.17-4.406-8.238-4.537-13.077a3.66 3.66 0 0 1-.83-2.896 25.088 25.088 0 0 1 6.015-16.558z"/><path fill="#7fc4c3" d="M177.358 147.686q10.4-12.065 20.803-24.128l2.41-2.174a1.473 1.473 0 0 1 .616 1.197c-.255 1.58-1.368 2.66-2.266 3.864a7.572 7.572 0 0 0-2.852 3.128c-4.43 5.856-9.36 11.29-14.183 16.812-1.207 1.381-2.177 3.461-4.69 2.587a1.215 1.215 0 0 1 .162-1.286z"/><path fill="#94e0db" d="M201.779 120.08a61.13 61.13 0 0 1 31.058-22.344 7.006 7.006 0 0 1 1.542-.157c.659-.407 1.187-.358 1.504.429-1.03 2.363-3.485 2.48-5.421 3.196a60.954 60.954 0 0 0-21.258 13.818c-1.13 1.09-1.96 2.425-3.037 3.548-1.062 1.109-1.995 2.454-3.767 2.523-.49-.163-.85-.408-.621-1.012z"/><path fill="#91dbd5" d="M235.716 98.199l-1.336-.62c1.802-1.14 4.045-.804 5.904-1.757 6.196-.67 12.392-1.123 18.582.056-.003 1.014-.757 1.184-1.516 1.349a81.4 81.4 0 0 0-18.17 1.596c-1.173.238-2.486.546-3.464-.624z"/><path fill="#86d7d4" d="M201.779 120.08l.67.735a1.088 1.088 0 0 1 .252.843c-.427.943-1.01 1.567-2.147 1.032l.018-1.306 1.207-1.303z"/><path d="M177.416 149.095c4.444-3.972 7.873-8.857 11.895-13.208 2.114-2.287 3.797-4.961 6.25-6.94.605-.166.939.174 1.21.638.43 1.418-.208 2.664-.76 3.86-1.435 3.122-1.826 6.577-3.2 9.709-1.946 1.139-2.417 3.132-2.505 5.078-.242 5.387-2.443 9.56-6.307 13.4q-45.65 45.355-91.05 90.964c-2.36 2.363-4.858 4.574-7.243 6.91-1.144 1.122-2.36 2.48-4.33 1.895-.847-1.31.365-1.864.99-2.592q21.91-25.484 43.948-50.859c2.392-2.752 4.727-5.554 7.162-8.27a1.22 1.22 0 0 1 .066-.458c5.384-5.372 9.884-11.513 14.93-17.177 3.525-3.955 6.84-8.09 10.417-11.998 5.793-6.962 11.938-13.622 17.674-20.632a1.131 1.131 0 0 1 .853-.32z" class="cls-75"/><path fill="#7ec3c3" d="M133.476 199.68c-.48 2.688-2.836 4.077-4.395 5.921-8.6 10.173-17.445 20.136-26.19 30.187q-10.348 11.895-20.641 23.838a7.403 7.403 0 0 0-.822 1.65c.146 1.429-.84 2.275-1.64 3.231-10.021 12.003-20.556 23.565-30.574 35.57a58.99 58.99 0 0 0-8.702 13.68c-.542 1.21-.96 2.596-2.56 2.905-.501-.174-.778-.464-.53-1.024a49.674 49.674 0 0 1 10.153-17.455q30.322-35.254 60.78-70.39c7.5-8.69 14.928-17.438 22.41-26.14.734-.852 1.425-1.843 2.71-1.973z"/><path d="M159.235 170.366q-11.577 13.591-23.162 27.176a3.938 3.938 0 0 1-2.53 1.68 4.369 4.369 0 0 1 .608-1.412c5.92-5.986 10.565-13.062 16.44-19.096 2.792-2.868 4.83-6.436 7.985-9.006a.704.704 0 0 1 .66.658z" class="cls-77"/><path d="M159.235 170.366l-.66-.658c2.928-4.51 6.927-8.13 10.239-12.327 2.664-3.377 5.683-6.474 8.544-9.695l.058 1.408c-2.588 4.314-6.283 7.728-9.51 11.51-2.82 3.307-5.36 6.886-8.671 9.762z" class="cls-77"/><path fill="#75bcbb" d="M37.422 315.638l.734.815a2.944 2.944 0 0 1 .39 2.956 75.896 75.896 0 0 0-3.272 25.864 1.813 1.813 0 0 1-.881 1.363c-2.055-8.484-1.107-16.859.924-25.193.343-1.408.705-2.81 1.06-4.215l1.045-1.59z"/><path fill="#87d6ce" d="M257.609 96.413l1.257-.536a51.123 51.123 0 0 1 13.822 3.752l-.638.528-3.09-.667c-3.01-.352-6.083-.168-9.025-1.125a4.53 4.53 0 0 1-2.203-.994.852.852 0 0 1-.124-.958z"/><path fill="#4a5b59" d="M45.087 376.03c-3.88-6.089-8.04-12.039-9.517-19.315-.222-1.093-.848-2.167.012-3.248a2.255 2.255 0 0 1 1.646 2.053c.53 2.728 2.043 4.978 3.51 7.25a10.386 10.386 0 0 0 .863 1.946 3.954 3.954 0 0 1 .635 1.066 6.663 6.663 0 0 0 1.89 3.069c1.148 2.55 3.198 4.431 4.88 6.584.94 1.074 2.459 1.898 1.635 3.74-.617 2.34 2.092 2.707 2.597 4.38-2.33-.652-3.57-2.59-4.938-4.318a13.31 13.31 0 0 0-3.213-3.207z"/><path fill="#4cb5b4" d="M50.64 379.176l-2.43-3.136c.03-1.209-.94-1.792-1.6-2.577-2.461-2.936-2.45-4.586.07-7.397.979-1.088 2.047-2.091 3.08-3.126q77.037-77.021 154.056-154.06c4.796-4.794 4.876-5.84.945-11.62-1.105-1.624-2.601-3.037-2.835-5.14a1.58 1.58 0 0 1 .405-1.152 1.695 1.695 0 0 1 1.766.062c3.35 2.997 6.6 6.076 8.244 10.427a2.216 2.216 0 0 0 .463 2.515c1.41 1.908 2.949 3.72 4.286 5.682 2.312 5.247 2.124 6.3-2.028 10.453q-76.9 76.929-153.825 153.834c-1.034 1.035-2.047 2.092-3.097 3.11-1.31 1.269-1.965 2.61-1.196 4.482.257.625 1.12 1.834-.604 2.05a33.26 33.26 0 0 1-5.7-4.407z"/><path d="M221.29 216.13c2.806 2.162 4.04 5.204 4.82 8.518a2.82 2.82 0 0 1-.84 2.847c-.74.735-1.468 1.485-2.206 2.224q-76.902 76.903-153.821 153.79a15.78 15.78 0 0 0-4.14 5.726 4.8 4.8 0 0 1-3.12-1.747 7.233 7.233 0 0 0-1.638-1.433c-2.134-1.696-2.445-3.075-1.05-5.324a23.11 23.11 0 0 1 3.577-3.935q71.257-71.273 142.477-142.582c5.662-5.682 12.449-10.458 15.94-18.085z" class="cls-82"/><path fill="#4bb4b3" d="M221.29 216.13c.5 2.983-.866 5.024-2.942 7.096q-77.802 77.653-155.495 155.417c-4.21 4.21-4.21 4.21-.87 8.845a20.33 20.33 0 0 1-5.643-3.906c-2.154-3.737-.514-6.19 2.274-8.969q77.686-77.447 155.253-155.014c3.025-3.015 4.695-5.72 2.407-9.74 1.397-.511 1.955.611 2.294 1.469a40.376 40.376 0 0 0 2.723 4.801z"/><path d="M39.987 363.739c-2.284-3.074-3.362-6.666-4.405-10.272l-1.03-5.077c.34-.44-.075-1.447 1.003-1.337 1.728.94 1.472 2.814 1.964 4.312.41 1.252.35 2.651 1.137 3.802.585 1.65 1.168 3.298 1.81 4.927.495 1.25.878 2.59-.48 3.645z" class="cls-84"/><path fill="#74c0bf" d="M35.067 347.186l-.515 1.204-.16-1.754.06-1.333a.589.589 0 0 1 .829.089l.02.026a1.345 1.345 0 0 1-.234 1.768z"/><path d="M221.29 216.13c-2.225-1.648-2.79-4.624-5.016-6.271-1.446-1.984-2.88-3.976-4.344-5.946-.547-.736-.78-1.44-.086-2.202a.67.67 0 0 1 .664.626c2.046 3.504 5.31 6.038 7.503 9.424-.861 1.834 1.495 2.724 1.28 4.368z" class="cls-82"/><path fill="#bf75e4" d="M233.22 177.878c-.197-2.255-2.314-3.005-3.555-4.417-2.542-2.893-2.657-4.094.105-6.866 10.09-10.132 20.25-20.198 30.298-30.372 2.064-2.09 3.793-2.38 6.205-.547 1.654 1.258 2.773 3.166 4.817 3.923l.98.683a10.543 10.543 0 0 1 3.709 6.973l1.364 6.817a12.653 12.653 0 0 1-.102 6.248l.024-.047c-1.854 12.67-9.954 21.596-22.7 23.95a25.564 25.564 0 0 1-19.856-4.47c-.6-.426-1.605-.745-1.288-1.875z"/><path d="M275.779 147.255l-3.71-6.973c3.305 1.098 3.41 4.538 5.03 6.87-.457-.184-.917-.403-1.32.103z" class="cls-50"/><path d="M212.509 202.337l-.665-.626-8.114-10.034c-.672-2.373.664-3.992 2.134-5.513 3.76-3.894 7.609-7.7 11.472-11.49 1.55-1.522 2.663-3.016 2.33-5.427a5.233 5.233 0 0 1 1.396-4.622.673.673 0 0 1 .854.085l.002.002c.49 1.229.53 2.608 1.25 3.76 1.474 4.09 4.215 7.357 6.902 10.66 1.8 3.343-.221 5.515-2.338 7.671q-7.62 7.76-15.224 15.534z" class="cls-53"/><path d="M233.22 177.878c14.9 12.357 38.513 4.013 43.146-15.24.192-.798.464-1.577.7-2.365-.097 8.888-4.623 15.444-11.466 20.384-10.702 7.726-26.43 5.973-35.405-3.639-1.323-1.417-2.788-2.82-3.217-4.863 2.313 1.655 3.676 4.346 6.243 5.723z" class="cls-87"/><path d="M221.916 164.71h-.625c-2.43-1.396-2.024-3.656-1.705-5.83a9.016 9.016 0 0 1 1.077-3.576c.737-5.93 1.775-11.727 6.963-15.681-1.113 2.317-2.284 4.609-3.326 6.958-1.767 3.983-1.84 8.24-1.86 12.496q-.257-.01-.516-.013c-.58-1.258-.267-2.517-.141-3.775.232-.408.474.235.123.008-.16-.104-.264-.054-.258.147.06 1.836-.36 3.695.267 5.504v3.762z" class="cls-67"/><path d="M221.915 160.948c-1.14-1.84-.437-3.828.009-5.806v3.922l-.01 1.884z" class="cls-49"/><path d="M277.04 160.32l.103-6.248a7.076 7.076 0 0 1-.102 6.248z" class="cls-87"/><path d="M223.169 168.473a4.471 4.471 0 0 1-1.251-3.761 6.333 6.333 0 0 1 1.25 3.76z" class="cls-67"/><path fill="#51b9b8" d="M35.067 347.186l-.017-1.875c-.71-3.5-.18-7.034-.274-10.551-.04-1.456.992-2.425 1.978-3.41q74.87-74.726 149.623-149.569c.517-.517.998-1.075 1.548-1.553a6.689 6.689 0 0 0 2.269-7.016 26.394 26.394 0 0 1-.527-7.16c.112-1.649.764-3.04 2.735-1.36.6 1.936.845 3.993 1.955 5.758.253 2.496 1.008 4.911 1.248 7.412l.576 1.918a17.837 17.837 0 0 0 2.716 6.871c2.354 3.625 2.118 6.494-.77 9.614-.71.767-1.461 1.493-2.2 2.232Q119.119 275.294 42.304 352.08c-1.357 1.356-2.433 3.246-4.746 3.263-1.752-2.438-1.286-5.553-2.49-8.158z"/><path d="M37.558 355.344c.976-1.082 1.906-2.21 2.935-3.239q77.874-77.897 155.764-155.777c3.958-3.958 4.058-5.11 1.407-10.06-1.06-1.982-2.006-4.095-1.483-6.488l3.168 6.236c2.339 3.676 3.26 8.096 6.07 11.528 1.145 1.398.626 2.74-.276 4.009a29.857 29.857 0 0 1-3.41 3.665q-77.837 77.857-155.73 155.66c-1.61 1.606-2.616 4.05-5.266 4.474l-.75-1.614c.142-3.073-2.51-5.339-2.43-8.394z" class="cls-89"/><path d="M40.737 365.352a15.01 15.01 0 0 1 3.427-4.404q79.03-79.005 158.083-157.986c2.452-2.447 3.588-4.264 1.285-7.637-1.88-2.752-4.07-5.641-4.183-9.309l1.245 1.271c1.744.684 3.027 1.6 1.89 3.74.789 3.835 3.89 6.349 5.585 9.698 1.49 2.948 1.1 4.741-1.215 7.05Q128.018 286.422 49.323 365.21c-4.277 4.276-4.278 4.277-1.01 9.425a1.025 1.025 0 0 1-.102 1.405c-1.85-2.127-3.89-4.113-5.036-6.765-.7-1.072-.98-2.405-2.045-3.246z" class="cls-89"/><path fill="#5fd7cf" d="M195.605 177.862l-2.498-6.908c.42-2.312-.44-4.532-1.012-6.616-.89-3.24-.627-6.396-.36-9.562a8.129 8.129 0 0 1 2.63-4.864c17.282-17.368 34.754-34.546 51.9-52.046a2.874 2.874 0 0 1 2.123-1.167c3.094.135 6.21-.41 9.286.283a27.574 27.574 0 0 1 11.285 2.508c-1.69-.133-2.63 1.055-3.658 2.084-7.596 7.597-15.293 15.096-22.754 22.824-4.944 5.12-12.038 7.778-16.136 13.672-8.292 11.923-19.303 21.259-29.227 31.63a6.06 6.06 0 0 0-1.487 5.51c.145.897.722 1.793-.092 2.652z"/><path d="M202.485 191.027l-1.89-3.74c.819-2.05-.371-3.866-.85-5.693a4.833 4.833 0 0 1 1.453-5.309c4.133-3.975 8.016-8.216 12.235-12.094 2.87-2.639 4.873-5.884 7.23-8.887.012 3.149-.18 6.31.628 9.406.206 2.249-.947 4.429-.152 6.757.41 1.206-.807 2.03-1.603 2.829-3.586 3.601-7.145 7.231-10.793 10.769a20.548 20.548 0 0 0-5.013 6.612l-1.245-.65z" class="cls-69"/><path fill="#6adbd6" d="M191.855 142.767l4.38-13.156c.07-1.533 1.03-2.626 1.868-3.78l2.452-3.14 1.916-1.266c1.095 1.415.118 2.533-.55 3.673a62.43 62.43 0 0 0-8.357 23.88c-.47 3.667-1.7 7.242-1.461 11.026.043.692-.238 1.226-1.116.947a2 2 0 0 1-.707-1.44c-.06-3.035-.014-6.067-.03-9.1-.062-2.673.043-5.311 1.605-7.644z"/><path fill="#62c3c2" d="M198.103 125.831a7.98 7.98 0 0 1-1.87 3.78l-.671-.664a4.847 4.847 0 0 1 2.54-3.116z"/><path fill="#61d9d1" d="M191.238 160.94a4.266 4.266 0 0 0 .574-3.006c-.3-12.974 2.865-24.93 10.416-35.61a2.777 2.777 0 0 0 .243-.899q0-.305-.022-.61c7.744-9.959 17.333-17.406 29.359-21.518 1.278-.437 2.604-.735 3.908-1.098 7.177-2.07 14.532-1.97 21.893-1.786q.042.284.065.569c-6.152-1.108-10.353 1.443-14.666 5.942q-22.515 23.487-46 46.037c-4.491 4.334-4.986 8.92-4.328 14.41.3 2.498 1.647 4.988.426 7.583-.552-2.06-1.517-4.033-1.333-6.25-.706-1.18-2.198-2.248-.535-3.765z"/><path fill="#54bcbb" d="M191.238 160.94l.535 3.764c-.83-.31-1.16-.05-1.07.85.244 2.483.132 5.053.75 7.435.91 3.516-.276 5.915-2.716 8.348Q135.52 234.414 82.412 287.6c-13.95 13.95-27.716 28.095-41.968 41.732-4.152 3.972-6.296 7.883-5.408 13.477a15.998 15.998 0 0 1 .014 2.503q-.3-.007-.597-.008c-.311-9.815-.236-19.58 3.703-28.85 2.584-8.017 7.63-14.505 13-20.768q13.403-15.63 26.913-31.166c1.016-1.172 2.235-2.167 3.36-3.243 3.348-2.162 6.018-5.107 8.8-7.882q47.14-47.02 94.24-94.08c3.054-3.037 4.187-6.561 4.844-10.507.368-2.208.116-4.692 2.542-6.04-.25 2.512-.894 4.987-.697 7.54a31.849 31.849 0 0 0 .009 9.373z"/><path d="M41.129 366.029c1.462.59 1.86 1.85 2.046 3.245a8.414 8.414 0 0 1-2.045-3.245z" class="cls-84"/><path d="M191.167 159.68a15.523 15.523 0 0 1-.01-9.373z" class="cls-75"/><path d="M153.384 531.053h19.294l28.87 81.602h-18.49l-5.385-16.774h-30.05l-5.532 16.774h-17.836zm-1.123 50.766h20.899l-10.309-32.11zm52.195-17.715v-11.239h8.415v-16.83h15.611v16.83h9.8v11.239h-9.8v31.887q0 3.71.942 4.623.94.913 5.757.913.72 0 1.523-.027.802-.028 1.577-.083v11.792l-7.473.276q-11.184.387-15.28-3.875-2.657-2.711-2.657-8.359v-37.147zm94.28 41.169q-7.64 9.431-23.197 9.431t-23.196-9.43q-7.64-9.431-7.64-22.708a35.164 35.164 0 0 1 7.64-22.623q7.638-9.57 23.196-9.57 15.556 0 23.197 9.57a35.16 35.16 0 0 1 7.639 22.623q0 13.276-7.64 22.707zm-12.623-8.72q3.709-4.92 3.709-13.987t-3.71-13.958q-3.708-4.892-10.628-4.892t-10.658 4.892q-3.736 4.892-3.737 13.958 0 9.068 3.737 13.987 3.738 4.92 10.658 4.92t10.629-4.92zm80.217-40.782q5.925 4.9 5.925 16.249v40.635H356.09V575.95a16.872 16.872 0 0 0-1.263-7.307q-2.31-4.65-8.793-4.65-7.97 0-10.937 6.809a23.538 23.538 0 0 0-1.539 9.19v32.663H317.78v-60.233h15.28v8.803a26.724 26.724 0 0 1 5.734-6.7q4.85-3.653 12.293-3.653 9.316 0 15.243 4.9z"/></svg>