<svg xmlns="http://www.w3.org/2000/svg" role="img" viewBox="-15.75 -15.25 793.00 793.00"><title>Aton logo</title><path d="M201.5 1c-120.2.5-121.1.5-128.6 2.7C36 14.2 10.3 41.2 2.9 77.3 1.2 85.7 1.1 101.6.4 382.9-.2 668.1-.2 679.8 1.6 687c1.6 6.4 1.9 12.7 2.2 41.7l.3 34.3h751.8l.4-29.8.3-29.7 3-8.5 2.9-8.5v-610l-2.9-8.5-3-8.5-.3-29.8-.4-29.7-216.7.2C420 .4 268.1.7 201.5 1zm198.8 136.5c18.9 3.3 36.3 12.2 49.9 25.4 6.5 6.5 240 289.5 254.1 308 13.7 18 20.6 43.4 17.9 66-5.3 44.9-38.9 78.8-83.8 84.3-25 3-52.4-5.5-72.2-22.5-5.1-4.4-31.7-36-92.4-109.7-46.9-57-86.7-105.3-88.3-107.4l-3-3.7-90.2 104.4c-49.6 57.4-92.4 106.4-95 108.8-16.1 15-36.3 23.4-59.3 24.6-13.6.7-22.8-.6-35.5-4.8-23.8-7.9-42.8-24.6-54-47.4-7.6-15.3-9.9-25.3-9.9-42.5 0-19.9 4.5-35.2 14.7-50.6 2.8-4.4 63.6-75.5 135-158.1C328.1 150.5 323.8 155.1 341 146.5c18.5-9.3 39.4-12.5 59.3-9z"/></svg>