<svg xmlns="http://www.w3.org/2000/svg" role="img" viewBox="-20.00 -20.00 1040.00 322.00"><title>AYON logo</title><style>svg {clip-rule:evenodd;fill-rule:evenodd;stroke-linejoin:round;stroke-miterlimit:2}</style><g id="g12" transform="translate(-38.13 -598.003)"><g id="g11" transform="matrix(2.62651 0 0 3.12346 6390.3 -679.551)"><g id="AYON_whiteG_dot1"><g id="g1" fill="#000" transform="matrix(-.80467 -.39067 -.4646 .67665 -2318.13 423.195)"><path id="rect1" fill="#000" d="M-38.052 10.196h44v12.001h-44z"/></g><g id="g2" fill="#000" transform="matrix(-.46456 -.67666 -.8047 .39065 -2234.74 444.96)"><path id="rect2" fill="#000" d="M10.052-5.803h12.002v44H10.052z"/></g><g id="g3" fill="#000" transform="matrix(-.92916 0 0 .78133 -1948.72 277.803)"><path id="rect3" fill="#000" d="M354.825 239.738h12v44h-12z"/></g><g id="g4" transform="matrix(0 -.78133 -.92916 0 -2283.98 409.019)"><path id="path3" fill="#00d7a0" fill-rule="nonzero" d="M-12-12c-6.627 0-12 5.373-12 12s5.373 12 12 12S0 6.627 0 0s-5.373-12-12-12"/></g><g id="g5" fill="#000" transform="matrix(.92916 0 0 .78133 -2182.7 490.12)"><path id="path4" fill="#000" fill-rule="nonzero" d="M0-64c-17.645 0-32 14.355-32 32S-17.645 0 0 0s32-14.355 32-32S17.645-64 0-64m0 76c-24.262 0-44-19.738-44-44s19.738-44 44-44 44 19.738 44 44S24.262 12 0 12"/></g><g id="g6" fill="#000" transform="matrix(.92916 0 0 .78133 -2113.95 499.496)"><path id="path5" fill="#000" fill-rule="nonzero" d="M0-48c-3.313 0-6 2.686-6 6v36c0 3.314 2.687 6 6 6s6-2.686 6-6v-36c0-3.314-2.687-6-6-6"/></g><g id="g7" fill="#000" transform="matrix(.92916 0 0 .78133 -2043.33 468.242)"><path id="path6" fill="#000" fill-rule="nonzero" d="M0-48c-3.313 0-6 2.686-6 6v36c0 3.314 2.687 6 6 6s6-2.686 6-6v-36c0-3.314-2.687-6-6-6"/></g><g id="g8" fill="#000" transform="matrix(.92916 0 0 .78133 -2039.39 438.745)"><path id="path7" fill="#000" fill-rule="nonzero" d="M0 67.506l-75.99-75.99c-1.086-1.088-2.588-1.763-4.247-1.763-3.314 0-6 2.687-6 6 0 1.66.674 3.161 1.762 4.248L-8.484 75.99c1.086 1.089 2.588 1.763 4.247 1.763 3.313 0 6-2.686 6-6 0-1.659-.674-3.161-1.763-4.247"/></g><g id="g9" fill="#000" transform="matrix(.92916 0 0 .78133 -2384.85 492.462)"><path id="path8" fill="#000" fill-rule="nonzero" d="M0-37.301L-25 6c-1.657 2.87-5.326 3.853-8.196 2.196C-36.066 6.54-37.049 2.87-35.392 0l25-43.301c1.656-2.87 5.326-3.853 8.196-2.196S1.657-40.171 0-37.301"/></g><g id="g10" fill="#000" transform="matrix(.92916 0 0 .78133 -2367.31 497.151)"><path id="path9" fill="#000" fill-rule="nonzero" d="M0-82L43.879-6c1.657 2.87.674 6.54-2.196 8.197-2.87 1.656-6.54.673-8.196-2.197l-43.879-76c-1.657-2.87-.674-6.539 2.196-8.196S-1.657-84.87 0-82"/></g></g></g></g></svg>