<svg xmlns="http://www.w3.org/2000/svg" role="img" viewBox="9.51 257.51 571.48 165.48"><title>Blender Foundation logo</title><g stroke-width="0"><path d="M112.871 349.254c.328-5.895 3.219-11.094 7.574-14.781 4.278-3.621 10.032-5.828 16.309-5.832 6.277.004 12.031 2.211 16.309 5.832 4.355 3.687 7.246 8.886 7.578 14.781.332 6.062-2.102 11.699-6.379 15.871-4.356 4.246-10.563 6.914-17.504 6.914-6.945 0-13.156-2.668-17.516-6.914-4.273-4.172-6.707-9.809-6.371-15.871z" fill="#005385"/><path d="M74.828 361.191c.04 2.301.781 6.786 1.883 10.297 2.32 7.414 6.258 14.278 11.742 20.328 5.625 6.211 12.543 11.207 20.543 14.746 8.41 3.727 17.524 5.629 26.973 5.61 9.453-.016 18.562-1.949 26.972-5.699 7.993-3.578 14.911-8.586 20.532-14.813 5.476-6.074 9.406-12.949 11.73-20.367a51.442 51.442 0 0 0 2.207-11.367 51.794 51.794 0 0 0-.363-11.289c-1.043-7.332-3.582-14.215-7.484-20.489-3.583-5.761-8.184-10.808-13.661-15.058l.008-.008-55.262-42.437a7.93 7.93 0 0 0-.14-.118c-3.637-2.777-9.731-2.769-13.715.02-4.039 2.824-4.492 7.484-.91 10.433l-.012.008 23.051 18.75-70.266.074h-.097c-5.805.004-11.383 3.821-12.493 8.633-1.129 4.907 2.817 8.973 8.852 8.996l-.008.024 35.613-.07-63.554 48.777c-.078.062-.164.121-.242.183-5.989 4.59-7.93 12.227-4.157 17.059 3.836 4.914 11.98 4.918 18.04.02l34.683-28.379s-.504 3.832-.465 6.136zm89.121 12.825c-7.144 7.289-17.144 11.414-27.976 11.433-10.836.02-20.84-4.074-27.989-11.344-3.492-3.546-6.058-7.613-7.644-11.96a31.105 31.105 0 0 1-1.754-13.356 31.591 31.591 0 0 1 3.832-12.582c2.09-3.789 4.961-7.211 8.504-10.109 6.945-5.664 15.785-8.727 25.043-8.739 9.258-.011 18.094 3.028 25.043 8.668 3.539 2.883 6.41 6.293 8.496 10.075a31.594 31.594 0 0 1 3.84 12.57 31.133 31.133 0 0 1-1.758 13.359c-1.582 4.352-4.145 8.426-7.637 11.985z" fill="#ff7021"/><path d="M491.52 349.168c.539-5.957 5.144-9.734 12.171-9.734 7.036 0 11.637 3.777 12.18 9.734zm23.628 14.695c-1.804 4.418-6.043 7.032-11.812 7.032-7.219 0-12.082-4.508-12.262-11.629h41.481v-2.094c0-17.832-10.461-27.856-29.219-27.856-18.215 0-29.219 10.118-29.219 25.985 0 15.957 11.18 26.054 29.219 26.054 10.816 0 19.219-3.703 24.402-10.234z" fill="#005385"/><path d="M307.41 349.195c.551-5.957 5.145-9.73 12.18-9.73 7.027 0 11.633 3.773 12.172 9.73zm23.629 14.7c-1.801 4.417-6.043 7.031-11.812 7.031-7.215 0-12.086-4.512-12.266-11.633h41.48v-2.09c0-17.832-10.464-27.859-29.214-27.859-18.223 0-29.215 10.121-29.215 25.984 0 15.961 11.172 26.059 29.215 26.059 10.816 0 19.218-3.703 24.402-10.235z" fill="#005385"/><path d="M271.324 318.539h14.969v61.215h-14.969z" fill="#005385"/><path d="M352.16 334.797h15.047v3.648c5.34-5.683 11.727-8.554 18.938-8.554 8.316 0 14.609 2.871 17.859 7.761 2.707 4.043 2.887 8.918 2.887 15.332v26.77H391.82v-23.527c0-9.75-1.961-14.262-10.527-14.262-8.664 0-14.086 5.156-14.086 13.812v23.977H352.16z" fill="#005385"/><path d="M455.344 356.051c0 8.383-5.598 13.879-14.25 13.879-8.664 0-14.258-5.313-14.258-13.782 0-8.589 5.508-13.902 14.258-13.902 8.652 0 14.25 5.399 14.25 13.805zm0-19.211c-3.793-4.078-9.297-6.317-16.957-6.317-16.492 0-27.778 10.188-27.778 25.442 0 14.953 11.192 25.414 27.504 25.414 7.489 0 12.989-1.887 17.231-6.133v4.508h15.058v-65.102l-15.058 3.887z" fill="#005385"/><path d="M237.129 342.246c8.746 0 14.246 5.313 14.246 13.902 0 8.469-5.59 13.782-14.246 13.782s-14.25-5.496-14.25-13.879c0-8.406 5.594-13.805 14.25-13.805zm-14.25-23.707l-15.063-3.887v65.102h15.063v-4.508c4.238 4.246 9.738 6.133 17.223 6.133 16.32 0 27.503-10.461 27.503-25.414 0-15.254-11.269-25.442-27.773-25.442-7.668 0-13.164 2.239-16.953 6.317z" fill="#005385"/><path d="M536.273 379.754v-44.957h15.059v2.777c4.508-5.426 9.281-8.129 14.695-8.129 1.086 0 2.434.176 4.239.356v12.812c-1.442-.187-3.063-.187-4.778-.187-8.75 0-14.156 5.773-14.156 15.597v21.731z" fill="#005385"/></g></svg>