<svg xmlns="http://www.w3.org/2000/svg" role="img" viewBox="-35.00 -35.00 1820.00 594.00"><title>Blue Sky Studios logo</title><path fill="#231f20" d="M1673.747 359.29v-1.967h14.04v1.966h-5.854v15.595h-2.333v-15.595h-5.853m20.466-1.966l5.534 14.756 5.56-14.756h3.2v17.561h-2.214v-14.61h-.053l-5.48 14.61h-2l-5.48-14.61h-.053v14.61h-2.214v-17.561h3.2M1001.16 477.325h-7.425v46.698h7.425v-46.698m115.083 10.943c2.929-3.128 6.838-4.885 11.722-4.885 4.884 0 8.794 1.757 11.723 4.885 2.93 3.32 4.493 7.424 4.493 12.307 0 5.081-1.562 8.989-4.493 12.31-2.93 3.126-6.839 4.69-11.723 4.887-4.884-.197-8.793-1.761-11.722-4.887-3.128-3.321-4.69-7.229-4.69-12.31 0-4.883 1.562-8.987 4.69-12.307zm28.72-4.885c-4.494-4.299-10.159-6.644-16.998-6.644-6.838 0-12.506 2.345-17 6.644-4.688 4.493-7.033 10.353-7.229 17.192.196 7.034 2.541 12.7 7.23 17 4.493 4.493 10.16 6.642 17 6.838 6.838-.196 12.503-2.345 16.997-6.838 4.689-4.3 7.036-9.966 7.036-17 0-6.84-2.347-12.7-7.036-17.192m121.921-6.644c-3.908 0-7.228 1.368-9.77 3.517-2.343 2.15-3.515 5.08-3.711 8.793.196 3.515 1.172 6.252 3.321 8.4 2.15 1.953 4.885 3.517 8.401 5.082l3.322 1.366c2.15.978 3.713 1.955 5.276 2.932 1.368 1.17 2.149 2.735 2.345 4.884-.392 3.908-3.127 5.862-8.401 6.06-4.886-.198-8.403-2.152-10.552-6.256l-6.448 3.127c3.322 6.25 8.792 9.573 17 9.77 4.493 0 8.401-1.174 11.136-3.127 2.736-2.148 4.3-5.47 4.494-9.77-.194-3.908-1.368-6.839-3.322-8.792-2.148-1.953-4.884-3.908-8.596-5.276l-3.127-1.562c-2.539-.976-4.493-1.954-5.861-2.931-1.172-.978-1.759-2.539-1.759-4.103.196-3.517 2.344-5.275 6.448-5.47 3.712 0 6.448 1.561 8.01 4.493l5.667-3.712c-2.736-4.886-7.424-7.425-13.873-7.425M457.79 492.956c-1.369-.978-1.76-2.539-1.76-4.103 0-3.517 2.151-5.275 6.254-5.47 3.713 0 6.448 1.561 8.207 4.493l5.47-3.712c-2.736-4.886-7.425-7.425-13.677-7.425-4.103 0-7.424 1.368-9.77 3.517-2.345 2.15-3.711 5.08-3.907 8.793.196 3.515 1.368 6.252 3.517 8.4 1.953 1.953 4.69 3.517 8.207 5.082l3.516 1.366a63.443 63.443 0 0 1 5.274 2.932c1.37 1.17 1.955 2.735 2.151 4.884-.196 3.908-3.127 5.862-8.403 6.06-4.884-.198-8.4-2.152-10.55-6.256l-6.252 3.127c3.126 6.25 8.793 9.573 16.802 9.77 4.691 0 8.403-1.174 11.138-3.127 2.932-2.148 4.3-5.47 4.493-9.77-.193-3.908-1.17-6.839-3.125-8.792-2.346-1.953-5.08-3.908-8.792-5.276l-3.127-1.562c-2.54-.976-4.493-1.954-5.665-2.931m119.574-15.631v6.643h13.874v40.055h7.23v-40.055h13.871v-6.643h-34.975m171.745 0h-7.423v29.504c0 7.423-3.518 10.943-10.356 10.943-7.034 0-10.552-3.52-10.746-10.943v-29.504h-7.229v30.088c0 5.667 1.952 9.965 5.275 12.898 3.125 2.734 7.425 4.102 12.7 4.102 5.08 0 9.378-1.368 12.7-4.102 3.125-2.933 5.08-7.231 5.08-12.898v-30.088m111.369 6.643h5.667c5.861.196 10.356 1.563 13.09 4.495 2.736 3.125 4.104 7.229 4.104 12.112 0 5.081-1.368 8.989-4.104 11.921-2.734 3.125-7.229 4.688-13.09 4.882h-5.667zm5.863-6.643h-12.896v46.698h12.896c7.814-.195 13.872-2.54 18.17-6.645 4.299-4.103 6.643-9.769 6.643-16.803 0-6.84-2.344-12.503-6.643-16.607-4.493-4.493-10.356-6.643-18.17-6.643"/><path fill="#1b284c" d="M1477.707 144.192h25.986l106.294 245.015-4.307 13.871c-3.52 10.16-7.427 19.538-11.72 28.331-4.293 8.596-8.4 15.24-12.307 20.126-7.626 9.377-16.026 14.262-25.786 14.262-12.707 0-23.254-15.241-31.654-46.11-3.906-14.07-7.24-25.597-9.773-34.388h-15.04v85.969c5.067 3.517 11.333 6.45 18.947 8.792 8.2 2.15 15.826 3.323 23.44 3.323 17.986 0 32.24-5.082 42.986-15.436 5.48-5.276 11.334-13.676 17.587-25.206 6.453-11.724 12.307-25.594 18.173-41.42l108.054-289.76h22.266V99.837h-77.173v11.724h40.64l-79.333 215.122-75.027-182.491h37.12v-11.919h-119.373v11.919"/><path fill="#1b284c" d="M1496.267 342.9L1390.76 189.325l81.28-83.038h25.987V94.368h-86.947v11.919h42.4l-102.187 105.509 95.347 143.021h73.08V342.9zM1346.8-.003h-82.065v11.918h30.285V371.62h-30.285v11.919h112.345V371.62h-30.28V-.003m-276.473 59.202c16.801-11.528 38.1-17.195 64.085-17.195 39.079 0 69.363 31.652 90.464 95.35 1.759 4.493 2.932 8.01 3.713 10.746h12.895V51.97c-16.608-6.643-33.216-11.725-49.824-15.045-16.607-3.126-33.216-4.885-49.237-4.885-41.618 0-75.028 8.597-100.427 26.183-25.597 17.193-38.296 39.662-38.296 67.212 0 21.101 7.228 38.686 21.883 52.754 14.652 14.068 48.65 31.458 101.99 52.559 35.17 14.068 57.836 26.572 67.995 36.732 10.55 10.55 15.63 23.447 15.63 38.49 0 21.885-8.791 40.447-26.571 55.297-17.584 15.044-40.055 22.469-67.407 22.469-40.445 0-73.272-40.641-98.476-122.313-.587-1.758-.977-2.735-1.173-3.516h-12.504v106.29c10.158 9.378 24.814 16.803 44.744 22.664 19.928 5.862 41.617 8.596 64.866 8.596 42.79 0 78.156-10.353 106.292-31.26 28.135-20.71 42.007-46.502 42.007-77.373 0-21.493-7.228-39.859-21.688-54.513-14.653-14.458-46.697-31.262-95.543-50.215-1.173-.585-3.322-1.172-6.252-2.54-63.11-24.617-94.566-50.41-94.566-77.373 0-17.194 8.401-31.652 25.4-42.984"/><path fill="#2674c1" d="M862.63 181.901c-.195 3.322-.195 6.448-.39 10.16l-116.06-.196c1.368-28.721 7.621-50.8 18.952-66.626 11.528-15.826 26.964-23.642 46.503-23.642 17.194 0 30.089 5.863 38.296 17.586 8.596 11.722 12.7 29.698 12.7 53.536v9.182zm56.467 23.642v-7.62c0-33.607-9.377-59.788-28.137-78.546-18.561-18.561-44.547-27.94-77.959-27.94-36.145 0-65.845 12.7-89.485 38.1-24.033 25.402-36.147 57.639-36.147 96.912 0 39.663 12.114 72.098 36.147 97.692 24.032 25.598 53.925 38.688 90.072 38.688 32.044 0 57.637-9.378 76.592-28.136 18.952-18.365 29.699-45.134 32.239-80.109h-15.046c-2.93 29.7-11.722 52.755-27.158 69.557-15.436 16.414-35.366 24.815-59.788 24.815-25.204 0-44.156-10.355-57.248-30.87-13.092-20.32-19.539-50.606-19.539-90.66 0-2.734.196-6.643.39-11.527 0-4.884.195-8.207.195-10.356h174.872M447.63 143.996v148.297c0 40.838 5.862 68.192 17.585 82.063 11.332 14.068 30.87 21.101 58.616 21.101 9.182 0 18.561-1.172 27.94-3.516 10.16-2.734 18.366-6.446 24.618-10.941 12.896-9.77 22.08-22.86 26.964-39.47v60.964h79.718v-13.485h-30.286V99.837h-90.854v11.724h39.077v177.216c0 28.136-4.884 49.824-14.653 65.651-9.575 15.435-23.056 23.25-40.446 23.25-6.838 0-13.285-.977-19.538-3.126-7.035-2.541-11.919-5.863-14.848-10.16-6.646-9.184-9.771-22.47-9.771-39.664V132.273h-84.407v11.723h30.286M304.217-.003V11.72h30.284v333.72h-30.284v11.723h116.644V345.44h-32.433V-.003h-84.21m-93.397 227.43c19.344 12.504 29.114 33.02 29.114 61.546 0 31.262-8.599 53.535-25.596 67.018-17.195 13.09-46.698 19.732-89.097 19.732H93.004V208.669h19.147c46.308 0 79.132 6.252 98.67 18.758zM93.004 49.625h21.883c39.078 0 66.041 5.275 80.89 16.216 15.044 10.942 22.666 29.503 22.666 55.882 0 25.204-8.988 43.961-26.77 56.661-17.78 12.504-44.938 18.561-80.889 18.561h-17.78zM0 49.625h34.584v326.098H0v11.921h119.38c33.608 0 59.79-1.173 78.547-3.908 18.366-2.736 33.801-7.035 46.306-13.092 18.366-8.792 32.239-20.124 41.812-33.996 9.575-13.679 14.459-29.113 14.459-46.308 0-25.4-10.941-46.307-33.02-61.936-21.688-15.63-52.364-24.816-92.027-27.55 33.411-3.909 59.006-12.7 76.787-26.378 17.78-13.48 26.768-31.261 26.768-53.145 0-14.655-4.69-28.332-14.068-40.639-9.379-12.7-22.275-22.47-38.687-29.895-10.941-4.69-23.446-8.01-37.709-9.965-14.264-2.15-38.101-3.125-71.707-3.125H0v11.918"/></svg>