<svg xmlns="http://www.w3.org/2000/svg" role="img" viewBox="-5.99 -5.99 311.74 101.74"><title>Blue Sky Studios logo</title><path fill="#231f20" d="M171.548 81.79h-1.279v8.007h1.279V81.79zm19.708 1.881c.517-.535 1.17-.834 2.022-.834.825 0 1.506.299 1.995.834.499.57.762 1.279.762 2.104 0 .87-.263 1.541-.762 2.113-.49.526-1.17.816-1.995.852-.852-.036-1.505-.326-2.022-.852-.535-.572-.816-1.243-.816-2.113 0-.825.281-1.533.816-2.104m4.924-.834c-.762-.744-1.732-1.134-2.902-1.134-1.188 0-2.149.39-2.929 1.134-.798.761-1.197 1.777-1.233 2.938.036 1.206.435 2.185 1.233 2.929.78.761 1.741 1.115 2.93 1.17 1.169-.051 2.14-.408 2.901-1.17.798-.744 1.206-1.723 1.206-2.93 0-1.16-.408-2.176-1.206-2.937m20.88-1.132a2.53 2.53 0 0 0-1.668.599c-.408.354-.598.852-.634 1.505.036.608.199 1.07.589 1.442.354.335.807.598 1.433.861l.562.236c.354.172.626.335.907.508.226.2.353.462.39.816-.055.689-.535 1.024-1.433 1.06-.834-.036-1.442-.37-1.814-1.078l-1.097.535c.571 1.08 1.505 1.632 2.91 1.678.763 0 1.434-.209 1.914-.526.454-.372.744-.962.78-1.687-.036-.671-.254-1.17-.59-1.505a4.14 4.14 0 0 0-1.468-.898l-.535-.272c-.436-.173-.78-.336-1.007-.508a.93.93 0 0 1-.3-.707c.037-.608.409-.907 1.098-.925.653 0 1.115.263 1.378.762l.98-.635c-.48-.834-1.279-1.26-2.394-1.26M78.438 84.468c-.245-.163-.3-.426-.3-.707 0-.607.354-.907 1.062-.925.634 0 1.115.272 1.396.762l.961-.635c-.48-.834-1.278-1.26-2.357-1.26-.708 0-1.279.235-1.669.607-.408.354-.635.844-.67 1.506.035.598.235 1.06.607 1.432.335.335.789.599 1.396.87l.617.227c.317.182.625.335.907.517.208.19.317.453.353.816-.036.689-.535 1.024-1.433 1.06-.834-.036-1.441-.37-1.813-1.078l-1.08.526c.554 1.079 1.506 1.632 2.893 1.686.798 0 1.433-.217 1.896-.535.507-.372.743-.952.78-1.678-.037-.68-.2-1.17-.536-1.505-.408-.345-.87-.68-1.505-.907l-.535-.262c-.435-.182-.78-.336-.97-.517m20.491-2.675v1.152h2.376V89.8h1.233v-6.855h2.376v-1.152h-5.985zm29.418 0h-1.279v5.069c0 1.251-.58 1.877-1.768 1.877-1.206 0-1.804-.626-1.822-1.877v-5.069h-1.26v5.15c0 .98.335 1.705.906 2.222.544.454 1.27.708 2.176.708.87 0 1.614-.254 2.177-.708.535-.516.87-1.242.87-2.221v-5.151zm19.092 1.152h.97c.998.014 1.777.262 2.24.761.453.536.707 1.243.707 2.077 0 .861-.254 1.532-.707 2.05-.463.535-1.242.797-2.24.815h-.97v-5.703zm.988-1.152h-2.194V89.8h2.194c1.351-.036 2.394-.444 3.12-1.152.743-.689 1.133-1.668 1.133-2.865 0-1.17-.39-2.15-1.133-2.838-.762-.78-1.769-1.152-3.12-1.152"/><path fill="#1b284c" d="M253.191 24.711h4.443l18.227 41.994-.743 2.376a43.576 43.576 0 0 1-2.005 4.851c-.743 1.469-1.432 2.602-2.103 3.455-1.315 1.587-2.748 2.44-4.425 2.44-2.186 0-3.972-2.621-5.423-7.917-.671-2.412-1.242-4.37-1.669-5.876h-2.584V80.75c.87.599 1.95 1.115 3.246 1.505 1.415.372 2.703.58 4.017.58 3.084 0 5.523-.87 7.364-2.656.943-.88 1.95-2.34 3.01-4.298 1.107-2.023 2.131-4.398 3.12-7.11l18.507-49.656H300v-2.004h-13.23v2.004h6.964l-13.584 36.87-12.858-31.275h6.356v-2.04h-20.457v2.04z"/><path fill="#1b284c" d="M256.379 58.751l-18.082-26.297 13.92-14.227h4.46v-2.05h-14.889v2.05h7.255l-17.51 18.063 16.33 24.52h12.533v-2.06h-4.017zM230.77 0h-14.065v2.04h5.187v61.653h-5.187v2.04h19.233v-2.04h-5.168V0zm-47.378 10.152c2.866-1.985 6.52-2.956 10.982-2.956 6.692 0 11.879 5.432 15.497 16.35.299.762.499 1.36.635 1.84h2.212V8.91a51.49 51.49 0 0 0-8.533-2.584c-2.847-.526-5.704-.834-8.433-.834-7.137 0-12.877 1.469-17.211 4.48-4.398 2.964-6.574 6.8-6.574 11.534 0 3.609 1.242 6.62 3.754 9.031 2.52 2.412 8.342 5.405 17.483 8.996 6.021 2.43 9.92 4.57 11.652 6.311 1.787 1.805 2.675 4.017 2.675 6.583 0 3.754-1.505 6.946-4.552 9.494-3.029 2.567-6.873 3.845-11.562 3.845-6.927 0-12.559-6.964-16.866-20.974a7.813 7.813 0 0 0-.209-.58h-2.14V62.42c1.75 1.587 4.244 2.866 7.681 3.872 3.4.998 7.118 1.478 11.108 1.478 7.327 0 13.385-1.777 18.209-5.35 4.815-3.563 7.209-7.97 7.209-13.266 0-3.682-1.243-6.82-3.727-9.34-2.512-2.476-7.998-5.36-16.377-8.606-.2-.1-.553-.208-1.06-.444-10.81-4.207-16.205-8.623-16.205-13.239 0-2.947 1.432-5.44 4.352-7.372"/><path fill="#2674c1" d="M147.793 31.176c-.018.571-.018 1.115-.054 1.732l-19.886-.03c.227-4.923 1.306-8.696 3.237-11.407 1.986-2.711 4.625-4.062 7.97-4.062 2.939 0 5.151 1.015 6.575 3.028 1.451 1.986 2.158 5.087 2.158 9.159v1.578zm9.685 4.053v-1.306c0-5.758-1.605-10.256-4.815-13.466-3.183-3.183-7.635-4.779-13.375-4.779-6.176 0-11.281 2.177-15.334 6.52-4.108 4.353-6.185 9.884-6.185 16.613 0 6.8 2.077 12.36 6.185 16.74 4.126 4.388 9.249 6.637 15.442 6.637 5.496 0 9.884-1.614 13.122-4.833 3.264-3.156 5.087-7.726 5.531-13.73h-2.584c-.499 5.106-2.004 9.05-4.643 11.925-2.657 2.811-6.057 4.244-10.256 4.244-4.316 0-7.563-1.768-9.811-5.277-2.231-3.492-3.346-8.679-3.346-15.552 0-.453.036-1.134.072-1.959 0-.834.036-1.423.036-1.777h29.96zM76.702 24.676v25.417c0 6.992.989 11.67 2.993 14.065 1.95 2.403 5.295 3.609 10.056 3.609 1.578 0 3.174-.208 4.788-.599 1.732-.463 3.137-1.106 4.217-1.877 2.212-1.668 3.79-3.917 4.615-6.755v10.437h13.657v-2.304h-5.187V17.113H96.27v2.004h6.71v30.369c0 4.824-.843 8.542-2.512 11.253-1.65 2.639-3.944 3.98-6.946 3.98-1.16 0-2.267-.162-3.346-.535-1.197-.435-2.03-1.006-2.548-1.731-1.133-1.578-1.668-3.863-1.668-6.801v-32.98H71.497v2.003h5.205zM52.119.004v2.023h5.187V59.19h-5.187v2.022h19.995V59.19h-5.559V.004H52.12zm-16.01 38.965c3.328 2.14 4.996 5.667 4.996 10.555 0 5.35-1.469 9.176-4.398 11.48-2.938 2.249-7.998 3.382-15.243 3.382h-5.532V35.76h3.283c7.934 0 13.548 1.07 16.894 3.21M15.932 8.509h3.736c6.702 0 11.326.898 13.874 2.775 2.567 1.877 3.881 5.07 3.881 9.585 0 4.307-1.541 7.526-4.588 9.703-3.047 2.149-7.708 3.192-13.856 3.192h-3.047V8.509zM0 8.51h5.912v55.877H0v2.05h20.448c5.758 0 10.238-.21 13.466-.672 3.138-.48 5.786-1.206 7.935-2.248 3.137-1.506 5.522-3.455 7.154-5.831 1.65-2.33 2.476-4.988 2.476-7.935 0-4.352-1.877-7.934-5.65-10.6-3.717-2.675-8.977-4.253-15.778-4.734 5.74-.652 10.111-2.176 13.158-4.515 3.047-2.322 4.588-5.35 4.588-9.105 0-2.511-.798-4.851-2.412-6.955-1.587-2.185-3.8-3.863-6.638-5.141-1.859-.798-3.999-1.36-6.447-1.696-2.44-.371-6.538-.535-12.287-.535H0v2.04z"/></svg>