<svg xmlns="http://www.w3.org/2000/svg" role="img" viewBox="-4.59 -4.59 342.42 131.92"><title>Bullet Physics logo</title><path fill="#b3b3b3" d="M152.201 42.772l.009 3.66.24.289-.249-3.949zm0 0l.25 3.949-.01-3.587-.24-.362zm.08 32.93l.009 3.659.238-.357-.247-3.302zm0 0l.247 3.302-.008-3.587-.24.285zm7.476-32.911l-.008 36.551.093-.356-.085-36.195zm0 0l.085 36.195.007-35.834-.092-.361zm-39.534 3.55l31.987.09-.009-3.659-31.978 3.57zm34.99.09l4.544-3.64h-4.552l.009 3.64zm0 0l4.537 32.911.007-36.551-4.543 3.64zm-34.158 3.538l31.155-3.538-31.987-.09.832 3.628zm0 0l34.159-3.538h-3.004zm0 0l34.23 25.733-.071-29.27-34.16 3.537zm34.23 25.733l4.465 3.64-4.536-32.91.07 29.27zm-35.062-29.36l31.978-3.57h-33.04zm1.431 7.299l33.63 22.06-34.23-25.732zm.364 3.702l33.267 18.359-33.63-22.061zm.128 3.717l33.139 14.642-33.267-18.36zm-.11 3.717l33.249 10.925-33.14-14.642zm-.346 3.704l33.595 7.22-33.25-10.924zm-.582 3.674l34.177 3.547-33.595-7.221zm-.814 3.632l31.987-.085-31.173-3.547-.814 3.632zm31.987-.085h3.004l-34.177-3.547zm-31.987.085l31.996 3.574-.009-3.66-31.987.086zm35 3.555h4.456l-4.465-3.64.008 3.64zm-36.045.019h33.04l-31.995-3.574z"/><path fill="#ff9a00" d="M58.443 120.292l3.773.109 3.771-.126-7.544.017zm0 0l7.544-.017-11.301-.324 3.757.341zm-3.757-.34l11.301.323 3.757-.36-15.058.036zm0 0l15.058-.036-18.787-.538 3.729.573zm-3.73-.574l18.788.538 3.726-.59-22.513.052zm0 0l22.514-.052-26.198-.75zm-3.684-.802l26.198.75 3.68-.82zm0 0l29.879-.07-33.506-.96 3.627 1.03zm-3.627-1.03l33.506.96 3.621-1.046-37.127.087zm0 0l37.127-.086-40.68-1.165 3.553 1.252zm-3.553-1.251l40.68 1.165 3.548-1.269-44.228.104zm0 0l44.228-.104-47.695-1.365 3.467 1.469zm-3.467-1.469l47.695 1.365 3.46-1.485-51.155.12zm0 0l51.155-.12-54.522-1.56 3.367 1.68zm-3.367-1.68l54.522 1.56 3.359-1.696zm0 0l57.88-.136-61.133-1.75zm-3.253-1.886l61.134 1.75 3.243-1.9zm0 0l64.377-.15-67.504-1.933zm-3.127-2.083l67.504 1.932 3.116-2.097zm0 0l70.62-.165-73.607-2.107zm-2.987-2.272l73.607 2.107 2.977-2.287zm0 0l76.584-.18-79.42-2.274zm-2.836-2.454l79.42 2.274 2.825-2.466zm0 0l82.245-.192-84.92-2.431zm-2.676-2.623l84.92 2.431 2.663-2.636zm0 0l87.583-.205-90.085-2.578zm-2.502-2.783l90.085 2.578 2.489-2.796zm0 0l92.574-.218-94.894-2.716zm-2.32-2.934l94.894 2.716 2.306-2.943zm0 0l97.2-.227-99.329-2.844zm-2.129-3.071l99.329 2.844 2.113-3.081zm0 0l101.442-.237L9.5 89.843zM9.5 89.844l103.37 2.959 1.914-3.206zm0 0l105.284-.247L7.778 86.534zm-1.722-3.31l107.006 3.063 1.705-3.318zm0 0l108.711-.255L6.271 83.124zm-1.507-3.41l110.218 3.155 1.491-3.416zm0 0l111.709-.261L4.984 79.628zm-1.287-3.496l112.996 3.235 1.27-3.502zm0 0l114.265-.267-32.772-.002-81.493.27zm0 0l81.493-.27-1.166-.033-80.327.303zm0 0l80.327-.303-1.162-.106-79.165.409zm0 0l79.165-.41-1.153-.177zm0 0l78.012-.587-1.139-.25zm0 0l76.873-.836-1.12-.319zm0 0l75.753-1.155-1.099-.388zm0 0l74.654-1.543-1.07-.454zm0 0l73.583-1.997-1.04-.52zm0 0l72.542-2.517-1.005-.584zm0 0l71.537-3.1-72.598-.47zm-1.06-3.57l72.597.47-.966-.645zm0 0l71.631-.175-.923-.703zm0 0l70.708-.878-.876-.759zm0 0l69.832-1.637-.827-.812zm0 0l69.005-2.449-.772-.86zm0 0l68.233-3.31-69.066-.316zm-.833-3.626l69.066.316-.717-.907zm0 0l68.35-.591-.658-.95zm0 0l67.692-1.54-.596-.989zm0 0l67.096-2.529-.531-1.024zm0 0l66.565-3.553-67.164-.12.6 3.673zm-.599-3.672l67.164.12-.466-1.055-66.698.935zm0 0l66.698-.935-.397-1.081zm0 0l66.301-2.016-.327-1.103zm0 0l65.974-3.12-66.338-.582zm-.364-3.702l66.338.583-.256-1.122zm0 0l66.082-.539-.185-1.135zm0 0l65.897-1.674-.112-1.144-65.785 2.818zm0 0l65.785-2.818L2 61.34zM2 61.341l65.913.899-.039-1.15L2 61.342zm0 0l65.874-.25.035-1.15L2 61.341zm0 0l65.909-1.4.107-1.144L2 61.34zm0 0l66.016-2.544.181-1.136zm0 0l66.197-3.68-66.087-.038L2 61.341zm.11-3.718l66.087.038.252-1.122-66.34 1.084zm0 0l66.34-1.084.323-1.105zm0 0l66.663-2.19.393-1.081zm0 0l67.056-3.271-66.71-.432zm.346-3.703l66.71.432.462-1.056zm0 0l67.172-.624.527-1.026zm0 0l67.7-1.65.592-.99zm0 0l68.292-2.64.654-.952zm0 0l68.946-3.592-68.365-.083-.581 3.675zm.581-3.675l68.365.083.713-.91-69.078.827zm0 0l69.078-.827.77-.863zm0 0l69.848-1.69.823-.815zm0 0l70.671-2.505.874-.762zm0 0l71.545-3.267-70.73-.364zm.815-3.631l70.73.364.92-.706zm0 0l71.65-.342.964-.648zm0 0l72.614-.99 1.003-.587zm0 0l73.618-1.577 1.038-.523zm0 0l74.656-2.1 1.07-.459zm0 0l75.726-2.559 1.097-.391zm0 0l76.823-2.95 1.12-.323zm0 0l77.943-3.273 1.137-.252zm0 0l79.08-3.525-78.036-.049-1.044 3.574zm1.044-3.574l78.036.049 1.152-.182-79.188.133zm0 0l79.188-.133 1.162-.11-80.35.243zm0 0l80.35-.243 1.166-.039-81.516.282zm81.516-.281l32.75.013L6.165 39.538l80.246 3.22zm-81.516.281l81.516-.281-80.246-3.221zm1.27-3.502l112.995 3.234-1.286-3.496zm0 0l111.709-.262L7.657 36.121zm1.49-3.417l110.219 3.155-1.508-3.41zm0 0l108.711-.254L9.362 32.804zm1.706-3.317l107.005 3.063-1.721-3.31zm0 0l105.284-.247-103.37-2.959zm1.913-3.206l103.371 2.959-1.929-3.196zm0 0l101.442-.237-99.327-2.844zm2.115-3.081l99.327 2.844-2.128-3.072zm0 0l97.199-.228-94.894-2.716zm2.305-2.944l94.894 2.716-2.32-2.933zm0 0l92.574-.217-90.085-2.578zm2.49-2.795l90.084 2.578-2.503-2.783zm0 0l87.581-.205-84.92-2.432zm2.661-2.637l84.92 2.432-2.674-2.624zm0 0l82.246-.192-79.42-2.274zm2.825-2.466l79.42 2.274-2.837-2.453zm0 0l76.583-.18-73.606-2.106zm2.977-2.286l73.606 2.107-2.987-2.272zm0 0l70.62-.165-67.504-1.933zm3.116-2.098l67.503 1.933-3.126-2.083zm0 0l64.377-.15-61.133-1.75zm3.244-1.9l61.133 1.75-3.253-1.886zm0 0l57.88-.136-54.522-1.56zm3.358-1.697l54.522 1.56-3.366-1.68zm0 0l51.156-.12L39.826 6.21zm3.46-1.485l47.696 1.365-3.467-1.469-44.229.104zm0 0l44.229-.103L43.374 4.94l-3.548 1.268zm3.548-1.268l40.68 1.164-3.553-1.251-37.127.087zm0 0L80.5 4.854l-33.506-.96-3.621 1.047zm3.621-1.046l33.506.959-3.627-1.03-29.879.07zm0 0l29.88-.07-26.198-.75-3.682.82zm3.682-.82l26.197.75-3.685-.803-22.512.053zm0 0l22.512-.053-18.787-.537-3.725.59zm3.725-.59l18.787.537-3.728-.573-15.059.036zm0 0l15.059-.036-11.302-.323-3.757.359zm3.757-.36l11.302.324-3.758-.34-7.544.016zm0 0l7.544-.017L61.93 2l-3.771.126zm27.152 77.2l2.694-.322-1.143-.034-1.551.356zm0 0l1.166.034 1.528-.356-2.694.322zm-1.162-.106l2.713-.25-1.138-.104-1.575.354zm0 0l1.162.106 1.551-.356-2.713.25zm-1.153-.178l2.728-.176-1.13-.174zm0 0l1.153.178 1.575-.354zm-1.139-.25l2.737-.1-1.117-.245-1.62.346zm0 0l1.14.25 1.597-.35-2.737.1zm-1.12-.318l2.74-.026-1.099-.313-1.641.34zm0 0l1.12.319 1.62-.345-2.74.026zm-1.099-.388l2.74.05-1.077-.38-1.663.33zm0 0l1.099.388 1.641-.339-2.74-.049zm-1.071-.454l2.734.123-1.05-.446-1.684.322zm0 0l1.071.454 1.663-.33-2.734-.124zm-1.04-.52l2.724.198-1.02-.51zm0 0l1.04.52 1.684-.322zm-1.006-.584l2.71.271-.985-.571zm0 0l1.005.583 1.705-.312zm-.966-.644l2.69.344-.947-.632zm0 0l.966.644 1.725-.3zm-.923-.703l2.666.415-.905-.69zm0 0l.923.703 1.743-.288zm-.876-.76l2.637.485-.859-.744zm0 0l.876.76 1.761-.275zm-.827-.811l2.605.552-.81-.795zm0 0l.827.812 1.778-.26zm-.772-.86l2.567.617-.758-.844zm0 0l.772.86 1.795-.243zm-.717-.908l2.526.68-.702-.889zm0 0l.717.907 1.809-.226zm-.657-.95l2.48.741-.644-.931zm0 0l.657.95 1.824-.209zm-.596-.988l2.432.798-.584-.969zm0 0l.596.988 1.836-.19zm-.531-1.024l2.379.853-.521-1.004zm0 0l.53 1.024 1.849-.17zm-.466-1.054l2.324.903-.456-1.033zm0 0l.466 1.054 1.858-.15zm-.397-1.081l2.265.951-.39-1.06-1.875.109zm0 0l.397 1.081 1.868-.13zm-.327-1.104l2.203.995-.321-1.081-1.882.086zm0 0l.327 1.104 1.876-.109-2.203-.995zm-.257-1.12l2.139 1.034-.252-1.1-1.887.065zm0 0l.257 1.12 1.882-.086-2.139-1.035zm-.184-1.136l2.071 1.07-.18-1.113-1.891.043zm0 0l.184 1.135 1.887-.065-2.071-1.07zm-.112-1.144l2.002 1.101-.11-1.122-1.892.02zm0 0l.112 1.144 1.89-.043-2.002-1.101zm-.039-1.15l1.932 1.129-.038-1.127h-1.894zm0 0l.039 1.15 1.892-.021-1.931-1.128zm.035-1.149l1.859 1.151.034-1.126-1.893-.025zm0 0l-.035 1.15h1.894l-1.86-1.15zm.107-1.144l1.786 1.169.106-1.122-1.892-.047zm0 0l-.107 1.144 1.893.025-1.786-1.17zm.181-1.136l1.71 1.183.178-1.114-1.888-.069zm0 0l-.18 1.136 1.89.047-1.71-1.183zm.252-1.122l1.636 1.191.247-1.1-1.883-.091zm0 0l-.252 1.122 1.888.07zm.324-1.105l1.56 1.196.316-1.083-1.876-.113zm0 0l-.324 1.105 1.883.09-1.559-1.195zm.394-1.082l1.482 1.195.386-1.061zm0 0l-.394 1.082 1.876.113-1.482-1.195zm.46-1.057l1.408 1.19.452-1.034zm0 0l-.46 1.057 1.868.134zm.528-1.025l1.332 1.18.518-1.005zm0 0l-.527 1.025 1.86.156zm.593-.99l1.257 1.165.58-.97zm0 0l-.593.99 1.85.175zm.654-.952l1.183 1.147.642-.934zm0 0l-.654.952 1.837.195zm.713-.91l1.112 1.123.699-.892zm0 0l-.713.91 1.825.213zm.77-.864l1.041 1.095.755-.847zm0 0l-.77.864 1.811.231zm.824-.814l.972 1.062.807-.798zm0 0l-.824.814 1.796.248zm.873-.762l.906 1.026.856-.747zm0 0l-.873.762 1.779.264zm.92-.706l.842.985.903-.692zm0 0l-.92.706 1.762.28zm.965-.648l.78.94.945-.634zm0 0l-.964.648 1.744.293zm1.003-.587l.722.893.983-.576zm0 0l-1.003.587 1.725.306zm1.038-.523l.667.84 1.018-.513zm0 0l-1.038.523 1.705.317zm1.07-.459l.615.786 1.05-.45zm0 0l-1.07.459 1.685.327zm1.097-.391l.568.728 1.075-.384zm0 0l-1.097.391 1.665.337zm1.12-.323l.523.667 1.097-.317zm0 0l-1.12.323 1.643.344zm1.138-.253l.482.603 1.116-.247zm0 0l-1.138.253 1.62.35zm1.151-.181l.447.537 1.13-.179zm0 0l-1.151.181 1.598.356zm1.162-.11l.414.468 1.139-.108-1.553-.36zm0 0l-1.162.11 1.576.358-.414-.468zm1.166-.039l.387.4 1.143-.038-1.53-.362zm0 0l-1.166.039 1.553.36-.387-.399zm.065 36.6l33.66-.354-32.131-.001-1.53.356zm0 0l32.773.002.886-.356-33.66.354zm13.998 27.367l-1.663 1.349 2.918-2.242zm0 0l-2.977 2.286 1.314-.937zm2.825-2.466l-1.57 1.573 2.769-2.417zm0 0l-2.825 2.466 1.255-.893zm2.662-2.636l-1.463 1.792 2.61-2.585zm0 0l-2.662 2.636 1.199-.844zm2.489-2.796l-1.342 2.003 2.44-2.74zm0 0l-2.489 2.796 1.147-.793zm2.306-2.944l-1.208 2.206 2.26-2.886zm0 0l-2.306 2.944 1.098-.738zm2.113-3.08l-1.06 2.4 2.072-3.02zm0 0l-2.113 3.08 1.053-.68zm1.914-3.206l-.902 2.586 1.876-3.143zm0 0l-1.914 3.205 1.012-.62zm1.705-3.318l-1.705 3.318.974-.557zm2.673-43.507l-31.22.348 32.107.014zm0 0l-32.75-.014 1.53.362zm-4.516-10.215l2.665 3.806-1.688-3.245zm0 0l1.722 3.31.943.496zm-1.928-3.197l2.905 3.758-1.89-3.133zm0 0l1.928 3.197.977.561zm-2.129-3.07l3.143 3.695-2.087-3.011zm0 0l2.129 3.07 1.014.625zm-2.32-2.934l3.376 3.618-2.274-2.876zm0 0l2.32 2.933 1.056.685zm-2.502-2.784l3.604 3.526-2.454-2.73zm0 0l2.502 2.784 1.102.742zm-2.675-2.623l3.825 3.42-2.622-2.572zm0 0l2.675 2.623 1.15.797zm-2.837-2.453l4.04 3.3-2.782-2.404zm0 0l2.837 2.453 1.203.848zm-2.988-2.272l4.246 3.168-2.928-2.228zm0 0l2.988 2.272 1.258.896zm19.1 22.642l1.508 3.41.913.43zm0 0l2.421 3.84-1.477-3.343zm1.508 3.41l1.287 3.496.887.362zm0 0l2.174 3.858-1.26-3.428zm1.375 40.084l-1.27 3.502.911-.425zm0 0l-.359 3.077 1.245-3.433zm-1.27 3.502l-1.49 3.417.94-.492zm0 0l-.55 2.925 1.461-3.35zm-1.49 3.417l-.732 2.761 1.672-3.253zm46.268-29.599l-.001 8.772 69.084-4.386-69.083-4.386zM327.96 42.79h-165.2l-.001 7.31 165.201-7.31zM162.755 72.033l-.001 7.31h165.2l-165.199-7.31zm0 0l161.993 6.954-161.96-7.167-.033.213zm0 0l165.199 7.31-3.206-.356zm.004-21.931l161.996-6.95 3.205-.36zm0 0l.033.218 161.963-7.167L162.759 50.1z"/><path d="M122.212 84.107h15.614q7.399 0 11.191.426 3.83.426 6.172 1.733 2.342 1.293 2.342 4.181 0 1.954-1.673 2.724-1.636.77-6.506 1.183 5.428.454 7.361 1.513 1.933 1.045 1.933 3.218v2.063q0 2.256-1.412 3.343-1.376 1.086-4.425 1.485-3.048.4-12.492.4h-18.105zm15.652 3.81v4.951q1.003-.013 1.561-.013 2.305 0 2.937-.413.632-.427.632-2.407 0-1.046-.52-1.458-.52-.427-1.376-.537-.818-.11-3.234-.123zm0 8.417v6.231q3.309-.041 4.2-.385.93-.344.93-1.692v-2.077q0-1.43-.818-1.733-.818-.302-4.312-.344zm62.013-12.227v14.882q0 2.53-.446 3.562-.446 1.018-2.64 2.105-2.193 1.073-5.8 1.637-3.568.55-8.439.55-5.39 0-9.518-.66-4.126-.66-6.171-1.72-2.045-1.059-2.417-2.228-.372-1.183-.372-4.952V84.107h15.653v16.698q0 1.458.409 1.87.446.4 1.747.4 1.487 0 1.896-.441.446-.454.446-2.118v-16.41zm21.713 0v17.812h9.517v4.456h-25.17V84.107zm28.999 0v17.812h9.517v4.456h-25.17V84.107zm13.347 0h26.099v4.456h-10.447v4.223h9.778v4.236h-9.778v4.897h11.488v4.456h-27.14zm62.255 0v4.456h-9.295v17.812h-15.652V88.563h-9.257v-4.456z" style="" fill="#b3b3b3"/><path d="M73.933 38.692l-21.56-12.59L64.437 4.977l21.56 12.59zM56.118 61.064l-24.652-4.601 3.967-23.896 24.652 4.601zm5.295 25.706l-24.77 3.943-4.609-23.785 24.77-3.942zm15.126 4.473l-.341 24.601-24.692.32.341-24.602z"/><path d="M122.239 107.848h5.212q2.324 0 3.564 1.107 1.248 1.098 1.248 3.136 0 2.048-1.248 3.154-1.24 1.098-3.564 1.098h-2.072v4.513h-3.14zm3.14 2.431v3.633h1.737q.914 0 1.411-.47.498-.48.498-1.35 0-.872-.498-1.342-.497-.47-1.41-.47z" style=""/><path d="M137.15 107.848h3.485v4.958h5.14v-4.958h3.484v13.008h-3.484v-5.515h-5.14v5.515h-3.484z" style=""/><path d="M151.107 107.848h3.81l3.076 4.635 3.077-4.635h3.819l-5.15 7.528v5.48h-3.483v-5.48z" style=""/><path d="M177.11 108.075v2.753q-1.114-.48-2.172-.723-1.06-.244-2-.244-1.25 0-1.846.331-.598.331-.598 1.028 0 .523.399.82.407.287 1.466.496l1.484.287q2.253.436 3.203 1.325.95.888.95 2.526 0 2.152-1.33 3.207-1.321 1.045-4.045 1.045-1.285 0-2.58-.235-1.293-.235-2.587-.697v-2.832q1.294.662 2.497 1.002 1.213.331 2.335.331 1.14 0 1.747-.366.606-.366.606-1.045 0-.61-.416-.941-.408-.331-1.638-.593l-1.349-.287q-2.027-.418-2.968-1.333-.932-.915-.932-2.466 0-1.943 1.303-2.988 1.303-1.046 3.747-1.046 1.113 0 2.29.166 1.176.156 2.434.479z" style=""/><path d="M182.604 107.848h3.484v13.008h-3.484z" style=""/><path d="M201.974 119.96q-.959.478-2 .722-1.04.244-2.172.244-3.375 0-5.348-1.812-1.973-1.821-1.973-4.932 0-3.119 1.973-4.931 1.973-1.821 5.348-1.821 1.132 0 2.172.244 1.041.244 2 .723v2.692q-.968-.636-1.91-.932-.94-.296-1.981-.296-1.864 0-2.932 1.15-1.068 1.15-1.068 3.171 0 2.013 1.068 3.163t2.932 1.15q1.04 0 1.982-.296.941-.296 1.91-.932z" style=""/><path d="M215 108.075v2.753q-1.113-.48-2.172-.723-1.059-.244-2-.244-1.249 0-1.846.331t-.597 1.028q0 .523.398.82.407.287 1.466.496l1.484.287q2.254.436 3.204 1.325.95.888.95 2.526 0 2.152-1.33 3.207-1.322 1.045-4.045 1.045-1.285 0-2.58-.235-1.294-.235-2.588-.697v-2.832q1.294.662 2.498 1.002 1.213.331 2.335.331 1.14 0 1.746-.366.607-.366.607-1.045 0-.61-.417-.941-.407-.331-1.638-.593l-1.348-.287q-2.027-.418-2.968-1.333-.932-.915-.932-2.466 0-1.943 1.303-2.988 1.303-1.046 3.746-1.046 1.113 0 2.29.166 1.176.156 2.434.479z" style=""/><path d="M240.044 107.848h3.484v10.473h6.117v2.535h-9.601z" style=""/><path d="M252.783 107.848h3.484v13.008h-3.484z" style=""/><path d="M266.99 112.884q.823 0 1.249-.348.425-.349.425-1.028 0-.671-.425-1.02-.426-.357-1.25-.357h-1.927v2.753zm.118 5.69q1.05 0 1.574-.427.534-.427.534-1.29 0-.845-.525-1.263-.525-.427-1.583-.427h-2.046v3.407zm3.24-4.68q1.122.315 1.737 1.16t.615 2.073q0 1.882-1.321 2.806-1.321.923-4.018.923h-5.783v-13.008h5.231q2.814 0 4.072.82 1.267.818 1.267 2.622 0 .95-.461 1.62-.462.663-1.34.985z" style=""/><path d="M280.448 113.616q1.095 0 1.566-.392.48-.392.48-1.29 0-.888-.48-1.272-.47-.383-1.566-.383h-1.466v3.337zm-1.466 2.318v4.922h-3.484v-13.008h5.321q2.67 0 3.91.863 1.249.862 1.249 2.727 0 1.29-.652 2.117-.642.828-1.946 1.22.715.157 1.276.714.57.55 1.15 1.673l1.891 3.694h-3.71l-1.647-3.232q-.498-.976-1.014-1.333-.507-.357-1.357-.357z" style=""/><path d="M298.637 118.487h-5.448l-.86 2.37h-3.502l5.004-13.009h4.154l5.004 13.008h-3.502zm-4.58-2.414h3.702l-1.846-5.175z" style=""/><path d="M309.938 113.616q1.095 0 1.565-.392.48-.392.48-1.29 0-.888-.48-1.272-.47-.383-1.565-.383h-1.466v3.337zm-1.466 2.318v4.922h-3.484v-13.008h5.32q2.67 0 3.91.863 1.25.862 1.25 2.727 0 1.29-.652 2.117-.643.828-1.946 1.22.715.157 1.276.714.57.55 1.15 1.673l1.89 3.694h-3.71l-1.647-3.232q-.498-.976-1.013-1.333-.507-.357-1.358-.357z" style=""/><path d="M317.666 107.848h3.81l3.076 4.635 3.077-4.635h3.82l-5.15 7.528v5.48h-3.484v-5.48z" style=""/></svg>