<svg xmlns="http://www.w3.org/2000/svg" role="img" viewBox="-49.95 -49.95 2597.40 927.40"><title>Caligra logo</title><path fill="#2d2e2b" d="M1328.4 449.12c-17.24-15.38-29.92-32.59-38.07-52.5-8.16-19.02-12.69-39.84-12.69-62.47 0-47.98 18.13-87.82 53.5-117.69 35.34-29.87 81.58-45.26 137.8-45.26 29.93 0 57.12 4.53 82.51 13.58 24.47 9.05 46.23 21.71 63.46 38.93 10.87-20.82 28.11-36.21 51.66-46.17 23.58-9.97 48.05-12.66 74.35-8.14v110.44c-19.04-8.14-35.37-9.97-50.77-6.33-15.4 3.61-26.3 12.66-32.65 26.26.92 4.53 1.81 9.97 2.73 15.38.91 6.33.91 12.66.91 19.02 0 47.98-18.12 86.9-53.49 116.78-36.27 30.79-82.51 46.17-138.71 46.17-10.87 0-21.74-.91-33.53-2.72-11.8-.91-22.66-3.61-34.46-6.33-10.88 1.81-19.93 5.44-27.19 10.86-7.26 6.33-10.88 12.66-10.88 20.82s2.72 15.38 9.07 19.91c6.34 4.53 14.51 7.25 25.38 7.25h180.41c48.05 0 84.31 9.97 109.7 29.87 24.47 20.82 37.18 49.78 37.18 88.71 0 50.7-22.67 90.51-68.9 119.5-46.24 28.96-107.89 43.45-186.75 43.45-70.71 0-126.02-10.86-165.01-31.68-38.98-21.71-58.92-52.5-58.92-91.43 0-19.02 4.53-35.31 14.51-50.7 9.98-15.38 23.58-28.07 40.79-38.01-12.69-9.97-21.77-21.71-27.2-34.4-6.34-11.77-9.07-26.24-9.07-42.54 0-19.02 5.45-37.12 17.24-53.42 11.79-15.38 27.19-28.07 47.13-37.12l-.07-.02zM1468.93 412c26.3 0 47.13-7.25 62.57-20.82 15.4-13.58 22.66-32.59 22.66-57.03s-7.26-43.45-22.66-57.03c-15.4-13.58-36.27-20.82-62.57-20.82s-46.24 7.25-61.65 20.82c-15.4 13.58-22.66 32.59-22.66 57.03s7.26 43.45 22.66 57.03c15.4 13.58 35.37 20.82 61.65 20.82zm-119.67 271.56c0 19.02 9.98 33.49 30.84 43.45 19.93 9.05 51.66 13.58 95.17 13.58 46.24 0 81.59-5.44 107.89-16.3 26.28-10.86 38.98-26.24 38.98-45.26 0-13.58-4.53-24.43-12.69-30.79-9.06-6.33-23.57-9.05-43.51-9.05h-158.66c-18.13 0-32.64 3.61-42.6 11.77-9.98 8.14-15.4 19.02-15.4 32.59h-.02zM1055.1 0H945.88v654.07h109.22V0zm162.73 0h-113.09v111.8h113.09V0zm0 176.05h-111.8v478.02h111.8V176.05zm835.61-.75c-6.36-.91-11.82-.91-16.35-1.84h-14.56c-30.02 0-56.39 6.37-79.16 20.03-23.64 13.65-40.94 30.94-51.86 53.71v-71h-109.17v477.84h109.17v-251.2c0-36.43 10.92-65.53 33.66-88.3 22.73-21.84 51.85-32.78 88.26-32.78h20.02c6.38.91 12.73 1.84 20.03 2.74V175.26h-.02l-.02.02zM874.6 564.44c-6.37-4.54-10.02-13.63-10.02-27.29V331.62c0-53.67-15.49-94.59-47.36-122.76-31.87-28.2-77.39-41.85-136.59-41.85-49.2 0-91.07 12.73-126.59 38.2-35.52 25.45-60.11 60.02-72.85 102.75l102.88 23.64c6.37-24.54 17.28-41.85 32.78-53.67 14.58-10.91 34.61-16.35 59.2-16.35 27.33 0 48.27 6.37 61.94 18.19 13.65 12.73 20.03 30.92 20.03 55.48v8.19l-132.05 27.29c-54.64 11.82-94.72 29.1-121.12 53.67-26.4 24.54-39.15 57.27-39.15 96.4s15.47 74.58 45.52 100.94c30.03 26.38 69.23 40.01 115.63 40.01 30.08 0 58.27-4.54 82.88-14.56 24.59-9.1 43.71-21.82 59.2-39.1 8.21 20.01 23.66 33.64 46.45 40.92 21.87 7.28 51.9 9.09 91.07 4.54v-84.56c-15.49 1.81-25.49 0-31.87-4.54h.02zm-116.56-79.12c0 26.38-10.91 48.2-32.78 64.55-21.87 16.35-49.2 24.54-81.97 24.54-20.96 0-38.24-5.44-50.08-15.47-12.75-10.03-19.12-24.54-19.12-42.73s6.37-31.82 18.21-41.85c11.84-10.02 32.78-19.1 62.85-25.45l102.91-21.84v58.2l-.02.04z"/><path fill="#2d2e2b" fill-rule="evenodd" d="M2458.13 537.18c0 13.63 3.65 22.75 10.02 27.29h-.02c6.37 4.56 16.37 6.4 31.86 4.56v84.56c-39.15 4.56-69.2 2.74-91.07-4.54-22.77-7.28-38.24-20.91-46.43-40.92-15.49 17.26-34.61 30.01-59.18 39.11-24.61 10.02-52.82 14.56-82.88 14.56-46.43 0-85.6-13.63-115.65-40.01-30.06-26.38-45.52-61.83-45.52-100.94s12.74-71.86 39.14-96.4c26.41-24.54 66.49-41.85 121.12-53.67l132.06-27.29v-8.19c0-24.57-6.38-42.76-20.03-55.48-13.65-11.82-34.61-18.19-61.94-18.19-24.59 0-44.62 5.44-59.18 16.35-14.62 11.15-25.18 27.2-31.67 49.64l-98.99-34.41c13.7-35.96 36.52-65.51 67.86-87.95 35.51-25.45 77.39-38.2 126.59-38.2 59.17 0 104.72 13.63 136.58 41.85 31.87 28.17 47.37 69.09 47.37 122.76V537.2l-.05-.02zm-139.31 12.73c21.87-16.35 32.77-38.2 32.77-64.55v-58.23l-102.88 21.84c-30.07 6.37-51.01 15.45-62.86 25.45-11.83 10-18.21 23.66-18.21 41.85s6.38 32.71 19.12 42.73c11.84 10 29.13 15.47 50.09 15.47 32.77 0 60.1-8.19 81.97-24.54v-.02zm-2015.99-3.92c-19.1 15.49-41.85 23.68-68.21 23.68-38.2 0-68.21-13.65-90.93-41.92-22.75-27.33-34.57-64.67-34.57-112.03s11.82-84.69 34.57-112.95c22.75-28.24 52.74-41.92 90.93-41.92 26.38 0 49.13 8.21 68.21 23.68 16.4 14.05 28.08 32.84 35.68 55.72 32.27-11.22 64.51-22.44 96.78-33.66-.55-1.75-1.13-3.52-1.68-5.27-13.68-40.74-38.18-73.36-73.5-97.84-35.48-24.59-77.3-36.45-125.5-36.45-33.66 0-65.48 6.37-94.59 18.21-30.01 12.75-55.48 30.96-76.37 53.73-20.91 22.77-36.38 48.29-47.29 78.32C5.44 347.36 0 380.14 0 415.68s5.44 67.41 16.35 97.46c10.91 30.05 26.38 56.45 47.29 79.25 20.91 22.75 46.39 40.99 76.37 52.83 29.1 12.75 60.95 19.12 94.59 19.12 48.2 0 90.93-12.75 127.32-38.24 35.47-24.59 60.02-58.29 73.67-100.19l-93.68-47.36c-1.92 9.52-5.97 23.68-15.11 38.82-8.01 13.28-17.13 22.62-23.99 28.61h.02z"/></svg>