<svg xmlns="http://www.w3.org/2000/svg" role="img" viewBox="-0.96 -1.96 1921.92 547.92"><title>CGAL (Computational Geometry Algorithms Library) logo</title><defs><style>.cls-1{fill:#d3d3d3}.cls-2{fill:#feff00}.cls-3{fill:#ccc}</style></defs><path d="M262.035 509.89a219.982 219.982 0 1 1 155.55-64.432 218.542 218.542 0 0 1-155.55 64.431zm0-435.838a215.856 215.856 0 1 0 152.633 63.223 214.44 214.44 0 0 0-152.633-63.223z" class="cls-1"/><path d="M231.196 435.97c-91.217 0-165.428-74.211-165.428-165.429s74.21-165.429 165.428-165.429 165.429 74.211 165.429 165.429-74.21 165.429-165.429 165.429zm0-326.732c-88.943 0-161.302 72.36-161.302 161.303s72.36 161.303 161.302 161.303S392.5 359.484 392.5 270.54s-72.36-161.303-161.304-161.303z" class="cls-1"/><path d="M304.116 412.062a60.87 60.87 0 1 1 60.87-60.87 60.939 60.939 0 0 1-60.87 60.87zm0-117.615a56.744 56.744 0 1 0 56.744 56.744 56.808 56.808 0 0 0-56.744-56.744zm-59.39-1.984a34.69 34.69 0 1 1 34.69-34.69 34.729 34.729 0 0 1-34.69 34.69zm0-65.254a30.564 30.564 0 1 0 30.564 30.564 30.599 30.599 0 0 0-30.564-30.564zm79.261-50.981a34.69 34.69 0 1 1 34.69-34.69 34.729 34.729 0 0 1-34.69 34.69zm0-65.254a30.564 30.564 0 1 0 30.564 30.564 30.598 30.598 0 0 0-30.564-30.564z" class="cls-1"/><path d="M242.663 107.175h4.126v304.808h-4.126z" class="cls-1"/><path d="M103.194 257.516h330.424v4.126H103.194z" class="cls-1"/><path d="M435.681 452.832H52.776V69.926H435.68zm-378.78-4.126h374.654V74.052H56.902z" class="cls-1"/><path d="M135.938 73.007l3.589-2.035 186.255 328.403-3.589 2.035z" class="cls-1"/><path d="M122.895 325.1l305.126-174.485 2.047 3.581-305.125 174.486z" class="cls-1"/><path d="M363.365 395.5l-.883-4.03c.312-.068 31.418-6.978 50.443-19.289 19.154-12.393 36.333-29.49 36.504-29.66l2.917 2.917c-.174.174-17.65 17.57-37.18 30.207-19.66 12.721-50.499 19.57-51.801 19.855zm.169 40.377l-1.221-3.94c.27-.084 27.254-8.47 43.795-15.41 15.373-6.448 47.287-27.576 47.608-27.789l2.28 3.438c-1.322.877-32.559 21.556-48.292 28.157-16.726 7.016-43.897 15.46-44.17 15.544zm98.754-253.753c-.328-.254-32.892-25.48-46.993-33.852-15.468-9.184-52.673-22.113-53.047-22.243l1.35-3.898c1.544.535 37.975 13.196 53.804 22.594 14.32 8.502 46.07 33.096 47.414 34.14z" class="cls-1"/><path d="M457.795 133.85c-.266-.179-26.8-18.01-45.557-28.401-17.364-9.62-40.593-16.379-47.152-17.408.143 12.46-6.166 43.135-6.452 44.516l-4.04-.835c.074-.354 7.303-35.496 6.278-45.423l-.011-.201a2.209 2.209 0 0 1 1.103-1.925c2.117-1.257 12.09 1.564 20.083 4.153 7.01 2.27 20.513 7.045 32.19 13.514 18.915 10.48 45.594 28.408 45.862 28.588z" class="cls-1"/><path d="M262.035 66.028c-49.936 1.918-73.909 3.72-120.83 28.722-47.965 25.558-98.313 75.454-102.536 161.472-2.605 53.054 16.892 98.181 48.612 128.901 46.924 45.444 73.954 54.525 148.696 64.158 60.138 7.75 123.574-17.307 123.574-17.307s1.711-14.22 2.38-27.495c.541-10.732 2.491-39.368 2.491-39.368s-22.023 48.254-85.729 50.096-87.705-15.388-111.658-33.146c-28.14-20.862-66.074-55.174-67.791-125.338-1.396-57.014 15.49-73.213 28.146-93.882 14.617-23.874 49.446-52.54 93.237-58.085 38.568-4.884 70.734-5.193 117.049 10.072 20.854 6.873 18.938 31.51 18.938 31.51l8.49-65.497s-77.19-15.807-103.069-14.813z" class="cls-2"/><path d="M259.915 452.813a189.706 189.706 0 0 1-24.201-1.486c-75.375-9.715-102.518-18.866-149.868-64.722-34.254-33.174-51.74-79.514-49.238-130.484 4.736-96.47 66.958-143.653 103.626-163.19 47.135-25.117 71.379-27.03 121.722-28.964 25.837-.983 100.4 14.206 103.562 14.853l1.878.385-8.736 67.399-4.102-.425c.07-.938 1.511-23.117-17.528-29.392-45.267-14.92-76.864-14.96-116.144-9.985-42.28 5.354-77.192 33.36-91.737 57.116-1.752 2.862-3.618 5.688-5.42 8.421-11.609 17.59-23.612 35.78-22.423 84.334 1.637 66.884 36.643 101.257 66.958 123.73 22.933 17.004 46.64 34.586 110.37 32.742 61.707-1.784 83.697-48.42 83.912-48.89l4.704-10.307-.77 11.304c-.019.286-1.954 28.74-2.489 39.331-.664 13.195-2.375 27.495-2.392 27.638l-.147 1.22-1.143.452c-.554.219-48.59 18.92-100.394 18.92zm2.2-384.724c-49.688 1.91-73.608 3.793-119.94 28.482-27.053 14.415-50.211 34.281-66.97 57.451-20.967 28.988-32.567 63.407-34.476 102.3-2.443 49.768 14.599 94.984 47.987 127.32 46.488 45.022 73.22 54.016 147.525 63.593 54.516 7.027 112.575-13.462 121.405-16.745.425-3.737 1.68-15.308 2.225-26.115.348-6.891 1.285-21.292 1.906-30.645a95.662 95.662 0 0 1-14.94 17.262c-12.547 11.452-34.544 25.307-68.085 26.277q-4.741.137-9.206.136c-58.306.001-81.381-17.112-103.74-33.687-31.067-23.032-66.943-58.275-68.624-126.945-1.22-49.847 11.702-69.43 23.103-86.706 1.866-2.829 3.63-5.5 5.345-8.303 15.548-25.392 50.87-53.5 94.738-59.055 39.867-5.046 71.947-5.003 117.953 10.16 10.578 3.486 15.698 11.262 18.159 18.459l6.331-48.845c-11.965-2.396-77.6-15.282-100.697-14.394z"/><path d="M738.439 508.338a219.982 219.982 0 1 1 155.55-64.431 218.542 218.542 0 0 1-155.55 64.43zm0-435.837a215.856 215.856 0 1 0 152.633 63.223A214.44 214.44 0 0 0 738.439 72.5z" class="cls-1"/><path d="M707.6 434.418c-91.217 0-165.428-74.21-165.428-165.429s74.21-165.428 165.429-165.428 165.428 74.21 165.428 165.428-74.21 165.429-165.428 165.429zm0-326.732c-88.942 0-161.303 72.36-161.303 161.303s72.36 161.304 161.304 161.304 161.302-72.36 161.302-161.304-72.36-161.303-161.302-161.303z" class="cls-1"/><path d="M748.197 353.548a36.62 36.62 0 1 1 36.62-36.62 36.661 36.661 0 0 1-36.62 36.62zm0-69.112a32.493 32.493 0 1 0 32.493 32.493 32.53 32.53 0 0 0-32.493-32.493z" class="cls-1"/><path d="M721.13 290.912a34.69 34.69 0 1 1 34.69-34.69 34.73 34.73 0 0 1-34.69 34.69zm0-65.254a30.564 30.564 0 1 0 30.564 30.564 30.599 30.599 0 0 0-30.564-30.564zm79.261-50.982a34.69 34.69 0 1 1 34.69-34.69 34.729 34.729 0 0 1-34.69 34.69zm0-65.254a30.564 30.564 0 1 0 30.564 30.564 30.598 30.598 0 0 0-30.564-30.564z" class="cls-1"/><path d="M719.067 105.623h4.126v298.855h-4.126z" class="cls-1"/><path d="M579.598 255.964h330.424v4.126H579.598z" class="cls-1"/><path d="M912.085 451.28H529.18V68.375h382.905zm-378.78-4.126H907.96V72.501H533.306z" class="cls-1"/><path d="M612.342 71.456l3.589-2.035 186.255 328.403-3.589 2.035z" class="cls-1"/><path d="M586.892 330.644l317.533-181.58 2.048 3.58-317.533 181.58z" class="cls-1"/><path d="M839.769 393.949l-.883-4.03c.312-.069 31.418-6.98 50.443-19.29 19.153-12.393 36.333-29.489 36.504-29.66l2.917 2.917c-.174.175-17.65 17.57-37.18 30.207-19.66 12.721-50.499 19.57-51.801 19.856zm.185 37.891l-1.254-3.93c.27-.087 27.263-8.72 43.812-15.662 15.317-6.426 43.255-27.503 43.535-27.716l2.49 3.29c-1.162.88-28.637 21.606-44.43 28.23-16.717 7.014-43.88 15.701-44.153 15.788zm98.738-251.268c-.327-.254-32.893-25.48-46.993-33.851-15.468-9.184-52.673-22.114-53.047-22.243l1.35-3.899c1.543.535 37.975 13.197 53.804 22.594 14.32 8.502 46.07 33.097 47.414 34.14z" class="cls-1"/><path d="M934.199 135.027c-.266-.179-26.8-18.01-45.557-28.402-17.364-9.62-40.594-16.378-47.152-17.407.143 12.46-6.166 43.135-6.452 44.515l-4.04-.835c.073-.354 7.303-35.495 6.277-45.422l-.01-.202a2.209 2.209 0 0 1 1.103-1.924c2.115-1.257 12.09 1.564 20.083 4.153 7.009 2.27 20.512 7.044 32.19 13.514 18.915 10.479 45.594 28.408 45.861 28.587zM804.771 329.203a36.62 36.62 0 1 1 36.62-36.62 36.661 36.661 0 0 1-36.62 36.62zm0-69.113a32.493 32.493 0 1 0 32.493 32.494 32.53 32.53 0 0 0-32.493-32.494z" class="cls-1"/><path d="M868.334 351.816a33.739 33.739 0 1 1 33.738-33.738 33.777 33.777 0 0 1-33.738 33.738zm0-63.351a29.613 29.613 0 1 0 29.612 29.613 29.646 29.646 0 0 0-29.612-29.613zm511.225 161.967H996.654V67.527h382.905zm-378.78-4.126h374.655V71.653h-374.655z" class="cls-1"/><path d="M1188.603 509.885a219.98 219.98 0 1 1 155.55-64.43 218.542 218.542 0 0 1-155.55 64.43zm0-435.837a215.856 215.856 0 1 0 152.632 63.223 214.444 214.444 0 0 0-152.632-63.223z" class="cls-1"/><path d="M1372.674 291.907a34.689 34.689 0 1 1 34.69-34.689 34.728 34.728 0 0 1-34.69 34.69zm0-65.252a30.563 30.563 0 1 0 30.564 30.563 30.598 30.598 0 0 0-30.564-30.563z" class="cls-1"/><path d="M998.908 254.412h377.734v4.125H998.908z" class="cls-1"/><path d="M1185.713 71.985h4.125v375.228h-4.125z" class="cls-1"/><path d="M998.908 318.315h377.734v4.125H998.908zm-.191-30.474h377.926v4.125H998.717z" class="cls-1"/><path d="M1005.11 292.716a34.69 34.69 0 1 1 34.688-34.689 34.728 34.728 0 0 1-34.689 34.69zm0-65.252a30.563 30.563 0 1 0 30.563 30.563 30.598 30.598 0 0 0-30.564-30.563z" class="cls-1"/><path d="M1376.803 445.408a47.73 47.73 0 1 1 47.73-47.73 47.785 47.785 0 0 1-47.73 47.73zm0-91.87a44.14 44.14 0 1 0 44.14 44.14 44.19 44.19 0 0 0-44.14-44.14zm-377.895 97.475a47.73 47.73 0 1 1 47.73-47.73 47.785 47.785 0 0 1-47.73 47.73zm0-91.87a44.14 44.14 0 1 0 44.14 44.14 44.189 44.189 0 0 0-44.14-44.14zm120.13 91.39a34.986 34.986 0 1 1 34.984-34.986 35.025 35.025 0 0 1-34.984 34.986zm0-67.34a32.354 32.354 0 1 0 32.354 32.354 32.39 32.39 0 0 0-32.354-32.353z" class="cls-3"/><path d="M1092.583 482.198a34.985 34.985 0 1 1 34.985-34.985 35.024 35.024 0 0 1-34.985 34.985zm0-67.339a32.354 32.354 0 1 0 32.354 32.354 32.39 32.39 0 0 0-32.354-32.354z" class="cls-3"/><path d="M1259.321 449.007a18.898 18.898 0 1 1 18.898-18.898 18.92 18.92 0 0 1-18.898 18.898zm0-33.67a14.772 14.772 0 1 0 14.773 14.772 14.789 14.789 0 0 0-14.773-14.772z" class="cls-1"/><path d="M1314.217 480.316a34.612 34.612 0 1 1 34.612-34.612 34.652 34.652 0 0 1-34.612 34.612zm0-66.62a32.009 32.009 0 1 0 32.009 32.008 32.045 32.045 0 0 0-32.01-32.009z" class="cls-3"/><path d="M1855.24 450.043h-384.056V65.987h384.055zm-379.931-4.126h375.805V70.113H1475.31z" class="cls-1"/><path d="M1851.44 101.198a33.148 33.148 0 1 1 33.148-33.148 33.186 33.186 0 0 1-33.148 33.148zm0-62.17a29.022 29.022 0 1 0 29.023 29.022 29.055 29.055 0 0 0-29.023-29.022zm-3.025 252.147a33.148 33.148 0 1 1 33.147-33.148 33.185 33.185 0 0 1-33.147 33.148zm0-62.17a29.022 29.022 0 1 0 29.022 29.022 29.055 29.055 0 0 0-29.022-29.022z" class="cls-1"/><path d="M1565.143 384.36l286.807-159.208 2.002 3.606-286.807 159.209z" class="cls-1"/><path d="M1715.468 398.582a45.26 45.26 0 1 1 45.26-45.26 45.31 45.31 0 0 1-45.26 45.26zm0-86.394a41.134 41.134 0 1 0 41.135 41.134 41.18 41.18 0 0 0-41.135-41.134z" class="cls-1"/><path d="M1763.125 367.388l-4.105-.414c.068-.677 6.273-68.515-38.864-144.116-24.278-40.667-66.026-64.629-96.773-77.57-34.88-14.68-67.545-20.486-79.943-20.697a48.516 48.516 0 0 0-.81-.007c-23.758 0-98.116 16.31-98.874 16.478l-.887-4.03c3.147-.693 77.342-16.99 100.642-16.566 12.705.217 46.06 6.116 81.472 21.02 31.317 13.18 73.864 37.63 98.716 79.257a284.154 284.154 0 0 1 37.11 102.366c4.022 26.654 2.387 43.572 2.316 44.28z" class="cls-1"/><path d="M1598.926 132.283a33.148 33.148 0 1 1 33.147-33.148 33.186 33.186 0 0 1-33.147 33.148zm0-62.17a29.022 29.022 0 1 0 29.022 29.022 29.056 29.056 0 0 0-29.022-29.022zm-126.258 62.17a33.148 33.148 0 1 1 33.147-33.148 33.185 33.185 0 0 1-33.147 33.148zm0-62.17a29.022 29.022 0 1 0 29.022 29.022 29.055 29.055 0 0 0-29.022-29.022zm97.234-2.063h-4.125a29.022 29.022 0 0 0-58.045 0h-4.125a33.147 33.147 0 1 1 66.295 0zm-98.078 380.646a33.148 33.148 0 1 1 33.148-33.149 33.186 33.186 0 0 1-33.148 33.149zm0-62.17a29.022 29.022 0 1 0 29.023 29.021 29.055 29.055 0 0 0-29.023-29.022zm1.422-130.957h378.642v4.125h-378.642zm-1.422 94.111h378.823v4.125h-378.823z" class="cls-1"/><path d="M1472.668 97.073h378.772v4.125h-378.772z" class="cls-1"/><path d="M832.353 141.538l8.443-53.963S804.771 63.061 710.315 70.39c-52.851 4.101-194.187 52.295-194.187 198.755 0 108.849 99.78 159.374 99.78 159.374s63.514 31.743 137.389 20.514c73.611-11.188 84.373-20.24 84.373-20.24s-3.803-93.762 10.07-120.503c3.676-7.084 19.152-18.381 19.152-18.381H750.994s16.809 12.692 20.186 19.912c9.596 20.515 2.794 100.742 2.794 100.742s-52.642 8.443-106.44-10.169c-41.063-14.207-122.753-80.047-82.79-202.274C619.295 92.443 743.685 84.9 800.39 107.359c31.204 12.359 31.962 34.179 31.962 34.179z" class="cls-2"/><path d="M721.176 453.473c-59.155.003-105.646-22.838-106.19-23.11-.263-.133-25.56-13.1-50.463-39.292-23.019-24.212-50.457-65.018-50.457-121.926 0-34.39 7.796-65.771 23.171-93.274 13.056-23.352 31.54-43.926 54.943-61.15 39.064-28.752 87.4-44.016 117.975-46.388 94.096-7.3 130.306 16.52 131.802 17.537l1.079.734-8.645 55.253-4.016-.242-.083.003c-.036-.84-1.218-20.68-30.66-32.34-32.747-12.97-90.395-16.412-139.585 6.676-36.267 17.023-60.943 44.883-73.342 82.806-21.56 65.943-6.023 112.49 10.808 139.925 20.29 33.075 50.765 52.863 70.696 59.759 47.528 16.443 94.664 11.495 103.84 10.305.892-11.494 5.773-79.861-2.738-98.055-2.592-5.543-14.999-15.695-19.56-19.14l-4.912-3.71h128.376l-5.106 3.73c-4.197 3.064-15.708 12.212-18.537 17.665-13.464 25.95-9.879 118.537-9.841 119.47l.041 1.01-.774.652c-.458.384-12.05 9.553-85.391 20.701a216.093 216.093 0 0 1-32.43 2.401zM743.952 71.1c-10.23 0-21.367.408-33.477 1.347-22.378 1.737-71.96 13.294-115.85 45.597-22.924 16.873-41.021 37.006-53.787 59.841-15.027 26.88-22.647 57.585-22.647 91.26 0 55.547 26.822 95.418 49.322 119.084 24.417 25.682 49.08 38.325 49.326 38.45.62.31 63.813 31.313 136.148 20.315 62.175-9.45 79.014-17.238 82.579-19.29-.176-5.087-.803-26.011-.125-49.195 1.049-35.857 4.571-59.801 10.469-71.169 2.523-4.863 9.937-11.342 14.939-15.368H756.91c5.37 4.42 13.732 11.833 16.137 16.975 9.718 20.775 3.26 98.493 2.98 101.79l-.135 1.608-1.593.255c-.531.085-53.775 8.31-107.44-10.257-20.575-7.118-52.004-27.495-72.864-61.5-17.286-28.177-33.263-75.923-11.212-143.364 12.586-38.498 38.697-67.98 75.51-85.259 50.3-23.609 109.312-20.063 142.857-6.778 16.666 6.601 24.808 15.934 28.703 22.601a38.54 38.54 0 0 1 1.934 3.762l6.756-43.18c-5.708-3.262-34.158-17.525-94.592-17.525z"/><path d="M830.815 173.94l-3.122-1.515c6.344-13.067 3.482-30.43 3.452-30.604l3.42-.583c.13.755 3.075 18.645-3.75 32.702z" class="cls-3"/><path d="M1473.246 401.22h378.194v4.125h-378.194zM349.138 181.369l-3.736-1.75c.091-.195 9.15-19.712 9.15-33.28h4.125c0 14.492-9.15 34.198-9.539 35.03zm774.724-110.376l3.96-1.16 12.953 44.255-3.96 1.159zm72.353 21.039l5.625-22.103 3.999 1.018-5.626 22.102zm532.518 373.033l9.784-18.806 3.66 1.905-9.784 18.806z" class="cls-1"/><path d="M1377.304 447.213s-32.936-9.724-37.61-19.189C1294.219 335.92 1188.49 68.05 1188.49 68.05h-35.26s-78.91 259.811-125.155 362.619c-3.439 7.645-29.166 16.544-29.166 16.544h118.2s-26.249-13.267-26.498-21.964c-.829-28.885 32.172-103.663 32.172-103.663h108.58s32.346 74.778 45.394 107.974c2.234 5.683-16.886 17.653-16.886 17.653zM1133.02 289.1l36.282-115.13 48.403 115.13z" class="cls-2"/><path d="M1391.575 449.276h-138.883l6.084-3.811c9.246-5.792 16.902-13.013 16.06-15.151-11.965-30.442-40.549-96.751-44.83-106.665h-105.872c-4.25 9.813-32.21 75.452-31.462 101.541.148 5.152 14.924 14.903 25.368 20.182l7.724 3.904H986.64l11.592-4.012c9.623-3.33 25.723-10.467 27.961-15.441 45.661-101.513 124.274-359.776 125.063-362.373l.444-1.463h38.193l.515 1.306c1.057 2.677 106.216 268.843 151.135 359.818 3.506 7.1 27.424 15.49 36.344 18.123zm-124.936-4.126h98.05c-10.277-3.828-23.712-9.87-26.844-16.212-43.366-87.83-142.678-338.403-150.757-358.825h-32.33c-6.469 21.185-80.83 263.644-124.802 361.402-2.27 5.047-12.18 10.195-20.12 13.635h99.19c-8.34-4.87-20.282-13.02-20.477-19.841-.352-12.242 4.998-33.583 15.9-63.431 8.075-22.113 16.363-40.938 16.447-41.125l.542-1.23h111.28l.538 1.244c.323.748 32.51 75.19 45.42 108.038 1.944 4.944-5.566 11.67-12.037 16.345zm-45.83-153.986h-90.601l38.816-123.177zm-84.976-4.126h78.768l-45.022-107.086z"/><path d="M1477.084 68.05s22.258 7.675 24.56 19.188 0 343.09 0 343.09l-28.398 16.885h267.103s12.153-22.573 16.118-37.61c3.327-12.616 4.605-56.03 4.605-56.03s-2.302 37.61-45.284 44.518-149.67 1.535-149.67 1.535l.768-306.247s9.978-26.864 21.49-25.329-111.292 0-111.292 0z" class="cls-2"/><path d="M1741.581 449.276h-275.84l33.849-20.127c.795-114.923 1.814-332.593.032-341.506-1.695-8.48-17.33-15.61-23.21-17.643l-12.073-4.172 12.77.16c37.08.463 90.9.92 106.926.544a9.74 9.74 0 0 1 4.614-.527c2.227.297 2.614 1.46 2.547 2.384-.146 2.012-1.475 2.114-6.325 2.238-6.915 3.034-13.669 17.209-15.924 23.129l-.761 303.903c14.742.682 108.193 4.675 147.274-1.605 17.184-2.762 29.734-10.785 37.304-23.846a47.617 47.617 0 0 0 6.25-18.76l4.12.186c-.052 1.782-1.323 43.796-4.673 56.495-3.982 15.1-15.795 37.131-16.296 38.062zm-260.83-4.126h258.355c2.444-4.66 11.998-23.3 15.367-36.072 1.909-7.242 3.142-25.2 3.835-38.757-5.526 11.642-17.288 25.803-42.194 29.806-42.7 6.863-149.03 1.612-150.1 1.559l-1.963-.1.773-308.58.128-.346c.746-2.008 5.673-14.775 12.86-21.916q-2.778.026-6.211.04c-9.309.034-22.272-.008-38.537-.123-17.553-.124-35.247-.31-45.92-.43 6.811 3.567 15.062 9.293 16.523 16.603 2.317 11.587.135 329.96.04 343.507l-.008 1.164z"/></svg>