<svg xmlns="http://www.w3.org/2000/svg" role="img" viewBox="-8.45 -8.95 569.40 164.40"><title>CGAL (Computational Geometry Algorithms Library) logo</title><path fill="#FFF" stroke="#FFF" d="M0 0h477.5l5 1 1-1H554v144H358.5v-1l7-1 14-7 7-1 3.5-3.5 1-4.5 14.5-1 7.5-6.5 2-8q-2.2-1.2-1-6l-6-7v-2l2-5 1-12-1-1v-13l-5-14-5-8V12H287.5l-.5.5v31q-10.4 14.1-10 39l1 1 1 12 2 4-3 1.5-4 7.5v6q1.5 6.5 6.5 9.5 6.1 3.4 17 2 11.6 13.4 32.5 17.5L0 144V0zm443 3l-2 1q-4 2-4 7-9-1-14 2l-5 7q-1 6 2 9l4 3-2 1q-4-1-3 2l7-2 2 1v71l-6 2-4 6 1 8q3 4 10 5h77l-1 2q-1 3 2 2l3-5h31V79l6-2 3-4q1-7-1-10l-6-5h-2V23l6-2 3-4q1-7-1-10-3-6-13-4-6 3-6 9h-63l-1-1h-9l-2-6-3-2h-9zm-237 7l-9 2h-48v40l-3 6-2 9v20l5 16v22h16q12 14 36 18h19l9-2q16-5 27-16h6v-7q7-7 10-16l4-15V66l-6-18v-2q2 1 1-1l-2-2-7-7 1-8 6 4q2 1 1-1l-6-5h-2V12h-37l-10-2h-9zM59 11l-6 2H8v39l-3 6-2 10v19l5 16v23h17q12 13 33 17h23l8-2q15-4 25-15h7v-7q11-12 14-31V67l-4-14-4-7 3 1v-3l-6-3-3-4 1-9 5 3q1 4 3 1l-7-6h-2V13H88l-6-2H59z"/><path fill="#FFF" stroke="#FFF" d="M445.5 4l7.5 2 2 5h-15.5l-.5-1.5 2.5-3.5 4-2zm93 0q6.4-.4 8.5 3.5l2 6-4.5 6.5-3.5 1v-9h-8.5l-.5-1.5 4.5-5.5 2-1zM150 13h22.5l.5 1.5 3 5.5q-9.4 4.4-16 12.5L150.5 47l-.5-34zm25.5 0l14.5.5-11.5 4.5-3-5zm58 0q7.6-1.5 6.5 2l-6.5-1v-1zm7.5 0h20v11l-20-8.5V13zm47 0h36.5l.5 2q-18.8 4.5-30 17.5l-6.5 8.5-.5-28zm72.5 0H399v26.5l-2-1L384.5 25l-16-9-8-2v-1zm112 0H484v8h-9v-3.5l-2.5-4.5zm12.5 0h44.5l.5 2.5 4 5-49 .5v-8z"/><path fill="#FFF" stroke="#FFF" d="M532 13h8v8l-6-2-2-6zM9 14h22.5l.5 1.5 3 4-14 11L9.5 47 9 14zm25.5 0l11.5.5-9.5 3.5-2-4zm62 0l2.5.5-2.5.5v-1zm3.5 0h20v10.5l-1.5-.5-18.5-8.5V14zm249 0q32.1 3.6 47 25.5l3 5v13l-7 3.5-2 7h-21.5l-.5-1.5-17-39-3-11 1-2.5zm76.5 0l2.5.5V30q-4.9.1-7-3.5l-1-7 3.5-4.5 2-1zm3.5 0h2.5l4.5 4.5V21h-7v-7zm33.5 0q8.3-1.3 10.5 3.5l-.5 3.5H458v-2.5l4.5-4.5zm-133 1q3.8-1.2 2.5 2.5l-1.5 3.5-2.5-4.5 1.5-1.5zm-4 1l3.5 6.5v4L315 68h-16.5l-.5-3.5-2-3.5-8-3.5v-12L299.5 31q10.4-10.1 26-15zm-82 3l17.5 8.5-.5 6.5-5-6-12-8v-1zm-139 1l15.5 7-.5 7-14-12-1-2z"/><path fill="#FFF" stroke="#FFF" d="M241 21q10 4.2 17 12.5l1 2-1.5-.5-16.5-7v-7zm-141 1q11.1 4.1 18 13.5l-1.5-.5-16.5-7v-6zm329 0l8 .5-4.5 6.5-3.5 1v-8zm28 0h16.5l.5 1.5-3.5 5.5-8 1q-4.8-2.6-5.5-8zm19 0h8v16.5l-2.5-1.5-12.5-5.5 5-3 2-6.5zm9 0h52.5l2.5 1v34.5l-1.5.5-15 10h-14q-6.2-12.8-16-22l-8.5-6.5V22zM60.5 23l3.5.5V59l-3.5 1L43 29.5l8.5-4.5 9-2zm139 0q5.4-.6 5.5.5V59q-3.8 1-5-1.5l-16-28q6-5 15.5-6.5zm6.5 0l14 4-2 5.5v4l4.5 6.5q2.3 2.7 8 2l3.5-1q-1 3 2 2l1.5-4 2.5 5.5L219.5 60l-6 2q-2.1-3.9-7.5-3V23zM65 24h4.5l9.5 4.5-2 8 5.5 7.5 8 1 3-2-.5 1.5q-1 3.8 2 2.5l1.5-5 3.5 4.5L72.5 63q-2.2-4-7.5-4V24zm11.5 0l6.5 1.5-3.5.5-3-1v-1zm142 0l4.5 1.5-2.5.5-2-2zm-131 2q5.6.5 7.5 4.5l1 6.5-12-8q-1.2-3 2.5-2l1-1zm139 0q7.9-.9 9.5 4.5l1 6-2.5-1.5-10.5-7.5 2.5-1.5z"/><path fill="#FFF" stroke="#FFF" d="M81.5 29L94 39.5q.8 2.3-1.5 1.5-1.3 3.3-7 2L80 38.5l-1-5 2.5-4.5zm141 0l12.5 9.5-2.5 3.5-5 1-6.5-4.5-1-5 2.5-4.5zM99 30l17 7.5-15 8.5-4-7.5 2-8.5zm83.5 0L199 60.5q-4 2.3-4 7.5h-29.5l-.5-.5v-8q3.6-19.9 17.5-29.5zm58.5 0l16 7.5-13.5 8.5-2.5-2.5V30zM40.5 31q2.3-.7 1.5 1.5l16 28q-4.6 2.7-4 8.5H23.5l-.5-.5v-8l5-16L37.5 33l3-2zm392 0l3.5.5V68h-6.5l-.5-.5V32l3.5-1zm24.5 0q16.4 2 27 10v27h-27V31zm-217.5 3l.5 6.5-2-1 1.5-5.5zm-122 5l2.5 1.5V69h-11q0-12.6-6-20.5l14.5-9.5zm141 0l2.5.5V68h-11v-3.5l-3-11-3-5 14.5-9.5zm-137 2l6.5 9.5 5 16v21l-7 20.5-4.5 2-.5-9.5 7-6-2.5-.5-4.5 3 .5-56zM262 41q2.7-1.1 2 1.5 6.3 7.8 9 19l1 14 1 1-1 1v9l-2 9-4 10-2.5 2.5-3.5 1v-9.5l1.5-.5 5.5-4.5-2.5-.5-4 3-.5-56zm223 2l11 8.5q7.2 6.6 10 16.5h-21V43zm-146.5 4l4.5 10.5V68h-10.5l-.5-2.5 6.5-18.5zm62 0l5.5 12.5-1.5-.5q-3.7.8-4.5-1.5l.5-10.5zm-300 2l3.5 5.5 3 9V69H74.5l-.5-5 26.5-15zm141 0l4.5 7.5 2 11.5h-7l.5-19zm45 0l.5 8.5-4.5 2.5-.5-1.5 4.5-9.5zm-47 1l.5 18h-24.5l-.5-4 24.5-14zm47 10l.5 17-6-3.5-1-7 4.5-5.5 2-1zm1.5 0q5.4.7 8 5.5V68h-8v-8zm110.5 0l.5 8h-7v-2.5l6.5-5.5zm1.5 0q4.7.5 7 4.5l1 7-3.5 4.5-4.5 1V60zm141.5 0l5.5 3.5 2 6-4.5 6.5-3.5 1 .5-17zm-480 1q4.6-1.4 2.5 4.5h-1L61.5 61z"/><path fill="#FFF" stroke="#FFF" d="M65 61q3.8-.7 5 2.5.8 2.3-1.5 1.5L65 67v-6zm138 0q3.3-1.3 2 3.5h-1l-1-3.5zm3 0l6 2.5-6 3.5v-6zm333.5 0l.5 7h-7.5l-.5-1.5 7.5-5.5zm-339 1l3.5 5.5-7 .5 3.5-6zm144 0l2.5 6h-3l.5-6zM58 63q2.7-1.1 2 1.5l3 4-7 .5 2-6zm13.5 3l.5 3-5-.5 4.5-2.5zm141 0l.5 2-3-.5 2.5-1.5zM165 69h29.5l.5 2.5q2.7 1.8-1.5 3.5l-23 13q-5.2-7.6-5.5-19zm32 0l5 .5-3.5 2.5-1.5-3z"/><path fill="#FFF" stroke="#FFF" d="M207.5 69q7-1.5 6.5 1.5l-3.5 4.5-3-6zm8.5 0l10 .5-5.5 7.5-8.5-.5q4-2.2 4-7.5zm21.5 0q3.8-1.2 2.5 2.5l-2.5-2.5zm3.5 0h7v8h-7v-8zm9 0h11v9l-11-1v-8zm38 0h8v2.5l-3.5 4.5-4.5 1v-8zm10 0h15.5l.5 2.5-2 6.5-19-.5 4-3 1-5.5zm33 0h12v8h-13.5l-.5-2.5 2-5.5zm13 0h4v1.5l3 6-7 .5v-8zm25 0h20.5l.5 3.5 3.5 4.5 1.5.5-23 .5-3-9zm23 0h7v8l-6-3.5-1-4.5zm37 0h6.5l.5.5V96h-6.5l-.5-.5V69zm28 0h27v21.5l-8.5 5.5H457V69zm28 0h21.5l1.5 1.5 2 5L485 90V69zm25 0l11 .5-7.5 4.5H511l-1-5zm15.5 0q5.9-2.1 4.5 2.5l5.5 6.5 4.5 1v17h-25v-8.5l-3-10 13.5-8.5z"/><path fill="#FFF" stroke="#FFF" d="M532 69h8v8l-6-2-2-6zM23.5 70h30l.5 1.5q2.8 1.8-1.5 3.5l-23 13-3.5-5.5L23.5 70zM56 70l4 .5-4 1.5v-2zm10.5 0l6.5.5-3.5 5.5-3-6zm9 0h31l.5 2.5v11L101.5 98q-2.4-4.1-1.5-11.5L98.5 84l-2 1q-4.5-8.5-19-7L71 80v-2.5l4.5-7.5z"/><path fill="#FFF" stroke="#FFF" d="M109 70h11v27.5l-5.5 4.5-13 6-.5-5.5q9.4-11.3 8-32.5zm119.5 0q9-1.5 10.5 4.5l-.5 2.5h-15l.5-1.5 1-3.5 3.5-2zm-166 1l1.5.5V77l-6-2.5 4.5-3.5zm141 0l1.5.5V77l-6-2.5 4.5-3.5zm3 1l2.5 4.5-3 .5.5-5z"/><path fill="#FFF" stroke="#FFF" d="M65.5 73l1.5 4q-3.8 1.2-1.5-4zm-10 2q2.2 4.9 8.5 4l-1 19.5 1 1V113l-14.5-4L34 96.5l-4-6L55.5 75zm141 0q2.7 4.6 8.5 4-3.1 3.6-2 12.5l2 3V112q-19.9-2.8-30-16.5l-3-4V89l24.5-14zm83 0l7.5 4v18.5l-2.5.5-2.5 1-3-15.5.5-8.5zm128 1q3 1.5 1.5 7.5L405.5 97l-5.5-1V79.5l2.5-.5 5-3zm103 2l2.5 10.5-4.5-3.5-5.5-2.5 7.5-4.5zM65 79q3.8-1 5 1.5L65.5 88l-.5-9zm148.5 0l7.5 5.5q1.5 7.6-2 6.5l-5.5-12zm36.5 0q4.9-.1 7 3.5l1 8-3.5 4.5-6 1-2.5-1.5 3-7 1-8.5z"/><path fill="#FFF" stroke="#FFF" d="M257.5 79l3.5.5v18q-7.6 7-19 9.5-1.3-7.5 3.5-10l7 1 6.5-4.5q2.3-3.2 1-10l-2.5-4.5zm30.5 0h22.5l.5 1.5-2 6.5h-21v-8zm85.5 0h25l.5.5V87h-22.5l-.5-1.5-2.5-6.5zm-296 1h9l9.5 7.5 3 10q-1.5 7.6-6.5 11.5l-3 2L73 82.5l4.5-2.5zm131 0l3.5 1.5 7 12q-2 3-7.5 2.5l-5.5-3.5v-10l2.5-2.5zm38 0q2.6-.8 1.5 2.5L244.5 93q-4-1.5-2.5-8.5l4.5-4.5zM70 84q2.7-1.1 2 1.5L87 112l-9.5 1-10.5-8.5-2-10L70 84zm428.5 1q10.6-.6 13.5 6.5l1 4.5-24-.5q1.3-5.7 5.5-8.5l4-2zM288 88h19.5l.5 1.5-6.5 18.5-3.5-7-6.5-3H288V88zm37.5 0H343v36l-12-.5 4-8q-.9-6.6-5.5-9.5l-8-1-2.5 1 6.5-18zm18.5 0h11.5l.5 2.5 10 23-6 3-1 4 1 3.5h-16V88zm33 0h22v8q-8.4.4-12 6.5l-1 4.5q-3 1.3-2-2.5L377 88zm110.5 3l.5 2.5-1 2.5q-3 1.3-2-2.5l2.5-2.5zm-245 3l.5 2.5h-1l.5-2.5z"/><path fill="#FFF" stroke="#FFF" d="M482.5 94q2.6-.7 1.5 2l-3-.5 1.5-1.5zm-263 1l1.5 2.5V113h-15V96q2.3 2.6 8.5 2l5-3zM429 97h7v10.5l-2.5-1.5-4.5-1v-8zm28 0l16 .5-16 8.5v-9zm20.5 0h6.5v12l-26-.5L477.5 97zm7.5 0q3-1.2 2 2.5 1.4 6.1 6 9l-8 .5V97z"/><path fill="#FFF" stroke="#FFF" d="M489 97h23.5l.5 2.5-6.5 8.5-9 1-7.5-6.5-1-5.5zm26 0h25v13h-25.5l-.5-2.5 1-1V97zm-118.5 1l2.5.5v14l-6.5 8.5-5.5-7.5v-6l5.5-7.5 4-2zm3.5 0q3.8-1 5 1.5l-4.5 10.5-.5-12zm-116 2h3v7.5h-1l-2-7.5zm4 0h3.5l5.5 3 2 3.5 1 7-4.5 7.5-7.5-9.5V100zm119.5 0q6 3.5 5.5 13.5l-6.5 8.5-6.5 2v-9.5l7.5-14.5zm-288 1l.5 9.5q-9.2 6.6-21 9.5 1.8-2.4 1-8.5l1.5-1.5 18-9zm140 0l1.5.5v9.5l-19 8v-8.5l1.5-1.5 16-8zM10 102q2.7-1.1 2 1.5L23.5 116l16.5 8.5-13.5.5q-11.6-8.8-16.5-23zm141.5 0q2.3-.7 1.5 1.5l10.5 11.5 15.5 8.5-12.5.5q-10.8-8.5-15-22zm130 0l5.5 10.5v11l-1.5-.5q-5.5-.4-7.5-4.5-2.8-2.7-2-9l3-6.5 2.5-1zm-216 3l7 8 1.5.5-5.5.5-3.5-1 .5-8z"/><path fill="#FFF" stroke="#FFF" d="M9.5 106q4.2 11.8 13.5 18.5L9 125l.5-19zm141 0q4.4 10.6 12.5 17.5l-13 .5.5-18zm171 1q8.6-1.1 10.5 4.5l1 5-3.5 5.5-3.5 1-2-6-8-3.5 2-4.5 3.5-2zm104 0l2.5.5V123q-5.6 1-7-3.5l-1-7 3.5-4.5 2-1zm3.5 0l5 2.5-5 .5v-3zm-165.5 4l.5 1.5-2 1 1.5-2.5zm165.5 0h7v7.5l-6.5 4.5-.5-12zm85.5 0H540v13h-29.5l-.5-1.5 4.5-11.5zM121 112l2 .5-2 1V112zm-1.5 1l.5 3.5-6.5 7.5-2 1H98q-1.7-4.1 2.5-3l19-9zm141 0l.5 3.5-7.5 7.5H241q-1.7-4.1 2.5-3l17-8zm28 3l4.5 7-4.5 1v-8z"/><path fill="#FFF" stroke="#FFF" d="M316 116q5.4.7 8 5.5l-.5 2.5-6.5-4.5-1-3.5zm48.5 0l3.5 2.5q.8 4.8-2.5 5.5l-3.5-1-1-3.5 1-2.5 2.5-1zm34 1l.5 6h-4v-1.5l3.5-4.5zm-279 3l.5 5-4-.5 3.5-4.5zm141 0l.5 4-4-.5 3.5-3.5zm-170 4l4.5.5-4.5.5v-1zm78 1h17l6 2h27l7-2h26l-2 3q-8.8 7.2-21 11l-9 2h-19q-21.3-3.7-32-16zm157.5 0h37.5l1 1h6.5l5 9-18.5 7-5 1h-17l-15-4-6.5-3.5q8 0 11-5l1-5.5zm-297.5 1l51 1 1-1h29l-2 3-19 10-8 2-14 1-1-1h-8l-13-4-14-8-2-3zm273 0q5.9-2.1 4.5 2.5l2 3-2.5-1.5-4-4z"/><path fill="#FFF" stroke="#FFF" d="M308 126h15.5l.5 1.5-3.5 4.5-7 1-4.5-3.5-1-3.5zm65.5 0l13.5.5-6.5 5.5h-3l-2.5-1-1.5-5zm15 2l-3 4-2 1 1-2 4-3z"/><path fill="#C6C6C6" stroke="#C6C6C6" d="M443.5 3h7l4.5 3.5 2 5h-1L450.5 4h-7L440 6l-2.5 6-.5-1.5 4.5-6.5 2-1zm94 0q9.4-1.4 11.5 4.5l-.5 1.5-3-4-8-1-5.5 4.5-.5 2.5-.5-2.5 6.5-5.5zm-329 7l5.5.5-5.5.5v-1z"/><path fill="#C6C6C6" stroke="#C6C6C6" d="M549.5 10l.5 5.5-4.5 5.5-4.5 1v36.5l2.5.5 5.5 4.5-.5 1.5-3-4-4.5-1v16.5l2.5.5 4.5-3.5 1.5-7.5.5 5.5-4.5 5.5-4.5 1v47h-32l.5-2 1 1H540v-13h-26.5v-1H540V97h-50.5q-1 0-.5 4.5l5.5 6.5 8.5 1.5-7.5.5-4.5-3-3-5.5V97l-3 .5v12h-1V97h-7.5l-19 11 1-2 15.5-8.5-17-1 19.5-.5 7.5-4.5V69h-26.5v-1H484V41.5l-9-6 1.5-.5 7.5 4V22h-9q.9 5.9-3.5 8l-3.5 1.5 6 3-1.5.5q-5.2-4-13.5-4l-.5-2-1.5.5 1-2-1-2h1l3.5 4.5 6 1 6.5-5.5-.5-3.5h-16v-1h16l.5-2.5-2.5-3.5-5-2-3 1v-1l3-1H541v8.5l2.5.5 4.5-3.5 1.5-7.5zM472 13l3 6 1 2h8v-8h-12zm13 0v8h50l-2-1-2-3 1-3v3q2 5 8 4v-8h-55zm0 9v19l7 4q11 9 16 23h18l10-8 4-1V22h-55zm1 20l-1 26h22l-7-12-14-14zm53 19l-4 2-3 4-1-1-3 2h12v-6l-1-1zm-54 8l1 22 24-14q1-4-2-6v-2h-23zm24 0l2 6h3l8-5-13-1zm16 0l-13 7v3l-1-2-11 7q7-1 11 3l1 3h1q1-5-1-6l1-4 2 16h25V78h-3l-4-2-2-3 1-3v3q2 5 8 4v-8h-15zm-27 16l-5 3-4 6 1 2h23l-1-5q-3-8-14-6zm-9 5l-4 3q-1 5 3 3l2-5-1-1zm-5 3l-5 3h5v-3zM77.5 11l2.5.5-2.5.5v-1zm121 0l2.5.5-2.5.5v-1zm22 0l2.5.5-2.5.5v-1zM149 12l46 .5-4.5 1.5-1-1H175l2 5.5h-1l-2-5.5h-24v36.5h-1V12zm78.5 0H262v13.5l8 6-2.5-1.5-5-3-.5 9.5 5.5 6.5 2.5 1.5-1.5-.5-1.5.5 2 3-2-1-4.5-6.5-.5 57.5 3.5-2.5 2-1-2 3-3.5 2.5v10l1.5.5 4.5-3.5q5.4-9.1 6.5-22.5l.5 5.5q-3.4 16.6-13 27v8.5h-7.5q-7.7 8.3-19 13l-13 4h-6v-1h6l13-4q10.3-4.2 17.5-11.5l-25-1 4.5-1.5 3.5 1q-1-3 2-2-1 3 2 2l-1-2.5 2-.5.5-11 .5 9 5.5-1 13.5-7.5-.5-10.5-18 9-1.5-3.5h1q-1.1 3.3 1.5 2.5l17.5-9V79.5q0-1-4.5-.5l2.5 3.5 1 7-4.5 6.5-9 1q-1.2-2.2-2.5.5l-1.5 2.5.5-1.5 1-3-2-3 3 1 2.5-7.5.5 2.5-2 7.5q8 1.7 11-2.5 2.7-2.3 2-8l-3.5-5.5-5-1q-2.6 1.4-2 6l-.5-4.5 2-3-1-1V69h-8v7.5h-1l-4.5-6.5-5-1-7.5 5.5-.5 2.5-.5-2.5 3.5-4.5 1.5-.5-12-.5v2.5l-4 6h2l-1 2 7 12.5q4.9-1.6 3 4l-3.5-1q-1.7 3.8-9 2l-3-2-1 18-.5-19.5q-2.7-2.3-2-8l2-6v-2l-.5-7.5-5.5 3.5 2.5 3.5 1.5.5-1.5.5-6-3-24 14v-1L196 73.5q.5-4.5-.5-4.5H165l-.5 2-.5-1.5v-2l.5-5.5.5 6h30.5l.5-2.5 4-6-17-30 2-1-1 2L204.5 66l.5-6-2-.5 2-.5.5-36 .5 36 9.5 4L240 49q1-5.7-2.5-8l-3 5 .5-1.5-.5-2.5q-2.3 3.2-9 2l-5.5-4.5-1-8 2-4.5-11-3.5 3.5-.5h2l3.5.5-3 1 6.5 2.5 2.5-1.5-2-1 1.5-.5 4.5 1.5-6 2L236.5 38l.5-3 2 .5-1 5 2 1q1.3-6.8-1-10l1.5-5.5 2 3 17 8 .5-1.5q-7.6-9.9-19-16 1.5-4.4-1.5-3.5l.5-1.5q.5-3-6.5-1.5l-2 1-4-1v-1zm13.5 1v3l5 2v1l-2-1q-3-1-2 2l12 7 7 8v-9l-13-6v-1l13 6V13h-20zm-18 15l-3 4 1 8 5 3q8 1 10-3l-13-12zm19 1l-1 16 2 1 4-1 11-7-16-9zm18 9l-16 10 5 14v4q-2-11-6-18l-2 2v18h8l1-1 1 1h10V40l-1-2zm-21 12l-29 17v1q5 2 4-1h1l1 1h24V51l-1-1zm-33 10l1 8 4-3q2 1 1-3l-6-2zm-6 2l-3 4v2h7l-2-4q1-3-2-2zm-3 7l1 4 6-3-7-1zm10 0l4 7 3-4v-3h-7zm30 0l1 2q2-1 1 2h1q2-6-3-4zm13 0v8l2 1h9v-9h-11zm-43 2v7l2-1-2-6zm3 8l-2 1-2 2v12l4 2q7 2 9-2l-7-13-2-2zm-5 6l-1 5h1v-5zm61 24l-4 2 1 4 3-4v-2zm-5 3l-13 7-5 1-2 4h14l6-6v-6zm0 7l-5 5h5v-5zm26-107h46.5l.5 2-7 1.5 4 7-2 .5-2-7q-23 5.1-35 22.5l-4 6V59q5.3-.6 8 3.5l2 5.5h16.5l1-1-1 2h-16l-.5 1.5-4.5 6.5-1.5.5 20 .5-.5 2-1-1H288v8h20.5l.5 1.5-1.5-.5H288v10l2 .5-2 .5v13.5l7 9-2 1 1-1-3-3-2.5-4.5-.5 11h35.5l1.5-1.5-4.5-6.5-4.5-1.5 2.5-.5 5.5 3.5 2 5.5 6-3.5 1-8-3.5-4.5-4.5-1.5 3.5-.5q6.9 2.1 5.5 12.5l-4 5 13 .5.5-36 .5 36h16.5l.5-1.5-1-4 1-2.5 5.5-1 1 2-4-1q-3.2.8-2.5 5.5l4.5 3.5h34l-.5-1.5-.5-7.5-4.5 5.5.5 1.5-2.5-1.5 3-2 4-6V97q-6.8.5-10 5.5l-3 8 1 2h-1l-1-3q1.9-7.7 7.5-11.5l6.5-2v-8h-21.5l-1.5.5-1-2 1.5.5H399v-8h-25.5l-1 1-.5-2 24-.5-4-3-2-5.5h-20.5l-1 1-1.5-2.5 1.5.5h21l.5-1.5 3.5-5.5 5.5-2V43.5q-5.7-10.8-15.5-17.5L368 17.5l1.5-.5q13.2 5.8 22.5 15.5l6.5 8.5.5-28-42 .5 10 3-1.5.5-16-4-1.5 4-2-.5 2-3-3-1 55-.5v31.5q6.7 9.8 10 23v21l-3 10 7 9v9l-3 5.5q-6.5 5.9-20 5-.4 4.7-4.5 7l-7 1q-7 6-18 8v-1q9.5-1.5 15.5-6.5.8-2.2-1.5-1.5-3.6-2.1-3.5-7h-6.5l-1-1H326l-4.5 8-9 1-4.5-3.5-2.5-4.5-5.5.5q10.2 10.8 27 15l-2.5.5q-16.2-4.8-26-16-16.7 1.8-22.5-7.5-2.5-3.5-1-11l4.5-6.5q3 .9 1.5-3.5l-3-10v-21l3.5-9.5.5 2.5-.5 1.5 5.5-2-.5-12-4 9-.5-1.5 5-9V12zm1 1l1 29 5-7q12-15 32-20l-1-2h-37zm39 0v1h4l-4-1zm74 33l-1 13 6 2h1l-6-15zM286 60l-2 1-4 4-1 5 2 5 6 2V61l-1-1zm2 0v8h9l-1-3q-2-5-8-5zm110 0l-2 1-5 6 1 1h7v-7l-1-1zm2 0v17l6-1q4-3 2-11-2-5-8-5zm-112 9v8l6-1 3-5v-2h-9zm103 0l2 6 6 2v-8h-8zm-111 4l-1 15 3 11 3 1h-2l3 9h1v-9l-1-1 1-1V78l-4-1-3-4zm129 1l-5 4-4 1v17l7 1 2-9V74zm-9 23l1 14 5-13-6-1zm8 2l-8 15v10l8-2 5-6q2-13-5-17zm-126 2l-6 7q-2 8 2 12 3 4 9 4v-12l-5-11zm26 25l1 5 4 2 9-1 3-5-17-1zm65 0v3l5 4h3l7-6-15-1zm17 0l-6 5-1 2 4-1 3-4v-2zm36.5-114l4.5 1.5-2 .5v7h7l.5-2 .5 3h-8v8q5.6 1 7-3.5l.5-1.5.5 1.5-1.5 2.5 1.5.5-8 2.5v35.5l.5.5h7v1h-7l-.5.5V96l8 .5-8 .5v13h5.5l-2-3-2.5-.5 2.5-.5 3.5 2.5.5-7.5.5 16.5h-1V111h-7v11.5l1.5.5 5-4-3 4-7 2-6.5-5.5.5-3.5 4 7 4.5 1-.5-18-7.5 5.5-.5 2.5-.5-2.5 3.5-4.5 5.5-2.5v-72l-1.5-.5-6 3 1-2 4.5-1.5-6-4-1-4h1l2.5 5.5 5.5 2V13.5l-1.5-.5v-1zM8 13l43 .5-3.5 1.5-1-1H34l3 5.5-2.5 1.5.5-1.5-2-5.5H9v35.5L8.5 51 8 13zm82.5 0H121v13.5l1.5.5 6.5 4.5-1.5-.5-6.5-3v9.5l6.5 6.5 2.5 1.5-1.5.5-1.5-.5 5 11 1 6h-1q-2.3-14.2-10.5-22.5l-.5 57.5 1.5-.5 4-3-3 4-2.5 1.5.5 11.5 5.5-4.5q5.5-8.5 6.5-21.5l.5 5.5q-3.7 16.3-13 27v8.5h-7.5q-12.4 13.1-35 16v-1q21.1-2.4 32.5-14.5l-29-1 6.5-1.5 6.5 1 1.5-3q2.6.7 1.5-2h3.5l18.5-8-.5-12-19 10-.5-6.5h1q-2.1 5.8 2.5 4.5l16.5-9.5V70h-11l-.5 10-.5-10H74.5l-.5 2.5-4 6 1 2.5 7.5-2v1L73 81l3 8.5 13 22-2-1L71.5 83q-8.7 3.8-6.5 18.5l7.5 9.5 7.5 2.5-3.5.5-8.5-5.5-2.5-4.5-.5 8.5.5 1.5-2.5-.5 1-1V79l-9.5-4L30 89l1 2.5-2-1-1-2 2.5-.5L55 73.5l-.5-3.5h-31v-1h31l.5-3.5 4-5-17-30h1L59 60l3 .5-1 2 2.5 4.5.5-6.5v-2l.5-35.5.5 35.5 1.5 1.5h2l4 4L100 47.5 96.5 41l-3 5 .5-1.5q.8-2.2-1.5-1.5l-3 1v-1q5 .5 5.5-3.5L84.5 30 80 29q-1.7 2.4-1 8.5l4.5 5.5 3.5.5-3.5.5q-6.9-2.1-5.5-12.5l2-3q-4.3-4.2-12-5l7.5-.5v2l6 2 2-1-.5 1.5q-.7 2.3 1.5 1.5l9.5 7q-1 3 2 2-1.5-3.8 1.5-3l-.5 1.5v4l4.5 6.5 15.5-9.5-18-9 .5-2.5.5 3 7.5 2 11.5 6v-1.5l-8.5-8.5-10.5-6v-4h1.5l18.5 8V14h-20l-.5 2-.5-2-5.5 1-3-1v-1zm11.5 5l-1 2q11 5 19 15v-9l-18-8zm15 21l-15 9 6 14v4q-2-10-6-17l-4 1-25 14 1 5h34v-1h1l1 1h10V40l-3-1zM66 60v8l4-3q2 1 1-1l-5-4zm-6 2l-4 4v3h7l-3-7zm12 3l-6 4h7l-1-4zm-16 5l1 3 4-2-5-1zm8 0l-7 5 7 3v-8zm2 0l2 5q-1 2 3 1l2-3v-3h-7zm0 2l-1 6 3-1-2-5zm2 6l-3 1 1 10 5-7-1-2-2-2zm56 32l-3 3 1 2 3-4-1-1zm-5 3q-8 6-19 8l-3 4h16l2-1 5-6q2-6-1-5zm1 6l-5 6h5v-6zM423.5 13l1.5.5-4 3-1.5 4.5-.5-2.5 4.5-5.5zm-250 8l-1 2 1-2zm-117 2l2.5.5-2.5.5v-1z"/><path fill="#C6C6C6" stroke="#C6C6C6" d="M80.5 24l2.5.5-2.5.5v-1zm89 0l-1 2 1-2zm-142 1l-2 3 2-3zm154 5l-1 2 1-2zm-162 3l-2 3 2-3zm17 0l-3 4 3-4zm122 2l-1 2 1-2zm16 2l-1 2 1-2zm-159 1l-1 2 1-2zm-2 3l-1 2 1-2zm256 8q5 7 5.5 18.5h-1l-1-8-3.5-10.5zm74 9l1.5 2.5-1 1V68l3.5-1 .5 2h-4v7.5h-1V69h-11.5l-1.5.5 1.5-1.5H343l.5-10zm-210 6l.5 4.5h-1l.5-4.5zm-130 4L4 81.5H3L3.5 68zm141 0l.5 2.5h-1l.5-2.5zm131 1l.5 13.5h-1l.5-13.5zm-141 1l.5 13.5h-1l.5-13.5zm-111 2l.5 2.5h-1l.5-2.5zm121 2l.5 7.5h-1l.5-7.5zm-64 4l3.5.5-3.5.5v-1zm5 1q7.5.5 10.5 5.5l1.5 2.5 1-2 3 14 4.5-9.5 1.5-8.5.5 4.5-6.5 15.5-1.5-1.5-3-12-5.5-5.5-6-2v-1zm-81 4L6 88.5v4l.5 1.5 1.5-.5L6.5 97 4 89.5l.5-6.5zm141 1l1.5 4.5v4l.5 1.5 1.5-.5-1 3h2q-1.5 4.4 1.5 3.5l1 2q-1.2-2.2-2.5.5 5.5 13 15.5 21.5h14l1-1 3.5 1.5-17 1q13 13.5 37 16l-6.5.5q-20.3-4.2-32-17H149v-24.5l-4-11 .5-5.5zm5.5 21l-1 19h14q-9-8-13-19zm70.5-19l.5 3.5h-1l.5-3.5zm-49 6l1 2-1-2zm-141 1l1 2-1-2zm143 2l7 8-7-8zm-166 1l.5 4 3 1.5-1.5-.5q-2.2-.7-1.5 1.5 5.8 13.7 16.5 22.5h16l1-1 4.5 1.5-20 1q12 12 33 15l-4.5.5q-12.6-2.9-22-9l-8-7H8v-25.5l-1-2L8.5 96zm1.5 9l-1 20h14q-8-9-13-20zm24.5-8l4 5-4-5zm187 0l.5 15.5q-.7 2.3-4.5 1.5v-1l3.5-.5.5-15.5zm70 2l6.5 3.5 2 4h-1l-4.5-5.5q-3.7-.3-3-2zm223 4l.5 2.5h-1l.5-2.5zm-472 1l1 2-1-2zm142 0l1 2-1-2zm-89 2l-2 3 2-3zm225 0l3.5.5q-5.1-.1-6.5 3.5l-.5-1.5 3.5-2.5zm-304 2l5 6-5-6zm284 0q2.8 1.3.5 2.5l-.5 2.5v-5zm-142 1l3 4-3-4zm50 4l3.5.5-3.5.5v-1zm-43 2l1 2-1-2zm3 2l1 2-1-2zm220 0l1 2-1-2zm-91 2l-1 2 1-2zm20 1l2 3-2-3zm190 5l.5 1.5-1.5 2.5-.5-1.5 1.5-2.5zm-455 1l3.5.5-3.5.5v-1zm21 0l3.5.5-3.5.5v-1zm122 0l4.5.5-4.5.5v-1zm16 0l4.5.5-4.5.5v-1zm-150 16l15.5.5-15.5.5v-1zm144 0l9.5.5-9.5.5v-1zm123 0l11.5 1.5-7.5.5-4-1v-1zm28 0l3.5.5q-4.1 2.4-11.5 1.5v-1q6.3 1.8 8-1z"/><path fill="#D9D900" stroke="#D9D900" d="M63.5 12l12.5.5-12.5.5v-1zm139 0l4.5.5-4.5.5v-1zm12 0l3.5.5-3.5.5v-1zm121 1l8.5.5-8.5.5v-1zm99 0l25.5.5q-1.2 2.8-2.5.5h-23v-1zm-195 7l.5 3.5h-1l.5-3.5zm216 0l.5 91 45 .5-44.5.5-1.5-1.5.5-90.5zm-396 1l13.5.5-13.5.5v-1zm39 0l.5 3.5h-1l.5-3.5zm101 0l2.5.5-2.5.5v-1zm11 0l5.5.5-5.5.5v-1zm228 0l.5 47.5h-1l.5-47.5zm-360 1l2.5.5-2.5.5v-1zm142 0l2.5.5-2.5.5v-1zm-47 1l-1 2 1-2zm-3 2l-2 3 2-3zm-127 1l-1 2 1-2zm-16 1l-8 9 8-9zm13 1l-1 2 1-2zm141 0l-1 2 1-2zm57 0l.5 2-2-.5 1.5-1.5zm-142 1q2.3-.7 1.5 1.5L96.5 29zm-59 1l-7 8 7-8zm124 4l-2 3 2-3zm11 3l-1 2 1-2zm-155 1l-1 2 1-2zm140 1l-1 2 1-2zm-130 3l-1 2 1-2zm128 0l-1 2 1-2zm182 1l2.5 1.5-1.5-.5-1-1zm-316 16l.5 6.5h-1l.5-6.5zm125 5l.5 3.5h-1l.5-3.5zm-141 1l.5 2.5H5l.5-2.5zm16 2l.5 4.5h-1l.5-4.5zm142 5l.5 2.5h-1l.5-2.5zm-158 7l.5 2.5H5l.5-2.5zm141 0l.5 2.5h-1l.5-2.5zm73 0l1 2-1-2zm24 0l-1 2 1-2zm80 7h33l1.5 1.5-1.5-.5h-33v-1zm-153 6l1 2-1-2zm-141 1l1 2-1-2zm144 3l2 3-2-3zm-141 1l7 8-7-8zm-20 3l1 2-1-2zm141 0l1 2-1-2zm-139 3l2 3-2-3zm166 0l1 2-1-2zm-24 1l2 3-2-3zm-114 2l1 2-1-2zm54 1l-3 4 3-4zm2 3l.5 2.5h-1l.5-2.5zm-74 3l1 2-1-2zm141 0l1 2-1-2zm39 1l2.5.5-2.5.5v-1zm-137 1l8.5.5-8.5.5v-1zm145 0l3.5.5-3.5.5v-1zm87 4l-3 4 3-4zm16 1l1 2-1-2zm76 2l1 2-1-2zm44 0l-1 2 1-2zm-212 1l2.5.5-2.5.5v-1zm-174 1l3.5.5-3.5.5v-1zm27 0l3.5.5-3.5.5v-1zm115 0l3.5.5-3.5.5v-1zm25 0l2.5.5-2.5.5v-1zm-156 1l8.5.5-8.5.5v-1z"/><path fill="#FF0" stroke="#FF0" d="M207.5 12l15 1 17.5 4q-1.7 3.5-1 10.5l-1.5 1.5q-3-5-10-6l-11-1-1-1h-16l-13 4-11.5 8-6 8.5-5 12-1 5v16q4.4 20.1 18.5 30.5l18 9 16 2 1-1h6.5V84.5l-3-5 22.5-.5-.5 1.5-2 4V120l-24.5 5h-20l-20-5q-9.9-4.6-16.5-12.5-13.5-12.5-13-39Q150.6 42 167.5 28q8.5-7.5 20-12l20-4zm-149 1h22l14 3 4.5 2.5L98 29l-7.5-5-10-2h-7l-1-1h-13l-16 5L30 37.5l-7 13-2 9v12q3.8 22.2 18.5 33.5l17 9 11 2h8l15-3 6.5-5.5 1.5-2.5.5 4.5q-2.5 1.5-1 7l-2.5 4.5-20 4h-22l-11-2-12-5L17 106.5Q4.5 94 5 68.5 10.1 39.1 30.5 25l14-8 14-4zM335 14h8.5l.5 1.5 40 97q2.4 7.1 8 11l-22.5.5.5-1.5 1-3L356.5 86h-33l-.5 1.5-9 25v6l4 5-22.5.5v-1l4.5-3.5L335 14zm2 29l-11 34 1 2h26v-3l-13-31-3-2zm98.5-29h22l.5 1.5-3 5v90l1.5 1.5h44l7-2 5-5-.5 1.5q-.3 11.2-5.5 17.5l-71.5-.5 3-4 1-98-3.5-7.5z"/><path fill="#F1F1F1" stroke="#F1F1F1" d="M479.5 0l3.5.5-3.5.5V0zm-37 3l1 2-1-2zm9 0l1 2h-2l-1.5-.5 2.5-1.5zm85 0l1 2-1-2zm8 0l-1 2 1-2zm-10 1l1 2q-1.2-2.3-2.5.5 2.2 1.3-.5 2.5L531 7.5l3.5-3.5zm11 1l2.5.5q-2.1 3.3-2.5-.5zm-107 2l1 2-1-2zm17 0l-1 2 1-2zm94 1l.5 1.5-2 1 1.5-2.5zm-112 1l2 2h15l2.5-1.5-1 2.5h-17.5l-.5-1.5-.5-1.5zm-232 1l2.5.5-2.5.5v-1zm325 0l1 2q-2.8.7-1-2zm-102 1l8.5.5-8.5.5v-1zm29 0l8.5.5-8.5.5v-1zm-33 1l2.5 1.5-1.5.5-1-2zm-98 1l-1 2 1-2zm3 0l3.5 1.5-1.5.5-2-2zm16 0l3 1 2-1v1l-2 1-3-1v-1zm12 0l1.5.5-3.5 1.5v-1l2-1zM530 13l2 .5-2 1V13zm-354.5 1l-1 2 1-2zm186 0l1.5.5-2.5 1.5 1-2zm60 0l2.5.5q-2 4.5-4 1l1.5-1.5zm51 0v3q-3-1.5 0-3zm76 0l1.5 2.5-2-1 .5-1.5zm-514 1l-1 2 1-2zm288 0l2.5 1.5-1.5.5-1-2zm5 0l-1 2 1-2zm38 0l-1 2-1.5-.5 2.5-1.5zm68 0l1 2-1-2zm-257 1l-1 2 1-2zm143 0l2.5 1.5-1.5.5-1-2zm48 0l1.5.5-2.5 1.5 1-2zm165 0v3q-3-1.5 0-3zm-497 1l-1 2 1-2zm67 0l-.5 1.5.5 1.5 1.5-.5-3.5 2.5v-1l1.5-.5-1-2 1.5-1.5zm142 0l-3 4 .5-1.5q-.7-2.2 1.5-1.5l1-1zm73 0l1 2-1-2zm11 0l.5 1.5-2 1 1.5-2.5zm42 0l-1 2 1-2zm49 0l1 2-1-2zm55 0l-.5 1.5-.5 1.5-.5-1.5 1.5-1.5zm73 0l.5 2.5-1.5 1.5q-3.5-2 1-4zm-370 1l-1 2 1-2zm69 0l.5 2-3.5 2 3-4zm69 0l1 2-1-2zm57 0l-1 2 1-2zm-265 1l-1 2 1-2zm142 0l-1 2 1-2zm64 0l1 2-1-2zm61 0l-1 2 1-2zm44 0l1.5 3.5-1.5 2.5v-6zm-308 1l-1 2-1.5-.5 2.5-1.5zm141 0l-1 2 1-2zm60 0l1 2-1-2zm18 0l-1 2 1-2zm47 0l-1 2 1-2zm167 0l1 2-1-2zm-439 1l-1 2 1-2zm8 0l-1 2 1-2zm141 0l-1 2 1-2zm56 0l1 2-2.5-.5 1.5-1.5zm69 0q3 1.5 0 3-3-1.5 0-3zm-264 1l-1 2 1-2zm133 0l1 2-2.5-.5 1.5-1.5zm-218 1l-1 2 1-2zm78 0l1 2-2.5-.5 1.5-1.5zm9 0l-1 2 1-2zm98 0l-1 2-1.5-.5 2.5-1.5zm92 0l1 2-2.5-.5 1.5-1.5zm75 0l1 2-2.5-.5 1.5-1.5zm-306 1l-1 2 1-2zm43 0l-1 2 1-2zm98 0l1.5.5-2.5 1.5 1-2zm-139 1l-1 2 1-2zm6 0l2.5 1.5-1.5.5-1-2zm136 0l-1 2 1-2zm5 0l1 2-1-2zm25 0l3.5 1.5-2.5.5-1-2zm171 0l-1 2 1-2zm53 0l1 2-1-2zm-394 1l-1 2 1-2zm32 0l8.5 8.5q-5.4 2.8-3.5 5.5l-1.5-1.5 3-3-8-8 1.5-1.5zm110 0l3.5 2.5q-1.7-1.6-3.5 1.5l-1.5-1.5 1.5-2.5zm-.5 1v2l2-1-2-1zm42.5-1l-1 2 1-2zm39 0l2.5.5-2.5 2.5-2.5-.5 2.5-2.5zm81 0h2l2.5 2.5-2.5.5-2-3zm52 0q3 1.5 0 3v-3zm23 0l-1 2 1-2zm-335 1l-1 2 1-2zm42 0l-5 6 5-6zm68 0l1 2-1-2zm188 0l1 2-1-2zm-338 1l-1 2 1-2zm17 0l1.5.5-2.5 1.5 1-2zm142 0l-1 2 1-2zm22 0l2.5.5q-2.1 3.3-2.5-.5zm-222 1l-1 2 1-2zm43 0q3 1.5 0 3-3-1.5 0-3zm18 0l-1 2 1-2zm21 0l2.5.5q-2.1 3.3-2.5-.5zm102 0l-1 2 1-2zm19 0l-1 2 1-2zm179 0l-1 2 1-2zm34 0l.5 2-2-.5 1.5-1.5zm11 0l1 2-1-2zm-391 1l1 2-1-2zm27 0l-1 2 1-2zm23 0l-1 2 1-2zm56 0l-1 2 1-2zm35 0l1 2-1-2zm28 0l-1 2 1-2zm20 0l2.5.5q-2.1 3.3-2.5-.5zm159 0l1.5.5-2 1 2 1-1.5.5q-3-1.5 0-3zm8 0l2.5.5-2.5.5v-1zm30 0q3.8-.7 4.5 1.5l-1.5-.5q-4 .8-3-1zm-421 1l-1 2 1-2zm65 0l-1 2 1-2zm121 0l2 3-3.5-1.5 1.5-1.5zm20 0l-1 2 1-2zm-160 1l3 4h-2L88 33.5l1.5-1.5zm21 0l-1 2 1-2zm69 0l-4 5 4-5zm6 0q3 1.5 0 3v-3zm66 0l-1 2 1-2zm171 0l1 2-1-2zm48 0l-1 2-1.5-.5 2.5-1.5zm-426 1q3 1.5 0 3v-3zm68 0l-1 2 1-2zm106 0l.5 2.5h-1l.5-2.5zm35 0l-1 2 1-2zm139 0l4.5 4.5-1.5 1.5-2.5-2.5 1-1-1.5-2.5zm28 0l1 2-2.5-.5 1.5-1.5zm52 0l-1 2 1-2zm-217 1l-1 2 1-2zm-140 1l-1 2 1-2zm72 0l-1 2 1-2zm70 0l-1 2 1-2zm36 0l.5 2.5-1.5 1.5q-3.5-2 1-4zm184 0l-1 2 1-2zm-431 1l-1 2 1-2zm33 1l-1 2 1-2zm42 0l1 2-1-2zm67 0l-1 2 1-2zm32 0l-1 2 1-2zm258 0l2.5.5q-2.1 3.3-2.5-.5zm-431 1l-1 2 1-2zm209 0l1 2-1-2zm226 0l-1 2 1-2zm-402 1l1 3q1.3-2.2 2.5.5L82.5 44 79 40.5l1.5-1.5zm33 0q3 1.5 0 3-3-1.5 0-3zm76 0q3 1.5 0 3v-3zm32 0q4.5 2 1 4-4.5-2-1-4zm14 0l-1 4q-3.5-2 1-4zm19 0q3 1.5 0 3-3-1.5 0-3zm10 0l3 4-3-4zm133 0q3 1.5 0 3v-3zm-349 1q3 1.5 0 3v-3zm49 0l-1 2 1-2zm24 0l2 3-2-3zm117 0q3 1.5 0 3l-2.5-.5 2.5-2.5zm51 0q3 1.5 0 3v-3zm-179 1l1 2-1-2zm141 0l1 2-1-2zm-160 1l3 4-3-4zm3 0l1 2-1-2zm14 0l1 2-1-2zm18 0q3.5 2-1 4l1-4zm65 0l-1 2 1-2zm34 0l-1 2 1-2zm6 0l1 2-1-2zm18 0l1 2-1-2zm239 0l2 3-3.5-1.5 1.5-1.5zm-438 1l-1 2 1-2zm37 0l2.5 1.5-4.5.5v-1l2-1zm12 0q3 1.5 0 3-3-1.5 0-3zm337 0l.5 24.5h-1l.5-24.5zm-331 1l1 2-1-2zm87 0l-1 2 1-2zm35 0l2.5.5-2.5.5v-1zm7 0l1 2-1-2zm12 0l1 2-1-2zm21 0l2 1 1.5-.5q.8 2.3-1.5 1.5l-1.5.5.5-1.5-2 1 1-2zm-216 1l-1 2 1-2zm52 0l1 2-1-2zm141 0l1 2-1-2zm157 0l-1 2 1-2zm-300 1l1 2-1-2zm26 0l-1 2 1-2zm66 0q3 1.5 0 3v-3zm-141 1q3 1.5 0 3v-3zm350 0l-1 2 1-2zm-304 1l1 2-1-2zm30 0l-1 2 1-2zm156 0l1 2-1-2zm-188 1l1 2-1-2zm99 0l-1 2 1-2zm42 0l1 2-1-2zm7 0l-1 2 1-2zm159 0l-1 2 1-2zm-349 1l-1 2 1-2zm40 0v3q-3-1.5 0-3zm35 0l-1 2 1-2zm106 0v3q-3-1.5 0-3zm35 0l-1 2 1-2zm-74 1l-1 2 1-2zm49 0l-1 2 1-2zm38 0l1 2-1-2zm121 0l-1 2 1-2zm-349 1l-1 2 1-2zm36 0l1 2-1-2zm141 0l1 2-1-2zm39 0l-1 2 1-2zm227 0q4.5 2 1 4l-1.5-1.5.5-2.5zm-409 1l1 2-1-2zm41 0l-1 2 1-2zm67 0q3 1.5 0 3v-3zm33 0l1 2-1-2zm52 0l1 2-1-2zm123 0l-1 2 1-2zm-349 1q3 1.5 0 3v-3zm49 0l-1 2 1-2zm141 0l-1 2 1-2zm-160 1l1 2-1-2zm45 0l-.5 1.5-.5 1.5-.5-1.5 1.5-1.5zm96 0l1 2-1-2zm45 0l-1 2 1-2zm9 0l1.5 2.5-2-1 .5-1.5zm-197 1l1 2-1-2zm115 0l-1 2 1-2zm26 0l1 2-1-2zm22 0l.5 1.5-2 1 1.5-2.5zm159 0l-1 2 1-2zm-348 1l-1 2 1-2zm24 0q3 1.5 0 3v-3zm24 0l-1 2 1-2zm117 0q3 1.5 0 3v-3zm279 0q3 1.5 0 3-3-1.5 0-3zm-370 1l.5 1.5-2 1 1.5-2.5zm68 0l3.5 2.5-3 2 1-2-3-1 1.5-1.5zm73 0l-1 2 1-2zm7 0l.5 2 3 1.5-1.5-.5-2.5-1.5.5-1.5zm-221 1l-1 2 1-2zm2 0l2.5 1.5-1.5.5-1-2zm5 0l1.5.5-2.5 1.5 1-2zm13 0l1 2-1-2zm129 0l-1 2 1-2zm12 0l1 2-1-2zm64 0l1 2-1-2zm7 0l-1 2 1-2zm105 0l1 2-1-2zm7 0l-1 2 1-2zm4 0l-1 2-1.5-.5 2.5-1.5zm137 0l-1 2 1-2zm-475 1l4.5 5.5-1.5 2.5-2.5-3.5 3 1-3.5-4.5-1.5.5 1.5-1.5zm8 0l1 2-1-2zm30 0l-.5 1.5-.5 1.5-.5-1.5 1.5-1.5zm111 0l1 2-1-2zm30 0l-.5 1.5-.5 1.5-.5-1.5 1.5-1.5zm146 0l1 2-1-2zm110 0l-1 2 1-2zm30 0l2 3-2-2-4.5 3.5 4.5-4.5z"/><path fill="#F1F1F1" stroke="#F1F1F1" d="M198.5 61q3 1.5 0 3-3-1.5 0-3zm76 0l.5 1.5-1.5 2.5-.5-1.5 1.5-2.5zm271 0l2.5.5q-2.1 3.3-2.5-.5zm-486 1l2.5.5q-2.1 3.3-2.5-.5zm15 0l1 2-1-2zm59 0l.5 1.5-1.5 2.5-.5-2.5 1.5-1.5zm82 0l1 2-1-2zm-12 1l-1 2 1-2zm93 0l-1 2 1-2zm95 0l1 2-1-2zm115 0l-1 2 1-2zm28 0l-1 2 1-2zm-479 1l1 2-1-2zm7 0l-1 2 1-2zm46 0l.5 2.5-1.5 2.5-.5-2.5 1.5-2.5zm88 0l1 2-1-2zm15 0l2 1 1.5-.5-1.5 2.5-2-3zm38 0l.5 2.5-2 1 1.5-3.5zm300 0l.5 1.5-2 1 1.5-2.5zm-345 1l-1 2 1-2zm93 0l-.5 1.5-.5 1.5-.5-1.5 1.5-1.5zm93 0l1.5 2.5h-1l-.5-2.5zm117 0l-1 2 1-2zm21 0l3.5 2.5-1.5.5-2-3zm-465 1l-1 2 1-2zm4 0l1 2-1-2zm141 0l1 2-1-2zm67 0l.5 2.5-1.5 4.5-.5-4.5 1.5-2.5zm-210 1l1 2-1-2zm69 0l.5 2.5-1.5 4.5-.5-4.5 1.5-2.5zm69 2l1 2-1-2zm23 0l1 2-1-2zm4 0l2.5.5-2.5.5v-1zm6 0l1 2-2.5-.5 1.5-1.5zm60 0l1.5 2.5-2-1 .5-1.5zm95 0l.5 1.5-2 1 1.5-2.5zm45 0l.5 26.5h-1l.5-26.5zm85 0l1 2-1-2zm8.5 0l2 .5-2 1V69zM60.5 70l1 2-1-2zm141 0l1 2-1-2zm6 0l-1 2 1-2zm302 0l-1 2 1-2zm39 0l1.5 2.5-2-1 .5-1.5zm-490 1l1 2-1-2zm8 0l-1 2 1-2zm6 0l1.5 2.5-2-1 .5-1.5zm127 0l1 2-1-2zm14 0l1 2-1-2zm305 0l1 2-1-2zm-310 1l-1 2 1-2zm15 0v3q-3-1.5 0-3zm16 0l-1 2 1-2zm271 0l-1 2 1-2zm6 0l1 2-1-2zm16 0v3q-3-1.5 0-3zm-465 1l-1 2 1-2zm145 0q3.3 1.8-.5 3.5l-.5 1.5-2.5-3.5 2.5 1.5 1.5-1.5-.5-1.5zm302 0v3q-3-1.5 0-3zm33 0l.5 2.5-1.5 1.5q-3.5-2 1-4zm-494 1l1 2-1-2zm4 0q3 1.5 0 3-3-1.5 0-3zm137 0l1 2-1-2zm87 0l1 2-2.5-.5 1.5-1.5zm13 0l1 2-2.5-.5 1.5-1.5zm99 0l1 2-2.5-.5 1.5-1.5zm13 0l2.5.5-1.5 1.5-2.5-.5 1.5-1.5zm-355 1q3 1.5 0 3v-3zm141 0q3 1.5 0 3v-3zm85 0l.5 6.5h-1l.5-6.5zm-170 1l1.5 6.5h-1l-.5-6.5zm94 0l-1 2 1-2zm83 0l-1 2 1-2zm7 0l1 2-1-2zm105 0l-1 2 1-2zm7 0l1 2-1-2zm106 0l1 2-1-2zm25 0l2.5.5q-2.1 3.3-2.5-.5zm9 0l1 2-1-2zm-495 1l1 2-1-2zm14 0l1.5.5-3.5 1.5v-1l2-1zm3 0l2.5 1.5-1.5-.5-1-1zm124 0l1 2-1-2zm14 0l1.5.5-2.5 1.5 1-2zm71 0l1.5 9.5h-1l-.5-9.5zm-228 1l1 2-1-2zm24 0l-1 2 1-2zm7 0l6 1 3-1v1l-7 1-2-2zm110 0l1 2-1-2zm213 0l2.5.5-2.5.5v-1zm10 0l.5 3.5h-1l.5-3.5zm96 0l1 2-1-2zm6 0l.5 1.5-2 1 1.5-2.5zm-438 1l2.5 1.5-1.5-.5-1-1zm14 0l-1 2 1-2zm45 0l1.5 7.5h-1l-.5-7.5zm79 0l-1 2 1-2zm35 0l2.5 1.5-.5 2.5-.5-3-1.5-1zm257 0l1 2-1-2zm-461 1l1 2-1-2zm28 0l2.5 1.5-1.5-.5-2 1 1-2zm113 0l1 2-1-2zm23 0l-1 2 1-2zm48 0l2.5.5q-2.1 3.3-2.5-.5zm247 0l1.5 1.5-.5 2.5q-3.7.8-4.5-1.5l1.5.5 2.5-1.5-.5-1.5zm-461 1l1 2-1-2zm51 0l-1 2 1-2zm90 0l1 2-1-2zm31 0q3 1.5 0 3v-3zm-210 1l.5 3.5H3l.5-3.5zm36 0l1 2-1-2zm105 0l.5 3.5h-1l.5-3.5zm36 0l1 2-1-2zm333 0l.5 1.5-1.5 2.5-.5-1.5 1.5-2.5zm-442 1l2.5.5q-2.1 3.3-2.5-.5zm132 0l1.5 2.5-2-1 .5-1.5zm56 0l.5 1.5-2 1 1.5-2.5zm-223 1l1 2-1-2zm70 0l1.5 3.5h-1l-.5-3.5zm71 0l1 2-1-2zm38 0l-1 2 1-2zm32 0l1.5 2.5-2-1 .5-1.5zm259 0l-1 2-1.5-.5 2.5-1.5zm-472 1l1 2-1-2zm33 0v3q-3-1.5 0-3zm7 0l-1 2 1-2zm22 0q3 1.5 0 3-3-1.5 0-3zm79 0l1 2-1-2zm104 0l.5 2.5-1.5 2.5-.5-1.5 1.5-3.5zm129 0l1.5 4.5h-1l-.5-4.5zm100 0l1 2-2.5-.5 1.5-1.5zm-476 1q3 1.5 0 3-3-1.5 0-3z"/><path fill="#F1F1F1" stroke="#F1F1F1" d="M99.5 86l.5 2.5h-1l.5-2.5zm74 0q3 1.5 0 3-3-1.5 0-3zm43 0l-1 2 1-2zm-141 1l-1 2 1-2zm-46 1l1 2-1-2zm36 0l1 2-1-2zm40 0l1.5 2.5-2-1 .5-1.5zm65 0l1 2-1-2zm47 0q3 1.5 0 3v-3zm29 0l1 2-1-2zm27 0l1.5 3.5h-1l-.5-3.5zm219 0l-1 2 1-2zm22 0l.5 3.5h-1l.5-3.5zm-509 1L5 90.5 4.5 92 4 90.5 5.5 89zm71 0q3 1.5 0 3v-3zm56 0l1.5 2.5-2-1 .5-1.5zm14 0l-.5 1.5-.5 1.5-.5-1.5 1.5-1.5zm58 0l-.5 1.5-.5 1.5-.5-1.5 1.5-1.5zm54 0l1.5 2.5h-1l-.5-2.5zm229 0l3.5 2.5-1.5-.5-2-2zm25 0l-1 2 1-2zm-27 1l1 2-1-2zm-381 1l1.5 2.5h-1l-.5-2.5zm115 0l1.5.5-2.5 1.5 1-2zm26 0l1 2-1-2zm238 0v3q-3-1.5 0-3zm-405 1l-1 2 1-2zm202 0l-.5 1.5-.5 1.5-.5-1.5 1.5-1.5zm127 0l1.5 2.5h-1l-.5-2.5zm81 0l1 2-1-2zm-482 1l1 2-1.5-.5-.5 1.5-.5-1.5L6.5 93zm125 0l1.5 2.5-2-1 .5-1.5zm16 0l1 2-2.5-.5 1.5-1.5zm59 0l1 2-1-2zm50 0l1 2-2.5-.5 1.5-1.5zm16 0l1.5 2.5h-1l-.5-2.5zm208 0l1 2-1-2zm-401 1l-1 2 1-2zm24 0l1 2-1-2zm163 0l1 2-1-2zm212 0l1 2-1-2zm-415 1l.5 2.5h-1l.5-2.5zm61 0l2.5.5-1.5 1.5-2.5-.5 1.5-1.5zm85 0l-1 2 1-2zm6 0l2 1 1.5-.5q-1.2 2.8-2.5.5l-1-1zm31 0l1.5.5-2.5 1.5 1-2zm7 0l1 2-1-2zm-246 1l.5 1.5-2 1L7.5 96zm73 0q3 1.5 0 3v-3zm22 0l1 2-1-2zm46 0l-.5 1.5-.5 1.5-.5-1.5 1.5-1.5zm115 0l1 2-2.5-.5 1.5-1.5zm8 0l1.5 2.5-2-1 .5-1.5zm10 0l-.5 1.5-.5 1.5-.5-1.5 1.5-1.5zm115 0l2.5 1.5-1.5.5-1-2zm7 0l-1 2-2.5-.5 3.5-1.5zm3 0l1 2-1-2zm-285 1q3 1.5 0 3v-3zm9 0l1 2-1-2zm81 0l3.5.5-3.5.5v-1zm37 0l3.5.5-3.5.5v-1zm145 0l1 2-1-2zm43 0l.5 3.5h-1l.5-3.5zm37 0l1 2-1-2zm-372 1l1 2-1-2zm183 0l2.5 1.5-1.5.5-1-2zm6 0l1.5.5-3.5 1.5v-1l2-1zm101 0l1.5 1.5-3.5 3.5-1.5-1.5 3.5-3.5zm14 0l1 2 3-1 2.5 2.5-1.5 1.5-3-3q-1.2 2.3-2.5-.5l.5-1.5zm66 0q3 1.5 0 3v-3zm-389 1l-1 2 1-2zm36 0l1 2-1-2zm152 0l1 2-1-2zm23 0l-1 2 1-2zm-164 1l1 2-1-2zm128 0l1 2-1-2zm23 0l1 2-1-2zm15 0l-1 2 1-2zm173 0l1 2-1-2zm21 0l.5 1.5-2 1 1.5-2.5zm-406 1l-1 2 1-2zm32 0l1 2-1-2zm140 0l1 2-1-2zm211 0l1 2-1-2zm-353 1l1 2-1-2zm15 0l1 2-1-2zm141 0l1 2-1-2zm14 0l-1 2 1-2zm121 0l1 2-1-2zm-338 1l-1 2 1-2zm18 0q3 1.5 0 3v-3zm27 0l1 2-1-2zm187 0q3 1.5 0 3v-3zm114 0l-1 2 1-2zm51 0l1 2-1-2zm27 0v3q-3-1.5 0-3zm-480 1l-1 2 1-2zm99 0l1 2-1-2zm18 0l1 2-1-2zm24 0l-1 2 1-2zm99 0l1 2-1-2zm18 0l1 2-1-2zm8 0l1 2-1-2zm8 0l-1 2 1-2zm119 0l1 2-1-2zm58 0l1 2-1-2zm49 0l-2 3 2-3zm-443 1q3 1.5 0 3-3-1.5 0-3zm40 0l1 2-1-2zm140 0l1 2-1-2zm75 0l4.5.5-2.5 1.5-2-2zm64 0l1 2-1-2zm27 0l-.5 1.5-.5 1.5-.5-1.5 1.5-1.5zm12 0l2.5 1.5-1.5-.5-1-1zm3.5 0l2 .5-2 1V105zm30.5 0l1 2-1-2zm-448 1l-1 2 1-2zm75 0l-1 2 1-2zm19 0l1 2-1-2zm21 0l1 2-1-2zm26 0l-1 2 1-2zm93 0l1 2-1-2zm22 0l1 2-1-2zm8 0l1 2-1-2zm10 0l-1 2 1-2zm15 0l.5 1.5-2 1 1.5-2.5zm18 0l2.5 1.5-1.5-.5-1-1zm84 0l1 2-1-2zm21 0l1 2-1-2zm-321 1l2.5 1.5-1.5-.5-1-1zm54 0l1 2-1-2zm87 0l1 2-1-2zm87 0q4.5 2 1 4-4.5-2-1-4zm102 0l3.5 1.5-1.5 1.5-2-3zm60 0l2.5.5-.5 2.5-9.5-.5 8-1-.5-1.5zm-480 1l-1 2 1-2zm75 0l-1 2 1-2zm66 0l-1 2 1-2zm133 0l-1 2 1-2zm115 0l1 2-1-2zm56 0l1 1 25.5.5-27 .5.5-2zm-335 1l3.5 2.5-1.5-.5-2-1-1.5.5 1.5-1.5zm141 0l2.5.5-1 2 .5 1.5-2-4zm11 0l.5 5.5h-1l.5-5.5zm-261 1v3q-3-1.5 0-3zm57 0l2.5.5q-2.1 3.3-2.5-.5zm18 0l-1 2 1-2zm312 0l1 2-1-2zm14 0l.5 3.5h-1l.5-3.5zm5 0l1 2-1-2zm-264 1l-1 2 1-2zm104 0l1 2-1-2zm74 0l-.5 1.5-.5 1.5-.5-1.5 1.5-1.5zm-257 1l-1 2 1-2zm41 0l1 2-1-2zm6 0v3q-3-1.5 0-3zm295 0l1.5 3.5-1.5 2.5v-6zm-403 1q3 1.5 0 3-3-1.5 0-3zm100 0l1 2-1-2zm41 0q4.5 2 1 4l-1.5-1.5.5-2.5zm6 0l1 2-1-2zm50 0l4.5.5-4.5.5v-1zm51 0l.5 2.5-1.5 1.5-.5-2.5 1.5-1.5zm-150 1l1 2-1-2zm140 0l1 2-1-2zm159 0l1.5 2.5-2-1 .5-1.5zm-301 1l1 2-1-2zm140 0l1 2-1-2zm25 0l.5 1.5-2 1 1.5-2.5zm14 0q3 1.5 0 3-3-1.5 0-3zm29 0l-1 2 1-2zm43 0l1 2-1-2zm35 0q3 1.5 0 3-3-1.5 0-3zm-288 1l1 2-1-2zm140 0l1 2-1-2zm-231 1l2.5 2.5-.5 2.5-3.5-3.5 1.5-1.5zm88 0l2.5 1.5-1.5.5-1-2zm53 0l4.5 4.5-.5 2.5-4.5-4.5.5-2.5zm88 0l1 2-1-2zm13 0l.5 2.5-4.5 4.5-.5-2.5 4.5-4.5zm72 0l1.5 2.5-2-1 .5-1.5zm28 0l1 2-1-2zm51 0q3 1.5 0 3-3-1.5 0-3zm-307 1l1 2-1-2zm140 0l1 2-1-2zm-143 1l2.5 1.5-1.5.5-1-2zm177 0q4.5 2 1 4-4.5-2-1-4zm15 0q3 1.5 0 3-3-1.5 0-3zm31 0l-1 2 1-2zm66 0l1 2-1-2zm4 0q3 1.5 0 3-3-1.5 0-3zm-63 1v3l-2.5-.5 2.5-2.5zm90 0q4.5 2 1 4-4.5-2-1-4zm12 0l-1 2 1-2zm-108 1l-.5 1.5-.5 1.5-.5-1.5 1.5-1.5zm36 0l-1 2 1-2zm46 0l2.5.5q-2.1 3.3-2.5-.5zm-125 1l-1 2 1-2zm2 1l1.5.5-2.5 1.5 1-2zm119 0l1 2-1-2zm22 0l1.5.5-2.5 1.5 1-2zm-260 2h2l2.5 2.5-2.5.5-2-3zm87 0l2.5.5-2.5 2.5-2.5-.5 2.5-2.5zm176 0h78l.5 1.5.5 1.5-2-2h-77v-1zm-403 1h2l2.5 2.5-1.5 1.5-3-4zm167 0l2.5.5-2.5.5v-1zm106 0h2l3.5 3.5-2.5.5-3-4zm9 0l-1 2 1-2zm17 0l1 2-1-2zm63 0l2.5.5 1 2-1.5-.5-1.5.5q4.3 2.3-.5 4.5l-2-4-1.5.5 3.5-3.5zm-278 1l2.5.5q-2 4.5-4 1l1.5-1.5zm264 1l-1 2 1-2zm132 0l1 2q-2.8.7-1-2zm-335 1l3.5 1.5-2.5.5-1-2zm77 0l2.5.5-1.5 1.5-2.5-.5 1.5-1.5zm-215 1l-1 2 1-2zm73 0q3 1.5 0 3-3-1.5 0-3zm204 0l1 2-1-1-4 2-1.5-1.5 3.5.5 2-2zm13 0l1 2-2.5-.5 1.5-1.5zm-147 1l-1 2 1-2zm69 0l1 2-1-2zm137 0l2.5.5-1.5 1.5-2.5-.5 1.5-1.5zm-346 1l-1 2 1-2zm67 0l1 2-1-2zm210 0l-1 2 1-2zm7 0l1 2-1-2zm58 0l-1 2 1-2zm-340 1l-1 2 1-2zm141 0l-1 2 1-2zm63 0l1 2-1-2zm68 0l-1 2 1-2zm-270 1l-1 2 1-2zm141 0l-1 2 1-2zm59 0l1 2-1-2zm74 0l5.5.5q-5.8-.8-7.5 2.5l-1-2q1.5 2.5 3-1zm66 0l4.5.5-4.5.5v-1zm-338 1l-1 2 1-2zm56 0l1 2-1-2zm85 0l-1 2 1-2zm55 0l1 2-1-2zm138 0l2.5.5q-2.1 3.3-2.5-.5zm-332 1l-1 2 1-2zm51 0l1 2-1-2zm90 0l-1 2 1-2zm51 0l1 2-1-2zm79 0l-1 2 1-2zm59 0l1 2-1-2zm-328 1l-1 2 1-2zm47 0l1 2-1-2zm95 0l-1 2 1-2zm45 0l1 2-1-2zm84 0l-1 2 1-2zm55 0l1 2-1-2zm-323 1l-1 2 1-2zm41 0l1 2-1-2zm101 0l-1 2-1.5-.5 2.5-1.5zm39 0l2.5 1.5-1.5.5-1-2zm90 0l-1 2-1.5-.5 2.5-1.5zm49 0l2.5 1.5-1.5.5-1-2zm-317 1l-1 2 1-2zm35 0l2.5 1.5-1.5.5-1-2zm107 0l1.5.5-2.5 1.5 1-2zm32 0l2.5 1.5-1.5-.5-1-1zm96 0l-1 2 1-2zm45 0l1 2-1-2zm-311 1l1.5.5-3.5 1.5v-1l2-1zm26 0l3.5 1.5-1.5.5-2-2zm116 0l2.5.5-4.5 1.5v-1l2-1zm23 0l4.5 1.5-1.5.5-3-1v-1zm104 0l-1 2 1-2zm39 0l1 2-1-2zm-303 1l4.5.5-6.5 1.5v-1l2-1zm13 0q4.8-.7 6.5 1.5l-2.5.5-4-1v-1zm131 0q9.7-1.7 14.5 1.5l-3.5.5-1-1h-9l-4 1v-1l3-1zm123 0l1.5.5-2.5 1.5 1-2zm32 0l2.5 1.5-1.5.5-1-2zm-27 1l1.5.5-3.5 1.5v-1l2-1zm22 0l3.5 1.5-1.5.5-2-2zm-14 1l7.5.5-7.5.5v-1z"/><path fill="#363619" stroke="#363619" d="M61.5 11h15l1 1 12 1 10.5 3v9.5L98 35q-3.3 1.3-2-3.5L92.5 27l-17-4h-19Q41.6 26.6 33 36.5l-9 16-1 5v17q3.9 17.6 15.5 27.5 8 7.5 20 11l5 1h16l9-2 7.5-5.5L99.5 96l1.5 6.5-1 1v11l-2 7.5-16.5 4-25 1-1-1h-8l-15-5q-11.2-5.8-18.5-15.5l-9-18-1-5v-19Q9.8 41.3 24.5 28l16-11 21-6zm2.5 1l-20 5-16 10Q10 40 5 66v16l1 5 8 17q8 11 22 17l14 4h10l1 1 19-1 17-4 2-8v-9l-1 2-6 6-10 3H63l-5-1-16-8-13-13-6-13-1-12-1-1 1-1 1-13 6-13q9-14 27-18h22l16 4 4 5 1-14-16-4-19-1zm137.5-1h18l21.5 5v9.5l-2 9.5q-3.3 1.3-2-3.5l-3.5-4.5-15-4h-21q-16.2 3.8-24.5 15.5-8.6 10.4-9 29v2q2.9 22.6 17.5 33.5l17 9 10 2h12l1.5-1.5v-17l-1-5 1-4-5.5-7.5q-4.8 1.3-3.5-2h36.5l.5 2q-6.4-1-8 4.5v21l-1 3 1 2-1 1V121l-19.5 5-21 1-1-1h-10l-11-3q-14.5-6-23.5-17.5l-9-18-2-16 1-1 1-11 5-13q6.4-12.1 16.5-20.5l16-10 18-5zm1.5 1l-16 4-16 9q-19 13-25 40v17l1 5 9 18q7 9 19 15l17 5h27l1-1 11-1 9-3V86l2-4 2-3-25 1 4 6v28l-1 1h-14l-10-2q-11-4-18-10-13-11-17-31V61l2-9 8-15 13-11 7-3 10-2 17 1 11 2 6 5q-1 2 2 1l1-13-22-5h-15zm131 0h10.5l.5 2.5 43 103 4.5 4.5 7.5 2.5-34.5.5v-1l3.5-2.5-4-13-9.5-20.5h-31l-.5 1.5-8 22v7l3.5 4.5 4.5 1.5-35.5.5v-1q6.6-.4 9.5-4.5L334 12zm1 1l-35 106-4 5h23l-2-1-3-6 9-28 1-2h33l13 31v6h23l-2-2-6-8-41-99v-2h-9zm93.5-1l37.5.5q-5.6.9-8 5l-1 2V110h45.5q6.5-1.5 9.5-6.5l1-6.5q4-1.4 2 5.5l-2 11-4 11.5-81-.5q5.6-.9 8-5l1-2v-98l-4.5-5.5-4-1v-1zm6.5 1l3 6v100l-4 5h74l5-16v-4l-1 2q-3 4-8 5h-48V19l4-5-25-1z"/><path fill="#363619" stroke="#363619" d="M337 44l3 1.5 13 32-1.5 1.5h-24q-2.7-1.2-.5-2.5L337 44zm2 2l-11 30 1 1h22l-12-31z"/><path fill="#FDFDFD" stroke="#FDFDFD" d="M440.5 4l-2 3 2-3zm20 11l-1 2 1-2zm-213 5l-1 2 1-2zm-140 5l1 2-1-2zm144 2l3 4-3-4zm183 0l-1 2 1-2zm25 0l1 2-1-2zm-204 1l3 4-3-4zm165 0l2 3-2-3zm53 0l-1 2 1-2zm-451 1l-1 2 1-2zm279 0l-1 2 1-2zm85 0l6 7-6-7zm-89 1l-2 3 2-3zm-168 1l-1 2 1-2zm307 0l.5 11.5h-1l.5-11.5zm-206 3l2 3-2-3zm28 0l1 2-1-2zm-24 1l1 2-1-2zm61 0l-1 2 1-2zm-204 1l2 3-2-3zm398 9l1 2-1-2zm4 1l4 5-4-5zm3 6l1 2-1-2zm-91 6l-1 2 1-2zm-194 2l3.5 2.5-1.5.5-2-3zm-154 1l-1 2 1-2zm235 0l2 3-2-3zm112 0l2 3-2-3zm-335 1l1 2-1-2zm213 0l-1 2 1-2zm112 0l-1 2 1-2zm-158 9l1 2-1-2zm12 0l.5 3.5h-1l.5-3.5zm26 2l.5 2.5h-1l.5-2.5zm-141 1l.5 4.5h-1l.5-4.5zm-61 1l-2 3 2-3zm125 0l1 2-1-2zm-128 7l-1 2 1-2zm23 1l2 3-2-3zm6 1l-1 2 1-2zm-29 1l-1 2 1-2zm135 1l.5 2.5h-1l.5-2.5zm54 0l.5 2.5h-1l.5-2.5zm250 1l2 3-2-3zm-265 5l1 2-1-2zm248 12l2 3-2-3zm-422 3l2 3-2-3zm352 0l-1 2 1-2zm-60 8l-1 2 1-2zm-41 2l2 3-2-3zm-202 1l-2 3 2-3zm291 1l-1 2 1-2zm-388 1l4 5-4-5zm234 2l-1 2 1-2zm-139 1l-1 2 1-2z"/></svg>