<svg xmlns="http://www.w3.org/2000/svg" role="img" viewBox="-0.91 2.34 151.32 43.70"><title>CGRU logo</title><path fill="#2F2F2F" stroke="#2F2F2F" d="M79.5 14l1.5 3.5-2 1 1-3-.5-1.5zm9 0l2.5.5-2.5.5v-1zm7 0h9l1.5 1.5-.5 16.5-.5-17h-9.5v-1zm13 0l4.5.5-4.5.5v-1zm15 0h11l1.5 1.5-1.5 3.5.5-1.5-.5-2.5h-11v-1zm15 0q6.8-1.7 8.5 1.5l-.5 1.5-.5-2h-7.5v-1zm-86 1l-1 2 1-2zm64 0l2 3-2-3zm-114 4l2 3-2-3zm39 0l-1 2 1-2zm21 0l1 2-1-2zm23 0l1.5 2.5h-1l-.5-2.5zm34 0l.5 2.5h-1l.5-2.5zm25 0l.5 9.5h-1l.5-9.5zm-89 2l.5 7.5h-1l.5-7.5zm-18 1l-1 2 1-2zm-30 1l1 2-1-2zm75 1l10.5.5-10.5.5v-1zm-72 1l1 2-1-2zm23 0l-1 2 1-2zm84 0l1 2-1-2zm-10 2l3.5 1.5-1.5-.5q-3 .5-2-1zm33 1l.5 2.5h-1l.5-2.5zm-61 3l1 2-1-2zm-31 1l2 3-2-3zm11 0l-1 2 1-2zm60 0l2.5 1.5-.5 1.5-.5-2-1.5-1zm6 0l2 3-2-3zm-59 1l-2 3 2-3zm6 0l1 2-1-2zm39 1l1 2-1-2zm31 0l-1 2 1-2zm-123 1l-1 2 1-2zm6 1l1 2-1-2zm-10 2l-1 2 1-2zm13 0l1 2-1-2zm-16 2l-1 2 1-2zm20 1l1 2-1-2z" opacity=".071"/><path fill="#4B4B4B" stroke="#4B4B4B" d="M21 13q2.7-1.1 2 1.5l3.5 5.5 7.5 1-2.5 4-2.5 1.5q-.9 6.8 1 9.5-4.6.6-6.5-3h-4L14 36l1-8.5-5-6.5q6.5 1.3 9-2.5l2-5.5zm77 4h5v1.5l1 1V34h-5.5l-.5-1.5 1-1v-12L98 17zm14 0q3.8-.7 5 2.5l-1 8 2 6.5q-3.8 1-5-1.5.2-5.2-3-7l3-4-1-4.5zm14 0h6v3.5q-2.7 1.8-1 8l1 5.5-5-3.5q1-9-1-13.5zm-73.5 1l1.5.5v12l1 3.5-5-3.5-1-8 3.5-4.5zm23 0q2.6-.8 1.5 2.5-2.7 1.8-1 8l1 4.5-4-2.5-1-8 3.5-4.5zm12 8l2.5 1-2.5 7-2.5-1.5 1-2-1-3.5 2.5-1z"/><path fill="#2C2C2C" stroke="#2C2C2C" d="M21.5 6q2.3-.7 1.5 1.5L21.5 6zm32 9l2.5.5-3.5 1.5 1-2zm9 0l2.5.5-2.5.5v-1zm5 0l.5 7.5-2.5 1.5-1.5-2.5h1q-.7 2.6 2 1.5l.5-8zm9 0l2.5.5-6.5 3.5 2-3 2-1zm9 0l2.5.5-2.5.5v-1zm5 0l.5 7.5h-1l.5-7.5zm5 0l.5 2.5h-1l.5-2.5zm19 0l2.5 1.5-1.5-.5-1-1zm-64 2l-1 2 1-2zm7 0L56 19.5l-.5 1.5-.5-1.5 2.5-2.5zm77 0l-1 2 1-2zm11 0l-1 2 1-2zm-128 1l-1 2-11.5.5L6.5 23l-3-4h13l1-1zm106 0l2.5 1.5v12l3 3-4-3v-12l-1.5-.5v-1zm-96 1l13.5.5-3 2 .5-1.5h-11v-1zm70 0l.5 12.5-3 2 2-2 .5-12.5zm-61 3l-2 3 2-3zm41 0l.5 4.5h-1l.5-4.5zm-69 1l1 2-1-2zm109 1q-1.6 1.8 1.5 3.5l-.5 2.5-2.5-4.5 1.5-1.5zm-85 1l-1 2 1-2zm50 0l.5 2.5h-1l.5-2.5zm-70 1l1 2-1-2zm35 1l.5 2.5h-1l.5-2.5zm20 0l.5 3.5h-1l.5-3.5zm-12 2l2.5 3.5-3-2 .5-1.5zm8 0l.5 1.5-4.5 3.5 1-2 2.5-1.5.5-1.5zm80 0l.5 2.5h-1l.5-2.5zm-65 1l2 3 1.5.5-1.5.5q-3.6-1.1-2-4zm33 0l2 5 1.5.5-1.5.5q-3.8-1.3-2-6zm-63 1l3 4-3-4zm92 0l-1 2 1-2zm-68 1l2 3-2-3zm62 0l1 2-1-2zm-113 1l-1 2 1-2zm69 0l.5 3-3-.5 2-.5.5-2zm18 0l.5 2.5h-1l.5-2.5zm34 0l-2 3-1.5-.5 3.5-2.5zm-119 1l1 2-1-2zm34 0l-1 2 1-2zm-39 1l-2 3 2-3zm58 0l2.5.5-2.5.5v-1zm4 0l2.5.5-2.5.5v-1zm38 0l2.5.5-2.5.5v-1zm12 0l2.5.5-2.5.5v-1zm-104 1l1 2-1-2zm-12 2l-1 2 1-2zm-4 1q3 1.5 0 3v-3zm20 0l1 2-1-2z" opacity=".776"/><path fill="#393939" stroke="#393939" d="M21.5 7L27 19.5l-3-2-1-4.5q-2.7-1.1-2 1.5L17.5 20l.5-1.5L21.5 7zm35 8q3.7 2.2-1.5 4.5v11l3 3q-1.8 4.3-3.5 1.5h-2L48 30.5l-1-6 4.5-7.5 5-2zM53 18l-4 5 1 8 5 3-1-3V19l-1-1z" opacity=".996"/><path fill="#393939" stroke="#393939" d="M60.5 15l4 1 2.5-1v7.5l-2 .5-3.5-5-2.5-1.5 1.5-1.5zm19 0l.5 2.5q-3.8 2.2-3 9l1 5 2.5 2.5 3.5-1-1-8 10 .5-2 3-1 6.5-6.5 1-3-1h-2q-5.7.8-6.5-3.5l-2-7 4.5-7.5 5-2zM76 18l-4 5 1 8 4 2-1-4q-2-7 1-8 1-4-1-3zm12 8l-3 1 1 4-1 2 3 1 2-7-2-1z" opacity=".996"/><path fill="#393939" stroke="#393939" d="M82.5 15l5 1 2.5-1v7.5l-1.5.5-4-5-3.5-1.5 1.5-1.5zM96 15h9v17.5l3 .5v3H96.5L95 34.5l3-3v-12q-2.8-1.1-2-4.5zm2 2l1 3v12l-1 1 1 1h5V20l-1-1v-2h-5zm10.5-2q6.9-.7 9.5 2l1 4.5-2.5 3.5-.5-1.5 1-4q-1.2-3.2-5-2.5l-.5 3-4.5-3.5 1.5-1.5zm14.5 0h11.5l.5 1.5-2 2v13q5.3 2.3 1.5 4.5l-5-1-3.5-3.5.5-11.5.5 10.5 3.5 3.5q3.4.9 1.5-4.5-2.7-1.7-1-8l1-4.5h-5.5l-.5 1.5-1.5-.5q-3 .7-1.5-3z" opacity=".996"/><path fill="#393939" stroke="#393939" d="M138 15h7.5l.5 1.5-2 2-1 14-2.5 2.5-2 1q-3-1.5 0-3l2.5-1.5v-13l-1.5-.5-1.5-3zM5.5 20l10.5.5-6 .5 5 6.5v5L14 36l6.5-3-1 2-8.5 5 3-8.5v-4q-6.4-3-8.5-7.5zm23 0l10.5.5-9.5 7.5-.5-1.5 5-4q.6-2.7-5.5-1.5v-1zm84 1l-.5 1.5-2 3 4.5 8.5q4.8 1.7 3.5-2.5l-2-5 2 1q-.2 5.2 3 7l-5.5 1.5-3.5-2.5-1-6.5q-3.8 1-5-1.5l6.5-4.5zm-47 6q3.4-.9 1.5 4.5L64.5 35l-4 1q-3-1.5 0-3l3.5-2.5 1.5-3.5zm-36 2L33 40.5 30.5 39 22 33.5l1.5-.5q1.9 3.6 6.5 3l-.5-7z" opacity=".996"/></svg>