<svg xmlns="http://www.w3.org/2000/svg" role="img" viewBox="-0.14 -0.21 26.35 26.98"><title>CGRU logo</title><defs><filter id="b" width="1.075" height="1.298" x="-.038" y="-.149" color-interpolation-filters="sRGB"><feGaussianBlur stdDeviation=".32"/></filter><filter id="a" width="1.328" height="1.344" x="-.164" y="-.172" color-interpolation-filters="sRGB"><feGaussianBlur stdDeviation="1.642"/></filter></defs><path fill="#172510" stroke="#122310" stroke-linejoin="round" stroke-width=".703" d="M34.59788 282.85206c.2701.82656-6.3272 4.84063-6.59453 5.66808-.26732.82746 2.73443 7.9427 2.0318 8.45499-.70265.5123-6.55893-4.52169-7.4285-4.52023-.86957.001-6.70896 5.05502-7.41331 4.54508-.70435-.50994 2.27356-7.63519 2.00347-8.46174-.2701-.82656-6.8808-4.81852-6.61348-5.64598.26733-.82746 7.96407-.19711 8.6667-.70941.70265-.5123 2.4564-8.03303 3.32597-8.03449.86957-.001 2.6485 7.51337 3.35285 8.02331.70435.50994 8.39894-.14617 8.66903.68039z" transform="matrix(.798 0 0 .70917 -4.797 -193.27)"/><path fill="#5f7454" d="M34.59788 282.85206c.2701.82656-6.3272 4.84063-6.59453 5.66808-.26732.82746 2.73443 7.9427 2.0318 8.45499-.70265.5123-6.55893-4.52169-7.4285-4.52023-.86957.001-6.70896 5.05502-7.41331 4.54508-.70435-.50994 2.27356-7.63519 2.00347-8.46174-.2701-.82656-6.8808-4.81852-6.61348-5.64598.26733-.82746 7.96407-.19711 8.6667-.70941.70265-.5123 2.4564-8.03303 3.32597-8.03449.86957-.001 2.6485 7.51337 3.35285 8.02331.70435.50994 8.39894-.14617 8.66903.68039z" filter="url(#a)" transform="matrix(.71758 0 0 .61496 -2.98 -166.251)"/><path d="M6.35356 284.7495q-.42339.21968-.88273.33152t-.95862.11184q-1.48987 0-2.36062-.83081-.87075-.8348-.87075-2.26076 0-1.42994.87075-2.26075.87075-.83481 2.36062-.83481.49928 0 .95862.11184t.88273.33153v1.23423q-.42738-.29158-.84279-.42739-.4154-.1358-.87474-.1358-.82282 0-1.29415.52724-.47132.52724-.47132 1.45391 0 .92268.47132 1.44992.47133.52725 1.29415.52725.45934 0 .87474-.13581.4154-.1358.8428-.42738zm6.63449-.11584q-.57518.2796-1.19429.4194-.61911.1398-1.27816.1398-1.48987 0-2.36062-.83081-.87075-.8348-.87075-2.26076 0-1.44193.88673-2.26874.88673-.82682 2.42852-.82682.59514 0 1.13836.11184.54722.11184 1.03052.33153v1.23423q-.49928-.28359-.99457-.42339-.4913-.1398-.98658-.1398-.91869 0-1.41797.51526-.49529.51126-.49529 1.46589 0 .94665.47931 1.46191t1.36205.51526q.23966 0 .44336-.028.2077-.032.37147-.0959v-1.15834h-.93865v-1.03052h2.39656zm3.53892-2.87587q.4833 0 .69101-.17974.2117-.17975.2117-.59116 0-.40741-.2117-.58316-.2077-.17575-.691-.17575h-.64708v1.52981zm-.64707 1.06247v2.25677h-1.5378v-5.96345h2.34864q1.1783 0 1.72552.39543.55121.39544.55121 1.25021 0 .59115-.28758.97061-.2836.37945-.85877.5592.31554.0719.56319.32753.25164.25163.50727.7669l.8348 1.69357h-1.63765l-.72695-1.48188q-.21969-.44736-.44736-.61112-.22368-.16377-.59914-.16377zm4.76117-3.70668h1.5378v3.57487q0 .73894.23965 1.05848.24365.31555.79087.31555.5512 0 .79086-.31555.24365-.31954.24365-1.05848v-3.57487h1.5378v3.57487q0 1.26619-.6351 1.8853-.63508.61911-1.93721.61911-1.29814 0-1.93323-.61911-.63509-.61911-.63509-1.8853z" style="text-align:start" transform="matrix(.96394 0 0 1.0374 0 -270.542)" stroke="#000" stroke-linejoin="round" stroke-width=".317"/><g transform="matrix(1.1558 0 0 1.24389 .148 -404.786)" style="text-align:start" fill="#637553" stroke-width=".265" filter="url(#b)"><path d="M5.1712 345.4057q-.35311.18322-.7362.27649-.3831.0933-.7995.0933-1.24255 0-1.96876-.6929-.7262-.69623-.7262-1.88548 0-1.19258.7262-1.88548.72621-.69622 1.96876-.69622.4164 0 .7995.0933.38309.0933.7362.27649v1.02935q-.35644-.24323-.70289-.35649-.34645-.11326-.72954-.11326-.68624 0-1.07932.43972-.39309.43973-.39309 1.21257 0 .76952.39309 1.20924.39308.43972 1.07932.43972.3831 0 .72954-.11326.34645-.11326.70289-.35644zm5.53318-.0966q-.4797.23318-.99604.34978-.51634.11659-1.066.11659-1.24254 0-1.96875-.6929-.72621-.69623-.72621-1.88548 0-1.20257.73953-1.89214.73954-.68956 2.0254-.68956.49635 0 .9494.0933.45637.0933.85945.27649v1.02935q-.4164-.23651-.82947-.35311-.40975-.11659-.82282-.11659-.76618 0-1.18259.42973-.41307.4264-.41307 1.22256 0 .78951.39975 1.21924.39975.42972 1.13595.42972.19987 0 .36977-.0233.17322-.0267.3098-.0799v-.96606h-.78284v-.85946h1.99874zm2.95148-2.39849q.40308 0 .5763-.14991.17656-.1499.17656-.49302 0-.33979-.17656-.48636-.17322-.14658-.5763-.14658h-.53966v1.27587zm-.53966.88611v1.88214h-1.28253v-4.97353h1.95877q.98271 0 1.4391.32979.4597.32979.4597 1.04268 0 .49302-.23985.80949-.23651.31647-.71621.46637.26316.06.4697.27316.20987.20987.42307.6396l.69623 1.41244h-1.36581l-.60628-1.23588q-.18322-.3731-.3731-.50968-.18655-.13658-.49969-.13658zm3.97083-3.09139h1.28252v2.98145q0 .61628.19988.88278.2032.26317.65958.26317.45971 0 .65959-.26317.2032-.2665.2032-.88278v-2.98145h1.28253v2.98145q0 1.05601-.52967 1.57235-.52966.51634-1.61565.51634-1.08265 0-1.61232-.51634-.52966-.51634-.52966-1.57235z" style="text-align:start"/></g></svg>