<svg xmlns="http://www.w3.org/2000/svg" role="img" viewBox="0.39 0.29 47.22 47.42"><title>CGRU logo</title><path fill="#efcd4a" stroke="#f4802d" stroke-width="9.709" d="M90-5L77.17 41.186l37.499 29.86-47.891 2.07-16.81 44.891L33.2 73.1l-47.889-2.115L22.84 41.16 10.053-5.04l39.96 26.476z" transform="matrix(.28712 0 0 -.30185 9.647 41.05)"/><path d="M20.381 1.836h-1.206l-1.514 1.103c-1.85-.9-3.14-1.194-5.131-1.194-6.169 0-10.599 3.625-10.599 8.669 0 2.341.87 4.188 2.664 5.786 1.935 1.711 4.318 2.477 7.598 2.477 4.963 0 7.823-1.936 8.889-5.967l-1.738-.337c-.758 3.13-3 4.908-6.225 4.908-3.814 0-5.608-2.319-5.608-7.272 0-4.661 1.794-7.093 5.243-7.093 3.113 0 5.16 1.734 6.421 5.494l1.486-.135zm22.385 0h-1.234L39.878 2.96c-1.963-.9-3.337-1.216-5.356-1.216-3.224 0-5.972.924-8.047 2.725-1.907 1.62-2.776 3.512-2.776 5.989 0 4.863 3.982 8.218 9.786 8.218 1.71 0 3.42-.338 4.71-.923.702-.338 1.15-.63 1.963-1.306l1.374 2.207h1.486v-4.639c0-1.418 0-1.53.197-1.71.252-.226.7-.294 2.299-.316v-1.216H35.56v1.216h.308c2.44 0 2.552.067 2.552 1.711v.315c0 2.117-1.654 3.49-4.15 3.49-1.71 0-3.112-.72-3.813-1.936-.757-1.306-1.15-3.13-1.15-5.246 0-2.387.56-4.368 1.598-5.72.813-1.057 2.3-1.688 3.954-1.688 3.308 0 5.748 1.96 6.673 5.381h1.486zM9.333 38.67h1.57c1.206 0 1.991.226 2.496.676.449.428.561.698.673 1.981.168 1.509.309 2.455.393 2.815.476 1.756 2.047 2.68 4.486 2.68 3.028 0 4.767-1.374 4.767-3.76v-.271h-1.514c-.029 1.418-.45 2.139-1.29 2.139-.309 0-.645-.135-.813-.338-.169-.18-.197-.338-.337-1.058 0-.09-.056-.315-.112-.63l-.196-.856c-.42-2.026-1.486-3.04-3.926-3.693 1.486-.225 2.215-.382 2.916-.652 1.71-.698 2.692-1.937 2.692-3.4 0-1.351-.813-2.5-2.271-3.265-1.066-.54-2.944-.81-5.524-.81H1.37v1.215h.42c1.459 0 2.048.09 2.3.315.196.203.196.27.196 1.712v9.749c0 1.44 0 1.508-.196 1.711-.252.225-.841.315-2.3.315h-.42v1.216h11.216v-1.216h-.729c-1.458 0-2.075-.09-2.327-.315-.197-.203-.197-.27-.197-1.711zm0-1.238v-4.548c0-1.283.197-1.44 1.991-1.44h.673c2.608 0 3.786.922 3.786 2.971 0 2.297-1.178 3.017-4.907 3.017zM32.03 33.47c0-1.419 0-1.509.196-1.689.253-.248.87-.338 2.327-.338h.421v-1.216H24.067v1.216h.42c1.458 0 2.047.09 2.3.338.196.18.196.27.196 1.689v7.137c0 1.891.196 2.837.729 3.625 1.15 1.689 3.87 2.59 7.823 2.59 3.589 0 5.748-.766 7.122-2.5.785-1.013 1.01-2.026 1.01-4.683v-4.526c0-1.981.14-2.567.728-3.062.449-.383 1.234-.585 2.356-.608v-1.216h-7.992v1.216c1.094.023 1.851.225 2.3.608.588.495.729 1.058.729 3.062v4.526c0 1.846-.113 2.724-.477 3.355-.813 1.418-2.44 2.139-4.767 2.139-1.598 0-2.804-.383-3.589-1.104-.617-.608-.925-1.71-.925-3.354z" style="" fill="#183e00"/></svg>