<svg xmlns="http://www.w3.org/2000/svg" role="img" viewBox="1.35 1.85 501.80 129.80"><title>Cinepaint logo</title><defs><style>.cls-1{fill:#fff}</style></defs><path d="M400.903 122.457c-29.314 0-58.628-.053-87.941.073-3.338.015-4.511-.626-4.495-4.278q.225-51.215.003-102.43c-.014-3.566 1.02-4.35 4.439-4.343q88.19.156 176.382.014c3.1-.004 4.251.577 4.237 4.023q-.207 51.465-.003 102.93c.013 3.365-.996 4.093-4.182 4.08-29.48-.116-58.96-.069-88.44-.069zM70.218 42.717c.267 4.002-.907 8.31-2.55 12.538-.719 1.848-1.615 3.793.135 5.562.935.946 2.185.746 3.302.387 2.253-.725 3.922-2.264 3.836-4.672-.112-3.135-.881-6.241-1.105-9.378a16.974 16.974 0 0 1 10.094-16.85c5.838-2.527 13.28-.605 18.152 4.685 8.24 8.949 3.282 23.56-9.108 26.608a38.176 38.176 0 0 1-6.93.728c-2.163.123-4.014.768-4.818 2.889-.732 1.932.143 3.611 1.56 4.934a4.944 4.944 0 0 0 6 .96 39.079 39.079 0 0 0 5.093-3.989c8.057-6.43 18.012-5.256 23.557 2.778a15.942 15.942 0 0 1-4.67 22.698c-7.922 4.843-18.24 1.614-22.873-7.167-.62-1.175-1.16-2.393-1.79-3.562a4.697 4.697 0 0 0-5.495-2.438 5.35 5.35 0 0 0-4.546 4.682 4.746 4.746 0 0 0 2.588 5.435c1.473.77 3.025 1.403 4.445 2.258 8.05 4.846 10.695 15.406 5.813 23.037a15.685 15.685 0 0 1-22.353 4.233c-7.705-5.468-8.963-15.416-2.928-23.314a56.558 56.558 0 0 0 4-5.092 5.174 5.174 0 0 0-.671-6.467c-1.305-1.458-2.969-2.322-4.905-1.599-2.371.885-3.014 3-2.944 5.285.16 5.186-1.015 9.895-4.506 13.885-5.295 6.05-13.048 7.765-19.326 4.253-6.834-3.822-10.565-12.665-8.28-19.622 2.34-7.117 10.09-12.216 17.49-11.38 2.14.242 4.232.9 6.365 1.253 2.426.401 4.662.032 6.272-2.091a4.45 4.45 0 0 0 .818-4.68c-.9-1.903-2.755-1.567-4.38-1.114-2.4.668-4.725 1.617-7.139 2.217-17.732 4.4-33.805-5.928-36.706-23.534-2.908-17.65 9.436-33.76 26.965-35.192 17.686-1.445 31.515 11.816 31.538 30.836zm116.606 50.961a5.304 5.304 0 0 1-3.716 5.736c-10.797 4.266-21.73 4.895-32.583.539-12.961-5.202-19.924-18.042-17.931-32.3 1.989-14.23 12.328-24.132 27.455-25.981a53.586 53.586 0 0 1 23.17 2.214c2.32.748 3.841 1.52 2.88 4.5-.704 2.18-.682 4.593-1 6.9-.127.934.07 2.106-1.376 2.208-1.379.098-1.465-.858-1.683-1.908-1.456-7.015-3.319-8.7-10.89-10.037-14.442-2.55-26.26 4.685-28.992 17.747-3.448 16.484 4.797 30.903 19.546 34.182 8.42 1.871 13.08 1.177 25.12-3.8zm41.547-31.883c1.22 2.065-.274 4.326.676 6.405 1.786-.267 2.788-1.712 3.895-2.825 4.79-4.821 10.316-4.86 16.117-2.526 5.67 2.281 6.913 7.098 6.871 12.637-.045 5.988.146 11.977.16 17.965.008 3.069.277 5.787 4.394 5.604.868-.04 1.729.263 1.685 1.332-.047 1.118-.993 1.107-1.822 1.13-.332.009-.666-.022-.998-.011-10.504.334-10.495.334-10.458-10.159.017-4.99.115-9.984-.043-14.969-.195-6.16-3.458-9.436-9.182-9.545-6.074-.117-10.987 3.937-11.11 9.565-.128 5.811.22 11.631.2 17.447-.009 3.024.425 5.346 4.254 5.1.95-.062 2.23.1 2.147 1.45-.087 1.406-1.387 1.113-2.32 1.117q-7.985.033-15.97.013c-.965-.001-2.259.19-2.25-1.213.009-1.274 1.256-1.45 2.252-1.388 3.795.24 4.221-2.052 4.276-5.095.134-7.48.464-14.95.09-22.439-.141-2.807-.778-4.499-3.994-4.098-1.119.14-2.636.244-2.647-1.379-.01-1.61 1.583-1.311 2.666-1.555 3.704-.835 7.4-1.704 11.111-2.563zM299.73 94.7a4.947 4.947 0 0 1-2.636 4.679c-7.064 4.681-18.821 4.345-24.927-.738-6.718-5.593-8.675-17.31-4.462-26.722 3.095-6.914 12.473-11.64 20.87-10.517 8.095 1.083 13.6 8.659 12.71 16.94-.31 2.88-2.285 2.61-3.857 2.686-6.64.32-13.3.667-19.934.457-3.756-.119-4.043 1.373-3.58 4.374 1.401 9.075 9.448 14.379 18.323 11.803 2.462-.714 4.793-1.88 7.494-2.962zm-94.07-15.278c0 4.815.047 9.63-.018 14.445-.04 2.997.452 5.34 4.283 5.078.91-.062 2.213.052 2.127 1.452-.088 1.45-1.377 1.107-2.29 1.112q-7.977.041-15.955.01c-.935-.003-2.256.273-2.351-1.102-.09-1.295 1.156-1.529 2.136-1.479 4.032.206 4.49-2.265 4.456-5.46-.077-7.307-.017-14.618.054-21.927.025-2.667-.46-4.649-3.825-4.257-1.106.128-2.66.324-2.852-1.209-.204-1.625 1.372-1.463 2.466-1.707a84.489 84.489 0 0 0 9.19-2.206c2.71-.934 2.688.307 2.652 2.31-.09 4.978-.03 9.959-.03 14.938zm.487-31.865c-.144 2.972-1.601 4.81-4.596 4.818-2.938.008-4.653-1.65-4.637-4.68a4.15 4.15 0 0 1 4.288-4.533c2.967-.157 4.635 1.432 4.945 4.395z"/><path d="M316.49 73.348c0-8.32.094-16.643-.055-24.96-.05-2.714.762-3.788 3.558-4.02 5.98-.494 11.921-1.11 17.886.115 7.79 1.6 12.568 6.493 13.53 13.959 1.037 8.055-2.38 14.621-9.435 18.131a27.275 27.275 0 0 1-15.067 2.472c-2.59-.255-3.102.4-3.044 2.775.138 5.655-.138 11.323.115 16.97.144 3.192-1.643 2.945-3.725 2.934-2.066-.012-3.892.271-3.824-2.916.182-8.484.062-16.973.061-25.46zm109.72-7.133a54.976 54.976 0 0 1 5.06-4.313c9.256-6.013 20.832-1.216 22.702 9.6 1.595 9.233.47 18.607.702 27.915.087 3.512-2.704 2.001-4.374 2.25-1.93.288-3.452.2-3.37-2.66.202-6.985.132-13.981.044-20.971-.101-7.986-3.447-12.368-9.276-12.395-6.185-.03-10.56 5.137-10.588 12.565-.026 6.825-.19 13.657.079 20.471.122 3.096-1.398 3.122-3.591 3.048-2.145-.073-4.216.482-4.183-3.074.111-11.814-.029-23.632-.236-35.446-.04-2.304.763-2.981 2.838-2.748 1.77.2 4.324-.889 4.041 2.576a28.996 28.996 0 0 0 .151 3.182zm-45.263 31.02c-3.742 3.636-7.434 5.535-12.057 5.503-6.513-.044-11.01-2.983-12.551-8.476a13.083 13.083 0 0 1 5.787-14.702c4.64-2.937 9.896-3.906 15.248-3.902 2.932.002 3.333-1.03 2.855-3.536-.743-3.894-2.844-6.27-6.812-6.842a18.936 18.936 0 0 0-10.225 1.478c-1.253.53-2.556 2.016-3.392-.612-.588-1.844-1.355-3.377 1.177-4.387 5.708-2.276 11.522-3.291 17.51-1.447 5.898 1.817 9.15 6.407 9.446 13.771.34 8.465.236 16.946.485 25.415.043 1.477-.142 2.417-1.656 2.137-1.723-.318-4.134 1.443-5.078-1.484-.25-.773-.402-1.577-.737-2.916zm93.9-46.315a3.682 3.682 0 0 1 .392.97c.607 7.92.596 8.047 8.167 8.498 2.328.139 2.632 1.016 2.664 3 .035 2.213-.794 2.734-2.897 2.859-7.854.465-7.848.553-7.848 8.3 0 4.665-.065 9.33.015 13.993.108 6.261 1.357 7.698 7.444 7.842 2.094.05 2.493.736 2.595 2.53.104 1.828.097 3.063-2.21 3.615-8.666 2.074-14.703-2.081-15.069-11.007-.3-7.318-.187-14.659-.045-21.985.048-2.497-.495-3.773-3.22-3.354-2.338.36-3.153-.622-3.244-3.047-.108-2.901 1.517-2.832 3.444-2.665 1.924.167 3.443-.176 2.948-2.594-1.194-5.834 2.873-6.312 6.864-6.954zm-75.366 30.491c.002-5.993.177-11.993-.064-17.977-.146-3.634 2.145-2.855 4.216-3.009 2.32-.172 3.592.146 3.55 3.082q-.258 17.726-.001 35.457c.05 3.356-1.946 2.723-3.856 2.746-1.99.024-4.014.454-3.902-2.821.199-5.82.056-11.651.057-17.478zm4.019-27.739c-3.005-.149-4.674-1.655-4.676-4.617-.001-2.912 1.508-4.628 4.53-4.643 2.986-.015 4.57 1.603 4.62 4.545.05 2.99-1.655 4.446-4.473 4.715z" class="cls-1"/><path fill="#020202" d="M48.12 50.573c.081 6.682-5.13 11.677-12.181 11.677-8.91 0-17.109-7.72-17.106-16.106.002-6.774 5.071-11.628 12.177-11.658 8.846-.039 17.01 7.637 17.11 16.087z"/><path fill="#060606" d="M48.985 42.251c-4.215-2.794-6.907-6.557-7.08-11.737-.254-7.58 6.414-11.906 13.28-8.699A13.159 13.159 0 0 1 61.94 38.5a.915.915 0 0 1-1.253-.031 6.522 6.522 0 0 1-.986-3.299c-.425-3.103-2.036-5.255-5.114-6.063-2.194-.576-4.424-.473-5.972 1.415-2.08 2.539-1.473 5.276-.102 7.938a17.5 17.5 0 0 1 .916 1.774 1.904 1.904 0 0 1-.444 2.017z"/><path fill="#121212" d="M60.955 38.492q.492-.006.985.008c-3.1 5.376-6.126 6.252-12.955 3.751l.047-1.595c-1.48-4.485-.343-7.264 3.508-8.575 3.527-1.2 6.237.516 7.45 4.784a2.669 2.669 0 0 0 .965 1.627z"/><path d="M283.699 78.487c-1.494 0-2.99.032-4.483-.006-5.967-.151-6.552-.952-4.916-6.658 1.691-5.897 6.494-8.817 12.178-7.403 4.525 1.126 7.958 7.337 7.04 12.368-.287 1.573-1.067 1.803-2.345 1.788-2.491-.027-4.983-.008-7.474-.008z" class="cls-1"/><path d="M323.8 50.302c10.21-1.814 17.255 1.034 19.365 6.261a12.177 12.177 0 0 1-2.886 13.304c-3.16 2.778-12.055 4.344-15.214 2.829-1.266-.347-1.03-2.58-1.115-3.9-.158-2.488-.045-4.992-.045-7.49m56.785 23.946c-.037 6.749-2.545 10.257-7.85 11.603-3.63.922-6.86.214-8.503-3.25-1.723-3.632-1.067-7.258 2.34-9.8 3.493-2.605 7.711-3.014 11.876-2.969 2.538.212 2.141 3.629 2.137 4.416z"/><path fill="#f3f3f3" d="M45.03 44.97c-5.494-.329-8.941 2.014-8.804 5.983.123 3.569 2.932 5.31 8.014 4.966-4.513 3.135-9.453 2.405-12.738-1.881-2.906-3.792-2.476-8.947.97-11.633 3.881-3.024 8.517-2.078 12.559 2.564z"/><path fill="#f1f1f1" d="M60.955 38.492c-.674-.26-1.57 1.67-1.535.46.12-4.175-1.629-6.631-5.666-6.155-4.354.514-4.856 4.194-4.722 7.858-3.618-2.64-4.397-6.13-2.447-9.98 1.534-3.029 4.488-3.904 7.666-3.185a8.121 8.121 0 0 1 6.824 8.027 27.387 27.387 0 0 1-.12 2.975z"/></svg>