<svg xmlns="http://www.w3.org/2000/svg" role="img" viewBox="-2.56 -2.56 132.99 132.99"><title>Cinepaint logo</title><path d="M0 64v64h128V0H0v64zm58.5-38.1c9.8 4.3 14.1 10.9 13.2 20.3-.3 3.2-1.1 6.6-1.9 7.5-1.2 1.5-1 1.5 1.9 0 7.4-3.9 21.1-.9 23 4.9.9 2.7 1 2.7 9.3 2.5 14.3-.3 23 3.7 23 10.5 0 4.8-2.6 5.9-14.3 5.8H103l2.5 2.6c2.9 3 3.4 8.3 1 11.8-2.5 3.5-11.4 5.6-20.4 4.8-10.8-.9-20-3.3-23.7-6.1-3.9-3-4.1-3-6.8-.7-2.1 1.7-2.1 1.7-.3-.4 2-2.5 4-8.4 2.7-8.4-.5 0-1.1.8-1.5 1.9-.3 1-1.5 2.7-2.6 3.7-1.9 1.7-2 1.7-1.3 0 .4-1 .3-1.7-.2-1.4-.5.2-2.7 1.3-4.9 2.3-6.1 3-23.3 2.8-29.5-.3-7.7-3.8-9.2-4.9-8.1-5.6.6-.4 1.1-1.5 1.1-2.5 0-6.7 10.2-10.4 29-10.7 17.3-.2 16.9-.2 14.6-1.5-1-.6-5.6-1.4-10.2-1.7-4.6-.2-8.4-.9-8.4-1.5 0-.5-1.3-.7-3.1-.3-8.3 1.6-20.1-13-15.9-19.8.7-1.1 2.3-4 3.6-6.4 2-3.8 2.1-4.3.6-3.7-4 1.5 2.7-3.8 8.9-6.9 6-3.1 7-3.3 15-3.1 6.2.2 9.9.8 13.4 2.4zM51 88.4c0 .2-.8 1-1.7 1.7-1.6 1.3-1.7 1.2-.4-.4 1.3-1.6 2.1-2.1 2.1-1.3zM43.5 94c-.3.5-1.2 1-1.8 1-.7 0-.6-.4.3-1 1.9-1.2 2.3-1.2 1.5 0z"/><path d="M53.5 28.7c-3.3.8-6.5 4.5-6.5 7.3 0 5.7 7.6 11.7 13.5 10.6 8.8-1.7 11.3-8.9 5-14.5-2-1.7-4.1-3.1-4.8-3.1-.7 0-2.1-.2-3.2-.4s-2.9-.2-4 .1zm5.9 5.3c1.4.5 3.2 2.1 4.2 3.5 1.5 2.3 1.5 2.7 0 5-1.1 1.7-2.5 2.5-4.4 2.4-2.7 0-2.7 0-.4-1 2.8-1.1 2.8-5.5-.1-5.3-.9.1-1.7-.2-1.7-.7 0-1.5-2.7-1-4.1.7-1 1.3-1 2 0 3.7l1.3 2.2-2.2-2.2c-2.8-2.6-2.1-6.9 1.3-8.3 2.9-1.2 3.1-1.2 6.1 0zm-31 .1c-7.9 2.3-10.4 10.8-4.7 16 5.9 5.2 15.7 4.7 21.2-1.2 4.1-4.5 1.7-11.6-4.9-14.3-4.4-1.8-6.9-1.9-11.6-.5zM42 39c1.1.6 2.4 2 3 3.1 3.6 6.6-8 11.6-14.2 6.1-5.8-5.1 4-13.1 11.2-9.2z"/><path d="M36.6 42.6c-.9.8-1.6 2.1-1.6 2.8 0 3.3 5.7 4.9 8 2.1 1.6-1.9.8-5-1.3-4.9-.9.1-1.7-.2-1.7-.7 0-1.4-1.7-1.1-3.4.7zM66.1 58c-1.3 1.1-1.9 2-1.3 2 .6 0 1.6.2 2.4.5.9.4 1.3-.3 1.3-2V56c0 .1-1.1 1-2.4 2zm3.9.4c0 .8.5 1.8 1 2.1.6.3 1-.3 1-1.4 0-1.2-.4-2.1-1-2.1-.5 0-1 .6-1 1.4zM59.5 73.3c-1.7 2.4-2 6.7-.6 6.7 1.9 0 10.2-6.3 9.4-7-.4-.4-2.2-1-4-1.3-2.6-.5-3.5-.2-4.8 1.6zM83 71.4c0 .2 1.3.6 2.9.8 1.7.2 2.8.1 2.5-.4-.5-.8-5.4-1.2-5.4-.4z"/></svg>