<svg xmlns="http://www.w3.org/2000/svg" role="img" viewBox="-3.20 -10.70 790.40 379.90"><title>Cisco logo</title><defs><style>.cls-1{fill:#059fd8}.cls-2{fill:#079fd9}</style></defs><path d="M703.46 285.86c0 38.77-30.2 68.25-69.78 68.21s-69.6-29.58-69.58-68.4 30.28-68.31 69.78-68.25 69.62 29.67 69.58 68.44zm-35.3 0c0-19.55-14.8-34.61-34.17-34.71s-34.58 14.93-34.62 34.57c0 19.44 15 34.72 34.17 34.82 19.39.07 34.59-15.15 34.62-34.7zM305.4 335.43c0-4 .16-8-.06-11.94-.15-2.73.46-3.34 3.23-2.59 11 3 22.19 4.64 33.64 3.9a32.11 32.11 0 0 0 12.4-2.9c8-3.94 8.7-12.45 1.52-17.71-3.92-2.87-8.53-4.22-13.08-5.64-8.28-2.58-16.3-5.64-23.48-10.72-21.44-15.17-18.41-49.92 3.75-62.82 9.78-5.69 20.4-7.67 31.49-7.6a146.83 146.83 0 0 1 29.28 3.51c2 .42 2.7 1.18 2.66 3.33-.16 7.66-.12 15.33 0 23 0 2-.4 2.47-2.5 1.95-9-2.23-18.1-3.84-27.45-3.27a26 26 0 0 0-12 3.22c-5.81 3.46-6.4 10-1.31 14.46 3 2.62 6.69 3.83 10.38 5.06 6.59 2.2 13.37 3.86 19.61 7.06 14 7.16 22.41 18.11 22.48 34.19.08 16.78-7.3 29.42-22.45 37.17-9 4.62-18.74 6.54-28.77 6.91-12.38.46-24.63-1-36.83-3-2-.31-2.62-1.06-2.55-3 .15-4.21.04-8.39.04-12.57zm223.54-77.93a61.39 61.39 0 0 0-30.67-6.84c-19.05.72-33.38 15.22-33.81 34.43a34.39 34.39 0 0 0 32.19 35.62 59.3 59.3 0 0 0 30.14-5.62 3 3 0 0 1 2.15-.6v27.66c0 7.4 0 7.46-7.41 9.18-18.5 4.27-36.81 4.25-54.3-3.92-24.5-11.45-37.45-31.06-38.75-58-1.15-23.84 7.2-43.73 26.56-58.26 13.66-10.25 29.41-14.11 46.32-13.64a100.38 100.38 0 0 1 25.27 4c1.22.35 2.37.52 2.36 2.39-.1 11.01-.05 22.1-.05 33.6zm-347.71 0a61.09 61.09 0 0 0-30.69-6.84c-19.16.73-33.49 15.39-33.78 34.79-.29 18.8 13.49 33.8 32.28 35.27a59.91 59.91 0 0 0 31.74-6.41c.77.85.43 1.77.43 2.6 0 9.86 0 19.72.06 29.57 0 2.08-.42 3.1-2.67 3.71-20 5.32-39.8 6.13-59-2.74-24.87-11.56-37.7-31.55-38.83-58.85-.91-21.95 6.54-40.63 23.47-55 10.86-9.24 23.67-14.11 37.75-15.63a96.69 96.69 0 0 1 36.62 3.43c1.9.53 2.7 1.22 2.67 3.39-.12 10.71-.05 21.46-.05 32.71z" class="cls-1"/><path d="M227 109.12v86c0 8.89-5.15 15.68-13 17.33-10.3 2.16-19.6-5.12-20.15-15.79V22.86c0-6.66 2.17-12.14 8-15.69a15.66 15.66 0 0 1 16.73-.32c5.83 3.27 8.5 8.49 8.51 15.06q.05 36.43 0 72.87-.09 7.22-.09 14.34z" class="cls-2"/><path d="M557.41 108.75V22.13c0-9.08 5.22-15.62 13.49-17.11a16.44 16.44 0 0 1 19.44 15.66v173.85a19.27 19.27 0 0 1-2.57 10.57 16.51 16.51 0 0 1-18.41 7.18 16.27 16.27 0 0 1-12-16c-.07-23.9 0-47.79 0-71.69q.05-7.92.05-15.84z" class="cls-1"/><path d="M260.45 285.65c0 21 0 42 .06 63 0 2.54-.73 3.12-3.16 3.08-9.26-.14-18.52-.11-27.78 0-1.91 0-2.51-.46-2.51-2.46q.09-63.47 0-126.94c0-2.08.55-2.69 2.65-2.67 9.16.11 18.32.15 27.48 0 2.6 0 3.34.58 3.33 3.26-.13 20.92-.07 41.82-.07 62.73zM681.21 123.5c0 13.44.1 26.87 0 40.31-.09 8.43-6.2 14.84-14.82 16a16.31 16.31 0 0 1-17.6-11.65 18.17 18.17 0 0 1-.76-5q-.07-39.71 0-79.43c0-7 3.18-12.29 9.57-15.28 6.14-2.87 12.06-2 17.4 2.06 4.3 3.3 6.25 7.87 6.25 13.27v39.71zM103 123.31c0-13.24-.07-26.48 0-39.72a16.55 16.55 0 0 1 30.46-9.13 16.85 16.85 0 0 1 2.69 9.33c0 26.38.06 52.77 0 79.15 0 9.73-7.44 17.16-16.67 17.06s-16.44-7.47-16.48-17.26c-.05-13.15 0-26.29 0-39.43zm181.67.13c0-13.24-.08-26.48 0-39.72.06-7 3.23-12.27 9.62-15.25 6.15-2.87 12.06-2 17.37 2.15a15.63 15.63 0 0 1 6.14 12.74c.07 26.68.11 53.36 0 80A16.5 16.5 0 0 1 301.3 180c-9.25 0-16.54-7.37-16.61-17.13-.09-13.15-.02-26.29-.02-39.43z" class="cls-2"/><path d="M499.48 123.62c0 13.13.07 26.27 0 39.4-.05 6.69-3 11.94-9 15.06a15.61 15.61 0 0 1-16.69-1c-5.44-3.63-7.4-9-7.39-15.42.06-22.48 0-45 0-67.45 0-3.78-.14-7.57.11-11.34.63-9.51 8.05-16.46 16.94-16.06 9.17.41 15.95 7.55 16 17.09.09 13.26.03 26.49.03 39.72z" class="cls-1"/><path d="M12.16 146.18v-16.71c.09-9.74 7.23-17.12 16.55-17.16 9.14 0 16.46 7.2 16.6 16.78q.24 17 0 34c-.13 9.63-7.38 16.91-16.52 16.91s-16.51-7.39-16.62-17.1c-.06-5.58-.01-11.15-.01-16.72zm396.44.04c0 5.67.12 11.35 0 17-.24 9-6.11 15.48-14.88 16.6-7.54 1-15.06-4.07-17.39-11.63a19 19 0 0 1-.79-5.59c0-11.15-.09-22.3 0-33.45.09-8.12 5.33-14.72 12.69-16.4a16.48 16.48 0 0 1 18.42 8.39 18.2 18.2 0 0 1 1.95 8.64c.02 5.49 0 10.97 0 16.44z" class="cls-2"/><path d="M772 146.3c0 5.77.14 11.55 0 17.32-.26 8.83-6.44 15.31-15.25 16.27-7.51.82-15-4.39-17.08-12a22 22 0 0 1-.68-5.6c-.06-10.75-.09-21.51 0-32.26.07-9.38 5.56-16.12 13.95-17.4C763 111 771.71 118.45 771.93 129c.12 5.75.07 11.53.07 17.3z" class="cls-1"/></svg>