<svg xmlns="http://www.w3.org/2000/svg" role="img" viewBox="75.28 79.28 1597.44 340.44"><title>Collada logo</title><g fill="#F1A42B"><path d="M500.1 342c-68.6-2.4-162.1-34.5-181.6-81.3-16.9-42.5-.3-92 78.8-127.3 46.9-20.3 117.9-26.2 172.6-21.1 77.7 7.2 151.7 48.6 151.8 48.7l.1 58.2v3.9s-24.1-22.5-54.2-40.6c-28.3-17.1-54.3-29.1-105.8-33.9-12-1.1-32.6-3.9-65.8.9-13.4 2-32.3 3.5-74.9 22.9-13.8 6.8-26.5 14.1-36.3 22.6-5.1 4.4-12.1 10.7-17 15.9-12.1 15.8-18.5 27.6-15.4 49 3.6 16.1 10.5 26.2 30.5 41.6 8.7 6.7 9.7 6.6 13.5 8.7 35.8 19.1 64.4 26.1 105.3 31.3"/><path d="M503.5 157c68.7-.4 166.2 27.9 191.6 73.6 22.3 41.7 12.1 91.8-62.2 130.1-44.2 22.1-114.3 30.9-169.5 28-78.4-4-157.5-42.3-157.7-42.4l-7.6-58-.5-3.9s26.9 21.5 59.3 38.3c30.5 15.9 57.9 26.8 109.9 29.5 12.2.6 33 2.5 65.5-3.6 13.1-2.5 31.8-4.8 71.7-25.8 12.9-7.4 24.6-15.2 33.3-24 4.6-4.6 10.7-11.1 15-16.6 10.1-16.2 15-28.3 9.1-49.5-5.7-15.9-13.9-25.7-35.8-40.2-9.5-6.3-10.5-6.2-14.6-8.1-38.2-17.5-67.6-23.4-109.1-26.9"/></g><path d="M243.4 237.1c-2.7-19.2-21.1-33.9-42.3-33.9-38.2 0-52.5 32.5-52.5 66.4 0 32.2 14.4 64.7 52.5 64.7 26 0 40.6-17.9 43.9-43.3h41.2c-4.3 48.2-37.6 79.1-85 79.1-59.9 0-95.1-44.7-95.1-100.5 0-57.4 35.2-102.1 95.1-102.1 42.5 0 78.3 24.9 83.4 69.6h-41.2zm501.3-65h42.5v157.6h94.2v35.7H744.7V172.1zm145.8 0H933v157.6h94.2v35.7H890.5V172.1zm219 0h43.6l72.3 193.3h-44.1l-14.6-43.1h-72.3l-15.2 43.1h-43.1l73.4-193.3zm-4.1 118.7h50.1l-24.4-70.9h-.5l-25.2 70.9zm129.3-118.7h83.4c50.1 0 87.7 31.4 87.7 95.6 0 56.1-28.7 97.8-87.7 97.8h-83.4V172.1zm42.5 157.7h37.9c24.7 0 48.2-15.2 48.2-58 0-39-13.5-63.9-55.8-63.9h-30.3v121.9zm186.4-157.7h43.6l72.3 193.3h-44.1l-14.6-43.1h-72.3l-15.2 43.1h-43.1l73.4-193.3zm-4 118.7h50.1l-24.4-70.9h-.5l-25.2 70.9z" fill="#231F20"/><g fill="#231F20"><path d="M1612.2 347.5h-7.3v18.9h-6.3v-18.9h-7.3V342h20.9v5.5zm2.9-5.5h9.3l4.2 16.2h.1l4.2-16.2h9.3v24.4h-6v-18.5h-.1l-5.1 18.5h-4.8l-5.1-18.5h-.1v18.5h-6l.1-24.4z"/></g></svg>