<svg xmlns="http://www.w3.org/2000/svg" role="img" viewBox="-3.33 -3.20 166.53 162.28"><title>ColorPipe-tools logo</title><path d="M0 17.2C0 28.1.4 34 .9 33c.6-.8.7-1.8.5-2.2-.3-.4 0-.8.6-.8s.9-.3.7-.8c-.2-.4 1-2.1 2.6-3.7C7 23.8 8 23.2 7.6 24c-.5.9-.2.8.7-.2.8-1 1.7-1.4 2.1-1 .4.4 1.2-.1 1.7-1.1.6-.9 1.5-1.7 2.2-1.7.7 0 .6.4-.3 1-.9.6-1 1-.3 1 .6 0 1.8-.6 2.5-1.3.7-.8 1.9-1.2 2.7-.9.8.3 1.1 0 .7-.7-.5-.7-.1-.9.8-.5.9.3 1.6.1 1.6-.5s.7-.8 1.5-.5c.8.4 1.5.2 1.5-.4 0-.5.7-1.3 1.6-1.6 1-.4 1.3-.2.8.6-.8 1.3 1.1.3 4-2.1 1.1-.9 1.6-1 1.2-.4-1 1.8.9 1.6 2.4-.1.6-.8 1.8-1.2 2.6-.9.8.3 1.4 0 1.4-.6s.7-.8 1.7-.4c1.1.4 1.4.3.9-.5-.5-.8-.2-1 .8-.6.9.3 1.6.1 1.6-.5s.7-.8 1.7-.4c1.1.4 1.4.3.9-.5-.5-.8-.2-1 .8-.6.9.3 1.6.1 1.6-.6 0-.6.4-.9.9-.6.8.6 10.6-2.5 11.8-3.7.3-.4 1.5-.7 2.5-.7S66 2.5 66 1.9c0-.5.4-.8.9-.5.5.4 2 .2 3.3-.3 1.5-.6-10.3-1-33.9-1L0 0v17.2zM92.5 2c2.8.9 5.9 2 7 2.4 7.6 2.9 9.7 3.6 10.6 3.1.5-.4.9-.1.9.5 0 .7.7.9 1.6.6 1-.4 1.3-.2.8.6s-.2.9.9.5c1-.4 1.7-.2 1.7.4 0 .6.7.8 1.6.5 1-.4 1.3-.2.8.6s-.2.9.9.5c1-.4 1.7-.2 1.7.4 0 .6.6.9 1.4.6.8-.3 2 .1 2.6.9 1.5 1.7 3.4 1.9 2.4.1-.4-.6.1-.5 1.2.4 2.9 2.4 4.8 3.4 4 2.1-.5-.8-.2-1 .8-.6.9.3 1.6 1.1 1.6 1.6s.6.8 1.2.6c.7-.3 1.9.1 2.6.9.7.7 1.9 1.3 2.5 1.3.7 0 .6-.4-.3-1-.8-.5-1-1-.5-1 .6 0 1.8.9 2.8 2 .9 1.1 2.2 2 2.9 2 .9 0 .8-.3-.2-1-.9-.6-1-1-.3-1s1.6.8 2.2 1.7c.5 1 1.3 1.5 1.7 1.1.4-.4 1.3 0 2.1 1 .9 1 1.1 1.1.7.2-.4-.8.6-.2 2.3 1.4 1.7 1.6 2.9 3.5 2.6 4.3-.3.7 0 1.3.7 1.3.6 0 .9.3.7.7-.3.5-.1 1.7.3 2.8.4 1.1.8-6.2.9-16.3l.2-18.2-36.3.1C88.3.3 87.6.3 92.5 2z"/><path d="M25.5 22.7c-4.6.5-11.3 3.2-11.9 4.8-1.5 4 2.8 6.5 12.4 7.2 11.1.9 20.4-3.1 18-7.7-1.4-2.7-11.5-5-18.5-4.3zm94.3.5c-4.3 1.1-7.1 3.9-6.2 6.1 1 2.6 7.9 4.7 15.2 4.6 7.8-.1 13-1.7 14.9-4.6 1.2-1.8 1.2-2.3-.2-3.6-3.4-3.4-15.5-4.7-23.7-2.5zm-25 9.9c-4.2 1.2-7.3 4.2-6.5 6.3 1.9 4.9 18.6 6.8 26.3 3 5-2.4 5.4-6.1.9-8.3-3.7-1.8-15.8-2.4-20.7-1zM68.5 44.2c-4 1.4-5.5 2.7-5.5 4.7 0 4.1 11.7 6.8 21.1 5 15.4-3 10.8-11-6.2-10.8-3.5 0-7.7.5-9.4 1.1zm47.8 5.8c-8.6 5.2-12.7 21.3-6.7 25.7 7.6 5.6 20.4-5.6 20.4-17.9 0-8.8-6.3-12.4-13.7-7.8zm-83.6-.3c-.9.2-2.4 1.7-3.2 3.3C25 61.7 33 77 42.1 77c5 0 7.1-2.6 7.1-8.8 0-7.2-4.3-14.6-10.4-17.8-2.8-1.4-3.1-1.5-6.1-.7zm23 11.7c-6.7 5.3-2.1 21.2 7.5 26.2 3.8 2 5.5 1.8 8.3-1.1 6.8-6.7-.6-24.6-10.6-26.1-2.1-.3-4.1.1-5.2 1zM7.8 68.7c-2.8.7-5.1 7-4.4 11.7C4.8 88.7 12 97 17.9 97c1.2 0 3.3-1.1 4.6-2.5 7.9-7.8-4-28.8-14.7-25.8zm22.5 12.9c-2.3 2.3-2.5 3.1-2 8.4 1.3 14.3 16 23.7 20.4 13.2 3-7.2-1.9-19.2-9.1-22.6-4.7-2.2-6.3-2-9.3 1zm85 .3c-10.6 7.7-11.2 26.1-.9 26.1 8 0 16.2-10.9 15.3-20.4-.8-8.7-7-11.1-14.4-5.7zm-58 9.2c-7 2.6-5 18.2 3.2 24.5 4.2 3.2 9.8 3.3 11.9.2 3.4-4.9.9-16.4-4.7-21.7-3-2.7-7.6-4.1-10.4-3z"/><path d="M90.4 91.9c-9.7 5.9-13.5 20.8-6.6 26.1 5.1 4.1 13.1-.1 17.6-9.2 6.3-12.7-.5-23.3-11-16.9zm-84.8 9.3c-2.5 4.1-2.8 6.7-1.2 12.2C6.9 122 15.8 128.8 21 126c6.2-3.3 4.9-15.3-2.5-22.7-3.4-3.5-4.9-4.3-7.8-4.3-2.7 0-4 .6-5.1 2.2zm135.3.8c-4.9 4-8.3 12-7.6 17.9.7 6 3.6 8.5 9 7.8 10-1.4 17.8-17.8 12.4-26-2.6-3.9-8.9-3.8-13.8.3zm-24.6 10c-8.6 5.2-12.7 21.3-6.7 25.7 7.6 5.6 20.4-5.6 20.4-17.9 0-8.8-6.3-12.4-13.7-7.8z"/><path d="M158.2 117.9c-.6 1.6-.8 3.2-.5 3.5.4.3-.1.6-1.1.6-.9 0-1.4.4-1.1 1 .3.5.1 1-.5 1s-.8.5-.5 1c.4.6.1.9-.7.8-.7-.2-1.2.4-1 1.2.2.8 0 1.2-.4.8-.4-.4-1.3 0-2.1 1-.8.9-1.1 1.1-.8.4.6-1.1.3-1.1-1.3-.1-1.2.7-1.8 1.7-1.5 2.3.3.5.2.6-.4.3-1.2-.7-6.3 1.4-6.3 2.6 0 .5-.4.6-.9.3-1.2-.8-6.3 1.9-5.4 2.8.4.4 0 .4-1 0-1-.3-1.7-.1-1.7.6 0 .6-.5.8-1.1.5-.6-.4-1.7.1-2.5 1.1-.9 1.1-1.3 1.3-.9.6 1-1.9-.2-1.4-2.6 1-1.2 1.3-1.9 1.7-1.5 1 .4-.6.2-1.2-.4-1.2-.6 0-1.3.7-1.6 1.5-.4.8-1 1.2-1.5.9-1.1-.6-5.1 1.5-6.2 3.2-.4.8-1.3 1.4-2 1.4-.8 0-.6-.4.3-1.1 1.3-.9 1.3-1 0-.5-.8.3-2.3.9-3.2 1.2-1 .4-1.8 1-1.8 1.5s-.7.6-1.5.3c-.8-.4-1.7.1-2.1.9-.3.9-1.2 1.3-1.9 1.1-.7-.3-1.6-.1-2 .5-.3.6-1.5 1.1-2.6 1.1-1 0-1.9.5-1.9 1.1 0 .5-.4.7-1 .4-.5-.3-1.8-.1-2.7.4-1.3.7 9.1 1 34 1.1H160v-20.5c0-11.3-.2-20.5-.4-20.5s-.9 1.3-1.4 2.9zM0 135.9L-.1 156h35.8c24.4-.1 35.2-.4 34-1.1-.9-.6-2.2-.7-2.7-.4-.6.3-1 .1-1-.4 0-.6-.9-1.1-1.9-1.1-1.1 0-2.3-.5-2.6-1.1-.4-.6-1.3-.8-2-.5-.7.2-1.6-.2-1.9-1.1-.4-.8-1.3-1.3-2.1-.9-.8.3-1.5.2-1.5-.3s-.8-1.1-1.7-1.5c-1-.3-2.5-.9-3.3-1.2-1.3-.5-1.3-.4 0 .5.9.7 1.1 1.1.3 1.1-.7 0-1.6-.6-2-1.4-1.1-1.7-5.1-3.8-6.2-3.2-.5.3-1.1-.1-1.5-.9-.3-.8-1-1.5-1.6-1.5-.6 0-.8.6-.4 1.2.4.7-.3.3-1.5-1-2.4-2.4-3.6-2.9-2.6-.9.4.6 0 .4-.9-.7-.8-1-1.9-1.5-2.5-1.1-.6.3-1.1.1-1.1-.5 0-.7-.7-.9-1.7-.6-1 .4-1.4.4-1 0 .9-.9-4.2-3.6-5.4-2.8-.5.3-.9.2-.9-.3 0-1.2-5.1-3.3-6.3-2.6-.6.3-.7.1-.4-.4.4-.6 0-1.4-.9-1.7-1-.4-1.3-.2-.8.7.3.6-.4.1-1.7-1.3-1.3-1.4-2-1.9-1.4-1 .5.8-.7-.1-2.8-2-3.7-3.5-5.1-5.4-2.1-2.9 1 .8.8-.1-.7-2.7-1.2-2.1-2.4-4.1-2.5-4.2-.1-.2-.3 8.7-.4 19.7zm55.1-13.5c-4.7 5-2.1 17.1 4.9 23 4.5 3.7 7.6 4.3 10.8 1.9 2.3-1.7 2.7-2.9 3-7.6.4-7.9-3.4-14.9-10-18.3-3.9-2-6.1-1.7-8.7 1z"/></svg>