<svg xmlns="http://www.w3.org/2000/svg" role="img" viewBox="13.68 9.68 467.14 562.64"><title>ColorPipe-tools logo</title><defs><style>.cls-1{fill:none}.cls-2{fill:#fcfcfd}.cls-5{fill:#fe5e5e}.cls-6{fill:#042bcb}.cls-7{fill:#e3d605}.cls-11{fill:#a91921}.cls-12{fill:#03bfbf}.cls-15{fill:#079932}.cls-16{fill:#d50e9f}</style></defs><path d="M244.585 76.696c-10.966-1.194-22.475 1.887-33.558 6.343-5.03 2.023-10.287 5.383-10.333 11.685-.041 5.732 4.83 8.774 9.477 10.63 23.23 9.284 46.418 8.621 69.331-1.29 4.383-1.895 8.309-5.164 8.571-9.96.308-5.623-4.23-9.198-8.852-11.224a72.88 72.88 0 0 0-34.636-6.184zm26.871-10.891c-.232 6.007 4.193 8.77 8.774 11.089 10.11 5.116 21.085 5.528 30.01 5.467 14.514.268 26.794-.647 38.204-6.16 4.593-2.219 9.034-5.077 9.31-10.888.288-6.046-4.129-9.079-8.898-10.908-23.232-8.91-46.475-8.338-69.428 1.04-4.316 1.763-7.772 5.203-7.972 10.36zm-61.624-17.603c24.08 10.855 48.93 10.646 72.739-.803 10.914-5.248 9.865-14.576-1.406-20.324-10.423-5.316-21.79-6.567-33.277-6.063-13.088-.575-25.766 1.071-37.278 7.417-10.239 5.645-10.977 15.176-.778 19.773zm1.491 28.485c4.143-1.786 8.113-4.792 8.386-10.041.314-6.056-4.216-9.209-8.744-11.196-10.568-4.638-21.746-7.035-32.226-6.505-14.186-.237-26.831 1.832-38.257 8.162-11.036 6.114-11.115 15.03.363 20.226 23.35 10.572 47.136 9.413 70.478-.646zM70 105.525c10.198 5.727 21.616 7.036 33.183 7.1 13.86.025 27.628-1.082 39.76-8.482 9.558-5.83 9.77-14.261-.129-18.905-19.216-9.015-38.843-10.56-58.1-4.977L63.692 90.792c-3.52 4.785-1.298 10.462 6.308 14.733zm276.25 4.232a72.073 72.073 0 0 0-33.445-5.502c-11.094-1.301-22.676 1.709-33.748 6.32-4.927 2.05-10.222 5.325-9.936 11.96.254 5.896 4.926 8.736 9.721 10.515 22.91 8.5 45.802 8.145 68.345-1.321 4.658-1.956 8.889-5.134 8.518-11.308-.361-6.018-4.722-8.726-9.454-10.664zm-135.687 2.675c-24.154-11.384-48.865-10.832-72.62 1.035-10.498 5.244-9.842 13.949.651 19.695 10.229 5.601 21.572 7.08 33.134 6.938 13.425.26 26.577-1.273 38.445-7.99 10.118-5.726 10.552-14.889.39-19.678zm208.571-29.567c-24.189-10.588-49.101-10.71-72.964 1.093-10.476 5.182-9.863 13.983.46 19.633 10.757 5.888 22.661 6.823 34.556 6.232 13.146.688 25.904-.709 37.374-7.217 10.337-5.866 10.951-15.198.574-19.741zm-140.418 56.912c-24.21-11.65-48.994-10.727-72.802 1.08-10.386 5.15-9.659 13.945.881 19.71 10.234 5.596 21.612 7.165 33.216 7.154 13.397-.128 26.689-1.439 38.494-8.277 10.477-6.07 10.765-14.588.21-19.667z" class="cls-1"/><path d="M69.955 85.966a16.597 16.597 0 0 0-6.263 4.826l21.022-10.53a93.262 93.262 0 0 0-14.76 5.704z" class="cls-2"/><path d="M209.832 48.202c24.08 10.855 48.93 10.646 72.739-.803 10.914-5.248 9.865-14.576-1.406-20.324-10.423-5.316-21.79-6.567-33.277-6.063-13.088-.575-25.766 1.071-37.278 7.417-10.239 5.645-10.977 15.176-.778 19.773zm1.491 28.485c4.143-1.786 8.113-4.792 8.386-10.041.314-6.056-4.216-9.209-8.744-11.196-10.568-4.638-21.746-7.035-32.226-6.505-14.186-.237-26.831 1.832-38.257 8.162-11.036 6.114-11.115 15.03.363 20.226 23.35 10.572 47.136 9.413 70.478-.646zm-.76 35.745c-24.154-11.384-48.865-10.832-72.62 1.035-10.498 5.244-9.842 13.949.651 19.695 10.229 5.601 21.572 7.08 33.134 6.938 13.425.26 26.577-1.273 38.445-7.99 10.118-5.726 10.552-14.889.39-19.678zm34.022-35.736c-10.966-1.194-22.475 1.887-33.558 6.343-5.03 2.023-10.287 5.383-10.333 11.685-.041 5.732 4.83 8.774 9.477 10.63 23.23 9.284 46.418 8.621 69.331-1.29 4.383-1.895 8.309-5.164 8.571-9.96.308-5.623-4.23-9.198-8.852-11.224a72.88 72.88 0 0 0-34.636-6.184zM70 105.525c10.198 5.727 21.616 7.036 33.183 7.1 13.86.025 27.628-1.082 39.76-8.482 9.558-5.83 9.77-14.261-.129-18.905-9.45-4.433-33.118.013-57.024 6.341C74.884 98.2 67.062 103.875 70 105.525zm201.456-39.72c-.232 6.007 4.193 8.77 8.774 11.089 10.11 5.116 21.085 5.528 30.01 5.467 14.514.268 26.794-.647 38.204-6.16 4.593-2.219 9.034-5.077 9.31-10.888.288-6.046-4.129-9.079-8.898-10.908-23.232-8.91-46.475-8.338-69.428 1.04-4.316 1.763-7.772 5.203-7.972 10.36zm147.678 17.06c-24.189-10.588-49.101-10.71-72.964 1.093-10.476 5.182-9.863 13.983.46 19.633 10.757 5.888 22.661 6.823 34.556 6.232 13.146.688 25.904-.709 37.374-7.217 10.337-5.866 10.951-15.198.574-19.741zm-72.884 26.892a72.073 72.073 0 0 0-33.445-5.502c-11.094-1.301-22.676 1.709-33.748 6.32-4.927 2.05-10.222 5.325-9.936 11.96.254 5.896 4.926 8.736 9.721 10.515 22.91 8.5 45.802 8.145 68.345-1.321 4.658-1.956 8.889-5.134 8.518-11.308-.361-6.018-4.722-8.726-9.454-10.664zm-67.534 30.02c-24.21-11.65-48.994-10.727-72.802 1.08-10.386 5.15-9.659 13.945.881 19.71 10.234 5.596 21.612 7.165 33.216 7.154 13.397-.128 26.689-1.439 38.494-8.277 10.477-6.07 10.765-14.588.21-19.667z" class="cls-1"/><path d="M465.53 120.437c-.757 4.372-3.972 11.518.697 11.49a90.623 90.623 0 0 0-.698-11.49zm.11-2.091c-.937-5.482-2.067-9.559-3.64-12.408a62.66 62.66 0 0 1 3.53 14.499 6.586 6.586 0 0 0 .11-2.09zM39.373 105.443L85.79 91.58c23.906-6.328 47.574-10.775 57.024-6.341 9.899 4.644 9.687 13.075.13 18.905-12.133 7.4-25.9 8.507-39.761 8.481-11.567-.063-22.985-1.372-33.183-7.1-2.938-1.65 4.884-7.325 15.79-13.945-17.04 4.51-34.197 9.975-46.417 13.864a35.361 35.361 0 0 1 10.6 2.979c55.552 23.418 111.245 46.55 167.428 68.396 13.586 5.282 16.527 17.27 24.19 26.338 3.613-16.879 16.272-24.497 30.802-30.403q84.11-34.193 168.143-68.58c11.723-4.801 17.8-4.872 21.464 1.765-6.762-17.715-21.375-28.06-41.874-39.12 0 0-127.291-49.619-174.061-52.113-40.986-2.188-185.625 60.304-215.927 97.22m318.718-57.52c4.77 1.828 9.186 4.861 8.898 10.907-.276 5.81-4.717 8.67-9.31 10.889-11.41 5.512-23.69 6.427-38.204 6.159-8.925.061-19.9-.351-30.01-5.467-4.58-2.318-9.006-5.082-8.774-11.09.2-5.155 3.656-8.596 7.972-10.36 22.953-9.377 46.196-9.949 69.428-1.039zm-60.783 39.699c-.262 4.795-4.188 8.064-8.57 9.96-22.914 9.91-46.102 10.573-69.332 1.29-4.646-1.857-9.518-4.899-9.477-10.631.046-6.302 5.303-9.662 10.333-11.685 11.083-4.456 22.592-7.537 33.558-6.343a72.88 72.88 0 0 1 34.636 6.184c4.623 2.026 9.16 5.601 8.852 11.225zM210.61 28.429c11.512-6.346 24.19-7.992 37.278-7.417 11.488-.504 22.854.747 33.277 6.063 11.27 5.748 12.32 15.076 1.406 20.324-23.809 11.45-48.658 11.658-72.74.803-10.198-4.597-9.46-14.128.78-19.773zm-69.765 48.904c-11.478-5.196-11.4-14.112-.363-20.226 11.426-6.33 24.07-8.399 38.257-8.162 10.48-.53 21.658 1.867 32.226 6.505 4.528 1.987 9.058 5.14 8.744 11.196-.273 5.25-4.243 8.255-8.386 10.04-23.342 10.06-47.129 11.22-70.478.647zm30.883 62.767c-11.562.141-22.905-1.337-33.134-6.938-10.493-5.746-11.15-14.45-.651-19.695 23.755-11.867 48.466-12.419 72.62-1.035 10.162 4.79 9.728 13.952-.39 19.678-11.868 6.717-25.02 8.25-38.445 7.99zm106.777 19.344c-11.805 6.838-25.097 8.15-38.494 8.277-11.604.01-22.982-1.558-33.216-7.155-10.54-5.764-11.267-14.56-.881-19.71 23.808-11.806 48.592-12.73 72.802-1.08 10.554 5.08 10.266 13.598-.211 19.668zm68.682-27.715c-22.543 9.465-45.435 9.822-68.345 1.321-4.795-1.779-9.467-4.619-9.721-10.516-.286-6.634 5.01-9.908 9.936-11.96 11.071-4.61 22.654-7.62 33.748-6.319a72.073 72.073 0 0 1 33.446 5.502c4.732 1.938 9.093 4.646 9.454 10.664.37 6.174-3.86 9.352-8.518 11.308zm71.373-29.123c-11.47 6.508-24.228 7.905-37.374 7.217-11.895.591-23.8-.344-34.556-6.232-10.323-5.65-10.936-14.45-.46-19.633 23.863-11.803 48.775-11.681 72.964-1.093 10.377 4.543 9.763 13.875-.574 19.74z" class="cls-2"/><path fill="#bebebe" d="M468.417 145.692c-.189 52.015-1.061 104.054.194 156.04.932 38.61-16.22 63.816-50.67 78.655-51.318 22.105-98.954 53.904-154.024 63.778a141.88 141.88 0 0 1-24.863 2.374c1.172-5.817 2.808-11.448 2.788-17.58-.198-62.128.046-124.259-.293-186.386-.072-13.142-4.853-26.265.042-39.417 3.613-16.879 16.272-24.497 30.802-30.403q84.11-34.193 168.143-68.58c16.754-6.862 21.985-4.081 25.104 14.173M313.576 291.535c-.094-18.97-12.142-30.326-28.117-26.5-24.352 5.83-44.09 42.347-35.69 66.024 4.406 12.415 14.47 17.482 27.03 13.61 19.563-6.03 36.887-31.06 36.777-53.134zm.022 88.627c-.107-26.785-17.834-37.365-37.913-24.953-18.516 11.446-27.79 29.187-27.901 50.587-.117 22.76 18.59 32.67 37.8 20.682 18.078-11.283 25.708-28.877 28.014-46.316zm-.029-170.638c.086-21.552-12.839-34.129-27.854-30.356-23.166 5.821-43.1 40.191-36.763 63.387 4.515 16.526 17.392 22.721 32.684 14.916 20.709-10.57 29.112-29.242 31.933-47.947zm79.728-40.273c.739 10.731 1.767 21.21 12.063 26.573 10.007 5.212 19.773 1.948 28.435-4.183 16.55-11.712 24.5-28.623 25.484-48.171 1.12-22.237-18.463-33.36-37.638-21.806-17.853 10.757-25.534 27.992-28.344 47.587zm.204 169.644c.04 12.357 1.756 22.144 11.765 27.941 10.193 5.904 19.711 2.205 28.17-3.72 16.893-11.831 25.092-28.978 25.695-49.125.27-8.99-2.193-18.823-11.62-23.395-9.334-4.528-18.692-2.77-27.24 3.025-16.689 11.313-24.412 27.702-26.77 45.274zm-7.642 11.804c.236-14.12-1.712-23.766-11.237-28.963-9.874-5.388-19.854-2.659-28.382 3.704-17.345 12.94-26.396 30.31-24.897 52.21 1.384 20.231 17.515 29.014 35.198 18.896 19.02-10.883 27.88-28.342 29.318-45.847zm-.222-169.26c.532-15.668-1.28-25.642-11.477-31.148-10.755-5.809-20.828-1.604-29.374 5.091-16.577 12.985-24.979 30.183-23.315 51.573 1.506 19.37 17.196 28.175 34.293 18.775 19.247-10.582 28.27-27.888 29.873-44.29zm.155 84.842c.45-15.792-1.978-25.721-12.21-30.889-9.55-4.822-19.077-1.782-27.173 4.257-17.375 12.961-26.62 30.285-25.145 52.266 1.365 20.327 17.166 29.112 35.06 19.134 19.215-10.712 28.077-28.259 29.468-44.768zm7.664-12.433c.354 12.444 2.04 22.451 12.484 27.752 10.294 5.225 19.801 1.57 28.293-4.63 15.859-11.58 23.92-28.005 24.842-47.079.447-9.244-1.45-19.626-11.728-24.754-9.705-4.842-18.85-2.532-27.274 3.156-16.78 11.33-24.34 27.943-26.617 45.555z"/><path fill="#e1e1e0" d="M26.336 117.036a18.43 18.43 0 0 1 23.637-8.614c55.552 23.418 111.245 46.55 167.428 68.396 13.586 5.282 16.527 17.27 24.19 26.338-4.895 13.152-.114 26.275-.042 39.417.34 62.127.095 124.258.293 186.387.02 6.13-1.616 11.762-2.788 17.579-7.367 0-9.53-.95-18.48-3.351a57.38 57.38 0 0 1-9.275-3.573q-61.062-26.865-122.136-53.703c-23.541-10.338-48.056-19.381-59.062-45.91m65.779-82.834c-.623-18.973-8.174-34.687-23.192-46.292-7.413-5.728-16.024-9.338-25.591-4.757-9.578 4.586-12.33 13.669-12.23 22.934.21 19.305 7.759 35.762 23.317 47.622 7.373 5.62 15.954 10.027 25.505 5.029 9.727-5.09 12.21-14.277 12.19-24.536zm-.066 79.353c-.7-15.32-8.095-31.073-23.17-42.685-7.512-5.788-16.222-9.233-25.634-4.698-9.44 4.548-12.29 13.69-12.163 23.026.26 19.315 7.963 35.667 23.36 47.618 7.403 5.747 16.187 9.704 25.58 4.894 9.748-4.992 12.09-14.352 12.027-28.155zm136.324-106.579c.132-13.66-10.368-33.57-25.323-43.287-17.385-11.297-33.726-4.037-35.42 16.659-1.642 20.044 6.466 36.778 21.89 49.495 7.502 6.185 16.033 11.133 26.41 6.09 10.203-4.96 11.9-14.35 12.443-28.957zm-128.971-51.581c.186 18.856 12.095 39.779 27.402 48.146 16.029 8.762 30.096 2.927 32.79-15.036 3.164-21.096-5.018-38.762-21.193-52.303-7.443-6.232-16.105-11.467-26.419-6.353-10.483 5.198-12.725 14.888-12.58 25.546zm.005 82.645c.082 21.419 14.456 44.035 32.096 50.501 13.263 4.862 22.324.586 26.909-12.698 6.216-18.012-3.275-44.42-20.844-57.22-7.902-5.757-16.169-11.071-26.46-5.273-9.69 5.459-11.757 14.585-11.7 24.69zm-.004 86.368c1.617 17.905 9.714 36.182 30.256 46.402 14.163 7.046 25.005 1.452 29.447-13.927 5.114-17.702-5.037-43.724-22.09-55.666-7.543-5.281-15.356-10.342-25.291-5.102-9.955 5.25-12.216 14.158-12.322 28.293zm-7.414-173.478c-.013-22.373-14.668-44.999-33.078-51.07-12.319-4.064-20.394-.389-25.305 11.516-7.36 17.84 2.839 46.906 21.109 59.407 7.664 5.244 15.644 10.023 25.427 4.71 9.88-5.365 11.863-14.464 11.847-24.563zm136.067 143.591c-.089-18.554-7.593-33.681-21.802-45.41-7.742-6.391-16.495-10.717-26.565-5.865-10.607 5.11-12.933 15.264-12.371 25.634.959 17.694 8.218 32.807 22.199 44.022 7.666 6.149 16.272 10.937 26.503 5.978 10.125-4.908 12.028-14.259 12.036-24.359zm-.128 87.077c.213-23.266-10.152-42.783-25.881-52.58-15.929-9.92-30.883-4.058-33.874 14.362-3.548 21.85 5.648 39.375 22.17 53.042 7.16 5.923 15.604 10.155 25.355 5.51 10.168-4.843 12.437-13.907 12.23-20.334z"/><path d="M240.01 167.72c-11.603.012-22.98-1.557-33.215-7.154-10.54-5.764-11.267-14.56-.881-19.71 23.808-11.806 48.592-12.73 72.802-1.08 10.554 5.08 10.266 13.598-.211 19.668-11.805 6.838-25.097 8.15-38.494 8.277z" class="cls-5"/><path d="M103.183 112.624c-11.567-.063-22.985-1.372-33.183-7.1-10.417-5.849-10.788-14.344-.045-19.558 23.902-11.602 48.704-12.06 72.86-.728 9.898 4.644 9.686 13.075.128 18.905-12.132 7.4-25.9 8.507-39.76 8.481z" class="cls-6"/><path d="M244.585 76.696a72.881 72.881 0 0 1 34.636 6.184c4.623 2.026 9.16 5.601 8.852 11.225-.262 4.795-4.188 8.064-8.57 9.96-22.914 9.91-46.102 10.573-69.332 1.29-4.646-1.857-9.518-4.899-9.477-10.631.046-6.302 5.303-9.662 10.333-11.685 11.083-4.456 22.592-7.537 33.558-6.343z" class="cls-7"/><path fill="#07fefe" d="M178.74 48.945c10.48-.53 21.657 1.867 32.225 6.505 4.528 1.987 9.058 5.14 8.744 11.196-.273 5.25-4.243 8.255-8.386 10.04-23.342 10.06-47.129 11.22-70.478.647-11.478-5.196-11.4-14.113-.363-20.226 11.426-6.33 24.07-8.399 38.257-8.162zm-7.009 91.136c-11.565.16-22.908-1.318-33.137-6.919-10.493-5.746-11.15-14.45-.651-19.695 23.755-11.867 48.466-12.419 72.62-1.035 10.161 4.79 9.728 13.952-.39 19.678-11.868 6.717-25.02 8.25-38.442 7.971z"/><path d="M312.805 104.255a72.073 72.073 0 0 1 33.446 5.502c4.732 1.938 9.093 4.646 9.454 10.664.37 6.174-3.86 9.352-8.518 11.308-22.543 9.465-45.435 9.822-68.345 1.321-4.795-1.78-9.467-4.619-9.721-10.516-.286-6.634 5.01-9.908 9.936-11.96 11.071-4.61 22.654-7.62 33.748-6.319z" class="cls-6"/><path fill="#42e369" d="M247.888 21.012c11.488-.504 22.854.747 33.277 6.063 11.27 5.748 12.32 15.076 1.406 20.324-23.809 11.45-48.658 11.658-72.74.803-10.198-4.597-9.46-14.128.78-19.773 11.511-6.346 24.189-7.992 37.277-7.417z"/><path fill="#fe1cd6" d="M381.186 109.823c-11.895.591-23.8-.344-34.556-6.232-10.323-5.65-10.936-14.45-.46-19.633 23.863-11.803 48.775-11.681 72.964-1.093 10.377 4.543 9.763 13.875-.574 19.74-11.47 6.51-24.228 7.906-37.374 7.218z"/><path d="M310.24 82.36c-8.925.062-19.9-.35-30.01-5.466-4.58-2.318-9.006-5.082-8.774-11.09.2-5.156 3.656-8.596 7.972-10.36 22.953-9.377 46.196-9.949 69.428-1.039 4.77 1.83 9.186 4.862 8.898 10.908-.276 5.81-4.717 8.67-9.31 10.889-11.41 5.512-23.69 6.427-38.204 6.159z" class="cls-5"/><path d="M313.576 291.535c.11 22.075-17.214 47.103-36.777 53.134-12.56 3.872-22.624-1.195-27.03-13.61-8.4-23.677 11.338-60.193 35.69-66.025 15.975-3.825 28.023 7.53 28.117 26.5z" class="cls-11"/><path d="M313.598 380.162c-2.306 17.439-9.936 35.033-28.014 46.316-19.21 11.988-37.917 2.077-37.8-20.682.11-21.4 9.385-39.141 27.9-50.587 20.08-12.412 37.807-1.832 37.914 24.953zm-.028-170.638c-2.822 18.705-11.225 37.376-31.934 47.947-15.292 7.805-28.169 1.61-32.684-14.916-6.337-23.196 13.597-57.566 36.763-63.387 15.015-3.773 27.94 8.804 27.854 30.356z" class="cls-12"/><path fill="#bfb403" d="M393.297 169.25c2.81-19.594 10.49-36.829 28.344-47.586 19.175-11.554 38.757-.431 37.638 21.805-.984 19.55-8.935 36.46-25.484 48.172-8.662 6.13-18.428 9.395-28.435 4.183-10.296-5.362-11.324-15.842-12.063-26.573z"/><path d="M393.5 338.895c2.359-17.572 10.082-33.96 26.771-45.274 8.548-5.794 17.906-7.553 27.24-3.025 9.427 4.572 11.89 14.405 11.62 23.395-.603 20.147-8.802 37.294-25.694 49.125-8.46 5.925-17.978 9.624-28.17 3.72-10.01-5.797-11.727-15.584-11.766-27.94z" class="cls-6"/><path d="M385.86 350.699c-1.44 17.505-10.299 34.964-29.319 45.847-17.683 10.118-33.814 1.335-35.198-18.895-1.499-21.902 7.552-39.27 24.897-52.211 8.528-6.363 18.508-9.092 28.382-3.704 9.525 5.197 11.473 14.843 11.237 28.963z" class="cls-11"/><path fill="#b30a85" d="M385.637 181.44c-1.603 16.402-10.626 33.708-29.873 44.29-17.097 9.4-32.787.596-34.293-18.775-1.664-21.39 6.738-38.588 23.315-51.573 8.546-6.695 18.62-10.9 29.374-5.091 10.196 5.506 12.01 15.48 11.477 31.149z"/><path d="M385.792 266.28c-1.39 16.51-10.253 34.057-29.467 44.77-17.895 9.977-33.696 1.192-35.06-19.135-1.477-21.98 7.769-39.305 25.144-52.266 8.096-6.04 17.623-9.079 27.172-4.257 10.233 5.168 12.661 15.097 12.211 30.889z" class="cls-15"/><path d="M393.456 253.848c2.276-17.612 9.837-34.225 26.617-45.555 8.424-5.688 17.569-7.998 27.273-3.156 10.278 5.128 12.176 15.51 11.73 24.754-.922 19.074-8.984 35.498-24.843 47.079-8.492 6.2-18 9.855-28.293 4.63-10.444-5.3-12.13-15.308-12.484-27.752z" class="cls-12"/><path d="M95.88 257.168c.018 10.26-2.464 19.445-12.191 24.536-9.55 4.998-18.132.591-25.505-5.03-15.558-11.859-23.107-28.316-23.317-47.621-.1-9.265 2.652-18.348 12.23-22.934 9.567-4.58 18.178-.971 25.59 4.757 15.019 11.605 22.57 27.32 23.193 46.292z" class="cls-16"/><path d="M95.814 336.521c.064 13.803-2.278 23.163-12.027 28.155-9.393 4.81-18.177.853-25.58-4.894-15.397-11.95-23.1-28.303-23.36-47.618-.126-9.336 2.724-18.478 12.163-23.026 9.412-4.535 18.122-1.09 25.635 4.698 15.074 11.612 22.47 27.365 23.169 42.685z" class="cls-15"/><path d="M232.138 229.942c-.542 14.606-2.24 23.997-12.443 28.956-10.377 5.044-18.908.096-26.41-6.09-15.424-12.716-23.532-29.45-21.89-49.494 1.694-20.696 18.035-27.956 35.42-16.66 14.955 9.718 25.455 29.628 25.323 43.288z" class="cls-6"/><path d="M103.155 178.355c-.133-10.652 2.11-20.342 12.592-25.54 10.314-5.114 18.976.121 26.42 6.353 16.174 13.541 24.356 31.207 21.192 52.303-2.694 17.963-16.761 23.798-32.79 15.036-15.307-8.367-27.216-29.29-27.414-48.152z" class="cls-15"/><path fill="#c91e27" d="M103.161 261.001c-.045-10.1 2.022-19.226 11.712-24.685 10.291-5.798 18.558-.484 26.46 5.272 17.569 12.8 27.06 39.21 20.844 57.221-4.585 13.284-13.646 17.56-26.909 12.698-17.64-6.466-32.014-29.082-32.107-50.506z"/><path d="M103.168 347.374c.106-14.135 2.367-23.042 12.322-28.293 9.935-5.24 17.748-.18 25.291 5.102 17.053 11.941 27.204 37.964 22.09 55.666-4.442 15.38-15.284 20.973-29.447 13.927-20.542-10.22-28.639-28.497-30.256-46.402zm-7.411-173.477c.013 10.098-1.97 19.197-11.85 24.563-9.783 5.312-17.763.533-25.427-4.711-18.27-12.501-28.469-41.568-21.11-59.407 4.912-11.905 12.987-15.58 25.306-11.517 18.41 6.072 33.065 28.698 33.081 51.072z" class="cls-7"/><path d="M231.82 317.487c-.007 10.1-1.91 19.451-12.035 24.359-10.231 4.96-18.837.17-26.504-5.978-13.98-11.215-21.24-26.328-22.198-44.022-.562-10.37 1.764-20.524 12.371-25.634 10.07-4.852 18.823-.526 26.565 5.864 14.21 11.73 21.713 26.857 21.802 45.411z" class="cls-15"/><path d="M231.693 404.564c.207 6.427-2.062 15.49-12.23 20.334-9.75 4.645-18.194.413-25.354-5.51-16.523-13.667-25.719-31.192-22.171-53.042 2.99-18.42 17.945-24.282 33.874-14.361 15.73 9.796 26.094 29.313 25.881 52.579z" class="cls-16"/><path d="M24.848 532.987v-.113a20.015 20.015 0 0 1 20.534-20.366c7.426 0 11.871 2.476 15.528 6.076l-5.514 6.358c-3.037-2.757-6.131-4.445-10.07-4.445-6.639 0-11.42 5.513-11.42 12.265v.112c0 6.751 4.67 12.377 11.42 12.377 4.501 0 7.257-1.8 10.352-4.613l5.513 5.57c-4.05 4.331-8.551 7.031-16.146 7.031a19.878 19.878 0 0 1-20.197-20.252zm40.338 4.669v-.113c0-8.664 6.976-15.696 16.371-15.696 9.34 0 16.26 6.92 16.26 15.584v.112c0 8.664-6.977 15.697-16.372 15.697-9.34 0-16.26-6.92-16.26-15.584zm24.191 0v-.113c0-4.444-3.206-8.326-7.932-8.326-4.895 0-7.82 3.77-7.82 8.214v.112c0 4.445 3.206 8.326 7.932 8.326 4.895 0 7.82-3.768 7.82-8.213zm15.021-26.161h8.552v41.07h-8.552zm15.133 26.161v-.113c0-8.664 6.976-15.696 16.372-15.696 9.339 0 16.259 6.92 16.259 15.584v.112c0 8.664-6.977 15.697-16.372 15.697-9.339 0-16.259-6.92-16.259-15.584zm24.192 0v-.113c0-4.444-3.207-8.326-7.933-8.326-4.895 0-7.82 3.77-7.82 8.214v.112c0 4.445 3.207 8.326 7.933 8.326 4.894 0 7.82-3.768 7.82-8.213zm14.627-15.246h8.55v6.076c1.745-4.164 4.558-6.864 9.621-6.64v8.946h-.45c-5.682 0-9.17 3.432-9.17 10.633v11.14h-8.552zm24.416-9.227h16.09c9.395 0 15.078 5.57 15.078 13.615v.112c0 9.115-7.089 13.84-15.921 13.84h-6.583v11.815h-8.664zm15.528 19.86c4.332 0 6.863-2.588 6.863-5.964v-.112c0-3.882-2.7-5.964-7.032-5.964h-6.695v12.04zm21.322-21.548h9.002v7.595h-9.002zm.225 10.914h8.551v30.156h-8.551zm16.596.001h8.551v4.331a11.075 11.075 0 0 1 9.395-4.894c7.033 0 13.728 5.514 13.728 15.584v.112c0 10.07-6.582 15.584-13.728 15.584a11.578 11.578 0 0 1-9.395-4.5v12.94h-8.551zm23.122 15.133v-.112c0-5.007-3.375-8.326-7.37-8.326-3.994 0-7.313 3.32-7.313 8.326v.112c0 5.008 3.32 8.326 7.314 8.326s7.369-3.262 7.369-8.326zm13.39.113v-.113c0-8.607 6.131-15.696 14.908-15.696 10.07 0 14.683 7.82 14.683 16.372 0 .675-.055 1.462-.112 2.25h-20.984a6.993 6.993 0 0 0 7.369 5.907 9.882 9.882 0 0 0 7.314-3.095l4.895 4.332a15.083 15.083 0 0 1-12.321 5.626c-9.058 0-15.752-6.357-15.752-15.583zm21.265-2.532c-.507-3.825-2.757-6.413-6.357-6.413-3.544 0-5.85 2.531-6.527 6.413zm41.632-13.952h-11.983v-7.99h32.63v7.99h-11.984v31.393h-8.663zm19.016 16.484v-.113c0-8.664 6.975-15.696 16.37-15.696 9.34 0 16.26 6.92 16.26 15.584v.112c0 8.664-6.977 15.697-16.372 15.697-9.338 0-16.258-6.92-16.258-15.584zm24.191 0v-.113c0-4.444-3.207-8.326-7.933-8.326-4.894 0-7.82 3.77-7.82 8.214v.112c0 4.445 3.207 8.326 7.933 8.326 4.894 0 7.82-3.768 7.82-8.213zm13.164 0v-.113c0-8.664 6.976-15.696 16.371-15.696 9.34 0 16.259 6.92 16.259 15.584v.112c0 8.664-6.977 15.697-16.371 15.697-9.339 0-16.259-6.92-16.259-15.584zm24.192 0v-.113c0-4.444-3.207-8.326-7.933-8.326-4.895 0-7.82 3.77-7.82 8.214v.112c0 4.445 3.207 8.326 7.932 8.326 4.895 0 7.82-3.768 7.82-8.213zm15.021-26.161h8.55v41.07h-8.55zm14.232 37.075l3.657-5.625a17.058 17.058 0 0 0 9.508 3.6c2.475 0 3.6-.9 3.6-2.25v-.113c0-1.857-2.925-2.476-6.244-3.488-4.22-1.238-9.002-3.207-9.002-9.058v-.112c0-6.132 4.951-9.565 11.027-9.565a20.88 20.88 0 0 1 11.252 3.488l-3.263 5.908c-2.982-1.744-5.963-2.813-8.158-2.813-2.082 0-3.15.9-3.15 2.081v.114c0 1.687 2.87 2.474 6.132 3.6 4.22 1.406 9.114 3.432 9.114 8.944v.114c0 6.694-5.007 9.732-11.533 9.732a21.122 21.122 0 0 1-12.94-4.556z"/></svg>