<svg xmlns="http://www.w3.org/2000/svg" role="img" viewBox="422.45 -17.55 2992.60 2140.10"><title>Colour logo</title><style>svg {fill-rule:evenodd;clip-rule:evenodd;stroke-linejoin:round;stroke-miterlimit:2}</style><path fill-rule="nonzero" d="M715.272 2066.353c-48.204 0-89.933-10.792-125.187-31.657-35.253-20.864-62.593-50.362-81.299-89.933-19.425-38.85-28.778-84.896-28.778-138.137 0-53.24 9.353-99.285 28.778-138.136 18.706-38.851 46.046-69.069 81.3-89.933 35.253-20.865 76.982-30.937 125.186-30.937 35.254 0 66.91 5.755 96.408 15.828 29.498 10.792 54.68 27.34 76.263 48.204l-22.303 45.326c-24.462-20.864-48.204-35.254-71.947-44.607-23.742-9.353-49.643-13.67-77.702-13.67-55.398 0-98.566 17.987-128.783 53.96-30.937 36.693-46.046 87.775-46.046 153.965 0 66.91 15.109 117.992 46.046 153.966 30.217 36.692 73.385 54.679 128.783 54.679 28.06 0 53.96-4.317 77.702-13.67 23.743-9.353 47.485-23.742 71.947-44.607l22.303 45.326c-21.584 20.865-46.765 37.413-76.263 47.485-29.498 10.792-61.154 16.548-96.408 16.548z"/><path fill-rule="nonzero" d="M1190.116 2066.353c-46.765 0-87.774-10.792-122.309-31.657-35.253-20.864-61.873-51.082-80.58-89.933-18.705-38.85-28.058-84.896-28.058-137.417 0-53.24 9.353-99.286 28.059-138.856 17.986-38.851 44.606-69.069 79.86-89.933 34.534-20.865 75.544-30.937 123.028-30.937 47.485 0 88.494 10.072 123.748 30.937 34.534 20.864 61.154 51.082 79.86 89.933 17.987 39.57 27.34 85.616 27.34 138.136 0 52.521-9.353 98.567-28.06 137.418-18.705 39.57-45.325 69.788-79.86 90.652-35.253 20.865-76.263 31.657-123.028 31.657zm0-50.363c53.96 0 95.689-17.986 125.906-54.679 29.498-35.973 44.607-87.774 44.607-154.685 0-66.91-15.109-118.71-44.607-154.684-29.498-35.973-71.946-53.96-125.906-53.96-53.96 0-95.688 17.987-125.186 53.96-30.218 36.693-45.327 87.774-45.327 154.684s15.11 117.992 45.327 154.685c29.498 36.693 71.226 54.68 125.186 54.68z"/><path fill-rule="nonzero" d="M1527.55 2060.597v-507.222h58.995v456.86h253.97v50.362H1527.55z"/><path fill-rule="nonzero" d="M2102.395 2066.353c-46.766 0-87.775-10.792-122.31-31.657-35.253-20.864-61.873-51.082-80.58-89.933-18.705-38.85-28.058-84.896-28.058-137.417 0-53.24 9.353-99.286 28.059-138.856 17.987-38.851 44.607-69.069 79.86-89.933 34.535-20.865 75.544-30.937 123.029-30.937 47.484 0 88.494 10.072 123.747 30.937 34.534 20.864 61.155 51.082 79.86 89.933 17.987 39.57 27.34 85.616 27.34 138.136 0 52.521-9.353 98.567-28.059 137.418-18.706 39.57-45.326 69.788-79.86 90.652-35.254 20.865-76.263 31.657-123.028 31.657zm0-50.363c53.96 0 95.688-17.986 125.906-54.679 29.498-35.973 44.606-87.774 44.606-154.685 0-66.91-15.108-118.71-44.606-154.684-29.498-35.973-71.947-53.96-125.906-53.96-53.96 0-95.69 17.987-125.187 53.96-30.218 36.693-45.326 87.774-45.326 154.684s15.108 117.992 45.326 154.685c29.498 36.693 71.227 54.68 125.187 54.68z"/><path fill-rule="nonzero" d="M2637.68 2066.353c-66.19 0-116.553-17.267-150.368-51.802-33.815-34.534-51.082-85.616-51.082-152.526v-308.65h58.277v313.686c0 49.643 12.23 86.336 36.692 111.517 23.743 25.181 59.716 37.412 106.48 37.412 46.766 0 82.739-12.23 106.481-37.412 23.743-25.181 35.973-61.874 35.973-111.517v-313.686h58.996v308.65c0 66.91-17.267 117.273-51.081 151.807-34.535 35.254-84.897 52.52-150.368 52.52z"/><path fill-rule="nonzero" d="M3360.029 2060.597h-64.752l-86.336-162.599c-10.792-19.425-23.023-33.095-36.692-41.01-14.39-7.194-33.815-10.791-58.277-10.791h-94.969v214.4h-58.277v-507.222h208.645c55.398 0 97.127 12.231 126.625 36.693 28.779 24.462 43.168 60.435 43.168 107.92 0 39.57-10.792 71.226-33.095 94.969-22.304 24.461-54.68 39.57-95.689 46.045 12.95 3.598 24.462 10.073 34.534 19.426 9.353 9.353 18.706 21.584 26.62 36.692l88.495 165.477zm-195.694-263.324c39.57 0 69.068-7.914 88.494-24.461 19.425-16.548 28.778-41.01 28.778-74.105 0-32.376-9.353-56.838-28.778-72.666-19.426-15.828-48.924-23.742-88.494-23.742h-145.332v194.974h145.332z"/><g><path fill="#e45f00" d="M1232.492 1170.336l1.09.007 1.086.007 1.09.01 1.085.01 1.09.013 1.086.017 1.086.016 1.086.017 1.082.02 1.086.023 1.083.024 1.083.027 1.082.03 1.08.03 1.082.03 1.08.033 1.079.037 1.076.04 1.08.037 1.075.043 1.076.044 1.076.046 1.073.047 1.072.05 1.073.05 1.073.054 1.069.053 1.07.06 1.065.057 1.07.064 1.065.063 1.063.064 1.066.066 1.063.07 1.059.07 1.063.074 1.059.077 1.056.077 1.056.08 1.056.08 1.052.084 1.053.083 1.052.09 1.05.087 1.049.094 1.046.093 1.046.094 1.046.1 1.042.1 1.043.1 1.039.104 1.04.107 1.035.107 1.036.11 1.033.113 1.032.114 1.03.117 1.029.12 1.025.12 1.026.124 1.023.124 1.006.127 1.005.127 1.006.13 1.01.13 1.008.137 1.01.134 1.009.14 1.012.14 1.013.14 1.012.144 1.016.147 1.013.147 1.015.15 1.016.15 1.02.154 1.015.157 1.02.154 1.019.16 1.019.16 1.019.161 1.023.164 1.022.163 1.02.164 1.022.167 1.022.167 1.023.17 1.026.17 1.022.174 1.023.174 1.026.174 1.025.174 1.023.177 1.026.177 1.026.177 1.022.18 1.026.18 1.026.18 1.03.184 2.044.365 2.048.367 2.049.37 2.048.375 2.045.374 2.045.377 2.042.378 2.038.377 2.042.381 4.06.758 4.05.755 4.033.755 2.009.374 2.001.374 1.998.371 1.992.368 1.985.364 1.978.364 1.972.357 1.961.358 1.955.35 1.955.348.962.17.97.17.965.17.962.168.963.167.959.167.955.163.953.164.952.16.946.16.945.158.943.157.942.157.936.153.932.15.932.151.93.15.925.147.922.144.919.144.916.14.909.14.908.137.906.137.902.134.9.13.895.13.892.127.885.124.886.123.879.12.875.12.872.114.87.114.861.114.862.11.856.103.852.107.845.1.832.097.448.054.438.047.441.046.441.047.441.044.445.04.444.043.448.037.448.036.45.037.452.034.45.033.455.03.455.027.458.03.457.023.462.027.457.02.465.023.46.017.465.02.465.014.468.016.468.014.467.01.471.01.472.006.47.007.475.007.475.003h1.43l.481-.003.478-.007.481-.007.481-.006.485-.01.484-.01.485-.014.485-.013.487-.017.488-.017.488-.016.488-.02.491-.024.491-.023.492-.023.49-.027.495-.03.495-.027.494-.033.495-.03.498-.034.498-.037.498-.036.498-.04.497-.04.502-.04.498-.044.5-.043.505-.047.502-.047.5-.047.505-.05.505-.053.505-.054.504-.053.505-.057.504-.057.508-.06.508-.06.505-.06.508-.064.508-.063.51-.067.509-.067.508-.066.511-.07.508-.07.511-.074.511-.074.512-.076.51-.077.512-.077.511-.08.512-.08.511-.08.511-.084.515-.084.511-.087.511-.086.515-.09.511-.087.515-.094.511-.09.515-.094.514-.093.512-.097.514-.097.511-.097.515-.1.511-.1.515-.104.514-.103.512-.104.514-.103.512-.107.514-.107.511-.11.512-.11.514-.11.512-.114.51-.114.515-.114.512-.113.51-.117.512-.12.511-.117.508-.12.512-.12.51-.124.509-.124.511-.123.508-.124.508-.127.511-.127.508-.127.508-.13.505-.13.507-.13.505-.134.508-.134.505-.133.504-.134.505-.137.504-.137.505-.137.501-.14.501-.137.505-.14.501-.144.498-.14.501-.144.498-.144.501-.147.498-.143.495-.147.498-.147.494-.15.498-.15.495-.148.49-.15.495-.154.492-.15.49-.154.492-.153.491-.157.488-.154.488-.157.488-.157.484-.157.488-.157.485-.16.481-.16.485-.161.48-.16.482-.16.481-.164.478-.16.478-.164.478-.167.474-.164.475-.164.474-.167.471-.167.475-.167.468-.167.47-.17.469-.167.467-.17.465-.17.464-.171.465-.17.461-.17.461-.175.461-.173.458-.17.458-.174.458-.174.454-.174.455-.177.45-.173.452-.178.448-.177.45-.173.445-.177.448-.177.444-.18.441-.178.441-.177.442-.18.437-.177.435-.18.437-.18.435-.181.43-.177.432-.18.428-.184.427-.18.428-.181.425-.18.42-.184.422-.18.42-.184.418-.18.415-.184.417-.184.411-.18.411-.184.411-.184.408-.184.404-.183.405-.184.4-.184.402-.18.397-.184.398-.184.394-.187.395-.183.39-.184.388-.184.388-.184.387-.183.381-.184.385-.184.377-.183.378-.184.374-.184.374-.184.371-.183.371-.18.368-.184.364-.184.36-.184.362-.184.36-.18.355-.184.354-.18.354-.184.348-.18.347-.18.348-.184.34-.18.342-.18.327-.175.257-.137.244-.133.244-.134.244-.133.244-.137.04-.024.2-.113.245-.137.24-.137.244-.14.24-.14.241-.144.24-.14.241-.144.241-.147.237-.144.24-.147.238-.147.24-.15.238-.15.237-.15.237-.151.238-.154.237-.153.234-.154.237-.157.237-.157.234-.157.234-.16.234-.16.237-.161.234-.16.23-.164.235-.164.234-.163.23-.167.234-.167.23-.167.235-.17.23-.171.23-.17.231-.174.23-.17.231-.174.228-.177.23-.177.228-.177.23-.177.227-.18.228-.178.23-.184.227-.18.228-.184.223-.183.228-.187.227-.184.224-.187.227-.19.224-.188.227-.19.224-.194.224-.19.224-.194.224-.194.224-.193.22-.197.224-.197.224-.198.22-.2.22-.2.225-.2.22-.205.22-.203.221-.204.221-.204.217-.207.22-.207.221-.207.217-.21.221-.208.217-.213.217-.21.218-.215.217-.213.217-.214.217-.217.217-.217.218-.218.213-.217.218-.22.214-.22.213-.221.214-.224.214-.224.214-.223.214-.224.214-.227.214-.228.21-.227.214-.23.21-.23.211-.231.214-.23.21-.234.21-.234.211-.234.208-.237.21-.237.21-.238.208-.237.207-.24.21-.237.208-.244.207-.24.207-.245.207-.243.207-.244.204-.244.207-.247.204-.247.207-.248.204-.25.204-.25.204-.251.204-.25.204-.255.203-.25.2-.254.205-.257.2-.254.2-.257.205-.257.2-.26.2-.258.201-.26.197-.261.2-.26.198-.265.2-.264.197-.263.198-.264.2-.268.197-.263.194-.271.197-.267.197-.267.194-.271.197-.27.194-.271.194-.274.197-.27.194-.274.19-.274.194-.278.194-.274.19-.277.194-.277.19-.277.191-.28.194-.278.19-.28.188-.281.19-.284.19-.28.188-.285.19-.284.187-.284.187-.287.188-.284.187-.287.187-.287.187-.287.184-.291.187-.29.184-.288.183-.29.188-.294.183-.291.184-.294.18-.294.184-.294.184-.294.18-.294.181-.297.18-.297.184-.298.177-.297.18-.297.181-.3.18-.301.171-.288.364-.614.355-.605.354-.608.35-.608.348-.611.351-.615.344-.618.348-.618.34-.62.345-.622.337-.625.341-.624.338-.632.334-.628.334-.634.33-.635.332-.635.33-.638.324-.641.328-.641.324-.642.32-.644.322-.648.32-.648.318-.648.314-.652.314-.651.314-.655.311-.655.31-.658.308-.658.304-.658.304-.658.137-.3.137-.298.134-.3.137-.304.134-.304.133-.304.134-.31.134-.308.133-.31.134-.315.134-.314.13-.317.134-.317.13-.321.13-.32.13-.321.13-.328.131-.324.13-.327.13-.33.128-.331.13-.334.127-.334.127-.334.127-.338.127-.337.127-.34.127-.345.124-.34.127-.348.123-.344.124-.347.124-.351.123-.35.124-.355.12-.35.124-.358.12-.358.124-.357.12-.357.12-.361.12-.364.118-.364.12-.364.117-.368.12-.367.117-.368.117-.37.117-.375.117-.37.117-.374.114-.378.116-.377.114-.378.114-.38.113-.381.114-.381.114-.384.11-.384.113-.385.11-.387.111-.39.11-.388.11-.391.11-.391.111-.394.11-.394.107-.394.107-.398.107-.397.107-.401.107-.398.107-.4.107-.405.103-.4.107-.405.104-.407.104-.404.103-.408.1-.397.208-.832.203-.825.2-.829.201-.831.198-.835.197-.839.193-.845.191-.845.194-.852.187-.855.19-.855.184-.862.187-.865.18-.865.185-.872.177-.872.18-.875.177-.882.174-.881.174-.886.173-.885.17-.892.171-.892.167-.895.167-.898.164-.899.164-.905.164-.905.16-.905.16-.909.158-.912.157-.912.157-.915.153-.919.154-.918.154-.919.15-.922.15-.925.15-.925.148-.925.147-.929.147-.929.144-.932.143-.932.144-.935.14-.932.14-.935.141-.939.14-.935.137-.939.137-.938.137-.942.137-.939.134-.942.134-.942.133-.935.264-1.89.264-1.888.261-1.89.257-1.888.258-1.887.254-1.89.254-1.888.25-1.884.501-3.77.498-3.755.498-3.738.25-1.87.248-1.848.124-.908.117-.896.12-.898.117-.899.117-.895.117-.898.117-.899.113-.892.23-1.803.228-1.8.22-1.801.221-1.8.22-1.804.215-1.804.214-1.807.21-1.807.207-1.807.207-1.808.204-1.81.2-1.814.201-1.81.197-1.814.198-1.814.193-1.817.19-1.817.191-1.817.187-1.82.188-1.821.183-1.82.184-1.824.18-1.824.181-1.824.18-1.827.178-1.827.173-1.827.177-1.83.174-1.831.17-1.83.171-1.831.17-1.834.17-1.834.168-1.837.17-1.834.164-1.837.167-1.84.167-1.837.328-3.685.327-3.684.324-3.688.324-3.694.325-3.694.648-7.403.324-3.707.324-3.711.328-3.715.33-3.707.278-3.117.274-3.11.274-3.11.27-3.113.271-3.11.267-3.113.268-3.113.267-3.113.264-3.113.264-3.116.264-3.114.26-3.116.261-3.117.258-3.116.26-3.117.258-3.116.257-3.12.254-3.116.257-3.12.254-3.117.505-6.243.504-6.243.501-6.243.351-4.385.15-1.86.499-6.247.5-6.25.993-12.502.996-12.51.501-6.256.498-6.26.501-6.26.505-6.263.508-6.263.508-6.263.254-3.136.257-3.133.257-3.133.258-3.134.26-3.133.261-3.136.26-3.134.261-3.136.264-3.137.264-3.133.268-3.136 20.049-235.426 36.333 232.306.314 2.01.314 2.042.32 2.07.325 2.098.327 2.128.665 4.33.679 4.432.691 4.53.705 4.619.722 4.706.732 4.783.749 4.86.377 2.452.381 2.472.388 2.485.387 2.502.391 2.515.395 2.529.397 2.542.405 2.552.404 2.562.408 2.575.41 2.582.415 2.592.418 2.599.42 2.605.425 2.616.424 2.619.431 2.622.435 2.629.434 2.632.441 2.632.441 2.635.445 2.64.448 2.638.227 1.316.224 1.32.227 1.316.227 1.319.227 1.316.231 1.316.23 1.316.231 1.316.23 1.313.231 1.313.234 1.312.23 1.31.235 1.31.234 1.309.237 1.306.234 1.306.237 1.302.237 1.303.237 1.3.241 1.295.24 1.296.238 1.293.24 1.293.244 1.29.241 1.285.244 1.283.24 1.283.245 1.279.247 1.273.244 1.272.247 1.27.244 1.265.247 1.266.247 1.26.251 1.256.247 1.252.251 1.25.25 1.242.251 1.243.25 1.236.251 1.232.254 1.23.254 1.225.254 1.22.254 1.215.254 1.213.254 1.206.258 1.199.257 1.199.257 1.19.257 1.185.258 1.182.257 1.176.26 1.17.258 1.165.26 1.16.261 1.151.26 1.146.262 1.143.26 1.135.264 1.13.264 1.122.26 1.115.265 1.11.264 1.102.264 1.095.264 1.09.264 1.081.267 1.073.264 1.068.267 1.06.264 1.051.268 1.046.267 1.035.267 1.03.268 1.021.267 1.013.267 1.005.268.995.267.986.267.978.27.972.268.962.268.95.267.944.27.932.268.926.267.911.268.906.27.905.134.434.134.441.133.438.134.434.133.434.134.431.134.428.133.424.13.424.134.418.07.217.184-.481.221-.575.217-.581.22-.585.218-.59.22-.595.221-.598.22-.605.221-.611.22-.615.221-.618.22-.621.221-.628.224-.631.22-.638.221-.638.224-.645.22-.648.225-.655.22-.654.224-.662.22-.661.224-.668.224-.672.22-.674.225-.678.224-.682.223-.685.224-.688.22-.688.225-.695.224-.698.227-.701.224-.702.22-.701.451-1.426.452-1.43.45-1.44.452-1.453.45-1.46.455-1.466.455-1.48.454-1.483.455-1.49.458-1.496.918-3.02.923-3.04.925-3.052.936-3.066.471-1.544.471-1.543.475-1.543.474-1.547.478-1.546.481-1.547.481-1.546.488-1.55.488-1.547.488-1.54.247-.781.248-.772.247-.771.25-.772.248-.772.25-.771.251-.772.254-.768.25-.772.255-.768.254-.768.257-.765.257-.768.257-.765.258-.765.257-.762.26-.765.261-.761.264-.759.264-.761.264-.758.264-.755.268-.759.267-.754.27-.752.271-.752.27-.751.275-.752.274-.748.274-.745.277-.745.278-.745.28-.741.281-.742.28-.738.285-.735.287-.738.288-.731.287-.735.29-.728.291-.729.294-.728.294-.725.298-.721.3-.722.301-.721.304-.718.304-.715.308-.712.307-.711.311-.712.314-.708.314-.705.318-.701.32-.701.321-.702.328-.695.327-.694.328-.695.334-.692.334-.688.34-.685.332-.67.18-.355.17-.337.268-.528.267-.518.264-.518.264-.51.264-.512.264-.504.264-.505.264-.497.264-.495.26-.494.265-.488.26-.487.261-.481.26-.478.261-.478.26-.474.262-.468.26-.467.258-.465.26-.457.257-.458.258-.454.257-.451.257-.45.258-.445.257-.441.257-.441.258-.438.254-.43.257-.431.254-.428.257-.427.254-.421.254-.421.254-.414.254-.415.254-.41.254-.411.254-.404.254-.405.25-.4.254-.398.251-.394.25-.394.255-.388.25-.387.25-.388.251-.38.251-.381.25-.378.248-.374.25-.37.248-.371.25-.368.248-.364.247-.364.25-.36.248-.358.244-.354.247-.354.247-.351.248-.347.244-.348.247-.344.244-.34.244-.341.244-.338.244-.334.243-.33.241-.331.244-.327.24-.328.241-.324.24-.32.241-.321.251-.327.468-.615.478-.621.47-.612.475-.6.468-.595.468-.588.461-.578.461-.571.461-.565.455-.558.45-.548.452-.54.444-.535.445-.528.438-.52.437-.515.435-.508.428-.501.424-.498.424-.487.418-.485.421-.484.812-.932.802-.922 1.567-1.794.765-.875.756-.868.367-.425.368-.424.364-.424.364-.424.358-.421.36-.421.355-.42.354-.418.35-.421.352-.421.35-.421.348-.424.348-.424.347-.428.344-.428.345-.43.344-.435.347-.437.344-.441.345-.444.347-.451.354-.468.164-.217.174-.23.174-.231.173-.234.177-.234.174-.237.174-.237.177-.24.174-.241.177-.244.177-.244.177-.247.177-.247.18-.25.178-.251.18-.254.177-.257.18-.257.181-.26.184-.261.18-.268.184-.264.18-.27.188-.27.184-.275.183-.277.188-.277.187-.28.187-.285.187-.287.187-.287.19-.29.191-.295.19-.297.194-.3.19-.301.195-.308.193-.307.198-.31.193-.314.198-.318.2-.32.197-.324.2-.324.201-.331.2-.334.204-.334.201-.34.207-.345.204-.344.207-.35.207-.351.208-.358.21-.36.207-.365.214-.367.21-.37.214-.375.214-.377.214-.381.217-.388.218-.387.217-.394.22-.398.22-.4.221-.405.224-.407.224-.418.665-1.23.648-1.208.639-1.193.625-1.176.614-1.155.602-1.136.588-1.122.575-1.103.564-1.085.555-1.066.541-1.052.532-1.035.521-1.02.508-1.005.498-.985.491-.975.478-.96.468-.941.458-.929.447-.915.441-.902.431-.888.421-.875.411-.866.405-.848.397-.842.388-.825.381-.815.37-.805.365-.795.358-.785.35-.771.345-.765.337-.755.328-.748.327-.739.318-.728.31-.721.308-.715.304-.708.297-.702.291-.694.287-.692.284-.681.278-.682.274-.674.274-.672.267-.665.264-.664.26-.662.258-.658.257-.654.254-.655.251-.655.25-.651.248-.651.247-.652.244-.651.244-.655.244-.655.24-.654.241-.658.244-.658.24-.665.241-.665.24-.668.245-.671.24-.672.488-1.372.495-1.383.498-1.407.508-1.433 1.039-2.939.538-1.517.548-1.546.565-1.577.287-.808.294-.812.294-.821.3-.832.308-.842.308-.852.317-.861.318-.872.324-.882.33-.892.338-.905.34-.915.348-.926.351-.938.361-.952.364-.962.375-.972.377-.989.384-.999.395-1.012.397-1.025.408-1.04.414-1.051.421-1.07.428-1.078.438-1.096.448-1.109.45-1.125.465-1.14.471-1.155.478-1.173.488-1.185.498-1.203.508-1.22.515-1.235.528-1.253.534-1.269.548-1.29.555-1.302.565-1.326.578-1.34 28.303-65.552 58.096 155.75.114.297.103.27.104.275.104.27.107.268.106.27.11.27.111.268.11.267.11.267.114.268.114.267.113.267.117.264.117.264.117.267.12.264.12.26.121.264.124.26.123.265.124.26.124.26.127.261.127.258.13.26.127.257.13.257.134.258.13.257.134.257.137.254.134.257.137.254.137.254.14.254.137.25.14.254.144.25.14.251.144.25.147.251.144.247.147.248.147.25.15.247.147.244.15.247.154.244.15.247.154.244.157.244.154.24.157.244.157.24.157.241.16.24.161.241.16.237.164.241.16.237.168.237.163.234.167.237.168.234.167.234.167.234.17.234.17.23.171.234.174.23.173.23.174.228.177.23.174.228.177.227.18.227.178.227.18.224.18.224.184.223.18.224.185.224.187.22.184.22.187.221.187.22.187.218.19.217.19.217.191.217.19.217.195.214.193.214.194.214.194.214.197.21.197.21.198.21.197.211.2.207.2.21.205.208.2.207.204.204.204.207.204.204.207.2.207.204.207.2.207.204.21.2.208.197.21.2.214.198.21.197.215.194.214.197.217.194.214.193.217.194.217.19.22.19.218.191.22.19.22.188.225.187.277.234.932.785.943.798.942.798.939.802.936.805.935.805.933.805.929.808.925.812.926.812.922.811.922.815.916.819.915.815.913.821.912.822.909.822.905.825.903.828.902.825.899.832.899.832.892.831.892.836.892.835.89.838.885.838.882.839.882.845.879.842.875.845.876.848.872.845.869.852.869.852.865.852.862.855.862.855.859.855.859.858.855.862.852.862.85.862.848.865.849.865.842.865.842.869.842.871.839.869.835.875.832.872.832.875.832.879.825.878.826.879.825.878.822.882.819.885.819.885.815.885.815.889.809.888.812.889.809.892.805.892.802.891.802.896.802.898.795.895.799.899.792.902.795.898.789.902.788.905.789.906.782.905.785.905.782.909.779.912.775.908.775.912.775.912.772.915.772.915.765.916.769.918.765.919.762.918.762.922.758.922.759.922.755.925.755.926.752.925.752.925.748.929.749.928.745.932.745.932.742.932.739.932.741.935.736.936.735.935.735.938.732.94.732.938.728.942.728.938.726.942.725.946.721.942.722.945.722.945.718.949.716.948.715.949.715.949.711.952.709.948.712.952.705.956.708.952.705.955.702.955.702.959.701.955.699.959.695.958.698.962.692.96.695.961.692.962.688.965.688.962.689.966.685.965.685.966.685.968.681.969.682.969.678.968.679.969.675.972.678.972.672.972.675.972.671.975.669.972.668.976.668.975.669.979.524.768.137.21.655.983.655.985.652.985.651.986.649.985.651.989.645.989.649.985.644.989.645.992.642.988.642.992.641.99.638.991.639.992.638.996.635.992.635.995.635.996.631.992.632.998.631.996.632.995.628.999.625.995.628 1 .625.998.625.999.621 1.002.625.998.622 1.002.618 1 .621 1.001.619 1.002.614 1.002.619 1.006.614 1.002.615 1.005.615 1.002.612 1.006.611 1.005.612 1.006.608 1.005.608 1.006.608 1.008.608 1.006.609 1.009.604 1.005.605 1.009.605 1.009.601 1.008.602 1.009.601 1.012.602 1.009.598 1.009.602 1.012.598 1.012.594 1.009.599 1.012.594 1.012.595 1.012.595 1.012.595 1.012.591 1.016.595 1.015 1.18 2.024 1.18 2.028 1.175 2.03 1.173 2.032 1.173 2.03 1.166 2.031 1.167 2.035 1.166 2.034 1.16 2.034 1.159 2.034 1.156 2.035 1.156 2.037 1.153 2.038 1.15 2.037 1.15 2.038 1.145 2.037 1.143 2.038 1.146 2.037 1.14 2.041 1.14 2.038 1.139 2.04 1.136 2.042 1.133 2.037 1.136 2.041 1.132 2.041 1.13 2.038 1.13 2.04 1.129 2.038 1.126 2.041 2.252 4.079 2.249 4.075 2.246 4.075 2.242 4.072 2.239 4.071 4.477 8.134 2.236 4.062 2.235 4.058 2.24 4.055 1.115 2.025 1.12 2.024 1.12 2.02 1.119 2.025 1.119 2.017 1.12 2.021 1.122 2.018 1.12 2.017 1.122 2.015 1.123 2.01 1.123 2.015 1.126 2.007 1.126 2.01 1.126 2.008 1.126 2.005 1.13 2.004 1.13 2 .203.365.919 1.64 1.123 2 1.122 2.005 1.127 1.997 1.126 1.998 1.126 1.997 1.13 1.991 1.132 1.99 1.133 1.992 1.133 1.984 1.136 1.987 1.14 1.981 1.142 1.984.568.985.572.99.57.985.572.988.575.986.571.985.575.985.575.986.575.985.574.982.579.982.574.982.578.982.578.98.579.981.578.979.581.979.582.978.578.976.584.978.582.976.581.975.585.972.585.975.585.972.584.972.585.972.588.972.588.97.588.968.589.969.591.968.588.966.592.968.591.966.595.962.591.965.595.962.595.962.598.962.595.962.598.959.598.958.598.959.602.955.598.959.601.955.602.955.605.952.605.956.604.952.605.948.605.952.608.949.608.949.612.948.608.946.612.948.611.946.612.942.614.945.615.942.615.942.618.938.618.939.619.939.618.938.621.939.622.935.621.935.625.932.625.932.625.932.625.932.628.929.628.932.629.925.631.928.632.926.635.925.631.925.635.922.638.922.635.919.638.922.642.918.638.919.642.915.645.915.641.915.645.912.648.916.645.908.649.912.651.909.652.908.651.909.652.905.655.905.655.902.658.902.659.902.658.902.661.898.662.899.662.895.665.898.665.892.665.895.668.892.672.892.668.889.672.888.675.889.675.885.675.885.678.885.678.882.679.882.681.882.682.878.685.879.685.878.688.875.689.876.688.871.692.872.691.872.696.868.695.869.695.865.698.869.698.861.702.865.702.862.705.859.692.845.695.842.695.841.695.839.698.835.695.835.702.832.698.831.702.829.702.828.701.825.706.825.705.822.705.822.708.818.709.818.708.815.712.812.711.812.712.811.712.805.715.809.715.805.719.801.715.802.718.798.722.799.718.795.722.795.722.791.725.792.725.788.725.789.725.785.729.781.728.782.729.781.732.779.731.775.732.775.735.775.735.771.736.768.735.769.738.768.739.765.738.761.742.762.742.758.742.759.745.758.745.755.745.751.745.752.749.748.498.498.25.25.746.752.748.748.749.745.748.745.749.741.751.742.756.738.751.738.756.735.755.735.755.732.759.731.758.728.759.728.762.729.758.721.762.725.765.721.765.719.766.718.765.715.765.714.769.715.768.712.772.708.772.708.772.705.772.705.775.704.772.702.778.698.776.698.778.698.779.695.778.695.782.691.782.688.782.692.782.684.785.685.786.685.788.681.786.682.788.678.789.678.792.678.788.675.792.671.796.672.792.668.795.668.795.668.799.664.798.662.799.665.799.658.798.658.802.658.802.654.806.655.802.651.805.652.805.648.809.648.809.648.808.644.809.642.812.641.812.641.812.638.812.638.815.635.816.635.815.631.815.631.819.628.819.628.822.628.818.625.822.621.822.622.826.62.822.619.825.618.825.614.83.615.828.615.829.607.828.612.829.608.832.608.832.604.835.601.833.605.835.601.835.598.839.598.835.595.84.594.838.595.842.591.842.591.842.588.842.588.842.585.846.584.845.585.846.58.848.579.849.581.849.575.849.577.852.575.848.571.852.571.856.571.852.568.855.568.856.565.859.564.855.561.859.562.859.56.862.559.859.554.862.558.862.554.865.551.862.552.866.55.865.549.87.544.868.548.865.544.873.541.868.542.873.54.868.538.876.535.872.538.875.534.876.531.875.531.876.531.879.528.875.528.882.524.88.525.881.524.88.521.881.521.886.518.882.518.886.518.885.514.886.511.889.514.888.508.89.511.888.508.892.504.89.508.891.501.893.505.895.5.896.498.892.501.899.495.895.497.9.495.895.49.902.492.899.49.899.488.902.488.902.488.902.484.906.485.905.48.906.482.906.48.905.478.91.478.908.474.909.474.909.471.912.475.909.467.912.471.916.468.912.464.916.465.915.464.916.464.915.461.92.458.918.46.92.455.918.458.919.454.922.454.923.451.922.451.925.448.923.447.925.448.926.447.926.445.929.44.925.442.93.44.928.441.932.438.93.434.932.438.932.434.932.43.936.432.932.43.936.432.935.427.936.424.939.428.939.42.936.425.942.42.939.422.939.417.942.418.943.417.942.415.946.414.942.414.946.41.945.412.946.407.949.408.946.407.949.404.949.405.949.404.952.4.949.401.952.398.953.4.952.395.956.397.955.395.953.39.955.394.96.391.955.388.96.39.958.385.96.387.958.384.96.384.962.381.962.381.962.38.963.382.962.377.966.374.965.378.966.37.966.375.966.37.969.371.969.37.969.368.969.368.969.364.972.364.97.364.972.364.972.36.976.358.972.361.976.357.976.358.975.354.976.354.976.354.979.35.98.351.978.351.98.348.978.347.983.347.979.344.982.344.983.341.985.344.983.34.986.338.982.338.986.337.986.337.989.334.985.334.99.331.989.334.989.33.989.328.989.328.992.327.99.327.992.324.992.324.996.324.993.32.995.322.993.317.996.32.995.315 1 .317.995.314 1 .314.995.314 1 .31.998.311 1.003.31 1 .308 1.002.307.999.308 1.002.304 1.003.304 1.005.304 1.003.3 1.006.3 1.002.301 1.006.301 1.006.297 1.009.298 1.006.294 1.006.294 1.009.293 1.009.294 1.009.291 1.01.29 1.012.288 1.009.29 1.012.288 1.013.284 1.012.287 1.013.284 1.012.284 1.013.28 1.016.281 1.015.28 1.016.278 1.016.28 1.016.274 1.016.278 1.019.273 1.016.274 1.019.274 1.02.27 1.018.271 1.02.27 1.022.271 1.02.268 1.022.267 1.022.264 1.023.264 1.022.264 1.023.263 1.026.261 1.022.26 1.026.261 1.026.26 1.026.258 1.026.257 1.025.254 1.026.254 1.03.254 1.029.253 1.029.251 1.03.254 1.028.247 1.03.25 1.029.248 1.032.247 1.03.247 1.032.244 1.033.244 1.032.244 1.033.24 1.036.24 1.032.241 1.036.24 1.036.238 1.032.237 1.036.237 1.04.237 1.035.234 1.036.234 1.04.23 1.035.234 1.04.23 1.039.231 1.04.227 1.038.227 1.043.228 1.04.227 1.042.224 1.039.227 1.042.22 1.043.224 1.043.22 1.042.22 1.043.221 1.046.217 1.042.22 1.046.218 1.046.214 1.046.217 1.046.214 1.046.213 1.046.21 1.049.211 1.046.21 1.05.211 1.045.21 1.05.208 1.049.207 1.049.207 1.049.204 1.053.203 1.049.204 1.052.204 1.05.2 1.052.2 1.053.201 1.052.2 1.053.198 1.053.197 1.052.197 1.056.194 1.053.197 1.056.193 1.056.19 1.056.195 1.056.19 1.055.19 1.056.19 1.056.188 1.06.19 1.056.187 1.059.184 1.056.187 1.059.184 1.06.183 1.059.184 1.059.18 1.06.18 1.062.181 1.059.18 1.063.178 1.059.18 1.063.177 1.062.174 1.063.177.317.053.742.124 1.063.177 1.062.174 1.066.177 1.063.173 1.062.174 1.066.174 1.063.17 1.066.174 1.066.17 1.063.17 1.066.167 1.066.167 1.065.167 1.07.167 1.066.167 1.066.164 1.069.164 1.066.164 1.07.163 1.069.16 1.066.16 1.069.161 1.07.16 1.068.16 1.07.158 1.072.157 1.07.157 1.069.153 1.073.154 1.072.157 1.07.15 1.072.154 1.073.15 1.072.154 1.073.15 1.073.147 1.072.15 1.073.148 1.073.147 1.076.147 1.072.147 1.076.143 1.076.144 1.073.143 1.076.144 1.076.14 1.076.144 1.072.14 2.156.278 2.155.277 2.152.27 2.155.27 2.159.268 2.159.264 2.155.264 2.162.257 2.159.257 2.162.254 2.162.25 2.162.248 2.165.244 2.162.244 2.165.237 2.166.237 2.168.234 2.166.233 2.168.228 2.169.227 2.172.224 2.169.22 2.172.217 2.172.217 2.172.214 2.172.21 2.175.208 2.175.207 2.176.203 2.175.2 2.176.198 2.175.197 2.179.194 2.178.19 2.179.19 2.179.188 2.178.183 2.18.18 2.181.181 2.182.177 2.179.174 2.182.17 2.182.17 2.185.17 2.182.165 2.182.163 2.186.16 2.182.16 2.185.158 2.186.154 2.185.153 2.185.15 2.186.147 2.185.147 2.189.144 2.185.144 2.186.14 2.188.137 2.186.137 2.188.133 2.19.13 2.188.131 2.185.127 2.189.127 2.189.123 2.188.124 2.19.12 2.188.117 2.189.117 2.188.117 2.19.11 2.188.114 2.189.107 2.188.11 2.189.104 2.189.103 2.188.104 2.19.1 2.188.1 2.189.097 2.188.093 2.19.097 2.188.09 2.189.09 2.188.09 2.189.088 2.185.087 2.19.083 2.188.084 2.185.08 2.189.08 2.185.077 2.189.077 2.185.076 2.186.074 2.189.07 2.185.073 2.185.067 2.186.07 2.182.067 2.185.064 2.185.067 2.183.06 2.185.063 2.182.06 2.182.057 2.182.06 2.182.054 2.182.056 2.179.054 2.182.053 2.179.05 2.178.05 2.179.05 2.179.05 2.178.047 2.176.044 2.178.047 2.176.043 2.175.043 2.175.04 2.176.04 2.172.04 2.172.04 2.172.038 2.172.036 2.172.037 2.172.033 2.169.034 2.168.033 2.169.034 2.165.03 2.169.03 2.165.03 4.331.057 4.324.056 4.324.05 4.32.047 4.315.047 4.314.04 4.307.044 4.307.036 4.3.037 4.298.033 4.29.03 4.291.03 4.284.027 4.277.027 4.277.027 4.27.023 4.265.023 4.26.02 4.257.02 8.495.04 8.477.037 8.451.037 8.43.037 8.408.037 4.194.016 4.19.02 4.18.02 4.177.024 4.167.02 4.164.023 4.157.027 4.147.027 4.143.026 4.134.03 4.13.03 4.12.034 4.113.037 4.107.036 4.097.04 4.09.04 4.083.047 2.039.024 2.045.023 2.707.575 2.222 1.506 1.503 2.208.552 2.672v.017l-.552 2.672-1.503 2.208-2.226 1.503-2.703.578h-.01l-2.032.023-2.035.024-4.073.05-4.08.053-4.09.057-4.097.06-4.104.064-4.113.067-4.12.066-4.127.07-4.137.07-4.14.077-4.15.074-4.157.08-4.164.077-4.17.083-4.177.08-4.184.084-4.19.087-8.404.17-8.424.177-8.45.177-8.478.177-8.498.18-4.257.088-4.264.09-4.267.087-4.274.087-4.277.086-4.284.084-4.29.087-4.295.083-4.3.08-4.3.08-4.311.077-4.311.077-4.32.077-4.321.074-4.324.07-4.331.067-4.334.066-4.34.064-4.341.063-2.172.027-2.176.03-2.175.027-2.175.03-2.176.027-2.179.023-2.175.027-2.179.023-2.182.023-2.178.024-2.182.02-2.182.02-2.186.02-2.182.02-2.185.017-2.186.016-2.185.017-2.189.017-2.188.013-2.19.013-2.188.01-2.189.014-2.192.01-2.192.007-2.192.01-2.192.006-2.192.004-2.195.006-2.196.004h-2.195l-2.196.003-2.195-.003h-2.199l-2.195-.004-2.199-.003-2.199-.007-2.202-.006-2.198-.007-2.2-.01-2.201-.01-2.202-.01-2.202-.014-2.203-.016-2.202-.017-2.205-.017-2.202-.02-2.206-.02-2.202-.02-2.205-.023-2.206-.027-2.205-.027-2.209-.026-2.205-.03-2.206-.03-2.208-.034-2.21-.033-2.205-.037-2.208-.037-2.21-.04-2.208-.04-2.209-.043-2.208-.044-2.21-.046-2.211-.047-2.21-.05-2.211-.05-2.209-.054-2.212-.057-2.209-.053-2.212-.06-2.212-.06-2.209-.064-2.212-.063-2.212-.067-2.212-.067-2.212-.07-2.213-.07-2.208-.074-2.212-.077-2.213-.076-2.212-.08-2.212-.084-2.212-.084-2.212-.086-2.212-.087-2.212-.09-2.212-.094-2.212-.093-2.213-.097-2.212-.1-2.212-.1-2.212-.104-2.212-.104-2.212-.107-2.212-.11-2.209-.114-2.212-.113-2.212-.117-2.212-.12-2.21-.12-2.211-.124-2.209-.127-2.212-.13-2.209-.13-2.209-.134-2.212-.134-2.209-.14-2.208-.14-2.21-.144-2.208-.147-2.209-.147-2.205-.15-2.209-.154-2.209-.157-2.205-.157-2.206-.164-2.208-.163-2.206-.164-2.205-.17-2.206-.174-2.202-.174-2.205-.177-2.206-.18-2.202-.184-2.202-.184-2.202-.187-2.202-.193-2.202-.194-2.202-.197-2.202-.197-2.199-.204-2.199-.207-2.198-.207-2.2-.21-1.099-.107-1.099-.107-1.1-.11-1.099-.107-1.096-.11-1.1-.11-1.098-.111-1.097-.114-1.099-.113-1.096-.114-1.1-.113-1.095-.114-1.1-.117-1.096-.117-1.096-.117-1.096-.117-1.1-.12-1.095-.12-1.096-.12-1.096-.12-1.096-.12-1.096-.124-1.096-.124-1.096-.124-1.093-.127-1.096-.123-1.096-.127-1.093-.127-1.096-.13-1.093-.127-1.096-.13-1.092-.13-1.096-.131-1.093-.134-1.093-.133-1.092-.134-1.096-.134-1.093-.136-1.093-.137-1.093-.137-1.089-.137-1.093-.137-1.092-.14-1.093-.14-1.093-.141-1.089-.144-1.093-.143-1.089-.144-.765-.1-.328-.044-1.09-.15-1.088-.15-1.09-.15-1.09-.15-1.088-.151-1.09-.154-1.09-.154-1.085-.157-1.09-.153-1.089-.157-1.086-.157-1.09-.157-1.085-.16-1.09-.16-1.086-.161-1.086-.16-1.086-.164-1.086-.164-1.086-.164-1.086-.163-1.086-.167-1.086-.167-1.086-.167-1.082-.17-1.086-.168-1.083-.17-1.086-.174-1.083-.17-1.082-.174-1.086-.173-1.083-.177-1.083-.174-1.082-.177-1.083-.177-1.08-.18-1.082-.18-1.083-.181-1.079-.18-1.083-.184-1.079-.184-1.083-.184-1.079-.184-1.08-.187-1.079-.187-1.079-.187-1.08-.19-1.079-.187-1.079-.194-1.076-.19-1.08-.194-1.075-.194-1.08-.194-1.076-.193-1.076-.197-1.079-.197-1.076-.2-1.076-.198-1.076-.2-1.072-.204-1.076-.2-1.076-.204-1.073-.204-1.076-.207-1.073-.204-1.072-.207-1.076-.21-1.073-.207-1.073-.21-1.072-.215-1.07-.21-1.072-.214-1.073-.214-1.07-.213-1.072-.218-1.07-.217-1.068-.217-1.073-.22-1.07-.22-1.069-.221-1.069-.224-1.066-.224-1.07-.224-1.068-.223-1.066-.228-1.066-.227-1.07-.227-1.066-.23-1.066-.23-1.066-.231-1.066-.234-1.066-.234-1.062-.234-1.066-.237-1.063-.237-1.066-.237-1.062-.237-1.063-.24-1.063-.241-1.062-.244-1.063-.24-1.062-.245-1.06-.247-1.062-.247-1.06-.247-1.062-.247-1.06-.25-1.059-.251-1.059-.25-1.06-.255-1.059-.254-1.055-.253-1.06-.258-1.056-.257-1.059-.257-1.056-.257-1.056-.26-1.056-.265-1.056-.26-1.056-.264-1.052-.264-1.056-.267-1.053-.267-1.056-.268-1.052-.27-1.053-.27-1.052-.271-1.053-.274-1.05-.274-1.052-.274-1.052-.274-1.05-.277-1.049-.28-1.05-.278-1.048-.28-1.05-.284-1.049-.281-1.05-.284-1.045-.287-1.05-.284-1.045-.287-1.046-.291-1.046-.287-1.046-.294-1.046-.29-1.043-.295-1.045-.294-1.043-.294-1.046-.297-1.042-.297-1.043-.3-1.043-.301-1.042-.301-1.04-.304-1.042-.3-1.04-.308-1.038-.304-1.043-.307-1.04-.31-1.038-.308-1.036-.314-1.04-.31-1.035-.315-1.04-.314-1.036-.314-1.035-.317-1.036-.32-1.036-.318-1.033-.32-1.036-.321-1.032-.324-1.036-.324-1.033-.328-1.032-.324-1.033-.33-1.029-.328-1.032-.33-1.03-.331-1.032-.334-1.03-.334-1.029-.334-1.029-.338-1.026-.337-1.029-.34-1.03-.341-1.025-.341-1.026-.344-1.026-.344-1.026-.344-1.025-.348-1.023-.347-1.026-.348-1.022-.35-1.023-.354-1.022-.351-1.023-.354-1.022-.358-1.02-.357-1.022-.357-1.02-.358-1.018-.36-1.02-.365-1.019-.364-1.019-.364-1.016-.364-1.016-.367-1.019-.368-1.016-.37-1.015-.371-1.013-.374-1.016-.374-1.012-.375-1.016-.374-1.013-.38-1.012-.378-1.013-.38-1.009-.382-1.012-.384-1.01-.384-1.009-.384-1.009-.387-1.009-.388-1.009-.39-1.01-.392-1.005-.39-1.006-.394-1.006-.398-1.005-.394-1.006-.398-1.006-.4-1.002-.401-1.003-.401-1.002-.404-1.003-.404-1.002-.405-1.003-.407-.999-.408-1-.41-.998-.411-1-.415-.998-.414-1-.414-.995-.417-.996-.418-1-.42-.992-.422-.996-.42-.995-.425-.993-.427-.992-.425-.993-.427-.992-.431-.993-.431-.992-.43-.99-.435-.988-.434-.99-.438-.988-.437-.99-.441-.985-.441-.986-.441-.99-.445-.985-.444-.982-.447-.986-.448-.982-.448-.986-.45-.983-.455-.979-.454-.982-.454-.983-.458-.979-.458-.979-.457-.979-.461-.979-.464-.976-.465-.979-.464-.975-.468-.976-.467-.976-.468-.976-.474-.972-.471-.972-.475-.973-.474-.972-.478-.973-.48-.969-.478-.972-.481-.97-.485-.968-.484-.97-.488-.965-.487-.969-.488-.966-.49-.965-.492-.963-.494-.966-.495-.962-.497-.966-.498-.962-.498-.959-.5-.962-.505-.96-.505-.962-.504-.959-.508-.955-.507-.96-.511-.955-.512-.96-.514-.955-.514-.952-.518-.956-.518-.952-.518-.956-.52-.952-.525-.95-.525-.952-.524-.949-.528-.952-.527-.946-.532-.949-.53-.949-.535-.945-.535-.946-.537-.946-.538-.945-.541-.943-.541-.945-.542-.943-.544-.942-.548-.939-.548-.942-.547-.94-.552-.938-.55-.94-.555-.935-.558-.935-.558-.94-.558-.935-.56-.932-.562-.936-.564-.932-.565-.933-.568-.932-.568-.929-.568-.932-.574-.93-.571-.928-.575-.929-.578-.926-.578-.925-.58-.93-.582-.922-.581-.925-.585-.922-.588-.923-.587-.922-.588-.922-.592-.922-.594-.92-.595-.918-.594-.92-.598-.915-.601-.915-.602-.92-.601-.912-.605-.915-.607-.912-.608-.916-.608-.912-.612-.91-.614-.911-.615-.91-.614-.908-.618-.91-.622-.905-.621-.905-.621-.91-.625-.901-.628-.906-.628-.902-.628-.902-.631-.903-.635-.902-.634-.899-.635-.899-.641-.899-.638-.898-.642-.896-.644-.895-.645-.896-.648-.896-.648-.892-.648-.892-.651-.892-.655-.892-.655-.89-.658-.891-.658-.89-.661-.885-.662-.889-.664-.885-.665-.886-.668-.882-.672-.885-.671-.883-.671-.882-.675-.882-.675-.879-.678-.879-.681-.878-.682-.88-.681-.875-.685-.875-.688-.876-.688-.875-.692-.872-.691-.872-.695-.873-.695-.868-.698-.873-.698-.868-.701-.866-.702-.869-.704-.865-.709-.866-.708-.865-.708-.862-.711-.866-.715-.858-.715-.863-.718-.862-.718-.858-.722-.856-.721-.859-.725-.855-.725-.856-.728-.855-.732-.855-.731-.853-.732-.852-.735-.852-.738-.848-.738-.85-.742-.848-.741-.849-.745-.845-.745-.846-.748-.845-.752-.842-.751-.842-.752-.842-.755-.842-.758-.839-.758-.839-.762-.838-.761-.84-.765-.835-.769-.835-.768-.832-.768-.835-.772-.832-.775-.833-.775-.828-.778-.278-.26-.55-.521-.826-.785-.826-.785-.822-.789-.822-.791-.822-.792-.822-.795-.818-.795-.82-.795-.818-.802-.815-.801-.816-.802-.815-.805-.812-.808-.812-.809-.812-.811-.812-.812-.809-.815-.808-.815-.809-.818-.805-.822-.805-.822-.806-.822-.805-.828-.802-.825-.802-.832-.799-.831-.798-.832-.799-.835-.799-.839-.795-.838-.795-.842-.795-.842-.796-.845-.792-.848-.788-.849-.792-.851-.789-.852-.788-.855-.786-.855-.788-.859-.786-.862-.782-.861-.785-.865-.778-.866-.782-.868-.779-.872-.782-.872-.775-.872-.779-.878-.775-.875-.772-.882-.775-.882-.772-.882-.772-.888-.768-.885-.782-.906-.779-.901-.779-.906-.775-.908-.772-.905-.772-.912-.771-.909-.769-.912-.765-.912-.765-.912-.766-.915-.762-.915-.758-.915-.759-.919-.758-.918-.755-.922-.756-.919-.751-.922-.749-.925-.748-.922-.749-.925-.745-.926-.745-.928-.742-.929-.742-.928-.738-.929-.739-.932-.735-.932-.735-.935-.735-.932-.732-.935-.729-.936-.728-.938-.729-.939-.725-.938-.725-.939-.722-.942-.721-.942-.722-.942-.719-.942-.715-.945-.718-.945-.712-.946-.715-.948-.712-.946-.708-.948-.708-.952-.709-.949-.705-.952-.705-.952-.702-.952-.701-.955-.702-.956-.699-.955-.698-.955-.695-.959-.695-.955-.695-.959-.692-.962-.692-.958-.688-.962-.692-.962-.685-.962-.688-.962-.685-.966-.682-.965-.681-.965-.682-.966-.682-.965-.678-.969-.678-.969-.675-.968-.675-.969-.675-.972-.672-.969-.672-.972-.671-.972-.669-.975-.668-.972-.668-.975-.665-.976-.665-.975-.662-.975-.665-.98-.661-.975-.659-.978-.661-.979-.655-.979-.659-.982-.655-.978-.658-.982-.651-.982-.655-.982-.652-.983-.652-.982-.648-.985-.648-.982-.648-.985-.649-.986-.645-.985-.645-.989-.644-.985-.642-.989-.642-.989-.641-.985-.642-.992-.638-.989-.638-.989-.638-.988-.635-.992-.639-.992-.634-.992-.632-.993-.635-.992-.632-.992-.631-.992-.628-.995-.632-.996-.628-.992-.628-.995-.628-.995-.625-.996-.625-.995-.625-.999-.625-.995-.621-1-.625-.995-.622-.998-.618-.999-.622-.999-.618-.998-.618-1-.618-.998-.618-.999-.615-1.002-.618-1.002-1.23-1.997-1.226-2.005-1.223-2.004-1.22-2.004-1.22-2.004-1.216-2.008-1.216-2.007-1.21-2.008-1.21-2.007-1.206-2.01-1.206-2.012-1.203-2.01-.98-1.644-.217-.367-1.19-2.018-1.185-2.017-1.187-2.018-1.183-2.02-1.183-2.018-1.18-2.018-1.175-2.02-1.177-2.018-1.176-2.021-1.173-2.021-1.173-2.018-1.17-2.02-1.169-2.018-1.17-2.02-1.165-2.018-1.167-2.021-1.166-2.018-2.322-4.035-2.326-4.035-2.319-4.032-4.631-8.053-2.316-4.025-2.312-4.018-2.313-4.015-2.309-4.012-2.316-4.008-1.152-1.998-1.157-2-1.156-1.998-1.16-1.998-1.155-1.997-1.157-1.994-1.16-1.991-1.159-1.991-1.16-1.987-1.159-1.988-1.163-1.987-1.16-1.984-1.162-1.981-1.163-1.981-1.166-1.977-1.166-1.975-1.166-1.974-1.167-1.97-1.17-1.971-1.169-1.968-1.173-1.964-1.173-1.964-1.172-1.96-1.177-1.958-1.176-1.954-1.18-1.954-1.182-1.95-1.18-1.948-1.186-1.948-.592-.968-.594-.972-.592-.969-.595-.972-.595-.969-.594-.968-.595-.966-.598-.968-.595-.966-.598-.965-.598-.965-.599-.962-.598-.966-.598-.962-.598-.962-.601-.958-.602-.962-.601-.959-.602-.959-.601-.958-.605-.956-.602-.955-.604-.955-.605-.956-.608-.955-.605-.952-.608-.952-.605-.952-.608-.949-.612-.952-.608-.948-.608-.949-.612-.945-.611-.949-.612-.945-.615-.942-.611-.945-.615-.942-.615-.942-.615-.942-.618-.939-.615-.938-.618-.939-.618-.939-.622-.935-.618-.935-.621-.935-.622-.936-.621-.932-.625-.932-.625-.928-.622-.932-.628-.929-.625-.928-.628-.926-.628-.925-.628-.925-.629-.925-.631-.922-.632-.922-.631-.922-.635-.919-.632-.918-.635-.919-.635-.918-.137-.194-.494-.725-.628-.922-.629-.918-.631-.92-.632-.918-.631-.915-.635-.918-.632-.912-.635-.916-.638-.911-.635-.912-.638-.909-.638-.912-.642-.905-.641-.909-.642-.905-.641-.905-.645-.905-.645-.902-.645-.902-.649-.899-.648-.901-.648-.899-.652-.895-.651-.895-.652-.896-.655-.895-.651-.892-.659-.891-.655-.889-.658-.888-.658-.889-.662-.885-.661-.885-.662-.885-.665-.882-.662-.882-.668-.882-.665-.878-.668-.879-.672-.878-.668-.876-.672-.875-.675-.872-.672-.871-.675-.872-.678-.869-.678-.868-.679-.865-.678-.869-.682-.862-.685-.865-.681-.861-.685-.859-.689-.862-.688-.855-.688-.858-.692-.855-.692-.856-.692-.851-.695-.852-.695-.848-.695-.849-.698-.848-.702-.845-.698-.846-.705-.845-.702-.841-.705-.842-.708-.839-.706-.838-.711-.835-.709-.835-.711-.835-.716-.832-.715-.832-.715-.828-.718-.828-.719-.829-.721-.825-.722-.822-.722-.825-.725-.821-.725-.819-.729-.818-.731-.818-.729-.815-.732-.812-.735-.815-.735-.812-.738-.808-.736-.809-.741-.805-.742-.805-.742-.805-.745-.801-.745-.802-.749-.798-.748-.799-.752-.798-.752-.795-.755-.791-.756-.792-.758-.792-.759-.788-.758-.788-.762-.785-.765-.785-.765-.782-.769-.782-.769-.778-.768-.778-.772-.778-.775-.775-.776-.772-.775-.775-.782-.768-.778-.768-.782-.769-.785-.765-.786-.765-.788-.761-.789-.762-.792-.758-.792-.758-.795-.758-.795-.752-.8-.755-.798-.751-.802-.749-.805-.748-.805-.748-.809-.742-.809-.745-.808-.741-.816-.738-.812-.738-.818-.739-.819-.735-.819-.731-.822-.735-.825-.728-.825-.728-.83-.728-.828-.725-.832-.722-.835-.721-.836-.722-.835-.718-.842-.715-.839-.715-.845-.714-.86-.722-.34-.287-.398-.334-.394-.338-.394-.34-.391-.338-.391-.344-.388-.34-.387-.344-.385-.348-.384-.347-.384-.348-.381-.35-.381-.351-.378-.354-.377-.354-.375-.358-.374-.357-.37-.357-.372-.361-.37-.364-.368-.361-.364-.364-.365-.368-.364-.367-.36-.37-.362-.368-.357-.374-.358-.371-.354-.378-.354-.374-.35-.377-.352-.378-.35-.38-.345-.381-.347-.384-.345-.384-.34-.385-.341-.387-.341-.387-.338-.391-.337-.391-.334-.39-.331-.395-.334-.394-.328-.398-.327-.394-.328-.4-.324-.398-.324-.404-.32-.401-.321-.404-.318-.405-.317-.407-.314-.408-.315-.407-.31-.411-.311-.41-.308-.412-.307-.414-.304-.414-.304-.418-.3-.417-.302-.418-.297-.42-.297-.421-.294-.421-.294-.424-.291-.425-.29-.424-.288-.427-.288-.428-.284-.43-.284-.428-.28-.435-.278-.43-.277-.435-.277-.434-.274-.438-.274-.437-.268-.438-.27-.437-.268-.441-.264-.441-.264-.444-.264-.445-.257-.444-.26-.444-.258-.448-.254-.447-.25-.451-.255-.451-.247-.451-.247-.451-.247-.454-.244-.455-.24-.454-.241-.458-.241-.457-.237-.458-.234-.46-.234-.462-.23-.46-.231-.465-.228-.461-.223-.464-.224-.468-.224-.464-.22-.468-.218-.47-.217-.469-.214-.47-.214-.471-.21-.475-.208-.47-.207-.475-.207-.478-.204-.474-.2-.478-.2-.477-.198-.478-.194-.481-.193-.481-.194-.481-.19-.484-.188-.481-.187-.485-.184-.484-.174-.461-7.699-20.64-.277.702-.32.798-.328.805-.331.812-.334.815-.341.825-.347.828-.351.839-.358.842-.36.848-.368.858-.375.866-.38.871-.388.879-.391.888-.401.896-.408.905-.41.912-.422.922-.428.931-.434.94-.444.948-.448.962-.458.968-.468.982-.474.99-.481 1.001-.492 1.012-.498 1.026-.507 1.035-.518 1.05-.525 1.058-.538 1.076-.545 1.085-.554 1.1-.565 1.111-.575 1.126-.585 1.14-.594 1.155-.605 1.169-.615 1.182-.628 1.2-.639 1.212-.648 1.233-.661 1.246-.675 1.262-.682 1.28-.699 1.296-.708 1.316-.277.514-.281.511-.277.505-.274.504-.278.501-.277.498-.274.494-.274.488-.277.487-.274.485-.271.477-.274.478-.274.474-.27.471-.271.468-.271.464-.27.461-.271.458-.271.454-.267.451-.271.448-.267.444-.268.444-.267.438-.267.437-.264.435-.268.43-.264.428-.267.424-.264.421-.264.418-.264.417-.264.414-.26.411-.265.408-.26.404-.264.4-.26.402-.261.397-.261.394-.26.391-.258.388-.26.387-.258.38-.257.382-.258.38-.257.374-.257.375-.258.37-.253.368-.258.364-.254.364-.254.36-.254.358-.254.358-.25.35-.254.351-.25.35-.255.345-.25.344-.248.34-.25.341-.25.338-.248.334-.247.33-.248.331-.247.327-.257.338-.481.631-.488.635-.485.628-.481.614-.481.612-.478.6-.475.592-.47.585-.469.574-.464.568-.461.561-.458.555-.454.544-.452.538-.447.53-.441.525-.441.515-.435.51-.431.505-.431.495-.421.49-.424.492-.822.942-.812.932-1.571 1.797-.765.875-.752.865-.364.42-.368.422-.36.42-.358.418-.355.414-.354.414-.347.411-.348.411-.344.411-.34.407-.342.411-.337.408-.334.41-.334.412-.335.414-.33.414-.331.414-.331.418-.328.42-.33.425-.328.427-.337.445-.157.203-.164.22-.164.218-.164.22-.163.224-.167.22-.164.228-.167.224-.164.227-.167.23-.164.23-.167.231-.167.234-.167.234-.167.237-.167.237-.167.24-.167.244-.17.244-.168.244-.17.247-.17.25-.171.255-.17.254-.17.253-.175.261-.17.257-.174.264-.174.267-.173.267-.177.268-.174.274-.177.274-.177.277-.178.28-.177.284-.18.284-.18.287-.181.291-.18.294-.18.297-.185.3-.183.302-.184.304-.184.31-.187.31-.187.315-.187.317-.187.32-.191.325-.19.327-.19.33-.191.332-.194.337-.194.34-.194.345-.194.347-.197.35-.197.355-.197.357-.2.361-.198.367-.204.368-.2.374-.204.374-.204.38-.204.385-.203.387-.208.391-.207.398-.21.397-.207.404-.211.408-.214.41-.21.418-.214.418-.11.22-.104.207-.23.465-.228.454-.224.461-.224.468-.227.477-.227.481-.227.488-.228.494-.23.501-.227.508-.23.514-.231.518-.231.525-.23.53-.231.539-.23.54-.231.548-.23.555-.235.558-.23.564-.234.571-.23.575-.235.578-.23.584-.234.592-.23.594-.235.598-.23.605-.234.608-.23.61-.235.619-.234.621-.23.625-.234.631-.23.635-.235.638-.23.641-.234.648-.23.648-.234.655-.231.658-.23.661-.235.665-.23.668-.23.671-.231.675-.234.678-.23.678-.231.685-.23.688-.231.692-.231.694-.23.695-.234.698-.231.702-.23.704-.228.709-.23.708-.23.715-.232.714-.23.715-.23.722-.228.715-.461 1.456-.461 1.456-.458 1.467-.461 1.473-.458 1.48-.461 1.486-.458 1.49-.46 1.496-.459 1.503-.46 1.503-.923 3.03-.922 3.04-.926 3.046-.926 3.05-.467 1.53-.468 1.526-.468 1.53-.468 1.526-.471 1.527-.475 1.526-.474 1.523-.475 1.52-.477 1.52-.478 1.51-.24.765-.245.755-.24.755-.244.755-.24.754-.245.752-.244.752-.244.751-.247.748-.247.749-.248.748-.247.745-.247.745-.25.741-.248.742-.254.741-.25.738-.251.739-.254.734-.254.735-.257.735-.258.732-.257.728-.257.728-.258.728-.26.725-.264.722-.26.721-.265.722-.267.718-.264.715-.267.714-.271.712-.27.711-.271.709-.274.704-.274.705-.275.702-.277.701-.28.698-.281.695-.284.695-.284.691-.284.692-.288.688-.29.684-.291.685-.294.682-.298.678-.297.678-.297.674-.304.672-.305.671-.307.668-.307.668-.315.665-.314.661-.317.659-.32.658-.322.654-.317.638-.174.344-.164.324-.167.324-.167.324-.167.324-.167.324-.17.324-.17.321-.171.32-.17.321-.174.321-.174.32-.174.321-.177.318-.177.32-.177.318-.177.317-.18.317-.181.318-.18.314-.184.317-.184.314-.187.314-.184.314-.19.314-.188.314-.19.31-.19.315-.194.31-.194.31-.194.311-.197.311-.197.31-.2.308-.201.31-.2.308-.205.307-.207.308-.207.307-.017.023-.19.28-.21.308-.211.304-.214.307-.214.304-.217.304-.217.304-.22.301-.225.304-.224.3-.227.301-.227.304-.23.3-.231.298-.234.3-.237.298-.238.3-.24.298-.244.297-.244.297-.247.298-.251.294-.25.294-.258.297-.257.294-.26.29-.262.294-.264.294-.27.29-.27.292-.275.29-.274.287-.28.291-.281.287-.288.288-.287.283-.29.288-.298.284-.298.28-.3.284-.308.28-.307.281-.31.28-.318.278-.318.277-.324.274-.324.274-.33.274-.335.27-.338.271-.34.27-.348.268-.35.264-.355.264-.358.26-.36.26-.368.258-.37.257-.375.254-.381.25-.381.248-.388.247-.394.244-.398.244-.4.237-.405.237-.41.234-.415.227-.421.227-.425.224-.427.22-.435.217-.438.214-.44.207-.445.207-.451.2-.455.198-.46.194-.465.187-.468.183-.471.18-.478.175-.478.17-.484.164-.488.157-.492.157-.497.147-.498.143-.502.137-.504.13-.511.127-.512.117-.514.114-.515.107-.521.1-.521.097-.525.087-.528.08-.528.077-.531.066-.532.06-.534.057-.532.047-.538.04-.534.034-.538.026-.538.02-.538.014-.538.006h-.538l-.528-.006-.421-.014-.414-.013-.412-.023-.41-.024-.408-.03-.411-.037-.408-.036-.404-.044-.405-.05-.404-.053-.4-.057-.398-.064-.398-.063-.394-.07-.395-.077-.387-.077-.391-.083-.385-.087-.384-.09-.38-.094-.378-.097-.375-.103-.37-.104-.372-.11-.367-.11-.361-.117-.36-.117-.358-.12-.355-.127-.35-.127-.348-.13-.344-.13-.344-.138-.338-.137-.334-.14-.33-.144-.328-.143-.324-.15-.325-.148-.317-.153-.314-.154-.31-.154-.312-.157-.304-.16-.3-.16-.298-.164-.297-.164-.291-.167-.287-.167-.288-.167-.28-.17-.281-.17-.274-.17-.274-.174-.27-.174-.265-.177-.264-.177-.26-.177-.261-.177-.297-.21-.458-.328-.488-.364-.481-.364-.468-.37-.458-.368-.448-.374-.437-.375-.431-.374-.418-.377-.411-.378-.405-.377-.394-.38-.384-.382-.378-.38-.37-.381-.365-.381-.357-.384-.351-.384-.344-.384-.338-.384-.33-.385-.328-.384-.321-.384-.314-.387-.31-.384-.305-.388-.3-.387-.295-.388-.29-.387-.288-.388-.284-.387-.277-.391-.278-.388-.27-.39-.268-.391-.264-.391-.26-.39-.258-.395-.253-.39-.254-.395-.248-.394-.247-.398-.24-.394-.241-.397-.24-.398-.235-.397-.234-.401-.23-.398-.23-.4-.228-.405-.224-.404-.224-.4-.22-.408-.217-.404-.218-.408-.217-.41-.214-.408-.21-.411-.21-.414-.211-.411-.207-.418-.208-.414-.203-.417-.204-.418-.2-.42-.201-.422-.2-.42-.198-.425-.197-.424-.197-.427-.194-.428-.194-.43-.19-.432-.194-.43-.19-.435-.188-.438-.19-.434-.187-.44-.187-.438-.184-.445-.187-.44-.184-.445-.184-.447-.18-.448-.184-.447-.18-.451-.181-.455-.177-.454-.18-.454-.178-.458-.177-.46-.177-.462-.174-.46-.177-.465-.174-.464-.173-.468-.174-.471-.174-.468-.17-.474-.174-.474-.17-.475-.17-.477-.171-.478-.167-.48-.17-.482-.168-.484-.17-.488-.167-.488-.167-.487-.164-.491-.167-.491-.167-.495-.164-.494-.164-.498-.164-.497-.163-.501-.164-.505-.164-.504-.16-.505-.164-.507-.16-.508-.16-.511-.161-.511-.16-.515-.16-.514-.161-.518-.16-.517-.158-.522-.16-.52-.16-.535-.311-1.042-.314-1.06-.311-1.061-.314-1.073-.308-1.078-.307-1.083-.308-1.089-.193-.688-.014.177-.324 3.695-.648 7.402-.324 3.707-.324 3.711-.328 3.712-.33 3.717-.331 3.718-.17 1.864-.168 1.864-.167 1.864-.17 1.863-.174 1.864-.17 1.864-.174 1.867-.174 1.868-.177 1.867-.177 1.87-.177 1.868-.18 1.87-.181 1.87-.184 1.875-.187 1.87-.184 1.874-.19 1.874-.191 1.874-.19 1.874-.194 1.877-.197 1.877-.198 1.877-.2 1.878-.204 1.877-.204 1.88-.207 1.881-.207 1.88-.214 1.881-.214 1.88-.217 1.885-.22 1.88-.221 1.884-.224 1.884-.23 1.884-.231 1.887-.234 1.884-.234 1.888-.24 1.88-.12.949-.124.945-.124.942-.124.945-.123.946-.124.942-.127.945-.124.932-.247 1.834-.244 1.833-.494 3.711-.498 3.752-.505 3.794-.257 1.914-.257 1.924-.261 1.93-.264 1.941-.264 1.948-.27 1.954-.275 1.964-.274 1.96-.14.993-.14.989-.144.988-.144.992-.144.992-.143.992-.147.996-.147.995-.15.999-.151.999-.15.998-.154 1-.154.998-.157 1.002-.157 1.002-.157 1.006-.16 1.002-.164 1.005-.16 1.005-.168 1.006-.167 1.005-.167 1.006-.17 1.005-.17 1.009-.174 1.005-.177 1.01-.178 1.008-.177 1.005-.18 1.01-.184 1.008-.184 1.005-.187 1.009-.19 1.009-.19 1.009-.195 1.005-.197 1.009-.197 1.005-.2 1.006-.2 1.008-.205 1.006-.207 1.005-.21 1.002-.21 1.006-.218 1.002-.217 1.005-.217 1.002-.224 1-.224 1.001-.227.999-.231 1.002-.234.995-.237 1-.237.995-.244.995-.244.995-.244.982-.13.508-.124.494-.127.495-.127.498-.13.494-.127.494-.13.495-.131.494-.134.491-.13.494-.134.495-.133.49-.137.495-.134.491-.137.491-.137.491-.14.491-.137.491-.14.491-.144.488-.14.49-.144.489-.144.49-.144.488-.147.488-.147.488-.147.487-.147.485-.15.487-.15.485-.151.487-.154.485-.154.484-.153.484-.154.481-.157.485-.157.484-.16.481-.158.481-.16.481-.164.481-.16.481-.164.481-.167.478-.164.48-.167.478-.17.478-.167.478-.17.477-.171.475-.174.477-.174.475-.173.474-.177.474-.177.475-.178.474-.18.47-.18.472-.184.474-.184.471-.184.468-.184.47-.187.472-.19.467-.187.468-.19.468-.195.467-.193.465-.194.467-.197.465-.198.464-.197.464-.2.461-.2.464-.205.461-.203.461-.208.461-.207.461-.207.458-.21.458-.368.801-.37.799-.375.798-.378.798-.377.802-.385.798-.384.798-.384.795-.391.799-.394.798-.395.798-.397.795-.401.799-.405.795-.407.795-.411.795-.411.795-.418.795-.418.791-.42.795-.425.792-.428.792-.431.788-.434.792-.438.788-.438.788-.444.788-.445.785-.45.785-.452.785-.454.785-.462.782-.454.772-.237.4-.234.388-.234.39-.234.391-.237.388-.238.39-.237.388-.237.388-.237.387-.24.388-.241.387-.241.388-.244.387-.244.388-.244.384-.244.387-.244.384-.247.384-.247.385-.25.384-.248.384-.25.384-.251.384-.251.38-.254.385-.254.38-.254.382-.257.38-.254.381-.257.381-.258.38-.26.382-.261.377-.26.377-.261.381-.264.378-.264.377-.264.378-.264.374-.268.377-.267.374-.267.374-.27.378-.272.374-.27.37-.27.375-.275.374-.274.37-.274.371-.277.371-.278.371-.277.37-.277.372-.281.367-.28.37-.281.368-.284.368-.284.367-.284.364-.285.368-.287.364-.287.364-.291.364-.287.364-.291.364-.294.36-.29.362-.295.364-.294.357-.297.36-.298.362-.297.357-.298.357-.3.358-.301.357-.304.358-.3.354-.305.354-.307.354-.308.354-.307.354-.308.35-.307.351-.31.351-.315.35-.31.348-.315.351-.314.347-.317.348-.318.344-.317.347-.321.344-.32.344-.322.344-.32.344-.325.341-.327.34-.324.341-.328.338-.327.34-.33.338-.332.337-.33.338-.335.334-.334.334-.334.334-.334.334-.338.33-.34.331-.338.33-.34.332-.345.327-.344.327-.344.328-.345.327-.347.324-.348.324-.347.324-.351.32-.35.321-.355.32-.354.322-.354.317-.358.317-.354.318-.361.314-.358.314-.364.314-.36.314-.365.31-.364.31-.364.311-.368.308-.368.307-.37.307-.371.304-.371.304-.375.304-.374.3-.374.302-.378.3-.377.297-.381.301-.381.294-.381.297-.384.294-.385.29-.384.295-.388.29-.387.291-.388.287-.39.288-.392.283-.394.288-.394.284-.395.28-.397.28-.398.281-.401.278-.401.277-.4.277-.405.274-.405.274-.404.274-.408.27-.407.27-.411.268-.408.267-.414.264-.411.264-.415.264-.417.26-.418.261-.418.26-.417.258-.422.254-.424.257-.42.25-.425.254-.428.25-.428.248-.427.247-.428.247-.431.244-.361.2-.074.044-.43.24-.438.241-.435.237-.438.237-.427.23-.455.245-.448.234-.447.237-.448.237-.451.234-.455.237-.454.234-.458.237-.461.234-.458.233-.464.234-.465.234-.464.234-.468.234-.471.234-.471.233-.472.23-.474.235-.478.23-.478.23-.478.234-.48.23-.485.231-.485.23-.488.231-.488.227-.49.231-.492.227-.491.23-.495.228-.498.227-.498.227-.5.227-.502.227-.501.227-.505.224-.508.227-.508.224-.508.224-.51.227-.515.22-.515.224-.515.224-.518.224-.518.22-.52.22-.522.221-.525.22-.524.221-.528.22-.528.221-.528.217-.532.217-.53.217-.536.218-.534.217-.538.217-.538.214-.541.213-.542.214-.541.214-.545.214-.544.214-.549.21-.548.21-.548.214-.55.207-.556.21-.551.211-.555.207-.558.207-.558.207-.558.208-.561.203-.562.207-.56.204-.566.204-.564.2-.568.204-.569.2-.568.2-.571.201-.571.2-.575.198-.572.197-.578.197-.574.197-.578.194-.579.197-.581.194-.581.19-.582.194-.585.19-.584.19-.585.19-.588.191-.588.187-.589.187-.591.187-.591.184-.592.184-.595.184-.594.183-.595.184-.598.18-.599.18-.598.178-.598.18-.601.177-.602.174-.605.177-.604.174-.605.173-.605.17-.608.174-.605.17-.612.168-.608.17-.611.167-.612.164-.611.167-.615.164-.612.163-.614.16-.619.16-.615.161-.618.157-.618.16-.621.154-.619.157-.621.154-.622.153-.625.15-.621.151-.625.15-.625.147-.625.147-.628.147-.628.144-.628.144-.629.14-.628.143-.631.137-.632.14-.631.138-.632.133-.635.134-.631.134-.635.133-.635.13-.638.127-.635.13-.639.128-.638.123-.638.124-.638.123-.642.12-.638.117-.642.12-.641.118-.642.113-.641.114-.645.113-.645.11-.645.11-.645.108-.645.107-.645.103-.645.104-.648.103-.648.1-.649.097-.648.097-.648.097-.649.094-.651.093-.652.09-.648.09-.652.087-.651.084-.655.087-.652.08-.651.083-.655.077-.652.08-.655.074-.655.073-.655.074-.655.07-.655.07-.658.067-.655.067-.658.063-.655.06-.658.06-.659.06-.658.054-.658.057-.659.05-.658.053-.658.047-.662.047-.658.047-.662.043-.658.04-.662.04-.661.037-.662.037-.658.033-.662.03-.661.03-.662.027-.665.027-.662.023-.661.02-.662.02-.665.017-.661.013-.662.014-.665.01-.662.01-.665.006-.661.004-.665.003h-.665l-.662-.003-.665-.004-.665-.006-.661-.01-.665-.01-.665-.017-.665-.014-.665-.02-.662-.02-.665-.023-.665-.023-.665-.03-.665-.03-.665-.03-.665-.037-.661-.037-.665-.04-.665-.044-.665-.043-.665-.047-.662-.05-.665-.053-.665-.054-.665-.057-.662-.06-.664-.063-.665-.067-.662-.067-.665-.07-.662-.073-.651-.074-.986-.117-.976-.117-.976-.12-.975-.12-.98-.127-.982-.127-.979-.127-.986-.13-.982-.134-.986-.137-.989-.137-.986-.137-.989-.143-.992-.144-.993-.144-.992-.147-.996-.147-.992-.153-1-.15-.995-.154-1-.157-.998-.157-1.003-.157-1-.16-1.002-.164-1.002-.164-1.006-.163-1.006-.167-1.005-.168-1.006-.167-1.006-.17-1.01-.17-1.008-.174-1.01-.174-1.009-.173-1.012-.177-1.01-.177-1.012-.177-1.012-.177-1.016-.18-2.022-.362-2.028-.364-2.028-.367-2.032-.37-2.028-.372-2.032-.374-2.028-.374-2.032-.377-2.028-.378-2.029-.377-4.046-.758-4.044-.755-4.036-.755-2.012-.374-2.005-.371-2.005-.37-1.998-.368-1.995-.368-1.992-.36-1.981-.361-1.978-.354-1.979-.354-.979-.174-.979-.17-.982-.174-.976-.17-.979-.17-.972-.168-.973-.17-.972-.164-.966-.167-.969-.16-.962-.164-.963-.16-.959-.16-.959-.158-.955-.153-.953-.157-.949-.15-.949-.15-.945-.151-.943-.147-.939-.147-.939-.144-.932-.143-.932-.14-.93-.138-.925-.137-.922-.133-.919-.134-.919-.13-.912-.127-.91-.127-.908-.124-.902-.123-.902-.117-.896-.12-.896-.114-.888-.113-.886-.11-.895-.11-.9-.108-.902-.107-.905-.103-.906-.104-.909-.1-.908-.1-.916-.097-.916-.094-.915-.093-.923-.094-.922-.09-.922-.09-.929-.083-.929-.087-.929-.084-.932-.08-.936-.08-.939-.077-.939-.077-.939-.073-.942-.074-.946-.07-.945-.07-.95-.067-.948-.067-.953-.063-.952-.064-.956-.06-.956-.057-.959-.056-.959-.057-.962-.054-.962-.05-.963-.05-.965-.047-.97-.046-.969-.047-.969-.043-.972-.04-.972-.04-.973-.037-.975-.037-.976-.034-.98-.033-.978-.03-.98-.027-.979-.03-.982-.023-.982-.024-.986-.023-.986-.02-.986-.02-.985-.017-.99-.013-.989-.017-.989-.01-.989-.01-.992-.01-.993-.007-.992-.003-.993-.003-.992-.004h-.996l-.996.004-.995.003-.996.003-.996.007-1 .01-.995.01-.999.01-1 .014-.998.016-1 .017-.999.017-.999.02-.999.023-1.002.023-1 .024-.999.027-1.002.03-1 .03-1.002.03-1.002.033-1 .037-1.002.037-.999.036-1.002.04-1 .04-1.002.044-.999.047-1 .043-1.002.05-.999.05-.999.05-.999.054-1 .053-.998.057-1 .057-.995.057-1 .063-.995.06-.996.064-.996.067-.995.066-.996.067-.993.07-.992.074-.993.073-.992.074-.992.077-.99.076-.992.08-.99.08-.985.084-.989.084-.986.083-.985.09-.983.087-.982.09-.983.09-.982.094-.98.097-.978.094-.98.1-.975.097-.976.1-.979.104-2.128.227-2.089.223-2.045.224-2.008.22-.98.11-.978.111-.966.107-.96.11-.948.107-.943.11-.932.107-.925.11-.916.107-.909.11-.902.108-.896.106-.885.11-.448.054-.434.054-.876.106-.869.11-.865.108-.856.106-.852.11-.848.11-.842.108-.84.11-.835.11-.828.11-.829.11-.822.11-.819.111-.818.114-.816.11-.812.114-.808.113-.81.114-.808.117-.805.113-.805.117-.806.117-.805.117-.802.117-.805.12-.806.12-.805.12-.805.124-.809.124-.809.123-.808.124-.816.127-.812.127-.812.127-1.65.26-1.658.267-1.674.271-1.69.274-1.712.284-1.73.287-1.755.294-1.784.3-1.808.311-1.838.314-1.871.321-1.905.33-1.938.338-1.975.347-2.018.354-2.055.361-2.102.374-2.145.378-2.192.39-2.24.398-4.637.828-4.852.869-10.42 1.86-5.596 1-5.871 1.048-3.048.541-3.121.555-3.198.568-3.315.584-.387.07-.425.07-.42.07-.425.067-.425.064-.424.063-.424.06-.425.057-.424.057-.424.053-.425.05-.424.05-.425.047-.424.044-.424.043-.425.04-.424.04-.424.037-.425.034-.428.033-.424.027-.424.03-.425.026-.424.024-.424.02-.425.02-.424.017-.425.016-.427.014-.425.01-.424.01-.424.006-.425.007-.424.003h-.849l-.421-.003-.424-.003-.425-.007-.424-.01-.425-.01-.424-.01-.42-.017-.425-.016-.425-.017-.42-.02-.425-.024-.424-.023-.422-.023-.424-.03-.42-.03-.422-.03-.424-.034-.421-.037-.421-.036-.425-.037-.42-.04-.422-.044-.42-.046-.422-.044-.421-.05-.421-.05-.421-.05-.418-.054-.42-.056-.422-.057-.418-.06-.42-.06-.418-.064-.421-.063-.418-.067-.418-.067-.417-.07-.421-.07-.418-.074-.418-.077-.417-.076-.415-.077-.418-.08-.417-.084-.418-.083-.414-.087-.415-.087-.417-.087-.415-.093-.414-.09-.418-.094-.414-.097-.414-.097-.411-.1-.415-.1-.414-.104-.411-.103-.415-.107-.41-.107-.415-.11-.41-.114-.412-.11-.41-.117-.412-.117-.411-.117-.411-.12-.408-.12-.41-.124-.408-.124-.408-.127-.411-.126-.408-.13-.407-.134-.408-.13-.404-.138-.408-.137-.404-.137-.408-.14-.404-.14-.405-.144-.404-.143-.404-.147-.405-.147-.404-.15-.401-.154-.404-.15-.401-.158-.401-.153-.401-.16-.401-.158-.401-.163-.401-.16-.398-.168-.4-.163-.399-.17-.397-.168-.398-.17-.397-.174-.395-.173-.397-.177-.395-.177-.394-.18-.394-.181-.395-.18-.394-.184-.394-.187-.391-.187-.391-.19-.394-.191-.388-.19-.391-.194-.391-.197-.388-.197-.39-.198-.388-.2-.388-.2-.387-.204-.385-.207-.387-.207-.385-.207-.384-.21-.384-.211-.384-.214-.381-.214-.381-.217-.385-.217-.38-.22-.378-.221-.381-.224-.378-.224-.377-.227-.378-.227-.378-.23-.377-.23-.374-.235-.375-.233-.374-.234-.374-.237-.374-.24-.371-.241-.371-.24-.371-.245-.371-.247-.368-.247-.367-.247-.368-.25-.367-.255-.368-.254-.364-.253-.364-.258-.365-.257-.364-.26-.36-.264-.362-.26-.36-.268-.361-.264-.358-.27-.357-.268-.358-.274-.358-.27-.354-.277-.354-.274-.354-.28-.354-.278-.351-.28-.351-.285-.351-.284-.35-.287-.348-.287-.348-.287-.347-.29-.345-.295-.344-.294-.344-.297-.344-.297-.341-.298-.34-.3-.342-.304-.337-.3-.338-.308-.337-.308-.334-.307-.338-.31-.33-.311-.335-.314-.33-.317-.331-.318-.331-.317-.328-.32-.327-.321-.328-.324-.324-.324-.324-.328-.324-.327-.32-.33-.322-.331-.32-.331-.318-.338-.317-.334-.314-.337-.318-.34-.31-.341-.315-.344-.31-.344-.311-.345-.308-.347-.307-.35-.308-.351-.304-.351-.304-.354-.304-.358-.3-.357-.301-.357-.298-.361-.297-.36-.294-.365-.298-.367-.29-.364-.294-.371-.281-.358-.454-.58-.442-.569-.437-.568-.435-.567-.434-.565-.431-.568-.425-.564-.427-.565-.421-.564-.418-.561-.418-.565-.414-.561-.411-.561-.408-.561-.407-.562-.401-.557-.401-.562-.398-.557-.398-.558-.39-.561-.392-.558-.387-.558-.384-.558-.381-.554-.381-.558-.378-.558-.374-.555-.371-.557-.371-.555-.368-.558-.364-.554-.36-.555-.362-.557-.357-.555-.354-.554-.351-.555-.348-.558-.347-.554-.344-.555-.345-.554-.337-.555-.338-.558-.334-.554-.33-.555-.331-.554-.328-.558-.324-.554-.32-.555-.322-.558-.317-.554-.314-.558-.31-.554-.312-.558-.307-.555-.304-.558-.304-.557-.298-.558-.297-.555-.297-.558-.291-.557-.29-.558-.288-.561-.288-.558-.284-.558-.28-.561-.278-.558-.274-.561-.274-.558-.27-.561-.271-.561-.267-.561-.264-.562-.261-.56-.26-.562-.258-.561-.254-.565-.25-.56-.251-.565-.247-.565-.248-.564-.244-.562-.24-.564-.237-.568-.238-.564-.234-.565-.23-.568-.23-.564-.228-.568-.224-.568-.224-.568-.22-.568-.218-.567-.217-.568-.214-.568-.21-.571-.21-.568-.208-.571-.207-.572-.2-.57-.204-.572-.197-.571-.198-.571-.193-.575-.194-.571-.19-.575-.191-.574-.184-.575-.187-.574-.18-.575-.181-.574-.18-.575-.178-.578-.173-.577-.174-.575-.17-.578-.168-.578-.167-.58-.167-.579-.163-.581-.16-.578-.161-.581-.157-.581-.157-.582-.154-.58-.154-.585-.15-.581-.15-.585-.148-.585-.147-.584-.143-.585-.144-.588-.14-.584-.137-.588-.14-.588-.138-.588-.133-.591-.134-.588-.13-.591-.13-.591-.13-.592-.128-.594-.127-.591-.124-.595-.123-.595-.124-.597-.12-.595-.117-.598-.12-.598-.117-.598-.114-.601-.114-.601-.113-.601-.114-.602-.11-.604-.11-.602-.107-.607-.107-.605-.107-.608-.104-.608-.103-.611-.104-.608-.103-.611-.1-.615-.1-.615-.101-.614-.097-.615-.097-.618-.097-.618-.093-.621-.097-.621-.094-.622-.093-.624-.09-.625-.09-.625-.091-.628-.09-.63-.09-.632-.087-.631-.09-.635-.088-.635-.083-.634-.087-.638-.087-.642-.083-.651-.168-1.28-.163-1.292-.164-1.303-.16-1.31-.16-1.315-.158-1.323-.154-1.333-.157-1.34-.153-1.349-.15-1.356-.151-1.363-.15-1.376-.15-1.383-.151-1.393-.147-1.403-.15-1.41-.148-1.422-.15-1.433-.147-1.443-.147-1.456-.3-2.937-.298-2.986-.304-3.03-.308-3.082-.314-3.134-.317-3.183-.328-3.237-.334-3.307-.428-4.222-.424-4.218-.421-4.2-.418-4.188-.41-4.169-.408-4.158-.405-4.139-.397-4.128-.395-4.112-.39-4.099-.388-4.085-.385-4.072-.377-4.058-.374-4.045-.05-.521-.321-3.514-.034-.338-.274 4.039-.514 7.535-.505 7.366-.494 7.191-.482 7.008-.053.785-.444 6.026-.488 6.614-.472 6.406-.46 6.19-.442 5.959-.13 1.747-.127 1.747-.127 1.757-.127 1.767-.127 1.77-.127 1.784-.127 1.787-.124 1.797-.123 1.804-.127 1.807-.124 1.817-.123 1.82-.248 3.668-.244 3.691-.244 3.708-.247 3.731-.244 3.748-.244 3.768-.488 7.575-.49 7.62-.248 3.827-.247 3.832-.251 3.838-.25 3.841-.255 3.845-.257 3.841-.26 3.841-.13 1.924-.131 1.921-.13 1.917-.134 1.918-.134 1.917-.133 1.914-.137 1.914-.137 1.91-.137 1.911-.137 1.904-.14 1.904-.141 1.9-.14 1.898-.144 1.897-.144 1.89-.144 1.888-.147 1.884-.147 1.88-.147 1.878-.15 1.87-.15 1.868-.154 1.864-.154 1.857-.154 1.854-.157 1.847-.157 1.84-.16 1.837-.16 1.83-.164 1.825-.164 1.82-.167 1.81-.167 1.808-.17 1.797-.17 1.793-.175 1.784-.177 1.777-.174 1.77-.18 1.764-.18 1.754-.184 1.747-.184 1.737-.187 1.727-.094.865-.097.862-.093.858-.097.855-.097.852-.097.852-.097.848-.097.845-.1.845-.097.842-.1.842-.1.835-.1.835-.104.835-.1.828-.104.829-.104.825-.103.822-.104.821-.107.819-.103.815-.107.811-.107.812-.107.805-.11.805-.107.805-.11.798-.11.799-.114.795-.11.791-.114.789-.114.785-.114.785-.113.781-.114.778-.117.775-.117.772-.117.768-.12.769-.117.764-.12.759-.12.758-.12.758-.124.752-.124.748-.124.748-.123.742-.124.741-.127.738-.127.735-.094.521-.036.21-.13.73-.134.724-.134.721-.134.719-.133.718-.137.711-.137.712-.137.704-.14.705-.14.698-.141.699-.14.694-.144.692-.144.688-.144.685-.147.681-.143.678-.15.675-.148.671-.15.672-.15.664-.154.662-.154.661-.154.655-.153.654-.157.648-.158.648-.16.642-.16.638-.097.39-.1.388-.1.384-.1.384-.101.384-.1.385-.104.384-.104.38-.103.385-.107.38-.104.381-.107.378-.107.38-.11.378-.107.377-.11.375-.11.377-.11.374-.114.374-.114.374-.113.374-.114.375-.114.37-.117.371-.117.37-.117.368-.116.371-.12.367-.118.368-.12.367-.12.364-.124.368-.12.364-.124.364-.124.36-.127.365-.123.36-.127.361-.127.361-.127.358-.127.36-.13.358-.13.357-.131.358-.13.354-.13.354-.134.354-.134.354-.134.354-.133.35-.134.351-.137.351-.137.35-.137.351-.137.348-.14.347-.14.348-.138.344-.143.347-.14.344-.141.344-.144.344-.143.341-.144.344-.144.34-.147.338-.147.34-.147.338-.147.34-.147.338-.15.334-.147.338-.15.334-.151.334-.154.334-.15.33-.154.334-.154.331-.153.33-.154.328-.154.33-.157.328-.157.328-.157.327-.157.324-.157.324-.16.327-.16.32-.161.325-.16.32-.161.321-.164.32-.16.322-.164.317-.164.32-.163.318-.167.314-.164.317-.167.314-.167.314-.167.314-.17.314-.168.31-.17.311-.17.311-.171.31-.17.308-.171.307-.174.308-.174.307-.17.304-.177.304-.174.304-.174.304-.177.304-.177.3-.177.301-.177.3-.177.298-.187.31-.351.585-.36.591-.365.588-.364.585-.368.581-.37.578-.372.574-.374.575-.378.568-.377.564-.381.565-.384.558-.385.554-.387.555-.388.547-.391.548-.394.541-.395.541-.397.535-.401.534-.401.528-.405.528-.404.521-.408.521-.407.514-.411.515-.415.508-.414.507-.418.501-.417.501-.421.495-.425.494-.424.488-.424.487-.428.481-.431.478-.431.478-.435.47-.434.472-.438.464-.441.461-.441.458-.441.457-.445.451-.447.448-.448.444-.448.44-.451.439-.454.434-.455.43-.458.425-.457.424-.458.421-.461.414-.465.414-.454.398-.244.214-.234.203-.234.2-.234.201-.234.2-.237.198-.234.197-.237.197-.238.197-.233.194-.238.193-.24.194-.238.194-.237.19-.24.19-.238.191-.24.187-.24.187-.241.187-.241.187-.24.184-.241.184-.244.183-.257.194-.244.184-.261.19-.264.19-.26.188-.261.183-.264.184-.26.18-.265.178-.264.177-.264.17-.264.174-.264.167-.264.167-.264.163-.264.164-.267.16-.264.157-.267.157-.264.157-.268.154-.267.15-.267.15-.268.148-.267.143-.267.147-.271.14-.267.14-.271.141-.267.137-.271.137-.27.137-.271.13-.271.134-.27.13-.271.127-.271.13-.27.124-.275.127-.27.123-.274.12-.274.12-.274.121-.274.117-.274.117-.274.117-.274.113-.274.114-.278.114-.277.11-.274.11-.277.107-.278.107-.277.107-.278.103-.277.107-.28.1-.278.104-.277.1-.281.1-.28.097-.281.1-.281.094-.28.097-.281.093-.281.094-.284.093-.28.09-.285.094-.28.087-.285.09-.284.087-.284.087-.284.087-.284.083-.287.084-.3.087-.556.16-.574.157-.575.157-.575.153-.578.147-.578.147-.581.14-.578.138-.585.137-.582.13-.584.127-.589.127-.584.12-.588.117-.589.113-.591.114-.592.107-.591.103-.595.104-.591.097-.595.093-.598.094-.595.087-.598.087-.598.08-.598.077-.602.076-.598.07-.601.07-.602.064-.601.064-.605.06-.602.053-.605.054-.601.046-.605.047-.605.04-.605.04-.604.034-.609.033-.604.027-.605.027-.608.02-.605.02-.608.013-.605.01-.608.01-.605.003h-.608l-.608-.003-.605-.007-.608-.013-.605-.013-.592-.017-.32-.013-.301-.01-.304-.014-.304-.013-.301-.013-.304-.017-.304-.017-.301-.017-.304-.02-.304-.016-.301-.024-.304-.02-.304-.023-.3-.023-.305-.024-.3-.027-.305-.026-.3-.027-.305-.03-.3-.03-.304-.03-.301-.03-.3-.034-.305-.033-.3-.037-.305-.037-.3-.036-.301-.04-.301-.04-.304-.04-.3-.044-.302-.043-.3-.044-.304-.047-.301-.046-.3-.047-.302-.05-.3-.05-.301-.05-.3-.054-.305-.057-.3-.053-.301-.057-.301-.06-.3-.06-.302-.06-.3-.064-.301-.063-.298-.064-.3-.066-.301-.07-.3-.07-.301-.07-.301-.074-.301-.074-.3-.073-.301-.077-.298-.08-.3-.08-.301-.08-.301-.084-.3-.087-.298-.087-.301-.087-.3-.09-.301-.093-.301-.094-.298-.097-.3-.097-.301-.097-.3-.103-.292-.1-.277-.097-.267-.094-.268-.097-.267-.096-.267-.1-.264-.098-.267-.1-.264-.103-.268-.104-.264-.103-.264-.104-.264-.107-.264-.107-.264-.107-.26-.11-.264-.11-.261-.11-.264-.114-.26-.113-.261-.114-.26-.117-.262-.113-.26-.12-.257-.118-.261-.12-.26-.12-.258-.12-.257-.124-.261-.12-.257-.127-.258-.124-.27-.133-.498-.248-.511-.26-.512-.264-.51-.264-.509-.27-.504-.274-.508-.278-.505-.283-.501-.284-.501-.291-.502-.29-.5-.298-.499-.297-.494-.304-.495-.307-.494-.311-.495-.314-.491-.317-.491-.321-.488-.324-.488-.327-.485-.331-.484-.334-.485-.338-.48-.344-.482-.344-.478-.347-.478-.35-.474-.355-.475-.36-.474-.361-.471-.364-.468-.368-.468-.374-.468-.374-.464-.377-.461-.381-.462-.384-.457-.388-.458-.394-.455-.394-.454-.398-.451-.4-.451-.405-.435-.397-.234-.214-.224-.207-.223-.207-.221-.207-.22-.207-.221-.21-.22-.211-.218-.21-.22-.211-.218-.214-.217-.21-.217-.214-.217-.217-.217-.214-.214-.217-.217-.217-.214-.217-.214-.22-.21-.221-.215-.22-.21-.221-.214-.22-.21-.224-.21-.224-.208-.224-.21-.227-.208-.224-.207-.227-.207-.227-.207-.23-.204-.231-.207-.23-.204-.231-.204-.23-.204-.234-.2-.234-.204-.234-.2-.234-.201-.237-.197-.237-.2-.237-.198-.238-.197-.24-.197-.24-.197-.241-.194-.24-.194-.244-.194-.244-.194-.244-.19-.244-.19-.247-.191-.247-.19-.247-.191-.248-.187-.25-.187-.25-.187-.251-.188-.25-.183-.255-.184-.253-.184-.254-.18-.254-.184-.257-.18-.258-.178-.257-.18-.257-.177-.26-.177-.261-.177-.26-.174-.264-.177-.261-.17-.264-.174-.267-.17-.264-.171-.267-.17-.267-.171-.268-.167-.27-.167-.27-.164-.271-.164-.27-.164-.275-.163-.274-.16-.274-.161-.274-.16-.277-.157-.277-.158-.277-.157-.278-.157-.28-.153-.28-.15-.285-.154-.28-.15-.284-.151-.284-.147-.284-.147-.287-.147-.287-.144-.288-.144-.29-.143-.291-.14-.29-.141-.291-.137-.29-.137-.295-.137-.297-.134-.294-.133-.297-.134-.298-.13-.297-.13-.3-.128-.298-.127-.3-.127-.304-.123-.304-.12-.304-.124-.304-.12-.304-.117-.307-.117-.308-.114-.31-.117-.308-.11-.31-.11-.311-.11-.314-.108-.314-.107-.314-.103-.314-.104-.317-.103-.318-.1-.317-.098-.317-.096-.32-.09-.312-.118-.404-.113-.397-.114-.401-.11-.404-.114-.408-.11-.407-.11-.414-.11-.415-.11-.417-.111-.421-.107-.424-.11-.428-.107-.427-.107-.435-.107-.437-.11-.438-.107-.44-.104-.448-.107-.448-.107-.45-.107-.455-.103-.458-.107-.46-.104-.465-.107-.468-.103-.47-.107-.475-.104-.478-.103-.477-.107-.491-.207-.969-.208-.989-.207-.998-.204-1.013-.207-1.025-.204-1.039-.207-1.052-.204-1.062-.204-1.076-.203-1.085-.204-1.1-.204-1.112-.204-1.122-.204-1.136-.204-1.145-.2-1.16-.204-1.169-.2-1.179-.204-1.192-.2-1.203-.201-1.216-.2-1.222-.205-1.236-.2-1.25-.2-1.255-.201-1.266-.2-1.28-.198-1.289-.2-1.296-.2-1.31-.201-1.315-.197-1.326-.2-1.34-.198-1.346-.2-1.353-.198-1.366-.197-1.373-.197-1.383-.2-1.39-.198-1.399-.197-1.406-.197-1.416-.197-1.427-.194-1.43-.197-1.439-.197-1.45-.194-1.453-.197-1.463-.194-1.47-.194-1.476-.197-1.483-.194-1.49-.193-1.496-.194-1.503-.194-1.51-.19-1.517-.194-1.523-.194-1.526-.19-1.533-.194-1.54-.19-1.547-.191-1.55-.19-1.553-.191-1.56-.19-1.566-.191-1.57-.187-1.574-.19-1.576-.188-1.584-.187-1.586-.19-1.593-.188-1.594-.184-1.596-.187-1.604-.187-1.606-.184-1.607-.187-1.61-.183-1.617-.184-1.616-.184-1.62-.184-1.624-.364-3.247-.36-3.26-.362-3.263-.357-3.27-.358-3.274-.354-3.277-.351-3.28-.348-3.28-.203-1.924-.01.09-1.751 17.24-.873 8.617-.872 8.622-.868 8.618-.87 8.617-.861 8.618-.863 8.618-.427 4.31-.428 4.308-.424 4.31-.428 4.308-.424 4.309-.421 4.309-.425 4.306-.42 4.309-.419 4.309-.417 4.308-.418 4.31-.414 4.318-.047.485-.05.5-.054.515-.057.528-.056.538-.06.548-.064.557-.067.572-.07.584-.07.591-.074.605-.073.615-.08.624-.08.635-.084.645-.084.654-.087.665-.09.675-.093.684-.094.692-.097.705-.097.708-.1.721-.104.728-.103.735-.107.745-.11.755-.11.758-.11.769-.118.775-.113.781-.12.792-.121.795-.12.802-.124.808-.124.815-.127.822-.13.828-.26 1.663-.268 1.69-.274 1.707-.277 1.724-.288 1.74-.287 1.75-.297 1.764-.298 1.774-.153.892-.15.892-.155.892-.157.895-.153.898-.157.896-.157.898-.157.899-.16.901-.161.899-.16.899-.164.898-.16.899-.165.898-.163.899-.164.895-.167.895-.164.892-.167.892-.167.888-.167.889-.167.885-.17.882-.168.878-.17.879-.167.872-.17.871-.171.866-.17.861-.17.859-.171.855-.17.852-.171.845-.17.838-.174.835-.17.832-.171.825-.174.818-.17.812-.17.808-.171.799-.174.795-.17.788-.17.782-.171.771-.17.769-.171.758-.17.751-.17.745-.171.735-.167.728-.17.718-.168.712-.17.701-.167.692-.167.685-.167.674-.168.668-.167.655-.167.648-.163.635-.167.628-.164.618-.167.608-.164.594-.164.588-.164.575-.163.567-.164.555-.164.544-.16.538-.164.518-.083.264-.08.257-.084.25-.08.251-.117.35-.117.351-.117.348-.117.347-.12.348-.117.347-.12.344-.121.347-.124.344-.12.345-.124.344-.123.344-.124.34-.123.344-.127.341-.127.34-.127.342-.127.34-.13.34-.128.338-.13.338-.13.337-.13.337-.134.338-.134.337-.134.334-.133.338-.134.334-.137.334-.134.334-.137.33-.137.334-.14.331-.137.33-.14.335-.14.327-.141.33-.144.331-.14.328-.144.327-.143.327-.144.328-.147.327-.147.328-.144.324-.147.324-.15.324-.147.324-.15.324-.151.324-.15.32-.15.32-.151.322-.154.32-.154.32-.153.322-.154.317-.157.32-.154.318-.157.317-.157.318-.157.314-.16.317-.157.314-.16.314-.161.314-.164.314-.16.314-.164.314-.16.31-.164.311-.167.31-.164.311-.167.311-.164.31-.167.308-.17.307-.167.308-.167.307-.17.307-.171.307-.17.304-.174.308-.17.304-.175.304-.173.304-.174.3-.174.304-.177.3-.174.301-.177.301-.177.3-.177.301-.18.301-.178.297-.18.298-.18.297-.181.297-.184.297-.18.298-.184.294-.184.294-.184.297-.183.294-.184.29-.187.294-.187.294-.188.29-.187.292-.19.297-.378.574-.38.578-.382.575-.387.574-.388.571-.39.572-.392.567-.397.565-.398.564-.398.562-.404.557-.404.558-.408.555-.408.554-.41.551-.415.548-.418.548-.417.545-.422.544-.42.538-.428.54-.428.535-.428.538-.43.531-.435.531-.438.528-.438.528-.44.524-.445.525-.445.517-.447.522-.448.514-.451.518-.455.51-.454.512-.458.508-.461.507-.461.505-.465.504-.468.501-.467.498-.472.497-.47.495-.475.494-.478.491-.478.488-.481.488-.481.487-.485.481-.488.485-.487.477-.492.478-.49.478-.495.474-.498.47-.498.472-.498.467-.505.468-.504.464-.505.465-.508.46-.511.458-.511.458-.512.454-.518.454-.517.451-.518.451-.522.448-.521.448-.525.444-.528.44-.528.442-.53.44-.532.438-.531.434-.538.435-.535.43-.541.431-.542.428-.541.427-.545.425-.544.424-.548.42-.552.418-.548.418-.555.417-.554.415-.555.414-.558.41-.561.408-.562.408-.561.407-.565.404-.565.401-.568.401-.571.4-.571.398-.572.394-.575.395-.574.39-.578.391-.579.391-.581.388-.581.384-.585.384-.585.384-.588.38-.588.378-.588.378-.592.377-.595.374-.591.374-.598.371-.598.37-.598.368-.599.368-.604.364-.602.364-.605.36-.605.361-.608.358-.611.357-.608.358-.612.354-.615.35-.615.351-.614.35-.619.348-.618.348-.621.344-.622.344-.621.34-.625.341-.628.34-.625.338-.629.334-.631.334-.632.334-.631.331-.635.33-.635.331-.635.328-.638.324-.638.324-.642.324-.642.32-.641.321-.645.32-.645.318-.645.314-.648.317-.648.311-.652.314-.652.31-.651.308-.655.307-.655.308-.655.304-.658.304-.659.303-.661.301-.659.297-.665.301-.661.297-.665.294-.665.294-.668.294-.665.29-.672.291-.668.291-.672.287-.672.284-.675.287-.675.284-.675.28-.675.285-.678.277-.678.28-.682.278-.678.277-.682.274-.685.274-.682.274-.685.27-.688.271-.685.267-.689.267-.023.01-.668.258-.689.264-.691.263-.692.261-.695.26-.692.261-.695.257-.698.257-.695.258-.699.254-.698.253-.702.254-.701.25-.695.248-.01.003-2.727.398-2.603-.642-2.169-1.55-1.444-2.308-.01-.02-.41-2.692.634-2.589 1.554-2.184 2.33-1.48.006-.003.678-.26.669-.261.668-.26.668-.265.665-.26.665-.264.665-.267.662-.264.661-.267.662-.271.658-.267.659-.27.658-.275.635-.264.02-.006.655-.274.651-.274.655-.274.649-.277.651-.277.648-.278.649-.28.645-.28.645-.281.644-.281.642-.284.642-.287.638-.284.641-.287.635-.288.639-.29.631-.29.635-.292.632-.293.631-.294.628-.294.629-.294.628-.298.625-.3.625-.297.621-.301.622-.304.618-.3.618-.305.618-.307.615-.304.615-.307.611-.31.612-.308.611-.31.609-.315.608-.314.605-.314.604-.314.602-.317.601-.317.598-.321.599-.32.598-.321.595-.324.594-.324.592-.324.591-.328.588-.327.588-.328.585-.33.585-.33.585-.335.581-.334.578-.334.578-.337.579-.338.574-.337.572-.34.574-.341.568-.341.569-.344.568-.344.564-.348.565-.347.561-.347.562-.351.558-.35.558-.355.555-.35.554-.358.552-.354.551-.358.548-.36.548-.361.545-.36.544-.362.542-.364.538-.364.538-.367.538-.368.534-.37.535-.371.531-.371.528-.37.528-.375.528-.377.525-.378.521-.377.521-.381.518-.38.518-.382.515-.384.515-.384.51-.387.509-.388.51-.387.506-.391.504-.39.501-.395.502-.394.497-.394.498-.398.495-.397.494-.401.492-.401.488-.4.487-.405.485-.404.484-.408.482-.407.48-.408.479-.41.474-.415.475-.41.47-.418.472-.414.468-.418.468-.417.464-.421.461-.424.461-.421.458-.425.455-.427.454-.428.455-.427.45-.431.448-.431.445-.434.444-.435.445-.434.437-.437.438-.441.438-.438.434-.444.431-.441.431-.444.428-.448.425-.447.424-.448.421-.451.421-.45.418-.455.414-.454.414-.458.411-.458.408-.457.408-.461.404-.465.404-.46.401-.468.398-.464.398-.471.394-.468.391-.471.39-.474.389-.475.387-.474.381-.478.381-.48.381-.478.378-.485.374-.48.374-.488.368-.485.37-.49.365-.488.364-.491.36-.495.362-.494.357-.495.355-.497.354-.501.35-.501.348-.501.348-.505.344-.504.34-.508.338-.51.338-.512.337-.511.331-.514.33-.515.328-.518.328-.517.324-.521.324-.525.157-.257.157-.264.16-.26.158-.264.157-.264.157-.264.157-.264.157-.264.154-.267.153-.264.154-.267.154-.264.153-.267.154-.268.15-.267.15-.267.151-.27.15-.268.15-.27.148-.27.15-.268.147-.27.147-.275.147-.27.147-.27.144-.275.144-.27.147-.274.14-.274.144-.274.144-.274.14-.274.144-.277.14-.274.14-.277.137-.277.14-.278.138-.277.137-.277.137-.277.137-.28.137-.281.133-.278.137-.28.134-.28.134-.281.13-.284.134-.28.13-.285.134-.28.13-.284.13-.284.127-.284.13-.284.128-.287.127-.284.127-.288.126-.287.127-.284.124-.29.124-.288.123-.287.124-.287.124-.29.12-.291.124-.291.12-.29.12-.291.12-.29.117-.295.12-.29.118-.294.117-.294.117-.294.113-.294.117-.294.114-.297.113-.294.114-.298.114-.297.11-.297.114-.297.11-.298.11-.297.11-.3.107-.301.11-.298.107-.3.107-.304.107-.3.107-.301.104-.304.103-.304.107-.3.104-.305.1-.307.104-.304.1-.304.1-.307.1-.308.1-.304.101-.307.097-.31.097-.308.097-.307.097-.31.097-.312.093-.31.097-.31.09-.308.06-.197.057-.197.057-.2.057-.198.123-.43.12-.442.124-.457.124-.471.127-.488.13-.504.127-.515.13-.53.134-.545.134-.558.134-.568.133-.584.137-.595.137-.608.137-.618.137-.631.137-.642.14-.65.141-.662.14-.675.14-.681.144-.692.14-.705.144-.711.14-.718.144-.732.144-.735.144-.748.143-.751.144-.762.144-.768.144-.779.143-.781.144-.792.144-.795.143-.805.144-.808.144-.815.143-.819.144-.828.144-.828.143-.839.14-.838.144-.845.144-.849.14-.855.144-.855.14-.862.14-.865.141-.865.14-.868.14-.876.138-.875.14-.875.137-.878.137-.882.137-.882.137-.882.134-.885.134-.885.133-.885.134-.889.134-.885.13-.885.13-.885.13-.889.13-.882.128-.885.127-.882.127-.882.123-.878.124-.875.244-1.75.24-1.74.238-1.728.23-1.71.228-1.697.22-1.68.214-1.66.21-1.644.1-.808.101-.805.1-.798.1-.792.094-.788.097-.779.094-.771.09-.765.09-.758.087-.749.087-.741.083-.735.084-.725.08-.715.08-.708.077-.695.074-.69.073-.679.074-.668.066-.658.067-.648.067-.638.064-.625.06-.614.06-.605.057-.591.053-.581.054-.565.05-.558.047-.54.046-.529.044-.514.04-.501.04-.488.033-.47.034-.458.033-.441.03-.438.288-4.315.29-4.326.294-4.326.295-4.322.294-4.326.294-4.325.297-4.326.297-4.322.298-4.326.297-4.322.301-4.326.3-4.322.602-8.648.602-8.648.605-8.645.604-8.645.609-8.644.604-8.645 1.213-17.29 1.21-17.285.605-8.641.598-8.642.598-8.641.598-8.641.592-8.642.588-8.638.294-4.319.29-4.322.291-4.319.291-4.319.287-4.319.288-4.319.287-4.319.284-4.322.284-4.319.284-4.319.28-4.319.278-4.319.278-4.319.277-4.316.274-4.319.274-4.319.27-4.319.268-4.318.267-4.32 13.8-176.089 16.278 172.242.23 2.057.174 1.513.207 1.824.24 2.124.278 2.416.31 2.692.345 2.966.374 3.227.405 3.474.437 3.714.465 3.948.494 4.165.522 4.376.548 4.58.284 2.358.29 2.408.298 2.452.3 2.472.301 2.562.308 2.582.31 2.619.318 2.662.324 2.696.328 2.732.334 2.769.337 2.802.344 2.836.348 2.866.354 2.896.358 2.926.364 2.953.368 2.98.374 3.003.377 3.03.381 3.049.385 3.073.39 3.09.395 3.11.398 3.13.4 3.143.405 3.16.408 3.173.414 3.186.414 3.197.421 3.21.421 3.213.425 3.224.427 3.23.435 3.237.43 3.236.439 3.24.44 3.244.442 3.243.444 3.24.448 3.237.448 3.233.45 3.23.452 3.224.454 3.213.458 3.21.227 1.597.231 1.596.23 1.594.231 1.59.23 1.586.231 1.587.23 1.58.231 1.577.231 1.573.234 1.57.23 1.563.234 1.56.23 1.556.235 1.554.234 1.546.234 1.54.234 1.537.233 1.533.234 1.526.234 1.52.234 1.513.234 1.51.234 1.503.234 1.497.234 1.49.237 1.483.234 1.476.234 1.47.234 1.463.237 1.456.234 1.446.234 1.44.234 1.433.237 1.426.234 1.417.234 1.41.234 1.399.234 1.393.234 1.383.234 1.372.233 1.367.234 1.352.234 1.347.234 1.339.234 1.326.23 1.316.235 1.31.23 1.296.234 1.286.23 1.276.231 1.262.23 1.256.231 1.243.23 1.229.231 1.222.231 1.206.227 1.196.23 1.186.228 1.172.227 1.16.227 1.145.224 1.136.228 1.119.223 1.109.224 1.095.224 1.08.224 1.068.22 1.052.225 1.04.22 1.021.217 1.012.22.993.218.982.217.962.217.948.214.932.214.919.214.898.21.885.211.866.21.858.104.41.104.412.103.41.1.405.104.4.104.395.1.39.1.388.1.38.104.378.097.374.1.368.1.36.097.358.1.354.098.347.096.341.097.337.094.335.097.327.093.32.094.318.094.31.093.304.09.301.09.294.09.287.091.284.087.274.087.26.04.12.037.108.036.11.04.107.04.11.04.11.044.11.044.114.043.11.043.114.044.11.047.114.046.113.05.114.047.117.05.113.05.117.054.114.05.117.054.117.053.117.057.117.053.12.057.117.06.12.057.117.06.12.06.12.06.12.064.12.064.121.063.124.064.12.066.12.067.124.067.123.067.12.07.124.07.124.07.123.074.124.07.127.074.123.076.124.074.127.077.124.077.127.077.123.08.127.08.127.08.124.08.126.084.127.083.127.084.127.083.127.087.127.087.127.087.127.087.13.09.127.09.127.09.127.094.13.09.127.094.127.094.13.093.127.097.127.097.13.097.128.097.13.1.127.097.127.1.13.104.127.1.13.104.127.103.13.104.127.103.127.107.13.104.127.107.127.11.13.107.128.11.126.107.127.114.127.11.13.11.128.114.126.114.127.113.127.114.127.113.127.117.124.117.127.117.127.117.127.12.123.117.127.12.124.121.127.12.123.12.124.124.127.12.123.124.124.124.123.124.124.126.124.124.123.127.12.124.124.127.12.127.124.13.12.127.12.13.124.127.12.13.12.13.117.131.12.13.12.134.118.13.12.134.117.134.117.13.117.134.117.134.117.137.117.123.106.28.24.275.228.27.227.278.224.274.224.277.22.278.22.28.218.281.217.28.214.281.21.284.21.284.208.284.203.285.204.284.2.287.198.284.197.287.194.288.19.284.187.287.187.287.184.285.18.287.177.284.177.287.174.284.17.284.167.284.164.284.16.281.16.28.158.281.153.281.15.278.148.277.143.274.14.274.14.274.134.27.13.268.13.267.128.264.12.28.127.245.11.13.057.127.057.13.053.127.054.127.053.127.054.127.053.124.05.124.05.127.05.12.047.124.05.12.047.124.043.116.047.12.044.121.043.117.043.117.044.117.04.114.04.113.04.114.037.113.037.11.04.11.033.111.037.107.033.107.034.1.03.084.023.077.023.08.024.083.02.084.023.084.024.09.02.087.023.093.023.094.024.093.02.1.023.097.024.1.023.104.02.104.023.107.024.11.02.107.023.114.02.113.02.114.024.117.02.117.02.12.02.12.02.124.02.124.02.127.02.127.02.127.017.13.02.13.016.134.02.134.017.137.017.137.017.137.016.14.017.14.013.144.017.144.013.143.014.144.017.147.013.15.01.147.013.15.014.154.01.15.013.155.01.153.01.157.01.157.01.157.007.157.01.16.006.161.007.164.007.16.007.164.006.164.004.164.006.167.004.167.003.167.003.167.004h.167l.17.003h.859l.348-.003.35-.007.351-.007.355-.01.357-.013.358-.017.36-.017.362-.016.36-.024.365-.023.367-.023.364-.03.368-.03.371-.03.368-.034.37-.037.368-.04.37-.04.372-.043.37-.044.372-.047.37-.05.368-.05.371-.053.368-.054.37-.056.368-.06.364-.06.368-.064.364-.064.364-.066.361-.07.361-.07.358-.07.357-.078.354-.073.351-.077.351-.08.351-.08.344-.08.344-.084.341-.087.338-.087.334-.087.33-.09.332-.09.324-.09.32-.094.321-.093.314-.097.311-.094.304-.1.321-.1.134-.047.147-.046.147-.05.147-.05.143-.05.144-.05.144-.051.14-.05.14-.054.14-.05.138-.05.137-.05.134-.053.133-.05.134-.05.13-.054.13-.05.127-.05.127-.054.127-.05.124-.05.124-.053.12-.05.12-.05.117-.054.117-.05.114-.05.113-.05.11-.05.111-.054.11-.05.107-.05.104-.047.103-.05.1-.05.1-.05.098-.047.097-.05.093-.047.094-.05.09-.047.09-.046.087-.047.084-.044.083-.046.08-.047.077-.043.077-.044.077-.043.07-.044.074-.04.066-.043.067-.04.064-.04.063-.037.057-.04.06-.037.054-.037.053-.036.05-.034.05-.033.047-.034.044-.03.04-.03.04-.03.037-.027.033-.026.09-.064-.117.077.087-.063.087-.064-.117.084.084-.064.08-.06-.117.084.077-.06.077-.06-.12.09.073-.06.077-.06-.09.07.153-.124.127-.104.127-.103.127-.107.127-.104.127-.107.127-.107.127-.106.127-.11.127-.108.127-.11.127-.113.13-.11.127-.114.127-.11.127-.117.13-.114.127-.117.127-.113.13-.117.128-.12.127-.117.13-.12.117-.11.267-.251.258-.248.257-.25.257-.25.258-.254.257-.261.257-.26.257-.264.258-.268.257-.27.254-.274.257-.277.258-.278.257-.284.254-.287.257-.287.257-.294.254-.294.254-.297.258-.3.254-.305.254-.307.254-.31.25-.315.254-.317.25-.317.255-.324.25-.324.25-.331.252-.33.247-.335.25-.337.248-.34.247-.345.247-.344.248-.35.243-.351.244-.358.244-.357.244-.361.244-.364.24-.368.241-.37.238-.374.24-.375.238-.377.237-.384.234-.384.237-.388.234-.39.23-.395.234-.394.23-.4.228-.402.23-.404.235-.42.107-.194.11-.204.113-.207.114-.207.11-.207.114-.21.11-.208.11-.21.11-.21.114-.215.11-.21.108-.214.11-.214.11-.213.107-.214.11-.217.107-.214.11-.217.107-.22.107-.218.107-.22.107-.217.104-.22.107-.224.107-.221.103-.224.107-.224.104-.223.103-.224.104-.224.104-.227.103-.227.1-.227.104-.228.1-.23.104-.23.1-.228.1-.233.1-.23.1-.235.101-.23.1-.234.097-.234.1-.237.097-.234.097-.237.097-.237.097-.237.097-.24.097-.238.093-.24.097-.241.094-.24.093-.244.097-.24.094-.245.09-.243.094-.244.093-.247.09-.248.09-.244.094-.247.09-.25.09-.247.088-.25.09-.251.09-.251.087-.25.087-.251.087-.254.087-.254.086-.254.087-.253.087-.254.084-.258.083-.257.084-.257.083-.257.084-.26.083-.258.084-.26.08-.26.08-.261.08-.264.08-.26.081-.265.08-.264.08-.264.077-.267.077-.267.077-.264.077-.267.077-.27.076-.268.074-.267.077-.27.073-.271.074-.27.073-.275.07-.27.074-.274.07-.274.074-.274.07-.277.07-.274.067-.277.07-.278.07-.277.067-.277.067-.28.067-.278.067-.28.063-.281.067-.284.063-.28.064-.285.063-.283.064-.284.063-.284.06-.28.11-.515.108-.515.11-.517.107-.528.107-.531.107-.535.107-.54.103-.549.107-.55.104-.559.107-.564.103-.565.1-.574.104-.578.104-.581.1-.588.1-.591.104-.595.097-.601.1-.608.1-.611.097-.615.097-.621.097-.625.097-.628.097-.635.093-.638.097-.64.094-.646.027-.187.07-.464.093-.655.097-.658.094-.664.093-.668.094-.672.093-.675.094-.68.09-.682.09-.688.094-.692.087-.695.09-.701.09-.702.087-.708.087-.711.087-.712.087-.718.087-.725.087-.725.083-.728.084-.731.083-.738.084-.739.083-.745.08-.744.08-.752.084-.752.077-.758.08-.761.08-.762.077-.768.08-.768.077-.775.077-.775.077-.779.074-.785.077-.785.073-.788.074-.792.073-.794.074-.799.073-.798.07-.805.074-.805.07-.812.07-.812.07-.811.07-.819.067-.821.067-.819.137-1.656.134-1.664.13-1.677.13-1.683.127-1.694.124-1.703.124-1.714.123-1.72.12-1.734.118-1.737.117-1.75.113-1.754.114-1.767.11-1.77.11-1.78.11-1.787.108-1.794.103-1.8.104-1.808.103-1.813.1-1.82.1-1.825.098-1.833.097-1.838.096-1.843.094-1.848.094-1.853.09-1.858.09-1.864.09-1.867.09-1.87.087-1.878.087-1.877.084-1.884.083-1.884.084-1.89.083-1.89.08-1.898.084-1.897.08-1.898.077-1.904.08-1.9.154-3.815.154-3.818.15-3.821.15-3.821.148-3.825.143-3.825.147-3.817.288-7.63.284-7.592.143-3.785.144-3.77.147-3.759.144-3.74.15-3.725.147-3.704.077-1.851.077-1.84.077-1.834.077-1.83.076-1.825.08-1.82.078-1.814.08-1.804.083-1.8.08-1.794.084-1.787.084-1.773.28-5.97.291-6.192.3-6.404.308-6.617.277-6.029.04-.785.358-7.008.364-7.191.371-7.366.381-7.535.388-7.7.39-7.85.402-7.993.404-8.13.411-8.257.414-8.378.422-8.494.424-8.594.428-8.692.43-8.781.435-8.862.438-8.935.438-9 .44-9.051.442-9.106.444-9.142.441-9.176.445-9.202.44-9.216.445-9.226.438-9.226.441-9.22.003-.093.515-9.102.518-9.176.515-9.142.51-9.102.505-9.059.502-8.999.497-8.935.492-8.865.484-8.788.478-8.698.475-8.602.46-8.497.458-8.388.448-8.267.438-8.14.428-8.007.42-7.86.408-7.709.398-7.549.388-7.379.374-7.205.36-7.024.178-3.437.17-3.387.17-3.34.168-3.29.16-3.238.16-3.183.158-3.13.15-3.073.147-3.016.147-2.963.14-2.902.137-2.843.13-2.783.131-2.722.124-2.659.12-2.592.117-2.532.11-2.465.107-2.398.104-2.332.1-2.261L872.99 37.688l34.412 516.28.28 4.219.278 4.202.277 4.185.274 4.172.27 4.156.271 4.138.268 4.126.267 4.111.264 4.096.26 4.081.265 4.072.514 8.097.511 8.043.505 7.997.501 7.947.495 7.9.491 7.856.488 7.816.484 7.776.96 15.435.948 15.302.472 7.606.474 7.58.468 7.548.471 7.53.471 7.505.475 7.485.471 7.466.474 7.455.238 3.718.24 3.718.238 3.718.24 3.71.24 3.708.241 3.708.244 3.708.24 3.704.245 3.701.247 3.701.244 3.701.247 3.701.248 3.698.25 3.701.25 3.698.251 3.7.254 3.702.254 3.7.258 3.705.257 3.704.257 3.705.26 3.708.262 3.71.263 3.712.268 3.714.267 3.718.27 3.724.271 3.725.274 3.727.274 3.731.278 3.738.28 3.741.281 3.748.284 3.751.284 3.755.291 3.76.29 3.769.295 3.774.294 3.781.3 3.788.301 3.791.301 3.802.307 3.808.311 3.814.311 3.825.314 3.831.318 3.841.32 3.848.324 3.858.328 3.865.33 3.878.335 3.885.334 3.895.34 3.908.345 3.915.344 3.928.351 3.938.354 3.948.358 3.962.357 3.971.365 3.985.37 3.995.372 4.012.374 4.022.38 4.035.385 4.048.384 4.062.395 4.075.394 4.089.4 4.105.402 4.118.41 4.132.412 4.149.418 4.165.42 4.179.425 4.205.337 3.33.331 3.27.321 3.207.314 3.14.308 3.077.3 3.013.298 2.949.29 2.893.148 1.416.143 1.406.144 1.39.144 1.376.143 1.363.14 1.346.144 1.333.144 1.316.144 1.306.14 1.29.144 1.272.143 1.262.144 1.25.144 1.232.147 1.22.147 1.209.144 1.192.15 1.18.147 1.168.15 1.163.074.564.077.568.077.568.076.561.077.561.077.555.077.554.077.551.077.548.08.545.077.54.08.539.08.534.08.531.08.531.08.525.084.524.08.521.084.518.084.514.083.511.084.508.083.508.084.504.087.501.086.498.087.494.087.491.087.491.087.488.09.484.09.481.09.481.09.478.091.474.094.471.09.468.093.468.097.464.094.46.093.462.097.457.097.455.097.45.097.452.1.447.1.448.1.444.101.441.104.438.1.437.103.434.104.435.107.43.104.428.107.428.106.424.11.424.111.42.107.422.114.417.11.415.113.414.114.414.114.41.117.408.113.408.117.407.12.404.117.405.12.4.124.401.12.398.124.397.124.398.127.394.127.394.127.39.127.392.13.39.13.391.134.388.134.387.133.384.134.385.137.387.14.38.137.385.14.38.145.382.143.38.144.381.144.378.147.38.15.378.15.377.15.378.154.377.154.374.154.378.157.374.16.377.16.374.161.375.164.374.164.377.167.374.167.374.17.374.17.378.174.374.174.374.177.374.18.378.181.374.18.377.184.378.187.374.188.377.187.378.193.377.194.38.194.378.197.381.2.381.201.38.204.382.207.38.207.384.211.385.21.384.218.384.214.387.22.388.22.387.225.388.227.39.227.391.23.391.234.394.234.394.24.395.242.397.24.398.247.397.248.4.25.402.254.404.254.404.26.404.262.408.263.407.268.411.267.411.274.41.274.415.278.414.28.418.284.417.288.421.29.421.291.424.294.425.3.427.302.428.304.43.307.431.31.435.312.434.317.437.32.438.322.441.327.444.328.444.334.445.334.45.34.448.342.455.344.454.35.454.351.458.355.46.36.462.351.454.147.187.14.174.141.177.14.173.14.174.141.174.144.17.144.17.143.174.147.17.144.168.147.17.147.167.147.17.15.167.147.167.15.164.151.167.154.164.15.163.154.164.154.164.153.16.154.164.157.16.157.16.157.157.157.16.157.158.16.157.158.157.16.157.16.153.164.157.16.154.165.154.163.15.164.154.164.15.167.15.164.15.167.15.167.148.167.15.167.147.17.144.17.147.171.147.17.143.171.144.17.14.174.144.17.14.174.144.174.137.177.14.174.14.174.137.177.137.177.137.177.134.177.137.177.133.18.134.178.13.18.134.18.13.181.13.18.13.181.13.184.128.18.127.184.127.184.123.18.127.187.124.184.123.184.124.184.12.187.12.187.12.184.121.187.12.187.117.187.117.187.117.19.114.188.116.19.114.187.114.19.11.191.113.19.11.188.11.194.108.19.11.19.107.191.107.194.103.19.107.194.104.19.103.195.1.193.104.19.1.195.1.193.097.194.1.194.097.194.097.194.094.197.097.194.093.194.09.193.094.197.09.194.09.197.09.194.09.197.088.194.086.197.087.194.084.197.083.197.084.194.083.197.084.198.08.193.08.198.077.197.08.194.077.197.077.197.073.197.074.194.077.197.07.197.073.194.07.197.07.194.07.197.067.197.067.194.067.197.067.194.063.197.064.194.063.194.064.197.06.194.06.193.06.194.057.194.06.194.057.194.053.194.057.193.053.194.054.194.05.19.053.194.05.19.047.195.05.19.047.19.047.194.047.19.043.191.047.187.043.19.04.191.044.19.04.188.04.187.037.19.036.188.04.187.034.187.037.184.033.187.033.184.034.187.03.183.033.184.027.184.03.184.03.184.027.18.027.18.023.184.027.18.023.181.024.177.02.18.023.178.02.177.02.18.017.174.02.177.016.177.017.174.014.174.013.174.017.173.01.17.013.175.01.17.013.17.007.17.01.168.007.17.01.167.006.167.004.164.006.167.004.164.003.164.003h.324l.164.004.16-.004h.16l.157-.003h.16l.158-.003.157-.007.157-.003.154-.007.153-.007.154-.006.154-.007.15-.01.15-.007.151-.01.147-.013.15-.01.147-.01.147-.013.144-.014.144-.013.144-.017.143-.013.14-.017.14-.017.141-.016.14-.017.138-.017.137-.02.137-.02.133-.02.134-.02.134-.02.13-.023.13-.02.167-.03 3.225-.572 3.184-.564 3.105-.551 3.034-.538 5.854-1.046 5.58-.995 10.413-1.86 4.865-.872 4.655-.829 2.26-.404 2.211-.39 2.169-.385 2.128-.377 2.089-.368 2.052-.36 2.015-.355 1.981-.344 1.955-.337 1.921-.33 1.898-.328 1.872-.317 1.848-.314 1.827-.304 1.808-.3 1.788-.298 1.778-.29 1.76-.285 1.752-.28 1.734-.274.872-.137.865-.137.866-.134.862-.133.862-.13.862-.13.86-.131.858-.13.862-.127.859-.13.859-.124.862-.127.862-.127.862-.124.862-.123.866-.12.865-.124.869-.12.869-.124.872-.12.875-.117.88-.12.881-.12.882-.117.89-.117.888-.117.896-.117.899-.117.902-.117.909-.114.912-.116.915-.114.923-.117.929-.114.458-.056.474-.057.939-.114.946-.113.952-.117.959-.114.962-.113.973-.114.979-.113.989-.114.996-.114 1.002-.113 1.01-.114 1.019-.117 1.032-.113 2.079-.23 2.121-.231 2.162-.234 2.206-.234 1.063-.11 1.069-.11 1.07-.107 1.068-.107 1.07-.107 1.072-.103 1.073-.1 1.073-.1 1.072-.101 1.076-.097 1.076-.093 1.076-.094 1.08-.094 1.079-.086 1.08-.09 1.079-.087 1.079-.084 1.083-.083 1.082-.084 1.083-.077 1.083-.08 1.086-.077 1.086-.073 1.082-.074 1.086-.07 1.09-.07 1.086-.067 1.089-.067 1.086-.063 1.09-.064 1.089-.06 1.089-.06 1.09-.057 1.089-.056 1.092-.054 1.09-.053 1.092-.05 1.09-.047 1.092-.047 1.093-.047 1.09-.043 1.092-.04 1.093-.04 1.093-.04 1.092-.034 1.093-.036 1.093-.034 1.092-.03 1.093-.03 1.093-.027 1.092-.023 1.093-.027 1.093-.02 1.092-.02 1.093-.02 1.093-.017 1.093-.013 1.092-.013 1.09-.01 1.092-.01 1.093-.007 1.09-.007 1.089-.003h3.272l1.088.003z"/></g></svg>