<svg xmlns="http://www.w3.org/2000/svg" role="img" viewBox="-17.75 -17.75 923.00 566.50"><title>Conductor Technologies, Inc logo</title><g data-name="Layer 2"><path d="M273.9 483.1l-.5-106.4h.7a41 41 0 0 0 5-.2l5 106.4c-3.1.2-6.5.2-9.6.2zm-8.6 0c-3.4-.2-6.9-.2-10.3-.7l8.9-106.2a48.75 48.75 0 0 0 5.5.2zm32.8 48.1L289 425.1c1.9-.2 3.6-.2 5.5-.5L308.6 530c-3.5.5-7.1 1-10.5 1.2zm-51.7-49.8c-3.4-.5-6.9-1-10.3-1.4l17.7-105c1.7.2 3.6.5 5.3.7zm64.9-1.4l-18-105c1.7-.2 3.6-.7 5.3-1l23 104c-3.4.5-7 1.2-10.3 2zM219 514.5c-3.4-.7-6.7-1.4-10.1-2.4l26.6-103a33.69 33.69 0 0 0 5.3 1.2zm110.7-38.6l-26.8-103c1.7-.5 3.4-1 5.3-1.4l31.6 101.6c-3.3.9-6.7 1.8-10.1 2.8zm-136.3 47c-3.4-1-6.7-2.2-10.1-3.4l35.5-100.4c1.7.5 3.4 1.2 5.3 1.7zM348 470.4L312.3 370c1.7-.7 3.4-1.2 5-1.9l40.3 98.5c-3.2 1.4-6.5 2.6-9.6 3.8zm-156.5-2.9c-3.1-1.2-6.5-2.6-9.6-4.1l43.9-97c1.7.7 3.4 1.4 5 2.2zm173.9-4.3l-44.1-96.8a23.92 23.92 0 0 0 4.8-2.4l48.4 94.7a96.37 96.37 0 0 1-9.1 4.5zm-191.2-3.4a98.44 98.44 0 0 1-9.1-4.8l51.8-93c1.7 1 3.1 1.7 4.8 2.6zm208-5L330 362.1c1.7-1 3.1-1.9 4.8-2.9l56.3 90.3c-2.9 1.7-5.8 3.6-8.9 5.3zm-224.5-4.1c-2.9-1.7-6-3.6-8.9-5.5l59.7-88.4c1.4 1 3.1 1.9 4.6 2.9zm254.7 13.7l-59.7-88.2a41 41 0 0 1 4.6-3.1l63.7 85.3c-2.8 2.2-5.7 4.1-8.6 6zm-270.5-24.2a101.72 101.72 0 0 1-8.1-6.2l66.9-82.9c1.4 1.2 2.9 2.2 4.3 3.4zm271.7-6.7l-67.1-82.7c1.4-1.2 2.9-2.4 4.1-3.6l70.7 79.6c-2.4 2.4-5.1 4.5-7.7 6.7zM127 428.4c-2.6-2.2-5.3-4.6-7.7-6.9l73.6-76.9a50.12 50.12 0 0 0 4.1 3.6zm300.7-7.4l-73.8-76.7 3.8-3.8 77.2 73.3zm-314.3-5.5a84.19 84.19 0 0 1-6.9-7.7l79.8-70.4c1.2 1.4 2.4 2.6 3.6 4.1zm-62.8 24.9c-2.2-2.6-4.3-5.5-6.5-8.1l85.5-63.5c1 1.4 2.2 2.9 3.4 4.3zm39-54.1c-1.9-2.9-3.8-5.8-5.8-8.6l90.6-56.1c1 1.4 1.9 3.1 2.9 4.6zm-10-16.1c-1.7-2.9-3.4-6-5-9.1l94.9-48.2c.7 1.7 1.7 3.1 2.6 4.8zM71 353.4c-1.4-3.1-2.9-6.5-4.1-9.6l98.7-40c.7 1.7 1.4 3.4 2.2 5zM63.8 336c-1.2-3.4-2.4-6.7-3.4-9.8l101.8-31.4c.5 1.7 1.2 3.4 1.7 5zM58 317.7c-1-3.4-1.7-6.7-2.4-10.1l104-22.5c.5 1.7.7 3.6 1.2 5.3zM1.7 307.4C1 304 .5 300.5 0 297.1l105.7-13.7c.2 1.7.5 3.6.7 5.3zm49.8-26.8c-.2-3.4-.5-6.9-.7-10.3l106.4-4.8a34.08 34.08 0 0 0 .5 5.5zm-.9-18.4v-2.9c0-2.6 0-5.3.2-7.9l106.4 4.1v6.7l-49.4-1.2zm106.9-11.1L51.3 243c.2-3.4.7-6.9 1-10.3L158 245.9a30.52 30.52 0 0 0-.5 5.2zm-21.1-13.6l-105-17.3c.5-3.4 1.2-6.9 1.9-10.3l104.2 22c-.4 2-.9 3.7-1.1 5.6zm24.2-5.8L57.3 205.6c1-3.4 1.7-6.7 2.9-10.1L162 226.4c-.5 2-1 3.6-1.4 5.3zm2.8-9.3L62.8 187.7c1.2-3.4 2.4-6.5 3.6-9.8l98.7 39.5c-.5 1.6-1.2 3.3-1.7 5zm3.6-9.1l-97.3-43.4c1.4-3.1 2.9-6.2 4.6-9.3l95.1 47.7c-.9 1.6-1.6 3.3-2.4 5zm4.4-8.9l-93.2-51.5c1.7-3.1 3.4-6 5.3-9.1l90.8 55.8a43.56 43.56 0 0 0-2.9 4.8zm-25-30l-88.7-58.9c1.9-2.9 3.8-5.8 6-8.6l85.5 63.3c-.9 1.4-1.8 2.8-2.8 4.2zm24.7 3.9l-83.4-66.4c2.2-2.6 4.3-5.3 6.7-7.9l80 70.2c-1.1 1.4-2.3 2.9-3.3 4.1zm1.2-14.4L94.9 90.8c2.4-2.4 4.8-5 7.4-7.4l73.8 76.7c-1.4 1.2-2.6 2.6-3.8 3.8zm181.4 12.2a50.12 50.12 0 0 0-4.1-3.6l69.7-80.3c2.6 2.2 5.3 4.6 7.7 6.9zM196 173.5l-70.9-79.3c2.6-2.4 5.3-4.6 7.9-6.7l67.1 82.7a25.78 25.78 0 0 0-4.1 3.3zm150.3-3.8c-1.4-1.2-2.9-2.2-4.3-3.4l62.8-86c2.9 2.2 5.5 4.1 8.4 6.5zm-142.6-2.4l-64-85.1c2.9-2.2 5.5-4.1 8.4-6l59.9 87.9c-1.4 1-2.9 2.2-4.3 3.2zm141.6-14.2c-1.4-1-3.1-1.9-4.6-2.9l55.4-91.1c2.9 1.7 6 3.6 8.9 5.5zm-164.6-43.8l-56.6-90.1c2.9-1.9 6-3.6 8.9-5.3l52.2 92.7c-1.4.8-2.8 1.7-4.5 2.7zm149 49.3c-1.7-1-3.1-1.7-4.8-2.6l47.4-95.4c3.1 1.4 6.2 3.1 9.3 4.8zm-109.5-1.9l-48.4-94.6c3.1-1.7 6.2-3.1 9.3-4.6l44.1 96.8a32.74 32.74 0 0 1-5 2.4zm111.5-27.8c-1.7-.7-3.4-1.4-5-2.2l39.1-99c3.1 1.2 6.5 2.6 9.6 4.1zm-102.4 23.7l-40.5-98.5c3.1-1.2 6.5-2.6 9.8-3.8l35.7 100.4c-1.6.7-3.3 1.2-5 1.9zm82.5-2.1a41.09 41.09 0 0 0-5.3-1.7L337.2 47c3.4 1 6.7 2.2 9.8 3.1zM233.9 133L202 31.6c3.4-1 6.7-1.9 10.1-2.9l27.1 103a37.37 37.37 0 0 0-5.3 1.3zm68.5 14.6a33.69 33.69 0 0 0-5.3-1.2l21.6-104.2c3.4.7 6.7 1.4 10.1 2.4zm-54.4-.7l-23-104c3.4-.7 6.9-1.4 10.3-1.9l18 105a32.62 32.62 0 0 0-5.3.9zm44.8-1.2c-1.7-.2-3.6-.5-5.3-.7l12.7-105.7c3.4.5 6.9 1 10.3 1.4zm-35.2-.5L243.5 39.8c3.4-.5 6.9-.7 10.3-1.2l9.1 106.2a35.86 35.86 0 0 0-5.3.4zm25.4-.7a50.55 50.55 0 0 0-5.5-.2l3.6-106.4c3.4.2 6.9.2 10.3.7zm-16.3-37.9L261.5.2c3.1-.2 6.5-.2 9.6-.2h1l-.6 106.4h.2c-1.6 0-3.3.2-5 .2zM336 301.4c-23.1 0-42.2-18.6-42.2-41.8a42.2 42.2 0 0 1 84.4 0c0 23.2-19.1 41.8-42.2 41.8zm0-70.1c-15.5 0-27.3 13-27.3 28.2s12 27.9 27.3 27.9 27.3-12.9 27.3-27.9c-.1-15.2-11.8-28.2-27.3-28.2zm101.2 68.5l-33.7-58.7h-.2v58.7h-15V219h17l33.4 58.7h.2V219h15v80.8zm76.7-5.3c-7.7 4.3-18.1 5.2-26.8 5.2h-18.7V219h18.3c11.2 0 24.3 1.6 33.2 9.4 8.6 7.6 13.3 19.8 13.3 31.2 0 13.7-7 28.1-19.3 34.9zm-4.3-54.8c-7.5-6.7-16.8-6.8-26.3-6.8v52.8h3.2c7.2 0 13.2-.3 19.6-3.9 7.9-4.4 12.1-13.4 12.1-22.3 0-7.2-3-14.9-8.6-19.8zm86.9 49.7a29.75 29.75 0 0 1-24.1 12c-9.1 0-18.6-4.1-24-11.6-4-5.3-5-13-5-19.5V219h15v51.3c0 9.4 3.1 17.1 14 17.1s14-7.7 14-17.1V219h15v51.3c-.2 6.5-1.1 13.5-4.9 19.1zM720.2 233v66.8h-15V233h-15v-14h45v14zm61.1 68.4c-23.1 0-42.2-18.6-42.2-41.8a42.25 42.25 0 0 1 84.5 0c0 23.2-19.1 41.8-42.3 41.8zm0-70.1c-15.5 0-27.3 13-27.3 28.2s12 27.9 27.3 27.9 27.3-12.9 27.3-27.9c0-15.2-11.8-28.2-27.3-28.2zm88.3 68.5l-21.4-30.9h-.2v30.9h-15V219h24.8c7.1 0 14 .9 19.6 5.5a24.93 24.93 0 0 1 9.5 19.5c0 6.9-2.8 14.5-7.7 19.3-4.1 3.9-8 5.3-13.4 6.7l21.9 29.8zm-12-66.8H848v24.6h9.6c8 0 14.4-3.9 14.4-12.4 0-8.3-6.7-12.2-14.4-12.2zm-578.7 44.8c-5.5 5.9-11.3 9.6-19.7 9.6-15 0-26.8-13.6-26.8-28.2 0-14.3 11.5-27.9 26.3-27.9 8.6 0 15.4 3.8 21 10l10.4-10.4a41.52 41.52 0 0 0-30.9-13.6c-22.8 0-41.8 18.9-41.8 41.7 0 23 19 42.3 42.1 42.3a42 42 0 0 0 30-13zm394.1 0c-5.5 5.9-11.3 9.6-19.7 9.6-15 0-26.8-13.6-26.8-28.2 0-14.3 11.5-27.9 26.3-27.9 8.6 0 15.4 3.8 21 10l10.4-10.4a41.52 41.52 0 0 0-30.9-13.6c-22.8 0-41.8 18.9-41.8 41.7 0 23 19 42.3 42.1 42.3a42 42 0 0 0 30-13z" data-name="Layer 1"/></g></svg>