<svg xmlns="http://www.w3.org/2000/svg" role="img" viewBox="-3.47 -2.22 206.44 83.44"><title>Cortex logo</title><path fill="#9B9DA1" d="M53.783 18.134H40.872l-6.457 11.181 6.457 11.182h12.911l6.455-11.182z"/><path fill="#797A7D" d="M75.257 30.362h-12.91l-6.455 11.181 6.455 11.181h12.91l6.456-11.181z"/><path fill="#B9BABD" d="M53.866 42.935H40.954l-6.455 11.18 6.455 11.184h12.912l6.455-11.184z"/><path fill="#9B9DA1" d="M70.267 55.165h-7.799l-3.899 6.753 3.899 6.754h7.799l3.899-6.754zm13.542 7.992h-7.798l-3.9 6.753 3.9 6.754h7.798l3.899-6.754z"/><path fill="#797A7D" d="M32.41 30.644H19.498l-6.455 11.181 6.455 11.181H32.41l6.456-11.181z"/><path fill="#398CA1" d="M96.444 17.862h-12.91l-6.456 11.18 6.456 11.182h12.91l6.456-11.182z"/><path fill="#4E4D50" d="M32.191 14.825h-7.798l-3.899 6.753 3.899 6.754h7.798l3.899-6.754z"/><path fill="#211F1F" d="M12.348 45.261H4.55l-3.9 6.754 3.9 6.751h7.798l3.899-6.751z"/><path fill="#4E4D50" d="M93.547 1.921h-7.798L81.85 8.674l3.899 6.754h7.798l3.901-6.754zM39.802 67.904h-5.478l-2.74 4.745 2.74 4.744h5.478l2.74-4.744z"/><path fill="#FFF" d="M97.228 33.484a7.79 7.79 0 0 1-2.812 2.546 7.61 7.61 0 0 1-3.651.915 7.573 7.573 0 0 1-3.028-.613 7.803 7.803 0 0 1-4.149-4.145 7.603 7.603 0 0 1-.608-3.027c0-1.074.203-2.083.608-3.027a7.787 7.787 0 0 1 1.67-2.475 8.103 8.103 0 0 1 2.479-1.683 7.421 7.421 0 0 1 3.028-.624c1.296 0 2.513.305 3.651.912a7.883 7.883 0 0 1 2.812 2.523l-2.739 1.37c-.962-1.201-2.203-1.802-3.724-1.802-.658 0-1.279.128-1.863.385a4.855 4.855 0 0 0-1.526 1.044 4.933 4.933 0 0 0-1.02 1.539 4.643 4.643 0 0 0-.373 1.838c0 .641.127 1.249.385 1.826.255.577.6 1.084 1.032 1.525a4.87 4.87 0 0 0 1.514 1.045 4.49 4.49 0 0 0 1.851.385c1.521 0 2.762-.601 3.724-1.802l2.739 1.345z"/><path fill="#398CA1" d="M121.036 29.779c0 .965-.189 1.878-.569 2.742a7.539 7.539 0 0 1-1.532 2.27 7.096 7.096 0 0 1-2.256 1.535 6.814 6.814 0 0 1-2.737.56 6.87 6.87 0 0 1-2.759-.56c-.862-.373-1.617-.88-2.267-1.524s-1.161-1.396-1.532-2.259c-.373-.863-.559-1.784-.559-2.764s.186-1.9.559-2.764c.371-.862.883-1.615 1.532-2.258s1.404-1.155 2.267-1.536a6.773 6.773 0 0 1 2.759-.569c.963 0 1.876.19 2.737.569a7.37 7.37 0 0 1 2.256 1.536 7.34 7.34 0 0 1 1.532 2.27 6.8 6.8 0 0 1 .569 2.752zm-2.741 0c0-.585-.113-1.144-.34-1.678a4.44 4.44 0 0 0-2.314-2.357 4.111 4.111 0 0 0-1.689-.351c-.6 0-1.165.117-1.699.351a4.524 4.524 0 0 0-1.394.942c-.395.395-.709.86-.941 1.393a4.188 4.188 0 0 0-.352 1.7c0 .6.117 1.162.352 1.689.232.526.547.986.941 1.381.396.396.86.71 1.394.943.534.234 1.1.351 1.699.351.586 0 1.141-.117 1.668-.351a4.435 4.435 0 0 0 1.382-.955c.395-.402.709-.866.941-1.391a4.042 4.042 0 0 0 .352-1.667zm36.49 6.865h-2.764c-.395 0-.76-.069-1.097-.208a2.62 2.62 0 0 1-.865-.571 2.604 2.604 0 0 1-.571-.866 2.862 2.862 0 0 1-.207-1.098V18.968h2.74v3.904h2.764v2.544h-2.764v8.486h2.764v2.742zm23.678-6.865c0 .482-.051.937-.152 1.36h-11.119c.146.438.356.844.635 1.217a4.331 4.331 0 0 0 3.509 1.788c1.389 0 2.521-.541 3.399-1.623l2.071 1.788s-.956.99-1.534 1.37a7.483 7.483 0 0 1-1.864.889 6.812 6.812 0 0 1-2.072.318 6.912 6.912 0 0 1-2.753-.56c-.869-.373-1.626-.88-2.27-1.524s-1.155-1.396-1.535-2.259c-.381-.863-.57-1.784-.57-2.764s.189-1.9.57-2.764c.38-.862.892-1.615 1.535-2.258s1.4-1.155 2.27-1.536a6.817 6.817 0 0 1 2.753-.569c.979 0 1.899.19 2.764.569.861.381 1.614.893 2.258 1.536s1.155 1.396 1.536 2.258c.378.864.569 1.784.569 2.764zm-2.982-1.382a4.152 4.152 0 0 0-.637-1.206 4.776 4.776 0 0 0-.966-.955 4.302 4.302 0 0 0-2.543-.844 4.331 4.331 0 0 0-3.509 1.788 4.292 4.292 0 0 0-.635 1.216h8.29zm-35.151-3.132h-6.218v11.184h-2.87V25.222c0-.82.253-1.484.757-1.996.505-.511 1.165-.768 1.985-.768h6.229l.117 2.807zm58.905-2.642h-3.108l-3.419 4.808-3.42-4.808h-3.108l4.973 6.994-4.973 6.994h3.108l3.42-4.809 3.419 4.809h3.108l-4.973-6.994z"/></svg>