<svg xmlns="http://www.w3.org/2000/svg" role="img" viewBox="-15.40 -8.40 1060.80 311.80"><title>Cryptomatte logo</title><defs><clipPath id="a" clipPathUnits="userSpaceOnUse"><path fill-rule="evenodd" stroke="#000" stroke-width="0" d="M-3.928-263.745s-44.752 14.878-85.96 84.192c-34.829 58.582-31.392 116.119-31.392 116.119S-66.91-30.326-6.875-30.989c67.909-.75 120.066-33.653 120.066-33.653s-.502-60.511-33.969-118.62c-38.075-66.109-83.15-80.483-83.15-80.483z"/></clipPath></defs><path d="M424.85 236.63c11.408-6.686 16.99-16.539 33.64-59.385 5.823-14.985 11.836-30.395 13.363-34.245l2.775-7h-4.355c-4.851 0-3.254-3.544-20.299 45.028l-5.741 16.36-2.323-7.027c-1.278-3.865-6.388-17.528-11.356-30.361-8.817-22.774-9.131-23.343-13.127-23.751-2.251-.23-4.094-.09-4.094.31s5.986 16.13 13.301 34.955l13.3 34.228-3.39 6.796c-3.887 7.791-11.311 16.005-17.387 19.24-3.53 1.878-4.001 2.687-3.043 5.222 1.418 3.753 1.722 3.74 8.736-.37zm63.15.703h8l.006-20.333.007-20.333 2.994 3.552c9.097 10.797 27.815 11.61 39.378 1.713 8.673-7.424 11.492-14.886 11.559-30.599.05-12.013-.305-14.018-3.591-20.25-9.539-18.09-31.715-21.79-45.855-7.651l-5.831 5.831v-6.631c0-6.185-.225-6.632-3.334-6.632H488v50.667zm11-46.621c-4.006-7.937-4.25-27.165-.45-35.533 3.422-7.535 10.613-12.76 18.619-13.529 14.57-1.4 25.498 11.607 25.498 30.35 0 13.743-5.928 24.682-15.624 28.83-10.596 4.535-22.885.1-28.043-10.118zm-142.667 15.94c3.51-1.013 5-2.197 5-3.97 0-3.737-1.297-3.988-9.354-1.81-9.746 2.636-24.173 1.637-32.43-2.244-8.011-3.766-16.074-12.925-19.13-21.734-2.819-8.121-3.178-26.632-.683-35.104 2.474-8.395 9.546-17.937 16.436-22.176 10.638-6.546 29.026-7.876 41.32-2.988 1.518.604 2.394-.046 2.956-2.194 1.14-4.363-.289-5.2-11.671-6.84-31.279-4.506-54.165 12.084-58.537 42.432-4.065 28.216 9.591 51.92 33.383 57.943 5.992 1.517 25.643.727 32.71-1.315zm239.404 1.823c2.172-.582 2.952-1.642 2.666-3.627-.345-2.404-1.178-2.748-5.818-2.41-3.842.281-6.36-.368-8.667-2.234-3.229-2.612-3.254-2.82-3.66-30.024l-.41-27.393 9.743-.394c8.948-.36 9.777-.637 10.168-3.393.41-2.884.038-3-9.666-3H580v-15.861l-4 1.394c-3.71 1.294-4 1.867-4 7.93V136h-6.093c-5.555 0-6.055.264-5.666 3 .352 2.484 1.384 3.07 5.997 3.405l5.57.406.43 27.834c.397 25.805.632 28.108 3.224 31.594 1.537 2.069 4.237 4.502 6 5.408 3.477 1.787 9.408 2.131 14.275.828zm76.8-51.233c-2.942-10-12.072-18.892-21.795-21.224-27.682-6.64-48.388 19.997-39.308 50.57 2.65 8.922 12.233 19.035 19.976 21.081 28.866 7.626 50.426-18.811 41.126-50.427zm-54.863 18.13c-1.367-17.216 7.113-31.486 19.95-33.57 15.568-2.526 27.232 8.426 28.72 26.966 1.096 13.653-4.702 26.313-14.292 31.206-16.279 8.304-32.698-3.446-34.378-24.601zm202.604 33.013c7.251 1.389 12.838.713 19.411-2.347 3.862-1.798 7.376-4.192 7.81-5.32 1.397-3.643 3.168-2.18 3.168 2.615 0 4.209.362 4.667 3.688 4.667h3.687l-.364-15c-1.037-42.677-.922-41.373-4.175-47.12-1.698-3-4.981-6.587-7.295-7.973-5.629-3.37-19.312-3.434-27.875-.13-6.615 2.552-7.036 3.05-5.13 6.058.973 1.535 2.16 1.453 7.289-.506 7.574-2.892 18.26-2.187 22.372 1.477 3.555 3.167 6.47 9.915 6.47 14.979 0 3.824-.115 3.882-9.559 4.812-23.557 2.321-35.998 13.876-32.43 30.12 1.07 4.87 8.61 12.84 12.933 13.668zm18.362-8.054c-11.16 5.607-22.826.263-23.11-10.585-.305-11.59 7.562-17.716 24.137-18.799l9.666-.631v9.311c0 10.896-3.093 16.886-10.693 20.704zm67.763 8.144c2.173-.582 2.952-1.642 2.667-3.627-.346-2.404-1.179-2.748-5.819-2.41-3.841.281-6.36-.368-8.666-2.234-3.229-2.612-3.254-2.82-3.66-30.024l-.41-27.393 9.743-.394c8.948-.361 9.777-.638 10.168-3.393.41-2.884.037-3-9.667-3h-10.092v-15.861l-4 1.394c-3.711 1.294-4 1.867-4 7.93V136h-6.093c-5.556 0-6.055.264-5.667 3 .353 2.484 1.384 3.07 5.997 3.405l5.571.406.43 27.834c.397 25.804.632 28.108 3.224 31.594 1.537 2.069 4.237 4.502 6 5.408 3.477 1.787 9.408 2.131 14.274.828zm46.667 0c2.173-.582 2.952-1.642 2.667-3.627-.346-2.404-1.179-2.748-5.82-2.41-3.84.281-6.36-.368-8.666-2.234-3.228-2.612-3.254-2.82-3.66-30.024l-.41-27.393 9.743-.394c8.949-.361 9.777-.638 10.169-3.393.41-2.884.037-3-9.667-3h-10.093v-15.861l-4 1.394c-3.71 1.294-4 1.867-4 7.93V136h-6.092c-5.556 0-6.056.264-5.667 3 .353 2.484 1.384 3.07 5.997 3.405l5.57.406.43 27.834c.398 25.804.633 28.108 3.224 31.594 1.538 2.069 4.238 4.502 6 5.408 3.478 1.787 9.409 2.131 14.275.828zm36.048-.718c6.66 1.774 14.829 1.846 22.484.2 8.355-1.798 9.785-2.8 8.887-6.234-.713-2.726-.974-2.767-6.118-.952-6.786 2.394-18.486 2.44-24.1.094-8.59-3.589-15.575-14.875-15.596-25.198l-.008-3.667h50.666v-3.934c0-13.6-6.855-26.465-16.415-30.805-14.432-6.553-30.075-.034-37.833 15.766-3.272 6.663-3.752 9.174-3.745 19.64.006 9.863.561 13.127 3.118 18.33 3.728 7.588 11.951 14.974 18.66 16.76zm28.564-42.424h-43.066l.855-3.666c1.357-5.816 6.212-13.863 10.096-16.735 5.145-3.804 15.287-4.395 21.032-1.225 5.051 2.786 9.099 9.396 10.305 16.828zM378.667 208h8l.029-23.667c.025-20.073.4-24.485 2.477-29.055 3.342-7.358 9.84-12.611 15.596-12.611 4.183 0 4.564-.335 4.564-4 0-3.419-.504-4-3.465-4-6.047 0-12.711 4.185-16.714 10.498l-3.82 6.024v-7.595c0-7.211-.169-7.594-3.334-7.594h-3.333v36zm314.666 0h8v-24.72c0-21.972.293-25.293 2.63-29.874 7.476-14.655 24.575-15.987 30.745-2.394 2.245 4.945 2.57 8.874 2.596 31.321l.03 25.667h8v-25.803c0-24.63.137-26.007 3.031-30.301 1.668-2.475 5.118-5.916 7.667-7.649 9.28-6.306 21.654-1.227 25.11 10.307.9 3.007 1.525 14.982 1.525 29.267V208h8.196l-.431-27.042c-.413-25.852-.58-27.334-3.801-33.667-7.81-15.355-28.015-16.7-39.608-2.635l-4.121 5-2.098-4.056c-4.463-8.632-15.637-12.845-25.465-9.602-2.735.903-7.305 4.045-10.155 6.982L700 148.322v-6.161c0-5.683-.259-6.161-3.333-6.161h-3.334v36z"/><path fill="#6b63d3" fill-rule="evenodd" d="M140.825 12.393s-60.93 34.46-102.138 103.775C3.858 174.75 5.623 247.113 5.623 247.113s50.365 36.4 129.636 36.665c80.933.272 141.094-35.683 141.094-35.683s.495-72.66-32.081-131.273C209.196 53.713 140.825 12.393 140.825 12.393z"/><path fill-rule="evenodd" d="M141.152 34s-44.751 14.877-85.96 84.191c-34.829 58.583-31.391 116.12-31.391 116.12s54.37 33.108 114.405 32.444c67.908-.75 120.065-33.653 120.065-33.653s-.501-60.51-33.969-118.62C186.227 48.374 141.152 34 141.152 34z"/><g clip-path="url(#a)" transform="translate(145.08 297.744)"><path fill="#6b63d3" fill-rule="evenodd" d="M-13.595-112.179s-3.614 7.788-6.25 11.125c-1.828 2.314-4.144 4.227-6.5 6-3.854 2.9-8.19 5.101-12.375 7.5-3.947 2.263-8.288 3.871-12 6.5-2.432 1.722-4.453 3.962-6.625 6-1.526 1.432-3.186 2.747-4.5 4.375-2.222 2.753-4.537 5.634-5.625 9-.963 2.98-.915 6.257-.625 9.375.278 2.999.25 5.994 1.125 8.875.95 3.128 2.47 6.47 4.375 9.125 2.282 3.184 5.997 5.067 9.25 7.25 2.309 1.55 4.63 3.195 7.25 4.125 3.105 1.103 6.456 1.549 9.75 1.625 4.572.107 9.19-.506 13.625-1.625 3.083-.778 6.44-1.454 8.875-3.5 1.345-1.13 1.904-2.959 2.75-4.5 1.094-1.993 2.005-4.08 3-6.125 1.215-2.496 3.558-4.724 3.625-7.5.05-2.127-1.177-4.207-2.5-5.875-1.316-1.658-3.05-3.334-5.125-3.75-2.27-.454-4.888.251-6.75 1.625-1.248.921-2.057 2.483-2.375 4-.492 2.342.602 4.748.875 7.125.224 1.957 1.16 3.98.625 5.875-.501 1.773-1.768 3.476-3.375 4.375-3.072 1.72-6.737 2.407-10.25 2.625-2.413.15-5.175-.715-7.5-1.375-2.524-.716-4.629-2.547-6.625-4.25-1.999-1.703-4.161-3.485-5.25-5.875-1.376-3.019-1.515-6.567-1.25-9.875.318-3.982 1.596-7.923 3.375-11.5 1.87-3.76 4.757-6.943 7.5-10.125 2.424-2.811 5.166-5.336 7.875-7.875 3.317-3.109 7.056-5.763 10.25-9 2.117-2.145 4.16-4.395 5.875-6.875 1.919-2.776 3.36-5.858 4.875-8.875 1.17-2.333 4.292-4.731 3.25-7.125-.368-.845-2.625-.875-2.625-.875zm-4.232-35.257s-4.937-7.023-6.51-10.975c-1.089-2.74-1.588-5.702-1.945-8.63-.585-4.787-.322-9.643-.308-14.466.013-4.55.791-9.113.37-13.643-.275-2.966-1.204-5.836-1.883-8.737-.477-2.037-.786-4.133-1.539-6.085-1.273-3.3-2.61-6.746-4.981-9.37-2.1-2.325-4.961-3.921-7.807-5.23-2.736-1.258-5.315-2.78-8.248-3.463-3.183-.741-6.838-1.094-10.09-.774-3.899.385-7.387 2.66-10.904 4.386-2.496 1.225-5.082 2.412-7.197 4.216-2.508 2.138-4.57 4.817-6.283 7.632-2.378 3.906-4.157 8.211-5.405 12.612-.868 3.059-1.961 6.304-1.406 9.436.306 1.73 1.61 3.128 2.522 4.631 1.179 1.944 2.531 3.777 3.804 5.66 1.555 2.301 2.312 5.445 4.683 6.89 1.817 1.108 4.232 1.085 6.338.773 2.094-.31 4.412-.974 5.81-2.564 1.528-1.738 2.226-4.358 1.968-6.658-.174-1.54-1.122-3.022-2.277-4.057-1.783-1.596-4.413-1.852-6.608-2.805-1.807-.784-4.027-.984-5.4-2.396-1.285-1.32-2.126-3.268-2.102-5.11.047-3.52 1.284-7.038 2.852-10.19 1.076-2.163 3.207-4.123 4.94-5.807 1.883-1.828 4.521-2.734 6.994-3.612 2.475-.88 5.098-1.861 7.713-1.61 3.302.318 6.445 1.973 9.177 3.855 3.29 2.267 6.063 5.344 8.272 8.673 2.321 3.5 3.634 7.592 5.018 11.558 1.223 3.505 2.038 7.142 2.882 10.757 1.034 4.428 1.463 8.993 2.67 13.377.8 2.907 1.725 5.801 3.016 8.526 1.445 3.05 3.393 5.84 5.249 8.659 1.435 2.18 1.951 6.082 4.545 6.377.916.104 2.07-1.836 2.07-1.836z"/><path fill="#a7a1f9" fill-rule="evenodd" d="M7.4-146.635s6.06-6.082 9.679-8.317c2.509-1.549 5.34-2.554 8.16-3.415 4.614-1.407 9.441-1.991 14.194-2.815 4.482-.776 9.112-.803 13.5-2.004 2.873-.786 5.538-2.2 8.277-3.372 1.923-.823 3.933-1.491 5.725-2.572 3.03-1.827 6.19-3.742 8.364-6.533 1.924-2.471 2.999-5.567 3.794-8.596.764-2.913 1.814-5.718 1.978-8.725.177-3.263-.11-6.923-.99-10.07-1.056-3.773-3.903-6.813-6.213-9.977-1.64-2.246-3.258-4.586-5.402-6.356-2.54-2.098-5.537-3.663-8.606-4.862-4.26-1.663-8.809-2.668-13.36-3.133-3.163-.323-6.549-.836-9.536.254-1.651.602-2.801 2.129-4.123 3.288-1.71 1.498-3.28 3.149-4.914 4.73-1.996 1.93-4.96 3.221-5.972 5.807-.775 1.982-.333 4.357.34 6.376.67 2.008 1.725 4.176 3.534 5.277 1.976 1.203 4.678 1.435 6.898.781 1.488-.438 2.782-1.629 3.6-2.946 1.263-2.033 1.058-4.668 1.615-6.995.458-1.915.27-4.137 1.422-5.734 1.077-1.494 2.85-2.661 4.668-2.957 3.474-.565 7.153.042 10.53 1.039 2.317.684 4.618 2.442 6.577 3.857 2.126 1.537 3.478 3.977 4.772 6.26 1.295 2.284 2.718 4.698 2.924 7.316.26 3.308-.824 6.69-2.203 9.707-1.661 3.633-4.21 6.9-7.105 9.652-3.044 2.894-6.845 4.898-10.51 6.95-3.24 1.813-6.68 3.247-10.094 4.706-4.181 1.787-8.602 3.002-12.71 4.952-2.723 1.292-5.414 2.707-7.872 4.45-2.753 1.954-5.162 4.356-7.617 6.673-1.898 1.792-5.65 2.978-5.49 5.584.056.92 2.167 1.72 2.167 1.72z"/><path fill="#fff" fill-rule="evenodd" d="M-2.292-151.296c-.214-.134 2.802-17.444 8.348-25.043 5.757-7.888 12.82-14.955 18.333-22.915 2.781-4.018 6.101-8.007 7.202-12.768 1.662-7.189 1.489-15.27-1.31-22.097-2.42-5.903-7.11-11.16-12.603-14.404-7.935-4.685-17.819-6.574-27.008-5.892-7.508.557-16.373 2.616-21.933 7.693-5.514 5.034-8.214 13.035-9.003 20.46-.48 4.527.512 9.64 3.274 13.258 1.63 2.136 4.39 3.478 7.038 3.929 2.512.427 5.851.844 8.02-.491 2.259-1.39 3.756-4.598 4.256-7.202.682-3.548-2.59-6.705-2.782-10.312-.154-2.867-.404-6.372 1.31-8.676 2.271-3.054 7.339-4.56 11.13-4.91 4.44-.411 8.503 1.424 11.948 4.256 4.128 3.393 5.857 8.104 6.384 13.422.657 6.624-1.978 13.223-4.256 19.478-2.271 6.238-6.165 10.858-9.002 16.86-1.91 4.037-4.008 8.964-5.238 13.257-1.165 4.067-1.973 8.222-2.292 12.44-.238 3.158-.327 9.657-.327 9.657z"/><path fill="#a7a1f9" fill-rule="evenodd" d="M-24.917-136.629s-8.297-2.206-12.041-4.223c-2.596-1.398-4.883-3.347-7.038-5.36-3.526-3.291-6.445-7.18-9.535-10.884-2.914-3.493-5.251-7.49-8.485-10.689-2.118-2.095-4.674-3.697-7.06-5.482-1.674-1.254-3.258-2.661-5.09-3.672-3.096-1.71-6.335-3.49-9.84-3.977-3.101-.431-6.32.186-9.34 1.012-2.905.795-5.86 1.287-8.545 2.65-2.915 1.478-5.942 3.556-8.227 5.893-2.739 2.8-3.948 6.785-5.533 10.368-1.125 2.543-2.342 5.114-2.804 7.856-.546 3.25-.404 6.627.093 9.884.69 4.522 2.094 8.963 3.966 13.136 1.302 2.901 2.55 6.09 4.988 8.132 1.348 1.13 3.245 1.362 4.91 1.927 2.152.731 4.366 1.266 6.552 1.891 2.67.763 5.27 2.684 8.016 2.268 2.104-.32 3.94-1.89 5.351-3.483 1.405-1.583 2.754-3.582 2.804-5.698.053-2.314-1.096-4.77-2.773-6.365-1.123-1.07-2.802-1.595-4.352-1.645-2.391-.077-4.57 1.418-6.864 2.1-1.888.56-3.718 1.834-5.678 1.635-1.832-.186-3.73-1.137-4.894-2.564-2.227-2.726-3.54-6.216-4.365-9.638-.567-2.35-.195-5.22.052-7.625.267-2.61 1.705-5 3.035-7.263 1.33-2.264 2.71-4.702 4.874-6.19 2.734-1.88 6.204-2.632 9.508-2.946 3.977-.378 8.08.196 11.91 1.327 4.03 1.189 7.665 3.48 11.274 5.628 3.19 1.899 6.153 4.161 9.123 6.388 3.638 2.727 6.901 5.948 10.643 8.531 2.481 1.713 5.051 3.335 7.791 4.592 3.068 1.408 6.353 2.293 9.587 3.26 2.5.748 5.405 3.405 7.581 1.963.769-.51.406-2.737.406-2.737z"/><path fill="#6b63d3" fill-rule="evenodd" d="M14.94-134.334s8.55-.765 12.759-.15c2.918.426 5.733 1.475 8.446 2.63 4.439 1.887 8.513 4.542 12.683 6.966 3.933 2.287 7.496 5.242 11.629 7.143 2.707 1.244 5.657 1.875 8.509 2.737 2.002.605 3.972 1.386 6.039 1.71 3.495.547 7.147 1.112 10.606.371 3.063-.656 5.876-2.336 8.432-4.146 2.458-1.74 5.065-3.213 7.123-5.412 2.234-2.386 4.367-5.374 5.715-8.351 1.616-3.569 1.39-7.727 1.654-11.636.187-2.774.452-5.607-.053-8.341-.597-3.24-1.887-6.366-3.467-9.256-2.195-4.014-5.034-7.706-8.22-10.988-2.216-2.28-4.48-4.85-7.469-5.936-1.652-.6-3.514-.169-5.272-.131-2.273.049-4.537.304-6.804.464-2.77.197-5.87-.72-8.308.611-1.868 1.02-3.055 3.123-3.838 5.103-.778 1.968-1.363 4.308-.685 6.313.74 2.192 2.661 4.107 4.782 5.033 1.421.62 3.178.54 4.652.057 2.274-.745 3.81-2.896 5.733-4.32 1.582-1.173 2.866-2.996 4.775-3.48 1.786-.451 3.894-.206 5.477.736 3.024 1.8 5.452 4.63 7.398 7.564 1.336 2.015 1.968 4.84 2.56 7.183.64 2.544.107 5.282-.369 7.863-.476 2.582-.938 5.346-2.463 7.484-1.927 2.7-4.93 4.595-7.927 6.02-3.608 1.715-7.66 2.579-11.647 2.827-4.192.26-8.392-.648-12.518-1.433-3.647-.693-7.205-1.806-10.758-2.882-4.351-1.319-8.52-3.23-12.919-4.377-2.917-.76-5.887-1.406-8.891-1.65-3.364-.274-6.754.018-10.124.215-2.606.153-6.243-1.35-7.795.748-.549.742.555 2.711.555 2.711z"/><path fill="#fff" fill-rule="evenodd" d="M-24.43-124.032c-.009.253-15.373 6.84-25.862 5.292-9.578-1.413-19.361-3.625-29.011-4.418-4.87-.4-9.985-1.281-14.658.146-7.057 2.155-13.969 6.345-18.482 12.183-3.902 5.047-6.11 11.737-6.172 18.117-.09 9.214 3.215 18.718 8.4 26.335 4.237 6.224 10.453 12.872 17.63 15.149 7.117 2.258 15.395.595 22.22-2.434 4.16-1.847 8.092-5.263 9.845-9.464 1.035-2.48.817-5.54-.117-8.06-.886-2.388-2.194-5.49-4.436-6.7-2.333-1.26-5.86-.953-8.365-.085-3.413 1.184-4.51 5.595-7.539 7.566-2.405 1.566-5.316 3.535-8.167 3.203-3.782-.44-7.619-4.076-9.818-7.184-2.577-3.64-3.02-8.076-2.289-12.475.875-5.272 4.09-9.124 8.432-12.24 5.408-3.88 12.44-4.898 18.996-6.053 6.538-1.152 12.486-.09 19.102-.633 4.452-.366 9.768-1.012 14.101-2.093 4.104-1.024 8.107-2.403 11.92-4.236 2.853-1.372 8.526-4.545 8.526-4.545z"/><path fill="#a7a1f9" fill-rule="evenodd" d="M1.772-111.486s2.237 8.288 2.363 12.54c.087 2.947-.458 5.902-1.123 8.774-1.088 4.7-2.996 9.173-4.659 13.7-1.568 4.27-3.86 8.293-5.014 12.693-.756 2.882-.865 5.896-1.218 8.855-.249 2.077-.675 4.152-.635 6.244.067 3.537.145 7.232 1.476 10.51 1.178 2.902 3.32 5.38 5.547 7.583 2.14 2.118 4.044 4.43 6.567 6.076 2.737 1.785 6.05 3.367 9.217 4.178 3.795.972 7.85.026 11.746-.392 2.764-.298 5.6-.53 8.205-1.5 3.087-1.152 5.94-2.964 8.513-5.023 3.572-2.858 6.715-6.295 9.393-10.003 1.862-2.578 4-5.253 4.55-8.386.303-1.731-.444-3.49-.787-5.215-.443-2.23-1.087-4.415-1.639-6.62-.674-2.694-.31-5.906-2.044-8.075-1.328-1.663-3.606-2.467-5.691-2.894-2.074-.425-4.48-.594-6.337.422-2.03 1.11-3.582 3.334-4.126 5.583-.364 1.508.02 3.224.752 4.591 1.129 2.11 3.513 3.25 5.25 4.896 1.43 1.354 3.448 2.302 4.255 4.099.756 1.68.88 3.798.227 5.52-1.248 3.292-3.613 6.175-6.165 8.6-1.751 1.665-4.423 2.778-6.629 3.767-2.394 1.074-5.183 1.024-7.807 1.003-2.626-.02-5.427.005-7.798-1.126-2.995-1.428-5.382-4.057-7.305-6.76-2.316-3.256-3.87-7.096-4.807-10.98-.984-4.083-.818-8.377-.762-12.577.05-3.712.527-7.409.97-11.094.543-4.515 1.701-8.951 2.067-13.483.243-3.005.363-6.042.081-9.043-.314-3.36-1.19-6.649-1.97-9.933-.603-2.54.247-6.383-2.09-7.547-.826-.41-2.573 1.017-2.573 1.017z"/><path fill="#fff" fill-rule="evenodd" d="M10.69-118.389c.223-.118 14.537 10.493 17.514 19.751 2.965 9.218 6.542 18.58 10.68 27.334 2.088 4.418 3.883 9.288 7.455 12.621 5.395 5.034 12.48 8.925 19.792 9.915 6.322.856 13.22-.578 18.776-3.713 8.024-4.53 14.603-12.144 18.607-20.443 3.271-6.781 5.92-15.488 4.304-22.842-1.603-7.292-7.182-13.63-13.218-18.026-3.68-2.68-8.604-4.377-13.119-3.794-2.665.343-5.207 2.062-6.921 4.13-1.626 1.962-3.657 4.646-3.585 7.192.075 2.65 2.104 5.551 4.11 7.287 2.73 2.364 7.1 1.11 10.32 2.746 2.56 1.3 5.721 2.836 6.86 5.472 1.509 3.495.278 8.636-1.314 12.094-1.864 4.052-5.484 6.653-9.66 8.22-5.002 1.878-9.946 1.02-14.815-1.182-6.065-2.744-10.463-8.325-14.74-13.425-4.267-5.086-6.322-10.768-10.1-16.226-2.542-3.672-5.76-7.953-8.863-11.165-2.939-3.042-6.134-5.82-9.628-8.205-2.615-1.785-8.2-5.112-8.2-5.112z"/><ellipse cx="-5.347" cy="-131.009" fill="#fff" rx="12.411" ry="12.803"/></g></svg>