<svg xmlns="http://www.w3.org/2000/svg" role="img" viewBox="-15.70 -15.45 400.66 285.41"><title>D&amp;I Working Group logo</title><style>.st0{fill:#1dcad3}</style><style>.st0{fill:#1dcad3}</style><style>.st0{fill:#1dcad3}</style><style>.st0{fill:#1dcad3}</style><style id="style1">.st0{fill:#1dcad3}</style><style id="style2">.st0{fill:#1dcad3}</style><style id="style3">.st0{fill:#1dcad3}</style><style id="style4">.st0{fill:#1dcad3}</style><style id="style275" type="text/css">.st0{fill:#1dcad3}</style><g id="text444" transform="translate(-8.38 53.042)"><path id="path1023" d="M25 186.71072q0 3.96485-1.73828 7.1875-1.71875 3.22266-4.58985 5-1.99218 1.23047-4.45312 1.77735-2.4414.54687-6.44531.54687H.42969v-29.08203H7.6953q4.25781 0 6.75781.625 2.51954.60547 4.25782 1.67969 2.96875 1.85547 4.6289 4.94141Q25 182.47244 25 186.71072zm-4.04297-.0586q0-3.41797-1.1914-5.76172-1.19141-2.34375-3.5547-3.6914-1.71874-.97657-3.65234-1.34766-1.93359-.39062-4.6289-.39062H4.29688v22.44141h3.6328q2.79298 0 4.86329-.41016 2.08984-.41015 3.82812-1.52343 2.16797-1.38672 3.2422-3.65235 1.09374-2.26562 1.09374-5.66406z"/><path id="path1025" d="M42.8125 177.96072q0-1.85546-1.11328-2.91015-1.09375-1.07422-2.8125-1.07422-1.79688 0-2.92969 1.21094-1.13281 1.1914-1.13281 2.92968 0 1.46485.76172 2.59766.78125 1.13281 3.33984 2.67578 1.91406-.68359 2.89063-1.99219.99609-1.32812.99609-3.4375zm3.78906 17.10938l-9.33593-9.10156q-.60547.29297-1.21094.78125-.60547.46875-1.21094 1.28906-.54688.76172-.89844 1.83594t-.35156 2.42187q0 2.85156 1.66016 4.60938 1.67968 1.73828 4.74609 1.73828 1.8164 0 3.59375-.87891 1.79688-.89844 3.00781-2.69531zm5.8789-11.60156v1.875q0 1.875-.48827 4.21875-.48828 2.34375-1.66016 4.47265l7.38281 7.1875h-4.80468l-4.47266-4.375q-2.2461 2.77344-4.58984 3.88672-2.34375 1.09375-4.82422 1.09375-4.0625 0-6.75781-2.36328-2.67579-2.38281-2.67579-6.23047 0-1.79687.50782-3.10547.5078-1.30859 1.1914-2.26562.6836-.91797 1.69922-1.71875 1.01563-.82031 2.05078-1.42578-2.14843-1.40625-3.10547-2.83203-.9375-1.42579-.9375-3.59375 0-1.3086.50782-2.48047.52734-1.19141 1.5625-2.16797.97656-.9375 2.53906-1.52344 1.58203-.58594 3.47656-.58594 3.3789 0 5.46875 1.71875 2.08984 1.69922 2.08984 4.31641 0 .85937-.23437 1.95312-.23438 1.07422-.80078 1.9336-.625.95703-1.77734 1.83594-1.15235.8789-2.98829 1.5039l7.2461 7.07031q.27344-.78125.41015-1.71875.13672-.9375.15625-1.95312.03906-1.09375.01953-2.44141v-2.28515z"/><path id="path1027" d="M70.5664 201.22244H59.08204v-2.96875h3.8086v-23.14453h-3.8086v-2.96875h11.48438v2.96875h-3.8086v23.14453h3.8086z"/><path id="path1029" d="M125.05859 172.14041L117.5 201.22244h-4.35547l-6.11328-24.14062-5.97656 24.14062h-4.25781l-7.69532-29.08203h3.96485l6.11328 24.17969 6.01562-24.17969h3.92578l6.07422 24.41406 6.07422-24.41406z"/><path id="path1031" d="M147.10937 190.32401q0 5.33203-2.73437 8.41796-2.73438 3.08594-7.32422 3.08594-4.62891 0-7.36328-3.08594-2.71484-3.08593-2.71484-8.41796 0-5.33204 2.71484-8.41797 2.73437-3.10547 7.36328-3.10547 4.58984 0 7.32422 3.10547 2.73437 3.08593 2.73437 8.41797zm-3.78906 0q0-4.23829-1.66015-6.28907-1.66016-2.07031-4.60938-2.07031-2.98828 0-4.64844 2.07031-1.64062 2.05078-1.64062 6.28907 0 4.10156 1.66015 6.23046 1.66016 2.10938 4.62891 2.10938 2.92969 0 4.58984-2.08984 1.67969-2.10938 1.67969-6.25z"/><path id="path1033" d="M166.40625 183.40994h-.19531q-.82032-.19531-1.60157-.27343-.76171-.0977-1.8164-.0977-1.69922 0-3.28125.76172-1.58203.74219-3.04688 1.93359v15.48828h-3.67187V179.406h3.67187v3.22265q2.1875-1.75781 3.84766-2.48047 1.67969-.74218 3.41797-.74218.95703 0 1.38672.0586.42968.0391 1.28906.17578z"/><path id="path1035" d="M189.66797 201.22244h-4.84375l-8.75-9.55078-2.38281 2.26563v7.28515h-3.67188v-30.39062h3.67188v19.49219l10.60546-10.91797h4.62891l-10.13672 10.07812z"/><path id="path1037" d="M197.48047 175.75369h-4.14063v-3.80859h4.14063zm-.23438 25.46875h-3.67187v-21.8164h3.67187z"/><path id="path1039" d="M222.75391 201.22244h-3.67188v-12.42187q0-1.50391-.17578-2.8125-.17578-1.32813-.64453-2.07031-.48828-.82032-1.40625-1.21094-.91797-.41016-2.38281-.41016-1.50391 0-3.14454.74219-1.64062.74219-3.14453 1.89453v16.28906h-3.67187v-21.8164h3.67187v2.42187q1.71875-1.42578 3.55469-2.22656t3.76953-.80078q3.53516 0 5.39063 2.1289 1.85547 2.12891 1.85547 6.13282z"/><path id="path1041" d="M247.51953 198.74197q0 5.54688-2.51953 8.14454-2.51953 2.59765-7.75391 2.59765-1.73828 0-3.39843-.2539-1.64063-.23438-3.24219-.6836v-3.75h.19531q.89844.35156 2.85156.85938 1.95313.52734 3.90625.52734 1.875 0 3.10547-.44922t1.91406-1.25q.6836-.76172.97657-1.83594.29297-1.07421.29297-2.40234v-1.99219q-1.66016 1.32813-3.1836 1.99219-1.5039.64453-3.84765.64453-3.90625 0-6.21094-2.8125-2.28516-2.83203-2.28516-7.96875 0-2.8125.78125-4.84375.80078-2.05078 2.16797-3.53515 1.26953-1.38672 3.08594-2.14844 1.8164-.78125 3.61328-.78125 1.89453 0 3.16406.39062 1.28906.3711 2.71485 1.15235l.23437-.9375h3.4375zm-3.67187-3.51562v-11.89453q-1.46485-.66406-2.73438-.9375-1.25-.29297-2.5-.29297-3.02734 0-4.76562 2.03125-1.73829 2.03125-1.73829 5.89844 0 3.67187 1.28907 5.5664 1.28906 1.89453 4.27734 1.89453 1.60156 0 3.20313-.60546 1.62109-.625 2.96875-1.66016z"/><path id="path1043" d="M293.35937 199.07401q-2.38281 1.09375-5.21484 1.91406-2.8125.80078-5.44922.80078-3.39844 0-6.23047-.9375-2.83203-.9375-4.82422-2.8125-2.01171-1.89453-3.10546-4.72656-1.09375-2.85157-1.09375-6.66016 0-6.97266 4.0625-10.99609 4.08203-4.04297 11.1914-4.04297 2.48047 0 5.0586.60547 2.59765.58593 5.58593 2.01172v4.58984h-.35156q-.60547-.46875-1.75781-1.23047-1.15235-.76172-2.26563-1.26953-1.34765-.60547-3.0664-.99609-1.69922-.41016-3.86719-.41016-4.88281 0-7.73438 3.14453-2.83203 3.125-2.83203 8.47656 0 5.64453 2.96875 8.78907 2.96875 3.125 8.08594 3.125 1.875 0 3.73047-.3711 1.875-.37109 3.28125-.95703v-7.12891h-7.79297v-3.39843h11.62109z"/><path id="path1045" d="M313.4375 183.40994h-.19531q-.82032-.19531-1.60157-.27343-.76171-.0977-1.8164-.0977-1.69922 0-3.28125.76172-1.58203.74219-3.04688 1.93359v15.48828h-3.67187V179.406h3.67187v3.22265q2.1875-1.75781 3.84766-2.48047 1.67969-.74218 3.41797-.74218.95703 0 1.38672.0586.42968.0391 1.28906.17578z"/><path id="path1047" d="M335.48828 190.32401q0 5.33203-2.73437 8.41796-2.73438 3.08594-7.32422 3.08594-4.62891 0-7.36328-3.08594-2.71485-3.08593-2.71485-8.41796 0-5.33204 2.71485-8.41797 2.73437-3.10547 7.36328-3.10547 4.58984 0 7.32422 3.10547 2.73437 3.08593 2.73437 8.41797zm-3.78906 0q0-4.23829-1.66016-6.28907-1.66015-2.07031-4.60937-2.07031-2.98828 0-4.64844 2.07031-1.64063 2.05078-1.64063 6.28907 0 4.10156 1.66016 6.23046 1.66016 2.10938 4.62891 2.10938 2.92968 0 4.58984-2.08984 1.67969-2.10938 1.67969-6.25z"/><path id="path1049" d="M359.25781 201.22244h-3.67187v-2.42187q-1.85547 1.46484-3.55469 2.24609-1.69922.78125-3.75.78125-3.4375 0-5.35156-2.08984-1.91407-2.10938-1.91407-6.17188v-14.16015h3.67188v12.42187q0 1.66016.15625 2.85156.15625 1.17188.66406 2.01172.52735.85938 1.36719 1.25.83984.39063 2.44141.39063 1.42578 0 3.10546-.74219 1.69922-.74219 3.16407-1.89453v-16.28906h3.67187z"/><path id="path1051" d="M385.68359 190.05057q0 2.65625-.76172 4.86328-.76171 2.1875-2.14843 3.71094-1.28907 1.44531-3.04688 2.24609-1.73828.78125-3.6914.78125-1.69922 0-3.08594-.37109-1.36719-.3711-2.79297-1.15235v9.14063h-3.67188v-29.86328h3.67188v2.28515q1.46484-1.23047 3.28125-2.05078 1.83594-.83984 3.90625-.83984 3.94531 0 6.13281 2.98828 2.20703 2.96875 2.20703 8.26172zm-3.78906.0977q0-3.94531-1.34766-5.89843-1.34765-1.95313-4.14062-1.95313-1.58203 0-3.18359.6836-1.60157.68359-3.06641 1.79687v12.36328q1.5625.70313 2.67578.95703 1.13281.25391 2.55859.25391 3.06641 0 4.78516-2.07031 1.71875-2.07032 1.71875-6.13282z"/></g><g id="g2" transform="translate(-3.97 -7.7) scale(1.47246)"><path id="polygon1" fill="#ba9d5c" d="M13.2 0L0 37.2h1.7L14.9 0z" class="st0"/><path id="polygon2" fill="#ba9d5c" d="M25.8 1.8h-1.6l.4 5.7-4.5-3-.8 1.4 5 2.4-5 2.4.8 1.4 4.5-3-.4 5.8h1.6l-.4-5.8 4.5 3 .8-1.4-5-2.4 5-2.4-.8-1.4-4.5 3z" class="st0"/><path id="path2" fill="#ba9d5c" d="M50 23.6h14.2l3.1 8h1.8L57.4 1.5h-.5L45.2 31.6H47zm6.3-16.2c.4-1 .8-2.5.8-2.7 0 .1.4 1.7.8 2.7L63.6 22h-13z" class="st0"/><path id="path3" fill="#ba9d5c" d="M86.4 31.9c5 0 9.2-2.1 11.8-5.9l-1.3-1c-2.3 3.4-6 5.3-10.5 5.3-7.4 0-13-5.8-13-13.6S79 3.1 86.4 3.1c4.6 0 8 1.9 10.1 5l1.3-1c-2.4-3.6-6.4-5.6-11.4-5.6-8.1 0-14.7 6.2-14.7 15.2s6.5 15.2 14.7 15.2z" class="st0"/><path id="path4" fill="#ba9d5c" d="M106.4 23.6h14.2l3.1 8h1.8L113.8 1.5h-.5l-11.6 30.1h1.7zm6.3-16.2c.4-1 .8-2.5.8-2.7 0 .1.4 1.7.8 2.7L120 22h-13z" class="st0"/><path id="path5" fill="#ba9d5c" d="M153.6 16.7c0-9.1-5.8-14.9-15.7-14.9h-6.1v29.7h6.1c9.9.1 15.7-5.7 15.7-14.8zM133.4 30V3.5h4.2c9.5 0 14.1 5.5 14.1 13.3 0 7.8-4.6 13.2-14.1 13.2z" class="st0"/><path id="polygon5" fill="#ba9d5c" d="M160.3 1.8v29.8h17.4V30h-15.6V17.4h13.5v-1.6h-13.5V3.4h15V1.8z" class="st0"/><path id="path6" fill="#ba9d5c" d="M186.2 8c0-1-.1-2.6-.1-2.6s.8 1.5 1.6 2.4l10 13.7h.5l10.1-13.7c.8-1 1.6-2.4 1.6-2.4s-.1 1.5-.1 2.6v23.6h1.7V1.5h-.5l-13 17.7-13-17.7h-.4v30.1h1.7V8z" class="st0"/><path id="path7" fill="#ba9d5c" d="M227.6 31.6h1.8V20.7l10-18.9h-1.8l-8.3 15.6c-.4.7-.8 1.7-.8 1.8 0-.2-.3-1.1-.7-1.8l-8.3-15.6h-1.9l10 18.8z" class="st0"/><path id="path8" fill="#ba9d5c" d="M18.5 76.8c0-4.1-2.2-6.6-6.9-8.8l-2.7-1.3c-3.6-1.7-5-3.1-5-6.1 0-3 2-5 5.4-5 3.2 0 4.8 1.7 6 3.6l1.4-.9C15.3 56 13.2 54 9.3 54c-3.9 0-7.1 2.5-7.1 6.6 0 3.8 2 5.7 6 7.7l2.7 1.3c4 1.9 5.9 3.8 5.9 7.3 0 3.8-3.1 6-6.9 6-4.6 0-6.8-2.5-8.1-5.1l-1.5.7c1.4 3 4.2 5.9 9.7 5.9 4.9 0 8.5-3 8.5-7.6z" class="st0"/><path id="path9" fill="#ba9d5c" d="M37.8 84.4c8.1 0 14.7-6.2 14.7-15.2S45.9 54 37.8 54s-14.7 6.2-14.7 15.2 6.6 15.2 14.7 15.2zm0-28.8c7.4 0 13 5.8 13 13.6s-5.5 13.6-13 13.6c-7.4 0-13-5.8-13-13.6s5.6-13.6 13-13.6z" class="st0"/><path id="polygon9" fill="#ba9d5c" d="M74.7 70.6V69H61.1V55.9h15v-1.6H59.3v29.8h1.8V70.6z" class="st0"/><path id="polygon10" fill="#ba9d5c" d="M91.2 84.1V55.9h9.1v-1.6h-20v1.6h9.2v28.2z" class="st0"/><path id="path10" fill="#ba9d5c" d="M132 78.2c-.3.8-.5 2-.5 2.1 0-.2-.3-1.4-.5-2.1L122.7 54h-.5L114 78.2c-.3.8-.6 2-.6 2.1 0-.2-.3-1.4-.5-2.1l-7-23.9H104l9 30.1h.5l8.4-24.7c.3-.8.5-2 .5-2.1 0 .3.2 1.4.5 2.1l8.4 24.7h.5l9-30.1H139z" class="st0"/><path id="path11" fill="#ba9d5c" d="M146.8 76.1H161l3.1 8h1.8L154.2 54h-.5L142 84.1h1.7zm6.3-16.2c.4-1 .8-2.5.8-2.7 0 .1.4 1.7.8 2.7l5.6 14.6h-13z" class="st0" opacity=".922"/><path id="path12" fill="#ba9d5c" d="M189.8 63.1c0-5.8-3.9-8.7-10-8.7h-7.7v29.7h1.7V71.8h6c.7 0 1.3 0 1.9-.1l7 12.4h2.1l-7.2-12.7c3.9-1.2 6.2-4 6.2-8.3zm-10.2 7.1h-5.8V55.9h5.8c5.5 0 8.4 2.4 8.4 7.2 0 4.6-2.9 7.1-8.4 7.1z" class="st0"/><path id="polygon12" fill="#ba9d5c" d="M197.4 54.3v29.8h17.4v-1.6h-15.6V69.9h13.5v-1.6h-13.5V55.9h15v-1.6z" class="st0"/><path id="polygon13" fill="#ba9d5c" d="M1.9 136.5v-13.4h13.6v-1.6H1.9v-13.1h15v-1.6H.1v29.7z" class="st0"/><path id="path13" fill="#ba9d5c" d="M35.8 106.5c-8.1 0-14.7 6.2-14.7 15.2 0 9.1 6.6 15.2 14.7 15.2s14.7-6.2 14.7-15.2c.1-9.1-6.5-15.2-14.7-15.2zm0 28.8c-7.4 0-13-5.8-13-13.6s5.5-13.6 13-13.6 13 5.8 13 13.6-5.6 13.6-13 13.6z" class="st0"/><path id="path14" fill="#ba9d5c" d="M74.7 126.5c0 5.7-3.3 8.8-8 8.8s-8-3.1-8-8.8v-19.7H57v19.9c0 6.7 4.1 10.2 9.7 10.2 5.5 0 9.7-3.5 9.7-10.2v-19.9h-1.7z" class="st0"/><path id="path15" fill="#ba9d5c" d="M105 130.9c0 .9.1 2.2.1 2.2s-.8-1.2-1.3-2l-18.4-24.7h-.5v30.1h1.6v-24.1c0-.9-.1-2.2-.1-2.2s.8 1.2 1.3 2l18.4 24.7h.5v-30.1H105z" class="st0"/><path id="path16" fill="#ba9d5c" d="M121.5 106.8h-6.1v29.7h6.1c10 0 15.7-5.7 15.7-14.9s-5.8-14.8-15.7-14.8zm-.2 28.1h-4.2v-26.5h4.2c9.5 0 14.1 5.5 14.1 13.3 0 7.8-4.6 13.2-14.1 13.2z" class="st0"/><path id="path17" fill="#ba9d5c" d="M151.4 106.5l-11.6 30.1h1.7l3-8h14.2l3.1 8h1.8L152 106.5zm6.8 20.5h-13l5.6-14.7c.4-1 .8-2.5.8-2.7 0 .1.4 1.7.8 2.7z" class="st0"/><path id="polygon17" fill="#ba9d5c" d="M173.1 108.4v28.1h1.7v-28.1h9.2v-1.6h-20.1v1.6z" class="st0"/><path id="rect17" fill="#ba9d5c" d="M189.9 106.8h1.7v29.7h-1.7z" class="st0"/><path id="path18" fill="#ba9d5c" d="M213.3 106.5c-8.1 0-14.7 6.2-14.7 15.2 0 9.1 6.6 15.2 14.7 15.2s14.7-6.2 14.7-15.2c0-9.1-6.6-15.2-14.7-15.2zm0 28.8c-7.4 0-13-5.8-13-13.6s5.5-13.6 13-13.6c7.4 0 13 5.8 13 13.6s-5.6 13.6-13 13.6z" class="st0"/><path id="path19" fill="#ba9d5c" d="M254.9 106.8v24.1c0 .9.1 2.2.1 2.2s-.8-1.2-1.3-2l-18.4-24.7h-.5v30.1h1.6v-24.1c0-.9-.1-2.2-.1-2.2s.8 1.2 1.3 2l18.4 24.7h.5v-30.1z" class="st0"/></g></svg>