<svg xmlns="http://www.w3.org/2000/svg" role="img" xmlns:xlink="http://www.w3.org/1999/xlink" viewBox="-1.23 -1.98 323.96 315.96"><title>Digital Production Example Library (DPEL) logo</title><defs><symbol overflow="visible"><path d="M2.98438 10.60938V-42.3125h30v52.92188zm3.375-3.34375h23.29687V-38.9375H6.35937zm0 0"/></symbol><symbol id="a" overflow="visible"><path d="M11.8125-38.875v34.01563h7.14063c6.03906 0 10.46093-1.36329 13.26562-4.09375 2.80078-2.73829 4.20313-7.0625 4.20313-12.96875 0-5.85157-1.40235-10.14063-4.20313-12.85938-2.80469-2.72656-7.22656-4.09375-13.26563-4.09375zm-5.92188-4.85938h12.15625c8.47657 0 14.69532 1.76172 18.65626 5.28126 3.96874 3.52343 5.95312 9.03124 5.95312 16.53124 0 7.54297-1.9961 13.08594-5.98438 16.625C32.69141-1.76563 26.48438 0 18.04688 0H5.89063zm0 0"/></symbol><symbol id="b" overflow="visible"><path d="M5.65625-32.8125h5.39063V0H5.65625zm0-12.78125h5.39063v6.82813H5.65625zm0 0"/></symbol><symbol id="c" overflow="visible"><path d="M27.25-16.78125c0-3.90625-.8086-6.92969-2.42188-9.07813-1.61718-2.15624-3.875-3.23437-6.78124-3.23437-2.88672 0-5.13672 1.07813-6.75 3.23438C9.67967-23.71094 8.875-20.6875 8.875-16.78126c0 3.88672.80469 6.90234 2.42188 9.04688 1.61328 2.14843 3.86328 3.21875 6.75 3.21875 2.90624 0 5.16406-1.07032 6.78124-3.21875C26.44141-9.87891 27.25-12.89454 27.25-16.78126zm5.39063 12.70313c0 5.59375-1.2422 9.75-3.71876 12.46875-2.48046 2.72656-6.28124 4.09375-11.40624 4.09375-1.89844 0-3.6836-.14844-5.35938-.4375-1.67969-.28125-3.3086-.71485-4.89063-1.29688V5.51562C8.84766 6.3672 10.41016 7 11.95313 7.40625c1.53907.41406 3.11329.625 4.71875.625 3.53126 0 6.17579-.92969 7.9375-2.78125C26.3672 3.40625 27.25.61719 27.25-3.10938v-2.65625c-1.11719 1.9297-2.54297 3.3711-4.28125 4.32813C21.22656-.47656 19.14844 0 16.73437 0 12.70313 0 9.45704-1.53125 7-4.59375c-2.46094-3.07031-3.6875-7.13281-3.6875-12.1875C3.3125-21.86328 4.53906-25.9375 7-29c2.45703-3.07031 5.70313-4.60938 9.73438-4.60938 2.41406 0 4.49218.48047 6.23437 1.4375 1.73828.96094 3.16406 2.40626 4.28125 4.34376v-4.98438h5.39063zm0 0"/></symbol><symbol id="d" overflow="visible"><path d="M10.98438-42.125v9.3125h11.10937v4.1875H10.98437v17.8125c0 2.67969.36329 4.39844 1.09375 5.15625.73829.76172 2.22657 1.14063 4.46875 1.14063h5.54688V0h-5.54688C12.39063 0 9.51954-.77344 7.9375-2.32813c-1.58594-1.55078-2.375-4.3789-2.375-8.48437V-28.625H1.60937v-4.1875H5.5625v-9.3125zm0 0"/></symbol><symbol id="e" overflow="visible"><path d="M20.5625-16.5c-4.35547 0-7.3711.5-9.04688 1.5C9.83595-14 9-12.30078 9-9.90625c0 1.91797.6289 3.4375 1.89063 4.5625 1.2578 1.125 2.97265 1.6875 5.14062 1.6875 2.98828 0 5.38281-1.05469 7.1875-3.17188 1.80078-2.125 2.70313-4.9453 2.70313-8.46875V-16.5zm10.75-2.21875V0h-5.39063v-4.98438c-1.23046 1.9922-2.76171 3.46094-4.59374 4.40625C19.49218.3672 17.25.84376 14.59375.84376c-3.36719 0-6.03906-.9414-8.01563-2.82813-1.98046-1.8828-2.96875-4.40625-2.96875-7.5625 0-3.6953 1.23438-6.48437 3.70313-8.35937s6.15625-2.8125 11.0625-2.8125h7.54688v-.51563c0-2.48828-.82032-4.41015-2.45313-5.76562-1.625-1.35156-3.91406-2.03125-6.85938-2.03125-1.875 0-3.70312.22656-5.48437.67188-1.77344.44921-3.48047 1.12109-5.125 2.01562v-4.96875c1.97656-.76953 3.89453-1.34375 5.75-1.71875 1.85156-.38281 3.66016-.57813 5.42188-.57813 4.73828 0 8.28124 1.23438 10.625 3.70313 2.34374 2.46094 3.51562 6.1875 3.51562 11.1875zm0 0"/></symbol><symbol id="f" overflow="visible"><path d="M5.65625-45.59375h5.39063V0H5.65625zm0 0"/></symbol><symbol id="g" overflow="visible"><path d="M11.8125-38.875v16.4375H19.25c2.75 0 4.875-.71094 6.375-2.14063 1.50781-1.42578 2.26563-3.45703 2.26563-6.09374 0-2.61329-.75782-4.63282-2.26563-6.0625C24.125-38.16016 22-38.875 19.25-38.875zm-5.92188-4.85938H19.25c4.90625 0 8.60938 1.10938 11.10938 3.32813 2.5078 2.21094 3.76562 5.45313 3.76562 9.73438 0 4.3125-1.25781 7.57421-3.76563 9.78124-2.5 2.21094-6.20312 3.3125-11.10937 3.3125h-7.4375V0H5.89062zm0 0"/></symbol><symbol id="h" overflow="visible"><path d="M24.67188-27.78125c-.60547-.34375-1.26563-.59766-1.98438-.76563-.71094-.16406-1.4961-.25-2.35938-.25-3.04296 0-5.3828.9922-7.01562 2.96876C11.6875-23.84766 10.875-21 10.875-17.28126V0H5.45312v-32.8125H10.875v5.09375c1.125-1.98828 2.59375-3.46875 4.40625-4.4375 1.82031-.96875 4.03516-1.45313 6.64063-1.45313.36328 0 .76953.02735 1.21874.07813.44532.05469.94532.125 1.5.21875zm0 0"/></symbol><symbol id="i" overflow="visible"><path d="M18.375-29.03125c-2.89844 0-5.1836 1.13281-6.85938 3.39063C9.83595-23.39063 9-20.30079 9-16.375c0 3.92969.83203 7.02344 2.5 9.28125 1.66406 2.25 3.95703 3.375 6.875 3.375 2.86328 0 5.13281-1.1289 6.8125-3.39063 1.6875-2.26953 2.53125-5.35937 2.53125-9.26562 0-3.88281-.84375-6.96094-2.53125-9.23438-1.67969-2.28124-3.94922-3.42187-6.8125-3.42187zm0-4.57813c4.6875 0 8.36328 1.52735 11.03125 4.57813 2.67578 3.04297 4.01563 7.26172 4.01563 12.65625 0 5.36719-1.33985 9.57813-4.01563 12.64063C26.73828-.6797 23.0625.84375 18.375.84375c-4.71094 0-8.39844-1.52344-11.0625-4.57813-2.66797-3.0625-4-7.27343-4-12.64062 0-5.39453 1.33203-9.61328 4-12.65625 2.66406-3.05078 6.35156-4.57813 11.0625-4.57813zm0 0"/></symbol><symbol id="j" overflow="visible"><path d="M27.25-27.82813v-17.76562h5.39063V0H27.25v-4.92188c-1.13672 1.94922-2.57031 3.39844-4.29688 4.34375C21.22266.3672 19.14844.84376 16.73438.84376c-3.96876 0-7.19922-1.57813-9.6875-4.73438C4.55467-7.05469 3.3125-11.21875 3.3125-16.375s1.24219-9.3164 3.73438-12.48438c2.48828-3.16406 5.71875-4.75 9.6875-4.75 2.41406 0 4.48828.47657 6.21874 1.42188 1.72657.94922 3.16016 2.40234 4.29688 4.35938zM8.875-16.375c0 3.96094.8125 7.07031 2.4375 9.32813 1.63281 2.26171 3.8789 3.39062 6.73438 3.39062 2.85156 0 5.09765-1.1289 6.73437-3.39063C26.42578-9.30467 27.25-12.41406 27.25-16.375c0-3.96875-.82422-7.07813-2.46875-9.32813-1.63672-2.2578-3.88281-3.39062-6.73438-3.39062-2.85546 0-5.10156 1.13281-6.73437 3.39063-1.625 2.25-2.4375 5.35937-2.4375 9.32812zm0 0"/></symbol><symbol id="k" overflow="visible"><path d="M5.09375-12.95313V-32.8125h5.39063v19.65625c0 3.10547.60156 5.4336 1.8125 6.98438C13.51563-4.6172 15.33202-3.84375 17.75-3.84375c2.91406 0 5.21875-.92578 6.90625-2.78125 1.6875-1.85156 2.53125-4.3789 2.53125-7.57813V-32.8125h5.39063V0H27.1875v-5.04688c-1.3125 2-2.83594 3.48438-4.5625 4.45313-1.71875.95703-3.72656 1.4375-6.01563 1.4375-3.77343 0-6.63671-1.17188-8.59374-3.51563C6.0664-5.01563 5.09375-8.4414 5.09375-12.95313zm13.5625-20.65624zm0 0"/></symbol><symbol id="l" overflow="visible"><path d="M29.26563-31.54688v5.03126c-1.52344-.84376-3.04688-1.47266-4.57813-1.89063-1.53125-.41406-3.07813-.625-4.64063-.625-3.5 0-6.21874 1.10938-8.15624 3.32813C9.96092-23.4922 9-20.38283 9-16.375c0 4 .96094 7.10938 2.89063 9.32813 1.9375 2.21875 4.65625 3.32812 8.15625 3.32812 1.5625 0 3.10937-.20703 4.64062-.625 1.53125-.42578 3.05469-1.05469 4.57813-1.89063v4.96875c-1.5.71094-3.0586 1.23438-4.67188 1.57813-1.61719.35156-3.32813.53125-5.14063.53125-4.9375 0-8.86718-1.55078-11.78124-4.65625C4.76563-6.91406 3.3125-11.10156 3.3125-16.375c0-5.35156 1.46875-9.5625 4.40625-12.625 2.9375-3.07031 6.96875-4.60938 12.09375-4.60938 1.65625 0 3.27344.17188 4.85938.51563 1.58203.34375 3.11328.85938 4.59374 1.54688zm0 0"/></symbol><symbol id="m" overflow="visible"><path d="M32.9375-19.8125V0h-5.39063v-19.625c0-3.10156-.60937-5.42578-1.82812-6.96875-1.21094-1.55078-3.02344-2.32813-5.4375-2.32813-2.91797 0-5.21484.9336-6.89063 2.79688-1.67968 1.85547-2.51562 4.38281-2.51562 7.57813V0H5.45312v-32.8125H10.875v5.09375c1.28125-1.96875 2.79688-3.4414 4.54688-4.42188 1.75-.97656 3.76562-1.46874 6.04687-1.46874 3.76953 0 6.625 1.16796 8.5625 3.5 1.9375 2.33593 2.90625 5.76562 2.90625 10.29687zm0 0"/></symbol><symbol id="n" overflow="visible"><path d="M5.89063-43.73438h27.65624v4.96876H11.8125v12.95312h20.82813v4.98438H11.8125v15.84374h22.26563V0H5.89063zm0 0"/></symbol><symbol id="o" overflow="visible"><path d="M32.9375-32.8125l-11.875 15.96875L33.54688 0H27.1875l-9.54688-12.89063L8.09375 0H1.73437l12.73438-17.17188L2.8125-32.8125h6.35938L17.875-21.125l8.70313-11.6875zm0 0"/></symbol><symbol id="p" overflow="visible"><path d="M31.20313-26.51563c1.34374-2.41406 2.95312-4.20312 4.82812-5.35937s4.08203-1.73438 6.625-1.73438c3.41406 0 6.05078 1.19922 7.90625 3.59376 1.85156 2.39843 2.78125 5.79687 2.78125 10.20312V0H47.9375v-19.625c0-3.14453-.5586-5.47656-1.67188-7-1.11718-1.53125-2.8203-2.29688-5.10937-2.29688-2.79297 0-5 .9336-6.625 2.79688-1.61719 1.85547-2.42188 4.38281-2.42188 7.57813V0H26.6875v-19.625c0-3.16406-.5586-5.5039-1.67188-7.01563-1.11718-1.51953-2.83593-2.28124-5.15624-2.28124-2.75 0-4.9375.93359-6.5625 2.79687-1.6172 1.86719-2.42188 4.39063-2.42188 7.57813V0H5.45312v-32.8125H10.875v5.09375c1.22656-2.00781 2.70313-3.49219 4.42188-4.45313 1.71875-.95703 3.7578-1.4375 6.125-1.4375 2.375 0 4.39453.60938 6.0625 1.82813 1.67578 1.21094 2.91406 2.96484 3.71874 5.26563zm0 0"/></symbol><symbol id="q" overflow="visible"><path d="M10.875-4.92188v17.40626H5.45312V-32.8125H10.875v4.98438c1.125-1.95704 2.55078-3.41016 4.28125-4.35938 1.72656-.94531 3.79688-1.42188 6.20313-1.42188 3.97656 0 7.21093 1.58594 9.70312 4.75 2.5 3.16797 3.75 7.32813 3.75 12.48438s-1.25 9.32031-3.75 12.48438C28.57031-.73438 25.33594.84375 21.35937.84375c-2.40624 0-4.47656-.47656-6.20312-1.42188C13.42578-1.52343 12-2.97266 10.875-4.92188zM29.20313-16.375c0-3.96875-.82032-7.07813-2.45313-9.32813-1.625-2.2578-3.85938-3.39062-6.70313-3.39062-2.85546 0-5.10156 1.13281-6.73437 3.39063-1.625 2.25-2.4375 5.35937-2.4375 9.32812 0 3.96094.8125 7.07031 2.4375 9.32813 1.63281 2.26171 3.8789 3.39062 6.73438 3.39062 2.84374 0 5.07812-1.1289 6.70312-3.39063 1.63281-2.2578 2.45313-5.36718 2.45313-9.32812zm0 0"/></symbol><symbol id="r" overflow="visible"><path d="M33.71875-17.75v2.625H8.9375c.22656 3.71875 1.34375 6.55469 3.34375 8.5 2.00781 1.9375 4.80078 2.90625 8.375 2.90625 2.07031 0 4.07813-.2539 6.01563-.76563 1.9453-.5078 3.8789-1.26953 5.79687-2.28125v5.09375c-1.9375.82422-3.92188 1.44922-5.95313 1.875-2.03124.42579-4.09374.64063-6.1875.64063-5.23046 0-9.375-1.51953-12.4375-4.5625C4.83595-6.76953 3.3125-10.89063 3.3125-16.07813c0-5.375 1.44531-9.64062 4.34375-12.79687 2.90625-3.15625 6.8164-4.73438 11.73438-4.73438 4.41406 0 7.90624 1.42188 10.46874 4.26563C32.4297-26.5 33.71876-22.63281 33.71876-17.75zm-5.39063-1.59375c-.04296-2.94531-.87109-5.29688-2.48437-7.04688-1.60547-1.7578-3.73438-2.64062-6.39063-2.64062-3.01171 0-5.42187.85156-7.23437 2.54688-1.80469 1.69921-2.83984 4.08984-3.10938 7.17187zm0 0"/></symbol><symbol id="s" overflow="visible"><path d="M5.89063-43.73438h5.92187v38.75h21.29688V0H5.89062zm0 0"/></symbol><symbol id="t" overflow="visible"><path d="M29.20313-16.375c0-3.96875-.82032-7.07813-2.45313-9.32813-1.625-2.2578-3.85938-3.39062-6.70313-3.39062-2.85546 0-5.10156 1.13281-6.73437 3.39063-1.625 2.25-2.4375 5.35937-2.4375 9.32812 0 3.96094.8125 7.07031 2.4375 9.32813 1.63281 2.26171 3.8789 3.39062 6.73438 3.39062 2.84374 0 5.07812-1.1289 6.70312-3.39063 1.63281-2.2578 2.45313-5.36718 2.45313-9.32812zM10.875-27.82813c1.125-1.95703 2.55078-3.41015 4.28125-4.35937 1.72656-.94531 3.79688-1.42188 6.20313-1.42188 3.97656 0 7.21093 1.58594 9.70312 4.75 2.5 3.16797 3.75 7.32813 3.75 12.48438s-1.25 9.32031-3.75 12.48438C28.57031-.73438 25.33594.84375 21.35937.84375c-2.40624 0-4.47656-.47656-6.20312-1.42188C13.42578-1.52343 12-2.97266 10.875-4.92188V0H5.45312v-45.59375H10.875zm0 0"/></symbol><symbol id="u" overflow="visible"><path d="M19.3125 3.04688C17.78125 6.95313 16.28906 9.5 14.84375 10.6875c-1.4375 1.19531-3.3711 1.79688-5.79688 1.79688H4.75V7.96875h3.15625c1.48828 0 2.64063-.35547 3.45313-1.0625.8203-.69922 1.73437-2.35547 2.73437-4.96875l.96875-2.46875L1.78125-32.8125H7.5L17.75-7.15625 28.01563-32.8125h5.70312zm0 0"/></symbol><symbol id="v" overflow="visible"><path d="M18.60938-45.53125c-2.625 4.49219-4.57422 8.9336-5.84376 13.32813-1.26171 4.39843-1.89062 8.85156-1.89062 13.35937 0 4.51172.63281 8.98047 1.90625 13.40625 1.28125 4.42969 3.22266 8.875 5.82813 13.34375h-4.6875C10.98438 3.32031 8.78515-1.1875 7.32813-5.625c-1.44922-4.4375-2.17188-8.84375-2.17188-13.21875 0-4.35156.72266-8.73438 2.17188-13.14063 1.4453-4.41406 3.64453-8.92968 6.59375-13.54687zm0 0"/></symbol><symbol id="w" overflow="visible"><path d="M4.8125-45.53125H9.5c2.92578 4.61719 5.11328 9.13281 6.5625 13.54688 1.45703 4.40624 2.1875 8.78906 2.1875 13.14062 0 4.375-.73047 8.78125-2.1875 13.21875C14.61328-1.1875 12.42578 3.32031 9.5 7.90625H4.8125C7.40625 3.4375 9.34375-1.00781 10.625-5.4375c1.28125-4.42578 1.92188-8.89453 1.92188-13.40625 0-4.50781-.64063-8.96094-1.92188-13.35938-1.28125-4.39453-3.21875-8.83593-5.8125-13.32812zm0 0"/></symbol></defs><use y="50" xlink:href="#a"/><use x="46.201" y="50" xlink:href="#b"/><use x="62.871" y="50" xlink:href="#c"/><use x="100.957" y="50" xlink:href="#b"/><use x="117.627" y="50" xlink:href="#d"/><use x="141.152" y="50" xlink:href="#e"/><use x="177.92" y="50" xlink:href="#f"/><g><use y="120" xlink:href="#g"/><use x="36.182" y="120" xlink:href="#h"/><use x="60.85" y="120" xlink:href="#i"/><use x="97.559" y="120" xlink:href="#j"/><use x="135.645" y="120" xlink:href="#k"/><use x="173.672" y="120" xlink:href="#l"/><use x="206.66" y="120" xlink:href="#d"/><use x="230.186" y="120" xlink:href="#b"/><use x="246.855" y="120" xlink:href="#i"/><use x="283.564" y="120" xlink:href="#m"/></g><g><use y="180" xlink:href="#n"/><use x="37.91" y="180" xlink:href="#o"/><use x="73.418" y="180" xlink:href="#e"/><use x="110.186" y="180" xlink:href="#p"/><use x="168.633" y="180" xlink:href="#q"/><use x="206.719" y="180" xlink:href="#f"/><use x="223.389" y="180" xlink:href="#r"/></g><g><use y="240" xlink:href="#s"/><use x="33.428" y="240" xlink:href="#b"/><use x="50.098" y="240" xlink:href="#t"/><use x="88.184" y="240" xlink:href="#h"/><use x="112.852" y="240" xlink:href="#e"/><use x="149.619" y="240" xlink:href="#h"/><use x="174.287" y="240" xlink:href="#u"/></g><g><use y="300" xlink:href="#v"/><use x="23.408" y="300" xlink:href="#a"/><use x="69.609" y="300" xlink:href="#g"/><use x="105.791" y="300" xlink:href="#n"/><use x="143.701" y="300" xlink:href="#s"/><use x="177.129" y="300" xlink:href="#w"/></g></svg>