<svg xmlns="http://www.w3.org/2000/svg" role="img" viewBox="-6.44 -6.44 334.88 100.38"><title>DJV Imaging logo</title><path stroke-linecap="round" stroke-linejoin="round" stroke-width="3.219" d="M166.106 11.264h31.652c17.648 0 32.412 13.986 32.707 31.632.301 18.025-14.22 32.732-32.177 32.732h-32.182" fill="none" stroke="#000"/><path fill="none" stroke-linecap="round" stroke-linejoin="round" stroke-width="3.219" d="M256.215 11.264l26.426 60.573c2.372 4.744 9.141 4.744 11.513 0l26.425-60.573" stroke="#000"/><path fill="none" stroke-linecap="round" stroke-linejoin="round" stroke-width="3.219" d="M212.903 86.077c17.71-6.07 30.44-22.864 30.44-42.63V1.608" stroke="#000"/><path d="M27.408 40.118a1.797 1.797 0 1 0 3.418 1.111 1.797 1.797 0 0 0-3.418-1.111m3.265 10.05a1.8 1.8 0 0 0 2.114-2.91 1.797 1.797 0 1 0-2.114 2.91m10.568 0a1.799 1.799 0 1 0-2.116-2.91 1.799 1.799 0 0 0 2.116 2.91m3.266-10.05a1.798 1.798 0 1 0-3.421 1.112 1.798 1.798 0 0 0 3.42-1.112m-8.549-6.212a1.798 1.798 0 1 0 0 3.595 1.798 1.798 0 0 0 0-3.595M7.84 30.879a2.74 2.74 0 0 0-1.694 5.21c1.104.36 2.58-.322 4.01-.747a.955.955 0 0 0 .489-1.502c-.908-1.185-1.701-2.602-2.805-2.961m24.473-2.032l.607-7.953c.306-4.01-3.136-7.275-7.13-6.8a17.774 17.774 0 0 0-8.37 3.288 17.79 17.79 0 0 0-5.711 6.944c-1.687 3.65.356 7.933 4.263 8.88l7.752 1.88c4.174 1.014 8.262-1.956 8.589-6.24M15.84 65.925a2.74 2.74 0 0 0 4.432 3.221c.683-.938.49-2.553.528-4.045a.953.953 0 0 0-1.276-.928c-1.408.498-3.003.814-3.684 1.752m5.63-23.902l-7.377-3.036c-3.717-1.53-7.888.736-8.67 4.68a17.783 17.783 0 0 0 .54 8.974 17.786 17.786 0 0 0 4.84 7.58c2.95 2.73 7.656 2.112 9.764-1.31l4.184-6.791c2.253-3.657.692-8.463-3.282-10.097m30.174 27.124a2.74 2.74 0 0 0 4.432-3.222c-.682-.938-2.276-1.254-3.684-1.752a.953.953 0 0 0-1.276.928c.037 1.492-.155 3.107.528 4.046M30.649 56.404l-5.166 6.078c-2.604 3.062-1.74 7.729 1.772 9.69a17.787 17.787 0 0 0 8.702 2.26c3.16 0 6.128-.821 8.704-2.26 3.51-1.961 4.375-6.628 1.77-9.69l-5.164-6.078c-2.783-3.273-7.836-3.273-10.618 0M65.77 36.09a2.74 2.74 0 0 0-1.693-5.211c-1.104.359-1.897 1.776-2.805 2.961a.955.955 0 0 0 .488 1.502c1.43.425 2.906 1.106 4.01.748M47.164 52.119l4.184 6.79c2.108 3.423 6.813 4.042 9.764 1.311a17.807 17.807 0 0 0 4.839-7.58 17.787 17.787 0 0 0 .54-8.976c-.782-3.944-4.952-6.208-8.67-4.678l-7.376 3.034c-3.973 1.635-5.534 6.44-3.281 10.099m-8.467-39.68a2.74 2.74 0 0 0-5.48 0c0 1.161 1.104 2.355 1.95 3.584a.954.954 0 0 0 1.58 0c.846-1.23 1.95-2.423 1.95-3.584m9.495 22.648l7.75-1.88c3.909-.948 5.951-5.23 4.265-8.881a17.781 17.781 0 0 0-5.712-6.944 17.778 17.778 0 0 0-8.371-3.287c-3.992-.476-7.435 2.79-7.128 6.799l.607 7.953c.326 4.283 4.414 7.253 8.589 6.24m23.723 7.808c0 19.859-16.1 35.957-35.958 35.957C16.1 78.852 0 62.754 0 42.895S16.099 6.939 35.957 6.939c19.859 0 35.958 16.097 35.958 35.956"/><path stroke="#000" stroke-width="1.16" d="M139.177 6.938l-31.372 71.915m18.741-71.915L95.174 78.853"/></svg>