<svg xmlns="http://www.w3.org/2000/svg" role="img" viewBox="0.82 -0.18 607.36 235.86"><title>dnPtcViewerNode logo</title><path fill="#e94740" d="M286.054 14.25l.09 129.4h-25.64l-58.75-88.24v88.25h-23.15V14.25h13a23.26 23.26 0 0 1 19.4 10.42l51.85 78.36V14.25zm73.68 129.28h76.79v-22.9h-66.33v-30h54.46V66.82h-54.46V36.25h66.33v-22h-91.12v115a14.33 14.33 0 0 0 14.33 14.29zM56.804 11.67c-23.73-.25-44.19 12-44.19 12v73.48l23.06-20.49V39.71s7.73-4.46 19.65-4.46c24.65 0 44.7 19.57 44.7 43.64a43 43 0 0 1-42.794 43.204q-.833.004-1.666-.024a44 44 0 0 1-16.92-4.13l-19.11 17a67.29 67.29 0 1 0 37.27-123.27zm495.62 134.75c23.72.24 44.19-12 44.19-12V69.13l-23.07 20.49v28.76s-7.73 4.43-19.65 4.43c-24.65 0-44.7-19.58-44.7-43.64a43 43 0 0 1 42.785-43.214q.838-.004 1.675.024a44.14 44.14 0 0 1 16.92 4.13l19.12-17a67.29 67.29 0 1 0-37.27 123.33z"/><path d="M89.647 194.459a9.339 9.339 0 0 1 3.37 3.247v-14.013h7.787v39.668H93.34v-4.069a10.823 10.823 0 0 1-3.745 3.8 10.521 10.521 0 0 1-5.228 1.185 10.916 10.916 0 0 1-8.664-4.163 15.99 15.99 0 0 1-3.517-10.685q0-7.518 3.463-11.83a11.266 11.266 0 0 1 9.257-4.312 9.476 9.476 0 0 1 4.742 1.172zm1.887 20.926a10.716 10.716 0 0 0 1.697-6.28q0-5.389-2.721-7.707a5.861 5.861 0 0 0-3.88-1.4 5.393 5.393 0 0 0-4.945 2.546 13.728 13.728 0 0 0 .026 12.827 5.423 5.423 0 0 0 4.865 2.439 5.67 5.67 0 0 0 4.958-2.425zm39.936-19.713q2.885 2.385 2.885 7.909v19.78h-7.87v-17.867a8.203 8.203 0 0 0-.614-3.557q-1.125-2.263-4.28-2.263a5.305 5.305 0 0 0-5.324 3.314 11.46 11.46 0 0 0-.749 4.474v15.9h-7.68v-29.32h7.437v4.284a13.025 13.025 0 0 1 2.791-3.26 9.67 9.67 0 0 1 5.984-1.779 11.26 11.26 0 0 1 7.42 2.385zm37.313 10.496q-3.488 2.91-9.962 2.911h-8.27v14.282h-8.246V183.64h17.055q5.898 0 9.405 3.072 3.506 3.072 3.506 9.513 0 7.032-3.488 9.943zm-6.335-14.31a6.688 6.688 0 0 0-4.417-1.32h-7.48v11.695h7.48a6.345 6.345 0 0 0 4.417-1.427 5.83 5.83 0 0 0 1.577-4.528q0-3.098-1.577-4.42zm12.842 7.87v-5.471h4.096v-8.193h7.6v8.193h4.769v5.47h-4.77v15.523a3.492 3.492 0 0 0 .458 2.25q.458.445 2.803.444.35 0 .74-.012.391-.014.769-.041v5.74l-3.638.135q-5.444.187-7.438-1.887a5.615 5.615 0 0 1-1.293-4.07v-18.081zm38.966 4.796a6.803 6.803 0 0 0-1.107-2.963 4.647 4.647 0 0 0-4.025-1.78 5.3 5.3 0 0 0-5.322 3.854 15.995 15.995 0 0 0-.756 5.43 14.705 14.705 0 0 0 .756 5.188 5.137 5.137 0 0 0 5.187 3.665 4.579 4.579 0 0 0 3.836-1.455 7.235 7.235 0 0 0 1.378-3.774h7.841a12.848 12.848 0 0 1-2.535 6.63q-3.615 5.04-10.71 5.04-7.094 0-10.439-4.205-3.345-4.204-3.344-10.901 0-7.557 3.694-11.762 3.696-4.204 10.198-4.204a15.36 15.36 0 0 1 9.05 2.48q3.52 2.478 4.168 8.757zm36.987-20.884h8.624l-13.543 39.721h-7.841l-13.434-39.721h8.867l8.623 30.155zm19.875 6.844h-7.788v-7.088h7.788zm-7.788 3.503h7.788v29.374h-7.788zm34.366.596a11.95 11.95 0 0 1 5.076 4.345 14.453 14.453 0 0 1 2.341 6.073 37.619 37.619 0 0 1 .252 5.83h-21.393q.179 4.42 3.071 6.197a7.797 7.797 0 0 0 4.235 1.106 5.965 5.965 0 0 0 5.846-3.37h7.84a9.59 9.59 0 0 1-2.847 5.31q-3.946 4.284-11.05 4.284a16.012 16.012 0 0 1-10.347-3.614q-4.482-3.614-4.482-11.76 0-7.631 4.046-11.705a14.162 14.162 0 0 1 10.504-4.073 16.718 16.718 0 0 1 6.908 1.377zm-11.49 6.635a7.977 7.977 0 0 0-2.045 4.546h13.231a6.406 6.406 0 0 0-2.046-4.641 6.73 6.73 0 0 0-4.555-1.584 6.09 6.09 0 0 0-4.584 1.679zm36.894-7.231h7.789l4.473 21.156 4.581-21.156h8.004l-8.515 29.374h-7.897l-4.607-21.396-4.662 21.396h-7.978l-8.246-29.374h8.246l4.582 21.075zm48.218.596a11.948 11.948 0 0 1 5.077 4.345 14.446 14.446 0 0 1 2.34 6.073 37.594 37.594 0 0 1 .253 5.83h-21.393q.178 4.42 3.071 6.197a7.797 7.797 0 0 0 4.234 1.106 5.966 5.966 0 0 0 5.846-3.37h7.84a9.582 9.582 0 0 1-2.846 5.31q-3.948 4.284-11.05 4.284a16.013 16.013 0 0 1-10.347-3.614q-4.483-3.614-4.483-11.76 0-7.631 4.047-11.705a14.16 14.16 0 0 1 10.504-4.073 16.715 16.715 0 0 1 6.907 1.377zm-11.489 6.635a7.971 7.971 0 0 0-2.046 4.546h13.232a6.406 6.406 0 0 0-2.046-4.641 6.731 6.731 0 0 0-4.555-1.584 6.09 6.09 0 0 0-4.585 1.679zm39.361-7.918q.147.014.66.04v7.87q-.728-.08-1.294-.108-.566-.027-.916-.027-4.635 0-6.225 3.019a11.74 11.74 0 0 0-.89 5.227v14.04h-7.734v-29.374h7.33v5.12a16.22 16.22 0 0 1 3.1-4.014 8.43 8.43 0 0 1 5.604-1.806c.144 0 .266.005.364.014zm5.645-9.66h8.701l15.768 27.697V183.64h7.734v39.721h-8.299l-16.17-28.184v28.184h-7.734zm63.867 36.128q-3.72 4.59-11.29 4.59-7.574 0-11.293-4.59a18.224 18.224 0 0 1 0-22.065q3.72-4.658 11.292-4.658 7.572 0 11.291 4.658a18.224 18.224 0 0 1 0 22.065zm-6.144-4.245q1.806-2.395 1.805-6.808 0-4.414-1.805-6.794a6.825 6.825 0 0 0-10.362 0q-1.819 2.38-1.819 6.794t1.82 6.808a6.802 6.802 0 0 0 10.36 0zm30.937-21.064a9.334 9.334 0 0 1 3.368 3.247v-14.013h7.788v39.668h-7.464v-4.069a10.832 10.832 0 0 1-3.746 3.8 10.523 10.523 0 0 1-5.228 1.185 10.913 10.913 0 0 1-8.663-4.163 15.989 15.989 0 0 1-3.518-10.685q0-7.518 3.463-11.83a11.268 11.268 0 0 1 9.257-4.312 9.477 9.477 0 0 1 4.743 1.172zm1.887 20.926a10.716 10.716 0 0 0 1.697-6.28q0-5.389-2.722-7.707a5.862 5.862 0 0 0-3.88-1.4 5.393 5.393 0 0 0-4.945 2.546 13.727 13.727 0 0 0 .027 12.827 5.425 5.425 0 0 0 4.864 2.439 5.67 5.67 0 0 0 4.959-2.425zm35.389-20.802a11.948 11.948 0 0 1 5.077 4.345 14.446 14.446 0 0 1 2.34 6.073 37.597 37.597 0 0 1 .253 5.83h-21.393q.179 4.42 3.071 6.197a7.797 7.797 0 0 0 4.235 1.106 5.966 5.966 0 0 0 5.845-3.37h7.841a9.582 9.582 0 0 1-2.847 5.31q-3.947 4.284-11.05 4.284a16.013 16.013 0 0 1-10.347-3.614q-4.483-3.614-4.483-11.76 0-7.631 4.047-11.705a14.16 14.16 0 0 1 10.504-4.073 16.715 16.715 0 0 1 6.907 1.377zm-11.489 6.635a7.971 7.971 0 0 0-2.046 4.546h13.232a6.406 6.406 0 0 0-2.046-4.641 6.731 6.731 0 0 0-4.555-1.584 6.09 6.09 0 0 0-4.585 1.679z"/></svg>