<svg xmlns="http://www.w3.org/2000/svg" role="img" viewBox="61.93 62.43 679.64 176.64"><title>DNEG logo</title><path fill="#232628" d="M679.11 226.19c26.543.278 49.431-13.47 49.431-13.47v-72.985l-25.801 22.924v32.17s-8.643 4.955-21.98 4.955c-27.57 0-50.004-21.899-50.004-48.817 0-26.672 21.727-49.219 49.735-48.307 8.276.27 13.929 2.504 18.93 4.62l21.382-19.04c-11.936-7.956-26.274-12.592-41.692-12.592-41.571 0-75.271 33.7-75.271 75.272 0 41.57 33.7 75.27 75.27 75.27zM124.704 75.462c-26.544-.278-49.434 13.47-49.434 13.47v82.15l25.803-22.925v-41.333s8.642-4.956 21.979-4.956c27.572 0 50.003 21.899 50.003 48.817 0 26.674-21.725 49.22-49.733 48.307-8.276-.27-13.93-2.503-18.932-4.619l-21.38 19.04c11.936 7.955 26.272 12.591 41.692 12.591 41.57 0 75.27-33.7 75.27-75.27 0-41.573-33.7-75.273-75.27-75.273zm338.87 147.516h85.899v-25.62h-74.207V163.76h60.926v-26.602h-60.926v-34.19h74.207v-24.61H447.544v128.59c0 8.853 7.177 16.03 16.03 16.03zm-82.428-144.62l.106 144.75h-28.68l-65.716-98.712v98.713h-25.898V78.358h14.523a26.02 26.02 0 0 1 21.697 11.66l58.002 87.647V78.357h25.966"/></svg>