<svg xmlns="http://www.w3.org/2000/svg" role="img" viewBox="-4.34 -4.34 225.94 132.69"><title>Dockyard logo</title><defs><style>.cls-1{fill:#000119}</style></defs><g id="Layer_2" data-name="Layer 2"><g id="Layer_1-2" data-name="Layer 1"><path d="M109.65 19.2a1.08 1.08 0 1 0 .67 2.06 1.07 1.07 0 0 0 .68-1.36 1.08 1.08 0 0 0-1.36-.7" class="cls-1"/><path d="M108.65 0a25 25 0 1 0 25 25 25 25 0 0 0-25-25m14.49 9.88a1 1 0 0 1-.27.45c-.46.53-5.42 6-7.27 8 .8 2.07.8 5.61.51 9.06-.4 4.84-1 6.79-3.66 8.27s-9.87 1.69-13.49.8-4.07-4.51-4.41-4.66c-1.42-.61-1.24-2.83-1.24-2.83 1-.05 2 1.19 2 1.19a4.93 4.93 0 0 1 1.59-1.24c.54 1.94-.6 2.58-.5 2.83a3 3 0 0 0 4.27 1.19c2.43-1.24 2.53-4.61 2.67-8.78s1.24-7.48 4.81-8.28a8.62 8.62 0 0 1 5.63.51c2.47-1.82 8.09-5.83 8.59-6.18a3.3 3.3 0 0 1 .52-.31h.26z" class="cls-1"/><path d="M106.79 28.21a15.21 15.21 0 0 0-1.53 3.37c-.42 1-1.16 1.44-1.7 2.25s1 .94 1.41.94a3.62 3.62 0 0 0 2.88-1.36c.86-1.16 1-2.3 1.55-3.53a13.13 13.13 0 0 0 1.35-2.54c.11-1.12-2.79-.78-4 .87M0 70.65h9.64C17.8 70.65 23 76.32 23 84.32S17.8 98 9.64 98H0zM3.46 74v20.69H9.6c6.11 0 9.81-4.38 9.81-10.37S15.71 74 9.6 74zm39.22-3.75a14.07 14.07 0 0 1 0 28.13 14.07 14.07 0 1 1 0-28.13m0 24.72a10.65 10.65 0 1 0-10.45-10.65A10.38 10.38 0 0 0 42.68 95m40.83 1.5a14.3 14.3 0 0 1-7.2 1.88 14.07 14.07 0 0 1 0-28.13 14.3 14.3 0 0 1 7.2 1.89v4.06a11 11 0 0 0-7.2-2.53 10.65 10.65 0 0 0 0 21.3 11.18 11.18 0 0 0 7.2-2.49zm8.33-25.84h3.45v13.38l10.21-13.38h4.14l-8.44 11.17 8.84 16.15h-4.1l-7.15-13.26-3.5 4.38v8.88h-3.45V70.66zm32.13 15.23l-9.04-15.23h3.94l6.83 11.77 6.87-11.77h3.98l-9.13 15.27v12.05h-3.45V85.89zm31.18 4.46H144.1L141.32 98h-3.89l10.28-27.33h3.9L161.9 98H158zM145.26 87H154l-4.36-11.8zm23.19-16.35h8.07c5.11 0 8.6 2.86 8.6 7.68a6.84 6.84 0 0 1-5.62 7c3.25 1.53 6.07 6.19 7.07 12.66H183c-1.24-6.79-4.66-11.41-8.24-11.41h-2.86V98h-3.45zm8.07 3.3h-4.62v9.32h4.62c2.86 0 5-1.64 5-4.62s-2.17-4.7-5-4.7m17.79-3.3H204c8.16 0 13.34 5.67 13.34 13.67S212.11 98 204 98h-9.64zm3.45 3.3v20.74h6.15c6.11 0 9.81-4.38 9.81-10.37S210 74 203.91 74z" class="cls-1"/><path fill="#777677" d="M0 115.92c0-3.54 1.6-5.54 4.27-5.54a3.74 3.74 0 0 1 3.64 2.32l-1 .62a2.68 2.68 0 0 0-2.61-1.81c-1.82 0-2.9 1.45-2.9 3.62v1.58c0 2.17 1.08 3.49 2.9 3.49a2.75 2.75 0 0 0 2.7-1.91l1 .63a3.91 3.91 0 0 1-3.72 2.42c-2.66 0-4.28-1.89-4.28-5.42zm14.69 3.96h-.07a2.17 2.17 0 0 1-2.2 1.46c-1.61 0-2.64-1.1-2.64-3v-5H11v4.81c0 1.4.62 2.11 1.79 2.11 1 0 1.9-.47 1.9-1.5v-5.42h1.21v7.83h-1.21zm3.04-.08l.87-.7a2.85 2.85 0 0 0 2.32 1.2c1 0 1.64-.47 1.64-1.27 0-.61-.33-1.08-1.36-1.23l-.63-.09c-1.44-.21-2.52-.81-2.52-2.26s1.2-2.31 2.8-2.31a3.26 3.26 0 0 1 2.73 1.26l-.8.73a2.41 2.41 0 0 0-2-1c-1 0-1.54.47-1.54 1.22s.53 1.06 1.51 1.21l.6.09c1.73.26 2.4 1 2.4 2.2 0 1.52-1.11 2.45-2.9 2.45a3.65 3.65 0 0 1-3.12-1.5zm9.87 1.35a1.2 1.2 0 0 1-1.29-1.29v-5.48H25v-1.06h.73c.52 0 .68-.18.68-.71v-1.46h1.1v2.17h1.71v1.06h-1.69v5.71h1.59v1.06zm3.02-3.91c0-2.49 1.44-4.1 3.54-4.1s3.54 1.61 3.54 4.1-1.45 4.1-3.54 4.1-3.54-1.61-3.54-4.1zm5.77.56v-1.12a2.24 2.24 0 1 0-4.46 0v1.12a2.24 2.24 0 1 0 4.46 0zm3.31 3.35v-7.83h1.21v1.28H41a2.11 2.11 0 0 1 2.11-1.46 2.4 2.4 0 0 1 2.4 1.59 2.35 2.35 0 0 1 2.39-1.59c1.59 0 2.55 1.09 2.55 3v5h-1.22v-4.81c0-1.38-.53-2.11-1.71-2.11-1 0-1.84.49-1.84 1.49v5.43h-1.21v-4.81c0-1.4-.54-2.11-1.69-2.11-1 0-1.87.49-1.87 1.49v5.43zm16.18-1.67l.94-.79a3.37 3.37 0 0 0 2.86 1.52c1.51 0 2.33-.79 2.33-2 0-1-.56-1.5-1.95-1.82l-.87-.2c-1.93-.44-3-1.29-3-2.92 0-1.88 1.43-2.89 3.51-2.89a4 4 0 0 1 3.5 1.73l-1 .69a3 3 0 0 0-2.62-1.3c-1.35 0-2.18.59-2.18 1.73s.65 1.46 2 1.76l.86.2c2.07.47 3 1.38 3 3 0 1.94-1.36 3.19-3.64 3.19a4.38 4.38 0 0 1-3.74-1.9zm8.89-2.24c0-2.49 1.45-4.1 3.54-4.1s3.54 1.61 3.54 4.1-1.44 4.1-3.54 4.1-3.54-1.61-3.54-4.1zm5.77.56v-1.12a2.24 2.24 0 1 0-4.46 0v1.12a2.24 2.24 0 1 0 4.46 0zm3.74-3.42H73v-1.06h1.28v-1.58a1.61 1.61 0 0 1 1.72-1.82h1.19V111h-1.7v2.34h1.69v1.06h-1.69v6.77h-1.21zm6.22 6.77a1.2 1.2 0 0 1-1.29-1.29v-5.48h-1.29v-1.06h.73c.51 0 .68-.18.68-.71v-1.46h1.09v2.17h1.72v1.06h-1.72v5.71H82v1.06zm2.78-7.83h1.18l.84 3.39.83 3.43 1-3.43 1-3.39h1.07l1 3.39 1 3.43.81-3.43.85-3.39H94l-2.08 7.83h-1.51l-1.09-3.76-.68-2.39-.67 2.38-1.09 3.76h-1.51zm18.17 7.83a1.26 1.26 0 0 1-1.35-1.27h-.1a2.21 2.21 0 0 1-2.26 1.46c-1.66 0-2.63-.91-2.63-2.37s1.06-2.29 3.34-2.29H100v-.78c0-1.11-.61-1.71-1.85-1.71a2.18 2.18 0 0 0-2 1.16l-.73-.68a3 3 0 0 1 2.78-1.53c1.88 0 3 1 3 2.64v4.31h.89v1.06zm-1.45-2.27v-1.29h-1.59c-1.38 0-2 .42-2 1.18v.32c0 .77.61 1.21 1.55 1.21 1.2 0 2.04-.62 2.04-1.42zm3.86 2.27v-7.83h1.21v1.44h.08a2.25 2.25 0 0 1 2.26-1.44h.47v1.22h-.71c-1.31 0-2.1.56-2.1 1.3v5.31zm4.99-3.91c0-2.49 1.4-4.1 3.53-4.1s3.38 1.61 3.38 3.82v.58h-5.63v.37a2.21 2.21 0 0 0 2.32 2.36 2.27 2.27 0 0 0 2.16-1.35l.86.63a3.28 3.28 0 0 1-3.09 1.79c-2.13 0-3.53-1.61-3.53-4.1zm1.28-.72v.11h4.33v-.17a2.08 2.08 0 0 0-2.08-2.3 2.23 2.23 0 0 0-2.25 2.36zm16.87 4.63a1.26 1.26 0 0 1-1.35-1.27h-.08a2.21 2.21 0 0 1-2.26 1.46c-1.66 0-2.63-.91-2.63-2.37s1.07-2.29 3.34-2.29h1.55v-.78c0-1.11-.61-1.71-1.85-1.71a2.19 2.19 0 0 0-2 1.16l-.73-.68a3 3 0 0 1 2.78-1.53c1.88 0 3 1 3 2.64v4.31h.89v1.06zm-1.43-2.27v-1.29H124c-1.38 0-2 .42-2 1.18v.32c0 .77.61 1.21 1.55 1.21 1.2 0 2.06-.62 2.06-1.42zm3.88 2.27v-7.83h1.22v1.28h.06a2.21 2.21 0 0 1 2.21-1.46c1.61 0 2.63 1.09 2.63 3v5h-1.21v-4.81c0-1.4-.61-2.11-1.78-2.11-1 0-1.91.49-1.91 1.49v5.43zm13.63-1.27H143a2.36 2.36 0 0 1-2.29 1.46c-2 0-3.19-1.6-3.19-4.1s1.23-4.1 3.19-4.1a2.28 2.28 0 0 1 2.29 1.46h.06v-4.68h1.22v11.23h-1.22zm0-1.23v-2.92c0-.86-.91-1.5-2-1.5a2.14 2.14 0 0 0-2.21 2.34v1.34a2.13 2.13 0 0 0 2.21 2.33c1.09 0 2-.57 2-1.59zm8.97 2.5l-2.58-10.59h1.35l1.14 5.1.88 4 1-4 1.34-5.1h1.45l1.29 5.1 1 4 .91-4 1.2-5.1h1.3l-2.72 10.59h-1.41l-1.38-5.28-1-3.89-1 3.89-1.41 5.28zm11.36-3.91c0-2.49 1.39-4.1 3.52-4.1s3.39 1.61 3.39 3.82v.58h-5.64v.37a2.21 2.21 0 0 0 2.32 2.36 2.27 2.27 0 0 0 2.16-1.35l.87.63a3.3 3.3 0 0 1-3.1 1.79c-2.13 0-3.52-1.61-3.52-4.1zm1.27-.72v.11H169v-.17a2.08 2.08 0 0 0-2.08-2.3 2.23 2.23 0 0 0-2.24 2.36zm7.64-6.6h1.21v4.68h.06a2.29 2.29 0 0 1 2.29-1.46c2 0 3.19 1.59 3.19 4.1s-1.23 4.1-3.19 4.1a2.37 2.37 0 0 1-2.29-1.46h-.06v1.27h-1.21zm5.45 8v-1.34a2.14 2.14 0 0 0-2.22-2.34c-1.11 0-2 .64-2 1.5v2.92c0 1 .91 1.59 2 1.59a2.14 2.14 0 0 0 2.22-2.34zm13.69 3.23L190.4 118h-4.29l-1.06 3.12h-1.29l3.71-10.59h1.62l3.7 10.59zm-3.17-9.41h-.08l-1.79 5.16h3.66zm6.14 1.58h1.22v1.28h.06a2.28 2.28 0 0 1 2.29-1.46c2 0 3.19 1.59 3.19 4.1s-1.23 4.1-3.19 4.1a2.36 2.36 0 0 1-2.29-1.46h-.06v4.31h-1.22zm5.45 4.59v-1.34a2.14 2.14 0 0 0-2.21-2.34c-1.11 0-2 .64-2 1.5v2.92c0 1 .91 1.59 2 1.59a2.13 2.13 0 0 0 2.21-2.33zm3.36-4.59h1.21v1.28h.06a2.29 2.29 0 0 1 2.29-1.46c2 0 3.19 1.59 3.19 4.1s-1.23 4.1-3.19 4.1a2.37 2.37 0 0 1-2.29-1.46h-.06v4.31h-1.21zm5.45 4.59v-1.34a2.14 2.14 0 0 0-2.22-2.34c-1.11 0-2 .64-2 1.5v2.92c0 1 .91 1.59 2 1.59a2.14 2.14 0 0 0 2.22-2.33zm2.61 1.89l.86-.7a2.85 2.85 0 0 0 2.32 1.2c1 0 1.64-.47 1.64-1.27 0-.61-.33-1.08-1.36-1.23l-.63-.09c-1.44-.21-2.52-.81-2.52-2.26s1.2-2.31 2.8-2.31a3.26 3.26 0 0 1 2.73 1.26l-.8.73a2.41 2.41 0 0 0-2-1c-1 0-1.54.47-1.54 1.22s.53 1.06 1.51 1.21l.6.09c1.73.26 2.4 1 2.4 2.2 0 1.52-1.11 2.45-2.9 2.45a3.61 3.61 0 0 1-3.11-1.5z"/></g></g></svg>