<svg xmlns="http://www.w3.org/2000/svg" role="img" viewBox="-11.39 -11.39 493.78 566.28"><title>DrQueue logo</title><path d="M1.2 1.2c-1.7 1.7-1.7 539.9 0 541.6 1.7 1.7 467.9 1.7 469.6 0 .9-.9 1.2-62.4 1.2-270.6 0-255.5-.1-269.5-1.8-270.8C467.8-.5 3.1-.7 1.2 1.2zm7.4 4.6C7.7 6.7 4.9 5 5.5 4c.5-.8 1.1-.7 2.1.1.8.6 1.2 1.4 1 1.7zm209.3-.2c.4-.3.7.3.8 1.3.1 1-.5 1.8-1.3 1.8-.9 0-1.4-1.1-1.3-3.1.1-1.7.3-2.3.6-1.3.2.9.8 1.5 1.2 1.3zm9.6 2.3C226.1 10.2 224 9 224 6V2.9l2.1 2c1.2 1.1 1.8 2.4 1.4 3zm9.2-.2c-.3 1-.5.2-.5-1.7s.2-2.7.5-1.8c.2 1 .2 2.6 0 3.5zm5.3-1.6c0 2.4-.4 3-1.7 2.7-2.3-.4-3-3.8-.9-3.8.9 0 1.6-.5 1.6-1 0-.6.2-1 .5-1s.5 1.4.5 3.1zm11.6 1c0 2.6-5.6 2.7-5.7.1 0-1.4-.2-1.4-.9.3-.8 1.9-.9 1.8-.9-.4-.1-1.9.3-2.2 1.9-1.8 1.3.3 2 0 2-.9 0-1.1.4-1.2 1.8-.3 1 .6 1.8 2 1.8 3zm195.7-3.4c.3.5-.6.9-2 1-1.9.1-2.2-.1-1.2-.8 1.7-1.1 2.6-1.1 3.2-.2zm13.7.4c0-.6.5-1.1 1.1-1.1.8 0 .9.4 0 1.3-.6.8-.9 1.7-.6 2 .3.4.2.5-.2.2-.3-.3-1.1-.1-1.7.4-.7.6-1.1.2-1.1-1.4 0-1.8.3-2.1 1.3-1.3.8.7 1.2.7 1.2-.1zM11.5 5c.3.5.1 1-.4 1-.6 0-1.1-.5-1.1-1 0-.6.2-1 .4-1 .3 0 .8.4 1.1 1zM192 7c0 1.6-.4 3-.8 3-.5 0-.7-1.4-.4-3 .2-1.7.6-3 .8-3 .2 0 .4 1.3.4 3zm18-1.9c0 .4.3 1.5.6 2.4.5 1.3.2 1.6-1.7 1.3-3.2-.4-4.1-4.8-1-4.5 1.2.1 2.1.4 2.1.8zm-13.4 1c1 1.7-1.3 3.6-2.7 2.2-1.2-1.2-.4-3.3 1.1-3.3.5 0 1.2.5 1.6 1.1zm3.4 0c0-.8.3-1.2.6-.8.7.7-.5 4.7-1.4 4.7-.4 0-.9-1.2-1-2.8-.1-2.1 0-2.3.8-1.2.8 1.2 1 1.3 1 .1zm5-.7c0 .2-.7.6-1.5 1-.8.3-1.5.1-1.5-.4 0-.6.7-1 1.5-1s1.5.2 1.5.4zm9 .6c-1.3.9-1.3 1.1 0 2 1.3.8 1.2 1-.2 1-1.1 0-1.8-.8-1.8-2s.7-2 1.8-2c1.4 0 1.5.2.2 1zm16.9.7c.1-1 .9-1.7 2-1.7 1.4 0 1.9.6 1.8 2-.1 1.5-.8 2-2.9 2-2.3 0-2.8-.4-2.7-2.3 0-2.1.1-2.1.9-.2.7 1.7.9 1.7.9.2zM10.7 9.2c-.3.8-.6.5-.6-.6-.1-1.1.2-1.7.5-1.3.3.3.4 1.2.1 1.9zM205 8c0 .5-.8 1-1.7 1-1.5 0-1.6-.2-.3-1 1.9-1.2 2-1.2 2 0zm17.7 2.6c-.3.3-1.2.4-1.9.1-.8-.3-.5-.6.6-.6 1.1-.1 1.7.2 1.3.5zM8.8 20.2c-.5 3.2-2.8 3.5-2.8.4 0-1.7.5-2.6 1.6-2.6 1 0 1.4.7 1.2 2.2zm2.5-.7c.4.8.2 1.7-.3 2-.6.4-1-.3-1-1.4 0-2.5.6-2.7 1.3-.6zM25 19c0 .5-.6 1-1.2 1-.9 0-.8.3.2.9.8.6 1.8.7 2.4.4.5-.3.6-.1.2.5-.4.7-1.6 1.2-2.7 1.2-1.4 0-1.9-.7-1.9-2.5 0-1.6.6-2.5 1.5-2.5.8 0 1.5.4 1.5 1zm5 1.6c0 1.8-.8 1.8-2.6 0-1-1.1-1.1-1.5-.1-1.9 1.6-.6 2.7.1 2.7 1.9zm1.7.6c-.3.7-.5.2-.5-1.2s.2-1.9.5-1.3c.2.7.2 1.9 0 2.5zm10.9-.2c.8 0 1.2.4.9 1-1.3 2.1-3.5 1-3.4-1.8.1-1.6.3-2 .6-1 .2 1 1.1 1.8 1.9 1.8zM70 22c.5 0 1-1 1.1-2.3 0-1.2.3-1.7.5-1 .3.7 1.2.9 2 .6.9-.3 1.4.1 1.4 1.2 0 1.1-.5 1.5-1.5 1.2-.8-.4-1.7-.2-2 .3-1.3 2.2-4.1 1-4.2-1.8-.2-2.5-.1-2.6.7-.5.5 1.3 1.4 2.3 2 2.3zm27.1-1.8c.1 1.7.2 1.9.6.5.2-.9 1.1-1.7 1.9-1.7 1.8 0 1.8.5-.2 2.4-2.5 2.5-5.4 2-5.4-.9 0-3.2 3-3.4 3.1-.3zm11.3 1c-.3.4-1.2.8-2 .8-1.7 0-1.9-2.7-.1-3.3 1.4-.5 2.8 1.3 2.1 2.5zm15.8-1.4c-1.7.5-1.5 2.2.3 2.2.8 0 1.5-.6 1.5-1.3 0-.8.7-1.4 1.5-1.4 1.9 0 1.9.2-.1 2.1-2.5 2.5-5.4 2-5.4-.9 0-1.9.4-2.3 1.7-1.8 1.1.4 1.2.8.5 1.1zM14 20.5c0 .8-.4 1.5-.8 1.5-.5 0-.9-.7-.9-1.5s.4-1.5.9-1.5c.4 0 .8.7.8 1.5zm32 0c0 .8-.2 1.5-.4 1.5s-.6-.7-1-1.5c-.3-.8-.1-1.5.4-1.5.6 0 1 .7 1 1.5zm7 .1c0 1.6-1.6 1.9-2.5.3-.5-.6-1.1-.4-1.9.6-1.1 1.5-1.2 1.5-1.3-.2-.1-1.4.6-1.9 2.8-1.9 1.9-.1 2.9.3 2.9 1.2zm3-.4c0-.6.6-1.2 1.3-1.2 2.4 0 1.5 2.6-1 2.8-1.6.1-2.3-.3-2.3-1.6 0-1.4.2-1.5 1-.2.6 1 1 1.1 1 .2zm27 .3c0 .7-1.4 1.1-3.5 1.1-1.9-.1-3.5-.6-3.5-1.2s1.6-1.1 3.5-1.1c2 0 3.5.5 3.5 1.2zm1.7.7c-.3.8-.6.5-.6-.6-.1-1.1.2-1.7.5-1.3.3.3.4 1.2.1 1.9zm26.3-.7c0 .8-.4 1.5-.8 1.5-.5 0-.9-.7-.9-1.5s.4-1.5.9-1.5c.4 0 .8.7.8 1.5zm1.7.7c-.3.8-.6.5-.6-.6-.1-1.1.2-1.7.5-1.3.3.3.4 1.2.1 1.9zm20.4-1.3c.7-1.1.9-1.1.9.2 0 .9-.7 1.9-1.5 2.3-1.1.4-1.5-.1-1.4-1.7 0-1.3.3-1.6.6-.8.5 1.1.7 1.1 1.4 0zM28 31.5c0 1.8-.5 2.5-2 2.5s-2-.7-2-2.5.5-2.5 2-2.5 2 .7 2 2.5zm17.3 1c.4.8.2 1.7-.3 2-.6.4-1-.3-1-1.4 0-2.5.6-2.7 1.3-.6zm-3.9 1.1c.3.8.2 1.2-.4.9-.6-.3-1-1-1-1.6 0-1.4.7-1.1 1.4.7zm6.6-.1c0 .8-.4 1.5-.8 1.5-.5 0-.9-.7-.9-1.5s.4-1.5.9-1.5c.4 0 .8.7.8 1.5zm8 0c0 .7-1.4 1.1-3.5 1.1-1.9-.1-3.5-.6-3.5-1.2s1.6-1.1 3.5-1.1c2 0 3.5.5 3.5 1.2zm1.7.7c-.3.8-.6.5-.6-.6-.1-1.1.2-1.7.5-1.3.3.3.4 1.2.1 1.9zm-31 1.4c-.3.3-1.2.4-1.9.1-.8-.3-.5-.6.6-.6 1.1-.1 1.7.2 1.3.5zM14 39c0 2.8-.3 3-3.5 3S7 41.8 7 39s.3-3 3.5-3 3.5.2 3.5 3zm417.4 3.5c.9 3.5.1 4.5-3.5 4.5-2.7 0-2.9-.3-2.9-3.5s.3-3.5 2.9-3.5c2.3 0 3 .6 3.5 2.5zm-390.6-.2c.6-.3 1.2.2 1.2 1.1 0 1.1-.9 1.6-3 1.6-2.4 0-3-.4-3-2s.4-1.9 1.8-1.2c.9.5 2.3.7 3 .5zm39.8 1.8c-3 2.4-3.6 2.4-3.6 0 0-2 2.4-3.1 4.7-2.3.9.3.5 1.1-1.1 2.3zm15.2-1.3c-1 .2-1.8.7-1.8 1.2s.8.7 1.8.4c1.4-.5 1.4-.4.2.4-1.8 1.3-3 .6-3-1.8 0-1.4.5-1.7 2.3-1.2 1.8.5 1.9.7.5 1zm4.6-.2c.9.8 1.6 1.1 1.6.5 0-.6.5-1.1 1-1.1.6 0 1 .7 1 1.5s-.9 1.5-2 1.5-2-.6-2-1.3c0-.8-.4-.7-1 .3-.8 1.2-1 1.1-1-.8 0-2.6.3-2.7 2.4-.6zm18.6.1c0 1.5.1 1.5 1.3-.1.8-1.1 2-1.6 2.8-1.3 1 .4.9.6-.3.6-1 .1-1.8.6-1.8 1.2s.7.9 1.5.5c.8-.3 1.5-.1 1.5.5 0 .5-1.2.8-2.7.5-1.6-.2-3.1-.5-3.4-.5-.9-.1-.7-3.1.3-3.1.4 0 .8.8.8 1.7zm9 .3c0 1.1-.7 2-1.5 2s-1.5-.9-1.5-2 .7-2 1.5-2 1.5.9 1.5 2zm73.2-.2c.4 1.2-.1 1.8-1.3 1.8-1.4 0-1.5-.4-.8-1.8.5-1 1.1-1.8 1.3-1.8.2 0 .6.8.8 1.8zm24.3 1c.1 1.3-.4 2.2-1.2 2.2-1 0-1.1-.5-.3-1.9.7-1.3.7-2.1 0-2.4-.6-.3-.5-.4.1-.3.7.1 1.3 1.2 1.4 2.4zM275 43c0 1.1-.7 2-1.5 2s-1.5-.9-1.5-2 .7-2 1.5-2 1.5.9 1.5 2zm92.3 0c.3 1.1.2 2-.3 2-.4 0-1-.9-1.3-2-.3-1.1-.2-2 .3-2 .4 0 1 .9 1.3 2zm6-.6c.6 1.5-.1 2.6-1.5 2.6-.4 0-.8-.9-.8-2 0-2.3 1.5-2.7 2.3-.6zm15.4.6c-.1 1.1-.8 2-1.5 2-1.1 0-1.2-.3-.3-1.4.9-1.1.9-1.5-.1-1.9-.9-.4-.7-.6.4-.6 1.1-.1 1.6.6 1.5 1.9zm3.6-1.3c-.7.2-1.3.9-1.3 1.4 0 .6.5.7 1 .4.6-.3 1-.1 1 .4 0 .6-.7 1.1-1.5 1.1s-1.5-.9-1.5-2c0-1.3.6-2 1.8-1.9 1 0 1.2.3.5.6zm47.3 4.1c-.4.3-1.1.1-1.8-.6-.8-.8-.8-1.5.3-2.8 1.3-1.6 1.4-1.6 1.7.5.2 1.3.1 2.5-.2 2.9zm5.8-2.4c-.5 1.4-.9 1.4-2.2.4-1.3-1.1-1.5-1-.9.5.4 1.1.3 1.6-.3 1.2-1.6-1-1.2-3.8.5-3.2.8.4 1.7.2 2.1-.4.9-1.5 1.5-.4.8 1.5zM35 44c0 2.4-1.8 2.7-2.7.4-.5-1.3-.7-1.3-1.4-.2-.7 1-.9.9-.9-.5 0-1.2.8-1.7 2.5-1.7 1.8 0 2.5.5 2.5 2zm28-1.6c0 .3-.4.8-1 1.1-.5.3-1 .1-1-.4 0-.6.5-1.1 1-1.1.6 0 1 .2 1 .4zm12.4 1.1c-.4.8-.8 1.5-1 1.5-.2 0-.4-.7-.4-1.5s.4-1.5 1-1.5c.5 0 .7.7.4 1.5zm11.4.3c.2.7-.3 1.2-1.2 1.2-.9 0-1.6-.7-1.6-1.6 0-1.7 2.2-1.4 2.8.4zm5.2-.3c0 .8-.7 1.5-1.5 1.5-1.6 0-2-1.2-.8-2.3 1.1-1.2 2.3-.8 2.3.8zm18-1.1c0 1.1-1.9 1.5-2.5.6-.3-.5.1-1 .9-1 .9 0 1.6.2 1.6.4zm40 0c0 1.1-1.9 1.5-2.5.6-.3-.5.1-1 .9-1 .9 0 1.6.2 1.6.4zm62.6.9c.4.4.1.7-.7.7-1.1 0-1.1.2.1 1 .9.6 1 1 .3 1-1.1 0-4.3-2.6-4.3-3.6 0-.6 3.9.1 4.6.9zm9.4-.2c0 .5-.6.9-1.4.9-.8 0-1.6.7-2 1.5-.8 2.3-2.4 1.8-2.1-.8.3-2.7 0-2.5 3-2.5 1.4 0 2.5.4 2.5.9zm61-.4c0 .1-.9.7-2 1.3-1.5.8-2 .8-2-.3 0-.7.9-1.3 2-1.3s2 .1 2 .3zm80.4 1.4c-.3.5-1 .7-1.5.3-.5-.3-.7-1-.3-1.5.3-.5 1-.7 1.5-.3.5.3.7 1 .3 1.5zM379 43c0 .5-.2 1-.4 1-.3 0-.8-.5-1.1-1-.3-.6-.1-1 .4-1 .6 0 1.1.4 1.1 1zm40 0c0 .5-.2 1-.4 1-.3 0-.8-.5-1.1-1-.3-.6-.1-1 .4-1 .6 0 1.1.4 1.1 1zm30 1.6c0 1.4-1.2 1.9-2.3.8-.9-.9.4-3.5 1.4-2.8.5.3.9 1.2.9 2zm4.6.1c-1 1-1.9-.5-1-1.8.6-1.1.8-1.1 1.2 0 .2.7.1 1.5-.2 1.8zm2.1.5c-.3.7-.5.2-.5-1.2s.2-1.9.5-1.3c.2.7.2 1.9 0 2.5zM236 43.4c0 1.1-1.9 1.5-2.5.6-.3-.5.1-1 .9-1 .9 0 1.6.2 1.6.4zm32.2.8c-.9.9-1.5.9-2.4 0-.9-.9-.7-1.2 1.2-1.2s2.1.3 1.2 1.2zm182.5 1c-.3.8-.6.5-.6-.6-.1-1.1.2-1.7.5-1.3.3.3.4 1.2.1 1.9zm15.3-1.8c0 1.1-1.9 1.5-2.5.6-.3-.5.1-1 .9-1 .9 0 1.6.2 1.6.4zM12 55.3c-1.6 1.8-3 3.5-3 3.9 0 .5-.5.8-1.1.8-1.5 0-.9-1.3 2.5-5.4 1.7-1.9 3.3-3.3 3.8-3 .4.3-.6 2-2.2 3.7zm449.5-2.4c-.3.6-1.1 1.1-1.7 1.1-.6 0-.6-.6.2-1.5 1.4-1.7 2.6-1.3 1.5.4zm5.8.2c.5.3-.4 2-1.8 3.8-2.2 2.5-3 2.9-4.1 2-.8-.6-1.4-1.7-1.4-2.4 0-1.7 5.1-5.8 5.9-4.8.3.4 1 1.1 1.4 1.4zM338 55c0 2.5-.4 3-3.5 3.6-4.4.8-4.9.4-4-3.5.6-2.7 1.1-3.1 4.1-3.1 3.1 0 3.4.3 3.4 3zm36.4-.5c.7 1.9-2.1 4.6-3.9 3.9-2-.8-1.9-1.6.2-1.2 1 .2 1.9-.4 2.1-1.5.2-1.2-.3-1.7-2-1.7s-2-.3-.9-.9c1.7-1.1 3.8-.4 4.5 1.4zm13.7-1.5c2.3 1.3 2.5 3.3.4 5-3.1 2.6-8.7-2.5-5.8-5.3.9-1 3.1-.9 5.4.3zm8.9 2.6c0 2.4-.4 3.4-1.2 3.2-2.4-.8-2.2-6.8.2-6.8.5 0 1 1.6 1 3.6zm3.4-1.3c-.1.9-.2 2.4-.3 3.2-.2 3.2-2.1 1.3-2.1-2.1 0-2.4.4-3.4 1.3-3.2.6.3 1.1 1.2 1.1 2.1zM31 55.6c0 2.2-.2 2.5-1.5 1.4-1.2-1-1.3-1.6-.4-2.6 1.6-2 1.9-1.8 1.9 1.2zm7.1.1c-.8 1.5-1 1.5-1.1.2 0-1.7 1-3.2 1.8-2.5.2.3-.1 1.3-.7 2.3zm4.3-1c-.3-.9-.1-1.7.5-1.7s1.1.9 1.1 2c0 2.3-1 2.6-2.8.8-.9-.9-1.2-.9-1.2.2 0 .7-.2 1.1-.5.8-.3-.3-.3-1.3.1-2.2.6-1.5.7-1.5 2 .1 1.3 1.7 1.4 1.7.8 0zm9.5-.3c.9 1 .8 1.6-.4 2.6-1.3 1.1-1.5.8-1.5-1.4 0-3 .3-3.2 1.9-1.2zm8.4.6c.3 1.2 0 2-.7 2-.6 0-1.2-.9-1.2-2s.3-2 .7-2c.4 0 .9.9 1.2 2zm284.9.5c.3 1.4.1 2.5-.3 2.5-.5 0-.9-1.1-.9-2.5s.2-2.5.4-2.5.6 1.1.8 2.5zm70.8-1.4c0 .5-.6.7-1.2.3-1-.6-1-.5-.1.7 1 1.3 1 1.6-.2 1.6-.8 0-1.5-.9-1.5-1.9 0-1 .7-1.8 1.5-1.8s1.5.5 1.5 1.1zm3.3-.4c-.7.2-1.3.9-1.3 1.4 0 .6.5.7 1 .4.6-.3 1-.1 1 .4 0 .6-.7 1.1-1.5 1.1s-1.5-.9-1.5-2c0-1.3.6-2 1.8-1.9 1 0 1.2.3.5.6zM424 55c0 1.1-.7 2-1.5 2s-1.5-.9-1.5-2 .7-2 1.5-2 1.5.9 1.5 2zm-234 .1c0 1.5-1.8 1.9-2.3.6-.3-.8.1-1.4.9-1.4s1.4.4 1.4.8zm222 .4c0 .8-.4 1.5-1 1.5-.5 0-1-.7-1-1.5s.5-1.5 1-1.5c.6 0 1 .7 1 1.5zm31-1.1c0 1.1-1.9 1.5-2.5.6-.3-.5.1-1 .9-1 .9 0 1.6.2 1.6.4zm-83.8 1.8c-.9.9-1.5.9-2.4 0-.9-.9-.7-1.2 1.2-1.2s2.1.3 1.2 1.2zM467 58c0 .5-.5 1-1.1 1-.5 0-.7-.5-.4-1 .3-.6.8-1 1.1-1 .2 0 .4.4.4 1zM283 97.9c0 19.5-.3 35.7-.5 36-.9.8-7.7.2-8.9-.8-.7-.6-2.7-.9-4.5-.6l-3.3.4.4-13 .3-13.1 3.5-3.2c5.5-5 7.2-8.4 7.7-15 1-12.5-7.2-22.4-19.2-23.4-3.8-.3-5.5-.1-5.5.7 0 .7.8 1.1 1.8 1 3-.3 3.7.1 2.2 1.1-1.3.9-1.2 1.1.5 1.6 1.6.4 5.5 6.7 5.9 9.6.1.3 1.3 1.6 2.9 2.8 3.3 2.6 3.5 5.8.6 8.9-1.8 1.9-2.8 2.2-5.8 1.6-4.6-.9-10.3-.7-11.1.4-.6 1.1-8.7.8-11.2-.3-3.9-1.8-.6 8.2 3.7 11 4 2.6 6.5 9.2 6.4 17.1 0 4.2-.3 6.1-.8 4.9-.5-1.4-1-1.6-1.5-.8-.8 1.3-4.8 1.6-5.9.5-.4-.3-1.9-.8-3.3-.9-1.4-.2-5.6-1.1-9.4-2l-6.7-1.8-13.4 6.9c-7.3 3.7-15.5 8.1-18.1 9.6-2.7 1.6-5.2 2.9-5.6 2.9-.4 0-3.8 1.9-7.7 4.1-3.8 2.2-5.9 3.8-4.5 3.4 1.4-.3 3.1-.7 3.8-.9.8-.1 1.8-.9 2.3-1.7.6-1 .9-1 .9-.2 0 .7.5 1.3 1.1 1.3.6 0 .9-.7.5-1.5-.7-2 1.1-1.9 2.2.2.7 1.1 1.5 1.4 2.8.9 1.8-.7 1.7-.9-.3-1.7-3.5-1.3-2.7-1.8 1.5-.9 9.4 2 10.2 2 10.2.5 0-1 1.1-1.5 3.5-1.5 1.9 0 3.5.4 3.5 1 0 .5-.9 1-2 1s-2 .4-2 1c0 .5 1.8 1 4 1s4 .4 4 1c0 .5 1.8 1 4 1 3.3 0 4 .3 4 2s.7 2 3.9 2c3.9 0 4 .1 4.3 3.7.3 3.3-.2 4.2-3 6.5-1.9 1.5-4.2 3-5.3 3.3-1 .4-1.9 1-1.9 1.5s-1.8 1.9-4 3-4 2.2-4 2.4c0 .3-.3 1.1-.6 1.9-.4 1.1.8 2 4.3 3.2 2.6.9 6.2 2.3 7.8 3 2.8 1.3 18.2 6.4 20.8 6.9.7.2 1.9.6 2.7.9 6.5 2.5 14 4.9 16.4 5.3 1.6.3 4 1 5.3 1.5 1.3.5 4.6.9 7.2.9 4.3 0 4.8.2 4.6 2.2-.1 2-.8 2.3-5.6 2.6-4.5.2-8.7-.8-24.9-6.3-10.7-3.6-24.2-8.2-30-10.1-5.8-1.9-11.2-4.2-12.1-5-1.9-1.7-2.9-1.8-2.9-.3 0 .5.5.7 1 .4.5-.3 1-.3 1 0s-1.4 1.2-3 1.9l-3 1.2 3.7 2.5c2.1 1.3 3.8 3.1 3.8 3.9.1 2-2.3 5.7-4.1 6.4-1.9.7-4.5-.4-3.8-1.6.4-.6-.1-.8-1.2-.5-1.1.4-3.2.9-4.9 1.3-2.9.6-2.9.6-1-1s1.9-1.7-1.5-1.1l-3.5.6 2.4-1.9 2.4-1.9-2.4-.6c-1.3-.4-4-.7-6-.7-3.2 0-3.9.4-5.3 3.5-1 2-1.5 4.4-1.1 5.4 1 3.2 6.6 5.1 15.3 5.1 5.6 0 8.3.4 9.1 1.4 1 1.2.2 1.6-4.6 2.6-3.1.7-8.2 1-11.3.7-3.4-.3-4.7-.2-3.5.3 1.8.8 1.8.9.2.9-2.4.1-7.9-2.8-7.3-3.8.3-.4-.2-.8-1-.8-1.2 0-1.4 1.1-.8 6.1.3 3.4 1 6.6 1.6 7.3.7.9.5 1.8-.7 3-1.7 1.6-1.7 1.6-1.1-.5.8-2.5-.7-6.1-1.8-4.3-.4.6-.2 1.1.5 1.1s.3 1-.9 2.3c-1.2 1.3-2.2 3.2-2.2 4.3 0 1.2-.3 2.4-.7 2.8-1.2 1.1-1 6.6.2 6.6.6 0 .3.5-.5 1-1.2.7-1.3 1.3-.3 2.8.9 1.5.9 2.2 0 3.1-.8.8-.8 1.1.1 1.1.7 0 1.2 1.5 1.2 3.7.1 4.2 1 6 5.9 12 2.2 2.7 3.8 4 4.9 3.6 1.2-.5 1.4-.1 1 2-.4 2.2-.2 2.7 1.6 2.7 1.7 0 1.8.2.6 1-1 .7-1.1 1-.2 1.1.6.1 1.7.3 2.2.4.6.1 1.6.3 2.3.4.8.1.8.4-.3 1-.8.6-1.8.7-2.2.5-.4-.3-.8 0-.8.5 0 .6.9 1.1 2 1.1s2 .4 2 .9.8 1.2 1.8 1.4c.9.3-17.5.5-41 .6l-42.8.1V62l91 .2 91.1.3-.1 35.4zM14.4 69.6c2.1 2 2 4.3-.1 6.6-2 2.2-5.1 2.3-7.5.1-3.4-3.1-1.2-8.3 3.7-8.3 1.3 0 3.1.7 3.9 1.6zm1 37.6c.8 1.4.7 2.1-.6 3.4-3 3.1-8.4-1-5.7-4.3 1.6-1.8 4.9-1.3 6.3.9zM14 122c.8 1.4.8 2.6 0 4-1.9 3.5-8 2-8-2s6.1-5.5 8-2zm-1.5 17.1c-2.2 2.2-4.8 4.5-5.7 5-1.6.9-1.8.4-1.8-4.1v-5h11.4l-3.9 4.1zm195 .9c.3.5.2 1-.4 1-.5 0-1.3-.5-1.6-1-.3-.6-.2-1 .4-1 .5 0 1.3.4 1.6 1zm-15.5 2c0 .5-.5 1-1.1 1-.5 0-.7-.5-.4-1 .3-.6.8-1 1.1-1 .2 0 .4.4.4 1zm25.5 1c.4.6-1.2.9-4.2.9l-4.8-.2 4-.7c2.2-.4 4.1-.8 4.2-.9.1 0 .5.3.8.9zm9.5 1.4c0 .3-.4.8-1 1.1-.5.3-1 .1-1-.4 0-.6.5-1.1 1-1.1.6 0 1 .2 1 .4zm26.2 4.1c3.1.8 4.3 1.3 2.8 1.4-4.4.2-9.9-1.9-11.1-4.2-1.2-2.2-1.2-2.2.9-.4 1.1 1.1 4.5 2.5 7.4 3.2zm-24.5-.3c-.3.8-.6.5-.6-.6-.1-1.1.2-1.7.5-1.3.3.3.4 1.2.1 1.9zm4.5.3c-.6 3.4 5.5 7.6 13.3 9.3 1.7.3 7.9.6 13.9.6 7.5.1 11.1.5 11.3 1.3.7 2.1-7.7 3.5-18.2 3.1-8.7-.3-10.8-.7-16-3.3-3.5-1.8-6.5-4-7.2-5.5-.7-1.4-1.3-1.9-1.3-1.2s-.4 1-1 .7c-1.5-.9-1.2-2.5.4-2.5.8 0 1.7-1.2 2-2.6.7-2.8 3.3-2.8 2.8.1zm11 1.4c1.1.7 5 1.9 8.7 2.7l6.6 1.4-6.5-.6c-6.6-.5-11.4-2.8-11.6-5.5 0-.8.1-.9.3-.4.2.6 1.3 1.6 2.5 2.4zM226 148c0 .5-.5 1-1.1 1-.5 0-.7-.5-.4-1 .3-.6.8-1 1.1-1 .2 0 .4.4.4 1zM16 158c0 5.7-.1 6-2.5 6s-2.5-.3-2.5-6 .1-6 2.5-6 2.5.3 2.5 6zm212-2c.5 0 1 .4 1 1 0 .5-.9 1-2 1-1.6 0-2-.6-1.9-3.3 0-2.9.1-3 .9-1 .5 1.3 1.4 2.3 2 2.3zm35.7-3.4c-.3.3-1.2.4-1.9.1-.8-.3-.5-.6.6-.6 1.1-.1 1.7.2 1.3.5zM10.9 175.2c-.1 4.3-.3 4.7-.8 2.3-.6-2.8-.3-7.5.5-7.5.2 0 .3 2.4.3 5.2zM8 175c0 .5-.4 1-1 1-.5 0-1-.5-1-1 0-.6.5-1 1-1 .6 0 1 .4 1 1zm7 0c0 .5-.4 1-.9 1-.6 0-1.3-.5-1.6-1-.3-.6.1-1 .9-1 .9 0 1.6.4 1.6 1zm-1.9 14.4c-.8 1-.9 1.6-.2 2.1 1.7 1-1.1 4.5-3.6 4.5-1.8 0-2.3-.6-2.3-2.8 0-3.4 1.6-5.2 4.8-5.2 2 0 2.2.3 1.3 1.4zm163.7 7.5c1.3.7 4.2 1.6 6.5 2.1l4.2.9-4.9-.4c-5.2-.5-9.6-2.7-9.6-4.8 0-.8.3-.9.8-.1.4.6 1.7 1.6 3 2.3zm15.5 1.8c-.7.2-2.1.2-3 0-1-.3-.4-.5 1.2-.5 1.7 0 2.4.2 1.8.5zm69.8 8.7c4.8 2 7.1 4.9 6.7 8.3-.2 1.7-.8 2.7-1.6 2.5-.8-.1-1.1.2-.7.7.6 1.1-3.3 3.6-4.3 2.7-.3-.3.1-.6.8-.6 2 0-2.1-2.9-4.1-3-.9 0-2-.7-2.3-1.5-.3-.9-1.1-1.5-1.8-1.4-3.3.4-5.9-.2-5.2-1.2.3-.6 2.2-.9 4-.7 2.2.3 3 0 2.4-.6-.5-.5-2.9-.9-5.3-1-3.1-.1-4.3-.5-4-1.4.3-.8-.5-1.2-2.3-1.3l-2.9-.1 3-1.3c3.9-1.8 13.4-1.9 17.6-.1zM8 209.6c0 .8-.5 1.2-1 .9-.6-.4-.8-1.1-.5-1.6.9-1.4 1.5-1.1 1.5.7zm6-.7c0 .5-.6 1.4-1.4 2-1.2 1-1.3.8-.9-.8.5-2.1 2.3-3 2.3-1.2zm172.3-.2c-1.3.2-3.3.2-4.5 0-1.3-.2-.3-.4 2.2-.4s3.5.2 2.3.4zm14.1.7c2.1.9 3.9 1 4.9.5 1-.6 1.8-.5 2.3.2.4.8.3.9-.4.5s-1.2-.3-1.2.3c0 2 2 2.1 3.2.1 1.5-2.4 2.8-2.6 2.8-.5 0 .8-.5 1.5-1.1 1.5-.5 0-.7.5-.3 1.2.6.9.9.9 1.2 0 .2-.7 1.1-1.2 1.9-1.2.9 0 1.3-.6.9-1.5-.7-1.9.1-1.9 2-.1 1.9 1.9 1.8 4-.1 3.2-.8-.3-1.5-.1-1.5.4 0 1.6 3.3 2.8 7.1 2.6 3.1-.1 3.5.2 3.1 1.8-.4 1.3-.1 1.7.9 1.4.8-.3 2.1.3 3 1.4 1.6 1.7 1.7 1.7 2.3-1.3.5-2.7 3.6-7.2 3.6-5.2 0 .4.5.1 1-.7.8-1.2 1-1.1 1 .7 0 3.7 1.1 5.3 5.3 7.5 3.4 1.7 5.4 2 12.1 1.6 4.5-.3 7.2-.1 6.1.3-3.3 1.3-14.3 1-17.9-.5-1.8-.7-4.2-2.6-5.4-4.2-2.1-2.8-2.1-2.9-1.5-.4.9 3.7 2.3 5.1 7.2 7.3 2.8 1.2 6.4 1.9 10.5 1.8 3.3 0 7.8.2 10 .5 3.3.5 3.6.8 2.4 2-1.9 1.9-13.2 3.7-18.3 2.8-2.2-.3-5.5-1.2-7.3-2-1.8-.7-3-.9-2.7-.4.3.5 2.7 1.6 5.3 2.4 2.6.8 3.8 1.5 2.7 1.5-2.8.1-9.7-3.2-11.5-5.5-1.4-1.8-1.4-1.8.5-.4 1.6 1.1 1.7 1.1.8 0-3-3.3-4.5-2.1-5.5 4.4-.4 2.6-6.9 2.9-7.6.4-.5-1.9-2.2-2.5-2.2-.8 0 .5-.4 1-1 1-.5 0-1-.9-1-2s-.6-2-1.3-2c-1.3 0-4.3-4-3.9-5.3.1-.5-.2-.6-.8-.2-.5.3-1 .1-1-.5 0-.7-.7-.9-1.6-.6-.8.3-1.2.2-.9-.4.8-1.3-1.7-1.3-5.2.1-4.1 1.7-12.3 1.8-12.3.2 0-.7-.6-1.3-1.4-1.3-.8 0-1.6-.4-1.8-1-.2-.6-.8-.6-1.8.1-1.3.8-1.2 1.1.4 2.4 1.1.8 1.5 1.5.9 1.5s-2 .3-3 .6c-1.5.5-1.5.4-.3-.5.8-.6 1.1-1.1.5-1.1-.5 0-1.1-1.1-1.1-2.5-.1-1.4.2-2.5.6-2.5.5 0 1.6-2.1 2.6-4.6 2.4-6.3 6.9-7.9 13.8-5zm4.3-.8c-.3.3-1.2.4-1.9.1-.8-.3-.5-.6.6-.6 1.1-.1 1.7.2 1.3.5zm214 20.6c-.2 1.8-.4.4-.4-3.2s.2-5 .4-3.3c.2 1.8.2 4.8 0 6.5zm-406.9-7c-.6 1.8-5.8 2-5.8.2 0-.9 1.1-1.4 3.1-1.4s2.9.4 2.7 1.2zm3.2.3c0 .8-.4 1.5-1 1.5-.5 0-1-.7-1-1.5s.5-1.5 1-1.5c.6 0 1 .7 1 1.5zm167.4-.3c-.6 1-6.1 1.1-6.7 0-.3-.4 1.2-.7 3.3-.7 2.1-.1 3.6.3 3.4.7zm214.6 2.7c0 .6-.4 1.3-1 1.6-.5.3-1-.1-1-.9 0-.9.5-1.6 1-1.6.6 0 1 .4 1 .9zM9 226c0 .5-.7 1-1.5 1s-1.5-.5-1.5-1c0-.6.7-1 1.5-1s1.5.4 1.5 1zm6 0c0 .5-.7 1-1.5 1s-1.5-.5-1.5-1c0-.6.7-1 1.5-1s1.5.4 1.5 1zm174 .5c-.7.8-1.8 1.5-2.4 1.5-.6 0-.2-.7.8-1.5 2.5-1.9 3.2-1.9 1.6 0zm19.3-.1c.9.7 1.7 1.8 1.7 2.3 0 .6.7 1.6 1.5 2.3.8.7 1.5 1.6 1.5 2.1s-1.4-.4-3.2-2.1c-3.3-3.2-6.9-4.6-8.7-3.5-.6.3-1.1.2-1.1-.4 0-2.2 5.6-2.7 8.3-.7zm-16.2 1.9c-1 .9-1.1.8-.5-.6.3-1 .9-1.5 1.2-1.2.3.3 0 1.1-.7 1.8zM15 229.5c0 .8-1.7 1.2-4.5 1.2-2.7 0-4.5-.4-4.5-1.1 0-.7 1.8-1.2 4.5-1.2 2.9-.1 4.5.4 4.5 1.1zm352-.5c0 .5-.4 1-1 1-.5 0-1-.5-1-1 0-.6.5-1 1-1 .6 0 1 .4 1 1zm9 .6c0 .8-.5 1.2-1 .9-.6-.4-.8-1.1-.5-1.6.9-1.4 1.5-1.1 1.5.7zm11.8 1.3c3 2.6 3.2 9.1.2 9.1-1.7 0-2-.7-2-3.9v-4l-3.7.5c-2.1.3-4.6.7-5.5.9-1 .2-2.1-.1-2.4-.6-.3-.5 1.8-.9 4.5-.9 3.9 0 5.1-.4 5.1-1.5 0-2 1-1.8 3.8.4zm-17.8 1.5c0 .3-.4.8-1 1.1-.5.3-1 .1-1-.4 0-.6.5-1.1 1-1.1.6 0 1 .2 1 .4zm14 2.6c0 .5-.7 1-1.6 1-.8 0-1.2-.5-.9-1 .3-.6 1-1 1.6-1 .5 0 .9.4.9 1zm16 2.4c0 2 .6 2.4 4 3 2.6.4 4 1.1 4 2.1 0 1.9-1.9 1.9-4.4 0-1.1-.8-3.1-1.5-4.5-1.5s-3.7-.3-4.9-.7l-2.4-.6 2.9-2.3c3.6-3 5.3-3 5.3 0zm19.4 23.6c-.2 8.2 0 10.2.6 7l.8-4.5-.2 4.5-.1 4.5-56.4.3c-55.2.2-71.1-.2-40.1-1.1 8.5-.2 16.4-.8 17.4-1.2 1.4-.6 1.7-.5 1.2.3-.4.7-.3 1.2.2 1.2s1-1.1 1-2.5c0-2.1-.3-2.3-2-1.4-1.1.6-2.2.8-2.5.6-1-1.1 3.5-2.5 10.1-3 3.8-.4 7.4-1.1 8-1.7.7-.7 0-.9-2.4-.4-2.6.4-3.1.3-2-.5.9-.7 1-1.1.3-1.1-.6 0-1.5.5-1.8 1-.5.8-1.1.8-2 0-.9-.8-1.5-.8-2 0-.3.5-1.2 1-1.8 1-1.9-.1 2.5-3 4.5-3 1 0 1.8-.5 1.8-1 0-.6-.5-1-1.1-1-.8 0-.8-.5.1-1.5.7-.8 2.2-1.4 3.4-1.4 2 .2 2 .2-.1.6-1.3.2-2.3.8-2.3 1.3 0 1.1 6.8 2.5 7.7 1.6.4-.3-.1-.6-1-.6-2.2 0-2.1-.8.3-4.5 1.7-2.6 2-2.7 2.6-1 .5 1.1.3 2-.4 2.3-1.5.5-1.6 2.2-.1 2.2 1.6 0 3.9-2.6 3.9-4.5 0-.8.7-1.8 1.5-2.1.8-.4 1.5-1.1 1.5-1.8 0-1.9 4.1-3.9 5.3-2.7.8.8.5 1.1-.9 1.1-2.2 0-4.4 4.1-4.3 7.9.1 2.5.1 2.5 1.5-.7 1.5-3.4 2.2-3.6 7.3-2.6 3.5.7 4.2 2.4.9 2.4-1.2 0-1.9.3-1.6.6.9.8 7.8-.7 7.8-1.7 0-.5-.9-.9-2-.9s-2-.5-2-1c0-.6-.9-1-2-1s-2-.5-2-1c0-.6.9-1 2-1s2 .4 2 1c0 .5.9 1 2 1 2.7 0 2.5-1.8-.2-2.2-1.8-.2-2.4-1.1-2.6-3.6-.2-2-.9-3.2-1.8-3.2-3 0-1.2-2 1.9-2.1l3.2-.2-3.5-.7-3.5-.7 4.3-.2c3.5-.1 4.2.2 4.2 1.8s.5 1.8 4 1.4c2.6-.4 4-.2 4 .6 0 .6-.5 1.1-1.1 1.1-.6 0-.3.7.6 1.6 1.3 1.4 2.1 1.5 4.1.5 3.3-1.5 6.9-1.4 9.4.1 1.7 1.1 2.2 1 3.1-.2.8-1.3 1.2-1.2 2.8.7 1.1 1.3 2.6 2.3 3.5 2.3 2.3 0 2-3.3-.4-4.8-1.1-.7-2-1.7-2-2.2 0-.6.9-1 2-1s2-.5 2-1.1c0-.5.5-.7 1-.4.6.3 1.1-.4 1.2-1.7.4-6.2 1.5 14.2 1.2 24.2zM230 238c0 .5-.4 1-1 1-.5 0-1-.5-1-1 0-.6.5-1 1-1 .6 0 1 .4 1 1zm137.7 1.2c-.3.8-.6.5-.6-.6-.1-1.1.2-1.7.5-1.3.3.3.4 1.2.1 1.9zm5.9-.1c1 1.7-1.3 3.6-2.7 2.2-1.2-1.2-.4-3.3 1.1-3.3.5 0 1.2.5 1.6 1.1zM9 242.6c0 1.6-1.6 1.9-2.5.4-.8-1.3.4-3.2 1.6-2.5.5.4.9 1.3.9 2.1zm2.6-.1c.1.8-.2 1.5-.7 1.5-.5 0-.9-1-.9-2.2 0-2.3 1.2-1.7 1.6.7zm3.1 0c0 .8-.4 1.5-.8 1.5-1.1 0-2-1.6-1.2-2.4 1.1-1.1 2-.7 2 .9zm353.3 1.4c0 1.4-.5 1.8-2 1.4-2.5-.7-2.6-2-.2-2.6.9-.3 1.8-.5 2-.6.1 0 .2.8.2 1.8zm-9 7.6c0 .3-1.6.5-3.5.5-3.6 0-4.8-1.6-1.7-2.3 1.6-.3 5.2.9 5.2 1.8zm-162.3 21.1c-.3.3-1.2.4-1.9.1-.8-.3-.5-.6.6-.6 1.1-.1 1.7.2 1.3.5zm-158 4.1c-.4.3-.2 1.2.4 1.9.7.8.6 1.4-.2 2-.7.4-.9.3-.5-.4.3-.6.2-1.3-.4-1.7-1-.6-.5-2.5.7-2.5.4 0 .3.3 0 .7zm142 0c-.4.3-.2 1.2.4 1.9.7.8.6 1.4-.2 2-.7.4-.9.3-.5-.4.3-.6.2-1.3-.4-1.7-1-.6-.5-2.5.7-2.5.4 0 .3.3 0 .7zm285.4.2c-.8.5-2 .7-2.8.4-2.1-.8-1.5-1.3 1.5-1.3 2 0 2.3.3 1.3.9zm-437.4 2.3c-.3.8-.6.5-.6-.6-.1-1.1.2-1.7.5-1.3.3.3.4 1.2.1 1.9zm4-.7c0 .8-.4 1.2-.9.9-.5-.3-.6-1-.3-1.5.9-1.3 1.2-1.1 1.2.6zm25.5 1.7c-.8.8-.9.4-.5-1.3.4-1.3.8-1.8 1.1-1 .2.7-.1 1.8-.6 2.3zm3.9-1.5c1.3 1.6 1.2 1.7-.3.4-1-.7-1.8-1.5-1.8-1.7 0-.8.8-.3 2.1 1.3zm9.6.5c-.3.8-.6.5-.6-.6-.1-1.1.2-1.7.5-1.3.3.3.4 1.2.1 1.9zm17 1c-.3.7-.5.2-.5-1.2s.2-1.9.5-1.3c.2.7.2 1.9 0 2.5zm11.3-1.7c0 .8-.2 1.5-.4 1.5s-.6-.7-1-1.5c-.3-.8-.1-1.5.4-1.5.6 0 1 .7 1 1.5zm17.7 1.7c-.3.7-.5.2-.5-1.2s.2-1.9.5-1.3c.2.7.2 1.9 0 2.5zm18-1c-.3.8-.6.5-.6-.6-.1-1.1.2-1.7.5-1.3.3.3.4 1.2.1 1.9zm2 0c-.3.8-.6.5-.6-.6-.1-1.1.2-1.7.5-1.3.3.3.4 1.2.1 1.9zm10 1c-.3.7-.5.2-.5-1.2s.2-1.9.5-1.3c.2.7.2 1.9 0 2.5zm26 0c-.3.7-.5.2-.5-1.2s.2-1.9.5-1.3c.2.7.2 1.9 0 2.5zm26.5 0c-.8.8-.9.4-.5-1.3.4-1.3.8-1.8 1.1-1 .2.7-.1 1.8-.6 2.3zm-155.5 0c-.3.8-.6.5-.6-.6-.1-1.1.2-1.7.5-1.3.3.3.4 1.2.1 1.9zm3.3-1.8c0 .3-.4.8-1 1.1-.5.3-1 .1-1-.4 0-.6.5-1.1 1-1.1.6 0 1 .2 1 .4zm81.5.6c.3.5.1 1-.4 1-.6 0-1.1-.5-1.1-1 0-.6.2-1 .4-1 .3 0 .8.4 1.1 1zm33 0c.3.5.1 1-.4 1-.6 0-1.1-.5-1.1-1 0-.6.2-1 .4-1 .3 0 .8.4 1.1 1zm23.8.5c-.3.9-.8 1.4-1 1.1-.3-.3-.2-.9.2-1.5.9-1.6 1.5-1.3.8.4zm-155.1 11c.3 1.4.1 2.5-.3 2.5-.5 0-.9-1.1-.9-2.5s.2-2.5.4-2.5.6 1.1.8 2.5zm84.9-.3v2.3l.9-2.3c1-2.2 3-3.1 3-1.1 0 .5-.4.7-1 .4-.5-.3-1 .1-1 1s.5 1.3 1 1c.6-.3 1-.2 1 .3s-1.2.9-2.7 1c-2.3 0-2.8-.4-2.8-2.4 0-3 1.5-3.2 1.6-.2zm230.7.3c-.3 3.3-1.6 3.3-1.4 0 0-1.4.4-2.5.8-2.5s.7 1.1.6 2.5zm4 1c-.2 1-.7 1.2-1.7.5-1.3-.7-1.3-1.1-.1-2.5 1.5-1.8 2.4-.8 1.8 2zm-319 11.2c-1 .2-1.8.9-1.8 1.5 0 .5.7.8 1.5.4.8-.3 1.5-.1 1.5.4 0 1.3-2.7 1.3-3.5 0-.9-1.5.4-3 2.3-2.9 1.5.1 1.5.2 0 .6zm6.2 1.9c0 .8-.5 1.4-1.1 1.4-.5 0-.7-.6-.3-1.3.5-.8.2-.8-.9.2-1.5 1.2-1.7 1.1-1.7-.7 0-1.5.5-1.9 2-1.5 1.1.3 2 1.2 2 1.9zm5.8-1.3c.6-.3 1.2.2 1.2 1.1 0 1.1-.9 1.6-3 1.6-2.4 0-3-.4-3-2s.4-1.9 1.8-1.2c.9.5 2.3.7 3 .5zm2.9 1.9c-.3.7-.5.2-.5-1.2s.2-1.9.5-1.3c.2.7.2 1.9 0 2.5zM69 303c0 .5-.2 1-.4 1-.3 0-.8-.5-1.1-1-.3-.6-.1-1 .4-1 .6 0 1.1.4 1.1 1zm-8.8 1.2c-.9.9-1.5.9-2.4 0-.9-.9-.7-1.2 1.2-1.2s2.1.3 1.2 1.2zm8.5 6c-.3.8-.6.5-.6-.6-.1-1.1.2-1.7.5-1.3.3.3.4 1.2.1 1.9zm34 0c-.3.8-.6.5-.6-.6-.1-1.1.2-1.7.5-1.3.3.3.4 1.2.1 1.9zm3.4-1.3c.7-1.1.9-1 .9.4 0 2-2.2 1.9-2.6-.1-.2-.9-.1-.9.3-.1s.8.7 1.4-.2zm40.2-.1c.4-.8.6-.7.6.4.1 2-1.4 2.4-2.5.7-.4-.8-.9-.7-1.5.2-.5.8-.9.9-.9.3 0-1.8 1.2-2.4 2.6-1.3.8.7 1.4.6 1.7-.3zm40 0c.4-.9.6-.8.6.3.1 1.1-.7 1.6-2.3 1.6-1.7 0-2.3-.4-1.9-1.4.4-1 .9-1.1 1.8-.3s1.4.7 1.8-.2zm40.7.7c0 .8-.4 1.5-1 1.5-.5 0-.7-.7-.4-1.5.4-.8.8-1.5 1-1.5.2 0 .4.7.4 1.5zm37 .6c0 .5-.4.9-.8.9-.5 0-.9-.7-.9-1.5s.4-1.2.9-.9c.4.3.8.9.8 1.5zm3-.6c0 .8-.4 1.5-1 1.5-.5 0-.7-.7-.4-1.5.4-.8.8-1.5 1-1.5.2 0 .4.7.4 1.5zm35.4 0c.3.8.1 1.5-.4 1.5-.6 0-1-.7-1-1.5s.2-1.5.4-1.5.6.7 1 1.5zm3 0c.3.8.1 1.5-.4 1.5-.6 0-1-.7-1-1.5s.2-1.5.4-1.5.6.7 1 1.5zm40 0c.3.8.1 1.5-.4 1.5-.6 0-1-.7-1-1.5s.2-1.5.4-1.5.6.7 1 1.5zm37.6.6c0 .5-.4.9-1 .9-.5 0-1-.7-1-1.6 0-.8.5-1.2 1-.9.6.3 1 1 1 1.6zm2.4-.6c.3.8.1 1.5-.4 1.5-.6 0-1-.7-1-1.5s.2-1.5.4-1.5.6.7 1 1.5zm38.2-.6c1.1-.9 1.4-.8 1.4.2 0 1.1.3 1.1 1.1-.1.9-1.3 1-1.3.6 0-.5 1.8-4.9 2-5.3.2-.1-.7 0-.8.3-.2.3.8.9.7 1.9-.1zm41.4.6c0 .8-.4 1.5-1 1.5-.5 0-.7-.7-.4-1.5.4-.8.8-1.5 1-1.5.2 0 .4.7.4 1.5zm3 0c0 .8-.4 1.5-1 1.5-.5 0-.7-.7-.4-1.5.4-.8.8-1.5 1-1.5.2 0 .4.7.4 1.5zm-440 7.2c0 2.2-1.1 3.7-2.7 4-.8.2-1.3-.8-1.3-2.7 0-2.3.4-3 2-3 1.2 0 2 .7 2 1.7zm14.8 2.7c.1 1.5-.1 1.7-.7.7-.7-1.1-.9-1.1-1.4 0-.3.9-.6.6-.6-.7-.1-2.7 2.5-2.7 2.7 0zm7.2-.6c0 1.4-.8 1.9-3 1.9-1.9 0-3-.5-3-1.4 0-1 .7-1.2 1.9-.8 1.1.3 2.2.1 2.6-.5.9-1.5 1.5-1.2 1.5.8zm8.8-1.1c-1 .2-1.8.9-1.8 1.5 0 .5.7.8 1.5.4.8-.3 1.5-.1 1.5.4 0 1.3-2.7 1.3-3.5 0-.9-1.5.4-3 2.3-2.9 1.5.1 1.5.2 0 .6zm14.2 1c0 .3-.7.2-1.6-.1-1.1-.4-1.5-.2-1.1.8.3.8-.2 1.6-1.4 1.9-1.4.4-1.9 0-1.9-1.3 0-1 .8-2 1.8-2.2 1.8-.5 4.2.1 4.2.9zm-19.6.8c-.4.8-1 1.5-1.5 1.5s-.9-.7-.9-1.5.7-1.5 1.5-1.5c.9 0 1.2.6.9 1.5zm8.3.7c-.3.8-.6.5-.6-.6-.1-1.1.2-1.7.5-1.3.3.3.4 1.2.1 1.9zm4.3-.6c0 .8-.4 1.2-1 .9-.5-.3-1-1-1-1.6 0-.5.5-.9 1-.9.6 0 1 .7 1 1.6zm27.7 1.6c-.3.7-.5.2-.5-1.2s.2-1.9.5-1.3c.2.7.2 1.9 0 2.5zm7.9-2c.5.7.3.8-.6.3-1-.6-1.2-.4-.6 1.1.5 1.4.4 1.6-.5.7-.6-.6-.8-1.6-.5-2.2.9-1.4 1.3-1.4 2.2.1zm9.1 1c-.3.8-.6.5-.6-.6-.1-1.1.2-1.7.5-1.3.3.3.4 1.2.1 1.9zm3 0c-.3.8-.6.5-.6-.6-.1-1.1.2-1.7.5-1.3.3.3.4 1.2.1 1.9zm3.8.8c-.5.8-1.1.8-1.7.2-.6-.6-.7-1.6-.3-2.2.5-.8 1.1-.8 1.7-.2.6.6.7 1.6.3 2.2zM98 320c0 .5-.5 1-1.1 1-.5 0-.7-.5-.4-1 .3-.6.8-1 1.1-1 .2 0 .4.4.4 1zm47 33.2v16.3l-10.4-.1c-5.7-.1-10.9-.4-11.5-.8-.6-.4-1.1-.2-1.1.3 0 .6-.9 1.1-2 1.1s-2-.5-2-1c0-.6-.9-1-2-1s-2 .4-2 1c0 .5-.7 1-1.5 1s-1.5-.5-1.5-1.1c0-.7-1-.9-2.5-.7l-2.5.5v-31.4l19.5-.2 19.5-.2v16.3zm51-.2c0 12.1-.3 16-1.2 16.1-12.5.5-25.8.4-25.8-.3 0-.4-.9-.8-2-.8s-2 .4-2 1c0 1.5-2.7 1.2-3.3-.5-.4-.8-1.5-1.2-2.7-1-1.9.4-2 0-2-15v-15.4h39V353zm41.8-14.3l-7.8.4V350l4.7-2.5c2.7-1.4 5.6-2.5 6.6-2.5 1.4 0 1.6-.5 1.1-2.5-.4-1.8-.2-2.5.8-2.5 2.2 0 2.9 1.2 1.6 2.7-1.5 1.8-.6 2.5 5 4 7.8 2 8.2 1.9 8.2-3.2v-4.4l-6.2-.4c-5.1-.2-4.5-.4 3-.5l9.3-.2-.2 16c0 11.4-.4 16-1.2 16-16.4.5-25.7.5-25.7-.2 0-.4-.9-.8-2-.8s-2 .4-2 1c0 .5-.9 1-2 1s-2-.5-2-1c0-.6-.9-1-2-1-1.9 0-2-.7-2.1-13.3 0-7.2-.2-14.2-.3-15.5-.3-2.2-.1-2.2 10.3-2 9.5.2 9.8.2 2.9.5zM421 355.4c0 14.8-.7 19.4-2.3 15.3-.4-.9-.8-.8-1.6.3-1 1.3-1.2 1.3-2.1 0-.6-.9-1-1-1-.3 0 .6-.8 1.1-1.9 1-1.5-.1-1.8-.7-1.4-3.7.4-2.9.2-3.7-1.1-3.7-1 0-1.6.9-1.6 2.4 0 2.8-2.6 3.1-3.3.4-.6-2.6-6-2.4-6.5.2-.5 2.4 4.5 2.4 5.1-.1.4-1.3.5-1.1.6.5 0 1.3.6 2.3 1.1 2.3.6 0 1 .4 1 .8 0 .9-5.3.7-6.9-.3-.6-.3-1.1-.1-1.1.4 0 1.2-4 1.5-4 .3 0-.4-.3-1.8-.5-3.2-.5-2.4-.5-2.4.4-.3 1.4 3 2.8 2.9 3.3-.2.5-2.2.2-2.5-2.5-2.5-2.6 0-2.9.3-2.5 2.5.4 1.7.1 2.5-.8 2.5-.8 0-1.4.4-1.4 1 0 .5-.9 1-2 1s-2-.5-2-1.1c0-.6-.9-.9-2-.6-1.9.5-2 0-2-15.3v-15.7l19.5-.2 19.5-.2v16.5zm-74.2-14.7l-5.8.4V362h29v-22h5v14.9c0 17.4-.2 18.4-3.6 17.1-1.3-.5-2.4-.7-2.4-.4 0 .4-.8 0-1.7-.7-1.5-1.2-1.6-1.2-1.1.3.5 1.1.2 1.5-1 1.3-.9-.1-1.6-.7-1.5-1.2.1-.5-1.3-1-3-1-2.9-.2-3-.1-.9.7 1.2.5 2.2 1.1 2.2 1.2 0 .2-3.1.4-6.9.5l-7 .2.1-3.2c.1-1.8.3-2.6.5-2 .6 1.8 4.3 1.6 4.3-.2 0-1-1-1.5-3.1-1.5-2.7 0-3.1.3-2.6 2.1.4 1.5 0 2.3-1.4 2.6-1 .3-1.9.9-1.9 1.4 0 .5-.7.9-1.5.9s-1.5-.7-1.5-1.5-.6-1.2-1.4-.9c-2.7 1-3.6-3.3-3.6-17V340l8.3.2c6.8.1 7.2.2 2.5.5zm18.5 0c-2.4.2-6.2.2-8.5 0-2.4-.2-.5-.4 4.2-.4s6.6.2 4.3.4zm-8.7 3.5c-.3 1.3-.6 3-.6 3.8-.1.8-.8.3-1.6-1.3-1.6-3-1.2-4.7 1.3-4.7 1.1 0 1.4.6.9 2.2zm39.1 24c-.3.8-.6.5-.6-.6-.1-1.1.2-1.7.5-1.3.3.3.4 1.2.1 1.9zm13.8 1.7c-.3.6-1.1 1.1-1.7 1.1-.6 0-.6-.6.2-1.5 1.4-1.7 2.6-1.3 1.5.4zM145 380.8v5.8l-3.5-.4c-1.9-.2-4.8.1-6.5.6-2.3.9-3.3.8-4.5-.4-1.1-1.2-1.5-1.2-1.5-.2s-.2 1.1-.8 0c-.7-.9-1.5-1-3.5-.3-2 .8-2.7.7-2.7-.2 0-.9-.2-.9-.8 0-.8 1.2-4.1 1.1-6.1-.2-.5-.3-1.2-.1-1.6.5-.3.5-2.1.9-4 .8l-3.5-.1V375h39v5.8zm51-.4c0 6.2-.2 6.3-8.2 6.1-3.5-.1-5.8.3-5.9.9 0 .6-.4.2-.9-.9-.6-1.3-.9-1.5-.9-.5-.1 1.3-.2 1.3-1.2 0-.8-1.1-1.2-1.2-1.5-.3-.4.8-1.3.9-3 .3-1.6-.6-3.3-.6-4.9.2-1.8.8-2.8.8-3.8 0-.8-.7-1.7-.9-2.1-.5-.3.4-2 .7-3.6.8l-3 .1V375h39v5.4zm-82 9.7c0 .5-.7.9-1.5.9-1.5 0-2-1.2-.9-2.3.8-.8 2.4.1 2.4 1.4zm8-.1c0 .5-.9 1-2 1s-2-.5-2-1c0-.6.9-1 2-1s2 .4 2 1zm43 0c0 .5-.7 1-1.5 1s-1.5-.5-1.5-1c0-.6.7-1 1.5-1s1.5.4 1.5 1zm8 0c0 .5-.9 1-2 1s-2-.5-2-1c0-.6.9-1 2-1s2 .4 2 1zm89 0c0 .5-.9 1-2 1s-2-.5-2-1c0-.6.9-1 2-1s2 .4 2 1zm-52.7.7c-.7.2-1.9.2-2.5 0-.7-.3-.2-.5 1.2-.5s1.9.2 1.3.5zm8.7.3c0 .5-.9 1-2 1s-2-.5-2-1c0-.6.9-1 2-1s2 .4 2 1zm35.3-.3c-.7.2-1.9.2-2.5 0-.7-.3-.2-.5 1.2-.5s1.9.2 1.3.5zM143 420.4c0 1.1-1.9 1.5-2.5.6-.3-.5.1-1 .9-1 .9 0 1.6.2 1.6.4zm8 .6c0 .5-.9 1-2 1s-2-.5-2-1c0-.6.9-1 2-1s2 .4 2 1zm124.3-.3c-1.4.5-1.9 11.3-.5 11.3.4 0 1.4-.4 2.1-.9.9-.6 2.2-.6 3.2 0 1.2.6 2 .5 2.5-.3.4-.6.3-.8-.4-.4-.6.3-1.3.2-1.7-.4-.3-.5-.2-1 .4-1 .5 0 1.5-.2 2.3-.5.7-.3 2.2.1 3.2.8 1.6 1.2 1.6 1.4.2 1.4-.9 0-1.6-.5-1.6-1.1 0-.6-.7 0-1.6 1.2-.8 1.2-2 1.9-2.6 1.6-.7-.5-.9-.1-.5.9.3 1 .2 1.7-.3 1.7-1.6 0-1.1 2 .8 3.8 1 1 1.1 1.2.2.7-1.2-.8-1.3-.7-.3.5 1.3 1.7 9.7 1.9 14.2.5 1.7-.6 2.2-.5 1.7.3-.4.7-.5 1.2-.2 1.2s1-1 1.7-2.2c1-1.8.9-2-.7-1.4-1.7.7-1.7.6.1-1.4 1-1.1 2.4-2 3.2-2 1 0 1.3-1.8 1.3-7v-6.9l-12.7-.4-12.8-.3 15.8-.2 15.7-.2v32.9l-2.2-.8c-1.8-.7-2.2-1.6-2-3.7l.2-2.9-1.5 2.5c-1.7 2.9-1.9 4.4-.5 3.5.6-.3 1-.1 1 .4 0 1.3-.3 1.3-2.4.5-1.3-.5-1.4-.9-.5-2 .8-1 .8-1.4 0-1.4-1.8 0-1.3-1.8.7-2.3 1.3-.4 1.1-.5-.5-.6-1.5-.1-2.3.5-2.4 1.6-.1 1-.2 2.2-.4 2.8-.1.5-.3 1.4-.3 1.9-.1.5-1 .2-1.9-.5-.9-.8-1.4-1-1.1-.4.4.6-2 1-6.3 1.1-3.8.1-6.9-.2-6.9-.7 0-.5-.9-.9-2-.9s-2 .4-2 1c0 .5-.9 1-2 1-1.6 0-2-.6-1.9-3.3 0-2.7.2-2.9.9-1.2l.9 2 .1-2c.1-2 .2-2 .9-.1.8 2 .8 2 1.3 0 .4-1.6 0-2-2.3-2.2-2.5-.2-2.9.1-2.9 2.3 0 1.5-.4 2.4-.9 2.1-.5-.4-1.2 0-1.4.6-.3.7-.6-6-.6-15L269 420l3.8.1c2 0 3.1.3 2.5.6zM288 424c0 .5-.4 1-1 1-.5 0-1-.5-1-1 0-.6.5-1 1-1 .6 0 1 .4 1 1zm-61 .4c0 1.1-1.9 1.5-2.5.6-.3-.5.1-1 .9-1 .9 0 1.6.2 1.6.4zm8 .6c0 .5-.9 1-2 1s-2-.5-2-1c0-.6.9-1 2-1s2 .4 2 1zm53.4 11.1c-.8 1.4-4 1.5-5.2.2-1.1-1.1-.7-1.3 2.2-1.1 1.9.2 3.2.6 3 .9zm-146.4 23c0 13.7-.2 16-1.6 16.6-.9.3-2 0-2.5-.8-.6-1.1-.9-1.1-.9-.1 0 .9-.5 1-1.8.3s-2.3-.6-3 .1c-.9.9-1.2.9-1.2-.1 0-.7-.5-.9-1.2-.5-1.8 1.1-8.8 1.2-8.8.2 0-.5-.9-.4-1.9.2-2.5 1.3-4.1 1.3-2.1 0 1.1-.7.5-1-2.2-1-2.1 0-3.8.4-3.8 1 0 1.6-2.7 1.2-3.4-.5-.4-1.3-1-1.4-2.6-.5-2 1.1-2 .8-2-15v-16.1l19.5.1 19.5.1v16zm47-11c0 .5-.9.9-2 .9s-2-.4-2-.8.9-.8 2-.9c1.1-.1 2 .2 2 .8zm-8.7.6c-.7.2-1.9.2-2.5 0-.7-.3-.2-.5 1.2-.5s1.9.2 1.3.5zm28.4 17.5c-.3.7-.5.2-.5-1.2s.2-1.9.5-1.3c.2.7.2 1.9 0 2.5zM214 478c0 .5-.9 1-2 1s-2-.5-2-1c0-.6.9-1 2-1s2 .4 2 1zm-8.3.6c-.3.3-1.2.4-1.9.1-.8-.3-.5-.6.6-.6 1.1-.1 1.7.2 1.3.5zm-54 7.6c-.3.7-.5.2-.5-1.2s.2-1.9.5-1.3c.2.7.2 1.9 0 2.5zm1.6 11.5c-.7.2-1.9.2-2.5 0-.7-.3-.2-.5 1.2-.5s1.9.2 1.3.5zm8.7.3c0 .5-.9 1-2 1s-2-.5-2-1c0-.6.9-1 2-1s2 .4 2 1zm3.7 12.2c-.3.7-.5.2-.5-1.2s.2-1.9.5-1.3c.2.7.2 1.9 0 2.5zm14.1 6.6c3.4.2 4.4.6 5.1 2.4.5 1.4.4 3.2-.2 4.5-1 2.2-1.4 2.2-19.8 2.3H146l-.6-2.6c-.4-1.4-.2-3.5.3-4.7 1-2.1 1.6-2.2 15.4-2.1 7.9 0 16.3.1 18.7.2z"/><path d="M239 7c0 .5.5 1 1 1 .6 0 1-.5 1-1 0-.6-.4-1-1-1-.5 0-1 .4-1 1zm-45 0c0 .5.5 1 1 1 .6 0 1-.5 1-1 0-.6-.4-1-1-1-.5 0-1 .4-1 1zm268.9 48.7l-2.4 2.8 2.8-2.4c2.5-2.3 3.2-3.1 2.4-3.1-.2 0-1.4 1.2-2.8 2.7zM332 54c0 .5.4 1 .9 1s1.6.3 2.5.6c1.1.4 1.6.1 1.6-1 0-1-.9-1.6-2.5-1.6-1.4 0-2.5.4-2.5 1zm52.1 0c-.1.8.8 2.1 1.9 2.8 1.7 1 2 1 2-.3 0-.8-.6-1.5-1.4-1.5-.8 0-1.7-.6-1.9-1.3-.4-.8-.6-.7-.6.3zM239.6 70.6c-1 2.5.1 2.9 1.4.5.6-1.2.7-2.1.1-2.1-.5 0-1.2.7-1.5 1.6zM214 159c0 .5.5 1 1 1 .6 0 1-.5 1-1 0-.6-.4-1-1-1-.5 0-1 .4-1 1zm3 2c-.8.5-1.1 1.2-.7 1.6.4.4 1.5 0 2.4-.9 1.8-1.8.8-2.3-1.7-.7zm-17.3 12.3c.3.5-.1 1.3-.8 1.8-1.1.7-1.1.9-.1.9 1.3 0 4.2-2.3 4.2-3.4 0-.2-.9-.4-1.9-.3-1.1 0-1.7.5-1.4 1zm-6.9 6c-.7.8-2 1.7-2.8 2-.8.3-.4.5 1 .4 2.9-.3 5-1.4 5-2.8 0-1.3-1.6-1.1-3.2.4zm-20.1 25.8c.7.7 1.5 1 1.8.7.3-.3-.2-.9-1.2-1.2-1.4-.6-1.5-.5-.6.5zM10 72c-.9.6-1 1-.3 1 .6 0 1.5-.5 1.8-1 .8-1.2.4-1.2-1.5 0zm2 86c0 1.3.5 2 1.3 1.7.6-.2 1.2-1 1.2-1.7s-.6-1.5-1.2-1.8c-.8-.2-1.3.5-1.3 1.8zm250.5 60c.3.5 1.1 1 1.6 1 .6 0 .7-.5.4-1-.3-.6-1.1-1-1.6-1-.6 0-.7.4-.4 1zm-74.8-3.3c-.3.5-.1 1.7.4 2.8.6 1.7.7 1.6.6-.8-.1-2.8-.3-3.2-1-2zM417.3 248c0 4.7.2 6.6.4 4.2.2-2.3.2-6.1 0-8.5-.2-2.3-.4-.4-.4 4.3zm-34-4.3c-2 .7-1.6 4.3.5 4.3 1.4 0 1.8.8 1.8 3.7-.1 2.1-.5 4.1-1.1 4.5-.5.4 1 .7 3.5.7 3.4-.1 3.9-.3 2-.8-2.1-.5-2.5-1.2-2.5-4.1 0-2.9.4-3.6 2.5-4.1 2.5-.7 2.4-.7-.4-.8-2-.1-2.7-.5-2.3-1.5.6-1.5-1.9-2.6-4-1.9z"/><path d="M399.1 248.1c.9.6-.2.9-3.3.9-2.7 0-4.8.4-4.8 1 0 .5 2 1 4.5 1s4.5-.5 4.5-1c0-.6 1.9-1 4.2-1 5.4 0 4.6-.6-1.6-1.3-3-.3-4.3-.1-3.5.4zm-8.1 5.8c0 1 15.9 2.6 16.8 1.7.3-.3-1.3-.6-3.6-.6s-4.2-.5-4.2-1c0-.6-2-1-4.5-1s-4.5.4-4.5.9zm-25.3 5.8c-1.2 1.1-.8 2.3.8 2.3.8 0 1.5-.7 1.5-1.5 0-1.6-1.2-2-2.3-.8zm6.3 3.3c0 .5.5 1 1.1 1 .5 0 .7-.5.4-1-.3-.6-.8-1-1.1-1-.2 0-.4.4-.4 1zm-261 80.5c0 3 .2 5.5.5 5.5s2.8-1.1 5.6-2.5c2.7-1.4 5.5-2.3 6.1-1.9.7.5.9-.1.4-1.9-.3-1.4-.2-2.8.2-3.1 1.4-.9 2.9.9 2.8 3.3-.1 2.1.6 2.6 5.4 3.7 8.1 1.9 8 2 8-3.6v-5h-29v5.5zm17.7 10l-2.8 3.5h3c1.6 0 3.3-.5 3.6-1 .3-.6-.2-1-1.2-1-1.2 0-.9-.5 1.2-1.6 4.7-2.4 5.3-3.4 2-3.4-2.2 0-3.7.9-5.8 3.5zm1.3 10c-1 1.2-1 1.9-.2 2.7 1.7 1.7 3.7-.5 2.5-2.7-.9-1.5-1.1-1.5-2.3 0zm4.1 1.2c0 2.4.1 2.5.8.8l.8-2 .5 2c.5 1.6.6 1.4.7-.8.1-1.8-.4-2.7-1.4-2.7-1 0-1.5.9-1.4 2.7zm-20.4.3c-.3 1.1-.1 2 .4 2s.9-.8 1-1.8c0-1.4.2-1.4.7-.2 1.1 2.4 4.2 2.4 4.2 0 0-2.8-5.5-2.9-6.3 0zm7.3 0c0 2.5 3.6 2.7 4.4.2.3-.9.4-.5.2.9-.2 2.2.1 2.5 1.8 2.1 1.1-.3 1.5-.7.8-1-.6-.2-1.2-1-1.2-1.7 0-2-2.1-3-3.1-1.4-.6 1-.9 1.1-.9.1 0-.6-.4-1.2-1-1.2-.5 0-1 .9-1 2zm41-16v11h29v-22h-29v11zm1.3 15.8c-.3.7-.3 1.6.1 1.9.3.4.6 0 .6-.9 0-2 3-1.9 3.1.1 0 1.2.3 1.1.9-.4.8-1.8.9-1.8.9-.2.1 1 .6 1.5 1.1 1.2 1.8-1.1-.9-3.5-3.7-3.3-1.4.2-2.8.8-3 1.6zm8 .1c.2 2.7 2.5 3.5 2.3.8-.1-1.1-.6-2.2-1.3-2.4-.7-.3-1.1.4-1 1.6zm3.6.3c1 2.7 5.4 3.3 8.8 1.2 1.2-.8 2.6-1.4 3-1.4.4 0 .2.4-.6.9-.9.6-.5.8 1.4.8s2.3-.2 1.4-.8c-1.1-.7-1.2-1.1-.1-1.7.8-.5-.9-.9-4.3-.9-4.4 0-5.5.3-5.3 1.6.2.8-.5 1.7-1.4 1.9-1.3.2-1.8-.3-1.8-1.7 0-1.2-.4-2.1-1-2.1s-.6.9-.1 2.2zm7.2 1.1c-1 .9-1.1.8-.5-.6.3-1 .9-1.5 1.2-1.2.3.3 0 1.1-.7 1.8zm60.1-16.6c.7.9.7 1.3-.2 1.3-.8 0-1.1.3-.8.6.7.7 4.8-1.4 4.8-2.4 0-.4-1.1-.7-2.4-.7-1.8 0-2.2.3-1.4 1.2zm4.1 3.3c-1.2 1.1-2.8 2-3.5 2-.9 0-.9.3.2 1 2.8 1.8-.5 1-3.6-.9l-3.1-1.9.5 2.3c.4 2.1 3.8 4.5 6.5 4.5 1.5 0 6-6.5 5.5-8-.2-.6-1.2-.2-2.5 1zm9.9 12c0 1.4.2 1.9.5 1.2.2-.6.2-1.8 0-2.5-.3-.6-.5-.1-.5 1.3zm-21.5.6c.4 1.1.8 1.2 1.3.4.6-.9.9-.9 1.3.1s.6.9.6-.4c.1-1.1-.6-1.7-1.9-1.7-1.4 0-1.8.5-1.3 1.6zm4.3-.1c0 .8.5 1.5 1 1.5.6 0 1-.7 1-1.5s-.4-1.5-1-1.5c-.5 0-1 .7-1 1.5zm3.6 0c.4.8.8 1.5 1 1.5.2 0 .4-.7.4-1.5s-.4-1.5-1-1.5c-.5 0-.7.7-.4 1.5zm4.4 0c0 .8.4 1.5.8 1.5.5 0 .9-.7.9-1.5s-.4-1.5-.9-1.5c-.4 0-.8.7-.8 1.5zm2.7-.9c-.8.8.1 2.4 1.2 2.4.4 0 .8-.7.8-1.5 0-1.6-.9-2-2-.9zm3.3.9c0 .8.4 1.5.8 1.5.5 0 .9-.7.9-1.5s-.4-1.5-.9-1.5c-.4 0-.8.7-.8 1.5zm-8.2 3.2c.7.3 1.6.2 1.9-.1.4-.3-.2-.6-1.3-.5-1.1 0-1.4.3-.6.6zM387 346v6l5-2.5c5.2-2.6 8-3.2 8-1.5 0 .5.6.7 1.4.4.7-.3 4.1.1 7.5.9l6.1 1.4V340h-28v6zm15-3c0 .5-.2 1-.4 1-.3 0-.8-.5-1.1-1-.3-.6-.1-1 .4-1 .6 0 1.1.4 1.1 1z"/><path d="M398.6 350.9c.5.5 1.8 1.2 2.9 1.5 1.1.3.2.3-2 .1-3.7-.4-3.8-.4-1.2.6 1.5.6 3.4.8 4.2.5 2.3-.9.6-3.6-2.3-3.6-1.6 0-2.2.4-1.6.9zm-5.4 4.2c.3.8 1.9 2.2 3.7 3.3l3.3 1.9 3.1-3.2c1.7-1.7 2.6-3.1 1.9-3.1-.6 0-1.2.4-1.2 1 0 1.3-6.6 1.3-9.2-.1-1.6-.9-1.9-.8-1.6.2zM361.7 367c-.6 2.3.3 2.6 2.1.8 1.6-1.6 1.5-2.8-.2-2.8-.7 0-1.6.9-1.9 2zm-7.7.5c0 .8.5 1.5 1 1.5.6 0 1-.7 1-1.5s-.4-1.5-1-1.5c-.5 0-1 .7-1 1.5zm3-.1c0 .9.7 1.6 1.6 1.6 1.7 0 1.4-2.2-.4-2.8-.7-.2-1.2.3-1.2 1.2zm-3 4c.7.7 1.3.7 2 0 .6-.6.3-1-1-1s-1.6.4-1 1zm-237.4 7.3c-.4.9-.2 2.1.4 2.7.7.7 1 .2 1-1.7 0-3.1-.5-3.4-1.4-1zm5-.1c-.8 2.1 0 3.3 2.1 3 2.5-.4 2.7-2.3.5-3.5-1.6-.8-2.1-.7-2.6.5zm8 .1c-.4.9-.2 2.1.4 2.7.7.7 1 .2 1-1.7 0-3.1-.5-3.4-1.4-1zm5.8.9c-.1 1.3.1 2.4.5 2.4.9 0 1.2-3.8.3-4.4-.4-.2-.8.7-.8 2zm-20.9-.5c-.4.6-.5 1.2-.2 1.5.2.3.7-.2 1-1.1.7-1.7.1-2-.8-.4zm4.5.9c0 1.1.4 2 .9 2s.7-.9.4-2c-.3-1.1-.7-2-.9-2-.2 0-.4.9-.4 2zm8 .7c0 1.4.3 2.3.7 1.9 1-1 1.1-4.6.1-4.6-.4 0-.8 1.2-.8 2.7zm5.3-.2c-.3.9-.3 1.8-.1 2.1.3.3.8-.4 1.1-1.6.6-2.3-.1-2.7-1-.5zm35.8-2.7c-.1.7-.6 1-1.2.6-.7-.4-.6.3.2 1.7 1.1 2.1 1.4 2.1 1.7.6.2-.9.1-2.3-.1-3-.4-.9-.6-.9-.6.1zm4.3 1.5c-.7 2.1-.7 2.1-1.5.2-.7-1.9-.8-1.9-.8.2-.1 1.7.5 2.3 1.9 2.3 1.1 0 2-.6 2-1.4 0-.8.5-1.6 1.2-1.8.8-.3.6-.7-.4-1.1-1.2-.4-1.9.1-2.4 1.6zm8.3-.9c-.7 1.8.7 4.6 2.3 4.6.4 0 1-1 1.3-2.3.6-2.1.5-2.1-.8-.4-1.3 1.8-1.4 1.7-1.7-1-.2-2.4-.4-2.5-1.1-.9zm5.7 1.1c0 1.4.4 2.5.8 2.5s.8-1.1.8-2.5-.4-2.5-.8-2.5-.8 1.1-.8 2.5zm-8.4 1.2c0 1.4.3 2.3.7 1.9 1-1 1.1-4.6.1-4.6-.4 0-.8 1.2-.8 2.7zM299 437c0 .5.4 1 .9 1 .6 0 1.3-.5 1.6-1 .3-.6-.1-1-.9-1-.9 0-1.6.4-1.6 1zm.5 3c-.3.6.1.7.9.4 1.8-.7 2.1-1.4.7-1.4-.6 0-1.3.4-1.6 1zm-20.5 8.1c0 2.4 3.7 2.6 4.3.1.4-1.3.5-1.1.6.5.1 2.8 2.2 2.9 6.2.6 3.6-2.1 3.7-3.1.4-3.1-1.8 0-2.5.6-2.5 1.9 0 1.1-.6 1.9-1.4 1.9-.7 0-1.6-.8-1.9-1.9-.3-1.2-1.3-1.9-3.1-1.9-1.9 0-2.6.6-2.6 1.9zm15.4-.5c.3.8.2 1.3-.2 1-.4-.2-1.4-.1-2.1.3-.9.6-.4.8 1.3.8 1.9 0 2.6-.5 2.6-1.8 0-1.1-.5-1.9-1.1-1.9-.6 0-.8.7-.5 1.6zm-172.4-3c1.1.4 1.5 1.9 1.4 6.7l-.2 6.2-7.6.3-7.6.3v3.9c0 3.6.3 4 2.5 4 2.1 0 2.5-.5 2.5-3 0-2.7.3-3 3.1-3 2.4 0 3 .4 2.5 1.5-1.4 3.7.3 4.5 9.5 4.5h8.9v-3c0-2.3-.4-3-2-3-1.1 0-2-.5-2-1 0-.6.9-1 2-1 1.8 0 2-.7 2-7v-7l-8.2.1c-4.6.1-7.6.3-6.8.5zm6 14.4c0 .5-.7 1-1.5 1s-1.5-.5-1.5-1c0-.6.7-1 1.5-1s1.5.4 1.5 1zm-18.6 10.5c-.8 2.1.2 3.2 3.1 3.2 1.5 0 2.2-.4 1.8-1.1-.4-.6 0-.5.9.2 2.1 1.6 3.3-.1 1.9-2.5-.6-1-1.1-1.2-1.1-.6 0 .9-.7 1-2.6.3-3.3-1.3-3.4-1.3-4 .5zm2.7.8c-.1 1.2-1.5.9-1.9-.4-.3-.6.1-1 .8-.8.6.3 1.1.8 1.1 1.2z"/><path d="M121 468.9c-2.6.6-3.8 4.1-1.4 4.1.8 0 1.4-.8 1.4-1.8.1-1.6.1-1.6 1.1.1.5.9.7 2.3.3 3-.5.8-.2.7.9-.2 1.7-1.3 2.4-6.2 1-6-.5.1-1.9.4-3.3.8zm13 1.2c0 1.1-.5 1.7-1 1.4-.6-.4-.8-1.1-.5-1.6.4-.5-.3-.9-1.4-.9-1 0-2.2.6-2.4 1.2-.4 1-.6 1-.6 0-.2-2.3-2.1-1.2-2.1 1.2 0 1.9.4 2.3 2 1.9 1.1-.3 2-1.2 2-2s.4-1.2 1-.8c.5.3.7 1.2.4 1.9-.4 1 .2 1.2 1.9.9 1.9-.4 2.3-1 1.9-2.9-.5-2.9-1.2-3.1-1.2-.3zm25.1 51.2c-.1 2.4.1 2.6 1.8 1.5 1.1-.7 1.7-1.6 1.5-2-.3-.5-.9-.6-1.4-.3-.4.3-1.1-.1-1.3-.7-.3-.7-.6-.1-.6 1.5zm7.2-.2c-1.3.5-2.3 1.3-2.3 1.8 0 1.1 1.8.9 4.4-.6 2.4-1.3.8-2.3-2.1-1.2zm-10.3.9c0 .5.5 1 1 1 .6 0 1-.5 1-1 0-.6-.4-1-1-1-.5 0-1 .4-1 1z"/></svg>