<svg xmlns="http://www.w3.org/2000/svg" role="img" viewBox="-1.32 -1.32 68.74 41.44"><title>Dreamworks Animation logo</title><path fill="#092e6e" d="M32.523 20.943a19.016 19.016 0 0 0-.308-.734c-.05.276-.189 1.04-.189 1.233a.538.538 0 0 1 0 .072c-.02.156-.175.17-.295.196-.056.012-.179.018-.235.025h-.01a2.804 2.804 0 0 0-.092.23c-.135.393-.335.799-.193 1.196a13.098 13.098 0 0 1 1.781-1.166 5.406 5.406 0 0 1-.264-.547 9.208 9.208 0 0 1-.189-.503m-5.22-6.09a16.244 16.244 0 0 1 1.32 1.975v-.017a.14.14 0 0 1 .09-.116.091.091 0 0 1 .1.052c.03.05.053.102.088.148a.356.356 0 0 0 .156.143c.067.023.154.046.223.067l.18.054a.624.624 0 0 1 .31.179 1.975 1.975 0 0 0 .136.17 1.123 1.123 0 0 0 .208.146 2.316 2.316 0 0 0 1.15.278.981.981 0 0 1 .922-.52 1.019 1.019 0 0 1 .736.36 3.033 3.033 0 0 0 1.556-.909c.064-.064.151-.158.255-.249l-.228-.304h-.36a.817.817 0 0 1-.322-.066.3.3 0 0 1-.177-.208v-.156c0-.05-.085-.066-.11-.102a.108.108 0 0 1 0-.108s.037-.05.043-.046l-.014-.012c-.044-.033-.092-.065-.075-.129s.096-.07.054-.135a.326.326 0 0 0-.058-.06.287.287 0 0 1-.127-.165c0-.106.179-.226.277-.32a.241.241 0 0 0 .087-.208 2.91 2.91 0 0 1-.05-.29v-.155a.32.32 0 0 1-.24.137.547.547 0 0 0 .124-.44.526.526 0 0 1 .18-.39c-.166-.084-.257.103-.264.099a.455.455 0 0 1 .518-.443.476.476 0 0 1-.222-.385.47.47 0 0 0 .208.154 1.125 1.125 0 0 0 .29.058 1.233 1.233 0 0 0 .298-.03c.133-.026.264-.055.397-.082a1.262 1.262 0 0 1 1.156.16.291.291 0 0 1-.056-.245c.029.08.09.114.156.189a5.462 5.462 0 0 0 .488.355.91.91 0 0 1 .252.416.322.322 0 0 1 .372.227c-.208-.131-.175.266-.172.357a2.092 2.092 0 0 1-.036.527 1.501 1.501 0 0 1-.728.933.462.462 0 0 0-.207.18.112.112 0 0 0 0 .065.511.511 0 0 1 .118-.045c.092-.025.326-.081.36.056a1.572 1.572 0 0 0 .083.293c.025.031.098.09.168.175a1.848 1.848 0 0 1 .123.14 2.56 2.56 0 0 1 .268.417 3.805 3.805 0 0 1 .26.665 5.753 5.753 0 0 1 .187.948c.03.245.048.493.052.74v.335a9.94 9.94 0 0 0 1.516-2.218 10.996 10.996 0 0 0 1.11-4.799C40.486 6.345 35.61.667 27.86 2.037a12.267 12.267 0 0 0-4.007 1.5 10.539 10.539 0 0 0-3.357 3.068 15.304 15.304 0 0 0-1.192 2.048 24.56 24.56 0 0 1 3.994 2.368 20.063 20.063 0 0 1 4.01 3.836m2.275 3.572h-.166q.091.218.177.44a.162.162 0 0 1 .066-.095.306.306 0 0 1 .337.058 1.216 1.216 0 0 0 .877.22c.034-.12.065-.243.098-.363a11.352 11.352 0 0 1-.43-.133 2.873 2.873 0 0 0-.506-.137 2.447 2.447 0 0 0-.453 0" class="dreamworks-path-a"/><path fill="#092e6e" d="M33.078 30.583a15.292 15.292 0 1 0-8.94-27.691s.027.02.096-.023a14.346 14.346 0 0 1 2.25-1.133q.349-.146.706-.272a14.306 14.306 0 0 1 7.244-.645 13.223 13.223 0 0 1 2.76.8c2.593 1.07 4.889 2.96 6.238 5.442 1.47 2.715 1.954 6.048 1.158 9.046a12.144 12.144 0 0 1-2.566 4.781 13.514 13.514 0 0 1-4.455 3.377 13.292 13.292 0 0 1-5.58 1.272 4.817 4.817 0 0 0-.156.51c-.015.047-.019.097-.036.145-.047.13-.193.11-.307.108-.054 0-.146-.01-.208-.016a2.495 2.495 0 0 0-.35.522v.018c-.145.316-.234.505-.128.772a.624.624 0 0 1 .035.295.376.376 0 0 1-.112.262.435.435 0 0 1-.285.062 1.455 1.455 0 0 0-.589.104 6.815 6.815 0 0 1-.692.329.867.867 0 0 1-.72-.01c-.037-.024-.07-.055-.11-.074a.378.378 0 0 0-.112-.022.316.316 0 0 1-.272-.175.225.225 0 0 1 .023-.187c.035-.063.098-.065.164-.056a1.013 1.013 0 0 0 .141.016.638.638 0 0 0 .248-.054 1.482 1.482 0 0 0 .416-.289c.112-.104.26-.23.39-.34a5.41 5.41 0 0 0 .27-.236 2.636 2.636 0 0 0 .508-.648 3.892 3.892 0 0 0 .223-.585l-.075-.05c-.092-.068-.208-.143-.175-.276.027-.081.065-.16.1-.239-3.135-.416-4.99-1.803-4.975-1.8a12.142 12.142 0 0 0 3.168.31.252.252 0 0 1-.054-.076.26.26 0 0 1-.023-.122.158.158 0 0 1 .052-.119.087.087 0 0 1 .025-.014.131.131 0 0 1 .063 0 1.42 1.42 0 0 0 .297.014 1.49 1.49 0 0 0 .208-.03l.108-.028.172-.054a.832.832 0 0 0 .158-.083 2.027 2.027 0 0 0 .36-.273 2.643 2.643 0 0 0 .495-.563c0-.012.019-.037.027-.058a6.03 6.03 0 0 0 .254-.913l.035-.185-.019-.01c-.118-.075-.253-.18-.208-.348.036-.108.054-.114.094-.22s.091-.314.133-.476l.145-.57a.699.699 0 0 0-.207.052c-.167.073-.312.177-.477.256.04.141.08.285.115.428a.208.208 0 0 1-.025.167.225.225 0 0 1-.14.101h-.051a.225.225 0 0 1-.208-.168 12.565 12.565 0 0 0-.146-.53.356.356 0 0 1-.064-.073.24.24 0 0 1-.258-.19.277.277 0 0 1-.177-.284c-.062-.01-.1-.073-.125-.135-.066-.166.084-.291.208-.341a.291.291 0 0 1 .063-.015q-.123-.324-.262-.644c-.173-.046-.19-.146-.187-.141-.154 0-.208-.18-.198-.188-.208-.016-.208-.276-.208-.276a.183.183 0 0 1-.137-.196c0-.051.058-.095.129-.13a1.05 1.05 0 0 1 .135-.055 15.685 15.685 0 0 0-1.501-2.318 20.641 20.641 0 0 0-3.888-3.81 20.79 20.79 0 0 0-3.93-2.352 15.177 15.177 0 0 0-1.367 6.164v.167A15.292 15.292 0 0 0 33.08 30.585" class="dreamworks-path-a"/><path fill="#092e6e" d="M34.758 18.853a6.973 6.973 0 0 1-.848.26c.303.416.623.832.935 1.235l.208.229a5.117 5.117 0 0 0 .05-.572 1.981 1.981 0 0 0-.335-1.142v-.01M52.39 36.494a1.828 1.828 0 0 1-.773.112h-.145v-1.549c0-.264.03-.332.463-.332.433 0 1.04.285 1.04.92a.921.921 0 0 1-.578.849m-6.173 2.002c-1.04 0-1.55-1.052-1.55-1.927 0-1.16.743-1.936 1.554-1.936.905 0 1.589.639 1.589 1.97 0 .939-.686 1.895-1.59 1.895M21.6 37.087l.623-1.269h.031l.635 1.269zm-8.814-.576a1.744 1.744 0 0 1-.759.114h-.14V35.08c0-.268.03-.337.454-.337.425 0 1.013.264 1.013.909a.934.934 0 0 1-.568.859m-8.129 1.892c-.696 0-1.017-.208-1.017-1V33.95c0-.224.015-.43.088-.449a2.08 2.08 0 0 1 .624-.062c1.232 0 2.815.538 2.815 2.47 0 1.59-1.262 2.495-2.512 2.495m59.724-2.287l-.23-.067c-.675-.185-1.07-.384-1.07-.715 0-.33.374-.555.905-.555a1.468 1.468 0 0 1 1.413.886l.458-.046a12.003 12.003 0 0 1-.229-1.04c-.135-.027-.301-.052-.54-.091a5.64 5.64 0 0 0-.957-.08c-1.632 0-2.495.61-2.495 1.358 0 .71.957 1.06 1.82 1.306l.155.046c.645.172 1.04.403 1.04.794 0 .43-.416.624-.963.624a2.162 2.162 0 0 1-1.844-1.098l-.457.087c.093.33.191.612.27.861l.04.129-.14-.031a2.166 2.166 0 0 1-.852-.516c-.645-.557-1.32-1.247-1.957-1.871.43-.324.942-.663 1.495-1.006.553-.343.85-.347 1.435-.387v-.27H58.93v.224h.39c.276.021.163.208.02.32a32.36 32.36 0 0 1-1.967 1.537v-1.04c0-.715.081-.783.757-.831v-.225h-3.183v.225c.717.04.798.108.798.831v2.26a1.917 1.917 0 0 1-.056.574c-.066.173-.289.208-.449.179a.996.996 0 0 1-.534-.35 36.121 36.121 0 0 0-.478-.502c-.298-.306-.68-.811-.832-.996.763-.194 1.33-.539 1.33-1.121 0-.39-.31-.713-.72-.88-.413-.166-.939-.207-1.743-.207h-3.27l.066.224c.69.04.707.108.707.832v.942c-.035-1.29-1.647-2.158-3.55-2.158-1.51 0-2.38.449-2.947 1.04.347-.68.578-1.113.609-1.165.489-.8.624-.79 1.424-.865v-.306h-3.439v.306l.547.037c.624.038.663.113.474.624-.19.512-.734 1.807-1.247 2.87l-.03-.05-2.187-3.801h-1.008l-1.886 3.8-.029.05-1.364-3.008c-.172-.372-.129-.416.404-.47l.461-.038v-.305h-4.49v.305c.66.055.92.055 1.31.81l.176.344h-2.14l-1.604 2.662-1.836-2.66h-2.468v.223c.831.046.913.16.831 1.006l-.116 1.356a7.693 7.693 0 0 1-.168 1.174c-.02.071-.03.158-.092.17-.062.013-.23-.24-.368-.486-.382-.684-.817-1.476-1.247-2.276l-.686-1.268-.697.093-2.017 3.47-.066.11a1.187 1.187 0 0 1-.235.254c-.225.162-.809.208-1.218.208a2.53 2.53 0 0 1-.718-.06c-.185-.06-.208-.244-.208-.593v-1.081h.512c.881 0 .91.027 1.012.624h.47v-1.585h-.45c-.103.51-.134.537-1.013.537h-.514v-1.28c0-.236.02-.27.416-.27h.175c.542 0 .879.04 1.04.155a1.175 1.175 0 0 1 .367.648l.451-.02c-.052-.504-.102-.994-.112-1.109h-4.844v.223c.686.04.767.127.767.85v2.217c0 .511-.042.686-.343.756a.657.657 0 0 1-.325 0 .72.72 0 0 1-.232-.135c-.163-.135-.385-.362-.73-.72a13.715 13.715 0 0 1-.811-.96c.75-.195 1.306-.544 1.306-1.135 0-.397-.304-.698-.71-.867-.405-.168-.92-.229-1.71-.229H9.366a3.162 3.162 0 0 0-.775-.667c-.973-.584-2.454-.798-4.24-.798H.115v.349c.944.054 1.06.116 1.06 1.087v2.965c0 .971-.116 1.081-1.174 1.135v.29h3.74c3.354 0 6.096-.95 6.096-3.186a1.721 1.721 0 0 0-.274-.906h.091a1.794 1.794 0 0 1 .275.016.439.439 0 0 1 .18.083c.127.115.152.323.152.712v2.216c0 .725-.08.8-.8.831v.233h3.204v-.233c-.699-.041-.78-.116-.78-.831v-.807h.131a.495.495 0 0 1 .416.241c.36.533.74 1.142 1.337 1.435a2.84 2.84 0 0 0 1.285.208h6.688v-.233h-.291c-.464-.033-.474-.15-.333-.439l.304-.624h1.663l.364.672c.13.241.11.358-.262.39h-.302v.234h4.452v-.233c-.682-.033-.913-.123-.955-.37a4.782 4.782 0 0 1-.02-1.108l.072-1.491h.021l1.965 3.202h.478l2.069-3.437h.041l.032 2.364c.01.746-.021.792-.807.832v.232h3.283v-.207c-.755-.048-.776-.117-.807-.861l-.106-2.25c-.027-.609 0-.748.524-.804l2.137 4.13h1.108l1.93-3.63h.029l2.116 3.63h1.109c.415-.902.831-1.687 1.178-2.411a1.561 1.561 0 0 0-.012.19c0 1.218 1.376 2.286 3.501 2.286 1.996 0 3.516-.962 3.551-2.353v1.226c0 .716-.083.784-.815.832v.237h3.327v-.237c-.711-.04-.795-.108-.795-.832v-.844h.133a.507.507 0 0 1 .433.24 6.468 6.468 0 0 0 .832 1.089 1.956 1.956 0 0 0 1.137.549 5.69 5.69 0 0 0 .661.025h3.534v-.233c-.727-.04-.831-.108-.808-.832v-1.06h.02c.749.721 1.815 1.692 2.204 2.116h2.526a7.41 7.41 0 0 0 1.04.094h.303c1.612 0 2.64-.597 2.64-1.412 0-.775-.83-1.12-1.777-1.39" class="dreamworks-path-a"/></svg>