<svg xmlns="http://www.w3.org/2000/svg" role="img" viewBox="-1.32 -1.32 68.77 41.52"><title>DreamWorks Animation logo</title><g transform="translate(115.472 -130.135) translate(-115.474 130.137) scale(.2079)"><path fill="#092e6e" d="M156.44 100.72c-.2-.57-.88-2.14-1.48-3.53-.24 1.33-.91 5-.91 5.93a2.59 2.59 0 0 1 0 .35c-.1.75-.84.82-1.42.94-.27.06-.86.09-1.13.12h-.05c-.16.36-.31.73-.44 1.11-.65 1.89-1.61 3.84-.93 5.75a63 63 0 0 1 8.57-5.61 26 26 0 0 1-1.27-2.63c-.33-.8-.63-1.61-.91-2.42" class="dreamworks-path-a"/><path fill="#092e6e" d="M131.36 71.44a78.13 78.13 0 0 1 6.35 9.5v-.08a.67.67 0 0 1 .43-.56.44.44 0 0 1 .48.25c.15.24.26.49.43.71a1.71 1.71 0 0 0 .75.69c.32.11.74.22 1.07.32l.87.26a3 3 0 0 1 1.49.86 9.5 9.5 0 0 0 .65.82 5.4 5.4 0 0 0 1 .7 11.14 11.14 0 0 0 5.53 1.34 4.72 4.72 0 0 1 4.44-2.5 4.9 4.9 0 0 1 3.54 1.73 14.59 14.59 0 0 0 7.48-4.37c.31-.31.73-.76 1.23-1.2l-1.1-1.46h-1.73a3.93 3.93 0 0 1-1.55-.32 1.44 1.44 0 0 1-.85-1v-.75c0-.24-.41-.32-.53-.49a.52.52 0 0 1 0-.52s.18-.24.21-.22l-.07-.06c-.21-.16-.44-.31-.36-.62.08-.31.46-.34.26-.65a1.57 1.57 0 0 0-.28-.29 1.38 1.38 0 0 1-.61-.79c0-.51.86-1.09 1.33-1.54a1.16 1.16 0 0 0 .42-1 14 14 0 0 1-.24-1.4v-.74a1.54 1.54 0 0 1-1.15.66 2.63 2.63 0 0 0 .59-2.12 2.53 2.53 0 0 1 .87-1.87c-.8-.41-1.24.49-1.27.47a2.19 2.19 0 0 1 2.49-2.13 2.29 2.29 0 0 1-1.07-1.85 2.26 2.26 0 0 0 1 .74 5.41 5.41 0 0 0 1.4.28 5.93 5.93 0 0 0 1.43-.15c.64-.12 1.27-.26 1.91-.39a6.07 6.07 0 0 1 5.56.77 1.4 1.4 0 0 1-.27-1.18c.14.39.43.55.75.91a26.27 26.27 0 0 0 2.35 1.71 4.38 4.38 0 0 1 1.21 2 1.55 1.55 0 0 1 1.79 1.09c-1-.63-.84 1.28-.83 1.72a10.06 10.06 0 0 1-.17 2.53 7.22 7.22 0 0 1-3.5 4.49 2.22 2.22 0 0 0-1 .87.54.54 0 0 0 0 .31 2.46 2.46 0 0 1 .57-.22c.44-.12 1.57-.39 1.73.27a7.56 7.56 0 0 0 .4 1.41c.12.15.47.43.81.84a8.89 8.89 0 0 1 .59.68 12.31 12.31 0 0 1 1.29 2 18.3 18.3 0 0 1 1.25 3.2 27.67 27.67 0 0 1 .9 4.56c.14 1.18.23 2.37.25 3.56v1.61a47.81 47.81 0 0 0 7.29-10.67 52.89 52.89 0 0 0 5.34-23.08c.23-30.57-23.22-57.88-60.5-51.29A59 59 0 0 0 114.74 17a50.69 50.69 0 0 0-16.15 14.76 73.61 73.61 0 0 0-5.73 9.85A118.13 118.13 0 0 1 112.07 53a96.5 96.5 0 0 1 19.29 18.45" class="dreamworks-path-a"/><path fill="#092e6e" d="M142.3 88.63h-.8q.44 1.05.85 2.12a.78.78 0 0 1 .32-.46 1.47 1.47 0 0 1 1.62.28 5.85 5.85 0 0 0 4.22 1.06c.16-.58.31-1.17.47-1.75-.69-.2-1.38-.41-2.07-.64a13.82 13.82 0 0 0-2.43-.66 11.77 11.77 0 0 0-2.18 0" class="dreamworks-path-a"/><path fill="#092e6e" d="M159.11 147.09a73.55 73.55 0 1 0-43-133.19s.13.1.46-.11a69 69 0 0 1 10.82-5.45q1.68-.7 3.4-1.31a68.81 68.81 0 0 1 34.84-3.1 63.6 63.6 0 0 1 13.28 3.85c12.47 5.14 23.51 14.23 30 26.17 7.07 13.06 9.4 29.09 5.57 43.51a58.41 58.41 0 0 1-12.34 23 65 65 0 0 1-21.43 16.24 63.93 63.93 0 0 1-26.84 6.12 23.17 23.17 0 0 0-.75 2.45c-.07.23-.09.47-.17.7-.23.62-.93.53-1.48.52-.26 0-.7-.05-1-.08a12 12 0 0 0-1.68 2.51v.09c-.7 1.52-1.13 2.43-.62 3.71a3 3 0 0 1 .17 1.42 1.81 1.81 0 0 1-.54 1.26 2.09 2.09 0 0 1-1.37.3 7 7 0 0 0-2.83.5 32.78 32.78 0 0 1-3.33 1.58 4.17 4.17 0 0 1-3.46-.05c-.18-.11-.34-.26-.53-.35a1.82 1.82 0 0 0-.54-.11 1.52 1.52 0 0 1-1.31-.84 1.08 1.08 0 0 1 .11-.9c.17-.3.47-.31.79-.27a4.87 4.87 0 0 0 .68.08 3.07 3.07 0 0 0 1.19-.26 7.13 7.13 0 0 0 2-1.39c.54-.5 1.25-1.11 1.88-1.64.63-.53 1-.85 1.3-1.13a12.68 12.68 0 0 0 2.44-3.12 18.72 18.72 0 0 0 1.07-2.81l-.36-.24c-.44-.33-1-.69-.84-1.33.13-.39.31-.77.48-1.15-15.08-2-24-8.67-23.93-8.66a58.4 58.4 0 0 0 15.24 1.49 1.21 1.21 0 0 1-.26-.36 1.25 1.25 0 0 1-.11-.59.76.76 0 0 1 .25-.57.42.42 0 0 1 .12-.07.63.63 0 0 1 .3 0 6.83 6.83 0 0 0 1.43.07 7.17 7.17 0 0 0 1-.15l.52-.13.83-.26a4 4 0 0 0 .76-.4 9.75 9.75 0 0 0 1.73-1.31 12.71 12.71 0 0 0 2.38-2.71c0-.06.09-.18.13-.28a29 29 0 0 0 1.22-4.39l.17-.89-.09-.05c-.57-.36-1.22-.86-1-1.67.17-.52.26-.55.45-1.06s.44-1.51.64-2.29l.7-2.74a3.36 3.36 0 0 0-1 .25c-.8.35-1.5.85-2.29 1.23.19.68.38 1.37.55 2.06a1 1 0 0 1-.12.8 1.08 1.08 0 0 1-.67.49h-.25a1.08 1.08 0 0 1-1-.81c-.21-.85-.45-1.7-.7-2.55a1.71 1.71 0 0 1-.31-.35 1.15 1.15 0 0 1-1.24-.91 1.33 1.33 0 0 1-.85-1.37c-.3-.05-.48-.35-.6-.65-.32-.8.4-1.4 1-1.64a1.4 1.4 0 0 1 .3-.07q-.59-1.56-1.26-3.1c-.83-.22-.91-.7-.9-.68-.74 0-1-.86-.95-.9-1-.08-1-1.33-1-1.33a.88.88 0 0 1-.66-.94c0-.25.28-.46.62-.63a5.05 5.05 0 0 1 .65-.26 75.44 75.44 0 0 0-7.22-11.15 99.28 99.28 0 0 0-18.7-18.33 100 100 0 0 0-18.9-11.31 73 73 0 0 0-6.58 29.65v.8a73.55 73.55 0 0 0 73.55 73.55" class="dreamworks-path-a"/><path fill="#092e6e" d="M167.19 90.67a33.54 33.54 0 0 1-4.08 1.25c1.46 2 3 4 4.5 5.94l1 1.1a24.61 24.61 0 0 0 .24-2.75 9.53 9.53 0 0 0-1.61-5.49v-.05" class="dreamworks-path-a"/><path fill="#092e6e" d="M252 175.52a8.79 8.79 0 0 1-3.72.54h-.7v-7.45c0-1.27.15-1.6 2.23-1.6s5 1.37 5 4.43a4.43 4.43 0 0 1-2.78 4.08m-29.69 9.63c-5 0-7.46-5.06-7.46-9.27 0-5.58 3.58-9.31 7.48-9.31 4.35 0 7.64 3.07 7.64 9.47 0 4.52-3.3 9.12-7.65 9.12m-118.45-6.79l3-6.1h.15l3.05 6.1zm-42.39-2.77a8.39 8.39 0 0 1-3.65.55h-.68v-7.43c0-1.29.15-1.62 2.19-1.62s4.87 1.27 4.87 4.37a4.49 4.49 0 0 1-2.73 4.13m-39.1 9.1c-3.35 0-4.89-1-4.89-4.81v-16.6c0-1.08.07-2.07.42-2.16a10 10 0 0 1 3-.3c5.93 0 13.54 2.59 13.54 11.88 0 7.65-6.07 12-12.08 12m287.26-11l-1.1-.32c-3.25-.89-5.15-1.85-5.15-3.44 0-1.59 1.8-2.67 4.35-2.67a7.06 7.06 0 0 1 6.8 4.26l2.2-.22c-.55-2.17-.9-3.73-1.1-5-.65-.13-1.45-.25-2.6-.44a27.13 27.13 0 0 0-4.6-.38c-7.85 0-12 2.93-12 6.53 0 3.41 4.6 5.1 8.75 6.28l.75.22c3.1.83 5 1.94 5 3.82 0 2.07-2 3-4.63 3a10.4 10.4 0 0 1-8.87-5.28l-2.2.42c.45 1.59.92 2.94 1.3 4.14l.19.62-.67-.15a10.42 10.42 0 0 1-4.1-2.48c-3.1-2.68-6.35-6-9.41-9 2.07-1.56 4.53-3.19 7.19-4.84s4.09-1.67 6.9-1.86v-1.3h-13.2v1.08h1.87c1.33.1.79 1 .1 1.54-2.86 2.42-5.86 4.78-9.46 7.39v-5c0-3.44.39-3.77 3.64-4v-1.08H264.3v1.08c3.45.19 3.84.52 3.84 4v10.87a9.22 9.22 0 0 1-.27 2.76c-.32.83-1.39 1-2.16.86a4.79 4.79 0 0 1-2.57-1.68c-.76-.81-1.52-1.62-2.3-2.42-1.43-1.47-3.27-3.9-4-4.79 3.67-.93 6.4-2.59 6.4-5.39 0-1.88-1.49-3.43-3.47-4.23-1.98-.8-4.51-1-8.38-1h-15.73l.32 1.08c3.32.19 3.4.52 3.4 4v4.53c-.17-6.2-7.92-10.38-17.07-10.38-7.27 0-11.45 2.16-14.18 5 1.67-3.27 2.78-5.35 2.93-5.6 2.35-3.85 3-3.8 6.85-4.16v-1.47h-16.54v1.47l2.63.18c3 .18 3.19.54 2.28 3-.91 2.46-3.53 8.69-6 13.8l-.14-.24-10.52-18.28h-4.85l-9.07 18.28-.14.24-6.56-14.47c-.83-1.79-.62-2 1.94-2.26l2.22-.18v-1.47h-21.6v1.47c3.18.26 4.43.26 6.3 3.89l.85 1.66h-10.29l-7.72 12.8-8.83-12.79H120v1.07c4 .22 4.39.77 4 4.84l-.56 6.52a37 37 0 0 1-.81 5.65c-.09.34-.14.76-.44.82-.3.06-1.11-1.16-1.77-2.34-1.84-3.29-3.93-7.1-6-10.95l-3.3-6.1-3.35.45-9.7 16.69-.32.53a5.71 5.71 0 0 1-1.13 1.22c-1.08.78-3.89 1-5.86 1a12.17 12.17 0 0 1-3.45-.29c-.89-.29-1-1.17-1-2.85v-5.2h2.46c4.24 0 4.38.13 4.87 3h2.26v-7.62h-2.17c-.49 2.45-.64 2.58-4.87 2.58h-2.47v-6.16c0-1.13.1-1.29 2-1.29h.84c2.61 0 4.23.19 5 .74a5.65 5.65 0 0 1 1.77 3.12l2.17-.1c-.25-2.42-.49-4.78-.54-5.33h-23.3v1.07c3.3.19 3.69.61 3.69 4.09v10.66c0 2.46-.2 3.3-1.65 3.64a3.16 3.16 0 0 1-1.56 0 3.46 3.46 0 0 1-1.12-.65c-.78-.65-1.85-1.74-3.51-3.46-1.41-1.48-3.21-3.71-3.9-4.62 3.61-.94 6.28-2.62 6.28-5.46 0-1.91-1.46-3.36-3.41-4.17-1.95-.81-4.43-1.1-8.23-1.1H45.06a15.21 15.21 0 0 0-3.73-3.21c-4.68-2.81-11.8-3.84-20.39-3.84H.56v1.68c4.54.26 5.1.56 5.1 5.23v14.26c0 4.67-.56 5.2-5.65 5.46v1.39H18c16.13 0 29.32-4.57 29.32-15.32A8.28 8.28 0 0 0 46 167h.44a8.63 8.63 0 0 1 1.32.08 2.11 2.11 0 0 1 .87.4c.61.55.73 1.55.73 3.42v10.66c0 3.49-.39 3.85-3.85 4v1.12h15.41v-1.12c-3.36-.2-3.75-.56-3.75-4v-3.88h.63a2.38 2.38 0 0 1 2 1.16c1.73 2.56 3.56 5.49 6.43 6.9a13.66 13.66 0 0 0 6.18 1h32.17v-1.12h-1.4c-2.23-.16-2.28-.72-1.6-2.11l1.46-3h8l1.75 3.23c.63 1.16.53 1.72-1.26 1.88h-1.45v1.12h21.41v-1.12c-3.28-.16-4.39-.59-4.59-1.78a23 23 0 0 1-.1-5.33l.35-7.17h.1l9.45 15.4h2.3l9.95-16.53h.2l.15 11.37c.05 3.59-.1 3.81-3.88 4v1.12h15.79v-1c-3.63-.23-3.73-.56-3.88-4.14l-.51-10.82c-.13-2.93 0-3.6 2.52-3.87l10.28 19.87h5.33l9.28-17.46h.14l10.18 17.46h5.33c2-4.34 4-8.12 5.67-11.6a7.51 7.51 0 0 0-.06.91c0 5.86 6.62 11 16.84 11 9.6 0 16.91-4.63 17.08-11.32v5.9c0 3.44-.4 3.77-3.92 4v1.14h16v-1.14c-3.42-.19-3.82-.52-3.82-4v-4.06h.64a2.44 2.44 0 0 1 2.08 1.15 31.11 31.11 0 0 0 4 5.24 9.41 9.41 0 0 0 5.47 2.64 27.37 27.37 0 0 0 3.18.12h17v-1.12c-3.5-.19-4-.52-3.89-4v-5.1h.1c3.6 3.47 8.73 8.14 10.6 10.18H299a35.64 35.64 0 0 0 5 .45h1.46c7.75 0 12.7-2.87 12.7-6.79 0-3.73-4-5.39-8.55-6.69" class="dreamworks-path-a"/></g></svg>