<svg xmlns="http://www.w3.org/2000/svg" role="img" viewBox="-1.32 -1.32 68.77 41.52"><title>DreamWorks Animation logo</title><path fill="#092e6e" d="M32.52188 20.94169c-.04158-.1185-.18296-.4449-.3077-.73389-.0499.2765-.18919 1.0395-.18919 1.23285a.53846.53846 0 0 1 0 .07276c-.02079.15593-.17463.17048-.29521.19543-.05614.01247-.1788.01871-.23493.02495h-.0104c-.03326.07484-.06444.15176-.09147.23077-.13514.39293-.33472.79833-.19335 1.19542a13.0977 13.0977 0 0 1 1.7817-1.16632 5.4054 5.4054 0 0 1-.26403-.54678c-.0686-.16632-.13097-.33471-.18919-.50311m-5.22037-6.0894a16.24323 16.24323 0 0 1 1.32017 1.97506v-.01664a.1393.1393 0 0 1 .0894-.11642.09148.09148 0 0 1 .09979.05197c.03118.0499.05405.10188.0894.14761a.3555.3555 0 0 0 .15592.14345c.06653.02287.15385.04574.22245.06653l.18088.05406a.6237.6237 0 0 1 .30977.1788 1.97505 1.97505 0 0 0 .13513.17047 1.12266 1.12266 0 0 0 .2079.14553 2.316 2.316 0 0 0 1.14969.27858.98129.98129 0 0 1 .92308-.51975 1.01871 1.01871 0 0 1 .73596.35967 3.03326 3.03326 0 0 0 1.5551-.90852c.06444-.06445.15176-.158.25571-.24948l-.22869-.30353h-.35967a.81705.81705 0 0 1-.32224-.06653.29938.29938 0 0 1-.17672-.2079v-.15593c0-.0499-.08524-.06653-.11018-.10187a.1081.1081 0 0 1 0-.1081s.03742-.0499.04365-.04574l-.01455-.01248c-.04366-.03326-.09147-.06445-.07484-.1289.01663-.06445.09563-.07068.05405-.13513a.3264.3264 0 0 0-.05821-.0603.2869.2869 0 0 1-.12682-.16423c0-.10603.1788-.22661.2765-.32017a.24116.24116 0 0 0 .08733-.2079 2.9106 2.9106 0 0 1-.0499-.29106v-.15385a.32017.32017 0 0 1-.23908.13722.54678.54678 0 0 0 .12266-.44075.52599.52599 0 0 1 .18087-.38877c-.16632-.08524-.2578.10187-.26403.09771a.4553.4553 0 0 1 .51767-.44283.4761.4761 0 0 1-.22246-.38461.46985.46985 0 0 0 .2079.15384 1.12474 1.12474 0 0 0 .29106.05822 1.23285 1.23285 0 0 0 .2973-.03119c.13306-.02495.26403-.05405.39709-.08108a1.26195 1.26195 0 0 1 1.15592.16008.29106.29106 0 0 1-.05613-.24532c.0291.08108.0894.11435.15593.18919a5.46153 5.46153 0 0 0 .48856.3555.9106.9106 0 0 1 .25156.4158.32225.32225 0 0 1 .37214.22662c-.2079-.13098-.17463.26611-.17256.35759a2.09147 2.09147 0 0 1-.03534.52599 1.50104 1.50104 0 0 1-.72765.93347.46154.46154 0 0 0-.2079.18087.11227.11227 0 0 0 0 .06445.51143.51143 0 0 1 .1185-.04574c.09148-.02495.3264-.08108.35967.05613a1.57172 1.57172 0 0 0 .08316.29314c.02495.03119.09771.0894.1684.17464a1.84823 1.84823 0 0 1 .12266.14137 2.55925 2.55925 0 0 1 .2682.4158 3.80457 3.80457 0 0 1 .25987.66528 5.7526 5.7526 0 0 1 .1871.94802c.02911.24533.04782.49273.05198.74013v.33472a9.9397 9.9397 0 0 0 1.5156-2.2183 10.99583 10.99583 0 0 0 1.11018-4.79833c.04782-6.3555-4.82744-12.03325-12.57795-10.66319a12.2661 12.2661 0 0 0-4.00623 1.49896 10.53845 10.53845 0 0 0-3.35759 3.0686 15.30352 15.30352 0 0 0-1.19127 2.04782 24.55923 24.55923 0 0 1 3.99376 2.36798 20.06235 20.06235 0 0 1 4.0104 3.83576m2.27442 3.57172h-.16632q.09148.2183.17672.44075a.16216.16216 0 0 1 .06652-.09564.30561.30561 0 0 1 .3368.05821 1.21621 1.21621 0 0 0 .87734.22038c.03326-.12058.06445-.24325.09771-.36383-.14345-.04158-.2869-.08524-.43035-.13305a2.87318 2.87318 0 0 0-.5052-.13722 2.44698 2.44698 0 0 0-.45322 0" class="dreamworks-path-a"/><path fill="#092e6e" d="M33.07697 30.58201a15.29104 15.29104 0 1 0-8.9397-27.6902s.02703.02079.09563-.02287a14.3451 14.3451 0 0 1 2.24948-1.13305q.34927-.14553.70686-.27235a14.3056 14.3056 0 0 1 7.24324-.6445 13.22244 13.22244 0 0 1 2.7609.80042c2.59252 1.0686 4.88774 2.95842 6.237 5.44075 1.46986 2.71517 1.95427 6.0478 1.15801 9.04572a12.14344 12.14344 0 0 1-2.56548 4.7817 13.5135 13.5135 0 0 1-4.4553 3.3763 13.29105 13.29105 0 0 1-5.58004 1.27235 4.81704 4.81704 0 0 0-.15592.50935c-.01456.04782-.01871.09772-.03535.14553-.04781.1289-.19334.11019-.30769.10811-.05405 0-.14553-.0104-.2079-.01663a2.4948 2.4948 0 0 0-.34927.52183v.0187c-.14553.31602-.23493.5052-.1289.77132a.6237.6237 0 0 1 .03535.29522.3763.3763 0 0 1-.11227.26195.43451.43451 0 0 1-.28482.06237 1.4553 1.4553 0 0 0-.58836.10395 6.81496 6.81496 0 0 1-.6923.32848.86694.86694 0 0 1-.71934-.0104c-.03742-.02286-.07069-.05405-.11019-.07276a.37838.37838 0 0 0-.11226-.02287.316.316 0 0 1-.27235-.17463.22453.22453 0 0 1 .02287-.18711c.03534-.06237.0977-.06445.16424-.05614a1.01247 1.01247 0 0 0 .14137.01664.63825.63825 0 0 0 .2474-.05406 1.48233 1.48233 0 0 0 .4158-.28898c.11227-.10395.25988-.23077.39085-.34095.13098-.1102.2079-.17672.27027-.23493a2.63617 2.63617 0 0 0 .50728-.64865 3.89189 3.89189 0 0 0 .22245-.5842l-.07484-.0499c-.09148-.0686-.2079-.14345-.17464-.2765.02703-.08108.06445-.16008.0998-.23909-3.13514-.4158-4.9896-1.80249-4.97505-1.80041a12.14136 12.14136 0 0 0 3.1684.30977.25156.25156 0 0 1-.05406-.07484.25988.25988 0 0 1-.02287-.12266.158.158 0 0 1 .05197-.1185.08732.08732 0 0 1 .02495-.01456.13098.13098 0 0 1 .06237 0 1.41996 1.41996 0 0 0 .2973.01455 1.49064 1.49064 0 0 0 .2079-.03118l.1081-.02703.17256-.05405a.8316.8316 0 0 0 .158-.08316 2.02703 2.02703 0 0 0 .35968-.27235 2.6424 2.6424 0 0 0 .4948-.56341c0-.01248.0187-.03742.02702-.05821a6.0291 6.0291 0 0 0 .25364-.91268l.03535-.18504-.01872-.0104c-.1185-.07483-.25363-.17878-.2079-.34718.03535-.10811.05406-.11435.09356-.22038.0395-.10603.09148-.31393.13306-.47609l.14553-.56964a.69854.69854 0 0 0-.2079.05197c-.16632.07277-.31185.17672-.4761.25572.0395.14137.079.28482.11435.42827a.2079.2079 0 0 1-.02495.16632.22453.22453 0 0 1-.1393.10187h-.05197a.22453.22453 0 0 1-.2079-.1684c-.04366-.17671-.09355-.35343-.14553-.53014a.3555.3555 0 0 1-.06445-.07277.23908.23908 0 0 1-.2578-.18919.2765.2765 0 0 1-.1767-.28482c-.06238-.0104-.0998-.07276-.12475-.13513-.06652-.16632.08316-.29106.2079-.34096a.29106.29106 0 0 1 .06237-.01455q-.12266-.32433-.26195-.6445c-.17256-.04573-.18919-.14552-.18711-.14136-.15385 0-.2079-.1788-.1975-.18711-.2079-.01664-.2079-.27651-.2079-.27651a.18295.18295 0 0 1-.13722-.19543c0-.05197.05821-.09563.1289-.13097a1.0499 1.0499 0 0 1 .13513-.05406 15.68398 15.68398 0 0 0-1.50103-2.31808 20.64031 20.64031 0 0 0-3.88773-3.81081 20.79 20.79 0 0 0-3.92931-2.35135 15.1767 15.1767 0 0 0-1.36799 6.16424v.16632a15.29104 15.29104 0 0 0 15.29105 15.29104" class="dreamworks-path-a"/><path fill="#092e6e" d="M34.7568 18.8523a6.97297 6.97297 0 0 1-.84823.25987c.30353.4158.6237.8316.93555 1.23492l.2079.2287a5.11642 5.11642 0 0 0 .0499-.57173 1.98129 1.98129 0 0 0-.33472-1.14137v-.0104m17.6216 17.64032a1.82744 1.82744 0 0 1-.77339.11226h-.14553v-1.54885c0-.26403.03119-.33264.46362-.33264s1.0395.28482 1.0395.921a.921.921 0 0 1-.57796.84823m-6.17255 2.00208c-1.0395 0-1.55094-1.05198-1.55094-1.92724 0-1.16008.74428-1.93555 1.5551-1.93555.90436 0 1.58835.63826 1.58835 1.96882 0 .9397-.68607 1.89604-1.59044 1.89604m-24.62575-1.41164l.6237-1.26819h.03118l.6341 1.2682zm-8.81288-.57588a1.74428 1.74428 0 0 1-.75884.11434h-.14137v-1.5447c0-.26818.03119-.33679.4553-.33679.42412 0 1.01248.26403 1.01248.90852a.93347.93347 0 0 1-.56757.85863m-8.1289 1.89189c-.69646 0-1.01662-.2079-1.01662-1V33.95c0-.22453.01455-.43035.08732-.44906a2.079 2.079 0 0 1 .6237-.06237c1.23284 0 2.81496.53846 2.81496 2.46985 0 1.59043-1.26195 2.4948-2.51143 2.4948m59.72135-2.2869l-.22869-.06653c-.67567-.18503-1.07068-.38461-1.07068-.71518 0-.33056.37422-.55509.90436-.55509a1.46777 1.46777 0 0 1 1.41372.88566l.45738-.04574c-.11434-.45115-.1871-.77547-.22869-1.0395-.13513-.02703-.30145-.05198-.54054-.09148a5.64033 5.64033 0 0 0-.95634-.079c-1.63201 0-2.4948.60915-2.4948 1.35759 0 .70894.95634 1.06029 1.81913 1.3056l.15592.04575c.6445.17255 1.0395.40332 1.0395.79417 0 .43036-.4158.6237-.96257.6237a2.16216 2.16216 0 0 1-1.84408-1.0977l-.45738.08731c.09356.33056.19127.61123.27027.8607l.0395.1289-.13929-.03118a2.16632 2.16632 0 0 1-.85239-.5156c-.64449-.55716-1.32016-1.2474-1.95634-1.8711.43036-.32432.94179-.6632 1.4948-1.00623.55302-.34303.85032-.3472 1.43451-.3867v-.27026h-2.74428v.22453h.38878c.2765.02079.16424.2079.02079.32017-.5946.50311-1.2183.99376-1.96674 1.53638v-1.0395c0-.71518.08108-.78379.75676-.8316v-.22454h-3.18295v.22454c.71726.0395.79834.1081.79834.8316v2.25987a1.91684 1.91684 0 0 1-.05614.5738c-.06652.17256-.28898.2079-.44906.1788a.99584.99584 0 0 1-.5343-.34927c-.158-.1684-.31601-.3368-.47817-.50312-.2973-.30562-.67984-.81081-.8316-.99584.76299-.19335 1.33056-.53846 1.33056-1.12058 0-.39086-.30977-.7131-.72142-.87942-.41164-.16632-.93763-.2079-1.7422-.2079h-3.27027l.06653.22453c.69023.0395.70686.1081.70686.8316v.94179c-.03534-1.28898-1.64657-2.158-3.54885-2.158-1.51143 0-2.38046.44906-2.94802 1.0395.34719-.67984.57796-1.11227.60914-1.16424.48857-.80042.6237-.79002 1.42412-.86487v-.30561h-3.43867v.30561l.54678.03742c.6237.03743.6632.11227.47401.6237-.18919.51144-.73388 1.80665-1.2474 2.86902l-.0291-.0499-2.18711-3.8004h-1.00832l-1.88565 3.8004-.0291.0499-1.36383-3.0083c-.17256-.37215-.1289-.4158.40333-.46986l.46153-.03742v-.30562h-4.49064v.30561c.66113.05406.921.05406 1.30977.80874l.17672.34511h-2.1393l-1.60498 2.66112-1.83576-2.65904H24.946v.22245c.8316.04574.91268.16009.8316 1.00624l-.11642 1.3555a7.6923 7.6923 0 0 1-.1684 1.17464c-.01871.07069-.0291.158-.09148.17048-.06237.01247-.23077-.24116-.36798-.48649-.38254-.68399-.81705-1.47609-1.2474-2.2765l-.68607-1.2682-.69647.09356-2.01663 3.46985-.06652.1102a1.1871 1.1871 0 0 1-.23493.25363c-.22453.16216-.80873.2079-1.2183.2079a2.53014 2.53014 0 0 1-.71725-.0603c-.18503-.06028-.2079-.24323-.2079-.5925v-1.08109h.51143c.8815 0 .9106.02703 1.01248.6237h.46985v-1.5842h-.45114c-.10187.50936-.13306.53639-1.01248.53639h-.5135V35.0477c0-.23492.02078-.26819.4158-.26819h.17463c.54262 0 .87941.0395 1.0395.15385a1.17464 1.17464 0 0 1 .36798.64865l.45114-.0208c-.05197-.50311-.10187-.99376-.11226-1.1081H15.4512v.22245c.68607.0395.76715.12682.76715.85031v2.21622c0 .51143-.04158.68607-.34304.75675a.65696.65696 0 0 1-.32432 0 .71933.71933 0 0 1-.23285-.13513c-.16216-.13514-.38461-.36175-.72973-.71934-.29314-.30769-.66736-.7713-.8108-.9605.75051-.19542 1.3056-.5447 1.3056-1.13513 0-.39709-.30353-.69854-.70893-.86694-.40541-.1684-.921-.2287-1.71102-.2287h-3.2973a3.16216 3.16216 0 0 0-.77546-.66735c-.97297-.5842-2.45322-.79834-4.23908-.79834h-4.237v.34928c.94386.05405 1.06028.11642 1.06028 1.08731v2.96466c0 .97089-.11642 1.08108-1.17463 1.13513v.28898H3.7402c3.35343 0 6.09563-.9501 6.09563-3.18503a1.72141 1.72141 0 0 0-.27443-.90644h.09148a1.79418 1.79418 0 0 1 .27442.01663.43867.43867 0 0 1 .18088.08316c.12682.11435.15176.32225.15176.71102v2.21621c0 .72558-.08108.80042-.80041.8316v.23285h3.20374v-.23285c-.69855-.04158-.77963-.11642-.77963-.8316v-.80665h.13098a.4948.4948 0 0 1 .4158.24117c.35967.53222.74012 1.14137 1.3368 1.4345a2.83991 2.83991 0 0 0 1.28482.2079h6.68814v-.23284h-.29106c-.46361-.03327-.47401-.14969-.33264-.43867l.30354-.6237h1.6632l.36382.67152c.13098.24116.11019.35758-.26195.39085h-.30146v.23285h4.45114v-.23285c-.68191-.03327-.91268-.12266-.95426-.37006a4.7817 4.7817 0 0 1-.02079-1.10811l.07277-1.49064h.02079l1.96465 3.20166h.47817l2.0686-3.4366h.04159l.03118 2.36383c.0104.74636-.02079.7921-.80665.8316v.23285h3.28274v-.2079c-.75468-.04782-.77547-.11642-.80665-.8607l-.10603-2.24948c-.02703-.60915 0-.74844.5239-.80458l2.13722 4.13098h1.1081l1.92932-3.62994h.0291l2.11643 3.62994h1.1081c.4158-.90229.8316-1.68815 1.1788-2.41164a1.56133 1.56133 0 0 0-.01248.18919c0 1.21829 1.3763 2.2869 3.50104 2.2869 1.99584 0 3.51559-.96258 3.55093-2.35343v1.2266c0 .71518-.08316.78379-.81497.8316v.23701h3.3264v-.237c-.71102-.0395-.79418-.10811-.79418-.8316v-.84408h.13306a.50728.50728 0 0 1 .43243.23909 6.46777 6.46777 0 0 0 .8316 1.0894 1.95634 1.95634 0 0 0 1.13721.54885 5.69022 5.69022 0 0 0 .66113.02495h3.5343v-.23285c-.72765-.0395-.8316-.1081-.80873-.8316v-1.06029h.02079c.74844.72141 1.81496 1.6923 2.20374 2.11642h2.52598a7.40956 7.40956 0 0 0 1.0395.09356h.30353c1.61123 0 2.64033-.59668 2.64033-1.41164 0-.77547-.8316-1.12058-1.77754-1.39085" class="dreamworks-path-a"/></svg>