<svg xmlns="http://www.w3.org/2000/svg" role="img" xmlns:xlink="http://www.w3.org/1999/xlink" viewBox="1.89 3.14 338.72 421.72"><title>Duke logo</title><defs><linearGradient id="c" x1="172.972" x2="172.972" y1="16.779" y2="322.158" gradientUnits="userSpaceOnUse"><stop offset="0" stop-color="#fcf8fa"/><stop offset=".059" stop-color="#f6e4ec"/><stop offset=".177" stop-color="#ecc2d3"/><stop offset=".303" stop-color="#e4a5bf"/><stop offset=".438" stop-color="#de8fb0"/><stop offset=".586" stop-color="#d980a5"/><stop offset=".756" stop-color="#d7779e"/><stop offset="1" stop-color="#d6749c"/></linearGradient><radialGradient id="a" cx="248.827" cy="317.225" r="162.485" gradientTransform="matrix(.95307 -.14791 .12456 .76245 -102.7 -28.84)" gradientUnits="userSpaceOnUse"><stop offset="0" stop-color="#c4678c" stop-opacity="0"/><stop offset=".142" stop-color="#bd597f" stop-opacity=".153"/><stop offset=".733" stop-color="#a0214e" stop-opacity=".759"/><stop offset="1" stop-color="#940b3a"/></radialGradient><radialGradient id="d" cx="252.344" cy="151.58" r="45.938" gradientTransform="matrix(.95307 -.14791 .12456 .76245 -107.204 -56.415)" xlink:href="#a"/><linearGradient id="b" x1="11.211" x2="152.308" y1="146.217" y2="146.217" gradientUnits="userSpaceOnUse"><stop offset="0" stop-color="#f8ecda"/><stop offset=".463" stop-color="#f3dcb1"/><stop offset=".967" stop-color="#ec8"/><stop offset="1" stop-color="#eecb9e"/></linearGradient><linearGradient id="e" x1="177.987" x2="314.048" y1="124.68" y2="124.68" xlink:href="#b"/><linearGradient id="f" x1="152.272" x2="161.701" y1="29.318" y2="158.085" gradientTransform="matrix(.99747 .07108 -.07304 1.02501 25.87 56.235)" gradientUnits="userSpaceOnUse"><stop offset="0" stop-opacity=".1"/><stop offset="1"/></linearGradient><linearGradient id="g" x1="14.588" x2="150.92" y1="150.812" y2="150.812" gradientUnits="userSpaceOnUse"><stop offset="0" stop-color="#c68e69"/><stop offset=".627" stop-color="#c78f6c" stop-opacity=".609"/><stop offset="1" stop-color="#c8906e" stop-opacity=".4"/></linearGradient></defs><path d="M77.209 362.379h20.946c16.88 0 28.541 11.585 28.541 26.7v.153c0 15.115-11.661 26.854-28.541 26.854H77.209zm20.946 43.042c9.667 0 16.189-6.522 16.189-16.035v-.154c0-9.514-6.522-16.189-16.19-16.189h-9.13v32.378zm37.511-3.837v-26.623h11.663v22.941c0 5.524 2.609 8.363 7.058 8.363 4.45 0 7.29-2.839 7.29-8.363v-22.941h11.662v41.124h-11.663v-5.83c-2.685 3.452-6.138 6.598-12.046 6.598-8.823 0-13.964-5.832-13.964-15.269zm48.1-41.508h11.662v29.846l13.657-14.961h13.964l-15.652 16.19 16.19 24.934h-13.35l-10.742-16.802-4.066 4.297v12.506h-11.663zm41.504 35.677v-.152c0-11.74 8.362-21.407 20.33-21.407 13.735 0 20.026 10.665 20.026 22.326 0 .921-.076 1.996-.154 3.07h-28.617c1.15 5.294 4.834 8.055 10.05 8.055 3.914 0 6.752-1.227 9.975-4.219l6.674 5.907c-3.836 4.757-9.36 7.673-16.801 7.673-12.354 0-21.483-8.67-21.483-21.253zm29-3.452c-.689-5.218-3.759-8.746-8.67-8.746-4.832 0-7.978 3.452-8.899 8.746z"/><ellipse cx="172.972" cy="166.959" fill="#940b3a" rx="159.571" ry="155.528"/><ellipse cx="172.972" cy="169.469" fill="url(#c)" rx="156.659" ry="152.69"/><path fill="url(#a)" d="M214.865 20.72c36.2 13.951 79.232 42.199 85.459 80.314 9.698 59.364-51.28 118.583-116.931 128.772S49.788 197.443 40.09 138.079c-6.54-40.029 18.827-77.02 51.695-101.09-54.673 31.563-86.882 93.45-76.282 158.329C29.36 280.145 111.149 337.96 198.18 324.454s146.351-93.223 132.493-178.05C320.485 84.039 273.578 36.276 214.864 20.72z"/><path fill="url(#d)" d="M214.865 20.72a131.298 131.298 0 0 0-123.08 16.27 163.669 163.669 0 0 1 123.08-16.269z"/><g opacity=".7"><path fill="url(#b)" d="M152.308 108.97c0 58.64-42.83 95.81-77.671 95.81S11.21 162.373 11.21 136.234 46.824 94.211 81.759 90.35c34.622-3.826 70.549-7.52 70.549 18.62z"/><path fill="url(#e)" d="M178.392 101.72c11.725 62.313 45.299 82.126 78.56 78.803 45.002-4.496 59.87-55.526 56.682-81.478s-32.535-30.712-67.27-30.556c-33.45.151-72.808 7.528-67.972 33.23z"/></g><path fill="url(#f)" d="M324.036 116.737c-2.66-28.446-36.047-18.147-68.133-18.8-43.65-.892-59.723 9.476-65.419 15.735-.07.077-.133.156-.201.233a16.4 16.4 0 0 0-2.368-2.56 19.84 19.84 0 0 0-12.493-4.712c-9.016-.268-16.658 5.137-18.19 12.424-12.83-8.334-36.774-6.357-59.994-4.431-17.93 1.486-34.663 6.117-47.114 13.04-14.788 8.221-22.781 19.225-23.114 31.822-.355 13.404 6.161 30.517 17.005 44.661C56.01 219.797 70.87 228.917 86.038 230q.886.062 1.774.089c17.593.523 36.942-8.595 51.76-24.391 16.575-17.669 26.086-41.928 26.784-68.31a27.51 27.51 0 0 0-.027-2.118 20.578 20.578 0 0 0 7.382 1.929c.299.021.6.036.901.045a20.067 20.067 0 0 0 11.189-2.917s13.674 68.437 80.659 71.898c8.82.456 28.994-7.713 37.264-18.372 14.795-19.07 21.81-55.083 20.312-71.115z" opacity=".3"/><g opacity=".39"><path fill="url(#g)" d="M14.588 155.539C24.26 178.493 46.87 202.345 73 202.345c34.151 0 93.86-43.491 73.949-103.067-15.403 27.756-32.604 37.188-57.994 46.031-27.15 9.457-53.586 12.674-74.368 10.23z"/><path fill="#9b5b3e" d="M181.43 118.456c14.49 47.245 44.31 62.586 73.887 59.631 41.041-4.1 57.015-46.9 57.092-74.088-15.63 12.32-36.497 23.647-64.215 25.85-24.175 1.923-49.908-4.013-66.764-11.393z"/></g><path d="M75.18 207.688c-16.357 0-32.734-9.072-46.113-25.545-11.667-14.365-18.915-31.956-18.915-45.909 0-13.117 8.002-24.803 23.14-33.797 12.731-7.562 29.97-12.88 48.538-14.976 26.144-2.951 53.179-6 65.632 5.128 4.445 3.97 6.699 9.483 6.699 16.38 0 27.446-9.224 52.954-25.973 71.826-14.945 16.84-34.761 26.893-53.008 26.893zm41.897-117.135c-10.783 0-23.062 1.385-34.594 2.686-32.036 3.614-66.516 18.61-66.516 42.995 0 12.488 6.914 29.069 17.614 42.242 7.097 8.738 21.938 23.397 41.6 23.397 16.61 0 34.8-9.322 48.658-24.938 15.804-17.807 24.507-41.944 24.507-67.965 0-5.244-1.557-9.185-4.759-12.045-5.4-4.826-15.12-6.372-26.51-6.372zM249.5 183.445c-22.609 0-62.343-10.586-75.555-81.19a21.367 21.367 0 0 1 4.521-18.276c5.61-6.822 21.88-18.329 67.81-18.757 33.31-.303 67.84 3.344 71.386 32.798 1.945 16.159-2.971 42.322-18.36 61.577-10.886 13.62-25.564 21.737-42.45 23.473a71.97 71.97 0 0 1-7.352.375zm-.165-112.422c-.99 0-1.99.005-3.005.014-31.824.296-54.922 6.36-63.372 16.635a15.592 15.592 0 0 0-3.296 13.513c5.314 28.405 15.595 49.342 30.556 62.229 12.623 10.873 28.539 15.669 46.04 13.872 15.516-1.596 28.47-8.77 38.5-21.32 14.344-17.947 18.935-42.258 17.13-57.251-2.328-19.344-21.089-27.692-62.553-27.692z"/><path fill="#efd6b4" d="M94.456 88.566l141.516-20.915"/><path d="M94.882 91.442L81.83 87.461l134.514-20.026 13.823-1.316 6.23 4.408L94.882 91.442zm68.616 17.122c-8.54 0-15.488-5.96-15.488-13.285s6.948-13.285 15.488-13.285 15.49 5.96 15.49 13.285c0 7.326-6.949 13.285-15.49 13.285zm0-20.755c-5.334 0-9.673 3.351-9.673 7.47s4.34 7.47 9.673 7.47 9.674-3.351 9.674-7.47-4.34-7.47-9.674-7.47z"/></svg>