<svg xmlns="http://www.w3.org/2000/svg" role="img" viewBox="-4.87 -4.62 211.98 252.98"><title>Earth logo</title><path d="M85.835 201.457c-32.215-5.019-60.44-25.732-74.809-54.898-14.383-29.195-14.383-60.923 0-90.118 9.589-19.464 25.95-35.826 45.415-45.415C68.519 5.076 77.903 2.39 92.144.806c23.038-2.562 47.594 4.006 67.493 18.05 44.718 31.562 56.213 93.074 25.905 138.624-15.934 23.947-40.779 39.74-69.272 44.036-11.68 1.76-18.842 1.746-30.435-.06zM122 192.47c63.532-15.045 93.102-89.122 56.924-142.607C161.024 23.4 133.2 8.555 101.5 8.555c-26.087 0-46.934 8.693-65.593 27.352C17.248 54.566 8.555 75.413 8.555 101.5c0 25.07 8.487 46.216 25.776 64.225 15.086 15.713 32.57 24.784 54.483 28.266 7.55 1.2 25.09.396 33.186-1.521zM138 129v-26h9.184c11.462 0 16.852 2.19 19.85 8.066 6.93 13.584-4.92 29.982-18.791 26.004l-3.243-.93V155h-7zm17.401 1.606c4.661-1.948 6.599-5.15 6.599-10.905 0-4.033-.495-5.35-2.923-7.778-2.532-2.532-3.67-2.923-8.5-2.923H145v10.532c0 9.988.116 10.58 2.25 11.437 3.17 1.274 4.36 1.22 8.151-.363zm-39.901 6.713c-7.554-1.697-8.5-2.365-8.5-6.004 0-2.979.273-3.413 1.75-2.782 10.262 4.379 13.37 4.305 14.063-.335.243-1.627-1.155-3.056-6.233-6.371-8.797-5.743-10.405-9.114-7.38-15.467 2.042-4.285 9.753-5.66 16.332-2.911 2.883 1.204 3.468 1.964 3.468 4.5 0 3.421-.434 3.59-4 1.551-3.26-1.864-8.434-1.887-9.964-.044-1.579 1.903-.882 2.88 4.765 6.678C127.981 121.636 130 123.984 130 128c0 4.471-2.649 7.532-7.743 8.947-2.067.573-3.982.993-4.257.932-.275-.06-1.4-.312-2.5-.56zM79 120v-17h3c2.788 0 3 .26 3 3.666v3.667l3.971-4.302c3.623-3.924 4.29-4.25 7.59-3.715 6.005.975 7.79 3.455 5.117 7.11-1.238 1.693-1.523 1.705-4.444.195-3.851-1.991-7.33-.93-9.922 3.026-1.369 2.089-1.881 5.296-2.163 13.545L84.779 137H79z"/><path d="M151.455 243.089c-1.147-.148-2.878.29-3.672-.21-.11-5.216.262-10.461-.282-15.652-.722-4.034-6.054-3.518-8.683-1.707-2.192.534-2.044 2.426-1.933 4.217v13.352c-1.147-.148-2.879.29-3.672-.21V212.7c1.146.147 2.878-.291 3.672.21v10.785c3.335-3.055 9.248-4.537 12.714-.898 2.745 3.496 1.614 8.113 1.856 12.217v8.076zm-22.695-.195c-3.59.986-8.859 1.293-10.571-2.825-1.181-3.834-.496-7.915-.68-11.872v-3.839c-1.302-.013-3.084.452-2.48-1.468-.57-1.88.895-1.722 2.308-1.617.402-.915.058-2.575.173-3.777.016-1.304-.456-3.097 1.468-2.493 1.465-.171 2.742-.154 2.203 1.678v4.592h7.579c-.313.995.766 3.383-.84 3.085h-6.739c.097 4.52-.231 9.076.254 13.565.684 3.804 5.816 1.633 7.324 2.09v2.88zm-14.825-17.618c-3.485-.99-7.266-.12-9.941 2.325v15.488c-1.147-.148-2.878.29-3.672-.21v-21.607c1.146.148 2.878-.29 3.672.21.07 1.54-.55 4.375 1.566 1.84 2.208-1.712 6.296-2.938 8.375-1.396v3.35zM93.213 243.09c-1.138-.15-2.868.293-3.653-.21.7-3.497-1.57-.723-3.405-.024-3.989 1.885-9.876.726-11.19-3.975-1.14-3.511.669-7.696 4.325-8.756 3.08-1.623 7.981-.476 10.27-2.016.207-4.305-5.169-4.531-8.214-3.9-1.737-.236-5.477 2.86-4.735-.415-.887-2.95 2.645-2.458 4.62-2.91 3.991-.353 9.328-.33 11.337 3.866 1.141 3.354.457 6.976.645 10.459v7.88zm-3.653-5.371v-6.074c-3.554.46-7.942-.203-10.544 2.78-2.359 3.86 2.361 7.048 5.891 5.667 1.723-.367 3.257-1.338 4.653-2.373zm-19.16 5.37H51.24v-29.081H70.4c-.265 1.02.542 3.113-.42 3.437H55.108v7.97H70.4c-.265 1.02.542 3.112-.42 3.437H55.108v10.8H70.4v3.438z"/></svg>