<svg xmlns="http://www.w3.org/2000/svg" role="img" viewBox="-1.40 -2.40 214.04 267.54"><title>Earth logo</title><path d="M92.92 105.259v7.87l.372-.597q4.924-7.944 9.847-7.944 3.842 0 8.021 3.879l-3.582 5.968q-3.544-3.357-6.565-3.357a7.033 7.033 0 0 0-5.688 3.133 11.834 11.834 0 0 0-2.406 7.423v17.94h-6.826V105.26zm21.298 31.854v-7.311a30.943 30.943 0 0 0 5.875 3.264 13.699 13.699 0 0 0 5.055 1.25 6.326 6.326 0 0 0 3.655-1.045 3.004 3.004 0 0 0 1.53-2.5 3.365 3.365 0 0 0-.99-2.48 23.058 23.058 0 0 0-4.27-2.853q-6.566-3.654-8.598-6.247a8.961 8.961 0 0 1-2.032-5.651 7.934 7.934 0 0 1 3.077-6.453 12.172 12.172 0 0 1 7.926-2.5 21.828 21.828 0 0 1 10.332 2.836v6.714q-6.043-3.655-9.885-3.656a5.489 5.489 0 0 0-3.189.84 2.584 2.584 0 0 0-1.213 2.222 3.193 3.193 0 0 0 1.099 2.279 18.73 18.73 0 0 0 3.86 2.61l2.424 1.38q8.581 4.849 8.582 10.74a8.547 8.547 0 0 1-3.3 6.916 12.963 12.963 0 0 1-8.487 2.703 20.711 20.711 0 0 1-5.445-.652 36.678 36.678 0 0 1-6.006-2.406zm30.623 19.955v-51.809h11.885q9.126 0 14.212 4.55 5.086 4.552 5.086 12.72a17.513 17.513 0 0 1-4.787 12.681 16.212 16.212 0 0 1-12.196 4.961 21.372 21.372 0 0 1-7.263-1.454v18.35zm11.738-45.468h-4.8v21.111a14.164 14.164 0 0 0 6.55 1.605 10.085 10.085 0 0 0 7.798-3.32 12.167 12.167 0 0 0 3.033-8.542 11.98 11.98 0 0 0-1.433-5.93 8.684 8.684 0 0 0-3.907-3.749 17.471 17.471 0 0 0-7.24-1.175z"/><path d="M105.715 206.433a101.814 101.814 0 1 1 101.814-101.815 101.93 101.93 0 0 1-101.814 101.815zm0-195.63a93.814 93.814 0 1 0 93.814 93.815 93.92 93.92 0 0 0-93.814-93.814zM74.933 232.37H57.616v6.949h15.896v5.683H57.616v8.414h18.116v5.884H50.933v-32.725h24zm15.202 12.21a10.001 10.001 0 0 0 2.527-.554 1.904 1.904 0 0 0 1.364-1.8 2.127 2.127 0 0 0-1.047-2.053 6.62 6.62 0 0 0-3.071-.565 4.037 4.037 0 0 0-3.219 1.109 4.58 4.58 0 0 0-.9 2.22h-6.105a9.262 9.262 0 0 1 1.784-5.217q2.52-3.196 8.652-3.196a15.427 15.427 0 0 1 7.09 1.576q3.1 1.576 3.099 5.949v11.102q0 1.154.044 2.796a3.514 3.514 0 0 0 .378 1.688 2.267 2.267 0 0 0 .932.732v.933h-6.882a7.025 7.025 0 0 1-.4-1.377q-.111-.643-.177-1.465a13.05 13.05 0 0 1-3.038 2.42 9.178 9.178 0 0 1-4.644 1.177 8.018 8.018 0 0 1-5.46-1.876 6.67 6.67 0 0 1-2.155-5.318 6.89 6.89 0 0 1 3.466-6.46 15.489 15.489 0 0 1 5.592-1.554zm3.868 2.953a6.963 6.963 0 0 1-1.226.61 10.354 10.354 0 0 1-1.699.433l-1.44.267a9.474 9.474 0 0 0-2.91.866 2.89 2.89 0 0 0-1.494 2.687 2.805 2.805 0 0 0 .913 2.342 3.467 3.467 0 0 0 2.221.721 6.61 6.61 0 0 0 3.82-1.199q1.748-1.198 1.815-4.373zm25.277-12.999c.082.008.263.019.544.034v6.482c-.4-.044-.754-.073-1.065-.088q-.466-.022-.755-.022-3.819 0-5.128 2.486a9.673 9.673 0 0 0-.733 4.307V259.3h-6.372v-24.2h6.039v4.219a13.377 13.377 0 0 1 2.553-3.308 6.95 6.95 0 0 1 4.618-1.487c.119 0 .218.003.3.01zm1.766 5.296v-4.508h3.374v-6.749h6.26v6.75h3.93v4.506h-3.93v12.788a2.875 2.875 0 0 0 .379 1.854 4.155 4.155 0 0 0 2.308.366 16.744 16.744 0 0 0 1.243-.044v4.729l-2.997.111q-4.484.155-6.127-1.554a4.626 4.626 0 0 1-1.066-3.352v-14.898zm35.019-4.595a7.114 7.114 0 0 1 2.996 2.377 6.343 6.343 0 0 1 1.215 2.789 34.523 34.523 0 0 1 .221 4.677V259.3h-6.46v-14.736a6.532 6.532 0 0 0-.661-3.157 3.313 3.313 0 0 0-3.262-1.689 4.476 4.476 0 0 0-3.78 1.679 7.728 7.728 0 0 0-1.29 4.79V259.3h-6.326v-32.614h6.327v11.545a7.736 7.736 0 0 1 3.173-2.942 8.932 8.932 0 0 1 3.79-.833 10.24 10.24 0 0 1 4.057.779z"/></svg>