<svg xmlns="http://www.w3.org/2000/svg" role="img" viewBox="-10.16 -10.16 528.32 172.82"><title>Embree logo</title><g transform="translate(-4.512 -4.8)"><path fill="#b1c7d9" d="M36.79784 157.28663c-10.65992-2.01739-19.98298-8.07047-25.66171-16.66112-3.25937-4.93071-4.81287-8.87076-6.04302-15.32661-.788-4.13541-.77583-7.79592.04018-12.09724 1.58198-8.33882 4.92312-15.00063 10.22274-20.3828 6.20855-6.30525 14.11322-10.34322 22.54296-11.51568 3.16159-.43974 9.6728-.4408 12.82698-.0021 13.77495 1.91591 26.0296 11.81568 30.74233 24.83481 1.88613 5.21052 2.75362 11.63398 2.23066 16.51731l-.2299 2.1468H50.37453c-23.90082 0-33.09453.098-33.09453.3528 0 .90027 1.97884 6.09903 3.02303 7.94205 2.46677 4.35386 6.78646 8.60993 11.01325 10.85101 4.77724 2.53295 10.64564 3.60864 16.44267 3.01397 8.19552-.8407 13.9724-3.52197 19.0793-8.85543l2.03826-2.12869 4.3419 3.29215c2.38804 1.81068 4.49482 3.39555 4.68174 3.52194.2047.13841-.6146 1.19683-2.06015 2.66145-5.81972 5.89649-12.20532 9.40129-20.77143 11.40063-3.67175.85699-14.65823 1.11841-18.27073.43475zM71.174 113.36c-.58552-2.59987-.9301-3.64531-1.88502-5.719-1.51804-3.29658-3.2741-5.72674-6.02806-8.3421-5.20707-4.94498-11.5721-7.44778-18.94092-7.44778-10.54247 0-20.04356 5.83655-24.7254 15.18888-.62228 1.24307-2.3146 6.28545-2.3146 6.89652 0 .18892 10.21014.30348 27.0461.30348h27.0461zM377.76 157.53931c-.528-.0686-2.46123-.49301-4.29605-.94304-14.50883-3.55856-25.37128-14.73241-28.5469-29.36527-.976-4.49732-.98316-11.20497-.0168-15.711 3.02706-14.1143 13.15297-24.97985 27.01955-28.99316 4.52285-1.30903 7.93966-1.67777 13.68017-1.47637 5.56778.19534 9.07361.92863 13.95576 2.91907 10.93796 4.45936 19.42283 14.08893 22.38843 25.40887 1.10071 4.20147 1.61119 9.46298 1.23308 12.70926l-.29728 2.55233-33.07533.0815-33.07533.0815.22267 1.1985c.12246.65918.62885 2.2474 1.12532 3.52937 3.21719 8.30752 9.99804 14.37666 18.72268 16.75757 3.725 1.01653 10.90958 1.00367 15.2-.0272 5.66996-1.36236 10.94431-4.43094 14.72359-8.56607l1.61115-1.76285 4.29522 3.26009c2.36237 1.79305 4.4477 3.44382 4.63406 3.66837.64884.7818-6.04531 6.68719-10.62372 9.37195-4.17128 2.44602-10.07485 4.43268-15.4403 5.19596-2.123.30201-11.38171.37823-13.44.11064zM410.67882 113.36c-1.39187-5.74074-3.97581-10.35803-7.84625-14.0206-2.32213-2.19742-3.58126-3.07946-6.54838-4.58726-4.35321-2.21217-6.86095-2.7555-12.6042-2.73085-4.45872.01913-5.25108.10998-7.84.8989-9.30758 2.83627-17.22705 11.27627-18.8879 20.12935l-.22333 1.19046h54.16342zm55.40116 43.9201c-13.9749-2.56207-25.37067-12.08381-30.06412-25.1201-2.06972-5.74873-2.6306-13.20031-1.48444-19.7213 1.34892-7.67458 4.81092-14.32565 10.45193-20.0799 5.46208-5.57172 14.17943-9.94578 22.05663-11.06722 2.88175-.41026 9.91825-.41026 12.8 0 8.27323 1.17782 16.49779 5.40816 22.33196 11.48654 5.71434 5.95353 8.94405 12.25147 10.31532 20.11493.47962 2.75033.63791 9.081.27272 10.90695l-.2 1h-66.17219l.20562.88c2.01943 8.64271 8.2094 16.00594 16.28657 19.37358 4.28486 1.78649 10.08626 2.50169 15.04 1.85412 7.66367-1.00181 12.90305-3.52328 17.92354-8.62576l2.37493-2.41373.73076.6764c.40193.37202 2.38677 1.92443 4.41077 3.4498 2.024 1.52537 3.68 2.91417 3.68 3.08623 0 .17206-1.008 1.32826-2.24 2.56932-6.2101 6.25579-13.9463 10.1654-23.03045 11.6388-3.54716.57533-12.53118.57037-15.68955-.009zm34.4-43.50358c0-.9924-1.68194-5.7162-2.71186-7.61638-3.25069-5.99745-8.76591-10.689-15.09703-12.84235-3.58208-1.21834-6.36144-1.58645-10.55781-1.39832-10.7702.48284-20.00188 6.97061-24.01988 16.88053-.5352 1.32-1.07 2.832-1.18845 3.36-.11845.528-.29022 1.212-.38173 1.52-.15752.53023 1.27224.56 26.8952.56 23.41272 0 27.06156-.0625 27.06156-.46348zM96 119.36V81.92H107.76279l2.14246 3.12c1.17836 1.716 3.41738 4.992 4.97561 7.28 15.96262 23.43842 22.11296 32.31316 22.32823 32.21891.21348-.0935 1.49357-1.92115 6.98914-9.97891 1.14034-1.672 3.71234-5.416 5.71554-8.32 2.00321-2.904 4.86539-7.08 6.36041-9.28 1.49502-2.2 4.10944-6.016 5.80983-8.48 1.70039-2.464 3.4031-4.94621 3.7838-5.51604l.69218-1.03603 6-.004 6-.004V156.8h-12.15646l-.0818-27.72289-.0818-27.72289-2.1368 3.16289c-1.17524 1.73959-3.12708 4.60289-4.33743 6.36289-7.62491 11.08761-13.70222 19.92886-15.50733 22.56-3.99626 5.82498-5.86278 8.51942-6.51603 9.40632l-.6576.89279-1.48284-2.18955c-.81557-1.20426-2.87012-4.20556-4.56566-6.66956-1.69555-2.464-4.16121-6.064-5.47924-8-1.31804-1.936-4.17885-6.112-6.35737-9.28-2.17851-3.168-5.51603-8.04074-7.4167-10.82832-1.90067-2.78757-3.56539-5.13607-3.69938-5.21888-.13399-.0828-.24361 12.31393-.24361 27.54832V156.8h-11.84zm98.87999-.011V81.89799l20.88.091 20.88.09102 2.62864.89033c5.24898 1.77785 9.83923 5.75294 12.22636 10.58784 1.69586 3.43481 2.34778 6.11212 2.34778 9.64182 0 4.70782-1.72913 9.73019-4.50757 13.09248l-1.24744 1.50958 2.60666 2.61897c4.36747 4.38811 6.26557 8.97034 6.26557 15.12585 0 8.42535-4.60071 15.66107-12.27696 19.30845-3.97949 1.89087-4.76388 1.94467-28.34955 1.94467h-21.45349zm45.53401 25.4716c2.16567-1.09733 4.15875-3.13306 5.13451-5.24437.55639-1.20391.69073-2.09012.68763-4.53622-.003-2.76254-.09-3.1962-.94798-4.75147-1.35418-2.45476-3.51684-4.27719-6.07053-5.11551-2.04497-.67132-2.58682-.69302-17.30436-.69302h-15.19328v21.47306l15.92-.0965 15.92-.0965zm-4.39207-31.25063c1.79152-.55335 2.485-.98569 3.98166-2.48236 2.45237-2.45236 3.31287-4.68223 3.1227-8.09197-.25784-4.62283-2.99255-8.25557-7.19094-9.55232-1.94755-.60154-2.96358-.6433-15.64907-.6433h-13.56629V114.24h13.56629c12.86504 0 13.67843-.0346 15.73565-.67004zm35.33806 5.78439v-37.4598l21.52.10256c21.35785.10177 21.53802.10805 23.91124.83358 7.78525 2.38005 13.44671 7.83077 15.94968 15.35598.70123 2.10826.81846 3.03844.83348 6.61332.02 4.76009-.44453 6.95113-2.2486 10.60591-2.05674 4.16665-6.46162 8.5668-10.6858 10.67432-.792.39514-1.49143.76417-1.5543.82007-.0629.0559.93046 1.94619 2.20738 4.20067 1.27691 2.25447 2.68458 4.74703 3.12815 5.53903.44357.792 1.43025 2.4959 2.19263 3.78645.76238 1.29054 1.38614 2.38362 1.38614 2.42907 0 .0454 1.728 3.08047 3.84 6.74448 2.112 3.66402 3.84 6.78592 3.84 6.93755 0 .15164-2.9137.23672-6.47489.18908l-6.47489-.0866-2.83041-5.12c-1.55673-2.816-3.30789-5.984-3.89146-7.04-.58358-1.056-2.85942-5.16-5.05742-9.12l-3.99637-7.2-11.71398-.0839-11.71399-.0839-.0833 14.32393-.0833 14.32394-6 .0871-6 .0871zm43.00116-3.22935c2.77033-1.22968 4.77054-3.10302 6.0192-5.63741.91729-1.86181 1.074-2.53876 1.16653-5.03916.0874-2.36069-.0199-3.2265-.58686-4.73877-.91573-2.44237-2.35616-4.28298-4.49346-5.74177-3.0408-2.07548-3.86147-2.16789-19.2538-2.16789h-13.69277v24.35033l14.48-.0952 14.48-.0952zm-207.4294-54.05535C100.54757 60.3974 95.5976 55.816 93.19665 49.3573c-.98536-2.6507-1.34686-8.08797-.72564-10.91435 1.64072-7.46476 7.76772-13.86929 14.88899-15.5634 2.42885-.5778 7.38766-.58838 10.03151-.0214 3.33946.71617 6.58856 2.52953 9.15867 5.11155 4.02341 4.04206 6.04774 9.32934 5.86182 15.31034L132.32 46.24l-15.12866.16-15.12866.16.83691 1.67925c.88704 1.77983 2.85258 3.71674 4.48436 4.41903 1.99515.85868 5.10985 1.19262 7.41606.79512 2.35209-.40542 5.86508-2.10318 7.03043-3.39768l.71044-.78917 2.82386 2.16673c1.55312 1.1917 3.24942 2.50442 3.76956 2.91716l.94571.75044-1.97989 1.86266c-4.10792 3.86467-9.22827 5.77087-15.41549 5.73885-2.28016-.0118-4.18019-.22078-5.75287-.63272zm15.32583-24.24835c-.70734-2.46633-2.27422-4.19204-5.00994-5.51776-2.2921-1.11075-6.6371-1.2645-9.13471-.32323-2.91738 1.09946-5.02941 3.26945-5.8589 6.01968l-.21716.72h20.47845zm-39.4317 24.25128c-4.65702-.78587-7.41143-2.44506-9.04432-5.44808-1.90561-3.50457-1.88971-3.29223-2.01744-26.9445L71.64705 8H82.24v15.04h7.36V32h-7.36l.0018 8.24c.001 4.65992.14483 8.75505.33102 9.42545.34323 1.23583 1.53386 2.41112 2.67919 2.64468.3674.07492 1.496.22615 2.508.33607l1.84.19985V62.4l-2.64-.03764c-1.452-.0207-3.31236-.1511-4.13412-.28977zM11.52 42.56V23.04h10.56v39.04H11.52zm16.14693 19.12c-.08414-.22-.11561-8.968-.06996-19.44L27.68 23.2h10.24v2.48053c0 1.3643.03303 2.4803.07341 2.48.04037-.00029.63941-.61253 1.33118-1.36053 1.58804-1.7171 4.27684-3.34939 6.48592-3.93738 3.91768-1.04278 9.915-.34196 13.11329 1.53236 1.86113 1.0907 4.49916 3.91603 5.48223 5.87148 1.8405 3.66095 1.97233 4.9139 1.98361 18.85354L66.4 61.92H55.84l-.16-12.32954-.16-12.32955-.81747-1.5875c-1.53493-2.98078-4.50453-4.52118-8.15699-4.2312-3.42115.2716-5.85003 1.93543-7.30353 5.00306L38.24 38.56l-.09806 11.76-.09805 11.76H32.9319c-3.79467 0-5.1514-.10307-5.26496-.4zM137.6 33.44V4.8h10.24v57.28h-10.24zm16.03034 27.49642c-1.37298-1.15529-1.83912-2.85729-1.20088-4.3848.56758-1.35842 2.17382-2.46923 3.57054-2.46923 1.90372 0 4 2.01119 4 3.83761 0 .96444-.81129 2.39658-1.79676 3.17175-1.24021.97555-3.31259.90515-4.5729-.15533zm4.38896-.8718c1.63394-1.73926.85935-4.46576-1.38852-4.88746-1.48851-.27925-2.54245.20911-3.20142 1.48343-.61088 1.18131-.4134 2.3657.57015 3.41941.94181 1.009 3.06507 1.00087 4.01979-.01538zm-3.4593-2.14462v-2.24h1.09383c.60161 0 1.32161.08741 1.6.19424.58017.22263.68486 1.73908.15653 2.2674-.25286.25287-.25286.5305 0 1.00297.46257.86433.44216 1.0154-.13722 1.0154-.26777 0-.65088-.36-.85136-.8-.20048-.44-.48539-.8-.63314-.8-.14775 0-.26864.36-.26864.8 0 .49777-.18133.8-.48.8-.38095 0-.48-.46223-.48-2.24zm2.16015-.88c.0781-.23462-.14245-.4-.53348-.4-.39307 0-.66667.20662-.66667.50347 0 .58812.99855.50203 1.20015-.10347zM11.4208 16.75413c-.12144-.12144-.2208-2.6482-.2208-5.61502V5.7449l5.52.08755 5.52.08756V16.8l-5.2992.08746c-2.91457.0481-5.39857-.0119-5.52-.13333z"/><path fill="#93b1ca" d="M37.28 157.26365c-8.25608-1.54642-15.43346-5.14916-20.90482-10.49334-6.73962-6.58295-10.38213-14.20212-11.59614-24.25606-.35934-2.97587-.3429-3.88877.13024-7.23241.71238-5.03434 1.8212-8.79204 3.77591-12.79628C14.39807 90.7827 25.81885 82.8055 39.07464 81.25911c18.76448-2.18903 35.66636 7.62846 42.19146 24.50701 1.63711 4.23472 2.3468 8.30049 2.37283 13.59388.01255 2.552-.08957 4.82-.22694 5.04-.19718.3158-7.18453.4-33.19088.4-27.9619 0-32.94111.0675-32.94111.4463 0 .24546.30453 1.43346.67673 2.64 2.62982 8.52486 9.53796 15.44936 17.9929 18.03552 3.51603 1.07546 6.2049 1.37923 10.44112 1.17953 8.49998-.40069 14.78729-3.09887 20.23739-8.68479l2.2906-2.34768 4.42063 3.34733c2.43134 1.84103 4.42063 3.45699 4.42063 3.59103 0 .61522-3.8462 4.39302-6.51407 6.39824-4.96062 3.72849-10.62858 6.23053-17.16593 7.57768-3.52878.72718-13.52426.89406-16.8.28049zM71.3562 113.84c-.0079-.83683-.9026-3.6898-1.85775-5.92424-2.44788-5.72642-6.82669-10.32342-12.59765-13.22537-15.34172-7.71463-33.9065.1335-38.94407 16.46332-.3722 1.20654-.67673 2.39454-.67673 2.64 0 .3782 4.12545.44629 27.04.44629 21.42069 0 27.0392-.0831 27.0362-.4zm305.5785 43.44581c-18.09897-3.04908-31.41546-17.37553-32.57519-35.04581-.77003-11.7325 3.04416-21.94859 11.22655-30.0697 5.29485-5.25519 12.09869-8.81753 20.25393-10.60452 2.61108-.57214 13.12296-.57692 15.68-.0071 3.22198.71797 7.8787 2.2981 10.23999 3.47469 11.07659 5.5192 18.51728 15.35698 20.83589 27.54835.5419 2.84934.73948 10.15634.31092 11.49831l-.22993.72h-66.13612l.47703 1.84c1.24555 4.80435 3.95851 9.34775 7.73774 12.9584 6.58953 6.29561 15.28423 8.75663 25.16448 7.12278 6.73978-1.11453 11.56063-3.5995 16.13485-8.31691l2.28808-2.35971 4.38853 3.37429c2.4137 1.85586 4.43099 3.48519 4.48287 3.62074.18854.49252-5.45538 5.73709-8.05376 7.48391-5.38014 3.61692-12.07868 6.08283-18.75218 6.90318-3.58572.44078-10.4469.36904-13.47368-.14087zm33.94528-43.30941c0-.7449-1.64589-5.60898-2.40959-7.12101-4.7955-9.4946-14.04057-15.11887-24.7904-15.08135-12.57068.04387-23.18544 8.12606-26.53172 20.20153l-.62751 2.26443h27.17961c14.94879 0 27.17961-.11862 27.17961-.2636zm55.68 43.30982c-16.62242-3.16476-28.44537-14.38331-31.87571-30.24622-.77891-3.60192-.80605-11.52953-.0521-15.20588 3.34669-16.31794 16.8655-28.62913 33.57524-30.57601 8.25878-.96225 16.28497.36733 23.47253 3.88834 10.74277 5.26262 18.28494 15.23378 20.67505 27.33355.46265 2.34212.61693 10.78119.21499 11.76-.2169.52823-2.10089.56-33.19999.56-18.13353 0-32.96653.108-32.96222.24.0303.92899.83625 3.48048 1.77098 5.60643 3.20852 7.29751 8.95102 12.55847 16.51773 15.13264 7.03338 2.39274 16.77538 1.66408 23.5951-1.7648 2.78965-1.40262 6.72961-4.42469 8.57973-6.58094l1.20863-1.40862 4 3.04414c5.91812 4.50391 5.65573 3.70861 2.28263 6.91854-6.15311 5.85548-12.18316 9.05458-20.39938 10.82241-4.16281.89569-13.81348 1.15987-17.40325.47642zM500.12604 111.92c-2.46308-9.02508-8.87674-15.81033-17.73274-18.76013-14.16267-4.71737-29.39103 2.45661-34.70488 16.34926-.49035 1.28198-.98737 2.87087-1.10449 3.53087l-.21295 1.2h54.38823zM96 119.36V81.92H107.7341l2.42922 3.6c1.33608 1.98 3.46526 5.112 4.73153 6.96 6.13379 8.95174 18.28124 26.71355 20.02328 29.27773 1.07698 1.58525 2.06729 2.88227 2.20069 2.88227.25227 0 1.00647-1.04777 5.75852-8 1.56391-2.288 3.43841-5.024 4.16554-6.08.72713-1.056 2.30817-3.36 3.51341-5.12 1.20525-1.76 2.93306-4.28 3.83958-5.6 2.41548-3.5172 5.62972-8.2092 8.05618-11.76 1.17264-1.716 2.62725-3.80719 3.23246-4.6471l1.1004-1.52708 5.80753.08709 5.80754.08709v74.56l-5.84.0872-5.84.0872v-27.91833c0-27.22204-.0148-27.90259-.59467-27.28722-.32707.34711-1.8638 2.50311-3.41496 4.79111-3.16673 4.67099-3.87481 5.70241-14.11034 20.55365-2.09001 3.03251-5.45603 7.95926-7.48003 10.94833-2.024 2.98907-3.81918 5.39353-3.9893 5.34325-.3036-.0897-1.84996-2.28125-9.28959-13.16523-2.04515-2.992-4.95223-7.24-6.46018-9.44-6.83587-9.97312-8.97661-13.10233-11.10294-16.22969L108 101.05991l-.0818 27.87005-.0818 27.87004H95.99992zm98.87999.001V81.8937l20.72.09407 20.72.09407 2.56.87089c6.78328 2.3076 11.73431 7.21653 13.96607 13.84727.64145 1.9058.75246 2.86065.74405 6.39999-.009 3.71091-.10615 4.43637-.90168 6.72-.91812 2.63557-2.23399 4.96098-3.85461 6.81188l-.92616 1.05778 2.25754 2.14517c3.41419 3.24426 5.2733 6.46201 6.273 10.85738 2.49708 10.97881-4.03438 21.95949-15.01563 25.24427-1.72754.51675-3.95603.57936-24.22258.68052l-22.32.11142zm45.69099 25.50798c2.08015-1.096 3.82034-2.84914 4.87185-4.90812.69234-1.35567.79716-1.98169.79716-4.76092 0-2.73807-.11175-3.42705-.77416-4.77292-1.00848-2.04898-2.95041-3.91926-5.14584-4.95598l-1.76-.8311-15.92-.0886-15.92-.0886v21.48499l16.08-.0939 16.08-.0939zm-3.39162-31.64189c7.41642-3.47654 8.2491-14.02755 1.46717-18.59056-2.62973-1.76933-3.29716-1.83659-18.22462-1.83659h-13.70192v21.4649l14.32-.0924 14.32-.0924zM271.50758 156.4c-.0838-.22-.11526-17.032-.07-37.36l.0824-36.96 21.28.0055 21.28.0055 2.88.89305c7.53716 2.33716 13.046 7.49256 15.39918 14.41116 3.77291 11.09278-.93823 22.83415-11.3662 28.3275l-2.19691 1.1573 1.27399 2.24c.7007 1.232 1.61142 2.8425 2.02383 3.57888.41241.73638 2.1888 3.84762 3.94753 6.91387 1.75873 3.06624 3.49724 6.10831 3.86335 6.76014.36612.65184 1.25736 2.2206 1.98053 3.48614.72318 1.26553 1.67797 2.94897 2.12175 3.74097.44378.792 1.00174 1.72405 1.23991 2.07121.23817.34716.43304.74316.43304.88 0 .13684-2.86429.24879-6.36509.24879h-6.36508l-2.00581-3.6c-1.88581-3.38463-8.93695-16.08096-10.88521-19.6-.4872-.88-1.37187-2.464-1.96593-3.52l-1.0801-1.92-11.90639-.0839-11.90639-.0839V156.8h-5.77004c-4.32146 0-5.80829-.10042-5.92237-.4zm43.43479-40.48771c4.38552-2.1597 6.83829-6.18072 6.77836-11.11229-.0588-4.84183-2.46064-8.66593-6.77829-10.79228L312.815 92.96l-14.8075-.09489-14.80751-.09489v24.37397l14.80743-.0921 14.80744-.0921zM107.84823 62.24071c-3.0443-.69032-6.92161-2.67503-9.07428-4.64493-7.13057-6.52514-8.65265-17.09497-3.6766-25.5316.58445-.99092 2.0346-2.77174 3.22254-3.95737 6.0665-6.05473 15.86639-7.47087 23.65577-3.41839 6.70207 3.4868 10.49285 10.3709 10.50192 19.07158l.002 2.32H117.28c-10.02925 0-15.2.11005-15.2.32349 0 .75228 1.40991 3.2321 2.44159 4.29439 4.00628 4.12513 12.52995 3.94203 17.1324-.36805.9906-.92767.6289-1.09106 5.02206 2.26864l3.35585 2.56642-1.97735 1.81865c-2.25783 2.07663-5.52528 3.90437-8.63601 4.8308-2.86461.85313-8.73441 1.06944-11.57031.42637zm14.53522-24.21283c-.89122-2.808-2.50276-4.57749-5.35511-5.87995-1.69486-.77392-2.1284-.83544-5.12-.72651-2.63845.09607-3.57022.26678-4.83471.88583-1.87454.91769-3.47537 2.45122-4.35147 4.1685-1.21762 2.38675-1.82839 2.24425 9.6194 2.24425h10.26156zM84.8 62.23821c-.264-.0553-1.56-.2752-2.88-.48867-3.7007-.59846-6.09007-1.99185-7.68937-4.48414-2.3577-3.67415-2.6068-6.7017-2.48688-30.2254L71.84 8.16h10.24l.08587 7.42958.08587 7.42957 3.59413.09042L89.44 23.2v8.64l-3.6.09048-3.6.09048.01806 8.54952c.01215 5.7493.14316 8.91118.4 9.65372.51515 1.48932 1.84988 2.19445 4.6457 2.45429l2.31281.21495-.08829 4.67328-.08829 4.67328-2.08.04938c-1.144.02716-2.296.0041-2.56-.05116zm-73.05885-.36374c-.12163-.12163-.22115-8.91271-.22115-19.53574v-19.3146l5.2.08794 5.2.08793v38.72l-4.97885.08782c-2.73837.0483-5.07837-.0117-5.2-.13334zM27.84 42.56813V23.04h9.92v5.46862l1.68-1.70006c2.93256-2.96758 6.58613-4.42075 11.05575-4.39732 6.16633.03233 11.2343 2.87348 13.65826 7.65695 1.92707 3.80287 2.08599 5.27045 2.08599 19.263V62.08H56l-.0024-10.64c-.0013-5.852-.15128-11.55739-.33321-12.67864-.78454-4.835-3.26132-7.10082-8.0256-7.34202-1.93331-.09787-2.74042.0088-3.87918.51248-2.05236.90786-3.88335 2.68867-4.76134 4.63085-.7429 1.64335-.7615 1.91723-.91825 13.51733l-.16 11.84-5.04.08813-5.04.08812zM137.59999 33.44V4.8h10.24v57.28h-10.24zm16.39203 27.6974c-2.44333-1.53338-2.19822-5.31923.42499-6.56402 3.0563-1.45031 6.44108 1.6603 5.14313 4.72652-.62556 1.4778-1.58602 2.19665-3.14716 2.35548-1.01033.1028-1.64979-.03402-2.42096-.51799zm3.29692-.3997c.90663-.41309 1.75105-1.75696 1.75105-2.78675 0-2.66828-3.21667-3.9035-5.14461-1.97556-1.13268 1.13268-1.22261 2.45315-.25119 3.68812 1.0782 1.3707 2.24149 1.71356 3.64475 1.0742zm-2.72895-2.8177v-2.24h1.216c.6688 0 1.3888.1728 1.6.384.544.544.4765 1.8406-.10748 2.06469-.44198.1696-.44198.26415 0 .9387.59585.90938.61127 1.09322.0915 1.09059-.22-.0011-.68432-.46911-1.03184-1.04l-.63184-1.03798-.10843 1.04c-.0668.6404-.28507 1.04-.56816 1.04-.35585 0-.45973-.50613-.45973-2.24zm2.24-.8c0-.26666-.28444-.48-.64-.48-.35555 0-.64.21334-.64.48 0 .26667.28445.48.64.48.35556 0 .64-.21333.64-.48zM11.2 11.36V6.08h10.88v10.56H11.2z"/><path fill="#00c6fc" d="M37.92 157.29321c-15.87371-2.5018-28.23654-13.59478-31.96273-28.67967-1.20374-4.87317-1.49108-8.62902-.98994-12.9397.91302-7.85356 3.56167-14.38778 8.1694-20.15384C18.66734 88.59903 25.8253 84.2031 35.36 81.87196c3.82735-.93574 13.30357-1.01814 17.22696-.14978C68.38565 85.21885 79.88998 96.63553 82.93604 111.84c.65494 3.26913.93171 10.74936.45283 12.23852l-.23106.71851-33.05482.0815-33.05483.0815.7176 2.41323c1.39748 4.69956 3.91158 8.83436 7.39759 12.16641 3.81997 3.65126 7.24807 5.54142 12.52598 6.90651 2.85555.73857 3.51746.7917 8.07067.64784 5.78035-.18263 9.21547-.96994 13.39012-3.06891 2.7375-1.37639 6.74027-4.42106 8.4719-6.44406.59365-.69356 1.18062-1.26102 1.30437-1.26102.31775 0 8.65228 6.38389 8.77297 6.71971.05465.15206-.88135 1.26294-2.08 2.46861-6.78383 6.82357-14.87746 10.6747-25.05097 11.91982-3.54769.43419-9.4359.37138-12.6484-.13493zM71.19438 112.88c-.12203-.748-.62518-2.40889-1.11812-3.69087-2.90873-7.56477-9.2787-13.64101-16.8437-16.06702-7.68916-2.46582-14.751-1.88909-21.87256 1.78631-6.4641 3.3361-11.74395 9.88725-13.71034 17.01158l-.64035 2.32h54.40694zm306.24561 44.41648c-16.93762-2.64788-29.7809-15.03245-32.64974-31.48363-.61126-3.50519-.5998-9.46621.0251-13.04953 1.09104-6.2565 3.98647-12.7719 7.59179-17.08332 7.61728-9.10912 17.3039-13.98836 28.99822-14.60669 23.08011-1.22033 41.65405 15.81286 41.63027 38.17696-.002 2.26035-.0912 4.43373-.19732 4.82973l-.19295.72H389.5411c-31.37643 0-33.09576.0292-32.94172.56.0894.308.32842 1.208.5312 2 .62268 2.43203 3.05407 7.08562 4.90596 9.38981 3.05531 3.80155 6.90481 6.73229 11.03295 8.39972 3.99088 1.61198 5.65125 1.89062 11.2505 1.88802 4.50657-.002 5.70186-.11261 8.16-.75446 5.5105-1.43886 9.66658-3.81518 13.45708-7.69432 1.2193-1.24782 2.32592-2.26877 2.45914-2.26877.13323 0 1.57458 1.02526 3.203 2.27836 1.62843 1.25309 3.56716 2.72909 4.30829 3.28.74114.5509 1.35314 1.08361 1.36 1.18378.0182.26534-4.72842 4.89316-6.21889 6.06326-5.50621 4.32271-13.18449 7.36559-20.96023 8.30649-3.54985.42955-9.43775.36651-12.64839-.13541zM410.72288 113.2c-.73261-3.66379-2.86555-8.1218-5.41972-11.32764-5.7241-7.18454-15.41877-11.1781-24.44336-10.06904-12.02331 1.47757-21.45997 9.88822-24.18639 21.55668l-.20562.88H410.93084zm56.96384 44.22547c-13.40601-2.10736-24.0991-9.67201-29.60771-20.94547-3.00786-6.15563-3.95979-10.27129-3.95979-17.12 0-8.36167 1.96806-14.85293 6.57168-21.6754 5.44892-8.07515 14.84215-14.07617 25.22908-16.11798 2.71734-.53416 12.32266-.53416 15.04 0 17.26494 3.39386 29.46669 16.27465 31.70874 33.47338.35481 2.72176.23027 8.76203-.19484 9.44987-.12171.19693-12.22873.31013-33.1684.31013h-32.97672l.22294 1.2c.12262.66.62925 2.24918 1.12585 3.5315 3.43871 8.87954 11.09335 15.315 20.46643 17.20668 3.67334.74136 10.53799.49847 14.416-.51006 5.19619-1.35135 10.39007-4.46704 13.827-8.29451l1.66427-1.85337 4.41436 3.3636c2.42791 1.84999 4.41437 3.54426 4.41437 3.76505 0 .63585-5.27631 5.46115-7.92864 7.25093-7.11863 4.8036-14.1819 6.91257-23.91136 7.13952-2.992.0698-6.30097-.008-7.35326-.17387zM500.58007 113.52c-1.2049-5.4224-4.04315-10.5724-7.8275-14.203-4.34043-4.16408-9.77907-6.67862-16.23602-7.5067-6.56504-.84193-14.29943 1.26763-19.60398 5.347-2.99005 2.29944-6.09313 5.92401-7.70432 8.99905-1.34474 2.56651-2.80827 6.54672-2.80827 7.63736 0 .37822 4.14426.44629 27.17004.44629h27.17004zM96 119.36722V81.92l5.84.004 5.84.004.68732 1.03604c.91439 1.3783 6.73335 9.90265 9.22643 13.51604 1.09289 1.584 3.06527 4.46615 4.38306 6.40477 1.31779 1.93862 3.0422 4.45862 3.83201 5.6.78982 1.14138 3.00287 4.37923 4.91789 7.19523 5.54997 8.16113 6.01041 8.82226 6.24528 8.96742.31459.19443.80103-.42889 4.00146-5.12742 1.55848-2.288 3.73304-5.456 4.83235-7.04 1.0993-1.584 3.2198-4.68 4.71221-6.88 1.49241-2.2 3.75056-5.512 5.01812-7.36 1.26757-1.848 3.53309-5.16 5.0345-7.36 1.50141-2.2 3.50915-5.116 4.46164-6.48l1.7318-2.48h11.47592V156.8h-11.5165l-.0817-28.05662-.0817-28.05662-3.46267 5.09662c-1.90447 2.80314-4.811 7.04062-6.45897 9.41662-1.64796 2.376-4.11913 5.976-5.49149 8-2.61241 3.85288-11.3532 16.54264-12.86878 18.68274-.48405.68351-.99695 1.25951-1.13978 1.28-.27573.0396-1.06977-1.06108-6.09082-8.44274-1.73589-2.552-4.04228-5.936-5.12531-7.52-3.60526-5.27292-7.63962-11.16303-9.91359-14.47373-1.23672-1.80055-3.54458-5.16961-5.12858-7.4868l-2.88-4.21308-.16 27.80681-.16 27.8068-5.84.0872-5.84.0872zm99.10943 37.23556c-.12619-.12619-.22944-16.98831-.22944-37.47138V81.88947l20.56.10748c22.83362.11937 22.0929.05442 26.65631 2.33734 5.54211 2.77251 9.7283 8.10596 11.16569 14.22571 1.364 5.80733-.21617 12.84514-3.9316 17.51059-.73172.91882-1.327 1.78282-1.32284 1.92.004.13718.59452.68141 1.31189 1.20941 4.33516 3.19073 7.62373 10.22221 7.63275 16.32.008 5.50658-2.15942 10.64103-6.22748 14.7514-2.88719 2.91722-5.47392 4.50878-9.12472 5.61422-2.37786.72001-2.60228.72773-24.33056.83666-12.06181.0605-22.03381.007-22.16-.1195zm43.75898-11.03849c6.31643-1.75362 9.56327-9.46009 6.50846-15.44802-.9964-1.9531-3.44438-4.14021-5.52539-4.93656-1.7904-.68515-2.15407-.69971-17.47996-.69971h-15.65153v21.44l15.44-.002c10.24587-.001 15.86671-.12025 16.70842-.35393zm-1.66271-32.18882c.83914-.38749 2.23217-1.42983 3.09563-2.3163 5.11137-5.24766 3.54487-14.07874-3.07554-17.33813l-1.5458-.76104-14.48-.09233-14.48-.09233v21.48932l14.48-.0923c14.14758-.0902 14.51503-.1085 16.00571-.79686zM271.67864 156.64c-.00074-.088-.002-16.9-.003-37.36l-.001-37.2 19.28273-.09089c12.16163-.05732 20.22813.0331 21.84273.24483 8.59222 1.12678 15.22064 5.75244 18.57995 12.96606 1.59422 3.42336 2.14769 5.93503 2.15069 9.76.005 6.17667-1.94531 11.2688-5.96824 15.58378-2.18581 2.3445-5.67347 4.94125-7.84409 5.84035-.56234.23293-.98101.51941-.93037.63662.0506.11721 2.23675 3.94949 4.85803 8.51618 9.11174 15.87408 12.03403 21.00623 12.03403 21.13428 0 .0708-2.86461.12879-6.36579.12879h-6.36579l-2.96353-5.36c-1.62995-2.948-3.28123-5.936-3.66952-6.64-.38829-.704-2.18672-3.944-3.99652-7.2-1.80979-3.256-3.73146-6.748-4.27038-7.76l-.97995-1.84h-23.86863v28.8h-5.76c-3.168 0-5.76061-.072-5.76135-.16zm43.11251-40.59973c5.8755-2.71394 8.52644-9.4212 6.17961-15.63527-1.26541-3.35062-3.94056-5.89358-7.32448-6.96255-1.90907-.60308-2.90434-.64245-16.24-.64245h-14.20629v24.33843l14.8-.0892 14.8-.0892zM108.91397 62.40842C100.76452 60.66642 95.18504 55.69573 92.9204 48.16c-.77106-2.56576-.7913-8.56596-.03702-10.97435 3.87383-12.36909 17.06614-18.21376 28.67136-12.70246 1.77812.84443 2.99281 1.74727 4.84597 3.60185 3.97162 3.97468 5.60863 7.98096 5.98632 14.65043l.18939 3.34453h-15.24821c-9.24429 0-15.24821.1178-15.24821.29917 0 .59242.69116 2.12322 1.46968 3.25506 3.48284 5.0635 12.60486 5.52354 17.86942.9012.72994-.6409 1.26369-.88967 1.54058-.71804 1.78006 1.10334 6.64032 5.06644 6.64032 5.41456 0 .70067-4.13007 3.91289-6.56 5.10214-1.232.60296-3.104 1.325-4.16 1.60452-2.26456.59942-8.07768.87347-9.96603.46982zm13.50122-23.713c.45475-.7358-.87663-3.16735-2.59332-4.7363-3.4505-3.15357-9.04148-3.73464-13.36541-1.38909-2.13051 1.15571-4.37646 4.13944-4.37646 5.81408 0 .64728.13207.6559 10.06111.6559 6.84088 0 10.12928-.1103 10.27408-.3446zm-38.5752 23.37656c-5.52622-.64803-8.48983-2.43294-10.2663-6.18315-1.65747-3.49897-1.7337-4.68989-1.7337-27.08883V8.16l5.04-.08813 5.04-.08812V23.04h7.36V32h-7.42803l.13196 8.56c.1468 9.52293.32849 10.48457 2.15989 11.43163.54683.28277 1.92617.60116 3.0652.70753l2.07099.19339V62.4l-1.68-.04206c-.924-.02313-2.616-.15181-3.76-.28596zM11.5975 42.48L11.68 23.2l5.04-.08813 5.04-.08813V61.76H11.515zM27.84 42.4V23.04h9.92v5.58118l1.71233-1.75379c3.77413-3.8655 9.0393-5.26317 15.0386-3.99207 4.36637.92512 7.8222 3.59569 9.76054 7.54265 1.79762 3.66045 1.95681 5.19655 1.96297 18.94203l.0056 12.4h-10.24l-.0047-10.96c-.0053-12.26811-.21053-13.97834-1.9718-16.43087-1.48237-2.06416-3.57357-3.00998-6.6463-3.006-5.25803.0068-8.44876 3.04142-9.2857 8.8314-.17533 1.21301-.32164 6.56147-.32513 11.88547l-.0063 9.68h-9.92zm109.83827-8.9783l.0817-28.3383h9.92l.0817 28.3383.0817 28.3383h-10.24691zm16.66243 27.86993c-1.73397-.75416-2.52351-3.19799-1.65149-5.11185.3473-.76224 2.54074-2.09978 3.44345-2.09978.22584 0 .90672.23542 1.51307.52315 2.77836 1.31842 2.71494 5.544-.10087 6.72051-1.29207.53986-1.9033.53375-3.20416-.03203zm3.9777-1.36148c.83061-1.02916.92023-2.2978.25343-3.58726-.54758-1.0589-1.05874-1.30289-2.72956-1.30289-1.53082 0-2.88621 1.40697-2.87516 2.98455.0194 2.77108 3.61845 4.0527 5.35129 1.9056zm-3.75841-1.98348V55.68h.98104c1.9318 0 2.90975 1.26834 1.73175 2.24598-.43551.36145-.43279.4874.0256 1.18695.81563 1.2448.18447 1.31579-.81464.09162l-.90704-1.11135-.10834.92872c-.0596.5108-.28834.98783-.50834 1.06007-.29471.09677-.4-.46527-.4-2.13533zm2.24-.79243c0-.24517-.22777-.53317-.50617-.64-.7342-.28174-.77383-.25892-.77383.44576 0 .42667.21334.64.64.64.352 0 .64-.2006.64-.44576zM11.52 11.36V6.08h10.56v10.56H11.52z"/><path fill="#6a94b7" d="M37.92 157.29321c-15.87371-2.5018-28.23654-13.59478-31.96273-28.67967-1.20374-4.87317-1.49108-8.62902-.98994-12.9397.91302-7.85356 3.56167-14.38778 8.1694-20.15384C18.66734 88.59903 25.8253 84.2031 35.36 81.87196c3.82735-.93574 13.30357-1.01814 17.22696-.14978C68.38565 85.21885 79.88998 96.63553 82.93604 111.84c.65494 3.26913.93171 10.74936.45283 12.23852l-.23106.71851-33.05482.0815-33.05483.0815.7176 2.41323c1.39748 4.69956 3.91158 8.83436 7.39759 12.16641 3.81997 3.65126 7.24807 5.54142 12.52598 6.90651 2.85555.73857 3.51746.7917 8.07067.64784 5.78035-.18263 9.21547-.96994 13.39012-3.06891 2.7375-1.37639 6.74027-4.42106 8.4719-6.44406.59365-.69356 1.18062-1.26102 1.30437-1.26102.31775 0 8.65228 6.38389 8.77297 6.71971.05465.15206-.88135 1.26294-2.08 2.46861-6.78383 6.82357-14.87746 10.6747-25.05097 11.91982-3.54769.43419-9.4359.37138-12.6484-.13493zM71.19438 112.88c-.12203-.748-.62518-2.40889-1.11812-3.69087-2.90873-7.56477-9.2787-13.64101-16.8437-16.06702-7.68916-2.46582-14.751-1.88909-21.87256 1.78631-6.4641 3.3361-11.74395 9.88725-13.71034 17.01158l-.64035 2.32h54.40694zm306.24561 44.41648c-16.93762-2.64788-29.7809-15.03245-32.64974-31.48363-.61126-3.50519-.5998-9.46621.0251-13.04953 1.09104-6.2565 3.98647-12.7719 7.59179-17.08332 7.61728-9.10912 17.3039-13.98836 28.99822-14.60669 23.08011-1.22033 41.65405 15.81286 41.63027 38.17696-.002 2.26035-.0912 4.43373-.19732 4.82973l-.19295.72H389.5411c-31.37643 0-33.09576.0292-32.94172.56.0894.308.32842 1.208.5312 2 .62268 2.43203 3.05407 7.08562 4.90596 9.38981 3.05531 3.80155 6.90481 6.73229 11.03295 8.39972 3.99088 1.61198 5.65125 1.89062 11.2505 1.88802 4.50657-.002 5.70186-.11261 8.16-.75446 5.5105-1.43886 9.66658-3.81518 13.45708-7.69432 1.2193-1.24782 2.32592-2.26877 2.45914-2.26877.13323 0 1.57458 1.02526 3.203 2.27836 1.62843 1.25309 3.56716 2.72909 4.30829 3.28.74114.5509 1.35314 1.08361 1.36 1.18378.0182.26534-4.72842 4.89316-6.21889 6.06326-5.50621 4.32271-13.18449 7.36559-20.96023 8.30649-3.54985.42955-9.43775.36651-12.64839-.13541zM410.72288 113.2c-.73261-3.66379-2.86555-8.1218-5.41972-11.32764-5.7241-7.18454-15.41877-11.1781-24.44336-10.06904-12.02331 1.47757-21.45997 9.88822-24.18639 21.55668l-.20562.88H410.93084zm56.96384 44.22547c-13.40601-2.10736-24.0991-9.67201-29.60771-20.94547-3.00786-6.15563-3.95979-10.27129-3.95979-17.12 0-8.36167 1.96806-14.85293 6.57168-21.6754 5.44892-8.07515 14.84215-14.07617 25.22908-16.11798 2.71734-.53416 12.32266-.53416 15.04 0 17.26494 3.39386 29.46669 16.27465 31.70874 33.47338.35481 2.72176.23027 8.76203-.19484 9.44987-.12171.19693-12.22873.31013-33.1684.31013h-32.97672l.22294 1.2c.12262.66.62925 2.24918 1.12585 3.5315 3.43871 8.87954 11.09335 15.315 20.46643 17.20668 3.67334.74136 10.53799.49847 14.416-.51006 5.19619-1.35135 10.39007-4.46704 13.827-8.29451l1.66427-1.85337 4.41436 3.3636c2.42791 1.84999 4.41437 3.54426 4.41437 3.76505 0 .63585-5.27631 5.46115-7.92864 7.25093-7.11863 4.8036-14.1819 6.91257-23.91136 7.13952-2.992.0698-6.30097-.008-7.35326-.17387zM500.58007 113.52c-1.2049-5.4224-4.04315-10.5724-7.8275-14.203-4.34043-4.16408-9.77907-6.67862-16.23602-7.5067-6.56504-.84193-14.29943 1.26763-19.60398 5.347-2.99005 2.29944-6.09313 5.92401-7.70432 8.99905-1.34474 2.56651-2.80827 6.54672-2.80827 7.63736 0 .37822 4.14426.44629 27.17004.44629h27.17004zM96 119.36722V81.92l5.84.004 5.84.004.68732 1.03604c.91439 1.3783 6.73335 9.90265 9.22643 13.51604 1.09289 1.584 3.06527 4.46615 4.38306 6.40477 1.31779 1.93862 3.0422 4.45862 3.83201 5.6.78982 1.14138 3.00287 4.37923 4.91789 7.19523 5.54997 8.16113 6.01041 8.82226 6.24528 8.96742.31459.19443.80103-.42889 4.00146-5.12742 1.55848-2.288 3.73304-5.456 4.83235-7.04 1.0993-1.584 3.2198-4.68 4.71221-6.88 1.49241-2.2 3.75056-5.512 5.01812-7.36 1.26757-1.848 3.53309-5.16 5.0345-7.36 1.50141-2.2 3.50915-5.116 4.46164-6.48l1.7318-2.48h11.47592V156.8h-11.5165l-.0817-28.05662-.0817-28.05662-3.46267 5.09662c-1.90447 2.80314-4.811 7.04062-6.45897 9.41662-1.64796 2.376-4.11913 5.976-5.49149 8-2.61241 3.85288-11.3532 16.54264-12.86878 18.68274-.48405.68351-.99695 1.25951-1.13978 1.28-.27573.0396-1.06977-1.06108-6.09082-8.44274-1.73589-2.552-4.04228-5.936-5.12531-7.52-3.60526-5.27292-7.63962-11.16303-9.91359-14.47373-1.23672-1.80055-3.54458-5.16961-5.12858-7.4868l-2.88-4.21308-.16 27.80681-.16 27.8068-5.84.0872-5.84.0872zm99.10943 37.23556c-.12619-.12619-.22944-16.98831-.22944-37.47138V81.88947l20.56.10748c22.83362.11937 22.0929.05442 26.65631 2.33734 5.54211 2.77251 9.7283 8.10596 11.16569 14.22571 1.364 5.80733-.21617 12.84514-3.9316 17.51059-.73172.91882-1.327 1.78282-1.32284 1.92.004.13718.59452.68141 1.31189 1.20941 4.33516 3.19073 7.62373 10.22221 7.63275 16.32.008 5.50658-2.15942 10.64103-6.22748 14.7514-2.88719 2.91722-5.47392 4.50878-9.12472 5.61422-2.37786.72001-2.60228.72773-24.33056.83666-12.06181.0605-22.03381.007-22.16-.1195zm43.75898-11.03849c6.31643-1.75362 9.56327-9.46009 6.50846-15.44802-.9964-1.9531-3.44438-4.14021-5.52539-4.93656-1.7904-.68515-2.15407-.69971-17.47996-.69971h-15.65153v21.44l15.44-.002c10.24587-.001 15.86671-.12025 16.70842-.35393zm-1.66271-32.18882c.83914-.38749 2.23217-1.42983 3.09563-2.3163 5.11137-5.24766 3.54487-14.07874-3.07554-17.33813l-1.5458-.76104-14.48-.09233-14.48-.09233v21.48932l14.48-.0923c14.14758-.0902 14.51503-.1085 16.00571-.79686zM271.67864 156.64c-.00074-.088-.002-16.9-.003-37.36l-.001-37.2 19.28273-.09089c12.16163-.05732 20.22813.0331 21.84273.24483 8.59222 1.12678 15.22064 5.75244 18.57995 12.96606 1.59422 3.42336 2.14769 5.93503 2.15069 9.76.005 6.17667-1.94531 11.2688-5.96824 15.58378-2.18581 2.3445-5.67347 4.94125-7.84409 5.84035-.56234.23293-.98101.51941-.93037.63662.0506.11721 2.23675 3.94949 4.85803 8.51618 9.11174 15.87408 12.03403 21.00623 12.03403 21.13428 0 .0708-2.86461.12879-6.36579.12879h-6.36579l-2.96353-5.36c-1.62995-2.948-3.28123-5.936-3.66952-6.64-.38829-.704-2.18672-3.944-3.99652-7.2-1.80979-3.256-3.73146-6.748-4.27038-7.76l-.97995-1.84h-23.86863v28.8h-5.76c-3.168 0-5.76061-.072-5.76135-.16zm43.11251-40.59973c5.8755-2.71394 8.52644-9.4212 6.17961-15.63527-1.26541-3.35062-3.94056-5.89358-7.32448-6.96255-1.90907-.60308-2.90434-.64245-16.24-.64245h-14.20629v24.33843l14.8-.0892 14.8-.0892zM108.91397 62.40842C100.76452 60.66642 95.18504 55.69573 92.9204 48.16c-.77106-2.56576-.7913-8.56596-.03702-10.97435 3.87383-12.36909 17.06614-18.21376 28.67136-12.70246 1.77812.84443 2.99281 1.74727 4.84597 3.60185 3.97162 3.97468 5.60863 7.98096 5.98632 14.65043l.18939 3.34453h-15.24821c-9.24429 0-15.24821.1178-15.24821.29917 0 .59242.69116 2.12322 1.46968 3.25506 3.48284 5.0635 12.60486 5.52354 17.86942.9012.72994-.6409 1.26369-.88967 1.54058-.71804 1.78006 1.10334 6.64032 5.06644 6.64032 5.41456 0 .70067-4.13007 3.91289-6.56 5.10214-1.232.60296-3.104 1.325-4.16 1.60452-2.26456.59942-8.07768.87347-9.96603.46982zm13.50122-23.713c.45475-.7358-.87663-3.16735-2.59332-4.7363-3.4505-3.15357-9.04148-3.73464-13.36541-1.38909-2.13051 1.15571-4.37646 4.13944-4.37646 5.81408 0 .64728.13207.6559 10.06111.6559 6.84088 0 10.12928-.1103 10.27408-.3446zm-38.5752 23.37656c-5.52622-.64803-8.48983-2.43294-10.2663-6.18315-1.65747-3.49897-1.7337-4.68989-1.7337-27.08883V8.16l5.04-.08813 5.04-.08812V23.04h7.36V32h-7.42803l.13196 8.56c.1468 9.52293.32849 10.48457 2.15989 11.43163.54683.28277 1.92617.60116 3.0652.70753l2.07099.19339V62.4l-1.68-.04206c-.924-.02313-2.616-.15181-3.76-.28596zM11.5975 42.48L11.68 23.2l5.04-.08813 5.04-.08813V61.76H11.515zM27.84 42.4V23.04h9.92v5.58118l1.71233-1.75379c3.77413-3.8655 9.0393-5.26317 15.0386-3.99207 4.36637.92512 7.8222 3.59569 9.76054 7.54265 1.79762 3.66045 1.95681 5.19655 1.96297 18.94203l.0056 12.4h-10.24l-.0047-10.96c-.0053-12.26811-.21053-13.97834-1.9718-16.43087-1.48237-2.06416-3.57357-3.00998-6.6463-3.006-5.25803.0068-8.44876 3.04142-9.2857 8.8314-.17533 1.21301-.32164 6.56147-.32513 11.88547l-.0063 9.68h-9.92zm109.83827-8.9783l.0817-28.3383h9.92l.0817 28.3383.0817 28.3383h-10.24691zm16.66243 27.86993c-1.73397-.75416-2.52351-3.19799-1.65149-5.11185.3473-.76224 2.54074-2.09978 3.44345-2.09978.22584 0 .90672.23542 1.51307.52315 2.77836 1.31842 2.71494 5.544-.10087 6.72051-1.29207.53986-1.9033.53375-3.20416-.03203zm3.9777-1.36148c.83061-1.02916.92023-2.2978.25343-3.58726-.54758-1.0589-1.05874-1.30289-2.72956-1.30289-1.53082 0-2.88621 1.40697-2.87516 2.98455.0194 2.77108 3.61845 4.0527 5.35129 1.9056zm-3.75841-1.98348V55.68h.98104c1.9318 0 2.90975 1.26834 1.73175 2.24598-.43551.36145-.43279.4874.0256 1.18695.81563 1.2448.18447 1.31579-.81464.09162l-.90704-1.11135-.10834.92872c-.0596.5108-.28834.98783-.50834 1.06007-.29471.09677-.4-.46527-.4-2.13533zm2.24-.79243c0-.24517-.22777-.53317-.50617-.64-.7342-.28174-.77383-.25892-.77383.44576 0 .42667.21334.64.64.64.352 0 .64-.2006.64-.44576z"/><path fill="#5686ad" d="M38.08 157.29065c-13.06656-2.17511-23.67461-9.74337-29.25269-20.87019-1.3408-2.67454-2.791-6.98688-3.4236-10.18046-.57833-2.9196-.57833-10.84039 0-13.76 3.137-15.83658 14.66707-27.33832 30.83047-30.75472 1.93767-.40956 4.10183-.55687 8.08582-.5504 5.96407.0097 8.38603.38472 13.42571 2.0789 12.94238 4.3508 22.55155 15.2789 25.11495 28.56213.64807 3.35818.9165 10.55187.45765 12.26409l-.19296.72H17.00077l.63757 2.32c2.60469 9.47797 10.15024 16.82466 19.84517 19.32217 3.0513.78604 3.57506.82734 8.40528.66271 3.84044-.13089 5.80087-.35137 7.7043-.86646 5.00532-1.35448 9.95251-4.32436 13.56336-8.1423.9402-.99412 1.82477-1.76443 1.96573-1.7118.49698.18555 8.60713 6.49857 8.62237 6.71174.0085.11883-1.02855 1.25213-2.30455 2.51844-7.91818 7.85809-17.41239 11.6983-29.68 12.00495-3.33254.0833-5.85248-.0246-7.68-.3288zm33.28-43.54894c0-1.14325-.80003-3.66931-1.95462-6.17163C60.36966 87.98704 33.41585 85.98998 21.22113 104c-1.47439 2.17748-2.49776 4.35838-3.42382 7.29652-.46052 1.46109-.83731 2.72109-.83731 2.8 0 .0789 12.24.14348 27.2.14348 24.40835 0 27.2-.0511 27.2-.49829zm306.07999 43.53186c-16.31365-2.66151-28.50378-13.76984-32.2283-29.3682-1.0248-4.29189-1.01683-12.83009.016-17.16259 1.67863-7.04141 4.81209-12.67892 9.97229-17.94148 5.78751-5.90231 12.74394-9.5991 21.13413-11.23108 2.6739-.5201 12.01783-.5201 14.69173 0 16.65002 3.2386 28.72783 15.31184 31.52367 31.5117.54984 3.18595.65553 9.64227.17838 10.89725l-.31207.82083h-65.94803l.20562.88c1.89844 8.12492 7.18886 14.88275 14.57493 18.61764 4.68777 2.37044 7.9494 3.0223 14.10956 2.81986 5.7528-.18905 8.54632-.81971 12.88208-2.9082 3.05593-1.472 7.21568-4.58994 8.86995-6.64845.54844-.68247 1.09243-1.24085 1.20887-1.24085.11644 0 1.92834 1.31193 4.02644 2.91539 2.09811 1.60346 4.09884 3.1155 4.44607 3.36009.60215.42414.52818.54943-1.6 2.71018-7.90008 8.02099-17.57889 12.00552-29.91132 12.31379-3.39046.0847-5.87135-.0247-7.84-.34588zm33.29597-44.18097c-.41971-2.23725-1.74251-5.63904-3.04584-7.83287-2.83485-4.77176-6.37729-8.14224-11.05013-10.51374-14.09131-7.15141-30.80726-1.65828-37.75912 12.40825-.83748 1.69457-2.40088 6.25239-2.40088 6.99933 0 .0475 12.25602.0864 27.23561.0864h27.23561zm57.26402 44.32738c-1.232-.1675-3.81792-.74261-5.74649-1.27802-14.34574-3.98272-24.75121-15.17151-27.57796-29.65399-.73194-3.75006-.73194-10.50588 0-14.25593 1.6332-8.36746 5.97221-16.01185 12.0853-21.29166 6.56028-5.66603 13.89728-8.82392 22.51915-9.69237 12.23634-1.23252 24.03996 2.84053 32.42462 11.1887 5.5069 5.48293 9.13286 12.4679 10.65382 20.52329.43409 2.29904.56122 10.80861.17092 11.44013-.19507.31564-7.19185.39987-33.21637.39987h-32.96924l.21626 1.36c.26425 1.66182 1.97262 5.7364 3.41423 8.14318 1.43874 2.40201 4.97871 6.15655 7.40188 7.85055 2.73856 1.91448 4.72355 2.90977 7.90388 3.96308 2.58681.85673 3.00988.90098 8.64.90358 5.17346.002 6.25928-.0895 8.61048-.72852 5.31932-1.44578 9.65946-3.97433 13.30721-7.75274 1.17831-1.22052 2.21048-2.21913 2.2937-2.21913.34328 0 8.55377 6.37285 8.69346 6.74772.16485.44239-4.67799 5.1023-7.04812 6.7819-7.1862 5.09254-14.86714 7.49963-24.73673 7.75211-2.64.0675-5.808-.0143-7.04-.18175zM500.60895 113.36c-2.39776-10.38281-9.84983-18.13003-20.12897-20.9262-2.06527-.5618-3.42577-.69544-7.04-.69152-3.93387.0043-4.828.10981-7.33474.86576-6.74172 2.03306-12.06384 5.89821-15.68034 11.38771-1.6306 2.4751-3.52374 6.83364-3.85889 8.88425l-.22228 1.36h54.46844zm-404.53029 5.92l.08133-37.2H107.68l4 5.82965c6.02232 8.77702 16.31933 23.84559 20.61078 30.16169 2.09593 3.08477 4.05652 5.92741 4.35688 6.317.60005.77832.13037 1.37907 8.31233-10.63198 1.95235-2.86603 14.9569-21.8304 19.69183-28.71636l2.14538-3.12h11.44279v74.56h-11.51648l-.0818-27.87624-.0818-27.87625-4 5.80712c-10.6707 15.4915-14.74339 21.41851-17.71602 25.78221-1.55981 2.28974-3.92277 5.7315-5.251 7.64836l-2.41498 3.4852-.60264-.82728c-.8271-1.13543-14.55198-21.11651-17.87683-26.02562-1.48419-2.19138-3.63452-5.34086-4.77852-6.99883-1.144-1.65798-2.944-4.27994-4-5.82659L108 100.96l-.0818 27.76-.0818 27.76H95.99727zm98.88 0l.0813-37.2 20.48.0067 20.48.0067 2.70704.90842c3.87512 1.30039 5.91999 2.54977 8.67489 5.3002 2.72857 2.72415 4.00759 4.77526 5.29914 8.49801.7793 2.24626.88815 3.0306.88815 6.4s-.10885 4.15374-.88815 6.4c-1.02288 2.94833-2.26073 5.23457-3.79549 7.01003l-1.07594 1.24467 2.7957 2.76132c2.31313 2.28469 3.01769 3.22931 4.08181 5.47265 3.09402 6.52266 2.90729 13.57584-.52502 19.83133-1.6835 3.06824-5.46833 6.68402-8.69433 8.30603-4.55035 2.28787-3.9922 2.24396-28.58913 2.24924l-22.00133.005zm45.6318 25.73796c1.74633-.93196 3.97351-3.13916 4.79045-4.74749.8843-1.74095 1.43609-4.72926 1.19441-6.46863-.52325-3.76582-3.35755-7.39056-6.78026-8.67117-1.66162-.62168-2.43694-.65067-17.40707-.65067h-15.668v21.46231l16.24-.0911 16.24-.0912zm-3.98223-31.43356c2.34427-.8771 4.71183-3.13934 5.84439-5.5844.73835-1.59401.88934-2.35464.88934-4.48 0-3.27473-1.03947-5.70555-3.38009-7.9044-2.99388-2.81255-3.01465-2.8156-19.17388-2.8156h-14.068v21.44h14.068c13.39606 0 14.15169-.0313 15.82024-.6556zm35.07176 5.59484V81.87847l20.88.11744c20.3075.11423 20.95019.13668 23.44.8189 4.50915 1.23553 7.60699 2.99918 10.7376 6.11308 2.99014 2.97418 4.51334 5.38354 5.78596 9.15211.65748 1.94697.75644 2.847.75644 6.88 0 3.95329-.11004 4.9952-.74348 7.04-1.79291 5.78761-6.52438 11.24095-12.21652 14.08036-.792.39507-1.47952.75213-1.52782.79347-.10072.0862 16.14502 28.59498 16.647 29.21294.26565.32704-.94705.38976-6.18686.32l-6.51727-.0868-3.6274-6.56c-1.99506-3.608-4.1098-7.424-4.69941-8.48-.58961-1.056-2.50874-4.512-4.26472-7.68l-3.1927-5.76h-23.59082l-.0833 14.32-.0833 14.32h-11.51341zm39.6105-2.07033c4.4375-.72012 7.59868-3.049 9.45369-6.96468.92019-1.94239 1.01559-2.43038 1.01346-5.18423-.002-2.72882-.1032-3.25291-.98769-5.12-1.24015-2.61786-3.29012-4.73936-5.74359-5.94399l-1.90637-.936-14.96-.09199-14.96-.09198v12.11866c0 6.66525.096 12.21465.21333 12.33198.34689.34688 25.6732.2399 27.87717-.11776zm-202.24621-54.7194c-7.25661-1.2219-13.2515-6.17852-15.61872-12.91367-1.3241-3.7673-1.48117-8.46379-.4126-12.33673 1.83753-6.66002 7.7924-12.45906 14.50704-14.12743 2.24438-.55766 7.63687-.56388 9.92-.01145 3.21474.77785 6.36976 2.56289 8.8293 4.9954 4.09576 4.05075 5.8907 8.55297 5.8907 14.77555V46.08h-15.04c-13.3285 0-15.04.05607-15.04.49275 0 .88805 1.28125 3.0285 2.60554 4.3528 1.83543 1.83542 3.70156 2.57126 6.99751 2.75918 4.05686.23131 6.97441-.72456 9.80962-3.2139l1.04711-.91938 3.53011 2.65847c1.94156 1.46216 3.53011 2.79502 3.53011 2.96191 0 .55482-3.01083 3.1174-5.12 4.35773-4.44555 2.61429-10.37268 3.71247-15.43572 2.85994zM122.56 38.54971c0-.82334-.89935-2.70103-1.89702-3.9607-.5557-.70163-1.83811-1.6473-3.10783-2.29178-2.01488-1.0227-2.36984-1.09724-5.22517-1.09724-2.819 0-3.23459.08426-5.20834 1.05593-2.86813 1.41198-5.04164 4.06974-5.04164 6.1649 0 .59933.32817.61917 10.24.61917 8.98429 0 10.24-.06012 10.24-.49028zM84.47406 62.07948c-5.71559-.54878-9.04891-2.44842-10.96926-6.25133-.26992-.53452-.71892-2.07645-.99778-3.4265C72.07445 50.30741 72 46.86726 72 28.97348V8h9.90841l.0858 7.6.08578 7.6 3.6.09048 3.6.09048V32H81.8594l.11418 8.72c.12295 9.39094.21775 9.95482 1.88024 11.1843.53274.39398 1.61032.66862 3.12.79518l2.30618.19334V62.4l-1.2-.04476c-.66-.02462-2.28268-.1487-3.60594-.27576zM11.75496 42.48c.04123-10.604.14922-19.244.24-19.2.09077.044 2.32504.08 4.96504.08h4.8v38.4H11.68zm16.08504.08v-19.2h9.92V28.55338l2.0518-1.91936c1.12849-1.05564 2.82305-2.2967 3.7657-2.75789 2.44391-1.1957 6.27575-1.70075 9.31667-1.22799 7.52603 1.17005 11.51354 5.21758 13.03288 13.22905.17212.90759.31295 7.10251.31295 13.76649V61.76H56l-.005-11.12c-.00553-12.29228-.18742-13.89156-1.84149-16.19085-2.14519-2.98199-7.23756-4.1792-10.67424-2.50949-3.02972 1.47198-4.76788 3.98703-5.38537 7.79242-.18099 1.11536-.33015 6.52792-.33148 12.02792l-.0024 10h-9.92zm109.75999-9.12V5.12h10.24v56.64h-10.24zm16.70339 27.7847c-3.98118-1.96203-1.12664-8.39977 2.96625-6.68965 3.02712 1.26481 3.22948 5.55425.31939 6.77016-1.38521.57878-1.97731.56427-3.28564-.0805zm3.80123-1.04008c1.6374-1.6374 1.19684-4.16062-.87781-5.02747-3.22433-1.3472-5.82393 2.6515-3.27296 5.03447 1.35728 1.26788 2.87845 1.26532 4.15077-.007zm-3.35327-.38276c-.12523-.28498-.18352-1.29298-.12952-2.24.0914-1.604.15732-1.72868.96235-1.82159 1.83299-.21153 2.74256 1.0231 1.64623 2.23454-.49369.54552-.49021.62872.0514 1.22715.31953.35308.47477.74816.34497.87796-.12979.1298-.64719-.26709-1.14977-.88196-.93669-1.14597-1.04794-1.10678-1.36872.48204-.11023.54598-.16266.56388-.35691.12186zm2.18625-2.4856c.26128-.42277-.69567-1.09617-1.25352-.8821-.79593.30543-.57671 1.16584.29704 1.16584.42961 0 .86003-.12768.95648-.28374z"/><path fill="#467ba6" d="M39.04 157.40959C23.25405 155.36455 10.20066 144.2825 6.28348 129.6c-1.95225-7.31748-1.95286-13.14903-.00212-20.48 1.64782-6.19262 4.87177-11.74978 9.55864-16.47636 5.53276-5.57963 12.2716-9.16566 20.48-10.89827 3.23003-.6818 11.47902-.7776 14.88-.17282 9.69954 1.72481 17.86938 6.48062 24.23469 14.10745 3.5941 4.30641 6.52611 10.86829 7.5676 16.93639.50673 2.95246.69855 9.71621.31601 11.14361l-.19295.72H50.22156c-19.66628 0-32.97694.11836-33.08561.29419-.1.16181.19642 1.49381.65871 2.96 4.07465 12.92304 15.90886 20.67971 29.7018 19.46788 8.18284-.71893 14.56262-3.667 19.64522-9.07798 1.12506-1.19775 1.84292-1.72902 2.1185-1.56785.8943.52298 8.47517 6.3342 8.48713 6.5059.01847.26521-4.72765 4.89271-6.21869 6.06326-8.18006 6.42185-21.2126 9.74498-32.48862 8.28419zm32.42734-43.33057c-.02896-.0925-.15232-.77818-.27415-1.52364-.12182-.74546-.71672-2.56098-1.32199-4.0345-5.46324-13.30012-20.4762-20.08674-34.29905-15.5049-8.50755 2.81998-14.84595 9.26835-17.65907 17.96546-.5304 1.63978-.90357 3.07978-.82928 3.2.15627.25285 54.46272.15058 54.38354-.10242zm306.97577 43.3179c-16.82991-2.16129-29.85483-14.01244-33.38025-30.37209-.80941-3.75609-.80844-11.57567.002-15.34483 1.5588-7.25039 4.5928-13.1054 9.52268-18.37694 5.55016-5.9348 13.76718-10.30365 22.05253-11.72497 3.12384-.53588 11.02441-.53972 14.08-.0068 18.25035 3.18279 31.4015 17.83325 32.22432 35.89811.10094 2.21614.0829 4.70014-.04 5.52l-.22354 1.49064h-32.92151c-18.11535 0-32.99825.12419-33.09216.27613-.33685.54504 1.16442 5.0563 2.57211 7.72906 5.39702 10.24729 15.98382 15.81934 27.91081 14.69001 8.02721-.76007 13.3329-3.14409 18.78772-8.44192 1.49068-1.44778 2.6154-2.30521 2.84008-2.16516.35555.22162 8.17004 6.1008 8.50216 6.39654.31407.27966-6.15945 6.16219-8.51515 7.73778-8.15297 5.45303-19.86069 8.03789-30.32172 6.69448zm32.43687-43.67607c0-.89813-1.42881-5.24586-2.28028-6.93868-3.54124-7.04035-9.94988-12.22841-17.71971-14.34483-3.65051-.99437-10.42203-.99544-14.08-.0022-8.2793 2.24796-15.01226 7.96592-18.32784 15.5649-.98275 2.25238-2.05869 5.87348-1.84698 6.21604.0625.10118 12.29545.18396 27.18426.18396h27.07055zm56.49225 43.55448c-14.85928-2.42798-26.53634-11.84513-31.14249-25.11533-4.71508-13.58402-1.38337-29.21892 8.33753-39.12598 6.86649-6.99799 14.92975-10.79808 24.99116-11.77795 19.00596-1.85097 36.55897 9.55597 41.62946 27.05319 1.31758 4.54669 1.64445 7.55712 1.5039 13.85074l-.0518 2.32h-33.12c-31.61079 0-33.12.0261-33.12.57277 0 1.9289 1.87141 6.62208 3.95439 9.91696 1.26494 2.0009 5.21497 6.05061 7.24561 7.42847 7.08901 4.81012 16.03517 6.17501 25.12 3.83251 5.05387-1.30313 8.78685-3.48343 12.99481-7.58981l2.43482-2.37604 4.28518 3.25354c2.35686 1.78945 4.32647 3.36568 4.37691 3.50275.1542.41893-4.42324 4.81769-7.03574 6.7611-4.63415 3.44731-10.90719 6.02583-17.53168 7.20638-4.00204.7132-11.39022.85562-14.87205.2867zm33.16637-44.00221c-.16429-1.56662-1.56078-5.35666-2.77132-7.52131-3.64406-6.51618-9.31789-10.98259-16.6473-13.10465-12.85544-3.722-26.84268 2.56405-32.57433 14.63933-1.21127 2.55187-2.14567 5.36142-2.14567 6.45159V114.4l27.12-.08 27.12-.0801zM96 119.36V82.24h11.77298l4.91351 7.20988c2.70243 3.96543 5.84951 8.56846 6.99351 10.22895 1.144 1.6605 5.53295 8.07066 9.75323 14.24481l7.67324 11.22572.64676-.87984c.35572-.48391 1.87429-2.68652 3.3746-4.89468 1.50031-2.20816 4.0169-5.88684 5.59243-8.17484 2.65333-3.85318 13.13133-19.14205 17.81765-25.99845l2.02208-2.95844 5.84-.0016 5.84-.0016V156.48h-11.52l-.007-27.92c-.007-27.75574-.0108-27.91529-.63203-27.12-.3437.44-2.1765 3.07157-4.07288 5.84793-1.89639 2.77635-5.67998 8.27787-8.40798 12.22559-2.728 3.94772-6.06476 8.80415-7.41504 10.79208-3.18562 4.68999-7.60436 11.08694-8.44812 12.23022l-.66317.89859-2.85683-4.20906c-1.57126-2.31498-3.79283-5.56786-4.93683-7.22863-6.74804-9.79623-16.26595-23.69891-18.98128-27.72567-1.2643-1.87493-2.33786-3.3718-2.38569-3.32637-.0478.0454-.0823 12.55945-.0766 27.80896l.0104 27.72636H96.00009zm98.87999-.0109V82.21828l21.2.09086 21.2.09086 2.4.92268c4.60627 1.77088 7.8963 4.38918 10.54112 8.38894 4.83081 7.3056 4.548 17.02665-.69682 23.95253l-1.6843 2.22414 2.72908 2.73586c2.98027 2.98766 4.56943 5.6234 5.60473 9.29585.78899 2.79872.80306 8.04739.0292 10.88-2.01251 7.3662-7.84345 13.20622-15.05687 15.08029-2.09268.54369-3.94967.58917-24.2661.59423l-22 .005zm45.6 25.7188c2.26845-1.22649 3.92689-2.92089 5.00764-5.1162 1.77986-3.61541 1.39782-8.04548-.96443-11.18335-1.2877-1.71052-3.57644-3.40715-5.42647-4.02263-.84265-.28034-5.60579-.42384-16.77674-.50544l-15.6-.11395v21.81594l16.24-.0911c15.95206-.0895 16.2627-.10343 17.52-.78322zm-3.772-31.519c4.1825-1.56067 7.1343-6.33483 6.72277-10.87323-.36836-4.0624-3.18046-7.85743-6.8357-9.22504-1.65173-.61799-2.44569-.65067-15.80707-.65067h-14.068V114.24h14.068c13.62943 0 14.12573-.0215 15.92-.69106zm34.972 5.79843v-37.1326l21.68.10271 21.68.10271 2.40388.8117c3.94249 1.33122 6.59652 2.99634 9.60027 6.02312 3.15466 3.17885 4.72622 5.95535 5.79631 10.24043.94689 3.79173.75259 9.35031-.44937 12.85544-2.04555 5.96524-5.98969 10.42508-11.99109 13.55896-.924.4825-1.68.92342-1.68.97982 0 .18238 16.37057 28.77667 16.71571 29.19715.26851.32712-.93582.38978-6.15033.32l-6.48422-.0868-7.92134-14.24-7.92134-14.24-11.87924-.0839-11.87924-.0839v28.80779h-11.52zm42.34997-2.82771c2.97131-1.18865 4.96216-3.02032 6.45003-5.9343 1.23097-2.41087 1.28-2.62483 1.28-5.58612 0-2.79532-.0937-3.27695-1.01581-5.22347-1.24599-2.63012-3.20885-4.64787-5.72162-5.88162l-1.90257-.93415-14.96-.09198-14.96-.09198v24.70505l14.48-.10668c14.30816-.10541 14.50219-.11556 16.34997-.85474zM109.38587 62.39259c-7.61506-1.28504-12.82978-5.387-15.6797-12.33381-.95707-2.33293-1.0515-2.88032-1.16458-6.75118-.09592-3.28334-.0041-4.6243.41638-6.08 2.08513-7.21905 8.35669-12.97831 15.63018-14.35342 3.14891-.59532 4.24338-.59357 7.71805.01236 3.98107.69425 7.09256 2.29205 9.95769 5.11346 4.07463 4.01245 5.89611 8.5785 5.89611 14.78027V46.08h-15.04c-17.09268 0-15.82053-.25142-14.08037 2.78277 2.01241 3.50888 5.41522 5.08618 10.40917 4.82497 3.38809-.17722 5.65298-1.03792 7.77422-2.95433l1.30621-1.18009 3.29539 2.47084c4.12149 3.09025 3.83287 2.81367 3.5918 3.44189-.24934.64976-3.60305 3.31477-5.57642 4.43128-3.88126 2.19597-9.98428 3.24955-14.45413 2.49526zM122.56 38.30584c0-.40378-.46892-1.51978-1.04203-2.48-2.9815-4.99529-10.51196-6.3211-15.80628-2.78285-1.8135 1.21198-3.63169 3.75185-3.63169 5.07318V39.04h20.48zM81.4044 61.60372c-4.6474-1.01096-7.32854-3.45275-8.6955-7.91924-.44748-1.46211-.5302-4.56755-.6267-23.52448l-.11117-21.84h9.93717l.0859 7.44.0859 7.44 3.6.09048 3.6.09048v8.27808l-3.6.09048-3.6.09048v8.8c0 9.55342.07255 10.00587 1.81074 11.29185.58404.4321 1.56213.68032 3.12.79178L89.28 52.886v9.194l-2.96-.02544c-1.628-.01399-3.84002-.21687-4.9156-.45084zM11.84 42.56v-19.2h9.92v38.4h-9.92zm16 0v-19.2h9.92V28.55338l2.01434-1.87669c2.44036-2.2736 4.2238-3.19311 7.4995-3.86659 2.04249-.41993 2.97156-.4501 5.20616-.16913 7.83015.98457 12.11898 5.28467 13.46489 13.50028.16027.97831.29224 7.14275.29325 13.69875l.0019 11.92h-10.24V50.77337c0-12.15001-.18286-13.85714-1.73278-16.17623-2.79643-4.1842-9.69658-4.58644-13.49628-.78674-2.66281 2.66282-2.99838 4.63124-3.00538 17.6296L37.76 61.76h-9.92zm109.75999-9.12V5.12h10.24v56.64h-10.24zm16.90494 27.79924c-2.36312-.98098-2.8561-4.20575-.911-5.95924.76547-.69006 1.29278-.88 2.44311-.88 1.24163 0 1.63407.16712 2.55495 1.088.84862.84862 1.088 1.35076 1.088 2.28223 0 1.55552-1.03902 3.20316-2.29635 3.64147-1.25267.43668-1.43807.42557-2.87871-.17247zm3.59968-1.05462c1.6374-1.6374 1.19684-4.16062-.87781-5.02747-3.19047-1.33306-5.78162 2.57727-3.33142 5.02747.69251.69251 1.23897.93538 2.10461.93538.86565 0 1.41211-.24287 2.10462-.93538zm-3.30462-.20737c-.36987-.3759-.284-3.91228.10077-4.15008.18742-.11583.8273-.11933 1.42196-.0078 1.30774.24533 1.75442 1.21977.96101 2.09647-.49873.55109-.4982.64457.008 1.41707.3475.53035.40856.82706.17022.82706-.20442 0-.61699-.43109-.9168-.95798-.70302-1.23546-1.27807-1.22377-1.40484.02856-.0551.54482-.20828.88082-.34028.74667zm2.1376-2.66099c.26128-.42277-.69567-1.09617-1.25352-.8821-.79593.30543-.57671 1.16584.29704 1.16584.42961 0 .86003-.12768.95648-.28374z"/><path fill="#004985" d="M36.0752 156.8212c-8.38558-1.82015-15.01698-5.41128-20.59162-11.15107-5.14207-5.29441-8.54253-12.02869-10.0767-19.95594-.50736-2.62161-.50736-10.08676 0-12.70837 1.52944-7.90279 4.9929-14.76922 10.06806-19.9603C20.80377 87.595 25.99865 84.60979 34.08 82.35424c3.52515-.98388 11.73424-1.38426 16.19368-.7898 16.52334 2.20263 29.85969 14.84952 32.60735 30.92163.62467 3.6539.83806 8.99846.43897 10.99394l-.2 1H50.04c-28.0807 0-33.08.0674-33.08.4463 0 1.05084 1.45035 5.0387 2.74721 7.5537 5.32672 10.33006 16.71699 16.19871 28.61279 14.74226 7.93873-.97197 12.7303-3.19282 18.08323-8.38139l2.56324-2.48453 3.83676 2.8869c5.74223 4.32064 5.50993 3.53366 2.0179 6.83623-4.6001 4.35055-9.34553 7.25684-14.82113 9.07706-5.19504 1.72696-7.16044 2.02065-14.4 2.15177-5.72188.10363-7.1366.0313-9.5248-.4871zM71.51225 113.52c-.86092-4.0962-3.44387-9.46033-5.93661-12.32885C57.16553 91.5132 43.1389 88.76785 31.68 94.55694c-6.66903 3.36922-11.8058 9.55362-14.05106 16.91677-.36792 1.20654-.66894 2.39454-.66894 2.64 0 .37825 4.17542.44629 27.38542.44629h27.38543zm304.76378 43.43677c-8.48306-1.68984-15.03991-5.07526-20.7561-10.71677-11.02705-10.88297-14.22218-27.85485-7.94046-42.17816 4.46897-10.18997 13.14678-17.84196 23.99138-21.15532 3.98991-1.21904 7.0235-1.62652 12.10913-1.62652 7.2535 0 12.45716 1.17525 18.39999 4.15565 7.6718 3.8475 13.61381 9.92865 17.27969 17.68434 2.84393 6.01672 4.26382 14.13357 3.47682 19.87535l-.2035 1.48466h-33.0765c-23.94484 0-33.0765.0977-33.0765.35381 0 .86565 1.08696 4.41944 1.89256 6.18768 5.15548 11.3159 16.85216 17.74633 29.4655 16.19911 7.96143-.97659 13.56193-3.63873 18.52222-8.80437 1.33595-1.39124 2.15587-2.01992 2.39545-1.8367.20035.15322 2.20961 1.70177 4.46504 3.44123l4.10077 3.16265-2.8484 2.73418c-6.28782 6.03569-13.24963 9.48435-22.27506 11.03435-3.53672.60739-12.88294.61022-15.92203.005zm34.68233-42.58182c.32505-.32505-1.223-5.34073-2.31327-7.49495-1.6073-3.17579-3.23486-5.39308-5.64847-7.69507-2.62647-2.50503-3.41898-3.0739-6.38011-4.57976-4.58157-2.32992-9.09137-3.26696-14.36236-2.9842-4.13851.22201-7.26632 1.03225-10.85307 2.81141-3.08441 1.52998-4.56446 2.5954-7.18866 5.17473-2.32714 2.28737-4.45199 5.3412-5.8281 8.37614-.89629 1.97672-1.90434 5.2396-1.90434 6.16399 0 .33378 5.1948.41276 27.14666.41276 14.93067 0 27.22994-.0833 27.33172-.18505zm54.32161 42.44175c-16.14574-3.43259-27.88386-15.28818-30.55285-30.85861-1.02827-5.99876-.4287-13.58738 1.50736-19.07809 1.95387-5.54121 4.19018-9.2337 8.14353-13.44614 5.88879-6.27473 14.26894-10.64624 22.64095-11.81068 3.1674-.44055 9.67463-.44055 12.84202 0 7.64495 1.0633 15.72053 4.99463 21.21677 10.32864 7.60738 7.38284 11.56222 16.73866 11.56222 27.35228 0 2.28996-.0874 4.39134-.19424 4.66973-.17538.45705-3.40584.50617-33.28609.50617h-33.09186l.20336.88c.42211 1.8266 1.76566 5.61396 2.5187 7.10001 1.41757 2.79745 4.59728 6.65265 7.21337 8.74578 6.00065 4.80111 13.5669 6.93068 21.43676 6.03352 7.83133-.89277 13.71587-3.69364 18.69546-8.8985l1.9594-2.04803 3.83257 2.92899c2.10791 1.61095 4.11629 3.12885 4.46305 3.37311.60288.42467.54684.52985-1.28 2.40219-6.56772 6.73133-13.3649 10.22122-23.35048 11.98888-3.76744.66692-12.99257.57218-16.48-.16925zm35.52-42.66313c0-1.09726-1.43221-5.35051-2.55096-7.57558-8.86409-17.62982-33.39339-20.3187-46.08791-5.05212-2.2274 2.6787-4.90345 7.82467-5.56113 10.6939-.24959 1.08887-.37269 2.06087-.27356 2.16.0991.0991 12.39623.18023 27.3269.18023 21.73311 0 27.14666-.0811 27.14666-.40643zM96 119.36V82.24H107.71919l5.9004 8.64337c17.05971 24.99038 23.20735 33.89463 23.4611 33.98104.29385.10007.94116-.78725 6.11656-8.38441 4.30894-6.32526 17.84979-26.0555 20.31445-29.6 1.10144-1.584 2.23789-3.27509 2.52545-3.75797l.52284-.87798 5.84-.002 5.84-.002V156.48h-11.52v-27.84c0-15.312-.108-27.83373-.24-27.82608-.132.008-1.2189 1.48365-2.41533 3.28-2.34159 3.51569-4.75721 7.044-12.8617 18.78608-2.8547 4.136-6.12311 8.888-7.26312 10.56-1.14 1.672-3.12625 4.58005-4.41388 6.46233l-2.34113 3.42232-.848-1.18232c-.4664-.65028-3.85294-5.57433-7.52563-10.94233s-7.47275-10.912-8.44457-12.32c-.97182-1.408-2.69679-3.928-3.83326-5.6-3.06273-4.50594-7.46067-10.93919-8.03258-11.74994-.27544-.39047-.60879-.71447-.74079-.72-.132-.006-.24 12.51794-.24 27.82994v27.84H96zm99.03999 0V82.24h20.17973c19.4009 0 20.27778.02565 22.72.66469 6.90862 1.8077 12.33229 6.9157 14.58419 13.73531.88224 2.67178 1.00324 3.46637.99895 6.56-.004 2.72955-.16344 4.02302-.71095 5.76-.84839 2.69151-2.5418 5.88923-4.0548 7.65683l-1.10723 1.29355 2.08021 1.85944c7.09932 6.3459 9.09171 16.76957 4.81936 25.21366-2.74826 5.4318-7.78675 9.449-13.59861 10.8422-2.58553.6198-3.7094.64994-24.31085.65208l-21.6.002zm45.19498 25.79856c2.32384-1.07334 4.59872-3.32932 5.61571-5.56904.53363-1.17521.68808-2.14735.69737-4.38952.0104-2.51911-.1001-3.10816-.88221-4.70082-1.29404-2.63514-3.76588-4.78109-6.5179-5.65858-2.13929-.68212-2.52599-.69566-17.38795-.60911l-15.2.0885-.0845 10.55757c-.0465 5.80666-.0121 10.74617.0764 10.97668.13026.33947 3.15665.40074 15.92447.32244l15.76364-.0967zm-4.86221-31.09016c8.39453-2.16375 10.92319-12.75233 4.45674-18.6623-3.03935-2.7778-2.95815-2.7661-19.18951-2.7661h-14.08l-.0845 10.55757c-.0465 5.80666-.015 10.73866.07 10.96.25013.65183 26.26465.57137 28.82728-.0892zm36.30723 5.28082v-37.1308l21.36.09803c24.09381.11056 22.69045-.02353 28.24 2.69835 2.50928 1.23072 3.49057 1.94648 5.62091 4.09996 4.6182 4.66836 6.7908 10.42293 6.45376 17.09413-.43418 8.594-5.15106 15.75895-12.95467 19.67815-.924.46406-1.68.93199-1.68 1.03984 0 .10785 3.708 6.68703 8.24 14.6204s8.288 14.53871 8.34666 14.67852c.0587.13981-2.69657.2542-6.12276.2542h-6.22943l-2.96888-5.36c-1.63288-2.948-3.25395-5.864-3.60239-6.48-.7189-1.27096-6.51549-11.7285-7.98188-14.4-.53134-.968-1.10864-1.94-1.28288-2.16-.24318-.30704-3.05927-.4-12.11762-.4h-11.80082v28.8h-11.52zm42.93747-3.08186c2.85915-1.35455 4.82825-3.23293 6.10255-5.8214.97355-1.97756 1.03998-2.32756 1.03998-5.47923 0-2.96892-.0996-3.57922-.84326-5.16513-1.63434-3.48556-4.64584-5.96613-8.28416-6.82365-1.68695-.3976-4.6179-.48937-15.75258-.49322l-13.68-.0047v24.99005l14.64-.095 14.64-.095zM110.24 62.37989c-8.73074-.94783-15.58393-6.98965-17.44459-15.37923-.65794-2.96664-.27304-8.59824.77374-11.32066 1.9003-4.9422 5.3535-8.76565 9.95085-11.01776 3.04744-1.49286 5.34127-2.00028 8.99635-1.9901 5.66586.0158 10.1602 1.78649 13.81762 5.4439 3.91437 3.91438 5.82603 8.80575 5.82603 14.90713V46.08h-15.2c-8.36 0-15.2.08092-15.2.17982s.36442.95013.80982 1.89163c2.0424 4.31729 7.10187 6.53616 12.55331 5.50536 2.24779-.42502 5.82604-2.16726 6.90907-3.364.56825-.6279.61835-.60342 3.89894 1.90544 1.82782 1.39784 3.40078 2.66687 3.49547 2.82009.26952.4361-3.1799 3.4171-5.37363 4.64391-2.28977 1.28051-5.43488 2.33203-7.73298 2.5854-3.23315.35645-3.88428.37061-6.08.13224zM122.55297 38.32c-.0207-2.12228-2.3201-4.87946-5.28689-6.33946-1.37594-.67712-2.03126-.78054-4.94608-.78054-2.75726 0-3.62535.1227-4.83917.68395-1.77349.82003-3.97306 2.74208-4.66147 4.0733-.65252 1.26184-1.04846 2.66699-.81678 2.89866.10124.10125 4.76808.1841 10.37075.1841H122.56zM82.56 61.75834c-3.94154-.6744-6.43479-2.01619-7.94375-4.27503C72.10392 53.72246 72 52.57507 72 28.59808V8.32h9.92v15.04h7.36v8.32h-7.40454l.10227 9.09722c.0968 8.61057.13772 9.14552.76501 10 .98067 1.33585 2.57376 2.02171 4.69726 2.02228l1.84.0005v9.28l-2.64-.03764c-1.452-.0207-3.288-.14851-4.08-.28402zM11.84 42.56v-19.2h9.92v38.4h-9.92zm16 0v-19.2h9.92V28.86921l1.40486-1.5546c2.78688-3.08392 6.3614-4.59214 10.97099-4.62906 4.94282-.03959 8.17135 1.0912 11.14495 3.90351 1.9606 1.85425 3.22575 4.05605 4.10834 7.14991.58688 2.0573.65656 3.42164.77324 15.14103l.12823 12.88H56V50.341c0-13.53218-.12382-14.3353-2.59047-16.80195-4.08913-4.08913-11.58921-2.89284-14.18546 2.26263C37.92278 38.3857 37.76 40.09952 37.76 51.21576V61.76h-9.92zm109.83826-9.04l.0817-28.24h9.92l.0817 28.24.0817 28.24h-10.24695zm16.1682 27.29085c-2.75818-2.1696-1.22329-6.4059 2.32233-6.40965 1.34191-.0014 2.3777.65506 3.03303 1.92234.80235 1.55156.61242 2.80622-.60983 4.02846-.91244.91245-1.31855 1.088-2.51684 1.088-.93609 0-1.70468-.21697-2.22869-.62915zm4.29249-.6103c2.43042-2.17158.28387-6.06164-2.90829-5.27052-2.42693.60147-3.19268 3.6416-1.33527 5.3012 1.3539 1.20971 2.86756 1.19877 4.24356-.03068zM154.71999 57.92V56h1.136c1.05271 0 1.904.44762 1.904 1.00114 0 .12823-.23509.46825-.52244.75559-.42058.42058-.45311.6746-.16686 1.30286.19557.42922.23778.78041.0938.78041s-.4258-.36-.62628-.8c-.20048-.44-.58359-.8-.85137-.8-.30598 0-.48686.29721-.48686.8 0 .44-.108.8-.24.8s-.24-.864-.24-1.92zm2.31477-1.06166c-.0683-.20809-.50902-.4239-.97944-.4796-.6736-.07973-.85533.03358-.85533.53334 0 .34902.18.69913.4.77801.5703.2045 1.58227-.38217 1.43477-.83175z"/></g></svg>