<svg xmlns="http://www.w3.org/2000/svg" role="img" viewBox="-1.58 -1.58 81.90 73.53"><title>Embree logo</title><g fill="#0071C5"><path d="M78.515 14.773C74.82-3.275 39.777-4.419 17.191 9.331v1.52C39.753-.75 71.757-.676 74.671 15.945c.977 5.5-2.12 11.23-7.656 14.53v4.313c6.656-2.44 13.484-10.34 11.5-20.015M37.46 46.363C21.88 47.8 5.636 45.535 3.36 33.36c-1.114-6.004 1.625-12.37 5.253-16.328v-2.114C2.077 20.647-1.466 27.902.577 36.468c2.606 10.992 16.543 17.215 37.82 15.15 8.422-.818 19.438-3.529 27.102-7.736v-5.976c-6.957 4.144-18.457 7.57-28.039 8.457"/><path d="M64.237 12.148h-4.085v18.195c0 2.133 1.03 3.988 4.085 4.285zm-48.652 6.644h-4.094l-.004 11.887c0 2.14 1.036 3.992 4.098 4.285zm-4.094-2.218h4.082V12.7h-4.082zm28.563 18.203c-3.305 0-4.703-2.3-4.703-4.567V14.425h4.047v4.363h3.05v3.274h-3.05v7.898c0 .926.437 1.438 1.402 1.438h1.648v3.38h-2.394M50.8 21.87c-1.386 0-2.448.715-2.9 1.676-.263.578-.36 1.031-.388 1.742h6.238c-.078-1.742-.867-3.418-2.95-3.418m-3.288 6.18c0 2.07 1.293 3.598 3.586 3.598 1.797 0 2.683-.5 3.722-1.528l2.504 2.387c-1.605 1.586-3.289 2.547-6.254 2.547-3.878 0-7.59-2.113-7.59-8.28 0-5.275 3.247-8.255 7.5-8.255 4.325 0 6.81 3.488 6.81 8.07v1.461H47.51m-20.925-5.988c1.188 0 1.684.586 1.684 1.54v11.2h4.05V23.575c0-2.273-1.21-4.78-4.77-4.78l-8.366-.005V34.8h4.05V22.062z"/></g><path d="M35.209 56.047V70.23h1.603l.11-.474c.42.23.846.413 1.277.547.432.14.935.209 1.512.209.62 0 1.189-.119 1.705-.356a4.48 4.48 0 0 0 1.422-1.084c.407-.462.73-1.032.967-1.713.243-.68.363-1.446.363-2.296 0-1.684-.348-2.987-1.047-3.91-.693-.924-1.64-1.387-2.844-1.387-.674 0-1.283.127-1.824.382-.54.25-1.051.572-1.531.967v-5.068zm-29.832.611V70.23h8.941v-1.605H7.182v-5.04h7.136V61.98H7.182v-3.718h7.136v-1.604zm16.687 3.108c-.601 0-1.168.125-1.703.375a7.587 7.587 0 0 0-1.595 1.039v-1.131h-1.713V70.23h1.713v-7.6a8.518 8.518 0 0 1 1.404-.885 3.2 3.2 0 0 1 1.412-.346c.492 0 .87.066 1.13.2.262.127.463.322.602.584.128.243.21.567.247.974.042.401.062.828.062 1.278v5.796h1.715v-6.517a8.33 8.33 0 0 0-.02-.547 7.743 7.743 0 0 0-.045-.492c.48-.37.96-.675 1.44-.912.48-.243.961-.364 1.441-.364.492 0 .868.066 1.13.2.26.133.461.332.6.593.128.243.21.568.247.975.042.407.064.83.064 1.268v5.796h1.713v-6.609c0-1.215-.266-2.16-.8-2.834-.53-.68-1.353-1.021-2.471-1.021-.65 0-1.261.13-1.832.392-.571.255-1.204.675-1.897 1.258a2.691 2.691 0 0 0-1.084-1.213c-.48-.292-1.067-.437-1.76-.437zm36.989 0c-1.483 0-2.68.49-3.592 1.468-.905.979-1.357 2.3-1.357 3.965 0 1.683.473 2.983 1.421 3.9.948.912 2.266 1.368 3.955 1.368a7.18 7.18 0 0 0 1.897-.246c.602-.164 1.19-.369 1.768-.612v-1.867h-.09c-.298.268-.8.541-1.504.82a5.697 5.697 0 0 1-2.088.41 4.527 4.527 0 0 1-1.44-.218 3.088 3.088 0 0 1-1.12-.656 3.087 3.087 0 0 1-.776-1.141c-.188-.468-.283-1.015-.283-1.64h7.502v-.93c0-1.477-.374-2.616-1.121-3.418-.742-.802-1.799-1.203-3.172-1.203zm11.119 0c-1.483 0-2.679.49-3.59 1.468-.905.979-1.36 2.3-1.36 3.965 0 1.683.475 2.983 1.423 3.9.947.912 2.267 1.368 3.957 1.368.662 0 1.293-.082 1.894-.246a14.16 14.16 0 0 0 1.77-.612v-1.867h-.092c-.298.268-.8.541-1.504.82a5.697 5.697 0 0 1-2.088.41 4.527 4.527 0 0 1-1.44-.218 3.088 3.088 0 0 1-1.12-.656 3.087 3.087 0 0 1-.776-1.141c-.188-.468-.281-1.015-.281-1.64h7.5v-.93c0-1.477-.374-2.616-1.121-3.418-.742-.802-1.799-1.203-3.172-1.203zm-23.332.283V70.23h1.713v-7.228c.455-.37.93-.671 1.422-.902a3.49 3.49 0 0 1 1.53-.356 6.795 6.795 0 0 1 1.597.174h.09v-1.76a9.917 9.917 0 0 0-.602-.082 5.357 5.357 0 0 0-.647-.027 3.91 3.91 0 0 0-1.595.346c-.517.224-1.115.61-1.795 1.158v-1.504zm12.12 1.13c.912 0 1.59.247 2.034.739.45.492.678 1.187.684 2.086h-5.834c.073-.802.38-1.473.922-2.014.547-.54 1.277-.81 2.195-.81zm11.122 0c.911 0 1.588.247 2.031.739.45.492.678 1.187.684 2.086h-5.832c.073-.802.379-1.473.92-2.014.547-.54 1.28-.81 2.197-.81zm-30.225.22c.894 0 1.54.315 1.942.947.4.626.601 1.546.601 2.761 0 1.331-.27 2.31-.81 2.936-.535.62-1.277.93-2.225.93-.443 0-.84-.044-1.193-.13a7.52 7.52 0 0 1-1.25-.454v-5.834c.437-.34.911-.616 1.422-.828a3.823 3.823 0 0 1 1.513-.329z"/></svg>