<svg xmlns="http://www.w3.org/2000/svg" role="img" viewBox="-3.98 -3.98 207.22 48.47"><title>Entertainment Technology Center logo</title><style>svg {enable-background:new 0 0 199.5 40.5}</style><path fill="#e8e8e9" d="M108 0h1v39h-1"/><path fill="#f7490b" d="M31.6 33.3c.5 1.2.1 2.4.4 3.5.1.4-.1.7-.6.8-3.1.9-6.2 1.7-9.3 2.3-2.2.4-4.5.7-6.7.6-3.4-.3-6.7-1.2-9.4-3.3-2.1-1.6-3.6-3.7-4.7-6.2C.2 28.3-.1 25.4.1 22.5c.3-3.9 1.7-7.3 4.6-9.9 2.2-2 4.8-3.4 7.8-4 2-.4 4.1-.4 6.1-.3 2.5.2 4.8 1.2 6.9 2.6 1.6 1.1 3 2.5 4 4.1 1.1 1.9 2 3.8 2.4 6 .2 1.2.4 2.4.4 3.7 0 1.1.1 1-1 1h-26c-.7 0-.9.1-.7.8.3 1.7.8 3.4 1.9 4.9 1.6 2.3 3.8 3.8 6.5 4.5 1.1.3 2.3.5 3.5.5 1.2 0 2.3-.1 3.5-.3 1.7-.2 3.3-.6 4.9-.9 2.1-.4 4.1-1 6.2-1.7 0-.1.2-.1.5-.2zm-4.1-11.5c-1.1-5.5-5.7-9.8-12.1-9.4-5.1.4-10.3 4.1-10.9 9.4h23zm25.6-8.9h-8.9c-.8 0-.8 0-.8.8v14.2c0 .9.1 1.8.3 2.7.6 2.9 2.6 4.5 5.4 5.2 1 .3 2 .4 3 .4.5 0 .9.2 1.4.2 2.1-.1 4.2-.4 6.1-1.3 1.5-.7 3.1-1.3 4.5-2.1.4-.2.6-.2.8.3.4.9.8 1.8 1.3 2.7.3.5.1.7-.3 1-2.5 1.3-5.1 2.5-7.9 3.1-2.2.5-4.4.6-6.7.3-1.5-.2-3-.3-4.5-.8-1.9-.6-3.6-1.6-5-3-1.5-1.7-2.4-3.6-2.6-5.9-.4-5.4-.1-10.8-.2-16.1v-.9c.1-.6-.2-.7-.7-.7H30.9c-.3 0-.4-.1-.4-.4V9.3c0-.5.3-.4.6-.4h7c.9 0 .9 0 .9-.9V1.3c0-.8 0-.8.8-.8h2.8c.5 0 .7.2.7.7V8.4c0 .3.1.5.5.5h17.9c1.2 0 1-.1 1 1.1v2.1c0 .9 0 .9-.9.9h-6.4c-.7-.1-1.5-.1-2.3-.1zm29.3-4.6c2.5-.1 4.8.3 7.1 1.2 1.1.5 2.2 1.2 3.1 1.9 1.4 1.1 2.6 2.4 3.7 3.8.2.3.2.5-.1.7-1 .6-2 1.1-2.9 1.7-.3.2-.5.1-.7-.2-.5-.7-1-1.3-1.6-1.9-1.7-1.8-3.9-2.7-6.3-3.1-2.5-.3-5-.2-7.4.7-4 1.4-6.6 4.1-7.5 8.3-.7 3.5-.3 6.8 1.7 9.8 1.5 2.2 3.6 3.6 6.2 4.3 1.4.4 2.8.7 4.1.7 2.9 0 5.7-.5 8.2-2.4 1.3-1 2.2-2.3 3.1-3.6.3-.4.5-.5.9-.3.9.5 1.9 1 2.8 1.4.4.2.4.4.2.7-1.1 1.6-2.3 3.2-3.9 4.5-1.9 1.6-4 2.6-6.4 3.1-2.2.5-4.4.6-6.7.4-2.1-.2-4.1-.7-6-1.5-1.3-.5-2.5-1.3-3.6-2.2-2.6-2.2-4.3-4.9-5-8.3-.3-1.7-.5-3.4-.4-5.1.2-3.5 1.3-6.7 3.5-9.4 1.1-1.3 2.4-2.4 3.8-3.2 2.1-1.3 4.4-2 6.9-2.3 1.2.3 2.2.4 3.2.3z"/><path fill="#5f6061" d="M174 8.5c.7-1.8 1.4-3.4 2-5.1.5-1.2.5-1.2 1.8-1.2.4 0 .6.1.6.5v6.6c0 .5-.2.6-.6.6-.5 0-.6-.2-.6-.7V4.3v-.6c-.8 2-1.6 3.8-2.3 5.6-.1.3-.2.6-.7.5-.4 0-.7 0-.9-.5-.6-1.5-1.2-2.9-1.8-4.4-.1-.3-.3-.6-.5-1.1v5.3c0 .6-.2.7-.7.7-.5 0-.6-.2-.6-.6V2.6c0-.5.1-.7.6-.6h.7c.3 0 .5.1.6.5.7 2.1 1.5 4 2.4 6zm-46 21.9V36c0 .7 0 .7-.7.7-.5 0-.5-.2-.5-.6v-4.5-2.2c0-.4.1-.5.5-.5.8-.1 1.3.1 1.8.9 1.1 1.8 2.1 3.6 3.4 5.4v-2.8-2.7c0-.8 0-.8.8-.8.4 0 .5.2.5.5v6.8c0 .4-.1.5-.6.6-.9.1-1.4-.2-1.9-1-1-1.8-2.1-3.5-3.3-5.4zm-3.5-22.2V2.8c0-.5.2-.6.7-.6.5 0 .6.2.6.6v6.7c0 .5-.2.6-.6.6-.7 0-1.1-.1-1.5-.8-1-1.8-2.2-3.5-3.2-5.2 0-.1-.1-.1-.3-.3v5.7c0 .5-.3.5-.6.5-.4 0-.6-.1-.6-.6V2.7c0-.4.1-.5.5-.5.9-.1 1.4.1 1.9 1 .9 1.6 2 3.2 3 4.8-.2.1-.2.2.1.2zM162.7 4v5.3c0 .8 0 .8-.8.8-.3 0-.4-.1-.4-.4v-7c0-.1 0-.3.1-.3.5-.2.9 0 1.4-.1.3 0 .4.3.5.5 1.2 1.9 2.3 3.7 3.5 5.6h.2V5.6 2.8c0-.5.2-.6.6-.6.4 0 .7 0 .7.5v6.8c0 .4-.2.5-.6.5-.8.1-1.3-.1-1.7-.9-1-1.8-2.2-3.5-3.3-5.3-.1.2-.2.2-.2.2zm-15.5 17.7v-2.8-2.8c0-.5.1-.6.6-.6s.7.1.7.6v6.7c0 .4-.1.5-.5.6-1.3.3-1.7-.7-2.2-1.5-1-1.6-2-3.2-3.2-5v5.9c0 .4-.1.6-.5.6s-.6-.1-.6-.6v-6.7c0-.4.1-.6.6-.5h.6c.4-.1.6.1.8.4 1.1 1.9 2.3 3.7 3.5 5.6 0 .1 0 .2.2.1zM187 3.8v5.5c0 .8 0 .9-.8.8-.3 0-.4-.1-.4-.4v-7c0-.1 0-.3.2-.4.5-.3 1.7.1 2.1.7 1.2 1.9 2.4 3.8 3.7 5.8V2.9c0-.5.2-.6.6-.6.5 0 .5.3.5.6v6.6c0 .5-.2.6-.7.6-.7 0-1.1-.2-1.5-.8-1.1-1.8-2.2-3.5-3.3-5.2-.1-.1-.1-.3-.4-.3zm-15.1 15.5c.1-.7-.2-1.6.2-2.5.2-.6.6-1 1.2-1.2 1.4-.4 2.8-.4 4.3 0 .8.2 1.3 1.5 1 2.3-.1.3-.9.2-1.1-.1-.1-.1-.2-.3-.2-.4.1-.7-.4-.8-.9-.8h-2.1c-.7 0-1 .3-1 1 0 .6 0 1.2-.1 1.7-.1.7.2 1.5.2 2.3 0 .3.4.7.9.7h2.3c.4 0 .7-.2.8-.5.1-.4.4-.9.2-1.4-.1-.1-.3-.1-.4-.1h-1.6c-.4 0-.5-.2-.5-.6 0-.4.1-.5.5-.5h2.7c.3 0 .4.1.4.4v2.2c0 .7-.7 1.4-1.5 1.5H174c-1.1-.1-1.8-.7-1.9-1.9-.2-.6-.2-1.2-.2-2.1zM139.4 6.1V2.8c0-.4 0-.6.5-.6h4c1.1 0 1.7.7 1.7 1.8 0 .8.2 1.7-.4 2.3-.1.1 0 .3.1.4.7 1 .4 2 .4 3.1 0 .4-.5.2-.7.2-.2 0-.5.1-.5-.3V8.1c0-.7-.4-1.1-1.1-1.1h-2.1c-.4 0-.6.2-.5.6v2c0 .6-.3.5-.7.5-.4 0-.6 0-.6-.5-.1-1.2-.1-2.3-.1-3.5zm2.8-.1h1.1c.7-.1 1.2-.7 1.2-1.4 0-.9-.4-1.3-1.3-1.3h-1.5c-1.1 0-1.1 0-1.1 1.1 0 1.6 0 1.6 1.6 1.6zm6.4 26.8v-3.4c0-.4.1-.6.6-.5h3.9c1.1 0 1.8.7 1.8 1.8 0 .8.2 1.7-.5 2.3-.1.1 0 .3.1.4.7 1 .3 2.1.3 3.1 0 .4-.5.2-.8.2-.3 0-.4-.1-.4-.4v-1.5c0-.8-.4-1.1-1.1-1.1h-2.1c-.4 0-.5.1-.5.5v2c0 .5-.2.6-.6.6-.4 0-.7 0-.6-.5 0-1.2-.1-2.3-.1-3.5zm2.9-2.8h-1.2c-.3 0-.4.1-.4.4v1.9c0 .3.1.4.4.4h2.3c.3 0 .8 0 1-.4.6-1-.1-2.2-1.3-2.2-.2-.1-.5-.1-.8-.1zm5.2-10.3c-.1.7.1 1.5-.2 2.3-.3.9-.8 1.5-1.8 1.5h-3c-.9 0-1.6-.6-1.8-1.5-.1-.7-.2-1.4-.2-2.2 0-.9-.1-1.8.2-2.6.3-.9.8-1.4 1.7-1.6 1.2-.3 2.4-.2 3.6 0 .7.1 1.1.6 1.3 1.4.2.8.1 1.7.2 2.7zm-1.3-.2v-1.7c0-.7-.4-1.1-.9-1.2h-2.4c-.5 0-.9.2-1 .8-.3 1.3-.1 2.6-.1 3.9 0 .7.5 1 1.3 1h2c.7 0 1.1-.4 1.2-1.1-.1-.6-.1-1.1-.1-1.7zm8.5-.1c0-.8-.1-1.6.2-2.5.2-.8.8-1.3 1.6-1.4 1-.1 2-.2 3 0 1.7.3 1.9 1 2.1 2.5.1 1.2.1 2.5-.1 3.7-.2 1.1-.9 1.8-2 1.7h-2.4c-1.9 0-2.2-.9-2.4-2.3v-1.7zm5.7.1V18c-.1-1-.4-1.4-1.4-1.4h-1.8c-.9 0-1.3.4-1.3 1.2v3.3c0 .8.4 1.2 1.3 1.2h1.8c.9.1 1.3-.5 1.4-1.3.1-.4 0-1 0-1.5zm-29.8.1v3.3c0 .6-.3.5-.6.5-.4 0-.6-.1-.6-.6v-2.5c0-.4-.1-.5-.5-.5H135c-.4 0-.5.1-.5.5v2.6c0 .5-.3.5-.6.5s-.6.1-.6-.5V16c0-.5.3-.4.6-.4s.6 0 .6.5v2.2c0 .4.1.5.5.5h3.1c.4 0 .5-.1.5-.5v-2.1c0-.5.2-.6.6-.6.4 0 .7 0 .6.5-.1 1.2 0 2.3 0 3.5zm-14.3-.5c.1-.7-.2-1.6.2-2.4.3-.6.7-1 1.3-1.1.9-.1 1.7-.3 2.6-.2.5 0 .9.1 1.4.3.5.2.8.6.9 1.2v.5c.1.2.3.5 0 .7-.2.2-.5.1-.8.1-.3 0-.4-.1-.4-.4 0-.2 0-.3-.1-.5-.1-.6-.4-.8-1-.7-.6.1-1.2 0-1.9 0s-1.2.3-1.1.9c0 1.3-.2 2.6.1 3.9.2.7.4.9 1 .9h1.8c.8 0 1.1-.3 1.1-1.1 0-.4-.1-.7.5-.7.7 0 .7 0 .7.7 0 .4-.1.8-.2 1.2-.2.6-.7 1-1.4 1h-2.5c-1.7 0-2.4-.7-2.4-2.4.2-.5.2-1.1.2-1.9zm-13.3 13.5c.1-.7-.1-1.5.1-2.3.2-.8.8-1.2 1.4-1.4 1.3-.3 2.5-.4 3.8 0 .7.2 1.5 1.9 1.2 2.5-.2.3-.6.1-.9.2-.3 0-.3-.2-.3-.4-.1-1.2-.2-1.2-1.3-1.2h-1.6c-.7 0-1.1.4-1.1 1 0 1.3-.1 2.6.2 3.9.1.5.4.8.9.8h2c.7 0 .9-.3 1-1 0-.8 0-.8.8-.7.3 0 .5.1.5.5s0 .9-.1 1.3c-.3.7-.7 1.1-1.5 1.1h-2.8c-1.2 0-1.7-.6-1.9-1.5-.5-1-.4-1.9-.4-2.8zm46.4-22.5h-.7c-.5.1-.8-.2-.9-.6-.3-1-.3-1-1.3-1h-2c-.5 0-.7.1-.8.6 0 .1-.1.2-.1.3-.1.5-.3.8-.9.7h-.7c.3-1.3.9-2.4 1.3-3.6.4-1.2.9-2.3 1.3-3.5.2-.5.5-.8 1.1-.8.6 0 .9.2 1.1.8.8 2.3 1.7 4.6 2.6 7.1zm-5.1-2.7h2.7c-.4-1.2-.8-2.3-1.4-3.5-.5 1.3-.9 2.4-1.3 3.5zm26.1-1.2V2.9c0-.4 0-.6.6-.6h4.3c.5 0 .5.2.5.6 0 .4-.1.5-.5.5h-3c-.5 0-.6.2-.6.6 0 1.5 0 1.5 1.5 1.5h2c.4 0 .5.2.5.5s-.1.5-.5.5h-2.9c-.4 0-.5.1-.5.5v1.5c0 .4.1.5.5.5h3c.4 0 .6.1.6.5s-.1.6-.5.6h-4.3c-.4 0-.6-.1-.5-.6-.2-1.1-.2-2.2-.2-3.3zM120 32.8v-3.2c0-.5.1-.7.6-.7h4.2c.4 0 .6.1.6.5s-.2.6-.6.5h-3c-.4 0-.5.1-.5.5-.1 1.7-.1 1.7 1.6 1.7h1.8c.4 0 .6 0 .6.5s-.2.6-.6.6h-2.8c-.4 0-.6.1-.6.5.1.6-.2 1.4.1 1.8.4.4 1.2.1 1.8.1h1.8c.4 0 .4.2.4.5s.1.6-.4.6h-4.5c-.4 0-.4-.2-.4-.5-.1-1.1-.1-2.3-.1-3.4zm21.9 0v-3.4c0-.4.1-.5.5-.5h4.3c.5 0 .5.2.5.6 0 .4-.2.5-.5.5h-3c-.4 0-.6.1-.6.5-.1 1.6-.1 1.6 1.5 1.6h1.7c.4 0 .7-.1.7.6 0 .6-.3.5-.7.5h-2.7c-.5 0-.6.1-.6.6v1.3c0 .5.2.6.6.6h2.9c.4 0 .6.1.6.5s-.2.5-.6.5h-4.3c-.5 0-.5-.2-.5-.6.2-1 .2-2.2.2-3.3zM112.6 6.1V2.7c0-.4.1-.5.5-.5h4.3c.4 0 .5.2.5.5 0 .4-.1.6-.5.6h-2.9c-.5 0-.6.2-.6.6 0 1.5 0 1.5 1.5 1.5h2c.5 0 .4.3.4.6s0 .5-.4.5h-2.8c-.5 0-.8.1-.7.7.1.6-.3 1.3.2 1.7.4.3 1.1.1 1.6.1h1.8c.4 0 .6.1.5.6 0 .4-.1.5-.5.5h-4.3c-.4 0-.5-.1-.5-.5-.1-1.2-.1-2.3-.1-3.5zm6.5 13.3v-3.3c0-.4.1-.6.5-.6h4.3c.4 0 .6.1.6.5s-.2.5-.6.5h-3c-.4 0-.5.1-.5.5-.1 1.7-.1 1.7 1.6 1.7h1.4c.4 0 .9-.3.9.5s-.5.5-.9.5h-2.5c-.4 0-.6.1-.5.6.1.6-.2 1.4.1 1.8.3.4 1.1.1 1.7.1h1.9c.4 0 .4.2.4.5s.1.6-.4.6h-4.4c-.4 0-.5-.2-.5-.5-.1-1-.1-2.2-.1-3.4zm14.1-13.3V2.7c0-.4.1-.5.5-.5h4.3c.4 0 .5.1.5.5s-.1.6-.5.6h-3.2c-.4 0-.5.1-.6.6 0 1.6-.1 1.6 1.5 1.6h2.1c.4 0 .4.2.4.5s.1.6-.4.6h-2.9c-.5 0-.8.1-.8.7.1.6-.3 1.3.2 1.7.4.3 1.1.1 1.6.1h2c.4 0 .4.2.5.6 0 .4-.1.5-.5.5h-4.3c-.5 0-.5-.2-.5-.6.1-1.2.1-2.3.1-3.5zm45.7 9.5h1c.4 0 .6.1.8.5l1.8 2.7c.6-.7 1.1-1.5 1.5-2.3.5-.8 1.1-1.1 2.1-.8-.6 1.1-1.3 2-2 2.9-.8 1.1-1.2 2.2-1 3.6v.5c0 .7 0 .7-.7.7-.5 0-.5-.2-.5-.6v-2.1c0-.4-.1-.8-.4-1.1-.8-1.3-1.6-2.6-2.6-4zm-63.3 4.5v2.8c0 .6-.3.5-.7.5-.4 0-.6 0-.6-.5v-5.5c0-.7 0-.7-.8-.7h-1.2c-.4 0-.5-.2-.5-.5s0-.6.5-.5h5.3c.4 0 .4.2.5.6 0 .4-.1.6-.5.5h-1.4c-.4 0-.6.1-.6.6v2.7zM130 6.7v2.8c0 .5-.3.5-.6.6-.4 0-.6-.1-.6-.6V4.3c0-1.1.1-.9-1-1h-.9c-.4 0-.6-.1-.6-.6s.3-.5.6-.5h5.1c.4 0 .6 0 .6.5s-.2.6-.6.6h-.1c-.6.1-1.3-.3-1.7.2-.3.4-.1 1.1-.1 1.6-.1.5-.1 1.1-.1 1.6zm7.3 26.7v-2.5c0-.9.1-.8-.8-.8h-1.4c-.5 0-.4-.3-.4-.6s-.2-.7.4-.7h5.4c.6 0 .4.4.4.7 0 .3 0 .6-.4.6h-1.4c-.5 0-.7.1-.6.6V36c0 .5-.1.7-.6.6-.4 0-.4-.2-.4-.5-.2-.8-.2-1.7-.2-2.7zm20.8-14v-3.3c0-.6.3-.5.7-.5.4 0 .6.1.6.6v5.3c0 .5.1.7.7.7h2.7c.5 0 .6.2.6.6 0 .5-.1.7-.6.7h-4c-.4 0-.6-.1-.6-.5-.1-1.3-.1-2.4-.1-3.6zm38.3-17.1h2.6c.5 0 .5.2.5.6 0 .4-.1.5-.5.5h-1.4c-.5 0-.6.2-.6.6v5.6c0 .5-.2.6-.6.6-.5 0-.5-.3-.5-.6V4.2c0-.6-.1-.8-.7-.7h-1.3c-.4 0-.6 0-.6-.5 0-.6.3-.5.7-.5.7-.2 1.6-.2 2.4-.2zm-47.8 4.4V4c0-.5-.2-.6-.6-.6h-1.4c-.4 0-.5-.2-.5-.5s0-.6.5-.6h5.3c.4 0 .5.2.5.5s-.1.6-.5.5h-1.4c-.8 0-.8 0-.8.7v5.4c0 .4-.1.6-.6.6-.4 0-.5-.1-.5-.5.1-.9 0-1.9 0-2.8zm11.6-.5v3.4c0 .5-.2.6-.6.6-.4 0-.6 0-.6-.6V2.9c0-.5.2-.6.6-.6.4 0 .7 0 .6.6v3.3z"/></svg>