<svg xmlns="http://www.w3.org/2000/svg" role="img" viewBox="-15.51 -15.01 677.52 780.52"><title>Epic Games logo</title><defs><clipPath id="a" clipPathUnits="userSpaceOnUse"><path d="M0 790.889h900V0H0z"/></clipPath></defs><g clip-path="url(#a)" transform="matrix(1.33333 0 0 -1.33333 -278.052 902.583)"><path fill="#2f2d2e" fill-rule="evenodd" d="M649.836 676.938h-397.22c-32.195 0-44.077-11.882-44.077-44.093V244.169c0-3.645.147-7.031.469-10.168.733-7.031.87-13.844 7.41-21.601.639-.76 7.315-5.728 7.315-5.728 3.59-1.761 6.043-3.058 10.093-4.688l195.596-81.948c10.154-4.655 14.4-6.47 21.775-6.323v-.001h.058c7.375-.145 11.62 1.669 21.776 6.324l195.595 81.948c4.05 1.63 6.502 2.927 10.094 4.688 0 0 6.676 4.968 7.314 5.728 6.539 7.757 6.677 14.57 7.41 21.6.322 3.138.47 6.524.47 10.169v388.676c0 32.21-11.883 44.093-44.078 44.093"/><path fill="#fff" d="M623.23 286.175l-.09-.897-.089-.985-.18-.897-.268-.896-.174-.807-.27-.897-.358-.807-.359-.718-.353-.806-.448-.717-.448-.718-.533-.717-.449-.717-.532-.627-.628-.628-.533-.538-.716-.628-.623-.538-.717-.538-.712-.442-.712-.538-.807-.448-.802-.359-.8-.448-.898-.359-.89-.359-.892-.268-.89-.27-.808-.268-.89-.18-.803-.179-.8-.179-.898-.18-.892-.089-.8-.09-.898-.09-.98-.09-.892-.089h-3.748l-.893.089h-.98l-.892.09-.896.09-.98.09-.892.179-.89.09-.898.179-.892.179-.89.18-.892.179-.896.268-.802.18-.89.269-.893.269-.806.359-.89.269-.803.268-.892.359-.806.359-.802.359-.802.442-.806.359-.802.449-.712.447-.807.449-.712.448-.717.448-.712.538-.712.538-.717.538-.713.538-.627.538-.712.627.538.717.622.628.538.718.623.717.538.627.532.717.628.718.532.627.628.717.533.628.627.717.533.718.538.627.622.717.538.718.622.627.538.717.712-.538.802-.538.717-.538.802-.538.717-.448.802-.537.711-.449.808-.358.711-.449.802-.359.807-.358.801-.359.803-.269.806-.358.891-.269.892-.269.801-.269.897-.18.891-.179.891-.179.981-.09.896-.179h.892l.98-.089h1.963l.981.089.897.179.801.18.802.179.717.269.623.358.717.538.532.628.36.718.27.806.087.897v.179l-.088 1.076-.359.897-.449.627-.622.538-.718.538-.712.358-.8.359-.898.359-1.07.447-.623.18-.71.179-.808.27-.802.179-.89.269-.898.179-.98.269-.892.179-.98.269-.892.179-.897.269-.89.18-.892.269-.807.268-.89.18-.803.269-.8.269-.808.269-.98.359-.892.359-.892.358-.896.359-.8.448-.893.448-.717.448-.802.448-.712.538-.717.448-.622.539-.627.627-.623.628-.538.628-.532.627-.449.627-.443.718-.448.806-.359.622-.269.718-.263.807-.269.717-.18.897-.179.807-.09.896-.089.897-.09.985v2.063l.09.896.09.807.09.897.178.806.18.807.27.808.178.806.353.807.36.807.357.806.444.808.447.806.533.718.54.717.621.717.627.627.623.718.717.628.622.448.717.538.713.538.711.448.807.448.802.359.801.448.807.358.891.27.891.358.807.269.712.18.803.179.806.179.891.179.802.18.891.089.897.09.891.09.891.089h3.839l.981-.089.981-.09h.891l.986-.09.891-.179.981-.09.892-.179.807-.179.891-.179.891-.18.802-.179.896-.269.802-.269.802-.18.896-.358.802-.269.801-.358.802-.359.896-.359.802-.448.712-.359.807-.448.802-.448.712-.449.806-.538.713-.447.717-.539.712-.538.711-.537-.532-.718-.448-.717-.533-.717-.538-.718-.532-.806-.449-.717-.538-.718-.533-.717-.447-.717-.534-.718-.537-.717-.449-.717-.532-.807-.539-.717-.532-.717-.448-.717-.533-.717-.717.537-.8.449-.714.448-.717.538-.8.358-.719.449-.8.359-.713.358-.807.359-.712.358-.8.269-.718.359-.982.268-.89.27-.892.268-.897.18-.89.179-.892.18-.89.09-.898.089-.8.09h-1.963l-.98-.179-.898-.18-.8-.179-.713-.359-.628-.358-.802-.718-.538-.807-.352-.807-.09-.896v-.18l.09-1.165.442-.986.36-.538.621-.628.807-.448.712-.448.891-.359.986-.359 1.071-.358.712-.179.712-.269.807-.179.801-.269.891-.18.987-.269.981-.268.981-.27.98-.179.891-.269.981-.269.897-.179.892-.269.891-.269.801-.269.897-.269.802-.269.801-.269.986-.353.891-.449.891-.358.892-.448.807-.449.802-.448.711-.448.717-.538.713-.448.712-.628.717-.627.622-.718.627-.627.533-.718.538-.806.443-.717.45-.808.357-.717.27-.806.263-.807.18-.807.178-.897.18-.897.09-.896.09-.986v-2.152zm-62.594-17.926h-51.142v65.258h51.586v-14.794h-34.543v-10.668H557.6v-13.891h-31.063v-11.116h34.991v-14.789zm-65.214 0H479.09v38.589l-.447-.717-.533-.813-.449-.717-.532-.718-.448-.806-.539-.718-.442-.717-.449-.812-.532-.717-.449-.717-.537-.718-.443-.812-.538-.717-.443-.717-.449-.807-.538-.722-.443-.718-.538-.806-.442-.718-.538-.717-.443-.812-.449-.718-.537-.717-.443-.807-.538-.722-.443-.717-.538-.718-.449-.806-.443-.722-.537-.718-.443-.807-.538-.717-.448-.717-.533-.813-.448-.717h-.354l-.537.807-.449.723-.533.807-.448.717-.533.806-.448.723-.532.807-.449.718-.538.806-.443.717-.538.813-.442.717-.538.807-.449.717-.532.812-.449.717-.532.807-.538.717-.448.812-.533.717-.448.807-.533.717-.448.813-.533.717-.448.807-.538.717-.443.807-.538.723-.443.806-.538.718-.448.807-.532.716-.45.813-.532.717v-38.409h-16.96v65.258h18.299l.443-.718.448-.806.532-.712.45-.807.447-.717.443-.808.448-.711.534-.808.447-.717.45-.717.442-.801.448-.718.533-.806.448-.718.448-.801.443-.717.538-.717.45-.803.441-.716.448-.807.444-.718.538-.801.448-.718.442-.806.45-.712.442-.717.538-.807.448-.718.443-.807.448-.712.443-.807.54-.717.447-.801.443-.718.448.718.448.801.533.717.447.807.444.712.448.807.533.718.448.807.45.717.441.712.538.806.443.718.45.801.446.718.533.807.448.716.45.803.441.717.45.717.532.801.448.718.448.806.444.718.537.801.444.717.447.717.45.808.531.711.45.808.441.717.45.807.537.712.443.806.448.718h18.294v-65.258zM391.863 295.14l-.269.812-.353.897-.359.807-.269.812-.353.807-.358.897-.27.812-.359.807-.352.806-.27.812-.359.897-.263.807-.359.812-.359.807-.268.807-.354.901-.358.808-.269.806-.359.812-.353.897-.269.812-.359.807-.353-.807-.268-.812-.359-.897-.359-.812-.264-.806-.358-.808-.359-.901-.353-.807-.27-.807-.358-.812-.359-.807-.264-.897-.358-.812-.359-.806-.268-.807-.354-.812-.359-.897-.358-.807-.263-.812-.359-.807-.359-.897-.269-.812-.353-.807h15.082zm28.03-26.891h-17.498l-.354.808-.269.807-.358.807-.359.896-.264.802-.358.806-.359.807-.264.807-.358.807-.359.807-.268.807-.354.896-.359.807-.269.807-.359.807h-25.613l-.354-.807-.269-.807-.359-.807-.358-.896-.264-.807-.358-.807-.359-.807-.269-.807-.353-.807-.359-.806-.269-.802-.354-.896-.358-.807-.269-.807-.359-.808h-18.024l.352.808.36.807.357.807.354.896.27.802.358.806.358.807.353.807.36.807.358.897.353.807.36.806.267.807.36.807.352.807.36.896.357.807.354.808.36.806.357.807.27.807.352.897.36.806.358.807.353.807.36.807.358.807.353.897.27.806.358.807.358.807.354.807.358.807.358.896.354.807.358.807.27.807.358.806.353.807.36.897.358.807.353.807.358.807.36.806.268.808.354.801.358.897.358.806.354.808.358.807.36.806.352.807.27.897.358.806.358.807.354.807.36.807.357.807.354.897.358.806.27.807.357.807.354.807.358.807.36.896.352.807.36.807.358.807.263.806.36.808.358.896.36.807.352.807.36.807.357.807.353.806.27.897.358.807.36.807.352.807h16.512l.358-.807.36-.807.353-.807.358-.897.27-.806.352-.807.36-.807.357-.807.36-.807.352-.896.36-.808.358-.806.263-.807.36-.807.358-.807.36-.896.352-.807.358-.807.36-.807.352-.807.27-.806.357-.897.354-.807.36-.807.357-.807.36-.807.352-.806.358-.897.27-.807.353-.806.358-.807.36-.808.358-.806.353-.897.36-.801.357-.808.264-.806.358-.807.36-.807.353-.807.358-.897.36-.807.358-.806.353-.807.27-.807.357-.807.354-.896.358-.807.36-.807.357-.807.354-.807.36-.806.267-.897.354-.807.358-.807.36-.807.352-.807.36-.806.358-.897.36-.807.262-.807.36-.806.358-.808.353-.807.358-.896.36-.807.357-.807.353-.807.27-.806.36-.807.352-.897.358-.807.358-.807.354-.807.358-.806.36-.802.27-.896.351-.807.36-.807.357-.808zm-78.193 8.334l-.717-.538-.623-.449-.717-.538-.712-.448-.712-.538-.717-.448-.712-.449-.807-.447-.802-.449-.802-.448-.806-.353-.802-.449-.89-.358-.802-.359-.897-.358-.8-.359-.804-.269-.806-.269-.802-.27-.89-.268-.802-.27-.897-.179-.802-.179-.89-.179-.897-.179-.892-.09-.98-.09-.892-.09-.98-.089-.898-.09-.98-.089h-3.84l-.89.089-.982.09-.89.089-.892.09-.897.09-.89.179-.893.18-.8.179-.897.179-.802.269-.89.179-.808.27-.802.358-.802.269-.89.359-.807.358-.802.358-.8.359-.809.448-.71.444-.803.448-.717.449-.712.447-.717.539-.712.537-.713.538-.627.538-.622.538-.628.628-.622.537-.628.628-.622.628-.538.627-.533.717-.538.628-.448.717-.533.718-.447.716-.444.718-.448.807-.448.717-.353.807-.359.807-.358.807-.354.806-.269.717-.359.808-.179.807-.264.806-.179.896-.269.808-.179.896-.09.807-.18.897-.088.806-.09.897-.085.897-.089.896v2.959l.09.986v.896l.083.897.091.986.18.891.088.897.18.807.268.896.18.897.263.807.27.896.268.807.36.897.353.806.358.807.36.807.352.807.448.807.448.717.444.718.447.717.45.717.531.717.538.717.533.717.538.629.622.627.538.628.623.626.627.629.622.537.717.628.623.538.712.538.717.448.712.538.718.448.711.448.802.449.807.448.801.448.802.359.806.358.892.449.712.268.891.27.808.358.801.18.801.269.896.179.802.269.891.179.892.09.896.179.892.09.89.089.892.09.897.09h3.833l.987-.09.981-.09h.891l.891-.089.981-.18.807-.089.891-.18.892-.179.806-.179.801-.179.803-.18.807-.269.801-.179.712-.269.807-.269.802-.358.801-.359.807-.359.802-.448.801-.359.718-.448.801-.448.712-.448.807-.449.712-.537.712-.449.717-.538.712-.538.717-.627.712-.538-.538-.718-.622-.627-.538-.717-.622-.717-.538-.718-.533-.627-.628-.717-.532-.717-.538-.629-.623-.717-.537-.717-.623-.717-.538-.628-.532-.717-.627-.717-.534-.717-.627-.628-.533-.717-.717.538-.712.627-.717.449-.712.538-.712.448-.717.449-.713.447-.8.449-.718.358-.712.359-.717.269-.802.269-.8.269-.808.179-.89.18-.892.179-.892.089-.98.09-.987.089h-1.872l-.89-.089-.808-.09-.89-.179-.803-.18-.807-.268-.8-.269-.803-.359-.802-.358-.717-.448-.71-.449-.719-.449-.622-.537-.628-.538-.622-.538-.538-.627-.622-.628-.538-.717-.444-.628-.448-.717-.442-.807-.449-.717-.358-.807-.269-.807-.354-.807-.269-.896-.179-.892-.179-.806-.18-.987-.089-.896-.084-.896v-2.063l.084-.896.09-.807.09-.897.178-.806.18-.808.18-.806.268-.807.264-.717.36-.896.357-.808.443-.807.448-.717.448-.717.533-.718.538-.627.622-.628.54-.627.62-.538.718-.538.712-.538.711-.448.717-.448.803-.359.801-.359.806-.358.892-.269.891-.269.897-.18.891-.179.891-.089.981-.09h2.051l.987.09.981.089.891.09.891.18.897.179.891.268.801.18.803.358.717.359.801.359.627.358.713.449v8.158h-13.032v13.084h29.454V277.12z"/><path fill="#fff" d="M312.995 481.16h38.683v29.921h-38.683v61.086h40.223v29.922h-73.072V386.14h73.684v29.922h-40.835z"/><path fill="#fff" d="M590.07 474.677v-48.744c0-8.639-3.993-12.647-12.278-12.647h-6.144c-8.595 0-12.588 4.008-12.588 12.647v136.362c0 8.638 3.993 12.646 12.588 12.646h5.527c8.29 0 12.283-4.008 12.283-12.646v-42.269h32.233v44.12c0 26.837-12.895 39.795-39.6 39.795h-15.97c-26.705 0-39.911-13.264-39.911-40.106V424.393c0-26.843 13.206-40.106 39.912-40.106h16.274c26.712 0 39.91 13.263 39.91 40.106v50.284z"/><path fill="#fff" d="M475.995 386.138h32.854V602.09h-32.854z"/><path fill="#fff" d="M428.326 506.146c0-8.639-3.987-12.652-12.277-12.652h-13.511v79.596h13.51c8.29 0 12.278-4.009 12.278-12.646zm-7.061 95.944h-51.577V386.138h32.85V464.5h18.727c26.71 0 39.91 13.263 39.91 40.1v57.384c0 26.842-13.2 40.106-39.91 40.106"/><path fill="#fff" fill-rule="evenodd" d="M357.642 190.875h188.054L449.71 159.22z"/></g></svg>