<svg xmlns="http://www.w3.org/2000/svg" role="img" viewBox="41.67 35.42 316.40 328.90"><title>Epic Games logo</title><defs><clipPath id="a" clipPathUnits="userSpaceOnUse"><path d="M102.943 205.588c-16.71-19.158-13.541-34.978-13.541-34.978s4.609 10.887 15.703 22.351c5.253 5.43 9.181 7.247 11.862 7.254 2.98.009 4.417-2.22 4.417-4.207v-38.894c0-3.837-2.473-4.676-4.752-4.633-1.946.036-3.748.712-3.748.712 11.381-16.544 38.609-18.867 38.609-18.867l11.957 12.773.281-.241 10.955-9.337c20.025 11.9 29.679 33.961 29.679 33.961-8.935-9.46-14.631-11.665-18.011-11.648-2.999.015-4.176 1.778-4.176 1.778-.161.819-.441 12.652-.54 24.493-.102 12.267-.013 24.542.602 24.579 3.458 6.49 14.489 19.576 14.489 19.576-20.602-4.061-31.837-17.561-31.837-17.561-3.316 2.613-10.085 2.179-10.085 2.179 3.168-1.744 6.338-6.824 6.338-11.032v-41.364s-6.915-6.094-12.245-6.094c-3.151 0-5.094 1.725-6.156 3.135-.735.977-1.049 1.8-1.049 1.8v51.087c-.653-.473-1.582-.868-2.537-.862-1.132.005-2.304.572-3.1 2.242-.601 1.257-.988 3.139-.988 5.877 0 9.432 10.661 15.674 10.661 15.674-13.543-3.629-26.076-10.596-42.788-29.753"/></clipPath><clipPath id="b" clipPathUnits="userSpaceOnUse"><path d="M66.746 184.691c0-46.307 37.222-83.845 83.139-83.845 45.916 0 83.139 37.538 83.139 83.845 0 46.306-37.223 83.845-83.139 83.845-45.917 0-83.139-37.539-83.139-83.845m26.938-56.68c-15.012 15.14-23.28 35.27-23.28 56.68 0 21.409 8.268 41.538 23.28 56.677 15.012 15.14 34.971 23.477 56.201 23.477 21.229 0 41.189-8.337 56.201-23.477 15.012-15.139 23.279-35.268 23.279-56.677 0-21.41-8.267-41.54-23.279-56.68-15.012-15.138-34.972-23.475-56.201-23.475-21.23 0-41.189 8.337-56.201 23.475"/></clipPath><clipPath id="c" clipPathUnits="userSpaceOnUse"><path d="M145.974 48.025a62.21 62.21 0 0 1-3.889-.104c-1.097-.07-2.029-.207-2.796-.413-.767-.205-1.39-.492-1.87-.86a3.7 3.7 0 0 1-1.121-1.447c-.268-.596-.451-1.322-.547-2.178a27.75 27.75 0 0 1-.144-3.04v-.476c0-1.163.046-2.168.139-3.017.092-.847.27-1.57.535-2.167a3.682 3.682 0 0 1 1.116-1.452c.478-.372 1.102-.663 1.869-.872.767-.209 1.699-.351 2.796-.424a59.96 59.96 0 0 1 3.912-.11h.724c1.281 0 2.403.034 3.365.104.962.07 1.789.188 2.48.354.69.167 1.26.391 1.708.675.449.283.806.638 1.07 1.069.265.43.448.942.552 1.534.104.592.156 1.281.156 2.063v3.626h-10.815v-3.149h6.247v-.454a4.33 4.33 0 0 0-.057-.75 1.32 1.32 0 0 0-.235-.558 1.353 1.353 0 0 0-.506-.395c-.219-.104-.51-.185-.874-.244a13.16 13.16 0 0 0-1.345-.128 39.448 39.448 0 0 0-1.902-.041h-.402c-.904 0-1.676.016-2.316.047-.639.031-1.172.099-1.598.203-.425.106-.762.255-1.011.448a1.737 1.737 0 0 0-.557.784c-.123.33-.201.735-.236 1.215-.035.48-.052 1.058-.052 1.732v.291c0 .688.017 1.28.052 1.772.035.491.113.904.236 1.237.123.333.308.597.557.791.249.193.586.342 1.011.447.426.104.959.173 1.598.203.64.032 1.412.047 2.316.047h.402c.996 0 1.799-.031 2.408-.093.608-.062 1.082-.168 1.419-.32.337-.151.564-.353.678-.604.115-.252.173-.563.173-.935v-.198h4.624v.627c0 .713-.05 1.337-.149 1.871-.099.535-.278.994-.535 1.377-.256.385-.606.7-1.047.948-.441.248-1 .444-1.679.587-.68.143-1.491.242-2.434.296-.943.054-2.044.081-3.302.081z"/></clipPath><clipPath id="d" clipPathUnits="userSpaceOnUse"><path d="M62.796 85.529v-15.69c0-.956-.034-1.786-.102-2.489-.068-.703-.206-1.297-.416-1.782a2.99 2.99 0 0 0-.902-1.188c-.392-.307-.912-.543-1.561-.707-.649-.164-1.447-.276-2.393-.338a53.647 53.647 0 0 0-3.387-.092h-.709c-1.311 0-2.441.027-3.387.082-.946.054-1.743.167-2.392.338-.649.17-1.17.406-1.561.707a2.867 2.867 0 0 0-.903 1.188c-.21.491-.349 1.085-.416 1.782a26.566 26.566 0 0 0-.101 2.499v15.69h-8.395V67.115c0-1.421.102-2.663.304-3.729.203-1.065.551-1.984 1.044-2.755a6.144 6.144 0 0 1 1.987-1.925c.832-.512 1.88-.919 3.143-1.218 1.265-.301 2.769-.513 4.513-.636 1.743-.123 3.771-.184 6.083-.184h.872c2.338 0 4.387.061 6.144.184 1.757.123 3.268.335 4.532.636 1.264.299 2.308.706 3.133 1.218a6.077 6.077 0 0 1 1.967 1.925c.486.771.824 1.694 1.013 2.766.19 1.071.284 2.311.284 3.718v18.414z"/></clipPath><clipPath id="e" clipPathUnits="userSpaceOnUse"><path d="M120.182 85.529V56.995h8.314v7.927h8.395a67.11 67.11 0 0 0 3.355-.071c.94-.048 1.731-.14 2.372-.277.643-.136 1.16-.331 1.552-.584a2.59 2.59 0 0 0 .913-1.004c.216-.415.358-.925.425-1.525.068-.601.102-1.318.102-2.151v-2.315h8.294v4.363c0 1.257-.068 2.287-.204 3.094-.135.805-.385 1.457-.749 1.956-.366.498-.869.873-1.511 1.126-.642.253-1.464.461-2.464.626v.163c.906.205 1.67.504 2.292.901a4.953 4.953 0 0 1 1.52 1.506c.392.608.676 1.331.852 2.171.175.84.264 1.82.264 2.939v1.004c0 1.639-.166 3.015-.497 4.128-.332 1.113-.93 2.007-1.795 2.683-.866.676-2.048 1.157-3.549 1.444-1.5.287-3.413.43-5.738.43zm8.314-6.308h10.463c1.433 0 2.579-.045 3.437-.133.858-.09 1.514-.267 1.967-.534.452-.266.747-.648.882-1.147.135-.498.203-1.15.203-1.955v-.492c0-.82-.068-1.479-.203-1.977a1.929 1.929 0 0 0-.872-1.167c-.446-.28-1.098-.465-1.957-.554-.859-.088-2.011-.133-3.457-.133h-10.463z"/></clipPath></defs><g clip-path="url(#a)" transform="matrix(1.33333 0 0 -1.33333 0 400)"><path fill="#2e2e2c" d="M87.986 236.517h117.555V133.151H87.986z"/></g><g clip-path="url(#b)" transform="matrix(1.33333 0 0 -1.33333 0 400)"><path fill="#2e2e2c" d="M65.57 269.711h168.631V99.669H65.57z"/></g><path fill="#2e2e2c" d="M120.175 336.045v21.754h23.72v-4.95h-17.364v-3.75h16.094v-4.542H126.53v-3.703h16.992v-4.81zm49.641 0v16.29h-.126l-12.48-16.29h-9.75v21.754h6.293v-16.273h.124l12.636 16.273h9.596v-21.754z"/><g clip-path="url(#c)" transform="matrix(1.33333 0 0 -1.33333 0 400)"><path fill="#2e2e2c" d="M134.432 49.201h22.773V30.288h-22.773z"/></g><path fill="#2e2e2c" d="M245.72 336.214v16.161h-.123l-12.348-16.161H223.6v21.585h6.226v-16.145h.123l12.503 16.145h9.496v-21.585zm11.285 0v21.585h23.47v-4.912h-17.18v-3.72h15.922v-4.509h-15.922v-3.672h16.813v-4.772z"/><g clip-path="url(#d)" transform="matrix(1.33333 0 0 -1.33333 0 400)"><path fill="#2e2e2c" d="M34.995 86.705h37.371V55.492H34.995z"/></g><path fill="#2e2e2c" d="M141.533 285.96v28.487h-.216L119.55 285.96h-17.006v38.047h10.977v-28.46h.216l22.036 28.46h16.735V285.96z"/><g clip-path="url(#e)" transform="matrix(1.33333 0 0 -1.33333 0 400)"><path fill="#2e2e2c" d="M119.006 86.705h36.074V55.819h-36.074z"/></g><path fill="#2e2e2c" d="M212.504 285.96v38.047h41.367v-8.659H223.59v-6.554h28.065v-7.947H223.59v-6.473h29.632v-8.414zm64.24.002l-20.44 38.045h11.977l3.435-6.828h23.739l3.486 6.828h12.086l-20.548-38.045zm6.652 8h.27l7.76 15.269h-15.735zm31.714-8.002v38.047h36.662v-8.85h-25.47V285.96zm-102.66 71.839h6.38v-21.584h-6.38z"/></svg>