<svg xmlns="http://www.w3.org/2000/svg" role="img" viewBox="2.14 3.14 299.22 538.72"><title>Field3D logo</title><g data-name="Layer 2"><path d="M41.344 288.458l69.349 62.452 81.243-12.678-82.331 23.763-68.261-73.537zm151.552 113.624l-82.571 26.883-70.81-85.933 71.77 75.371 81.611-16.321zM31.595 221.579l78.731 63.849 151.46-31.684-150.261 22.563-79.93-54.728zm-2.604-65.408l80.062 51.535 159.664-24.847-159.664 14.724-80.062-41.412zM27.61 90.373l79.143 36.349 160.584-19.325-160.124 10.583L27.61 90.373z"/><path d="M42.335 20.434l11.503 2.761 2.76 361.199-14.263-363.96z"/><path d="M29.451 20.433l78.222 20.706 175.769-14.724-176.229 7.822-77.762-13.804z"/><path d="M178.992 31.936l9.663.921-10.122 390.189.459-391.11zM25.309 22.274l156.904-5.981 90.185 16.564-89.724-11.964-157.365 1.381z"/><path d="M182.214 156.631l88.804 34.049-88.344-26.226-.46-7.823zM100.771 35.617l8.282 402.152 2.761-401.231-11.043-.921zm151.843-22.086l2.761 18.866-4.603 99.847-.46-104.448 2.302-14.265z"/><path d="M248.011 267.982l3.682-86.964-1.842-12.424-3.22 14.725 1.38 84.663zM180.373 32.397l-68.559-15.644 76.381 14.263-7.822 1.381zM12.733 473.278h40.823v10.06H24.619v13.167h25.363v9.943H24.62v24.004H12.733zm59.078 9.787H60.586v-10.214H71.81zm-11.225 5.05H71.81v42.337H60.586zm49.534.858a17.225 17.225 0 0 1 7.316 6.263 20.81 20.81 0 0 1 3.373 8.752 54.113 54.113 0 0 1 .364 8.403H90.338q.257 6.37 4.428 8.933a11.238 11.238 0 0 0 6.103 1.593 8.598 8.598 0 0 0 8.425-4.855h11.302q-.448 3.769-4.104 7.652-5.689 6.176-15.928 6.176a23.077 23.077 0 0 1-14.913-5.21q-6.46-5.208-6.46-16.95 0-11 5.832-16.87 5.831-5.87 15.14-5.87a24.106 24.106 0 0 1 9.956 1.983zm-16.56 9.562a11.506 11.506 0 0 0-2.95 6.554h19.071a9.237 9.237 0 0 0-2.949-6.69 9.703 9.703 0 0 0-6.565-2.283 8.78 8.78 0 0 0-6.608 2.42zm44.514 31.917h-11.07V473.2h11.07zm33.247-41.657a13.434 13.434 0 0 1 4.856 4.68v-20.197H187.4v57.174h-10.757v-5.865a15.601 15.601 0 0 1-5.4 5.476 15.153 15.153 0 0 1-7.536 1.71 15.73 15.73 0 0 1-12.486-6.002q-5.069-6-5.07-15.4 0-10.837 4.992-17.05a16.237 16.237 0 0 1 13.341-6.216 13.657 13.657 0 0 1 6.836 1.69zm2.719 30.16a15.431 15.431 0 0 0 2.447-9.05q0-7.768-3.922-11.108a8.448 8.448 0 0 0-5.593-2.02 7.771 7.771 0 0 0-7.127 3.67 17 17 0 0 0-2.273 9.109q0 5.865 2.312 9.38a7.815 7.815 0 0 0 7.01 3.515 8.173 8.173 0 0 0 7.146-3.496zm31.229-5.787a12.694 12.694 0 0 0 1.085 5.593q2.015 4.078 7.324 4.078a8.099 8.099 0 0 0 5.677-2.234 8.308 8.308 0 0 0 2.421-6.427q0-5.555-4.49-7.42-2.557-1.048-8.056-1.048v-7.923q5.38-.077 7.51-1.049 3.677-1.632 3.677-6.603a7.39 7.39 0 0 0-1.879-5.243 6.866 6.866 0 0 0-5.288-2.02q-3.913 0-5.753 2.485a10.56 10.56 0 0 0-1.762 6.642h-10.332a27.812 27.812 0 0 1 1.436-7.962 17.927 17.927 0 0 1 4.267-6.098 14.862 14.862 0 0 1 5.16-3.03 22.313 22.313 0 0 1 7.335-1.049q8.07 0 13.016 4.176a13.914 13.914 0 0 1 4.947 11.205 12.385 12.385 0 0 1-2.952 8.39 10.078 10.078 0 0 1-3.883 2.913q1.514 0 4.35 2.603 4.233 3.924 4.234 10.72a18.064 18.064 0 0 1-4.948 12.565q-4.948 5.418-14.648 5.419-11.95 0-16.608-7.808a23.18 23.18 0 0 1-2.715-10.875zm70.873-38.725a18.922 18.922 0 0 1 9.757 7.263 25.488 25.488 0 0 1 4.081 9.244 44.362 44.362 0 0 1 1.09 9.478q0 11.42-4.588 19.343-6.22 10.683-19.203 10.681h-24.683V473.2h24.683a30.113 30.113 0 0 1 8.863 1.243zm-21.933 8.7v37.366h11.049q8.48 0 11.825-8.35a29.416 29.416 0 0 0 1.83-10.916q0-8.74-2.744-13.419-2.742-4.68-10.911-4.68z"/></g></svg>