<svg xmlns="http://www.w3.org/2000/svg" role="img" viewBox="77.03 10.53 179.18 310.18"><title>Field3D logo</title><path d="M241.1 18.2c-.2 4.9-1 5.8-5.5 5.8-2.2 0-13.3-1.6-24.6-3.6-20.3-3.5-20.7-3.6-40-2.9-10.7.3-22.4.8-26 1-3.6.2-15.5.7-26.5 1.1-11 .3-20.2.8-20.4 1-.2.2 13.3.4 30 .4 29.5.1 30.8.2 43.9 2.9 12.5 2.7 13.1 2.9 8 3.1-3 .1-6.8.3-8.5.6-1.6.2-12 .5-23 .6-17.8.2-21.7 0-35.3-2.4-9.6-1.6-15.8-3.2-16.5-4.1-1.4-1.7-6.5-2.8-7.3-1.6-.3.5-2 1-3.7 1-2.7.2-2.8.2-.7.6 1.4.3 2.9.9 3.4 1.4 1.1 1 1.1 1.3 2.1 29.8l.7 21.3-2.3-.7c-5.1-1.6-5.3-1.6-1.8.4 4.6 2.5 4.6 2.8 5.5 29.1.3 11.3.8 20.8 1.1 21.2.7 1.3-.5.9-5.7-1.7-6.2-3.2-6.5-2.5-.5 1.1 2.5 1.4 4.9 3.4 5.4 4.3 1.1 1.9 2.6 46.1 1.7 46.1-.4 0-3.5-1.8-6.9-4.1-5-3.3-5.5-3.5-2.7-1 1.9 1.7 5 4.1 6.7 5.3 1.8 1.3 3.5 3.4 3.7 4.8.3 1.4.8 11.5 1.1 22.5.8 22.2 1.3 20.6-5.5 15.1-1.4-1.2-.5.1 1.9 2.7 2.8 2.9 4.6 5.7 4.7 7.4.1 1.6.5 10.9.8 20.8l.7 18-5.2-5-5.3-5 5.2 6.1c3.5 4.2 5.2 7.1 5.3 9 0 2.3.2 2.5.8 1 .6-1.5 4.2 2.4 19.6 20.8 10.3 12.4 19.3 22.6 19.8 22.6 1.4 0 55.1-17.1 55.7-17.8.3-.2-1.2-.2-3.3.2l-3.8.7.3-11c.2-6 0-10.7-.4-10.4-.5.2-.8 5.1-.8 10.8 0 8-.3 10.4-1.4 10.8-2 .8-44 8.7-46 8.7-1 0-1.6-.9-1.6-2.3 0-1.3-.3-1.7-.8-1-.5.8-7.1-5.6-19-18L100 266.6l-.1-10.1c-.1-5.5-.2-13.7-.3-18.3 0-4.5.1-8.9.4-9.6.3-.8 7.6 6.2 18.8 18l18.2 19.3v18.2c0 10 .2 18 .4 17.8.2-.2.6-8 .8-17.2.2-13.8.6-17 1.8-17.7 1.3-.7 43.8-12.9 46.4-13.3.6-.1 1 4.4 1 10.5 0 5.9.4 10.5.8 10.2.5-.3.8-1.3.7-2.2-.1-1-.1-5.7 0-10.5.1-8.1.3-8.8 2.4-9.7 2.2-.9 2.2-.9 0-.9-2.1-.1-2.1-.1-1.7-22.4.3-12.2.7-23.6 1-25.3l.4-3 22.3-4.7c12.2-2.6 22.7-4.7 23.4-4.7.6 0 1.4.8 1.6 1.7.4 1.4.5 1.3.6-.4 0-1.2.9-2.4 1.9-2.6 1.5-.4 1.5-.5-.2-.6-1.8-.1-1.8-.9-1.1-18.4.5-10 .9-19.3 1-20.7.1-1.4.3-4.5.4-6.9.1-4 .3-4.3 2.4-3.7 1.2.3 3.3.8 4.7 1.1 2 .4 1.9.3-.5-.7-2.7-1-2.8-1.2-1-2 1.3-.5.9-.6-1.4-.2-4 .7-5-.4-5.2-6.1l-.1-4-1 4c-.6 2.2-1.2 4.1-1.3 4.3-.1.1-10-3.4-22-7.8-12.1-4.4-22-8-22.2-8-.2 0-.3-6.8-.3-15 0-8.9.4-15 1-15 1.7 0 41.4-5 43.7-5.5 2-.5 2.2-.1 2.6 5.2l.3 5.8.2-5.7c.2-5.6.2-5.7 3.5-6.1l3.2-.4-3.2-.1c-3-.2-3.1-.4-2.8-4 .1-2.1.6-13.5 1-25.3s.8-22.5.9-23.9c0-1.4.8-2.8 1.6-3.2 1.2-.5 1.1-.7-.5-.9-1.1-.1-.2-.5 2-.9l4-.7-3.7-.2c-3-.1-3.9-.5-4.2-2.4-.3-1.2-.7-3.1-.9-4.2-.4-1.5-.5-1.3-.6.7zm-33.6 4.2c10.2 1.4 16.1 2.5 13.5 2.6-2.5.1-5.6.3-7 .5-8.7 1.1-21.9.5-34.2-1.5-7.6-1.3-13.8-2.6-13.8-2.9 0-1.7 24.7-.9 41.5 1.3zm-90.7 7.2l15.2 3.7.1 15.1c0 8.3.2 20.8.6 27.8l.5 12.7-17.3-6c-9.6-3.3-17.5-6.2-17.7-6.4-.2-.2-.6-11.9-.9-26.1l-.6-25.7 2.4.6c1.3.4 9.3 2.3 17.7 4.3zM240 54.4c0 21.8-.3 28.5-1.2 28.8-.7.3-4.2.6-7.8.7-3.6.1-11.7.6-18 1.1-6.3.6-13.4 1-15.6 1-4.1 0-4.2-.1-3.8-3.3.1-1.7.5-14.4.8-28.1.3-13.7.7-25 .8-25.1.5-.4 33-3.2 39.1-3.4l5.7-.1v28.4zm-52 4.1V87l-6.2.1c-3.5 0-7 .2-7.8.3-.8.2-7.3.6-14.5 1-7.1.4-14.7.9-16.8 1.2l-3.9.6.4-27.5c.1-15.2.5-27.8.8-28 .3-.3 4.3-.9 9-1.2 4.7-.4 9.5-.8 10.7-1 1.2-.2 6.8-.7 12.5-1 5.7-.4 10.5-.9 10.7-1.1.2-.2 1.5-.4 2.8-.4h2.3v28.5zm-55.3 36.9c.2.1.6 11.6.9 25.5l.7 25.3-18.2-9.2-18.1-9.3V79.2l17.3 8c9.4 4.4 17.3 8.1 17.4 8.2zM188 117c0 20.1-.3 26-1.2 26-.7 0-10.5.9-21.8 2s-21.7 2-23.2 2H139v-25c0-13.8.1-25 .3-25 2.7-.5 44.9-5.8 46.5-5.9l2.2-.1v26zm27.6 14.2c11.8 3.4 20.8 6.5 20.2 6.9-.7.3-4.9.9-9.3 1.3-12.5 1.1-20.4 1.8-27.7 2.5l-6.8.7v-8.8c0-5.6.4-8.8 1.1-8.8.6 0 10.7 2.8 22.5 6.2zm-99 10.5l17.2 10.8.7 18c.4 9.9.5 20.9.3 24.4l-.3 6.3-17.5-11.7c-9.6-6.5-17.6-11.9-17.7-12-.7-.5-1.4-46.5-.7-46.5.4 0 8.5 4.8 18 10.7zm120.4 6.5c.1 4.6.2 15.7.3 24.8l.2 16.5-21 3.2c-23.7 3.6-26.6 3.9-26 2 .2-.6.6-11.7.9-24.6.3-12.9.7-23.5.8-23.6.6-.4 39.4-6.3 42.1-6.4l2.7-.1v8.2zm-49 23.7v24.9l-6.2 1.1c-3.5.6-9.6 1.5-13.6 2.1-4 .5-11.4 1.7-16.5 2.5s-10 1.5-11 1.5c-1.6 0-1.7-1.6-1.5-24.7l.3-24.8 23.5-3.6c12.9-2 23.8-3.7 24.3-3.8.4-.1.7 11.1.7 24.8zm-61.7 29.6c4.8 3.7 8.8 7.1 8.8 7.4.4 2.3 1.2 39.3.9 46.9 0 .7-8.3-6.3-18.5-15.5L99 223.6v-43.7l9.3 7.4c5 4 13.1 10.4 18 14.2zm61.1 25.5c-.1 13.2-.3 24.2-.5 24.4-.8.7-47.3 7.5-47.8 7-.8-.8-1-35.9-.2-41.9l.6-5 23.5-5.1c12.9-2.7 23.7-4.7 24-4.3.3.4.5 11.6.4 24.9z"/></svg>