<svg xmlns="http://www.w3.org/2000/svg" role="img" xmlns:xlink="http://www.w3.org/1999/xlink" viewBox="19.27 -1.73 458.46 583.96"><title>File Meta Checker logo</title><defs><style>.cls-16{fill:#ebd858}</style><linearGradient id="linear-gradient" x1="248.042" x2="127.738" y1="271.911" y2="480.284" gradientUnits="userSpaceOnUse"><stop offset="0" stop-color="#ca0000"/><stop offset=".516" stop-color="#7c0000"/><stop offset="1" stop-color="#ca0001"/></linearGradient><linearGradient id="linear-gradient-2" x1="77.059" x2="296.274" y1="446.041" y2="303.615" gradientTransform="rotate(3.012 199.31 389.674)" gradientUnits="userSpaceOnUse"><stop offset="0" stop-color="#ca0001"/><stop offset="0" stop-color="#580101"/><stop offset=".175" stop-color="#871414"/><stop offset=".36" stop-color="#b22525"/><stop offset=".539" stop-color="#d43333"/><stop offset=".71" stop-color="#ec3c3c"/><stop offset=".868" stop-color="#fa4242"/><stop offset="1" stop-color="#f44"/></linearGradient><linearGradient id="linear-gradient-3" x1="307.449" x2="307.449" y1="497.677" y2="290.65" gradientUnits="userSpaceOnUse"><stop offset=".143" stop-color="#ca0001"/><stop offset=".562" stop-color="#7c0000"/><stop offset="1" stop-color="#ca0000"/></linearGradient><linearGradient id="linear-gradient-4" x1="201.538" x2="412.284" y1="356.556" y2="356.556" xlink:href="#linear-gradient-2"/><linearGradient id="linear-gradient-5" x1="92.788" x2="92.832" y1="121.931" y2="121.931" gradientUnits="userSpaceOnUse"><stop offset="0" stop-color="#fff"/><stop offset="0" stop-color="#ffec78"/><stop offset="1" stop-color="#b6a001"/></linearGradient><linearGradient id="linear-gradient-6" x1="84.653" x2="412.629" y1="174.534" y2="174.534" xlink:href="#linear-gradient-5"/><linearGradient id="linear-gradient-7" x1="250.236" x2="327.065" y1="109.451" y2="242.522" gradientUnits="userSpaceOnUse"><stop offset="0" stop-color="#9c7020"/><stop offset=".223" stop-color="#b68b24"/><stop offset=".551" stop-color="#d5ad28"/><stop offset=".822" stop-color="#e9c22b"/><stop offset="1" stop-color="#f0ca2c"/><stop offset="1" stop-color="#e0ff67"/></linearGradient><linearGradient id="linear-gradient-8" x1="228.927" x2="348.523" y1="175.621" y2="175.621" gradientUnits="userSpaceOnUse"><stop offset="0" stop-color="#7a4d0e"/><stop offset=".105" stop-color="#845b17"/><stop offset=".303" stop-color="#9f7f2d"/><stop offset=".491" stop-color="#bda746"/><stop offset=".855" stop-color="#ebe56c"/><stop offset="1" stop-color="#ffff7c"/><stop offset="1" stop-color="#f0ca2c"/></linearGradient><linearGradient id="linear-gradient-9" x1="163.716" x2="224.578" y1="117.606" y2="223.021" gradientTransform="matrix(1.61267 -.27874 .17453 1.00977 -148.31 56.38)" xlink:href="#linear-gradient-7"/><linearGradient id="linear-gradient-10" x1="148.104" x2="241.009" y1="174.029" y2="174.029" gradientUnits="userSpaceOnUse"><stop offset="0" stop-color="#7a4d0e"/><stop offset=".123" stop-color="#845b17"/><stop offset=".354" stop-color="#a07f2d"/><stop offset=".67" stop-color="#ccba51"/><stop offset="1" stop-color="#ffff7c"/><stop offset="1" stop-color="#f0ca2c"/></linearGradient><linearGradient id="linear-gradient-11" x1="76.069" x2="309.084" y1="253.654" y2="350.355" xlink:href="#linear-gradient-7"/><linearGradient id="linear-gradient-12" x1="195.869" x2="206.941" y1="304.456" y2="304.456" xlink:href="#linear-gradient-10"/><linearGradient id="linear-gradient-13" x1="172.239" x2="405.254" y1="21.919" y2="118.621" xlink:href="#linear-gradient-7"/><linearGradient id="linear-gradient-14" x1="218.648" x2="220.793" y1="41.639" y2="41.639" xlink:href="#linear-gradient-10"/><linearGradient id="linear-gradient-15" x1="78.805" x2="311.82" y1="247.062" y2="343.763" xlink:href="#linear-gradient-7"/><linearGradient id="linear-gradient-16" x1="233.166" x2="236.199" y1="311.792" y2="311.792" xlink:href="#linear-gradient-10"/><linearGradient id="linear-gradient-17" x1="77.144" x2="310.159" y1="251.064" y2="347.765" xlink:href="#linear-gradient-7"/><linearGradient id="linear-gradient-18" x1="215.971" x2="222.772" y1="309.502" y2="309.502" xlink:href="#linear-gradient-10"/><linearGradient id="linear-gradient-19" x1="177.419" x2="410.434" y1="9.437" y2="106.139" xlink:href="#linear-gradient-7"/><linearGradient id="linear-gradient-20" x1="243.558" x2="253.234" y1="38.909" y2="38.909" xlink:href="#linear-gradient-10"/><linearGradient id="linear-gradient-21" x1="87.24" x2="320.255" y1="226.736" y2="323.437" xlink:href="#linear-gradient-7"/><linearGradient id="linear-gradient-22" x1="262.791" x2="282.453" y1="303.449" y2="303.449" xlink:href="#linear-gradient-10"/><linearGradient id="linear-gradient-25" x1="79.067" x2="312.082" y1="246.43" y2="343.131" xlink:href="#linear-gradient-7"/><linearGradient id="linear-gradient-26" x1="197.971" x2="218.344" y1="299.788" y2="299.788" xlink:href="#linear-gradient-10"/><linearGradient id="linear-gradient-27" x1="78.776" x2="311.791" y1="247.131" y2="343.833" xlink:href="#linear-gradient-7"/><linearGradient id="linear-gradient-28" x1="182.979" x2="202.72" y1="294.148" y2="294.148" xlink:href="#linear-gradient-10"/><linearGradient id="linear-gradient-31" x1="90.966" x2="323.981" y1="217.757" y2="314.458" xlink:href="#linear-gradient-7"/><linearGradient id="linear-gradient-32" x1="278.694" x2="297.178" y1="299.208" y2="299.208" xlink:href="#linear-gradient-10"/><linearGradient id="linear-gradient-35" x1="95.003" x2="328.018" y1="208.03" y2="304.731" xlink:href="#linear-gradient-7"/><linearGradient id="linear-gradient-36" x1="293.606" x2="310.733" y1="293.572" y2="293.572" xlink:href="#linear-gradient-10"/><linearGradient id="linear-gradient-39" x1="99.295" x2="332.31" y1="197.688" y2="294.39" xlink:href="#linear-gradient-7"/><linearGradient id="linear-gradient-40" x1="307.11" x2="322.945" y1="286.842" y2="286.842" xlink:href="#linear-gradient-10"/><linearGradient id="linear-gradient-43" x1="80.415" x2="313.43" y1="243.183" y2="339.884" xlink:href="#linear-gradient-7"/><linearGradient id="linear-gradient-44" x1="158.53" x2="176.186" y1="278.948" y2="278.948" xlink:href="#linear-gradient-10"/><linearGradient id="linear-gradient-47" x1="82.081" x2="315.097" y1="239.166" y2="335.867" xlink:href="#linear-gradient-7"/><linearGradient id="linear-gradient-48" x1="148.5" x2="164.813" y1="269.826" y2="269.826" xlink:href="#linear-gradient-10"/><linearGradient id="linear-gradient-51" x1="103.416" x2="336.431" y1="187.758" y2="284.459" xlink:href="#linear-gradient-7"/><linearGradient id="linear-gradient-52" x1="319.281" x2="333.314" y1="279.661" y2="279.661" xlink:href="#linear-gradient-10"/><linearGradient id="linear-gradient-55" x1="84.198" x2="317.213" y1="234.067" y2="330.768" xlink:href="#linear-gradient-7"/><linearGradient id="linear-gradient-56" x1="139.138" x2="155.084" y1="259.952" y2="259.952" xlink:href="#linear-gradient-10"/><linearGradient id="linear-gradient-59" x1="113.087" x2="346.102" y1="164.454" y2="261.156" xlink:href="#linear-gradient-7"/><linearGradient id="linear-gradient-60" x1="339.552" x2="353.161" y1="260.833" y2="260.833" xlink:href="#linear-gradient-10"/><linearGradient id="linear-gradient-63" x1="108.244" x2="341.259" y1="176.124" y2="272.825" xlink:href="#linear-gradient-7"/><linearGradient id="linear-gradient-64" x1="330.109" x2="343.497" y1="270.334" y2="270.334" xlink:href="#linear-gradient-10"/><linearGradient id="linear-gradient-67" x1="117.854" x2="350.87" y1="152.966" y2="249.667" xlink:href="#linear-gradient-7"/><linearGradient id="linear-gradient-68" x1="348.012" x2="362.02" y1="250.7" y2="250.7" xlink:href="#linear-gradient-10"/><linearGradient id="linear-gradient-71" x1="86.731" x2="319.746" y1="227.963" y2="324.664" xlink:href="#linear-gradient-7"/><linearGradient id="linear-gradient-72" x1="131.175" x2="146.614" y1="249.436" y2="249.436" xlink:href="#linear-gradient-10"/><linearGradient id="linear-gradient-75" x1="122.705" x2="355.721" y1="141.277" y2="237.978" xlink:href="#linear-gradient-7"/><linearGradient id="linear-gradient-76" x1="355.137" x2="367.531" y1="239.682" y2="239.682" xlink:href="#linear-gradient-10"/><linearGradient id="linear-gradient-79" x1="89.66" x2="322.675" y1="220.905" y2="317.607" xlink:href="#linear-gradient-7"/><linearGradient id="linear-gradient-80" x1="124.331" x2="139.43" y1="238.329" y2="238.329" xlink:href="#linear-gradient-10"/><linearGradient id="linear-gradient-83" x1="96.624" x2="329.639" y1="204.125" y2="300.826" xlink:href="#linear-gradient-7"/><linearGradient id="linear-gradient-84" x1="114.617" x2="128.715" y1="214.522" y2="214.522" xlink:href="#linear-gradient-10"/><linearGradient id="linear-gradient-87" x1="100.649" x2="333.664" y1="194.424" y2="291.125" xlink:href="#linear-gradient-7"/><linearGradient id="linear-gradient-88" x1="111.673" x2="125.103" y1="201.926" y2="201.926" xlink:href="#linear-gradient-10"/><linearGradient id="linear-gradient-91" x1="93.054" x2="326.069" y1="212.725" y2="309.427" xlink:href="#linear-gradient-7"/><linearGradient id="linear-gradient-92" x1="118.599" x2="133.427" y1="226.574" y2="226.574" xlink:href="#linear-gradient-10"/><linearGradient id="linear-gradient-95" x1="127.621" x2="360.636" y1="129.432" y2="226.133" xlink:href="#linear-gradient-7"/><linearGradient id="linear-gradient-96" x1="360.996" x2="373.699" y1="228.161" y2="228.161" xlink:href="#linear-gradient-10"/><linearGradient id="linear-gradient-99" x1="132.492" x2="365.507" y1="117.694" y2="214.396" xlink:href="#linear-gradient-7"/><linearGradient id="linear-gradient-100" x1="365.721" x2="378.514" y1="216.277" y2="216.277" xlink:href="#linear-gradient-10"/><linearGradient id="linear-gradient-103" x1="104.794" x2="337.809" y1="184.436" y2="281.138" xlink:href="#linear-gradient-7"/><linearGradient id="linear-gradient-104" x1="110.167" x2="122.76" y1="189.447" y2="189.447" xlink:href="#linear-gradient-10"/><linearGradient id="linear-gradient-107" x1="137.381" x2="370.396" y1="105.915" y2="202.616" xlink:href="#linear-gradient-7"/><linearGradient id="linear-gradient-108" x1="369.171" x2="381.401" y1="203.715" y2="203.715" xlink:href="#linear-gradient-10"/><linearGradient id="linear-gradient-111" x1="142.176" x2="375.191" y1="94.36" y2="191.061" xlink:href="#linear-gradient-7"/><linearGradient id="linear-gradient-112" x1="371.551" x2="383.3" y1="190.994" y2="190.994" xlink:href="#linear-gradient-10"/><linearGradient id="linear-gradient-115" x1="109.371" x2="342.387" y1="173.407" y2="270.108" xlink:href="#linear-gradient-7"/><linearGradient id="linear-gradient-116" x1="109.828" x2="121.637" y1="176.362" y2="176.362" xlink:href="#linear-gradient-10"/><linearGradient id="linear-gradient-119" x1="146.87" x2="379.885" y1="83.05" y2="179.751" xlink:href="#linear-gradient-7"/><linearGradient id="linear-gradient-120" x1="372.63" x2="383.973" y1="178.125" y2="178.125" xlink:href="#linear-gradient-10"/><linearGradient id="linear-gradient-123" x1="151.487" x2="384.502" y1="71.923" y2="168.625" xlink:href="#linear-gradient-7"/><linearGradient id="linear-gradient-124" x1="372.06" x2="383.874" y1="165.939" y2="165.939" xlink:href="#linear-gradient-10"/><linearGradient id="linear-gradient-127" x1="123.847" x2="356.862" y1="138.526" y2="235.227" xlink:href="#linear-gradient-7"/><linearGradient id="linear-gradient-128" x1="114.565" x2="128.08" y1="136.813" y2="136.813" xlink:href="#linear-gradient-10"/><linearGradient id="linear-gradient-131" x1="118.736" x2="351.751" y1="150.842" y2="247.543" xlink:href="#linear-gradient-7"/><linearGradient id="linear-gradient-132" x1="111.74" x2="124.545" y1="150.426" y2="150.426" xlink:href="#linear-gradient-10"/><linearGradient id="linear-gradient-135" x1="114.137" x2="347.152" y1="161.924" y2="258.625" xlink:href="#linear-gradient-7"/><linearGradient id="linear-gradient-136" x1="110.137" x2="122.565" y1="163.004" y2="163.004" xlink:href="#linear-gradient-10"/><linearGradient id="linear-gradient-139" x1="164.268" x2="397.284" y1="41.125" y2="137.826" xlink:href="#linear-gradient-7"/><linearGradient id="linear-gradient-140" x1="362.623" x2="376.501" y1="126.91" y2="126.91" xlink:href="#linear-gradient-10"/><linearGradient id="linear-gradient-143" x1="160.392" x2="393.408" y1="50.465" y2="147.166" xlink:href="#linear-gradient-7"/><linearGradient id="linear-gradient-144" x1="366.899" x2="380.235" y1="139.685" y2="139.685" xlink:href="#linear-gradient-10"/><linearGradient id="linear-gradient-147" x1="156.343" x2="389.358" y1="60.223" y2="156.924" xlink:href="#linear-gradient-7"/><linearGradient id="linear-gradient-148" x1="370.035" x2="382.702" y1="152.415" y2="152.415" xlink:href="#linear-gradient-10"/><linearGradient id="linear-gradient-151" x1="128.526" x2="361.541" y1="127.252" y2="223.954" xlink:href="#linear-gradient-7"/><linearGradient id="linear-gradient-152" x1="118.763" x2="132.193" y1="125.191" y2="125.191" xlink:href="#linear-gradient-10"/><linearGradient id="linear-gradient-155" x1="133.502" x2="366.517" y1="115.261" y2="211.963" xlink:href="#linear-gradient-7"/><linearGradient id="linear-gradient-156" x1="124.212" x2="137.785" y1="113.101" y2="113.101" xlink:href="#linear-gradient-10"/><linearGradient id="linear-gradient-159" x1="148.411" x2="381.426" y1="79.335" y2="176.037" xlink:href="#linear-gradient-7"/><linearGradient id="linear-gradient-160" x1="147.713" x2="161.81" y1="81.139" y2="81.139" xlink:href="#linear-gradient-10"/><linearGradient id="linear-gradient-163" x1="167.429" x2="400.444" y1="33.509" y2="130.21" xlink:href="#linear-gradient-7"/><linearGradient id="linear-gradient-164" x1="356.975" x2="371.487" y1="115.993" y2="115.993" xlink:href="#linear-gradient-10"/><linearGradient id="linear-gradient-167" x1="138.593" x2="371.608" y1="102.993" y2="199.694" xlink:href="#linear-gradient-7"/><linearGradient id="linear-gradient-168" x1="130.863" x2="145.283" y1="101.543" y2="101.543" xlink:href="#linear-gradient-10"/><linearGradient id="linear-gradient-171" x1="165.972" x2="398.987" y1="37.019" y2="133.721" xlink:href="#linear-gradient-7"/><linearGradient id="linear-gradient-172" x1="195.958" x2="205.409" y1="51.55" y2="51.55" xlink:href="#linear-gradient-10"/><linearGradient id="linear-gradient-175" x1="143.528" x2="376.543" y1="91.102" y2="187.803" xlink:href="#linear-gradient-7"/><linearGradient id="linear-gradient-176" x1="138.726" x2="152.257" y1="91.043" y2="91.043" xlink:href="#linear-gradient-10"/><linearGradient id="linear-gradient-179" x1="170.363" x2="403.378" y1="26.439" y2="123.14" xlink:href="#linear-gradient-7"/><linearGradient id="linear-gradient-180" x1="350.733" x2="365.199" y1="104.738" y2="104.738" xlink:href="#linear-gradient-10"/><linearGradient id="linear-gradient-183" x1="178.467" x2="411.482" y1="6.911" y2="103.613" xlink:href="#linear-gradient-7"/><linearGradient id="linear-gradient-184" x1="314.099" x2="327.091" y1="65.499" y2="65.499" xlink:href="#linear-gradient-10"/><linearGradient id="linear-gradient-187" x1="161.895" x2="394.911" y1="46.843" y2="143.544" xlink:href="#linear-gradient-7"/><linearGradient id="linear-gradient-188" x1="182.181" x2="192.645" y1="57.431" y2="57.431" xlink:href="#linear-gradient-10"/><linearGradient id="linear-gradient-191" x1="179.415" x2="412.43" y1="4.628" y2="101.33" xlink:href="#linear-gradient-7"/><linearGradient id="linear-gradient-192" x1="287.932" x2="303.23" y1="52.275" y2="52.275" xlink:href="#linear-gradient-10"/><linearGradient id="linear-gradient-195" x1="153.025" x2="386.04" y1="68.218" y2="164.919" xlink:href="#linear-gradient-7"/><linearGradient id="linear-gradient-196" x1="157.917" x2="170.674" y1="72.442" y2="72.442" xlink:href="#linear-gradient-10"/><linearGradient id="linear-gradient-199" x1="175.294" x2="408.309" y1="14.557" y2="111.258" xlink:href="#linear-gradient-7"/><linearGradient id="linear-gradient-200" x1="334.668" x2="349.01" y1="83.562" y2="83.562" xlink:href="#linear-gradient-10"/><linearGradient id="linear-gradient-203" x1="173.075" x2="406.09" y1="19.905" y2="116.607" xlink:href="#linear-gradient-7"/><linearGradient id="linear-gradient-204" x1="343.377" x2="357.752" y1="93.767" y2="93.767" xlink:href="#linear-gradient-10"/><linearGradient id="linear-gradient-207" x1="179.226" x2="412.241" y1="5.083" y2="101.784" xlink:href="#linear-gradient-7"/><linearGradient id="linear-gradient-208" x1="302.885" x2="314.053" y1="58.263" y2="58.263" xlink:href="#linear-gradient-10"/><linearGradient id="linear-gradient-211" x1="158.021" x2="391.036" y1="56.18" y2="152.881" xlink:href="#linear-gradient-7"/><linearGradient id="linear-gradient-212" x1="169.383" x2="183.046" y1="63.777" y2="63.777" xlink:href="#linear-gradient-10"/><linearGradient id="linear-gradient-215" x1="169.551" x2="402.566" y1="28.397" y2="125.098" xlink:href="#linear-gradient-7"/><linearGradient id="linear-gradient-216" x1="207.305" x2="222.79" y1="47.55" y2="47.55" xlink:href="#linear-gradient-10"/><linearGradient id="linear-gradient-219" x1="169.085" x2="402.1" y1="29.52" y2="126.221" xlink:href="#linear-gradient-7"/><linearGradient id="linear-gradient-220" x1="214.51" x2="216.579" y1="48.367" y2="48.367" xlink:href="#linear-gradient-10"/><linearGradient id="linear-gradient-223" x1="177.09" x2="410.105" y1="10.23" y2="106.932" xlink:href="#linear-gradient-7"/><linearGradient id="linear-gradient-224" x1="325.677" x2="338.828" y1="74.213" y2="74.213" xlink:href="#linear-gradient-10"/><linearGradient id="linear-gradient-227" x1="79.319" x2="312.334" y1="245.822" y2="342.524" xlink:href="#linear-gradient-7"/><linearGradient id="linear-gradient-228" x1="171.374" x2="188.955" y1="286.694" y2="286.694" xlink:href="#linear-gradient-10"/><linearGradient id="linear-gradient-229" x1="82.094" x2="315.109" y1="239.136" y2="335.837" xlink:href="#linear-gradient-7"/><linearGradient id="linear-gradient-230" x1="233.443" x2="251.873" y1="305.805" y2="305.805" xlink:href="#linear-gradient-10"/><linearGradient id="linear-gradient-233" x1="80.239" x2="313.255" y1="243.605" y2="340.306" xlink:href="#linear-gradient-7"/><linearGradient id="linear-gradient-234" x1="216.739" x2="235.817" y1="304.092" y2="304.092" xlink:href="#linear-gradient-10"/><linearGradient id="linear-gradient-235" x1="172.391" x2="405.406" y1="21.553" y2="118.254" xlink:href="#linear-gradient-7"/><linearGradient id="linear-gradient-236" x1="223.194" x2="233.945" y1="44.82" y2="44.82" xlink:href="#linear-gradient-10"/><linearGradient id="linear-gradient-239" x1="174.908" x2="407.924" y1="15.486" y2="112.188" xlink:href="#linear-gradient-7"/><linearGradient id="linear-gradient-240" x1="234.71" x2="251.271" y1="43.726" y2="43.726" xlink:href="#linear-gradient-10"/><linearGradient id="linear-gradient-243" x1="174.376" x2="407.391" y1="16.77" y2="113.472" xlink:href="#linear-gradient-7"/><linearGradient id="linear-gradient-244" x1="242.125" x2="244.259" y1="44.991" y2="44.991" xlink:href="#linear-gradient-10"/><linearGradient id="linear-gradient-247" x1="178.975" x2="411.99" y1="5.688" y2="102.389" xlink:href="#linear-gradient-7"/><linearGradient id="linear-gradient-248" x1="274.935" x2="285.517" y1="47.585" y2="47.585" xlink:href="#linear-gradient-10"/><linearGradient id="linear-gradient-251" x1="176.749" x2="409.765" y1="11.05" y2="107.751" xlink:href="#linear-gradient-7"/><linearGradient id="linear-gradient-252" x1="264.258" x2="266.393" y1="48.152" y2="48.152" xlink:href="#linear-gradient-10"/><linearGradient id="linear-gradient-255" x1="177.678" x2="410.693" y1="8.813" y2="105.515" xlink:href="#linear-gradient-7"/><linearGradient id="linear-gradient-256" x1="259.618" x2="274.066" y1="45.105" y2="45.105" xlink:href="#linear-gradient-10"/></defs><path d="M30.511 535.679h26.75v7.025H38.24v7.478h16.762v7.026H38.24v13.6h-7.73zm32.269-1.506h8.03v6.775h-8.03zm.2 9.736h7.629v26.9H62.98zm15.156-9.736h7.628v36.636h-7.628zm13.5 23.336v-.1c0-7.678 5.47-14.002 13.299-14.002 8.983 0 13.099 6.976 13.099 14.604 0 .602-.05 1.306-.1 2.008h-18.72a6.239 6.239 0 0 0 6.574 5.27 8.816 8.816 0 0 0 6.524-2.76l4.367 3.864a13.455 13.455 0 0 1-10.991 5.018c-8.08 0-14.052-5.67-14.052-13.902zm18.97-2.258c-.452-3.413-2.46-5.721-5.671-5.721-3.162 0-5.22 2.258-5.822 5.721zm13.901-19.572h8.33l9.235 14.854 9.234-14.854h8.33v35.13h-7.678v-22.936l-9.886 15.006h-.2l-9.787-14.854v22.784h-7.578zm41.453 21.83v-.1c0-7.678 5.47-14.002 13.3-14.002 8.983 0 13.098 6.976 13.098 14.604 0 .602-.05 1.306-.1 2.008h-18.72a6.239 6.239 0 0 0 6.574 5.27 8.816 8.816 0 0 0 6.525-2.76l4.366 3.864a13.455 13.455 0 0 1-10.99 5.018c-8.08 0-14.053-5.67-14.053-13.902zm18.97-2.258c-.452-3.413-2.459-5.721-5.67-5.721-3.162 0-5.22 2.258-5.823 5.721zm14.353 7.929v-12.747h-3.212v-6.524h3.212v-6.876h7.628v6.876h6.324v6.524h-6.324v11.493c0 1.757.753 2.61 2.46 2.61a7.764 7.764 0 0 0 3.763-.954v6.122a11.241 11.241 0 0 1-6.022 1.557c-4.667 0-7.829-1.857-7.829-8.08zm17.966-.1v-.1c0-5.872 4.467-8.582 10.84-8.582a19.114 19.114 0 0 1 6.575 1.104v-.452c0-3.161-1.957-4.918-5.772-4.918a19.786 19.786 0 0 0-7.427 1.455l-1.907-5.821a23.735 23.735 0 0 1 10.439-2.158c4.165 0 7.176 1.104 9.083 3.011 2.007 2.007 2.91 4.968 2.91 8.582v15.608h-7.377v-2.911a10.342 10.342 0 0 1-8.13 3.413c-5.068 0-9.234-2.911-9.234-8.23zm17.515-1.757v-1.354a11.825 11.825 0 0 0-4.868-1.004c-3.262 0-5.27 1.305-5.27 3.714v.1c0 2.058 1.707 3.262 4.166 3.262 3.563 0 5.972-1.957 5.972-4.718zm28.103-7.979v-.1a17.855 17.855 0 0 1 17.533-18.17q.392-.008.785.002c6.625 0 10.59 2.208 13.851 5.42l-4.918 5.671c-2.71-2.459-5.47-3.965-8.983-3.965-5.922 0-10.188 4.92-10.188 10.94v.101c0 6.023 4.165 11.041 10.188 11.041 4.014 0 6.473-1.605 9.234-4.115l4.918 4.969a17.957 17.957 0 0 1-14.403 6.273 17.732 17.732 0 0 1-18.018-17.442q-.005-.312.001-.625zm37.79-19.171h7.628v13.55c1.757-2.258 4.015-4.316 7.879-4.316 5.772 0 9.134 3.814 9.134 9.987v17.415h-7.628v-15.006c0-3.613-1.706-5.47-4.617-5.47s-4.768 1.857-4.768 5.47v15.006h-7.628zm29.959 23.336v-.1c0-7.678 5.47-14.002 13.3-14.002 8.983 0 13.099 6.976 13.099 14.604 0 .602-.051 1.306-.101 2.008h-18.72a6.24 6.24 0 0 0 6.575 5.27 8.815 8.815 0 0 0 6.524-2.76l4.366 3.864a13.452 13.452 0 0 1-10.99 5.018c-8.08 0-14.053-5.67-14.053-13.902zm18.97-2.258c-.45-3.413-2.458-5.721-5.67-5.721-3.162 0-5.22 2.258-5.821 5.721zm11.794 2.258v-.1a13.81 13.81 0 0 1 13.615-14.003q.244-.004.487.001c5.07 0 8.23 1.706 10.74 4.517l-4.667 5.019c-1.706-1.807-3.412-2.961-6.122-2.961-3.815 0-6.525 3.362-6.525 7.327v.1c0 4.116 2.66 7.428 6.825 7.428 2.56 0 4.317-1.104 6.173-2.861l4.467 4.516a13.545 13.545 0 0 1-10.991 4.92 13.736 13.736 0 0 1-14-13.467q-.005-.218-.002-.436zm29.962-23.336h7.628v19.523l8.932-9.787h9.135L406.8 554.5l10.589 16.31h-8.733l-7.025-10.991-2.66 2.81v8.18h-7.628zm27.149 23.336v-.1c0-7.678 5.47-14.002 13.3-14.002 8.983 0 13.099 6.976 13.099 14.604 0 .602-.051 1.306-.101 2.008h-18.72a6.24 6.24 0 0 0 6.575 5.27 8.815 8.815 0 0 0 6.524-2.76l4.366 3.864a13.452 13.452 0 0 1-10.99 5.018c-8.08 0-14.053-5.67-14.053-13.902zm18.97-2.258c-.45-3.413-2.458-5.721-5.67-5.721-3.162 0-5.22 2.258-5.821 5.721zm13.099-11.341h7.628v5.42c1.556-3.715 4.066-6.124 8.582-5.923v7.98h-.4c-5.07 0-8.182 3.062-8.182 9.485v9.937h-7.627z"/><path fill="#dbc63d" d="M152.565 305.439l.031-3.111c2.805-7.512-1.631-14.814 1.96-23.475 8.763-21.133 24.028-28.817 45.003-29.539 3.675-1.802 7.4-2.87 11.29-.615 4.145 8.147-.884 14.56-4.46 20.918-4.206 7.475-8.582 14.786-10.566 23.223a16.344 16.344 0 0 1-2.028 3.891c-7.329 3.987-8.302 12.466-12.907 18.393-7.445-.636-14.862-1.904-22.4-1.16-4.592-1.027-4.84-5.065-5.923-8.525z"/><path fill="#851615" d="M146.003 349.007l-6.92-.312 13.48-43.254q2.848 3.353 5.694 6.712c3.318 8.72-1.382 16.308-3.378 24.288-2.158 4.748-2.862 10.544-8.876 12.566z"/><path fill="#e9c561" d="M347.29 293.494c-8.623.842-4.556 7.558-5.53 11.942-2.242 11.637-6.117 12.527-16.33 3.752 6.625-2.926 14.558-3.924 13.662-14.738-.412-4.976 4.989-5.088 9.192-4.05q-.495 1.547-.994 3.094z"/><path fill="#dec942" d="M288.46 299.621l-2.74-6.458c11.327.05 18.304-14.37 31.123-9.36-1.173 3.803 2.807 11.609-3.879 10.753-9.288-1.19-13.462 19.081-24.505 5.065z"/><path fill="#d9c53a" d="M332.32 268.295c.888 5.24 10.359 10.654-.32 15.66-.858-2.346-1.018-5.582-2.688-6.889-8.09-6.33-3.191-7.653 3.008-8.771z"/><path fill="#dfcb45" d="M329.202 283.848c-4.1 10.422-8.337 1.044-12.516.086 4.074-14.155 8.33-2.147 12.516-.086z"/><path fill="#8c0302" d="M279.668 334.392c-9.778 14.358-26.215 13.487-40.435 17.68q-4.783-12.492-9.568-24.983c5.03-4.246 5.056 3.748 8.467 3.463 5.991 4.037 11.278 5.254 16.777-1.504 4.842-5.949 10.447-5.155 15.083 1.036z"/><path fill="#ead055" d="M269.992 330.084c-5.267-2.832-10.402-4.596-14.7 1.603-6.335 9.134-11.952 7.02-17.159-1.134 6.576 1.335 12.788 1.8 17.11-5.002 3.216-5.06 7.673-3.52 12.014-1.622q1.368 3.076 2.735 6.155z"/><path fill="#e9cd5e" d="M316.446 311.71c-1.505 11.55-5.953 18.27-18.512 10.932-5.06-2.956-8.497-.123-12.062 2.765-.513-6.411 1.693-11.267 8.61-7.677 9.832 5.104 16.003.895 21.964-6.02z"/><path fill="#deca42" d="M273.254 299.493c4.144-6.019 8.38-1.675 12.591-.11-.114 3.913.692 9.175-4.047 10.074-7.232 1.372-3.657-8.262-8.544-9.964z"/><path fill="#e7d351" d="M270.34 312.136c-3.739-4.185-5.966-8.862-3.824-14.448.106-.275 4.486 1.089 6.877 1.69-.205 4.447 1.444 9.338-3.053 12.758z"/><path fill="#a70100" d="M205.53 321.045c4.199 6.676 6.924 16.11 18.123 9.678q3.01 9.111 6.022 18.217c-1.77 2.008-4.076 3.618-6.617 3.538-24.609-.775-48.937-2.965-70.832-15.894q3.018-12.216 6.033-24.432c7.945-2.976 15.98-6.422 21.413 4.016 5.348 3.793 10.685 4.951 16.97 1.588 3.311-1.771 8.022-3.395 8.888 3.289z"/><path fill="#d2bd2e" d="M205.53 321.045c-4.716-6.597-7.684-.026-10.834 1.766-8.349 4.749-14.069 4.765-15.024-6.644 2.655-7.601-1.125-19.324 12.673-19.793 4.184 2.167 8.51 4.042 12.733 6.128l-.089-.06c2.887 4.864 15.286-3.21 12.585 9.253-5.47 1.242-5.635 9.317-12.044 9.35z"/><path fill="#f0dd60" d="M205.078 302.502c-7.035 3.754-11.63 2.445-12.73-6.129q.13-1.643.267-3.29c10.814-5.671 12.314.98 12.463 9.42z"/><path fill="#8f0000" d="M236.107 367.607c-10.713 7.234-21.704 2.458-32.124-.16-19.369-4.868-40.423-3.545-57.95-15.326l-.03-3.114 6.224-12.423c25.854 3.881 50.722 13.952 77.45 12.357q3.213 9.332 6.43 18.666z"/><path d="M217.574 311.695c-.273-3.969-2.108-4.78-5.906-3.66-4.472 1.318-6.31-1.494-6.679-5.592 3.336-9.986 12.003-6.156 17.157-4.575 7.23 2.218 4.28 8.77 1.418 13.844q-2.996-.01-5.99-.017z" class="cls-16"/><path fill="#e8d453" d="M253.006 297.03c10.72 6.998 11.274 11.26 2.592 17.038-.83-5.463-1.461-9.606-2.592-17.038z"/><path d="M243.383 313.457c-1.308-4.947-2.365-9.194.863-12.324 1.802-1.747 3.557.674 4.58 2.423 2.905 4.97-.06 7.348-5.443 9.9z" class="cls-16"/><path fill="url(#linear-gradient)" stroke="url(#linear-gradient-2)" stroke-miterlimit="10" stroke-width="7" d="M160.778 256.714L89.609 451.992s-2.183 4.252-.72 5.79c1.375 1.446 5.44-.167 5.44-.167l76.654-23.643 41.399 55.725s2.233 2.359 3.89 2.104c1.767-.271 2.455-3.476 2.455-3.476l67.508-194.363z"/><path fill="url(#linear-gradient-3)" stroke="url(#linear-gradient-4)" stroke-miterlimit="10" stroke-width="7" d="M330.397 238.872l77.42 194.121s1.758 3.265.534 4.632c-1.115 1.245-4.257.41-4.257.41l-78.58-21.679-39.279 56.326s-2.415 2.628-4.265 2.4c-1.677-.206-2.409-2.6-2.409-2.6l-73.448-192.615z"/><path fill="url(#linear-gradient-5)" stroke="#efe925" stroke-miterlimit="10" stroke-width="2" d="M92.788 121.948l.044-.015v-.019z"/><path fill="url(#linear-gradient-6)" stroke="#efe925" stroke-miterlimit="10" stroke-width="2" d="M398.565 173.96c1.836-1.772 3.593-3.627 5.383-5.447l.038-.038c2.367-3.987 6.744-6.353 8.643-10.718-5.396-3.844-10.746-7.753-16.209-11.5-1.986-1.361-1.712-2.622-.659-4.373 3.418-5.687 6.732-11.436 10.085-17.161l-6.587-3.474-11.085-4.939c-2.498-.414-3.588-1.536-2.419-4.18 1.03-2.327 1.808-4.764 2.698-7.152l3.618-11.073c-1.502-2.472-4.486-1.328-6.46-2.648l-10.89-2.292c-2.123-.817-6.482.72-4.574-4.344.074-1.338.184-2.675.218-4.015.134-5.32 2.078-10.51 1.16-15.907a49.692 49.692 0 0 1-10.015-.05l-3.764-.067a.639.639 0 0 1-1.069.015l.001.001a16.885 16.885 0 0 1-6.583-.033c-2.088-.274-1.44-2.025-1.58-3.19-.453-3.765-.715-7.55-1.08-11.325-.778-8.052-.786-8.05-8.865-6.753-.398.064-.808.055-1.213.08a28.175 28.175 0 0 1-8.09 1.633c-5.211 1.833-5.225 1.837-6.894-3.571-.48-1.555-.856-3.142-1.279-4.714l-.253-.193.105-.266-.595-1.796-3.456-10.182-1.477.145-1.962 1.028-10.222 4.56c-.347.207-.678.443-1.041.613-7.032 3.297-7.032 3.296-10.19-4.04a2.43 2.43 0 0 1-1.05-1.974 31.697 31.697 0 0 1-4.745-8.195c-2.102-4.857-4.36-.938-6.562-.117l.02-.025a2.862 2.862 0 0 1-2.225 1.35l.098.01a28.166 28.166 0 0 1-7.115 5.297c-4.835 4.268-4.845 4.277-8.933-.37-.98-1.114-1.87-2.307-2.801-3.463l-1.17-1.451a33.544 33.544 0 0 1-3.903-4.118c-2.265-3.339-4.487-4.378-7.216-.577-2.556 2.922-5.067 5.886-7.679 8.758-4.754 5.227-4.779 5.204-10.252.37a9.766 9.766 0 0 1-3.69-2.747 59.105 59.105 0 0 1-6.576-4.665c-2.085-1.922-3.204-.958-4.418.764-1.353 2.496-2.674 5.011-4.065 7.486-6.069 10.796-6.076 10.792-17.06 4.665l-2.441-1.084c-1.847-.795-3.75-1.485-5.522-2.42a1.837 1.837 0 0 0-2.725.612 2.496 2.496 0 0 1-.64 2.133 46.559 46.559 0 0 1-3.822 11.023c-.402 1.4-.71 2.835-1.231 4.189-.551 1.435-.97 3.202-3.218 2.649a75.538 75.538 0 0 1-11.766-2.706 17.983 17.983 0 0 1-5.88-1.261c-1.98-.411-2.835.34-2.981 2.412-.188 2.66-.697 5.295-1.067 7.941-.079 1.33-.111 2.666-.243 3.99-.87 8.726-.877 8.725-9.911 8.131-3.322.089-6.648.433-9.96-.153-1.39.481-3.176-.5-4.25 1.15l1.076 11.383c.33 2.672.56 5.361 1.02 8.01.39 2.247-.58 3.269-2.637 3.623q-7.752 1.335-15.502 2.679c-6.487.434-2.678 4.595-2.672 7.38 1.147 4.29 3.405 8.225 4.064 12.672 1.453 2.161 1.227 3.612-1.534 4.458-2.43.745-4.75 1.844-7.12 2.786a55.145 55.145 0 0 1-10.867 4.744l-.054 1.71a45.827 45.827 0 0 1 5.111 9.135c2.174 2.379 3.169 5.478 4.947 8.093 1.28 1.883.245 2.587-1.384 3.094a12.492 12.492 0 0 1-6.158 3.985c-2.52 3.575-6.686 4.998-9.944 7.607a.714.714 0 0 1-.18.697l.258.818a69.465 69.465 0 0 1 8.702 9.642 34.513 34.513 0 0 0 2.837 2.886c3.477 2.82 3.261 5.357-.43 7.74a62.186 62.186 0 0 1-8.222 8.97 9.652 9.652 0 0 1-3.662 3.67c.99 2.203 4.145 2.4 4.67 5.034 2.538.454 3.774 2.9 5.96 3.892 2.65.81 4.388 3.026 6.703 4.354 1.43.819 1.22 1.86.381 3.013-.867 1.193-1.672 2.43-2.504 3.65l-8.003 13.91.17.81.035.035 11.309 5.243 1.697.744c9.561 4.085 8.299 1.583 4.569 12.132-1.228 3.82-2.29 7.705-3.751 11.433-.81 2.065-.273 2.642 1.67 2.669 3.255-.157 6.275.923 9.337 1.781 2.534.483 5.102.837 7.587 1.504 1.21.325 3.29-.4 3.307 2.01a48.567 48.567 0 0 1-1.273 10.836l-1.013 10.008c1.186 1.636 3.088.614 4.549 1.227l11.449-.024c8.414.102 7.269-2.15 7.875 7.94a64.422 64.422 0 0 1 1.141 11.335c.555 1.22.093 2.791 1.305 3.785 6.363-1.385 12.739-2.714 19.081-4.186 2.188-.508 3.203.197 3.817 2.304 1.446 4.954 3.397 9.783 4.527 14.8.966 4.293 2.73 4.316 6.12 2.584 4.468-2.285 9.23-3.99 13.74-6.204 2.22-1.09 3.345-.72 4.49 1.427 2.619 4.914 5.577 9.65 8.148 14.588 1.227 2.357 2.156 2.907 4.45 1.108 4.383-3.435 9.068-6.481 13.502-9.854 1.875-1.427 3.12-1.592 4.672.436 2.305 3.012 4.876 5.822 7.334 8.717a3.63 3.63 0 0 1 .357.199c2.273 1.61 3.32 5.762 6.065 5.27 2.137-.384 3.76-3.661 5.598-5.665 2.486-2.712 5.083-5.335 7.397-8.187 1.694-2.087 2.989-1.996 5.012-.385 4.261 3.39 8.856 6.364 13.088 9.787 2.447 1.979 3.518 1.25 4.816-1.155 2.523-4.673 5.419-9.147 7.892-13.844 1.333-2.532 2.74-2.772 5.164-1.58 5.01 2.465 10.169 4.624 15.203 7.04 1.955.937 2.865.616 3.526-1.52 1.73-5.595 3.744-11.102 5.457-16.701.67-2.196 1.642-2.67 3.85-2.109 5.275 1.343 10.649 2.293 15.928 3.621 2.774.698 4.145.595 4.265-2.923.177-5.156 1.118-10.281 1.56-15.434.231-2.686.958-4.192 4.135-4.02 6.241.335 12.503.302 18.757.424 1.151-1.333.543-2.839.404-4.289-.506-5.271-.96-10.549-1.582-15.806-.263-2.227.013-3.573 2.678-3.826 2.956-.282 5.87-1.006 8.801-1.537 2.235-1.097 4.703-1.247 7.093-1.593 2.918-.422 3.956-1.49 2.838-4.548-1.854-5.073-3.253-10.311-5.077-15.396-.79-2.201-.628-3.468 1.73-4.343 4.172-1.55 8.272-3.295 12.402-4.959l-.01.063.926-.597c1.242-1.854 6.827-.517 3.96-5.39a63.902 63.902 0 0 1-5.741-10.1c-4.891-8.397-6.23-6.144 2.867-12.036a14.672 14.672 0 0 1 5.376-3.854c1.417-2.416 5.623-2.344 5.483-6.148-4.435-4.82-8.85-9.659-13.321-14.445-1.026-1.099-1.176-1.974-.036-3.074z"/><path fill="url(#linear-gradient-7)" stroke="url(#linear-gradient-8)" stroke-miterlimit="10" stroke-width="2" d="M258.702 104.563h38.15l-10.403 40.792 23.232-40.792h37.051l-39.081 63.412 15.575 76.763h-36.712l-9.108-55.625-9.193 57.566h-38.065l28.554-142.116z"/><path fill="url(#linear-gradient-9)" stroke="url(#linear-gradient-10)" stroke-miterlimit="10" stroke-width="2" d="M236.358 174.9c-11.725 63.947-25.833 75.517-51.668 75.517-27.484 0-43.606-13.97-31.515-81.407 10.81-60.454 28.215-71.37 51.119-71.37 26.384 0 43.606 14.842 32.064 77.26zm-51.239-1.782c-9.542 47.494-7.977 51.764 2.445 49.962 9.623-1.663 7.736-6.434 16.706-52.468 8.91-43.98 8.282-48.224-1.74-46.492-8.822 1.525-8.71 6.187-17.41 48.998z"/><g stroke-miterlimit="10" opacity=".39"><path fill="url(#linear-gradient-11)" stroke="url(#linear-gradient-12)" d="M197.072 305.383a42.453 42.453 0 0 1 6.688-.251 135.624 135.624 0 0 1-4.875-1.715 22.398 22.398 0 0 0-1.813 1.966z"/><path fill="url(#linear-gradient-13)" stroke="url(#linear-gradient-14)" d="M218.84 41.836c.618-.13 1.236-.263 1.858-.384a4.727 4.727 0 0 0-1.859.384z"/><path fill="url(#linear-gradient-15)" stroke="url(#linear-gradient-16)" d="M234.11 311.605c.07-.033.144-.062.214-.095l-.165-.016c-.015.038-.034.073-.049.111z"/><path fill="url(#linear-gradient-17)" stroke="url(#linear-gradient-18)" d="M216.89 310.013c1.148-.162 2.23-.35 3.274-.55-.877-.174-1.752-.353-2.623-.544-.223.355-.443.714-.651 1.094z"/><path fill="url(#linear-gradient-19)" stroke="url(#linear-gradient-20)" d="M247.184 38.951c.932.003 1.867.019 2.803.04a4.56 4.56 0 0 0-2.803-.04z"/><path fill="url(#linear-gradient-21)" stroke="url(#linear-gradient-22)" d="M271.456 297.842q-4.033.79-8.151 1.31a10.488 10.488 0 0 0 1.122 5.077c.968 2.04 5.59 4.02 10.2 5.048q3.447-.712 6.832-1.598a34.789 34.789 0 0 0-7.771-5.384c-2.41-1.286-3.639-2.494-2.232-4.453z"/><path fill="url(#linear-gradient-21)" stroke="url(#linear-gradient-22)" d="M271.456 297.842q-4.033.79-8.151 1.31a10.488 10.488 0 0 0 1.122 5.077c.968 2.04 5.59 4.02 10.2 5.048q3.447-.712 6.832-1.598a34.789 34.789 0 0 0-7.771-5.384c-2.41-1.286-3.639-2.494-2.232-4.453z" opacity=".34"/><path fill="url(#linear-gradient-25)" stroke="url(#linear-gradient-26)" d="M217.167 298.927a11.396 11.396 0 0 0 .607-2.196q-3.69-.879-7.285-1.975c.93 1.821-.313 2.761-2.988 3.58a21.044 21.044 0 0 0-8.616 5.08c1.609.604 3.236 1.172 4.875 1.716 5.567.052 11.064-.073 13.407-6.205z"/><path fill="url(#linear-gradient-27)" stroke="url(#linear-gradient-28)" d="M201.555 294.776a8.86 8.86 0 0 0 .643-2.846q-3.678-1.402-7.239-3.026c1.624 3.232-.483 4.202-4.346 5.077a20.124 20.124 0 0 0-6.644 2.788q3.204 1.665 6.51 3.162c5.995-.185 9.762-1.955 11.076-5.155z"/><path fill="url(#linear-gradient-27)" stroke="url(#linear-gradient-28)" d="M201.555 294.776a8.86 8.86 0 0 0 .643-2.846q-3.678-1.402-7.239-3.026c1.624 3.232-.483 4.202-4.346 5.077a20.124 20.124 0 0 0-6.644 2.788q3.204 1.665 6.51 3.162c5.995-.185 9.762-1.955 11.076-5.155z" opacity=".34"/><path fill="url(#linear-gradient-31)" stroke="url(#linear-gradient-32)" d="M287.37 294.152c.22-.242.418-.497.622-.75q-4.3 1.475-8.73 2.642c-.47 3.458 1.512 6.7 5.507 8.259a28.29 28.29 0 0 0 4.068 1.228q3.688-1.191 7.287-2.583a34.169 34.169 0 0 0-7.57-4.04c-2.574-.987-3.558-2.157-1.185-4.756z"/><path fill="url(#linear-gradient-31)" stroke="url(#linear-gradient-32)" d="M287.37 294.152c.22-.242.418-.497.622-.75q-4.3 1.475-8.73 2.642c-.47 3.458 1.512 6.7 5.507 8.259a28.29 28.29 0 0 0 4.068 1.228q3.688-1.191 7.287-2.583a34.169 34.169 0 0 0-7.57-4.04c-2.574-.987-3.558-2.157-1.185-4.756z" opacity=".34"/><path fill="url(#linear-gradient-35)" stroke="url(#linear-gradient-36)" d="M301.983 288.57a12.773 12.773 0 0 0 .698-1.266q-4.14 2.036-8.442 3.771c-.75 4.265 1.697 8.017 6.475 9.049a35.09 35.09 0 0 0 1.513.29q3.779-1.678 7.436-3.58a24.245 24.245 0 0 0-4.91-1.943c-3.805-1.09-5.164-2.555-2.77-6.321z"/><path fill="url(#linear-gradient-35)" stroke="url(#linear-gradient-36)" d="M301.983 288.57a12.773 12.773 0 0 0 .698-1.266q-4.14 2.036-8.442 3.771c-.75 4.265 1.697 8.017 6.475 9.049a35.09 35.09 0 0 0 1.513.29q3.779-1.678 7.436-3.58a24.245 24.245 0 0 0-4.91-1.943c-3.805-1.09-5.164-2.555-2.77-6.321z" opacity=".34"/><path fill="url(#linear-gradient-39)" stroke="url(#linear-gradient-40)" d="M314.415 283.626a17.387 17.387 0 0 0 1.248-3.691q-3.867 2.508-7.92 4.734a8.596 8.596 0 0 0 1.167 6.071 8.09 8.09 0 0 0 5.43 3.553q3.803-2.164 7.455-4.559a34.008 34.008 0 0 0-4.605-1.079c-3.068-.53-4.242-1.843-2.775-5.03z"/><path fill="url(#linear-gradient-39)" stroke="url(#linear-gradient-40)" d="M314.415 283.626a17.387 17.387 0 0 0 1.248-3.691q-3.867 2.508-7.92 4.734a8.596 8.596 0 0 0 1.167 6.071 8.09 8.09 0 0 0 5.43 3.553q3.803-2.164 7.455-4.559a34.008 34.008 0 0 0-4.605-1.079c-3.068-.53-4.242-1.843-2.775-5.03z" opacity=".34"/><path fill="url(#linear-gradient-43)" stroke="url(#linear-gradient-44)" d="M174.332 281.844a7.247 7.247 0 0 0 1.336-3.856q-3.622-2.496-7.051-5.234.13.548.304 1.081c1.662 5.063-.525 5.951-4.898 6.047a16.047 16.047 0 0 0-4.464.643q3.373 2.81 6.926 5.41a8.909 8.909 0 0 0 7.847-4.09z"/><path fill="url(#linear-gradient-43)" stroke="url(#linear-gradient-44)" d="M174.332 281.844a7.247 7.247 0 0 0 1.336-3.856q-3.622-2.496-7.051-5.234.13.548.304 1.081c1.662 5.063-.525 5.951-4.898 6.047a16.047 16.047 0 0 0-4.464.643q3.373 2.81 6.926 5.41a8.909 8.909 0 0 0 7.847-4.09z" opacity=".34"/><path fill="url(#linear-gradient-47)" stroke="url(#linear-gradient-48)" d="M162.863 273.387a9.098 9.098 0 0 0 1.427-4.246q-3.183-2.779-6.17-5.762a18.175 18.175 0 0 0 .152 2.764c.557 4.158-1.516 4.625-4.945 4.668a21.114 21.114 0 0 0-3.821.457q2.88 2.932 5.939 5.686a8.295 8.295 0 0 0 7.418-3.567z"/><path fill="url(#linear-gradient-47)" stroke="url(#linear-gradient-48)" d="M162.863 273.387a9.098 9.098 0 0 0 1.427-4.246q-3.183-2.779-6.17-5.762a18.175 18.175 0 0 0 .152 2.764c.557 4.158-1.516 4.625-4.945 4.668a21.114 21.114 0 0 0-3.821.457q2.88 2.932 5.939 5.686a8.295 8.295 0 0 0 7.418-3.567z" opacity=".34"/><path fill="url(#linear-gradient-51)" stroke="url(#linear-gradient-52)" d="M325.286 273.034q-2.596 2.052-5.298 3.967a8.507 8.507 0 0 0 1.967 7.646 7.568 7.568 0 0 0 4.155 2.125q3.168-2.258 6.204-4.686c-4.198-1.564-6.954-4.248-7.028-9.052z"/><path fill="url(#linear-gradient-51)" stroke="url(#linear-gradient-52)" d="M325.286 273.034q-2.596 2.052-5.298 3.967a8.507 8.507 0 0 0 1.967 7.646 7.568 7.568 0 0 0 4.155 2.125q3.168-2.258 6.204-4.686c-4.198-1.564-6.954-4.248-7.028-9.052z" opacity=".34"/><path fill="url(#linear-gradient-55)" stroke="url(#linear-gradient-56)" d="M154.558 259.685q-2.828-3.06-5.454-6.298a9.783 9.783 0 0 0-.08 2.195c.42 5.288-2.053 6.188-6.612 5.469a22.462 22.462 0 0 0-2.181-.24q2.62 3.276 5.44 6.383a7.734 7.734 0 0 0 5.56-1.531 8.97 8.97 0 0 0 3.327-5.978z"/><path fill="url(#linear-gradient-55)" stroke="url(#linear-gradient-56)" d="M154.558 259.685q-2.828-3.06-5.454-6.298a9.783 9.783 0 0 0-.08 2.195c.42 5.288-2.053 6.188-6.612 5.469a22.462 22.462 0 0 0-2.181-.24q2.62 3.276 5.44 6.383a7.734 7.734 0 0 0 5.56-1.531 8.97 8.97 0 0 0 3.327-5.978z" opacity=".34"/><path fill="url(#linear-gradient-59)" stroke="url(#linear-gradient-60)" d="M345.788 258.201a15.07 15.07 0 0 0-.59-4.834q-2.463 3.04-5.107 5.917a8.339 8.339 0 0 0 4.045 8.259 9.274 9.274 0 0 0 2.556 1.218q2.725-2.914 5.278-5.989a12.38 12.38 0 0 0-1.02.165c-4.386.914-5.191-.807-5.162-4.736z"/><path fill="url(#linear-gradient-59)" stroke="url(#linear-gradient-60)" d="M345.788 258.201a15.07 15.07 0 0 0-.59-4.834q-2.463 3.04-5.107 5.917a8.339 8.339 0 0 0 4.045 8.259 9.274 9.274 0 0 0 2.556 1.218q2.725-2.914 5.278-5.989a12.38 12.38 0 0 0-1.02.165c-4.386.914-5.191-.807-5.162-4.736z" opacity=".34"/><path fill="url(#linear-gradient-63)" stroke="url(#linear-gradient-64)" d="M336.222 263.315q-2.678 2.672-5.507 5.185a8.778 8.778 0 0 0 2.669 7.941 7.326 7.326 0 0 0 3.442 1.858q2.864-2.506 5.592-5.163c-4.705-.652-7.447-3.182-6.196-9.82z"/><path fill="url(#linear-gradient-63)" stroke="url(#linear-gradient-64)" d="M336.222 263.315q-2.678 2.672-5.507 5.185a8.778 8.778 0 0 0 2.669 7.941 7.326 7.326 0 0 0 3.442 1.858q2.864-2.506 5.592-5.163c-4.705-.652-7.447-3.182-6.196-9.82z" opacity=".34"/><path fill="url(#linear-gradient-67)" stroke="url(#linear-gradient-68)" d="M352.644 243.179q-1.98 3.015-4.13 5.9c.075 3.93 1.684 6.998 4.777 8.776a5.796 5.796 0 0 0 2.075.676q3.115-4.063 5.928-8.366a26.358 26.358 0 0 1-8.65-6.986z"/><path fill="url(#linear-gradient-67)" stroke="url(#linear-gradient-68)" d="M352.644 243.179q-1.98 3.015-4.13 5.9c.075 3.93 1.684 6.998 4.777 8.776a5.796 5.796 0 0 0 2.075.676q3.115-4.063 5.928-8.366a26.358 26.358 0 0 1-8.65-6.986z" opacity=".34"/><path fill="url(#linear-gradient-71)" stroke="url(#linear-gradient-72)" d="M146.084 249.492q-2.401-3.214-4.6-6.578a13.846 13.846 0 0 0-.657 3.79c-.15 4.142-1.787 4.61-5.42 3.573a19.621 19.621 0 0 0-3.24-.66q2.304 3.562 4.82 6.973a9.319 9.319 0 0 0 4.632-.972 7.92 7.92 0 0 0 4.465-6.126z"/><path fill="url(#linear-gradient-71)" stroke="url(#linear-gradient-72)" d="M146.084 249.492q-2.401-3.214-4.6-6.578a13.846 13.846 0 0 0-.657 3.79c-.15 4.142-1.787 4.61-5.42 3.573a19.621 19.621 0 0 0-3.24-.66q2.304 3.562 4.82 6.973a9.319 9.319 0 0 0 4.632-.972 7.92 7.92 0 0 0 4.465-6.126z" opacity=".34"/><path fill="url(#linear-gradient-75)" stroke="url(#linear-gradient-76)" d="M363.003 241.33c-2.96-1.042-2.543-5.521-4.152-8.695q-1.528 2.911-3.204 5.726c.317 4.432 2.123 7.109 5.537 8.526a5.969 5.969 0 0 0 1.93.415q1.8-2.909 3.456-5.915a6.632 6.632 0 0 1-3.567-.056z"/><path fill="url(#linear-gradient-75)" stroke="url(#linear-gradient-76)" d="M363.003 241.33c-2.96-1.042-2.543-5.521-4.152-8.695q-1.528 2.911-3.204 5.726c.317 4.432 2.123 7.109 5.537 8.526a5.969 5.969 0 0 0 1.93.415q1.8-2.909 3.456-5.915a6.632 6.632 0 0 1-3.567-.056z" opacity=".34"/><path fill="url(#linear-gradient-79)" stroke="url(#linear-gradient-80)" d="M134.786 244.214a9.739 9.739 0 0 0 4.099-5.454q-1.984-3.313-3.763-6.753a14.768 14.768 0 0 0-.852 2.791c-.844 4.061-2.274 5.555-6.655 3.776a25.425 25.425 0 0 0-2.305-.82q1.933 3.768 4.083 7.406a7.18 7.18 0 0 0 5.393-.946z"/><path fill="url(#linear-gradient-79)" stroke="url(#linear-gradient-80)" d="M134.786 244.214a9.739 9.739 0 0 0 4.099-5.454q-1.984-3.313-3.763-6.753a14.768 14.768 0 0 0-.852 2.791c-.844 4.061-2.274 5.555-6.655 3.776a25.425 25.425 0 0 0-2.305-.82q1.933 3.768 4.083 7.406a7.18 7.18 0 0 0 5.393-.946z" opacity=".34"/><path fill="url(#linear-gradient-83)" stroke="url(#linear-gradient-84)" d="M122.692 220.377a8.36 8.36 0 0 0 5.48-4.403q-1.241-3.521-2.27-7.133a15.255 15.255 0 0 0-2.19 3.626c-1.342 3.143-2.87 3.277-5.563 1.49a17.052 17.052 0 0 0-2.77-1.499q1.126 4.007 2.487 7.916a7.58 7.58 0 0 0 4.826.003z"/><path fill="url(#linear-gradient-83)" stroke="url(#linear-gradient-84)" d="M122.692 220.377a8.36 8.36 0 0 0 5.48-4.403q-1.241-3.521-2.27-7.133a15.255 15.255 0 0 0-2.19 3.626c-1.342 3.143-2.87 3.277-5.563 1.49a17.052 17.052 0 0 0-2.77-1.499q1.126 4.007 2.487 7.916a7.58 7.58 0 0 0 4.826.003z" opacity=".34"/><path fill="url(#linear-gradient-87)" stroke="url(#linear-gradient-88)" d="M118.503 207.834a7.622 7.622 0 0 0 6.065-4.024q-.864-3.57-1.52-7.213a18.836 18.836 0 0 0-1.885 2.65c-1.928 3.19-3.766 3.73-6.76 1.317a17.659 17.659 0 0 0-2.05-1.43q.7 4.006 1.634 7.933a8.535 8.535 0 0 0 4.516.767z"/><path fill="url(#linear-gradient-87)" stroke="url(#linear-gradient-88)" d="M118.503 207.834a7.622 7.622 0 0 0 6.065-4.024q-.864-3.57-1.52-7.213a18.836 18.836 0 0 0-1.885 2.65c-1.928 3.19-3.766 3.73-6.76 1.317a17.659 17.659 0 0 0-2.05-1.43q.7 4.006 1.634 7.933a8.535 8.535 0 0 0 4.516.767z" opacity=".34"/><path fill="url(#linear-gradient-91)" stroke="url(#linear-gradient-92)" d="M127.83 232.757a8.418 8.418 0 0 0 5.056-5.266q-1.684-3.594-3.138-7.309a25.156 25.156 0 0 1-10.459 4.11q1.675 4.375 3.644 8.604a7.705 7.705 0 0 0 4.896-.139z"/><path fill="url(#linear-gradient-91)" stroke="url(#linear-gradient-92)" d="M127.83 232.757a8.418 8.418 0 0 0 5.056-5.266q-1.684-3.594-3.138-7.309a25.156 25.156 0 0 1-10.459 4.11q1.675 4.375 3.644 8.604a7.705 7.705 0 0 0 4.896-.139z" opacity=".34"/><path fill="url(#linear-gradient-95)" stroke="url(#linear-gradient-96)" d="M366.5 226.205a11.507 11.507 0 0 0-2.439-4.82q-1.201 2.972-2.547 5.864c.707 4.475 2.603 6.949 6.025 7.815a10.1 10.1 0 0 0 2.152.308q1.605-3.29 3.035-6.68c-.048.024-.099.043-.146.067-3.305 1.61-5.099 1.416-6.08-2.554z"/><path fill="url(#linear-gradient-95)" stroke="url(#linear-gradient-96)" d="M366.5 226.205a11.507 11.507 0 0 0-2.439-4.82q-1.201 2.972-2.547 5.864c.707 4.475 2.603 6.949 6.025 7.815a10.1 10.1 0 0 0 2.152.308q1.605-3.29 3.035-6.68c-.048.024-.099.043-.146.067-3.305 1.61-5.099 1.416-6.08-2.554z" opacity=".34"/><path fill="url(#linear-gradient-99)" stroke="url(#linear-gradient-100)" d="M366.242 215.584c1.066 4.261 3.297 6.652 6.756 7.381a6.233 6.233 0 0 0 1.971.075q1.58-4.263 2.886-8.659c-3.548-.194-6.048-1.496-9.767-4.546q-.856 2.905-1.846 5.749z"/><path fill="url(#linear-gradient-99)" stroke="url(#linear-gradient-100)" d="M366.242 215.584c1.066 4.261 3.297 6.652 6.756 7.381a6.233 6.233 0 0 0 1.971.075q1.58-4.263 2.886-8.659c-3.548-.194-6.048-1.496-9.767-4.546q-.856 2.905-1.846 5.749z" opacity=".34"/><path fill="url(#linear-gradient-103)" stroke="url(#linear-gradient-104)" d="M116.17 194.61a7.81 7.81 0 0 0 6.066-3.089q-.455-3.28-.736-6.61c-1.801 1.885-3.182 3.835-5.119 3.92-1.838.08-3.727-1.053-5.631-2.414q.285 3.616.757 7.181a7.76 7.76 0 0 0 4.663 1.011z"/><path fill="url(#linear-gradient-103)" stroke="url(#linear-gradient-104)" d="M116.17 194.61a7.81 7.81 0 0 0 6.066-3.089q-.455-3.28-.736-6.61c-1.801 1.885-3.182 3.835-5.119 3.92-1.838.08-3.727-1.053-5.631-2.414q.285 3.616.757 7.181a7.76 7.76 0 0 0 4.663 1.011z" opacity=".34"/><path fill="url(#linear-gradient-107)" stroke="url(#linear-gradient-108)" d="M374.44 202.055a15.861 15.861 0 0 0-3.438-4.29q-.583 3.067-1.31 6.078c1.143 3.092 2.811 5.506 6.945 6.134a9.039 9.039 0 0 0 2.419.063q.876-3.37 1.584-6.81l-.024.017c-2.778 2.15-4.345 1.847-6.175-1.192z"/><path fill="url(#linear-gradient-107)" stroke="url(#linear-gradient-108)" d="M374.44 202.055a15.861 15.861 0 0 0-3.438-4.29q-.583 3.067-1.31 6.078c1.143 3.092 2.811 5.506 6.945 6.134a9.039 9.039 0 0 0 2.419.063q.876-3.37 1.584-6.81l-.024.017c-2.778 2.15-4.345 1.847-6.175-1.192z" opacity=".34"/><path fill="url(#linear-gradient-111)" stroke="url(#linear-gradient-112)" d="M375.66 188.314a8.394 8.394 0 0 0-2.932-2.993q-.265 2.986-.662 5.93c1.89 4.129 4.55 5.925 8.25 5.757a5.966 5.966 0 0 0 1.5-.276q.505-3.233.861-6.517c-2.516 1.957-4.713 2.31-7.017-1.9z"/><path fill="url(#linear-gradient-111)" stroke="url(#linear-gradient-112)" d="M375.66 188.314a8.394 8.394 0 0 0-2.932-2.993q-.265 2.986-.662 5.93c1.89 4.129 4.55 5.925 8.25 5.757a5.966 5.966 0 0 0 1.5-.276q.505-3.233.861-6.517c-2.516 1.957-4.713 2.31-7.017-1.9z" opacity=".34"/><path fill="url(#linear-gradient-115)" stroke="url(#linear-gradient-116)" d="M121.13 178.823q-.12-3.298-.068-6.633c-1.915 1.767-3.47 3.864-5.378 3.75-1.83-.109-3.585-1.43-5.33-2.992q-.066 3.378.032 6.721a8.22 8.22 0 0 0 4.699 1.515 7.727 7.727 0 0 0 6.045-2.36z"/><path fill="url(#linear-gradient-115)" stroke="url(#linear-gradient-116)" d="M121.13 178.823q-.12-3.298-.068-6.633c-1.915 1.767-3.47 3.864-5.378 3.75-1.83-.109-3.585-1.43-5.33-2.992q-.066 3.378.032 6.721a8.22 8.22 0 0 0 4.699 1.515 7.727 7.727 0 0 0 6.045-2.36z" opacity=".34"/><path fill="url(#linear-gradient-119)" stroke="url(#linear-gradient-120)" d="M373.424 173.377a1.51 1.51 0 0 0-.198-.204q.018 2.873-.091 5.771c1.757 3.063 4.068 5.114 8.35 4.695a8.763 8.763 0 0 0 1.762-.363q.185-3.241.218-6.454c-3.222 1.726-6.525 1.1-10.041-3.445z"/><path fill="url(#linear-gradient-119)" stroke="url(#linear-gradient-120)" d="M373.424 173.377a1.51 1.51 0 0 0-.198-.204q.018 2.873-.091 5.771c1.757 3.063 4.068 5.114 8.35 4.695a8.763 8.763 0 0 0 1.762-.363q.185-3.241.218-6.454c-3.222 1.726-6.525 1.1-10.041-3.445z" opacity=".34"/><path fill="url(#linear-gradient-123)" stroke="url(#linear-gradient-124)" d="M372.668 161.983q.189 1.98.312 3.977c1.793 3.111 4.209 5.214 8.754 4.36a8.893 8.893 0 0 0 1.626-.475q-.128-3.178-.407-6.319c-3.163 1.589-6.516 1.429-10.285-1.543z"/><path fill="url(#linear-gradient-123)" stroke="url(#linear-gradient-124)" d="M372.668 161.983q.189 1.98.312 3.977c1.793 3.111 4.209 5.214 8.754 4.36a8.893 8.893 0 0 0 1.626-.475q-.128-3.178-.407-6.319c-3.163 1.589-6.516 1.429-10.285-1.543z" opacity=".34"/><path fill="url(#linear-gradient-127)" stroke="url(#linear-gradient-128)" d="M125.425 141.047q.897-3.32 1.971-6.562a18.987 18.987 0 0 1-9.854-2.862q-1.328 3.923-2.428 7.953a7.07 7.07 0 0 0 3.868 2.35 7.796 7.796 0 0 0 6.443-.879z"/><path fill="url(#linear-gradient-127)" stroke="url(#linear-gradient-128)" d="M125.425 141.047q.897-3.32 1.971-6.562a18.987 18.987 0 0 1-9.854-2.862q-1.328 3.923-2.428 7.953a7.07 7.07 0 0 0 3.868 2.35 7.796 7.796 0 0 0 6.443-.879z" opacity=".34"/><path fill="url(#linear-gradient-131)" stroke="url(#linear-gradient-132)" d="M122.76 153.31q.475-2.867 1.072-5.69c-4.136 2.189-7.442 1.19-10.319-1.514q-.695 3.173-1.242 6.404a7.129 7.129 0 0 0 4.247 2.583 7.495 7.495 0 0 0 6.242-1.782z"/><path fill="url(#linear-gradient-131)" stroke="url(#linear-gradient-132)" d="M122.76 153.31q.475-2.867 1.072-5.69c-4.136 2.189-7.442 1.19-10.319-1.514q-.695 3.173-1.242 6.404a7.129 7.129 0 0 0 4.247 2.583 7.495 7.495 0 0 0 6.242-1.782z" opacity=".34"/><path fill="url(#linear-gradient-135)" stroke="url(#linear-gradient-136)" d="M121.294 166.195q.228-3.638.66-7.212a13.23 13.23 0 0 0-2.593 1.974c-2.756 2.505-4.732 2.517-6.748-.798a11.696 11.696 0 0 0-1.221-1.661q-.474 3.8-.74 7.67a7.44 7.44 0 0 0 4.596 1.966 7.701 7.701 0 0 0 6.046-1.94z"/><path fill="url(#linear-gradient-135)" stroke="url(#linear-gradient-136)" d="M121.294 166.195q.228-3.638.66-7.212a13.23 13.23 0 0 0-2.593 1.974c-2.756 2.505-4.732 2.517-6.748-.798a11.696 11.696 0 0 0-1.221-1.661q-.474 3.8-.74 7.67a7.44 7.44 0 0 0 4.596 1.966 7.701 7.701 0 0 0 6.046-1.94z" opacity=".34"/><path fill="url(#linear-gradient-139)" stroke="url(#linear-gradient-140)" d="M365.06 129.341c2.769 2.318 5.632 3.785 9.362 2.131a8.245 8.245 0 0 0 1.484-.859q-1.553-4.455-3.404-8.77a28.98 28.98 0 0 1-9.17 3.207 123.9 123.9 0 0 1 1.728 4.291z"/><path fill="url(#linear-gradient-139)" stroke="url(#linear-gradient-140)" d="M365.06 129.341c2.769 2.318 5.632 3.785 9.362 2.131a8.245 8.245 0 0 0 1.484-.859q-1.553-4.455-3.404-8.77a28.98 28.98 0 0 1-9.17 3.207 123.9 123.9 0 0 1 1.728 4.291z" opacity=".34"/><path fill="url(#linear-gradient-143)" stroke="url(#linear-gradient-144)" d="M368.927 141.295c2.31 2.384 4.785 3.994 8.91 2.918a6.132 6.132 0 0 0 1.829-.827q-1.023-4.231-2.309-8.36c-2.827 1.407-5.673 1.854-9.769 1.659q.711 2.288 1.34 4.61z"/><path fill="url(#linear-gradient-143)" stroke="url(#linear-gradient-144)" d="M368.927 141.295c2.31 2.384 4.785 3.994 8.91 2.918a6.132 6.132 0 0 0 1.829-.827q-1.023-4.231-2.309-8.36c-2.827 1.407-5.673 1.854-9.769 1.659q.711 2.288 1.34 4.61z" opacity=".34"/><path fill="url(#linear-gradient-147)" stroke="url(#linear-gradient-148)" d="M370.661 148.625q.523 2.546.944 5.125c2.307 2.813 4.935 4.622 9.17 3.304a8.741 8.741 0 0 0 1.383-.573q-.635-4.542-1.57-8.99a23.672 23.672 0 0 1-9.927 1.134z"/><path fill="url(#linear-gradient-147)" stroke="url(#linear-gradient-148)" d="M370.661 148.625q.523 2.546.944 5.125c2.307 2.813 4.935 4.622 9.17 3.304a8.741 8.741 0 0 0 1.383-.573q-.635-4.542-1.57-8.99a23.672 23.672 0 0 1-9.927 1.134z" opacity=".34"/><path fill="url(#linear-gradient-151)" stroke="url(#linear-gradient-152)" d="M122.873 129.273a7.027 7.027 0 0 0 6.52-.394q.935-2.435 1.962-4.821c-4.114.825-7.333-.147-9.698-3.103q-1.23 2.822-2.331 5.713a7.587 7.587 0 0 0 3.547 2.605z"/><path fill="url(#linear-gradient-151)" stroke="url(#linear-gradient-152)" d="M122.873 129.273a7.027 7.027 0 0 0 6.52-.394q.935-2.435 1.962-4.821c-4.114.825-7.333-.147-9.698-3.103q-1.23 2.822-2.331 5.713a7.587 7.587 0 0 0 3.547 2.605z" opacity=".34"/><path fill="url(#linear-gradient-155)" stroke="url(#linear-gradient-156)" d="M127.019 116.57a6.872 6.872 0 0 0 7.63.483 125.563 125.563 0 0 1 2.213-4.18 8.72 8.72 0 0 1-9.09-4.202q-1.557 2.77-2.987 5.622a7.527 7.527 0 0 0 2.234 2.278z"/><path fill="url(#linear-gradient-155)" stroke="url(#linear-gradient-156)" d="M127.019 116.57a6.872 6.872 0 0 0 7.63.483 125.563 125.563 0 0 1 2.213-4.18 8.72 8.72 0 0 1-9.09-4.202q-1.557 2.77-2.987 5.622a7.527 7.527 0 0 0 2.234 2.278z" opacity=".34"/><path fill="url(#linear-gradient-159)" stroke="url(#linear-gradient-160)" d="M156.61 86.306q2.04-2.102 4.176-4.106c-2.51-.58-5.358.116-6.515-1.744a10.652 10.652 0 0 1-1.308-4.065q-2.399 2.272-4.687 4.658a7.527 7.527 0 0 0 1.383 2.559 6.978 6.978 0 0 0 6.951 2.698z"/><path fill="url(#linear-gradient-159)" stroke="url(#linear-gradient-160)" d="M156.61 86.306q2.04-2.102 4.176-4.106c-2.51-.58-5.358.116-6.515-1.744a10.652 10.652 0 0 1-1.308-4.065q-2.399 2.272-4.687 4.658a7.527 7.527 0 0 0 1.383 2.559 6.978 6.978 0 0 0 6.951 2.698z" opacity=".34"/><path fill="url(#linear-gradient-163)" stroke="url(#linear-gradient-164)" d="M357.941 113.874q.836 1.534 1.63 3.092c4.685 3.425 7.783 3.725 10.64 1.77a5.996 5.996 0 0 0 .67-.539q-1.373-2.96-2.882-5.845c-2.305 2.131-5.7 2.498-10.058 1.522z"/><path fill="url(#linear-gradient-163)" stroke="url(#linear-gradient-164)" d="M357.941 113.874q.836 1.534 1.63 3.092c4.685 3.425 7.783 3.725 10.64 1.77a5.996 5.996 0 0 0 .67-.539q-1.373-2.96-2.882-5.845c-2.305 2.131-5.7 2.498-10.058 1.522z" opacity=".34"/><path fill="url(#linear-gradient-167)" stroke="url(#linear-gradient-168)" d="M133.934 105.217a7.158 7.158 0 0 0 7.014.84q1.646-2.564 3.41-5.04c-2.689-.189-5.429 1.396-7.504-.33a6.019 6.019 0 0 1-1.842-3.509q-1.846 2.632-3.57 5.355a7.567 7.567 0 0 0 2.492 2.684z"/><path fill="url(#linear-gradient-167)" stroke="url(#linear-gradient-168)" d="M133.934 105.217a7.158 7.158 0 0 0 7.014.84q1.646-2.564 3.41-5.04c-2.689-.189-5.429 1.396-7.504-.33a6.019 6.019 0 0 1-1.842-3.509q-1.846 2.632-3.57 5.355a7.567 7.567 0 0 0 2.492 2.684z" opacity=".34"/><path fill="url(#linear-gradient-171)" stroke="url(#linear-gradient-172)" d="M196.808 54.053a6.166 6.166 0 0 0 2.312 3.404q2.662-1.098 5.383-2.073c-2.499-2.525-3.041-5.57-.89-9.426q-2.803.937-5.555 1.985a5.838 5.838 0 0 0-1.25 6.11z"/><path fill="url(#linear-gradient-171)" stroke="url(#linear-gradient-172)" d="M196.808 54.053a6.166 6.166 0 0 0 2.312 3.404q2.662-1.098 5.383-2.073c-2.499-2.525-3.041-5.57-.89-9.426q-2.803.937-5.555 1.985a5.838 5.838 0 0 0-1.25 6.11z" opacity=".34"/><path fill="url(#linear-gradient-175)" stroke="url(#linear-gradient-176)" d="M148.547 95.459q1.322-1.655 2.7-3.261a8.974 8.974 0 0 1-7.953-5.663q-2.05 2.384-3.993 4.864a7.277 7.277 0 0 0 1.383 2.135 6.755 6.755 0 0 0 7.863 1.925z"/><path fill="url(#linear-gradient-175)" stroke="url(#linear-gradient-176)" d="M148.547 95.459q1.322-1.655 2.7-3.261a8.974 8.974 0 0 1-7.953-5.663q-2.05 2.384-3.993 4.864a7.277 7.277 0 0 0 1.383 2.135 6.755 6.755 0 0 0 7.863 1.925z" opacity=".34"/><path fill="url(#linear-gradient-179)" stroke="url(#linear-gradient-180)" d="M351.545 103.38q1.15 1.693 2.247 3.423c3.117 1.824 6.236 2.859 9.774.244a9.143 9.143 0 0 0 1.004-.868q-1.447-2.451-2.999-4.834a4.145 4.145 0 0 1-1.131 1.385c-2.353 1.836-5.679-.184-8.895.65z"/><path fill="url(#linear-gradient-179)" stroke="url(#linear-gradient-180)" d="M351.545 103.38q1.15 1.693 2.247 3.423c3.117 1.824 6.236 2.859 9.774.244a9.143 9.143 0 0 0 1.004-.868q-1.447-2.451-2.999-4.834a4.145 4.145 0 0 1-1.131 1.385c-2.353 1.836-5.679-.184-8.895.65z" opacity=".34"/><path fill="url(#linear-gradient-183)" stroke="url(#linear-gradient-184)" d="M320.379 71.426a6.329 6.329 0 0 0 5.54-4.024 6.99 6.99 0 0 0 .668-2.807q-3.47-2.498-7.103-4.783a24.226 24.226 0 0 1-4.627 7.884q2.813 1.795 5.522 3.73z"/><path fill="url(#linear-gradient-183)" stroke="url(#linear-gradient-184)" d="M320.379 71.426a6.329 6.329 0 0 0 5.54-4.024 6.99 6.99 0 0 0 .668-2.807q-3.47-2.498-7.103-4.783a24.226 24.226 0 0 1-4.627 7.884q2.813 1.795 5.522 3.73z" opacity=".34"/><path fill="url(#linear-gradient-187)" stroke="url(#linear-gradient-188)" d="M183.177 59.3a6.24 6.24 0 0 0 3.714 4q2.37-1.29 4.796-2.484c-3.011-2.231-3.794-5.25-2.915-8.908q-2.917 1.374-5.76 2.88a6.442 6.442 0 0 0 .165 4.513z"/><path fill="url(#linear-gradient-187)" stroke="url(#linear-gradient-188)" d="M183.177 59.3a6.24 6.24 0 0 0 3.714 4q2.37-1.29 4.796-2.484c-3.011-2.231-3.794-5.25-2.915-8.908q-2.917 1.374-5.76 2.88a6.442 6.442 0 0 0 .165 4.513z" opacity=".34"/><path fill="url(#linear-gradient-191)" stroke="url(#linear-gradient-192)" d="M296.969 54.109a9.147 9.147 0 0 1-4.643 2.222q3.158 1.212 6.229 2.586l.055-.007c4.549-.668 5.392-3.312 2.224-6.602a22.079 22.079 0 0 0-7.522-5.258c-.567-.205-1.134-.411-1.705-.609a19.7 19.7 0 0 0-2.29-.568l7.652 8.236z"/><path fill="url(#linear-gradient-191)" stroke="url(#linear-gradient-192)" d="M296.969 54.109a9.147 9.147 0 0 1-4.643 2.222q3.158 1.212 6.229 2.586l.055-.007c4.549-.668 5.392-3.312 2.224-6.602a22.079 22.079 0 0 0-7.522-5.258c-.567-.205-1.134-.411-1.705-.609a19.7 19.7 0 0 0-2.29-.568l7.652 8.236z" opacity=".34"/><path fill="url(#linear-gradient-195)" stroke="url(#linear-gradient-196)" d="M165.863 77.677q1.866-1.573 3.795-3.071c-3.555-1.311-5.73-3.617-6.441-7.015q-2.427 1.883-4.769 3.87a6.731 6.731 0 0 0 1.24 3.038 6.926 6.926 0 0 0 6.175 3.178z"/><path fill="url(#linear-gradient-195)" stroke="url(#linear-gradient-196)" d="M165.863 77.677q1.866-1.573 3.795-3.071c-3.555-1.311-5.73-3.617-6.441-7.015q-2.427 1.883-4.769 3.87a6.731 6.731 0 0 0 1.24 3.038 6.926 6.926 0 0 0 6.175 3.178z" opacity=".34"/><path fill="url(#linear-gradient-199)" stroke="url(#linear-gradient-200)" d="M335.721 84.35q1.473 1.454 2.896 2.957c4.76 1.254 7.657.34 9.489-2.557a5.26 5.26 0 0 0 .31-.575q-2.066-2.296-4.231-4.5c-1.123 2.967-4.48 4.035-8.464 4.674z"/><path fill="url(#linear-gradient-199)" stroke="url(#linear-gradient-200)" d="M335.721 84.35q1.473 1.454 2.896 2.957c4.76 1.254 7.657.34 9.489-2.557a5.26 5.26 0 0 0 .31-.575q-2.066-2.296-4.231-4.5c-1.123 2.967-4.48 4.035-8.464 4.674z" opacity=".34"/><path fill="url(#linear-gradient-203)" stroke="url(#linear-gradient-204)" d="M344.359 93.793q1.153 1.396 2.268 2.824c3.256 1.524 6.47 2.102 9.892-1.064a5.564 5.564 0 0 0 .606-.67q-1.808-2.468-3.724-4.852c-1.766 2.663-5.244 3.378-9.042 3.762z"/><path fill="url(#linear-gradient-203)" stroke="url(#linear-gradient-204)" d="M344.359 93.793q1.153 1.396 2.268 2.824c3.256 1.524 6.47 2.102 9.892-1.064a5.564 5.564 0 0 0 .606-.67q-1.808-2.468-3.724-4.852c-1.766 2.663-5.244 3.378-9.042 3.762z" opacity=".34"/><path fill="url(#linear-gradient-207)" stroke="url(#linear-gradient-208)" d="M307.884 58.66c-.519 1.596-2.064 2.161-3.806 2.888q2.692 1.363 5.306 2.85a5.818 5.818 0 0 0 3.808-4.05 6.045 6.045 0 0 0-.067-4.301q-3.305-1.836-6.727-3.486c.794 2.261 2.108 4.185 1.486 6.1z"/><path fill="url(#linear-gradient-207)" stroke="url(#linear-gradient-208)" d="M307.884 58.66c-.519 1.596-2.064 2.161-3.806 2.888q2.692 1.363 5.306 2.85a5.818 5.818 0 0 0 3.808-4.05 6.045 6.045 0 0 0-.067-4.301q-3.305-1.836-6.727-3.486c.794 2.261 2.108 4.185 1.486 6.1z" opacity=".34"/><path fill="url(#linear-gradient-211)" stroke="url(#linear-gradient-212)" d="M175.939 70.012q3.151-2.16 6.433-4.13l-4.578-8.173q-4.032 2.37-7.886 5.008a6.323 6.323 0 0 0 .877 3.736 6.555 6.555 0 0 0 5.154 3.559z"/><path fill="url(#linear-gradient-211)" stroke="url(#linear-gradient-212)" d="M175.939 70.012q3.151-2.16 6.433-4.13l-4.578-8.173q-4.032 2.37-7.886 5.008a6.323 6.323 0 0 0 .877 3.736 6.555 6.555 0 0 0 5.154 3.559z" opacity=".34"/><path fill="url(#linear-gradient-215)" stroke="url(#linear-gradient-216)" d="M207.838 50.516a3.796 3.796 0 0 0 1.982 3.092c2.325-.72 4.675-1.383 7.053-1.97a10.585 10.585 0 0 1-2.275-1.072c-1.525-.995-1.567-1.772.414-2.085l6.813-6.89a4.456 4.456 0 0 0-1.127-.14c-.622.122-1.24.256-1.859.385-.658.273-1.257.632-1.845.927-3.752 1.884-9.68 3.286-9.156 7.753z"/><path fill="url(#linear-gradient-215)" stroke="url(#linear-gradient-216)" d="M207.838 50.516a3.796 3.796 0 0 0 1.982 3.092c2.325-.72 4.675-1.383 7.053-1.97a10.585 10.585 0 0 1-2.275-1.072c-1.525-.995-1.567-1.772.414-2.085l6.813-6.89a4.456 4.456 0 0 0-1.127-.14c-.622.122-1.24.256-1.859.385-.658.273-1.257.632-1.845.927-3.752 1.884-9.68 3.286-9.156 7.753z" opacity=".34"/><path fill="url(#linear-gradient-219)" stroke="url(#linear-gradient-220)" d="M215.031 48.477l-.02.004-.145.148z"/><path fill="url(#linear-gradient-219)" stroke="url(#linear-gradient-220)" d="M215.031 48.477l-.02.004-.145.148z" opacity=".34"/><path fill="url(#linear-gradient-223)" stroke="url(#linear-gradient-224)" d="M326.696 76.248q1.61 1.312 3.175 2.676c2.95.473 5.649.018 7.816-3.477a4.843 4.843 0 0 0 .585-1.423q-2.415-2.177-4.934-4.24c-.54 3.354-3.077 5.267-6.642 6.464z"/><path fill="url(#linear-gradient-223)" stroke="url(#linear-gradient-224)" d="M326.696 76.248q1.61 1.312 3.175 2.676c2.95.473 5.649.018 7.816-3.477a4.843 4.843 0 0 0 .585-1.423q-2.415-2.177-4.934-4.24c-.54 3.354-3.077 5.267-6.642 6.464z" opacity=".34"/><path fill="url(#linear-gradient-227)" stroke="url(#linear-gradient-228)" d="M187.821 288.707a8.292 8.292 0 0 0 .628-2.986q-4.193-2.207-8.188-4.715c.103.159.199.323.31.477 3.233 4.451 1.234 5.521-2.997 6.48a19.117 19.117 0 0 0-5.239 2.01q2.806 1.832 5.708 3.528c5.263-.271 8.593-1.907 9.778-4.794z"/><path fill="url(#linear-gradient-229)" stroke="url(#linear-gradient-230)" d="M251.308 300.108q-3.665.117-7.376.023a9.138 9.138 0 0 1-1.947 1.656 21.113 21.113 0 0 0-7.826 9.707l.165.016c6.396-3.014 15.977-2.91 16.984-11.402z"/><path fill="url(#linear-gradient-229)" stroke="url(#linear-gradient-230)" d="M251.308 300.108q-3.665.117-7.376.023a9.138 9.138 0 0 1-1.947 1.656 21.113 21.113 0 0 0-7.826 9.707l.165.016c6.396-3.014 15.977-2.91 16.984-11.402z" opacity=".34"/><path fill="url(#linear-gradient-233)" stroke="url(#linear-gradient-234)" d="M235.277 299.698c.003-.029 0-.057.003-.086q-3.482-.327-6.903-.839c-.296 1.193-1.735 2.222-3.786 3.405a19.844 19.844 0 0 0-7.05 6.741c.87.19 1.746.37 2.623.543 9.536-1.834 14.711-5.247 15.113-9.764z"/><path fill="url(#linear-gradient-235)" stroke="url(#linear-gradient-236)" d="M223.803 48.039a7.334 7.334 0 0 0 .592 1.995q2.991-.546 6.026-.949c-1.452-2.82-.935-5.898 2.27-9.407q-1.522.157-3.034.346c-3.608 1.526-6.577 3.431-5.854 8.015z"/><path fill="url(#linear-gradient-235)" stroke="url(#linear-gradient-236)" d="M223.803 48.039a7.334 7.334 0 0 0 .592 1.995q2.991-.546 6.026-.949c-1.452-2.82-.935-5.898 2.27-9.407q-1.522.157-3.034.346c-3.608 1.526-6.577 3.431-5.854 8.015z" opacity=".34"/><path fill="url(#linear-gradient-239)" stroke="url(#linear-gradient-240)" d="M235.21 46.03a3.968 3.968 0 0 0 .69 2.447q3.736-.33 7.527-.434a9.451 9.451 0 0 1-1.526-1.045c-1.376-1.193-1.312-1.968.693-2.01l7.686-5.902c-.101-.041-.195-.061-.293-.094a138.34 138.34 0 0 0-2.803-.04c-.65.18-1.258.438-1.85.64-3.973 1.357-10.037 1.942-10.123 6.439z"/><path fill="url(#linear-gradient-239)" stroke="url(#linear-gradient-240)" d="M235.21 46.03a3.968 3.968 0 0 0 .69 2.447q3.736-.33 7.527-.434a9.451 9.451 0 0 1-1.526-1.045c-1.376-1.193-1.312-1.968.693-2.01l7.686-5.902c-.101-.041-.195-.061-.293-.094a138.34 138.34 0 0 0-2.803-.04c-.65.18-1.258.438-1.85.64-3.973 1.357-10.037 1.942-10.123 6.439z" opacity=".34"/><path fill="url(#linear-gradient-243)" stroke="url(#linear-gradient-244)" d="M242.614 44.987l-.02.002-.165.126z"/><path fill="url(#linear-gradient-243)" stroke="url(#linear-gradient-244)" d="M242.614 44.987l-.02.002-.165.126z" opacity=".34"/><path fill="url(#linear-gradient-247)" stroke="url(#linear-gradient-248)" d="M278.088 51.83q2.66.67 5.274 1.447a6.113 6.113 0 0 0 1.64-4.114 6.004 6.004 0 0 0-2.47-5.509q-3.129-.842-6.32-1.537c2.753 3.427 3.663 6.657 1.876 9.712z"/><path fill="url(#linear-gradient-247)" stroke="url(#linear-gradient-248)" d="M278.088 51.83q2.66.67 5.274 1.447a6.113 6.113 0 0 0 1.64-4.114 6.004 6.004 0 0 0-2.47-5.509q-3.129-.842-6.32-1.537c2.753 3.427 3.663 6.657 1.876 9.712z" opacity=".34"/><path fill="url(#linear-gradient-251)" stroke="url(#linear-gradient-252)" d="M265.971 48.163l.02.003.188-.089z"/><path fill="url(#linear-gradient-251)" stroke="url(#linear-gradient-252)" d="M265.971 48.163l.02.003.188-.089z" opacity=".34"/><path fill="url(#linear-gradient-255)" stroke="url(#linear-gradient-256)" d="M267.094 46.349c1.092 1.457.865 2.201-1.103 1.817l-2.004.947q4.292.574 8.48 1.436a4.041 4.041 0 0 0 .96-1.839c1.147-4.841-5.095-5.83-8.589-7.88-.407-.239-.824-.564-1.272-.855q-1.582-.193-3.176-.35c-.033.016-.062.02-.096.036 1.58 3.047 4.912 4.168 6.8 6.688z"/><path fill="url(#linear-gradient-255)" stroke="url(#linear-gradient-256)" d="M267.094 46.349c1.092 1.457.865 2.201-1.103 1.817l-2.004.947q4.292.574 8.48 1.436a4.041 4.041 0 0 0 .96-1.839c1.147-4.841-5.095-5.83-8.589-7.88-.407-.239-.824-.564-1.272-.855q-1.582-.193-3.176-.35c-.033.016-.062.02-.096.036 1.58 3.047 4.912 4.168 6.8 6.688z" opacity=".34"/></g></svg>