<svg xmlns="http://www.w3.org/2000/svg" role="img" viewBox="23.15 -3.85 115.70 167.83"><title>File Meta Checker logo</title><path fill="#F2D608" stroke="#F2D608" d="M80.5 0l6 4 5-3 1 2-2-1-5 3-5-4-5 4-1-2 2 1 4-4zm-10 1l-2 3 2-3zm-10 3l1.5.5L59.5 6l1-2zm33 0l2 3-2-3zm-30 1l3 1 1.5-.5q-1.2 2.8-2.5.5-3 .5-2-1zm-13 4l.5 3.5h-1l.5-3.5zm2 0l3.5.5-3.5.5V9zM42 15l8 .5-7 .5v7h-2.5v-1l1.5-.5V15zm-6 8l3 .5-2 .5-.5 3-.5-4zm1.5 6l-1 2 1-2zm-5 3l-.5 1.5 1 3h-1l-1-3 1.5-1.5zm1 6L29 43.5l2 3-3-2q-1.1-3.3 1.5-2.5l4-4zm-2 10L29 51.5 27.5 56l-.5-2.5 2-4.5 2.5-1zm-2 9q3.3-1.1 2.5 1.5L28.5 65l-.5-2.5 3-4-1.5-1.5zm1 8l1 2-1-2zm1 8l1 2q-2.8.7-1-2zm3 2l2.5 1.5-1.5.5-1-2zm2 4l.5 2.5h-1l.5-2.5zm3 5l3.5 1.5-.5 4.5-.5-5q-3.3.8-2.5-1z" opacity=".263"/><path fill="#A06C1E" stroke="#A06C1E" d="M67.5 31l2.5.5-8.5 2.5-5.5 5.5-2.5 6.5-.5-2.5 6.5-9.5 8-3zm19 1l8.5.5-8.5.5v-1zm17 0l8.5.5-8.5.5-1.5 1.5L95.5 46l-.5-1.5 8.5-12.5zm-18 2l.5 3.5-1.5 4.5-.5-3.5 1.5-4.5zm-16 7l.5 3.5h-1l.5-3.5zm14 2l.5 4.5h-1l.5-4.5zm-15 3l.5 4.5h-1l.5-4.5zm-16 1l.5 2.5-2.5 9.5-.5-4.5 2.5-7.5zm30 2l.5 2.5h-1l.5-2.5zm-15 3l.5 3.5-1.5 4.5-.5-3.5 1.5-4.5zm14 1l.5 3.5h-1l.5-3.5zm-1 5l.5 3.5h-1l.5-3.5zm-31 2l.5 5.5h-1l.5-5.5zm16 1l.5 3.5-3.5 6.5-1.5-.5 2-.5 2.5-9zm14 2l.5 3.5h-1l.5-3.5zm-1 5l.5 3.5h-1l.5-3.5zm-1 5l.5 2.5h-1l.5-2.5zm16 0l.5 2.5h-1l.5-2.5zm10 24l3.5.5-3.5.5v-1z"/><path fill="#DFCA42" stroke="#DFCA42" d="M91.5 4L94 8l7-2 2 6 7-1 1 6-5 2.5 1 3-6 9 .5 1.5q-1.2-2.3-2.5.5l1 2-1.5-.5q-2.2.8-1.5-1.5L95.5 32H85l-7 36.5-13 21v2l-1 3 2 1-1.5.5q-1.7-3.7-3.5-.5L59.5 99l-.5-2-4.5-1-3 2-.5-2.5-2.5-5.5q-7.2 2.3-4.5-5.5L43 82q4.6 1.3 6-1.5 1-3.7-2-2.5 1.3 3.3-3.5 2l-1-2 3.5 1 2.5-8 .5 5 8.5 4h7l7.5-4.5 2-4.5 2-.5-1-2 3-9q-2.5-1.5 1-3l-1-4 2-6-1-1v-8L76 32l-2-.5 12-18-.5-1.5 3 1 .5-2.5q.8-2.2-1.5-1.5L85 10l.5-2h2L91 5.5l.5-1.5zm.5 5l-2 2 2 3 1-3q1-3-1-2zm3 2l-2 3 3 1q-2-2 1-3l-2-1zm4 1l-2 2 2 3 1-3q1-3-1-2zm1 2v4l4-2q1-4-4-2zm5 2l-2 4 4-2q1-3-2-2zM49 81q1 3-1 2l1 2 2-1q1-4-2-3zm4 2q0 4-2 3l1 2 2-1-1-4zm3 3q0 3-2 2l1 2 2-1-1-3zm3 2l-2 4 3-1-1-3zm3 1l-1 2 1 1q-3-1-2 2l3-1-1-4zM72.5 8l1.5.5-2.5 1.5 1-2zm5 0l1 2-1-2z" opacity=".996"/><path fill="#DFCA42" stroke="#DFCA42" d="M81.5 9q2.6-.8 1.5 2.5l.5 1.5h-2l-1.5-.5q3.1-1.7 1.5-3.5zm-16 1l2.5 1.5-1.5.5-1.5-.5-1.5 3.5-6 4H54q-1.3-4.1 2-3-1.1 2.7 1.5 2l-.5-1.5 1.5-3.5.5 3h2v-4h1.5v2q2.6.8 1.5-2.5l1.5-1.5zm4 1l1 2-1-2zm6 0l1 2-2.5-.5 1.5-1.5zm42 6l.5 5.5h-1l.5-5.5zM51 18l2 .5-.5 1.5 2.5.5-4 .5v-3zm59.5 1l-1 2-1.5-.5 2.5-1.5zm-62 2q2.3 4.2 4.5 2.5-1.3 2.7-2.5.5L48 22.5l.5-1.5zm-2 2l2.5 2.5-.5 2.5-1.5.5.5 1.5-3.5-2.5 1.5.5q2.3.8 1.5-1.5l-.5-3.5zM42 32q3-1 2 2-3 1-2-2zm75.5 0l2.5.5-2.5.5v-1zm-59 2l-1 2 1-2zm61 1l-1 2 1-2zm-23 2l.5 3.5-2-1 1.5-2.5zm24 2l-1 2 1-2zm-52 1l.5 2.5h-1l.5-2.5zM94 42l2 .5-2 1V42zm-29.5 1l3.5 5.5-4 18-2.5 3.5q-2.2.8-1.5-1.5l-1-3h2l-1-4q2.8-.7 2-5l-.5-1.5 1.5.5-1-5h2l2-5-1.5-2.5zm-25 2l1.5.5-2 .5q1.1 2.7-1.5 2l-1-2q1.5 2.5 3-1zm83 1l2.5.5-3.5 1.5 1-2zm6 3l4 5-4-5zm-6 4l3.5 1.5-1.5.5h-2l-1.5-.5 1.5-1.5zm-83 3l.5 1.5-2 1 1.5-2.5zm-3 5h2l1.5.5-2.5 1.5-1-2zm5 5l.5 2.5-2.5 1.5v-1q2.9.7 2-3zm79 2l2.5 1.5-1.5.5-1-2zm-78 3l.5 2-4-.5 3.5-1.5zm2 3l.5 1.5-2.5 1.5v-1q2.5.7 2-2zm72 0l1.5.5-2.5 1.5 1-2zm-3.5 3l2 .5-2 1V77zm-34.5 2l7.5.5-7.5.5v-1zm32 4l1 2-1-2zm-4 2q3.8-1.2 2.5 2.5l-2.5-2.5zm-3.5 2q3.7-1.5 3 1.5l.5 1.5-3.5-1-1.5 4-1-2-2 3-.5-2q-2.7-1.1-2 1.5L94.5 96l-.5-1.5.5-2.5 3-2 2.5 1v-2q4.1 1.3 3-2zm14.5 2l-1 2-1.5-.5 2.5-1.5zm-46 4l-.5 1.5-1.5 2.5.5-1.5 1.5-2.5zm15 0l2 1 3-1 1.5 3-2.5 1-1-3-1 2-2-3zm-6 1l-.5 1.5-.5 1.5-.5-1.5 1.5-1.5zm27 2h2l1.5.5-2.5 1.5-1-2zm-36 1l2.5.5-2.5.5v-1zm10 0l2.5 1.5-1.5-.5-3 1v-1l2-1zm-16 2l2.5 1.5-3 .5.5-2zm19 2q2.3-.7 1.5 1.5l-1.5-.5-3.5 2.5 3.5-3.5zm17 0l-1 2 1-2zm-23 2l1 2-1-2zm-9 1l1 2-1-2z" opacity=".996"/><path fill="#FBDA60" stroke="#FBDA60" d="M112.5 15h6.5v3.5h-1V16h-5.5v-1zm10 8l2.5.5-2.5.5v-1zm2 3l.5 4.5h-1l.5-4.5zm5 14l1 2-1-2zm2 6l-1 2 1-2zm0 4l3.5 3.5-4.5 4.5 3.5-4.5-2.5-3.5zm0 11l1 2-1-2zm1 3l-1 2 1-2zm-4 3l-1 2 1-2zm0 3l1.5 2.5h-1l-.5-2.5zm-4 8l.5 2.5h-1l.5-2.5zm-4 6l2.5.5-2.5.5v-1zm-2 1l.5 7-5-.5 4-.5.5-6zm-76 5q1.3 2.2 6 1l1.5 1.5-.5 1.5-.5-2h-7l.5-2zm86 49l2.5.5-2.5.5v-1z" opacity=".235"/><path fill="#F5E265" stroke="#F5E265" d="M80.5 2l6 4 4-3 .5 2.5L86.5 9l-3-1h-6q-4.2-1.3-2.5 3.5l3 1.5-1-2.5 2-.5 1.5 3 2-1 3.5 1.5L73.5 32l-1-1h-8L57 35.5l-5 9-2 7-1 11-1 1v11q-2.7 1.1-2 4.5l-3 .5 4 .5q-1-3 2-2v3q3-1.2 2 2.5L48.5 85l-1-2q2.3.8 1.5-1.5l-1.5.5-7 1-2.5-1v-6.5l-1.5-.5-3.5-1 2-6.5-5-4 3-6-4-4 3-3 1-3-3-4 5-4-2-6.5 6-2-1-7 6-1v-6h5.5l3-6q7 1.5 6.5-1.5L61.5 6l5 2 4-5 6 3 4-4zM73 8l-2 4 4 1-1-1q1-5-1-4zm-5 1v2l-2-1-2 4 4 1-1-3 4 2-1-2q1-4-2-3zm-7 3q-2 6 3 4l-1-2q1-3-2-2zm-2 1l-2 4 4 1q1-3-2-2v-3zm-5 3v3l4 1-2-4h-2zm-3 2v3l4 1-2-4h-2zm-3 3v2l4 2 1-2h-3q1-3-2-2zm-1 2l-1 4 3 1 1-1-3-4zm-1 5q-3 2 0 3l2-1-2-2zm-4 4v2l4-1-4-1zm1 3l-1 2 2-1-1-1zm-1 3l-2 1v1l3-1-1-1zm-2 7l-2 3 3-2-1-1zm-3 5v1h2l-2-1zm2 3l-3 2h3v-2zm1 3l-3 2v1l3-1v-2zm0 4l-2 3 2-1v-2zm-2 5v1h2l-2-1zm4 1l-1 3h1v-3zm1 5l-4 2h4v-2zm72.5-55l2.5.5-2.5.5v-1zm3 3l.5 4 3 .5-4 .5.5-5zm5 10l.5 2 6 2.5-1.5.5-5.5-2 .5-3zm-27 5l.5 2.5h-1l.5-2.5zm17 0l-1 2 1-2zm-2 3l-.5 1.5-1.5 2.5.5-1.5 1.5-2.5zm16 1l3 4 2.5 1.5-3 6q8 4 0 8l3 6-6 5 3 5-6 4-.5 2.5-.5-4 6-2.5-3-5 5-3.5v-2.5l-3-4 5-5-4-4 2-6-4-2.5.5-3z" opacity=".996"/><path fill="#F5E265" stroke="#F5E265" d="M67.5 40l.5 6.5h-1l-.5-1.5-3 6-.5-3.5 2-6.5 2.5-1zm41 2l-1 2 1-2zm-2 3l-1 2 1-2zm-27 1l.5 2.5h-1l.5-2.5zm25 2l-.5 1.5-2.5 4.5-.5-1.5 3.5-4.5zm-42 5l.5 2.5-1.5 4.5-.5-3.5 1.5-3.5zm16 1l.5 2.5h-1l.5-2.5zm-18 8l.5 3.5h-1l.5-3.5zm16 0l.5 2.5h-1l.5-2.5zm14 2l.5 2.5h-1l.5-2.5zm-1 4l.5 2.5h-1l.5-2.5zm-15 1l.5 1.5-5.5 7.5-3 1v-1l4.5-2.5 3.5-6.5zm14 5l.5 2.5h-1l.5-2.5zm-31 5l7.5.5-7.5.5v-1zm67 2l.5 1.5-7 2.5-.5 4-.5-3.5q2-3.3 7-2.5l.5-2zm-72 2l1.5 4-2.5 1-1-2q2.9.7 2-3zm3 3l1.5 2.5-2.5 1.5-1-2q2.5.7 2-2zm3 2l1.5 2.5-3 1.5 1.5-4z" opacity=".996"/><path fill="#F5E265" stroke="#F5E265" d="M61.5 89l1.5 3.5-3 1.5q-1.1-2.7 1.5-2l-.5-1.5.5-1.5zm4 2l1.5 4 2-.5-1-2 2 1-1.5 3.5-4.5-2.5 1.5-3.5zm46 0l2.5.5-3 .5-.5 4-.5-3.5 1.5-1.5zm-18 1l2.5 3.5h-1L93.5 92zm6 0l.5 1.5-2 1 1.5-2.5zm-27 1l1.5 4-3-.5 1.5-3.5zm3 1q2.3-.7 1.5 1.5 2.3 1.3-.5 2.5l-1.5-.5 1-2-.5-1.5z" opacity=".996"/><path fill="#F5E265" stroke="#F5E265" d="M79.5 94q4.5 2 1 4l-1.5-.5 1-2-.5-1.5z" opacity=".996"/><path fill="#F5E265" stroke="#F5E265" d="M83.5 94l1.5 4q-3.8 1.2-1.5-4zm3 0q4.5 2 1 4l-1-4zm17 2l3.5.5-4 .5-2.5 5-2.5-.5 3-.5 2.5-5zm-45 1l1.5 2.5-2-1 .5-1.5zm34.5 3l4 .5-4.5 2.5.5-1.5V100zm-32.5 1l2.5.5-2.5.5v-1zm7 0l4 3 1.5-.5-2.5 1.5-3-4zm8 0l4 4h2l3.5-2.5q-.5 4-5.5 3.5-2.7-5.4-5.5-3.5l1.5-1.5zm11 1l5.5 2.5-2.5.5-3-3z" opacity=".996"/><path fill="#B58E23" stroke="#B58E23" d="M66.5 31l3 1q1.2-2.2 2.5.5l-4.5.5-1-2zm-4 1l1 2-1-2zm-2 1l1 2-1-2zm24 4l1.5 2.5h-1l-.5-2.5zm-27 1l-1 2 1-2zm-3 2l1 2-1-2zm29 2q2.3-.7 1.5 1.5L83.5 42zm-15 3q2.6-.8 1.5 2.5h-1l-.5-2.5zm14 2l1 2q-2.8.7-1-2zm-15 3l1 2q-2.8.7-1-2zm14 2q2.3-.7 1.5 1.5L81.5 52zm-15 3l1 2-1-2zm-17 3l1.5 2.5-2-1 .5-1.5zm30 4q2.3-.7 1.5 1.5L79.5 62zm-15 2l1 2-1-2zm27 1l1.5 3.5h-1l-.5-3.5zm-42 1l.5 8.5 1 1-2-1-1-7 1.5-1.5zm28 5l1 2q-2.8.7-1-2zm15 0l1 2q-2.8.7-1-2zm-15 5l.5 2-2-.5 1.5-1.5z"/><path fill="#EECD27" stroke="#EECD27" d="M80.5 1l6 4 5-3 4 5 6.5-2 2.5 6 5-2 2.5 7 3 .5-4 .5-1-6-7 1-2-6-7 2-3.5-5-5 3-5-4-5 4-5-3-4 5-5-2-2.5 5h-6.5l-1 1-.5-2.5 1.5.5q5.3 1.3 6.5-1.5L60.5 5l6 2 4-5 6 3 4-4zm-30 12l.5 2.5q-1.6 3-7 1.5l-.5 6-.5-7h7l.5-3zm-11 10l2.5.5-2.5.5v-1zm-2 1l1.5 7-6 2 2 6.5-5 4 3 5-4 5 4 5-3 5 5 4-2 6.5 5 1v8h4.5q3 1.6 1.5 7l5 .5-6 .5q1.5-5.4-1.5-7L36 82.5l1-6.5-5-2.5 2-6-5-2.5 3-8-4-2.5 4-6-3-5 5-5-1-1-1-4 6-4q-2.4-1.4-.5-5.5zm67 23l-1 2-1.5.5q2.5 1.5-1 3l2 13 2 4-1 2q3 2.3 2 7.5H95.5l-.5-2.5L91.5 61q-3.2 6.8-3.5 16.5L86.5 79l-9.5-.5 3-9v-4l1.5-1.5 23-17zm-32 25l-1 2-1.5.5q2.3 1.3-.5 2.5l-6 2v-1H66q-1.1-2.7 1.5-2l5-4z" opacity=".984"/><path fill="#B8A002" stroke="#B8A002" d="M115.5 27l1.5.5-2 .5-.5 2-.5-1.5 1.5-1.5zm2 3l-.5 1.5-.5 1.5-.5-1.5 1.5-1.5zm3 7l1.5.5-2.5 1.5 1-2zm8 5l2.5 1.5-3 6 4 4-2 2-2 4 3 4-5 4 2 6.5-6 2.5 1 5-6 2.5v6h-7v3.5l-1 2.5-5.5-1-4 6-4.5-2.5 2.5-3.5q4.2 1.3 2.5-3.5h1q-.7 2.3 1.5 1.5 1.1-2.7 4.5-2-1.1-3.3 3-2v-2.5l3-1q-.7-2.6 2-1.5v-3.5l-.5-1.5q1.8 3.8 3.5.5l-2-3 2.5 1.5 1.5-1.5-1-3h2l-1-4 3 1 1-6-1.5-2.5 2.5 1q.8-3.4-2-4.5l1.5.5q2.3.8 1.5-1.5l-1.5-2.5q2.3.8 1.5-1.5l-1-2 1-3-1-2h1l.5 1.5 2.5-4.5-.5-1.5z"/><path fill="#B8A002" stroke="#B8A002" d="M119.5 59l.5 3.5-2 7-2 2 .5 1.5H115v3h-2q1.5 3.7-1.5 3l-1 3q-1.2-2.2-2.5.5V84q-3.7-1.5-3 1.5l1.5 2.5-3.5-2.5L119.5 59z"/><path fill="#D2B624" stroke="#D2B624" d="M76.5 8l1.5 3.5-.5 1.5L75 9.5 76.5 8z"/><path fill="#D2B624" stroke="#D2B624" d="M79 8l3 .5-1 3.5q-3.7 1.2-2-4zm4.5 0l1.5 4.5-2-1 .5-3.5zm-11 1H74v4l-3-1.5L72.5 9zm19 0l1.5.5-2 1 .5 1.5q-3-1.5 0-3zm-23 1l2.5 3.5-1.5.5q-2.5-1-1-4z"/><path fill="#D2B624" stroke="#D2B624" d="M86 10l3 .5-2 1 2 1-1.5.5-1.5-3zm-20.5 1l1.5 2.5-2 1 .5-3.5zm31 0l-1 2 1-2zm-3 1l.5 2 2 .5-1.5.5-1-3zm5 2v3q-3-1.5 0-3zm5 0l.5 2-2-.5 1.5-1.5zm2 3l2.5 1.5-1.5-.5-1-1z"/><path fill="#D2B624" stroke="#D2B624" d="M109 17h8v5.5l7 2.5-2 4.5 1 2-2.5.5-1.5-.5.5-1.5q-3.7.8-4.5-1.5l3-1-4-.5q-.7 3.4 2 4.5l-.5 1.5 2.5.5-1 3.5 3.5-2-3 4q-2.6-.8-1.5 2.5L103.5 60q-2.2-1.7-1.5-6.5l9-15-2 1-5.5 8.5-1.5.5.5 1.5q-1.5-2.5-3 1l-19 14 .5-1.5 3-17 4.5-4.5 5-3 1.5 2.5-1 4 2 1 8.5-13.5 8.5-.5-12-.5q1.5 3.8-1.5 3 1.6 1.8-1.5 3.5l-.5 1.5-.5-5q2.7 1.1 2-1.5l8-11q-2.2-1.2.5-2.5l2 4 2-3-1.5-.5.5-1.5q-2.6.7-1.5-2zm4 7l-3 2 4 1-1-1 2-1-2-1zm-1 10l-1 3 1 1 2-3-2-1zM51.5 23l-1 2 1-2zm-8 12l-1 2 1-2zm77 3l1 2-1-2zm2 4q2.3-.7 1.5 1.5l-4 1q-.7-2.2 1.5-1.5l1-1zm0 3l-1 2 1-2zm-44 4l.5 3-2 .5 1 4-3 11-3.5 5.5-1.5.5.5 1.5q-1.5-2.5-3 1-2.6-.7-1.5 2h-2.5l-1 1h-8L51 76.5 50 72l8.5-6 .5 5h5v-1.5L68.5 58l9.5-7.5.5-1.5zm44 0l1.5.5-2 .5-.5 2-.5-1.5 1.5-1.5zm-62 9l.5 2.5h-1l.5-2.5zm61 2l3.5 1q1.1 2.7-1.5 2-1.7-3.1-3.5-1.5l1.5-1.5zm-81 4l-1 2 1-2zm38 0l.5 2.5h-1l.5-2.5zm45 0v3q-3-1.5 0-3zm-4 1l3 4-3-1-1.5.5q3.1-1.7 1.5-3.5zm-15 1l.5 2.5h-1l.5-2.5zm-13 1L93 77.5l-9 14V94l-2 .5.5 1.5q-2.6.7-1.5-2h-2v7.5l-1.5 1.5q-1.5-3.5-3-1l-4 2-4-5-5 2-1.5-3.5 2.5-3.5 3 2 1.5-3.5-2-3 11-18-.5-1.5 1.5.5.5-1.5.5 1.5-2 7q1.8 4.3 9.5 2.5l3.5-2.5v-4l2.5-6.5zM68 92l-1 5 4-1-1-2q1-3-2-2zm4 1v2l-1 3q5 2 3-3l-2-2zm4 0l-1 2v2l1 2 2-1q1-4-2-5zm41.5-23l3.5 1.5q.7 2.6-2 1.5 1.1-2.7-1.5-2v-1zm0 2l1.5 4-2-.5.5-1.5-2 1 2-3zm-23 4l.5 3h10.5l1-1-1 2h-10L94 78.5l.5-2.5zm20 0l3.5 2.5-4 1q2.3 1.3-.5 2.5-2.2-.7-1.5 1.5l.5 1.5-2.5-.5.5-1.5-2.5-.5 5-2-2-1 4-2-.5-1.5zm9 5l-1 2 1-2zm-17 3l1.5.5-2 1q3.8 1.8.5 3.5l-1-3-7 5 2-3 6-4zm5 6l3.5.5-3.5.5v-1zm-22 2l4.5 1.5-1.5.5-3-1v-1zm8 0l.5 1.5-2 1 1.5-2.5zm-12 3l1.5 3-2.5 1 1-4zm24 0l-1 2 1-2zm-17 1l-1 2 1-2z"/><path fill="#C0A413" stroke="#C0A413" d="M91.5 10l1.5.5-2 1 1 2-2-1 1.5-2.5zm2.5 1l2 .5-1.5 2.5-.5-3zm3 2l3 .5-2 1 .5 1.5-1.5-3zm4.5 1l1.5.5-1.5 3.5-1.5-2.5 1.5-1.5zm3 2l2.5.5-2 .5-.5 3-1.5-2.5 1.5-1.5zm4 2l1 2-1-2zm-2 1l1.5 2.5-2-1 .5-1.5zm2.5 2l3 .5-3 2V21zm3.5 3l.5 3q-2.7 1.1-2-1.5l1.5-1.5zm5 3l-1 2 1-2zm.5 3l2 .5-2 1V30zm3.5 1l6.5 3.5-2 6.5q2.7-1.1 2 1.5v2l-2 5.5-2 .5 1 3-1 2 1.5 2.5-4.5-1 .5 2q1.8-2.8 3.5 1.5l-1.5.5-2-1-1.5.5-.5-1.5-12 19q-2.7.6-1.5-5.5l-3-12 10-14 3-7.5 6-3.5-3-1.5-1.5 3-.5-2.5 4.5-3.5zm-.5 6q-3 2 0 3h2l-1-1v-1l-1-1zm0 4l-1 4 3-2 1 1v-1l-3-2zm2 4l-2 3 2-1 2 1q2 1 1-2l-3-1zm0 4l-2 3 3-2-1-1zm0 4l-2 3 3-2-1-1zM74.5 32l.5 2q2.7-1.1 2 1.5 4 3.5 2 13l-2 3 .5 1.5q-1.5-2.5-3 1l-7 5-.5-1.5 3-10v-6L69 39l-5 2q1.3 5.1-2 6.5v2l-2 14-5.5 6.5-4.5 2V61.5l3-14q2.3-7.7 7.5-12.5l4-2h9l1-1zm13 1h8l.5 2.5-1.5 5.5-1-2-9 7-.5-1.5q2.7-3.3 2-10l1.5-1.5zm44 21l-1 2 1-2z"/><path fill="#C0A413" stroke="#C0A413" d="M120.5 62l2.5 1.5-.5 1.5-.5-2q-2.7-1.1-2 1.5h-1l1.5-2.5zm-1 4l-1 2 1-2zm-1 3l2.5 1.5-1.5-.5-1-1zm1 6l.5 1.5q-1.5 3-3 0h2l.5-1.5zM92 78q3.4 3.7 13.5 2l1.5-.5-4 7.5q-3.7-1.5-3 1.5l-.5 2.5-3.5-1-.5 2-2.5-1-.5 2-3.5-1 1 2.5-2.5-1.5-2.5.5 1.5 2.5q-3-.5-2.5-4.5l8-11V78zm18.5 2l-1 2 1-2zm2 3l2.5.5-2.5.5v-1zm-4 1l3 2 1.5-.5-1.5 1.5-2.5-.5-.5-2.5zm-15 10l.5 2 3.5-2-1.5 2.5-1 2 .5 1.5h-2q-2.2-.7-1.5 1.5l-1 2.5-6.5-3-4 4-2.5-2.5 1-3.5 2.5-1 3 1 4.5-1 .5-2q1.8 3.8 3.5.5l.5-2.5z"/><path fill="#800101" stroke="#800101" d="M49.5 96l.5 2 2 .5-2 8.5 25 5-2-7.5 2.5-1.5 6 4 4-4 1 1 5.5 2 3.5-5 6.5 2 1-5h7.5l.5-1.5h1l10 23L87 131l6.5 17 8-12 1.5 2.5-9.5 12.5-2.5-1-9-24q-3-1.2-2 2.5l-1 3.5-36-7-8 23.5 1.5-.5 19-6 1 2-23 8q-2.2-.7-1.5-4.5l9-23L49.5 96z" opacity=".984"/><path fill="#B10303" stroke="#B10303" d="M54.5 97l3.5 1.5 2.5 4.5 6.5-2 3.5 5 2-1 2.5 7-25-5 1-7.5 1.5-1.5 2-1zm22 6l2 3-2-3zm8 0l-3 4 3-4zm35 17q4.4-1.5 3.5 1.5l7 15-1.5-.5-15-3-3 1-4-2-3 5-2-1-8 12-6.5-17 32.5-11zM43 125l36 7-5 16.5 1 4-3.5 6.5-6.5-5.5q.8-2.2-1.5-1.5l-8-10-20 7-.5-2.5 8-21.5zm37 1l2 .5-2 1V126z" opacity=".992"/><path fill="#E83A3A" stroke="#E83A3A" d="M111 92l3 1.5q2.3 10.2 8 17v2l10 20 1 6q-1.2 2.8-2.5.5l-13-2-6.5-2.5 2-1-.5-1.5 17 5 .5-1.5-19-40V92zm-29.5 35l.5 6.5-6.5 18.5-1.5-3.5 6-20 1.5-1.5zm-7 26l.5 2.5-2 4.5q-3.8 1-5-1.5l-2-3 4.5 3.5 2.5-1.5 1.5-4.5z" opacity=".812"/></svg>