<svg xmlns="http://www.w3.org/2000/svg" role="img" viewBox="23.51 10.51 458.48 571.48"><title>File Meta Checker logo</title><defs><style>.cls-10{fill:#dbc63d}.cls-43{fill:#e0cc46}.cls-46{fill:#d1bc2d}.cls-56{fill:#d2bd2e}.cls-62{fill:#9f741e}.cls-82{fill:#ebd858}</style></defs><path fill="#fefefe" d="M493.54 253.585c0 76.806-.121 153.613.195 230.417.03 7.435-1.683 9.122-9.114 9.11q-230.418-.377-460.836 0c-7.431.012-9.12-1.678-9.108-9.11q.376-230.417 0-460.835c-.012-7.431 1.677-9.12 9.108-9.108q230.418.376 460.836 0c7.431-.012 9.144 1.674 9.114 9.109-.316 76.805-.195 153.611-.195 230.417z"/><path fill="#f4e166" d="M116.231 239.678c-10.418-7.437 3.113-15.447-.552-23.045-.218-3.06-2.46-5.977-.661-9.2 10.46-6.267 11.668-9.433 7.337-27.676-1.34-5.639-.678-10.696.362-15.914.994-4.987 5.742-9.253 9.409-7.1 12.573 7.384 14.702-2.855 19.24-9.79 13.207-20.189 25.016-41.234 37.871-61.636 2.889-4.585 6.051-9.03 6.226-14.752a40.604 40.604 0 0 1 .994-6.306c1.956-5.465 3.782-11.06 10.64-12.255 9.5 6.696 3.524-5.543 7.236-5.94a6.247 6.247 0 0 1 5.788-.092c2.825 1.91 3.593 6.841 8.474 5.745 3.694-.44 7.39.349 11.092-.193a11.372 11.372 0 0 1 3.95.426 8.807 8.807 0 0 1 5.358 6.012c1.214 6.894-2.606 12.103-5.905 17.457a353.536 353.536 0 0 0-19.004 34.331c-13.037 5.967-28.326 8.113-36.872 21.712a45.8 45.8 0 0 0-8.3 16.288c-2.89 8.764-4.735 17.793-6.907 26.738-1.836 5.409-2.4 11.311-6.088 16.014-8.861 11.125-20.632 19.994-19.91 37.203.293 7.017-10.88 8.654-16.584 13.069-4.594 2.076-8.495-4.242-13.194-1.096z"/><path fill="#fce972" d="M207.894 52.842c-5.13 2.45-6.446 7.646-8.737 12.14-3.157 1.789-9.045-.587-9.101 5.973-3.492 1.382-8.738.112-9.107 6.137-10.707 4.606-22.321 8.262-23.067 22.879-2.542 2.867-7.239 3.567-8.118 8.117-9.744 7.563-17.093 16.394-15.08 30.376 1.717-14.025 13.03-21.573 20.198-31.896 4.334-.683.817-5.01 3.06-6.687 6.302-9.445 15.909-15.557 23.643-23.557 2.76-3.105 7.587-3.189 9.968-6.847a6.08 6.08 0 0 1 7.662 1.364c-3.18 15.896-14.633 27.363-22.205 40.878-9.586 17.11-20.453 33.504-30.85 50.155-1.89 3.025-4.264 8.945-8.126 4.188-3.5-4.31-6.121-11.741-10.589-4.469-2.29 3.728-8.79 13.108.828 19.707 5.528 3.793 4.665 5.105-4.221 7.462-2.455 4.72 16.737 2.176 3.642 11.852-3.265 2.412 8.748 1.876 9.682 7.897-6.259 8.521-15.832-12.028-21.458 2.198-7.088 1.862-10.065-.902-8.324-7.953.922-3.734 3.313-6.956 5.253-10.3l-.113.163c2.614-3.503-.58-5.487-2.456-6.98-7.83-6.23-8.55-12.052-.179-18.406 5.984-4.542 3.331-9.173-.431-13.597-5.008-5.68-5.757-10.945 2.155-14.456 3.744-1.662 6.875-3.263 6.955-7.883-3.652-8.798-5.093-16.613 6.977-20.253 5.25-1.582 5.289-6.162 4.237-10.818-.986-4.363-1.588-8.742 3.525-11.257 5.403.403 6.7-6.39 11.709-6.68-1.085-16.694 11.887-15.81 22.442-17.949-1.193-4.117-3.11-8.309 1.23-11.851 3.57-2.844 7.312-4.637 12.21-4.123 4.548.477 9.684 1.224 12.065-4.575l-.122.15c2.88-7.715 6.11-13.009 16.13-7.819 10.572 5.477 12.121-6.756 17.826-10.929 7.779 1.753 8.177 7.671 7.932 13.965a12.57 12.57 0 0 1-3.82 7.486c-3.736 2.973-7.594.905-11.423.233l-5.837.229c-1.098 2.838-2.597 5.258-5.965 5.736z"/><path fill="#bca50a" d="M398.042 139.184c15.98 7.506 7.83 15.615.592 23.701-3.694 7.99-4.322 16.483-5.032 25.152-.726 8.867-.766 18.739-10.94 23.502-6.37 1.52-8.55 5.525-6.962 11.774a5.823 5.823 0 0 1-1.513 3.642c-8.961 7.796-13.071 19.16-20.596 28.05-3.466 4.094-6.707 8.27-11.166 11.31-.898.881-1.834 1.733-2.709 2.61-3.05 4.291 3.007 8.532.104 12.793a6.11 6.11 0 0 1-3.466 1.724c-3.668.155-7.053-3.486-10.922-.784a17.504 17.504 0 0 1-3.655 1.418c-10.881-.324-18.124 12.926-30.221 8.118-9.418-12.947 3.083-38.081 20.194-40.706 5.28-.81 10.837.743 15.812-1.947 5.804-8.786-2.984-18.115.997-26.935 12.59-13.41 20.95-29.667 30.438-45.166 4.104-6.706 7.23-15.653 14.527-18.057 9.98-3.29 1.439-11.869 6.54-15.664-5.75-3.51-4.838-7.245.461-9.676 4.283-1.966 9.407-4.094 13.416.968a27.514 27.514 0 0 0 4.1 4.173z"/><path fill="#b79f02" d="M380.87 210.545c12.402-10.375 8.303-25.69 10.66-38.781 1.032-5.727 3.52-6.909 7.104-8.88 6.338 7.549 15.042 11.61 6.429 26.284-4.536 7.728-4.683 22.551-7.117 34.1-1.864 8.845-7.589 15.14-8.368 20.182-2.388 15.436-17.017 21.015-20.516 32.216-3.075 9.842-5.839 12.858-14.773 12.438-3.86 2.004-5.337 5.557-6.144 9.52-1.581 7.761-7.398 9.692-14.14 10.387-3.16.69-6.225 1.615-8.803 3.724-5.123 5.965-10.83 10.053-19.318 7.05-3.557-1.259-6.835-.407-8.788 3.3-2.294 3.543-4.691 6.974-8.734 8.763-3.886 1.09-6.999-.303-9.71-3.008a20.15 20.15 0 0 1-3.871-7.397c-.961-4.229.651-7.966 2.244-11.71 1.713-3.533 2.08-7.544 3.841-11.063a3.82 3.82 0 0 1 3.219-1.703c3.142 1.308 6.042 8.28 9.617.39a6.655 6.655 0 0 1 3.76-.801c12.595 2.551 17.924-8.96 26.702-13.773l-.152.126c3.976-3.248 8.019 3.366 11.993-.083q1.34.046 2.678.104c5.68-4.887-3.28-10.076.31-15.006l-.084.106c12.26-7.914 28.725-12.042 28.153-31.47-.155-5.257 6.795-5.41 7.506-10.119q.067-1.256.145-2.512c5.102-2.612-3.926-12.25 6.157-12.384z"/><path fill="#e0cb44" d="M297.76 34.113c1.705.703 4.154 2.515 5.003 1.945 14.22-9.553 20.051-1.433 23.974 11.038-1.158 5.542-5.528 7.474-10.164 9.107-8.969 1.942-4.304 8.726-4.803 13.68-3.95 15.83-14.867 28.41-20.21 43.588-4.277 3.33-10.046 1.81-14.481 4.538-8.575 19.135-9.83 39.966-14.187 60.046-1.259 5.804-2.298 11.588-4.93 16.96-6.787 6.14-5.21 17.883-14.791 22.164-10.03-8.602 1.586-17.22-.063-25.84 2.466-13.218 6.191-26.255 5.532-39.902.464-9.353-.925-18.638-1.088-27.964 5.903-13.972 15.206-25.996 22.803-39.006a237.562 237.562 0 0 0 13.703-27.36c8.381-1.575 4.092-10.286 8.01-14.388 1.435-3.176 2.292-6.74 5.693-8.606z"/><path fill="#c3ad16" d="M398.042 139.184c-6.106-2.786-12.179-6.088-19.436-.645 9.73 2.603-3.764 16.756 11.157 17.777-15.376.558-20.698 11.33-26.798 21.065-7.8 12.45-15.575 24.919-23.115 37.526-2.39 3.998-4.722 7.508-9.949 7.464-11.027-5.437-6.84-15.952-8.243-24.601 11.725-18.164 24.095-35.95 34.807-54.78 3.817-6.709 8.073-12.732 8.22-21.562.177-10.58 12.712-14.572 25.178-9.326 10.146 1.267 14.92 5.661 9.131 15.974a13.159 13.159 0 0 0-.952 11.108z"/><path fill="#c8b11d" d="M389.863 112.102c-9.941 1.128-23.664-5.498-20.54 16.196 1.22 8.464-10.476 19.086-16.921 28.283-9.212 13.144-14.355 29.25-28.172 39.067-11.837-12.496-4.197-23.84 2.047-35.27 6.091-10.539 14.227-19.764 19.866-30.632 2.225-4.29 5.627-8.106 4.431-13.485a19.25 19.25 0 0 1-1.088-6.25c3.891-10.435 6.203-22.224 20.357-23.924 3.518 1.65 7.695.157 11.104 2.323 4.65.281 8.988.511 6.745 7.432-1.811 5.588-2.955 11.437 2.171 16.26z"/><path fill="#dac63b" d="M380.947 88.41l-12.316.205c-5.833-14.074-14.946-22.128-31.225-17.005-1.616-1.035-2.973-2.502-4.896-3.066 1.065 1.533 3.524 1.262 4.247 3.299.918 6.329-1.998 11.332-5.414 16.184-8.408 11.944-16.662 23.971-22.015 37.711-1.056 2.711-2.424 5.447-6.196 4.93-3.355-2.968-3.067-7.364-4.388-11.111-1.118-3.845-5.81-4.242-7.418-7.606-.853-11.242 5.786-19.4 11.165-28.242 3.015-4.956 4.59-10.787 6.815-16.224.802-5.272.62-10.93 5.714-14.512 5.082.386 7.735-4.07 11.717-5.877 10.067-.013 22.992-5.175 23.063 12.809 17.345 1.158 19.313 19.149 30.091 27.497a13.67 13.67 0 0 1 1.056 1.008z"/><path d="M166.766 302.513l.03-2.981c2.687-7.197-1.563-14.193 1.878-22.492 8.396-20.247 23.022-27.61 43.117-28.301 3.521-1.726 7.09-2.75 10.819-.59 3.97 7.807-.848 13.95-4.275 20.042-4.03 7.163-8.222 14.167-10.123 22.251a15.66 15.66 0 0 1-1.943 3.728c-7.022 3.82-7.954 11.943-12.366 17.622-7.133-.61-14.24-1.824-21.461-1.111-4.401-.984-4.638-4.853-5.676-8.168z" class="cls-10"/><path fill="#e5d149" d="M214.08 252.012c-1.169.867-2.559 2.678-3.476 2.463-23.54-5.495-30.7 11.804-40.265 27.356-3.816 6.203 3.17 13.104-3.543 17.702.781-16.142-17.11-7.386-20.174-14.383-3.69-8.429-.86-20.242-15.803-18.663a4.4 4.4 0 0 1-.511-5.779c8.088-1.806 16.556-.35 24.27-2.976-1.445-.766.403 1.343.61-.628 1.686-16.013 1.686-16.013 7.485-18.912a12.987 12.987 0 0 1 4.376.592 27.174 27.174 0 0 1 5.81 3.488c6.91 5.482 15.08 5.73 23.365 5.902 6.148.128 12.691-1.066 17.857 3.838z"/><path fill="#700c0c" d="M172.388 448.175c-14.938 5.97-29.818 12.092-44.854 17.804-3.83 1.455-8.102 4.373-12.264.084-3.806-3.92-2.382-8.09-.867-12.308q19.716-54.901 39.446-109.797a6.01 6.01 0 0 1 6.319-.644 5.668 5.668 0 0 1 1.883 3.898c-.602 11.835-6.493 22.145-9.625 33.255a142.825 142.825 0 0 1-4.425 14.29 111.02 111.02 0 0 0-5.96 15.651c-4.759 13.918-9.576 27.818-16.01 43.574 10.305-2.262 17.862-6.593 25.987-9.017 6.8-2.03 13.364-7.037 21.06-2.801 1.064 2.157 1.07 4.187-.69 6.011z"/><path fill="#fc4545" d="M353.335 291.069c16.693 39.754 34.63 78.942 53.096 117.903 2.682 5.66 9.57 12.194 3.961 18.854-6.02 7.15-13.596.878-20.421-.445-2.328-.451-4.49-1.757-6.728-2.672 1.835-3.478 5.096-4.785 8.625-5.695 1.915-.353 3.85-.249 7.458-.09-3.644-7.13-7.247-13.52-9.924-20.284-3.89-7.935-6.967-16.261-11.603-23.839-4.809-8.721-7.768-18.24-11.873-27.27-5.665-15.948-15.269-30.251-19.535-46.788 1.58-3.758-3.655-12.407 6.944-9.674z"/><path fill="#5e0303" d="M306.718 452.265c-4.306 3.622-3.854 12.495-11.166 12.18-7.978-.344-8.794-8.421-11.257-14.044-6.869-15.681-13.368-31.525-20.013-47.304-3.929-1.082-5.254-4.411-6.67-7.67-5.247-10.556-9.188-21.643-13.266-32.678-2.518-5.816-4.51-11.84-7.123-17.624-2.189-6.273-5.77-12.25-4.158-19.34 1.495-3.25 4.013-4.42 7.474-3.67 8.728 5.35 8.245 15.653 12.6 23.36 5.378 14.175 11.114 28.216 16.812 42.265 3.052 7.047 6.163 14.075 8.956 21.23 4.948 14.241 12.424 27.437 16.978 42.142 2.957-2.943 4.523-6.994 9.22-6.412 3.322 1.933 2.69 4.702 1.613 7.565z"/><path fill="#f1de5d" d="M232.117 41.332c-.321-5.542.728-11.561-5.265-15.13q-1.744 2.355-3.53.033c.115-.47.078-1.086.368-1.387 8.966-9.32 14.376 9.142 22.424 3.076 7.477-5.637 14.24-10.132 21.697-.436 1.943 4.469 10.296 6.923 4.378 13.873-5.373 5.288-12.45 3.15-18.782 4.315-1.266.232-2.543.367-3.81.5-4.486.223-5.78 4.617-8.794 6.746l.079-.03c-8.143.105-5.809-7.733-8.765-11.56z"/><path fill="#be2d2d" d="M246.904 448.674c-2.841 9.785-5.883 19.518-8.445 29.376-1.378 5.298-2.108 10.985-8.631 12.116-6.658 1.154-9.104-4.591-12.306-8.741a67.632 67.632 0 0 1-3.833-6.185 5.502 5.502 0 0 1 4.265-4.163c7.759 3.195 11.023.002 13.888-7.54 3.036-7.992 1.32-19.574 13.522-22.174 3.047 1.91 3.393 4.38 1.54 7.31z"/><path fill="#ead54b" d="M270.494 40.795c4.324-5.484-3.062-8.61-2.681-13.303 3.635 2.181 7.5 2.744 10.826-.12 10.474-9.02 15.144-2.28 19.121 6.742-.627 3.564.17 7.652-3.68 10.034-2.613 2.567-5.345 4.903-9.334 4.816-5.7-1.055-11.796-1.449-14.252-8.17z"/><path fill="#9e2121" d="M217.122 471.913l-3.433 3.328c-4.87-5.84-10.781-11.106-14.384-17.645-6.477-11.755-14.824-15.174-26.917-9.42l.06-5.737c2.937-10.375 11.29-9.632 18.789-8.045 9.84 2.082 25.826 26.256 25.885 37.519z"/><path fill="#d03535" d="M246.904 448.674c-.299-2.479-.651-4.931-3.165-6.297-2.362-2.293-2.97-5.159-2.734-8.305 1.174-6.516 4.688-12.321 5.758-18.883a156.63 156.63 0 0 1 5.772-16.869c2.148-3.439 4.358-6.757 9.076-3.484l2.674 8.268c-9.269 13.86-9.378 31.22-17.38 45.57z"/><path fill="#851615" d="M160.479 344.256l-6.63-.298 12.916-41.443q2.728 3.213 5.455 6.43c3.179 8.355-1.324 15.625-3.237 23.271-2.067 4.55-2.742 10.102-8.504 12.04z"/><path fill="#b22727" d="M359.654 418.257c-5.09-1.046-10.782-.993-15.135-3.38-7.74-4.246-12.452-.974-17.13 4.43a6.868 6.868 0 0 1-4.929-4.738c.245-10.318 6.47-13.521 15.584-12.534 7.267.788 14.593 1.772 21.04 5.766a7.327 7.327 0 0 1 2.627 3.919 7.04 7.04 0 0 1-2.057 6.537z"/><path fill="#851616" d="M324.044 415.648l3.346 3.66c-6.518 11.22-12.015 23.08-20.672 32.957-.502-2.51-.603-5.212-3.213-6.714 2.102-13.226 6.094-25.155 20.54-29.903z"/><path fill="#f2da30" d="M133.517 88.969c-2.293 4.041-3.175 8.073-.95 12.577 2.538 5.136.051 9.326-4.651 10.467-11.55 2.8-10.152 10.957-9.138 19.282-6.922-8.485-10.912-16.585 3.658-21.236 8.607-2.748 5.981-9.506 4.671-14.607-1.817-7.076.753-7.802 6.41-6.483z"/><path fill="#dc3c3c" d="M359.654 418.257l.085-5.669c13.751-3.772 25.322-.574 32.569 9.002l-9.066 3.119c-8.114-1.228-16.158-2.719-23.588-6.452z"/><path fill="#f1d92b" d="M109.668 153.636c5.712 2.973 9.236 8.004 3.629 12.63-9.804 8.086-6.89 13.913.946 20.602 2.248 1.92 1.267 4.412-1.51 5.75-2.065-2.726-3.645-6.116-6.29-8.052-7.359-5.385-7.98-10.674-.508-16.023 5.715-4.09 5.568-9.171 3.733-14.907z"/><path fill="#f1da2f" d="M223.322 26.235l3.52-.033c-4.187 9.773-8.162 19.174-21.78 10.647-7.111-4.454-7.447 5.563-12.012 7.09-.145-10.13 2.591-16.402 14.21-10.42 8.492 4.371 12.246-1.47 16.062-7.284z"/><path fill="#f2dc3c" d="M130.888 261.005l-.07 5.482c-5.596-1.031-5.398-4.596-3.984-8.851 3.323-9.997-.43-15.891-10.603-17.958 4.011-5 7.766-.774 11.607.323 10.561 5.616 7.702 13.18 3.05 21.004z"/><path fill="#e9c561" d="M353.335 291.069c-8.262.806-4.365 7.241-5.297 11.441-2.15 11.15-5.862 12.003-15.648 3.595 6.348-2.804 13.949-3.76 13.09-14.121-.394-4.767 4.78-4.875 8.807-3.88q-.474 1.482-.952 2.965z"/><path fill="#f2da2d" d="M112.847 192.457c2.852 5.774-12.842 14.671 3.072 18.25.365 1.994 3.625 4.104-.24 5.926-15.318-9.753-15.36-10.105-2.832-24.176z"/><path fill="#f0d40e" d="M167.668 64.34c-1.63.962-3.345 2.87-4.878 2.734-11.293-.999-15.834 4.041-14.372 15.052.036.268-.593.912-.841.877a13.972 13.972 0 0 1-2.351-.715c.736-17.787.736-17.787 22.442-17.948z"/><path fill="#f0d61d" d="M193.173 43.791c.18 5.175-3.121 6.76-7.317 6.077-6.048-.985-11.288 1.934-16.957 2.621-.158-5.702 1.14-9.556 8.164-6.901a16.667 16.667 0 0 0 16.11-1.797z"/><path fill="#b99714" d="M249.333 121.59c4.164 9.439 3.576 19.384 3.13 29.315-9.476 6.206-14.87 20.217-29.964 15.7-6.504-7.04 2.416-15.866-2.698-22.994-8.973-.592-7.804 7.12-9.614 11.985-4.242 11.405-3.486 24.28-10.115 35.052a103.576 103.576 0 0 1-20.114 15.05c-4.589 2.618-9.454 6.084-14.826 1.236-5.417-9.81 4.426-17.962 2.967-27.338 3.172-11.29 8.08-22.182 8.002-34.24 1.933-5.456 3.838-10.927 8.034-15.187 14.681-15.186 32.738-21.021 53.526-19.344 6.248 1.03 10.597 4.13 11.672 10.765z"/><path fill="#e8d452" d="M249.333 121.59c-4.281-2.41-6.559-7.594-11.874-8.571-5.556 1.223-10.232-.743-14.547-4.013 1.11-14.602 11.554-24.677 18.005-36.659 2.826-5.25 6.326-10.002 5.803-16.338-.173-4.345-3.283-9.46 3.162-12.072q1.316.011 2.632-.025c3.712 3.075 7.693 7.373 12.694 4.81 8.628-4.424 13.353 1.524 19.006 5.617.374.571.736 1.153 1.098 1.734-1.215 22.497-18.354 37.157-27.535 55.733-1.9 3.842-3.813 8.103-8.444 9.784z"/><path fill="#ecd95a" d="M130.888 261.005c-1.154-6.98 2.589-14.67-3.05-21.001 2.52-4.347 5.722-7.774 10.925-8.921 2.943-.65 6.645-2.473 5.47-5.547-7.496-19.635 11.574-24.637 19.23-35.875 2.228 16.768 3.84 33.543.595 50.376-7.111 1.57-4.391 8.32-7.882 13.548 3.292 6.461 3.983-8.102 5.94.295 1.615 6.933-5.452 6.164-9.924 7.636-7.29 2.4-14.294 3.868-21.304-.51z"/><path fill="#ac8523" d="M164.058 240.037c-5.484-16.73.18-33.591-.595-50.376q2.838-7.696 5.678-15.391 2.493 1.43.37 3.368c1.852 10.26-3.599 19.83-2.83 29.986 6.035 10.843 6.552 21.658-.162 32.437l-1.23-.056z"/><path fill="#a37a1e" d="M222.912 109.006q7.276 2.003 14.55 4.01c-3.378 3.378-7.152 1.42-11.025 1.254-11.906-.512-23.252.956-32.348 10.337-2.429 2.504-3.822 8.942-9.953 5.56 8.715-14.765 22.566-20.124 38.776-21.161z"/><path fill="#9d721d" d="M169.512 177.638l-.37-3.366c-.134-10.23 4.102-19.407 6.958-28.916 4.58 12.144-3.552 21.693-6.588 32.282z"/><path fill="#d3be30" d="M232.117 41.332c8.346-.26 3.615 9.395 8.764 11.559-3.897 5.546-7.91 1.64-11.892.143-1.69-2.09-1.927-4.215-.146-6.385l3.274-5.317z"/><path fill="#d0bb2b" d="M228.843 46.65l.145 6.383c-.525 2.295-.489 5.718-3.963 4.78-5.505-1.484-4.928-6.593-5.326-10.935 2.935-4.515 6.072-1.067 9.144-.229z"/><path d="M199.215 70.84l-8.966-.169.1.108c-1.788-3.965-5.45-8.867-.491-11.868 4.914-2.974 3.494 7.9 9.3 6.07l.057 5.86z" class="cls-10"/><path fill="#d2bd2f" d="M207.894 52.842l5.967-5.738c2.907 3.966-.126 9.761 7.048 13.536-9.738 1.821-12.083-2.05-13.015-7.798z"/><path fill="#cfb929" d="M249.882 43.937c-4.37 3.154 2.352 9.214-3.162 12.07q-2.959-1.541-5.917-3.086c.605-5.441-1.316-13.435 9.079-8.984z"/><path fill="#edd95a" d="M157.775 106.65c-4.433 6.976-7.987 14.27-14.992 19.754-3.117 2.44-2.342 9.875-3.292 15.05-.496 2.696-1.967 5.044-4.696 4.61-2.155-.343-4.982-1.897-5.888-3.72-4.224-8.502 9.528-33.107 19.753-35.932 3.106-2.51 6.148-2.584 9.115.238z"/><path d="M181.415 76.74c-4.321 11.563-13.281 18.454-23.873 23.703l.06.053c-5.87-7.47-2.606-15.137 3.86-17.546 6.304-2.348 9.73-16.405 19.82-6.322z" class="cls-43"/><path d="M190.25 70.671c-.01 6.3-4.252 6.433-8.836 6.068l-.131-.11c-1.868-3.945-5.383-8.817-.383-11.78 4.715-2.794 3.593 7.958 9.448 5.93zm-32.475 35.979l-9.115-.238c-.573-2.266-2.378-5.562-1.498-6.614 3.323-3.975 6.775 1.754 10.44.698l-.06-.053c.447 2.055 3.237 4.022.233 6.207z" class="cls-43"/><path fill="#eec72a" d="M329.9 160.04c-5.717 11.26-11.779 22.464-5.672 35.608 1.772 8.934 1.384 18.325 5.675 26.723.898 9.955 5.245 19.55 3.107 29.82-12.437.414-25.412 6.22-36.828-3.63-3.275-7.66-3.923-15.922-5.192-23.889-6.528 9.391-.863 24.36-14.301 30.343-10.379.696-21.08 4.289-30.463-3.496-1.29-13.135 1.713-25.462 7.068-37.34a843.63 843.63 0 0 0 68.748-51.824c2.249-1.865 4.584-3.775 7.858-2.316z"/><path fill="#c9b21e" d="M279.482 252.113c3.01-12.097 5.65-24.303 9.164-36.253 2.278-7.748 4.357-4.542 5.551.753-3.977 10.391 1.517 19.714 3.321 29.454 10.243 11.246 23.684 3.953 35.492 6.123-2.158.954-4.572 3.082-6.436 2.677-19.577-4.248-28.097 7.812-35.624 22.692-3.19 6.306-2.565 10.023 3.394 13.192 1.78 1.679 4.845 2.813 2.624 6.188q-1.25-.126-2.503-.229c-3.989 3.78-8.07-3.059-12.065.106l.134-.11c-5.391 3.017-2.483 8.021-2.926 12.223l-2.953 11.298c-9.344 1.581-15.08 13.675-26.54 9.135-3.918-.85-5.635-5.12-9.48-6.106-2.367.422-5.267-.038-5.76 3.485-10.293 6.12-12.669 5.02-18.757-8.676 2.762-5.396 6.64-9.654 12.36-12.022a45.368 45.368 0 0 1 6.192-1.426c4.273-.598 6.045-3.088 4.976-7.21-4.363-16.833 6.995-27.658 15.286-39.464 6.19-8.814 16.964-1.213 24.55-5.83z"/><path d="M374.568 225.441c.92 2.758 3.068 5.81 2.492 8.21-1.058 4.402-3.518-.29-5.266-.027-4.734.713-1.013 3.382-.944 5.213.284 7.491 2.775 15.948-10.352 15.018-2.514-.178 1.844 12.034-8.087 9.396.2 18.055-9.537.605-13.502 3.779 9.5-12.875 21.476-23.96 27.78-39.165 1.271-3.065 4.991-2.382 7.88-2.424z" class="cls-46"/><path fill="#dec942" d="M296.968 296.939l-2.624-6.188c10.853.047 17.537-13.767 29.82-8.968-1.125 3.644 2.689 11.123-3.717 10.302-8.899-1.14-12.898 18.283-23.479 4.854z"/><path d="M380.87 210.545c-3.648 2.13-2.39 4.388-.609 7.221 6.843 10.886-1.386 5.9-5.549 5.158-10.566-2.816 1.994-7.746-.817-12.178-.952-1.5 4.176-4.377 6.975-.2z" class="cls-46"/><path fill="#d9c53a" d="M338.992 266.924c.851 5.02 9.925 10.209-.307 15.005-.822-2.248-.975-5.349-2.575-6.6-7.752-6.066-3.057-7.333 2.882-8.405z"/><path fill="#dfcb45" d="M336.005 281.826c-3.93 9.986-7.988 1-11.992.082 3.904-13.561 7.98-2.056 11.992-.082z"/><path fill="#790000" d="M332.39 306.105c5.96 2.05 12.444 6.38 15.647-3.592 9.35 13.765 15.382 29.06 20.587 44.735-3.158 7.572-10.76 7.972-17.02 10.146-28.28 9.822-57.167 18-84.063 31.512l-17.737-41.713c11.397-9.116 26.824-9.014 38.741-16.94l5.945-8.608c1.707-6.33 6.65-7.27 11.183-4.773 10.405 5.732 14.667.017 18.11-8.351 2.255-2.993 5.643-1.95 8.607-2.416z"/><path fill="#8c0302" d="M288.545 330.254c-9.368 13.756-25.116 12.921-38.741 16.94q-4.582-11.97-9.167-23.938c4.82-4.068 4.844 3.59 8.113 3.318 5.74 3.868 10.805 5.034 16.074-1.44 4.638-5.7 10.009-4.94 14.45.991z"/><path fill="#ead055" d="M279.275 326.125c-5.047-2.713-9.966-4.403-14.085 1.537-6.07 8.751-11.451 6.726-16.44-1.087 6.3 1.28 12.252 1.726 16.394-4.792 3.08-4.848 7.351-3.373 11.51-1.554q1.311 2.946 2.62 5.896z"/><path fill="#e9cd5e" d="M323.783 308.521c-1.442 11.067-5.703 17.504-17.737 10.475-4.848-2.832-8.14-.119-11.557 2.648-.49-6.142 1.623-10.795 8.25-7.355 9.42 4.89 15.333.858 21.044-5.768z"/><path fill="#deca42" d="M282.4 296.816c3.97-5.767 8.028-1.604 12.064-.106-.11 3.75.662 8.79-3.878 9.652-6.929 1.315-3.503-7.915-8.186-9.546z"/><path fill="#e7d351" d="M279.608 308.93c-3.582-4.01-5.716-8.491-3.663-13.843.1-.264 4.298 1.043 6.588 1.618-.196 4.261 1.383 8.948-2.925 12.224z"/><path d="M279.482 252.113c-17.117 1.63-27.64 11.487-34.333 26.731-2.648 6.032-5.084 11.127-1.568 18.023 4.25 8.334-.404 11.855-8.79 11.655-1.685-9.25-6.347-12.924-15.46-8.24a4.212 4.212 0 0 1-3.674-1.163c-2.457-4.11-6.305-6.505-10.518-8.445.773-16.094 14.753-26.516 17.864-41.606 3.649-12.974 10.24-24.074 20.795-32.65 4.895-6.386 2-17.007 11.391-20.948 7.016 13.353-6.366 23.638-5.585 36.406.325 5.319-1.843 11.46-2.814 17.24 10.402 6.41 21.846 1.437 32.692 2.996z" class="cls-56"/><path fill="#ddb722" d="M243.798 216.418c-6.091 11.42-11.847 23.052-20.796 32.65-3.247.154-6.79-.588-8.922 2.945-10.618-.044-21.278.46-31.836-.364a15.47 15.47 0 0 1-12.893-8.297c5.997-8.362 15.026-13.046 23.01-19.002a12.311 12.311 0 0 1 3.886-.755c11.83 1.866 10.95-11.035 17.59-15.206 6.059-4.209 12.116-8.402 18.13-12.66 4.246-3.006 8.664-7.058 14.596-3.234 2.15 8.33-7.839 15.256-2.765 23.923z"/><path fill="#cba71b" d="M246.563 192.495c-13.12 1.814-19.609 15.498-32.314 18.053-5.319-16.517-.332-30.97 8.924-44.57 12.773.823 16.94-15.081 29.293-15.073 1.576 14.366-2.656 27.909-5.903 41.59z"/><path fill="#a67c20" d="M246.79 249.116c-2.026-18.638 7.1-35.529 8.402-53.646 6.588-27.458 8.858-55.877 18.388-82.681a14.71 14.71 0 0 1 2.7 4.1c2.39 18.287-5.723 35.082-7.511 52.783-4.648 14.51-2.788 30.9-12.656 43.903-4.526 11.475-3.23 24.477-9.323 35.541z"/><path fill="#c7b11c" d="M285.425 47.113l8.657-2.966c-2.634 4.188 1.81 13.577-8.769 11.924l.111-.207c-4.033-2.918-5.497-5.835 0-8.751z"/><path fill="#c4ad16" d="M315.02 52.973c-1.031 5.184-1.837 10.456-5.715 14.515-4.238-7.26-4.795-13.066 5.715-14.515z"/><path d="M273.588 115.538q-.026-1.377-.008-2.751 8.873-.414 17.746-.834c3.854 1.127 8.603-1.13 11.648 3.07-9.68 6.772-19.485 6.393-29.386.515z" class="cls-62"/><path fill="#deb823" d="M256.113 213.575l8.84-44.558c10.807-7.88 19.823-18.574 33.756-21.571 7.922-3.668 10.06-11.87 14.098-18.416 11.496-18.634 19.46-21.577 40.475-13.987 5.871 4.061 1.308 8.018-.7 11.18-7.273 11.454-15.076 22.57-22.68 33.815-16.627 17.295-37.93 28.777-55.675 44.74-4.864 4.376-10.365 9.442-18.114 8.797z"/><path fill="#d3bd2f" d="M303.049 130.2c7.226-21.907 23.953-38.563 32.895-59.52l-.04.037c15.203-11.665 29.385-3.91 32.727 17.898-11.08 4.001-12.444 15.332-17.828 23.63-21.779-2.607-34.837 8.39-42.819 27.384a4.75 4.75 0 0 1-4.47 3.123c-3.39-4.065-9.479-8.034-.465-12.553z"/><path d="M303.267 142.31c1.768-2.298 4.248-4.339 5.191-6.937 7.359-20.268 22.11-26.63 42.345-23.126q1.245 1.4 2.484 2.798c-22.777-4.617-35.299 7.302-43.865 26.529-3.134 7.034-3.861 6.71-9.468 9.567-2.438-4.273-.893-7.05 3.313-8.83z" class="cls-62"/><path fill="#caa61b" d="M303.267 142.31l-3.31 8.83c-10.236-1.123-14.836 8.142-22.108 12.387-4.2 2.451-7.635 5.827-12.9 5.488 1.661-18.023 9.294-35.083 8.639-53.48q14.696-.251 29.388-.51.036 7.584.075 15.174c-5.094 4.13 1.354 8.053.216 12.112z"/><path fill="#c2ab13" d="M335.944 70.68c-4.036-2.422-6.251 8.508-10.686 1.563-1.648-2.582.452-4.907 2.637-6.057 4.698-2.473 7.526-.847 8.01 4.531z"/><path fill="#a70100" d="M217.513 317.465c4.022 6.396 6.634 15.436 17.363 9.273l5.77 17.454c-1.695 1.924-3.905 3.466-6.34 3.39-23.578-.743-46.887-2.841-67.865-15.229l5.78-23.408c7.613-2.851 15.312-6.153 20.516 3.848 5.124 3.634 10.238 4.743 16.26 1.521 3.172-1.697 7.686-3.253 8.516 3.15z"/><path d="M217.513 317.465c-4.519-6.32-7.362-.025-10.38 1.692-8 4.55-13.48 4.566-14.395-6.365 2.544-7.283-1.078-18.515 12.142-18.964 4.009 2.076 8.153 3.872 12.2 5.871l-.086-.057c2.767 4.66 14.646-3.077 12.058 8.865-5.24 1.19-5.399 8.927-11.54 8.958z" class="cls-56"/><path fill="#f0dd60" d="M217.08 299.7c-6.74 3.596-11.144 2.342-12.197-5.873q.125-1.575.256-3.152c10.36-5.434 11.798.939 11.94 9.024z"/><path fill="#c8a51a" d="M193.282 225.268c-6.14 8.456-14.334 14.196-23.93 18.083q-1.418-1.642-2.833-3.289l.16-32.439c12.994-1.957 20.173-14.234 32.1-18.079 6.186 13.142-.371 24.323-5.497 35.724z"/><path fill="#c80000" d="M243.619 433.387l.12 8.99c-5.352 7.296-7.127 16.062-9.166 24.495-3.1 12.816-8.22 15.145-17.452 5.043-4.859-12.475-14.13-22.061-22.52-31.882-6.871-8.042-15.041-1.652-22.152 2.406l-52.203 17.52 19.388-50.376c4.893-2.398 9.588-.22 14.341.617 24.614 4.337 48.89 10.335 73.452 14.94 6.035 1.132 13.05 1.106 16.192 8.248z"/><path fill="#7b0000" d="M261.611 394.836c-4.342-.555-5.71 2.26-6.499 5.734-3.889 3.28-8.36 2.21-12.625 1.412-27.409-5.126-54.695-10.876-82.027-16.392a23.462 23.462 0 0 1-11.769-5.607l11.817-32.744c15.144 1.1 29.574 5.902 44.393 8.706 13.91 2.633 27.828 4.833 41.908 6.132q7.4 16.38 14.802 32.759z"/><path fill="#ac0000" d="M243.619 433.387c-27.158-5.91-54.234-12.25-81.526-17.46-7.788-1.486-15.252-3.215-22.458-6.344-.025-5.762 1.581-10.876 5.923-14.902 4.714-2.366 9.672-1.547 14.47-.718 26.145 4.515 51.991 10.523 77.952 15.96 4.298.901 8.653 2.063 11.714 5.688.685 6.852-3.17 12.152-6.075 17.776z"/><path fill="#960000" d="M249.694 415.611L145.56 394.683q1.564-7.352 3.131-14.7l106.425 20.589q-2.715 7.518-5.422 15.04z"/><path fill="#8f0000" d="M246.809 362.077c-10.265 6.931-20.795 2.355-30.778-.154-18.558-4.663-38.73-3.396-55.523-14.684l-.028-2.983 5.962-11.902c24.772 3.718 48.598 13.367 74.206 11.839q3.078 8.941 6.16 17.884z"/><path fill="#a30000" d="M324.044 415.648c-9.993 7.806-13.435 20.112-20.541 29.901-2.526 3.37-5.054 6.738-8.413 11.214-6.535-16.645-14.68-31.002-18.677-47.075 1.905-5.973 7.217-7.774 12.255-9.574 25.441-9.089 50.723-18.643 76.565-26.58 5.214-1.601 10.432-3.252 15.51.404 5.578 7.09 8.339 15.537 11.456 23.812-9.208 8.439-20.311 11.713-32.533 11.938-6.726-1.107-13.746-1.35-20.108-3.522-9.723-3.319-13.731.787-15.514 9.482z"/><path fill="#8e0000" d="M380.743 373.938c-35.887 8.675-70.126 22.159-104.33 35.75a70.481 70.481 0 0 1-8.872-20.783c.063-8.121 6.785-8.631 12.174-10.525q44.436-15.619 88.909-31.132c6.39 7.829 7.418 18.094 12.119 26.69z"/><path fill="#b80202" d="M359.666 409.688c10.28-5.518 21.361-8.855 32.534-11.938l12.181 23.84H392.31c-10.124-5.653-21.511-6.732-32.57-9.001q.023-1.452-.073-2.9z"/><path fill="#ceb827" d="M285.425 47.113c-1.969 2.917-1.814 5.834 0 8.75-8.756.076-16.242-7.635-26.536-1.842-5.39 3.033-5.713-5.548-6.373-10.108 5.161-5.834 12.492.853 17.978-3.116q7.465 3.156 14.93 6.316z"/><path fill="#e6d34d" d="M193.282 225.268c-1.56-12.43 5.68-23.505 5.5-35.723 3.137-14.15 5.76-28.444 9.642-42.387 1.832-6.578 4.68-15.206 14.832-7.806 1.46 19.312-5.731 37.32-8.81 55.93-1.092 6.596-2.301 13.465-4.668 19.947-2.285 6.261-4.466 12.194-13.017 10.446l-3.48-.407z"/><path fill="#a2781f" d="M196.76 225.675c6.706-1.18 9.932-5.617 11.222-11.915q7.622-37.209 15.273-74.41c7.428 8.901-2.798 17.743-.084 26.627-2.94 14.864-8.203 29.262-8.924 44.57-7.354 17.268-7.354 17.268-17.486 15.128z"/><path fill="#aa831e" d="M297.518 246.067c-6.532-11.676-7.243-17.98-3.32-29.456q1.659 14.73 3.32 29.456z"/><path d="M229.052 308.507c-.262-3.803-2.02-4.58-5.658-3.507-4.285 1.263-6.046-1.431-6.4-5.358 3.197-9.567 11.501-5.898 16.438-4.383 6.929 2.125 4.101 8.403 1.36 13.264l-5.74-.016z" class="cls-82"/><path fill="#e8d453" d="M263 294.456c10.271 6.705 10.802 10.789 2.484 16.325L263 294.456z"/><path d="M253.78 310.195c-1.253-4.74-2.266-8.809.827-11.807 1.727-1.675 3.408.645 4.388 2.32 2.783 4.763-.058 7.041-5.215 9.487z" class="cls-82"/><path d="M34.997 535.679h26.749v7.025h-19.02v7.478h16.761v7.026H42.725v13.6h-7.728zm32.268-1.506h8.03v6.775h-8.03zm.201 9.736h7.628v26.9h-7.628zm15.156-9.736h7.628v36.636h-7.628zm13.499 23.336v-.1c0-7.678 5.47-14.002 13.3-14.002 8.983 0 13.098 6.976 13.098 14.604 0 .602-.05 1.306-.1 2.008h-18.72a6.239 6.239 0 0 0 6.574 5.27 8.816 8.816 0 0 0 6.525-2.76l4.366 3.864a13.455 13.455 0 0 1-10.99 5.018c-8.08 0-14.053-5.67-14.053-13.902zm18.97-2.258c-.451-3.413-2.459-5.721-5.67-5.721-3.162 0-5.22 2.258-5.822 5.721zm13.901-19.572h8.33l9.235 14.854 9.235-14.854h8.33v35.13h-7.678v-22.936l-9.887 15.006h-.2l-9.787-14.854v22.784h-7.578zm41.453 21.83v-.1c0-7.678 5.47-14.002 13.3-14.002 8.983 0 13.098 6.976 13.098 14.604 0 .602-.05 1.306-.1 2.008h-18.72a6.239 6.239 0 0 0 6.575 5.27 8.816 8.816 0 0 0 6.524-2.76l4.366 3.864a13.455 13.455 0 0 1-10.99 5.018c-8.08 0-14.053-5.67-14.053-13.902zm18.97-2.258c-.451-3.413-2.458-5.721-5.67-5.721-3.162 0-5.22 2.258-5.822 5.721zm14.354 7.929v-12.747h-3.212v-6.524h3.212v-6.876h7.627v6.876h6.324v6.524h-6.324v11.493c0 1.757.753 2.61 2.46 2.61a7.764 7.764 0 0 0 3.764-.954v6.122a11.24 11.24 0 0 1-6.022 1.557c-4.668 0-7.83-1.857-7.83-8.08zm17.965-.1v-.1c0-5.872 4.467-8.582 10.84-8.582a19.114 19.114 0 0 1 6.575 1.104v-.452c0-3.161-1.957-4.918-5.772-4.918a19.786 19.786 0 0 0-7.427 1.455l-1.907-5.821a23.735 23.735 0 0 1 10.439-2.158c4.165 0 7.176 1.104 9.083 3.011 2.008 2.007 2.911 4.968 2.911 8.582v15.608H239.1v-2.911a10.342 10.342 0 0 1-8.13 3.413c-5.07 0-9.235-2.911-9.235-8.23zm17.516-1.757v-1.354a11.825 11.825 0 0 0-4.869-1.004c-3.262 0-5.27 1.305-5.27 3.714v.1c0 2.058 1.707 3.262 4.166 3.262 3.563 0 5.973-1.957 5.973-4.718zm28.103-7.979v-.1a17.855 17.855 0 0 1 18.317-18.168c6.625 0 10.59 2.208 13.851 5.42l-4.918 5.671c-2.71-2.459-5.47-3.965-8.983-3.965-5.922 0-10.187 4.92-10.187 10.94v.101c0 6.023 4.165 11.041 10.187 11.041 4.015 0 6.474-1.605 9.234-4.115l4.918 4.969a17.957 17.957 0 0 1-14.403 6.273 17.732 17.732 0 0 1-18.016-18.067zm37.79-19.171h7.628v13.55c1.756-2.258 4.014-4.316 7.878-4.316 5.772 0 9.134 3.814 9.134 9.987v17.415h-7.628v-15.006c0-3.613-1.706-5.47-4.617-5.47s-4.767 1.857-4.767 5.47v15.006h-7.628zm29.959 23.336v-.1c0-7.678 5.47-14.002 13.3-14.002 8.983 0 13.098 6.976 13.098 14.604 0 .602-.05 1.306-.1 2.008h-18.72a6.24 6.24 0 0 0 6.575 5.27 8.815 8.815 0 0 0 6.523-2.76l4.367 3.864a13.452 13.452 0 0 1-10.99 5.018c-8.08 0-14.053-5.67-14.053-13.902zm18.97-2.258c-.45-3.413-2.459-5.721-5.67-5.721-3.163 0-5.22 2.258-5.822 5.721zm11.793 2.258v-.1a13.81 13.81 0 0 1 14.103-14.002c5.07 0 8.23 1.706 10.74 4.517l-4.668 5.019c-1.706-1.807-3.412-2.961-6.122-2.961-3.815 0-6.524 3.362-6.524 7.327v.1c0 4.116 2.66 7.428 6.825 7.428 2.56 0 4.316-1.104 6.173-2.861l4.466 4.516a13.545 13.545 0 0 1-10.99 4.92 13.736 13.736 0 0 1-14.003-13.903zm29.962-23.336h7.628v19.523l8.933-9.787h9.134l-10.238 10.59 10.59 16.31h-8.733l-7.026-10.991-2.66 2.81v8.18h-7.628zm27.15 23.336v-.1c0-7.678 5.47-14.002 13.3-14.002 8.983 0 13.098 6.976 13.098 14.604 0 .602-.05 1.306-.1 2.008h-18.72a6.24 6.24 0 0 0 6.575 5.27 8.815 8.815 0 0 0 6.523-2.76l4.367 3.864a13.452 13.452 0 0 1-10.99 5.018c-8.08 0-14.053-5.67-14.053-13.902zm18.97-2.258c-.45-3.413-2.459-5.721-5.67-5.721-3.163 0-5.22 2.258-5.822 5.721zm13.099-11.341h7.628v5.42c1.555-3.715 4.065-6.124 8.582-5.923v7.98h-.402c-5.069 0-8.18 3.062-8.18 9.485v9.937h-7.628z"/></svg>