<svg xmlns="http://www.w3.org/2000/svg" role="img" viewBox="611.62 303.62 223.52 254.02"><title>flame-channel-parser logo</title><path fill="none" stroke="#231F20" stroke-width="2" d="M666.396 337.461l37.334 17"/><path fill="none" stroke="#231F20" stroke-width="3" d="M639.595 316.805l6-6 6.333 6.334"/><path fill="none" stroke="#231F20" stroke-width="3" d="M645.539 310.178v140.883h145.755"/><path fill="none" stroke="#BE1E2D" stroke-width="3" d="M729.062 389.461c.604-.15 1.255-.295 1.947-.436"/><path fill="none" stroke="#BE1E2D" stroke-dasharray="3.878 3.878" stroke-width="3" d="M734.819 388.314c15.412-2.76 42.825-7.609 50.882-47.971"/><path fill="none" stroke="#BE1E2D" stroke-width="3" d="M786.062 338.434c.117-.648.229-1.307.335-1.973"/><path fill="none" stroke="#231F20" stroke-width="3" d="M645.729 337.461h20.667s16 8 19.333 24 7.999 68 17.333 56.667 12.666-25.334 26-28.667"/><circle cx="703.73" cy="354.461" r="2.333" fill="#231F20"/><path fill="none" stroke="#231F20" stroke-width="2" d="M712.63 404.237l-20.268 35.665"/><circle cx="692.362" cy="439.903" r="2.333" fill="#231F20"/><path fill="#FFF" stroke="#231F20" stroke-width="2" d="M709.73 397.794h8v8h-8z"/><path fill="none" stroke="#231F20" stroke-width="3" d="M785.294 445.061l6 6-6.334 6.334"/><path fill="#be1e2d" d="M624.85 493.771h7.75v23.553h-2.8v-21.237h-4.98q-1.498 0-2.089.606-.575.605-.575 2.18v1.498h4.587v2.165h-4.587v14.788h-2.8v-14.788h-2.664v-2.165h2.664v-1.18q0-2.831 1.317-4.118 1.317-1.302 4.178-1.302zm25.313 15.031q-3.375 0-4.677.772-1.302.772-1.302 2.634 0 1.483.969 2.361.984.863 2.664.863 2.316 0 3.708-1.635 1.408-1.65 1.408-4.374v-.62zm5.555-1.15v9.672h-2.785v-2.573q-.953 1.544-2.376 2.286-1.423.726-3.482.726-2.603 0-4.147-1.453-1.529-1.468-1.529-3.92 0-2.861 1.907-4.314 1.923-1.453 5.722-1.453h3.905v-.273q0-1.922-1.271-2.967-1.257-1.06-3.542-1.06-1.453 0-2.83.349-1.378.348-2.65 1.044v-2.573q1.529-.59 2.967-.878 1.438-.303 2.8-.303 3.678 0 5.495 1.908 1.816 1.907 1.816 5.782zm20.952-4.027q1.044-1.876 2.497-2.77 1.453-.893 3.42-.893 2.65 0 4.088 1.862 1.438 1.847 1.438 5.268v10.232h-2.8v-10.141q0-2.437-.863-3.618-.863-1.18-2.634-1.18-2.165 0-3.42 1.437-1.257 1.438-1.257 3.92v9.582h-2.8v-10.141q0-2.453-.863-3.618-.863-1.18-2.664-1.18-2.135 0-3.391 1.452-1.256 1.438-1.256 3.906v9.581h-2.8v-16.953h2.8v2.634q.953-1.56 2.285-2.3 1.332-.743 3.164-.743 1.846 0 3.133.939 1.302.938 1.922 2.724z"/><path fill="#be1e2d" d="M697.852 508.151v1.363h-12.806q.182 2.876 1.726 4.39 1.559 1.498 4.329 1.498 1.604 0 3.103-.394 1.514-.393 2.997-1.18v2.633q-1.499.636-3.073.97-1.574.332-3.194.332-4.056 0-6.433-2.361-2.361-2.361-2.361-6.388 0-4.162 2.24-6.6 2.256-2.452 6.07-2.452 3.42 0 5.404 2.21 1.998 2.195 1.998 5.98zm-2.785-.817q-.03-2.286-1.287-3.648-1.241-1.362-3.3-1.362-2.33 0-3.738 1.317-1.393 1.317-1.605 3.708z"/><path d="M713.686 501.022v2.603q-1.18-.65-2.376-.968-1.181-.333-2.392-.333-2.71 0-4.208 1.725-1.499 1.71-1.499 4.814 0 3.103 1.499 4.828 1.499 1.71 4.208 1.71 1.211 0 2.392-.317 1.195-.333 2.376-.984v2.573q-1.165.545-2.422.818-1.241.272-2.649.272-3.83 0-6.085-2.407-2.255-2.406-2.255-6.493 0-4.148 2.27-6.524 2.286-2.377 6.252-2.377 1.287 0 2.513.273 1.226.257 2.376.787zm20.966 6.07v10.232h-2.785v-10.141q0-2.407-.938-3.603-.939-1.196-2.816-1.196-2.255 0-3.557 1.438t-1.302 3.92v9.582h-2.8v-23.553h2.8v9.234q1-1.529 2.347-2.286 1.362-.757 3.133-.757 2.921 0 4.42 1.817 1.498 1.801 1.498 5.313zm15.29 1.71q-3.375 0-4.677.772-1.302.772-1.302 2.634 0 1.483.97 2.361.983.863 2.663.863 2.316 0 3.709-1.635 1.407-1.65 1.407-4.374v-.62zm5.556-1.15v9.672h-2.786v-2.573q-.953 1.544-2.376 2.286-1.423.726-3.481.726-2.604 0-4.148-1.453-1.529-1.468-1.529-3.92 0-2.861 1.907-4.314 1.923-1.453 5.722-1.453h3.905v-.273q0-1.922-1.271-2.967-1.256-1.06-3.542-1.06-1.453 0-2.83.349-1.378.348-2.65 1.044v-2.573q1.53-.59 2.967-.878 1.438-.303 2.8-.303 3.679 0 5.495 1.908 1.817 1.907 1.817 5.782zm21.844-.56v10.232h-2.785v-10.141q0-2.407-.939-3.603-.938-1.196-2.815-1.196-2.256 0-3.557 1.438-1.302 1.438-1.302 3.92v9.582h-2.8v-16.953h2.8v2.634q.999-1.529 2.346-2.286 1.362-.757 3.133-.757 2.922 0 4.42 1.817 1.499 1.801 1.499 5.313zm21.678 0v10.232h-2.786v-10.141q0-2.407-.938-3.603-.939-1.196-2.815-1.196-2.256 0-3.558 1.438-1.301 1.438-1.301 3.92v9.582h-2.8v-16.953h2.8v2.634q.999-1.529 2.346-2.286 1.362-.757 3.133-.757 2.922 0 4.42 1.817 1.499 1.801 1.499 5.313zm22.086 1.059v1.363H808.3q.182 2.876 1.726 4.39 1.559 1.498 4.329 1.498 1.605 0 3.103-.394 1.514-.393 2.997-1.18v2.633q-1.498.636-3.073.97-1.574.332-3.193.332-4.057 0-6.434-2.361-2.36-2.361-2.36-6.388 0-4.162 2.24-6.6 2.255-2.452 6.07-2.452 3.42 0 5.403 2.21 1.998 2.195 1.998 5.98zm-2.785-.817q-.03-2.286-1.287-3.648-1.241-1.362-3.3-1.362-2.33 0-3.738 1.317-1.393 1.317-1.605 3.708zm9.356-13.563h2.785v23.553h-2.785z"/><path fill="#be1e2d" d="M675.444 543.981v8.991h-2.8v-23.4h2.8v2.572q.878-1.513 2.21-2.24 1.347-.742 3.21-.742 3.087 0 5.01 2.453 1.937 2.452 1.937 6.448 0 3.996-1.938 6.448-1.922 2.452-5.01 2.452-1.862 0-3.209-.726-1.332-.742-2.21-2.256zm9.476-5.918q0-3.073-1.272-4.814-1.256-1.756-3.466-1.756t-3.481 1.756q-1.257 1.741-1.257 4.814t1.257 4.828q1.271 1.741 3.481 1.741t3.466-1.74q1.272-1.756 1.272-4.83zm17.212-.061q-3.375 0-4.677.772-1.302.772-1.302 2.634 0 1.483.969 2.361.984.863 2.664.863 2.316 0 3.709-1.635 1.407-1.65 1.407-4.374v-.62zm5.555-1.15v9.672h-2.785v-2.573q-.953 1.544-2.376 2.286-1.423.726-3.482.726-2.603 0-4.147-1.453-1.529-1.468-1.529-3.92 0-2.861 1.907-4.314 1.923-1.453 5.722-1.453h3.905v-.273q0-1.922-1.271-2.967-1.257-1.06-3.542-1.06-1.453 0-2.83.349-1.378.348-2.65 1.044v-2.573q1.53-.59 2.967-.878 1.438-.303 2.8-.303 3.679 0 5.495 1.908 1.816 1.907 1.816 5.782zm17.576-4.677q-.47-.273-1.03-.394-.544-.136-1.21-.136-2.361 0-3.633 1.544-1.256 1.529-1.256 4.405v8.93h-2.8v-16.953h2.8v2.634q.878-1.544 2.285-2.286 1.408-.757 3.421-.757.288 0 .636.046.348.03.772.106zm15.759-2.105v2.634q-1.18-.605-2.452-.908-1.271-.303-2.634-.303-2.073 0-3.118.636-1.029.636-1.029 1.907 0 .97.742 1.53.741.544 2.982 1.044l.953.212q2.967.635 4.208 1.8 1.257 1.151 1.257 3.225 0 2.361-1.877 3.739-1.862 1.377-5.132 1.377-1.362 0-2.845-.272-1.469-.258-3.103-.787v-2.876q1.543.802 3.042 1.21 1.499.394 2.967.394 1.968 0 3.027-.666 1.06-.681 1.06-1.907 0-1.135-.772-1.74-.757-.606-3.345-1.166l-.97-.227q-2.588-.545-3.738-1.665-1.15-1.136-1.15-3.103 0-2.392 1.695-3.694t4.813-1.302q1.544 0 2.907.227 1.362.227 2.512.682zm21.86 7.281v1.363h-12.806q.182 2.876 1.726 4.39 1.559 1.498 4.329 1.498 1.604 0 3.103-.394 1.513-.393 2.997-1.18v2.633q-1.499.636-3.073.97-1.574.332-3.194.332-4.056 0-6.433-2.361-2.361-2.361-2.361-6.388 0-4.162 2.24-6.6 2.255-2.452 6.07-2.452 3.42 0 5.404 2.21 1.998 2.195 1.998 5.98zm-2.785-.817q-.03-2.286-1.287-3.648-1.241-1.362-3.3-1.362-2.33 0-3.739 1.317-1.392 1.317-1.604 3.708zm19.18-4.359q-.47-.273-1.03-.394-.544-.136-1.21-.136-2.362 0-3.633 1.544-1.257 1.529-1.257 4.405v8.93h-2.8v-16.953h2.8v2.634q.878-1.544 2.286-2.286 1.408-.757 3.42-.757.288 0 .637.046.348.03.772.106z"/><path fill="#FFF" stroke="#231F20" stroke-width="2" d="M662.396 333.461h8v8h-8z"/><path fill="none" d="M600 287.889h254v295H600z"/><path fill="none" d="M600 287.889h253v296H600z"/></svg>