<svg xmlns="http://www.w3.org/2000/svg" role="img" viewBox="-7.61 -7.61 395.46 69.46"><title>Foundry logo</title><path fill="#f9a70d" d="M380.48 41.322c0 7.21-5.841 13.051-13.05 13.051-7.207 0-13.051-5.842-13.051-13.05 0-7.21 5.844-13.052 13.05-13.052 7.21 0 13.051 5.842 13.051 13.051"/><path fill="#231f20" d="M10.158 10.688v12.003h22.391v9.33H10.158V53.33H0V1.056h37.008v9.632h-26.85m137.726-9.632V31.97c0 14.411-8.317 22.403-21.768 22.403-13.528 0-21.768-8.067-21.768-22.403V1.056H115V31.97c0 8.74 3.808 12.843 11.117 12.843 7.385 0 11.193-4.104 11.193-12.843V1.056h10.575m52.572 0v52.27H191.2s-22.588-34.424-22.662-34.424h-.286v34.424h-9.683V1.056h9.259s22.625 34.127 22.7 34.127h.149V1.056h9.781m31.041 42.642c8.364 0 14.486-5.901 14.486-16.279 0-10.682-6.421-16.804-14.785-16.804h-9.707v33.083zm-.747-42.642c14.86 0 25.763 10.457 25.763 26.363 0 15.828-10.752 25.908-25.464 25.908h-19.714V1.056h19.415m45.608 25.316h12.95c5.302 0 7.991-3.659 7.991-7.917 0-4.33-2.764-7.84-7.992-7.84H276.36zm21.912 26.955l-9.485-17.921H276.36v17.921h-10.157V1.056h22.137c11.873 0 19.492 6.87 19.492 17.4 0 7.093-3.51 12.32-9.337 14.935l11.204 19.936h-11.427m59.476-52.271L339.229 30.18v23.147h-10.156V30.18L310.552 1.056h11.128s12.397 20.014 12.47 20.014h.075c.075 0 12.396-20.014 12.396-20.014h11.127M69.292 44.154c9.416 0 17.052-7.636 17.052-17.05 0-9.42-7.636-17.052-17.052-17.052-9.417 0-17.05 7.632-17.05 17.052 0 9.414 7.633 17.05 17.05 17.05zm27.1-17.05c0 14.965-12.132 27.096-27.1 27.096-14.964 0-27.1-12.131-27.1-27.096 0-14.968 12.136-27.1 27.1-27.1 14.968 0 27.1 12.132 27.1 27.1"/></svg>