<svg xmlns="http://www.w3.org/2000/svg" role="img" viewBox="-5.99 -5.99 311.74 179.74"><title>Framestore logo</title><path d="M41 55h1v1h-1zm30 0h1v1h-1zm-35 2h1v1h-1zm-4 3h1v1h-1zm48 2h1v1h-1zm-53 5h1v1h-1zm56 0h1v1h-1zm-57 2h1v1h-1zm45 0h1v1h-1zm-24 1h1v1h-1zm23 1h1v1h-1zm15 1h1v1h-1zm-18 1h1v1h-1zm-10 1h1v1h-1zm191 1h2v1h-2zm2 0h1v1h-1zm-110 1h1v1h-1zm21 0h1v1h-1zm40 0h1v1h-1zM24 77h1v1h-1zm132 0h1v1h-1zm11 0h1v1h-1zm53 0h1v1h-1zm17 0h1v1h-1zM24 78h1v1h-1zm232 0h1v1h-1zm-148 1h1v1h-1zm10 0h1v1h-1zm9 0h1v1h-1zm73 0h1v1h-1zm19 0h1v1h-1zM75 80h1v1h-1zm124 1h1v1h-1zM48 82h1v2h-1zm25 0h1v1h-1zm111 0h1v1h-1zm17 0h1v1h-1zm72 0h1v1h-1zM45 83h1v1h-1zm26 0h1v1h-1zm37 0h1v1h-1zm24 0h1v1h-1zm101 0h1v1h-1zM48 84h1v1h-1zm3 1h1v1h-1zm51 0h1v1h-1zm5 0h1v1h-1zm72 0h3v1h-3zm3 0h1v1h-1zm85 0h2v1h-2zm2 0h2v1h-2zm2 0h1v1h-1zm-153 1h1v1h-1zm-94 1h1v1h-1zm101 0h1v1h-1zm29 0h1v1h-1zM24 88h1v1h-1zm226 0h1v1h-1zm-138 1h1v1h-1zm34 0h1v1h-1zm63 0h1v1h-1zm27 0h1v1h-1zm11 0h1v1h-1zM66 90h1v1h-1zm55 0h1v1h-1zm25 0h1v1h-1zm-76 2h1v1h-1zm-45 1h1v1h-1zm32 1h1v1h-1zm-19 3h1v1h-1zm6 0h1v1h-1zm16 1h1v1h-1zm-32 5h1v1h-1zm1 0h1v1h-1zm52 0h1v1h-1zm-52 1h1v1h-1zm47 4h2v1h-2zm2 0h1v1h-1zm-35 4h1v1h-1z" fill="#594e53"/><path d="M59 66h1v1h-1zm140 20h1v1h-1zM68 88h1v1h-1zm121 0h1v1h-1z" fill="#00c2e4"/><path d="M45 67h1v1h-1zm105 11h1v1h-1zm55 0h1v1h-1zm32 1h1v1h-1zm-77 1h1v1h-1zM50 81h1v1h-1zm202 0h1v1h-1zm-26 3h1v1h-1zm-50 1h1v1h-1zm47 2h1v1h-1zM85 89h1v1h-1zm28 0h1v1h-1zm-13 1h1v1h-1zm53 0h1v1h-1zm45 0h1v1h-1zm29 0h1v1h-1zm25 0h1v1h-1zm3 0h1v1h-1zM66 91h1v1h-1zm16 9h1v1h-1z" fill="#446d7a"/><path d="M54 67h1v1h-1zm100 15h1v1h-1zM37 96h1v1h-1zm-3 11h1v1h-1z" fill="#1f9ccd"/><path d="M61 53h2v1h-2zm2 0h1v1h-1zm9 2h1v1h-1zm-39 4h1v1h-1zm46 1h1v1h-1zM44 70h1v1h-1zm14 1h1v1h-1zm27 0h1v1h-1zm-46 1h1v3h-1zm29 0h1v1h-1zm1 1h1v1h-1zm-44 1h1v1h-1zm0 1h1v1h-1zm14 0h1v1h-1zm83 0h1v1h-1zm1 0h1v1h-1zm29 0h3v1h-3zm3 0h1v1h-1zm8 0h3v1h-3zm3 0h1v1h-1zm7 0h1v1h-1zm1 0h1v1h-1zm9 0h1v1h-1zm8 0h1v1h-1zm1 0h1v1h-1zm14 0h3v1h-3zm3 0h1v1h-1zm24 0h1v1h-1zm1 0h1v1h-1zm19 0h1v1h-1zm18 0h1v1h-1zm1 0h1v1h-1zm-164 1h1v1h-1zm147 0h1v1h-1zM55 77h1v1h-1zm167 0h1v3h-1zm52 0h1v1h-1zm-37 1h1v1h-1zM24 79h1v1h-1zm30 0h1v1h-1zm65 0h1v1h-1zm10 0h1v1h-1zm12 0h1v1h-1zm26 0h1v1h-1zm81 0h2v1h-2zm2 0h1v1h-1zm-132 1h1v1h-1zm81 0h1v1h-1zm23 0h1v1h-1zm6 0h1v1h-1zm4 0h1v1h-1zm15 0h1v1h-1zm-90 1h1v1h-1zm40 0h1v1h-1zm-39 1h1v1h-1zm98 0h1v1h-1zM39 84h1v6h-1zm62 1h1v1h-1zm7 0h1v1h-1zm75 0h1v1h-1zm14 0h1v1h-1zm41 0h1v1h-1zM53 86h1v1h-1zm64 0h1v1h-1zm14 0h1v1h-1zm13 0h1v1h-1zm34 0h1v1h-1zm15 0h1v1h-1zm80 0h1v1h-1zm-156 1h1v1h-1zm32 0h1v1h-1zm6 0h1v1h-1zm17 0h1v1h-1zM54 88h1v1h-1zm75 0h1v1h-1zm19 0h1v1h-1zm101 0h1v1h-1zM86 89h1v1h-1zm15 0h1v1h-1zm66 0h1v1h-1zM39 90h1v1h-1zm208 0h1v1h-1zM98 91h2v1h-2zm2 0h1v1h-1zm15 0h1v1h-1zm1 0h1v1h-1zm9 0h1v1h-1zm6 0h2v1h-2zm2 0h1v1h-1zm9 0h1v1h-1zm1 0h1v1h-1zm8 0h1v1h-1zm1 0h1v1h-1zm5 0h2v1h-2zm2 0h1v1h-1zm5 0h1v1h-1zm1 0h1v1h-1zm8 0h1v1h-1zm1 0h3v1h-3zm3 0h6v1h-6zm6 0h1v1h-1zm9 0h1v1h-1zm3 0h3v1h-3zm3 0h1v1h-1zm13 0h2v1h-2zm2 0h1v1h-1zm20 0h1v1h-1zm12 0h1v1h-1zm1 0h1v1h-1zm7 0h1v1h-1zm1 0h1v1h-1zm11 0h4v1h-4zm4 0h1v1h-1zm3 0h1v1h-1zM73 92h1v1h-1zm12 0h1v1h-1zm-44 3h2v1h-2zm2 0h1v1h-1zm-6 2h1v1h-1zm21 0h1v1h-1zm25 2h1v1h-1zm-53 5h1v1h-1zm52 2h1v1h-1zm-52 2h1v1h-1zm3 0h1v1h-1zm4 2h1v1h-1zm36 0h1v1h-1zm-13 3h1v1h-1z" fill="#545055"/><path d="M39 55h1v1h-1zm-12 9h1v1h-1zm-1 2h1v1h-1zm59 3h1v1h-1zm-17 4h1v1h-1zm19 2h1v1h-1zm20 0h1v1h-1zm-51 1h1v1h-1zm133 0h1v1h-1zm30 0h1v1h-1zm19 0h1v1h-1zm-104 1h1v1h-1zm26 0h1v1h-1zm28 0h1v1h-1zm35 0h1v1h-1zm35 0h1v1h-1zm-131 1h1v1h-1zm-83 1h1v1h-1zm76 0h1v1h-1zm1 0h1v1h-1zm-14 1h1v1h-1zm75 0h1v1h-1zm27 0h1v6h-1zm29 0h1v1h-1zm4 0h1v2h-1zm6 0h2v1h-2zm2 0h1v1h-1zm7 0h1v1h-1zM72 81h1v1h-1zm128 0h1v1h-1zm27 0h1v1h-1zM42 82h1v1h-1zm84 0h1v1h-1zm12 0h1v1h-1zm5 0h1v1h-1zm42 0h1v1h-1zm57 0h1v4h-1zm-133 1h1v1h-1zm-62 1h1v1h-1zm4 0h1v1h-1zm58 0h1v1h-1zm105 0h1v2h-1zm41 0h1v1h-1zm-130 1h1v1h-1zm53 0h1v1h-1zm13 0h2v1h-2zm2 0h1v1h-1zM24 86h1v1h-1zm106 0h1v1h-1zm79 0h1v2h-1zm5 0h1v1h-1zm24 0h1v1h-1zm4 0h1v1h-1zm13 1h1v1h-1zm-137 1h1v1h-1zm31 0h1v1h-1zm60 0h1v1h-1zM96 89h1v1h-1zm24 0h1v1h-1zm139 0h1v1h-1zM96 90h1v1h-1zm5 0h1v1h-1zm59 0h2v1h-2zm2 0h1v1h-1zm80 0h1v1h-1zm6 0h1v1h-1zM44 94h1v1h-1zm41 1h1v2h-1zm-46 1h1v1h-1zm46 1h1v1h-1z" fill="#565554"/><path d="M47 55h1v1h-1zm7 0h2v1h-2zm2 0h1v1h-1zm4 0h1v1h-1zm8 1h1v1h-1zm4 2h1v1h-1zm-39 3h1v1h-1zm44 0h1v1h-1zm-44 1h1v1h-1zm7 2h1v1h-1zm5 0h1v1h-1zm27 0h1v1h-1zm-12 1h1v1h-1zm20 0h1v1h-1zm-37 1h1v1h-1zm30 0h1v1h-1zm-34 1h1v1h-1zm1 0h1v1h-1zm18 1h1v1h-1zm-3 1h1v1h-1zm11 3h1v1h-1zm-18 1h1v1h-1zm-2 1h1v1h-1zm6 2h1v2h-1zm23 1h1v1h-1zm100 0h1v1h-1zm16 0h1v1h-1zm17 0h1v1h-1zm26 0h1v1h-1zm13 0h1v1h-1zM52 78h1v1h-1zm70 0h2v1h-2zm2 0h1v1h-1zm111 0h1v1h-1zm10 0h1v1h-1zM98 79h1v1h-1zm64 0h1v1h-1zm49 0h1v1h-1zm-97 1h1v2h-1zm11 0h1v1h-1zm37 0h1v1h-1zm102 0h1v1h-1zM79 81h1v1h-1zm156 0h1v1h-1zm-121 1h1v1h-1zm41 0h1v1h-1zm38 0h1v1h-1zm52 0h1v1h-1zm18 0h1v2h-1zm-145 1h1v1h-1zm3 0h1v1h-1zm3 0h1v1h-1zm10 0h1v1h-1zm21 0h1v1h-1zm6 0h1v1h-1zm34 0h1v1h-1zm4 0h1v2h-1zm49 0h1v1h-1zm6 0h1v1h-1zM72 84h1v1h-1zm1 0h1v1h-1zm67 0h1v1h-1zm58 0h1v1h-1zm37 0h1v1h-1zm17 0h1v2h-1zm11 0h1v1h-1zM65 85h1v1h-1zm34 0h1v1h-1zm15 0h1v1h-1zm42 0h1v1h-1zm19 0h1v1h-1zm24 0h1v1h-1zm65 0h1v1h-1zm-125 1h1v1h-1zm19 0h2v1h-2zm2 0h1v1h-1zm15 0h1v1h-1zm77 0h1v1h-1zM72 88h1v1h-1zm1 0h1v1h-1zm155 0h1v1h-1zm4 0h1v1h-1zm33 0h1v1h-1zM53 89h1v1h-1zm18 0h1v1h-1zm1 0h2v1h-2zm2 0h1v1h-1zm50 0h1v1h-1zm18 0h1v1h-1zm10 0h1v1h-1zm6 0h1v1h-1zm18 0h1v1h-1zm21 0h1v1h-1zm36 0h1v1h-1zm37 0h1v1h-1zM26 90h1v1h-1zm49 1h1v1h-1zm-21 1h1v1h-1zm14 1h1v1h-1zm-20 2h1v1h-1zm-20 2h1v1h-1zm6 0h1v1h-1zm-4 2h1v1h-1zm50 3h1v1h-1zm-4 4h1v1h-1zm-41 1h1v1h-1zm39 0h1v1h-1zm-33 3h2v1h-2zm2 0h1v1h-1zm2 1h2v1h-2zm2 0h1v1h-1zm5 1h1v1h-1zm5 0h1v1h-1z" fill="#00c0f0"/><path d="M67 55h1v1h-1zm7 14h1v1h-1zm-7 6h1v1h-1zm30 1h1v1h-1zm156 0h1v1h-1zm-98 1h1v1h-1zm-70 1h1v1h-1zm158 0h1v1h-1zM97 79h1v7h-1zm146 0h1v4h-1zM67 81h1v1h-1zm110 0h1v1h-1zm5 0h1v1h-1zm44 0h1v1h-1zM73 83h1v1h-1zm89 0h1v1h-1zm81 0h1v1h-1zm29 1h1v1h-1zM97 86h1v1h-1zm136 0h1v1h-1zm10 0h1v1h-1zm-60 1h1v1h-1zm27 0h1v2h-1zm19 0h2v1h-2zm2 0h1v1h-1zm12 0h1v1h-1zm-33 2h1v1h-1zm15 0h1v1h-1zM98 90h1v1h-1zm18 0h1v1h-1zm8 0h1v1h-1zm19 0h1v1h-1zm1 0h1v1h-1zm14 0h1v1h-1zm6 0h1v1h-1zm1 0h1v1h-1zm9 0h2v1h-2zm2 0h6v1h-6zm6 0h1v1h-1zm31 0h1v1h-1zm31 0h1v1h-1zm1 0h1v1h-1zm8 0h1v1h-1zm9 0h1v1h-1zm3 0h4v1h-4zm4 0h1v1h-1zm3 0h1v1h-1z" fill="#427689"/><path d="M42 56h2v1h-2zm2 0h1v1h-1zm22 0h1v1h-1zm-31 4h1v1h-1zm44 3h1v1h-1zm-24 5h1v1h-1zm2 2h1v1h-1zm26 3h1v1h-1zm-31 1h1v1h-1zm46 3h1v1h-1zm128 0h1v1h-1zm25 0h1v1h-1zm12 0h1v1h-1zm-98 1h1v1h-1zm60 0h1v1h-1zm29 0h1v1h-1zm-89 1h1v1h-1zm26 0h1v1h-1zm33 0h1v1h-1zM48 80h2v1h-2zm2 0h1v1h-1zm17 0h1v1h-1zm73 0h1v1h-1zm50 0h1v1h-1zm46 0h1v1h-1zm-75 1h1v1h-1zm50 0h1v1h-1zm-29 1h1v1h-1zm29 0h1v1h-1zm24 0h1v1h-1zm31 0h1v1h-1zm-144 1h1v1h-1zm57 0h3v1h-3zm3 0h1v1h-1zm11 0h1v1h-1zm42 0h1v1h-1zm31 0h5v1h-5zm5 0h1v1h-1zM74 84h1v1h-1zm175 0h1v1h-1zm-116 1h1v1h-1zm111 0h1v2h-1zm-123 1h1v1h-1zm16 0h1v1h-1zm15 0h1v1h-1zm93 0h1v1h-1zm19 0h1v1h-1zM98 87h1v2h-1zm53 0h1v1h-1zm39 0h1v1h-1zm54 0h1v1h-1zm1 0h1v1h-1zm-94 1h1v1h-1zm28 0h3v1h-3zm3 0h1v1h-1zm11 0h1v1h-1zm38 0h1v1h-1zm3 0h1v1h-1zm33 0h2v1h-2zm2 0h1v1h-1zM98 89h1v1h-1zm16 0h1v1h-1zm18 0h1v1h-1zm32 0h1v1h-1zm13 0h1v1h-1zm34 0h1v1h-1zm43 0h1v1h-1zm9 0h3v1h-3zm3 0h1v1h-1zm5 0h1v1h-1zM56 96h1v1h-1zm26 1h1v1h-1zm-45 3h1v1h-1zm10 0h1v1h-1zm16 0h1v1h-1zm-33 2h1v1h-1zm49 1h1v1h-1zm-1 1h1v1h-1zm-45 1h1v1h-1zm36 5h1v1h-1z" fill="#00c1f5"/><path d="M53 56h3v1h-3zm3 0h1v1h-1zm15 3h2v1h-2zm2 0h1v1h-1zm-36 1h1v1h-1zm1 0h2v1h-2zm2 0h1v1h-1zm28 0h1v1h-1zm1 0h1v1h-1zm8 2h1v1h-1zm-44 1h1v1h-1zm23 1h1v2h-1zm7 0h1v1h-1zm5 0h1v1h-1zm7 0h1v1h-1zm-35 1h3v1h-3zm3 0h1v1h-1zm10 0h1v1h-1zm10 0h1v1h-1zm8 0h1v1h-1zm1 0h1v1h-1zm-32 1h1v1h-1zm1 0h1v1h-1zm15 0h1v1h-1zm1 0h1v1h-1zm14 0h1v1h-1zm-1 1h1v1h-1zm-42 1h2v1h-2zm2 0h1v2h-1zm39 0h1v1h-1zm-3 1h1v1h-1zm-36 1h1v1h-1zm-3 1h1v1h-1zm55 0h1v1h-1zm-9 1h1v1h-1zm-19 1h1v1h-1zm-4 1h1v1h-1zm4 0h1v1h-1zm-3 1h1v2h-1zm87 1h1v1h-1zm57 0h1v1h-1zm1 0h1v1h-1zM50 77h1v1h-1zm1 0h1v1h-1zm-1 1h1v1h-1zm50 0h1v1h-1zm53 0h1v1h-1zm10 0h1v1h-1zm1 0h1v1h-1zm14 0h1v1h-1zm13 0h1v1h-1zM65 79h1v2h-1zm98 0h1v1h-1zm-85 1h1v1h-1zm61 0h1v1h-1zm-74 1h1v1h-1zm70 0h1v1h-1zm19 0h1v1h-1zm-55 1h1v1h-1zm76 0h1v2h-1zm-52 1h1v1h-1zm130 0h1v1h-1zm11 0h1v1h-1zm-164 1h1v1h-1zm14 0h1v1h-1zm27 0h1v1h-1zm34 0h1v1h-1zM72 85h1v2h-1zm43 0h1v1h-1zm130 0h1v1h-1zm-123 1h1v1h-1zm-50 1h2v1h-2zm2 0h1v1h-1zm65 0h1v1h-1zm1 0h1v1h-1zm56 1h1v1h-1zm-52 1h1v1h-1zm88 0h1v1h-1zM26 91h1v1h-1zm27 2h1v2h-1zm15 1h1v1h-1zm-38 1h1v1h-1zm23 0h1v2h-1zm27 0h1v1h-1zm-27 2h1v1h-1zm-19 1h1v1h-1zm28 0h1v1h-1zm1 3h1v1h-1zm-32 1h1v1h-1zm7 0h6v1h-6zm6 0h1v1h-1zm3 0h1v1h-1zm10 0h1v1h-1zm22 0h1v1h-1zm-46 1h1v1h-1zm1 0h1v1h-1zm39 3h1v1h-1zm0 1h1v1h-1zm-35 2h1v1h-1zm16 1h2v1h-2zm2 0h1v1h-1zm4 0h1v1h-1zm-10 1h2v1h-2zm2 0h1v1h-1z" fill="#05b9f2"/><path d="M29 65h1v1h-1zm20 8h1v1h-1zm203 3h1v1h-1zm-53 3h1v1h-1zm-16 3h1v1h-1zM74 83h1v1h-1zm11 0h1v1h-1zm22 1h1v1h-1zm17 0h1v1h-1zm14 1h1v1h-1zm15 0h1v1h-1zm10 0h1v1h-1zm-10 1h1v2h-1zm97 0h1v1h-1zm-116 2h1v1h-1zm10 0h1v1h-1zm9 0h1v1h-1zm98 0h1v1h-1z" fill="#2892a8"/><path d="M84 71h1v1h-1zm116 5h1v1h-1zm-93 3h1v1h-1zm99 0h1v1h-1zm12 0h1v1h-1zm-22 2h1v1h-1zm30 1h1v1h-1zm-35 4h1v1h-1zm3 1h1v1h-1zm7 1h1v1h-1zM58 98h1v1h-1zm-26 8h1v1h-1zm21 7h3v1h-3zm3 0h1v1h-1z" fill="#4a616a"/><path d="M59 54h1v1h-1zm-5 14h1v1h-1zm0 1h1v1h-1zm17 3h1v1h-1zm-16 3h1v1h-1zm180 2h1v1h-1zM75 79h1v1h-1zm-27 2h1v1h-1zm29 1h1v1h-1zm45 0h1v1h-1zm41 0h1v1h-1zM25 83h1v1h-1zm40 0h1v1h-1zm98 0h1v1h-1zm20 0h1v1h-1zm89 0h1v1h-1zM25 84h1v1h-1zm44 0h1v1h-1zm48 1h2v1h-2zm2 0h1v1h-1zm20 0h1v1h-1zm98 0h1v1h-1zm10 0h1v1h-1zm18 2h1v1h-1zM68 111h1v1h-1zm-5 1h1v1h-1z" fill="#2893b9"/><path d="M134 89h1v1h-1zM27 98h1v1h-1zm14 13h1v1h-1z" fill="#4c6387"/><path d="M56 74h1v1h-1zm12 0h1v1h-1zm82 2h1v1h-1zm55 0h1v1h-1zM85 77h1v1h-1zm40 0h1v1h-1zm10 0h1v1h-1zm5 0h1v1h-1zm21 0h1v1h-1zm94 0h1v1h-1zm-142 1h1v9h-1zm43 1h1v1h-1zm72 0h1v1h-1zM72 80h1v1h-1zm54 0h1v1h-1zm126 0h1v1h-1zm-126 1h1v1h-1zm57 0h1v1h-1zm-41 1h1v1h-1zm51 2h1v1h-1zM48 85h1v1h-1zm128 1h1v1h-1zm51 0h1v1h-1zm-114 1h1v1h-1zm31 0h1v1h-1zm52 0h1v1h-1zM54 89h1v1h-1zm181 0h1v1h-1zm-113 1h1v1h-1zm44 0h1v1h-1zm67 0h1v1h-1zM26 95h1v1h-1zm10 2h1v1h-1zm47 1h1v1h-1zm-24 2h1v1h-1zm22 2h1v1h-1z" fill="#496470"/><path d="M35 59h1v1h-1zm35 14h1v1h-1zm-1 1h1v1h-1zm94 2h1v1h-1zm1 0h1v1h-1zm9 0h1v1h-1zm33 0h2v1h-2zm2 0h2v1h-2zm2 0h1v1h-1zm5 0h1v1h-1zm-108 2h1v1h-1zm10 0h1v1h-1zm-17 3h1v1h-1zm98 1h1v1h-1zm-97 2h1v1h-1zm1 0h1v1h-1zm94 0h1v1h-1zm-73 2h1v1h-1zm20 0h1v1h-1zm17 1h1v1h-1zm67 0h1v1h-1zm9 0h1v1h-1zm-95 1h1v1h-1zm42 0h1v1h-1zm30 1h1v1h-1zm33 0h1v1h-1zm16 0h1v1h-1zM69 93h1v1h-1zm6 1h1v1h-1zm-48 2h1v1h-1zm8 3h1v1h-1zm-6 2h1v1h-1zm3 4h1v1h-1zm35 6h1v1h-1z" fill="#13afd3"/><path d="M78 59h1v1h-1zm-36 9h1v1h-1zm43 7h1v1h-1zm103 4h1v1h-1zm-71 2h1v1h-1zm-73 2h1v1h-1zm8 1h1v1h-1zm181 0h1v1h-1zm-102 1h1v1h-1zm-1 3h1v1h-1zm93 1h1v1h-1zM26 98h1v1h-1zm52 9h1v1h-1zm-47 2h1v1h-1zm10 3h1v1h-1z" fill="#53574c"/><path d="M80 64h1v1h-1zm-41 4h1v1h-1zm63 8h1v1h-1zm111 0h1v1h-1zm-13 1h1v1h-1zm-100 3h1v1h-1zm100 3h1v1h-1zm54 5h1v1h-1zm-154 1h1v1h-1zm99 0h1v1h-1zm73 0h1v1h-1zM28 99h1v1h-1z" fill="#04b1cf"/><path d="M64 55h1v1h-1zm-14 1h1v1h-1zm-11 3h1v1h-1zm2 1h1v1h-1zm30 0h1v1h-1zm-30 4h1v1h-1zm29 0h1v1h-1zm1 0h1v1h-1zm5 0h1v1h-1zm-21 1h1v1h-1zm-1 1h1v1h-1zm1 0h1v1h-1zm8 1h1v1h-1zm5 0h1v1h-1zm-1 1h1v1h-1zm-38 2h1v1h-1zm36 0h1v1h-1zm2 1h1v1h-1zm-14 2h1v2h-1zm-1 2h1v1h-1zm1 0h1v1h-1zm-27 1h1v1h-1zm203 0h2v1h-2zm2 0h1v1h-1zm-124 1h1v1h-1zm-32 1h1v1h-1zm39 0h1v1h-1zm68 0h1v1h-1zm34 0h1v1h-1zm12 0h1v1h-1zM49 79h1v1h-1zm106 0h1v1h-1zm9 0h1v1h-1zm11 0h1v2h-1zm89 0h1v1h-1zM68 80h1v1h-1zm55 0h1v1h-1zm40 0h1v1h-1zm12 1h1v1h-1zm16 0h1v1h-1zm-89 1h1v1h-1zm168 0h1v1h-1zm-151 1h1v1h-1zm73 0h1v1h-1zm59 1h1v1h-1zm13 0h1v1h-1zM66 85h1v1h-1zm197 0h1v1h-1zM48 86h1v1h-1zm1 0h1v1h-1zm22 0h1v1h-1zm3 0h1v1h-1zm40 0h1v1h-1zm111 0h1v1h-1zm-91 1h1v1h-1zm90 0h1v1h-1zm9 0h1v1h-1zm19 0h1v1h-1zm12 0h1v1h-1zM65 88h1v1h-1zm67 0h1v1h-1zm98 0h1v1h-1zm34 0h1v1h-1zM81 95h1v1h-1zm1 0h1v1h-1zm-48 1h1v1h-1zm20 0h1v1h-1zm3 2h1v1h-1zm-22 2h1v1h-1zm3 1h7v1h-7zm7 0h3v1h-3zm3 0h1v1h-1zm11 0h1v1h-1zm5 0h1v1h-1zm0 1h1v1h-1zm-32 1h1v1h-1zm44 0h1v1h-1zm1 1h1v1h-1zm-2 2h1v1h-1zm-39 2h1v1h-1zm16 2h1v1h-1zm2 1h2v1h-2zm2 0h1v1h-1zm-6 1h1v1h-1zm1 0h1v1h-1zm7 0h1v1h-1z" fill="#03bbe9"/><path d="M49 54h1v1h-1zm-9 2h1v1h-1zm38 5h1v1h-1zm-34 6h1v1h-1zm30 0h1v1h-1zm-34 1h1v1h-1zm126 8h1v1h-1zm-81 4h1v1h-1zm104 0h1v1h-1zM85 81h1v1h-1zm91 0h1v1h-1zm18 0h1v1h-1zm-17 3h1v1h-1zm17 0h1v1h-1zM45 85h1v1h-1zm40 1h1v1h-1zm-60 1h1v1h-1zm96 1h1v1h-1zm76 2h1v1h-1zM26 94h1v1h-1zm12 5h8v1h-8zm8 0h2v1h-2zm2 0h1v1h-1zm23 11h1v1h-1zm-7 2h1v1h-1z" fill="#37859e"/><path d="M51 55h1v1h-1zm1 0h1v1h-1zm6 0h1v1h-1zm-16 2h1v1h-1zm-2 1h1v1h-1zm-6 6h1v1h-1zm12 0h1v1h-1zm1 0h1v1h-1zm11 0h3v1h-3zm3 0h1v1h-1zm-13 1h1v1h-1zm1 0h1v1h-1zm24 0h1v1h-1zm-35 2h1v1h-1zm38 0h1v2h-1zm-10 1h1v1h-1zm-29 1h1v2h-1zm39 0h1v2h-1zm-48 1h1v1h-1zm39 0h1v1h-1zm-30 1h1v1h-1zm29 0h1v1h-1zm7 0h1v1h-1zm3 0h1v1h-1zm-4 2h1v1h-1zm-26 2h1v1h-1zm-9 1h1v2h-1zm13 0h1v1h-1zm16 0h1v1h-1zm49 1h1v1h-1zm61 0h1v1h-1zm16 0h3v1h-3zm3 0h1v1h-1zm11 0h1v1h-1zm7 0h1v1h-1zm16 0h2v1h-2zm2 0h1v1h-1zm35 0h1v1h-1zm4 0h1v1h-1zM37 78h1v1h-1zm35 0h1v1h-1zm1 0h1v1h-1zm81 0h1v1h-1zm21 0h1v1h-1zM72 79h1v1h-1zm-25 1h1v1h-1zm117 0h1v6h-1zm10 0h1v6h-1zm80 0h1v1h-1zM64 81h1v1h-1zm35 0h1v1h-1zm37 0h1v1h-1zm20 1h1v1h-1zm5 0h1v1h-1zm-84 1h1v1h-1zm24 0h1v1h-1zm95 0h1v1h-1zM76 84h1v1h-1zm84 0h1v1h-1zm-96 1h1v1h-1zm7 0h1v1h-1zm179 0h1v1h-1zM26 86h1v1h-1zm43 0h1v1h-1zm71 0h1v1h-1zm24 0h1v1h-1zm10 0h1v1h-1zM49 87h1v1h-1zm-12 1h1v2h-1zm27 0h1v2h-1zm11 0h1v1h-1zm40 0h1v1h-1zm28 0h1v1h-1zm9 0h1v1h-1zm24 0h1v1h-1zm24 0h1v1h-1zm26 0h1v1h-1zm-69 1h1v1h-1zm70 0h1v1h-1zM27 90h1v1h-1zm10 0h1v1h-1zm27 0h1v1h-1zm12 1h1v1h-1zm-23 1h1v1h-1zm23 0h1v2h-1zm7 0h1v2h-1zm-28 2h1v1h-1zm21 0h1v1h-1zm7 0h1v1h-1zm-56 1h1v1h-1zm44 0h1v1h-1zm-16 3h1v1h-1zm-7 2h1v1h-1zm1 0h1v1h-1zm12 2h2v1h-2zm2 0h1v1h-1zm12 3h1v1h-1zm-1 1h1v1h-1zm-38 1h1v1h-1zm36 1h1v1h-1zm-24 2h1v1h-1zm1 0h1v1h-1zm10 0h1v1h-1zm8 0h1v1h-1z" fill="#00bbf2"/><path d="M66 55h1v1h-1zM28 67h1v1h-1zm134 9h1v1h-1zm21 0h1v1h-1zm53 2h1v1h-1zM70 80h1v1h-1zm202 2h1v1h-1zm-81 1h1v1h-1zm-28 1h1v1h-1zm32 0h1v1h-1zm70 0h1v1h-1zm-129 1h1v1h-1zm25 0h1v1h-1zm-8 4h1v1h-1zm10 0h1v1h-1zM57 97h1v1h-1zm19 10h1v1h-1z" fill="#2a94b4"/><path d="M71 57h1v1h-1zm-41 7h1v1h-1zm48 0h1v1h-1zm-31 2h1v1h-1zm28 1h1v2h-1zm0 2h1v1h-1zm-28 2h1v1h-1zm7 0h1v1h-1zm29 0h1v1h-1zm-35 1h1v1h-1zm-1 2h1v1h-1zm-21 1h1v1h-1zm58 1h1v1h-1zm53 0h1v1h-1zm107 0h1v1h-1zm-120 1h1v1h-1zm49 0h1v8h-1zm-72 1h5v1h-5zm5 0h1v1h-1zm14 0h1v1h-1zm1 0h1v1h-1zm58 0h2v1h-2zm2 0h1v1h-1zm16 0h1v1h-1zm9 0h1v1h-1zm3 0h1v1h-1zm1 0h2v1h-2zm2 0h1v1h-1zm3 0h1v1h-1zm14 0h2v1h-2zm2 0h1v1h-1zm17 0h1v1h-1zm1 0h2v1h-2zm2 0h1v1h-1zm15 0h5v1h-5zm5 0h1v1h-1zM73 79h1v1h-1zm3 0h1v1h-1zm59 0h2v1h-2zm2 0h1v1h-1zm118 0h1v2h-1zm-132 2h1v1h-1zm39 0h1v1h-1zm93 0h1v1h-1zm-58 1h1v1h-1zm40 1h1v1h-1zm-102 1h1v1h-1zm7 0h1v1h-1zm13 0h1v1h-1zm68 0h1v1h-1zm-107 1h1v2h-1zm19 0h1v2h-1zm38 0h1v1h-1zm73 0h1v1h-1zM65 86h1v1h-1zm51 1h1v2h-1zm19 0h2v1h-2zm2 0h1v1h-1zm54 0h1v2h-1zm-18 1h1v1h-1zm99 0h1v1h-1zM70 89h1v1h-1zm46 0h1v1h-1zm15 0h1v1h-1zm60 0h1v1h-1zm61 0h1v1h-1zM65 91h1v1h-1zm19 0h1v1h-1zm-29 2h1v1h-1zm3 7h1v1h-1zm2 1h1v1h-1zm1 0h1v1h-1zm17 2h1v1h-1zm-6 6h1v1h-1zm-32 1h1v1h-1zm9 2h1v1h-1zm12 0h1v1h-1z" fill="#0bb6e5"/><path d="M81 62h1v1h-1zm-40 9h1v1h-1zm136 8h1v1h-1zm-69 3h1v1h-1zm76 3h1v1h-1zm3 2h1v1h-1zm-70 1h1v1h-1zm120 1h1v1h-1zm23 0h1v1h-1zm-113 1h1v1h-1z" fill="#485c56"/><path d="M74 68h1v1h-1zm-34 1h1v1h-1zm84 16h1v1h-1zm123 1h1v1h-1z" fill="#64444a"/><path d="M48 71h1v1h-1zm92 7h1v1h-1zm21 0h1v1h-1zm-5 2h1v1h-1zm-71 2h1v1h-1zm35 4h1v1h-1zM58 99h1v1h-1z" fill="#2b8ba0"/><path d="M49 53h1v1h-1zm-6 1h1v1h-1zm29 2h1v1h-1zM53 67h1v1h-1zm-8 1h1v1h-1zm-20 4h1v1h-1zm74 3h1v1h-1zm1 0h1v1h-1zm15 0h6v1h-6zm6 0h1v1h-1zm91 0h1v1h-1zm1 0h1v1h-1zm31 0h2v1h-2zm2 0h1v1h-1zm17 0h1v1h-1zm10 1h1v1h-1zm-147 1h1v1h-1zm93 0h1v1h-1zM86 78h1v1h-1zm10 0h1v1h-1zm38 0h1v1h-1zm-48 1h1v2h-1zm10 0h1v1h-1zm142 0h1v1h-1zM53 80h1v1h-1zm21 0h1v1h-1zm75 0h1v4h-1zm45 0h1v1h-1zM24 81h1v4h-1zm46 0h1v1h-1zm1 0h1v1h-1zm15 0h1v1h-1zm-37 1h1v1h-1zm-10 1h1v1h-1zm145 0h1v1h-1zm72 0h1v1h-1zm-107 1h1v2h-1zM24 85h1v1h-1zm125 1h1v1h-1zm30 0h2v1h-2zm2 0h1v1h-1zm11 0h1v1h-1zm37 0h2v1h-2zm2 0h1v1h-1zm36 0h1v1h-1zm1 0h1v1h-1zM86 87h1v1h-1zm33 0h1v1h-1zm48 0h1v1h-1zm80 0h1v1h-1zM96 88h1v1h-1zm16 0h1v1h-1zm55 0h1v1h-1zm106 0h1v1h-1zM24 89h1v2h-1zm218 0h1v1h-1zm-86 1h1v1h-1zm16 0h1v1h-1zm18 0h1v1h-1zm35 0h1v1h-1zm34 0h1v1h-1zM24 91h1v1h-1zm61 2h1v1h-1zm-45 5h2v1h-2zm2 0h1v1h-1zm22 15h1v1h-1z" fill="#545050"/><path d="M46 54h1v1h-1zm143 23h1v1h-1zm38 6h1v1h-1zM50 84h1v1h-1zm108 0h1v1h-1zM86 95h1v1h-1z" fill="#574f66"/><path d="M50 54h1v1h-1zm10 0h1v1h-1zm65 29h1v1h-1zm38 4h1v1h-1zm0 1h1v1h-1zM42 111h1v1h-1z" fill="#2b8db8"/><path d="M48 55h1v1h-1zm1 0h1v1h-1zm21 2h1v1h-1zm-34 2h1v1h-1zm-6 6h1v1h-1zm14 1h1v1h-1zm-15 1h1v1h-1zm33 0h1v1h-1zm-8 5h2v1h-2zm2 0h1v1h-1zm-29 1h1v1h-1zm22 1h1v1h-1zm90 3h1v1h-1zm38 0h1v1h-1zm37 0h1v1h-1zm3 0h1v1h-1zM26 78h1v1h-1zm0 1h1v1h-1zm25 0h1v1h-1zm20 0h1v1h-1zm44 0h1v1h-1zm111 0h1v1h-1zM66 80h1v1h-1zm69 0h1v1h-1zm16 0h1v2h-1zm10 0h1v1h-1zm-77 1h1v1h-1zm108 0h1v1h-1zm44 0h1v1h-1zm8 0h1v1h-1zm-93 1h1v1h-1zm1 0h1v2h-1zm39 0h1v1h-1zm4 0h1v1h-1zm58 0h1v1h-1zm-147 1h1v1h-1zm35 0h1v1h-1zm36 0h1v1h-1zm1 0h1v1h-1zm-26 1h1v1h-1zm48 0h1v1h-1zm11 0h1v1h-1zM67 85h1v1h-1zm17 0h1v3h-1zm38 0h1v1h-1zm38 0h1v1h-1zm40 0h1v2h-1zm11 0h1v3h-1zM46 86h1v1h-1zm105 0h1v1h-1zm73 0h1v1h-1zm12 0h1v1h-1zM26 87h1v1h-1zm25 0h1v1h-1zm15 0h1v1h-1zm99 0h1v2h-1zm35 0h1v1h-1zm12 0h1v1h-1zm51 0h1v1h-1zM26 88h1v1h-1zm26 0h1v1h-1zm32 0h1v1h-1zm49 0h1v1h-1zm59 0h1v1h-1zm19 0h1v1h-1zm34 0h1v1h-1zm25 0h1v1h-1zM99 89h1v1h-1zm16 0h1v1h-1zm36 0h1v1h-1zm14 0h1v1h-1zm14 0h3v1h-3zm3 0h1v1h-1zm11 0h2v1h-2zm2 0h1v1h-1zm3 0h1v1h-1zm69 0h2v1h-2zm2 0h1v1h-1zM70 94h1v1h-1zm-33 1h1v1h-1zm45 1h1v1h-1zm-1 3h1v1h-1zm-52 1h1v1h-1zm52 0h1v1h-1zm-4 5h1v1h-1zm-43 1h1v1h-1z" fill="#00c0f9"/><path d="M63 55h1v1h-1zm-5 1h2v1h-2zm2 0h1v1h-1zm5 0h1v1h-1zm3 2h1v1h-1zm5 0h1v1h-1zm-33 1h1v1h-1zm28 0h1v1h-1zm1 0h1v1h-1zm-33 1h1v1h-1zm-2 2h1v1h-1zm-2 1h1v1h-1zm-1 1h1v1h-1zm11 0h2v1h-2zm2 0h1v1h-1zm1 1h2v1h-2zm2 0h1v1h-1zm28 0h1v1h-1zm-37 1h1v1h-1zm30 0h1v1h-1zm1 0h1v1h-1zm12 0h1v1h-1zm-24 2h1v1h-1zm6 0h2v1h-2zm2 0h1v1h-1zm2 1h1v1h-1zm-1 1h1v1h-1zm9 0h1v1h-1zm5 0h1v1h-1zm-24 1h1v1h-1zm19 0h1v1h-1zm5 0h1v1h-1zm-15 1h1v1h-1zm-18 1h1v1h-1zm1 2h1v1h-1zm1 0h1v1h-1zm16 0h1v1h-1zm3 0h2v1h-2zm2 0h1v1h-1zm124 1h1v1h-1zM74 77h1v1h-1zm10 0h1v1h-1zm16 0h1v1h-1zm98 0h1v1h-1zm30 0h1v1h-1zm4 0h1v1h-1zm13 0h1v1h-1zM49 78h1v1h-1zm50 0h1v1h-1zm38 0h1v1h-1zm15 0h1v3h-1zm65 0h1v1h-1zm10 0h1v1h-1zM99 79h1v1h-1zm15 0h1v1h-1zm98 0h1v3h-1zM64 80h1v1h-1zm13 0h1v1h-1zm158 0h1v1h-1zm-110 1h1v1h-1zm15 0h1v1h-1zm12 0h1v1h-1zm101 0h1v1h-1zM79 82h1v1h-1zm27 0h1v1h-1zm28 0h1v1h-1zm43 0h1v1h-1zm35 0h1v1h-1zm42 0h1v1h-1zm-154 1h1v1h-1zm3 0h2v1h-2zm2 0h1v1h-1zm11 0h1v1h-1zm7 1h1v1h-1zm122 0h1v1h-1zm8 0h1v1h-1zM66 86h2v1h-2zm2 0h1v1h-1zm66 0h1v1h-1zm22 0h1v1h-1zM46 87h1v1h-1zm23 0h1v1h-1zm53 0h1v1h-1zm103 0h1v1h-1zm28 0h1v1h-1zM63 88h1v2h-1zm95 0h1v1h-1zm19 0h1v1h-1zm52 0h1v1h-1zm6 0h1v1h-1zm28 0h1v1h-1zM63 90h1v1h-1zm21 0h1v1h-1zm-20 2h1v1h-1zm1 0h1v1h-1zm6 2h1v1h-1zm12 1h1v1h-1zm-55 1h1v1h-1zm21 0h1v1h-1zm31 0h1v1h-1zm-26 1h1v1h-1zm26 0h1v1h-1zm1 1h1v1h-1zm-51 2h1v1h-1zm4 0h1v1h-1zm0 1h1v1h-1zm15 0h1v1h-1zm-13 1h1v1h-1zm42 0h1v1h-1zm-45 2h1v1h-1zm43 1h1v1h-1zm-40 1h1v1h-1zm1 1h1v1h-1zm1 0h1v1h-1zm3 2h1v1h-1zm3 1h1v1h-1zm7 0h1v1h-1zm10 0h1v1h-1zm1 0h1v1h-1zm-9 1h1v1h-1z" fill="#00bcee"/><path d="M67 56h1v1h-1zm11 6h1v1h-1zm-28 3h2v1h-2zm2 0h1v1h-1zm3 2h1v1h-1zm15 1h1v1h-1zm2 4h1v1h-1zm-45 2h1v1h-1zm56 0h1v1h-1zm-16 2h1v1h-1zm47 1h1v1h-1zm3 0h1v1h-1zm45 0h1v1h-1zm1 0h2v1h-2zm2 0h1v1h-1zm79 0h1v2h-1zm9 0h1v2h-1zm18 0h1v1h-1zM84 78h1v2h-1zm55 0h1v1h-1zm23 0h1v1h-1zm-92 1h1v1h-1zm53 0h1v1h-1zm67 0h1v1h-1zm54 0h1v1h-1zm1 0h1v1h-1zm8 0h1v1h-1zM26 80h1v1h-1zm58 0h1v1h-1zm14 0h1v6h-1zm57 0h1v1h-1zm10 0h1v6h-1zm46 0h1v1h-1zM26 81h1v4h-1zm98 0h1v1h-1zm15 0h1v1h-1zm-16 1h1v1h-1zm12 0h1v1h-1zm25 0h1v1h-1zm21 0h1v1h-1zm43 0h1v1h-1zm20 0h1v1h-1zm20 0h1v1h-1zm7 0h1v1h-1zM64 83h1v1h-1zm76 0h1v1h-1zm11 0h1v2h-1zm25 0h1v1h-1zm18 0h1v1h-1zm17 0h1v1h-1zM64 84h1v1h-1zm-38 1h1v1h-1zm42 0h1v1h-1zm83 0h1v1h-1zm6 0h2v1h-2zm2 0h1v3h-1zm65 0h1v1h-1zm12 0h1v1h-1zM47 86h1v1h-1zm51 0h1v1h-1zm40 0h1v1h-1zm27 0h1v1h-1zM65 87h1v1h-1zm87 0h1v1h-1zm12 0h1v1h-1zm-95 1h1v1h-1zm53 0h1v1h-1zm37 0h1v1h-1zm31 0h1v1h-1zm7 0h2v1h-2zm2 0h1v1h-1zm26 0h1v1h-1zm41 0h1v1h-1zm-133 1h1v1h-1zm42 0h1v1h-1zm17 0h1v1h-1zm4 0h1v1h-1zm16 0h1v1h-1zm16 0h3v1h-3zm3 0h1v1h-1zM27 93h1v1h-1zm0 1h1v1h-1zm19 1h1v1h-1zm27 0h1v1h-1zm1 0h1v1h-1zm-24 2h1v1h-1zm6 0h1v1h-1zm-6 1h1v1h-1zm-12 2h6v1h-6zm6 0h1v1h-1zm-13 3h1v1h-1zm1 1h1v1h-1zm41 4h1v1h-1zm-34 1h1v1h-1zm32 0h1v1h-1zm-3 1h1v1h-1zm-6 1h3v1h-3zm3 0h1v1h-1zm-12 1h1v1h-1z" fill="#00bff5"/><path d="M30 63h1v1h-1zm43 4h1v1h-1zm170 9h1v1h-1zM25 77h1v1h-1zm218 0h1v1h-1zm-54 1h1v1h-1zm-39 1h1v7h-1zm82 0h1v1h-1zm33 1h1v1h-1zm-86 1h2v1h-2zm2 0h1v1h-1zm85 0h4v1h-4zm4 0h1v1h-1zM47 85h1v1h-1zm103 1h1v2h-1zm43 1h1v1h-1zm4 0h1v1h-1zm-47 1h1v1h-1zM25 89h1v1h-1zm116 0h1v1h-1zm48 0h1v1h-1zm-32 1h1v1h-1zM29 102h1v1h-1zm40 9h1v1h-1zm-4 1h1v1h-1z" fill="#426e81"/><path d="M81 63h1v1h-1zm-8 6h1v1h-1zm1 13h1v1h-1zm1 0h1v1h-1zm-7 1h1v1h-1zm1 0h1v1h-1zm57 0h1v1h-1zm12 0h1v1h-1zm0 1h1v1h-1zm116 1h1v1h-1zm12 0h1v1h-1zm-17 1h1v1h-1z" fill="#5f4d48"/><path d="M60 53h1v1h-1zm-20 2h1v1h-1zm-9 6h1v1h-1zm21 6h1v1h-1zm8 2h1v1h-1zm173 12h1v1h-1zM70 83h1v1h-1zm119 0h1v1h-1zm-35 2h1v1h-1zm41 0h1v1h-1zm-94 1h1v2h-1zm53 0h1v1h-1zm95 1h1v1h-1zm-148 1h1v1h-1zm61 0h1v1h-1zm75 0h1v1h-1zm24 0h1v1h-1zM67 91h1v1h-1zm7 1h1v1h-1zm0 1h1v1h-1zm-15 6h1v1h-1z" fill="#5e4c4b"/><path d="M226 83h1v1h-1zm-81 6h1v1h-1z" fill="#426768"/><path d="M47 53h1v1h-1zm-16 7h1v1h-1zm12 8h1v1h-1zm3 0h1v1h-1zm26 0h1v1h-1zm-31 1h1v1h-1zm4 1h1v1h-1zm40 0h1v1h-1zm-46 1h1v1h-1zm30 0h1v1h-1zm-25 2h1v5h-1zm12 2h1v1h-1zm-17 1h1v6h-1zm57 0h1v1h-1zm71 0h1v1h-1zm-18 1h1v1h-1zm93 0h1v2h-1zM44 78h1v1h-1zm105 0h1v1h-1zm35 0h1v1h-1zm58 1h1v1h-1zM96 80h1v7h-1zm33 0h1v1h-1zm50 0h2v1h-2zm2 0h1v1h-1zm4 0h1v1h-1zm3 0h1v1h-1zm39 0h1v1h-1zm24 0h1v1h-1zm16 0h3v1h-3zm3 0h1v1h-1zm-56 1h1v2h-1zM39 82h1v1h-1zm5 0h1v1h-1zm8 0h1v1h-1zm15 1h1v1h-1zm147 0h1v1h-1zm-83 1h1v1h-1zm142 0h1v1h-1zm-90 2h1v1h-1zm56 0h1v1h-1zM96 87h1v1h-1zm34 0h1v1h-1zm92 0h1v1h-1zm39 0h1v1h-1zM44 88h1v5h-1zm203 0h1v1h-1zm-112 1h1v1h-1zm14 0h1v1h-1zm-81 1h1v1h-1zm189 0h1v1h-1zM39 91h1v1h-1zm5 2h1v1h-1zm0 5h1v1h-1zm37 6h1v1h-1zm-50 2h1v1h-1zm4 3h1v1h-1zm36 3h1v1h-1z" fill="#535551"/><path d="M53 54h3v1h-3zm3 0h1v1h-1zm-7 12h1v1h-1zm-6 1h1v1h-1zm18 1h1v30h-1zm-7 2h1v1h-1zm29 0h1v1h-1zm1 4h1v1h-1zm38 2h1v1h-1zm76 0h1v1h-1zm56 1h1v1h-1zm-129 1h1v1h-1zm69 0h2v1h-2zm2 0h1v1h-1zm76 0h1v1h-1zM74 79h1v1h-1zm118 0h1v1h-1zm54 0h1v2h-1zm-109 1h1v1h-1zm89 0h1v1h-1zM45 81h2v1h-2zm2 0h1v1h-1zm116 0h1v1h-1zm30 0h1v1h-1zm44 0h1v1h-1zm9 0h1v1h-1zm6 1h1v1h-1zm3 0h1v1h-1zM65 84h1v1h-1zm133 1h1v1h-1zM51 86h1v1h-1zm81 0h1v1h-1zm114 0h1v1h-1zm0 1h1v1h-1zM65 89h1v1h-1zm0 1h1v1h-1zm2 2h1v1h-1zm-29 1h1v1h-1zm0 1h1v1h-1zm18 1h1v1h-1zm5 3h1v1h-1zm17 7h1v1h-1zm-1 1h1v1h-1zm-15 6h1v1h-1z" fill="#1da0c9"/><path d="M64 54h1v1h-1zM53 71h1v1h-1zm-4 1h1v1h-1zm187 5h1v1h-1zm-135 2h1v2h-1zm108 0h1v1h-1zm-108 2h1v1h-1zm6 0h1v1h-1zm-41 3h1v1h-1zm126 0h1v1h-1zm-62 1h1v1h-1zm-5 1h1v1h-1zm69 0h1v1h-1zm-65 1h1v1h-1zm-89 9h1v1h-1zm4 16h1v1h-1zm22 0h1v1h-1z" fill="#525364"/><path d="M46 55h1v1h-1zm-8 4h1v1h-1zm36 0h1v1h-1zm4 4h1v1h-1zm-49 3h1v1h-1zm13 0h1v1h-1zm14 1h1v1h-1zm15 0h1v1h-1zm-42 2h1v1h-1zm39 1h1v1h-1zm-22 2h1v1h-1zm0 1h1v1h-1zm9 1h1v1h-1zm10 0h1v1h-1zm-18 1h1v1h-1zm146 1h1v1h-1zm-94 1h1v1h-1zm37 0h1v1h-1zm2 1h1v1h-1zm36 0h1v1h-1zm3 0h1v1h-1zm13 0h1v1h-1zm8 0h1v1h-1zm10 0h1v1h-1zm-54 1h1v1h-1zm82 0h1v1h-1zm-46 2h1v1h-1zm64 0h1v1h-1zM78 82h1v1h-1zm21 1h1v1h-1zm18 0h1v1h-1zm3 0h1v2h-1zm-49 1h1v1h-1zm86 0h1v1h-1zm87 0h1v1h-1zm-124 1h1v1h-1zm20 0h1v1h-1zm-67 1h1v1h-1zm26 1h1v1h-1zm76 0h1v1h-1zm60 0h1v1h-1zm-121 1h1v1h-1zm10 0h1v1h-1zm40 0h1v1h-1zm48 0h1v1h-1zm32 0h1v1h-1zM54 91h1v1h-1zm-18 4h1v1h-1zm18 0h1v1h-1zm-26 3h1v1h-1zm54 0h1v1h-1zm-24 4h1v1h-1zm-14 9h1v1h-1zm22 0h1v1h-1zm-7 1h1v1h-1zm1 0h1v1h-1z" fill="#00bee8"/><path d="M39 56h1v1h-1zm32 0h1v1h-1zm-36 2h1v1h-1zm-9 13h1v1h-1zm24 2h1v1h-1zm9 2h1v1h-1zm49 3h1v1h-1zm-6 1h1v1h-1zm76 0h1v1h-1zm94 0h1v1h-1zM52 80h1v1h-1zm21 0h1v1h-1zm160 0h1v1h-1zm-74 2h1v1h-1zm63 0h1v1h-1zm25 0h1v1h-1zm-57 1h1v1h-1zm32 0h1v1h-1zm-86 1h1v1h-1zm-87 1h1v1h-1zm146 2h1v1h-1zm-59 1h1v1h-1zm112 0h1v1h-1zm-47 2h1v1h-1zm9 0h1v1h-1zM25 91h1v1h-1zm15 4h1v1h-1zm-7 12h1v1h-1zm41 2h1v1h-1zm-36 1h1v1h-1z" fill="#495c5e"/><path d="M42 53h1v1h-1zm33 5h1v1h-1zm-44 1h1v1h-1zm-3 7h1v1h-1zm18 1h1v1h-1zm-19 1h1v1h-1zm56 0h1v1h-1zm-41 2h1v1h-1zm2 1h1v1h-1zm13 2h1v1h-1zm172 2h2v1h-2zm2 0h1v1h-1zM55 76h1v1h-1zm30 0h1v1h-1zm1 0h1v1h-1zm153 0h1v1h-1zm15 0h1v1h-1zm-68 1h1v1h-1zm71 0h1v1h-1zm-34 1h1v1h-1zm34 0h1v1h-1zM53 79h1v1h-1zm50 0h3v1h-3zm3 0h1v2h-1zm3 0h1v2h-1zm70 0h2v1h-2zm2 0h2v1h-2zm2 0h1v1h-1zm14 0h1v1h-1zm11 0h1v1h-1zm7 0h2v1h-2zm2 0h1v1h-1zm50 0h2v1h-2zm2 0h2v1h-2zm2 0h1v1h-1zm3 0h1v1h-1zm-152 1h1v1h-1zm78 0h1v1h-1zm56 0h1v1h-1zm4 0h1v6h-1zm-154 1h1v1h-1zm3 0h1v1h-1zm13 0h1v1h-1zm65 0h1v1h-1zm45 0h1v1h-1zM69 82h1v1h-1zm179 0h1v1h-1zm1 0h1v1h-1zM51 83h1v1h-1zm150 0h1v1h-1zm-93 1h1v1h-1zm46 0h1v1h-1zm35 0h1v2h-1zm33 0h1v1h-1zm17 0h1v1h-1zm-137 2h1v1h-1zm85 0h2v1h-2zm2 0h1v1h-1zm71 0h1v1h-1zm-89 1h1v1h-1zm66 0h1v1h-1zM95 88h1v1h-1zm42 0h2v1h-2zm2 0h1v1h-1zm-44 1h1v1h-1zm119 0h1v1h-1zm-112 1h1v1h-1zm69 0h1v1h-1zm20 0h1v1h-1zm18 0h1v1h-1zm51 0h1v1h-1zm14 0h1v1h-1zM24 94h1v1h-1zm3 9h1v1h-1zm55 1h1v1h-1zm-3 4h1v1h-1zm-40 4h1v1h-1zm12 1h1v1h-1zm1 0h1v1h-1zm19 0h1v1h-1z" fill="#4f575e"/><path d="M50 53h1v1h-1zm1 0h1v1h-1zm-7 1h1v1h-1zm35 7h1v1h-1zm-31 6h1v1h-1zm1 0h1v1h-1zm4 1h1v1h-1zm7 0h1v1h-1zm-7 1h1v1h-1zm31 0h1v1h-1zm-45 1h1v1h-1zm31 0h1v1h-1zm14 0h1v1h-1zm-33 3h1v1h-1zm34 1h1v1h-1zm176 2h1v1h-1zm-66 3h1v1h-1zM24 80h1v1h-1zm153 0h1v1h-1zm16 0h1v1h-1zm-51 1h1v1h-1zm46 0h1v1h-1zm63 0h1v1h-1zm-18 1h1v1h-1zM66 83h1v1h-1zm77 0h1v1h-1zm15 0h1v1h-1zm-21 1h1v1h-1zm47 0h1v1h-1zm-81 1h1v1h-1zm41 0h1v1h-1zm50 0h1v1h-1zm39 0h1v1h-1zm-36 1h1v1h-1zm69 0h1v1h-1zM66 89h1v1h-1zm135 0h1v1h-1zM55 90h1v1h-1zm16 1h1v1h-1zm-32 1h1v1h-1zm17 0h1v1h-1zm-17 1h1v1h-1zm33 0h1v1h-1zm13 1h1v1h-1zm-1 3h1v1h-1zm-37 1h1v1h-1zm-20 2h1v1h-1zm53 4h1v1h-1zm-48 3h1v1h-1zm29 6h2v1h-2zm2 0h1v1h-1z" fill="#595049"/><path d="M38 54h3v1h-3zm3 0h1v1h-1zm-3 1h1v1h-1zm-5 2h1v1h-1zm46 0h1v2h-1zm-1 1h1v1h-1zm1 1h1v1h-1zm-50 1h1v1h-1zm51 1h1v1h-1zm1 0h1v1h-1zm-55 2h1v1h-1zm0 1h1v1h-1zm56 0h1v1h-1zm1 1h1v1h-1zm4 3h1v1h-1zm-28 1h1v1h-1zm27 0h1v1h-1zm-27 3h1v1h-1zm135 0h1v1h-1zm35 0h2v1h-2zm2 0h1v1h-1zM86 73h1v1h-1zm90 0h2v1h-2zm2 0h1v1h-1zm70 0h2v1h-2zm2 0h1v1h-1zM24 74h1v1h-1zm170 1h3v1h-3zm3 0h1v1h-1zM58 76h1v2h-1zm71 0h1v1h-1zm31 0h1v1h-1zm11 0h1v2h-1zm69 0h1v3h-1zm-128 1h1v1h-1zm16 0h1v2h-1zm59 0h1v1h-1zm14 0h1v1h-1zm37 0h2v1h-2zM58 78h1v1h-1zm29 0h1v3h-1zm84 0h1v1h-1zm67 0h2v1h-2zm-110 1h1v1h-1zm92 0h1v1h-1zm20 0h1v1h-1zm18 0h2v1h-2zm2 0h1v1h-1zM43 80h1v1h-1zm100 0h1v1h-1zm1 0h1v1h-1zm57 0h1v1h-1zM87 81h1v1h-1zm16 0h1v1h-1zm1 0h1v1h-1zm16 0h1v1h-1zm81 0h1v1h-1zm20 0h1v1h-1zm1 0h1v1h-1zm52 0h1v1h-1zM67 82h1v1h-1zm172 0h1v1h-1zm11 0h1v1h-1zm24 0h1v2h-1zM43 83h1v1h-1zm4 0h1v1h-1zm11 0h1v12h-1zm69 0h1v1h-1zm58 0h1v1h-1zm72 0h1v1h-1zm-69 1h1v1h-1zm44 0h1v1h-1zm42 0h1v1h-1zM42 85h2v1h-2zm2 0h1v1h-1zm65 0h1v1h-1zm163 0h1v1h-1zM87 86h1v1h-1zm16 0h1v1h-1zm1 0h2v1h-2zm2 0h2v1h-2zm2 0h1v1h-1zm-21 1h1v1h-1zm130 0h1v1h-1zm56 0h1v1h-1zM23 88h1v1h-1zm79 0h1v1h-1zm70 0h1v1h-1zm45 0h1v1h-1zm-88 1h1v1h-1zm145 0h1v1h-1zM95 90h1v1h-1zm15 0h1v1h-1zm1 0h1v1h-1zm7 0h2v1h-2zm2 0h1v1h-1zm68 0h1v1h-1zm35 0h1v1h-1zm1 0h1v1h-1zm15 0h2v1h-2zm2 0h1v1h-1zm-131 1h1v1h-1zm76 0h1v1h-1zM25 92h1v1h-1zm16 1h1v1h-1zm45 1h1v1h-1zm-28 1h1v1h-1zm-16 2h1v1h-1zm41 5h1v1h-1zm0 3h1v1h-1zm-52 2h1v1h-1zm48 2h1v1h-1zm-39 3h1v1h-1zm28 1h1v1h-1z" fill="#515659"/><path d="M52 54h1v1h-1zm5 0h1v1h-1zm-19 3h1v1h-1zm12 9h3v1h-3zm3 0h1v1h-1zm6 1h1v1h-1zm13 0h1v1h-1zm-45 3h1v1h-1zm29 3h1v1h-1zm51 3h1v1h-1zm32 0h1v1h-1zm53 0h1v1h-1zm35 0h1v1h-1zm35 0h1v1h-1zm-44 1h1v1h-1zm7 0h1v1h-1zM53 78h1v1h-1zm102 0h1v1h-1zm28 0h1v1h-1zm41 0h1v1h-1zm3 1h1v1h-1zm6 0h1v1h-1zM51 80h1v1h-1zm141 0h1v1h-1zm31 0h1v1h-1zM77 81h1v1h-1zm57 0h1v1h-1zm26 0h1v1h-1zm2 1h1v1h-1zm-23 1h1v1h-1zm16 2h1v1h-1zm46 0h1v1h-1zm0 1h1v1h-1zm52 0h1v1h-1zM53 88h1v1h-1zm137 1h1v1h-1zm44 0h1v1h-1zM54 90h1v1h-1zm-9 6h1v1h-1zm16 3h1v1h-1zm21 0h1v1h-1zm-21 1h1v1h-1zm20 1h1v1h-1zm-50 3h1v1h-1z" fill="#29a0be"/><g fill="#01baf0"><path d="M52 56h1v7h-1zm-9 1h9v6h-9zm14 0h10v6H57zm10 0h1v10h-1zm-30 1h1v1h-1z"/><path d="M42 58h10v5H42zm27 0h1v1h-1zm1 1h1v4h-1zm-36 1h1v1h-1zm38 0h1v3h-1zm1 0h1v3h-1z"/><path d="M35 61h40v2H35zm40 0h1v2h-1zm1 1h1v1h-1zm-42 1h41v1H34zm41 0h2v1h-2zm2 0h1v1h-1zm-42 1h3v4h-3zm3 0h1v1h-1zm17 0h1v1h-1zm9 0h3v1h-3zm10 0h1v1h-1z"/><path d="M34 65h3v6h-3zm5 0h1v1h-1zm5 0h1v1h-1zm10 0h1v1h-1zm7 0h1v1h-1zm3 0h4v1h-4zm4 0h2v1h-2zm2 0h1v1h-1zm4 0h1v1h-1zm-35 1h1v1h-1zm26 0h2v1h-2zm-35 1h1v1h-1zm27 0h1v1h-1zm8 0h2v1h-2zm2 0h1v1h-1z"/><path d="M31 68h6v3h-6zm6 0h1v1h-1zm40 0h2v10h-2zm2 0h2v1h-2zm2 0h1v1h-1zm-17 1h1v2h-1zm4 0h1v1h-1zm11 0h2v1h-2zm2 0h1v1h-1zm-25 1h1v1h-1zm23 0h1v8h-1zm-51 1h1v3h-1zm3 0h5v1h-5zm5 0h1v1h-1zm28 0h1v2h-1zm1 0h1v1h-1z"/><path d="M75 72h4v3h-4zm-11 1h1v2h-1z"/><path d="M73 73h6v2h-6zm-45 1h1v1h-1zm1 0h1v1h-1zm22 0h1v1h-1z"/><path d="M71 74h8v1h-8zm-42 1h1v1h-1zm1 0h1v3h-1zm34 0h1v1h-1zm9 0h6v1h-6zm-46 1h1v1h-1zm4 0h5v3h-5zm5 0h1v3h-1zm13 0h1v1h-1zm19 0h3v1h-3zm3 0h1v2h-1zm3 0h9v1h-9z"/><path d="M69 77h3v1h-3zm3 0h1v1h-1zm8 0h2v2h-2zm2 0h1v2h-1zm34 0h1v1h-1zm-86 1h6v1h-6zm39 0h2v1h-2zm2 0h1v1h-1z"/><path d="M77 78h6v1h-6zm99 0h1v1h-1zm31 0h1v1h-1zm7 0h1v1h-1zm12 0h1v1h-1zm39 0h1v1h-1zM31 79h5v1h-5zm5 0h1v1h-1zm12 0h1v1h-1zm16 0h1v1h-1zm5 0h1v1h-1zm11 0h2v1h-2zm2 0h1v1h-1zm43 0h1v1h-1zm14 0h1v1h-1zm1 0h1v1h-1zm-61 1h1v1h-1zm-1 1h1v1h-1zm145 1h1v1h-1zm42 0h1v1h-1zM27 83h1v6h-1zm56 0h1v3h-1zm32 0h1v1h-1zm108 0h1v1h-1zm1 0h1v1h-1zm12 0h1v1h-1zm11 0h1v1h-1zM28 84h5v6h-5zm5 0h1v17h-1zm44 0h6v6h-6zm38 0h1v1h-1zm7 0h1v1h-1zm12 0h1v1h-1zm102 0h1v1h-1zm14 0h1v1h-1zM70 85h1v1h-1zm3 0h1v1h-1z"/><path d="M76 85h7v1h-7zm65 0h1v1h-1zm-77 1h1v1h-1zm12 0h7v4h-7zm7 0h1v1h-1zm-49 1h2v3h-2zm2 0h1v3h-1zm28 0h1v1h-1zm7 0h1v1h-1zm67 0h1v1h-1zm61 0h1v1h-1zm52 0h1v1h-1zM49 88h2v1h-2zm2 0h1v1h-1zm144 0h1v1h-1zm32 0h1v1h-1zm6 0h1v1h-1z"/><path d="M27 89h9v1h-9zm23 0h2v5h-2zm2 0h1v5h-1zm23 0h7v1h-7zm9 0h1v1h-1zm-56 1h8v1h-8zm8 0h1v1h-1zm40 0h7v1h-7zm-46 1h3v3h-3zm34 2h2v1h-2zm2 0h1v9h-1zm-36 1h4v1h-4zm4 0h1v1h-1zm15 0h3v1h-3zm3 0h1v1h-1zm13 0h1v8h-1zm-34 1h2v6h-2zm4 0h1v1h-1zm14 0h1v1h-1zm1 0h1v1h-1zm17 0h3v6h-3zm3 0h1v10h-1zm6 0h3v6h-3zm3 0h1v6h-1zm-29 1h1v1h-1z"/><path d="M71 96h8v1h-8zm10 0h1v1h-1zm-52 1h4v1h-4zm22 0h1v1h-1zm20 0h1v8h-1zm1 0h1v8h-1zm9 0h1v1h-1zm-52 1h4v1h-4zm22 0h1v1h-1zm22 0h7v3h-7zm7 0h1v1h-1zm-27 1h3v10h-3zm3 0h1v10h-1z"/><path d="M64 100h15v1H64zm-33 1h2v1h-2zm2 0h1v1h-1zm4 0h1v4h-1zm25 0h1v8h-1zm5 0h12v1H67zm12 0h1v1h-1zm-44 1h1v4h-1zm10 0h1v7h-1zm3 0h1v3h-1zm1 0h1v3h-1zm16 0h1v1h-1zm1 0h11v1H66zm11 0h1v1h-1z"/><path d="M36 103h13v2H36zm21 0h7v6h-7zm7 0h1v6h-1zm5 0h6v2h-6zm6 0h1v1h-1z"/><path d="M34 104h15v1H34zm41 0h1v1h-1zm-39 1h13v1H36zm13 0h1v1h-1zm20 0h5v1h-5zm5 0h1v1h-1zm-39 1h1v1h-1zm7 0h3v3h-3zm30 1h1v1h-1zm-30 2h3v1h-3zm3 0h1v1h-1zm8 0h11v1H53zm11 0h1v1h-1zm-17 1h1v1h-1zm6 0h1v1h-1zm5 0h1v1h-1zm8 0h1v1h-1zm-17 1h1v1h-1zm9 0h2v1h-2zm2 0h1v1h-1z"/></g><path d="M74 57h1v1h-1zm-40 1h1v1h-1zm44 2h1v1h-1zm110 18h1v1h-1zm13 0h1v1h-1zm-3 2h1v1h-1zm16 0h1v1h-1zM76 81h1v1h-1zm-30 3h1v1h-1zm116 2h1v1h-1zm-8 2h1v1h-1zm-85 2h1v1h-1zm4 3h1v1h-1zm-36 5h1v1h-1zm23 1h1v1h-1zm-32 3h1v1h-1zm42 9h1v1h-1zm-28 1h1v1h-1z" fill="#575248"/><path d="M80 63h1v1h-1zm-39 5h1v1h-1zm193 8h1v1h-1zm-29 1h1v1h-1zm-68 4h1v1h-1zm-4 1h1v1h-1zm118 0h1v1h-1zM67 84h1v1h-1zm88 2h1v1h-1zm95 1h1v1h-1zm-137 1h1v1h-1zm87 1h1v1h-1zm-37 1h1v1h-1zm-79 5h1v1h-1z" fill="#46667c"/><path d="M57 65h1v1h-1zm25 3h1v1h-1zm-28 8h1v1h-1zm143 0h1v1h-1zm-4 2h1v1h-1zm-37 3h1v1h-1zm-80 2h1v1h-1zm85 1h1v1h-1zm36 0h1v1h-1zm-76 3h1v1h-1zm52 2h1v1h-1zM36 96h1v1h-1zm38 12h1v1h-1z" fill="#03b9de"/><path d="M43 53h1v1h-1zm34 5h1v1h-1zm-47 1h1v1h-1zm-1 3h1v1h-1zm53 0h1v1h-1zm-54 1h1v1h-1zm0 1h1v1h-1zm53 0h1v1h-1zm-8 4h1v1h-1zm-47 2h1v1h-1zm17 0h1v1h-1zm44 0h1v1h-1zm-47 1h1v1h-1zm3 0h1v1h-1zm44 0h1v1h-1zm-63 1h1v1h-1zm34 1h1v1h-1zm139 0h1v1h-1zM58 74h1v1h-1zm-35 1h1v1h-1zm64 1h1v1h-1zm172 0h1v1h-1zm-130 1h1v1h-1zm-75 1h1v1h-1zm75 0h1v1h-1zm56 0h2v1h-2zm2 0h1v1h-1zm33 0h1v1h-1zm-108 1h1v1h-1zm21 0h1v2h-1zm54 0h1v1h-1zm14 0h1v1h-1zm50 0h1v1h-1zm-10 1h1v7h-1zM52 81h1v1h-1zm56 0h1v1h-1zm19 0h1v1h-1zm6 0h1v1h-1zm124 0h1v1h-1zM46 82h1v1h-1zm1 0h1v1h-1zm90 0h1v1h-1zm63 0h1v1h-1zm27 0h1v1h-1zm11 0h1v1h-1zM23 83h1v1h-1zm165 0h1v1h-1zM43 84h2v1h-2zm2 0h1v1h-1zm4 0h1v1h-1zm61 0h1v2h-1zm15 0h1v1h-1zm5 0h1v1h-1zm55 0h1v1h-1zM52 85h1v1h-1zm133 0h1v1h-1zm47 0h1v1h-1zm-122 1h1v1h-1zm1 1h1v1h-1zm130 0h1v1h-1zm15 0h1v1h-1zM57 88h1v1h-1zm104 0h1v2h-1zm23 0h2v1h-2zm2 0h1v1h-1zm29 0h1v2h-1zm40 0h1v1h-1zM56 89h1v1h-1zm54 0h1v1h-1zm11 0h1v1h-1zm9 0h1v1h-1zm41 0h1v1h-1zm15 0h2v1h-2zm2 0h1v1h-1zm73 0h1v1h-1zm-149 1h1v1h-1zm36 0h2v1h-2zm2 0h1v1h-1zm4 0h1v1h-1zm61 0h1v1h-1zm41 0h1v1h-1zm5 0h1v1h-1zM70 91h1v1h-1zm2 1h1v1h-1zm-32 5h1v1h-1zm3 0h1v1h-1zm-16 2h1v1h-1zm55 4h1v1h-1zm-3 3h1v1h-1zm-2 3h1v1h-1zm-39 2h1v2h-1zm32 1h1v1h-1zm-32 1h1v1h-1z" fill="#58535c"/><path d="M67 74h1v1h-1zm93 4h1v1h-1zm106 2h1v1h-1zm-107 1h1v1h-1zm-93 1h1v1h-1zm111 3h1v1h-1zm50 0h1v1h-1zm-50 1h1v1h-1zM39 94h1v1h-1zm0 17h1v1h-1z" fill="#5d4d40"/><path d="M122 79h1v1h-1zm79 5h1v1h-1zm-3 2h1v1h-1zm26 2h1v1h-1zM75 92h1v1h-1zm-39 7h1v1h-1z" fill="#3a7fa5"/><path d="M49 68h1v1h-1zm1 3h1v1h-1zm145 1h1v1h-1zM59 73h1v1h-1zm50 5h1v1h-1zm-54 1h1v1h-1zm62 0h1v1h-1zm27 0h1v1h-1zm85 0h1v1h-1zM22 80h1v1h-1zm86 0h1v1h-1zm166 0h1v1h-1zM22 81h1v1h-1zm52 0h1v1h-1zm143 0h1v5h-1zm22 0h1v1h-1zm-52 1h2v1h-2zm2 0h1v1h-1zm13 0h1v1h-1zm55 0h1v1h-1zm-69 3h1v1h-1zM44 86h1v1h-1zm85 0h1v1h-1zm86 1h1v1h-1zm-104 1h1v1h-1zm149 0h1v1h-1zM22 90h1v1h-1zm145 0h1v1h-1zm70 0h1v1h-1zM72 91h1v1h-1zm39 0h1v1h-1zm60 0h1v1h-1zm-85 2h1v1h-1zm-5 13h1v1h-1zm-49 2h1v1h-1zm-2 1h1v1h-1zm45 1h3v1h-3zm3 0h1v1h-1zm-6 3h1v1h-1z" fill="#51555a"/><path d="M48 53h1v1h-1zm19 1h1v1h-1zm3 1h1v1h-1zM28 65h1v1h-1zm16 3h1v1h-1zm9 2h1v1h-1zm-3 2h1v1h-1zm51 3h5v1h-5zm5 0h1v1h-1zm8 0h1v1h-1zm61 0h2v1h-2zm2 0h5v1h-5zm5 0h1v1h-1zm16 0h1v1h-1zm1 0h1v1h-1zm11 0h1v1h-1zm1 0h1v1h-1zm3 0h3v1h-3zm3 0h1v1h-1zm9 0h1v1h-1zm1 0h1v1h-1zm20 0h1v1h-1zm4 0h1v1h-1zm1 0h1v1h-1zm12 0h6v1h-6zm6 0h1v1h-1zm-136 1h1v1h-1zm139 1h1v2h-1zm-132 1h1v1h-1zm55 1h1v1h-1zm51 0h1v1h-1zm14 0h1v1h-1zm12 0h1v2h-1zM44 80h1v1h-1zm123 0h1v6h-1zm106 1h1v1h-1zM86 82h1v3h-1zm105 2h1v1h-1zm11 0h1v1h-1zM50 85h1v1h-1zm36 0h1v1h-1zm81 1h1v1h-1zm55 0h1v1h-1zm48 0h2v1h-2zm2 0h1v1h-1zM44 87h1v1h-1zm158 0h1v1h-1zm40 0h1v1h-1zM86 88h1v1h-1zm101 0h1v1h-1zm36 0h1v1h-1zm19 0h1v1h-1zm-116 1h1v1h-1zm14 0h1v1h-1zm133 0h1v1h-1zm-139 1h1v1h-1zm55 0h1v1h-1zm11 0h1v1h-1zm34 0h1v1h-1zm39 0h1v1h-1zm-150 1h1v1h-1zm1 0h1v1h-1zm20 0h1v1h-1zm49 0h1v1h-1zm1 0h1v1h-1zm34 0h4v1h-4zm4 0h1v1h-1zm12 0h1v1h-1zm19 0h1v1h-1zm1 0h1v1h-1zm6 0h1v1h-1zm1 0h1v1h-1zM84 96h1v1h-1zm-37 1h1v1h-1zm-8 1h1v1h-1zm4 0h1v1h-1zm3 0h1v1h-1zm37 2h1v1h-1zm-3 5h1v1h-1zm-11 7h1v1h-1zm-19 1h1v1h-1z" fill="#545051"/><path d="M52 53h7v1h-7zm7 0h1v1h-1zm-14 1h1v1h-1zm21 0h1v1h-1zm-28 2h1v1h-1zm38 2h1v1h-1zm-26 9h1v1h-1zm1 0h1v1h-1zm-5 3h1v1h-1zm13 0h1v1h-1zm1 0h1v4h-1zm12 0h1v1h-1zm-20 2h1v1h-1zm-27 1h1v1h-1zm60 0h1v1h-1zm-25 1h1v21h-1zm-36 2h1v1h-1zm160 0h1v1h-1zm0 1h1v1h-1zm72 0h1v1h-1zm-89 1h1v1h-1zm27 1h1v1h-1zm36 0h1v1h-1zm-103 1h1v1h-1zm15 0h1v1h-1zm36 0h1v1h-1zm5 0h1v1h-1zm78 0h1v6h-1zm10 0h1v1h-1zM69 81h1v1h-1zm178 0h1v1h-1zm-9 2h1v1h-1zm0 1h1v1h-1zm-134 1h2v1h-2zm2 0h1v1h-1zm96 0h1v1h-1zM86 86h1v1h-1zm96 0h1v1h-1zm20 0h1v1h-1zm26 0h1v1h-1zm4 0h1v1h-1zm16 0h1v1h-1zm13 0h1v1h-1zm8 0h1v1h-1zm-149 2h1v1h-1zm131 2h1v1h-1zM60 95h1v2h-1zm-2 1h1v1h-1zm-32 1h1v1h-1zm34 0h1v1h-1zm-15 1h1v1h-1zm37 3h1v1h-1zm-48 7h1v1h-1zm41 1h1v1h-1zm-4 2h1v1h-1zm-3 1h1v1h-1zm-22 1h3v1h-3zm3 0h1v1h-1z" fill="#584d4d"/><path d="M59 68h1v1h-1zm124 16h1v1h-1zm-58 6h1v1h-1z" fill="#496f8e"/><path d="M131 90h2v1h-2zm2 0h1v1h-1zm50 0h1v1h-1z" fill="#3e7c85"/><g fill="#53565b"><path d="M15 0h3v3h-3zm3 0h1v3h-1zm5 0h3v3h-3zm3 0h1v3h-1zm4 0h228v2H30zm228 0h1v7h-1zm5 0h7v3h-7zm7 0h1v7h-1zm4 0h25v3h-25zm25 0h1v7h-1zM30 2h228v1H30zM15 3h3v1h-3zm3 0h1v1h-1zm5 0h3v1h-3zm3 0h1v1h-1zm5 0h227v1H31zm232 0h7v1h-7zm11 0h25v1h-25zM110 4h7v3h-7zm7 0h1v3h-1zm104 0h3v3h-3zm3 0h1v3h-1zm4 0h4v22h-4zm4 0h1v3h-1zm8 0h3v3h-3zm3 0h1v3h-1z"/><path d="M247 4h19v3h-19zm19 0h1v10h-1zm5 0h2v3h-2zm2 0h1v3h-1zm9 0h17v3h-17zM96 7h44v1H96zm44 0h1v34h-1z"/><path d="M145 7h154v1H145zm154 0h1v1h-1zM30 8h3v2h-3zm3 0h1v2h-1zm66 0h3v18h-3zm3 0h1v18h-1zm5 0h2v18h-2zm2 0h1v18h-1zm28 0h3v33h-3zm31 0h6v3h-6zm6 0h1v3h-1zm9 0h3v18h-3zm3 0h1v37h-1zm12 0h3v25h-3zm3 0h1v25h-1zm24 0h6v18h-6zm11 0h3v33h-3zm3 0h1v33h-1zm5 0h6v6h-6zm6 0h1v6h-1zm13 0h3v6h-3zm15 0h7v18h-7zm7 0h1v29h-1zm5 0h2v37h-2zm2 0h1v37h-1zM30 10h3v1h-3zm3 0h1v1h-1zm-10 1h6v3h-6zm6 0h1v3h-1zm5 0h3v3h-3zm3 0h1v3h-1zm13 0h2v19h-2zm2 0h1v19h-1zm9 0h3v11h-3zm3 0h1v11h-1zm9 0h2v11h-2zm2 0h1v11h-1zm9 0h6v3h-6zm6 0h1v19h-1z"/><path d="M96 11h51v3H96zm51 0h1v15h-1zm6 0h55v1h-55zm55 0h1v34h-1zm6 0h85v1h-85zm85 0h1v30h-1zM72 12h3v10h-3z"/><path d="M95 12h53v2H95zm53 0h1v14h-1zm4 0h19v14h-19zm19 0h1v14h-1zm4 0h34v2h-34zm34 0h1v1h-1zm4 0h19v2h-19zm19 0h1v33h-1zm8 0h59v2h-59zm-31 1h1v32h-1zM23 14h7v1h-7zm11 0h3v1h-3zm3 0h1v1h-1zm47 0h6v1h-6zm11 0h53v1H95zm80 0h33v1h-33zm38 0h19v1h-19zm27 0h59v1h-59zM12 15h2v3h-2zm2 0h1v3h-1zm24 0h45v7H38zm45 0h1v7h-1zm5 0h26v11H88zm26 0h1v1h-1zm4 0h7v11h-7zm7 0h1v30h-1zm4 0h1v2h-1z"/><path d="M133 15h42v11h-42zm42 0h1v1h-1zm4 0h34v11h-34zm34 0h1v7h-1zm4 0h30v11h-30zm30 0h1v22h-1zm4 0h11v7h-11zm11 0h1v15h-1zm5 0h32v7h-32zM11 16h3v2h-3zm118 1h1v28h-1zM11 18h3v1h-3zm3 0h1v1h-1zM4 19h3v3H4zm3 0h1v3H7zm20 0h56v3H27z"/><path d="M87 19h212v3H87zM4 22h3v1H4zm3 0h1v1H7zm20 0h56v1H27zm56 0h2v1h-2zm2 0h214v1H85zM8 23h2v3H8zm2 0h1v3h-1zm9 0h7v3h-7zm7 0h1v2h-1zm5 0h6v3h-6zm6 0h1v22h-1zm5 0h3v18h-3zm3 0h1v18h-1zm8 0h7v3h-7zm7 0h1v14h-1zm5 0h3v3h-3zm3 0h1v3h-1zm8 0h3v7h-3zm3 0h1v7h-1zm35 0h98v3h-98zm134 0h3v22h-3zm3 0h1v22h-1zm4 0h18v3h-18zm18 0h1v7h-1zm13 0h13v7h-13z"/><path d="M30 24h7v1h-7zm183 0h1v24h-1zM26 25h1v1h-1zm4 0h7v1h-7zM8 26h2v1H8zm2 0h1v1h-1zm9 0h6v1h-6zm6 0h1v1h-1zm6 0h6v1h-6zm18 0h23v1H49zm23 0h1v7h-1zm8 0h3v4h-3zm3 0h1v4h-1z"/><path d="M87 26h212v1H87zm-53 1h11v3H34zm15 0h3v3h-3zm8 0h7v3h-7zm7 0h1v3h-1zm5 0h25v3H69zm25 0h1v3h-1zm9 0h3v14h-3zm3 0h1v14h-1zm4 0h7v3h-7zm7 0h1v14h-1zm5 0h7v14h-7zm34 0h7v10h-7zm7 0h1v10h-1zm12 0h3v14h-3zm3 0h1v14h-1zm9 0h3v14h-3zm3 0h1v18h-1zm4 0h7v6h-7zm12 0h3v18h-3zm8 0h2v14h-2zm2 0h1v14h-1zm5 0h7v3h-7zm7 0h1v18h-1zm5 0h10v3h-10zm10 0h1v18h-1zm9 0h14v3h-14zm14 0h1v14h-1zm4 0h7v3h-7zm7 0h1v14h-1zm5 0h17v3h-17zM0 30h6v3H0zm6 0h1v3H6zm21 0h25v1H27zm25 0h1v1h-1z"/><path d="M57 30h72v1H57zm76 0h38v3h-38zm38 0h1v15h-1zm8 0h120v1H179zM7 31h1v2H7zm20 0h10v2H27zm19 0h3v6h-3zm3 0h1v6h-1zm8 0h3v6h-3zm11 0h7v2h-7zm7 0h1v2h-1zm9 0h3v2h-3zm3 0h1v2h-1zm8 0h15v6H95zm15 0h1v14h-1zm4 0h15v2h-15zm65 0h41v2h-41zm41 0h1v14h-1zm5 0h7v10h-7zm15 0h14v6h-14zm14 0h1v14h-1zm9 0h7v10h-7zm7 0h1v14h-1zm4 0h19v6h-19zm19 0h1v1h-1zm4 0h2v10h-2zm-4 1h1v5h-1zM0 33h7v1H0zm7 0h1v1H7zm20 0h10v1H27zm41 0h7v1h-7zm7 0h1v1h-1zm9 0h3v1h-3zm3 0h1v1h-1zm27 0h15v1h-15zm19 0h38v1h-38zm46 0h41v1h-41zM27 34h3v3h-3zm3 0h1v1h-1zm4 0h3v10h-3z"/><path d="M50 34h14v3H50zm14 0h1v3h-1zm5 0h2v11h-2zm2 0h1v11h-1zm5 0h7v3h-7zm7 0h1v7h-1zm5 0h29v3H88zm42 0h10v7h-10zm14 0h34v1h-34zm39 0h14v7h-14zm14 0h1v11h-1zm5 0h97v3h-97zm-57 1h33v2h-33zM27 37h2v1h-2zm2 0h1v1h-1zm17 0h18v1H46zm18 0h1v1h-1zm12 0h7v1h-7zm12 0h29v1H88zm57 0h33v1h-33zm57 0h97v1h-97z"/><path d="M65 38h6v7h-6zm15 0h3v3h-3zm8 0h10v3H88zm10 0h1v7h-1zm9 0h52v3h-52zm52 0h1v7h-1zm5 0h7v3h-7zm34 0h11v7h-11zm19 0h26v3h-26zm35 0h29v3h-29zm29 0h1v3h-1zm5 0h6v7h-6zM42 41h3v1h-3zm3 0h1v1h-1zm35 0h3v1h-3zm3 0h1v1h-1zm5 0h10v1H88zm15 0h56v1h-56zm60 0h8v1h-8zm12 0h3v1h-3zm3 0h1v1h-1z"/><path d="M182 41h27v1h-27zm32 0h29v1h-29zm38 0h29v1h-29zm29 0h1v1h-1zm16 0h2v1h-2zm2 0h1v1h-1zM4 42h3v3H4zm3 0h1v2H7zm31 0h3v3h-3zm3 0h1v3h-1zm5 0h3v3h-3zm3 0h1v3h-1zm8 0h3v3h-3zm3 0h1v3h-1zm16 0h3v2h-3zm3 0h1v3h-1zm5 0h3v3h-3zm3 0h1v3h-1zm4 0h11v3H91zm11 0h1v3h-1zm5 0h6v3h-6zm6 0h1v3h-1zm5 0h7v3h-7zm12 0h2v3h-2zm2 0h1v3h-1zm13 0h3v3h-3zm3 0h1v3h-1zm8 0h7v3h-7zm7 0h1v3h-1zm4 0h7v3h-7zm7 0h1v3h-1zm5 0h7v3h-7zm12 0h22v3h-22zm26 0h7v3h-7zm7 0h1v3h-1zm5 0h6v3h-6zm6 0h1v3h-1zm5 0h18v3h-18zm18 0h1v3h-1zm9 0h6v3h-6zm6 0h1v3h-1zm20 0h3v3h-3zm3 0h1v3h-1zM7 44h1v1H7z"/><path d="M34 44h7v1h-7zm42 0h3v1h-3zM4 45h2v1H4zm2 0h1v1H6zm29 0h6v1h-6zm6 0h1v1h-1zm5 0h14v1H46zm14 0h1v1h-1zm5 0h6v1h-6zm6 0h1v1h-1zm6 0h2v1h-2zm2 0h1v1h-1zm5 0h79v1H84zm79 0h1v1h-1zm4 0h114v1H167zm114 0h1v1h-1zm5 0h13v1h-13zm13 0h1v1h-1zm-124 1h3v2h-3zm3 0h1v2h-1zm36 0h2v2h-2zm2 0h1v2h-1zm20 0h3v2h-3zm3 0h1v2h-1zm-64 2h3v1h-3zm3 0h1v1h-1zm35 0h3v1h-3zm3 0h1v1h-1zm20 0h3v1h-3zm3 0h1v1h-1zM40 53h1v1h-1zm27 0h2v1h-2zm2 0h1v1h-1zm13 7h1v1h-1zm1 3h1v1h-1zm-36 5h1v1h-1zm37 0h1v1h-1zm-37 1h1v1h-1zm-24 3h1v1h-1zm92 0h6v1h-6zm6 0h1v1h-1zm58 0h2v1h-2zm2 0h1v1h-1zm15 0h1v1h-1zm18 0h2v1h-2zm2 0h1v1h-1zm16 0h1v1h-1zm31 0h6v1h-6zm6 0h1v1h-1zM23 73h1v1h-1zm83 0h1v1h-1zm46 0h1v1h-1zm15 0h1v1h-1zm80 0h1v1h-1zm23 0h1v1h-1zM23 76h1v3h-1zm132 0h1v1h-1zM23 79h1v1h-1zm20 0h1v1h-1zm105 0h1v1h-1zm108 0h1v1h-1zm-72 1h1v1h-1zm31 1h1v1h-1zm1 0h1v2h-1zM43 82h1v1h-1zm172 0h1v1h-1zm1 1h1v1h-1zM87 85h1v1h-1zm-45 1h1v1h-1zm143 0h1v1h-1zM41 87h1v3h-1zm14 0h1v1h-1zm65 0h1v1h-1zm8 0h1v1h-1zm20 0h1v1h-1zm91 0h1v1h-1zm21 0h1v1h-1zm-133 1h1v2h-1zm1 0h1v1h-1zm111 0h1v1h-1zm2 1h1v1h-1zm8 0h2v1h-2zm2 0h1v1h-1zM41 90h1v1h-1zm86 0h1v1h-1zm109 0h1v1h-1zM23 91h1v1h-1zm33 0h1v1h-1zm131 0h1v1h-1zm13 0h1v1h-1zM24 93h1v1h-1zm16 20h1v1h-1zm-32 1h2v3H8zm2 0h1v3h-1zm-2 3h2v1H8zm2 0h1v1h-1zm1 1h3v2h-3zm3 0h1v3h-1zm5 0h7v2h-7zm7 0h1v2h-1zm-15 2h3v1h-3zm8 0h7v1h-7zm7 0h1v1h-1zm-12 1h1v1h-1zm5 0h1v1h-1zm-4 16h3v6h-3zm3 0h1v6h-1zm-14 3h2v3H4zm2 0h1v3H6zm21 0h2v3h-2zm2 0h1v3h-1zm-22 1h1v2H7zm-3 2h3v1H4zm3 0h1v1H7zm8 0h3v1h-3zm3 0h1v1h-1zm9 0h2v1h-2zm2 0h1v1h-1zm-21 1h2v3H8zm2 0h1v3h-1zm9 0h3v3h-3zm3 0h1v3h-1zm8 0h3v3h-3zm3 0h1v3h-1zm211 0h2v3h-2zm2 0h1v3h-1zm1 1h1v2h-1zM8 147h2v1H8zm2 0h1v1h-1zm9 0h3v1h-3zm3 0h1v1h-1zm8 0h3v1h-3zm3 0h1v1h-1zm211 0h3v1h-3zm3 0h1v1h-1zM4 148h3v3H4zm3 0h1v3H7zm4 0h7v3h-7zm7 0h1v3h-1zm9 0h2v3h-2zm2 0h1v3h-1zm-25 3h3v1H4zm3 0h1v1H7zm4 0h7v1h-7zm7 0h1v1h-1zm9 0h2v1h-2zm2 0h1v1h-1zm-14 5h3v2h-3zm3 0h1v2h-1zm5 0h3v10h-3zm3 0h1v10h-1zm-11 2h3v1h-3zm3 0h1v1h-1zm10 1h1v3h-1zm1 0h1v3h-1z"/><path d="M27 160h2v2h-2zm0 2h3v1h-3zm-15 1h6v3h-6zm6 0h1v4h-1z"/><path d="M11 164h7v2h-7zm0 2h7v1h-7zm12 0h3v1h-3zm3 0h1v1h-1zm-11 1h3v1h-3zm3 0h1v1h-1zm211 0h2v1h-2zm2 0h1v1h-1zm20 0h3v1h-3zm3 0h1v1h-1zm36 0h2v1h-2zm2 0h1v1h-1z"/></g><path d="M61 55h1v1h-1zm-23 3h1v1h-1zm32 0h1v1h-1zm-39 5h1v1h-1zm39 3h1v1h-1zm-12 1h1v1h-1zm-30 2h1v1h-1zm19 3h1v1h-1zm24 1h1v1h-1zm51 4h1v1h-1zm1 0h1v1h-1zm28 0h1v2h-1zm23 0h1v1h-1zm25 0h1v1h-1zm10 0h1v1h-1zm7 0h1v1h-1zm11 0h1v1h-1zm6 0h1v1h-1zm-97 1h1v1h-1zm63 0h1v1h-1zm64 0h1v1h-1zM50 79h1v1h-1zm101 0h2v1h-2zm2 0h1v1h-1zm72 0h1v1h-1zm9 0h1v1h-1zM99 80h1v1h-1zm25 0h1v1h-1zm67 0h1v1h-1zM79 83h1v1h-1zm56 0h1v1h-1zm21 0h1v1h-1zm41 0h1v1h-1zm1 0h1v1h-1zm51 0h1v1h-1zm-97 2h1v1h-1zm99 0h1v1h-1zm-109 1h1v1h-1zm109 0h1v1h-1zm-136 1h1v1h-1zm119 0h1v1h-1zm-59 1h1v1h-1zm77 0h1v1h-1zm19 0h1v1h-1zm-148 1h1v1h-1zm20 0h1v1h-1zm101 0h1v1h-1zM55 95h1v1h-1zm-21 4h1v1h-1zm12 1h1v1h-1zm-16 1h1v1h-1zm47 2h1v1h-1z" fill="#00bdfc"/><path d="M41 53h1v1h-1zm25 0h1v1h-1zm-34 4h1v1h-1zm-3 4h1v1h-1zm-2 2h1v1h-1zm-1 5h1v1h-1zm14 4h1v3h-1zm1 0h1v1h-1zm28 0h1v1h-1zm83 0h3v1h-3zm3 0h1v1h-1zm9 0h3v1h-3zm3 0h1v1h-1zm39 0h3v1h-3zm3 0h1v1h-1zm19 0h1v1h-1zM99 73h6v1h-6zm6 0h1v1h-1zm48 0h2v1h-2zm2 0h1v1h-1zm9 0h2v1h-2zm2 0h1v1h-1zm9 0h1v1h-1zm31 0h7v1h-7zm7 0h1v1h-1zm31 0h2v1h-2zm2 0h1v1h-1zM22 74h1v1h-1zm153 0h3v1h-3zm3 0h1v1h-1zm70 0h2v1h-2zm2 0h1v1h-1zM22 75h1v1h-1zm18 0h1v1h-1zm120 0h1v1h-1zM41 76h1v6h-1zm18 0h1v18h-1zm97 0h1v1h-1zm101 0h1v1h-1zM86 77h1v1h-1zm24 0h1v1h-1zm149 0h1v2h-1zM95 78h1v1h-1zm-37 1h1v3h-1zm53 0h1v1h-1zm32 0h1v1h-1zm88 0h1v1h-1zM42 80h1v1h-1zm106 0h1v6h-1zm110 0h1v1h-1zM73 81h1v1h-1zm32 0h1v1h-1zm16 0h1v1h-1zm23 0h1v1h-1zM41 82h1v1h-1zm9 0h1v1h-1zm8 0h1v1h-1zm71 0h1v2h-1zm-17 1h1v2h-1zm103 0h1v3h-1zM40 84h1v6h-1zm89 0h1v1h-1zm75 0h1v2h-1zm1 0h1v2h-1zm24 0h2v1h-2zm2 0h1v1h-1zm-119 1h1v1h-1zm-89 1h1v1h-1zm125 0h1v1h-1zm23 0h1v1h-1zm15 0h1v1h-1zm18 0h1v1h-1zm1 0h1v1h-1zm10 0h1v1h-1zm6 0h1v1h-1zm-76 1h1v1h-1zm41 0h1v1h-1zm35 0h1v1h-1zm19 0h1v1h-1zm34 0h1v1h-1zM56 88h1v1h-1zm31 0h1v1h-1zm38 0h1v1h-1zm91 0h1v2h-1zm24 0h1v1h-1zM23 89h1v1h-1zm88 0h1v1h-1zm51 0h1v1h-1zM23 90h1v1h-1zm17 0h1v1h-1zm89 0h1v1h-1zm12 0h1v1h-1zm75 0h1v1h-1zm33 0h1v1h-1zM22 91h1v1h-1zm65 0h1v1h-1zm60 0h1v1h-1zm9 0h1v1h-1zm34 0h1v1h-1zm9 0h1v1h-1zm28 0h1v1h-1zM87 92h1v1h-1zm-28 2h1v1h-1zm28 2h1v1h-1zm-46 1h1v1h-1zm-3 1h1v1h-1zm45 6h1v1h-1zm-56 2h1v1h-1zm13 5h1v1h-1zm2 2h2v1h-2zm2 0h1v1h-1zm101 5h3v2h-3zm3 0h1v2h-1zm35 0h3v2h-3zm3 0h1v2h-1zm46 0h3v2h-3zm3 0h1v3h-1zm9 0h3v2h-3zm3 0h1v2h-1zm20 0h3v2h-3zm3 0h1v1h-1zm-125 2h3v1h-3zm3 0h1v1h-1zm35 0h3v1h-3zm3 0h1v1h-1zm46 0h3v1h-3zm12 0h3v1h-3zm3 0h1v1h-1zm20 0h2v1h-2zm2 0h1v1h-1zm-256 1h1v1h-1zm132 0h1v1h-1zm1 0h1v1h-1zm37 0h1v1h-1zm61 0h2v1h-2zm2 0h1v1h-1zm21 0h1v1h-1zm-240 8h2v3h-2zm2 0h1v3h-1zm-2 3h2v1h-2zm2 0h1v1h-1zm70 5h3v2h-3zm3 0h1v2h-1zm8 0h3v2h-3zm3 0h1v3h-1zm24 0h3v2h-3zm3 0h1v2h-1zm28 0h6v2h-6zm6 0h1v3h-1zm28 0h3v2h-3zm3 0h1v2h-1zm8 0h3v2h-3zm3 0h1v3h-1zm-117 2h3v1h-3zm3 0h1v1h-1zm8 0h3v1h-3zm27 0h3v1h-3zm3 0h1v1h-1zm28 0h6v1h-6zm34 0h3v1h-3zm3 0h1v1h-1zm8 0h3v1h-3zm-45 1h1v1h-1zm34 0h1v1h-1z" fill="#525659"/><path d="M45 53h1v1h-1zm26 1h1v1h-1zm5 3h1v1h-1zm1 0h1v1h-1zm-47 1h1v1h-1zm53 4h1v1h-1zm-1 3h1v1h-1zm-35 2h1v1h-1zm24 3h1v1h-1zm-29 1h1v1h-1zm2 1h1v1h-1zm26 0h1v1h-1zm-12 3h1v1h-1zm91 1h1v1h-1zm88 0h1v1h-1zm5 0h1v1h-1zm-131 1h1v1h-1zm16 0h1v1h-1zm94 1h1v1h-1zm37 0h1v1h-1zM56 79h1v1h-1zm93 0h1v1h-1zm35 0h1v1h-1zm73 0h1v1h-1zM23 80h1v1h-1zm88 0h1v6h-1zm1 0h1v2h-1zm84 0h1v1h-1zm44 0h1v2h-1zm32 0h1v1h-1zM42 81h1v1h-1zm9 0h1v1h-1zm78 0h1v1h-1zm129 0h1v1h-1zM53 82h1v1h-1zm59 0h1v1h-1zm116 0h1v1h-1zm12 0h1v4h-1zm-12 1h1v1h-1zm11 0h1v1h-1zm-53 1h1v1h-1zm1 0h1v1h-1zm3 0h1v1h-1zm-79 2h1v1h-1zm73 0h1v1h-1zm56 0h1v1h-1zM23 87h1v1h-1zm33 0h1v1h-1zm56 0h1v1h-1zm147 0h1v1h-1zm-104 1h1v1h-1zm-53 1h1v1h-1zm45 0h1v1h-1zm1 0h1v1h-1zm12 0h1v1h-1zm25 0h1v1h-1zm54 0h1v1h-1zm9 0h1v1h-1zm10 0h1v1h-1zm-141 1h1v1h-1zm67 0h2v1h-2zm2 0h1v1h-1zm28 0h1v1h-1zm7 0h1v1h-1zm5 0h1v1h-1zM41 91h1v1h-1zm27 0h1v1h-1zm-27 1h1v1h-1zm0 4h1v1h-1zm-14 5h1v1h-1zm55 1h1v1h-1zm-3 5h1v1h-1zm-7 5h1v1h-1zm-27 1h1v1h-1zm20 0h2v1h-2zm2 0h1v1h-1z" fill="#525654"/><path fill="#3a838c" d="M61 54h1v1h-1z"/><path d="M42 55h1v1h-1zm71 21h1v1h-1zm94 3h1v1h-1zm7 0h1v1h-1zm42 2h1v1h-1zm-138 1h3v1h-3zm3 0h1v1h-1zm-49 1h1v1h-1zm59 4h1v1h-1zm57 1h1v1h-1zm-32 1h1v1h-1zm-26 1h1v1h-1zm15 0h1v1h-1zm-90 1h1v1h-1zm16 2h1v1h-1zm-33 3h1v1h-1zm40 10h1v1h-1zm-42 3h1v1h-1zm36 1h1v1h-1zm-15 3h1v1h-1zm1 0h1v1h-1z" fill="#545c6c"/><path d="M43 55h1v1h-1zm27 1h1v1h-1zm7 4h1v1h-1zm-17 6h1v1h-1zm10 3h1v1h-1zm13 0h1v1h-1zm-14 1h1v1h-1zm4 0h1v1h-1zm-47 2h1v1h-1zm27 0h1v1h-1zm14 0h1v1h-1zm-15 1h1v1h-1zm14 0h1v1h-1zm125 3h1v1h-1zm8 0h1v1h-1zM97 77h1v1h-1zm-12 2h1v1h-1zm104 0h1v1h-1zm9 0h1v1h-1zm12 0h1v1h-1zm55 0h1v1h-1zM71 80h1v1h-1zm70 0h1v1h-1zm-3 1h1v1h-1zm61 1h1v1h-1zm35 0h1v2h-1zm-80 1h1v1h-1zm101 0h1v1h-1zm-21 1h1v1h-1zM46 85h1v1h-1zm97 0h1v1h-1zm-91 1h1v1h-1zm138 0h1v1h-1zm47 0h1v1h-1zM85 87h1v1h-1zm12 0h1v1h-1zm80 0h5v1h-5zm5 0h1v1h-1zm85 0h3v1h-3zm3 0h1v1h-1zM71 90h1v1h-1zm43 0h1v1h-1zm9 0h1v1h-1zm70 0h1v1h-1zm35 0h1v1h-1zm4 0h1v1h-1zm22 0h1v1h-1zm17 0h1v1h-1zM56 94h1v1h-1zm18 0h1v1h-1zm10 0h1v1h-1zm-49 14h1v1h-1z" fill="#3c7e96"/><path d="M45 55h1v1h-1zm20 0h1v1h-1zm4 1h1v1h-1zm-8 10h1v1h-1zm-23 3h1v1h-1zm20 0h1v1h-1zm-20 1h1v1h-1zm19 1h1v1h-1zm-19 2h1v2h-1zm-12 1h1v1h-1zm12 1h1v1h-1zm60 1h1v1h-1zm5 0h3v1h-3zm3 0h1v1h-1zm8 0h4v1h-4zm4 0h1v1h-1zm34 0h2v1h-2zm2 0h1v1h-1zm20 0h3v1h-3zm3 0h5v1h-5zm5 0h1v1h-1zm29 0h1v1h-1zm1 0h1v1h-1zm4 0h1v1h-1zm12 0h1v1h-1zm4 0h1v1h-1zm31 0h8v1h-8zm8 0h1v1h-1zm-9 1h1v2h-1zm10 0h1v1h-1zm-25 1h1v1h-1zM52 79h1v1h-1zm48 0h1v1h-1zm16 0h1v3h-1zm97 0h1v1h-1zm49 0h1v1h-1zM69 80h1v1h-1zm69 0h1v1h-1zm3 1h1v1h-1zm82 0h1v1h-1zm-107 1h1v1h-1zm9 0h1v1h-1zm11 0h1v1h-1zm101 0h1v1h-1zm9 0h1v1h-1zM38 84h1v6h-1zm32 0h1v1h-1zm36 0h1v1h-1zm27 0h1v1h-1zm26 0h1v1h-1zm-59 1h1v3h-1zm123 0h1v1h-1zM45 86h1v1h-1zm5 0h1v1h-1zm123 0h1v1h-1zm40 1h1v1h-1zm-113 1h1v1h-1zm113 0h1v1h-1zm33 0h1v1h-1zm16 0h1v1h-1zm-140 1h1v1h-1zm104 0h1v1h-1zM38 90h1v1h-1zm36 1h1v1h-1zm10 1h1v1h-1zm-39 3h1v1h-1zm1 1h2v1h-2zm2 0h1v1h-1zm1 1h1v2h-1zm-14 1h1v1h-1zm14 1h1v1h-1zm21 11h1v1h-1zm-27 1h1v1h-1zm5 1h1v1h-1z" fill="#0facd5"/><path d="M74 58h1v1h-1zM46 71h1v1h-1zm89 7h1v1h-1zM25 80h1v1h-1zm240 1h1v1h-1zm-129 2h1v1h-1zm118 1h1v1h-1zM25 85h1v1h-1zm201 0h1v1h-1zM25 86h1v1h-1zm141 3h1v1h-1zm63 1h2v1h-2zm2 0h1v1h-1z" fill="#3488ad"/><path d="M38 53h1v1h-1zm1 0h1v1h-1zm31 0h1v1h-1zm-40 4h1v1h-1zm1 0h1v1h-1zm3 0h1v1h-1zm47 3h1v1h-1zm-52 3h1v1h-1zm-3 4h1v1h-1zm22 1h1v1h-1zm37 0h1v1h-1zm-40 1h1v1h-1zm27 0h1v1h-1zm-31 1h1v1h-1zm2 2h1v1h-1zm15 0h1v1h-1zm-34 1h1v1h-1zm172 0h1v1h-1zM23 74h1v1h-1zm63 1h1v1h-1zm-44 1h1v3h-1zm1 0h1v2h-1zm14 0h1v1h-1zm38 0h1v1h-1zm14 0h1v1h-1zm39 0h1v2h-1zm37 0h1v1h-1zm56 0h1v3h-1zM56 77h1v1h-1zm1 0h1v1h-1zm115 0h1v2h-1zm89 0h1v1h-1zM43 78h1v1h-1zm69 0h1v1h-1zm21 0h1v1h-1zm15 0h1v1h-1zm126 0h1v1h-1zM42 79h1v1h-1zm118 0h1v1h-1zm12 0h1v1h-1zm49 0h1v1h-1zm20 0h1v1h-1zm25 0h1v1h-1zm-163 1h2v1h-2zm2 0h1v1h-1zm12 0h1v1h-1zm69 0h1v1h-1zm1 0h1v1h-1zm34 0h1v1h-1zM43 81h1v1h-1zm1 0h1v1h-1zm84 0h1v1h-1zm110 0h1v1h-1zM70 82h2v1h-2zm2 0h1v1h-1zm38 0h1v1h-1zm17 0h1v1h-1zm17 0h1v1h-1zm88 0h1v1h-1zM53 83h1v2h-1zm34 0h1v1h-1zm44 0h1v1h-1zm127 0h1v1h-1zM23 84h1v1h-1zm64 0h1v1h-1zm-34 1h1v1h-1zm134 0h1v1h-1zm41 0h1v1h-1zm11 0h1v1h-1zm35 0h1v1h-1zm-19 1h1v1h-1zM42 87h1v7h-1zm1 0h1v7h-1zm14 0h1v1h-1zm50 0h1v1h-1zm1 0h1v1h-1zm38 0h1v1h-1zm-27 1h1v1h-1zm52 0h1v1h-1zm50 0h1v1h-1zm1 0h1v1h-1zm16 0h1v1h-1zm19 0h1v1h-1zm-121 1h1v1h-1zm85 0h1v1h-1zM56 90h1v1h-1zm11 0h1v1h-1zm19 0h1v2h-1zm69 0h1v1h-1zm103 0h1v1h-1zm-113 1h1v1h-1zm56 0h1v1h-1zM57 92h1v1h-1zm29 0h1v1h-1zm-63 1h1v1h-1zm0 1h1v1h-1zm17 0h3v1h-3zm3 0h1v1h-1zm1 1h1v1h-1zm13 0h1v1h-1zm-11 2h1v1h-1zm13 1h1v1h-1zm26 0h1v1h-1zm-59 2h1v2h-1zm57 1h1v1h-1zm-57 1h1v1h-1zm53 3h1v1h-1zm3 0h1v1h-1zm-2 1h1v1h-1zm-50 1h1v1h-1zm2 2h1v1h-1zm46 0h1v1h-1zm-37 4h1v1h-1zm29 0h1v1h-1z" fill="#55545c"/><g fill="#01bcf1"><path d="M50 55h1v1h-1zm-5 1h2v1h-2zm2 0h2v1h-2zm2 0h1v1h-1zm4 1h3v3h-3zm3 0h1v3h-1zm12 0h1v1h-1zm1 0h1v1h-1zm2 1h1v1h-1zm-18 2h3v1h-3zm3 0h1v1h-1zm18 0h2v1h-2zm2 0h1v1h-1zm-42 1h1v1h-1zm-2 3h1v3h-1zm16 0h1v1h-1zm1 0h4v1h-4zm4 0h1v1h-1zm4 0h1v1h-1zm5 0h1v2h-1zm7 0h1v1h-1z"/><path d="M31 65h2v2h-2zm2 0h1v2h-1zm43 0h3v1h-3zm3 0h1v2h-1zm-17 1h2v1h-2zm2 0h1v1h-1zm8 0h1v1h-1z"/><path d="M77 66h3v1h-3zm3 0h1v2h-1zm-49 1h2v1h-2zm2 0h1v1h-1zm31 0h1v1h-1zm5 0h1v1h-1zm8 0h2v1h-2zm2 0h1v1h-1zm-17 1h1v26h-1zm-6 1h1v1h-1zm25 1h1v5h-1zm-52 1h1v2h-1zm1 0h1v1h-1zm0 1h7v2h-7zm7 0h1v3h-1z"/><path d="M80 72h2v3h-2zm2 0h1v3h-1zm-53 1h8v1h-8zm1 1h7v1h-7zm-2 1h1v8h-1zm3 0h6v1h-6zm6 0h1v1h-1zm35 0h1v1h-1zm8 0h3v1h-3zm3 0h1v2h-1zm-54 1h1v7h-1zm17 0h2v3h-2zm2 0h1v2h-1zm16 0h1v2h-1zm1 0h1v2h-1z"/><path d="M27 77h2v5h-2zm22 0h1v1h-1zm17 0h2v2h-2zm2 0h1v2h-1zm8 0h1v1h-1zm7 0h1v5h-1zm38 0h1v1h-1zm76 0h1v1h-1zM48 78h1v1h-1z"/><path d="M64 78h4v1h-4zm12 0h1v1h-1zm39 0h1v1h-1zm98 0h1v1h-1zM30 79h1v4h-1zm7 0h1v8h-1zm9 0h1v1h-1zm1 0h1v1h-1zm19 0h2v1h-2zm2 0h1v1h-1zm167 0h1v1h-1zM31 80h6v2h-6zm49 0h3v3h-3zm73 0h1v1h-1zm100 0h1v1h-1zm-98 1h1v1h-1zm70 0h1v1h-1z"/><path d="M27 82h10v1H27zm56 0h1v1h-1zm17 0h1v1h-1zm24 0h1v1h-1zm54 0h1v1h-1zm14 0h1v1h-1zm4 0h1v1h-1zm29 0h1v2h-1zm42 0h2v1h-2zm2 0h1v1h-1zM28 83h4v1h-4zm4 0h5v1h-5zm48 0h2v1h-2zm2 0h1v1h-1zm32 0h1v1h-1zm132 0h1v1h-1zM34 84h3v2h-3zm82 0h1v1h-1zm109 0h1v1h-1zm21 0h2v1h-2zm2 0h1v1h-1zM69 85h1v1h-1zm6 0h1v2h-1zm160 0h1v1h-1zM34 86h3v1h-3zm99 0h1v1h-1zm-96 1h1v1h-1zm11 0h1v7h-1zm20 0h1v1h-1zm7 0h1v1h-1zm8 0h1v2h-1zm31 0h1v1h-1zm18 0h1v1h-1zm26 0h1v1h-1zM46 88h2v6h-2zm25 0h1v1h-1zm3 0h1v1h-1zm25 0h1v1h-1zm75 0h1v1h-1zM26 89h1v1h-1zm23 0h1v4h-1zm34 0h1v2h-1zm76 0h1v1h-1zM27 91h2v1h-2zm2 0h1v3h-1zm5 0h3v2h-3zm3 0h1v3h-1zm27 0h1v1h-1zm13 0h6v3h-6zm6 0h1v1h-1zm-56 1h2v1h-2zm1 1h1v1h-1zm6 0h3v1h-3zm15 0h1v1h-1zm-21 1h1v1h-1zm1 0h1v2h-1zm6 0h2v1h-2zm2 0h1v1h-1zm9 0h2v1h-2zm2 0h1v1h-1zm14 0h2v1h-2zm2 0h1v4h-1zm3 0h1v1h-1zm10 0h5v1h-5zm5 0h1v1h-1zm-48 1h1v1h-1zm17 0h1v1h-1zm1 0h1v14h-1zm20 0h1v1h-1zm3 0h1v2h-1zm-46 1h1v1h-1zm1 0h1v1h-1zm21 0h1v1h-1zm4 0h1v1h-1zm0 1h1v1h-1zm18 0h2v1h-2zm2 0h1v1h-1zm-22 1h1v1h-1zm1 0h1v1h-1zm10 0h1v1h-1zm-14 1h2v10h-2zm-15 2h1v1h-1zm22 0h1v1h-1zm-11 1h1v1h-1zm19 1h3v6h-3zm3 0h1v6h-1zm-34 2h1v1h-1zm3 1h1v1h-1zm4 0h1v1h-1z"/><path d="M46 106h6v3h-6zm23 0h3v2h-3zm3 0h1v1h-1zm-34 2h1v1h-1zm31 0h2v1h-2zm2 0h1v1h-1zm-25 1h6v1h-6zm6 0h1v1h-1zm13 0h5v1h-5zm5 0h1v1h-1zm-24 1h1v1h-1zm18 0h1v1h-1zm1 0h1v1h-1zm-8 1h1v1h-1zm4 0h1v1h-1z"/></g><path d="M68 55h1v1h-1zm14 8h1v1h-1zm-53 1h1v1h-1zm-2 2h1v1h-1zm55 0h1v1h-1zm-36 3h1v1h-1zm-6 7h1v6h-1zm84 0h3v1h-3zm3 0h1v1h-1zm6 0h1v1h-1zm57 0h1v1h-1zm29 2h1v1h-1zm42 0h1v1h-1zm-76 1h1v1h-1zm8 0h1v1h-1zm-65 1h1v1h-1zm-75 1h1v1h-1zm15 0h1v1h-1zm75 0h1v1h-1zm105 0h2v1h-2zm2 0h1v1h-1zM40 82h1v1h-1zm11 0h1v1h-1zm17 0h1v1h-1zm-16 1h1v1h-1zm58 0h1v1h-1zm34 0h1v1h-1zm43 0h1v1h-1zm-55 1h1v1h-1zm30 0h1v1h-1zm59 1h1v1h-1zm1 0h1v1h-1zm-27 1h1v1h-1zm-93 1h1v1h-1zm146 0h1v1h-1zm-113 1h1v1h-1zm106 0h1v1h-1zm17 0h1v1h-1zm1 0h1v1h-1zm-142 1h2v1h-2zm2 0h1v1h-1zm103 0h1v1h-1zm16 0h1v1h-1zm18 0h1v1h-1zm-120 1h1v1h-1zm63 0h1v1h-1zm51 0h1v1h-1zM40 91h1v2h-1zm45 0h1v1h-1zm-45 2h1v1h-1zm-14 3h1v1h-1zm60 0h1v1h-1zm-41 1h1v1h-1zm-18 5h1v1h-1zm2 4h1v1h-1zm1 0h1v1h-1zm47 1h1v1h-1zm-44 2h1v1h-1zm26 4h1v1h-1z" fill="#52545f"/><path d="M37 57h1v1h-1zm8 14h1v1h-1zm68 6h1v1h-1zm159 4h1v1h-1zM85 90h1v1h-1z" fill="#46676b"/><path d="M30 62h1v1h-1zm9 7h1v1h-1zm96 7h1v1h-1zm63 5h1v1h-1zM76 82h1v1h-1zm114 3h1v1h-1zm-29 2h1v1h-1zm53 1h1v1h-1zm-30 1h1v1h-1zM69 92h1v1h-1zm-9 8h1v1h-1zm-29 5h1v1h-1z" fill="#5b4855"/><path d="M97 78h1v1h-1zm103 0h1v1h-1zm-68 7h1v1h-1zm121 0h1v1h-1zm1 2h1v1h-1zm12 0h1v1h-1zM97 88h1v1h-1zm139 0h1v1h-1zM97 89h1v1h-1zm54 1h1v1h-1zm112 0h1v1h-1z" fill="#417595"/><path fill="#406a8a" d="M76 80h1v1h-1z"/><g fill="#55565b"><path d="M259 0h3v3h-3zm3 0h1v3h-1zm9 0h2v3h-2zm2 0h1v3h-1zm-14 3h3v1h-3zm3 0h1v1h-1zm9 0h2v1h-2zm2 0h1v1h-1zM4 4h2v2H4zm2 0h1v2H6zm28 0h7v2h-7zm7 0h1v2h-1zm5 0h14v2H46zm14 0h1v2h-1zm5 0h2v2h-2zm2 0h1v2h-1zm9 0h10v2H76zm10 0h1v2h-1zm6 0h17v2H92zm17 0h1v2h-1zm9 0h102v2H118zm102 0h1v2h-1zm5 0h2v2h-2zm2 0h1v2h-1zm6 0h6v2h-6zm6 0h1v2h-1zm5 0h2v2h-2zm2 0h1v2h-1zm21 0h2v2h-2zm2 0h1v2h-1zm5 0h7v2h-7zm7 0h1v2h-1zM4 6h2v1H4zm2 0h1v1H6zm28 0h7v1h-7zm7 0h1v1h-1zm5 0h14v1H46zm14 0h1v1h-1zm5 0h2v1h-2zm2 0h1v1h-1zm9 0h10v1H76zm10 0h1v1h-1zm6 0h17v1H92zm17 0h1v1h-1zm9 0h102v1H118zm102 0h1v1h-1zm5 0h2v1h-2zm2 0h1v1h-1zm6 0h6v1h-6zm6 0h1v1h-1zm5 0h2v1h-2zm2 0h1v1h-1zm21 0h2v1h-2zm2 0h1v1h-1zm5 0h7v1h-7zm7 0h1v1h-1zM95 7h1v1h-1zM73 8h2v2h-2zm2 0h1v2h-1zm146 0h3v2h-3zm3 0h1v2h-1zm35 0h3v2h-3zm3 0h1v2h-1zm8 0h3v2h-3zm3 0h1v2h-1zm24 0h2v2h-2zm2 0h1v2h-1zM73 10h2v1h-2zm2 0h1v1h-1zm146 0h3v1h-3zm3 0h1v1h-1zm35 0h3v1h-3zm3 0h1v1h-1zm8 0h3v1h-3zm3 0h1v1h-1zm24 0h2v1h-2zm2 0h1v1h-1zM42 12h3v2h-3zm3 0h1v2h-1zm104 0h2v2h-2zm2 0h1v2h-1zm21 0h2v2h-2zm2 0h1v2h-1zm36 0h2v2h-2zm2 0h1v2h-1zm21 0h2v2h-2zm2 0h1v2h-1zM42 14h3v1h-3zm3 0h1v1h-1zm104 0h2v1h-2zm2 0h1v1h-1zm21 0h2v1h-2zm2 0h1v1h-1zm36 0h2v1h-2zm2 0h1v1h-1zm21 0h2v1h-2zm2 0h1v1h-1zm-120 1h2v3h-2zm2 0h1v3h-1zm9 0h2v3h-2zm2 0h1v3h-1zm48 0h2v3h-2zm2 0h1v3h-1zm36 0h2v3h-2zm2 0h1v3h-1zm32 0h2v3h-2zm2 0h1v3h-1z"/><path d="M114 16h3v2h-3zm61 0h3v2h-3zm-61 2h3v1h-3zm3 0h1v1h-1zm9 0h3v1h-3zm49 0h3v1h-3zm3 0h1v1h-1zm36 0h2v1h-2zm2 0h1v1h-1zm32 0h2v1h-2zm2 0h1v1h-1zM23 19h3v3h-3zm3 0h1v3h-1zm58 0h2v2h-2zm2 0h1v3h-1zm-2 2h2v1h-2zm-61 1h3v1h-3zm3 0h1v1h-1zm12 1h3v3h-3zm3 0h1v3h-1zm20 0h3v2h-3zm3 0h1v2h-1zm5 0h2v2h-2zm2 0h1v2h-1zm9 0h3v2h-3zm3 0h1v2h-1zm130 0h3v1h-3zm3 0h1v2h-1zm36 0h2v2h-2zm2 0h1v2h-1zm20 0h3v2h-3zm3 0h1v2h-1zm-63 1h2v1h-2zM61 25h3v1h-3zm3 0h1v1h-1zm5 0h2v1h-2zm2 0h1v1h-1zm9 0h3v1h-3zm3 0h1v1h-1zm131 0h2v1h-2zm2 0h1v1h-1zm36 0h2v1h-2zm2 0h1v1h-1zm20 0h3v1h-3zm3 0h1v1h-1zM38 26h3v1h-3zm3 0h1v1h-1zm-29 1h2v2h-2zm2 0h1v2h-1zm32 0h2v2h-2zm2 0h1v2h-1zm47 0h7v2h-7zm7 0h1v2h-1zm5 0h2v2h-2zm2 0h1v2h-1zm9 0h3v2h-3zm3 0h1v2h-1zm9 0h6v2h-6zm6 0h1v2h-1zm5 0h14v2h-14zm14 0h1v2h-1zm9 0h10v2h-10zm10 0h1v6h-1zm5 0h6v2h-6zm6 0h1v2h-1zm6 0h2v2h-2zm2 0h1v2h-1zm9 0h3v2h-3zm3 0h1v2h-1zm5 0h2v2h-2zm2 0h1v2h-1zm5 0h3v2h-3zm3 0h1v2h-1zm9 0h2v2h-2zm2 0h1v2h-1zm13 0h2v2h-2zm2 0h1v2h-1zm21 0h2v2h-2zm2 0h1v2h-1zm9 0h3v2h-3zm3 0h1v2h-1zM12 29h2v1h-2zm2 0h1v1h-1zm32 0h2v1h-2zm2 0h1v1h-1zm47 0h7v1h-7zm7 0h1v1h-1zm5 0h2v1h-2zm2 0h1v1h-1zm9 0h3v1h-3zm3 0h1v1h-1zm9 0h6v1h-6zm6 0h1v1h-1zm5 0h14v1h-14zm14 0h1v1h-1zm9 0h10v1h-10zm15 0h6v1h-6zm6 0h1v1h-1zm6 0h2v1h-2zm2 0h1v1h-1zm9 0h3v1h-3zm3 0h1v1h-1zm5 0h2v1h-2zm2 0h1v1h-1zm5 0h3v1h-3zm3 0h1v1h-1zm9 0h2v1h-2zm2 0h1v1h-1zm13 0h2v1h-2zm2 0h1v1h-1zm21 0h2v1h-2zm2 0h1v1h-1zm9 0h3v1h-3zm3 0h1v1h-1zM53 30h1v3h-1zm77 0h2v3h-2zm2 0h1v3h-1zm40 0h2v3h-2zM38 31h3v2h-3zm3 0h1v2h-1z"/><path d="M50 31h6v2h-6zm6 0h1v2h-1zm5 0h6v2h-6zm6 0h1v2h-1zm9 0h7v2h-7zm7 0h1v2h-1zm5 0h6v2h-6zm6 0h1v2h-1zm17 0h2v2h-2zm2 0h1v2h-1zm108 0h3v2h-3zm3 0h1v2h-1zm9 0h2v2h-2zm2 0h1v2h-1zm20 0h7v2h-7zm7 0h1v2h-1zm9 0h2v2h-2zm2 0h1v2h-1zm21 0h2v2h-2zm2 0h1v2h-1zM38 33h3v1h-3zm3 0h1v1h-1zm9 0h6v1h-6zm6 0h1v1h-1zm5 0h6v1h-6zm6 0h1v1h-1zm9 0h7v1h-7zm7 0h1v1h-1zm5 0h6v1h-6zm6 0h1v1h-1zm17 0h2v1h-2zm2 0h1v1h-1zm17 0h2v1h-2zm2 0h1v1h-1zm40 0h2v1h-2zm2 0h1v1h-1zm47 0h3v1h-3zm3 0h1v1h-1zm9 0h2v1h-2zm2 0h1v1h-1zm20 0h7v1h-7zm7 0h1v1h-1zm9 0h2v1h-2zm2 0h1v1h-1zm21 0h2v1h-2zm2 0h1v1h-1zM84 34h3v3h-3zm3 0h1v3h-1zm31 0h3v3h-3zm3 0h1v3h-1zm20 0h2v3h-2zm2 0h1v3h-1zm36 0h3v7h-3zm3 0h1v6h-1zm-38 1h1v2h-1zm-60 2h3v1h-3zm3 0h1v1h-1zm31 0h3v1h-3zm3 0h1v1h-1zm20 0h3v1h-3zm3 0h1v1h-1zm-45 1h3v3h-3zm3 0h1v3h-1zm58 0h3v3h-3zm3 0h1v2h-1zm9 0h2v3h-2zm2 0h1v3h-1zm36 0h2v3h-2zm2 0h1v3h-1zm-49 2h1v1h-1zm19 0h1v1h-1zm-83 1h3v1h-3zm3 0h1v1h-1zm58 0h2v1h-2zm2 0h1v1h-1zm10 0h2v1h-2zm2 0h1v1h-1zm5 0h2v1h-2zm2 0h1v1h-1zm29 0h2v1h-2zm2 0h1v1h-1zM50 42h6v2h-6zm6 0h1v2h-1zm5 0h3v2h-3zm3 0h1v2h-1zm8 0h3v2h-3zm3 0h1v2h-1zm13 0h2v2h-2zm2 0h1v2h-1zm13 0h3v2h-3zm3 0h1v2h-1zm8 0h3v2h-3zm3 0h1v2h-1zm9 0h2v2h-2zm2 0h1v2h-1zm5 0h11v2h-11zm11 0h1v2h-1zm5 0h6v2h-6zm6 0h1v2h-1zm9 0h2v6h-2zm2 0h1v6h-1zm9 0h3v2h-3zm3 0h1v2h-1zm9 0h2v2h-2zm2 0h1v2h-1zm25 0h2v2h-2zm2 0h1v2h-1zm9 0h2v2h-2zm2 0h1v2h-1zm9 0h3v2h-3zm3 0h1v2h-1zm20 0h7v2h-7zm7 0h1v2h-1zm8 0h7v2h-7zm7 0h1v2h-1zm16 0h2v2h-2zm2 0h1v2h-1zM50 44h6v1h-6zm6 0h1v1h-1zm5 0h3v1h-3zm3 0h1v1h-1zm8 0h3v1h-3zm3 0h1v1h-1zm13 0h2v1h-2zm2 0h1v1h-1zm13 0h3v1h-3zm3 0h1v1h-1zm8 0h3v1h-3zm3 0h1v1h-1zm9 0h2v1h-2zm2 0h1v1h-1zm5 0h11v1h-11zm11 0h1v1h-1zm5 0h6v1h-6zm6 0h1v1h-1zm20 0h3v1h-3zm3 0h1v1h-1zm9 0h2v1h-2zm2 0h1v1h-1zm25 0h2v1h-2zm2 0h1v1h-1zm9 0h2v1h-2zm2 0h1v1h-1zm9 0h3v1h-3zm3 0h1v1h-1zm20 0h7v1h-7zm7 0h1v1h-1zm8 0h7v1h-7zm7 0h1v1h-1zm16 0h2v1h-2zm2 0h1v1h-1zm-5 2h2v2h-2zm2 0h1v2h-1zm-132 2h2v1h-2zm2 0h1v1h-1zm128 0h2v1h-2zm2 0h1v1h-1zM4 53h2v3H4zm2 0h1v3H6zm38 0h1v1h-1zM4 56h2v1H4zm2 0h1v1H6zm26 2h1v1h-1zm-5 3h1v1h-1zm55 0h1v1h-1zm1 0h1v1h-1zm39 0h3v2h-3zm3 0h1v2h-1zm9 0h2v2h-2zm2 0h1v2h-1zm36 0h2v2h-2zm2 0h1v2h-1zm-52 2h3v1h-3zm3 0h1v1h-1zm9 0h2v1h-2zm2 0h1v1h-1zm36 0h2v1h-2zm2 0h1v1h-1zM27 65h1v1h-1zm59 3h1v1h-1zm-63 1h2v2h-2zm2 0h1v2h-1zm19 0h1v1h-1zm43 0h1v1h-1zm-64 2h2v1h-2zm2 0h1v1h-1zm26 1h1v1h-1zm36 0h1v1h-1zm9 0h2v2h-2zm2 0h1v1h-1zm9 0h2v2h-2zm2 0h1v3h-1zm13 0h2v2h-2zm2 0h1v2h-1zm10 0h6v1h-6zm6 0h1v2h-1zm9 0h2v2h-2zm2 0h1v1h-1zm9 0h2v2h-2zm2 0h1v2h-1zm10 0h6v1h-6zm6 0h1v1h-1zm5 0h2v2h-2zm2 0h1v3h-1zm6 0h2v2h-2zm2 0h1v2h-1zm4 0h4v1h-4zm4 0h1v3h-1zm16 0h3v1h-3zm3 0h1v3h-1zm5 0h2v2h-2zm2 0h1v2h-1zm6 0h2v2h-2zm2 0h1v2h-1zm13 0h6v1h-6zm6 0h1v2h-1zm5 0h3v3h-3zm3 0h1v2h-1zm9 0h2v1h-2zm2 0h1v3h-1zM43 73h1v2h-1zm44 0h1v1h-1z"/><path d="M95 73h3v1h-3zm3 0h1v1h-1zm27 0h1v1h-1zm9 0h6v1h-6zm17 0h1v1h-1zm12 0h1v1h-1zm9 0h2v1h-2zm2 0h1v1h-1zm20 0h1v1h-1zm1 0h1v1h-1zm3 0h3v1h-3zm19 0h3v1h-3zm12 0h6v1h-6zm23 0h2v1h-2zm19 0h2v1h-2zM66 74h1v1h-1zm29 0h2v1h-2zm2 0h1v1h-1zm10 0h2v1h-2zm15 0h3v1h-3zm3 0h1v1h-1zm9 0h2v1h-2zm2 0h1v1h-1zm3 0h1v1h-1zm1 0h1v1h-1zm9 0h1v1h-1zm1 0h1v1h-1zm5 0h1v1h-1zm5 0h4v1h-4zm4 0h3v1h-3zm3 0h1v1h-1zm5 0h1v1h-1zm11 0h2v1h-2zm8 0h5v1h-5zm5 0h5v1h-5zm22 0h2v1h-2zm7 0h10v1h-10zm10 0h1v1h-1zm16 0h3v1h-3zm3 0h1v1h-1zm8 0h1v1h-1zM43 75h1v1h-1zm52 0h1v1h-1zm1 0h1v1h-1zm13 0h1v1h-1zm25 0h2v1h-2zm2 0h1v1h-1zm13 0h1v1h-1zm22 0h1v1h-1zm13 0h2v1h-2zm2 0h1v1h-1zm15 0h1v1h-1zm4 0h1v1h-1zm15 0h1v1h-1zm39 0h2v1h-2zm2 0h1v1h-1zm12 0h1v1h-1zm-145 1h1v1h-1zm29 0h2v2h-2zm2 0h1v3h-1zm43 0h1v2h-1zm1 0h1v3h-1zm22 0h1v1h-1zM87 77h1v1h-1zm46 0h1v1h-1zm127 0h1v1h-1zM56 78h1v1h-1zm1 0h1v8h-1zm53 0h1v1h-1zm47 0h2v1h-2zm45 0h1v1h-1zm58 0h1v1h-1zM95 79h1v7h-1zm15 0h1v1h-1zm47 0h2v1h-2zm2 0h1v1h-1zm44 0h1v1h-1zm1 0h1v1h-1zm-85 1h1v1h-1zm11 0h2v2h-2zm2 0h1v1h-1zm76 0h1v1h-1zm7 0h1v1h-1zm-97 1h1v1h-1zm14 0h1v1h-1zm96 0h1v1h-1zM23 82h1v1h-1zm107 0h1v1h-1zm1 0h1v1h-1zm90 0h1v2h-1zm37 0h1v1h-1zM41 83h1v1h-1zm161 0h1v1h-1zm-76 1h2v2h-2zm2 0h1v2h-1zm15 0h1v1h-1zm1 0h1v1h-1zm77 0h1v1h-1zm8 1h2v1h-2zm2 0h1v1h-1zm24 0h1v1h-1zM57 86h1v1h-1zm38 0h1v1h-1zm31 0h2v1h-2zm2 0h1v1h-1zm146 0h1v1h-1zm-168 1h1v1h-1zm41 0h1v1h-1zm110 0h1v1h-1zM55 88h1v1h-1zm91 0h1v1h-1zm1 0h1v1h-1zm55 0h1v1h-1zM57 89h1v2h-1zm83 1h1v1h-1zm47 0h1v1h-1zM57 91h1v1h-1zm40 0h1v1h-1zm16 0h1v1h-1zm16 0h1v1h-1zm19 0h1v1h-1zm6 0h1v7h-1zm1 0h1v7h-1zm8 0h1v1h-1zm3 0h1v1h-1zm6 0h1v1h-1zm12 0h1v1h-1zm71 0h1v1h-1zm18 0h1v1h-1z"/><path d="M153 92h2v6h-2zm26 0h3v2h-3zm3 0h1v2h-1zm9 0h6v2h-6zm6 0h1v2h-1zM87 94h1v1h-1zm92 0h3v1h-3zm3 0h1v1h-1zm9 0h6v1h-6zm6 0h1v1h-1zM19 95h5v3h-5zm5 0h1v3h-1zm110 0h2v3h-2zm2 0h1v3h-1zm24 0h3v3h-3zm3 0h1v2h-1zm47 0h2v3h-2zm2 0h1v3h-1zm55 0h2v3h-2zm2 0h1v3h-1zm9 0h3v2h-3zm3 0h1v2h-1zM25 96h1v2h-1zm61 1h1v1h-1zm1 0h1v1h-1zm76 0h1v1h-1zm115 0h3v1h-3zm3 0h1v1h-1zM19 98h6v1h-6zm6 0h1v1h-1zm109 0h2v1h-2zm2 0h1v1h-1zm17 0h2v1h-2zm2 0h1v1h-1zm5 0h2v1h-2zm2 0h1v1h-1zm48 0h2v1h-2zm2 0h1v1h-1zm55 0h2v1h-2zm2 0h1v1h-1zm10 0h1v1h-1zm1 0h1v1h-1zm-254 5h1v1h-1zm2 1h1v1h-1zm151 3h3v2h-3zm3 0h1v2h-1zm-148 2h1v1h-1zm145 0h3v1h-3zm3 0h1v1h-1zm-143 4h1v1h-1zm30 0h1v1h-1zm-35 54h3v1h-3zm3 0h1v1h-1zm36 0h2v1h-2zm2 0h1v1h-1zm43 0h3v1h-3zm3 0h1v1h-1zm13 0h2v1h-2zm2 0h1v1h-1zm5 0h3v1h-3zm3 0h1v1h-1zm16 0h3v1h-3zm3 0h1v1h-1zm16 0h3v1h-3zm3 0h1v1h-1zm73 0h3v1h-3zm3 0h1v1h-1z"/></g><path d="M51 54h1v1h-1zm7 0h1v1h-1zm-14 1h1v1h-1zm17 12h1v1h-1zm5 8h1v1h-1zm70 1h1v1h-1zm97 0h1v1h-1zm39 0h1v1h-1zm-82 1h1v1h-1zm28 1h1v1h-1zm-61 5h1v1h-1zm-20 2h1v1h-1zm97 0h1v1h-1zm14 0h1v1h-1zm1 0h1v1h-1zm-86 1h1v1h-1zm-96 2h1v1h-1zm58 1h1v1h-1zm-99 4h1v1h-1zm53 11h1v1h-1zm-32 8h1v1h-1z" fill="#2c97b9"/><g fill="#00bcef"><path d="M53 55h1v1h-1zm6 0h1v1h-1zm-8 1h1v1h-1zm6 0h1v1h-1zm4 0h3v1h-3zm3 0h1v1h-1zm-25 1h2v1h-2zm2 0h1v2h-1zm-4 2h1v1h-1zm4 0h1v1h-1zm35 2h1v1h-1zm-43 3h1v1h-1zm6 0h1v1h-1zm15 0h1v1h-1zm19 0h1v1h-1zm4 0h1v1h-1zm-39 1h1v1h-1zm20 0h1v1h-1zm-12 1h1v1h-1zm28 0h2v1h-2zm2 0h1v1h-1zm-35 1h1v1h-1zm15 1h1v1h-1zm7 1h1v2h-1zm6 0h1v1h-1zm13 0h1v1h-1zm-27 1h1v1h-1zm19 0h1v2h-1zm-11 1h1v9h-1zm11 1h1v1h-1zm9 0h1v1h-1zm-56 3h1v1h-1zm23 0h1v1h-1zm21 0h1v1h-1zm-18 1h1v1h-1zm19 0h1v1h-1zm1 0h1v1h-1zm-47 1h1v1h-1zm47 0h1v1h-1zm45 0h2v1h-2zm2 0h1v1h-1zm18 0h1v1h-1zm40 0h1v1h-1zm70 0h2v1h-2zm2 0h1v1h-1zm14 0h1v1h-1zm1 0h1v1h-1zM51 78h1v1h-1zm23 0h1v1h-1zm42 0h1v1h-1zm76 0h1v1h-1zm40 0h2v1h-2zm2 0h1v1h-1zm18 0h1v1h-1zM77 79h2v1h-2zm2 0h1v1h-1zm45 0h1v1h-1zm139 0h1v2h-1zM63 80h1v7h-1zm73 0h1v1h-1zm18 0h1v1h-1zm70 0h1v1h-1zm20 0h1v1h-1zm-20 1h1v1h-1zm39 0h1v1h-1zm1 0h1v1h-1zM64 82h1v1h-1zm39 0h2v1h-2zm2 0h1v1h-1zm10 0h1v1h-1zm24 0h2v1h-2zm2 0h1v1h-1zm35 0h1v1h-1zm3 0h1v1h-1zm1 0h1v1h-1zm-78 1h1v1h-1zm110 0h1v3h-1zm33 0h1v1h-1zm20 0h1v1h-1zm-144 1h1v1h-1zm103 0h1v1h-1zM74 85h1v1h-1zm60 0h1v1h-1zm-64 1h1v1h-1zm71 0h1v1h-1zm16 0h1v2h-1zm55 0h1v1h-1zm22 0h1v1h-1zm1 0h1v1h-1zm28 0h1v1h-1zM47 87h1v1h-1zm5 0h1v1h-1zm11 0h1v1h-1zm7 0h1v1h-1zm72 0h1v1h-1zm1 0h1v1h-1zm31 0h1v1h-1zm-32 1h1v1h-1zm15 0h1v1h-1zm37 0h1v1h-1zM73 90h2v1h-2zm2 0h1v1h-1zm-22 1h1v1h-1zm10 0h1v6h-1zm-9 2h1v1h-1zm13 0h1v1h-1zm-13 1h1v1h-1zm-26 1h1v1h-1zm19 0h1v1h-1zm15 0h1v2h-1zm0 2h1v1h-1zm1 0h1v2h-1zm-7 1h1v1h-1zm7 1h1v1h-1zm1 0h1v1h-1zm16 0h1v2h-1zm-23 1h1v1h-1zm5 0h1v1h-1zm-26 1h1v1h-1zm22 0h1v1h-1zm22 0h1v1h-1zm-47 1h1v1h-1zm1 0h1v1h-1zm26 0h1v1h-1zm-22 4h2v1h-2zm2 0h1v3h-1z"/><path d="M39 107h2v1h-2zm2 0h1v1h-1zm-2 1h2v1h-2zm2 0h1v1h-1zm-1 1h1v1h-1zm5 1h1v1h-1zm5 0h1v1h-1zm7 0h1v1h-1zm6 0h1v1h-1zm-15 1h1v1h-1z"/></g><path d="M31 62h1v1h-1zm48 0h1v1h-1zm-52 7h1v1h-1zm96 7h1v1h-1zm-69 1h1v1h-1zm-29 2h1v1h-1zm198 0h1v1h-1zM68 84h1v1h-1zm56 3h1v1h-1zm147 0h1v1h-1zM25 88h1v1h-1zm131 0h1v1h-1zm99 1h1v1h-1zM70 93h1v1h-1zm-33 6h1v1h-1z" fill="#2f8395"/><path d="M42 67h1v1h-1zm3 6h1v1h-1zm0 1h1v1h-1zm39 1h1v1h-1zm17 7h1v1h-1zm125 4h1v1h-1zM72 90h1v1h-1zm-37 7h1v1h-1z" fill="#14aae2"/><path fill="#1fa1b3" d="M107 82h1v1h-1z"/><path fill="#66444f" d="M119 86h1v1h-1z"/><path d="M48 54h1v1h-1zm14 0h1v1h-1zm-5 18h1v1h-1zm27 0h1v1h-1zm-59 6h1v1h-1zm109 2h1v1h-1zm61 1h1v1h-1zm48 3h1v1h-1zm0 1h1v1h-1zm0 3h1v1h-1zm-101 2h1v1h-1zm10 0h1v1h-1zm7 0h1v1h-1zm14 0h1v1h-1zm38 0h1v1h-1zm1 0h1v1h-1zm34 0h1v1h-1zM73 91h1v1h-1zm2 2h1v1h-1zm0 15h1v1h-1z" fill="#407786"/><path fill="#219cd2" d="M107 83h1v1h-1z"/><path d="M34 59h1v1h-1zm42 0h1v1h-1zM58 70h1v1h-1zm10 1h1v1h-1zm158 5h1v1h-1zm-76 1h1v1h-1zm26 2h1v1h-1zm34 1h1v6h-1zm-32 1h1v1h-1zm11 0h1v1h-1zm82 0h1v1h-1zm-114 1h1v1h-1zm108 3h1v1h-1zm-55 1h1v1h-1zm55 0h1v1h-1zM53 87h1v1h-1zm219 0h1v1h-1zM85 88h1v1h-1zm75 0h1v1h-1zm-10 1h1v1h-1zm93 0h1v1h-1zM99 90h1v1h-1zm16 0h1v1h-1zm77 0h1v1h-1zm72 0h1v1h-1zm6 0h1v1h-1zM28 100h1v1h-1zm17 12h1v1h-1z" fill="#427088"/><path d="M46 53h1v1h-1zm19 0h1v1h-1zm3 1h1v1h-1zm1 0h1v1h-1zm3 0h1v1h-1zm-37 3h1v1h-1zm-4 1h1v1h-1zm-1 2h1v1h-1zm0 1h1v1h-1zm-4 4h1v1h-1zm14 5h1v1h-1zm8 0h1v1h-1zm38 0h1v2h-1zm0 2h1v1h-1zm-27 2h1v1h-1zm-35 1h1v1h-1zm33 0h1v1h-1zm54 1h1v1h-1zm75 0h2v1h-2zm2 0h1v1h-1zm48 0h1v1h-1zm20 0h1v1h-1zm4 0h1v1h-1zM96 77h1v1h-1zm89 0h1v1h-1zm36 0h1v1h-1zm-87 2h1v1h-1zm52 0h1v1h-1zm-84 1h1v1h-1zm95 0h1v1h-1zm-39 1h1v1h-1zM49 83h1v1h-1zm1 0h1v1h-1zm-8 1h1v1h-1zm185 0h1v1h-1zm-98 1h1v1h-1zm57 0h1v1h-1zm87 0h1v1h-1zm-149 1h1v1h-1zm-14 1h1v1h-1zm8 0h1v1h-1zm67 0h1v1h-1zm29 0h1v1h-1zm24 0h1v1h-1zm20 0h1v1h-1zm-148 1h1v1h-1zm146 0h1v1h-1zM55 89h1v1h-1zm202 0h1v1h-1zM70 90h1v1h-1zm43 0h1v1h-1zm22 0h1v1h-1zm-66 1h1v1h-1zm18 4h1v1h-1zm-43 1h1v1h-1zm15 0h1v1h-1zm-20 1h1v1h-1zm20 0h1v1h-1zm-32 7h1v1h-1zm0 1h1v1h-1zm1 0h2v1h-2zm2 0h1v1h-1zm51 0h1v1h-1zm-50 3h1v1h-1zm45 1h1v1h-1z" fill="#505a58"/><path d="M64 53h1v1h-1zm-22 1h1v1h-1zm28 0h1v1h-1zm-33 2h1v1h-1zm36 0h1v1h-1zm2 1h1v1h-1zm3 0h1v1h-1zm-45 1h1v1h-1zm-1 1h1v1h-1zm51 7h1v1h-1zm-41 3h1v1h-1zm1 0h1v1h-1zm6 1h1v1h-1zm10 1h1v1h-1zm-17 1h1v3h-1zm186 1h1v1h-1zM98 74h8v1h-8zm8 0h1v1h-1zm8 0h7v1h-7zm7 0h1v1h-1zm16 0h1v1h-1zm1 0h1v1h-1zm13 0h3v1h-3zm3 0h1v1h-1zm19 0h1v1h-1zm1 0h1v1h-1zm5 0h3v1h-3zm3 0h1v1h-1zm24 0h11v1h-11zm11 0h1v1h-1zm27 0h3v1h-3zm3 0h1v1h-1zm16 0h9v1h-9zm9 0h1v1h-1zM42 75h1v1h-1zm55 0h1v1h-1zm1 0h1v1h-1zm10 0h1v1h-1zm16 0h1v1h-1zm13 0h3v1h-3zm3 0h1v1h-1zm10 0h1v1h-1zm1 0h1v1h-1zm10 0h1v1h-1zm1 0h1v1h-1zm5 0h1v1h-1zm5 0h1v1h-1zm18 0h1v1h-1zm3 0h1v1h-1zm7 0h1v1h-1zm18 0h1v1h-1zm1 0h1v1h-1zm6 0h1v1h-1zm10 0h1v1h-1zm19 0h1v1h-1zm8 0h1v1h-1zm-150 1h1v1h-1zm60 0h1v1h-1zm32 0h1v2h-1zm16 0h2v1h-2zm2 0h2v1h-2zm2 0h1v1h-1zm11 0h1v1h-1zm23 0h1v1h-1zM95 77h1v1h-1zm14 0h1v1h-1zm-54 1h1v1h-1zm56 0h1v1h-1zm93 0h1v1h-1zm1 1h1v1h-1zm34 0h1v1h-1zm-129 1h1v1h-1zm11 0h1v1h-1zm36 0h2v1h-2zm2 0h1v1h-1zm36 0h1v1h-1zm44 0h1v1h-1zm20 0h1v6h-1zM23 81h1v1h-1zm52 0h1v1h-1zm35 0h1v1h-1zm74 0h2v1h-2zm2 0h1v2h-1zm-77 1h1v1h-1zm23 0h1v1h-1zm-90 1h1v1h-1zm4 0h1v1h-1zm84 0h1v1h-1zm56 0h1v1h-1zm46 0h1v1h-1zm-29 1h1v2h-1zM23 85h1v1h-1zm20 1h1v1h-1zm153 0h1v1h-1zm7 0h1v1h-1zm51 0h1v1h-1zm5 0h1v1h-1zM54 87h1v1h-1zm41 0h1v1h-1zm8 0h2v1h-2zm2 0h1v1h-1zm111 0h1v1h-1zm58 1h1v1h-1zM87 89h1v1h-1zm68 0h1v1h-1zm85 0h1v1h-1zM87 90h1v1h-1zm39 0h1v1h-1zm96 0h1v1h-1zm13 0h1v1h-1zm3 0h1v1h-1zm-124 1h1v1h-1zm8 0h1v1h-1zm19 0h1v1h-1zm9 0h1v1h-1zm3 0h1v1h-1zm38 0h1v1h-1zm19 0h1v1h-1zm42 0h1v1h-1zM24 92h1v1h-1zm47 0h1v1h-1zm-14 1h1v1h-1zm-32 2h1v1h-1zm59 3h1v1h-1zm-1 5h1v1h-1zm-9 7h1v1h-1z" fill="#565659"/><path fill="#613d36" d="M60 67h1v1h-1z"/><g fill="#52555a"><path d="M0 0h14v3H0zm14 0h1v14h-1zm5 0h3v22h-3zm3 0h1v22h-1zm5 0h2v10h-2zm2 0h1v10h-1zM0 3h14v1H0zm30 0h1v4h-1zM0 4h3v25H0zm3 0h1v25H3z"/><path d="M7 4h26v3H7zm26 0h1v3h-1zm9 0h3v7h-3zm3 0h1v7h-1zm16 0h3v6h-3zm3 0h1v6h-1zm4 0h7v3h-7zm7 0h1v3h-1zm12 0h4v6h-4zm4 0h1v10h-1z"/><path d="M4 7h90v1H4zm90 0h1v7h-1zm47 0h3v3h-3zm3 0h1v3h-1zM4 8h25v2H4zm30 0h38v2H34zm38 0h1v3h-1z"/><path d="M76 8h22v2H76zm22 0h1v2h-1zm5 0h3v2h-3zm3 0h1v2h-1zm4 0h26v2h-26zm26 0h1v2h-1zm9 0h22v2h-22zm22 0h1v2h-1zm8 0h7v2h-7zm7 0h1v2h-1zm5 0h10v2h-10zm10 0h1v2h-1zm5 0h18v2h-18zm18 0h1v2h-1zm12 0h3v2h-3zm3 0h1v2h-1zm5 0h3v2h-3zm3 0h1v2h-1zm8 0h7v2h-7zm7 0h1v2h-1zm9 0h2v2h-2zm2 0h1v2h-1zm5 0h3v2h-3zm3 0h1v2h-1zm9 0h3v2h-3zm3 0h1v2h-1zm4 0h3v2h-3zm3 0h1v2h-1zM4 10h25v1H4zm25 0h1v1h-1zm5 0h38v1H34zm42 0h22v1H76zm22 0h1v1h-1zm5 0h3v1h-3zm3 0h1v1h-1zm4 0h26v1h-26zm26 0h1v1h-1zm5 0h26v1h-26zm26 0h1v1h-1zm8 0h7v1h-7zm7 0h1v1h-1zm5 0h10v1h-10zm10 0h1v1h-1zm5 0h18v1h-18zm18 0h1v1h-1zm12 0h3v1h-3zm3 0h1v1h-1zm5 0h3v1h-3zm3 0h1v1h-1zm8 0h7v1h-7zm7 0h1v1h-1zm9 0h2v1h-2zm2 0h1v1h-1zm5 0h3v1h-3zm3 0h1v1h-1zm9 0h3v1h-3zm3 0h1v1h-1zm4 0h3v1h-3zm3 0h1v1h-1zM4 11h18v3H4zm26 0h3v2h-3zm3 0h1v7h-1zm5 0h11v1H38zm11 0h1v3h-1zm4 0h7v3h-7zm7 0h1v3h-1zm5 0h7v3h-7zm7 0h1v1h-1zm4 0h7v3h-7zm7 0h1v3h-1zm9 0h3v3h-3zm3 0h1v1h-1zm53 0h4v1h-4zm4 0h1v1h-1zm57 0h4v1h-4zm4 0h1v1h-1zM38 12h3v2h-3zm3 0h1v2h-1zm5 0h3v2h-3zm-16 1h3v5h-3zM4 14h18v1H4zm34 0h3v1h-3zm3 0h1v1h-1zm5 0h3v1h-3zm3 0h1v1h-1zm4 0h7v1h-7zm7 0h1v1h-1zm5 0h6v1h-6zm6 0h1v1h-1zm5 0h7v1h-7zm7 0h1v1h-1zm8 0h3v1h-3zm3 0h1v1h-1zM4 15h7v3H4zm7 0h1v1h-1z"/><path d="M15 15h22v3H15zm22 0h1v3h-1zm47 0h3v3h-3zm3 0h1v3h-1zm43 0h2v3h-2zm2 0h1v3h-1zm131 0h3v3h-3zm3 0h1v3h-1zM4 18h6v1H4zm6 0h1v4h-1zm5 0h22v1H15zm22 0h1v1h-1zm47 0h3v1h-3zm3 0h1v1h-1zm43 0h2v1h-2zm2 0h1v1h-1zm131 0h3v1h-3zm3 0h1v1h-1z"/><path d="M8 19h14v3H8zm0 3h14v1H8zm14 0h1v1h-1zM4 23h3v6H4zm3 0h1v7H7zm4 0h7v3h-7zm7 0h1v113h-1zm9 0h3v6h-3zm3 0h1v1h-1zm16 0h3v3h-3zm3 0h1v2h-1zm23 0h3v2h-3zm3 0h1v3h-1zm9 0h3v3h-3zm3 0h1v2h-1zm-38 2h1v1h-1zm23 0h3v1h-3zm15 0h1v1h-1zm-76 1h7v1h-7z"/><path d="M26 26h4v3h-4zm4 0h1v3h-1zm16 0h2v1h-2zm2 0h1v1h-1zm25 0h2v1h-2zm2 0h1v1h-1zm9 0h2v1h-2zm2 0h1v1h-1zM8 27h3v86H8zm3 0h1v90h-1z"/><path d="M15 27h18v2H15zm18 0h1v2h-1zm20 0h3v2h-3zm3 0h1v3h-1zm9 0h3v2h-3zm3 0h1v2h-1zM0 29h11v1H0zm15 0h18v1H15zm18 0h1v1h-1zm20 0h3v1h-3zm12 0h3v1h-3zm3 0h1v1h-1zM7 30h19v1H7zm19 0h1v32h-1zm28 0h2v1h-2zm2 0h1v1h-1zm-44 1h14v37H12z"/><path d="M0 34h26v7H0zm31 0h2v22h-2zm2 0h1v22h-1zm5 0h3v7h-3zm3 0h1v7h-1zm24 0h3v3h-3zm3 0h1v3h-1zm4 0h3v7h-3zm3 0h1v7h-1zm123 0h3v3h-3zm3 0h1v3h-1z"/><path d="M30 35h3v21h-3zm35 2h3v1h-3zm3 0h1v1h-1zm130 0h3v1h-3zm3 0h1v1h-1z"/><path d="M27 38h6v18h-6zm19 0h18v3H46zm18 0h1v3h-1zm12 0h3v3h-3zm3 0h1v3h-1zm5 0h3v3h-3zm3 0h1v3h-1zm157 0h3v3h-3zm3 0h1v3h-1zm35 0h3v129h-3zm3 0h1v129h-1zm8 0h3v3h-3zm3 0h1v3h-1z"/><path d="M0 41h33v1H0zm38 0h3v1h-3zm3 0h1v1h-1zm5 0h18v1H46zm18 0h1v1h-1zm8 0h7v1h-7zm7 0h1v1h-1zm5 0h3v1h-3zm3 0h1v1h-1zm157 0h3v1h-3zm3 0h1v1h-1zm46 0h3v1h-3zm3 0h1v1h-1zM0 42h3v125H0zm3 0h1v125H3zm39 0h3v10h-3zm3 0h1v10h-1zm35 0h3v17h-3zm3 0h1v18h-1zM7 45h27v11H7zm27 0h1v11h-1zm27 0h3v7h-3zm3 0h1v7h-1zm8 0h4v8h-4zm4 0h1v11h-1z"/><path d="M4 46h159v5H4zm159 0h1v26h-1zm4 0h7v14h-7zm7 0h1v14h-1zm5 0h33v25h-33zm33 0h1v26h-1zm5 0h18v25h-18zm18 0h1v25h-1zm5 0h53v25h-53zm53 0h1v121h-1zm4 0h2v121h-2zm2 0h1v121h-1z"/><path d="M164 49h135v11H164z"/><path d="M4 51h295v1H4zm0 1h55v1H4zm55 0h240v1H59zm-24 1h2v3h-2zm2 0h1v2h-1zm34 0h228v1H71zm2 1h226v1H73zm-36 1h1v1h-1zm36 0h226v1H73zM7 56h29v1H7zm29 0h1v1h-1zm38 0h225v1H74zM4 57h25v3H4zm25 0h1v2h-1zm55 0h215v3H84zm-55 2h1v1h-1z"/><path d="M80 59h219v1H80zM4 60h24v1H4zm24 0h1v2h-1zm52 0h1v1h-1zm3 0h216v1H83zM4 61h22v7H4zm80 0h37v6H84zm37 0h1v10h-1zm5 0h7v14h-7zm7 0h1v14h-1zm4 0h34v10h-34zm34 0h1v11h-1zm4 0h124v10H175zM26 62h2v1h-2zm2 0h1v1h-1z"/><path d="M83 64h216v1H83zm39 1h177v6H122z"/><path d="M84 67h215v1H84zM4 68h21v1H4zm21 0h1v1h-1zm25 0h2v2h-2zm2 0h1v3h-1zm36 0h211v3H88zM4 69h18v25H4zm18 0h1v4h-1z"/><path d="M48 69h4v1h-4zm2 1h2v1h-2zm1 1h1v1h-1zm1 0h1v1h-1zm19 0h1v1h-1zm17 0h211v1H88zm0 1h7v95h-7zm7 0h1v1h-1zm4 0h7v1h-7zm7 0h1v1h-1zm4 0h4v3h-4zm4 0h1v1h-1zm11 0h8v1h-8zm16 0h7v5h-7zm7 0h1v3h-1zm8 0h3v3h-3zm3 0h1v3h-1zm4 0h1v1h-1zm5 0h3v64h-3zm3 0h1v2h-1zm11 0h1v1h-1zm4 0h4v2h-4zm4 0h1v2h-1zm12 0h3v3h-3zm3 0h1v2h-1zm5 0h3v1h-3zm3 0h1v1h-1zm8 0h3v3h-3zm3 0h1v3h-1zm12 0h11v1h-11zm11 0h1v1h-1zm8 0h3v3h-3zm3 0h1v3h-1zm12 0h1v1h-1zm4 0h25v4h-25zM22 73h1v1h-1zm19 0h1v2h-1zm73 0h7v1h-7zm7 0h1v1h-1zm58 0h3v1h-3zm3 0h1v1h-1zm32 0h2v1h-2zm2 0h1v1h-1zm20 0h7v2h-7zm7 0h1v2h-1zm8 0h1v1h-1zm12 0h6v1h-6zm6 0h1v1h-1z"/><path d="M86 74h8v1h-8zm85 0h1v1h-1zm15 0h4v1h-4zm4 0h1v1h-1zm15 0h1v1h-1zM41 75h1v1h-1zm69 0h3v1h-3zm3 0h1v1h-1zm12 0h8v1h-8zm8 0h1v1h-1zm15 0h1v1h-1zm8 0h3v1h-3zm3 0h1v1h-1zm28 0h2v1h-2zm2 0h1v1h-1zm13 0h2v1h-2zm2 0h1v1h-1zm17 0h3v1h-3zm3 0h1v1h-1zm4 0h1v1h-1zm4 0h1v1h-1zm4 0h7v1h-7zm7 0h1v1h-1zm12 0h3v1h-3zm3 0h1v1h-1zM22 76h1v3h-1zm88 0h1v1h-1zm20 0h2v3h-2zm2 0h1v3h-1zm142 0h25v1h-25zm-166 1h1v1h-1zm33 0h6v1h-6zm6 0h1v9h-1zm128 0h24v17h-24zm-149 1h1v1h-1zm16 0h5v1h-5zm14 0h1v1h-1zM22 79h1v1h-1zm108 0h2v1h-2zm2 0h1v1h-1zm10 0h1v1h-1zm3 0h2v7h-2zm26 0h1v6h-1zm31 0h1v2h-1zM54 80h2v6h-2zm2 0h1v6h-1zm64 0h1v1h-1zm52 0h1v6h-1zm31 0h2v3h-2zm2 0h2v3h-2zm2 0h1v87h-1zm9 0h2v1h-2zm2 0h2v87h-2zm2 0h1v87h-1zm9 0h2v3h-2zm2 0h1v3h-1zm-129 1h1v1h-1zm17 0h1v1h-1z"/><path d="M202 81h6v1h-6zm6 0h1v86h-1zM22 82h1v3h-1zm65 0h7v1h-7zm41 0h1v1h-1zm-88 1h1v1h-1zm88 0h1v1h-1zm9 0h1v1h-1zm66 0h5v1h-5zm26 0h2v1h-2zm2 0h1v1h-1zM41 84h1v2h-1zm165 0h2v83h-2zm10 0h4v1h-4zm12 0h1v1h-1zm28 0h2v2h-2zm2 0h1v2h-1zM22 85h1v4h-1zm149 0h1v1h-1zm45 0h4v1h-4zM41 86h1v1h-1zm13 0h2v1h-2zm2 0h1v1h-1zm53 0h1v81h-1zm3 0h1v1h-1zm33 0h2v1h-2zm2 0h1v1h-1zm25 0h1v1h-1zm44 0h4v1h-4zm40 0h2v1h-2zm2 0h1v1h-1zm-132 1h1v1h-1zm1 0h1v1h-1z"/><path d="M203 87h5v49h-5zm-100 1h6v79h-6zm23 0h1v1h-1zm14 0h1v1h-1zM22 89h1v1h-1zm106 0h1v78h-1zm9 0h2v47h-2zm2 0h1v47h-1zm33 0h1v1h-1z"/><path d="M202 89h6v47h-6zm15 0h3v78h-3zM95 91h1v76h-1zm1 0h1v76h-1zm5 0h8v45h-8zm11 0h1v45h-1zm5 0h2v75h-2zm2 0h2v75h-2zm2 0h1v75h-1zm5 0h2v76h-2zm4 0h1v76h-1zm4 0h1v3h-1zm1 0h5v3h-5zm5 0h1v45h-1zm6 0h1v26h-1zm3 0h1v76h-1zm11 0h2v3h-2zm2 0h1v3h-1zm5 0h3v45h-3zm18 0h1v26h-1zm3 0h1v76h-1zm1 0h1v76h-1zm20 0h1v76h-1z"/><path d="M214 91h8v45h-8zm8 0h2v76h-2zm2 0h2v76h-2zm2 0h1v76h-1zm8 0h9v26h-9zm9 0h1v76h-1zm4 0h4v26h-4zm4 0h1v75h-1zm5 0h6v75h-6zm6 0h1v76h-1zm12 0h25v3h-25zM22 92h1v2h-1zm1 0h1v1h-1zm74 0h55v2H97zm55 0h1v75h-1zm4 0h22v2h-22zm22 0h1v75h-1zm5 0h7v25h-7zm7 0h1v75h-1z"/><path d="M198 92h101v2H198zM56 93h1v1h-1zm31 0h65v1H87zM4 94h18v1H4zm18 0h1v1h-1zm75 0h55v1H97zm59 0h22v1h-22zm42 0h101v1H198zM4 95h14v18H4zm55 0h1v1h-1zm38 0h36v41H97zm36 0h1v72h-1zm8 0h11v22h-11zm15 0h3v72h-3zm3 0h1v72h-1zm5 0h45v11h-45zm49 0h53v22h-53zm53 0h1v72h-1zm4 0h7v22h-7zm7 0h1v72h-1zm9 0h13v71h-13zM42 96h1v1h-1zm1 0h1v1h-1z"/><path d="M86 98h47v38H86zm77 0h46v8h-46zm115 0h1v69h-1zm3 0h18v68h-18zM19 99h7v18h-7zm7 0h1v1h-1z"/><path d="M84 99h215v7H84zm-58 5h1v1h-1zm0 1h1v12h-1zm2 1h1v22h-1zm55 0h216v1H83z"/><path d="M27 107h2v21h-2zm2 0h1v21h-1zm51 0h98v10H80zm111 0h108v10H191zm-161 3h6v33h-6zm6 0h1v56h-1z"/><path d="M79 110h220v7H79zm-42 1h1v55h-1z"/><path d="M72 111h227v1H72zm1 1h226v5H73zm-69 1h33v1H4zm0 1h3v25H4zm3 0h1v26H7zm5 0h33v3H12z"/><path d="M45 114h254v3H45zm-34 3h288v1H11zm-3 1h2v25H8zm2 0h1v25h-1zm5 0h3v18h-3zm23 0h106v18H38zm106 0h1v48h-1zm6 0h32v18h-32zm32 0h1v48h-1zm5 0h44v18h-44zm44 0h1v48h-1zm5 0h7v49h-7zm12 0h18v48h-18zm23 0h28v48h-28z"/><path d="M270 119h29v47h-29zm-259 2h1v26h-1zm1 0h1v26h-1zm8 0h2v22h-2zm2 0h122v7H22zm125 0h35v15h-35zm37 0h48v15h-48zm48 0h2v46h-2zm2 0h9v46h-9zm13 0h19v23h-19z"/><path d="M268 121h31v45h-31z"/><path d="M13 122h286v6H13zm0 6h286v1H13zm0 1h13v7H13zm13 0h1v26h-1zm119 0h154v7H145z"/><path d="M27 133h272v3H27zm-14 3h286v1H13zm0 1h1v10h-1zm1 0h1v10h-1zm5 0h79v2H19zm79 0h1v30h-1zm16 0h22v29h-22zm22 0h1v29h-1zm5 0h26v29h-26zm26 0h1v30h-1zm8 0h26v29h-26zm26 0h1v30h-1zm9 0h2v30h-2zm2 0h1v30h-1zm9 0h78v6h-78z"/><path d="M4 139h10v1H4zm15 0h79v1H19zm-12 1h7v1H7zm12 0h7v3h-7zm19 0h74v26H38zm74 0h55v26h-55zm57 0h4v27h-4zm4 0h28v26h-28zm30 0h12v27h-12zm12 0h84v3h-84z"/><path d="M168 141h131v2H168zM8 143h6v1H8zm11 0h7v1h-7zm11 0h269v1H30zm-26 1h3v3H4zm3 0h1v3H7zm8 0h3v3h-3zm3 0h1v3h-1zm5 0h6v3h-6zm6 0h1v3h-1zm5 0h209v22H34zm213 0h52v1h-52zm20 1h32v21h-32zM4 147h3v1H4zm3 0h1v1H7zm4 0h7v1h-7zm7 0h1v1h-1zm5 0h6v1h-6zm6 0h1v1h-1zm-21 1h2v19H8zm2 0h1v19h-1zm9 0h7v7h-7z"/><path d="M30 148h269v13H30z"/><path d="M4 152h295v3H4zm0 3h295v1H4zm0 1h10v6H4zm10 0h1v6h-1zm5 0h3v11h-3zm3 0h1v11h-1zm5 0h272v2H27zm0 2h272v1H27z"/><path d="M15 159h7v3h-7zm12 0h1v1h-1zm3 2h269v5H30zm-26 1h18v1H4zm0 1h7v4H4zm7 0h1v1h-1z"/><path d="M27 163h272v3H27zm0 3h272v1H27zm-27 1h14v1H0zm14 0h1v1h-1zm5 0h14v1H19zm14 0h1v1h-1zm5 0h34v1H38zm34 0h1v1h-1zm4 0h41v1H76zm41 0h1v1h-1zm5 0h11v1h-11zm11 0h1v1h-1zm4 0h3v1h-3zm3 0h1v1h-1zm5 0h14v1h-14zm14 0h1v1h-1zm5 0h14v1h-14zm14 0h1v1h-1zm5 0h45v1h-45zm45 0h1v1h-1zm4 0h18v1h-18zm18 0h1v1h-1zm9 0h30v1h-30zm30 0h1v1h-1zm4 0h6v1h-6zm6 0h1v1h-1z"/></g><path d="M41 56h1v1h-1zm34 3h1v1h-1zm-27 7h1v1h-1zm-10 5h1v1h-1zm0 1h1v1h-1zm7 0h1v1h-1zm0 3h1v5h-1zm-7 1h1v7h-1zm61 0h2v1h-2zm2 0h1v1h-1zm18 0h2v1h-2zm2 0h1v1h-1zm30 0h1v1h-1zm14 0h1v1h-1zm49 0h1v1h-1zm3 0h1v1h-1zm28 0h4v1h-4zm4 0h2v1h-2zm2 0h1v1h-1zm-68 1h1v1h-1zm-65 1h1v1h-1zm1 0h1v1h-1zm42 1h1v1h-1zM45 80h1v1h-1zm168 0h1v6h-1zm21 0h1v1h-1zm28 0h1v7h-1zm-109 1h1v1h-1zm37 1h1v1h-1zM38 83h1v1h-1zm37 0h1v1h-1zm28 1h2v1h-2zm2 0h1v1h-1zm132 0h1v1h-1zm-24 2h1v1h-1zM45 87h1v7h-1zm111 0h1v1h-1zm17 0h1v1h-1zm25 0h1v1h-1zm64 0h1v1h-1zm-79 2h1v1h-1zM38 91h1v1h-1zm-12 1h1v1h-1zm12 0h1v1h-1zm7 2h1v1h-1zm27 0h1v1h-1zm11 2h1v1h-1zm-50 10h1v1h-1z" fill="#14aadc"/><path d="M72 57h1v1h-1zm-36 1h1v1h-1zM26 73h1v1h-1zm192 3h1v1h-1zm37 2h1v1h-1zm-3 1h1v1h-1zM25 81h1v1h-1zm41 0h1v1h-1zm168 0h1v1h-1zM25 82h1v1h-1zm40 0h1v1h-1zm88 0h1v2h-1zm-11 1h1v1h-1zm11 1h1v1h-1zm23 0h1v1h-1zm16 3h1v1h-1zm9 0h1v1h-1zm31 0h1v1h-1zM84 93h1v1h-1zm-57 4h1v1h-1zm3 6h1v1h-1zm7 6h1v1h-1z" fill="#2491b1"/><path d="M33 60h1v1h-1zm-1 1h1v1h-1zm49 4h1v1h-1zm1 2h1v1h-1zm-11 1h1v1h-1zm1 3h1v1h-1zm12 2h1v1h-1zm82 4h1v11h-1zm71 3h1v1h-1zM49 81h1v1h-1zm84 2h1v1h-1zm26 0h1v1h-1zm-74 1h1v1h-1zm93 0h4v1h-4zm4 0h1v1h-1zm84 0h3v1h-3zm3 0h2v1h-2zm2 0h1v1h-1zM85 85h1v1h-1zm38 0h1v1h-1zm100 1h1v1h-1zm-47 1h1v1h-1zm13 0h1v1h-1zm39 0h1v1h-1zM66 88h1v1h-1zm65 0h1v1h-1zm35 0h1v1h-1zm-97 1h1v1h-1zm125 1h2v1h-2zm2 0h1v1h-1zM55 92h1v1h-1zm18 2h1v1h-1zm-35 1h1v1h-1zm45 2h1v1h-1zm-3 6h1v1h-1zm-7 6h1v1h-1zm-34 1h1v1h-1zm7 2h1v1h-1z" fill="#3189a5"/><path d="M58 66h1v1h-1zm10 2h1v1h-1zm-3 5h1v1h-1zm-17 1h1v1h-1zm198 4h1v1h-1zm-125 7h1v1h-1zm-22 1h1v1h-1zM29 99h1v1h-1zm33 0h1v1h-1z" fill="#04b5f7"/><path d="M65 54h1v1h-1zm4 1h1v1h-1zm8 4h1v1h-1zM49 71h1v1h-1zm224 12h1v1h-1zm-111 2h1v1h-1zm34 0h1v1h-1zm-12 2h1v1h-1zm4 0h1v1h-1zm-43 1h1v1h-1zm-78 1h1v1h-1zm87 0h1v1h-1zm70 0h1v1h-1zM25 94h1v1h-1zm14 1h1v1h-1zm9 2h1v1h-1zm-12 1h1v1h-1zm12 0h1v1h-1zm-20 3h1v1h-1zm39 11h1v1h-1z" fill="#5a4950"/><path d="M57 55h1v1h-1zm5 0h1v1h-1zm-23 3h1v1h-1zm-7 4h1v1h-1zm47 2h1v1h-1zm-20 1h1v1h-1zm-29 1h1v1h-1zm15 0h1v1h-1zm36 1h1v1h-1zm-43 1h1v1h-1zm19 1h1v1h-1zm8 0h1v1h-1zm17 1h1v1h-1zm-27 1h1v2h-1zm-28 1h1v1h-1zm28 1h1v1h-1zm15 1h1v1h-1zm-16 1h1v1h-1zm-1 2h1v1h-1zm48 0h5v1h-5zm5 0h1v1h-1zm31 0h1v1h-1zm15 0h2v1h-2zm2 0h1v1h-1zm25 0h3v1h-3zm3 0h1v1h-1zm14 0h1v1h-1zm11 0h1v1h-1zm3 0h2v1h-2zm2 0h1v1h-1zm3 0h1v1h-1zm31 0h1v1h-1zm6 0h1v1h-1zm15 0h2v1h-2zm2 0h1v1h-1zM98 78h1v1h-1zm166 0h1v1h-1zm-126 1h1v1h-1zm36 0h1v1h-1zm80 0h1v1h-1zM46 80h1v1h-1zm69 0h1v1h-1zm110 0h1v1h-1zm20 0h1v1h-1zm-130 1h1v1h-1zm130 0h1v1h-1zM84 82h1v2h-1zm110 0h1v1h-1zm42 0h1v1h-1zM78 83h1v1h-1zm82 0h1v1h-1zm84 0h1v1h-1zm6 0h2v1h-2zm2 0h1v1h-1zM75 84h1v1h-1zm9 0h1v1h-1zm15 0h1v1h-1zm18 0h2v1h-2zm2 0h1v1h-1zm37 0h1v1h-1zm-14 1h1v1h-1zm83 0h1v1h-1zm-110 1h1v1h-1zm21 0h1v1h-1zm-86 1h1v1h-1zm17 0h1v1h-1zm56 0h1v1h-1zm10 0h1v1h-1zm8 0h1v1h-1zm85 0h1v1h-1zM70 88h1v1h-1zm53 0h1v1h-1zm55 0h1v1h-1zm75 0h1v1h-1zm-79 1h1v1h-1zm4 0h1v1h-1zm67 0h1v1h-1zm8 0h1v1h-1zM53 90h1v1h-1zm13 2h1v1h-1zm3 2h1v1h-1zm-34 2h1v1h-1zm22 3h1v1h-1zm-21 1h1v1h-1zm9 0h1v1h-1zm-13 2h1v1h-1zm27 0h1v1h-1zm17 2h1v1h-1zm-1 3h1v1h-1zm-38 1h1v1h-1zm17 4h2v1h-2zm2 0h1v1h-1z" fill="#00bcf7"/><path d="M139 84h1v1h-1zm-71 5h1v1h-1zm0 3h1v1h-1z" fill="#4f5c77"/><path fill="#525741" d="M162 87h1v1h-1z"/><path d="M47 54h1v1h-1zm16 0h1v1h-1zm10 3h1v1h-1zM25 76h1v1h-1zm199 1h1v1h-1zm-98 2h1v1h-1zm50 1h1v1h-1zM45 82h1v1h-1zm72 0h1v1h-1zm44 4h1v1h-1zM25 90h1v1h-1zm72 0h1v1h-1zm146 0h1v1h-1zM57 96h1v1h-1z" fill="#4c6376"/></svg>