<svg xmlns="http://www.w3.org/2000/svg" role="img" viewBox="-8.91 -8.66 450.32 135.57"><title>ftrack logo</title><path d="M49.437 20.804c-3.359-1.12-7.199-1.92-12.479-1.92-8.8 0-15.36 3.04-15.36 14.559v7.68h24.64v5.92c0 7.68-8.16 12.16-15.359 12.16H21.6v57.596h-8.64C6.08 116.8 0 111.52 0 104.001V31.683C0 19.524 8.48.004 33.598.004c9.28 0 16.48 5.12 16.48 13.6v7.2h-.64m16.482-4c2.879-3.36 6.719-5.92 10.078-5.92h4.96v19.52h29.92v8.799c0 4.48-4 10.24-12.8 10.24h-17.12V83.2c0 11.199 4.96 15.52 13.6 15.52 6.88 0 12.16-.96 15.52-3.04h.8v7.678c0 8.8-6.4 14.4-18.88 14.4-21.759 0-32.318-11.84-32.318-31.999V33.923c0-8.48 1.6-11.68 6.24-17.12m106.717 34.56c-3.2-1.28-6.88-2.56-12.48-2.56-9.598 0-14.878 5.28-14.878 18.4v49.596h-5.92c-9.6 0-15.68-4.798-15.68-13.758V63.363c0-17.28 9.119-33.76 31.838-33.76 13.28 0 17.92 7.52 17.92 14.08v7.68h-.8m59.518 27.838h-7.679c-16.32 0-20.96 3.84-20.96 10.88 0 6.718 5.44 10.718 14.879 10.718 9.28 0 13.76-4.479 13.76-13.278zm-11.679 39.04h-4.32c-20.48 0-34.559-11.52-34.559-27.36 0-15.36 11.199-27.039 42.879-27.039h7.519v-1.12c0-12.159-5.76-15.84-18.559-15.84-15.52 0-24.159 5.92-27.359 9.92h-.8v-6.88c0-9.599 8.64-21.118 31.359-21.118 19.199 0 36.477 8.96 36.477 38.718V87.36c0 18.24-13.438 30.88-32.637 30.88m114.877-59.998c-2.881-4.96-11.04-8.96-23.36-8.96-12.478 0-23.518 10.08-23.518 22.88 0 15.678 9.278 26.398 23.838 26.398 12.32 0 19.68-4 22.719-8h.8v9.92c0 10.4-10.079 17.92-25.599 17.92-23.678 0-44.157-18.4-44.157-43.04 0-24.638 17.119-45.757 46.557-45.757 13.76 0 23.519 8.32 23.519 18.56v10.08h-.799m38.72-42.399V67.36c12.639-16.958 19.199-24.478 26.399-31.358 5.12-4.8 10.24-5.6 17.119-5.6h12.321v.8c-6.08 5.12-26.08 27.839-35.04 39.199 6.88 8.478 13.6 17.28 21.28 25.118 7.839 7.84 11.36 9.44 16.639 11.2-2.24 6.879-5.76 10.56-14.559 10.56-4.8 0-10.4-2.24-14.08-5.92C393.113 100 383.513 87.2 374.073 74.56v42.24h-7.36c-9.598 0-14.24-5.28-14.24-15.198V1.604h6.882c10.398 0 14.718 5.92 14.718 14.24" fill="#2e2d2d"/></svg>