<svg xmlns="http://www.w3.org/2000/svg" role="img" viewBox="-8.91 -8.66 450.32 135.57"><title>ftrack AB logo</title><path d="M49.43623 20.80604c-3.35925-1.1197-7.19929-1.91969-12.47875-1.91969-8.79938 0-15.35909 3.03953-15.35909 14.55844v7.68008h24.63845v5.91958c0 7.67954-8.15966 12.15916-15.35841 12.15916h-9.28004v57.59591h-8.63934C6.07955 116.79952 0 111.51996 0 104.00089V31.6855C0 19.52647 8.47896.0071 33.59756.0071c9.2795 0 16.47932 5.11973 16.47932 13.59912v7.19982h-.64065m16.48146-3.9999c2.87952-3.35925 6.71903-5.91905 10.07881-5.91905h4.95988v19.51818h29.91845v8.79938c0 4.47948-3.9999 10.2392-12.79915 10.2392h-17.1193v33.7581c0 11.19865 4.95974 15.5188 13.59912 15.5188 6.87943 0 12.15957-.95983 15.51935-3.03992h.79998v7.67888c0 8.7993-6.3993 14.39968-18.87926 14.39968-21.75826 0-32.31733-11.83981-32.31733-31.99817V33.92558c0-8.47952 1.59943-11.67944 6.23945-17.11944m106.71533 34.55807c-3.19992-1.28024-6.87983-2.5598-12.4797-2.5598-9.59842 0-14.87829 5.27946-14.87829 18.399v49.59611h-5.91985c-9.60002 0-15.67907-4.79884-15.67907-13.75847V63.36391c0-17.27984 9.11844-33.75862 31.83734-33.75862 13.27966 0 17.91955 7.51968 17.91955 14.07884v7.68008h-.79998m59.51584 27.83784h-7.67847c-16.3196 0-20.95948 3.8395-20.95948 10.87932 0 6.71864 5.43987 10.71854 14.8783 10.71854 9.27976 0 13.75965-4.4791 13.75965-13.27834zM220.4705 118.2401h-4.3199c-20.47948 0-34.5578-11.51951-34.5578-27.35916 0-15.35908 11.19839-27.03745 42.8776-27.03745h7.51848v-1.12077c0-12.15797-5.75986-15.83868-18.5582-15.83868-15.51962 0-24.15807 5.92026-27.35799 9.92016h-.79998v-6.88063c0-9.59816 8.63979-21.11774 31.35788-21.11774 19.1982 0 36.47643 8.95978 36.47643 38.7173V87.3617c0 18.23913-13.43834 30.8784-32.63652 30.8784m114.87446-59.99647c-2.88126-4.95975-11.03972-8.95911-23.35942-8.95911-12.47835 0-23.51808 10.07948-23.51808 22.87863 0 15.67774 9.27844 26.3972 23.83808 26.3972 12.31969 0 19.6795-3.9999 22.7181-7.9998h.79997v9.92055c0 10.39824-10.07841 17.91889-25.59802 17.91889-23.67808 0-44.15623-18.399-44.15623-43.038 0-24.6379 17.11824-45.75671 46.55617-45.75671 13.75965 0 23.51808 8.31966 23.51808 18.559v10.07935h-.79865m38.71903-42.39734v51.51644c12.63835-16.95837 19.19819-24.47805 26.398-31.35801 5.11988-4.79948 10.23975-5.59946 17.11825-5.59946h12.32102v.79998c-6.07985 5.12027-26.07935 27.83783-35.03912 39.19755 6.87983 8.47845 13.59966 17.27917 21.27947 25.1175 7.83847 7.8394 11.35971 9.4399 16.63825 11.2003-2.23995 6.87848-5.75986 10.5586-14.5583 10.5586-4.79989 0-10.39975-2.23953-14.07965-5.91965-11.0384-11.35856-20.63815-24.1577-30.07792-36.79699v42.23696h-7.35981c-9.59843 0-14.23965-5.27956-14.23965-15.19857V1.60705h6.88116c10.3984 0 14.7183 5.92026 14.7183 14.23925" fill="#2e2d2d"/></svg>