<svg xmlns="http://www.w3.org/2000/svg" role="img" viewBox="-8.66 -8.66 450.06 135.56"><title>ftrack AB logo</title><g fill="#2e2d2d" fill-opacity="1" fill-rule="nonzero" stroke="none" transform="matrix(1.33333 0 0 -1.33333 0 118.4) scale(.1)"><path d="M370.781 731.973c-25.195 8.398-53.996 14.398-93.593 14.398-65.997 0-115.196-22.797-115.196-109.191v-57.602h184.793V535.18c0-57.598-61.199-91.196-115.191-91.196h-69.602V12.0039H97.1953C45.5977 12.0039 0 51.6016 0 107.996v542.379c0 91.195 63.5938 237.594 251.988 237.594 69.598 0 123.598-38.399 123.598-101.996v-54h-4.805"/><path d="M494.395 761.973c21.597 25.195 50.394 44.394 75.593 44.394h37.2v-146.39h224.394V593.98c0-33.597-30-76.796-95.996-76.796H607.188V263.992c0-83.992 37.199-116.394 101.996-116.394 51.597 0 91.199 7.199 116.398 22.8h6v-57.593c0-65.9964-47.996-108.00031-141.598-108.00031-163.191 0-242.386 88.80081-242.386 239.99231v388.777c0 63.598 11.996 87.598 46.797 128.399"/><path d="M1294.78 502.781c-24 9.602-51.6 19.199-93.6 19.199-71.99 0-111.59-39.597-111.59-137.996V12.0039h-44.4c-72.002 0-117.596 35.9922-117.596 103.1911v297.586c0 129.602 68.39 253.196 238.786 253.196 99.6 0 134.4-56.399 134.4-105.594v-57.602h-6"/><path d="M1741.16 293.992h-57.59c-122.4 0-157.2-28.797-157.2-81.597 0-50.391 40.8-80.391 111.59-80.391 69.6 0 103.2 33.594 103.2 99.59zM1653.57 1.19922h-32.4c-153.6 0-259.19 86.39848-259.19 205.19878 0 115.196 83.99 202.786 321.59 202.786h56.39v8.406c0 91.187-43.2 118.793-139.19 118.793-116.4 0-181.19-44.403-205.19-74.403h-6v51.606c0 71.988 64.8 158.387 235.19 158.387 143.99 0 273.58-67.2 273.58-290.387V232.793c0-136.7969-100.79-231.59378-244.78-231.59378"/><path d="M2515.15 451.184c-21.61 37.199-82.8 67.195-175.2 67.195-93.59 0-176.39-75.598-176.39-171.594 0-117.586 69.59-197.984 178.79-197.984 92.4 0 147.6 30 170.39 60h6v-74.406C2518.74 56.4063 2443.15 0 2326.75 0c-177.59 0-331.18 137.996-331.18 322.793 0 184.789 128.39 343.184 349.18 343.184 103.2 0 176.39-62.399 176.39-139.196v-75.597h-5.99"/><path d="M2805.55 769.172V382.789c94.79 127.191 143.99 183.59 197.99 235.191 38.4 35.997 76.8 41.997 128.39 41.997h92.41v-6c-45.6-38.403-195.6-208.789-262.8-293.989 51.6-63.59 102-129.597 159.6-188.386 58.79-58.797 85.2-70.801 124.79-84.0043-16.8-51.5899-43.2-79.19145-109.19-79.19145-36 0-78 16.79685-105.6 44.39845-82.79 85.1913-154.79 181.1873-225.59 275.9843V12.0039h-55.2c-71.99 0-106.8 39.5977-106.8 113.9921v749.973h51.61c77.99 0 110.39-44.403 110.39-106.797"/></g></svg>