<svg xmlns="http://www.w3.org/2000/svg" role="img" viewBox="19.26 14.51 337.48 101.73"><title>ftrack logo</title><style>svg {enable-background:new 0 0 374 132.5}</style><path fill="#333" d="M63 36.9c-2.5-.8-5.4-1.4-9.4-1.4-6.6 0-11.5 2.3-11.5 10.9v5.8h18.5v4.4c0 5.8-6.1 9.1-11.5 9.1h-7v43.2h-6.5c-5.2 0-9.7-4-9.7-9.6V45c0-9.1 6.4-23.8 25.2-23.8 7 0 12.4 3.8 12.4 10.2v5.4H63zm12.4-3c2.2-2.5 5-4.4 7.6-4.4h3.7v14.6h22.4v6.6c0 3.4-3 7.7-9.6 7.7H86.7v25.3c0 8.4 3.7 11.6 10.2 11.6 5.2 0 9.1-.7 11.6-2.3h.6v5.8c0 6.6-4.8 10.8-14.2 10.8-16.3 0-24.2-8.9-24.2-24V46.7c0-6.4 1.2-8.8 4.7-12.8zm80 25.9c-2.4-1-5.2-1.9-9.4-1.9-7.2 0-11.2 4-11.2 13.8v37.2h-4.4c-7.2 0-11.8-3.6-11.8-10.3V68.8c0-13 6.8-25.3 23.9-25.3 10 0 13.4 5.6 13.4 10.6v5.8h-.5zm35.9 50.1h-3.2c-15.4 0-25.9-8.6-25.9-20.5 0-11.5 8.4-20.3 32.2-20.3h5.6v-.8c0-9.1-4.3-11.9-13.9-11.9-11.6 0-18.1 4.4-20.5 7.4h-.6v-5.2c0-7.2 6.5-15.8 23.5-15.8 14.4 0 27.4 6.7 27.4 29v14.9c-.1 13.8-10.2 23.2-24.6 23.2zm8.8-29.2h-5.8c-12.2 0-15.7 2.9-15.7 8.2 0 5 4.1 8 11.2 8 7 0 10.3-3.4 10.3-10v-6.2zm77.4-15.8c-2.2-3.7-8.3-6.7-17.5-6.7-9.4 0-17.6 7.6-17.6 17.2 0 11.8 7 19.8 17.9 19.8 9.2 0 14.8-3 17-6h.6v7.4c0 7.8-7.6 13.4-19.2 13.4-17.8 0-33.1-13.8-33.1-32.3 0-18.5 12.8-34.3 34.9-34.3 10.3 0 17.6 6.2 17.6 13.9v7.6h-.6zm29-31.8v38.6c9.5-12.7 14.4-18.4 19.8-23.5 3.8-3.6 7.7-4.2 12.8-4.2h9.2v.6c-4.6 3.8-19.6 20.9-26.3 29.4 5.2 6.4 10.2 13 16 18.8 5.9 5.9 8.5 7.1 12.5 8.4-1.7 5.2-4.3 7.9-10.9 7.9-3.6 0-7.8-1.7-10.6-4.4-8.3-8.5-15.5-18.1-22.6-27.6v31.7H301c-7.2 0-10.7-4-10.7-11.4v-75h5.2c7.8.1 11 4.5 11 10.7z"/></svg>