<svg xmlns="http://www.w3.org/2000/svg" role="img" viewBox="-0.45 -0.45 231.66 57.41"><title>Gaffer logo</title><path fill="#b92227" d="M88.40262 42.02298H67.07556c-.7667 0-1.476-.13334-2.12789-.40187-.65373-.27039-1.21302-.63893-1.6797-1.10932-.4704-.46484-.83895-1.02598-1.10933-1.67972-.27039-.65374-.40373-1.36118-.40373-2.1279v-5.36509c0-1.5612.49632-2.83904 1.49082-3.83168.99265-.99265 2.2705-1.48897 3.82983-1.48897h16.00641v-5.36325H66.5811v-5.3225h16.50088c1.57786 0 2.85941.50187 3.84465 1.50748.98338 1.00561 1.476 2.28901 1.476 3.8465v21.33632zm-5.32065-5.31695v-5.3651h-16.0064v5.3651h16.0064z"/><path fill="#b92227" d="M120.24505 12.73624h-5.02063v8.58935h3.70204v4.93915h-3.53352v15.7601h-5.3225v-15.7601h-3.58908v-4.93915h3.58908V12.9918c0-1.58897.49262-2.87978 1.47045-3.87243.97968-.99264 2.26493-1.49082 3.85205-1.49082h4.85211v5.10768z"/><path fill="#b92227" d="M149.05028 12.73624h-5.02063v8.58935h3.70205v4.93915h-3.53353v15.7601h-5.32065v-15.7601h-3.58908v-4.93915h3.58908V12.9918c0-1.58897.49077-2.87978 1.46675-3.87243.97968-.99264 2.26493-1.49082 3.8539-1.49082h4.85211v5.10768z"/><path fill="#b92227" d="M226.90997 20.31812h-12.06545v21.70486h-5.57437v-21.7919c0-1.58897.49076-2.87978 1.46859-3.87242.97968-.9908 2.26494-1.48897 3.85391-1.48897h12.09323l.22409 5.44844z"/><path fill="#b92227" d="M192.67667 27.93705c0 .93523-.0981 1.81676-.29631 2.64088h-21.58077c.28149.85004.69263 1.63712 1.23339 2.35938.53707.72412 1.15562 1.34267 1.8501 1.8538.69448.51114 1.4686.90746 2.3205 1.19266.85375.2815 1.73157.4241 2.63903.4241 2.69829 0 4.89655-1.0482 6.60035-3.14832l4.02058 3.47056s-1.85751 1.92232-2.97794 2.6594c-1.12228.74078-2.32605 1.31488-3.61686 1.72601-1.2908.41114-2.63532.6167-4.02613.6167-1.87233 0-3.6539-.36298-5.34288-1.08524-1.68713-.72411-3.15387-1.70935-4.40394-2.95756-1.25006-1.24822-2.24271-2.71126-2.97979-4.38542-.74078-1.67602-1.10746-3.46315-1.10746-5.36325 0-1.90195.36483-3.68908 1.10746-5.3651.73708-1.6723 1.73158-3.1335 2.97979-4.38356 1.25007-1.24822 2.71681-2.24086 4.40394-2.98164 1.68898-.73338 3.47055-1.10562 5.34288-1.10562 1.9001 0 3.68908.3704 5.36509 1.10562 1.67417.74078 3.1335 1.73342 4.38357 2.98164 1.25007 1.25006 2.24271 2.71125 2.97979 4.38356.73522 1.67046 1.10561 3.4576 1.10561 5.3614zm-5.78734-2.68348c-.2852-.85004-.69633-1.62971-1.23525-2.34086-.53892-.7093-1.16488-1.32785-1.87418-1.85195-.70929-.52596-1.49082-.92783-2.34271-1.21488-.85005-.2815-1.71676-.4241-2.59644-.4241-.90745 0-1.78528.1426-2.63903.4241-.85189.2852-1.62601.68151-2.32049 1.19265s-1.31303 1.1297-1.8501 1.8538c-.54077.72227-.9519 1.50934-1.2334 2.35939h16.0916z"/><path fill="#b92227" fill-opacity="1" d="M14.19422 4l38.49446 10.19219-10.19473 38.49497-6.83103-1.80738-3.39098-3.44351-6.11794.9248L4 42.495z"/><path fill="#fff" fill-rule="evenodd" stroke="none" d="M26.154 48.36107v-2.78251h9.0803V42.0398H19.16326c-.73275 0-1.42468-.13519-2.07273-.40363-.64855-.2689-1.2119-.63681-1.69206-1.10678-.47915-.46791-.8593-1.01289-1.14097-1.63798-.28218-.62355-.42302-1.30577-.42302-2.04414v-16.1736c0-1.589.4863-2.87947 1.45887-3.87348.97258-.9935 2.26204-1.48949 3.8699-1.48949H40.5641v30.23212c0 3.4224-1.64664 5.18896-4.90117 5.33695zm-6.99074-27.72056H35.2343v16.07206H19.16326z"/></svg>