<svg xmlns="http://www.w3.org/2000/svg" role="img" viewBox="-3.89 -4.39 306.28 158.03"><title>Gaffer logo</title><path fill="#858585" d="M112.946 75.18l33.502 21.418-21.42 33.505-33.502-21.417z"/><path fill="#b1b1b1" d="M71.72 64.842l10.42 38.21-38.212 10.42-10.42-38.21z"/><path fill="#656565" d="M15.41 61.76l16.657 13.326L18.74 91.743 2.083 78.416z"/><path fill="#a1a1a1" d="M167.41 87.59l9.151 19.27-19.27 9.153-9.153-19.27z"/><path fill="#777" d="M190.53 108.132l-.109 13.134-13.132-.11.109-13.133z"/><path fill="#989898" d="M126.413 1.676L140.31 17.86l-16.187 13.9-13.897-16.185z"/><path fill="#5d5d5d" d="M124.44 131.527l3.784 12.578-12.577 3.783-3.784-12.577z"/><path fill="#b92227" d="M158.124 62.552h-21.327a5.532 5.532 0 0 1-2.128-.402 5.052 5.052 0 0 1-1.68-1.11 5.033 5.033 0 0 1-1.11-1.68 5.505 5.505 0 0 1-.403-2.127v-5.365c0-1.562.496-2.84 1.49-3.832.993-.993 2.271-1.489 3.83-1.489h16.007v-5.363h-16.5V35.86h16.5c1.578 0 2.86.502 3.845 1.508.983 1.005 1.476 2.289 1.476 3.846v21.337zm-5.321-5.317V51.87h-16.006v5.365h16.006zm37.163-23.97h-5.02v8.59h3.701v4.938h-3.533v15.76h-5.323v-15.76h-3.589v-4.939h3.59V33.52c0-1.589.492-2.88 1.47-3.872.98-.993 2.265-1.49 3.852-1.49h4.852v5.107zm28.805 0h-5.02v8.59h3.702v4.938h-3.534v15.76h-5.32v-15.76h-3.59v-4.939h3.59V33.52c0-1.589.49-2.88 1.466-3.872.98-.993 2.265-1.49 3.854-1.49h4.852v5.107zm77.86 7.582h-12.065v21.705h-5.575V40.76c0-1.59.49-2.88 1.469-3.873.98-.99 2.265-1.489 3.854-1.489h12.093l.224 5.449zm-34.233 7.619c0 .935-.098 1.816-.297 2.64h-21.58a8.23 8.23 0 0 0 1.233 2.36 8.78 8.78 0 0 0 1.85 1.854 8.365 8.365 0 0 0 2.32 1.192 8.367 8.367 0 0 0 2.64.424c2.698 0 4.896-1.048 6.6-3.148l4.02 3.47s-1.857 1.923-2.977 2.66a14.535 14.535 0 0 1-3.617 1.726 13.205 13.205 0 0 1-4.026.617c-1.873 0-3.654-.363-5.343-1.085a13.946 13.946 0 0 1-4.404-2.958 14.242 14.242 0 0 1-2.98-4.385c-.74-1.676-1.107-3.464-1.107-5.364 0-1.902.364-3.689 1.107-5.365a14.31 14.31 0 0 1 2.98-4.383c1.25-1.249 2.717-2.241 4.404-2.982a13.279 13.279 0 0 1 5.343-1.106c1.9 0 3.689.37 5.365 1.106a14.358 14.358 0 0 1 4.383 2.982 14.277 14.277 0 0 1 2.98 4.383c.735 1.67 1.106 3.458 1.106 5.362zm-5.788-2.684a8.128 8.128 0 0 0-1.235-2.34 9.249 9.249 0 0 0-1.874-1.853 8.41 8.41 0 0 0-2.343-1.215 8.217 8.217 0 0 0-2.596-.424c-.908 0-1.786.143-2.64.424a8.365 8.365 0 0 0-2.32 1.193 8.78 8.78 0 0 0-1.85 1.854 8.23 8.23 0 0 0-1.233 2.36h16.091zM83.915 24.529L122.41 34.72l-10.195 38.495-6.831-1.808-3.391-3.443-6.118.925-22.154-5.866z"/><path fill="#fff" fill-rule="evenodd" d="M95.875 68.89v-2.783h9.08v-3.539h-16.07a5.366 5.366 0 0 1-2.073-.403 5.28 5.28 0 0 1-2.833-2.745 4.902 4.902 0 0 1-.423-2.044V41.202c0-1.589.486-2.88 1.458-3.873.973-.994 2.262-1.49 3.87-1.49h21.401v30.232c0 3.423-1.647 5.19-4.901 5.337zm-6.99-27.72h16.07v16.07h-16.07z"/></svg>