<svg xmlns="http://www.w3.org/2000/svg" role="img" viewBox="-0.69 -0.69 36.08 11.57"><title>gatling logo</title><path stroke-width=".265" d="M5.07904 7.38438q0 1.4676-.66662 2.1549-.66663.68729-2.05155.68729-.45992 0-.89917-.0672-.43408-.062-.85782-.18087v-.99218h.05168q.2377.093.75447.22737.51676.13953 1.03352.13953.4961 0 .82166-.11885.32556-.11886.50642-.33073.18087-.20154.25839-.48576.07752-.28422.07752-.63562v-.5271q-.43925.3514-.84233.5271-.3979.17053-1.01802.17053-1.03353 0-1.6433-.74413-.60462-.74931-.60462-2.1084 0-.74413.2067-1.28157.21188-.5426.57361-.93534.3359-.3669.81649-.56844.48059-.2067.95601-.2067.50126 0 .83715.10335.34107.0982.7183.30489l.06202-.24805h.9095zm-.97151-.93018V3.30712q-.38758-.1757-.72347-.24805-.33073-.0775-.66146-.0775-.80098 0-1.2609.53743-.45992.53743-.45992 1.56062 0 .97152.34107 1.47278.34106.50126 1.1317.50126.42375 0 .8475-.1602.42891-.16536.78548-.43925zm7.36903 1.58646h-.96634v-.61494q-.1292.0879-.3514.24804-.21704.15503-.42375.24805-.24288.11885-.5581.19637-.31523.0827-.73897.0827-.78031 0-1.32292-.51676-.5426-.51677-.5426-1.31775 0-.65629.27906-1.05936.28422-.40824.80615-.64079.5271-.23254 1.26606-.31522.73897-.0827 1.58647-.12402v-.14987q0-.33072-.11886-.54776-.11369-.21704-.33073-.34107-.2067-.11885-.49609-.16019-.28939-.0414-.60461-.0414-.3824 0-.85266.10336-.47025.0982-.97151.28938h-.05168v-.98701q.28422-.0775.82165-.17053.53743-.093 1.05936-.093.60978 0 1.05937.10335.45475.0982.78547.34106.32557.23772.4961.61495.17053.37724.17053.93534zm-.96634-1.42109V5.01243q-.44442.0258-1.04903.0775-.59945.0517-.95085.14986-.41857.11886-.67695.37207-.25839.24805-.25839.68729 0 .4961.29973.74931.29972.24805.91467.24805.5116 0 .93534-.19637.42374-.20154.78548-.48059zm5.83425 1.36942q-.27389.0723-.59945.11885-.32039.0465-.5736.0465-.88367 0-1.34359-.47542-.45992-.47542-.45992-1.52445V3.0849h-.65628v-.81649h.65628V.60961h.97152v1.6588h2.00504v.81649h-2.00504v2.63032q0 .45475.02067.71313.02067.25322.1447.47543.11368.2067.31005.30489.20154.093.60978.093.23771 0 .4961-.0672.25837-.0723.37206-.11885h.05168zm2.1549.0517h-.97152V-.00013h.97152zm2.96621-6.73858h-1.09553V.29442h1.09553zm-.062 6.73858h-.97152V2.26845h.97151zm6.74891 0h-.9715V4.75408q0-.3979-.04652-.74414-.0465-.35139-.17053-.54776-.12919-.21704-.37207-.3204-.24288-.10852-.63045-.10852-.3979 0-.83199.19637-.43408.19637-.83199.50126v4.3098h-.9715V2.26845h.9715v.64079q.45476-.37724.94051-.58911.48576-.21187.99735-.21187.93534 0 1.42627.56327.49092.56327.49092 1.62263zm6.55255-.65628q0 1.4676-.66662 2.1549-.66662.68729-2.05155.68729-.45992 0-.89916-.0672-.43409-.062-.85783-.18087v-.99218h.05168q.23771.093.75447.22737.51677.13953 1.03353.13953.4961 0 .82165-.11885.32556-.11886.50643-.33073.18087-.20154.25838-.48576.07752-.28422.07752-.63562v-.5271q-.43925.3514-.84232.5271-.39791.17053-1.01803.17053-1.03352 0-1.6433-.74413-.60461-.74931-.60461-2.1084 0-.74413.2067-1.28157.21187-.5426.5736-.93534.3359-.3669.8165-.56844.48058-.2067.956-.2067.50126 0 .83716.10335.34106.0982.7183.30489l.06201-.24805h.9095zm-.97151-.93021V3.30712q-.38757-.1757-.72347-.24805-.33073-.0775-.66145-.0775-.80099 0-1.2609.53743-.45992.53743-.45992 1.56062 0 .97152.34106 1.47278.34106.50126 1.13171.50126.42374 0 .8475-.1602.4289-.16536.78547-.43925z"/></svg>