<svg xmlns="http://www.w3.org/2000/svg" role="img" viewBox="-6.44 62.56 412.62 145.12"><title>Google LLC logo</title><style>svg {enable-background:new 0 0 400 245}</style><style>.st0{fill:#4094d0}.st1{fill:#ee4636}</style><path d="M1.69 120.74c0-27.67 23.26-50.2 50.94-50.2 15.31 0 26.2 6 34.41 13.84l-9.67 9.67c-5.88-5.51-13.84-9.8-24.73-9.8-20.2 0-36 16.28-36 36.49 0 20.2 15.79 36.49 36 36.49 13.1 0 20.57-5.27 25.35-10.04 3.92-3.92 6.49-9.55 7.47-17.26H52.63v-13.71h46.16c.49 2.45.74 5.39.74 8.57 0 10.29-2.82 23.02-11.88 32.08-8.82 9.18-20.08 14.08-35.02 14.08-27.67-.01-50.94-22.54-50.94-50.21z" class="st0"/><path d="M136.83 106.29c-17.88 0-32.45 13.59-32.45 32.32 0 18.61 14.57 32.32 32.45 32.32 17.88 0 32.45-13.71 32.45-32.32-.01-18.73-14.58-32.32-32.45-32.32zm0 51.91c-9.8 0-18.24-8.08-18.24-19.59 0-11.63 8.45-19.59 18.24-19.59 9.8 0 18.24 7.96 18.24 19.59 0 11.51-8.45 19.59-18.24 19.59z" class="st1"/><path fill="#ffc10e" d="M207.61 106.29c-17.88 0-32.45 13.59-32.45 32.32 0 18.61 14.57 32.32 32.45 32.32 17.88 0 32.45-13.71 32.45-32.32 0-18.73-14.57-32.32-32.45-32.32zm0 51.91c-9.8 0-18.24-8.08-18.24-19.59 0-11.63 8.45-19.59 18.24-19.59s18.24 7.96 18.24 19.59c0 11.51-8.44 19.59-18.24 19.59z"/><path d="M294.49 108.25v5.27H294c-3.18-3.8-9.31-7.22-17.02-7.22-16.16 0-30.98 14.2-30.98 32.45 0 18.12 14.82 32.2 30.98 32.2 7.71 0 13.84-3.43 17.02-7.35h.49v4.65c0 12.37-6.61 18.98-17.26 18.98-8.69 0-14.08-6.24-16.28-11.51l-12.37 5.14c3.55 8.57 12.98 19.1 28.65 19.1 16.65 0 30.73-9.8 30.73-33.67v-58.04h-13.47zm-16.28 49.95c-9.8 0-18-8.2-18-19.47 0-11.39 8.2-19.71 18-19.71 9.67 0 17.26 8.33 17.26 19.71 0 11.27-7.59 19.47-17.26 19.47z" class="st0"/><path fill="#2fb355" d="M317.76 73.96h14.2v95.01h-14.2z"/><path d="M370.9 158.2c-7.22 0-12.37-3.31-15.67-9.8l43.22-17.88-1.47-3.67c-2.69-7.22-10.9-20.57-27.67-20.57-16.65 0-30.49 13.1-30.49 32.32 0 18.12 13.71 32.32 32.08 32.32 14.81 0 23.39-9.06 26.94-14.33l-11.02-7.35c-3.68 5.41-8.7 8.96-15.92 8.96zm-1.11-39.42c5.63 0 10.41 2.82 12 6.86l-28.9 12c-.36-12.5 9.68-18.86 16.9-18.86z" class="st1"/><path fill="none" d="M1 70.46h397.92v130.09H1z"/></svg>