<svg xmlns="http://www.w3.org/2000/svg" role="img" xmlns:xlink="http://www.w3.org/1999/xlink" viewBox="-19.98 -19.98 1038.96 281.96"><title>GTO logo</title><defs><linearGradient id="c"><stop offset="0" stop-color="#29a5e3"/><stop offset=".515" stop-color="#356eb9"/><stop offset="1" stop-color="#394da5"/></linearGradient><linearGradient id="b"><stop offset="0" stop-color="#2b7a77"/><stop offset=".51" stop-color="#4ebaa9"/><stop offset="1" stop-color="#5cc2b1"/></linearGradient><linearGradient id="a"><stop offset="0" stop-color="#236736"/><stop offset=".493" stop-color="#6ba443"/><stop offset="1" stop-color="#86c146"/></linearGradient><clipPath id="d" clipPathUnits="userSpaceOnUse"><path d="M637.5 36h117.711v19.516H637.5z"/></clipPath><clipPath id="e" clipPathUnits="userSpaceOnUse"><path d="M637.5 36h117.711v19.516H637.5z"/></clipPath><linearGradient id="g" x1="908.368" x2="637.568" y1="189.12" y2="825.089" gradientUnits="userSpaceOnUse" xlink:href="#a"/><linearGradient id="f" x1="627.311" x2="1173.013" y1="939.974" y2="831.243" gradientUnits="userSpaceOnUse" xlink:href="#b"/><linearGradient id="h" x1="1012.995" x2="1410.989" y1="117.317" y2="1065.116" gradientUnits="userSpaceOnUse" xlink:href="#c"/></defs><g clip-path="url(#d)" transform="matrix(8.49547 0 0 -8.49547 -5416.366 472.243)"><path fill="#231f20" d="M755.057 42.025c0-.511-.369-.88-.869-.88-.498 0-.869.369-.869.88 0 .51.371.88.87.88.5 0 .868-.37.868-.88m.153 0a1.022 1.022 0 1 1-2.044.001 1.022 1.022 0 0 1 2.044-.001"/><path fill="#231f20" d="M754.377 42.263c0-.15-.125-.167-.246-.167h-.107v.335h.158c.143 0 .195-.069.195-.168m.254-.76l-.247.347a.575.575 0 0 1-.123.14c.178.023.28.12.28.273 0 .157-.11.3-.323.3h-.346v-1.06h.152v.474c.083 0 .115-.026.166-.103l.256-.37z"/></g><path fill="#0e0d0f" d="M256.664 47.419l-16.447 38.4h33.04zm50.31 76.502H289.16l-9.736-23.16H234.04l-9.872 23.16h-17.271l42.231-96.653h15.615z"/><path fill="#0e0d0f" d="M462.572 123.923h-17.008V43.581h-30.44V27.95h79.246l-6.533 15.631h-25.265z"/><path fill="#0e0d0f" d="M785.426 43.58h-51.398v24.407h32.92v15.097h-32.92v25.503h51.424v15.334h-68.398V27.948h68.372z"/><path fill="#0e0d0f" d="M905.93 123.928h-16.082V27.955h16.082z"/><g clip-path="url(#e)" transform="matrix(8.49547 0 0 -8.49547 -5416.366 472.243)"><path fill="#0e0d0f" d="M736.147 50.667c-1.154 0-2.135-.349-2.14-1.115-.006-.897.557-1.208 2.682-1.899 2.348-.772 3.595-1.557 3.582-3.467-.012-2.153-1.676-3.38-4.106-3.38-1.72 0-3.262.557-4.438 1.591l.732 1.772c1.067-.894 2.36-1.528 3.757-1.534 1.223-.006 2.093.59 2.093 1.47 0 .737-.426 1.227-2.487 1.88-2.364.775-3.792 1.583-3.78 3.508.014 1.915 1.81 3.004 4.068 2.993 2.26-.01 3.531-.837 3.724-.949l-.71-1.61c-.46.248-1.472.74-2.977.74"/><path fill="#0e0d0f" d="M746.636 46.829l5.057 5.469h-2.423l-5.074-5.47 5.576-5.83h2.456z"/><path fill="#0e0d0f" d="M701.87 42.629c-2.22 0-3.84 1.799-3.84 4.019s1.62 4.02 3.84 4.02c2.22 0 3.842-1.8 3.842-4.02 0-2.22-1.622-4.02-3.842-4.02m0 9.864a5.843 5.843 0 1 1 .002-11.686 5.843 5.843 0 0 1-.002 11.686"/><path fill="#0e0d0f" d="M714.09 42.808l-2.282-.002v7.65h2.29c2.22 0 3.833-1.573 3.833-3.792 0-2.22-1.623-3.856-3.841-3.856m0 9.489h-4.286V41h4.286c3.225 0 5.84 2.438 5.84 5.664 0 3.227-2.615 5.633-5.84 5.633"/><path fill="#0e0d0f" d="M684.241 46.006c0-3.368-1.976-5.184-4.842-5.184-2.865 0-4.84 1.816-4.84 5.184v6.29h2v-6.528c0-1.976 1.16-3.136 2.84-3.136 1.682 0 2.842 1.16 2.842 3.136v6.529h2z"/></g><path fill="url(#f)" d="M733.244 1068.398c-27.149 0-41.257-10.24-54.8-34.03L554.732 805.042c-8.525-16.435-8.661-21.909-8.661-33.75l194.429 8.571 44.5 44.5h390l-323.82 200.6c-15.784 9.335-75.815 43.436-117.936 43.436z" transform="translate(-94.564 -19.409) scale(.17409)"/><path fill="url(#g)" d="M785.179 824.362H617c-50.796 0-70.929-26.568-70.929-53.07 0-16.771 5.396-25.917 12.858-44.555l245.089-585.089 2.634-5.134 3.393-5.268 7.053-6.875 10.357-5.536 15-3.303 25.804.67 170.312 63.303-57.589 181.607z" transform="translate(-94.564 -19.409) scale(.17409)"/><path fill="url(#h)" fill-rule="evenodd" d="M1279 1068.362L892.143 152.541c-6.663-15.594-17.347-35.715-45-35.715-24.708 0-36.478 11.964-43.125 24.822 3.437-9.272 13.838-27.286 43.982-27.286h267c24.605 0 36.41 14.488 41.788 27.753L1548 1068.362z" transform="translate(-94.564 -19.409) scale(.17409)"/><g stroke-width="4.595"><path style="text-align:start" d="M558.634 200.184c6.551 7.66 7.122 18.937 4.312 28.25-2.391 8.422-10.79 14.138-19.438 13.9-8.601.518-17.487-4.433-20.315-12.828-3.066-8.926-2.764-19.632 2.62-27.63 7.217-10.201 24.47-10.645 32.82-1.692zm-.563 17.938c.294-7.25-2.683-15.936-10.3-18.212-6.872-2.265-15.42.68-18.138 7.715-2.727 7.132-2.769 15.704.818 22.55 5.072 9.406 20.808 9.035 25.3-.727 1.796-3.477 2.312-7.459 2.32-11.326zm-40.437-17.782h-16.625v41.032h-6.188V200.34h-16.625v-5.5h39.438v5.5zm-44 37.594c-9.61 4.632-21.568 6.388-31.227.969-9.433-5.357-11.567-17.512-9.607-27.356 1.57-9.22 9.805-16.38 19.027-17.24 7.443-1.05 15.074.585 21.776 3.877v7.344c-3.943-2.065-7.874-5.163-12.598-5.748-7.25-1.64-16.118.205-19.853 7.252-3.73 7.226-3.58 16.806 1.087 23.582 5.659 7.606 16.59 7.384 24.696 4.424 1.246-1.053.26-3.619.574-5.303v-6.332H455.04v-5.438h18.594v19.969z"/></g></svg>