<svg xmlns="http://www.w3.org/2000/svg" role="img" viewBox="3.98 3.98 260.78 60.78"><title>GTO logo</title><path d="M39.5 10.1C25.6 12.1 14.3 18 10.8 25c-2.5 4.9-2.4 14.2.3 19.6C15.8 54.3 31.8 60 54.8 60c28.5 0 45.2-9.8 44-26-.2-3.1.1-4.5 1-4.4.6.1 5.9.2 11.6.2l10.4.2.4 13c.2 8.9.7 13.3 1.6 14.2 1.8 1.8 18.6 1.8 20.4 0 .9-.9 1.4-5.3 1.6-14.2l.4-13h9.8c5.4 0 10.5-.3 11.4-.6 1.3-.5 1.6.2 1.6 4.2 0 10.6 3.7 16.1 14.2 20.9 16.6 7.6 47.5 7.3 63.5-.5 10.2-5 14.2-12 12.8-22.5-.9-7-4.2-11.5-11.1-15.2-10-5.3-17-6.7-33.9-6.7-16.7 0-23.6 1.3-33.7 6.4-6 3.1-6.3 3-7-1.5-.7-4.2-3.5-4.5-39.8-4.5-25.4 0-35.1.4-36.9 1.3-1.8.9-2.8 2.5-3.6 6.2-1 4.5-1.2 4.7-1.8 2.4-2-7.5-30.8-12.9-52.2-9.8zm33.7 8.4c3.2.8 7.7 2.5 10 3.7l4.3 2.3-2.9.3c-1.6.2-5.4-.8-8.6-2.2-13.8-6.2-44.2-4.2-46.6 3.1-.3 1-1.2 3.2-2 5-1.9 4.3-1.8 5.7 1.1 9.2 4 4.6 12.1 7.2 25 7.9 8.3.4 10.3.7 8.5 1.4-4.3 1.7-21.8.3-28.5-2.3-14.5-5.4-16.9-16.5-5.1-23.4 12.2-7.1 28.6-9 44.8-5zm160.8.2c15.5 4.3 23 13.9 16.9 21.7-1.2 1.5-3 2.6-4.5 2.6-2.4 0-2.4-.1-.9-3 4.1-7.9-1-15.2-13.2-19-12.1-3.7-33.6-2.4-40.7 2.6-2.3 1.6-5.7 10.8-4.9 13.2 2.4 6.8 11.3 10.2 28.3 11 13.5.6 12.6 1.9-1.5 2.1-18.8.2-32.5-6.7-32.5-16.5 0-4 7.2-10.6 14.5-13.3 11.2-4.2 26.5-4.7 38.5-1.4zm-66 .8c0 3 .2 2.9-4.6.9-4.7-2-20.2-1.7-22.7.5-1.5 1.1-1.7 3.6-1.7 16.4v15l-2.5-2.3c-2.4-2.3-2.5-2.8-2.5-15.1 0-16.3.4-15.9-16.8-15.9-6.8 0-12.1-.4-11.8-.9.3-.4 14.5-.9 31.6-.9l31-.1v2.4zm-74.3 5.7c-.3.8-.6.5-.6-.6-.1-1.1.2-1.7.5-1.3.3.3.4 1.2.1 1.9zm37.2 14c.1 7.9-.3 12.8-.9 12.8-.6 0-1-5.5-.9-14.8 0-9.1.4-13.9.9-12.7.5 1.1.9 7.7.9 14.7zm107.2-13.6c3.3 1.6 4.6 3.2 5.4 6.7.5 1.7.3 2.7-.4 2.7-.6 0-1.1-.8-1.1-1.8 0-2.1-4-6.2-8.5-8.6-2.6-1.5-2.7-1.6-.5-1 1.4.4 3.7 1.2 5.1 2zM75.5 25c.3.6-.1.7-.9.4-1.8-.7-2.1-1.4-.7-1.4.6 0 1.3.4 1.6 1zm154.3 6.8c4.9 2.6 4.7 3.6-1.2 6.3-4.8 2.2-22 2.6-27.1.6-6-2.4-7-3.3-5.6-5.1 4.1-4.9 25.6-6.1 33.9-1.8zM17.5 31c-1.2 1.9 1.5 8.6 4.7 11.7 1.8 1.7 5.1 4 7.3 5.2 4.8 2.6.7 1.7-4.6-1-5.4-2.7-8.9-7.3-8.9-11.8 0-2.1.3-4.1.7-4.4 1-1 1.5-.8.8.3zm27.7 3.9l-.4 5-4.6-1.7c-5.6-2.1-6-4.1-1.2-6.4 5.8-2.9 6.5-2.5 6.2 3.1zm135.2 5.5c.9 1.5 3.8 4.1 6.4 5.8 5.1 3.3 2 3-3.5-.4-4.8-2.9-7.3-6.5-7.3-10.8 0-5.1 1.4-6 2-1.2.4 2.2 1.4 5.2 2.4 6.6zM92 35c0 1.2-.7 3.4-1.5 5-1.3 2.5-2.2 3-5.1 3-3.2 0-3.4-.1-2.3-2.1.9-1.7.8-2.5-.4-3.7-1.3-1.2-3.9-1.5-13.2-1.3-6.3.1-12.1-.2-12.8-.6-.6-.4 6.2-1 15.3-1.3 9.1-.3 17.3-.7 18.3-.8 1.1-.1 1.7.5 1.7 1.8z"/></svg>