<svg xmlns="http://www.w3.org/2000/svg" role="img" viewBox="-2.05 -3.05 123.98 126.23"><title>GTS logo</title><path fill="#811D1C" stroke="#811D1C" d="M44.5 19l2 4L58 24.5l-5.5.5-5-1-4 2-3.5-1.5 1-3.5 3.5-2zm16 4l2.5.5-2.5.5v-1zm-30 1l-4 5 4-5zm4 4l4.5.5-4.5.5v-1zm58 0l1 2-1-2zm-63 1l-.5 1.5-.5 1.5-.5-1.5 1.5-1.5zm30 4l6 3h6l1.5-.5-1 5.5-4.5 1-1-2-1 2-4-3h-4q-1.7 2.8-7 2l-3-2-.5 5-5-2 .5-6 1 4 2.5-1.5-2-3.5 2.5-1 1 4 2-2 10-3zm16 7q4.8-.7 5.5 2.5-.7 2.3-4.5 1.5-4.5-2-1-4zm8 5l.5 1.5-1 3 1.5 2.5q-3-.5-2.5-4.5l1.5-2.5zm-55 5l-1 2 1-2zm7 2l3 4-3.5 1 1.5 3 3.5 2.5q.8 2.3-1.5 1.5l-1 2 2.5 1.5 1 8 1.5 1.5 4.5 2.5-6 3.5q1.1-2.7-1.5-2L34 71.5q1.8-6.7-1.5-8.5-2.2.8-1.5-1.5-2.2-1.2-1-6l2-1-.5 1.5 2.5-1.5-.5-1.5 2-1zm-15 2l1 2-1-2zm64 2l.5 2.5-2-1 1.5-1.5zm19 6l.5 2.5h-1l.5-2.5zm-19 13l1 2-2.5-.5 1.5-1.5zm3 2l2 1 1.5-.5-2 4.5h4v1.5L92 86q3.3-1.3 2 3.5l3-1-7 5.5-1-7-3.5 1-1.5-6.5 3.5-4.5zm-39 4l4.5 2 1 3.5-2.5.5-3.5-2.5.5-3.5zm-5 3l2.5 1.5-3 .5.5-2zm16 1l7.5 2q1.5 5.4-1.5 7l-1.5.5v8l1 2q-1.4 2.8-6 1.5l-2-5.5-1-10-2-2 5.5-3.5zm-19 17l2.5.5q-2.1 3.3-2.5-.5zm16 2l-1 2 1-2z"/><path fill="#893026" stroke="#893026" d="M50.5 15q3.3-1.1 2.5 1.5l-1 3 8 4-7.5.5q-1.2-2.3-6-1L45 21.5l-2-4 7.5-2.5zm33 6l4.5 3.5 1 3.5h-6.5q-1.2-2.7-5.5-2.5l7-.5-.5-4zm-21 1l3.5.5-3.5.5v-1zm6 0l1 2-1-2zm5 0l2 3q-2.2.8-1.5-1.5l-.5-1.5zm17 4l1 2-1-2zm-65 3l-3 4 3-4zm5 0l3.5.5-5 2.5 1.5-3zm-3 1l.5 2-3.5 2 3-4zm67 0l1 2-1-2zm-66 4l2.5 4.5-2 1q1.5-4.4-1.5-3.5l1-2zm-6 3l2.5.5-1.5 1.5-2.5-.5 1.5-1.5zm25 2q1.7 2.8 7 2 1.7-2.8 7-2l4 3 1-2 1 2 4.5-1-1 6-4.5 1 .5-1.5-1.5-2.5-9 1-3-2-.5 5-7-3.5 1.5-5.5zm-27 1l-.5 1.5q-.6 6.1 3 8l-2 .5 1 4.5-2-1-2-6q3.5-1.5 1-3-.7-3.7 1.5-4.5zm6 2l.5 1.5-2 1 1.5-2.5zm5 1l-1 2 1-2z"/><path fill="#893026" stroke="#893026" d="M44.5 46q3.4-.9 1.5 4.5L41.5 54l-.5-6 3.5-2zm-19 1l-1 2 1-2zm-1 6l-1 2 1-2zm15 2l5.5 3.5q.8 2.3-1.5 1.5L42 62.5l4 2.5q-1.7 8 3.5 10l2.5 1.5-4.5 3.5-6.5-4.5q.9-6.9-2.5-9.5l-1.5-.5 3-1.5-2.5-4-2.5-1.5q-.7-2.2 1.5-1.5l3-2zm65 7q2.3 1.8 1.5 6.5h-1l-.5-6.5zm-81 19h2l7.5 6.5-2.5-1.5-1.5.5 1 2.5 3 1.5-1.5-.5-1.5.5.5 1.5-4-6-3 2 1-3q-2.2.8-1.5-1.5-2.2-1.2.5-2.5zm43 0l3.5 1.5q-2 4.5-4 1l.5-2.5zm33 3l-1 2 1-2zm-16 1q2.6-.8 1.5 2.5l1.5-.5q4.2-1.3 2.5 3.5l2 4-2 .5q1.1 2.7-1.5 2v-2q-4.6 1.3-2.5-4.5L83.5 85z"/><path fill="#893026" stroke="#893026" d="M67 87q5-.8 7 2.5l1 3v2l-4 5 2 1q-3.1 1.8-1.5 3.5l-2-1-3 3-1.5-1.5L64 94l3-1.5V87zm13.5 1l2.5.5q-.7 4.3-6.5 3.5l2-3 2-1zm-46 3l1 2-1-2zm59 1l-1 2 1-2zm-66 2l1 2-1-2zm9 0l4 7 .5-1.5-1-3h1l2 5-4.5 1.5-1.5-5.5-.5-3.5zm-5 3l4.5 2 1 2.5-2.5-1.5-3-3z"/><path fill="#C8D0C8" stroke="#C8D0C8" d="M54.5 0l1.5.5L53.5 2l1-2zM59 0l3 1.5v8l-2.5.5-1-2L61 9V5h-1.5q-2.7-1.3-.5-2.5V0zM45.5 1l2.5.5-.5 2.5L44 2.5 45.5 1zm21 0Q70.9-.5 70 2.5L68.5 2q-3 .5-2-1zm-17 1L51 7.5h-1L49.5 2zm22 0Q75.9.5 75 3.5l-2 1 .5-1.5q-3 .5-2-1zm-17 1l3 4-1.5-.5 1 3h-1q.7-2.6-2-1.5l.5-5zm-12 1l.5 3.5h-1l.5-3.5zm23 2l.5 2.5h-1l.5-2.5zm-18 1l1 2-1-2zm42 1l4.5 3.5-.5 2.5-2-1-3 4 .5-1.5 3-5.5-2.5-2zm-20 1l-1 2-1.5-.5L69.5 9zm3 0l-1 2 1-2z"/><path fill="#C8D0C8" stroke="#C8D0C8" d="M87.5 10l1.5 2.5-3.5 4.5-.5-1.5 3-4-.5-1.5zm-62 2l2 5 2.5.5-2.5.5q-3.8-1.3-2-6zm2 1l1 2-1-2zm3 0l1.5 2.5-2-1 .5-1.5zm19 1l2.5.5-2.5.5v-1zm17 0l2.5.5-2.5.5v-1zm-22 1l2.5.5-4.5 1.5v-1l2-1zm27 0l5.5 1.5-2.5.5-3-1v-1zm-51 1l4.5 3.5-3.5-2.5-1-1zm19 1l1.5.5-6.5 3.5 1-2 4-2zm39 0q8.8 3.3 14.5 9.5l-1.5-.5-12-7-1-2zm-60 1l1 2-1-2zm-1 3l2.5 3.5h-1L17.5 21zm15 0l-1 2 1-2zm61 1l2.5 1.5-1.5.5-1-2zm11 0l2.5 1.5-2.5 3.5 1.5-2.5q.8-2.2-1.5-1.5v-1zm-93 1l2.5.5-1 2 6 3-2.5.5-6.5-4 1.5 3 5.5 3.5-1.5.5-4-3-2 1 .5-1.5-.5-1.5-1.5.5 3.5-4.5zm17 1l-5 6 5-6zm66 4l1 2-1-2zm13 1l1 2-1-2zm-85 2l-3 4 3-4zm74 0l5.5 7.5-2-1-3.5-6.5zm6 0l1 3 1.5-.5q-1.5 3-3 0l.5-2.5zm-84 5l-.5 1.5-2.5 5.5-.5-1.5 3.5-5.5zm92 1l1 2q-2.8.7-1-2zm-5.5 2l2 .5-2 1V39zm7.5 1l-1 2 1-2zm-6 2l2.5 1.5-1.5-.5-1-1zm-103 1l.5 2 2-.5-.5-1.5q2.8 1.3.5 2.5L5.5 47 3 46l.5-3zm5 2q4.1 1.9 4.5 7.5h-1l-.5-2.5-1.5.5 1-2-1.5.5-4.5-.5 5-1L8.5 45zm97 3l1 2 5-1v1l-5 1-1-3zm6.5 3q3-1 2 2-3 1-2-2zm-5 2l2 .5-1 2.5-2-.5 1-2.5zm8.5 0l.5 2-2-.5 1.5-1.5zm-114 3l5 1 1.5-.5q-1.2 2.8-2.5.5-5 1-4-1zm73 1l4.5 5.5-6.5.5q-1.7-3.7-3.5-.5L66.5 68l-1.5.5 3 1.5 2 6-7-1V63.5l-2.5-.5-1.5.5q-2.1-5.9 2.5-4.5l1.5-.5-1 2 2.5 1.5 10-5zM68 61l-3 3q-1 3 2 2l1-2v-3zm43.5 0l4.5.5-6.5 1.5v-1l2-1zm-109 2L4 65.5l-2 1v-2l.5-1.5zm113 0l.5 3-7-.5 6-.5.5-2zm-37 1l3.5 2.5-2.5 3.5-1-6zm28 3l.5 2.5h-1l.5-2.5zm-94 1l.5 2.5h-1l.5-2.5zm106 1l.5 2.5-2.5 1.5v-1q2.9.7 2-3zm-13 2l.5 2.5h-1l.5-2.5zm-103 1l.5 2.5H2l.5-2.5zm11 0l.5 2.5h-1l.5-2.5zm62 1l2.5.5-2.5 3.5-4.5-.5 4.5-3.5zm36 2l2.5 1.5-1.5-.5-1.5.5.5 1.5h-2q-2.2.8-1.5-1.5 1.8 1.6 3.5-1.5zm-8 3l.5 1.5-3.5 5.5.5-1.5 2.5-5.5zm9 1l-1 2-2.5-.5 3.5-1.5zm-96 2l2.5 4.5-2-1-.5-3.5zm-11 1l-1 2-1.5-.5L5.5 82zm103 2l2.5 1.5-1.5-.5-1-1zm-105 1l2.5.5q-2.1 3.3-2.5-.5zm96 1l-.5 1.5-4.5 5.5 3.5-4.5 1.5-2.5zm-80 1l1 2-1-2zm-11 2l2.5.5q-.5 3-4.5 2.5v-1q2.5.7 2-2zm93 0l2.5.5-2.5.5v-1zm-80 1l7 8-7-8zm78 1h2l2.5 2.5-2.5-1.5-2.5 1.5.5-2.5zm-83 3l-1 2 1-2zm75 1l-3 4 3-4zM11 97l2 .5q-2.2 1.2.5 2.5l2.5-1.5-1 2.5q-3.7 1.5-3-1.5L11 97zm19.5 1l2 3-2-3zm67 0q3 1.5 0 3-3-1.5 0-3z"/><path fill="#C8D0C8" stroke="#C8D0C8" d="M100.5 98l.5 2.5-1.5 2.5-.5-1.5 1.5-3.5zm-14 1l-2 3q-4.5 4.5-13 5v-1q10.3-.7 15-7zm7 1l6.5 5.5-1.5.5-5-6zm-59 1l6.5 3.5-1.5.5q-4.6-1.2-5-4zm-6.5 3l2.5 1 1.5-.5-1.5 2.5-2.5-1v-2zm52.5 2l1 2-1-2zm-54 1l1.5 2.5-2-1 .5-1.5zm22 0l2.5.5-2.5.5v-1zm-11 1l.5 2.5h-1l.5-2.5zm44 1l2.5.5-2.5.5v-1zm-46 1l-.5 1.5-.5 1.5-.5-1.5 1.5-1.5zm5 0l-1 2 1-2zm5.5 0l2 .5-1.5 2.5-.5-3zm39.5 0l.5 3.5-2.5 1.5-2-1-1.5.5q-.7-2.2 1.5-1.5l2-1v2H85l.5-4zm-30 1q2.3-.7 1.5 1.5l-1.5 3.5-.5-2.5.5-2.5zm-10 3l2.5.5-2.5.5v-1zm-2 1l2.5 1.5-1.5.5-1-2zm16.5 0l2 .5-1.5 2.5-.5-3zm5.5 1l-1 2 1-2zm-10 1l.5 1.5-3 2 2.5-3.5z"/><path fill="#FFF" stroke="#FFF" d="M0 0h52.5l.5 2.5 1 5-1 2.5 5.5-1 3.5 1V0h3.5L65 1.5l1 3-1 4 1 2.5h7V6.5q2.8-1.1 2-4.5L67 .5l52-.5v68.5l-1.5.5-2 1-6.5-2q-2.3 6.4 5.5 4l4.5 1v48H55.5l.5-1.5 1-3-1-3 1-2.5h-4v9.5l-.5.5H0l.5-57 .5 3h7v-2.5L7 60l-7 1V0zm44 1q1 3-2 2l-1 3 1 4 4 1 5-1-1-5V1h-6zm45 6l-2 2 1 3-1 2H45l-9 4-9 7-1-7 3 1 4-3-3-6-3 2q-3-1-2 2v5l-4-3-2 1q1-5-3-3v2q1 2-1 1v-1l-1-1h-2l1 2-1 5-5 7 3 1 2-1v4l2-1-2 3h2q1-2 2 1l-1 3-1-3-2 2v10l-2-1q1-3-3-2v-2H3l-1 7 3-1q5-2 4 2 1 2 3 0v28l3 3v4q-3-1-1-2l-3-7q-5-1-7 3l1 2q1 2-2 1l2 4q2 1 1-2l6-2v3l-4 2q-5 2-1 4l3-1q2 1 1-1l2 1-1 5-2 2 4 9v1h1v-5h-2l2-1 1-2v8h3V98q4-2 0-4l1-5 5 7v12l6 4q4-1 3-7l-4-2-3 4h-1l1-10q7 8 19 11h31l5 8 4-1v-5h-1l1-2h21V89h4l1-1-1-2v-2h-4v-4l6 1 1-4-4-4-2 1-1-18 9-1-2-7-2 1q-6 2-5-1l7-3-2-8q-3-1-2 2-4 2-3-2l3-2q1-5-3-6V14H94l1-2-6-5zM1 52v6l3-1 3 1h1v-5l-2 1q-3 1-2-2H1zm114 6l-6 1v7h7v-7l-1-1zM2 71v5q2 3 4-1 5 2 3-4l-2 1-5-1zm35 35v5l-1-1-2 3 5 1q3-1 2-5l-4-3zm8 3l-3 7 6 1 2-5-5-3zm26 1l-3 1 1 7 8-2-2-4q-1-3-4-2zm-10 1l1 3q1 2-2 1v3h6l-1-2 1-3v-2h-5z"/><path fill="#FFF" stroke="#FFF" d="M46.5 4L49 5.5 47 6l1 2.5-2-1-1-2L46.5 4zm23 0q2.3-.7 1.5 1.5L69.5 9 68 5.5 69.5 4zm-55 16q3-.5 1.5 6.5h-1l-.5-6.5zm10 2l.5 4.5-5.5 6.5-.5-7.5q2.8 1.9 5.5-3.5zm-10 68l1.5 4.5-2.5 1.5.5-1.5.5-4.5z"/><path fill="#E16944" stroke="#E16944" d="M64 14l4 1-1 6-5-1 2-6zm5.5 34H71v4h2.5l3-1L84 62q-5.5 1.3-7-2.5h2q.9-3-3.5-1.5h-2l-10 4-1.5-3q-4.9-1.8-3 4.5l1.5-.5H63v11.5l1.5.5q1.5 3.5 3 1l3.5 2.5-.5 3.5L58 79l-.5-5-4.5 2-1-13.5-1.5-1.5-3.5-2.5 5-2.5v-6h2.5l5 2 10-4zM65 51v3l4-1-4-2z"/><path fill="#E16944" stroke="#E16944" d="M70.5 61l2 3-3 1-.5-2.5 1.5-1.5zm5 2l3.5.5-1 2.5q-2.7 1.1-2-1.5l-.5-1.5zm-8 4l.5 3-3-1.5 2.5-1.5zm10 3l1 2-2.5-.5 1.5-1.5zM69 72l4 1.5-3 2-1-3.5zm6.5 6q5.4-1.9 4.5 1.5L78 83q-3.8 1-5-1.5l2.5-3.5zm4 21l3.5.5-4.5 1.5 1-2z"/><path fill="#2E2228" stroke="#2E2228" d="M55.5 2L58 3.5l3 5-3-2L55.5 2zm12 0l.5 4.5-1 2 .5 1.5L66 6.5 67.5 2zm-23 1L44 4.5q-.7 4.3 2 5l-2 .5-1-5.5L44.5 3zm28 0l.5 3.5-1.5 3.5-.5-3.5L72.5 3zm-24 3q3-.9 1.5 3.5h-1L48.5 6zm42 4l.5 1.5-3 5.5-2-.5 4.5-6.5zM26 14h2q-1.1 2.7 1.5 2v1L26 15.5V14zm-5.5 3l4.5 3.5-1.5.5q-2.3-5.3-4.5-1.5l3 4-1.5.5-4.5-5.5 1.5.5 3-2zm54 1l5.5 2q1.3 3-2.5 2L74 19.5l.5-1.5zm23 0l.5 2 2 .5-1.5.5-1-1-3.5 2.5 3.5-4.5zm6 7l.5 2-4.5 2v-1l4-3zm-92 1l5.5 3-.5 2-5-5zm91.5 6l2 .5-2 1V32zm5.5 0l.5 1.5-4.5 2.5 1-2 3-2zM25 36q6-2.2 4 4.5L24.5 44q-2.2-.7-1.5-4.5l2-3.5zm85.5 3q2.6-.7 1.5 2l-6 1 .5-2h2l2-1zm2 3l-2 3-2 1-.5-2 4.5-2zm-109 4l3 1q1.3-2.2 2.5.5L3 48l.5-2zm107 4h2l2.5 1.5q1.3 3.8-2.5 2.5l-2-3-1 4-.5-3.5 1.5-1.5zm1.5 1q-1 3 2 2 1-3-2-2zm-5.5 1l-.5 1.5-.5 3.5-.5-3.5 1.5-1.5zM2 54l5 1.5-5 .5v-2zm10.5 2l.5 7.5h-1l.5-7.5zm93 2l1.5 3.5-2-1 .5-2.5zm5 2l4.5.5-4.5.5v-1zm-105 1q2.6-.7 1.5 2H2v1.5l.5 1.5L1 62l4.5-1zm1 3l.5 2-3-.5L6.5 64zm104 0l4.5.5-4.5.5v-1zM73 65q2.7-1.1 2 1.5l1 3q-.5 3-4.5 2.5L70 70.5l3-3V65zm37.5 4q1.3 2.2 6 1l1.5 1.5-2.5.5-5.5-1 .5-2zm-103 3l.5 2-4.5 1-.5-2 4.5-1zm100 5l4.5 2.5-2.5.5-2.5-1 .5-2zm-100 1l3.5 1.5-1.5-.5-4 2 2-3zm4 3l-1 2-6 2v-1l7-3zm93 3l5.5 1q1.1 2.7-1.5 2l-4-2v-1zm-92 2l1.5.5L9.5 90 9 88.5l3.5-2.5zm11 2l9.5 5.5q1.7 4.8-2.5 3.5L23 90.5l.5-2.5zm78 2l3.5 1.5-1.5.5-2-1-1.5.5 1.5-1.5zm1 3l2.5 1.5-3 .5.5-2zm-85 1l1.5.5-5.5 4.5 4-5zm79 2l3.5 2.5-1.5-.5-2-2zm-3 3l4 3 2.5-1.5-1 3 .5 1.5-6-6zm-63 5q2.3.8 1.5 4.5l-2 1 1-4-.5-1.5zm-3.5 3l2 .5-2 1V107zm10.5 0q4.2 1.7 1.5 3.5l-.5 1.5-1-5zm42 2l5.5 2.5-.5 1.5-5.5-2 .5-2zm-35 1q2.8 1.2.5 2.5l-.5 3.5v-6zm-9 1l1 2-1-2zm12 0q2.3-.7 1.5 1.5l-1.5-1.5zm22 0l1.5 5.5h-1l-.5-5.5zm3 0q2.3-.7 1.5 1.5l1 3h-1l-1.5-4.5zm-18 1l.5 6-2-.5 1.5-5.5zm8 0q3.4-.9 1.5 4.5h-1l-.5-4.5z"/><path fill="#AE3D1D" stroke="#AE3D1D" d="M68.5 21l5.5 2q-1.2 3 2.5 2l5.5 2.5-4.5.5-7-4-2-3zM34 29l5 .5q-3.8 4.7-2 15l3.5-2.5 6.5 3.5-.5 4.5-.5-4-5 2 .5 6 4-3-1 2-4 2-4.5-3.5-.5-5.5-9 5-4 4Q20 53.8 21 50l2.5-1 2.5 1.5q-.7-3.7 1.5-4.5l4.5-2.5 2-4-1-3 2-3-1-4.5zm38.5 12l9.5 8.5 4 5-4 2 2.5 3.5q2.6-.8 1.5 2.5 3 1 2 6l-6 9 4 1q-3.6 1.4-3 7l2 6.5-4.5 1-.5-1.5 2.5-3.5-8.5 4-1.5-4-9-3h-6L55 86.5 52.5 82 48 79.5l4.5-3.5 7 4 6.5 1 1.5 4 2-3-2.5-.5 2.5-.5 1.5.5-1-4 1.5-.5 3.5 1.5-2 3q1.2 2.5 5 1.5l2-5-3-.5 2-3.5q3 1.3 2-2.5l3-5-3-4.5q3.8 1.5 3-1.5L76.5 51 71 47.5l1.5-6.5z"/><path fill="#AE3D1D" stroke="#AE3D1D" d="M77.5 58q2.3-.7 1.5 1.5L77.5 58zm-48 28l2.5 1.5q.7 2.6-2 1.5l-.5-3zm5 2l4.5 2 1 4.5v2q.7 2.6-2 1.5v-4q-2.7 1.1-2-1.5-3.1-1.1-1.5-4.5zM85 95l3 .5-1 2.5q-3.3 1.1-2-3z"/><path fill="#AE3D1D" stroke="#AE3D1D" d="M39.5 99q2.3-.7 1.5 1.5L39.5 99zm30 4l2 1 1.5-.5q-1.7 3.3-6.5 3.5l3-4z"/><path fill="#671413" stroke="#671413" d="M41.5 18q3.3-1.1 2.5 1.5L41 21l-1.5 4Q35 24 34 26.5q1.3 3.8-2.5 2.5l1.5-2.5q.8-2.2-1.5-1.5l-1.5.5L41.5 18zm6 6H49q-1.5 3.7 1.5 3l5-2h2l5-1 3.5 2.5-4 1 5 2.5q-1.5-3.8 1.5-3l3.5 2.5-6 1.5-.5 4q-2-3-8-2-1.4 2.6-6 2L48 32.5l4-3-3-.5-1.5-3-1.5-.5 1.5-1.5zm37 4q3.8-1 2.5 2l-2.5-2zm-59 2L23 33.5v3l-4 5-1 7 1 3-2 3q3.2 2.5 2 8.5l2.5-1 2.5 3.5-3.5 1.5-1.5-.5.5 3.5 3.5-1q-1 3 2 2-1.2-4.6 1.5-6 1.1 2.8 4.5 2-1.5 3.7 1.5 3 3.9 2.1 3.5 8.5l-1.5-.5-4-1 .5 1.5-.5 2.5-3.5-3.5q1-4.5-1.5-5.5l-4 2-1.5-.5v6l2 2 1 7-2-1-4-6-4-14v-15l4-12L25.5 30zm68 0l4.5 4.5 5 9q2.9 4.6 2 13h-2q.8 2.6-2.5 1.5-1.3 2.3-6 1L87 48.5V44l-4-1.5L84 32h8.5l1-2zm-49 1l2.5 1.5-2.5 1.5v-3z"/><path fill="#671413" stroke="#671413" d="M99.5 60l1.5 3.5-1.5 3.5q-4.2-1.7-1.5-3.5l1.5-3.5z"/><path fill="#671413" stroke="#671413" d="M95.5 62l.5 5q-3 1.3-2-2.5l1.5-2.5zm5 7q3.3-1.1 2.5 1.5h2l-5 13-5.5 6.5-.5-4q-2.7 1.1-2-1.5l1-2.5-3-.5L96.5 70l4-1zm-67 12q3.8-1.2 2.5 2.5L33.5 81zm20 9l.5 2-3-.5 2.5-1.5zM46 95l3 1.5-3 .5v-2zm5 1q4.7-1 6 2.5l2 5-2.5.5-1-3h-8l-.5-2 4 1v-4zm-3.5 9h5q-1 3 4 2v1l-7-1-2-2z"/><path fill="#951514" stroke="#951514" d="M67.5 22l-.5 1.5q.8 2.3-1.5 1.5L63 23.5l4.5-1.5zM50 24l2 .5-2 1V24zm-10 1l7 2.5-4 3L42 42l3 1.5-1.5-.5-3-1-3.5 2.5q-1.5-6 1.5-7.5 2.6.7 1.5-2-3.7 1.5-3-1.5l3-8.5zm30.5 0q4.4-1.5 3.5 1.5l7.5 4.5.5-2 4 2.5-3 .5v4h-1.5q-1.7-3.5-7.5-2l1.5 3 3 2 3-1 1.5 3.5-1 2 1 3-1.5 2.5-9.5-8.5 1-11-4-3 1.5-1.5zM76 40q-4 2 1 4 3 1 4-1-1-4-5-3zm-40.5 6q-.9 5.4 2 7l2.5 1.5-1.5.5-3-3-1 1-9.5 5-.5 6-4.5-3-1-3.5 6-4 1-2q-3.7-1.7-.5-3.5l1.5 5 2.5 1 .5-5 5.5-3zm47 4l8 10 4.5.5-2 6 2 3-6 4-4.5 7.5 1-3-3.5-.5 4-1-1-3q3.7-2.2 3-9-2.7-1.1-2-4.5l-2-.5 1-3-1.5.5-1.5-.5 4-2-3.5-4.5zM23 67q3-1.2 2 2.5l-2-1V67zm-.5 8l3.5 2.5-1.5 2.5-2.5-1.5-1-2 1.5-1.5zm5 4l3 4-2 1q-2.7-1.2-1-5zm19 1l7.5 3.5 1.5 3.5 3-2-1 2L45 93.5q-1.1 8.1 4 10l-4.5.5-2.5-4.5 2-.5q1.1-2.7-1.5-2L39 95.5l1-3-1-2.5-5-2q1 3-2 2l1-3.5-1-3.5 3.5 2h3l8-5zm2.5 1l-1 4 4 2h2l-1-4-4-2zm-5 3l-1 4 4 2h1v-4l-4-2zm39.5-2l.5 2.5h-1l.5-2.5zm-22 3l2.5.5-2.5.5v-1zm3 20q2.6-.7 1.5 2l-6-.5 4.5-1.5z"/><path fill="#B04540" stroke="#B04540" d="M54.5 14h9l.5 1.5-2 4.5 5 1 .5-2 3.5 2.5-1.5.5h-2q-5.5-1.5-7 1L52 19.5l2.5-5.5zm19 7l-1 2 1-2zm14 2l2 3-2-3zm-59 2l-3 4 3-4zm25 18q2 3 8 2l4-1 1.5 3h3.5l4.5 3.5-4 1.5v-4h-1.5l-12 4-5.5-2v5.5l-1.5.5-3.5 2.5 5 4L53 76l4.5-2 .5 4.5-1.5-.5L46 71.5q1.5-7-1.5-6.5L42 61.5l3-1.5-2.5-4-1.5-.5 5-4 1.5-6.5 5.5 3 .5-5z"/><path fill="#B04540" stroke="#B04540" d="M65 51l4 1.5-4 1.5v-3zm9.5 12l1 2-1-2zm7 1l2.5 3.5-2 1 1-2-1.5-2.5zm-4 5l1 2-2.5-.5 1.5-1.5zm1 6l-2 3 2-3zm18 14l-2 3 2-3zm-21 3l5 1 4.5-1v5.5l1.5.5 1.5-.5-7.5 3.5v-1l2.5-.5-3.5-.5-3 5-5 2 1-3-1.5-.5 1.5-2.5-1.5-.5 4-5q-2.2-1.2.5-2.5zm16 2l-1 2 1-2z"/><path fill="#FCFCFC" stroke="#FCFCFC" d="M56.5 0q3.8-1.3 2.5 2.5l.5 1.5L58 1l-1.5-1zm10 0L66 1.5 65.5 3 65 1.5 66.5 0zM70 1l2 .5L71 4l-2-.5L70 1zm4.5 3l-1 2 1-2zm-17 3l.5 2.5h-1l.5-2.5zm31 0l-1 2 1-2zm5 3l1 2-1-2zm-81 4l2 1 4.5-1v4h-1.5l-2-3-1.5 1.5.5 2.5 2.5 1.5q3 2.3 2 7.5h-3v-7.5l-1.5-.5.5 1.5-.5 5.5q-2.7-1.2-.5-2.5.8-2.6-2.5-1.5l-1.5.5 2-2 1-5-.5-2.5zm32 0l4.5.5q-6.9.1-10.5 3.5l1-2 5-2zm25 0l16.5.5-1 2.5 3.5 2 1.5-5h17v8.5l-1.5-.5-5 4-2.5 1.5 1 2.5 7.5-5 .5 5-5 1 2 6 2.5-1 1.5 3.5-1.5-.5q-2.2-.7-1.5 1.5l3 6-1.5 3.5q-3.6-13.4-12-22-2.2.8-1.5-1.5L86.5 21l-10-5-7-1v-1zM96 17v2l-3 1 2 4q2 1 1-1 1-3 3-1 2 1 1-2l-4-3zm-63.5-2l-1 2 1-2z"/><path fill="#FCFCFC" stroke="#FCFCFC" d="M25.5 16q2.8 1.3.5 2.5l.5 6.5 10-7v1L23 29.5l-6 8-4 12-2.5 2.5-1-2q1.3 2.3 2.5-.5v-12l1.5-1.5 1 3 1.5-3.5q-1.2-2.7-2.5-.5l-1.5-.5v-2l.5-3.5 4.5 3 1.5-3 1 4 5.5-6.5.5-10.5zm-2 6l-1 2 1-2zm88 32l-1 2 1-2zM.5 61l.5 2.5H0L.5 61zm67 0l.5 2.5-1 2.5q-3 1.3-2-2.5l2.5-2.5zm-60 3l.5 2.5H7l.5-2.5zm99 6l.5 6.5-1 3 1 3.5q-3.8-1.5-3 1.5l-.5 1.5 4.5 1.5-1 1V108H85.5l-3 1v-1q2.6.7 1.5-2l-6 1-.5 2-8.5-1.5 12.5-3.5L99 88.5q5.7-7.3 7.5-18.5zM102 89q-4 1-3 5 3 1 2-1h1l-1 2 4 1 1-6-4-1zm-7 7q1 3-2 2v3l6 5 2-1-1-2 1-2-1-3v-2h-5zM12.5 71q3.5 18 16 27l8.5 5.5-1.5.5-9-7-1 11-.5-12.5-5.5-6.5-1 4-2.5-1.5 1 2-2-1-.5-2.5-1.5 5.5.5 1.5q-3.3-1.1-2.5 1.5l.5 1.5-1.5-2.5 2-2 1-5q-2.2-1.2.5-2.5l2.5 1q1.1-2.7-1.5-2l.5-1.5q1-4.5-1.5-5.5l-.5 1.5 1 2-2 1-1-5 1.5-8.5zm96 2l2.5 1.5-1.5-.5-1-1zm-106 2l2.5.5q-2.1 3.3-2.5-.5zm109 11l.5 1.5-2 1 1.5-2.5z"/><path fill="#FCFCFC" stroke="#FCFCFC" d="M20.5 95L19 97.5v10l-3 .5v-7.5l-1-1 5.5-4.5zm76 3l2 3-2-3zM12 101l3 .5-2 1 2 .5v5h-1.5l-1.5-2.5V101zm26.5 3l9.5 3.5-2.5.5-6-2-1-2zm-5 1l.5 3.5h-1l.5-3.5zm6 2l1.5 2.5h-1l-.5-2.5zm5 2l-1 2 1-2zm-13 1l-1 2 1-2zm17 0l1 2-1-2zm-8 1l-2 3 2-3zm9 2l-1 2 1-2zm23 1l1.5 2.5-2 .5.5-3zm3 0l1 2-1-2zm6 1l2.5.5-2.5.5v-1zm-26 4l-1 2 1-2z"/><path fill="#7B1514" stroke="#7B1514" d="M67 23l2 .5-.5 1.5 2-1-1 4-2.5-1q1.5 3.8-1.5 3L62 27.5l4-1-3-2 1.5-.5 2.5 1v-2zm-17.5 1l1 2 3-1v1L49 27q-1.2 3 2.5 2l-1 2-2.5 1.5 4 3-4.5 2.5-1-4-2.5 1 2 3.5-2.5 1.5-1.5-5.5 2.5-5.5 2.5-1.5-2-.5.5-2 3 2 1-3zM45 31v3l2-1-2-2zm-13.5-6q2.3-.7 1.5 1.5L23.5 34l2.5-3.5 3.5-4.5 2-1zm4 0q5.4-1.9 4.5 1.5-1.4 2.8-6 1.5l1.5-3zm53 0l2 4q1.3-2.2 2.5.5V32h-6.5L82 29l-.5 2-1-2 3-1 3.5 2v-2q2.7 1.1 2-1.5l-.5-1.5z"/><path fill="#7B1514" stroke="#7B1514" d="M71.5 28q2.8 1.3 1.5 6.5-1.5 3-7.5 1.5L62 33.5l1.5.5 2 1 .5-4 6-1.5-.5-1.5z"/><path fill="#7B1514" stroke="#7B1514" d="M83.5 32l.5 4.5-1.5 2.5-3-1q-1.5 2.5-3-1L74 35.5q-.6-2.7 5.5-1.5l3.5 2 .5-4zM38 35q3-1 2 2-3 1-2-2zm44.5 7q1.1 2.8 4.5 2v4.5L94.5 59l8.5-1 .5-2q2.8 1.4 1.5 6l-3 1.5q-.8 3 3 1.5v4.5l-2 1q.8-2.6-2.5-1.5l-4 1-2.5 2.5-4.5 9.5-.5-1.5 2-3-1.5.5q-2.6.8-1.5-2.5l3.5-4.5 3.5-1.5-2-5 2-4q-5.5.5-7-3l-5-10 1-2-1.5-3.5zM100 60l-2 4q-3 1 2 3l1-3-1-4zm-4 2l-2 3q-1 3 2 2v-5zM18.5 44l.5 2.5h-1l.5-2.5zm11 6l.5 3.5-1.5-.5-1.5-.5 2.5-2.5zm-10 1l.5 2.5 1 2-3 1.5-1-3.5 2.5-2.5zm13 3l1.5.5-.5 2.5-2.5-1.5 1.5-1.5z"/><path fill="#7B1514" stroke="#7B1514" d="M28.5 56q3.4-.9 1.5 4.5l1 2.5 3 1.5-.5 6.5-2.5-1q1.7-4.1-2.5-3-2-4-4 0-2.2-.7-1.5 1.5l1.5 2.5q-2.6.7-1.5-2h-2.5l-1.5.5.5-3.5 3 1 1.5-2.5q-1.8-4.2-3.5-1.5-3 .9-1.5-3.5h1q-.7 2.3 1.5 1.5l3.5 2.5q-1.2-6.1 1.5-5.5l2-2zm-4 16l2.5 1.5Q26 80 30.5 81l.5-2.5-.5-1.5 5 2 1-2 3 4q3-.8 1.5 3l-5.5 1-3.5-2-.5 3-1-2-1.5.5q-.7-2.2 1.5-1.5l-3-4-.5 2q-2.7 1.1-2-1.5l1-2-3.5-2.5q-2.7 1.3-.5 2.5l1 4-3-2 .5-6.5 2 1 2-2zm9.5 9l2 3q1-4-2-3zm-11.5 2l.5 2 2 .5-3 .5.5-3zM43 86q7.1-2.4 5 4l-5-2.5V86zm10.5 3l2.5 1.5 1 7-2.5-1.5H51v4h-1.5L47 99l.5 2h8v3l-1.5.5q1.8 3.3 3.5-.5 2.3-.7 1.5 1.5l1.5 2.5-7.5-1-.5-2h-8l-2.5-1.5 1.5-.5 5 1-2.5-3.5-1-7 8.5-4.5zm.5 1l-3 2h3v-2zm-8 5v2h3l-3-2z"/><path fill="#7B1514" stroke="#7B1514" d="M41.5 96l2.5 1q1.1 2.7-1.5 2l-1-3zm-3 5l1 2-1-2z"/><path fill="#6E756F" stroke="#6E756F" d="M54 1l4 1.5-1.5-.5-1.5.5L57.5 5h2q2.3-.7 1.5 1.5L58.5 5l-1 1L54 2.5V1zm-6.5 1q2.3-.7 1.5 1.5L47.5 2zm19 0l.5 3.5h-1l.5-3.5zm-23 1l2.5.5-1 4 4 2-3.5 1.5-1-3-1.5.5 1-4-.5-1.5zm28 0l.5 2.5h-1l.5-2.5zm-24 3l1 2-1-2zm11 1l1 2-1-2zm9 0l2 3 1-2 .5 3-3.5-2-1.5.5L67.5 7zm-13 1q2.3-.7 1.5 1.5L54.5 8zm34 0l2 4 1-2 .5 1.5q-1.5 3-3 0L88.5 9l-1.5.5L88.5 8zm-61 3l3.5 1.5-2.5 1.5-2.5-.5 1.5-2.5zm60 3l1 2-2.5-.5 1.5-1.5zM69 15l12 4 .5 2 1.5-.5.5 1.5 1.5-.5-1 3.5h-7.5L74 22.5l-.5-2.5-.5 2-6-3.5 2-3.5zm6 3l-1 2 4 2q3 1 2-2l-5-2zm-60-1l3 1.5h-3V17zm4.5 0l2.5.5-1 1 2.5 3.5-4-5zm77 0l.5 1.5-4 3 3.5-4.5zm2 1l.5 1.5-2 1 1.5-2.5zm-79 2l2 3-2-3zm11 3l-1 2 1-2zm74 0l1.5.5-1.5 2.5q-1.2-2.3-2.5.5 2.3 1.3-.5 2.5L99 27.5l5.5-4.5zM10 25l3 1.5-5 2 2-3.5zm81.5 1l4 5-4-5zm-78 2l2.5.5-.5 2.5-2-3zm11 1l-1 2 1-2zm83 1l1 2q-2.2-.7-1.5 1.5l-2.5-1.5-1.5-.5 1.5-.5q1.5 2.5 3-1zm-81 2h7l.5 1.5q-2.8 2.7-2 9L29.5 45 22 49l-2-7.5 2.5-3.5.5 4.5-.5 1.5 4.5 1v-2.5l4-5-2.5-3.5-5 3 1.5-2.5 1.5-2.5zm70 0l1 2-1-2zm-76 2l-1 2 1-2zm86 1l-1 2 1-2zm-6 3l1 2-1-2zm7 2l1 2-1-2zm5 1l.5 2.5-1.5 1.5-.5-2.5 1.5-1.5zm-108 2l6.5 5.5-2 1q2.7-1.7-1.5-3.5l-1.5.5q.7-2.6-2-1.5l.5-2zm100 3l.5 2.5h-1l.5-2.5zm-102 2l2.5.5-2.5.5v-1zm110 1l2.5 1.5-1.5-.5-2.5 1.5 1 2-2 1-.5-3.5-3.5 1.5 1 2h-1l-1-4 2.5-.5 3 1 2-2zm-109 3l.5 2h4v1.5l-2 1 .5-1.5L2 54l-.5 2-.5-1.5L3.5 52zm103 4l.5 4.5v2l-.5 4.5-1.5-5.5 1.5-5.5zm4 3q4.5-1 5.5 1.5l-1.5-.5-4.5.5.5 1.5q-2.2.8-1.5-1.5l1.5-1.5zm-33 1l5.5 7.5-2 4.5q-3-1.2-2 2.5-.5 4-5.5 3.5v-1l3.5-1.5 1-2-2.5-.5-6 4v-1l3.5-2.5-.5-1.5 3.5-2.5-1-4.5q-3-1.2-2 2.5-4.2 2.3-2.5 4.5H68v-7l5.5-2 4 3 1.5-.5.5 4.5 2.5-3.5-4.5-6.5zm.5 9l-2 2q-1 2 3 1l-1-3zM2.5 61l2.5.5-2.5.5v-1zm1 2l2 1 1.5-.5L4.5 65l-1-2zM109 63l6 .5-5.5 1.5-.5-2zm-96.5 2l.5 2.5h-1l.5-2.5zm-10 6l1 2-1-2zm5 0L9 74.5H8L7.5 72l-2 1v-1l2-1zm105 0l2.5.5-2.5.5v-1zm-108 3l1.5.5L3.5 76l1-2zm104 0l-.5 1.5-.5 1.5-.5-1.5 1.5-1.5z"/><path fill="#6E756F" stroke="#6E756F" d="M110.5 75l2.5 1.5-2 1 2 1-1.5.5q-4.5-2-1-4zm-104 3l.5 2.5 1 2L5.5 84 5 79.5 6.5 78zm4 2l1.5 2.5-1.5-.5-1.5-.5 1.5-1.5zm-7 4l1 2-1-2zm104 0l1 3 2-1-1 2-5.5-2.5 3.5-1.5zm-88 2l1 2-1-2zm6 0l3.5 2.5q.9 3-3.5 1.5L24 87.5l1.5-1.5zm-17 2l-2 3 2-3zm13 1l9.5 8.5-1.5.5-8-9zm9 1l5.5 3.5 2 5-3.5.5-1.5-3 2-.5-2-.5-2.5-5zm-14 1l2 3-2.5-1.5.5-1.5zm86 0l3.5 1q1.1 2.7-1.5 2l-2-3zm-9 2l-1 2 1-2zm7 0l3.5 2.5-1.5.5-2-3zm-82 2l1.5.5-3.5 2.5 2-3zm-4 1l.5 2.5-1.5 1.5q-3.5-2 1-4zm84 0l1.5 1.5-.5 2.5-1.5-1.5.5-2.5zm-3 1l1.5.5-1 2 2.5 4.5 2.5-1-.5 2h-2l-4.5-4.5 1.5-3.5zm-63 2l1 2-1-2zm53 0l-1 2q-4.3 4.2-12 5v-1l13-6zm-53 6l.5 2.5h-1l.5-2.5zm-5 1l3.5 1.5-2 1 .5 1.5q-2.2.8-1.5-1.5l.5-1.5-1-1zm54 0q2.3-.7 1.5 1.5l-3 1 .5 1.5-2.5-.5 1.5-2.5 2-1zm-43 1l1 2-1-2zm26 0l2.5.5-2.5.5v-1zm7 3l2.5.5-2 1 .5 1.5-1.5-.5-.5 1.5-.5-2.5 1.5-1.5zm-34 1l1 2q-2.8.7-1-2zm17 0l1 2-1.5-.5-.5 4.5-.5-4.5 1.5-1.5zm8 0l2.5 1.5-1.5-.5-1-1zm-17 1l3.5 1.5-4 .5.5-2zm17 1l1 4 1-2 .5 1.5-1.5 1.5-2.5-.5 1.5-4.5zm21 0l1.5.5-2.5 1.5 1-2zm-38 2q2.3-.7 1.5 1.5l-1.5-1.5zm7.5 3l2 .5-2 1V118z"/></svg>