<svg xmlns="http://www.w3.org/2000/svg" role="img" viewBox="-10.23 13.77 531.96 251.96"><title>Houdini Ocean Toolkit logo</title><path d="M1.3 24.7C.3 25.1 0 50.4 0 140.6V256l166.2-.1c156.1-.1 166-.2 161.2-1.7-4.8-1.6-12-6-11.1-6.8.7-.7 7.9 2.2 7.5 3-.2.5 2.1 1.6 5 2.5 2.9.9 5 2 4.6 2.4-.4.4 1.1.7 3.4.7s4.2-.5 4.2-1c0-.6-.5-1-1.2-1-.6 0-.9-.3-.5-.6.3-.3 2 .1 3.8 1 1.8.9 4.8 1.5 6.8 1.4l3.6-.1-3.5-.4c-1.9-.3-3.7-.8-4-1.1-.3-.4-3.4-1.8-7-3-6.2-2.2-6.3-2.2-2-1.7 2.5.3 9.1 1 14.8 1.4 5.7.5 10.5 1.1 10.8 1.4 1.1 1.1-3.3 1.6-6.4.8-3.9-1.2-4.4.5-.6 1.9 3.5 1.4 6.7 1.3 5.8-.1-.5-.9.1-1 2.2-.5 3.9 1 37.1 2 36.3 1.2-.4-.4-7-.9-14.8-1.1-11.2-.2-14.4-.6-15.6-1.9-1-1-1.2-1.6-.5-1.6s.4-1.3-.8-3.3c-1.1-1.7-1.9-4.4-1.8-5.8.1-1.9-.3-2.5-1.4-2.2-.9.3-2.2-.3-2.9-1.1-.9-1.1-1-1.6-.2-1.6 2.8 0 .7-2-2.6-2.5-2.1-.3-5.2-1-7-1.4l-3.1-.9 1.5 4.7c.8 2.5 1.6 5.4 1.6 6.3.3 2.8-1.7 2.5-3.1-.5-1.2-2.6-1.8-2.8-6-2.5-4 .3-4.7.6-5.2 2.8-.3 1.4-1.4 2.6-2.4 2.8-1.6.3-1.8 0-1.2-2.5.4-1.5 1.4-4.2 2.1-5.8 1.5-3.4 2.8-7.5 2.3-7.5-.2 0-1.8-.4-3.6-.9-3.2-1-3.3-.9-5.7 3.9-2.9 5.7-3.1 8.2-1 10.4 1.3 1.3 1.3 1.5-.7 1.8-1.3.2-4-.1-6.1-.6-3-.7-4.1-.5-5.6.8-.9.9-2.2 1.6-2.7 1.6s-.3-.4.4-.9c2.5-1.5-1.8-5.2-6.8-5.7-3.4-.4-4.1-.3-3 .5 1.3.9 1.3 1.1-.1 1.1-.9 0-1.9.9-2.2 2-.3 1.1-1.2 2-2.1 2-1.9 0-1.9-.1-.6-3.4.7-2 .6-2.7-.7-3.4-.9-.5-1.3-1.5-.9-2.1.4-.6 1.1-.9 1.6-.6 1.2.8 3.7-3.1 5.6-8.7 1.1-3.5 2.1-4.8 3.5-4.8 1 0 1.9.6 1.9 1.3 0 .7 1.5 4.9 3.3 9.3l3.2 7.9h4c3.3 0 4-.3 4-2 0-1.2-.9-2.2-2.5-2.6-1.6-.4-1.9-.7-.7-.8 2.2-.1 2.2-.2-.8-6.1-2.8-5.6-3.1-7-1.2-7 .7 0 2.4 2.4 3.8 5.2l2.6 5.3 1.7-3.4c1-1.8 1.6-3.4 1.4-3.5-.2-.1-1.4-.7-2.8-1.3l-2.5-1.2h3c1.7-.1 4-.4 5.3-.7 1.7-.5 2.2-.2 2.2 1.1 0 1.5.6 1.7 3.7 1.2 2-.4 3.9-1 4.2-1.6.8-1.1 8.2-3.2 9.3-2.5.4.3.8 1.4.8 2.5 0 2.2-2.8 2.6-3.6.4-.9-2.1-3.3-1.9-2.8.3.4 1.1 2.9 2.4 7.7 3.9 11.5 3.5 11.4 3.5 12.1 1.7 1-2.7-1-3.8-5.9-3.5-2.7.1-4.5-.2-4.5-.8 0-.7 2.4-1.1 5.8-1.2 5.2-.1 5.5-.2 3.1-1.2-1.4-.7-2.4-1.7-2.2-2.3.2-.6-.6-1.5-1.9-1.8-1.5-.5-1.8-.9-1-1.3.8-.3 1.9 0 2.5.6 1.4 1.4 4.7 1.5 4.7.1 0-1.8 1.8-1 2.3 1 .3 1.1 1.4 2 2.4 2 1.1 0 3.4 1.1 5.3 2.5s4.8 2.5 6.4 2.6c1.7.1 4.2.5 5.6.9 2 .7 1.6.8-2.2.9l-4.8.1 1.9 3.2c1.5 2.9 2.2 3.2 5.4 3 2.2-.2 3.7.1 3.7.7s-1 1.1-2.2 1.2c-1.3.1.6.7 4.2 1.4 3.5.7 6.6 1.7 6.8 2.4.2.6 1 1.1 1.7 1.1.8 0 2.6.5 4.2 1.2l2.8 1.1-4.5.7c-4.7.8-7.2-.2-6.4-2.4.3-.8-1.7-1.7-6.4-2.7l-6.8-1.5.4 2.2c.2 1.4 1.5 2.5 3.5 3.2l3.2 1-3.7.1c-2.5.1-3.8.6-3.8 1.5 0 1 1.6 1.4 5.6 1.4 3.1 0 6 .5 6.3 1.1.4.6 2.9 1.4 5.6 1.8 2.8.3 5.6 1.2 6.3 2 1.4 1.4 1.1 1.6-3.3 2.6-1.1.3 22.4.5 52.3.6l54.2.1v-49.6c0-29.1-.4-49.3-1-48.9-.5.3-1.1.1-1.5-.5-.3-.5.1-1 .9-1 2.2 0 2-2.7-.1-3.3-1.7-.4-1.7-.5 0-.6 1.4-.1 1.7-1 1.7-5.1 0-2.8-.4-5-1-5-.5 0-1-.5-1-1.1 0-.5.5-.7 1-.4.7.4 1-13 1-39.5 0-35-.2-40.1-1.5-39.7-.8.4-1.7.2-2-.3-.4-.6.3-1 1.4-1 2 0 2.1-.6 2.1-8.5 0-4.7-.1-8.5-.2-8.6-.2 0-2.3-.3-4.8-.6-6.2-.7-6.3-1.3-.2-1.3 2.9 0 5.2-.5 5.2-1 0-.6-.9-1-1.9-1-1 0-2.1-.7-2.5-1.5-.3-.9 0-1.5 1-1.5.8 0 1.2-.4.9-1-.3-.5.1-1 .9-1 .9 0 1.6-.7 1.6-1.5 0-1-1.1-1.6-3.2-1.7-5.4-.3-10.2.3-11.3 1.3-2.2 2.2-5.1.7-4.6-2.4.1-1-5.7-.9-6.3.2-1.2 1.9 6.8 4.5 13.3 4.2 5.5-.1 6.2 0 5.2 1.3-.9 1.1-.9 1.5.1 1.9.7.2-.5.8-2.7 1.2-2.9.6-4.6.4-6.8-.9-1.6-.9-3.9-1.6-5.1-1.6-1.2 0-2.6-.4-3.1-.9-.6-.5-2.9-1.2-5.1-1.6-3.1-.5-4.5-.2-5.7.9-.9.9-2.5 1.6-3.6 1.6-3.1 0-3.5 1.9-.6 3 3.5 1.3 3.8 1.3 6.2-1 1.8-1.6 3-1.8 7.2-1.3 6.4.7 6.6 2.3.4 2.4l-4.8.1 5.5.9c3 .5 6.5.6 7.8.4 1.2-.3 2.2-.1 2.2.6s-3.1 1-9.7.8c-5.4-.2-11.8.1-14.3.6-4.1.8-4.3.9-2 1.6 1.8.6 1 .8-2.7.5-2.9-.2-5.3-.1-5.3.1s1.2.8 2.7 1.4c1.6.7 2.3 1.3 1.5 1.6-.6.3-1 .9-.7 1.3.6.9-3.4 1.8-10 2.2-2.6.2-3.9-.1-3.8-.9.2-1.1-1.3-1.6-9.4-2.8-2.7-.4-4.3-.3-4.3.3 0 1.6 3.8 2.5 7.7 1.7 2.6-.5 3.3-.3 2.8.6-.5.8-3.1 1-8.1.7-4-.3-7.5-.1-7.6.4-.2.5-1.9 1.3-3.8 1.7-1.9.4-4.6 1.2-6 1.6-2.2.7-2.3.6-1.1-.9 1.2-1.4 1.1-1.6-1-1.7-1.3 0-1.8-.3-1.1-.6 2.7-1.1 1-2.3-3.2-2.3-2.7 0-4.6-.5-4.9-1.3-.3-.9-.9-.9-2.8 0-1.3.6-3 1.3-3.8 1.5-1.1.3-1 .7.3 2.1 1.3 1.2 1.4 1.7.4 1.8-.7.1.1.5 1.7.9 2.6.7 2.4.8-2 .9-2.7.1-5.6.5-6.4 1-.9.6-2.9.4-5.3-.6-2.8-1.1-5.8-1.4-10.4-1-5.9.4-8.8-.5-4.6-1.6 1.3-.4 1.2-.5-.5-.6-1.2 0-2.8.5-3.6 1.3-1.6 1.6-6.7 1.6-6.7 0 0-1.3-11.1-2.7-14.5-1.8-1.3.3-3.4 0-4.7-.7-2.1-1.1-2.2-1.1-.9.4 1.2 1.5 1 1.7-1.7 1.7-1.6 0-4.9-.7-7.2-1.5s-5.3-1.5-6.7-1.5c-1.3 0-2.2-.4-1.8-1 .6-.9 17.8-.6 19.4.4 1.1.7 30.1.9 38.8.3 3.4-.2 6.4 0 6.5.4.5 1.3 5.8-.3 5.8-1.7 0-.9 1.1-1.4 2.8-1.4 4.7 0 4.6-1.4 0-2.5-3-.8-7.3-.8-14.2-.1-7.2.7-10.3.6-11.7-.2-1-.7-3.1-1.2-4.6-1.3h-2.8l2.3-1.2c1.8-.8 2.8-.8 4.3.1 1 .7 2.4 1.2 3.1 1.2.9 0 .8-.3-.2-1-1.3-.9-1.3-1 0-1.1 3.8-.3-5.3-1.7-11.5-1.7-4.3 0-5.9.3-4.1.7 4 .8 1.7 2.6-4.9 3.7l-5 .8 4 .6 4 .6-4 .5c-2.2.3-4.2.2-4.5-.2-.3-.5-2.4-1.3-4.5-1.8-3.3-.7-3.5-.9-1.2-1 1.5-.1 2.7-.6 2.7-1.1 0-1.1-7-1.6-15.6-1.1-8.7.4-7.2-1.6 1.9-2.6 5.6-.6 8.1-1.2 8-2.1-.2-.9 1.9-1.2 7.8-1.2 5.4 0 7.8-.3 7.4-1.1-.5-.7-5.6-.9-15.6-.6-8.6.3-14.9.1-14.9-.4s.6-.9 1.4-.9c.8 0 1.8-.5 2.2-1.1.5-.8-.1-1-1.8-.6-1.5.4-3.2.1-4.4-.8-1.7-1.3-1.7-1.4-.1-1.5.9 0 1.7-.5 1.7-1 0-1.4-2.3-1.3-3.8.2-.9.9-1.8.9-3.7 0-2.1-1-2.5-.9-2.5.3 0 .8.7 1.5 1.5 1.5.9 0 2.1.5 2.8 1 .7.6 2.1 1.8 3.2 2.6 1.9 1.5 1.9 1.5-.5 1.1-1.4-.2-2.9-.5-3.5-.7-.5-.1-3.2-.2-6-.1-3.6.1-4.6.4-3.5 1.1.8.5 3.8.9 6.6.9 2.9-.1 6 .4 7.1 1 1.5.9 1.3 1-1.5 1.1-1.8 0-4 .7-4.8 1.5-.9.8-2.9 1.5-4.5 1.5-3.1 0-3.9 1.4-1.3 2.4.9.3 3 .6 4.7.6 2.8.1 3 .2 1.3 1.1-1 .6-3.6.9-5.6.6-2.4-.3-4.6 0-5.8.9-1.7 1.2-2.2 1.2-3.2-.1-.8-.9-2.7-1.3-6.1-1-3.8.3-4.9 0-4.9-1.1s1.8-1.4 8.2-1.4c7.8 0 9.8-1.2 3.8-2.3-1.4-.2 0-.5 3-.7 3-.1 6.6-.5 8-.9 2.1-.6 1.8-.9-2.5-1.5-2.7-.4-5.4-1.1-6-1.6-1-.7-6.1-1.5-18.6-2.8-3.6-.4-7.3-1.3-8.1-2-1.8-1.5-16.6-1.4-18.5.1-.7.5-2.1.6-3 .1-2.3-1-34.3-1.2-34.3-.2 0 .5 1.6.8 3.5.8s3.5.5 3.5 1.1c0 .6-1.7 1-4.2.9-7.4-.4-10-.1-9.2 1.2.5.8.2.9-1 .5-1-.4-3.2-.7-4.9-.8l-3.2-.1 2.8-.8c1.6-.5 4.3-1 6-1.2 1.8-.1 3.9-1 4.7-1.8.8-.9 2.8-1.7 4.4-1.8 4.6-.3 4.4-1.2-.2-1.2-2.2 0-4.4-.5-4.7-1-.9-1.5-2.8-1.2-2.2.4.5 1.3-1.4 2.7-5.5 3.9-.9.3-2.9.2-4.5-.3-2.7-.8-2.7-.8.9-.9 2.9-.1 3.6-.4 3.2-1.6-.8-2-4.3-1.9-6.5.1s-6.9 1.1-6.9-1.2c0-1.3-.9-1.5-5.7-1-6.5.7-7 1-5.3 3.1 1 1.2 1 1.5-.2 1.5-.8 0-1.9-1-2.4-2.3-.6-1.2-.9-1.6-.7-1 .1.7-.6 1.3-1.6 1.3-1.1 0-2.1.5-2.3 1.2-.2.6-.9.8-1.6.4-1.5-.9-.4-3.6 1.3-3 .7.3 1.5-.2 1.8-1 .5-1.3.1-1.3-3.1-.2-5.5 1.9-12.2 1.9-14.4-.1-1-.9-1.8-1.2-1.8-.7 0 1.7-7.7 3.1-12.6 2.4-5.5-.8-12.9-.4-15.4 1-1 .6-3 1-4.4 1-1.3 0-2.6.4-2.8.8-.1.5-2 .7-4 .4-2.1-.2-3.6-.8-3.3-1.2.3-.4-.3-1.1-1.3-1.6-2.7-1.2-8.6-1.3-9.4 0-.5.8-1.3.8-2.7-.1-1.1-.7-2.2-.9-2.5-.5-.2.4-2.3.6-4.5.4-2.3-.2-3.9-.8-3.6-1.2.6-1-3-2-7.3-2-1.9 0-3.1.4-2.7 1 .3.5 1.2.7 1.9.4 1.6-.6 5 4.2 3.6 5.1-1.5.9-5-.4-4.7-1.8.1-.8-.9-1.1-3-.9-1.7.2-3.4-.2-3.8-.8-.5-.8-1.4-.6-3.1.5-1.8 1.1-2.4 1.2-2.4.3 0-.9-2-1.3-6.5-1.4-3.5-.1-6.2.2-6 .7.6.9-5 2-8 1.5-5.9-.9-7.6-3.8-2-3.4 1.9.1 3.7-.1 4.1-.5.4-.4-2.8-.7-7.2-.6-4.3 0-7.3.3-6.6.6.6.2 1.2 1.4 1.2 2.5 0 1.4-.5 1.8-1.6 1.4-.9-.3-2.5-.6-3.5-.6-1.1 0-1.7-.5-1.4-1 .3-.6-.3-1-1.4-1-1.1 0-2.2-.4-2.6-.9-.3-.5-2.5-.9-4.9-.8-5.3.2-5.1 1.7.2 1.8l3.7.1-3.5.8c-3.4.8-6.7-.1-8.2-2.4-.5-.7-1.1-.5-2 .6-1.1 1.5-2.1 1.7-6.5.9-2.9-.4-5.3-.4-5.3 0 0 .5-1 .9-2.2.8-1.3 0-1.7-.3-1-.6 3.8-1.5-3.3-3.1-7.5-1.6zm51.4 2.8c0 .8-.6 1.5-1.3 1.5-.8 0-1.1-.6-.8-1.5.4-.8.9-1.5 1.3-1.5s.8.7.8 1.5zM198 27c0 .5-.4 1-1 1-.5 0-1-.5-1-1 0-.6.5-1 1-1 .6 0 1 .4 1 1zM71.2 29.5c0 .5-.5 1.1-1.1 1.3-.6.2-1.1-.4-1.1-1.3s.5-1.5 1.1-1.3c.6.2 1.1.8 1.1 1.3zm49.5-.9c-.3.3-1.2.4-1.9.1-.8-.3-.5-.6.6-.6 1.1-.1 1.7.2 1.3.5zm49.8.4c.3.5.1 1-.4 1-.6 0-1.1-.5-1.1-1 0-.6.2-1 .4-1 .3 0 .8.4 1.1 1zm4.5 1c0 1.4 2.8 1.2 3.3-.3.2-.6.8-.9 1.2-.5 1.6 1.5-.9 2.8-5.8 2.8-5 0-5.1-.1-2.7-1.4 3.1-1.7 4-1.9 4-.6zm29.7-.4c-.3.3-1.2.4-1.9.1-.8-.3-.5-.6.6-.6 1.1-.1 1.7.2 1.3.5zM35 30.4c0 .3-.4.8-1 1.1-.5.3-1 .1-1-.4 0-.6.5-1.1 1-1.1.6 0 1 .2 1 .4zm10 .6c0 1.3-1.1 1.3-3 0-1.2-.8-1.1-1 .8-1 1.2 0 2.2.4 2.2 1zm102 0c0 .5-.2 1-.4 1-.3 0-.8-.5-1.1-1-.3-.6-.1-1 .4-1 .6 0 1.1.4 1.1 1zm42.5 0c.3.5-.1 1-1 1s-1.3-.5-1-1c.3-.6.8-1 1-1 .2 0 .7.4 1 1zm-141 1.8c-.3.3-1.1 0-1.8-.7-.9-1-.8-1.1.6-.5 1 .3 1.5.9 1.2 1.2zm211.5-.7c.7 1.1 6.4 1.2 10.8.3 1.9-.3 3.2-.2 3.2.3 0 2.5-22.4 2.4-23.3-.1-.5-1.3 8.5-1.8 9.3-.5zm19.5-.1c-.3.5-1.5 1-2.6 1s-1.7-.5-1.4-1c.3-.6 1.5-1 2.6-1s1.7.4 1.4 1zm-120.2.7c-.7.2-2.1.2-3 0-1-.3-.4-.5 1.2-.5 1.7 0 2.4.2 1.8.5zm46.4-.1c-.3.3-1.2.4-1.9.1-.8-.3-.5-.6.6-.6 1.1-.1 1.7.2 1.3.5zM10.3 33.7c-.7.2-2.1.2-3 0-1-.3-.4-.5 1.2-.5 1.7 0 2.4.2 1.8.5zM128 35.2c0 .4-.7.8-1.5.8s-1.5-.4-1.5-.8c0-.5.7-.9 1.5-.9s1.5.4 1.5.9zm168.5-.2c.4.6-.7 1-2.5 1s-2.9-.4-2.5-1c.3-.6 1.5-1 2.5-1s2.2.4 2.5 1zM148 37.6c0 1-.5 1.2-1.2.7-.7-.4-2.4-.7-3.8-.6-1.9.1-2 0-.5-.4 1.1-.3 2.4-.9 2.9-1.4 1.2-1.1 2.6-.2 2.6 1.7zm23.7-2c-.3.3-1.2.4-1.9.1-.8-.3-.5-.6.6-.6 1.1-.1 1.7.2 1.3.5zm107.2 0c1.7.4 3.1 1.1 3.1 1.6 0 .6-1.1.7-2.7.3-1.6-.3-3.9-.7-5.2-.7-1.8 0-2-.2-1-.9 1.7-1.1 1.8-1.1 5.8-.3zm-126.1 1.5c-.2.6-.8 1-1.3 1s-1.1-.4-1.3-1c-.2-.6.4-1.1 1.3-1.1s1.5.5 1.3 1.1zm28.9-.5c-.3.3-1.2.4-1.9.1-.8-.3-.5-.6.6-.6 1.1-.1 1.7.2 1.3.5zM191 38c-2.7.7-4.3.3-3.5-.9.2-.5 1.7-.6 3.2-.3l2.8.6-2.5.6zm40.2.8c-1.9.6-4.4-.6-3.7-1.8.4-.7 1.4-.6 2.8.2 1.4.7 1.7 1.3.9 1.6zm55.8-1.2c0 .2-.9.4-2.1.4-1.1 0-1.8-.4-1.4-1 .5-.8 3.5-.3 3.5.6zm-158.3 0c-.3.3-1.2.4-1.9.1-.8-.3-.5-.6.6-.6 1.1-.1 1.7.2 1.3.5zm7.3.4c0 .5-.4 1-1 1-.5 0-1-.5-1-1 0-.6.5-1 1-1 .6 0 1 .4 1 1zm63.5 0c-.3.5-1 1-1.6 1-.5 0-.9-.5-.9-1 0-.6.7-1 1.6-1 .8 0 1.2.4.9 1zm-41.8.6c-.3.3-1.2.4-1.9.1-.8-.3-.5-.6.6-.6 1.1-.1 1.7.2 1.3.5zm55.3-.2c0 .3-.4.8-1 1.1-.5.3-1 .1-1-.4 0-.6.5-1.1 1-1.1.6 0 1 .2 1 .4zm13 .6c0 .5-1 1-2.2.9-2.2 0-2.2-.1-.3-.9 1.1-.5 2.1-.9 2.3-.9.1-.1.2.3.2.9zm-57.5 4c.3.5.2 1-.4 1-.5 0-1.3-.5-1.6-1-.3-.6-.2-1 .4-1 .5 0 1.3.4 1.6 1zm65.2-.4c-.3.3-1.2.4-1.9.1-.8-.3-.5-.6.6-.6 1.1-.1 1.7.2 1.3.5zm15.8.3c1.6.7 1.1.9-2.1 1.2-3.1.3-4 .1-3.7-.8.6-1.4 2.8-1.6 5.8-.4zm10.1.1c3.3 1.3 2.6 2.2-2.1 2.6-3.5.2-5.1-.8-4-2.6.8-1.3 2.7-1.3 6.1 0zm11.7-.3c-1.3.2-3.5.2-5 0-1.6-.2-.5-.4 2.2-.4 2.8 0 4 .2 2.8.4zm61.7.9c0 .2-1.2.4-2.6.4-1.4 0-2.3-.4-2-.9.6-.8 4.6-.4 4.6.5zm-230 .9c-.7.8-1.7 1.5-2.2 1.5-.6 0-.5-.7.2-1.5s1.7-1.5 2.2-1.5c.6 0 .5.7-.2 1.5zm185.3-.3c-.6 1-3.5 1-5.1 0-.8-.5.1-.8 2.2-.8 1.9.1 3.2.4 2.9.8zm-47.6.4c-.3.3-1.2.4-1.9.1-.8-.3-.5-.6.6-.6 1.1-.1 1.7.2 1.3.5zm37.8.4c-.3.5-1 1-1.6 1-.5 0-.9-.5-.9-1 0-.6.7-1 1.6-1 .8 0 1.2.4.9 1zm-78 1.5c-5 1.8-5 1.8-3.5 0 .7-.8 2.7-1.5 4.4-1.5 3.1.1 3.1.1-.9 1.5zM214 46c0 1.2-3.7 1.2-6.5 0-1.5-.7-1-.9 2.3-.9 2.3-.1 4.2.3 4.2.9zm117 0c0 .5-.4 1-.9 1-.6 0-1.3-.5-1.6-1-.3-.6.1-1 .9-1 .9 0 1.6.4 1.6 1zm43.5.1c-1.7.5-4.2.5-6 0-2.5-.8-2.1-.9 3-.9 5 0 5.5.1 3 .9zm26.5 1c0 1.2-9.7 1.2-10.5 0-.3-.5.3-1.1 1.2-1.3 2.9-.5 9.3.4 9.3 1.3zm109.7-1.5c-.3.3-1.2.4-1.9.1-.8-.3-.5-.6.6-.6 1.1-.1 1.7.2 1.3.5zM184 46.9c0 .5-.9.7-2 .4-1.1-.3-2 0-2 .6s-.8 1.1-1.7 1.1c-1.6-.1-1.6-.2.1-1.5 2.2-1.7 5.6-2 5.6-.6zm139 .6c-2.8 1.6-7 2-7 .6 0-1.2 1.5-1.7 5.9-1.9l3.6-.2-2.5 1.5zm164.3.2c-2.4.9-1.3 2.3 2 2.3 2.3.1 2.8.3 1.7.9-.8.5-3.6.7-6.3.4-3.7-.4-4.5-.8-3.7-1.8.9-1.1.3-1.1-3-.3-2.2.6-4 1.4-4 1.9s-.9.9-2 .9c-2.2 0-2.7-1.5-.7-2.3.7-.3.5-.6-.5-.6-1-.1-1.8-.6-1.8-1.1 0-.6 3.9-1 9.8-.9 5.3 0 9.1.3 8.5.6zM285.5 49c1.5.7 1.6.9.4.9-.9.1-3.2.4-5 .7-3.4.6-3.4.6-.9-.9 3-1.8 3-1.8 5.5-.7zm11 0c.4.6-1.2 1-4.2 1-3.5 0-4.4-.3-3.3-1 2-1.3 6.7-1.3 7.5 0zm-70 2c-.3.5-1.2.7-2 .3-2.1-.7-1.9-1.3.6-1.3 1.1 0 1.8.4 1.4 1zm91.4.5c1 1.1-.7 1.3-4.7.8-2.3-.3-4.2-1-4.2-1.6 0-.9 7.8-.2 8.9.8zm-83.6 1.2c-1.3.2-3.3.2-4.5 0-1.3-.2-.3-.4 2.2-.4s3.5.2 2.3.4zm184.1.2c.3.5-.1 1.5-1 2.2-1.4 1.1-1.8 1.1-2.8-.2-.6-.9-1.8-1.8-2.6-2.2-.8-.3.2-.6 2.2-.6 2-.1 3.9.3 4.2.8zm50.3-.3c-.3.3-1.2.4-1.9.1-.8-.3-.5-.6.6-.6 1.1-.1 1.7.2 1.3.5zm35.9.7c.4.4-.2.7-1.3.7s-3.6.3-5.4.6c-3.4.6-3.4.6-.9-.9s6.3-1.7 7.6-.4zM259 54c0 .5-1.2 1-2.7.9-2.5 0-2.6-.1-.8-.9 2.7-1.2 3.5-1.2 3.5 0zm12 0c0 .5-1.2 1-2.7.9-2.5 0-2.6-.1-.8-.9 2.7-1.2 3.5-1.2 3.5 0zm166 0c0 .5-.6 1-1.4 1-.8 0-1.8-.5-2.1-1-.3-.6.3-1 1.4-1 1.2 0 2.1.4 2.1 1zm21.3.1l4.2.1-3.8 1.2c-2.9.9-3.5 1.4-2.5 2.4.9.9.6 1.2-1.4 1.2-1.5 0-3-.5-3.3-1-.5-.8-1.1-.8-2 0-.7.6-4.3.9-8.1.8-3.8-.1-14 .2-22.6.6-13.9.8-15.8.7-15.8-.6 0-1.4 2.2-1.6 15.9-1.5 13.9.1 16.2-.1 17.9-1.6 1.3-1.2 2.8-1.6 4.3-1.2 1.3.3 4.2.2 6.4-.4 2.2-.5 4.6-.7 5.3-.5.8.2 3.2.4 5.5.5zm-240.6 1c-1.4.8-2.2.8-3 0-.8-.8-.3-1.1 1.9-1.1 2.5.1 2.7.2 1.1 1.1zm250-.5c-.3.3-1.2.4-1.9.1-.8-.3-.5-.6.6-.6 1.1-.1 1.7.2 1.3.5zm24.6 1c-.3.8-1.2 1.3-2 1-3.8-1.5-6.3-1.7-6.3-.7 0 .6-.9 1.1-2.1 1.1-1.1 0-1.8-.4-1.5-.9.4-.5 0-1.2-.6-1.4-.7-.3 1.9-.6 5.9-.6 6.2-.1 7.1.1 6.6 1.5zm17.4-1c-.3.3-1.2.4-1.9.1-.8-.3-.5-.6.6-.6 1.1-.1 1.7.2 1.3.5zm-258 1c-.3.3-1.2.4-1.9.1-.8-.3-.5-.6.6-.6 1.1-.1 1.7.2 1.3.5zM357 56c0 .5-.4 1-1 1-.5 0-1-.5-1-1 0-.6.5-1 1-1 .6 0 1 .4 1 1zm118.8-.3c-1 .2-2.8.2-4 0-1.3-.2-.5-.4 1.7-.4 2.2-.1 3.2.1 2.3.4zm-307.1.9c-.3.3-1.2.4-1.9.1-.8-.3-.5-.6.6-.6 1.1-.1 1.7.2 1.3.5zm41.3.4c1.1.7.2.9-3 .9-3.7-.1-4.1-.2-2-.9 3.4-1.1 3.3-1.1 5 0zm163.7-.4c-.3.3-1.2.4-1.9.1-.8-.3-.5-.6.6-.6 1.1-.1 1.7.2 1.3.5zm18.3.4c-.8.5-1.1 1.3-.6 1.7.4.4-2.1 1.3-5.6 1.8-6.6 1.1-9.2.8-6.4-.7.9-.5 1.4-1.3 1.1-1.9-.4-.5.5-.9 1.9-.9s2.8.4 3.1 1c.9 1.5 2.5 1.2 2.5-.5 0-1 1-1.5 2.8-1.5 2 0 2.3.3 1.2 1zm109.9-.1c.9.6 1 1.1.2 1.5-.6.4-1.8 0-2.7-.8-1.2-1.2-1.2-1.6-.2-1.6.7 0 1.9.4 2.7.9zm-180.6.8c-.7.2-1.9.2-2.5 0-.7-.3-.2-.5 1.2-.5s1.9.2 1.3.5zm-39.8 1.2c3.3.7 2.5.8-4.3.8-4.8 0-7.8-.4-7-.8 1.6-1.1 6-1 11.3 0zm194 1.1c.3.5-.1 1-.9 1-.9 0-1.6-.5-1.6-1 0-.6.4-1 .9-1 .6 0 1.3.4 1.6 1zm-164.4 1.8c-.7.2-1.8-.1-2.3-.6-.8-.8-.4-.9 1.3-.5 1.3.4 1.8.8 1 1.1zm9.4-.8c-.3.5-1.2 1-1.8 1-.7 0-.6-.4.3-1 1.9-1.2 2.3-1.2 1.5 0zm34 1c-.7 1.2-6.7 2.3-9.2 1.7-1.6-.3-1.5-.5.7-1.5 3.1-1.4 9.3-1.5 8.5-.2zm19.3 1.1c.2.5 1.3.9 2.5 1 1.6.1 1.4.3-1 1-1.8.5-3.5 1.5-3.9 2.1-.5.8-.2.9 1 .5 1-.4 3.1-.7 4.8-.7 2.3 0 2.9-.4 2.4-1.5-.6-1.6 0-1.8 5.4-1.5 4.9.2 6.3 2 1.6 2-2.3 0-4.8.8-6.3 2-1.7 1.3-2 2-1.1 2 .8 0 2.3.9 3.3 2 1.8 1.9 1.7 2-.2 2-1.1 0-3.5.3-5.2.6-2 .4-3.1.3-3.1-.5 0-.6 1.3-1.1 2.9-1.1 5.5 0 4.1-1.7-2-2.3-7.6-.8-11.4-1.8-10.1-2.6.6-.3 1.2-1.5 1.4-2.6.2-1.4-.3-2.1-1.9-2.3-1.3-.2-2.3-.8-2.3-1.3 0-1.3 11.3 0 11.8 1.2zM502 62c0 .5-1.9.9-4.2.9l-4.3-.2 3.5-.7c1.9-.4 3.8-.8 4.3-.9.4 0 .7.3.7.9zm-169.5 1c.3.5-.1 1-1 1s-1.3-.5-1-1c.3-.6.8-1 1-1 .2 0 .7.4 1 1zm156.9.6c-1.2.7-4.2 1-6.9.6-6.2-.6-4.2-1.7 3.3-1.7 5 0 5.5.1 3.6 1.1zm-372.5 1c.2.2-1.2.4-3.2.4s-3.8-.4-4.2-.9c-.5-.9 6.4-.4 7.4.5zm283 1c-.9 1.1-.8 1.4.2 1.4.9 0 1 .3.2 1.1-1.3 1.3-5.3-.5-5.3-2.5 0-1.9.8-2.4 3.5-1.8 2 .3 2.3.7 1.4 1.8zm29.2-1.2c-.8.9-3 1.2-7.4 1-3.4-.1-6.4-.4-6.7-.5-.7-.3 7.9-1.6 11.9-1.7 2.7-.2 3.1.1 2.2 1.2zm4.7-.5c.7.4 3.4.4 6 0 4.5-.7 7.2.2 7.2 2.2 0 1.3-5.7 1.1-6.5-.1-.5-.8-1.1-.8-2 0-1 .8-2.1.7-4.4-.5-3-1.5-3.9-2.5-2.3-2.5.4 0 1.3.4 2 .9zM358.5 65c.8 1.3-.5 1.3-2.5 0-1.3-.8-1.3-1 .2-1 .9 0 2 .4 2.3 1zm50.5-.1c0 1.1-3.9 2.1-4.5 1.1-.2-.4-.2-1 .2-1.4 1-.9 4.3-.7 4.3.3zm-147.7.8c-.7.2-1.9.2-2.5 0-.7-.3-.2-.5 1.2-.5s1.9.2 1.3.5zM502 67.1c1.2.8 1 .9-1 .7-1.4-.1-3.2.2-4 .7-1.3.8-1.3.7-.1-.8 1.5-1.9 3-2.1 5.1-.6zm-204.7.6c-.7.2-2.1.2-3 0-1-.3-.4-.5 1.2-.5 1.7 0 2.4.2 1.8.5zm145 2.3c1.3 1.6 2.9 2 7.2 2 3 0 5.5.4 5.5 1 0 1.5 5.4 1.2 8.6-.5 3.7-1.9 4.6-.9 1.5 1.6-2.2 1.8-3.6 2-13.1 1.6-12.1-.5-14.8-1.5-14.4-4.9.3-3 .2-2.8 1.7-2.8.7 0 2 .9 3 2zM416 70c0 .5-.7 1-1.5 1s-1.5-.5-1.5-1c0-.6.7-1 1.5-1s1.5.4 1.5 1zm14.4 0c.7 0 1.3.7 1.3 1.6 0 1.3-.8 1.5-4.5 1-2.5-.3-5.4-.6-6.5-.6-3 0-.8-1.8 2.8-2.3 1.7-.2 3.6-.2 4.3 0 .8.1 1.9.3 2.6.3zM342 71c0 .5-1 1-2.2.9-2.2 0-2.2-.1-.3-.9 1.1-.5 2.1-.9 2.3-.9.1-.1.2.3.2.9zm64 .7c6.4 1-.2 2.3-10.4 2-7.2-.1-8.9-.5-7.7-1.3 3.1-2.2 7.7-2.4 18.1-.7zm68.5-.7c-.3.5-1.8 1-3.3.9-2.4 0-2.5-.1-.7-.9 2.8-1.2 4.7-1.2 4 0zM260 72.5c0 .8-.7 1.5-1.5 1.5-1.6 0-2-1.2-.8-2.3 1.1-1.2 2.3-.8 2.3.8zm45-.5c0 1.3-2 1.3-4 0-1.2-.8-.9-1 1.3-1 1.5 0 2.7.4 2.7 1zm14.5 1c1.7.7 2.4.7 2 0-.3-.6.4-1 1.6-1 1.2 0 1.9.3 1.6.7-.4.3-.2 1.2.5 2 .6.7.9 1.5.7 1.8-.3.2-4.1-.2-8.4-1-4.4-.8-8.1-1.4-8.2-1.5-.2 0-.3-.5-.3-1 0-1.3 7.1-1.3 10.5 0zm-135 1c.3.5-.1 1-1 1s-1.3-.5-1-1c.3-.6.8-1 1-1 .2 0 .7.4 1 1zm106.1-.2c-.5.8-7.6.4-7.6-.4 0-.2 1.8-.4 4.1-.4 2.2 0 3.8.4 3.5.8zm47.8 1.2c.4.5 2 .5 3.5.1 4.1-1.2 6 0 2 1.3-3.9 1.3-13.7.9-10.4-.5 1.6-.6 1.2-.8-1.7-.8-2.1-.1-3.8-.5-3.8-1 0-1 9.1-.2 10.4.9zm81.9-.3c-.7.2-2.1.2-3 0-1-.3-.4-.5 1.2-.5 1.7 0 2.4.2 1.8.5zm70.2.3c.3.6-.1 1.3-1 1.6-1.9.8-3 0-2-1.5.8-1.4 2.2-1.4 3-.1zm-330 1c.3.5.1 1-.4 1-.6 0-1.1-.5-1.1-1 0-.6.2-1 .4-1 .3 0 .8.4 1.1 1zm322.9-.4c2.8 1.1 1.7 2.4-1.8 2.4-3.6 0-5.6-1.4-3.4-2.3 1.9-.8 3.4-.8 5.2-.1zm26.1.4c.3.6-.4 1-1.7 1-1.8 0-2-.2-.8-1 1.9-1.2 1.8-1.2 2.5 0zm-152 .9c.3.6 2.9.8 5.8.6 2.9-.2 4.1-.2 2.8.1-2.9.7-5.3 2.9-4.3 3.9.4.4-1.1.5-3.3.2-2.2-.4-4.9-.7-6-.7-2-.1-2-.1-.1-1.5 1.7-1.3 1.7-1.5.4-1.5-.9 0-2-.5-2.3-1-.4-.6.8-1 2.9-1 1.9 0 3.7.4 4.1.9zm-134.6 1.7c.2.2-1.4.4-3.7.4-2.3 0-4.2-.5-4.2-1 0-1 6.7-.4 7.9.6zm154.3.6c2.3-.1 5.6.3 7.4 1 2.5.9 3.9.9 5.6 0 3.9-1.9 16.2-2.5 20.4-1 2.9 1 3.8 1 4.1 0 .3-.6 1.9-1.2 3.6-1.2h3.2l-2.5 2.1c-2.5 2-6.5 2.1-20.5.5-1.1-.1-3.6.2-5.5.7-1.9.5-8.8 1-15.2 1.1-11.1.1-14.5-.5-9.8-1.7 1.1-.3 2-.9 1.9-1.4-.3-2 .2-2.5 1.6-1.3.9.7 3.5 1.3 5.7 1.2zM440 78c0 .5-2.1.9-4.7.9-4.3-.1-4.5-.2-1.8-.9 4.4-1.1 6.5-1.1 6.5 0zm63.5 0c-.3.5-1.9 1-3.6 1-1.6 0-2.9-.5-2.9-1 0-.6 1.6-1 3.6-1 2.1 0 3.3.4 2.9 1zm-275.8.6c-.3.3-1.2.4-1.9.1-.8-.3-.5-.6.6-.6 1.1-.1 1.7.2 1.3.5zm224 0c-.3.3-1.2.4-1.9.1-.8-.3-.5-.6.6-.6 1.1-.1 1.7.2 1.3.5zm24.8.4c.3.5-.3 1-1.4 1-1.2 0-2.1-.5-2.1-1 0-.6.6-1 1.4-1 .8 0 1.8.4 2.1 1zm18.2.6c-.3.3-1.2.4-1.9.1-.8-.3-.5-.6.6-.6 1.1-.1 1.7.2 1.3.5zM252 83c2.2 2.2 1.9 2.5-.8 1.1-.9-.5-3.5-1.7-5.7-2.6l-4-1.6 4.3.6c2.3.3 5.1 1.4 6.2 2.5zm25.7-2.4c-.3.3-1.2.4-1.9.1-.8-.3-.5-.6.6-.6 1.1-.1 1.7.2 1.3.5zM439 82c-1.9 1.3-3 1.3-3 0 0-.6 1-1 2.3-1 1.8 0 1.9.2.7 1zm49.3.7c-.7.2-1.9.2-2.5 0-.7-.3-.2-.5 1.2-.5s1.9.2 1.3.5zm22.2.3c-.3.5-1.4 1-2.3 1-1.5 0-1.5-.2-.2-1 2-1.3 3.3-1.3 2.5 0zm-285.7.9c1 .6.8 1-.9 1.4-2.6.7-3.4.3-2.4-1.2.7-1.3 1.5-1.4 3.3-.2zm45.9-.3c-.3.3-1.2.4-1.9.1-.8-.3-.5-.6.6-.6 1.1-.1 1.7.2 1.3.5zm132.7 3c3.1-.6 7.9 1.5 6.5 2.8-1.1 1.1-16.2-.8-16.6-2.1-.3-.7 1.1-1.9 2.9-2.6 3-1.3 3.3-1.2 3.6.6.3 1.6.9 1.8 3.6 1.3zm62.1-2.7c.3.6-2.2 1.5-5.5 2.2-3.3.6-6.3 1.6-6.6 2-.3.5-2.6.9-5.2 1-2.6 0-4 .3-3.2.5.8.3 4.4 1.4 7.9 2.6 4.3 1.3 7.6 1.8 10.2 1.4 2.1-.3 4-.2 4.4.4.3.5-.2 1-1.2 1-1.7.1-1.7.2.1 1.5 1.9 1.5 1.9 1.5-.3 1.5-3.9 0-13.2-3.1-13.8-4.6-.6-1.6-5.4-1.9-6.9-.4-.6.6-2.4 1.1-4 1.1-11.5.2-27.4-1-27.4-2 .1-2.3 2.5-3.6 8-4.1 3.3-.3 6.6-.3 7.2.1.6.4 2-.2 3.1-1.2 1.4-1.3 2.4-1.6 3.1-.9.5.5 2.1.9 3.6.9 1.6-.1 1.9-.3.8-.6-1-.2-1.8-.9-1.8-1.4 0-.5 4.7-.7 11.3-.4 6.6.3 11.8.1 12.7-.5 1.9-1.2 2.7-1.2 3.5-.1zm16.5.1c-2 1.3-4.3 1.3-3.5 0 .3-.6 1.6-1 2.8-1 1.8 0 1.9.2.7 1zm-262.3 1.6c-.3.3-1.2.4-1.9.1-.8-.3-.5-.6.6-.6 1.1-.1 1.7.2 1.3.5zm93 0c-.3.3-1.2.4-1.9.1-.8-.3-.5-.6.6-.6 1.1-.1 1.7.2 1.3.5zM233 87.5c0 1.9-1.1 1.9-3.6 0-1.8-1.4-1.8-1.4.9-1.5 1.7 0 2.7.5 2.7 1.5zm126.3-.8c-.7.2-2.1.2-3 0-1-.3-.4-.5 1.2-.5 1.7 0 2.4.2 1.8.5zm31.7.1c0 .5-1.3.7-3 .4-1.6-.2-3-.6-3-.8 0-.2 1.4-.4 3-.4 1.7 0 3 .4 3 .8zm25 .2c0 .5-.4 1-1 1-.5 0-1-.5-1-1 0-.6.5-1 1-1 .6 0 1 .4 1 1zm-42.5 1c-2.8 1.2-4.5 1.2-4.5 0 0-.6 1.5-1 3.3-.9 2.7 0 2.9.2 1.2.9zm119.2 3.6c0 .8-.6 1.4-1.2 1.4-1.7 0-3.8-2.7-3-3.9.8-1.4 4.2.7 4.2 2.5zM269.5 90c.7 1.2-.2 1.2-3 0-1.9-.8-1.9-.9.2-.9 1.2-.1 2.5.3 2.8.9zm199.2 1.6c-.3.3-1.2.4-1.9.1-.8-.3-.5-.6.6-.6 1.1-.1 1.7.2 1.3.5zm-164.8 2c2.5.2 5.1.4 5.6.4.6.1 0 .5-1.2 1-2.5 1-13.3-.9-13.3-2.3 0-.4 1-.5 2.2-.1 1.2.3 4.2.8 6.7 1zm172.5-.1c-.4 1.1.1 1.5 1.7 1.6 1.3.1 3.1.3 3.9.4.8.1 2.8.3 4.4.4 5.5.2 1.6 1.4-4.1 1.2-3.9-.1-6-.6-6.6-1.6-.4-.8-1.5-1.5-2.3-1.5-.8 0-1.2-.5-.9-1 1-1.7 4.5-1.2 3.9.5zM358 94c1.2.8 1.1 1-.7 1-1.2 0-2.5-.5-2.8-1-.8-1.3 1.5-1.3 3.5 0zm-94 1c0 .5-.9 1-2 1s-2-.5-2-1c0-.6.9-1 2-1s2 .4 2 1zm8.5 0c.3.5.1 1-.4 1-.6 0-1.1-.5-1.1-1 0-.6.2-1 .4-1 .3 0 .8.4 1.1 1zm-21 1c1.5.7 1 .9-2.2.9-2.4.1-4.3-.4-4.3-.9 0-1.2 3.7-1.2 6.5 0zm96 1c1.1.5 1.6.9 1 .9-.5.1-.3.6.5 1.2 1.2.9 1.2 1-.3.5-1-.3-3.7-.7-6-.7-2.3-.1-3.2-.4-1.9-.6 1.2-.2 2-.9 1.7-1.4-.7-1.1 2.3-1.1 5 .1zm18 .1c.4.6 3.6.9 7.6.8 3.8-.1 7.2.1 7.6.4.3.4-3.7.7-9 .7-8 0-9.7-.3-9.7-1.5 0-1.7 2.6-2 3.5-.4zm36.2-.5c-.3.3-1.2.4-1.9.1-.8-.3-.5-.6.6-.6 1.1-.1 1.7.2 1.3.5zm20.3.4c1.1.7.7 1-2 1.1-3 .2-3.1.3-.8.6 1.5.2 3.5 0 4.4-.5.9-.5 3.9-.5 7.1 0 3.2.5 7.6.5 10.6-.1 5.1-.9 7.7-.6 7.7.9 0 1.2-14.2 1.7-16.2.6-1.1-.7-2.5-.6-4.2.4-3 1.6-3.3 2.7-.8 3.3 4.1 1.1-12 .5-18.6-.7-9.6-1.7-10.4-2.9-1.8-2.4 4.9.2 7.1-.1 7.3-1 .3-.6 0-1.2-.7-1.2-.6 0-.8-.5-.5-1 .8-1.3 6.5-1.3 8.5 0zm-25 1.5c0 1-1 1.5-2.7 1.5l-2.8-.1 2.5-1.4c3.1-1.8 3-1.8 3 0zm-109.3.1c-.3.3-1.2.4-1.9.1-.8-.3-.5-.6.6-.6 1.1-.1 1.7.2 1.3.5zm181.7 3.5c-.8 1.4-3.1 1.1-3.7-.4-.4-1 .2-1.3 1.9-.9 1.3.2 2.1.8 1.8 1.3zm-373.7.5c-.3.3-1.2.4-1.9.1-.8-.3-.5-.6.6-.6 1.1-.1 1.7.2 1.3.5zm122.2 1c.2.2-.7.4-2.2.4-1.4 0-2.9-.5-3.2-1-.6-1 4.2-.4 5.4.6zm275.6-.6c.3.5-.1 1-1 1s-1.3-.5-1-1c.3-.6.8-1 1-1 .2 0 .7.4 1 1zm-248.6.4c-1.2 1-5.9 1.5-5.9.6 0-.5 1.4-1 3.2-1 1.7 0 2.9.2 2.7.4zm209.1 2.2c0 1.1-.5 1.4-1.6 1-.9-.3-2.5-.6-3.5-.6-1.1 0-1.7-.5-1.4-1 1.1-1.7 6.5-1.2 6.5.6zm-293 .4c0 .5-.9 1-1.9 1-1.1 0-2.3-.5-2.6-1-.4-.6.5-1 1.9-1s2.6.4 2.6 1zm98.5 1c.4.6-.6 1-2.2.9-2.5 0-2.6-.1-.8-.9 1.1-.5 2.1-.9 2.2-.9.1-.1.5.3.8.9zm9.2-.4c-.3.3-1.2.4-1.9.1-.8-.3-.5-.6.6-.6 1.1-.1 1.7.2 1.3.5zm144.8.4c.4.6-.7 1-2.7.9-3.1-.1-3.2-.1-.8-.9 1.4-.4 2.6-.8 2.7-.9.1-.1.5.3.8.9zm19 .9c6.7 1.3 9.4 2.1 8.2 2.6-2.3 1-12.2-.2-15.1-1.7-1.1-.7-3.9-1.5-6.1-1.9l-4-.6 3.5-.1c1.9 0 8 .7 13.5 1.7zm-235 .1c.7 1.2-3.2 1.2-6 0-1.6-.7-1.3-.9 1.7-.9 2-.1 4 .3 4.3.9zm80 0c-.3.5-1.2 1-1.8 1-.7 0-.6-.4.3-1 1.9-1.2 2.3-1.2 1.5 0zm76.3 1.7c1.3 1.3 5.4 1.2 8.4-.1.9-.4 2.5-.3 3.5.3 1.6.9 1.5 1-.9 1.1-1.4 0-2.8.4-3 .9-.2.5-2.9.5-6.3 0-3.3-.5-6.7-.6-7.5-.4-.8.2-2.6-.4-4-1.5l-2.5-1.9 5.5.2c3 .1 6.1.8 6.8 1.4zm37.6 1.2c1.9 3.5 7.3 4.9 9.4 2.3 1.1-1.5 1-1.7-.7-2-2.4-.4-2.9-2.2-.6-2.2 1.2 0 6.1 1.8 7.4 2.7.2.1-.2.9-.9 1.8-1.1 1.3-.7 1.5 2.6 1.4 3.3-.1 3.5-.2 1.4-.8-2.3-.6-2.3-.8-.6-1.4 1-.4 2.8-.5 3.9-.1 1 .3 2.9.1 4.2-.6 1.7-.9 3.7-.9 8.6 0 3.5.6 8.2 1.3 10.4 1.6 6.4.8 8.5 1.4 8.5 2.5 0 1.8-2.9 2.1-4.5.5-1-1-3.5-1.6-6.3-1.7-9.3-.2-10.7-.4-10.4-1.7.1-.6-.2-1.2-.8-1.2-.5 0-1 .4-1 1 0 .5-2.1 1-4.7 1-4.3 0-4.5.1-2.7 1.5 1.7 1.3 1.1 1.4-6.1 1.4-4.4 0-9.4.3-11 .7l-2.9.7 2.5 1.1c2.3 1 2.2 1-1.5 1.4-2.2.2-4.9-.2-6.1-.8-2.6-1.4-4.9-1.8-9.7-1.9-2.1-.1-3.8-.6-3.8-1.2 0-.8 2.9-.9 9.5-.4 6.8.5 9.5.4 9.5-.4 0-.6-.4-1.1-.9-1.1-1.2 0-6.1-4.7-6.1-6 0-2 2-1 3.4 1.9zm69.9-2.2c-.7.2-1.9.2-2.5 0-.7-.3-.2-.5 1.2-.5s1.9.2 1.3.5zm-254.6.9c-.3.3-1.2.4-1.9.1-.8-.3-.5-.6.6-.6 1.1-.1 1.7.2 1.3.5zm177.8 1.5c.7.9-.4 1-4.3.6-4.6-.5-5.2-.4-5 1.1.2 1.1-.5 1.8-1.9 2-1.3.2-2.3-.1-2.3-.7s.6-1.1 1.3-1.2c.9 0 .9-.2-.1-.6-1-.4-.9-.9.5-1.9 2-1.7 10-1.1 11.8.7zm85.2-1.5c-.3.3-1.2.4-1.9.1-.8-.3-.5-.6.6-.6 1.1-.1 1.7.2 1.3.5zm-366 1c-.3.3-1.2.4-1.9.1-.8-.3-.5-.6.6-.6 1.1-.1 1.7.2 1.3.5zm118.1 1.2c2.5.8 2.7 2.9.2 2.4-.8-.1-2.7-.3-4.3-.3-1.5 0-4-.7-5.5-1.5-2.7-1.4-2.6-1.4 2.3-1.3 2.8.1 6 .4 7.3.7zm280.2 1.7c0 .8-.4 1.5-1 1.5-.5 0-1-.7-1-1.5s.5-1.5 1-1.5c.6 0 1 .7 1 1.5zm-113.2 0c-.8.8-7.7.9-8.5.2-.3-.4 1.5-.7 4.2-.7s4.6.2 4.3.5zm62.7.5c.3.5.2 1-.4 1-.5 0-1.3-.5-1.6-1-.3-.6-.2-1 .4-1 .5 0 1.3.4 1.6 1zm39.5-.1c0 .6-.4 1.3-1 1.6-.5.3-1 .2-1-.4 0-.5-.8-1.2-1.7-1.4-1.1-.3-.7-.5 1-.6 1.5 0 2.7.3 2.7.8zm5 .1c-2 1.3-4 1.3-4 0 0-.6 1.2-1 2.8-1 2.1 0 2.4.2 1.2 1zm-36.3 1.7c-.4.3-.2 1.2.4 2 1.2 1.4.2 1.7-2.5.7-1.8-.7-1-3.4 1.2-3.4.8 0 1.2.3.9.7zm-225.2 2.6c.7.6 0 .7-2 .3-1.6-.4-3.4-1.2-4-1.7-.7-.7 0-.8 2-.3 1.7.3 3.5 1.1 4 1.7zm207.4 1.1c1.1.7 1.1 1-.3 1.8-.9.5-1.4 1.3-1.1 1.9.8 1.2-3.7 1.2-7.1-.1-1.8-.7-2.9-.7-3.4-.1-.3.7-1.7.7-3.5.2-2.6-.7-2.2-.9 3.8-1.6 7.9-.9 9.5-2.2 3.7-3.1-2.3-.4-3.7-1-3-1.4 1.1-.7 8.5.9 10.9 2.4zM483 117c0 .5-.9 1-2 1s-2-.5-2-1c0-.6.9-1 2-1s2 .4 2 1zm-56.7.7c-.7.2-2.1.2-3 0-1-.3-.4-.5 1.2-.5 1.7 0 2.4.2 1.8.5zm62.7-.3c0 1.1-1.9 1.5-2.5.6-.3-.5.1-1 .9-1 .9 0 1.6.2 1.6.4zm-243 1.3c0 .5-1.1.8-2.5.8s-2.5-.3-2.5-.8c0-.4 1.1-.7 2.5-.7s2.5.3 2.5.7zm222.4 1.4c-.3.5-1.3.9-2.2.8-1.1 0-1.2-.2-.4-.6.6-.2 1-.9.7-1.4-.4-.5.1-.6.9-.3.9.3 1.3 1 1 1.5zm7.9-1.4c-.7.2-2.1.2-3 0-1-.3-.4-.5 1.2-.5 1.7 0 2.4.2 1.8.5zm-70.8 1.3c-.3.5-1.7 1-3.1 1-1.3 0-2.4-.5-2.4-1 0-.6 1.4-1 3.1-1 1.7 0 2.8.4 2.4 1zm-147 .9l4 .7-4.9.6c-3.6.4-5.3.2-6.3-.8-1.2-1.2-1.1-1.4.9-1.3 1.3 0 4.1.4 6.3.8zm162.8 1.2c-.8.8-1.6.8-3 0-1.6-.9-1.4-1 1.2-1.1 2.1 0 2.6.3 1.8 1.1zm55.7-.1c1.4.7 2.5.7 3.8-.1 1.5-1 2.4-.9 4.3.4 1.3 1 4 1.7 6.1 1.7 2.1 0 3.8.5 3.8 1.1 0 .6-2.1.9-5.2.7-3.7-.2-5.2-.7-5-1.6.2-1-.8-1.2-4-.7-3 .5-5.2.2-7.3-.9-2.8-1.5-2.8-1.6-.7-1.6 1.3 0 3.2.5 4.2 1zm-208 1c0 .5 1.4 1 3 1 1.7 0 3 .5 3 1.1 0 .6 1.4.9 3.2.7 1.7-.2 3.3.1 3.5.7.7 2.1-6.7.9-13.4-2.1-3.8-1.7-4.1-2.4-1.3-2.4 1.1 0 2 .4 2 1zm118.5 1c.3.5.1 1-.4 1-.6 0-1.1-.5-1.1-1 0-.6.2-1 .4-1 .3 0 .8.4 1.1 1zm-67.5.4c0 .2-.7.9-1.5 1.6-1.2 1-1.5 1-1.5-.4 0-.9.7-1.6 1.5-1.6s1.5.2 1.5.4zm22.5.6c.3.5.1 1-.4 1-.6 0-1.1-.5-1.1-1 0-.6.2-1 .4-1 .3 0 .8.4 1.1 1zm-55 1c.3.5-.3 1-1.4 1-1.1 0-2.3-.5-2.6-1-.3-.6.3-1 1.4-1 1.1 0 2.3.4 2.6 1zm212.2-.4c-.3.3-1.2.4-1.9.1-.8-.3-.5-.6.6-.6 1.1-.1 1.7.2 1.3.5zm-69 1c-.3.3-1.2.4-1.9.1-.8-.3-.5-.6.6-.6 1.1-.1 1.7.2 1.3.5zM203 128c0 .5-.4 1-1 1-.5 0-1-.5-1-1 0-.6.5-1 1-1 .6 0 1 .4 1 1zm90.5 0c.8 1.3-.5 1.3-2.5 0-1.3-.8-1.3-1 .2-1 .9 0 2 .4 2.3 1zm84.5 0c0 .5-.7.7-1.5.4-.8-.4-1.5-.8-1.5-1 0-.2.7-.4 1.5-.4s1.5.4 1.5 1zm67.7-.4c-.3.3-1.2.4-1.9.1-.8-.3-.5-.6.6-.6 1.1-.1 1.7.2 1.3.5zm-251 2c-.3.3-1.2.4-1.9.1-.8-.3-.5-.6.6-.6 1.1-.1 1.7.2 1.3.5zm81 0c-.3.3-1.2.4-1.9.1-.8-.3-.5-.6.6-.6 1.1-.1 1.7.2 1.3.5zm28.3 1c0 .2-1.3.4-3 .4-1.6 0-3-.4-3-.8 0-.5 1.4-.7 3-.4 1.7.2 3 .6 3 .8zm59.3-.6c.8 0 .8.3 0 1.1-.7.7-2.3.9-3.9.5-2.2-.6-2.5-.9-1.3-1.7.7-.5 2-.7 2.7-.4.8.3 1.9.5 2.5.5zm46.1-.4c2.2.9 2 2.4-.3 2.4-2.8 0-5.2 1.1-4.5 2.1.3.5-1.5.9-4 .9-4.9 0-6.5 1.9-1.8 2.1 1.7.1 2 .3.9.6-.9.2-1.5.9-1.2 1.4.4.5-1 .9-3 .9-2.2 0-3.4-.4-3-1 .3-.6.1-1-.4-1-.6 0-1.1-.8-1.1-1.8 0-1.1-1-2.4-2.2-3-1.9-.9-1-1.1 5-1.1 3.9-.1 7.2-.5 7.2-1 0-1.6 5.6-2.6 8.4-1.5zm13.1.4l2 .9h-2c-1.1 0-2.7-.4-3.5-.9-1.3-.9-1.3-1 0-.9.8 0 2.4.4 3.5.9zm-73.3 2.2c-.6.6-1.6.7-2.2.3-.9-.6-.9-.9.1-1.6 1.7-1 3.4 0 2.1 1.3zm34.2-.7c-1.8 1.3-1.8 1.4-.1 1.5 1 0 1.5.4 1.2 1-.3.6.4 1 1.7 1 1.8 0 2 .2.8 1-.8.5-2.5 1-3.7 1-1.3 0-2.3.3-2.3.7 0 .5-2.6.8-5.8.8-4.4 0-6.5-.5-9-2.3-1.8-1.3-3-2.7-2.7-3.1.5-.9 9.4-.3 14.4.9 3.2.9 3.3.8 1.6-1-1.6-1.7-1.5-1.9.7-2.3 4.7-.9 5.2-.7 3.2.8zm12.4-.8c-1 .2-2.6.2-3.5 0-1-.3-.2-.5 1.7-.5s2.7.2 1.8.5zm58.7 1.3c.4.6-1.2.9-4.2.9-4.7-.2-4.7-.2-1.3-.9 1.9-.4 3.8-.8 4.2-.9.4 0 1 .3 1.3.9zm8.5 1c-1.1 1.1-2.7 2-3.5 2-1.2 0-1.2-.3.2-2 1-1.1 2.5-2 3.5-2 1.7 0 1.6.2-.2 2zm-155.3-.4c-.3.3-1.2.4-1.9.1-.8-.3-.5-.6.6-.6 1.1-.1 1.7.2 1.3.5zm14.5.3c1.3.4 4.3 1.1 6.7 1.5 3.9.6 4.3.5 3.1-.9-1-1.3-.9-1.5.6-1.5 1.1 0 3.2.7 4.8 1.5 1.5.8 3.7 1.5 4.7 1.5s2.1.5 2.5 1.1c.5.9-.2 1-2.2.5-7.8-1.7-9.1-1.8-10.5-.4-1.1 1.1-2.3 1.2-5.7.4-2.4-.6-4-1.4-3.6-1.9.4-.4.2-.7-.4-.7-.7 0-1.2.7-1.2 1.5 0 1.7-3.7 2-6 .4-1.1-.8-1.2-1.2-.2-1.6.6-.2 1-.9.6-1.4-.7-1.1 3.7-1.2 6.8 0zm34.1-.2c-.7.2-2.1.2-3 0-1-.3-.4-.5 1.2-.5 1.7 0 2.4.2 1.8.5zm66 2.7c1.6.4 2.7 1.3 2.7 2.3 0 1.3-.9 1.5-5.8 1-8.7-.9-10.2-1.7-6.1-3.2 3.4-1.2 3.9-1.2 9.2-.1zm7-.7c-.7.2-2.1.2-3 0-1-.3-.4-.5 1.2-.5 1.7 0 2.4.2 1.8.5zm-69.6.9c-.3.3-1.2.4-1.9.1-.8-.3-.5-.6.6-.6 1.1-.1 1.7.2 1.3.5zm79.8.4c1.8.8 1.8.9-.5.9l-2.5.1 2.5 1.3c1.4.7 4.3 1.4 6.5 1.4 2.2.1 4.1.6 4.3 1.2.2.5 1 .7 1.9.4 1-.4 1.4-.1 1.2 1.1-.2.9-.7 1.7-1.1 1.7-.5-.1-2-.1-3.5-.1-2.6 0-2.6-.1-.7-1.5 1.7-1.3 1-1.4-6.3-.8-5.9.4-8.3.3-8.3-.6 0-.6-1.7-1.2-3.7-1.2-3.7-.1-3.7-.2-.8-.8 1.7-.3 3.1-1.2 3.1-1.9.1-.6.2-1.4.3-1.7.2-.8 5.4-.4 7.6.5zm-32 1c-.3.5-1 1-1.6 1-.5 0-.9-.5-.9-1 0-.6.7-1 1.6-1 .8 0 1.2.4.9 1zm-35.6 4.8c1.3 1.2.6 1.3-5 .7-8.3-.9-9.5-2.1-2.1-2.1 3.6 0 6.2.5 7.1 1.4zm31.4-1.1c-.7.2-1.9.2-2.5 0-.7-.3-.2-.5 1.2-.5s1.9.2 1.3.5zm7.7.7c.6.8 1.8 1.2 2.6.9 1.7-.6 6.4.4 6.4 1.5 0 .4-2.3.7-5.2.8-4.8 0-8.8-1.7-8.8-3.8 0-1.4 3.7-.9 5 .6zm78.5-.4c.3.6-.4 1-1.7 1-2.2.1-2.2.1-.4 1.5 2 1.5 2 1.5 0 1.4-1 0-5.5-.6-9.9-1.3l-8-1.3 6-.7c3.3-.4 6.7-.9 7.5-1 3.2-.7 5.9-.6 6.5.4zm-270.5.4c0 .3-.4.8-1 1.1-.5.3-1 .1-1-.4 0-.6.5-1.1 1-1.1.6 0 1 .2 1 .4zm7 1.6c-.8.5-1.1 1-.5 1 .5 0 .4.5-.2 1.1-.6.6-2.2.7-3.8.3-2.6-.7-2.7-.8-1-2 1.1-.8 3-1.4 4.4-1.4 2.1 0 2.3.2 1.1 1zm-27.5 1c-1.1.5-2.7.9-3.5.9-1.3.1-1.3 0 0-.9.8-.5 2.4-.9 3.5-.9h2l-2 .9zm239 .5c-6.1 1.6-13.9 1.9-13 .5.3-.5 1.2-.7 1.9-.4.8.3 1.7.1 2-.4.3-.5 3.6-.9 7.3-.9h6.8l-5 1.2zm72.9-.7c.2.4-1.3.6-3.5.4-2.1-.2-3.9-.6-3.9-.8 0-.7 6.9-.4 7.4.4zm-294.7.8c-.3.3-1.2.4-1.9.1-.8-.3-.5-.6.6-.6 1.1-.1 1.7.2 1.3.5zm158.3 1.1c0 .6 1 1.4 2.3 1.6 1.2.3.2.2-2.3 0-13.4-1.4-16.7-2.8-6.4-2.8 4.3 0 6.4.4 6.4 1.2zm-141.3-.1c-.3.3-1.2.4-1.9.1-.8-.3-.5-.6.6-.6 1.1-.1 1.7.2 1.3.5zm10.8.4c.3.5-.1 1-.9 1s-1.8-.5-2.1-1c-.3-.6.1-1 .9-1s1.8.4 2.1 1zm4.5-.6c0 1.1-1.9 1.5-2.5.6-.3-.5.1-1 .9-1 .9 0 1.6.2 1.6.4zm9 .6c0 .5-.7 1-1.5 1s-1.5-.5-1.5-1c0-.6.7-1 1.5-1s1.5.4 1.5 1zm242.8-.3c-1 .2-2.8.2-4 0-1.3-.2-.5-.4 1.7-.4 2.2-.1 3.2.1 2.3.4zm10.9.9c-.3.3-1.2.4-1.9.1-.8-.3-.5-.6.6-.6 1.1-.1 1.7.2 1.3.5zm-236 1c-.3.3-1.2.4-1.9.1-.8-.3-.5-.6.6-.6 1.1-.1 1.7.2 1.3.5zm108.7.8c-.3.8.4 1.6 1.8 1.9 1.8.5 2 .9 1.1 1.8-1 1-2.1 1-4.9.1-3-.9-3.5-.8-3 .4.3.8-.1 1.4-.9 1.4-2.7 0-1.6 1.8 1.5 2.5 1.9.4 3.6.2 4.6-.5.8-.8 3-1.1 5.4-.7 2.6.3 4.3.1 5-.8.8-1 .7-1.5-.7-1.8-1-.3-.5-.5 1.1-.4 1.6.1 3.1-.4 3.3-1.1.3-.8-.8-1.2-3.4-1.3-2.1 0-4.7-.4-5.8-.8-1.2-.5 1.3-.8 6.3-.7 4.5 0 8.2.5 8.2.9 0 .5-1 .5-2.2.2-1.6-.4-1.9-.4-.9.3.7.5 1.1 1.4.7 2-.3.6-.2 1.3.4 1.7 1.6 1 .1 2.7-1.8 2.1-1-.3-2.4-.1-3.2.4-1.2.8-.9 1 1.3 1 1.5 0 2.7.4 2.7.9 0 1.4 6.7 2.4 14.5 2.3 5-.1 6.3.1 4.5.7-5.8 2-23 .4-23-2.1 0-.5-3.4-.6-8.5-.2-7 .6-8.8.4-10.3-.9-.9-.8-3.5-1.7-5.6-1.9-2.2-.2-4.1-.8-4.3-1.3-.4-1.2 8-4.5 11.5-4.5 1.3 0 2.1-.4 1.8-.9-.4-.5 0-1.2.6-1.4 2.2-.9 2.8-.7 2.2.7zm-153.7 2.4c-3.4.4-4.8-.5-2.7-1.8.8-.5 2.2-.4 3.4.3 2 1.1 2 1.2-.7 1.5zm-21.4-1.1c-.7.2-2.1.2-3 0-1-.3-.4-.5 1.2-.5 1.7 0 2.4.2 1.8.5zm36.7.2c0 1-6.7.8-7.7-.3-.3-.3 1.2-.6 3.5-.6s4.2.4 4.2.9zm49.7-.3c-.3.3-1.2.4-1.9.1-.8-.3-.5-.6.6-.6 1.1-.1 1.7.2 1.3.5zm-71 1c-.3.3-1.2.4-1.9.1-.8-.3-.5-.6.6-.6 1.1-.1 1.7.2 1.3.5zm213.8 1.2c.3.8 2.1 1.2 5.6 1 3.6-.2 5.3.1 5.5 1 .1.7 0 .8-.3.2-.6-1.3-3.3-1.3-3.3 0s-15.7 1.3-16.2 0c-.2-.6-3.6-1.1-7.6-1.2-6.8-.1-8.4-1-3.7-2 4.6-1.1 19.5-.3 20 1zm28.2-1.2c-.3.3-1.2.4-1.9.1-.8-.3-.5-.6.6-.6 1.1-.1 1.7.2 1.3.5zm-113.8 1.5c-1.9 1.2-9.9 1.1-9.9-.1 0-.5 2.5-.9 5.6-.9 3.7.1 5.2.4 4.3 1zm61.1.9c0 .5-1.1 1-2.5 1s-2.5-.5-2.5-1c0-.6 1.1-1 2.5-1s2.5.4 2.5 1zm89 .1c0 .5.4.8.9.4.5-.3 1.2-.1 1.6.5.7 1.1-1.5 1.3-3.9.4-.9-.3-1.3-1-1-1.5.7-1.2 2.4-1.1 2.4.2zm-193.3.5c-.3.3-1.2.4-1.9.1-.8-.3-.5-.6.6-.6 1.1-.1 1.7.2 1.3.5zm177.3.4c1.3.9 1.3 1 0 1-.8 0-2.5.3-3.7.6-1.3.4-2.3.2-2.3-.4 0-.9 1.2-1.5 4-2.1.3 0 1.2.4 2 .9zm-24.9 2.3c1.8 1.3 1.3 1.5-4.7 2.1-5.6.6-7 .4-8.3-1-1.5-1.5-1.3-1.6 2.1-1.1 3.7.6 6-.6 3.6-1.7-.7-.4.2-.4 2-.1 1.8.3 4.2 1.1 5.3 1.8zm-195.4-.7c-.3.3-1.2.4-1.9.1-.8-.3-.5-.6.6-.6 1.1-.1 1.7.2 1.3.5zm63.3.8l4.5 1.5h-6.3c-5.4.1-6.1-.1-5-1.4 1.6-1.8 1.4-1.8 6.8-.1zm-87 .6c0 .5-.4 1-1 1-.5 0-1-.5-1-1 0-.6.5-1 1-1 .6 0 1 .4 1 1zm190.5 1c.8 1.3-2.5 1.3-4.5 0-1.2-.8-.9-1 1.2-1 1.5 0 3 .4 3.3 1zm-77.5 1.4c0 1.6 2.2 2.2 10.3 3.2 7.8.9 8.7 2.8 1.1 2-10.4-.9-14.4-1.8-13.8-2.8.5-.7-1.2-.9-5-.6-3.1.3-5.6.1-5.6-.4 0-.4 2.2-.8 4.9-.8 2.8 0 5.3-.5 5.6-1 .9-1.5 2.5-1.2 2.5.4zm87.5-.4c-.8 1.3-4.5 1.3-6.5 0-1.1-.7-.3-1 2.8-1 2.6 0 4.1.4 3.7 1zm42.5 0c0 .5-.7 1-1.5 1s-1.5-.5-1.5-1c0-.6.7-1 1.5-1s1.5.4 1.5 1zm21.9-.4c5.1 1.1 2.4 2.4-4.7 2.3-3.7 0-6.1-.3-5.3-.6 1.1-.5 1.1-.7 0-1.4-1.7-1 5.2-1.2 10-.3zM337.5 161c.4.6-.5 1-1.9 1s-2.6-.5-2.6-1c0-.6.9-1 1.9-1 1.1 0 2.3.4 2.6 1zm55.5 0c1.2.8 1.1 1-.7 1-1.2 0-2.5-.5-2.8-1-.8-1.3 1.5-1.3 3.5 0zm-96 1.5c1.6 1.9.1 1.9-2.4 0-1.6-1.2-1.7-1.5-.4-1.5.8 0 2.1.7 2.8 1.5zm82 .5c1.3 1.1 3.9 2.5 5.9 3 7.7 2.1 6.8 3-2.4 2.4-4.9-.3-9.7-.8-10.5-1-2.7-.9 1.1-2.3 4.4-1.7 2.1.4 2.7.3 2.2-.5-.4-.7-1.4-1.2-2.2-1.2-.8 0-1.4-.7-1.4-1.5 0-2 1.3-1.9 4 .5zm8-1c0 .5-.4 1-.9 1-.6 0-1.3-.5-1.6-1-.3-.6.1-1 .9-1 .9 0 1.6.4 1.6 1zm47.6 2.1c.8 1.3 16.4 1.1 16.4-.2 0-.7-1.1-.9-2.7-.5-2.6.5-2.6.5-.6-.6 2.8-1.4 7-.3 8.3 2.1.9 1.8.4 1.9-10.6 2-6.4 0-11.9.3-12.2.5-.4.2-2.7 0-5.2-.4l-4.5-.7 5.3-.2c6.8-.1 6-2.1-.9-2.1-2.7 0-4.9.4-4.9 1 0 1.3-3.7 1.3-4.5 0-.6-1 2-1.8 7.5-2.2 4.4-.4 7.9.2 8.6 1.3zm57.9-1.1c.4.6-.7.9-2.7.8-1.8-.1-5.3.2-7.8.6-3.1.6-4.2.5-3.5-.2.9-.9 3.8-1.5 11.2-2 1.2-.1 2.5.3 2.8.8zm-79.8 1.6c-.3.3-1.2.4-1.9.1-.8-.3-.5-.6.6-.6 1.1-.1 1.7.2 1.3.5zm56 1c-.3.3-1.2.4-1.9.1-.8-.3-.5-.6.6-.6 1.1-.1 1.7.2 1.3.5zm-150.2 3.2c-.3.3-1.1 0-1.8-.7-.9-1-.8-1.1.6-.5 1 .3 1.5.9 1.2 1.2zm31.5-.8c1.3.9 1.3 1 0 1-.8 0-2.2-.5-3-1-1.3-.9-1.3-1 0-1 .8 0 2.2.5 3 1zm-17.5 1c1.9.8 1.9.9-.2.9-1.2.1-2.5-.4-2.8-.9-.7-1.2.2-1.2 3 0zm11.5 1c0 .5-.4 1-1 1-.5 0-1-.5-1-1 0-.6.5-1 1-1 .6 0 1 .4 1 1zm24.6 1c1.5.6 2.4 1.3 2.1 1.6-.8.8-7.7-.7-7.7-1.7 0-1.2 2.3-1.1 5.6.1zm121.3 1.1c-1.6.6-3.5.6-5 0-2-.8-1.6-1 2.6-1 4.3.1 4.6.2 2.4 1zm-152.6.6c-.7.2-2.1.2-3 0-1-.3-.4-.5 1.2-.5 1.7 0 2.4.2 1.8.5zm93.2.7c4.3 1.2 4.6 1.4 1.9 1.5-5.1.2-12.4-1.1-11.8-2 .7-1.3 4.1-1.1 9.9.5zm-77 2.4c1.6 1.2 1.7 1.3.2.9-.9-.4-4.6-1.2-8.2-1.8-3.6-.6-6.5-1.3-6.5-1.6 0-1 12.7 1.1 14.5 2.5zm41.2-.2c-2.9 1-4.4 1.1-5.9.3-1.1-.6-2.6-.8-3.3-.5-.8.3-1.7.1-2-.4-.4-.6 2.5-1 7.2-.9h7.8l-3.8 1.5zm16.6.1c-.7.2-2.1.2-3 0-1-.3-.4-.5 1.2-.5 1.7 0 2.4.2 1.8.5zm-39 2c-.7.2-2.1.2-3 0-1-.3-.4-.5 1.2-.5 1.7 0 2.4.2 1.8.5zM150 194c0 .5-.4 1-1 1-.5 0-1-.5-1-1 0-.6.5-1 1-1 .6 0 1 .4 1 1zm247.5 1.7c-1.7 1.6-4.6 1.4-5.2-.4-.3-.7.9-1.1 3.1-1.1 3.1 0 3.4.2 2.1 1.5zm20.5-.7c1.1.7-.3.9-4.5.9-4.5-.1-5.4-.3-3.5-.9 3.5-1.1 6.3-1.1 8 0zm-73.5 3.1c-.4.5-2.1.8-3.8.8-2.1-.1-2.5-.3-1.2-.6 1.1-.3 2.4-.9 2.9-1.4 1.1-1 2.8-.1 2.1 1.2zm96-.1c1.8 2 1.7 2-2 2-3 0-3.5-.3-2.6-1.3.6-.8.8-1.7.4-2-.3-.4 0-.7.9-.7.8 0 2.3.9 3.3 2zm14.4-.6c-.9.8-9.9 1.3-9.9.5 0-.5 2.3-.9 5.2-.9 2.8 0 4.9.2 4.7.4zm5.4.3c-.7.2-1.9.2-2.5 0-.7-.3-.2-.5 1.2-.5s1.9.2 1.3.5zm-68.5 1.7c.3.3-2.7.6-6.6.6-4.1 0-7.2-.4-7.2-1 0-1 12.7-.6 13.8.4zm16.2 1.3l-2.4 1.7 3.4.8c2.6.5 3.8.3 4.6-.8 1.3-1.6 6.5-1.9 8-.4.5.5 4.6 1.2 9.2 1.6 5.3.4 8.1 1.1 7.9 1.8-.6 1.9-35 .8-52.2-1.7-6.3-.9-8.3-1.5-6.8-2.1 1.1-.3 6.7.1 12.2.9 5.6.9 10.7 1.4 11.4 1.2.7-.3-.1-.6-1.8-.6-2.7-.1-7.3-2-5-2.1.6 0 .3-.5-.5-1-1-.7 1-1 6.5-1 7.8 0 7.9 0 5.5 1.7zm42.4.8c1.1.8 2.9 1.6 4 1.6 1.2.1-1.2.5-5.3 1-7.9.9-9.7.5-6.9-1.5 1-.7 1.5-1.6 1.1-1.9-1.3-1.4 5.3-.6 7.1.8zm-78.2.5c-4.5 1.1-4.9 1.7-1.3 2.5 4.7 1 4.5 2.2-.5 3-4.9.7-7.7-.6-6.7-3.1.3-1-.2-1.4-1.8-1.4-1.9 0-2.1-.2-.9-1 .8-.5 4.4-.9 8-.9 5.4.1 5.9.2 3.2.9zm53.5-.4c-.3.3-1.2.4-1.9.1-.8-.3-.5-.6.6-.6 1.1-.1 1.7.2 1.3.5zm46.8 2.4c.4.6-.6 1-2.2 1-2.2 0-2.5-.2-1.3-1 1.9-1.2 2.7-1.2 3.5 0zm21 0c-.3.5-1 1-1.6 1-.5 0-.9-.5-.9-1 0-.6.7-1 1.6-1 .8 0 1.2.4.9 1zm-102.2 1.7c-.7.2-2.1.2-3 0-1-.3-.4-.5 1.2-.5 1.7 0 2.4.2 1.8.5zM46.5 225.5v19h-39l-.3-18c-.1-9.8 0-18.5.3-19.2.3-1.1 4.6-1.3 19.7-1.1l19.3.3v19zm119.8-17.8c-.7.2-1.9.2-2.5 0-.7-.3-.2-.5 1.2-.5s1.9.2 1.3.5zm160.3.5c.4.5 1.9.8 3.2.8 1.4 0 2.3.3 2 .6-.8.8-16.8-.7-16.8-1.5 0-1 10.6-.8 11.6.1zm85.9-.2c.8 1.3-1.5 1.3-3.5 0-1.2-.8-1.1-1 .7-1 1.2 0 2.5.4 2.8 1zm44 0c2.5 1.1-.1 1.1-3.5 0-2-.6-2.1-.8-.5-.8 1.1 0 2.9.3 4 .8zm-30.5 1c1.1.7.4 1-2.5 1s-3.6-.3-2.5-1c.8-.5 2-1 2.5-1 .6 0 1.7.5 2.5 1zm53.2 1c2 .4 4.9.5 6.4.2 2-.4 2.5-.2 1.9.8-1.2 1.9-25.5-.1-25.5-2.1 0-1 10.6-.3 17.2 1.1zm18.1-1.3c-.7.2-1.9.2-2.5 0-.7-.3-.2-.5 1.2-.5s1.9.2 1.3.5zM196 211c0 .5-.4 1-1 1-.5 0-1-.5-1-1 0-.6.5-1 1-1 .6 0 1 .4 1 1zm205.1 2.7c.4.4-3.3.9-8.4.9-5.8.1-9.2.5-9.5 1.3-.2.7-2.7 1-6.5.9-4.4-.1-5.1-.3-2.4-.5 3.7-.4 3.8-.5 2.2-2.3-1.6-1.8-1.2-1.8 11.1-1.5 7 .2 13 .7 13.5 1.2zm51.4.3c1.1.5 2.7 1.1 3.5 1.3.8.3.3.6-1.2.6-1.5.1-3-.4-3.3-.9-.3-.6-3.7-1-7.6-1-3.8 0-6.9-.4-6.9-.9 0-1 12.6-.3 15.5.9zm-42.5 0c0 .5-1.7 1-3.7.9-3.1 0-3.4-.2-1.8-.9 2.8-1.2 5.5-1.2 5.5 0zm-47.3.6c-.3.3-1.2.4-1.9.1-.8-.3-.5-.6.6-.6 1.1-.1 1.7.2 1.3.5zM249 217.1c1.1.6.9.8-1 .8-1.4 0-3.6-.6-5-1.5-2.5-1.5-2.5-1.5 1-.8 1.9.3 4.2 1 5 1.5zm167.3-1.4c-.7.2-1.9.2-2.5 0-.7-.3-.2-.5 1.2-.5s1.9.2 1.3.5zm25 1c-1.3.2-3.3.2-4.5 0-1.3-.2-.3-.4 2.2-.4s3.5.2 2.3.4zm-176.6.9c-.3.3-1.2.4-1.9.1-.8-.3-.5-.6.6-.6 1.1-.1 1.7.2 1.3.5zm133 1.1c4.9.6 4.8 2.2 0 2.4l-3.2.2 3.5.7c1.9.3 6.8.4 10.8.2 5-.3 7.2-.1 7.2.7 0 .6 1 1.1 2.3 1.1 2 .1 2.1.1.4 1.1-1.1.6-3.3.8-5 .4-1.8-.4-6.9-.8-11.4-.9-4.5-.2-8.8-.7-9.5-1.3-.7-.5-2.7-1-4.5-1.1-1.7-.1-4.4-.9-6-1.8l-2.8-1.5 5 .2c6.9.2 8.5-.1 5.5-1.2-2.2-.8-2.2-.8.5-.3 1.7.3 4.9.8 7.2 1.1zM264 221c1.3.8 1.3 1-.2 1-.9 0-2-.5-2.3-1-.8-1.3.5-1.3 2.5 0zm67 0c1.2.8 1.2 1-.5 1-1.1 0-2.7-.5-3.5-1-1.2-.8-1.2-1 .5-1 1.1 0 2.7.5 3.5 1zm-72.7.7c-.7.2-1.9.2-2.5 0-.7-.3-.2-.5 1.2-.5s1.9.2 1.3.5zm119.7.3c1.3.8 1.3 1-.2 1-.9 0-2-.5-2.3-1-.8-1.3.5-1.3 2.5 0zm-135.2.9c1.1.7 1.1.9-.1 1.4-1.6.6-2.7 0-2.7-1.5 0-1 1.1-1 2.8.1zm186.7.1c.4.6-.6 1-2.4 1-1.6 0-3.3-.5-3.6-1-.4-.6.6-1 2.4-1 1.6 0 3.3.4 3.6 1zm-148 8c1.5 4.4 3 7.8 3.4 7.6.4-.3 2-3.9 3.6-8.1 4.1-10.6 5.6-10 7.2 3 1.5 11.4 1.1 13.8-1.4 11.2-1.1-1.1-1.6-3-1.5-5.5.2-2.1-.1-4.9-.6-6.2-.8-2.2-1.2-1.6-3.3 5-1.3 4-2.9 7.5-3.6 7.8-1.2.3-5.3-7.4-5.3-10.1 0-.7-.7-2.2-1.5-3.3-1.4-1.8-1.5-1.7-1.4 1.6.1 5.3-1.4 11.3-3 11.8-1.2.4-1.3-.9-.7-7.4.8-9.1 2.6-15.4 4.3-15.4.6 0 2.3 3.6 3.8 8zm-30.5-4.5c1.1 1.3 1 1.4-.4.9-1.1-.4-1.6-.1-1.6 1.1 0 1.2-.5 1.5-2 1s-2-.2-2 1.3c0 1.1.7 2.3 1.6 2.6.8.3 1.2 1 .9 1.6-.4.6-1 .8-1.5.5-.4-.3-.8 1.2-.8 3.3 0 2 .5 4 1.1 4.4.7.5.1.8-1.4.8-2.3 0-2.5-.3-2.1-3 .3-2.4.1-3-1.4-3.1-1.5 0-1.6-.2-.4-.7.8-.4 1.6-2 1.8-3.6.5-4.3 2-6.6 4.2-6.6 1.1 0 2-.5 2-1 0-1.4.5-1.3 2 .5zm240.7-.9c-.3.3-1.2.4-1.9.1-.8-.3-.5-.6.6-.6 1.1-.1 1.7.2 1.3.5zM98 235c0 5.3.4 8 1.1 8 .8 0 1-1.5.7-4.5-.3-2.5-.4-4.5-.3-4.5.2 0 1-.2 1.7-.5 1.1-.4 1.4.5 1.4 4.1-.1 3.2.4 4.9 1.3 5.2 1.1.4 1.3-.4.8-3.7-.5-4.3.1-5.3 3.9-5.7 3-.3 4.5 1.7 4.2 5.6-.2 2.1.2 3.5 1.1 3.8 1.1.4 1.3-.5.9-4.1-.4-3.3-.1-5 .8-5.8 1.2-.9 1.4-.2 1.4 4.4 0 3.5.5 5.7 1.3 6 .6.3-1.1.6-3.8.6l-5.1.1.4-4c.3-3.3.1-4-1.3-4-1.4 0-1.6.7-1.3 4l.4 4.1-8.5-.3c-8.4-.3-8.6-.4-9.5-3.1-1.1-3.1-.2-5.4 3-7.1 2.7-1.5 3.4-2.8 2.4-4.2-1.1-1.2-.3-2.4 1.7-2.4 1 0 1.3 2 1.3 8zm4.1-6.7c-.1 1.2-1.5.9-1.9-.4-.3-.6.1-1 .8-.8.6.3 1.1.8 1.1 1.2zm14.9.3c0 .8-.4 1.2-1 .9-.5-.3-1-1-1-1.6 0-.5.5-.9 1-.9.6 0 1 .7 1 1.6zm17.5-1c1.9.8 4.5 5.5 4.6 8.6 0 1.5.3 1.8.6.8 1.3-3.5 7.3-5.6 7.3-2.5 0 .9-.8 1.4-2.2 1.2-1.7-.1-2.4.4-2.6 2.2-.8 5.6 5.2 5.2 6.2-.4.8-4.1 3.8-5.5 6.7-2.9 1 .9 1.9 1.2 1.9.7 0-1.7 3.1-2.5 4.6-1.2.8.6 1.4 2.6 1.4 4.5 0 1.8.5 3.6 1 3.9 1.5.9 2.5-2.5 1.3-4.4-.8-1.2-.7-2.2.1-3.2 1.4-2 14-2.6 15.2-.8.5.9-.4 1-3.6.5l-4.3-.7.5 5.1.5 5-5.1.1c-2.8 0-6.6.2-8.4.3-1.8.2-3.5 0-3.8-.5-.3-.5-1.4-.4-2.5.2-1.6.8-2.5.7-4-.7-1.8-1.6-2-1.6-3.8 0-2.3 2.1-4.5 1.3-6-2.2l-1.3-2.6-1.6 2.7c-3.5 5.7-13.2 2.3-13.2-4.6 0-6.7 5.1-11.1 10.5-9.1zM192 230c-.1 2.2-.2 2.3-1.1.7-.5-.9-1.7-1.7-2.4-1.7-1.9 0-2.1 12-.3 13.8.9.9.4 1.2-2.2 1.2s-3.1-.3-2.2-1.2c1.4-1.4 1.7-13.8.3-13.8-.5 0-1.7.7-2.6 1.6-1.9 2-2.6 1.5-1.9-1.1.4-1.7 1.4-2 6.5-2 5.6 0 5.9.1 5.9 2.5zm22.5 4.7c0 5.5.4 7.8 1.4 8.1 1.1.4 1.3-1.2 1-7.7-.3-6-.1-8.1.8-8.1s1.3 1.7 1.3 5.2c0 2.8.3 4.8.8 4.4.4-.4.8-1.2.8-1.7.1-.5.2-1.1.3-1.4 0-.2 1.2 0 2.6.5 1.5.6 2.6.6 3 0 1.4-2.3 2.3-.7 2.7 4.5l.3 5.5h-18l.2-8.2c.1-4.6.2-8.4.3-8.6 0-.1.6-.2 1.3-.2.8 0 1.2 2.2 1.2 7.7zm14.5-6.2c0 .8-.7 1.5-1.5 1.5s-1.5-.7-1.5-1.5.7-1.5 1.5-1.5 1.5.7 1.5 1.5zm-170.7.2c-.7.2-1.3 1.8-1.3 3.4 0 2.6.3 2.9 3.5 2.9s3.5-.3 3.5-2.9c0-1.6-.6-3.2-1.2-3.4-.7-.3.3-.5 2.2-.5 1.9 0 2.9.2 2.3.5-.9.3-1.3 2.8-1.3 7.3s.4 7 1.3 7.3c.6.3-.4.5-2.3.5s-2.9-.2-2.2-.5c.6-.2 1.2-1.8 1.2-3.4 0-2.7-.3-2.9-3.5-2.9s-3.5.2-3.5 2.9c0 1.6.6 3.2 1.3 3.4.6.3-.4.6-2.3.6-2.3 0-3-.2-2.2-.8 1-.6 1.3-2.8 1-8-.3-7-.3-7.1 2.2-7 1.4 0 1.9.3 1.3.6zm390 0c-.7.2-1.9.2-2.5 0-.7-.3-.2-.5 1.2-.5s1.9.2 1.3.5zm13.7.4c0 .5-.3.8-.7.6-.5-.3-1.7-.1-2.8.4-1.7.6-1.6.8 1 .9l3 .2-2.8 1c-2 .7-3.6.7-5 0-1.2-.6-2.9-1.3-3.7-1.5-.8-.3-.3-.6 1.3-.6 1.5-.1 2.7-.6 2.7-1.1 0-.6 1.6-1 3.5-1s3.5.5 3.5 1.1zm-30.5 1.5c1.3.8 4.5 1.9 7.2 2.4l4.8.8-6.5.2c-3.6.1-7.3.5-8.3.9-2.3.9-17.7-.9-17.7-2 0-.5 1.3-.9 2.9-.9 1.7 0 3.3-.5 3.7-1.1.4-.7 2.3-.9 5-.5 2.4.3 4.6.1 4.9-.4.8-1.3 1.2-1.3 4 .6zm-26.6 1c1 .9-4.5.3-5.9-.6-1.1-.7-.5-.8 2-.4 1.9.4 3.7.8 3.9 1zm-170.1 2.5c1.5.1 1.5.2 0 .6-1.3.3-1.8 1.5-1.8 4.3s.5 4 1.8 4.3c1.1.3.7.5-1 .6-2.4.1-2.6-.2-3-5-.3-5.1 1.2-10.4 2-6.7.2 1 1.1 1.9 2 1.9zm-157 2.2c1.9 3.9-.6 8-4.6 7.5-3.7-.4-5.2-4.7-2.8-8.3 2.2-3.4 5.6-3 7.4.8zm120.3-2.3c2.2 1.2 2.7 6.8.7 8.8-1.5 1.5-5.1 1.5-6.6 0-1.7-1.7-1.5-6.4.4-8.2 1.8-1.9 2.8-2 5.5-.6zm11.3 1.2c2 2.9 2 4.7-.1 7-3.3 3.6-8.3 1.3-8.3-3.8 0-2.3 2.9-5.4 5.1-5.4 1 0 2.5 1 3.3 2.2zm46-.6c.9.8 1.6 2.9 1.6 4.5s.5 2.9 1.1 2.9c.6 0 .9-1.4.8-3.3-.4-4.1.4-5.4 3.3-5.2 2.5.2 3.2 3 .8 3-.8 0-1.6 1-1.8 2.2-.2 1.3.1 2.3.6 2.3.6 0 1.2.7 1.5 1.4.5 1.2-.7 1.5-6.4 1.4-5.9 0-7.2-.4-8.4-2.1-2-2.9-1.9-4.3.5-6.7 2.4-2.4 4.3-2.5 6.4-.4zM82 238.1c0 3.3.3 4 1.8 3.7 2.1-.4 2.9-5.7 1-6.9-.9-.6-.7-.9 1-.9 1.9 0 2.2.5 2.2 4v4.7c0 .5-1.7.8-3.7.8-3.8 0-3.8 0-4.3-4.8-.4-3.5-.3-4.7.7-4.7.9 0 1.3 1.4 1.3 4.1zm400.7-3.5c-.3.3-1.2.4-1.9.1-.8-.3-.5-.6.6-.6 1.1-.1 1.7.2 1.3.5zm-83.4 2.1c-1.3.2-3.3.2-4.5 0-1.3-.2-.3-.4 2.2-.4s3.5.2 2.3.4zm19.2 4.2c1.3 2.2-9.1 2.7-11.2.5-1.3-1.2-.7-1.4 4.6-1.4 3.3 0 6.2.4 6.6.9zm3.8 2.8c-.7.2-2.1.2-3 0-1-.3-.4-.5 1.2-.5 1.7 0 2.4.2 1.8.5zm-113 2c-.7.2-1.9.2-2.5 0-.7-.3-.2-.5 1.2-.5s1.9.2 1.3.5zm46.2 2.3c1.2.5-.4.6-4 .3-3.3-.3-6.2-.7-6.4-.9-.9-.8 8.5-.2 10.4.6zm115.2-.4c-.3.3-1.2.4-1.9.1-.8-.3-.5-.6.6-.6 1.1-.1 1.7.2 1.3.5zM279 251.5c1.4.8 2.1 1.4 1.5 1.4-.5 0-2.1-.6-3.5-1.4-1.4-.8-2-1.4-1.5-1.4.6 0 2.1.6 3.5 1.4z"/><path d="M435 89c0 .6.7 1 1.5 1s1.5-.2 1.5-.4-.7-.6-1.5-1c-.8-.3-1.5-.1-1.5.4zm-15 13c-1.2.8-1.1 1 .8 1 1.2 0 2.2-.5 2.2-1 0-1.3-1.1-1.3-3 0zm10 50.7c0 .5 1.1.9 2.5.9 1.4.1 2.2-.2 1.9-.7-.6-1.1-4.4-1.2-4.4-.2zM20.4 211.4c-.3.8-.1 2.2.4 3.2.7 1.3.9 1 .8-1.5-.1-3.4-.4-3.8-1.2-1.7zm13 0c-.3.8-.1 2.2.4 3.2.7 1.3.9 1 .8-1.5-.1-3.4-.4-3.8-1.2-1.7zm-6.2 1.1c0 1.1.4 3.1.8 4.5.6 2 .8 2.1.8.5 0-1.1-.4-3.1-.8-4.5-.6-2-.8-2.1-.8-.5zm7.3 5.6c-.4.6-.5 1.2-.2 1.5.2.3.7-.2 1-1.1.7-1.7.1-2-.8-.4zm-16.5 7c0 2.6-.3 3-1.7 2.4-4.8-2-5.3-1.8-5.3 1.3 0 1.7-.4 3.4-1 3.7-.5.3-1 2.8-1 5.6v4.9h36v-2.3c0-1.2-.3-3.3-.7-4.6-.5-2.2-1-2.3-6.3-1.9l-5.7.4 2.7-2.3c1.5-1.2 3-3.3 3.3-4.5.6-2.2.5-2.2-.8-.4-.8 1-1.6 2.4-1.8 3-.2.6-1.4-.1-2.6-1.7-1.3-1.5-2.9-2.7-3.7-2.7-.9 0-1.4 1-1.4 2.7l-.1 2.8-2.4-3c-6.3-7.7-7.5-8.3-7.5-3.4zm9 6.9l2.5 2.6-10 .2c-9.3.2-9.8.1-6.9-1.2 3.8-1.7 6.4-5.1 6.5-8.6 0-2.5 0-2.5 2.7.9 1.5 1.9 3.8 4.6 5.2 6.1zm-12.1-3.7c.8 1 .7 1.7-.1 2.5-1.9 1.9-2.8 1.4-2.8-1.3s1.2-3.2 2.9-1.2zm17.5.9c1.4 2 1.4 2.3.1 3.1-2.1 1.1-3.5 0-3.5-2.9 0-3 1.4-3.1 3.4-.2z"/><path d="M37.5 224c-.3.5 0 .7.8.4.9-.3 2.6.8 4.2 2.8l2.6 3.3-1.5-3.1c-.8-1.7-2.3-3.4-3.1-3.8-2.2-.8-2.3-.8-3 .4zm54.1 12.8c-.9 2.8.3 5.2 2.6 5.2 1.6 0 1.9-.6 1.6-3.2-.3-3.7-3.3-5.1-4.2-2zm36.4-5.9c-2.4 4.6-.1 12.1 3.7 12.1 2 0 4.3-3.7 4.3-6.9 0-4.5-1.6-7.1-4.5-7.1-1.4 0-2.9.8-3.5 1.9zm23 5.1c0 .5.5 1 1 1 .6 0 1-.5 1-1 0-.6-.4-1-1-1-.5 0-1 .4-1 1zm7.4.3c-.4 1.2-1.8 1.7-4.5 1.7-3.6 0-3.9.2-2.9 2 1.4 2.5 4.6 2.2 7.7-.9 1.7-1.6 2.1-2.7 1.4-3.4-.7-.7-1.2-.5-1.7.6zm10.2-.6c-.3.3-.6 2.1-.6 4 0 2.3.5 3.3 1.5 3.3s1.5-1 1.5-3.4c0-3.4-1.1-5.2-2.4-3.9zm-9.6 5.4c0 .5.5.7 1 .4.6-.3 1-.8 1-1.1 0-.2-.4-.4-1-.4-.5 0-1 .5-1 1.1zm63.5-5c-.8 1.2 1.3 6.9 2.5 6.9.4 0 1-1.2 1.3-2.8.7-3.8-2.1-6.9-3.8-4.1zm-3.5 5.4c0 .8.7 1.5 1.6 1.5 1.4 0 1.4-.3.4-1.5-.7-.8-1.4-1.5-1.6-1.5-.2 0-.4.7-.4 1.5zm206.8-8.8c.6.2 1.8.2 2.5 0 .6-.3.1-.5-1.3-.5-1.4 0-1.9.2-1.2.5zm-354.2 3.8c-1 2.7.4 6.6 2.3 6.3 2.2-.5 2.3-7.1 0-7.6-.9-.2-1.9.4-2.3 1.3zm121.9.4c-.9 3 .4 6.3 2.3 5.9 1.2-.2 1.7-1.4 1.7-3.8 0-4-2.9-5.5-4-2.1zm10.2.1c-.8 3.1.3 6.1 2.2 5.8 1.1-.2 1.6-1.4 1.6-3.8 0-4-2.9-5.5-3.8-2zm46.7-.6c-1 2.5 0 6.1 1.8 6.4 1.9.4 3.2-2.9 2.3-5.8-.7-2.3-3.3-2.7-4.1-.6zM39.8 24.7c.7.3 1.6.2 1.9-.1.4-.3-.2-.6-1.3-.5-1.1 0-1.4.3-.6.6zm33.6.2c.5.8 5.6.3 5.6-.5 0-.2-1.4-.4-3.1-.4-1.6 0-2.8.4-2.5.9zm29.6.2c0 .5.5.7 1 .4.6-.3 1-.8 1-1.1 0-.2-.4-.4-1-.4-.5 0-1 .5-1 1.1zm23.7-.5c-.3.4-.2 1.5.4 2.5 1.2 2.3 5.2 2.5 7.3.4.8-.8 2.2-1.2 3-.9.9.3 1.6.1 1.6-.4 0-.6.8-1.2 1.8-1.4.9-.3-.8-.4-3.9-.4-3.7.1-5.5.5-5.2 1.2.5 1.4-2.4 2.7-3.2 1.4-.4-.6-.3-1.5 0-2 .7-1.1-.8-1.4-1.8-.4zm119.1.1c.7.3 1.6.2 1.9-.1.4-.3-.2-.6-1.3-.5-1.1 0-1.4.3-.6.6zM241 27c0 .5.7 1 1.5 1s1.5-.5 1.5-1c0-.6-.7-1-1.5-1s-1.5.4-1.5 1zm52 .7l-2.5 1.5 2.5-.6c1.4-.3 3.9-.6 5.5-.6 2.3 0 2.7-.3 1.5-1-2-1.3-4-1.1-7 .7zm13.5.3c-.4.6.5 1 2 1 1.4 0 3.4.5 4.4 1.2 1 .6 2.7.8 3.7.4 1.6-.6 1.5-.9-1-2.1-3.2-1.7-8.2-2-9.1-.5zm167.5-.2c0 .4.4 1.3.9 2 .7 1.1.9 1.1 1.4-.1.3-.9-.1-1.8-.9-2.1-.8-.3-1.4-.2-1.4.2zm-113.7.9c.9.2 2.5.2 3.5 0 .9-.3.1-.5-1.8-.5-1.9 0-2.7.2-1.7.5zm95.4-.1c-1.3 1.3-.7 2.2 1.7 2.6 1.5.3 2.7 0 3-.8.3-.8 1.9-1.4 3.7-1.4 2.2 0 3.2.5 3.6 2 .3 1.1 1.2 2 1.9 2 .8 0 1.4.6 1.4 1.2 0 .9.4.8 1-.2 1.5-2.3 1.2-2.9-1-2.3-1.1.3-2 0-2-.6s.5-1.1 1-1.1c.6 0 1-.4 1-.9 0-1-14.3-1.5-15.3-.5zM413 30c0 .5.5 1 1.1 1 .5 0 .7-.5.4-1-.3-.6-.8-1-1.1-1-.2 0-.4.4-.4 1zm-43.4 2.5c.4.9 1.1 1.4 1.6 1.3 1.5-.5 1.1-2.3-.6-2.6-1.1-.2-1.4.2-1 1.3zM387 32c0 .5.7 1 1.5 1s1.5-.5 1.5-1c0-.6-.7-1-1.5-1s-1.5.4-1.5 1zm2.7 2.2c-2.1 3.6-.5 6.8 3.3 6.8 2.4-.1 2.4-.1.5-1.3-2.2-1.3-2.9-5.7-.9-5.7 2.1 0 2.5-1.7.6-2.2-1.2-.4-2.4.4-3.5 2.4zm29.8-1.2c-.4.7.3.8 2.2.4 3.8-.9 4.2-1.4 1-1.4-1.4 0-2.9.5-3.2 1zm25 1c-.4.6.9 1 3.2 1 2.8 0 3.4-.3 2.3-1-2-1.3-4.7-1.3-5.5 0zm-18 .9c1.1.5 2.7.6 3.5.4 1-.3 1 0-.3 1-1.7 1.4-1.6 1.6 1.3 2.2 1.7.4 3.4.4 3.7.1.4-.3-.1-.6-1.1-.6-1.3 0-1.6-.5-1.1-2 .6-1.8.2-2-3.7-1.9-3.2 0-3.8.2-2.3.8zM399 36c0 .6.7 1 1.5 1s1.5-.2 1.5-.4-.7-.6-1.5-1c-.8-.3-1.5-.1-1.5.4zm-32.2.7c.7.3 1.6.2 1.9-.1.4-.3-.2-.6-1.3-.5-1.1 0-1.4.3-.6.6zm13.2.3c0 .5 1 1 2.3 1 1.8 0 1.9-.2.7-1-1.9-1.3-3-1.3-3 0z"/><path d="M394.8 36.7c.7.3 1.6.2 1.9-.1.4-.3-.2-.6-1.3-.5-1.1 0-1.4.3-.6.6zm19.7.3c.3.5 1.2.7 2 .3 2.1-.7 1.9-1.3-.6-1.3-1.1 0-1.8.4-1.4 1zm33.5 0c0 .5.5 1 1 1 .6 0 1-.5 1-1 0-.6-.4-1-1-1-.5 0-1 .4-1 1zm-96.7.7c1.5.2 2.7.9 2.7 1.4 0 .5 1 .9 2.3.9 2.1-.1 2.2-.1.3-1.5-1.1-.8-3.4-1.4-5-1.4-3.1.2-3.1.2-.3.6zm87 1.3c.1 1.7.8 2 5.2 1.8l5-.1-4.3-.4c-3.6-.4-4.2-.7-3.1-1.9.9-1.1.8-1.4-.9-1.4-1.5 0-2 .6-1.9 2zm13.7-1.2c0 1.4 2.4 3.2 4.2 3.2 1.6 0 1.7-.3.8-2-1-1.9-5-2.9-5-1.2z"/><path d="M421 39c-.8.5-2.5 1-3.7 1-1.3 0-2.3.4-2.3 1 0 .5.6 1 1.3 1 .7 0 3.1.9 5.2 2 3.7 1.9 4.6 2 11.3.9 5.8-.9 7.8-.9 9.7.1 1.3.7 3.4 1 4.6.7 1.3-.3 2.9-.1 3.6.5 1.3 1.1 9.8.6 11-.6 1.1-1.1-.6-1.9-4.1-2.1-1.9-.1-4.2-1-5.1-1.9-2-1.9-2.6-2-2-.4.4 1-1.8 1.3-8.9 1.3-5.2 0-9.2-.3-9-.6.7-1.1-4.7-2-7.9-1.3-2.5.5-2.9.4-2.4-1 .7-1.9.7-1.9-1.3-.6zm43 0c-1.2.8-1.1 1 .8 1 1.2 0 2.2-.5 2.2-1 0-1.3-1.1-1.3-3 0zm-56.2 4.2c.9.9 1.5.9 2.4 0 .9-.9.7-1.2-1.2-1.2s-2.1.3-1.2 1.2zm8 3.5c.7.3 1.6.2 1.9-.1.4-.3-.2-.6-1.3-.5-1.1 0-1.4.3-.6.6zm11.1 2.4c-1 2-.9 2.1 1.2 1.6 1.3-.4 3-.7 3.8-.7 1.1 0 1.1-.3.1-1.5-1.8-2.1-3.7-1.9-5.1.6zm-38.1 2.6c.6.2 1.8.2 2.5 0 .6-.3.1-.5-1.3-.5-1.4 0-1.9.2-1.2.5zm8.7.3c-.3.5.1 1 1 1s1.3-.5 1-1c-.3-.6-.8-1-1-1-.2 0-.7.4-1 1zm-26.8 173.1c.7.7 1.5 1 1.8.7.3-.3-.2-.9-1.2-1.2-1.4-.6-1.5-.5-.6.5zm-65 7.4l-1.6 4.5h3.5c3.2 0 3.5-.2 2.8-2.3-1.3-4.1-2.3-6.7-2.8-6.7-.2 0-1.1 2-1.9 4.5zm37.1-.3c-.8.7-1.8 2.1-2.1 3-.5 1.5 0 1.8 2.8 1.8 3.8 0 4-.4 2.2-3.8-1.1-1.9-1.5-2-2.9-1zm25.2-.4c0 .4.7 1.5 1.4 2.5 1 1.3 1.1 2.8.5 5.9-1.3 5.4-.7 5.6 1.8.6 2-3.9 2.1-4.3.5-6.4-1.7-2.4-4.2-3.9-4.2-2.6zm8 1.6c0 1.3-.3 3.1-.6 3.9-.3 1 .3 1.6 2 1.9 3 .6 3.1 0 1.2-4.7-1.7-4.1-2.6-4.5-2.6-1.1zm-16.5-.4c.3.5 1.5 1 2.6 1s1.7-.5 1.4-1c-.3-.6-1.5-1-2.6-1s-1.7.4-1.4 1zm13.8 10.5c-.7 2-.3 2.3 3.5 3.1 3.6.7 4.7-1.4 1.2-2.3-1.1-.3-1.7-.9-1.4-1.4.3-.5-.2-.9-1.1-.9-.8 0-1.8.7-2.2 1.5zm27 .2c.9.2 2.3.2 3 0 .6-.3-.1-.5-1.8-.5-1.6 0-2.2.2-1.2.5zm-21.1 7c-.4.6-1.8 1.3-3.2 1.6-1.4.3.2.3 3.5 0 7.6-.8 13.7-.5 14.9.7 1.3 1.3 7.7 1.3 9.6 0 1.1-.7.2-1-3.1-1-2.5 0-6-.7-7.7-1.5-3.5-1.8-13-1.7-14 .2z"/></svg>