<svg xmlns="http://www.w3.org/2000/svg" role="img" viewBox="-8.70 -8.70 816.40 815.90"><title>HP Inc. logo</title><path fill="#00a1dd" d="M400 792c-3.90281 0-7.78761-.0713-11.66411-.1816l80.2129-220.4512h110.3907c19.37689 0 40.64639-14.8955 47.27139-33.0938l87.0254-239.0351c14.2364-39.1348-8.1797-71.1543-49.8222-71.1543H510.26759L381.77 581.1816h-.04831L308.876 781.3457C136.0518 740.2539 7.50049 584.8975 7.50049 399.501c0-180.0508 121.23921-331.7705 286.5293-378.0117l-75.1665 206.5947h-.0215L93.8853 571.3672l83.185.0068 106.26809-291.7051h62.5171L239.58639 571.374l83.1529.0137 99.0302-272.1494c14.2461-39.1348-8.1718-71.1543-49.7754-71.1543h-69.9253l80.2906-220.67189C388.21089 7.15332 394.08739 7 400 7c216.77338 0 392.5 175.7275 392.5 392.501C792.5 616.2695 616.77338 792 400 792zm237.48438-512.541h-62.49809l-87.5254 240.1484h62.5zm73.3183 454.0976a25.86829 25.86829 0 1 1 25.8692 25.8018 25.6501 25.6501 0 0 1-25.8692-25.8018zm4.2032 0a21.66509 21.66509 0 1 0 21.666-21.6025 21.59265 21.59265 0 0 0-21.666 21.6025zm33.4824 14.7002h-4.791l-7.418-13.3867h-5.3887v13.3867h-4.1992v-29.0166h12.2129c5.25 0 9.9785 1.5723 9.9785 7.6836 0 5.71-3.875 7.8076-7.748 7.9463zm-17.5977-24.8144v7.2256h4.4688c3.9355 0 9.3242.6533 9.3242-3.2793 0-3.6807-3.0898-3.9463-6.5703-3.9463z"/></svg>