<svg xmlns="http://www.w3.org/2000/svg" role="img" viewBox="5.25 5.00 389.75 390.00"><title>JupiterFileCache logo</title><g fill-rule="evenodd"><path fill="#e05020" d="M189.001 17.874c-1.157.103-2.133.418-2.318.749-.33.589-4.203 2.577-5.022 2.577-.253 0-.461.146-.461.325 0 1.062-9.178 2.266-22.3 2.924-5.555.278-10.1.651-10.1.829 0 .177-.361.322-.801.322-.557 0-1.015.498-1.5 1.632-.825 1.926-3.543 3.445-6.87 3.839-1.116.132-2.029.366-2.029.52 0 .153-2.329.516-5.175.806l-5.176.528-.258 1.531c-.264 1.562-2.065 3.544-3.222 3.544-.313 0-.569.149-.569.332 0 .182-1.746.675-3.88 1.094-3.446.678-4.015.914-5.1 2.118-2.759 3.064-4.422 4.456-5.322 4.456-2.253 0-6.174 1.347-6.512 2.238-.202.529-.506.964-.676.965-.171.002-.963.623-1.76 1.379-2.608 2.472-4.274 3.37-6.782 3.653-2.143.243-2.368.358-2.368 1.209 0 3.077-1.799 4.832-5.703 5.564-1.454.273-2.099 1.11-2.904 3.77-.405 1.338-1.662 2.283-3.742 2.813-1.91.486-3.772 2.077-4.243 3.624-.43 1.413-1.733 2.705-3.01 2.985-1.653.364-3.487 2.204-3.79 3.803-.344 1.815-2.182 3.84-3.809 4.197-1.788.393-2.75 1.332-3.06 2.987-.668 3.567-1.609 4.561-4.828 5.099-1.369.228-1.502.463-1.889 3.327C53.538 95.719 52.281 98 51.406 98c-.333 0-.606.236-.606.525 0 .64-2.062 2.675-2.71 2.675-.418 0-1.007 1.698-2.464 7.1-.252.935-.586 1.703-.742 1.706-.156.004-.893.544-1.638 1.2-.745.657-1.76 1.194-2.256 1.194-.99 0-.946-.147-1.826 6.1-.271 1.925-.632 3.5-.801 3.5-.17 0-.437.405-.594.9-.548 1.736-2.209 3.471-3.565 3.726l-1.316.247-.509 4.563c-.28 2.51-.66 4.564-.844 4.564-.184 0-.337.585-.34 1.3-.013 3.543-1.934 7.893-3.998 9.053-1.659.933-1.997 1.862-1.997 5.497 0 1.182-.18 2.15-.4 2.15-.22 0-.4.922-.4 2.049 0 6.678-1.845 20.366-2.787 20.68-.227.076-.413.35-.413.61 0 .731-2.351 5.378-2.797 5.528-1.074.362-1.137 34.402-.065 35.109.423.278 2.862 5.376 2.862 5.981 0 .244.151.443.336.443.813 0 2.177 10.256 2.7 20.3.152 2.915.431 5.3.62 5.3s.344.528.344 1.174c0 1.73.557 2.912 2.189 4.642 2.128 2.256 3.775 6.627 3.801 10.084.006.715.175 1.3.376 1.3s.493 1.359.649 3.02c.262 2.795.856 4.18 1.793 4.18.817 0 2.852 2.757 3.47 4.7.367 1.155.795 2.1.95 2.1.154 0 .397.855.539 1.9.849 6.262 2.186 7.106 2.219 1.4.008-1.375.169-2.5.359-2.5.19 0 .442-2.565.561-5.7.278-7.344 1.216-10.332 3.922-12.501.946-.757 1.59-1.667 1.747-2.47.138-.699.423-1.329.634-1.4.211-.071.664-1.209 1.008-2.529.972-3.741 1.303-4.047 5.636-5.217.249-.067.767-1.118 1.149-2.335.844-2.682 1.423-3.249 4.003-3.918 1.097-.284 2.085-.636 2.195-.782.11-.146.969-.472 1.908-.724 1.237-.333 1.953-.839 2.6-1.837.491-.757 1.033-1.379 1.206-1.382.173-.003.795-.32 1.382-.705 1.33-.871 3.625-1.686 4.771-1.694.476-.003.941-.229 1.032-.502.22-.662 26.209-.695 26.628-.033.15.237 1.083.562 2.073.723 2.599.421 4.758 1.755 5.641 3.487.578 1.132 1.141 1.601 2.359 1.966.88.264 1.6.631 1.6.816 0 .185.369.337.82.337 2.056 0 3.754 1.556 4.98 4.565.666 1.635 1.04 2.037 2.233 2.399 3.07.934 3.82 2.115 4.977 7.836.6 2.967.884 3.6 2.231 4.971.849.865 1.754 2.215 2.01 3 .255.786.664 1.558.907 1.715.663.428.608 13.192-.058 13.414-.275.092-.5.506-.5.921 0 1.201-1.969 5.179-2.563 5.179-.974 0-1.349.94-2.391 5.997-.566 2.749-1.218 5.06-1.448 5.137-.231.077-.783.852-1.227 1.722-.444.871-1.114 1.691-1.489 1.823-.906.319-2.335 1.941-2.967 3.369-.281.634-.656 1.152-.835 1.152-.179 0-.668.776-1.088 1.725-.902 2.038-1.78 2.91-3.321 3.295-.634.158-1.278.674-1.47 1.176-.187.492-.607.997-.933 1.122-.326.126-.712.772-.858 1.436-.356 1.62-1.573 3.1-2.804 3.409-.553.139-1.006.429-1.006.645 0 .215-.225.393-.5.394-.275.001-.974.406-1.554.9l-1.053.898.411 3.587c.245 2.128.651 3.825.999 4.173 1.582 1.582 23.893 1.653 24.418.078.08-.241.401-.438.712-.438.312 0 .567-.145.567-.322 0-1.427 5.792-5.278 7.939-5.278.473 0 .861-.18.861-.4 0-.22.608-.4 1.351-.4 1.593 0 2.019-.433 2.614-2.656.254-.952.842-1.919 1.383-2.273.517-.339 1.247-.924 1.623-1.3.377-.376 1.24-.797 1.918-.936 1.391-.284 1.63-.638 2.268-3.356.473-2.013.744-2.469 2.543-4.288.605-.612 1.1-1.305 1.1-1.541s.517-.697 1.148-1.023c.849-.439 1.266-1.061 1.598-2.38.248-.982.699-2.035 1.004-2.34.305-.304.683-1.495.842-2.645.353-2.573 1.753-5.287 3.531-6.848.985-.865 1.481-1.765 1.873-3.395.292-1.221.683-2.219.868-2.219.185 0 .337-.855.339-1.9.009-5.505 1.424-10.187 3.812-12.61 1.161-1.177 1.785-2.162 1.785-2.817 0-.553.191-1.07.425-1.148.258-.086.569-2.881.795-7.133.547-10.317 1.629-17.659 2.705-18.357.2-.129.655-.804 1.011-1.5.356-.695 1.075-1.6 1.597-2.011 1.165-.916 1.271-1.596 2.075-13.378.675-9.883 1.163-13.67 1.787-13.878.223-.074.405-.455.405-.846 0-.826 2.791-4.418 3.435-4.42.507-.002 1.228-6.531 1.568-14.202.261-5.897.859-10.336 1.418-10.533.209-.074.379-.416.379-.76 0-1.226 2.211-4.992 3.245-5.529 1.232-.639 1.955-4.816 1.955-11.289 0-4.499.759-11.841 1.243-12.022.197-.074.357-.572.357-1.108 0-1.745 1.966-5.907 3.388-7.173 1.46-1.299 2.196-5.797 2.208-13.486.002-1.531.177-2.7.404-2.7.22 0 .406-1.035.412-2.3.037-6.745 1.244-10.908 3.777-13.026 1.703-1.423 1.729-1.483 2.01-4.658.156-1.769.446-3.216.643-3.216.198 0 .358-3.306.358-7.4 0-4.667-.148-7.4-.4-7.4-.22 0-.4-.262-.4-.582 0-.718-1.849-2.618-2.548-2.618-.754 0-2.152-1.638-2.461-2.881-.303-1.221-2.345-2.055-6.128-2.503-1.175-.139-2.345-.437-2.6-.661-.255-.224-1.265-.8-2.245-1.281-1.18-.578-2.044-1.371-2.555-2.344-.87-1.657-.983-1.685-8.563-2.16-2.255-.141-4.1-.391-4.1-.555 0-.165-.567-.462-1.259-.66-.693-.199-1.638-.869-2.1-1.49-1.921-2.577-.63-17.014 1.527-17.078.237-.007 1.053-.637 1.813-1.4.759-.763 1.507-1.387 1.661-1.387.154 0 .458-.51.675-1.134.988-2.835-3.037-2.643 59.998-2.866 39.585-.14 56.6-.329 56.8-.629.157-.236.645-.571 1.085-.743 1.021-.401-.966-1.183-4.098-1.614-1.287-.177-2.478-.644-3.18-1.248-.617-.531-1.219-.965-1.337-.966-.118 0-.855-.855-1.637-1.9l-1.424-1.9-3.962-.748c-2.179-.411-4.052-.871-4.162-1.021-.11-.15-.876-.684-1.703-1.187-1.167-.709-1.599-1.297-1.936-2.632l-.433-1.719-5.164-.512c-2.84-.281-5.164-.662-5.164-.846 0-.184-.495-.337-1.1-.339-3.169-.013-6.923-1.961-7.835-4.067-.364-.841-.933-1.529-1.264-1.529-.33 0-.601-.143-.601-.319 0-.175-4.635-.547-10.3-.827-13.272-.655-22.5-1.857-22.5-2.929 0-.179-.208-.325-.461-.325-.895 0-4.708-2.015-5.084-2.687-.381-.682-18.797-1.159-24.654-.639m135.645 58.422c-1.656.129-2.174.387-3.4 1.698-.841.898-2.365 1.906-3.642 2.408-1.208.474-2.293 1.018-2.41 1.208-.118.19-2.639.638-5.604.995-7.22.87-8.388 1.192-8.396 2.311-.013 1.853-1.099 4.46-2.274 5.458-.664.564-1.414 1.422-1.667 1.905-.252.484-.973 1.183-1.602 1.554-1.375.813-1.79 2.801-2.45 11.741-.438 5.928-1.027 9.226-1.648 9.226-.194 0-.353.236-.353.525 0 .552-2.024 2.675-2.55 2.675-1.42 0-1.698 1.566-2.269 12.8-.451 8.877-.936 12.918-1.575 13.131-.223.075-.406.417-.406.76 0 .849-2.092 4.107-2.638 4.108-1.55.003-2.271 4.021-2.76 15.384-.123 2.851-.371 5.281-.552 5.4-.18.119-.438 1.297-.573 2.617-.134 1.32-.467 3.364-.739 4.541-.467 2.021-.866 2.596-3.482 5.004-1.114 1.026-1.656 3.931-1.656 8.875 0 2.52-.159 4.18-.4 4.18-.22 0-.404.855-.408 1.9-.009 2.319-1.01 9.807-1.552 11.618-.217.725-1.242 2.119-2.277 3.097-1.862 1.758-1.885 1.811-2.075 4.781-.106 1.652-.35 3.004-.541 3.004-.191 0-.349 1.125-.351 2.5-.013 8.049-1.639 18.7-2.854 18.7-.199 0-.527.433-.728.963-.201.53-.896 1.277-1.544 1.659-1.331.786-1.636 2.67-2.462 15.178-.574 8.703-2.719 14.2-5.539 14.2-.258 0-.469.144-.469.32 0 1.658-2.043 13.767-2.39 14.163-.249.284-.758 1.147-1.131 1.917-.397.817-1.202 1.63-1.936 1.954-1.366.602-2.7 3.045-3.137 5.746-.133.825-.414 1.5-.624 1.5-.21 0-.382.279-.382.62 0 .688-2.452 3.38-3.078 3.38-.71 0-1.637 1.361-2.092 3.069-.244.918-.585 1.728-.757 1.8-.172.072-.891 1.338-1.597 2.814-.955 1.997-1.616 2.845-2.58 3.314-2.424 1.18-3.037 1.937-4.456 5.499-.408 1.024-1.044 1.71-2.018 2.174-.782.373-1.422.825-1.422 1.004 0 .179-.246.326-.546.326-1.034 0-2.512 1.549-2.985 3.129-.282.94-.92 1.874-1.572 2.3-.603.395-1.335.955-1.626 1.244-.29.29-.802.527-1.138.527-.879 0-2.933 1.554-2.933 2.22 0 1.172-3.4 4.031-6.313 5.31-1.974.866-3.591 1.954-5.018 3.374-2.575 2.564-3.238 2.919-7.201 3.858-2.441.579-3.323.987-4 1.848-2.727 3.473-5.018 4.69-9.913 5.27-1.075.127-1.955.362-1.955.521 0 .159-1.34.505-2.979.77-2.963.478-5.021 1.549-5.021 2.614 0 1.261-5.443 2.989-9.467 3.005-1.356.006-2.526.176-2.6.378-.073.203-3.733.479-8.133.615-10.006.308-12.445.705-13.822 2.252-.931 1.046-1.336 1.172-4.532 1.418-2.317.178-3.76.487-4.246.908-.818.709-1.53 4.039-.864 4.039.224 0 .645.234.935.521.311.306 3.039.808 6.616 1.218 6.215.711 10.113 1.589 10.113 2.276 0 .212.251.385.559.385.307 0 1.111.63 1.787 1.4.676.77 1.49 1.4 1.808 1.4.319 0 .639.171.713.38.073.209 3.283.739 7.133 1.177 10.977 1.25 14.584 1.741 14.8 2.015.11.14 1.19.5 2.4.8 2.397.594 5.564 1.963 6.2 2.679 1.565 1.763 40.035 1.763 41.6 0 .636-.716 3.803-2.085 6.2-2.679 1.21-.3 2.29-.667 2.4-.814.11-.148 5.15-.851 11.2-1.562 6.05-.711 11.06-1.451 11.133-1.645.074-.193.285-.351.47-.351.184 0 .855-.495 1.489-1.1 3.156-3.008 4.322-3.409 12.708-4.373 3.3-.379 6.234-.878 6.519-1.108 1.512-1.219 2.481-2.316 2.481-2.808 0-.925 1.831-2.063 4.586-2.852 1.438-.412 2.614-.866 2.614-1.009 0-.144.675-.377 1.5-.519 3.241-.558 3.7-.715 3.7-1.263 0-.312.18-.568.4-.568.22 0 .4-.239.4-.53 0-.792 1.65-2.191 3.217-2.727.761-.261 1.473-.59 1.583-.732.11-.142 1.64-.665 3.4-1.162 4.311-1.217 4.963-1.587 5.634-3.191.874-2.092 2.204-3.174 4.704-3.825 2.858-.744 2.912-.781 3.186-2.151.331-1.656 3.137-4.382 4.84-4.702.774-.145 1.616-.515 1.871-.822.255-.307.711-.558 1.014-.558.303 0 .551-.277.551-.616 0-1.821 1.571-3.679 3.88-4.59 2.544-1.004 3.53-1.854 4.679-4.035.423-.803 1.397-1.772 2.2-2.189 1.923-.998 3.832-3.126 4.43-4.936.377-1.143.95-1.735 2.549-2.633 2.488-1.399 3.312-2.318 3.876-4.322.236-.836.824-1.861 1.307-2.276l1.84-1.579c.529-.453 1.275-.824 1.657-.824.81 0 1.065-.499 2.006-3.926.696-2.532 1.165-3.139 3.352-4.332 1.78-.971 2.499-2.079 3.273-5.042.388-1.485.822-2.7.965-2.7.143 0 .486-.765.762-1.7.626-2.115 1.415-3.022 3.283-3.77 1.507-.603 2.341-2.422 2.341-5.107 0-.563.18-1.023.4-1.023.22 0 .4-.332.4-.737 0-2.884 1.944-6.026 5.5-8.892.275-.221.5-1.115.5-1.987 0-.871.154-1.584.342-1.584.188 0 .57-1.935.848-4.3.696-5.903 1.522-7.868 4.71-11.197.495-.516.9-1.186.9-1.488 0-.302.185-.61.412-.686.24-.08.665-3.73 1.016-8.733.661-9.411 1.575-17.206 2.062-17.566.17-.126.634-1.22 1.029-2.43.973-2.975 1.971-5.3 2.524-5.879 1.349-1.412 1.28-33.869-.072-34.388-.292-.111-1.104-1.807-1.805-3.768-.702-1.961-1.398-3.565-1.547-3.565-.688 0-1.983-10.98-2.654-22.5-.151-2.585-.429-4.7-.619-4.7s-.346-.355-.346-.79c0-.454-.467-1.035-1.1-1.368-2.736-1.44-4.12-4.645-4.725-10.942-.153-1.595-.414-2.9-.58-2.9-.165 0-.426-1.333-.578-2.961l-.278-2.961-1.33-.25c-1.905-.357-4.209-3.667-4.209-6.047 0-.539-.159-.981-.354-.981-.195 0-.474-1.035-.621-2.3-.54-4.647-.596-4.794-1.923-5.06-1.348-.269-3.902-2.639-3.902-3.62 0-.341-.18-.62-.4-.62-.22 0-.4-.341-.4-.758 0-2.12-1.633-5.856-2.905-6.646-.712-.442-1.473-1.208-1.691-1.703-.218-.495-.715-1.001-1.105-1.125-.892-.283-1.755-1.928-2.088-3.982-.509-3.141-.611-3.386-1.411-3.386-2.636 0-5.2-2.312-5.2-4.688 0-1.536-1.256-3.216-2.562-3.428-1.768-.287-4.089-2.521-4.451-4.284-.428-2.084-1.262-2.255-8.341-1.704M114.4 360.417c3.193.441 7.705.432 8.4-.017.401-.259-1.256-.371-5-.338-4.375.04-5.119.117-3.4.355"/><path fill="#fcfcfc" d="M0 200v200h400V0H0v200M216.2 12.803c17.41.486 24.691 1.158 25.8 2.378.11.121.724.49 1.363.82.64.329 1.703 1.102 2.361 1.716 1.38 1.288 2.982 1.676 9.436 2.286 5.29.5 8.44 1.109 8.44 1.63 0 .202.281.367.624.367.913 0 4.494 2.443 4.692 3.201.172.658 2.646 1.428 7.784 2.424 1.375.266 2.5.62 2.5.786 0 .166.675.572 1.5.903 1.641.657 2.668 1.635 3.055 2.908.271.893 2.841 1.976 5.745 2.42.935.143 1.7.403 1.7.577 0 .175.528.433 1.172.575.645.142 1.387.516 1.649.832.262.316.713.574 1.002.574.289 0 1.032.706 1.651 1.569.66.92 1.561 1.657 2.178 1.78.578.117 1.33.491 1.671.831.341.341.806.62 1.034.62 2.42 0 5.853 2.224 6.254 4.05.139.633.415 1.15.613 1.15s.467.424.597.943c.133.529.899 1.314 1.748 1.791.831.468 2.012 1.573 2.625 2.458.613.884 1.27 1.608 1.46 1.608 1.347 0-1.231 3.244-3.054 3.844-.44.145-.928.465-1.085.71-.207.324-17.477.501-62.891.646l-62.606.2-1.06 1.06c-.816.816-1.185 1.781-1.605 4.199-.3 1.726-.728 3.199-.95 3.273-.221.074-.403.445-.403.824 0 1 4.324 1.946 10.18 2.227 2.629.126 4.879.38 5 .563.121.183.958.448 1.859.588 2.674.417 4.515 1.391 5.652 2.988.98 1.376 3.148 2.878 4.154 2.878.227 0 .649.237.94.527.29.29 1.079.992 1.753 1.559.791.666 1.516 1.893 2.043 3.457 1.047 3.11 2.074 5.257 2.512 5.257 3.301 0 3.02 11.671-.341 14.197-.658.494-1.075 3.397-2.152 15.003-.46 4.95-1.008 9.06-1.218 9.133-.21.074-.382.475-.382.892 0 1.469-1.308 4.188-2.586 5.375-1.559 1.448-2.405 5.771-2.84 14.5-.145 2.915-.383 5.3-.53 5.3-.147 0-.49 1.395-.762 3.1-.682 4.281-1.367 6.085-2.882 7.591-1.743 1.734-2.768 6.002-2.786 11.609-.009 2.458-.174 4.1-.414 4.1-.22 0-.401.765-.402 1.7-.003 3.885-1.949 12.7-2.803 12.7-.188 0-.464.405-.614.9-.15.495-.598 1.26-.996 1.7-.509.564-.87 2.041-1.22 5-.274 2.31-.615 4.29-.759 4.4-.143.11-.579 3.678-.967 7.929-.618 6.757-1.42 11.009-2.203 11.671-.71.601-2.836 4.024-2.836 4.565 0 .349-.16.635-.355.635-.393 0-.995 4.885-1.651 13.4-.421 5.472-1.392 11-2.001 11.4-.168.11-.705.969-1.194 1.909-.489.94-1.233 1.949-1.652 2.243-.954.668-1.944 5.522-1.955 9.583-.01 3.762-1.066 11.623-1.585 11.796-.224.075-.407.409-.407.743 0 1.005-2.121 4.458-2.971 4.837-.831.371-1.772 3.68-2.698 9.489-.246 1.54-.565 2.89-.711 3-.145.11-.625 1.1-1.067 2.2-.512 1.273-1.258 2.291-2.053 2.8-1.136.727-3.3 4.498-3.3 5.75 0 .248-.18.45-.4.45-.22 0-.4.354-.4.786 0 .941-2.25 3.614-3.041 3.614-.308 0-.559.18-.559.4 0 .22-.241.4-.536.4-.551 0-1.464 1.612-1.464 2.585 0 .302-.135.608-.3.682-.165.073-.693.853-1.172 1.733-.679 1.244-1.321 1.776-2.889 2.393-1.592.626-2.067 1.026-2.259 1.9-.134.609-.381 1.107-.549 1.107-.168 0-.638.618-1.045 1.373-.824 1.531-1.479 1.942-4.38 2.751-1.674.467-2.124.806-2.801 2.111-.444.855-1.301 1.792-1.906 2.082-.604.29-1.099.675-1.099.857 0 .491-2.862 1.125-9.206 2.041-4.287.619-5.866 1.007-6.503 1.601-.463.431-.979.784-1.148.784-.426 0-2.5-.931-2.743-1.231-.11-.137-2.99-.557-6.4-.934-9.529-1.053-11.29-1.868-12.243-5.665-.15-.597-.603-1.416-1.006-1.819-.749-.749-1.75-2.818-2.387-4.935-.359-1.194 1.156-4.216 2.115-4.216.495 0 4.755-4.31 5.651-5.718.392-.615 1.127-1.276 1.635-1.469.507-.192 1.405-1.174 1.995-2.182.591-1.007 1.234-1.831 1.43-1.831.196 0 .478-.405.628-.9.319-1.055 2.14-3.1 2.761-3.1.236 0 .878-.559 1.425-1.242a77.76 77.76 0 0 1 1.396-1.7c.22-.252.893-1.494 1.497-2.76.916-1.923 1.365-2.409 2.731-2.956 1.667-.667 2.372-1.717 2.372-3.535 0-.517.163-1 .362-1.074 1.432-.527 1.484-27.433.055-28.324-.184-.115-.55-1.011-.813-1.991-.477-1.773-1.876-3.954-2.565-3.996-1.337-.082-3.838-2.769-4.501-4.836l-.71-2.215-3.414-.908c-1.878-.5-4.044-1.011-4.814-1.137-.77-.126-1.49-.354-1.6-.507-1.301-1.808-16.793-3.653-20.64-2.459-.638.198-2.915.764-5.06 1.258-2.145.493-3.9 1.036-3.9 1.205 0 .168-.765.415-1.7.547-2.654.375-7.497 1.98-7.499 2.486 0 .25-.788 1.15-1.749 2-.962.849-1.94 1.914-2.173 2.366-.233.452-1.066 1.168-1.851 1.591-.786.423-1.428.941-1.428 1.152 0 .538-1.649 2.235-2.172 2.235-.567 0-1.318 2.165-2.289 6.591-.433 1.975-.959 3.697-1.169 3.827-.209.13-.627 1.394-.926 2.809-.3 1.415-.776 3.383-1.057 4.373-.356 1.249-.524 5.172-.55 12.809-.036 10.622-.067 11.042-.881 11.916l-.844.906-.571-.916a17.255 17.255 0 0 1-1.002-1.917c-.421-.975-3.403-2.405-5.006-2.4-.366.001-.726-.14-.8-.312-.073-.173-.707-.718-1.408-1.21-1.281-.899-3.325-4.664-3.325-6.124 0-.414-.16-.752-.355-.752-.196 0-.477-.675-.625-1.5-.494-2.757-1.151-4.118-2.107-4.357-1.19-.299-2.774-2.199-3.111-3.733-.146-.666-.411-1.21-.588-1.21-.178 0-.533-1.215-.79-2.7-.958-5.549-2.075-8.897-2.97-8.903-.527-.003-2.05-2.184-2.44-3.497-.147-.495-.412-.9-.589-.9-.432 0-1.11-3.693-1.615-8.8-.494-4.989-1.195-8.8-1.62-8.8-.461 0-2.694-3.642-3.005-4.9-.149-.605-.403-1.1-.564-1.1-2.284 0-2.916-64.297-.756-76.9.255-1.485.595-2.7.756-2.7.161 0 .415-.495.564-1.1.311-1.258 2.544-4.9 3.005-4.9.412 0 1.086-3.69 1.607-8.8.467-4.575 1.181-8.37 1.695-9 .18-.22.738-1.21 1.241-2.2.503-.99 1.309-1.978 1.79-2.195.979-.441 1.826-2.656 2.449-6.405.79-4.759.937-5.4 1.237-5.4.167 0 .574-.675.905-1.5.657-1.64 1.635-2.668 2.906-3.054.879-.267 1.553-1.812 1.983-4.546.147-.935.431-1.7.632-1.7s.373-.405.382-.9c.033-1.743 2.145-5.256 3.651-6.075.898-.487 1.603-1.265 1.904-2.1.264-.729.619-1.325.79-1.325.171 0 .53-.979.798-2.176.59-2.639 1.49-3.859 3.398-4.608 1.031-.404 1.582-.946 1.924-1.891.263-.729.623-1.325.798-1.325.176 0 .32-.273.32-.607 0-.929 2.023-4.592 2.542-4.602.252-.006.988-.726 1.635-1.6.647-.875 1.38-1.591 1.629-1.591.249 0 .858-.765 1.353-1.7 1.72-3.245 2.247-4.036 3.441-5.164.66-.624 1.589-1.24 2.064-1.369.475-.13 1.366-1.03 1.979-2.001.614-.971 1.261-1.766 1.437-1.766.176 0 .32-.279.32-.62 0-.852 2.272-3.03 4.161-3.988l2.628-1.333c.587-.298 1.261-1.057 1.499-1.688.262-.691 1.004-1.419 1.873-1.833.791-.377 1.439-.912 1.439-1.187 0-.276.9-.991 2-1.59 1.1-.598 2-1.24 2-1.425 0-.185.32-.336.711-.336.755 0 2.887-2.169 2.892-2.941.003-.596 2.232-2.106 4.006-2.713.765-.263 1.481-.586 1.591-.72.11-.133.678-.452 1.263-.709a2.305 2.305 0 0 0 1.32-1.641C92.99 44.225 96.407 42 98.843 42c.228 0 .693-.279 1.034-.62.341-.34 1.102-.716 1.691-.834.589-.117 1.422-.736 1.851-1.374.867-1.29 3.345-3.047 4.82-3.418.529-.132.961-.378.961-.546 0-.168.765-.424 1.7-.568 3.526-.544 5.328-1.378 5.932-2.744.337-.763 1.219-1.642 2.168-2.161.88-.481 1.789-1.042 2.02-1.246.429-.379 3.112-1.046 5.98-1.487 2.595-.399 4.801-1.382 5.214-2.324.213-.483 1.286-1.326 2.386-1.874 1.1-.549 2.095-1.124 2.21-1.279.357-.479 3.586-1.064 8.39-1.52 5.477-.52 8.8-1.13 8.8-1.614 0-.503 3.421-2.791 4.172-2.791.345 0 .628-.152.628-.337 0-1.178 7.994-2.01 23.4-2.435 16.243-.447 18.821-.449 34-.025m120.515 58.631c.157.239.883.64 1.615.89 1.664.57 3.71 2.267 4.381 3.634 1.198 2.441 1.659 3.042 4.889 6.379 1.21 1.25 2.556 2.946 2.991 3.768.435.822.93 1.495 1.1 1.495.17 0 .309.266.309.592 0 1.649 1.266 3.671 2.601 4.154 1.672.605 2.891 2.073 3.233 3.895.14.747.415 1.359.611 1.359.195 0 .355.223.355.496 0 1.324 1.458 3.946 2.316 4.165 1.026.262 2.495 2.078 3.269 4.039.281.715.637 1.3.79 1.3.153 0 .508 1.215.79 2.7.736 3.891 1.285 5.264 2.215 5.544 1.056.319 2.62 1.75 2.62 2.397 0 .276.291.793.646 1.148.697.697 1.107 2.141 1.761 6.211.621 3.861 1.471 6.154 2.448 6.605.47.217 1.234 1.114 1.699 1.993.466.878.994 1.707 1.175 1.841.552.409 1.054 3.058 1.889 9.961.439 3.63.974 6.66 1.19 6.733.216.074.392.396.392.716 0 .32.63 1.518 1.4 2.661.77 1.144 1.4 2.307 1.4 2.585s.168.505.373.505c3.345 0 3.361 80.788.016 81.933-.214.074-.389.346-.389.606 0 .259-.63 1.407-1.4 2.551-.77 1.143-1.4 2.356-1.4 2.694 0 .339-.161.616-.359.616-.34 0-.662 1.989-1.65 10.2-.464 3.853-1.134 6.6-1.611 6.6-.161 0-.398.416-.525.925-.128.509-.947 1.653-1.82 2.544-1.661 1.695-2 2.657-3.459 9.831-.347 1.705-.798 3.1-1.003 3.1-.205 0-.373.256-.373.569 0 .866-1.88 2.914-2.913 3.174-1.007.252-1.517 1.403-2.331 5.257-.279 1.32-.634 2.49-.789 2.6-.155.11-.708 1.097-1.228 2.194-.541 1.142-1.484 2.338-2.208 2.8-.735.468-1.655 1.644-2.197 2.806-.514 1.1-1.069 2.06-1.234 2.133-.165.074-.3.374-.3.667 0 1.451-1.593 4.13-2.765 4.649-.679.3-1.235.682-1.235.849 0 .166-.263.302-.584.302-.342 0-.789.703-1.08 1.7-.274.935-.596 1.79-.717 1.9-.12.11-.56.83-.976 1.6-.746 1.378-1.377 2.132-4.611 5.5-.898.935-1.632 1.852-1.632 2.038 0 .186-.344.649-.763 1.029-.42.38-.972 1.173-1.226 1.762s-1.176 1.611-2.048 2.271c-2.532 1.916-4.324 3.898-4.792 5.3-.238.715-.554 1.301-.702 1.302-.148.001-.816.496-1.485 1.1-1.18 1.065-2.27 1.773-4.802 3.12-.67.356-1.451 1.174-1.736 1.818-.284.644-.896 1.373-1.359 1.62-.463.248-1.302.882-1.864 1.41-.563.528-1.788 1.345-2.723 1.816-.935.47-1.7 1.004-1.7 1.185 0 .181-.347.329-.771.329-.81 0-2.429 1.745-2.429 2.619 0 .675-3.156 2.981-4.079 2.981-.396 0-.721.151-.721.336 0 .185-.679.56-1.509.834-1.232.407-1.646.829-2.256 2.302-.728 1.76-3.021 3.328-4.868 3.328-.312 0-.567.143-.567.317 0 .175-.949.64-2.108 1.034-1.5.51-2.355 1.093-2.964 2.022-.834 1.272-4.305 3.427-5.521 3.427-.334 0-.607.16-.607.355 0 .195-.813.476-1.807.625-2.218.333-5.393 1.694-5.393 2.313 0 .634-1.631 2.307-2.249 2.307-.28 0-.974.431-1.542.957-.694.643-1.916 1.114-3.721 1.436-6.155 1.096-7.714 1.633-9.275 3.194-.823.823-2.016 1.628-2.651 1.787-.635.159-1.25.445-1.367.634-.255.413-5.269 1.335-11.581 2.129-2.522.318-4.652.777-4.733 1.02-.081.244-.551.443-1.045.443-.493 0-1.306.436-1.806.968s-1.431 1.184-2.07 1.448c-.638.265-1.16.618-1.16.785 0 1.541-11.969 2.199-40 2.199-30.751 0-38.646-.507-40.922-2.628-.456-.425-1.034-.772-1.284-.772s-.877-.45-1.394-1c-.517-.55-1.343-1-1.836-1-.494 0-.964-.199-1.045-.443-.081-.243-2.211-.702-4.733-1.02-5.883-.74-11.309-1.706-11.577-2.061-.115-.152-1.07-.697-2.123-1.211-1.052-.514-2.179-1.34-2.503-1.835-.575-.877-3.245-1.736-7.583-2.438-2.442-.396-4.22-1.016-4.984-1.738-.38-.36-1.276-.971-1.992-1.357-.715-.387-1.399-1.08-1.519-1.539-.248-.949-2.87-2.215-5.435-2.625-.913-.146-1.9-.506-2.193-.799-.294-.294-.819-.534-1.168-.534-.348 0-1.223-.45-1.945-1-.721-.55-1.494-1-1.719-1-.752 0-1.757-2.74-1.491-4.068.329-1.648.936-2.332 2.066-2.332.508 0 1.229-.306 1.603-.681.622-.621 2.479-.686 21.35-.749 22.828-.076 26.422-.38 28.29-2.397 1.08-1.166 3.102-2.02 6.719-2.838 1.55-.35 2.908-.777 3.018-.947.11-.17 2.945-.693 6.299-1.161 7.299-1.019 7.188-.981 7.884-2.649.324-.775 1.107-1.608 1.885-2.007.733-.376 1.433-.839 1.557-1.029.217-.334 5.6-1.984 8.275-2.537.784-.162 1.3-.512 1.3-.881 0-.912 3.359-4.051 4.664-4.359 3.045-.718 4.734-1.789 5.897-3.742.638-1.073 1.538-2.145 2-2.384 2.703-1.398 4.707-2.912 6.379-4.82.473-.54 1.288-1.35 1.811-1.8 2.068-1.781 5.087-4.889 5.77-5.943.396-.611 1.157-1.278 1.69-1.48.872-.332 1.319-.975 3.054-4.396.637-1.256 3.504-4.178 4.433-4.518.903-.33 2.299-2.625 2.301-3.782 0-.495.167-.9.369-.9.203 0 .486-.535.63-1.189.249-1.138 2.226-3.211 3.061-3.211.836 0 1.533-1.206 2.174-3.756.365-1.454.798-2.644.961-2.644.163 0 .533-1.125.822-2.5.725-3.452 1.548-5.142 3.219-6.609 1.101-.966 1.553-1.786 1.973-3.572.3-1.276.671-2.409.824-2.519.154-.11.49-2.18.747-4.6.569-5.362 1.493-9.615 2.254-10.376.312-.312.572-.715.578-.895.006-.181.546-1.036 1.2-1.9.654-.864 1.189-1.809 1.189-2.1 0-.291.164-.529.365-.529.501 0 .75-1.91 1.253-9.6.485-7.429 1.419-14.133 1.997-14.333.212-.074.385-.373.385-.665 0-1.063 1.736-5.032 2.617-5.982 1.113-1.201 1.937-6.002 2.578-15.02.518-7.275.78-9.2 1.256-9.2.192 0 .349-.273.349-.606 0-1.544 1.125-4.07 2.374-5.33 1.923-1.94 2.375-4.037 3.065-14.25.326-4.833.732-8.883.902-9 .17-.118.543-1.294.83-2.614.623-2.861 1.204-4.016 2.793-5.543 1.477-1.42 1.898-3.268 2.27-9.962.156-2.802.41-5.095.565-5.095.156 0 .4-1.524.543-3.386.39-5.065 2.195-12.614 3.016-12.614.69 0 2.109-3.567 2.534-6.367.254-1.668.582-3.123.731-3.233.148-.11.395-2.27.547-4.8.685-11.349 1.2-13.516 3.828-16.092 1.275-1.249 1.63-1.93 1.842-3.528.145-1.089.392-1.98.549-1.98.157 0 .586-1.528.953-3.397.655-3.329 1.719-6.203 2.298-6.203.161 0 .802-.54 1.425-1.2.623-.66 1.358-1.2 1.634-1.2.275 0 .501-.288.501-.64 0-.862 2.298-2.96 3.242-2.96.417 0 .758-.167.758-.372 0-.204 1.002-.579 2.227-.834 1.874-.389 2.523-.776 4.095-2.441 1.855-1.965 4.398-3.153 6.751-3.153.51 0 .927-.17.927-.378 0-.836 22.969-1.019 23.515-.188M99.741 351.398c.329.33 1.062.775 1.629.991 1.873.712 1.027 2.019-1.49 2.303-1.456.164-2.07.027-3.073-.687l-1.253-.892 1.123-1.146c1.259-1.283 2.179-1.454 3.064-.569"/><path fill="#f1a682" d="M184.3 14.669c-2.145.088-3.9.333-3.9.545 0 .213-.765.389-1.7.392-3.697.014-15.385 1.996-15.859 2.69-.495.726-8.934 2.882-11.341 2.897-.605.004-1.1.187-1.1.407 0 .22-.521.4-1.157.4C146.145 22 138 24.305 138 25.182c0 .651-4.966 2.799-6.5 2.812-.385.003-.7.178-.7.388 0 .21-.675.491-1.5.625-2.044.331-5.732 1.702-6.484 2.409-1.552 1.461-3.259 2.64-4.386 3.034-.677.235-1.23.58-1.23.765 0 .185-1.539.806-3.42 1.38-1.881.574-3.721 1.394-4.089 1.824-.368.43-.855.781-1.083.781-.227 0-.986.623-1.685 1.385-.978 1.066-2.196 1.703-5.293 2.766-3.74 1.285-4.198 1.563-6.526 3.966-1.377 1.421-3.134 2.901-3.904 3.289-.77.388-1.49.82-1.6.959-.11.139-.709.578-1.331.974s-1.5 1.345-1.951 2.109c-.496.841-1.576 1.773-2.735 2.361-1.054.534-2.606 1.604-3.45 2.379-.843.774-1.668 1.409-1.833 1.41-.165.001-.3.263-.3.582 0 .601-1.793 2.059-3.7 3.008-.605.301-1.1.692-1.1.869 0 .177-.566.615-1.258.973-1.231.636-3.743 3.099-6.942 6.806-.88 1.019-2.41 2.716-3.4 3.769-3.067 3.264-3.774 4.144-4.6 5.723-.44.841-1.28 1.981-1.867 2.534-2.093 1.972-2.543 2.43-3.278 3.335-.41.505-1.057 1.614-1.438 2.464-.381.851-1.395 2.22-2.255 3.043-2.683 2.57-3.534 3.803-4.722 6.847-.633 1.624-1.486 3.239-1.896 3.589-.409.351-.744.836-.744 1.079s-.45.864-1 1.381-1 1.088-1 1.27c0 .181-.329.659-.731 1.061-.403.403-1.219 2.293-1.813 4.2-.595 1.908-1.221 3.469-1.392 3.469-.17 0-.626.716-1.012 1.59-.386.875-1.095 1.91-1.577 2.3-1.158.94-2.025 2.891-2.897 6.525-.394 1.642-.823 3.075-.954 3.185-.13.11-.462 1.066-.736 2.125-.659 2.545-2.073 5.571-2.932 6.275-.954.781-2.756 7.434-2.756 10.175 0 .527-.139 1.018-.308 1.092-.17.073-.618 1.951-.996 4.174-.769 4.519-1.807 8.092-2.581 8.888-.283.29-.515.56-.515.6 0 .039-.28 1.511-.622 3.271-.964 4.96-1.778 12.051-1.778 15.485 0 1.81-.168 3.115-.4 3.115-.26 0-.4 5.267-.4 15s.14 15 .4 15c.227 0 .4 1.167.4 2.702 0 6.184 1.912 18.353 3.065 19.505.691.692 2.373 7.113 2.761 10.544.153 1.347.411 2.449.574 2.449.163 0 .42 1.125.572 2.5.54 4.91 1.538 7.864 3.339 9.88.838.939 2.489 5.357 2.489 6.662 0 .307.157.558.348.558.191 0 .567 1.113.834 2.472.642 3.26 1.888 6.362 2.818 7.013.412.288 1.152 1.332 1.645 2.32.493.987 1.03 1.795 1.194 1.795.163 0 .85 1.717 1.526 3.816.88 2.736 1.598 4.197 2.532 5.158l1.303 1.341 1.383-.657c.862-.41 1.69-1.26 2.2-2.258.449-.88.981-1.719 1.182-1.864.201-.145.505-2.845.674-6 .503-9.349.909-11.376 2.612-13.042.535-.522 1.365-2.343 1.962-4.3.57-1.867 1.16-3.394 1.311-3.394.152 0 .627-1.099 1.056-2.442.485-1.517 1.141-2.691 1.732-3.1 1.641-1.136 5.688-5.087 5.688-5.554 0-.662 1.845-1.992 3.525-2.539.811-.265 1.565-.617 1.675-.783.11-.167 1.955-.873 4.1-1.57 2.145-.697 3.9-1.42 3.9-1.606 0-4.147 27.844-4.198 30.796-.056.286.401 6.63 2.85 7.384 2.85.341 0 .62.18.62.4 0 .22.191.4.423.4.715 0 3.577 2.497 3.577 3.12 0 .592 2.736 3.452 5.057 5.287 1.189.939 3.343 7.453 3.343 10.108 0 .377.139.685.309.685 1.489 0 1.57 17.241.086 18.4-.14.11-.572 2.09-.958 4.4-.951 5.688-.821 5.383-3.478 8.107-1.297 1.33-2.359 2.493-2.359 2.584 0 .09-.54.95-1.2 1.909-.66.959-1.2 1.858-1.2 1.998 0 .257-.776 1.153-4 4.614-2.546 2.733-4.175 4.716-4.35 5.292-.179.594-2.093 2.696-2.453 2.696-.404 0-3.715 3.279-4.679 4.634-.934 1.312-.863 2.114.706 7.966.546 2.036 2.902 3.822 5.414 4.105.969.11 1.762.325 1.762.478 0 1.193 19.862 1.247 20.8.057.11-.14 1.64-.662 3.4-1.16 2.458-.696 3.478-1.211 4.4-2.222.66-.724 2.1-1.753 3.2-2.287s2.09-1.061 2.2-1.171c.581-.581 2.821-2 3.157-2 .214 0 .509-.378.656-.84.303-.955 3.879-4.678 5.537-5.764.606-.397 1.655-1.819 2.332-3.159.676-1.34 1.609-2.697 2.074-3.015 1.927-1.319 3.698-3.687 4.622-6.182.538-1.452 1.099-2.64 1.248-2.64.148 0 .724-1.035 1.279-2.3.556-1.265 1.382-2.69 1.837-3.167.891-.934 2.073-4.146 2.881-7.833.277-1.265.656-2.3.841-2.3.185 0 .336-.337.336-.749 0-1.37 2.043-7.032 2.787-7.725 1.505-1.402 3.213-8.96 3.213-14.216 0-.94.149-1.71.331-1.71.182 0 .553-1.485.825-3.3.578-3.862 1.927-8.7 2.425-8.7.473 0 2.393-6.263 2.69-8.773.132-1.115.371-2.027.53-2.027.159 0 .41-1.575.558-3.5.472-6.148 2.179-15.145 2.974-15.675.33-.22 2.147-6.444 2.693-9.225.151-.77.412-1.49.581-1.6.168-.11.688-3.26 1.154-7 1.192-9.565 1.696-12.6 2.094-12.6.19 0 .345-.251.345-.559 0-.307.54-1.882 1.199-3.5.659-1.617 1.309-3.526 1.444-4.241.136-.715.381-1.3.545-1.3.378 0 1.093-4.512 1.611-10.164.51-5.568 1.183-9.436 1.642-9.436.197 0 .359-.334.359-.741 0-.408.468-1.983 1.039-3.5.572-1.518 1.133-3.164 1.247-3.659.114-.495.338-.9.497-.9.572 0 1.296-3.419 2.023-9.557.408-3.434.867-7.278 1.022-8.543.155-1.265.417-2.3.583-2.3.165 0 .418-.675.562-1.5.337-1.934 2.286-8.239 2.627-8.5.56-.429 2.796-11.693 2.799-14.1 0-.605.181-1.1.401-1.1.22 0 .403-.675.407-1.5.004-.825.273-3.12.598-5.1 1.109-6.748.616-13.333-1.093-14.616-.159-.119-.556-.975-.883-1.903-.711-2.015-1.839-3.651-2.529-3.668-.275-.007-.5-.19-.5-.407 0-.217-1.08-.94-2.4-1.606-1.32-.666-2.4-1.371-2.4-1.567 0-.195-.495-.55-1.1-.789-1.297-.511-3.707-1.84-4.358-2.402-.742-.641-4.489-1.576-8.142-2.032-5.356-.669-8.8-1.312-8.8-1.642 0-.168-.521-.419-1.159-.559-2.286-.502-2.603-1.328-1.835-4.778.371-1.667.824-3.031 1.007-3.031.183 0 .458-.405.611-.9.154-.495 1.561-2.203 3.127-3.795L185 55.609l58.9-.004c38.997-.003 58.9-.14 58.9-.405 0-.22 1.024-.4 2.276-.4 1.949 0 2.176-.074 1.576-.512-.523-.383-.761-1.32-.941-3.697-.32-4.23-1.315-5.262-7.025-7.289-2.996-1.064-4.343-1.773-5.255-2.767-.674-.734-1.412-1.335-1.639-1.335-.228 0-.715-.351-1.083-.781-.367-.429-2.207-1.26-4.089-1.847-1.881-.586-3.42-1.211-3.42-1.388 0-.177-.604-.521-1.341-.765-.738-.243-1.759-.887-2.27-1.431-.511-.543-1.167-.988-1.459-.988-.291 0-.53-.19-.53-.422 0-.573-2.99-1.856-5.636-2.419-1.19-.254-2.254-.576-2.364-.716-.11-.14-1.484-.661-3.054-1.157-1.569-.496-3.279-1.311-3.8-1.811-1.677-1.611-7.862-3.475-11.529-3.475-.669 0-1.217-.157-1.217-.348 0-.192-1.076-.47-2.391-.619-3.169-.359-9.613-2.119-10.05-2.745-.478-.684-12.187-2.668-15.826-2.682-.916-.003-1.733-.207-1.815-.453-.153-.458-27.26-.826-35.618-.484m30.1 1.545c8.407.593 16.001 1.602 16.4 2.18.239.345 9.743 2.806 10.838 2.806.419 0 .762.157.762.349 0 .191 1.755.566 3.9.832 7.692.956 12.9 2.093 12.9 2.818 0 .159 1.125.885 2.5 1.612 1.375.727 2.59 1.451 2.7 1.608.11.157 1.55.595 3.2.974 6.665 1.529 7.607 1.814 8.303 2.51.399.399 1.439 1.259 2.311 1.911.872.652 1.766 1.407 1.986 1.677.393.482 3.943 1.733 6.5 2.29.715.155 1.3.436 1.3.624s.342.45.76.582c.417.133 1.595 1.019 2.616 1.97 1.661 1.547 6.282 3.843 7.734 3.843.269 0 .49.166.49.368 0 .203.585.493 1.3.645 2.729.58 3.301 2.008 1.845 4.6-1.489 2.649.861 2.544-62 2.778l-56.254.209-3.825 3.881c-3.973 4.032-4.282 4.589-4.886 8.819-.149 1.045-.43 1.9-.625 1.9s-.355.36-.355.8c0 .44.135.801.3.803.165.001.728.63 1.25 1.398 1 1.467 2.078 1.905 5.85 2.375 4.768.594 10.2 1.563 10.2 1.819 0 .153.762.507 1.693.785.931.279 2.125.848 2.654 1.264.528.416 1.207.756 1.507.756.3 0 .546.148.546.33 0 .181 1.088.832 2.417 1.445 1.329.614 2.638 1.321 2.907 1.571.27.25 1.117.797 1.883 1.217 3.192 1.747 5.193 6.475 5.193 12.272 0 6.388-2.037 22.365-2.852 22.365-.191 0-.348.277-.348.616 0 .339-.336 1.284-.746 2.1-.411.816-.99 2.474-1.287 3.684-.298 1.21-.673 2.295-.835 2.412-.336.242-1.775 8.2-2.131 11.788-.567 5.713-1.139 9.4-1.458 9.4-.189 0-.343.423-.343.94 0 1.506-2.005 6.768-2.842 7.46-.829.685-2.219 7.86-2.616 13.5-.143 2.035-.388 3.7-.545 3.7-.157 0-.384.959-.505 2.131-.431 4.177-1.923 8.896-3.119 9.869-.993.808-2.765 9.441-2.771 13.5-.001.935-.15 1.7-.33 1.7-.18 0-.544 1.845-.808 4.1-.578 4.935-1.51 8.74-2.287 9.342-1.027.795-3.377 9.426-3.377 12.402 0 .526-.149.956-.331.956-.182 0-.641 2.835-1.02 6.3-.935 8.546-1.65 11.844-2.848 13.136-.841.909-2.201 4.445-2.201 5.726 0 .241-.162.438-.359.438-.471 0-1.065 3.59-1.844 11.141-.699 6.775-1.245 10.102-1.715 10.438-.419.3-2.882 4.218-2.882 4.585 0 .161-.257.55-.572.865-.314.314-.753 1.516-.974 2.671-.222 1.155-.682 3.539-1.023 5.298-.341 1.759-.802 3.259-1.025 3.333-.223.075-.41.526-.415 1.002-.014 1.379-1.394 4.054-2.567 4.977-.72.566-1.463 1.938-2.241 4.139-.641 1.811-1.318 3.396-1.504 3.522-.187.126-.687 1.344-1.11 2.706-.685 2.207-.929 2.539-2.238 3.056-1.066.419-1.713 1.058-2.354 2.323-.486.959-1.013 1.834-1.169 1.944-.157.11-.398.65-.536 1.2-.342 1.36-1.757 2.838-3.64 3.8-.861.44-1.76 1.16-1.998 1.6-.239.44-.659.944-.934 1.12-.275.176-.506.536-.513.8-.031 1.206-1.902 2.538-4.581 3.263-1.588.43-3.177 1.152-3.71 1.685-.513.512-1.088.932-1.279.932-.19 0-.8.54-1.356 1.2-.555.66-1.201 1.2-1.435 1.2-.234 0-.426.155-.426.345 0 1.444-10.027 2.144-20.723 1.447-6.25-.407-6.238-.397-7.084-5.792l-.534-3.4 1.724-1.646c.949-.905 2.255-1.881 2.903-2.168.786-.347 1.564-1.267 2.33-2.754 1.106-2.147 3.326-4.572 4.589-5.014.332-.116 1.216-1.248 1.963-2.515.748-1.266 1.61-2.573 1.916-2.903.306-.33.952-1.399 1.436-2.375s1.231-1.966 1.66-2.2c1.145-.623 2.138-1.85 2.692-3.325.269-.715.616-1.3.772-1.3.156 0 .499-1.305.762-2.9.786-4.761 2.244-9.9 2.81-9.9 2.233 0 2.05-13.155-.213-15.318-.841-.804-1.652-3.407-2.799-8.982-.147-.715-.433-1.3-.636-1.3-.202 0-.368-.299-.368-.665 0-1.152-1.94-4.033-2.89-4.29-1.315-.357-3.247-2.261-4.352-4.288-1.219-2.235-1.546-2.476-4.838-3.555-1.496-.491-2.72-1.04-2.72-1.22 0-.18-.405-.456-.9-.612-.495-.156-1.526-.798-2.291-1.427-.765-.628-1.543-1.143-1.729-1.143-.185 0-.594-.257-.909-.572-2.387-2.387-28.873-2.297-30.555.104-.555.793-3.953 2.829-5.116 3.066-.715.146-1.3.396-1.3.556 0 .159-1.363.73-3.03 1.268-2.844.918-6.17 3.287-6.17 4.395 0 .613-2.456 3.183-3.042 3.183-1.361 0-3.655 3.174-4.769 6.599-.609 1.871-1.26 3.401-1.448 3.401-.187 0-.341.354-.341.786 0 .432-.54 1.401-1.2 2.153-.66.752-1.2 1.559-1.2 1.794 0 .235-.241.571-.536.747-.959.573-1.491 3.019-1.897 8.72-.67 9.398-.71 9.626-1.926 11.019l-1.108 1.269-.667-1.404c-.366-.773-.666-1.603-.666-1.844 0-.242-.157-.44-.349-.44-.192 0-.464-.718-.604-1.596-.474-2.964-1.851-5.94-3.448-7.454-.854-.808-1.777-2.028-2.053-2.71-.275-.682-.651-1.344-.834-1.47-.184-.127-.51-1.387-.724-2.8-.706-4.654-1.788-8.37-2.437-8.37-.193 0-.351-.264-.351-.586 0-.322-.513-1.177-1.14-1.9-.627-.723-1.271-1.852-1.432-2.51-.16-.658-.453-1.296-.65-1.418-.376-.232-1.082-4.37-2.182-12.78-.359-2.747-.818-5.096-1.02-5.221-.202-.124-.546-1.117-.766-2.206-.887-4.392-1.947-7.779-2.435-7.779-.746 0-1.863-11.308-2.193-22.2-.383-12.612.948-33.728 2.181-34.6.643-.455 2.837-8.232 2.837-10.055 0-.41.155-.745.345-.745.189 0 .657-2.475 1.039-5.5.802-6.352 1.753-11.409 2.199-11.699.17-.111.448-.651.618-1.201.17-.55.734-1.509 1.254-2.131.52-.622.945-1.374.945-1.671 0-.298.259-.8.575-1.116.601-.601 1.571-4.004 2.019-7.082.333-2.29.984-4.4 1.357-4.4.158 0 .502-.585.763-1.3.261-.715 1.152-2.061 1.98-2.991 1.406-1.578 1.73-2.345 3.388-8.009.209-.715.527-1.3.706-1.3.179 0 .43-.418.559-.93.128-.511 1.096-1.844 2.15-2.961 1.136-1.204 2.216-2.862 2.65-4.07.403-1.121.873-2.039 1.043-2.039.171 0 .421-.554.556-1.232.446-2.23 1.547-4.025 2.848-4.646.698-.332 1.615-1.248 2.037-2.034.423-.786.951-1.622 1.174-1.859.222-.236.629-.879.904-1.429 1.073-2.149 1.932-3.259 2.879-3.725.543-.268 1.393-1.114 1.889-1.881.495-.767 1.136-1.664 1.425-1.994.288-.33 1.033-1.359 1.657-2.288.623-.928 1.472-1.795 1.887-1.927.415-.131.754-.384.754-.562 0-.311 1.947-2.599 4.7-5.522.715-.76 1.3-1.509 1.3-1.666 0-.337 2.137-2.435 2.48-2.435.129 0 .813-.54 1.52-1.2.707-.66 1.491-1.2 1.742-1.2.252 0 1.166-.63 2.031-1.4.865-.77 1.705-1.4 1.867-1.4.162 0 .691-.641 1.176-1.426.484-.784 1.624-1.89 2.532-2.459.909-.569 1.742-1.143 1.852-1.275.11-.133.724-.511 1.365-.841.641-.329 1.455-1.074 1.809-1.654.703-1.154 3.873-3.945 4.481-3.945.208 0 .596-.183.862-.407.266-.224 1.248-.945 2.183-1.603.935-.657 1.7-1.433 1.7-1.723 0-.829 1.672-2.154 3.1-2.456.715-.151 1.3-.396 1.3-.545 0-.149.765-.506 1.7-.792 3.008-.923 6.241-2.626 6.638-3.499.213-.466 1.034-1.155 1.825-1.53.79-.376 1.437-.84 1.437-1.032 0-.192.585-.467 1.3-.611 2.258-.453 6.073-1.846 6.698-2.445 1.111-1.064 4.199-3.349 4.531-3.353.18-.002.598-.274.928-.603.329-.33.991-.68 1.471-.777 4.17-.847 8.672-1.997 8.672-2.214 0-.147.865-.658 1.921-1.136 1.057-.477 2.272-1.191 2.7-1.586 1.506-1.387 5.261-2.311 13.479-3.315 2.145-.262 3.9-.633 3.9-.824 0-.192.379-.349.842-.349 1.09 0 10.496-2.442 10.758-2.793 1.472-1.972 28.903-3.315 44.8-2.193m104.83 57.211c-3.78.486-6.295 1.135-6.83 1.765-.11.129-1.46.848-3 1.596-1.54.748-3.038 1.597-3.329 1.887-.29.29-.713.527-.938.527-2.973 0-8.09 3.457-9.118 6.159-.22.581-.809 1.211-1.308 1.401-.519.198-1.334 1.218-1.907 2.387-.55 1.122-1.115 2.043-1.255 2.047-.14.003-.376.861-.525 1.906-.475 3.337-2.209 9.746-2.795 10.333-.889.888-2.089 4.472-2.636 7.867-.274 1.705-.631 3.1-.792 3.1-.161 0-.599 2.385-.972 5.3-.97 7.578-1.906 13.268-2.222 13.5-.149.11-.47.92-.714 1.8-.705 2.547-2.262 6.78-2.582 7.019-.458.343-1.444 6.116-1.909 11.181-.491 5.335-1.212 9.6-1.623 9.6-.157 0-.411.665-.563 1.477-.325 1.73-2.211 6.624-2.675 6.941-.381.261-1.707 8.091-2.367 13.982-.259 2.31-.592 4.29-.739 4.4-.148.11-.513 1.46-.811 3-.595 3.077-2.193 7.808-2.759 8.17-.434.277-2.341 9.946-2.709 13.73-.144 1.485-.418 2.7-.607 2.7-.19 0-.345.426-.345.948 0 .959-.86 6.303-1.634 10.152-.233 1.155-.652 2.329-.932 2.608-.852.853-2.227 5.357-2.941 9.638-.372 2.23-.789 4.144-.927 4.254-.138.11-.376 1.782-.53 3.714-.417 5.241-1.819 12.064-2.605 12.686-.342.27-1.434 2.917-2.312 5.6-.395 1.21-.841 2.293-.991 2.406-.15.114-.482 1.464-.738 3-.808 4.842-2.057 9.5-2.746 10.239-.365.392-1.177 1.667-1.805 2.834-.628 1.166-1.276 2.211-1.441 2.321-.164.11-.848 1.855-1.518 3.877-1.179 3.556-2.011 4.857-4.924 7.703-.575.561-1.51 2.055-2.078 3.32-.569 1.265-1.224 2.3-1.456 2.3-.232 0-.426.225-.432.5-.005.275-1.085 1.639-2.4 3.031-1.314 1.392-2.39 2.755-2.39 3.028 0 .273-.464.9-1.03 1.393-.567.492-1.285 1.505-1.597 2.25-.311.746-1.017 1.68-1.568 2.077-1.041.749-4.443 4.011-6.242 5.984-1.369 1.502-2.696 2.636-4.163 3.562-.66.416-2.214 1.763-3.453 2.994-2.223 2.208-5.804 4.781-6.653 4.781-.24 0-.675.235-.965.522-.291.288-1.292.95-2.225 1.472-.932.521-1.795 1.261-1.916 1.644-.252.795-3.356 2.522-5.288 2.942-.715.156-1.3.446-1.3.644s-.495.485-1.1.636c-2.135.534-4.516 1.792-5.111 2.701-.715 1.09-4.141 3.039-5.343 3.039-.465 0-.846.14-.846.312 0 .171-1.485.542-3.3.824-4.136.643-7.329 1.55-8.071 2.292-.315.315-.706.572-.869.572-.163 0-.594.269-.958.598-.634.574-7.278 2.183-9.069 2.196-.476.003-.935.212-1.019.464-.103.308-2.652.566-7.733.783-4.17.179-8.571.517-9.781.753-1.459.283-6.04.336-13.603.156-12.494-.297-12.491-.298-15.229 2.142-1.146 1.021-1.051 2.108.185 2.108.25 0 .667.34.926.755.419.67 5.035 2.445 6.36 2.445.277 0 .742.233 1.032.517.291.284 1.118.758 1.837 1.052.72.294 1.71 1.01 2.2 1.591 1.176 1.392 3.25 2.606 5.592 3.273 1.045.298 1.9.682 1.9.854 0 .172.416.313.925.313 2.412 0 9.576 2.387 10.475 3.491.516.634 4.862 2.01 7.415 2.349 1.092.145 1.985.399 1.985.565 0 .167 1.035.431 2.3.589 2.785.346 9.759 2.078 10.074 2.502.93 1.251 5.99 2.476 13.026 3.153 1.54.149 2.89.406 3 .573.816 1.233 45.181 1.232 46-.002.11-.165 1.46-.422 3-.571 6.972-.671 12.082-1.899 13.01-3.127.334-.442 7.634-2.242 10.332-2.547 1.352-.153 2.458-.415 2.458-.581 0-.167.843-.43 1.872-.584 2.689-.403 6.848-1.748 7.215-2.333.581-.928 6.096-2.877 9.413-3.328 1.045-.142 1.9-.393 1.9-.559 0-.165.585-.413 1.3-.549 1.98-.377 4.949-1.942 5.843-3.077.439-.559 1.577-1.36 2.528-1.779.951-.42 1.819-.883 1.929-1.029.11-.146 1.43-.645 2.934-1.109 3.386-1.043 4.885-1.876 6.383-3.547.641-.715 1.404-1.3 1.696-1.3.291 0 .776-.247 1.078-.548.301-.302 1.951-1.033 3.667-1.625 2.706-.934 3.468-1.427 5.759-3.73 1.453-1.46 3.551-3.102 4.662-3.649 1.112-.547 2.111-1.123 2.221-1.279 1.395-1.982 4.117-4.628 5.322-5.173 1.789-.808 5.478-3.927 5.478-4.631 0-.269.966-1.034 2.147-1.7 1.181-.667 2.255-1.494 2.387-1.839.133-.344.428-.626.657-.626.771 0 3.734-2.398 4.677-3.785.514-.757 1.159-1.52 1.433-1.696.275-.175 1.119-1.129 1.876-2.119.757-.99 2.062-2.399 2.9-3.131.838-.732 1.523-1.567 1.523-1.854 0-.288.423-.8.94-1.139.517-.339 1.261-1.291 1.652-2.116.391-.825 1.804-2.593 3.139-3.93 1.426-1.428 2.896-3.409 3.566-4.805.627-1.307 1.537-2.653 2.022-2.991 1.609-1.124 3.901-3.775 4.16-4.812.336-1.34 1.755-4.567 2.122-4.822.158-.11.565-.743.905-1.407.34-.663 1.258-1.832 2.04-2.597 1.068-1.044 1.689-2.236 2.498-4.793.593-1.872 1.205-3.493 1.36-3.603.156-.11.759-1.1 1.341-2.199.582-1.1 1.42-2.273 1.862-2.606.843-.636 2.77-5.546 2.785-7.095.004-.495.168-.9.363-.9.196 0 .478-.649.627-1.442.576-3.074 1.858-6.489 2.783-7.414 1.059-1.059 2.515-4.956 2.899-7.761.135-.981.368-1.783.518-1.783.151 0 .494-1.665.762-3.7.577-4.371 2.002-10.7 2.409-10.7.812 0 2.239-5.903 2.902-12 .276-2.53.691-4.728.923-4.885.609-.412.588-43.837-.022-44.23-.244-.157-.574-1.635-.733-3.285-.587-6.074-2.098-12.816-3.049-13.6-.692-.57-2.774-10.369-2.774-13.052 0-.521-.141-.948-.313-.948-.172 0-.554-1.299-.847-2.886-.583-3.151-1.858-6.228-2.907-7.014-.689-.516-2.093-4.359-2.558-7-.145-.825-.383-1.5-.529-1.5-.145 0-.495-.992-.777-2.205-.684-2.944-1.641-4.968-2.964-6.27-.6-.591-1.384-1.806-1.742-2.7-.357-.894-.782-1.625-.943-1.625-.161 0-.621-1.125-1.022-2.5-.902-3.097-2.12-5.475-3.29-6.423-.491-.397-1.186-1.342-1.546-2.1-.359-.757-.8-1.377-.979-1.377-.178 0-.891-1.468-1.583-3.263-1.046-2.711-1.677-3.675-3.728-5.695-1.358-1.337-2.864-3.282-3.346-4.322-.481-1.04-1.945-2.937-3.252-4.216-1.307-1.279-2.731-2.987-3.164-3.795-1.726-3.22-6.106-7.401-8.974-8.566-2.736-1.112-8.049-1.224-15.106-.318m13.751 1.039c.561.256 1.019.596 1.019.757 0 .161.451.405 1.002.544.55.138 1.405.875 1.9 1.638.494.763 1.107 1.389 1.363 1.392.256.003 1.013.77 1.681 1.705.668.935 1.471 1.97 1.783 2.3.312.33.866 1.186 1.23 1.902.365.716 1.379 1.754 2.252 2.305.874.552 1.589 1.228 1.589 1.502 0 .275.405.956.9 1.513.495.558 1.411 1.996 2.036 3.196.707 1.356 1.587 2.409 2.326 2.782.655.33 1.493 1.14 1.864 1.8.371.66.778 1.29.905 1.4.127.11.521 1.1.877 2.2 1.134 3.51 1.785 4.761 3.357 6.447 2.932 3.146 2.974 3.228 4.753 9.153.396 1.32.921 2.58 1.167 2.8.246.22 1.07 1.3 1.831 2.4.761 1.1 1.491 2.09 1.621 2.2.493.417 1.517 3.934 2.151 7.391.362 1.975.8 3.685.972 3.8.172.115.633 1.055 1.024 2.089.39 1.035 1.049 2.188 1.463 2.562.414.375.753.924.753 1.22 0 .296.158.538.351.538.547 0 1.536 4.469 2.303 10.4.384 2.97.844 5.46 1.022 5.533.178.074.324.512.324.975 0 1.722 2.338 10.794 2.868 11.129 3.286 2.075 3.115 56.037-.189 59.341-.511.511-.983 2.182-2.349 8.322-.282 1.265-.626 2.3-.766 2.3-.25 0-.443 1.304-1.185 8-.456 4.116-1.532 8.8-2.022 8.8-.196 0-.357.238-.357.529 0 .291-.535 1.236-1.189 2.1-.654.864-1.194 1.783-1.2 2.042-.006.26-.263.723-.57 1.031-.591.59-1.58 4.08-2.013 7.098-.384 2.676-1.089 5.2-1.453 5.2-.177 0-.422.319-.546.709-.124.389-.942 1.424-1.818 2.3-1.7 1.697-2.825 4.169-3.593 7.891-.261 1.265-.642 2.3-.846 2.3-.205 0-.372.24-.372.533 0 .293-1.051 1.601-2.337 2.906-1.674 1.7-2.533 2.967-3.032 4.467-.382 1.152-.832 2.094-.999 2.094-.167 0-.547 1.014-.845 2.252-.466 1.946-.717 2.327-1.84 2.796-.714.298-1.804 1.22-2.421 2.047-.617.828-1.243 1.597-1.392 1.709-.149.112-.404.742-.568 1.4-.422 1.699-1.826 3.749-2.766 4.039-1.026.317-3 2.158-3 2.799 0 .27-.135.551-.3.625-.391.174-1.884 2.343-2.203 3.203-.137.368-.897.977-1.69 1.354-.793.376-1.709 1.2-2.035 1.83-.326.63-.726 1.146-.889 1.146-.163 0-.885.9-1.605 2s-1.453 2-1.628 2c-.285 0-1.726 1.372-4.924 4.687-.59.612-2.06 1.563-3.266 2.113-1.758.801-2.444 1.41-3.455 3.066-.987 1.617-1.754 2.311-3.533 3.2-2.305 1.151-5.272 3.744-5.272 4.609 0 .745-1.665 2.325-2.451 2.325-2.032 0-5.711 2.912-6.093 4.822-.148.739-.485 1.178-.903 1.178-1.198 0-6.153 1.624-6.153 2.017 0 .211-.337.383-.749.383-2.202 0-5.348 2.291-6.149 4.477-.056.153-1.002.51-2.102.794-1.1.283-2.09.625-2.2.758-.11.133-1.033.448-2.052.7-3.637.9-5.439 1.922-6.421 3.642-.51.893-1.139 1.624-1.398 1.626-.26.002-.714.245-1.01.541-.298.298-2.762.845-5.528 1.227-5.222.722-10.05 1.751-10.391 2.215-.11.15-1.042.845-2.07 1.545-1.029.7-2.134 1.537-2.457 1.86-.512.511-8.306 1.741-18.373 2.898-1.045.12-1.9.351-1.9.513 0 .162-.954.406-2.12.543-2.826.332-6.651 1.679-7.569 2.665-.408.438-1.05.8-1.427.804-.376.005-3.744.272-7.484.595-8.667.747-19.333.747-28 0-3.74-.323-7.108-.59-7.484-.595-.377-.004-1.019-.366-1.427-.804-.918-.986-4.743-2.333-7.569-2.665-1.166-.137-2.12-.381-2.12-.543 0-.162-.855-.393-1.9-.513-14.738-1.694-17.741-2.271-19.241-3.693-.803-.761-1.65-1.385-1.884-1.387-.233-.001-.786-.34-1.228-.752-1.026-.956-4.633-1.843-10.93-2.69-2.836-.381-5.218-.905-5.528-1.215-.301-.3-.713-.546-.918-.546-.204 0-.371-.975-.371-2.167 0-3.32-.1-3.433-3.043-3.433-1.406 0-2.557-.161-2.557-.358 0-.196-1.592-.483-3.537-.637-7.587-.6-5.084-1.611 3.248-1.312 4.577.165 5.712.324 6.1.855.263.359.667.652.9.652.232 0 .527.225.656.5.186.4.28.4.466 0 .16-.343 1.312-.5 3.669-.5 2.409 0 3.624-.17 4.067-.569 1.239-1.117 5.86-1.831 11.856-1.831 3.176 0 5.775-.154 5.775-.341 0-.188 2.115-.466 4.7-.617 7.044-.414 9.991-1.331 11.7-3.641.866-1.17 1.362-1.417 3.7-1.84 1.485-.269 2.7-.62 2.7-.779 0-.16 1.443-.501 3.208-.759 3.931-.575 5.706-1.347 7.868-3.423 2.994-2.874 3.737-3.28 7.698-4.207 2.279-.533 4.845-2.564 5.384-4.261.158-.497.726-.929 1.398-1.063 1.515-.303 5.644-2.276 5.644-2.697 0-.184.622-.63 1.383-.991.767-.364 1.613-1.176 1.899-1.822.284-.641 1.282-1.715 2.217-2.387.936-.672 1.701-1.391 1.701-1.597 0-.206.337-.375.75-.375.898 0 3.445-2.274 3.81-3.4.36-1.112 2.361-3.235 3.712-3.937 1.799-.936 2.709-1.91 4.011-4.298.671-1.23 2.322-3.352 3.67-4.717 2.33-2.36 4.447-5.708 4.447-7.035 0-.337.153-.613.339-.613.187 0 .609-.686.939-1.525.415-1.057 1.032-1.731 2.009-2.194 1.378-.654 3.113-3.583 3.113-5.255 0-.344.136-.626.302-.626.166 0 .704-1.035 1.195-2.3.492-1.265 1.598-3.046 2.458-3.958 1.508-1.599 2.845-4.842 2.845-6.904 0-.461.149-.838.33-.838.182 0 .651-2.003 1.043-4.452.719-4.502 1.535-7.148 2.203-7.148.564 0 2.368-3.998 2.663-5.9.145-.935.4-1.7.567-1.7.308 0 .807-3.898 1.612-12.6.438-4.731 1.335-9.364 1.895-9.785.586-.439 1.988-3.479 2.5-5.415.29-1.1.689-2.109.887-2.242.197-.133.701-3.823 1.12-8.2.755-7.879 1.47-12.571 1.977-12.958.33-.252 1.392-3.304 2.505-7.2.471-1.65.981-3.09 1.133-3.2.343-.248 1.439-6.827 1.767-10.6.372-4.289 1.074-8.6 1.401-8.6.161 0 .507-1.125.768-2.5.463-2.441 1.956-6.7 2.489-7.101.824-.62 2.24-9.331 2.973-18.299.149-1.815.391-3.3.539-3.3.147 0 .5-1.125.784-2.5.521-2.525 1.857-5.914 2.49-6.321.717-.459 1.572-4.388 2.215-10.179.367-3.3.791-6.09.943-6.2.151-.11.393-1.46.538-3 .145-1.54.621-4.24 1.058-6 .437-1.76.886-3.592.998-4.072.112-.48.432-1.11.712-1.4.585-.607 2.521-6.909 2.933-9.549.153-.978.396-1.869.54-1.979.143-.11.584-1.73.978-3.6.689-3.269 1.66-5.6 2.331-5.6.488 0 2.655-2.496 2.952-3.4.575-1.745 3.558-4.092 5.805-4.565 3.152-.664 7.151-2.044 7.151-2.468 0-.202.235-.367.522-.367.288 0 1.108-.432 1.824-.96.715-.528 1.92-1.076 2.677-1.218.757-.142 1.377-.405 1.377-.585 0-.949 13.9-1.63 15.781-.773"/><path fill="#d9665e" d="M185.2 16.231c-7.19.516-15.195 1.633-15.6 2.176-.262.351-9.668 2.793-10.758 2.793-.463 0-.842.157-.842.349 0 .191-1.755.562-3.9.824-8.218 1.004-11.973 1.928-13.479 3.315-.428.395-1.643 1.109-2.7 1.586-1.056.478-1.921.989-1.921 1.136 0 .217-4.502 1.367-8.672 2.214-.48.097-1.142.447-1.471.777-.33.329-.748.601-.928.603-.332.004-3.42 2.289-4.531 3.353-.625.599-4.44 1.992-6.698 2.445-.715.144-1.3.419-1.3.611s-.647.656-1.437 1.032c-.791.375-1.612 1.064-1.825 1.53-.397.873-3.63 2.576-6.638 3.499-.935.286-1.7.643-1.7.792 0 .149-.585.394-1.3.545-1.428.302-3.1 1.627-3.1 2.456 0 .29-.765 1.066-1.7 1.723-.935.658-1.917 1.379-2.183 1.603-.266.224-.654.407-.862.407-.608 0-3.778 2.791-4.481 3.945-.354.58-1.168 1.325-1.809 1.654-.641.33-1.255.708-1.365.841-.11.132-.943.706-1.852 1.275-.908.569-2.048 1.675-2.532 2.459-.485.785-1.014 1.426-1.176 1.426-.162 0-1.002.63-1.867 1.4-.865.77-1.779 1.4-2.031 1.4-.251 0-1.035.54-1.742 1.2-.707.66-1.391 1.2-1.52 1.2-.343 0-2.48 2.098-2.48 2.435 0 .157-.585.906-1.3 1.666-2.753 2.923-4.7 5.211-4.7 5.522 0 .178-.339.431-.754.562-.415.132-1.264.999-1.887 1.927-.624.929-1.369 1.958-1.657 2.288-.289.33-.93 1.227-1.425 1.994-.496.767-1.346 1.613-1.889 1.881-.947.466-1.806 1.576-2.879 3.725-.275.55-.682 1.193-.904 1.429-.223.237-.751 1.073-1.174 1.859-.422.786-1.339 1.702-2.037 2.034-1.301.621-2.402 2.416-2.848 4.646-.135.678-.385 1.232-.556 1.232-.17 0-.64.918-1.043 2.039-.434 1.208-1.514 2.866-2.65 4.07-1.054 1.117-2.022 2.45-2.15 2.961-.129.512-.38.93-.559.93-.179 0-.497.585-.706 1.3-1.658 5.664-1.982 6.431-3.388 8.009-.828.93-1.719 2.276-1.98 2.991-.261.715-.605 1.3-.763 1.3-.373 0-1.024 2.11-1.357 4.4-.448 3.078-1.418 6.481-2.019 7.082-.316.316-.575.818-.575 1.116 0 .297-.425 1.049-.945 1.671-.52.622-1.084 1.581-1.254 2.131-.17.55-.448 1.09-.618 1.201-.446.29-1.397 5.347-2.199 11.699-.382 3.025-.85 5.5-1.039 5.5-.19 0-.345.335-.345.745 0 1.823-2.194 9.6-2.837 10.055-1.233.872-2.564 21.988-2.181 34.6.33 10.892 1.447 22.2 2.193 22.2.488 0 1.548 3.387 2.435 7.779.22 1.089.564 2.082.766 2.206.202.125.661 2.474 1.02 5.221 1.1 8.41 1.806 12.548 2.182 12.78.197.122.49.76.65 1.418.161.658.805 1.787 1.432 2.51.627.723 1.14 1.578 1.14 1.9 0 .322.158.586.351.586.649 0 1.731 3.716 2.437 8.37.214 1.413.54 2.673.724 2.8.183.126.559.788.834 1.47.276.682 1.199 1.902 2.053 2.71 1.597 1.514 2.974 4.49 3.448 7.454.14.878.412 1.596.604 1.596s.349.198.349.44c0 .241.3 1.071.666 1.844l.667 1.404 1.108-1.269c1.216-1.393 1.256-1.621 1.926-11.019.406-5.701.938-8.147 1.897-8.72.295-.176.536-.512.536-.747s.54-1.042 1.2-1.794c.66-.752 1.2-1.721 1.2-2.153 0-.432.154-.786.341-.786.188 0 .839-1.53 1.448-3.401 1.114-3.425 3.408-6.599 4.769-6.599.586 0 3.042-2.57 3.042-3.183 0-1.108 3.326-3.477 6.17-4.395 1.667-.538 3.03-1.109 3.03-1.268 0-.16.585-.41 1.3-.556 1.163-.237 4.561-2.273 5.116-3.066 1.682-2.401 28.168-2.491 30.555-.104.315.315.724.572.909.572.186 0 .964.515 1.729 1.143.765.629 1.796 1.271 2.291 1.427.495.156.9.432.9.612s1.224.729 2.72 1.22c3.292 1.079 3.619 1.32 4.838 3.555 1.105 2.027 3.037 3.931 4.352 4.288.95.257 2.89 3.138 2.89 4.29 0 .366.166.665.368.665.203 0 .489.585.636 1.3 1.147 5.575 1.958 8.178 2.799 8.982 2.263 2.163 2.446 15.318.213 15.318-.566 0-2.024 5.139-2.81 9.9-.263 1.595-.606 2.9-.762 2.9-.156 0-.503.585-.772 1.3-.554 1.475-1.547 2.702-2.692 3.325-.429.234-1.176 1.224-1.66 2.2-.484.976-1.13 2.045-1.436 2.375-.306.33-1.168 1.637-1.916 2.903-.747 1.267-1.631 2.399-1.963 2.515-1.263.442-3.483 2.867-4.589 5.014-.766 1.487-1.544 2.407-2.33 2.754-.648.287-1.954 1.263-2.903 2.168l-1.724 1.646.534 3.4c.846 5.395.834 5.385 7.084 5.792 10.696.697 20.723-.003 20.723-1.447 0-.19.192-.345.426-.345.234 0 .88-.54 1.435-1.2.556-.66 1.166-1.2 1.356-1.2.191 0 .766-.42 1.279-.932.533-.533 2.122-1.255 3.71-1.685 2.679-.725 4.55-2.057 4.581-3.263.007-.264.238-.624.513-.8.275-.176.695-.68.934-1.12.238-.44 1.137-1.16 1.998-1.6 1.883-.962 3.298-2.44 3.64-3.8.138-.55.379-1.09.536-1.2.156-.11.683-.985 1.169-1.944.641-1.265 1.288-1.904 2.354-2.323 1.309-.517 1.553-.849 2.238-3.056.423-1.362.923-2.58 1.11-2.706.186-.126.863-1.711 1.504-3.522.778-2.201 1.521-3.573 2.241-4.139 1.173-.923 2.553-3.598 2.567-4.977.005-.476.192-.927.415-1.002.223-.074.684-1.574 1.025-3.333.341-1.759.801-4.143 1.023-5.298.221-1.155.66-2.357.974-2.671.315-.315.572-.704.572-.865 0-.367 2.463-4.285 2.882-4.585.47-.336 1.016-3.663 1.715-10.438.779-7.551 1.373-11.141 1.844-11.141.197 0 .359-.197.359-.438 0-1.281 1.36-4.817 2.201-5.726 1.198-1.292 1.913-4.59 2.848-13.136.379-3.465.838-6.3 1.02-6.3.182 0 .331-.43.331-.956 0-2.976 2.35-11.607 3.377-12.402.777-.602 1.709-4.407 2.287-9.342.264-2.255.628-4.1.808-4.1.18 0 .329-.765.33-1.7.006-4.059 1.778-12.692 2.771-13.5 1.196-.973 2.688-5.692 3.119-9.869.121-1.172.348-2.131.505-2.131.157 0 .402-1.665.545-3.7.397-5.64 1.787-12.815 2.616-13.5.837-.692 2.842-5.954 2.842-7.46 0-.517.154-.94.343-.94.319 0 .891-3.687 1.458-9.4.356-3.588 1.795-11.546 2.131-11.788.162-.117.537-1.202.835-2.412.297-1.21.876-2.868 1.287-3.684.41-.816.746-1.761.746-2.1 0-.339.157-.616.348-.616.815 0 2.852-15.977 2.852-22.365 0-5.797-2.001-10.525-5.193-12.272-.766-.42-1.613-.967-1.883-1.217-.269-.25-1.578-.957-2.907-1.571-1.329-.613-2.417-1.264-2.417-1.445 0-.182-.246-.33-.546-.33-.3 0-.979-.34-1.507-.756-.529-.416-1.723-.985-2.654-1.264-.931-.278-1.693-.632-1.693-.785 0-.256-5.432-1.225-10.2-1.819-3.772-.47-4.85-.908-5.85-2.375-.522-.768-1.085-1.397-1.25-1.398-.165-.002-.3-.363-.3-.803 0-.44.16-.8.355-.8.195 0 .476-.855.625-1.9.604-4.23.913-4.787 4.886-8.819l3.825-3.881 56.254-.209c62.861-.234 60.511-.129 62-2.778 1.456-2.592.884-4.02-1.845-4.6-.715-.152-1.3-.442-1.3-.645 0-.202-.221-.368-.49-.368-1.452 0-6.073-2.296-7.734-3.843-1.021-.951-2.199-1.837-2.616-1.97-.418-.132-.76-.394-.76-.582 0-.188-.585-.469-1.3-.624-2.557-.557-6.107-1.808-6.5-2.29-.22-.27-1.114-1.025-1.986-1.677-.872-.652-1.912-1.512-2.311-1.911-.696-.696-1.638-.981-8.303-2.51-1.65-.379-3.09-.817-3.2-.974-.11-.157-1.325-.881-2.7-1.608-1.375-.727-2.5-1.453-2.5-1.612 0-.725-5.208-1.862-12.9-2.818-2.145-.266-3.9-.641-3.9-.832 0-.192-.343-.349-.762-.349-1.095 0-10.599-2.461-10.838-2.806-1.354-1.958-29.733-3.304-45.6-2.163m28.455 2.282c.376.672 4.189 2.687 5.084 2.687.253 0 .461.146.461.325 0 1.072 9.228 2.274 22.5 2.929 5.665.28 10.3.652 10.3.827 0 .176.271.319.601.319.331 0 .9.688 1.264 1.529.912 2.106 4.666 4.054 7.835 4.067.605.002 1.1.155 1.1.339 0 .184 2.324.565 5.164.846l5.164.512.433 1.719c.337 1.335.769 1.923 1.936 2.632.827.503 1.593 1.037 1.703 1.187.11.15 1.983.61 4.162 1.021l3.962.748 1.424 1.9c.782 1.045 1.519 1.9 1.637 1.9.118.001.72.435 1.337.966.702.604 1.893 1.071 3.18 1.248 3.132.431 5.119 1.213 4.098 1.614-.44.172-.928.507-1.085.743-.2.3-17.215.489-56.8.629-63.035.223-59.01.031-59.998 2.866-.217.624-.521 1.134-.675 1.134-.154 0-.902.624-1.661 1.387-.76.763-1.576 1.393-1.813 1.4-2.157.064-3.448 14.501-1.527 17.078.462.621 1.407 1.291 2.1 1.49.692.198 1.259.495 1.259.66 0 .164 1.845.414 4.1.555 7.58.475 7.693.503 8.563 2.16.511.973 1.375 1.766 2.555 2.344.98.481 1.99 1.057 2.245 1.281.255.224 1.425.522 2.6.661 3.783.448 5.825 1.282 6.128 2.503.309 1.243 1.707 2.881 2.461 2.881.699 0 2.548 1.9 2.548 2.618 0 .32.18.582.4.582.252 0 .4 2.733.4 7.4 0 4.094-.16 7.4-.358 7.4-.197 0-.487 1.447-.643 3.216-.281 3.175-.307 3.235-2.01 4.658-2.533 2.118-3.74 6.281-3.777 13.026-.006 1.265-.192 2.3-.412 2.3-.227 0-.402 1.169-.404 2.7-.012 7.689-.748 12.187-2.208 13.486-1.422 1.266-3.388 5.428-3.388 7.173 0 .536-.16 1.034-.357 1.108-.484.181-1.243 7.523-1.243 12.022 0 6.473-.723 10.65-1.955 11.289-1.034.537-3.245 4.303-3.245 5.529 0 .344-.17.686-.379.76-.559.197-1.157 4.636-1.418 10.533-.34 7.671-1.061 14.2-1.568 14.202-.644.002-3.435 3.594-3.435 4.42 0 .391-.182.772-.405.846-.624.208-1.112 3.995-1.787 13.878-.804 11.782-.91 12.462-2.075 13.378-.522.411-1.241 1.316-1.597 2.011-.356.696-.811 1.371-1.011 1.5-1.076.698-2.158 8.04-2.705 18.357-.226 4.252-.537 7.047-.795 7.133-.234.078-.425.595-.425 1.148 0 .655-.624 1.64-1.785 2.817-2.388 2.423-3.803 7.105-3.812 12.61-.002 1.045-.154 1.9-.339 1.9-.185 0-.576.998-.868 2.219-.392 1.63-.888 2.53-1.873 3.395-1.778 1.561-3.178 4.275-3.531 6.848-.159 1.15-.537 2.341-.842 2.645-.305.305-.756 1.358-1.004 2.34-.332 1.319-.749 1.941-1.598 2.38-.631.326-1.148.787-1.148 1.023 0 .236-.495.929-1.1 1.541-1.799 1.819-2.07 2.275-2.543 4.288-.638 2.718-.877 3.072-2.268 3.356-.678.139-1.541.56-1.918.936-.376.376-1.106.961-1.623 1.3-.541.354-1.129 1.321-1.383 2.273-.595 2.223-1.021 2.656-2.614 2.656-.743 0-1.351.18-1.351.4 0 .22-.388.4-.861.4-2.147 0-7.939 3.851-7.939 5.278 0 .177-.255.322-.567.322-.311 0-.632.197-.712.438-.525 1.575-22.836 1.504-24.418-.078-.348-.348-.754-2.045-.999-4.173l-.411-3.587 1.053-.898c.58-.494 1.279-.899 1.554-.9.275-.001.5-.179.5-.394 0-.216.453-.506 1.006-.645 1.231-.309 2.448-1.789 2.804-3.409.146-.664.532-1.31.858-1.436.326-.125.746-.63.933-1.122.192-.502.836-1.018 1.47-1.176 1.541-.385 2.419-1.257 3.321-3.295.42-.949.909-1.725 1.088-1.725.179 0 .554-.518.835-1.152.632-1.428 2.061-3.05 2.967-3.369.375-.132 1.045-.952 1.489-1.823.444-.87.996-1.645 1.227-1.722.23-.077.882-2.388 1.448-5.137 1.042-5.057 1.417-5.997 2.391-5.997.594 0 2.563-3.978 2.563-5.179 0-.415.225-.829.5-.921.666-.222.721-12.986.058-13.414-.243-.157-.652-.929-.907-1.715-.256-.785-1.161-2.135-2.01-3-1.347-1.371-1.631-2.004-2.231-4.971-1.157-5.721-1.907-6.902-4.977-7.836-1.193-.362-1.567-.764-2.233-2.399-1.226-3.009-2.924-4.565-4.98-4.565-.451 0-.82-.152-.82-.337 0-.185-.72-.552-1.6-.816-1.218-.365-1.781-.834-2.359-1.966-.883-1.732-3.042-3.066-5.641-3.487-.99-.161-1.923-.486-2.073-.723-.419-.662-26.408-.629-26.628.033-.091.273-.556.499-1.032.502-1.146.008-3.441.823-4.771 1.694-.587.385-1.209.702-1.382.705-.173.003-.715.625-1.206 1.382-.647.998-1.363 1.504-2.6 1.837-.939.252-1.798.578-1.908.724-.11.146-1.098.498-2.195.782-2.58.669-3.159 1.236-4.003 3.918-.382 1.217-.9 2.268-1.149 2.335-4.333 1.17-4.664 1.476-5.636 5.217-.344 1.32-.797 2.458-1.008 2.529-.211.071-.496.701-.634 1.4-.157.803-.801 1.713-1.747 2.47-2.706 2.169-3.644 5.157-3.922 12.501-.119 3.135-.371 5.7-.561 5.7-.19 0-.351 1.125-.359 2.5-.033 5.706-1.37 4.862-2.219-1.4-.142-1.045-.385-1.9-.539-1.9-.155 0-.583-.945-.95-2.1-.618-1.943-2.653-4.7-3.47-4.7-.937 0-1.531-1.385-1.793-4.18-.156-1.661-.448-3.02-.649-3.02s-.37-.585-.376-1.3c-.026-3.457-1.673-7.828-3.801-10.084-1.632-1.73-2.189-2.912-2.189-4.642 0-.646-.155-1.174-.344-1.174-.189 0-.468-2.385-.62-5.3-.523-10.044-1.887-20.3-2.7-20.3-.185 0-.336-.199-.336-.443 0-.605-2.439-5.703-2.862-5.981-1.072-.707-1.009-34.747.065-35.109.446-.15 2.797-4.797 2.797-5.528 0-.26.186-.534.413-.61.942-.314 2.787-14.002 2.787-20.68 0-1.127.18-2.049.4-2.049.22 0 .4-.968.4-2.15 0-3.635.338-4.564 1.997-5.497 2.064-1.16 3.985-5.51 3.998-9.053.003-.715.156-1.3.34-1.3.184 0 .564-2.054.844-4.564l.509-4.563 1.316-.247c1.356-.255 3.017-1.99 3.565-3.726.157-.495.424-.9.594-.9.169 0 .53-1.575.801-3.5.88-6.247.836-6.1 1.826-6.1.496 0 1.511-.537 2.256-1.194.745-.656 1.482-1.196 1.638-1.2.156-.003.49-.771.742-1.706 1.457-5.402 2.046-7.1 2.464-7.1.648 0 2.71-2.035 2.71-2.675 0-.289.273-.525.606-.525.875 0 2.132-2.281 2.416-4.387.387-2.864.52-3.099 1.889-3.327 3.219-.538 4.16-1.532 4.828-5.099.31-1.655 1.272-2.594 3.06-2.987 1.627-.357 3.465-2.382 3.809-4.197.303-1.599 2.137-3.439 3.79-3.803 1.277-.28 2.58-1.572 3.01-2.985.471-1.547 2.333-3.138 4.243-3.624 2.08-.53 3.337-1.475 3.742-2.813.805-2.66 1.45-3.497 2.904-3.77 3.904-.732 5.703-2.487 5.703-5.564 0-.851.225-.966 2.368-1.209 2.508-.283 4.174-1.181 6.782-3.653.797-.756 1.589-1.377 1.76-1.379.17-.001.474-.436.676-.965.338-.891 4.259-2.238 6.512-2.238.9 0 2.563-1.392 5.322-4.456 1.085-1.204 1.654-1.44 5.1-2.118 2.134-.419 3.88-.912 3.88-1.094 0-.183.256-.332.569-.332 1.157 0 2.958-1.982 3.222-3.544l.258-1.531 5.176-.528c2.846-.29 5.175-.653 5.175-.806 0-.154.913-.388 2.029-.52 3.327-.394 6.045-1.913 6.87-3.839.485-1.134.943-1.632 1.5-1.632.44 0 .801-.145.801-.322 0-.178 4.545-.551 10.1-.829 13.122-.658 22.3-1.862 22.3-2.924 0-.179.208-.325.461-.325.819 0 4.692-1.988 5.022-2.577.688-1.23 26.287-1.334 26.972-.11m106.445 56c-1.595.219-2.9.545-2.9.724 0 .18-.62.443-1.377.585-.757.142-1.962.69-2.677 1.218-.716.528-1.536.96-1.824.96-.287 0-.522.165-.522.367 0 .424-3.999 1.804-7.151 2.468-2.247.473-5.23 2.82-5.805 4.565-.297.904-2.464 3.4-2.952 3.4-.671 0-1.642 2.331-2.331 5.6-.394 1.87-.835 3.49-.978 3.6-.144.11-.387 1.001-.54 1.979-.412 2.64-2.348 8.942-2.933 9.549-.28.29-.6.92-.712 1.4-.112.48-.561 2.312-.998 4.072-.437 1.76-.913 4.46-1.058 6-.145 1.54-.387 2.89-.538 3-.152.11-.576 2.9-.943 6.2-.643 5.791-1.498 9.72-2.215 10.179-.633.407-1.969 3.796-2.49 6.321-.284 1.375-.637 2.5-.784 2.5-.148 0-.39 1.485-.539 3.3-.733 8.968-2.149 17.679-2.973 18.299-.533.401-2.026 4.66-2.489 7.101-.261 1.375-.607 2.5-.768 2.5-.327 0-1.029 4.311-1.401 8.6-.328 3.773-1.424 10.352-1.767 10.6-.152.11-.662 1.55-1.133 3.2-1.113 3.896-2.175 6.948-2.505 7.2-.507.387-1.222 5.079-1.977 12.958-.419 4.377-.923 8.067-1.12 8.2-.198.133-.597 1.142-.887 2.242-.512 1.936-1.914 4.976-2.5 5.415-.56.421-1.457 5.054-1.895 9.785-.805 8.702-1.304 12.6-1.612 12.6-.167 0-.422.765-.567 1.7-.295 1.902-2.099 5.9-2.663 5.9-.668 0-1.484 2.646-2.203 7.148-.392 2.449-.861 4.452-1.043 4.452-.181 0-.33.377-.33.838 0 2.062-1.337 5.305-2.845 6.904-.86.912-1.966 2.693-2.458 3.958-.491 1.265-1.029 2.3-1.195 2.3-.166 0-.302.282-.302.626 0 1.672-1.735 4.601-3.113 5.255-.977.463-1.594 1.137-2.009 2.194-.33.839-.752 1.525-.939 1.525-.186 0-.339.276-.339.613 0 1.327-2.117 4.675-4.447 7.035-1.348 1.365-2.999 3.487-3.67 4.717-1.302 2.388-2.212 3.362-4.011 4.298-1.351.702-3.352 2.825-3.712 3.937-.365 1.126-2.912 3.4-3.81 3.4-.413 0-.75.169-.75.375s-.765.925-1.701 1.597c-.935.672-1.933 1.746-2.217 2.387-.286.646-1.132 1.458-1.899 1.822-.761.361-1.383.807-1.383.991 0 .421-4.129 2.394-5.644 2.697-.672.134-1.24.566-1.398 1.063-.539 1.697-3.105 3.728-5.384 4.261-3.961.927-4.704 1.333-7.698 4.207-2.162 2.076-3.937 2.848-7.868 3.423-1.765.258-3.208.616-3.208.796 0 .181-.405.405-.9.499-.495.094-.09.089.9-.012.99-.102 1.89-.319 2-.484.11-.164 1.065-.415 2.123-.556 4.899-.655 7.037-1.808 9.745-5.256.677-.861 1.559-1.269 4-1.848 3.963-.939 4.626-1.294 7.201-3.858 1.427-1.42 3.044-2.508 5.018-3.374 2.913-1.279 6.313-4.138 6.313-5.31 0-.666 2.054-2.22 2.933-2.22.336 0 .848-.237 1.138-.527.291-.289 1.023-.849 1.626-1.244.652-.426 1.29-1.36 1.572-2.3.473-1.58 1.951-3.129 2.985-3.129.3 0 .546-.147.546-.326 0-.179.64-.631 1.422-1.004.974-.464 1.61-1.15 2.018-2.174 1.419-3.562 2.032-4.319 4.456-5.499.964-.469 1.625-1.317 2.58-3.314.706-1.476 1.425-2.742 1.597-2.814.172-.072.513-.882.757-1.8.455-1.708 1.382-3.069 2.092-3.069.626 0 3.078-2.692 3.078-3.38 0-.341.172-.62.382-.62.21 0 .491-.675.624-1.5.437-2.701 1.771-5.144 3.137-5.746.734-.324 1.539-1.137 1.936-1.954.373-.77.882-1.633 1.131-1.917.347-.396 2.39-12.505 2.39-14.163 0-.176.211-.32.469-.32 2.82 0 4.965-5.497 5.539-14.2.826-12.508 1.131-14.392 2.462-15.178.648-.382 1.343-1.129 1.544-1.659.201-.53.529-.963.728-.963 1.215 0 2.841-10.651 2.854-18.7.002-1.375.16-2.5.351-2.5.191 0 .435-1.352.541-3.004.19-2.97.213-3.023 2.075-4.781 1.035-.978 2.06-2.372 2.277-3.097.542-1.811 1.543-9.299 1.552-11.618.004-1.045.188-1.9.408-1.9.241 0 .4-1.66.4-4.18 0-4.944.542-7.849 1.656-8.875 2.616-2.408 3.015-2.983 3.482-5.004.272-1.177.605-3.221.739-4.541.135-1.32.393-2.498.573-2.617.181-.119.429-2.549.552-5.4.489-11.363 1.21-15.381 2.76-15.384.546-.001 2.638-3.259 2.638-4.108 0-.343.183-.685.406-.76.639-.213 1.124-4.254 1.575-13.131.571-11.234.849-12.8 2.269-12.8.526 0 2.55-2.123 2.55-2.675 0-.289.159-.525.353-.525.621 0 1.21-3.298 1.648-9.226.66-8.94 1.075-10.928 2.45-11.741.629-.371 1.35-1.07 1.602-1.554.253-.483 1.003-1.341 1.667-1.905 1.175-.998 2.261-3.605 2.274-5.458.008-1.119 1.176-1.441 8.396-2.311 2.965-.357 5.486-.805 5.604-.995.117-.19 1.202-.734 2.41-1.208 1.27-.499 2.801-1.509 3.63-2.396 1.431-1.528 1.447-1.533 5.475-1.819 5.334-.378 5.95-.205 6.282 1.762.317 1.875 2.53 4.024 4.469 4.338 1.284.209 2.54 1.902 2.54 3.425 0 2.376 2.564 4.688 5.2 4.688.8 0 .902.245 1.411 3.386.333 2.054 1.196 3.699 2.088 3.982.39.124.887.63 1.105 1.125.218.495.979 1.261 1.691 1.703 1.272.79 2.905 4.526 2.905 6.646 0 .417.18.758.4.758.22 0 .4.279.4.62 0 .981 2.554 3.351 3.902 3.62 1.327.266 1.383.413 1.923 5.06.147 1.265.426 2.3.621 2.3s.354.442.354.981c0 2.38 2.304 5.69 4.209 6.047l1.33.25.278 2.961c.152 1.628.413 2.961.578 2.961.166 0 .427 1.305.58 2.9.605 6.297 1.989 9.502 4.725 10.942.633.333 1.1.914 1.1 1.368 0 .435.156.79.346.79.19 0 .468 2.115.619 4.7.671 11.52 1.966 22.5 2.654 22.5.149 0 .845 1.604 1.547 3.565.701 1.961 1.513 3.657 1.805 3.768 1.352.519 1.421 32.976.072 34.388-.553.579-1.551 2.904-2.524 5.879-.395 1.21-.859 2.304-1.029 2.43-.487.36-1.401 8.155-2.062 17.566-.351 5.003-.776 8.653-1.016 8.733-.227.076-.412.384-.412.686 0 .302-.405.972-.9 1.488-3.188 3.329-4.014 5.294-4.71 11.197-.278 2.365-.66 4.3-.848 4.3-.188 0-.342.713-.342 1.584 0 .872-.225 1.766-.5 1.987-3.556 2.866-5.5 6.008-5.5 8.892 0 .405-.18.737-.4.737-.22 0-.4.46-.4 1.023 0 2.685-.834 4.504-2.341 5.107-1.868.748-2.657 1.655-3.283 3.77-.276.935-.619 1.7-.762 1.7-.143 0-.577 1.215-.965 2.7-.774 2.963-1.493 4.071-3.273 5.042-2.187 1.193-2.656 1.8-3.352 4.332-.941 3.427-1.196 3.926-2.006 3.926-.382 0-1.128.371-1.657.824l-1.84 1.579c-.483.415-1.071 1.44-1.307 2.276-.564 2.004-1.388 2.923-3.876 4.322-1.599.898-2.172 1.49-2.549 2.633-.598 1.81-2.507 3.938-4.43 4.936-.803.417-1.777 1.386-2.2 2.189-1.149 2.181-2.135 3.031-4.679 4.035-2.309.911-3.88 2.769-3.88 4.59 0 .339-.248.616-.551.616-.303 0-.759.251-1.014.558-.255.307-1.097.677-1.871.822-1.703.32-4.509 3.046-4.84 4.702-.275 1.372-.325 1.406-3.219 2.159-2.401.626-4.189 2.085-4.718 3.852-.15.499-.658 1.218-1.13 1.598l-.857.691.91.009c.69.007.967-.275 1.146-1.169.382-1.91 4.061-4.822 6.093-4.822.786 0 2.451-1.58 2.451-2.325 0-.865 2.967-3.458 5.272-4.609 1.779-.889 2.546-1.583 3.533-3.2 1.011-1.656 1.697-2.265 3.455-3.066 1.206-.55 2.676-1.501 3.266-2.113 3.198-3.315 4.639-4.687 4.924-4.687.175 0 .908-.9 1.628-2 .72-1.1 1.442-2 1.605-2 .163 0 .563-.516.889-1.146.326-.63 1.242-1.454 2.035-1.83.793-.377 1.553-.986 1.69-1.354.319-.86 1.812-3.029 2.203-3.203.165-.074.3-.355.3-.625 0-.641 1.974-2.482 3-2.799.94-.29 2.344-2.34 2.766-4.039.164-.658.419-1.288.568-1.4.149-.112.775-.881 1.392-1.709.617-.827 1.707-1.749 2.421-2.047 1.123-.469 1.374-.85 1.84-2.796.298-1.238.678-2.252.845-2.252.167 0 .617-.942.999-2.094.499-1.5 1.358-2.767 3.032-4.467 1.286-1.305 2.337-2.613 2.337-2.906 0-.293.167-.533.372-.533.204 0 .585-1.035.846-2.3.768-3.722 1.893-6.194 3.593-7.891.876-.876 1.694-1.911 1.818-2.3.124-.39.369-.709.546-.709.364 0 1.069-2.524 1.453-5.2.433-3.018 1.422-6.508 2.013-7.098.307-.308.564-.771.57-1.031.006-.259.546-1.178 1.2-2.042.654-.864 1.189-1.809 1.189-2.1 0-.291.161-.529.357-.529.49 0 1.566-4.684 2.022-8.8.742-6.696.935-8 1.185-8 .14 0 .484-1.035.766-2.3 1.366-6.14 1.838-7.811 2.349-8.322 3.304-3.304 3.475-57.266.189-59.341-.53-.335-2.868-9.407-2.868-11.129 0-.463-.146-.901-.324-.975-.178-.073-.638-2.563-1.022-5.533-.767-5.931-1.756-10.4-2.303-10.4-.193 0-.351-.242-.351-.538 0-.296-.339-.845-.753-1.22-.414-.374-1.073-1.527-1.463-2.562-.391-1.034-.852-1.974-1.024-2.089-.172-.115-.61-1.825-.972-3.8-.634-3.457-1.658-6.974-2.151-7.391-.13-.11-.86-1.1-1.621-2.2s-1.585-2.18-1.831-2.4c-.246-.22-.771-1.48-1.167-2.8-1.779-5.925-1.821-6.007-4.753-9.153-1.572-1.686-2.223-2.937-3.357-6.447-.356-1.1-.75-2.09-.877-2.2-.127-.11-.534-.74-.905-1.4-.371-.66-1.209-1.47-1.864-1.8-.739-.373-1.619-1.426-2.326-2.782-.625-1.2-1.541-2.638-2.036-3.196-.495-.557-.9-1.238-.9-1.513 0-.274-.715-.95-1.589-1.502-.873-.551-1.887-1.589-2.252-2.305-.364-.716-.918-1.572-1.23-1.902-.312-.33-1.115-1.365-1.783-2.3-.668-.935-1.425-1.702-1.681-1.705-.256-.003-.869-.629-1.363-1.392-.495-.763-1.35-1.5-1.9-1.638-.551-.139-1.002-.383-1.002-.544 0-1.198-7.526-1.581-13.9-.708M171.4 352.676c-.44.092-1.25.777-1.8 1.522-1.422 1.927-3.909 2.937-8.4 3.413l-2.6.275 2.2.047c3.601.077 9.2-1.697 9.2-2.915 0-.708 1.324-1.807 2.657-2.207 1.184-.354.265-.453-1.257-.135m125.2 1.428c-1.54.468-2.89.967-3 1.108-.11.141-.822.47-1.583.731-1.567.536-3.217 1.935-3.217 2.727 0 .291-.18.53-.4.53-.22 0-.4.27-.4.6 0 1.024.565.662 1.4-.897.833-1.556 3.544-3.233 5.3-3.279.495-.013.9-.198.9-.41 0-.212 1.125-.735 2.5-1.162 1.375-.428 2.23-.782 1.9-.788-.33-.006-1.86.372-3.4.84M153.2 358.4c0 .222 1.067.4 2.4.4s2.4-.178 2.4-.4c0-.222-1.067-.4-2.4-.4s-2.4.178-2.4.4m-9.883.697c1.494.077 3.834.077 5.2-.001 1.365-.078.143-.141-2.717-.141-2.86.001-3.978.065-2.483.142m-28 .8c1.494.077 3.834.077 5.2-.001 1.365-.078.143-.141-2.717-.141-2.86.001-3.978.065-2.483.142m7.483.503c-.33.213-1.95.423-3.6.466-2.224.058-2.508.117-1.1.228 1.045.082 1.9.32 1.9.528 0 .208 1.151.378 2.557.378 2.945 0 3.018.084 3.091 3.533l.047 2.267.461-1.938c.606-2.548 1.179-2.893 5.332-3.212 3.17-.244 3.578-.371 4.369-1.359 1.007-1.261.891-1.73-.186-.755-.564.51-1.529.664-4.169.664-2.357 0-3.509.157-3.669.5-.186.4-.28.4-.466 0-.129-.275-.469-.5-.758-.5-.288 0-.627-.27-.754-.6-.258-.674-2.131-.797-3.055-.2m-9.3.282a5.661 5.661 0 0 0 1.8 0c.495-.095.09-.173-.9-.173s-1.395.078-.9.173m170.3.411c-.44.11-.89.316-1 .459-.11.143-1.479.664-3.042 1.158-2.915.922-3.858 1.615-4.338 3.19-.15.495-.442.9-.647.9-.205 0-.373.18-.373.4 0 .842.636.33 1.527-1.229.982-1.72 2.784-2.742 6.421-3.642 1.019-.252 1.942-.591 2.052-.754.11-.162.65-.378 1.2-.48l1-.186-1-.008c-.55-.005-1.36.082-1.8.192m-147.6 8.734c.44.106 2.042.477 3.561.824 1.519.347 3.128.973 3.575 1.39.448.418 1.02.759 1.27.759s.877.449 1.393.998c.515.55 1.029.908 1.14.796.303-.302-2.006-2.594-2.614-2.594-.289 0-.525-.173-.525-.385 0-.533-3.443-1.503-6.258-1.764-1.288-.119-1.982-.13-1.542-.024m125.4.055c-1.728.3-4.945 1.308-5.177 1.622-.123.165-.898.804-1.723 1.419-2.312 1.723-1.775 2.071.6.388 1.155-.818 2.19-1.606 2.3-1.751.192-.253 4.711-1.382 6.8-1.699.641-.098.497-.152-.4-.152-.77 0-1.85.078-2.4.173m-114 5.318c0 .22.27.4.6.4.33 0 .6-.18.6-.4 0-.22-.27-.4-.6-.4-.33 0-.6.18-.6.4m12.305 1.883c.497.096 1.217.092 1.6-.008.382-.1-.025-.179-.905-.174-.88.004-1.193.086-.695.182m79.395-.007c.385.1 1.015.1 1.4 0 .385-.101.07-.183-.7-.183s-1.085.082-.7.183m-75.9.524c.66.168 1.875.327 2.7.353.825.026 1.5.202 1.5.392s.954.457 2.12.594c2.826.332 6.651 1.679 7.569 2.665.819.879 2.409 1.105 2.087.296-.242-.608-3.648-2.095-6.376-2.783-1.1-.277-2.09-.615-2.2-.751-.206-.255-7.007-1.203-8.027-1.119-.315.026-.033.185.627.353m69.4.1c-1.65.217-3.09.511-3.2.653-.11.143-1.1.487-2.2.764-2.728.688-6.134 2.175-6.376 2.783-.322.809 1.268.583 2.087-.296.918-.986 4.743-2.333 7.569-2.665 1.166-.137 2.12-.404 2.12-.594 0-.19.675-.366 1.5-.392.825-.026 2.04-.185 2.7-.353l1.2-.305-1.2.006c-.66.003-2.55.183-4.2.399m-51.1 4.976c.385.1 1.015.1 1.4 0 .385-.101.07-.183-.7-.183s-1.085.082-.7.183m35.6 0c.385.1 1.015.1 1.4 0 .385-.101.07-.183-.7-.183s-1.085.082-.7.183m-21.577.823c2.597.07 6.737.069 9.2-.001 2.462-.07.337-.127-4.723-.126-5.06 0-7.075.057-4.477.127"/><path fill="#f0b8b0" d="M182.2 12.828c-15.406.425-23.4 1.257-23.4 2.435 0 .185-.283.337-.628.337-.751 0-4.172 2.288-4.172 2.791 0 .484-3.323 1.094-8.8 1.614-4.804.456-8.033 1.041-8.39 1.52-.115.155-1.11.73-2.21 1.279-1.1.548-2.173 1.391-2.386 1.874-.413.942-2.619 1.925-5.214 2.324-2.868.441-5.551 1.108-5.98 1.487-.231.204-1.14.765-2.02 1.246-.949.519-1.831 1.398-2.168 2.161-.604 1.366-2.406 2.2-5.932 2.744-.935.144-1.7.4-1.7.568 0 .168-.432.414-.961.546-1.475.371-3.953 2.128-4.82 3.418-.429.638-1.262 1.257-1.851 1.374-.589.118-1.35.494-1.691.834-.341.341-.806.62-1.034.62-2.436 0-5.853 2.225-6.26 4.076a2.305 2.305 0 0 1-1.32 1.641c-.585.257-1.153.576-1.263.709-.11.134-.826.457-1.591.72-1.774.607-4.003 2.117-4.006 2.713-.005.772-2.137 2.941-2.892 2.941-.391 0-.711.151-.711.336 0 .185-.9.827-2 1.425-1.1.599-2 1.314-2 1.59 0 .275-.648.81-1.439 1.187-.869.414-1.611 1.142-1.873 1.833-.238.631-.912 1.39-1.499 1.688l-2.628 1.333c-1.889.958-4.161 3.136-4.161 3.988 0 .341-.144.62-.32.62-.176 0-.823.795-1.437 1.766-.613.971-1.504 1.871-1.979 2.001-.475.129-1.404.745-2.064 1.369-1.194 1.128-1.721 1.919-3.441 5.164-.495.935-1.104 1.7-1.353 1.7-.249 0-.982.716-1.629 1.591-.647.874-1.383 1.594-1.635 1.6-.519.01-2.542 3.673-2.542 4.602 0 .334-.144.607-.32.607-.175 0-.535.596-.798 1.325-.342.945-.893 1.487-1.924 1.891-1.908.749-2.808 1.969-3.398 4.608-.268 1.197-.627 2.176-.798 2.176-.171 0-.526.596-.79 1.325-.301.835-1.006 1.613-1.904 2.1-1.506.819-3.618 4.332-3.651 6.075-.009.495-.181.9-.382.9s-.485.765-.632 1.7c-.43 2.734-1.104 4.279-1.983 4.546-1.271.386-2.249 1.414-2.906 3.054-.331.825-.738 1.5-.905 1.5-.3 0-.447.641-1.237 5.4-.623 3.749-1.47 5.964-2.449 6.405-.481.217-1.287 1.205-1.79 2.195-.503.99-1.061 1.98-1.241 2.2-.514.63-1.228 4.425-1.695 9-.521 5.11-1.195 8.8-1.607 8.8-.461 0-2.694 3.642-3.005 4.9-.149.605-.403 1.1-.564 1.1-.161 0-.501 1.215-.756 2.7-2.16 12.603-1.528 76.9.756 76.9.161 0 .415.495.564 1.1.311 1.258 2.544 4.9 3.005 4.9.425 0 1.126 3.811 1.62 8.8.505 5.107 1.183 8.8 1.615 8.8.177 0 .442.405.589.9.39 1.313 1.913 3.494 2.44 3.497.895.006 2.012 3.354 2.97 8.903.257 1.485.612 2.7.79 2.7.177 0 .442.544.588 1.21.337 1.534 1.921 3.434 3.111 3.733.956.239 1.613 1.6 2.107 4.357.148.825.429 1.5.625 1.5.195 0 .355.338.355.752 0 1.46 2.044 5.225 3.325 6.124.701.492 1.335 1.037 1.408 1.21.074.172.434.313.8.312 1.603-.005 4.585 1.425 5.006 2.4.237.551.688 1.414 1.002 1.917l.571.916.844-.906c.814-.874.845-1.294.881-11.916.026-7.637.194-11.56.55-12.809.281-.99.757-2.958 1.057-4.373.299-1.415.717-2.679.926-2.809.21-.13.736-1.852 1.169-3.827.971-4.426 1.722-6.591 2.289-6.591.523 0 2.172-1.697 2.172-2.235 0-.211.642-.729 1.428-1.152.785-.423 1.618-1.139 1.851-1.591.233-.452 1.211-1.517 2.173-2.366.961-.85 1.749-1.75 1.749-2 .002-.506 4.845-2.111 7.499-2.486.935-.132 1.7-.379 1.7-.547 0-.169 1.755-.712 3.9-1.205 2.145-.494 4.422-1.06 5.06-1.258 3.847-1.194 19.339.651 20.64 2.459.11.153.83.381 1.6.507.77.126 2.936.637 4.814 1.137l3.414.908.71 2.215c.663 2.067 3.164 4.754 4.501 4.836.689.042 2.088 2.223 2.565 3.996.263.98.629 1.876.813 1.991 1.429.891 1.377 27.797-.055 28.324-.199.074-.362.557-.362 1.074 0 1.818-.705 2.868-2.372 3.535-1.366.547-1.815 1.033-2.731 2.956-.604 1.266-1.277 2.508-1.497 2.76a77.76 77.76 0 0 0-1.396 1.7c-.547.683-1.189 1.242-1.425 1.242-.621 0-2.442 2.045-2.761 3.1-.15.495-.432.9-.628.9s-.839.824-1.43 1.831c-.59 1.008-1.488 1.99-1.995 2.182-.508.193-1.243.854-1.635 1.469-.896 1.408-5.156 5.718-5.651 5.718-.959 0-2.474 3.022-2.115 4.216.637 2.117 1.638 4.186 2.387 4.935.403.403.856 1.222 1.006 1.819.953 3.797 2.714 4.612 12.243 5.665 3.41.377 6.29.797 6.4.934.243.3 2.317 1.231 2.743 1.231.169 0 .685-.353 1.148-.784.637-.594 2.216-.982 6.503-1.601 6.344-.916 9.206-1.55 9.206-2.041 0-.182.495-.567 1.099-.857.605-.29 1.462-1.227 1.906-2.082.677-1.305 1.127-1.644 2.801-2.111 2.901-.809 3.556-1.22 4.38-2.751.407-.755.877-1.373 1.045-1.373.168 0 .415-.498.549-1.107.192-.874.667-1.274 2.259-1.9 1.568-.617 2.21-1.149 2.889-2.393.479-.88 1.007-1.66 1.172-1.733.165-.074.3-.38.3-.682 0-.973.913-2.585 1.464-2.585.295 0 .536-.18.536-.4 0-.22.251-.4.559-.4.791 0 3.041-2.673 3.041-3.614 0-.432.18-.786.4-.786.22 0 .4-.202.4-.45 0-1.252 2.164-5.023 3.3-5.75.795-.509 1.541-1.527 2.053-2.8.442-1.1.922-2.09 1.067-2.2.146-.11.465-1.46.711-3 .926-5.809 1.867-9.118 2.698-9.489.85-.379 2.971-3.832 2.971-4.837 0-.334.183-.668.407-.743.519-.173 1.575-8.034 1.585-11.796.011-4.061 1.001-8.915 1.955-9.583.419-.294 1.163-1.303 1.652-2.243.489-.94 1.026-1.799 1.194-1.909.609-.4 1.58-5.928 2.001-11.4.656-8.515 1.258-13.4 1.651-13.4.195 0 .355-.286.355-.635 0-.541 2.126-3.964 2.836-4.565.783-.662 1.585-4.914 2.203-11.671.388-4.251.824-7.819.967-7.929.144-.11.485-2.09.759-4.4.35-2.959.711-4.436 1.22-5 .398-.44.846-1.205.996-1.7.15-.495.426-.9.614-.9.854 0 2.8-8.815 2.803-12.7.001-.935.182-1.7.402-1.7.24 0 .405-1.642.414-4.1.018-5.607 1.043-9.875 2.786-11.609 1.515-1.506 2.2-3.31 2.882-7.591.272-1.705.615-3.1.762-3.1.147 0 .385-2.385.53-5.3.435-8.729 1.281-13.052 2.84-14.5 1.278-1.187 2.586-3.906 2.586-5.375 0-.417.172-.818.382-.892.21-.073.758-4.183 1.218-9.133 1.077-11.606 1.494-14.509 2.152-15.003 3.361-2.526 3.642-14.197.341-14.197-.438 0-1.465-2.147-2.512-5.257-.527-1.564-1.252-2.791-2.043-3.457-.674-.567-1.463-1.269-1.753-1.559-.291-.29-.713-.527-.94-.527-1.006 0-3.174-1.502-4.154-2.878-1.137-1.597-2.978-2.571-5.652-2.988-.901-.14-1.738-.405-1.859-.588-.121-.183-2.371-.437-5-.563-5.856-.281-10.18-1.227-10.18-2.227 0-.379.182-.75.403-.824.222-.074.65-1.547.95-3.273.42-2.418.789-3.383 1.605-4.199l1.06-1.06 62.606-.2c45.414-.145 62.684-.322 62.891-.646.157-.245.645-.565 1.085-.71 1.823-.6 4.401-3.844 3.054-3.844-.19 0-.847-.724-1.46-1.608-.613-.885-1.794-1.99-2.625-2.458-.849-.477-1.615-1.262-1.748-1.791-.13-.519-.399-.943-.597-.943-.198 0-.474-.517-.613-1.15-.401-1.826-3.834-4.05-6.254-4.05-.228 0-.693-.279-1.034-.62-.341-.34-1.093-.714-1.671-.831-.617-.123-1.518-.86-2.178-1.78-.619-.863-1.362-1.569-1.651-1.569-.289 0-.74-.258-1.002-.574-.262-.316-1.004-.69-1.649-.832-.644-.142-1.172-.4-1.172-.575 0-.174-.765-.434-1.7-.577-2.904-.444-5.474-1.527-5.745-2.42-.387-1.273-1.414-2.251-3.055-2.908-.825-.331-1.5-.737-1.5-.903 0-.166-1.125-.52-2.5-.786-5.138-.996-7.612-1.766-7.784-2.424-.198-.758-3.779-3.201-4.692-3.201-.343 0-.624-.165-.624-.367 0-.521-3.15-1.13-8.44-1.63-6.454-.61-8.056-.998-9.436-2.286-.658-.614-1.721-1.387-2.361-1.716-.639-.33-1.253-.699-1.363-.82-1.109-1.22-8.39-1.892-25.8-2.378-15.179-.424-17.757-.422-34 .025m37.718 2.325c.082.246.899.45 1.815.453 3.639.014 15.348 1.998 15.826 2.682.437.626 6.881 2.386 10.05 2.745 1.315.149 2.391.427 2.391.619 0 .191.548.348 1.217.348 3.667 0 9.852 1.864 11.529 3.475.521.5 2.231 1.315 3.8 1.811 1.57.496 2.944 1.017 3.054 1.157.11.14 1.174.462 2.364.716 2.646.563 5.636 1.846 5.636 2.419 0 .232.239.422.53.422.292 0 .948.445 1.459.988.511.544 1.532 1.188 2.27 1.431.737.244 1.341.588 1.341.765 0 .177 1.539.802 3.42 1.388 1.882.587 3.722 1.418 4.089 1.847.368.43.855.781 1.083.781.227 0 .965.601 1.639 1.335.912.994 2.259 1.703 5.255 2.767 5.71 2.027 6.705 3.059 7.025 7.289.18 2.377.418 3.314.941 3.697.6.438.373.512-1.576.512-1.252 0-2.276.18-2.276.4 0 .265-19.903.402-58.9.405l-58.9.004-2.849 2.896c-1.566 1.592-2.973 3.3-3.127 3.795-.153.495-.428.9-.611.9s-.636 1.364-1.007 3.031c-.768 3.45-.451 4.276 1.835 4.778.638.14 1.159.391 1.159.559 0 .33 3.444.973 8.8 1.642 3.653.456 7.4 1.391 8.142 2.032.651.562 3.061 1.891 4.358 2.402.605.239 1.1.594 1.1.789 0 .196 1.08.901 2.4 1.567 1.32.666 2.4 1.389 2.4 1.606 0 .217.225.4.5.407.69.017 1.818 1.653 2.529 3.668.327.928.724 1.784.883 1.903 1.709 1.283 2.202 7.868 1.093 14.616-.325 1.98-.594 4.275-.598 5.1-.004.825-.187 1.5-.407 1.5-.22 0-.401.495-.401 1.1-.003 2.407-2.239 13.671-2.799 14.1-.341.261-2.29 6.566-2.627 8.5-.144.825-.397 1.5-.562 1.5-.166 0-.428 1.035-.583 2.3-.155 1.265-.614 5.109-1.022 8.543-.727 6.138-1.451 9.557-2.023 9.557-.159 0-.383.405-.497.9-.114.495-.675 2.141-1.247 3.659-.571 1.517-1.039 3.092-1.039 3.5 0 .407-.162.741-.359.741-.459 0-1.132 3.868-1.642 9.436-.518 5.652-1.233 10.164-1.611 10.164-.164 0-.409.585-.545 1.3-.135.715-.785 2.624-1.444 4.241-.659 1.618-1.199 3.193-1.199 3.5 0 .308-.155.559-.345.559-.398 0-.902 3.035-2.094 12.6-.466 3.74-.986 6.89-1.154 7-.169.11-.43.83-.581 1.6-.546 2.781-2.363 9.005-2.693 9.225-.795.53-2.502 9.527-2.974 15.675-.148 1.925-.399 3.5-.558 3.5-.159 0-.398.912-.53 2.027-.297 2.51-2.217 8.773-2.69 8.773-.498 0-1.847 4.838-2.425 8.7-.272 1.815-.643 3.3-.825 3.3-.182 0-.331.77-.331 1.71 0 5.256-1.708 12.814-3.213 14.216-.744.693-2.787 6.355-2.787 7.725 0 .412-.151.749-.336.749-.185 0-.564 1.035-.841 2.3-.808 3.687-1.99 6.899-2.881 7.833-.455.477-1.281 1.902-1.837 3.167-.555 1.265-1.131 2.3-1.279 2.3-.149 0-.71 1.188-1.248 2.64-.924 2.495-2.695 4.863-4.622 6.182-.465.318-1.398 1.675-2.074 3.015-.677 1.34-1.726 2.762-2.332 3.159-1.658 1.086-5.234 4.809-5.537 5.764-.147.462-.442.84-.656.84-.336 0-2.576 1.419-3.157 2-.11.11-1.1.637-2.2 1.171s-2.54 1.563-3.2 2.287c-.922 1.011-1.942 1.526-4.4 2.222-1.76.498-3.29 1.02-3.4 1.16-.938 1.19-20.8 1.136-20.8-.057 0-.153-.793-.368-1.762-.478-2.512-.283-4.868-2.069-5.414-4.105-1.569-5.852-1.64-6.654-.706-7.966.964-1.355 4.275-4.634 4.679-4.634.36 0 2.274-2.102 2.453-2.696.175-.576 1.804-2.559 4.35-5.292 3.224-3.461 4-4.357 4-4.614 0-.14.54-1.039 1.2-1.998.66-.959 1.2-1.819 1.2-1.909 0-.091 1.062-1.254 2.359-2.584 2.657-2.724 2.527-2.419 3.478-8.107.386-2.31.818-4.29.958-4.4 1.484-1.159 1.403-18.4-.086-18.4-.17 0-.309-.308-.309-.685 0-2.655-2.154-9.169-3.343-10.108-2.321-1.835-5.057-4.695-5.057-5.287 0-.623-2.862-3.12-3.577-3.12-.232 0-.423-.18-.423-.4 0-.22-.279-.4-.62-.4-.754 0-7.098-2.449-7.384-2.85-2.952-4.142-30.796-4.091-30.796.056 0 .186-1.755.909-3.9 1.606-2.145.697-3.99 1.403-4.1 1.57-.11.166-.864.518-1.675.783-1.68.547-3.525 1.877-3.525 2.539 0 .467-4.047 4.418-5.688 5.554-.591.409-1.247 1.583-1.732 3.1-.429 1.343-.904 2.442-1.056 2.442-.151 0-.741 1.527-1.311 3.394-.597 1.957-1.427 3.778-1.962 4.3-1.703 1.666-2.109 3.693-2.612 13.042-.169 3.155-.473 5.855-.674 6-.201.145-.733.984-1.182 1.864-.51.998-1.338 1.848-2.2 2.258l-1.383.657-1.303-1.341c-.934-.961-1.652-2.422-2.532-5.158-.676-2.099-1.363-3.816-1.526-3.816-.164 0-.701-.808-1.194-1.795-.493-.988-1.233-2.032-1.645-2.32-.93-.651-2.176-3.753-2.818-7.013-.267-1.359-.643-2.472-.834-2.472-.191 0-.348-.251-.348-.558 0-1.305-1.651-5.723-2.489-6.662-1.801-2.016-2.799-4.97-3.339-9.88-.152-1.375-.409-2.5-.572-2.5-.163 0-.421-1.102-.574-2.449-.388-3.431-2.07-9.852-2.761-10.544-1.153-1.152-3.065-13.321-3.065-19.505 0-1.535-.173-2.702-.4-2.702-.26 0-.4-5.267-.4-15s.14-15 .4-15c.232 0 .4-1.305.4-3.115 0-3.434.814-10.525 1.778-15.485.342-1.76.622-3.232.622-3.271 0-.04.232-.31.515-.6.774-.796 1.812-4.369 2.581-8.888.378-2.223.826-4.101.996-4.174.169-.074.308-.565.308-1.092 0-2.741 1.802-9.394 2.756-10.175.859-.704 2.273-3.73 2.932-6.275.274-1.059.606-2.015.736-2.125.131-.11.56-1.543.954-3.185.872-3.634 1.739-5.585 2.897-6.525.482-.39 1.191-1.425 1.577-2.3.386-.874.842-1.59 1.012-1.59.171 0 .797-1.561 1.392-3.469.594-1.907 1.41-3.797 1.813-4.2.402-.402.731-.88.731-1.061 0-.182.45-.753 1-1.27s1-1.138 1-1.381c0-.243.335-.728.744-1.079.41-.35 1.263-1.965 1.896-3.589 1.188-3.044 2.039-4.277 4.722-6.847.86-.823 1.874-2.192 2.255-3.043.381-.85 1.028-1.959 1.438-2.464.735-.905 1.185-1.363 3.278-3.335.587-.553 1.427-1.693 1.867-2.534.826-1.579 1.533-2.459 4.6-5.723.99-1.053 2.52-2.75 3.4-3.769 3.199-3.707 5.711-6.17 6.942-6.806.692-.358 1.258-.796 1.258-.973 0-.177.495-.568 1.1-.869 1.907-.949 3.7-2.407 3.7-3.008 0-.319.135-.581.3-.582.165-.001.99-.636 1.833-1.41.844-.775 2.396-1.845 3.45-2.379 1.159-.588 2.239-1.52 2.735-2.361.451-.764 1.329-1.713 1.951-2.109.622-.396 1.221-.835 1.331-.974.11-.139.83-.571 1.6-.959.77-.388 2.527-1.868 3.904-3.289 2.328-2.403 2.786-2.681 6.526-3.966 3.097-1.063 4.315-1.7 5.293-2.766.699-.762 1.458-1.385 1.685-1.385.228 0 .715-.351 1.083-.781.368-.43 2.208-1.25 4.089-1.824 1.881-.574 3.42-1.195 3.42-1.38 0-.185.553-.53 1.23-.765 1.127-.394 2.834-1.573 4.386-3.034.752-.707 4.44-2.078 6.484-2.409.825-.134 1.5-.415 1.5-.625 0-.21.315-.385.7-.388 1.534-.013 6.5-2.161 6.5-2.812 0-.877 8.145-3.182 11.243-3.182.636 0 1.157-.18 1.157-.4 0-.22.495-.403 1.1-.407 2.407-.015 10.846-2.171 11.341-2.897.474-.694 12.162-2.676 15.859-2.69.935-.003 1.7-.179 1.7-.392 0-.854 39.233-.916 39.518-.061M315.1 71.076c-1.045.093-1.9.338-1.9.546 0 .208-.417.378-.927.378-2.353 0-4.896 1.188-6.751 3.153-1.572 1.665-2.221 2.052-4.095 2.441-1.225.255-2.227.63-2.227.834 0 .205-.341.372-.758.372-.944 0-3.242 2.098-3.242 2.96 0 .352-.226.64-.501.64-.276 0-1.011.54-1.634 1.2-.623.66-1.264 1.2-1.425 1.2-.579 0-1.643 2.874-2.298 6.203-.367 1.869-.796 3.397-.953 3.397-.157 0-.404.891-.549 1.98-.212 1.598-.567 2.279-1.842 3.528-2.628 2.576-3.143 4.743-3.828 16.092-.152 2.53-.399 4.69-.547 4.8-.149.11-.477 1.565-.731 3.233-.425 2.8-1.844 6.367-2.534 6.367-.821 0-2.626 7.549-3.016 12.614-.143 1.862-.387 3.386-.543 3.386-.155 0-.409 2.293-.565 5.095-.372 6.694-.793 8.542-2.27 9.962-1.589 1.527-2.17 2.682-2.793 5.543-.287 1.32-.66 2.496-.83 2.614-.17.117-.576 4.167-.902 9-.69 10.213-1.142 12.31-3.065 14.25-1.249 1.26-2.374 3.786-2.374 5.33 0 .333-.157.606-.349.606-.476 0-.738 1.925-1.256 9.2-.641 9.018-1.465 13.819-2.578 15.02-.881.95-2.617 4.919-2.617 5.982 0 .292-.173.591-.385.665-.578.2-1.512 6.904-1.997 14.333-.503 7.69-.752 9.6-1.253 9.6-.201 0-.365.238-.365.529 0 .291-.535 1.236-1.189 2.1-.654.864-1.194 1.719-1.2 1.9-.006.18-.266.583-.578.895-.761.761-1.685 5.014-2.254 10.376-.257 2.42-.593 4.49-.747 4.6-.153.11-.524 1.243-.824 2.519-.42 1.786-.872 2.606-1.973 3.572-1.671 1.467-2.494 3.157-3.219 6.609-.289 1.375-.659 2.5-.822 2.5-.163 0-.596 1.19-.961 2.644-.641 2.55-1.338 3.756-2.174 3.756-.835 0-2.812 2.073-3.061 3.211-.144.654-.427 1.189-.63 1.189-.202 0-.369.405-.369.9-.002 1.157-1.398 3.452-2.301 3.782-.929.34-3.796 3.262-4.433 4.518-1.735 3.421-2.182 4.064-3.054 4.396-.533.202-1.294.869-1.69 1.48-.683 1.054-3.702 4.162-5.77 5.943-.523.45-1.338 1.26-1.811 1.8-1.672 1.908-3.676 3.422-6.379 4.82-.462.239-1.362 1.311-2 2.384-1.163 1.953-2.852 3.024-5.897 3.742-1.305.308-4.664 3.447-4.664 4.359 0 .369-.516.719-1.3.881-2.675.553-8.058 2.203-8.275 2.537-.124.19-.824.653-1.557 1.029-.778.399-1.561 1.232-1.885 2.007-.696 1.668-.585 1.63-7.884 2.649-3.354.468-6.189.991-6.299 1.161-.11.17-1.468.597-3.018.947-3.617.818-5.639 1.672-6.719 2.838-1.868 2.017-5.462 2.321-28.29 2.397-18.871.063-20.728.128-21.35.749-.374.375-1.095.681-1.603.681-1.13 0-1.737.684-2.066 2.332-.266 1.328.739 4.068 1.491 4.068.225 0 .998.45 1.719 1 .722.55 1.597 1 1.945 1 .349 0 .874.24 1.168.534.293.293 1.28.653 2.193.799 2.565.41 5.187 1.676 5.435 2.625.12.459.804 1.152 1.519 1.539.716.386 1.612.997 1.992 1.357.764.722 2.542 1.342 4.984 1.738 4.338.702 7.008 1.561 7.583 2.438.324.495 1.451 1.321 2.503 1.835 1.053.514 2.008 1.059 2.123 1.211.268.355 5.694 1.321 11.577 2.061 2.522.318 4.652.777 4.733 1.02.081.244.551.443 1.045.443.493 0 1.319.45 1.836 1 .517.55 1.144 1 1.394 1s.828.347 1.284.772c3.751 3.495 80.922 3.904 80.922.429 0-.167.522-.52 1.16-.785.639-.264 1.57-.916 2.07-1.448.5-.532 1.313-.968 1.806-.968.494 0 .964-.199 1.045-.443.081-.243 2.211-.702 4.733-1.02 6.312-.794 11.326-1.716 11.581-2.129.117-.189.732-.475 1.367-.634.635-.159 1.828-.964 2.651-1.787 1.561-1.561 3.12-2.098 9.275-3.194 1.805-.322 3.027-.793 3.721-1.436.568-.526 1.262-.957 1.542-.957.618 0 2.249-1.673 2.249-2.307 0-.619 3.175-1.98 5.393-2.313.994-.149 1.807-.43 1.807-.625s.273-.355.607-.355c1.216 0 4.687-2.155 5.521-3.427.609-.929 1.464-1.512 2.964-2.022 1.159-.394 2.108-.859 2.108-1.034 0-.174.255-.317.567-.317 1.847 0 4.14-1.568 4.868-3.328.61-1.473 1.024-1.895 2.256-2.302.83-.274 1.509-.649 1.509-.834 0-.185.325-.336.721-.336.923 0 4.079-2.306 4.079-2.981 0-.874 1.619-2.619 2.429-2.619.424 0 .771-.148.771-.329 0-.181.765-.715 1.7-1.185.935-.471 2.16-1.288 2.723-1.816.562-.528 1.401-1.162 1.864-1.41.463-.247 1.075-.976 1.359-1.62.285-.644 1.066-1.462 1.736-1.818 2.532-1.347 3.622-2.055 4.802-3.12.669-.604 1.337-1.099 1.485-1.1.148-.001.464-.587.702-1.302.468-1.402 2.26-3.384 4.792-5.3.872-.66 1.794-1.682 2.048-2.271s.806-1.382 1.226-1.762c.419-.38.763-.843.763-1.029 0-.186.734-1.103 1.632-2.038 3.234-3.368 3.865-4.122 4.611-5.5.416-.77.856-1.49.976-1.6.121-.11.443-.965.717-1.9.291-.997.738-1.7 1.08-1.7.321 0 .584-.136.584-.302 0-.167.556-.549 1.235-.849 1.172-.519 2.765-3.198 2.765-4.649 0-.293.135-.593.3-.667.165-.073.72-1.033 1.234-2.133.542-1.162 1.462-2.338 2.197-2.806.724-.462 1.667-1.658 2.208-2.8.52-1.097 1.073-2.084 1.228-2.194.155-.11.51-1.28.789-2.6.814-3.854 1.324-5.005 2.331-5.257 1.033-.26 2.913-2.308 2.913-3.174 0-.313.168-.569.373-.569s.656-1.395 1.003-3.1c1.459-7.174 1.798-8.136 3.459-9.831.873-.891 1.692-2.035 1.82-2.544.127-.509.364-.925.525-.925.477 0 1.147-2.747 1.611-6.6.988-8.211 1.31-10.2 1.65-10.2.198 0 .359-.277.359-.616 0-.338.63-1.551 1.4-2.694.77-1.144 1.4-2.292 1.4-2.551 0-.26.175-.532.389-.606 3.345-1.145 3.329-81.933-.016-81.933-.205 0-.373-.227-.373-.505s-.63-1.441-1.4-2.585c-.77-1.143-1.4-2.341-1.4-2.661 0-.32-.176-.642-.392-.716-.216-.073-.751-3.103-1.19-6.733-.835-6.903-1.337-9.552-1.889-9.961-.181-.134-.709-.963-1.175-1.841-.465-.879-1.229-1.776-1.699-1.993-.977-.451-1.827-2.744-2.448-6.605-.654-4.07-1.064-5.514-1.761-6.211-.355-.355-.646-.872-.646-1.148 0-.647-1.564-2.078-2.62-2.397-.93-.28-1.479-1.653-2.215-5.544-.282-1.485-.637-2.7-.79-2.7-.153 0-.509-.585-.79-1.3-.774-1.961-2.243-3.777-3.269-4.039-.858-.219-2.316-2.841-2.316-4.165 0-.273-.16-.496-.355-.496-.196 0-.471-.612-.611-1.359-.342-1.822-1.561-3.29-3.233-3.895-1.335-.483-2.601-2.505-2.601-4.154 0-.326-.139-.592-.309-.592-.17 0-.665-.673-1.1-1.495-.435-.822-1.781-2.518-2.991-3.768-3.23-3.337-3.691-3.938-4.889-6.379-.671-1.367-2.717-3.064-4.381-3.634-.732-.25-1.458-.651-1.615-.89-.285-.434-17.508-.719-21.615-.358m19.236 2.667c2.868 1.165 7.248 5.346 8.974 8.566.433.808 1.857 2.516 3.164 3.795 1.307 1.279 2.771 3.176 3.252 4.216.482 1.04 1.988 2.985 3.346 4.322 2.051 2.02 2.682 2.984 3.728 5.695.692 1.795 1.405 3.263 1.583 3.263.179 0 .62.62.979 1.377.36.758 1.055 1.703 1.546 2.1 1.17.948 2.388 3.326 3.29 6.423.401 1.375.861 2.5 1.022 2.5.161 0 .586.731.943 1.625.358.894 1.142 2.109 1.742 2.7 1.323 1.302 2.28 3.326 2.964 6.27.282 1.213.632 2.205.777 2.205.146 0 .384.675.529 1.5.465 2.641 1.869 6.484 2.558 7 1.049.786 2.324 3.863 2.907 7.014.293 1.587.675 2.886.847 2.886.172 0 .313.427.313.948 0 2.683 2.082 12.482 2.774 13.052.951.784 2.462 7.526 3.049 13.6.159 1.65.489 3.128.733 3.285.61.393.631 43.818.022 44.23-.232.157-.647 2.355-.923 4.885-.663 6.097-2.09 12-2.902 12-.407 0-1.832 6.329-2.409 10.7-.268 2.035-.611 3.7-.762 3.7-.15 0-.383.802-.518 1.783-.384 2.805-1.84 6.702-2.899 7.761-.925.925-2.207 4.34-2.783 7.414-.149.793-.431 1.442-.627 1.442-.195 0-.359.405-.363.9-.015 1.549-1.942 6.459-2.785 7.095-.442.333-1.28 1.506-1.862 2.606-.582 1.099-1.185 2.089-1.341 2.199-.155.11-.767 1.731-1.36 3.603-.809 2.557-1.43 3.749-2.498 4.793-.782.765-1.7 1.934-2.04 2.597-.34.664-.747 1.297-.905 1.407-.367.255-1.786 3.482-2.122 4.822-.259 1.037-2.551 3.688-4.16 4.812-.485.338-1.395 1.684-2.022 2.991-.67 1.396-2.14 3.377-3.566 4.805-1.335 1.337-2.748 3.105-3.139 3.93-.391.825-1.135 1.777-1.652 2.116-.517.339-.94.851-.94 1.139 0 .287-.685 1.122-1.523 1.854-.838.732-2.143 2.141-2.9 3.131-.757.99-1.601 1.944-1.876 2.119-.274.176-.919.939-1.433 1.696-.943 1.387-3.906 3.785-4.677 3.785-.229 0-.524.282-.657.626-.132.345-1.206 1.172-2.387 1.839-1.181.666-2.147 1.431-2.147 1.7 0 .704-3.689 3.823-5.478 4.631-1.205.545-3.927 3.191-5.322 5.173-.11.156-1.109.732-2.221 1.279-1.111.547-3.209 2.189-4.662 3.649-2.291 2.303-3.053 2.796-5.759 3.73-1.716.592-3.366 1.323-3.667 1.625-.302.301-.787.548-1.078.548-.292 0-1.055.585-1.696 1.3-1.498 1.671-2.997 2.504-6.383 3.547-1.504.464-2.824.963-2.934 1.109-.11.146-.978.609-1.929 1.029-.951.419-2.089 1.22-2.528 1.779-.894 1.135-3.863 2.7-5.843 3.077-.715.136-1.3.384-1.3.549 0 .166-.855.417-1.9.559-3.317.451-8.832 2.4-9.413 3.328-.367.585-4.526 1.93-7.215 2.333-1.029.154-1.872.417-1.872.584 0 .166-1.106.428-2.458.581-2.698.305-9.998 2.105-10.332 2.547-.928 1.228-6.038 2.456-13.01 3.127-1.54.149-2.89.406-3 .571-.819 1.234-45.184 1.235-46 .002-.11-.167-1.46-.424-3-.573-7.036-.677-12.096-1.902-13.026-3.153-.315-.424-7.289-2.156-10.074-2.502-1.265-.158-2.3-.422-2.3-.589 0-.166-.893-.42-1.985-.565-2.553-.339-6.899-1.715-7.415-2.349-.899-1.104-8.063-3.491-10.475-3.491-.509 0-.925-.141-.925-.313 0-.172-.855-.556-1.9-.854-2.342-.667-4.416-1.881-5.592-3.273-.49-.581-1.48-1.297-2.2-1.591-.719-.294-1.546-.768-1.837-1.052-.29-.284-.755-.517-1.032-.517-1.325 0-5.941-1.775-6.36-2.445-.259-.415-.676-.755-.926-.755-1.236 0-1.331-1.087-.185-2.108 2.738-2.44 2.735-2.439 15.229-2.142 7.563.18 12.144.127 13.603-.156 1.21-.236 5.611-.574 9.781-.753 5.081-.217 7.63-.475 7.733-.783.084-.252.543-.461 1.019-.464 1.791-.013 8.435-1.622 9.069-2.196.364-.329.795-.598.958-.598.163 0 .554-.257.869-.572.742-.742 3.935-1.649 8.071-2.292 1.815-.282 3.3-.653 3.3-.824 0-.172.381-.312.846-.312 1.202 0 4.628-1.949 5.343-3.039.595-.909 2.976-2.167 5.111-2.701.605-.151 1.1-.438 1.1-.636s.585-.488 1.3-.644c1.932-.42 5.036-2.147 5.288-2.942.121-.383.984-1.123 1.916-1.644.933-.522 1.934-1.184 2.225-1.472.29-.287.725-.522.965-.522.849 0 4.43-2.573 6.653-4.781 1.239-1.231 2.793-2.578 3.453-2.994 1.467-.926 2.794-2.06 4.163-3.562 1.799-1.973 5.201-5.235 6.242-5.984.551-.397 1.257-1.331 1.568-2.077.312-.745 1.03-1.758 1.597-2.25.566-.493 1.03-1.12 1.03-1.393 0-.273 1.076-1.636 2.39-3.028 1.315-1.392 2.395-2.756 2.4-3.031.006-.275.2-.5.432-.5.232 0 .887-1.035 1.456-2.3.568-1.265 1.503-2.759 2.078-3.32 2.913-2.846 3.745-4.147 4.924-7.703.67-2.022 1.354-3.767 1.518-3.877.165-.11.813-1.155 1.441-2.321.628-1.167 1.44-2.442 1.805-2.834.689-.739 1.938-5.397 2.746-10.239.256-1.536.588-2.886.738-3 .15-.113.596-1.196.991-2.406.878-2.683 1.97-5.33 2.312-5.6.786-.622 2.188-7.445 2.605-12.686.154-1.932.392-3.604.53-3.714.138-.11.555-2.024.927-4.254.714-4.281 2.089-8.785 2.941-9.638.28-.279.699-1.453.932-2.608.774-3.849 1.634-9.193 1.634-10.152 0-.522.155-.948.345-.948.189 0 .463-1.215.607-2.7.368-3.784 2.275-13.453 2.709-13.73.566-.362 2.164-5.093 2.759-8.17.298-1.54.663-2.89.811-3 .147-.11.48-2.09.739-4.4.66-5.891 1.986-13.721 2.367-13.982.464-.317 2.35-5.211 2.675-6.941.152-.812.406-1.477.563-1.477.411 0 1.132-4.265 1.623-9.6.465-5.065 1.451-10.838 1.909-11.181.32-.239 1.877-4.472 2.582-7.019.244-.88.565-1.69.714-1.8.316-.232 1.252-5.922 2.222-13.5.373-2.915.811-5.3.972-5.3.161 0 .518-1.395.792-3.1.547-3.395 1.747-6.979 2.636-7.867.586-.587 2.32-6.996 2.795-10.333.149-1.045.385-1.903.525-1.906.14-.004.705-.925 1.255-2.047.573-1.169 1.388-2.189 1.907-2.387.499-.19 1.088-.82 1.308-1.401 1.028-2.702 6.145-6.159 9.118-6.159.225 0 .648-.237.938-.527.291-.29 1.789-1.139 3.329-1.887 1.54-.748 2.89-1.467 3-1.596 1.769-2.082 17.776-3.138 21.936-1.447M96.677 351.967l-1.123 1.146 1.253.892c1.003.714 1.617.851 3.073.687 2.517-.284 3.363-1.591 1.49-2.303-.567-.216-1.3-.661-1.629-.991-.885-.885-1.805-.714-3.064.569"/></g></svg>