<svg xmlns="http://www.w3.org/2000/svg" role="img" viewBox="0.33 0.33 54.21 54.09"><title>Jupiter Skin logo</title><path fill="#CE3631" stroke="#CE3631" d="M26.5 2l8 1L41 6.5 24 7l-.5 2h-11l2-3 6-3q4.8 1.3 6-1z"/><path fill="#D23D2C" stroke="#D23D2C" d="M8.5 12h20l.5 2.5-1 2.5-23-.5L8.5 12zm33 0q6.3-1.2 7.5 2.5l1 2-10 .5q-1-3.8 1.5-5z"/><path fill="#FCF0EB" stroke="#FCF0EB" d="M42.5 6l1 2-1-2zm-27 28l1 2-1-2zm-9 4l.5 4.5H6l.5-4.5zm15 5l-2 3 2-3zm-6 3l2.5.5-2.5.5v-1zm28 1l-1 2 1-2z"/><path fill="#D13A2E" stroke="#D13A2E" d="M11.5 8l1 1h11l4.5 2.5-19.5.5 3-4zm34 2l1 2-4.5-.5 3.5-1.5z"/><path fill="#D7452C" stroke="#D7452C" d="M39.5 16l1 1H51l1 3.5-13 .5.5-5zM4 17h23.5l.5 2.5-1.5 1.5h-23l.5-1.5V17z"/><path fill="#DC4A22" stroke="#DC4A22" d="M3 23l24 .5-2.5 5.5h-21L2 27.5 3 23zm35 0h13.5l.5 3.5q2.3 1.3-.5 2.5h-14l-.5-3.5 1-2.5z"/><path fill="#FFF" stroke="#FFF" d="M0 0h55v55H0V0zm22 2l-9 4Q5 11 2 22 0 36 7 43v-6l3-3q6-1 7 3v3l-4 6 3 1 4-1 4-6 6-25-1-3v-2h-4V8h19q-6-8-22-6zm20 8l-3 4q-2 15-7 28-4 5-11 7-5 1-6-1l-3 1 10 4q14 2 21-4 7-5 10-15 2-15-4-21-1-4-7-3z"/><path fill="#DA4725" stroke="#DA4725" d="M3 21h23.5l.5 2H3.5L3 21zm35 0h13.5l.5 2H38.5l-.5-2z"/><path fill="#F2B59F" stroke="#F2B59F" d="M21.5 2l2.5.5-2.5.5V2zm10 0l2.5.5-2.5.5V2zm-20 5l-4 5 4-5zm14 0l17.5.5L25 8l-.5 2-.5-1.5L25.5 7zm21 3l1 2-1-2zm-44 11l.5 2.5H2l.5-2.5zm50 0l.5 2.5h-1l.5-2.5zm-44 13l-1 2 1-2zm7 8l-2 3 2-3zm16 0l-3 4 3-4zm16 1l-3 4 3-4zm-34 5l1 2-1-2z"/><path fill="#E15524" stroke="#E15524" d="M2.5 24l.5 2.5H2l.5-2.5zm50 0l.5 2.5h-1l.5-2.5zm-50 4l1 1h21l1.5-.5-1 4.5H3.5L3 30.5 2.5 28zm50 0l.5 1.5-1 3.5H36.5l-.5-4h15.5l1-1z"/><path fill="#E75A17" stroke="#E75A17" d="M3 33l6 .5-2 .5-1.5 5L3 33zm12.5 0H24v3.5L23 40h-5v-3.5L17 34l-1.5-1zm21 0h15l.5 1.5-3.5 5.5h-14l-.5-1.5 2.5-5.5z"/><path fill="#F27422" stroke="#F27422" d="M48.5 41l-1 2 1-2zm-27 1l-2 3 2-3zm21 5l-1 2 1-2zm-27 2l3.5.5-3.5.5v-1z"/><path fill="#F77107" stroke="#F77107" d="M17 40h5v1.5L17.5 46h-2q-3.8-2.3 1.5-4.5V40zm16 0l16 .5-5.5 6.5-6 4-11 2-9.5-2.5L27.5 47l5.5-5.5V40z"/></svg>