<svg xmlns="http://www.w3.org/2000/svg" role="img" viewBox="-9.78 -9.28 482.56 282.56"><title>Kdenlive logo</title><g fill-opacity="1" stroke="none" stroke-dasharray="none" stroke-miterlimit="4" stroke-opacity="1" transform="translate(-84.601 21.463) translate(-1077.439 2295.744) scale(1.12132)"><g fill="#f38577" stroke-linecap="butt" stroke-linejoin="miter" stroke-width=".597" text-anchor="start" transform="translate(-2985.268 -3708.475)" writing-mode="lr-tb"><g style="text-align:start" transform="translate(3040.883 416.692) scale(1.02927)"><path d="M957.94299 1383.0731v-60.1781h-5.13465v94.5803h5.13465v-27.111z" style="text-align:start"/><path d="M1051.198 1323.4084v34.6076q-9.8585-.9243-15.0959-.9243-12.5285 0-20.0251 6.5724-8.9343 7.8047-10.9882 20.5386-.5134 3.0808-.5134 6.0589 0 11.5016 6.4696 20.0251 7.0858 9.2424 18.1767 9.2424 9.1397 0 16.3282-6.2643 3.4915-3.0808 5.6481-6.1615v10.2693h5.032v-93.9642zm0 66.0317q-.1027 12.015-8.2154 19.1009-6.6751 5.7508-14.069 5.7508-9.5504 0-15.6093-10.372-3.3889-5.6481-3.3889-13.4528 0-6.2643 2.2592-12.3232 2.4647-6.675 6.7778-10.372 7.1885-6.3669 16.0201-5.7508 2.8754 0 16.2255 1.0269.2054 2.7728 0 26.3922z" style="text-align:start"/><path d="M1119.5129 1387.6943q.4108-10.7828-4.9292-19.3063-5.9562-9.4478-16.0201-11.0909-1.8485-.308-3.5943-.308-9.1397 0-16.3282 6.3669-9.5504 8.3182-10.5774 21.0521-.1027.6162-.1027 1.335v4.4158q1.7458 14.4797 10.4747 22.1817 7.5993 6.675 19.409 6.5724 2.5673-.1027 5.34-.4108 6.7778-.8216 13.3501-2.7727v-1.2323-3.7997q-6.675 1.8485-8.5235 2.2593-5.0319 1.335-11.2962 1.0269-8.8316 0-15.404-5.7508-5.8535-5.1347-7.8046-17.2525-.3081-1.5403-.3081-2.7727v-.5134zm-38.2018-19.7171q6.5724-5.7508 13.9663-5.7508 9.5504 0 15.6093 10.4747 2.5673 4.2104 3.1835 9.8585h-40.6664q1.335-8.8316 7.9073-14.5824z" style="text-align:start"/><path d="M1182.4429 1367.4637q-2.9781-5.0319-6.7777-7.3939-3.7997-2.4646-10.6801-3.5942-1.7458-.2054-3.5943-.2054-6.4696 0-12.3231 3.3889-5.7508 3.3888-9.5505 8.9343v-10.5774h-5.1346v59.3566h5.1346v-32.451q0-10.4747 8.1128-17.6632 6.675-5.8535 14.1716-5.8535 1.1296 0 2.2592.2053 5.5455.9243 8.4209 2.7728 2.8754 1.8484 5.2373 6.0588 3.0808 5.1347 3.0808 14.8905v32.0403h5.3401v-32.0403q0-11.5016-3.697-17.8686z" style="text-align:start"/><path d="M1203.9908 1417.5779h5.1346v-94.5802h-5.1346z" style="text-align:start"/><path d="M1230.5642 1357.9133v59.562h5.1347v-59.562zm5.1347-15.0959h-5.1347v5.1347h5.1347z" style="text-align:start"/><path d="M1269.9101 1417.3726h5.34l20.8467-59.2539h-5.4427l-18.074 51.5519-18.6901-51.5519h-5.4427z" style="text-align:start"/><path d="M1354.5837 1387.6943q.4108-10.7828-4.9293-19.3063-5.9561-9.4478-16.0201-11.0909-1.8484-.308-3.5942-.308-9.1397 0-16.3282 6.3669-9.5505 8.3182-10.5774 21.0521-.1027.6162-.1027 1.335v4.4158q1.7458 14.4797 10.4747 22.1817 7.5993 6.675 19.409 6.5724 2.5673-.1027 5.34-.4108 6.7778-.8216 13.3501-2.7727v-1.2323-3.7997q-6.675 1.8485-8.5235 2.2593-5.032 1.335-11.2962 1.0269-8.8316 0-15.404-5.7508-5.8535-5.1347-7.8047-17.2525-.308-1.5403-.308-2.7727v-.5134zm-38.2018-19.7171q6.5724-5.7508 13.9663-5.7508 9.5504 0 15.6093 10.4747 2.5673 4.2104 3.1835 9.8585h-40.6665q1.3351-8.8316 7.9074-14.5824z" style="text-align:start"/></g><path style="text-align:start" d="M4062.1875 1813.5176l-32.6855 31.8125 32.6855 30.0449h7.6094l-32.5703-30.0645 32.5703-31.7929z"/></g><g stroke-dashoffset="0" transform="translate(195.523 -492.798)"><g fill="#83b9f5" fill-rule="evenodd" stroke-linecap="butt" stroke-linejoin="miter" stroke-width="7.5" clip-rule="nonzero" color="#000" color-interpolation="sRGB" color-interpolation-filters="linearRGB" color-rendering="auto" image-rendering="auto" shape-rendering="auto" text-anchor="start" text-rendering="auto" transform="translate(-4.816 7.011) scale(1.00484)" visibility="visible" writing-mode="lr-tb"><path d="M1024.0723-1553.3262v7.5h10.3086v-7.5z" style="text-indent:0;text-align:start;text-decoration-line:none;text-decoration-style:solid;text-decoration-color:#000;text-transform:none;isolation:auto;mix-blend-mode:normal;solid-color:#000;solid-opacity:1" baseline-shift="baseline" display="inline" opacity="1" overflow="visible" text-decoration="none"/><path d="M1015.9238-1541.2715v7.5h18.4571v-7.5z" style="text-indent:0;text-align:start;text-decoration-line:none;text-decoration-style:solid;text-decoration-color:#000;text-transform:none;isolation:auto;mix-blend-mode:normal;solid-color:#000;solid-opacity:1" baseline-shift="baseline" display="inline" opacity="1" overflow="visible" text-decoration="none"/><path d="M994.25586-1529.2148v7.5h40.12504v-7.5z" style="text-indent:0;text-align:start;text-decoration-line:none;text-decoration-style:solid;text-decoration-color:#000;text-transform:none;isolation:auto;mix-blend-mode:normal;solid-color:#000;solid-opacity:1" baseline-shift="baseline" display="inline" opacity="1" overflow="visible" text-decoration="none"/><path d="M972.14844-1517.1602v7.5h62.23246v-7.5z" style="text-indent:0;text-align:start;text-decoration-line:none;text-decoration-style:solid;text-decoration-color:#000;text-transform:none;isolation:auto;mix-blend-mode:normal;solid-color:#000;solid-opacity:1" baseline-shift="baseline" display="inline" opacity="1" overflow="visible" text-decoration="none"/><path d="M957.5625-1505.1035v7.5h76.8184v-7.5z" style="text-indent:0;text-align:start;text-decoration-line:none;text-decoration-style:solid;text-decoration-color:#000;text-transform:none;isolation:auto;mix-blend-mode:normal;solid-color:#000;solid-opacity:1" baseline-shift="baseline" display="inline" opacity="1" overflow="visible" text-decoration="none"/><path d="M981.85742-1493.0488v7.5h52.52348v-7.5z" style="text-indent:0;text-align:start;text-decoration-line:none;text-decoration-style:solid;text-decoration-color:#000;text-transform:none;isolation:auto;mix-blend-mode:normal;solid-color:#000;solid-opacity:1" baseline-shift="baseline" display="inline" opacity="1" overflow="visible" text-decoration="none"/><path d="M1003.2227-1480.9941v7.5h31.1582v-7.5z" style="text-indent:0;text-align:start;text-decoration-line:none;text-decoration-style:solid;text-decoration-color:#000;text-transform:none;isolation:auto;mix-blend-mode:normal;solid-color:#000;solid-opacity:1" baseline-shift="baseline" display="inline" opacity="1" overflow="visible" text-decoration="none"/><path d="M994.78125-1468.9375v7.5h39.59965v-7.5z" style="text-indent:0;text-align:start;text-decoration-line:none;text-decoration-style:solid;text-decoration-color:#000;text-transform:none;isolation:auto;mix-blend-mode:normal;solid-color:#000;solid-opacity:1" baseline-shift="baseline" display="inline" opacity="1" overflow="visible" text-decoration="none"/><path d="M1015.2461-1457.4258v7.5h19.1348v-7.5z" style="text-indent:0;text-align:start;text-decoration-line:none;text-decoration-style:solid;text-decoration-color:#000;text-transform:none;isolation:auto;mix-blend-mode:normal;solid-color:#000;solid-opacity:1" baseline-shift="baseline" display="inline" opacity="1" overflow="visible" text-decoration="none"/></g><g fill="#f38577" transform="matrix(-3.51396 0 0 3.51396 1727.667 -3255.55)"><path stroke-linecap="round" stroke-linejoin="round" stroke-width="3" d="M188.32192 478.62102h9.27502l-4.63751 7.09692z" opacity="1"/><path fill-rule="evenodd" d="M192.36328 479.92773v37.21431h1.19336v-37.21431z" style="text-indent:0;text-align:start;text-decoration-line:none;text-decoration-style:solid;text-decoration-color:#000;text-transform:none;isolation:auto;mix-blend-mode:normal;solid-color:#000;solid-opacity:1" stroke-linecap="butt" stroke-linejoin="miter" stroke-width="1.193" baseline-shift="baseline" clip-rule="nonzero" color="#000" color-interpolation="sRGB" color-interpolation-filters="linearRGB" color-rendering="auto" display="inline" image-rendering="auto" opacity="1" overflow="visible" shape-rendering="auto" text-anchor="start" text-decoration="none" text-rendering="auto" visibility="visible" writing-mode="lr-tb"/></g><path style="text-indent:0;text-align:start;text-decoration-line:none;text-decoration-style:solid;text-decoration-color:#000;text-transform:none;isolation:auto;mix-blend-mode:normal;solid-color:#000;solid-opacity:1" fill="#527eb2" fill-rule="nonzero" stroke-linecap="butt" stroke-linejoin="round" stroke-width="4" d="M1067.1502-1553.8776c-1.5308-.043-2.795 1.1863-2.7946 2.7177v98.6917c.001 2.2199 2.5193 3.5021 4.3153 2.1974l67.9725-49.3445c1.4962-1.0852 1.4962-3.315 0-4.4002l-67.9725-49.3446a2.7181 2.7181 0 0 0-1.5207-.5175z" baseline-shift="baseline" clip-rule="nonzero" color="#000" color-interpolation="sRGB" color-interpolation-filters="linearRGB" color-rendering="auto" display="inline" image-rendering="auto" opacity="1" overflow="visible" shape-rendering="auto" text-anchor="start" text-decoration="none" text-rendering="auto" visibility="visible" writing-mode="lr-tb"/></g></g></svg>