<svg xmlns="http://www.w3.org/2000/svg" role="img" viewBox="-9.39 -9.39 488.28 178.28"><title>LGL - Large Graph Layout logo</title><path fill="#020202" stroke="none" d="M0 0v160h470V0H0m171 40v4h-10v28h-4V44h-10v-4h24m8 0v13h16V40h4v32h-4V57h-16v15h-4V40h4m46 0v4h-14v9h13v4h-13v11h14v4h-18V40h18m-60 47.7261c20.199.7637 17.963 33.5059-3 32.2299-18.571-1.131-16.185-32.9553 3-32.2299m174 0c20.199.7637 17.963 33.5059-3 32.2299-18.571-1.131-16.185-32.9553 3-32.2299M189 108v12h-4V88c5.175 0 12.329-1.2237 16.772 2.0093C214.195 99.0508 196.992 107.656 189 108m42-20v4h-10v28h-4V92h-10v-4h24m23 0v4h-14v9h13v4h-13v11h14v4h-18V88h18m22 20v12h-4V88c5.175 0 12.329-1.2238 16.772 2.0093C301.195 99.0508 283.992 107.656 276 108m37-3l8 15c-9.729-.74-9.039-12.674-19-13v13h-4V88c4.918 0 11.452-1.0715 15.941 1.3179 6.75 3.5919 5.005 12.6921-.941 15.6821m50-17c0 13.01 6.126 39.936-12 40v-4c12.885-.98 8-26.5299 8-36h4m26 0v4h-14v9h13v4h-13v11h14v4h-18V88h18m54 0v4h-10v28h-4V92l-11-2-1 3c-3.821-.7094-8.273-1.806-11.906.179-7.502 4.0995-7.761 16.244-.99 21.09 3.897 2.788 8.606 1.785 12.896.731l1 4c-5.452 1.298-12.932 2.254-17.815-1.148-8.098-5.642-7.74-21.3579-.08-27.1992C409.054 83.828 432.04 88 443 88m-279.999 3.6566c-13.086 1.4377-11.716 25.8034 1.998 24.7004 13.328-1.071 12.13-26.2526-1.998-24.7004m174 0c-13.086 1.4377-11.716 25.8034 1.998 24.7004 13.328-1.071 12.13-26.2526-1.998-24.7004M189 92v12c14.137-.119 14.234-11.9591 0-12m87 0v12c14.137-.119 14.234-11.9591 0-12m26 0v11c14.084-.011 14.226-10.9906 0-11z"/></svg>