<svg xmlns="http://www.w3.org/2000/svg" role="img" viewBox="214.87 194.87 903.26 942.76"><title>libitmf logo</title><g stroke-width="1.333"><path fill="#6cc8da" d="M472.43229 1117.891c-6.94134-2.5524-17.03786-11.31-20.4213-17.7132l-2.55981-4.8445-.0589 11-.0589 11H408.00005V917.33331H449.33338l.0589 39.66667.0589 39.66666 2.51875-4.76445c6.20582-11.73892 21.22062-19.90221 36.60629-19.90221 26.01365 0 43.89349 15.66026 50.99738 44.66662 3.56966 14.5755 3.21494 47.3956-.66013 61.0791-5.689 20.0888-14.18763 31.6053-28.03965 37.9964-9.464 4.3666-29.38238 5.48-38.44154 2.1489zm14.89724-34.2866c3.25222-1.8419 6.6303-5.3413 8.66667-8.9781 3.05676-5.459 3.37499-7.5913 3.78783-25.3813.51693-22.2754-.67244-28.4602-6.81932-35.4611-7.97362-9.0815-20.06603-11.0158-32.54464-5.2058-10.62265 4.9459-11.08764 6.5273-11.08176 37.689.004 24.1214.23704 26.7802 2.69421 30.8104 5.66418 9.2903 24.32483 12.741 35.29701 6.5269zm-229.10624 31.8171c-11.63746-3.1279-19.58794-11.4968-22.83312-24.035-1.7465-6.7478-2.05684-20.4781-2.05684-91v-83.05319H274.66666v167.99999h17.33333v32l-13.66666-.09c-7.51667-.05-16.56619-.8693-20.11004-1.8218zm65.05482.2451c-.35101-.9166-.48217-32.8666-.29149-71l.34671-69.33329h39.99999l.34502 70.99999.34502 71h-20.05353c-14.81357 0-20.22029-.4355-20.69172-1.6667zM579.99999 1046v-71.33336h39.99999V1117.3333h-39.99999zm117.37958 68.9751c-5.36028-1.5764-9.11699-3.9277-14.20779-8.8924-10.63061-10.3675-11.1718-13.2897-11.1718-60.3247v-39.0914h-20.08462l.37564-15.66662.37565-15.66667 6.66667-.34841c15.12913-.7907 16.66666-2.9665 16.66666-23.58538v-14.06621h37.33334v37.24004l13.66666.37999 13.66667.37997.37565 15.66667.37564 15.66662h-28.08462V1085.3333h25.33333v32l-17-.1076c-11.41752-.072-19.39293-.8113-24.28708-2.2506zm77.89853.6915c-.35101-.9166-.48217-32.8666-.29149-71l.3467-69.33329h40l.38942 11.95276.38941 11.95277 3.81657-6.68257c8.39116-14.69237 20.88451-21.37247 37.90999-20.27019 5.44836.35275 12.14042 1.78782 15.70305 3.36742 7.49331 3.32238 15.74556 11.51913 19.11108 18.98252l2.47187 5.48158 1.67565-3.98518c2.96376-7.04871 12.06489-15.55822 20.86259-19.50639 22.69378-10.18436 46.34288-3.01525 56.55918 17.14565 6.31596 12.46392 7.06303 20.25232 7.08804 73.89492l.0231 49.6667H940.12129l-.39402-49.6667c-.36924-46.5439-.55798-49.9377-3.00209-53.9784-5.13129-8.4833-17.02644-10.7668-27.51555-5.2822-10.56008 5.5217-10.5386 5.3981-10.54097 60.6287l-.002 48.3681-20.33333-.3681L858 1116.6666l-.66667-49.3333c-.59264-43.8552-.92828-49.812-3.02257-53.6441-3.3732-6.1722-9.17455-8.7803-17.91748-8.0553-7.60168.6304-12.28603 3.2638-16.97756 9.5443-2.64301 3.5382-2.76372 5.5794-3.12931 52.9176l-.38025 49.2375h-19.99493c-14.76668 0-20.16179-.4358-20.63311-1.6667zm255.3885-53.6319v-55.3681h-20.0846l.3757-15.66662.3756-15.66667 9.6667-.39175 9.6666-.39174v-12.36626c0-17.57013 2.5204-25.16722 11.1256-33.53528 3.7809-3.67676 9.2744-7.50197 12.2078-8.50048 3.13-1.06545 13.7335-2.08068 25.6666-2.45745l20.3334-.64197v32.28493h-28v25.24004l13.6666.37999 13.6667.37997.3757 15.66667.3756 15.66662h-28.055l-.3482 55-.3481 55-20.3333.3681-20.3334.3681zM330.61585 958.33331c-7.55799-3.81127-10.61099-9.60209-10.61379-20.13183-.004-13.80877 5.85776-21.11733 18.45046-23.00573 8.32338-1.24816 19.06143 1.45361 23.2699 5.85488 7.57152 7.9184 7.45576 26.76683-.20948 34.1106-7.08734 6.79011-20.90846 8.20905-30.89709 3.17208zm259.97294 1.81565c-6.81764-2.22854-9.53063-4.47085-12.0062-9.92322-5.15684-11.35775-1.86854-26.92215 6.7654-32.02232 9.22278-5.44804 24.89958-4.05063 32.3271 2.8816 9.58279 8.94378 7.75975 30.34194-3.13323 36.77658-4.64442 2.74352-18.50761 4.06738-23.95307 2.28736zM437.33332 603.99998v-66.66666h133.33333v133.33333H437.33332zm162.33128-95.6687L437.33332 345.99591V213.33333h134.00409L733.6687 375.6687l162.33128 162.33537v132.66258H761.99589z"/><path fill="#9a9aa1" d="M472.43229 1117.891c-6.94134-2.5524-17.03786-11.31-20.4213-17.7132l-2.55981-4.8445-.0589 11-.0589 11H408.00005V917.33331H449.33338l.0589 39.66667.0589 39.66666 2.51875-4.76445c6.20582-11.73892 21.22062-19.90221 36.60629-19.90221 26.01365 0 43.89349 15.66026 50.99738 44.66662 3.56966 14.5755 3.21494 47.3956-.66013 61.0791-5.689 20.0888-14.18763 31.6053-28.03965 37.9964-9.464 4.3666-29.38238 5.48-38.44154 2.1489zm14.89724-34.2866c3.25222-1.8419 6.6303-5.3413 8.66667-8.9781 3.05676-5.459 3.37499-7.5913 3.78783-25.3813.51693-22.2754-.67244-28.4602-6.81932-35.4611-7.97362-9.0815-20.06603-11.0158-32.54464-5.2058-10.62265 4.9459-11.08764 6.5273-11.08176 37.689.004 24.1214.23704 26.7802 2.69421 30.8104 5.66418 9.2903 24.32483 12.741 35.29701 6.5269zm-229.10624 31.8171c-11.63746-3.1279-19.58794-11.4968-22.83312-24.035-1.7465-6.7478-2.05684-20.4781-2.05684-91v-83.05319H274.66666v167.99999h17.33333v32l-13.66666-.09c-7.51667-.05-16.56619-.8693-20.11004-1.8218zm65.05482.2451c-.35101-.9166-.48217-32.8666-.29149-71l.34671-69.33329h39.99999l.34502 70.99999.34502 71h-20.05353c-14.81357 0-20.22029-.4355-20.69172-1.6667zM579.99999 1046v-71.33336h39.99999V1117.3333h-39.99999zm117.37958 68.9751c-5.36028-1.5764-9.11699-3.9277-14.20779-8.8924-10.63061-10.3675-11.1718-13.2897-11.1718-60.3247v-39.0914h-20.08462l.37564-15.66662.37565-15.66667 6.66667-.34841c15.12913-.7907 16.66666-2.9665 16.66666-23.58538v-14.06621h37.33334v37.24004l13.66666.37999 13.66667.37997.37565 15.66667.37564 15.66662h-28.08462V1085.3333h25.33333v32l-17-.1076c-11.41752-.072-19.39293-.8113-24.28708-2.2506zm77.89853.6915c-.35101-.9166-.48217-32.8666-.29149-71l.3467-69.33329h40l.38942 11.95276.38941 11.95277 3.81657-6.68257c8.39116-14.69237 20.88451-21.37247 37.90999-20.27019 5.44836.35275 12.14042 1.78782 15.70305 3.36742 7.49331 3.32238 15.74556 11.51913 19.11108 18.98252l2.47187 5.48158 1.67565-3.98518c2.96376-7.04871 12.06489-15.55822 20.86259-19.50639 22.69378-10.18436 46.34288-3.01525 56.55918 17.14565 6.31596 12.46392 7.06303 20.25232 7.08804 73.89492l.0231 49.6667H940.12129l-.39402-49.6667c-.36924-46.5439-.55798-49.9377-3.00209-53.9784-5.13129-8.4833-17.02644-10.7668-27.51555-5.2822-10.56008 5.5217-10.5386 5.3981-10.54097 60.6287l-.002 48.3681-20.33333-.3681L858 1116.6666l-.66667-49.3333c-.59264-43.8552-.92828-49.812-3.02257-53.6441-3.3732-6.1722-9.17455-8.7803-17.91748-8.0553-7.60168.6304-12.28603 3.2638-16.97756 9.5443-2.64301 3.5382-2.76372 5.5794-3.12931 52.9176l-.38025 49.2375h-19.99493c-14.76668 0-20.16179-.4358-20.63311-1.6667zm255.3885-53.6319v-55.3681h-20.0846l.3757-15.66662.3756-15.66667 9.6667-.39175 9.6666-.39174v-12.36626c0-17.57013 2.5204-25.16722 11.1256-33.53528 3.7809-3.67676 9.2744-7.50197 12.2078-8.50048 3.13-1.06545 13.7335-2.08068 25.6666-2.45745l20.3334-.64197v32.28493h-28v25.24004l13.6666.37999 13.6667.37997.3757 15.66667.3756 15.66662h-28.055l-.3482 55-.3481 55-20.3333.3681-20.3334.3681zM330.61585 958.33331c-7.55799-3.81127-10.61099-9.60209-10.61379-20.13183-.004-13.80877 5.85776-21.11733 18.45046-23.00573 8.32338-1.24816 19.06143 1.45361 23.2699 5.85488 7.57152 7.9184 7.45576 26.76683-.20948 34.1106-7.08734 6.79011-20.90846 8.20905-30.89709 3.17208zm259.97294 1.81565c-6.81764-2.22854-9.53063-4.47085-12.0062-9.92322-5.15684-11.35775-1.86854-26.92215 6.7654-32.02232 9.22278-5.44804 24.89958-4.05063 32.3271 2.8816 9.58279 8.94378 7.75975 30.34194-3.13323 36.77658-4.64442 2.74352-18.50761 4.06738-23.95307 2.28736zM437.33332 603.99998v-66.66666h133.33333v133.33333H437.33332zm162.33128-95.6687L437.33332 345.99591V213.33333h133.33333v132.67355l96.36165 96.35479 96.36165 96.35477 66.30534-.35823 66.30533-.35822-.00032 66.33333-.00032 66.33333H761.99589z"/><path fill="#6469a6" d="M473.77659 1117.6197c-9.68892-3.4718-15.85317-8.6196-20.82383-17.3903l-4.2861-7.5628-.38384 12.3687-.38383 12.3687-19.61617-.3687-19.61616-.3687V917.99998l19.66666-.36898 19.66667-.36898v40.70232c0 36.84161.83731 46.83926 3.15083 37.62142 1.4297-5.69638 8.33605-13.55746 15.17973-17.2782 9.60386-5.22137 19.90996-6.88637 30.86246-4.986 12.11076 2.10135 18.9232 5.39114 26.16959 12.63752 12.15123 12.15123 17.97072 31.53822 17.97072 59.86742 0 47.4618-16.60605 72.0138-49.85503 73.7104-8.23249.4201-12.45528-.037-17.7017-1.9172zm9.91469-31.6834c6.58861-2.7529 10.80964-6.815 13.78865-13.2697 2.06211-4.4679 2.46624-8.7805 2.49078-26.579.0333-24.2157-1.53372-29.7428-10.3367-36.4572-4.05512-3.0931-6.25522-3.6871-14.8635-4.0133-8.54996-.324-10.9048.086-15.31183 2.6666-10.31973 6.0428-10.73989 7.3882-11.20696 35.8867-.38101 23.2487-.19269 25.7763 2.30502 30.9359 5.22686 10.7972 20.92947 15.9296 33.13454 10.83zm-220.95305 29.8811c-8.70504-1.4435-17.48928-6.3184-21.47733-11.9191-6.49767-9.1252-6.59424-10.6114-6.59424-101.4792v-85.15708l19.66667.36898 19.66666.36898.34335 83.66662.34336 83.6667H291.99999v32l-11-.1559c-6.05-.086-14.26778-.6977-18.26176-1.36zm61.26176-69.1151v-70.70232H364.02356l-.34512 70.33332-.34512 70.3333-19.66666.369-19.66667.369zm256-.036v-70.66662h39.99999V1117.333h-39.99999zm124.24557 69.3236c-14.10204-2.0964-25.75887-11.3796-29.74811-23.6906-1.05417-3.2532-1.798-18.8793-2.15636-45.2996l-.54707-40.3334h-19.79404v-30.66662h6.46771c8.68519 0 14.18087-2.10323 16.01517-6.12911.83894-1.84123 1.51712-9.85807 1.51712-17.93363v-14.60393h36V975.99968h28v30.66662h-28v78.5701l13 .3817 13 .3816v30.6666l-13.33333.1887c-7.33333.1037-16.52283-.2856-20.42109-.8651zm71.75442-69.2879v-70.70232h40l.0589 12.33333.0589 12.33329 2.78836-5.33329c4.93281-9.43505 10.35133-15.10012 18.04181-18.86272 6.32488-3.09448 9.19363-3.66655 18.27721-3.64473 17.36929.0417 29.09864 6.84585 36.38413 21.10625l3.37126 6.59879 2.03158-3.93212c8.63486-16.71276 29.95546-26.89663 48.95624-23.38415 13.7047 2.53345 21.7702 8.56544 27.79252 20.78535 5.69722 11.56022 6.23902 17.81842 6.23902 72.06562v51.2677h-38.48775l-.42684-48.333c-.46642-52.8152-.73001-54.7139-8.43692-60.7762-2.73864-2.1542-5.50786-2.8905-10.87106-2.8905-8.4922 0-14.5172 2.2912-19.1107 7.2674l-3.33333 3.611-.66667 50.2275-.66666 50.2274-19.59128.3686-19.59128.3685-.40872-49.0352c-.44671-53.5919-.49079-53.9021-8.56189-60.2508-7.49932-5.899-24.0982-2.7504-30.47059 5.7799-2.57969 3.4533-2.74153 6.0032-3.37624 53.1981l-.66667 49.5709-19.66666.369-19.66667.369zm255.55552 69.7421c-.4889-.4889-.8889-25.3889-.8889-55.3333v-54.4445h-20v-30.66662h20v-9.75512c0-26.3326 7.6878-40.44454 24.9399-45.78044 3.5353-1.09343 14.5893-2.32375 24.7268-2.75214l18.3333-.77469v32.39572h-28v26.66667h28v30.66662h-28v110.667h-19.1111c-10.5111 0-19.5111-.4-20-.8889zM331.22458 958.70818c-7.75036-3.13536-12.36555-14.45218-10.62561-26.05492 1.71253-11.41992 8.94736-16.65328 23.02227-16.65328 16.09678 0 23.04731 6.62956 23.04335 21.9792-.004 15.80446-6.68071 22.08129-23.33127 21.93421-5.13333-.0453-10.58226-.58769-12.10874-1.20521zm253.99201-1.74823c-6.22014-4.19175-7.84156-8.10365-7.85863-18.95997-.025-15.90738 6.24543-22 22.64203-22 16.28415 0 22.65309 6.1079 22.66167 21.73288.009 16.51574-5.86706 22.25381-22.79783 22.26213-8.34842.004-10.93179-.53119-14.64724-3.03504zM437.6542 604.33332l.34579-66.33333 66.33333-.34579 66.33333-.34577V670.66665H437.30843zm162.0104-96.00204L437.33332 345.99591V213.33333h133.33333v132.67355l96.33676 96.3299 96.33676 96.32987h132.65981v132H761.99589z"/><path fill="#63636e" d="M473.77659 1117.6197c-9.68892-3.4718-15.85317-8.6196-20.82383-17.3903l-4.2861-7.5628-.38384 12.3687-.38383 12.3687-19.61617-.3687-19.61616-.3687V917.99998l19.66666-.36898 19.66667-.36898v40.70232c0 36.84161.83731 46.83926 3.15083 37.62142 1.4297-5.69638 8.33605-13.55746 15.17973-17.2782 9.60386-5.22137 19.90996-6.88637 30.86246-4.986 12.11076 2.10135 18.9232 5.39114 26.16959 12.63752 12.15123 12.15123 17.97072 31.53822 17.97072 59.86742 0 47.4618-16.60605 72.0138-49.85503 73.7104-8.23249.4201-12.45528-.037-17.7017-1.9172zm9.91469-31.6834c6.58861-2.7529 10.80964-6.815 13.78865-13.2697 2.06211-4.4679 2.46624-8.7805 2.49078-26.579.0333-24.2157-1.53372-29.7428-10.3367-36.4572-4.05512-3.0931-6.25522-3.6871-14.8635-4.0133-8.54996-.324-10.9048.086-15.31183 2.6666-10.31973 6.0428-10.73989 7.3882-11.20696 35.8867-.38101 23.2487-.19269 25.7763 2.30502 30.9359 5.22686 10.7972 20.92947 15.9296 33.13454 10.83zm-220.95305 29.8811c-8.70504-1.4435-17.48928-6.3184-21.47733-11.9191-6.49767-9.1252-6.59424-10.6114-6.59424-101.4792v-85.15708l19.66667.36898 19.66666.36898.34335 83.66662.34336 83.6667H291.99999v32l-11-.1559c-6.05-.086-14.26778-.6977-18.26176-1.36zm61.26176-69.1151v-70.70232H364.02356l-.34512 70.33332-.34512 70.3333-19.66666.369-19.66667.369zm256-.036v-70.66662h39.99999V1117.333h-39.99999zm124.24557 69.3236c-14.10204-2.0964-25.75887-11.3796-29.74811-23.6906-1.05417-3.2532-1.798-18.8793-2.15636-45.2996l-.54707-40.3334h-19.79404v-30.66662h6.46771c8.68519 0 14.18087-2.10323 16.01517-6.12911.83894-1.84123 1.51712-9.85807 1.51712-17.93363v-14.60393h36V975.99968h28v30.66662h-28v78.5701l13 .3817 13 .3816v30.6666l-13.33333.1887c-7.33333.1037-16.52283-.2856-20.42109-.8651zm71.75442-69.2879v-70.70232h40l.0589 12.33333.0589 12.33329 2.78836-5.33329c4.93281-9.43505 10.35133-15.10012 18.04181-18.86272 6.32488-3.09448 9.19363-3.66655 18.27721-3.64473 17.36929.0417 29.09864 6.84585 36.38413 21.10625l3.37126 6.59879 2.03158-3.93212c8.63486-16.71276 29.95546-26.89663 48.95624-23.38415 13.7047 2.53345 21.7702 8.56544 27.79252 20.78535 5.69722 11.56022 6.23902 17.81842 6.23902 72.06562v51.2677h-38.48775l-.42684-48.333c-.46642-52.8152-.73001-54.7139-8.43692-60.7762-2.73864-2.1542-5.50786-2.8905-10.87106-2.8905-8.4922 0-14.5172 2.2912-19.1107 7.2674l-3.33333 3.611-.66667 50.2275-.66666 50.2274-19.59128.3686-19.59128.3685-.40872-49.0352c-.44671-53.5919-.49079-53.9021-8.56189-60.2508-7.49932-5.899-24.0982-2.7504-30.47059 5.7799-2.57969 3.4533-2.74153 6.0032-3.37624 53.1981l-.66667 49.5709-19.66666.369-19.66667.369zm255.55552 69.7421c-.4889-.4889-.8889-25.3889-.8889-55.3333v-54.4445h-20v-30.66662h20v-9.75512c0-26.3326 7.6878-40.44454 24.9399-45.78044 3.5353-1.09343 14.5893-2.32375 24.7268-2.75214l18.3333-.77469v32.39572h-28v26.66667h28v30.66662h-28v110.667h-19.1111c-10.5111 0-19.5111-.4-20-.8889zM331.22458 958.70818c-7.75036-3.13536-12.36555-14.45218-10.62561-26.05492 1.71253-11.41992 8.94736-16.65328 23.02227-16.65328 16.09678 0 23.04731 6.62956 23.04335 21.9792-.004 15.80446-6.68071 22.08129-23.33127 21.93421-5.13333-.0453-10.58226-.58769-12.10874-1.20521zm253.99201-1.74823c-6.22014-4.19175-7.84156-8.10365-7.85863-18.95997-.025-15.90738 6.24543-22 22.64203-22 16.28415 0 22.65309 6.1079 22.66167 21.73288.009 16.51574-5.86706 22.25381-22.79783 22.26213-8.34842.004-10.93179-.53119-14.64724-3.03504zm-146.54993-352.2933v-66h131.99999v132H438.66666zm161.6646-95.66872l-161.6646-161.6687v-133.9959h131.99999v132.67355l96.33676 96.3299 96.33676 96.32987h131.32647v132H761.99586z"/><path fill="#0074a7" d="M478.31261 1118.6302c-11.69718-2.9445-21.59966-10.6394-26.00103-20.2045-1.27138-2.763-2.76159-5.0391-3.31159-5.058-.55-.019-1 5.0656-1 11.2989V1116H409.33332V918.66664H447.99999v40.66667c0 37.21083.92159 47.72539 3.18929 36.38688 1.26999-6.34995 13.30576-17.45128 22.07979-20.36553 10.22789-3.39718 27.54838-2.381 37.39758 2.19405 13.35638 6.20416 22.49467 18.55813 27.66008 37.39339 3.29759 12.0244 3.26892 50.1528-.0469 62.3912-7.26709 26.822-22.02631 40.2848-45.97995 41.9409-4.93161.3409-11.22588.051-13.98726-.644zm6.06354-32.4264c2.35977-.9879 6.48574-4.229 9.16881-7.2025 6.56436-7.2748 8.30183-15.9994 7.50137-37.668-.68502-18.5438-2.7337-24.6951-10.36261-31.1144-4.08619-3.4383-11.53752-6.1974-16.77507-6.2115-6.40957-.017-16.1461 4.0893-20.61169 8.6934l-4.6303 4.774-.43044 25.5959c-.27048 16.0847.11706 27.4409 1.04302 30.5609 3.3081 11.1469 22.27348 17.9406 35.09691 12.5722zm-225.941 28.4908c-6.61853-1.9981-13.79682-6.8112-16.88948-11.3247-6.80922-9.9374-6.87901-10.9612-6.87901-100.9152v-83.78806h38.64663l.34336 83.66666.34334 83.6667 9 .3942 9 .3943V1116l-15-.1147c-8.25-.063-16.60417-.5989-18.56484-1.1908zM323.99999 1046v-70.00002H362.66666V1116H323.99999zm256 0v-70.00002h39.99999V1116h-39.99999zm115.78115 67.4433c-9.31545-3.643-13.50184-7.1639-17.84918-15.0119l-3.93198-7.0981-.40262-42.3333-.40263-42.3334h-19.86141v-30.66662l7-.0196c13.87193-.0389 16.8022-4.47936 16.92474-25.64702l.0753-13.00005h34.66666V975.99998h28v30.66662h-28v80h25.33333V1116l-17.66666-.062c-13.82588-.049-19.01865-.5911-23.88551-2.4944zM775.99998 1046v-70.00002H814.66665v12c0 12.84292 1.36186 15.03712 4.56894 7.36154 1.06594-2.55113 4.71707-7.60941 8.11363-11.24061 7.58279-8.10661 14.68113-10.788 28.55495-10.78655 17.18453.001 29.9629 7.91464 36.48413 22.59235l2.63321 5.92669 3.05736-6.01585c6.79935-13.37888 20.11771-21.28907 37.43165-22.23181 23.2432-1.26559 36.82879 9.402 42.47543 33.35226 1.55901 6.6125 1.97876 18.969 1.99432 58.7086l.0197 50.3334h-38.51454l-.4094-48.3334c-.38562-45.5268-.56424-48.5962-3.07606-52.8606-6.26235-10.6318-18.12383-13.3206-29.80387-6.7561-10.27453 5.7747-10.14511 5.0461-10.59155 59.6167L897.20914 1116h-38.54249v-45.4096c0-49.4195-.62328-55.0086-6.8261-61.2114-10.32529-10.32528-32.50082-3.3488-35.87924 11.2876-.67708 2.9334-1.24536 25.5834-1.26285 50.3334l-.0318 45h-38.66668zM1032 1061.3333v-54.6667h-20v-30.66662h19.7258l.4886-16.33334c.4531-15.14396.7773-16.85688 4.4522-23.52294 7.41-13.44106 17.6199-17.47706 44.2119-17.47706h17.7881v29.33334h-28v28h28v30.66662h-28V1116H1032zM331.02625 958.02319c-6.73272-2.92689-9.68295-9.02763-9.68295-20.02321 0-15.79254 6.28947-22.00223 22.28053-21.99794 14.37249.004 21.80848 6.50219 22.778 19.90578.79461 10.98541-3.02429 18.98468-10.48941 21.97162-6.49247 2.59778-19.07404 2.67044-24.88617.14375zm255.99999 0c-6.52339-2.83589-9.682-9.08112-9.68793-19.15504-.009-15.85136 6.90378-22.80961 22.66168-22.80961 15.50255 0 22.66666 7.00516 22.66666 22.16374 0 15.01651-7.09063 21.81895-22.64587 21.72551-4.7781-.0287-10.62565-.89477-12.99454-1.9246zM438.66666 604.66665v-66h131.99999v132H438.66666zm161.6646-95.66872l-161.6646-161.6687v-133.9959h131.99999v132.67355l96.33676 96.3299 96.33676 96.32987h131.32647v132H761.99586z"/><path fill="#2d358e" d="M478.31261 1118.6302c-11.69718-2.9445-21.59966-10.6394-26.00103-20.2045-1.27138-2.763-2.76159-5.0391-3.31159-5.058-.55-.019-1 5.0656-1 11.2989V1116H409.33332V918.66664H447.99999v40.66667c0 37.21083.92159 47.72539 3.18929 36.38688 1.26999-6.34995 13.30576-17.45128 22.07979-20.36553 10.22789-3.39718 27.54838-2.381 37.39758 2.19405 13.35638 6.20416 22.49467 18.55813 27.66008 37.39339 3.29759 12.0244 3.26892 50.1528-.0469 62.3912-7.26709 26.822-22.02631 40.2848-45.97995 41.9409-4.93161.3409-11.22588.051-13.98726-.644zm6.06354-32.4264c2.35977-.9879 6.48574-4.229 9.16881-7.2025 6.56436-7.2748 8.30183-15.9994 7.50137-37.668-.68502-18.5438-2.7337-24.6951-10.36261-31.1144-4.08619-3.4383-11.53752-6.1974-16.77507-6.2115-6.40957-.017-16.1461 4.0893-20.61169 8.6934l-4.6303 4.774-.43044 25.5959c-.27048 16.0847.11706 27.4409 1.04302 30.5609 3.3081 11.1469 22.27348 17.9406 35.09691 12.5722zm-225.941 28.4908c-6.61853-1.9981-13.79682-6.8112-16.88948-11.3247-6.80922-9.9374-6.87901-10.9612-6.87901-100.9152v-83.78806h38.64663l.34336 83.66666.34334 83.6667 9 .3942 9 .3943V1116l-15-.1147c-8.25-.063-16.60417-.5989-18.56484-1.1908zM323.99999 1046v-70.00002H362.66666V1116H323.99999zm256 0v-70.00002h39.99999V1116h-39.99999zm115.78115 67.4433c-9.31545-3.643-13.50184-7.1639-17.84918-15.0119l-3.93198-7.0981-.40262-42.3333-.40263-42.3334h-19.86141v-30.66662l7-.0196c13.87193-.0389 16.8022-4.47936 16.92474-25.64702l.0753-13.00005h34.66666V975.99998h28v30.66662h-28v80h25.33333V1116l-17.66666-.062c-13.82588-.049-19.01865-.5911-23.88551-2.4944zM775.99998 1046v-70.00002H814.66665v12c0 12.84292 1.36186 15.03712 4.56894 7.36154 1.06594-2.55113 4.71707-7.60941 8.11363-11.24061 7.58279-8.10661 14.68113-10.788 28.55495-10.78655 17.18453.001 29.9629 7.91464 36.48413 22.59235l2.63321 5.92669 3.05736-6.01585c6.79935-13.37888 20.11771-21.28907 37.43165-22.23181 23.2432-1.26559 36.82879 9.402 42.47543 33.35226 1.55901 6.6125 1.97876 18.969 1.99432 58.7086l.0197 50.3334h-38.51454l-.4094-48.3334c-.38562-45.5268-.56424-48.5962-3.07606-52.8606-6.26235-10.6318-18.12383-13.3206-29.80387-6.7561-10.27453 5.7747-10.14511 5.0461-10.59155 59.6167L897.20914 1116h-38.54249v-45.4096c0-49.4195-.62328-55.0086-6.8261-61.2114-10.32529-10.32528-32.50082-3.3488-35.87924 11.2876-.67708 2.9334-1.24536 25.5834-1.26285 50.3334l-.0318 45h-38.66668zM1032 1061.3333v-54.6667h-20v-30.66662h19.7258l.4886-16.33334c.4531-15.14396.7773-16.85688 4.4522-23.52294 7.41-13.44106 17.6199-17.47706 44.2119-17.47706h17.7881v29.33334h-28v28h28v30.66662h-28V1116H1032zM331.02625 958.02319c-6.73272-2.92689-9.68295-9.02763-9.68295-20.02321 0-15.79254 6.28947-22.00223 22.28053-21.99794 14.37249.004 21.80848 6.50219 22.778 19.90578.79461 10.98541-3.02429 18.98468-10.48941 21.97162-6.49247 2.59778-19.07404 2.67044-24.88617.14375zm255.99999 0c-6.52339-2.83589-9.682-9.08112-9.68793-19.15504-.009-15.85136 6.90378-22.80961 22.66168-22.80961 15.50255 0 22.66666 7.00516 22.66666 22.16374 0 15.01651-7.09063 21.81895-22.64587 21.72551-4.7781-.0287-10.62565-.89477-12.99454-1.9246zM438.66666 604.66665v-66h131.99999v132H438.66666zm323.99999 0v-66h131.99999v132H762.66665zM438.66666 279.33333v-66h131.99999v131.99999H438.66666z"/><path fill="#333341" d="M478.31261 1118.6302c-11.69718-2.9445-21.59966-10.6394-26.00103-20.2045-1.27138-2.763-2.76159-5.0391-3.31159-5.058-.55-.019-1 5.0656-1 11.2989V1116H409.33332V918.66664H447.99999v40.66667c0 37.21083.92159 47.72539 3.18929 36.38688 1.26999-6.34995 13.30576-17.45128 22.07979-20.36553 10.22789-3.39718 27.54838-2.381 37.39758 2.19405 13.35638 6.20416 22.49467 18.55813 27.66008 37.39339 3.29759 12.0244 3.26892 50.1528-.0469 62.3912-7.26709 26.822-22.02631 40.2848-45.97995 41.9409-4.93161.3409-11.22588.051-13.98726-.644zm6.06354-32.4264c2.35977-.9879 6.48574-4.229 9.16881-7.2025 6.56436-7.2748 8.30183-15.9994 7.50137-37.668-.68502-18.5438-2.7337-24.6951-10.36261-31.1144-4.08619-3.4383-11.53752-6.1974-16.77507-6.2115-6.40957-.017-16.1461 4.0893-20.61169 8.6934l-4.6303 4.774-.43044 25.5959c-.27048 16.0847.11706 27.4409 1.04302 30.5609 3.3081 11.1469 22.27348 17.9406 35.09691 12.5722zm-225.941 28.4908c-6.61853-1.9981-13.79682-6.8112-16.88948-11.3247-6.80922-9.9374-6.87901-10.9612-6.87901-100.9152v-83.78806h38.64663l.34336 83.66666.34334 83.6667 9 .3942 9 .3943V1116l-15-.1147c-8.25-.063-16.60417-.5989-18.56484-1.1908zM323.99999 1046v-70.00002H362.66666V1116H323.99999zm256 0v-70.00002h39.99999V1116h-39.99999zm115.78115 67.4433c-9.31545-3.643-13.50184-7.1639-17.84918-15.0119l-3.93198-7.0981-.40262-42.3333-.40263-42.3334h-19.86141v-30.66662l7-.0196c13.87193-.0389 16.8022-4.47936 16.92474-25.64702l.0753-13.00005h34.66666V975.99998h28v30.66662h-28v80h25.33333V1116l-17.66666-.062c-13.82588-.049-19.01865-.5911-23.88551-2.4944zM775.99998 1046v-70.00002H814.66665v12c0 12.84292 1.36186 15.03712 4.56894 7.36154 1.06594-2.55113 4.71707-7.60941 8.11363-11.24061 7.58279-8.10661 14.68113-10.788 28.55495-10.78655 17.18453.001 29.9629 7.91464 36.48413 22.59235l2.63321 5.92669 3.05736-6.01585c6.79935-13.37888 20.11771-21.28907 37.43165-22.23181 23.2432-1.26559 36.82879 9.402 42.47543 33.35226 1.55901 6.6125 1.97876 18.969 1.99432 58.7086l.0197 50.3334h-38.51454l-.4094-48.3334c-.38562-45.5268-.56424-48.5962-3.07606-52.8606-6.26235-10.6318-18.12383-13.3206-29.80387-6.7561-10.27453 5.7747-10.14511 5.0461-10.59155 59.6167L897.20914 1116h-38.54249v-45.4096c0-49.4195-.62328-55.0086-6.8261-61.2114-10.32529-10.32528-32.50082-3.3488-35.87924 11.2876-.67708 2.9334-1.24536 25.5834-1.26285 50.3334l-.0318 45h-38.66668zM1032 1061.3333v-54.6667h-20v-30.66662h19.7258l.4886-16.33334c.4531-15.14396.7773-16.85688 4.4522-23.52294 7.41-13.44106 17.6199-17.47706 44.2119-17.47706h17.7881v29.33334h-28v28h28v30.66662h-28V1116H1032zM331.02625 958.02319c-6.73272-2.92689-9.68295-9.02763-9.68295-20.02321 0-15.79254 6.28947-22.00223 22.28053-21.99794 14.37249.004 21.80848 6.50219 22.778 19.90578.79461 10.98541-3.02429 18.98468-10.48941 21.97162-6.49247 2.59778-19.07404 2.67044-24.88617.14375zm255.99999 0c-6.52339-2.83589-9.682-9.08112-9.68793-19.15504-.009-15.85136 6.90378-22.80961 22.66168-22.80961 15.50255 0 22.66666 7.00516 22.66666 22.16374 0 15.01651-7.09063 21.81895-22.64587 21.72551-4.7781-.0287-10.62565-.89477-12.99454-1.9246z"/></g></svg>