<svg xmlns="http://www.w3.org/2000/svg" role="img" viewBox="-1.88 11.25 58.50 31.38"><title>LiquidMaya logo</title><path fill="#FFE8D4" stroke="#FFE8D4" d="M27.5 35l.5 3.5h-1l.5-3.5zm-25 1l6.5.5-6.5.5v-1zm8 0l6.5.5-6.5.5v-1zm19 0l23.5.5-23.5.5v-1z"/><path fill="#FFF" stroke="#FFF" d="M0 0h54.5l.5.5v13l-1.5-.5h-36l-1 1-5.5-1-1 2.5L9.5 28 7 27.5v-14l-.5-.5H0V0zm54.5 35l.5 23H0V36q2.4 1.8 8.5 1h2q6.1.8 8.5-1-1 3.8 1.5 5 6.3 1.3 7.5-2.5l.5-2.5 1 1h23l2-2z"/><path fill="#FFAE2E" stroke="#FFAE2E" d="M1 14h4v9l-3.5 1L1 14zm12.5 0l2.5 1.5-1.5 3.5-2.5-1.5 1.5-3.5zm6 0q6-1.5 7.5 1.5V23h-7.5l-1.5.5v-8l1.5-1.5zm8.5 0l2 .5v10h-1L28 14zm3 0l7 .5-1 1-.5 8.5-4.5-1-1-9zm9.5 0l2.5 1.5-1.5 3.5-2.5-1.5 1.5-3.5zm4.5 0h7.5l1.5 1.5-.5 8.5q-1.5-2.5-7-1l-1.5.5V14z"/><path fill="#FFAE2E" stroke="#FFAE2E" d="M12 20q6-2.2 4 4.5h-1q.8-2.2-1.5-1.5l-1.5.5V20zm27 0q5.6-2.2 4 3.5l-1.5-.5q-2.2-.7-1.5 1.5h-1V20z"/><path fill="#FFA12B" stroke="#FFA12B" d="M44.5 14l.5 5.5-2 1 1-3-1-2 1.5-1.5zm-7 1q2.8 1.3.5 2.5L36.5 29 31 26.5l.5-7.5.5 4 4.5 1 1-9zm-20 1l1 8 1-1H27v5h-7.5l-1.5.5-.5-12.5zm-5 2l2.5 1.5-1.5.5-1-2zm30 0l-1 2-1.5-.5 2.5-1.5zm-40 5H5v5q-3.8-1.5-3 1.5H1Q-.3 24.3 2.5 23zm11 0q2.3-.7 1.5 1.5 2.5 1.5 1 7h-1q1.5-4.4-1.5-3.5l-1.5.5Q11 24 13.5 23z"/><path fill="#FFA12B" stroke="#FFA12B" d="M28.5 23q2.6 2.4 1.5 8.5h-1l-.5-8.5zM40 23l3 1.5-.5 6.5-.5-3q-3.3-1.3-2 3.5h-1q-.7-6.1 1-8.5zm6.5 0q6-1.5 7.5 1.5l-.5 5.5-.5-2h-6.5l-.5 1.5h-1q-1.2-5.2 1.5-6.5z"/><path fill="#FF911D" stroke="#FF911D" d="M18.5 14l-2 3 2-3zm21 0l-1 2 1-2zm-34 1L6 27.5H5L5.5 15zm22 1l.5 10.5h-1l.5-10.5zm3 0l.5 17.5h-1l.5-17.5zm8 1l1.5 2.5-1 1V35q-3.7 1.4-2-4.5l1-1q-1.5-7.5 1-11l-.5-1.5zm-26 2l-.5 1.5-.5 2.5-.5-2.5 1.5-1.5zm30 0l2.5 1.5v14l-2 .5V21.5l1-1-1.5-1.5zm-26 1L18 34l-2-.5.5-13.5zm-7 8l2.5 1-.5 6q-2.6-1.4-2-6l-1.5.5L9.5 28zm38 2l-.5 1.5-.5 1.5-.5-1.5 1.5-1.5zm-25 5l3.5 1.5-2.5 1.5v-2l-1-1z"/><path fill="#FF8212" stroke="#FF8212" d="M1.5 13l4.5.5-4.5.5v-1zm12 0l3.5 2.5-2.5-1.5-1-1zm6 0l5.5.5-5.5.5v-1zm9 0l9.5.5-10 .5-.5 2-1-2 2-1zm16 0l7.5.5-7.5.5v-1zm-44 2L1 32.5H0L.5 15zm54 2l.5 14.5h-1l.5-14.5zm-43 6l.5 4.5-2 1 1.5-5.5zm16 4l.5 6.5-2 1 1.5-7.5zm-22 1l.5 2 2 .5-1.5.5-1-3zm14 3l1.5 2.5-2-1 .5-1.5zm34 3l-1 2 1-2zm-34 1l.5 2.5h-1l.5-2.5zm5 0l-2 3-.5-2 2.5-1zm1 4l-1 2-2.5-.5 3.5-1.5z"/><path fill="#FFB97D" stroke="#FFB97D" d="M6.5 13L7 27.5l1 1-2 1L6.5 13zm47 0l1 2-1-2zm-43 6l.5 8.5h-1l.5-8.5zm11 12l-1 2 1-2zm-2 8l1 2-1-2z"/><path fill="#FFA457" stroke="#FFA457" d="M26.5 39l-1 2 1-2z"/><path fill="#FF952A" stroke="#FF952A" d="M17.5 24l1 5 1-1H27l.5 6 1-6 2 6 1-7 5 2 1-5 .5 5.5-1 5.5h-7.5l-1 1q-1.5-3.5-3-1-5.2-1.5-3.5 3l4-1-1.5 3-5.5-1.5q3.8-1.7.5-3.5l-1.5.5-.5-11.5zm2.5 5l-1 5q6 2 4-3l-3-2zM2 28q3.7-1.5 3 1.5L7.5 31l2.5-1.5-1 2 2 4-1.5-.5q-6.2 1.8-8-1l-1.5.5L2 28z"/><path fill="#FF952A" stroke="#FF952A" d="M11.5 28h2q3-.9 1.5 3.5l1 3.5q-6.4 2.3-4-5.5l-.5-1.5zM40 28q3-1.2 2 2.5l1 4.5q-5.2 2.1-4-2.5l1-4.5zm6 0h6.5l.5 1.5 1 4-1.5 1.5H45l1-7zm1 1l-1 3 2 2q4 1 2-3l-3-2z"/><path fill="#FF7906" stroke="#FF7906" d="M15 18q3-1 2 2-3 1-2-2zm7.5 13l.5 1.5-2 1 1.5-2.5zm-5 3l-1 2-5.5-.5 6.5-1.5zm-15 1l6.5.5-6.5.5v-1zm23 0l1.5 3.5h-1l-.5-3.5zm4 0l22.5.5-22.5.5v-1z"/></svg>