<svg xmlns="http://www.w3.org/2000/svg" role="img" viewBox="-69.95 -19.95 3637.40 2747.40"><title>MaterialX logo</title><path d="M0 1355v1305h3500V50H0v1305zM920.6 278.1c136.4 78.7 259.8 150 274.4 158.4 14.6 8.4 145.4 83.9 290.8 167.9C1631.1 688.3 1750.5 757 1751 757c.6 0 243.4-140 539.7-311 296.2-171.1 539-311 539.4-311 .4 0 123.1 70.6 272.6 156.9l271.8 157v1251.3L3102 1857.5l-272.5 157.4-3-1.8c-98.7-57.5-1075.3-620.5-1076-620.3-.5.2-243.4 140.3-539.8 311.4l-538.7 311-272.5-157.3L127 1700.5V449.2l271.8-157C548.2 205.8 671 135.1 671.6 135.1c.6-.1 112.7 64.3 249 143z"/><path d="M677 451.6c0 166.3.2 302.4.4 302.4.7 0 521.9-301 522.8-301.8.5-.6-127.3-74.6-500.3-289.9L677 149.1v302.5zm2013.5-225c-73.7 42.7-209.8 121.3-302.5 174.8-92.7 53.6-251.1 145-352 203.3-223.2 128.9-203.4 117.5-517.5 298.8-140.8 81.3-286.1 165.2-323 186.5-36.8 21.3-151.8 87.7-255.5 147.5-103.7 59.8-205.3 118.5-225.7 130.3l-37.3 21.5v305.5c0 246.8.2 305.3 1.3 304.9.7-.2 59.3-34 130.2-74.9 277.2-160.1 510.6-294.9 680.5-393 97.6-56.4 189.2-109.3 203.5-117.6 14.3-8.2 161.2-93 326.5-188.5 165.3-95.4 313.8-181.1 330-190.5 49.3-28.4 367-211.8 423.3-244.3l52.7-30.4V454.8c0-168.2-.1-305.8-.2-305.7-.2 0-60.6 34.9-134.3 77.5zM404.4 300.8c-143.7 82.9-260.9 151-260.5 151.3.7.8 522.2 301.9 522.8 301.9.1 0 .3-135.9.3-302s-.3-302-.7-302c-.5 0-118.3 67.9-261.9 150.8zM138 763.1c0 187.3.4 301.9.9 301.7 4-1.4 521.9-301.4 521.4-301.9-.5-.4-114.4-66.3-253.3-146.4-138.9-80.2-256.2-147.9-260.7-150.6l-8.3-4.8v302zm808-152c-142.7 82.5-260.5 150.5-261.7 151.2-1.9 1.1 22.8 15.6 259.4 152.2 143.9 83 262 151.1 262.4 151.3.5.2.9-133.2.9-302.2 0-166.4-.3-302.6-.7-302.5-.5 0-117.6 67.5-260.3 150zm271 151.8c0 166.2.3 302.1.6 302.1.4 0 118.1-67.8 261.6-150.7 209.1-120.7 260.7-150.8 259.6-151.8-.7-.7-116.9-68-258.3-149.6-141.3-81.5-258.5-149.1-260.2-150.2l-3.3-1.9v302.1zm-540 311.7c0 166.3.2 302.4.6 302.4.8 0 520.7-300.1 522.1-301.4 1.1-1-79-47.5-499.8-290.3L677 772.1v302.5zm1885.8-151.1c-193.4 111.6-261.3 151.3-260.5 152.1 2 1.8 521.9 301.6 522.3 301.1.2-.2.3-136.2.2-302.3l-.3-302-261.7 151.1zm-2157.8.1c-143.3 82.7-260.6 150.8-260.7 151.2-.2.5 518 300.5 521.9 302 .4.2.8-135.6.8-301.7 0-166.2-.3-302.1-.7-302.1-.5.1-118 67.8-261.3 150.6zm2430 498.5v578.1l3.3-2c1.7-1.1 31.1-18.1 65.2-37.7 69.2-40 218.8-126.4 361-208.5 51.7-29.9 95.2-55 96.7-55.9l2.8-1.6v-545.1l-259.7-150c-142.8-82.4-261.8-151.1-264.5-152.7l-4.8-2.7v578.1zm-808.5-189c-144.6 83.6-263.5 152.3-264.1 152.7-.6.4 119.3 70.2 266.5 155.1 147.2 85 386.3 223 531.5 306.8 145.1 83.8 264 152.3 264.2 152.3.2 0 .4-137.4.4-305.4v-305.3l-267-154.2c-146.8-84.7-267.3-154.1-267.7-154-.5 0-119.1 68.4-263.8 152zM138 1386.1c0 186.7.4 301.9.9 301.7 4-1.4 521.9-301.4 521.3-301.9-.4-.4-114.3-66.3-253.2-146.4-138.9-80.2-256.2-147.9-260.7-150.6l-8.3-4.8v302zm267 160.5c-143.3 82.7-260.6 150.8-260.8 151.2-.2.6 518.5 300.8 521.9 302 .5.2.9-121.5.9-301.7 0-166.2-.3-302.1-.7-302.1-.5.1-118 67.8-261.3 150.6z"/></svg>