<svg xmlns="http://www.w3.org/2000/svg" role="img" viewBox="-3.37 -3.49 175.24 50.87"><title>Maxon Computer GmbH logo</title><defs><style>.cls-1{isolation:isolate}</style></defs><g id="A_NEMETSCHEK_COMPANY" class="cls-1" data-name="A NEMETSCHEK COMPANY"><path d="M113.13 69.55h-2.24l-.46 1h-.62l1.91-4.2h.59l1.91 4.2h-.63zm-.21-.48L112 67l-.91 2.06zm7.75-2.67v4.2h-.49l-2.52-3.13v3.13h-.6v-4.2h.49l2.52 3.13V66.4zm4.61 3.68v.52h-3v-4.2h3v.52h-2.36v1.29h2.1v.51h-2.1v1.36zm5.16.52v-3.06l-1.52 2.55h-.28l-1.52-2.53v3h-.57V66.4h.45l1.75 2.95 1.73-2.95h.52v4.2zm5.19-.52v.52h-3v-4.2h3v.52h-2.36v1.29h2.1v.51h-2.1v1.36zm2.1-3.16h-1.44v-.52h3.47v.52h-1.43v3.68h-.6zM141 70.5a2 2 0 0 1-.69-.38l.22-.47a1.94 1.94 0 0 0 .62.35 2.28 2.28 0 0 0 .77.14 1.36 1.36 0 0 0 .78-.18.56.56 0 0 0 .26-.47.47.47 0 0 0-.14-.35 1 1 0 0 0-.35-.21c-.14-.05-.34-.1-.59-.16a6 6 0 0 1-.76-.23 1.26 1.26 0 0 1-.5-.35.93.93 0 0 1-.21-.64 1.09 1.09 0 0 1 .18-.61 1.25 1.25 0 0 1 .54-.43 2.12 2.12 0 0 1 .89-.16 2.57 2.57 0 0 1 .73.1 1.85 1.85 0 0 1 .62.27l-.2.48a2.18 2.18 0 0 0-.56-.25 2.06 2.06 0 0 0-.59-.09 1.23 1.23 0 0 0-.76.19.56.56 0 0 0-.26.48.45.45 0 0 0 .15.35.93.93 0 0 0 .35.21c.14 0 .34.1.58.16a5.7 5.7 0 0 1 .76.22 1.37 1.37 0 0 1 .5.35.92.92 0 0 1 .2.63 1.1 1.1 0 0 1-.17.61 1.34 1.34 0 0 1-.55.43 2.34 2.34 0 0 1-.9.16 2.86 2.86 0 0 1-.92-.15zm4.43-.13a2 2 0 0 1-.79-.77 2.06 2.06 0 0 1-.29-1.1 2.1 2.1 0 0 1 1.08-1.87 2.46 2.46 0 0 1 2-.11 1.83 1.83 0 0 1 .7.48l-.39.38a1.58 1.58 0 0 0-1.18-.5 1.76 1.76 0 0 0-.85.21 1.56 1.56 0 0 0-.59.58 1.65 1.65 0 0 0-.21.83 1.61 1.61 0 0 0 .21.82 1.5 1.5 0 0 0 .59.58 1.76 1.76 0 0 0 .85.21 1.58 1.58 0 0 0 1.18-.5l.39.38a1.85 1.85 0 0 1-.7.49 2.37 2.37 0 0 1-.9.17 2.4 2.4 0 0 1-1.1-.28zm7.41-3.97v4.2h-.6v-1.87h-2.41v1.87h-.6v-4.2h.6v1.8h2.41v-1.8zm4.41 3.68v.52h-3.05v-4.2h3v.52h-2.4v1.29h2.11v.51h-2.11v1.36zm2.64-1.35l-.77.78v1.09h-.6v-4.2h.6v2.34l2.28-2.34h.68l-1.79 1.89 1.91 2.31h-.7zm5.9 1.64a2 2 0 0 1-.79-.77 2.06 2.06 0 0 1-.29-1.1 2.1 2.1 0 0 1 1.08-1.87 2.29 2.29 0 0 1 1.14-.28 2.37 2.37 0 0 1 .9.17 1.9 1.9 0 0 1 .7.48l-.39.38a1.58 1.58 0 0 0-1.18-.5 1.7 1.7 0 0 0-.85.21 1.56 1.56 0 0 0-.59.58 1.65 1.65 0 0 0-.21.83 1.61 1.61 0 0 0 .21.82 1.5 1.5 0 0 0 .59.58 1.7 1.7 0 0 0 .85.21 1.59 1.59 0 0 0 1.18-.5l.39.38a1.93 1.93 0 0 1-.7.49 2.46 2.46 0 0 1-2-.11zm4.36 0a2.12 2.12 0 0 1-.8-.77 2.09 2.09 0 0 1-.3-1.1 2.12 2.12 0 0 1 1.1-1.87 2.46 2.46 0 0 1 2.28 0 2 2 0 0 1 .8.77 2.12 2.12 0 0 1 .29 1.1 2.15 2.15 0 0 1-.29 1.1 2 2 0 0 1-.8.77 2.46 2.46 0 0 1-2.28 0zm2-.47a1.56 1.56 0 0 0 .59-.58 1.61 1.61 0 0 0 .21-.82 1.56 1.56 0 0 0-.8-1.41 1.63 1.63 0 0 0-.83-.21 1.65 1.65 0 0 0-.83.21 1.56 1.56 0 0 0-.59.58 1.65 1.65 0 0 0-.21.83 1.61 1.61 0 0 0 .21.82 1.5 1.5 0 0 0 .59.58 1.65 1.65 0 0 0 .83.21 1.63 1.63 0 0 0 .8-.21zm6.18.7v-3.06l-1.52 2.55h-.28L175 67.56v3h-.57V66.4h.49l1.75 2.95 1.73-2.95h.49v4.2zm4.86-3.81a1.46 1.46 0 0 1 0 2.15 2 2 0 0 1-1.29.39h-1v1.27h-.6v-4.2h1.63a2 2 0 0 1 1.26.39zm-.43 1.77a.84.84 0 0 0 .3-.7.87.87 0 0 0-.3-.7 1.37 1.37 0 0 0-.87-.24h-1v1.88h1a1.37 1.37 0 0 0 .87-.24zm4.24.99h-2.23l-.46 1h-.62l1.9-4.2h.6l1.91 4.2h-.63zm-.21-.48l-.9-2.06-.89 2.06zm5.84-2.67v4.2h-.49l-2.52-3.13v3.13H189v-4.2h.49l2.51 3.13V66.4zm3.17 2.75v1.45h-.59v-1.47l-1.67-2.73h.64l1.34 2.21 1.35-2.21h.6z" transform="translate(-44.48 -29.87)" class=""/></g><path fill="#d32027" d="M38.04 10.98l-19-11-19 11v22h.05l19 11v-.05.09l19-11zm-1.59.86l-17.43 9.72-17.41-9.73L19.02 1.77zM16.16 40.51l-9.73-5.68V21.56l12.55 7 12.58-7v13.27l-7.61 4.44-4.93 2.86z"/><path d="M62.6 29.6h-3.72l-5.44-8.88-.01 9.12h-4.2v-15.7h4.44l7.18 11.58 7.19-11.58h4.32v15.7h-4.32v-9.12L62.6 29.6z"/><path d="M98.52 29.84l-9.47-15.71h-4.79l-9.48 15.7h4.95L81.4 27h10.43l1.69 2.84zm-15.06-6.32l3.13-5.3 3.16 5.3z"/><path d="M168.52 29.83h-4.36L152.87 19.6l-.01 10.23h-4.35V14.14h4.36l11.29 10.27V14.14h4.37l-.01 15.69z"/><path d="M123.39 19.36a5 5 0 0 1 1.58-3.67 5.93 5.93 0 0 1 4.29-1.56h9.65a5.83 5.83 0 0 1 4.29 1.55 4.87 4.87 0 0 1 1.58 3.64v5.32a5 5 0 0 1-1.59 3.61 5.84 5.84 0 0 1-4.28 1.58h-9.65a5.9 5.9 0 0 1-4.28-1.58 5 5 0 0 1-1.59-3.65zm14.41 6.93a2.84 2.84 0 0 0 1.91-.65 2.1 2.1 0 0 0 .74-1.7v-4a2.17 2.17 0 0 0-.74-1.71 2.71 2.71 0 0 0-1.9-.65h-7.43a2.72 2.72 0 0 0-1.9.65 2.35 2.35 0 0 0-.74 1.71v4.05a2.07 2.07 0 0 0 .74 1.66 2.81 2.81 0 0 0 1.9.65z"/><path d="M121.52 14.14h-6.06l-4.97 4.87-4.98-4.87h-6.06l8.01 7.84-8.01 7.85h6.06l4.98-4.87 4.97 4.87h6.06l-8-7.85 8-7.84z"/></svg>