<svg xmlns="http://www.w3.org/2000/svg" role="img" viewBox="5.51 5.51 311.74 311.74"><title>Maya Reticle logo</title><path fill="#060606" stroke="#060606" d="M12 11h300v298.5l-1.5 1.5h-297l-1.5-1.5V11zm10 50v87h54v33H22v120h121v-56h32v56h87V61H22z"/><path fill="#060606" stroke="#060606" d="M111 147h64v65h-32v-32h-32v-33z"/><path fill="#FEFEFE" stroke="#FEFEFE" d="M14.5 8l.5 2h288.5l1-1 1.5.5.5-1.5.5 2 3-.5-2-1 1.5-.5 2.5 1-.5 2h-299q-2.7 1.3-.5 2.5L10.5 16l-1-2 1.5.5-1-2 .5-1.5-1.5-.5L11.5 9l2.5 1 .5-2zm243 53l1 2 2.5-.5.5-1.5.5 240h-87v-55.5q-1.2-2.8-2.5-.5-3.3 1.1-2.5-1.5l4-3-1 2 3 3V298h80.5l4 2 .5-2-4-1.5 1.5.5 2.5-.5v-232l-1.5-1.5-3.5.5 1.5-2.5zM177 299v1h80l-80-1zM73.5 144l1.5 2.5h-1l-.5-1.5-1.5.5 1.5-1.5zm6 0l-.5 1.5-.5 1.5-.5-1.5 1.5-1.5zm27 0l1 2-1-2zm3 0l2.5.5-.5 2.5-1.5-.5 1 2-2 1v-2l1-2-.5-1.5zm62 0l1 2-1-2zm3 0l1.5 3.5v64l-1 1 .5 1.5-1.5-.5 1 2-2.5.5-2-2-2.5-1.5 1.5.5 2-1 1 3 2.5-3.5v-64l-.5-3.5zm-163 1l-.5 1.5 1 4.5-2-.5 1-2-1-2 1.5-1.5zm11 0q2.3-.7 1.5 1.5l-2 1 .5-2.5zm82 0l4.5 6.5-3.5-.5-1.5-.5v-2l1-2-.5-1.5zm1.5 2v4h1l-1-4zm-30 1l2 .5-.5 1.5 2-1v3l-2.5-.5-1-3.5zM9.5 176l2.5 3.5-2 .5-.5-4zm69 0l1 2h-2l-1.5-.5 2.5-1.5zm26 0l2.5.5-.5 1.5 2-1 1 3 1-4 .5 3.5-1 1 1.5 2.5-2.5-1.5 1 2-2-1-.5-1.5-1 2-2.5-.5 4-3-3.5-3.5zm-28 3h2l1.5.5-2 1 2 3-2.5.5-2-2-2 2-1.5-1.5.5-1.5 1 2q1.8-3.1 3.5-1.5l-.5-2.5zm-68 1l1 2-1-2zm127.5 0l3.5 1 3.5-.5v2l-.5 1.5-2-3-.5 1.5.5 1.5h-2l-2.5-2.5V180zm-113.5 1q3 1.5 0 3v-3zm114 27l2.5.5-.5 1.5 2-1 1 3 1-4 .5 3.5-1 1 1.5 2.5-2.5-1.5 1 2-2-1-.5-1.5-1 2-2.5-.5 4-3-3.5-3.5zm2 32l1 2 1.5-.5q-2.2 1.3.5 2.5l1.5-2.5-.5-1.5q2.8 1.3.5 2.5l1 2-3 1 1 2-2.5.5q-2.2.8-1.5-1.5h-2l2-4 .5-2.5zm.5 3l-2 2 3 2-1-4zm29.5-3l2.5.5-2.5 4.5-.5-2.5.5-2.5zm-146 56l2 2 112.5.5-113 1 113.5.5h2l2.5-.5-4-3 3 1 .5-1.5q2.5 1.2 1.5 5l-121-.5.5-4.5zM10 306l2 .5-2.5 3.5-1-2q2.6.7 1.5-2zm1.5 3l1 2-2 1 .5-1.5.5-1.5zm300 1l-1 2 1-2z"/><path fill="#FFF" stroke="#FFF" d="M0 0h321v322H0V0zm15 8q0 3-2 2l-2 4 1 2v131l-2 4h2v25l-1 1 1 2h-2l2 3v124h-2v2h2l-1 3 4 1 1-1h292l3 1 1-1V9l-5 1V8l-1 2-1-1-1 1H15V8zM9 308l1 2q1-3-1-2z"/><path fill="#FFF" stroke="#FFF" d="M22.5 61h234l.5 1.5h1q-.8-3 3-1.5l-1 2.5 1 1V297l-3 .5 3 .5-.5 2-3-1-1 1h-80v-1l80.5-.5-81-.5v-52.5l-1.5-1.5h-2l-2-1-1 2-1-3-.5 3h-23.5l-1-1q-2.7 1.3-.5 2.5l-.5 50.5-1.5-.5-1 2 2 1-2.5.5h-115l-1-1-1.5.5v-115l1-1q-2.2-1.3.5-2.5h48l.5 1.5h1q-.7-2.2 1.5-1.5l1.5.5 1-2-.5-1.5 1.5-.5-2-.5v-26.5l2-2-54.5-.5-1.5-1.5h2V145l-2-.5v-82l.5-1.5zm89.5 85l-2 3 1 2v25l-1 1 1 3h25l1 2 3-2h2q2 1 0 3l1 2v23l-1 4h26l1 1 2-1h2l2 1 1-1v-64q-1-3-2-1h-61l-1-1zm-4 2l-1 3h1v-3zm-2 1l-2 2h2v-2zm-29 1v2l2-1-2-1zm1 30l-1 2 2 1-1-3zm29 0q-3 2 0 3l1-2-1-1zm32 1l1 2q1-3-1-2zm0 31q-3 2 0 3l1-2-1-1zm0 28v5l2-1-2-4zm34 1l-2 2h2v-2zm-34 5q-2 3 1 2l-1-2zM25 298v1h112l-112-1z"/></svg>