<svg xmlns="http://www.w3.org/2000/svg" role="img" viewBox="-1.05 5.95 352.10 470.60"><title>Maya Reticle logo</title><path d="M286.724 349.085l-.007-278.544H8.174V15.07h334.02v334.015h-55.47z"/><path d="M8.174 15.07h10.691v334.011H8.174z"/><path d="M10.508 338.391h331.686v10.694H10.508zm143.623-99.561h35.699v-71.398h-71.398v35.698h35.699v35.7z"/><path d="M154.131 276.649v71.054l35.697.003v-3.761l.002-67.296h-35.699zM8.116 168.39h71.055v35.699H8.116zM41.58 416.504h11.817v39.302h-7.652v-26.584q0-1.145.026-3.213.026-2.066.027-3.186l-7.448 32.983h-7.982l-7.394-32.983q0 1.12.026 3.187.026 2.066.027 3.212v26.584h-7.653v-39.302h11.95l7.155 30.903zm30.314 21.625a12.026 12.026 0 0 0 3.036-.667 2.286 2.286 0 0 0 1.638-2.16 2.554 2.554 0 0 0-1.257-2.466 7.945 7.945 0 0 0-3.689-.681q-2.73 0-3.865 1.334a5.496 5.496 0 0 0-1.081 2.666h-7.333a11.117 11.117 0 0 1 2.143-6.266q3.025-3.84 10.39-3.84a18.533 18.533 0 0 1 8.516 1.893q3.722 1.894 3.722 7.147v13.332q0 1.387.053 3.359a4.219 4.219 0 0 0 .454 2.026 2.712 2.712 0 0 0 1.12.88v1.12h-8.266a8.478 8.478 0 0 1-.48-1.653q-.134-.773-.213-1.76a15.688 15.688 0 0 1-3.648 2.906 11.018 11.018 0 0 1-5.579 1.414 9.626 9.626 0 0 1-6.557-2.253 8.01 8.01 0 0 1-2.588-6.386q0-5.36 4.163-7.76a18.61 18.61 0 0 1 6.716-1.866zm4.647 3.546a8.362 8.362 0 0 1-1.473.733 12.494 12.494 0 0 1-2.04.52l-1.73.32a11.352 11.352 0 0 0-3.493 1.04 3.47 3.47 0 0 0-1.796 3.225 3.37 3.37 0 0 0 1.097 2.814 4.163 4.163 0 0 0 2.666.866 7.942 7.942 0 0 0 4.59-1.44q2.098-1.44 2.179-5.252zM91.9 461.38l.96.052a12.01 12.01 0 0 0 2.133-.08 3.825 3.825 0 0 0 1.706-.613 4.106 4.106 0 0 0 1.24-1.893 4.586 4.586 0 0 0 .494-1.76l-10.68-30.343h8.453l6.346 21.437 6-21.437h8.079l-9.965 28.584q-2.887 8.265-4.57 10.252-1.681 1.986-6.726 1.986-1.014 0-1.628-.013-.615-.014-1.842-.093zm40.735-23.251a12.026 12.026 0 0 0 3.035-.667 2.286 2.286 0 0 0 1.638-2.16 2.554 2.554 0 0 0-1.256-2.466 7.945 7.945 0 0 0-3.69-.681q-2.73 0-3.865 1.334a5.496 5.496 0 0 0-1.081 2.666h-7.333a11.117 11.117 0 0 1 2.143-6.266q3.026-3.84 10.39-3.84a18.533 18.533 0 0 1 8.516 1.893q3.722 1.894 3.722 7.147v13.332q0 1.387.054 3.359a4.219 4.219 0 0 0 .453 2.026 2.712 2.712 0 0 0 1.12.88v1.12h-8.266a8.477 8.477 0 0 1-.48-1.653q-.134-.773-.213-1.76a15.688 15.688 0 0 1-3.648 2.907 11.018 11.018 0 0 1-5.579 1.413 9.626 9.626 0 0 1-6.557-2.253 8.01 8.01 0 0 1-2.588-6.386q0-5.36 4.163-7.76a18.61 18.61 0 0 1 6.716-1.866zm4.646 3.546a8.362 8.362 0 0 1-1.473.733 12.494 12.494 0 0 1-2.04.52l-1.73.32a11.353 11.353 0 0 0-3.493 1.04 3.47 3.47 0 0 0-1.796 3.225 3.37 3.37 0 0 0 1.097 2.814 4.163 4.163 0 0 0 2.667.866 7.942 7.942 0 0 0 4.589-1.44q2.098-1.44 2.18-5.252zm55.184-24.158a9.701 9.701 0 0 1 3.68 2.746 12.235 12.235 0 0 1 1.975 3.307 11.028 11.028 0 0 1 .728 4.133 11.782 11.782 0 0 1-1.413 5.506 7.896 7.896 0 0 1-4.666 3.826 7.345 7.345 0 0 1 3.853 3.106 12.935 12.935 0 0 1 1.133 6.147v2.64a19.865 19.865 0 0 0 .217 3.652 3.282 3.282 0 0 0 1.516 2.24v.986h-9.065q-.374-1.306-.533-2.106a19.32 19.32 0 0 1-.347-3.387l-.053-3.652q-.05-3.76-1.3-5.013-1.248-1.254-4.678-1.254h-8.02v15.412h-8.027v-39.302h18.799a17.13 17.13 0 0 1 6.201 1.013zm-16.974 5.813v10.558h8.838a9.403 9.403 0 0 0 3.95-.64q2.33-1.12 2.33-4.426 0-3.573-2.253-4.799a8.148 8.148 0 0 0-3.799-.693zm49.549 4.002a11.825 11.825 0 0 1 5.023 4.299 14.29 14.29 0 0 1 2.316 6.008 37.136 37.136 0 0 1 .25 5.769H211.46q.177 4.372 3.04 6.133a7.72 7.72 0 0 0 4.19 1.093 5.903 5.903 0 0 0 5.783-3.333h7.758a9.485 9.485 0 0 1-2.817 5.252q-3.905 4.24-10.934 4.24a15.841 15.841 0 0 1-10.237-3.575q-4.436-3.578-4.436-11.637 0-7.551 4.004-11.581a14.012 14.012 0 0 1 10.394-4.03 16.541 16.541 0 0 1 6.835 1.362zm-11.367 6.564a7.89 7.89 0 0 0-2.025 4.5h13.092a6.343 6.343 0 0 0-2.024-4.594 6.658 6.658 0 0 0-4.507-1.567 6.024 6.024 0 0 0-4.536 1.661zm19.812-1.474v-5.413h4.054v-8.106h7.519v8.106h4.72v5.413h-4.72v15.359a3.46 3.46 0 0 0 .453 2.226q.454.44 2.773.44c.23 0 .476-.004.734-.014.257-.008.51-.021.76-.04v5.68l-3.6.134q-5.387.186-7.36-1.867a5.554 5.554 0 0 1-1.279-4.027v-17.891zm28.984-9.146h-7.705v-7.013h7.705zm-7.705 3.467h7.705v29.063h-7.705zm32.45 10.426a6.752 6.752 0 0 0-1.096-2.934 4.603 4.603 0 0 0-3.983-1.76 5.244 5.244 0 0 0-5.266 3.814 15.824 15.824 0 0 0-.748 5.372 14.55 14.55 0 0 0 .748 5.133 5.083 5.083 0 0 0 5.132 3.627 4.53 4.53 0 0 0 3.796-1.44 7.157 7.157 0 0 0 1.363-3.733h7.759a12.697 12.697 0 0 1-2.509 6.558q-3.577 4.987-10.596 4.987-7.02 0-10.329-4.16-3.31-4.16-3.31-10.786 0-7.478 3.657-11.638 3.656-4.159 10.089-4.16a15.202 15.202 0 0 1 8.955 2.454q3.482 2.453 4.123 8.666zm20.744 18.637h-7.6v-39.302h7.6zm26.352-28.474a11.825 11.825 0 0 1 5.022 4.299 14.289 14.289 0 0 1 2.315 6.008 37.134 37.134 0 0 1 .25 5.769H320.73q.178 4.372 3.04 6.133a7.72 7.72 0 0 0 4.19 1.093 5.903 5.903 0 0 0 5.784-3.333h7.758a9.485 9.485 0 0 1-2.818 5.252q-3.905 4.24-10.933 4.24a15.841 15.841 0 0 1-10.237-3.575q-4.436-3.578-4.436-11.637 0-7.551 4.004-11.581a14.012 14.012 0 0 1 10.393-4.03 16.541 16.541 0 0 1 6.835 1.362zm-11.369 6.564a7.89 7.89 0 0 0-2.024 4.5h13.092a6.343 6.343 0 0 0-2.025-4.594 6.658 6.658 0 0 0-4.507-1.567 6.024 6.024 0 0 0-4.536 1.661z"/></svg>