<svg xmlns="http://www.w3.org/2000/svg" role="img" viewBox="-68.75 -68.75 3445.00 2552.50"><title>Meshroom logo</title><defs id="defs4"><style id="style2">.cls-6{fill:#0071bc}.cls-7{fill:#fff}.cls-4{fill:#3dbff6}</style></defs><path id="rect6" fill="#0071bc" stroke="#000" stroke-miterlimit="10" d="M0 0h2418.044v2418.044H0z"/><g id="text10" fill="#fff" transform="translate(192.657 2018.793)"><path id="path49" fill="#fff" d="M416.5583 0h-54.04885v-350.22562L249.49822-111.91933h-32.21093L105.09498-350.22562V0H54.5948v-406.45826h73.70297l108.37067 226.29543 104.82201-226.29543h75.06785z"/><path id="path51" d="M599.10985 0H331.32237v-406.45826h267.78748v48.04342H385.37122v111.37338h213.73863v48.04343H385.37122v150.9546h213.73863z"/><path id="path53" d="M980.45451-116.01394q0 23.74873-11.19193 46.95152-10.91896 23.2028-30.84606 39.30826-21.83792 17.47033-51.04614 27.2974-28.93524 9.82706-69.88134 9.82706-43.94881 0-79.16245-8.18922-34.94067-8.18922-71.24621-24.29469v-67.69754h3.82163q30.84606 25.65955 71.24621 39.58122 40.40015 13.92168 75.88677 13.92168 50.22721 0 78.07056-18.8352 28.11632-18.83521 28.11632-50.22722 0-27.02443-13.37573-39.8542-13.10275-12.82978-40.12717-19.9271-20.47305-5.45948-44.49476-9.00815-23.74874-3.54866-50.50019-9.00814-54.04885-11.4649-80.25435-39.03528-25.93253-27.84334-25.93253-72.3381 0-51.04614 43.12989-83.53004 43.12989-32.75688 109.46257-32.75688 42.85691 0 78.61651 8.18922 35.75959 8.18922 63.32996 20.20007v63.87592h-3.82164q-23.20278-19.65413-61.14617-32.48391-37.67041-13.10275-77.25164-13.10275-43.40286 0-69.88134 18.01628-26.2055 18.01629-26.2055 46.40558 0 25.38658 13.10275 39.8542t46.13261 22.1109q17.47033 3.82163 49.68126 9.28111 32.21093 5.45948 54.5948 11.19193 45.31368 12.01086 68.24349 36.30554 22.92982 24.29469 22.92982 67.97053z"/><path id="path55" d="M1378.1776 0h-54.0488v-198.99803h-202.8197V0h-54.0489v-406.45826h54.0489v159.4168h202.8197v-159.4168h54.0488z"/><path id="path57" d="M1823.9442 0h-70.1543l-135.9411-161.6006h-76.1597V0h-54.0489v-406.45826h113.8302q36.8515 0 61.4191 4.91353 24.5677 4.64056 44.2218 16.92439 22.1109 13.92167 34.3947 35.21364 12.5568 21.019 12.5568 53.5029 0 43.94881-22.1108 73.70298-22.1109 29.48119-60.8732 44.49476zm-126.387-292.08216q0-17.47034-6.2784-30.84606-6.0054-13.6487-20.2-22.92982-11.7379-7.91624-27.8434-10.91896-16.1055-3.27569-37.9434-3.27569h-63.6029v153.41138h54.5948q25.6595 0 44.7677-4.36758 19.1082-4.64056 32.4839-16.92439 12.2839-11.4649 18.0163-26.2055 6.0054-15.01357 6.0054-37.94338z"/><path id="path59" d="M2179.3562-359.77971q24.8406 27.2974 37.9434 66.87862 13.3757 39.58123 13.3757 89.80845 0 50.22721-13.6487 90.08141-13.3757 39.58123-37.6704 66.0597-25.1136 27.57038-59.5083 41.49205-34.1218 13.92167-78.0706 13.92167-42.8569 0-78.0705-14.19464-34.9407-14.19465-59.5084-41.21908-24.5676-27.02442-37.9434-66.33267-13.1027-39.30826-13.1027-89.80844 0-49.68127 13.1027-88.98952 13.1028-39.58123 38.2164-67.69755 24.0217-26.75145 59.5083-40.9461 35.7596-14.19465 77.7976-14.19465 43.6759 0 78.3435 14.46762 34.9407 14.19465 59.2354 40.67313zm-4.9135 156.68707q0-79.16246-35.4866-122.01938-35.4867-43.12989-96.9058-43.12989-61.9651 0-97.4517 43.12989-35.2137 42.85692-35.2137 122.01938 0 79.98137 36.0326 122.56531 36.0326 42.31097 96.6328 42.31097t96.3598-42.31097q36.0326-42.58394 36.0326-122.56531z"/><path id="path61" d="M2619.3904-359.77971q24.8406 27.2974 37.9434 66.87862 13.3757 39.58123 13.3757 89.80845 0 50.22721-13.6487 90.08141-13.3757 39.58123-37.6704 66.0597-25.1136 27.57038-59.5083 41.49205-34.1218 13.92167-78.0706 13.92167-42.8569 0-78.0706-14.19464-34.9406-14.19465-59.5083-41.21908-24.5677-27.02442-37.9434-66.33267-13.1027-39.30826-13.1027-89.80844 0-49.68127 13.1027-88.98952 13.1028-39.58123 38.2164-67.69755 24.0217-26.75145 59.5083-40.9461 35.7596-14.19465 77.7976-14.19465 43.6758 0 78.3435 14.46762 34.9407 14.19465 59.2354 40.67313zm-4.9135 156.68707q0-79.16246-35.4867-122.01938-35.4866-43.12989-96.9057-43.12989-61.9651 0-97.4517 43.12989-35.2137 42.85692-35.2137 122.01938 0 79.98137 36.0326 122.56531 36.0325 42.31097 96.6328 42.31097 60.6002 0 96.3598-42.31097 36.0326-42.58394 36.0326-122.56531z"/><path id="path63" d="M3118.3867 0h-54.0488v-350.22562l-113.0113 238.30629h-32.2109l-112.1923-238.30629V0h-50.5002v-406.45826h73.703l108.3706 226.29543 104.8221-226.29543h75.0678z"/></g><path id="path12" d="M1445.82151 417.98715H972.22213l236.79969 409.59949h473.59938z" class="cls-4"/><path id="path14" fill="#208fcc" d="M735.42241 827.58664l236.79972-409.59949 236.79969 409.59949-236.79969 409.59946z"/><path id="path16" d="M735.42241 827.58664h473.59941l236.79969 409.59946H972.22213z" class="cls-4"/><path id="path18" d="M1445.82151 417.98715l-236.79969 409.59949 236.79969 409.59946 236.79969-409.59946z" class="cls-6"/><path id="path20" d="M1599.42135 968.38645l-121.59988-204.79973-70.39987 127.99984 115.1998 204.79973z" class="cls-7"/><ellipse id="ellipse22" cx="1497.021" cy="949.186" class="cls-6" rx="12.8" ry="19.2"/><circle id="circle24" cx="735.422" cy="827.587" r="38.4" class="cls-7"/><circle id="circle26" cx="1209.022" cy="827.587" r="38.4" class="cls-7"/><circle id="circle28" cx="972.222" cy="1237.186" r="38.4" class="cls-7"/><circle id="circle30" cx="1445.822" cy="1237.186" r="38.4" class="cls-7"/><circle id="circle32" cx="972.222" cy="417.987" r="38.4" class="cls-7"/><circle id="circle34" cx="1445.822" cy="417.987" r="38.4" class="cls-7"/><circle id="circle36" cx="1682.621" cy="827.587" r="38.4" class="cls-7"/><path id="path38" d="M1215.42184 840.38661h-499.1994l249.59967-435.19944h499.19939zm-454.39946-25.59994h441.59945l223.99969-383.99954H978.62211z" class="cls-7"/><path id="path40" d="M1452.22153 1249.98613H965.82211L729.02242 833.98665l19.2-12.8 230.39971 403.19948h460.79945l223.99971-396.79949-230.39975-403.19949 19.2-12.8 243.1997 415.99948z" class="cls-7"/><path id="rect42" d="M1312.019 796.126h25.599v473.58h-25.599z" class="cls-7" transform="rotate(-30.068 1324.818 1032.916)"/></svg>