<svg xmlns="http://www.w3.org/2000/svg" role="img" viewBox="-73.65 -73.65 3699.80 2539.80"><title>Meshroom logo</title><defs><style>.cls-6{fill:#0071bc}.cls-2{isolation:isolate}.cls-3{fill:#fff}.cls-4{fill:#3dbff6}</style></defs><path fill="#0071bc" stroke="#000" stroke-miterlimit="10" d="M.5.5h3555.698v2394.519H.5z"/><g class="cls-2"><g class="cls-2"><path d="M814.83788 2001.93987v-380.1543c0-3.7207 1.86084-5.59082 5.59082-5.59082h6.7085q4.46777 0 6.14941 4.47265l70.99951 177.77832c.3667 1.11817.92578 1.58985 1.67725 1.39747a2.493 2.493 0 0 0 1.67724-1.39747l72.67627-177.77832c1.11817-2.97851 3.16211-4.47265 6.14991-4.47265h6.70849c3.72119 0 5.59033 1.87012 5.59033 5.59082v380.1543q0 5.59569-5.59033 5.59082H987.585q-5.595 0-5.59082-5.59082v-341.02051c0-1.11817-.37549-1.76465-1.11816-1.957-.751-.1836-1.31006.27929-1.67676 1.39746L913.79 1823.04436c-1.11817 2.9873-3.1709 4.47168-6.14942 4.47168h-.55908c-2.9873 0-5.03174-1.48438-6.1499-4.47168l-66.52686-162.68457a1.8012 1.8012 0 0 0-1.67724-1.11817c-.751 0-1.11817.55957-1.11817 1.67774v341.02051q0 5.59569-5.59033 5.59082h-5.5903q-5.59497 0-5.59082-5.59082z" class="cls-3"/></g><g class="cls-2"><path d="M1246.98192 1631.849h-136.40869a1.97746 1.97746 0 0 0-2.23633 2.23536v167.71582a1.97465 1.97465 0 0 0 2.23633 2.23632h89.44824q5.58178 0 5.59034 5.58985v3.91406q0 5.59424-5.59034 5.58984h-89.44824a1.97815 1.97815 0 0 0-2.23633 2.23633V1989.641a1.97427 1.97427 0 0 0 2.23633 2.23633h136.40869q5.58178 0 5.59033 5.59082v4.47168q0 5.59569-5.59033 5.59082h-149.82568q-5.595 0-5.59082-5.59082v-380.1543c0-3.7207 1.86084-5.59082 5.59082-5.59082h149.82568c3.72119 0 5.59033 1.87012 5.59033 5.59082v4.47265q0 5.59429-5.59033 5.59082zm89.72508 353.59965q-23.20531-26.54736-23.20068-70.16113v-10.62207q0-5.58252 5.59033-5.59082h5.03174q5.58179 0 5.59033 5.59082v10.06255q0 36.89795 18.72851 59.53906 18.72365 22.64209 48.35791 22.64161 29.625 0 49.19629-21.80274 19.56226-21.80274 19.5669-57.02344 0-22.916-8.94483-39.69238a102.61534 102.61534 0 0 0-22.08252-28.51172q-13.14257-11.74072-43.32666-34.10254-28.51171-21.80273-43.60595-36.33789a121.68909 121.68909 0 0 1-24.59815-33.543q-9.51268-18.999-9.5039-45.2832 0-41.36573 22.6416-65.12891 22.64136-23.75536 57.86181-23.75976 38.01123 0 61.21582 26.834 23.19214 26.83447 23.20069 70.44043v13.97648q0 5.59425-5.59033 5.58985h-5.03174q-5.59423 0-5.59033-5.58985v-13.417q0-37.44873-18.728-60.09863-18.73681-22.64062-49.47608-22.6416-27.96167 0-45.84228 19.56738-17.89819 19.57471-17.88965 55.3457 0 20.68945 7.26758 36.0586a98.06018 98.06018 0 0 0 21.24414 28.791q13.96728 13.418 41.36963 33.543 32.97949 24.60792 48.917 39.41309a108.746 108.746 0 0 1 24.31885 32.14551q8.38549 17.335 8.38574 42.48828 0 44.16943-23.48 70.999-23.48071 26.83448-60.937 26.835-37.46045.00001-60.65677-26.55468zm374.28176-369.2539h5.59082c3.7207 0 5.58984 1.87012 5.58984 5.59082v380.1543q0 5.59569-5.58984 5.59082h-5.59082q-5.59424 0-5.59082-5.59082v-180.57325a1.98148 1.98148 0 0 0-2.23633-2.23633h-124.668a1.978 1.978 0 0 0-2.23633 2.23633v180.57325q0 5.59569-5.59082 5.59082h-5.58984q-5.59571 0-5.59082-5.59082v-380.1543c0-3.7207 1.86035-5.59082 5.59082-5.59082h5.58984c3.72168 0 5.59082 1.87012 5.59082 5.59082v180.01465a1.97446 1.97446 0 0 0 2.23633 2.23632h124.668a1.978 1.978 0 0 0 2.23633-2.23632v-180.01465c0-3.7207 1.86133-5.59082 5.59082-5.59082zm261.63281 386.86325l-67.08594-183.92774a2.19351 2.19351 0 0 0-2.23632-1.67675h-63.73145a1.978 1.978 0 0 0-2.23633 2.23633v182.25q0 5.59569-5.58984 5.59082h-5.59082q-5.5957 0-5.59082-5.59082V1620.6674q0-5.58105 5.59082-5.58984h79.38476q37.44873 0 60.09864 27.95215 22.64063 27.96093 22.6416 73.79492 0 39.7002-17.33106 65.96777-17.335 26.28371-47.51953 32.9834c-1.49316.752-2.05273 1.67774-1.67676 2.7959l67.08594 182.80957.5586 2.23633q0 3.917-5.03125 3.91309h-5.03125q-5.03175 0-6.70899-4.47269zm-135.29-370.0918v167.15625a1.97446 1.97446 0 0 0 2.23633 2.23633h65.4091q30.189 0 48.35742-23.47949 18.16113-23.48 18.16992-62.05469 0-38.5752-18.16992-62.335-18.17284-23.75391-48.35742-23.75879h-65.40918a1.97765 1.97765 0 0 0-2.23629 2.23542zm234.79391 354.15921q-24.044-24.86865-24.03907-65.12988v-219.707q0-40.251 24.03907-65.40821 24.03075-25.15722 62.05468-25.15722 38.57373 0 62.89356 25.15722 24.31786 25.15724 24.31836 65.40821v219.707q0 40.25244-24.31836 65.12988-24.31934 24.88183-62.89356 24.87793-38.0244 0-62.05468-24.87793zm112.92773-11.18066q19.563-20.40234 19.56738-52.83106v-221.94238q0-32.417-19.56738-53.11035-19.5747-20.67627-50.87305-20.68457-30.75292 0-50.03515 20.68457-19.2876 20.68945-19.28711 53.11035v221.94238q0 32.43018 19.28711 52.83106 19.2876 20.41405 50.03515 20.40527 31.30225-.00002 50.87305-20.40527zm136.4082 11.18066q-24.04394-24.86865-24.03906-65.12988v-219.707q0-40.251 24.03906-65.40821 24.03077-25.15722 62.05469-25.15722 38.57373 0 62.89356 25.15722 24.31786 25.15724 24.31836 65.40821v219.707q0 40.25244-24.31836 65.12988-24.31934 24.88183-62.89356 24.87793-38.02441 0-62.05469-24.87793zm112.92774-11.18066q19.563-20.40234 19.56738-52.83106v-221.94238q0-32.417-19.56738-53.11035-19.57472-20.67627-50.873-20.68457-30.75293 0-50.03515 20.68457-19.2876 20.68945-19.28711 53.11035v221.94238q0 32.43018 19.28711 52.83106 19.28758 20.41405 50.03515 20.40527 31.3022-.00002 50.873-20.40527zm123.54985 25.99512v-380.1543c0-3.7207 1.86036-5.59082 5.59082-5.59082h6.708q4.46924 0 6.15039 4.47265l70.999 177.77832c.36718 1.11817.92578 1.58985 1.67675 1.39747a2.49277 2.49277 0 0 0 1.67774-1.39747l72.67676-177.77832q1.67724-4.46776 6.14941-4.47265h6.708c3.72168 0 5.59082 1.87012 5.59082 5.59082v380.1543q0 5.59569-5.59082 5.59082h-5.58987q-5.59569 0-5.59082-5.59082v-341.02051c0-1.11817-.376-1.76465-1.11816-1.957-.751-.1836-1.31055.27929-1.67676 1.39746l-65.40918 162.68457c-1.11816 2.9873-3.1709 4.47168-6.14941 4.47168h-.55957c-2.98731 0-5.03125-1.48438-6.14942-4.47168l-66.52636-162.68457a1.80281 1.80281 0 0 0-1.67774-1.11817c-.751 0-1.11816.55957-1.11816 1.67774v341.02051q0 5.59569-5.58985 5.59082h-5.59082q-5.59567-.00003-5.59075-5.59085z" class="cls-3"/></g></g><path d="M2018.80642 406.72517H1545.207l236.79963 409.59952h473.59947z" class="cls-4"/><path fill="#208fcc" d="M1308.40731 816.32469L1545.207 406.72517l236.79963 409.59952-236.79963 409.59949z"/><path d="M1308.40731 816.32469h473.59943l236.79968 409.59949H1545.207z" class="cls-4"/><path d="M2018.80642 406.72517l-236.79968 409.59952 236.79968 409.59949 236.79968-409.59949z" class="cls-6"/><path d="M2172.40627 957.1245l-121.6-204.79975-70.39978 127.99982 115.19983 204.79968z" class="cls-3"/><ellipse cx="2070.006" cy="937.924" class="cls-6" rx="12.8" ry="19.2"/><circle cx="1308.407" cy="816.324" r="38.4" class="cls-3"/><circle cx="1782.006" cy="816.324" r="38.4" class="cls-3"/><circle cx="1545.207" cy="1225.924" r="38.4" class="cls-3"/><circle cx="2018.806" cy="1225.924" r="38.4" class="cls-3"/><circle cx="1545.207" cy="406.725" r="38.4" class="cls-3"/><circle cx="2018.806" cy="406.725" r="38.4" class="cls-3"/><circle cx="2255.606" cy="816.324" r="38.4" class="cls-3"/><path d="M1788.40676 829.12462H1289.2073l249.5997-435.19943h499.1994zm-454.39947-25.59992h441.59942l223.99976-383.99954H1551.607z" class="cls-3"/><path d="M2025.20644 1238.72411H1538.807l-236.79971-415.99945 19.2-12.8 230.39971 403.19947h460.7995l223.99975-396.7995-230.3999-403.19946 19.19995-12.8 243.1997 415.99952z" class="cls-3"/><path d="M1768.0873 823.14077l22.15418-12.8258 237.27658 409.85099-22.15417 12.8258z" class="cls-3"/></svg>