<svg xmlns="http://www.w3.org/2000/svg" role="img" viewBox="-2.50 -2.75 142.87 116.50"><title>Meshroom logo</title><style>svg {fill-rule:evenodd;clip-rule:evenodd;stroke-linejoin:round;stroke-miterlimit:1.41421}</style><path d="M1.985 109.027c-.511 0-.926-.163-1.245-.488-.318-.326-.477-.751-.477-1.276v-3.98c0-.532.157-.96.472-1.286.315-.325.732-.488 1.25-.488s.938.163 1.259.488c.323.326.484.754.484 1.286v3.98c0 .525-.161.95-.484 1.276-.321.325-.741.488-1.26.488zm0-.493c.35 0 .635-.116.855-.347.22-.231.33-.532.33-.903v-4.022c0-.371-.11-.673-.33-.908-.22-.234-.505-.352-.855-.352-.343 0-.623.118-.84.352-.217.235-.326.537-.326.908v4.022c0 .37.109.672.326.903.217.23.497.347.84.347zm6.235-2.216l-.01 1.155c-.013.455-.148.828-.403 1.118-.256.29-.593.436-1.013.436-.224 0-.43-.047-.615-.142a1.127 1.127 0 0 1-.446-.404c-.007-.021-.017-.03-.031-.026-.014.003-.021.016-.021.037v2.404c0 .07-.035.105-.105.105h-.347c-.07 0-.105-.035-.105-.105v-7.14c0-.07.035-.105.105-.105h.347c.07 0 .105.035.105.105v.346c0 .02.007.034.02.037.015.004.025-.005.032-.026.112-.175.26-.31.446-.404.186-.095.39-.142.615-.142.42 0 .757.145 1.013.436.255.29.39.667.404 1.129l.01 1.186zm-.555-1.124c0-.336-.093-.61-.278-.82a.928.928 0 0 0-.73-.314.887.887 0 0 0-.703.315c-.182.21-.273.483-.273.819v2.206c0 .335.09.608.273.818.182.21.416.316.703.316a.93.93 0 0 0 .724-.316c.19-.21.284-.483.284-.818v-2.206zm4.83 1.196c0 .07-.035.106-.105.106H9.975c-.028 0-.042.014-.042.042v.893c0 .322.093.586.278.793.186.206.426.31.719.31a.949.949 0 0 0 .63-.221c.176-.147.29-.34.347-.578.02-.063.06-.094.115-.094l.337.02c.028 0 .052.008.073.022.02.014.028.035.02.063v.042c-.07.385-.237.688-.503.908-.266.22-.605.33-1.02.33-.461 0-.835-.144-1.122-.435-.287-.29-.43-.666-.43-1.13v-2.32c0-.461.143-.84.43-1.133.287-.294.66-.441 1.123-.441.47 0 .848.147 1.134.44.288.295.43.673.43 1.135v1.249zm-1.565-2.33a.926.926 0 0 0-.72.31c-.184.207-.277.474-.277.804v.798c0 .027.014.04.042.04h1.922c.028 0 .042-.013.042-.04v-.798c0-.33-.093-.597-.28-.804a.934.934 0 0 0-.73-.31zm4.494-.483c.428 0 .757.144.988.43.23.288.346.69.346 1.208v3.623c0 .07-.035.105-.105.105h-.346c-.07 0-.105-.035-.105-.105v-3.57c0-.378-.083-.672-.247-.882-.165-.21-.397-.315-.7-.315a.882.882 0 0 0-.728.336c-.18.224-.268.532-.268.924v3.507c0 .07-.035.105-.105.105h-.347c-.07 0-.105-.035-.105-.105v-5.082c0-.07.036-.105.105-.105h.347c.07 0 .105.035.105.105v.409c0 .02.007.032.02.032.015 0 .026-.011.032-.032.253-.392.624-.588 1.113-.588zm6.322 5.45c-.497 0-.902-.17-1.213-.51-.312-.34-.467-.782-.467-1.328v-.231c0-.07.035-.105.105-.105h.336c.07 0 .105.035.105.105v.21c0 .413.105.746.315.998.209.252.479.378.808.378.329 0 .602-.123.819-.368.217-.245.326-.563.326-.955 0-.26-.051-.483-.153-.672a1.73 1.73 0 0 0-.393-.494c-.161-.14-.42-.343-.777-.61a10.42 10.42 0 0 1-.83-.671 2.212 2.212 0 0 1-.478-.645 1.999 1.999 0 0 1-.183-.888c0-.54.15-.962.45-1.27.302-.308.69-.462 1.167-.462.51 0 .918.17 1.223.514.304.343.457.795.457 1.355v.262c0 .07-.035.105-.105.105h-.337c-.07 0-.105-.035-.105-.105v-.262c0-.413-.104-.747-.314-1.003a1.012 1.012 0 0 0-.82-.383.992.992 0 0 0-.771.33c-.2.22-.3.53-.3.93 0 .238.043.444.127.62.084.174.209.34.378.498.168.158.416.359.745.604.413.308.723.556.929.745.207.189.364.396.473.62.108.224.163.493.163.808 0 .567-.156 1.022-.468 1.365-.311.343-.715.515-1.212.515zm4.284 0c-.462 0-.837-.145-1.124-.436-.287-.29-.43-.666-.43-1.13v-2.32c0-.461.143-.84.43-1.133.287-.294.662-.441 1.124-.441.476 0 .857.145 1.144.436.287.29.43.67.43 1.139v2.32c0 .463-.143.839-.43 1.129-.287.29-.668.436-1.144.436zm0-.493a.95.95 0 0 0 .734-.31c.189-.207.284-.471.284-.793v-2.257c0-.33-.095-.597-.284-.804a.95.95 0 0 0-.734-.31.925.925 0 0 0-.72.31c-.185.207-.278.474-.278.804v2.257c0 .322.093.586.278.793.186.206.425.31.72.31zm5.27-4.778c0-.07.036-.105.105-.105h.347c.07 0 .105.035.105.105v5.082c0 .07-.035.105-.105.105h-.347c-.07 0-.104-.035-.104-.105v-.378c0-.021-.006-.033-.016-.037-.011-.003-.023.002-.037.016-.224.385-.581.577-1.071.578-.42-.001-.752-.128-.998-.384-.244-.255-.367-.64-.367-1.15v-3.727c0-.07.035-.105.105-.105h.346c.07 0 .105.035.105.105v3.602c0 .384.083.675.247.87.165.197.398.295.698.295.309 0 .55-.112.725-.336.175-.224.263-.532.263-.924v-3.507zm3.592-.147c.175 0 .325.035.45.105.05.028.068.073.054.136l-.085.357c-.021.063-.066.08-.136.053a1.04 1.04 0 0 0-.41-.053c-.28.007-.507.147-.682.42-.175.273-.263.61-.263 1.008v3.203c0 .07-.034.105-.104.105h-.347c-.07 0-.105-.035-.105-.105v-5.082c0-.07.035-.105.105-.105h.347c.07 0 .104.035.104.105v.65c0 .022.008.032.02.032.016 0 .026-.01.033-.031.098-.252.233-.448.404-.588a.944.944 0 0 1 .615-.21zm2.751 5.418c-.47 0-.846-.145-1.13-.436-.283-.29-.425-.67-.425-1.14v-2.31c0-.461.144-.84.43-1.133.288-.294.662-.441 1.125-.441.308 0 .58.065.818.194.239.13.422.3.552.515.129.213.194.446.194.698v.063c0 .07-.035.105-.105.105l-.346.02c-.07 0-.106-.027-.106-.083v-.084a.888.888 0 0 0-.283-.656.99.99 0 0 0-.724-.28.925.925 0 0 0-.72.31c-.185.208-.278.475-.278.805v2.257c0 .322.093.586.278.793.186.206.425.31.72.31a.99.99 0 0 0 .724-.28.888.888 0 0 0 .283-.655v-.053c0-.07.036-.104.106-.104h.346c.028 0 .053.008.073.026.02.017.032.04.032.068v.094c0 .252-.065.485-.194.699-.13.213-.313.383-.552.509-.237.126-.51.189-.818.189zm5.701-2.637c0 .07-.035.106-.105.106h-2.415c-.028 0-.042.014-.042.042v.893c0 .322.093.586.278.793.186.206.425.31.72.31a.943.943 0 0 0 .629-.221 1.04 1.04 0 0 0 .347-.578c.02-.063.06-.094.116-.094l.335.02a.13.13 0 0 1 .074.022c.02.014.028.035.02.063v.042c-.07.385-.237.688-.503.908-.266.22-.605.33-1.018.33-.463 0-.837-.144-1.124-.435-.287-.29-.431-.666-.431-1.13v-2.32c0-.461.144-.84.43-1.133.288-.294.662-.441 1.125-.441.469 0 .847.147 1.134.44.287.295.43.673.43 1.135v1.249zm-1.564-2.33a.925.925 0 0 0-.72.31c-.185.207-.278.474-.278.804v.798c0 .027.014.04.042.04h1.92c.03 0 .043-.013.043-.04v-.798c0-.33-.092-.597-.278-.804a.934.934 0 0 0-.73-.31zm6.73-2.488c.49 0 .886.184 1.187.55.3.369.45.85.45 1.445 0 .595-.148 1.07-.445 1.428-.298.357-.688.535-1.171.535h-1.165c-.028 0-.042.014-.042.042v3.266c0 .07-.035.105-.105.105h-.347c-.07 0-.105-.035-.105-.105v-7.161c0-.07.035-.105.105-.105h1.638zm-.063 3.497c.343 0 .62-.137.83-.41.21-.273.314-.634.314-1.082 0-.455-.104-.82-.314-1.091a.995.995 0 0 0-.83-.41h-1.081c-.028 0-.042.014-.042.042v2.908c0 .028.014.043.042.043h1.08zm4.505-1.492c.427 0 .756.144.987.43.23.288.346.69.346 1.208v3.623c0 .07-.035.105-.105.105h-.346c-.07 0-.105-.035-.105-.105v-3.57c0-.378-.083-.672-.247-.882-.165-.21-.397-.315-.698-.315-.308 0-.552.112-.73.336-.18.224-.268.532-.268.924v3.507c0 .07-.035.105-.105.105h-.346c-.07 0-.105-.035-.105-.105v-7.14c0-.07.035-.105.105-.105h.346c.07 0 .105.035.105.105v2.467c0 .02.007.032.02.032.015 0 .026-.011.033-.032.252-.392.623-.588 1.113-.588zm4.095 5.45c-.462 0-.837-.145-1.124-.436-.287-.29-.43-.666-.43-1.13v-2.32c0-.461.143-.84.43-1.133.287-.294.662-.441 1.124-.441.476 0 .857.145 1.144.436.287.29.43.67.43 1.139v2.32c0 .463-.143.839-.43 1.129-.287.29-.668.436-1.144.436zm0-.493a.952.952 0 0 0 .735-.31c.189-.207.283-.471.283-.793v-2.257c0-.33-.094-.597-.283-.804a.952.952 0 0 0-.735-.31.926.926 0 0 0-.72.31c-.185.207-.278.474-.278.804v2.257c0 .322.093.586.278.793.186.206.426.31.72.31zm4.557-4.547c0 .07-.035.105-.105.105h-.84c-.028 0-.042.014-.042.042v3.38c0 .35.059.594.178.73.119.137.308.205.567.205h.105c.07 0 .105.035.105.106v.283c0 .07-.035.105-.105.105h-.21c-.392 0-.688-.091-.887-.273-.2-.182-.3-.522-.3-1.02v-3.516c0-.028-.013-.042-.041-.042h-.431c-.07 0-.105-.035-.105-.105v-.231c0-.07.035-.105.105-.105h.43c.029 0 .043-.014.043-.042v-1.176c0-.07.035-.105.105-.105h.336c.07 0 .105.035.105.105v1.176c0 .028.014.042.042.042h.84c.07 0 .105.035.105.105v.23zm2.456 5.04c-.461 0-.836-.145-1.123-.436-.287-.29-.43-.666-.43-1.13v-2.32c0-.461.143-.84.43-1.133.287-.294.662-.441 1.124-.441.476 0 .857.145 1.144.436.287.29.43.67.43 1.139v2.32c0 .463-.143.839-.43 1.129-.287.29-.668.436-1.144.436zm0-.493a.954.954 0 0 0 .736-.31c.188-.207.283-.471.283-.793v-2.257c0-.33-.095-.597-.283-.804a.954.954 0 0 0-.735-.31.926.926 0 0 0-.72.31c-.185.207-.278.474-.278.804v2.257c0 .322.093.586.278.793.186.206.426.31.72.31zm5.26-4.778c0-.07.036-.105.106-.105h.357c.07 0 .105.035.105.105v5.124c0 .72-.164 1.27-.494 1.648-.328.378-.857.553-1.585.526-.07-.001-.105-.036-.105-.105v-.284c0-.07.046-.105.137-.105.532 0 .91-.144 1.139-.431.227-.287.34-.717.34-1.291v-.4c0-.02-.006-.032-.02-.036-.014-.003-.024.005-.031.026a1.165 1.165 0 0 1-.457.426c-.186.094-.39.14-.614.142-.434-.001-.78-.146-1.035-.436-.255-.291-.383-.671-.383-1.14v-2.278c0-.47.128-.85.383-1.14.256-.29.6-.435 1.035-.435.224 0 .43.049.619.147.189.098.34.238.452.42.014.014.026.02.036.02.01 0 .016-.01.016-.031v-.367zm-.975 4.746a.903.903 0 0 0 .703-.304c.182-.204.273-.47.273-.798v-2.226c0-.33-.091-.597-.273-.804a.896.896 0 0 0-.703-.31.941.941 0 0 0-.725.31c-.19.207-.283.474-.283.804v2.226c0 .32.094.586.283.792.189.207.43.31.725.31zm4.452-4.893c.175 0 .325.035.45.105.05.028.068.073.054.136l-.084.357c-.021.063-.067.08-.137.053a1.037 1.037 0 0 0-.41-.053c-.28.007-.507.147-.682.42-.175.273-.262.61-.262 1.008v3.203c0 .07-.035.105-.105.105h-.347c-.07 0-.105-.035-.105-.105v-5.082c0-.07.035-.105.105-.105h.347c.07 0 .105.035.105.105v.65c0 .022.007.032.02.032.015 0 .025-.01.032-.031.098-.252.233-.448.404-.588a.944.944 0 0 1 .615-.21zm2.772-.042c.476 0 .848.159 1.118.478.269.318.404.743.404 1.276v3.517c0 .07-.035.105-.105.105h-.346c-.07 0-.105-.035-.105-.105v-.378c0-.021-.006-.033-.016-.037-.011-.003-.023.002-.037.016-.26.392-.665.588-1.218.588-.371 0-.691-.11-.961-.326-.27-.217-.404-.598-.404-1.144 0-.581.16-1.008.483-1.281.322-.273.753-.41 1.292-.41h.819c.028 0 .042-.014.042-.042v-.483c0-.392-.086-.703-.258-.934-.171-.231-.411-.347-.72-.347a.94.94 0 0 0-.634.23.895.895 0 0 0-.31.6c0 .07-.035.105-.105.105l-.378-.021c-.035 0-.061-.01-.08-.031a.08.08 0 0 1-.014-.074c.042-.392.206-.707.493-.945a1.577 1.577 0 0 1 1.04-.357zm-.19 4.967c.316 0 .587-.102.814-.305.228-.203.342-.49.342-.861v-.997c0-.03-.014-.043-.042-.043h-.82c-.363 0-.656.1-.876.3-.221.199-.331.495-.331.887 0 .343.084.598.252.766.168.168.389.253.662.253zm7.088-4.957c.399 0 .714.154.945.462.23.308.347.728.347 1.26v3.539c0 .07-.035.105-.105.105h-.347c-.07 0-.105-.035-.105-.105v-3.486c0-.392-.082-.703-.247-.935a.766.766 0 0 0-.656-.346.832.832 0 0 0-.698.336c-.172.224-.257.532-.257.924v3.507c0 .07-.035.105-.105.105h-.347c-.07 0-.105-.035-.105-.105v-3.486c0-.392-.084-.703-.252-.935-.168-.231-.385-.346-.651-.346a.846.846 0 0 0-.703.336c-.175.224-.263.532-.263.924v3.507c0 .07-.035.105-.105.105h-.336c-.07 0-.105-.035-.105-.105v-5.082c0-.07.035-.105.105-.105h.336c.07 0 .105.035.105.105v.388c0 .02.007.034.02.037.015.004.026-.005.033-.026.126-.19.285-.333.477-.431.193-.098.394-.147.604-.147.266 0 .497.07.693.21.196.14.347.34.452.599.014.035.03.028.052-.021a1.306 1.306 0 0 1 1.218-.788zm6.731 0c.399 0 .714.154.945.462.23.308.346.728.346 1.26v3.539c0 .07-.035.105-.105.105h-.346c-.07 0-.105-.035-.105-.105v-3.486c0-.392-.083-.703-.247-.935a.768.768 0 0 0-.656-.346.835.835 0 0 0-.7.336c-.17.224-.256.532-.256.924v3.507c0 .07-.035.105-.105.105h-.346c-.07 0-.105-.035-.105-.105v-3.486c0-.392-.084-.703-.252-.935-.168-.231-.385-.346-.651-.346a.848.848 0 0 0-.704.336c-.175.224-.262.532-.262.924v3.507c0 .07-.035.105-.105.105h-.336c-.07 0-.105-.035-.105-.105v-5.082c0-.07.035-.105.105-.105h.336c.07 0 .105.035.105.105v.388c0 .02.007.034.02.037.015.004.025-.005.032-.026a1.24 1.24 0 0 1 .478-.431c.192-.098.394-.147.604-.147.266 0 .497.07.693.21.196.14.346.34.45.599.015.035.033.028.054-.021a1.306 1.306 0 0 1 1.218-.788zm5.628 2.813c0 .07-.035.106-.105.106h-2.415c-.028 0-.042.014-.042.042v.893c0 .322.092.586.278.793.185.206.425.31.719.31a.948.948 0 0 0 .63-.221c.175-.147.29-.34.347-.578.02-.063.059-.094.115-.094l.336.02c.028 0 .053.008.074.022.02.014.028.035.02.063v.042c-.07.385-.237.688-.503.908-.266.22-.606.33-1.02.33-.461 0-.835-.144-1.122-.435-.287-.29-.431-.666-.431-1.13v-2.32c0-.461.144-.84.43-1.133.288-.294.662-.441 1.124-.441.469 0 .847.147 1.134.44.287.295.43.673.43 1.135v1.249zm-1.565-2.33a.923.923 0 0 0-.72.31c-.185.207-.277.474-.277.804v.798c0 .027.014.04.042.04h1.92c.029 0 .043-.013.043-.04v-.798c0-.33-.093-.597-.278-.804a.937.937 0 0 0-.73-.31zm4.442-.073c0 .07-.035.105-.105.105h-.84c-.028 0-.042.014-.042.042v3.38c0 .35.059.594.178.73.119.137.308.205.567.205h.105c.07 0 .105.035.105.106v.283c0 .07-.035.105-.105.105h-.21c-.392 0-.688-.091-.887-.273-.2-.182-.3-.522-.3-1.02v-3.516c0-.028-.013-.042-.041-.042h-.431c-.07 0-.105-.035-.105-.105v-.231c0-.07.035-.105.105-.105h.43c.029 0 .043-.014.043-.042v-1.176c0-.07.035-.105.105-.105h.336c.07 0 .105.035.105.105v1.176c0 .028.014.042.042.042h.84c.07 0 .105.035.105.105v.23zm2.656-.378c.175 0 .326.035.452.105.049.028.066.073.052.136l-.084.357c-.021.063-.066.08-.136.053a1.042 1.042 0 0 0-.41-.053c-.28.007-.507.147-.682.42-.175.273-.263.61-.263 1.008v3.203c0 .07-.035.105-.105.105h-.346c-.07 0-.105-.035-.105-.105v-5.082c0-.07.035-.105.105-.105h.346c.07 0 .105.035.105.105v.65c0 .022.007.032.02.032.015 0 .026-.01.033-.031.098-.252.232-.448.404-.588a.94.94 0 0 1 .614-.21zm1.281 7.434c-.042 0-.063-.035-.063-.105v-.273c0-.028.007-.053.02-.074.015-.021.029-.031.043-.031h.053c.21-.007.372-.051.488-.131.115-.081.212-.23.289-.447.077-.217.164-.553.262-1.007.007-.015.009-.027.005-.037a.112.112 0 0 1-.005-.027l-1.344-5.145-.01-.031c0-.056.035-.084.105-.084h.367c.063 0 .102.03.116.094l1.039 4.368c.007.02.014.032.02.032.008 0 .015-.011.022-.032l1.029-4.368c.014-.063.053-.094.116-.094l.378.01c.035 0 .06.01.078.032.018.02.02.049.006.084l-1.481 5.702c-.12.454-.236.79-.352 1.007-.115.217-.255.364-.42.44-.164.078-.397.117-.698.117h-.063zm7.592-2.016c-.497 0-.902-.17-1.213-.51-.312-.34-.467-.782-.467-1.328v-.231c0-.07.035-.105.105-.105h.336c.07 0 .105.035.105.105v.21c0 .413.105.746.315.998.21.252.479.378.808.378.329 0 .602-.123.819-.368.217-.245.326-.563.326-.955 0-.26-.051-.483-.153-.672a1.73 1.73 0 0 0-.393-.494c-.161-.14-.42-.343-.777-.61a10.42 10.42 0 0 1-.83-.671 2.212 2.212 0 0 1-.478-.645 1.999 1.999 0 0 1-.183-.888c0-.54.15-.962.45-1.27.302-.308.69-.462 1.167-.462.51 0 .918.17 1.223.514.304.343.457.795.457 1.355v.262c0 .07-.035.105-.105.105h-.336c-.07 0-.105-.035-.105-.105v-.262c0-.413-.105-.747-.315-1.003a1.012 1.012 0 0 0-.82-.383.992.992 0 0 0-.771.33c-.2.22-.3.53-.3.93 0 .238.043.444.127.62a1.7 1.7 0 0 0 .378.498c.168.158.416.359.745.604.413.308.723.556.929.745.207.189.364.396.473.62.108.224.163.493.163.808 0 .567-.156 1.022-.468 1.365-.311.343-.715.515-1.212.515zm4.284 0c-.462 0-.837-.145-1.124-.436-.287-.29-.43-.666-.43-1.13v-2.32c0-.461.143-.84.43-1.133.287-.294.662-.441 1.124-.441.476 0 .857.145 1.144.436.287.29.43.67.43 1.139v2.32c0 .463-.143.839-.43 1.129-.287.29-.668.436-1.144.436zm0-.493a.952.952 0 0 0 .735-.31c.189-.207.283-.471.283-.793v-2.257c0-.33-.094-.597-.283-.804a.952.952 0 0 0-.735-.31.926.926 0 0 0-.72.31c-.185.207-.278.474-.278.804v2.257c0 .322.093.586.278.793.186.206.426.31.72.31zm4.389-6.542c-.301 0-.508.1-.62.299-.112.2-.168.513-.168.94v.378c0 .028.014.042.042.042h.86c.07 0 .106.035.106.105v.23c0 .07-.035.106-.105.106h-.861c-.028 0-.042.014-.042.042v4.704c0 .07-.035.105-.105.105h-.346c-.07 0-.105-.035-.105-.105v-4.704c0-.028-.014-.042-.042-.042h-.441c-.07 0-.105-.035-.105-.105v-.231c0-.07.035-.105.105-.105h.44c.029 0 .043-.014.043-.042v-.39c0-.586.1-1.02.304-1.295.203-.277.546-.415 1.029-.415h.158c.07 0 .105.035.105.105l-.011.273c0 .07-.035.105-.105.105h-.136zm3.013 1.995c0 .07-.035.105-.105.105h-.84c-.028 0-.042.014-.042.042v3.38c0 .35.06.594.179.73.119.137.308.205.567.205h.105c.07 0 .105.035.105.106v.283c0 .07-.035.105-.105.105h-.21c-.392 0-.688-.091-.888-.273-.2-.182-.3-.522-.3-1.02v-3.516c0-.028-.013-.042-.041-.042h-.43c-.07 0-.105-.035-.105-.105v-.231c0-.07.035-.105.105-.105h.43c.028 0 .042-.014.042-.042v-1.176c0-.07.035-.105.105-.105h.336c.07 0 .105.035.105.105v1.176c0 .028.014.042.042.042h.84c.07 0 .105.035.105.105v.23zm1.817 4.956c-.063 0-.102-.032-.116-.094l-1.102-5.083v-.021c0-.063.03-.094.094-.094h.336c.07 0 .109.03.116.094l.84 4.337c.007.02.014.03.02.03.008 0 .015-.01.022-.03l.85-4.337c.014-.063.053-.094.116-.094h.315c.07 0 .108.03.115.094l.85 4.337c.008.02.015.03.022.03.007 0 .014-.01.02-.03l.862-4.337c.014-.063.052-.094.115-.094l.326.01c.077 0 .108.039.094.116l-1.113 5.072c-.007.062-.045.094-.115.094h-.357c-.063 0-.102-.032-.116-.094l-.85-4.127c-.007-.021-.014-.032-.021-.032-.007 0-.014.01-.021.032l-.83 4.127c-.007.062-.045.094-.115.094h-.357zm6.258-5.376c.476 0 .848.159 1.118.478.269.318.404.743.404 1.276v3.517c0 .07-.035.105-.105.105h-.346c-.07 0-.105-.035-.105-.105v-.378c0-.021-.006-.033-.016-.037-.011-.003-.023.002-.037.016-.26.392-.665.588-1.218.588-.371 0-.691-.11-.961-.326-.27-.217-.404-.598-.404-1.144 0-.581.16-1.008.483-1.281.322-.273.753-.41 1.292-.41h.819c.028 0 .042-.014.042-.042v-.483c0-.392-.086-.703-.258-.934-.171-.231-.411-.347-.72-.347a.94.94 0 0 0-.634.23.895.895 0 0 0-.31.6c0 .07-.035.105-.105.105l-.378-.021c-.035 0-.061-.01-.08-.031a.08.08 0 0 1-.014-.074c.042-.392.206-.707.493-.945a1.577 1.577 0 0 1 1.04-.357zm-.19 4.967c.316 0 .587-.102.814-.305.228-.203.342-.49.342-.861v-.997c0-.03-.014-.043-.042-.043h-.82c-.363 0-.656.1-.876.3-.221.199-.331.495-.331.887 0 .343.084.598.252.766.168.168.389.253.662.253zm4.621-4.925c.175 0 .325.035.45.105.05.028.068.073.054.136l-.084.357c-.021.063-.067.08-.137.053a1.037 1.037 0 0 0-.41-.053c-.28.007-.507.147-.682.42-.175.273-.262.61-.262 1.008v3.203c0 .07-.035.105-.105.105h-.347c-.07 0-.105-.035-.105-.105v-5.082c0-.07.035-.105.105-.105h.347c.07 0 .105.035.105.105v.65c0 .022.007.032.02.032.015 0 .025-.01.032-.031.098-.252.233-.448.404-.588a.944.944 0 0 1 .615-.21zm4.315 2.781c0 .07-.035.106-.105.106h-2.415c-.028 0-.042.014-.042.042v.893c0 .322.093.586.278.793.186.206.426.31.72.31a.948.948 0 0 0 .63-.221c.175-.147.29-.34.346-.578.02-.063.06-.094.116-.094l.336.02c.028 0 .052.008.073.022.02.014.028.035.02.063v.042c-.07.385-.237.688-.503.908-.266.22-.605.33-1.018.33-.462 0-.837-.144-1.124-.435-.287-.29-.43-.666-.43-1.13v-2.32c0-.461.143-.84.43-1.133.287-.294.662-.441 1.124-.441.469 0 .847.147 1.134.44.287.295.43.673.43 1.135v1.249zm-1.564-2.33a.926.926 0 0 0-.72.31c-.185.207-.278.474-.278.804v.798c0 .027.014.04.042.04h1.922c.028 0 .042-.013.042-.04v-.798c0-.33-.093-.597-.28-.804a.934.934 0 0 0-.728-.31z" fill-rule="nonzero"/><path fill-rule="nonzero" d="M.84 92.418V65.625c0-.262.13-.394.395-.394h.47c.212 0 .357.106.435.316l5.005 12.53c.025.078.065.112.117.098a.175.175 0 0 0 .119-.099l5.122-12.529c.078-.21.223-.316.433-.316h.473c.262 0 .394.132.394.394v26.793c0 .264-.132.395-.394.395h-.394c-.263 0-.394-.13-.394-.395V68.384c0-.079-.027-.124-.08-.138-.053-.014-.092.02-.117.1L7.814 79.81c-.078.211-.223.315-.433.315h-.04c-.211 0-.355-.104-.433-.315l-4.69-11.465c-.025-.053-.066-.079-.117-.079-.053 0-.078.04-.078.118v24.034c0 .264-.132.395-.395.395h-.393c-.264 0-.395-.13-.395-.395"/><path fill-rule="nonzero" d="M31.297 66.335h-9.614c-.106 0-.158.053-.158.158v11.821c0 .104.052.156.158.156h6.303c.263 0 .395.133.395.394v.277c0 .261-.132.393-.395.393h-6.303c-.106 0-.158.054-.158.158v11.86c0 .105.052.157.158.157h9.614c.262 0 .394.132.394.395v.314c0 .264-.132.395-.394.395H20.736c-.261 0-.393-.13-.393-.395V65.625c0-.262.132-.394.393-.394h10.561c.262 0 .394.132.394.394v.316c0 .262-.132.394-.394.394"/><path fill-rule="nonzero" d="M37.622 91.256c-1.09-1.247-1.636-2.896-1.636-4.945v-.748c0-.262.131-.395.395-.395h.354c.263 0 .394.133.394.395v.709c0 1.734.44 3.132 1.32 4.196.88 1.063 2.016 1.596 3.408 1.596 1.393 0 2.547-.512 3.467-1.537.92-1.025 1.38-2.364 1.38-4.019 0-1.076-.21-2.009-.63-2.797a7.227 7.227 0 0 0-1.557-2.01c-.618-.551-1.635-1.352-3.053-2.403-1.34-1.024-2.364-1.878-3.074-2.561a8.583 8.583 0 0 1-1.734-2.364c-.446-.892-.67-1.957-.67-3.192 0-1.944.532-3.473 1.597-4.59 1.063-1.116 2.422-1.674 4.077-1.674 1.786 0 3.224.63 4.315 1.891 1.09 1.261 1.634 2.916 1.634 4.964v.985c0 .264-.13.395-.393.395h-.355c-.262 0-.394-.131-.394-.395v-.945c0-1.76-.44-3.172-1.32-4.236-.88-1.064-2.043-1.595-3.487-1.595-1.313 0-2.39.46-3.23 1.379-.84.919-1.26 2.219-1.26 3.9 0 .973.17 1.819.511 2.541.34.723.84 1.399 1.497 2.029.656.631 1.63 1.419 2.916 2.364 1.55 1.157 2.7 2.083 3.447 2.779.75.695 1.32 1.451 1.714 2.265.394.815.591 1.813.591 2.995 0 2.075-.552 3.743-1.655 5.003-1.103 1.261-2.535 1.892-4.295 1.892-1.759 0-3.184-.624-4.274-1.872"/><path fill-rule="nonzero" d="M64 65.232h.393c.261 0 .394.132.394.394V92.42c0 .263-.133.394-.394.394H64c-.264 0-.395-.13-.395-.394V79.693c0-.105-.052-.158-.157-.158H54.66c-.105 0-.158.053-.158.158V92.42c0 .263-.13.394-.394.394h-.394c-.262 0-.394-.13-.394-.394V65.626c0-.262.132-.394.394-.394h.394c.263 0 .394.132.394.394v12.688c0 .105.053.156.158.156h8.787c.105 0 .157-.05.157-.156V65.626c0-.262.131-.394.395-.394"/><path fill-rule="nonzero" d="M72.905 66.413v11.781c0 .106.052.158.157.158h4.61c1.419 0 2.554-.55 3.409-1.655.853-1.103 1.28-2.56 1.28-4.374 0-1.81-.427-3.275-1.28-4.392-.855-1.117-1.99-1.675-3.408-1.675h-4.611c-.105 0-.157.053-.157.157m9.534 26.084l-4.727-12.963c-.027-.079-.08-.118-.16-.118h-4.49c-.105 0-.157.053-.157.157v12.845c0 .264-.132.394-.395.394h-.393c-.264 0-.395-.13-.395-.394v-26.87c0-.264.13-.395.395-.395h5.595c1.759 0 3.172.656 4.235 1.97 1.064 1.313 1.596 3.047 1.596 5.2 0 1.866-.408 3.416-1.221 4.651-.815 1.234-1.931 2.008-3.35 2.324-.105.053-.144.118-.118.197l4.729 12.884.039.158c0 .184-.118.275-.355.275h-.354c-.237 0-.394-.104-.474-.315"/><path fill-rule="nonzero" d="M97.411 90.586c.92-.958 1.38-2.2 1.38-3.723V71.22c0-1.524-.46-2.772-1.38-3.743-.919-.972-2.114-1.458-3.585-1.458-1.444 0-2.62.486-3.526 1.458-.907.97-1.36 2.219-1.36 3.743v15.642c0 1.524.453 2.765 1.36 3.723.906.96 2.082 1.438 3.526 1.438 1.471 0 2.666-.478 3.585-1.438m-7.958.788c-1.13-1.168-1.695-2.7-1.695-4.59V71.3c0-1.892.565-3.428 1.695-4.61 1.129-1.182 2.587-1.773 4.373-1.773 1.813 0 3.29.59 4.433 1.773 1.142 1.182 1.714 2.718 1.714 4.61v15.484c0 1.89-.572 3.422-1.714 4.59-1.143 1.17-2.62 1.754-4.433 1.754-1.786 0-3.244-.584-4.373-1.754"/><path fill-rule="nonzero" d="M114.985 90.586c.919-.958 1.379-2.2 1.379-3.723V71.22c0-1.524-.46-2.772-1.379-3.743-.921-.972-2.116-1.458-3.586-1.458-1.445 0-2.621.486-3.526 1.458-.907.97-1.361 2.219-1.361 3.743v15.642c0 1.524.454 2.765 1.361 3.723.905.96 2.081 1.438 3.526 1.438 1.47 0 2.665-.478 3.586-1.438m-7.96.788c-1.13-1.168-1.694-2.7-1.694-4.59V71.3c0-1.892.564-3.428 1.694-4.61 1.129-1.182 2.588-1.773 4.374-1.773 1.812 0 3.29.59 4.433 1.773 1.142 1.182 1.714 2.718 1.714 4.61v15.484c0 1.89-.572 3.422-1.714 4.59-1.143 1.17-2.621 1.754-4.433 1.754-1.786 0-3.245-.584-4.374-1.754"/><path fill-rule="nonzero" d="M123.692 92.418V65.625c0-.262.131-.394.395-.394h.472c.21 0 .355.106.433.316l5.005 12.53c.025.078.064.112.117.098a.177.177 0 0 0 .12-.099l5.121-12.529c.078-.21.222-.316.433-.316h.472c.263 0 .395.132.395.394v26.793c0 .264-.132.395-.395.395h-.393c-.263 0-.395-.13-.395-.395V68.384c0-.079-.026-.124-.078-.138-.053-.014-.093.02-.118.1l-4.61 11.464c-.078.211-.223.315-.433.315h-.04c-.21 0-.355-.104-.434-.315l-4.688-11.465c-.026-.053-.066-.079-.118-.079-.053 0-.078.04-.078.118v24.034c0 .264-.133.395-.395.395h-.393c-.264 0-.395-.13-.395-.395"/><path fill="#4abeed" fill-rule="nonzero" d="M81.092 2.178H56.403L68.666 23.64h24.851L81.092 2.178z"/><path fill="#218fcc" fill-rule="nonzero" d="M43.978 23.641L56.404 2.178l12.262 21.463-12.263 21.463L43.978 23.64z"/><path fill="#4abeed" fill-rule="nonzero" d="M43.977 23.64h24.69l12.425 21.463H56.403L43.977 23.64z"/><path fill="#0c72ba" fill-rule="nonzero" d="M81.092 2.177L68.666 23.641 81.092 45.1l12.425-21.46L81.092 2.176z"/><path fill-rule="nonzero" d="M89.267 30.983l-6.213-10.73-3.897 6.733 6.213 10.73 3.897-6.733z"/><path fill="#0c72ba" fill-rule="nonzero" d="M84.471 30.051c0 .624-.289 1.13-.646 1.13-.356 0-.645-.506-.645-1.13 0-.624.29-1.13.645-1.13.357 0 .646.506.646 1.13"/><path fill-rule="nonzero" d="M46.155 23.64a2.18 2.18 0 1 1-4.359 0 2.18 2.18 0 0 1 4.36 0"/><path fill-rule="nonzero" d="M70.845 23.64a2.18 2.18 0 1 1-4.359 0 2.18 2.18 0 0 1 4.36 0"/><path fill-rule="nonzero" d="M58.581 45.103a2.179 2.179 0 1 1-4.357 0 2.179 2.179 0 0 1 4.357 0"/><path fill-rule="nonzero" d="M83.271 45.103a2.18 2.18 0 1 1-4.359-.001 2.18 2.18 0 0 1 4.36 0"/><path fill-rule="nonzero" d="M58.581 2.178a2.179 2.179 0 1 1-4.357 0 2.179 2.179 0 0 1 4.357 0"/><path fill-rule="nonzero" d="M83.271 2.178a2.18 2.18 0 1 1-4.359-.001 2.18 2.18 0 0 1 4.36 0"/><path fill-rule="nonzero" d="M95.696 23.64a2.179 2.179 0 1 1-4.358 0 2.179 2.179 0 0 1 4.358 0"/><path fill-rule="nonzero" d="M45.096 22.995h23.198L79.972 2.823H56.775l-11.68 20.172zm23.942 1.291H42.857L56.03 1.532h26.18L69.038 24.286z"/><path fill-rule="nonzero" d="M81.464 45.747H56.03L43.418 23.963l1.117-.647 12.24 21.14H80.72L92.772 23.64 80.533 2.501l1.118-.648L94.263 23.64 81.464 45.747z"/><path d="M81.65 44.78L69.224 23.318l-1.116.646 12.426 21.462z"/></svg>