<svg xmlns="http://www.w3.org/2000/svg" role="img" viewBox="-3.91 -3.91 203.06 86.56"><title>MovieLabs logo</title><path fill="#231f20" d="M72.055 38.15595v19.42392c0 2.51407.53745 3.41084 1.92955 4.21816l2.5114 1.43223-2.06181 3.68119c-4.80255-2.28643-7.04462-3.94678-7.04462-8.47734V38.15595H72.055m17.13864 24.3614c3.6811 0 6.8201-3.1406 6.8201-7.0473 0-3.90097-3.139-7.04409-6.8201-7.04409-3.76764 0-6.9113 3.14312-6.9113 7.0441 0 3.9067 3.14366 7.04728 6.9113 7.04728zm6.63996 1.16663h-.08906c-1.48023 1.97124-4.17283 3.22747-7.13369 3.22747-7.13475 0-11.26118-5.8306-11.26118-11.4414 0-5.3384 4.44202-11.43984 11.4845-11.43984 3.2318 0 5.69947 1.3937 6.91037 3.23071h.08906v-2.6474h4.66495V66.3297H95.8336v-2.6457m22.03012-15.25803c-3.9051 0-6.7753 3.00833-6.7753 7.0441 0 4.03896 2.8702 7.04728 6.7753 7.04728 3.9035 0 6.7749-3.00832 6.7749-7.04729 0-4.03576-2.8714-7.04409-6.7749-7.04409zm-11.43985-10.27h4.66455v9.10496h.08947c1.12197-1.79582 4.04003-3.23071 7.08942-3.23071 5.65413 0 11.30705 4.17496 11.30705 11.43984 0 7.27222-5.65292 11.4414-11.30705 11.4414-3.0494 0-5.96745-1.43485-7.08942-3.22747h-.08947v2.6457h-4.66455V38.15596m28.57809 21.71146c1.65996 1.79569 4.39722 3.18739 6.81983 3.18739 2.69326 0 4.30789-1.5261 4.30789-2.73793 0-1.43544-1.12264-2.19795-2.82793-2.5146l-2.6466-.49213c-6.10118-1.12077-7.80634-3.09632-7.80634-6.19104 0-3.67858 3.09712-7.0889 8.52632-7.0889 3.00393 0 5.65186.89745 8.61312 3.00833l-2.64793 3.27339c-2.28661-1.92716-4.3079-2.42181-5.83186-2.42181-2.01728 0-3.99323.98944-3.99323 2.73686 0 1.2989 1.03197 1.97489 2.8266 2.28901l4.71188.89425c3.8559.71865 5.74119 2.5598 5.74119 5.79052 0 3.18325-2.60127 7.3107-9.1971 7.3107-3.67858 0-6.82117-1.3005-9.7803-3.81079l3.18446-3.23325"/><path fill="#63a1d9" d="M67.38952 16.99341c0-6.1821 4.12123-9.75082 8.89604-9.75082 3.66924 0 6.33317 1.76142 7.28782 4.3239h.1016c.9541-2.56248 3.61764-4.3239 7.28675-4.3239 4.77548 0 8.89617 3.56871 8.89617 9.75082v15.23242h-5.2264V17.04448c0-2.91553-1.85929-4.57175-4.02123-4.57175-2.51354 0-4.37283 1.5077-4.37283 5.27333v14.47977h-5.22693V17.74606c0-3.76564-1.85942-5.27333-4.37336-5.27333-2.16035 0-4.02177 1.65622-4.02177 4.57175v15.18135h-5.22586V16.99341m50.7138 10.9596c4.57388 0 7.89193-3.51965 7.89193-7.89194s-3.31805-7.89153-7.89194-7.89153c-4.57282 0-7.88993 3.51924-7.88993 7.89153 0 4.3723 3.31711 7.89194 7.88993 7.89194zm0-20.71042c8.49511 0 13.42153 6.3853 13.42153 12.81848 0 6.43624-4.92642 12.81635-13.42154 12.81635-8.49298 0-13.41846-6.3801-13.41846-12.81635 0-6.43317 4.92548-12.81848 13.41846-12.81848m14.82777.65465h5.82945l5.3772 13.92259h.10266l5.3772-13.92259h5.82919L144.1884 32.87742 132.93108 7.89724m25.83295 0h5.22787v24.3286h-5.22787zM161.3773.00691c1.6093 0 2.91593 1.30716 2.91593 2.91552 0 1.6077-1.30664 2.915-2.91593 2.915-1.60796 0-2.91326-1.3073-2.91326-2.915 0-1.60836 1.3053-2.91552 2.91326-2.91552m27.84597 17.5401c-1.1053-3.71858-3.87057-5.67947-7.18782-5.67947-3.31858 0-6.03052 2.06088-6.8865 5.67946zm4.82521 9.39922c-2.9146 3.66924-6.93716 5.88012-11.31038 5.93119-8.49312 0-13.41967-6.3801-13.41967-12.81635 0-6.43317 4.92655-12.81848 13.41967-12.81848 5.0772 0 12.61702 4.17283 12.61702 13.6726v.9557h-20.20617c.30266 3.72018 3.77058 6.38158 7.43849 6.38158 2.81592 0 5.22786-1.35464 7.03715-3.76964l4.4239 2.4634"/><path fill="#231f20" d="M45.01247 58.50904h-5.90091v-5.90292h5.90091v5.90292m-8.23739 20.38752H30.8743V72.9936h5.9008v5.90297m24.7103-40.77607h-5.90238v-5.89986h5.90239v5.89986"/><path fill="#63a1d9" d="M53.24814 58.50904h-5.90199v-5.90292h5.90199v5.90292m0-13.59446h-5.90199v-5.89985h5.90199v5.89985m-8.23567 27.18423h-5.90145v-5.9009h5.90145v5.9009m0-33.97832h-5.90145v-5.89986h5.90145v5.89986m-8.23739 27.18265H30.8743v-5.90092h5.9008v5.90092m0-20.38856h-5.9008v-5.89985h5.9008v5.89985m24.7103 6.7957h-5.90345v-5.89985h5.90346v5.89985m0 13.59286h-5.90346v-5.90092h5.90346v5.90092"/><path fill="#231f20" d="M56.14966 10.19825c-1.65316.224-3.62857.44532-5.84052.66665V7.66191c2.13275.1848 4.1359.4036 5.84052.66665zm0 13.13514c-3.17178 1.1921-7.5342 2.36194-12.44555 3.63378V13.3727c4.91134-.51826 9.27377-.99998 12.44555-1.4885zm-13.46326 3.8967c-3.67378.94798-7.61381 1.96355-11.56478 3.08326v-2.3838s-.90678-.00308-2.38954-.038V15.02572c4.73948-.57238 9.54043-1.0781 13.95432-1.54423zm-15.07562.62759c-2.9182-.09373-7.28835-.3176-11.70651-.84478V16.86848c3.63644-.64065 7.63154-1.2005 11.7065-1.70569zm-12.93048-.99891C8.47739 26.03492 2.47754 24.57816.60988 22.00369c1.75569-2.05728 7.15867-3.64058 14.07042-4.91494zm21.79332-15.64121V6.9182c1.1645.0364 2.42074.08066 3.73377.1328v4.49468c-1.31303-.13026-2.56926-.23959-3.73377-.32812zm-.50999-.03653c-1.23636-.0896-2.353-.1572-3.29565-.20666V6.81914c.94265.01986 2.05929.04853 3.29565.08333zm4.85415-4.10137c1.09624.04573 2.22488.10147 3.36285.16293v4.2083a977.41577 977.41577 0 0 0-2.61287.24212c-.24906-.02866-.50265-.0588-.74998-.08586zm4.07376.20306c1.54797.086 3.0994.19013 4.60256.31146v3.35245c-1.45157.1448-2.99313.28653-4.60256.44013zm12.17677 1.1953c1.49063.26453 2.6734.56666 3.43591.91398-.74785.2344-1.92235.46093-3.43591.67972zm4.36975 1.80356v-1.4765c0-2.80206-31.92733-3.05872-31.92733-3.05872v1.02078s1.0437.0068 2.74886.04426v4.14057c-1.70515-.08187-2.74886-.1068-2.74886-.1068v.51199s4.0035.09626 9.1727.60251C21.1916 13.58203 0 15.78771 0 20.27973v3.19006c0 3.52604 4.99936 5.63372 10.98983 6.90089v38.06937C4.99936 65.3526 0 60.2022 0 51.60615v4.0191c0 23.29527 31.12162 23.29527 31.12162 23.29527v-5.86235s-9.87628 0-18.50163-3.83323V30.6884c8.62535 1.57436 18.50163 1.57436 18.50163 1.57436v.23026c15.22415-4.68215 30.31644-7.58475 30.31644-11.81997v-1.24744c0 1.28384-1.63902 2.43127-4.36975 3.55045V11.73728c2.73073-.45826 4.36975-.92864 4.36975-1.4557"/><path fill="#63a1d9" d="M36.47362 11.21756c1.1645.08853 2.42074.19786 3.73377.32812V7.051c-1.31303-.05214-2.56926-.0964-3.73377-.1328zm-3.80564-.2432c.94265.04947 2.05929.11707 3.29565.20667V6.90247c-1.23636-.0348-2.353-.06347-3.29565-.08333zm-3.15725-.1292s1.0437.02494 2.74886.1068V6.8114c-1.70515-.03746-2.74886-.04426-2.74886-.04426zm20.79841.01974c2.21195-.22133 4.18736-.44265 5.84052-.66665V8.32856c-1.70462-.26306-3.70777-.48185-5.84052-.66665zm-9.49136.74225c.24733.02707.50092.0572.74998.08586a977.41577 977.41577 0 0 1 2.61287-.24212v-4.2083c-1.13797-.06146-2.26661-.1172-3.36285-.16293zm16.25053-3.12912v1.5937c1.51356-.2188 2.68806-.44533 3.43591-.67973-.76251-.34732-1.94528-.64945-3.43591-.91397zm-12.17677 2.90873c1.60943-.1536 3.151-.29533 4.60256-.44013V7.59418c-1.50317-.12133-3.0546-.22546-4.60256-.31146v4.10404m12.17677.35052v11.23879c2.73073-1.11918 4.36975-2.26661 4.36975-3.55045v-9.14404c0 .52706-1.63902.99744-4.36975 1.4557zM43.7041 26.96717c4.91134-1.27184 9.27377-2.44168 12.44555-3.63378V11.88421c-3.17178.48852-7.5342.97024-12.44555 1.4885zm-14.97203.92437c1.48276.03493 2.38954.038 2.38954.038v2.3838c3.95097-1.1197 7.891-2.13527 11.56478-3.08325V13.4815c-4.41389.46612-9.21484.97185-13.95432 1.54423zm-12.82781-.87864c4.41816.52718 8.78831.75105 11.7065.84478V15.16279c-4.07496.5052-8.07006 1.06504-11.7065 1.7057zM.60988 22.00369c1.86766 2.57447 7.8675 4.03123 14.07042 4.85508v-9.77002C7.76855 18.3631 2.36557 19.9464.60988 22.00369M12.62 30.68841v38.53653c8.62535 3.83323 18.50163 3.83323 18.50163 3.83323v-40.7954s-9.87628 0-18.50163-1.57436zM0 23.46979v28.13636c0 8.59605 4.99936 13.74646 10.98983 16.8339V30.37068C4.99936 29.10351 0 26.99583 0 23.46978"/></svg>