<svg xmlns="http://www.w3.org/2000/svg" role="img" viewBox="-3.91 -3.91 203.06 86.56"><title>MovieLabs logo</title><path fill="#231f20" d="M72.057 38.155v19.424c0 2.514.537 3.411 1.93 4.219l2.51 1.432-2.061 3.681c-4.803-2.286-7.045-3.947-7.045-8.477v-20.28h4.666m17.139 24.363c3.681 0 6.82-3.14 6.82-7.048 0-3.9-3.139-7.044-6.82-7.044-3.768 0-6.912 3.143-6.912 7.044 0 3.907 3.144 7.048 6.912 7.048zm6.64 1.167h-.09c-1.48 1.97-4.172 3.227-7.133 3.227-7.135 0-11.261-5.83-11.261-11.442 0-5.338 4.442-11.44 11.484-11.44 3.232 0 5.7 1.394 6.91 3.231h.09v-2.647h4.665v21.716h-4.665v-2.645m22.031-15.259c-3.906 0-6.776 3.009-6.776 7.044 0 4.04 2.87 7.048 6.776 7.048 3.903 0 6.775-3.008 6.775-7.048 0-4.035-2.872-7.044-6.775-7.044zm-11.44-10.27h4.664v9.105h.09c1.122-1.796 4.04-3.23 7.09-3.23 5.654 0 11.307 4.174 11.307 11.44 0 7.272-5.653 11.441-11.308 11.441-3.05 0-5.967-1.435-7.09-3.227h-.089v2.645h-4.664V38.155m28.578 21.712c1.66 1.796 4.398 3.187 6.82 3.187 2.694 0 4.308-1.526 4.308-2.738 0-1.435-1.122-2.198-2.828-2.514l-2.646-.492c-6.102-1.121-7.807-3.097-7.807-6.192 0-3.678 3.097-7.089 8.527-7.089 3.004 0 5.652.898 8.613 3.009l-2.648 3.273c-2.287-1.927-4.308-2.422-5.832-2.422-2.017 0-3.993.99-3.993 2.737 0 1.3 1.032 1.975 2.826 2.29l4.712.894c3.856.718 5.742 2.56 5.742 5.79 0 3.184-2.602 7.311-9.198 7.311-3.678 0-6.821-1.3-9.78-3.81l3.184-3.234"/><path fill="#63a1d9" d="M67.391 16.992c0-6.182 4.122-9.751 8.896-9.751 3.67 0 6.334 1.761 7.288 4.324h.102c.954-2.563 3.618-4.324 7.287-4.324 4.776 0 8.896 3.569 8.896 9.75v15.234h-5.226V17.043c0-2.916-1.86-4.572-4.021-4.572-2.514 0-4.373 1.508-4.373 5.274v14.48h-5.227v-14.48c0-3.766-1.86-5.274-4.374-5.274-2.16 0-4.022 1.656-4.022 4.572v15.182h-5.226V16.992m50.715 10.96c4.574 0 7.892-3.52 7.892-7.892 0-4.373-3.318-7.892-7.892-7.892-4.573 0-7.89 3.52-7.89 7.892s3.317 7.892 7.89 7.892zm0-20.711c8.496 0 13.422 6.385 13.422 12.819 0 6.436-4.926 12.816-13.422 12.816-8.493 0-13.419-6.38-13.419-12.816 0-6.434 4.926-12.82 13.42-12.82m14.827.655h5.83l5.377 13.923h.103l5.377-13.923h5.83l-11.259 24.981-11.258-24.98m25.834-.001h5.228v24.33h-5.228zm2.613-7.89a2.918 2.918 0 0 1 2.916 2.916 2.918 2.918 0 0 1-2.916 2.915 2.916 2.916 0 0 1 0-5.831m27.847 17.54c-1.105-3.718-3.87-5.68-7.188-5.68-3.319 0-6.03 2.062-6.887 5.68zm4.825 9.4c-2.914 3.67-6.937 5.88-11.31 5.931-8.494 0-13.42-6.38-13.42-12.816 0-6.434 4.926-12.82 13.42-12.82 5.077 0 12.617 4.174 12.617 13.674v.955h-20.207c.303 3.72 3.771 6.382 7.439 6.382 2.816 0 5.228-1.354 7.037-3.77l4.424 2.464"/><path fill="#231f20" d="M45.014 58.509h-5.901v-5.904h5.9v5.904m-8.237 20.388h-5.9v-5.904h5.9v5.904M61.487 38.12h-5.903v-5.9h5.903v5.9"/><path fill="#63a1d9" d="M53.25 58.509h-5.903v-5.904h5.902v5.904m.001-13.595h-5.903v-5.9h5.902v5.9m-8.235 27.185h-5.902v-5.901h5.902v5.9m0-33.978h-5.902v-5.9h5.902v5.9m-8.238 27.183h-5.9v-5.901h5.9v5.9m0-20.388h-5.9v-5.9h5.9v5.9m24.711 6.796h-5.904v-5.9h5.904v5.9m0 13.593h-5.904v-5.901h5.904v5.9"/><path fill="#231f20" d="M56.151 10.197c-1.653.224-3.629.445-5.84.666V7.66c2.132.185 4.135.404 5.84.667zm0 13.135c-3.172 1.192-7.534 2.362-12.446 3.634V13.37c4.912-.518 9.274-1 12.446-1.488zm-13.464 3.897c-3.673.948-7.614 1.963-11.565 3.083v-2.384s-.906-.003-2.39-.038V15.024c4.74-.572 9.541-1.078 13.955-1.544zm-15.076.627c-2.918-.093-7.288-.317-11.706-.844V16.867c3.636-.64 7.631-1.2 11.706-1.706zm-12.93-.999C8.478 26.034 2.478 24.577.61 22.002c1.756-2.057 7.159-3.64 14.07-4.915zm21.794-15.641v-4.3c1.164.037 2.42.081 3.733.133v4.495c-1.313-.13-2.569-.24-3.733-.328zm-.51-.037c-1.237-.09-2.354-.157-3.296-.206V6.817c.942.02 2.06.049 3.296.084zm4.854-4.101c1.096.046 2.225.101 3.363.163v4.208c-.857.078-1.726.159-2.613.242l-.75-.086zm4.074.203c1.548.086 3.1.19 4.602.311v3.353c-1.451.145-2.993.286-4.602.44zM57.07 8.476c1.49.265 2.673.567 3.436.914-.748.235-1.923.461-3.436.68zm4.37 1.804V8.803c0-2.802-31.929-3.058-31.929-3.058v1.02s1.044.007 2.75.045v4.14c-1.706-.082-2.75-.107-2.75-.107v.512s4.004.097 9.173.603C21.192 13.58 0 15.786 0 20.278v3.19c0 3.527 5 5.634 10.99 6.901v38.07C5 65.353 0 60.203 0 51.606v4.02C0 78.92 31.122 78.92 31.122 78.92v-5.863s-9.876 0-18.502-3.833V30.687c8.626 1.575 18.502 1.575 18.502 1.575v.23c15.225-4.682 30.318-7.585 30.318-11.82v-1.248c0 1.284-1.64 2.431-4.37 3.55V11.737c2.73-.459 4.37-.93 4.37-1.456"/><path fill="#63a1d9" d="M36.475 11.216c1.164.088 2.42.198 3.733.328V7.049a479.783 479.783 0 0 0-3.733-.133zm-3.806-.243c.942.05 2.06.117 3.296.206V6.901a480.653 480.653 0 0 0-3.296-.084zm-3.158-.13s1.044.025 2.75.107V6.81c-1.706-.038-2.75-.045-2.75-.045zm20.8.02c2.211-.221 4.187-.442 5.84-.666v-1.87c-1.705-.263-3.708-.482-5.84-.667zm-9.492.742l.75.086a977.44 977.44 0 0 1 2.613-.242V7.241a275.884 275.884 0 0 0-3.363-.163zm16.25-3.129v1.594c1.514-.219 2.689-.445 3.437-.68-.763-.347-1.946-.65-3.436-.914zm-12.176 2.91c1.61-.155 3.15-.296 4.602-.441V7.592a185.326 185.326 0 0 0-4.602-.311v4.104m12.177.351v11.239c2.73-1.12 4.37-2.267 4.37-3.55V10.28c0 .527-1.64.997-4.37 1.456zm-13.365 15.23c4.912-1.272 9.274-2.442 12.446-3.634v-11.45c-3.172.49-7.534.97-12.446 1.49zm-14.972.924c1.483.035 2.39.038 2.39.038v2.384c3.95-1.12 7.89-2.135 11.564-3.083v-13.75c-4.414.467-9.215.973-13.954 1.545zm-12.828-.878c4.418.527 8.788.75 11.706.844V15.161c-4.075.505-8.07 1.065-11.706 1.706zM.61 22.002c1.868 2.575 7.868 4.032 14.07 4.855v-9.77C7.77 18.362 2.367 19.945.61 22.002m12.01 8.685v38.538c8.626 3.833 18.502 3.833 18.502 3.833V32.262s-9.876 0-18.502-1.575zM0 23.468v28.137c0 8.597 5 13.747 10.99 16.835V30.37C5 29.101 0 26.994 0 23.467"/></svg>