<svg xmlns="http://www.w3.org/2000/svg" role="img" viewBox="-24.22 -24.22 1071.44 1259.44"><title>mrv2 logo</title><style>svg {clip-rule:evenodd;fill-rule:evenodd;stroke-linejoin:round;stroke-miterlimit:2}</style><g id="g26" transform="translate(-2248)"><g id="Icon_SVG" transform="translate(2248)"><path id="rect2" fill="none" stroke-width="1" d="M0 0h1022.596v1297.997H0z"/><g id="Eyeball" transform="matrix(10.8601 0 0 8.21726 -216.29 -85.978)"><path id="path7" fill="url(#_Linear2)" d="M67.061 50.138c16.131.229 29.872 15.682 34.071 20.919.352.453.552 1.074.556 1.723.004.649-.189 1.273-.536 1.734-4.127 5.303-17.657 20.89-34.091 20.89-16.144 0-29.893-15.628-34.081-20.911-.349-.456-.547-1.076-.548-1.725-.001-.648.193-1.271.541-1.729 4.178-5.331 17.936-21.13 34.088-20.901z"/></g><g id="Iris" transform="matrix(10.1107 0 0 9.9367 -233.261 -198.598)"><circle id="circle10" cx="73.71" cy="70.706" r="21.561" fill="url(#_Linear3)"/></g><g id="Eyeball1" transform="matrix(10.8601 0 0 8.21726 -216.29 -85.978)"><path id="path13" fill="url(#_Radial4)" d="M67.061 50.138c16.131.229 29.872 15.682 34.071 20.919.352.453.552 1.074.556 1.723.004.649-.189 1.273-.536 1.734-4.127 5.303-17.657 20.89-34.091 20.89-16.144 0-29.893-15.628-34.081-20.911-.349-.456-.547-1.076-.548-1.725-.001-.648.193-1.271.541-1.729 4.178-5.331 17.936-21.13 34.088-20.901z"/></g><g id="Play-Symbol" transform="rotate(90 649.741 486.519) scale(9.9584)"><path id="path16" fill="url(#_Linear5)" d="M67 47c2.425 0 14.203 20.4 12.99 22.5-1.212 2.1-24.768 2.1-25.98 0C52.797 67.4 64.575 47 67 47z"/></g><g id="Square-Fill" transform="translate(19.884 19.884) scale(7.68932)"><path id="path19" fill="url(#_Linear6)" d="M128 29.091v69.818C128 114.965 114.965 128 98.909 128H29.091C13.035 128 0 114.965 0 98.909V29.091C0 13.035 13.035 0 29.091 0h69.818C114.965 0 128 13.035 128 29.091zM64 39.813c-22.813-.244-42.243 16.639-48.145 22.337-.491.489-.766 1.154-.764 1.847.002.693.281 1.356.775 1.843C21.78 71.486 41.2 88.187 64 88.187c23.212 0 42.32-16.657 48.15-22.325.489-.492.761-1.159.756-1.853-.005-.693-.288-1.356-.785-1.84-5.93-5.597-25.338-22.111-48.121-22.356z"/></g><g id="Square-Outline" transform="scale(8)"><path id="path22" fill="url(#_Linear7)" d="M128 27.961v72.078C128 115.471 115.471 128 100.039 128H27.961C12.529 128 0 115.471 0 100.039V27.961C0 12.529 12.529 0 27.961 0h72.078C115.471 0 128 12.529 128 27.961zm-8.577 0c0-10.698-8.686-19.384-19.384-19.384H27.961c-10.698 0-19.384 8.686-19.384 19.384v72.078c0 10.698 8.686 19.384 19.384 19.384h72.078c10.698 0 19.384-8.686 19.384-19.384z"/></g><g id="text231" fill-rule="evenodd" stroke-linejoin="round" stroke-miterlimit="2" clip-rule="evenodd"><path id="path337" d="M423.49447 1106.9976q17.472 0 26.112 9.024 8.64 8.832 8.64 28.8v67.008h-16.704v-66.24q0-24.384-20.928-24.384-14.976 0-21.504 8.64-6.336 8.64-6.336 25.152v56.832h-16.704v-66.24q0-24.384-21.12-24.384-15.552 0-21.504 9.6-5.952 9.6-5.952 27.648v53.376h-16.896v-102.912h13.632l2.496 14.016h.96q4.8-8.064 12.864-11.904 8.256-4.032 17.472-4.032 24.192 0 31.488 17.28h.96q5.184-8.832 14.016-13.056 9.024-4.224 19.008-4.224z"/><path id="path339" d="M538.11837 1106.9976q2.88 0 6.144.384 3.456.192 5.952.768l-2.112 15.552q-2.496-.576-5.568-.96-2.88-.384-5.568-.384-7.872 0-14.784 4.416-6.912 4.224-11.136 12.096-4.032 7.68-4.032 18.048v54.912h-16.896v-102.912h13.824l1.92 18.816h.768q4.992-8.448 12.864-14.592 7.872-6.144 18.624-6.144z"/><path id="path341" d="M592.07039 1211.8296l-38.976-102.912h18.048l21.888 60.672q1.536 4.224 3.264 9.408 1.728 5.184 3.072 9.984 1.344 4.608 1.92 7.872h.768q.768-3.264 2.112-8.064 1.536-4.8 3.264-9.984 1.92-5.184 3.264-9.216l21.888-60.672h18.048l-39.168 102.912z"/><path id="path343" d="M750.47028 1211.8296h-90.624v-14.016l35.904-36.288q10.368-10.368 17.472-18.432 7.104-8.064 10.752-15.744 3.648-7.872 3.648-17.088 0-11.328-6.72-17.088-6.72-5.952-17.472-5.952-9.984 0-17.664 3.456-7.488 3.456-15.36 9.6l-9.024-11.328q8.064-6.72 18.432-11.328 10.56-4.8 23.616-4.8 19.2 0 30.336 9.792 11.136 9.6 11.136 26.688 0 10.752-4.416 20.16t-12.288 18.624q-7.872 9.024-18.432 19.392l-28.608 28.224v.768h69.312z"/></g></g></g><defs id="defs67"><linearGradient id="_Linear2" x1="0" x2="1" y1="0" y2="-.1" gradientTransform="matrix(21.8752 51.5377 -35.6413 32.8205 57.776 43.866)" gradientUnits="userSpaceOnUse"><stop id="stop29" offset="0" stop-color="#fbfbfb" stop-opacity="1"/><stop id="stop31" offset=".6" stop-color="#fafafa" stop-opacity="1"/><stop id="stop33" offset="1" stop-color="#dadada" stop-opacity="1"/></linearGradient><linearGradient id="_Linear3" x1="0" x2="1" y1="0" y2=".014" gradientTransform="rotate(61.546 -8.71 74.827) scale(54.1628)" gradientUnits="userSpaceOnUse"><stop id="stop36" offset="0" stop-color="#f5d078" stop-opacity="1"/><stop id="stop38" offset="1" stop-color="#f68e79" stop-opacity="1"/></linearGradient><linearGradient id="_Linear5" x1="0" x2="1" y1="0" y2="0" gradientTransform="matrix(22.5179 -14.8618 22.0139 33.3543 53.922 69.716)" gradientUnits="userSpaceOnUse"><stop id="stop48" offset="0" stop-color="#3c3c3c" stop-opacity="1"/><stop id="stop50" offset=".55" stop-color="#323232" stop-opacity="1"/><stop id="stop52" offset="1" stop-color="#0f0f0f" stop-opacity="1"/></linearGradient><linearGradient id="_Linear6" x1="0" x2="1" y1="0" y2="0" gradientTransform="rotate(51.582 -.231 26.595) scale(138.8)" gradientUnits="userSpaceOnUse"><stop id="stop55" offset="0" stop-color="#3c3c3c" stop-opacity="1"/><stop id="stop57" offset=".45" stop-color="#333" stop-opacity="1"/><stop id="stop59" offset="1" stop-color="#1d1d1d" stop-opacity="1"/></linearGradient><linearGradient id="_Linear7" x1="0" x2="1" y1="0" y2="0" gradientTransform="rotate(45.815 -3.637 17.028) scale(154.426)" gradientUnits="userSpaceOnUse"><stop id="stop62" offset="0" stop-color="#f5d078" stop-opacity="1"/><stop id="stop64" offset="1" stop-color="#f68e79" stop-opacity="1"/></linearGradient><radialGradient id="_Radial4" cx="0" cy="0" r="1" gradientTransform="matrix(0 -65.2603 49.3788 0 67.06 114.477)" gradientUnits="userSpaceOnUse"><stop id="stop41" offset="0" stop-color="#000" stop-opacity="0"/><stop id="stop43" offset=".9" stop-color="#000" stop-opacity=".03"/><stop id="stop45" offset="1" stop-color="#000" stop-opacity=".33"/></radialGradient></defs></svg>