<svg xmlns="http://www.w3.org/2000/svg" role="img" viewBox="-3.49 -9.49 909.48 691.48"><title>Munki logo</title><defs><style>.cls-2{fill:#fff}.cls-3{fill:#b7702f}</style><clipPath id="clip-path"><ellipse cx="458.376" cy="146.483" fill="none" rx="199.552" ry="59.764"/></clipPath></defs><ellipse cx="140.841" cy="225.112" rx="126.62" ry="94.598"/><path d="M45.98 218.999c2.309-26.063 41.85-50.388 38.58-48.338 0 0-18.747 22.754-21.933 52.724-1.717 16.145 4.804 45.45 4.804 45.45S43.397 248.15 45.98 218.999z" class="cls-2"/><ellipse cx="770.168" cy="234.195" rx="120.784" ry="90.237" transform="rotate(-16.402 770.168 234.195)"/><path d="M858.62 214.236c4.908 24.472-24.723 57.383-22.283 54.626 0 0 11.026-25.872 5.87-54.155-2.78-15.236-16.64-40.296-16.64-40.296s27.565 12.454 33.054 39.825z" class="cls-2"/><ellipse cx="457.452" cy="252.304" rx="364.568" ry="165.708"/><ellipse cx="219.744" cy="238.898" class="cls-2" rx="119.629" ry="81.139"/><path d="M219.744 321.292c-66.655 0-120.883-36.962-120.883-82.394s54.228-82.393 120.883-82.393 120.884 36.961 120.884 82.393-54.228 82.394-120.884 82.394zm0-162.278c-65.272 0-118.374 35.836-118.374 79.884s53.102 79.885 118.374 79.885 118.375-35.836 118.375-79.885-53.102-79.884-118.375-79.884z" class="cls-3"/><ellipse cx="678.849" cy="239.971" class="cls-2" rx="119.629" ry="81.139"/><path d="M678.849 322.365c-66.655 0-120.883-36.962-120.883-82.394s54.228-82.394 120.883-82.394c66.656 0 120.884 36.962 120.884 82.394s-54.228 82.394-120.884 82.394zm0-162.279c-65.272 0-118.374 35.836-118.374 79.885 0 44.049 53.102 79.885 118.374 79.885 65.273 0 118.375-35.836 118.375-79.885 0-44.049-53.102-79.885-118.375-79.885z" class="cls-3"/><ellipse cx="449.114" cy="431.797" class="cls-2" rx="225.237" ry="154.685"/><path d="M449.115 588.991c-60.665 0-117.732-16.247-160.687-45.748-43.244-29.697-67.06-69.277-67.06-111.446s23.816-81.75 67.06-111.447c42.955-29.5 100.022-45.747 160.687-45.747 60.664 0 117.73 16.246 160.685 45.747 43.244 29.697 67.06 69.277 67.06 111.447s-23.816 81.749-67.06 111.446c-42.954 29.5-100.02 45.748-160.685 45.748zm0-309.37c-122.813 0-222.729 68.265-222.729 152.176s99.916 152.176 222.729 152.176c122.812 0 222.727-68.266 222.727-152.176S571.927 279.62 449.115 279.62z" class="cls-3"/><ellipse cx="449.114" cy="467.656" rx="82.535" ry="79.851"/><ellipse cx="425.808" cy="324.169" rx="10.99" ry="15.213"/><ellipse cx="472.421" cy="324.169" rx="10.99" ry="15.213"/><circle cx="619.81" cy="259.43" r="40.953"/><circle cx="612.874" cy="249.701" r="12.27" class="cls-2"/><circle cx="279.129" cy="258.16" r="40.953"/><circle cx="288.452" cy="260.701" r="12.27" class="cls-2"/><path d="M340.602 8.528c2.833-2.732 42.434 30.832 76.259 68.593s65.516 86.26 65.516 86.26l-4.428 11.03s-61.823-67.079-77.691-83.845c-9.348-11.808-60.846-49.2-61.338-53.135s-3.52-23.886 1.682-28.903zm87.164 2.827c1.847-1.08 16.253 18.038 30.995 41.328s26.251 62.14 26.251 62.14l-7.177 5.515s-24.488-41.3-31.489-51.718c-3.95-7.172-26.344-31.968-26.254-34.122s2.411-20.067 7.674-23.143z"/><g clip-path="url(#clip-path)"><path d="M340.602 8.528c2.833-2.732 42.434 30.832 76.259 68.593s65.516 86.26 65.516 86.26l-4.428 11.03s-61.823-67.079-77.691-83.845c-9.348-11.808-59.575-49.2-60.067-53.135s-4.79-23.886.41-28.903zm87.164 2.827c1.847-1.08 16.253 18.038 30.995 41.328s26.251 62.14 26.251 62.14l-7.177 5.515s-24.488-41.3-31.489-51.718c-3.95-7.172-26.344-31.968-26.254-34.122s2.411-20.067 7.674-23.143z" class="cls-2"/></g><path d="M515.648 619.464v44.615h15.444v-43.254l-1.361-1.361h-14.083zM302.34 632.796h-.002c-12.591-3.567-25.778-.102-31.762 5.344a9.707 9.707 0 0 0-5.084-6.579c-3.45-1.672-13.42-.442-16.707.527a41.82 41.82 0 0 0-11.123 5.511v-6.123H225.65v32.61l11.84-.096.169-18.357c1.47-1.455 3.728-3.642 4.225-4.004 3.273-2.384 8.935-4.362 12.375-3.366a3.506 3.506 0 0 1 2.475 2.113c2 4.96 1.592 22.646 1.587 22.824l-.02.88h13.68v-17.757c2.402-4.116 8.046-7.814 13.24-8.649 2.29-.363 5.512-.343 7.895 1.849.584.536.694 2.084.654 2.792l-.213 21.764h13.617l.018-.841c.003-.134.267-13.569-.195-21.533-.297-5.118-1.864-8.114-4.658-8.909zm79.463 16.124c-2.367 1.127-12.93 6.07-20.835 8.398-11.1 3.276-19.455 1.81-21.282-3.734-1.74-5.282-.794-21.039-.784-21.196l.056-.912h-15.447l-.05.804c-.038.632-.945 15.513.013 20.831a14.86 14.86 0 0 0 1.904 4.657c2.63 3.117 7.132 5.237 13.382 6.3a52.928 52.928 0 0 0 8.784.675 83.102 83.102 0 0 0 22.494-3.241c2.22-.665 9.032-3 11.765-3.941v6.518h13.728v-32.603h-13.728zm92.759-18.185c-.708-.023-1.458-.055-2.244-.089-5.343-.222-12.657-.53-19.767 1.044-4.168.924-15.62 4.404-19.269 5.522v-5.736h-15.309l-.135 3.432v29.183l15.444-.206v-18.92c1.682-.658 6.79-2.662 8.92-3.577a97.157 97.157 0 0 1 13.565-3.958c15.167-3.21 17.864 5.893 17.983 6.32 1.44 4.498.79 19.284.784 19.433l-.04.896h15.381l.033-.824c.026-.655.62-16.102-.851-21.767-1.299-5.005-5.788-10.46-14.495-10.753zm88.528 12.642l24.083-9.386-.262-1.655-14.768-.87-40.833 15.427 42.359 17.124.156.062 14.687-.033.338-1.646-35.7-15.412 9.94-3.611zm104.235 15.554h-21.262v-24.037l-.056-3.418h-39.412v5.148h23.995l.029 27.455h37.992l-1.286-5.148z"/><ellipse cx="637.042" cy="623.057" rx="10.495" ry="3.851"/></svg>