<svg xmlns="http://www.w3.org/2000/svg" role="img" viewBox="-6.59 51.41 472.68 354.18"><title>Munki logo</title><path fill="#E4DFD9" stroke="#E4DFD9" d="M160.5 61l-1 2 1-2zm3 0l1 2-1-2zm47 5l2 3-2-3zm-51 5l2.5 3.5-3-2 .5-1.5zm17 1l1 2-1-2zm-13 3l2 3-2-3zm17 1l3 4-3-4zm24 0l1 2-1-2zm14 1l1 2-1-2zm-51 1l1 2-1-2zm3 2l1 2-1-2zm38 0l2 3-2-3zm12 0l1 2-1-2zm-45 4l2 3-2-3zm37 1l2 3-2-3zm11 0l1.5 2.5h-1l-.5-2.5zm-43 3l2 3-2-3zm36 2l2.5 3.5-2-1-.5-2.5zm-20 2l5 6-5-6zm-9 2l3 4-3-4zm32 1l1 2-1-2zm10 3l10.5.5-10.5.5v-1zm-37 1l1 2-4.5-.5 3.5-1.5zm13 0l5.5.5-5.5.5v-1zm45 0l5.5.5-5.5.5v-1zm16 1l4.5.5-4.5.5v-1zm-84 1l2.5.5-2.5.5v-1zm93 0l3.5.5-3.5.5v-1zm-102 1l2.5.5-2.5.5v-1zm112 0l2.5.5-2.5.5v-1zm-118 1l2.5.5-2.5.5v-1zm36 0l3.5 1.5-1.5-.5q-3 .5-2-1zm-43 1l2.5.5-2.5.5v-1zm38 0l1 2-1-2zm100 0l2.5.5-2.5.5v-1zm-90 2l1 2-1-2zm100 0l2.5.5-2.5.5v-1zm-106 2l3 4-3-4zm8 1l2 3-2-3zm110 0l2.5.5-2.5.5v-1zm-113 4l1 2-1-2zm24 1l1 2 1-2 .5 1.5q-1.5 3-3 0l.5-1.5zm107 0l3.5 1.5-1.5.5-2-2zm-123 1l1 2-1-2zm-4 3l3 4-3-4zm150 5l2.5 1.5-1.5-.5-1-1zm-299 1l8.5.5-8.5.5v-1zm154 0l1 2-1-2zm-165 1l2.5.5-2.5.5v-1zm28 0l2.5.5-2.5.5v-1zm145 2l1 2-1-2zm-5 1l5.5 6.5-4-3-1.5-3.5zm165 0l2.5.5-2.5.5v-1zm17 0l2.5.5-2.5.5v-1zm8 1l2.5.5-2.5.5v-1zm-181 4l2 3-2-3zm-3 3l1 2-1-2zm-204 1l-3 4 3-4zm411 0l1 2-1-2zm3 2l1 2-1-2zm-336 2l8.5.5-8.5.5v-1zm15 0l8.5.5-8.5.5v-1zm225 0l8.5.5-8.5.5v-1zm15 0l7.5.5-7.5.5v-1zm-229 1l2.5.5-2.5.5v-1zm104 0l1 2-1-2zm104 0l2.5.5-2.5.5v-1zm32 0l2.5.5-2.5.5v-1zm-276 1l2.5.5-2.5.5v-1zm40 0l3.5.5-3.5.5v-1zm199 0l3.5.5-3.5.5v-1zm41 0l2.5.5-2.5.5v-1zm72 0l1 2-1-2zm-409 3l1.5.5-2 1 .5 1.5q-3-1.5 0-3zm412 0l3 4-3-4zm-433 1l-1 2 1-2zm131 0l3.5 1.5-1.5.5-2-2zm-67 1l1.5.5-6.5 3.5 1-2 4-2zm350 0l1.5 2.5-2-1 .5-1.5zm-397 1l-3 4 3-4zm123 2l2.5 1.5-1.5.5-1-2zm158 0l-1 2 1-2zm82 0l5.5 4.5-3.5-2.5-2-2zm38 0l1 2-1-2zm-363 2l-4 5-4 3 3-4 5-4zm240 0l-2 3 2-3zm-282 1l-2 3 2-3zm133 1l5.5 4.5-1.5-.5-4-4zm145 1l-3 4 3-4zm96 0l1 2-1-2zm54 1l1 2-1-2zm-289 4l2 3-2-3zm134 0l-1 2 1-2zm106 0l1 2-1-2zm-346 1l-2 3 2-3zm-54 1l.5 3.5H3l.5-3.5zm292 1l-1 2 1-2zm110 0l2 3-2-3zm-239 1l2.5 3.5h-1l-1.5-3.5zm-112 1l-.5 1.5-1.5 2.5.5-1.5 1.5-2.5zm239 1l.5 1.5-2.5 3.5-.5-1.5 2.5-3.5zm163 0l.5 3.5h-1l.5-3.5zm-48 1l1.5 3.5h-1l-.5-3.5zm26 2l.5 2.5h-1l.5-2.5zm-431 3l.5 2.5H3l.5-2.5zm168 2l.5 2.5h-1l.5-2.5zm118 1l.5 2.5h-1l.5-2.5zm122 0l.5 3.5h-1l.5-3.5zm45 0l.5 3.5h-1l.5-3.5zm-329 1l-2 3 2-3zm-78 1l.5 7.5h-1l.5-7.5zm256 1l-1 2 1-2zm-147 1l1 2-1-2zm-34 1l-1 2 1-2zm-118 3l1 2-1-2zm405 0l.5 3.5h-1l.5-3.5zm-389 1l2 3-2-3zm267 0l.5 2.5h-1l.5-2.5zm-118 1l.5 2.5h-1l.5-2.5zm-145 1l1.5 3.5-2-1 .5-2.5zm118 1l1.5.5-2.5 1.5 1-2zm-135 1l1 2-1-2zm111 0l.5 8.5h-1l.5-8.5zm170 0l.5 2.5h-1l.5-2.5zm24 0l4.5.5-4.5.5v-1zm96 0l.5 2.5-2.5 4.5-.5-1.5 2.5-5.5zm-90 2l1 2-1-2zm113 0l2.5.5-4 3 1.5-3.5zm-422 1l4 5-4-5zm280 1l1 2-1-2zm158 1l-1 2 1-2zm-396 2l1 2-1-2zm88 0l1.5 2.5-2-1 .5-1.5zm10 1l-2 3 2-3zm16 0l-1 2 1-2zm154 0l-1 2 1-2zm86 0l-1.5 2.5-8.5 9.5 7.5-8.5 2.5-3.5zm-113 1l7 8q1.3-2.2 2.5.5l-.5 1.5q2.3-.7 1.5 1.5l-10-9-.5-2.5zm-239 1l1 2-1-2zm286 0l.5 2.5h-1l.5-2.5zm104 0l-1 2 1-2zm-280 1l-1 2 1-2zm54 1l22.5.5-22.5.5v-1zm-162 1l5 6-5-6zm153 0l4.5.5-4.5.5v-1zm37 0l3.5.5-3.5.5v-1zm-84 1l-2 3-3 1 1-2 4-2zm40 0l4.5.5-4.5.5v-1zm50 0l4.5.5-4.5.5v-1zm187 0l-2 3 2-3zm-317 1l1 2-1-2zm75 0l2.5.5-2.5.5v-1zm-5 1l2.5.5-2.5.5v-1zm72 0l2.5.5-2.5.5v-1zm74 0l-1 2 1-2zm-310 1l2.5 1.5-1.5-.5-1-1zm96 1l3 4-3-4zm148 0l5.5 1.5-3.5.5-2-2zm-209 1l4.5 3.5-1.5-.5-3-3zm93 0l-2 3 2-3zm26 0l2.5.5-2.5.5v-1zm97 1l4.5 1.5-2.5.5-2-2zm151 0l-1 2-1.5-.5 2.5-1.5zm-255 1l2.5.5-4.5 1.5v-1l2-1zm218 0l-1 2-8 4v-1l9-5zm-86 1l1 2-1-2zm25 0l-1 2 1-2zm-289 1l2.5.5-2.5.5v-1zm26 0l3.5 2.5-1.5-.5-2-2zm-22 1l3.5 1.5 7 10.5 24.5 18 30.5 14.5-1.5 4.5-.5-3-29-12q1.1-2.7-1.5-2l-9-5L56 225.5l-9-11 1.5-1.5zm99.5 0l2 .5-2 1V213zm21.5 0l-1 2-3 1v-1l4-2zm122 0l2.5 1.5-1.5-.5-1-1zm20 0q2 2.8 6.5 2l-.5 2-5-2-1-2zM145 214q3-1 2 2l-3.5 1v-1q2.6.7 1.5-2zm-69.5 1l5.5 2.5-1.5.5-4-2v-1zm249 0l2.5.5-2.5.5v-1zm-184 2l1.5.5-3.5 1.5v-1l2-1zm82 0l2 3-2-3zm186 0l2.5.5-12.5 14.5q-21.2 17.6-49.5 27l2 10.5 2 3v18q-6.1 26.4-23.5 41.5l-3 2-17 13-25 11-30 7h-9l-1 1h-28l-1-1h-9l-16-3-24-8-16-8-21.5-16-9-11.5-7-12-4-14-1-13 1-1v-8l2.5-7.5.5 3.5q-3.4 7.6-2 20l4 17 7 13 9 11.5h2q-1.1 2.7 1.5 2 19.5 19.5 50 28l12 2 4 2 15 1 1 1h30l1-1 15-1 31-9 24-13 18.5-16.5 2-4.5q2.7 1.1 2-1.5 6.7-7.8 10-19l2-10v-17l-4-14 39-19.5q-1.1-2.7 1.5-2l9.5-7.5q-.7-2.2 1.5-1.5l8-9 2-1zm-169 1l-1 2 1-2zm63 0l1 2-1-2zm-217 1l2.5.5-2.5.5v-1zm240 0l2.5.5-2.5.5v-1zm48 0l2.5.5-2.5.5v-1zm-243 1l2.5.5-2.5.5v-1zm25 0l-1 2-2 1 1-2 2-1zm-62 1l4.5.5-4.5.5v-1zm31 0l4.5.5-4.5.5v-1zm125 0l.5 4.5h-1l.5-4.5zm84 0l3.5.5-3.5.5v-1zm31 0l3.5.5-3.5.5v-1zm-264 1l3.5.5-3.5.5v-1zm18 0l3.5.5-3.5.5v-1zm191 0l2 3-2-3zm30 0l4.5.5-4.5.5v-1zm18 0l4.5.5-4.5.5v-1zm-250 1l6.5.5-6.5.5v-1zm43 0l-1 2 1-2zm197 0l6.5.5-6.5.5v-1zm-200 2l-2 3-5 4 4-5 3-2zm166 0l4.5 3.5-2.5-1.5-2-2zm-89 2l-3 4 3-4zm14 0l3 4-3-4zm-22 2l1 2-1-2z"/><path fill="#E4DFD9" stroke="#E4DFD9" d="M320.5 231l3.5 2.5-2.5-1.5-1-1zm-183 2l-4.5 5.5-1.5 2.5-1.5-.5 2-.5 5.5-7zm190 4l4 5-4-5zm-198 5l-1.5 2.5-1.5 2.5.5-1.5 2.5-3.5zm203 1l3.5 4.5-2-1-1.5-3.5zm-207 5l-1 2 1-2zm-2 3l.5 1.5-2.5 3.5.5-1.5 1.5-3.5zm214 0l1 2-1-2zm2 3l1.5 2.5-2-1 .5-1.5zm-116 2l3.5.5-3.5.5v-1zm12 0l2.5.5-2.5.5v-1zm-115 1l.5 1.5-1.5 2.5-.5-1.5 1.5-2.5zm221 1l1.5 4.5h-1l-.5-4.5zm-94 1l1 2-1-2zm4 2l1 2-1-2zm-45 2l-1 2 1-2zm137 1l.5 2.5h-1l.5-2.5zm-86 1l2 3-2-3zm87 3l.5 2.5h-1l.5-2.5zm-83 1l2 3-2-3zm-145 1l.5 4.5h-1l.5-4.5zm229 2l.5 5.5h-1l.5-5.5zm-79 4l1 2-1-2zm79 3l.5 5.5h-1l.5-5.5zm-229 2l.5 5.5h-1l.5-5.5zm73 6l.5 2.5h-1l.5-2.5zm154 2l.5 3.5-1.5 2.5-.5-1.5 1.5-4.5zm-71 1l.5 3.5h-1l.5-3.5zm-154 2l.5 2.5h-1l.5-2.5zm70 3l.5 6.5h-1l.5-6.5zm152 4l.5 1.5-1.5 2.5-.5-1.5 1.5-2.5zm-219 2l1 2-1-2zm151 1l.5 3.5h-1l.5-3.5zm66 2l-1 2 1-2zm-2 3l-1 2 1-2zm-211 1l1 2-1-2zm209 2l-1 2 1-2zm-205 3l7.5 10 5 3.5-3.5-2.5-2.5-1.5-7-8 .5-1.5zm203 0l-1 2 1-2zm-2 3l-8 9 8-9zm-65 6l-1 2 1-2zm-69 1l2 3-2-3zm124 2l-2 3 2-3zm-177 2l8.5 6.5-1.5-.5q-5.5-1.8-7-6zm57 0l1 2-1-2zm3 3l2 3-2-3zm110 0l1.5.5-3.5 2.5 2-3zm-57 1l-1 2 1-2zm53 2l-1 2-2 1 1-2 2-1zm-154 2l4.5 3.5-2.5-1.5-2-2zm147 2l-1 2 1-2zm-4 2l1.5.5-2.5 1.5 1-2zm-71 1l6.5.5-6.5.5v-1zm-59 2l7.5 3.5-1.5-.5-6-2v-1zm113 4l2.5.5-2.5.5v-1zm-97 2l2.5.5-2.5.5v-1zm91 0l2.5.5-2.5.5v-1zm-83 2l2.5.5-2.5.5v-1zm74 0l3.5.5-3.5.5v-1zm-67 2l2.5.5-2.5.5v-1zm60 0l2.5.5-2.5.5v-1zm-54 1l4.5.5-4.5.5v-1zm46 0l5.5.5-5.5.5v-1zm-38 1l4.5.5-4.5.5v-1zm31 0l4.5.5-4.5.5v-1zm-20 1l13.5.5-13.5.5v-1zm116 13l2.5.5-2.5.5v-1zm6 1l1.5 2.5h-1l-.5-2.5zm-245 7l7.5.5-7.5.5v-1zm16 0l7.5.5-7.5.5v-1zm20 0l8.5.5-8.5.5v-1zm22 0q6.8-1.7 8.5 1.5l-.5 8.5-.5-9h-8v11.5h-1v-11l1.5-1.5zm35 0l5.5.5-5.5.5v-1zm20 0q6.8-1.7 8.5 1.5l-.5 2.5-.5-3h-8v17.5h-1v-17l1.5-1.5zm20 0l12.5.5-12.5.5v-1zm69 0l10.5.5-10.5.5v-1zm21 0h21l1.5 1.5-.5 14.5-.5-15h-21.5l-.5 2.5h-1l1.5-3.5zm-213 2l-1 2 1-2zm141 0l2.5 1.5-1.5-.5-1-1zm-14 1l3.5.5-3.5.5v-1zm-6 1l2.5.5-2.5.5v-1zm-99 1l-1 2 1-2zm8 0l.5 13.5h-1l.5-13.5zm-20 1l.5 12.5 1 1-2-1 .5-12.5zm101 3l.5 9.5h-1l.5-9.5zm-55 2l2.5 4.5-3-2 .5-2.5zm124 3l2.5 1.5-1.5-.5-1-1zm-118 2l3.5.5-3.5.5v-1zm-5 3l10.5.5-10.5.5v-1z"/><path fill="#FEFEFE" stroke="#FEFEFE" d="M160.5 57l3.5.5-3.5.5v-1zm5 2l2 4q2.3-4.2 4.5.5v2l-.5 1.5-2.5-1-.5-2q-1.2 2.3-2.5-.5l-.5-4.5zm-5 1l2.5.5-2.5.5v-1zm-5 1l.5 2.5h-1l.5-2.5zm45 0l2.5 1.5-3 2 .5 1.5q-3-1.5 0-3l1.5-.5-1.5-1.5zm6 0l2 1q1.3-2.2 2.5.5.8 2.3-1.5 1.5l-3-3zm-49 2q2.3.8 1.5 4.5l-1 3.5-3-.5 2-.5v-2q-2.7 1.1-2-1.5h2l.5-3.5zm16 4l2.5.5q.8 2.3-1.5 1.5v1h2.5q-1.1 2.7 1.5 2l4.5.5-1 2.5h-2.5l-6.5-5.5.5-2.5zm40 0h2.5v5h1.5l2.5.5.5 2.5 1.5-.5-1.5 2.5 1.5.5-3 .5-6-8.5h2q.8-2.2-1.5-1.5v-1zm-55 5l3 4q2.3-.7 1.5 1.5h-3q2.3-1.2-.5-2.5-2.6-.7-1.5 2h-2q-1-3 2-2l.5-3zm42 0h1.5v4q-2.7-1.1-2 1.5h-1l1-3q-2.3-1.2.5-2.5zm3 3l2 3 2.5 1.5-.5 1.5q2.6-.8 1.5 2.5h-1l-.5-1.5q-1.2 2.3-2.5-.5 1.8-5.2-3.5-3.5v-1q2.5.7 2-2zm-21 1l2 3 3.5-1q1.1 2.7-1.5 2v1q2.6-.7 1.5 2h2.5l3.5 3.5q-2.2 1.3.5 2.5l2 1 2.5-1-.5 5-.5-3h-2.5l-4.5-4.5.5-1.5h-2l-7.5-7.5.5-1.5zm41 2l.5 2-4-.5 3.5-1.5zM166 79l2 .5-1 2 2.5-1.5 3 3q2.3-.7 1.5 1.5l6 4-2.5 1.5-3-2-2.5 1-1-2.5v-2l-1.5-2.5-1.5.5.5 1.5-2.5-.5V79zm59.5 0l1.5 3.5-1 3 .5 3.5q-3 .9-1.5-3.5l-3-4 2.5-.5 1.5.5-.5-2.5zm-15 4l1 2-1-2zm1 3l4.5 3 1 2.5-1.5-.5q-2.6.7-1.5-2h-2.5q-3-1.5 0-3zm17 3h2l2.5.5-1 2.5-2.5-1-1 2-2-3 2-1zm-48 1l5.5 3v2h2q-1.1 2.7 1.5 2l-1 2-3-4-3-1-3 1v-1q3.8 1 2.5-2l-2.5 1-1-2 1.5.5.5-1.5zm31 3l.5 1.5-.5 1.5 3-1 .5 2-5 .5.5 1.5-2.5-1.5 2-1-.5-1.5q2.5.7 2-2zm6 0l2.5 6-4-1.5 1.5-2.5-1.5-.5 1.5-1.5zm1.5 3l-2 2h2v-2zm12-3l2 .5-1.5 2.5-.5-3zm-2.5 1q2.3-.7 1.5 1.5l-1.5-1.5zm-28 1l6.5 3.5-3.5 1.5-3-5zm32.5 0q4.1-1.3 3 2l-3.5 1 .5-1.5V95zm12 0h2q-1.5 3.8 1.5 3v1l-8.5-.5 3-1-2-1 2.5-.5 1.5.5V95zm4.5 0l.5 2 2 .5-1.5.5-2.5-1.5 1.5-1.5zm6 0l.5 2-2-.5 1.5-1.5zm2 2l3 1 2-1 3.5 1.5-4.5 1.5-2-1-3 1-1-2 2-1zm-74 1l1.5 3-3-1.5 1.5-1.5zm-12 2l2.5 1.5q-.7 2.3-4.5 1.5v-1l2.5-.5-.5-1.5zm6 0l1.5.5-2.5 1.5 1-2zm94 0l2.5.5-2.5.5v-1zm14 1l3 1 3-1-1 2-5-1v-1zm12 0h5.5v3q2.7-1.1 2 1.5l-1.5-.5-2.5-.5q2.3-1.2-.5-2.5-4 .7-3-1zm-142 1l4 2q2.3-3 7.5-2l-.5 2-4-1-3 2-3.5-.5-.5 1.5-.5-1.5.5-2.5zm137.5 0l3 .5-3 1.5v-2zm-67 1l2 .5-2 1V103zm-26.5 1l3 1 3.5-1 .5 2 1.5-.5-1 4h1l.5-1.5q3.5 1 2.5 6.5h-1l-.5-1.5h-2l-1.5-.5 1-2-3-1q2.3-1.3-.5-2.5-4.7.5-4-3zm29.5 0l2 .5-2 4 .5 1.5-1.5-1.5 1-3V104zm-94.5 2l3 1 1.5-.5-.5 1.5 2.5.5-6.5 2.5-2.5-1.5 5-2-1.5-.5-2 1 1-2zm9 0l.5 1.5-2 1 1.5-2.5zm2 0q2.3-.7 1.5 1.5l-1.5-1.5zm170 0q5.3-1.5 3.5 3l-5-1.5 1.5-1.5zm5 0l.5 2 4-1 .5 3 1-4 2 4 1-2 .5 1.5q-.7 2.3-4.5 1.5l-5.5-3.5.5-1.5zm-89 2l1.5 2.5-1 2.5 2 .5-2.5.5-1.5-3 2-.5-.5-2.5zm100 2l6 3 4-1q1.3 2.3 6 1l2.5 2.5 1.5 2.5 3-1q4.4-1.5 3.5 1.5l3 1v1.5h5q-1.1 2.7 1.5 2v2q2.6.7 1.5-2h3l1.5 3q2.3-.7 1.5 1.5l1 2-2.5-1.5-1 1-3-3-16.5-6-.5-2h-2l-2-1-1.5.5-.5-1.5-1.5.5.5-1.5-2 1-5-3h-2l-2-1-1 1q-1.7-3.1-3.5-1.5l1.5-1.5zm-215 1v2l2 1 4-2h2l3.5-1-.5 2h-2l-8 3-1.5-.5q.8 2.3-1.5 1.5l1.5-2.5-1-2 1.5-1.5zm96 1l4.5 7 2 .5-1 3.5 2-.5-.5-1.5 6 9q2.6-.8 1.5 2.5v2q-.7 2.3 1.5 1.5 1.8 3.1 3.5 1.5l1 2-1.5-.5-1.5.5 3 2-2.5 1.5-1-3-1.5.5.5-1.5-1.5-.5.5-1.5-2.5-1.5q3.5-1.5 1-3l-.5-1.5-1 3-.5-2q-2.7 1.1-2-1.5l-1-2.5q-2.7 1.1-2-1.5-4.7-1.4-4-6.5l-5-3.5 3-1-.5-3.5zm.5 5l1 2q1-3-1-2zm-101.5-1l1 2q-1.5-2.5-3 1l-2 1-.5-3 4.5-1zm-12 1h2l3 2 1-2 .5 2.5-6.5 3.5v-6zm-58 6l1.5.5-.5 1.5 2-1 3 1v-1l-1.5-.5 1.5-.5 2 1 2-1 2 1h2l1.5.5-4.5.5-2-1v2q-4.7 1.3-6-1l-2.5 1q1.1 2.7-1.5 2l-1.5.5v-2l2.5-3.5zm17 0l2 1 4-1v1l-5 1-1-2zm13 0l3.5 1.5-4 .5.5-2zm7 0q6.2-1.8 8 1l5-1 6.5.5-10 3.5-.5-3-1 3-1-2h-4l-3-1-1.5.5 1.5-1.5zm311 4l4.5.5-4.5.5v-1zm-363 1h2l4 2 1-2 2.5.5v1.5q-3.8-1.5-3 1.5h-1q.7-2.6-2-1.5 1.7 4.1-2.5 3-2.7-1.2-.5-2.5l-.5-2.5zm353 0l4.5.5-4.5.5v-1zm34 0h2l3 1 1.5-.5-.5 1.5 5-2 2.5 1.5.5-1.5.5 2.5-1.5 3.5-3-2q-1.5 2.5-3-1l-2 1-5-3-1.5.5 1.5-1.5zm11.5 1l-1 1q-3-1-2 2h4l-1-3zm-407.5 5l2.5.5-.5 1.5 3.5-.5-2-1 1.5-.5 2.5.5q.8 2.3-1.5 1.5l-6 4-.5-3q-3 1-2-2l2.5-1zm411 0l4 1 5-1q3-.8 1.5 3l-3 .5 1 2-2-1 1-3-1.5.5-3 1-3-3zm-418 5l4 1 1.5-.5-.5 1.5 1.5.5-4 2q2.3 1.3-.5 2.5-2.2-.7-1.5 1.5h-1q.8-2.2-1.5-1.5v-1l2 1 .5-1.5-1-3 .5-2.5zm430 0h2l2.5 2.5-.5 3.5 4 1 1.5-.5-1 4 1.5 2.5 3-2 2.5.5v2q1.1 3.3-1.5 2.5l.5 1.5-.5 3.5-.5-4q-2.7 1.1-2-1.5L441.5 143l-3.5-2.5 1.5.5 1.5-.5-.5-1.5zm7.5 8l1 2q1-3-1-2zm-339.5-6q6.1-1.2 5.5 1.5-1.2 2.8-2.5.5l-1.5.5.5 1.5-1-3-1-1zm240 0l5.5.5-4 2 2 1-1.5.5-4-1-2 1-8.5-2.5 3.5-.5 1 1h9v-1l-1-1zm-252 1l11.5 1.5-3.5 1.5-5-1q-1.2 2.3-6 1l-2.5-.5 3.5-1.5 3 1v-1l-1-1zm24 0l.5 2 2-.5-.5-1.5 11 2 2 2h2l3 2h2l3 2h2l4.5 2.5.5 1.5 2-1v1l-1.5.5q4.7-.2 6 3-1.5 4.4 1.5 3.5v-2l2.5 1.5q-1.1 3.3 1.5 2.5 2.8 1.3.5 2.5.9 3.4-4.5 1.5l.5-1.5-2.5-4.5q-4.8 1.7-3.5-2.5 2.2-1.2-.5-2.5l-4-1-1.5.5V151h-7.5l-.5-1.5-3-1 .5-1.5q-2.6-.8-1.5 2.5h-1q1.1-3.3-1.5-2.5l-1 3-1.5-.5 2-3-1.5-1.5-7-1-4 1h-2l-1.5-.5 2-.5.5-2zm242 0l6.5 1q1.3 3-2.5 2l-2-1q-1.7 2.8-8 1l-1-2 7 1v-2zm-30 1l4.5 1.5-1.5.5-3-1-4.5 1q2.2 5.6-3.5 4l-3 2-4-2-1.5.5 3.5-2.5 2.5 1q-1.1-2.7 1.5-2l1.5-.5-1 2.5q2.7 1.1 2-1.5l1-2.5 5.5-1zm-244 1l1.5.5-2 .5q1.7 5.2-2 4-.7-3.8 2.5-5zm282 0l2 1 1-1 4 2 3 2h2l3 2h2l4.5 2.5.5 1.5q1.8-2.7 3.5 1.5v2l.5 1.5 1-3 2 3 1.5-.5q-.7 2.3 1.5 1.5v1l-1.5.5 4 2 3 5-1 4h1l.5-2.5 1.5 3.5-2 .5-.5 5-.5-2-2-.5 1-4-1-3 1-2-6-1v-2l-1.5-3.5-1.5.5-.5-1.5-2 1v-1l1.5-.5-2-1q2.3-1.2-.5-2.5l-4.5-.5 2-.5-.5-3-1 2-.5-3-6.5-1-2 1q-2.3-4.3-4.5-2.5l-2-3h-1l1 4.5-2-.5v-2q1.1-3.3-1.5-2.5v-1zm31.5 19q-2 3 1 2l-1-2zM4.5 145l2.5.5-1.5 2.5-1.5-.5.5-2.5zm78 1q2.6-.7 1.5 2l-2 .5.5 1.5-2-1v2l-3.5-2.5 2.5-1.5q1.5 2.5 3-1zm-75 2l2.5 1.5-3 1-1.5 6.5-1.5-2.5.5-2.5q2.6.8 1.5-2.5l1.5-1.5zm22.5 0q3-1 2 2l-2 .5q2.3 1.3-.5 2.5l-2.5.5.5 3.5-2.5-1.5 2 5h-1l-.5-2.5-.5 3.5v2q.8 2.3-1.5 1.5l.5-1.5q.8-2.6-2.5-1.5l-1.5 3q3-1 2 2l-2.5-1-.5 2.5 1 2-.5 1.5 2 1 2.5-5.5-.5-1.5 2.5.5-2 3 1 1v10h-1l-.5-6.5-3.5 1.5 1 2-.5 1.5 2-1-1 2-2.5-1.5 1-2.5q-3.7 1.3-2-4.5l1-2-1-3 3-8.5 3-1.5 2-4.5h2l2-4zm282.5 2l1.5 3q2.7-1.1 2 1.5l-3 1.5q1-3-2-2v2h-6v4.5l-3.5 1.5-1.5-.5-1 5.5-5-.5 3-1-1-2 3-2-.5-1.5 1.5.5 2.5-3.5 1 3q-.1-5.6 4-7l1.5.5 1.5-2.5 2-1zm115 0l5.5 4.5 2 3 2 2-.5 2.5-3.5 1 .5-2 1.5.5-2-3h-2v-2l-3.5-6.5zm-356 1l1.5 3-2 .5 2 1-3 .5-1-3.5 2.5-1.5zm-4 2l.5 3q-3.7-1.3-2 4.5-.7 2.3-4.5 1.5l-1.5-.5-1 5.5h-4v-1.5l3-4.5q2.7 1.1 2-1.5l5-2.5 2.5-4zm-2.5 5l-1 3h1v-3zm9-5q3-1 2 2-3 1-2-2zm384.5 9l1 2-1-2zm-22 1l3.5 2.5 1 2h-3l1-2-2.5-2.5zm-436 1q3 2 2.5 7.5L.5 175l-.5-1.5 2-4q-3.3-1.2-1.5-5.5zm457 0l-.5 1.5q-.7 2.3 1.5 1.5l-.5 1.5.5 1.5 1.5-.5-1 3 1 3-1 5 1 2-2.5-1.5-1.5-.5 2-1-1-2h1l.5 1.5.5-2.5-1-2v-2l-2-7 1.5-1.5zm-22 1l1.5 2.5-1.5-.5-1.5-.5 1.5-1.5z"/><path fill="#FEFEFE" stroke="#FEFEFE" d="M166.5 166l1 4 1.5-.5 1 2-1 1 1.5 2.5-1.5.5q3.5.5 3 5h-1l-1.5-2.5-1.5.5-.5-2.5-.5 3-2-.5 1-5.5 3-1.5-1.5-.5-1.5.5.5-5.5zm-112 2l.5 2-2 .5.5 1.5q-3.5-2 1-4zm82 0l.5 2-2-.5 1.5-1.5zm298 0l3 5 .5-2 2.5 1 1.5-.5-1 2 1 2h-1l-1.5-3.5-.5 3.5 3 4-2.5 3.5.5-1.5-1-2q2.3-1.3-.5-2.5l-1.5.5 1-3-3-1 1-3.5q-3.2 1-1.5-2zm-141 1l.5 5.5h-2q1 3.8-2 2.5l1-4h2l.5-4z"/><path fill="#FEFEFE" stroke="#FEFEFE" d="M140.5 170l1.5.5-6 2.5q-1.3-3.3 3.5-2l1-1zm2.5 0l3 .5-3 1.5v-2zm-92 3l4 1.5-4 .5v-2zm76 0l5 .5-3 2q.7 2.6-2 1.5v-4zm23.5 0q4.3-.7 5 2l.5-2q5.2-1.7 4 2l-2 .5.5 2.5q4.8-1.7 3.5 2.5h1l.5-2.5.5 2 2 .5-3 1 1 2.5-4-1.5-1-3.5h-2v-2q-2.7 1.1-2-1.5-.7-2.2-4.5-1.5v-1zm157 0h2l5.5.5-2.5 1.5-3-1-1 3-3.5-1.5q-.7-2.2 1.5-1.5l1-1zm20 0q6.3-1.8 8 1l1.5-.5-2 4 3 2-1-4h1l1.5 3.5 1.5-.5q-3.7 1.8-.5 3.5l2-4 1.5 3.5-1 2 1 2v2l-1 2 1 3h-1l-1-3v-2l-1-2q2.3-1.2-.5-2.5l-3-2-3.5-3.5q2.2-1.2-.5-2.5l-1.5.5.5-1.5-3 1-2-2zm-325 2l1.5 2.5H3l-.5-2.5zm406.5 0q3.3-1.3 2 3.5l-2-1V175zm26.5 0l1 6 1.5-.5-1 3 2 3.5-2 .5q2.8 1.8-1.5 3.5l-1.5-3.5q3.5-1.5 1-3l.5-9.5zm-385 1l2.5.5 2 6-1.5 3.5-1-7-.5 8 3 1.5-1 3q2.3 1.3-.5 2.5-2.6.8-1.5-2.5l-2-4 1-3-1-6 .5-2.5zm2.5 12l-1 3h1v-3zm240.5-12l.5 7.5-2 3q3 1 2 6v2l.5 1.5 1.5-.5q-2.2 1.3.5 2.5l1-3 1 2 1-2 .5 1.5-1 3q3.1 1.8 1.5 3.5l1.5.5-1 1 1.5 2.5-3.5-5h-2q1.5-3.7-1.5-3l-4.5-6.5h2l-.5-2.5-1.5.5-2-6v-5l2.5-1.5 1.5.5.5-2.5zm-1.5 3l-2 5h2v-5zm-170.5-1q3.3-1.1 2.5 1.5l1 1-3 3-.5 2.5-.5-3.5 2-2-1.5-2.5zm179 0l3 1 3-1v1l-3.5 1.5 1 1-3 3-.5 1.5v-8zm-296 1l.5 2.5H4l.5-2.5zm16 2l5.5 2.5v4l-.5 1.5-3.5-4.5h2q.8-2.6-2.5-1.5l-1-2zm151 1l.5 3.5h-1l.5-3.5zm285 0l.5 1.5-2 1 1.5-2.5zm-452 1l2.5 2.5-1.5 2.5 2-1 1 2-1.5-.5-.5 1.5-2.5-1 1-3.5-.5-2.5zm114 1l1.5.5q-2.5 1.5 1 3l-2.5 5.5.5-1.5q.7-3-3-1.5v-2.5h1l.5 1.5.5-3-2-.5 2.5-1.5zm43.5 1l6 1.5-1 2.5 4-1-1.5 5-1.5-.5 1 3-4 3 1 1-3 3-1.5 2.5-1.5-.5 2-1v-2q-.8-2.6 2.5-1.5v-1q-2.2.8-1.5-1.5h2l-.5-2.5-1.5.5q-.7-2.2 1.5-1.5l2.5-1.5-4-.5 1-3.5-2-3.5zm2 1l2 4v-2l-2-2zm244.5 1q3.3-1.1 2.5 1.5l-3 8.5h-2q1.1 2.7-1.5 2l-1 3q-2.2-.7-1.5 1.5l-2 1 1-2-1-3.5 4-1.5 2-5-.5-1.5 1.5.5q-.7-3.7 1.5-4.5zM146 188q3-1 2 2-3 1-2-2zm307.5 0l2.5 1.5-1 2 1 3.5-6.5 1 1.5-2.5q-.8-2.6 2.5-1.5v-4zm-.5 5v1h2l-2-1zm-303.5-4l2.5 3.5v4.5q-2.7-1.1-2 1.5-1.2 2.8-2.5.5l-1.5-.5 3-1-1-2 2-5-.5-1.5zm163 1l3 1 3-1v2l3.5 1-.5 4-1-2-2 6-2-3-4 2-2.5-5.5 1-2.5 2-.5-.5-1.5zm1.5 3v2l2-1-2-1zm4 1l-4 3 2 1q-1-3 2-2v-2zm-307.5-3l2.5 3.5-.5 1.5q3.3-1.1 2.5 1.5h2q-2.3 1.3.5 2.5l2.5.5-2.5.5-2.5-.5.5-1.5-4-1-1.5.5 1-3-1-3 .5-1.5zm131 1l2.5.5-1.5 2.5-1.5-.5.5-2.5zm-24 2l2.5.5-3 1-.5 1.5-.5-1.5 1.5-1.5zm225 0q2.3-.7 1.5 1.5l-1.5 2.5-.5-1.5.5-2.5zm-289 1l4 1q1.3-2.2 2.5.5l-1 3 4.5 2.5 2-1v1l-1.5.5.5 1.5q-2.2-.7-1.5 1.5h2l-.5 1.5 3 1 2-1 1 2-1.5.5 2 1-1.5 1.5-4-4h-2l-6.5-6.5-2-3 1.5-2.5-2 1-1-2zm91 0l.5 1.5-1 2 .5 1.5-2.5-3.5h2l.5-1.5z"/><path fill="#FEFEFE" stroke="#FEFEFE" d="M400.5 195l2.5.5-1.5 2.5-1.5-.5.5-2.5zm47 2l2.5.5-.5 2.5-3.5-1.5 1.5-1.5zm-328 1q2.6-.8 1.5 2.5l2 2-.5 3.5 3.5 2.5q-.7 2.3 1.5 1.5 2.3 4.2 4.5 2.5l-.5 1.5 4 1h2l7.5.5-2.5 1.5q-1.5-2.5-3 1l-3 1-2.5-1q1.1 2.7-1.5 2l.5-3.5-.5-1.5-3 1-.5-2.5-.5-1.5-1.5.5.5-1.5-2 1-2-1-2 1 .5-1.5-1-2v-2l1-2-2.5-6.5zm4.5 9l-2 2h2v-2zm13 8q-3 2 0 3l3-1-3-2zm-21-16q3-1 2 2-3 1-2-2zm329.5 1l1.5.5-4 2 2 3h-1q.8-2.2-1.5-1.5l-3.5 2q1.1 2.7-1.5 2v1l1.5.5-3.5 2.5-2.5-1.5-.5 1.5h-2l-1.5-.5 8-4-.5-1.5q1.5 2.5 3-1 2.3.8 1.5-1.5l4.5-3.5zm-10.5 9v1h2l-2-1zm-92.5-8l1.5 2.5-.5 2.5-3.5-.5 2-1v-2l.5-1.5zm-127 1l5 1h2l6 1 3-1 4 2v-2l2.5 1.5.5-2.5 4 1 4-1v1l-1.5.5 2 1-1.5 1.5h-12q-1.1-2.7-4.5-2 1.3 3.7-4.5 2h-2l-7-3-4.5 1q1.1 2.7-1.5 2l-1.5-3h6.5l1-1zm-192 1l4.5 3.5-2 1 .5-1.5-2-1-3.5 1q-1.1-2.7 1.5-2l1-1zm225 0l4.5.5-2 1 2 1-3.5.5v-2l-1-1zm-47 1l5.5.5q-.7 2.3-4.5 1.5l-1-2zm59 0l4.5 1.5-9.5.5v-1l5-1z"/><path fill="#FEFEFE" stroke="#FEFEFE" d="M213.5 205l4.5.5-4.5.5v-1zm-22 1l1.5.5-4 2 4 1-3 .5q1.1 2.7-1.5 2h-4q-4.5 1-5.5-1.5l3.5-1.5q1.8 3.8 3.5.5-.7-2.2 1.5-1.5l4-2zm200 0l5 1 1.5-.5-2.5 3.5-4 1 .5-1.5.5-1.5 2 1-1-2q-3 .5-2-1zm-124 1l3 1 2-1 5.5 2 .5 2 1-2 .5 3-6.5-1-3 1-4.5-1.5 2.5-.5h2l4.5-.5-3.5-1.5-3 1-2.5-.5 1.5-1.5zm-239 1l2 1 2-1v2l3-1 4.5 2.5-1.5.5-2-1-1.5.5-.5-1.5-1 2-3-2-2 1v-3zm309 0l1.5.5-1 2 .5 1.5h-2l-2.5-.5 3.5-3.5zm-56 2q1.5 3.5 3 1 2.3-.7 1.5 1.5h2l-.5 1.5 4 1h2l5.5 2.5-1.5.5-2-1-3 1-2-2H288q1.1 2.7-1.5 2l1-3q-2.6.7-1.5-2h-2.5l-2.5-1 .5-2zm108 1l.5 2-3.5 1-1.5-.5-.5 2.5-1.5-.5q.8 2.3-1.5 1.5-1.7-3.1-3.5-1.5l1-2-.5-1.5h10l1-1zm-8.5 2l-1 2 4-1-1-1h-2zm-337.5-1l4.5 1.5-1 1 3 3L62.5 232l10 8 10.5 5q-1.2 3 2.5 2 11.4 8.3 26.5 12l-3 11.5-1 13 1 1v8l4 14 7 12 9 11.5 21.5 16 26 12 30 7h9l1 1h28l1-1h9l16-3 25-8 14-7 18.5-13q-1.1-2.7 1.5-2l10.5-11.5 9-16 4-14v-18q-2.6-1.4-2-6l1.5-2.5 1 5 1-2q3.2 3.3 1.5 11.5h-1l-.5-8.5-.5 10.5q2.8 1.1 2 4.5l-2 .5 2 4.5q-3.7-1.4-2 4.5 2.3 1.3 1 6h-1l-.5-5.5-1.5 3.5 1 2-1 3.5-3 1.5q2.5 1.5-1 3l-4 8.5 2 .5-1.5.5q-1.2-2.2-2.5.5v2.5q-2.7-1.1-2 1.5l.5 1.5-2.5 1.5 1 3.5q-3 1.3-2-2.5h-1l-.5 2.5q-1.2-2.3-2.5.5 1.1 3.3-1.5 2.5v2q-4.4-1.5-3.5 1.5h-2l-2 3-3 1.5v2h-3q1.3 3-2.5 2l-5.5 3.5q.8 2.6-2.5 1.5v2H303v2h-4v1.5l-1.5-.5-5 3-2-1q-1.2 2.8-5.5 2.5l2.5 3.5q-2-3-8-2v1l1.5.5-2.5.5-2.5-1q1.1 2.7-1.5 2l-3-1-2 2q-4.4-1.5-3.5 1.5l.5 1.5q-3.3-3.8-11.5-2-1.2 3 2.5 2v1l-13-1-2 1q-1.5-2.5-7-1l-2 1-1-1h-13l-3 1-6.5-2q1.1 2.7-1.5 2v-2l-8-1-2 2-6 1v-1l6.5-1.5-4.5-2.5-4 1-8-4h-7l-3 2-.5-1.5 4-2-9.5-3.5-3 1v-1l1.5-.5-5.5-3.5-5-1-7-5H141l.5-2 3 1v-1l-6-4-1.5.5.5-1.5q-3.7.8-4.5-1.5l-1.5-3.5-7.5-4.5 3-1-4.5-.5-1.5.5.5-3.5.5 2 2-.5-1-2.5-3.5-1q-1.2 2.3-2.5-.5l-1-2 2.5 1.5q2.3.8 1.5-1.5l-4-4q.8-3.7-1.5-4.5H113v-4h-1.5l-1.5-1.5-1.5-12.5-1 3-.5-26.5h2q-1-6 2-8-1.4-2.7-6-1.5 1.3-3.3-3.5-2l-3-2-1.5.5q.8-2.2-1.5-1.5l-2-1-1.5.5.5-1.5-7.5-2v-2h-4v-1.5q-2-3.7-4-2 .8-2.2-1.5-1.5l-3.5-1-1.5-3-8.5-.5 5-1-10-8-1-3.5-4-1-2-5-5-2.5q-.7-2.2 1.5-1.5v-1q-2.6.7-1.5-2h-2l.5-2zm202.5 1q-2 3 1 2l-1-2zm-73 2l1 1 1 1q1-3-2-2zm-101.5-3q6.3-1.7 8 1l2.5-1-1 4.5.5 1.5-2.5-1.5 2-1-5.5-2.5v2q-4.7-.8-4-3z"/><path fill="#FEFEFE" stroke="#FEFEFE" d="M173.5 212l2 3 1.5-.5-2.5 3.5H171q1.1-2.7-1.5-2-1.2 2.3-2.5-.5l4.5-2.5 1.5.5.5-1.5zm44 0l2.5.5-.5 1.5q2.3.8 1.5-1.5h1l-1 2 3 .5-1-2.5 2-.5 2 3.5-2 1 2 .5-1 7.5v2l-.5 1.5-.5-1.5v-2l1-2-2-4q1.1-3.3-1.5-2.5h-2q-5.4 1.9-4.5-1.5l1.5-2.5zm23 0l2 1 5-1 1.5.5-1 1 1.5 2.5h-2l-2 1-3-2-3.5 2.5-.5 1.5-.5-3 4-1.5q-1.2-2.7-2.5-.5l-1.5-.5 2.5-1.5zm186 0l1.5.5v2l-1.5 2.5q-5.4 1.9-4.5-1.5l-.5-1.5 3 2-1-3q1.5 2.5 3-1zm-94 1l.5 1.5-.5 2.5-1.5.5 4 2-4 1.5-1.5-4-2 1-.5-2.5 1.5.5 3-2 1-1zm87 2l.5 2-3.5 2-.5-3 3.5-1zm-292 1l1.5 3 2 .5-4 1.5.5-5zm37 0l.5 1.5-1 2h2l-.5 2.5q-1.2-3.2-7-2v1q4.5-1 5.5 1.5l-1.5-.5-3 1h-2l-3.5.5.5 1.5-3.5-.5.5 3.5 2.5-1.5 1 2-2.5.5-3-2-1 2-1-2-1.5.5q2-3.7 4-2l1.5-2.5 1 1 4-4 4-2 1.5.5q-.7-2.2 1.5-1.5l1-1z"/><path fill="#FEFEFE" stroke="#FEFEFE" d="M323.5 216q3.8-1 2.5 2l-2.5-2zm90 0l-.5 1.5v2.5q-3-1.2-2 2.5l-5 4q2.8 1.7-1.5 3.5-3.7-1.2-2.5 2.5l-3.5 1.5q-2.2-.7-1.5 1.5l-4 3 .5 1.5q-2.6-.7-1.5 2h-3v1.5l-1.5-.5-11.5 6.5 2 1-6 .5-.5 2-2-1-1.5 3q-4.2-1-5.5 2l-2-1q-2.6 4.6-9.5 4l-.5 5-1.5-6q29.5-9.7 51-28.5l11.5-13.5 2-1zm-328 1l2.5.5q-.7 2.3 1.5 1.5v1q-4-.5-4-3zm126 0l2 1 2-1v1l-2.5 1.5v2l-1 2 .5 2.5 1.5.5q-2.2 1.3.5 2.5l1.5.5q-2.2 1.3.5 2.5l4-1h2l2-1v2l2.5 1.5h-3l-.5-1.5q-1.2 3.3-7 2l-2-1-4 1v-3l1.5.5 1-3-3-1 2-3-2-4 3-2-1.5-1.5zm.5 3l-1 3h1v-3zm6 12v1h2l-2-1zm15.5-15l.5 2.5h-1l.5-2.5zm14 0l2.5 1.5-1.5-.5-1-1zm125 0l.5 3-3.5 1-3.5-1q-1.3-3.3 3.5-2l2.5 1 .5-2zm2 0l2 1 3-1v1l-3 1-2-2zm-283 1l6 1 3-1h2l2.5 1.5-3 1q4.6-.6 6 2l-3.5.5-10-3-3 1v-3zm24.5 0q6.9-1.5 10 1.5l-2.5 2.5q-5.4-.6-7.5 1-1.3-3.3 3.5-2l1-2-4 1-.5-2zm185.5 0l2 3h2l1.5.5-.5 1.5 2 1q1.2-2.2 2.5.5l.5 1.5q1.3-2.2 2.5.5l-.5 2.5-1-2-1 2-6.5-3q1.7-4.1-2.5-3l-2.5-.5v-2l1.5-2.5zm5.5 6l1 2h1l-2-2zm30.5-6l4 1 2.5-1q1.3 3-2.5 2v1l1.5.5-6 .5-1-2.5 1.5-1.5zm18 0q6.8-1.3 9.5 1.5l-1 2.5q-6.2-.9-9 1-1.3-3.3 3.5-2l2.5-1.5-3.5-.5q-1.8 2.5-2-1zM235 220l3 1.5-1 5 2.5 3.5 5 1h2l3.5 1-.5 2h-2l-9.5-.5 1-2-2.5-4.5q-1.8 2.7-3.5-1.5h2q.8-2.2-1.5-1.5l1.5-2.5V220zm0 2l1 4h1q1-5-2-4zm6 9l-1 2h4l-3-2z"/><path fill="#FEFEFE" stroke="#FEFEFE" d="M344 221l4 1.5-4 .5v-2zm-28.5 6l4.5 3.5 1.5 2.5 3.5 1v2q2.7-1.1 2 1.5l5 5-.5 1.5 1.5.5-5 .5 1-2.5-2-.5q1.5-3.8-1.5-3l-1-3-1.5.5V234h-5.5l-1.5-1.5 1-3-1.5-2.5zm-171 1l-.5 1.5-1 3 .5 1.5-2-1-3 1 1-2 1.5.5 3.5-4.5zm105 0l-1 2 1-2zm-113 7l1.5 3.5-3.5 1.5q-3-1.5 0-3 2.5.7 2-2z"/><path fill="#FEFEFE" stroke="#FEFEFE" d="M322.5 238l1 2q-2.8.7-1-2zM130 241l3 1.5q1.3 4.6-4.5 2.5l1.5-2.5V241zm-2.5 5l-.5 3.5q1.1 3.3-1.5 2.5 1.8 2.5-3 5l-.5-1.5 5.5-9.5zm206 1l2.5 1.5 3 5-1.5-.5q-2.6.8-1.5-2.5h-1l-1.5 2.5.5-3.5-.5-2.5zm-256 1l2.5 1.5-1.5.5-1-2zm53 0q2.6-.7 1.5 2l-3.5 1 2-3zm101 3l4.5.5-6.5 1.5v-1l2-1zm6 1q2.6-.7 1.5 2l-5.5 2h-2l-4.5-1.5 1.5-.5 2 1 7-3zm0 3q2.3-.7 1.5 1.5l-1.5-1.5zm101 0q4.3 1.7 1.5 3.5l.5 6.5 1-4 1.5 3.5-1 3.5-3-.5v-10l-.5-2.5zm-129 1l.5 2q2.7-1.1 2 1.5l-4.5 3.5-2-1v2q-2.2-.7-1.5 1.5h-2l-.5 1.5-1-2-1.5.5.5-2.5 2-1 1 2 4-3 1.5.5-.5-2.5-1.5.5 3-1 .5-2.5zm34 0l-1 2 1-2zm2 0q4.4-1.5 3.5 1.5l.5 1.5-4.5-.5 3-1q-3.3.1-2.5-1.5zm8 0l1.5 2.5-2.5.5-1.5-.5 2-.5.5-2zm-40 1l6.5.5-4.5 1.5-2-2zM99 259l5 1.5-5 .5v-2zm21.5 0l.5 5.5h-1l-1-3 1.5-2.5zm131 1l3.5 1.5.5 1.5 2-1q1.8 3.1 3.5 1.5l-.5 2.5-3-1-3.5-2.5q.8-2.6-2.5-1.5v-1zm-133 4l1 3 1.5-.5-2 6 1.5 2.5q-2.2-.7-1.5 1.5h-2l.5 2.5 2.5-.5.5-2.5.5 9q-3.5-1.1-2 6.5h-1l-1-4v-2q-.7-2.2 1.5-1.5l-2.5-3.5q-.7-6.7 2-10l-1-3 1.5-3.5zm-13 3l.5 9.5h-1l.5-9.5zm157 0l1 2 2.5-1.5v2l.5 4.5 3.5-.5-1 2h2l-1 3 2 7h-1l-1-5.5-2-.5 1-3.5-5-3.5.5-1.5-3-2 1-2zm-68.5 2l2.5 1 2-1v1q-3-.8-1.5 3h-2.5l-.5-2.5V269zm150.5 2l.5 2.5h-1l.5-2.5zm-155 2l3.5 1.5-1.5-.5q-3.7-1.2-2.5 2.5l.5 1.5-1.5-3.5 1.5-1.5z"/><path fill="#FEFEFE" stroke="#FEFEFE" d="M191.5 276l2.5 1-1.5 3-1.5.5 1 1q-3.1 1.8-1.5 3.5l-2.5-.5V279h4v-1.5l-.5-1.5zm153 0l1.5 2.5-2 .5.5-3zm0 7l.5 2.5-2.5 1.5-1.5-2.5h1l.5 1.5 2-3zm-239 1l.5 3.5h-1l-1-2 1.5-1.5zm235 3l2.5 3.5-2 1 2 1q-3.1 1.8-1.5 3.5l-1.5.5 1 2-1.5 2.5-.5-1.5v-2l.5-8.5 1.5.5-.5-2.5zm-220 1l.5 3.5h-1l.5-3.5zm155 2l1.5 2.5h-1l-.5-2.5zm-87 1l.5 3.5h-1l.5-3.5zm-69 2l1.5 4.5h-1l-.5-4.5zm154 1l1.5 2.5-2-1 .5-1.5zm3 2l.5 3.5h-1l.5-3.5zm-2 4l-1 2 1-2zm-151 1l3.5 1.5v2l1 3-3 .5-1-2.5 2-1-3-.5.5-3zm211.5 0q3-1.2 2 2.5h1l.5-1.5.5 1.5-2 3.5-3.5 1 .5-1.5 1-5.5zm1 2q-2 3 1 2l-1-2zm-59.5 1l-.5 1.5q.9 3-3.5 1.5l1-2q1.5 2.5 3-1zm-148 5h2q3.8-1.2 2.5 2.5v4l-.5 1.5-1.5-2.5.5-1.5q-4.4 1.5-3.5-1.5-2.2-1.2.5-2.5zm143 3l-.5 1.5-1 5 1 3h-2l1 2-4-1 1.5-3.5 1.5.5 1-3v-2l1.5-2.5zm56 0l1 2 2-2 2.5.5-3 2q2.3 1.3-.5 2.5l-2.5-.5 2-1q-3-1-1.5-3.5zM188 313q3.8-1.5 3 1.5l1.5 3.5 1.5.5-5 1.5-.5 2-.5-1.5 4-2-4-2V313zm-53.5 5l3.5.5-.5 2.5-3-2v-1zm189 0l4.5.5-12.5 11.5.5-1.5 1-3-1-2.5 3.5 2 .5-2 3-.5-1-3 1.5-1.5zM194 322q2.7-1.1 2 1.5l1 3.5 6 3.5-.5 1.5 3.5 1.5q-2.2 1.2.5 2.5l2.5-1.5.5 1.5 1.5-.5-5 2.5-3.5-5H199v-5h-1.5l-3.5.5 1-3-1-3.5zm-54.5 1l3 1 1.5-.5q-2.2 1.3.5 2.5l3-1v1l-1.5.5.5 2.5q2.3.8 1.5-1.5h1l2 4.5 2-.5q-2.2-1.2.5-2.5 2.3-.7 1.5 1.5l-.5 4.5-13.5-9q1.1-2.7-1.5-2v-1zm125 1q3.4-.9 1.5 4.5l-2.5.5-2.5-.5 2-.5 1.5-4zm42 5l4 1 1.5-.5-1 3.5-5.5 3-.5-3 2-.5-2-.5 1.5-3zm-48 2l2.5 1-.5 2h-4q-2.2-.7-1.5 1.5v2l-1.5 2.5-3-2-2 2-3-1-4 1v-1l7.5-1 .5-2h4.5q-1.5-3.8 1.5-3l3-2zm-5.5 6l1 2q1-3-1-2zm-90.5-3l3.5 2.5-1.5 3.5-1.5-.5 2-1q-1.7-3.2-3.5.5l-5.5-3.5 6.5-1.5zm133.5 0q2.7-1.1 2 1.5 1.5 3 3 0l-2-1 1.5-.5q1.8 3.1 3.5 1.5.8 2.3-1.5 1.5l-7 4-1.5-.5q.8 2.3-1.5 1.5l-2.5 1-.5-2-.5 3-2.5 1 1.5-2.5-.5-1.5-2.5 1v4h-1.5l-.5-2.5 1.5-3.5 2 1 4-1 2 1q1.8-3.1 3.5-1.5-.7-2.2 1.5-1.5v-1l-3 1 1.5-2.5V334zm-84.5 3l1.5.5-4.5 2.5 1-2 2-1zm4 2l4.5.5-4.5.5v-1zm-49 1l2 1 4-1 4.5 1-.5 2-2-1 2 4-5-4h-4l-1-2zm68 0l1.5.5-2 1 5 2-2.5.5-5-1-3 1-1-2 3 1v-1l-1.5-.5 2.5-.5q1.5 2.5 3-1zm-1 4l4.5 1.5-5 .5.5-2zm-53 2l6.5.5q-.7 2.3-4.5 1.5l-2-2zm12 0l5 1 1.5-.5v2l-1 2 2 1-1.5.5-2-2h-4l-2.5-.5 3-2-.5-1.5zm3.5 2v1h2l-2-1zm70.5-2h2l3.5.5-2 1 2 .5q1.3 3-2.5 2l-2.5-1-.5-3z"/><path fill="#FEFEFE" stroke="#FEFEFE" d="M273 346l8 .5-3.5 1.5-3-1v2q-3 .7-1.5-3zm-84.5 1l.5 2-2-.5 1.5-1.5zm75.5 2q3-1 2 2-3 1-2-2zm-60.5 2h2l1.5.5-4.5 1.5 1-2zm9 0l8 2 .5-2 3 .5-2 1 3 1-6.5 1.5-8.5-1.5 6-1q-4.4.4-3.5-1.5zm14 0l9 3q4.5-3.2 11.5-3-1.3 3.3 3.5 2v1q-4.8 1.3-6-1l-.5 2h-3q1-3-2-2l-.5 2h-7l-2-1-2 1v-1l1.5-.5-2.5-2.5zm23 0l4.5.5-4.5.5v-1zm11 0l2.5.5-2.5.5v-1zm-4 1l2.5.5-2.5.5v-1zm-77 9l2.5.5-2.5.5v-1zm89 7h2l1.5.5-1 1V395l9 .5-9.5.5-4.5-.5 3-2-3-1 2-1-1-1v-17l-1-2 .5-2.5 2 3-1.5.5q1.5 3 3 0l-1.5-4.5zm1.5 6l-1 16h1v-16zm12.5-6l.5 4.5q-3 1-2 6l.5 1.5q-2.7.6-1.5-5.5l2-3h-2l2.5-3.5zm51 0l2 1 2-1v1q-2.2-.7-1.5 1.5l-.5 1.5 2.5 1.5-1.5.5-3.5-1.5q-.7-2.2 1.5-1.5v-1q-2.8.7-1-2z"/><path fill="#FEFEFE" stroke="#FEFEFE" d="M348.5 368l1.5 3.5-2 1 2 1-2 1 2 .5v4h-1.5v-2q-3.7 1.3-2.5-2.5h-1l-.5 1.5h-18v-1l17.5-.5-2-1 6-1.5-1-2.5 1.5-1.5zm-246 5l1.5 3-3-.5 1.5-2.5zm8 0l2.5.5.5 1.5 2-1v1l-1.5.5 3 1q-5.3.2-7.5 3.5l-1.5-5.5 2.5-1.5zm1.5 2l1 2q1-3-1-2zm8.5-2l3.5 1.5-.5 1.5-.5-2q-3.8-1.5-3 1.5l-1.5-.5-1.5-.5 3.5-1.5zm7 0l4 1 1.5-.5-.5 1.5q2.3-.7 1.5 1.5l-3 2 1-3.5q-3.7-1.4-2 4.5h-1l-.5-3.5-1 2-2.5-1.5 3-2-.5-1.5zm19 0l2.5 1-.5 4-2.5-1q1.3-3.3-3.5-2v-1l4-1zm10.5 0q3-1.2 2 2.5l-3.5 2.5-.5-3q3 1 2-2zm36.5 0l-1 2-1.5-.5 2.5-1.5zm8 0l2.5 1 1 2.5-3 1 3 1-2.5.5-2-3 2.5-.5-1.5-2.5zm11 0l8.5 2.5-5.5.5q-1.7-2.8-3.5 1.5l.5 1.5-1.5-2.5.5-1.5-1.5-.5 2.5-1.5zm14 0l3 2v-2l2 1q1.3-2.2 2.5.5l-.5 2.5-2-1-1 2-2.5-1.5q.8 2.6-2.5 1.5l-2.5 1.5v-2q-1.5-4.4 1.5-3.5l1.5.5.5-1.5zm76 0l2 1 1.5-.5-3 1.5-.5 2-.5-2-2 .5 1 2h-1q.8-2.2-1.5-1.5v-1l4-2zm12 0l2.5 1.5-1.5.5h-2l-3.5-.5 4.5-1.5zm-145 1l2.5 3.5h-1l-.5-1.5-2.5 1 1.5-3zm30 0l-1 2-5 1 1-2 5-1zm38 0l2.5.5-4.5 1.5v-1l2-1zm6 0l1 2q-2.8.7-1-2zm4 0l5 1q1.3-2.2 2.5.5l-1 2 .5 1.5q-2.2-2.7-7.5-2.5l4-1q-4.4.4-3.5-1.5zm59.5 0q3-1 2 2-3 1-2-2zm16.5 0l.5 3-2-.5 1.5-2.5zM135 375q3-1 2 2-3 1-2-2zm25.5 0l6.5.5-6.5.5v-1zm-61 1l1.5 1.5V395h8v-7.5h1v8.5H99.5l.5-5.5v-11l-1-1 .5-2.5zm89 0l3.5 1.5-1.5-.5q-3 .5-2-1zm106 0l3.5 1.5-3 1.5-.5-3zm20 0q3.3-1.1 2.5 1.5l-3.5 1.5v-1l2.5-.5-1.5-1.5zm-125 2l1.5 1.5 1 7-3 1q.8 2.6-2.5 1.5h-2l-1.5-.5 2-.5q-1.5-4.5 3-3v-5.5l1.5-1.5zm.5 1l-1 6h1v-6zm-3 7q-2 3 1 2l-1-2zm-36.5-7l1 2 2-2 2.5.5v5l2 .5v1.5l-1 2.5q2.7-1.1 2 1.5-2.8 1.8 1.5 3.5l3.5 1.5-1.5.5h-2l-2-1-1.5.5-.5-1.5-2 1-1.5-.5-.5 1.5h-14l-.5-1.5 1-3-.5-1.5 2.5.5-1 4 9.5.5 1-3 1.5-.5-2-1q2.3-1.2 1-6l-1-2v-2l.5-1.5zm3.5 1l-2 3 2 9 1-7-1-5zm102.5-1l-1 2 1-2zm2 0q2.6-.8 1.5 2.5l.5 1.5-2-4zm26 0l-1 2 1-2zm4 0l.5 2.5h-1l.5-2.5zm1.5 0l4 .5-3.5 1.5-.5-2zm-173.5 1q4.4-1.5 3.5 1.5l1 2.5-4.5 1-2-1-1.5.5.5-1.5-1.5-.5 2.5-1.5 2 3 .5-2.5-.5-1.5zm21 0q5.7-1.8 3.5 4.5h-1l-.5-1.5-1 2-1-2-1 2-3-1-2 1 1-2q2.3.8 1.5-1.5 1.8 1.6 3.5-1.5zm98 0l2 1q1.3-2.2 6-1l1.5 3q3-1 2 2-3.7-1.4-2 4.5h-1l-.5-5.5-1.5.5q.9-3-3.5-1.5l-3-3zm3.5 1q-2 2 4 1l1 1q1-3-5-2zm47.5-1l.5 2-2.5 1 2-3zm21 0l1 3 1.5-.5q.8 2.3-1.5 1.5l-2 1v-1l1.5-.5q-3.7-1.7-.5-3.5zm15 0h10l1 1 3.5-.5V395h22.5v1h-23l-.5-1.5-3-1 .5-1.5 1 2q2.6-2.4 1.5-8.5l-1.5-4.5-1 2-.5-2h-7v2q-2.7-1.1-2 1.5l-2-1 1-2-.5-1.5zm-93 1l3 1 2.5.5-5 1 .5 1.5-2-1-1.5.5.5-2.5 1.5.5.5-1.5zm28 0q3.4 2.6 2.5 9.5l-3 2 2 3-2.5.5h-9l-1-1-2.5 1 1-3.5-.5-1.5q2.6-.8 1.5 2.5l1.5 1.5h8l1.5-1.5-.5-3.5 2 1 .5-5.5-1.5-4.5zm22.5 0q2.7-1.1 2 1.5l.5 1.5-2.5-1v-2z"/><path fill="#FEFEFE" stroke="#FEFEFE" d="M304.5 381l.5 2-2 .5 2 .5q1.1 2.7-1.5 2v1l1.5.5-1.5 2.5q-1.7-3.1-3.5-1.5l1-2-2.5-.5v2l-5.5-2.5 1.5-.5 1 1 3-3q2.3-.7 1.5 1.5l4.5-3.5zm-1.5 3l-2 2h2v-2zm-69.5 0l2.5.5-2.5.5v-1zm92 0l2.5.5-2.5.5v-1zm-196 1l1 5 1-3 .5 2.5q-3.5 1.5-1 3l1 2q-1.7-1.6-3.5 1.5l-5.5-.5 6-.5.5-10zm39 0l1.5.5-1 2.5 2.5-1 1 4q-3.7.8-4.5-1.5 2.5-1.5-1-3l1.5-1.5zm112 2l2.5.5-2 5 2 1-1.5.5-1.5-2.5 1-3-.5-1.5zm4 1l1 2-1-2zm-108 2q5.4-1.9 4.5 1.5l-1.5-.5-5 1v-1l2-1zm26 0l2.5.5-2.5.5v-1zm21 0q1.7 3.1 3.5 1.5l-.5 2.5-2.5-1.5 1 3.5q-3.3 1.3-2-3.5l.5-2.5zm87 0q2.3-.7 1.5 1.5h2l-1.5 2.5-3.5-2.5 1.5-1.5zm37 0l7 1 3.5-.5-.5 1.5h-9l-1-2zm12 0l1.5 2.5-2-1 .5-1.5zm-69 1l1.5 3q-3.5 1.1-1.5-3z"/><path fill="#FEFEFE" stroke="#FEFEFE" d="M316.5 391l.5 2.5-2.5 2.5-11.5-.5 11.5-.5 1.5-1.5q-2.2-1.2.5-2.5zm-113 1l1.5.5-2 1 .5 1.5-1.5-.5-.5 1.5h-12l-1.5-2.5 1.5.5 2 1h9.5q-1.1-2.7 1.5-2l1-1zm57 0v3q-3-1.5 0-3zm33 0l4.5 2.5-.5 1.5h-2l-2.5-.5 2-.5q1.1-2.7-1.5-2v-1zm-83 1l2.5 1.5-.5 1.5-2.5-.5.5-2.5zm-25 1l1 2q-2.8.7-1-2zm114 0q2.3-.7 1.5 1.5l-1.5-1.5zm-134 1l2.5.5-2.5.5v-1zm14 0l2.5.5-2.5.5v-1zm35 0l7.5.5-7.5.5v-1z"/><path fill="#FFF" stroke="#FFF" d="M0 0h460v168.5l-2 4h2l-.5 2.5-1.5-.5 1 4-2 1 1-2q-2.5-1.5-1-7l2-3-2-.5q-2.7-3.5-2.5-11l-1 2-1-2 1.5-.5-.5-1.5 2.5 1-1.5-4-3 2-4.5-5.5 2-.5.5 2 .5-3.5-1.5.5-4-1-1.5.5 2-2-1.5-3.5-3 1-2-1-1.5.5-1.5-3.5-1 2-1.5-3 2-.5q-1.2-2.7-2.5-.5l-4-1-1.5.5-1.5-2.5-1.5.5.5 1.5-2.5-4-3 .5 2 1-1.5.5-2-4-2.5.5.5 1.5-3-1-23-2-11 2-3.5-1.5q.8-2.2-1.5-1.5l-1.5-3h-3q1.1 2.7-1.5 2v-2q-2.6.7-1.5-2h-5v-1.5l-1.5-1.5q-1.7 3.8-3.5.5h2q.9-3-3.5-1.5-2.2 4.3-4.5-.5l-.5-1.5h-2l-1.5.5.5 1.5-2.5-1.5 4-2-9.5-1.5v1l4.5 2.5-1.5-.5-6-4h-5l-3.5-2.5-.5-2.5-1 4-.5-3-2 .5.5 1.5-2-1-2.5 1q1.8-4.5-3.5-3l-2 1-1-1H305q1-3-2-2v-3h-5.5v1q3.8-.7 4.5 1.5l-2.5.5h-2l-2.5-.5.5-1.5-4 1v-2l-3 1-3-1-5 1-4-2-2 1-1-1h-11l-1-1-2 1-4-2q-1.3 2.3-6 1l-2.5-1q1.3-4.1-2-3l-.5 2-3-1v1l1.5.5-3.5.5h-2l-5-1-3.5.5 1-3.5-3-1.5h2l-1.5-2.5-1.5-.5v-4l1-5h-1l-.5 1.5-4.5-1.5 3-.5-.5-2-3 1v-1l1.5-.5-2.5-1.5-1.5.5.5-2.5 1.5.5-.5-2.5H216v-5h-2.5v1q2.3-.7 1.5 1.5l-4-3q.8-2.2-1.5-1.5v-1q2.3.8 1.5-1.5l-2.5-.5-5-1-3.5 2.5 1 3-1 2 1 3-1 3q-.7 2.6 2 1.5l.5-2 .5 3-2 .5 4 .5.5 4 2.5-1.5v2l.5 1.5 1-2 5.5 6.5-1 2.5 3 1.5-1 2 3 2q.8 2.3-1.5 1.5l-3 1-2-1q-1.5 2.5-3-1l-1.5.5.5 1.5-9.5-4v-5.5l-1.5-.5h-2l-2.5-1.5q2.3-1.2-.5-2.5l-2 1v-1l1.5-.5-4-1.5q1.1-2.7-1.5-2v-1q2.6.7 1.5-2l-3.5 1-2-3q-1.2 2.3-2.5-.5l2-.5-.5-2q-1.5 2.5-3-1-2.6.7-1.5-2h-2.5l-2.5-1q1-4.2-2-5.5 2.3-1.3-.5-2.5l-2.5 1.5-1.5-3.5-.5 2.5.5 1.5q-1.2-3.7-5.5-3l-1.5 4-1.5-.5 2 8-1 3.5 2.5-1 3.5 2.5q-.8 2.6 2.5 1.5l-.5 1.5.5 4.5q2.8-1.2.5-2.5-.7-2.2 1.5-1.5v2l2.5 1.5.5 1.5 3-1 1.5 1.5-3 1 2.5 1.5 1.5-.5q-2.2 1.2.5 2.5l3-1 1 2-1.5-.5 2 3 2-1-.5-1.5 1.5 1.5-1.5 2.5 3-1 1 3 1.5-.5-1 2 1.5-.5 2.5.5-7 2.5-1.5-3-1 3-4 1v-2l-4 2-2-1-5 2-5-1v1l3.5.5-3.5.5-2-1-2.5 1.5.5-1.5-2.5.5.5 1.5-1.5-.5q.5 3-6.5 1.5h-2l-1.5.5.5 1.5q-2.2.8-1.5-1.5h-1l-1.5 2.5-4-2q-1.2 2.8-5.5 2.5l2 1-5.5 1.5-2-1v2l-2-1h-2l-4.5 2.5.5 1.5-3-1-2 2-2 1-4.5-1-.5 3-1-3-1 2-2.5-.5.5-1.5-2 1-1.5-.5v5.5h-7.5v1l1.5.5-1.5.5q-1.8-3.7-3.5-.5l-.5 2.5-2-4-7.5.5 2 1-1.5.5h-2l-5-2q-1.2 2.3-6 1l-4-1h-2l-1.5.5.5 1.5-4-2-4 2-2-1-3.5 1.5 2 1-4.5.5-3-2-.5 1.5q2.3 1.2-.5 2.5l-1-2-1 2-3.5-.5 1 2h-2q.7 2.6-2 1.5 1.1-2.7-1.5-2l-1.5-.5q-.7 2.3 1.5 1.5v1l-1.5.5.5 1.5-2 1q-1.5-2.5-3 1l-4-1h-2q-2.6-.7-1.5 2 3-1.2 2 2.5l2-1-.5-1.5 2.5.5q-.5 4-5.5 3.5l-5-2-.5 2.5h2l-1 3 1 2h-2L6.5 155l-.5-3-2 .5 1 3L2.5 168 0 163.5V0zm161 57v1h3l-3-1zm-5 4l-1 3h1v-3zm0 5q-2 3 1 2l-1-2zm20 1l-2 2h2v-2zm-18 1l-1 2-2 1h3v-3zm-2 7q-1 3 2 2 1-3-2-2zm6 1l1 2q1-3-1-2zm11 11q-2 3 1 2l-1-2zm40 0l-2 2h3l-1-2zm18 2l-2 2 3 1 1-2-2-1zm0 4l1 3 1-2-2-1zm-51 1v1h2l-2-1zm30 1l1 2q5 2 4-1h-1l-4-1zm23 0q-1 3 3 2 1-3-3-2zm17 0l-2 2h2v-2zm6 0l-2 2h2v-2zm2 2l2 2h1l-3-2zm4 0l1 2h3l-4-2zm-127 9l-1 2 3-1-2-1zm-19 7v2l2-1-2-1zm-74 10l-1 2 2-1-1-1zm-13 5l2 2h1l-3-2zm395 0l-1 2 2-1-1-1zm4 0l-1 2-1-1-1 2q2 3 3 0v-3zm10 6v2h-2q-1 3 3 1 1-4-1-3zM7 145l-2 3 2-1v-2zm81 0l-2 2q-1 3 2 2v-4zm285 0l-1 3h1v-3zm-239 2l-2 3h2q3-1 0-3zM8 148l-2 2 1 2 2-3-1-1zm366 0l-2 2h2v-2zm-300 5q-1 3 2 2 1-3-2-2zm241 0l-2 3 3-1q1-3-1-2zm81 4l-2 2h2v-2zm-259 11l-2 2h2v-2zm19 5v2l2-1 2 1q1-4-4-2zm149 1v2l2-1-2-1zm31 0l-2 2 2 1v-3zm2 1l-1 3h1v-3zM223.5 84l1 2-1-2z"/><path fill="#FFF" stroke="#FFF" d="M196.5 91q2.3-.7 1.5 1.5l-1.5-1.5zm32 12l2.5.5-2 .5-1 2.5 2 1 .5-2.5 1.5 2.5-1 2 2 3h-1q.8-2.6-2.5-1.5 1.7-2.3-2.5-4.5l1.5-3.5zm-28 1q4-.5 4.5 2.5-2.8 1.8 1.5 3.5l.5-3.5-.5-1.5 3 4-1.5-.5-1.5 3.5-2-3-2.5-1.5 2-1-3.5-1.5v-1zm11 7l1.5 4.5-4 .5.5-3 1 2 1-4zm1 6q2.3-.7 1.5 1.5l-1.5-1.5zm3 2l1.5.5-2.5 1.5 1-2zm3 1l1.5 2.5-2 .5.5-3zm0 4l2 3-2.5-.5.5-2.5zm3 0q4.5 2 1 4l-1-4zm-132 1l2.5 1.5-1.5.5-1-2zm135 3l1.5 3.5.5 1.5 1.5-.5-.5 1.5 3.5 2.5-1 2 3 2-1.5.5-1.5-.5-.5 1.5-1.5-2.5q3.8-1.7.5-3.5-2.2.8-1.5-1.5h-2q1.5-4.4-1.5-3.5l-1-2 2 1v-2zm-123 14q8.1-1.6 11 2 1.7-3.5 7.5-2l.5 2 1-2 1 2-1.5.5 3.5.5 2-1q1.2 2.3 6 1l3.5 2 .5 3 .5-3 2 .5q-2.2 1.3.5 2.5l1.5-.5.5 1.5h7.5v2.5h2q-2.2 1.3.5 2.5 4.8-.7 5.5 2.5l-.5 1.5-1-2-.5 3q5.2 2.1 4-2.5h1l2 3-1.5-.5-1.5.5 1.5 2.5 1.5-.5-2 3 5 .5.5-2 1 7 2-1 1 2h-2q-3.4-.9-1.5 4.5l-.5 1.5q2.6.8 1.5-2.5h1l.5 2.5q1.2-2.2 2.5.5l1 2-1 6.5-4 1 1-2.5-2.5-.5.5 1.5-1.5 3.5-1.5-2.5.5-2.5 1.5-.5-4-1 3-.5-2-6-4.5-1-1.5.5q2.3-1.2-.5-2.5h-2l-1.5-.5 2-1-5-.5-.5-2-1 2-2.5-1.5.5-1.5H143q1.3 3-2.5 2l-4.5-1q1.1 2.7-1.5 2l-1.5-.5-1.5 2.5-1.5-.5 2-1-5-.5v5q-2.7-1.1-2 1.5h-1q.8-2.6-2.5-1.5l1.5 2.5-2 2-.5 4.5-1-3-3.5 1.5 2 .5-.5 3-1-2-.5 3q3.8-1.5 3 1.5l1 2v2l-1 3 2.5 5.5 1.5-.5-.5 1.5 2.5 1.5-1 2 .5 1.5-2.5-1-1 2.5 1.5.5 2-1h2l2 1q1.5-2.5 3 1l2.5.5-2.5.5-2.5-1.5 1 2-.5 1.5 3-1 2 3 1.5-.5q-3.7-1.8-.5-3.5l4.5 2.5-5.5 2.5h-4q-2.2.8-1.5-1.5l-2-1q1.9 5.4-1.5 4.5v-2l-9.5-1 .5 2 4-1 1 2h-2q-5-1-4 2h-7q-1.5-3-6.5-2.5l3-1-2.5-1.5-3 2v-1l1.5-.5-2.5-.5-4 1-3-1v2l-3.5-1-.5-2-3 2-9.5-5.5 1.5-.5 5 3 .5-4-2.5 1-1-1-8.5-.5.5-1.5-4-2v2l-1-3-2.5-1.5-1.5-2.5-1.5-.5 1.5-.5 3 2-2-3-3.5-1.5 1-3-1.5-1.5-3.5 2.5q-.7-2.2 1.5-1.5v-1l-3.5-.5 2-4-1.5-3.5-1.5-.5v-7h1l.5 6.5 1.5-3.5-2.5-6.5-2.5 1.5 1-2.5 4-.5-3-1.5 1.5-3q2.3.8 1.5-1.5l-.5-1.5q5.4 1.9 4.5-1.5l1-4-.5-1.5h2l1.5.5-2 1 3.5.5-.5-1.5.5-2.5 1 3 .5-5h2q-1.3-4.1 2-3-1.7 4.1 2.5 3v-1l-1.5-.5 2-.5-.5-2-1.5.5 3-2 .5 1.5.5-3 4.5 1 4.5-2 1.5-3 2-1 2 1h4l10-1 2 1 2.5-1.5-6.5-.5v-1zm62.5 36l-1 3h3l-2-1v-2zm-48 21q-1 3 2 2 1-3-2-2zm6 6l-1 2q2 3 3 0l-2-2zm-53 2l1 2h1l-2-2zm162-65l2 .5-2 1V142zm109.5 0l12 1q1.3-2.2 6-1l2 1q1.3-2.2 2.5.5l-4.5.5-3-1 1 2 9-1 3 1h2l2-1 1.5 3 2-.5-.5-1.5q2.8 1.2.5 2.5l.5 1.5 2-2 2.5.5-.5 3.5 5-2v1l-1.5.5 5 .5.5 3 1-2 .5 3-2 .5 5.5 1.5 2.5-1 1 3.5-1 2 3 1 .5 2.5 1-2 2 3-2-1-1 2q6.3-1.2 7.5 2.5l-.5 3.5-2-5-.5 1.5 1 3-1 4 2 .5.5 2 .5-5 2 .5-1 3 3 6q-3.1 1.8-1.5 3.5l-2.5.5 2 1-1.5.5-1.5-.5-1 4 1 2h-1l-.5-1.5-3 6q-3.7-1.2-2.5 2.5v2q.5 4-2.5 4.5-1.5-2.5-3 1l-2-1-1.5 2.5.5 1.5-2-1-1 1-10.5.5 1.5 2.5 1-2h2l1.5.5-.5 2.5-3-1v2l-7.5 2-.5-2-.5 2-6-1q-1.2 3 2.5 2v1l-4.5-.5.5-1.5-9-1 1 2 4-1v1l-5.5 1q1.1 3.5-6.5 2l-4-2h-2l-3.5-1.5 2-1-3.5-.5-1 3-2.5-.5.5-1.5-3-1-1 2-11.5-3.5 3.5-.5 3.5 2 .5-2 1 2 2.5-1.5-2-1 2-1 1.5 2.5 1.5-.5v-2q-1.3-4.2 3.5-2.5l2.5-3.5q-2.2-1.2.5-2.5l4.5-.5q-1.2-2.7-2.5-.5l-1.5-.5 2-1-.5-1.5 1.5.5-1-2 1-3-1-2h2q.7-2.6-2-1.5v-3.5l.5-2.5 1.5.5-1.5-2.5-1.5.5.5-1.5q-2.2.8-1.5-1.5l4 2-1-3 1-3-2-1 1 2h-2l-.5 1.5-2.5-.5q3.8-1.8.5-3.5l-1 2-4.5-3q1.1-2.7-1.5-2v-1l2 1 1-2-25.5.5 3 1-2.5.5q-1.3-2.3-2.5.5l1 2.5-5 1.5q2.3 1.3-.5 2.5l-2-4-.5 7.5v2l-1 9 1 3h-1l-1.5-4.5-1 3-5.5-6.5 2-1 .5 2.5.5-4.5-2-1-.5 1.5-.5-1.5q4.5-2.5 3-11h-1l-1 7.5-2-.5 2-5-2-1 2-.5.5-3 1.5.5V167h5v-1.5l1-4h-2l3-1 .5-1.5.5 1.5-.5 1.5 3.5-1.5V156h5.5l.5-2h1.5l1.5-2.5-3 1 4.5-3.5 3 1 3.5-1.5-2-1 1.5-.5 1 3 5.5-1q-2.2-5.6 3.5-4l7-2 7 2 4.5-1.5-9.5-.5v-1zm3.5 48l-1 3h1v-3zm59 5l-2 3 2-1v-2zm-11 11q-1 2 2 1 1 2 2 0l-4-1zm-49 12l-2 2h3q1-3-1-2z"/><path fill="#FFF" stroke="#FFF" d="M95.5 143l2.5.5-2.5.5v-1zm230 2l1.5.5-1 2.5q-2.7 1.1-2-1.5l1.5-1.5zm-296 4l1 2-1-2zm-4 4h2q2.3-.7 1.5 1.5-3.1 1.8-1.5 3.5-3-.9-1.5 3.5h-1l1-4-1-2 .5-2.5zm127 0l2.5 1.5-1.5.5-1-2zm156 0l-1 2 1-2zm84 0l1 2-1-2zm37 1l2 3 1.5-.5v3.5h2q-1.1 2.7 1.5 2v-2q2.6-.8 1.5 2.5 4 2 0 4l.5 1.5q1.3-2.2 2.5.5l1 2v2l-1 3 1 2-3-2 1-4-2-.5-1 2.5 1 2-1 2q2-1.7 4 2l-2 3 1 2.5-3 1.5.5 1.5-2-3q1.3 2.3 2.5-.5v-2l-.5-2.5-1.5.5q1.3-4.8-1-6l2-4h-1l-.5 1.5-.5-1.5 1-1-1.5-2.5q2.3.8 1.5-1.5h-2l-1-2 2-1-3-1v-3l-2.5-4.5zm-406 2v5l-1.5-1.5 1.5-3.5zm280 0l.5 3.5h-1l.5-3.5z"/><path fill="#FFF" stroke="#FFF" d="M21.5 162q3.3-1.1 2.5 1.5l-.5 1.5q2.3.8 1.5-1.5h1q1.3 3.8-2.5 2.5l.5 1.5 1 2h-2l1 3-3 1 3 1q-1.5 5.5 1 7l-1.5.5-3.5-1.5 2-1-3-2 1-2-1-1 1.5-2.5-2.5-1.5 1.5-4.5 2.5 1v-2q-2.7 1.1-2-1.5l1.5-1.5zm146 5l.5 2.5h-1l.5-2.5z"/><path fill="#FFF" stroke="#FFF" d="M.5 168l2.5 6.5v2l1 5 2 2H4l1 2-1 3.5 2.5 1 .5-2-2-.5 2.5-1.5q-1.8 2.2 2.5 4.5-.5 4 2.5 4.5l1.5.5-1.5.5-1.5-.5 1.5 3.5 3.5-.5-.5-1.5 3.5 2.5-2 1 4 .5q-1.1 2.7 1.5 2 1.8 3.1 3.5 1.5l-.5 1.5 2 1h2q2.3-.7 1.5 1.5l-1.5-.5-1.5.5.5 2.5 5-2 2 3 2-1 2 1h2l5 4v1q-2.2-.7-1.5 1.5l5 2.5 2 5 4 1 2.5 5q6.1 1.4 8.5 6.5l-5 1 8.5.5 1.5 1.5q-.8 2.6 2.5 1.5l2.5 1 .5 2q1.8-2.8 3.5 1.5v1.5h4v2h3.5l8.5 4 .5 2 2-1q1.3 3 5.5 2-1.3 3.7 4.5 2 2.8 1.2.5 2.5l-1.5 7.5-1.5-.5.5 26.5 1-3 1.5 12.5 1.5 1.5h1.5v4h1.5l5.5 10-2.5-1-.5 1.5q1.3 2.8 2.5.5l3.5 1 1 2.5-2 .5-.5-2-.5 3.5 1.5-.5 4.5.5-3 1 9 6 .5 2.5 2-1v1l-1.5.5 3.5.5 7.5 5.5-2.5.5-1.5-.5q-.5 3 6.5 1.5l7 5 5 1 5.5 3.5-2 1 2.5.5h2l8.5 2.5-4 2 .5 1.5q2.6-3.4 10-2l2 2h4q.8 2.8 5 2h2l4 2q1.3-2.2 6-1l3.5 1.5-.5 1.5q2.6.7 1.5-2h2.5l6 2 1-1h13l2 1q1.5-2.5 7-1l2 1 1-1h8l5 1v-1q-3.7 1-2.5-2 7.6-1.1 11 1-1.3-3.3 3.5-2l2-2 3 1 3-2 3 1v-1l-1.5-.5 5.5-.5 2 1-1-3q4.6.6 6-2 1.5 2.5 3-1l3-1 1.5.5V353h4v-2h4.5v-2q3.3 1.1 2.5-1.5l5.5-3.5h2.5v-2h3q-1.1-2.7 1.5-2l1.5-3q2.7 1.1 2-1.5h2q-.9-3 3.5-1.5v-2q2.6.8 1.5-2.5l3-1 .5-2.5.5 3q2.7 1.1 2-1.5l-1-2 3-2-1-2.5q3 1.3 2-2.5l8-12q-2.2-1.2.5-2.5 2.6.8 1.5-2.5l-1-2q3.9-3 3-9.5 2.7 1.1 2-1.5l-2-3 2-.5-.5-3-1 2-.5-1.5v-2l.5-10.5 1 9 .5-9.5-1.5-2.5-1 2-1-5-1 2-.5-6q7.1.3 10.5-4 1.5 2.5 3-1 4.4 1.5 3.5-1.5l2.5-1.5 1.5.5q-.6-2.7 5.5-1.5v-1l-1.5-.5 11.5-6.5 1.5.5-1-2 1.5.5h2.5q-1.1-2.7 1.5-2v-2l3.5-2.5q-.7-2.2 1.5-1.5l3.5-1.5q-1.2-3.7 2.5-2.5v-2q1.3 2.3 2.5-.5l-.5-1.5 4.5-3.5V220q3 1.3 2-2.5l3-1.5.5 3 3.5-2q-1.1-2.7 1.5-2l3-2v3l-2-1-.5 2q4.6 1.3 6-1.5l-.5-1.5-1.5.5 2.5-3.5 2 1 2.5-.5-1-2 2.5-.5 2.5-.5q-2.2-1.2.5-2.5v2l3-2v-2h2l1.5-.5-.5-1.5 3.5-1.5-.5-1.5 3 1 .5-2.5h-2q-.7-2.2 1.5-1.5l6.5-1-1.5-4-2.5 1 1.5-3 2.5 1.5-2-3 2-1-.5-3.5 1.5.5-1-2 1.5-.5 2.5 2.5V460H0V175.5l1-2q-2.4-1.3-.5-5.5zM21 204v2h3l-3-2zm417 5l-3 1 1 2 3-2-1-1zm-405 1l1 2q1-3-1-2zm45 38l1 2h1l-2-2zm21 11v2h5l-5-2zm7 8l-1 10h1v-10zm0 17l-2 2 1 2h1v-4zm249 11l-1 6h1v-6zm-175 66v1h2l-2-1zm15 5v1h4l-4-1zm76 2l-2 2 1 3v17l-1 1 1 2-3 2q1 2 3 0l1 1h9q-1-3 2-4v-4l-1 3-1-2 1-3 3 2h2l6 3q2-1 1 2h2v2l-2 1h5l-1-2 4 2 1-1 2 1h11l1-1-3-1-1-2q1-3-1-2v2h-2l-1-1h-1l-3-1 1-2-3-2-2 2-3-3-1 1-1-2 3-1 1 3h2l-1-2 4-3v2q2 1 1-1l3 1 2-4 1 2v-2h5l-2-1 2-1 1 1v-2h-8v-2q-3-1-2 2l-4-1-1 2-1-1-1 2-3-2-2 4-5-1v2l-1-2-1 3-1-2-4 3-3 2q-1-3 2-2v-2h-2l2-1-2-6 1-2-1-3-9-1zm12 0l-2 3 1 2h1v-5zm51 0q-2 3 1 2 2 1 0 3l3 1h2l2-1 2 2h-17l-3 1v-2l-1 2-1 3 3 3-1-1-2 3 2 1q-1-3 2-2v-2h7l3-1-1 2 1 4q2 5-1 7l1 2 1 1h23l1-3-1-3-1 2-1-1-2-1-6 2v-1l-3-1v-12l2-1v2h1v-4h-2l2-1-2-1 2-1-1-4-2 1h-2l-5-1h-2l-2 1-2-1zm-66 2l-2 2 1 1 2-1-1-2zm65 1v2l2-1-2-1zm-230 2l-4 6 1 1v11l-1 5h11q1-8-1-11h3l-2-1 7-3-1 4h3l-1-3 3-1-1 3 1 1v10q1 3 8 1l2-3-1-3q-1-6 2-7l2 1-1-1 4 2 2-3 2 4v4l-3 5 1 1h14l1-2-2-10 1-3-2 1v-1q1-3-2-2v-5h-1v2h-2l-5-1-2 1-4-1-1 3v-1q1-3-2-2l-1 4-1-3v-2l-2-1v2l-4 1v-2l-1 2q-4 1-3-2l-3 1h2v1l-5-1-1 2-1-2q2 1 1-1l-2-1-2 1v2h-4l-2-3zm18 0v1h2l-2-1zm36 0v2l2 1q1-4-2-3zm56 0v2l-2 3 4-3-3 4 1 1v14l-1-1-2 1 3 2h2q6 2 8-1l2 1-1-3-1-3v-5q3 1 2-2l4-1-1 2 3 1-1-1 5-1-2-1v-1l5 1v-2l6 1 1 2v-1l2 1h-1q-3 1-2 7h1q-2-6 2-5v9l-1 1 2 1h9l1-2h-1l-1-2h3l-3-2v-9l-2-3 1-2q-2 1-3-2l-5 1h4v1q-6 1-7-2l-1 2h-5l2-1v-1l-5 2-4-2 1 3-3-2 1 3q-3 1-2-1l-1-4-1 2v4h-2l1-4-2-1v3l-2-2q-6 1-8-2zm55 0l-1 18 2-1v-15l-1-2zm-125 1v1h3l-3-1zm27 0l-2 2q-1 2 2 1t0-3zm33 0v2l-4-1-6 1q-3 1-1 3l-1 8-3 1q-3 1-2-1h4l-1-7h-1v5q-4-1-3 3l-2 1 2 1h-4l-5 1h4v1l-4-1-2 1h-4l3-1-3-3v2l-2-1 2-3-2-1q1-7-1-10-8-2-10 4l1 6q-4 1-2-5l-2 1 1 2-1 3 1 8v1l2-1v2l2-1 2 1h2l2-1 1 1h16l3-1 2 1v-2l3 2h12v-1l1-2h-2v-14l4-2-1-1q1-3-1-2zm108 0v1h3l-3-1zm-156 1l1 3 2-1-3-2zm34 1v1h2l-2-1zm14 2v1h2l-2-1zm-12 1l-1 6h1v-6zm68 0v3h1q1-4-1-3zm-143 3l-2 2h2v-2zm123 0v1q4-2 3 2l2-1q-1-3-5-2zm71 0l-2 2h2v-2zm-76 2v1h2l-2-1zm69 0q-1 3 2 2 1-3-2-2zm23 0v1h2l-2-1zm-66 1l-1 6h1v-6zm-128 2l-1 3h1v-3zm71 3v1h2l-2-1zm42 1l-1 3q-1 3 2 2v-2q1-4-1-3zm24 0l-3 2h3v-2zm22 0q-3 4 1 3l-1-3zm1.5-221l.5 3-2-.5 1.5-2.5z"/><path fill="#FFF" stroke="#FFF" d="M169.5 175q2.3-.7 1.5 1.5l-1.5-1.5zm-119 6l.5 3.5h-1l.5-3.5zm-28 2q2.3-.7 1.5 1.5l-1.5-1.5zm30 5l.5 2.5h-1l.5-2.5zm383 0l-.5 1.5-.5 2.5-.5-2.5 1.5-1.5zm-291 1l3 1q1.3-2.2 2.5.5l-2 6 .5 1.5-2.5.5 2 1-2.5.5-2-3-1.5.5.5-1.5-1.5-.5 3-2-.5-1.5-2.5 1.5 1-3.5 2.5-1zm24 1l.5 2.5-.5 2.5-1-3-2.5 1.5v2l1 3-2.5 1.5v-1l1.5-.5-2-2 1.5-2.5q-2.6.7-1.5-2 4.3 1 5.5-2zm145 0h2l3 1 1.5-.5 1 2-1.5-.5-2 1v-2l-3 1-2.5-.5 1.5-1.5zm.5 3l2 .5-.5 1.5 2-1 1.5 2.5q-3.5 1.5-1 3 .8 2.6-2.5 1.5l-2.5-1.5 3-1-3.5-4.5 1.5.5V193zm2 3v2l2-1-2-1zm136.5-3l2.5.5-2.5.5v-1zm-132 2l.5 2.5h-1l.5-2.5zm-21 6l1 2-2.5-.5 1.5-1.5zm-82 1l3.5.5-3.5.5v-1z"/><path fill="#FFF" stroke="#FFF" d="M222.5 202h15l.5 2.5-2.5.5-3-1 1 2h12l1.5-1.5-1.5-.5-1.5.5 3.5-1.5 2.5 1.5-.5 1.5 3.5-.5-2-1 8.5-.5v1l-4.5.5 14.5.5 5.5 3.5q-4.6-.6-6 2l1.5.5 3-1 6.5 1 .5-2 .5 2 2.5-1v2l3-1 5.5 2.5-2.5.5-3-2-.5 2q4.5-.2 6.5 3l3-1 5.5 1.5-1 2h2q-2.2 1.3.5 2.5h2.5q-1.5 3.7 1.5 3v-2l1.5-.5-2-1 3-.5-1 2.5 2.5 1.5 1.5-.5-3 2 2.5 1.5 1-2 1 2 1-2 2.5 2.5-1 1q3.1 1.8 1.5 3.5h5.5v2.5l3 1-.5 1.5h1.5q-1.5 3.7 1.5 3l-.5 1.5v1.5h5.5l.5 1.5v2l-1 2 2 1 .5-1.5.5 3 3 1.5-1 2 1 1V268q4.1 1.7 3-2.5h1l2 10-1 3 1 3-3 5 2 1-1.5 2.5-1-2-1 2-1.5-.5v8l1 1-3.5 6.5q-2.2.8-1.5-1.5h-1l-1 4 1.5.5 1.5-.5-3 2q2.8 1.8-1.5 3.5-1.7-2.7-3.5 1.5l.5 1.5-1.5.5 2 1-6 1 1.5 2.5-2.5-1.5 1 3-3 .5-.5 2q-1.2-2.2-2.5.5l.5 1.5-1.5-.5-1.5 3.5-3 2 .5-1.5-.5-1.5-4.5 1.5q2.3 1.3-.5 2.5-2.6-.8-1.5 2.5l-3.5-.5-1.5 1.5.5 1.5-2.5-4q-2.7-1.1-2 1.5l-.5 1.5 2.5.5-2 .5-1.5 3h-2l-5-1 .5 1.5-2.5 3.5-.5-3 2-.5-2.5-1.5-1.5 3.5q2.3 1.3-.5 2.5h-9l-.5 2.5-1.5-.5-1.5-.5 2-1-3.5-.5-1.5 3 2 .5-2.5.5-2.5-1q1.3 3.3-3.5 2-4.9 3.3-13.5 2 1.3-3.3-3.5-2l-4.5 1.5 2 .5q1 3-2 2 1.3-3-2.5-2l-3 1-7-3 1 2 3.5 1.5-1.5.5-2-1q-1.2 2.3-6 1v-1l3.5-.5-3-1 2-1-3-.5-.5 2-4-1-1 1h-10q-1.5-3.5-3-1l-4.5-1.5 1-2-1.5.5-2.5-.5 3-1-5.5-1.5v2l-3.5 1-.5-2-2 1v-2q-10.2 2.3-12.5-3.5l1.5-.5 1.5.5q.9-3-3.5-1.5l-3 2v-1l2.5-1.5-3.5-.5-2 1-2.5-.5q.8-2.6-2.5-1.5l-2.5-1.5 1.5-.5 4.5 1.5q.5-4-2.5-4.5l-1.5.5.5 1.5q-1.5-2.5-7-1l-4.5-3-2.5-5-.5 2-2-.5q2.3-1.2-.5-2.5l-4-2-1.5.5.5-1.5-3.5-1.5.5-3.5q-5.8 2.1-4.5-2.5l-3-1q-.7-2.2 1.5-1.5l1.5-4-3.5 1-3.5-1.5 2-1-1.5-3.5-2 1v-1l2.5-1.5-6-2q1-6-2-8V285l2-.5v-8h-1l-.5 2.5-2.5-.5.5-2.5 1.5.5q-.7-2.2 1.5-1.5l-1.5-2.5 2-6h-2l.5-4.5 1 3 1-9 1 1 3.5-3.5-.5-1.5q2.6.8 1.5-2.5l1-3V245h5v-2.5l-1-2q1.3-2.7 2.5-.5l3.5-1.5-1-4.5 4-.5-.5-1.5 3 2 .5-2.5 1.5-3.5 4-3 1 3q-.2-4.7 3-6l4 1 3-1 2.5-.5-5-1 6-.5 1-4 3.5 1 2.5-1q-1.3 3.3 3.5 2l-1-2-1.5-.5 3-.5-1-2.5 5.5-1.5 5 1-1-3 2.5.5q-2.2 1.3.5 2.5h2q2.6.7 1.5-2h2.5v-1l-4 1 1-2 4-2 8-1 4 1q2-4 4 0 2.6.7 1.5-2h5.5l6 2h2q5.8 1.7 4.5-2l-6.5-1v-1zm7.5 1v1h2l-2-1zm-16 2v1h4l-4-1zm55 3v1h2l-2-1zm-2 2v1h2l-2-1zm-49 2q-2 3 1 2l-1-2zm6 0v3l-3-1-3 1h-2l1 2h-2v2q-1 2-2 0l-2 1 1 3 1 3-1-1-2 3q2 3 4-1l1 2-1-1-2 4-1 2 4-1 7 1 2-3-2 1 3-4q2 1 1-1v-2l-1-2h2v-6h-2l2-1-2-2q1-3-1-2zm17 0l2 4-2-1-1 3v-1l-2-1v5l-3-1q-1 3 2 2l1 5-1 2 3 1h-2l1 2-1 2h12v-2l-4-1q6-2 4-10-4-2-1-3l-3-1 2-1 1-3-1-1-1 3q-3 1-2-1h-1l-3-2zm47 4l-2 2h2v-2zm-54 1l-1 3h1v-3zm-23 3l-1 3h1v-3zm24 2l-2 2h2v-2zm-81 4l-2 3 2-1v-2zm70 6v2l2-1-2-1zm99 6q-2 3 1 2l-1-2zm-192 10l-2 2h3q1-3-1-2zm101 3v1h4l-4-1zm6 1l-9 4-16 2 2 1h-1l-2 2h-3l3-1q1-3-2-2v-2l-3 7-2-1q-5 2-2 4v1l-1-2-2 5-2-1v3l-1-1-3 2 2 1h-1l-1 3q-3-1-2 2h-4l1 6q2-1 0-2h3l-2 3-2 1 1 2v2l-1 1v13l1 4v1q2-1 1 2l1 1q-4-1-3 2l4-1q-2 2 1 4l-1 1h2l1 3-1 3 2-1 1 3v-1l5 4-3-1q-2 6 4 4h4q2 1 0 3l3 1v-2l2 1v2l2-1 3 2-2 1h12l5 3h4l-2-1 3-2 9-1 3 1 5-3-2-1-2 1 4-3v2h1q-1-3 2-2h4q1-3-2-2l2-4 3 1h2l-1-5 2-1-1-1 3 1v-1h2l-1-4-1 2h-1l2-4 1 2v-6l1-2v-3h4v-1h-1l-2-3v-2l1-5-1-2 1-2q1-3-2-2v-4l-1-6v-5l-2 4-3-3h2q2 1 1-1-1-3-2-1l-1-4h-3v-3l-2 1-2-2h2v-2h-3v-2l-2 1-1-2-1 2-2-1 2-1v-1l-3 1-3-1 2-1-1-3-4 1h3v1l-6-1h-2l-1-2-2 1h-2l4-2q1-3-1-2zm-36 10l-3 2q2 3 3 0v-2zm-8 7v2l2-1-2-1zm-4 4v1h2l-2-1zm-1 1l-1 3h1v-3zm-68 14l-1 4h1v-4zm156 8l-1 4h1v-4zm58 5v2l2 1q1-4-2-3zm-145 18v1h2l-2-1zm126 4v2l2-1-2-1zm-121 3v3q3-1 0-3zm-41 3l-2 2q2 3 3 0t-1-2zm152 1q-2 3 1 2l-1-2zm-99 6q-2 3 1 2l-1-2zm22 7v1h2l-2-1zm8 0v1h2l-2-1zm-3 1l-1 2h5l-4-2zm-21 7v1h3l-3-1zm37 0v1h4l-4-1z"/><path fill="#FFF" stroke="#FFF" d="M239.5 202l3.5.5-3.5.5v-1zm146 11l1 2q-2.8.7-1-2zm-163 3q2.3-.7 1.5 1.5l-1.5-1.5zm-128 4l2.5.5-2.5.5v-1zm209 0l1 2-1-2zm-88 10q2.6-.7 1.5 2h2.5v1q-4.7.5-4-3zm25 1l3.5 1.5-4 .5.5-2zm-105 5l1 2-1-2zm195 6l1 2-1-2zm10 16l.5 6.5h-1l.5-6.5zm-223 24l1 2q-2.8.7-1-2zm224 9l1.5.5-2 .5 1 2.5-2-1 1.5-2.5zm-95 46l2.5.5-2.5.5v-1zm28 10l2.5.5-2.5.5v-1zm-124 37l.5 5.5h-1l.5-5.5zm6 2l1.5 2.5q-1.5 3-3 0l1.5-2.5zm33 7q3.3-1.1 2.5 1.5l-1.5-.5-1-1z"/><path fill="#84603E" stroke="#84603E" d="M204.5 61l-2 3 2-3zm2 1l3 4-3-4zm-41 1l2 3-2-3zm36 2l.5 4.5h-1l.5-4.5zm-32 1l6 7-6-7zm-10 2l.5 2.5h-1l.5-2.5zm2 5l1 2-1-2zm54 0l1 2-1-2zm-37 1l1 2-1-2zm25 0l2 3-2-3zm4 4l1 2-1-2zm-23 2l11 12-11-12zm-12 1l2 3-2-3zm48 0l1 2-1-2zm-9 2l1 2-1-2zm-34 2l2 3-2-3zm38 3l1 2-1-2zm-30 4l1 2-1-2zm34 2l1 2-1-2zm-21 1l1 2-1-2zm-7 2l1 2-1-2zm10 1l1 2-1-2zm10 1l10.5.5-10.5.5v-1zm28 0l10.5.5-10.5.5v-1zm19 1l7.5.5-7.5.5v-1zm-73 1l2.5.5-2.5.5v-1zm87 0l2.5.5-2.5.5v-1zm-96 1l4.5.5-4.5.5v-1zm48 0l4.5.5-4.5.5v-1zm6 0l1.5 2.5h-1l-.5-2.5zm50 0l4.5.5-4.5.5v-1zm-82 1l4.5.5-4.5.5v-1zm90 0l2.5.5-2.5.5v-1zm-125 1l3.5.5-3.5.5v-1zm131 0l3.5.5-3.5.5v-1zm-142 2l2.5.5-2.5.5v-1zm48 0l1 2-1-2zm105 0l2.5.5-2.5.5v-1zm-95 2l1 2-1-2zm-70 1l2.5.5-2.5.5v-1zm65 3l1 2-1-2zm24 0l1 2-1-2zm-21 3l2 3-2-3zm9 2l2 3-2-3zm-5 3l3 4-3-4zm8 1l1 2-1-2zm-166 4l4.5.5-4.5.5v-1zm19 0l5.5.5-5.5.5v-1zm144 1l1 2-1-2zm-173 1l2.5.5-2.5.5v-1zm42 0l2.5.5-2.5.5v-1zm301 1l13.5.5-13.5.5v-1zm-161 1l1 2-1-2zm152 0l3.5.5-3.5.5v-1zm27 0l3.5.5-3.5.5v-1zm-183 4l2 3-2-3zm-197 2l-1 2 1-2zm206 1l1 2-1-2zm-209 1l-2 3 2-3zm409 0l1 2-1-2zm-330 1h18l17 3q17.4 5.1 28.5 16.5l9 14q2.3 6.7 1 17-3.5 13.5-13 21l1.5.5 10-5 26-7 13-1 1-1h34l1 1 14 1 16 4 21 8v-1l-2.5-1.5-9-13-2-7v-11l4-11 12.5-13.5 14-8 17-5 26-1 17 3 8 3 14 8 10.5 10.5 6 13v13l-6 13-5 6.5-9.5 7-21 9-11 2h-24l-11-2-10-4 1 2 16.5 14.5q6.9 6.8 10 16.5l13.5-4 18-9 22.5-16v-2q2.7 1.1 2-1.5 1.8-3.2 6.5-3.5v1l-3.5 2.5-5.5 6.5q-2.2-.7-1.5 1.5l-11 7.5q1.1 2.7-1.5 2l-13 8-24.5 11.5 4 14v17l-3 13-9 17.5q-2.7-1.1-2 1.5L325.5 333q-19.9 16.6-48 25l-12 2-4 2-15 1-1 1h-30l-1-1-15-1-28-8-22-11-17.5-13v-2q-2.7 1.1-2-1.5l-9-10-7-13-4-17v-13l4-16L83.5 243 59 225l-8-11.5 1.5-.5 12 13 5.5 3q-1.1 2.7 1.5 2l9 7 17 9 18.5 7 4-9.5 10.5-12.5 2.5-1.5 1.5-2.5 8.5-6.5-2.5-.5-7 3-11 2h-23l-23-6q-13.7-5.8-22.5-16.5-7.5-7.5-8-22 2.8-1.7 1-8l4-9L61.5 153l18-10 22-5zm-1.5 3l-10 2-14 5-14 9q-10 8-13 22v7l2 7 6 10q9 10 23 15l14 4 13 1 1 1 21-2 20-7 1-3 2 1v-1l3-2 3-3 1 1 3-2 8-11 3-12-4-15-6-8-9-8-21-9-10-2h-23zm240 0l-11 2-13 5-13 8q-10 8-14 21l1 15 5 9 11 9-1-3 3 5q1 2 3 0v2l2-1v2l2-1-1 2 12 4 22 4q31-1 50-15 10-7 14-21v-11l-7-14-11-11-18-8-14-3h-22zm-120 60l-1 1h-8l-17 3-22 7-27 15-13 12q1 2-2 1l-11 20-3 11v16l2 8q7 16 18 28l24 16 16 7 24 7 13 1 1 1h10l1 1h13l1-1 18-1 21-5 24-10 14-9q2 1 1-2l6-3q10-8 16-20l7-20v-12l-2-8q-4-14-12-23-10-12-22-20l-25-12-17-5-17-3-31-1z"/><path fill="#84603E" stroke="#84603E" d="M233.5 139l.5 3.5h-1l.5-3.5zm-6 1l1 2-1-2zm-210 1l-5 6 5-6zm422 1l1 2-1-2zm-404 1l1.5.5-2 1q2.8 1.8-1.5 3.5l-.5-2.5 2.5-2.5zm194 0l2 3-2-3zm213 2l1 2-1-2zm-411 1l-2 3 2-3zm392 1q2.3-.7 1.5 1.5l-1.5-1.5zm-413 2l-1 2 1-2zm22 0l-.5 1.5-1.5 2.5.5-1.5 1.5-2.5zm395 0l1 2-1-2zm20 1l2 3-2-3zm-21 1l1 2-1-2zm5 1l2 3-2-3zm-407 1l-2 3 2-3zm-3 4l-1 2 1-2zm415 1l2 3-2-3zm16 0l1 2-1-2zm-426 5l.5 2.5h-1l.5-2.5zm407 3l.5 2.5h-1l.5-2.5zm-430 1l.5 5.5H3l.5-5.5zm14 0l.5 7.5h-1l.5-7.5zm8 2l.5 4.5h-1l.5-4.5zm417 1l.5 8.5h-1l.5-8.5zm14 1l.5 4.5h-1l.5-4.5zm-316 1l3.5.5-3.5.5v-1zm177 1l7.5.5-7.5.5v-1zm117 0l.5 5.5h-1l.5-5.5zm-302 1l-1 2-4 3 3-4 2-1zm-107 2l.5 4.5h-1l.5-4.5zm129 0l3 4-3-4zm155 0l-3 4 3-4zm25 2l4 5-4-5zm100 2l.5 4.5h-1l.5-4.5zm-130 1l-1 2 1-2zm149 6l-1 2 1-2zm-429 1q1.8 3.1 3.5 1.5l-.5 2.5-3-4zm119 0l-2 3 2-3zm6 0l2 3-2-3zm284 0l.5 2.5h-1l.5-2.5zm5 0l-2 3 2-3zm-276 1l.5 8.5h-1l.5-8.5zm138 0l.5 3.5h-1l.5-3.5zm19 0l1 2-1-2zm22 0l.5 3.5h-1l.5-3.5zm-330 2l1 2-1-2zm424 1l-2 3-1-2q1.5 2.5 3-1zm15 0l-1 2 1-2zm-434 4l5 6-5-6zm284 0l.5 2.5h-1l.5-2.5zm41 0l.5 2.5h-1l.5-2.5zm106 0l-6 7 6-7zm-126 2l-3 4-4.5-.5q6 .5 7.5-3.5zm-178 1l2.5 1.5-1.5.5-1-2zm168 0l1 2-1-2zm-150 2l-1 2 1-2zm-136 2l1 2-1-2zm277 0l1.5 2.5-2-1 .5-1.5zm136 1l-1 2 1-2zm-3 2l-1 2 1-2zm-98 1l-3 4 3-4zm-199 7l6.5.5-6.5.5v-1zm180 1l5.5.5-5.5.5v-1zm-102 2l-1 2 1-2zm29 0l2.5 1.5-1.5-.5-1-1zm-32 5l.5 2.5h-1l.5-2.5zm9 6l-2 3-2.5-.5 4.5-2.5zm23 1l-1 2-2.5-.5 3.5-1.5zm-18 27l7.5.5-7.5.5v-1zm28 8l1 2-1-2zm-51 1l-7 8 7-8zm59 7l1 2-1-2zm-67 2l-1 2 1-2zm71 4l1.5 2.5-2-1 .5-1.5zm-78 12l.5 2.5h-1l.5-2.5zm83 4l.5 7.5h-1l.5-7.5zm-83 10l.5 2.5h-1l.5-2.5zm4 13l1 2-1-2zm70 7l-6 7 6-7zm-58 7l1 2-1-2zm49 1l-1 2 1-2zm-44 2l1 2-1-2zm6 3l3.5 1.5-1.5.5-2-2zm6 2l3.5.5-3.5.5v-1zm13 0l3.5.5-3.5.5v-1zm36 30h8.5v17.5l-.5 8.5-.5-25h-7.5v-1zm68 3l4.5.5-4.5.5v-1zm-238 5l.5 17.5h-1l.5-17.5zm7 0l1.5 3.5-2 .5.5-4zm84 0l.5 9.5h-1l.5-9.5zm8 0l.5 17.5h-1l.5-17.5zm-73 1l2 3q-2.2.8-1.5-1.5l-.5-1.5zm171 0l2.5.5-2.5.5v-1zm-181 1l2.5.5-2.5.5v-1zm20 0q3.8-.7 4.5 1.5l-1.5-.5q-4 .8-3-1zm98 0l2.5.5-2.5.5v-1zm89 0h12l1.5 1.5-.5 14.5-.5-15h-12.5v-1zm-211 1l1.5.5-2.5 1.5 1-2zm36 0l.5 14.5h-1l.5-14.5zm-17 1l-1 2 1-2zm-22 1l-1 2 1-2zm145 0l.5 12.5h-1l.5-12.5zm-32 1l-1 2 1-2zm24 0l.5 11.5h-1l.5-11.5zm-118 1l-.5 1.5-.5 9.5-.5-9.5 1.5-1.5zm-21 1l.5 9.5h-1l.5-9.5zm51 5l1.5 2.5-2-1 .5-1.5zm8 0l1 2-1-2zm24 1q3-.9 1.5 3.5h-1l-.5-3.5zm-21 1l2.5.5-2.5.5v-1zm7 0l3.5.5-3.5.5v-1zm169 0h12l1.5 1.5-.5 1.5-.5-2h-12.5v-1zm-35 1l2.5 1.5-1.5.5-1-2zm-147 1l2.5.5-2.5.5v-1zm16 0l2.5.5-2.5.5v-1z"/><path stroke="#000" d="M160 62h3.5l5 4L198 94.5l1.5 2.5q2.3-.7 1.5 1.5l1.5 1.5H222l-1-4.5L207.5 78q-2.2.8-1.5-1.5-5.6-2.4-4-12l3.5-2.5q15.4 15.1 24 37l42 2 1 1 15 1 7 2h6l5 2h5l35 10 28 13h8l1-1h22q1.5 2.5 7 1l15 5 15.5 9 1.5 3h1.5v2q2.7-1.1 2 1.5 6.5 6 9 16v13q-4.5 16-16.5 24.5l-9 6-12 5-13 2-4.5 3.5v1.5h-2q1.1 2.7-1.5 2-20.8 20.4-52.5 29l-5-10.5-15.5-16.5-7.5-5.5 1.5-.5 9 4 11 2h24l11-2 11-4 10-5 9.5-7 5-6.5 5-10q2.6-5.9 1-16l-6-13-10.5-10.5-22-11-17-3h-18q-1.7 2.8-8 1l-17 5-14 8-8.5 8.5-4 5-4 11v11l4 11 8.5 10.5 3.5 2.5-2.5-1.5-21-8-16-4-14-1-1-1h-34l-1 1-18 2-4 2-11 2-20 9 1-2 5.5-4.5 8-13q2.3-6.7 1-17-3.4-13.1-12.5-20.5-10.6-9.4-26-14l-17-3h-18l-22 5q-15.8 5.7-25.5 17.5l-7 13-1 11q3 18 15.5 26.5l15 9 16 5q5.5-1.5 7 1h23l11-2 10-4-3 4-7.5 5.5-1.5 2.5-4.5 3.5-7 9-4 9.5-18.5-7L70 231q1.1-2.7-1.5-2L56 217.5l-3.5-4.5-8-1-9-3q-13.6-5.4-22.5-15.5l-8-14-1-16q4.2-15.3 15.5-23.5 9.5-8 23-12l17-3h13l1 1h8q3.3 2.7 10 2l16-8 23-8h4l4-2 8-1 3-2h5l6-2h6l6-2h8l13.5-2.5-2.5-3.5-19-16-7.5-4q1.1-2.7-1.5-2l-3.5-2-1-7.5 1-3.5zm65 40l6 13v2l3-1v-5l-2-7q-1-4-7-2zm-27 1l7 10 3 1 24 32 2-3q1-6-3-7 1-3-2-2l-1-3-20-27q-3-2-10-1zM36 143l-4 3q-11 7-15 22 0 14 7 21l4 3-3-16 2-15 10-17-1-1zm388 4q5 7 9 18l1 14 1 1-3 14q-1 2 2 1 6-6 9-16 0-17-9-24l-10-8z"/><path stroke="#000" d="M137.5 173q16.2-1.2 21.5 8.5 5.2 5.8 3 19l-7.5 9.5-8 4h-9l-9.5-4v-2q-2.7 1.1-2-1.5-6.4-4.6-5-17l5-10.5 7.5-5 4-1zm6.5 15l-4 5q0 6 5 8h4l4-4-1-6q-1-4-8-3zm170.5-14q9.5-1.5 15 1l9.5 8.5 2 4 1 8-3 10-6.5 6.5q-5.2 4.8-17 3-7.4-2.6-11.5-8.5l-3-5-1-8q2.2-1.3 1-6l4-7.5 9.5-6zm-.5 15l-3 1-1 3 1 7q2 3 8 2l4-5q1-5-2-6-1-3-7-2zm-96.5 28q5.1-.6 6.5 2.5l1 5-1 3.5-3.5 2h-3q-4.4-1.6-3.5-8.5l3.5-4.5zm24 0q5.1-.6 6.5 2.5l1 6-2.5 3.5-5 1q-3.6-1.9-3.5-7.5l3.5-5.5zm-18 40h15l7 2 12.5 7q-1.1 2.7 1.5 2l1.5 3q2.7-1.1 2 1.5l4 5 5 13v16q-4.1 16.9-16.5 25.5l-14 7-15 1-14-4q-9.4-4.6-15.5-12.5l-7-14-1-16q3.6-19.9 17.5-29.5l17-7zm116 112l7.5 1.5-1.5 1.5h-8l-1-2 3-1zm-68.5 1h7.5l.5.5V395h-6.5l-1.5-1.5V370zm-169 7h6v4h1.5l7-4h8l3.5 2.5q-.7 2.3 1.5 1.5 4.7-5.3 16-4l3.5 2.5V395h-5.5l-1.5-1.5v-13l-1.5-1.5q-9.1.4-12.5 6.5v9.5h-6v-13.5l-2.5-2.5q-7.5 0-10.5 4.5l-1 2v9.5h-6v-18zm57 0h8v13.5q3.4 4.6 13.5 2.5l10-4 2.5-2.5V377h7v18h-7v-4h-1.5l-6 3-18 1-7.5-3.5-1-2V377zm56.5 0h6.5v4h1.5l11-4h13l6.5 2 1 2.5V395h-7v-11.5l-2.5-3.5q-3.2-2.3-10-1l-8 2-5.5 3.5v9l-1.5 1.5q-6.1 1.3-5.5-1.5l-1-2v-13l1.5-1.5zm88 0l8.5.5-11.5 4.5h-3l-6.5 3.5 21 9-7.5.5-23.5-9.5 22.5-8.5zm20.5 0h20.5l1.5 1.5V393h12.5l.5 2h-21v-14.5l-1.5-1.5H324v-2z"/></svg>