<svg xmlns="http://www.w3.org/2000/svg" role="img" viewBox="-12.75 -5.25 2093.00 525.50"><title>Natron logo</title><defs><style>.cls-2{fill:#fff}</style></defs><g id="Natron_LOGO-2" data-name="Natron LOGO"><path fill="gray" d="M173.701 481.214c-13.75 0-30.618-9.747-37.484-21.66L32.941 280.374c-6.866-11.913-6.866-31.407 0-43.32l103.276-179.18c6.866-11.913 23.734-21.66 37.484-21.66h206.49c13.75 0 30.618 9.747 37.483 21.66l103.277 179.18c6.866 11.913 6.866 31.407 0 43.32l-103.276 179.18c-6.865 11.913-23.733 21.66-37.483 21.66z"/><path d="M499.974 249.69c2.76 4.757 2.761 12.543.005 17.303L396.09 446.43c-2.757 4.76-9.512 8.651-15.012 8.648l-208.042-.115c-5.5-.003-12.257-3.899-15.016-8.657L53.92 266.74c-2.76-4.758-2.762-12.545-.006-17.305L157.804 70c2.756-4.76 9.511-8.652 15.011-8.649l208.043.116c5.5.003 12.257 3.898 15.016 8.657z"/><path d="M499.974 249.69l-10.382 6.018.001.001a3.896 3.896 0 0 1 .271.854 8.91 8.91 0 0 1-.02 3.66 4.692 4.692 0 0 1-.175.583l-.06.145-.016.031-103.89 179.434v.001a3.878 3.878 0 0 1-.653.704 9.204 9.204 0 0 1-2.42 1.516 6.501 6.501 0 0 1-1.116.372 4.124 4.124 0 0 1-.333.061l-.082.008-.018.001.002.057v-.057h-.002l.002.057v11.636l.03-11.693h-.03v11.693l.03-11.693-.025 9.896.028-9.896h-.003l-.025 9.896.028-9.896c-.018.001-.203-.004-.593.013l.554 11.987.007-12-208.042-.115h-.002a4.024 4.024 0 0 1-.942-.213 9.195 9.195 0 0 1-2.535-1.342 6.7 6.7 0 0 1-.885-.782 3.303 3.303 0 0 1-.22-.26l-.049-.067-.009-.014-.045.026.045-.025-.045.025.045-.025L64.3 260.723v-.002a3.793 3.793 0 0 1-.27-.854 8.581 8.581 0 0 1-.18-1.778 8.473 8.473 0 0 1 .201-1.882 4.692 4.692 0 0 1 .173-.584l.061-.145.015-.03L168.19 76.012a3.96 3.96 0 0 1 .652-.705 9.178 9.178 0 0 1 2.421-1.516 6.716 6.716 0 0 1 1.116-.372 3.52 3.52 0 0 1 .333-.06l.082-.008h.016l-.002-.059v.058h.002l-.002-.058v-5.246l-.002 5.304h.002v-5.304l-.002 5.304.005-11.368-.062 11.368h.057l.005-11.368-.062 11.368h.03l208.071.116h.003a4.05 4.05 0 0 1 .941.213 9.199 9.199 0 0 1 2.534 1.341 6.646 6.646 0 0 1 .885.782 2.96 2.96 0 0 1 .222.26l.048.067.01.014.044-.028-.045.027v.001l.045-.028-.045.027 104.101 179.565 10.381-6.018 10.382-6.019-104.1-179.565a26.791 26.791 0 0 0-4.927-6.11 32.924 32.924 0 0 0-9.219-6.035 30.858 30.858 0 0 0-5.322-1.784 26.027 26.027 0 0 0-5.923-.709l-208.043-.116h-.015l.002 7.57v-7.57h-.002l.002 7.57v-7.57a26.803 26.803 0 0 0-7.757 1.198 32.883 32.883 0 0 0-9.843 4.952 30.871 30.871 0 0 0-4.21 3.713 26.038 26.038 0 0 0-3.58 4.773L43.53 243.422a26.766 26.766 0 0 0-2.85 7.327 32.82 32.82 0 0 0 .003 14.686 26.802 26.802 0 0 0 2.855 7.324l104.101 179.564v.001a26.783 26.783 0 0 0 4.926 6.108 32.919 32.919 0 0 0 9.218 6.035 30.856 30.856 0 0 0 5.322 1.784 26.03 26.03 0 0 0 5.924.71l208.322.114.28-.014-.552-11.915.045 11.93c.09-.002.253-.002.506-.015l-.55-11.915.044 11.93-.044-11.764-.032 11.763h.076l-.044-11.763-.032 11.763h.034a26.872 26.872 0 0 0 7.757-1.198 32.898 32.898 0 0 0 9.844-4.95 30.919 30.919 0 0 0 4.21-3.714 26.07 26.07 0 0 0 3.58-4.773l103.892-179.435a26.806 26.806 0 0 0 2.851-7.326 32.824 32.824 0 0 0-.004-14.687 26.773 26.773 0 0 0-2.854-7.324z" class="cls-2"/><path d="M368.594 125.21c-4.12-7.147-7.526-12.996-7.57-12.996-.043 0-.078 6.75-.078 15v115c0 8.25-3.384 9.16-7.52 2.021l-68.96-119.042c-4.136-7.138-14.27-12.979-22.52-12.979h-54.158c-8.25 0-18.37 5.848-22.49 12.996L116.12 245.218c-4.12 7.147-4.12 18.844 0 25.992l69.176 120.008c4.12 7.148 7.526 12.996 7.57 12.996s.078-6.75.078-15v-117c0-8.25 3.35-9.14 7.442-1.977l69.116 120.953c4.094 7.165 14.193 13.024 22.443 13.024h54.157c8.25 0 18.371-5.848 22.491-12.995l69.176-120.01c4.12-7.147 4.12-18.843 0-25.99z" class="cls-2"/></g><path d="M588.103 130.476h56.336l102.087 179.321V130.476h50.075V387.65h-53.728L638.177 205.176V387.65h-50.074zm332.462 0h60.805l90.988 257.175h-58.275l-16.97-52.866h-94.707l-17.433 52.866H828.76zm-3.541 159.993h65.864L950.4 189.274zm348.564-159.993v45.538h-76.942V387.65h-54.088V176.014h-77.292v-45.538zm196.213 6.63a63.52 63.52 0 0 1 24.075 17.97 80.058 80.058 0 0 1 12.93 21.636 72.108 72.108 0 0 1 4.766 27.043 77.05 77.05 0 0 1-9.247 36.03q-9.25 17.71-30.534 25.036 17.797 7.156 25.212 20.326 7.414 13.176 7.415 40.217v17.273q0 17.625 1.418 23.903 2.126 9.945 9.923 14.656v6.455h-59.321q-2.445-8.546-3.49-13.783a126.426 126.426 0 0 1-2.268-22.158l-.349-23.903q-.33-24.602-8.5-32.802t-30.615-8.2h-52.484V387.65h-52.517V130.476h123.01q26.368.523 40.576 6.63zm-111.07 38.035v69.092h57.834q17.232 0 25.85-4.187 15.244-7.328 15.244-28.963 0-23.378-14.749-31.406-8.284-4.535-24.854-4.536zm402.34 189.654q-29.14 30.011-84.272 30.01-55.135 0-84.27-30.01-39.086-36.812-39.083-106.08 0-70.663 39.083-106.081 29.135-30.007 84.27-30.01 55.132 0 84.272 30.01 38.905 35.421 38.908 106.08 0 69.268-38.908 106.081zm-33.586-39.082q18.753-23.555 18.755-66.998 0-43.269-18.755-66.911-18.758-23.64-50.686-23.642-31.928 0-50.946 23.554-19.02 23.555-19.018 66.999 0 43.443 19.018 66.998 19.014 23.554 50.946 23.554 31.93 0 50.686-23.554zm112.623-195.237h56.336l102.087 179.321V130.476h50.074V387.65h-53.727l-104.696-182.475V387.65h-50.074z"/></svg>