<svg xmlns="http://www.w3.org/2000/svg" role="img" viewBox="-3.47 24.03 518.44 464.44"><title>Natron logo</title><style>svg {enable-background:new 0 0 512 512}</style><path fill="gray" d="M152.755 479c-13.75 0-30.618-9.747-37.484-21.66L11.995 278.16c-6.866-11.913-6.866-31.407 0-43.32L115.271 55.66C122.137 43.747 139.005 34 152.755 34h206.49c13.75 0 30.618 9.747 37.483 21.66l103.277 179.18c6.866 11.913 6.866 31.407 0 43.32L396.729 457.34c-6.865 11.913-23.733 21.66-37.483 21.66H152.755z"/><path d="M479.028 247.475c2.759 4.758 2.761 12.544.005 17.304L375.142 444.215c-2.756 4.76-9.511 8.651-15.011 8.648l-208.042-.115c-5.5-.003-12.257-3.899-15.016-8.657L32.972 264.525c-2.759-4.758-2.761-12.545-.005-17.305L136.858 67.786c2.756-4.76 9.511-8.652 15.011-8.649l208.043.116c5.5.003 12.257 3.898 15.016 8.657l104.1 179.565z"/><path fill="#fff" d="M479.028 247.475l-10.382 6.019.001.001c.022.037.167.364.271.854.107.489.182 1.133.18 1.777a8.61 8.61 0 0 1-.2 1.882 4.69 4.69 0 0 1-.175.584l-.061.145-.015.031-103.89 179.434-.001.001c-.021.043-.252.352-.652.704-.591.539-1.558 1.157-2.421 1.516a6.499 6.499 0 0 1-1.115.372 4.124 4.124 0 0 1-.333.061l-.082.008-.018.001.002.057v-.057h-.002l.002.057v-.057 11.693l.03-11.693h-.03v11.693l.03-11.693-.025 9.896.028-9.896h-.003l-.025 9.896.028-9.896c-.018.001-.203-.004-.593.013l.554 11.987.007-12-208.042-.115h-.002c-.049.002-.434-.043-.942-.213-.766-.243-1.79-.771-2.535-1.342a6.702 6.702 0 0 1-.885-.782 3.304 3.304 0 0 1-.221-.26l-.048-.067-.009-.014-.045.026.045-.025v-.001l-.045.026.045-.025-104.1-179.564v-.002c-.023-.036-.167-.363-.271-.854a8.581 8.581 0 0 1-.18-1.778 8.473 8.473 0 0 1 .202-1.882c.058-.25.123-.452.173-.584l.061-.145.015-.03L147.243 73.798l.001-.001c.022-.042.252-.352.652-.704.591-.539 1.558-1.158 2.421-1.516a6.716 6.716 0 0 1 1.116-.372 3.52 3.52 0 0 1 .333-.06l.082-.008.016-.001-.002-.058v.058h.002l-.002-.058v.058-5.304l-.002 5.304h.002v-5.304l-.002 5.304.005-11.368-.062 11.368h.057l.005-11.368-.062 11.368h.03l208.071.116h.003c.05-.001.435.043.941.213.767.243 1.789.771 2.534 1.341.376.281.686.565.885.782.103.108.176.199.222.26l.048.067.009.014.045-.028-.045.027v.001l.045-.028-.045.027h-.001l104.102 179.565 10.381-6.018 10.382-6.019-104.1-179.565h-.001c-1.403-2.412-3.095-4.394-4.926-6.11-2.757-2.562-5.844-4.548-9.219-6.035a30.858 30.858 0 0 0-5.322-1.784 26.027 26.027 0 0 0-5.923-.709l-208.043-.116h.059-.074l.002 7.57v-7.57h-.002l.002 7.57v-7.57c-2.791.005-5.354.474-7.757 1.198-3.599 1.101-6.865 2.776-9.843 4.952a30.87 30.87 0 0 0-4.21 3.713 26.038 26.038 0 0 0-3.58 4.773L22.583 241.208c-1.397 2.423-2.275 4.881-2.851 7.327a32.397 32.397 0 0 0-.83 7.339 32.34 32.34 0 0 0 .834 7.347c.578 2.446 1.458 4.903 2.855 7.324v-.001l104.101 179.565v.001c1.404 2.411 3.095 4.394 4.926 6.108 2.757 2.562 5.843 4.548 9.218 6.035a30.858 30.858 0 0 0 5.322 1.784c1.865.436 3.83.706 5.924.709l208.322.115.279-.014-.551-11.915.045 11.929c.089-.001.253-.001.506-.014l-.551-11.915.045 11.929-.044-11.763-.032 11.763h.076l-.044-11.763-.032 11.763h.034c2.791-.005 5.354-.476 7.757-1.198 3.6-1.101 6.864-2.775 9.844-4.951a30.921 30.921 0 0 0 4.21-3.713 26.072 26.072 0 0 0 3.58-4.773l103.892-179.435c1.396-2.423 2.275-4.881 2.851-7.326.569-2.448.828-4.895.83-7.34a32.34 32.34 0 0 0-.834-7.347c-.577-2.447-1.458-4.904-2.854-7.324l-10.383 6.021z"/><path fill="#fff" d="M347.648 122.996c-4.12-7.147-7.526-12.996-7.57-12.996-.043 0-.078 6.75-.078 15v115c0 8.25-3.384 9.159-7.52 2.021l-68.96-119.042C259.384 115.841 249.25 110 241 110h-54.158c-8.25 0-18.371 5.848-22.491 12.996L95.175 243.004c-4.12 7.147-4.12 18.844 0 25.992l69.176 120.008c4.12 7.148 7.526 12.996 7.569 12.996s.079-6.75.079-15V270c0-8.25 3.349-9.141 7.442-1.977l69.116 120.953C252.651 396.141 262.75 402 271 402h54.157c8.25 0 18.371-5.848 22.491-12.995l69.176-120.01c4.12-7.147 4.12-18.843 0-25.991l-69.176-120.008z"/></svg>