<svg xmlns="http://www.w3.org/2000/svg" role="img" viewBox="54.59 55.34 359.31 385.06"><title>NVIDIA MDL SDK logo</title><defs><clipPath id="a" clipPathUnits="userSpaceOnUse"><path d="M0 371.333h342V0H0z"/></clipPath></defs><g clip-path="url(#a)" transform="matrix(1.33333 0 0 -1.33333 0 495.11)"><path d="M303.792 135.417c0-1.88-1.382-3.143-3.015-3.143v.015c-1.679-.015-3.036 1.248-3.036 3.128 0 1.878 1.357 3.136 3.036 3.136 1.633 0 3.015-1.258 3.015-3.136m1.223 0c0 2.579-2.004 4.077-4.238 4.077-2.25 0-4.253-1.498-4.253-4.077 0-2.578 2.003-4.081 4.253-4.081 2.234 0 4.238 1.503 4.238 4.08m-4.942-.343h.453l1.053-1.847h1.153l-1.162 1.922c.601.044 1.097.33 1.097 1.14 0 1.007-.695 1.33-1.87 1.33h-1.699v-4.392h.975v1.847m0 .742v1.057h.68c.37 0 .874-.028.874-.48 0-.49-.259-.577-.696-.577h-.858"/><path d="M266.58 170.62l7.922-21.676h-16.094zm-8.489 8.442l-18.26-46.27h12.894l2.89 8.179h21.61l2.734-8.178h14l-18.4 46.273zm-36.659-46.285h13.08v46.3l-13.082.002zm-90.825 46.302l-10.913-36.697-10.458 36.695-14.116.002 14.935-46.302h18.847l15.052 46.302zm52.882-10.082h5.622c8.157 0 13.433-3.663 13.433-13.167 0-9.507-5.276-13.171-13.433-13.171h-5.622zm-12.972 10.082v-46.302h21.21c11.301 0 14.99 1.879 18.978 6.094 2.821 2.958 4.642 9.452 4.642 16.548 0 6.509-1.54 12.314-4.233 15.93-4.845 6.466-11.824 7.73-22.243 7.73zm-123.926.064v-46.366h13.193v35.206l10.22-.003c3.386 0 5.798-.842 7.43-2.584 2.067-2.203 2.912-5.756 2.912-12.258v-20.361H93.13v25.617c0 18.284-11.655 20.749-23.056 20.749zm102.87-.062l.006-46.304h13.076v46.303z"/><path fill="#76b900" d="M81.75 271.27s16.827 24.828 50.424 27.395v9.006c-37.212-2.986-69.437-34.503-69.437-34.503s18.25-52.764 69.437-57.594v9.574C94.612 229.874 81.75 271.27 81.75 271.27m50.423-27.082v-8.769c-28.39 5.061-36.27 34.572-36.27 34.572s13.63 15.102 36.27 17.55v-9.622c-.018 0-.03.005-.045.005-11.878 1.427-21.161-9.674-21.161-9.674s5.2-18.684 21.206-24.062m0 80.1V307.67c1.092.086 2.184.155 3.282.195 42.309 1.425 69.873-34.698 69.873-34.698s-31.662-38.499-64.644-38.499c-3.023 0-5.852.28-8.511.75v-10.27a56.026 56.026 0 0 1 7.087-.46c30.695 0 52.893 15.674 74.388 34.227 3.56-2.854 18.152-9.795 21.15-12.837-20.437-17.109-68.064-30.898-95.066-30.898-2.602 0-5.105.157-7.56.393V201.14h116.664v123.147zm0-36.747v11.124c1.079.076 2.17.134 3.282.17 30.424.955 50.384-26.143 50.384-26.143s-21.558-29.942-44.673-29.942c-3.33 0-6.308.537-8.993 1.438v33.731c11.844-1.43 14.224-6.662 21.348-18.53l15.836 13.351s-11.56 15.163-31.048 15.163c-2.121 0-4.147-.15-6.136-.362"/><path d="M144.576 46.447V78.29l-10.972-23.214h-5.353L117.013 78.29V46.447h-7.225v47.632h7.226l13.914-29.636 13.647 29.636h7.225V46.447z"/><path d="M184.245 84.379c-2.007 2.208-4.683 3.21-8.094 3.21h-8.764V52.938h8.764c3.411 0 6.087 1.004 8.094 3.21 2.476 2.744 2.543 7.895 2.543 14.45 0 6.557-.067 11.039-2.543 13.782m4.951-33.45c-3.01-3.01-7.358-4.482-12.309-4.482h-16.725V94.08h16.725c4.951 0 9.298-1.471 12.31-4.482 5.151-5.152 4.816-12.11 4.816-19 0-6.89.335-14.516-4.817-19.667"/><path d="M202.04 46.447v47.632h7.225V52.936h22.946v-6.49z"/></g></svg>