<svg xmlns="http://www.w3.org/2000/svg" role="img" viewBox="26.84 -6.66 346.06 258.06"><title>NVIDIA Corporation logo</title><path fill="none" d="M0 0h400v245H0z" pointer-events="none"/><path d="M364.04593 237.24805c0 3.57012-2.6215 5.9663-5.72487 5.9663v-.02178c-3.19143.02178-5.76464-2.3744-5.76464-5.94357 0-3.56823 2.5732-5.95777 5.76464-5.95777 3.10432-.00095 5.72487 2.3886 5.72487 5.95682zm2.32233 0c0-4.89932-3.80585-7.7433-8.0472-7.7433-4.2707 0-8.07656 2.84398-8.07656 7.7433 0 4.8965 3.8068 7.75183 8.07656 7.75183 4.2423 0 8.0472-2.85534 8.0472-7.75183m-9.3821.65514h.86153l1.99665 3.50574h2.19263l-2.21156-3.65343c1.1427-.08142 2.0828-.62579 2.0828-2.16422 0-1.91145-1.31784-2.52588-3.55023-2.52588h-3.2293v8.34353h1.85654v-3.50574m.00095-1.41252v-2.00896h1.29134c.70247 0 1.65961.0568 1.65961.9136 0 .93252-.49514 1.09536-1.32352 1.09536h-1.62743m-44.81063-41.9231l10.03345 27.44854h-20.37742l10.34397-27.44854zm-10.74538-10.68763l-23.12199 58.58365h16.3273l3.65722-10.35155h27.36334l3.46125 10.35155h17.72467l-23.29429-58.59123-22.1175.00758zm-46.42102 58.60542h16.56494v-58.62341l-16.56778-.00379.00284 58.6272zm-114.99645-58.6272l-13.82036 46.46362-13.23907-46.45983-17.87332-.00379 18.9081 58.6272h23.86421l19.06052-58.6272h-16.90008zm66.95748 12.7657h7.11941c10.32883 0 17.00895 4.6371 17.00895 16.67098 0 12.03672-6.68012 16.67475-17.00895 16.67475h-7.1194v-33.34572zm-16.42576-12.7657v58.6272h26.85494c14.30793 0 18.98004-2.37818 24.0318-7.71395 3.56822-3.74621 5.87635-11.96762 5.87635-20.95492 0-8.24318-1.9531-15.59075-5.3585-20.16914-6.13575-8.18827-14.97442-9.78919-28.16521-9.78919H190.5444zm-156.91387-.08142v58.70862h16.70505v-44.57772l12.94369.00378c4.28585 0 7.34094 1.06791 9.40481 3.27285 2.61771 2.78812 3.68657 7.28887 3.68657 15.52164v25.77945h16.1872V210.0485c0-23.15039-14.75574-26.27176-29.19338-26.27176H33.63054zm130.25395.08142l.00663 58.6272h16.55736v-58.6272h-16.564z"/><path fill="#77B900" d="M78.14862 67.1254s21.30521-31.43427 63.84463-34.68629v-11.4043c-47.1178 3.78407-87.91997 43.69064-87.91997 43.69064s23.10968 66.806 87.91997 72.92282v-12.12193c-47.56087-5.98333-63.84463-58.40093-63.84463-58.40093zm63.84463 34.2934v11.10136c-35.94544-6.40841-45.92303-43.77395-45.92303-43.77395S113.3291 49.627 141.99325 46.52645v12.18158c-.02177 0-.03692-.00663-.0549-.00663-15.0445-1.80541-26.7972 12.2488-26.7972 12.2488s6.58735 23.65972 26.8521 30.4686m0-101.41844V21.0348c1.38317-.10603 2.76635-.19597 4.1571-.2433 53.56787-1.80542 88.47096 43.93395 88.47096 43.93395s-40.08738 48.74523-81.85143 48.74523c-3.82763 0-7.411-.35502-10.77663-.95146v13.00712c2.87806.36544 5.86215.58035 8.97595.58035 38.86421 0 66.96978-19.8482 94.18449-43.33941 4.51211 3.61367 22.9847 12.405 26.78204 16.25346-25.87602 21.66402-86.18178 39.1274-120.37104 39.1274-3.29557 0-6.46048-.19976-9.57144-.49987v18.27757h147.72018V.00036H141.99325zm0 46.5261v-14.0864c1.36897-.09562 2.74836-.16947 4.1571-.21396 38.52054-1.20992 63.79255 33.10241 63.79255 33.10241s-27.29612 37.90991-56.56333 37.90991c-4.212 0-7.9885-.67691-11.38727-1.81961V58.70803c14.9962 1.81204 18.01438 8.43631 27.0301 23.46565l20.05173-16.90765s-14.63739-19.19685-39.31201-19.19685c-2.68209-.00094-5.24867.18746-7.76887.45727"/></svg>