<svg xmlns="http://www.w3.org/2000/svg" role="img" viewBox="-4.06 -4.06 169.87 211.12"><title>Olive Editor logo</title><defs id="defs4"><style id="style2">.cls-1{fill:#204020;fill-rule:evenodd}</style></defs><path id="path6" d="M24.71916 39.12923s11.254 11.327 17.058 22.762a55.7 55.7 0 0 1 5.686 22.05" class="cls-1"/><path id="path8" d="M36.80116 49.79823s7.553-3.239 23.455 1.423c19 5.571 50.463 19.916 50.463 19.916" class="cls-1"/><path id="path10" d="M36.09116 50.50623s8.049-8.539 27.719-9.958c19.776-1.426 51.173 4.268 51.173 4.268" class="cls-1"/><path id="path12" d="M56.70215 66.87023a122.433 122.433 0 0 1 21.323 6.4 255.787 255.787 0 0 1 27.00701 13.516" class="cls-1"/><path id="path14" d="M51.73215 61.89123a100.015 100.015 0 0 1 13.5 27.74c6.056 20.138 7.108 46.234 7.108 46.234" class="cls-1"/><path id="path16" d="M74.47115 80.38423s5.094 8.4 7.107 15.649a19.726 19.726 0 0 1 0 9.958" class="cls-1"/><path id="path18" d="M95.79315 100.30623s-3.609 3.933.711 14.937c3.383 8.618 14.92601 24.895 14.92601 24.895" class="cls-1"/><path id="path20" d="M95.08216 99.58923s3.332-3.867 18.48-1.422c17.7 2.857 47.62 12.092 47.62 12.092" class="cls-1"/><path id="path22" d="M117.11516 123.77323s3.365-.824 12.794 2.846c9.755 3.8 25.587 12.092 25.587 12.092" class="cls-1"/><path id="path24" d="M65.94215 41.26323s6.36-6.588 19.19-5.69c32.23301 2.254 30.56201 12.8 30.56201 12.8s-7.729-.127-12.793-.711a15.918 15.918 0 0 1-5.686-1.423s1.636 4.036.71 4.268c-.926.232-10.948-1.078-19.9-3.556-10.947-3.028-12.083-5.688-12.083-5.688z" class="cls-1"/><path id="path26" d="M53.14916 50.50623c-1.531-.223 12.793 7.113 12.793 7.113s6.776 9.559 16.347 12.8c5.3 1.8 9.9 1.989 14.926 2.134 1.438.041 3.431 2.772 4.975 2.845 1.965.093 3.431-2.48 4.579-2.556a60.868 60.868 0 0 0 6.082-1c.016-.011-5.06-5.71-17.277-10.271a195.791 195.791 0 0 0-42.425-11.065z" class="cls-1"/><path id="path28" d="M85.84315 77.53923c3.724-7.721 28.52501 2.389 22.03301 12.8-4.944 7.927-25.753-5.088-22.033-12.8z" class="cls-1"/><path id="path30" d="M78.73216 93.89923c-9 .41-1.96 15.186 4.265 14.937 5.119-.205 4.744-15.347-4.265-14.937z" class="cls-1"/><path id="path32" d="M41.77716 66.15823c-13.805 2.978-3.137 23.894 8.529 22.05 8.12-1.282 5.642-11.1 0-17.071-2.465-2.61-5.353-5.664-8.529-4.979z" class="cls-1"/><path id="path34" d="M63.09916 87.49723s-10.352 5.164-4.265 26.318c6.087 21.154 12.798 23.473 12.798 23.473s.745.558 1.421-23.473c.559-20.009-9.954-26.318-9.954-26.318z" class="cls-1"/><path id="path36" d="M94.37216 106.70623s6.658 1.9 12.793 10.67c6.135 8.77 4.265 24.9 4.265 24.9l-15.637-18.494s-.028-.343-.077-.931c-9.115-11.412-1.344-16.145-1.344-16.145z" class="cls-1"/><path id="path38" d="M119.24816 130.17523s-4.236 1.917-2.133 12.092c2.103 10.175 2.687 11.945 4.265 14.226 1.578 2.281 6.036-3.681 5.686-12.8a17.26 17.26 0 0 0-7.818-13.518z" class="cls-1"/><path id="path40" d="M127.77716 128.04123s4.778-8.956 16.347-.711c11.569 8.245 14.215 12.092 14.215 12.092s-3.94 3.489-19.19-1.423c-15.25-4.912-11.372-9.958-11.372-9.958z" class="cls-1"/><path id="path42" d="M128.48716 137.28823s-1.529 8.593 3.554 12.8c5.083 4.207 22.033 7.825 22.033 7.825-.077-.041.562-3.1-13.055-16.217-11.176-10.761-12.532-4.408-12.532-4.408z" class="cls-1"/><path id="path44" d="M110.00816 98.16723s18.741 16.018 24.876 17.071c6.135 1.053 27.008-3.557 27.008-3.557s-9.294-6.108-26.3-10.669c-17.006-4.561-25.584-2.845-25.584-2.845z" class="cls-1"/><path id="path46" d="M119.24816 126.61923a87.5 87.5 0 0 1 2.843 13.514 125.537 125.537 0 0 1 .71 15.649" class="cls-1"/><path id="path48" d="M114.98316 120.92823s12.273 14.15 21.323 22.05c7.508 6.555 17.768 14.226 17.768 14.226" class="cls-1"/><path id="path50" fill="#204020" d="M4.81816.00623c-2.794.559-12.873 3.023 8.529 29.163 22.394 27.351 49.925 43.347 71.074 63.305 24.692 23.3 41.934 43.389 41.934 43.389a225.312 225.312 0 0 0-36.959-44.811c-22.92-21.546-56.264-42.717-72.495-62.592-7.669-9.39-15.119-19.354-6.397-24.185.598-.331-4.736-4.457-5.686-4.269z" class="cls-1"/><g id="text1291" fill="#204020" transform="translate(-46.868 -49.394)"><path id="path6179" d="M109.6789 226.27907q1.77735 1.95312 2.71485 4.78515.95703 2.83204.95703 6.42579t-.97657 6.44531q-.95703 2.83203-2.69531 4.72656-1.79687 1.97266-4.25781 2.96875-2.44141.99609-5.58594.99609-3.0664 0-5.58594-1.01562-2.5-1.01563-4.2578-2.94922-1.75782-1.93359-2.71485-4.74609-.9375-2.8125-.9375-6.42578 0-3.55469.9375-6.36719.9375-2.83203 2.73437-4.84375 1.71875-1.91406 4.25781-2.92969 2.5586-1.01562 5.56641-1.01562 3.125 0 5.60547 1.03515 2.5 1.01563 4.23828 2.91016zm-.35156 11.21094q0-5.66407-2.53906-8.73047-2.53907-3.08594-6.9336-3.08594-4.4336 0-6.97265 3.08594-2.51954 3.0664-2.51954 8.73047 0 5.72265 2.57813 8.76953 2.57812 3.02734 6.91406 3.02734t6.89453-3.02734q2.57813-3.04688 2.57813-8.76953z"/><path id="path6181" d="M122.90156 252.02126h-3.67188v-30.39063h3.67188z"/><path id="path6183" d="M134.15156 226.55251h-4.14063v-3.8086h4.14063zm-.23438 25.46875h-3.67187v-21.81641h3.67187z"/><path id="path6185" d="M160.08906 230.20485l-8.82813 21.81641h-3.6914L138.8 230.20485h3.98437l6.75781 17.36328 6.69922-17.36328z"/><path id="path6187" d="M183.15546 241.49391h-16.07421q0 2.01172.60546 3.51563.60547 1.48437 1.66016 2.4414 1.01563.9375 2.40234 1.40625 1.40625.46875 3.08594.46875 2.22656 0 4.47266-.8789 2.26562-.89844 3.22265-1.75782h.19532v4.00391q-1.85547.78125-3.78907 1.30859-1.93359.52735-4.0625.52735-5.42968 0-8.47656-2.92969-3.04687-2.94922-3.04687-8.35937 0-5.35157 2.91015-8.4961 2.92969-3.14453 7.69532-3.14453 4.41406 0 6.79687 2.57813 2.40234 2.57812 2.40234 7.32421zm-3.57421-2.8125q-.0195-2.89062-1.46485-4.47265-1.42578-1.58204-4.35547-1.58204-2.94922 0-4.70703 1.73829-1.73828 1.73828-1.97265 4.3164z"/></g></svg>