<svg xmlns="http://www.w3.org/2000/svg" role="img" viewBox="2.31 6.06 100.75 73.63"><title>Open Review Initiative logo</title><defs><style>.cls-6{stroke:#101c41;stroke-linecap:round;stroke-linejoin:round;stroke-width:1.5px;fill:none}</style></defs><path fill="#101c41" d="M9.44824 62.70898c-.74023 0-1.42773-.12304-2.0625-.37011-.63476-.2461-1.18554-.59375-1.65137-1.04102s-.82714-.9707-1.083-1.56933-.3838-1.24903-.3838-1.95313c0-.71289.12794-1.36816.3838-1.9668.25586-.59765.61718-1.11914 1.083-1.56152.46583-.44336 1.01465-.78809 1.64454-1.03516.63086-.24707 1.3203-.37011 2.06933-.37011.74024 0 1.42578.1211 2.05567.36328.63086.24219 1.17675.58496 1.6377 1.02734.4619.44336.8203.9668 1.07616 1.56934.25586.60351.3838 1.26074.3838 1.97363s-.12794 1.36816-.3838 1.9668-.61425 1.12207-1.07617 1.56933c-.46094.44727-1.00683.79297-1.6377 1.03418-.62988.2422-1.31542.36328-2.05566.36328zm0-1.5625c.48438 0 .92969-.08203 1.33692-.24609.40625-.16504.75976-.39746 1.06152-.69922s.5371-.65722.70605-1.06836.25293-.86426.25293-1.35742-.08203-.94531-.24609-1.35644c-.16504-.41114-.40039-.76758-.70605-1.06934s-.66211-.53418-1.06836-.69824c-.40723-.16504-.85254-.24707-1.33692-.24707s-.9336.08203-1.3496.24707c-.41602.16406-.77442.39941-1.07618.70508-.30078.30664-.53906.66308-.71191 1.06933-.17383.40625-.26075.85645-.26075 1.34961 0 .48438.08692.93164.26075 1.34375.17285.41113.41113.76953.71191 1.0752.30176.30664.66016.54101 1.07617.70605.41602.16406.86524.2461 1.34961.2461zm6.35938 1.42579v-9.59375h3.94726c.84961 0 1.57813.13574 2.18555.4043.60742.26952 1.07617.66015 1.40527 1.17187s.49317 1.12402.49317 1.83691c0 .70313-.16407 1.3086-.49317 1.81543-.3291.50781-.79785.9004-1.40527 1.17871-.60742.2793-1.33594.41797-2.18555.41797H16.8086l.78125-.82226v3.59082h-1.78222zm1.78222-3.39844l-.78125-.87793h2.86426c.78516 0 1.37695-.16602 1.77442-.5.39746-.333.59668-.80176.59668-1.4043 0-.60351-.19922-1.07129-.59668-1.40527-.39747-.33301-.98926-.5-1.77442-.5H16.8086l.78125-.87696v5.56446zm9.12696 1.89062h5.41308v1.50782h-7.19531v-9.59375h7.00293v1.5078h-5.2207v6.57813zm-.1377-4.09765h4.76953v1.4668H26.5791v-1.4668zm6.85254 5.60547v-9.59375h1.4668l6.0166 7.40136h-.72656v-7.40136h1.7539v9.59375h-1.4668l-6.00195-7.4004h.72657v7.4004h-1.76856zm13.5127 0v-9.59375h3.94726c.84961 0 1.57813.13574 2.18555.4043.60742.26952 1.07617.66015 1.40527 1.17187s.49317 1.12402.49317 1.83691c0 .70313-.16407 1.30664-.49317 1.8086-.3291.50293-.79785.89062-1.40527 1.16503s-1.33594.41114-2.18555.41114h-2.94629l.78125-.79492v3.59082h-1.78222zm1.78222-3.39844l-.78125-.86328h2.86426c.78516 0 1.37695-.16895 1.77441-.50782.39747-.33789.59668-.80859.59668-1.41113 0-.60351-.19921-1.07129-.59668-1.40527-.39746-.33301-.98925-.5-1.77441-.5h-2.86426l.78125-.87695v5.56445zm4.49512 3.39844l-2.42578-3.48145h1.9043l2.43945 3.48145h-1.91797zm4.83789-1.50782h5.41309v1.50782h-7.19532v-9.59375h7.00293v1.5078h-5.2207v6.57813zm-.1377-4.09765h4.76954v1.4668h-4.76953v-1.4668zm10.23731 5.60547l-4.19336-9.59375h1.93262l3.7412 8.67578h-1.12402l3.80958-8.67578h1.76855l-4.18066 9.59375h-1.75391zm6.94824 0v-9.59375h1.78223v9.59375h-1.78223zm5.46875-1.50782h5.41309v1.50782h-7.19531v-9.59375h7.00293v1.5078h-5.2207v6.57813zm-.1377-4.09765h4.76954v1.4668h-4.76953v-1.4668zm8.97657 5.60547l-3.17969-9.59375h1.84961l2.83692 8.67578h-.91797l2.94629-8.67578h1.64453l2.86523 8.67578h-.8916l2.90527-8.67578h1.7002l-3.17969 9.59375h-1.8916l-2.61719-7.8252h.49317l-2.64551 7.8252h-1.91797zM21.74902 77.84375V68.25h1.01368v9.59375h-1.01368zm3.45313 0V68.25h.83594l6.61914 8.333h-.43848V68.25h1.00098v9.59375h-.83594l-6.60645-8.33203h.43848v8.33203h-1.01367zm10.45703 0V68.25h1.01367v9.59375h-1.01367zm5.3164 0v-8.71582H37.6045V68.25h7.75684v.87793h-3.3711v8.71582H40.9756zm5.31837 0V68.25h1.01367v9.59375h-1.01367zm1.91796 0L52.59766 68.25h1l4.38574 9.59375h-1.06934l-4.02832-9.0039h.41114l-4.0293 9.0039H48.2119zm1.72657-2.5625l.30175-.82227h5.57813l.30176.82227h-6.18164zm10.333 2.5625v-8.71582H56.9004V68.25h7.75684v.87793h-3.3711v8.71582h-1.01465zm5.31836 0V68.25h1.01368v9.59375h-1.01368zm6.0713 0L67.4121 68.25h1.09668l3.9746 9.03223h-.6035L75.88183 68.25h1.02734l-4.24805 9.59375h-1zm6.96093-.87695h5.7705v.87695H77.6084V68.25h6.57812v.87793h-5.56445v7.83887zm-.10937-4.42676h5.07128v.86328H78.5127v-.86328z"/><rect width="32.333" height="25.167" x="30.965" y="9.599" fill="#80e3b7" rx="3" ry="3"/><path fill="#80e3b7" stroke="#101c41" stroke-linecap="round" stroke-linejoin="round" stroke-width="1.5" d="M67.726 42.7l7.064-2.743 14.228-14.228-4.203-4.203-14.221 14.221-2.868 6.953"/><path d="M71.475 35.941l3.324 3.324" class="cls-6"/><g><path fill="#fff" fill-rule="evenodd" stroke="#101c41" stroke-linecap="round" stroke-linejoin="round" stroke-width="1.5" d="M42.2994 17.167v9.5209l11.9011-4.76045-11.9011-4.76044z"/><path fill="none" fill-rule="evenodd" stroke="#101c41" stroke-linecap="round" stroke-linejoin="round" stroke-width="1.5" d="M52.9781 35.11493H34.7564c-2.4736 0-4.47884-2.00525-4.47884-4.47885V13.23532c0-2.4736 2.00525-4.47885 4.47885-4.47885h24.61088c2.4736 0 4.47885 2.00525 4.47885 4.47885v17.40076c0 2.4736-2.00525 4.47885-4.47885 4.47885h-.97195"/><path d="M30.173 43.021h33.722m-21.634-3.759v7.03" class="cls-6"/></g></svg>