<svg xmlns="http://www.w3.org/2000/svg" role="img" viewBox="-3.41 -3.41 177.06 136.69"><title>OpenColorIO logo</title><defs><style>.cls-1{fill:#cc1e68}</style></defs><g id="Layer_2" data-name="Layer 2"><g id="Layer_1-2" data-name="Layer 1"><path d="M102.81 36l22.3-7.42-.1-.27A42.82 42.82 0 0 0 121 20l-.15-.25L101 32.68a18.31 18.31 0 0 1 1.81 3.32zm24.55 2.73v-.29l-23.1 2.94a18.23 18.23 0 0 1 0 3.84l23.11 2.94v-.29a43.46 43.46 0 0 0 0-9.15zM100.86 54l19.78 13.1.16-.24a42.86 42.86 0 0 0 4.06-8.2l.1-.27-22.2-7.65a18.31 18.31 0 0 1-1.9 3.26z" class="cls-1"/><circle cx="85.97" cy="43.28" r="10" class="cls-1"/><path d="M103.67 63.94a27.21 27.21 0 1 1 .23-41.12l11.85-10.92a43.28 43.28 0 1 0-.22 63zM9.22 124.56a8.74 8.74 0 0 1-3.79-.8 9.13 9.13 0 0 1-2.91-2.15 9.77 9.77 0 0 1-1.87-3 9.6 9.6 0 0 1-.65-3.5 9.15 9.15 0 0 1 .69-3.54 9.84 9.84 0 0 1 1.94-3 9 9 0 0 1 6.67-2.87 8.69 8.69 0 0 1 3.76.8 9.07 9.07 0 0 1 2.94 2.16 10 10 0 0 1 1.87 3.05 9.48 9.48 0 0 1 .65 3.44 9.3 9.3 0 0 1-.68 3.54 9.54 9.54 0 0 1-4.89 5.1 8.81 8.81 0 0 1-3.73.77zm-4.85-9.43a7 7 0 0 0 .31 2.08 5.56 5.56 0 0 0 .94 1.79 4.58 4.58 0 0 0 1.53 1.26 4.52 4.52 0 0 0 2.1.47 4.54 4.54 0 0 0 2.15-.48 4.46 4.46 0 0 0 1.52-1.3 5.81 5.81 0 0 0 .9-1.82 7.16 7.16 0 0 0 .3-2.06 6.82 6.82 0 0 0-.32-2.07 5.6 5.6 0 0 0-.94-1.79 4.38 4.38 0 0 0-1.54-1.21 4.68 4.68 0 0 0-2.07-.45 4.39 4.39 0 0 0-3.65 1.74 5.5 5.5 0 0 0-.92 1.81 7.14 7.14 0 0 0-.31 2.03zm25.49 9.56a5.35 5.35 0 0 1-2.7-.66 4.79 4.79 0 0 1-1.81-1.79V130h-4.18v-19.17h3.64v2.24a5.23 5.23 0 0 1 4.61-2.45 6 6 0 0 1 2.55.54 6.31 6.31 0 0 1 2 1.5 6.83 6.83 0 0 1 1.34 2.22 7.77 7.77 0 0 1 .47 2.74 8.33 8.33 0 0 1-.76 3.61 6.26 6.26 0 0 1-2.11 2.53 5.3 5.3 0 0 1-3.05.93zm-1.41-3.54a2.66 2.66 0 0 0 1.24-.29 3.33 3.33 0 0 0 1-.78 3.39 3.39 0 0 0 .64-1.13 4.16 4.16 0 0 0 .22-1.36 3.53 3.53 0 0 0-.25-1.35 3.45 3.45 0 0 0-.69-1.08 3.07 3.07 0 0 0-1-.72 3.33 3.33 0 0 0-1.31-.25 3.05 3.05 0 0 0-.85.13 3.19 3.19 0 0 0-.81.36 3.65 3.65 0 0 0-.69.56 3 3 0 0 0-.52.75v2.79a4.38 4.38 0 0 0 .76 1.21 3.77 3.77 0 0 0 1.07.85 2.67 2.67 0 0 0 1.19.31zm16.71 3.54a8.19 8.19 0 0 1-3.12-.56 6.93 6.93 0 0 1-2.32-1.52 6.49 6.49 0 0 1-1.45-2.21 7.07 7.07 0 0 1-.5-2.63 7.32 7.32 0 0 1 .88-3.56 6.8 6.8 0 0 1 2.53-2.6 7.6 7.6 0 0 1 4-1 7.59 7.59 0 0 1 4 1 6.7 6.7 0 0 1 2.5 2.57 7.08 7.08 0 0 1 .86 3.44 6.29 6.29 0 0 1 0 .71q0 .35-.07.61H42.23a3 3 0 0 0 .51 1.5 2.78 2.78 0 0 0 1.11.93 3.35 3.35 0 0 0 1.44.32 3.67 3.67 0 0 0 1.77-.45A2.42 2.42 0 0 0 48.2 120l3.56 1a5.94 5.94 0 0 1-1.48 1.9 7.15 7.15 0 0 1-2.25 1.3 8.35 8.35 0 0 1-2.87.49zm-3-8.33h6a3.44 3.44 0 0 0-.5-1.44 2.69 2.69 0 0 0-1-.95 3.27 3.27 0 0 0-2.89 0 2.72 2.72 0 0 0-1 .95 3.42 3.42 0 0 0-.65 1.44zm26.16 8.07h-4.19v-7.57a3 3 0 0 0-.51-1.94 1.68 1.68 0 0 0-1.35-.6 2.63 2.63 0 0 0-1.18.3 3.85 3.85 0 0 0-1.83 2v7.77h-4.2v-13.6h3.77v2.32a5.18 5.18 0 0 1 1.31-1.37 5.85 5.85 0 0 1 1.81-.86 8 8 0 0 1 2.23-.3 4.29 4.29 0 0 1 2.16.48 3.3 3.3 0 0 1 1.26 1.25 5.05 5.05 0 0 1 .58 1.66 10.93 10.93 0 0 1 .14 1.74zm2.57-9.49a9.25 9.25 0 0 1 .63-3.34 9.5 9.5 0 0 1 1.83-3 9 9 0 0 1 2.93-2.14 9.26 9.26 0 0 1 3.93-.8 8.85 8.85 0 0 1 4.55 1.13 7.29 7.29 0 0 1 2.87 2.93l-3.3 2.31a3.81 3.81 0 0 0-1.11-1.55 4.18 4.18 0 0 0-1.52-.77 6.08 6.08 0 0 0-1.58-.22A4.54 4.54 0 0 0 78 110a4.46 4.46 0 0 0-1.52 1.3 5.63 5.63 0 0 0-.89 1.81 7.12 7.12 0 0 0-.29 2 6.65 6.65 0 0 0 .34 2.12 5.65 5.65 0 0 0 1 1.81 4.7 4.7 0 0 0 1.56 1.24 4.44 4.44 0 0 0 2 .46 5.18 5.18 0 0 0 1.6-.26 4.65 4.65 0 0 0 1.51-.83 3.58 3.58 0 0 0 1.06-1.48l3.51 2.07a5.54 5.54 0 0 1-1.88 2.33 9.28 9.28 0 0 1-2.81 1.43 10.16 10.16 0 0 1-3.13.51 8.33 8.33 0 0 1-3.71-.83 9.28 9.28 0 0 1-2.91-2.2 10.21 10.21 0 0 1-1.89-3.09 9.56 9.56 0 0 1-.66-3.45zm25.85 9.75a8.15 8.15 0 0 1-3.13-.57 6.74 6.74 0 0 1-2.32-1.55 6.63 6.63 0 0 1-1.43-2.25 7.61 7.61 0 0 1 0-5.34 6.63 6.63 0 0 1 1.43-2.25 6.73 6.73 0 0 1 2.32-1.55 8.13 8.13 0 0 1 3.13-.57 8 8 0 0 1 3.12.57 6.71 6.71 0 0 1 3.75 3.79 7.43 7.43 0 0 1 0 5.34 6.71 6.71 0 0 1-3.75 3.79 8.06 8.06 0 0 1-3.12.59zm-3.06-7a3.94 3.94 0 0 0 .41 1.83 3.07 3.07 0 0 0 1.09 1.22 2.87 2.87 0 0 0 1.57.43 2.83 2.83 0 0 0 1.56-.45 3 3 0 0 0 1.09-1.23 4 4 0 0 0 .39-1.81 4.06 4.06 0 0 0-.39-1.83 3 3 0 0 0-1.09-1.22 3.05 3.05 0 0 0-3.13 0 3.07 3.07 0 0 0-1.09 1.22 3.94 3.94 0 0 0-.41 1.82zm13.1-12.39H111v14.25a1.91 1.91 0 0 0 .31 1.23 1.11 1.11 0 0 0 .89.37 2.86 2.86 0 0 0 .8-.12 4.25 4.25 0 0 0 .72-.27l.55 3.14a8.15 8.15 0 0 1-1.81.58 9.56 9.56 0 0 1-1.91.21 3.8 3.8 0 0 1-2.76-1 3.62 3.62 0 0 1-1-2.72zm16.03 19.39a8.15 8.15 0 0 1-3.13-.57 6.74 6.74 0 0 1-2.32-1.55 6.63 6.63 0 0 1-1.43-2.25 7.61 7.61 0 0 1 0-5.34 6.63 6.63 0 0 1 1.43-2.25 6.73 6.73 0 0 1 2.32-1.55 8.13 8.13 0 0 1 3.13-.57 8 8 0 0 1 3.12.57 6.71 6.71 0 0 1 3.75 3.79 7.43 7.43 0 0 1 0 5.34 6.71 6.71 0 0 1-3.75 3.79 8.06 8.06 0 0 1-3.12.59zm-3.06-7a3.94 3.94 0 0 0 .41 1.83 3.07 3.07 0 0 0 1.09 1.22 2.87 2.87 0 0 0 1.57.43 2.83 2.83 0 0 0 1.56-.45 3 3 0 0 0 1.09-1.23 4 4 0 0 0 .39-1.81 4.06 4.06 0 0 0-.39-1.83 3 3 0 0 0-1.09-1.22 3.05 3.05 0 0 0-3.13 0 3.07 3.07 0 0 0-1.09 1.22 3.94 3.94 0 0 0-.42 1.82zm21.87-3.43a7.46 7.46 0 0 0-2.75.48 3.41 3.41 0 0 0-1.78 1.43v8.25h-4.19v-13.6h3.85v2.62a5.79 5.79 0 0 1 1.83-2.17 4.22 4.22 0 0 1 2.36-.81h.43a1 1 0 0 1 .25 0zm2.75 10.17v-18.6h4.3v18.6zm16.63.13a8.74 8.74 0 0 1-3.79-.8 9.13 9.13 0 0 1-2.91-2.15 9.77 9.77 0 0 1-1.87-3 9.6 9.6 0 0 1-.65-3.5 9.15 9.15 0 0 1 .69-3.54 9.84 9.84 0 0 1 1.94-3 9 9 0 0 1 6.67-2.84 8.69 8.69 0 0 1 3.76.8 9.07 9.07 0 0 1 2.91 2.16 10 10 0 0 1 1.87 3.05 9.48 9.48 0 0 1 .65 3.44 9.3 9.3 0 0 1-.68 3.54 9.54 9.54 0 0 1-4.89 5.1 8.81 8.81 0 0 1-3.7.74zm-4.85-9.43a7 7 0 0 0 .31 2.08 5.56 5.56 0 0 0 .93 1.79 4.58 4.58 0 0 0 1.53 1.26 5 5 0 0 0 4.24 0 4.46 4.46 0 0 0 1.52-1.3 5.81 5.81 0 0 0 .9-1.82 7.16 7.16 0 0 0 .3-2.06 6.82 6.82 0 0 0-.31-2.07 5.6 5.6 0 0 0-.94-1.79 4.38 4.38 0 0 0-1.55-1.24 4.68 4.68 0 0 0-2.07-.45 4.39 4.39 0 0 0-3.65 1.74 5.5 5.5 0 0 0-.92 1.81 7.14 7.14 0 0 0-.26 2.05z" class="cls-1"/></g></g></svg>