<svg xmlns="http://www.w3.org/2000/svg" role="img" viewBox="0.84 0.34 398.06 281.56"><title>Open Job Description logo</title><path fill="none" d="M0 0h400v245H0z" pointer-events="none"/><path fill="#252f3e" d="M116.454 91.17c0 4.713.51 8.533 1.401 11.335 1.02 2.802 2.293 5.858 4.076 9.17.637 1.019.891 2.037.891 2.929 0 1.273-.764 2.547-2.42 3.82l-8.023 5.35c-1.146.764-2.292 1.146-3.311 1.146-1.274 0-2.547-.637-3.82-1.783a39.4 39.4 0 0 1-4.586-5.986c-1.273-2.165-2.547-4.585-3.948-7.514-9.934 11.717-22.414 17.575-37.442 17.575-10.698 0-19.231-3.056-25.472-9.17-6.24-6.113-9.424-14.263-9.424-24.452 0-10.825 3.82-19.613 11.59-26.235 7.768-6.623 18.084-9.934 31.202-9.934 4.33 0 8.787.382 13.5 1.019 4.712.637 9.551 1.656 14.645 2.802v-9.297c0-9.68-2.037-16.43-5.985-20.377-4.076-3.948-10.953-5.859-20.76-5.859-4.457 0-9.042.51-13.754 1.656s-9.297 2.547-13.754 4.33c-2.038.892-3.566 1.401-4.458 1.656-.891.254-1.528.382-2.038.382-1.783 0-2.674-1.274-2.674-3.948v-6.24c0-2.038.255-3.567.891-4.458.637-.892 1.783-1.783 3.566-2.675 4.458-2.292 9.807-4.202 16.047-5.73 6.24-1.656 12.863-2.42 19.868-2.42 15.155 0 26.235 3.438 33.367 10.315 7.005 6.878 10.57 17.32 10.57 31.33V91.17zm-51.706 19.36c4.203 0 8.533-.765 13.118-2.293 4.584-1.528 8.66-4.33 12.098-8.15 2.038-2.42 3.566-5.095 4.33-8.151.765-3.057 1.274-6.75 1.274-11.08v-5.35c-3.693-.89-7.641-1.655-11.717-2.164a95.965 95.965 0 0 0-11.971-.765c-8.533 0-14.774 1.656-18.976 5.095-4.203 3.438-6.24 8.278-6.24 14.646 0 5.985 1.528 10.443 4.711 13.5 3.057 3.183 7.514 4.712 13.373 4.712zm102.267 13.754c-2.293 0-3.82-.382-4.84-1.274-1.019-.764-1.91-2.547-2.674-4.966l-29.929-98.447c-.764-2.547-1.146-4.202-1.146-5.094 0-2.038 1.019-3.184 3.056-3.184h12.481c2.42 0 4.076.382 4.967 1.274 1.02.764 1.783 2.547 2.547 4.967l21.396 84.31 19.868-84.31c.636-2.548 1.4-4.203 2.42-4.967 1.018-.764 2.801-1.274 5.094-1.274h10.188c2.42 0 4.076.382 5.094 1.274 1.02.764 1.91 2.547 2.42 4.967l20.122 85.328 22.033-85.328c.764-2.548 1.656-4.203 2.547-4.967 1.02-.764 2.675-1.274 4.967-1.274h11.844c2.038 0 3.184 1.019 3.184 3.184 0 .637-.127 1.274-.255 2.038-.127.764-.382 1.783-.891 3.184l-30.693 98.446c-.764 2.547-1.656 4.203-2.674 4.967-1.02.764-2.675 1.273-4.84 1.273h-10.953c-2.42 0-4.075-.382-5.094-1.273-1.019-.892-1.91-2.547-2.42-5.094l-19.74-82.145-19.613 82.017c-.636 2.547-1.4 4.203-2.42 5.094-1.018.892-2.801 1.274-5.094 1.274h-10.952zm163.652 3.439c-6.622 0-13.245-.765-19.612-2.293-6.368-1.528-11.335-3.184-14.646-5.094-2.038-1.146-3.439-2.42-3.948-3.566a8.99 8.99 0 0 1-.765-3.566v-6.495c0-2.675 1.02-3.948 2.93-3.948.764 0 1.528.127 2.292.382.764.255 1.91.764 3.184 1.273a69.274 69.274 0 0 0 14.01 4.458c5.093 1.019 10.06 1.528 15.154 1.528 8.024 0 14.264-1.4 18.594-4.203 4.33-2.801 6.623-6.877 6.623-12.098 0-3.566-1.146-6.496-3.439-8.915-2.292-2.42-6.622-4.585-12.863-6.623l-18.466-5.73c-9.297-2.93-16.174-7.26-20.377-12.991-4.203-5.604-6.368-11.844-6.368-18.467 0-5.349 1.146-10.061 3.439-14.136 2.292-4.076 5.349-7.642 9.17-10.444 3.82-2.929 8.15-5.094 13.244-6.622 5.094-1.528 10.443-2.165 16.047-2.165 2.802 0 5.731.127 8.533.51 2.93.381 5.604.89 8.278 1.4 2.547.637 4.967 1.274 7.26 2.038 2.292.764 4.075 1.528 5.348 2.292 1.783 1.02 3.057 2.038 3.821 3.184.764 1.02 1.146 2.42 1.146 4.203v5.986c0 2.674-1.019 4.075-2.929 4.075-1.019 0-2.674-.51-4.84-1.528-7.259-3.311-15.41-4.967-24.452-4.967-7.26 0-12.99 1.146-16.938 3.566-3.948 2.42-5.986 6.113-5.986 11.335 0 3.566 1.274 6.622 3.82 9.042 2.548 2.42 7.26 4.84 14.01 7.004l18.084 5.731c9.17 2.93 15.793 7.005 19.74 12.227 3.949 5.221 5.86 11.207 5.86 17.83 0 5.476-1.147 10.443-3.312 14.773-2.293 4.33-5.35 8.15-9.297 11.207-3.948 3.184-8.66 5.476-14.137 7.132-5.73 1.783-11.716 2.675-18.212 2.675z" class="st0"/><path fill="#f90" fill-rule="evenodd" d="M354.738 189.617c-41.9 30.947-102.777 47.376-155.12 47.376-73.357 0-139.455-27.127-189.379-72.21-3.948-3.567-.382-8.406 4.33-5.604 54 31.33 120.607 50.305 189.506 50.305 46.485 0 97.555-9.679 144.55-29.546 7.004-3.184 12.99 4.584 6.113 9.679z" class="st1" clip-rule="evenodd"/><path fill="#f90" fill-rule="evenodd" d="M372.185 169.75c-5.349-6.878-35.405-3.312-49.032-1.657-4.075.51-4.712-3.056-1.019-5.73 23.943-16.812 63.296-11.972 67.881-6.368 4.585 5.73-1.273 45.084-23.688 63.932-3.439 2.93-6.75 1.401-5.222-2.42 5.095-12.608 16.43-41.008 11.08-47.758z" class="st1" clip-rule="evenodd"/><path d="M57.08576 262.68721c-1.07271 1.3494-2.52002 2.02198-4.3462 2.02198-1.82616 0-3.28198-.67257-4.37172-2.02198-1.08549-1.34515-1.63036-3.2607-1.63036-5.74668 0-2.48171.54487-4.39727 1.63036-5.74668 1.08974-1.34515 2.54556-2.02198 4.37173-2.02198 1.82617 0 3.27348.67683 4.3462 2.0305 1.0727 1.3494 1.60906 3.26496 1.60906 5.73816 0 2.48597-.53635 4.40153-1.60907 5.74668zm2.88186 3.35436c2.22204-2.10711 3.33733-5.13796 3.33733-9.10104 0-4.0397-1.11529-7.0748-3.33733-9.09678-1.66867-1.71975-4.07802-2.57536-7.22805-2.57536-3.15429 0-5.56364.85561-7.22805 2.57536-2.23482 2.02198-3.35436 5.05708-3.35436 9.09678 0 3.96308 1.11954 6.99393 3.35436 9.10104 1.66441 1.7155 4.07376 2.5711 7.22805 2.5711 3.15003 0 5.55938-.8556 7.22805-2.5711zm-7.22805-20.77318zm24.11477 11.23795c.57467.9663.85987 2.08157.85987 3.33733 0 1.5282-.31074 2.7499-.9365 3.6651-.62148.91947-1.52818 1.3792-2.71583 1.3792-.8173 0-1.52393-.2256-2.12414-.67257-1.00886-.77048-1.51117-2.10286-1.51117-3.99713 0-1.19616.149-2.18374.45122-2.96273.57893-1.4686 1.63887-2.20077 3.18409-2.20077 1.28981 0 2.2178.48528 2.79246 1.45157zm3.27774-3.06915c-1.32387-1.40475-2.9372-2.10712-4.83998-2.10712-1.30684 0-2.4349.36183-3.38416 1.08974-.51933.40865-1.00886.97055-1.46434 1.67718v-2.40935h-4.08653v22.73131h4.2185v-8.50083c.45121.6896.91095 1.2132 1.3792 1.57502.85561.64703 1.93258.97055 3.2309.97055 2.03476 0 3.69916-.75345 4.99323-2.26036 1.28981-1.5069 1.93685-3.6949 1.93685-6.56824 0-2.72435-.6598-4.7889-1.98367-6.1979zm9.2032 2.26036c.54487-.61724 1.3111-.92799 2.29867-.92799.9067 0 1.66867.29372 2.28165.8769.61297.58319.95352 1.4388 1.02588 2.56686H88.3094c.14047-1.05995.48102-1.89428 1.02589-2.51577zm5.96378-3.68213c-1.08549-.50656-2.31145-.76197-3.66511-.76197-2.2859 0-4.14612.75345-5.5764 2.26036-1.4303 1.5069-2.14543 3.67362-2.14543 6.49588 0 3.01381.79176 5.18903 2.37955 6.52567 1.58353 1.33664 3.41395 2.00495 5.49127 2.00495 2.51577 0 4.46964-.79602 5.86587-2.37955.89818-1.00035 1.40049-1.98367 1.51116-2.94996h-4.3547c-.22987.48102-.4938.85562-.79177 1.1238-.54913.49804-1.26427.7492-2.14117.7492-.83007 0-1.5367-.20434-2.12414-.61724-.97055-.65555-1.48137-1.80489-1.54096-3.4395h11.16133c.02128-1.409-.02554-2.48597-.13196-3.23517-.19156-1.27704-.60447-2.39658-1.24299-3.36713-.71089-1.094-1.60481-1.89853-2.69455-2.40934zm-3.36713-.76197zm23.48902 1.37069c-1.07271-.88542-2.45192-1.32387-4.13761-1.32387-1.3494 0-2.46043.32778-3.33733.98758-.48953.36609-1.00886.97055-1.558 1.80914v-2.37955h-4.11632v16.28226h4.25255v-8.8286c0-1.00887.14047-1.83468.41716-2.48598.54062-1.22595 1.53245-1.83893 2.97976-1.83893 1.17488 0 1.97516.41716 2.39232 1.25575.22987.45974.3448 1.11954.3448 1.97516v9.9226h4.37174v-10.98254c0-2.04753-.53636-3.51186-1.60907-4.39302zm-5.70837-1.3707zm22.80368 8.38165h-4.3547v.50656c0 2.59664.48952 4.64417 1.46859 6.14682.97906 1.49839 2.89888 2.25184 5.75945 2.25184 2.86482 0 4.84424-.92798 5.94249-2.78394.64703-1.09826.9748-2.58388.9748-4.46113v-15.35428h-4.6101v15.4309c0 1.0642-.10643 1.82617-.31501 2.27313-.34906.75771-1.06846 1.13657-2.15394 1.13657-1.09826 0-1.8134-.3448-2.14968-1.03866-.33204-.69386-.51933-1.89428-.5619-3.60125zm24.1999 4.02693c-.66831.88541-1.6261 1.33238-2.87333 1.33238-1.24725 0-2.20503-.44697-2.88186-1.33238-.67257-.88967-1.00886-2.14968-1.00886-3.78855 0-1.63461.33629-2.89463 1.00886-3.78004.67683-.88116 1.63461-1.32387 2.88186-1.32387 1.24724 0 2.20502.44271 2.87334 1.32387.66831.88541 1.0046 2.14543 1.0046 3.78004 0 1.63887-.33629 2.89888-1.0046 3.78855zm3.41396 2.35401c1.37495-1.69846 2.06455-3.74598 2.06455-6.14256 0-2.35401-.6896-4.39302-2.06455-6.12128-1.3792-1.724-3.4693-2.58813-6.27027-2.58813-2.80523 0-4.89532.86413-6.27026 2.58813-1.3792 1.72826-2.06455 3.76727-2.06455 6.12128 0 2.39658.68534 4.4441 2.06455 6.14256 1.37494 1.70272 3.46503 2.55408 6.27026 2.55408 2.80098 0 4.89107-.85136 6.27027-2.55408zm-6.27027-14.76258zm25.23857 2.39658c-1.21319-1.54948-2.89037-2.31996-5.0358-2.31996-1.18764 0-2.1667.2469-2.93293.7492-.65129.39588-1.24299.9748-1.7836 1.73251v-7.84102h-4.24829v22.02894h4.17593v-2.04752c.56615.79602 1.09825 1.35366 1.58353 1.67292.82156.54061 1.90278.8088 3.24793.8088 2.14543 0 3.81835-.83434 5.01451-2.49875 1.19616-1.6644 1.79637-3.76727 1.79637-6.30006 0-2.4434-.60446-4.43985-1.81765-5.98506zm-3.57146 9.93537c-.60872.88967-1.46008 1.33238-2.55833 1.33238-1.26853 0-2.20928-.45974-2.82652-1.3792-.62149-.91522-.92798-2.07307-.92798-3.4693 0-1.18765.14899-2.15394.44696-2.90314.57893-1.409 1.64313-2.11137 3.18835-2.11137 1.52819 0 2.57536.7194 3.14152 2.15394.30223.76197.45122 1.71975.45122 2.87334 0 1.44731-.3065 2.61368-.91522 3.50335zm21.7778-13.81332h4.24828c2.09435 0 3.49483.60021 4.1972 1.80488.70238 1.20042 1.0557 2.92443 1.0557 5.16776 0 1.6261-.23413 3.03084-.70238 4.20572-.85987 2.14543-2.3753 3.21814-4.55052 3.21814h-4.24829zm8.43697-3.3501c-.9067-.30223-2.04326-.45973-3.4097-.48102h-9.50543v22.05874h9.50543c3.33308 0 5.79777-1.37069 7.39407-4.11633 1.17487-2.03475 1.76231-4.51646 1.76231-7.4494 0-1.15785-.13622-2.3753-.41717-3.65233-.28094-1.27704-.80453-2.46469-1.57075-3.56294-.95778-1.35792-2.20928-2.29016-3.75876-2.79672zm13.01304 9.27557c.54487-.61724 1.3111-.92799 2.29867-.92799.9067 0 1.66867.29372 2.28165.8769.61297.58319.95352 1.4388 1.02588 2.56686h-6.63209c.14047-1.05995.48102-1.89428 1.02589-2.51577zm5.96378-3.68213c-1.08549-.50656-2.30719-.76197-3.6651-.76197-2.28591 0-4.14188.75345-5.57642 2.26036-1.43028 1.5069-2.14542 3.67362-2.14542 6.49588 0 3.01381.79176 5.18903 2.37955 6.52567 1.58353 1.33664 3.4182 2.00495 5.49127 2.00495 2.51577 0 4.46964-.79602 5.86587-2.37955.89818-1.00035 1.40049-1.98367 1.51116-2.94996h-4.3547c-.22987.48102-.4938.85562-.79177 1.1238-.54913.49804-1.26427.7492-2.14117.7492-.82582 0-1.5367-.20434-2.12414-.61724-.9663-.65555-1.48137-1.80489-1.54096-3.4395h11.16133c.02128-1.409-.02129-2.48597-.13196-3.23517-.19156-1.27704-.60447-2.39658-1.24299-3.36713-.70663-1.094-1.60481-1.89853-2.69455-2.40934zm-3.36713-.76197zm13.63453 11.54018h-4.32491c0 1.67293.60872 3.05213 1.83468 4.13761 1.2217 1.08123 3.11172 1.62184 5.67857 1.62184 2.51151 0 4.37173-.51081 5.57215-1.53244 1.20468-1.02164 1.80488-2.34124 1.80488-3.95883 0-1.22596-.41716-2.25185-1.25575-3.06915-.85136-.8088-2.11989-1.409-3.81835-1.80914-2.54557-.55764-4.02693-.95352-4.4441-1.1834-.41717-.21709-.63-.57466-.63-1.05994 0-.39162.20006-.73216.59169-1.02163.39588-.2852 1.05569-.42993 1.98367-.42993 1.12805 0 1.92407.2852 2.39658.86413.24689.31926.40014.75345.46399 1.30258h4.26105c-.1873-1.99219-.92372-3.39693-2.20502-4.20998-1.2813-.81305-2.94145-1.2217-4.9762-1.2217-2.14542 0-3.80983.54061-4.98897 1.6261-1.18339 1.08123-1.77508 2.3753-1.77508 3.8822 0 1.27704.37885 2.2561 1.13656 2.93293.75771.6896 2.0603 1.26002 3.90775 1.71975 2.56259.60872 4.04396 1.03866 4.4441 1.28981.40013.2469.59595.61298.59595 1.08974 0 .49805-.2469.87265-.74069 1.1238-.49379.2469-1.15785.3746-1.99644.3746-1.42602 0-2.40509-.2852-2.93293-.85562-.29798-.31926-.49379-.85562-.58318-1.61333zm3.2607-11.54018zm20.20278 6.2873h4.37173c-.23838-2.32422-1.00886-3.94606-2.31144-4.86553-1.30258-.91521-2.9755-1.37495-5.02302-1.37495-2.4051 0-4.29086.779-5.6573 2.33273-1.36642 1.55799-2.04751 3.73747-2.04751 6.53844 0 2.48598.61723 4.50796 1.85596 6.06169 1.23447 1.55799 3.16706 2.33698 5.78925 2.33698 2.62645 0 4.60586-.93224 5.9425-2.80097.83858-1.15785 1.30683-2.38381 1.40474-3.68214h-4.3547c-.0894.85988-.34055 1.558-.76198 2.0986-.41716.53636-1.12805.8088-2.12414.8088-1.409 0-2.36678-.68109-2.87334-2.039-.28095-.72792-.42142-1.68996-.42142-2.88612 0-1.25576.14047-2.26462.42142-3.02233.52784-1.42603 1.51116-2.14117 2.9457-2.14117 1.00887 0 1.7538.32778 2.23057.98758.33203.48953.53636 1.03866.61298 1.64738zm-2.88611-6.2873zm19.2535.05108c-.05533-.00426-.12344-.00426-.20432-.00426-1.27704 0-2.31144.33203-3.11172 1.00035-.48953.40014-1.0642 1.14508-1.71975 2.23056v-2.84354h-4.07376v16.31206h4.29511v-7.7942c0-1.3111.16602-2.27739.4938-2.9074.59169-1.11528 1.74102-1.67292 3.46077-1.67292.1277 0 .29798.00426.50656.01277.20858.01277.45122.0298.7194.0596v-4.36748c-.19156-.01277-.31075-.01703-.36609-.02554zm7.24934-1.56225v-3.93754h-4.32491v3.93754zm-4.32491 1.94536v16.31206h4.3249v-16.31206zm18.83208 4.8187c.57467.9663.86413 2.08157.86413 3.33733 0 1.5282-.315 2.7499-.9365 3.6651-.62575.91947-1.52819 1.3792-2.71583 1.3792-.81731 0-1.5282-.2256-2.12415-.67257-1.00886-.77048-1.51116-2.10286-1.51116-3.99713 0-1.19616.14899-2.18374.44696-2.96273.57893-1.4686 1.64313-2.20077 3.18835-2.20077 1.28555 0 2.21779.48528 2.7882 1.45157zm3.27774-3.06915c-1.31961-1.40475-2.93294-2.10712-4.83999-2.10712-1.30683 0-2.43489.36183-3.3799 1.08974-.51932.40865-1.00886.97055-1.4686 1.67718v-2.40935h-4.08652v22.73131h4.22275v-8.50083c.44696.6896.9067 1.2132 1.37494 1.57502.85988.64703 1.93685.97055 3.23091.97055 2.03901 0 3.69916-.75345 4.99323-2.26036 1.28981-1.5069 1.93684-3.6949 1.93684-6.56824 0-2.72435-.6598-4.7889-1.98366-6.1979zm3.39267 1.4388h2.27313v10.04179c0 1.01737.23838 1.77082.7194 2.26036.73642.76622 2.11563 1.11528 4.1291 1.04717l2.02197-.07662v-3.18835a6.9266 6.9266 0 0 1-.42568.02554c-.14473.00426-.2852.00852-.4129.00852-.8684 0-1.38772-.08514-1.558-.25115-.17027-.16176-.2554-.57893-.2554-1.24725v-8.62002h2.65198v-3.03935h-2.65198v-4.54626h-4.2185v4.54626h-2.27312zm16.26523-5.1337v-3.93755h-4.32491v3.93754zm-4.32491 1.94535v16.31206h4.3249v-16.31206zm18.64904 11.97438c-.66832.88541-1.6261 1.33238-2.87334 1.33238-1.24724 0-2.20928-.44697-2.88185-1.33238-.67258-.88967-1.00887-2.14968-1.00887-3.78855 0-1.63461.3363-2.89463 1.00887-3.78004.67257-.88116 1.6346-1.32387 2.88185-1.32387 1.24724 0 2.20502.44271 2.87334 1.32387.66832.88541 1.00035 2.14543 1.00035 3.78004 0 1.63887-.33203 2.89888-1.00035 3.78855zm3.4097 2.35401c1.3792-1.69846 2.06454-3.74598 2.06454-6.14256 0-2.35401-.68534-4.39302-2.06454-6.12128-1.37495-1.724-3.46504-2.58813-6.27027-2.58813-2.80097 0-4.89106.86413-6.27027 2.58813-1.37494 1.72826-2.06454 3.76727-2.06454 6.12128 0 2.39658.6896 4.4441 2.06454 6.14256 1.3792 1.70272 3.4693 2.55408 6.27027 2.55408 2.80523 0 4.89532-.85136 6.27027-2.55408zm-6.27027-14.76258zm24.566 1.37069c-1.07272-.88542-2.45192-1.32387-4.13762-1.32387-1.34515 0-2.46043.32778-3.33733.98758-.48953.36609-1.00886.97055-1.55799 1.80914v-2.37955h-4.11207v16.28226h4.2483v-8.8286c0-1.00887.14047-1.83468.41716-2.48598.54061-1.22595 1.53245-1.83893 2.97976-1.83893 1.17913 0 1.97515.41716 2.39658 1.25575.2256.45974.34054 1.11954.34054 1.97516v9.9226h4.37173v-10.98254c0-2.04753-.53635-3.51186-1.60907-4.39302zm-5.70838-1.3707z"/></svg>