<svg xmlns="http://www.w3.org/2000/svg" role="img" viewBox="-3.72 -3.72 167.44 167.19"><title>OpenSequencePlayer logo</title><path fill="#EBCACD" stroke="#EBCACD" d="M34.5 20L33 22.5l.5 1.5h8l12 3h11l1 1h31l1-1h9v1h-8l-1 1-33 3-9 2-17 1L22 38q3.7-11 12.5-18zm93 0l5.5 6.5-3.5.5-1-1h-10l-1 1h-8v-1l20.5-2.5-2.5-3.5zm8 11l2.5 1 1 3.5-4.5 6.5-19 11-11 2h-9L83 51q-2.1-5.2 2.5-4l4 5 8-4h9l12-5 9.5-1 7.5-11zM81 34l4 .5q-2 4.5-4 1V34zm-17 2l4 .5-1.5 2.5-2.5-1v-2zm9.5 1q5.5-1 6.5 2.5.5 4-2.5 4.5l-4 1-3.5-2.5q-.7-3.7 1.5-4.5l2-1zm-38 2l2.5.5-2.5.5v-1zm23 1l4.5 1.5-6.5 9.5-9 1-5 4-13 5H18l-1-5 2.5 1q11.4-4.6 26-6l6.5-4.5q-.7-2.2 1.5-1.5l5-5zm-43 4l2.5 3.5-1 5.5-6-4.5 1.5-2.5 3-2zm57 4l1 2q-2.8.7-1-2zm4 13q1.5 2.5 7 1l1.5 1.5 9 16V82l-8.5 2h-9L74 83l3-9.5v-11l-.5-1.5z" opacity=".996"/><path fill="#CBA3B3" stroke="#CBA3B3" d="M126.5 26l2.5.5-2.5.5v-1zm-4 3l2.5.5-2.5.5v-1zm-49 19q7.3-2.6 5.5 3.5l5 10-2.5.5-5.5-1 1 6.5h-1q.8-2.6-2.5-1.5l-2.5-.5 2-14-.5-1.5 1.5-.5-.5-1.5z"/><path stroke="#000" d="M0 0l71 .5q-34.9 5.6-52 29L8.5 45 5 47.5l-4 10v9l2 6-1 1v13l3 15 6 15q8.2 14.3 20.5 24.5 11.2 9.3 27 14l14 3h17l15-3 16-7q13.7-8.3 23.5-20.5 12.3-14.7 15.5-38.5l.5 71H0V0zm91.5 0H160v68.5h-1v-6l-4-13q-7.1-16.9-19.5-28.5-10.5-10-25-16l-14-4h-5V0z" opacity=".137"/><path fill="#F4E7E2" stroke="#F4E7E2" d="M72.5 4q40.1-1.6 57.5 19.5l-9.5.5-12 3h-11l-1 1h-31l-1-1h-11l-12-3H33l5.5-7 14-8 20-5zm41 26h15l6.5 1-7 11-9.5 1-12 5h-9l-8 4-4-5q-4.2 1.3-2.5-3.5l2-4.5 13.5-6 15-3zm-75 9q12.4-1.9 19.5 1.5L52 45l-1.5 3-5 3q-14.6 1.4-26 6L17 56l1-9.5-1.5-2.5 9-3 12-1 1-1zm-31 11L7 51.5 5.5 57 5 54.5 7.5 50z" opacity=".996"/><path fill="#E4C5A9" stroke="#E4C5A9" d="M139.5 35l3.5 8.5q-7.3 9.7-19.5 14.5l-12 3h-13L85 57l-2-5.5 2.5-.5 5 3 14 1 16-4L137 39.5l2.5-4.5zm-76 6q5.1 4.2 5.5 12l-6.5-1-11 9-12 5-8 2h-12L18 66.5 17 59l-2.5 1L8 54.5l-1-2 4.5-6.5-.5 1.5 4.5 5.5q2.8-.6 1.5 5.5l1 2.5h11.5q11-2.5 18-9l9-1 2.5-2.5 4.5-7.5zm-58 12l1 2-1-2zM4 57l2 .5-2 1V57z" opacity=".996"/><path fill="#D1A07C" stroke="#D1A07C" d="M144.5 52l.5 6.5-2 9.5-16.5 3-8 3-16 2L90 64.5l9.5-2.5 16-1 17-4h6l5.5-2.5.5-2.5zm-139 7l2 4 3 1 6.5-4 1 4.5-1.5.5-4-2-3 4L5 64.5l-1-2L5.5 59zm50 2L67 63.5 59.5 76l-16-2-8-3-14.5-.5q22.6.6 34.5-9.5z" opacity=".996"/><path fill="#D7AD8A" stroke="#D7AD8A" d="M142.5 44q3 3 1.5 10.5l-5.5 2.5h-6l-15 3v-1q16.8-3.2 25-15zm-80 8l6.5 1-2 10-11.5-2q-6.8 5.7-17 8L19 70l-1-2.5 1.5.5h12l8-2 12-5 11-9zm-55 1l5 6 2 1 2-1v1l-7 4L6 61.5l-1-3L7.5 53zm79 4l7 3 14.5 1.5L90.5 64 86 58.5l.5-1.5zm26 3l3.5.5-3.5.5v-1z" opacity=".996"/><path fill="#C68970" stroke="#C68970" d="M139.5 33l4.5 3.5q.8 3.8-1.5 4.5l-3-8zm5 16l.5 2.5h-1l.5-2.5zm0 10l.5 3.5h-1l.5-3.5zm-56 3l1 2-1-2zm-84 1l2 3 3 1 3-4 5.5 2q-1 3.8 1.5 5l2 1h14l8 3 16 2 1.5-.5-7.5 8.5-11 7-8 1-3.5-2-13.5-21-9-1L4 66l.5-3zm139 3l.5 1.5q-1.8 7.2-7.5 10.5l-6 3-9 2-13-3-5.5-3.5 15.5-2.5 8-3 16.5-3 .5-2zm-44 7l1 2-1-2z" opacity=".996"/><path fill="#321F21" stroke="#321F21" d="M110.5 27h22q1.2 2.3 6 1l8.5 6.5q6.6 6.4 6 20l-2 9-5 10-7.5 7.5-13 5h-8l-14-5L88 67.5q-7.5-7.7-9-20.5l-7 1q1.2 10.5-2 17.5Q63.7 80.7 51.5 90l-13 6h-12Q14.9 93.1 9 84.5l-6-10-2-8v-9l2-7L7.5 45l8-5 13-3 13-1 1-1h9l9-2h8l9-2h8l9-2h8l8-2zm8.5 2l-1 1h-8l-10 2-12 5q-5 3-6 9l1 8 8 13q9 12 28 16 13 1 20-6 8-7 10-20 2-14-4-20l-8-7-18-1zm-34 4l-6 2 4 2 6-3-4-1zm-17 2l-8 2 6 2 3-2q1-3-1-2zm7 1l-5 2-1 3 1 3q2 3 8 1 3-1 2-6l-5-3zm-30 2l-1 1H33l-10 2-13 6-5 6-2 8v4q3 2 3 9l5 8q6 8 18 11h9l13-6q13-10 18-28 2-12-3-16l-7-4-14-1z" opacity=".996"/><path fill="#C97A9C" stroke="#C97A9C" d="M79.5 3l3.5.5-3.5.5V3zm-9 61l1 2h2q3.3-1.1 2.5 1.5v7L70.5 87q-4.2-3-11.5-2 7.2-8.6 11.5-21zm20 7q6.9 8.1 17.5 12.5l-7 2 1.5 2.5q-9.4-6.6-12-17zm-21 17l-1 2 1-2zm40 4l1 2-1-2zm3 2l8.5 4.5-7 5.5q1.1 2.7-1.5 2l-13 7-11 2h-15l-3-1h-4l-11-4-4.5-3.5L64.5 95 62 98.5q-.9 3.4 4.5 1.5l6 2h2q24.3 1.3 38-8z"/><path fill="#E298BC" stroke="#E298BC" d="M77.5 61l-1 2 1-2zm-1 10l.5 2.5h-1l.5-2.5zm15 4l1 2-1-2zm2 3l10 11 8.5 5.5q-13.7 8.8-37.5 7.5h-2L62 100l11.5-19 .5 2q3.3 2.1 11.5 1l8.5-2-.5-4z"/><path fill="#89204A" stroke="#89204A" d="M35.5 18l-1 2 1-2zm91 0l1 2-1-2zm-99 8L25 29.5 19 40l-4.5 1 1.5-2.5L24.5 28l3-2zm107 0l2.5 1.5-3.5.5 1-2zm-67 9l1 2-1-2zm86 15l4.5 13.5q-2.8 1.8-1 8l-3 9q-3.2 7.8-9.5 12.5l-12 5H123q-1.1-2.7 1.5-2L136 84.5l1-3.5 9-7.5 5-10 2.5-13.5zM3.5 60l.5 4.5H3l.5-4.5zm93 11l1 2-1-2zm44 3l-2 3 2-3zm-81 8l-3 4 3-4zm-56 3l.5 2.5H3l.5-2.5zm8 2q7.4 10.6 27 9l1.5-.5q-2.2 1.3.5 2.5l10.5 7.5q-6 4.5-18.5 2.5-10.9-3.1-16.5-11.5l-5-8 .5-1.5z"/><path fill="#89204A" stroke="#89204A" d="M28.5 92l2.5.5-2.5.5v-1zm125 14l.5 1.5-2.5 3.5.5-1.5 1.5-3.5zm-144 2q4.5 9.5 13 15 12.4 10.1 30 15l14 3 20 1 1-1h9l10-2 17-6q15-7.1 25.5-18.5l1.5-2.5-.5 1.5q-4.2 10.3-12.5 16.5l-14 8-19 6-13 1-1 1h-19l-1-1-12-1-17-5q-12.4-4.1-20.5-12.5-8.5-8-11.5-18.5z"/><path fill="#940E3B" stroke="#940E3B" d="M71.5 0h19l20 5q16.9 7.1 28.5 19.5l4 5-1.5-.5-7-3q-6.9-8.6-17-14l-11-5-18-4h-15l-15 3-14 6Q30.4 20.4 20 32.5L12.5 42l-1.5-.5Q19 27 31.5 17l18-11 22-6zm81 45l5.5 13.5 1 9h-1v-5L152.5 45zm7 24l.5 19.5h-1l.5-19.5zm-157 4L3 86.5H2L2.5 73zm1 15q3.5 27 20 41 23.7 18.3 67 17l1-1 13-1 19-6q12-4.5 19.5-13.5l11-17 4.5-17.5.5 4.5q-7 30.5-28.5 46.5l-10 7-16 7-15 3h-17l-14-3-15-6q-13.9-7.6-23.5-19.5-8.3-9.2-13-22l-4-14 .5-5.5z" opacity=".894"/><path fill="#B25675" stroke="#B25675" d="M76.5 3l2.5.5-2.5.5V3zm7 0l2.5.5-2.5.5V3zm59 31l1 2-1-2zm2 3l3.5 8-5-1 1.5-7zM5.5 66l4.5 2.5L9 75q-2.7 1.1-2-1.5-3-2.7-1.5-7.5zm10 3l2.5.5-2.5.5v-1zm74 0l5 6-5-6zm-28 11l-1 2 1-2zm-37 1l1 2-1-2zm84 2q5.8 5.2 19 3l8-3-4.5 5.5q.8 2.3-1.5 1.5l-8.5 7.5 7.5 1.5q1.5-2.5 7-1l6-3-.5 1.5q-3.6 8.9-10.5 14.5-10.1 9.4-25 14l-14 3h-21l-19-5q-13.9-5.1-22.5-15.5l1.5.5 12 1 8-3 5 4 16 5h17l11-2 14.5-7q-1.1-2.7 1.5-2l5.5-5.5-1.5-1.5q-12-3-18.5-11.5l7.5-2.5zm-82 1l4 5-4-5z" opacity=".996"/><path fill="#B25675" stroke="#B25675" d="M58.5 84L70 86q-4.2 10.4-13.5 17l-1-3q-9.9.4-15.5-3.5 11.5-4 18.5-12.5zm-26 6l1 2-1-2z" opacity=".996"/><path fill="#AA3E64" stroke="#AA3E64" d="M31.5 22l-1 2 1-2zm33 19l1 2-1-2zm90 39l.5 4.5q-3.7 18.8-15.5 29.5-13.6 13.4-35 19l-10 2h-27l-10-2-20-8Q26 118.6 18 108.5l-7-11-3-9v-4l2 1q3.1 10.4 10.5 16.5l9 6 1.5-.5-1 1 5.5 5.5q10.5 8 25 12l10 2h21l22-6q12-5.5 20.5-14.5l7-11-.5-1.5 1.5.5q-.7-2.2 1.5-1.5 7.4-5.1 11-14z"/><path fill="#AA3E64" stroke="#AA3E64" d="M24.5 82l9 10 1.5.5-2.5.5-6.5-1-2-5.5.5-4.5zm28 2l-1 2 1-2zm82 1l-3 4 3-4zm-79 1l-2 3 2-3zm74 4l-3 4 3-4zm-89 5l-1 2 1-2zm83 0l-2 3 2-3zm-82 2l4 2 10 1 1.5 1.5-3.5 3.5-2-2-9-4-1-2zm85 1l2.5.5-2.5.5v-1zm-93 10l4.5.5-4.5.5v-1zm7 0l2.5.5-2.5.5v-1z"/><path fill="#A02D4E" stroke="#A02D4E" d="M33.5 20l-1 2 1-2zm95 0l1 2-1-2zm3 3l2 3-2-3zm-102 1l-1 2 1-2zm-9 13l-1 2 1-2zm124 7l4.5 3.5q.8 13.3-4.5 20.5l-.5-2.5 1-1v-16l-.5-4.5z"/><path fill="#A02D4E" stroke="#A02D4E" d="M157.5 64l1.5 6.5v17l-4 16q-3.7 10.3-11.5 16.5-12.4 11.1-30 17l-17 4-21 1-1-1-14-1-17-5q-19.4-7.6-31.5-22.5-9-13.5-9-36h1l4 6v6l4 11q6.5 11.6 16.5 19.5 12.1 9.4 29 14l10 2h27l22-6q14.5-6 24.5-16.5 12.2-10.8 14-32l-1-2q3.9-5.1 3.5-14.5zm-65 3l3 4-3-4z"/><path fill="#A02D4E" stroke="#A02D4E" d="M10.5 68q3 2.8 8.5 2l5 11.5q-.7 6.7 2 10l-1.5-.5q-8.4-2.2-12.5-8.5l-4-6q2.5-1.5 1-7l1.5-1.5zm142 15l-1 2 1-2zm-138 11l1 2-1-2zm111 0l-1 2 1-2zm-108 4l3 4-3-4zm28 2l7.5 4.5-3.5.5-4-5z"/></svg>