<svg xmlns="http://www.w3.org/2000/svg" role="img" viewBox="-1.82 -1.82 94.77 63.27"><title>Open Shading Language (OSL) logo</title><defs><style>.cls-1{fill:#4570ee}.cls-2{fill:#1dc5ed}.cls-3{fill:#9661ee}</style></defs><g id="Layer_2" data-name="Layer 2"><g id="Layer_1-2" data-name="Layer 1"><path d="M2 58a2.07 2.07 0 0 1 0-4.13A2.07 2.07 0 0 1 2 58zm0-3.37a1.19 1.19 0 0 0-1.24 1.3A1.21 1.21 0 0 0 2 57.22a1.31 1.31 0 0 0 0-2.61zm3.2 5c-.23 0-.38-.13-.38-.32v-5A.36.36 0 0 1 5.2 54a.35.35 0 0 1 .33.18c0 .05.06.06.06.07a1.91 1.91 0 0 1 1.17-.36 2.07 2.07 0 0 1 0 4.13 2.1 2.1 0 0 1-1.17-.36v1.69a.34.34 0 0 1-.39.28zm1.61-5a1.31 1.31 0 0 0 0 2.61 1.31 1.31 0 0 0 0-2.61zM11.48 58a2.07 2.07 0 0 1 0-4.13 1.93 1.93 0 0 1 2 2.05.4.4 0 0 1-.32.39l-2.69.43a1.18 1.18 0 0 0 1 .5 1.3 1.3 0 0 0 .55-.12.34.34 0 0 1 .47.21.36.36 0 0 1-.16.49 2 2 0 0 1-.85.18zm0-3.37a1.19 1.19 0 0 0-1.24 1.3V56l2.44-.39a1.17 1.17 0 0 0-1.2-.98zm6.33 3.21a.34.34 0 0 1-.37-.34v-1.59a1.24 1.24 0 1 0-2.48 0v1.6a.38.38 0 0 1-.76 0v-3.16a.38.38 0 0 1 .38-.38.36.36 0 0 1 .35.21h.05a2.05 2.05 0 0 1 1.17-.36 1.94 1.94 0 0 1 2 2.06v1.6a.35.35 0 0 1-.34.36zm5.96.16h-.2A2 2 0 0 1 22 57a.42.42 0 0 1 0-.38.41.41 0 0 1 .32-.18.49.49 0 0 1 .38.26l.05.07a1.22 1.22 0 0 0 .83.44h.13c.37 0 .79-.18.83-.55 0-.39-.4-.48-.84-.54a2.08 2.08 0 0 1-1.24-.44.91.91 0 0 1-.25-.65.93.93 0 0 1 .3-.71 1.92 1.92 0 0 1 1.19-.4 2.05 2.05 0 0 1 1.27.41.33.33 0 0 1 .11.33.41.41 0 0 1-.41.32.31.31 0 0 1-.2-.08 1.29 1.29 0 0 0-.75-.24c-.36 0-.75.11-.75.34s.35.33.7.37h.12c.64.08 1.51.29 1.51 1.24a.66.66 0 0 1 0 .14A1.49 1.49 0 0 1 23.77 58zm6.07-.16a.34.34 0 0 1-.38-.33v-1.63a1.24 1.24 0 1 0-2.48 0v1.63a.34.34 0 0 1-.38.33.35.35 0 0 1-.38-.33v-5a.35.35 0 0 1 .38-.34.34.34 0 0 1 .38.34v1.63s0 .06.07.06a2 2 0 0 1 1.13-.32 1.94 1.94 0 0 1 2 2.06v1.63a.35.35 0 0 1-.34.27zM33 58a2.07 2.07 0 0 1 0-4.13 2.07 2.07 0 0 1 1.17.36h.06a.36.36 0 0 1 .33-.2.38.38 0 0 1 .4.37v3.13a.38.38 0 0 1-.4.37.35.35 0 0 1-.33-.21.06.06 0 0 0-.06 0A2.07 2.07 0 0 1 33 58zm0-3.37a1.31 1.31 0 1 0 1.24 1.3A1.19 1.19 0 0 0 33 54.6zM37.78 58a2.07 2.07 0 0 1 0-4.13 2.05 2.05 0 0 1 1.18.36v-1.77a.34.34 0 0 1 .38-.33.34.34 0 0 1 .38.33v5a.36.36 0 0 1-.38.36.35.35 0 0 1-.34-.19.11.11 0 0 0 0-.03 2 2 0 0 1-1.22.4zm0-3.37A1.31 1.31 0 1 0 39 55.92a1.19 1.19 0 0 0-1.22-1.31zm4.09 3.28c-.35 0-.79-.66-.8-.67a2 2 0 0 1-.33-1.08v-1.85a.35.35 0 0 1 .38-.34.36.36 0 0 1 .38.34v1.82a1.36 1.36 0 0 0 .61 1.1.35.35 0 0 1 .16.29.4.4 0 0 1-.4.39zm-.76-4.39a.35.35 0 0 1-.38-.36.38.38 0 0 1 .76 0 .35.35 0 0 1-.38.36zm5.24 4.32a.35.35 0 0 1-.35-.34v-1.59a1.24 1.24 0 1 0-2.48 0v1.6a.38.38 0 0 1-.75 0v-3.16a.38.38 0 0 1 .37-.38.35.35 0 0 1 .35.21h.05a2.07 2.07 0 0 1 1.17-.36 2 2 0 0 1 2 2.06v1.6a.35.35 0 0 1-.36.36zm3.13 1.84a2.05 2.05 0 0 1-.87-.18.32.32 0 0 1-.18-.2.35.35 0 0 1 0-.28.36.36 0 0 1 .46-.22 1.34 1.34 0 0 0 .56.12 1.17 1.17 0 0 0 1.23-1.22v-.09a2 2 0 0 1-1.17.36 2.06 2.06 0 0 1 0-4.12 2 2 0 0 1 1.17.36.09.09 0 0 0 .05 0 .39.39 0 0 1 .73.18v3.27a1.94 1.94 0 0 1-1.98 2.02zm0-5.08a1.3 1.3 0 1 0 1.23 1.3 1.19 1.19 0 0 0-1.23-1.3zm8.1 3.4a2 2 0 0 1-2-2.07v-3.46a.35.35 0 0 1 .38-.34.34.34 0 0 1 .38.34v3.44a1.2 1.2 0 0 0 1.24 1.31.36.36 0 0 1 .35.38.36.36 0 0 1-.35.4zM60 58a2.07 2.07 0 0 1 0-4.13 2.07 2.07 0 0 1 1.17.36h.06a.36.36 0 0 1 .33-.2.38.38 0 0 1 .4.37v3.13a.38.38 0 0 1-.4.37.35.35 0 0 1-.33-.21h-.06A2.07 2.07 0 0 1 60 58zm0-3.37a1.31 1.31 0 1 0 1.24 1.3A1.19 1.19 0 0 0 60 54.6zm6.68 3.21a.35.35 0 0 1-.38-.34v-1.59a1.24 1.24 0 1 0-2.48 0v1.6a.38.38 0 0 1-.76 0v-3.16a.38.38 0 0 1 .38-.38.35.35 0 0 1 .35.21h.05a2.07 2.07 0 0 1 1.17-.36 2 2 0 0 1 2 2.06v1.6a.35.35 0 0 1-.33.36zm3.12 1.84a2 2 0 0 1-.86-.18.32.32 0 0 1-.18-.2.35.35 0 0 1 0-.28.35.35 0 0 1 .46-.22 1.33 1.33 0 0 0 .55.12A1.18 1.18 0 0 0 71 57.7v-.09a2 2 0 0 1-1.2.39 2.06 2.06 0 0 1 0-4.12 2.05 2.05 0 0 1 1.2.32.35.35 0 0 1 .35-.2.37.37 0 0 1 .38.38v3.27a1.94 1.94 0 0 1-1.93 2.03zm0-5.08a1.3 1.3 0 1 0 1.2 1.3 1.19 1.19 0 0 0-1.2-1.3zm4.93 3.4a2 2 0 0 1-2-2.06v-1.6a.38.38 0 0 1 .76 0v1.6a1.24 1.24 0 1 0 2.48 0v-1.6a.38.38 0 0 1 .76 0v3.15a.38.38 0 0 1-.38.38.35.35 0 0 1-.35-.21.06.06 0 0 0-.06 0 2 2 0 0 1-1.21.34zm4.82 0a2.07 2.07 0 0 1 0-4.13 2.13 2.13 0 0 1 1.18.36.36.36 0 0 1 .34-.2.37.37 0 0 1 .39.37v3.13a.37.37 0 0 1-.39.37.37.37 0 0 1-.34-.21 2.07 2.07 0 0 1-1.18.31zm0-3.37a1.31 1.31 0 1 0 1.24 1.3 1.19 1.19 0 0 0-1.24-1.33zm4.83 5.05a2 2 0 0 1-.86-.18.32.32 0 0 1-.18-.2.35.35 0 0 1 0-.28.36.36 0 0 1 .46-.22 1.33 1.33 0 0 0 .55.12 1.18 1.18 0 0 0 1.24-1.22v-.09a2 2 0 0 1-1.18.36 2.06 2.06 0 0 1 0-4.12 2 2 0 0 1 1.18.36.09.09 0 0 0 .05 0A.35.35 0 0 1 86 54a.37.37 0 0 1 .38.38v3.27a1.94 1.94 0 0 1-2 2.03zm0-5.08a1.3 1.3 0 1 0 1.24 1.3 1.18 1.18 0 0 0-1.24-1.3zm4.85 3.4a2.07 2.07 0 1 1 2-2.08.41.41 0 0 1-.32.39l-2.69.43a1.19 1.19 0 0 0 1 .5 1.26 1.26 0 0 0 .55-.12.35.35 0 0 1 .48.21.36.36 0 0 1-.17.49 2 2 0 0 1-.85.18zm0-3.37a1.19 1.19 0 0 0-1.23 1.3V56l2.45-.39a1.18 1.18 0 0 0-1.22-.98z" class="cls-1"/><path d="M27.11 19.12c-.15 0-.26-.18-.31-.28a14.81 14.81 0 0 1-.88-2.09 5.15 5.15 0 0 1 .23-2.69 18.79 18.79 0 0 1 1.3-2.63c.31-.51.67-.75.88-.75 0 0 .1 0 .19.12.5.63 1.07 1.33 1.7 2.08a2.48 2.48 0 0 1-.29 2.84c-.78 1-1.51 2-2.16 2.89-.26.39-.52.51-.66.51zm4.95-6.81a1 1 0 0 1-.76-.31c-.62-.73-1.18-1.42-1.68-2.06-.3-.38-.14-1.39.57-2.19a24.92 24.92 0 0 1 2.41-2.43 2.66 2.66 0 0 1 1.66-.71.87.87 0 0 1 .54.15c.63.49 1.32 1.06 2.05 1.67a.92.92 0 0 1 .32.71 2.16 2.16 0 0 1-.74 1.55c-1 .93-1.94 1.9-2.87 2.88a2.2 2.2 0 0 1-1.5.74zm6.76-6.63a1.65 1.65 0 0 1-1.07-.32c-.74-.63-1.44-1.2-2.09-1.71a.24.24 0 0 1-.11-.21 1.36 1.36 0 0 1 .74-.85 18 18 0 0 1 2.65-1.31A5.73 5.73 0 0 1 40.81 1a3.15 3.15 0 0 1 .82.09 15.93 15.93 0 0 1 2.07.88c.1.05.27.15.28.29s-.11.41-.51.69c-.93.64-1.9 1.36-2.88 2.15a2.89 2.89 0 0 1-1.77.58zm6.92-4.46a3.41 3.41 0 0 1-1.53-.31c-.21-.1-.42-.21-.63-.3a.27.27 0 0 1-.15-.29.26.26 0 0 1 .23-.21l.83-.11h3.36a.27.27 0 0 1 .24.22.26.26 0 0 1-.15.28l-.66.32a3.46 3.46 0 0 1-1.54.4z" class="cls-2"/><path d="M45.84 41.75h-1.33l-.84-.06a.27.27 0 0 1-.24-.22.26.26 0 0 1 .15-.28l.65-.32a3.46 3.46 0 0 1 1.54-.31 3.55 3.55 0 0 1 1.53.31l.64.31a.26.26 0 0 1 .15.28.27.27 0 0 1-.24.22l-.83.07c-.35-.01-.75 0-1.18 0z" class="cls-3"/><path d="M25.19 23.18A.26.26 0 0 1 25 23c0-.26 0-.54-.07-.83a21 21 0 0 1 0-2.51c0-.34 0-.6.06-.85a.27.27 0 0 1 .22-.24.27.27 0 0 1 .24.15c.1.22.21.44.32.66a4 4 0 0 1 0 3.07c-.11.21-.21.42-.31.63a.25.25 0 0 1-.24.16z" class="cls-2"/><path d="M66.27 23.19A.25.25 0 0 1 66 23l-.32-.65a3.94 3.94 0 0 1 0-3.07c.1-.22.21-.43.3-.64a.28.28 0 0 1 .24-.15.27.27 0 0 1 .21.24c0 .26 0 .53.07.82a21.12 21.12 0 0 1 0 2.52v.84a.27.27 0 0 1-.22.24z" class="cls-3"/><path fill="#319fe0" d="M28.32 31.07c-.2 0-.56-.23-.86-.74a17.1 17.1 0 0 1-1.31-2.65 5.14 5.14 0 0 1-.23-2.68 14.58 14.58 0 0 1 .88-2.06c.05-.12.16-.29.31-.29s.4.13.66.51c.64.93 1.37 1.9 2.16 2.88a2.5 2.5 0 0 1 .3 2.84c-.64.76-1.22 1.46-1.71 2.09a.23.23 0 0 1-.2.1zm3.96-5.24a1.67 1.67 0 0 1-1.28-.67c-.76-1-1.47-1.9-2.1-2.81a2.82 2.82 0 0 1 0-3c.62-.9 1.32-1.84 2.09-2.8a1.64 1.64 0 0 1 1.26-.67 1.36 1.36 0 0 1 1 .48c.82.91 1.71 1.86 2.63 2.85a2.43 2.43 0 0 1 0 3.23c-.93 1-1.81 2-2.63 2.86a1.39 1.39 0 0 1-.97.53zm6.15-6.9A2 2 0 0 1 37 18.3c-.92-1-1.79-1.93-2.61-2.83a2.21 2.21 0 0 1 .23-2.94c.91-1 1.86-1.91 2.82-2.82A2.45 2.45 0 0 1 39.07 9a1.89 1.89 0 0 1 1.27.46c.9.82 1.85 1.69 2.83 2.62a2 2 0 0 1 .63 1.43 2.3 2.3 0 0 1-.69 1.64c-1 1-2.06 2-3.07 3.07a2.23 2.23 0 0 1-1.61.71zm7.31-7.24a2.35 2.35 0 0 1-1.61-.61c-1-.93-2-1.81-2.86-2.64a1.4 1.4 0 0 1-.48-1.07 1.65 1.65 0 0 1 .67-1.21c1-.77 1.9-1.48 2.81-2.1a2.64 2.64 0 0 1 1.47-.42 2.71 2.71 0 0 1 1.49.42c.9.62 1.84 1.33 2.8 2.1a1.61 1.61 0 0 1 .66 1.21 1.34 1.34 0 0 1-.48 1.07l-2.85 2.63a2.32 2.32 0 0 1-1.62.62zm6.93-6.01a2.84 2.84 0 0 1-1.76-.62c-1-.79-2-1.51-2.89-2.16-.4-.27-.53-.54-.52-.68s.18-.24.28-.29a15.62 15.62 0 0 1 2.1-.88 2.84 2.84 0 0 1 .8-.09 5.89 5.89 0 0 1 1.88.32 17.85 17.85 0 0 1 2.63 1.31 1.38 1.38 0 0 1 .75.85c0 .06 0 .12-.12.21-.63.5-1.33 1.08-2.08 1.71a1.7 1.7 0 0 1-1.07.32z"/><path d="M34.26 37.15a2.71 2.71 0 0 1-1.66-.71A29.09 29.09 0 0 1 30.18 34a2.06 2.06 0 0 1-.56-2.2c.48-.61 1.05-1.3 1.67-2.05a1 1 0 0 1 .77-.32 2.16 2.16 0 0 1 1.5.74c.93 1 1.9 1.95 2.87 2.87a2.16 2.16 0 0 1 .74 1.55 1 1 0 0 1-.32.71c-.75.63-1.44 1.2-2.06 1.68a.88.88 0 0 1-.53.17zm4.81-4.42A2.45 2.45 0 0 1 37.4 32c-1-.9-1.9-1.85-2.82-2.82a2.21 2.21 0 0 1-.23-2.94c.82-.9 1.69-1.85 2.61-2.83a2 2 0 0 1 1.47-.63 2.28 2.28 0 0 1 1.61.69c1 1 2 2.06 3.07 3.07a2.3 2.3 0 0 1 .69 1.64 2 2 0 0 1-.63 1.44c-1 .92-1.93 1.79-2.84 2.61a1.84 1.84 0 0 1-1.26.5zm6.67-6.47a2.36 2.36 0 0 1-1.65-.67c-1-1-2.05-2-3.06-3.06a2.38 2.38 0 0 1 0-3.31c1-1 2-2 3.05-3a2.35 2.35 0 0 1 3.31 0c1 1 2.05 2 3.05 3a2.37 2.37 0 0 1 0 3.31c-1 1-2 2-3.05 3.06a2.38 2.38 0 0 1-1.65.67zm7.31-7.33a2.23 2.23 0 0 1-1.6-.69c-1-1-2-2.06-3.07-3.07a2.26 2.26 0 0 1-.69-1.63 2 2 0 0 1 .63-1.44c1-.93 1.93-1.8 2.83-2.62A1.86 1.86 0 0 1 52.41 9a2.46 2.46 0 0 1 1.68.69c1 .91 1.91 1.86 2.82 2.82a2.21 2.21 0 0 1 .23 2.94c-.82.9-1.7 1.85-2.61 2.83a2 2 0 0 1-1.48.65zm6.38-6.62a2.2 2.2 0 0 1-1.5-.74c-.93-1-1.89-2-2.88-2.88a2.16 2.16 0 0 1-.74-1.55.94.94 0 0 1 .33-.71c.72-.61 1.41-1.17 2.06-1.68a.86.86 0 0 1 .53-.14 2.68 2.68 0 0 1 1.66.71 26.1 26.1 0 0 1 2.41 2.41c.71.8.87 1.81.56 2.2-.5.64-1.06 1.33-1.67 2.05a1 1 0 0 1-.76.33z" class="cls-1"/><path fill="#7870ee" d="M40.81 40.79a5.62 5.62 0 0 1-1.88-.32 18.79 18.79 0 0 1-2.63-1.3 1.36 1.36 0 0 1-.75-.86.24.24 0 0 1 .11-.21c.63-.49 1.33-1.07 2.09-1.7a1.65 1.65 0 0 1 1.07-.33 2.86 2.86 0 0 1 1.76.62c1 .79 2 1.51 2.89 2.16.4.28.52.54.51.68s-.18.24-.28.29a13.89 13.89 0 0 1-2.09.88 2.89 2.89 0 0 1-.8.09zm4.93-2.68a2.68 2.68 0 0 1-1.48-.42c-.9-.62-1.84-1.33-2.8-2.09a1.69 1.69 0 0 1-.67-1.21 1.39 1.39 0 0 1 .49-1.08c.9-.82 1.86-1.7 2.85-2.63a2.41 2.41 0 0 1 3.23 0c1 .93 1.94 1.81 2.85 2.63a1.34 1.34 0 0 1 .48 1.08A1.64 1.64 0 0 1 50 35.6c-1 .76-1.9 1.47-2.81 2.1a2.73 2.73 0 0 1-1.45.41zm6.67-5.38a1.86 1.86 0 0 1-1.26-.46c-.9-.82-1.85-1.69-2.83-2.61a2 2 0 0 1-.63-1.44 2.26 2.26 0 0 1 .69-1.64c1-1 2.06-2 3.07-3.07a2.28 2.28 0 0 1 1.61-.69 2 2 0 0 1 1.46.63c.93 1 1.8 1.93 2.62 2.84a2.2 2.2 0 0 1-.23 2.93c-.91 1-1.86 1.91-2.82 2.82a2.46 2.46 0 0 1-1.68.69zm6.8-6.9a1.38 1.38 0 0 1-1-.48c-.83-.91-1.71-1.87-2.63-2.86a2.43 2.43 0 0 1 0-3.23c.92-1 1.81-1.94 2.63-2.85a1.34 1.34 0 0 1 1-.48 1.62 1.62 0 0 1 1.25.66c.77 1 1.48 1.91 2.1 2.81a2.82 2.82 0 0 1 0 3c-.62.9-1.33 1.84-2.09 2.8a1.67 1.67 0 0 1-1.26.63zm5.17-6.71c-.14 0-.4-.14-.67-.52-.64-.93-1.36-1.9-2.15-2.88a2.47 2.47 0 0 1-.3-2.83c.63-.75 1.21-1.45 1.71-2.1.09-.11.16-.11.19-.11.21 0 .57.24.87.75a17.1 17.1 0 0 1 1.31 2.65 5.1 5.1 0 0 1 .23 2.68 15.93 15.93 0 0 1-.88 2.07c-.05.11-.16.29-.31.29z"/><path d="M50.68 40.79a3.1 3.1 0 0 1-.82-.09 15.76 15.76 0 0 1-2.07-.87c-.11-.06-.27-.16-.29-.3s.12-.4.52-.68c.92-.64 1.89-1.37 2.88-2.16a2.89 2.89 0 0 1 1.77-.62 1.65 1.65 0 0 1 1.06.32c.75.63 1.45 1.21 2.1 1.72a.22.22 0 0 1 .11.2 1.36 1.36 0 0 1-.75.86 18.35 18.35 0 0 1-2.64 1.3 5.52 5.52 0 0 1-1.87.32zm6.55-3.64a.94.94 0 0 1-.54-.15c-.62-.49-1.31-1-2-1.67a1 1 0 0 1-.32-.72 2.14 2.14 0 0 1 .73-1.55c1-.93 2-1.9 2.88-2.87a2.16 2.16 0 0 1 1.5-.74.94.94 0 0 1 .76.32c.62.74 1.19 1.43 1.68 2.06.3.39.14 1.39-.57 2.2a28.85 28.85 0 0 1-2.41 2.41 2.74 2.74 0 0 1-1.71.71zm5.93-6.08s-.1 0-.19-.11c-.5-.64-1.07-1.34-1.71-2.09a2.47 2.47 0 0 1 .3-2.83c.78-1 1.51-2 2.16-2.89.26-.38.52-.51.66-.51s.26.17.31.28a15 15 0 0 1 .88 2.08 5.12 5.12 0 0 1-.23 2.68A17.85 17.85 0 0 1 64 30.32c-.27.52-.63.75-.84.75z" class="cls-3"/></g></g></svg>