<svg xmlns="http://www.w3.org/2000/svg" role="img" viewBox="0.18 2.81 149.76 159.51"><title>OpenDisplayCalib logo</title><defs><style>.cls-2{fill:#ae4535}.cls-4{fill:#fff}.cls-6{fill:#00e72c}.cls-8{fill:#211d20}.cls-9{fill:#99f}</style></defs><circle cx="75.682" cy="40.106" r="31.378" fill="#91c1fe"/><path d="M75.682 74.234a34.128 34.128 0 1 1 34.128-34.129 34.167 34.167 0 0 1-34.128 34.129zm0-62.757a28.628 28.628 0 1 0 28.628 28.628 28.66 28.66 0 0 0-28.628-28.628z"/><path d="M71.597 36.073l-4.075.94 4.749-3.635-3.671-1.171 7.592-2.504-4.595-3.454 9.317-.526-.768-4.741 7.007.613h1.036L71.597 36.073z"/><path d="M98.08 42.69s0 8.52-.443 9.31-8.683.849-8.683.849l-.51 9.655s-4.43-3.473-6.694-4.228c-3.855-1.283-15.7.675-15.7.675s3.483-4.134 4.162-5.995c.508-1.39.436-5.921.436-5.921l.074-4.59s8.567-8.249 11.546-10.731c4.44-3.7 11.275-4.737 11.275-4.737s2.928 4.342 4.31 6.908 3.124 7.533 1.743 8.323-4.771 1.108-4.969-.274-.197-1.585-.197-1.585" class="cls-2"/><path d="M88.78 63.244l-.568-.445c-.044-.034-4.404-3.442-6.58-4.167-3.722-1.24-15.403.67-15.52.69l-1.003.165.654-.778c.035-.04 3.448-4.104 4.097-5.881a26.358 26.358 0 0 0 .413-5.788l.077-4.756.112-.108c.085-.083 8.61-8.288 11.566-10.75 4.47-3.725 11.175-4.777 11.458-4.82l.235-.035.132.196c.03.044 2.955 4.388 4.33 6.94.796 1.478 3.58 7.694 1.6 8.826a5.367 5.367 0 0 1-1.328.502c-.004 2.342-.058 8.378-.492 9.15-.441.784-4.868.998-8.654 1.036zm-11.076-5.78a14.368 14.368 0 0 1 4.164.456c1.835.612 4.958 2.886 6.239 3.853l.491-9.297.353-.003c3.673-.026 7.923-.298 8.384-.692a63.476 63.476 0 0 0 .37-8.599 4.948 4.948 0 0 1-2.676-.22 1.272 1.272 0 0 1-.773-.975c-.148-1.038-.2-1.527-.2-1.639h.75c0 .002.01.25.192 1.533.01.062.037.25.36.408a5.673 5.673 0 0 0 4.052-.407c.939-.537-.273-4.82-1.887-7.82-1.19-2.207-3.567-5.792-4.156-6.674-1.226.22-7.007 1.404-10.859 4.614-2.75 2.292-10.394 9.626-11.414 10.606l-.071 4.432c.003.176.067 4.605-.458 6.044a27.347 27.347 0 0 1-3.6 5.345 81.681 81.681 0 0 1 10.74-.964z"/><path fill="#f60" d="M71.597 36.073s6.596-9.032 11.315-11.479a32.241 32.241 0 0 1 6.65-2.83 3.75 3.75 0 0 1 2.328.032c2.146.814 2.319 5.18 2.319 5.18s-6.785 1.862-9.961 4.004a40.289 40.289 0 0 0-5.997 5.447l-6.144-.354z"/><path d="M78.41 36.811l-6.325-.363H70.86l.435-.596c.272-.372 6.703-9.132 11.445-11.59a32.512 32.512 0 0 1 6.734-2.863 4.089 4.089 0 0 1 2.55.046c2.351.892 2.553 5.329 2.56 5.517l.012.298-.287.079c-.067.018-6.762 1.87-9.85 3.952a40.187 40.187 0 0 0-5.928 5.386zm-6.073-1.1l5.756.33a39.33 39.33 0 0 1 5.945-5.372c2.851-1.922 8.422-3.584 9.778-3.971-.106-1.31-.61-4.002-2.059-4.552a3.369 3.369 0 0 0-2.104-.02 31.928 31.928 0 0 0-6.569 2.802c-3.898 2.021-9.203 8.754-10.747 10.783z"/><path d="M80.044 16.19a48.018 48.018 0 0 0-9.47-1.072c-2.207.01-3.895.053-3.895.053s4.605 5.354 8.922 6.22 9.815 1.957 9.815 1.957l3.446-1.383a30.72 30.72 0 0 0-2.877-2.91 19.89 19.89 0 0 0-5.94-2.865z" class="cls-4"/><path d="M85.452 23.738l-.11-.022s-5.497-1.09-9.815-1.957c-4.393-.882-8.94-6.121-9.132-6.344l-.516-.6.79-.02s1.692-.042 3.903-.052a49.048 49.048 0 0 1 9.565 1.084 20.195 20.195 0 0 1 6.085 2.936 30.744 30.744 0 0 1 2.923 2.957l.345.397zm-17.937-8.21c1.335 1.406 4.87 4.835 8.16 5.496 3.96.795 8.911 1.777 9.704 1.934l2.849-1.142a26.537 26.537 0 0 0-2.479-2.47 19.561 19.561 0 0 0-5.797-2.792 49.024 49.024 0 0 0-9.376-1.061 212.26 212.26 0 0 0-3.061.035z"/><path d="M71.129 16.652c.127.86 1.677 2.307 2.85 3.33.747.654 1.502.95 1.113 1.41-.596.7-8.413-5.966-8.413-5.966l6.609-.236s-2.335.278-2.16 1.462zM86.728 29.65s.943 1.028.87 3.988-1.103 7.846-2.51 9.918a55.632 55.632 0 0 1-4.152 5.033l.666 1.184-.666.888s1.628 1.777 2.738 2.887 4.088 3.874 4.606 5.947.88 3.914.88 3.914-6.257.51-9.014-3.627a37.976 37.976 0 0 1-3.133-6.234l-2.023-.296v-2.665a4.241 4.241 0 0 1-2.418-.592 11.94 11.94 0 0 0-2.443-1.036l.593-6.513z"/><path d="M88.453 63.807c-1.783 0-6.315-.36-8.62-3.817a37.275 37.275 0 0 1-3.09-6.102l-2.128-.312v-2.604a4.988 4.988 0 0 1-2.225-.648 11.704 11.704 0 0 0-2.357-1.002l-.305-.082.635-6.988 16.404-13.114.237.258c.043.046 1.045 1.175.968 4.251-.078 3.109-1.153 8.029-2.572 10.12a52.686 52.686 0 0 1-4.004 4.875l.652 1.16-.625.835c.476.515 1.658 1.789 2.517 2.646l.363.36c1.345 1.322 3.847 3.784 4.34 5.76.516 2.058.88 3.915.885 3.934l.08.412-.418.034c-.05.004-.318.024-.737.024zm-13.088-10.88l1.92.282.078.204a37.923 37.923 0 0 0 3.095 6.161c2.195 3.293 6.818 3.5 8.246 3.477a90.392 90.392 0 0 0-.789-3.466c-.442-1.771-2.938-4.228-4.138-5.408l-.367-.364c-1.104-1.103-2.734-2.88-2.75-2.898l-.21-.23.706-.941-.681-1.21.186-.2a55.72 55.72 0 0 0 4.118-4.988c1.307-1.927 2.368-6.72 2.443-9.717a7.088 7.088 0 0 0-.585-3.427L71.081 42.639l-.55 6.05a13.068 13.068 0 0 1 2.223.979 3.976 3.976 0 0 0 2.187.548l.422-.054z"/><path d="M96.423 33.078a5.14 5.14 0 0 0-1.957.681c-.311.22-.66.587-1.141.999a7.582 7.582 0 0 1-1.052.791l1.467-.06 2.836.193z" class="cls-4"/><path d="M96.975 36.084l-3.26-.22-2.964.122 1.337-.763a7.564 7.564 0 0 0 .992-.75c.189-.162.358-.317.511-.458a7.117 7.117 0 0 1 .66-.562 5.478 5.478 0 0 1 2.125-.748l.398-.05zm-3.251-.969l2.452.164-.102-1.757a4.074 4.074 0 0 0-1.392.544 6.333 6.333 0 0 0-.583.501c-.16.147-.334.307-.53.475l-.098.083z"/><path d="M73.567 20.351a37.263 37.263 0 0 0-9.574.43 24.441 24.441 0 0 0-3.897.925s5.84 4.184 10.242 4.55c4.389.366 7.833.285 10.576-.533a9.941 9.941 0 0 0 1.66-.981 7.535 7.535 0 0 0-2.155-2.045 27.718 27.718 0 0 0-6.852-2.346z" class="cls-4"/><path d="M74.795 26.84a54.31 54.31 0 0 1-4.488-.21c-4.455-.371-10.187-4.446-10.43-4.619l-.589-.422.685-.237a24.573 24.573 0 0 1 3.963-.941 38.239 38.239 0 0 1 9.692-.43 28.258 28.258 0 0 1 6.982 2.393 7.88 7.88 0 0 1 2.276 2.16l.201.303-.297.21a9.614 9.614 0 0 1-1.768 1.035 21.671 21.671 0 0 1-6.227.757zm-13.843-5.006c1.619 1.07 6.003 3.765 9.418 4.05 4.7.39 7.92.23 10.437-.52a6.987 6.987 0 0 0 1.233-.71 6.996 6.996 0 0 0-1.813-1.634 27.177 27.177 0 0 0-6.72-2.299 37.643 37.643 0 0 0-9.458.431 25.059 25.059 0 0 0-3.097.682z"/><path d="M65.969 22.824c.251.831.791 1.433 2.1 2.275.835.537 1.963.64 1.644 1.15-.487.78-9.566-4.339-9.566-4.339l9.686-1.923s-4.21 1.69-3.864 2.837z"/><path d="M66.509 26.25a50.918 50.918 0 0 0-9.498 1.307 24.441 24.441 0 0 0-3.802 1.258s6.15 3.697 10.551 3.546a36.144 36.144 0 0 0 9.601-1.496 22.85 22.85 0 0 0 3.799-2.03 33.185 33.185 0 0 0-4.223-1.807 30.914 30.914 0 0 0-6.428-.778z" class="cls-4"/><path d="M63.492 32.74c-4.43 0-10.226-3.454-10.476-3.604l-.616-.37.656-.293a24.67 24.67 0 0 1 3.867-1.28 53.154 53.154 0 0 1 9.592-1.318 31.475 31.475 0 0 1 6.523.792A33.003 33.003 0 0 1 77.33 28.5l.582.295-.548.354a22.641 22.641 0 0 1-3.9 2.077 36.27 36.27 0 0 1-9.69 1.51q-.14.004-.281.004zm-9.423-3.87c1.693.928 6.262 3.235 9.678 3.116a35.608 35.608 0 0 0 9.514-1.482 17.617 17.617 0 0 0 3.13-1.63 27.156 27.156 0 0 0-3.555-1.484 30.592 30.592 0 0 0-6.333-.765 52.415 52.415 0 0 0-9.404 1.297 24.984 24.984 0 0 0-3.03.948z"/><path d="M58.924 28.921a5.41 5.41 0 0 0 2.522 2.584c.878.464 1.681.579 1.408 1.115-.418.819-9.576-3.606-9.576-3.606l3.64-1.359 4.853-.978s-3.29 1.132-2.847 2.244z"/><path d="M61.715 32.916a50.916 50.916 0 0 0-8.606 4.224 24.44 24.44 0 0 0-3.215 2.388s7.746 1.466 11.877-.06 6.63-2.344 9.07-4.573c.367-.336 1.43-1.517 1.43-1.517a16.662 16.662 0 0 0-3.671-1.17 21.89 21.89 0 0 0-6.885.708z" class="cls-4"/><path d="M56.693 40.541a41.474 41.474 0 0 1-6.868-.644l-.739-.14.555-.505a24.52 24.52 0 0 1 3.27-2.43 51.026 51.026 0 0 1 8.692-4.264 22.398 22.398 0 0 1 7.045-.723 16.794 16.794 0 0 1 3.777 1.202l.468.21-.344.382c-.044.05-1.08 1.199-1.456 1.543-2.321 2.121-4.716 3.002-8.34 4.334l-.852.314a15.703 15.703 0 0 1-5.208.721zm-5.942-1.25c2.06.319 7.663 1.018 10.89-.174l.853-.314c3.667-1.35 5.88-2.163 8.093-4.185.219-.2.711-.73 1.051-1.102a14.275 14.275 0 0 0-3.086-.937 21.713 21.713 0 0 0-6.724.695 51.004 51.004 0 0 0-8.521 4.184 25.049 25.049 0 0 0-2.556 1.833z"/><path d="M55.207 38.079a5.854 5.854 0 0 0 3.352 1.417c.98.164 2.064.15 2.213.434.426.814-10.75-.234-10.75-.234l5.115-3.734a1.968 1.968 0 0 0 .07 2.117z"/><path d="M72.107 36.073c-2.866.251-8.696 3.273-10.443 4.504a42.207 42.207 0 0 0-6.885 6.492 23.083 23.083 0 0 0-2.874 5.027s7.694-1.053 11.544-4.075 6.938-5.717 8.622-8.415" class="cls-4"/><path d="M51.31 52.556l.248-.603a23.129 23.129 0 0 1 2.935-5.125 42.734 42.734 0 0 1 6.956-6.557c1.8-1.27 7.681-4.314 10.625-4.571l.066.747c-2.772.242-8.559 3.237-10.26 4.437a41.892 41.892 0 0 0-6.813 6.426 20.784 20.784 0 0 0-2.542 4.307c1.942-.334 7.622-1.48 10.692-3.891 3.405-2.673 6.796-5.531 8.535-8.319l.637.398c-1.7 2.724-4.71 5.373-8.709 8.51-3.885 3.05-11.406 4.11-11.725 4.153z"/><path d="M56.906 48.28a3.513 3.513 0 0 0 3.314 1.16c1.1-.157 1.423-.925 1.546-.456.262.997-9.798 3.276-9.798 3.276a32.025 32.025 0 0 1 1.956-3.968c.638-.905 2.958-3.606 2.958-3.606s-.573 2.991.024 3.594z"/><path d="M63.35 49.596a27.54 27.54 0 0 0-2.474 7.624 33.904 33.904 0 0 0-.426 3.563s5.785-4.036 7.267-7.406a30.337 30.337 0 0 0 2.64-8.127c.064-.41.143-2.73.143-2.73s-2.13 1.656-3.228 2.452a22.975 22.975 0 0 0-3.921 4.624z" class="cls-4"/><path d="M60.032 61.533l.045-.771a33.886 33.886 0 0 1 .43-3.608 27.553 27.553 0 0 1 2.533-7.768 23.186 23.186 0 0 1 4.013-4.718c1.078-.783 3.195-2.428 3.216-2.444l.632-.491-.027.8c-.007.24-.08 2.356-.147 2.775a30.987 30.987 0 0 1-2.667 8.22c-1.507 3.427-7.155 7.395-7.395 7.563zm10.063-18.226c-.72.555-1.886 1.448-2.601 1.968a22.513 22.513 0 0 0-3.832 4.53 27.287 27.287 0 0 0-2.416 7.482 32.57 32.57 0 0 0-.358 2.711c1.54-1.155 5.354-4.198 6.486-6.772a29.98 29.98 0 0 0 2.613-8.034c.033-.21.075-1.075.108-1.885z"/><path d="M62.908 55.892a5.33 5.33 0 0 0 3.373-.642c.738-.494.198-.526.578-.127.58.61-6.918 6.17-6.918 6.17l.697-3.312 1.037-4.358s.073 2.202 1.233 2.269z"/><path d="M80.146 40.349a5.157 5.157 0 1 1-5.156-5.157 5.156 5.156 0 0 1 5.156 5.157z" class="cls-4"/><path d="M74.99 45.88a5.531 5.531 0 1 1 5.53-5.531 5.538 5.538 0 0 1-5.53 5.531zm0-10.313a4.781 4.781 0 1 0 4.78 4.782 4.757 4.757 0 0 0-4.78-4.782z"/><path d="M76.14 50.492c.937-1.054 3.468-2.758 4.745-2.158.307.145.758.807.666 1.133-.404 1.43-3.673 3.358-5.099 3.775a1.513 1.513 0 0 1-1.513-.296c-.454-.559.724-1.915 1.202-2.454z" class="cls-4"/><path d="M75.91 53.818a1.72 1.72 0 0 1-1.36-.557c-.651-.802.308-2.078 1.217-3.1.883-.994 3.67-3.059 5.33-2.28a1.824 1.824 0 0 1 .936 1.722c-.485 1.714-4.016 3.702-5.44 4.119a2.457 2.457 0 0 1-.683.096zm4.357-5.11a6.81 6.81 0 0 0-3.752 2.117c-1.238 1.392-1.187 1.786-1.177 1.826a1.108 1.108 0 0 0 .974.111c1.516-.444 4.44-2.307 4.758-3.43a1.332 1.332 0 0 0-.4-.546.944.944 0 0 0-.403-.078zm13.609-1.722a5.97 5.97 0 0 1-2.409-.364 11.142 11.142 0 0 1-1.434-1.17l.507-.552a11.384 11.384 0 0 0 1.261 1.05c1.109.551 4.546.161 5.778-.034l.083-.011.043-1.848.75.018-.058 2.49-.711.093a27.254 27.254 0 0 1-3.81.328z"/><circle cx="39.669" cy="101.188" r="31.378" fill="#e70034"/><path d="M39.668 135.316a34.128 34.128 0 1 1 34.128-34.128 34.166 34.166 0 0 1-34.128 34.128zm0-62.756a28.628 28.628 0 1 0 28.628 28.628A28.66 28.66 0 0 0 39.668 72.56z"/><path d="M57.158 102.673s.12 8.092-.444 8.8c-1.7 2.133-8.683.85-8.683.85l-.51 9.655a58.04 58.04 0 0 0-6.694-3.209c-3.855-1.284-15.7-.345-15.7-.345s3.483-4.134 4.162-5.995c.508-1.39.436-5.92.436-5.92l.074-4.59s6.963-12.887 9.942-15.37a17.7 17.7 0 0 1 8.496-4.144s7 6.054 8.693 10.444c1.048 2.719 3.634 8.552 2.253 9.342s-5.281.598-5.479-.783-.197-1.586-.197-1.586" class="cls-2"/><path d="M47.865 122.597l-.525-.291a57.897 57.897 0 0 0-6.632-3.18c-3.739-1.246-15.433-.337-15.551-.327l-.895.07.578-.686c.035-.04 3.448-4.105 4.097-5.882a26.351 26.351 0 0 0 .413-5.787l.12-4.773c.285-.529 7.031-12.98 10.03-15.48a17.93 17.93 0 0 1 8.696-4.228l.163-.019.123.107c.289.25 7.09 6.167 8.798 10.593.136.354.3.762.476 1.205 1.695 4.24 2.985 7.813 1.613 8.597a4.7 4.7 0 0 1-1.832.478c.033 2.626.03 8.01-.529 8.713-1.585 1.988-7.048 1.3-8.625 1.054zm-14.382-4.882a28.2 28.2 0 0 1 7.462.698 51.24 51.24 0 0 1 6.234 2.95l.5-9.487.419.077c1.882.345 7.045.891 8.323-.713.287-.469.41-4.481.366-8.214a6.132 6.132 0 0 1-2.516-.472 1.476 1.476 0 0 1-.938-1.093c-.148-1.038-.2-1.528-.2-1.639h.75c0 .002.01.25.193 1.532.034.24.304.418.524.526a6.146 6.146 0 0 0 4.396-.015c.917-.524-1.082-5.53-1.936-7.668-.178-.446-.342-.856-.48-1.214-1.516-3.93-7.505-9.337-8.46-10.182a17.988 17.988 0 0 0-8.14 4.037c-2.769 2.307-9.213 14.087-9.808 15.18l-.072 4.496c.003.176.067 4.605-.458 6.044a27.902 27.902 0 0 1-3.669 5.43c1.45-.098 4.466-.273 7.51-.273z"/><path d="M56.01 92.449a5.14 5.14 0 0 0-1.957.682c-.312.22-.661.586-1.141.998-.675.58-1.052.894-1.052.894l1.467-.06 2.886.09z" class="cls-4"/><path d="M50.772 95.442l.848-.707c0-.001.377-.314 1.047-.89.189-.163.358-.317.511-.458a7.117 7.117 0 0 1 .66-.562 5.476 5.476 0 0 1 2.124-.748l.39-.05.268 3.414-3.305-.103zm2.539-.853l2.496.076-.14-1.773a4.092 4.092 0 0 0-1.398.545 6.334 6.334 0 0 0-.583.502c-.16.146-.334.307-.53.475l-.222.19z"/><path d="M40.243 100.332a5.157 5.157 0 1 1-5.157-5.156 5.156 5.156 0 0 1 5.157 5.156z" class="cls-4"/><path d="M35.086 105.863a5.531 5.531 0 1 1 5.532-5.531 5.538 5.538 0 0 1-5.532 5.531zm0-10.312a4.781 4.781 0 1 0 4.782 4.78 4.757 4.757 0 0 0-4.782-4.78z"/><path d="M36.237 110.475c.937-1.054 3.468-2.758 4.744-2.158.307.145.758.807.666 1.134-.403 1.43-3.673 3.357-5.098 3.774a1.513 1.513 0 0 1-1.514-.296c-.454-.558.724-1.915 1.202-2.454z" class="cls-4"/><path d="M36.007 113.8a1.722 1.722 0 0 1-1.36-.556c-.647-.796.252-2.014 1.216-3.1.883-.994 3.67-3.059 5.33-2.28a1.821 1.821 0 0 1 .935 1.723c-.483 1.712-4.014 3.701-5.438 4.118a2.474 2.474 0 0 1-.683.096zm.604-2.993c-1.238 1.394-1.186 1.787-1.176 1.827a1.116 1.116 0 0 0 .974.111c1.516-.444 4.44-2.307 4.756-3.43a1.33 1.33 0 0 0-.399-.546c-.895-.42-3.19.952-4.155 2.038zm20.903-3.554l-.946-1.092c-.991.147-4.636.624-6.024-.065a11.61 11.61 0 0 1-1.434-1.17l.508-.553a11.503 11.503 0 0 0 1.261 1.051c1.106.552 4.545.161 5.778-.034l.142-.023.034-1.835.75.014z"/><path d="M41.66 82.405s2.428 1.823 2.87 2.08c.454.264-.575.645-.404 1.106.789 2.122 3.62 5.96 3.568 8.03-.075 2.96-1.102 7.846-2.509 9.918a55.632 55.632 0 0 1-4.153 5.033l.666 1.184-.666.889s1.628 1.776 2.739 2.886 4.087 3.874 4.605 5.947.88 3.914.88 3.914-6.257.51-9.013-3.627a37.976 37.976 0 0 1-3.134-6.234l-2.023-.296v-2.665a4.241 4.241 0 0 1-2.418-.592 11.94 11.94 0 0 0-2.442-1.036l.592-6.513z"/><path d="M48.55 123.79c-1.785 0-6.315-.36-8.62-3.817a37.295 37.295 0 0 1-3.09-6.102l-2.129-.312v-2.604a4.993 4.993 0 0 1-2.225-.649 11.697 11.697 0 0 0-2.357-1.001l-.304-.082.663-6.973 11.049-20.406.347.261c.671.504 2.488 1.854 2.835 2.056a.558.558 0 0 1 .298.41.828.828 0 0 1-.331.673 1.079 1.079 0 0 0-.205.251 25.846 25.846 0 0 0 1.408 2.746c1.089 1.952 2.215 3.97 2.18 5.39-.078 3.107-1.155 8.027-2.573 10.118a52.621 52.621 0 0 1-4.004 4.876l.654 1.16-.627.835c.476.516 1.66 1.789 2.518 2.646l.366.362c1.343 1.322 3.843 3.784 4.338 5.759.514 2.058.88 3.914.883 3.933l.081.412-.419.034a9.39 9.39 0 0 1-.737.024zm-13.09-10.88l1.92.28.078.205a37.923 37.923 0 0 0 3.096 6.161c2.195 3.294 6.815 3.51 8.246 3.477a90.607 90.607 0 0 0-.789-3.466c-.441-1.77-2.936-4.225-4.136-5.406l-.37-.366c-1.103-1.103-2.734-2.88-2.75-2.898l-.212-.23.707-.941-.68-1.21.186-.2a55.876 55.876 0 0 0 4.117-4.989c1.308-1.927 2.37-6.719 2.445-9.716.03-1.214-1.093-3.229-2.084-5.006a23.674 23.674 0 0 1-1.46-2.884.968.968 0 0 1 .37-.999l.023-.024c-.534-.357-1.765-1.27-2.385-1.733L31.184 102.54l-.557 6.132a13.028 13.028 0 0 1 2.224.979 3.968 3.968 0 0 0 2.187.548l.421-.053z"/><path d="M40.78 84.921s9.16 3.783 11.381.542a11.545 11.545 0 0 0-9.952-4.9c-5.57.015-11.434 2.144-12.28 3.23a4.109 4.109 0 0 1 1.751 2.787c.662 13.752-4.741 15.611-5.353 19.502 0 0 7.655 5.269 8.76 5.599s8.765-5.065 10.098-8.142-4.406-18.618-4.406-18.618z"/><path d="M36.798 110.781c.936-1.054 3.467-2.758 4.744-2.158.307.145.758.806.666 1.133-.404 1.43-3.673 3.358-5.099 3.775a1.513 1.513 0 0 1-1.513-.296c-.454-.559.724-1.916 1.202-2.454z" class="cls-4"/><path d="M36.568 114.106a1.72 1.72 0 0 1-1.36-.555c-.647-.797.251-2.015 1.215-3.102.883-.993 3.67-3.058 5.331-2.279a1.821 1.821 0 0 1 .935 1.723c-.484 1.712-4.015 3.7-5.439 4.118a2.474 2.474 0 0 1-.682.095zm.603-2.993c-1.237 1.394-1.185 1.787-1.175 1.827a1.109 1.109 0 0 0 .973.111c1.517-.444 4.44-2.307 4.757-3.43a1.33 1.33 0 0 0-.4-.546c-.894-.421-3.19.951-4.155 2.038z"/><path d="M26.615 93.716a47.904 47.904 0 0 0-2.392 10.13 27.099 27.099 0 0 0-.028 4.464s6.133-5.17 7.55-9.87a40.07 40.07 0 0 0 1.857-10.672 25.36 25.36 0 0 0-.794-4.737s-2.097 2.774-3.06 4.177a34.338 34.338 0 0 0-3.133 6.508z" class="cls-4"/><path d="M23.89 109.058l-.067-.712a27.23 27.23 0 0 1 .027-4.533 48.43 48.43 0 0 1 2.411-10.224 35.043 35.043 0 0 1 3.177-6.594c.957-1.393 3.05-4.162 3.071-4.19l.47-.622.192.756a25.061 25.061 0 0 1 .805 4.85 40.146 40.146 0 0 1-1.871 10.76c-1.434 4.752-7.414 9.834-7.667 10.048zm3.078-15.216a47.6 47.6 0 0 0-2.372 10.037 27.86 27.86 0 0 0-.074 3.642c1.538-1.401 5.747-5.483 6.864-9.19a39.505 39.505 0 0 0 1.842-10.584 19.366 19.366 0 0 0-.599-3.854c-.677.904-1.906 2.557-2.572 3.527a34.07 34.07 0 0 0-3.089 6.422z"/><path d="M26.358 102.315a6.07 6.07 0 0 0 3.65-1.737c.806-.762 1.217-1.569 1.688-1.088.72.734-7.265 8.82-7.265 8.82l-.137-4.33.702-5.474s.022 3.88 1.362 3.809z"/><path d="M28.871 93.849a57.077 57.077 0 0 1-7.316 7.871 27.397 27.397 0 0 1-3.603 2.678s1.063-8.148 4.138-12.874c2.693-4.137 4.48-5.155 6.96-7.19a20.14 20.14 0 0 1 4.31-1.922 16.518 16.518 0 0 1-.581 4.277 43.947 43.947 0 0 1-3.908 7.16z" class="cls-4"/><path d="M17.48 105.117l.1-.767c.043-.336 1.11-8.288 4.196-13.03a22.586 22.586 0 0 1 5.878-6.348c.372-.295.757-.598 1.159-.928a20.01 20.01 0 0 1 4.432-1.988l.494-.162-.003.52a16.662 16.662 0 0 1-.604 4.4 43.833 43.833 0 0 1-3.95 7.245l-.31-.21.31.21a57.238 57.238 0 0 1-7.379 7.943 27.507 27.507 0 0 1-3.66 2.718zm15.49-22.175a16.434 16.434 0 0 0-3.683 1.682c-.406.333-.793.64-1.17.936a21.958 21.958 0 0 0-5.713 6.169c-2.43 3.733-3.598 9.736-3.956 11.904a28.084 28.084 0 0 0 2.858-2.194 57.223 57.223 0 0 0 7.254-7.8 43.775 43.775 0 0 0 3.864-7.074 14.341 14.341 0 0 0 .546-3.623z"/><path d="M21.535 99.086a6.063 6.063 0 0 1-.747-3.977c.141-1.105.81-1.01.141-1.105-1.02-.144-3.115 10.204-3.115 10.204l3.59-2.465 4.023-3.822s-3.158 2.29-3.892 1.165z"/><circle cx="110.547" cy="101.145" r="31.378" class="cls-6"/><path d="M110.546 135.273a34.128 34.128 0 1 1 34.13-34.128 34.166 34.166 0 0 1-34.13 34.128zm0-62.756a28.628 28.628 0 1 0 28.63 28.628 28.66 28.66 0 0 0-28.63-28.628z"/><path d="M133.068 104.76s.039 7.853-.954 9.31c-1.055 1.55-8.173.85-8.173.85l-.51 9.655a58.037 58.037 0 0 0-6.694-3.209c-3.855-1.284-14.68-.345-14.68-.345a55.563 55.563 0 0 0 3.142-5.995c.508-1.39.436-5.92.436-5.92l-1.392-6.389s9.79-8.32 12.77-10.802a25.288 25.288 0 0 1 10.127-4.797s4.168 4.99 5.445 8.328c1.04 2.722 3.38 8.043 1.998 8.832s-4.771 1.108-4.969-.273-.401-1.586-.401-1.586" class="cls-2"/><path d="M123.774 125.194l-.525-.29a58.007 58.007 0 0 0-6.63-3.182c-3.74-1.245-14.421-.337-14.53-.327l-.728.063.374-.629a55.508 55.508 0 0 0 3.112-5.931c.478-1.31.414-5.742.413-5.787l-1.43-6.534.17-.146c.099-.083 9.827-8.35 12.772-10.804a25.405 25.405 0 0 1 10.297-4.878l.217-.042.142.17c.172.206 4.223 5.076 5.507 8.435.128.334.275.708.433 1.107 1.64 4.154 2.784 7.394 1.4 8.185a5.325 5.325 0 0 1-1.325.5c-.003 1.671-.08 7.798-1.02 9.178-1.032 1.516-6.324 1.2-8.129 1.047zm-14.01-4.882a26.138 26.138 0 0 1 7.09.698 51.363 51.363 0 0 1 6.234 2.95l.5-9.452.39.038c2.666.261 7.148.308 7.826-.686.646-.948.88-5.489.889-8.608a4.94 4.94 0 0 1-2.677-.218 1.273 1.273 0 0 1-.772-.976 4.47 4.47 0 0 0-.329-1.412l.563-.492a4.417 4.417 0 0 1 .508 1.798c.008.062.036.25.36.408a5.678 5.678 0 0 0 4.05-.407c.93-.531-.93-5.245-1.726-7.258-.159-.403-.307-.779-.436-1.116-1.107-2.895-4.498-7.14-5.239-8.046a25.052 25.052 0 0 0-9.743 4.67c-2.726 2.272-11.273 9.532-12.594 10.654l1.343 6.169c.012.261.076 4.69-.449 6.129a46.813 46.813 0 0 1-2.808 5.436c1.296-.097 4.126-.28 7.02-.28z"/><path d="M131.92 95.046a5.14 5.14 0 0 0-1.957.682c-.312.22-.661.586-1.142.998a7.582 7.582 0 0 1-1.051.792l1.467-.06 2.835.192z" class="cls-4"/><path d="M132.472 98.053l-3.26-.22-2.96.122 1.332-.763a7.496 7.496 0 0 0 .993-.75c.19-.163.359-.318.512-.46a7.17 7.17 0 0 1 .657-.56 5.478 5.478 0 0 1 2.126-.748l.398-.05zm-3.25-.97l2.451.165-.103-1.757a4.09 4.09 0 0 0-1.39.543 6.518 6.518 0 0 0-.583.5c-.16.148-.335.309-.531.477l-.098.083zm1.909 11.68a13.548 13.548 0 0 1-4.677-.58 3.688 3.688 0 0 1-1-1.265l.657-.362a3.882 3.882 0 0 0 .68.957c1.121.558 4.58.527 5.817.47l.358-.001v.75h-.34c-.062.003-.669.03-1.495.03z"/><path fill="maroon" d="M95.441 115.206s-5.469 1.487-5.469 0-.024-1.825.51-2.359a4.753 4.753 0 0 1 1.464-.662v-1.919s-2.17-.69-1.974-2.467 2.2-1.679 2.729-3.01-2.63-1.263-2.334-4.11 2.405-2.157 2.633-3.834-3.244-1.678-2.248-4.244 5.12-6.449 5.12-6.449 1.863-6.241 15.12-7.564c17.802-1.776 17.802 7.827 17.802 7.827l-7.454 5.191z"/><path d="M91.436 116.239a2.57 2.57 0 0 1-1.488-.33.857.857 0 0 1-.35-.703v-.186c-.002-1.359-.002-1.816.618-2.438a3.93 3.93 0 0 1 1.355-.675v-1.38a2.841 2.841 0 0 1-1.972-2.77 2.708 2.708 0 0 1 1.639-2.083 2.33 2.33 0 0 0 1.114-1.024c.098-.247-.006-.38-.651-.831a3.19 3.19 0 0 1-1.706-3.18 3.238 3.238 0 0 1 1.756-2.788c.484-.305.803-.506.878-1.057.064-.47-.32-.766-.948-1.21-.824-.582-1.954-1.379-1.278-3.118.956-2.462 4.579-5.983 5.143-6.522.31-.856 2.814-6.472 15.41-7.73 7.277-.725 12.536.321 15.62 3.112a7.386 7.386 0 0 1 2.593 5.09v.171l-.13.112-8.278 5.073-25.14 23.774-.082.022a18.485 18.485 0 0 1-4.103.67zm23.65-37.491q-1.912 0-4.056.213c-12.8 1.277-14.782 7.24-14.8 7.3l-.028.095-.074.07c-.04.037-4.072 3.854-5.026 6.311-.441 1.135.097 1.589 1.012 2.235.65.459 1.386.979 1.257 1.923a2.139 2.139 0 0 1-1.22 1.59 2.515 2.515 0 0 0-1.41 2.232 2.434 2.434 0 0 0 1.39 2.487c.587.412 1.253.878.918 1.723a3.002 3.002 0 0 1-1.427 1.39c-.636.382-1.187.711-1.277 1.523-.162 1.454 1.695 2.063 1.714 2.069l.262.083v2.477l-.274.077a4.218 4.218 0 0 0-1.3.567c-.388.388-.4.55-.4 1.906v.187a.114.114 0 0 0 .057.106c.569.437 3.154.008 4.856-.446l33.149-28.613a6.928 6.928 0 0 0-2.355-4.387c-2.29-2.06-6.04-3.118-10.969-3.118z"/><path d="M107.042 114.869a49.038 49.038 0 0 1-2.089 9.614 25.281 25.281 0 0 1-1.672 3.844s-2.817-7.321-2.256-11.898a32.913 32.913 0 0 1 2.441-9.335 23.687 23.687 0 0 1 2.487-3.764s.759 3.182 1.058 4.753a32.677 32.677 0 0 1 .03 6.786z" class="cls-4"/><path d="M103.217 129.205l-.286-.744c-.117-.302-2.844-7.461-2.278-12.077a32.13 32.13 0 0 1 2.276-8.932l.187-.49a23.413 23.413 0 0 1 2.543-3.864l.48-.608.18.753c.007.032.763 3.208 1.06 4.77a30.72 30.72 0 0 1 .036 6.882 49.56 49.56 0 0 1-2.106 9.708 25.577 25.577 0 0 1-1.701 3.907zm2.553-25.018a17.802 17.802 0 0 0-1.953 3.04l-.187.492a31.53 31.53 0 0 0-2.233 8.756c-.436 3.557 1.249 8.905 1.945 10.915a26.01 26.01 0 0 0 1.256-3.027 48.641 48.641 0 0 0 2.07-9.52 30.145 30.145 0 0 0-.025-6.69c-.204-1.073-.63-2.924-.873-3.966z"/><path d="M103.706 121.284c-.821-.416-1.36-.314-1.999-1.821-.408-.962-.457-1.811-1.046-1.578-.902.356 2.417 10.351 2.417 10.351l2.019-3.669 1.375-6.815s-1.634 4.104-2.766 3.532z"/><path d="M102.887 113.37a52.079 52.079 0 0 1-6.565 7.038 25 25 0 0 1-3.223 2.404s1.013-7.231 3.784-11.446c2.427-3.69 4.022-4.606 6.244-6.43a18.287 18.287 0 0 1 3.844-1.74 14.712 14.712 0 0 1-.553 3.795 39.864 39.864 0 0 1-3.53 6.379z" class="cls-4"/><path d="M92.619 123.538l.109-.779c.042-.298 1.056-7.362 3.842-11.598a20.636 20.636 0 0 1 5.28-5.683 71.29 71.29 0 0 0 1.038-.832 18.201 18.201 0 0 1 3.964-1.806l.502-.168-.008.529a14.877 14.877 0 0 1-.575 3.918 40.526 40.526 0 0 1-3.574 6.463 52.266 52.266 0 0 1-6.627 7.107 25.109 25.109 0 0 1-3.278 2.444zm13.956-19.806a14.65 14.65 0 0 0-3.21 1.493c-.365.3-.712.575-1.05.841a20.012 20.012 0 0 0-5.118 5.507c-2.147 3.263-3.233 8.453-3.59 10.46a25.54 25.54 0 0 0 2.467-1.907 52.187 52.187 0 0 0 6.503-6.968 39.54 39.54 0 0 0 3.489-6.294 12.482 12.482 0 0 0 .509-3.132z"/><path d="M96.327 118.074a5.308 5.308 0 0 1-.63-3.52c.134-.98.726-.902.134-.98-.905-.119-2.854 9.07-2.854 9.07l3.21-2.215 3.607-3.422s-2.825 2.056-3.467 1.067zm11.705-5.933a11.244 11.244 0 0 0 2.484 0c2.253-.099 10.246-4.342 11.53-10.066a32.748 32.748 0 0 0 0-11.97l-16.842 13.424z"/><path d="M104.613 104.446c.88-1 8.958-12.016 16.975-16.28a13.985 13.985 0 0 1 5.127-1.946 3.51 3.51 0 0 1 2.08.195c1.864.852 1.64 1.605 1.64 1.605s-5.133.535-8.227 2.522a111.914 111.914 0 0 0-8.65 7.136l-7.033 8.84z" class="cls-6"/><path d="M106.553 107.287l-2.613-2.833.298-.339c.104-.119.312-.382.611-.76 2.318-2.928 9.371-11.837 16.505-15.63a14.499 14.499 0 0 1 5.285-1.999 3.975 3.975 0 0 1 2.363.234c2.15.983 1.97 2.007 1.912 2.203l-.095.32-.332.034c-.05.006-5.053.547-8.008 2.445-2.486 1.596-8.526 7.033-8.587 7.087zm-1.278-2.86l1.221 1.324 6.67-8.384a108.294 108.294 0 0 1 8.772-7.247 21.646 21.646 0 0 1 7.805-2.515 3.844 3.844 0 0 0-1.157-.735 3.005 3.005 0 0 0-1.795-.156 13.547 13.547 0 0 0-4.968 1.894c-6.949 3.695-13.904 12.48-16.19 15.367a68.51 68.51 0 0 1-.358.452z"/><path d="M115.672 100.679a5.157 5.157 0 1 1-5.156-5.157 5.156 5.156 0 0 1 5.156 5.157z" class="cls-4"/><path d="M110.516 106.21a5.532 5.532 0 1 1 5.531-5.531 5.538 5.538 0 0 1-5.531 5.531zm0-10.313a4.782 4.782 0 1 0 4.781 4.782 4.757 4.757 0 0 0-4.781-4.782z"/><path d="M96.124 77.7s-.708 6.3 1.463 8.865 7.151 4.753 7.151 4.753l.066-3.306 2.932-2.236a27.297 27.297 0 0 1-7.005-3.06 26.984 26.984 0 0 1-4.607-5.016z" class="cls-8"/><path d="M105.222 92.078l-.685-.302c-.208-.091-5.11-2.264-7.332-4.888-2.284-2.7-1.607-8.978-1.578-9.244l.147-1.3.758 1.066a26.708 26.708 0 0 0 4.493 4.902 26.982 26.982 0 0 0 6.846 2.982l.966.27-3.538 2.7zm-8.688-13.003c-.074 1.931.008 5.481 1.435 7.168 1.6 1.891 4.864 3.606 6.284 4.296l.056-2.777 2.348-1.792a24.535 24.535 0 0 1-6.22-2.849 22.826 22.826 0 0 1-3.903-4.046z"/><path d="M115.672 78.587a4.354 4.354 0 0 0 1.538-2.762V73.06a24.179 24.179 0 0 1 2.336 2.763 12.489 12.489 0 0 1 1.019 3.652z" class="cls-8"/><path d="M121.146 80.09l-6.61-1.201.815-.686a3.88 3.88 0 0 0 1.358-2.378v-4.003l.86.892a24.128 24.128 0 0 1 2.409 2.859 12.795 12.795 0 0 1 1.083 3.84zm-4.465-1.828l3.28.596a9.782 9.782 0 0 0-.848-2.783 14.017 14.017 0 0 0-1.404-1.742v1.492a4.016 4.016 0 0 1-1.028 2.437z"/><path d="M115.263 120.702a2.699 2.699 0 0 0-3.302.062c-1.2 1.152-1.191 5.177-1.031 5.791.1.382 2.57 1.195 3.385.296a7.17 7.17 0 0 0 .948-6.149z" class="cls-9"/><path d="M113.112 127.634a4.797 4.797 0 0 1-1.105-.142c-.392-.097-1.317-.372-1.44-.842-.16-.613-.24-4.838 1.135-6.156a3.054 3.054 0 0 1 2.884-.565c.347.097.942.313 1.04.676a7.489 7.489 0 0 1-1.034 6.498 1.948 1.948 0 0 1-1.48.531zm.47-7.098a1.916 1.916 0 0 0-1.36.499c-1.052 1.007-1.076 4.862-.929 5.426a4.6 4.6 0 0 0 1.813.423 1.348 1.348 0 0 0 .931-.285 6.796 6.796 0 0 0 .883-5.727 2.688 2.688 0 0 0-1.339-.336z"/><path d="M115.318 113.357a2.699 2.699 0 0 0-3.226.704c-.953 1.363-.16 5.31.118 5.881.172.355 2.753.67 3.378-.37a7.17 7.17 0 0 0-.27-6.215z" class="cls-9"/><path d="M113.68 120.655a7.32 7.32 0 0 1-.226-.004c-.404-.018-1.369-.107-1.582-.545-.276-.571-1.176-4.702-.087-6.26a3.06 3.06 0 0 1 2.717-1.116c.359.027.987.123 1.153.46a7.49 7.49 0 0 1 .254 6.575 2.595 2.595 0 0 1-2.229.89zm.532-7.19a2.15 2.15 0 0 0-1.812.81c-.833 1.192-.107 4.98.147 5.504a4.599 4.599 0 0 0 1.87.06 1.291 1.291 0 0 0 .849-.46 6.795 6.795 0 0 0-.25-5.788 2.207 2.207 0 0 0-.804-.125z"/><path d="M113.913 106.192a2.699 2.699 0 0 0-3.117 1.092c-.78 1.469.487 5.29.832 5.823.214.332 2.814.33 3.308-.778a7.17 7.17 0 0 0-1.023-6.136z" class="cls-9"/><path d="M112.537 113.676c-.452 0-1.03-.064-1.225-.366-.343-.533-1.74-4.523-.847-6.202a3.055 3.055 0 0 1 2.559-1.438c.365-.013.996.002 1.203.317a7.495 7.495 0 0 1 1.052 6.495c-.416.933-1.774 1.135-2.338 1.178a5.192 5.192 0 0 1-.404.016zm.66-7.264a2.314 2.314 0 0 0-2.07 1.047c-.681 1.285.5 4.955.816 5.445a4.585 4.585 0 0 0 1.86-.168 1.292 1.292 0 0 0 .79-.56 6.797 6.797 0 0 0-.952-5.714 1.59 1.59 0 0 0-.443-.05z"/><path d="M112.413 100.679a1.948 1.948 0 1 1-1.948-1.948 1.948 1.948 0 0 1 1.948 1.948z" class="cls-9"/><path d="M12.567 154.921a4.989 4.989 0 0 1-3.748 1.335 4.987 4.987 0 0 1-3.748-1.335 6.17 6.17 0 0 1-1.738-4.718 6.049 6.049 0 0 1 1.738-4.719 4.987 4.987 0 0 1 3.748-1.335 4.989 4.989 0 0 1 3.748 1.335 6.066 6.066 0 0 1 1.73 4.719 6.187 6.187 0 0 1-1.73 4.718zm-1.494-1.738a5.728 5.728 0 0 0 0-5.956 2.725 2.725 0 0 0-2.254-1.052 2.764 2.764 0 0 0-2.266 1.048 5.673 5.673 0 0 0 0 5.96 2.765 2.765 0 0 0 2.266 1.048 2.73 2.73 0 0 0 2.254-1.048zm11.984-4.796a4.506 4.506 0 0 1 1.035 3.213 5.076 5.076 0 0 1-1.012 3.406 3.284 3.284 0 0 1-2.604 1.172 2.734 2.734 0 0 1-1.688-.504 3.259 3.259 0 0 1-.719-.815v4.408h-2.188v-11.788H18v1.25a3.564 3.564 0 0 1 .765-.87 2.827 2.827 0 0 1 1.765-.566 3.344 3.344 0 0 1 2.527 1.094zm-1.698 1.59a1.575 1.575 0 0 0-1.462-.752 1.662 1.662 0 0 0-1.67 1.14 4.275 4.275 0 0 0-.235 1.537 2.439 2.439 0 0 0 .791 2.072 1.815 1.815 0 0 0 1.113.35 1.62 1.62 0 0 0 1.424-.715 3.744 3.744 0 0 0 .04-3.631zm9.804-2.327a3.448 3.448 0 0 1 1.462 1.251 4.152 4.152 0 0 1 .674 1.75 10.818 10.818 0 0 1 .073 1.678h-6.161a2.028 2.028 0 0 0 .885 1.785 2.245 2.245 0 0 0 1.22.318 1.718 1.718 0 0 0 1.682-.97h2.258a2.752 2.752 0 0 1-.82 1.529 4.11 4.11 0 0 1-3.182 1.234 4.61 4.61 0 0 1-2.98-1.04 4.101 4.101 0 0 1-1.29-3.388 4.577 4.577 0 0 1 1.165-3.37 4.078 4.078 0 0 1 3.025-1.173 4.815 4.815 0 0 1 1.989.396zm-3.309 1.91a2.298 2.298 0 0 0-.588 1.31h3.81a1.85 1.85 0 0 0-.59-1.337 1.94 1.94 0 0 0-1.311-.455 1.756 1.756 0 0 0-1.32.483zm13.457-1.596a2.8 2.8 0 0 1 .83 2.277v5.697h-2.265v-5.145a2.361 2.361 0 0 0-.178-1.025 1.244 1.244 0 0 0-1.232-.652 1.529 1.529 0 0 0-1.533.955 3.306 3.306 0 0 0-.215 1.288v4.579h-2.212v-8.444h2.141v1.234a3.737 3.737 0 0 1 .804-.939 2.785 2.785 0 0 1 1.724-.512 3.244 3.244 0 0 1 2.136.687zm14.184-3.217a3.78 3.78 0 0 1 1.95 1.451 5.089 5.089 0 0 1 .815 1.848 8.827 8.827 0 0 1 .217 1.893 7.593 7.593 0 0 1-.917 3.864 4.134 4.134 0 0 1-3.836 2.135h-4.931v-11.439h4.931a6.02 6.02 0 0 1 1.771.248zm-4.382 1.738v7.466h2.207a2.384 2.384 0 0 0 2.363-1.669 5.882 5.882 0 0 0 .366-2.18 5.362 5.362 0 0 0-.548-2.681 2.317 2.317 0 0 0-2.18-.936zm11.252-.015h-2.242v-2.04h2.242zm-2.242 1.01h2.242v8.458h-2.242zm6.099 5.757a1.478 1.478 0 0 0 .303.838 2.064 2.064 0 0 0 1.529.443 2.334 2.334 0 0 0 1.04-.195.621.621 0 0 0 .387-.582.629.629 0 0 0-.311-.566 12.702 12.702 0 0 0-2.314-.668 4.802 4.802 0 0 1-2.03-.892 1.934 1.934 0 0 1-.59-1.52 2.636 2.636 0 0 1 .92-2.015 3.71 3.71 0 0 1 2.594-.842 4.769 4.769 0 0 1 2.586.633 2.71 2.71 0 0 1 1.147 2.184h-2.212a1.307 1.307 0 0 0-.24-.675 1.522 1.522 0 0 0-1.246-.45 1.796 1.796 0 0 0-1.031.225.647.647 0 0 0-.307.528.577.577 0 0 0 .326.551 14.185 14.185 0 0 0 2.31.613 4.242 4.242 0 0 1 1.981.939 2.132 2.132 0 0 1 .652 1.59 2.57 2.57 0 0 1-.937 2.053 4.41 4.41 0 0 1-2.896.796 4.367 4.367 0 0 1-2.951-.842 2.738 2.738 0 0 1-.953-2.146zm14.237-4.85a4.506 4.506 0 0 1 1.035 3.213 5.076 5.076 0 0 1-1.012 3.406 3.284 3.284 0 0 1-2.604 1.172 2.734 2.734 0 0 1-1.688-.504 3.259 3.259 0 0 1-.718-.815v4.408h-2.189v-11.788h2.12v1.25a3.564 3.564 0 0 1 .764-.87 2.827 2.827 0 0 1 1.766-.566 3.344 3.344 0 0 1 2.526 1.094zm-1.697 1.59a1.575 1.575 0 0 0-1.462-.752 1.662 1.662 0 0 0-1.67 1.14 4.276 4.276 0 0 0-.236 1.537 2.439 2.439 0 0 0 .791 2.072 1.815 1.815 0 0 0 1.114.35 1.62 1.62 0 0 0 1.424-.715 3.744 3.744 0 0 0 .039-3.631zm6.549 5.961h-2.21v-11.439h2.21zm5.509-5.145a3.518 3.518 0 0 0 .883-.194.665.665 0 0 0 .477-.63.743.743 0 0 0-.366-.717 2.314 2.314 0 0 0-1.074-.198 1.41 1.41 0 0 0-1.125.388 1.603 1.603 0 0 0-.314.776h-2.134a3.244 3.244 0 0 1 .623-1.823 3.637 3.637 0 0 1 3.024-1.118 5.396 5.396 0 0 1 2.479.551 2.112 2.112 0 0 1 1.083 2.08v3.88c0 .27.006.595.015.978a1.232 1.232 0 0 0 .132.59.791.791 0 0 0 .326.255v.327h-2.405a2.426 2.426 0 0 1-.14-.481 5.66 5.66 0 0 1-.062-.513 4.567 4.567 0 0 1-1.061.846 3.207 3.207 0 0 1-1.624.411 2.8 2.8 0 0 1-1.909-.656 2.332 2.332 0 0 1-.753-1.858 2.407 2.407 0 0 1 1.212-2.258 5.4 5.4 0 0 1 1.954-.543zm1.352 1.032a2.468 2.468 0 0 1-.429.213 3.641 3.641 0 0 1-.594.152l-.503.092a3.312 3.312 0 0 0-1.016.303 1.01 1.01 0 0 0-.523.94.98.98 0 0 0 .319.818 1.215 1.215 0 0 0 .776.252 2.313 2.313 0 0 0 1.336-.42 1.774 1.774 0 0 0 .634-1.528zm4.47 5.735l.28.015a3.442 3.442 0 0 0 .62-.023 1.113 1.113 0 0 0 .497-.179 1.196 1.196 0 0 0 .36-.55 1.354 1.354 0 0 0 .145-.513l-3.109-8.83h2.46l1.847 6.238 1.746-6.239h2.352l-2.9 8.319a11.693 11.693 0 0 1-1.33 2.984 2.53 2.53 0 0 1-1.958.578c-.197 0-.355-.001-.473-.004-.12-.003-.3-.012-.536-.027zm14.193-11.866a5.333 5.333 0 0 1 7.692.481 4.127 4.127 0 0 1 .783 2.134h-2.39a3.245 3.245 0 0 0-.585-1.241 2.357 2.357 0 0 0-1.894-.746 2.333 2.333 0 0 0-2.014 1.052 5.138 5.138 0 0 0-.738 2.976 4.508 4.508 0 0 0 .779 2.883 2.438 2.438 0 0 0 1.977.959 2.24 2.24 0 0 0 1.875-.823 3.606 3.606 0 0 0 .592-1.327h2.375a5.156 5.156 0 0 1-1.57 3.042 4.568 4.568 0 0 1-3.236 1.172 4.855 4.855 0 0 1-3.839-1.583 7.502 7.502 0 0 1 .193-8.979zm13.556 5.099a3.518 3.518 0 0 0 .883-.194.665.665 0 0 0 .477-.63.743.743 0 0 0-.365-.717 2.314 2.314 0 0 0-1.075-.198 1.41 1.41 0 0 0-1.125.388 1.603 1.603 0 0 0-.314.776h-2.134a3.244 3.244 0 0 1 .623-1.823 3.637 3.637 0 0 1 3.025-1.118 5.396 5.396 0 0 1 2.478.551 2.112 2.112 0 0 1 1.083 2.08v3.88c0 .27.006.595.016.978a1.232 1.232 0 0 0 .132.59.791.791 0 0 0 .326.255v.327h-2.405a2.427 2.427 0 0 1-.14-.481 5.66 5.66 0 0 1-.063-.513 4.567 4.567 0 0 1-1.061.846 3.207 3.207 0 0 1-1.624.411 2.8 2.8 0 0 1-1.908-.656 2.332 2.332 0 0 1-.753-1.858 2.407 2.407 0 0 1 1.212-2.258 5.4 5.4 0 0 1 1.954-.543zm1.352 1.032a2.468 2.468 0 0 1-.429.213 3.641 3.641 0 0 1-.593.152l-.503.092a3.312 3.312 0 0 0-1.017.303 1.01 1.01 0 0 0-.522.94.98.98 0 0 0 .318.818 1.215 1.215 0 0 0 .776.252 2.313 2.313 0 0 0 1.336-.42 1.774 1.774 0 0 0 .634-1.528zm6.395 4.113h-2.211v-11.439h2.21zm4.43-9.468h-2.242v-2.04h2.242zm-2.242 1.01h2.242v8.458h-2.242zm11.607 1.016a4.86 4.86 0 0 1 .95 3.104 5.439 5.439 0 0 1-.937 3.267 3.398 3.398 0 0 1-4.305.877 3.383 3.383 0 0 1-.828-.87v1.064h-2.18v-11.424h2.212v4.067a3.236 3.236 0 0 1 .93-.9 2.771 2.771 0 0 1 1.53-.388 3.161 3.161 0 0 1 2.628 1.203zm-1.848 5.153a3.133 3.133 0 0 0 .477-1.816 4.068 4.068 0 0 0-.235-1.49 1.634 1.634 0 0 0-1.643-1.118 1.66 1.66 0 0 0-1.667 1.094 4.084 4.084 0 0 0-.234 1.506 3.136 3.136 0 0 0 .484 1.8 1.667 1.667 0 0 0 1.48.714 1.535 1.535 0 0 0 1.338-.69z"/></svg>