<svg xmlns="http://www.w3.org/2000/svg" role="img" viewBox="-14.01 -14.01 728.52 465.52"><title>OpenTimelineIO logo</title><style>svg {clip-rule:evenodd;fill-rule:evenodd;stroke-linejoin:round;stroke-miterlimit:2}</style><g id="g210" transform="translate(-4133.73 -2790.383) scale(5.38053)"><g id="g184" transform="translate(831.921 519.023)"><path id="path182" fill="#f2a521" fill-rule="nonzero" d="M0 10.642l-9.435-9.161c-.711-.692-.222-1.897.769-1.897h18.869c.991 0 1.481 1.205.77 1.897l-9.435 9.161c-.429.416-1.11.416-1.538 0"/></g><g id="g188" transform="translate(0 283.798)"><path id="rect186" fill="#007f4b" d="M814.307 249.508h16.507v9.186h-16.507z"/></g><g id="g192" transform="translate(0 283.798)"><path id="rect190" fill="#007f4b" d="M834.719 249.508h39.759v9.186h-39.759z"/></g><g id="g196" transform="translate(0 354.924)"><path id="rect194" fill="#007f4b" d="M834.719 214.111h16.951v8.854h-16.951z"/></g><g id="g200" transform="matrix(-1 0 0 1 1623.12 354.924)"><path id="rect198" fill="#007f4b" d="M792.309 214.111h38.504v8.854h-38.504z"/></g><g id="g204" transform="translate(0 319.528)"><path id="rect202" fill="#91c753" d="M834.719 226.87h39.759v18.732h-39.759z"/></g><g id="g208" transform="matrix(-1 0 0 1 1623.31 319.526)"><path id="rect206" fill="#91c753" d="M792.493 226.871h38.32v18.732h-38.32z"/></g></g><g id="g576" transform="translate(-1007.267 215.877)"><g id="g268" transform="translate(-1016.58 -1073.982) scale(2.26627)"><g id="g214" transform="translate(918.303 551.445)"><path id="path212" fill="#d0d1d3" fill-rule="nonzero" d="M0 .161v-.08c0-6.358-4.639-11.558-11.038-11.558S-21.996-6.358-21.996.001v.08c0 6.359 4.64 11.559 11.038 11.559C-4.559 11.64 0 6.52 0 .161m-25.275 0v-.08c0-7.719 5.798-14.478 14.317-14.478S3.279-7.717 3.279.001c.04.04.04.04 0 .08 0 7.719-5.799 14.477-14.317 14.477-8.519 0-14.237-6.678-14.237-14.397"/></g><g id="g218" transform="translate(941.464 561.084)"><path id="path216" fill="#d0d1d3" fill-rule="nonzero" d="M0-5.839v-.08c0-4.879-3.359-7.998-7.278-7.998-3.84 0-7.479 3.239-7.479 7.958v.08c0 4.799 3.639 7.999 7.479 7.999C-3.279 2.12 0-.84 0-5.839m-17.717-10.398h3.079v4.159c1.68-2.48 4.12-4.599 7.919-4.599 4.959 0 9.878 3.919 9.878 10.718v.08C3.159.88-1.72 4.879-6.719 4.879c-3.839 0-6.319-2.079-7.919-4.399v10.358h-3.079z"/></g><g id="g222" transform="translate(963.063 556.444)"><path id="path220" fill="#d0d1d3" fill-rule="nonzero" d="M0-2.478c-.359-3.76-2.52-6.959-6.599-6.959-3.559 0-6.279 2.959-6.718 6.959zM-6.039 6.88c2.84 0 4.84-1.16 6.519-2.92l1.919 1.72C.32 8-2.199 9.559-6.119 9.559c-5.679 0-10.318-4.358-10.318-10.798 0-5.999 4.2-10.798 9.918-10.798 6.12 0 9.639 4.879 9.639 10.958 0 .281 0 .6-.04 1.08h-16.397c.439 4.36 3.639 6.879 7.278 6.879"/></g><g id="g226" transform="translate(968.386 565.085)"><path id="path224" fill="#d0d1d3" fill-rule="nonzero" d="M0-20.238h3.079v3.6c1.36-2.24 3.52-4.039 7.079-4.039 4.999 0 7.919 3.359 7.919 8.278V.439h-3.08v-12.078c0-3.839-2.079-6.24-5.719-6.24-3.559 0-6.199 2.6-6.199 6.48V.439H0z"/></g><g id="g230" transform="translate(997.305 558.724)"><path id="path228" fill="#d0d1d3" fill-rule="nonzero" d="M0-14.397h-8.398v-6.799h24.555v6.799H7.759V6.799H0z"/></g><g id="g234" transform="translate(0 309.852)"><path id="path232" fill="#d0d1d3" fill-rule="nonzero" d="M1016.59 234.035h7.59v21.637h-7.59zm-.16-7.559h7.91v5.6h-7.91z"/></g><g id="g238" transform="translate(1028.43 565.045)"><path id="path236" fill="#d0d1d3" fill-rule="nonzero" d="M0-21.158h7.599v2.96c1.399-1.8 3.399-3.439 6.438-3.439 2.88 0 5.079 1.279 6.239 3.519 1.88-2.16 4.079-3.519 7.239-3.519 4.599 0 7.399 2.879 7.399 7.918V.479h-7.599v-11.758c0-2.359-1.16-3.6-2.96-3.6-1.799 0-3.119 1.241-3.119 3.6V.479h-7.598v-11.758c0-2.359-1.16-3.6-2.96-3.6s-3.079 1.241-3.079 3.6V.479H0z"/></g><g id="g242" transform="translate(1081.1 556.524)"><path id="path240" fill="#d0d1d3" fill-rule="nonzero" d="M0-3.598c-.279-2.399-1.68-3.92-3.759-3.92-2 0-3.359 1.561-3.76 3.92zm-14.717 1.88v-.08c0-6.32 4.519-11.319 10.918-11.319 7.479 0 10.918 5.48 10.918 11.838 0 .48 0 1.04-.04 1.56H-7.398C-6.799 2.64-5.079 3.84-2.719 3.84c1.799 0 3.24-.679 4.799-2.199l4.199 3.48C4.199 7.759 1.2 9.519-3.119 9.519c-6.799 0-11.598-4.518-11.598-11.237"/></g><g id="g246" transform="translate(0 309.851)"><path id="rect244" fill="#d0d1d3" d="M1091.62 226.477h7.6v29.195h-7.6z"/></g><g id="g250" transform="translate(0 309.852)"><path id="path248" fill="#d0d1d3" fill-rule="nonzero" d="M1103.62 234.035h7.6v21.637h-7.6zm-.16-7.559h7.92v5.6h-7.92z"/></g><g id="g254" transform="translate(1115.46 565.045)"><path id="path252" fill="#d0d1d3" fill-rule="nonzero" d="M0-21.158h7.599v3.04c1.399-1.8 3.399-3.519 6.478-3.519 4.6 0 7.359 3.039 7.359 7.958V.479h-7.599v-11.718c0-2.36-1.239-3.64-3.039-3.64-1.84 0-3.199 1.28-3.199 3.64V.479H0z"/></g><g id="g258" transform="translate(1154.66 556.524)"><path id="path256" fill="#d0d1d3" fill-rule="nonzero" d="M0-3.598c-.279-2.399-1.68-3.92-3.759-3.92-2 0-3.359 1.561-3.76 3.92zm-14.717 1.88v-.08c0-6.32 4.519-11.319 10.918-11.319 7.479 0 10.918 5.48 10.918 11.838 0 .48 0 1.04-.04 1.56H-7.398C-6.799 2.64-5.079 3.84-2.719 3.84c1.799 0 3.24-.679 4.799-2.199l4.199 3.48C4.199 7.759 1.2 9.519-3.119 9.519c-6.799 0-11.598-4.518-11.598-11.237"/></g><g id="g262" transform="translate(0 311.051)"><path id="rect260" fill="#d0d1d3" d="M1166.42 226.477h3.159v27.995h-3.159z"/></g><g id="g266" transform="translate(1198.92 551.445)"><path id="path264" fill="#d0d1d3" fill-rule="nonzero" d="M0 .161v-.08c0-6.358-4.639-11.558-11.038-11.558S-21.996-6.358-21.996.001v.08c0 6.359 4.64 11.559 11.038 11.559C-4.559 11.64 0 6.52 0 .161m-25.275 0v-.08c0-7.719 5.798-14.478 14.317-14.478S3.279-7.717 3.279.001c.04.04.04.04 0 .08 0 7.719-5.799 14.477-14.317 14.477-8.519 0-14.237-6.678-14.237-14.397"/></g></g></g></svg>