<svg xmlns="http://www.w3.org/2000/svg" role="img" viewBox="-2.17 -2.17 502.84 454.84"><title>openMVG logo</title><defs><style>.cls-4{fill:#18d203}.cls-5{fill:#3dfe28}.cls-6{fill:#90fe84}.cls-7{fill:#42fd2d}</style></defs><path d="M90.696 415.446v-.13c0-10.138 8.163-18.367 19.156-18.367 10.927 0 19.023 8.097 19.023 18.235v.132c0 10.136-8.162 18.365-19.155 18.365-10.927 0-19.024-8.097-19.024-18.235zm28.306 0v-.13c0-5.202-3.753-9.744-9.282-9.744-5.727 0-9.15 4.412-9.15 9.612v.132c0 5.2 3.752 9.742 9.282 9.742 5.727 0 9.15-4.411 9.15-9.612zm17.108-17.838h10.007v5.069a12.956 12.956 0 0 1 10.992-5.728c8.229 0 16.062 6.452 16.062 18.235v.132c0 11.782-7.701 18.233-16.062 18.233a13.55 13.55 0 0 1-10.992-5.266v15.14H136.11zm27.055 17.708v-.132c0-5.859-3.95-9.742-8.623-9.742-4.673 0-8.557 3.883-8.557 9.742v.132c0 5.858 3.884 9.742 8.557 9.742 4.674 0 8.623-3.819 8.623-9.742zm15.662.13v-.13c0-10.073 7.175-18.367 17.443-18.367 11.784 0 17.181 9.15 17.181 19.156 0 .79-.065 1.712-.131 2.633h-24.553c.987 4.542 4.147 6.912 8.623 6.912 3.357 0 5.793-1.053 8.557-3.62l5.727 5.068c-3.291 4.08-8.031 6.583-14.416 6.583-10.598 0-18.431-7.439-18.431-18.235zm24.882-2.961c-.592-4.477-3.226-7.504-7.439-7.504-4.147 0-6.845 2.962-7.635 7.504zm17.175-14.877h10.006v5.003c2.304-2.962 5.266-5.662 10.335-5.662 7.57 0 11.98 5.003 11.98 13.1v22.842H243.2v-19.682c0-4.74-2.239-7.176-6.057-7.176s-6.253 2.436-6.253 7.176v19.682h-10.006zm42.058-10.795h10.928l12.111 19.484 12.113-19.484h10.927v46.078H298.95v-30.083l-12.968 19.682h-.262l-12.837-19.484v29.885h-9.94zm53.182 0h11.19l12.046 32.452 12.046-32.452h10.928l-18.629 46.407h-8.952zm48.311 23.171v-.132a23.65 23.65 0 0 1 23.465-23.834q.347-.003.694.005c8.294 0 13.297 2.238 18.101 6.319l-6.385 7.701c-3.554-2.962-6.714-4.674-12.045-4.674-7.373 0-13.232 6.518-13.232 14.35v.133c0 8.426 5.793 14.613 13.955 14.613a16.178 16.178 0 0 0 9.545-2.765v-6.583H388.33v-8.755h20.012v20.012a29.91 29.91 0 0 1-19.683 7.307c-14.35 0-24.224-10.071-24.224-23.697z"/><path fill="#1973b6" d="M320.542 179.207c-11.458 14.748-38.493 52.382-52.126 65.367 2.26-51.389 5.036-125.162 7.297-176.55.887-26.377 12.829-17.026 32.03-27.825 10.823-6.086 19.873-16.778 34.024-15.231"/><path fill="#42fe2d" d="M400.57 215.438c.183-21.82 4.34-43.189 7.086-66.852 27.46 14.123 53.873 27.626 80.195 41.305 5.734 2.98 4.142 4.966-1.316 5.728-18.385 2.379-36.634-1.223-54.975-1.373-12.716-.103-23.416.94-25.45 16.618a5.15 5.15 0 0 1-5.54 4.574z"/><path fill="#17d102" d="M400.57 215.438c8.117-25.638 8.117-25.542 37.454-25.593 16.423-.03 32.502 2.478 48.509 5.775-25.53 8.331-51.042 16.727-76.615 24.934-4.501 1.444-11.178 5.573-9.348-5.116z"/><path d="M210.697 256.101l-106.603 86.572 106.603-47.375v-39.197z" class="cls-4"/><path d="M132.113 227.497l-28.019 115.176 106.603-86.572-78.584-28.604zM7.607 197.831l82.563-44.244 8.436 48.373-90.999-4.129z" class="cls-5"/><path d="M98.606 227.497V201.96l-90.999-4.129 90.999 29.666z" class="cls-6"/><path d="M83.893 104.667l58.935-4.712-31.288 36.117-27.647-31.405z" class="cls-7"/><path d="M114.151 148.31l-30.258-43.643 24.075 14.662 6.183 28.981z" class="cls-6"/><path d="M107.969 119.329l34.859-19.374 1.346 28.949-30.023 19.406-6.182-28.981z" class="cls-4"/><path d="M297.223 252.815l106.603 86.573-106.603-47.376v-39.197z" class="cls-6"/><path d="M375.807 224.212l28.019 115.176-106.603-86.573 78.584-28.603zm115.707-30.572l-82.563-44.244-8.436 48.373 90.999-4.129z" class="cls-5"/><path d="M400.515 223.306v-25.537l90.999-4.129-90.999 29.666z" class="cls-4"/><path d="M412.446 101.842l-58.935-4.712 31.287 36.117 27.648-31.405z" class="cls-7"/><path fill="#21d40f" d="M382.188 145.486l30.258-43.644-24.076 14.662-6.182 28.982z"/><path d="M388.37 116.505L353.511 97.13l-1.346 28.95 30.023 19.406 6.182-28.981z" class="cls-6"/><path fill="#4a9ad0" d="M233.984 7.728l107.783 17.24-66.208 46.571c-7.143 0-8.544 3.69-33.575-2.13-27.696-6.437-65.56-26.212-93.35-32.227"/><path fill="#93c2e1" d="M148.635 37.182l26.651 162.417 93.13 44.975 6.982-173.458-126.763-33.934z"/></svg>