<svg xmlns="http://www.w3.org/2000/svg" role="img" viewBox="0.48 -3.27 300.04 61.79"><title>OpenFlipper logo</title><path d="M22.7 3c-1.6.5-4.8 2.7-7.2 4.9C13 10.2 10.4 12 9.6 12c-.9 0-2 .9-2.6 2-.9 1.7-.8 2 .7 2 1.6 0 1.8 1 1.6 10.7-.1 6-.6 12.1-1.2 13.6-.8 2-.8 3.4 0 4.9 1.1 2 1.2 2 2.5-1 .9-2.3 2-3.2 3.7-3.2 1.3 0 2.7-.3 3-.7 1-.9-2.3-4.3-4.1-4.3-1.9 0-1.1-8.4 1.4-13.2 3-6 7.4-9.7 7.4-6.3 0 .8.5 1.5 1 1.5.6 0 1-1 1-2.3 0-3.5 1.9-4.7 7.7-4.7 6.2 0 6.7-1.2 1.9-5.2-3.8-3.2-7.1-4-10.9-2.8zm8.2 3.3C32.3 8.1 31.3 9 28 9c-1.5 0-3.5.9-4.5 2s-2.4 2-3.1 2c-1.2 0-5.9 5-8 8.6-1 1.6-1.1 1.1-1-2.9.2-4.4.6-5 5.5-9.2C21.1 5.9 22.9 5 26 5c2 0 4.3.6 4.9 1.3zm133.6-.6c-1.9.4-2 1-1.5 18.6l.5 18.2 2.9.3c4 .5 4.9-.9 3.1-4.6-1.3-2.5-1.5-6.1-1.3-18.2.2-9.6-.1-15-.7-14.9-.5.1-1.9.4-3 .6zm1.6 15.3c0 7.3.5 14.4 1 15.8 1.1 2.8-.3 5.3-1.7 3.1-.8-1.4-1.5-30.9-.7-32.2 1.1-1.9 1.4.7 1.4 13.3zM134 24.5V43h6V26h6.5c6.3 0 6.5-.1 6.5-2.5s-.2-2.5-6.5-2.5H140v-9h18V6h-24v18.5zM155 9c0 .5-3.2.8-7.1.9-3.9 0-7.8.6-8.5 1.2-1.9 1.5-1.8 6.9.2 9.7 1.4 2.1 1.4 2.5 0 4.7-1 1.5-1.6 4.6-1.6 8.4 0 3.3-.4 6.3-1 6.6-1.1.7-1.2.2-1.2-4.5 0-1.7.1-8.6.1-15.4l.1-12.5 9.5.1c5.2 0 9.5.4 9.5.8zm23.1-1.6c-2.6 3.1 1.4 7.1 4.5 4.5 2.1-1.7 1.4-5.3-1.2-5.7-1.1-.2-2.6.4-3.3 1.2zm3.4 1.6c.3.5.2 1-.4 1-.5 0-1.3-.5-1.6-1-.3-.6-.2-1 .4-1 .5 0 1.3.4 1.6 1z"/><path d="M34.4 12.8l-3.1.3 1.8 3.7c2.1 4.1 2.4 8 .9 13.3-1.3 4.5-3.8 6.8-8.1 7.5-4.7.8-7.8-1.9-9.4-8.1l-1.2-5-.8 4.4c-.6 3.9-.5 4.6 1.8 6.5 1.4 1.1 2.7 3.2 2.9 4.6.3 2.4.6 2.5 6.3 2.5 6.6 0 10-1.8 13-6.8 3.1-5.2 3.2-18.3.2-21.8-.7-.8-2.5-1.3-4.3-1.1zm4.2 5.8c1 5.6-.2 14-2.5 17.3-2.7 3.8-12.9 7.1-13.8 4.5-.2-.6 1.2-1 3.3-1 3.1 0 4.3-.7 7.1-4 3.4-3.9 3.5-4 3.1-12.2-.2-5.9 0-8.2.9-8.2.7 0 1.5 1.6 1.9 3.6zM46 34.5V53h3c3 0 3-.1 3-5.4v-5.4l3.8.5c9.2 1.2 14.7-4.7 14-15-.4-5.2-.9-6.4-3.6-8.8-2.5-2.3-4.2-2.9-7.7-2.9-2.4 0-4.7.4-5 1-.3.5-1.1 1-1.6 1-.6 0-.7-.5-.4-1 .4-.6-.7-1-2.4-1H46v18.5zM51 19c1.2.7 1.2 1.2.2 2.2-1.7 1.7-1.5 14.8.2 17 .7 1 1.9 1.8 2.7 1.9.8.1.3.4-1.1.8-2.2.6-2.5 1.3-2.8 5.4-.2 2.6-.7 4.7-1.3 4.7-.5 0-.9-6.8-.9-16.5 0-9.1.3-16.5.8-16.5.4 0 1.4.5 2.2 1zm14.1 1.7c1.9 2.2 2.6 4.1 2.8 8.6.3 5.3.1 5.9-2.9 8.7-1.8 1.7-3.9 3-4.7 3-1 0-.4-1 1.5-2.8 7.1-6.6 4.5-18.2-4.3-19.5-2.5-.3-2.3-.4 1.1-.6 3.2-.1 4.5.4 6.5 2.6zM62 23c2.7 2.7 2.7 8.9-.1 12.4-1.7 2.2-2.8 2.7-5.8 2.4l-3.6-.3-.3-6.9c-.2-3.8-.1-7.5.2-8.3.8-2.1 7.3-1.6 9.6.7zm17.9-5.3c-4 2.5-5.9 6.4-5.9 12.6 0 9 5.3 13.4 15.1 12.5 6.1-.6 7.5-1.8 5.9-4.8-.9-1.6-1.5-1.9-2.3-1.1-1.9 1.9-8.5 1.3-10.7-.9-4.1-4.1-2.8-5 7.5-5H99v-4.1c0-3.3-.6-4.7-3.4-7.5-2.9-2.9-4-3.4-8.2-3.4-2.7 0-6.1.8-7.5 1.7zm14 2.9c3.9 3.2 4.4 8.4.9 8.4-1.7 0-1.9-.3-1-1.2 3.5-3.5-1.4-9.1-7.5-8.7-5.3.5-9.7 6.3-6.2 8.4.7.5.5 1.3-.6 2.5-2.2 2.4-1.3 5.2 2.6 8.5C84 40 84.6 41 83.7 41c-.9 0-2.9-1.2-4.6-2.6-2.8-2.3-3.1-3.1-3.1-8.6 0-5.3.3-6.3 2.9-8.9 4-4 10.5-4.1 15-.3zM92 22.9c1.9 3.6 1.2 4.1-5.5 4.1-6.9 0-7.8-.7-4.5-4 2.7-2.7 8.5-2.7 10-.1zm-2.7 17.8c-.7.2-1.9.2-2.5 0-.7-.3-.2-.5 1.2-.5s1.9.2 1.3.5zM104 29.5V43h6v-9.8c0-10.8.6-12.2 5.5-12.2s5.5 1.4 5.5 12.2V43h6V32.6c0-9.8-.2-10.6-2.6-13.5-2.2-2.7-3.2-3.1-7.4-3.1-3.1 0-5.2.5-6.1 1.6-1.1 1.4-1.3 1.4-2.1 0-.5-.9-1.8-1.6-2.8-1.6-1.9 0-2 .8-2 13.5zm5.1-7.2c-.6.6-1.1 4.5-1.1 9.3 0 4.6-.4 8.6-1 8.9-1.1.7-1.5-20.7-.4-21.8.4-.3 1.3.1 2.2.9 1.1 1.1 1.2 1.8.3 2.7zm14-2.1c1.6 1.7 1.9 3.7 1.9 10.9 0 4.8-.4 9.1-1 9.4-.6.4-1-2.4-1-7.8 0-9.8-1.8-13.3-7.3-14-2.7-.3-2.5-.4 1.2-.5 3.4-.2 4.8.3 6.2 2zm50.9-1.7c0 1.9.5 2.5 2.1 2.5 1.9 0 2 .5 1.7 11l-.3 11h6.3l.1-13.5.1-13.5h-5c-4.7 0-5 .2-5 2.5zm7.8 8.2c.1 9.9-.3 13.3-1.9 13.3-.6 0-1-3.1-.9-8.3.2-10.8.2-10.3-1.6-12.1-1.4-1.5-1.3-1.6 1.3-1.6h2.9l.2 8.7zm8.2 7.8V53h3c3 0 3-.1 3-5.4v-5.3l4.8.4c8.4.7 13.3-3.9 13.4-12.6 0-6.6-1.7-10.8-5.3-12.6-3.4-1.8-10-2-11.7-.3-.9.9-1.2.9-1.2 0 0-.7-1.3-1.2-3-1.2h-3v18.5zm6.2-15.5c.6 0 .4.8-.5 1.8-2.1 2.3-2.3 14.8-.3 17.4 1.9 2.6 7.9 2.3 11.1-.5 5.4-4.6 4-15.9-2.3-18.4l-2.7-1.1 2.6-.1c4.6-.2 7.2 2.9 7.9 9.3.3 3.1.2 5.6-.2 5.6s-.7.3-.6.7c.5 1.9-1.5 5.1-3.8 6.1-1.4.7-4.4 1.2-6.7 1.2-4.1 0-7 1-6.8 2.4.4 3.1-.1 7.6-.9 7.6-.6 0-1-6.2-1-16.6 0-14.7.2-16.5 1.6-16 .9.3 2 .6 2.6.6zm10.2 4.2c.9 1.2 1.6 4.2 1.6 6.5 0 5.7-2.7 8.5-7.8 8.1l-3.7-.3-.3-7.4c-.3-8.2.2-9.1 5.5-9.1 2.2 0 3.7.7 4.7 2.2zM219 34.5V53h3c3 0 3-.1 3-5.4v-5.3l4.8.4c8.3.7 13.4-4 13.5-12.4.1-9.5-3.9-14.3-12.1-14.3-2.1 0-4.3.5-5 1.2-.9.9-1.2.9-1.2 0 0-.7-1.3-1.2-3-1.2h-3v18.5zm5.6-15.4c.3.6.1 1.6-.5 2.2-.6.6-1.1 4.1-1.1 7.8 0 5.3.4 7.2 2.2 9.5 1.2 1.6 1.8 2.6 1.4 2.2-1.7-1.4-3.6 2.2-3.6 6.7 0 2.7-.4 4.4-.9 4-.6-.3-1-7.8-1-17-.1-13.7.2-16.5 1.3-16.5.8 0 1.8.5 2.2 1.1zm6.1-.5c-.3.3-1.2.4-1.9.1-.8-.3-.5-.6.6-.6 1.1-.1 1.7.2 1.3.5zm7.3 1.3c2.1 1.7 2.5 2.9 2.8 8.8.3 6.1.2 7-2 9-1.3 1.3-3.9 2.5-5.8 2.8-2.3.3-2.7.2-1.3-.3 1.2-.4 3.3-1.7 4.7-2.9 2.2-1.9 2.6-3.1 2.6-7.6 0-5.4-.8-6.9-5.5-10.2-2-1.4-2-1.4 0-1.4 1.1-.1 3.1.8 4.5 1.8zm-2.6 3c1.1 1.3 1.8 3.7 1.9 6.7 0 5.9-2.7 8.7-8.2 8.2l-3.6-.3-.3-7.4c-.2-5.3.1-7.7 1-8.2 2.4-1.5 7.4-1 9.2 1zm17.8-4.9c-8.3 5.1-8.1 19.5.3 23.4 3.9 1.9 10.4 2.1 13.9.5 2.1-1 2.3-1.5 1.4-3.5-.9-1.8-1.5-2.1-2.9-1.4-3.6 2-8.6 1.2-10.8-1.6-1.2-1.5-2.1-3.1-2.1-3.5 0-.5 4.5-.9 10-.9h10v-2.5c0-10.1-10.9-15.9-19.8-10.5zm2.7 2.3c-3.2 2.8-4.3 5.5-2.8 7.4.9 1 .9 1.7.1 2.5-.7.7-1.2 1.8-1.2 2.6 0 2.3 4.1 7.4 5.6 6.8.7-.3 1.6-.1 1.9.4.4.6-.1 1-.9 1-10 0-13.1-15.3-4.4-21.4 3.4-2.4 4.7-1.8 1.7.7zm12.3.4c1.9 1.7 3.3 6.7 2.3 8.2-1 1.8-3.6 0-3-2 1-3.1-.5-6-3.8-7.5l-3.2-1.5 3 .6c1.7.4 3.8 1.3 4.7 2.2zm-2.6 2.8c.9 1.4 1.4 2.8 1.2 3.1-.3.3-3.6.4-7.3.2l-6.7-.3 2.2-2.8c2.9-3.7 8.2-3.8 10.6-.2zm-.1 16.5c-.3.5-1.6 1-2.8.9-2-.1-2-.2.3-.9 1.4-.4 2.6-.8 2.8-.9.2-.1 0 .3-.3.9zM277 29.5V43h6v-7.4c0-9.1 1.4-13.4 4.6-14.2 1.3-.3 3-.4 3.8-.1 1.1.4 3.6-2.9 3.6-4.8 0-1-7.2-.5-9.3.6-1.6.9-2.2.9-2.5 0-.2-.6-1.7-1.1-3.3-1.1H277v13.5zm5.9-10.3c1.7 1 1.7 1.4.5 3.3-1.7 2.6-2.2 5.5-2.3 12.4-.1 3-.4 5.1-.8 4.7-1.1-1.1-1.2-21.6-.1-21.6.4 0 1.7.5 2.7 1.2z"/></svg>