<svg xmlns="http://www.w3.org/2000/svg" role="img" viewBox="-2.77 -2.77 143.78 42.28"><title>OpenProductionDataIO logo</title><path fill="#5f6368" d="M89.75 18.62A8.36 8.36 0 0 1 81.2 10a8.33 8.33 0 0 1 2.43-6.1 8.25 8.25 0 0 1 6.12-2.48 7.62 7.62 0 0 1 6 2.69l-1.47 1.47a5.64 5.64 0 0 0-4.53-2.14 6.22 6.22 0 0 0-4.57 1.84A6.38 6.38 0 0 0 83.36 10a6.38 6.38 0 0 0 1.82 4.74 6.18 6.18 0 0 0 4.57 1.84 6.44 6.44 0 0 0 5-2.42l1.54 1.5a8 8 0 0 1-2.87 2.17 8.67 8.67 0 0 1-3.67.79zm10.37-16.83v16.47H98V1.79zm1.82 10.83a6 6 0 0 1 1.64-4.3 5.57 5.57 0 0 1 4.16-1.7 5.51 5.51 0 0 1 4.14 1.7 5.92 5.92 0 0 1 1.65 4.3 5.87 5.87 0 0 1-1.65 4.3 5.47 5.47 0 0 1-4.14 1.7 5.53 5.53 0 0 1-4.16-1.7 6 6 0 0 1-1.64-4.3zm2.12 0a4.1 4.1 0 0 0 1.06 2.94 3.6 3.6 0 0 0 5.24 0 4.1 4.1 0 0 0 1.06-2.94 4.07 4.07 0 0 0-1.06-2.92 3.56 3.56 0 0 0-5.24 0 4.07 4.07 0 0 0-1.06 2.92zm21.17 5.64h-2v-1.57h-.1a3.75 3.75 0 0 1-1.48 1.38 4.23 4.23 0 0 1-2.08.55 4.18 4.18 0 0 1-3.19-1.18 4.74 4.74 0 0 1-1.11-3.37V7h2.11v6.94a2.49 2.49 0 0 0 2.79 2.76 2.63 2.63 0 0 0 2.11-1 3.69 3.69 0 0 0 .85-2.45V7h2.12zm7.16.36a5 5 0 0 1-3.79-1.74 6.24 6.24 0 0 1-1.6-4.26 6.2 6.2 0 0 1 1.56-4.25 4.94 4.94 0 0 1 3.79-1.75 4.78 4.78 0 0 1 2.27.53 4 4 0 0 1 1.58 1.4h.09L136.24 7V1.79h2.11v16.47h-2v-1.57h-.09a4 4 0 0 1-1.58 1.4 4.78 4.78 0 0 1-2.29.53zm.35-1.93a3.21 3.21 0 0 0 2.55-1.13 4.17 4.17 0 0 0 1-2.94 4.21 4.21 0 0 0-1-2.92 3.23 3.23 0 0 0-2.55-1.15 3.29 3.29 0 0 0-2.55 1.15 4.21 4.21 0 0 0-1 2.92 4.14 4.14 0 0 0 1 2.92 3.29 3.29 0 0 0 2.55 1.15z"/><g data-name="75x24px"><path fill="#4285f4" d="M9.49 18.62A9.46 9.46 0 0 1 0 9.31 9.46 9.46 0 0 1 9.49 0a8.91 8.91 0 0 1 6.41 2.57l-1.81 1.79a6.51 6.51 0 0 0-4.6-1.82 6.69 6.69 0 0 0-6.71 6.77 6.69 6.69 0 0 0 6.71 6.77 6.25 6.25 0 0 0 4.72-1.87A5.26 5.26 0 0 0 15.6 11H9.49V8.47h8.6a8.38 8.38 0 0 1 .13 1.59A8.37 8.37 0 0 1 16 16a8.57 8.57 0 0 1-6.51 2.62z"/><path fill="#ea4335" d="M31.52 12.62a5.94 5.94 0 1 1-11.87 0 5.94 5.94 0 1 1 11.87 0zm-2.6 0a3.35 3.35 0 1 0-6.67 0 3.35 3.35 0 1 0 6.67 0z"/><path fill="#fbbc04" d="M44.83 12.62a5.94 5.94 0 1 1-11.87 0 5.94 5.94 0 1 1 11.87 0zm-2.6 0a3.35 3.35 0 1 0-6.68 0 3.35 3.35 0 1 0 6.68 0z"/><path fill="#4285f4" d="M57.8 7v10.76c0 4.42-2.63 6.24-5.73 6.24a5.75 5.75 0 0 1-5.34-3.54l2.31-1a3.32 3.32 0 0 0 3 2.14c2 0 3.22-1.23 3.22-3.52v-.86h-.06a4.16 4.16 0 0 1-3.2 1.4 6 6 0 0 1 0-12A4.22 4.22 0 0 1 55.2 8h.09V7zm-2.33 5.66A3.39 3.39 0 0 0 52.25 9a3.48 3.48 0 0 0-3.35 3.66 3.45 3.45 0 0 0 3.35 3.61 3.35 3.35 0 0 0 3.22-3.62z"/><path fill="#34a853" d="M62.43.64v17.62h-2.64V.64z"/><path fill="#ea4335" d="M72.83 14.6l2.06 1.4a6 6 0 0 1-5 2.66 5.81 5.81 0 0 1-5.89-6 5.52 5.52 0 0 1 10.75-2.18l.27.69-8 3.31a3.07 3.07 0 0 0 2.92 1.82 3.44 3.44 0 0 0 2.89-1.7zm-6.31-2.16l5.38-2.22A2.34 2.34 0 0 0 69.66 9a3.29 3.29 0 0 0-3.14 3.44z"/></g><path d="M17.18859 32.84772c-.36414.45807-.85544.68637-1.47535.68637-.6199 0-1.11409-.2283-1.48401-.68637-.36848-.45662-.55344-1.10687-.55344-1.95075 0-.84243.18496-1.49268.55344-1.95075.36992-.45662.86411-.68637 1.48401-.68637.61991 0 1.11121.22975 1.47535.68926.36414.45807.54621 1.10832.54621 1.94786 0 .84388-.18207 1.49413-.54621 1.95075zm.97826 1.13866c.7543-.71527 1.13288-1.74411 1.13288-3.08941 0-1.3713-.37859-2.40159-1.13288-3.08796-.56644-.58378-1.3843-.87423-2.4536-.87423-1.07075 0-1.88862.29045-2.45362.87423-.75862.68637-1.13866 1.71666-1.13866 3.08796 0 1.3453.38004 2.37414 1.13866 3.08941.565.58234 1.38287.87278 2.45361.87278 1.0693 0 1.88717-.29045 2.45361-.87278zm-2.4536-7.0516zm8.18592 3.8148c.19507.32801.29189.7066.29189 1.13288 0 .51876-.10549.93347-.3179 1.24415-.21097.31212-.51876.46818-.92191.46818-.27744 0-.51731-.07659-.72106-.22832-.34246-.26154-.51297-.71382-.51297-1.35685 0-.40604.05057-.74128.15317-1.00572.19652-.49853.55632-.74707 1.08086-.74707.43783 0 .75284.16473.94792.49275zm1.11265-1.04185c-.4494-.47684-.99705-.71527-1.64297-.71527-.44361 0-.82653.12283-1.14877.36992-.17629.13872-.34247.32946-.49708.56933v-.81787h-1.3872v7.7163h1.432v-2.88566c.15316.23409.30922.41182.46817.53465.29045.21964.65604.32946 1.09676.32946.69071 0 1.2557-.25577 1.69499-.7673.43783-.51153.65747-1.25426.65747-2.22963 0-.9248-.22397-1.62563-.67337-2.10392zm3.12409.7673c.18496-.20952.44506-.31501.7803-.31501.30778 0 .56644.0997.77452.29767.20808.19797.32368.48841.34824.87134h-2.2513c.04768-.35981.16328-.64303.34824-.854zm2.02444-1.24992c-.36847-.17196-.78463-.25866-1.24414-.25866-.77597 0-1.40743.25577-1.89295.7673-.48552.51153-.72828 1.24703-.72828 2.20507 0 1.02306.26877 1.76145.80776 2.21518.53753.45373 1.15888.6806 1.86404.6806.854 0 1.51725-.27022 1.99121-.80776.3049-.33957.47541-.67337.51298-1.00138h-1.47824c-.07803.16328-.16762.29044-.26877.38147-.1864.16907-.42916.25433-.72683.25433-.28178 0-.52165-.06936-.72106-.20953-.32946-.22253-.50286-.61268-.52309-1.16756h3.7888c.00722-.4783-.00868-.84388-.0448-1.0982-.06503-.4335-.20519-.81353-.42194-1.143-.24132-.37136-.54477-.64446-.91469-.81786zm-1.14299-.25866zm7.97351.46529c-.36414-.30056-.83232-.4494-1.40454-.4494-.45806 0-.83521.11127-1.13288.33525-.16617.12427-.34246.32946-.52887.61412v-.80775h-1.39731v5.52712h1.44355v-2.99693c0-.34247.04769-.6228.14161-.84388.18351-.41616.5202-.62424 1.0115-.62424.39882 0 .67048.14161.81209.42628.07803.15606.11704.38003.11704.67048v3.36829h1.48402v-3.7281c0-.69504-.18207-1.19212-.54621-1.49124zm-1.93774-.46529zm7.8449-.25432c.20519.16618.30778.44362.30778.83377 0 .3887-.10259.67337-.30778.85399-.20374.17918-.4913.26877-.85977.26877h-1.45801v-2.20507h1.458c.36848 0 .65604.08381.85978.24854zm1.18635 2.69782c.44794-.36559.67047-.98983.67047-1.87417 0-.8092-.22252-1.40743-.67047-1.79324-.44651-.38582-1.04619-.57945-1.79759-.57945h-3.26136v7.48799h1.55482v-2.69203h1.5895c.82943 0 1.46812-.18352 1.91463-.5491zm4.80317-2.42616c-.01733-.00144-.04045-.00144-.06791-.00144-.4335 0-.78608.1127-1.0563.33957-.16617.13583-.36124.3887-.58522.75718v-.96526H45.7967v5.53724h1.458v-2.6458c0-.44505.05636-.77307.16763-.98693.1994-.37859.591-.56788 1.17333-.56788.0448 0 .1026.00144.1734.00433.07081.00434.15173.01012.24421.02023v-1.48257c-.06502-.00433-.10693-.00578-.12571-.00867zm4.43327 4.19483c-.22687.30056-.552.45229-.97538.45229s-.74995-.15173-.97826-.45229c-.22831-.302-.34247-.72972-.34247-1.28605 0-.55488.11416-.9826.34247-1.28316.2283-.29911.55488-.44939.97826-.44939.42339 0 .74851.15028.97538.4494.22686.30055.33957.72827.33957 1.28315 0 .55633-.11271.98405-.33957 1.28605zm1.15744.79909c.46818-.57656.70227-1.2716.70227-2.08514 0-.79908-.23409-1.49124-.70227-2.0779-.46673-.58523-1.17623-.87857-2.12848-.87857-.95081 0-1.66031.29334-2.12849.87856-.46673.58667-.70082 1.27883-.70082 2.07791 0 .81354.23409 1.50858.70082 2.08514.46818.578 1.17768.867 2.12849.867.95225 0 1.66175-.289 2.12848-.867zm-2.12848-5.01126zm6.80305.23698c-.26154-.14739-.55921-.22109-.89445-.22109-.72828 0-1.30917.27022-1.74556.8121-.43494.54187-.6517 1.28604-.6517 2.23107 0 .81932.22109 1.4898.66181 2.01433.44217.5231.98694.78464 1.6343.78464.39304 0 .72106-.07514.98549-.22398.26444-.14883.49853-.38726.70516-.71672v.7673h1.40743V27.1732h-1.46812v2.64146c-.16184-.2601-.37426-.46384-.63436-.61123zm.35547 3.94485c-.21386.30345-.52453.45662-.93491.45662-.41038 0-.71528-.15317-.91758-.45951-.20085-.30634-.302-.71528-.302-1.2268 0-.47397.0997-.87134.29767-1.19213.19797-.31935.50864-.47974.93203-.47974.27744 0 .52164.08814.73117.26443.34246.29045.51297.77597.51297 1.45223 0 .48552-.10693.88-.31934 1.1849zm4.50552-4.03444h-1.48258v3.33795c0 .63291.07948 1.11265.23843 1.43777.28466.58956.83666.88434 1.65597.88434.28467 0 .5332-.03757.74418-.1127.21096-.0737.4306-.21242.65747-.41617.07514-.06502.13872-.13872.19363-.22397.05347-.08381.08815-.13583.10115-.15173v.78175h1.40743v-5.53724h-1.46812v3.01282c0 .35547-.04768.64158-.14161.85833-.18351.40027-.52164.59968-1.01728.59968-.38581 0-.64447-.14017-.77596-.42194-.07514-.15895-.11271-.39593-.11271-.71094zm1.01583-.14739zm7.20332 2.13426H73.717c-.08092-.78897-.34247-1.33951-.78464-1.65163-.44216-.31068-1.01005-.46674-1.7051-.46674-.81497 0-1.45511.26444-1.9204.79186-.46384.52887-.69504 1.26871-.69504 2.21952 0 .84388.20952 1.53026.63002 2.05768.41905.52887 1.07508.79331 1.9652.79331.89156 0 1.56349-.31646 2.01722-.95081.28466-.39304.44361-.8092.47685-1.24993h-1.47824c-.03034.2919-.1156.52887-.25865.71239-.14161.18207-.38293.27455-.72106.27455-.4783 0-.80342-.2312-.97537-.69216-.09537-.24709-.14306-.57366-.14306-.9797 0-.42628.04769-.76875.14306-1.02596.17918-.48407.51297-.72683 1.00138-.72683.34102 0 .5939.11126.75574.33524.1127.16617.18207.35258.20808.55921zm-.9797-2.13426zm2.89 1.2297h.77307v3.40875c0 .34535.08092.60112.24276.7673.25143.2601.71817.37858 1.4031.35546l.68492-.026v-1.08231a2.28442 2.28442 0 0 1-.1445.00867c-.04912.00144-.09537.00289-.13871.00289-.29478 0-.47107-.0289-.52887-.08526-.0578-.0549-.0867-.19652-.0867-.42338v-2.92613h.89879v-1.03173h-.8988v-1.54326h-1.43199v1.54326h-.77308zm5.52279-1.74268v-1.33662h-1.46813v1.33662zm-1.46813.66037v5.53724h1.46813v-5.53724zm6.3291 4.06478c-.22686.30056-.55198.45229-.97537.45229-.42339 0-.74851-.15173-.97682-.45229-.22976-.302-.34391-.72972-.34391-1.28605 0-.55488.11415-.9826.34391-1.28316.22831-.29911.55343-.44939.97682-.44939.42339 0 .74851.15028.97537.4494.22687.30055.34103.72827.34103 1.28315 0 .55633-.11416.98405-.34103 1.28605zm1.1589.79909c.46673-.57656.70082-1.2716.70082-2.08514 0-.79908-.23409-1.49124-.70083-2.0779-.46817-.58523-1.17767-.87857-2.12848-.87857-.95226 0-1.66175.29334-2.12849.87856-.46817.58667-.70082 1.27883-.70082 2.07791 0 .81354.23265 1.50858.70083 2.08514.46673.578 1.17622.867 2.12848.867.95081 0 1.6603-.289 2.12848-.867zm-2.12849-5.01126zm8.3391.46529c-.36414-.30056-.83233-.4494-1.40455-.4494-.45806 0-.8352.11127-1.13287.33524-.16618.12427-.34247.32946-.52887.61413v-.80776h-1.39732v5.52713h1.44356v-2.99693c0-.34247.04624-.6228.1416-.84388.18352-.41616.5202-.62424 1.0115-.62424.39883 0 .67049.14161.8121.42627.07803.15606.11704.38004.11704.67048v3.3683h1.48401v-3.7281c0-.69505-.18206-1.19213-.5462-1.49124zm-1.9392-.46529zm5.45632-.50286h1.44356c.71094 0 1.18635.20374 1.42477.61268.23843.40749.35836.99271.35836 1.75423 0 .55199-.07947 1.02884-.23987 1.42766-.29044.72828-.80486 1.09242-1.54326 1.09242h-1.44355zm2.86544-1.13722c-.30778-.10259-.6936-.15606-1.15744-.16328h-3.22669v7.48799h3.22669c1.12999 0 1.96664-.46529 2.50852-1.39732.40026-.6907.59967-1.53314.59967-2.52875 0-.39304-.04768-.8063-.14161-1.2398-.09537-.4335-.2731-.83666-.5332-1.20947-.32513-.46096-.7514-.77741-1.27594-.94937zm6.06611 4.63267v.53899c-.01011.48407-.14739.81787-.40893.99994-.263.18351-.55055.27455-.86122.27455-.19652 0-.36414-.05491-.49997-.16473-.13728-.10982-.20664-.289-.20664-.5361 0-.27744.11271-.48263.33524-.61557.13294-.07803.35114-.14305.65603-.19796l.32513-.06069c.16184-.03035.29044-.06358.38292-.09826.09393-.03613.18496-.08237.27744-.14017zm-.87856-.67626l-.49274.0607c-.55922.07224-.9826.19073-1.27016.35691-.52598.3049-.78752.79764-.78752 1.47823 0 .52454.16328.93058.48985 1.2167.32657.2861.74129.42916 1.2427.42916.3916 0 .74418-.08959 1.0563-.27022.2601-.15172.4913-.33668.6907-.55343.01012.12571.02313.23698.04047.33524.01734.09826.04768.20374.09103.31501h1.57505v-.21386c-.09392-.04335-.16617-.0997-.21386-.16762-.04624-.06647-.07514-.19508-.08525-.38582-.00723-.24998-.01012-.46384-.01012-.64013v-2.53887c0-.66759-.23553-1.12132-.7066-1.36263-.47107-.23987-1.00861-.3598-1.61551-.3598-.93058 0-1.58806.24275-1.97098.73116-.23987.31212-.3757.7095-.40605 1.19357h1.39732c.03323-.21386.10115-.38292.2023-.50719.14305-.17051.38437-.25432.72683-.25432.3049 0 .5361.04335.6936.1286.1575.0867.23554.24421.23554.47107 0 .18641-.1026.32224-.30923.41038-.1156.05202-.30634.09393-.57367.12716zm.07514-2.31633zm2.96658 1.2297h.77308v3.40875c0 .34535.08092.60112.2442.7673.24999.2601.71673.37858 1.40166.35546l.68492-.026v-1.08231a2.28442 2.28442 0 0 1-.1445.00867c-.04913.00144-.09536.00289-.13872.00289-.29477 0-.47106-.0289-.52886-.08526-.0578-.0549-.0867-.19652-.0867-.42338v-2.92613h.89879v-1.03173h-.8988v-1.54326h-1.43199v1.54326h-.77308zm7.08773 1.7629v.53898c-.01012.48407-.14739.81787-.40894.99994-.26299.18351-.55054.27455-.86122.27455-.19652 0-.36413-.05491-.50141-.16473-.13583-.10982-.20519-.289-.20519-.5361 0-.27744.11127-.48263.33524-.61557.13294-.07803.35114-.14305.65603-.19796l.32513-.06069c.16184-.03035.29044-.06358.38292-.09826.09393-.03613.18496-.08237.27744-.14017zm-.88-.67627l-.49275.0607c-.55777.07224-.98115.19073-1.26871.35691-.52598.3049-.78752.79764-.78752 1.47823 0 .52454.16328.93058.48985 1.2167.32657.2861.74128.42916 1.24125.42916.39304 0 .74562-.08959 1.05774-.27022.2601-.15172.4913-.33668.69071-.55343.01012.12571.02312.23698.04046.33524.01734.09826.04769.20374.09104.31501h1.57505v-.21386c-.09537-.04335-.16617-.0997-.21386-.16762-.04624-.06647-.07514-.19508-.08525-.38582-.00723-.24998-.01012-.46384-.01012-.64013v-2.53887c0-.66759-.23553-1.12132-.7066-1.36263-.47107-.23987-1.00861-.3598-1.61551-.3598-.93203 0-1.58806.24275-1.97098.73116-.23987.31212-.3757.7095-.40605 1.19357h1.39587c.03468-.21386.1026-.38292.20375-.50719.14305-.17051.38437-.25432.72683-.25432.3049 0 .5361.04335.6936.1286.1575.0867.23554.24421.23554.47107 0 .18641-.1026.32224-.30923.41038-.1156.05202-.30634.09393-.57511.12716zm.07658-2.31633zm5.08495 5.68463v-7.48799h-1.55337v7.48799zm-.7774-7.63538zm7.02414 5.83202c-.36414.45806-.85688.68637-1.47534.68637-.61991 0-1.11554-.2283-1.48402-.68637-.36992-.45662-.55343-1.10687-.55343-1.95075 0-.84244.18351-1.49269.55343-1.95075.36848-.45662.86411-.68638 1.48402-.68638.61846 0 1.1112.22976 1.47534.68927.36414.45806.54621 1.10831.54621 1.94786 0 .84388-.18207 1.49413-.54621 1.95075zm.97826 1.13866c.7543-.71528 1.13288-1.74411 1.13288-3.08941 0-1.3713-.37859-2.40159-1.13288-3.08797-.56644-.58378-1.3843-.87422-2.4536-.87422-1.07075 0-1.88862.29044-2.45506.87422-.75862.68638-1.13721 1.71666-1.13721 3.08797 0 1.3453.37859 2.37413 1.13721 3.08941.56644.58233 1.38431.87278 2.45506.87278 1.0693 0 1.88717-.29045 2.4536-.87278zm-2.4536-7.0516z"/></svg>