<svg xmlns="http://www.w3.org/2000/svg" role="img" viewBox="-3.26 -3.26 267.51 286.26"><title>OpenEXR logo</title><style>svg {enable-background:new 0 0 261.43 280.05}</style><path fill="#9e0b0f" d="M27.37 47.73S63.69 2.32 129.44 2.32s95.9 38.51 97.35 45.41c1.46 6.9 1.82 16.71-2.18 21.8-3.99 5.08-83.18 74.83-83.18 74.83l48.31 62.12s7.99 17.07 69.38 20.71h-99.53v-5.81s15.98.73 16.71-4.36c.73-5.09 3.27-2.54-1.45-9.08S131.62 152 131.62 152l-63.57 54.49S49.99 223.14 65.87 241c2.91 3.27 68.29 67.57 166.01-10.17-25.06 34.87-81.37 47.95-101.35 46.86-19.98-1.09-69.02-8.72-90.09-32.33-23.97-23.97-12.17-38.32 2.91-53.4 6.58-6.58 70.83-61.39 70.83-61.39L69.51 73.88S61.16 57.9 2.31 57.9v-3.27h98.81v5.09h-8.36s-14.89 2.54-9.44 10.53c5.45 7.99 40.68 53.04 40.68 53.04l68.29-58.12s18.53-17.44-20.71-43.23C129.44-.58 58.97 16.49 27.37 47.73z"/><path fill="#fff" d="M35.99 125.28c5.17-.19 9.38 1.32 12.61 4.53 3.23 3.21 4.85 7.22 4.85 12.05 0 4.12-1.21 7.74-3.62 10.87-3.19 4.15-7.7 6.23-13.53 6.23-5.84 0-10.36-1.98-13.56-5.94-2.52-3.13-3.78-6.84-3.78-11.14 0-4.82 1.64-8.84 4.92-12.06 3.28-3.22 7.32-4.73 12.11-4.54zm.29 1.53c-2.97 0-5.23 1.52-6.78 4.55-1.26 2.49-1.89 6.07-1.89 10.73 0 5.54.97 9.64 2.92 12.29 1.36 1.85 3.26 2.78 5.7 2.78 1.64 0 3.02-.4 4.12-1.2 1.4-1.02 2.5-2.65 3.28-4.9.78-2.24 1.17-5.17 1.17-8.78 0-4.29-.4-7.51-1.2-9.64-.8-2.13-1.82-3.64-3.05-4.51-1.24-.88-2.66-1.32-4.27-1.32zm29.24 29.12v8.33c0 1.15.09 1.93.28 2.35.18.41.47.72.85.91.38.19 1.13.29 2.25.29v.89H56.13v-.89c.99-.03 1.72-.31 2.2-.84.32-.37.48-1.32.48-2.85v-23.64c0-1.58-.18-2.59-.55-3.03-.37-.44-1.08-.69-2.13-.75v-.89h9.39v2.95c.78-1.15 1.58-1.98 2.4-2.49 1.17-.75 2.43-1.13 3.81-1.13 1.64 0 3.14.52 4.49 1.56s2.37 2.47 3.08 4.3c.7 1.83 1.05 3.8 1.05 5.9 0 2.27-.36 4.34-1.09 6.22-.73 1.88-1.78 3.3-3.16 4.29a7.786 7.786 0 0 1-4.61 1.47c-1.23 0-2.38-.27-3.45-.82-.81-.41-1.64-1.12-2.52-2.13zm0-2.41c1.37 1.95 2.84 2.92 4.41 2.92.86 0 1.57-.46 2.13-1.37.83-1.34 1.24-3.9 1.24-7.66 0-3.86-.45-6.51-1.37-7.93-.61-.94-1.42-1.41-2.44-1.41-1.61 0-2.94 1.17-3.98 3.5v11.95zm37.57-7.31H90.81c.14 2.97.93 5.32 2.37 7.04 1.1 1.33 2.43 1.99 3.98 1.99.96 0 1.83-.27 2.61-.8.78-.54 1.62-1.5 2.51-2.89l.81.53c-1.21 2.47-2.55 4.23-4.02 5.26-1.47 1.03-3.17 1.55-5.1 1.55-3.32 0-5.84-1.28-7.54-3.83-1.37-2.06-2.06-4.61-2.06-7.66 0-3.74 1.01-6.71 3.03-8.92 2.02-2.21 4.39-3.32 7.1-3.32 2.27 0 4.24.93 5.9 2.79 1.67 1.85 2.56 4.6 2.69 8.26zm-5.89-1.6c0-2.57-.14-4.33-.42-5.29-.28-.96-.71-1.68-1.31-2.18-.34-.29-.78-.43-1.34-.43-.83 0-1.51.41-2.04 1.22-.94 1.42-1.41 3.37-1.41 5.84v.84h6.52zm17.84-8.79v2.9c1.15-1.25 2.25-2.15 3.31-2.72a7.03 7.03 0 0 1 3.4-.85c1.45 0 2.66.4 3.62 1.21.96.81 1.6 1.81 1.92 3.01.26.91.38 2.66.38 5.25v8.72c0 1.72.16 2.8.47 3.22.31.42.96.69 1.95.8v.86h-11.33v-.86c.85-.11 1.45-.46 1.82-1.05.25-.4.38-1.39.38-2.97v-9.96c0-1.84-.07-2.99-.22-3.47-.14-.48-.39-.85-.73-1.11a1.83 1.83 0 0 0-1.14-.39c-1.37 0-2.65.98-3.83 2.94v12c0 1.68.16 2.74.47 3.19.31.45.89.73 1.74.84v.86h-11.33v-.86c.94-.09 1.61-.4 2.01-.91.27-.35.41-1.39.41-3.11v-12.65c0-1.69-.16-2.75-.47-3.16-.31-.42-.96-.69-1.95-.81v-.89h9.12zm34.26-8.22v13.22h.65c2.06 0 3.55-.65 4.48-1.94.93-1.29 1.52-3.2 1.77-5.72h.91v17h-.91c-.19-1.85-.59-3.37-1.21-4.55-.62-1.18-1.33-1.98-2.14-2.38-.81-.41-2-.61-3.54-.61v9.15c0 1.79.08 2.88.23 3.28.15.4.43.73.85.98s1.09.38 2.01.38h1.94c3.03 0 5.46-.7 7.29-2.11 1.83-1.4 3.14-3.54 3.94-6.42h.89L165 158.2h-28.07v-.89H138c.94 0 1.7-.17 2.27-.5.42-.22.73-.61.96-1.15.17-.38.26-1.39.26-3.02v-21.36c0-1.47-.04-2.37-.12-2.71-.16-.56-.46-.99-.89-1.29-.61-.45-1.44-.67-2.49-.67h-1.08v-.89h27.18v9.6h-.91c-.46-2.35-1.11-4.03-1.95-5.05-.84-1.02-2.02-1.77-3.56-2.25-.89-.29-2.57-.43-5.03-.43h-3.34zm39.08 11.57l8.96 13.29c1.49 2.2 2.54 3.54 3.17 4.01.63.47 1.38.75 2.24.85v.89h-15.83v-.89c1.26-.09 2.08-.29 2.44-.57.37-.29.55-.64.55-1.05 0-.29-.06-.54-.17-.77-.22-.48-.78-1.37-1.68-2.68l-4.74-7.02-4.96 6.06c-1.48 1.84-2.23 3.08-2.23 3.74 0 .46.19.89.58 1.29.38.4.95.69 1.7.86.34.1 1.02.14 2.06.14v.89H168v-.89c1.42-.21 2.54-.59 3.35-1.15 1.07-.73 2.56-2.27 4.48-4.6l6.44-7.86-8.26-12.14c-1.36-2-2.13-3.1-2.33-3.33-.43-.53-.85-.9-1.27-1.13-.42-.22-.99-.39-1.72-.5v-.89h16.12v.89H184c-.93 0-1.57.15-1.94.44-.37.3-.55.67-.55 1.11 0 .35.06.65.17.91l1.65 2.49 4.02 6.13 3.42-4.19c1.76-2.16 2.63-3.66 2.63-4.53 0-.43-.12-.83-.37-1.2s-.6-.65-1.07-.86c-.46-.21-1.18-.31-2.16-.31v-.89h11.95v.89c-.94.02-1.7.13-2.28.35-.57.22-1.19.62-1.84 1.21-.42.38-1.46 1.57-3.11 3.57l-6.14 7.44zm27.74 4.24v9.1c0 1.76.11 2.86.32 3.32.22.45.6.82 1.14 1.09.54.27 1.56.41 3.04.41v.89H204v-.89c1.5 0 2.52-.14 3.06-.42.54-.28.91-.64 1.12-1.09.22-.45.33-1.55.33-3.3v-21.08c0-1.76-.11-2.86-.33-3.32-.21-.45-.59-.82-1.14-1.09-.54-.27-1.56-.41-3.04-.41v-.89h15.09c3.93 0 6.8.27 8.62.81 1.82.54 3.31 1.54 4.46 3.01 1.15 1.46 1.72 3.17 1.72 5.14 0 2.39-.86 4.37-2.59 5.94-1.1.99-2.64 1.73-4.62 2.23l7.81 10.99c1.02 1.42 1.75 2.31 2.18 2.66.66.49 1.41.77 2.28.81v.89h-10.23l-10.47-14.8h-2.13zm0-15.93v14.23h1.37c2.22 0 3.88-.2 4.98-.61 1.1-.41 1.97-1.14 2.6-2.2.63-1.06.95-2.45.95-4.16 0-2.47-.58-4.3-1.74-5.48-1.16-1.18-3.02-1.77-5.59-1.77h-2.57z"/><path d="M37.75 124.25c5.17-.19 9.38 1.32 12.61 4.53 3.23 3.21 4.85 7.22 4.85 12.05 0 4.12-1.21 7.74-3.62 10.87-3.19 4.15-7.7 6.23-13.53 6.23-5.85 0-10.36-1.98-13.56-5.94-2.52-3.13-3.78-6.84-3.78-11.14 0-4.82 1.64-8.84 4.92-12.06 3.29-3.22 7.32-4.73 12.11-4.54zm.29 1.53c-2.97 0-5.23 1.52-6.78 4.55-1.26 2.49-1.89 6.07-1.89 10.73 0 5.54.97 9.64 2.92 12.29 1.36 1.85 3.26 2.78 5.7 2.78 1.64 0 3.02-.4 4.12-1.2 1.4-1.02 2.5-2.65 3.28-4.9.78-2.24 1.17-5.17 1.17-8.78 0-4.29-.4-7.51-1.2-9.64-.8-2.13-1.82-3.64-3.05-4.51-1.23-.88-2.66-1.32-4.27-1.32zm29.24 29.12v8.34c0 1.15.09 1.93.27 2.35.18.42.47.72.85.91.38.19 1.13.29 2.25.29v.89H57.89v-.89c.99-.03 1.73-.31 2.2-.84.32-.37.48-1.32.48-2.85v-23.64c0-1.58-.18-2.59-.55-3.03-.37-.44-1.08-.69-2.13-.75v-.89h9.39v2.95c.78-1.15 1.58-1.98 2.39-2.49a6.92 6.92 0 0 1 3.81-1.12c1.64 0 3.14.52 4.49 1.56s2.37 2.47 3.08 4.3c.7 1.83 1.06 3.8 1.06 5.9 0 2.27-.36 4.34-1.09 6.22-.72 1.88-1.78 3.3-3.16 4.29a7.786 7.786 0 0 1-4.61 1.47c-1.23 0-2.38-.27-3.45-.82-.8-.43-1.64-1.14-2.52-2.15zm0-2.41c1.37 1.95 2.84 2.92 4.41 2.92.86 0 1.57-.46 2.13-1.37.83-1.34 1.24-3.9 1.24-7.66 0-3.86-.45-6.51-1.37-7.93-.61-.94-1.42-1.41-2.44-1.41-1.61 0-2.94 1.17-3.98 3.5v11.95zm37.58-7.31H92.57c.14 2.97.94 5.32 2.37 7.04 1.1 1.33 2.43 1.99 3.97 1.99.96 0 1.83-.27 2.61-.8.78-.54 1.62-1.5 2.51-2.89l.81.53c-1.21 2.47-2.55 4.23-4.02 5.26-1.47 1.03-3.17 1.55-5.1 1.55-3.32 0-5.83-1.28-7.54-3.83-1.37-2.06-2.06-4.61-2.06-7.66 0-3.74 1.01-6.71 3.03-8.92 2.02-2.21 4.39-3.32 7.1-3.32 2.27 0 4.23.93 5.9 2.79 1.68 1.85 2.58 4.61 2.71 8.26zm-5.89-1.6c0-2.57-.14-4.34-.42-5.29-.28-.96-.71-1.68-1.31-2.18-.33-.29-.78-.43-1.34-.43-.83 0-1.51.41-2.04 1.22-.94 1.42-1.41 3.37-1.41 5.84v.84h6.52zm17.84-8.79v2.9c1.15-1.25 2.25-2.15 3.31-2.72a7.03 7.03 0 0 1 3.4-.85c1.45 0 2.66.4 3.62 1.21.96.81 1.6 1.81 1.92 3.01.26.91.38 2.66.38 5.25v8.72c0 1.72.16 2.8.47 3.22.31.42.96.69 1.95.8v.86h-11.33v-.86c.85-.11 1.45-.46 1.82-1.05.25-.4.38-1.39.38-2.97v-9.96c0-1.84-.07-2.99-.22-3.47-.14-.48-.39-.85-.73-1.11-.34-.26-.72-.4-1.14-.4-1.37 0-2.65.98-3.83 2.94v12c0 1.68.15 2.74.47 3.19.31.45.89.73 1.73.84v.86h-11.33v-.86c.94-.09 1.61-.4 2.01-.91.27-.35.41-1.39.41-3.11v-12.65c0-1.69-.15-2.75-.47-3.16-.31-.42-.96-.69-1.95-.81v-.89h9.13zm34.25-8.22v13.22h.65c2.06 0 3.55-.65 4.48-1.94.93-1.29 1.52-3.2 1.77-5.72h.91v17h-.91c-.19-1.85-.6-3.37-1.21-4.55-.61-1.18-1.33-1.98-2.14-2.38-.81-.41-2-.61-3.54-.61v9.15c0 1.79.08 2.88.23 3.28.15.4.43.73.85.98s1.09.38 2.01.38h1.94c3.03 0 5.46-.7 7.29-2.11 1.83-1.4 3.14-3.54 3.94-6.42h.89l-1.46 10.32h-28.07v-.89h1.08c.94 0 1.7-.17 2.27-.5.42-.22.73-.61.96-1.15.17-.38.26-1.39.26-3.02v-21.36c0-1.47-.04-2.37-.12-2.71-.16-.56-.46-.99-.89-1.29-.61-.45-1.44-.67-2.49-.67h-1.08v-.89h27.18v9.6h-.91c-.46-2.35-1.11-4.03-1.95-5.05-.84-1.02-2.02-1.77-3.56-2.25-.89-.29-2.57-.43-5.03-.43h-3.35zm39.09 11.57l8.96 13.29c1.49 2.2 2.54 3.54 3.17 4.01.63.47 1.38.75 2.24.85v.89h-15.83v-.89c1.26-.09 2.08-.29 2.44-.58.37-.29.55-.64.55-1.05 0-.29-.06-.54-.17-.77-.22-.48-.78-1.37-1.68-2.68l-4.74-7.02-4.96 6.06c-1.48 1.84-2.23 3.08-2.23 3.74 0 .46.19.89.58 1.29.38.4.95.69 1.7.86.34.1 1.02.14 2.06.14v.89h-12.48v-.89c1.42-.21 2.54-.59 3.35-1.15 1.07-.73 2.56-2.27 4.48-4.6l6.44-7.86-8.26-12.14c-1.36-2-2.13-3.11-2.32-3.33-.43-.53-.85-.9-1.27-1.13-.41-.22-.99-.39-1.72-.5v-.89h16.12v.89h-.81c-.93 0-1.57.15-1.94.44-.37.29-.55.67-.55 1.11 0 .35.06.66.17.91l1.65 2.49 4.02 6.13 3.42-4.19c1.76-2.16 2.63-3.66 2.63-4.53 0-.43-.12-.83-.37-1.2s-.6-.65-1.07-.86c-.46-.21-1.18-.31-2.15-.31v-.89h11.95v.89c-.94.02-1.7.13-2.28.35-.58.21-1.19.62-1.84 1.21-.42.38-1.46 1.57-3.11 3.57l-6.15 7.45zm27.73 4.24v9.1c0 1.76.11 2.86.32 3.32.22.45.59.82 1.14 1.09.54.27 1.56.41 3.04.41v.89h-16.62v-.89c1.5 0 2.52-.14 3.05-.42.54-.28.91-.64 1.12-1.09.22-.45.32-1.55.32-3.3v-21.08c0-1.76-.11-2.86-.32-3.32-.21-.45-.6-.82-1.14-1.09-.54-.27-1.56-.41-3.04-.41v-.89h15.09c3.93 0 6.8.27 8.62.81 1.82.54 3.31 1.54 4.46 3.01 1.15 1.46 1.72 3.17 1.72 5.14 0 2.4-.86 4.37-2.59 5.94-1.1.99-2.64 1.73-4.62 2.23l7.81 10.99c1.02 1.42 1.75 2.31 2.18 2.66.66.49 1.41.77 2.28.81v.89h-10.23L220 142.38h-2.12zm0-15.93v14.23h1.37c2.22 0 3.88-.2 4.98-.61 1.1-.41 1.97-1.14 2.6-2.2.63-1.06.95-2.45.95-4.16 0-2.47-.58-4.3-1.73-5.48-1.16-1.18-3.02-1.77-5.59-1.77h-2.58z"/></svg>