<svg xmlns="http://www.w3.org/2000/svg" role="img" viewBox="-2.92 -3.42 164.34 164.84"><title>OpenRenderManagement logo</title><path stroke="#000" d="M91.5 0l1 2-1-2zm-9 2l-1 2 1-2zm-4 3l-7 8 7-8zm-19 6l-3 4 3-4zm37 0l2.5.5-2.5.5v-1zm4 1l1.5 2.5h-1l-.5-2.5zm18 2l7.5.5-7.5.5v-1zm-49 1l-1 2 1-2zm30 4l.5 2-2.5 1 2-3zm24 5l-1 2 1-2zm-85 5l.5 8.5-2-1 1.5-7.5zm-24 4l.5 7.5h-1l.5-7.5zm10 2l1 2-1-2zm105 2l.5 2-3-.5 2.5-1.5zm20 7l1 2-1-2zm-11 11l1 2-1-2zm-127 2l2.5.5-2.5.5v-1zm133 2l3 4-3-4zm-136 1l.5 2.5H8l.5-2.5zm9 0l1 2-1-2zm131 4l.5 2.5h-1l.5-2.5zm-138 3l-1 2 1-2zm135 3l3 4-3-4zm5 5l3 4-3-4zm-148 1l1 2-1-2zm3 4l7 8-7-8zm150 1l1 2-1-2zm-13 7l2.5.5-2.5.5v-1zm-127 1l1 2-1-2zm128 1l1 2-1-2zm-130 3l2.5.5-2.5.5v-1zm-6 2l.5 2.5H7l.5-2.5zm140 3l.5 4.5-3.5 2.5v-1l2.5-1.5.5-4.5zm-139 1l3 4-3-4zm136 19l.5 7.5h-1l.5-7.5zm-115 2l5.5.5-3 2 .5-1.5q-4 .8-3-1zm104 2l1 2-1-2zm-107 2l-2 3 2-3zm10 9l-1 2 1-2zm23 5l.5 1.5q-1.5 3-3 0h2l.5-1.5zm31 4l.5 2.5-.5 1.5-1.5-2.5 1.5-1.5zm-57 2l7.5.5-7.5.5v-1zm55 1l-8 9 8-9zm-20 1l1 2-2.5-.5 1.5-1.5zm31 1l-1 2 1-2zm-42 3l3.5.5-3.5.5v-1zm35 1l2.5.5-2.5.5v-1zm-15 4l-1 2 1-2z" opacity=".22"/><path fill="#FEFEFE" stroke="#FEFEFE" d="M62.5 13l.5 4.5q-2.3 1.3-1 6 2.3 1.3 1 6l-4-3-3-6 6.5-7.5zm35 1l1.5 1.5-4 4-4.5 7.5q-2.7.6-1.5-5.5L88 18l9.5-4zM30 30q2.7-1.1 2 1.5l3 7 5 6.5q-7.3-.6-11-5.5l1-9.5zm87.5 2q8.2-1.1 11.5 1 1.1 2.7-1.5 2L114 40l3.5-8zm17 26l10.5 5 1 2.5-4.5.5-12.5-3.5 5.5-4.5zm-122 2l4 4L27 68.5q.6 2.8-5.5 1.5l-5 1-5.5-9.5 1.5-1.5zm124 28l3.5 1.5 5 11-1.5 1.5-5-5-2.5-1.5-4-6.5 4.5-1zm-111 7l4.5 1.5-10.5 7.5-8.5-5-1-2.5 4.5-.5q1.3 2.3 6 1l5-2zm93.5 19l8 3.5v12l-1 2.5q-3 1.3-2-2.5l-3-5-2-10.5zm-75.5 5q2.3-.7 1.5 1.5l-5.5 9.5q-8.9 1.3-12.5-1-1.2-3 2.5-2 6.8-1.7 10-7l4-1zm53 10l5.5 6.5v2L95.5 148l-2 1-.5-3.5 1-1v-8l2.5-7.5zm-27 2l1.5 10.5q-5 5.1-13 6.5v-2.5q4.4-2.1 5-8l6.5-6.5z"/><path stroke="#000" d="M80.5 4l-1 2 1-2zm-33 2l-1 2 1-2zm5 0l1 2-1-2zm39 1l-1 2 1-2zm-27 4l1 2-1-2zm-8 4l-2 3 2-3zm12 2l-1 2 1-2zm32 0l-1 2 1-2zm21 8l-2 4 5.5.5-7 .5 3.5-5zm-95 9l.5 4-2-.5 1.5-3.5zm125 12l1 2-1-2zm1 6l-1 2-1.5-.5 2.5-1.5zm-8 1l3.5.5-3.5.5v-1zm-7 2l1 2-1-2zm-123 3l2 3-2-3zm128 0l1 2-1-2zm-135 9l1 2-1-2zm140 0l-1 2-4.5-.5 5.5-1.5zM4.5 78l1 2-1-2zm9 9l1 2-1-2zm4 3l1 2-1-2zm133 0l1 2-1-2zm-140 3l2.5.5-2.5.5v-1zm129 8q4.5 2 1 4v-2q-2.8.7-1-2zm-127 1l1 2-1-2zm3 2l-1 2-2.5-.5 3.5-1.5zm-8 1l-1 2 1-2zm-1 6l1 2-1-2zm122.5 7l5 3.5-4-2-.5 1.5-.5-3zm-93.5 2l-1 2 1-2zm94 5l.5 3.5h-1l.5-3.5zm-99 7l4.5.5-4.5.5v-1zm74 7l.5 2-2-.5 1.5-1.5zm-46 2l-2 3 2-3zm32 0q2.3-.7 1.5 1.5l-1.5-1.5zm15 3l.5 3.5h-1l.5-3.5zm-36 1q2.3-.7 1.5 1.5l-1.5-1.5zm21 1l1.5 4.5-2-1 .5-3.5zm-22 4l-1 2 1-2zm37 0l1.5 2.5-2-1 .5-1.5zm7 1l-1 2 1-2z" opacity=".78"/><path fill="#E6E6E6" stroke="#E6E6E6" d="M87.5 3q3.3-1.1 2.5 1.5-4.2 4.3-5 12L82.5 19 75 25.5 70.5 34q-4.1-1.9-3.5-8.5Q72.3 13.3 82.5 6l5-3zm-37 5L52 22.5l-4 9q1.5 5.5-1 7l1 5.5-6-3.5v-15l2-8L48 9l2.5-1zm71 9l4.5 1-1.5 3q-7.2 1.8-10 8Q102 30.3 95 36l-1-2.5q2.3-1.3 1-6l2.5-2.5 10-5 14-3zm-25 1l-1 2 1-2z"/><path fill="#E6E6E6" stroke="#E6E6E6" d="M84.5 21L88 36q2.7 1.1 2-1.5l2 1V42h2.5l8-7 10-3 .5 1.5-2 3-2 10 1.5-.5 4-2-1.5 2.5-3 8q1.2 2.7 2.5.5 5.1-2.4 14-1l4.5 2.5-5 4-4 5 9 1q-8.1 1.9-12 8-.9 3 3.5 1.5 8.5 2.5 13.5 8.5L123 88q-1.1 2.7 1.5 2l6.5 4.5-2.5.5-4-1-1 1H116l-3-7.5 2.5-.5 4.5-1 1-4.5-5.5-4.5-1.5 2.5 3 1.5q1.8 5.3-5.5 3l-6-2 2.5 3.5q4.9 5.1 6 14l-2.5-1.5-6.5-5.5-3.5-4.5-.5 4.5 1 4.5-6-4.5-2.5-3.5q-1.4 3.6-7 3L83 89.5q.8-2.6-2.5-1.5-.8 3.8-6 3L70 88q-1.5 5.6-6.5 9-2.6.8-1.5-2.5l2-6-2-.5v1.5L53.5 98l-3 2-.5-1.5q2.4-10.1 9-16l-2.5-.5q-3.2 3-9.5 2-1.5-3.8 1.5-3l1.5-2.5q-1.2-2.7-2.5-.5L44 80.5l-1 3 6.5 4.5 1.5-.5-4 9v4l1 2.5h4.5l6-5 .5 2 3.5 1 7.5-5.5 1.5-2.5q2.6-.8 1.5 2.5l-2 6q.9 6.6 5.5 9.5l7 1 5.5-4.5-2-9 1-2.5 6-2 3.5 5q1.4 2.6 6 2l2-4 1.5 3 5.5 3h3.5l1.5-5q7.1 4.4 8.5 14.5l-1.5-.5-12-3 .5 1.5 4 8-1.5-.5-11.5-5 1 5.5v11l-1.5 2.5-7-8-3-2-.5 9q-2.7 1.1-2-1.5l-5-7.5-3 1.5-2 8-6.5 7.5-3.5-16q-2.7-1.1-2 1.5l-3.5 5.5-1.5-10q-3.8-.7-5 2.5.8 2.3-1.5 1.5-4.3 5-12.5 5 4-6.2 5-16.5l-1.5.5-5 3-.5-1.5 3-7q-1.3-2.7-2.5-.5-5.1 2.4-14 1l-5.5-2.5 9-7 4-5-6-1 6-4q1.4-4.6-4.5-2.5-9.4-3.6-14.5-11.5l7.5-.5L36 71q1.1-2.7-1.5-2l-1-2H39v-2.5l-6-6-4-14 1.5.5 6 3 10 2-.5-1.5.5-1.5 5 2 1.5-2.5q-4-3.5-2-13l3.5-8.5 4 6 7 6 1-3 4 6q4.2 1.3 2.5-3.5Q76 26.1 84.5 21zM68 60l-5 2-3 4 5-1 4 3q4 1 5-2v-6h-6zm18 0l1 7q1 2 5 1l2-3 3 1q5 2 3-3-5-4-14-3zm-5 10l-7 2-5 7 1 2q7 1 12 6 4-5 11-6l1-2-1-3-5-5-7-1z"/><path fill="#E6E6E6" stroke="#E6E6E6" d="M91.5 26l-1 2-1.5-.5 2.5-1.5zM18 33l3 1.5 5 7q0 14.5 7 22L29.5 65 26 62.5l-6-11-3-14 1-4.5zm107.5 8l13 2 11.5 5 1 2.5q-10.7-.7-16.5 3.5-7.1-4.6-19.5-3l5.5-9 5-1zm17 20l1 2-1-2zm-116 6l1.5 2.5h-1l-.5-2.5zM3 69q8.4 1.5 13 7.5l6.5 7.5 8.5 4.5-5.5 3.5Q13.3 86.8 6 76.5L3 69zm11.5 0l1 2-1-2zm118 0l7 1L153 82.5l3 7.5-7.5-4-8-1q-5.7-7.8-15.5-11.5l7.5-4.5zm-111 1l2.5.5-2.5.5v-1zm112 22l2 3-2-3zm-8 5l7 1 3.5 2.5 4 10 2 12-1 3.5-3-1.5-1-3-8-8q-.7-9.8-6-15l2.5-1.5zm13 0l1 2-1-2zm-120 10l10 4q5.5-1.5 7 1l5.5-1-3.5 6h-12l-8-2-8.5-4-1-2.5 9.5-.5 1-1zm89.5 11l9 5.5 1 3-1 1-1 11-5 11.5-2.5 1q.4-9.9-2.5-16.5l2-4 1-8-1-4.5zm-47.5 8q3.4-.9 1.5 4.5l-2.5 4.5-11 5-11 2-4.5-1 1.5-3 7-5q12.3-.7 19-7zm25 2q4.1 2.9 4.5 9.5-4.9 9.6-13.5 15.5l-7.5 3 4-7.5 1-5q8.2-5.3 11.5-15.5zm-17 3l-4 5 4-5z"/><path fill="#040404" stroke="#040404" d="M79.5 7l-1 2 1-2zm-10 27l-1 2 1-2zm3 40l-1 2 1-2zm-54 4l3 4-3-4zm-10 2l1 2-1-2zm71 4l1 2-1-2zm-10 7l2.5.5q-2.1 3.3-2.5-.5zm-2 3l1 2-1-2zm35 4l1 2-1-2zm9 1l-1 2 1-2zm-70 9l1 2-1-2zm86 1l-1 2 1-2zm-21 7l-1 2 1-2zm-46 8l-1 2 1-2zm-12 5l1 2-1-2zm54 3l-1 2 1-2z" opacity=".996"/><path fill="#C5C2C3" stroke="#C5C2C3" d="M78.5 9l-3 4 3-4zm3 10l-6 7 6-7zm1 3l-5 6 5-6zm-25 7l1 2-1-2zm-16 1l.5 5.5h-1l.5-5.5zm50 2l.5 2.5-2-1 1.5-1.5zm-74 2l.5 2.5h-1l.5-2.5zm77 0l1.5 2.5-2-1 .5-1.5zm-25 4l1 2-1-2zm53 3l2.5.5-2.5.5v-1zm-3 12l2.5.5-2.5.5v-1zm10 4l-3 4 3-4zm-115 4l1 2-1-2zm21 0l1 2-1-2zm-2 2l.5 2-2-.5 1.5-1.5zm54 3l1 2-1-2zm-55 1l1 2-1-2zm48 3l2.5.5-2.5.5v-1zm43 0l-1 2 1-2zm-50 2l-3 4 3-4zm-55 3l6 7-6-7zm128 0l4 5-4-5zm-130 2l1 2-1-2zm-6 4l2 3-2-3zm10 0l2 3-2-3zm100 0l.5 2.5h-1l.5-2.5zm-35 2l-1 2 1-2zm29 4l-1 2 1-2zm-83 1l-1 2 1-2zm5 0l-1 2 1-2zm44 0l-2 3 2-3zm21 0l3 4-3-4zm23 6l3.5.5-3.5.5v-1zm-55 1l-2 3 2-3zm25 0l3 4-3-4zm-36 2l-2 3 2-3zm-26 1l-3 4 3-4zm87 1l2 3-2-3zm-31 8l-3 4 3-4zm-54 1l2.5.5-2.5.5v-1zm41 1l1 2-1-2zm6 2l2.5.5-2.5.5v-1zm-51 6l5.5.5-5.5.5v-1zm86 0l-1 2 1-2zm-3 3l1 2-1-2zm-53 1l-1 2 1-2zm45 0l.5 4.5h-1l.5-4.5zm22 0l.5 3.5h-1l.5-3.5zm-19 1l.5 2.5h-1l.5-2.5zm-12 2l5 6-5-6zm-11 3l1 2-1-2zm-4 8l-1 2 1-2zm12 2l.5 2.5h-1l.5-2.5zm-59 4l2.5.5-2.5.5v-1zm26 1l-1 2 1-2zm23 4l-3 4 3-4z"/><path fill="#010101" stroke="#010101" d="M89.5 73l2 3-2-3zm45 7l3 4-3-4z" opacity=".996"/><path fill="#313131" stroke="#313131" d="M96.5 19l-1 2 1-2zm-15 3l-3 4 3-4zm38 2l-2 3 2-3zm-62 4l7.5 6.5q-.7-2.2 1.5-1.5l1 2-1.5-.5q.8 2.3-1.5 1.5l-7-8zm33 0l-1 2 1-2zm-60 1l2.5 1.5-1.5-.5-2 1 1-2zm98 3l1.5 2.5-2 1 1-2-.5-1.5zm-40 1l1 2-1-2zm-64 6l1 2-1-2zm95 3l-1 2 1-2zM28 43l2 .5-2 1V43zm88.5 0l-1 2 1-2zm33 4l1 2-1-2zm-5 4l3.5.5-3.5.5v-1zm-16 8l-4 6 5.5.5-7 .5 5.5-7zm-55 2l.5 2.5h-1l.5-2.5zm70 0l2 3-2-3zm-108 5l2.5.5-2.5.5v-1zm-8 1l2 3-2-3zm7 2l-1 2 1-2zm-15 8l3 4-3-4zm112 0l1 2-1-2zm-61 2l1 2-1-2zm22 0l-1 2 1-2zm26 0l1 2-1-2zm-2 1l1 2-1-2zm16 0l4 5-4-5zm20 1l1 2-1-2zm-33 3l-1 2 1-2zm-86 2l3.5 1.5-1.5-.5q-3 .5-2-1zm21 1l-1 2 1-2zm102 0l.5 2.5h-1l.5-2.5zm-124 1l-1 2 1-2zm39 0l3 4q-2.2-4.2-4.5-2.5l1.5-1.5zm54 0l-1 2 1-2zm-63 1l.5 2-5.5 4 5-6zm20 0l2 3-2-3zm47 0l1 2-1-2zm-37 1l-1 2 1-2zm-61 1v2q5.4-1.9 4.5 1.5l-6 5 4.5-5.5q-5.4 1.9-4.5-1.5l1.5-1.5zm72 0l7 8-7-8zm-8 1l1 2-1-2zm23 3l3.5.5-3.5.5v-1zm11 0l3.5.5-3.5.5v-1zm-71 1l2.5 3.5-2-1-.5-1.5-1.5.5 1.5-1.5zm6 0l-1 2 1-2zm41 0l3 4-3-4zm-39 1l-1 2 1-2zm51 0l-.5 1.5-.5 1.5-.5-1.5 1.5-1.5zm-107 1l2 3-2-3zm124 0l1 2-1-2zm-112 7l1 2-1-2zm-10 2l2.5.5-2.5.5v-1zm120 10l2 3-2-3zm-73 6l-1 2 1-2zm24 0l.5 2.5h-1l.5-2.5zm9.5 0l5 3.5-4-2-.5 5.5-.5-7zm-23.5 1l1 2-1-2zm16 2l1 2-1-2zm-59 1l1.5 2.5-2-1 .5-1.5zm43 2l-1 2 1-2zm35 3l-1 2 1-2zm-64 1l-1 2 1-2zm25 0l-2 3 2-3zm13 2l-4 5-1.5-.5 5.5-4.5zm29 9l.5 3.5h-1l.5-3.5zm-10 2l-1 2 1-2zm-5 2l1 2-1-2zm-24 7l2.5 1.5-1.5.5-1-2z" opacity=".996"/><path stroke="#000" d="M78.5 6l-2 3 2-3zm-4 4l-3 4 3-4zm25 2l1 2-1-2zm-41 1l-1 2 1-2zm-3 4l-1 2 1-2zm43 2l-1 2 1-2zm46 41l1 2-1-2zm-127 1l1 2-1-2zm124 7l1 2-1-2zm4 3l2 3-2-3zm6 6l2 3-2-3zm-145 3l6 7-6-7zM141 87l2 .5-2 1V87zM10.5 100l1 2-1-2zm136 2l-1 2 1-2zm-17 19l.5 3.5h-1l.5-3.5zm-94 11l3.5.5-3.5.5v-1zm52 13l-2 3 2-3zm12 1l-1 2 1-2zm-17 4l-3 4 3-4z" opacity=".996"/><path stroke="#000" d="M86.5 1Q92 0 93 3.5l-5 9v3l1.5-.5 9-3q3 .5 2.5 4.5l-5 6 1.5.5 6-4 9-3 13-1 2.5 1 1 4.5q-7.6 2.9-12 9l10.5.5 3.5 2.5q.8 3.8-1.5 4.5l-5.5 1.5q18.9.6 29 10 .8 3.8-1.5 4.5-9.9-1.4-14.5 2.5l10 6.5 1 4.5q-1.6 2.9-7 2l10 8 6 8 1 6q-.7 2.3-4.5 1.5-4.9-4.5-12.5-5l6 11.5v3l-3.5 2.5-4-3-.5 1.5q5.5 8.5 5 23l-1 2.5-4.5 1q-2.9-7.6-9-12l-.5 13.5-2.5 3.5q-4.4 1.5-3.5-1.5l-2.5-5.5-3.5 15.5-6.5 10.5q-3.7.8-4.5-1.5.9-8.3-1-12.5-2.7-1.1-2 1.5l-6.5 9.5-4 1q-2.7-1.2-1.5-6.5l1-4-3 2-5.5 7.5-9 7-6 1q-2.2-.7-1.5-4.5l4-9-2.5 1.5-8 4h-3l-2.5-3.5 6-9-1.5.5-13 5-13 1-2.5-1-1-4.5 9-6-10.5-.5-3.5-2.5q-1.5-4.4 1.5-3.5l9.5-5.5q-18.5-.5-29-9l-1-4 4.5-2.5 5.5 1-1.5-3-5.5-3-1-4.5q1.5-3 7.5-1.5l4 1 4.5-1.5q-12.8-5.2-20-16-3.8-2.3-3-9Q2 66 6.5 67l5.5 3-3-9.5 3.5-2.5q4.1 5.4 12 7L23 62.5l-7-16-1-13 1-2.5 4.5-1 6 9q-.2-7.5 2.5-11 3.8-1 5 1.5.4 6.6 4.5 9.5-.2-21.7 10-33 3.8-.7 4.5 1.5l1 2q-2.2 1.3-1 6l1.5 3.5 4.5-7 4.5-1 2.5 3.5-1 1v8h1L75 9l11.5-8zM88 2l-8 5q-10 7-14 19 0 7 5 10l4-8 10-10h1l1-6 4-8-3-2zM50 7q-11 10-9 34l8 5h1l-2-6 1-8 4-9-1-14-2-2zm11 6l-6 8 3 6 6 5q2-7-1-8-1-5 1-6 2-7-3-5zm36 0l-10 6 1 9 2 2 4-4 1-4 5-7-3-2zm18 4q-14 2-21 11l1 11q6-8 21-9l1-2q4-6 10-7l1-2-1-2h-12zm-29 2l-3 2q-10 5-11 18l-6-9-1 5-10-12-5 11q-1 8 1 13l1 1-6-2-3-1 2 3v1l-14-5-3-1 2 12 4 7 5 4-9 2 4 2q-6 4-18 4l1 2q6 9 19 12l-7 6 6 1q-5 7-14 11l9 3h12l2-1h1l-3 8v1l6-2h1l-2 8-4 7 1 1 14-5 5-5 2 11 5-7q4 6 4 16 9-5 11-18l6 10q-1 2 2 1l2-10 7 9 3 1 1-4v-12l-1-1 1-3 11 6 1 1-3-9v-2l12 4q0-11-7-16-3 1-2-2l6-1 5 1h4l-2-4-3-1-2-3 12-2q-5-10-18-11 5-6 14-8-3-3-9-2l7-8q2 1 1-2l-6-2q-9-1-14 1l-2 1 4-9 3-4-6 2-2 1 4-12 1-2-10 2-10 7q1 2-2 1l-1-6 1-3v-3l-3 5-2-1-2-14zM31 29q-4 3-3 12l11 5h3l-2-3q1-3-2-2l-5-10-2-2zm-12 2l-2 2v12q2 10 7 17l6 4 6-1-7-10-2-13q-5-4-6-10l-2-1zm97 0l-3 8 1 3 15-6 1-2-3-3h-11zm5 10l-8 11 1 1 7-2 14 4q5-4 16-3l1-2q-10-11-31-9zm15 15l-9 8 15 3h5v-2l-11-9zM11 59l-1 3 3 8 4 2 11-1 2-1-3-4-6-1q-4-5-10-6zm-7 9l-2 2 5 10q7 9 19 13l7-4-7-4-11-11-11-6zm129 0l-10 6q11 3 17 12 9 0 14 5l3-1-5-10-10-10q-3-3-9-2zm5 19l-9 3 7 8 8 5 2-1-4-11-4-4zM26 94l-5 2-10-1-2 3 10 7q9-2 13-9l-6-2zm100 2l-6 2 6 7 3 9q-1 3 2 2l7 10v1h4v-12l-5-14-4-4q-6 2-7-1zM19 106l-1 1H8v4q10 9 31 7l4-7v-2l-6 2q-11-1-18-5zm99 7l5 19 3 1 2-3v-14l-10-3zm-11 3l1 6-1 9-2 4 2 7v9h4q8-9 7-27-4-6-11-8zm-61 1l-18 9-2 3 4 2h11l5-10v-4zm16 6l-7 6-13 3-8 6h-2v4h13q10-2 17-7l1-5-1-7zm24 3l-7 12-4 3-7 13 2 3 10-5 11-13v-4l-5-9zm10 1l-3 9-1 13 3 1 8-11-1-5-6-7zm-26 2l-7 7q-2 7-7 11l2 2q9-1 14-7l-1-10-1-3z"/><path stroke="#000" d="M67.5 61q7.3-2.6 5.5 3.5L72 67q-3.8 1-5-1.5L65.5 63l-4 2v-1l6-3zm1.5 1q-1 5 3 3 2-4-3-3zm18-1q8.1-1 12 3.5l-1.5.5-3-2q-1.5 2.5-3-1-3-.8-1.5 3l3 .5-3.5 1.5Q86 65.7 87 61zm-6.5 10q8.4.1 11.5 5.5l1 2-10 6q.8 2.3-1.5 1.5l-4-4q-5.6.1-7.5-3.5l4.5-5.5 6-2z"/><path stroke="#000" d="M48.5 78l.5 2-3 1.5 1.5 3.5q6.3.8 9-2L55 85.5q-4.9 5.1-6 14 1.3 2.8 2.5.5l10-9 .5 2.5-1 4.5h2.5l4.5-3 3.5-6q1 4 7 3l3-3 4 4q6.8 1.3 8-3l3.5 6 5.5 3 .5-5.5-1-2 9.5 8.5 2 1 1.5-3.5q-2-9-8-14l1.5.5 8 1 1.5-3.5-3-2 2.5-.5q3 .5 2.5 4.5-1.7 3.3-6.5 3.5l-1.5-.5 4 9v5l-3.5 1.5-7-6-3 4h-2l-8-7-6 2-5-4-5 3-5-3-7 8-3 1-1.5-4-6.5 5-4 1q-2.5-1-1.5-5.5l4-10-1.5.5-5.5-2.5-1-3 4.5-3.5z"/><path fill="#0D0D0D" stroke="#0D0D0D" d="M77.5 9l-2 3 2-3zm-17 4l-1 2 1-2zm21 7l1 2-1-1-4.5 4.5.5 1.5-1.5-1.5 5.5-5.5zm-27 3l-1 2 1-2zm38 3l-1 2 1-2zm0 3l.5 2-2-.5 1.5-1.5zm9 4l1 2-1-2zm-30 1l-1 2 1-2zm28 0l1 2-1-2zm-3 2q3 1.5 0 3l-2.5-.5 2.5-2.5zm-68 4l1 2-1-2zm3 16l-1 2 1-2zm1 2l-1 2 1-2zm-17 3l1 2-1-2zm19 0l1.5 1.5-.5 2.5q-4.5-2-1-4zm60 2l-1 2-1.5-.5 2.5-1.5zm29 8l1 2-1-2zm23 3l4 5-4-5zm-128 2l-1 2 1-2zm5 5l-1 2 1-2zm-13 1l1 2-1-2zm128 2l1 2-2.5-.5 1.5-1.5zm-57 4l-2 3 2-3zm0 3l1 2-1-2zm50 0l3 4-3-4zm-11 6l1.5 1.5-.5 2.5q-4.5-2-1-4zm-71 2l1 2-1-2zm96 2l-1 2-1.5-.5 2.5-1.5zm-19 5l-1 2 1-2zm-11 13l-1 2 1-2zm-55 3l1 2-1-2zm2 5l.5 2.5h-1l.5-2.5zm36 0l2 3-2-3zm-57 2l-1 2 1-2zm41 0l1 2-1-2zm-15 2l-1 2 1-2zm12 3l1 2-1-2zm-19 7l-1 2 1-2zm23 6l-2 3 2-3z" opacity=".996"/><path fill="#97757F" stroke="#97757F" d="M80.5 7l-1 2 1-2zm-29 2l.5 2.5h-1l.5-2.5zm23 4l-2 3 2-3zm-23 1l.5 2.5h-1l.5-2.5zm34 1l.5 1.5-3 2 2.5-3.5zm31 2l2.5.5-2.5.5v-1zm-32 3q3-.9 1.5 3.5h-1l-.5-2.5-1.5.5 1.5-1.5zm-30 4l-1 2 1-2zm-13 3l.5 2.5h-1l.5-2.5zm18 0l3 4-3-4zm35 1l.5 2.5h-1l.5-2.5zm23 3l6.5.5-7.5 1.5 1-2zm-89 4l.5 4.5h-1l.5-4.5zm13 1l.5 2.5h-1l.5-2.5zm9 0l.5 4.5h-1l.5-4.5zm46 3l-1 2 1-2zm-79 1l.5 2.5h-1l.5-2.5zm20 0l1 2-1-2zm5 1l1 2-1-2zm87 0l2.5.5-2.5.5v-1zm-77 6l-1 2-1.5-.5 2.5-1.5zm62 3l1 2-1-2zm2 3l2.5.5-2.5.5v-1zm15 6l-3 4 3-4zm-63 1l5.5.5-5.5.5v-1zm19 0l5.5.5-6 .5-.5 4-.5-3.5 1.5-1.5zm-26 3l-1 2 1-2zm5 2l1 2-1-2zm77 1l2.5.5-2.5.5v-1zm-54 1l2.5.5-2.5.5v-1zm37 4l-1 2 1-2zm17 1l2 3-2-3zm-125 1l5.5.5-6.5 1.5 1-2zm72 0l2 3-2-3zm-76 1l1 2-1-2zm34 3l1 2-1-2zm-41 1l2 3-2-3zm11 1l1 2-1-2zm96 0l1 2-1-2zm20 0l4 5-4-5zm-78 3l1 2-1-2zm51 0v3q-3-1.5 0-3zm-94 2l1 2-1-2zm11 0l1 2-1-2zm25 0l2.5.5-2.5.5v-1zm29 0l1 2-1-2zm34 0l3.5.5-3.5.5v-1zm22 1l2.5.5-2.5.5v-1zm-41 4l1 2-1-2zm-12 3q2.1 3.4 7.5 3.5-3.2 1.2-2 7l2 4-4.5 4.5-4 1-6.5-3q-2.7-3.6-2-11.5l1.5-4.5 5 1 3-2zm48 0l2 3-2-3zm-62 1l-2 3 2-3zm30 1l2 3-2-3zm-41 1l-2 3 2-3zm46 0l.5 2.5h-1l.5-2.5zm-86 1l2.5.5-2.5.5v-1zm14 0l-3 4 3-4zm31 0l1 2-1-2zm75 0l1 2-1-2zm-15 1q2.3-.7 1.5 1.5l-1.5-1.5zm7 0l2.5.5-2.5.5v-1zm-74 3l-1 2 1-2zm87 0l1 2-1-2zm-132 7l2.5.5-2.5.5v-1zm22 1l2.5.5-2.5.5v-1zm6 0l2.5.5-2.5.5v-1zm93 7l1 2-1-2zm-4 1q2.3.8 1.5 4.5h-1l-.5-4.5zm15 0l.5 2.5h-1l.5-2.5zm-114 1l2.5.5-2.5.5v-1zm10 4l-1 2 1-2zm24 3l-1 2 1-2zm66 1l.5 2.5h-1l.5-2.5zm-63 2l1 3 1.5-.5-3 2v-2l.5-2.5zm32 1l3 4-3-4zm21 1l.5 2.5h-1l.5-2.5zm-86 1l3.5.5-3.5.5v-1zm6 0l2.5.5-2.5.5v-1zm55 1l.5 2-2-.5 1.5-1.5zm-31 1l.5 1.5-2 1 1.5-2.5zm19 0l-1 2 1-2zm-7 2l.5 4.5h-1l.5-4.5zm6 3l-4 5 4-5zm14 3l.5 2.5h-1l.5-2.5zm-53 1l2.5.5-2.5.5v-1zm46 2l-2 3 2-3zm-28 1l-1 2 1-2zm21 6l-1 2 1-2z"/></svg>