<svg xmlns="http://www.w3.org/2000/svg" role="img" xmlns:xlink="http://www.w3.org/1999/xlink" viewBox="-2.64 -0.39 306.28 68.53"><title>OpenQMC logo</title><defs><symbol overflow="visible"><path d="M2.98438 10.60938V-42.3125h30v52.92188zm3.375-3.34375h23.29687V-38.9375H6.35937zm0 0"/></symbol><symbol id="a" overflow="visible"><path d="M23.64063-39.73438c-4.29297 0-7.70313 1.60547-10.23438 4.8125-2.53125 3.19922-3.79688 7.5625-3.79688 13.09376 0 5.51171 1.26563 9.87109 3.79688 13.07812 2.53125 3.19922 5.9414 4.79688 10.23438 4.79688 4.30078 0 7.70703-1.59766 10.21874-4.79688 2.50782-3.20703 3.76563-7.5664 3.76563-13.07813 0-5.53124-1.25781-9.89453-3.76563-13.09374-2.51171-3.20704-5.91796-4.8125-10.21874-4.8125zm0-4.79687c6.1328 0 11.03515 2.0586 14.70312 6.17188 3.67578 4.10546 5.51563 9.61718 5.51563 16.53124 0 6.89844-1.83985 12.40235-5.51563 16.51563C34.67578-1.20703 29.77344.84375 23.64062.84375c-6.14843 0-11.0625-2.04688-14.75-6.14063C5.21095-9.39843 3.375-14.91015 3.375-21.82812c0-6.91407 1.83594-12.42579 5.51563-16.53126 3.6875-4.11328 8.60156-6.17187 14.75-6.17187zm0 0"/></symbol><symbol id="b" overflow="visible"><path d="M10.875-4.92188v17.40626H5.45312V-32.8125H10.875v4.98438c1.125-1.95704 2.55078-3.41016 4.28125-4.35938 1.72656-.94531 3.79688-1.42188 6.20313-1.42188 3.97656 0 7.21093 1.58594 9.70312 4.75 2.5 3.16797 3.75 7.32813 3.75 12.48438s-1.25 9.32031-3.75 12.48438C28.57031-.73438 25.33594.84375 21.35937.84375c-2.40624 0-4.47656-.47656-6.20312-1.42188C13.42578-1.52343 12-2.97266 10.875-4.92188zM29.20313-16.375c0-3.96875-.82032-7.07813-2.45313-9.32813-1.625-2.2578-3.85938-3.39062-6.70313-3.39062-2.85546 0-5.10156 1.13281-6.73437 3.39063-1.625 2.25-2.4375 5.35937-2.4375 9.32812 0 3.96094.8125 7.07031 2.4375 9.32813 1.63281 2.26171 3.8789 3.39062 6.73438 3.39062 2.84374 0 5.07812-1.1289 6.70312-3.39063 1.63281-2.2578 2.45313-5.36718 2.45313-9.32812zm0 0"/></symbol><symbol id="c" overflow="visible"><path d="M33.71875-17.75v2.625H8.9375c.22656 3.71875 1.34375 6.55469 3.34375 8.5 2.00781 1.9375 4.80078 2.90625 8.375 2.90625 2.07031 0 4.07813-.2539 6.01563-.76563 1.9453-.5078 3.8789-1.26953 5.79687-2.28125v5.09375c-1.9375.82422-3.92188 1.44922-5.95313 1.875-2.03124.42579-4.09374.64063-6.1875.64063-5.23046 0-9.375-1.51953-12.4375-4.5625C4.83595-6.76953 3.3125-10.89063 3.3125-16.07813c0-5.375 1.44531-9.64062 4.34375-12.79687 2.90625-3.15625 6.8164-4.73438 11.73438-4.73438 4.41406 0 7.90624 1.42188 10.46874 4.26563C32.4297-26.5 33.71876-22.63281 33.71876-17.75zm-5.39063-1.59375c-.04296-2.94531-.87109-5.29688-2.48437-7.04688-1.60547-1.7578-3.73438-2.64062-6.39063-2.64062-3.01171 0-5.42187.85156-7.23437 2.54688-1.80469 1.69921-2.83984 4.08984-3.10938 7.17187zm0 0"/></symbol><symbol id="d" overflow="visible"><path d="M32.9375-19.8125V0h-5.39063v-19.625c0-3.10156-.60937-5.42578-1.82812-6.96875-1.21094-1.55078-3.02344-2.32813-5.4375-2.32813-2.91797 0-5.21484.9336-6.89063 2.79688-1.67968 1.85547-2.51562 4.38281-2.51562 7.57813V0H5.45312v-32.8125H10.875v5.09375c1.28125-1.96875 2.79688-3.4414 4.54688-4.42188 1.75-.97656 3.76562-1.46874 6.04687-1.46874 3.76953 0 6.625 1.16796 8.5625 3.5 1.9375 2.33593 2.90625 5.76562 2.90625 10.29687zm0 0"/></symbol><symbol id="e" overflow="visible"><path d="M23.64063-39.73438c-4.29297 0-7.70313 1.60547-10.23438 4.8125-2.53125 3.19922-3.79688 7.5625-3.79688 13.09376 0 5.51171 1.26563 9.87109 3.79688 13.07812 2.53125 3.19922 5.9414 4.79688 10.23438 4.79688 4.30078 0 7.70703-1.59766 10.21874-4.79688 2.50782-3.20703 3.76563-7.5664 3.76563-13.07813 0-5.53124-1.25781-9.89453-3.76563-13.09374-2.51171-3.20704-5.91796-4.8125-10.21874-4.8125zM31.9375-.79688l7.79688 8.53125h-7.15626l-6.46874-7c-.64844.03907-1.14063.06641-1.48438.07813-.34375.01953-.67188.03125-.98438.03125-6.14843 0-11.0625-2.05078-14.75-6.15625C5.21095-9.42578 3.375-14.92969 3.375-21.82813c0-6.91406 1.83594-12.42578 5.51563-16.53124 3.6875-4.11329 8.60156-6.17188 14.75-6.17188 6.1328 0 11.03515 2.0586 14.70312 6.17188 3.67578 4.10546 5.51563 9.61718 5.51563 16.53124 0 5.08594-1.02344 9.4336-3.0625 13.04688-2.04297 3.60547-4.9961 6.26563-8.85938 7.98438zm0 0"/></symbol><symbol id="f" overflow="visible"><path d="M5.89063-43.73438h8.8125L25.875-13.96874l11.21875-29.76563h8.8125V0h-5.76563v-38.40625l-11.28124 30h-5.95313l-11.28125-30V0H5.89062zm0 0"/></symbol><symbol id="g" overflow="visible"><path d="M38.64063-40.375v6.25c-1.9922-1.86328-4.1172-3.2539-6.375-4.17188-2.25-.91406-4.64844-1.375-7.1875-1.375-5 0-8.82813 1.53126-11.48438 4.59376-2.65625 3.05468-3.98438 7.46874-3.98438 13.25 0 5.76171 1.32813 10.17187 3.98438 13.23437C16.25-5.53906 20.07813-4.01562 25.07813-4.01562c2.53906 0 4.9375-.45704 7.1875-1.375 2.2578-.91407 4.3828-2.30079 6.375-4.15625V-3.375C36.5664-1.96875 34.375-.91016 32.0625-.20312 29.75.49218 27.30469.84374 24.73437.84374c-6.625 0-11.84374-2.02344-15.65624-6.07813C5.27342-9.28515 3.375-14.8164 3.375-21.82812c0-7.03126 1.89844-12.57032 5.70313-16.625 3.8125-4.05079 9.03125-6.07813 15.65625-6.07813 2.61328 0 5.07812.35156 7.39062 1.04688 2.3125.6875 4.48438 1.72656 6.51563 3.10937zm0 0"/></symbol></defs><use y="50" xlink:href="#a"/><use x="47.227" y="50" xlink:href="#b"/><use x="85.313" y="50" xlink:href="#c"/><use x="122.227" y="50" xlink:href="#d"/><use x="160.254" y="50" xlink:href="#e"/><use x="207.48" y="50" xlink:href="#f"/><use x="259.248" y="50" xlink:href="#g"/></svg>