<svg xmlns="http://www.w3.org/2000/svg" role="img" viewBox="-6.35 0.65 512.20 164.20"><title>OpenMesh logo</title><defs><style>.cls-1{fill:#02559f}.cls-2{fill:#c7dcf1}</style></defs><path d="M73.1 122.78c0-9.487-.02-18.974.01-28.46.011-3.567 2.26-4.808 5.388-3.003q24.695 14.242 49.374 28.513c3.182 1.84 3.14 4.362-.084 6.225q-24.521 14.167-49.051 28.319c-3.547 2.046-5.631.815-5.635-3.322q-.012-14.136-.002-28.272z" class="cls-1"/><path d="M72.995 42.956q0-13.849.008-27.698a8.211 8.211 0 0 1 .193-2.044c.61-2.337 2.507-3.265 4.592-2.101 4.54 2.533 9.014 5.186 13.519 7.784q14.084 8.123 28.17 16.242c2.983 1.723 5.997 3.4 8.913 5.233 2.689 1.689 2.45 4.074-.33 5.671q-15.075 8.661-30.1 17.408c-6.67 3.86-13.33 7.739-20.02 11.562-2.426 1.386-4.691-.019-4.918-3.041-.117-1.562-.027-3.139-.027-4.709V42.956z" class="cls-2"/><path d="M136.29 82.941l-.002 28.272c-.002 3.99-2.132 5.257-5.555 3.283q-24.614-14.194-49.214-28.411c-3.138-1.813-3.178-4.348-.083-6.138q24.76-14.318 49.538-28.602c3.09-1.78 5.305-.464 5.311 3.137q.023 14.23.005 28.46z" class="cls-1"/><path fill="#8eb9e4" d="M3.96 82.991l.001-28.47c.002-3.7 2.217-4.966 5.418-3.117l48.766 28.155q.49.282.964.59c2.534 1.644 2.588 4.128-.009 5.665-6.105 3.611-12.263 7.133-18.407 10.68Q25.28 105.39 9.857 114.27c-.217.126-.424.27-.643.393-3.026 1.703-5.247.44-5.251-3.014q-.016-14.33-.004-28.659zm63.033 39.782q.002 14.327-.002 28.655c-.003 3.712-1.986 4.937-5.215 3.089-11.059-6.33-22.08-12.723-33.116-19.092-5.273-3.043-10.537-6.102-15.824-9.12-1.406-.802-2.778-1.61-2.813-3.448-.033-1.727 1.292-2.423 2.573-3.162q22.757-13.118 45.499-26.264c1.358-.785 2.68-1.637 4.066-2.37 2.657-1.407 4.818-.126 4.824 2.869q.03 14.421.008 28.843z"/><path d="M66.958 43.191c0 9.548-.128 19.098.08 28.642.061 2.784-2.376 4.616-5.041 3.04-6.526-3.857-13.104-7.628-19.668-11.421q-13.103-7.57-26.215-15.123-2.198-1.268-4.38-2.561c-2.058-1.221-2.342-3.136-.638-4.807 1.586-1.556 3.67-2.391 5.554-3.485C30.197 29.61 43.793 21.828 57.374 14.02c1.63-.936 3.229-1.93 4.897-2.794 2.74-1.419 4.674-.191 4.682 2.945.017 6.658.006 13.317.006 19.975v9.045z" class="cls-2"/><path d="M200.506 82.236c0 22.24-4.993 35.048-19.15 35.048-13.57 0-18.79-12.295-18.79-34.832 0-22.343 6.155-34.016 19.05-34.016 13.601 0 18.89 11.3 18.89 33.8zm-32.087.035c0 20.28 4.385 29.968 13.15 29.968 8.994 0 13.083-9.562 13.083-29.803 0-20.945-4.435-28.94-13.166-28.94-8.548 0-13.067 9.315-13.067 28.775zm47.381 28.533v23.882h-5.526V81.313c0-6.812 0-11.441-.099-14.526h5.366c.114.851.228 4.455.228 7.138 1.824-4.707 5.508-7.942 12.072-7.942 9.455 0 14.475 8.49 14.475 24.947 0 17.246-6.119 26.323-15.886 26.323-6.28 0-9.235-3.128-10.63-6.449zm20.808-19.614c0-12.694-3.042-20.161-10.152-20.161-8.41 0-10.884 8.031-10.884 20.48 0 11.953 1.32 20.698 10.305 20.698 7.06 0 10.73-8.414 10.73-21.017zm18.804 1.097c0 11.005 1.997 20.05 10.435 20.05 8.56 0 9.663-8.319 9.943-9.761h5.515c-.115 1.178-1.613 14.677-15.49 14.677-14.046 0-15.997-13.325-15.997-25.582 0-15.673 5.146-25.688 16.443-25.688 12.521 0 15.437 10.717 15.437 22.887 0 .647-.015 2.05-.114 3.417zm20.708-4.612c0-9.926-2.28-16.792-9.942-16.792-10.01 0-10.487 13.463-10.652 16.792zm15.217-5.594c0-10.125-.083-13.115-.099-15.294h5.366c.114 1.198.228 3.117.228 7.008 1.726-4.298 5.274-7.828 12.04-7.828 6.832 0 12.769 3.696 12.769 15.082v35.301h-5.61V82.02c0-6.481-2.36-10.991-8.379-10.991-7.579 0-10.706 5.128-10.706 16.288v29.033h-5.61zm85.11 4.38c0-12.866.221-25.222.444-32.077h-.147c-2.833 11.166-10.674 40.96-17.11 61.966h-6.388c-4.84-17.757-13.072-49.906-15.963-62.08h-.257c.443 7.78.777 22.81.777 34.251v27.83h-6.146V49.353h9.475c6.89 21.963 13.692 50.002 15.602 58.378h.111c1.368-6.56 9.67-37.203 16.47-58.378h9.477v66.996h-6.345zm19.649 5.826c0 11.005 1.997 20.05 10.434 20.05 8.56 0 9.663-8.319 9.944-9.761h5.514c-.114 1.178-1.612 14.677-15.49 14.677-14.046 0-15.996-13.325-15.996-25.582 0-15.673 5.145-25.688 16.442-25.688 12.522 0 15.438 10.717 15.438 22.887 0 .647-.016 2.05-.115 3.417zm20.708-4.612c0-9.926-2.28-16.792-9.943-16.792-10.01 0-10.486 13.463-10.651 16.792zm17.653 14.669c.414 6.03 3.628 10.12 9.663 10.12 6.027 0 8.942-3.758 8.942-8.796 0-5.732-3.033-8.265-9.77-10.928-9.682-3.786-12.719-7.293-12.719-14.117 0-6.58 4.019-12.656 13.484-12.656 10.332 0 13.5 6.99 13.582 13.606h-5.515c-.165-2.585-.843-8.832-8.28-8.832-5.322 0-7.642 3.26-7.642 7.641 0 4.294 1.706 6.418 8.94 9.246 9.211 3.625 13.58 6.95 13.58 15.622 0 8.755-5.492 13.987-14.93 13.987-9.63 0-14.567-5.832-14.898-14.893zm37.012-55.441v26.415c1.706-4.376 5.835-7.35 12.154-7.35 6.93 0 12.541 4.223 12.541 15.062v35.32h-5.61V82.185c0-6.548-2.095-11.156-8.642-11.156-7.474 0-10.443 6.275-10.443 15.72v29.601h-5.61V46.8z"/></svg>