<svg xmlns="http://www.w3.org/2000/svg" role="img" viewBox="0.44 51.19 178.88 78.88"><title>OpenImageIO logo</title><path d="M57.333 125.422c4.944-1.564 10.575-4.078 9.929-10.706 1.08-15.18.878-30.455.233-45.653.488-6.522-2.998-12.343-9.875-12.635 3.77-2.788 12.015-1.338 17.562-1.737 2.474.594 12.234-.873 10.52 2.25-9.411-.737-7.658 9.786-8.114 15.994-.163 15.066-.866 30.216.607 45.232-.978 6.111 6.757 4.884 8.206 7.456-8.709 1.667-17.775 1.092-26.587.498-.724-.334-1.898.016-2.48-.7zm36-.089c4.099-1.589 10.033-2.833 8.75-9.16.881-18.41 1.111-36.935-.484-55.309.915-4.6-13.605-3.563-5.171-5.742 8.615-.472 17.469-1.071 25.973.589-1.402 2.72-9.556.752-8.327 7.195-1.302 15.708-.638 31.521-.58 47.27.007 5.873-.184 15.501 8.272 14.216-.157 3.605-11.014 1.696-15.396 2.269-4.275-.31-9.09.379-13.037-1.328zm-68.215-2.845c-8.505-3.141-16.062-9.947-19.368-18.457-2.128-8.646-2.779-18.24.46-26.685 5.816-14.002 23.017-22.04 37.34-16.564 12.432 4.422 21.32 17.293 20.345 30.578.613 15.386-11.457 30.07-26.822 31.946a29.409 29.409 0 0 1-11.956-.818zm18.626-5.187c9.41-5.963 9.718-18.35 9.51-28.288.055-8.943-2.106-18.779-9.824-24.287-5.875-3.452-13.979-2.586-19.788.706-8.976 6.38-9.361 18.662-9.225 28.689.28 9.519 3.204 21.159 13.122 24.806 5.303 1.923 11.338 1.106 16.205-1.626zm93.374 5.187c-8.505-3.141-16.062-9.947-19.368-18.457-2.128-8.646-2.779-18.24.46-26.685 5.816-14.002 23.017-22.04 37.34-16.564 12.433 4.422 21.321 17.293 20.346 30.578.613 15.386-11.457 30.07-26.822 31.946a29.409 29.409 0 0 1-11.956-.818zm18.626-5.187c9.41-5.963 9.718-18.35 9.51-28.288.055-8.943-2.106-18.779-9.824-24.287-5.875-3.452-13.979-2.586-19.788.706-8.976 6.38-9.361 18.662-9.225 28.689.28 9.519 3.204 21.159 13.122 24.806 5.303 1.923 11.338 1.106 16.205-1.626z"/></svg>