<svg xmlns="http://www.w3.org/2000/svg" role="img" viewBox="-7.95 -6.45 491.40 104.90"><title>OpenAnnotationIO logo</title><style>svg {enable-background:new 0 0 477 92}</style><linearGradient id="SVGID_1_" x1="48.131" x2="93.131" y1="58.785" y2="34.451" gradientUnits="userSpaceOnUse"><stop offset="0" stop-color="#30dae2"/><stop offset=".849" stop-color="#fd338c"/></linearGradient><path fill="url(#SVGID_1_)" d="M95.5 3.3C91 10.6 87 18.1 82.6 25.5c-6.5-12.1-19-20.3-32.6-22-5.3-.6-10.5-.3-15.6 1C18.1 8.6 5.4 22.4 2.6 39-.2 54.8 6.5 71.3 19.4 80.8c7.4 5.5 16.4 8.4 25.5 8.4h27c-.1-4.9-.1-9.9-.1-14.8-7 0-13.9-.2-20.9-.1-4.7 0-9.3.2-13.8-1.2-8-2.3-14.8-8.3-18-16.1-3.3-7.8-2.8-16.9 1.3-24.3 4.2-7.7 12-12.9 20.6-14.3 5.8-.6 11.2.3 16.6 2.7 6.2 3.3 10.5 8.5 14.3 14.2 3.7 5.2 7.4 10.5 11.1 15.8 2.5-3.4 5-6.7 7.3-10.2 1.8-2.8 3.5-5.7 5.3-8.5 8 13.9 16.1 27.8 24 41.8 5.6.2 11.2.1 16.9.1-13.7-23.7-27.3-47.4-41-71z"/><path d="M146.9 43.4c-9 0-15.4-6.7-15.4-14.9v-.1c0-8.3 6.5-15 15.5-15s15.4 6.7 15.4 14.9v.1c0 8.2-6.5 15-15.5 15zm8.8-15c0-5-3.7-9.1-8.8-9.1s-8.7 4.1-8.7 9v.1c0 5 3.7 9.1 8.8 9.1s8.7-4.1 8.7-9.1zm19.7 5.8h-4.9v8.7h-6.4V13.8H176c6.9 0 11.1 4.1 11.1 10v.2c.1 6.7-5.2 10.2-11.7 10.2zm5.3-10.2c0-2.9-2-4.4-5.2-4.4h-4.9v8.9h5.1c3.1 0 5-1.9 5-4.5zm9.1 18.9V13.8h21.9v5.7h-15.6v5.9h13.7v5.7h-13.7v6.1h15.8v5.7h-22.1zm46.1 0l-14.1-18.5v18.5h-6.3V13.8h5.9L235 31.7V13.8h6.3v29.1h-5.4z"/><path d="M176.8 77.6l-2.5-6.5h-11.5l-2.5 6.5h-6.1l11.7-29.3h5.5l11.7 29.3h-6.3zM168.5 56l-3.6 9.4h7.3l-3.7-9.4zm35.6 21.6l-13.2-18.5v18.5H185v-29h5.5l12.8 17.9V48.6h5.9v29.1h-5.1zm30.8 0l-13.2-18.5v18.5h-5.9v-29h5.5l12.8 17.9V48.6h5.9v29.1h-5.1zm25 .5c-8.4 0-14.5-6.7-14.5-14.9v-.1c0-8.3 6.1-15 14.6-15s14.5 6.7 14.5 14.9v.1c-.1 8.3-6.2 15-14.6 15zm8.2-15c0-5-3.4-9.1-8.3-9.1s-8.2 4.1-8.2 9v.1c0 5 3.4 9.1 8.3 9.1s8.2-4 8.2-9.1zm21.9-8.6v23.2h-6V54.5h-8.3v-5.9h22.6v5.9H290zm28.7 23.1l-2.5-6.5h-11.5l-2.5 6.5h-6.1l11.7-29.3h5.5L325 77.6h-6.3zM310.5 56l-3.6 9.4h7.3l-3.7-9.4zm27.6-1.5v23.2h-6V54.5h-8.3v-5.9h22.6v5.9h-8.3zm12.2 23.1v-29h6v29.1h-6zm25.1.5c-8.4 0-14.5-6.7-14.5-14.9v-.1c0-8.3 6.1-15 14.6-15S390 54.8 390 63v.1c0 8.3-6.2 15-14.6 15zm8.3-15c0-5-3.4-9.1-8.3-9.1s-8.2 4.1-8.2 9v.1c0 5 3.4 9.1 8.3 9.1s8.2-4 8.2-9.1zm29.8 14.5l-13.2-18.5v18.5h-5.9v-29h5.5l12.8 17.9V48.6h5.9v29.1h-5.1zm10 0V71h5.2v6.6h-5.2zm11.4 0v-29h5.8v29.1h-5.8zm24.9.5c-8.4 0-14.5-6.7-14.5-14.9v-.1c0-8.3 6.1-15 14.6-15s14.5 6.7 14.5 14.9v.1c0 8.3-6.2 15-14.6 15zm8.3-15c0-5-3.4-9.1-8.3-9.1s-8.2 4.1-8.2 9v.1c0 5 3.4 9.1 8.3 9.1s8.2-4 8.2-9.1z"/></svg>