<svg xmlns="http://www.w3.org/2000/svg" role="img" viewBox="-9.58 -9.58 498.16 467.66"><title>OpenCue logo</title><defs><clipPath id="a" clipPathUnits="userSpaceOnUse"><path d="M292 1124v2974h2967V1124z"/></clipPath></defs><g fill="#231f20" fill-opacity="1" fill-rule="nonzero" stroke="none" transform="matrix(.13333 0 0 -.13333 0 448.893)"><path d="M328.395 433.52c-.032 2.089.128 3.859.136 5.671 0 26.61.348 53.219-.164 79.829-.222 11.582-1.781 23.191-3.484 34.671-8.067 54.399-47.125 90.899-99.977 93.789-54.554 2.981-102.496-26.242-107.578-81.652-7.371-80.289-7.43-162.168-.668-242.527 4.91-58.313 48.063-82.16 112.805-78.02 55.265 3.52 89.324 34.25 95.308 89.36 3.766 34.621 1.86 64.039 3.622 98.879zm110.277-27.04c0-55.968-1.188-69.941-13.688-119.128-24.742-97.391-112.207-147.09-230.425-138.793C92.6055 155.711 14.9961 218.75 6.26953 314.961c-7.61328 83.937-8.86719 169.758-.5625 253.519C17.6172 688.59 105.895 746.828 247.809 740.102c103.734-4.922 181.55-82.551 188.105-189.684 2.234-36.469 2.758-29.609 2.758-66.227.16-23.75 0-49.929 0-77.711"/><path d="M865.723 359.461c.523 77.109-39.543 119.141-113.535 119.09-69.59-.051-114.766-44.582-115.934-114.289-1.211-72.481 44.32-119.231 116.094-119.203 71.91.043 112.875 41.382 113.375 114.402zM537.129 562.859c33.879 0 103.492-.339 103.492-.339s0-27.192.848-59.758c43.847 57.34 118.39 87.847 191.898 64.367 35.817-11.438 73.731-34.969 96.844-64.039 68.723-86.461 54.203-240.692-22.848-311.5-151.625-89.34-271.175 33.84-271.175 33.84V112.578 0h-99.059v562.859"/><path d="M2438 375.871s36.65-.609 43.21-.551c7.18-.289 39.44-.371 58-.371 17.64-75.738-8.18-146.371-66.06-188.008-143.56-103.2926-345.36-17.582-361.4 157.098-6.96 75.711-4.88 153.652 4.58 229.152 15.23 121.559 124.48 185.368 268.51 165.168 106.47-14.929 170.89-102.007 158.3-218.781h-99.47c-.79 3.871-2.71 24.781-4.46 35.891-9.37 59.539-45.4 89.211-101.67 92.121-54.05 2.789-104.42-26.621-109.52-81.102-7.71-81.968-7.95-165.828.37-247.687 5.67-55.852 53.57-78.723 117.84-73.449 55.97 4.589 82.86 29.019 88.67 88.109 1.55 15.687 3.1 32.75 3.1 42.41"/><path d="M1381.17 417.539c-17.18 54.02-57.16 66.789-98.47 67.461-43.88.711-84-14.16-100.19-67.461h198.66zm102.9-88.25h-304.28c.4-41.621 23.23-64.758 55.24-75.609 51.92-17.571 101.82-13.469 142.96 33.761 27.54-14.621 54.81-29.082 81.56-43.281-15.04-76.551-152.75-119.898-259.26-83.172-102.58 35.364-155.44 148.121-124.94 265.801 27.15 104.731 134 164.492 256.01 143.199 108.84-18.98 164.77-104.57 152.71-240.699"/><path d="M3489.3 417.531c-13.62 56.36-56.73 64.969-99.27 67.93-48.33 3.359-82.25-24.262-92.16-67.93h191.43zm102.55-88.281h-302.11c19.29-93.539 115.65-112.602 200.99-42.559 26.45-14.332 53.56-29.011 80.54-43.632-45.19-87.618-167.46-120.668-272.36-76.661-98.71 41.403-146.51 155.84-111.89 267.864 32.17 104.047 147.53 161.968 266.89 133.976 102.44-24.019 156.65-115.699 137.94-238.988"/><path d="M1996.21 160.941h-102.56c0 73.289.26 144.321-.08 215.329-.31 69.039-28.45 106.019-82.61 109.66-52.86 3.55-94.72-30.762-99.82-95.68-5.83-74.281-1.35-149.359-1.35-227.871h-100.92v398.582h94.04c.46-10.352 1.8-26.871 1.8-37.313 0-20.117.08-25.988 0-35.828-.01-1.859 3.53-1.242 4.55.309 7.28 10.992 24.76 28.75 30.04 35.609 42.75 55.571 101.12 58.453 162.37 43.703 52.78-12.703 92.15-61.722 93.85-121.601 2.64-93.039.69-186.211.69-284.899"/><path d="M2665.43 562.41h102.01c0-58.379-.43-115.789.19-173.172.28-26.488.64-53.238 4.38-79.379 6.24-43.578 33.01-67.48 77.14-70.66 47.14-3.41 84.24 14.512 94.92 61.75 8.64 38.25 8.05 78.84 9.26 118.461 1.41 46.281.32 92.649.32 142.238h100.25V161.359h-97.1c-2.08 18.129-4.19 36.461-6.31 54.782-37.11-47.532-81.75-69.692-138.91-68.403-80.98 1.821-141.76 53.903-145.23 134.422-3.95 91.258-.92 182.82-.92 280.25"/><path d="M1608.87 560.961h94.04c.46-10.352 1.8-26.871 1.8-37.313"/></g><g fill="#100f0d" fill-opacity="1" fill-rule="nonzero" stroke="none" clip-path="url(#a)" transform="matrix(.10055 0 0 -.10055 61.178 412.035)"><path d="M2680.04 2262.99l-177.64 47.6c-26.58-64.19-61.44-124.02-103.2-178.32l130.19-130.2-144.66-144.66-130.19 130.19c-54.31-41.76-114.15-76.63-178.33-103.21l47.59-177.63-197.6-52.95-47.66 177.86c-33.74-4.41-68.06-6.92-103-6.92-34.93 0-69.25 2.51-102.98 6.92l-47.66-177.86-197.61 52.95 47.59 177.63c-64.18 26.58-124.02 61.45-178.32 103.21l-130.2-130.19-144.66 144.66 130.2 130.2c-41.77 54.3-76.63 114.13-103.22 178.32l-177.629-47.6-52.949 197.62 177.867 47.66c-4.414 33.73-6.93 68.05-6.93 102.98 0 34.94 2.516 69.26 6.93 102.99l-177.867 47.66 52.949 197.61 177.629-47.6c26.59 64.19 61.45 124.03 103.22 178.33l-130.2 130.2 144.66 144.66 130.2-130.2c54.3 41.76 114.14 76.63 178.32 103.21l-47.59 177.64 197.61 52.95 47.66-177.87c33.73 4.42 68.05 6.93 102.98 6.93 34.94 0 69.26-2.51 103-6.93l47.66 177.87 197.6-52.95-47.59-177.64c64.18-26.58 124.02-61.45 178.33-103.21l130.19 130.2 144.66-144.66-130.19-130.2c41.76-54.3 76.62-114.14 103.2-178.33l177.64 47.6 52.95-197.61-177.86-47.66c4.41-33.73 6.92-68.05 6.92-102.99 0-34.93-2.51-69.25-6.92-102.98l177.86-47.66zm-904.5 1429.82c-597.32 0-1081.548-484.23-1081.548-1081.56 0-597.32 484.228-1081.55 1081.548-1081.55 597.34 0 1081.57 484.23 1081.57 1081.55 0 597.33-484.23 1081.56-1081.57 1081.56"/><path d="M2959.06 2454.41c-76.77-582.92-575.52-1032.86-1179.4-1032.86-657.06 0-1189.707 532.64-1189.707 1189.7 0 657.06 532.647 1189.71 1189.707 1189.71 603.88 0 1102.63-449.94 1179.4-1032.86h299.5c-78.36 747.59-710.56 1330.29-1478.9 1330.29-821.324 0-1487.137-665.81-1487.137-1487.14 0-821.32 665.813-1487.13 1487.137-1487.13 768.34 0 1400.54 582.7 1478.9 1330.29h-299.5"/></g></svg>