<svg xmlns="http://www.w3.org/2000/svg" role="img" viewBox="8.56 8.56 282.88 89.63"><title>OpenMesh logo</title><path d="M31.3 22.2C23.4 26.7 17 30.9 17 31.5c.1 1 28.1 17.5 30 17.5.6 0 1-6 1-17.5 0-13.3-.3-17.5-1.2-17.5-.7 0-7.7 3.7-15.5 8.2zm15.4 9.3c-.1 17.9.8 17-10.7 10.2-4-2.3-9.2-5.4-11.8-6.8-2.5-1.4-4.7-3-4.9-3.5-.2-.5 1.4-1.8 3.4-2.9 2.1-1.1 6.6-3.7 10.1-5.7 3.4-2.1 6.6-3.8 7.1-3.8s1.4-.7 2.1-1.5c.7-.8 2-1.5 3-1.5 1.6 0 1.8 1.3 1.7 15.5zm5.3.1c0 14.5.2 17.5 1.4 17.2 2.8-.6 29.5-16.3 29.6-17.3C83 30.3 55.2 14 53.2 14c-.9 0-1.2 4.6-1.2 17.6zm15.6-8.4c1.9 1.4 9.8 5.8 11.7 6.4 2.7 1 1.6 2.4-4.6 5.8-3.1 1.7-6.2 3.7-6.9 4.4-.7.7-1.6 1.2-2.1 1.2-.6 0-3.2 1.3-5.9 3-2.6 1.6-5.2 3-5.7 3s-1-7.2-1.1-16.1l-.1-16 6.8 3.7c3.7 2 7.3 4.1 7.9 4.6zm37.6 14.3c-7 5.9-7 26.1 0 32 5.3 4.5 11.9 2.8 15.5-3.8 2.4-4.4 2.4-19.9 0-24.4-3.5-6.6-10.2-8.3-15.5-3.8zm12.3 3.9c2.8 3.8 2.9 19.7.2 23.9-3.9 6.1-10.4 5.3-13.1-1.5-2.1-5-2-15.7 0-20.7 2.6-6.5 8.7-7.3 12.9-1.7zM220 35.9c-2.2.6-2.8 2.1-6.5 15.9-2.2 8.3-4.2 15.2-4.5 15.2-.3 0-2.3-6.9-4.5-15.3-3.9-14.7-4.1-15.2-6.7-15.5l-2.8-.3v17.9c0 15.2.2 17.9 1.5 17.9s1.5-2.6 1.6-16.6V38.5l4.6 16.2c3.5 12.3 5 16.3 6.2 16.3 1.2 0 2.7-3.9 6.1-16.3l4.5-16.2.5 16.5c.4 12.1.8 16.6 1.8 16.7.9.2 1.2-3.9 1.2-18.2 0-10.2-.1-18.5-.2-18.4-.2.1-1.4.4-2.8.8zm51.3-.2c-1 .4-1.3 4.9-1.3 18.2 0 15.1.2 17.8 1.5 17.8 1.2 0 1.5-1.9 1.5-10.7 0-11.8 1-14 6.3-14 3.9 0 4.7 2.6 4.7 14.5 0 7.4.3 10.6 1.1 10.3.8-.3 1.1-4.3 1-12.3-.1-11-.3-12.2-2.3-13.8-2.6-2.2-7.6-1.7-9.5.9-1 1.4-1.3.5-1.5-4.8-.2-4.6-.7-6.4-1.5-6.1zM14 53.5c0 13.4.3 17.5 1.3 17.5 1.9-.1 29.1-16.4 29.1-17.5 0-1.1-27.2-17.4-29.1-17.5-1 0-1.3 4.1-1.3 17.5zm9.9-10.8c3.6 2 6.8 3.9 7.1 4.2.3.3 2.3 1.5 4.5 2.6s4.5 2.5 5.1 3.1c1.4 1.2 1.8.9-13.8 10l-10.7 6.2-.6-3.9c-.7-3.8-.5-23.7.2-25.2.6-1.1 1.2-.9 8.2 3zm45.4 1.6c-7.8 4.5-14.2 8.6-14.2 9.2C55.1 54.6 83.2 71 85 71c.6 0 1-6 1-17.5 0-13.4-.3-17.5-1.2-17.4-.7 0-7.7 3.7-15.5 8.2zM84 53.4c0 13.9-.1 14.4-2 13.9-1.1-.3-2-.8-2-1.2 0-.3-2.1-1.8-4.7-3.1-2.7-1.4-4.9-2.8-5.1-3.3-.2-.4-1-.7-1.8-.7-1.6 0-6.5-2.8-7.6-4.4-1.1-1.6.1-3.1 3.5-4.5 1.7-.8 3.4-1.7 3.7-2.1.7-.9 14.9-9 15.8-9 .1 0 .2 6.5.2 14.4zm49-7.4c-2.4 2.4-3.1 2.5-2.4.5.4-.9 0-1.5-1-1.5-1.4 0-1.6 2.1-1.6 17.5 0 14.9.2 17.5 1.5 17.5 1.2 0 1.5-1.3 1.5-6v-6l2 2c4.6 4.6 11.3.7 12.5-7.4.4-2.5.4-6.7 0-9.2-1.2-8.1-7.9-12-12.5-7.4zm9.1 4.8c1.6 4.2.7 14.7-1.5 17.1-4.5 5-9.6.2-9.6-9 0-7.1 1.3-10.7 4.2-11.8 3-1.1 5.6.3 6.9 3.7zm13.2-5.8c-3.8 1.6-5.5 6.4-5.1 14.6.3 6 .8 7.7 2.7 9.8 4 4.2 10.1 3.2 12.9-2.1 1.6-2.9 1.5-4.3-.3-4.3-.8 0-1.5.7-1.5 1.5 0 1.9-3.6 5.5-5.5 5.5-2.9 0-5.5-3.8-5.5-8v-4h14v-3.5c0-4.6-1.7-8-4.7-9.4-2.8-1.3-4-1.3-7-.1zm7.7 3.9c.5 1.1 1 3.1 1 4.5 0 2.5-.3 2.6-5.5 2.6s-5.5-.1-5.5-2.6c0-4.4 1.7-6.4 5.5-6.4 2.4 0 3.8.6 4.5 1.9zm14.6-2.8c-2.1 1.7-2.6 1.8-2.6.5 0-.9-.7-1.6-1.5-1.6-1.3 0-1.5 2.1-1.5 13.3 0 11.2.2 13.4 1.5 13.4 1.2 0 1.5-1.8 1.5-10.1 0-10.7 1-13.9 4.9-14.9 1.1-.2 2.9.2 4 1 1.9 1.3 2.1 2.4 2.1 12.9 0 8.8.3 11.5 1.3 11.1.9-.3 1.2-3.6 1.2-12.1 0-11.2-.1-11.9-2.4-13.7-3-2.4-5.2-2.4-8.5.2zm55.9-.9c-3.1 1.8-4.3 3.9-5.1 8.5-1 6.4.4 13.2 3.1 15.9 3.2 3.2 7.8 3.2 11-.1 2.8-2.7 3.3-6.5 1-6.5-.8 0-1.5.8-1.5 1.8 0 2.2-3 5.2-5.2 5.2-2.4 0-4.9-3.6-5.5-7.9l-.6-4.1h15.5l-.7-4.3c-1-5.6-2.1-7.6-5.1-8.7-3.2-1.3-4.4-1.2-6.9.2zm7.3 3c.5.7 1.3 2.8 1.7 4.5l.7 3.3h-6.1c-5.7 0-6.1-.2-6.1-2.3 0-5.3 6.8-9.1 9.8-5.5zm12.7-3c-2.8 1.6-3.5 2.8-3.5 6.4 0 3.6 1.6 5.2 7.4 7.5 5.5 2.2 7.2 6.2 3.7 9-1.3 1-3.1 1.9-4.1 1.9-2.1 0-5-3.1-5-5.3 0-.9-.7-1.7-1.6-1.7-1.3 0-1.5.6-1 2.7.9 3.7 4.1 6.3 7.8 6.3 4.2 0 6.4-1.5 7.7-5.1 1.6-4.6-.3-7.9-5.9-10-5.4-2-7.6-4.9-6-7.8.8-1.5 2.1-2.1 4.5-2.1 2.9 0 3.6.4 4.1 2.5.7 2.7 3.4 3.5 3.4 1 0-2.4-4.6-6.5-7.2-6.5-1.3 0-3.2.6-4.3 1.2zM31.3 66.3C23.4 70.8 17 75 17 75.5 17 76.7 44.8 93 46.8 93c.9 0 1.2-4.3 1.2-17.5 0-13.4-.3-17.5-1.2-17.4-.7 0-7.7 3.7-15.5 8.2zM46 75.5V91l-3.7-2c-2.1-1.2-6-3.4-8.8-5-2.7-1.6-6.7-3.8-8.8-5-2-1.1-3.7-2.7-3.7-3.4 0-1.2 4.6-4.2 21.5-13.8 1.7-.9 3.1-1.7 3.3-1.7.1-.1.2 6.9.2 15.4zm6 0c0 13.2.3 17.5 1.2 17.5 2 0 29.8-16.3 29.8-17.5-.1-1-28.1-17.5-30-17.5-.6 0-1 6-1 17.5zm6-12.7c0 .4 2.7 2 6 3.5 3.3 1.6 6 3.3 6 3.8s.7.9 1.5.9 2.9 1.3 4.6 2.8l3.1 2.8-4.6 1.9c-2.5 1.1-4.6 2.2-4.6 2.6 0 .4-1.2 1.4-2.7 2.2-1.6.7-4.5 2.4-6.7 3.6-2.1 1.2-4.4 2-5 1.8-1.3-.5-2.2-23.9-1.1-25.7.7-1.2 3.5-1.3 3.5-.2z"/></svg>