<svg xmlns="http://www.w3.org/2000/svg" role="img" viewBox="-4.70 -4.70 218.14 54.14"><title>Open Subdiv logo</title><path fill="#E39327" stroke="#E39327" d="M7.5 0h9l7 2Q35.8 6.8 43 16.5l1 4Q39.7 33.7 29.5 41l-8 4h-11L2 39.5l-2-5v-17l2-9L7.5 0zM20 12l-2 2q-1 11 7 15l5-2q4-1 3-8l-8-7h-5zM4 18l-1 3q-2 8 1 12 1 3 5 2l1-2-3-13-3-2z" opacity=".906"/><path fill="#C9CFD1" stroke="#C9CFD1" d="M150 11l6 .5-5 .5v17.5q0 1 4.5.5h2l1.5.5-1.5.5h-2q-5.4.6-5.5-.5V11zm28 0l6 .5-5 .5-.5 6-2.5-1.5 2-.5v-5zm8 0h5.5l.5.5V31h-5.5l-.5-.5V11zm1 1q-2 5 4 3 2-5-4-3zm0 5v13h4V18l-4-1zM56.5 12l2.5.5-6 4-.5 2.5-.5-2.5 4.5-4.5zm8 0l3.5 1 2 3.5-4.5-3.5-1-1zm55 0l2.5.5-4 2-.5 1.5-.5-1.5 2.5-2.5zm8 0l4.5 1q.8 3.8-2.5 5l-6-1v1l1.5.5-1.5.5-1.5-3 7.5 1 1.5-2.5-3.5-1.5v-1z" opacity=".412"/><path fill="#C9CFD1" stroke="#C9CFD1" d="M58.5 14l1.5.5-4 1.5-1.5 4-.5-1.5 2.5-3.5 2-1zm7 1l1 2-1-2zm13 1q5.1-.6 6.5 2.5l-1.5-.5-5-1v-1zm14 0q5.8-.8 7.5 2.5l1 3h-1L99 18l-6.5-1-3 2 1-2 2-1zm15 0l3.5.5-5 2q2.3 1.2-.5 2.5l-1-4 3-1zm27 0h5.5v9.5l1.5.5 1.5-.5-2.5 1.5-1.5-1.5V17h-4.5v-1z" opacity=".412"/><path fill="#C9CFD1" stroke="#C9CFD1" d="M143 16h6v15l-6.5-1-2 1v-1l3-1 4.5 1V17.5l-4-.5-.5 7-.5-8zm14.5 0l1.5.5-2.5 1.5 1-2zm5 0l3.5 2.5 1 8-3.5 4.5-1.5-.5 3-2 1-8-2.5-3.5-1-1zm9 0l1.5.5-4 3-.5 1.5-.5-1.5 3.5-3.5zm21.5 0h5.5l.5 1.5 1 3.5q3 1.3 2-2.5l1-2.5h6v2.5L204.5 29l-.5-1.5 4-10.5q-3.8-1-5 1.5l-1 5.5q-3 1.3-2-2.5l-2.5-4.5q-4.4-1.5-3.5 1.5h-1V16zM72.5 17l.5 17.5h-1l.5-17.5zm2 0l2.5.5-.5 1.5 3-1v1L76 20l-1.5 5-.5-2.5 2-3-2-.5.5-2zm28 0l.5 13 2 .5-3 .5.5-14zm10 0l1 2-1-2zm-42 1l.5 6.5-5.5 6.5-2.5-.5 6-4 1.5-8.5zm23 0q5-.5 5.5 3.5l-.5 1.5-3-4q-4-.5-4.5 2.5l-.5 1.5-.5-1.5 1-2.5 2.5-1zm-12 1l2.5 3.5h-1L81.5 19zm29 0l2.5 2.5.5 8.5 1-10 .5 11-3-.5v-9l-1.5-2.5zm-59 1l.5 2.5h-1l.5-2.5zm66 0l6.5 3.5-2.5.5-4-4zm12 0l2.5 1.5 1 5-2.5 3.5.5-1.5 1-5-1-2.5-1.5-1z" opacity=".412"/><path fill="#C9CFD1" stroke="#C9CFD1" d="M157.5 20q4-.5 4.5 2.5.5 4-2.5 4.5l-3.5-1.5.5-1.5.5 2 4-1.5-1.5-3.5q-3.3-1.1-2.5 1.5h-1l1.5-2.5zm17 0q4-.5 4.5 2.5.5 4-2.5 4.5l-3.5-1.5.5-1.5.5 2 4-1.5-1.5-3.5q-3.3-1.1-2.5 1.5h-1l1.5-2.5zm-120 2l4 6 2.5.5-2.5.5-4.5-4.5.5-2.5zm32 0l1.5 2.5-3 5.5-3.5 1v-1l3.5-2.5 1.5-5.5zm-19 2l.5 1.5-5.5 3.5v-1l4.5-2.5.5-1.5zM90 24l11 .5-10 .5 1.5 3 1.5.5-1.5.5q-3.2-1.2-2.5-5zm28.5 0l8.5 2.5-4.5.5-4.5-2-1 4 5 1.5-2.5.5-3.5-2.5 2.5-4.5z" opacity=".412"/><path fill="#C9CFD1" stroke="#C9CFD1" d="M83.5 25l.5 1.5-3.5 2.5v-1l2.5-1.5.5-1.5zm113 0l1.5 3.5h-1l-.5-3.5zm-121 1l3.5 2.5-1.5.5-2-3zm13 0l3 4 1.5.5-1.5.5-3.5-3.5.5-1.5zm80 0l3 4 1.5.5-1.5.5-3.5-3.5.5-1.5zm-115 1l2 3-2-3zm45 0l2.5 1.5q-.5 3-4.5 2.5v-1l3.5-1.5-1.5-.5-2 1v-1l2-1zm36 0l2 3 1.5.5-1.5.5q-3.6-1.1-2-4zm-60 1l3.5 2.5-1.5.5-1.5-.5-.5 4.5v-7zm104 1l5.5 1.5-7.5.5v-1l2-1zm20 1l5.5.5-5.5.5v-1z" opacity=".412"/><path fill="#CCCFD1" stroke="#CCCFD1" d="M59.5 12q8.1-.1 10.5 5.5 1.6 10.1-4.5 12.5l-6 1-6.5-4.5-1-7 4.5-6.5 3-1zm-.5 2l-2 1-3 4q-1 9 5 10 7 1 9-3l-1-9q-2-4-8-3zm63.5-2q6.2-.7 8.5 2.5l-1.5 2.5-7.5-1 1.5 3 7.5 2 1 5.5-2.5 3.5-7 1-5.5-2 1-4q3 2.7 9 2 1.7-4.1-2.5-3l-7.5-4.5q-.6-5.1 2.5-6.5l3-1zm28.5 0q7.5-2.7 5 5.5l1.5-.5 4-1 3.5 2.5 1 8-2.5 3.5-4 1-3-2-5.5 1V12zm7 8q-3 1-2 6l4 1q3-1 2-4t-4-3zm21-8l5 .5V30l-5.5-1-5 2-4.5-3.5-1-6 3.5-4.5 4-1 3 2 .5-6zm-4 8q-3 1-2 6l4 1q3-1 2-4t-4-3zm12-8q5.6-1.9 4 3-5.6 1.9-4-3zM73.5 17l.5 2 3.5-2h4l3.5 2.5 1 6-3.5 4.5-4 1-4-3-1 7V17zm5.5 1l-2 1-3 4 1 4q1 3 7 2 3-1 2-7l-5-4zm13.5-1l6.5 1 2 6H90.5l-.5 2.5q1.3 3.8 7.5 2.5l2-1-1 2-5 1-4.5-3.5-1-6 2.5-3.5 2-1zm1.5 1l-3 1-1 4h9v-1q0-4-5-4zm9.5-1q2 4 4 0 5.5-1 6.5 2.5l-.5 10.5-.5-8.5-2.5-2.5-2-1-3.5 2.5v9l-2 .5.5-13zm30.5 0h5v8.5l2.5 1.5q4-2.8 2.5-10l4 .5V30l-5.5-1-4 2-3.5-2.5-1-2V17zm53 0l4 .5V30l-4-.5V17zm7 0q3.8-1 5 1.5l1 5.5q3 1.3 2-2.5l2.5-4.5q4.4-1.5 3.5 1.5L204 30h-6v-2.5L194 17z" opacity=".984"/><path fill="#3AA3AC" stroke="#3AA3AC" d="M20.5 12h4l7.5 5.5 1 5-3.5 4.5-6 1v-1q4 .5 4.5-2.5L25.5 19q-2.2-3-7.5-2v-4h1.5l1-1zM4 18l3 1.5q-.9 8.9 3 13L9 35q-3.8.8-5-2.5-2.7-3.8-1-12L4 18z" opacity=".996"/></svg>