<svg xmlns="http://www.w3.org/2000/svg" role="img" viewBox="7.08 -2.67 146.35 165.10"><title>OpenBatchIO logo</title><path fill="#1C4C05" stroke="#1C4C05" d="M15.5 4l14.5.5L15 5l-.5 6-.5-5.5L15.5 4zm47 0h37l1.5 1.5.5 3.5h29v1h-29L100 8.5 99.5 5H62q1 3.8-1.5 5L31 9.5 61 9q-1-3.8 1.5-5zm70 0h13l1.5 1.5-.5 4.5-.5-5h-13.5l-.5 2.5h-1l1.5-3.5zm-101 23q2.3-.7 1.5 1.5l6.5 9.5 2 1 19.5.5-31 .5V28.5l1.5-1.5zm69.5 0l4 2.5v2l5.5 6.5 2 1 18.5.5-30 .5V27zm-86.5 1l.5 14.5h-1l.5-14.5zm132 10l.5 5.5h-1l.5-5.5zm-15 3l.5 2.5h-1l.5-2.5zM65 46h11.5l1.5 1.5q.8 2.3-1.5 1.5L66 57.5l-.5 77.5-.5-89zm30.5 1l.5 86.5h-1l.5-86.5zm-30 108l9.5.5-9.5.5v-1zm28 0l3.5.5-3.5.5v-1z"/><path fill="#7ABA20" stroke="#7ABA20" d="M14 17h15.5l.5 1.5 1.5-.5 69.5-1 .5 2 1-1h28l1-1H147v8.5l-.5.5h-42l-3-1-1 1h-67l-3-1-1 1h-14L14 24.5V17zm66 15l9 1v12.5l-2.5.5.5 1.5v86l2 2v19l-1.5 1.5H80v-21.5l-1-1v-84l1-1V32z"/><path fill="#2C7608" stroke="#2C7608" d="M15 10h15.5l.5 1.5-.5 1.5h30l1-3H101l.5 3H131l.5-3H147v7h-15.5l-1 1h-28l-1 1-.5-2H61.5l-1 1h-29l-1 1-.5-2H14.5q-1 0-.5-4.5l1-2.5zm-.5 15l1 1H30l-.5 3h-14q-2.5-1-1-4zm18 0l1 1H101l-1.5 3-66-1-1.5-1.5.5-1.5zm71 0l1 1H147l-.5 3h-15l-1-1h-26l-1.5-1.5.5-1.5zm-28 7H80v14h-6V33.5l1.5-1.5zM89 33l8 2v10.5l-1.5.5h-2l-1.5.5V134l5 1v19.5q-.1 1.1-5.5.5l-3 1 .5-1.5v-19l-2-2v-86l-1-1 3-.5V33zM78.5 48l1.5.5-1 1v84l1 1V156l-6-1v-20.5l3-1v-84l1.5-1.5z"/><path fill="#2C7508" stroke="#2C7508" d="M15 5h14.5l.5 3.5 1.5 1.5h29Q63 8.8 62 5h37.5l.5 3.5 1.5 1.5H131l1-5h14v5h-14.5l-1 3H101l-.5-3H61l-.5 3h-30l.5-1.5-.5-1.5H15V5zm15 20q2.7-1.1 2 1.5l-2 1V25zm71 0q2.7-1.1 2 1.5l1.5 1.5h26l1 1H147l-1 15h-13.5l-.5-2.5-1-2.5h-18.5l-5.5-4.5-4.5-7.5q-2.6.7-1.5-2z"/><path fill="#2C7508" stroke="#2C7508" d="M33.5 28l66 1 1.5-.5v14l-1 2.5-2.5 1-.5-11-10.5-3h-11L74 33.5V46h-9.5L61 43.5q.5-4.5-.5-4.5h-19L37 35.5 33.5 28zM15 29h15v15H15V29z"/><path fill="#2C7508" stroke="#2C7508" d="M77.5 46q3.8-1 2.5 2l-2.5-2zM92 46l2.5 1 1.5-.5-1 1v86l.5 1.5-3.5-1V46zm-15.5 3l.5 85-3 .5V155H61v-18.5l1.5-1.5 3.5-.5v-77L76.5 49zM97 135l4 1.5v18l-4 .5v-20zm-21.5 20l2.5.5-2.5.5v-1z"/><path stroke="#000" d="M13.5 1l17.5.5-17.5.5-1 1 1-2zm47 0l41.5.5-41.5.5V1zm70 0l17.5.5-17.5.5V1zm-27 2l.5 2.5h-1l.5-2.5zm46 0l.5 42.5-2 1 1-1 .5-42.5zm-138 1l.5 40.5h-1L11.5 4zm22 38l8.5.5-8.5.5v-1zm11 0l13.5.5-13.5.5v-1zm60 0l7.5.5-8 .5-.5 2-.5-1.5 1.5-1.5zm11 0l12.5.5-12.5.5v-1zm13 3l1 2-1-2zm-69 1l1 2-1-2zm40 2l-.5 1.5-.5 81.5-.5-81.5 1.5-1.5zm-37 1l.5 82.5h-1l.5-82.5zm-3 83l-1 2 1-2zm43 0l1.5 2.5h-1l-.5-2.5zm1 24l-1 2 1-2zm-42 2l39.5.5-39.5.5v-1z" opacity=".686"/><path fill="#000100" stroke="#000100" d="M31.5 2l1 2-1-2zm27 2l.5 1.5L57.5 7h-23V6h23l1-2zm70 0l.5 1.5-1.5 1.5h-23V6h23l1-2zm-98 1l.5 3.5h-1l.5-3.5zm0 35l.5 2.5h-1l.5-2.5zm-16 3l1 1 14.5.5-16 .5.5-2zm47 1l1 2-1-2zm39 0l-1 2 1-2zm31 0l15.5.5-15.5.5v-1zm-119 1l1 2-1-2zm90 0l-2 3 2-3zm1 90l.5 20.5h-1l.5-20.5zm-42 20l3.5.5-3.5.5v-1zm36 0l3.5.5-3.5.5v-1z" opacity=".996"/><path stroke="#000" d="M13.5 2h17L33 4.5 34.5 7h23L59 5.5 60.5 2h41l1.5 1.5 1.5 3.5h23l1.5-1.5 1.5-3.5h17l1.5 1.5v42l-1.5 1.5h-17l-1.5-1.5-1.5-3.5h-13l-1 1-1-1h-8L98 49.5V132l5 1v23.5l-1.5 1.5h-41l-1.5-1.5-1-2v-19l1-2.5 4-1V49.5L57.5 42h-13l-2 1-1-1H33q.8 3.8-2.5 5h-16L12 44.5v-41L13.5 2zm.5 2v41h16l1-5h30q1 0 0 5l4 3v87h-4v21h40v-20l-3-1-2-1V47l4-1q2-1 1-6h30v5h16V4h-15l-1 5h-29l-1-5H62l-1 5H32l-1-3-1-2H14z"/></svg>