<svg xmlns="http://www.w3.org/2000/svg" role="img" viewBox="-0.23 37.90 135.46 60.09"><title>OpenImageIO logo</title><path fill="#CFCFCF" stroke="#CFCFCF" d="M75.5 44l1.5 2.5h-1l-.5-2.5zm-17 2l.5 2.5h-1l.5-2.5zm-40 2l-1 2 1-2zm14 0l4 5-4-5zm70 0l-1 2 1-2zm14 0l4 5-4-5zm-106 1l-2 3 2-3zm30 0l2 3-2-3zm10 0l.5 37.5h-1l.5-37.5zm44 0l-2 3 2-3zm30 0l2 3-2-3zM2.5 64l.5 8.5H2l.5-8.5zm84 0l.5 8.5h-1l.5-8.5zm-38 1l.5 6.5h-1l.5-6.5zm84 0l.5 6.5h-1l.5-6.5zM7.5 84l4 5-4-5zm29 0l-3 4 3-4zm55 0l4 5-4-5zm29 0l-3 4 3-4zm-105 1l2 3-2-3zm84 0l2 3-2-3zm-41 2l.5 2.5h-1l.5-2.5zm-20 1l-1 2 1-2zm84 0l-1 2 1-2zm-109 1l1 2-1-2zm84 0l1 2-1-2z"/><path fill="#FFF" stroke="#FFF" d="M0 0h135v135H0V0zm43 41v2l6 1 1 2v45l-3 2q-5-1-4 2h23v-2l-5-1-3-5V50l1-4q2-4 7-3v-2H43zm26 0v2l6 1 2 4v40l-1 3-3 2q-5-1-4 2h23l1-1q-6 0-8-3V47l1-3 6-1v-2H69zm-48 3l-10 5q-7 5-9 16-1 13 5 20 4 6 14 8 11 2 17-3 9-6 11-18 1-14-6-20l-11-8H21zm84 0l-10 5q-7 5-9 16-1 13 5 20 4 6 14 8 11 2 17-3 9-6 11-18 1-14-6-20l-11-8h-11z"/><path fill="#FFF" stroke="#FFF" d="M21.5 47q12.3-1.2 15.5 6.5 4.6 7.9 3 22Q38.5 84 32.5 88q-3 3-10 2-6.1-1.4-8.5-6.5-4.6-7.9-3-22L16.5 50l5-3zm84 0q12.3-1.2 15.5 6.5 4.6 7.9 3 22-1.5 8.5-7.5 12.5-3 3-10 2-6.1-1.4-8.5-6.5-4.6-7.9-3-22l5.5-11.5 5-3z"/><path fill="#454545" stroke="#454545" d="M43 41h21.5l1.5 1.5-3.5.5-1-1h-15L43 43v-2zm27 0h21.5l.5 2-3.5-1h-16L70 43v-2zm-21.5 2l1 2-1-2zm38 0l-1 2 1-2zm-64 1l7.5.5-7.5.5v-1zm84 0l7.5.5-7.5.5v-1zm-84 2l5.5.5-5.5.5v-1zm28 0l.5 2.5h-1l.5-2.5zm34 0l.5 43.5h-1l.5-43.5zm22 0l5.5.5-5.5.5v-1zm-94 2l-1 2 1-2zm26 0l1 2-1-2zm58 0l-1 2 1-2zm26 0l1 2-1-2zm-106 1l-1 2 1-2zm84 0l-1 2 1-2zm-58 3l1 2-1-2zm84 0l1 2-1-2zm-119 1l-1 2 1-2zm84 0l-1 2 1-2zm-81 9l.5 11.5h-1l.5-11.5zm84 0l.5 11.5h-1l.5-11.5zm-54 2l.5 9.5h-1l.5-9.5zm84 0l.5 9.5h-1l.5-9.5zM6.5 82l1 2-1-2zm84 0l1 2-1-2zm-47 1l-4 5 4-5zm84 0l-4 5 4-5zm-77 4l.5 2.5h-1l.5-2.5zm-27 3l4.5.5-4.5.5v-1zm84 0l4.5.5-4.5.5v-1zm-58 1l-1 2 1-2zm-27 1l6.5.5-6.5.5v-1zm84 0l6.5.5-6.5.5v-1zM43 93l2.5 1h18l2-1-1 2h-21l-.5-2zm27.5 0l1 1h18l2.5-1-.5 2H70l.5-2z"/><path stroke="#000" d="M46.5 42l15.5.5-4 3v45l2.5 2.5 3.5.5-18.5.5v-1q3.8.8 4.5-1.5l1-2v-43L48.5 43q-3 .5-2-1zm26 0l16.5.5-4 2-1 2v43l1 2.5 5 1.5-18.5.5v-1q4.8.8 5.5-2.5v-45L74.5 43q-3 .5-2-1z"/><path stroke="#000" d="M19.5 45h12L42 51.5q7.2 6.3 6 21Q46.1 84.1 37.5 89q-5.5 5-18 3-7.4-2.1-11.5-7.5l-5-11v-10q1.9-8.6 7.5-13.5l9-5zm3.5 1l-6 3q-6 5-7 14v11l4 11q3 4 10 6 6 1 9-2l5-5 3-10v-9l-3-11q-4-8-15-8zm80.5-1h12l10.5 6.5q7.2 6.3 6 21-1.9 11.6-10.5 16.5-5.5 5-18 3-7.4-2.1-11.5-7.5l-5-11v-10q1.9-8.6 7.5-13.5l9-5zm3.5 1l-6 3q-6 5-7 14v11l4 11q3 4 10 6 6 1 9-2l5-5 3-10v-9l-3-11q-4-8-15-8z"/></svg>