<svg xmlns="http://www.w3.org/2000/svg" role="img" viewBox="-1.45 -1.45 75.27 10.52"><title>OpenAssetIO logo</title><g transform="translate(-54.62 -122.562)"><path d="M54.62065 126.41407c0 2.23308 1.7145 3.85232 3.84174 3.85232 2.12725 0 3.85232-1.61924 3.85232-3.85232s-1.72508-3.85232-3.85232-3.85232c-2.12724 0-3.84174 1.61924-3.84174 3.85232zm.41275 0c0-2.07433 1.51341-3.46074 3.429-3.46074 1.90499 0 3.43956 1.38641 3.43956 3.46074 0 2.04258-1.53457 3.46074-3.43957 3.46074-1.91557 0-3.42899-1.41816-3.42899-3.46074z"/><path d="M63.7805 122.70992v7.40831h.40217v-2.8575h1.5875c1.67215 0 2.67757-.85724 2.67757-2.27541 0-1.41816-1.00542-2.2754-2.67758-2.2754zm.40217 4.16982v-3.77824h1.5875c1.3864 0 2.26482.65616 2.26482 1.88382 0 1.16417-.79375 1.89442-2.26483 1.89442z"/><path d="M70.28047 129.72664v-3.4184h3.50307v-.381h-3.50307v-2.82574h4.31798v-.39158H69.8783v7.40831h4.78365v-.39159z"/><path d="M81.72448 122.70992v4.98473c0 .93133.04233 1.75683.03175 1.75683h-.01058c-.01058 0-.26458-.35983-.86783-1.16417l-4.14865-5.57739h-.381v7.40831h.40217v-5.01649c0-.9525-.03175-1.76741-.02117-1.76741h.01058c.01058 0 .20108.30692.83608 1.16416l4.16982 5.61974h.381v-7.40831z"/><path d="M89.41904 130.11823h1.25941l-3.13265-7.40831h-1.09008l-3.13266 7.40831h1.25941l.68792-1.68275h3.46074zm-3.72532-2.70933l.9525-2.31774c.15874-.40217.33866-.96308.34924-.96308h.01059c.01057 0 .1905.56091.34924.96308l.9525 2.31774z"/><path d="M96.4915 124.56199c-.27517-1.18533-1.35467-2.00024-2.7305-2.00024-1.52399 0-2.63524.92075-2.63524 2.07433 0 1.29116 1.17475 1.70391 2.04258 2.00024 1.04775.34925 2.19074.53975 2.19074 1.46049 0 .635-.55033 1.12183-1.49224 1.12183-1.06892 0-1.7145-.68791-1.85208-1.46049l-1.12183.30691c.3175 1.29117 1.35466 2.20133 2.93157 2.20133 1.651 0 2.76225-.93133 2.76225-2.21191 0-1.38641-1.32292-1.90499-2.38125-2.24366-.9525-.29633-1.88382-.52916-1.88382-1.23824 0-.59267.56091-.99483 1.3864-.99483.79376 0 1.49225.46566 1.66159 1.29116z"/><path d="M102.85801 124.56199c-.27516-1.18533-1.35466-2.00024-2.73049-2.00024-1.524 0-2.63524.92075-2.63524 2.07433 0 1.29116 1.17475 1.70391 2.04258 2.00024 1.04774.34925 2.19074.53975 2.19074 1.46049 0 .635-.55033 1.12183-1.49225 1.12183-1.0689 0-1.71449-.68791-1.85207-1.46049l-1.12183.30691c.3175 1.29117 1.35466 2.20133 2.93157 2.20133 1.651 0 2.76224-.93133 2.76224-2.21191 0-1.38641-1.32291-1.90499-2.38124-2.24366-.9525-.29633-1.88383-.52916-1.88383-1.23824 0-.59267.56092-.99483 1.38641-.99483.79375 0 1.49225.46566 1.66158 1.29116z"/><path d="M105.41454 129.01756v-2.24366h3.12207v-1.03716h-3.12207v-1.92616h3.91582v-1.10066h-5.09057v7.40831h5.15407v-1.10067z"/><path d="M110.27889 122.70992v1.10066h2.39183v6.30765h1.16416v-6.30765h2.40241v-1.10066z"/><path d="M117.90531 130.11823v-7.40831h-.40216v7.40831z"/><path d="M119.42269 126.41407c0 2.23308 1.7145 3.85232 3.84174 3.85232 2.12725 0 3.85232-1.61924 3.85232-3.85232s-1.72507-3.85232-3.85232-3.85232c-2.12724 0-3.84174 1.61924-3.84174 3.85232zm.41275 0c0-2.07433 1.51341-3.46074 3.42899-3.46074 1.905 0 3.43957 1.38641 3.43957 3.46074 0 2.04258-1.53457 3.46074-3.43957 3.46074-1.91558 0-3.42899-1.41816-3.42899-3.46074z"/></g></svg>