<svg xmlns="http://www.w3.org/2000/svg" role="img" viewBox="-20.10 -19.10 993.20 515.20"><title>OpenTimelineIO logo</title><g stroke-width="1" transform="translate(271.003 .5)"><path fill="#007e4c" stroke="#007e4c" d="M110 74h83v46h-83z" opacity=".988"/><path fill="#007e4c" stroke="#007e4c" d="M212 74h199.5l.5.5V120H212.5l-.5-.5z" opacity=".988"/><path fill="#007e4c" stroke="#007e4c" d="M0 252h192.5l.5.5V297H.5l-.5-.5z" opacity=".988"/><path fill="#007e4c" stroke="#007e4c" d="M212 252h86v45h-86z" opacity=".988"/><path fill="#98c24f" stroke="#98c24f" d="M152.5 0h99l3.5 2.5v7L244.5 20l-34 33-6 5h-4L149 8.5q-1.2-7.2 3.5-8.5z" opacity=".984"/><path fill="#98c24f" stroke="#98c24f" d="M1 139h192v95H1z" opacity=".984"/><path fill="#98c24f" stroke="#98c24f" d="M212 139h200v95H212z" opacity=".984"/></g><g fill="#59595b" stroke="#59595b" stroke-width="1" transform="translate(325.886 135.02) scale(.61628)"><path d="M88.71576 376.13422h41v29h-41z" opacity=".961"/><path d="M464.71576 376.13422h38.5l.5.5v146.5h-38.5l-.5-.5z" opacity=".961"/><path d="M524.71576 376.13422h40v29h-40z" opacity=".961"/><path d="M-461.78424 379.13422l20 1 14 4q17.8 7.3 28.5 21.5 8.8 10.7 13 26l2 10v21q-5.5 31.5-26.5 47.5-10.7 8.8-26 13l-10 2h-18l-11-2-17-7q-10.7-6.2-18.5-15.5-9.1-10.9-14-26l-2-9-1-17 1-1v-8l2-9 8-18 16.5-18.5 17-10zm-1.5 16q-18 3-28 13-15 12-19 36v17l2 9q4 13 13 23 11 12 31 16h18l5-1q13-4 22-12 9-9 14-21l4-17v-11l-3-14-10-18q-9-11-22-17l-12-3z" opacity=".961"/><path d="M941.21579 379.13422q20.4-.9 34 5 18.4 7.6 29.50001 22.5l11 21 3 13v22q-5.5 31.5-26.50001 47.5-9.3 7.7-22 12l-14 3h-18l-11-2-17-7q-10.7-6.2-18.50003-15.5l-11-18-5-18q1.3-8.3-1-13l1-1 1-16 4-12q7.5-17.5 21.50003-28.5l17-10zm-1.5 16q-18 3-28 13-15.00003 13-19.00003 36v16l2 10 9.00003 18q11 16 35 21h18l5-1q13-4 22-12 8-8 13-18l5.00001-19v-12l-2.00001-11q-4-13-11-21-9-11-22-17l-12-3z" opacity=".961"/><path d="M-48.28424 382.13422h123.5l.5.5v34.5h-42v106h-40v-105.5l-.5-.5h-41.5z" opacity=".961"/><path d="M838.71576 382.13422h16.5l.5.5v140.5h-16.5l-.5-.5z" opacity=".961"/><path d="M213.21576 411.13422q25.7-1.7 35.5 12.5l2.5 4.5q7-9 18-14l11-3h14q16 2.5 23.5 13.5l4 7 3 12v79.5h-39v-64.5q-1.6-7-6.5-10.5-3.7-3.3-12-2l-8.5 6.5-2 5v65.5h-39v-61.5l-2-8-4.5-5.5q-3.7-3.3-12-2-6.1 1.4-8.5 6.5l-3 9v61.5h-39v-110h39v13.5l3-2 1.5-2.5q7.8-8.2 21-11z" opacity=".961"/><path d="M386.21576 411.13422h16l13 3q14.2 5.3 22.5 16.5 7 9.5 10 23l1 5v20.5l-72 .5q2.5 8 8.5 12.5l6 3 12 1 11-4 8-7h2l20.5 17.5-5.5 7.5q-10.1 9.9-26 14-4.8-1.2-6 1h-20q-23.1-3.9-35.5-18.5-14.2-14.8-13-45l5-19 12.5-17.5 13-9zm5.5 29l-5 2q-8 5-10 16v1h36l-4-11q-5-8-17-8z" opacity=".961"/><path d="M649.21576 411.13422q25.7-1.7 35.5 12.5l5 9 3 13v77.5h-39v-62.5l-2-7-3.5-4.5q-3.8-4.2-13-3-5.7 1.3-8.5 5.5l-3 6v65.5h-39v-110h38.5l.5.5v12l7.5-6.5q7-6 18-8z" opacity=".961"/><path d="M754.21576 411.13422h16l13 3q13.4 5.1 21.5 15.5 7.9 10.1 11 25l1 24.5h-71.5l-.5 1.5q2.6 7.4 8.5 11.5l10 4h8l11-4 8-7h2l20.5 17.5-10.5 11.5q-8.7 6.8-21 10-4.7-1.2-6 1h-20q-14.6-2.4-25-9l-11.5-10.5q-13.8-14.7-12-45l2-10 6-14 10.5-12.5 14-9zm5.5 29l-7 3q-7 5-9 15l1 1h35q1-8-4-12-5-7-16-7z" opacity=".961"/><path d="M89.71576 413.13422h39v110h-39z" opacity=".961"/><path d="M524.71576 413.13422h39v110h-39z" opacity=".961"/><path d="M-325.78424 416.13422h14l11 3q13.5 5.5 21.5 16.5 6.3 7.8 9 19l1 5v22q-4.4 22.1-19.5 33.5l-15 8-10 2h-11q-22.2-3.8-32.5-19.5l-.5-1.5-.5 51h-15.5l-.5-.5v-136.5h16v18.5l4-3 6.5-7.5q8.4-7.6 22-10zm-1.5 15l-15 7q-13 8-16 26v14q2 10 7 17 8 11 25 15 18 1 27-7 7-6 11-15l3-14-1-13-9-18q-5-7-13-10t-19-2z" opacity=".961"/><path d="M-216.78424 416.13422q32.7-1.7 44.5 17.5 12.7 15 11 43.5h-81.5l-.5 2.5q3 15.5 13.5 23.5 8.4 8.1 25 8l13-3 18-12 9.5 9.5-7.5 7.5q-13.7 13.8-43 12l-17-5q-9.7-5.2-16.5-13.5-7-8-10-20l-2-19 1-1 1-12 7-16 12.5-13.5q8.9-6.6 22-9zm2.5 14q-10 2-16 8-10 9-13 24l1 2h64q0-14-7-21-6-8-15-12z" opacity=".961"/><path d="M-106.78424 416.13422q28.8-1.8 39.5 14.5l5 9 3 15v68.5h-16.5l-.5-.5v-68q-2.4-12.1-10.5-18.5l-12-5h-10q-13.9 2.6-20.5 12.5l-5 12v67.5h-16.5l-.5-.5v-104.5h17v14.5l3-2 4.5-5.5q7.6-6.9 20-9z" opacity=".961"/></g></svg>