<svg xmlns="http://www.w3.org/2000/svg" role="img" viewBox="-16.86 -7.86 1032.72 226.72"><title>OpenQMC logo</title><style>svg {enable-background:new 0 0 1000 211.41}</style><style>.st0{fill:#1dcad3}</style><path d="M666.2 12.41h-2.37l-17.99 50.78h2.37z" class="st0"/><path fill="#36b0c9" d="M678.92 32.72h2.14l-.46-7.83 6.13 4.07.98-1.92-6.82-3.28 6.88-3.29-1.04-1.91-6.13 4.06.46-7.7h-2.14l.46 7.7-6.13-4.06-1.04 1.91 6.88 3.29-6.88 3.28 1.04 1.92 6.13-4.07z"/><path d="M77.05 12.24L3.25 198.7h4.46l24.95-61.72h92.97l25.21 61.72h4.46L81.51 12.24h-4.46zM34.5 133.04L79.15 17.75l44.91 115.29H34.5zm679.64-88.37h19.37l4.22 10.87h2.43l-15.96-41.1h-.69l-15.9 41.1h2.37l4.16-10.87zm8.56-22.17c.52-1.37 1.1-3.47 1.16-3.64.06.18.58 2.27 1.16 3.7l7.69 19.95H715l7.7-20.01zm41.11 33.52c6.82 0 12.61-2.93 16.08-8.12l-1.79-1.31c-3.12 4.6-8.21 7.23-14.28 7.23-10.12 0-17.7-7.95-17.7-18.58s7.58-18.58 17.7-18.58c6.25 0 10.93 2.63 13.82 6.87l1.79-1.37c-3.3-4.96-8.73-7.71-15.61-7.71-11.1 0-20.13 8.42-20.13 20.79s9.02 20.78 20.12 20.78zm27.36-11.35h19.37l4.22 10.87h2.43l-15.96-41.1h-.69l-15.9 41.1H787l4.17-10.87zm8.55-22.17c.52-1.37 1.1-3.47 1.16-3.64.06.18.58 2.27 1.16 3.7l7.69 19.95h-17.7l7.69-20.01zm55.87 12.73c0-12.49-7.92-20.31-21.51-20.31h-8.39v40.62h8.39c13.64 0 21.51-7.82 21.51-20.31zm-27.53 18.1v-36.2h5.73c13.01 0 19.32 7.47 19.32 18.1s-6.3 18.1-19.32 18.1h-5.73zm60.55.06h-21.4v-17.2h18.45v-2.16h-18.45V17.07h20.59v-2.15h-22.96v40.62h23.77zm11.62-30.11c0-1.43-.12-3.52-.12-3.52s1.16 2.03 2.14 3.35l13.65 18.76h.64l13.82-18.76c1.04-1.37 2.14-3.35 2.14-3.35s-.12 2.09-.12 3.52v32.26h2.26v-41.1h-.58l-17.75 24.14-17.75-24.14h-.58v41.1h2.26V23.28zm56.44 32.26h2.43V40.67l13.71-25.75h-2.49l-11.33 21.27c-.52.96-1.04 2.33-1.04 2.45-.06-.24-.46-1.55-.93-2.45l-11.39-21.27h-2.66l13.71 25.69v14.93zm-788.54 9.59c-.78-10.19 1.57-19.86 8.1-27.96 10.97-14.37 30.57-20.64 47.82-20.9 16.46-.26 34.49 4.7 45.73 16.72 5.23 5.75 8.36 12.28 9.93 19.86l.26 2.09 3.92-.78-.26-2.09C274.75 4.78 199.49.33 172.84 34.82c-6.79 8.88-9.67 19.6-8.62 30.57 4.7 68.2 107.92 18.55 119.67 72.9 7.58 36.32-26.91 56.96-58.79 56.96-24.82 0-55.39-13.85-58.27-41.28l-.26-1.83-4.18.52.26 1.83c3.14 29.53 35.54 44.68 62.19 44.68 34.75 0 71.59-22.99 63.23-61.67-12.55-58.52-115.24-8.35-119.94-72.37zm284.95 126.72L408.7 66.12h-5.81l-44.37 125.73-59.43-179.61h-4.23l61.81 186.47h3.7L405.8 69.55l45.69 129.16h3.7L517 12.24h-4.23zm77.92 7.14h4v-91.37h85.49v-4.27H535v-87.1h96.72v-4.01H531v186.75zm140.11-81.68c0-5.62-3.07-9.08-9.43-12.07l-3.64-1.73c-4.86-2.33-6.82-4.3-6.82-8.36 0-4.12 2.72-6.87 7.34-6.87 4.34 0 6.59 2.27 8.21 4.96l1.85-1.25c-1.85-3.05-4.8-5.85-10.06-5.85-5.32 0-9.66 3.46-9.66 9.08 0 5.14 2.72 7.83 8.21 10.45l3.64 1.73c5.49 2.63 8.04 5.2 8.04 9.92 0 5.14-4.22 8.24-9.37 8.24-6.3 0-9.25-3.41-11.1-6.99l-2.02 1.02c1.91 4.06 5.73 8.13 13.19 8.13 6.77-.01 11.62-4.07 11.62-10.41zm26.37 10.4c11.1 0 20.13-8.42 20.13-20.79s-9.02-20.79-20.13-20.79c-11.1 0-20.12 8.42-20.12 20.79s9.02 20.79 20.12 20.79zm0-39.37c10.12 0 17.7 7.95 17.7 18.58s-7.58 18.58-17.7 18.58-17.7-7.95-17.7-18.58 7.58-18.58 17.7-18.58zm31.75 20.49h18.62v-2.21h-18.62V88.76h20.53v-2.15h-22.9v40.62h2.37zm38.81 18.4h2.37V88.76h12.49v-2.15h-27.36v2.15h12.5zm58.11-7.94c-.35 1.08-.69 2.75-.69 2.93-.06-.24-.35-1.85-.69-2.93l-11.28-33.16h-.69l-11.28 33.16c-.4 1.08-.75 2.75-.75 2.93-.06-.24-.35-1.85-.64-2.93l-9.6-32.68h-2.54l12.32 41.1h.64l11.51-33.69c.35-1.14.64-2.69.69-2.93.06.36.29 1.85.64 2.93l11.45 33.69h.64l12.32-41.1h-2.43l-9.62 32.68zm20.24-2.93h19.37l4.22 10.87h2.43l-15.96-41.1h-.69l-15.9 41.1h2.37l4.16-10.87zm8.56-22.17c.52-1.37 1.1-3.47 1.16-3.64.06.18.58 2.27 1.16 3.7l7.69 19.95h-17.7l7.69-20.01zm50.14 4.36c0-7.89-5.38-11.95-13.65-11.95h-10.53v40.62h2.37v-16.79h8.15c.93 0 1.79 0 2.66-.12l9.54 16.91h2.83l-9.89-17.39c5.34-1.48 8.52-5.36 8.52-11.28zm-13.88 9.74h-7.92V88.76h7.92c7.52 0 11.45 3.35 11.45 9.8 0 6.39-3.93 9.73-11.45 9.73zm48.06 16.79h-21.4v-17.21h18.45v-2.15h-18.45V88.76h20.59v-2.15H915.5v40.62h23.77zm-292.73 73.5h2.37v-18.4h18.62v-2.21h-18.62v-17.86h20.53v-2.16h-22.9zm48.75-41.1c-11.1 0-20.13 8.42-20.13 20.79s9.02 20.79 20.13 20.79c11.1 0 20.13-8.42 20.13-20.79-.01-12.37-9.03-20.79-20.13-20.79zm0 39.37c-10.12 0-17.7-7.95-17.7-18.58 0-10.63 7.58-18.58 17.7-18.58s17.7 7.95 17.7 18.58c-.01 10.63-7.58 18.58-17.7 18.58zm53.14-11.95c0 7.83-4.51 12.01-10.93 12.01-6.48 0-10.87-4.18-10.87-12.01v-26.94h-2.37v27.12c0 9.14 5.67 13.98 13.24 13.98 7.52 0 13.3-4.84 13.3-13.98v-27.12h-2.37v26.94zm41.35 5.91c0 1.19.17 3.05.17 3.05s-1.04-1.67-1.79-2.69L763 157.48h-.69v41.1h2.2v-32.86c0-1.19-.17-3.05-.17-3.05s1.04 1.67 1.79 2.69l25.16 33.69h.69v-41.1h-2.2v32.86zm22.49-32.86h-8.39v40.62h8.39c13.65 0 21.51-7.83 21.51-20.31.01-12.48-7.92-20.31-21.51-20.31zm-.29 38.42h-5.73v-36.2h5.73c13.01 0 19.32 7.47 19.32 18.1 0 10.63-6.3 18.1-19.32 18.1zm41.24-38.89l-15.9 41.1h2.37l4.16-10.87h19.37l4.22 10.87h2.43l-15.96-41.1h-.69zm9.19 28.08h-17.7l7.69-20.01c.52-1.37 1.1-3.46 1.16-3.64.06.18.58 2.27 1.16 3.7l7.69 19.95zm7.87-25.45h12.49v38.47h2.37v-38.47h12.49v-2.16h-27.35zm35.44-2.16h2.37v40.62h-2.37zm31.98-.47c-11.1 0-20.13 8.42-20.13 20.79s9.02 20.79 20.13 20.79c11.1 0 20.12-8.42 20.12-20.79.01-12.37-9.01-20.79-20.12-20.79zm0 39.37c-10.12 0-17.7-7.95-17.7-18.58 0-10.63 7.58-18.58 17.7-18.58s17.7 7.95 17.7 18.58c0 10.63-7.58 18.58-17.7 18.58zm56.85-38.9v32.86c0 1.19.17 3.05.17 3.05s-1.04-1.67-1.79-2.69l-25.16-33.69h-.69v41.1h2.2v-32.86c0-1.19-.17-3.05-.17-3.05s1.04 1.67 1.79 2.69l25.16 33.69h.69v-41.1h-2.2z" class="st0"/></svg>