<svg xmlns="http://www.w3.org/2000/svg" role="img" viewBox="1.75 12.75 507.00 328.00"><title>Open Shading Language (OSL) logo</title><path d="M143.787 120.977l321.781 5.886-8.889 21.584 34.395-27.47-34.395-27.468 8.889 21.583-321.781 5.885z"/><path d="M255.606 112.644l63.284-1.16q-5.013-2.573-10.762-4.902l-19.653-8.047q-21.456-8.82-21.452-23.255a21.794 21.794 0 0 1 8.17-17.375q8.169-7.024 20.553-7.028 10.085 0 16.47 4.086 6.13 3.575 12.895 15.323l24.129-14.303q-19.146-33.067-53.242-33.064-25.28 0-42.254 15.052-16.98 14.927-16.979 37.128 0 22.453 18.841 37.545zm145.632-85.897h-29.746v83.774l29.746-.544zM53.061 124.733q0-31.121 21.19-52.297Q95.446 51.004 126.213 51q30.893 0 51.837 21.435a70.637 70.637 0 0 1 20.312 41.256l30.07-.55q-3.864-34.362-29.573-59.967-30.13-30.134-72.26-30.131-42.646 0-73.033 29.877-30.51 29.876-30.511 71.497 0 40.361 24.294 67.556l20.16-21.896q-14.448-18.855-14.45-45.345zm348.177 71.179v-63.934l-29.746-.544v92.437H459.2v-27.96zm-202.184-67.636q-.996 29.15-21.257 49.782-21.325 21.432-52.348 21.43a69.164 69.164 0 0 1-44.11-15.524L59.81 203.786q29.146 23.647 65.255 23.66 43.157 0 73.667-29.743 29.212-28.482 30.338-68.877zm89.748 1.643l7.455 3.1a84.29 84.29 0 0 1 12.771 6.699 39.667 39.667 0 0 1 8.744 7.527 26.685 26.685 0 0 1 4.975 8.804 33.167 33.167 0 0 1 1.599 10.522q0 14.297-9.191 23.608-9.19 9.31-23.11 9.31-17.623 0-26.813-12.77-5.11-6.64-7.147-24.002l-30.132 6.638q4.083 27.577 20.558 42.83 16.718 15.265 42.387 15.26 27.06 0 45.323-17.88 18.126-17.766 18.127-44.98 0-19.851-10.623-33.66z"/><path d="M14.023 237.421l108.868-100.546 8.977 21.548 4.899-43.744-43.745 4.897 21.546 8.977L14.023 237.421zm21.914 82.199q-3.392 3.493-9.812 3.493t-9.812-3.494q-4.55-4.286-4.55-12.351 0-8.227 4.55-12.351 3.393-3.494 9.812-3.494 6.42 0 9.812 3.494 4.53 4.124 4.53 12.35 0 8.066-4.53 12.352zm-3.91-4.552q2.183-2.742 2.184-7.8 0-5.038-2.184-7.79a7.137 7.137 0 0 0-5.902-2.753 7.232 7.232 0 0 0-5.931 2.742q-2.215 2.742-2.215 7.8 0 5.059 2.215 7.801a7.233 7.233 0 0 0 5.931 2.744 7.148 7.148 0 0 0 5.902-2.744zm31.368-12.553q2.71 2.863 2.71 8.41 0 5.85-2.648 8.918a8.595 8.595 0 0 1-6.82 3.067 7.152 7.152 0 0 1-4.416-1.32 8.556 8.556 0 0 1-1.88-2.133v11.538h-5.73v-30.857h5.546v3.27a9.31 9.31 0 0 1 2.004-2.275 7.393 7.393 0 0 1 4.62-1.483 8.754 8.754 0 0 1 6.614 2.865zm-4.443 4.164a4.12 4.12 0 0 0-3.827-1.971 4.354 4.354 0 0 0-4.372 2.986 11.22 11.22 0 0 0-.616 4.023q0 3.86 2.071 5.424a4.755 4.755 0 0 0 2.915.914 4.237 4.237 0 0 0 3.726-1.87 9.787 9.787 0 0 0 .103-9.506zm25.665-6.093a9.012 9.012 0 0 1 3.826 3.275 10.89 10.89 0 0 1 1.764 4.578 28.29 28.29 0 0 1 .19 4.395H74.272q.135 3.332 2.315 4.673a5.887 5.887 0 0 0 3.193.832 4.496 4.496 0 0 0 4.406-2.54h5.91a7.228 7.228 0 0 1-2.145 4.003q-2.976 3.23-8.33 3.23a12.07 12.07 0 0 1-7.8-2.724q-3.38-2.725-3.38-8.866 0-5.753 3.051-8.823a10.674 10.674 0 0 1 7.918-3.07 12.61 12.61 0 0 1 5.208 1.037zm-8.662 5.002a6.011 6.011 0 0 0-1.542 3.427h9.975a4.832 4.832 0 0 0-1.543-3.5 5.078 5.078 0 0 0-3.433-1.193 4.59 4.59 0 0 0-3.457 1.266zm35.226-4.181q2.175 1.798 2.175 5.962v14.911h-5.932v-13.468a6.19 6.19 0 0 0-.464-2.682 3.258 3.258 0 0 0-3.226-1.706 4 4 0 0 0-4.013 2.499 8.635 8.635 0 0 0-.565 3.372v11.985h-5.79v-22.102h5.607v3.23a9.805 9.805 0 0 1 2.104-2.458 7.291 7.291 0 0 1 4.511-1.34 8.488 8.488 0 0 1 5.593 1.797zm24.094 11.63a6.073 6.073 0 0 0 1.141 3.067q1.555 1.85 5.331 1.85a11.463 11.463 0 0 0 3.67-.488 3.486 3.486 0 0 0 2.677-3.474 2.561 2.561 0 0 0-1.31-2.296 14.215 14.215 0 0 0-4.158-1.401l-3.242-.711a20.189 20.189 0 0 1-6.567-2.296q-3.027-2.071-3.027-6.48a8.606 8.606 0 0 1 2.962-6.684q2.961-2.66 8.699-2.661a13.342 13.342 0 0 1 8.174 2.509 8.921 8.921 0 0 1 3.548 7.283h-6.013a4.288 4.288 0 0 0-2.416-3.84 8.277 8.277 0 0 0-3.728-.751 7.096 7.096 0 0 0-3.957.975 3.086 3.086 0 0 0-1.479 2.722 2.568 2.568 0 0 0 1.458 2.397 18.073 18.073 0 0 0 3.978 1.24l5.255 1.238a13.377 13.377 0 0 1 5.18 2.174 7.325 7.325 0 0 1 2.676 6.114 8.59 8.59 0 0 1-3.172 6.816q-3.173 2.713-8.963 2.712-5.913 0-9.301-2.671a8.837 8.837 0 0 1-3.388-7.344zm38.686-12.777a6.504 6.504 0 0 1 2.742 2.176 5.8 5.8 0 0 1 1.111 2.551 31.497 31.497 0 0 1 .203 4.28v13.013h-5.912v-13.483a5.97 5.97 0 0 0-.605-2.888 3.03 3.03 0 0 0-2.984-1.546 4.094 4.094 0 0 0-3.458 1.535 7.069 7.069 0 0 0-1.18 4.383v12h-5.79v-29.843h5.79v10.564a7.08 7.08 0 0 1 2.903-2.691 8.173 8.173 0 0 1 3.468-.762 9.383 9.383 0 0 1 3.712.71zm18.27 8.552a9.129 9.129 0 0 0 2.312-.508 1.741 1.741 0 0 0 1.249-1.646 1.946 1.946 0 0 0-.958-1.879 6.048 6.048 0 0 0-2.81-.517 3.687 3.687 0 0 0-2.945 1.015 4.185 4.185 0 0 0-.824 2.032h-5.586a8.472 8.472 0 0 1 1.632-4.775q2.305-2.925 7.916-2.925a14.11 14.11 0 0 1 6.488 1.443q2.836 1.443 2.836 5.444v10.157q0 1.056.04 2.56a3.217 3.217 0 0 0 .346 1.544 2.078 2.078 0 0 0 .853.67v.853h-6.297a6.405 6.405 0 0 1-.366-1.26q-.102-.588-.162-1.34a11.953 11.953 0 0 1-2.78 2.215 8.399 8.399 0 0 1-4.25 1.076 7.332 7.332 0 0 1-4.995-1.717 6.102 6.102 0 0 1-1.972-4.865 6.304 6.304 0 0 1 3.172-5.911 14.17 14.17 0 0 1 5.116-1.422zm3.54 2.702a6.442 6.442 0 0 1-1.122.558 9.456 9.456 0 0 1-1.555.397l-1.318.243a8.662 8.662 0 0 0-2.66.793 2.643 2.643 0 0 0-1.369 2.458 2.566 2.566 0 0 0 .836 2.142 3.173 3.173 0 0 0 2.032.66 6.05 6.05 0 0 0 3.496-1.096q1.599-1.097 1.66-4.002zm22.57-11.021a7.036 7.036 0 0 1 2.54 2.447v-10.563h5.87v29.903h-5.627v-3.067a8.164 8.164 0 0 1-2.824 2.864 7.93 7.93 0 0 1-3.94.894 8.228 8.228 0 0 1-6.532-3.139 12.051 12.051 0 0 1-2.65-8.055q0-5.667 2.61-8.918a8.495 8.495 0 0 1 6.978-3.25 7.147 7.147 0 0 1 3.575.884zm1.422 15.775a8.081 8.081 0 0 0 1.28-4.734q0-4.063-2.052-5.81a4.416 4.416 0 0 0-2.925-1.056 4.067 4.067 0 0 0-3.728 1.919 10.353 10.353 0 0 0 .02 9.67 4.09 4.09 0 0 0 3.667 1.839 4.276 4.276 0 0 0 3.738-1.828zm18.202-18.771h-5.87v-5.343h5.87zm-5.87 2.64h5.87v22.143h-5.87zm29.333 1.27q2.174 1.798 2.174 5.962v14.911h-5.932v-13.468a6.183 6.183 0 0 0-.464-2.682 3.257 3.257 0 0 0-3.226-1.706 4 4 0 0 0-4.013 2.499 8.636 8.636 0 0 0-.565 3.372v11.985h-5.79v-22.102h5.607v3.23a9.805 9.805 0 0 1 2.104-2.458 7.294 7.294 0 0 1 4.512-1.34 8.49 8.49 0 0 1 5.593 1.797zm18.512-1.29a6.953 6.953 0 0 1 3.408 3.21v-3.19h5.648v21.006q0 4.286-1.443 6.46-2.478 3.738-9.508 3.738a12.954 12.954 0 0 1-6.926-1.666 6.144 6.144 0 0 1-2.966-4.978h6.297a2.606 2.606 0 0 0 .793 1.463 4.889 4.889 0 0 0 3.148.792q3.128 0 4.185-2.092a10.588 10.588 0 0 0 .691-4.51v-1.421a7.055 7.055 0 0 1-1.788 2.133 7.185 7.185 0 0 1-4.49 1.32 8.496 8.496 0 0 1-6.815-2.996 12.113 12.113 0 0 1-2.55-8.116 13.69 13.69 0 0 1 2.456-8.298 8.107 8.107 0 0 1 6.959-3.363 7.61 7.61 0 0 1 2.9.508zm1.972 15.876q1.396-1.534 1.395-4.886a7.494 7.494 0 0 0-1.325-4.793 4.32 4.32 0 0 0-3.55-1.646 4.183 4.183 0 0 0-4.187 2.864 10.18 10.18 0 0 0-.608 3.758 8.606 8.606 0 0 0 .648 3.434 4.22 4.22 0 0 0 4.208 2.802 4.446 4.446 0 0 0 3.419-1.533zm24.513-23.656h6.257v24.56h14.951v5.383h-21.208zm33.716 16.475a9.128 9.128 0 0 0 2.313-.508 1.742 1.742 0 0 0 1.249-1.646 1.945 1.945 0 0 0-.958-1.879 6.048 6.048 0 0 0-2.811-.517 3.69 3.69 0 0 0-2.945 1.015 4.19 4.19 0 0 0-.824 2.032h-5.586a8.48 8.48 0 0 1 1.632-4.775q2.306-2.925 7.916-2.925a14.115 14.115 0 0 1 6.489 1.443q2.836 1.443 2.835 5.444v10.157q0 1.056.04 2.56a3.21 3.21 0 0 0 .346 1.544 2.074 2.074 0 0 0 .853.67v.853h-6.297a6.442 6.442 0 0 1-.366-1.26q-.101-.588-.162-1.34a11.946 11.946 0 0 1-2.78 2.215 8.396 8.396 0 0 1-4.25 1.076 7.332 7.332 0 0 1-4.996-1.717 6.103 6.103 0 0 1-1.971-4.865 6.305 6.305 0 0 1 3.171-5.911 14.173 14.173 0 0 1 5.118-1.422zm3.54 2.702a6.387 6.387 0 0 1-1.122.558 9.47 9.47 0 0 1-1.555.397l-1.317.243a8.674 8.674 0 0 0-2.662.793 2.644 2.644 0 0 0-1.367 2.458 2.567 2.567 0 0 0 .835 2.142 3.174 3.174 0 0 0 2.032.66 6.05 6.05 0 0 0 3.496-1.096q1.6-1.097 1.66-4.002zm28.685-10.107q2.173 1.798 2.173 5.962v14.911h-5.931v-13.468a6.183 6.183 0 0 0-.464-2.682 3.257 3.257 0 0 0-3.227-1.706 3.999 3.999 0 0 0-4.012 2.499 8.644 8.644 0 0 0-.565 3.372v11.985h-5.79v-22.102h5.608v3.23a9.795 9.795 0 0 1 2.103-2.458 7.29 7.29 0 0 1 4.51-1.34 8.491 8.491 0 0 1 5.595 1.797zm18.511-1.29a6.953 6.953 0 0 1 3.409 3.21v-3.19h5.647v21.006q0 4.286-1.442 6.46-2.479 3.738-9.508 3.738a12.954 12.954 0 0 1-6.927-1.666 6.144 6.144 0 0 1-2.966-4.978h6.297a2.606 2.606 0 0 0 .793 1.463 4.889 4.889 0 0 0 3.149.792q3.127 0 4.184-2.092a10.588 10.588 0 0 0 .692-4.51v-1.421a7.055 7.055 0 0 1-1.789 2.133 7.185 7.185 0 0 1-4.489 1.32 8.496 8.496 0 0 1-6.815-2.996 12.113 12.113 0 0 1-2.55-8.116 13.69 13.69 0 0 1 2.455-8.298 8.107 8.107 0 0 1 6.959-3.363 7.61 7.61 0 0 1 2.901.508zm1.972 15.876q1.396-1.534 1.396-4.886a7.494 7.494 0 0 0-1.326-4.793 4.32 4.32 0 0 0-3.55-1.646 4.183 4.183 0 0 0-4.187 2.864 10.18 10.18 0 0 0-.607 3.758 8.606 8.606 0 0 0 .647 3.434 4.22 4.22 0 0 0 4.208 2.802 4.446 4.446 0 0 0 3.419-1.533zm18.257-15.855v13.346a7.01 7.01 0 0 0 .445 2.844 3.075 3.075 0 0 0 3.093 1.687 4.043 4.043 0 0 0 4.043-2.398 8.722 8.722 0 0 0 .565-3.433v-12.046h5.872v22.142h-5.627v-3.129q-.082.103-.406.61a4.076 4.076 0 0 1-.77.894 8.037 8.037 0 0 1-2.623 1.666 8.944 8.944 0 0 1-2.968.447q-4.901 0-6.604-3.535a13.561 13.561 0 0 1-.952-5.749v-13.346zm28.414 8.674a9.128 9.128 0 0 0 2.313-.508 1.742 1.742 0 0 0 1.248-1.646 1.945 1.945 0 0 0-.958-1.879 6.048 6.048 0 0 0-2.81-.517 3.69 3.69 0 0 0-2.945 1.015 4.19 4.19 0 0 0-.824 2.032h-5.587a8.48 8.48 0 0 1 1.633-4.775q2.306-2.925 7.916-2.925a14.115 14.115 0 0 1 6.489 1.443q2.836 1.443 2.835 5.444v10.157q0 1.056.04 2.56a3.21 3.21 0 0 0 .346 1.544 2.074 2.074 0 0 0 .853.67v.853h-6.297a6.441 6.441 0 0 1-.366-1.26q-.101-.588-.162-1.34a11.946 11.946 0 0 1-2.78 2.215 8.396 8.396 0 0 1-4.25 1.076 7.332 7.332 0 0 1-4.996-1.717 6.103 6.103 0 0 1-1.971-4.865 6.305 6.305 0 0 1 3.171-5.911 14.173 14.173 0 0 1 5.118-1.422zm3.54 2.702a6.387 6.387 0 0 1-1.122.558 9.47 9.47 0 0 1-1.555.397l-1.317.243a8.674 8.674 0 0 0-2.662.793 2.644 2.644 0 0 0-1.367 2.458 2.567 2.567 0 0 0 .835 2.142 3.174 3.174 0 0 0 2.032.66 6.05 6.05 0 0 0 3.496-1.096q1.6-1.097 1.66-4.002zm21.783-11.397a6.953 6.953 0 0 1 3.408 3.21v-3.19h5.648v21.006q0 4.286-1.443 6.46-2.478 3.738-9.507 3.738a12.954 12.954 0 0 1-6.927-1.666 6.144 6.144 0 0 1-2.966-4.978h6.297a2.606 2.606 0 0 0 .793 1.463 4.889 4.889 0 0 0 3.148.792q3.128 0 4.185-2.092a10.588 10.588 0 0 0 .691-4.51v-1.421a7.055 7.055 0 0 1-1.788 2.133 7.185 7.185 0 0 1-4.489 1.32 8.496 8.496 0 0 1-6.815-2.996 12.113 12.113 0 0 1-2.55-8.116 13.69 13.69 0 0 1 2.455-8.298 8.107 8.107 0 0 1 6.959-3.363 7.61 7.61 0 0 1 2.901.508zm1.972 15.876q1.396-1.534 1.395-4.886a7.494 7.494 0 0 0-1.325-4.793 4.32 4.32 0 0 0-3.55-1.646 4.183 4.183 0 0 0-4.187 2.864 10.18 10.18 0 0 0-.608 3.758 8.606 8.606 0 0 0 .648 3.434 4.22 4.22 0 0 0 4.208 2.802 4.446 4.446 0 0 0 3.419-1.533zm26.915-15.407a9.01 9.01 0 0 1 3.827 3.275 10.89 10.89 0 0 1 1.765 4.578 28.414 28.414 0 0 1 .19 4.395h-16.127q.135 3.332 2.316 4.673a5.888 5.888 0 0 0 3.192.832 4.496 4.496 0 0 0 4.406-2.54h5.911a7.236 7.236 0 0 1-2.146 4.003q-2.975 3.23-8.331 3.23a12.067 12.067 0 0 1-7.799-2.724q-3.38-2.725-3.379-8.866 0-5.753 3.05-8.823a10.675 10.675 0 0 1 7.919-3.07 12.61 12.61 0 0 1 5.207 1.037zm-8.66 5.002a6.018 6.018 0 0 0-1.543 3.427h9.974a4.832 4.832 0 0 0-1.542-3.5 5.077 5.077 0 0 0-3.433-1.193 4.59 4.59 0 0 0-3.456 1.266z"/></svg>