<svg xmlns="http://www.w3.org/2000/svg" role="img" viewBox="-30.80 -30.80 1601.60 333.60"><title>OpenFlipper logo</title><defs><style>.cls-1{fill:#c1c1c1}</style></defs><path d="M1134.643 171.107c0-28.732.317-57.469-.187-86.192-.158-8.972 1.782-11.789 11.643-11.976 8.275-.157 19.159-2.47 24.67 5.728.226.337 3.705-1.063 5.584-1.855 45.403-19.152 87.532 6.678 90.413 55.805.874 14.894 1.28 29.893-4.403 44.311-14.485 36.741-49.17 46.562-83.164 38.581-10.064-2.362-10.225.535-10.042 8.106.292 12.069-.306 24.166.204 36.22.373 8.802-2.11 12.915-11.83 12.732-26.731-.502-22.711 1.319-22.853-22.76-.154-26.232-.035-52.466-.035-78.7zm34.597-26.046c0 9.97.178 19.944-.07 29.908-.138 5.618 1.65 9.928 6.942 11.98 20.718 8.03 50.99.875 54.71-25.896a141.505 141.505 0 0 0 1.107-24.768c-1.018-27.995-24.298-44.005-51.17-35.29-7.195 2.333-12.134 6.586-11.642 15.41.531 9.525.12 19.102.123 28.656zm-924.936 68.622c0 15.332-.536 29.853.18 44.312.52 10.497-2.288 15.11-13.805 14.623-24.796-1.052-20.805 2.747-20.896-21.537-.205-54.967.164-109.938-.273-164.903-.079-9.96 1.908-12.896 12.891-13.229 8.603-.26 17.51-2.43 23.45 5.737.18.247 3.699-1.106 5.585-1.898 45.316-19.03 87.49 6.878 90.41 55.893.888 14.903 1.175 29.87-4.435 44.314-14.103 36.309-48.883 44.985-82.253 39.408-3.22-.537-6.355-1.577-10.854-2.72zm62.881-68.678c.066-35.218-14.41-48.741-48.004-44.79-9.61 1.13-15.02 5.98-14.926 16.293.18 19.569.307 39.146-.083 58.709-.141 7.076 2.754 10.416 9.128 12.706 30.363 10.908 53.819-7.658 53.885-42.918zm672.4 25.758c0-29.11.242-58.224-.156-87.33-.11-8.073 2.2-10.26 10.537-10.444 7.914-.175 20.734-2.52 23.446 5.467 1.564 2.828 4.43-.046 6.539-.945 45.208-19.28 86.133 3.674 91.507 52.467 2.826 25.662.75 51.262-20.041 70.335-19.708 18.078-43.486 21.613-68.588 14.618-8.979-2.502-10.953-.507-10.639 8.039.459 12.459-.512 24.988.295 37.411.789 12.141-6.37 12.648-14.997 12-8.108-.608-18.3 2.888-18.054-11.794.502-29.934.15-59.882.15-89.824zm32.725-26.757c0 9.976.385 19.972-.132 29.92-.363 6.994 2.817 10.534 8.706 13.33 24.963 11.855 54.106-4.675 55.993-32.072.4-5.793.193-11.635.105-17.453-.378-25.214-14.62-39.344-39.754-39.518-16.186-.112-24.912 8.499-24.92 24.595q-.006 10.6.002 21.198zm-332.514-25.72c.001-29.145.257-58.294-.16-87.433-.12-8.283 2.677-10.68 10.769-10.6 35.803.359 71.617.48 107.416-.062 9.602-.146 12.996 3.046 11.612 12.152a16.503 16.503 0 0 0-.016 2.496c.044 17.631.044 17.634-17.154 17.637-22.483.003-44.97.223-67.448-.122-7.405-.114-10.04 2.13-10.282 9.883-1.102 35.382-1.339 35.375 33.976 35.375 7.494 0 15.122.895 22.454-.195 13.376-1.989 13.305 5.628 13.661 15.397.396 10.85-1.91 15.905-14.206 14.924-14.48-1.156-29.146.22-43.687-.45-9.123-.42-12.53 2.153-12.224 11.791.673 21.213-.225 42.475.403 63.69.284 9.586-2.188 13.199-12.428 12.792-26.855-1.068-22.36 3.211-22.63-22.33-.263-24.98-.057-49.963-.056-74.945z" class="cls-1"/><path fill="#f5a905" d="M129.004 49.2c-2.908-.204-5.816-.425-8.726-.61-17.358-1.104-20.222 1.067-23.692 17.847-.42 2.036-1.073 4.026-1.492 6.063-.905 4.41-.74 10.853-6.014 11.035-5 .173-3.54-6.204-4.595-9.895-3.196-11.176-9.027-5.891-13.416-1.476-16.182 16.278-26.336 36.271-33.323 57.833a115.214 115.214 0 0 0-5.704 38.1c.12 5.753 1.262 9.14 7.717 10.395a28.462 28.462 0 0 1 19.016 13.185c5.121 8.224 1.805 16.32-7.656 15.65-18.025-1.278-27.78 5.016-29.02 23.604-.407 6.113-4.574 4.81-7.988 2.207a18.132 18.132 0 0 1-7.044-12.74c-.861-7.166-1.1-14.917 2.928-20.653 9.903-14.098 7.63-28.663 4.702-43.964a152.65 152.65 0 0 1 2.887-69.276c2.554-9.417.905-13.525-9.748-11.792-8.405 1.368-9.465-2.89-5.933-9.532C5.8 57.853 11.819 52.455 19.459 50.05c12.493-3.933 21.297-11.762 29.549-21.635C64.078 10.385 83.368-.062 107.63 0c17.134.044 30.462 6.826 40.411 20.7 3.091 4.309 5.647 9.128 11.636 10.684 3.761.978 6.602 3.777 5.71 8.38-.825 4.266-4.218 6.185-7.884 7.183-9.328 2.538-18.889 2.891-28.5 2.254z"/><path d="M444.908 155.101c-13.313.004-26.647.455-39.935-.137-10.924-.487-11.82 4-8.46 12.781 6.19 16.186 25.295 25.538 46.871 22.18 4.48-.698 8.773-2.558 13.248-3.322 4.706-.803 8.3-8.748 12.824-4.363 4.533 4.394 6.927 11.222 9.545 17.292 2.17 5.032-2.06 7.531-5.554 9.783-40.44 26.066-102.003 4.14-111.963-41.847-7.67-35.413-1.386-63.619 28.095-84.31 26.768-18.786 59.992-16.965 85.96 2.702 17.051 12.913 26.951 42.976 21.185 63.18-1.717 6.02-5.921 6.068-10.626 6.063q-20.595-.023-41.19-.002zm-15.41-25.026c9.156 0 18.316-.14 27.469.049 6.326.131 7.731-1.952 6.01-8.292-4.092-15.085-15.516-23.898-32.391-23.805-16.35.09-31.023 11.644-34.218 25.859-1.376 6.124 1.472 6.208 5.66 6.197 9.156-.024 18.313-.008 27.47-.008zm940.462 25.027c-13.747.005-27.504.306-41.24-.1-9.446-.278-10.568 3.639-7.64 11.481 5.426 14.533 16.564 21.67 31.058 23.481 12.085 1.51 24.427.5 34.856-6.534 6.476-4.368 8.342-1.275 11.121 3.757 9.371 16.968 8.3 21.253-10.268 26.202-28.128 7.499-55.858 8.78-80.74-10.523a53.091 53.091 0 0 1-18.11-26.233c-18.56-57.45 15.484-108.912 72.315-106.127a64.715 64.715 0 0 1 60.58 77.106c-1.28 6.705-5.215 7.557-10.687 7.517-13.747-.099-27.496-.033-41.244-.027zm-15.583-25.022c9.15 0 18.303-.137 27.45.048 6.209.126 7.848-1.787 6.114-8.225-4.063-15.089-15.35-23.853-32.31-23.877-16.047-.022-30.946 11.63-34.297 25.82-1.425 6.035 1.336 6.26 5.593 6.243 9.15-.036 18.3-.011 27.45-.009zm-799.811 33.652c-.002 13.747-.26 27.501.105 41.239.187 7.03-1.267 10.702-9.498 10.512-28.816-.666-22.99 2.769-23.253-22.87-.367-35.824-.189-71.654.036-107.479.027-4.348-2.849-11.558 4.937-11.834 6.843-.241 15.222-4.147 20.3 4.678 2.058 3.575 2.359 8.812 9.501 4.046 41.83-27.912 86.996-5.662 89.818 44.676 1.49 26.579.167 53.31.416 79.968.06 6.473-2.333 8.474-8.734 8.815-25.955 1.382-25.924 1.596-25.95-24.017q-.033-31.868-.17-63.736c-.072-12.098-3.7-22.327-16.185-26.817-13.708-4.93-28.812-.982-37.684 8.868-3.13 3.474-3.683 7.197-3.662 11.459.068 14.163.025 28.328.023 42.492zM50.918 118.084c5.252 6.536 3.212 12.619 3.566 18.191 1.758 27.732 17.785 49.35 38.467 51.4 27.275 2.702 46.58-10.803 54.434-40.031 6.707-24.958 5.683-49.886-4.356-74.232-2.25-5.455-6.354-9.408-10.328-14.903 12.273-1.804 23.65-1.056 33.44-7.287 2.527-1.608 4.615-.112 6.158 2.299 23.932 37.397 24.916 132.52-35.036 157.786-21.06 8.875-42.825 8.783-64.68 3.57-2.86-.683-7.663-.58-6.716-6.732 3.051-19.84-.03-26.17-17.955-34.907-6.193-3.018-8.887-6.421-8.207-13.255 1.403-14.087 4.403-27.661 11.213-41.899zm781.403-6.527c0-30.432.413-54.553-.203-78.647-.246-9.669 2.673-13.76 12.512-15.814 22.411-4.677 22.28-5.306 22.28 17.454q.002 67.343.016 134.685c.007 12.144.043 24.15 11.694 32.317 4.73 3.316.836 6.987-1.724 9.165-8.536 7.258-18.685 9.256-29.19 5.783-9.393-3.105-12.16-10.988-13.483-20.431-4.24-30.246-.237-60.587-1.902-84.512zM1478.41 86.16c18.406-14.889 35.046-18.36 53.738-13.672 7.597 1.905 11.47 4.316 6.295 12.369a105.386 105.386 0 0 0-6.224 12.224c-2.029 4.306-4.475 5.82-9.798 4.696-26.791-5.653-42.272 6.956-42.856 35.005-.459 22.048-.577 44.128.118 66.163.312 9.857-2.612 12.996-12.559 12.602-23.9-.948-20.171 2.492-20.315-20.853q-.312-50.562-.002-101.128c.14-23.5-3.513-20.37 20.278-20.71 7.278-.104 15.677-1.729 11.325 13.303zm-531.378 58.35c0 19.57-.392 39.15.176 58.704.258 8.84-1.622 12.706-11.546 12.34-25.482-.941-21.178 2.452-21.392-21.077q-.374-41.218.072-82.44c.098-7.932-1.055-12.752-10.682-11.854-13.502 1.258-8.011-9.396-8.88-15.648-.926-6.67-.447-12.533 9.23-11.778 13.627 1.064 30.833-5.35 40.017 2.34 9.019 7.553 2.188 25.074 2.893 38.192.557 10.379.112 20.812.112 31.221zM911.925 37.6a19.114 19.114 0 0 1 18.066-19.643c10.535-.45 19.543 8.663 19.51 19.74-.03 10.593-8.047 18.698-18.912 19.122-9.756.38-18.427-8.549-18.664-19.218z" class="cls-1"/></svg>