<svg xmlns="http://www.w3.org/2000/svg" role="img" viewBox="47.52 159.02 427.96 205.21"><title>Open Shading Language (OSL) logo</title><path fill="#C3C3C3" stroke="#C3C3C3" d="M148.5 168l12.5.5-12.5.5v-1zm144 0l3.5.5-3.5.5v-1zm10 0l3.5.5-3.5.5v-1zm61 3l26.5.5-26.5.5v-1zm-36 5l1 2-1-2zm4 3l7 8-7-8zm-68 1l-6 7 6-7zm-158 2l-1 2 1-2zm-3 2l-1 2 1-2zm103 0l1 2-1-2zm4 3l2 3-2-3zm-112 1l-2 3 2-3zm243 1l1 2-1-2zm-193 4l3.5.5-3.5.5v-1zm10 0l3.5.5-3.5.5v-1zm136 0l2.5.5-2.5.5v-1zm21 4l1 2-1-2zm-32 1l-1 2 1-2zm-197 2l-2 3 2-3zm137 0l2 3-2-3zm95 0l2 3-2-3zm-127 4l1 2-1-2zm-109 1l-1 2 1-2zm35 0l-1 2 1-2zm110 0l1 2-1-2zm-31 3l6 7-6-7zm-85 2l-2 3 2-3zm-6 7l-1 2 1-2zm334 15l1 2-1-2zm4 3l1 2-1-2zm4 3l1 2-1-2zm4 3l1 2-1-2zm4 3l1 2-1-2zm-134 1l.5 2-5-.5 4.5-1.5zm50 0l12.5.5-12.5.5v-1zm-106 1l1 1 10.5.5-10.5.5-1-2zm-100 1l.5 2.5h-1l.5-2.5zm279 0l.5 2-7-.5 6.5-1.5zm15 0l1 2-1-2zm-242 1l6.5.5-6.5.5v-1zm167 1l13.5.5-13.5.5v-1zm-292 1l.5 4.5h-1l.5-4.5zm46 0l2.5.5-2.5.5v-1zm193 0l13.5.5-13.5.5v-1zm-200 1l2.5.5-2.5.5v-1zm146 0l13.5.5-13.5.5v-1zm-53 1l13.5.5-13.5.5v-1zm-54 1l13.5.5q-4.8 3.1-14.5 1.5l1-2zm45 2l11.5.5-11.5.5v-1zm46 1l11.5.5-11.5.5v-1zm47 1l11.5.5-11.5.5v-1zm46 1l11.5.5-11.5.5v-1zm108 0l-1 2 1-2zm-370 1l.5 4.5h-1l.5-4.5zm308 0l11.5.5-11.5.5v-1zm-183 2l.5 3.5h-1l.5-3.5zm78 0l12.5.5-10.5.5-1 1-1-2zm163 0l-1 2 1-2zm-70 2l2.5.5-2.5.5v-1zm66 1l-1 2 1-2zm-315 1l-5 6 5-6zm311 2l-1 2 1-2zm-384 1l.5 2.5h-1l.5-2.5zm86 0l1.5.5-2.5 1.5 1-2zm91 1l.5 2.5h-1l.5-2.5zm69 1l1 2-1-2zm134 0l-1 2 1-2zm-4 3l-1 2 1-2zm-298 2l-5 6 5-6zm293 0l1 2-1-2zm-309 2l-5 6 5-6zm222 4l.5 2.5h-1l.5-2.5zm-218 5l-5 6 5-6zm-16 4l-4 5 4-5zm208 0l.5 5.5h-1l.5-5.5zm-119 5l-1 2 1-2zm-85 2l-5 6 5-6zm80 4l-3 4 3-4zm-95 1l-5 6 5-6zm-7 1l-5 6 5-6zm18 4l-2 3 2-3zm77 0l-1 2 1-2zm-112 1l1 2-1-2zm27 0l-5 6 5-6zm11 1l1 2-1-2zm200 0l-1 2 1-2zm-93 1l-1 2 1-2zm48 0l1 2-1-2zm-190 2l2 3-2-3zm10 2l-5 6 5-6zm184 0l1 2-1-2zm-171 1l-5 6 5-6zm114 1l-6 7 6-7zm-125 3l-5 6 5-6zm51 1l2.5.5-2.5.5v-1zm12 0l3.5.5-3.5.5v-1zm132 0l2.5.5-2.5.5v-1zm49 4l-1 2 1-2zm-129 1l-2 3 2-3zm-128 1l-5 6 5-6zm16 0l1 2-1-2zm154 0l2 3-2-3zm-150 3l1 2-1-2zm-19 1l-5 6 5-6zm22 1l1 2-1-2zm154 2l1 2-1-2zm71 0l-1 2 1-2zm-259 5l-5 6 5-6zm0 3l-5 6 5-6zm292 1l76.5.5-76.5.5v-1zm-218 3l4.5.5-4.5.5v-1zm12 0l4.5.5-4.5.5v-1zm131 0l3.5.5-3.5.5v-1zm10 0l3.5.5-3.5.5v-1zm-239 6l-.5 1.5-3.5 4.5-.5-1.5 4.5-4.5z"/><path fill="#FFF" stroke="#FFF" d="M0 0h512v512H0V0zm149 168l-25 5q-15 6-26 15-26 19-33 56v27l3 14q5 16 15 28l4 2 17-18-8-14-3-9-1-14-1-1 3-22q4-12 11-20l17-15 13-6 17-3 19 2q13 3 22 11 19 14 23 43h7l1-1h19q-3-29-18-45-15-19-37-29l-18-5-21-1zm144 0l-16 4-13 8q-12 9-16 26-2 14 2 23 5 12 16 19h10l1-1h44v-2l-27-11-11-6q-6-4-8-10-1-12 4-16l10-7 8-2 11 1 9 5 8 11 21-12-7-11q-7-10-18-15l-15-4h-13zm70 3v75h20l1-1h6v-74h-27zm73 59l-1 2 8 16-6 1-160 2-1 1h-52l-1 1h-53l-2 2 276 6-8 16 5-2 26-20-31-25zm-276 17l-1 1-21 2-13 3 19 7-89 96 1 1 94-87 3-1 6 16 1-2 3-26 2-7v-3h-5zm58 13l-2 2v7l-4 14-9 15-16 14-16 7-12 1-1 1q-29 0-42-14l-9 8-10 11q10 9 24 14l17 5q6-2 8 1l24-1 18-5q15-7 27-17 11-11 19-24l6-14 3-13v-12h-25zm77 1l1 2 18 9q7 5 9 15v13l-6 12-6 5-12 4-11-1-11-6-7-9-3-16-25 5-2 2q2 19 12 31l13 11 13 6 11 2q27 1 41-11 16-11 20-34v-19q-3-12-8-20l-47-1zm68 2v80h77v-25h-50v-55h-27z"/><path fill="#525252" stroke="#525252" d="M296.5 168l5.5.5-5.5.5v-1zm-155 1l3.5.5-3.5.5v-1zm23 0l3.5.5-3.5.5v-1zm199 3l.5 73 6 .5-5.5.5-1.5-1.5.5-72.5zm26 0l.5 72.5h-1l.5-72.5zm-120 4l-1 2 1-2zm-3 2l-1 2 1-2zm63 0l1 2-1-2zm-229 8l-1 2 1-2zm107 0l1 2-1-2zm131 1l1 2-1-2zm-82 1l-1 2 1-2zm-44 2l9 10-9-10zm-118 1l-8 9 8-9zm50 2l2.5.5-2.5.5v-1zm17 0l3.5.5-3.5.5v-1zm123 3l-1 2 1-2zm-4 3l-1 2 1-2zm-197 4l-1 2 1-2zm35 0l-1 2 1-2zm106 0l1 2-1-2zm-32 2l2 3-2-3zm-78 1l-3 4 3-4zm113 1l1 2-1-2zm21 0l.5 3.5h-1l.5-3.5zm-19 3l1 2-1-2zm45 0l.5 6.5h-1l.5-6.5zm-167 3l-3 4 3-4zm95 2l1 2-1-2zm46 1l.5 3.5h-1l.5-3.5zm-43 3l1 2-1-2zm72 4l5 6-5-6zm158 8l2.5 1.5-1.5-.5-1-1zm5 3l1 2-1-2zm4 3l1 2-1-2zm-188 1l7 8-7-8zm-15 1l.5 2.5h-1l.5-2.5zm207 1l1 2-1-2zm4 3l1 2-1-2zm-387 2l.5 4.5h-1l.5-4.5zm177 0l.5 3-7-.5 6-.5.5-2zm-151 1l.5 3.5h-1l.5-3.5zm199 0l25.5.5-25.5.5v-1zm166 0l1 2-1-2zm-295 1l2.5.5-2.5.5v-1zm-7 1l2.5.5-2.5.5v-1zm-7 1l2.5.5-2.5.5v-1zm250 0l26.5.5-26.5.5v-1zm63 0l1 2-1-2zm-320 1l2.5.5-2.5.5v-1zm204 0l25.5.5-25.5.5v-1zm-211 1l2.5.5-2.5.5v-1zm30 0l.5 2.5h-1l.5-2.5zm127 0l26.5.5-26.5.5v-1zm-165 1q3.3-1.1 2.5 1.5l-1.5-.5-1-1zm112 0l25.5.5-25.5.5v-1zm227 0q4.5 2 1 4l-1-4zm-281 1l26.5.5-7.5 1.5h-22v-1l3-1zm43 2l22.5.5-22.5.5v-1zm46 1l22.5.5-22.5.5v-1zm47 1l21.5.5-21.5.5v-1zm-157 1l.5 2.5h-1l.5-2.5zm203 0l22.5.5-22.5.5v-1zm46 1l22.5.5-22.5.5v-1zm-268 1l-4 5 4-5zm83 0l16.5.5-16.5.5v-1zm92 2l22.5.5-22.5.5v-1zm-253 1l.5 4.5h-1l.5-4.5zm297.5 0l24 .5-23 .5-.5 78-.5-79zm-271.5 1l.5 2.5h-1l.5-2.5zm298 0l.5 53.5h-1l.5-53.5zm-228 1l.5 2.5h-1l.5-2.5zm55 0l.5 2.5h-1l.5-2.5zm26 0l.5 3.5h-1l.5-3.5zm209 0l-1 2 1-2zm-4 3l-1 2 1-2zm-298 1l-5 6 5-6zm11 2l.5 2.5h-1l.5-2.5zm153 0l5 6-5-6zm130 0l-1 2 1-2zm-311 1l-4 5 4-5zm305 2l2.5.5q-2.1 3.3-2.5-.5zm-278 4l.5 2.5h-1l.5-2.5zm-22 2l-5 6 5-6zm-16 4l-5 6 5-6zm228 0l.5 14.5h-1l.5-14.5zm-26 3l.5 2.5h-1l.5-2.5zm-198 4l-5 6 5-6zm142 3l.5 2.5h-1l.5-2.5zm-157 2l-5 6 5-6zm213 0l.5 2.5h-1l.5-2.5zm-221 1l-4 5 4-5zm100 1l-2 3 2-3zm-89 4l-5 6 5-6zm82 3l-2 3 2-3zm32 2l-1 2 1-2zm-128 1l-5 6 5-6zm17 0l1 2-1-2zm-25 1l-5 6 5-6zm99 0l-1 2 1-2zm-108 1l1 2-1-2zm30 0l-5 6 5-6zm205 1l-3 4 3-4zm-94 1l-2 3 2-3zm51 0l2 3-2-3zm-174 2l-4 5 4-5zm211 2l-1 2 1-2zm128 2l.5 23.5h-1l.5-23.5zm-351 2l-5 6 5-6zm55 0l2.5.5-2.5.5v-1zm19 0l2.5.5-2.5.5v-1zm-62 1l-2.5 3.5-.5 1.5-.5-1.5 3.5-3.5zm113 1l-2 3 2-3zm127 0l-1 2 1-2zm-89 2l1 2-1-2zm-163 1l-4 5 4-5zm249 1l-6 7 6-7zm-130 1l-1 2 1-2zm48 2l3 4-3-4zm-179 4l-4 5 4-5zm252 1l-1 2 1-2zm-66 1l1 2-1-2zm-186 1l-4 5 4-5zm63 8l3.5.5-3.5.5v-1zm25 0l3.5.5-3.5.5v-1zm119 0l2.5.5-2.5.5v-1zm-218 1l-.5 1.5-5.5 6.5.5-1.5 5.5-6.5zm85 0l6.5.5-6.5.5v-1zm142 0l5.5.5-5.5.5v-1z"/><path stroke="#000" d="M145.5 169l25 1 20 6q20.4 9.6 33.5 26.5 8.8 10.2 14 24l4 20.5-6.5 1H217q-4.5-28.7-24.5-43-9.6-7.4-23-11l-5-1h-20q-26.9 5.1-40.5 23.5-7.2 8.8-11 21l-2 9v20l3 13 9 17L86.5 314l-2.5-1.5q-11-12.5-16-31l-2-9v-9l-1-1v-12l1-1v-8l2-9 7-17q9.4-16.1 23.5-27.5l22-13 12-4 12-1 1-1zm145 0h17l11 3q11.8 5.2 19.5 14.5l7 11.5-20.5 11-11-13q-6.9-5.1-21-3-8.6 1.9-13.5 7.5l-5 10v6q2.1 8.4 8.5 12.5l9 5 28.5 11.5-54.5 1.5q-9.4-6.6-14.5-17.5l-2-7-1-11 2-11 3-7 11.5-13.5 14-8 12-3zm73.5 3h25v73h-25v-73z"/><path stroke="#000" d="M436.5 232l29.5 22.5-28.5 21.5.5-1.5 6-14.5h-9.5l-1-1h-45l-1-1h-46l-1-1h-45l-1-1h-45l-1-1-45.5-.5 7.5-1.5h52l1-1h53l1-1h52l1-1h53l1-1H444v-2.5l-7.5-14.5zm-279 16h6.5v2.5l-1 1v6l-1 1v6l-3.5 19.5-6-17-87 80 .5-1.5 78-85V258l-16-4 .5-2h7l22-4z"/><path stroke="#000" d="M217 260l26 1-2 16.5-4 13q-8 19-22.5 31.5-14 13.5-35 20l-16 3h-20l-24-6q-12.4-5.1-21.5-13.5l8.5-9.5 9-8q9.2 8.3 23 12l5 1h21q25.2-5.3 38.5-22.5l11-19 3-12V260zm80.5 2l44.5 1q4.8 6.9 7 17.5v22q-4.6 20.9-19.5 31.5-14.1 12.9-43 11l-19-6-14.5-12.5q-10-12.2-12-31.5l26-5q0 16.7 9.5 25l12 6h14q10.1-2.4 15.5-9.5 7.4-7.6 6-24-2.6-10.9-10.5-16.5l-16-8v-1zm66.5 2h25v54h50v24h-75v-78z"/></svg>