<svg xmlns="http://www.w3.org/2000/svg" role="img" viewBox="-8.34 -8.34 433.68 309.93"><title>OpenImageIO logo</title><g fill="#0583d6" fill-rule="evenodd" stroke="none" transform="translate(109.73) scale(2.81035)"><path d="M0 0h7.81146v7.81145h3.90574V0H70.303v70.303H0V11.7172h7.8113V7.81145H0zm62.4916 7.8125H7.81152v54.6801H62.4916z"/><path d="M11.7173 37.7557h9.1133v9.1133h-9.1133z"/><path d="M24.7363 24.7372h9.1134v9.1134h-9.1134z"/><path d="M11.7173 24.7372h9.1133v9.1134h-9.1133z"/><path d="M37.7554 11.7164h9.1133v9.1133h-9.1133z"/><path d="M24.7363 11.7164h9.1134v9.1133h-9.1134z"/><path d="M11.7173 11.7164h9.1133v9.1133h-9.1133z"/></g><g fill="#333b42" fill-rule="evenodd" stroke="none" transform="translate(0 231.062)"><path d="M38.2301 41.3213c3.7851-4.1006 5.6777-9.9676 5.6777-17.601 0-7.6544-1.8768-13.5214-5.6304-17.60096C34.5238 2.03978 29.1036 0 22.017 0 14.9303 0 9.48918 2.02401 5.69351 6.07202 1.89784 10.12 0 15.9818 0 23.6572c0 7.6755 1.89258 13.5635 5.67773 17.6641 3.78516 4.1006 9.21057 6.1509 16.27617 6.1509s12.491-2.0503 16.2762-6.1509zM13.185 35.3597c-1.9557-2.6075-2.9335-6.4873-2.9335-11.6394 0-5.152.9883-9.037 2.965-11.6551 1.9767-2.61805 4.9102-3.92708 8.8005-3.92708 7.7596 0 11.6393 5.19408 11.6393 15.58218 0 10.3672-3.9008 15.5507-11.7024 15.5507-3.8903 0-6.8133-1.3037-8.7689-3.9113zm47.1439 7.6018c2.3552 3.0071 5.6041 4.5107 9.7467 4.5107 2.7548 0 5.1521-.7255 7.1918-2.1765 2.0398-1.451 3.6117-3.5643 4.7157-6.3401s1.656-6.0458 1.656-9.8099c0-5.7198-1.1776-10.1884-3.5328-13.4057-2.3552-3.2174-5.6146-4.8261-9.7783-4.8261-4.416 0-7.7491 1.7454-9.9991 5.2361h-.4416l-1.3564-4.5737h-7.8226v50.7842h9.6206v-14.289c0-.4626-.1683-2.166-.5047-5.11zm31.9086-.1892c3.1964 3.1332 7.6334 4.6999 13.3115 4.6999 2.754 0 5.089-.2051 7.002-.6151 1.914-.4101 3.712-1.0357 5.394-1.8768v-7.4442c-2.061.9674-4.037 1.6718-5.93 2.1134-1.893.4416-3.901.6624-6.025.6624-2.733 0-4.857-.7675-6.3714-2.3026-1.5141-1.5351-2.3237-3.6695-2.4288-6.4032h22.7422v-4.6684c0-5.0048-1.388-8.9267-4.163-11.7655-2.776-2.8389-6.656-4.2583-11.64-4.2583-5.2149 0-9.2997 1.6139-12.2542 4.8418-2.9545 3.2279-4.4318 7.7964-4.4318 13.7054 0 5.7409 1.5982 10.1779 4.7945 13.3112zm56.4495 4.069h9.62V23.8465c0-4.1847-1.062-7.3863-3.186-9.6048-2.124-2.2186-5.236-3.3278-9.336-3.3278-2.398 0-4.537.4363-6.419 1.309-1.882.8727-3.36 2.1607-4.432 3.864h-.536l-1.294-4.5106h-7.349v35.265h9.62V30.2497c0-4.1637.6-7.1445 1.798-8.9424 1.199-1.798 3.144-2.6969 5.836-2.6969 1.977 0 3.417.6361 4.321 1.9083.904 1.2722 1.357 3.1806 1.357 5.7251zM99.3979 19.6986c1.1561-1.2932 2.7551-1.9399 4.7941-1.9399 2.04 0 3.659.6467 4.858 1.9399 1.199 1.2933 1.819 3.128 1.861 5.5043H97.4106c.1683-2.3763.8307-4.211 1.9873-5.5043zm-37.3657 1.1041c1.0935-1.4615 2.8283-2.1923 5.2046-2.1923 2.2711 0 3.9376.8674 4.9995 2.6023 1.062 1.7349 1.5929 4.3372 1.5929 7.8069 0 7.1077-2.1554 10.6615-6.4663 10.6615-2.4393 0-4.2215-.8201-5.3465-2.4603-1.125-1.6403-1.6875-4.353-1.6875-8.1381v-1.0409c.042-3.3646.6098-5.7777 1.7033-7.2391z"/><path d="M167.05.72552V46.8413h9.779V.72553zM267.647 42.0468l1.861 4.7946h6.718V23.3418c0-4.2057-1.261-7.339-3.785-9.3998-2.523-2.0608-6.151-3.0912-10.882-3.0912-4.942 0-9.442 1.062-13.5 3.1859l3.185 6.4978c3.807-1.7033 7.119-2.555 9.936-2.555 3.659 0 5.489 1.7875 5.489 5.3623v1.5457l-6.119.1892c-5.279.1893-9.227 1.1724-11.845 2.9493-2.618 1.7769-3.927 4.5369-3.927 8.28 0 3.5749.973 6.3296 2.918 8.2643 1.945 1.9346 4.61 2.9019 7.996 2.9019 2.755 0 4.989-.3943 6.703-1.1828 1.714-.7886 3.38-2.2028 4.999-4.2426zm-60.014 4.7946h9.621V29.1458c0-3.659.583-6.3296 1.75-8.0119 1.168-1.6823 2.929-2.5235 5.284-2.5235 1.829 0 3.17.6361 4.022 1.9084.851 1.2722 1.277 3.1806 1.277 5.725v20.5976h9.652V23.8466c0-4.5212-1.025-7.8069-3.075-9.8572-2.05-2.0503-5.073-3.0755-9.069-3.0755-2.313 0-4.389.4522-6.23 1.3564-1.84.9042-3.233 2.1765-4.179 3.8167h-.852c-1.871-3.4487-5.446-5.1731-10.724-5.1731-2.313 0-4.364.4574-6.151 1.3722-1.788.9147-3.154 2.1817-4.101 3.8009h-.536l-1.293-4.5107h-7.35v35.2651h9.621V30.2498c0-4.1427.557-7.1182 1.672-8.9267 1.114-1.8084 2.902-2.7127 5.362-2.7127 1.829 0 3.17.6361 4.022 1.9084.851 1.2722 1.277 3.1806 1.277 5.725zm107.189-30.3759v-4.8892H302.52c-.378-.0841-1.245-.2155-2.602-.3942-1.356-.1788-2.529-.2682-3.517-.2682-4.647 0-8.222 1.0515-10.724 3.1543-2.503 2.1029-3.754 5.0785-3.754 8.9267 0 2.3973.541 4.4791 1.624 6.2455 1.083 1.7664 2.55 3.0492 4.401 3.8482-1.472.8622-2.597 1.7402-3.375 2.6339-.779.8937-1.168 2.0135-1.168 3.3593 0 1.0725.368 2.0871 1.104 3.0439.736.9568 1.599 1.6455 2.587 2.0661-2.566.6098-4.511 1.6297-5.835 3.0596-1.325 1.43-1.988 3.2069-1.988 5.3308 0 3.0912 1.299 5.4937 3.896 7.2076 2.597 1.7138 6.356 2.5707 11.276 2.5707 6.435 0 11.372-1.1355 14.81-3.4066 3.438-2.2711 5.157-5.4675 5.157-9.5891 0-3.2174-1.014-5.6567-3.044-7.318-2.029-1.6612-4.978-2.4918-8.848-2.4918h-5.993c-3.06 0-4.795-.5208-5.204-1.5624-.063-.1608-.095-.3339-.095-.5195 0-.9252.494-1.7664 1.483-2.5234l1.419.1577 1.735.0946c4.689 0 8.354-1.0567 10.993-3.17 2.639-2.1134 3.958-5.0627 3.958-8.8478 0-1.9557-.504-3.7221-1.514-5.2993zm6.454 26.3068c3.196 3.1333 7.633 4.6999 13.311 4.6999 2.755 0 5.089-.205 7.002-.615 1.914-.4101 3.712-1.0357 5.394-1.8769v-7.4441c-2.061.9673-4.037 1.6718-5.93 2.1134-1.892.4416-3.901.6624-6.025.6624-2.733 0-4.857-.7676-6.371-2.3027-1.514-1.535-2.324-3.6694-2.429-6.4032h22.742v-4.6683c0-5.0048-1.387-8.9267-4.163-11.7656-2.776-2.8388-6.656-4.2583-11.64-4.2583-5.215 0-9.299 1.614-12.254 4.8419s-4.432 7.7964-4.432 13.7054c0 5.7408 1.598 10.1779 4.795 13.3111zm-28.865-15.1091c-.873-1.1145-1.309-2.6286-1.309-4.5422 0-4.2478 1.766-6.3717 5.299-6.3717 3.491 0 5.236 2.1239 5.236 6.3717 0 1.9136-.42 3.4277-1.261 4.5422-.842 1.1145-2.166 1.6718-3.975 1.6718-1.787 0-3.117-.5573-3.99-1.6718zm36.025-7.9646c1.156-1.2932 2.755-1.9399 4.794-1.9399 2.04 0 3.659.6467 4.858 1.9399 1.199 1.2933 1.819 3.128 1.861 5.5043h-13.5c.168-2.3763.83-4.211 1.987-5.5043zm-65.489 10.9297l3.722-.1262v2.902c0 2.1239-.668 3.8272-2.003 5.1099-1.335 1.2828-3.118 1.9242-5.347 1.9242-3.112 0-4.668-1.3564-4.668-4.0691 0-1.8926.683-3.3015 2.05-4.2267 1.367-.9253 3.449-1.43 6.246-1.5141zm26.562 24.3195c-1.272-.757-1.908-1.7979-1.908-3.1227 0-1.3669.594-2.4656 1.782-3.2963 1.188-.8306 2.665-1.2459 4.432-1.2459h4.983c2.419 0 4.206.2523 5.363.757 1.156.5047 1.735 1.4195 1.735 2.7443 0 1.6402-.978 2.9335-2.934 3.8797-1.956.9463-4.658 1.4195-8.107 1.4195-2.292 0-4.074-.3785-5.346-1.1356z"/><path d="M411.359 41.3213c3.785-4.1006 5.677-9.9676 5.677-17.601 0-7.6544-1.876-13.5214-5.63-17.60096C407.652 2.03978 402.232 0 395.146 0c-7.087 0-12.528 2.02401-16.324 6.07202-3.796 4.04798-5.693 9.90978-5.693 17.58518 0 7.6755 1.892 13.5635 5.677 17.6641 3.786 4.1006 9.211 6.1509 16.277 6.1509 7.065 0 12.491-2.0503 16.276-6.1509zM355.793.72552V46.8413h9.778V.72553zm30.521 34.63418c-1.956-2.6075-2.934-6.4873-2.934-11.6394 0-5.152.988-9.037 2.965-11.6551 1.977-2.61805 4.91-3.92708 8.801-3.92708 7.759 0 11.639 5.19408 11.639 15.58218 0 10.3672-3.901 15.5507-11.702 15.5507-3.891 0-6.814-1.3037-8.769-3.9113z"/></g></svg>