<svg xmlns="http://www.w3.org/2000/svg" role="img" viewBox="-4.28 -8.28 846.56 300.06"><title>OpenVPCal logo</title><path fill="#deb834" d="M270 275.30602c-3.87876-1.38623-3.99958-2.59769-4.01407-40.24715L265.97187 198.5l-4.07203 7.5c-12.61312 23.23127-36.4265 45.60887-59.92967 56.31634-43.53856 19.8351-92.17899 16.01473-131.56329-10.33337-10.0011-6.69074-28.56266-25.18373-35.12065-34.99091C25.48031 202.32773 18.10298 185.04508 14.37332 168c-1.44753-6.6154-1.85406-12.60177-1.83358-27 .02366-16.63586.29314-19.56247 2.67437-29.04408 5.05672-20.1349 11.8103-34.55245 23.41039-49.97655C82.28096 3.93142 163.39826-8.94867 222 32.86236c28.07601 20.0316 46.77146 48.83585 54.16289 83.44923 2.7109 12.69489 2.99583 35.99943.58305 47.68841-.85146 4.125-1.43672 7.61841-1.30057 7.76313.13615.14472 1.85087-.40679 3.81048-1.22557 16.32884-6.82262 38.77042-2.18854 47.88776 9.88861 2.04538 2.70939 4.70747 8.00068 5.91574 11.75841 1.88707 5.8688 2.12516 8.34696 1.68837 17.57383-.83335 17.60425-5.95865 27.00522-18.09924 33.19817-5.98191 3.05138-7.87466 3.50461-16.14662 3.8664-6.89375.30151-10.62419-.0174-14.11425-1.20658-2.60914-.88902-5.11373-1.6164-5.56575-1.6164-.45202 0-.82186 6.76114-.82186 15.02475v15.02475l-2.5651.97525c-2.75776 1.0485-5.04594 1.13506-7.4349.28127zm36.21164-40.86247C316.20831 231.03735 321.3 221.94502 321.3 207.5c0-14.45863-5.46491-24.43519-14.94002-27.274-6.28699-1.88363-17.12088-1.51757-22.10998.74707l-4.25 1.92915V231.69625l3.75 1.58401c2.0625.87121 4.425 1.80402 5.25 2.07293 3.28029 1.06919 12.89548.56103 17.21164-.90964zm-122.15531-70.84509l12.69103-21.90154-12.75645-22.09846L171.23446 97.5l-25.91156-.2662-25.91155-.2662-12.70568 21.98853C99.71755 131.04982 94 141.25379 94 141.63161c0 .37782 5.67058 10.52265 12.60129 22.54407l12.60128 21.85713 26.08136-.2664 26.08136-.26641zm577.23516 83.31845c-15.84285-2.00728-24.21884-9.98026-24.26953-23.10181-.0262-6.77956 1.17641-10.33257 4.79166-14.15668 5.51484-5.83345 12.20023-8.04785 29.18638-9.66737 17.44491-1.66326 16.37626-1.16627 15.65226-7.27932-.71509-6.03783-2.93694-9.49579-7.72334-12.02014-5.12955-2.70533-19.28873-1.91306-27.61196 1.545-5.71077 2.37267-6.29111 2.44264-7.598.91614-5.76981-6.73937 1.26501-12.82391 17.64314-15.25986 13.46506-2.00268 25.41584 1.03144 32.46614 8.24265C799.20027 181.63016 800 186.37872 800 212.7815V236.2l-3.31504 3.31504c-5.77988 5.77988-21.78204 9.12642-35.39347 7.40187zM783.75 233.66823l3.25-1.71959v-23.07119l-4.25.54684c-2.3375.30076-8.47302 1.01989-13.63449 1.59807-9.78501 1.0961-12.12974 1.87459-15.8502 5.26253-5.40358 4.92065-3.30052 14.39581 3.94705 17.7831 3.56303 1.66525 5.89314 1.9461 13.78764 1.66187 6.50509-.23421 10.52457-.88414 12.75-2.06163zm-417.00408 12.2461c-10.82154-2.55045-21.04253-11.03691-24.92282-20.69335-1.9675-4.89629-2.30063-7.52288-2.31099-18.22098-.0116-11.96348.12329-12.7858 3.14259-19.15863 6.77387-14.29759 20.75105-22.06235 36.53422-20.29588 16.37685 1.83291 28.42355 14.23161 29.57423 30.4384.38785 5.46255.1612 6.78776-1.40178 8.19624-1.36874 1.23343-8.76958 2.64433-27.83628 5.30671-14.28452 1.99462-26.16129 3.81603-26.39284 4.04758-1.09631 1.09631 3.55215 10.14998 6.96218 13.56001 7.87817 7.87817 24.11864 9.22389 36.18905 2.99869l6.20953-3.2025 1.7535 2.16547c4.09024 5.05124-.0648 10.88082-9.92627 13.92672-6.9853 2.15754-20.44328 2.61218-27.57432.93152zm29.23212-49.36077c-.03-2.80219-3.26849-9.56496-5.88675-12.29288-6.70308-6.98382-19.46121-7.69594-28.33068-1.58132-4.33435 2.9881-8.4387 10.60969-9.36001 17.3811l-.62049 4.56045 22.10995-3.0069c20.67925-2.81233 22.10852-3.13978 22.08798-5.06045zm293.12659 48.86392c-15.66184-4.2117-27.17035-16.30502-31.53097-33.13322-1.84152-7.10666-2.08871-23.716-.46858-31.48504 3.48908-16.73119 15.28384-30.01764 30.98588-34.90466 10.57009-3.28978 29.56454-2.24719 37.95517 2.08333 7.34593 3.79135 10.0147 9.8471 5.95767 13.51867-1.93553 1.75163-2.18624 1.71115-8.25-1.33182-16.05122-8.05501-31.75374-6.3072-42.84117 4.76853-7.37139 7.36361-9.9787 14.05816-10.6754 27.41025-1.33021 25.49308 9.43095 40.54999 30.76277 43.04297 7.65029.89407 16.36522-.77824 23.87023-4.58045l6.37022-3.22732 1.87978 2.32143c2.82391 3.48738 2.34041 6.48822-1.60331 9.95085-5.33732 4.68623-14.72976 7.16196-26.87226 7.08319-5.57956-.0362-12.57258-.71872-15.54003-1.51671zm-271.88212-.97418c-2.21517-1.55156-2.22246-1.65814-2.20777-32.25.0107-22.31733.35184-31.37553 1.25-33.1933.77208-1.56259 4.04748-3.9084 8.73526-6.2561 18.34213-9.18597 43.27342-6.26641 51.03779 5.97675C480.35087 185.52166 481 190.78324 481 218.94223 481 247.50055 481.36501 246 474.41821 246c-2.08488 0-4.19834-.78013-5.41821-2-1.89583-1.89583-2-3.33333-2-27.59887 0-28.3575-.37388-30.3914-6.37329-34.67082C457.9194 179.79916 456.22572 179.5 448 179.5c-6.81641 0-10.84179.51771-14.25 1.83271l-4.75 1.83271v61.60132l-2.25.60297c-3.8285 1.026-7.20938.69726-9.52749-.92641zm105.18694.13288c-3.52284-1.53375-7.24497-9.23262-17.05147-35.26938C500.40098 196.14572 485 150.91173 485 149.51368c0-1.43263 6.91093-4.50663 10.13922-4.50994 6.63006-.007 7.23995 1.1419 18.33296 34.52985 12.92568 38.90398 16.572 48.83648 17.54561 47.79382 1.20332-1.28865 17.37751-51.25965 21.46829-66.32741 2.04594-7.53589 4.37886-14.05223 5.28066-14.75 2.58224-1.99799 9.5947-1.54013 12.5984.82258 3.50994 2.76092 3.44683 6.68888-.3232 20.11517-4.89507 17.43287-21.20449 61.36991-26.99043 72.71128-1.32047 2.58834-3.04004 4.24992-5.16475 4.9906-4.27245 1.48939-11.68103 1.33934-15.47731-.31345zm59.0451-1.03073L579 241.09091v-89.74228l2.33281-2.19156c3.29478-3.09529 14.07117-5.11909 27.36797-5.13971 22.4842-.0349 33.61722 4.989 40.46574 18.26044 3.0092 5.83139 3.67519 18.31499 1.39546 26.15699-1.31696 4.53018-2.88192 6.98035-7.36707 11.53423-8.28864 8.41564-13.67579 10.23839-31.94491 10.80861l-14.25.44478v16.7818C597 246.9241 597.41734 246 588.87276 246c-3.93673 0-5.47149-.50782-7.41821-2.45455zm41.36909-49.11623C630.43525 191.24889 634 185.66847 634 176.93325c0-6.71026-2.37088-11.4881-7.33045-14.77249-3.81584-2.52697-4.65023-2.66076-16.59371-2.66076H597.5l-.27262 18.90172-.27263 18.90171 11.10992-.67477c6.13693-.37273 12.74329-1.35723 14.75897-2.19944zM814 244c-1.9481-1.9481-2-3.33333-2-53.38337v-51.38337l2.25-.60297c4.21539-1.12968 7.7467-.63359 9.75 1.36971 1.94811 1.94811 2 3.33333 2 53.39301C826 250.30708 826.53887 246 819.41821 246c-2.08488 0-4.19834-.78013-5.41821-2z"/><path fill="#78b03e" d="M270 275.30602c-3.87876-1.38623-3.99958-2.59769-4.01407-40.24715L265.97187 198.5l-4.07203 7.5c-12.61312 23.23127-36.4265 45.60887-59.92967 56.31634-43.53856 19.8351-92.17899 16.01473-131.56329-10.33337-10.0011-6.69074-28.56266-25.18373-35.12065-34.99091C25.48031 202.32773 18.10298 185.04508 14.37332 168c-1.44753-6.6154-1.85406-12.60177-1.83358-27 .02366-16.63586.29314-19.56247 2.67437-29.04408 5.05672-20.1349 11.8103-34.55245 23.41039-49.97655C82.28096 3.93142 163.39826-8.94867 222 32.86236c28.07601 20.0316 46.77146 48.83585 54.16289 83.44923 2.7109 12.69489 2.99583 35.99943.58305 47.68841-.85146 4.125-1.43672 7.61841-1.30057 7.76313.13615.14472 1.85087-.40679 3.81048-1.22557 16.32884-6.82262 38.77042-2.18854 47.88776 9.88861 2.04538 2.70939 4.70747 8.00068 5.91574 11.75841 1.88707 5.8688 2.12516 8.34696 1.68837 17.57383-.83335 17.60425-5.95865 27.00522-18.09924 33.19817-5.98191 3.05138-7.87466 3.50461-16.14662 3.8664-6.89375.30151-10.62419-.0174-14.11425-1.20658-2.60914-.88902-5.11373-1.6164-5.56575-1.6164-.45202 0-.82186 6.76114-.82186 15.02475v15.02475l-2.5651.97525c-2.75776 1.0485-5.04594 1.13506-7.4349.28127zm36.21164-40.86247C316.20831 231.03735 321.3 221.94502 321.3 207.5c0-14.45863-5.46491-24.43519-14.94002-27.274-6.28699-1.88363-17.12088-1.51757-22.10998.74707l-4.25 1.92915V231.69625l3.75 1.58401c2.0625.87121 4.425 1.80402 5.25 2.07293 3.28029 1.06919 12.89548.56103 17.21164-.90964zM105.94608 185.25C105.81161 183.37958 43.38688 76.70628 42.5 76.83138c-1.86133.26254-9.3732 15.5181-12.96447 26.32901-8.19882 24.68118-8.52567 49.2448-.98248 73.83505L31.31525 186h37.34237c20.53831 0 37.31812-.3375 37.28846-.75zm78.11025-21.65154l12.69103-21.90154-12.75645-22.09846L171.23446 97.5l-25.91156-.2662-25.91155-.2662-12.70568 21.98853C99.71755 131.04982 94 141.25379 94 141.63161c0 .37782 5.67058 10.52265 12.60129 22.54407l12.60128 21.85713 26.08136-.2664 26.08136-.26641zm-64.41012-88.81998c17.20316-29.80292 31.07881-54.3868 30.83476-54.63084-.98672-.98673-19.97257-.01248-27.46892 1.40956-24.06018 4.56414-45.10821 15.69909-63.37484 33.52693-9.35083 9.12621-9.79765 9.75019-8.6081 12.02087 5.5586 10.61052 36.345 62.85422 36.78168 62.41754.30631-.30631 14.63225-24.94114 31.83542-54.74406zm641.64528 172.13843c-15.84285-2.00728-24.21884-9.98026-24.26953-23.10181-.0262-6.77956 1.17641-10.33257 4.79166-14.15668 5.51484-5.83345 12.20023-8.04785 29.18638-9.66737 17.44491-1.66326 16.37626-1.16627 15.65226-7.27932-.71509-6.03783-2.93694-9.49579-7.72334-12.02014-5.12955-2.70533-19.28873-1.91306-27.61196 1.545-5.71077 2.37267-6.29111 2.44264-7.598.91614-5.76981-6.73937 1.26501-12.82391 17.64314-15.25986 13.46506-2.00268 25.41584 1.03144 32.46614 8.24265C799.20027 181.63016 800 186.37872 800 212.7815V236.2l-3.31504 3.31504c-5.77988 5.77988-21.78204 9.12642-35.39347 7.40187zM783.75 233.66823l3.25-1.71959v-23.07119l-4.25.54684c-2.3375.30076-8.47302 1.01989-13.63449 1.59807-9.78501 1.0961-12.12974 1.87459-15.8502 5.26253-5.40358 4.92065-3.30052 14.39581 3.94705 17.7831 3.56303 1.66525 5.89314 1.9461 13.78764 1.66187 6.50509-.23421 10.52457-.88414 12.75-2.06163zm-417.00408 12.2461c-10.82154-2.55045-21.04253-11.03691-24.92282-20.69335-1.9675-4.89629-2.30063-7.52288-2.31099-18.22098-.0116-11.96348.12329-12.7858 3.14259-19.15863 6.77387-14.29759 20.75105-22.06235 36.53422-20.29588 16.37685 1.83291 28.42355 14.23161 29.57423 30.4384.38785 5.46255.1612 6.78776-1.40178 8.19624-1.36874 1.23343-8.76958 2.64433-27.83628 5.30671-14.28452 1.99462-26.16129 3.81603-26.39284 4.04758-1.09631 1.09631 3.55215 10.14998 6.96218 13.56001 7.87817 7.87817 24.11864 9.22389 36.18905 2.99869l6.20953-3.2025 1.7535 2.16547c4.09024 5.05124-.0648 10.88082-9.92627 13.92672-6.9853 2.15754-20.44328 2.61218-27.57432.93152zm29.23212-49.36077c-.03-2.80219-3.26849-9.56496-5.88675-12.29288-6.70308-6.98382-19.46121-7.69594-28.33068-1.58132-4.33435 2.9881-8.4387 10.60969-9.36001 17.3811l-.62049 4.56045 22.10995-3.0069c20.67925-2.81233 22.10852-3.13978 22.08798-5.06045zm293.12659 48.86392c-15.66184-4.2117-27.17035-16.30502-31.53097-33.13322-1.84152-7.10666-2.08871-23.716-.46858-31.48504 3.48908-16.73119 15.28384-30.01764 30.98588-34.90466 10.57009-3.28978 29.56454-2.24719 37.95517 2.08333 7.34593 3.79135 10.0147 9.8471 5.95767 13.51867-1.93553 1.75163-2.18624 1.71115-8.25-1.33182-16.05122-8.05501-31.75374-6.3072-42.84117 4.76853-7.37139 7.36361-9.9787 14.05816-10.6754 27.41025-1.33021 25.49308 9.43095 40.54999 30.76277 43.04297 7.65029.89407 16.36522-.77824 23.87023-4.58045l6.37022-3.22732 1.87978 2.32143c2.82391 3.48738 2.34041 6.48822-1.60331 9.95085-5.33732 4.68623-14.72976 7.16196-26.87226 7.08319-5.57956-.0362-12.57258-.71872-15.54003-1.51671zm-271.88212-.97418c-2.21517-1.55156-2.22246-1.65814-2.20777-32.25.0107-22.31733.35184-31.37553 1.25-33.1933.77208-1.56259 4.04748-3.9084 8.73526-6.2561 18.34213-9.18597 43.27342-6.26641 51.03779 5.97675C480.35087 185.52166 481 190.78324 481 218.94223 481 247.50055 481.36501 246 474.41821 246c-2.08488 0-4.19834-.78013-5.41821-2-1.89583-1.89583-2-3.33333-2-27.59887 0-28.3575-.37388-30.3914-6.37329-34.67082C457.9194 179.79916 456.22572 179.5 448 179.5c-6.81641 0-10.84179.51771-14.25 1.83271l-4.75 1.83271v61.60132l-2.25.60297c-3.8285 1.026-7.20938.69726-9.52749-.92641zm105.18694.13288c-3.52284-1.53375-7.24497-9.23262-17.05147-35.26938C500.40098 196.14572 485 150.91173 485 149.51368c0-1.43263 6.91093-4.50663 10.13922-4.50994 6.63006-.007 7.23995 1.1419 18.33296 34.52985 12.92568 38.90398 16.572 48.83648 17.54561 47.79382 1.20332-1.28865 17.37751-51.25965 21.46829-66.32741 2.04594-7.53589 4.37886-14.05223 5.28066-14.75 2.58224-1.99799 9.5947-1.54013 12.5984.82258 3.50994 2.76092 3.44683 6.68888-.3232 20.11517-4.89507 17.43287-21.20449 61.36991-26.99043 72.71128-1.32047 2.58834-3.04004 4.24992-5.16475 4.9906-4.27245 1.48939-11.68103 1.33934-15.47731-.31345zm59.0451-1.03073L579 241.09091v-89.74228l2.33281-2.19156c3.29478-3.09529 14.07117-5.11909 27.36797-5.13971 22.4842-.0349 33.61722 4.989 40.46574 18.26044 3.0092 5.83139 3.67519 18.31499 1.39546 26.15699-1.31696 4.53018-2.88192 6.98035-7.36707 11.53423-8.28864 8.41564-13.67579 10.23839-31.94491 10.80861l-14.25.44478v16.7818C597 246.9241 597.41734 246 588.87276 246c-3.93673 0-5.47149-.50782-7.41821-2.45455zm41.36909-49.11623C630.43525 191.24889 634 185.66847 634 176.93325c0-6.71026-2.37088-11.4881-7.33045-14.77249-3.81584-2.52697-4.65023-2.66076-16.59371-2.66076H597.5l-.27262 18.90172-.27263 18.90171 11.10992-.67477c6.13693-.37273 12.74329-1.35723 14.75897-2.19944zM814 244c-1.9481-1.9481-2-3.33333-2-53.38337v-51.38337l2.25-.60297c4.21539-1.12968 7.7467-.63359 9.75 1.36971 1.94811 1.94811 2 3.33333 2 53.39301C826 250.30708 826.53887 246 819.41821 246c-2.08488 0-4.19834-.78013-5.41821-2z"/><path fill="#0088d4" d="M127.5 273.59289c-21.25538-3.15392-38.40276-9.66181-55.56925-21.09-30.21386-20.11418-50.55388-50.59342-57.60525-86.32067-2.60708-13.20935-2.34036-37.58319.5596-51.13889 10.09368-47.1821 43.24333-84.48696 88.45477-99.5423 32.12054-10.69608 68.49179-8.52236 98.9076 5.9112 23.95742 11.36877 45.90924 31.95693 59.23949 55.5595 12.48503 22.10602 19.03941 51.92663 16.51408 75.1344-.62206 5.71663-1.56705 12.36608-2.1 14.77656-.53294 2.41049-.82188 4.5298-.64209 4.70959.17979.1798 3.23258-.58968 6.78397-1.70995 9.44483-2.97932 25.17522-2.37489 33.04356 1.26968C328.04672 177.1551 335 189.84688 335 207.5c0 17.60079-6.98608 30.39957-19.79386 36.26317-9.18104 4.20321-24.31557 4.10238-34.45614-.22957-1.62518-.69425-1.75.4013-1.75 15.35941V275h-4.92857C265.61174 275 266 276.91436 266 235.20279v-36.65436l-4.47314 7.84934c-16.26708 28.54502-41.65473 49.95287-72.29319 60.96042-17.60878 6.32635-43.4962 8.94081-61.73367 6.2347zM145.2483 230.5c9.88858-17.05 18.20119-31.5625 18.47246-32.25.39144-.99207-12.6318-1.25-63.11377-1.25C65.62314 197 37 197.24293 37 197.53984c0 1.55934 4.52895 8.99708 9.75506 16.02044 17.1927 23.10517 40.45759 38.92212 67.68656 46.01764 4.98211 1.29827 9.90642 2.26185 10.94291 2.14129 1.33468-.15525 7.13038-9.26416 19.86377-31.21921zm165.31636 1.96669c3.75309-2.3211 5.61269-4.41767 7.92002-8.92929 2.76527-5.40706 3.01494-6.73111 3.0107-15.96669-.004-9.04392-.29566-10.66439-2.85917-15.89352-6.17223-12.59031-20.04886-16.74592-34.88621-10.44732l-4.75 2.01642v23.84167c0 23.67724.0155 23.85054 2.25 25.12686 5.24067 2.99343 8.62258 3.71986 16.32998 3.50765 7.03763-.19377 8.7127-.61378 12.98468-3.25578zm-138.96453-46.84934c.0551-.0645 5.78968-9.97697 12.74358-22.02762l12.64344-21.91027-12.75694-22.08973L171.47327 97.5l-26.12974-.2664-26.12974-.26639-12.2168 21.07865c-6.71923 11.59326-12.42182 21.8627-12.67242 22.82098-.38178 1.45995 21.29498 40.52409 24.93808 44.94143.86511 1.04898 6.1487 1.17133 26.65816.61735 14.06855-.38 25.62425-.74372 25.67932-.80827zm-68.0044-5.36735c-1.8378-3.1625-16.04411-27.8-31.56957-54.75C56.50071 98.55 43.4832 76.1622 43.09837 75.74934c-.91564-.98234-8.10416 11.85749-11.57626 20.67702C26.13944 110.09896 23.84063 121.42774 23.289 137c-.57284 16.1708.7901 26.81597 5.23471 40.88569L31.08701 186h75.85019zm16.34601-105.5811c17.09182-29.6071 30.78344-54.30456 30.4258-54.88322-.82199-1.33001-17.66293-.25682-28.63678 1.82488-23.14792 4.39108-45.77014 16.60778-63.22949 34.14589C53.82557 60.45323 50 64.69666 50 65.1863c0 .78793 24.54879 43.81417 33.74431 59.14307 1.92332 3.20615 3.86244 5.45615 4.30916 5 .44672-.45616 14.79644-25.05338 31.88827-54.66048zM366 245.4586c-6.84821-1.90914-15.40939-7.00098-18.42529-10.95861-6.35774-8.34298-9.17779-18.95619-8.31628-31.2982 1.19736-17.15347 9.58736-29.00053 23.90606-33.75644 7.21373-2.39601 21.71892-1.65432 27.63057 1.41284 10.43856 5.41588 16.78455 14.83411 17.87687 26.53148.91007 9.74569 1.19 9.60457-26.72933 13.47459C352.69035 214.91905 353 214.85755 353 216.6127c0 3.21703 5.25006 11.5559 8.97372 14.25331 5.57143 4.03591 11.62906 5.47184 20.83532 4.9389 6.30037-.36472 8.92463-1.05206 13.52042-3.54125 4.92328-2.66656 5.89651-2.89483 7.12109-1.67025 4.42757 4.42756 2.08817 9.35497-6.25491 13.17456-7.16385 3.27972-22.51185 4.1115-31.19564 1.69064zm9.70864-43.96128C385.72339 200.1238 394.38589 199 394.95864 199c1.91317 0 1.07097-5.17494-1.65831-10.18953-6.14342-11.28749-20.83978-13.99749-32.0135-5.90329-4.74194 3.43504-8.11213 9.82214-8.95995 16.98064l-.60616 5.11804 2.88964-.5056c1.5893-.27808 11.08353-1.6294 21.09828-3.00293zM690 245.45599c-15.5431-4.32988-25.68569-13.8021-31.09171-29.03672-2.93327-8.26619-3.70943-26.40054-1.52667-35.66929 4.43463-18.83095 17.07136-31.82849 34.77486-35.76774 8.10852-1.80425 23.80617-.81872 31.05202 1.94951C729.10317 149.18377 734 153.73696 734 156.96594c0 .99687-.82076 2.82609-1.82391 4.06493l-1.82392 2.25244-7.87422-3.89166c-7.50741-3.71036-8.31918-3.89051-17.42609-3.86722-11.3334.029-17.02193 2.11839-23.88605 8.77341-8.09832 7.85164-11.31083 17.02582-11.29364 32.25203.0191 16.88698 6.22057 29.08966 17.84064 35.105 11.23226 5.81457 25.63342 5.47584 37.56491-.88358l5.97092-3.18246 1.87568 2.31637c1.03162 1.274 1.87568 3.22588 1.87568 4.33751 0 3.0481-6.05394 8.13801-12.11333 10.18438-7.46797 2.52208-25.50128 3.08628-32.88667 1.0289zm64.80321.19507c-10.72563-3.00263-16.62749-9.62164-17.53863-19.66981-.97336-10.73443 3.93654-18.60122 14.01088-22.44865 2.46715-.94221 11.40196-2.46477 19.85513-3.38346L786.5 198.4788l.2735-3.9894c.16093-2.34734-.45648-5.42182-1.5-7.46947-4.84898-9.51495-17.89959-11.28964-34.30174-4.66451-5.63434 2.27581-5.97088 2.30303-7.50563.60715-.98748-1.09115-1.48333-3.06422-1.28646-5.11903.28475-2.9722.97405-3.67015 6.20644-6.2844 5.20863-2.60237 7.17485-2.99018 17.08319-3.36945 15.12759-.57904 21.24086 1.14077 27.67321 7.78511C799.37047 182.40803 800 185.85599 800 213.53344v22.43501l-2.75 3.02828c-4.42637 4.8743-12.78571 7.31632-26.25 7.66844-7.35252.19228-13.1939-.17346-16.19679-1.01411zM782.25 234.3296l4.75-1.49033v-11.91964c0-10.69724-.17947-11.91643-1.75-11.88844-6.7309.11997-25.76062 3.11728-28.72628 4.52458-6.28105 2.98055-8.28404 10.04498-4.57349 16.13041 2.41482 3.96039 4.99878 5.37682 11.47888 6.29229 6.2071.8769 12.53869.3222 18.82089-1.64887zM417 244c-1.91126-1.91126-2-3.33333-2-32.04966 0-34.1794-.0386-33.98743 7.67136-38.16028 8.6247-4.66793 15.36905-6.03831 27.69329-5.62698 12.16647.40607 17.73548 2.23907 23.18707 7.63188 6.10955 6.04368 6.40221 7.85837 6.42632 39.84805.0193 25.6652-.1668 29.21545-1.55983 29.75-3.14065 1.20518-7.45868.56652-9.41821-1.39301-1.89881-1.89881-2-3.33333-2-28.35212 0-25.70607-.0555-26.43542-2.2632-29.75-5.07759-7.62331-17.9993-9.66714-30.2368-4.78256l-6 2.39489-.26496 30.44513c-.19867 22.82805-.57396 30.64138-1.5 31.22958-2.35947 1.49865-7.70171.84841-9.73504-1.18492zm106.5 1.05464c-3.43909-1.40759-5.3193-4.3282-10.05128-15.61309-10.25816-24.46379-28.93546-78.84496-27.74243-80.77534.8805-1.42467 7.01845-3.66621 10.03909-3.66621 5.87805 0 6.49787 1.22613 17.8183 35.2479 12.99901 39.06647 16.40023 48.18819 17.54216 47.04626 1.36089-1.36089 17.22689-50.20171 21.48923-66.151 3.30612-12.37123 4.16167-14.48037 6.18595-15.25 4.01701-1.52727 8.80758-1.00461 11.70875 1.27745 2.59092 2.03802 2.72335 2.51622 2.16808 7.82882-.98255 9.40051-14.74475 49.86243-26.14221 76.86008-4.25077 10.06896-5.17368 11.51749-8.1235 12.75-3.6183 1.51183-11.69604 1.75327-14.89214.44513zm58.36078-.96564L579.5 242.17799l-.28021-44.71842c-.31941-50.97639-.7408-48.29944 8.02732-50.99563 6.85092-2.10666 28.37467-3.04425 36.25289-1.57922 19.43491 3.61412 29.53508 16.18328 28.23589 35.13816-.81267 11.85648-6.81916 21.34898-16.76238 26.49082-5.22977 2.70442-15.86697 4.45059-27.22351 4.46894L597 211v16.88337c0 16.66335-.0293 16.89122-2.25 17.48634-4.59622 1.23174-10.51152.64398-12.88922-1.28071zm36.05344-48.16402c6.08466-1.30493 10.74745-4.3074 13.89729-8.94878 2.05002-3.02076 2.31296-4.41943 2.00693-10.67547-.38842-7.94002-2.19016-11.43173-7.5052-14.5448-4.58551-2.68578-12.97018-3.93163-21.56324-3.204l-7.75.65623V197h7.95078c4.37293 0 10.20648-.48376 12.96344-1.07502zM814.75 244.9199c-1.63142-.95022-1.75-4.56867-1.75-53.4022 0-52.23207.006-52.38483 2.08694-53.04529 3.80479-1.2076 8.91697.40768 9.95826 3.14648.56048 1.47416.9548 23.29234.9548 52.82958v50.31827l-2.25.60297c-3.32177.8902-7.01637.70555-9-.44981z"/><path fill="#037bbf" d="M127.5 273.59289c-21.25538-3.15392-38.40276-9.66181-55.56925-21.09-30.21386-20.11418-50.55388-50.59342-57.60525-86.32067-2.60708-13.20935-2.34036-37.58319.5596-51.13889 10.09368-47.1821 43.24333-84.48696 88.45477-99.5423 32.12054-10.69608 68.49179-8.52236 98.9076 5.9112 23.95742 11.36877 45.90924 31.95693 59.23949 55.5595 12.48503 22.10602 19.03941 51.92663 16.51408 75.1344-.62206 5.71663-1.56705 12.36608-2.1 14.77656-.53294 2.41049-.82188 4.5298-.64209 4.70959.17979.1798 3.23258-.58968 6.78397-1.70995 9.44483-2.97932 25.17522-2.37489 33.04356 1.26968C328.04672 177.1551 335 189.84688 335 207.5c0 17.60079-6.98608 30.39957-19.79386 36.26317-9.18104 4.20321-24.31557 4.10238-34.45614-.22957-1.62518-.69425-1.75.4013-1.75 15.35941V275h-4.92857C265.61174 275 266 276.91436 266 235.20279v-36.65436l-4.47314 7.84934c-16.26708 28.54502-41.65473 49.95287-72.29319 60.96042-17.60878 6.32635-43.4962 8.94081-61.73367 6.2347zm39.5-12.52491c2.93512-.81021 2.57029-.87486-2.26046-.40053l-5.76046.56561 2.87735-6.36653c1.58254-3.50159 4.9315-10.64153 7.44213-15.86653 2.51062-5.225 4.70802-10.175 4.88311-11 .17508-.825 4.146-3.525 8.82426-6 12.24673-6.47904 22.81993-14.10495 32.57864-23.49729l8.53003-8.20979-10.3073-18.10846c-5.66902-9.95965-10.5323-18.11997-10.8073-18.13403-.5021-.0257-8.26968 13.32937-43.30139 74.44957-10.40287 18.15-19.16023 33.40691-19.46081 33.90425-.68414 1.132 21.90688.004 26.7622-1.33627zM145.2483 230.5c9.88858-17.05 18.20119-31.5625 18.47246-32.25.39144-.99207-12.6318-1.25-63.11377-1.25C65.62314 197 37 197.24293 37 197.53984c0 1.55934 4.52895 8.99708 9.75506 16.02044 17.1927 23.10517 40.45759 38.92212 67.68656 46.01764 4.98211 1.29827 9.90642 2.26185 10.94291 2.14129 1.33468-.15525 7.13038-9.26416 19.86377-31.21921zm29.0017 28.83772c-.6875-.27741-1.8125-.27741-2.5 0s-.125.50439 1.25.50439 1.9375-.22698 1.25-.50439zm136.31466-26.87103c3.75309-2.3211 5.61269-4.41767 7.92002-8.92929 2.76527-5.40706 3.01494-6.73111 3.0107-15.96669-.004-9.04392-.29566-10.66439-2.85917-15.89352-6.17223-12.59031-20.04886-16.74592-34.88621-10.44732l-4.75 2.01642v23.84167c0 23.67724.0155 23.85054 2.25 25.12686 5.24067 2.99343 8.62258 3.71986 16.32998 3.50765 7.03763-.19377 8.7127-.61378 12.98468-3.25578zm-138.96453-46.84934c.0551-.0645 5.78968-9.97697 12.74358-22.02762l12.64344-21.91027-12.75694-22.08973L171.47327 97.5l-26.12974-.2664-26.12974-.26639-12.2168 21.07865c-6.71923 11.59326-12.42182 21.8627-12.67242 22.82098-.38178 1.45995 21.29498 40.52409 24.93808 44.94143.86511 1.04898 6.1487 1.17133 26.65816.61735 14.06855-.38 25.62425-.74372 25.67932-.80827zm-68.0044-5.36735c-1.8378-3.1625-16.04411-27.8-31.56957-54.75C56.50071 98.55 43.4832 76.1622 43.09837 75.74934c-.91564-.98234-8.10416 11.85749-11.57626 20.67702C26.13944 110.09896 23.84063 121.42774 23.289 137c-.57284 16.1708.7901 26.81597 5.23471 40.88569L31.08701 186h75.85019zm16.34601-105.5811c17.09182-29.6071 30.78344-54.30456 30.4258-54.88322-.82199-1.33001-17.66293-.25682-28.63678 1.82488-23.14792 4.39108-45.77014 16.60778-63.22949 34.14589C53.82557 60.45323 50 64.69666 50 65.1863c0 .78793 24.54879 43.81417 33.74431 59.14307 1.92332 3.20615 3.86244 5.45615 4.30916 5 .44672-.45616 14.79644-25.05338 31.88827-54.66048zM366 245.4586c-6.84821-1.90914-15.40939-7.00098-18.42529-10.95861-6.35774-8.34298-9.17779-18.95619-8.31628-31.2982 1.19736-17.15347 9.58736-29.00053 23.90606-33.75644 7.21373-2.39601 21.71892-1.65432 27.63057 1.41284 10.43856 5.41588 16.78455 14.83411 17.87687 26.53148.91007 9.74569 1.19 9.60457-26.72933 13.47459C352.69035 214.91905 353 214.85755 353 216.6127c0 3.21703 5.25006 11.5559 8.97372 14.25331 5.57143 4.03591 11.62906 5.47184 20.83532 4.9389 6.30037-.36472 8.92463-1.05206 13.52042-3.54125 4.92328-2.66656 5.89651-2.89483 7.12109-1.67025 4.42757 4.42756 2.08817 9.35497-6.25491 13.17456-7.16385 3.27972-22.51185 4.1115-31.19564 1.69064zm9.70864-43.96128C385.72339 200.1238 394.38589 199 394.95864 199c1.91317 0 1.07097-5.17494-1.65831-10.18953-6.14342-11.28749-20.83978-13.99749-32.0135-5.90329-4.74194 3.43504-8.11213 9.82214-8.95995 16.98064l-.60616 5.11804 2.88964-.5056c1.5893-.27808 11.08353-1.6294 21.09828-3.00293zM690 245.45599c-15.5431-4.32988-25.68569-13.8021-31.09171-29.03672-2.93327-8.26619-3.70943-26.40054-1.52667-35.66929 4.43463-18.83095 17.07136-31.82849 34.77486-35.76774 8.10852-1.80425 23.80617-.81872 31.05202 1.94951C729.10317 149.18377 734 153.73696 734 156.96594c0 .99687-.82076 2.82609-1.82391 4.06493l-1.82392 2.25244-7.87422-3.89166c-7.50741-3.71036-8.31918-3.89051-17.42609-3.86722-11.3334.029-17.02193 2.11839-23.88605 8.77341-8.09832 7.85164-11.31083 17.02582-11.29364 32.25203.0191 16.88698 6.22057 29.08966 17.84064 35.105 11.23226 5.81457 25.63342 5.47584 37.56491-.88358l5.97092-3.18246 1.87568 2.31637c1.03162 1.274 1.87568 3.22588 1.87568 4.33751 0 3.0481-6.05394 8.13801-12.11333 10.18438-7.46797 2.52208-25.50128 3.08628-32.88667 1.0289zm64.80321.19507c-10.72563-3.00263-16.62749-9.62164-17.53863-19.66981-.97336-10.73443 3.93654-18.60122 14.01088-22.44865 2.46715-.94221 11.40196-2.46477 19.85513-3.38346L786.5 198.4788l.2735-3.9894c.16093-2.34734-.45648-5.42182-1.5-7.46947-4.84898-9.51495-17.89959-11.28964-34.30174-4.66451-5.63434 2.27581-5.97088 2.30303-7.50563.60715-.98748-1.09115-1.48333-3.06422-1.28646-5.11903.28475-2.9722.97405-3.67015 6.20644-6.2844 5.20863-2.60237 7.17485-2.99018 17.08319-3.36945 15.12759-.57904 21.24086 1.14077 27.67321 7.78511C799.37047 182.40803 800 185.85599 800 213.53344v22.43501l-2.75 3.02828c-4.42637 4.8743-12.78571 7.31632-26.25 7.66844-7.35252.19228-13.1939-.17346-16.19679-1.01411zM782.25 234.3296l4.75-1.49033v-11.91964c0-10.69724-.17947-11.91643-1.75-11.88844-6.7309.11997-25.76062 3.11728-28.72628 4.52458-6.28105 2.98055-8.28404 10.04498-4.57349 16.13041 2.41482 3.96039 4.99878 5.37682 11.47888 6.29229 6.2071.8769 12.53869.3222 18.82089-1.64887zM417 244c-1.91126-1.91126-2-3.33333-2-32.04966 0-34.1794-.0386-33.98743 7.67136-38.16028 8.6247-4.66793 15.36905-6.03831 27.69329-5.62698 12.16647.40607 17.73548 2.23907 23.18707 7.63188 6.10955 6.04368 6.40221 7.85837 6.42632 39.84805.0193 25.6652-.1668 29.21545-1.55983 29.75-3.14065 1.20518-7.45868.56652-9.41821-1.39301-1.89881-1.89881-2-3.33333-2-28.35212 0-25.70607-.0555-26.43542-2.2632-29.75-5.07759-7.62331-17.9993-9.66714-30.2368-4.78256l-6 2.39489-.26496 30.44513c-.19867 22.82805-.57396 30.64138-1.5 31.22958-2.35947 1.49865-7.70171.84841-9.73504-1.18492zm106.5 1.05464c-3.43909-1.40759-5.3193-4.3282-10.05128-15.61309-10.25816-24.46379-28.93546-78.84496-27.74243-80.77534.8805-1.42467 7.01845-3.66621 10.03909-3.66621 5.87805 0 6.49787 1.22613 17.8183 35.2479 12.99901 39.06647 16.40023 48.18819 17.54216 47.04626 1.36089-1.36089 17.22689-50.20171 21.48923-66.151 3.30612-12.37123 4.16167-14.48037 6.18595-15.25 4.01701-1.52727 8.80758-1.00461 11.70875 1.27745 2.59092 2.03802 2.72335 2.51622 2.16808 7.82882-.98255 9.40051-14.74475 49.86243-26.14221 76.86008-4.25077 10.06896-5.17368 11.51749-8.1235 12.75-3.6183 1.51183-11.69604 1.75327-14.89214.44513zm58.36078-.96564L579.5 242.17799l-.28021-44.71842c-.31941-50.97639-.7408-48.29944 8.02732-50.99563 6.85092-2.10666 28.37467-3.04425 36.25289-1.57922 19.43491 3.61412 29.53508 16.18328 28.23589 35.13816-.81267 11.85648-6.81916 21.34898-16.76238 26.49082-5.22977 2.70442-15.86697 4.45059-27.22351 4.46894L597 211v16.88337c0 16.66335-.0293 16.89122-2.25 17.48634-4.59622 1.23174-10.51152.64398-12.88922-1.28071zm36.05344-48.16402c6.08466-1.30493 10.74745-4.3074 13.89729-8.94878 2.05002-3.02076 2.31296-4.41943 2.00693-10.67547-.38842-7.94002-2.19016-11.43173-7.5052-14.5448-4.58551-2.68578-12.97018-3.93163-21.56324-3.204l-7.75.65623V197h7.95078c4.37293 0 10.20648-.48376 12.96344-1.07502zM814.75 244.9199c-1.63142-.95022-1.75-4.56867-1.75-53.4022 0-52.23207.006-52.38483 2.08694-53.04529 3.80479-1.2076 8.91697.40768 9.95826 3.14648.56048 1.47416.9548 23.29234.9548 52.82958v50.31827l-2.25.60297c-3.32177.8902-7.01637.70555-9-.44981z"/><path fill="#c61b3e" d="M127.5 273.59289c-21.25538-3.15392-38.40276-9.66181-55.56925-21.09-30.21386-20.11418-50.55388-50.59342-57.60525-86.32067-2.60708-13.20935-2.34036-37.58319.5596-51.13889 10.09368-47.1821 43.24333-84.48696 88.45477-99.5423 32.12054-10.69608 68.49179-8.52236 98.9076 5.9112 23.95742 11.36877 45.90924 31.95693 59.23949 55.5595 12.48503 22.10602 19.03941 51.92663 16.51408 75.1344-.62206 5.71663-1.56705 12.36608-2.1 14.77656-.53294 2.41049-.82188 4.5298-.64209 4.70959.17979.1798 3.23258-.58968 6.78397-1.70995 9.44483-2.97932 25.17522-2.37489 33.04356 1.26968C328.04672 177.1551 335 189.84688 335 207.5c0 17.60079-6.98608 30.39957-19.79386 36.26317-9.18104 4.20321-24.31557 4.10238-34.45614-.22957-1.62518-.69425-1.75.4013-1.75 15.35941V275h-4.92857C265.61174 275 266 276.91436 266 235.20279v-36.65436l-4.47314 7.84934c-16.26708 28.54502-41.65473 49.95287-72.29319 60.96042-17.60878 6.32635-43.4962 8.94081-61.73367 6.2347zm35.33817-11.16607c25.30269-3.75709 47.19923-14.44517 66.40318-32.41254 13.10838-12.26431 13.84189-7.73023-7.1391-44.12909-9.95006-17.26186-18.25694-31.83519-18.45973-32.38519-.20279-.55-.5898-.775-.86003-.5-.27023.275-10.98071 18.725-23.80107 41-12.82036 22.275-27.06087 46.96436-31.64558 54.86524-4.58471 7.90088-8.33584 14.53838-8.33584 14.75 0 .94961 14.21034.24117 23.83817-1.18842zM145.2483 230.5c9.88858-17.05 18.20119-31.5625 18.47246-32.25.39144-.99207-12.6318-1.25-63.11377-1.25C65.62314 197 37 197.24293 37 197.53984c0 1.55934 4.52895 8.99708 9.75506 16.02044 17.1927 23.10517 40.45759 38.92212 67.68656 46.01764 4.98211 1.29827 9.90642 2.26185 10.94291 2.14129 1.33468-.15525 7.13038-9.26416 19.86377-31.21921zm165.31636 1.96669c3.75309-2.3211 5.61269-4.41767 7.92002-8.92929 2.76527-5.40706 3.01494-6.73111 3.0107-15.96669-.004-9.04392-.29566-10.66439-2.85917-15.89352-6.17223-12.59031-20.04886-16.74592-34.88621-10.44732l-4.75 2.01642v23.84167c0 23.67724.0155 23.85054 2.25 25.12686 5.24067 2.99343 8.62258 3.71986 16.32998 3.50765 7.03763-.19377 8.7127-.61378 12.98468-3.25578zm-138.96453-46.84934c.0551-.0645 5.78968-9.97697 12.74358-22.02762l12.64344-21.91027-12.75694-22.08973L171.47327 97.5l-26.12974-.2664-26.12974-.26639-12.2168 21.07865c-6.71923 11.59326-12.42182 21.8627-12.67242 22.82098-.38178 1.45995 21.29498 40.52409 24.93808 44.94143.86511 1.04898 6.1487 1.17133 26.65816.61735 14.06855-.38 25.62425-.74372 25.67932-.80827zm-68.0044-5.36735c-1.8378-3.1625-16.04411-27.8-31.56957-54.75C56.50071 98.55 43.4832 76.1622 43.09837 75.74934c-.91564-.98234-8.10416 11.85749-11.57626 20.67702C26.13944 110.09896 23.84063 121.42774 23.289 137c-.57284 16.1708.7901 26.81597 5.23471 40.88569L31.08701 186h75.85019zm16.34601-105.5811c17.09182-29.6071 30.78344-54.30456 30.4258-54.88322-.82199-1.33001-17.66293-.25682-28.63678 1.82488-23.14792 4.39108-45.77014 16.60778-63.22949 34.14589C53.82557 60.45323 50 64.69666 50 65.1863c0 .78793 24.54879 43.81417 33.74431 59.14307 1.92332 3.20615 3.86244 5.45615 4.30916 5 .44672-.45616 14.79644-25.05338 31.88827-54.66048zM366 245.4586c-6.84821-1.90914-15.40939-7.00098-18.42529-10.95861-6.35774-8.34298-9.17779-18.95619-8.31628-31.2982 1.19736-17.15347 9.58736-29.00053 23.90606-33.75644 7.21373-2.39601 21.71892-1.65432 27.63057 1.41284 10.43856 5.41588 16.78455 14.83411 17.87687 26.53148.91007 9.74569 1.19 9.60457-26.72933 13.47459C352.69035 214.91905 353 214.85755 353 216.6127c0 3.21703 5.25006 11.5559 8.97372 14.25331 5.57143 4.03591 11.62906 5.47184 20.83532 4.9389 6.30037-.36472 8.92463-1.05206 13.52042-3.54125 4.92328-2.66656 5.89651-2.89483 7.12109-1.67025 4.42757 4.42756 2.08817 9.35497-6.25491 13.17456-7.16385 3.27972-22.51185 4.1115-31.19564 1.69064zm9.70864-43.96128C385.72339 200.1238 394.38589 199 394.95864 199c1.91317 0 1.07097-5.17494-1.65831-10.18953-6.14342-11.28749-20.83978-13.99749-32.0135-5.90329-4.74194 3.43504-8.11213 9.82214-8.95995 16.98064l-.60616 5.11804 2.88964-.5056c1.5893-.27808 11.08353-1.6294 21.09828-3.00293zM690 245.45599c-15.5431-4.32988-25.68569-13.8021-31.09171-29.03672-2.93327-8.26619-3.70943-26.40054-1.52667-35.66929 4.43463-18.83095 17.07136-31.82849 34.77486-35.76774 8.10852-1.80425 23.80617-.81872 31.05202 1.94951C729.10317 149.18377 734 153.73696 734 156.96594c0 .99687-.82076 2.82609-1.82391 4.06493l-1.82392 2.25244-7.87422-3.89166c-7.50741-3.71036-8.31918-3.89051-17.42609-3.86722-11.3334.029-17.02193 2.11839-23.88605 8.77341-8.09832 7.85164-11.31083 17.02582-11.29364 32.25203.0191 16.88698 6.22057 29.08966 17.84064 35.105 11.23226 5.81457 25.63342 5.47584 37.56491-.88358l5.97092-3.18246 1.87568 2.31637c1.03162 1.274 1.87568 3.22588 1.87568 4.33751 0 3.0481-6.05394 8.13801-12.11333 10.18438-7.46797 2.52208-25.50128 3.08628-32.88667 1.0289zm64.80321.19507c-10.72563-3.00263-16.62749-9.62164-17.53863-19.66981-.97336-10.73443 3.93654-18.60122 14.01088-22.44865 2.46715-.94221 11.40196-2.46477 19.85513-3.38346L786.5 198.4788l.2735-3.9894c.16093-2.34734-.45648-5.42182-1.5-7.46947-4.84898-9.51495-17.89959-11.28964-34.30174-4.66451-5.63434 2.27581-5.97088 2.30303-7.50563.60715-.98748-1.09115-1.48333-3.06422-1.28646-5.11903.28475-2.9722.97405-3.67015 6.20644-6.2844 5.20863-2.60237 7.17485-2.99018 17.08319-3.36945 15.12759-.57904 21.24086 1.14077 27.67321 7.78511C799.37047 182.40803 800 185.85599 800 213.53344v22.43501l-2.75 3.02828c-4.42637 4.8743-12.78571 7.31632-26.25 7.66844-7.35252.19228-13.1939-.17346-16.19679-1.01411zM782.25 234.3296l4.75-1.49033v-11.91964c0-10.69724-.17947-11.91643-1.75-11.88844-6.7309.11997-25.76062 3.11728-28.72628 4.52458-6.28105 2.98055-8.28404 10.04498-4.57349 16.13041 2.41482 3.96039 4.99878 5.37682 11.47888 6.29229 6.2071.8769 12.53869.3222 18.82089-1.64887zM417 244c-1.91126-1.91126-2-3.33333-2-32.04966 0-34.1794-.0386-33.98743 7.67136-38.16028 8.6247-4.66793 15.36905-6.03831 27.69329-5.62698 12.16647.40607 17.73548 2.23907 23.18707 7.63188 6.10955 6.04368 6.40221 7.85837 6.42632 39.84805.0193 25.6652-.1668 29.21545-1.55983 29.75-3.14065 1.20518-7.45868.56652-9.41821-1.39301-1.89881-1.89881-2-3.33333-2-28.35212 0-25.70607-.0555-26.43542-2.2632-29.75-5.07759-7.62331-17.9993-9.66714-30.2368-4.78256l-6 2.39489-.26496 30.44513c-.19867 22.82805-.57396 30.64138-1.5 31.22958-2.35947 1.49865-7.70171.84841-9.73504-1.18492zm106.5 1.05464c-3.43909-1.40759-5.3193-4.3282-10.05128-15.61309-10.25816-24.46379-28.93546-78.84496-27.74243-80.77534.8805-1.42467 7.01845-3.66621 10.03909-3.66621 5.87805 0 6.49787 1.22613 17.8183 35.2479 12.99901 39.06647 16.40023 48.18819 17.54216 47.04626 1.36089-1.36089 17.22689-50.20171 21.48923-66.151 3.30612-12.37123 4.16167-14.48037 6.18595-15.25 4.01701-1.52727 8.80758-1.00461 11.70875 1.27745 2.59092 2.03802 2.72335 2.51622 2.16808 7.82882-.98255 9.40051-14.74475 49.86243-26.14221 76.86008-4.25077 10.06896-5.17368 11.51749-8.1235 12.75-3.6183 1.51183-11.69604 1.75327-14.89214.44513zm58.36078-.96564L579.5 242.17799l-.28021-44.71842c-.31941-50.97639-.7408-48.29944 8.02732-50.99563 6.85092-2.10666 28.37467-3.04425 36.25289-1.57922 19.43491 3.61412 29.53508 16.18328 28.23589 35.13816-.81267 11.85648-6.81916 21.34898-16.76238 26.49082-5.22977 2.70442-15.86697 4.45059-27.22351 4.46894L597 211v16.88337c0 16.66335-.0293 16.89122-2.25 17.48634-4.59622 1.23174-10.51152.64398-12.88922-1.28071zm36.05344-48.16402c6.08466-1.30493 10.74745-4.3074 13.89729-8.94878 2.05002-3.02076 2.31296-4.41943 2.00693-10.67547-.38842-7.94002-2.19016-11.43173-7.5052-14.5448-4.58551-2.68578-12.97018-3.93163-21.56324-3.204l-7.75.65623V197h7.95078c4.37293 0 10.20648-.48376 12.96344-1.07502zM814.75 244.9199c-1.63142-.95022-1.75-4.56867-1.75-53.4022 0-52.23207.006-52.38483 2.08694-53.04529 3.80479-1.2076 8.91697.40768 9.95826 3.14648.56048 1.47416.9548 23.29234.9548 52.82958v50.31827l-2.25.60297c-3.32177.8902-7.01637.70555-9-.44981z"/><path fill="#4c585e" d="M127.5 273.59289c-21.25538-3.15392-38.40276-9.66181-55.56925-21.09-30.21386-20.11418-50.55388-50.59342-57.60525-86.32067-2.60708-13.20935-2.34036-37.58319.5596-51.13889 10.09368-47.1821 43.24333-84.48696 88.45477-99.5423 32.12054-10.69608 68.49179-8.52236 98.9076 5.9112 23.95742 11.36877 45.90924 31.95693 59.23949 55.5595 12.48503 22.10602 19.03941 51.92663 16.51408 75.1344-.62206 5.71663-1.56705 12.36608-2.1 14.77656-.53294 2.41049-.82188 4.5298-.64209 4.70959.17979.1798 3.23258-.58968 6.78397-1.70995 9.44483-2.97932 25.17522-2.37489 33.04356 1.26968C328.04672 177.1551 335 189.84688 335 207.5c0 17.60079-6.98608 30.39957-19.79386 36.26317-9.18104 4.20321-24.31557 4.10238-34.45614-.22957-1.62518-.69425-1.75.4013-1.75 15.35941V275h-4.92857C265.61174 275 266 276.91436 266 235.20279v-36.65436l-4.47314 7.84934c-16.26708 28.54502-41.65473 49.95287-72.29319 60.96042-17.60878 6.32635-43.4962 8.94081-61.73367 6.2347zm35.33817-11.16607c25.30269-3.75709 47.19923-14.44517 66.40318-32.41254 13.10838-12.26431 13.84189-7.73023-7.1391-44.12909-9.95006-17.26186-18.25694-31.83519-18.45973-32.38519-.20279-.55-.5898-.775-.86003-.5-.27023.275-10.98071 18.725-23.80107 41-12.82036 22.275-27.06087 46.96436-31.64558 54.86524-4.58471 7.90088-8.33584 14.53838-8.33584 14.75 0 .94961 14.21034.24117 23.83817-1.18842zM145.2483 230.5c9.88858-17.05 18.20119-31.5625 18.47246-32.25.39144-.99207-12.6318-1.25-63.11377-1.25C65.62314 197 37 197.24293 37 197.53984c0 1.55934 4.52895 8.99708 9.75506 16.02044 17.1927 23.10517 40.45759 38.92212 67.68656 46.01764 4.98211 1.29827 9.90642 2.26185 10.94291 2.14129 1.33468-.15525 7.13038-9.26416 19.86377-31.21921zm165.31636 1.96669c3.75309-2.3211 5.61269-4.41767 7.92002-8.92929 2.76527-5.40706 3.01494-6.73111 3.0107-15.96669-.004-9.04392-.29566-10.66439-2.85917-15.89352-6.17223-12.59031-20.04886-16.74592-34.88621-10.44732l-4.75 2.01642v23.84167c0 23.67724.0155 23.85054 2.25 25.12686 5.24067 2.99343 8.62258 3.71986 16.32998 3.50765 7.03763-.19377 8.7127-.61378 12.98468-3.25578zm-56.99908-35.59726c14.33515-28.543 17.20878-59.39254 8.37367-89.89467-3.18344-10.99046.83171-10.04079-41.17524-9.73883L184.02802 97.5l24.58404 42.5c13.52122 23.375 27.74127 48.00731 31.60013 54.73847 3.85885 6.73116 7.42752 11.9842 7.93038 11.67342.50286-.31079 2.94321-4.60489 5.42301-9.54246zm-81.96545-11.25208c.0551-.0645 5.78968-9.97697 12.74358-22.02762l12.64344-21.91027-12.75694-22.08973L171.47327 97.5l-26.12974-.2664-26.12974-.26639-12.2168 21.07865c-6.71923 11.59326-12.42182 21.8627-12.67242 22.82098-.38178 1.45995 21.29498 40.52409 24.93808 44.94143.86511 1.04898 6.1487 1.17133 26.65816.61735 14.06855-.38 25.62425-.74372 25.67932-.80827zm-68.0044-5.36735c-1.8378-3.1625-16.04411-27.8-31.56957-54.75C56.50071 98.55 43.4832 76.1622 43.09837 75.74934c-.91564-.98234-8.10416 11.85749-11.57626 20.67702C26.13944 110.09896 23.84063 121.42774 23.289 137c-.57284 16.1708.7901 26.81597 5.23471 40.88569L31.08701 186h75.85019zm16.34601-105.5811c17.09182-29.6071 30.78344-54.30456 30.4258-54.88322-.82199-1.33001-17.66293-.25682-28.63678 1.82488-23.14792 4.39108-45.77014 16.60778-63.22949 34.14589C53.82557 60.45323 50 64.69666 50 65.1863c0 .78793 24.54879 43.81417 33.74431 59.14307 1.92332 3.20615 3.86244 5.45615 4.30916 5 .44672-.45616 14.79644-25.05338 31.88827-54.66048zM251.906 82.25c-19.14751-31.81186-45.48596-51.61673-79.05724-59.44613-4.89961-1.14267-9.077-1.9035-9.28308-1.69073-.20609.21277-7.6526 12.98686-16.54782 28.38686-8.89521 15.4-17.28215 29.9125-18.63764 32.25L125.91569 86h128.24743zM366 245.45861c-6.84821-1.90914-15.40939-7.00098-18.42529-10.95861-6.35774-8.34298-9.17779-18.95619-8.31628-31.2982 1.19736-17.15347 9.58736-29.00053 23.90606-33.75644 7.21373-2.39601 21.71892-1.65432 27.63057 1.41284 10.43856 5.41588 16.78455 14.83411 17.87687 26.53148.91007 9.74569 1.19 9.60457-26.72933 13.47459C352.69035 214.91905 353 214.85755 353 216.6127c0 3.21703 5.25006 11.5559 8.97372 14.25331 5.57143 4.03591 11.62906 5.47184 20.83532 4.9389 6.30037-.36472 8.92463-1.05206 13.52042-3.54125 4.92328-2.66656 5.89651-2.89483 7.12109-1.67025 4.42757 4.42756 2.08817 9.35497-6.25491 13.17456-7.16385 3.27972-22.51185 4.1115-31.19564 1.69064zm9.70864-43.96128C385.72339 200.1238 394.38589 199 394.95864 199c1.91317 0 1.07097-5.17494-1.65831-10.18953-6.14342-11.28749-20.83978-13.99749-32.0135-5.90329-4.74194 3.43504-8.11213 9.82214-8.95995 16.98064l-.60616 5.11804 2.88964-.5056c1.5893-.27808 11.08353-1.6294 21.09828-3.00293zM690 245.45599c-15.5431-4.32988-25.68569-13.8021-31.09171-29.03672-2.93327-8.26619-3.70943-26.40054-1.52667-35.66929 4.43463-18.83095 17.07136-31.82849 34.77486-35.76774 8.10852-1.80425 23.80617-.81872 31.05202 1.94951C729.10317 149.18377 734 153.73696 734 156.96594c0 .99687-.82076 2.82609-1.82391 4.06493l-1.82392 2.25244-7.87422-3.89166c-7.50741-3.71036-8.31918-3.89051-17.42609-3.86722-11.3334.029-17.02193 2.11839-23.88605 8.77341-8.09832 7.85164-11.31083 17.02582-11.29364 32.25203.0191 16.88698 6.22057 29.08966 17.84064 35.105 11.23226 5.81457 25.63342 5.47584 37.56491-.88358l5.97092-3.18246 1.87568 2.31637c1.03162 1.274 1.87568 3.22588 1.87568 4.33751 0 3.0481-6.05394 8.13801-12.11333 10.18438-7.46797 2.52208-25.50128 3.08628-32.88667 1.0289zm64.80321.19507c-10.72563-3.00263-16.62749-9.62164-17.53863-19.66981-.97336-10.73443 3.93654-18.60122 14.01088-22.44865 2.46715-.94221 11.40196-2.46477 19.85513-3.38346L786.5 198.4788l.2735-3.9894c.16093-2.34734-.45648-5.42182-1.5-7.46947-4.84898-9.51495-17.89959-11.28964-34.30174-4.66451-5.63434 2.27581-5.97088 2.30303-7.50563.60715-.98748-1.09115-1.48333-3.06422-1.28646-5.11903.28475-2.9722.97405-3.67015 6.20644-6.2844 5.20863-2.60237 7.17485-2.99018 17.08319-3.36945 15.12759-.57904 21.24086 1.14077 27.67321 7.78511C799.37047 182.40803 800 185.85599 800 213.53344v22.43501l-2.75 3.02828c-4.42637 4.8743-12.78571 7.31632-26.25 7.66844-7.35252.19228-13.1939-.17346-16.19679-1.01411zM782.25 234.3296l4.75-1.49033v-11.91964c0-10.69724-.17947-11.91643-1.75-11.88844-6.7309.11997-25.76062 3.11728-28.72628 4.52458-6.28105 2.98055-8.28404 10.04498-4.57349 16.13041 2.41482 3.96039 4.99878 5.37682 11.47888 6.29229 6.2071.8769 12.53869.3222 18.82089-1.64887zM417 244c-1.91126-1.91126-2-3.33333-2-32.04966 0-34.1794-.0386-33.98743 7.67136-38.16028 8.6247-4.66793 15.36905-6.03831 27.69329-5.62698 12.16647.40607 17.73548 2.23907 23.18707 7.63188 6.10955 6.04368 6.40221 7.85837 6.42632 39.84805.0193 25.6652-.1668 29.21545-1.55983 29.75-3.14065 1.20518-7.45868.56652-9.41821-1.39301-1.89881-1.89881-2-3.33333-2-28.35212 0-25.70607-.0555-26.43542-2.2632-29.75-5.07759-7.62331-17.9993-9.66714-30.2368-4.78256l-6 2.39489-.26496 30.44513c-.19867 22.82805-.57396 30.64138-1.5 31.22958-2.35947 1.49865-7.70171.84841-9.73504-1.18492zm106.5 1.05464c-3.43909-1.40759-5.3193-4.3282-10.05128-15.61309-10.25816-24.46379-28.93546-78.84496-27.74243-80.77534.8805-1.42467 7.01845-3.66621 10.03909-3.66621 5.87805 0 6.49787 1.22613 17.8183 35.2479 12.99901 39.06647 16.40023 48.18819 17.54216 47.04626 1.36089-1.36089 17.22689-50.20171 21.48923-66.151 3.30612-12.37123 4.16167-14.48037 6.18595-15.25 4.01701-1.52727 8.80758-1.00461 11.70875 1.27745 2.59092 2.03802 2.72335 2.51622 2.16808 7.82882-.98255 9.40051-14.74475 49.86243-26.14221 76.86008-4.25077 10.06896-5.17368 11.51749-8.1235 12.75-3.6183 1.51183-11.69604 1.75327-14.89214.44513zm58.36078-.96564L579.5 242.17799l-.28021-44.71842c-.31941-50.97639-.7408-48.29944 8.02732-50.99563 6.85092-2.10666 28.37467-3.04425 36.25289-1.57922 19.43491 3.61412 29.53508 16.18328 28.23589 35.13816-.81267 11.85648-6.81916 21.34898-16.76238 26.49082-5.22977 2.70442-15.86697 4.45059-27.22351 4.46894L597 211v16.88337c0 16.66335-.0293 16.89122-2.25 17.48634-4.59622 1.23174-10.51152.64398-12.88922-1.28071zm36.05344-48.16402c6.08466-1.30493 10.74745-4.3074 13.89729-8.94878 2.05002-3.02076 2.31296-4.41943 2.00693-10.67547-.38842-7.94002-2.19016-11.43173-7.5052-14.5448-4.58551-2.68578-12.97018-3.93163-21.56324-3.204l-7.75.65623V197h7.95078c4.37293 0 10.20648-.48376 12.96344-1.07502zM814.75 244.9199c-1.63142-.95022-1.75-4.56867-1.75-53.4022 0-52.23207.006-52.38483 2.08694-53.04529 3.80479-1.2076 8.91697.40768 9.95826 3.14648.56048 1.47416.9548 23.29234.9548 52.82958v50.31827l-2.25.60297c-3.32177.8902-7.01637.70555-9-.44981z"/><path fill="#344147" d="M267.91241 273.39574c-1.14847-1.38279-1.46578-8.61361-1.69803-38.69408l-.28562-36.99349-5.08987 8.89592c-19.37196 33.85771-50.85869 56.86062-89.14723 65.12729C165.56585 273.05397 158.96059 273.5 145.5 273.5c-21.25291 0-31.16704-1.70746-48.7149-8.38993-2.67003-1.01679-2.69068-1.0918-1.25-4.53985 2.01113-4.81328 1.99842-4.84446-2.78885-6.84215-2.33544-.97455-5.37125-2.68527-6.74625-3.8016-1.53523-1.24641.28517-.66061 4.71722 1.51799 8.54109 4.19842 19.50358 7.99103 28.95856 10.01858 6.48898 1.39151 6.88997 1.36944 8.16268-.44934.73615-1.05202 9.34661-15.77297 19.13436-32.71323L164.76873 197.5l-24.93347-.63244c-13.71341-.34784-25.21137-.91034-25.55103-1.25-.33966-.33966 2.10568-.61756 5.43409-.61756 5.32859 0 6.24463-.29451 7.66667-2.46482 2.48198-3.78797 2.02191-4.40671-3.51922-4.73292-4.24099-.24967-5.39319-.7372-6.62276-2.80226l-1.48854-2.5 1.89016 2.26735c1.88664 2.26314 1.93844 2.26686 27.86201 2L171.4785 186.5l12.74545-22c7.00999-12.1 12.7315-22.45 12.71447-23-.017-.55-5.76944-10.9-12.78311-23l-12.75213-22-11.45159-.5788L148.5 95.34238l11.83877-.0526 11.83876-.05258 1.91124-3.14277C175.13994 90.3659 176 88.75506 176 88.51476c0-.24029-3.9375-.58688-8.75-.7702-4.8125-.1833 5.91595-.42583 23.84101-.53893 17.92505-.1131 39.38832-.49984 47.69614-.85943l15.10514-.6538-1.59331-3.0962C242.63535 63.81743 221.98133 43.62456 201 32.44257c-4.675-2.49154-7.375-4.23853-6-3.8822 1.375.35634 3.52592 1.2952 4.77982 2.08635 2.17969 1.37528 2.35981 1.2598 4.10094-2.62912l1.82111-4.0676 5.89907 3.09185C229.3766 36.3585 248.77477 55.85417 260.81174 76.5c14.75565 25.30893 20.59988 60.68274 14.83339 89.78317-.93118 4.69919-1.00634 6.63744-.24464 6.30884 8.10426-3.49617 15.38762-4.8233 23.99861-4.37289 20.08603 1.05063 31.70973 11.44546 34.76354 31.08829 1.38514 8.90961.10997 20.55789-3.06015 27.95348-7.35279 17.15337-29.56378 24.31056-50.3266 16.21707-1.58116-.61635-1.74699.6419-2 15.17498L278.5 274.5l-4.58759.29816c-3.36348.2186-4.96446-.15561-6-1.40242zm-103.31536-10.87925c24.40077-3.9576 46.45266-15.14546 65.40878-33.18467 4.89744-4.66055 9.18301-9.35145 9.5235-10.42422.44172-1.39175-4.63011-11.11032-17.70514-33.92633-10.0783-17.58672-18.58024-31.97707-18.89319-31.97856-.61992-.00295-63.931 109.26803-63.931 110.34092 0 1.19918 16.36388.67041 25.59705-.82714zM307.5 234.54059c4.88347-2.01445 9.66795-6.66604 11.78941-11.46194 2.86621-6.47955 3.47392-19.92989 1.24854-27.63382-2.3231-8.04224-8.93024-14.61977-16.51282-16.4388-6.4555-1.54865-14.37593-.82914-20.45006 1.85774L279 182.88754V231.69625l4.01922 1.81242c7.86401 3.54617 17.4102 3.94857 24.48078 1.03192zm-53.93442-37.67116c13.81669-27.51069 16.98623-56.654 9.37981-86.24563-1.1135-4.33191-2.6933-9.16941-3.51065-10.75L257.94864 97h-37.08131c-34.7176 0-37.03906.1101-36.41855 1.72713.36452.94991 13.18133 23.11241 28.48181 49.25 15.30047 26.13758 29.26833 50.11038 31.03969 53.27289 1.77136 3.1625 3.64049 5.49054 4.15362 5.17341.51312-.31713 2.96188-4.61643 5.44168-9.554zm115.61071 49.12706c-6.50932-1.38109-14.42626-5.32409-19.01652-9.47111-13.75981-12.43117-14.61278-42.0424-1.65251-57.36832 9.56334-11.30895 29.39176-14.59212 43.31364-7.17184 9.36699 4.99256 14.20403 11.88252 16.2263 23.11307 1.42687 7.92396.35082 11.45985-3.73723 12.28062-1.54548.31029-12.93497 1.95073-25.30997 3.64543-29.46171 4.03464-27.02544 3.40015-26.05453 6.78551 3.91892 13.66449 17.40113 21.01798 33.28629 18.15508 3.44753-.62133 8.39379-2.28264 10.99169-3.69179C402.6944 229.30558 405 230.16451 405 235.17019c0 3.72432-3.62706 7.16435-9.82052 9.31414-5.61784 1.94999-19.99815 2.78624-26.00319 1.51216zM374.5 202c11.87771-1.65 21.78802-3 22.02292-3 .84215 0-.84579-6.568-2.56996-10-7.72359-15.37403-31.00374-14.58176-39.12202 1.33139C352.69232 194.52343 350.75574 205 352.11946 205c.43159 0 10.50283-1.35 22.38054-3zm319 43.98341c-22.54076-4.49384-35.7621-21.20265-37.17702-46.98341-1.52882-27.85588 12.64371-48.78649 36.47624-53.86973 15.37141-3.27856 35.84744 1.41818 39.83968 9.13834 1.45415 2.81201 1.24865 3.84044-1.38054 6.90907-1.32932 1.5515-1.96694 1.40108-8.478-2-6.82307-3.56406-7.36866-3.67768-17.66047-3.67768-9.5887 0-11.16953.26992-16.28043 2.77978-10.65192 5.23095-16.94417 15.04383-19.00904 29.64493-2.18422 15.44514 2.17561 31.13906 10.87934 39.16188C688.14293 233.93825 692.74466 235.5 705.5 235.5c10.6631 0 11.22229-.11172 18.25791-3.64768l7.2579-3.64767 2.00961 2.5548c3.40526 4.32908 1.42476 7.9384-6.37778 11.62309-8.84896 4.17884-22.70086 5.68359-33.14764 3.60087zm63.84375-.0248c-14.89301-2.9465-22.97659-14.91274-19.22469-28.45861 2.0592-7.43455 6.97385-11.84718 16.35247-14.68211 2.72007-.82222 26.43568-3.74868 30.77847-3.79801 1.41848-.0161 1.74971-.91971 1.74845-4.76988-.002-6.0993-2.57738-11.14668-6.99845-13.71598-5.42075-3.15026-18.16883-2.73318-27.93151.91384-7.17744 2.68125-7.47804 2.71254-8.79239.91506-2.17379-2.97284-1.13858-6.55485 2.62494-9.08275 5.41277-3.63567 10.79376-4.74531 23.09896-4.76333 9.91488-.0145 12.20743.30329 16.63243 2.30573 6.07712 2.75006 9.62518 6.20546 11.99058 11.67743 1.41954 3.28387 1.80254 8.02824 2.13929 26.5.48333 26.51228-.0285 29.18412-6.2623 32.69041-8.11578 4.56485-24.7384 6.52711-36.15625 4.26817zM782.75 234.48554l4.25-1.7027V209h-2.53941c-6.37556 0-22.36941 2.19985-26.19984 3.60361C752.63852 214.66403 750 218.14439 750 223.5c0 6.3153 3.94739 10.65222 11.5 12.63481 4.54467 1.193 16.46483.26784 21.25-1.64927zm-363.96834 10.38611c-1.93122-.72267-2.89009-1.9372-3.31149-4.19443-.32624-1.74747-.45298-16.06828-.28166-31.82403.35325-32.48701-.0641-30.85048 9.04469-35.46961 10.01154-5.07694 24.16296-6.77874 35.73385-4.29723 6.90524 1.48091 13.94582 6.40921 17.01985 11.91365 2.50384 4.48342 2.51422 4.6091 2.81712 34.1142l.30401 29.61419-3.17114.63423c-1.82898.3658-4.2855.10091-5.80402-.62585L468.5 243.47669l-.5-27.03503c-.53872-29.12864-.68279-29.9046-6.42432-34.60136-5.49279-4.49328-17.25484-4.86024-27.82568-.86812L428 183.1437v30.92815c0 24.06857-.27724 30.93118-1.25 30.9418-.6875.008-2.15.20751-3.25.44443-1.1.23693-3.22325-.027-4.71834-.58643zm105.43025-.0003c-4.26142-1.22898-5.8796-3.97912-13.16325-22.37135-13.23552-33.42147-25.87048-71.36125-24.5024-73.57486 1.23284-1.99477 7.5469-4.06359 10.45364-3.42516 1.53599.33736 3.51985 1.41685 4.40856 2.39887.88872.98202 6.73715 17.04402 12.99651 35.69332 13.71944 40.8761 15.56549 45.84035 16.64154 44.75109 1.33835-1.35479 16.39286-47.41878 21.02848-64.34326 2.335-8.525 4.63939-16.01543 5.12086-16.64539 1.54329-2.01926 7.46338-2.52383 11.21588-.95594 4.62068 1.93065 5.24643 4.77802 3.04369 13.84994-3.96579 16.33297-24.45037 72.39367-29.39279 80.44002-2.8868 4.69977-10.15369 6.40252-17.85072 4.18272zm59.81632.0154c-1.35947-.54254-2.81508-1.52651-3.23469-2.18661-.4196-.66011-.76981-21.73259-.77823-46.82775-.0118-35.30236.26756-45.86016 1.23469-46.65547 3.45772-2.84342 13.53884-4.55892 27.25-4.63712 17.74609-.10122 25.58443 1.99328 33.24921 8.88458 6.90494 6.20813 9.61706 12.66009 9.68313 23.03557.15029 23.59859-14.17209 34.40886-45.68234 34.48019L597 211v33.73832l-3.75.61983c-4.83512.7992-6.21476.72868-9.22177-.47135zm36.7463-49.41248c10.49422-3.11645 15.58074-11.64404 13.36893-22.41309-1.42498-6.938-5.68398-11.55033-12.54769-13.58863-5.15635-1.53127-14.38302-1.89898-20.84577-.83075l-3.75.61988V197h9.3185c5.44125 0 11.45613-.63481 14.45603-1.52568zM816 244.73295l-2.5-1.29172-.25892-52.22061L812.98216 139l2.75892-.11515c4.27225-.17832 6.64553.21733 8.00892 1.33517.97077.79593 1.25 12.61364 1.25 52.90242 0 40.8281-.26624 51.88047-1.25 51.89121-.6875.008-2.15.23807-3.25.51234s-3.125-.0826-4.5-.79304zm-714.75-57.42228c.9625-.25152 2.5375-.25152 3.5 0 .9625.25153.175.45733-1.75.45733s-2.7125-.2058-1.75-.45733zM105 182c-.5887-1.1-.84537-2-.57037-2 .275 0 .98167.9 1.57037 2s.84537 2 .57037 2c-.275 0-.98167-.9-1.57037-2zm8-4c-.5887-1.1-.84537-2-.57037-2 .275 0 .98167.9 1.57037 2s.84537 2 .57037 2c-.275 0-.98167-.9-1.57037-2zm-12-3c-.5887-1.1-.84537-2-.57037-2 .275 0 .98167.9 1.57037 2s.84537 2 .57037 2c-.275 0-.98167-.9-1.57037-2z"/></svg>