<svg xmlns="http://www.w3.org/2000/svg" role="img" viewBox="-4.84 -4.84 251.42 86.42"><title>Open RV logo</title><path d="M125.7768 28.6934v5.6514c0 5.8672-3.4199 10.2227-10.3672 10.2227-6.875 0-10.3301-4.3555-10.3301-10.2227v-5.6514c0-5.9395 3.4189-10.2588 10.3301-10.2588 6.9473 0 10.3672 4.3193 10.3672 10.2588zm-16.1621-.0361v5.7598c0 3.959 1.8359 6.6592 5.7949 6.6592s5.7959-2.7002 5.7959-6.6592v-5.7598c0-4.0674-1.8721-6.7305-5.7959-6.7305s-5.7949 2.6631-5.7949 6.7305zm37.2696 4.8594v1.9082c0 5.3633-3.3838 9.1426-7.8115 9.1426-1.7275 0-3.167-.54-4.4277-1.5479v8.2793h-4.4629V24.9503h3.8154l.252 1.8359c1.2959-1.4766 3.0957-2.3398 5.3994-2.3398 4.2471 0 7.2354 3.5635 7.2354 9.0703zm-4.4639-.1436c0-3.708-1.4033-5.543-3.7793-5.543-1.6201 0-3.0234.7559-3.9961 2.0156v10.0068c1.0801.8994 2.2324 1.3672 3.6357 1.3672 2.5557 0 4.1396-1.9072 4.1396-5.6514V33.373zm23.8535 2.5557h-12.3467c.0723 3.6719 1.7637 5.291 5.0762 5.291 2.0869 0 3.6348-.7559 5.1113-1.584l1.583 2.6641c-1.6191 1.2236-4.2109 2.2676-6.9824 2.2676-5.832 0-9.1436-3.8516-9.1436-9.0352v-1.9795c0-5.1836 3.2402-9.1064 8.5674-9.1064 5.2197 0 8.2793 3.2393 8.2793 9.3223 0 .792-.0723 1.584-.1445 2.1602zm-3.8516-3.0957c0-3.3115-1.4756-5.1113-4.2471-5.1113-2.7363 0-4.1758 1.7998-4.248 5.291h8.4951v-.1797zm23.543-1.9795v13.2461h-4.4629V31.213c0-2.4111-1.1523-3.3828-2.9883-3.3828-1.7275 0-3.0596.8994-4.1396 2.4111v13.8584h-4.4629V24.9503h3.8154l.2881 1.9795c1.332-1.584 3.1318-2.4834 5.6875-2.4834 3.5635 0 6.2627 2.2676 6.2627 6.4072zm23.1133 3.2754h-3.7793v9.9707h-4.5361V18.9024h8.4951c5.291 0 8.8193 2.5205 8.8193 6.6592v1.8721c0 2.8076-1.7646 4.8232-4.5723 5.9033l5.7959 10.7627h-4.9678l-5.2549-9.9707zm-3.7793-3.3838h3.8154c2.6992 0 4.3906-1.2236 4.3906-3.4189v-1.5479c0-2.2686-1.7275-3.4561-4.4268-3.4561h-3.7793v8.4229zm15.0879-11.8428h4.7148l6.3359 21.4541 5.9033-21.4541h4.6436l-7.4873 25.1973h-6.1914l-7.9189-25.1973z"/><path fill="#3d3d3d" d="M13.6407.0379l.02-.0339L77.79 14.1757h6.6615v62.8281H11.998c-2.513 0-4.5502-2.0372-4.5502-4.5502v-6.1561L13.6407.0379z"/><path fill="#fff" d="M0 71.228l13.651-8.225V0L0 8.225v63.003z"/><path d="M13.6507 1.1946v60.641L1 69.4584V8.7903l12.6507-7.5957z"/><path fill="#fff" d="M78.2487 63.0031h-64.598V.0379L13.6706 0h60.0279c2.513 0 4.5502 2.0372 4.5502 4.5502V63.003z"/><path d="M73.6984 1c1.9576 0 3.5503 1.5926 3.5503 3.5502v57.4529h-62.598V1h59.0477"/><path d="M36.862 3.001h18.175v51.058H36.862zm36.8906-.0004H56.4122v51.0582h17.3404c.8262 0 1.496-.6235 1.496-1.3925V4.3932c0-.7691-.6698-1.3926-1.496-1.3926zm-38.2655 0H18.1468c-.8262 0-1.496.6235-1.496 1.3926v48.2731c0 .769.6698 1.3925 1.496 1.3925h17.3403V3.0006z" fill="#36a4cb"/><rect width="7.512" height="7.512" x="19.001" y="29.196" rx="1.417" ry="1.417"/><rect width="7.512" height="7.512" x="40.647" y="20.436" rx="1.417" ry="1.417"/><rect width="7.512" height="7.512" x="62.075" y="26.174" rx="1.417" ry="1.417"/><path fill="#52c7e8" d="M10.994 4.7913l-7.9878 4.796c-.4691.2817-.7561.7887-.7561 1.3359V58.746c0 .5931.6476.959 1.1556.6529l7.9889-4.8138c.4679-.2819.754-.7883.754-1.3346V5.4447c0-.5926-.6465-.9585-1.1546-.6535z"/><path fill="#52ad72" d="M10.994 56.8329l-7.9878 4.796c-.4691.2817-.7561.7887-.7561 1.3359v2.3895c0 .5931.6476.959 1.1556.6529l7.9889-4.8138c.4679-.2819.754-.7883.754-1.3346v-2.3724c0-.5926-.6465-.9585-1.1546-.6535z"/><path d="M4.8396 48.4858l3.4401-2.0729c.6389-.385 1.0295-1.0764 1.0295-1.8223v-4.4459c0-.8154-.8903-1.3184-1.5887-.8975l-3.4401 2.0729c-.6389.385-1.0295 1.0764-1.0295 1.8223v4.4459c0 .8154.8903 1.3184 1.5887.8975z"/><path fill="#e41a52" d="M65.8304 40.1986c-5.6621 0-10.2686-4.6064-10.2686-10.2686s4.6064-10.269 10.2686-10.269S76.099 24.2679 76.099 29.93s-4.6064 10.2686-10.2686 10.2686zm0-17.8003c-4.1533 0-7.5322 3.3784-7.5322 7.5317s3.3789 7.5312 7.5322 7.5312 7.5322-3.3784 7.5322-7.5312-3.3789-7.5317-7.5322-7.5317zm-8.389 33.6621h16.778c.568 0 1.0292.4612 1.0292 1.0292v1.8848c0 .5674-.4607 1.0281-1.0281 1.0281H57.4414c-.568 0-1.0292-.4612-1.0292-1.0292v-1.8837c0-.568.4612-1.0292 1.0292-1.0292z"/><path fill="#008c4a" d="M37.8731 56.0604h16.1531c.558 0 1.011.453 1.011 1.011v1.9213c0 .5574-.4525 1.0098-1.0098 1.0098H37.8732c-.558 0-1.011-.453-1.011-1.011v-1.9201c0-.558.453-1.011 1.011-1.011zm-20.1931 0h16.778c.568 0 1.0292.4612 1.0292 1.0292v1.8848c0 .5674-.4607 1.0281-1.0281 1.0281H17.68c-.568 0-1.0292-.4612-1.0292-1.0292v-1.8837c0-.568.4612-1.0292 1.0292-1.0292z"/></svg>