<svg xmlns="http://www.w3.org/2000/svg" role="img" viewBox="36.35 86.85 527.80 461.80"><title>OpenPype logo</title><style>svg {fill-rule:evenodd;clip-rule:evenodd;stroke-linejoin:round;stroke-miterlimit:2}</style><path fill="none" d="M0.586 0.899H600.586V600.899H0.586z"/><g fill-rule="nonzero"><g><path d="M73.99 513.643C68.857 513.643 64.24 512.493 60.14 510.193 56.04 507.893 52.807 504.627 50.44 500.393 48.074 496.16 46.89 491.21 46.89 485.543 46.89 479.877 48.09 474.927 50.49 470.693 52.89 466.46 56.157 463.193 60.29 460.893 64.424 458.593 69.057 457.443 74.19 457.443 79.324 457.443 83.974 458.593 88.14 460.893 92.307 463.193 95.574 466.46 97.94 470.693 100.307 474.927 101.49 479.877 101.49 485.543 101.49 491.143 100.29 496.077 97.89 500.343 95.49 504.61 92.19 507.893 87.99 510.193 83.79 512.493 79.124 513.643 73.99 513.643zM73.99 507.543C77.59 507.543 80.924 506.727 83.99 505.093 87.057 503.46 89.54 500.993 91.44 497.693 93.34 494.393 94.29 490.343 94.29 485.543 94.29 480.743 93.357 476.693 91.49 473.393 89.624 470.093 87.157 467.627 84.09 465.993 81.024 464.36 77.69 463.543 74.09 463.543 70.49 463.543 67.157 464.36 64.09 465.993 61.024 467.627 58.574 470.093 56.74 473.393 54.907 476.693 53.99 480.743 53.99 485.543 53.99 490.343 54.907 494.393 56.74 497.693 58.574 500.993 61.007 503.46 64.04 505.093 67.074 506.727 70.39 507.543 73.99 507.543zM121.189 470.243C122.923 466.577 125.673 463.527 129.439 461.093 133.206 458.66 137.689 457.443 142.889 457.443 147.823 457.443 152.273 458.593 156.239 460.893 160.206 463.193 163.306 466.46 165.539 470.693 167.773 474.927 168.889 479.843 168.889 485.443 168.889 491.043 167.773 495.977 165.539 500.243 163.306 504.51 160.206 507.81 156.239 510.143 152.273 512.477 147.823 513.643 142.889 513.643 137.756 513.643 133.289 512.427 129.489 509.993 125.689 507.56 122.923 504.51 121.189 500.843L121.189 538.643 114.289 538.643 114.289 458.243 121.189 458.243 121.189 470.243zM161.789 485.443C161.789 480.91 160.906 476.993 159.139 473.693 157.373 470.393 154.956 467.877 151.889 466.143 148.823 464.41 145.356 463.543 141.489 463.543 137.756 463.543 134.339 464.443 131.239 466.243 128.139 468.043 125.689 470.61 123.889 473.943 122.089 477.277 121.189 481.143 121.189 485.543 121.189 489.943 122.089 493.81 123.889 497.143 125.689 500.477 128.139 503.043 131.239 504.843 134.339 506.643 137.756 507.543 141.489 507.543 145.356 507.543 148.823 506.66 151.889 504.893 154.956 503.127 157.373 500.56 159.139 497.193 160.906 493.827 161.789 489.91 161.789 485.443zM231.188 482.743C231.188 485.143 231.121 486.977 230.988 488.243L185.688 488.243C185.888 492.377 186.888 495.91 188.688 498.843 190.488 501.777 192.855 503.993 195.788 505.493 198.721 506.993 201.921 507.743 205.388 507.743 209.921 507.743 213.738 506.643 216.838 504.443 219.938 502.243 221.988 499.277 222.988 495.543L230.388 495.543C229.055 500.877 226.205 505.227 221.838 508.593 217.471 511.96 211.988 513.643 205.388 513.643 200.255 513.643 195.655 512.493 191.588 510.193 187.521 507.893 184.338 504.627 182.038 500.393 179.738 496.16 178.588 491.21 178.588 485.543 178.588 479.877 179.721 474.91 181.988 470.643 184.255 466.377 187.421 463.11 191.488 460.843 195.555 458.577 200.188 457.443 205.388 457.443 210.588 457.443 215.138 458.577 219.038 460.843 222.938 463.11 225.938 466.16 228.038 469.993 230.138 473.827 231.188 478.077 231.188 482.743zM224.088 482.543C224.155 478.477 223.338 475.01 221.638 472.143 219.938 469.277 217.621 467.11 214.688 465.643 211.755 464.177 208.555 463.443 205.088 463.443 199.888 463.443 195.455 465.11 191.788 468.443 188.121 471.777 186.088 476.477 185.688 482.543L224.088 482.543zM269.587 457.243C276.12 457.243 281.453 459.26 285.587 463.293 289.72 467.327 291.787 473.177 291.787 480.843L291.787 512.843 284.887 512.843 284.887 481.643C284.887 475.71 283.403 471.177 280.437 468.043 277.47 464.91 273.42 463.343 268.287 463.343 263.02 463.343 258.82 465.01 255.687 468.343 252.553 471.677 250.987 476.577 250.987 483.043L250.987 512.843 243.987 512.843 243.987 458.243 250.987 458.243 250.987 467.543C252.72 464.21 255.22 461.66 258.487 459.893 261.753 458.127 265.453 457.243 269.587 457.243z"/></g><g><path fill="url(#_Linear1)" d="M362.185,466.343C362.185,470.81 361.152,474.86 359.085,478.493C357.019,482.127 353.969,485.01 349.935,487.143C345.902,489.277 341.019,490.343 335.285,490.343L326.485,490.343L326.485,507.843C326.485,509.169 325.959,510.441 325.021,511.379C324.083,512.316 322.812,512.843 321.485,512.843C317.843,512.843 312.928,512.843 309.285,512.843C306.524,512.843 304.286,510.605 304.285,507.843C304.285,494.836 304.285,460.051 304.285,447.043C304.286,444.282 306.524,442.043 309.286,442.043C318.055,442.043 335.285,442.043 335.285,442.043C343.952,442.043 350.602,444.243 355.235,448.643C359.869,453.043 362.185,458.943 362.185,466.343ZM332.785,472.843C337.385,472.843 339.685,470.677 339.685,466.343C339.685,462.01 337.385,459.843 332.785,459.843L326.485,459.843L326.485,472.843L332.785,472.843Z"/><path fill="url(#_Linear2)" d="M428.984,442.043C430.727,442.043 432.345,442.952 433.253,444.44C434.16,445.929 434.227,447.783 433.428,449.333C426.36,463.053 411.784,491.343 411.784,491.343L411.784,507.843C411.784,510.605 409.546,512.843 406.784,512.843C403.141,512.843 398.227,512.843 394.584,512.843C391.823,512.843 389.584,510.605 389.584,507.843C389.584,501.491 389.584,491.343 389.584,491.343C389.584,491.343 375.009,463.053 367.94,449.333C367.142,447.783 367.208,445.929 368.116,444.44C369.024,442.952 370.641,442.043 372.385,442.043C377.137,442.043 382.853,442.043 386.352,442.043C388.319,442.043 390.104,443.197 390.911,444.991C393.897,451.622 400.884,467.143 400.884,467.143C400.884,467.143 407.872,451.622 410.857,444.991C411.665,443.197 413.449,442.043 415.417,442.043L428.984,442.043Z"/><path fill="url(#_Linear3)" d="M500.083,466.343C500.083,470.81 499.05,474.86 496.983,478.493C494.916,482.127 491.866,485.01 487.833,487.143C483.8,489.277 478.916,490.343 473.183,490.343L464.383,490.343L464.383,507.843C464.383,509.169 463.856,510.441 462.919,511.379C461.981,512.316 460.709,512.843 459.383,512.843C455.74,512.843 450.826,512.843 447.183,512.843C444.422,512.843 442.183,510.605 442.183,507.843C442.183,494.836 442.183,460.051 442.183,447.043C442.183,444.282 444.422,442.043 447.183,442.043C455.952,442.043 473.183,442.043 473.183,442.043C481.85,442.043 488.5,444.243 493.133,448.643C497.766,453.043 500.083,458.943 500.083,466.343ZM470.683,472.843C475.283,472.843 477.583,470.677 477.583,466.343C477.583,462.01 475.283,459.843 470.683,459.843L464.383,459.843L464.383,472.843L470.683,472.843Z"/><path fill="url(#_Linear4)" d="M529.282,459.743L529.282,468.443L551.282,468.443L551.282,485.143L529.282,485.143L529.282,495.143L549.282,495.143C550.608,495.143 551.88,495.67 552.817,496.608C553.755,497.545 554.282,498.817 554.282,500.143C554.282,502.552 554.282,505.434 554.282,507.843C554.282,509.169 553.755,510.441 552.817,511.379C551.88,512.316 550.608,512.843 549.282,512.843C540.212,512.843 521.151,512.843 512.082,512.843C509.32,512.843 507.082,510.605 507.082,507.843C507.082,494.836 507.082,460.051 507.082,447.043C507.082,444.282 509.32,442.043 512.082,442.043C521.151,442.043 540.212,442.043 549.282,442.043C550.608,442.043 551.88,442.57 552.817,443.508C553.755,444.445 554.282,445.717 554.282,447.043C554.282,449.452 554.282,452.334 554.282,454.743C554.282,456.069 553.755,457.341 552.817,458.279C551.88,459.216 550.608,459.743 549.282,459.743C541.986,459.743 529.282,459.743 529.282,459.743Z"/></g></g><g><path fill="url(#_Linear5)" d="M443.446,183.817C455.039,206.042 461.597,231.315 461.597,258.107C461.597,346.972 389.45,419.118 300.586,419.118C211.722,419.118 139.575,346.972 139.575,258.107C139.575,169.243 211.722,97.096 300.586,97.096C309.677,97.096 318.593,97.851 327.285,99.304C250.277,100.076 186.994,142.641 169.467,203.764C165.477,217.676 135.464,313.4 192.982,367.148C231.736,403.362 299.313,415.95 362.098,382.635C375.605,375.467 417.237,361.908 439.433,316.324C456.25,281.788 462.011,238.93 444.1,185.492C443.914,184.937 443.679,184.384 443.446,183.817Z"/><g><g><path fill="url(#_Linear6)" fill-rule="nonzero" d="M272.237,362.594C277.543,362.594 282.632,360.462 286.384,356.667C290.136,352.872 292.244,347.724 292.244,342.357C292.244,323.94 292.244,299.608 292.244,299.608L328.529,299.608C344.32,299.608 362.899,297.729 379.31,282.699C396.03,267.356 399.746,247.629 399.746,230.376C399.746,213.75 395.721,192.451 378.69,175.541C370.021,167.086 351.132,153.62 318.297,153.62L239.175,153.62C228.125,153.621 219.168,162.681 219.168,173.857C219.168,213.81 219.168,302.405 219.168,342.357C219.168,347.724 221.276,352.872 225.028,356.667C228.78,360.462 233.869,362.594 239.175,362.594C249.458,362.594 261.954,362.594 272.237,362.594ZM292.244,210.927L305.89,210.927C311.473,210.927 317.676,212.809 321.088,215.632C323.879,217.828 326.671,221.906 326.671,228.494C326.671,234.768 324.5,238.846 321.708,241.356C316.436,246.689 308.682,247.002 304.96,247.002L292.244,247.002L292.244,210.927Z"/><path fill="url(#_Linear7)" d="M292.244,153.62L318.297,153.62C351.132,153.62 370.021,167.086 378.69,175.541C395.721,192.451 399.746,213.75 399.746,230.376C399.746,247.629 396.03,267.356 379.31,282.699C362.899,297.729 344.32,299.608 328.529,299.608L292.244,299.608L292.244,247.002L304.96,247.002C308.682,247.002 316.436,246.689 321.708,241.356C324.5,238.846 326.671,234.768 326.671,228.494C326.671,221.906 323.879,217.828 321.088,215.632C317.676,212.809 311.473,210.927 305.89,210.927L292.244,210.927L292.244,153.62Z"/><path fill="url(#_Linear8)" d="M292.244,153.62L318.297,153.62C351.132,153.62 370.021,167.086 378.69,175.541C395.721,192.451 399.746,213.75 399.746,230.376C399.746,247.629 396.03,267.356 379.31,282.699C362.899,297.729 344.32,299.608 328.529,299.608L292.244,299.608L292.244,247.002L304.96,247.002C308.682,247.002 316.436,246.689 321.708,241.356C324.5,238.846 326.671,234.768 326.671,228.494C326.671,221.906 323.879,217.828 321.088,215.632C317.676,212.809 311.473,210.927 305.89,210.927L292.244,210.927L292.244,153.62Z"/><path fill="url(#_Radial9)" fill-rule="nonzero" d="M442.011,198.321C442.011,181.607 428.441,168.038 411.728,168.038L267.936,168.038C251.222,168.038 237.653,181.607 237.653,198.321L237.653,342.113C237.653,358.826 251.222,372.396 267.936,372.396L411.728,372.396C428.441,372.396 442.011,358.826 442.011,342.113L442.011,198.321ZM292.244,210.927L305.89,210.927C311.473,210.927 317.676,212.809 321.088,215.632C323.879,217.828 326.671,221.906 326.671,228.494C326.671,234.768 324.5,238.846 321.708,241.356C316.436,246.689 308.682,247.002 304.96,247.002L292.244,247.002L292.244,210.927Z"/><path fill="url(#_Linear10)" d="M292.244 247.002H328.954V299.608H292.244z"/></g><ellipse cx="356.377" cy="338.876" fill="url(#_Radial11)" rx="23.448" ry="23.718"/></g></g><defs><linearGradient id="_Linear1" x1="0" x2="1" y1="0" y2="0" gradientTransform="matrix(253.395 -68.3745 19.364 71.7625 303.878 511.63)" gradientUnits="userSpaceOnUse"><stop offset="0" stop-color="#3bebb9"/><stop offset=".47" stop-color="#4dbad0"/><stop offset="1" stop-color="#52abd7"/></linearGradient><linearGradient id="_Linear2" x1="0" x2="1" y1="0" y2="0" gradientTransform="matrix(253.395 -68.3745 19.364 71.7625 303.878 511.63)" gradientUnits="userSpaceOnUse"><stop offset="0" stop-color="#3bebb9"/><stop offset=".47" stop-color="#4dbad0"/><stop offset="1" stop-color="#52abd7"/></linearGradient><linearGradient id="_Linear3" x1="0" x2="1" y1="0" y2="0" gradientTransform="matrix(253.395 -68.3745 19.364 71.7625 303.878 511.63)" gradientUnits="userSpaceOnUse"><stop offset="0" stop-color="#3bebb9"/><stop offset=".47" stop-color="#4dbad0"/><stop offset="1" stop-color="#52abd7"/></linearGradient><linearGradient id="_Linear4" x1="0" x2="1" y1="0" y2="0" gradientTransform="matrix(253.395 -68.3745 19.364 71.7625 303.878 511.63)" gradientUnits="userSpaceOnUse"><stop offset="0" stop-color="#3bebb9"/><stop offset=".47" stop-color="#4dbad0"/><stop offset="1" stop-color="#52abd7"/></linearGradient><linearGradient id="_Linear5" x1="0" x2="1" y1="0" y2="0" gradientTransform="rotate(-31.811 767.91 -111.894) scale(349.156)" gradientUnits="userSpaceOnUse"><stop offset="0" stop-color="#3bebb9"/><stop offset=".23" stop-color="#4dbbd0"/><stop offset=".49" stop-color="#52add7"/><stop offset="1" stop-color="#3bebb9"/></linearGradient><linearGradient id="_Linear6" x1="0" x2="1" y1="0" y2="0" gradientTransform="matrix(64.5875 -208.973 241.833 74.7436 227.656 362.594)" gradientUnits="userSpaceOnUse"><stop offset="0" stop-color="#3bebb9"/><stop offset=".47" stop-color="#4dbad0"/><stop offset="1" stop-color="#52abd7"/></linearGradient><linearGradient id="_Linear7" x1="0" x2="1" y1="0" y2="0" gradientTransform="matrix(-62.4507 0 0 -84.8074 398.198 218.857)" gradientUnits="userSpaceOnUse"><stop offset="0" stop-color="#3bebb9"/><stop offset=".47" stop-color="#4dbad0"/><stop offset="1" stop-color="#52abd7"/></linearGradient><linearGradient id="_Linear8" x1="0" x2="1" y1="0" y2="0" gradientTransform="matrix(-62.4507 0 0 -84.8074 398.198 218.857)" gradientUnits="userSpaceOnUse"><stop offset="0" stop-color="#3bebb9"/><stop offset=".47" stop-color="#4dbad0"/><stop offset="1" stop-color="#52abd7"/></linearGradient><linearGradient id="_Linear10" x1="0" x2="1" y1="0" y2="-.011" gradientTransform="matrix(-27.3165 5.38096 -9.12446 -42.334 319.56 272.949)" gradientUnits="userSpaceOnUse"><stop offset="0" stop-color="#fff" stop-opacity="0"/><stop offset="1" stop-opacity=".19"/></linearGradient><radialGradient id="_Radial9" cx="0" cy="0" r="1" gradientTransform="matrix(0 169.882 -94.9928 0 254.96 168.183)" gradientUnits="userSpaceOnUse"><stop offset="0" stop-color="#4a4d7e" stop-opacity=".38"/><stop offset="1" stop-color="#4d4d4d" stop-opacity="0"/></radialGradient><radialGradient id="_Radial11" cx="0" cy="0" r="1" gradientTransform="rotate(180 197.97 169.438) scale(50.4788)" gradientUnits="userSpaceOnUse"><stop offset="0" stop-color="#3bebb9"/><stop offset="1" stop-color="#52acd7"/></radialGradient></defs></svg>