<svg xmlns="http://www.w3.org/2000/svg" role="img" viewBox="-9.39 -9.39 488.28 473.28"><title>OpenFX logo</title><path d="M21.412 280.216l-2.168-6.353a6.178 6.178 0 0 1 .713-.355 9.238 9.238 0 0 1 1.544-.531 7.626 7.626 0 0 1 .767-.15l5.52 16.179a6.814 6.814 0 0 1-.677.346 7.533 7.533 0 0 1-.736.288 8.92 8.92 0 0 1-.81.238 7.915 7.915 0 0 1-.799.163l-2.17-6.356-21.411 7.306a14.06 14.06 0 0 1-.684-1.662A15.832 15.832 0 0 1 0 287.527zm8.451 14.042c.165.24.324.497.477.772a11.738 11.738 0 0 1 1.072 2.548l-9.636 4.49 4.643 9.962 9.635-4.492c.153.222.31.465.46.737.154.273.296.55.428.829q.196.426.369.88c.114.301.213.594.288.874l-23.401 10.907q-.23-.326-.463-.735a12.73 12.73 0 0 1-.81-1.742 7.942 7.942 0 0 1-.275-.843l10.839-5.05-4.643-9.96-10.84 5.053c-.162-.243-.32-.495-.469-.753a13.276 13.276 0 0 1-.802-1.724 8.762 8.762 0 0 1-.274-.843zM41.45 317.76l7.352 12.136a11.002 11.002 0 0 1-1.296.909 24.62 24.62 0 0 1-.714.414 5.263 5.263 0 0 1-.723.33l-5.452-9-6.326 3.837 4.353 7.184a7.789 7.789 0 0 1-.605.495c-.222.16-.446.311-.67.449a9.74 9.74 0 0 1-.727.396 7.337 7.337 0 0 1-.732.318l-4.354-7.19-7.555 4.58 5.601 9.248a11.571 11.571 0 0 1-1.296.909c-.224.135-.464.272-.714.412a5.354 5.354 0 0 1-.724.332l-7.5-12.378zm3.846 50.903a11.03 11.03 0 0 1-2.394-4.328 9.216 9.216 0 0 1-.1-4.377 12.188 12.188 0 0 1 1.909-4.266 20.275 20.275 0 0 1 3.64-3.979 20.48 20.48 0 0 1 4.502-2.965 12.254 12.254 0 0 1 4.515-1.209 9.41 9.41 0 0 1 4.32.779 12.195 12.195 0 0 1 6.292 7.379 9.356 9.356 0 0 1 .082 4.387 11.984 11.984 0 0 1-1.916 4.254 22.552 22.552 0 0 1-8.144 6.942 11.965 11.965 0 0 1-4.505 1.222 9.197 9.197 0 0 1-4.305-.787 11.034 11.034 0 0 1-3.896-3.052zm2.404-2.047a6.504 6.504 0 0 0 2.548 1.91 5.893 5.893 0 0 0 2.954.338 9.96 9.96 0 0 0 3.27-1.094 20.94 20.94 0 0 0 6.436-5.486 9.72 9.72 0 0 0 1.594-3.057 5.896 5.896 0 0 0 .12-2.96 7.237 7.237 0 0 0-4.03-4.726 5.906 5.906 0 0 0-2.94-.348 9.713 9.713 0 0 0-3.271 1.09 20.938 20.938 0 0 0-6.437 5.488 9.932 9.932 0 0 0-1.593 3.057 5.852 5.852 0 0 0-.134 2.97 6.508 6.508 0 0 0 1.483 2.818zm29.546-1.935c.295.209.636.465 1.029.765q.586.45 1.215.964.625.512 1.24 1.035c.41.352.8.698 1.168 1.041a17.275 17.275 0 0 1 2.473 2.853 8.37 8.37 0 0 1 1.349 3.128 6.839 6.839 0 0 1-.19 3.336 9.024 9.024 0 0 1-2.157 3.464 9.196 9.196 0 0 1-3.472 2.482 7.312 7.312 0 0 1-3.455.433 8.61 8.61 0 0 1-3.265-1.109 15.589 15.589 0 0 1-2.905-2.15q-.498-.463-.867-.833a13.07 13.07 0 0 1-.765-.838l-6.374 6.823a14.574 14.574 0 0 1-1.413-1.172c-.21-.195-.428-.41-.657-.639a7.053 7.053 0 0 1-.607-.691zm-6.419 12.236q.37.446.66.764c.193.216.492.509.893.884a10.326 10.326 0 0 0 1.775 1.337 5.209 5.209 0 0 0 2.006.722 4.352 4.352 0 0 0 2.15-.277 6.269 6.269 0 0 0 2.255-1.651 6.087 6.087 0 0 0 1.364-2.118 4.135 4.135 0 0 0 .198-2.026 4.787 4.787 0 0 0-.802-1.93 10.957 10.957 0 0 0-1.587-1.828 22.782 22.782 0 0 0-1.779-1.513zm22.741 2.493l11.263 8.627a11.242 11.242 0 0 1-.875 1.319c-.163.21-.333.424-.517.646a5.31 5.31 0 0 1-.552.572l-8.353-6.4-4.499 5.876 6.672 5.108a7.209 7.209 0 0 1-.384.677 9.127 9.127 0 0 1-.994 1.296 6.875 6.875 0 0 1-.566.564l-6.67-5.11-5.373 7.014 8.582 6.572a10.773 10.773 0 0 1-.877 1.318c-.16.213-.332.426-.516.648a5.496 5.496 0 0 1-.551.57l-11.49-8.798zm16.724 12.45a8.439 8.439 0 0 1 .778.346c.268.138.515.273.74.408a10.808 10.808 0 0 1 1.366 1.001l-.488 22.41 10.088-16.563c.27.108.545.234.823.376s.549.293.817.455a9.314 9.314 0 0 1 1.335.98l-13.431 22.053a8.562 8.562 0 0 1-.776-.345 12.439 12.439 0 0 1-.739-.41 10.896 10.896 0 0 1-.703-.47 8.345 8.345 0 0 1-.665-.53l.401-22.336-10.03 16.47a8.675 8.675 0 0 1-.778-.344 13.945 13.945 0 0 1-.77-.428 12.79 12.79 0 0 1-.763-.508 6.888 6.888 0 0 1-.634-.513zm32.172 17.665l13.113 5.415a10.716 10.716 0 0 1-.504 1.502q-.151.364-.332.755a5.163 5.163 0 0 1-.384.696l-9.727-4.016-2.822 6.84 7.766 3.207a6.884 6.884 0 0 1-.193.753 9.866 9.866 0 0 1-.274.76 9.84 9.84 0 0 1-.35.75 6.749 6.749 0 0 1-.401.69l-7.767-3.207-3.371 8.167 9.992 4.126a10.755 10.755 0 0 1-.505 1.5c-.101.244-.209.494-.332.757a5.066 5.066 0 0 1-.384.696l-13.377-5.522zm19.496 7.617l12.904 3.966a7.12 7.12 0 0 1-.125.774 8.77 8.77 0 0 1-.202.778c-.077.257-.17.513-.277.78a6.975 6.975 0 0 1-.334.724l-9.406-2.889-2.228 7.242 7.86 2.413a8.934 8.934 0 0 1-.336 1.59q-.119.377-.273.761a8.734 8.734 0 0 1-.339.74l-7.86-2.418-3.473 11.295a11.7 11.7 0 0 1-.872-.154 12.557 12.557 0 0 1-1.82-.563 8.099 8.099 0 0 1-.81-.357zm19.133 5.495l13.214 2.77a6.925 6.925 0 0 1-.052.777 9.441 9.441 0 0 1-.337 1.6 7.105 7.105 0 0 1-.265.751l-9.633-2.02-1.554 7.417 8.049 1.687a9.304 9.304 0 0 1-.393 2.395c-.08.268-.17.52-.271.772l-8.048-1.69-2.426 11.562q-.438-.02-.884-.075a12.27 12.27 0 0 1-1.864-.392 7.914 7.914 0 0 1-.837-.286zm19.451 3.723l14.095 1.594a10.476 10.476 0 0 1-.071 1.582 17.11 17.11 0 0 1-.11.82 5.195 5.195 0 0 1-.178.771l-10.455-1.18-.832 7.35 8.35.944a6.668 6.668 0 0 1 .02.78 9.035 9.035 0 0 1-.056.806c-.03.264-.072.536-.128.82a7.182 7.182 0 0 1-.196.774l-8.35-.948-.992 8.778 10.74 1.216a10.81 10.81 0 0 1-.07 1.582c-.032.264-.068.536-.112.82a5.297 5.297 0 0 1-.177.774l-14.381-1.628zm37.07 24.22a9.83 9.83 0 0 1 .977 2.99 14.463 14.463 0 0 1-3.098.904 19.37 19.37 0 0 1-3.413.256 13.298 13.298 0 0 1-5.039-.964 10.236 10.236 0 0 1-3.764-2.658 11.598 11.598 0 0 1-2.33-4.167 17.065 17.065 0 0 1-.774-5.504 17.665 17.665 0 0 1 .879-5.577 12.09 12.09 0 0 1 2.409-4.232 10.32 10.32 0 0 1 3.796-2.676 12.607 12.607 0 0 1 5.001-.904 18.474 18.474 0 0 1 3.517.32 19.578 19.578 0 0 1 2.615.708 6.637 6.637 0 0 1-.32 1.524c-.159.463-.349.962-.57 1.484-.358-.124-.704-.233-1.038-.334s-.694-.186-1.076-.261a12.078 12.078 0 0 0-1.273-.174 21.239 21.239 0 0 0-1.598-.069 7.426 7.426 0 0 0-6.112 2.601q-2.198 2.634-2.246 7.629a14.32 14.32 0 0 0 .57 4.423 8.416 8.416 0 0 0 1.694 3.103 7.056 7.056 0 0 0 2.658 1.857 9.595 9.595 0 0 0 3.498.643 13.75 13.75 0 0 0 2.731-.224 11.734 11.734 0 0 0 2.306-.699zm12.236-19.7l-6.689.62a7.378 7.378 0 0 1-.178-.776c-.05-.284-.087-.559-.113-.82a8.46 8.46 0 0 1-.038-.808 6.459 6.459 0 0 1 .036-.778l17.02-1.578a6.776 6.776 0 0 1 .175.742 7.491 7.491 0 0 1 .11.783c.025.261.039.545.043.843a6.89 6.89 0 0 1-.034.815l-6.686.618 2.088 22.53a13.743 13.743 0 0 1-1.779.27 14.703 14.703 0 0 1-1.868.066zm18.822 16.661q1.243.203 2.573.286a13.176 13.176 0 0 0 3.164-.27 6.79 6.79 0 0 0 4.103-1.996 3.987 3.987 0 0 0 .827-3.46 4.343 4.343 0 0 0-.618-1.637 3.315 3.315 0 0 0-1.13-1.05 6.77 6.77 0 0 0-1.675-.653c-.653-.17-1.41-.342-2.271-.522l-2.166-.433a14.177 14.177 0 0 1-2.047-.584 5.72 5.72 0 0 1-2.993-2.507 6.866 6.866 0 0 1-.787-2.242 6.302 6.302 0 0 1 1.24-5.444 9.522 9.522 0 0 1 5.8-2.972 18.037 18.037 0 0 1 3.265-.323 17.094 17.094 0 0 1 2.814.204 11.227 11.227 0 0 1-.224 3.072 18.956 18.956 0 0 0-2.327-.222 13.45 13.45 0 0 0-2.894.255 5.721 5.721 0 0 0-3.253 1.545 3.211 3.211 0 0 0-.691 2.924 2.891 2.891 0 0 0 .549 1.268 3.58 3.58 0 0 0 .987.875 5.796 5.796 0 0 0 1.314.575 12.749 12.749 0 0 0 1.53.368l2.122.405a21.182 21.182 0 0 1 2.73.71 8.01 8.01 0 0 1 2.142 1.097 5.761 5.761 0 0 1 1.552 1.735 8.026 8.026 0 0 1 .903 2.57 7.209 7.209 0 0 1-1.427 6.206q-2.112 2.573-6.628 3.423a25.65 25.65 0 0 1-1.99.3 14.724 14.724 0 0 1-3.212.02q-.745-.078-1.534-.187a7.95 7.95 0 0 1 .02-1.646c.062-.57.14-1.136.232-1.69zm46.126-14.218l-9.257 3.228.302 6.21c-.28.146-.559.283-.847.407a13.13 13.13 0 0 1-1.813.634 8.818 8.818 0 0 1-.866.188l-.57-27.148c.28-.144.582-.293.914-.432q.498-.213 1.039-.401a15.352 15.352 0 0 1 2.015-.552l16.405 21.625c-.257.14-.55.28-.882.422-.332.14-.655.267-.97.375a12.88 12.88 0 0 1-.912.282 9.906 9.906 0 0 1-.9.199zm-9.395-.108l7.428-2.59-8.07-11.145zm21.887-2.64a25.424 25.424 0 0 0 2.564-.368 13.397 13.397 0 0 0 2.997-1.051 6.818 6.818 0 0 0 3.47-2.958 3.997 3.997 0 0 0-.065-3.56 4.379 4.379 0 0 0-1.008-1.432 3.3 3.3 0 0 0-1.355-.732 6.964 6.964 0 0 0-1.786-.216c-.676.003-1.452.023-2.331.067l-2.205.121a13.777 13.777 0 0 1-2.127-.053 5.766 5.766 0 0 1-3.526-1.676 6.946 6.946 0 0 1-1.323-1.975 6.289 6.289 0 0 1-.16-5.58 9.499 9.499 0 0 1 4.87-4.332 17.834 17.834 0 0 1 3.079-1.126 17.1 17.1 0 0 1 2.775-.511 11.2 11.2 0 0 1 .552 3.031 18.058 18.058 0 0 0-2.306.371 13.043 13.043 0 0 0-2.738.969 5.728 5.728 0 0 0-2.766 2.308 3.222 3.222 0 0 0 .064 3.008 2.914 2.914 0 0 0 .85 1.09 3.558 3.558 0 0 0 1.174.595 5.646 5.646 0 0 0 1.415.23 12.99 12.99 0 0 0 1.575-.026l2.155-.14a21.374 21.374 0 0 1 2.82.005 7.973 7.973 0 0 1 2.35.524 5.668 5.668 0 0 1 1.934 1.294 8.02 8.02 0 0 1 1.52 2.26 7.22 7.22 0 0 1 .172 6.37q-1.397 3.015-5.559 4.97c-.673.314-1.291.58-1.852.79a15.834 15.834 0 0 1-1.603.513 14.119 14.119 0 0 1-1.502.309q-.742.11-1.531.204a7.943 7.943 0 0 1-.392-1.6q-.127-.856-.201-1.693zm20.102-9.847a25.07 25.07 0 0 0 2.519-.607 13.333 13.333 0 0 0 2.884-1.328 6.795 6.795 0 0 0 3.178-3.272 4.013 4.013 0 0 0-.398-3.54 4.465 4.465 0 0 0-1.14-1.33 3.28 3.28 0 0 0-1.417-.6 6.875 6.875 0 0 0-1.798-.043q-1.01.093-2.315.28l-2.184.329a13.811 13.811 0 0 1-2.122.146 5.904 5.904 0 0 1-1.933-.338 5.835 5.835 0 0 1-1.733-.999 6.862 6.862 0 0 1-1.504-1.845 6.28 6.28 0 0 1-.682-5.536 9.49 9.49 0 0 1 4.44-4.77 18.127 18.127 0 0 1 2.962-1.414 17.237 17.237 0 0 1 2.715-.767 11.251 11.251 0 0 1 .834 2.97 17.784 17.784 0 0 0-2.26.583 13.143 13.143 0 0 0-2.638 1.22 5.712 5.712 0 0 0-2.534 2.56 3.216 3.216 0 0 0 .343 2.988 2.9 2.9 0 0 0 .948 1.003 3.59 3.59 0 0 0 1.225.488 5.883 5.883 0 0 0 1.43.091 12.809 12.809 0 0 0 1.565-.174l2.136-.339a20.996 20.996 0 0 1 2.807-.258 7.838 7.838 0 0 1 2.388.3 5.676 5.676 0 0 1 2.047 1.105 7.97 7.97 0 0 1 1.726 2.109 7.218 7.218 0 0 1 .767 6.324q-1.11 3.132-5.069 5.47c-.641.375-1.23.696-1.77.961a16.594 16.594 0 0 1-1.548.662 14.671 14.671 0 0 1-1.465.449c-.485.119-.987.231-1.504.345a7.964 7.964 0 0 1-.543-1.559q-.206-.838-.357-1.664zm31.202-15.148a11.083 11.083 0 0 1-4.464 2.13 9.232 9.232 0 0 1-4.376-.17 12.153 12.153 0 0 1-4.144-2.16 21.852 21.852 0 0 1-6.438-8.549 12.162 12.162 0 0 1-.934-4.579 9.417 9.417 0 0 1 1.037-4.265 12.204 12.204 0 0 1 7.746-5.834 9.386 9.386 0 0 1 4.384.183 11.991 11.991 0 0 1 4.13 2.17 22.421 22.421 0 0 1 6.439 8.545 12.023 12.023 0 0 1 .948 4.573 9.214 9.214 0 0 1-1.049 4.25 11.055 11.055 0 0 1-3.279 3.706zm-1.9-2.523a6.494 6.494 0 0 0 2.06-2.43 5.856 5.856 0 0 0 .514-2.928 9.965 9.965 0 0 0-.889-3.331 20.963 20.963 0 0 0-5.09-6.754 9.743 9.743 0 0 0-2.953-1.775 5.936 5.936 0 0 0-2.947-.3 7.24 7.24 0 0 0-4.964 3.74 5.919 5.919 0 0 0-.524 2.911 9.697 9.697 0 0 0 .89 3.332 20.978 20.978 0 0 0 5.088 6.756 9.964 9.964 0 0 0 2.958 1.772 5.872 5.872 0 0 0 2.954.316 6.524 6.524 0 0 0 2.903-1.31zm27.061-25.034a9.674 9.674 0 0 1 2.786 1.46 14.416 14.416 0 0 1-1.584 2.807 19.47 19.47 0 0 1-2.267 2.567 13.226 13.226 0 0 1-4.28 2.828 10.263 10.263 0 0 1-4.549.725 11.703 11.703 0 0 1-4.579-1.357 17.09 17.09 0 0 1-4.396-3.4 17.646 17.646 0 0 1-3.265-4.605 12.121 12.121 0 0 1-1.23-4.714 10.358 10.358 0 0 1 .85-4.563 12.569 12.569 0 0 1 2.947-4.14 18.689 18.689 0 0 1 2.743-2.227 20.077 20.077 0 0 1 2.365-1.321 6.8 6.8 0 0 1 .833 1.314c.211.446.422.936.63 1.463-.343.162-.666.323-.978.485q-.46.247-.952.566a11.411 11.411 0 0 0-1.03.764c-.362.296-.76.65-1.191 1.067a7.416 7.416 0 0 0-2.562 6.127q.271 3.424 3.72 7.027a14.31 14.31 0 0 0 3.494 2.773 8.334 8.334 0 0 0 3.382 1.035 7.032 7.032 0 0 0 3.199-.525 9.514 9.514 0 0 0 2.95-1.98 13.741 13.741 0 0 0 1.8-2.07 11.86 11.86 0 0 0 1.164-2.106zm-10.219-21.553c.156-.247.325-.494.515-.743a12.86 12.86 0 0 1 1.239-1.4c.224-.215.449-.416.675-.597l19.32 17.128a10.723 10.723 0 0 1-1.108 1.466 12.76 12.76 0 0 1-.657.689 8.423 8.423 0 0 1-.664.586zm31.304-7.156l-5.885 7.839 3.712 4.987c-.15.274-.307.547-.474.81a13.365 13.365 0 0 1-1.152 1.536 8.88 8.88 0 0 1-.616.642l-15.608-22.22q.223-.416.517-.87a16.17 16.17 0 0 1 2.004-2.492l25.675 8.804c-.135.26-.3.54-.494.842-.197.302-.399.586-.598.854a12.447 12.447 0 0 1-1.236 1.408zm-7.859 5.144l4.72-6.29-12.912-4.75zm2.105-26.504l-3.526 5.717a7.382 7.382 0 0 1-.728-.323 9.06 9.06 0 0 1-1.39-.86 6.498 6.498 0 0 1-.602-.495l8.977-14.55a7.79 7.79 0 0 1 1.387.689c.225.14.458.297.701.471a7.343 7.343 0 0 1 .63.518l-3.526 5.717 19.253 11.88a13.92 13.92 0 0 1-.85 1.583 15.37 15.37 0 0 1-1.071 1.531zm5.456-15.824c.089-.276.194-.558.318-.846.121-.287.254-.568.396-.845a12.001 12.001 0 0 1 .971-1.557l22.92 11.885a10.703 10.703 0 0 1-.716 1.692c-.142.275-.3.552-.467.829a8.173 8.173 0 0 1-.504.73zm33.478-9.72a11.03 11.03 0 0 1-2.748 4.114 9.31 9.31 0 0 1-3.842 2.097 12.265 12.265 0 0 1-4.666.263 21.888 21.888 0 0 1-9.909-4.046 12.309 12.309 0 0 1-3.144-3.46 9.397 9.397 0 0 1-1.293-4.196 12.18 12.18 0 0 1 3.668-8.973 9.392 9.392 0 0 1 3.86-2.09 12.062 12.062 0 0 1 4.66-.247 22.433 22.433 0 0 1 9.906 4.048 12.026 12.026 0 0 1 3.153 3.439 9.196 9.196 0 0 1 1.275 4.19 11.03 11.03 0 0 1-.92 4.86zm-2.924-1.198a6.517 6.517 0 0 0 .527-3.137 5.868 5.868 0 0 0-1.056-2.782 10.031 10.031 0 0 0-2.47-2.404 20.936 20.936 0 0 0-7.828-3.2 9.738 9.738 0 0 0-3.448-.012 5.897 5.897 0 0 0-2.684 1.25 7.24 7.24 0 0 0-2.349 5.751 5.943 5.943 0 0 0 1.037 2.773 9.722 9.722 0 0 0 2.47 2.404 20.796 20.796 0 0 0 7.829 3.199 9.854 9.854 0 0 0 3.448.013 5.855 5.855 0 0 0 2.7-1.243 6.479 6.479 0 0 0 1.824-2.612zm-15.189-25.259q.034-.398.117-.845c.055-.293.119-.565.188-.822a9.496 9.496 0 0 1 .582-1.591l21.66-5.758-18.712-5.085c.032-.291.073-.589.133-.896s.128-.609.21-.913c.07-.254.152-.518.25-.786a8.169 8.169 0 0 1 .323-.769l24.915 6.775a10.322 10.322 0 0 1-.56 2.473 8.2 8.2 0 0 1-.328.785l-21.566 5.82 18.608 5.06a8.04 8.04 0 0 1-.12.845 10.723 10.723 0 0 1-.469 1.733 7.311 7.311 0 0 1-.316.749zm-285.377 7.91h-36.706l-77.286-82.222 72.668-65.407h92.021v44.968h-51.965v16.599l39.29 1.352v40.35H154.53zm-34.251-5.677h28.574v-44.36h38.022v-29.188l-39.29-1.353v-27.76h51.965v-33.614h-84.167L48.648 201.98z"/><path d="M399.046 283.863h-84.654l-20.08-27.167-19.491 27.167h-78.353l59.931-74.602-60.018-73.027h79.704l17.97 24.923 16.07-26.935 79.474-2.636-61.773 76.124zm-81.79-5.677h68.706L320.3 207.974l57.05-70.301-63.937 2.12-18.91 31.694-21.322-29.576h-64.784l55.317 67.31-55.403 68.965h63.597l22.338-31.132z"/><path fill="#a8deed" d="M232.08 2.838c-111.906 0-202.625 90.719-202.625 202.626s90.719 202.625 202.625 202.625 202.626-90.719 202.626-202.625S343.987 2.838 232.08 2.838zm-3.538 334.72a129.582 129.582 0 1 1 129.582-129.583 129.582 129.582 0 0 1-129.582 129.582z"/><path d="M232.081 410.927c-113.294 0-205.465-92.17-205.465-205.463C26.616 92.17 118.787 0 232.081 0c113.293 0 205.463 92.171 205.463 205.464 0 113.293-92.17 205.463-205.463 205.463zm0-405.25c-110.163 0-199.788 89.624-199.788 199.787S121.918 405.25 232.081 405.25c110.161 0 199.786-89.624 199.786-199.786S342.242 5.677 232.08 5.677zm-3.54 334.72c-73.017 0-132.42-59.405-132.42-132.422 0-73.018 59.403-132.421 132.42-132.421s132.422 59.403 132.422 132.421c0 73.017-59.405 132.422-132.421 132.422zm0-259.166a126.745 126.745 0 1 0 126.745 126.744A126.888 126.888 0 0 0 228.542 81.231z"/></svg>