<svg xmlns="http://www.w3.org/2000/svg" role="img" viewBox="9.69 11.69 139.49 131.49"><title>OpenDisplayCalib logo</title><path stroke="#000" d="M72.5 15l2.5.5-2.5.5v-1zm11 0l3.5.5-3.5.5v-1zm16 6l6 7-6-7zm-53 23l.5 7.5h-1l.5-7.5zm66 1l.5 5.5h-1l.5-5.5zm-7 23l-6 7 6-7zm-67 6l3.5.5-3.5.5v-1zm12 0l3.5.5-3.5.5v-1zm55 0l3.5.5-3.5.5v-1zm12 0l3.5.5-3.5.5v-1zm-55 2v3L60 77.5l2.5-1.5zm34 0l1 2-1-2zm-32 3l1 2-1-2zm30 0l-1 2 1-2zm37 0l1 2-1-2zm-59 1l2.5.5-2.5.5v-1zm11 0l3.5.5-3.5.5v-1zm-59 1l-4 5 4-5zm67 0l-4 5 4-5zm43 0l4 5-4-5zm-62 6l1 2-1-2zm14 0l-1 2 1-2zm53 0l1 2-1-2zm-126 12l.5 3.5h-1l.5-3.5zm67 1l.5 2.5h-1l.5-2.5zm65 0l.5 2.5h-1l.5-2.5zm-67 1l.5 2.5h-1l.5-2.5zm0 9l.5 2.5h-1l.5-2.5zm-65 1l.5 3.5h-1l.5-3.5zm67 0l.5 2.5h-1l.5-2.5zm65 0l.5 2.5h-1l.5-2.5zm-72 14l-1 2 1-2zm12 0l1 2-1-2zm55 0l-1 2 1-2zm-120 3l4 5-4-5zm67 0l4 5-4-5zm51 0l-4 5 4-5zm-73 5l-1 2 1-2zm28 0l1 2-1-2zm39 0l-1 2 1-2zm-70 2l-1 2-1.5-.5 2.5-1.5zm-24 4l3.5.5-3.5.5v-1zm12 0l3.5.5-3.5.5v-1zm55 0l3.5.5-3.5.5v-1zm12 0l3.5.5-3.5.5v-1z" opacity=".184"/><path fill="#9CB8E7" stroke="#9CB8E7" d="M78.5 21l2.5.5-2.5.5v-1zm-7 1l2.5 1.5-1.5.5-1-2zm-9 5l-1 2 1-2zm35 1l1 2-1-2zm-38 2l-1 2 1-2zm9 9l5.5.5-5.5.5v-1zm-12 6l-1 2 1-2zm16 1l1 2-1-2zm-7 4l-1 2 1-2zm2 4l-1 2 1-2zm-3 8l.5 4.5h-1l.5-4.5zm-6 2l1 2-1-2zm40 2l-1 2 1-2zm-37 1l1 2-1-2zm17 7l2.5.5-2.5.5v-1zm32 29l-1 2 1-2zm-6 9l-1 2 1-2zm5 1l.5 4.5h-1l.5-4.5zm-1 12l-2 3 2-3zm9 1l.5 2.5h-1l.5-2.5z"/><path fill="#192E23" stroke="#192E23" d="M81.5 24l1 2-1-2zm12 0l1 2-1-2zm-9 1l1 2-1-2zm-22 1l-4 5 4-5zm34 0l3 4-3-4zm-27 2l4.5.5-4.5.5v-1zm20 0l2.5 1.5-.5 1.5-.5-2-1.5-1zm-25 2l2 3-2-3zm10 4l2.5 1.5-1.5-.5-1-1zm-8 5l.5 2 4 .5-5 .5.5-3zm10 2l.5 2 4 .5-3.5.5-1-3zm25 1l1.5 2.5-2-1 .5-1.5zm-49 2l.5 7.5h-1l.5-7.5zm22 0v3q-3-1.5 0-3zm32 0l.5 7.5h-1l.5-7.5zm-49 1l-2 3 2-3zm13 1l-1 2 1-2zm33 1l.5 2.5h-1l.5-2.5zm-40 3l.5 1.5-3 2 2.5-3.5zm9 0l1.5.5-5.5 4.5 4-5zm3 0l1 2-1-2zm7 0l-1 2 1-2zm19 1l.5 3.5h-1l.5-3.5zm-20 5L80 58.5l-.5 1.5-.5-1.5 2.5-2.5zm-20 1l3 1 1.5-.5q-1.2 2.8-2.5.5-3 .5-2-1zm12 1q2.6-.8 1.5 2.5h-1l-.5-2.5zm27 0l-1 2-2.5-.5 3.5-1.5zm-34 1l-.5 1.5q-1.5 5.5 1 7l-2 .5v-7.5l1.5-1.5zm27 1l-.5 1.5-.5 2.5-.5-2.5 1.5-1.5zm-24 2q3 1.5 0 3v-3zm-11 3l4 5-4-5zm16 0l4.5.5-4.5.5v-1zm9 1l1 2-1-2zm9 0l1 5 1.5-.5q-1.2 2.8-2.5.5l-2.5-.5 2-.5.5-4zm7 0l-3 4 3-4zm19 14q2.3-.7 1.5 1.5l1.5-.5 1.5.5-2 1 1 2.5q-3 1.3-2-2.5l-1.5-2.5zm-19 3l2 4 2-1v1l-1.5.5q2.1 3.6 7 3.5l-1 5q-4.7 1-6-2.5l-1.5-4.5-1.5.5 1-2-1-3 .5-1.5zm9 1l2.5.5-2.5.5v-1zm-12 1l-1 2 1-2zm33 0l1 2-1-2zm-1 2l1 2-1-2zm-36 2l-1 2 1-2zm41 0l1 2-1-2zm-2 4l1.5 3.5-2-1 .5-2.5zm-96 5l-.5 1.5-.5 1.5-.5-1.5 1.5-1.5zm3 1l.5 2.5h-1l.5-2.5zm93 1q2.3-.7 1.5 1.5l-1.5-1.5zm-20 2l2.5.5-2.5.5v-1zm4 1l1 2-1-2zm-85 1l1.5 2.5h-1l-.5-2.5zm64 3l1 2-1-2zm10 4l-3 4 3-4zm2 0l1 2-1-2zm0 4l.5 2-2-.5 1.5-1.5zm-65 1l1 2q-2.8.7-1-2zm74.5 0l2 .5-2 1V116zm-11.5 2l.5 1.5-2 1 1.5-2.5zm10 1l.5 4 3 1.5-1.5-.5-2.5-1.5.5-3.5zm-23 4l1 2-1-2zm12 0l2.5 4.5h-2l-.5 1.5v-6zm6 0l2.5 1.5-3 .5.5-2zm25 0l-1 2 1-2zm-20 3l.5 1.5-1.5 2.5-.5-2.5 1.5-1.5zm16 1l-1 2 1-2zm-5 2l1 2-1-2zm-10 1q2.3-.7 1.5 1.5l-1.5-1.5zm-11 1l.5 2-2-.5 1.5-1.5z" opacity=".996"/><path fill="#7F92AA" stroke="#7F92AA" d="M74.5 21l3.5.5-3.5.5v-1zm7 0l3.5.5-3.5.5v-1zm-7 2l4.5.5-4.5.5v-1zm-4 1l1.5 2.5-2-1 .5-1.5zm12 0l1.5.5-2.5 1.5 1-2zm-18 1l-1 2 1-2zm21 0l-1 2 1-2zm10 1l1 2-1-2zm-6 1l-1 2 1-2zm2 1l1 2-1.5-.5-.5 1.5-.5-1.5 1.5-1.5zm-10 2l-1 2 1-2zm14 0l1 2-1-2zm4 0l2 3-2-3zm-30 1l1 2-1-2zm16 0l-.5 1.5-.5 1.5-.5-1.5 1.5-1.5zm-8 3l2.5.5-2.5.5v-1zm21 0l.5 2.5h-1l.5-2.5zm-34 3l1 2-1-2zm10 2l3.5.5-3.5.5v-1zM64 40q3-1.2 2 2.5l-2-1V40zm-2.5 4l-1 2 1-2zm15 0l-1 2 1-2zm5 0l1 2-1-2zm-21 5l2.5.5-2.5.5v-1zm0 4l1.5 3.5h-1l-.5-2.5-1.5.5 1.5-1.5zm-2 3l-1 2 1-2zm-2 4l2.5 1.5-3 .5.5-2zm38 0l2.5.5-2.5.5v-1zm-21 1l-3 5 2.5.5-2.5.5-1-1-2.5 1.5 4-5.5 2.5-1zm28 2l-2 3 2-3zm-21 3l2.5.5-2.5.5v-1zm16 2l-1 2 1-2zm-33 1l1 2-1-2zm11 5l3.5.5-3.5.5v-1zm7 0l3.5.5-3.5.5v-1zm-47 19l-5 6 5-6zm1 3l1 2-1-2zm-1 2l1 2-1-2zm-1 2l1 2-1-2zm-2 3l1 2-1-2zm15 11l-1 2 1-2zm70 0l.5 1.5-2 1 1.5-2.5zm-74 1l1 2-1-2zm58 1l-1 2 1-2zm9 2l.5 2.5h-1l.5-2.5zm8 2l.5 2.5h-1l.5-2.5zm-13 1l.5 3.5h-1l.5-3.5z"/><path fill="#94C4FE" stroke="#94C4FE" d="M72.5 22q10.8-1.7 17 1l11.5 9.5q5.5 6.5 5 19-2.7 13.3-12.5 19.5l-.5-8.5q1-2.5 5.5-1.5l3.5-3.5v-2l2-5v-5l-6-13-2.5-2.5-15-7h-8L70 24l2 3.5q-6.5-.5-9 3l4 3q-6.2.3-9 4 1.3 3.2 6 3l-9 6q-1.2 3.8 2.5 2.5l5.5 1.5q-5.3 2.7-6 8.5-3 1.3-2-2.5-3.5-4-2-13L60 29l12.5-7z"/><path fill="#94C4FE" stroke="#94C4FE" d="M64.5 59l.5 2.5-1 5 1 2.5 4.5-3 4 1 5-1q6.2.8 9 5l3.5.5-4.5 2.5h-14L60 67l-3-4.5 7.5-3.5zm9 1l-1 2 1-2zm37.5 45l3 1.5q.7 3-3 1.5v-3zm3.5 7l1.5 3.5-2-1 .5-2.5zm2 6l.5 4q-3 1.3-2-2.5l1.5-1.5zm0 7l1.5.5-1 4.5q-3.3 1.3-2-3.5l1.5-1.5z"/><path fill="#F7F7F7" stroke="#F7F7F7" d="M76.5 25q8.8.2 13.5 4.5-1.2 2.8-6.5 1.5l-6-2-2.5-2.5 1.5-1.5zm-7 5h7l7.5 2q1.1 2.7-1.5 2h-2q-9.9 1.6-11-4z"/><path fill="#F7F7F7" stroke="#F7F7F7" d="M67.5 35q7.9-.9 11.5 2.5L77.5 39h-11L65 36l2.5-1zm0 7l8.5.5Q72 47 63.5 47L61 45.5l6.5-3.5zm10 2q4.8-.7 5.5 2.5L82 51l-2.5 1-3.5-1-1-4.5 2.5-2.5z"/><path fill="#F7F7F7" stroke="#F7F7F7" d="M73.5 46l.5 2.5-5.5 5.5-4 3H62q-1-3.8 1.5-5l10-6z"/><path fill="#F7F7F7" stroke="#F7F7F7" d="M73.5 51l1.5.5-4 9.5-2.5 1-1.5-2.5q1.4-6.1 6.5-8.5zm8 6l2.5.5-3.5 1.5 1-2zm-46 36l.5 2.5-5.5 8.5q-3.7 1.3-2.5-2.5l7.5-8.5zm2 2l.5 7.5-2.5 5.5-2 1-1.5-3.5L37.5 95zm74 8q3.8-.7 4.5 1.5 1 4.5-1.5 5.5l-2 1-3.5-2.5q-.7-4.7 2.5-5.5zm-.5 2v3q4 1 3-1l-3-2zm-5.5 6l1.5 2.5-7.5 10.5q-3 .9-1.5-3.5l4-6.5 3-1.5.5-1.5zm3 3l.5 10.5-4 2.5v-7.5l3.5-5.5zm-65 1l-1 2 1-2z"/><path fill="#C5002B" stroke="#C5002B" d="M42.5 80l7.5.5-7.5.5v-1zm18 4l1 2-1-2zm-32 2l-2 3 2-3zm29 3l1 2-1-2zm3 4l1 2-1-2zm-31 3l-1 2 1-2zm-10 6l.5 9.5h-1l.5-9.5zm47 3l.5 2.5-2.5 3.5-.5-1.5 2.5-4.5zm6 0l.5 3.5h-1l.5-3.5zm-44 3q3-.9 1.5 3.5h-1l-.5-3.5zm36 4l-.5 1.5-.5 2.5-.5-2.5 1.5-1.5zm-8 6l3.5.5-3.5.5v-1zm-25 5l1 2-1-2zm-5 2l2 3-2-3zm35 3l-1 2 1-2zm-19 5l7.5.5-7.5.5v-1z"/><path fill="#6C0709" stroke="#6C0709" d="M84.5 34l-1 2 1-2zm13 6l-1 2 1-2zm2 1q3.5 2-1 4l.5-1.5.5-2.5zm-22 1l2.5.5-2.5.5v-1zm21 5l1.5 2.5-2 1v-2l.5-1.5zm4 0l.5 2.5h-1l.5-2.5zm-3 8l.5 2.5h-1l.5-2.5zm-14 1l.5 2.5h-1l.5-2.5zm-10 1l.5 3.5h-1l.5-3.5zm2 0l2.5 3.5-2-1-.5-2.5zm15 2l3.5.5-3.5.5v-1zm-6 1l1 2-1-2zm5 1l.5 2.5-2 1 1.5-3.5zm-18 2l-1 2 1-2zm2 1l3.5.5-3.5.5v-1zm8 0l-1 2 1-2zm-44 16l2.5.5-2.5.5v-1zm11 0l2.5.5-2.5.5v-1zm12 5l4 5-4-5zm46 0l5 2q1-3 6-2l4 3 3-1 3.5 5-7.5 1-15.5 12.5-2 5.5-4 2.5-3 5.5q-3.8 1.5-3-1.5 4-2 0-4l2-5-2-4 2-3-1-5 4.5-3.5 7 5 3.5-6.5-7-2.5q-1.2-3 2.5-2l2-2zm-63 1l6.5.5-6.5.5v-1zm-20 3l-1 2 1-2zm99 8l.5 2.5h-1l.5-2.5zm-65 1l-1 4q-2.2.8-1.5-1.5l2.5-2.5zm4 0l-1 2-1.5-.5 2.5-1.5zm69 0l-1 2 1-2zm-80 2l.5 2.5h-1l.5-2.5zm77 1l2 3-2-3zm-57 1l.5 2.5h-1l.5-2.5zm-10 5l2.5 1.5-1.5-.5-1-1zm10 2l.5 2.5h-1l.5-2.5zm-14 1l4.5.5-5.5 1.5 1-2zm-23 1l-1 2 1-2zm93 0l-1 2 1-2zm-8 1l-2 3 2-3zm10 0q2.6-.7 1.5 2l-3-.5 1.5-1.5zm-94 1q2.5 1.2 1.5 5-4.1 1.2-1.5-5zm3 2H41q-1.5 3.7 1.5 3l1 2-3.5-2.5-.5-2.5zm21 1l1 2-1-2zm73 0l-1 2 1-2zm-79 1q2.3-.7 1.5 1.5l-1.5-1.5zm72 1l3.5.5-3.5.5v-1zm-16 1l1.5 4.5-2 .5.5-5zm-76 1v2l7.5.5q-1 2.5-5.5 1.5l-3-2-1.5.5 2.5-2.5zm17 0l2.5 1.5.5-1.5.5 4.5h-1l-2.5-4.5zm-27 3l1 2-1-2zm21 1l2 3-2-3zm21 0l-4 5 4-5zm-27 9l2.5.5-2.5.5v-1zm11 0l2.5.5-2.5.5v-1z"/><path fill="#9F4537" stroke="#9F4537" d="M91.5 31q3.8-.7 4.5 1.5l-1.5-.5q-4 .8-3-1zm-15 3l-1 2 1-2zm6 2l-3 4 3-4zm13 0q2.3-.7 1.5 1.5l1.5 2.5-2.5 1.5q.8 2.3-1.5 1.5v1l4 1 2.5-1.5 1 6.5-3-1.5-.5-1.5-1.5 2.5 4 3-5.5.5-2-1 1 2 5.5.5-1 4.5h-6.5l-.5 1.5-1.5 3.5-4.5-4.5-1-4 5-7 1-10 1.5-1.5 3-1zm-10 3l-3 4 3-4zm-14 2l4.5.5-4.5.5v-1zm5 16l3 4 3.5 2.5q.9 3-3.5 1.5l-4-1-2 1 .5-1.5 2.5-6.5zm-5 3l-1 2 1-2zm-4 1l1 2-1-2zm-15 30q5.5-1 6.5 2.5l2 4.5-4 2.5q-.7 2.3 1.5 1.5h2q2.3.8 1.5-1.5l2 1 1 5.5h-4v-1.5l-2 1 4 3-5.5.5-1.5-.5 1.5 2.5q6.8-2 4.5 4l-8 1-.5 5-5.5-4.5v-5l4-5 1-15-.5-1.5zm-14 3l.5 4.5h-1l.5-4.5zm91 1l2.5 3.5-3.5 4.5 3 1 2-3q3.2 2.7 2.5 8l-4-1.5-.5-1.5-.5 2.5 3 1.5q1.3 3.7-4.5 2l-2.5-1q-1.1 2.7 1.5 2l3 1 1.5-.5q.8 3.8-1.5 4.5-5.2-1.2-6.5 1.5l-.5 8.5-5.5-3-1-9.5 6-9 1-10.5 4.5-1zm-91 20l3 4 3.5 2.5q.8 2.6-2.5 1.5l-7.5-1.5 3.5-6.5zm73 2l2.5 1-1 3.5 1 2.5-3-1.5.5-5.5z"/><path fill="#E90630" stroke="#E90630" d="M89.5 32q5.3-1.2 6.5 1.5.8 2.6-2.5 1.5-7.8 2.2-12 8L78 41.5Q82 35 89.5 32zm-50 49q10.1-1.6 16 1L67 90.5q6.7 6.8 5 22-2.4 10.1-9.5 15.5-6.8 7.2-23 5-10.2-2.7-15.5-10.5-6.5-7-4-23 3.2-9.3 10.5-14.5l9-4zm4.5 5q-2 3-6 2l-2 3-2 1q-9 5-10 18l5-1 1 4q-1 2 4 1l2-1v6l-5 5q1 2 3 0h10l7 5h4v-10l7-1q2-1 2-4v-2l3-4-2-8-6-9q-3-7-15-5z"/><path stroke="#000" d="M75.5 15l2.5.5-2.5.5v-1zm5 0l2.5.5-2.5.5v-1zm-19 5l-1 2 1-2zm36 0l1 2-1-2zm-39 2l-4 5 4-5zm-5 6l-1 2 1-2zm52 0l1 2-1-2zm-54 3l-1 2 1-2zm-4 9l.5 3.5h-1l.5-3.5zm64 1l.5 3.5h-1l.5-3.5zm0 10l.5 3.5h-1l.5-3.5zm-64 1l.5 3.5h-1l.5-3.5zm3 11l1 2-1-2zm2 3l1 2-1-2zm54 0l-1 2 1-2zm-52 3l4 5-4-5zm-12 5l2.5.5-2.5.5v-1zm5 0l2.5.5-2.5.5v-1zm13 0l1 2-1-2zm38 0l-1 2 1-2zm11 0l2.5.5-2.5.5v-1zm5 0l2.5.5-2.5.5v-1zm-78 1l2.5.5-2.5.5v-1zm17 0l2.5.5-2.5.5v-1zm50 0l2.5.5-2.5.5v-1zm17 0l2.5.5-2.5.5v-1zm-24 3l-1 2 1-2zm33 0l1 2-1-2zm-103 2l-1 2 1-2zm49 0l2.5.5-2.5.5v-1zm5 0l2.5.5-2.5.5v-1zm-14 1l5 6-5-6zm26 0l-5 6 5-6zm41 0l5 6-5-6zm-113 5l-1 2 1-2zm-6 11l.5 2.5h-1l.5-2.5zm-1 6l.5 2.5h-1l.5-2.5zm67 0l.5 2.5h-1l.5-2.5zm65 0l.5 2.5h-1l.5-2.5zm-67 1l.5 5.5h-1l.5-5.5zm-65 4l.5 2.5h-1l.5-2.5zm67 0l.5 2.5h-1l.5-2.5zm65 0l.5 2.5h-1l.5-2.5zm-131 6l.5 2.5h-1l.5-2.5zm5 12l1 2-1-2zm52 1l-5 6 5-6zm16 0l5 6-5-6zm51 0l-5 6 5-6zm-113 5l1 2-1-2zm70 2l1 2-1-2zm35 0l-1 2 1-2zm-94 4l2.5.5-2.5.5v-1zm17 0l2.5.5-2.5.5v-1zm50 0l2.5.5-2.5.5v-1zm17 0l2.5.5-2.5.5v-1zm-78 1l2.5.5-2.5.5v-1zm5 0l2.5.5-2.5.5v-1zm62 0l2.5.5-2.5.5v-1zm5 0l2.5.5-2.5.5v-1z" opacity=".792"/><path fill="#010100" stroke="#010100" d="M78.5 15l12 2q9 3.5 14.5 10.5l6 12 1 11-3 12L99.5 74l-9 5-12 2-10-2-6-3-8.5-7.5-6-11-1-13 3-11L59.5 22l9-5 10-2zM73 21l-10 5q-9 6-11 19-1 14 6 21 5 6 15 9 16 2 24-5 8-6 10-18 0-15-7-22-5-6-13-9H73z" opacity=".996"/><path fill="#010100" stroke="#010100" d="M73.5 24l2.5.5-1 2 1 2.5-5-3.5 2.5-1.5zm-6 5l2.5.5-2 .5q-1.1 2.7 1.5 2l4.5 2.5-7.5.5v-1l2.5-.5-4-3 2.5-1.5zm28 2l1 2-1-2zM85 32l3 .5-2.5 1.5-.5-2zm12.5 2l3.5 7.5-1.5-.5-1.5-.5v-2L96.5 36l-2.5-.5 3.5-1.5zm-34 1l1.5.5-1 2 1.5 2.5-6.5-2.5 4.5-2.5zm14 0l5.5.5-4 3 1-2.5q-3.3.8-2.5-1zm12 2q3-.9 1.5 3.5l-2 10-4.5 5.5q-4.6-.6-6 2l-3-1-2 1 .5-1.5 1.5-5.5 4 2 3.5-2.5 1-3-2-4 7.5-6.5zm-22 3h10l.5 1.5-1.5-.5h-9v-1zm29 2l2.5 1.5-3.5.5 1-2zm-35 1L60 45.5q-.8 2.6 2.5 1.5l4.5 1.5-8.5.5-2.5-1.5 5.5-4.5zm15 0l-2 3 2-3zm21 5q1.3 2.8 5.5 2.5l-3.5.5-2.5-1 .5-2zm1 5q4.6-1.4 2.5 4.5l-2 1 1-4.5-1.5-1zm-38 1l.5 4 3.5-1-1 2-6 2 .5-1.5 2.5-5.5zm7 1l-.5 1.5-.5 2.5-.5-2.5 1.5-1.5zm16 3l2.5 1.5 1.5 2.5 2.5 1.5.5 1.5 1.5-.5q2.6 7.3-3.5 5.5L85 69l-2-3.5 1-1-3.5-4.5 3-2zm-17 2l2 3 3-2-2.5 3.5-1.5 2.5-1.5-.5.5-6.5zm8 1l-2 4 1.5.5-3.5.5 4-5zm5 4l2.5.5-2.5.5v-1zm-34 9l14 3L73 88.5l5 12v13q-3.2 13.8-13.5 20.5l-8 4-11 2-11-2q-8.3-3.2-13.5-9.5l-5-8-3-14 3-13L24.5 82l10-6 11-2zM40 80l-10 5q-8 6-11 16-2 16 5 23 6 7 16 10 16 2 23-5 7-6 10-17 1-15-6-22l-11-9q-6-3-16-1zm72.5-6l16 4L140 88.5l4 8 2 11-3 13-11.5 13.5-8 4-11 2-15-4L86 125.5l-4-8-2-11 3-13L94.5 80l5-3 13-3zm-5.5 6l-10 5q-8 6-11 17-2 18 9 25l1-3q1-5-2-4l1-2 3 2-1 4 3 1h1q1 2-2 1v2l-2 1 8 4-1-5h2q3 1 2-1l2-1-3 8q15 2 23-5 7-6 10-16 2-16-5-22-5-7-12-10l-2 1q3 1 2 4 6-1 7 4l-3-3-3 1q-3-3-8-3l3-1 1-2v-2h-13zm14 2q-3 4 1 3l-1-3z" opacity=".996"/><path fill="#010100" stroke="#010100" d="M100.5 84l1.5 3 5.5-2-1 2q-3.7-1-2.5 2l7 2.5-3.5 6.5-8-5-3.5 2.5 1-2.5q3 1.3 2-2.5v-2l.5-1.5q.9 6.1 5 9 4.8 1.7 3.5-2.5l1-2.5q-5.6-.1-8-4.5l-.5-1.5-1.5.5 1.5-1.5zm10 1l4.5.5q-1.3 2.8-2.5.5-3 .5-2-1zm-67 2h11l4.5 4.5 2 3-3-2-.5-1.5H52q1.7 2.4 1 8.5l-2 9-4 5 .5 1.5-4-1q-1.5 3.5-3 1-4 .5-4.5-2.5l-.5-1.5q-1.2 3-5.5 2l-.5-6-4.5 2 1.5-7 .5 3q4.3 1 5.5-2l-1.5 2.5 1 3.5q3.8 1 5-1.5 3-5 2-14L37.5 91l-9 8 7-8q2.6.7 1.5-2h2.5l4-2zm87 4l.5 4q-5-.8-7 2.5 1 13.5-6.5 18.5l-2.5-5.5q3-1 2-6l-5-3 10.5-8.5 8-2zm-4.5 2l-11 8 1 1q4-7 14-8l-4-1zm-64.5 3l2.5 3.5-1.5-.5-2.5-.5 2-1-.5-1.5zm70 0l1 2-1-2zm-36 1l1.5 5.5-2 1 1-2-.5-4.5zm37 2l2.5 1.5 1 3h-1l-2.5-4.5zm-71 1l-1 2 1-2z" opacity=".996"/><path fill="#010100" stroke="#010100" d="M130.5 100l.5 2 2 .5-1.5.5h-2l-1.5-.5 2-.5.5-2zm-65 4l.5 3.5h-1l.5-3.5zm43 0l-.5 1.5q-.7 4.8 2.5 5.5l2.5 1.5 1 4.5 2 .5-2 1q.7-3-3-1.5l-.5 2-1-7-2.5 1.5q2.3-1.2-.5-2.5-2.2.8-1.5-1.5l3.5-5.5zm-.5 5l-1 2 2 1-1-3zm-13.5-4l2.5 4.5-2 4q3.8 1.8.5 3.5l-1.5-4.5 2-4q-3-1-1.5-3.5zm42 0l.5 3.5q-2 4.5-4 1l3-.5.5-4zm-76 2l3.5 1-1 9-6.5 1v-1q4.5 1 5.5-1.5l1-3-7-2 1.5-.5 5.5 1-1.5-3-1-1zm43 4l-2 3 2-3zm24 0l1 2-1-2z" opacity=".996"/><path fill="#010100" stroke="#010100" d="M132.5 112q3.3-1.1 2.5 1.5l-1.5 2.5-.5-1.5.5-1.5-1-1zm-32 3l-2 3 2-3zm-56 1h2l7.5 7.5 1 5.5-5.5-1-4-4-4.5-.5 5-1-3-5 1.5-1.5zm89 1l-1 2-2.5-.5 3.5-1.5zm-97 1l-.5 1.5-2 3 2 1-3.5.5 2.5-3.5 1.5-2.5zm88.5 1l2 .5-1 1v8.5l-5-2.5 1.5.5 2 1 .5-9zm-6.5 1l.5 2.5v4q.8 3.8-1.5 4.5l.5-1.5q1.3-4.8-1-6l1.5-3.5zm-15 1l.5 2-2-.5 1.5-1.5z" opacity=".996"/><path fill="#010100" stroke="#010100" d="M114.5 123q3 1.5 0 3l-2.5-1.5 2.5-1.5z" opacity=".996"/><path fill="#00DA27" stroke="#00DA27" d="M108.5 80h9l1.5 1.5q1.3 4.2-3.5 2.5l-4 1-3-1q-1.4 2.6-6 2l-2-3 8-3zm14 2l10.5 6.5q7.8 6.7 7 22-2 10.5-8.5 16.5-6.9 8.1-23 7-2.7-1.2-.5-2.5l2-6.5h4v1.5l-1 3 3.5 2.5 2.5-1q-2.1-5.2 2.5-4l4 3 .5-10 6.5-1 2.5-2.5v-2l1-3-.5-1.5q2.8.6 1.5-5.5L128.5 87l-5.5-1-.5-4zm-24 2l.5 7.5q-4.9 1.6-4 9v2l-1 5q4 2 0 4l1 5-1 3 2 3-1 3.5q-2.7 1.1-2-1.5l-6-9-1-12Q88 93 94.5 87l4-3z"/><path fill="#00DA27" stroke="#00DA27" d="M125.5 93l4.5.5q-9.7 1.8-14.5 8.5l-.5-1.5 10.5-7.5zm-18 16l1.5 2.5-2-1 .5-1.5zm-5 14l1.5 9-6-2 4.5-7z"/></svg>