<svg xmlns="http://www.w3.org/2000/svg" role="img" viewBox="-3.01 -3.01 156.39 47.89"><title>Open Shading Language (OSL) logo</title><defs><style>.cls-1{fill:#1dc5ed}.cls-2{fill:#9661ee}.cls-4{fill:#4570ee}</style></defs><g id="Layer_2" data-name="Layer 2"><g id="Layer_1-2" data-name="Layer 1"><path d="M2.24 19.22c-.15 0-.26-.17-.31-.28a15 15 0 0 1-.88-2.09 5.11 5.11 0 0 1 .23-2.68 17.85 17.85 0 0 1 1.31-2.63c.3-.52.66-.75.87-.75 0 0 .1 0 .19.11.5.63 1.07 1.34 1.71 2.09a2.48 2.48 0 0 1-.29 2.83c-.79 1-1.52 1.95-2.16 2.89-.27.38-.53.51-.67.51zm4.95-6.81a1 1 0 0 1-.76-.32c-.62-.73-1.18-1.43-1.68-2.06a2.08 2.08 0 0 1 .57-2.2 30.45 30.45 0 0 1 2.41-2.41 2.74 2.74 0 0 1 1.66-.71.91.91 0 0 1 .54.15c.63.5 1.32 1.06 2.05 1.67a1 1 0 0 1 .33.72 2.16 2.16 0 0 1-.74 1.55c-1 .92-2 1.89-2.88 2.87a2.16 2.16 0 0 1-1.5.74zM14 5.79a1.67 1.67 0 0 1-1.06-.32c-.75-.63-1.45-1.21-2.1-1.72a.22.22 0 0 1-.11-.21 1.41 1.41 0 0 1 .75-.85 19.1 19.1 0 0 1 2.65-1.31 5.67 5.67 0 0 1 1.86-.31 3.23 3.23 0 0 1 .83.09 16.27 16.27 0 0 1 2.01.84c.11.06.28.16.29.3s-.12.4-.52.68c-.93.64-1.9 1.37-2.88 2.16a2.89 2.89 0 0 1-1.72.65zm6.88-4.46A3.55 3.55 0 0 1 19.35 1l-.64-.29a.26.26 0 0 1-.15-.28.26.26 0 0 1 .23-.22l.83-.07h2.52L23 .2a.26.26 0 0 1 .23.22.26.26 0 0 1-.15.28c-.21.1-.43.2-.65.32a3.46 3.46 0 0 1-1.55.31z" class="cls-1"/><path d="M21 41.86h-2.18a.27.27 0 0 1-.24-.22.26.26 0 0 1 .15-.28l.66-.32a3.43 3.43 0 0 1 1.54-.31 3.41 3.41 0 0 1 1.53.31l.63.3a.27.27 0 0 1 .15.29.26.26 0 0 1-.23.21l-.83.07c-.38-.06-.77-.05-1.18-.05z" class="cls-2"/><path d="M.32 23.29a.27.27 0 0 1-.21-.24c0-.26 0-.53-.07-.82a21.12 21.12 0 0 1 0-2.52v-.84a.27.27 0 0 1 .22-.24.25.25 0 0 1 .23.16l.32.65a3.9 3.9 0 0 1 0 3.07c-.1.22-.21.43-.3.64a.28.28 0 0 1-.24.15z" class="cls-1"/><path d="M41.4 23.29a.27.27 0 0 1-.24-.15c-.1-.22-.2-.44-.32-.66a4 4 0 0 1 0-3.07c.11-.21.21-.42.31-.63a.26.26 0 0 1 .24-.16.26.26 0 0 1 .22.23c0 .26.05.54.07.83a21 21 0 0 1 0 2.51c0 .34 0 .6-.06.85a.27.27 0 0 1-.21.24z" class="cls-2"/><path fill="#319fe0" d="M3.46 31.18c-.21 0-.57-.24-.87-.75a17.1 17.1 0 0 1-1.31-2.65 5 5 0 0 1-.22-2.69A14.92 14.92 0 0 1 1.93 23c.05-.11.16-.29.31-.29s.4.14.67.52c.64.92 1.36 1.89 2.15 2.88a2.47 2.47 0 0 1 .3 2.89c-.64.76-1.21 1.47-1.71 2.1-.09.08-.16.08-.19.08zm3.95-5.25a1.62 1.62 0 0 1-1.25-.66c-.77-1-1.48-1.91-2.1-2.81a2.82 2.82 0 0 1 0-3c.62-.89 1.33-1.84 2.1-2.8A1.63 1.63 0 0 1 7.42 16a1.41 1.41 0 0 1 1 .48c.82.91 1.7 1.87 2.63 2.85a2.46 2.46 0 0 1 0 3.24q-1.39 1.48-2.64 2.85a1.34 1.34 0 0 1-1 .51zM13.57 19a2 2 0 0 1-1.47-.63c-.93-1-1.8-1.93-2.62-2.84a2.21 2.21 0 0 1 .23-2.94c.91-1 1.86-1.91 2.82-2.82a2.49 2.49 0 0 1 1.68-.68 1.86 1.86 0 0 1 1.26.46c.9.82 1.85 1.69 2.83 2.61a2 2 0 0 1 .63 1.44 2.26 2.26 0 0 1-.69 1.64c-1 1-2.06 2-3.07 3.07a2.27 2.27 0 0 1-1.6.69zm7.31-7.2a2.38 2.38 0 0 1-1.62-.62c-1-.93-1.94-1.81-2.85-2.63a1.34 1.34 0 0 1-.48-1.07 1.68 1.68 0 0 1 .66-1.22c1-.77 1.91-1.47 2.81-2.1a2.76 2.76 0 0 1 1.48-.41 2.68 2.68 0 0 1 1.48.42c.9.62 1.84 1.33 2.8 2.09a1.69 1.69 0 0 1 .67 1.22 1.4 1.4 0 0 1-.48 1.07c-.91.82-1.87 1.7-2.85 2.63a2.4 2.4 0 0 1-1.62.62zm6.92-6.01a2.86 2.86 0 0 1-1.8-.62c-1-.79-2-1.52-2.89-2.16-.39-.28-.52-.54-.51-.68s.18-.24.28-.29A14.81 14.81 0 0 1 25 1.16a2.92 2.92 0 0 1 .81-.09 5.57 5.57 0 0 1 1.87.32 17.77 17.77 0 0 1 2.63 1.3 1.37 1.37 0 0 1 .75.85.24.24 0 0 1-.11.22c-.64.5-1.34 1.07-2.09 1.7a1.65 1.65 0 0 1-1.06.33z"/><path d="M9.39 37.25a2.68 2.68 0 0 1-1.66-.71 27.41 27.41 0 0 1-2.41-2.41 2 2 0 0 1-.56-2.2c.48-.62 1-1.31 1.67-2.05a1 1 0 0 1 .76-.33 2.2 2.2 0 0 1 1.5.74c.93 1 1.9 2 2.88 2.88a2.16 2.16 0 0 1 .74 1.55.94.94 0 0 1-.33.71c-.74.63-1.43 1.19-2.05 1.68a.91.91 0 0 1-.54.14zm4.82-4.42a2.49 2.49 0 0 1-1.68-.68c-.95-.9-1.9-1.85-2.82-2.82a2.2 2.2 0 0 1-.22-2.94c.81-.9 1.69-1.85 2.61-2.83a2 2 0 0 1 1.47-.63 2.23 2.23 0 0 1 1.6.69c1 1 2 2.06 3.07 3.07a2.26 2.26 0 0 1 .69 1.63 2 2 0 0 1-.63 1.44c-1 .92-1.93 1.8-2.83 2.62a1.85 1.85 0 0 1-1.26.45zm6.67-6.46a2.36 2.36 0 0 1-1.66-.68q-1.53-1.52-3-3.05a2.37 2.37 0 0 1 0-3.31c1-1 2-2 3-3.06a2.38 2.38 0 0 1 1.66-.67 2.36 2.36 0 0 1 1.65.67l3.06 3.06a2.39 2.39 0 0 1 0 3.31c-1 1-2 2-3.06 3.05a2.32 2.32 0 0 1-1.65.68zM28.19 19a2.24 2.24 0 0 1-1.6-.69q-1.53-1.55-3.08-3.08a2.26 2.26 0 0 1-.69-1.63 2.06 2.06 0 0 1 .63-1.44c1-.92 1.93-1.8 2.84-2.61a1.84 1.84 0 0 1 1.26-.46 2.49 2.49 0 0 1 1.68.69c1 .91 1.91 1.86 2.82 2.82a2.2 2.2 0 0 1 .22 2.93c-.81.91-1.69 1.86-2.61 2.83a2 2 0 0 1-1.47.64zm6.38-6.59a2.16 2.16 0 0 1-1.51-.74c-.92-1-1.89-1.94-2.87-2.87a2.16 2.16 0 0 1-.74-1.55 1 1 0 0 1 .32-.71c.72-.61 1.42-1.18 2.06-1.68a.91.91 0 0 1 .54-.15 2.76 2.76 0 0 1 1.63.71 29 29 0 0 1 2.41 2.42A2.06 2.06 0 0 1 37 10c-.5.63-1.07 1.33-1.67 2.05a1 1 0 0 1-.76.36z" class="cls-4"/><path fill="#7870ee" d="M15.94 40.9a5.89 5.89 0 0 1-1.88-.32 17.85 17.85 0 0 1-2.63-1.31 1.38 1.38 0 0 1-.75-.85c0-.06 0-.12.12-.21.62-.5 1.33-1.07 2.08-1.71a1.66 1.66 0 0 1 1.12-.32 2.89 2.89 0 0 1 1.77.62c1 .78 2 1.51 2.89 2.16.39.27.52.54.51.68s-.18.24-.28.29a16.1 16.1 0 0 1-2.09.88 3 3 0 0 1-.86.09zm4.94-2.68a2.65 2.65 0 0 1-1.48-.42c-.91-.63-1.85-1.33-2.8-2.1a1.62 1.62 0 0 1-.67-1.21 1.37 1.37 0 0 1 .48-1.08c.91-.82 1.86-1.7 2.85-2.62a2.43 2.43 0 0 1 3.23 0c1 .93 2 1.81 2.86 2.64a1.37 1.37 0 0 1 .48 1.07 1.65 1.65 0 0 1-.67 1.21c-1 .77-1.9 1.48-2.81 2.1a2.62 2.62 0 0 1-1.47.41zm6.67-5.39a1.84 1.84 0 0 1-1.26-.45c-.91-.82-1.86-1.7-2.83-2.62a2 2 0 0 1-.64-1.44 2.3 2.3 0 0 1 .69-1.63c1-1 2.06-2 3.07-3.07a2.23 2.23 0 0 1 1.61-.69 2 2 0 0 1 1.47.63c.92 1 1.8 1.93 2.61 2.83a2.21 2.21 0 0 1-.27 2.94c-.9 1-1.85 1.91-2.82 2.82a2.49 2.49 0 0 1-1.63.68zm6.79-6.9a1.36 1.36 0 0 1-1-.48c-.82-.91-1.7-1.86-2.63-2.85a2.43 2.43 0 0 1 0-3.23c.93-1 1.81-1.95 2.63-2.86a1.39 1.39 0 0 1 1-.48 1.64 1.64 0 0 1 1.26.67c.77 1 1.47 1.91 2.1 2.81a2.82 2.82 0 0 1 0 2.95c-.62.91-1.33 1.85-2.09 2.8a1.64 1.64 0 0 1-1.27.67zm5.18-6.71c-.15 0-.4-.13-.67-.51-.64-.93-1.37-1.9-2.16-2.89a2.49 2.49 0 0 1-.3-2.83c.64-.74 1.21-1.45 1.72-2.09a.21.21 0 0 1 .19-.11c.2 0 .57.23.87.74a19.1 19.1 0 0 1 1.31 2.65 5.12 5.12 0 0 1 .22 2.69 15.13 15.13 0 0 1-.87 2.06c-.06.12-.17.29-.31.29z"/><path d="M25.82 40.9a2.77 2.77 0 0 1-.83-.1 14 14 0 0 1-2.06-.87c-.11 0-.28-.15-.29-.29s.12-.41.51-.69c.93-.63 1.9-1.36 2.89-2.15a2.86 2.86 0 0 1 1.76-.62 1.65 1.65 0 0 1 1.07.32c.74.63 1.45 1.2 2.1 1.71.1.09.11.15.1.21 0 .22-.25.56-.74.85a17.1 17.1 0 0 1-2.65 1.31 5.72 5.72 0 0 1-1.86.32zm6.55-3.65a.9.9 0 0 1-.55-.15c-.62-.48-1.31-1.05-2-1.67a.94.94 0 0 1-.33-.71 2.12 2.12 0 0 1 .74-1.55c1-.94 1.95-1.9 2.87-2.88a2.2 2.2 0 0 1 1.51-.74 1 1 0 0 1 .75.32Q36.27 31 37 31.94c.3.38.14 1.39-.56 2.19A27.52 27.52 0 0 1 34 36.54a2.65 2.65 0 0 1-1.63.71zm5.93-6.07s-.11 0-.2-.12c-.5-.63-1.07-1.33-1.7-2.08a2.48 2.48 0 0 1 .29-2.84c.79-1 1.51-1.95 2.16-2.89.27-.37.53-.51.67-.51s.25.18.3.28a15.77 15.77 0 0 1 .89 2.1 5.15 5.15 0 0 1-.24 2.68 16.82 16.82 0 0 1-1.3 2.63c-.3.51-.67.75-.87.75z" class="cls-2"/><path d="M70.2 41.92c-7 0-14.56-4.7-14.56-15V15c0-10.3 7.54-15 14.56-15s14.57 4.7 14.57 15v11.91c0 10.31-7.55 15.01-14.57 15.01zM70.2 6c-4 0-8.56 2.36-8.56 9v11.91c0 6.65 4.61 9 8.56 9s8.57-2.36 8.57-9V15c0-6.64-4.62-9-8.57-9zm40.9 35.38h-9.71c-7.9 0-12-5.85-12-11.64a3 3 0 0 1 6 0c0 2.75 1.6 5.69 6.08 5.69h9.71c4.48 0 6.07-3 6.07-5.74S115.58 24 111.1 24h-8.74c-8.26 0-12-6-12-11.64 0-5.81 4.14-11.69 12-11.69h7.76c6 0 12 4 12 11.69a3 3 0 0 1-6 0c0-2.75-1.6-5.69-6.08-5.69h-7.76c-4.48 0-6.07 2.94-6.07 5.69s1.59 5.69 6.07 5.69h8.74c8.26 0 12 6 12 11.63s-3.66 11.7-11.92 11.7zm31.47.62c-7 0-14.56-4.7-14.56-15V3.25a3 3 0 0 1 6 0V27c0 6.65 4.61 9 8.56 9a9.45 9.45 0 0 0 3.8-.77 2.57 2.57 0 0 1 1.28-.3 2.87 2.87 0 0 1 2.85 3 2.93 2.93 0 0 1-1.5 2.65 14.19 14.19 0 0 1-6.43 1.42z" class="cls-4"/></g></g></svg>