<svg xmlns="http://www.w3.org/2000/svg" role="img" xmlns:xlink="http://www.w3.org/1999/xlink" viewBox="-3.02 0.48 274.04 67.04"><title>OpenAPV logo</title><defs><path d="M23.14453-44.21094c7.59766 0 13.22266 2.44532 16.875 7.32813 2.85156 3.8086 4.27734 8.67968 4.27734 14.61718 0 6.42579-1.6328 11.76563-4.89062 16.02344-3.82813 5-9.28906 7.5-16.3789 7.5-6.6211 0-11.82422-2.1875-15.61329-6.5625-3.3789-4.21875-5.07031-9.54687-5.07031-15.99219 0-5.8203 1.44531-10.80468 4.33594-14.9453 3.71094-5.3125 9.19922-7.96876 16.46484-7.96876zm.58594 40.25782c5.13672 0 8.85156-1.84375 11.14844-5.52344 2.29297-3.6836 3.4414-7.91407 3.4414-12.70313 0-5.0586-1.32422-9.1289-3.96875-12.21484-2.64843-3.08594-6.26562-4.6289-10.85547-4.6289-4.45312 0-8.08593 1.52734-10.89843 4.58593-2.8125 3.05469-4.21875 7.5625-4.21875 13.51953 0 4.76563 1.20703 8.78516 3.61718 12.05469 2.41407 3.27344 6.32422 4.91015 11.73438 4.91015zm0 0" id="a"/><path d="M17.10938-3.54688c2.46093 0 4.5078-1.02734 6.13671-3.08984 1.63282-2.0586 2.44922-5.14062 2.44922-9.24219 0-2.5-.36328-4.64843-1.08593-6.4453-1.3672-3.45704-3.8672-5.1836-7.5-5.1836-3.65235 0-6.15235 1.82422-7.5 5.47656-.72266 1.95313-1.08594 4.4336-1.08594 7.4414 0 2.42188.36328 4.48048 1.08593 6.1836 1.3672 3.24219 3.8672 4.85938 7.5 4.85938zM3.45702-31.23046h5.1289v4.16016c1.0547-1.42578 2.20313-2.53125 3.45313-3.3125 1.77735-1.17188 3.86719-1.75782 6.27344-1.75782 3.55469 0 6.57031 1.36329 9.05078 4.08985 2.48047 2.72265 3.72266 6.61328 3.72266 11.67578 0 6.83594-1.78907 11.71875-5.36328 14.64844C23.45703.1289 20.8203 1.05469 17.8125 1.05469c-2.36328 0-4.34375-.51563-5.94531-1.55469-.9375-.58594-1.98438-1.58984-3.13672-3.01563v16.02344H3.45703zm0 0" id="b"/><path d="M16.9336-32.07813c2.22656 0 4.38671.51954 6.47265 1.56641 2.08984 1.04297 3.6836 2.39453 4.77734 4.0586 1.0547 1.58203 1.75782 3.42578 2.10938 5.53515.3125 1.44531.46875 3.75.46875 6.91406H7.76562c.09766 3.1836.84766 5.73828 2.25391 7.66016 1.40625 1.92578 3.58203 2.88672 6.53516 2.88672 2.7539 0 4.94922-.91016 6.58984-2.72266.9375-1.05469 1.60156-2.27734 1.99219-3.66406h5.1836c-.13673 1.15234-.58985 2.4375-1.35938 3.85156-.77344 1.41797-1.63672 2.57422-2.59375 3.47266C24.76562-.95703 22.78125.09766 20.42187.64453c-1.26953.3125-2.70703.46875-4.30859.46875-3.90625 0-7.21484-1.42187-9.9336-4.26172-2.71484-2.84375-4.0703-6.82031-4.0703-11.9375 0-5.03906 1.36718-9.13281 4.10156-12.27734 2.73437-3.14453 6.3086-4.71485 10.72265-4.71485zm8.41015 13.88282c-.21484-2.28516-.71484-4.10938-1.4961-5.47657-1.4453-2.53906-3.85546-3.80859-7.23828-3.80859-2.42187 0-4.45312.875-6.09374 2.6211-1.64063 1.75-2.50782 3.96874-2.60547 6.66406zm0 0" id="c"/><path d="M3.86719-31.375H8.875v4.45313c1.48438-1.83594 3.0586-3.15626 4.71875-3.95704 1.66016-.80078 3.50781-1.19921 5.53906-1.19921 4.45313 0 7.46094 1.55078 9.02344 4.65624.85938 1.69922 1.28906 4.13282 1.28906 7.29688V0h-5.36328v-19.77344c0-1.91406-.28515-3.46093-.84765-4.63281-.9375-1.95313-2.64063-2.92969-5.10157-2.92969-1.25 0-2.27343.1289-3.07422.38282-1.4453.42968-2.71484 1.28906-3.80859 2.57812-.8789 1.03516-1.44922 2.10547-1.71484 3.20703-.26172 1.10547-.39453 2.6836-.39453 4.73047V0H3.86719zm0 0" id="d"/><path d="M26.66016-17.63672L20.125-36.64844l-6.9414 19.01172zm-9.58204-25.40234h6.59376L39.28905 0h-6.39062l-4.36328-12.89063H11.51562L6.85548 0H.8789zm0 0" id="e"/><path d="M5.125-43.03906h19.36719c3.82812 0 6.91406 1.08203 9.25781 3.23828 2.34375 2.16016 3.51563 5.1914 3.51563 9.09766 0 3.35937-1.04688 6.28515-3.13282 8.77343-2.08984 2.49219-5.30468 3.73438-9.64062 3.73438H10.95703V0H5.125zm26.25 12.36718c0-3.16406-1.17188-5.3125-3.51563-6.4453-1.28906-.60548-3.05468-.91016-5.30078-.91016H10.95703v14.91015H22.5586c2.6172 0 4.7422-.55468 6.3711-1.66797 1.63281-1.11328 2.44531-3.07421 2.44531-5.88671zm0 0" id="f"/><path d="M7.96875-43.03906L20.33203-6.38672l12.21485-36.65234h6.53515L23.37891 0h-6.1836L1.52344-43.03906zm0 0" id="g"/></defs><use y="50" xlink:href="#a"/><use x="46.67" y="50" xlink:href="#b"/><use x="80.039" y="50" xlink:href="#c"/><use x="113.408" y="50" xlink:href="#d"/><use x="146.777" y="50" xlink:href="#e"/><use x="186.797" y="50" xlink:href="#f"/><use x="226.816" y="50" xlink:href="#g"/></svg>