<svg xmlns="http://www.w3.org/2000/svg" role="img" viewBox="-16.78 -12.78 1600.56 392.56"><title>Open Subdiv logo</title><defs><style>.cls-2{fill:#1fa7b7}.cls-3{fill:#fff}</style></defs><path fill="#bd672c" d="M72.663 18.22S24.486 98.41 16.492 184.722c-6.007 64.853 2.92 89.291 6.842 96.597 1.015 1.89 1.02 1.992 1.358 2.633.611 1.16.99 1.661 2.452 4.456 7.749 14.814 38.189 61.486 114.185 61.486 5.128 0 8.01-2.556 11.607-4.57C212.68 311.87 72.663 18.22 72.663 18.22z"/><ellipse cx="60.318" cy="204.583" class="cls-2" rx="24.389" ry="64.846" transform="rotate(-8.147 60.318 204.583)"/><ellipse cx="76.395" cy="202.648" class="cls-3" rx="8.968" ry="35.165" transform="rotate(-8.147 76.395 202.648)"/><path fill="#f2a426" d="M72.663 18.22s9.463 104.097 25.978 175.333c10.167 43.851 46.287 155.86 46.287 155.86s93.717-38.52 135.872-86.697c38.07-43.51 53.272-90.465 47.895-115.45-6.77-31.46-68.184-79.484-102.898-96.072C156.792 18.22 72.663 18.22 72.663 18.22z"/><path d="M150.471 107.166c-.072-.253-6.376-25.813-18.731-45.104-20.123-31.43-60.93-44.196-61.328-44.286l6.92-2.537c1.735.38 37.736 10.48 59.068 43.825 12.879 20.104 19.201 45.717 19.454 46.801zm-.703 244.461l-4.84-2.213c.163-.253 16.507-31.94 24.13-53.616 12.59-35.837 12.68-79.369 12.68-79.802h5.564c0 .433-.109 44.905-13.006 81.609-7.911 22.506-23.824 53.083-24.528 54.022z" class="cls-3"/><path d="M150.147 106.775c2.422-10.61 48.12-14.139 76.51 7.742 26.179 20.177 31.775 28.56 30.915 50.068s-47.311 65.95-73.981 51.325-25.702-26.767-29.82-36.188c-8.818-20.175-7.926-54.106-3.624-72.947z" class="cls-2"/><path d="M198.21 140.496c-11.848-7.79-39.385-14.486-46.83-4.584-10.727 14.267 2.799 48.39 2.799 48.39s15.156 38.41 40.103 32.817c24.95-5.59 29.794-36.245 29.794-43.204 0-6.961-13.145-25.055-25.865-33.419z" class="cls-3"/><path d="M220.34 174.414l-3.18-4.551 37.933-26.571.993.072c40.678 3.143 99.437 2.24 99.997 2.168l.109 5.563c-.65-.036-58.705.921-99.546-2.131z" class="cls-3"/><path fill="#cfd0d2" d="M390.656 181.91v-.397c0-37.914 28.468-71.114 70.32-71.114 41.834 0 69.922 32.802 69.922 70.717v.397c0 37.915-28.486 71.115-70.32 71.115s-69.922-32.803-69.922-70.717zm124.13 0v-.397c0-31.23-22.778-56.772-54.208-56.772s-53.828 25.144-53.828 56.375v.397c0 31.231 22.796 56.773 54.226 56.773s53.81-25.144 53.81-56.375zm41.382-33.2h15.137v20.43c8.237-12.193 20.23-22.597 38.89-22.597 24.349 0 48.517 19.255 48.517 52.636v.397c0 33.218-23.97 52.871-48.517 52.871-18.858 0-31.032-10.224-38.89-21.64v50.902h-15.137zm87.028 51.065v-.397c0-23.952-16.51-39.288-35.747-39.288-18.858 0-36.74 15.914-36.74 39.089v.397c0 23.573 17.882 39.288 36.74 39.288 19.635 0 35.747-14.523 35.747-39.089zm83.217 39.703c13.945 0 23.77-5.708 32.008-14.342l9.429 8.453c-10.206 11.38-22.58 19.039-41.835 19.039-27.889 0-50.685-21.423-50.685-53.052 0-29.46 20.629-53.033 48.717-53.033 30.057 0 47.343 23.97 47.343 53.828 0 1.373 0 2.944-.199 5.293h-80.543c2.168 21.422 17.882 33.814 35.765 33.814zm29.66-45.989c-1.77-18.46-12.374-34.175-32.406-34.175-17.485 0-30.851 14.54-33.02 34.175zm36.867-44.779h15.136v17.666c6.665-11 17.305-19.833 34.79-19.833 24.53 0 38.871 16.51 38.871 40.66v63.076h-15.1v-59.337c0-18.858-10.224-30.653-28.107-30.653-17.485 0-30.454 12.77-30.454 31.827v58.163H792.94zm106.246 81.52l17.883-21.423c12.355 10.223 25.324 16.726 41.04 16.726 12.39 0 19.832-4.913 19.832-12.97v-.397c0-7.658-4.696-11.596-27.672-17.503-27.709-7.063-45.592-14.721-45.592-42.033v-.397c0-24.945 20.05-41.437 48.12-41.437 20.05 0 37.138 6.286 51.083 17.485l-15.715 22.778c-12.174-8.454-24.168-13.547-35.765-13.547s-17.666 5.292-17.666 11.975v.398c0 9.031 5.889 11.976 29.66 18.063 27.89 7.28 43.604 17.286 43.604 41.256v.397c0 27.312-20.808 42.63-50.468 42.63a87.38 87.38 0 0 1-58.344-22.002zm126.261-17.088v-68.17h29.877v58.74c0 14.162 6.647 21.424 18.063 21.424 11.38 0 18.64-7.262 18.64-21.423v-58.741h29.877v105.307h-29.876v-14.92c-6.864 8.815-15.715 16.871-30.816 16.871-22.615 0-35.765-14.92-35.765-39.088zm148.045 23.373v13.764h-29.84V106.86h29.84v53.231c7.262-9.808 17.305-17.087 32.803-17.087 24.566 0 47.94 19.255 47.94 54.424v.38c0 35.168-22.977 54.423-47.94 54.423-15.896 0-25.722-7.261-32.803-15.715zm50.902-38.709v-.38c0-17.484-11.813-29.08-25.758-29.08s-25.541 11.596-25.541 29.08v.38c0 17.503 11.597 29.1 25.541 29.1s25.758-11.416 25.758-29.1zm42.123 0v-.38c0-35.168 22.977-54.423 47.94-54.423 15.895 0 25.722 7.28 32.802 15.715v-51.86h29.877V250.28h-29.877v-15.136c-7.261 9.826-17.268 17.087-32.802 17.087-24.566 0-47.94-19.255-47.94-54.424zm81.14 0v-.38c0-17.484-11.597-29.08-25.541-29.08s-25.722 11.397-25.722 29.08v.38c0 17.503 11.777 29.1 25.722 29.1s25.54-11.597 25.54-29.1zm51.805-90.948h31.43v26.517h-31.43zm.794 38.114h29.84v105.307h-29.84zm43.569 0h31.61l23.59 70.518 23.771-70.518h31.033l-41.473 106.102h-27.095z"/></svg>