<svg xmlns="http://www.w3.org/2000/svg" role="img" viewBox="-0.33 0.92 179.53 77.28"><title>OpenImageIO logo</title><path d="M57.505 74.825v-.978a19.846 19.846 0 0 0 4.549-1.272 9.666 9.666 0 0 0 3.57-2.543 3.94 3.94 0 0 0 .734-1.663 21.327 21.327 0 0 0 .39-2.543q.147-1.466.196-3.08.048-1.614.05-3.18 0-1.368.048-3.716.048-2.349.098-5.135.048-2.788.049-5.722V16.725q0-1.761-.147-3.277a20.056 20.056 0 0 0-.44-2.739 4.518 4.518 0 0 0-.88-1.907 7.764 7.764 0 0 0-3.375-2.396 19.873 19.873 0 0 0-4.548-1.028V4.4h29.246v.978a25.36 25.36 0 0 0-4.402 1.077 6.298 6.298 0 0 0-3.619 3.13 9.33 9.33 0 0 0-.93 4.206q-.05 2.544-.146 4.792 0 2.446-.049 4.842-.05 2.398-.049 4.842v32.766q0 2.84.098 5.478a6.994 6.994 0 0 0 .88 3.717 7.272 7.272 0 0 0 3.717 2.543 20.021 20.021 0 0 0 4.597 1.076v.978zm34.445 0v-.978a19.85 19.85 0 0 0 4.55-1.272 9.66 9.66 0 0 0 3.568-2.543 3.94 3.94 0 0 0 .735-1.663 21.437 21.437 0 0 0 .39-2.543q.147-1.466.197-3.08.047-1.614.049-3.18 0-1.368.048-3.716.049-2.349.098-5.135.048-2.788.049-5.722V16.725q0-1.761-.147-3.277a20.132 20.132 0 0 0-.44-2.739 4.524 4.524 0 0 0-.88-1.907 7.764 7.764 0 0 0-3.375-2.396 19.88 19.88 0 0 0-4.548-1.028V4.4h29.245v.978a25.371 25.371 0 0 0-4.401 1.077 6.3 6.3 0 0 0-3.62 3.13 9.33 9.33 0 0 0-.928 4.206q-.051 2.544-.147 4.792 0 2.446-.05 4.842-.049 2.398-.048 4.842v32.766q0 2.84.098 5.478a6.994 6.994 0 0 0 .88 3.717 7.27 7.27 0 0 0 3.717 2.543 20.018 20.018 0 0 0 4.597 1.076v.978z"/><path d="M145.9 7.347c-16.549 0-29.964 14.446-29.964 32.266S129.35 71.879 145.9 71.879s29.965-14.446 29.965-32.266S162.449 7.347 145.9 7.347zm15.036 52.514c-3.479 5.199-9.727 8.415-15.036 8.415a17.774 17.774 0 0 1-14.438-7.76c-3.548-5.213-4.788-12.948-4.788-20.971 0-8.456 1.003-16.059 4.894-21.316a18.946 18.946 0 0 1 14.332-7.415 18.638 18.638 0 0 1 13.192 5.989c4.548 5.255 6.034 13.487 6.034 22.742 0 7.934-.71 15.116-4.19 20.316zM33.192 7.347c-16.549 0-29.964 14.446-29.964 32.266s13.415 32.266 29.964 32.266 29.965-14.446 29.965-32.266S49.74 7.347 33.192 7.347zM48.228 59.86c-3.479 5.199-9.727 8.415-15.036 8.415a17.774 17.774 0 0 1-14.438-7.76c-3.548-5.213-4.788-12.948-4.788-20.971 0-8.456 1.003-16.059 4.894-21.316a18.945 18.945 0 0 1 14.332-7.415 18.638 18.638 0 0 1 13.192 5.989c4.548 5.255 6.034 13.487 6.034 22.742 0 7.934-.71 15.116-4.19 20.316z"/></svg>