<svg xmlns="http://www.w3.org/2000/svg" role="img" viewBox="3.59 2.59 92.56 92.56"><title>OpenFX logo</title><path fill="#052B00" stroke="#052B00" d="M33.5 24l1 2-1-2z"/><path stroke="#000" d="M50.5 5l1 1h8l11 4L85 22.5q6.9 8.1 9 21l-3 .5-.5-2-.5 2-5.5-1-1.5.5-.5-1.5-.5 2q-5.2 2.1-4-2.5L75 33l-3-1.5-4.5-5.5-4.5-2-.5-2-2 1v-2l-3 1-4-2-2 1h-2q-2.6.8-1.5-2.5h-1q1.1 3.3-1.5 2.5l-1.5-.5-.5 1.5h-2l-3 1-1.5-.5-1.5 2.5-2-1q-2.8 1.3-.5 2.5L29.5 30l-2-1-.5 1.5q2.5 1.5-1 3l-4 8 .5 1.5-4 1h-2q-5.4 1.9-4.5-1.5h-1l-.5 1.5h-2q-2.6.8-1.5-2.5L8 37l2-.5-1-2 2-4 1-3.5 2-.5-1-1 3-3 6.5-7.5 12-7 16-3zM46 8l-3 2q2 3 3 0V8zm2 0v1h2l-2-1zm-7 1l-1 2 2 1-1-3zm10 0q-2 3 1 2l-1-2zm5 0v2l2-1-2-1zm-9 2l-4 2h4v-2zm-10 1l-1 3h2l-1-3zm15 0l1 1 1 1q1-3-2-2zm13 0v3h1q1-4-1-3zm-24 1l1 2q1-3-1-2zm19 0l1 2q1-3-1-2zm-31 1l-1 2h3l-2-2zm11 1l-1 3h2l-1-3zm5 0v2h3q1-4-3-2zm10 0l1 2q1-3-1-2zm14 0v1h2l-2-1zm-41 1l-2 3 2-1v-2zm23 0l-1 3h1v-3zm8 0v2l2-1-2-1zm4 1l-1 2 2 1-1-3zm7 0l-1 3h2l-1-3zm-41 2q-2 3 1 2l-1-2zm7 0l-1 2 2 1-1-3zm3 0l1 3v-2h3l-4-1zm35 0l-3 2h3v-2zm-49 1l-3 2h3v-2zm40 0q-2 3 1 2l-1-2zm-47 1v2h3q1-4-3-2zm14 0q-2 3 1 2l-1-2zm-10 2v2q-1 3 3 2v-1q-3 1-2-3h-1zm5 0v2l2-1-2-1zm42 0v1h2l-2-1zm7 0l1 2 2-1-3-1zm6 0q-2 3 1 2l-1-2zm-2 2l-1 2 2-1-1-1zm-63 1l-3 2h3v-2zm4 0l-2 2h2v-2zm55 3v2l2-1-2-1zm5 1l1 4 1-3-2-1zm-2 1l-2 2h2v-2zm-62 1l-2 3 2-1v-2zm63 1q-2 3 1 2l-1-2zm-57 1l-1 3h1v-3zm-9 1l1 2q1-3-1-2zm4 0v3h1q1-4-1-3zm-1 2l-1 2 2 1-1-3zm63 0l-1 2 3 1-2-3zm3 0v2l2-1-2-1zm-72 1l-2 2h2v-2zm74 0v2l2-1-2-1zm-69 3v2l2-1-2-1zm-9 8h14.5q1 0 .5 4.5l1 3-.5 1.5q2.3-.7 1.5 1.5v2l3 3 6.5 7.5q7.1 6.9 23 5Q67.4 74.4 73 66.5l4-7 1-9 1.5-1.5H94v6.5l-5 2 4 .5q1.3 3-2.5 2v1q2.6-.8 1.5 2.5l-3 2 1 3h-2q.8 3.8-1.5 4.5l-1.5.5.5 1.5-3.5.5 2 1-2 1q2.8 1.8-1.5 3.5l-2-1-.5 1.5.5 1.5q-1.2-2.2-2.5.5l-.5 1.5-1-2-2 4-2 1-1.5-.5V89h-4q1.1 2.7-1.5 2L61 90q1.1 2.7-1.5 2v-2q-2.6-.7-1.5 2h-2.5q-1.2 2.3-6 1h-2l-2.5-.5q2.3-1.2-.5-2.5l-.5 2q-3.7 1.5-3-1.5l-3.5.5-1.5-.5.5-1.5-2 1-1-2-2 1-2-3h-2L23 83.5l.5-1.5q-4 .5-4.5-2.5.8-2.2-1.5-1.5L16 74l-3-1.5-2-7-3-4L7 49zm9 3v1h2l-2-1zm4 0l-2 2h2v-2zm63 0l1 1 1 1q1-3-2-2zm4 0q-2 3 1 2l-1-2zm4 0v1h2l-2-1zm-10 1l1 2q1-3-1-2zm-68 3v2l2-1-2-1zm4 1l-3 7h-2l2 4 3 1 4-1q2-1 1-4-1-4-5-3v-4zm65 1l-2 3q-2 4 2 3 1 3 3-1 2-1 1 2-2 1 1 2l1-4v-3l-5 3-1-2q2-2 0-3zm-3 6l-3 5v1l2-1 5 3 3-1v-1q-4 1-3-1h-1l-3-5zm-54 1q-2 3 1 2l-1-2zm57 1v1h2l-2-1zm-58 2l-1 1h-3q1 3-2 2v3l3-1 2 1q5 2 3-4l-2-2zm5 3l-5 9 4 2-2-4 4 1q1-3-1-2v-1l3 1q1-4-1-3l-2-3zm42 0l1 1-1 2 1 4q1 2 6 1 4-2 1-4l-2 3-4-2 2-3q1-4-4-2zm9 2v3h1q1-4-1-3zm-60 2v1h2l-2-1zm48 0q-2 3-6 3h3l4 7 3-1 1-2h-4l2-3h-4l3-2-2-2zm-35 2q1 3-1 2v2l-2 3q-1 2 2 1l2-4 1 7 4-6q1-4-2-3v3l-2-2q1-4-2-3zm23 2l-1 2-3-1 1 9q3 1 2-1v-2q3 1 2-2h-3l3-2-1-3zm5 0l-3 2 4 7h1l-1-4 3-1v-2l-2 1-2 1q-1-3 2-2 1-3-2-2zm-17 1l-2 2h2v-2zm2 0l-1 9 5 1v-1l1-2-4 1q-1-3 3-2 1-3-2-2v-1q3 1 2-1l1-2-2 1-3-1zm-5 1l-2 4h2v-4zm-14 2v2l2-1-2-1zm11 3v2l2-1-2-1zm3 1q-2 3 1 2l-1-2zm18 0l-2 2h2v-2z"/><path stroke="#000" d="M16.5 63q4.8-1.7 3.5 2.5L18.5 67 15 65.5l1.5-2.5zm7 7l1 2-2.5-.5 1.5-1.5z"/><path fill="#050533" stroke="#050533" d="M85.5 65l1 2-1-2zm4 0l1 2-1-2zm-68 1l-1 2 1-2zm57 14l1 2-1-2zm-11 3l1 2-1-2zm-27 7l-1 2 1-2z"/><path fill="#D9E0E3" stroke="#D9E0E3" d="M22.5 14l-1 2 1-2zm0 55l-.5 1.5-.5 1.5-.5-1.5 1.5-1.5zm2 0l1 2-1-2zm50 2l-1 2 1-2zm-45 3l1 2-1-2zm-3 2l-.5 1.5-1.5 2.5.5-1.5 1.5-2.5zm58 1l-1 2 1-2zm-24 3l-1 2 1-2zm1 3l-1 2 1-2zm-12 10l3.5.5-3.5.5v-1z"/><path fill="#FFF" stroke="#FFF" d="M0 0h100v100H0V0zm43 5q-13 2-20 9Q10 24 6 43l1 1h16l4-10 10-9 13-4 11 2 8 5 8 13 1 3h16q-1-13-8-21-8-11-20-16-9-4-23-2zM6 49l1 12 7 15 13 11 14 6q5-1 7 1 21 0 32-11 12-10 15-29v-5H78q0 11-6 17 1 2-2 1v2h-2v2l-7 4-9 2q-11 0-17-5-9-6-12-16v-7H6zm9.5 13l-1 2 1-2zm64 6l1 2-1-2zm-59 3l-1 2 1-2zm8 3l-1 2 1-2zm5 4l1 2-1-2zm33 1l1 2-1-2zm2 3l1 2-1-2z"/><path fill="#FFF" stroke="#FFF" d="M53.5 85l.5 2.5h-1l.5-2.5z"/><path fill="#494C49" stroke="#494C49" d="M45.5 5l3.5.5-3.5.5V5zm6 0l4.5.5-4.5.5V5zm20 5l1 2-1-2zm-47 3l-1 2 1-2zm56 4l4 5-4-5zm-65 5l-1 2 1-2zm49 2l1 2-1-2zm-31 2l-1 2 1-2zm34 0l4 5-4-5zm-39 5l-2 3 2-3zm45 2l1 2-1-2zm-67 16l.5 4.5H6l.5-4.5zm75 10l.5 2.5-1.5 2.5.5-1.5-1-2 1.5-1.5zm-66 2l3.5 1.5-1.5.5-2-1v2q-3-1.5 0-3zm6 2v3q-3-1.5 0-3zm57 1l1 2-1-2zm-51 1l1 2-1-2zm-12 1l-1 2 1-2zm62 0v3q-3-1.5 0-3zm-6 1l-3 4 3-4zm-47 1q3 1.5 0 3v-3zm56 0l-1 2 1-2zm-59 1l-1 3 2 1q1.2-2.2 2.5.5l-3.5-.5-2-1-1 2-.5-1.5 3.5-3.5zm11 1l1 2-1-2zm51 0l.5 2-2-.5 1.5-1.5zm-10 1l1 2-2.5-.5 1.5-1.5zm14 1l-1 2 1-2zm-74 1l1 2-1-2zm15 0v3l-2.5-.5 2.5-2.5zm57 2l-1 2 1-2zm-12 1q3 1.5 0 3-3-1.5 0-3zm-57 1l5 6-5-6zm54 1l.5 1.5-4 3q3.1-1.7 1.5-3.5l1.5.5.5-1.5zm-38 1l1 2-1-2zm28 0l2.5 1.5-2.5 1.5v-3zm-33 1l-1 2 1-2zm4 1l1 2-1-2zm4 0l1 2q-2.8.7-1-2zm10 0l1 2 3-2 .5 2-3.5 1-1-3zm7 0l.5 3.5h-1l.5-3.5zm10 1q2.3-.7 1.5 1.5L62.5 82zm-32 1l1 2q-2.8.7-1-2zm47 0l-1 2 1-2zm-53 1l1 2-1-2zm10 0l1 2 1.5-.5q-1.5 3-3 0l.5-1.5zm14 0q2.3-.7 1.5 1.5L48.5 84zm6 0l2.5.5q.8 2.3-1.5 1.5l-1-2zm7 0l-.5 1.5-.5 1.5-.5-1.5 1.5-1.5zm13 1l-1 2 1-2z"/><path fill="#AEAEAF" stroke="#AEAEAF" d="M20.5 16l-3 4 3-4zm11 12l-2 3 2-3zm-12 33l2.5 3.5-2.5 3.5-.5-1.5q4-2 0-4l.5-1.5zm65 0l.5 1.5-2 1 1.5-2.5zm2 0l1 2q-2.8.7-1-2zm-8 4l.5 3.5h-1l.5-3.5zm-62 2q2.3-.7 1.5 1.5L16.5 67zm13 0l2 3-2-3zm-6 1l.5 1.5-2 1 1.5-2.5zm-1 4l2.5.5q-2.1 3.3-2.5-.5zm5 4l2 3-3.5-1.5 1.5-1.5zm18 0l2.5.5-2.5.5v-1zm33 0l-.5 1.5-.5 1.5-.5-1.5 1.5-1.5zm-11 1l-1 2-1.5-.5 2.5-1.5zm-34 2l-1 2 1-2zm5 0l.5 2-2-.5 1.5-1.5zm44 0l-2 3 2-3zm-48 2l2.5 3.5-1.5.5q-2.5-1-1-4zM46 81l3 .5-3 2 3 2-4 .5 1-5zm7.5 0l.5 2.5h-1l.5-2.5zm2 3l-1 2 1-2z"/></svg>