<svg xmlns="http://www.w3.org/2000/svg" role="img" viewBox="219.32 41.82 360.36 529.36"><title>OTOY, Inc. logo</title><style>svg {enable-background:new 0 0 792 612}</style><style>.st0{fill:#d71920}</style><linearGradient id="SVGID_1_" x1="0" x2=".707" y1="612" y2="611.293" gradientUnits="userSpaceOnUse"><stop offset="0" stop-color="#20ac4b"/><stop offset=".983" stop-color="#19361a"/></linearGradient><g id="Layer_2"><path d="M399.75 161.38c-33.62 0-60.87 27.25-60.87 60.87s27.25 60.87 60.87 60.87 60.87-27.25 60.87-60.87-27.25-60.87-60.87-60.87zm156.52 28.18L432.44 65.73c-17.98-17.98-47.39-17.98-65.37 0L243.23 189.57c-17.98 17.98-17.98 47.39 0 65.37l123.83 123.83c17.98 17.98 47.39 17.98 65.37 0l123.83-123.83c17.98-17.98 17.98-47.4.01-65.38zM399.75 321.64c-54.89 0-99.39-44.5-99.39-99.39s44.5-99.39 99.39-99.39 99.39 44.5 99.39 99.39-44.5 99.39-99.39 99.39z" class="st0"/><path d="M281.45 475.45c10.94 0 19.84 8.9 19.84 19.84s-8.9 19.84-19.84 19.84-19.84-8.9-19.84-19.84 8.9-19.84 19.84-19.84m0-22.04c-23.13 0-41.88 18.75-41.88 41.88 0 23.13 18.75 41.88 41.88 41.88 23.13 0 41.88-18.75 41.88-41.88 0-23.13-18.74-41.88-41.88-41.88zm143.86 22.04c10.94 0 19.84 8.9 19.84 19.84s-8.9 19.84-19.84 19.84-19.84-8.9-19.84-19.84 8.9-19.84 19.84-19.84m0-22.04c-23.13 0-41.88 18.75-41.88 41.88 0 23.13 18.75 41.88 41.88 41.88 23.13 0 41.88-18.75 41.88-41.88 0-23.13-18.75-41.88-41.88-41.88zm-47.98 3.42h-18v-28h-25.5v108.34h25.5V478.5h18zm157.43 0l-11.59 42.4-6.4-.05c-11.73-.27-13.81-10.8-13.99-11.91l-8.32-30.44h-25.13c5.11 18.13 10.32 36.59 12.88 45.65 4.98 17.65 18.4 18.54 21.04 18.54.24 0 .39-.01.55-.01l13.39.09-1.71 6.26c-.2 1.2-2.26 11.74-14.05 12.01l-16.43-.02-4.64 21.81 34.21.03c.02 0 .17.01.43.01 2.64 0 16.06-.89 21.04-18.54 4.51-15.98 17.29-61.31 23.2-82.31l.99-3.51h-25.47z" class="st0"/></g></svg>