<svg xmlns="http://www.w3.org/2000/svg" role="img" viewBox="10.89 2.39 473.72 436.22"><title>Partio logo</title><defs><style>.cls-1{fill:#756d5a}</style></defs><path d="M262.715 12.82c1.865 2.41 4.331 4.567 5.48 7.281 3.12 7.38 2.972 14.578-4.183 19.762-6.463 4.682-13.082 3.954-18.546-1.663-5.918-6.085-6.614-12.924-.853-19.735 1.663-1.966 3.518-3.768 5.285-5.645zm182.221 290.783a26.11 26.11 0 0 1-25.862 26.742 26.554 26.554 0 0 1-27.443-25.416c-.623-14.98 11.444-27.466 26.92-27.856 13.888-.35 26.166 11.996 26.385 26.53zm1.48-160.766c.358 13.325-10.2 23.877-24.04 24.027-13.987.152-24.732-10.052-24.644-23.405a24.653 24.653 0 0 1 24.09-24.607c13.157-.263 24.233 10.54 24.594 23.985zM395.668 368.77c-.424 12.56-11.701 22.787-24.597 22.31-11.782-.437-21.818-11.188-21.735-23.284.085-12.54 11.087-23.283 23.673-23.115 12.73.171 23.095 11.189 22.659 24.088zM390.862 67.1c12.1.346 20.807 9.372 20.635 21.393-.177 12.417-10.212 21.66-22.882 21.076-11.166-.515-20.405-11.039-19.784-22.534.644-11.924 9.882-20.282 22.031-19.935zm-80.087 314.897c13.597.392 22.923 10.106 22.364 20.834-.583 11.188-10.347 20.347-21.332 19.208-12.649-1.311-19.11-9.138-18.65-21.566.455-12.283 8.748-17.284 17.618-18.476zM365.563 52.14c-1.148 11.818-7.299 19.016-19.273 18.715-10.683-.269-18.17-6.065-18.606-17.522-.465-12.181 6.552-18.922 18.264-19.414 11.983-.502 18.178 6.609 19.615 18.22zm-48.59-19.154c-1.435 10.74-7.03 17.293-17.805 17.084-10.05-.194-16.236-6.877-16.166-16.374.075-10.292 6.932-17.174 17.468-16.945 9.72.211 14.984 6.954 16.503 16.235zm-99.671 371.748c-1.287 8.639-7.025 14.084-15.878 13.806-8.847-.278-15.199-5.846-14.61-15.397.555-9.01 5.856-14.553 15.604-14.308 9.86.248 13.952 6.184 14.884 15.899zm12.939-372.579c-1.39 7.776-5.35 12.812-13.48 13.058-8.404.255-13.099-5.089-13.205-12.575-.107-7.573 4.995-13.07 12.918-13.126 7.85-.056 12.064 5.33 13.767 12.643zm-56.445 352.992c-1.736 7.414-6.057 12.753-14.027 12.31-7.761-.431-12.927-5.33-12.309-13.572.59-7.848 5.508-12.635 13.611-12.31 8.153.33 12.073 5.522 12.725 13.572zm-32.853-25.004c-1.524 6.183-4.324 11.352-11.433 11.27-7.626-.087-11.966-4.652-11.465-12.211.445-6.73 4.952-10.557 11.775-10.346 6.988.217 10.13 4.846 11.123 11.287zm54.449-317.098c-1.678 7.43-5.357 12.339-12.825 11.912-6.647-.38-10.326-4.802-10.248-11.504.078-6.694 3.992-10.998 10.483-11.416 7.596-.49 10.84 4.888 12.59 11.008zm-38.617 5.189c5.728 1.195 9.77 4.361 9.661 10.474-.112 6.25-4.233 9.339-10.305 9.362-6.38.025-9.746-3.406-9.404-9.828.327-6.156 3.957-9.334 10.048-10.008zm-40.246 284.327c-.157 6.12-2.895 10.162-9.46 10.217-5.672.048-9.163-3.505-9.364-8.824-.227-6.045 3.455-10.233 9.612-10.442 5.504-.186 8.617 3.393 9.212 9.05zm27.763-256.668c-1.198 5.808-4.408 8.838-9.924 8.2-5.171-.6-9.058-3.671-8.39-9.199.626-5.175 4.45-8.338 9.893-7.981 5.547.363 8.026 4.049 8.42 8.98zM92.798 315.361c-5.22-.449-8.355-3.465-8.361-8.153-.008-5.324 3.094-9.272 8.923-9.125 4.837.122 8.196 3.293 8.32 8.068.146 5.635-3.685 8.445-8.882 9.21zM125.92 91.09c.37 6.37-2.048 9.754-6.72 10.184-4.846.447-7.635-2.97-8.075-7.597-.405-4.243 2.248-6.975 6.232-7.583 4.708-.719 8.01 1.296 8.564 4.997zm-13.31 18.698c.094 4.636-2.423 7.41-6.513 7.726-4.264.33-7.03-2.47-7.27-6.782-.208-3.745 2.504-6.167 5.743-6.69 4.126-.665 7.093 1.548 8.04 5.746zM92.128 281.487c-.36 4-2.377 6.766-6.632 7.406-4.319.65-7.5-1.298-8.194-5.5-.818-4.95 1.766-8.328 6.905-8.522 4.13-.157 6.732 2.473 7.921 6.616zm3.008-160.292c4.234.867 6.702 2.887 6.508 6.454-.223 4.085-2.775 7.218-7.045 6.73-4.106-.467-6.327-3.737-5.518-7.954a6.138 6.138 0 0 1 6.055-5.23zM79.78 266.053c-3.887-1.14-6.52-3.7-5.759-7.819a6.04 6.04 0 0 1 6.758-5.146c4.354.47 6.446 3.33 5.633 7.575a6.185 6.185 0 0 1-6.632 5.39zM77.965 149.2q12.03 0 20.474 3.13a38.838 38.838 0 0 1 13.74 8.264 31.259 31.259 0 0 1 7.722 11.714 39.354 39.354 0 0 1 0 27.199 31.095 31.095 0 0 1-7.722 11.794 38.815 38.815 0 0 1-13.74 8.264q-8.443 3.128-20.474 3.13H48.332v41.078H20.136V149.2zm-7.723 53.917a65.78 65.78 0 0 0 9.339-.642 23.433 23.433 0 0 0 7.903-2.487 14.339 14.339 0 0 0 5.478-5.215 19.892 19.892 0 0 0 0-17.651 14.358 14.358 0 0 0-5.478-5.215 23.568 23.568 0 0 0-7.903-2.487 66.161 66.161 0 0 0-9.339-.642h-21.91v34.34zm55.082 3.793a23.742 23.742 0 0 1 4.47-13.044 29.175 29.175 0 0 1 10.015-8.33 47.547 47.547 0 0 1 13.68-4.479 88.338 88.338 0 0 1 15.29-1.335 118.144 118.144 0 0 1 14.127.864 47.911 47.911 0 0 1 13.054 3.379 25.31 25.31 0 0 1 9.657 6.993q3.754 4.48 3.755 11.866v42.275a74.676 74.676 0 0 0 .715 10.53 17.338 17.338 0 0 0 2.504 7.543h-25.75a28.492 28.492 0 0 1-1.164-3.85 29.376 29.376 0 0 1-.625-4.008 34.117 34.117 0 0 1-14.307 7.701 64.824 64.824 0 0 1-16.81 2.2 51.31 51.31 0 0 1-12.339-1.414 29.894 29.894 0 0 1-10.014-4.401 21.083 21.083 0 0 1-6.705-7.543 22.86 22.86 0 0 1-2.415-10.844q0-6.914 2.773-11.393a21.456 21.456 0 0 1 7.152-7.151 34.315 34.315 0 0 1 10.015-4.008q5.632-1.334 11.355-2.121 5.721-.786 11.266-1.258a76.43 76.43 0 0 0 9.836-1.414 18.293 18.293 0 0 0 6.795-2.75 5.696 5.696 0 0 0 2.325-5.265 10.663 10.663 0 0 0-1.341-5.737 9.286 9.286 0 0 0-3.577-3.3 15.433 15.433 0 0 0-5.187-1.571 48.426 48.426 0 0 0-6.347-.393q-7.511 0-11.803 2.829-4.292 2.829-5.007 9.43zm58.655 16.502a11.875 11.875 0 0 1-4.024 1.964 45.771 45.771 0 0 1-5.186 1.178q-2.775.472-5.812.786-3.043.318-6.08.786a51.27 51.27 0 0 0-5.633 1.257 17.693 17.693 0 0 0-4.828 2.122 10.578 10.578 0 0 0-3.308 3.379 9.779 9.779 0 0 0-1.252 5.186 9.439 9.439 0 0 0 1.252 5.029 8.948 8.948 0 0 0 3.397 3.222 15.592 15.592 0 0 0 5.008 1.65 36.199 36.199 0 0 0 5.9.472q7.512 0 11.624-2.2a15.915 15.915 0 0 0 6.08-5.265 15.525 15.525 0 0 0 2.414-6.208 37.843 37.843 0 0 0 .448-5.029zm60.051-41.474v15.196h.337a27.326 27.326 0 0 1 4.546-7.044 29.271 29.271 0 0 1 6.566-5.54 33.08 33.08 0 0 1 7.912-3.562 30.25 30.25 0 0 1 8.754-1.266 19.797 19.797 0 0 1 5.22.791v20.894q-1.686-.315-4.041-.554a45.422 45.422 0 0 0-4.545-.237 26.901 26.901 0 0 0-11.112 2.057 19.056 19.056 0 0 0-7.323 5.62 21.885 21.885 0 0 0-3.956 8.31 42.622 42.622 0 0 0-1.179 10.288v36.882h-23.905v-81.835zm86.84-2.427v15.624h-12.284v42.103q0 5.92 2.02 7.894 2.02 1.973 8.08 1.973 2.02 0 3.872-.164a33.54 33.54 0 0 0 3.536-.493v18.09a58.487 58.487 0 0 1-6.734.659q-3.705.162-7.24.164a71.378 71.378 0 0 1-10.52-.74 25.165 25.165 0 0 1-8.755-2.879 15.374 15.374 0 0 1-5.977-6.085q-2.189-3.947-2.188-10.36v-50.162h-8.508v-15.624h8.508v-18.029h23.906v18.03zm12.866-6.361V153.8h23.905v19.351zm23.905 8.1v85.508h-23.905V181.25zm12.23 24.1a38.845 38.845 0 0 1 10.038-13.91 46.08 46.08 0 0 1 15.615-8.897 62.214 62.214 0 0 1 20.448-3.155 63.078 63.078 0 0 1 20.542 3.155 45.978 45.978 0 0 1 15.708 8.896 38.928 38.928 0 0 1 10.039 13.911 45.441 45.441 0 0 1 3.53 18.198 44.849 44.849 0 0 1-3.53 18.117 39.064 39.064 0 0 1-10.039 13.83 44.884 44.884 0 0 1-15.708 8.816 64.64 64.64 0 0 1-20.542 3.074 63.754 63.754 0 0 1-20.448-3.074 44.97 44.97 0 0 1-15.615-8.815 38.98 38.98 0 0 1-10.038-13.83 44.799 44.799 0 0 1-3.532-18.118 45.39 45.39 0 0 1 3.532-18.198zm23.98 27.984a24.125 24.125 0 0 0 3.812 8.573 19.262 19.262 0 0 0 7.156 6.067 24.496 24.496 0 0 0 11.153 2.264 25.098 25.098 0 0 0 11.248-2.264 19.123 19.123 0 0 0 7.25-6.067 24.193 24.193 0 0 0 3.81-8.573 42.83 42.83 0 0 0 1.115-9.786 43.92 43.92 0 0 0-1.115-9.867 23.397 23.397 0 0 0-3.81-8.573 20.188 20.188 0 0 0-7.25-6.066 24.411 24.411 0 0 0-11.248-2.346 23.828 23.828 0 0 0-11.153 2.346 20.355 20.355 0 0 0-7.156 6.066 23.333 23.333 0 0 0-3.812 8.573 43.976 43.976 0 0 0-1.115 9.867 42.885 42.885 0 0 0 1.115 9.786z" class="cls-1"/><circle cx="253.928" cy="412.443" r="17.596" class="cls-1"/><circle cx="256.149" cy="27.437" r="15.509" class="cls-1"/></svg>