<svg xmlns="http://www.w3.org/2000/svg" role="img" viewBox="50.32 -3.55 152.36 136.99"><title>Partio logo</title><path stroke="#000" d="M128.5 0l4.5 2.5q1 5.5-2.5 6.5-4.7.8-5.5-2.5-1-4.5 1.5-5.5l2-1zm14 1l3.5 1 2 4.5-3.5 4.5q-5.5 1-6.5-2.5l1-6.5 3.5-1zm-27 1q4-.5 4.5 2.5 1.9 5.4-1.5 4.5l-3 1q-3.2-.7-2.5-5.5l2.5-2.5zm-10 4l3.5 1 1 2.5-2.5 3.5q-4 .5-4.5-2.5-.5-4 2.5-4.5zm49 1q7.3-1.2 8.5 3.5.6 5.1-2.5 6.5l-5 1-3.5-2.5q-1.5-7 2.5-8.5zm-57 4l3.5 2.5-1 3.5q-3.8 1-5-1.5-.5-4 2.5-4.5zm-7 6q3.3-1.1 2.5 1.5l1 2-3.5 1.5-1.5-3.5 1.5-1.5zm78 0q5.8-.8 7.5 2.5l1 6-2.5 3.5-6 1q-4.1-1.9-4.5-7.5l4.5-5.5zm-83 6q4.6-1.2 2.5 4-5.2 2.1-4-2.5l1.5-1.5zm-4 6l2.5 1.5-4 1.5 1.5-3zm99 4q4.8.3 6.5 3.5l1 7q-1.6 5.4-9.5 4.5l-3.5-2.5-2-5 4.5-6.5 3-1zm-102 1q2.6-.8 1.5 2.5-1.5 3-3 0l1.5-2.5zm-22 9h21q5.8 1.3 8.5 5.5l1 8-3.5 6.5q-7.4 4.4-19.5 3l-1 12-5.5 1-3.5-2.5v-32l1.5-.5 1-1zm7.5 6l-1 3q-1 6 3 8 6 1 10-1 3-1 2-7l-3-3H64zm92-6h7v5l-5.5 1q-2.7-1.4-1.5-6zm-14.5 2q5.5-1 6.5 2.5-1 4.5 1.5 5.5l3.5 1.5-1.5 2.5-3.5 1.5v14l1.5 1.5 3.5 1.5-1.5 3.5q-9 1.5-11.5-3.5v-17l-1.5-1.5q-3 .9-1.5-3.5l3-1.5q-1.5-5.4 1.5-7zm-46 7q12.1-1.6 17.5 3.5l1 2v19l1 1-4.5 1.5-6-2q-4 3.5-13 2L88 77q-1.7-2.4-1-8.5l5.5-4.5 9-1 4.5-2.5q1.1-3.3-1.5-2.5-1.5-2.5-7-1-2 4.8-9.5 3v-2.5l4.5-4.5 3-1zm4.5 15l-3 1q-3 1-2 6l3 1q6 1 8-3v-5h-6zm31.5-15h3.5v6l-6.5 1-2.5 2.5-1 2V78l-5.5 1-2.5-2.5v-17l1-6.5h6.5l.5 2h1.5l5-3zm45 0q13.6-2.1 18.5 4.5l4 8v3l-6.5 9.5q-5 4-16 2l-6.5-3q-3.5-3.8-4-11.5 1.4-8.1 7.5-11.5l3-1zm3.5 5l-2 1-4 6 1 7 5 3 7-1 3-5-1-7q-2-5-9-4zm-24-4h6.5l.5.5V78l-5.5 1-1.5-1.5V53zM73.5 75l2.5 1.5-1.5 2.5-2.5-1.5 1.5-2.5zm1 7q4.6-1.2 2.5 4l-4-1.5 1.5-2.5zm102 1q7.3-1.2 9.5 2.5l2 7-4.5 5.5-6 1-5.5-4.5q-1.7-9.7 4.5-11.5zm-99 6l2.5 1.5-1.5 3.5q-4.2 1.3-2.5-3.5l1.5-1.5zm4 8l3.5 1.5q.8 3.8-1.5 4.5l-3.5-1.5q-.7-3.7 1.5-4.5zm81 7q6.5-1 8.5 2.5l1 7q-2.1 4.4-8.5 4.5l-4.5-3.5-1-5 4.5-5.5zm-74 1q4-.5 4.5 2.5l-2.5 4.5q-4 .5-4.5-2.5-.5-4 2.5-4.5zm9 7q4.8-.7 5.5 2.5.8 3.8-1.5 4.5l-3 1-2.5-1-1-4.5 2.5-2.5zm46 4q7-1.5 8.5 2.5l1 3-3.5 5.5q-6 1.5-7.5-1.5l-1-7 2.5-2.5zm-34 2q5.3-1.2 6.5 1.5 1.3 5.3-1.5 6.5-5.2 1.3-6.5-1.5-1.2-5.2 1.5-6.5zm18 1l4.5 1 1 6.5q-.5 4-5.5 3.5l-4.5-3.5q-1-5.5 2.5-6.5l2-1z" opacity=".976"/><path stroke="#000" d="M125.5 1l-.5 1.5q-1 5 2 6l-3-2Q123 2 125.5 1zm-7 1q3.3.8 2.5 5.5h-1q.5-4.7-1.5-5.5zm28 1l1.5 2.5h-1l-.5-2.5zm-34 2l2.5 4.5-3-2 .5-2.5zm25 0l.5 2.5h-1l.5-2.5zm-33 1l-1 2 1-2zm52 0l2.5.5-2.5.5V6zm-24 1l-1 2 1-2zm15 0l.5 1.5q-1 4.5-7.5 3.5l-2-3q1 3 6 2l3-4zm6 0l-1 2 1-2zm7 0l2 3-2-3zm-9 3l.5 4.5h-1l.5-4.5zm-55 1l-1 2 1-2zm2 0l2.5 1.5-1.5-.5-1-1zm5 0l1 2-1-2zm-14 6l-.5 1.5 1 3-2-1 1.5-3.5zm78 0l-2 3 2-3zm10 5l.5 2.5h-1l.5-2.5zm-93 1l-.5 1.5-.5 1.5-.5-1.5 1.5-1.5zm81 4l2 3-2-3zm-84 1l2.5 1.5-1.5-.5-2 1 1-2zm2 3l-1 2-1.5-.5 2.5-1.5zm93 3l-2 3 2-3zm9 0l1 2-1-2zm-105 1l.5 1.5-2 1 1.5-2.5zm108 4l.5 2.5h-1l.5-2.5zm-15 2l1.5 3.5-2-1 .5-2.5zm-16 1l3.5.5-3.5.5v-1zm-2 1l1.5 5.5-2-1 .5-4.5zm8 0l.5 4.5-2.5 1.5v-1h1.5l.5-5zm24 1l-2 3 2-3zm-41 1l1 2-1-2zm-70 5l1 2-1-2zm72 0l.5 2 4 1.5-1.5-.5-3.5-1.5.5-1.5zm-85 1l.5 5.5h-1l.5-5.5zm35 0l5.5.5-5.5.5v-1zm80 0l7.5.5-7.5.5v-1zm-72 1l2.5.5-2.5.5v-1zm12 0l5.5.5-6 .5-.5 6-.5-5.5 1.5-1.5zm38 0q6-1.5 7.5 1.5v24l-1.5 1.5-1.5-.5 2-.5V53.5l-.5-.5H156v24.5l1 1-2-1v-24l1.5-1.5zm-65 1l-3 4 3-4zm44 0l1.5 2.5-2 1 .5-3.5zm37 0l-4 5 4-5zm-75 4l2.5.5-4.5 2.5 2-3zm40 0l2.5 1.5-.5 3.5-.5-4-1.5-1zm12 0l1.5.5-2.5 1.5 1-2zm46 0l1.5 2.5h-1l-.5-2.5zm-90 1l.5 2.5-2 1 1.5-3.5zm72 0l-1 2 1-2zm9 0l2 3-2-3zm-121 1l8.5.5-8.5.5v-1zm63 0l1.5.5-3.5 2.5 2-3zm-39 1l4.5.5-4.5.5v-1zm77 1l.5 2.5h-1l.5-2.5zm31 0q2.6-.8 1.5 2.5h-1l-.5-2.5zm-98 1l2.5.5-2.5.5v-1zm26 1l.5 13.5h-1l.5-13.5zm49 0l.5 4.5h-1l.5-4.5zm15 0l.5 4.5h-1l.5-4.5zm-114 2l2.5.5-2.5.5v-1zm14 0l-2 3 2-3zm7 3l-1 2 1-2zm18 0l.5 8.5h-1l.5-8.5zm84 0l.5 1.5-2 1 1.5-2.5zm-93 1l.5 2.5-3 2 2.5-4.5zm70 0l2.5 3.5-3-2 .5-1.5zm-112 1l.5 7.5-2.5 1.5v-1l1.5-.5.5-7.5zm23 0l.5 3.5h-1l.5-3.5zm102 0l-2 3 2-3zm-40 1l1.5 2.5-2-1 .5-1.5zm20 2l1 2-1-2zm-71 1l4.5.5-4.5.5v-1zm74 2l1 2-1-2zm-117 1l2.5 1.5-1.5.5-1-2zm35 0l1 2-1-2zm15 0l5.5 1.5-2.5.5-3-1v-1zm13 0l1 2-1-2zm-24 2l6.5.5-6.5.5v-1zm85 0l7.5.5-7.5.5v-1zm0 3l3.5.5-3.5.5v-1zm-3 1l-3 4 3-4zm-4 5l.5 5.5h-1l.5-5.5zm-95 1l-.5 1.5-.5 2.5-.5-2.5 1.5-1.5zm3 0l1.5 3.5-3.5 2.5v-1l2.5-1.5-.5-3.5zm93 6l2 3-2-3zm14 0l-2 3 2-3zm-22 8l2.5.5-2.5.5v-1zm-77 2l-1 2 1-2zm4 0l1 2-1-2zm69 0l-1 2 1-2zm12 4l.5 3.5h-1l.5-3.5zm-86 1l1 2-1-2zm15 2l1 2-1-2zm70 2l-3 4-2.5-.5 5.5-3.5zm-27 1l4.5.5-4.5.5v-1zm6 1l1 2-1-2zm-40 1l3.5.5-3.5.5v-1zm15 2l1.5.5-3.5 2.5 2-3zm15 0l.5 3.5h-1l.5-3.5zm-33 1l.5 3.5h-1l.5-3.5zm9 0l.5 3.5h-1l.5-3.5zm17 3l.5 2.5h-1l.5-2.5zm18 2l-1 2 1-2zm-41 1l3.5.5-3.5.5v-1zm13 1l1 2-1-2zm9 0l-2 3 2-3zm12 0l4.5.5-4.5.5v-1z" opacity=".494"/><path stroke="#000" d="M131.5 0l2.5 3.5h-1L131.5 0zm-26 5q4-.5 4.5 2.5L107.5 6q-3 .5-2-1zm19 2l1 2-1-2zm-22 1l2 5 3.5.5-3.5.5q-3.8-1.3-2-6zm18 0l-1 2 1-2zm-10 1l.5 1.5-2 1 1.5-2.5zm5 1l2.5.5-2.5.5v-1zm31 0l-1 2 1-2zm5 5l2 3-2-3zm-51 1l-1 2-1.5-.5 2.5-1.5zm69 0l3.5.5-3.5.5v-1zm-9 1l-1 2-4.5-.5 5.5-1.5zm14 0l2 3-2-3zm-81 4l-1 2 1-2zm70 1l.5 2.5h-1l.5-2.5zm14 3l.5 1.5-2 1 1.5-2.5zm-94 1l1.5 3.5-1.5 3.5.5-1.5-1-3 .5-2.5zm5 0l-1 2 1-2zm-8 2l-.5 1.5 1 3-.5 2.5-2.5-1.5 2-1-1-3 1.5-1.5zm-4 6l.5 2.5h-1l.5-2.5zm99 0l-1 2 1-2zm-95 3l-1 2-1.5-.5 2.5-1.5zm-24 5l17.5.5-17.5.5v-1zm26 2l1 2-1-2zm92 1l2 3-2-3zm-89 2l1 2-1-2zm54 0l.5 2.5h-1l.5-2.5zm9 0l.5 2.5h-1l.5-2.5zm31 1l3.5.5-3.5.5v-1zm-114 1l3.5.5-4 .5-.5 9-.5-8.5 1.5-1.5zm5 0l3.5.5-3.5.5v-1zm17 2l.5 5.5h-1l.5-5.5zm8 0l2.5.5-2.5.5v-1zm35 0q5.5-1 6.5 2.5l-2.5-1.5-5 1 1-2zm-53 1l.5 4.5-2 1 1.5-5.5zm47 0l1 2-1-2zm28 0l1.5 3.5h-1l-.5-3.5zm-41 1l2 3-2-3zm81 0l4 5-4-5zm-22 1l-2 3 2-3zm-34 2l-2 3 2-3zm-36 1l2.5.5-2.5.5v-1zm-13 1l1.5 2.5-1.5-.5-4.5 3.5 4.5-5.5zm27 0l.5 9.5h-1l.5-9.5zm34 1l.5 11.5h-1l.5-11.5zm39 1l1.5 2.5h-1l-.5-2.5zm-48 2l.5 8.5h-1l.5-8.5zm36 0l.5 2.5h-1l.5-2.5zm-10 1l.5 5.5h-1l.5-5.5zm10 3l.5 2.5h-1l.5-2.5zm-111 1l.5 4.5h-1l.5-4.5zm134 3l-1 2 1-2zm-103 2l1 2-1-2zm86 1l2.5.5-2.5.5v-1zm15 0l-1 2 1-2zm-123 1l1.5.5-2.5 1.5 1-2zm95 0l3 4-3-4zm-15 1l.5 2.5h-1l.5-2.5zm-66 1l2 3-2-3zm106 0l-2 3-1.5-.5 3.5-2.5zm-121 2l2.5 1.5-1.5.5-1-2zm45 0l6.5 1.5-5.5.5-1-2zm-61 1l5.5.5-5.5.5v-1zm53 0l4.5.5-4.5.5v-1zm35 0l7.5.5-7.5.5v-1zm13 0l4.5.5-4.5.5v-1zm29 0l2.5.5-2.5.5v-1zm-110 2l1 2-1-2zm108 2l2 3-2-3zm-11 1l-1 2 1-2zm-96 1l-1 2-2.5-.5 3.5-1.5zm-2 8l1 2-1-2zm5 0l-1 2 1-2zm1 3l2.5.5-4.5 2.5 2-3zm96 3l4.5.5-4.5.5v-1zm-92 2l-2 3-2.5-.5 4.5-2.5zm3 3l2.5.5-2.5.5v-1zm4 6l-1 2 1-2zm5 1l3.5.5q-4.2-.2-5.5 2.5l2-3zm61 3l1 2-1-2zm13 1l-1 2 1-2zm-68 2l-3 4-2.5-.5 5.5-3.5zm6 0l-2 3 2-3zm32 0l-1 2 1-2zm-46 1l1 2-1-2zm32 0l2.5.5-2.5.5v-1zm36 0l2.5.5-2.5.5v-1zm-31 2l1.5 2.5h-1l-.5-2.5zm21 0l.5 2.5h-1l.5-2.5zm-13 3l3.5 4.5-4-3 .5-1.5zm-33 1l2 3-2-3zm9 0l-2 3 2-3z" opacity=".141"/></svg>