<svg xmlns="http://www.w3.org/2000/svg" role="img" viewBox="13.39 8.64 278.72 84.47"><title>pfstools logo</title><path d="M83.5 15.5c-4.2 1.5-6.3 3.6-7 7C75 30 75 30 72 30c-2.9 0-3 .1-3 5s.1 5 3 5h3v32h14V40h11V30h-5.5c-5.1 0-5.5-.2-5.5-2.3 0-3.5 1.9-4.7 7.2-4.7h4.8v-9h-6.7c-3.8.1-8.6.7-10.8 1.5zm160.5 32V72h6V23h-6v24.5zM154 33c0 4.3-.3 5-2 5-1.3 0-2 .7-2 2s.7 2 2 2c1.9 0 2 .7 2 11.4 0 17.1 1.1 18.9 12.3 20.1 5.6.6 5.7.6 5.7-1.8 0-2.2-.5-2.5-5-3.1-3.4-.5-5.3-1.3-6-2.6-.5-1-1-6.8-1-12.9V42h6c5.3 0 6-.2 6-2s-.7-2-6-2h-6v-5c0-4.9-.1-5-3-5s-3 .1-3 5zm-36.6-2.9c-8.8 1.1-12.4 5-12.4 13.2 0 4.5 1.8 8 5.1 9.7 1.1.6 5.4 1.8 9.6 2.6 10 1.9 12.1 3.5 8.7 6.8-2 2.1-12.6 2.1-18.4.1-2.3-.8-4.4-1.5-4.6-1.5-.2 0-.4 2.2-.4 4.9v4.9l5 1.1c6.4 1.4 18.4 1.4 23.2.1 5.6-1.6 8.8-6 8.8-12.1 0-2.8-.5-5.9-1.1-7.1-1.4-2.7-8.1-5.5-15.2-6.3-3.2-.4-6.7-1.5-7.8-2.4-1.8-1.4-1.8-1.8-.5-3.6 1.2-1.6 2.5-1.9 7.3-1.8 3.2.1 7.9.8 10.6 1.6l4.7 1.5v-4.9c0-4.7-.1-4.8-3.7-5.8-5.5-1.4-13.1-1.8-18.9-1zm-97.7.6c-.4.3-.7 13.4-.7 29V88h13V77.5c0-5.8.3-10.5.7-10.5.4 0 2 1.2 3.5 2.7 2.2 2.1 4 2.7 8.5 3 7.5.5 11.8-1.7 15.8-8.2 2.7-4.4 3-5.7 3-12.9 0-6.7-.4-8.9-2.5-12.6-1.4-2.4-4.1-5.5-6-6.8-5-3.4-14.2-2.8-19.4 1.1L32 36.1V30h-5.8c-3.2 0-6.2.3-6.5.7zM45.1 40c7.2 3.9 6.1 21.5-1.4 23.4-6.1 1.5-10.9-3.4-11-11.2-.2-10.1 5.6-15.8 12.4-12.2zm176.7-2.5c-1.3 2.8-3.9 3.3-5.8 1-2.2-2.6-3.9-1.7-4.2 2.2-.3 3.6-.5 3.8-3.4 3.6-3.5-.3-5.2 2-3.4 4.3.9 1 .6 1.1-1.7.5-2-.6-2.7-1.3-2.5-2.7.9-5.2.7-5.9-1.3-5.6-5.5.9-6 .7-6.3-2.1-.2-1.5-.7-2.7-1.1-2.7-.4 0-.6 1.3-.3 3 .5 3.4 3.1 4.7 6.2 3 2.9-1.5 3.6-.6 2.1 2.6-1.4 3-.1 5.4 3 5.4 1 0 2.3 1 3 2.1.7 1.5.8 1.9 0 1.5-1.6-1-5.1 1.2-5.1 3.3 0 1 .7 2.4 1.5 3.1 2.3 1.9 1.8 3-1.4 3-3.3 0-5.4 2-4.5 4.3 1.2 3.1-.7 3.9-3.5 1.5l-2.6-2.3 2.4 2.7c3 3.4 5.3 2.7 4.9-1.6-.3-2.9-.1-3.1 3.2-3.4 3.9-.4 5.4-2 3.8-3.9-.8-1-.5-1.3 1.1-1.3 2.7 0 3.7 2.4 2.3 5.4-1.5 3.4.3 4.9 3.8 3.1 3.2-1.6 5-.5 5 3.2 0 3.2 3.3 3 4.8-.2 1.4-3 3.3-3.2 5.6-.6 2.4 2.6 4.9 1.6 4.1-1.6-.8-3.2.9-5.1 4-4.5 3.2.6 4.4-2.2 2.1-4.7-2.3-2.5-2-4 .9-5.3 3.4-1.5 2.8-4.1-1-4.8-3-.6-3.2-1-2.3-6.5.3-2-.4-2.2-5.6-1.3-1.4.2-2.1-.5-2.8-3-1-3.8-3.4-4.2-5-.7zm5.5 11.3c1 .9 1.7 2.9 1.7 5.3 0 7.2-8.6 10.3-13.2 4.8-6.1-7.3 4.2-16.5 11.5-10.1zm39.2-11.9c-3.6 1.5-6 5.1-6 9.1 0 5.2 3.2 8.5 9.9 10.1 7.7 1.8 10.6 3.5 10.6 6.4 0 5.1-8.3 7.1-16.9 4l-4.1-1.4V68c0 2.5.5 3 3.8 3.9 12.1 3.4 23.2-.9 23.2-9 0-2.1-.3-4.5-.6-5.4-.8-2-6.4-4.8-12.9-6.4-5.7-1.4-7.5-2.6-7.5-5.1 0-4.4 9.4-6.7 16.4-4 2.4.9 2.6.7 2.6-1.9 0-2.1-.6-3-2.2-3.5-3.3-.8-13.9-.6-16.3.3z"/><path d="M182 48.5c-3.4 3.7-3.3 9 .4 12.1 5.6 4.9 14 1.3 14-6.1 0-7.5-9.3-11.4-14.4-6zm11.1.4c5.2 4.2 1.7 13.1-5.1 13.1-4.3 0-7.4-3.1-7.4-7.3 0-6.9 7.1-10.2 12.5-5.8z"/></svg>