<svg xmlns="http://www.w3.org/2000/svg" role="img" xmlns:xlink="http://www.w3.org/1999/xlink" viewBox="-2.73 -3.86 124.97 142.22"><title>PhotoFlow logo</title><defs><linearGradient id="d" x1="65.728" x2="65.728" y1="14.893" y2="117.75" gradientUnits="userSpaceOnUse"><stop offset="0" stop-color="#FFF"/><stop offset=".235" stop-color="#FFF" stop-opacity=".235"/><stop offset=".764" stop-color="#FFF" stop-opacity=".157"/><stop offset="1" stop-color="#FFF" stop-opacity=".4"/></linearGradient><radialGradient id="e" cx="99.157" cy="186.17" r="62.769" gradientTransform="matrix(.68694 0 0 .21462 -4.022 991.936)" gradientUnits="userSpaceOnUse"><stop offset="0" stop-color="#3d3d3d"/><stop offset=".5" stop-color="#686868" stop-opacity=".498"/><stop offset="1" stop-color="#686868" stop-opacity="0"/></radialGradient><radialGradient id="f" cx="47.046" cy="46.357" r="38.764" fx="47.046" fy="46.357" gradientTransform="matrix(2.99687 .00744 -.00471 1.89732 -112.012 873.02)" gradientUnits="userSpaceOnUse" xlink:href="#a"/><radialGradient id="a" cx="15.645" cy="8.45" r="20" fx="-.123" fy="8.45" gradientTransform="matrix(0 2.79863 -2.63672 0 86.78 14.658)" gradientUnits="userSpaceOnUse" spreadMethod="pad"><stop offset="0" stop-color="#fff"/><stop offset=".262" stop-color="#f7f7f7"/><stop offset=".705" stop-color="#f0f0f0"/><stop offset="1" stop-color="#e1e1e1"/></radialGradient><radialGradient id="g" cx="25.595" cy="73.057" r="38.764" fx="25.595" fy="73.057" gradientTransform="matrix(.56646 1.2728 -1.1112 .49453 117.655 917.436)" gradientUnits="userSpaceOnUse" xlink:href="#b"/><radialGradient id="b" cx="15.645" cy="8.45" r="20" fx="-.123" fy="8.45" gradientTransform="matrix(0 2.79863 -2.63672 0 86.78 14.658)" gradientUnits="userSpaceOnUse" spreadMethod="pad"><stop offset="0" stop-color="#fff" stop-opacity="0"/><stop offset=".736" stop-color="#f2f2f2" stop-opacity="0"/><stop offset=".899" stop-color="#dedede"/><stop offset="1" stop-color="#c8c8c8"/></radialGradient><radialGradient id="h" cx="-65.309" cy="-59.098" r="551.292" fx="-65.309" fy="-59.098" gradientTransform="matrix(.31528 .52931 -.72127 .42962 12.004 -30.147)" gradientUnits="userSpaceOnUse" xlink:href="#c"/><radialGradient id="c" cx="15.645" cy="8.45" r="20" fx="-.123" fy="8.45" gradientTransform="matrix(0 2.79863 -2.63672 0 86.78 14.658)" gradientUnits="userSpaceOnUse" spreadMethod="pad"><stop offset="0" stop-color="#64b0e9"/><stop offset=".262" stop-color="#478def"/><stop offset=".705" stop-color="#3e76e0"/><stop offset="1" stop-color="#376add"/></radialGradient><mask id="i" maskUnits="userSpaceOnUse"><path fill="#fff" fill-rule="evenodd" d="M310.63 149.565c0 97.916-81.744 177.394-182.351 177.394-100.7 0-184.2-79.496-182.351-177.394 2.404-131.326 102.734-184.82 182.35-335.758C212.797-40.202 310.63 51.639 310.63 149.565z" color="#000"/></mask><radialGradient id="j" cx="-47.052" cy="-38.97" r="551.292" fx="-47.052" fy="-38.97" gradientTransform="matrix(.45383 .34988 -.3525 .45724 39.161 -32.538)" gradientUnits="userSpaceOnUse" xlink:href="#c"/><mask id="l" maskUnits="userSpaceOnUse"><path fill="#fff" fill-rule="evenodd" d="M310.63 149.565c0 97.916-81.744 177.394-182.351 177.394-100.7 0-184.2-79.496-182.351-177.394 2.404-131.326 102.734-184.82 182.35-335.758C212.797-40.202 310.63 51.639 310.63 149.565z" color="#000"/></mask><linearGradient id="m" x1="31.218" x2="96.393" y1="34.822" y2="110.593" gradientTransform="translate(0 923.362)" gradientUnits="userSpaceOnUse" xlink:href="#d"/><radialGradient id="k" cx="-65.309" cy="-59.098" r="551.292" fx="-65.309" fy="-59.098" gradientTransform="matrix(.31528 .52931 -.72127 .42962 12.004 -30.147)" gradientUnits="userSpaceOnUse" xlink:href="#c"/></defs><path fill="url(#e)" d="M107.21 1031.892a43.119 13.471 0 1 1-86.237 0 43.119 13.471 0 1 1 86.237 0z" transform="translate(-4.254 -929.553)"/><path fill="url(#f)" fill-rule="evenodd" d="M102.764 1000.934c0 20.813-17.375 37.707-38.76 37.707-21.406 0-39.155-16.898-38.762-37.707.511-27.915 21.838-39.286 38.761-71.37 17.966 31.032 38.761 50.554 38.761 71.37z" color="#000" transform="translate(-4.254 -929.553)"/><path fill="url(#g)" fill-rule="evenodd" d="M102.795 1000.923c0 20.813-17.375 37.707-38.76 37.707-21.406 0-39.155-16.898-38.762-37.707.511-27.915 21.838-39.286 38.761-71.37 17.965 31.032 38.761 50.554 38.761 71.37z" color="#000" opacity=".5" transform="translate(-4.254 -929.553)"/><g fill="url(#h)" mask="url(#i)" transform="translate(32.482 39.585) scale(.21256)"><path fill="url(#k)" d="M-31.567-587.144c-215.991 22.33-256.183 1225.263-96.612 1230.13 576.579 50-522.589-394.067-522.589-477.646 0-83.58 702.78-752.484 619.201-752.484zM90.191 191.032a2.966 2.966 0 0 1-2.564 4.453h-264.033c-22.146 12.586 24.829-415.61 33.316-401.68zm122.773-78.909a2.966 2.966 0 0 1 2.564-4.453h229.033c23.397-13.25-16.546 361.574-25.024 347.658zm236.224-37.638l-301.581 4.311a2.933 2.933 0 0 1-2.563-1.475 2.967 2.967 0 0 1-.012-2.958l182.576-320.298c.324-27.7 137.881 320.069 121.58 320.42zm-135.8-367.683L86.632 118.51a2.966 2.966 0 0 1-5.14.021l-226.115-389.596c-1.888-29.235 463.042-31.424 458.01-22.133zM-163.04 224.359h276.886l.015.001.015-.001h41.673a2.964 2.964 0 0 1 2.575 4.433L27.483 457.981c-.326 27.7-206.825-233.27-190.522-233.622zM61.118 459.303l155.407-274.657a2.966 2.966 0 0 1 5.14-.021l147.072 253.4c23.51 13.96-315.322 35.503-307.619 21.278z" transform="translate(9.409 14.113)"/></g><path fill="none" fill-rule="evenodd" stroke="#000" d="M98.51 71.38c0 20.814-17.375 37.708-38.76 37.708-21.406 0-39.155-16.898-38.762-37.707C21.5 43.466 42.826 32.095 59.75.01c17.965 31.033 38.76 50.555 38.76 71.371z" color="#000" opacity=".4"/><g fill="none" stroke="#000" stroke-width="4.704" mask="url(#l)" opacity=".25" transform="translate(32.482 39.585) scale(.21256)"><path d="M-22.158-573.031C-238.149-550.7-278.34 652.233-118.77 657.099c576.579 50-522.589-394.066-522.589-477.645 0-83.581 702.78-752.485 619.201-752.485zM99.6 205.145a2.966 2.966 0 0 1-2.564 4.453h-264.033c-22.146 12.586 24.829-415.61 33.316-401.679zm122.773-78.909a2.966 2.966 0 0 1 2.564-4.453H453.97c23.397-13.25-16.546 361.575-25.024 347.659zM458.597 88.6l-301.581 4.31a2.933 2.933 0 0 1-2.563-1.475 2.967 2.967 0 0 1-.012-2.958l182.576-320.298c.324-27.699 137.881 320.07 121.58 320.42zm-135.8-367.684L96.04 132.623a2.966 2.966 0 0 1-5.14.021L-135.214-256.95c-1.888-29.235 463.042-31.424 458.01-22.134zM-153.63 238.472h276.886l.015.001h41.688a2.964 2.964 0 0 1 2.575 4.432L36.892 472.095c-.326 27.7-206.825-233.271-190.522-233.623zM70.527 473.416L225.934 198.76a2.966 2.966 0 0 1 5.14-.02l147.072 253.399c23.51 13.96-315.322 35.504-307.619 21.278z"/></g><path fill="none" fill-rule="evenodd" stroke="url(#m)" d="M101.763 1000.99c0 20.23-16.927 36.652-37.76 36.652-20.852 0-38.142-16.425-37.76-36.652.499-27.134 20.917-38.323 37.801-69.368 17.775 30.197 37.719 49.135 37.719 69.368z" color="#000" opacity=".4" transform="translate(-4.254 -929.553)"/><path d="M14.309 117.16v18.234h2.203v-9.773c.601-.46 1.23-.84 1.886-1.137.657-.297 1.286-.445 1.887-.445.586 0 1.063.082 1.43.246.367.156.648.398.844.727.187.296.316.71.386 1.242.07.523.106 1.086.106 1.687v7.453h2.203v-8.496c0-1.601-.371-2.828-1.113-3.68-.743-.85-1.82-1.277-3.235-1.277-.773 0-1.527.16-2.261.48a8.955 8.955 0 0 0-2.133 1.337v-6.598zm67.617 0v18.234h2.203V117.16zM0 117.945v17.45h2.32v-6.504h2.32c1.25 0 2.286-.149 3.106-.446a5.865 5.865 0 0 0 2.133-1.36 5.095 5.095 0 0 0 1.125-1.71c.273-.664.41-1.383.41-2.156 0-1.016-.184-1.856-.55-2.52a4.658 4.658 0 0 0-1.536-1.664 5.899 5.899 0 0 0-1.933-.82c-.727-.18-1.614-.27-2.66-.27zm68.297 0v17.45h2.32v-8.403H78.2v-2.062h-7.582v-4.922h8.824v-2.063zm-24.176.598v3.762h-1.488v1.851h1.488v6.961c0 1.586.348 2.738 1.043 3.457.695.719 1.711 1.078 3.047 1.078.383 0 .816-.035 1.3-.105.493-.07.946-.16 1.36-.27v-1.98h-.117c-.172.07-.453.16-.844.27-.39.1-.765.152-1.125.152-.617 0-1.078-.07-1.383-.211a1.622 1.622 0 0 1-.703-.692 2.625 2.625 0 0 1-.328-1.078c-.031-.39-.047-.93-.047-1.617v-5.965h4.547v-1.851h-4.547v-3.762zm-41.8 1.396h2.296c.735 0 1.34.055 1.817.164.484.102.914.274 1.289.516.43.281.75.645.96 1.09.212.445.317.969.317 1.57 0 .516-.078.98-.234 1.395-.149.414-.407.808-.774 1.183-.367.368-.844.637-1.43.809-.585.164-1.347.246-2.285.246H2.32zm32.296 2.002c-1.851 0-3.324.621-4.418 1.864-1.086 1.234-1.629 2.918-1.629 5.05 0 2.133.543 3.817 1.63 5.051 1.093 1.235 2.566 1.852 4.417 1.852 1.836 0 3.301-.617 4.395-1.852 1.093-1.234 1.64-2.918 1.64-5.05 0-2.133-.547-3.817-1.64-5.051-1.094-1.243-2.559-1.864-4.395-1.864zm24.047 0c-1.852 0-3.324.621-4.418 1.864-1.086 1.234-1.629 2.918-1.629 5.05 0 2.133.543 3.817 1.63 5.051 1.093 1.235 2.565 1.852 4.417 1.852 1.836 0 3.3-.617 4.395-1.852 1.093-1.234 1.64-2.918 1.64-5.05 0-2.133-.547-3.817-1.64-5.051-1.094-1.243-2.559-1.864-4.395-1.864zm34.969 0c-1.852 0-3.324.621-4.418 1.864-1.086 1.234-1.63 2.918-1.63 5.05 0 2.133.544 3.817 1.63 5.051 1.094 1.235 2.566 1.852 4.418 1.852 1.836 0 3.3-.617 4.394-1.852 1.094-1.234 1.641-2.918 1.641-5.05 0-2.133-.547-3.817-1.64-5.051-1.094-1.243-2.56-1.864-4.395-1.864zm8.297.364l3.445 13.09h2.027l3.34-10.09 3.363 10.09h2.04l3.41-13.09h-2.215l-2.274 10.136-3.351-10.136h-1.817l-3.27 10.136-2.401-10.136zm-67.313 1.535c1.18 0 2.102.414 2.766 1.242.664.82.996 2.078.996 3.773 0 1.657-.336 2.907-1.008 3.75-.664.836-1.582 1.254-2.754 1.254-1.187 0-2.113-.422-2.777-1.265-.664-.852-.996-2.098-.996-3.739 0-1.695.328-2.953.984-3.773.664-.828 1.594-1.242 2.79-1.242zm24.047 0c1.18 0 2.102.414 2.766 1.242.664.82.996 2.078.996 3.773 0 1.657-.336 2.907-1.008 3.75-.664.836-1.582 1.254-2.754 1.254-1.187 0-2.113-.422-2.777-1.265-.664-.852-.996-2.098-.996-3.739 0-1.695.328-2.953.984-3.773.664-.828 1.594-1.242 2.79-1.242zm34.969 0c1.18 0 2.101.414 2.765 1.242.664.82.997 2.078.997 3.773 0 1.657-.336 2.907-1.008 3.75-.664.836-1.582 1.254-2.754 1.254-1.188 0-2.113-.422-2.778-1.265-.664-.852-.996-2.098-.996-3.739 0-1.695.328-2.953.985-3.773.664-.828 1.593-1.242 2.789-1.242z"/></svg>