<svg xmlns="http://www.w3.org/2000/svg" role="img" viewBox="19.60 -13.90 347.04 371.54"><title>PhysX logo</title><path d="M357.25539 230.58769c0 3.57012-2.6215 5.9663-5.72487 5.9663v-.0218c-3.19143.0218-5.76464-2.3744-5.76464-5.94357 0-3.56823 2.5732-5.95777 5.76464-5.95777 3.10432-.00095 5.72487 2.3886 5.72487 5.95682zm2.32233 0c0-4.89932-3.80585-7.7433-8.0472-7.7433-4.2707 0-8.07656 2.84398-8.07656 7.7433 0 4.8965 3.8068 7.75183 8.07656 7.75183 4.2423 0 8.0472-2.85534 8.0472-7.75183m-9.3821.65514h.86153l1.99665 3.50574h2.19263l-2.21156-3.65343c1.1427-.0814 2.0828-.62579 2.0828-2.16422 0-1.91145-1.31784-2.52588-3.55023-2.52588h-3.2293v8.34353h1.85654v-3.50574m.00095-1.41252v-2.00896h1.29134c.70247 0 1.65961.0568 1.65961.9136 0 .93252-.49514 1.09536-1.32352 1.09536h-1.62743m-44.81063-41.9231l10.03345 27.44854h-20.37742zm-10.74538-10.68763l-23.12199 58.58365h16.3273l3.65722-10.35155h27.36334l3.46125 10.35155h17.72467L316.75712 177.212zM248.2186 235.825h16.56494v-58.62341l-16.56778-.004zm-114.99645-58.6272l-13.82036 46.46362-13.23907-46.45983-17.87332-.004 18.9081 58.6272h23.86421l19.06052-58.6272zm66.95748 12.7657h7.11941c10.32883 0 17.00895 4.6371 17.00895 16.67098 0 12.03672-6.68012 16.67475-17.00895 16.67475h-7.1194v-33.34572zm-16.42576-12.7657v58.6272h26.85494c14.30793 0 18.98004-2.37818 24.0318-7.71395 3.56822-3.74621 5.87635-11.96762 5.87635-20.95492 0-8.24318-1.9531-15.59075-5.3585-20.16914-6.13575-8.18827-14.97442-9.78919-28.16521-9.78919h-23.23939zM26.84 177.1164v58.70862h16.70505V191.2473l12.94369.004c4.28585 0 7.34094 1.06791 9.40481 3.27285 2.61771 2.78812 3.68657 7.28887 3.68657 15.52164v25.77945h16.1872v-32.4371c0-23.15039-14.75574-26.27176-29.19338-26.27176zm130.25395.0814l.007 58.6272h16.55736v-58.6272h-16.564z"/><path fill="#77b900" d="M71.35808 60.46504s21.30521-31.43427 63.84463-34.68629v-11.4043c-47.1178 3.78407-87.91997 43.69064-87.91997 43.69064s23.10968 66.806 87.91997 72.92282v-12.12193c-47.56087-5.98333-63.84463-58.40093-63.84463-58.40093zm63.84463 34.2934v11.10136c-35.94544-6.40841-45.92303-43.77395-45.92303-43.77395s17.25888-19.11921 45.92303-22.21976v12.18158c-.0218 0-.0369-.0066-.0549-.0066-15.0445-1.80541-26.7972 12.2488-26.7972 12.2488s6.58735 23.65972 26.8521 30.4686m0-101.41844v21.03441c1.38317-.10603 2.76635-.19597 4.1571-.2433 53.56787-1.80542 88.47096 43.93395 88.47096 43.93395s-40.08738 48.74523-81.85143 48.74523c-3.82763 0-7.411-.35502-10.77663-.95146v13.00712c2.87806.36544 5.86215.58035 8.97595.58035 38.86421 0 66.96978-19.8482 94.18449-43.33941 4.51211 3.61367 22.9847 12.405 26.78204 16.25346-25.87602 21.66402-86.18178 39.1274-120.37104 39.1274-3.29557 0-6.46048-.19976-9.57144-.49987v18.27757h147.72018V-6.66zm0 46.5261v-14.0864c1.36897-.09562 2.74836-.16947 4.1571-.21396 38.52054-1.20992 63.79255 33.10241 63.79255 33.10241s-27.29612 37.90991-56.56333 37.90991c-4.212 0-7.9885-.67691-11.38727-1.81961V52.04767c14.9962 1.81204 18.01438 8.43631 27.0301 23.46565l20.05173-16.90765s-14.63739-19.19685-39.31201-19.19685c-2.68209-.00094-5.24867.18746-7.76887.45727"/><g transform="translate(-6.79 -6.66)"><path d="M78.91767 339.27609v-61.08331h23.04166q6.08333 0 9.29166.58334 4.5.75 7.54167 2.875 3.04166 2.08333 4.87499 5.87499 1.875 3.79167 1.875 8.33333 0 7.79167-4.95833 13.20833-4.95833 5.375-17.91666 5.375H87.001v24.83332zm8.08333-32.04165h15.79166q7.83333 0 11.125-2.91667 3.29166-2.91666 3.29166-8.20833 0-3.83333-1.95833-6.54166-1.91666-2.75-5.08333-3.625-2.04167-.54166-7.54166-.54166H87.001z"/><path d="M134.87598 339.27609v-61.08331h7.5v21.91666q5.25-6.08333 13.24999-6.08333 4.91667 0 8.54167 1.95833 3.62499 1.91667 5.16666 5.33334 1.58333 3.41666 1.58333 9.91666v28.04165h-7.49999v-28.04165q0-5.625-2.45834-8.16667-2.41666-2.58333-6.87499-2.58333-3.33333 0-6.29167 1.75-2.91666 1.70833-4.16666 4.66667-1.25 2.95833-1.25 8.16666v24.20832z"/><path d="M182.00096 356.31775l-.83333-7.04166q2.45833.66666 4.29166.66666 2.5 0 4-.83333t2.45833-2.33333q.70834-1.125 2.29167-5.58333.20833-.625.66667-1.83333l-16.79166-44.33332h8.08333l9.20833 25.62499q1.79166 4.875 3.20833 10.25 1.29166-5.16667 3.08333-10.08333l9.45833-25.79166h7.5l-16.83333 44.99998q-2.70833 7.29167-4.20833 10.04166-2 3.70834-4.58333 5.41667-2.58334 1.75-6.16667 1.75-2.16666 0-4.83333-.91667z"/><path d="M222.00094 326.06776l7.41666-1.16666q.625 4.45833 3.45833 6.83333 2.875 2.375 8 2.375 5.16666 0 7.66666-2.08333 2.5-2.125 2.5-4.95834 0-2.54166-2.20833-3.99999-1.54167-1-7.66666-2.54167-8.25-2.08333-11.45833-3.58333-3.16667-1.54167-4.83333-4.20833-1.625-2.70834-1.625-5.95833 0-2.95834 1.33333-5.45833 1.375-2.54167 3.70833-4.20834 1.75-1.29166 4.75-2.16666 3.04166-.91667 6.5-.91667 5.20833 0 9.12499 1.5 3.95833 1.5 5.83333 4.08333 1.875 2.54167 2.58334 6.83333l-7.33333 1q-.5-3.41666-2.91667-5.33333-2.375-1.91666-6.75-1.91666-5.16666 0-7.37499 1.70833-2.20834 1.70833-2.20834 4 0 1.45833.91667 2.625.91667 1.20833 2.875 1.99999 1.125.41667 6.625 1.91667 7.95833 2.125 11.08332 3.5 3.16667 1.33333 4.95834 3.91666 1.79166 2.58334 1.79166 6.41667 0 3.75-2.20833 7.08333-2.16667 3.29166-6.29166 5.125-4.125 1.79166-9.33333 1.79166-8.625 0-13.16667-3.58333-4.49999-3.58333-5.74999-10.625z"/><path d="M262.41759 339.27609l23.62499-31.83332-20.83332-29.24999h9.625l11.08332 15.66666q3.45834 4.875 4.91667 7.5 2.04167-3.33333 4.83333-6.95833l12.29166-16.20833h8.79167l-21.45833 28.79166 23.12499 32.29165h-9.99999l-15.375-21.79166q-1.29166-1.87499-2.66666-4.08333-2.04167 3.33334-2.91667 4.58333l-15.33333 21.29166z"/></g></svg>