<svg xmlns="http://www.w3.org/2000/svg" role="img" viewBox="-32.80 -32.80 1705.60 630.60"><title>PhysX logo</title><g transform="translate(-22.994 -23)"><path fill="#ccc" d="M740.5 588.10809l-4-.60809-.29855-6.87562c-.27261-6.27816-.14227-6.81346 1.5-6.16032.9892.39342 5.19599.95808 9.34841 1.2548 5.82605.41631 8.26873.16775 10.69831-1.08863 3.2826-1.6975 8.25183-7.43609 8.25183-9.52942 0-.66573-7.88099-16.93575-17.5133-36.15561L730.97339 494h16.64242l12.81744 26.75c7.04959 14.7125 13.13333 27.0998 13.51943 27.52734.3861.42753 6.96719-11.60319 14.62466-26.73493L802.5 494.03015l7.75-.0151c4.2625-.008 7.74305.32243 7.73456.73493-.008.4125-9.40367 18.975-20.87817 41.25-23.1308 44.90291-25.83134 48.94993-34.35242 51.48042-5.09812 1.51398-14.65147 1.78343-22.25397.62767zm-68.5-22.161c-3.025-.5212-8.5375-2.4403-12.25-4.26465l-6.75-3.317v6.72218l-7.25-.29381-7.25-.29381-.25916-50.75-.25917-50.75H653v38.16312l3.39891-2.10064c17.79741-10.99941 47.3876-8.00311 60.11763 6.08751 15.21974 16.84643 11.04747 44.08469-8.51654 55.59935-8.12769 4.78365-24.60005 7.16197-36 5.19775zm22.3515-13.64967c6.92042-2.17616 13.01528-8.34507 15.04612-15.22892 1.97402-6.69125 1.9894-8.40826.1311-14.637-2.00283-6.71322-6.45782-11.76626-13.29994-15.08536-4.96208-2.4071-6.93328-2.77953-14.72878-2.78278-6.97449-.003-10.01276.46033-13.5 2.05828-9.53996 4.37149-14.71877 11.22001-15.69553 20.75596-2.04059 19.92211 18.75187 32.24509 42.04703 24.91982zM888 489v-77l21.75.0282 21.75.0282 15.5 27.09569c18.29793 31.98678 35.48725 61.74023 36.88653 63.84789.66882 1.00741 1.01517-13.68824 1.05466-44.75L985 412h40v154h-43.04924l-2.53422-4.25c-1.39382-2.3375-12.62316-22.025-24.95408-43.75s-23.3191-41.075-24.41819-43l-1.99833-3.5-.023 47.25L928 566h-40zm200.6669 76.25c-.2482-.4125-7.7363-23.475-16.6404-51.25-16.3212-50.91163-24.776-77.168-30.0274-93.25l-2.8573-8.75h21.8617c19.9563 0 21.907.15252 22.3807 1.75.2854.9625 3.956 14.575 8.1567 30.25 13.5356 50.50727 21.3871 79.26131 21.7389 79.61313.1889.18889 7.0865-24.7343 15.328-55.38485L1143.5923 412.5l21.7039-.2695c11.9371-.14823 21.7038.0167 21.7038.36658 0 .34984-11.3436 35.00862-25.208 77.0195L1136.584 566h-23.733c-13.0531 0-23.936-.3375-24.1841-.75zM1202 489v-77h42v154h-42zm74 0v-77h40.0422c32.5854 0 41.4775.29438 47.75 1.5808 23.128 4.74332 39.4754 16.79864 48.7076 35.9192 6.3611 13.17412 8.027 21.74385 7.8728 40.5-.101 12.29892-.5645 17.15217-2.2441 23.5-7.6714 28.99233-27.4865 46.52833-58.1285 51.44247-3.6937.59237-23.2298 1.04568-45.25 1.04998L1276 566zm77.5 39.68921c18.7709-5.19647 26.556-18.59023 25.2576-43.45388-.6413-12.2792-3.365-19.83225-9.5277-26.42061-8.2337-8.80246-18.155-11.81472-38.9136-11.81472H1318v84.30129l15.25-.61395c8.3875-.33767 17.5-1.23683 20.25-1.99813zM1447 489v-77h41v154h-41zm57.4761 75.26982c2.5106-6.29973 50.4739-131.90643 53.8533-141.03133l4.1706-11.26152 21.4364.26152 21.4364.26151 20.82 54.5c11.451 29.975 23.795 62.375 27.4311 72 3.636 9.625 7.4516 19.6375 8.479 22.25l1.8679 4.75h-43.7115l-2.7093-7.75c-1.4901-4.2625-3.6338-10.3375-4.7637-13.5l-2.0543-5.75h-54.2607l-4.6083 13.25-4.6084 13.25-21.7419.26982c-20.4578.25389-21.7002.1653-21.0366-1.5zM1600 506.89085c0-1.24067-14.9318-47.85081-15.806-49.33896-.4738-.80659-17.194 47.50727-17.194 49.68298 0 .42082 7.425.76513 16.5.76513 11.4158 0 16.5-.34176 16.5-1.10915zm-925.60067-87.95913c-5.00536-.51664-14.68036-1.73567-21.5-2.70896L640.5 414.45315l-.27152-19.84038-.27152-19.84039 2.65779.66706c10.60205 2.66095 32.91255 5.55911 42.71472 5.54869 16.22056-.0172 26.05677-3.17479 35.33713-11.34369 4.51765-3.9766 15.98638-20.41363 16.96561-24.31519.53445-2.1294-14.7242-32.89849-88.7606-178.98598C636.84223 142.60707 627 122.91957 627 122.59327c0-.3263 11.16883-.59327 24.81961-.59327h24.81961l4.33901 9.1848c2.38646 5.05164 9.7179 20.23914 16.2921 33.75 13.67587 28.10573 24.03175 49.46299 33.73135 69.5652 3.71536 7.7 11.9849 24.74375 18.37676 37.87499C755.7703 285.50624 761 296.64374 761 297.12499c0 .48126.3375.86897.75.8616.4125-.007 20.696-39.60738 45.07444-88L851.14888 122h23.92556C891.67595 122 899 122.33369 899 123.09006c0 .59953-7.48104 15.56203-16.62453 33.25-20.90881 40.44782-29.63994 57.36527-41.62873 80.65994-5.23665 10.175-16.71271 32.45-25.50235 49.5-8.78964 17.05-21.96638 42.7-29.28164 57-19.99234 39.08138-26.80374 49.57598-38.54124 59.38203-8.82007 7.36869-18.56415 11.98074-30.92151 14.6357-8.90265 1.91272-30.30472 2.63153-42.10067 1.41399zM996.5 349.87189c-30.9673-2.95159-62.27955-11.24971-84.5472-22.40602-12.27882-6.15182-34.42243-21.44179-32.94641-22.74922.27149-.24047 8.72764-5.92053 18.79146-12.62236l18.29786-12.18514 7.20214 5.2529c20.45353 14.91781 47.75206 24.62124 78.49525 27.90161 14.5831 1.55604 48.4779.69607 60.5805-1.53703 24.7553-4.56774 38.2379-12.94274 41.7333-25.92348 3.5733-13.27045-4.3157-24.4986-20.7877-29.58628-8.2038-2.53391-15.848-3.45581-58.3192-7.0335-70.43379-5.93319-83.11157-8.44419-101.60575-20.12432C907.61213 218.89174 900 204.29529 900 184c0-17.74343 4.3617-28.4331 16.59852-40.6797 7.07973-7.08538 9.6976-8.92669 19.56792-13.76328 22.1998-10.87821 45.29824-14.95775 84.83356-14.98293 29.1897-.0186 40.0534 1.10411 61.5584 6.36167 20.6092 5.03855 38.5822 12.61912 53.0987 22.39571 10.7988 7.27273 15.0742 11.27627 13.6251 12.75854-.6698.68511-9.2125 5.61938-18.9838 10.96503l-17.7659 9.71937-4.0163-2.75426c-15.6726-10.748-43.4704-19.53004-70.0162-22.11992-16.1669-1.57728-44.08564-.5956-56.22005 1.97682C961.5518 158.27128 948 168.76967 948 180.43325c0 10.57924 8.85967 18.17137 25.78606 22.09686 8.24004 1.91099 33.62404 4.92168 58.71394 6.96382 60.453 4.92044 71.6001 6.73472 86.3528 14.05459 14.9071 7.39648 25.3425 19.031 30.0037 33.45148 3.6729 11.36303 3.2868 29.45715-.8874 41.58974-9.6425 28.02645-41.5118 46.18199-90.1797 51.37426-11.313 1.20695-48.2422 1.15145-61.2894-.0921zM23.24693 183.75L23.5 24.5l98.5-.2907c103.14235-.30439 123.91698.25043 142.31424 3.80074 41.28004 7.96622 68.08458 31.14048 78.71847 68.05723 3.07395 10.67155 3.85633 33.43909 1.54165 44.86249-4.02797 19.87888-11.49976 34.24577-24.47983 47.07024-13.21788 13.05944-27.51827 20.15264-50.88585 25.24013-9.42563 2.05211-12.47101 2.12452-104.45868 2.48385L70 216.0941V343H22.99387zM251 174.61942c28.57716-6.6788 45-26.79474 45-55.11942 0-28.10539-16.16206-46.97599-46-53.70898-9.22667-2.08202-11.95281-2.15476-94.75-2.52819L70 62.87834v114.21401l86.75-.36005c78.35369-.3252 87.47591-.5297 94.25-2.11288zM365 183.5V24h44v121.89016l7.75-5.32217C441.26627 123.73192 469.35459 116 506 116c17.38023 0 27.89653 1.16193 42 4.64052 31.17289 7.68873 54.60358 25.37818 66.04173 49.85948 8.18689 17.52254 8.92201 26.4625 8.94244 108.75L623 343h-43.88692l-.37581-68.75c-.41311-75.57269-.31467-74.29264-6.75117-87.77913-6.31509-13.23207-24.19184-25.62472-43.9861-30.49237-12.02419-2.9569-34.29769-3.70986-47.15596-1.59412-29.01714 4.77457-52.70248 18.54511-67.45391 39.21738L409 199.75398V343h-44zm804.1908 153.25c2.4385-2.8875 7.357-8.85 10.93-13.25 3.573-4.4 10.7449-13.21315 15.9377-19.58479 5.1928-6.37163 11.0165-13.53843 12.9415-15.92623 1.925-2.38779 5.0155-6.17464 6.8677-8.41521 1.8522-2.24057 5.0022-6.05083 7-8.46723 7.163-8.66403 15.3218-18.63397 16.4665-20.12197.6412-.83348 3.1908-3.97654 5.6658-6.98457 2.475-3.00803 5.0457-6.15109 5.7126-6.98457.6669-.83349 6.212-7.59043 12.3224-15.01543 11.6272-14.12875 13.4333-16.33956 22.1322-27.0911 2.9331-3.62511 8.8724-10.94127 13.1985-16.25813 6.9868-8.58688 7.7131-9.86029 6.5-11.39672-.7511-.95132-4.9657-6.04313-9.3657-11.31512-4.4-5.27198-9.575-11.55004-11.5-13.95124-1.925-2.4012-7.325-8.95581-12-14.5658s-10.075-12.19412-12-14.63141c-1.925-2.43729-5.3654-6.64972-7.6453-9.36096-2.2798-2.71123-7.4705-8.97952-11.5347-13.92952-4.0643-4.95-12.7846-15.525-19.3784-23.5-6.5939-7.975-13.3282-16.14665-14.9652-18.15923-6.3143-7.76289-16.0225-19.42789-17.7097-21.27933-.9717-1.06621-1.7667-2.30669-1.7667-2.75662 0-.44993 32.2742-.70258 71.7205-.56144 70.6616.25283 71.7358.28625 72.75 2.2634.5662 1.10372 4.1422 7.40372 7.9467 14 3.8044 6.59627 8.2769 14.46822 9.9388 17.49322 1.6619 3.025 5.3911 9.55 8.2872 14.5 2.896 4.95 8.7735 15.18509 13.0611 22.74464 4.2877 7.55955 8.0607 13.74705 8.3847 13.75.6112.006 44.8485-77.39097 47.0083-82.24464l1.2237-2.75H1571.1169l-4.5252 5.75c-2.4889 3.1625-7.1277 8.92672-10.3085 12.80938-5.7455 7.01335-20.7137 25.55636-22.9538 28.43586-.6439.82762-3.5689 4.39661-6.5 7.9311-2.9312 3.53448-7.5794 9.23136-10.3294 12.65973-2.75 3.42837-11.3 13.95539-19 23.39339-31.2993 38.36395-44.5 54.83735-44.5 55.53228 0 .57893 8.7101 11.67242 12.7874 16.28656 1.1171 1.26407 3.3736 3.96407 5.0146 6 15.7817 19.57961 22.1939 27.45939 28.5485 35.08253 6.0005 7.19835 6.6646 8.005 15.1576 18.41236 4.3956 5.38626 9.121 11.26622 10.5011 13.06659 1.38 1.80036 10.38 12.87887 20 24.6189 9.6199 11.74003 22.8613 27.91007 29.4252 35.93342 6.5639 8.02334 12.2127 14.8129 12.5529 15.0879.3401.275 1.8855 2.1875 3.4343 4.25l2.8158 3.75-71.8687-.0284-71.8687-.0284-3.4355-5.72164c-3.0892-5.14476-7.069-11.31195-28.5368-44.22164-3.4084-5.225-8.2288-12.65-10.7119-16.5-6.6918-10.37565-19.4973-30.12325-24.1446-37.23397l-4.0743-6.23397-2.9702 4.73397c-1.6337 2.60368-6.6405 10.35897-11.1263 17.23397-4.4859 6.875-10.5961 16.28563-13.5783 20.91251-2.9821 4.62688-9.4721 14.63883-14.4221 22.24877-4.95 7.60994-13.5 20.79998-19 29.31119l-10 15.47493-71.3715.0263-71.3714.02638zM1612.5 75.53538c-.55-.2352-2.9533-.93021-5.3406-1.54446-5.316-1.36776-12.7455-7.92377-15.2884-13.49092-2.5758-5.63926-2.4723-16.5768.213-22.5 2.6605-5.86837 5.3091-8.6142 11.416-11.83496 4.2669-2.25033 6.2463-2.63698 13.5-2.63698s9.2331.38665 13.5 2.63698c6.1069 3.22075 8.7555 5.96659 11.416 11.83496 2.7041 5.96462 2.792 16.88188.1812 22.5-2.3193 4.99094-8.4141 10.90945-13.3533 12.96714-3.713 1.54684-14.3085 2.8959-16.2439 2.06824zm13.9825-9.56753l3.0175-1.93416-3.7055-.01685c-3.4431-.01565-3.9403-.41864-7.0207-5.6904-4.5819-7.84146-5.7738-7.92604-5.7738-.40977V64h-7V34.80694l9.4738.34653c8.0548.29463 9.7923.66524 11.6 2.4743 3.8035 3.80634 2.487 11.48939-2.2702 13.2492-1.5922.58896-1.4418 1.19297 1.5276 6.13814 1.8115 3.01669 3.7155 5.39988 4.2312 5.29597 2.1855-.44036 4.9018-7.92697 4.8295-13.31108-.08-5.93842-1.8378-10.25925-5.5469-13.63303-14.1961-12.9128-35.0946-.46567-30.8751 18.38918 1.2068 5.39256 4.5784 10.39293 8.388 12.44004 5.9267 3.18479 13.9491 3.089 19.1246-.22834zM1621.5 43.5c0-1.63804-.7692-2.05565-4.25-2.3075-3.9949-.28904-4.25-.15053-4.25 2.3075s.2551 2.59654 4.25 2.3075c3.4808-.25185 4.25-.66946 4.25-2.3075z"/><path fill="#afafaf" d="M743.5 588.38863c-7.76899-1.1318-7.5-.85199-7.5-7.80138v-6.37466l4.25.9741c2.3375.53576 7.26559.81195 10.9513.61377 7.2278-.38864 10.06723-2.07614 13.89814-8.25978l1.83336-2.95931-17.4664-34.18939C739.85988 511.58782 732 495.70701 732 495.1013c0-.70489 2.72896-1.1013 7.58157-1.1013h7.58157l13.64579 28.01638 13.64579 28.01637 14.02264-27.76637L802.5 494.5l7.75-.29206c4.2625-.16064 7.75-.0532 7.75.23878 0 1.70794-42.71037 82.95939-45.18848 85.96577-4.48836 5.44516-9.80265 7.74526-18.72962 8.10643-4.17005.16872-8.9319.11009-10.5819-.13029zm-77.66363-24.25077c-3.11499-1.02739-7.24762-2.84694-9.18362-4.04345l-3.51999-2.17548-.31638 3.29054L652.5 564.5l-6.75.29569-6.75.29569V462.90862l6.75.29569 6.75.29569.27234 18.82589c.14979 10.35423.59979 18.65903 1 18.45511 10.3937-5.296 14.7453-6.87481 21.55855-7.82166 13.28813-1.84668 26.73949 1.25165 36.48163 8.40303C721.13515 508.20582 725 516.47795 725 529.58821c0 15.55323-6.0086 25.34143-19.71425 32.11513-7.4535 3.68372-7.80839 3.75278-20.68468 4.02526-10.64139.22518-14.1644-.0735-18.7647-1.59074zm30.11358-12.21167c17.24902-7.42034 20.11831-30.26375 5.22789-41.62106-11.96111-9.12304-32.31342-7.92244-42.49237 2.50667-10.25648 10.50854-8.41961 29.13012 3.6069 36.56554 9.54304 5.9 23.42404 6.9512 33.65758 2.54885zM889 488.98011v-77.01989l21.20272.26989 21.20273.26989 26.54727 46.14207L984.5 504.78414l.25989-46.39207L985.01978 412H1024v154.03978l-21.1512-.26989-21.15123-.26989-11.09879-19.50042C964.49445 535.27435 952.525 514.21356 944 499.19783l-15.5-27.30134-.25979 47.05176L927.98042 566H889zM1088.4798 564.75c-.2516-.6875-2.6716-8.225-5.3777-16.75-2.7061-8.525-13.3511-41.6-23.6555-73.5s-18.9478-59.0125-19.2075-60.25l-.4723-2.25h21.6166c11.8891 0 21.6166.22029 21.6166.48954 0 .40224 8.6245 32.62914 27.535 102.88954 1.3144 4.8835 2.5495 9.03874 2.7446 9.23388.1952.19513 3.1371-10.10045 6.5376-22.87909 9.6635-36.31372 21.07-78.71084 22.7295-84.48387l1.5092-5.25h21.472c11.8097 0 21.4721.17753 21.4721.39452 0 .21698-10.851 33.17948-24.1134 73.25-13.2623 40.07051-24.567 74.54298-25.1216 76.60548l-1.0083 3.75h-23.9097c-18.2172 0-24.0187-.29761-24.3672-1.25zM1203 489v-77h41v154h-41zm73 0v-77l38.75.008c21.5421.004 41.6365.46297 45.25 1.03308 31.1257 4.91082 51.9407 24.13047 58.629 54.13562 2.266 10.16595 2.2247 32.6869-.079 43.32168-6.7671 31.23296-28.0991 50.3739-60.6952 54.46111-4.566.57253-24.8511 1.04096-45.0781 1.04096H1276zm80.4239 39.02422c9.3515-2.98757 17.2403-10.6402 20.1267-19.52422 2.7765-8.54565 2.8027-30.75966.045-38-2.8011-7.35417-6.9228-12.86597-12.2694-16.40739-7.9335-5.25494-13.0887-6.3913-31.0761-6.85015L1317 446.82792v84.43182l16.25-.51177c13.0079-.40966 17.6314-.95309 23.1739-2.72375zM1447 489v-77h41v154h-41zm59.0707 71.75c1.1014-2.8875 14.3004-37.425 29.3311-76.75l27.3285-71.5h42.4173l8.7859 23C1654.311 541.2007 1663 564.13408 1663 565.00355c0 .63076-7.8219.99645-21.3138.99645h-21.3138l-4.0798-11.75c-2.2439-6.4625-4.3853-12.76967-4.7587-14.01594l-.6788-2.26594-27.0617.26594-27.0618.26594-5 13.75-5 13.75h-42.6635zm89.3327-69.5c-9.3785-29.15664-11.0754-34.25537-11.5636-34.74349-.4357-.43578-16.8526 49.0218-16.8437 50.74349 0 .4125 7.6069.75 16.8994.75h16.8956zm-916.59219-72.30712c-9.81619-.705-30.18281-3.26841-35.56121-4.47586-2.23825-.50249-2.25-.60597-2.25-19.82319v-19.31806l12.17474 2.32674c46.02237 8.79543 64.08313 3.14527 81.02348-25.34752l4.69822-7.90216-55.89001-110.95142L627.11642 122.5l24.1236-.26819c13.26798-.14751 24.48581.094 24.92851.53672.72944.72944 69.18091 141.14632 81.03576 166.23147l4.96214 10.5 44.47124-88.75L851.10891 122h23.94554c13.17005 0 23.94555.34745 23.94555.7721 0 2.23854-130.16579 253.17691-135.5448 261.30822-14.70363 22.22709-32.27207 32.47798-59.84595 34.91908-6.11009.54092-11.78425.92221-12.60925.84732-.825-.0749-6.30996-.48163-12.18879-.90384zM1005 350.32212c-42.88075-3.12992-83.08311-14.95036-108.5-31.90153-7.61974-5.0818-17.40188-12.62189-17.41122-13.42059-.003-.275 8.35834-5.95138 18.58123-12.61418l18.58706-12.11419 7.50508 5.38465c27.25943 19.55774 60.27158 28.68611 103.23785 28.54684 51.3568-.16647 78.0935-12.27651 77.978-35.31914-.058-11.51037-8.3387-19.34067-25.1548-23.78568-9.2467-2.44417-10.1843-2.55733-46.3232-5.59059-45.40059-3.81063-60.91242-5.41205-73.23868-7.56107-33.41369-5.82548-54.36213-21.67001-59.15961-44.74586-2.72071-13.08662-.63706-29.56904 5.1335-40.60771 3.98677-7.62642 15.15769-18.82801 23.79674-23.86208 36.6216-21.3398 112.33725-24.86225 166.46805-7.74442 13.9657 4.41638 34.3276 14.67296 44.75 22.5412 4.8125 3.63313 8.75 6.98783 8.75 7.4549 0 .8321-35.5664 21.01733-37.0325 21.01733-.4102 0-3.8069-1.78883-7.5482-3.97517-17.1345-10.01277-37.3645-16.54599-60.8044-19.63653-15.0147-1.97968-51.26257-1.393-61.68613.9984-21.71224 4.9813-33.71165 13.95001-34.70598 25.94028-1.02746 12.38987 7.79588 19.73696 28.86954 24.03929 9.50813 1.94115 37.55137 4.99699 69.90767 7.61776 58.1659 4.71127 72.1755 8.54651 88.0476 24.10363 7.37 7.22368 12.8676 17.10907 14.8554 26.71156 1.559 7.5308 1.3316 23.57998-.4404 31.09767-8.8266 37.44491-53.548 58.61265-122.3863 57.9284-9.667-.0961-19.6013-.32251-22.0763-.50317zM24 184V25h108.03941c112.90342 0 118.85097.19248 138.07527 4.46847C308.19151 37.93775 334.38173 62.72043 343.5953 99c1.51873 5.98021 1.8863 10.84353 1.8139 24-.10867 19.74766-1.74116 27.17392-9.34264 42.5-5.73825 11.56943-12.52911 20.33314-21.34165 27.54174-7.15521 5.8529-25.20928 14.93784-34.71388 17.46827-18.0028 4.79292-17.18159 4.75626-116.26103 5.19086L70 216.1121V343H24zm219.67764-8.07422c32.88732-4.51631 52.49881-25.36134 52.61627-55.92578.06198-16.12775-4.64649-28.38961-14.80045-38.54358-9.83963-9.83963-22.27243-14.93856-42.46723-17.41662-5.22154-.64073-39.28369-1.0398-88.75-1.0398H70v114h82.92764c53.58355 0 85.6956-.38011 90.75-1.07422zM365 184V25h44v120.91432l8.25-5.54263c26.30502-17.67262 57.78701-25.54375 96.25-24.06445 23.81109.91579 40.85649 4.67415 57.25659 12.62457C596.48756 141.40564 612.745 160.24488 619.14097 185c2.87034 11.10944 3.79815 35.51207 3.83057 100.75L623 343h-44l-.0349-65.75c-.0371-69.91085-.28374-74.21555-4.9604-86.57423-6.82948-18.04777-26.62091-31.63405-52.70929-36.18348-10.81789-1.88649-31.35498-1.91905-41.88182-.0664-23.45678 4.1282-40.25244 12.4021-55.74553 27.46146-4.30756 4.18697-9.59506 10.25145-11.75 13.47662L408 201.22791V343h-43zm804.7108 152.25c4.4175-5.17466 15.5812-18.84458 23.9261-29.29748 1.7254-2.16114 4.7213-5.84706 6.6577-8.19093s6.3009-7.63659 9.6989-11.76159c3.3981-4.125 6.9278-8.4 7.8439-9.5.9161-1.1 3.4649-4.24534 5.6641-6.98964 2.1992-2.74431 4.8152-5.89431 5.8133-7 .9981-1.1057 3.6981-4.48536 6-7.51036 2.3019-3.025 4.6587-6.00566 5.2375-6.62369.5787-.61803 2.6037-3.02104 4.5-5.34002 1.8962-2.31898 4.1943-5.09756 5.1069-6.17461.9125-1.07706 3.1625-3.81061 5-6.07457 1.8374-2.26395 6.8527-8.42971 11.1451-13.70169 4.2924-5.27198 9.0784-11.16042 10.6357-13.08542 4.4687-5.5241 19.0562-23.24163 21.4182-26.0139 1.178-1.38265 3.4193-4.21757 4.9807-6.29982 3.3092-4.41311 4.1058-2.74944-8.533-17.81966-4.7817-5.70164-12.3687-14.86662-16.8599-20.36662-4.4912-5.5-9.6847-11.8-11.5411-14-1.8565-2.2-8.1542-9.85-13.995-17-5.8409-7.15-11.5884-14.125-12.7723-15.5-1.1839-1.375-5.9742-7.225-10.6451-13s-8.9807-10.95-9.5775-11.5c-.5967-.55-2.8467-3.25-5-6-2.1532-2.75-4.14-5.225-4.415-5.5-.275-.275-2.2085-2.62634-4.2966-5.2252-2.0882-2.59885-4.3382-5.30501-5-6.01369C1198.094 37.96721 1187 24.00013 1187 23.50895c0-.2872 32.2513-.4067 71.6695-.26557l71.6694.25662 2.1606 4c1.1883 2.2 3.2176 5.8 4.5096 8 1.2919 2.2 5.1379 8.95 8.5465 15 3.4086 6.05 8.503 15.00207 11.3209 19.8935 2.8179 4.89142 5.1235 9.27892 5.1235 9.75 0 .47107.3975.8565.8834.8565.4858 0 1.1401.7875 1.454 1.75.5217 1.59996 5.3387 10.2716 11.6626 20.99527 1.375 2.33163 2.8185 4.24279 3.2078 4.24703.3894.004 1.784-1.9048 3.0993-4.2423 3.0831-5.47915 11.203-19.96584 14.4331-25.75 1.3821-2.475 3.9834-6.975 5.7805-10 8.0517-13.55242 22.2014-38.7968 23.4014-41.75l1.3205-3.25h71.3787c39.2583 0 71.3787.29502 71.3787.6556 0 .7974-4.2533 6.55682-8.4301 11.41534-3.5583 4.13906-4.936 5.82043-13.0699 15.95118-3.3 4.11013-8.25 10.21936-11 13.57606s-6.125 7.5754-7.5 9.37489c-1.375 1.79949-3.5664 4.4542-4.8698 5.89936-1.3034 1.44516-3.5351 4.20257-4.9594 6.12757-1.4242 1.925-4.8936 6.2-7.7098 9.5-2.8161 3.3-10.3605 12.525-16.7652 20.5-11.4032 14.19899-18.1487 22.50029-21.5336 26.5-.9308 1.1-4.3857 5.375-7.6773 9.5-3.2917 4.125-7.1934 8.82534-8.6704 10.4452-5.6549 6.20185-5.6402 6.62666.496 14.31732 3.0509 3.82368 6.1519 7.57884 6.8912 8.34481.7394.76597 5.7166 6.86212 11.0607 13.547 5.344 6.68488 13.5416 16.75537 18.217 22.37886 4.6754 5.6235 9.5177 11.54015 10.7606 13.14812 1.243 1.60797 3.16 3.96521 4.26 5.23833 1.1 1.27312 5.2422 6.31202 9.2049 11.19756 10.7129 13.20755 41.0598 50.3566 58.2139 71.26209 8.2947 10.10861 15.0812 18.77111 15.0812 19.25 0 .48615-31.5317.87071-71.393.87071-61.7011 0-71.4692-.1984-71.9538-1.46145-.9124-2.37769-33.0047-52.00803-33.865-52.37188-.4335-.18334-.7882-.75637-.7882-1.27341 0-.51704-2.173-4.19204-4.8289-8.16667-7.4993-11.22278-14.6202-22.12474-15.1711-23.22659-.275-.55-3.8514-6.05803-7.9476-12.24006l-7.4476-11.24006-3.0008 4.74006c-1.6505 2.60703-7.5676 11.71506-13.1492 20.24006-14.494 22.13722-17.8804 27.36808-18.4509 28.5-.2771.55-3.0277 4.825-6.1124 9.5-7.5787 11.48589-19.0774 29.10966-20.3539 31.1958-.5707.93269-3.0626 4.85901-5.5376 8.72515l-4.5 7.02934-71.3489.0249-71.349.0249zm434.7336-263.6237c-5.913-2.7534-11.64-8.99821-13.2838-14.48474-2.0305-6.77693-1.4658-15.13642 1.4125-20.9125 7.7161-15.48413 31.6204-18.88174 44.2173-6.2848 4.7637 4.76366 6.4509 8.69544 6.995 16.30105.8299 11.59888-4.3235 20.76775-14.2781 25.40338-7.0432 3.27983-17.9923 3.27005-25.0629-.02239zm20.097-5.50596c19.3409-8.78535 12.0228-38.6587-9.0423-36.91182-9.7449.80812-16.1174 7.22501-17.2623 17.38273-1.2274 10.89003 7.9718 21.36483 18.7632 21.36483 1.925 0 5.3186-.82609 7.5414-1.83574zM1606 49V35h8.0497c8.3853 0 13.1671 1.51664 14.3291 4.5448 1.881 4.9017-.5262 11.4552-4.2075 11.4552-1.653 0-1.534.38045 1.8287 5.84558 1.65 2.68159 3 5.16335 3 5.51502 0 .35167-1.6875.63783-3.75.6359-3.5177-.0033-3.9337-.34396-6.7149-5.5-3.868-7.17061-5.5351-7.16956-5.5351.0035V63h-7zm13.4349-2.97525c4.77-1.81354 2.0655-6.02475-3.8692-6.02475-2.2656 0-2.5657.40942-2.5657 3.5 0 3.83536 1.4704 4.41226 6.4349 2.52475z"/><path fill="#8f8f8f" d="M745 588.34413c-9.88833-1.51692-9-.79547-9-7.3093v-5.87454l9.63454.57481c11.412.68085 15.02593-.67889 18.85055-7.09252l2.37543-3.98342-17.43026-34.77003C739.84362 510.76561 732 494.8673 732 494.55955c0-.30775 3.40025-.55955 7.5561-.55955h7.5561l13.64818 28.0624 13.64818 28.06241 14.04572-27.81241L802.5 494.5h7.25c3.9875 0 7.3625.24869 7.5.55265.1375.30396-9.2 18.966-20.75 41.47121-23.24704 45.29691-25.15771 48.10914-34.58896 50.90992-4.94095 1.4673-11.11414 1.79961-16.91104.91035zm-73.5-22.82446c-.55-.17733-3.46584-1.08475-6.47964-2.01647-3.0138-.93173-6.68327-2.55111-8.15437-3.59862-3.52272-2.5084-3.68629-2.4541-4.05263 1.34542L652.5 564.5l-6.75.29569-6.75.29569V462.90862l6.75.29569 6.75.29569.27144 19.20532.27143 19.20531 3.62601-2.46068c8.38245-5.68848 22.83398-8.21479 34.87925-6.09734 10.60896 1.86496 18.85444 6.11913 25.09533 12.94766 6.14503 6.72364 8.3723 13.03573 8.31495 23.56456-.12396 22.75848-15.97011 36.26123-42.31375 36.05622-5.57956-.04342-10.59466-.22404-11.14466-.40138zm18.70078-11.64128c6.84542-1.44888 9.90963-3.06154 14.18833-7.46718 6.46093-6.65261 8.38803-17.88821 4.52998-26.41121-2.64567-5.84465-6.2373-9.55873-12.41909-12.84248-4.45037-2.36402-6.09925-2.65606-15-2.65675-11.62711-.0009-16.7882 1.80611-22.78011 7.97578-5.17103 5.32445-7.03947 10.8618-6.55545 19.42787.32749 5.79576.91609 7.75271 3.39952 11.30248 6.38318 9.12405 20.86601 13.58616 34.63682 10.67149zM889 489.00171v-77.04149l21.1254.26989 21.12541.26989 26.62459 46.25144L984.5 505.00287l.25989-46.50143L985.01978 412H1024v154.03978l-21.0798-.26989-21.07984-.26989-26.67018-46.89476L928.5 471.71048l-.5 46.89476-.5 46.89476-19.25.27159-19.25.2716zm196.9803 67.26626c-1.7188-5.37238-12.7675-39.73689-24.5527-76.36557-11.7852-36.62868-21.4276-66.89118-21.4276-67.25 0-.35882 9.5725-.6524 21.2722-.6524h21.2722l13.9208 51.75c15.4931 57.59485 16.591 61.52875 17.0437 61.07072.1744-.1764 6.9042-24.84572 14.9551-54.82072 8.0509-29.975 14.8703-55.2875 15.1544-56.25.471-1.59617 2.4004-1.75 21.949-1.75 11.7879 0 21.4231.1125 21.4116.25-.012.1375-11.4018 34.675-25.3117 76.75l-25.2906 76.5-23.6356.26797-23.6357.26798zM1203 489v-77h41v154h-41zm73-.0679v-77.06786l42.25.37357c47.4501.41955 49.8292.72618 65.692 8.46653 10.185 4.96986 22.3349 16.89061 27.3106 26.79563 9.6878 19.28531 11.9917 44.30139 6.1906 67.21984-3.8128 15.06307-14.6876 30.60148-27.2557 38.94391-6.9875 4.63816-22.0383 9.85895-32.5099 11.27697-4.3226.58536-24.3437 1.05928-44.75 1.05928H1276zm74.7424 40.48606c4.2119-.87 9.3865-2.46362 11.4991-3.54138 5.7136-2.91488 11.3832-9.30486 13.9323-15.70256 1.9884-4.99041 2.2647-7.48199 2.2921-20.67425.028-13.29727-.2249-15.63334-2.2253-20.57935-3.0384-7.5124-7.901-12.93496-14.9146-16.63211-8.0124-4.22366-14.1285-5.28851-30.3752-5.28851H1317v84h13.0422c7.9986 0 16.0036-.6117 20.7002-1.58181zM1447 489v-77h41v154h-41zm58 76.07216c0-.51031 9.5012-25.82281 21.1138-56.25S1550.7376 444.275 1555.0275 433l7.7998-20.5 20.9817-.26958 20.9817-.26959 1.0011 2.76959c.5505 1.52327 9.099 23.91958 18.9965 49.76958C1653.2179 538.75157 1663 564.55742 1663 565.30505c0 .38222-9.5625.69187-21.25.6881l-21.25-.007-4.8471-13.99316L1610.8059 538h-26.8678c-24.5733 0-26.9458.14945-27.7822 1.75-.503.9625-2.8293 7.2625-5.1697 14l-4.2551 12.25h-20.8656c-12.1618 0-20.8655-.38703-20.8655-.92784zm95.7383-58.32216c-.2616-.6875-4.2147-12.725-8.7847-26.75-4.5701-14.025-8.4854-24.72138-8.7009-23.76974-.2155.95165-4.1512 12.98915-8.7461 26.75L1566.1522 508h17.5309c13.6117 0 17.4245-.27945 17.0552-1.25zM679.5 418.9832c-9.79779-.73588-31.80016-3.55724-36.25-4.64832-2.23446-.54789-2.25-.68214-2.25-19.44329 0-16.2938.21048-18.89159 1.53062-18.89159.84183 0 7.47933 1.0833 14.75 2.40733 42.56354 7.75108 60.82216 1.56188 77.04966-26.11784l4.72456-8.05881-55.52742-109.99679C652.98734 173.73566 628 123.72576 628 123.10078c0-.8245 6.63485-1.06285 24.17729-.86856l24.1773.26778 30.30234 62.5c16.66629 34.375 35.96693 74.17729 42.89032 88.44954l12.58797 25.94953 43.50973-86.44953c23.93035-47.54725 44.1603-87.46204 44.95544-88.69954 1.43214-2.22886 1.66726-2.25 25.02965-2.25 22.049 0 23.54041.1139 22.91517 1.75-2.01155 5.26368-128.72628 250.12129-133.12784 257.25-18.37742 29.7638-44.07775 41.12566-85.91737 37.9832zm320-69.06494c-41.05237-3.86332-76.92159-14.89365-103-31.67408-7.73342-4.97615-16.5-11.99604-16.5-13.21247 0-.82144 32.32218-22.45064 35.2-23.55496 1.07557-.41274 3.58487.77872 7.08375 3.3635 29.6162 21.87876 71.87805 32.28278 118.39895 29.14744 30.9164-2.08366 47.1451-6.96542 57.02-17.15226 5.2798-5.44663 7.2973-10.2415 7.2973-17.34315 0-12.23397-9.0276-20.87689-26.0975-24.98532-3.5214-.84754-26.5669-3.32739-51.2122-5.51078-52.84987-4.68211-60.15814-5.50355-72.57255-8.15704C919.07573 233.13541 900 213.61961 900 184.44986c0-35.31955 25.41965-57.95989 74.60727-66.44991 23.93309-4.13097 54.78433-4.86515 79.89273-1.90126 36.3933 4.29601 72.2443 18.16994 91.1261 35.26476l4.6998 4.25504-18.48 10.19076C1121.6819 171.41416 1113.1156 176 1112.8096 176c-.306 0-3.8945-2.00639-7.9744-4.45864-15.4551-9.28929-36.871-16.21063-59.2643-19.15347-15.3189-2.01315-52.25238-1.43392-63.0709.98915-15.52276 3.4767-27.83557 10.41442-32.21918 18.15405-1.53845 2.71629-2.25311 5.64153-2.26437 9.26857-.0255 8.21771 3.13986 12.79316 11.89104 17.18816 11.65466 5.85318 24.08434 7.71947 86.59251 13.00173 37.4122 3.16153 49.3805 4.757 60.7015 8.09205 19.4009 5.71531 33.9132 18.4786 40.4115 35.54098 5.1701 13.57494 4.2775 35.50346-1.9896 48.87742-10.8853 23.22969-37.4033 38.51209-78.1234 45.02284-12.0678 1.92952-53.3275 2.7762-68 1.39542zM24 183.96381V24.92761l113.75.3519c109.57038.33898 114.13581.4268 124.25 2.38995 23.7384 4.6076 40.8911 12.68255 54.77547 25.78656 17.92579 16.91827 27.59965 38.032 28.92128 63.12227 2.57094 48.8076-25.60186 85.55233-73.19654 95.46754-16.9777 3.5369-29.25064 3.95248-116.75021 3.95333L70 216v127H24zm228.31457-9.23047c27.46036-6.67272 43.95829-27.19826 43.99333-54.73334.02131-16.74484-4.30424-28.0046-14.79879-38.52246-9.94722-9.96931-22.70241-15.26622-42.00911-17.44532-5.34956-.6038-41.54974-1.01914-89.25-1.02401L70 63v114.08197l87.75-.34636c77.48023-.30583 88.54754-.54016 94.56457-2.00227zM365 184V25h44V146.06095l7.25794-4.89761c20.17982-13.6172 42.5747-21.37654 69.59801-24.1142 35.18466-3.56447 68.29842 2.15557 92.69229 16.01158 9.56859 5.43507 23.80502 18.69126 29.8554 27.79972 4.98135 7.4991 8.82898 16.57022 11.08744 26.13956 2.53318 10.73337 3.59983 43.4166 3.29625 101L622.5 342.5l-21.69976.26936-21.69977.26936-.36055-69.76936c-.39391-76.22369-.26452-74.4721-6.40971-86.76906-7.1292-14.26604-21.99568-24.85076-42.83021-30.49448-11.32434-3.06757-37.20676-3.88367-50.39953-1.58915-27.57076 4.79517-49.74118 17.62304-64.54226 37.34434L408 200.49933V343h-43zm801 157.35781c0-.54585 8.3672-10.87599 10.0096-12.35781.3048-.275 1.8898-2.32386 3.5223-4.55302 1.6324-2.22916 7.9813-10.10416 14.1087-17.5 9.8509-11.89044 30.3798-36.85621 33.6699-40.94698.6635-.825 3.3674-4.2 6.0087-7.5 9.4705-11.83236 11.2125-13.92744 13.4308-16.15235 1.2375-1.24121 2.25-2.5218 2.25-2.84576s1.6323-2.35316 3.6272-4.50935c1.995-2.15618 4.5825-5.23429 5.75-6.84024 1.8614-2.56032 12.6962-16.02883 17.4183-21.6523.9237-1.1 3.4545-4.25 5.624-7 2.1695-2.75 4.2164-5.225 4.5486-5.5.3322-.275 3.5113-4.1 7.0646-8.5 7.4575-9.23454 8.8219-10.90539 11.2173-13.73722.9625-1.13784 1.75-2.43492 1.75-2.88241 0-.44749-1.9125-3.03063-4.25-5.74032-9.7793-11.3364-21.9816-26.14351-27.2278-33.04005-1.0878-1.43-2.4378-3.09901-3-3.70892-2.3391-2.53756-9.1239-10.6638-19.1123-22.89108-5.8409-7.15-11.5884-14.125-12.7723-15.5-1.1839-1.375-5.9742-7.20854-10.6451-12.96343-4.6709-5.75488-9.1675-11.18676-9.9925-12.07084-.825-.88408-2.85-3.34264-4.5-5.46346-1.65-2.12082-3.45-4.3498-4-4.9533-1.0729-1.17724-9.2258-11.06735-11.1691-13.54897-.646-.825-3.6848-4.50428-6.7528-8.17618-3.0679-3.6719-5.5781-6.93738-5.5781-7.25662 0-.31924 32.2385-.46496 71.6411-.32382 62.4602.22373 71.7489.44885 72.4818 1.75662 10.8144 19.29437 31.0007 54.75423 31.5947 55.5.4381.55 1.353 2.125 2.0332 3.5 3.3903 6.85405 13.7147 23.98972 14.457 23.99498.3894.003 1.784-1.90748 3.0993-4.24498s4.535-8.075 7.1548-12.75c2.6198-4.675 5.6126-9.9625 6.6507-11.75 1.0381-1.7875 2.7191-4.7125 3.7356-6.5 1.0164-1.7875 7.0028-12.25 13.3029-23.25s12.0481-21.4625 12.7732-23.25l1.3183-3.25h71.3787c39.2583 0 71.3787.29502 71.3787.6556 0 .63782-4.8065 7.34353-5.981 8.3444-.3228.275-2.3716 2.75-4.5529 5.5-2.1814 2.75-4.1921 5.225-4.4684 5.5-.2762.275-3.2012 3.8739-6.5 7.99754-3.2987 4.12365-8.2477 10.20767-10.9977 13.52006-2.75 3.31238-6.35 7.75175-8 9.86526-1.65 2.1135-3.8419 4.80448-4.8708 5.97994-1.0289 1.17546-3.5591 4.3872-5.6226 7.1372-2.0635 2.75-4.8217 6.15212-6.1292 7.56026-2.4066 2.59165-14.031 16.92947-21.7719 26.85386-2.3227 2.97776-6.2223 7.70276-8.6658 10.5-2.4436 2.79723-7.859 9.36088-12.0342 14.58588s-9.237 11.48636-11.2484 13.91413c-7.1446 8.62352-7.1407 8.61333-4.4071 11.65766.9625 1.07191 3.3873 3.96926 5.3884 6.43857 2.001 2.4693 4.476 5.47708 5.5 6.68395 1.0239 1.20686 5.0116 6.10797 8.8616 10.89134 3.85 4.78338 11.8333 14.59594 17.7407 21.8057 5.9074 7.20976 11.7574 14.37407 13 15.92069 1.2426 1.54663 2.9505 3.57163 3.7954 4.5.8448.92838 4.2198 5.03237 7.5 9.11997 3.2801 4.08761 6.7368 8.36261 7.6815 9.5.9446 1.1374 4.2414 5.21799 7.3263 9.06799 6.0245 7.51885 9.8069 12.14123 18.4561 22.55467 3.025 3.64203 6.9198 8.38215 8.6551 10.5336 1.7354 2.15145 8.2604 10.15938 14.5 17.7954C1587.0338 334.36819 1592 340.70782 1592 341.4403c0 .30784-32.1225.5597-71.3834.5597-67.0789 0-71.4211-.10553-72.0097-1.75-.3444-.9625-2.3094-4.32463-4.3666-7.47141-2.0572-3.14677-7.3118-11.24677-11.6769-18-8.5613-13.24499-20.16-31.03481-31.1508-47.77859-3.7908-5.775-7.1219-10.95-7.4025-11.5-.2805-.55-3.8681-6.06801-7.9723-12.26224l-7.4621-11.26224-4.2544 6.76224c-2.3399 3.71923-4.7103 7.43724-5.2674 8.26224-8.6866 12.86217-19.8897 30.12133-24.5605 37.83712-.5537.91459-4.1163 6.38788-7.9169 12.16288-11.4579 17.41019-23.0339 35.21621-26.1435 40.21349l-2.933 4.71349-70.75.0365c-38.9125.0201-70.75-.25247-70.75-.60568zm439.5-268.22515c-9.2818-4.23113-14.3417-11.2949-15.2476-21.28618-.7363-8.12 1.1602-13.9768 6.4202-19.82727 5.5538-6.17713 11.34-8.53306 20.8274-8.48023 5.1975.02895 8.2202.6299 11.7387 2.33376 6.0638 2.93643 12.1417 9.84271 13.7652 15.6413 1.7282 6.17227.7692 15.35892-2.1552 20.64609-2.7667 5.00216-9.3839 10.33897-14.624 11.79426-5.9331 1.64778-16.2004 1.24069-20.7247-.82173zm18.7329-5.5855c7.6245-3.1857 12.4636-12.01873 11.4185-20.84269C1634.4627 36.6675 1627.0181 30 1617 30c-8.4696 0-14.9143 4.29025-17.5512 11.6838-5.925 16.61315 9.185 32.3811 24.7841 25.86337zM1606 49V35h7.3508C1625.2254 35 1629 37.15496 1629 43.93426c0 2.97112-2.3653 6.35417-5.0738 7.25701-.9654.3218-.4578 1.84877 1.875 5.64003 1.7593 2.8593 3.1988 5.41699 3.1988 5.68372 0 .26674-1.6875.4834-3.75.48148-3.5177-.0033-3.9337-.34396-6.7149-5.5-3.868-7.17061-5.5351-7.16956-5.5351.0035V63h-7zm13.75-2.63029c1.4978-.4014 2.25-1.36399 2.25-2.87935 0-2.52029-1.6903-3.49036-6.0818-3.49036-2.6684 0-2.9182.29958-2.9182 3.5 0 2.967.3426 3.49792 2.25 3.48635 1.2375-.0075 3.2625-.285 4.5-.61664z"/><path fill="#84bf20" d="M747.5 588.36151c-1.65-.20739-4.9125-.62615-7.25-.93057l-4.25-.55349v-11.94634l5.25.78445c12.56506 1.87744 18.44683.21541 23.1244-6.53432l2.74285-3.95793-17.5614-35.11165L731.99444 495H747.56085l12.8854 26.75c7.08697 14.7125 13.15967 27.07639 13.49488 27.4753.33521.39892 6.89809-11.62812 14.58417-26.72675L802.5 495.0465l7.25-.0232c3.9875-.0128 7.25.28603 7.25.66404 0 1.51054-40.45501 79.11419-43.41116 83.27434-5.02858 7.07665-15.25579 10.76154-26.08884 9.39988zm-79.49304-23.96902c-3.02116-.81174-7.85866-2.81098-10.75-4.44274L652 556.9829V564h-13V464h13v19c0 10.45.1951 19 .43355 19 .23846 0 2.60096-1.33552 5.25-2.96781C664.20896 495.01134 672.6907 493 683.121 493 707.89142 493 725 507.64804 725 528.85601c0 23.21981-16.09722 37.27062-42.47836 37.07818-4.9619-.0362-11.49351-.72996-14.51468-1.5417zm24.64789-10.88263c14.21772-4.22221 21.25712-17.28994 17.24327-32.00986-1.49011-5.46465-9.96193-13.65227-16.39377-15.84382-10.51649-3.58333-24.55731-1.53125-32.86161 4.80275-7.80386 5.95229-11.08106 19.44249-7.12129 29.31391 4.67831 11.6627 23.66969 18.32925 39.1334 13.73702zM889 488.98011v-77.01989l21.06404.26989 21.06403.26989 26.41122 45.92526c14.52618 25.25889 26.87236 46.38639 27.43597 46.95C985.67491 506.07491 986 491.42638 986 459.2V412h38v154h-41.77117l-26.86442-47.46144c-14.77542-26.10379-27.20191-47.47879-27.61441-47.5-.4125-.02121-.75 21.33644-.75 47.46144V566h-38zm199.1277 73.78779c-.5715-1.79734-11.6341-36.23584-24.5834-76.52998-12.9494-40.29414-23.5443-73.48164-23.5443-73.75 0-.26836 9.5625-.48515 21.25-.48177l21.25.006 14.9077 55.74386c8.1993 30.65912 15.1869 56.29691 15.5281 56.97287.3411.67596 7.486-24.27737 15.8774-55.45185s15.4005-56.82418 15.5756-56.99934c.1752-.17515 9.7791-.19682 21.3421-.0481l21.0235.27031-25.2401 76.5-25.2402 76.5-23.5536.2679-23.5536.2679zM1203 489.02071V412h41.0124l-.2562 76.75-.2562 76.75-20.25.27071-20.25.2707zm73.6667 76.31262c-.3667-.36666-.6667-35.05125-.6667-77.07686v-76.41019l41.75.41227c38.7946.38308 42.3375.56526 50.0493 2.57352 25.1386 6.54637 42.1423 22.83737 49.2485 47.18426 3.3049 11.32341 3.855 35.00962 1.1205 48.25455-4.446 21.53511-16.482 37.93751-34.1683 46.56357-9.9756 4.86536-17.1544 6.8537-29.5 8.17076-10.1246 1.08011-76.8003 1.3612-77.8333.32812zm78.8333-36.66806c10.811-3.44924 18.8014-11.10191 21.5413-20.63075 2.2403-7.79169 3.107-19.73327 2.0065-27.64588-1.9416-13.95982-8.1616-23.67156-18.3582-28.66438-8.0089-3.92154-12.6348-4.67279-28.9396-4.69981L1317 447v84.23079l16.75-.48514c11.3801-.32961 18.353-.99656 21.75-2.08038zM1447 489v-77h41v154h-41zm58 76.15846c0-.66567 36.9094-97.86969 54.6435-143.90846l3.5631-9.25h41.4898l29.1518 76.3925C1649.8817 530.40838 1663 565.06733 1663 565.41239c0 .34506-9.5593.50594-21.243.3575l-21.243-.26989-2.2653-6.5c-1.2459-3.575-3.4322-9.7625-4.8585-13.75l-2.5931-7.25h-54.3537l-3.3967 9.75c-1.8682 5.3625-4.2019 11.6625-5.1861 14l-1.7895 4.25h-20.5356c-11.2945 0-20.5355-.37869-20.5355-.84154zm95.7521-58.40846c-.254-.6875-3.9249-12.05-8.1575-25.25-4.2325-13.2-7.9462-24.675-8.2525-25.5-.674-1.81498-1.1345-.56429-10.77 29.25l-7.3524 22.75h17.4971c13.5774 0 17.3937-.28003 17.0353-1.25zm-935.00086-89.26789c-5.91182-.71554-13.89932-1.8324-17.75-2.4819L641 413.8193v-18.90965C641 382.59539 641.35946 376 642.03062 376c.56683 0 7.20433 1.14112 14.75 2.53583 26.22371 4.84707 41.63254 4.24073 54.68815-2.15198 7.26803-3.5588 17.62574-14.47052 23.35876-24.60814l4.32754-7.65232-55.57754-110.05962C653.00989 173.53098 628 123.77822 628 123.50208c0-.27615 10.9125-.50005 24.25-.49757l24.25.005 42.44701 87.55823c23.34586 48.15703 42.69728 87.71291 43.00316 87.90195.30588.18905 20.49991-39.21418 44.87562-87.56274L851.14526 123h47.95585l-9.97321 19.25c-5.48526 10.5875-34.89573 67.625-65.35659 126.75-30.46087 59.125-57.55576 110.79198-60.21088 114.81552-12.87475 19.51023-27.50013 29.44023-49.51055 33.61553-10.03212 1.90306-32.79857 1.92713-48.29864.0511zM1009 350.30674c-36.36836-2.13775-70.96692-10.57225-97.5-23.76871-12.754-6.34331-31-18.8533-31-21.25449 0-1.01793 31.68238-22.63964 35.11325-23.96312.61229-.2362 4.46757 1.97716 8.56729 4.91857C948.39559 303.6125 978.27891 312.7392 1017 314.5871c23.3261 1.1132 52.1633-2.45826 66.6386-8.25312 6.8684-2.74962 16.3432-10.46428 18.8825-15.3747 2.5851-4.99912 3.4365-11.05014 2.3113-16.4273-.853-4.07668-2.0466-6.00399-6.2872-10.15196-9.6292-9.41897-16.8247-11.0526-67.5603-15.33863-63.57054-5.37029-72.78673-6.62405-89.46403-12.17054-11.46884-3.81428-18.17622-7.68144-25.97268-14.97466-13.16966-12.31956-18.34561-31.03473-14.10984-51.01819 7.1143-33.56368 42.18498-52.51278 103.34375-55.83785 52.7109-2.86577 98.6988 7.27501 130.8876 28.862 4.8566 3.25707 10.0708 7.22677 11.5869 8.82154l2.7567 2.89958-18.4319 10.22435-18.4318 10.22434-8.7989-5.04517c-15.7138-9.01017-35.7695-15.5627-56.8796-18.58355-14.817-2.1203-46.6198-2.12031-59.78417-.00001-27.02575 4.35287-43.06894 17.2714-39.71436 31.97938 2.56726 11.256 14.33529 17.43063 40.08704 21.0335 9.66786 1.3526 30.08059 3.30414 73.94039 7.069 31.6185 2.71409 45.0075 5.44282 57.5 11.71872 22.0032 11.05386 32.6876 30.48086 31.2375 56.79785-1.6738 30.37501-21.7533 51.29523-59.7934 62.29666-21.1148 6.10655-51.9691 8.73035-81.9441 6.9684zM24 183.97496V24.91237l113.25.3671c110.57678.35842 113.50965.41727 124.25 2.493 26.30237 5.08335 44.6132 14.18751 59.05733 29.36335C331.64384 68.78394 338.91262 82.12098 343.10109 98.5c3.0525 11.9368 3.30324 33.0068.53551 45-8.78217 38.05516-33.9583 61.54563-73.92679 68.97704-15.99035 2.97312-33.12839 3.49148-115.95235 3.50713L70.01491 216l-.25745 63.25L69.5 342.5l-22.75.26877-22.75.26878zm230.31395-9.71941c25.34107-7.15559 40.41905-25.11965 42.26622-50.35641 1.93251-26.40271-12.00683-47.21614-37.55769-56.07901-13.00507-4.5111-19.62059-4.808-107.27248-4.81424L69 63V177.07161l88.75-.30482c88.02951-.30234 88.81344-.32272 96.56395-2.51124zm111.35272 168.07778c-.36667-.36666-.66667-71.91666-.66667-159V25h43.98451l.25774 60.47334.25775 60.47334 6.3751-4.43671c14.22279-9.89827 33.07596-17.84137 50.93649-21.46026 35.57568-7.20832 76.19897-3.88393 102.81603 8.4139 20.71615 9.57145 38.23973 27.25366 45.96608 46.38217 5.75698 14.25284 5.70288 13.42306 6.12384 93.92426l.38838 74.27004-21.30296-.27004L579.5 342.5l-.50746-70-.50747-70-2.6344-7.74394c-5.13515-15.09499-13.8222-24.66441-29.35067-32.33192-32.64381-16.11856-79.48301-12.4565-110.61883 8.6486-7.85156 5.3221-19.16226 16.63059-24.15071 24.14602L408 200.83894V343h-20.83333c-11.45834 0-21.13334-.3-21.5-.66667zM1166 341.35781c0-.54585 8.3672-10.87599 10.0096-12.35781.3048-.275 1.8898-2.32386 3.5223-4.55302 1.6324-2.22916 7.9813-10.10416 14.1087-17.5 9.8509-11.89044 30.3798-36.85621 33.6699-40.94698.6635-.825 3.3674-4.2 6.0087-7.5 9.4705-11.83236 11.2125-13.92744 13.4308-16.15235 1.2375-1.24121 2.25-2.5218 2.25-2.84576s1.6323-2.35316 3.6272-4.50935c1.995-2.15618 4.5825-5.23429 5.75-6.84024 1.8614-2.56032 12.6962-16.02883 17.4183-21.6523.9237-1.1 3.4545-4.25 5.624-7 2.1695-2.75 4.2164-5.225 4.5486-5.5.3322-.275 3.5113-4.1 7.0646-8.5 7.4575-9.23454 8.8219-10.90539 11.2173-13.73722.9625-1.13784 1.75-2.43492 1.75-2.88241 0-.44749-1.9125-3.03063-4.25-5.74032-9.7793-11.3364-21.9816-26.14351-27.2278-33.04005-1.0878-1.43-2.4378-3.09901-3-3.70892-2.3391-2.53756-9.1239-10.6638-19.1123-22.89108-5.8409-7.15-11.5884-14.125-12.7723-15.5-1.1839-1.375-5.9742-7.20854-10.6451-12.96343-4.6709-5.75488-9.1675-11.18676-9.9925-12.07084-.825-.88408-2.85-3.34264-4.5-5.46346-1.65-2.12082-3.45-4.3498-4-4.9533-1.0729-1.17724-9.2258-11.06735-11.1691-13.54897-.646-.825-3.6848-4.50428-6.7528-8.17618-3.0679-3.6719-5.5781-6.93738-5.5781-7.25662 0-.31924 32.2385-.46496 71.6411-.32382 62.4602.22373 71.7489.44885 72.4818 1.75662 10.8144 19.29437 31.0007 54.75423 31.5947 55.5.4381.55 1.353 2.125 2.0332 3.5 3.3903 6.85405 13.7147 23.98972 14.457 23.99498.3894.003 1.784-1.90748 3.0993-4.24498s4.535-8.075 7.1548-12.75c2.6198-4.675 5.6126-9.9625 6.6507-11.75 1.0381-1.7875 2.7191-4.7125 3.7356-6.5 1.0164-1.7875 7.0028-12.25 13.3029-23.25s12.0481-21.4625 12.7732-23.25l1.3183-3.25h71.3787c39.2583 0 71.3787.29502 71.3787.6556 0 .63782-4.8065 7.34353-5.981 8.3444-.3228.275-2.3716 2.75-4.5529 5.5-2.1814 2.75-4.1921 5.225-4.4684 5.5-.2762.275-3.2012 3.8739-6.5 7.99754-3.2987 4.12365-8.2477 10.20767-10.9977 13.52006-2.75 3.31238-6.35 7.75175-8 9.86526-1.65 2.1135-3.8419 4.80448-4.8708 5.97994-1.0289 1.17546-3.5591 4.3872-5.6226 7.1372-2.0635 2.75-4.8217 6.15212-6.1292 7.56026-2.4066 2.59165-14.031 16.92947-21.7719 26.85386-2.3227 2.97776-6.2223 7.70276-8.6658 10.5-2.4436 2.79723-7.859 9.36088-12.0342 14.58588s-9.237 11.48636-11.2484 13.91413c-7.1446 8.62352-7.1407 8.61333-4.4071 11.65766.9625 1.07191 3.3873 3.96926 5.3884 6.43857 2.001 2.4693 4.476 5.47708 5.5 6.68395 1.0239 1.20686 5.0116 6.10797 8.8616 10.89134 3.85 4.78338 11.8333 14.59594 17.7407 21.8057 5.9074 7.20976 11.7574 14.37407 13 15.92069 1.2426 1.54663 2.9505 3.57163 3.7954 4.5.8448.92838 4.2198 5.03237 7.5 9.11997 3.2801 4.08761 6.7368 8.36261 7.6815 9.5.9446 1.1374 4.2414 5.21799 7.3263 9.06799 6.0245 7.51885 9.8069 12.14123 18.4561 22.55467 3.025 3.64203 6.9198 8.38215 8.6551 10.5336 1.7354 2.15145 8.2604 10.15938 14.5 17.7954C1587.0338 334.36819 1592 340.70782 1592 341.4403c0 .30784-32.1225.5597-71.3834.5597-67.0789 0-71.4211-.10553-72.0097-1.75-.3444-.9625-2.3094-4.32463-4.3666-7.47141-2.0572-3.14677-7.3118-11.24677-11.6769-18-8.5613-13.24499-20.16-31.03481-31.1508-47.77859-3.7908-5.775-7.1219-10.95-7.4025-11.5-.2805-.55-3.8681-6.06801-7.9723-12.26224l-7.4621-11.26224-4.2544 6.76224c-2.3399 3.71923-4.7103 7.43724-5.2674 8.26224-8.6866 12.86217-19.8897 30.12133-24.5605 37.83712-.5537.91459-4.1163 6.38788-7.9169 12.16288-11.4579 17.41019-23.0339 35.21621-26.1435 40.21349l-2.933 4.71349-70.75.0365c-38.9125.0201-70.75-.25247-70.75-.60568zm440.5907-267.93106c-5.695-2.08662-10.1685-5.85216-13.3184-11.21064-2.4119-4.10296-2.77-5.7562-2.755-12.71611.021-9.46257 2.0991-14.30387 8.4901-19.77431 9.8709-8.44916 27.8409-7.93033 37.3342 1.07792 9.8604 9.35662 9.9998 26.90762.2907 36.61669-2.5584 2.5584-6.2138 4.93057-9.1279 5.92351-5.8709 2.0004-15.5753 2.03889-20.9137.08293zm17.6914-5.8075c4.1655-1.78739 9.1453-7.20694 10.5838-11.51847 3.8331-11.48895-2.1876-23.00663-13.6159-26.04715-8.3587-2.22385-17.8447 2.51525-21.4787 10.7305-2.7389 6.19163-2.1294 14.56526 1.4542 19.9805 4.694 7.0931 15.2129 10.22029 23.0566 6.85461zM1606.2218 49.25l.2782-13.75 5-.32047c11.8742-.76107 17.5 1.91374 17.5 8.32047 0 3.70584-2.7979 7.5-5.5307 7.5-1.1328 0-.6128 1.43507 2 5.51942 1.9419 3.03568 3.5307 5.76284 3.5307 6.06036 0 .29752-1.6613.40129-3.6918.23058-3.3248-.2795-4.0253-.88213-7.0445-6.06036-1.844-3.1625-3.7827-5.75-4.3082-5.75-.5255 0-.9555 2.7-.9555 6v6h-7.0564zm14.1964-2.85699c.87-.33384 1.5818-1.6357 1.5818-2.89301 0-2.52949-1.6864-3.5-6.0818-3.5-2.6684 0-2.9182.29958-2.9182 3.5s.2498 3.5 2.9182 3.5c1.605 0 3.63-.27315 4.5-.60699z"/><path fill="#6d6d6d" d="M747.5 588.36151c-1.65-.20739-4.9125-.62615-7.25-.93057l-4.25-.55349v-11.94634l5.25.78445c12.56506 1.87744 18.44683.21541 23.1244-6.53432l2.74285-3.95793-17.5614-35.11165L731.99444 495H747.56085l12.8854 26.75c7.08697 14.7125 13.15967 27.07639 13.49488 27.4753.33521.39892 6.89809-11.62812 14.58417-26.72675L802.5 495.0465l7.25-.0232c3.9875-.0128 7.25.28603 7.25.66404 0 1.51054-40.45501 79.11419-43.41116 83.27434-5.02858 7.07665-15.25579 10.76154-26.08884 9.39988zm-79.49304-23.96902c-3.02116-.81174-7.85866-2.81098-10.75-4.44274L652 556.9829V564h-13V464h13v19c0 10.45.1951 19 .43355 19 .23846 0 2.60096-1.33552 5.25-2.96781C664.20896 495.01134 672.6907 493 683.121 493 707.89142 493 725 507.64804 725 528.85601c0 23.21981-16.09722 37.27062-42.47836 37.07818-4.9619-.0362-11.49351-.72996-14.51468-1.5417zm24.64789-10.88263c14.21772-4.22221 21.25712-17.28994 17.24327-32.00986-1.49011-5.46465-9.96193-13.65227-16.39377-15.84382-10.51649-3.58333-24.55731-1.53125-32.86161 4.80275-7.80386 5.95229-11.08106 19.44249-7.12129 29.31391 4.67831 11.6627 23.66969 18.32925 39.1334 13.73702zM889 488.98011v-77.01989l21.06404.26989 21.06403.26989 26.41122 45.92526c14.52618 25.25889 26.87236 46.38639 27.43597 46.95C985.67491 506.07491 986 491.42638 986 459.2V412h38v154h-41.77117l-26.86442-47.46144c-14.77542-26.10379-27.20191-47.47879-27.61441-47.5-.4125-.02121-.75 21.33644-.75 47.46144V566h-38zm199.1277 73.78779c-.5715-1.79734-11.6341-36.23584-24.5834-76.52998-12.9494-40.29414-23.5443-73.48164-23.5443-73.75 0-.26836 9.5625-.48515 21.25-.48177l21.25.006 14.9077 55.74386c8.1993 30.65912 15.1869 56.29691 15.5281 56.97287.3411.67596 7.486-24.27737 15.8774-55.45185s15.4005-56.82418 15.5756-56.99934c.1752-.17515 9.7791-.19682 21.3421-.0481l21.0235.27031-25.2401 76.5-25.2402 76.5-23.5536.2679-23.5536.2679zM1203 489.02071V412h41.0124l-.2562 76.75-.2562 76.75-20.25.27071-20.25.2707zm73.6667 76.31262c-.3667-.36666-.6667-35.05125-.6667-77.07686v-76.41019l41.75.41227c38.7946.38308 42.3375.56526 50.0493 2.57352 25.1386 6.54637 42.1423 22.83737 49.2485 47.18426 3.3049 11.32341 3.855 35.00962 1.1205 48.25455-4.446 21.53511-16.482 37.93751-34.1683 46.56357-9.9756 4.86536-17.1544 6.8537-29.5 8.17076-10.1246 1.08011-76.8003 1.3612-77.8333.32812zm78.8333-36.66806c10.811-3.44924 18.8014-11.10191 21.5413-20.63075 2.2403-7.79169 3.107-19.73327 2.0065-27.64588-1.9416-13.95982-8.1616-23.67156-18.3582-28.66438-8.0089-3.92154-12.6348-4.67279-28.9396-4.69981L1317 447v84.23079l16.75-.48514c11.3801-.32961 18.353-.99656 21.75-2.08038zM1447 489v-77h41v154h-41zm58 76.15846c0-.66567 36.9094-97.86969 54.6435-143.90846l3.5631-9.25h41.4898l29.1518 76.3925C1649.8817 530.40838 1663 565.06733 1663 565.41239c0 .34506-9.5593.50594-21.243.3575l-21.243-.26989-2.2653-6.5c-1.2459-3.575-3.4322-9.7625-4.8585-13.75l-2.5931-7.25h-54.3537l-3.3967 9.75c-1.8682 5.3625-4.2019 11.6625-5.1861 14l-1.7895 4.25h-20.5356c-11.2945 0-20.5355-.37869-20.5355-.84154zm95.7521-58.40846c-.254-.6875-3.9249-12.05-8.1575-25.25-4.2325-13.2-7.9462-24.675-8.2525-25.5-.674-1.81498-1.1345-.56429-10.77 29.25l-7.3524 22.75h17.4971c13.5774 0 17.3937-.28003 17.0353-1.25zm-935.00086-89.26789c-5.91182-.71554-13.89932-1.8324-17.75-2.4819L641 413.8193v-18.90965C641 382.59539 641.35946 376 642.03062 376c.56683 0 7.20433 1.14112 14.75 2.53583 26.22371 4.84707 41.63254 4.24073 54.68815-2.15198 7.26803-3.5588 17.62574-14.47052 23.35876-24.60814l4.32754-7.65232-55.57754-110.05962C653.00989 173.53098 628 123.77822 628 123.50208c0-.27615 10.9125-.50005 24.25-.49757l24.25.005 42.44701 87.55823c23.34586 48.15703 42.69728 87.71291 43.00316 87.90195.30588.18905 20.49991-39.21418 44.87562-87.56274L851.14526 123h47.95585l-9.97321 19.25c-5.48526 10.5875-34.89573 67.625-65.35659 126.75-30.46087 59.125-57.55576 110.79198-60.21088 114.81552-12.87475 19.51023-27.50013 29.44023-49.51055 33.61553-10.03212 1.90306-32.79857 1.92713-48.29864.0511zM1009 350.30674c-36.36836-2.13775-70.96692-10.57225-97.5-23.76871-12.754-6.34331-31-18.8533-31-21.25449 0-1.01793 31.68238-22.63964 35.11325-23.96312.61229-.2362 4.46757 1.97716 8.56729 4.91857C948.39559 303.6125 978.27891 312.7392 1017 314.5871c23.3261 1.1132 52.1633-2.45826 66.6386-8.25312 6.8684-2.74962 16.3432-10.46428 18.8825-15.3747 2.5851-4.99912 3.4365-11.05014 2.3113-16.4273-.853-4.07668-2.0466-6.00399-6.2872-10.15196-9.6292-9.41897-16.8247-11.0526-67.5603-15.33863-63.57054-5.37029-72.78673-6.62405-89.46403-12.17054-11.46884-3.81428-18.17622-7.68144-25.97268-14.97466-13.16966-12.31956-18.34561-31.03473-14.10984-51.01819 7.1143-33.56368 42.18498-52.51278 103.34375-55.83785 52.7109-2.86577 98.6988 7.27501 130.8876 28.862 4.8566 3.25707 10.0708 7.22677 11.5869 8.82154l2.7567 2.89958-18.4319 10.22435-18.4318 10.22434-8.7989-5.04517c-15.7138-9.01017-35.7695-15.5627-56.8796-18.58355-14.817-2.1203-46.6198-2.12031-59.78417-.00001-27.02575 4.35287-43.06894 17.2714-39.71436 31.97938 2.56726 11.256 14.33529 17.43063 40.08704 21.0335 9.66786 1.3526 30.08059 3.30414 73.94039 7.069 31.6185 2.71409 45.0075 5.44282 57.5 11.71872 22.0032 11.05386 32.6876 30.48086 31.2375 56.79785-1.6738 30.37501-21.7533 51.29523-59.7934 62.29666-21.1148 6.10655-51.9691 8.73035-81.9441 6.9684zM24 183.97496V24.91237l113.25.3671c110.57678.35842 113.50965.41727 124.25 2.493 26.30237 5.08335 44.6132 14.18751 59.05733 29.36335C331.64384 68.78394 338.91262 82.12098 343.10109 98.5c3.0525 11.9368 3.30324 33.0068.53551 45-8.78217 38.05516-33.9583 61.54563-73.92679 68.97704-15.99035 2.97312-33.12839 3.49148-115.95235 3.50713L70.01491 216l-.25745 63.25L69.5 342.5l-22.75.26877-22.75.26878zm230.31395-9.71941c25.34107-7.15559 40.41905-25.11965 42.26622-50.35641 1.93251-26.40271-12.00683-47.21614-37.55769-56.07901-13.00507-4.5111-19.62059-4.808-107.27248-4.81424L69 63V177.07161l88.75-.30482c88.02951-.30234 88.81344-.32272 96.56395-2.51124zm111.35272 168.07778c-.36667-.36666-.66667-71.91666-.66667-159V25h43.98451l.25774 60.47334.25775 60.47334 6.3751-4.43671c14.22279-9.89827 33.07596-17.84137 50.93649-21.46026 35.57568-7.20832 76.19897-3.88393 102.81603 8.4139 20.71615 9.57145 38.23973 27.25366 45.96608 46.38217 5.75698 14.25284 5.70288 13.42306 6.12384 93.92426l.38838 74.27004-21.30296-.27004L579.5 342.5l-.50746-70-.50747-70-2.6344-7.74394c-5.13515-15.09499-13.8222-24.66441-29.35067-32.33192-32.64381-16.11856-79.48301-12.4565-110.61883 8.6486-7.85156 5.3221-19.16226 16.63059-24.15071 24.14602L408 200.83894V343h-20.83333c-11.45834 0-21.13334-.3-21.5-.66667zM1606.5907 73.42674c-5.695-2.0866-10.1685-5.85215-13.3184-11.21063-2.4119-4.10296-2.77-5.7562-2.755-12.71611.021-9.46257 2.0991-14.30387 8.4901-19.77431 9.8709-8.44916 27.8409-7.93033 37.3342 1.07792 9.8604 9.35662 9.9998 26.90762.2907 36.61669-2.5584 2.5584-6.2138 4.93057-9.1279 5.92351-5.8709 2.0004-15.5753 2.03889-20.9137.08293zm17.6914-5.8075c4.1655-1.78738 9.1453-7.20693 10.5838-11.51846 3.8331-11.48895-2.1876-23.00663-13.6159-26.04715-8.3587-2.22385-17.8447 2.51525-21.4787 10.7305-2.7389 6.19163-2.1294 14.56526 1.4542 19.9805 4.694 7.0931 15.2129 10.22029 23.0566 6.85461zM1606.2218 49.25l.2782-13.75 5-.32047c11.8742-.76107 17.5 1.91374 17.5 8.32047 0 3.70584-2.7979 7.5-5.5307 7.5-1.1328 0-.6128 1.43507 2 5.51942 1.9419 3.03568 3.5307 5.76284 3.5307 6.06036 0 .29752-1.6613.40129-3.6918.23058-3.3248-.2795-4.0253-.88213-7.0445-6.06036-1.844-3.1625-3.7827-5.75-4.3082-5.75-.5255 0-.9555 2.7-.9555 6v6h-7.0564zm14.1964-2.85699c.87-.33384 1.5818-1.6357 1.5818-2.89301 0-2.52949-1.6864-3.5-6.0818-3.5-2.6684 0-2.9182.29958-2.9182 3.5s.2498 3.5 2.9182 3.5c1.605 0 3.63-.27315 4.5-.60699z"/><path fill="#505050" d="M749 588.44515c-.825-.17714-4.0875-.60715-7.25-.95557l-5.75-.63349V574.75l3.19722.63944c13.66566 2.73314 20.50525 1.03949 25.34672-6.27647l2.68929-4.06379-17.66406-35.02459L731.90511 495l7.79745.001 7.79744.001 13 27.08856c7.15 14.89871 13.32818 27.29389 13.72928 27.54485.4011.25096 6.9223-11.9395 14.49154-27.08992L802.48309 495h7.25845c3.99216 0 7.25846.27095 7.25846.60211 0 1.39746-40.58326 79.27142-43.33926 83.16237-1.96327 2.77176-4.79527 5.10257-8.09066 6.6588-4.72549 2.2316-13.12041 3.76258-16.57008 3.02187zm-80.74933-23.99029c-5.72655-1.54203-12.74831-4.83301-13.74184-6.44057C653.21358 555.91853 652 557.12093 652 560.5v3.5h-13V464h13v19c0 10.45.23465 19 .52144 19s2.19929-1.08868 4.25-2.41929c12.41609-8.05621 35.16722-8.75427 49.35847-1.51443 6.24339 3.18514 12.53764 9.55709 15.59962 15.79221 2.46879 5.02721 2.76968 6.73041 2.76319 15.64151-.006 8.27785-.403 10.8769-2.30512 15.09189-2.62737 5.82207-9.8236 13.29167-15.6876 16.28352-9.75523 4.97719-27.04861 6.59554-38.24933 3.57945zm24.40418-10.945c11.63782-3.45606 18.33734-12.23949 18.31342-24.00986-.0145-7.12128-2.25283-12.61271-7.06724-17.33825-5.69009-5.58506-10.40895-7.46991-19.90103-7.94906-10.05919-.50778-15.09833.66745-21.65734 5.0509-12.79905 8.55375-14.52218 28.67601-3.26663 38.14693 6.3298 5.32618 12.31996 7.32064 22.49247 7.48903 3.33767.0553 8.32653-.57011 11.08635-1.38969zM889 489v-77H930.74263l26.73412 46.50614c14.70376 25.57838 27.13667 46.75494 27.62868 47.05902.52125.32215.89457-19.08558.89457-46.50614V412h38v154h-41.62229l-27.43886-48.23591L927.5 469.52817l-.2596 48.23592L926.98079 566H889zm176.0501 1.25c-13.3884-41.6625-24.5534-76.3216-24.8111-77.02022-.3715-1.00713 3.9457-1.21425 20.843-1l21.3115.27022 14.2507 53c17.7157 65.88632 16.4271 61.49793 17.3237 59 .3948-1.1 7.3882-26.8625 15.5408-57.25l14.823-55.25h21.3932c11.7662 0 21.1927.3375 20.9477.75-.245.4125-11.7641 35.0625-25.598 77L1135.922 566h-46.5294zM1203 489.02071V412h41.0124l-.2562 76.75-.2562 76.75-20.25.27071-20.25.2707zm73.6667 76.31262c-.3667-.36666-.6667-35.05484-.6667-77.08483v-76.41816l41.75.41135c38.9653.38392 42.2836.55594 49.75 2.57899 20.7235 5.61511 36.4532 17.7853 44.2757 34.25647 6.5678 13.82914 7.7247 19.8102 7.7219 39.92285 0 15.27034-.2954 18.51927-2.3022 25.5-3.878 13.48935-8.6996 22.05561-17.2448 30.63776-11.751 11.80173-25.3495 17.65712-46.0772 19.8403-10.4436 1.1-76.1596 1.4024-77.2067.35527zm73.3133-35.32954c17.9606-3.40616 26.6817-13.21949 29.0378-32.67464 2.8424-23.46996-5.1549-40.8758-21.8162-47.48252-4.9634-1.96815-7.935-2.30948-22.9516-2.63635l-17.25-.37549V531h13.8635c7.6249 0 16.2274-.4483 19.1165-.99621zM1447 489v-77h41v154h-41zm58 76.41279c0-.34528 13.1183-35.00441 29.1518-77.02029L1563.3036 412h41.2386l28.8803 75.75c15.8843 41.6625 29.0889 76.3216 29.3437 77.02022.3673 1.00696-3.9442 1.21422-20.8021 1l-21.2654-.27022-4.7355-13.5-4.7354-13.5-27.4588-.26555-27.4587-.26554-4.9051 13.76554L1546.5 565.5l-20.75.27029c-11.4125.14866-20.75-.0122-20.75-.3575zm95.4678-59.66279c-3.1069-10.48178-15.8526-49.40568-16.3638-49.97372-.3583-.39805-4.4178 10.62695-9.0212 24.5-4.6033 13.87305-8.5783 25.78622-8.8332 26.47372-.3599.97034 3.4907 1.25 17.2108 1.25h17.6744zm-937.83753-88.7189c-7.62836-1.04267-15.61586-2.19077-17.75-2.55133L641 413.8242V375.75l3.25.6514c28.4477 5.70182 49.12536 6.77716 60.25 3.13332 12.29267-4.02644 23.41474-14.5166 31.52596-29.7348l3.09874-5.81383-55.31235-109.64076c-30.42179-60.30242-55.46235-110.02429-55.64568-110.49304-.18334-.46876 10.61666-.8392 24-.8232l24.33333.0291 42.5 87.93619c23.375 48.3649 42.76349 87.95181 43.08552 87.97091.32204.01909 20.49018-39.56529 44.81808-87.96529l44.23256-88h47.89312l-6.92696 13.25c-3.80983 7.2875-33.08748 64.05377-65.06145 126.14726-31.97397 62.09349-60.19694 116.09349-62.7177 120C752.19161 401.1979 738.90218 411.19315 719 416.48572c-10.09748 2.68521-38.69042 2.96185-56.36973.54538zM1003.5 349.88091c-42.64174-3.24543-80.89816-14.73226-107.28441-32.21311-12.06499-7.99303-17.11709-12.3311-15.59246-13.38871.61772-.4285 8.81768-5.89936 18.22212-12.15747l17.09899-11.37838 8.77788 6.00167c23.6287 16.15556 48.9829 24.53245 82.77788 27.34936 15.852 1.32132 36.6361.65496 52.3977-1.67992 29.7927-4.4134 45.2753-15.61956 45.4008-32.86072.071-9.80833-4.8968-16.62452-15.7918-21.66583-9.0233-4.17522-18.1285-5.52035-63.5067-9.38195-65.99709-5.61624-77.22367-7.52452-94.92348-16.13498-16.4356-7.99545-26.15324-19.79239-29.56273-35.88831-4.66333-22.01526 2.53244-42.79721 19.83845-57.295 33.1366-27.75956 125.59446-33.09239 183.96166-10.61064 12.5499 4.83395 25.8035 11.89485 34.6007 18.43369 4.172 3.10096 8.1212 6.29354 8.776 7.09462.9991 1.22223-1.7806 3.1091-17.28 11.72984l-18.4706 10.27331-5.72-3.44283c-28.0416-16.87802-61.9464-23.89874-104.3129-21.60024-16.88887.91628-27.43172 3.12027-37.53048 7.84579-18.265 8.54675-23.42024 23.62719-11.87306 34.7318 9.57866 9.21155 24.36396 11.96411 95.99644 17.87155 44.5826 3.67667 57.1216 6.02692 70.978 13.30381 9.0662 4.76127 19.3161 14.44197 23.3962 22.09706 9.2893 17.4285 9.3696 40.77279.2028 58.93216-3.9176 7.76062-13.3881 17.87613-22.2554 23.77112-24.9038 16.55601-68.6311 24.04422-118.3216 20.26231zM24 184.01877V25h105.89405c121.25447 0 126.93133.29117 150.60595 7.72455 34.62335 10.8711 57.74787 37.36778 63.88548 73.20167 2.88531 16.84561 1.72402 30.80976-3.99793 48.07378-4.37922 13.2128-9.67853 22.19482-18.69488 31.68668-16.7718 17.65635-39.34487 26.74949-72.69267 29.28288-7.67968.58342-49.17321 1.02663-96.24254 1.02801L70.01491 216l-.25745 63.25L69.5 342.5l-22.75.26877-22.75.26878zm229.5-9.3034c3.3-.95439 9.65433-3.52375 14.12074-5.70969 26.33962-12.89113 36.96782-46.81707 23.37871-74.62642-8.37666-17.14236-23.84893-26.82154-48.49945-30.3404-4.20475-.60022-40.24352-1.00715-90.25-1.01905L69 63V177.07125l89.25-.31032c81.16507-.2822 89.79352-.4675 95.25-2.04556zm112.16667 167.61796c-.36667-.36666-.66667-71.91666-.66667-159V25h43.98451l.25774 60.45578.25775 60.45577 8.5-5.58773c21.42817-14.08646 43.13036-20.98528 73.81124-23.46354 32.44529-2.62079 65.75621 3.79961 87.51648 16.86808 15.53819 9.3317 29.35616 24.72981 35.51875 39.58045 6.56736 15.82609 6.48511 14.6797 6.88568 95.96122l.36355 73.77002-21.29785-.27002L579.5 342.5l-.55028-70c-.59854-76.13938-.49491-74.74876-6.44498-86.49065-16.878-33.30713-78.83708-44.29841-124.14749-22.02324-15.1916 7.46838-24.69233 15.27883-34.4859 28.35048L408 200.17319V343h-20.83333c-11.45834 0-21.13334-.3-21.5-.66667zM1608.3647 73.97024c-13.8541-4.27727-21.4578-19.14178-16.8649-32.9696 7.7113-23.2166 44.0388-23.13012 50.9438.12127 1.9267 6.48818 1.9591 10.2223.1407 16.26425-3.1421 10.44026-11.8844 16.7175-24.0171 17.24487-3.887.16895-8.4781-.1284-10.2025-.66079zm18.7954-7.85682c12.5138-7.93599 11.5601-27.96683-1.6601-34.86994-1.6632-.86847-5.4508-1.56649-8.5-1.56649-8.2059 0-13.5411 3.42551-17.4896 11.22937-2.612 5.16243-1.7401 14.63711 1.8457 20.05557 5.4228 8.19444 17.2748 10.56055 25.804 5.15149zM1606.2218 49.25l.2782-13.75 8.091.03081c5.9493.02265 8.7906.48923 10.7341 1.76265 4.9988 3.27533 4.8048 11.06808-.32 12.8546l-2.9244 1.01947 2.302 3.66624c5.0858 8.09965 5.0956 8.16623 1.197 8.16623-3.1879 0-3.7783-.4922-6.8059-5.67356-4.5819-7.84146-5.7738-7.92604-5.7738-.40977V63h-7.0564zM1621.5 43.5c0-2.81451-.2628-3.01901-4.25-3.3075l-4.25-.3075v7.23l4.25-.3075c3.9872-.28849 4.25-.49299 4.25-3.3075z"/><path fill="#000" d="M739.25 587.2766l-3.25-.40332v-6.05327c0-5.79257.0969-6.02685 2.25-5.4398 4.60253 1.2549 12.69039 1.85355 16.18489 1.19798 4.25425-.7981 9.82561-5.37866 11.52127-9.47234 1.13606-2.7427.2406-4.8179-16.18349-37.5046L732.38657 495h14.71723l13.4234 27.57428c7.38288 15.16585 13.77202 27.35243 14.1981 27.08128.42609-.27115 6.84304-12.67958 14.25989-27.57428L802.47038 495h7.34814c4.04148 0 7.19815.38859 7.01481.86353-.18333.47494-9.55833 18.79306-20.83333 40.70694-22.19958 43.14667-25.52518 48.14243-33.5 50.3241-3.80775 1.04168-16.28272 1.24667-23.25.38203zm-67.75-22.3157c-5.90141-1.20975-12.25178-3.64796-15.47044-5.93985C652.25086 556.33038 652 556.42245 652 560.5v3.5h-13V464h13v38.85409l5.62354-3.38632c15.03731-9.05499 38.46686-8.2786 53.17668 1.76214 12.09753 8.25762 17.01851 24.43342 12.18946 40.06808-3.57667 11.57992-13.32634 19.91966-27.07631 23.16073-6.85441 1.61568-17.87555 1.84238-24.41337.50218zm22.11218-11.43837c10.87172-3.22856 17.39443-12.26968 17.37844-24.08825-.008-5.8443-.47453-7.74529-2.96855-12.09379-5.08297-8.86252-14.09451-13.62103-26.02207-13.74086-10.13656-.10184-16.90342 2.32901-23.03454 8.27467C654.13653 516.55715 651 523.69446 651 530c0 8.14072 5.61675 17.23828 13 21.05635 7.79998 4.03357 20.71287 5.10899 29.61218 2.46618zM889 488.5V412l20.75.003 20.75.003 26.5 46.11871c14.575 25.36528 27.04819 46.85153 27.7182 47.74721.96347 1.28799 1.22484-8.35613 1.25-46.12148L986 412h38v153.03978l-21.1113-.26989-21.11124-.26989-26.44563-46.5c-14.54509-25.575-26.87002-46.9275-27.38873-47.45-.5909-.59522-.9431 16.86354-.9431 46.75V565h-38zm199.1344 73.2679c-1.5803-5.00144-47.1693-147.09057-47.658-148.53772-.3395-1.00541 3.966-1.21363 20.6778-1l21.1066.26982 14.8856 55.5c16.9695 63.26988 15.7218 59.0242 16.75 57 .4191-.825 7.4763-26.58603 15.6828-57.24673l14.9208-55.74673 20.75-.003c11.7069-.002 20.75.39088 20.75.90114 0 .49742-11.1893 34.80992-24.8651 76.25l-24.8651 75.34559-23.5515.2679-23.5514.2679zM1203 488.5V412h40v153h-40zm74-.10228v-76.60228l40.25.48434c43.9911.52935 48.353 1.0069 62.25 6.81539 8.8849 3.7136 19.1655 11.28352 24.584 18.10196 6.3 7.92772 11.6979 19.97584 14.0636 31.3901 1.7129 8.26448 1.9675 12.24068 1.5312 23.91277-.3016 8.06725-1.2313 16.75449-2.1938 20.5-2.398 9.33146-9.6077 23.654-14.9452 29.68968-5.6444 6.38269-16.1903 13.5156-24.7413 16.73418C1364.2116 564.53797 1359.136 565 1316.5422 565H1277zm75.9865 41.04394c17.0246-4.01247 25.0293-14.78879 26.6503-35.87798.7079-9.20914-.7484-19.73904-3.6347-26.28091-2.8142-6.37859-10.1622-13.63271-16.8485-16.63334-7.2147-3.23778-16.3343-4.60397-30.9036-4.62962L1317 446v85l14.75-.0148c9.6904-.01 16.975-.53919 21.2365-1.54356zM1447 488.5V412h41v153h-41zm59.3054 73.25c.7327-1.7875 13.9002-36.2125 29.2611-76.5l27.9289-73.25h41.0158l2.6453 7.25c1.4548 3.9875 14.5573 38.42128 29.1165 76.51952l26.4714 69.26951-21.1203-.26951-21.1203-.26952-4.5415-13-4.5416-13-27.6101-.26564-27.6101-.26565-2.9806 8.26565c-1.6393 4.5461-3.815 10.62814-4.835 13.51564l-1.8543 5.25h-41.5574zM1601 507.82024c0-2.2103-16.4969-52.80028-17.221-52.81028-.6316-.009-17.779 51.35626-17.779 53.25697 0 .40319 7.875.73307 17.5.73307 12.7776 0 17.5-.31836 17.5-1.17976zm-932.5-90.36415c-6.05-.72985-14.7125-1.87851-19.25-2.55256l-8.25-1.22556v-37.89479l2.25.55785c17.70424 4.38945 44.79259 6.7295 55.21302 4.76964 9.63598-1.81233 18.00697-6.3222 24.91052-13.42053C728.90324 362.00442 739 346.81031 739 344.17467c0-.57974-24.94575-50.4687-55.435-110.86437L628.13 123.5l23.61647-.26853c12.98906-.14769 23.95267.0773 24.36356.5.4109.42269 19.71619 39.91853 42.90064 87.76853 23.18446 47.85 42.45411 87.30128 42.82144 87.66952.36734.36824 20.68496-39.11926 45.15026-87.75L851.46475 123h23.37461c21.61989 0 23.32548.12805 22.72005 1.70579C896.68862 126.97503 773.63774 365.94235 769.70586 373c-18.85262 33.84005-40.25393 46.26775-79.02822 45.89155-6.1477-.0596-16.12764-.7056-22.17764-1.43546zm340.1427-67.46123c-46.92507-3.04976-85.98679-14.5577-114.1427-33.62749-8.62516-5.84175-15.14107-11.11198-14.4374-11.67732.24057-.19327 8.42153-5.58589 18.17991-11.98359l17.74251-11.63219 9.75749 6.63142C952.59578 305.95582 985.69689 315 1025.6379 315c45.6196 0 73.4197-9.98531 78.8667-28.32755 2.0629-6.94655 1.869-10.32817-.9383-16.35752-3.059-6.57007-9.4004-11.32627-19.5663-14.67507-8.8925-2.92932-15.3062-3.72234-62-7.66589-56.35128-4.75918-68.29144-6.58169-84.7074-12.92952-21.73362-8.40411-33.71753-22.74699-36.3827-43.54445-.95138-7.42398-.88798-10.51195.36201-17.63416 5.3638-30.56181 30.87156-48.79581 78.88216-56.38823 14.03547-2.21957 52.93043-3.09872 68.43073-1.54674 39.1451 3.91944 74.5852 16.86946 96.7283 35.34513l4.8132 4.01596-18.6426 10.23013-18.6427 10.23013-7.4259-4.46335c-20.4159-12.27096-47.8953-19.52387-79.1164-20.88198-41.38449-1.80021-69.99557 6.70619-77.40138 23.01229-6.18141 13.61025 4.12017 25.48495 26.10268 30.08872 10.72536 2.2462 35.7096 5.02415 72 8.00554 17.325 1.42331 37.0465 3.46899 43.8256 4.54595 33.9537 5.39408 53.2059 20.88584 58.5933 47.14845 6.2229 30.33612-7.5208 56.8296-37.1964 71.70253-23.8027 11.92952-63.3986 17.69595-103.5798 15.08449zM24 183.44833V24.89665l111.75.40119c120.27081.43178 117.656.32318 138.68153 5.75932C303.91766 38.68076 326.79661 57.75278 337.94221 84c10.6209 25.01158 10.09966 54.72551-1.39647 79.60738-12.12938 26.25244-34.02349 42.10342-67.04574 48.54002-15.5841 3.0376-39.94483 3.79346-123.25 3.82414L69 216v126H24zm214.18551-6.4633c25.93553-2.45946 42.86722-12.13881 52.1565-29.81634 5.22447-9.94217 6.98632-18.46124 6.34269-30.66869-1.13396-21.50717-10.90839-36.77933-29.09408-45.45832-17.39313-8.30076-26.46363-8.96041-123.84062-9.00639L69 62v116l79.25-.00084c45.82287-.00048 83.75708-.42824 89.93551-1.01413zM366 183.5V25h42v61c0 33.55.22374 61 .49719 61 .27346 0 3.17468-1.97106 6.44717-4.38012 13.46463-9.9121 34.56183-18.82761 53.75585-22.7168 15.13296-3.06631 48.09026-3.82432 64.11294-1.47458 47.1851 6.91973 77.63648 31.70584 86.77059 70.62753 1.55665 6.63311 1.79042 15.36851 2.14603 80.19397l.39908 72.75H580v-60.39405c0-35.40547-.43901-64.67891-1.06104-70.75-1.20648-11.77548-4.65532-23.12989-8.89912-29.29805-23.65568-34.38235-92.22024-39.74837-134.49235-10.52568-8.25045 5.70353-19.24756 16.74216-24.29749 24.38922l-3.25 4.92145V342h-42zM1607.1826 73.0982c-10.4852-3.62136-16.5441-12.24032-16.5888-23.5982C1590.5329 34.02036 1600.9094 24 1617 24c15.5713 0 26.2682 9.8923 26.4243 24.43672.087 8.1227-2.4743 14.43283-7.8819 19.41744-7.396 6.81743-18.0827 8.79351-28.3598 5.24405zm21.187-7.43093c5.0184-3.8277 7.6304-9.32615 7.6304-16.06233 0-9.22307-3.5757-15.04023-11.5-18.70908-7.6515-3.54254-16.1601-1.46388-22.2093 5.42578-5.6086 6.38785-5.9439 18.8324-.6826 25.33293 4.6525 5.74828 8.7558 7.52113 16.5023 7.12978 5.3823-.27191 7.2881-.85095 10.2592-3.11708zM1607 49.5V36h8.5455c7.7396 0 8.7769.23146 11 2.45454 1.35 1.35 2.4545 3.62046 2.4545 5.04546 0 2.60671-3.9382 7.5-6.0361 7.5-1.0093 0 .18 2.3957 4.8403 9.75 1.3805 2.17844 1.313 2.25-2.1215 2.25-3.3024 0-3.775-.41419-6.8458-6-2.1053-3.82944-3.9386-6-5.0677-6-1.4957 0-1.7692.9276-1.7692 6 0 5.73333-.1111 6-2.5 6h-2.5zm15.0696-4.08382c2.2011-2.65226-.1043-4.87223-5.422-5.22097L1612 39.8904v3.5548c0 3.53169.028 3.55479 4.3776 3.55479 2.7741 0 4.859-.58011 5.692-1.58382z"/></g></svg>