<svg xmlns="http://www.w3.org/2000/svg" role="img" viewBox="-4.40 -4.40 228.54 89.04"><title>PhysLight logo</title><path d="M151.40085 16.24498c-.4339-3.16545-3.32248-8.29795-17.96786-8.59961-10.827-.22316-17.17857 2.05382-20.05475 5.62012V7.6123h-4.94653V.10365H95.274V7.6123h-4.10765v7.39708c-2.69435-3.91343-7.91363-7.38055-18.02159-7.46733-5.96311-.04959-10.30218.87195-13.45523 2.35963l.91327-2.32243H47.56495l-4.79777 14.38503-6.20693-14.38503h-12.5585L17.84443 21.9932 13.03839 7.57925H.00053l11.96755 30.4313h11.57085l6.76067-17.81082 6.76481 17.81083h11.57084l3.47952-8.84756c2.0497 4.79776 8.1781 9.87654 20.61676 9.72777 13.49656-.16117 20.10847-5.97138 21.31514-11.4758H80.6493c-1.35957 2.7646-4.4837 4.3556-7.6037 4.36386-4.14484.01239-7.35161-1.97117-8.04586-6.25652h29.04281v-.28514h-.00413c-.00414-1.42982-.09092-4.45064-1.4381-7.59956h2.66543s-.03306 13.042-.03306 13.12877c-.23141 7.04995 3.84318 7.13673 5.78542 7.12434.23142-.00414 14.85614 0 14.85614 0v-1.6034c2.87618 1.40917 6.46727 2.0621 9.579 2.0373 6.63257-.05372 9.07485-1.66537 13.03372-3.8473.00414 1.22733.00414 2.01663.00414 2.52079v.91327h13.06265v-.04133h.01653c.01238-11.04188.1033-19.63737-.16943-21.62507zm-86.3846 3.2853c1.29346-3.5911 4.62421-4.85976 8.04174-4.86803 3.1448-.00413 6.3929 1.60752 7.36815 4.86802zm45.59739 9.55833v.14877c-1.5662-.42977-2.14887-1.22734-2.14474-3.48778l-.03306-8.12025h4.94654v-.01653c6.40528.00827 11.22785.04546 11.22785.04546s.60333-2.59104 6.9673-2.56212c6.97143.0372 6.78547 2.78114 6.8268 3.7068-7.2855-.04545-12.34775.09092-17.9596 1.05791-5.61187.97526-9.76497 3.18611-9.83109 9.22774zm18.83567 1.4505c-6.83092.219-6.92597-4.6986-1.58272-5.69038 2.21085-.41325 5.38457-.74797 10.546-.61987 0 .9298-1.99184 6.09122-8.96328 6.31024zm31.9314-19.09603v9.68645h21.81516v3.55803H161.3807v13.2858h-4.24402V7.71563h26.9146v3.72746H161.3807zm52.58534 26.53028l-12.4304-13.24448-12.3436 13.24448h-5.8722l15.47187-16.02974-13.58748-14.228h5.91352l10.45921 11.44273 10.58732-11.44273h5.8722l-13.84368 14.18667 15.81487 16.07107h-6.04163z"/><path d="M88.08356 3.60374H57.35472V.00034h30.766zm58.50304 0h-30.72885V.00034h30.766z"/><path d="M35.54921 50.67366c.74602.60417 1.11377 1.61286 1.11377 3.03133 0 1.41322-.36775 2.44818-1.11377 3.10488-.746.65144-1.79147.97717-3.13114.97717h-5.30088v-8.017h5.30088c1.33967 0 2.38513.30471 3.13114.90362zm4.31321 9.80847c1.62336-1.32916 2.43767-3.59871 2.43767-6.81392 0-2.94201-.8143-5.117-2.43767-6.51971-1.62862-1.40271-3.80886-2.1067-6.54073-2.1067H21.4643v27.22416h5.65288V62.4785h5.77896c3.01556 0 5.33765-.6672 6.96627-1.99637zM60.6299 52.2655c-1.01394-.4308-2.14347-.64619-3.38857-.64619-1.10851 0-2.16448.23116-3.16792.69348-1.00344.45706-1.88604 1.27662-2.65307 2.44292v-9.61934h-5.2431v27.12959h5.2431V61.36999c0-1.72318.3625-3.05234 1.08224-3.98223.71974-.92988 1.77572-1.3922 3.16792-1.3922 1.33967 0 2.2538.46757 2.73187 1.40271.37301.6672.55689 1.5393.55689 2.62155v12.24614h5.37443v-11.8206c0-1.79673-.06304-3.09437-.18388-3.88767-.12608-.79329-.46231-1.56557-1.0192-2.31683-.65144-.88786-1.48676-1.54456-2.5007-1.97536zm9.43021 23.86185v4.20814c.56214.04203.98768.06304 1.27137.0683.2837.00525.66196.0105 1.12953.0105 2.32734 0 3.87715-.46231 4.65469-1.37644.77228-.91938 1.82825-3.28875 3.15741-7.10287l6.90849-19.80082h-5.60034l-4.1556 14.85193-4.39201-14.85193h-5.85776l7.38656 21.01966c.05253.1471-.0578.55162-.32047 1.21883-.26268.66196-.55163 1.10326-.8616 1.3134-.3152.22065-.70923.3625-1.18205.42029-.46757.06304-.95616.08406-1.47626.05779zm7.12914-24.52905zm17.19503 14.2425h-5.33766c0 2.06467.75127 3.76684 2.25905 5.1065 1.50778 1.33442 3.84564 2.00163 7.01356 2.00163 3.09962 0 5.39544-.63044 6.87696-1.8913 1.48677-1.26086 2.22753-2.88948 2.22753-4.88585 0-1.51303-.52011-2.77915-1.55507-3.78784-1.04547-.99819-2.6163-1.73894-4.70723-2.23278-3.14165-.68822-4.9699-1.17681-5.48475-1.4605-.52011-.26794-.77754-.70924-.77754-1.30815 0-.48333.24167-.90362.73025-1.26086.48859-.352 1.3029-.53062 2.44818-.53062 1.3922 0 2.37463.352 2.95252 1.06648.30997.39402.4991.92989.57265 1.6076h5.2641c-.23115-2.45868-1.14003-4.19237-2.72136-5.1958-1.58133-1.00344-3.63024-1.50779-6.14146-1.50779-2.64781 0-4.70197.6672-6.16247 2.00688-1.45525 1.33441-2.1855 2.9315-2.1855 4.79128 0 1.57608.46757 2.7844 1.40271 3.61973.93514.85108 2.54274 1.55507 4.8228 2.12245 3.16267.75127 4.99093 1.28188 5.48477 1.59184.48858.30471.7355.75652.7355 1.34493 0 .61467-.30471 1.07698-.91413 1.38695-.60941.3047-1.42898.46231-2.46394.46231-1.75995 0-2.96828-.35199-3.61973-1.05597-.36775-.39402-.60941-1.05597-.71974-1.99111zm4.02426-14.2425zm13.33364-6.5565v27.22416h19.17564v-4.8911h-13.486V45.0418zm28.09625 4.69147v-4.85958h-5.33766v4.85958zm-5.33766 2.4009v20.13179h5.33766v-20.1318zm22.19646 14.41587c-.84583.92989-1.88604 1.3922-3.12064 1.3922-1.84401 0-3.12589-.84582-3.84038-2.54799-.39402-.90887-.5884-1.94909-.5884-3.12064 0-1.35543.18387-2.4902.55163-3.41484.70398-1.73894 1.97535-2.60578 3.82462-2.60578 1.35542 0 2.43241.49909 3.24147 1.49727.8038.99819 1.20833 2.44818 1.20833 4.36049 0 2.02789-.42555 3.5094-1.27663 4.4393zm-1.79148-14.43164c-.75126-.30996-1.62861-.46231-2.6373-.46231-2.73713 0-4.84908 1.0192-6.33585 3.0576-1.49202 2.03313-2.23803 4.5496-2.23803 7.54416 0 3.09962.77753 5.5583 2.3221 7.37605 1.54455 1.81775 3.60921 2.72662 6.19399 2.72662 1.6759 0 3.03658-.39927 4.08204-1.20307.5779-.4308 1.11902-1.07699 1.62337-1.93858v1.29239c0 1.92281-.2049 3.28875-.62518 4.10306-.64094 1.26612-1.90706 1.9018-3.8036 1.9018-1.34493 0-2.29583-.24166-2.86322-.71974-.33098-.27319-.57264-.7145-.71974-1.32916h-5.72643c.17337 2.00687 1.07174 3.51466 2.6951 4.52335 1.62861 1.00869 3.7248 1.51303 6.29906 1.51303 4.26067 0 7.13965-1.13477 8.64218-3.39908.87735-1.31865 1.3134-3.27299 1.3134-5.87352V52.13416h-5.11701v2.89999c-.78804-1.41322-1.823-2.39039-3.10488-2.91575zm-.95615-.5201zm28.57958.6672c-1.01394-.4308-2.14347-.64619-3.38857-.64619-1.10851 0-2.16448.23116-3.16792.69348-1.00344.45706-1.88604 1.27662-2.64782 2.44292v-9.61934h-5.24834v27.12959h5.24834V61.36999c0-1.72318.35725-3.05234 1.077-3.98223.71974-.92988 1.7757-1.3922 3.16791-1.3922 1.34492 0 2.2538.46757 2.73188 1.40271.373.6672.55688 1.5393.55688 2.62155v12.24614h5.37443v-11.8206c0-1.79673-.06304-3.09437-.18388-3.88767-.12608-.79329-.46231-1.56557-1.0192-2.31683-.65144-.88786-1.48676-1.54456-2.5007-1.97536zm6.54599 3.80361h2.81067v12.39324c0 1.25561.2942 2.1855.8826 2.78966.91413.94565 2.61105 1.37645 5.10125 1.29239l2.49021-.09457V68.5149c-.16812.01576-.34674.02627-.52536.03152-.17862.00525-.34674.0105-.50435.0105-1.07173 0-1.71267-.10507-1.92281-.30996-.21015-.19963-.31522-.71449-.31522-1.5393V56.06911h3.26774v-3.75107h-3.26774v-5.61085h-5.20632v5.61085h-2.81067z"/></svg>