<svg xmlns="http://www.w3.org/2000/svg" role="img" viewBox="4.31 0.01 54.68 56.58"><title>pimath logo</title><path stroke="#000" d="M55.5 3l.5 5.5-5.5 6.5-3.5 2.5-2 8 1 1v14l2 5.5 4 2.5-1.5 2.5H43V36.5L40 21l-7.5-2-7.5 3.5-1 2v19l1 1V51q-2.1 1.6-7.5 1L15 51l2.5-4 3.5-2.5q1.9-14.4-3.5-21.5L12 27.5 10.5 30Q5.9 31.4 8 25.5L9.5 23l.5 2 3-1.5q.8-2.2-1.5-1.5l1-2 7-3h12l10-2q8.9-2.1 13.5-8.5l.5-3.5z" opacity=".984"/><path stroke="#000" d="M30 24h5v2.5q-1.8 4.2-3.5 1.5H30v-4zm1.5 8q3.3-1.1 2.5 1.5l2 9v8Q34.8 53 31 52l-1-3.5v-15l1.5-1.5z" opacity=".984"/><path stroke="#000" d="M23.5 16l5.5.5-5.5.5v-1zm-12 4l-2 3 2-3zm23 7l-1 2 1-2zm-27 2l1 2-1-2zm34 0l.5 2.5h-1l.5-2.5zm-12 5l.5 6.5h-1l.5-6.5zm-9 2l.5 7.5h-1l.5-7.5zm4 0l.5 4.5h-1l.5-4.5zm22 0l.5 2.5h-1l.5-2.5zm-4 4l.5 7.5h-1l.5-7.5zm-6 7l.5 2.5h-1l.5-2.5zm6 3l2.5 1.5-1.5.5-1-2zm5 1l2.5.5-2.5.5v-1z" opacity=".576"/><path stroke="#000" d="M29.5 16l2.5.5-2.5.5v-1zm3 3l3.5.5-3.5.5v-1zm-6 2l-1 2 1-2zm-6 10l.5 4.5h-1l.5-4.5zm22 5l.5 3.5h-1l.5-3.5zm-7 2l.5 3.5h-1l.5-3.5zm-11 3l.5 2.5h-1l.5-2.5zm26 5l1 2-1-2zm-34 1l-1 2 1-2z" opacity=".824"/><path stroke="#000" d="M55.5 2l1 2-1.5-.5-.5 1.5-.5-1.5L55.5 2zm-2 5l-1 2 1-2zm1 4l-4 5 4-5zm-34 5l2.5.5-2.5.5v-1zm18 5l1 2-1-2zm-27 1l-1 2 1-2zm19 1l-1 2 1-2zm-15 1l-1 2 1-2zm4 3l.5 2.5h-1l.5-2.5zm5 0l.5 8.5h-1l.5-8.5zm5 0l1 2-1-2zm17 3l.5 5.5h-1l.5-5.5zm-13 1l1 2-1-2zm8 1l.5 2.5h-1l.5-2.5zm-12 9l.5 5.5h-1l.5-5.5zm7 2l.5 3.5h-1l.5-3.5zm12 1l1 2-1-2zm-23 2l.5 4.5h-1l.5-4.5zm-8 6l5.5.5-5.5.5v-1zm15 0l2.5.5-2.5.5v-1z" opacity=".259"/><path stroke="#000" d="M52.5 3l.5 3.5-2 1L52.5 3zm-3 5l1 2h-2L47 9.5 49.5 8zm7 0l1 2-1-2zm-14 3l2.5 1.5-1.5-.5-1-1zm-3 1l2.5 1.5-1.5-.5-1-1zm-6 1l2.5.5-2.5.5v-1zm21 0l-5 6q-3-1.5 0-3l1 1 4-4zm-33 1l6.5.5-6.5.5v-1zm-7 2l1 2-1-2zm-2 1l1 2-1-1-2.5 1.5 2.5-2.5zm20 3l3.5.5-3.5.5v-1zm-24 1l-1 4q-3.5-2 1-4zm20 0l1 2-1-2zm-2 1l1 2-1-2zm20 1l.5 6.5h-1l.5-6.5zm-30 2l1.5.5-2.5 1.5 1-2zm11 0l-.5 1.5-.5 7.5-.5-7.5 1.5-1.5zm4 4l-1 2 1-2zm-12 1l.5 2.5h-1l.5-2.5zm20 0l.5 3.5h-1l.5-3.5zm-3 2l-1 2 1-2zm12 0l.5 6.5h-1l.5-6.5zm-11 2l.5 4.5h-1l.5-4.5zm-19 1l.5 8.5 1 1q-1.5 3-3 0l1-1 .5-8.5zm7.5 0l2 .5v14h-1v-9L26 35zm10.5 5l.5 2.5h-1l.5-2.5zm-11 3l.5 2.5h-1l.5-2.5zm15 0l.5 2.5h-1l.5-2.5zm-2 1l.5 6.5h-1l.5-6.5zm-9 3l.5 2.5h-1l.5-2.5zm23 3l-1 2 1-2zm-29 2l1 2-1-2zm20 1l7.5.5-7.5.5v-1zm-25 1l3.5.5-3.5.5v-1zm14 0l2.5.5-2.5.5v-1z" opacity=".027"/><path stroke="#000" d="M56.5 10l.5 1.5-2 1 1.5-2.5zm-19 2l1.5.5-2.5 1.5 1-2zm-18 2l1.5.5-2.5 1.5 1-2zm9 0l2.5 1.5-1.5-.5-1-1zm5 7l3.5 1 .5 2 1.5-.5-1 2 .5 1.5q-2.2-.7-1.5 1.5l-2-1 2-.5q.8-3.8-2.5-5l-1-1zm-5 1l.5 1.5q-3.5 1.5-1 3l2 3-3-2-1-3.5q2.8 1 2.5-2zm20 0l.5 2.5h-1l.5-2.5zM14 27l2 .5-5 4 3-4.5zm34.5 1l.5 3.5h-1l.5-3.5zm-15 1l2 3-2-3zm-3 2l-1 2-3 2 2-3 2-1zm9 3l.5 2.5h-1l.5-2.5zm2 3l-.5 1.5-.5 2.5-.5-2.5 1.5-1.5zm-3 4l.5 2.5h-1l.5-2.5zm11 0l-1 2 1-2zm-33 3L14 47.5l-.5 1.5-.5-1.5 3.5-3.5zM50 44l4 2.5 1 2-1.5-.5q-2.6.8-1.5-2.5h-2V44zm-37.5 6l2 3-2-3zm15 0l2.5.5-3.5 1.5 1-2zM53 50l2 .5-4 3 2-3.5zm-17.5 2l1 2q-2.8.7-1-2zm-19 1l1 2-1-2zm14 0l1 2-1-2z" opacity=".004"/></svg>