<svg xmlns="http://www.w3.org/2000/svg" role="img" viewBox="1.05 -2.95 313.89 413.14"><title>pimath logo</title><path d="M299.874 5.129c16.2 28.752 2.81 48.358-12.454 59.529-68.929 50.447-39.411 118.596-35.965 182.108.431 7.956 6.126 14.722 13.47 18.997 10.182 5.928 20.29 14.519 13.9 26.112-8.725 15.828-26.528 10.373-40.901 10.095-14.226-.275-17.613-10.451-16.972-23.078 2.04-40.167-1.18-80.046-7.127-119.753-6.814-45.51-27.355-57.489-71.156-43.839-22.696 7.073-29.295 23.671-29.052 43.618.463 38.008 3.214 75.984 4.43 113.992.33 10.317 5.583 24.398-8.052 28.994-15.052 5.074-32.627 7.234-46.575-1.827-13.07-8.49-7.347-21.202 4.034-25.772 23.105-9.279 23.512-27.52 22.52-46.986-1.225-23.992-2.483-48.02-5.101-71.882-.904-8.24-2.193-19.047-13.935-20.52-9.245-1.16-14.28 5.867-19.214 12.262-1.834 2.376-3.306 5.04-5.22 7.344-7.78 9.367-13.89 27.196-28.907 17.832-15.389-9.596-6.14-25.794.915-37.483 16.924-28.04 44.042-39.723 75.509-42.289 48.875-3.984 98.19-5.355 144.468-24.328 27.711-11.362 55.65-22.873 61.385-63.126z"/><path d="M145.865 243.362c-.9-15.851-3.626-31.662.205-47.557 2.168-8.994 7.527-14.414 16.493-14.227 7.65.159 12.735 5.483 14.543 12.94 7.557 31.17 7.57 63.12 8.911 94.869.46 10.86-7.344 15.06-17.901 15.31-11.883.28-19.316-4.208-20.11-16.602-.956-14.896-1.442-29.821-2.14-44.733zm32.809-97.809c-1.373 10.508-5.74 19.355-17.627 19.44-10.225.074-16.14-7.822-17.039-17.026-1.023-10.478 6.589-16.07 16.245-17.023 10.008-.987 16.776 3.862 18.42 14.609zM83.243 379.207q-4.484 3.742-12.808 3.741H59.801v18.365H49.198v-51.074h21.93q7.583 0 12.092 3.95 4.508 3.95 4.509 12.232 0 9.044-4.486 12.786zm-8.145-18.4a8.598 8.598 0 0 0-5.68-1.697h-9.617v15.038h9.617a8.154 8.154 0 0 0 5.68-1.837q2.027-1.836 2.028-5.82 0-3.985-2.028-5.684zm30.544-1.767H95.63v-9.112h10.013zm-10.013 4.505h10.013v37.768H95.63zm54.254-13.305h15.356v51.073h-9.944v-34.546q0-1.49.034-4.175.035-2.685.035-4.14l-9.679 42.86h-10.372l-9.61-42.86q0 1.455.036 4.14.034 2.686.034 4.175v34.546h-9.944v-51.074h15.53l9.296 40.16zm39.393 28.1a15.61 15.61 0 0 0 3.944-.866 2.97 2.97 0 0 0 2.13-2.807 3.318 3.318 0 0 0-1.634-3.205 10.32 10.32 0 0 0-4.794-.883q-3.547 0-5.022 1.732a7.142 7.142 0 0 0-1.406 3.465h-9.528a14.45 14.45 0 0 1 2.784-8.142q3.932-4.99 13.503-4.99a24.08 24.08 0 0 1 11.065 2.46q4.837 2.46 4.837 9.287v17.324q0 1.803.07 4.366a5.488 5.488 0 0 0 .588 2.633 3.535 3.535 0 0 0 1.456 1.143v1.456h-10.741a10.989 10.989 0 0 1-.624-2.148q-.174-1.005-.277-2.287a20.395 20.395 0 0 1-4.74 3.776 14.324 14.324 0 0 1-7.25 1.837 12.51 12.51 0 0 1-8.52-2.928q-3.365-2.928-3.363-8.298 0-6.965 5.41-10.084a24.178 24.178 0 0 1 8.726-2.425zm6.038 4.608a10.894 10.894 0 0 1-1.914.953 16.173 16.173 0 0 1-2.652.676l-2.248.416a14.771 14.771 0 0 0-4.539 1.351 4.51 4.51 0 0 0-2.333 4.193 4.38 4.38 0 0 0 1.425 3.655 5.415 5.415 0 0 0 3.466 1.126 10.322 10.322 0 0 0 5.963-1.87q2.727-1.872 2.832-6.826zm14.589-12.022v-7.035h5.267v-10.533h9.77v10.533h6.134v7.034h-6.134v19.959q0 2.321.59 2.893.589.571 3.603.572.45 0 .953-.018.501-.017.988-.052v7.38l-4.678.174q-7 .241-9.563-2.426-1.663-1.698-1.663-5.232v-23.25zm54.654-7.172a11.09 11.09 0 0 1 4.675 3.71 9.9 9.9 0 0 1 1.897 4.354 53.82 53.82 0 0 1 .345 7.3v22.195h-10.082v-22.999a10.188 10.188 0 0 0-1.033-4.925q-1.341-2.636-5.09-2.637a6.984 6.984 0 0 0-5.899 2.62q-2.012 2.618-2.012 7.474v20.467h-9.875v-50.9h9.875v18.018a12.072 12.072 0 0 1 4.951-4.591 13.932 13.932 0 0 1 5.917-1.3 15.999 15.999 0 0 1 6.331 1.214z"/></svg>