<svg xmlns="http://www.w3.org/2000/svg" role="img" viewBox="7.35 3.10 137.67 44.05"><title>Pixie logo</title><path fill="#090909" stroke="#090909" d="M60 17l5 .5-4.5 1.5-.5-2zm51.5 0l4.5.5-4.5.5v-1zm-95 2l1 2-1-2zm26 0l-1 2-1.5-.5 2.5-1.5zm28 5l4.5.5-4.5.5v-1zm10 0l2.5.5-2.5.5v-1zm7 0l4.5.5-4.5.5v-1zm8 0l4.5.5-4.5.5v-1zm10 0l2.5.5-2.5.5v-1zm31 0l3.5.5-3.5.5v-1zm-25 2l5.5.5-5.5.5v-1zm-95 1l1 2-1-2zm24 1l2.5 1.5-1.5-.5-1-1z"/><path fill="#9C9C9C" stroke="#9C9C9C" d="M20.5 10l1 2-1-2zm-7 6l1 2-1-2zm35 0l-1 2 1-2zm62 1l.5 15.5h-1l.5-15.5zm-49 1l3.5.5-3.5.5v-1zm51 0l3.5.5-3.5.5v-1zm5 0l.5 8.5q-.7 2.3-4.5 1.5v-1h3.5l.5-9zm-98 2l-1 2 1-2zm28 3l1 2-1-2zm77 0l-1 2 1-2zm-47 1l.5 9.5h-1l.5-9.5zm-2 1l.5 2.5h-1l.5-2.5zm19 0l.5 7.5h-1l.5-7.5zm31 0l-1 2 1-2zm-21 1l.5 6.5h-1l.5-6.5zm32 3l.5 2.5h-1l.5-2.5zm-113 1l-1 2 1-2zm51 0l1.5 2.5h-1l-.5-2.5zm-8 2l-1 2 1-2zm57 0l1 2-1-2zm-105 3l-1 2 1-2z" opacity=".992"/><path fill="#626262" stroke="#626262" d="M34.5 8l-1 2 1-2zm-12 1l1 2-1-2zm-9 5l1 2-1-2zm31 1l2.5.5-3 2 .5-2.5zm-34 1l1 2-1-2zm32 2l1.5 1.5-.5 2.5-1.5-1.5.5-2.5zm24 0l.5 6.5-2-1Q64 19 66.5 18zm66 1l-1 2 1-2zm-121 4l-1 2 1-2zm59 0l4.5.5-5 1 1 2.5 3 .5-2.5.5-2.5-3.5 1.5-1.5zm12 0l1.5 1.5v8l-2 1v-8l1-1-.5-1.5zm14 0q3.8-.7 4.5 1.5l-.5 3.5-.5-4q-4.4 1-3.5-1zm32 0l.5 2-2-.5 1.5-1.5zm3 0l1.5 1.5v8l-2 1 1-1v-8l-.5-1.5zm5 0l3.5.5-4.5 1.5 1-2zm-110 1l-1 2 1-2zm19 0l1 2-2.5-.5 1.5-1.5zm41 0l1.5 1.5V32l3 1.5-3.5.5q-2.8-1.2-.5-2.5.5-6-.5-7.5zm22 1l-1 2 1-2zm-92 1l-1 2 1-2zm80 1l2.5.5-2.5.5v-1zm41 0l3.5 1.5-1.5-.5q-3 .5-2-1zm-95 1l-1 2 1-2zm-28 1l1 2-1-2zm56 0l.5 3 4 1.5-1.5-.5-3.5-1.5.5-2.5zm54 1l2.5.5-2.5.5v-1zm-91 1l1 2-1-2zm63 1l2.5.5-3.5 1.5 1-2zm31 0q2.3-.7 1.5 1.5l-1.5-1.5zm10 0l2.5.5-2.5.5v-1zm-94 1l1 2-1-2zm-23 3l-1 2 1-2zm18 0l1 2-1-2zm-13 3l-1 2 1-2zm4 2l1 2-1-2z" opacity=".996"/><path fill="#171717" stroke="#171717" d="M28.5 6l-1 2 1-2zm-3 2l-1 2 1-2zm10 1l1 2-1-2zm-14 1l-1 2 1-2zm-5 3l-1 2-2.5 1.5-.5 1.5-.5-1.5 4.5-3.5zm75 4l.5 6.5h-1l.5-6.5zm20 1l.5 7.5h-1l.5-7.5zm-51 1l.5 13.5h-1l.5-13.5zm-42 1l3.5 2.5-1.5-.5-2-2zm20 1l-1 2-2 1 1-2 2-1zm4 0l2.5 1.5-1.5.5-1-2zm-19 2l3.5 2.5-1.5-.5-2-2zm56 1l-1 2 1-2zm41 0l.5 8.5h-1l.5-8.5zm-29 1l.5 6.5-2 1 1.5-7.5zm49 0l.5 2.5h-1l.5-2.5zm-29 2l.5 5.5h-1l.5-5.5zm-96 2l1.5.5-2.5 1.5 1-2zm7 1l1 2-1-2zm12 1l-1 2 1-2zm-7 2l1 2-1-2zm-10 2l3.5 2.5-1.5-.5-2-2zm20 2l-1 2 1-2zm-15 1l2.5 1.5-1.5.5-1-2zm10 2l-1 2-2 1 1-2 2-1z"/><path fill="#CDCDCD" stroke="#CDCDCD" d="M27.5 8l-1 2 1-2zm12 2l1 2-1-2zm-22 1l-1 2 1-2zm19 0l1 2-1-2zm-21 4v3q-3-1.5 0-3zm29 1l-1 2 1-2zm16 0l5.5.5-6 .5-.5 17-.5-16.5 1.5-1.5zm31 0l1.5 1.5.5 7.5 1-2 .5 1.5-2.5 9.5-1-17-1 6-.5-5.5 1.5-1.5zm20 0q5.3-1.2 6.5 1.5l-1.5-.5q-6 1.2-5-1zm-94 2l1 2-1-2zm103 0l1.5 2.5h-1l-.5-1.5-1 2-.5-1.5 1.5-1.5zm-106 1l1 2-1-2zm30 0v3q-3-1.5 0-3z" opacity=".969"/><path fill="#CDCDCD" stroke="#CDCDCD" d="M61.5 19Q61 26 64 29.5h-2l-.5 4.5V19zm51 0l.5 6q4 1.4 2-5.5h1q1.3 5.3-1.5 6.5l-2.5-1.5.5-5.5zm-99 2l-1 2 1-2zm8 2l1 2-1-2zm11 0l-1 2 1-2zm11 0l1 2-1-2zm32 0l1.5 4.5-2 2 1.5 2.5-2.5-1.5-.5 1.5-.5-2-2-.5 5-2-.5-4.5zm33 0l1.5 3.5h-1l-.5-3.5zm11 0l.5 10.5h-1l-1-9 1.5-1.5zm2 0l1 9 1.5-.5-1 2.5-2-.5.5-10.5zm6 0l-.5 1.5-.5 1.5-1-2 2-1zm2 0l1.5 1.5V34q-2.7 1.1-2-1.5 2.5-1.5 1-7h-2l1.5-2.5zm-116 1l2.5 1.5-1.5-.5-1-1zm89 0l.5 9.5h-1l-1-8 1.5-1.5zm39 0l.5 4.5v2l-.5 2.5-1-3-1 2-.5-2-2-.5 4-.5.5-5zm-73 1l.5 6.5h-1l.5-6.5z" opacity=".969"/><path fill="#CDCDCD" stroke="#CDCDCD" d="M71 25q4.1-1.3 3 2-4.1 1.3-3-2zm13 0l2 .5V32l-2-.5V25zm4.5 0H91v5.5L88.5 32v-1H90v-5l-1.5-1zm7.5 0q4.1-1.3 3 2-4.1 1.3-3-2zm9.5 0q2.3-.7 1.5 1.5l-1.5-1.5zm29 0l.5 6.5h-1l.5-6.5zm2.5 0q4.1-1.3 3 2-4.1 1.3-3-2zm-91.5 1l-1 4q-3.5-2 1-4zm34 0l.5 7.5h-1l.5-7.5zm-65 1l1 2-1-2zm23 1l-1 2 1-2zm75 0l.5 5.5h-1l.5-5.5zM96 29l4 .5-3 .5-.5 2-.5-3zm-69.5 2l1 2-1-2zm17 0q2.3-.7 1.5 1.5L43.5 31zm5 0l.5 1.5-2 1 1.5-2.5zm78 0l1.5 2.5-1.5-.5-1.5-.5 1.5-1.5zm-57 2l4.5 1.5-3.5.5-1-2zm31 0l-1 2-3.5-.5 4.5-1.5zm-69 1l-1 2 1-2zm105 0l3.5.5-3.5.5v-1zm-93 1l-1 2-2 1 1-2 2-1zm-23 3l1 2-1-2zm13 0l-1 2 1-2zm-6 4l2.5 1.5-1.5.5-1-2z" opacity=".969"/><path fill="#2F2F2F" stroke="#2F2F2F" d="M15.5 18l1 2 1.5-.5-2.5 3.5-.5-1.5v-2l.5-1.5zm101 1l.5 5.5h-1l.5-5.5zm-53 5l2.5 1.5-2.5 1.5v-3zm40 0l.5 8.5h-1l.5-8.5zm21 0l1.5 3.5h-1l-.5-3.5zm7 0l.5 8.5h-1l.5-8.5zm-62 1l2 3 3.5.5-3.5.5-1.5-.5q-.7 3.8 1.5 4.5l2.5.5-3.5.5-1.5-1.5.5-7.5zm17 0l.5 6.5h-1l.5-6.5zm49 0l2 3 2.5.5-2.5.5-1.5-.5q-.7 3.8 1.5 4.5l3-1-1 2q-3.7.8-4.5-1.5l.5-7.5zm-57 1l.5 6.5h-1l.5-6.5zm-61 1l-1 2 1-2zm79 1l3.5.5-4 .5-.5 3-.5-2.5 1.5-1.5zm0 5l3.5.5-3.5.5v-1z" opacity=".996"/><path fill="#FBFBFB" stroke="#FBFBFB" d="M27.5 4q5.7-.7 8 2L50 15.5q1.5 4.4-1.5 3.5-3 1.5 0 3H50v5l-3 1.5 3 1.5q1 3.8-1.5 5l-17 10h-4L8 34q-2.1-5.2 2.5-4 3-1.5 0-3L8 25.5q-.5-4 2.5-4.5l1.5-.5-4-3Q6.9 14.2 9.5 15l18-11zM29 5L12 15q-3-1-2 3l5 3-3 2q-3-1-2 2l5 4-3 1-2 3 19 11 19-10 1-3-5-2 4-3 1-3-5-2 5-4Q40 9 29 5z" opacity=".416"/><path fill="#FBFBFB" stroke="#FBFBFB" d="M28.5 8L44 16.5 30.5 25h-2L15 16.5 28.5 8zm.5 2l-12 7 13 7 11-7q-5-5-12-7zm29.5 5h9l1.5 1.5q-.5 4.5.5 4.5h17q3.4.9 1.5-4.5 1-2.5 5.5-1.5 2.8 1.4 1.5 6h13v-4.5l1.5-1.5h9q1.1 2.7 4.5 2v4h6l1.5-4q6.8-2 4.5 4h6.5l2.5 6.5-1 3v2l-1.5 3.5h-23l-1.5-1.5q1.7-5.9-2-4.5 1.3 4.6-1.5 6-4.5 1-5.5-1.5l-.5-5.5q.9 5.4-2 7h-47L57 34.5v-18l1.5-1.5zm2.5 1l-2 2v16h3l1-5 1 4 3 1q1-4-2-6 4-2 2-10-1-3-6-2zm31 0l-2 2v5q-5-2-4 2-3 1-2-2h-6l-1 2h-1v-2h-7l-1 3q-1 7 3 9l4-1q2 1 1-1h1q-1 3 3 1l1-8q3 2 1 8 3 1 2-2 3-1 2 2l3 1 4-1 1-2v2l3 1q3 1 4-1l-1-4 2-3v7h3v-7h5v7h3v-6q4 1 6-2v8l7-1 7 1V24l-1-1h-2l-3 1-4-1 2 6-2 3-1-9-3 1-1-6q-1-3-6-2l-2 2v6q-2-2-6-1l-3 2v-2h-7v2l-1-7-1-2zm29 2l-2 2q-1 3 3 1l-1-3zm10 0q-1 4 2 3 1-4-2-3zm4 5l-1 3q-1 7 3 9 4 1 5-2l-1-3 1-5q-2-3-7-2z" opacity=".416"/><path fill="#FBFBFB" stroke="#FBFBFB" d="M62 19l3 1.5-1.5 3.5H62v-5zm51 0h2v6h-2v-6zm-95.5 3l13 6 10-6 3.5 2.5L28.5 33 15 24.5q-.7-2.2 1.5-1.5l1-1zM40 24l-2 1-1 2 5-2-2-1zm-16 3l2 3h2l-4-3zm11 0l-2 1-1 2 4-2-1-1zm-6 3v1h2l-2-1zm100.5-5l.5 6.5h-1l-1-5 1.5-1.5zM88 26h2v5h-2v-5zm-11.5 2l.5 2.5-2-1 1.5-1.5z" opacity=".416"/><path fill="#FBFBFB" stroke="#FBFBFB" d="M17.5 30l13 6 11-6 2 3-14 8L15 32.5q-.7-2.2 1.5-1.5l1-1zm2.5 3v2h3l-3-2zm18 0l-1 2 2-1-1-1zm-4 2l-1 2 3-1-2-1zm-8 1l3 3 3-1-6-2zm45.5-6q2.3-.7 1.5 1.5L71.5 30zM97 30l2 .5-2 1V30zm40.5 0q2.3-.7 1.5 1.5l-1.5-1.5z" opacity=".416"/></svg>