<svg xmlns="http://www.w3.org/2000/svg" role="img" viewBox="5.31 6.01 49.38 51.48"><title>Ptex logo</title><path d="M18.5 11.8c-7.5 3.9-9.3 5.4-10.9 8.5-1.4 3-1.6 4.3-.8 6 1 2.1 1.1 2.1 1 .2-.3-4.5.3-6.5 2.4-8.5C12.6 15.8 24 9.6 24 10.6c0 .3.7-.2 1.6-1 1.6-1.7 5.6-2 8.9-.7 1.8.7 1.7 1-1.4 2.5-2.4 1.3-3.6 1.5-4.4.7-.6-.6-1.5-1.1-2.1-1.1-.6 0-.5.5.2 1.2 1.8 1.8-4.2 5.2-6.8 3.8-2.8-1.5-2.5-.8 1.2 2.6 1.8 1.6 2.6 2.1 1.9 1.2-1.1-1.5-.9-1.9 2.3-3.4 2-1 3.8-1.6 4-1.3.2.2.1 1.8-.1 3.5-.3 2.2-1 3.1-2.1 2.9-1-.1-1.1 0-.4.2.6.3 1.2.9 1.2 1.4 0 1.6 8.2-1 9.5-3 1.2-2.1 4.4-1.1 6.9 2.1 1.5 2 2.6 2.7 2.6 1.8 0-.8 1-2.1 2.1-2.9 1.8-1.1 2.3-1.1 3.1.1 1.4 2-.1 19.9-1.8 22.6-.8 1.3-5 4.5-9.2 7.2-9.5 6.1-12.2 6.1-22.1.1-9.7-5.9-10.5-7-11.2-15.5l-.6-7.1-.1 6.7C7 43.4 8.6 45.7 19 52c10.1 6.1 12.6 6.1 22.8-.3 4.6-2.9 8.9-6.1 9.6-7.3.8-1.2 1.7-6.3 2.1-12 .5-8.8.4-10.2-1.3-13C49.8 15.7 34.4 7 30.3 7c-1.6.1-6.8 2.2-11.8 4.8z"/><path d="M24.3 25.9c-2.2 1.9-3.3 4.8-1.3 3.6.5-.3 2.3.1 4 1 2.6 1.3 3 2.1 3 5.5 0 2.2-.3 4-.6 4-1.3 0-5.1-2.5-7.8-5.3-3-2.9-6.5-4.8-7.8-4.1-.4.3-.5 2.5-.3 4.9.3 4.3.3 4.5-1.8 3.5s-2.1-1 .1.6c1.2.9 2.3 2.8 2.3 4.3.2 2.2.2 2.3.6.4l.4-2.1 3.4 2.1c2.2 1.5 3.2 2.8 2.9 3.9-.3.9 0 1.9.6 2.3.5.3 1-.3 1-1.4 0-1.9.1-2 3-.3 1.6.9 3 2.5 3 3.4 0 1 .5 1.8 1.1 1.8.6 0 .9-.6.6-1.4-.4-.9.7-2.2 2.9-3.5 4.3-2.6 4.2-2.6 4.7-.1.4 1.7.4 1.6.3-.2-.1-1.6 1.1-3.1 3.8-5 3.5-2.3 4-3.1 4.4-7.4.2-2.9 1-5.3 2-6.1 1.2-.9.5-.9-2.7.2-2.4.8-6.1 3.1-8.2 5-5.2 4.6-7.1 4.6-6.7-.1.2-2.7 1-3.9 3.3-5.2 1.7-.9 3.2-1.8 3.4-2 .3-.1-.3-1-1.3-2-1.5-1.4-1.6-1.5-1.1-.1.4 1.1-.3 2.2-2.1 3.4-2.5 1.6-2.9 1.6-6.2.1-3.3-1.6-3.4-1.7-1.7-3.6 2.3-2.5 1.7-2.5-1.2-.1z"/></svg>