<svg xmlns="http://www.w3.org/2000/svg" role="img" xmlns:xlink="http://www.w3.org/1999/xlink" viewBox="30.09 3.59 431.82 619.32"><title>Ptex logo</title><defs><style>.cls-2{fill:#fff}.cls-3{fill:#515050}.cls-4{fill:#dedede}.cls-6{fill:#959595}.cls-8{fill:#eceded}.cls-9{fill:#c8c8c8}.cls-10{fill:#afafaf}.cls-12{fill:#979797}.cls-15{fill:#4c4b4b}.cls-16{fill:#494949}.cls-17{fill:#828282}.cls-18{fill:#b7b7b7}.cls-20{fill:#bcbcbc}</style><linearGradient id="linear-gradient" x1="163.408" x2="233.486" y1="350.773" y2="280.696" gradientUnits="userSpaceOnUse"><stop offset="0" stop-color="#8f8f8f"/><stop offset=".195" stop-color="#7a7a7a"/><stop offset=".419" stop-color="#6a6a6a"/><stop offset=".671" stop-color="#606060"/><stop offset="1" stop-color="#5d5d5d"/></linearGradient><linearGradient id="linear-gradient-2" x1="244.055" x2="374.851" y1="307.466" y2="307.466" xlink:href="#linear-gradient"/></defs><path fill="#f2793f" d="M202.516 28.337L90.3 92.654c-27.092 16.039-47.708 40.6-47.862 72.678l.43 129.97c-.158 32.557 19.608 62.676 47.182 78.815l110.08 56.23c27.168 15.902 60.527 16.61 87.618.57l112.218-61.41c27.092-16.039 49.557-44.3 49.712-76.377l.627-128.913c.158-32.557-22.515-58.448-50.09-74.587L290.136 27.322c-27.168-15.901-60.527-15.024-87.619 1.015z"/><path d="M113.442 131.068l61.254-31.345 69.566 58.05-16.737 87.807L92.12 172.651l21.322-41.583z" class="cls-2"/><path d="M230.4 251.622L86.833 174.296l23.672-46.168 64.718-33.118 73.361 61.217zM97.41 171.007l127.24 68.53 15.29-80.218-65.77-54.883-57.79 29.573z" class="cls-3"/><path d="M370.422 127.617l-4.065 70.075-83.767 32.865-65.863-58.679 129.187-83.954 24.508 39.693z" class="cls-2"/><path d="M76.167 133.95l54.324-35.074a177.354 177.354 0 0 1 21.13 7.378c6.388 2.795 23.903 15.458 23.903 15.458s-18.632 5.468-32.353 14.87c-9.81 6.724-21.186 18.947-21.186 18.947z" class="cls-4"/><path d="M122.31 157.213L73.32 134.14l56.938-36.762.596.162a180.29 180.29 0 0 1 21.323 7.446c6.449 2.822 23.439 15.084 24.158 15.604l2.29 1.655-2.71.796c-.185.054-18.588 5.519-31.962 14.684-9.572 6.56-20.842 18.626-20.955 18.747zM79.012 133.76l42.654 20.089c2.64-2.773 12.174-12.55 20.721-18.408 10.807-7.406 24.388-12.335 30.074-14.213-4.917-3.485-16.56-11.59-21.396-13.705a175.541 175.541 0 0 0-20.348-7.145z" class="cls-3"/><path fill="#dadada" d="M244.821 82.298l-46.254-22.8s35.538-19.228 46.769-19.24c11.146-.013 49.106 17.361 49.106 17.361z"/><path d="M244.824 83.843l-49.272-24.288 2.356-1.274c1.463-.792 35.977-19.395 47.426-19.408h.013c11.334 0 48.111 16.773 49.672 17.488l2.638 1.207zm-43.218-24.39l43.212 21.3 46.387-23.07c-8.786-3.907-36.805-16.04-45.857-16.04h-.01c-9.111.01-35.623 13.553-43.732 17.81z" class="cls-3"/><path d="M131.316 98.453l67.25-38.955 48.113 23.646-69.916 38.568c-19.663-12.487-19.633-12.878-26.091-15.582-5.975-2.501-19.356-7.677-19.356-7.677z" class="cls-6"/><path d="M176.713 123.32l-.692-.439c-4.365-2.772-7.76-4.949-10.472-6.686-9.505-6.093-10.498-6.73-15.412-8.788-5.889-2.465-19.186-7.611-19.32-7.663l-2.694-1.042 70.39-40.773 51.16 25.144zm-42.208-25.114c4.234 1.649 12.411 4.85 16.701 6.647 5.137 2.15 6.355 2.931 15.838 9.01a2492.77 2492.77 0 0 0 9.769 6.24l66.871-36.888-45.064-22.148z" class="cls-3"/><path fill="#eee" d="M74.721 135.008c-12.08 6.696-10.322 66.313-10.322 66.313l53.378 25.98 4.13-71.535S83.432 130.18 74.72 135.008z"/><path d="M119.04 229.455l-56-27.256-.025-.837c-.183-6.188-1.424-60.66 11.035-67.565 9.178-5.09 44.613 18.15 48.623 20.817l.662.44zm-53.277-29.01l50.752 24.701 3.963-68.665c-14.695-9.693-39.362-23.432-45.086-20.262-2.573 1.427-7.163 7.812-8.981 34.55-.911 13.397-.72 26.324-.648 29.676z" class="cls-3"/><path d="M117.777 298.9l2.065 59.69s-40.51-21.381-47.392-33.122c-7.205-12.293-8.051-54.194-8.051-54.194z" class="cls-8"/><path d="M121.308 360.93l-2.112-1.116c-1.668-.88-40.94-21.702-47.94-33.645-7.304-12.461-8.207-53.14-8.242-54.866l-.046-2.329 56.165 29.069zm-55.456-87.344c.308 8.949 1.814 40.982 7.793 51.182 5.72 9.76 36.356 26.9 44.73 31.458l-1.954-56.468z" class="cls-3"/><path d="M113.442 224.322s17.327 8.496 32.802 16.007 33.434 17.213 43.37 25.974c1.75 1.543.38-73.409.38-73.409l-68.01-37.153a161.617 161.617 0 0 0-7.422 33.938c-1.084 11.924-1.12 34.643-1.12 34.643z" class="cls-4"/><path d="M189.453 267.956l-.755-.615c-8.033-7.082-22.922-15.993-43.058-25.766-15.301-7.427-32.634-15.925-32.808-16.01l-.776-.38.001-.865c0-.228.049-22.918 1.126-34.767 1.567-17.225 7.436-34.103 7.495-34.271l.54-1.538 70.145 38.32.015.805c.003.182.334 18.385.46 36.446.263 37.416-.386 37.717-1.565 38.262zm-74.624-44.495c3.548 1.738 18.57 9.094 32.02 15.624 19.253 9.344 33.332 17.633 41.904 24.67.665-9.01.32-45.127-.13-70.031l-65.847-35.974a160.31 160.31 0 0 0-6.835 32.054c-.948 10.418-1.091 29.393-1.112 33.657z" class="cls-3"/><path d="M249.536 297.544s7.847-59.04-1.483-74.36c-8.679-14.25-61.428-31.45-61.428-31.45s-9.087 11.681-10.4 34.62c-1.281 22.355 11.258 39.365 11.258 39.365s18.651 18.533 26.247 22.51c8.204 4.294 35.806 9.315 35.806 9.315z" class="cls-9"/><path d="M64.399 273.391l-.97-33.878c-.274-9.548.97-38.192.97-38.192l51.314 23.862a320.645 320.645 0 0 0-4.542 32.04c-1.567 15.87 6.606 41.677 6.606 41.677z" class="cls-10"/><path d="M120.061 301.526l-57.022-27.25-.994-34.723c-.272-9.49.92-37.12.97-38.292l.09-2.068 54.192 25.2-.23 1.08c-.026.119-2.573 12.184-4.518 31.886-1.522 15.41 6.467 40.867 6.548 41.123zm-54.302-29.02l49.797 23.798c-2.107-7.33-7.04-26.294-5.763-39.216 1.63-16.498 3.682-27.708 4.347-31.109l-48.445-22.528c-.277 6.75-1.109 28.122-.883 36.021z" class="cls-3"/><path fill="#929292" d="M117.777 298.9l69.11 37.45-2.064 56.844s-57.102-25.96-63.395-33.867c-6.578-8.267-3.65-60.427-3.65-60.427z"/><path d="M186.132 395.31l-1.881-.855c-2.344-1.066-57.48-26.19-63.906-34.266-2.967-3.728-4.47-14.905-4.594-34.167-.09-13.955.637-27.068.644-27.199l.122-2.18 71.786 38.9zm-67.087-94.148c-.769 15.748-1.418 51.164 3.467 57.303 4.805 6.039 43.987 24.808 61.003 32.61l1.958-53.917z" class="cls-3"/><path d="M186.69 335.707l58.96 30.522.584 55.921-59.544-27.871a62.158 62.158 0 0 1-4.636-28.171c.694-8.363 4.636-30.4 4.636-30.4z" class="cls-12"/><path d="M248.17 422.224l-2.214 1.335-60.31-28.24-.213-.46a62.97 62.97 0 0 1-4.759-28.865c.692-8.333 4.492-29.628 4.653-30.53l.331-1.85 61.369 31.769zm-60.418-28.976l57.074 26.715-.551-52.887-56.549-29.273c-.958 5.478-3.729 21.627-4.292 28.42a61.577 61.577 0 0 0 4.318 27.025z" class="cls-3"/><path fill="url(#linear-gradient)" d="M120.168 294.547c10.399-10.663 63.531-37.77 63.531-37.77s14.936 25.022 31.509 30.91c8.384 2.978 34.365 9.096 34.365 9.096l-.66 67.955s-28.395-8.87-61.913-21.886c-7.508-2.916-23.863-7.288-30.863-10.307-28.69-12.373-43.579-30.194-35.969-37.998z"/><path d="M250.279 366.615l-1.78-.556c-.284-.089-28.822-9.033-62-21.917-3.362-1.305-8.48-2.893-13.896-4.575-6.452-2.002-13.124-4.073-17.014-5.75-21.05-9.078-36.547-22.018-38.563-32.2a8.617 8.617 0 0 1 2.15-8.036c10.439-10.703 61.716-36.927 63.894-38.038l1.153-.59.665 1.113c.146.246 14.877 24.664 30.783 30.316 8.217 2.919 33.96 8.993 34.22 9.053l1.077.254zm-129.12-71.1a5.887 5.887 0 0 0-1.417 5.564c1.487 7.51 13.682 20.163 36.943 30.194 3.756 1.62 10.356 3.67 16.739 5.65 5.464 1.696 10.625 3.297 14.077 4.637 28.357 11.013 53.312 19.138 60.045 21.291l.632-64.975c-5.058-1.203-25.95-6.226-33.434-8.885-15.026-5.339-28.395-25.387-31.551-30.398-7.755 3.998-52.745 27.397-62.034 36.921z" class="cls-3"/><path fill="#b5b5b5" d="M174.905 121.924c27.389-33.097 69.71-39.626 69.71-39.626s2.064 65.352 2.064 76.322c0 .02-27.334-5.236-45.647-15.44-14.12-7.866-26.33-21.012-26.127-21.256z"/><path d="M246.762 160.003a36.98 36.98 0 0 1-4.96-1.005 230.861 230.861 0 0 1-11.47-2.936c-8.386-2.378-20.393-6.334-29.974-11.672-13.313-7.417-26.537-20.705-26.816-22.196l-.12-.639.416-.514c27.408-33.119 70.137-40.046 70.566-40.112l1.545-.238.05 1.563c.02.654 2.065 65.5 2.065 76.366v.792l-.683.402a1.025 1.025 0 0 1-.62.19zm-70.088-38.035c2.627 2.99 13.194 13.409 25.031 20.003 15.384 8.57 37.482 13.659 43.579 14.952-.147-13.25-1.7-63.317-2.003-72.97-7.738 1.551-42.814 9.93-66.607 38.015z" class="cls-3"/><path d="M113.03 223.278c-1.551 20.704-2.053 18.69-2.053 38.873 0 12.934 6.388 35.487 6.388 35.487s59.395-25.857 69.858-34.628c2.149-1.802-17.328-23.908-35.279-32.861s-38.915-6.871-38.915-6.871z" class="cls-15"/><path d="M116.464 299.54l-.431-1.526c-.264-.927-6.441-22.886-6.441-35.863 0-14.643.272-17.748.998-26.048.28-3.204.629-7.192 1.058-12.928l.087-1.16 1.157-.115c.871-.084 21.57-2.017 39.67 7.01 16.708 8.334 35.602 28.379 36.19 33.358a1.943 1.943 0 0 1-.64 1.803c-10.495 8.799-67.762 33.777-70.195 34.836zm-2.144-74.966a946.14 946.14 0 0 1-.972 11.77c-.738 8.442-.987 11.285-.987 25.807 0 10.671 4.502 28.302 5.917 33.575 9.075-3.987 57.411-25.392 67.648-33.447-1.263-3.642-17.606-22.415-34.6-30.89-15.006-7.486-32.418-7.075-37.006-6.815z" class="cls-16"/><path d="M191.017 336.35l.661-68.989" class="cls-2"/><path d="M189.622 336.338l.682-68.989 2.769.027-.682 68.989zm117.671 10.127c-.108-1.5-2.646-36.885-2.378-49.07.208-9.529 3.229-37.04 3.358-38.206l2.752.303c-.031.285-3.135 28.556-3.342 37.964-.265 12.055 2.346 48.443 2.372 48.81z" class="cls-3"/><path d="M189.613 265.244s1.68 30.448 1.54 39.472a160.098 160.098 0 0 1-4.988 37.652l62.747 25.334 1.867-70.276" class="cls-17"/><path d="M250.243 369.732l-65.752-26.547.343-1.199a160.29 160.29 0 0 0 4.935-37.29c.138-8.874-1.521-39.072-1.538-39.376l2.765-.152c.069 1.245 1.681 30.6 1.541 39.57a167.174 167.174 0 0 1-4.72 36.804l59.764 24.13 1.814-68.284 2.768.075z" class="cls-3"/><path d="M190.82 194.376s41.496-35.899 52.969-35.968c17.768-.107 58.4 33.03 58.4 33.03s-40.473 29.497-50.8 29.511" class="cls-18"/><path d="M251.391 222.334l-.003-2.77c7.77-.01 36.347-19.418 48.517-28.18-7.273-5.76-40.744-31.592-56.027-31.592h-.08c-8.992.055-40.638 25.74-52.073 35.631l-1.812-2.094c1.71-1.48 42.02-36.234 53.868-36.306h.091c18.099 0 57.52 31.979 59.193 33.342l1.391 1.135-1.45 1.057c-.102.074-10.281 7.482-21.593 14.794-15.368 9.936-25.468 14.977-30.022 14.983z" class="cls-3"/><path d="M419.113 135.67L364.79 97.844s-12.942 2.86-22.782 7.166c-6.388 2.795-24.522 14.611-24.522 14.611s20.006 8.3 28.77 12.69c12.72 6.37 25.389 21.339 25.389 21.339z" class="cls-17"/><path d="M371.22 155.29l-.633-.746c-.125-.147-12.64-14.828-24.952-20.995-8.62-4.318-28.481-12.566-28.68-12.649l-2.425-1.006 2.199-1.433c.744-.485 18.305-11.91 24.723-14.72 9.851-4.31 22.504-7.13 23.039-7.249l.591-.13 56.978 39.672zm-50.774-35.931c5.618 2.359 19.542 8.264 26.43 11.714 11.341 5.682 22.41 17.788 25.182 20.94l44.11-16.708L364.5 99.33a143.265 143.265 0 0 0-21.94 6.949c-4.9 2.144-17.099 9.862-22.115 13.08z" class="cls-3"/><path d="M363.964 97.632L295.062 57.62l-48.113 23.646 69.916 38.568c19.663-12.487 20.666-12.455 27.124-15.159 5.974-2.501 19.975-7.042 19.975-7.042z" class="cls-6"/><path d="M316.915 121.442l-72.961-40.247 51.163-25.145 72.223 41.942-2.95.957c-.139.045-14.014 4.552-19.866 7.003-.598.25-1.149.476-1.672.692-4.99 2.055-7.495 3.086-25.244 14.358zm-66.97-40.106l66.87 36.889c17.33-10.99 19.909-12.053 24.982-14.141.519-.214 1.065-.439 1.656-.687 4.338-1.816 12.698-4.642 17.147-6.117l-65.593-38.09z" class="cls-3"/><path d="M418.907 135.246c12.081 6.696 10.322 64.196 10.322 64.196l-51.314 25.98-6.193-71.535s38.473-23.469 47.185-18.64z" class="cls-10"/><path d="M376.712 227.582l-6.443-74.43.732-.447c.097-.059 9.795-5.96 20.436-11.191 22.063-10.847 26.639-8.312 28.14-7.48 12.46 6.907 11.22 59.478 11.037 65.45l-.026.822zm-3.537-72.957l5.943 68.635 48.751-24.68c.43-16.349-.488-57.054-9.633-62.123-5.739-3.178-30.352 9.279-45.06 18.168z" class="cls-3"/><path d="M375.851 297.021l-2.064 59.69s40.51-23.498 47.391-35.24c7.205-12.292 8.052-54.193 8.052-54.193z" class="cls-8"/><path d="M372.316 359.164l2.178-62.972 56.168-31.298-.048 2.412c-.035 1.726-.938 42.405-8.242 54.866-6.985 11.919-46.224 34.77-47.891 35.736zm4.891-61.314l-1.95 56.384c8.453-5.04 39.006-23.702 44.727-33.463 5.96-10.169 7.474-42.032 7.79-51.096z" class="cls-3"/><path d="M378.122 224.56s-15.262 6.38-30.737 13.89-33.435 17.213-43.37 25.974c-1.75 1.543-1.206-72.986-1.206-72.986l68.835-37.577a161.617 161.617 0 0 1 7.422 33.938c1.085 11.925-.944 36.76-.944 36.76z" class="cls-4"/><path d="M304.257 266.055l-.895-.354c-1.148-.523-1.841-.839-1.994-38.038-.075-17.957.055-36.054.056-36.235l.006-.814 70.98-38.749.54 1.538c.06.169 5.93 17.046 7.496 34.271 1.082 11.907-.86 35.98-.944 36.998l-.068.84-.777.325c-.153.063-15.408 6.452-30.668 13.858-20.138 9.776-35.028 18.686-43.058 25.767zm-.07-73.792c-.166 23.904-.11 60.628.661 69.635 8.567-7.039 22.654-15.336 41.932-24.693 13.359-6.485 26.71-12.19 30.028-13.594.337-4.42 1.829-25.24.88-35.686a160.318 160.318 0 0 0-6.835-32.054z" class="cls-3"/><path d="M429.23 267.278s.99-22.448.998-30.687c.017-20.122-.999-37.149-.999-37.149l-53.378 25.98s2.477 28.634 2.477 38.39c0 8.144-2.477 35.326-2.477 35.326a224.022 224.022 0 0 0 21.115-8.843c12.749-6.375 13.074-7.556 32.263-23.017z" class="cls-8"/><path d="M374.276 301.169l.196-2.157c.024-.27 2.472-27.212 2.472-35.2 0-9.586-2.448-37.986-2.472-38.272l-.082-.947 56.099-27.303.123 2.07c.01.17 1.017 17.299 1 37.233-.006 8.173-.989 30.521-1 30.747l-.027.624-.487.392c-3.548 2.859-6.45 5.229-8.905 7.234-10.826 8.84-13.08 10.68-23.608 15.943a227.43 227.43 0 0 1-21.27 8.91zm3.036-74.92c.434 5.118 2.401 28.744 2.401 37.563 0 6.852-1.699 26.622-2.288 33.275 3.784-1.412 12.126-4.633 18.922-8.03 10.253-5.128 12.213-6.728 23.095-15.613 2.345-1.915 5.098-4.163 8.431-6.851.16-3.686.964-22.655.97-30.002.014-15.818-.62-29.854-.883-34.991z" class="cls-3"/><path d="M375.851 297.021l-69.11 37.45 2.064 56.844s57.102-25.96 63.395-33.868c6.578-8.266 3.651-60.426 3.651-60.426z" class="cls-12"/><path d="M307.496 393.431l-2.17-59.768 71.785-38.9.123 2.181c.007.131.732 13.244.643 27.2-.124 19.261-1.626 30.437-4.594 34.165-6.426 8.077-61.561 33.2-63.905 34.267zm.66-58.153l1.958 53.918c17.015-7.803 56.197-26.572 61.004-32.611 4.884-6.138 4.234-41.554 3.464-57.302z" class="cls-3"/><path d="M306.938 333.828l-61.85 30.522.867 57.826 60.983-29.776a62.158 62.158 0 0 0 4.636-28.171c-.693-8.363-4.636-30.4-4.636-30.4z" class="cls-9"/><path d="M244.398 422.496l-.708-59.001 64.286-31.724.325 1.813c.161.902 3.963 22.198 4.653 30.53a62.952 62.952 0 0 1-4.76 28.865l-.205.449-.444.215-58.657 28.51-2.858 1.393zm2.087-57.292l.821 54.771 58.564-28.595a61.545 61.545 0 0 0 4.325-27.037c-.565-6.808-3.347-23.016-4.3-28.457z" class="cls-3"/><path fill="url(#linear-gradient-2)" d="M373.047 292.668c-10.398-10.663-60.53-40.594-60.53-40.594s-23.942 31.588-41.823 36.634c-8.152 2.3-26.639 6.196-26.639 6.196l.661 67.955s51.82-16.46 90.069-32.956c28.69-12.373 45.872-29.431 38.262-37.235z"/><path d="M243.35 364.746l-.69-70.963 1.11-.233c.184-.04 18.535-3.913 26.548-6.174 17.235-4.865 40.86-35.826 41.095-36.138l.75-.988 1.064.636c2.053 1.225 50.406 30.145 60.811 40.816a7.759 7.759 0 0 1 2.01 7.226c-1.902 9.605-18.264 22.564-40.716 32.247-37.874 16.333-89.678 32.838-90.197 33.003zm2.1-68.723l.632 64.943c9.448-3.052 54.377-17.768 88.155-32.334 21.313-9.192 37.39-21.627 39.093-30.24a4.975 4.975 0 0 0-1.274-4.757c-9.327-9.565-51.923-35.365-59.195-39.74-4.301 5.511-25.26 31.48-41.791 36.145-6.948 1.96-21.495 5.102-25.62 5.983z" class="cls-3"/><path d="M318.93 119.833c-29.898-40.844-77.927-37.036-74.315-37.747 0 0 2.2 63.426 2.2 74.395 0 .021 27.468-4.977 45.782-15.18 14.12-7.866 26.52-21.212 26.333-21.468z" class="cls-15"/><path d="M246.736 157.863a1.023 1.023 0 0 1-.623-.188l-.683-.401v-.793c0-10.144-1.914-66.055-2.17-73.527a1.425 1.425 0 0 1-.219-.701 1.444 1.444 0 0 1 1.307-1.525l1.594-.314.016.455c17.954.807 51.194 6.868 74.09 38.146l.368.504-.132.625c-.335 1.534-13.756 14.981-27.013 22.367-9.584 5.34-21.632 9.226-30.052 11.545a224.782 224.782 0 0 1-11.518 2.847 37.99 37.99 0 0 1-4.965.96zm-.682-74.218c.325 9.484 1.978 58.052 2.133 71.16 6.064-1.227 28.351-6.142 43.736-14.713 12.316-6.861 22.794-17.515 25.27-20.279-22.098-29.493-53.795-35.351-71.14-36.168z" class="cls-16"/><path d="M378.741 223.304c2.51 19.599 3.455 18.81 3.216 40.515-.143 12.933-5.693 31.94-5.693 31.94s-61.46-25.857-71.923-34.628c-2.15-1.802 17.328-21.791 35.279-30.744s39.121-7.083 39.121-7.083z" class="cls-15"/><path d="M377.158 297.636l-1.431-.601c-2.518-1.06-61.774-26.04-72.276-34.844a1.911 1.911 0 0 1-.64-1.767c.577-4.886 19.952-23.177 36.19-31.277 18.094-9.023 38.984-7.3 39.863-7.221l1.109.097.142 1.106a626.448 626.448 0 0 0 1.53 11.101c1.368 9.437 1.88 12.967 1.696 29.605-.143 12.973-5.52 31.528-5.748 32.311zm-71.502-37.223c10.34 8.08 60.498 29.55 69.698 33.457 1.288-4.719 5.102-19.553 5.218-30.067.181-16.421-.322-19.894-1.667-29.175a653.31 653.31 0 0 1-1.39-10.012c-4.538-.22-22.198-.513-37.277 7.01-16.439 8.198-33.139 25.1-34.582 28.787z" class="cls-16"/><path d="M302.19 191.438s-24.413-35.678-56.273-33.639c-43.595 2.79-55.793 27.27-58.368 34.42l56.754 29.18z" class="cls-18"/><path d="M244.305 222.957l-58.471-30.062.412-1.145c2.726-7.568 15.079-32.484 59.582-35.333 13.394-.86 27.6 4.81 41.076 16.386a102.454 102.454 0 0 1 16.428 17.853l.884 1.292zm-55.02-31.402l55.016 28.287 55.82-28.892c-4.706-6.271-26.79-33.515-54.116-31.77-40.78 2.611-53.381 24.139-56.72 32.375z" class="cls-3"/><path d="M301.417 259.34s-13.629 19.107-20.11 23.636c-15.986 11.174-47.982 12.628-46.147 11.089 0 0-26.531-6.304-40.34-21.023-3.537-3.77-9.63-18.445-9.63-18.445l36.884-1.118 20.962 40.798" class="cls-9"/><path d="M185.303 192.46l1.262-2.465 58.547 29.96-1.261 2.465z" class="cls-3"/><path d="M242.85 295.547l1.866 70.276 62.748-25.334a113.068 113.068 0 0 1-7.053-37.652c-.14-9.025 3.604-41.589 3.604-41.589" class="cls-12"/><path d="M243.385 367.853l-1.92-72.27 2.768-.073 1.814 68.283 59.632-24.076a115.944 115.944 0 0 1-6.653-36.859c-.14-9.01 3.46-40.435 3.614-41.768l2.75.316c-.037.325-3.732 32.577-3.595 41.41a112.555 112.555 0 0 0 6.947 37.144l.535 1.29z" class="cls-3"/><path d="M242.127 296.106s.442-37.533.492-63.807c.01-4.937-.24-8.324 1.404-11.04 8.679-14.344 57.3-29.525 57.3-29.525s5.35 4.713 8.87 27.555c2.508 16.27-8.776 43.506-8.776 43.506s-20.126 21.349-28.606 25.568c-7.587 3.775-30.684 7.743-30.684 7.743z" class="cls-20"/><path d="M249.573 267.361l28.848-32.887h31.032s.196 17.6-17.839 40.203c-6.125 7.676-30.25 21.113-39.806 19.581-2.788-.447-8.054 1.673-8.579-1.17-.927-5.02 6.344-25.727 6.344-25.727z" class="cls-20"/><path d="M244.262 296.085c-37.579 0-68.15-31.334-68.15-69.849 0-38.514 30.571-69.848 68.15-69.848 37.577 0 68.15 31.334 68.15 69.848 0 38.515-30.573 69.849-68.15 69.849zm0-136.927c-36.052 0-65.381 30.09-65.381 67.078s29.33 67.08 65.38 67.08 65.38-30.093 65.38-67.08-29.328-67.078-65.38-67.078z" class="cls-3"/><path d="M244.614 294.719l-2.769-.039 1.044-74.348 58.88-29.916 1.254 2.469-57.389 29.158-1.02 72.676z" class="cls-3"/><path d="M98.27 474.891c9.8.317 21.345-.722 32.817 1.058 12.36 1.918 22.726 7.107 28.27 18.842 6.934 14.672 4.164 33.195-10.27 43.888-8.844 6.553-18.962 8.329-29.508 8.715-6.183.227-12.383.11-18.572.006-2.11-.036-2.75.693-2.737 2.779q.115 19.855-.008 39.71c-.019 2.506 1.015 3.15 3.248 3.053 2.557-.11 5.123.004 7.685-.034 1.75-.025 2.505.757 2.478 2.518-.056 3.629-.037 7.259-.014 10.888.01 1.602-.7 2.308-2.325 2.305q-19.855-.037-39.71.003c-1.576.004-2.01-.676-1.988-2.125.057-3.842.071-7.687-.006-11.528-.032-1.588.708-2.059 2.118-2.045 2.348.021 4.702-.107 7.043.024 2.323.13 3.265-.684 3.166-3.11-.16-3.944-.042-7.898-.042-11.848 0-27.755-.043-55.51.065-83.265.01-2.8-.656-3.631-3.528-3.577-8.8.168-8.802.04-8.802-8.837 0-7.42 0-7.42 7.453-7.42H98.27zm14.065 16.33c-3.84 0-7.682.049-11.521-.022-1.648-.03-2.549.282-2.538 2.253.07 12.055.053 24.111.014 36.166-.005 1.706.566 2.673 2.355 2.626 8.623-.227 17.258.594 25.871-.77 10.57-1.674 15.776-8.378 17.143-16.393 1.378-8.08-1.878-18.78-12.03-22.11-6.368-2.09-12.825-1.619-19.294-1.75zm178.507 74.205c-9.818-.001-19.637.067-29.454-.05-2.435-.028-3.05.638-2.84 3.108.922 10.877 5.288 19.468 15.569 24.231 7.62 3.531 15.512 3.164 23.452 1.23a55.62 55.62 0 0 0 14.204-5.593c1.96-1.104 3.265-.98 4.37 1.19 1.302 2.56 2.845 5 4.354 7.449.847 1.376.604 2.243-.767 3.14-12.034 7.873-25.033 11.844-39.573 10.755-9.366-.702-17.589-3.624-24.645-9.889-5.773-5.126-9.288-11.64-11.557-18.817a64.985 64.985 0 0 1-2.606-22.109c.383-10.556 2.875-20.478 9.235-29.042a38.663 38.663 0 0 1 24.835-15.435 49.158 49.158 0 0 1 22.714 1.282c11.365 3.169 18.084 11.077 21.79 21.88a68.631 68.631 0 0 1 3.423 23.574c-.038 2.387-.669 3.163-3.05 3.14-9.817-.099-19.636-.042-29.454-.044zm-8.93-13.32c6.616 0 13.233-.059 19.848.032 2.385.032 3.202-.817 2.964-3.225-.924-9.373-6.58-18.669-18.812-19.24-13.925-.65-22.064 4.735-25.694 17.76-1.167 4.187-.824 4.667 3.446 4.676q9.124.02 18.248-.003zm130.308 56.499c-4.272 0-8.544-.07-12.813.03-1.958.047-2.692-.736-2.663-2.621.054-3.523.022-7.047.013-10.571-.003-1.433.328-2.511 2.08-2.58 1.71-.068 1.698-1.01.828-2.098-4.665-5.832-9.378-11.626-14.024-17.473-1.013-1.275-1.791-.823-2.538.128-4.476 5.707-8.917 11.443-13.395 17.148-.96 1.224-1.062 2.054.733 2.407 1.172.23 1.41 1.078 1.401 2.153-.031 3.737-.052 7.475.007 11.211.027 1.646-.645 2.284-2.278 2.278q-13.294-.052-26.587.01c-1.495.01-2.107-.45-2.08-2.004.07-3.843.085-7.69-.022-11.53-.049-1.73.653-2.461 2.25-2.152 4.106.797 6.44-1.535 8.817-4.394q10.54-12.672 21.437-25.045c1.712-1.941 1.434-3.05-.16-4.763-6.612-7.112-13.25-14.211-19.566-21.582-2.61-3.044-5.33-4.69-9.33-4.03-2.953.488-3.97-.818-3.756-3.76.233-3.187.1-6.405.035-9.607-.036-1.809.495-2.769 2.53-2.754 8.648.063 17.297.048 25.946.015 1.93-.007 2.68.9 2.663 2.74-.034 3.63-.006 7.26-.02 10.891-.001.421.053 1.058-.184 1.231-3.222 2.354-.563 4.03.71 5.716 3.41 4.51 6.988 8.895 10.387 13.414 1.335 1.775 2.31 1.793 3.649.049 4.027-5.246 8.133-10.43 12.206-15.642.782-1.001 1.608-2.03-.54-2.367-1.427-.225-1.518-1.305-1.522-2.41-.013-3.63.041-7.261-.024-10.89-.038-2.119.989-2.76 2.963-2.747q12.653.08 25.306-.003c1.84-.012 2.79.517 2.751 2.52a325.526 325.526 0 0 0-.008 11.21c.026 1.79-.776 2.683-2.5 2.37-4.292-.78-6.79 1.477-9.339 4.58-6.164 7.5-12.605 14.779-19.09 22.007-1.764 1.966-1.618 3.24.051 5.111q11.296 12.664 22.355 25.537c1.616 1.883 3.332 2.908 5.787 2.577 2.457-.33 3.539.623 3.423 3.196-.144 3.197-.107 6.407-.014 9.608.066 2.233-.864 2.991-3.063 2.925-4.268-.129-8.541-.038-12.813-.039zm-210.103-48.287c-.001 8.436-.05 16.872.012 25.307.064 8.598 4.624 12.412 13.12 11.3 2.861-.376 5.725-.597 8.35-1.9 1.557-.774 2.373-.242 2.846 1.328.52 1.726 1.13 3.428 1.748 5.124 1.693 4.647 1.746 4.751-2.671 6.5a40.124 40.124 0 0 1-26.632 1.446c-9.42-2.798-12.208-10.803-13.241-19.626-1.372-11.713-.55-23.466-.565-35.202q-.012-9.927.366-19.854c.104-2.715-.615-3.954-3.557-3.708-2.758.23-5.553-.037-8.324.078-1.879.077-2.753-.492-2.68-2.506.11-2.986.082-5.98.008-8.968-.048-1.928.772-2.677 2.675-2.628 3.095.079 6.197-.072 9.289.047 2.087.081 2.836-.711 2.8-2.786-.092-5.23.082-10.467-.078-15.695-.069-2.22.524-3.538 2.651-4.436 3.727-1.573 7.38-3.339 10.983-5.18 2.209-1.13 2.978-.745 2.947 1.815-.092 7.687.07 15.378-.092 23.063-.055 2.568.71 3.342 3.26 3.243 4.905-.19 9.826.047 14.733-.098 2.433-.072 3.556.594 3.371 3.22a62.745 62.745 0 0 0-.007 8.004c.127 2.204-.598 2.992-2.875 2.923-5.014-.153-10.041.086-15.053-.101-2.6-.097-3.503.597-3.447 3.343.176 8.646.065 17.298.063 25.947z" class="cls-15"/></svg>