<svg xmlns="http://www.w3.org/2000/svg" role="img" viewBox="-0.12 -3.62 318.99 409.24"><title>Puli logo</title><defs><style>.cls-1{fill:#010101}.cls-4{fill:#e4e4e4}.cls-5{fill:#e3e3e3}.cls-8{fill:#fafafa}.cls-10{fill:#f9f9f9}.cls-12{fill:#f8f8f8}</style></defs><path d="M311.13 178.095c-4.806 4.505-9.536 5.049-14.952.614-4.7-3.85-10.38-5.774-17.07-6.417 2.829 5.652 5.632 10.484 7.732 15.605 4.739 11.553 2.11 15.617-10.41 15.963 3.724 11.537 7.205 23.03 6.748 35.225-.196 5.23-.418 10.735-6.734 12.152-6.049 1.357-8.019-3.56-10.153-7.91-2.22-4.522-4.94-8.695-10.192-11.97-.281 6.12-.02 11.725-.943 17.128-.807 4.732-.658 10.577-6.813 12.535-6.954 2.212-7.602-4.796-11.009-8.817-2.323 14.175-5.453 26.998-12.601 38.455-2.63 4.216-5.749 7.892-11.48 6.301-5.746-1.595-5.217-6.313-5.08-10.843.13-4.29.028-8.587.028-12.881l-2.326-.43c-2.293 3.506-4.386 7.166-6.928 10.482-3.566 4.652-6.33 11-13.85 9.716-7.816-1.335-3.66-8.93-6.623-14.084-7.776 8.84-15.152 17.507-24.934 23.407a59.762 59.762 0 0 1-10.156 5.066c-3.336 1.223-6.239-.423-8.344-3.083-1.994-2.52-1.868-5.314-.267-8.023 2.372-4.013 5.507-7.634 6.984-13.634-5.891 2.766-10.71 5.35-15.77 7.306-4.166 1.61-8.992 2.921-12.344-1.285-3.63-4.554-.16-8.184 2.62-11.745 1.506-1.932 3.985-3.313 3.948-7.405-12.242 4.507-24.034 9.677-36.977 10.013-3.487.09-6.983.188-10.464.038-4.223-.18-7.431-2.236-8.428-6.432-1.044-4.395 1.585-7.112 5.254-9.003 2.719-1.4 5.853-2.157 8.093-5.224-5.146-.827-9.95-1.664-14.775-2.355-4.53-.65-8.028-2.734-8.395-7.527-.357-4.666 3.46-6.323 7.113-7.746 3.973-1.547 8.659-1.84 11.796-7.168-14.258-.219-27.424-2.627-39.814-8.253a104.034 104.034 0 0 1-9.25-4.831c-4.117-2.394-7.106-5.778-5.866-10.85 1.373-5.62 6.041-5.667 10.696-5.357 1.889.125 3.793.02 7.159.02-4.272-3.672-7.737-6.48-11-9.507-2.841-2.637-3.724-6.097-2.043-9.57 1.816-3.753 5.342-4.152 9.03-3.177a31.654 31.654 0 0 0 16.934.301c-13.882-8.152-25.193-17.585-34.002-29.73a89.79 89.79 0 0 1-5.544-8.84c-2.357-4.204-3.036-8.617.877-12.205 3.8-3.486 7.633-1.612 11.255.852 1.81 1.232 3.735 2.298 6.893 4.222-1.618-5.271-3.11-9.217-3.99-13.294-.686-3.184-.288-6.528 2.982-8.385 3.111-1.768 5.995-.898 8.795 1.191 3.933 2.934 6.937 7.398 13.99 8.424-5.257-12.08-11.091-22.826-13.19-34.921a87.603 87.603 0 0 1-1.325-20.835c.274-4.157 2.166-7.472 6.464-8.38 4.376-.923 7.12 1.585 9.007 5.316 1.402 2.772 2.942 5.475 5.46 10.133 1.13-5.82 1.584-9.72 2.694-13.423 1.055-3.524 3.571-6.192 7.497-6.258 3.625-.06 5.504 2.567 6.769 5.716 1.825 4.548 2.252 9.87 7.834 13.701-.552-14.32.747-27.642 5.824-40.301a121.087 121.087 0 0 1 5.405-12.102c2.56-4.787 5.425-10.07 12.09-8.656 7.595 1.61 5.526 7.975 5.544 13.187.01 2.703.227 5.405.392 9.025 6.855-4.583 9.11-15.917 18.428-11.812 9.573 4.218 1.07 12.985 3.027 21.005 10.29-18.328 23.9-32.147 41.293-42.073h7.633c6.687 3.386 6.638 8.536 3.777 14.421-1.52 3.127-3.754 5.885-5.182 10.452 5.577-2.99 10.758-5.29 16.364-3.628 6.42 1.903 7.378 6.84 5.928 13.19 13.51-5.473 26.795-9.49 41.108-8.177 5.587.512 11.206 1.267 12.789 7.715 1.584 6.456-2.825 9.804-7.818 12.607-2.41 1.354-5.199 2.393-6.69 5.802 3.753 1.71 7.918 1.874 11.61 3.4 4.814 1.99 8.69 5.248 7.143 10.77-1.711 6.103 2.102 6.257 5.864 6.95 10.401 1.918 20.335 5.06 29.118 11.147 4.597 3.186 8.716 6.91 6.899 13.289-1.818 6.383-7.09 7.366-12.833 7.543-3.7.114-7.583-.718-11.134 1.392 16.394 14.329 17.83 19.417 7.894 26.65 10.642 9.004 21.131 18.138 24.918 32.488z" class="cls-1"/><path fill="#e5e5e5" d="M232.905 190.949c9.156 7.233 13.836 16.963 16.23 29.1-8.716-1.84-16.475-5.405-25.028-5.739 1.242 6.167 6.855 10.253 6.601 17.578-6.724-3.42-12.727-6.567-18.832-9.502-1.327-.639-3.432-1.208-4.459-.598-2.035 1.21-.894 3.234-.149 5.02 4.302 10.322 2.71 20.441-1.253 31.706a131.05 131.05 0 0 0-19.544-20.271c-2.553 6.326.917 13.095-3.147 18.795-3.625-5.388-6.93-10.326-10.263-15.244-1.063-1.569-2.147-3.688-4.27-3.239-2.155.457-2.12 2.768-2.359 4.679-1.427 11.462-8.484 19.327-17.473 27.538-1.632-10.565-3.383-20-7.13-29.49-5.06 3.2-5.236 10.235-11.211 13.104-.353-5.591-.704-10.497-.953-15.408-.1-1.953-.105-4.156-2.04-4.99-2.322-1.002-3.2 1.354-4.31 2.774-7.78 9.951-19.003 12.952-32.037 16.099 5.28-10.934 9.121-20.987 10.077-32.506l-11.486 5.64c-1.794-.607-1.729-.982-1.339-1.748 2.388-4.7 7.633-10.335 5.252-14.293-2.39-3.975-8.287 1.655-12.903 2.015-10.113.789-19.459-1.641-30.4-5.902 11.161-6.017 19.139-13.776 27.294-23.54l-10.708-.802c2.216-5.219 10.966-5.589 9.853-10.644-1.006-4.57-8.4-1.964-12.676-4.322a64.606 64.606 0 0 1-23.66-21.518c12.106-.601 22.898-2.469 33.122-6.51.537-3.49-4.479-2.757-3.825-6.13 1.786-.15 3.644-.228 5.478-.482 2.384-.33 5.616.588 6.493-2.574.762-2.75-2.362-3.388-3.9-4.782-10.617-9.626-13.374-22.392-15.514-37.045 9.149 4.429 17.205 7.907 25.895 9.283 2.202.348 6.683 4.572 5.889-3.042-.24-2.299 3.326.433 5.096.783 2.348.465 4.687 3.452 6.86 1.797 2.352-1.789.312-4.598-.399-7-4.025-13.61-.428-26.117 5.298-38.823 15.131 20.375 20.245 24.323 23.693 18.647 3.646 3.004 4.815 10.363 9.187 10.05 5.853-.42 2.526-7.788 4.624-11.837a66.704 66.704 0 0 1 21.423-24.453c1.428 6.653 2.063 12.657 4.129 18.12 1.273 3.364-.82 9.601 7.126 9.335 3.168-.106 1.865 6 2.603 9.273.409 1.811.307 3.969 2.654 4.45 2.002.412 2.56-1.539 3.493-2.706 8.557-10.716 20.688-13.802 34.374-16.392-3.032 8.984-5.835 17.114-7.081 26.717l13.231-6.281c-5.607 6.866-7.927 12.654-10.481 18.309-.614 1.358-1.197 3.495-.563 4.49 1.245 1.957 3.33.796 5.083.074 11.67-4.805 22.814-1.89 35.16 2.23l-19.26 18.871 17.037 1.022a214.227 214.227 0 0 0-18.895 12.72c-1.363 1.04-2.545 2.133-2.177 3.802.403 1.827 2.144 1.986 3.787 2.15 11.933 1.186 19.914 8.697 28.335 17.454l-24.2 6.758c4.019 5.425 10.747 5.833 14.164 11.776-8.716 1.474-17.608-1.587-25.652 2.267-.324.555-.75 1.448-1.182 1.415-8.495-.647-5.817-8.863-8.698-13.321-2.027-3.137-.097-5.823 3.669-7.178 4.605-1.658 10.073-3.223 5.89-11.415.468 9.84-1.637 11.13-15.838 10.394 3.707 5.995 7.394 11.527 9.211 17.933.962 3.392 2.43 7.265-.799 9.764-3.74 2.895-6.377-.918-8.947-2.995-3.448-2.786-6.134-6.427-10.438-9.6-1.866 2.879.748 8.487-4.137 8.982-4.52.456-8.05-2.578-10.125-6.095-3.312-5.614-7.083-6.51-12.347-3.103-.78.505-2.115 1.035-2.704.631-8.705-5.964-18.853-1.903-27.93-4.244-3.786-.977-5.75-1.032-7.835 2.1a27.061 27.061 0 0 1-4.978 5.747c-2.63 2.218-5.396 6.023-8.795 4.728-4.386-1.67-2.682-6.438-2.505-10.996-4.745 4.398-8.671 8.854-13.1 12.755-2.117 1.865-4.487 4.282-7.53 2.493-3.403-2.002-2.475-5.477-1.733-8.581 1.7-7.112 5.866-13.13 9.83-19.775-13.972 1.447-18.06-.95-14.892-10.797-5.228 6.91-2.041 10.314 3.147 11.289 8.074 1.516 8.141 5.073 4.598 11.068a33.27 33.27 0 0 0-3.545 10.804c-.48 2.52-1.14 5.202 1.234 7.057 2.598 2.029 4.716-.048 6.834-1.332 2.179-1.32 3.984-3.155 6.134-4.51 1.613-1.017 3.578-2.417 5.255-1.042 8.853 7.26 12.717-1.147 17.865-5.498 2.9-2.45 5.204-7.65 9.678-1.87 1.468 5.661-1.246 11.175-.486 16.873 1.202 9.01 6.4 15.228 13.676 15.708 8.711.574 13.877-5.665 11.49-14.342-1.627-5.913-1.757-11.196 3.403-15.478 6.38-4.781 11.531-4.517 16.79 2.377 3.226 4.23 7.889 9.027 14.119 2.707 2.25-2.284 5.19-.634 6.783 1.138 6.633 7.377 12.792 6.292 18.974-.404z"/><path fill="#040404" d="M147.692 182.984c-2.053-2.269-3.97-2.933-5.74.337-2.504 4.625-6.763 7.51-10.785 10.595-2.433 1.867-6.475 3.1-7.792.821-4.798-8.297-7.39-.813-10.728.978-3.705 1.987-6.865 7.13-11.636 3.845-4.82-3.317-2.841-8.719-1.51-13.156 1.537-5.116 3.909-9.98 5.974-15.093-3.054-1.574-6.777-.337-9.778-2.517-5.329-3.87-5.764-8.136-1.293-12.692 1.636-1.667 4.184-4.375 6.494-2.389 3.564 3.066-.835 3.743-2.38 5.193-3.78 3.549-1.817 5.188 2.026 6.443 5.606 1.83 10.197-2.328 16.886-2.996-5.769 10.98-14.229 19.76-14.245 33.107 10.747-4.196 15.47-14.27 24.257-20.734.634 5.536-3.288 10.392-1.008 15.646 8.773-3.035 11.844-11.339 17.161-17.344 9.757 8.1 9.984 8.095 19.755-.493 5.776 6.379 11.469 13.706 20.737 4.334 3.076-3.11 4.242.854 5.478 2.604 3.305 4.681 6.812 9.058 12.848 11.876 1.53-4.617-.03-8.544-2.18-13.749 11.413 2.173 14.296 14.898 24.948 17.452.328-12.717-7.646-21.63-13.996-31.915 5.542-1.252 9.336 3.091 13.906 2.636 2.489-.248 5.445-.15 6.68-2.786 1.272-2.717-1.386-3.689-3.086-4.936-1.24-.91-2.935-1.696-1.676-3.645 1.507-2.333 3.286-.982 4.873-.073 3.212 1.842 5.414 4.358 5.192 8.377-.207 3.758-2.758 5.685-5.802 6.813-2.532.938-5.32 1.186-8.942 1.935 5.167 4.83 2.96 13.374 10.54 16.104l.035 3.387c-2.928.193-1.997 2.631-2.488 4.255-1.714 5.674-5.205 6.91-9.995 3.597-3.885-2.687-7.496-5.77-11.21-8.662-4.677 8.036-9.833 8.48-17.547-.769-4.803-5.758-8.698-6.937-14.585-2.945-3.638 1.67-7.088 1.03-10.438-.825-2.925-2.46-5.957-1.967-9.036-.281-3.68.805-7.22 1.014-9.914-2.335z"/><path d="M225.93 102.308c7.145-18.04 13.406-21.73 31.897-18.773 11.96 1.912 23.57 4.964 33.926 11.574 2.06 1.316 4.939 2.728 3.588 5.807-1.063 2.423-3.79 1.553-5.936 1.432-.634-.036-1.37-.363-1.882-.144-20.295 8.708-40.714-2.26-61.594.104zm19.274 42.042c15.673-12.523 22.822-12.633 37.942-.12 8.581 7.104 16.152 15.15 21.42 25.097 1.18 2.227 2.45 5.084.06 6.912-1.923 1.47-4.136-.29-5.899-1.702a3.999 3.999 0 0 0-1.591-1.005c-20.718-3.254-34.034-20.006-51.932-29.182zm-56.84-69.084c-2.666-15.952-.82-20.465 11.67-27.133 13.303-7.102 27.51-11.162 42.716-11.13 2.824.005 6.328-.138 6.864 3.417.477 3.157-3.423 3.042-5.087 4.638-12.267 11.764-27.043 18.385-43.3 22.603-4.362 1.132-8.093 4.7-12.863 7.605z" class="cls-4"/><path d="M239.876 190.43c22.078-2.452 26.846.624 33.548 20.188 3.3 9.635 5.514 19.43 5.15 29.683-.09 2.57-.348 5.455-3.35 5.992-2.735.488-3.37-2.308-4.26-4.245a40.874 40.874 0 0 0-13.043-15.962c-2.045-1.517-3.68-2.992-4.184-5.878-1.86-10.67-6.386-20.268-13.86-29.778z" class="cls-5"/><path d="M142.33 70.82c-9.035-11.826-9.537-15.423-2.353-27.43 7.906-13.213 18.31-24.11 31.787-31.844 2.495-1.432 5.53-3.196 7.727-.636 1.962 2.285-.822 4.544-2.022 6.65a3.86 3.86 0 0 0-.502.797c-3.764 14.536-13.177 25.044-24.068 34.727-5.198 4.622-7.334 11.564-10.57 17.736zm72.11 168.843c1.365-3.068-4.604-8.649 2.296-9.908 4.082-.745 16.064 10.097 15.967 14.472-.354 16.044-4.126 31.238-12.777 44.964-1.151 1.827-2.686 4.09-5.243 2.843-2.389-1.164-1.264-3.812-1.502-5.914-1.752-15.512-4.464-31.022 1.26-46.457z" class="cls-4"/><path d="M104.94 27.964c6.596 13.493-.861 25.254-4.076 37.495-1.478 5.626-1.587 11.26-1.523 16.98.022 2 1.325 4.624-1.463 5.765-2.376.972-4.159-.876-6.039-1.991-4.436-2.632-5.012-7.223-5.331-11.575-1.284-17.521 2.65-33.97 11.044-49.347 1.317-2.413 2.713-6.052 5.958-5.271 4.553 1.095 1.766 5.197 1.43 7.944zm65.771 219.081c11.783 13.571 12.018 18.389 1.581 31.523-7.13 8.974-15.33 16.788-25.521 22.299-2.26 1.222-4.923 2.763-6.97.812-2.413-2.298.56-4.375 1.372-6.59a90.183 90.183 0 0 1 21.912-33.34c3.818-3.774 5.601-9.064 7.626-14.704zM73.48 127.402c-10.133 3.315-15.543-.852-19.886-8.271A92.815 92.815 0 0 1 40.32 73.115c-.048-2.847-.107-6.331 3.2-7.106 3.21-.752 3.295 3.036 4.78 4.875 7.113 8.806 10.949 18.733 12.315 30.014 1.196 9.88 6.425 18.326 12.866 26.504zm51.987 114.321c1.483 18.384.883 19.652-14.068 25.974-11.46 4.845-23.385 7.882-35.967 7.556-2.574-.067-5.476-.384-6.115-3.265-.609-2.742 2.403-3.13 4.135-4.36 9.554-6.772 19.501-12.128 31.433-14.07 7.356-1.197 13.782-5.918 20.582-11.835zM68.84 172.986c-6.503 7.711-13.202 8.291-21.209 3.243-13.34-8.412-24.76-18.593-32.686-32.389-1.438-2.502-3.274-5.509-.74-7.737 2.262-1.987 4.454 1.013 6.684 1.93 9.226 3.791 16.37 9.863 22.555 17.758a50.792 50.792 0 0 0 25.397 17.195zm.856 56.548c-14.667-1.142-29.06-4.27-42.09-12.127-2.13-1.285-5.049-2.719-4.33-5.575.801-3.186 4.08-1.615 6.382-2.106 12.35-2.632 23.437 2.204 34.892 5.207 3.914 1.026 8.235.49 12.16 1.492 3.15.803 8.905-3.668 9.102 2.417a10.086 10.086 0 0 1-9.18 10.356c-2.19.27-4.42.224-6.936.336z" class="cls-5"/><path fill="#f7f7f7" d="M94.106 230.405c-.142 8.008-4.014 13.899-7.514 19.765-2.793 4.683-22.735 4.92-26.422.724-1.576-1.794-1.502-3.975.792-4.391 12.43-2.256 19.521-15.14 33.144-16.098z"/><path fill="#fbfbfb" d="M140.789 253.314c.358 1.535.544 2.47.794 3.386 4.682 17.13-1.96 27.43-19.41 30.061-1.86.28-3.992.716-5.161-1.089-.456-.704.013-2.65.727-3.37 8.608-8.667 10.69-22.438 23.05-28.988z"/><path d="M191.243 250.334c14.172 10.531 13.27 28.872-1.758 37.457-3.927 2.244-5.331.53-4.781-3.4.79-5.647.68-11.347 1.082-16.96.414-5.788 3.518-11.382 5.457-17.097z" class="cls-8"/><path fill="#f6f6f6" d="M233.845 221.427c16.292 2.634 24.079 19.89 15.473 33.056a4.495 4.495 0 0 1-2.855 1.996c-2.427.153-2.722-2.254-3.473-3.839-4.585-9.677-6.915-20.047-9.145-31.213z"/><path d="M65.438 188.257c-2.668 4.042-5.904 6.479-9.313 8.773-10.797 7.268-19.346 5.967-27.352-4.307-1.498-1.921-3.326-6.264.184-5.378 11.947 3.018 23.596-3.133 35.284.035.283.077.51.364 1.197.877zm190.876-12.818c15.277-4.984 26.98 3.124 28.134 18.926.106 1.446-.09 3.615-1.002 4.287-1.79 1.32-3.424-.4-4.96-1.508-8.428-6.08-14.78-14.185-22.172-21.705z" class="cls-8"/><path d="M63.197 135.085a28.14 28.14 0 0 1-15.863 4.914c-10.83.088-17.325-5.392-18.457-16.17-.337-3.207.821-7.002 4.286-3.866 7.722 6.989 16.917 10.417 26.394 13.63 1.24.421 2.428.991 3.64 1.492z" class="cls-10"/><path fill="#f4f4f4" d="M224.81 81.702c3.786-21.487 8.422-18.166 25.661-15.905 1.76.23 3.729 1.259 3.709 3.621-.016 1.914-1.798 2.412-3.13 3.131a22.532 22.532 0 0 1-2.7.848c-7.578 2.896-14.554 7.436-23.54 8.305z"/><path d="M253.304 124.325c10.176-11.93 24.813-10.747 32.141 1.955a4.79 4.79 0 0 1 .726 3.436c-.845 2.295-2.907 1.636-4.804 1.43-9.418-1.02-18.458-3.532-28.063-6.82z" class="cls-10"/><path d="M66.592 61.394c2.733.634 3.476 2.476 3.91 4.275 1.772 7.352 5.945 13.234 11.252 18.342 1.754 1.689 3.46 3.568 2.048 5.559-1.488 2.097-4.072.539-6.09-.106-14.41-4.607-18.16-10.7-14.493-23.272.635-2.179 1.415-4.099 3.373-4.798z" class="cls-12"/><path d="M178.4 59.42c-.907-3.066-1.688-5.16-2.14-7.324-2.488-11.926 3.963-20.258 16.114-20.896 2.92-.154 6.338 1.276 3.675 3.962-6.944 7.002-8.727 17.601-17.65 24.258z" class="cls-10"/><path d="M128.673 62.659c-6.325-3.615-8.56-8.185-11.61-12.087-3.259-4.169-3.167-7.899.172-11.805 2.955-3.457 5.176-10.31 9.719-8.697 4.5 1.598.15 7.716.436 11.84.45 6.456.804 12.917 1.283 20.749z" class="cls-12"/><path d="M165.627 139.707a24.087 24.087 0 0 1 11.64 3.203c4.243 2.458 8.122 5.508 7.968 10.87-.15 5.282-6.11 4.706-8.646 7.377-10.68 11.253-19.853 3.168-29.753-1.216-7.389-3.273-6.693-7.662-2.754-12.555 4.923-6.115 11.999-7.725 21.545-7.679z" class="cls-1"/><path fill="#fd5992" d="M147.692 182.984a19.664 19.664 0 0 0 10.75.261c2.867 3.594.49 7.277.141 10.906-.411 4.275.893 8.023 3.621 12.688-5.375-12.175-3.873-19.013 4.404-23.455a24.195 24.195 0 0 0 10.476 3.04c-2.976 4.04-5.075 8.558-2.204 13.207 4.8 7.77 1.799 12.358-5.31 15.962-7.787 3.947-15.291 2.462-20.23-4.437-6.436-8.992-5.053-18.548-1.648-28.172z"/><path fill="#191919" d="M197.877 127.354c-.999 3.372-2.874 3.573-5.059 1.864-3.366-2.632-5.524-2.53-7.813 1.653-1.629 2.975-5.107 3.603-8.289 1.606a9.117 9.117 0 0 1-4.163-9.827c.845-4.55 5.043-2.886 7.84-2.867a25.857 25.857 0 0 1 14.118 4.743 36.048 36.048 0 0 1 3.366 2.828z"/><path fill="#0b0b0b" d="M149.082 122.757c-.715 5.375-1.891 8.17-5.024 9.757-2.916 1.477-6.19 1.077-7.662-1.376-2.662-4.434-5.233-4.105-8.777-1.492-.864.638-2.31 1.175-3.313-.285-1.22-1.773-.2-3.12 1.09-3.97 5.91-3.897 12.306-6.141 19.556-5.57 3.408.268 4.341 1.998 4.13 2.936z"/><path fill="#d25c60" d="M166.608 183.384c-9.138 9.376-5.894 18.524 1.567 27.784-12.38-1.968-13.518-14.252-9.734-27.922 2.78-3.273 5.52-4.277 8.167.138z"/><path d="M89.815 341.137h22.832c13.332 0 21.396 7.903 21.396 19.319v.16c0 12.934-10.06 19.639-22.593 19.639h-9.34v16.765H89.814zm22.034 28.181c6.147 0 9.74-3.673 9.74-8.463v-.159c0-5.509-3.832-8.463-9.98-8.463h-9.5v17.085zm30.101 12.613V354.23h12.134v23.87c0 5.748 2.715 8.703 7.346 8.703 4.63 0 7.584-2.955 7.584-8.703v-23.87h12.134v42.791h-12.134v-6.067c-2.795 3.593-6.387 6.866-12.535 6.866-9.18 0-14.53-6.068-14.53-15.888zm50.616-43.19h12.135v58.28h-12.135zm23.791 0h12.774v10.778h-12.774zm.32 15.488h12.134v42.791h-12.134z"/></svg>