<svg xmlns="http://www.w3.org/2000/svg" role="img" viewBox="-8.52 -12.52 1119.04 465.04"><title>PyMEL logo</title><path d="M165.114 9.76c-4.586.408-8.052 4.383-10.6 12.23-4.586 13.963-15.287 32.819-27.62 48.514-23.034 29.353-63.903 72.057-95.09 99.372-14.066 12.332-19.671 21.403-18.55 29.862a9.932 9.932 0 0 0 3.77 7.135c2.65 2.446 3.976 2.854 9.581 2.854a105.597 105.597 0 0 0 16.002-1.937c16.918-3.465 28.13-4.28 72.26-5.198 58.706-1.223 73.179-3.465 96.213-14.778 17.122-8.358 26.703-16.104 55.444-45.253 20.18-20.282 25.684-25.378 25.072-23.033-.407 1.732-2.548 8.56-4.79 15.288-3.567 10.905-4.077 13.657-4.586 24.664-.51 15.186 1.223 24.359 7.032 35.876 8.358 16.715 21.811 23.747 40.768 21.403 14.167-1.733 26.601-8.969 39.545-23.034 4.077-4.382 13.861-17.632 21.81-29.353 25.888-38.73 29.863-43.417 35.877-41.889 4.994 1.223 5.91 5.3 6.726 29.15.816 23.237 1.835 29.454 6.523 38.83 12.74 25.073 37.609 24.36 70.834-2.242 11.517-9.274 20.486-18.549 37.609-38.831 7.032-8.357 12.842-14.982 12.944-14.778.203.204-1.02 4.79-2.65 10.294-8.154 26.906-8.052 41.277 0 52.488 4.79 6.625 11.415 10.294 18.345 10.294 8.663 0 16.307-4.28 27.315-15.084 9.478-9.377 13.351-14.37 36.283-46.577 19.976-28.13 29.251-36.284 34.449-30.372 3.363 3.873 4.077 7.134 4.994 21.607 1.733 28.74 4.688 41.685 11.72 51.163 7.237 9.887 21.2 16.104 32.717 14.677 8.663-1.02 18.651-6.625 25.072-14.065 7.44-8.46 10.906-14.167 22.219-36.386 7.44-14.472 10.803-19.976 14.88-24.155 4.077-4.28 5.911-5.401 8.46-5.401 6.624 0 10.191 7.746 10.191 22.218 0 9.071 2.548 24.155 5.3 31.493 3.058 8.358 14.167 19.467 22.728 22.729 7.542 2.853 19.67 3.77 27.213 2.038 15.9-3.771 27.62-13.352 49.023-39.953 18.753-23.441 26.397-31.289 34.857-35.977 10.294-5.81 14.88-4.587 21.403 5.707 2.242 3.567 7.338 11.415 11.313 17.428l7.338 11.008h-6.115c-7.848 0-26.703 2.752-30.984 4.586-4.484 1.835-6.828 5.81-6.828 11.313s2.446 9.275 7.746 11.925c3.567 1.733 4.178 1.834 11.516.306 4.995-1.02 13.046-1.631 22.729-1.631 17.224 0 23.645 1.325 40.665 8.052 22.729 9.07 35.774 11.007 50.145 7.338 7.134-1.733 9.275-2.752 12.026-5.708 3.771-4.076 4.077-7.236 1.325-13.453-3.057-6.523-5.3-7.44-20.18-8.46-36.181-2.445-53.304-14.37-75.828-52.488-10.294-17.632-21.709-25.99-35.468-25.99-19.263 0-37.405 13.352-62.68 46.272-14.065 18.346-23.136 27.62-30.78 31.493-13.148 6.727-22.423 3.873-26.907-8.153-1.223-3.16-2.752-11.62-3.67-19.569-2.65-23.747-5.707-32.92-13.453-40.666-6.217-6.217-10.497-7.848-21.097-7.848-8.052 0-9.886.306-14.88 2.956-13.25 6.625-20.996 16.51-35.06 44.335-13.046 25.684-18.856 32.716-26.806 32.716-3.77 0-8.867-5.402-10.293-10.905-1.631-6.014-2.956-16.104-3.67-27.824-1.732-28.028-7.236-41.991-18.855-47.8-4.994-2.549-8.561-3.262-16.001-3.262-15.696 0-26.193 9.58-58.91 53.61-22.014 29.658-22.32 30.066-27.824 35.57-4.79 4.586-5.096 4.79-5.81 2.751-1.12-3.465.409-11.516 4.69-25.072 9.681-31.187 9.885-48.208.61-54.934-4.28-3.16-14.676-2.854-22.116.51-6.42 2.955-14.778 10.293-21.403 18.752-24.053 30.678-49.635 55.547-64.617 62.885-3.67 1.732-5.3 2.038-7.338 1.223-7.033-2.446-9.58-11.313-9.58-33.532 0-18.55-1.53-27.416-5.81-35.366-6.523-12.026-15.084-17.53-27.315-17.632-14.982 0-26.703 9.479-43.825 35.672-26.5 40.666-43.01 57.89-56.973 59.317-9.887 1.02-19.161-10.905-19.161-24.868 0-8.663 1.019-12.434 7.44-29.455 7.236-19.365 8.051-22.422 8.051-32.003 0-9.988-1.936-14.472-8.459-19.772-3.16-2.548-4.994-3.16-10.396-3.466-11.007-.713-12.23.204-48.921 37.1-26.092 26.193-34.449 33.837-41.583 38.525-12.027 7.848-21.607 12.128-34.347 15.288-14.779 3.567-29.863 4.688-68.287 4.79-18.243 0-36.487.408-40.462.815-4.076.408-7.44.51-7.44.306 0-.306 6.93-7.134 15.492-15.39 35.774-34.449 63.802-66.35 80.924-92.033 12.74-19.06 22.83-41.176 22.83-49.839 0-7.338-6.93-12.23-16.001-11.313zm207.012 346.882q-9.034 7.538-25.803 7.538H324.9v36.996h-21.36v-102.89h44.178q15.277 0 24.36 7.958 9.083 7.957 9.083 24.64 0 18.219-9.035 25.758zm-16.41-37.066q-4.082-3.419-11.442-3.42H324.9v30.294h19.374q7.36 0 11.443-3.699 4.083-3.699 4.084-11.728 0-8.025-4.084-11.447zm44.082 96.189l2.514.14a31.404 31.404 0 0 0 5.584-.21 10.034 10.034 0 0 0 4.467-1.606q1.744-1.188 3.246-4.956 1.5-3.77 1.292-4.607l-27.957-79.435h22.128l16.613 56.12 15.705-56.12h21.15l-26.084 74.828q-7.561 21.637-11.963 26.839-4.403 5.2-17.61 5.2-2.656 0-4.263-.034-1.608-.037-4.822-.244zm146.363-117.479h30.936v102.89h-20.034v-69.594q0-3 .07-8.411.07-5.408.07-8.341l-19.498 86.346H516.81l-19.358-86.346q0 2.931.07 8.34.068 5.412.07 8.412v69.594h-20.034v-102.89h31.285l18.729 80.902zm126.915 18.219H618.63v21.849h49.978v17.869H618.63v26.455h56.959v18.498h-77.97v-102.89h75.457zm19.264-18.219h21.5v84.392h51.375v18.498H692.34z"/></svg>