<svg xmlns="http://www.w3.org/2000/svg" role="img" viewBox="47.90 530.90 1097.20 246.20"><title>PyMEL logo</title><path d="M218.3 552.8c-4.5.4-7.9 4.3-10.4 12-4.5 13.7-15 32.2-27.1 47.6-22.6 28.8-62.7 70.7-93.3 97.5-13.8 12.1-19.3 21-18.2 29.3.4 3.1 1.4 5.1 3.7 7 2.6 2.4 3.9 2.8 9.4 2.8 3.5 0 10.6-.9 15.7-1.9 16.6-3.4 27.6-4.2 70.9-5.1 57.6-1.2 71.8-3.4 94.4-14.5 16.8-8.2 26.2-15.8 54.4-44.4 19.8-19.9 25.2-24.9 24.6-22.6-.4 1.7-2.5 8.4-4.7 15-3.5 10.7-4 13.4-4.5 24.2-.5 14.9 1.2 23.9 6.9 35.2 8.2 16.4 21.4 23.3 40 21 13.9-1.7 26.1-8.8 38.8-22.6 4-4.3 13.6-17.3 21.4-28.8 25.4-38 29.3-42.6 35.2-41.1 4.9 1.2 5.8 5.2 6.6 28.6.8 22.8 1.8 28.9 6.4 38.1 12.5 24.6 36.9 23.9 69.5-2.2 11.3-9.1 20.1-18.2 36.9-38.1 6.9-8.2 12.6-14.7 12.7-14.5.2.2-1 4.7-2.6 10.1-8 26.4-7.9 40.5 0 51.5 4.7 6.5 11.2 10.1 18 10.1 8.5 0 16-4.2 26.8-14.8 9.3-9.2 13.1-14.1 35.6-45.7 19.6-27.6 28.7-35.6 33.8-29.8 3.3 3.8 4 7 4.9 21.2 1.7 28.2 4.6 40.9 11.5 50.2 7.1 9.7 20.8 15.8 32.1 14.4 8.5-1 18.3-6.5 24.6-13.8 7.3-8.3 10.7-13.9 21.8-35.7 7.3-14.2 10.6-19.6 14.6-23.7 4-4.2 5.8-5.3 8.3-5.3 6.5 0 10 7.6 10 21.8 0 8.9 2.5 23.7 5.2 30.9 3 8.2 13.9 19.1 22.3 22.3 7.4 2.8 19.3 3.7 26.7 2 15.6-3.7 27.1-13.1 48.1-39.2 18.4-23 25.9-30.7 34.2-35.3 10.1-5.7 14.6-4.5 21 5.6 2.2 3.5 7.2 11.2 11.1 17.1l7.2 10.8h-6c-7.7 0-26.2 2.7-30.4 4.5-4.4 1.8-6.7 5.7-6.7 11.1 0 5.4 2.4 9.1 7.6 11.7 3.5 1.7 4.1 1.8 11.3.3 4.9-1 12.8-1.6 22.3-1.6 16.9 0 23.2 1.3 39.9 7.9 22.3 8.9 35.1 10.8 49.2 7.2 7-1.7 9.1-2.7 11.8-5.6 3.7-4 4-7.1 1.3-13.2-3-6.4-5.2-7.3-19.8-8.3-35.5-2.4-52.3-14.1-74.4-51.5-10.1-17.3-21.3-25.5-34.8-25.5-18.9 0-36.7 13.1-61.5 45.4-13.8 18-22.7 27.1-30.2 30.9-12.9 6.6-22 3.8-26.4-8-1.2-3.1-2.7-11.4-3.6-19.2-2.6-23.3-5.6-32.3-13.2-39.9-6.1-6.1-10.3-7.7-20.7-7.7-7.9 0-9.7.3-14.6 2.9-13 6.5-20.6 16.2-34.4 43.5-12.8 25.2-18.5 32.1-26.3 32.1-3.7 0-8.7-5.3-10.1-10.7-1.6-5.9-2.9-15.8-3.6-27.3-1.7-27.5-7.1-41.2-18.5-46.9-4.9-2.5-8.4-3.2-15.7-3.2-15.4 0-25.7 9.4-57.8 52.6-21.6 29.1-21.9 29.5-27.3 34.9-4.7 4.5-5 4.7-5.7 2.7-1.1-3.4.4-11.3 4.6-24.6 9.5-30.6 9.7-47.3.6-53.9-4.2-3.1-14.4-2.8-21.7.5-6.3 2.9-14.5 10.1-21 18.4-23.6 30.1-48.7 54.5-63.4 61.7-3.6 1.7-5.2 2-7.2 1.2-6.9-2.4-9.4-11.1-9.4-32.9 0-18.2-1.5-26.9-5.7-34.7-6.4-11.8-14.8-17.2-26.8-17.3-14.7 0-26.2 9.3-43 35-26 39.9-42.2 56.8-55.9 58.2-9.7 1-18.8-10.7-18.8-24.4 0-8.5 1-12.2 7.3-28.9 7.1-19 7.9-22 7.9-31.4 0-9.8-1.9-14.2-8.3-19.4-3.1-2.5-4.9-3.1-10.2-3.4-10.8-.7-12 .2-48 36.4-25.6 25.7-33.8 33.2-40.8 37.8-11.8 7.7-21.2 11.9-33.7 15-14.5 3.5-29.3 4.6-67 4.7-17.9 0-35.8.4-39.7.8-4 .4-7.3.5-7.3.3 0-.3 6.8-7 15.2-15.1 35.1-33.8 62.6-65.1 79.4-90.3 12.5-18.7 22.4-40.4 22.4-48.9 0-7.2-6.8-12-15.7-11.1z"/></svg>