<svg xmlns="http://www.w3.org/2000/svg" role="img" viewBox="-6.36 17.64 521.22 564.72"><title>pyString logo</title><path d="M93.84 388.652a54.798 54.798 0 0 1-14.229-37.007c.003-10.94.339-32.176.54-56.902a94.13 94.13 0 0 1-7.173 11.402c-12.528 16.902-28.109 25.376-42.174 25.478a26.896 26.896 0 0 1-14.784-4.115c-7.995-5.482-11.212-14.985-11.313-25.456.005-11.689 4.46-25.283 14.985-37.642 7.99-9.336 18.755-17.403 28.812-24.854 10.03-7.355 19.436-14.243 23.868-19.336.807-.911 1.708-1.957 2.69-3.126a166.614 166.614 0 0 0-2.69-3.124c-4.432-5.096-13.839-11.984-23.868-19.338-10.051-7.448-20.822-15.52-28.812-24.856-10.53-12.364-14.98-25.962-14.985-37.647.102-10.476 3.318-19.975 11.309-25.445a26.807 26.807 0 0 1 14.788-4.124c14.065.1 29.646 8.573 42.174 25.475a94.345 94.345 0 0 1 7.174 11.404c-.2-24.726-.536-45.955-.536-56.893a54.748 54.748 0 0 1 14.223-37.005c9.249-10.121 23.068-16.783 39.54-16.735h.001l230.074.666A54.788 54.788 0 0 1 400.459 43.7c10.12 9.249 16.78 23.067 16.734 39.516V351.64c.046 16.444-6.614 30.262-16.734 39.514a54.79 54.79 0 0 1-37.005 14.23H133.196c-16.377 0-30.139-6.653-39.357-16.733zm2.697-127.166c0 37.991-.684 74.86-.684 90.159a38.578 38.578 0 0 0 9.936 26.008c6.412 6.894 15.406 11.445 27.567 11.489l230.098.006a38.588 38.588 0 0 0 26.011-9.943c6.893-6.41 11.444-15.4 11.488-27.564V83.216c-.044-12.163-4.595-21.156-11.488-27.566a38.574 38.574 0 0 0-26.036-9.937l-230.073-.669c-12.161.044-21.155 4.595-27.567 11.493a38.572 38.572 0 0 0-9.936 26.01c0 15.293.684 52.16.684 90.153 0 5.75-.016 11.528-.052 17.264a2872.744 2872.744 0 0 0 19.252-25.481c16.305-21.805 30.363-41.062 30.392-41.1l13.116 9.574c-.009.015-14.137 19.364-30.503 41.252-11.086 14.815-23.096 30.684-32.607 42.685l-.005.243.002.154c9.512 12.005 21.524 27.873 32.61 42.687a5014.079 5014.079 0 0 1 30.503 41.255l-13.116 9.576c-.03-.045-14.087-19.301-30.392-41.106a2879.89 2879.89 0 0 0-19.252-25.483c.036 5.736.052 11.515.052 17.266zm-38.39-8.868c-9.912 7.292-19.892 14.995-26.096 22.322-8.158 9.575-11.113 19.54-11.108 27.112-.1 6.925 2.718 11.32 3.946 11.855a10.751 10.751 0 0 0 5.915 1.475c7.134.104 18.982-5.058 29.102-18.874 9.23-12.507 17.153-32.025 19.26-60.196-6.056 5.453-13.492 10.715-21.019 16.306zm-27.343-133.82a10.747 10.747 0 0 0-5.91 1.478c-1.23.54-4.051 4.932-3.95 11.853-.006 7.572 2.943 17.538 11.107 27.119 6.204 7.326 16.184 15.028 26.096 22.32 7.527 5.587 14.963 10.853 21.018 16.307-2.106-28.176-10.03-47.694-19.259-60.202-10.024-13.682-21.742-18.878-28.896-18.878l-.206.002z"/><path d="M180.666 167.74c0-21.18-.859-33.487-1.143-43.219h19.748l1.145 17.746h.573c7.44-14.883 18.318-20.036 29.194-20.036 24.042 0 40.071 25.76 40.071 71.27 0 51.234-21.18 71.841-42.934 71.841-12.879 0-20.32-8.3-24.042-16.027h-.573v68.693h-22.04zm22.039 44.366c0 4.292 0 8.3.858 11.447 4.296 19.749 14.313 23.472 20.323 23.472 18.319 0 24.043-25.19 24.043-53.237 0-28.623-6.869-52.666-24.328-52.666-10.018 0-18.892 12.594-20.323 25.189a63.89 63.89 0 0 0-.573 10.589zm92.379-87.585l18.316 79.57c2.578 10.875 4.01 20.036 5.725 28.623h.573c1.431-7.73 3.72-18.32 6.01-28.337l16.315-79.856h21.754l-22.612 89.015c-8.586 34.918-18.033 68.405-34.347 89.3-9.734 12.308-20.035 18.891-24.903 21.183l-8.012-18.894c6.295-3.434 13.164-9.443 19.462-17.456a84.876 84.876 0 0 0 12.597-23.184c1.143-3.435 1.428-4.867 1.428-6.869a15.85 15.85 0 0 0-.572-5.152l-34.92-127.943zm151.593 70.573c-8.016 0-14.029-6.583-14.029-16.027 0-9.445 6.3-16.314 14.313-16.314 8.874 0 14.313 6.582 14.313 16.314 0 9.444-5.153 16.027-14.313 16.027zm0 81.846c-8.016 0-14.029-6.584-14.029-16.027 0-9.446 6.3-16.602 14.313-16.602 8.874 0 14.313 6.87 14.313 16.602 0 9.443-5.153 16.028-14.313 16.028zm42.836-81.846c-8.012 0-14.025-6.583-14.025-16.027 0-9.445 6.298-16.314 14.315-16.314 8.87 0 14.306 6.582 14.306 16.314 0 9.444-5.15 16.027-14.306 16.027zm0 81.846c-8.012 0-14.025-6.584-14.025-16.027 0-9.446 6.298-16.602 14.315-16.602 8.87 0 14.306 6.87 14.306 16.602 0 9.443-5.15 16.028-14.306 16.028zM124.854 513.01q5.54 5.855 5.54 17.196 0 11.963-5.414 18.235a17.575 17.575 0 0 1-13.943 6.273 14.624 14.624 0 0 1-9.031-2.7 17.496 17.496 0 0 1-3.846-4.361v23.593H86.446v-63.097h11.34v6.687a19.04 19.04 0 0 1 4.097-4.653 15.117 15.117 0 0 1 9.448-3.03 17.9 17.9 0 0 1 13.523 5.856zm-9.086 8.514q-2.412-4.029-7.825-4.03a8.903 8.903 0 0 0-8.94 6.106 22.942 22.942 0 0 0-1.258 8.226q0 7.892 4.234 11.09a9.723 9.723 0 0 0 5.96 1.87 8.663 8.663 0 0 0 7.619-3.823q2.624-3.819 2.624-10.176a17.682 17.682 0 0 0-2.414-9.263zm24.762 40.584l1.495.082a18.67 18.67 0 0 0 3.323-.124 5.978 5.978 0 0 0 2.659-.956 6.398 6.398 0 0 0 1.932-2.95 7.107 7.107 0 0 0 .769-2.741l-16.637-47.27h13.167l9.887 33.397 9.346-33.397h12.586l-15.523 44.53q-4.499 12.874-7.118 15.97-2.621 3.095-10.48 3.096-1.58 0-2.537-.022-.957-.021-2.87-.146zm55.703-27.583a12.418 12.418 0 0 0 2.334 6.273q3.18 3.78 10.9 3.78a23.44 23.44 0 0 0 7.506-.997q5.472-1.91 5.472-7.103a5.237 5.237 0 0 0-2.68-4.694 29.067 29.067 0 0 0-8.501-2.866l-6.629-1.454q-9.774-2.16-13.428-4.694-6.19-4.236-6.19-13.251a17.597 17.597 0 0 1 6.056-13.667q6.055-5.44 17.787-5.442a27.282 27.282 0 0 1 16.715 5.13q6.918 5.131 7.255 14.893h-12.296a8.769 8.769 0 0 0-4.94-7.852 16.924 16.924 0 0 0-7.622-1.535 14.51 14.51 0 0 0-8.092 1.993 6.31 6.31 0 0 0-3.024 5.567 5.252 5.252 0 0 0 2.982 4.9q1.915 1.082 8.134 2.534l10.745 2.534q7.064 1.663 10.59 4.445 5.474 4.32 5.475 12.503a17.566 17.566 0 0 1-6.487 13.936q-6.488 5.547-18.327 5.545-12.09 0-19.02-5.461-6.928-5.46-6.927-15.017zm41.914-17.528v-8.433h6.314v-12.628h11.713v12.628h7.353v8.433h-7.353v23.926q0 2.783.706 3.469.706.683 4.32.685c.36 0 .741-.006 1.143-.022a28.22 28.22 0 0 0 1.184-.062v8.848l-5.608.208q-8.392.29-11.464-2.908-1.995-2.034-1.994-6.272v-27.872zm58.133-9.909c.152.014.492.036 1.018.064v12.13q-1.122-.127-1.994-.167-.873-.041-1.413-.041-7.144 0-9.595 4.652-1.37 2.615-1.37 8.058v21.642h-11.922v-45.277h11.298v7.891a25.004 25.004 0 0 1 4.777-6.188 13.006 13.006 0 0 1 8.64-2.784c.222 0 .409.006.562.02zm20.125-4.338h-12.004v-10.926h12.004zm-12.004 5.399h12.004v45.277h-12.004zm59.979 2.596q4.447 3.675 4.448 12.19v30.49h-12.13v-27.54a12.657 12.657 0 0 0-.948-5.484q-1.732-3.49-6.597-3.488-5.98 0-8.206 5.11a17.658 17.658 0 0 0-1.155 6.895v24.508h-11.838V508.23h11.464v6.605a20.05 20.05 0 0 1 4.302-5.026 14.909 14.909 0 0 1 9.225-2.742q6.99 0 11.436 3.677zm37.855-2.638a14.213 14.213 0 0 1 6.969 6.563v-6.521h11.547v42.95q0 8.765-2.949 13.21-5.068 7.644-19.44 7.644-8.683 0-14.164-3.407a12.566 12.566 0 0 1-6.065-10.178h12.877a5.334 5.334 0 0 0 1.62 2.991q1.91 1.62 6.438 1.62 6.397 0 8.557-4.278 1.412-2.74 1.413-9.221v-2.908a14.439 14.439 0 0 1-3.655 4.362 14.694 14.694 0 0 1-9.181 2.7q-8.722 0-13.936-6.127-5.214-6.128-5.213-16.596 0-10.094 5.02-16.967 5.02-6.875 14.229-6.876a15.547 15.547 0 0 1 5.933 1.039zm4.031 32.463q2.855-3.136 2.855-9.99 0-6.44-2.71-9.803a8.836 8.836 0 0 0-7.259-3.365 8.553 8.553 0 0 0-8.562 5.857 20.84 20.84 0 0 0-1.241 7.684 17.597 17.597 0 0 0 1.323 7.021 8.629 8.629 0 0 0 8.604 5.731 9.09 9.09 0 0 0 6.99-3.135z"/></svg>