<svg xmlns="http://www.w3.org/2000/svg" role="img" viewBox="0.32 38.32 321.36 246.11"><title>pyString logo</title><path fill="#FCFCFC" stroke="#FCFCFC" d="M87.5 40l-1 2-1.5-.5 2.5-1.5zm-13 1l2.5 1.5-2.5 1.5v-3zm50 0l1.5.5-3.5 1.5v-1l2-1zm-41 2l1 2-1-2zm152 2l3.5 1.5-1.5.5-2-2zm5 1l1 2-1-2zm14 2l1 2-1.5-.5 2 4-2 1v-2l-.5-1.5q-1.7 2.8-3.5-1.5l2.5-.5 2-1zm-188 1l1 2-2.5-.5 1.5-1.5zm-7 1l-1 2 1-2zm3 0l2 3-3.5-1.5 1.5-1.5zm186 1l2.5 1.5-1.5.5-1-2zm-189 2l1.5 1.5q-3.5 1.5-1 3 .8 2.3-1.5 1.5l-2.5-.5.5-2.5q1.3 2.3 2.5-.5-2.2-1.2.5-2.5zm37 3h65l1.5 1.5-1.5-.5h-65v-1zm158 0l3 2 1.5-.5-1 2q2.3 1.3-.5 2.5l-.5-2.5-.5-1.5-1.5.5-.5-2.5zm-176 1l2.5.5-2.5.5v-1zm155 0l2.5 1.5-1.5-.5-1-1zm28 0l.5 2.5h-1l.5-2.5zm-185 1l1 2-1-2zm4 1l1.5.5-2.5 1.5 1-2zm-24 1q2.8 1.3.5 2.5l-.5 1.5-.5-1.5.5-2.5zm19 0l2 3-2.5-1.5 1 2h-3l2.5-3.5zm167 2l2.5 1.5-2.5 1.5q-3-1.5 0-3zm-190 2l3.5 1.5h-2l-.5 1.5-1-3zm209 0l1 2-1-2zm-17 1l-2 3 2-3zm15 0l2.5 4.5h-1l-1.5-4.5zm-188 1l-2 3-1-2q1.5 2.5 3-1zm175 1l2.5 1.5-1.5.5-1-2zm-192 1l-1 2-1.5-.5 2.5-1.5zm190 0l1 2-1-2zm-196 2l1 2-1-2zm19 0l4.5.5-1 2 .5 1.5-2-3-4.5 1.5q-.7-2.2 1.5-1.5l1-1zm173 0l2.5.5q-2.1 3.3-2.5-.5zm10 5l.5 1.5-1.5 2.5-.5-1.5 1.5-2.5zM9.5 88l2.5 1-1.5 3-1.5-.5 2-1L9.5 88zm6 0l2.5.5q-2.1 3.3-2.5-.5zm4 1l1 2-1-2zm18 2l.5 2.5-.5 1.5-1.5-2.5 1.5-1.5zm9 5l-1 2 1-2zm18 0l1 2-1-2zm30 0l1.5 2.5-1.5 2.5-.5-1.5 1-2-.5-1.5zm-2 2l-.5 1.5 1 2-2.5.5-1.5-1.5.5-1.5 1 2 2-3zm-46 1l1 2-2.5-.5 1.5-1.5zm102 1l.5 2 2 .5-8.5.5 1-2 4.5 1 .5-2zm3 0q4-.5 4.5 2.5l-.5 2.5-2-4q-3 .5-2-1zm-144 2l.5 2-2-.5 1.5-1.5zm13 0l.5 2.5.5 1.5 1.5-.5-.5 2.5-3.5-4.5 1.5-1.5zm7 0l1 2-1-2zm67 0l1 2q-1.2-2.2-2.5.5.8 2.6-2.5 1.5-1.2 2.3-2.5-.5h2l.5-1.5 1 1 3-3zm58 0l1 2-1-2zm5 2l5 6 1.5.5-1.5.5q-4.9-2.7-5-7zm8 0l1.5 1.5q-3.1 1.7-1.5 3.5l-1.5-1.5q3.1-1.7 1.5-3.5zm6 0l.5 2-2-.5 1.5-1.5zm43 0l-.5 1.5-1 2 1 2h-2l1 2-2-1q.3-4.7 3.5-6.5zm-165 1l1 2-1-2zm49 0l1 2-1-2zm30 0l3.5 1.5h-2l1 2-1.5 3.5q-3 .9-1.5-3.5l1-2-.5-1.5zm7 0l-1 2 1-2zm28 0l-.5 1.5-.5 1.5-.5-1.5 1.5-1.5zm24 0l2.5 3.5-1.5 2.5-.5-1.5q2.5-1.5-1-3l.5-1.5zm-19 1l-1 2 1-2zm-135 1l-1 2 1-2zm69 0l1 2-1-2zm11 0l1.5 2.5-2-1 .5-1.5zm58 0l1.5 2.5-2-1 .5-1.5zm-151 1q4.5 2 1 4l-2-1-.5 1.5.5 1.5-1.5-2.5q1.2-2.7 2.5-.5l1.5-.5-1.5-2.5zm68 0l1 2-1-2zm-83 1l1 2-1-2zm30 0l1.5.5-2.5 1.5 1-2zm194 0l.5 1.5-3 2 2.5-3.5zm-191 1l-1 2 1-2zm193 1l-2 3 2-3zm-191 1l1 2-1-2zm45 0l1 2-1-2zm16 0l1 2-1-2zm64 0l.5 2-2-.5 1.5-1.5zm7 0q2.3-.7 1.5 1.5l-1.5-1.5zm-4 1l1.5.5-3 2-.5 2.5-1.5-2.5 3.5-2.5zm-87 1l2 1 1.5-.5-3 2-.5-1.5-1.5.5 1.5-1.5zm19 0l1 3 1.5.5-2 1 .5 1.5-1.5-1.5.5-4.5zm90 0l-1 2 1-2zm37 0l-.5 1.5-.5 1.5-.5-1.5 1.5-1.5zm-222 1l2.5.5-2.5.5v-1zm136 0q4-.5 4.5 2.5l-2.5-1.5q-3 .5-2-1zm-120 1l.5 1.5v2l1 2-2-1-1-2 1.5-2.5zm117 0q3.5 2-1 4l-.5-2.5 1.5-1.5zm73 0v3q-2.2.8-1.5-1.5l1.5-1.5zm-63 1l1 2-1-2zm42 1l1 2q-2.8.7-1-2zm-148 1l1 2 2-1-1 2-2-1-2 1v-1q2.5.7 2-2zm54 0l-.5 1.5-.5 1.5-.5-1.5 1.5-1.5zm-22 1l-.5 1.5.5 1.5 4-2 1.5.5-3 2 2 1-4.5 1.5v-1l2.5-.5-4-2 1.5-2.5zm74 0l3.5 1.5-.5 1.5 1.5.5-1.5.5-3-4zm62 0l-1 2 1-2zm-185 2l2.5 1.5-2 1 .5-1.5-3 1v-1l2-1zm21 0l1 4q-4.5-2-1-4zm101 0l.5 2 2 .5-1.5.5-1-3zm24 0l-1 2 1-2zm-78 1l1.5.5-2.5 1.5 1-2zm38.5 0l2 .5-1 1 1.5 2.5-2.5-4zm40.5 1l-.5 1.5-.5 1.5-.5-1.5 1.5-1.5zm-131 1l.5 1.5q-4.2 2.2-2.5 4.5-3.8-2.3 1.5-4.5l.5-1.5zm110.5 0l2 .5q-2.5 1.5 1 3l-.5 1.5-1-2-1.5.5V125zm-140.5 1l1 2q-1.5-2.5-3 1L8 127.5q1.8 1.6 3.5-1.5zm80 0v3q-3-1.5 0-3zm40 0l1 2-1-2zm-58 1l1 2 1.5-.5q-1.5 3-3 0l.5-1.5zm100 0l-3 4 3-4zm3 0l1 2-2.5-.5 1.5-1.5zm-165 2q1.8 3.1 3.5 1.5l-1.5 2.5-1-2-.5 2.5.5 1.5-2.5-.5 2-4-.5-1.5zm120.5 0l2 .5-2 1V129zm136 0l2 .5-2 1V129zm44.5 0l1 2-1-2zm-303 1l.5 1.5-2 1 1.5-2.5zm27 0l-2 3-2.5-.5 4.5-2.5zm35 0l1.5.5-2 .5.5 2 1.5-.5q-2 4.5-4 1l2.5-3.5zm19 0l-1 2 1-2zm88 0l.5 2.5h-1l.5-2.5zm119 0q2.3-.7 1.5 1.5l-1 2.5-2-.5q3.1-1.7 1.5-3.5zm-248 1l.5 1.5-2 1 1.5-2.5zm123 0l.5 1.5-2 1 1.5-2.5zm98 0l1 2q-1.2-2.2-2.5.5l.5 1.5 1.5-.5q.8 2.3-1.5 1.5l-2.5-1.5 3.5-3.5zm45 0l-1 2 1-2zm-278 1l1 2-1-2z"/><path fill="#FCFCFC" stroke="#FCFCFC" d="M15.5 133v3q-3-1.5 0-3zm164 1l-1 2 1-2zm-113 1q1.8 3.1 3.5 1.5-2 4.5-4 1l.5-2.5zm18 0l2 3 1.5-.5-.5 2.5-3.5-2.5.5-2.5zm88 0l.5 1.5-1 5h1l.5-3.5.5 3.5q-1.5 3-3 0-.7-4.7 1.5-6.5zm144 0l2.5 1.5-1.5-.5-1-1zm-270 1l1 2-1-2zm153 0l1 2-1-2zm68 0l1 2-1-2zm-247 1l-1 2 1-2zm24 0q3.5 2-1 4l1-4zm152 0l.5 1.5-1.5 3.5-.5-2.5 1.5-2.5zm120 0l2.5 3.5-2-1-.5-2.5zm-118 1l1 2-1-2zm21.5 0q2.7-1.1 2 1.5l-2 1V138zm-138.5 1q1.7 3.1 3.5 1.5l-1.5 2.5-1-2-1 3-1.5-1.5q3.1-1.7 1.5-3.5zm-35 1l1.5.5-2 .5-.5 2-.5-1.5 1.5-1.5zm109 0l1.5 2.5h-1l-.5-2.5zm109 0l1 2-1-2zm5 0q2.3-.7 1.5 1.5l-1.5-1.5zm-253 1l1 2-1-2zm6 0l-1 2 1-2zm157 0l2.5.5v2l1 3h-1l-1-3.5-3.5 1v-1q2.5.7 2-2zm-101 2l-1 2 1-2zm96 0l-1 2 1-2zm22 0l1 2-1-2zm-145 1l1.5 2.5h-1l-.5-2.5zm247 0l-2 3 2-3zm18 0l2 3q-1.7-3.1-3.5-1.5l1.5-1.5zm-291 1h2l1.5.5-2 .5-1 2.5.5 1.5q-2.2.8-1.5-1.5l1-2-.5-1.5zm288 0l-1 2 1-2zm-235 1l-1 2 1-2zm-3 1l-1 2 1-2zm145 0l2 3-2.5-1.5-.5 1.5-.5-1.5 1.5-1.5zm64 0l1.5 2.5-3.5 2.5-2-1q-1.2 2.3-2.5-.5l.5-1.5-2.5-.5 5.5-.5 3 2-.5-1.5.5-1.5zm32 0l2 3-2-3zm-237 1l-1 2 1-2zm224 0l5.5.5q-1.2 2.8-2.5.5-4 .8-3-1zm9 0l2.5.5-3 2 .5-2.5zm-283 1l1.5 2.5-2-1 .5-1.5zm47 0l-1 2 1-2zm223 0l1 2-1-2zm-82 1l1.5 1.5-.5 2.5-1.5-1.5.5-2.5zm85 0l1 2-1-2zm14 0l1 2-1-2zm-244 1l-1 2 1-2zm99 0l1.5 3.5-1.5 2.5v-6zm12 0l1 2-1-2zm-27 1l-1 2 1-2zm-3 1l-1 2 1-2zm-111 1l.5 2-2.5 1 2-3zm161 0l.5 3.5h-1l.5-3.5zm13 0l1 2q-2.8.7-1-2zm-147 1l1 2-2.5-.5 1.5-1.5zm114.5 1l2 .5-.5 2.5-1.5-3zm-141.5 1l-2 3 2-3zm5 1l1 2-1-2zm107 0l1.5.5-2 1 1.5 2.5q-4.5-2-1-4zm67 0l1.5.5-2.5 1.5 1-2zm-178 1l-1 2 1-2zm2 0l2.5 3.5-3 2 .5 1.5-2-3h2l1.5-.5-3-1 2-1-.5-1.5zm22 0l1 2-1-2zm-2 1l1.5 3-2-.5.5-2.5zm-25 1l1 2-1-2zm162 0l.5 1.5-3 2 2.5-3.5zm-49 2l1.5 2.5-2-1 .5-1.5zm-111 2q2.8 1.3.5 2.5l-.5 1.5-1-2-1.5.5 2.5-2.5zm26 1l2.5 1.5-1.5.5-1-2zm116 0l1 2-1-2zm29 0l.5 2.5h-1l.5-2.5zm-180 2l2.5.5q-2.1 3.3-2.5-.5zm39 0l2.5 2.5-1 1 1.5 2.5-3.5-2.5 2-1-1.5-2.5zm3 0l1 2-1-2zm3 0l1 2-1-2zm-41 1l2.5 1.5-2 1 .5-1.5-3 2 2-3zm96 0q2.8 1.3.5 2.5l-.5 1.5-1.5-2.5 1.5-1.5zm37 0l.5 1.5q-1.5 3-3 0h2l.5-1.5zm-20 2l1.5 2.5-4.5 4.5-1.5-1.5 4-2v-2l.5-1.5zm64 3l1.5 2.5q-1.5 3-3 0h2l-.5-2.5zm-27 1l2.5.5-3.5 2.5v-1l1.5-.5-.5-1.5zm-170 1l-1 2 1-2zm9 0l2 1 3.5-.5-3.5 1.5-2-2zm26 0l-1 2 1-2zm32 0l1.5.5-2.5 1.5 1-2zm54 0l2.5.5-1.5 1.5-2.5-.5 1.5-1.5zm73 0v3q-3-1.5 0-3zm54 0l-1 2 1-2zm8 0l2 1 1.5-.5q-1.2 2.8-2.5.5l-3 2 2-3zm11 0l3.5 2.5-1.5-.5-2-1-1.5.5 1.5-1.5zm14 0l1 3q2.3.8 1.5-1.5h1l-3.5 4.5.5-1.5q.8-2.2-1.5-1.5l-1-2 2-1zm8 0l1 2-2.5-.5 1.5-1.5zm-282 1l-1 2-1.5-.5 2.5-1.5zm25 0v3q-3-1.5 0-3zm28 0l1.5 3 2 .5-1.5.5-2-4zm67 0l1 2-1-2zm169 0v2l2-1 2.5 1.5.5-1.5.5 1.5-1 2 .5 1.5-1.5-3-7-1.5 3.5-1.5zM85 178l2 .5-1.5 2.5-.5-3zm79.5 1l2.5 1.5-1.5-.5-1-1zm104 0l.5 2-2-.5 1.5-1.5zm17 0l2.5 1-.5 2-2-3zm-14 1l-3 4 3-4zm-249 1q3.5 2-1 4l-.5-2.5 1.5-1.5zm60 0l1 2 1.5-.5-1.5 1.5-2.5-.5 1.5-2.5zm233 0l-1 2 1-2zm-297 1l1.5 3.5-2.5 3.5.5-1.5 1-3-.5-2.5zm144 0l1.5.5-2 .5-2 3.5 1.5.5 2-3 .5 1.5-5.5 4.5-2.5-1.5 2-.5q-1.1-2.7 1.5-2l3-4zm30 0l-1 2 1-2zm21 0l1 2-1-2zm83 0l1 2-1-2zm-287 2l-1 2 1-2zm198.5 0l2 .5-2 1V184zm110.5 0l1 2-1-2zm-280 1v3l-2.5-.5 2.5-2.5zm30 0l1 2-2.5-.5 1.5-1.5zm63 0l3 4-3-4zm137 1l1 2-1-2zm23 0l-1 2-1.5-.5 2.5-1.5zm-279 1l.5 2-2-.5 1.5-1.5zm72 0l1 2-1-2zm231 0l2.5 1.5-2 1 .5 1.5q-2.2.8-1.5-1.5l.5-2.5zm-300 1l-2.5 3.5.5 1.5 1.5-.5q-1.5 3-3 0l3.5-4.5zm20 1l2.5.5-.5 2.5-2-3zm36 0l1 2-1-1-2.5 1.5 2.5-2.5zm83 0l2 3-2.5-.5.5-2.5zm12 0l-1 2 1-2zm103 1l1.5 2.5v2l-.5 1.5-2.5-3.5h2l-.5-2.5zm-182 1l1 2-1-2zm201.5 0l2 .5-3 2 1-2.5zm6.5 0l3.5 4.5q-1.5 3-3 0v-2l-.5-2.5zm-205 1q2.8 1.3.5 2.5l-.5 1.5-.5-1.5.5-2.5zm95 0l4.5 4.5-1.5 1.5-3-6zm6 0l-.5 1.5-.5 1.5-.5-1.5 1.5-1.5zm-117 1l2.5 3.5-2-1-.5-2.5zm19 0l2 3-2-3zm198 0l-2 3 2-3zm-219 1l2.5 3.5h-3l1-2-.5-1.5zm242 0l2 1 1.5-.5-4.5 3.5-2.5-.5 3.5-3.5zm-129 1l1 2-1-2zm87 0l3 4q1.3-2.2 2.5.5l-4.5.5-1.5-1.5 1-2-.5-1.5zm-245 1l3 2 1.5-.5-2.5 1.5q-1.7-3.1-3.5-1.5l1.5-1.5zm19 0l1 2-2.5-.5 1.5-1.5zm272 0q2.3-.7 1.5 1.5h-3l1.5-1.5zm-275 1l1.5 2.5-2-1 .5-1.5zm251 0l-1 2 1-2zm5 0l1 2-1-2zm-95 1l-.5 1.5q.8 2.3-1.5 1.5l2-3zm111 0l-1 2 1-2zm-292 1l-.5 1.5-1 2 .5 1.5q-2.7-1.2-.5-2.5l1.5-2.5zm75 1l3.5 2.5q.8 2.3-1.5 1.5v-2l-2-2zm-1 2l-1 2 1-2z"/><path fill="#FCFCFC" stroke="#FCFCFC" d="M201.5 202q2.3-.7 1.5 1.5l-1.5-1.5zm-160 2l.5 1.5-2 1 1.5-2.5zm41 1l-1.5 2.5 1.5 1.5 3-1 2.5 2.5v4l-1.5 1.5.5-5.5-1.5-1.5-3 1-2.5-2.5 2.5-2.5zm19 0l1 2-1-2zm-94 1l.5 2.5-2 1 1.5-3.5zm172 0l2 1 1.5-.5q-1.2 2.8-2.5.5l-1-1zm21 0l1 2-1-2zm-199 1l1 2-1-2zm19 0l1 2-1-2zm156 0l2.5 3.5h-1l-.5-1.5-2.5 3.5.5 1.5-1.5-2.5q4.3-2.3 2.5-4.5zm-3 1l.5 1.5-1 2.5-2-.5 2.5-3.5zm25 0l-1 2 1-2zm-96 1l-1 2 1-2zm68 0l-1 2 1-2zm-167 1l.5 2.5H3l.5-2.5zm15 0h2l2.5 1.5-2.5 1.5-2-3zm20 0v3q-2.2.8-1.5-1.5l1.5-1.5zm-33 3l1 2q-2.8.7-1-2zm17 0v3l-2.5-.5 2.5-2.5zm59 0l1 2-1-2zm8 0l1 2-1-2zm108 0v3q-3-1.5 0-3zm-145 1l.5 2.5-1.5 2.5-2.5-1.5 1.5-.5 1.5.5-1-2 1.5-1.5zm142 1l-2 3-1.5-.5 3.5-2.5zm-169 1l-1 2-1.5-.5 2.5-1.5zm3 0v2l1.5.5-3.5 1.5v-1l1.5-.5q-2.2-1.2.5-2.5zm142 0l2.5.5q-2.1 3.3-2.5-.5zm-150 1q2.3-.7 1.5 1.5l-1.5-1.5zm68 0q3 1.5 0 3v-3zm15 0l.5 1.5-3 2 .5-2.5 1.5.5.5-1.5zm-7 1l2.5 3.5-2 1 .5-1.5-1.5-.5.5-2.5zm17 0q2.3-.7 1.5 1.5l-1.5-1.5zm-94 1l1 2-1-2zm154 0l1 2-1-2zm-123 1l2 3-2-3zm-4 1l1 2-1-2zm46 0l-2 3-1-2q1.5 2.5 3-1z"/><path fill="#FCFCFC" stroke="#FCFCFC" d="M94.5 221q3 1.5 0 3l-1.5-.5 2-1-.5-1.5zm93 0l.5 1.5-2 1 1.5-2.5zm2 0l2.5 1.5-1.5-.5-1-1zm-140 1l1 2-1-2zm51 0l-1 2 1-2zm30 0l1 2-1-2zm-65 3l-1 2 1-2zm117 0l1.5 2.5-2 .5.5-3zm-172 1l3 4-3.5-1.5.5-2.5zm30 0l1.5.5-2.5 1.5 1-2zm4 0l2 3-2.5-1.5 1 2q-1.5 3-3 0l2.5-3.5zm133 1v3q-3-1.5 0-3zm-142 2l1 2-1-2zm146 0l1.5.5-2.5 1.5 1-2zm-172 1l1 2-1-2zm30 0l-1 2 1-2zm-19 2l7.5.5-5.5 1.5-2-2zm30 3l1.5 2.5h-1l-.5-2.5zm14 11l1 2q-2.8.7-1-2zm3 0l1.5 2.5-2-1 .5-1.5zm-15 3l1.5 3.5-2 1 1-3h-1l-1.5 2.5.5-1.5 1.5-2.5zm15 1l1.5 2.5h-1l-.5-2.5zm-2 1l1 2-1-2zm184 0l-1 2 1-2zm12 0l1.5 2.5h-1l-.5-2.5zm-191 1l.5 1.5-2 1 1.5-2.5zm-16 2l1 5 1.5.5-1.5.5-2.5-1-1-2.5 2.5-2.5zm205.5 1l2 .5q-3.1 1.8-1.5 3.5-2.7-1.2-.5-2.5V255zm-188.5 1l2 1 1.5-.5-.5 1.5 2.5 1.5-1.5-.5-4-2 1 3-2.5-.5 1.5-3.5zm5 0l1 2-1-2zm169 0l2.5.5-2.5.5v-1zm-2 1l.5 1.5q-1.5 3-3 0h2l.5-1.5zm-165 2l1 2-1-2zm-29 1l-1 2 1-2zm210 0l.5 2 2 .5-1.5.5-1-3zm-184 1l1 2 1.5-.5q-1.5 3-3 0l.5-1.5zm-24 1l-1 2 1-2zm33 3l1 1 143.5.5-145.5.5 1-2zm-26 1q1.8 3.1 3.5 1.5l-1.5 3.5-2 1-2.5-.5 3-1 1-2-1.5-2.5zm196 0l-.5 1.5-.5 1.5-.5-1.5 1.5-1.5zm-188 5v2l1.5.5-1.5.5-2.5-.5 2.5-2.5zm182 0l-3 4-.5-2 3.5-2zm-5 3l.5 2 2 .5-1.5.5-1-3zm-168 2l-2 3-.5-2 2.5-1zm4 1l2.5.5-2.5 2.5-2.5-.5 2.5-2.5zm154 0l3.5 1.5-1.5.5-2-1-1.5.5 1.5-1.5zm8 0l1.5.5-2 1 .5 1.5q-3-1.5 0-3zm-157 1l1 2-1-2z"/><path stroke="#000" d="M82.5 46l5 1 1-1h33l1.5.5-.5 1.5h2.5q-1.1-2.7 1.5-2h59l2 1 2-1 1 1h34l1 1 2-1v2q2.6.7 1.5-2h4.5l3 1q4.8-1.7 3.5 2.5v2l.5 1.5 3-4q7.5 3 11.5 9.5-2.2 1.3.5 2.5 2.6-.8 1.5 2.5l2 2-.5 2.5-1.5.5 3 1 1 6-1 2 1 1v166l-1 2v2l-2 3h2l-2 3v2l-1.5 2.5-1.5.5q2.5 1.5-1 3l-1.5 2.5q-3.3-1.1-2.5 1.5l-2.5 3.5-7 3-1.5-.5q.8 2.3-1.5 1.5l-2 1q-1.5-2.5-3 1l-2-1-3 1-3-1-1 1H88l-.5-2-1 2-.5-2q-3.7-1.5-3 1.5l-2.5-1.5-2 1-1-2-2 1-3.5-1-.5-3-1 2-3-4-1 1-3.5-3.5.5-1.5-3.5-1.5-2-3 1.5-2.5-2 1-.5-2.5-1-3.5 3 1.5.5 1.5.5-2.5q-1.2-2.5-5-1.5l1-2.5-2-4 2-4-2-.5.5-2 1.5.5q.8-2.2-1.5-1.5l.5-1.5-1-3v-11l1-1v-4q-1.8-6.2 1-8-1.2-2.7-2.5-.5-2.2-.7-1.5 1.5l-3 5-2.5 3.5-2.5.5.5 1.5q-1.2-2.2-2.5.5l1 1-3.5 3.5-6 3-6-2 .5 1.5.5 1.5 2-1-1 2-3-1-2 1-3-1-3 1q-2.2-4.2-4.5-2.5 2.3-1.2-.5-2.5l-2.5-.5q2.5-1.5-1-3l-1-2 1-1-2-4 1-2-1-3.5q3 1.3 2-2.5L9 205l3-1.5-.5-1.5-1.5.5 4-1.5-.5-2-1.5.5 3-6.5 4-2 .5 2 .5-3.5h-2l3-2 .5 1.5 1-3 2.5-1.5 1.5-2.5 2.5-.5-.5-1.5 1.5.5q-.7-2.2 1.5-1.5l13-11H47l3.5-5 2 1-1.5-2.5 1.5-1.5 1.5-.5-2.5-.5q-1.2 2.3-2.5-.5l-1.5-2.5q-2.2.8-1.5-1.5l-3-1q.8-2.2-1.5-1.5l-2.5-3.5.5-1.5-2.5.5.5 1.5-2.5-1.5q2.3-1.3-.5-2.5l-3-2q-1.2 2.3-2.5-.5l.5-1.5-2 1-2.5-4q-2.7 1.1-2-1.5l-4-1.5 1-3.5-3-1-.5-1.5q-1.2 2.3-2.5-.5 2.5-1.5-1-3l-4-9 1-2.5-2-.5v-9l3-4q-2.3-1.2.5-2.5l2 1 .5-2-2-.5 6.5-4.5 2.5 1 1.5 3 .5-1.5-1-2.5 4.5 2v-2q4.3-.7 5 2 1.5-2.5 3 1 6.4.7 8.5 5.5l-.5 1.5 2-1-1.5 4.5-.5 1.5-2-1 1 2 3.5-1.5.5-3.5 1 3q1.3-2.2 2.5.5l-1 1 4 4 2.5 4.5q2.7-1.2.5-2.5l1-2-1-2 .5-5.5-1.5-.5v-18l1-2-1-3v-2q-.7-4.2 2-5l-1-3 1.5-2.5 3.5 2q1.1-2.7-1.5-2L57 65.5q3.1-1.7 1.5-3.5l1.5-.5q-2.7-1.8 1.5-3.5l3.5-2.5-.5-1.5 4.5-1.5-.5-1.5 2 1 .5-2 3.5-2v2q2.3.8 1.5-1.5l3.5-1.5 3 2 1-2-1-1zm3.5 3v2q-1 2 2 1l-1-1q1-3-1-2zm5 0l-2 2h2v-2zm-13 1l1 3v-2h2l-3-1zm150 0l-2 2h2v-2zM76 51l-1 2 2-1-1-1zm17 0l-1 2 3-1-2-1zm4 0v1h63l-63-1zm-15 1l-3 1 1 2 2-1v-2zm3 0q-2 3 1 2l-1-2zm141 0l-2 2h2v-2zm3 0l1 2q1-3-1-2zM76 53v2l2-1-2-1zm8 1l-4 2h-2q1 2-1 1h-2l-1 2-3 2v-1l-1-1h-2l1 2-1-1-1 2 2 1-4 6q1 2-1 1v2l-1 2v40h-2q-1 3 2 2v20h-1v1q2-1 1 2h-2q-1 2 2 1l-1 6 5-3 2 1-1-1 2-3v2l2-1q2 1 1-1h-1l-2-1 1-2q2 1 1-2h2v-3h3l-1-1 2-1-1-1 2-1-1-1 5-5q-1-3 2-2l-1-1q1-3 3-1v-3l5-3-2-1 2-1 1-3 3-2v2l2-1 1 3 3 1h-1v2q-3-1-2 2l-1-1-1 2 1 1-3 3q1 2-1 1-3 1-1 3l-3 4h-2q1 3-1 2h-2l1 2-17 23-1-1h-1l1 3-2 1v2l-4 3 3 1 1 3v2l1 2q1 2 3 0v3l2-1v2q2-1 1 3l2-1 2 5q-1 2 2 1l6 8h-2l2 3 1-2v2l5 5-1 1h2l1 4q-1 2 3 1l3 6q1 3-2 2l1 3 3-2-1-1 2 1-7 5-4-6-4-3 2-1-1-1-6-6-3-3 1-1-7-7 2-1-2-1-5-6h2v-2q-5 1-6-3l-1 2v2l-1 2 1 2v55h-1l1 3q1 3-1 2l-3-1 3 4v-1h1l-1 2 4 7-1 2v1q2 1 1-1l2 1v2q3-1 2 2l-1 2 4-2q3 2 2 4l2-1-1 3 2-1 1 4h4l-3-1 4-3v2l3-2 2 1h135l1-1 2 1 3-1 1 3v-2h2l16-9-1-1 4-8v-7l2-2V80l-1 161-1-162 3 1h1l-2-4-3-3 3-4-2 1-1-2h-2l3-2-1-1h-2q-3 1-2-1l-8-7-6-1q-2-4-3-1l-2-1-2 1h-59l-2-1-3 1H96l-1-1-3 1q-7 2-8-1zm159 0l1 2 2-1-3-1zM72 55l-2 2h2v-2zm-6 2q-2 3 1 2l-1-2zm7 0l-2 2h2v-2zm179 1v3q-1 2 2 1v-2l-2-2zM62 59l1 2h1l-2-2zm184 0l-1 2 2 1-1-3zm2 0l1 2q1-3-1-2zm3 1l-2 2h2v-2zm-2 3l1 2q1-3-1-2zM63 67l-2 3 3-2-1-1zm191 0l1 2 2-1-3-1zm1 3v1h2l-2-1zM61 73l-1 4h1v-4zm197 1l-3 1 1 2 2-1v-2zm2 0l-1 3h1v-3zM56 78l1 2q1-3-1-2zm3 0q-2 3 1 2l-1-2zm-1 2l-1 16h1V80zM16 94l-2 3 3-2-1-1zm9 1v2l2-1-2-1zm3 2l-1 2h3l-2-2zm-13 2l-2 3 2-1v-2zm6 0v2l-3 4q-4 1-1 3l-1 2 1 2-2 1 3 2-1 2h2l1 6 8 9v1l2-1q2 1 0 3h4l-1 3h3v-2q2 1 0 3 1 2 3 0l4 4 1-1 6 6-1 3 3-2 2 2v-1l2-4-3-1 2-1-2-2 1-5h-1l-2-4 2-1-1-1q1-3-1-2 1-2-2-3l1-1q1-3-1-2v-1l-1-1-2-3h3l-5-2q1-4-2-3l-3-6h-2l2-1q-6 0-8-4-3 1-2-1h-1l-3-2-2 1-2-1zm40 0q-2 3 1 2l-1-2zm-26 1q-2 3 1 2l-1-2zm4 1v1h2l-2-1zm20 3l-1 11-1 1 1 4 1-4v-12zm-13 3q-2 3 1 2l-1-2zm1 3l-1 2 2-1-1-1zm2 1l1 2q1-3-1-2zm48 0l-2 2h2v-2zm-49 1l-1 2 2 1-1-3zm2 1v2l2-1-2-1zm45 1l-1 2 2-1-1-1zm-39 2l-2 3 1 2 1-2v-3zm34 0l-2 2 2 3h2l-2-5zm-78 2q-2 3 1 2l-1-2zm50 0l-2 2h2v-2zm-10 1v2l-2 1h3q1-4-1-3zm8 1l-1 16h1v-16zm25 1l-2 3 5-2-3-1zm-31 1q-5 2-1 4l1-2v-2zm-33 2l-2 2 2 1v-3zm64 1q-2 3 1 2l-1-2zm-1 2l-2 2 2 1v-3zm-61 1l-1 2 2-1-1-1zm4 2l-2 3 2-1v-2zm51 0v2l2-1-2-1zm3 0l1 3 1-2-2-1zm-59 1l1 2q1-3-1-2zm5 2l-2 2h3l-1-2zm56 0l-2 2h2v-2zm-56 4l-1 3h1v-3zm1 0v2l2-1-2-1zm45 0v2l2-1-2-1zm-40 1l-2 3h2v-3zm27 2l-1 4h1v-4zm16 0l1 2q1-3-1-2zm-32 5l-1 2-1-1-2 1q2 4 4 1v-3zm2 0v4-1q2-2 0-3zm24 1l-4 5 5-4-1-1zm-11 1l2 3v-1l-2-2zm-15 2l1 2q1-3-1-2zm25 0v2l2-1-2-1zm-23 2q-2 3 1 2l-1-2zm5 1l-1 2q4 1 3-1l-2-1zm13 1v2l2-1-2-1zm-14 2l3 3h1q0-3-4-3zm10 7l-4 2 4 1h1l-1-3zm3 2v2l2-1-2-1zm-16 5l-1 2 2 1-2 1h2l2 2-1-5-2-1zm3 0l1 2q1-3-1-2zm-7 2l1 2q1-3-1-2zm12 1l-1 1q-4-1-3 2l-7 5h-2l-4 5-1-1h-1l-1-2-1 3-1-1-2 1 3 2 2-1q-2 4-4 0l-1 3 1 1-2-1-2 4-3 1-6 10q1 3-1 2 1 2-2 4l1 1-1 2v2l1 2 1 3-1-1-3 4h2l1-2 1 2 1-2v2l4 1q0-4 7-2 1-4 3-1v-1l5-4-1 2h2l2-4q2 1 1-1h-2l5-7h1l-1 2h2l-1-4 2-4h2l2-1q1-3-1-2l-2 1 3-7q-1-3 2-2l-2-2q3-2 1-3h2l-2-3h3l-1-2h-1v-1q-1-4 2-3v-2l-1-1zm-12 1q-2 3 1 2l-1-2zm25 1q-2 3 1 2l-1-2zm2 2l1 4v-2h2l-3-2zm-35 1l-2 2h2v-2zm3 0l-1 3 1 1 2-3-2-1zm30 0l-2 2h3l-1-2zm-7 2l-1 4h1v-4zm-35 4v2l2-1-2-1zm34 1l-1 18-1 1h2v-19zm14 0v1h2l-2-1zm-19 1q-2 3 1 2l-1-2zm24 1l-2 2h2v-2zm-53 3l-3 2h3v-2zm29 0q-2 3 1 2l-1-2zm24 0q-2 3 1 2l-1-2zm-25 2l-2 2h2v-2zm23 0l1 2q1-3-1-2zm6 0l-1 3h1v-3zm-62 2l1 2h1l-2-2zm34 1l-2 3 2-1v-2zm-33 2l-5 2 4 1 2-2-1-1zm61 0l-2 2q-1 2 2 1t0-3zm-68 2v1h2l-2-1zm47 2l-2 6h2v-6zm27 2l1 3 1-2-2-1zm6 5l-2 2h2v-2zm-36 1l-1 16h1v-16zm-16 4l1 3 1-2-2-1zm51 0l1 2q1-3-1-2zm-52 4l-2 2 1 1 4-1-3-2zm-5 3l1 2q1-3-1-2zm3 1v1h2l-2-1zm-1 1l-2 2h2v-2zm-13 2v2l2-1-2-1zm5 0q-1 3 2 2 1-3-2-2zm3 0v2l2-1-2-1zm-4 1l-3 2h3v-2zm30 0l-1 3h1v-3zm-35 2v1h2l-2-1zm10 0l-2 2h2v-2zm-13 1v2l2-1-2-1zm36 5l-1 9h1v-9zm200 14l-2 2h2v-2zm-198 3v3l3 1v-2h-2q1-3-1-2zm194 1l-2 3 3-2-1-1zm1 5l-1 4h1v-4zm-191 1l-2 2h2v-2zm185 1v2l2-1-2-1zm-187 4l-1 2 2 1-1-3zm186 1v1h3l-3-1zm-182 3v2l2-1-2-1zm177 0l-1 3h1v-3zm-171 1l-1 3h3v-2l-2-1zm166 1v3l2-1-2-2zm7 0v1h2l-2-1zm-11 1v2l2-1-2-1zm8 0l-2 2h2v-2zm3 1v2l2-1-2-1zm-18 2l-1 3 1 1 2-3-2-1zm11 0q-2 3 1 2l-1-2zm-158 2l1 1 1 1q1-3-2-2zm150 0l1 2q1-3-1-2zm4 0l2 2h1l-3-2z"/><path stroke="#000" d="M140.5 104h11l.5 1.5 2.5.5 1.5.5-3 .5.5 2 4-2 1 3 1.5-.5-.5 1.5q2.3-.7 1.5 1.5l1 3.5 3 .5-.5 1.5 1.5.5q-2.5 1.5 1 3l-.5 1.5-1-2-.5 2.5 3 1q1.1 3.3-1.5 2.5v1l2.5 1.5v2l-1 3 1 2q-2.5 1.5 1 3l-1 2q2.8.8 2 5l-1 2q2.5 1.5-1 3l1 3v2l-2 5 1 2q-2.2 1.3-1 6l-3.5 5.5-1.5.5 1 3-1.5 1.5q-2.6-.8-1.5 2.5l-4.5 4.5-1.5-.5-1.5 2.5-2-1-4 2-4-1h-2l-2 1-2.5-1q-1.1-2.7 1.5-2v-1q-3.3-1.1-2.5 1.5l-3-2-3.5-4.5-1.5 4.5 1 2-1 5v24l1 1-1 2 1 3.5h-11.5l-1.5-1.5 1-5-1-1V120l3-.5-3-1 2-1-2-.5 1-2.5-1-4.5 2-.5-2-1 2-.5-.5-2-1.5.5 3.5-1.5 3.5 1.5-.5 1.5 3-1 1.5 2.5v2q-2.6 1.4-2 6h1l.5-2.5 1.5 1.5-1.5 2.5 2.5-1.5 3.5-6.5 2.5-.5-2-1 5.5-4.5 1.5.5.5-1.5zm.5 3l-2 2 2 1v-3zm-23 3v2l2-1-2-1zm23 0v2l2-1-2-1zm14 0l-2 2h2v-2zm-32 1v3l2-1q1-3-2-2zm21 0l-2 2h2v1l-2-1-5 3-6 4 1 2h-2l1 2-3 5 1 2v2l-1 3v24l1 3-1 2v2h2l-2 5 3-2v2q2-1 1 3h2l3 6 2-1 2 1h2l2-1 1 2 7-6v-2q2 1 1-1v-2l5-1v-1q-5 1-4-2l3 1v-1q-4-2 0-4l-1-3 3-6-2-1v-9l1-1-1-5v-2l-1-2v-2q-1-3 3-2v-1h-3l-2-2 1-2-2-1 1-2h-1v-1l-1-1-3-4-3-1-3-4zm3 1q-2 3 1 2l-1-2zm3 1l1 2q1-3-1-2zm2 2l-1 3h1v-3zm-29 2l-2 3 2-1v-2zm35 6l-1 3h1v-3zm7 1l-1 3h1v-3zm-2 1l-2 2h2v-2zm-5 38l1 3 1-2-2-1zm6 5l-4 2v1l4-1v-2zm2 2l-2 3 2-1v-2zm-9 1l-2 2 3 1h-1v1l4-1-4-3zm-25 6q-2 4 2 3v-2l-2-1zm-2 1l1 2q1-3-1-2zm2 2l-1 2 3 1v-2l-2-1zm7 3v2q-1 2 2 1l-1-1q1-3-1-2zm12 1v1h2l-2-1zm-2 2l1 2 2-1-3-1zm-10 1v2l2-1-2-1zm-19 29l-2 2h2v-2zm1 5v1h7l-7-1zm54-116h9.5l1.5 1.5-1 1 1.5 2.5-1.5.5 3 2-.5 1.5-1-2q-3 1.5 0 3 2.3-.7 1.5 1.5h-2q-.8 3 3 1.5v3.5l1 2.5q-3.3-1.1-2 3l3 .5-1 1 1.5 2.5-2.5-1.5-.5-1.5-.5 2.5 4 1.5 1 3.5v2q-.6 4.6 2 6v4l1 3q-2.5 1.5 1 3l1 4-.5 2.5-3.5 1.5 2.5.5 2-1v1q-2.6-.7-1.5 2l2 .5v2l2.5 7.5.5-3 2-.5-1-3 1-4.5h2q-1.1 2.7 1.5 2l-.5-1.5q.7-3-3-1.5v-2l2-.5-1-4.5q2.7 1.1 2-1.5l-1-2 2-4-1-2 1-2.5 2.5 1 .5-2-3-.5 3-1.5-1-4.5 1-2-1-3 1.5-2.5 1 3 1.5-3.5-3-1 2-3-.5-1.5 2.5-1.5-.5-1.5-1.5.5v-2l1.5-3.5 1.5.5-2-3 2-4-1-2.5 13 .5-3 1 2 1-3 1 3 1q-3.5 1.5-1 3l-2 8-3 4 2 1-2.5 1.5-2.5-1.5 2.5 3.5 1.5-.5-2 3q2.3 1.3-.5 2.5l-1.5-.5q-.7 2.3 1.5 1.5l.5 2.5-2 2 1 2-1 3.5-2 .5 1 2-2 5 .5 1.5q-2.2-.7-1.5 1.5v2l-1 2v2l-1 2 1 2-1 3.5-2 .5 1 2h-2l1 3-.5 2.5-1.5.5 1 2-3 4v2l-1 2v2l-3 6 .5 1.5-3-2-.5 2 3 1.5-2.5 3.5-.5-2-2 .5 2 4-4 3 2 1-2 .5-1.5 3-1.5.5v3.5h-2q1.1 2.7-1.5 2l-3 4-2 1-1-2-.5 4-4 1q.8-3.4-2-4.5l.5-1.5-1.5-.5 1-2.5q-2.7 1.1-2-1.5h2l.5-1.5 1.5.5.5-1.5.5 2 2-.5-1-2 5.5-6.5 3-2q1.3 2.3 2.5-.5l-1.5-2.5-1 2-.5-1.5 1.5-2.5 1.5.5q-1.5-4.4 1.5-3.5-1.6-1.7 1.5-3.5l-1-1 2-2-1-1 2-4-2-.5-4-15.5v-2l-1-3h4q.9-3-3.5-1.5l-1.5-3.5.5-1.5-1.5-.5 1.5-.5 2 1-1-4q-2.2-.7-1.5 1.5h-1l-3-8v-4q.8-2.2-1.5-1.5l.5-1.5-1-4 1-3h-1l-.5 1.5-1.5-2.5 1-2.5q2.7 1.1 2-1.5l-1.5.5q-2.2-.7-1.5 1.5h-1l1-2-.5-1.5 1.5-.5-3-1v-2l-1-2 1-1-1.5-2.5 1.5-.5-3-2 2-1-2-.5-2-6.5h2V105zm2 3v1h7l-7-1zm40 1v1h7l-7-1zm-35 4l1 2q1-3-1-2zm-2 5l-1 3h1v-3zm4 0l1 1 1 1q1-3-2-2zm37 3l-1 3h1v-3zm-39 1v2l2-1-2-1zm37 0l-2 2h2v-2zm-32 2l-1 3h1v-3zm-2 5v1h2l-2-1zm33 0q-1 3 2 2 1-3-2-2zm-33 2l1 1 3 4v-2q0-3-4-3zm6 2l-1 3h1v-3zm-6 1l1 2q1-3-1-2zm28 0l-1 4h1v-4zm4 0l-1 2h-2l1 2 2-1v-3zm-3 5l-3 1q-1 3 3 2v-3zm-25 5l-1 2h4l-3-2zm-2 5q-2 3 1 2l-1-2zm5 4q-2 3 1 2l-1-2zm18 0l-1 3h1v-3zm3 0l-1 3h1v-3zm-1 3l-1 3h1v-3zm-22 2l-1 3h2l1-2-2-1zm20 1q-2 3 1 2l-1-2zm-4 6l-1 2q2 3 3 0l-2-2zm0 4l1 2q1-3-1-2zm-2 4l-2 3h3l-1-3zm-10 3v3h1q1-4-1-3zm5 0q-2 3 1 2l-1-2zm5 0l-1 2-2 1v1l3-1v-3zm-5 3l-2 4h1q-1-3 2-2l-1-2zm8 0l-2 2h2v-2zm-2 2l-2 2h2v-2zm-5 1v1h2l-2-1zm-2 3v2l2-1-2-1zm7 0l-2 2h2v-2zm-9 2l-1 2 2 1-3 4 1 1 3-2-1-1 1-4-2-1zm4 3l1 2q1-3-1-2zm0 3l1 2q1-3-1-2zm-2 1l-2 2h2v-2zm-4 2v2l2-1-2-1zm5 1l-2 2h2v-2zm-3 2q-3 2 0 3l1-2-1-1zm-4 3l1 2q1-3-1-2zm2 2l-2 3 2-1v-2zm-8 14l-1 3h1v-3zm-6 1l1 3 1-2-2-1zm125.5-91l1 3 1.5-.5-.5-1.5 5.5 2.5 1 2-1 3 1 3v2q.8 2.3-1.5 1.5l-3 4-2-1-3 1q-2.2.8-1.5-1.5h-2l.5-1.5q-3.3 1.1-2.5-1.5l-1-3 1-2-1-3 2.5-3.5 5-3zm4.5 2l-2 2h2v-2zm-2 2q-2 3 1 2l-1-2zm-8 2l1 2 2-1-3-1zm2 5q-2 3 1 2l-1-2zm7 5l1 2q1-3-1-2zm-32.5-15h2q6.3-1.2 7.5 2.5l2 4-1.5-.5q-2.6-.7-1.5 2l3 .5-3 1 3 1-3 2 .5 1.5 1.5-.5-1 2.5-4.5 2-2-1v2l-5.5-3.5-2-3 2-1-2-1 3-1-3-.5q-1-3.8 1.5-5l1 2q2.8-1.2.5-2.5l1.5-3.5zm5.5 1l1 2q1-3-1-2zm3 1l-2 2h2v-2zm-2 3l-3 2q2 3 3 0v-2zm-6 1q-3 4 1 3l-1-3zm-1 4l1 2q1-3-1-2zm9 0l-2 3 2-1v-2zm-7 2l-1 3h1v-3zm-2 1l-1 3h2l-1-3zm3 1q-1 3 2 2 1-3-2-2zm-.5 36q3.3-1.1 2.5 1.5h1l.5-1.5 1 3 1-2 3.5 6.5v5q-2.7 1.1-2 4.5l-3.5-1v2l-2-1-3 1-2.5-.5-1-3.5-2-.5V184q2.7 1.1 2-1.5l4.5-3.5zm-1.5 2l-2 2h2v-2zm8 1l-2 2h2v-2zm-1 3v3l3 1v-2h-2q1-3-1-2zm-3 3l1 1 2 3v-2l-3-2zm0 5l-2 2h2v-2zm22.5-14l3 1 3.5-1q-1.1 2.7 1.5 2l2.5 2.5v4l-1 2 1 3.5-4 1.5 2 1-2.5 1.5v-2q-2.2-.7-1.5 1.5l-1.5 1.5q-1.7-3.1-3.5-1.5l-.5-1.5q-1.7 2.7-3.5-1.5l1-2h-2q-1.1-3.3 1.5-2.5v-1l-1.5-.5.5-2.5 1.5-.5-.5-1.5 1.5-.5-.5-1.5 3-2zm2.5 2l-1 2 2-1-1-1zm2 1l-1 2 2-1-1-1zm-7 1v3h3l-1-1v-1l-2-1zm0 7v1h3l-3-1zm1 2l-2 2h2v-2zm4 0l1 5v-1q3-2-1-4zM79.5 267l1 2q-2.8.7-1-2z"/><path fill="#FFF" stroke="#FFF" d="M0 0h321v322H.5l-.5-.5v-108l1-4-1-1v-97q-1.9-5.4 1.5-4.5v-1l-1.5-.5V0zm82 44l-6 3-2-1-1 2-4 2-2-1-1 3q-3-1-2 2h-2v2l-2 1q-3 1-1 3-4 2-4 8l-3 2 2 1-2 4 1 2v2l-1 4 1 1v25l-7-9-6-4-2-2h-1l-2-2-10-3-10 3-5 5q1 2-1 1v2l-1 2-2 2 1 3H6v1q2-1 1 2l-1 3 1 2-2 1h3q-1 4 2 7l-1 2 2-1 3 6-1 3 2-1 2 2q-1 2 2 1l1 3 7 4 3 5 2-1 7 6 3 2v2l2-1v3q3-2 5 3 1 4-2 4-3-1-2 2-1 2-2 0l-1 2-2 1-4 4-1-1-1 2-2 1-4 4-1-1-1 2-2 1-3 4q-1 2-2 0l-6 9-1-1-1 2v2q1 2-1 1v2l-2 5-2 4 1 4H5q-1 2 2 1l-1 2 4 10 4 3 9 4 9-3 2 1v-2l8-3 2-3q2 1 1-2h2v-1l4-3-1-1 3-2-1 2 1 2-1 4 1 1v20l-1 1 1 2-1 3 2 5 2 4-1 1h2l4 8 9 6 6 3h3q1 3 3 1l3 1 2-1h137l1 1q1-2 7-1h2l3 1-1-1 2-1 1 1q-1-3 3-2h2v-1h2l7-7 1 1 5-10 3-3-1-1 1-5V78l1-1-1-5v-2l-6-10 1-2-2-2q-3 1-2-2h-2v-2l-7-3-3-3-1 1-3-2-2 1-4-2-2 1-4-1-1 1h-35l-3-1-2 1H84l-2-1zm171 5l1 2q1-3-1-2zm9 8l-1 3h1v-3zM11 89l1 2q1-3-1-2zm266 38l-6 7q-4 1-1 3l-1 4 2 3 6 5h4l-1 2h2l1-3 2 1 4-6 1-5-2-6q-2-6-11-5zm27 0l-6 3q1 2-2 4l1 1q1 4-1 6l4 7 8 2 5-3 4-9-2-1-1-6-4-4h-6zm-36 2v2l2-1-2-1zm-256 2l-1 3h1v-3zm257 2l-2 2h2v-2zM26 148q-2 3 1 2l-1-2zm21 12l-3 2h3v-2zm260 16l-4 2h-2q1 2-2 1l-2 6-2 1h2v5l-1 3 8 5 8-1 3-4v-2l2-1-1-1 2-1-3-2 1-2-1-2-3-3 1-1q-5 0-6-3zm-28 1l-6 2-3 8v2l-1 2 5 8q2-2 4 1 1-2 6-1 1-4 3-1 0-5 4-6l-1-1-1-2 2-1-1-1v-1q-3-2-2-6l-2-1q-3 1-2-1h-1l-4-1zm18 0l1 2h1l-2-2zm19 1l-3 2h4l-1-2zm-47 1l-2 2h2v-2zm-256 8l-2 2h2v-2zm257 6l-1 2 2 1-1-3zm49 3l1 2q1-3-1-2zM4 210l-1 3h1v-3zm50 47q-2 3 1 2l-1-2zm6 12q-2 3 1 2l-1-2zm13 8v2l2-1-2-1z"/><path fill="#FFF" stroke="#FFF" d="M85.5 56h10l1 1h65l1 1 1-1h62l3 1 4-1 3 2h2l6.5 3.5-.5 1.5q3.3-1.1 2.5 1.5 3.1 1.8 1.5 3.5 2.6-.8 1.5 2.5l2 6v169l-3 6v2q.8 2.6-2.5 1.5v1l1.5.5-2 .5-1.5 3-3 2-11 4-1-1h-143l-1-1-3 1-4.5-1-.5-2H73v-2h-2v-2q-2.7 1.1-2-1.5l-3-4q2.5-1.5-1-3l1-3-2-2v-15q-.7-4.2 2-5l-1-1v-20q-.7-2.2 1.5-1.5v-1l-1.5-.5v-15q-1.5-4.4 1.5-3.5l10 14 1.5.5-.5 1.5 3.5 2.5q-1.1 3.3 1.5 2.5l9.5 12.5v2.5l2.5 1 8.5-5-2-7q-2.7 1.1-2-1.5l-8-10V194q-2.7 1.1-2-1.5l-9-11 .5-1.5q-2.2.8-1.5-1.5l-3-1.5-3-4.5.5-1.5-3.5-2.5.5-1.5-4.5-3.5 1-2h-2L93.5 124l1.5-.5-.5-1.5q2.3.8 1.5-1.5l3-5.5q2.7 1.1 2-1.5l2-4-8.5-7.5q-2.2 4.2-4.5 2.5-.7 2.3 1.5 1.5l-2.5 3.5L78.5 124l-1.5.5 1 1-4 4-7 10.5-2-.5v-23l1-3-1-1v-14q2.5-1.5-1-3v-16l1-1-1-2.5 2-.5-1-2q3.5-1.5 1-3 1.8-7.2 7.5-10.5l12-4zm63.5 44l-1 2-4-1-8 4-6 6v-1l-2-3q2-2 0-3h-12l-2 2 1 3v2l-1 5 1 2v100h-1l1 3 1 3h14q2-1 0-2-1-4 2-3v-1h-2v-29l1-5v2q4 4 11 6l8-1 3 1v-2l5-1-1-1q3 1 5-3-1-3 2-2l-1-1 3-2-1-1 2-1-1-1 3-6q-2-5 2-4l-1-1 1-6v-2l1-2v-12l1-1-2-6 1-3q-4-9-5-19h-2l1-2h-1q-3-1-1-2l-1-1-4-4h-1l-2-4-1 2-2-2-1 1-3-1v-2zm3 0v1h2l-2-1zm20 4l-2 2h2l-1 2 2 3-1 2 3 4-1 2 3 8v2l4 13v2l2 6 2 4-1 4 2-1-1 2 1 2v2l2 4v2l5 15v5l-3 7h-2l1 3-2 1v2l-2 3-2 1-2 3q-1 2-2 0l-1 3-3 2q-3-1-2 2v4l2 2-1 1h2l1 5 5-2v2h2l-1-2q2-5 4-2l1-2 5-4q2-1 0-2 6-5 8-12h2l-1-2 2-1-1-2 5-12q3-2 1-3l1-5q3-2 1-3l3-10v-2l2-8h2l-1-2v-2l2-5q-1-4 2-3l-1-1 2-3-1-2 6-22 2-4-1-1q-1-4 2-3l-1-1 2-1-2-2h-14l-3 3 1 4v2l-1 3v2l-1-1-1 2 1 3-5 23-2 1h2l-1 5v2l-2 2-1 8v4l-4-17-2-4 1-2-3-11v-2l-2-7v-4q-4-3-3-10v-2l-1-2-1-2h-15zm-90 11v2l2-1-2-1zm-3 6l-1 2 2-1-1-1zm-4 4v1h2l-2-1zm11 11l-2 2h2v-2zm88 2l-1 4h1v-4zm6 3q-2 3 1 2l-1-2zm-95 37l1 3 1-2-2-1zm17 24l-2 2h2v-2zm71 8l-2 2h2v-2zm-75 9l-2 2h2v-2zM21.5 102l4 1 1-1 4 2 7.5 5.5 2 3 5 7-1.5 2.5 2-1 1.5 2.5q-2.5 1.5 1 3l4 17v2l1 2-3.5-2.5-3.5-2.5-.5-1.5-1.5.5q.8-2.2-1.5-1.5l-6.5-4.5.5-1.5q-8.6-2.4-12.5-9.5l.5-1.5q-2.2.8-1.5-1.5l-4-7v-2l-1-4 1-4 2.5-2.5zm14.5 7l-1 2 2-1-1-1z"/><path fill="#FFF" stroke="#FFF" d="M139.5 116l5 1 2-1 5.5 6.5-.5 1.5 1.5.5-1 2h2v2l2 7-.5 2.5-1.5.5 2 1v2q2.3 3.2 1 10-3.5 1.5-1 3 1.5 4.4-1.5 3.5v1q2.3-.7 1.5 1.5l-3 11-6.5 6.5-7 1-4.5-3.5-5-12v-30l1.5-.5v-1q-2.2.8-1.5-1.5l4-7v-2l2.5-3.5 3-2zm-7.5 13v2l2-1-2-1zm-79.5 46l-1.5 2.5.5 5.5-1.5.5v4l-1 7-4 9.5-2 .5q2.5 1.5-1 3l-2 4.5-2.5-1-.5 1.5 1 1-3.5 3.5-7 4h-6q-4.6-1.9-3.5-9.5 2.9-11.1 10.5-17.5 2.3.8 1.5-1.5l11.5-9.5 3.5-1 .5-2 1 2 .5-3 5.5-4zM21 210l1 2h1l-2-2zm0 7l1 2q1-3-1-2z"/><path fill="#878787" stroke="#878787" d="M82.5 45l107.5.5-107.5.5v-1zm165 6l1 2-1-2zm-183 2l-3 4 3-4zm22 2l7.5.5-7.5.5v-1zm-27 4l-1 2 1-2zm14 0l-1 2 1-2zm170 2l3 4-3-4zm18 14l.5 172.5h-1l.5-172.5zm-208 2l.5 9.5h-1l.5-9.5zm-11 21l5 6-5-6zm73 6l10.5.5-10.5.5v-1zm60 0l10.5.5-10.5.5v-1zm40 0l11.5.5-11.5.5v-1zm-118 1l1 2-1-2zm30 0l.5 2.5h-1l.5-2.5zm-120 1l.5 5.5H7l.5-5.5zm85 0l-1 2 1-2zm9 2l1 2-1-2zm14 5l.5 6.5h-1l.5-6.5zm-16 1l-1 2 1-2zm-3 4l-1 2 1-2zm-15 3l-1 2 1-2zm-58 3l1 2-1-2zm55 1l-1 2 1-2zm-3 4l-1 2 1-2zm199 0l-1 2 1-2zm37 0l1 2-1-2zm-282 1l2 3-2-3zm-12 3l5 6-5-6zm55 0l-1 2 1-2zm57 0l.5 29.5h-1l.5-29.5zm41 1l.5 2.5h-1l.5-2.5zm-135 1l1 2-1-2zm121 0l.5 2.5h-1l.5-2.5zm-87 2l-1 2 1-2zm-30 1l1 2-1-2zm-13 3l1 2-1-2zm17 0l1 2-1-2zm22 1l-1 2 1-2zm-18 2l1 2-1-2zm226 1l1 2-1-2zm39 0l-1 2 1-2zm-269 9l1 2-1-2zm26 0l-1 2 1-2zm87 3l.5 2.5h-1l.5-2.5zm-91 2l-1 2 1-2zm0 4l1 2-1-2zm-20 3l-2 3 2-3zm-5 4l-1 2 1-2zm-4 3l-1 2 1-2zm98 2l2 3-2-3zm-59 1l1 2-1-2zm-47 3l-1 2 1-2zm50 1l1 2-1-2zm221 1l-1 2 1-2zm-170 1l.5 40.5-1.5 1.5h-12v-1h12l.5-.5.5-40.5zm-107 2l-6 7 6-7zm59 0l1 2-1-2zm-44 1l-1 2 1-2zm251 0l.5 3.5h-1l.5-3.5zm-154 2l1 2-1-2zm-50 1l1 2-1-2zm-52 1l-1 2 1-2zm55 3l1 2-1-2zm199 3l-1 2 1-2zm13 0l1 2-1-2zm-21 3l2.5.5-2.5.5v-1zm27 0l2.5.5-2.5.5v-1zm-222 6l1 2-1-2zm101 1l-1 2 1-2zm-98 3l1 2-1-2zm-79 2l.5 6.5H7l.5-6.5zm33 1l-6 7 6-7zm61 0l1.5 2.5h-1l-.5-2.5zm92 3l-1 2 1-2zm-143 1l-1 2 1-2zm-4 5l-2 3 2-3zm139 2l-1 2 1-2zm-132 14l.5 9.5h-1l.5-9.5zm194 21l-1 2 1-2zm-179 1l1 2-1-2zm3 3l1 2-1-2zm182 5l-3 4 3-4zm-191 1l2 3-2-3zm23 10l144.5.5-144.5.5v-1z"/><path fill="#CDCDCD" stroke="#CDCDCD" d="M190.5 45l41.5.5-41.5.5v-1zm-124 6l-1 2 1-2zm184 2l4 5-4-5zm-88 3l69.5.5-69.5.5v-1zm-91 5l-2 3 2-3zm190 11l.5 2.5h-1l.5-2.5zm-208 1l.5 3.5h-1l.5-3.5zm0 14l.5 24.5-2-1 1-1 .5-22.5zm-32 3l5.5.5-5.5.5v-1zm-8 3l-2 3 2-3zm51 4l.5 45.5h-1l.5-45.5zm-42 4l3.5.5-3.5.5v-1zm72 2l-1 2 1-2zm-59 3l4 5-4-5zm98 1l-2 3 2-3zm-45 4l-1 2 1-2zm-81 1l.5 2.5H7l.5-2.5zm78 3l-1 2 1-2zm51 2l-2 3 2-3zm14 2l1 2-1-2zm-35 1l.5 103.5h-1l.5-103.5zm-90 6l3 4-3-4zm253 1l2.5.5-2.5.5v-1zm27 0l2.5.5-2.5.5v-1zm-216 1l-1 2 1-2zm196 1l1 2-1-2zm15 0l-1 2 1-2zm-285 2l1 2-1-2zm155 0l.5 2.5h-1l.5-2.5zm-84 1l-1 2 1-2zm-53 1l1 2-1-2zm50 3l-1 2 1-2zm187 0l.5 3.5h-1l.5-3.5zm-114 2l.5 2.5h-1l.5-2.5zm-133 1l1 2-1-2zm57 1l-1 2 1-2zm-52 3l1 2-1-2zm258 2l-1 2 1-2zm13 0l1 2-1-2zm-267 1l1 2-1-2zm18 0l1 2-1-2zm121 0l.5 4.5h-1l.5-4.5zm-135 3l1 2-1-2zm4 3l1 2-1-2zm116 1l.5 3.5h-1l.5-3.5zm-111 3l1 2-1-2zm22 1l-1 2 1-2zm103 2l.5 2.5h-1l.5-2.5zm-121 3l-3 4 3-4zm21 7l1 2-1-2zm3 4l1 2-1-2zm-22 2l-1 2 1-2zm99 0l-2 3 2-3zm-103 3l-1 2 1-2zm94 1l2.5.5-2.5.5v-1zm133 0l-2 3 2-3zm37 0l2 3-2-3zM64 180l2 .5-1 1-.5 44.5-.5-46zm-38.5 1l-2 3 2-3zm18 0l-1 2 1-2zm24 2l1 2-1-2zm93 1l-1 2 1-2zm33 0l.5 2.5h-1l.5-2.5zm77 2l.5 4.5h-1l.5-4.5zm-235 1l-1 2 1-2zm35 0l1 2-1-2zm-40 4l-6 7 6-7zm43 0l1 2-1-2zm69 0l5.5.5-5.5.5v-1zm-66 4l1 2-1-2zm15 2l1 2-1-2zm-12 2l1 2-1-2zm15 2l1 2-1-2zm92 1l-1 2 1-2zm-89 3l1 2-1-2zm85 2l-4 5 4-5zm-129 4l.5 24.5h-1v-22l-1-1 1.5-1.5zm142 1l-1 2 1-2zm-94 2l-1 2 1-2zm-53 4l-1 2 1-2zm45 0l1 2-1-2zm97 0l-2 3 2-3zm-168 3l3.5.5-3.5.5v-1zm21 2l-2 3 2-3zm10 23l.5 3.5h-1l.5-3.5zm208 2l.5 2.5h-1l.5-2.5zm-16 11l-2 3 2-3zm10 5l-1 2 1-2zm-195 1l1 2-1-2zm22 12l2.5.5-2.5.5v-1zm148 0l2.5.5-2.5.5v-1z"/><path fill="#020202" stroke="#020202" d="M81.5 46l1 2-1-2zm109 0l40.5.5-40.5.5v-1zm-114 1l1 2-1-2zm-3 1l2.5 1.5-2.5 1.5-2.5-1 2 3.5-4-3 4.5-2.5zm167 1l2.5.5q-2.1 3.3-2.5-.5zm-162 1l2.5.5-2.5.5v-1zm166 0l-1 2 1-2zm-176 2l1 2-1-2zm16 0l.5 1.5-2 1 1.5-2.5zM76 53l2 .5-2 1V53zm4.5 0L79 55.5l-.5 1.5-.5-1.5 2.5-2.5zm15 0l-1 2-1.5-.5 2.5-1.5zm131 1l3 1q1.3-2.3 2.5.5l-3.5.5-2-2zm23 1l3.5 1.5-3 1-1.5 3.5-1-2q2.6.7 1.5-2l-2-.5 2.5-1.5zm-187 1l1.5 2.5-1.5-.5-1.5-.5 1.5-1.5zm6 0q3 1.5 0 3l-2.5-.5 2.5-2.5zm171 0l-1 2 1-2zm2 1l3 1 1.5-.5-.5 2.5-4-2v-1zm-170 1l1.5.5-2 1 .5 1.5-2.5-.5 2.5-2.5z"/><path fill="#020202" stroke="#020202" d="M251.5 58l.5 1.5-2 1 1.5-2.5zm-190 1l2.5 1.5-1.5.5-1-1-2.5 1.5 2.5-2.5zm192 0l2.5 1-1.5 3-2.5-1.5 2-1-.5-1.5zm-10 1l3 4-3-4zm-182 2l1 2-1-2zM57 63l3 1.5-2.5 3.5.5-1.5-1-3.5zm9.5 0l.5 1.5-.5 2.5-2.5-.5 2.5-3.5zm186 0q1.8 3.1 3.5 1.5l-1.5 1.5-2-3zm-4 2l2 1 1.5-.5-1 3 .5 1.5 1.5-.5-3 1.5-1-2.5 2-1-3-.5.5-2zm-189 3l-1 2 1-2zm-4 1l1 2-1-2zm202 0l1.5.5-2 1 1.5 2.5-2.5-.5.5-1.5-1.5-.5 2.5-1.5zm-194 1l1.5.5-2.5 1.5 1-2zm0 3l.5 2.5h-1l.5-2.5zm191 0l.5 1.5-2 1 1.5-2.5zm6 4l.5 1.5-2 1 1.5-2.5zm-205 1l-1 2 1-2zm-34 13l1.5.5-4.5 2.5-1-2h2l2-1zm2 2l2.5.5v2l-1 2 2 1 1.5-2.5v2l2-1-1 2-4 2q1.6-1.7-1.5-3.5l1-1-1.5-3.5zm10 0l1 2-1-2zm-17 1q2.3 4.3 4.5 2.5l-3.5 4.5 1.5-2.5-1.5-2.5-1.5.5.5-2.5zm20 2l3 4-3-4zm26 0l1.5 1.5.5 46.5 3.5-5 2 .5-2 3.5-4.5 2q-2.8-1.2-.5-2.5v-45l-.5-1.5z"/><path fill="#020202" stroke="#020202" d="M12.5 97q2.3-.7 1.5 1.5l1.5-.5 1.5.5-2 .5 1 2.5-2 1 .5-1.5-1.5-.5 1-1-1.5-2.5zm-2 1l1 2-1-2zm12 0v3q-3-1.5 0-3zm19 0q4.5 2 1 4h-2l-1.5-.5 3-2-.5-1.5zm-11 2l1 2-1-2zm-19 1l1 2-1-2zm33 1l2.5 1.5-.5 1.5-.5-2-1.5-1zm-5 1l3.5 1.5-2.5.5-1-2zm105 0l4.5.5-4.5.5v-1zM54 104l2 .5-1 3-.5 4.5-.5-8zm-36.5 1l-1 2 1-2zm18 0l2.5.5q-2.1 3.3-2.5-.5zm61 0l1.5 2.5-.5 2.5-2.5-.5 1.5-2.5-1.5-.5 1.5-1.5zm22 0l1 2-1-2zm55 0l2 3-2.5-.5.5-2.5zm-124 2l1 2-1-2zm43 0l-1 2 1-2zm25 0l1 2-1-2zm37 0l-1 2 1-2zm31 0q2.3-.7 1.5 1.5l-1.5-1.5zm-145 1l4 5-5.5-3.5 1.5-1.5zm5 0l1.5.5-2.5 1.5 1-2zm90 0l2.5 1.5-1.5-.5-1-1zm23 0l.5 1.5-.5 2.5-2-3 1.5.5.5-1.5zm-34 1l2.5 1.5-1.5-.5-1-1zm8 1l2.5.5-4 2 1 2h-2l1 2-1.5-.5-3-1-1 2-.5-3 3.5 1 4-5zm54 0l1 2-1-2zm-92 1l2.5.5 2 3-2.5-1.5-2-2zm4 0l1 2-1-2zm63 0l1 2q-2.8.7-1-2zm-151 1h2l1.5.5-2 .5 1 3.5h-1l-1.5-4.5zm6 0q2.3-.7 1.5 1.5l-1.5-1.5zm33 0l2 1q1.3-2.2 2.5.5l-4 2-1.5 2.5-1.5-.5 2-.5-.5-2q-1.2 2.3-2.5-.5h4l-.5-2.5zm99 0l.5 2.5-1.5 1.5-.5-2.5 1.5-1.5zm76 1l1 2-1-2zm-216 1l2 3-2-3zm47 0l-3 4-1-2 1 1 3-3zm33 0l-1 2-1.5-.5 2.5-1.5zm6 0l2.5 1.5-1.5 3.5-1.5-1.5 1.5-2.5-2 1 1-2zm119 0l1.5 2.5-2-1 .5-1.5zm-123 1l-.5 1.5.5 1.5 1.5-.5-1 2h2l-.5 1.5 1.5.5-1.5.5-4.5-4.5 2.5-2.5zm43 0q-1.6 1.8 1.5 3.5l-1.5 1.5-1.5-1.5 1.5-3.5zm-47 2l-1 2 1-2zm78 0l-2 3 2-3zm22 0l-.5 1.5 1 2-2-1 1.5-2.5zm-175 1l.5 1.5-1.5 2.5-.5-1.5 1.5-2.5zm5 0q3 1.5 0 3v-3zm38 0l.5 2.5h-1l.5-2.5zm122 0l1 2q-2.8.7-1-2zm37 0l1 2-1-2zm-48 1l1 2-2.5-.5 1.5-1.5zm-36 1l2 3-2-3zm23 0l2 1 1.5-.5-1 2.5-2-.5.5-1.5-1-1zm70 0l1.5 2.5q-2 4.5-4 1l.5-1.5 1 2 1.5-2.5-.5-1.5zm-210 1l1 2-1-2zm70 0l2.5.5 1 2-1.5-.5-3 2q-3.5-2 1-4zm7 0l-1 2 1-2zm88 0l1.5 2.5-2-1 .5-1.5zm-129 2l1 2q-2.8.7-1-2zm81 0l1 2-1-2zm38 0l-1 2 1-2zm-145 1l2 3-1-1-2.5 1.5q3.1-1.7 1.5-3.5zm-10 1l2.5.5-.5 2.5-2-3zm4 0l1 2-1-2zm68 0l1 2-1-2zm44 0l1 2-1-2zm50 0l2.5 3.5-3-2 .5-1.5zm-129 1l1 2q-2.8.7-1-2zm33 0l1.5 3-2-.5.5-2.5zm106 0l-1 2 1-2zm-30 1l-1 2 1-2zm62 0l1.5 3.5q-1.5 3-3 0h2l-.5-3.5zm-135 1l2.5 1.5-1.5.5-1-2zm105 0q2.3-.7 1.5 1.5l-1.5-1.5zm88 0l1 3 3.5-1-1.5 3-4.5-3.5 1.5-1.5zm-257 1l2.5 1.5-1.5-.5-1-1zm28.5 0l2 .5-.5 1.5 1.5.5-1.5.5-1.5-3zm252.5 0q3 1.5 0 3-3-1.5 0-3zm-286 1l2.5 3.5-3-2 .5-1.5zm10 0l-1 2 1-2zm2 0l1 2-1-2zm47 0l.5 2-2-.5 1.5-1.5zm137 0l-1 2 1-2zm62 0l.5 2-2-.5 1.5-1.5zm32 0l3.5 1.5-2 1 .5 1.5-1-3-2 1 1-2zm-150 1l1 2-1-2zm-102 1l-.5 1.5-.5 1.5-.5-1.5 1.5-1.5zm29 0l1 2-1-2zm-60 1l1.5.5-2 1 .5 1.5-1.5-.5 1.5 2.5 1.5.5-1.5.5-3-4 3-2zm6 0l1 2-1-2zm44 0l-2 3 2-3zm2 0l.5 1.5q-2.2 1.3.5 2.5l1.5-.5-5 3q-.7 2.3 1.5 1.5l1.5.5 1.5-2.5-.5 1.5.5 1.5 1.5-.5q-2.2 4.8-4.5.5l-1.5.5.5 1.5-1.5-3.5-1-2h2q-.7-2.2 1.5-1.5l.5-2.5.5-1.5zm3 0l-1 2 1-2zm2 0q3 1.5 0 3v-3zm102 0l.5 1.5-1 3 1 2h-1l-1-4 1.5-2.5zm28 0l.5 1.5-2 1 1.5-2.5zm68 0l1.5.5-3.5 2.5 2-3zm34 0q3 1.5 0 3v-3zm-285 1l1 2-1-2zm157 0q2.3-.7 1.5 1.5l-1.5-1.5zm115 0l2.5.5-1.5 2.5 1.5.5-2.5 1.5-1.5-1.5q3.1-1.7 1.5-3.5zm-142 1q2.8 1.3.5 2.5l1 5-1 1-.5 8.5-.5-8.5v-2l1-5-.5-1.5zm-127 1l1 2-1-2zm23 0l-.5 1.5-.5 1.5-.5-1.5 1.5-1.5zm166 0v3l-2.5-1.5 2.5-1.5zm52 0l.5 2 2 .5-2.5 1.5v-4zm43 0l.5 3.5-3 2q2.8-1.2 2.5-5.5zm-279 1l1 2-1-2zm242 0l1 2-1-2zm-84 1l.5 2.5h-1l.5-2.5zm87 0l1 2-1-2zm-254 1l5 4 2.5-1.5-2.5 2.5q-1.7-3.1-3.5-1.5l-1.5-3.5zm6 0l-1 2 1-2zm252 0l.5 1.5-3 2 2.5-3.5zm-248 1l2.5.5-3 2 .5-2.5zm237 0l1 2-1-2zm25 0l1 2-1-2zm-228 1l-1 2 1-2zm99 0q3 1.5 0 3-3-1.5 0-3zm48 0l1 2-1-2zm69 0l1.5.5-2.5 1.5 1-2zm-78 1q3.3-1.1 2.5 1.5l-1.5-.5-1-1zm64 0l2 3 1.5-.5q-1.5 3-3 0l-.5-2.5zm-230 2l1.5 2.5-1 2 .5 1.5-1.5-2.5 1-2-.5-1.5zm4 0l1.5 1.5-.5 2.5-1.5-.5-.5 1.5-.5-3.5 1.5-1.5zm255 0l1.5 2.5h-1l-.5-2.5zm-269 1l3 1 1.5-.5-2.5 1.5-2-2zm22 0l-1 2 1-2zm227 0l-.5 1.5-.5 1.5-.5-1.5 1.5-1.5zm3 0l1.5.5-2.5 1.5 1-2zm-89 1l.5 2.5h-1l.5-2.5zm-158 1q2.3-.7 1.5 1.5h-3l1.5-1.5zm31 0l.5 2 2.5-1q3.5 2-1 4l-2.5-.5 1-2.5-2-.5 1.5-1.5zm-18 1l3.5 1-.5 2q-1.5-3.5-3-1l-1.5-.5 1.5-1.5zm156 0l.5 2.5h-1l.5-2.5zm-20 1l.5 1.5-1 2 2.5.5 1.5.5-2 1-.5-1.5-1 3-1.5-4.5 1.5-2.5zm-145 1l-1 2 1-2zm129 0l.5 2-2-.5 1.5-1.5zm24 0l2.5 1-.5 2-2.5-.5.5-2.5zm-150 3l1.5 2.5h-1l-.5-2.5zm8 0l1 2-1-2zm15 0l2.5.5q-2.1 3.3-2.5-.5zm89.5 0q2.7-1.1 2 1.5l-1 4h2l-3.5 5.5-.5-1.5 2-3-1-6.5zm49.5 0l-1 2 1-2zm6 1l.5 1.5-1.5 2.5-.5-1.5 1.5-2.5zm1.5 0l2 .5-2 1V154zm-26.5 3l.5 2.5h-1l.5-2.5zm-136 2l2.5.5-2.5.5v-1zm118 0l.5 2.5h-1l.5-2.5zm44 0v3l-1.5-.5 1 2-2-1 2.5-3.5zm-150 1l.5 2.5-2-1 1.5-1.5zm-10 1l1 2-1-2zm-3 1l-1.5 2.5 2 2-1.5 1.5-1-3-3.5 2.5 5.5-5.5zm153 0l2.5.5-2.5.5v-1zm-5 1l1.5 3.5-2-1 .5-2.5z"/><path fill="#020202" stroke="#020202" d="M54.5 164l-1 4q-3.5-2 1-4zm74 0l1.5 3-2-.5.5-2.5zm-62 1l-1 2 1-2zm138 2l-1 2-1.5-.5 2.5-1.5zm-139 1l-1 2 1-2zm-16 1l1.5.5-2.5 1.5 1-2zm20 0l1.5 4 3 1.5-1.5-.5-2.5-1.5-.5-2.5-2.5 1.5 2.5-2.5zm61 0v2l1.5.5-2.5 1.5-1.5-3 2.5-1zm61 0l-1 2 1-2zm-150 1l-1 4h-2l-1.5-.5 4.5-3.5zm2 1l2.5 3.5-.5 2.5-2.5-2.5v-2l.5-1.5zm2 0l2.5 1.5-1.5.5-1-2zm6 0l1.5.5-3 2-.5 1.5-.5-1.5 2.5-2.5zm103 0l-.5 1.5 2 3-3-2 1.5-2.5zm55 0l1.5 2.5-2-1 .5-1.5zm-157 2l2.5.5-2.5.5v-1zm16 0l2 5-3-2-1 2 1.5.5-1.5.5q-1.2-2.2-2.5.5l-.5 46.5-.5-17.5-1-1 1-1 .5-29.5 1 1 3-3 1.5-.5-.5-1.5zm64 0l.5 1.5-1 2 1.5 2.5 1-3 1.5 1.5-1.5 3.5-3.5-5.5 1.5-2.5zm71 0l1.5 2.5h-3l1.5-2.5zm-38 1l-.5 1.5-.5 1.5-.5-1.5 1.5-1.5zm-132 2q3 1.5 0 3l-2.5-.5 2.5-2.5zm20 0l1.5 2.5-2-1 .5-1.5zm107 0l1 2-1-2zm-122 1l.5 1.5-2.5 3.5-3.5-1.5 3.5-2.5 1.5.5.5-1.5zm-1.5 2l-2 2h2v-2zm35.5-2l3.5 4.5-1.5 1.5-4.5-.5 1.5-1.5 3.5.5-2.5-4.5zm-29 1l1.5.5-2 1 .5 1.5-2.5-.5 2.5-2.5zm87 0l1.5 3.5h-1l-.5-3.5zm18 0l2 3q-1.5-3.5-3-1-2.2-.7-1.5 1.5h2l-3 2v-2l1.5-2.5 2-1z"/><path fill="#020202" stroke="#020202" d="M70.5 179l-1 2-2 1-1-2h2l2-1zm68 0l2.5 1.5-1.5.5q-1.8-2.7-3.5 1.5l1 2q-1.5 3-3 0h2l-1-2 3.5-3.5zm145 0l.5 2.5-.5 2.5-3.5-1.5 3-1 .5-2.5zm19 0l-1 2 1-2zm-140 1l-1 2 1-2zm149 0l1 2-1-2zm-258 1l1 2-1-2zm24 0l2.5 1.5-4 3 2.5-3.5-1-1zm-39 1l1 2-1-2zm111 0l-1 2 1-2zm58 0l.5 2-2-.5 1.5-1.5zm-183 1l1 2 2.5-1.5-.5 4.5-3-3-1 1-2 1 3-4zm10 0q4.5 2 1 4v-2q-2.8.7-1-2zm97 0l1 2-1-2zm65 0l2.5.5q-2 3.7-4 2l1 3q-3.7 1.7-.5 3.5l1.5-.5-5 2 3-5-1-3 2.5-2.5zm106 0l-.5 1.5-1.5 2.5.5-1.5 1.5-2.5zm-233 1l1 2-1-2zm217 0q2.3-.7 1.5 1.5l-1.5-1.5z"/><path fill="#020202" stroke="#020202" d="M32.5 185q3 1.5 0 3-2.2.8-1.5-1.5l1.5-1.5zm47 0l-1 2 1-2zm2 0l1 2-1-2zm73 0l1.5 2.5h-1l-.5-2.5zm50 0l-1 2 1-2zm-6 1l3.5 2.5-.5 1.5-.5-2-2.5-2zm86 0l1 2-1-2zm29 0h1.5v4l-3-1.5h2l-.5-2.5zm-289 1l2.5 5.5h-1q.8-2.6-2.5-1.5l-2-3 3 2-.5-1.5.5-1.5zm28 0l-.5 1.5-.5 2.5-.5-2.5 1.5-1.5zm219 0l.5 2.5h-1l.5-2.5zm-195 1l-.5 1.5 2 3q-1.5 3-3 0v-2l1.5-2.5zm5 0l4.5 2.5-1.5.5-3-3z"/><path fill="#020202" stroke="#020202" d="M29.5 189q2.3-.7 1.5 1.5l-2.5 1.5v-1l1.5-.5-.5-1.5zm114 0l4 1 1.5-.5q-1.2 2.8-6.5 1.5l1-2zm60 0l1.5 3.5-1.5 2.5-.5-1.5 1-2h-2l1.5-2.5zm-186 1l-1 2 1-2zm64 0l5 7 1.5-.5-3.5-4.5 5 6h-2l-5.5-4.5-.5-3.5zm118 0l1 2-2.5-.5 1.5-1.5zm-178 1l2.5 2.5v4l-2 2-.5 1.5-1-2-2.5.5-.5 1.5-.5-1.5 1-2.5 5-1.5-2-1 2-1-1.5-2.5zm259 0l2 3-1-1-3 3-1.5-1.5.5-2.5q1.5 2.5 3-1zm19 0l-1 2 1-2zm-220 2l.5 1.5-.5 2.5q-2.2.8-1.5-1.5l1.5-2.5zm227 0q2.8 1.3.5 2.5-.7 2.3 1.5 1.5v1l-2-1-2.5 1 .5-2 1.5.5.5-3.5zm-292 1l1 2-1-2zm270 0v3l-2.5-1q1.1 2.7-1.5 2l2-3 2-1zm15 0q2 4 4 0l1.5.5-3.5 2.5-2-3zm10 1l1 2-1-2zm-109 1l2.5 1.5-1.5.5-1-2zm76 0l2.5 1.5-1.5.5-1-2zm-264 1l.5 1.5-2 1 1.5-2.5zm36 1q2.3-.7 1.5 1.5l-1.5-1.5zm149 0l2.5 1.5-1.5-.5-1.5.5.5 1.5-2.5-1.5 2.5-1.5zm-117 1l1 2-1-2zm-67 1l2.5.5q-2.1 3.3-2.5-.5zm70 0l2.5.5-1.5 2.5-1-3z"/><path fill="#020202" stroke="#020202" d="M87.5 201v3q-3-1.5 0-3zm108 0l1 2-1-2zm5 0l-1 2 1-2zm-111 1l2.5 1.5-1.5-.5-1-1zm98 0l4.5.5q-3.5 1.5-1 3l.5 1.5 2-3 .5 1.5-2.5 2.5-3.5-1.5h2l-1.5-2.5q-2.8.7-1-2zm-177 1l.5 2-2-.5 1.5-1.5zm37 0l-1 2-1.5-.5 2.5-1.5zm37 1l2.5 3.5h-1l-1.5-3.5zm5 0l1 2-1-2zm-76 1l1 2 1.5-.5q-1.5 3-3 0l.5-1.5zm79 0l4.5.5q-3.2 5.3-4.5-.5z"/><path fill="#020202" stroke="#020202" d="M185.5 205l1.5.5-6 5 .5 1.5 1.5-.5-1 2h2q-1.5 3-3 0l-.5-1.5-1 2-1.5-.5-.5 1.5-.5-1.5 8.5-8.5zm-141 1l1 2-1-2zm44 1q1.8 3.1 3.5 1.5l-1.5 1.5-2-3zM8 208l2 .5-2 1V208zm46.5 0l1 2h-2l-5 5-2.5-1.5 1 2-2-1 2.5-4.5-.5 1.5 1.5 2.5 2-4 1.5.5q-.7-2.2 1.5-1.5l1-1zm44 0l1.5 2.5h-1l-.5-2.5zm-82 1q2.3-.7 1.5 1.5l-1.5-1.5zm81 1l-.5 1.5 2.5 3.5q-1.2-2.2-2.5.5l.5 1.5-1.5-1.5q3.8-1.7.5-3.5l-1.5-.5 2.5-1.5zm-55 1l-.5 1.5-.5 1.5-.5-1.5 1.5-1.5zm12 0l1.5 7.5-.5 4.5-1.5-1.5v-4l.5-6.5zm35 0l1 2-1-2zm11 1l1 2-1-2zm92 0q3 1.5 0 3v-3zm-153 1l.5 1.5-3 2 2 1-1.5.5-1.5-1.5 3.5-3.5zm3 2l-1 2 1-2zm-34 1l2.5 1.5-2.5 1.5v-3zm4 0l2.5.5-1.5 2.5-1-3zm107 0l-2 3 2-3zm59 0l-.5 1.5-.5 1.5-.5-1.5 1.5-1.5z"/><path fill="#020202" stroke="#020202" d="M16.5 217l1 4q-4.5-2-1-4zm19 1l2.5 1.5-1.5.5-1-2zm-24 1l2.5 1.5-1.5.5-1-2zm31 0l-1 2-2.5-.5 3.5-1.5zm2 0l2.5.5-4.5 4.5-2.5-.5 3-1q-.7-2.2 1.5-1.5v-2zm75 0l.5 1.5-2 1 1.5-2.5zm-85 1l1 2-1-2zm143 1l1 2-1-2zm-166 1l-.5 1.5-.5 1.5-.5-1.5 1.5-1.5zm6 0l1.5 2.5h-1l-.5-2.5zm4 0q3 1.5 0 3-3-1.5 0-3zm163 0l-1 2-1.5-.5 2.5-1.5zm-169 2q3.5 2-1 4l-1-2q1.3 2.3 2.5-.5l-.5-1.5zm21 0l2 3-2-3zm-13 3l-1 2 1-2zm6 1l1.5.5-2.5 1.5 1-2zm-9 2l2 1h2l2-1-1 2q-4.9.6-5-2zm233 10l-.5 1.5-.5 1.5-.5-1.5 1.5-1.5zm-199 8l1 2q-2.8.7-1-2zm8 0q2.3-.7 1.5 1.5l-1.5-1.5zm189 1l.5 2 2.5-1-2 3-1-4zm9 0l.5 1.5-2.5 1.5v-1q2.5.7 2-2zm-200 1l1 2-1-2zm190 2l2.5 3.5-4.5 4.5h-2l1-2 1.5.5q-.7-2.2 1.5-1.5l-.5-3.5.5-1.5zm9 1l.5 1.5q-3.1 1.8-1.5 3.5-3.2-1.7.5-3.5l.5-1.5zm-203 2l1 2 1.5-.5q-1.5 3-3 0l.5-1.5zm5 1l-2 4 2.5 1.5-1.5-.5-2.5-1.5 3.5-3.5zm3.5 0l2 .5-2 1V256zm191.5 2q2.8 1.3.5 2.5l-2.5 3.5 1-4 1.5-.5-.5-1.5zm-190 1l-1 2 1-2zm2 0l3.5 3.5-1.5 3.5q-3.2-1.7.5-3.5l-2.5-3.5zm-1 3l-1 2 1-2zm176 0l4.5.5-2.5 3.5-1.5-.5 2-.5-.5-2q-1.8 2.5-2-1zm-169 2l.5 2.5-1.5 1.5-.5-2.5 1.5-1.5zm176 0l-1 2 1-2zM62 265l2 .5q-2.2 1.3.5 2.5l1.5-3 4 2.5-.5 1.5-1-2q-3.2 6.3-6.5-.5V265zm191.5 0l-4 5-1-2q-3.7 2-2 4l-2.5-.5q5.4-2.7 3.5-5.5l3.5 2q-1.1-2.7 1.5-2l1-1zm-175 1l.5 2-3.5 1 1-2 2-1zm153 1q2.3-.7 1.5 1.5l-1.5-1.5zm10 1l-1 2 1-2zm-163 1l-1 2 1-2zm156 0q3 1.5 0 3v-3zm-159 4l-1 2 1-2zm5 0q2.3-.7 1.5 1.5l-.5 2.5-1.5-1.5.5-2.5zm153 0l1.5.5-2.5 1.5 1-2zm3 1l1 2-1-2z"/><path fill="#383838" stroke="#383838" d="M78.5 46l2.5.5-2.5.5v-1zm153 0l2.5.5-2.5.5v-1zm-164 5l-1 2 1-2zm182 2l1 2-1-2zm-167 2l3.5.5-3.5.5v-1zm12 0l133.5.5-133.5.5v-1zm159 2l1 2-1-2zm-12 2l1 2-1-2zm-171 2l-1 2 1-2zm181 14l.5 173.5h-1l.5-173.5zm-188 1l.5 20.5h-1l.5-20.5zm-37 15l2.5.5-2.5.5v-1zm-13 3l-2 3 2-3zm26 2l1 2-1-2zm8 8l2 3-2-3zm-30 2l.5 2.5h-1l.5-2.5zm98 0l.5 6.5h-1l.5-6.5zm20 0l-4 5 4-5zm-98 1l1 2-1-2zm121 0l3 4-3-4zm-31 1l.5 6.5h-1l.5-6.5zm-75 3l2.5 1.5-1.5.5-1-2zm-11 1l1 2-1-2zm47 0l-1 2 1-2zm12 0l-1 2 1-2zm40 2l4.5.5-4.5.5v-1zm-55 2l-1 2 1-2zm63 0l3 4-3-4zm-56 7l-1 2 1-2zm-67 4l2 3-2-3zm64 0l-1 2 1-2zm212 2l-2 3 2-3zm-172 1l.5 2.5h-1l.5-2.5zm-43 1l-1 2 1-2zm70 1l.5 2.5h-1l.5-2.5zm-124 1l1 2-1-2zm51 2l-1 2 1-2zm214 1l.5 3.5h-1l.5-3.5zm-127 1l.5 4.5h-1l.5-4.5zm-146 2l1 2-1-2zm28 0l.5 2.5h-1l.5-2.5zm28 0l-1 2 1-2zm-13 1l-1 2 1-2zm-38 3l1 2-1-2zm48 0l-1 2 1-2zm222 1l2 3-2-3zm-266 2l1 2-1-2zm16 0l1 2-1-2zm25 1l-1 2 1-2zm-37 2l1 2-1-2zm34 2l-1 2 1-2zm-30 1l1 2-1-2zm129 0l.5 4.5h-1l.5-4.5zm-124 4l4 5-4-5zm21 10l1 2-1-2zm133 2l1.5 2.5-2 .5.5-3zm-149 6l-2 3 2-3zm99 2l-1 2 1-2zm-119 1l-1 2 1-2zm15 1l-1 2 1-2zm231 0l4.5.5-4.5.5v-1zm27 0l4.5.5-4.5.5v-1zm-20 1l2 3-2-3zm-258 2l-1 2 1-2zm16 0l-1 2 1-2zm10 0l.5 2.5h-1l.5-2.5zm77 0l1 2-1-2zm144 0l-1 2 1-2zm-206 1l1 2-1-2zm94 0l-4 5 4-5zm-29 3l1 2-1-2zm-62 1l1 2-1-2zm227 0l.5 3.5h-1l.5-3.5zm-263 1l-1 2 1-2zm39 3l1 2-1-2zm-58 2l-1 2 1-2zm13 0l-4 5 4-5zm48 2l1 2-1-2zm12 0l1 2-1-2zm185 1l1 2-1-2zm39 0l-1 2 1-2zm-230 7l1 2-1-2zm12 0l1 2-1-2zm92 1l-1 2 1-2zm-89 3l1 2-1-2zm-44 4l1.5.5-2.5 1.5 1-2zm142 1l-1 2 1-2zm-105 2l1 2-1-2zm86 0l-1 2 1-2zm-159 1l.5 2.5h-1l.5-2.5zm83 0l-1 2 1-2zm91 2l-5 6 5-6zm-143 1l-1 2 1-2zm45 0l1 2-1-2zm-52 7l-1 2 1-2zm-30 2l2 3-2-3zm52 0l.5 21.5h-1l.5-21.5zm182 34l-1 2 1-2zm10 3l-1 2 1-2zm-195 1l1 2-1-2zm24 3l146.5.5-146.5.5v-1z"/><path fill="#010101" stroke="#010101" d="M123.5 46q2.6-.7 1.5 2l-3-.5 1.5-1.5zm-45 1l1 2-1-2zm3 0l2.5.5-3 1.5.5-2zm147 0l-1 2 1-2zm-141 1l1.5.5-2 .5 1 2.5-2 .5 1.5-4zm144 0l-1 2 1-2zm-141 1l.5 2-2-.5 1.5-1.5zm137 1l.5 2h-2q1.1 2.7-1.5 2l3-4zm13 0l2.5.5-1.5 2.5-1-3zm-162 1l1.5 2.5-2-1 .5-1.5zm4 0l-.5 1.5-.5 1.5-.5-1.5 1.5-1.5zm10 0l.5 2-2-.5 1.5-1.5zm4 0l63.5.5-63.5.5v-1zm148 1l2.5 1.5-1.5-.5-1-1zm-172 2l-.5 1.5 1 2-1.5-.5-1.5-.5 2.5-2.5zM243 54l2 .5-.5 2.5-1.5-3zM75.5 56l-1 2 1-2zm-10 1l.5 1.5-2 1 1.5-2.5zm3 2l1.5.5-2 1 2 1-1.5.5q-3-1.5 0-3zm177 1q2.3-.7 1.5 1.5l3.5 4.5-5-6zm4 1l2.5 1.5-1.5-.5-1-1zm-193 5l.5 2 3.5 2 1.5-.5q-1.7 3.3-3.5-.5L56 67.5l.5-1.5zm201 0l1 2-1-2zm-4 1l2.5.5-2.5.5v-1zm0 2l1 2q-1.2-2.2-2.5.5l.5 1.5q-3.5-2 1-4zm6 0l-1 2 1-2zm-199 4l.5 3.5h-1l.5-3.5zm-6 1l1.5 2.5h-1l-.5-2.5zm198 0l2.5 3.5-.5 1.5 1.5.5-2 .5-.5 160-.5-159.5.5-1.5-1.5-.5 1-2-.5-2.5zm3 1l2.5.5-2.5.5v-1zm-199 3l1 2 1-2 1 2-1.5.5v15h-1v-15l-.5-2.5zm-35 14l1.5 2.5-2.5 1.5-1-2 1.5.5.5-2.5zm3 0l2.5 1.5-1.5-.5-1-1zm7 1l2 3-2-3zm-16 1l.5 1.5-2 1 1.5-2.5zm19 3l-1 2 1-2zm-14 2l1 2-1-2zm40 0l1 2q-2.8.7-1-2zm-26 1l1 2-1-2zm4 1l-1 2 1-2zm20 3l.5 11.5-1.5 4.5-.5-4.5 1-1 .5-10.5zM43 105q2.7-1.1 2 1.5l.5 1.5-2.5-.5V105zm80.5 0l2 1 1.5-.5q.8 2.3-1.5 1.5l-3 1 .5-1.5.5-1.5zm-6 1l-1 2 1-2zm24 0l1.5.5-2 .5q-1.5 3.7 1.5 3v2q3.3-1.1 2.5 1.5l-1.5-.5-2.5-1.5-.5-1.5q-1.2 2.3-2.5-.5l3.5-3.5zm-93 1l2 3q-1.2-2.2-2.5.5l2 1-1.5.5h-2l-2.5-1.5 1.5.5 3.5-2.5-.5-1.5zm44 1l.5 2.5-1.5 1.5-.5-2.5 1.5-1.5zm84 0q7.8-1.7 9.5 2.5l-2 1q2.3-1.3-.5-2.5h-7v-1zm40 1l7.5.5-7.5.5v-1zm-97 1l-1 2 1-2zm17 0l1 2-2.5-.5 1.5-1.5zm-13.5 1q2.7-1.1 2 1.5l-2 1V111zm-107.5 1l-1 2 1-2zm74 0l1 2-1-2zm97 0l1.5 2.5-1.5-.5-1.5-.5 1.5-1.5zm28 0l1.5 2.5-2-1 .5-1.5zm-97 1l-1 2 1-2zm45 0l.5 2.5q-1.5 3-3 0h2l.5-2.5zm19 0l1 2-1-2zM61 114q3-1 2 2-3 1-2-2zm-44.5 1q3 1.5 0 3v-3zm135 0l.5 2.5h-1l.5-2.5zm-96 1l.5 2.5h-1l.5-2.5zm73 0l.5 2-2.5 1-1-2q1.5 2.5 3-1zm58 0l2.5 1.5-1.5.5-1-2zm-64 1l.5 1.5-2.5 1.5-2.5-.5 4.5-2.5zm-61 1l.5 2-2 .5v15h-1v-15l2.5-2.5zm69 0l2 1 1.5-.5-1 2.5q-2.7 1.1-2-1.5l-.5-1.5zm30 0l1 2-1-2zm-148 1l1 2-1-2zm39 0q2.6-.8 1.5 2.5l2 4h-1q.8-2.2-1.5-1.5l-1.5.5 1.5-2.5-1.5-.5.5-2.5zm-32 1l1 2-1-2zm69 0l-1 2 1-2zm125 0l1.5.5-2.5 1.5 1-2zm-24 1l-1 2-1.5-.5 2.5-1.5zm-171 1l1 2-1-2zm163.5 0l2 .5-2 1V122zm34.5 0l2.5 1.5-1.5.5-1-2zm-53 1h2l1.5.5-2.5 1.5-1-2zm-3 1l-1 2 1-2zm28 0l1 2 1.5-.5q.8 2.3-1.5 1.5l-1-3zm-169 1q2.3-.7 1.5 1.5l-1.5-1.5zm192 0l3 4-3.5-1.5.5-2.5zm-50 1l-1.5 2.5q.8 2.6-2.5 1.5l-1.5.5q-.8-2.6 2.5-1.5l3-3zm57 0q2.3-.7 1.5 1.5l-1.5-1.5zm-202 1q3 1.5 0 3v-3zm113 0l-1 2 1-2zm-107 1l2.5 1.5-1.5-.5-1-1zm57 0l3 2 1.5-.5-2.5 1.5-1-1-2.5 1.5q.8-2.2-1.5-1.5v-1l3 1v-2zm102 0l1.5.5-2 .5 2 3.5-3-2 1.5-2.5zm7 0l.5 3 3 .5-2.5.5q-2.5-1-1-4zm-103 1q3 1.5 0 3v-3z"/><path fill="#010101" stroke="#010101" d="M184.5 129l2.5.5-3 1 5 3-.5 2.5-3-4-2.5-1.5 1.5-1.5zm33.5 0l2 .5-2 1V129zm-164.5 1l2.5.5q-2.1 3.3-2.5-.5zm-36 1l2.5 1.5-1.5.5-1-2zm4 0q2.3-.7 1.5 1.5l-2 1 .5-2.5zm5 0l.5 2.5q.8 2.3-1.5 1.5l-1.5.5 2.5-4.5zm250 0l1 2-1-2zm8 0l1 2 1.5-.5q-1.2 2.8-2.5.5l-1.5-.5 1.5-1.5zm27 0l-1 2 1-2zm-281 1l2 3q-2.2.8-1.5-1.5l-.5-1.5zm51 0l1.5 2.5h-1l-.5-2.5zm192 0q2.6-.8 1.5 2.5l-.5 2.5q-2.7-1.2-.5-2.5l-.5-2.5zm-83 1l.5 2.5h-1l.5-2.5zm28 0l1 2q-2.8.7-1-2zm85 0v3q-3-1.5 0-3zm-248 1v3q-3-1.5 0-3z"/><path fill="#010101" stroke="#010101" d="M216.5 134l.5 3-2.5 1 1.5-2.5.5-1.5zm-138 1q3.5 2-1 4l1-4zm91 0l.5 3-2-.5 1.5-2.5zm109 0l-2 3-.5-2 2.5-1zm2 0l2.5.5-2.5.5v-1zm5 0l2.5 1.5-1.5.5-1-2zm-251 1l.5 2-2.5 1 2-3zm94 0l.5 23.5h-1l.5-23.5zm81 0q2.3-.7 1.5 1.5l-1.5-1.5zm-180 1l-1 2 1-2zm32 1l1 2q-2.8.7-1-2zm9 1l1 2q-2.8.7-1-2zm4 0l1 2-1-2zm135 0l3 1 1.5-.5 1 3-1.5-.5H211q1.1-2.7-1.5-2l-1.5.5 1.5-1.5zm67 0l1.5 2.5-2-1 .5-1.5zm25 0l1 2q-2.8.7-1-2zm-246 1l1.5 2.5-2-1 .5-1.5zm4 0l.5 3.5h-1l.5-3.5zm227 0l1.5.5-2.5 1.5 1-2zm-233 2l1 2q-2.8.7-1-2zm18 0l-1 2 1-2zm204 0l1.5 2.5-2-1 .5-1.5zm-242 1l-1 2-1.5-.5 2.5-1.5zm10 0l1 2-1-2zm235.5 0q3-1 2 2l-2 .5.5 1.5q-2.7-1.2-.5-2.5V143zm5.5 0l-1 2 1-2zm-246 1l3.5 2-.5 2-2.5-.5q2.3-1.3-.5-2.5l-1.5.5 1.5-1.5zm24 0l1 2q-2.8.7-1-2zm126 0l1 2q-2.8.7-1-2zm4 0l-1 2 1-2zm-139 1l2.5.5-1.5 3.5-1-4zm253 0l1 2-2.5-.5 1.5-1.5zM69 146l2 .5-2 1V146zm-10.5 1l2.5 1.5-.5 1.5-2-3zm-10 1l-.5 1.5-.5 1.5-.5-1.5 1.5-1.5zm-10 1l1 2-1-2zm6 0l1.5 3.5h-1l-.5-3.5zm21.5 0l2 .5-2 1V149zm-15.5 3l2.5.5-3 1.5.5-2zm160 0l-.5 1.5-.5 2.5-.5-2.5 1.5-1.5zM64 153l2 .5-.5 2.5-1.5-3zm127.5 0l1 2-1-2zm-142 2l3 1 1.5-.5-1.5 2.5-3-3zm138 0l3.5 1.5-2 1 3 1-1 2.5-2 .5q1.3 2.8 2.5.5 2.3-.7 1.5 1.5l-2.5.5-2.5-2.5 2-2q-3.1-1.7-1.5-3.5l-1-1zm-122 2l-1 2 1-2zm141 0l.5 1.5-2.5 1.5v-1q2.5.7 2-2zm2 1l2 3-2-3zm-157 2q2.8 1.3.5 2.5l-.5 1.5-.5-1.5.5-2.5zm8 0q2.8 1.3.5 2.5l1 2-1.5.5-2.5-1.5 3-2-.5-1.5zm136.5 0l2 .5-.5 1.5 1.5.5-3 2 1-2-1-2.5zm11.5 0l.5 1.5-1.5 2.5-.5-1.5 1.5-2.5zm-50 2l2.5 1.5-1 2 .5 1.5-1.5-.5-.5 1.5-.5-1.5 1-3-.5-1.5zM63 164l2 .5-2 1V164zm131.5 0l.5 2.5-.5 1.5-1.5-2.5 1.5-1.5zm11 1l2 1 1.5-.5-4 1.5.5-2zm-14 1l1 2-2.5-.5 1.5-1.5zm-145 1l1 2-1-2zm20 0l2 3-2 1 .5-1.5-.5-2.5zm93 1l3 1 1.5-.5-3 2q.8-2.2-1.5-1.5l-1.5.5 1.5-1.5zm48 0l-.5 1.5 1 2-3-2 2.5-1.5zm-5 1l.5 1.5-1.5 2.5-1-2q2.5.7 2-2zm-156 1l2.5 1.5-.5 2.5-.5-3-1.5-1zm-4 1l.5 2.5-1 2q2.5 1.5-1 3l-.5 1.5-1.5-2.5 3-1v-2l-1-2 1.5-1.5zm114 0l3.5 2.5-2 1q.8-2.6-2.5-1.5l1-2zm-110 3l2.5 1.5-1.5.5-1-2z"/><path fill="#010101" stroke="#010101" d="M36.5 175q3 1.5 0 3v-3zm171 0l-.5 1.5-.5 1.5-.5-1.5 1.5-1.5zm-14 1q2.6-.8 1.5 2.5h-1l-.5-2.5zm10 0l.5 2.5-4.5 2.5 1-2 2.5-1.5.5-1.5zm-136 1l4.5.5-3.5 1.5-1-2zm96 0l-1 2 1-2zm-34 1l-1 2 1-2zm7 0l1 2-1-2zm-83 1q2.3-.7 1.5 1.5l-1.5-1.5zm19 0l1 2-2.5-.5 1.5-1.5zm4 0l1 2-1-2zm130 0l.5 2h-2q1.1 2.7-1.5 2l3-4zm-12 1l1.5 2.5h-1l-.5-2.5zm3 0l.5 2.5h-1l.5-2.5zm111 0l2.5.5q-2.1 3.3-2.5-.5zm-267 1l-1 2 1-2zm28 0l-1 2 1-2zm69 0v2q2.3-.7 1.5 1.5l.5 1.5-3.5-3.5 1.5-1.5zm165 0h2l1.5.5-2.5 1.5-1-2zm-250 1l1 2-1-2zm146 0l2.5.5-2.5.5v-1zm76 0l3.5 1.5-1.5.5-2-2zm-243 1l.5 2 2 .5-1.5.5-2.5-1.5 1.5-1.5zm27 1l.5 19-2-.5 1-1 .5-17.5zm91 0l2.5.5-2.5.5v-1zm50 0l-1 2-1.5-.5 2.5-1.5zm-146 1l1 2q-2.8.7-1-2zm88 1l1 2-1-2zm54 0l1.5 3-2-.5.5-2.5zm8 0l1.5 1.5-.5 2.5-1.5-1.5.5-2.5zm-127 1l3.5 2.5v2l-.5 1.5-.5-2-2.5 1 1-2 1.5-.5-2.5-2.5zm63 0l-1 2 1-2zm144 0l2.5.5q.8 2.3-1.5 1.5l-1-2zm-133 1l-1 2 1-2zm129 0l3.5 1.5-.5 2.5-2-3-1-1zm-262 2H20q-1.5 3.8 1.5 3v1l-2-1-2.5 1.5 2-3-.5-1.5zm36 0l1.5.5-2 .5q1.1 2.7-1.5 2l2-3zm29 0l1 2-1-2zm217 0l3.5.5-3.5.5v-1zm-214 2l1 2-1-2zm42 0l.5 24.5h-1l.5-24.5zm68 0l1.5.5-3.5 1.5v-1l2-1zm78 0l-.5 1.5-.5 1.5-.5-1.5 1.5-1.5zm11 0l1 2-1-2zm14 0l2.5.5q-2.1 3.3-2.5-.5zm11 0l2.5 1q1.3 3-2.5 2v-3zm-260 1l1.5 2.5h-1l-.5-2.5zm149 0q2.3-.7 1.5 1.5l-2.5 3.5.5-1.5 1-2-.5-1.5zm-2 1l-3 4-.5-2 3.5-2zm5 1l-1 2 1-2zm-120 1q3 1.5 0 3-2.2.8-1.5-1.5l1.5-1.5zm198 0l-1 2 1-2zm-263 1l-1 2-1.5-.5 2.5-1.5zm32.5 0l2 .5-2 1V197zm140.5 0l.5 2.5h-1l.5-2.5zm-102 1l-1 2 1-2zm-75 1l-1 2-1.5-.5 2.5-1.5zm48 1l.5 3.5h-1l.5-3.5zm137 0l1.5 3.5-2-1 .5-2.5zm-187 2l1 2 2.5-1.5q-2 4.5-4 1l.5-1.5zm5 0q2.7 1.3.5 2.5l1 2-2-1 1-2-.5-1.5zm176 0l.5 1.5-.5 2.5q-2.8-1.2-.5-2.5l.5-1.5zm-105 2l3 4-3-4zm-41 1l.5 3 2 .5-1.5.5q-2.5-1-1-4zm149 0v2l2-1-1 2-2 1-.5-2.5 1.5-1.5zm-185 1l3.5 2.5-2.5-1.5-2 1 1-2zm49 1l-.5 1.5v15l2 5h-1l-2-5v-15l1.5-1.5zm33 0l3.5 2.5-2 1 .5-1.5-2 1v-3zm100 2l1 2-1-2zm-103 1l1 2-1-2zm3 1l2.5 1.5-1.5.5-1-2zm7 0l.5 2-2.5 1 2-3zm-56 3l2 3-2-3zm141 2l1.5 2.5h-3l1.5-2.5zm-144 1l3.5.5-3.5.5v-1zm-31 2l2 3-2-3zm172 0l.5 2-3-.5 2.5-1.5zM15 220l2.5 1 1.5-.5-5 2 1-2.5zm22.5 0l1 2-2.5-.5 1.5-1.5zm6 0l-1 2 1-2zm77 1l7.5.5-7.5.5v-1zm-93 2v3q-3-1.5 0-3zm3.5 0l2 .5-2 1V223zm3 0l2 .5-.5 2.5-1.5-3zm-21.5 3l1 2-1-2zm9 0l1 2-2.5-.5 1.5-1.5zm11 0l2.5 1.5-1.5.5-1-2zm-16 1l-1 2 1-2zm11 0q2.3-.7 1.5 1.5l-1.5-1.5zm30 0l.5 1.5-1.5 2.5-.5-1.5 1.5-2.5zm0 5l.5 8.5h-1l.5-8.5zm-3 6q2.3-.7 1.5 1.5l-1.5-1.5zm7 2q2.3-.7 1.5 1.5l-1.5-1.5zm-7.5 1l2 .5-2 1V241zm199.5 0l2 3-2-3zm-194 2l3.5 2.5-1.5 2.5-2.5-3.5.5-1.5zm194 3l2 2 2.5-1.5q.8 2.3-1.5 1.5l-1 1-2-3zm-193 5l2.5.5q.8 2.3-1.5 1.5l-1-2zm-4 1l3.5 1.5-.5 2.5-2-3-1-1zm7 4l.5 2 2 .5-1.5.5-2.5-1.5 1.5-1.5zm191 2l-.5 1.5-1.5 2.5-2 1 1-2q2.3.8 1.5-1.5l1.5-1.5zm-193 4q2.3-.7 1.5 1.5l-1.5-1.5zm9 0l-2 3 2-3zm1 4l2 3-1-1-2.5 1.5 1.5-3.5zm11 1l.5 2-3 1.5 3 1-4 .5-1-3.5 1.5.5 3-2zm151 0l2.5 1.5-1.5.5-1-2zm4 0l2.5 1.5-3.5 2.5 1-4zM84 268l2 .5-2 1V268zm4.5 0h135l2.5 2.5-2.5-1.5h-135l-1 1 1-2zm142 0l1.5 4.5-1.5 2.5-1-2q2.3.8 1.5-1.5-3.8-1.7-.5-3.5zm11 1q3 1.5 0 3v-3zm-14 2l.5 2.5-2 1 1.5-3.5zm12 0v3l-2.5-1.5 2.5-1.5zm-4 2l.5 1.5-2 1 1.5-2.5zM83 275q3.8-1.5 3 1.5h-3V275z"/></svg>