<svg xmlns="http://www.w3.org/2000/svg" role="img" viewBox="-1.62 -0.62 58.11 58.11"><title>pyShake logo</title><path fill="#F1F6F6" stroke="#F1F6F6" d="M28.5 29l.5 1.5-2 1 1.5-2.5zm3 5l-1 2 1-2zm-3 1l.5 2.5h-1l.5-2.5zm17 1l-1 2 1-2zm-24 2l2.5.5-2.5.5v-1zm-15 8l3 4-3-4zm40 2l-1 2 1-2z"/><path fill="#FFF" stroke="#FFF" d="M0 0h55v20.5h-1Q51.9 10.6 44.5 6q-7.2-7.3-24-5Q10.6 4.1 5 11.5L.5 22 0 0z"/><path fill="#FFF" stroke="#FFF" d="M23.5 4Q42 3 48 14.5l4 10v8Q49.6 42.6 42.5 48q-6.2 5.3-18 5-11-2-16.5-9.5-5.5-6.5-5-19Q5.4 13.4 13.5 8l10-4zM21 28v11h3v-8h5v2l4 2v1l-2-1q-5-1-3 3l6 1q2-1 2-4l-4-3 4-1-1-3-5 1-9-1zm16 0v15q5 2 3-4l5-1q3-2 1-7-2-4-9-3z"/><path fill="#FFF" stroke="#FFF" d="M40 31q4.5-1.7 3 3.5L40 36v-5z"/><path fill="#FFF" stroke="#FFF" d="M.5 35L2 40.5 9.5 50l12 6h12q9.6-2.9 15.5-9.5 4.3-4.2 5.5-11.5l.5 23H0l.5-23z"/><path fill="#81AAAC" stroke="#81AAAC" d="M26.5 3l2.5.5-2.5.5V3zm-4 25l1 2-1-2zm16 0l3.5.5-3.5.5v-1zm-30 16l2 3-2-3z"/><path fill="#CBDCDD" stroke="#CBDCDD" d="M9.5 7l-3 4 3-4zm38 2l1 2-1-2zm-3 1l1 2-1-2zm0 19l1 2-1-2zm-4 9l1.5.5-2.5 1.5 1-2z"/><path fill="#38797C" stroke="#38797C" d="M25.5 1Q42 1.5 49 11.5q5.9 6.6 6 19l-4 12-5.5 6.5q-6.5 6.5-19 7l-9-2L7 46.5q-6.8-6.7-7-20Q2 13.5 10.5 7l7-4 8-2zM25 3L13 8l-8 9-3 10q0 11 5 17l6 5 8 4q4-1 6 1l8-1 8-4 7-8 3-10q0-12-5-17Q42 3 25 3z"/><path fill="#38797C" stroke="#38797C" d="M22.5 29h2l3.5.5-4 .5-1.5 8v-9zm8 0q5.4-1.9 4.5 1.5l-1.5-.5q-3.7-1-2.5 2l4 2.5-1.5 3.5q-3.7.8-4.5-1.5l1.5-.5 2 1q3-1.5 0-3L29 31.5l1.5-2.5zm6.5 0h6.5l1.5 1.5 1 4-1 2.5-6 1-.5 5-1.5-1.5V29zm2 1v6l3 1q3-1 2-6l-5-1z"/><path fill="#A0BFC1" stroke="#A0BFC1" d="M11.5 9l-3 4 3-4zm18 23l1 2-1-2zm-6 1l.5 4.5h-1l.5-4.5zm22 12l-1 2 1-2z"/><path fill="#619597" stroke="#619597" d="M52.5 25l.5 5.5h-1l.5-5.5zm-50 1l.5 4.5H2l.5-4.5zm19 3l.5 8.5h-1l.5-8.5zm12 6l-1 2-1.5-.5 2.5-1.5zm-22 12l1 2-1-2zm15 6l2.5.5-2.5.5v-1z"/></svg>