<svg xmlns="http://www.w3.org/2000/svg" role="img" viewBox="58.58 178.58 879.84 500.84"><title>PySceneDetect logo</title><path fill="#fefefe" d="M0 500V0h1000v1000H0z"/><path fill="#969fa5" d="M176 662.092c-2.241-.636-2.496-1.22-2.462-5.65.053-7.087.81-8.442 4.708-8.442 4.35 0 6.983-1.965 9.19-6.858l1.805-4.004-9.37-24.721c-8.542-22.535-9.658-24.893-12.621-26.668-2.944-1.763-3.25-2.398-3.25-6.74 0-3.45.444-4.965 1.582-5.402 3.063-1.175 27.955-.67 29.218.593.66.66 1.2 3.174 1.2 5.587 0 3.956-.295 4.498-3 5.52-1.65.622-3 1.594-3 2.16 0 1.984 7.173 22.533 7.865 22.533.731 0 8.575-22.983 7.977-23.372-.188-.123-1.58-.755-3.092-1.404-2.467-1.06-2.75-1.687-2.75-6.096 0-3.558.436-5.081 1.582-5.521 3.063-1.175 27.955-.67 29.218.593.66.66 1.2 3.158 1.2 5.551 0 3.962-.29 4.473-3.25 5.717-3.065 1.289-3.67 2.495-10.63 21.2-15.415 41.432-17.05 45.226-21.477 49.822-5.517 5.728-13.019 7.764-20.643 5.602zm86-23.717c-9.248-1.79-20.99-7.62-23.031-11.434-1.406-2.625-1.225-17.285.231-18.741 1.591-1.591 11.265-1.553 12.584.05.566.688 1.343 3.36 1.727 5.94.384 2.579 1.438 5.328 2.343 6.108 4.958 4.275 17.829 5.06 23.248 1.419 2.904-1.951 3.441-2.936 3.693-6.77.42-6.376-2.698-9.045-15.835-13.557-12.513-4.297-16.74-6.38-21.59-10.638-10.074-8.845-9.78-24.109.635-33.024 10.238-8.764 29.654-9.97 44.648-2.774 9.48 4.55 10.347 5.797 10.347 14.885 0 4.703-.473 8.234-1.2 8.961-1.625 1.625-11.265 1.55-12.634-.1-.593-.714-1.385-3.22-1.76-5.567-.906-5.664-3.577-7.316-12.783-7.907-8.103-.52-12.39.961-15.202 5.254-2.139 3.265-1.05 7.936 2.429 10.413 1.483 1.056 7.277 3.515 12.876 5.463 11.854 4.127 15.383 5.825 20.562 9.895 6.966 5.475 10.15 15.672 7.727 24.749-1.57 5.881-8.854 13.067-15.609 15.4-4.942 1.705-18.769 2.872-23.406 1.975zm67.718-.405c-5.478-1.379-8.733-3.303-12.919-7.638-11.349-11.753-11.78-36.12-.858-48.528 5.828-6.621 12.374-9.223 23.059-9.167 9.317.049 15.177 1.735 20.72 5.962l3.356 2.56-.288 8.67-.288 8.671-6.337.3c-7.233.342-8.69-.463-9.598-5.307-.79-4.21-3.832-6.493-8.653-6.493-7.53 0-11.24 6.105-11.24 18.5 0 12.152 3.734 18.5 10.881 18.5 4.906 0 6.335-.86 8.51-5.123L348.04 615h7.51c8.647 0 9.44.751 7.526 7.137-1.555 5.191-7.478 11.695-12.8 14.058-5.01 2.224-15.258 3.109-20.56 1.775zm63.016.006c-13.521-3.414-21.416-13.556-22.461-28.854-1.27-18.583 7.707-33.108 22.34-36.145 12.611-2.618 24.192 2.044 29.757 11.979 2.665 4.759 3.108 6.657 3.467 14.864.317 7.238.095 9.61-.963 10.279-.756.479-8.885.877-18.065.886-9.18.008-16.912.373-17.182.81-1.052 1.702 3.299 9.115 6.245 10.639 4.187 2.165 12.685 1.95 17.987-.456 2.398-1.088 4.751-1.978 5.23-1.978 1.188 0 4.911 7.464 4.911 9.845 0 5.55-20.437 10.864-31.266 8.13zM408 595.95c0-2.832-2.59-7.579-4.545-8.329-3.097-1.188-7.201-.609-9.72 1.373-2.552 2.007-5.074 7.334-3.987 8.421.322.322 4.56.585 9.419.585 8.238 0 8.833-.138 8.833-2.05zm121.734 42.025c-13.521-3.413-21.416-13.555-22.461-28.853-1.27-18.583 7.707-33.108 22.34-36.145 12.611-2.618 24.192 2.043 29.757 11.979 2.665 4.759 3.108 6.657 3.467 14.864.317 7.238.095 9.61-.963 10.279-.756.479-8.885.877-18.065.886-9.18.008-16.912.372-17.182.81-1.052 1.702 3.299 9.115 6.245 10.639 4.187 2.165 12.685 1.95 17.987-.456 2.398-1.088 4.751-1.978 5.23-1.978 1.188 0 4.911 7.463 4.911 9.845 0 5.55-20.437 10.864-31.266 8.13zM545 595.95c0-2.832-2.59-7.579-4.545-8.329-3.097-1.188-7.201-.609-9.72 1.373-2.552 2.007-5.074 7.334-3.987 8.421.322.322 4.56.585 9.419.585 8.238 0 8.833-.138 8.833-2.05zm128.734 42.025c-13.521-3.413-21.416-13.555-22.461-28.853-1.27-18.583 7.707-33.108 22.34-36.145 12.611-2.618 24.192 2.043 29.757 11.979 2.665 4.759 3.108 6.657 3.467 14.864.317 7.238.095 9.61-.963 10.279-.756.479-8.885.877-18.065.886-9.18.008-16.912.372-17.182.81-1.052 1.702 3.299 9.115 6.245 10.639 4.187 2.165 12.685 1.95 17.987-.456 2.398-1.088 4.751-1.978 5.23-1.978 1.188 0 4.911 7.463 4.911 9.845 0 5.55-20.437 10.864-31.266 8.13zM689 595.95c0-2.832-2.59-7.579-4.545-8.329-3.097-1.188-7.201-.609-9.72 1.373-2.552 2.007-5.074 7.334-3.987 8.421.322.322 4.56.585 9.419.585 8.238 0 8.833-.138 8.833-2.05zm44.684 41.665c-4.547-1.697-7.302-4.042-9.536-8.113-1.313-2.392-1.75-6.964-2.148-22.49-.475-18.526-.599-19.503-2.5-19.79-6.631-.996-6.5-.85-6.5-7.222 0-6.37-.124-6.233 6.5-7.22 1.723-.257 2.07-1.266 2.5-7.29l.5-6.99h17l.5 7c.495 6.923.533 7.003 3.5 7.274 7.436.68 7.5.742 7.5 7.226s-.064 6.546-7.5 7.226l-3 .274-.276 15.886c-.326 18.775.191 20.313 7.006 20.806l4.261.308.85 5.37c.657 4.149.531 5.686-.55 6.768-2.084 2.083-13.495 2.699-18.107.977zm47.05.36c-13.521-3.413-21.416-13.555-22.461-28.853-1.27-18.583 7.707-33.108 22.34-36.145 12.611-2.618 24.192 2.043 29.757 11.979 2.665 4.759 3.108 6.657 3.467 14.864.317 7.238.095 9.61-.963 10.279-.756.479-8.885.877-18.065.886-9.18.008-16.912.372-17.182.81-1.052 1.702 3.299 9.115 6.245 10.639 4.187 2.165 12.685 1.95 17.987-.456 2.398-1.088 4.751-1.978 5.23-1.978 1.188 0 4.911 7.463 4.911 9.845 0 5.55-20.437 10.864-31.266 8.13zM796 595.95c0-2.832-2.59-7.579-4.545-8.329-3.097-1.188-7.201-.609-9.72 1.373-2.552 2.007-5.074 7.334-3.987 8.421.322.322 4.56.585 9.419.585 8.238 0 8.833-.138 8.833-2.05zm46.718 42.02c-5.478-1.379-8.733-3.303-12.919-7.638-11.349-11.753-11.78-36.12-.858-48.528 5.828-6.621 12.374-9.223 23.059-9.167 9.317.049 15.177 1.735 20.72 5.962l3.356 2.56-.288 8.67-.288 8.671-6.337.3c-7.233.342-8.69-.463-9.598-5.307-.79-4.21-3.832-6.493-8.653-6.493-7.53 0-11.24 6.105-11.24 18.5 0 12.152 3.734 18.5 10.881 18.5 4.906 0 6.335-.86 8.51-5.123L861.04 615h7.51c8.647 0 9.44.751 7.526 7.137-1.555 5.191-7.478 11.695-12.8 14.058-5.01 2.224-15.258 3.109-20.56 1.775zm59.966-.355c-4.547-1.697-7.302-4.042-9.536-8.113-1.313-2.392-1.75-6.964-2.148-22.49-.475-18.526-.599-19.503-2.5-19.79-6.631-.996-6.5-.85-6.5-7.222 0-6.37-.124-6.233 6.5-7.22 1.723-.257 2.07-1.266 2.5-7.29l.5-6.99h17l.5 7c.495 6.923.533 7.003 3.5 7.274 7.436.68 7.5.742 7.5 7.226s-.064 6.546-7.5 7.226l-3 .274-.276 15.886c-.326 18.775.191 20.313 7.006 20.806l4.261.308.85 5.37c.657 4.149.531 5.686-.55 6.768-2.084 2.083-13.495 2.699-18.107.977zM89.2 636.8c-1.316-1.316-1.604-7.616-.433-9.457.405-.636 2.31-1.565 4.235-2.064l3.498-.906v-59.746l-3.498-.906c-1.925-.499-3.83-1.428-4.235-2.064-1.278-2.009-.828-8.362.682-9.614 1.07-.888 7.68-1.1 25.25-.807 19.324.32 24.658.717 28.357 2.108 6.05 2.273 11.332 6.76 14.695 12.48 2.42 4.117 2.748 5.693 2.737 13.176-.014 10.03-1.98 14.698-8.57 20.338-5.968 5.109-11.647 6.81-24.705 7.404l-11.287.513.287 8.561.287 8.562 3.498.904c1.925.497 3.83 1.425 4.235 2.061 1.171 1.84.883 8.141-.433 9.457-.834.834-6.111 1.2-17.3 1.2s-16.466-.366-17.3-1.2zm46.704-46.065c4.23-2.174 6.485-6.25 6.405-11.575-.15-9.887-4.505-13.15-17.559-13.156L116 566v26l8.75-.015c4.95-.008 9.794-.55 11.154-1.25zm297.285 46.403c-.868-.55-1.206-2.49-1-5.735.293-4.623.51-4.968 3.811-6.033l3.5-1.13.272-18.643c.21-14.426-.015-18.72-1-18.983-7.16-1.918-7.261-2.004-7.583-6.456-.48-6.634.455-7.16 12.683-7.143 5.846.008 11.155.35 11.799.76.644.41 1.47 1.936 1.835 3.391l.664 2.646 4.665-2.895c8.614-5.345 18.802-4.809 25.827 1.36 5.922 5.199 6.667 8.073 7.286 28.094l.552 17.872 3.5 1.128c3.204 1.034 3.526 1.494 3.811 5.453.5 6.941-.048 7.176-16.733 7.176-10.083 0-15.054-.376-15.878-1.2-1.326-1.326-1.6-7.621-.414-9.487.415-.654 1.983-1.655 3.484-2.226l2.73-1.038v-16.07c0-15.729-.052-16.122-2.455-18.524-4.263-4.264-14.499-2.491-15.904 2.755-.869 3.242-.762 30.08.124 31.31.404.562 1.973 1.564 3.485 2.229 2.463 1.082 2.75 1.72 2.75 6.123 0 3.558-.436 5.081-1.582 5.521-2.395.919-28.728.697-30.23-.255zM570.2 636.8c-1.316-1.316-1.604-7.616-.433-9.457.405-.636 2.31-1.565 4.235-2.064l3.498-.906v-59.746l-3.498-.906c-1.925-.499-3.83-1.428-4.235-2.064-1.171-1.84-.883-8.141.433-9.457 1.738-1.738 39.431-1.609 46.947.16 10.971 2.583 18.803 9.044 23.752 19.594 2.482 5.292 2.601 6.324 2.601 22.546s-.12 17.254-2.601 22.546c-4.949 10.55-12.78 17.011-23.752 19.593-7.516 1.77-45.21 1.899-46.947.161zm44.098-15.151c4.418-1.846 9.436-7.817 10.403-12.378.44-2.074.799-8.721.799-14.771 0-13.877-.814-17.649-4.784-22.17-4.228-4.816-8.218-6.33-16.684-6.33H597v57h7.032c3.868 0 8.487-.608 10.266-1.351zM77.2 484.8c-1.744-1.744-1.744-285.856 0-287.6 1.744-1.744 285.856-1.744 287.6 0 1.744 1.744 1.744 285.856 0 287.6-1.744 1.744-285.856 1.744-287.6 0zM278 398c1.92-1.92 2-3.323 1.985-34.75-.008-18.012-.37-33.308-.803-33.99-.604-.951-11.603-1.3-47.235-1.5-38.958-.218-46.447-.485-46.447-1.656 0-.97 13.558-5.556 44.343-15l44.343-13.604-.47-3.5c-.838-6.25-3.368-11-5.86-11-2.647 0-100.83 29.841-102.48 31.147-1.02.806-2.43 8.43-2.46 13.293-.007 1.066.91 3.186 2.036 4.71 1.96 2.65 2.048 4.096 2.048 33.753 0 30.884.007 30.989 2.223 32.54 1.942 1.361 8.803 1.557 54.5 1.557 50.944 0 52.328-.051 54.277-2zm-107.429-1.571c-2.353-2.354-2.353-48.504 0-50.858 1.388-1.387 7.574-1.571 52.929-1.571 45.355 0 51.54.184 52.929 1.571 2.353 2.354 2.353 48.504 0 50.858-1.388 1.387-7.574 1.571-52.929 1.571-45.355 0-51.54-.184-52.929-1.571zM172 340.127c0-1.03 2.043-3.756 4.54-6.058 3.857-3.555 5.088-4.139 8.173-3.877 1.998.17 3.823.887 4.055 1.594.233.708-1.586 3.295-4.041 5.75-3.845 3.845-5.037 4.464-8.595 4.464-3.372 0-4.132-.345-4.132-1.873zm14 0c0-1.03 2.015-3.73 4.478-6 3.7-3.41 5.176-4.127 8.5-4.127 5.363 0 5.312 2.11-.186 7.712-3.662 3.73-4.766 4.288-8.5 4.288-3.528 0-4.292-.333-4.292-1.873zm14.44.777c-.372-.602 1.514-3.322 4.192-6.043 4.396-4.467 5.248-4.918 8.79-4.654 2.158.161 4.113.872 4.346 1.58.232.707-1.586 3.294-4.041 5.75-3.824 3.823-5.048 4.463-8.536 4.463-2.24 0-4.378-.493-4.75-1.096zm14.56-.777c0-1.03 2.043-3.756 4.54-6.058 3.857-3.555 5.088-4.139 8.173-3.877 1.998.17 3.823.887 4.055 1.594.233.708-1.586 3.295-4.041 5.75-3.845 3.845-5.037 4.464-8.595 4.464-3.372 0-4.132-.345-4.132-1.873zm14.44.777c-.372-.602 1.497-3.302 4.154-6 4.097-4.159 5.406-4.904 8.618-4.904 5.114 0 4.994 2.195-.42 7.712-3.468 3.533-4.865 4.288-7.941 4.288-2.053 0-4.038-.493-4.41-1.096zm14.56-.777c0-1.03 2.043-3.756 4.54-6.058 3.857-3.555 5.088-4.139 8.173-3.877 1.998.17 3.823.887 4.055 1.594.233.708-1.586 3.295-4.041 5.75-3.845 3.845-5.037 4.464-8.595 4.464-3.372 0-4.132-.345-4.132-1.873zm14 0c0-1.03 2.015-3.73 4.478-6 3.7-3.41 5.176-4.127 8.5-4.127 5.363 0 5.312 2.11-.186 7.712-3.662 3.73-4.766 4.288-8.5 4.288-3.528 0-4.292-.333-4.292-1.873zm14.473.83c-.794-1.286 1.292-3.957 3.09-3.957 1.781 0 2.575 1.477 1.833 3.41-.685 1.786-3.934 2.146-4.923.546zm-105.25-9.514c-2.479-1.735-3.081-7.185-1.023-9.243 2.058-2.058 7.508-1.456 9.243 1.023 2.136 3.049 1.963 4.462-.898 7.322-2.86 2.86-4.273 3.034-7.322.898zm10.273-9.447c-.997-1.103-3.542-2.47-5.655-3.039-4.954-1.334-4.927-3.551.062-5.046 3.627-1.087 4.296-.944 9.5 2.033 6.108 3.495 6.998 5.573 3.032 7.08-3.693 1.405-4.899 1.226-6.939-1.028zm10.004-5.027c-6.12-3.587-6.575-6.08-1.349-7.371 3.162-.781 4.37-.497 9 2.117 6.406 3.616 7.177 5.626 2.75 7.17-4.323 1.507-4.67 1.442-10.401-1.916zm14.992-3.579c-2.746-1.435-5.538-3.123-6.206-3.75-1.924-1.808.049-3.748 4.32-4.247 2.978-.348 5.054.199 8.826 2.326 2.712 1.53 5.115 3.35 5.338 4.045.228.71-1.151 1.915-3.15 2.75-4.355 1.82-3.233 1.958-9.128-1.124zm12.327-4.92c-5.721-2.98-6.688-4.362-4.28-6.122 2.77-2.026 6.963-1.634 12.494 1.169 5.44 2.756 6.647 5.8 2.717 6.853-3.815 1.022-6.072.63-10.931-1.9zm13.693-4.243c-6.406-3.503-6.939-5.72-1.747-7.275 3.607-1.08 4.299-.933 9.562 2.037 6.183 3.49 7.082 5.525 3.108 7.036-3.836 1.458-5.453 1.192-10.923-1.798zm13.686-4.361c-6.189-3.608-6.526-5.908-1.064-7.262 3.147-.78 4.34-.48 9.24 2.324 3.094 1.77 5.626 3.817 5.626 4.548 0 1.234-4.897 3.552-7.4 3.502-.605-.012-3.486-1.413-6.402-3.112zm14.69-3.745c-6.575-3.513-7.206-6.172-1.783-7.512 3.075-.76 4.39-.465 8.935 2 2.931 1.59 5.511 3.46 5.733 4.155.226.71-1.158 1.917-3.153 2.75-4.415 1.845-3.399 1.99-9.732-1.393zM265 288.5c-.92-1.109-.999-1.902-.264-2.637 1.645-1.645 4.764-.573 4.764 1.636 0 2.484-2.759 3.098-4.5 1z"/><path fill="#585f6c" d="M175.843 659.972c-.911-.532-1.501-1.756-1.31-2.72 1.431-7.233 1.443-7.252 4.41-7.252 3.824 0 8.431-3.98 10.451-9.027l1.614-4.034-9.604-25.22c-5.283-13.87-10.065-25.782-10.627-26.469-.562-.688-1.867-1.25-2.9-1.25-1.558 0-1.877-.764-1.877-4.5V575h28.115l-.307 4.21c-.26 3.552-.699 4.301-2.808 4.791-1.464.34-2.614 1.393-2.775 2.54-.412 2.932 8.349 26.959 9.83 26.959 1.159 0 9.945-24.07 9.945-27.246 0-.717-1.35-1.574-3-1.904-2.785-.557-3-.914-3-4.975V575h28v4.025c0 3.352-.41 4.18-2.452 4.957-3.219 1.224-3.461 1.756-16.063 35.333-5.949 15.848-12.097 30.835-13.663 33.304-1.905 3.005-4.25 5.126-7.085 6.414-4.52 2.051-12.163 2.533-14.894.939zm81.387-24.522c-6.332-1.705-9.946-3.499-14.11-7.003-3.038-2.556-3.12-2.846-3.12-11.036V609h10.824l.661 4.25c1.091 7.016 1.491 7.697 5.808 9.9 12.41 6.33 27.707 1.501 27.707-8.747 0-6.819-4.944-10.623-20.5-15.773-10.333-3.421-17.667-7.671-21.176-12.271-2.355-3.088-2.849-4.803-3.1-10.766-.372-8.768 1.987-13.527 9.058-18.274 11.361-7.628 32.961-6.684 45.875 2.004 3.285 2.21 3.348 2.391 3.633 10.463l.29 8.214h-10.939l-1.16-5.588c-1.051-5.067-1.5-5.732-4.82-7.128-10.59-4.45-23.767-1.865-26.739 5.248-3.297 7.891 1.832 12.856 19.078 18.468 18.655 6.07 25.5 13.092 25.5 26.154 0 9.656-8.014 18.396-19.033 20.76-6.84 1.467-17.325 1.262-23.737-.464zm69.953-.291c-6.563-2.342-11.333-6.837-14.366-13.54-1.971-4.356-2.316-6.759-2.317-16.119 0-10.036.246-11.502 2.814-16.73 5.308-10.81 14.61-15.518 28.573-14.462 5.45.412 8.999 1.339 13.05 3.408l5.563 2.842.29 8.221.29 8.221h-11.843l-1.127-4.479c-1.396-5.542-5.316-8.025-11.384-7.211-8.46 1.135-12.3 8.769-11.528 22.926.515 9.448 2.408 13.992 6.77 16.247 6.02 3.113 11.79 1.445 15.538-4.493 2.578-4.084 2.585-4.087 8.287-3.789 4.994.262 5.746.572 6.018 2.481.357 2.51-2.072 7.747-5.178 11.165-5.913 6.507-19.322 8.926-29.45 5.312zm64.182.752c-6.395-1.853-12.667-7.11-15.788-13.234-2.45-4.805-3.041-7.355-3.388-14.598-.936-19.59 8.03-32.382 23.692-33.802 9.259-.84 15.66 1.168 21.114 6.623 5.338 5.337 7.093 10.284 7.34 20.691l.165 6.909-18 .5-18 .5-.272 3c-.345 3.802 2.776 8.922 7.013 11.505 4.234 2.582 11.198 2.58 17.998-.005 2.894-1.1 5.364-2 5.49-2 .127 0 1.135 1.773 2.24 3.94 1.806 3.54 1.855 4.094.475 5.473-4.217 4.218-21.915 6.864-30.08 4.498zm18.432-39.443c.744-7.589-8.132-13.586-15.152-10.238-4.568 2.178-8.411 10.67-5.946 13.136.385.385 5.223.572 10.75.417l10.051-.283zm118.568 39.443c-6.395-1.853-12.667-7.11-15.788-13.234-2.45-4.805-3.041-7.355-3.388-14.598-.936-19.59 8.03-32.382 23.692-33.802 9.259-.84 15.66 1.168 21.114 6.623 5.338 5.337 7.093 10.284 7.34 20.691l.165 6.909-18 .5-18 .5-.272 3c-.345 3.802 2.776 8.922 7.013 11.505 4.234 2.582 11.198 2.58 17.998-.005 2.894-1.1 5.364-2 5.49-2 .127 0 1.135 1.773 2.24 3.94 1.806 3.54 1.855 4.094.475 5.473-4.217 4.218-21.915 6.864-30.08 4.498zm18.432-39.443c.744-7.589-8.132-13.586-15.152-10.238-4.568 2.178-8.411 10.67-5.946 13.136.385.385 5.223.572 10.75.417l10.051-.283zm125.568 39.443c-6.395-1.853-12.667-7.11-15.788-13.234-2.45-4.805-3.041-7.355-3.388-14.598-.936-19.59 8.03-32.382 23.692-33.802 9.259-.84 15.66 1.168 21.114 6.623 5.338 5.337 7.093 10.284 7.34 20.691l.165 6.909-18 .5-18 .5-.272 3c-.345 3.802 2.776 8.922 7.013 11.505 4.234 2.582 11.198 2.58 17.998-.005 2.894-1.1 5.364-2 5.49-2 .127 0 1.135 1.773 2.24 3.94 1.806 3.54 1.855 4.094.475 5.473-4.217 4.218-21.915 6.864-30.08 4.498zm18.432-39.443c.744-7.589-8.132-13.586-15.152-10.238-4.568 2.178-8.411 10.67-5.946 13.136.385.385 5.223.572 10.75.417l10.051-.283zm42.846 39.504c-1.572-.471-3.772-1.67-4.888-2.664-4.125-3.673-4.755-7.258-4.755-27.076 0-13.314-.352-19.184-1.2-20.032-.66-.66-2.685-1.2-4.5-1.2-3.293 0-3.3-.01-3.3-5s.007-5 3.3-5c4.703 0 5.7-1.521 5.7-8.7V560h14v6.3c0 3.567.52 6.82 1.2 7.5.66.66 3.135 1.2 5.5 1.2h4.3v10h-4.378c-2.61 0-4.864.587-5.585 1.455-.87 1.048-1.113 6.241-.872 18.59.325 16.608.408 17.194 2.696 19.045 1.298 1.05 3.833 1.91 5.633 1.91 3.478 0 4.463 1.563 4.492 7.125.011 2.144-.558 2.74-3.111 3.25-4.177.835-10.718.65-14.232-.403zm45.722-.061c-6.395-1.853-12.667-7.111-15.788-13.234-2.45-4.805-3.041-7.355-3.388-14.598-.936-19.59 8.03-32.382 23.692-33.802 9.259-.84 15.66 1.168 21.114 6.623 5.338 5.337 7.093 10.284 7.34 20.69l.165 6.91-18 .5-18 .5-.272 3c-.345 3.802 2.776 8.922 7.013 11.505 4.234 2.582 11.198 2.58 17.998-.005 2.894-1.1 5.364-2 5.49-2 .127 0 1.135 1.773 2.24 3.94 1.806 3.54 1.855 4.094.475 5.473-4.217 4.218-21.915 6.864-30.08 4.498zm18.432-39.443c.744-7.589-8.132-13.586-15.152-10.239-4.568 2.179-8.411 10.671-5.946 13.137.385.385 5.223.572 10.75.417l10.051-.283.297-3.032zm42.386 38.69c-6.563-2.34-11.333-6.837-14.366-13.54-1.971-4.355-2.316-6.758-2.317-16.118 0-10.036.246-11.502 2.814-16.73 5.308-10.81 14.61-15.518 28.573-14.462 5.45.412 8.999 1.339 13.05 3.408l5.563 2.842.29 8.221.29 8.221h-11.843l-1.127-4.48c-1.396-5.54-5.316-8.024-11.384-7.21-8.46 1.135-12.3 8.769-11.528 22.926.515 9.448 2.408 13.992 6.77 16.247 6.02 3.113 11.79 1.445 15.538-4.493 2.579-4.084 2.585-4.087 8.287-3.789 4.994.262 5.746.572 6.018 2.481.357 2.51-2.072 7.747-5.178 11.165-5.913 6.507-19.322 8.926-29.45 5.312zm62.46.814c-1.572-.471-3.772-1.67-4.888-2.664-4.125-3.673-4.755-7.258-4.755-27.076 0-13.314-.352-19.184-1.2-20.032-.66-.66-2.685-1.2-4.5-1.2-3.293 0-3.3-.01-3.3-5s.007-5 3.3-5c4.703 0 5.7-1.521 5.7-8.7V560h14v6.3c0 3.567.52 6.82 1.2 7.5.66.66 3.135 1.2 5.5 1.2h4.3v10h-4.378c-2.61 0-4.864.587-5.585 1.455-.87 1.048-1.113 6.241-.872 18.59.325 16.608.408 17.194 2.696 19.045 1.298 1.05 3.833 1.91 5.633 1.91 3.478 0 4.463 1.563 4.492 7.125.011 2.144-.558 2.74-3.111 3.25-4.177.835-10.718.65-14.232-.403zm-812.24-1.362c-.303-.793-.406-2.7-.228-4.24.258-2.22.964-2.928 3.412-3.425 1.698-.344 3.61-.95 4.25-1.344 1.657-1.024 1.657-61.178 0-62.202-.64-.395-2.552-1.002-4.25-1.35-2.823-.577-3.087-.97-3.087-4.59V553.5l21.492-.27c24.338-.307 29.83.454 36.711 5.089 9.98 6.721 13.382 21.098 7.694 32.513-4.96 9.953-11.836 13.245-29.397 14.076l-12.5.592-.29 9.41c-.159 5.176.137 9.837.658 10.358.52.52 2.45 1.254 4.29 1.63 3.112.637 3.342.957 3.342 4.643v3.959l-15.772.276c-12.99.226-15.869.021-16.324-1.166zm46.188-42.654c5.555-2.689 7.798-7.251 7.187-14.616-.82-9.89-7.008-13.715-21.278-13.154l-8 .314-.28 13.45c-.155 7.397-.056 14.034.218 14.75.87 2.268 17.052 1.725 22.153-.744zm297.601 39.86c.27-3.67.666-4.278 3.223-4.957 1.603-.426 3.283-1.356 3.734-2.067 1.019-1.605 1.096-36.86.084-38.449-.405-.636-2.31-1.563-4.235-2.058-3.227-.832-3.522-1.228-3.807-5.127l-.31-4.225 11.31.284 11.309.283.322 2.81c.422 3.675 2.73 4.46 5.493 1.864 5.291-4.971 14.507-6.529 21.453-3.626 9.298 3.885 11.226 9.263 11.247 31.384.008 8.562.385 16.15.836 16.86.45.711 2.131 1.641 3.734 2.067 2.561.68 2.953 1.285 3.224 4.985l.309 4.21-14.81-.277-14.808-.277-.308-3.712c-.284-3.42-.028-3.83 3.25-5.2l3.558-1.486v-16.1c0-17.96-.744-20.825-5.97-22.99-3.753-1.554-9.577-.74-13.007 1.818-2.507 1.87-2.525 1.996-2.797 19.145-.285 17.952.118 20.025 3.896 20.025 1.559 0 1.878.764 1.878 4.5v4.5h-29.115zm137.228 2.836c-.313-.816-.423-2.743-.245-4.282.258-2.22.964-2.928 3.412-3.425 1.698-.344 3.61-.95 4.25-1.344 1.657-1.024 1.657-61.178 0-62.202-.64-.395-2.552-1.002-4.25-1.35-2.823-.577-3.087-.97-3.087-4.59V553.5h23c22.795 0 23.05.024 28.655 2.651 6.677 3.13 12.72 9.031 15.991 15.613 2.21 4.445 2.354 5.843 2.354 22.736 0 17.106-.122 18.246-2.458 22.958-3.279 6.614-9.013 12.168-15.894 15.394-5.51 2.583-6.203 2.656-28.403 2.966-19.392.27-22.84.098-23.325-1.166zm43.326-11.19c5.144-2.15 7.18-4.202 9.886-9.962 2.115-4.502 2.348-6.394 2.348-19 0-12.622-.232-14.5-2.364-19.079-4.081-8.763-10.027-11.785-22.116-11.238l-7 .317-.266 28.988c-.146 15.943-.048 29.556.219 30.25.712 1.854 14.671 1.655 19.293-.276zM78.463 482.753c-.262-.689-.361-64.928-.22-142.753l.257-141.5h285v285l-142.28.253c-113.298.202-142.377-.002-142.757-1zm201.223-82.927L282 397.65v-34.625c0-25.598-.313-34.939-1.2-35.826-.896-.896-12.044-1.2-44-1.2-23.54 0-42.8-.379-42.8-.842 0-.463 1.913-1.396 4.25-2.074 2.337-.679 15.275-4.607 28.75-8.73s29.675-9.068 36-10.989c6.325-1.921 12.14-4.12 12.921-4.886 2.628-2.575-3.565-18.479-7.195-18.479-3.456 0-103.49 31.428-105.147 33.035-1.084 1.051-2.037 3.518-2.187 5.664-.146 2.09-.554 5.151-.905 6.801-.486 2.28-.02 3.91 1.937 6.794L165 336.09v30.955c0 29.623.086 31.042 2 32.956 1.95 1.95 3.333 2 56.186 2h54.185zM172 371v-24h103v48H172zm6.5-35c3.613-3.7 6.5-5.12 6.5-3.196 0 1.582-6.632 7.196-8.5 7.196-1.54 0-1.158-.766 2-4zm14.172-.143c2.956-2.955 4.646-3.949 5.9-3.468 1.54.59 1.34 1.107-1.603 4.143-2.098 2.164-4.316 3.468-5.9 3.468-2.461 0-2.412-.128 1.603-4.143zM204 339.104c0-1.378 6.88-7.104 8.535-7.104 2.265 0 1.761 1.32-1.833 4.804-3.121 3.025-6.702 4.254-6.702 2.3zM221.5 336c3.613-3.7 6.5-5.12 6.5-3.196 0 1.582-6.632 7.196-8.5 7.196-1.54 0-1.158-.766 2-4zm11.5 3.104c0-1.054 6.701-7.104 7.868-7.104 2.225 0 1.845 1.7-1.047 4.684-3 3.097-6.821 4.452-6.821 2.42zM250.5 336c3.613-3.7 6.5-5.12 6.5-3.196 0 1.582-6.632 7.196-8.5 7.196-1.54 0-1.158-.766 2-4zm14.172-.143c2.956-2.955 4.646-3.949 5.9-3.468 1.54.59 1.34 1.107-1.603 4.143-2.098 2.164-4.316 3.468-5.9 3.468-2.461 0-2.412-.128 1.603-4.143zm-97.262-7.232c-1.199-3.123.014-5.125 3.104-5.125 2.651 0 2.986.336 2.986 3 0 2.53-.43 3.05-2.756 3.317-1.758.202-2.965-.229-3.334-1.192zm9.09-10.156c-2.41-1.976-2.638-2.46-1.154-2.464 2.119-.006 7.654 3.04 7.654 4.21 0 1.601-3.595.636-6.5-1.746zm11.587-3.74c-3.19-1.966-3.28-2.163-1.389-3.007 2.18-.973 10.302 2.416 10.302 4.298 0 1.684-5.344.91-8.913-1.29zm14.161-3.905c-3.212-1.986-3.524-3.824-.65-3.824 2.155 0 9.402 3.87 9.402 5.02 0 1.654-5.317.928-8.752-1.196zm14.502-3.892c-4.12-2.176-4.885-3.932-1.71-3.932 2.88 0 10.151 3.882 9.436 5.038-.905 1.465-3.58 1.082-7.726-1.106zm14-4c-4.303-2.272-4.855-3.932-1.307-3.932 3.504 0 10.104 4.038 8.383 5.128-1.888 1.198-2.85 1.035-7.076-1.196zm13-4.69c-3.448-2.138-3.5-3.242-.154-3.242 2.709 0 8.404 2.857 8.404 4.216 0 1.411-5.438.77-8.25-.974zm13.35-4.452c-3.173-2.03-3.266-2.237-1.389-3.074 2.167-.967 10.289 2.43 10.289 4.304 0 1.75-5.413 1.002-8.9-1.23z"/></svg>