<svg xmlns="http://www.w3.org/2000/svg" role="img" viewBox="-0.45 -0.95 400.66 297.41"><title>QtPyConvert logo</title><defs><style>.cls-1,.cls-3{fill:none}.cls-2{fill:#ab6b34}.cls-3{stroke:#4e2e1e;stroke-linecap:round;stroke-linejoin:round;stroke-width:0}.cls-4{fill:#4e2e1e}.cls-5{fill:#362819}</style></defs><path d="M179.882 66.62a5.857 5.857 0 0 1 2.15-.768 5.856 5.856 0 0 0-2.15.767zm-2.43 1.233a6.07 6.07 0 0 0 1.392-.583 6.075 6.075 0 0 1-1.392.583zm32.725-2.25a.858.858 0 0 1 .053-.377.858.858 0 0 0-.053.377.758.758 0 0 0 .115.37.757.757 0 0 1-.115-.37zm-37.874-45.84c.194-.002.388 0 .582-.006-.067-.168-.307-.111-.582.006zM140.859 85.5a2.584 2.584 0 0 1-1.123-.164 2.583 2.583 0 0 0 1.123.164zm13.828-67.716c.057.018.112.04.17.058-.058-.018-.113-.04-.17-.058zm-17.533 66.431a5.39 5.39 0 0 1 1.592.655 5.24 5.24 0 0 0 .514.267 5.242 5.242 0 0 1-.514-.267 5.389 5.389 0 0 0-1.593-.655zm17.702-66.373l.003.002-.002-.002h-.001zm6.784 67.48a1.283 1.283 0 0 0 .638-.299 1.284 1.284 0 0 1-.638.3zm180.315-35.324a10.271 10.271 0 0 1 .033-1.375 3.383 3.383 0 0 0 .011-.447 3.386 3.386 0 0 1-.011.447 10.269 10.269 0 0 0-.033 1.375zm-53.532-1.128q-3.89.088-7.778.146c-.67.01-1.337.038-2.002.079q.998-.061 2.002-.08 3.889-.063 7.778-.144zm37.829-2.738l-8.813-.019a117.836 117.836 0 0 0-3.607.026c1.2-.033 2.404-.03 3.606-.026q4.407.014 8.814.019zm-51.592 3.335q-.992.119-1.982.252c-.282.037-.575.07-.869.115.294-.045.587-.078.87-.115q.99-.132 1.982-.252zm-86.076-32.05c.243-.022.486-.04.727-.064-.241.023-.484.042-.727.064zm-10.748 2.128a32.196 32.196 0 0 0 1.64-.153c1.169-.141 2.348-.289 3.508-.516-1.16.227-2.34.375-3.508.516-.545.066-1.092.115-1.64.153zm88.693 32.658q-6.25-.165-12.501-.322c-.427-.01-.856-.011-1.284-.021.428.01.857.01 1.284.022q6.25.162 12.5.321zm12.205 18.381q-2.068-1.41-4.045-2.972-.676-.535-1.35-1.074.673.54 1.35 1.074 1.975 1.565 4.045 2.972zm-80.782-53.792a.395.395 0 0 0 .382.239.395.395 0 0 1-.382-.24zM155.275 73.23zm29.565-7.504q-.951.01-1.905.045a8.146 8.146 0 0 0-.902.081 8.131 8.131 0 0 1 .902-.081q.954-.035 1.906-.045zm-22.056 5.476a1.043 1.043 0 0 1-.46.128c-.312.018-.62.049-.924.09q.457-.062.923-.09a1.043 1.043 0 0 0 .461-.128zm98.331-31.32a2.761 2.761 0 0 0 1.42.153 1.074 1.074 0 0 1-.118.783 1.075 1.075 0 0 0 .118-.783 2.762 2.762 0 0 1-1.42-.153zM156.778 18.5a3.844 3.844 0 0 1-.534-.008 3.825 3.825 0 0 0 .534.008zm122.166 8.172c-.297.042-.593.073-.89.13l-2.159-.032 2.16.032c.296-.057.592-.088.889-.13zm-19.903 13.01c.77.4 1.552.779 2.341 1.15a1.346 1.346 0 0 0 .718.163 1.347 1.347 0 0 1-.718-.163 66.717 66.717 0 0 1-2.34-1.15zm-213.91 7.482a14.653 14.653 0 0 0-1.087-.633 9.927 9.927 0 0 1-1.232-.782 9.917 9.917 0 0 0 1.232.782c.355.19.73.4 1.087.633zm-8.96-5.508a5.039 5.039 0 0 0 .623-1.116 5.04 5.04 0 0 1-.623 1.116zm101.815 35.888zm106.257-63.209c4.575.927 9.203-.591 13.778.3-4.575-.891-9.203.627-13.778-.3zm-6.372-.633a7.027 7.027 0 0 0 2.173.293h.007-.007a7.029 7.029 0 0 1-2.173-.293zm117.655 19.893c-.105-.136-.215-.268-.315-.407.1.139.21.271.315.407zM161.288 19.45a4.095 4.095 0 0 1-.854.168 4.097 4.097 0 0 0 .854-.167zm44.706 64.143a3 3 0 0 0-.152-.262 3.003 3.003 0 0 1 .152.262zm142.379-46.795c.307 0 .577-.126.698-.627-.121.5-.391.627-.698.627zm-35.817-6.405a109.673 109.673 0 0 1-3.119-1.806 5.314 5.314 0 0 0-.548-.271 5.316 5.316 0 0 1 .548.271c1.028.622 2.071 1.218 3.12 1.806zm33.677 6.001c.47.098.94.191 1.41.284.133.026.275.063.417.09-.142-.027-.284-.064-.416-.09-.471-.093-.942-.186-1.411-.284zm-25.221 36.518a2.957 2.957 0 0 1-.735.612 2.954 2.954 0 0 0 .735-.612 3.42 3.42 0 0 1 .751-.672 3.42 3.42 0 0 0-.75.672zm-69.147-16.66a22.964 22.964 0 0 0-3.654-.532q-.524-.035-1.039-.04.515.005 1.04.04a22.965 22.965 0 0 1 3.653.532zm49.221 16.516l.075.054q.578.425 1.183.804-.604-.38-1.183-.804l-.075-.054zm-72.623 6.142c0-.011-.003-.018-.003-.028 0 .01.003.017.003.027zm71.639-7.048a1.219 1.219 0 0 0 .358-.003 1.22 1.22 0 0 1-.358.003zm32.801-3.526a6.317 6.317 0 0 1 1.077.057 6.821 6.821 0 0 0 1.082.066 6.822 6.822 0 0 1-1.082-.066 6.317 6.317 0 0 0-1.077-.057zM226.85 76.981a3.692 3.692 0 0 0 1.607 1.928 3.692 3.692 0 0 1-1.608-1.928zm57.083 2.003a.73.73 0 0 0 .071-.21.813.813 0 0 0 .014-.216.812.812 0 0 1-.014.216.73.73 0 0 1-.07.21zM38.388 40.377c.136.181.26.37.39.555-.13-.185-.254-.374-.39-.555a2.308 2.308 0 0 0-.434-.46 2.307 2.307 0 0 1 .434.46zm271.995 34.027a36.82 36.82 0 0 0 3.974-.066 36.82 36.82 0 0 1-3.974.066zm18.219-3.321a1.333 1.333 0 0 0 .4-.425 5.373 5.373 0 0 1 .465-.67 5.373 5.373 0 0 0-.465.67 1.334 1.334 0 0 1-.4.425zM326.5 49.017a1.083 1.083 0 0 0 .74.804 1.083 1.083 0 0 1-.74-.804 15.272 15.272 0 0 1-2.609-.272 15.271 15.271 0 0 0 2.609.272zm-45.306 32.412a.465.465 0 0 0 .173-.098.466.466 0 0 1-.173.098zm-51.803-1.259l.034.022-.034-.022zm2.574 3.482q.035.204.053.418a5.486 5.486 0 0 1-1.37-1.85 5.488 5.488 0 0 0 1.37 1.85l.1.108-.1-.108q-.019-.214-.053-.418zM265.916 59.4q-.53-.685-1.017-1.412a3.362 3.362 0 0 1-.681-1.916 3.362 3.362 0 0 0 .681 1.916q.486.728 1.017 1.411zm31.62 10.501a2.253 2.253 0 0 0 1.329 1.035l.287.247q-.144-.123-.287-.248a2.25 2.25 0 0 1-1.33-1.034zm-67.162 11.574l.01.007-.01-.007z" class="cls-1"/><path d="M295.593 68.3l-.269-.246c-2.37-1.811-4.691-3.695-7.123-5.422 2.432 1.727 4.752 3.61 7.123 5.423l.27.244a3.492 3.492 0 0 0 1.662 1.354l.28.248-.28-.248a3.487 3.487 0 0 1-1.663-1.354zm65.397-20.257a1.502 1.502 0 0 0 .25.142 2.388 2.388 0 0 0 .244.096 2.386 2.386 0 0 1-.243-.096 1.504 1.504 0 0 1-.25-.142zM76.874 24.19q-1.749-.607-3.502-1.203 1.752.599 3.502 1.203zm14.339 10.395a3.133 3.133 0 0 1 1.552-.442 1.417 1.417 0 0 0 .992-.36 1.417 1.417 0 0 1-.992.36 3.133 3.133 0 0 0-1.552.442zm23.747-7.682a4.334 4.334 0 0 0 1.052-.402c-.37.16-.75.294-1.132.416.027-.006.053-.009.08-.014zm-32.4 11.849l.008.016c1.553-.638 3.207-1.038 4.756-1.691-1.549.653-3.203 1.053-4.756 1.69zm-1.64.788a20.618 20.618 0 0 0-1.922.975 20.635 20.635 0 0 1 1.922-.976z" class="cls-1"/><path d="M116.012 26.5h-.001l.001.001 7.664-.658a1.445 1.445 0 0 0 .623.265 1.447 1.447 0 0 1-.623-.265l-7.664.658zm246.83 20.085a1.441 1.441 0 0 1 .026-.438 1.033 1.033 0 0 1-.03-.35 1.035 1.035 0 0 0 .03.35 1.441 1.441 0 0 0-.026.438zM338.01 67.34a6.335 6.335 0 0 0 .712-.695c.394-.05.788-.096 1.182-.144-.394.048-.788.094-1.182.144a6.339 6.339 0 0 1-.712.695zM136.854 23.171q.735-.295 1.46-.622a4.804 4.804 0 0 0 .461-.236 4.804 4.804 0 0 1-.46.236q-.726.327-1.461.622zM342.393 66.07a1.146 1.146 0 0 0 .553-.642 1.147 1.147 0 0 1-.553.643zm-130.095.647c-.366-.068-.724-.18-1.083-.281.359.1.717.213 1.083.281zm127.606-.217c.393-.048.787-.1 1.178-.164.176-.03.36-.045.54-.067-.18.022-.364.038-.54.067a30.61 30.61 0 0 1-1.178.165zm-60.292 16.582a1.18 1.18 0 0 0 .655-.145c-.226.055-.454.103-.684.145zm63.319-17.657l.33-.326.002-.002zm.955-.975a4.97 4.97 0 0 1 1.573-1.003 4.969 4.969 0 0 0-1.572 1.004zm-58.112 15.659a12.264 12.264 0 0 0-4.167.705 12.27 12.27 0 0 1 4.167-.705zm75.75-34.361c-.008.02-.012.042-.02.06a.62.62 0 0 1-.067.089.63.63 0 0 0 .066-.089c.009-.018.013-.04.021-.06zM197.952 16.791a17.748 17.748 0 0 0-2.832.624 17.724 17.724 0 0 1 2.832-.623 16.552 16.552 0 0 1 2.287-1.6 16.554 16.554 0 0 0-2.287 1.6zM66.815 69.452a1.97 1.97 0 0 1 .413.489 4.003 4.003 0 0 0 .38.532 3.997 3.997 0 0 1-.38-.532 1.97 1.97 0 0 0-.413-.489zm24.661.038q.502.785.967 1.604.524.922 1.112 1.782-.59-.859-1.112-1.782-.466-.818-.967-1.604zm-33.418-1.88a2.446 2.446 0 0 1 .207.167 3.858 3.858 0 0 0 .78.625 3.856 3.856 0 0 1-.78-.625 2.457 2.457 0 0 0-.207-.168zm-3.253-.772a10.102 10.102 0 0 0 1.272.105 4.256 4.256 0 0 1 .626.054 4.255 4.255 0 0 0-.625-.054 10.117 10.117 0 0 1-1.273-.105zm291.428-30.444a30.594 30.594 0 0 1-4.168-1.12 30.59 30.59 0 0 0 4.168 1.12zm-182.056 4.588l-.003-.001.325.376c0-.218-.083-.363-.322-.375zm-26.12 9.656c.058.094.108.191.169.284q.661 1.002 1.318 2.008-.656-1.007-1.318-2.008c-.061-.093-.112-.19-.169-.284zm184.005-22.201a25.424 25.424 0 0 0-2.873-1.006 25.429 25.429 0 0 1 2.873 1.006zM35.745 42.127a3.104 3.104 0 0 1-.523.386 4.49 4.49 0 0 0-1.146.952 4.49 4.49 0 0 1 1.147-.952 3.104 3.104 0 0 0 .522-.386zM150.036 66.03q-.459-.187-.881-.41.423.222.881.41zm23.844-13.31a2.743 2.743 0 0 1-.179-.379.485.485 0 0 0-.049-.074.489.489 0 0 1 .049.074 2.743 2.743 0 0 0 .18.378zm65.03-13.992c1.276 1.434 2.605 2.83 3.782 4.343-1.177-1.513-2.506-2.909-3.782-4.343zm-61.793 11.856a12.874 12.874 0 0 1 1.062 2.62 12.869 12.869 0 0 0-1.062-2.62zm-77.099 27.71a2.087 2.087 0 0 1-1.274-.373 2.087 2.087 0 0 0 1.274.373zm214.587-58.482c-.17.019-.34.033-.493.056.154-.023.323-.037.493-.056zM203.42 29.416c-.37.09-.74.178-1.103.302q-1.03.352-2.066.654 1.037-.3 2.066-.654c.363-.124.733-.211 1.102-.302zM117.754 46.64c-.51.024-1.019.062-1.523.12l-.137.017.137-.016a22.425 22.425 0 0 1 1.523-.12zm191.702-20.446a3.294 3.294 0 0 0-1.056.161 3.297 3.297 0 0 1 1.056-.16zM103.039 50.801a18.99 18.99 0 0 1-3.253.484 18.983 18.983 0 0 0 3.253-.484zm84.447-18.777c-.3.055-.6.12-.897.195q-2.007.505-4.024.903 2.017-.398 4.024-.903c.297-.075.597-.14.897-.195zm-29.611 4.256a10.648 10.648 0 0 1-1.362.227c-1.008.095-2.015.226-3.022.34 1.007-.114 2.014-.245 3.022-.34a10.638 10.638 0 0 0 1.362-.227zm-49.71 38.61a.686.686 0 0 0 .137-.154.695.695 0 0 1-.137.154zm100.903-44.42q-.564.098-1.125.231c-1.99.477-3.98.954-5.981 1.376 2-.422 3.99-.899 5.98-1.375q.562-.135 1.126-.233zm-52.684 34.435q.356-.197.702-.433c.117-.08.243-.144.366-.213-.123.07-.249.132-.366.213q-.346.236-.702.433zm31.259-24.379a36.89 36.89 0 0 0 3.254 3.146 36.9 36.9 0 0 1-3.254-3.146zm-.342 2.639c.124.09.251.176.375.268-.124-.092-.25-.178-.375-.268zm-15.919-1.438a9.197 9.197 0 0 1-.286-.8 4.989 4.989 0 0 1-.173-.776 4.987 4.987 0 0 0 .173.775c.084.274.18.54.286.8zm64.775-6.622a11.61 11.61 0 0 1-.677-1.37 3.772 3.772 0 0 1-.148-.427 3.773 3.773 0 0 0 .148.427 11.61 11.61 0 0 0 .677 1.37zm-85.16 30.923a1.111 1.111 0 0 1 .079-.288 1.111 1.111 0 0 0-.079.288zm88.024-36.115a12.02 12.02 0 0 1 4.824-.218 11.167 11.167 0 0 1 3.76 1.317 11.166 11.166 0 0 0-3.76-1.317 12.018 12.018 0 0 0-4.824.218zm-40.07 2.749a65.04 65.04 0 0 1-3.035.464q-1.347.172-2.685.386 1.337-.216 2.685-.386a65.07 65.07 0 0 0 3.035-.464z" class="cls-1"/><path d="M154.856 17.842h.001-.001zm188.407 47.255h-.001l-.007.008.008-.008zm49.22-1.81l-.006 3.668c.062-.619.103-1.238.103-1.86 0-.606-.038-1.208-.097-1.808zm-115.714 49.016a34.17 34.17 0 0 0-2.493.628c-3.402.997-6.965.961-10.49 1.022 3.525-.06 7.088-.025 10.49-1.022a34.17 34.17 0 0 1 2.493-.628zm-194.562-6.557c-.956-.078-1.906-.246-2.863-.297a19.8 19.8 0 0 1-7.23-1.843 19.8 19.8 0 0 0 7.23 1.843c.957.051 1.907.22 2.863.297zm-28.461-6.735a6.966 6.966 0 0 1-1.831-1 1.63 1.63 0 0 0-.717-.35 1.629 1.629 0 0 1 .717.35 6.965 6.965 0 0 0 1.831 1zm259.404 7.117a6.22 6.22 0 0 0-.74.267 21.345 21.345 0 0 1-3.94 1.37 21.34 21.34 0 0 0 3.94-1.37 6.221 6.221 0 0 1 .74-.267zm-99.383 10.768c2.537-.115 5.076-.128 7.617-.143-2.54.015-5.08.028-7.617.143zm71.816-5.636zm13.569-2.274a35.273 35.273 0 0 0-5.103 1.334 35.287 35.287 0 0 1 5.103-1.334zm87.941-36.372c-1.606 1.397-3.334 2.79-3.048 5.315 3.074-2.31 2.922-2.728 4.721-3.865 1.071-.677 1.892-2.017 3.113-3.916.156-.574.291-1.15.395-1.727-1.726 1.4-3.506 2.736-5.18 4.193zm-68.835 32.788c-.546.036-1.092.074-1.63.139-.32.038-.642.072-.962.108.32-.036.642-.07.961-.108.54-.065 1.085-.103 1.631-.14zm-227.29 2.699c1.905.208 3.82.366 5.716.626-1.896-.26-3.811-.418-5.716-.626zm233.672-4.364a15.837 15.837 0 0 0-1.585.695 7.641 7.641 0 0 1-1.949.657 7.641 7.641 0 0 0 1.95-.657 15.837 15.837 0 0 1 1.583-.695zm47.016-16.47a.334.334 0 0 1-.126.098 12.148 12.148 0 0 0-2.079.8 12.149 12.149 0 0 1 2.079-.8.334.334 0 0 0 .126-.098zm12.132-8.613a14.134 14.134 0 0 0-1.282 1.003 14.136 14.136 0 0 1 1.282-1.003zm-40.215-13.872l.01-.011-.01.011zm.009-.01l-.001.001-.008.009.009-.011v.001zm-114.157 15.42z" class="cls-2"/><path d="M205.384 29.037a18.977 18.977 0 0 0-1.965.38M342 48.176v-.012" class="cls-3"/><path d="M392.413 62.722c-1.867-14.53-20.8-27.493-50.76-37.266.036.036.076.062.112.1a2.366 2.366 0 0 0 .305.269 3.807 3.807 0 0 0 .357.234 3.637 3.637 0 0 0 .662.313 3.167 3.167 0 0 0 .495.127 10.005 10.005 0 0 1 1.721.462c.835.298 1.639.675 2.45 1.035q.56.249 1.132.472a12.458 12.458 0 0 0 1.361.457 5.76 5.76 0 0 1 .815.281 7.472 7.472 0 0 1 2.602 1.99c.368.415.713.858 1.049 1.31.167.226.333.454.497.682.1.139.21.272.315.407.316.407.644.805.977 1.198.173.205.32.39.438.558a2.762 2.762 0 0 1 .268.454 1.085 1.085 0 0 1 .08.251.546.546 0 0 1-.017.283.731.731 0 0 1-.359.349 4.351 4.351 0 0 1-1.236.39 5.555 5.555 0 0 1-1.52.073c-.335-.025-.67-.07-1.005-.122-.502-.077-1.003-.167-1.505-.222a6.028 6.028 0 0 0-.33-.026c-.224-.012-.45-.016-.675-.03a4.51 4.51 0 0 1-.456-.054 2.421 2.421 0 0 1-.526-.14 1.84 1.84 0 0 1-.589-.386c-.121.501-.391.627-.698.627-.034 0-.067.003-.102 0a2.029 2.029 0 0 1-.21-.03c-.143-.027-.285-.064-.417-.09-.47-.093-.942-.186-1.411-.284a30.592 30.592 0 0 1-4.168-1.12c-1.657-.598-3.329-1.153-5.005-1.693s-3.36-1.062-5.038-1.596c-3.357-1.068-6.7-2.18-9.96-3.548a25.432 25.432 0 0 0-2.873-1.006 30.57 30.57 0 0 0-4.45-.904 39.68 39.68 0 0 0-3.033-.271q-.762-.04-1.528-.056c-.225-.004-.473-.011-.721-.006a3.298 3.298 0 0 0-1.057.161.988.988 0 0 0-.648.636.724.724 0 0 0 .23.809 1.853 1.853 0 0 0 .324.23c.181.105.385.196.584.286a5.325 5.325 0 0 1 .548.271c1.027.622 2.07 1.218 3.119 1.806s2.1 1.169 3.146 1.761a3.69 3.69 0 0 1 1.488 1.422 2.604 2.604 0 0 1 .393 1.517 1.279 1.279 0 0 1-.344.743 2.001 2.001 0 0 1-.959.521 3.814 3.814 0 0 1-.453.091c-.5.07-1.002.14-1.504.207a51.502 51.502 0 0 1-3.021.32c-.505.037-1.01.062-1.513.073q-3.207.07-6.416.107c-3.24.043-6.479.076-9.718.128-3.176.051-6.35.121-9.524.238-.4.015-.801.025-1.202.034q-.636.014-1.274.022l-1.24.02a69.428 69.428 0 0 0-3.098.107c-.516.032-1.032.073-1.547.127s-1.029.122-1.542.205a16.413 16.413 0 0 0-3.788 1.236c-.655.278-1.296.837-2.09.348a15.98 15.98 0 0 1-3.567.583l-.045.002q-.364.011-.73-.002a9.696 9.696 0 0 1-1.473-.168 1.075 1.075 0 0 1-.119.783.438.438 0 0 1-.138.12.51.51 0 0 1-.179.057 1.346 1.346 0 0 1-.718-.163c-.789-.371-1.571-.75-2.34-1.15s-1.525-.82-2.26-1.274a21.277 21.277 0 0 1-4.108-3.233c-.308-.316-.62-.63-.936-.938a26.769 26.769 0 0 0-1.97-1.757 15.836 15.836 0 0 0-2.163-1.468 11.165 11.165 0 0 0-3.76-1.317 12.02 12.02 0 0 0-4.824.218 12.386 12.386 0 0 0-2.744 1.063 2.488 2.488 0 0 0-.382.247 1.679 1.679 0 0 0-.619.939 2.019 2.019 0 0 0-.028.733 2.959 2.959 0 0 0 .085.413 3.756 3.756 0 0 0 .147.426 11.609 11.609 0 0 0 .678 1.371 16.466 16.466 0 0 0 1.349 1.945q.674.857 1.403 1.678c1.277 1.434 2.605 2.83 3.782 4.343a5.506 5.506 0 0 1 .346.492 1.815 1.815 0 0 1 .306.793.72.72 0 0 1-.044.31.812.812 0 0 1-.315.373 2.219 2.219 0 0 1-.62.274 5.568 5.568 0 0 1-.586.137c-4.55.83-9.075 1.867-13.662 2.392a48.306 48.306 0 0 1-5.363.305c-.213 0-.424.017-.638.014-.065.002-.13.01-.195.011-2.63.083-4.574.764-7.406.735-2.508.216-4.498-.04-6.99-.027-.637 0-1.516.176-2.156.176-.012.171-.02.096-.023-.003a26.792 26.792 0 0 0-5.788-.032.701.701 0 0 1 .046.421c-.04.114-.15.203-.38.27a4.592 4.592 0 0 1-3.636-.127 3.742 3.742 0 0 1-.483-.322c-1.24-.969-2.464-1.96-3.695-2.942a121.737 121.737 0 0 0-3.733-2.888h-.001c-.124-.092-.25-.178-.375-.268q-.725-.525-1.466-1.02-.813-.544-1.647-1.049a35.758 35.758 0 0 0-1.912-1.086 28.336 28.336 0 0 0-5.963-2.34 7.488 7.488 0 0 0-1.35-.218 13.713 13.713 0 0 0-1.349-.028 4.841 4.841 0 0 0-.777.072 2.364 2.364 0 0 0-1.568.875 2.404 2.404 0 0 0-.346 1.78 4.985 4.985 0 0 0 .174.775c.083.274.179.54.285.8s.223.516.349.765a31.61 31.61 0 0 0 2.81 4.172 33.823 33.823 0 0 1 2.576 3.92 12.867 12.867 0 0 1 1.062 2.622 4.97 4.97 0 0 1 .2 1.39 2.649 2.649 0 0 1-.247 1.12 2.726 2.726 0 0 1-1.89 1.373 29.733 29.733 0 0 0-7.176 3.103 23.99 23.99 0 0 1-9.278 3.33 6.729 6.729 0 0 0-1.4.308 5.542 5.542 0 0 0-.935.43c-.123.07-.25.132-.367.213q-.346.236-.701.433a8.667 8.667 0 0 1-1.46.64 9.37 9.37 0 0 1-1.526.368 11.251 11.251 0 0 1-1.587.13q-.404.005-.814-.015l-.961.003a7.889 7.889 0 0 1-.897.076 5.736 5.736 0 0 1-.823-.037 4.042 4.042 0 0 1-2.077-.842 4.662 4.662 0 0 1-.58-.545 6.055 6.055 0 0 1-.53-.688 8.434 8.434 0 0 1-.489-.836q-.722-1.406-1.526-2.772-.805-1.363-1.697-2.674a41.003 41.003 0 0 0-3.956-4.954 15.579 15.579 0 0 0-2.528-2.205q-.427-.293-.859-.538a10.304 10.304 0 0 0-4.483-1.354 12.938 12.938 0 0 0-2.897.15 21.947 21.947 0 0 0-4.193 1.153 3.877 3.877 0 0 0-.577.267 2.43 2.43 0 0 0-.801.708 2.005 2.005 0 0 0-.232.438 2.48 2.48 0 0 0-.14 1.037 4.681 4.681 0 0 0 .267 1.242 11.737 11.737 0 0 0 .867 1.91 15.516 15.516 0 0 0 .838 1.31 40.578 40.578 0 0 0 2.765 3.378l.204.235c.809.925 1.646 1.826 2.45 2.755a27.298 27.298 0 0 1 2.25 2.917 7.464 7.464 0 0 1 .443.764 2.576 2.576 0 0 1 .336 1.622 1.719 1.719 0 0 1-.908 1.131 4.156 4.156 0 0 1-.59.282 7.063 7.063 0 0 1-.74.24q-.498.134-1 .26-.501.126-1.006.24a21.28 21.28 0 0 1-6.165.589 41.254 41.254 0 0 0-7.746 2.631 1.548 1.548 0 0 1-.391.112c-.39.06-.779-.01-1.169.01a9.119 9.119 0 0 0-1.6.245c-.524.124-1.04.282-1.554.448a.683.683 0 0 1-.137.154.836.836 0 0 1-.546.167l-.01.007a13.298 13.298 0 0 1-2.587 1.472 21.7 21.7 0 0 1-.913.377c-.056.021-.112.04-.168.062-.72.273-1.45.52-2.181.764a88.65 88.65 0 0 0-1.401.478 1.45 1.45 0 0 1-.342.077 2.087 2.087 0 0 1-1.274-.373c-.301-.182-.59-.402-.867-.596a16.421 16.421 0 0 1-3.063-2.805 19.914 19.914 0 0 1-1.259-1.644q-.59-.859-1.112-1.782-.466-.818-.967-1.604a28.234 28.234 0 0 0-2.173-2.973 21.868 21.868 0 0 0-2.555-2.583 18.645 18.645 0 0 0-4.712-2.943 14.841 14.841 0 0 0-12.294.242 4.136 4.136 0 0 0-1.156.718 1.798 1.798 0 0 0-.547.871 2.776 2.776 0 0 0 .723 2.258c.22.3.457.586.704.866.742.837 1.579 1.605 2.334 2.436.194.213.361.406.502.58.842 1.05.716 1.465-.506 1.916a12.66 12.66 0 0 1-.702.231 7.039 7.039 0 0 1-.866.21 3.87 3.87 0 0 1-.803.057 2.362 2.362 0 0 1-1.408-.505 2.875 2.875 0 0 1-.41-.398 4 4 0 0 1-.379-.532 1.97 1.97 0 0 0-.413-.489 2.644 2.644 0 0 0-1.82-.542c-1.07.03-2.143-.024-3.211.036a4.634 4.634 0 0 1-2.74-.544 3.86 3.86 0 0 1-.78-.625 2.443 2.443 0 0 0-.206-.168 2.61 2.61 0 0 0-.776-.462 3.249 3.249 0 0 0-.58-.15 4.266 4.266 0 0 0-.624-.054 10.089 10.089 0 0 1-1.273-.105c-.424-.06-.844-.145-1.256-.246-.794-.195-1.62-.611-1.712-1.49a1.295 1.295 0 0 1 .345-1.012 2.354 2.354 0 0 1 .427-.376 3.83 3.83 0 0 1 .511-.297c1.074-.525 2.135-1.061 3.21-1.568.716-.337 1.438-.662 2.175-.96s1.489-.573 2.264-.81q.58-.177 1.18-.324a96.4 96.4 0 0 0 2.154-.563l1.075-.288a57.59 57.59 0 0 1 2.158-.536 24.65 24.65 0 0 1 3.305-.533 2.556 2.556 0 0 0 1.918-.708 5.581 5.581 0 0 1 1.954-1.673 6.699 6.699 0 0 1 1.527-.553 10.718 10.718 0 0 1 1.643-.245c.28-.021.564-.036.848-.044q.838-.026 1.667-.09.83-.065 1.651-.164c.998-.12 1.987-.282 2.972-.47a51.772 51.772 0 0 0 1.906-.398 64.787 64.787 0 0 0 3.208-.83q.8-.229 1.596-.473a13.83 13.83 0 0 1 1.516-.368 19.41 19.41 0 0 1 1.54-.22c1.377-.144 2.774-.172 4.16-.247.347-.018.693-.04 1.039-.067a18.992 18.992 0 0 0 3.253-.483 10.83 10.83 0 0 0 1.556-.523 9.918 9.918 0 0 0 1.523-.81 14.663 14.663 0 0 1 4.868-1.933 49.79 49.79 0 0 1 5.108-.76l.137-.015c.504-.059 1.012-.097 1.523-.12s1.024-.036 1.538-.04 1.03 0 1.545.002a20.987 20.987 0 0 0 7.466-.852c4.719-1.758 9.69-2.752 14.255-5.131.311-.163.62-.338.927-.521.921-.55 1.832-1.166 2.787-1.698a10.211 10.211 0 0 1 3.058-1.189 7.193 7.193 0 0 1 1.137-.124c.505-.015 1.009-.046 1.513-.089s1.008-.095 1.511-.152c1.007-.114 2.014-.245 3.022-.34a10.638 10.638 0 0 0 1.362-.227 9.826 9.826 0 0 0 2.165-.753 10.242 10.242 0 0 1 4.833-.933q1.379.037 2.751.028a79.941 79.941 0 0 0 10.896-.81q2.028-.292 4.045-.69 2.017-.398 4.024-.903c.297-.075.597-.14.897-.195s.603-.101.907-.14c1.82-.237 3.682-.218 5.518-.341q1.083-.073 2.146-.236a32.591 32.591 0 0 0 4.194-.935q1.037-.3 2.066-.654c.363-.124.733-.211 1.102-.302a18.97 18.97 0 0 1 1.965-.379c.346-.047.695-.087 1.043-.124.93-.1 1.866-.174 2.793-.284a19.777 19.777 0 0 0 2.746-.493 11.873 11.873 0 0 0 1.332-.434 16.574 16.574 0 0 1 2.605-.79c.37-.08.74-.15 1.112-.205a17.85 17.85 0 0 1 2.846-.179q.48.008.967.038c1.597.1 3.194.23 4.792.34s3.195.2 4.793.216c1.55.014 3.096-.036 4.64-.124 1.159-.066 2.316-.153 3.472-.249q1.302-.108 2.602-.227c2.602-.233 5.204-.468 7.812-.573q2.084-.083 4.17-.136 2.084-.055 4.17-.096 2.085-.043 4.17-.09 2.085-.049 4.17-.118 1.48-.051 2.96-.11c2.962-.118 5.922-.276 8.87-.551a7.69 7.69 0 0 0 .66-.092 13.144 13.144 0 0 0 1.304-.317c.433-.126.865-.263 1.3-.394a13.062 13.062 0 0 1 1.996-.464q2.622-.353 5.26-.548 1.316-.1 2.633-.164 1.317-.065 2.63-.099.98-.025 1.95-.093c1.295-.088 2.58-.227 3.858-.401s2.55-.381 3.82-.607q.953-.17 1.903-.35c1.268-.24 2.535-.488 3.804-.73.457-.088.917-.16 1.378-.221.923-.124 1.853-.212 2.78-.318.463-.054.926-.112 1.387-.182.154-.023.323-.037.493-.056a2.668 2.668 0 0 0 .645-.14 1.137 1.137 0 0 0 .198-.098.816.816 0 0 0 .298-.302.99.99 0 0 0 .098-.274.775.775 0 0 0 .013-.247.785.785 0 0 0-.134-.34 438.9 438.9 0 0 0-44.07-7.437c.09.074.179.152.274.222.17.126.347.247.524.366.355.239.716.472 1.05.737.517.412.708.806.557 1.149a.759.759 0 0 1-.182.258 1.951 1.951 0 0 1-.618.357 8.792 8.792 0 0 1-.835.284 4.688 4.688 0 0 1-.86.162q-1.637.138-3.276.23-3.278.184-6.561.174-1.642-.007-3.284-.066c-.143-.005-.28-.139-.42-.212-4.576-.891-9.204.627-13.779-.3a37.085 37.085 0 0 0-4.192-.34h-.007a7.027 7.027 0 0 1-2.173-.293 17.836 17.836 0 0 0-2.136-.499 2.013 2.013 0 0 1-.615-.186 4.42 4.42 0 0 1-1.01-.746c-.157-.142-.312-.284-.47-.415a38.271 38.271 0 0 0-6.817-4.446q-13.144-.55-26.797-.567c.57.364 1.156.704 1.76 1.015 1.352.696 2.714 1.375 4.076 2.052s2.725 1.352 4.081 2.041c.069.035.142.07.217.104.151.07.311.14.461.22a1.436 1.436 0 0 1 .55.445.676.676 0 0 1 .106.436c-.06.715-.908.77-1.536.896-.464.094-.924.2-1.382.316-.915.232-1.82.502-2.723.781-.797.246-1.594.497-2.393.737a32.568 32.568 0 0 1-4.258 1.024c-.067.01-.132.025-.199.035-.078.011-.156.032-.231.05a1.12 1.12 0 0 1-.221.036.395.395 0 0 1-.382-.24 17.724 17.724 0 0 0-2.832.624 4.842 4.842 0 0 1-1.763.104 18.966 18.966 0 0 0-3.039-.223 12.48 12.48 0 0 0-1.007.057c-.241.023-.484.042-.727.064a9.383 9.383 0 0 0-1.47.222 5.127 5.127 0 0 0-.741.246 14.83 14.83 0 0 1-1.669.582c-.566.162-1.14.296-1.72.41-1.16.226-2.34.374-3.508.515-.545.066-1.092.115-1.64.153-1.097.076-2.2.108-3.3.146-.551.018-1.102.039-1.651.066-.194.005-.388.004-.582.006a5.877 5.877 0 0 1-.997.438c-2.835.012-4.908.032-7.744.05-.77.746-1.333-.54-2.274-.8a4.097 4.097 0 0 1-.854.167 4.003 4.003 0 0 1-.512.016 4.189 4.189 0 0 1-.434-.04 5.848 5.848 0 0 1-1.658-.53 13.551 13.551 0 0 1-1.054-.566l.002.002a3.82 3.82 0 0 1-.534-.008 2.135 2.135 0 0 1-1.077-.375 2.01 2.01 0 0 1-.308-.273l-.003-.002c-.057-.018-.112-.04-.17-.058a22 22 0 0 1-1.067-.364l-.138-.056a25.34 25.34 0 0 1-1.067-.432c-.167-.072-.33-.153-.495-.228-.228-.104-.457-.205-.683-.315-.193-.094-.382-.194-.573-.292-.194-.099-.39-.194-.583-.296l-.083-.046c-1.498-.798-2.953-1.682-4.413-2.552a92.622 92.622 0 0 1-2.992-1.867 180.32 180.32 0 0 1-2.399-1.591q-8.078.812-15.835 1.832a5.24 5.24 0 0 0 1.303 1.338q.571.432 1.168.82c.794.52 1.617.99 2.453 1.436q.627.334 1.263.654c.847.429 1.699.847 2.543 1.281s1.678.884 2.488 1.376a34.463 34.463 0 0 1 2.96 1.912 3.437 3.437 0 0 1 .68.641.794.794 0 0 1 .194.55.594.594 0 0 1-.088.25 1.54 1.54 0 0 1-.547.478 4.794 4.794 0 0 1-.46.236q-.726.327-1.461.622-.736.295-1.48.559a40.248 40.248 0 0 1-4.54 1.307q-1.537.348-3.102.586-.782.12-1.571.213a4.93 4.93 0 0 0-.611.125c-.103.026-.207.053-.31.077a3.108 3.108 0 0 1-.627.09 1.677 1.677 0 0 1-.314-.02 1.446 1.446 0 0 1-.622-.265l-7.665.658a4.334 4.334 0 0 1-1.052.402l-.08.013a15.548 15.548 0 0 1-11.393-1.136c-.022-.01-.044-.024-.066-.035a17.241 17.241 0 0 1-1.511-.846 105.983 105.983 0 0 0-3.188-1.926c-1.57-.914-3.16-1.8-4.75-2.68s-3.186-1.76-4.766-2.662q-9.381 2.04-17.907 4.409a5.175 5.175 0 0 0 .863.488c.382.17.792.315 1.21.459q1.752.599 3.502 1.202c.949.33 1.896.662 2.839 1.006a70.177 70.177 0 0 1 10.225 4.53q.914.51 1.764 1.104.851.592 1.644 1.263a2.326 2.326 0 0 1 .53.589.9.9 0 0 1 .08.782.874.874 0 0 1-.199.32 1.417 1.417 0 0 1-.992.36 3.133 3.133 0 0 0-1.552.441 5.774 5.774 0 0 0-.653.44c-.209.16-.41.33-.609.497a10.08 10.08 0 0 1-2.627 1.556c-1.549.653-3.203 1.053-4.756 1.691l-.008-.016-.006-.012-.352.278q-.649.245-1.282.522a20.64 20.64 0 0 0-1.922.975c-.286.163-.57.331-.848.508s-.552.362-.818.56c-.272.201-.543.399-.818.584a6.845 6.845 0 0 1-1.748.889 4.665 4.665 0 0 1-1 .202 4.34 4.34 0 0 0-1.67.535 13.204 13.204 0 0 1-4.669 1.585 15.578 15.578 0 0 1-6.463-.585 28.73 28.73 0 0 1-3.655-1.352c-2.128-.939-4.238-1.917-6.346-2.9s-4.214-1.972-6.334-2.93a33.005 33.005 0 0 0-3.328-1.138c-.448-.147-.734-.278-.71-.532a.609.609 0 0 1 .11-.267 2.385 2.385 0 0 1 .302-.355 3.081 3.081 0 0 0 .65-1.1c.052-.136.101-.274.15-.412.058-.165.115-.331.179-.494a5.37 5.37 0 0 1 .153-.36 2.524 2.524 0 0 1 .708-.934c.094-.074.183-.158.275-.237-22.445 9.723-35.653 21.624-35.653 34.48a19.387 19.387 0 0 0 1.013 6.132 23.513 23.513 0 0 0 1.844 4.116c2.135 1.755 4.25 3.538 6.453 5.204 1.442 1.091 2.574 2.755 4.365 3.197 3.06.755 5.457 2.804 8.195 4.132.362.175.728.343 1.097.505.74.325 1.49.63 2.24.94a24.425 24.425 0 0 1 5.392 2.811 1.719 1.719 0 0 0 .527.244c.154.048.313.089.475.122.12.026.241.05.358.076 4.051.925 7.599 3.363 11.774 3.92a1.63 1.63 0 0 1 .717.35 6.966 6.966 0 0 0 1.831 1 9.754 9.754 0 0 0 2.016.494q.48.069.953.15a26.79 26.79 0 0 1 1.876.388q.463.114.92.247a18.194 18.194 0 0 1 2.686 1.013q.437.207.867.443a3.3 3.3 0 0 0 .607.253 14.451 14.451 0 0 0 2.023.364c1.079.171 2.182.254 3.266.407a11.384 11.384 0 0 1 3.153.836 19.8 19.8 0 0 0 7.23 1.843c.958.051 1.908.22 2.864.297a7.77 7.77 0 0 1 1.763.37c.853.274 1.673.652 2.508.992a10.635 10.635 0 0 0 2.589.765c.632.085 1.266.16 1.9.229 1.906.207 3.82.366 5.717.625a27.199 27.199 0 0 1 7.419 1.933.96.96 0 0 0 .317.043c1.651.11 3.302.228 4.953.34s3.303.22 4.955.31q.452.025.902.056.45.032.897.074c.596.057 1.188.13 1.776.232a16.376 16.376 0 0 1 1.745.394q.432.124.86.277.426.154.848.34a5.997 5.997 0 0 0 1.212.376c.42.087.85.144 1.27.191 1.037.116 2.074.205 3.113.278 2.078.146 4.159.224 6.24.303 1.041.039 2.082.079 3.123.127.837.04 1.677.069 2.517.101 1.26.05 2.52.105 3.777.21a33.738 33.738 0 0 1 3.75.504 91.22 91.22 0 0 0 9.976 1.425q1.673.143 3.352.216 2.604.114 5.208.224c3.473.144 6.947.271 10.42.344q2.605.054 5.21.062c5.54.012 11.081.09 16.621.103 2.77.006 5.54-.005 8.311-.048s5.54-.12 8.31-.246c2.538-.115 5.077-.128 7.618-.143s5.083-.033 7.624-.158c5.281-.258 10.599-.156 15.82-1.01 3.144-.514 6.295-.895 9.454-1.161s6.326-.417 9.504-.471c3.526-.06 7.088-.025 10.49-1.022a34.3 34.3 0 0 1 2.493-.628c1.25-.267 2.507-.468 3.773-.624s2.538-.268 3.82-.356c.406-.028.813-.048 1.221-.064.816-.031 1.637-.046 2.456-.072a29.413 29.413 0 0 0 3.652-.294c.4-.063.796-.14 1.19-.234s.783-.206 1.168-.339a35.267 35.267 0 0 1 5.103-1.334 42.516 42.516 0 0 1 5.222-.618q1.04-.062 2.064-.211 1.024-.15 2.031-.393a21.343 21.343 0 0 0 3.94-1.37 6.22 6.22 0 0 1 .74-.266 9.388 9.388 0 0 1 1.318-.32c.396-.066.797-.114 1.199-.159.32-.036.642-.07.961-.108.54-.065 1.085-.103 1.631-.14.274-.017.547-.035.82-.056a16.308 16.308 0 0 0 2.029-.256 7.643 7.643 0 0 0 1.948-.657 15.839 15.839 0 0 1 1.584-.695 18.073 18.073 0 0 1 3.296-.881 23.576 23.576 0 0 1 1.717-.23c.204-.02.408-.04.613-.062a18.876 18.876 0 0 0 1.838-.266c.202-.042.403-.089.603-.143a7.912 7.912 0 0 0 1.174-.41q.287-.129.565-.286a13.633 13.633 0 0 1 4.14-1.513q.727-.142 1.48-.22c.37-.037.741-.09 1.11-.158a8.69 8.69 0 0 0 3.141-1.185 8.67 8.67 0 0 1 1.887-.906 15.024 15.024 0 0 1 1.999-.523c.486-.096.964-.215 1.438-.35a30.407 30.407 0 0 0 2.784-.963c.458-.179.913-.364 1.368-.55 1.366-.558 2.73-1.123 4.139-1.553.47-.143.945-.271 1.427-.38a1.95 1.95 0 0 0 .816-.492 4.83 4.83 0 0 1 .747-.559 10.46 10.46 0 0 1 2.552-1 12.786 12.786 0 0 0 2.061-.83c.995-.493 1.95-1.073 2.93-1.603.325-.177.654-.348.988-.51a12.143 12.143 0 0 1 2.078-.8.334.334 0 0 0 .126-.097 10.752 10.752 0 0 1 2.565-1.833c.514-.279 1.042-.536 1.57-.794.736-.36 1.472-.721 2.174-1.144.302-.182.597-.375.883-.584 1.333-.975 2.431-2.188 3.658-3.255a14.138 14.138 0 0 1 1.282-1.003c.175-.12.068-.583.257-.725a21.89 21.89 0 0 0 4.721-3.865 9.077 9.077 0 0 0 3.508-5.643c.087-.487.154-.976.203-1.466l.006-3.668c-.018-.19-.046-.377-.07-.565zM46.891 50.028c-.121.66-.673 1.01-1.364 1.22a14.74 14.74 0 0 1-2.203.372 14.98 14.98 0 0 0-3.564.785 6.091 6.091 0 0 0-1.886 1.173.694.694 0 0 1-.417.188 1.006 1.006 0 0 1-.48-.09 6.861 6.861 0 0 1-4.245-6.622 11.49 11.49 0 0 1 .394-1.833 5.33 5.33 0 0 1 .633-1.34 4.378 4.378 0 0 1 .312-.411l.005-.005a4.489 4.489 0 0 1 1.147-.952 3.102 3.102 0 0 0 .522-.386 3.496 3.496 0 0 0 .426-.47 5.04 5.04 0 0 0 .623-1.117c.34-.818.735-.944 1.16-.623a2.307 2.307 0 0 1 .434.46c.136.181.26.37.39.555.39.556.765 1.122 1.144 1.685.27.403.554.79.854 1.159a11.347 11.347 0 0 0 2.036 1.973 9.928 9.928 0 0 0 1.232.782c.355.19.73.4 1.087.633.201.13.393.272.577.419a4.106 4.106 0 0 1 .792.807 2.087 2.087 0 0 1 .391 1.638zm159.243 34.62a.986.986 0 0 1-.415.372 2.85 2.85 0 0 1-.682.237 30.155 30.155 0 0 1-6.355.676c-4.873.076-9.746.073-14.619.101l-8.269-.019-.133-.001a1.804 1.804 0 0 1-.79.075c-2.18-.293-4.05.288-6.227.068-2.045-.388-3.965-.843-5.946-1.034l-.42-.1a1.283 1.283 0 0 1-.638.3 1.455 1.455 0 0 1-.743-.115c-.24-.094-.473-.226-.703-.338a3.564 3.564 0 0 0-.274-.123 11.092 11.092 0 0 1-1.446-.695c-1.393-.788-2.659-1.802-4.066-2.572a28.967 28.967 0 0 0-1.866-.945 17.457 17.457 0 0 0-1.92-.753q-.49-.157-.99-.277-.375-.09-.757-.156a11.063 11.063 0 0 0-1.56-.158q-.399-.012-.806.007a4.574 4.574 0 0 0-2.191.6 3.707 3.707 0 0 0-1.671 3.06 5.5 5.5 0 0 1-.14.878 2.79 2.79 0 0 1-.617 1.24 1.686 1.686 0 0 1-.462.354 1.659 1.659 0 0 1-.552.17h-.017a2.583 2.583 0 0 1-1.123-.164 4.28 4.28 0 0 1-.476-.2 5.245 5.245 0 0 1-.514-.266 5.389 5.389 0 0 0-1.593-.655 7.13 7.13 0 0 0-1.452-.195 97.394 97.394 0 0 0-6.853-.008c-1.519.057-3.033.159-4.543.32s-3.014.38-4.513.67q-1.124.219-2.244.492a4.967 4.967 0 0 1-1.325.136 6.447 6.447 0 0 1-.651-.052 8.665 8.665 0 0 1-.647-.11 14.53 14.53 0 0 1-.856-.208 1.204 1.204 0 0 1-.772-.542.735.735 0 0 1-.081-.315c-.02-.558.48-.618.913-.68a7.732 7.732 0 0 0 1.19-.261 6.39 6.39 0 0 0 2.087-1.081 6.643 6.643 0 0 0 .89-.843 3.308 3.308 0 0 1 .481-.45 4.008 4.008 0 0 1 1.695-.71 9.315 9.315 0 0 1 .989-.131 25.2 25.2 0 0 1 .5-.037c2.943-.197 5.809-.537 8.466-2.046a5.258 5.258 0 0 1 2.04-.624 11.406 11.406 0 0 1 1.434-.058c.363.005.726.019 1.088.031s.722.022 1.078.02c.64-.006 1.28.001 1.92.01s1.278.022 1.918.026 1.28-.002 1.92-.026 1.283-.068 1.926-.142a4.497 4.497 0 0 0 2.09-1.108 3.265 3.265 0 0 1 .683-.372 49.206 49.206 0 0 1 4.834-1.434c.54-.146 1.08-.296 1.615-.46.775-.24 1.54-.515 2.302-.797s1.523-.571 2.29-.836c.385-.133.77-.26 1.158-.376a18.945 18.945 0 0 1 1.77-.448q.45-.09.907-.15c.304-.041.612-.072.923-.09a1.044 1.044 0 0 0 .461-.128 18.948 18.948 0 0 1 6.786-2.318c1.469-.246 2.958-.398 4.446-.557a88.462 88.462 0 0 0 2.67-.316 5.882 5.882 0 0 0 .766-.158 6.072 6.072 0 0 0 1.392-.583 6.848 6.848 0 0 0 .63-.407c.131-.096.271-.163.408-.244a5.855 5.855 0 0 1 2.15-.767 8.137 8.137 0 0 1 .903-.081q.954-.035 1.906-.045t1.902.006q2.85.049 5.683.347 2.831.303 5.641.885c.476.1 1.142.11 1.245.563a.58.58 0 0 1 .014.203.367.367 0 0 1-.055.153.759.759 0 0 1-.428.261 3.844 3.844 0 0 0-.527.177 1.91 1.91 0 0 0-.348.222 1.04 1.04 0 0 0-.356.508 1.195 1.195 0 0 0-.017.568 3.067 3.067 0 0 0 .19.597c.041.1.086.2.13.3a45.43 45.43 0 0 0 3.519 5.925c.738 1.146 1.46 2.304 2.186 3.457s1.46 2.303 2.222 3.433a2.991 2.991 0 0 1 .152.262 1.92 1.92 0 0 1 .208.505.908.908 0 0 1 .015.3.687.687 0 0 1-.083.25zm143.248-23.153a1.557 1.557 0 0 1-.242.645 1.723 1.723 0 0 1-.8.657 3.02 3.02 0 0 1-.462.159 3.163 3.163 0 0 1-.547.088 7.468 7.468 0 0 0-.843.118 5.65 5.65 0 0 0-1.029.285 4.97 4.97 0 0 0-1.573 1.004v-.004l-.005.005-.298.319-.01.01.008-.008-.319.324-.002.002-.329.326.015.003a1.146 1.146 0 0 1-.553.643 2.253 2.253 0 0 1-.77.198c-.182.022-.365.038-.541.067-.391.064-.785.116-1.178.165s-.788.094-1.182.144a6.337 6.337 0 0 1-.712.695 5.024 5.024 0 0 1-.6.437 4.396 4.396 0 0 1-1.372.568 5.069 5.069 0 0 1-.976.114 6.818 6.818 0 0 1-1.082-.066 6.315 6.315 0 0 0-1.077-.057 4.533 4.533 0 0 0-2.879 1.085c-.033.029-.069.05-.101.08a4.69 4.69 0 0 0-.456.486 5.372 5.372 0 0 0-.465.671 1.333 1.333 0 0 1-.4.425 3.617 3.617 0 0 1-1.74.434c-.798.062-1.604.011-2.405.048a5.195 5.195 0 0 0-2.694.675 3.42 3.42 0 0 0-.75.672 2.955 2.955 0 0 1-.736.613 3.695 3.695 0 0 1-1.746.523c-.679.04-1.357.09-2.035.141-.713.054-1.426.106-2.139.15a36.804 36.804 0 0 1-3.974.065 4.076 4.076 0 0 1-2.003 1.552 2.222 2.222 0 0 1-.464.065 2.533 2.533 0 0 1-.502-.034 4.22 4.22 0 0 1-.598-.148 7.682 7.682 0 0 1-.676-.256 32.12 32.12 0 0 1-1.728-.807c-.705-.353-1.4-.728-2.068-1.15q-.604-.38-1.183-.804c-.025-.019-.05-.036-.075-.053-.08-.057-.161-.113-.238-.171a1.615 1.615 0 0 1-.16-.139.752.752 0 0 1-.24-.595l.012-.005a1.218 1.218 0 0 1-.358.003h-.004a1.185 1.185 0 0 1-.313-.093 1.447 1.447 0 0 1-.633-.586l-.287-.247a2.253 2.253 0 0 1-1.33-1.035l-.279-.248a3.492 3.492 0 0 1-1.663-1.354l-.269-.244c-2.37-1.812-4.691-3.696-7.123-5.423-5.202-3.695-10.592-7.06-16.888-8.624a42.697 42.697 0 0 0-.623-.15 15.068 15.068 0 0 0-1.25-.243 8.93 8.93 0 0 0-.627-.07 6.473 6.473 0 0 0-1.26.024 5.301 5.301 0 0 0-1.274.316 3.677 3.677 0 0 0-1.706 1.158 1.815 1.815 0 0 0-.355 1.029 3.362 3.362 0 0 0 .681 1.916q.486.728 1.017 1.411.53.684 1.1 1.33.567.645 1.169 1.257c.8.818 1.64 1.596 2.505 2.35q.648.564 1.312 1.113.664.55 1.337 1.089.673.54 1.35 1.075 1.975 1.564 4.045 2.97a94.26 94.26 0 0 0 13.079 7.347c.317.15.721.243.86.805a16.004 16.004 0 0 1-4.694 1.142 14.2 14.2 0 0 1-1.6.193c-.201.015-.403.027-.605.039a12.268 12.268 0 0 0-4.167.705c-.025.01-.05.017-.075.028-.005.061-.01.122-.02.18-.003.02-.01.039-.015.058a.631.631 0 0 1-.031.11.442.442 0 0 1-.058.083.372.372 0 0 1-.04.058.465.465 0 0 1-.174.098c-.658.073-.333 1.094-.562 1.43-.12.033-.244.048-.365.078a1.18 1.18 0 0 1-.655.145h-.029c-3.57.664-7.49-.099-11.179.015-2.828-.014-5.657-.257-8.485-.317-.627-.014-.756.296-1.01.745-.744 1.312-1.74 2.446-3.452 2.123a9.076 9.076 0 0 0-2.22-.14l-9.552.497c-.223-.003-1.79.048-2.013.046a6.367 6.367 0 0 0-1.693.229 28.03 28.03 0 0 1-6.74-1.278c-.024 0-.042-.007-.066-.009a1.022 1.022 0 0 1-.29-.054 1.066 1.066 0 0 1-.596-.577l-.169-.184-.1-.108a5.488 5.488 0 0 1-1.37-1.85 5.134 5.134 0 0 1-.264-.738l-.01-.007a1.697 1.697 0 0 1-.94-1.247c-.002-.013-.007-.023-.01-.036l-.033-.022a2.906 2.906 0 0 1-.317-.215c-.016-.014-.028-.03-.044-.044a1.876 1.876 0 0 1-.247-.24c-.03-.037-.048-.082-.074-.121a1.421 1.421 0 0 1-.138-.223 1.508 1.508 0 0 1-.114-.418 3.692 3.692 0 0 1-1.608-1.928h.003a29.335 29.335 0 0 1-1.69-1.524c-.819-.792-1.609-1.616-2.418-2.421-.405-.402-.814-.8-1.235-1.187s-.852-.762-1.301-1.12a30.507 30.507 0 0 0-1.813-1.348 15.856 15.856 0 0 0-6.097-2.664c-.366-.067-.724-.18-1.083-.281a2.877 2.877 0 0 1-.677-.236.726.726 0 0 1-.246-.228.757.757 0 0 1-.115-.368.858.858 0 0 1 .053-.378 1.154 1.154 0 0 1 .463-.52 3.589 3.589 0 0 1 .313-.184 8.374 8.374 0 0 1 1.069-.473 13.495 13.495 0 0 1 2.244-.576c.381-.068.763-.128 1.144-.184a28.795 28.795 0 0 0 6.148-1.737 41.38 41.38 0 0 1 2.792-.977 21.617 21.617 0 0 1 2.888-.68 4.54 4.54 0 0 0 2.703-1.3 4.534 4.534 0 0 1 2.102-1.115c.31-.096.613-.2.91-.318a9.846 9.846 0 0 0 1.699-.86 8.787 8.787 0 0 0 .788-.566 8.83 8.83 0 0 1 5.136-1.546c.303-.023.603-.057.897-.107a5.73 5.73 0 0 0 2.426-.947 9.346 9.346 0 0 1 6.528-1.444c.327.025.656.057.986.093.424.046.85.065 1.278.075s.857.01 1.284.022q6.25.162 12.5.321a5.12 5.12 0 0 0 1.243-.096 2.774 2.774 0 0 0 1.083-.486 3.043 3.043 0 0 0 .624-.638 3.304 3.304 0 0 1 2.331-1.149c.294-.044.587-.078.87-.115q.99-.131 1.982-.252a69.024 69.024 0 0 1 3.982-.372 47.63 47.63 0 0 1 2.002-.08q3.889-.063 7.778-.144 3.888-.087 7.775-.223c.466-.017.93-.046 1.393-.082l.22-.018a42.758 42.758 0 0 0 2.802-.332 66.005 66.005 0 0 0 2.91-.512c1.452-.286 2.898-.607 4.344-.923q.592-.13 1.185-.227a35.059 35.059 0 0 1 4.78-.415c1.2-.033 2.404-.03 3.607-.026q4.406.014 8.813.019 4.407.01 8.814.041h.041c.826.008 1.652.049 2.477.106s1.65.128 2.474.196a4.264 4.264 0 0 1 .458.06 2.434 2.434 0 0 1 .672.225 1.46 1.46 0 0 1 .486.4 1.397 1.397 0 0 1 .166.277 1.968 1.968 0 0 1 .16.727v.012a3.385 3.385 0 0 1-.012.447 10.268 10.268 0 0 0-.033 1.375 8.48 8.48 0 0 0 .475 2.48 8.608 8.608 0 0 0 1.955 3.096 12.35 12.35 0 0 0 2.045 1.688 7.534 7.534 0 0 1 2.488 2.456 2.954 2.954 0 0 1 .464 1.777zm13.456-15.697a1.03 1.03 0 0 0 .03.35 1.44 1.44 0 0 0-.026.437 1.441 1.441 0 0 1 .026-.438 1.034 1.034 0 0 1-.03-.35zm-.387-1.485a.632.632 0 0 1 .245.117.631.631 0 0 0-.246-.116.756.756 0 0 0-.287-.024.755.755 0 0 1 .288.023zm-.948 1.495c.009-.018.013-.04.021-.06-.008.02-.012.042-.02.06a.63.63 0 0 1-.067.089.623.623 0 0 0 .066-.089zm-.262 2.377a1.495 1.495 0 0 1-.25-.142 1.497 1.497 0 0 0 .25.142 2.386 2.386 0 0 0 .243.096 2.385 2.385 0 0 1-.243-.096z" class="cls-2"/><path d="M362.696 44.43a.63.63 0 0 0-.245-.117.757.757 0 0 0-.288-.023.758.758 0 0 1 .288.023.63.63 0 0 1 .245.116z" class="cls-2"/><path d="M230.385 81.482l-.001-.001m.001.001" class="cls-3"/><path d="M392.413 62.722c.024.188.052.376.07.565l.001-.627zm-.534 7.426c-1.221 1.899-2.042 3.239-3.113 3.915-1.8 1.138-1.647 1.556-4.72 3.865-.19.143-.083.606-.258.725a14.14 14.14 0 0 0-1.282 1.004c-1.227 1.066-2.325 2.28-3.658 3.255-.286.209-.581.402-.883.584-.702.423-1.438.784-2.174 1.144-.528.258-1.056.515-1.57.794a10.752 10.752 0 0 0-2.565 1.833.335.335 0 0 1-.126.098 12.144 12.144 0 0 0-2.078.8c-.334.16-.663.332-.989.509-.978.53-1.934 1.11-2.929 1.603a12.786 12.786 0 0 1-2.06.83 10.46 10.46 0 0 0-2.553 1 4.83 4.83 0 0 0-.747.559 1.95 1.95 0 0 1-.816.493 19.59 19.59 0 0 0-1.427.38c-1.41.429-2.773.993-4.139 1.552-.455.186-.91.371-1.368.55a30.63 30.63 0 0 1-2.784.964c-.473.134-.952.253-1.438.35a15.024 15.024 0 0 0-1.999.521 8.67 8.67 0 0 0-1.887.907 8.69 8.69 0 0 1-3.141 1.184c-.369.07-.74.121-1.11.16q-.754.078-1.48.22a13.633 13.633 0 0 0-4.14 1.512q-.278.158-.565.285a7.912 7.912 0 0 1-1.174.411c-.2.054-.4.1-.603.142-.607.125-1.224.203-1.838.267-.205.022-.41.042-.613.062-.58.057-1.152.132-1.717.23a18.073 18.073 0 0 0-3.296.88 15.84 15.84 0 0 0-1.584.696 7.642 7.642 0 0 1-1.948.657 16.308 16.308 0 0 1-2.029.256c-.273.02-.546.038-.82.057-.546.036-1.092.074-1.63.139-.32.038-.642.072-.962.108-.402.045-.803.093-1.199.158a9.388 9.388 0 0 0-1.318.321 6.223 6.223 0 0 0-.74.267 21.338 21.338 0 0 1-3.94 1.37q-1.006.243-2.03.392-1.025.15-2.065.21a42.516 42.516 0 0 0-5.222.619 35.281 35.281 0 0 0-5.103 1.334c-.385.133-.775.245-1.168.339s-.79.171-1.19.234a29.413 29.413 0 0 1-3.652.294c-.819.026-1.64.04-2.456.072a40.98 40.98 0 0 0-1.22.064c-1.283.088-2.556.2-3.821.356s-2.523.357-3.773.624c-.834.177-1.665.385-2.493.628-3.402.997-6.964.961-10.49 1.022-3.178.054-6.345.205-9.504.471s-6.31.647-9.455 1.161c-5.22.854-10.538.752-15.819 1.01-2.541.125-5.083.142-7.624.158s-5.08.028-7.617.143c-2.77.126-5.54.202-8.31.246s-5.541.054-8.312.048c-5.54-.013-11.08-.09-16.62-.103q-2.605-.006-5.21-.062a506.13 506.13 0 0 1-10.42-.344q-2.605-.108-5.209-.224-1.679-.073-3.352-.216a91.22 91.22 0 0 1-9.976-1.425 33.738 33.738 0 0 0-3.75-.505 84.962 84.962 0 0 0-3.777-.209c-.84-.032-1.68-.062-2.517-.101-1.04-.049-2.082-.088-3.122-.128-2.082-.078-4.163-.156-6.24-.302a76.104 76.104 0 0 1-3.113-.278 13.71 13.71 0 0 1-1.271-.191 5.997 5.997 0 0 1-1.212-.375q-.422-.188-.849-.34-.427-.155-.86-.278a16.376 16.376 0 0 0-1.744-.394 23.95 23.95 0 0 0-1.776-.232q-.447-.043-.897-.074-.45-.032-.902-.056c-1.652-.09-3.304-.198-4.955-.31s-3.302-.23-4.953-.34a.96.96 0 0 1-.317-.043 27.199 27.199 0 0 0-7.419-1.933c-1.896-.26-3.811-.418-5.716-.626a73.717 73.717 0 0 1-1.901-.228 10.635 10.635 0 0 1-2.59-.765c-.834-.34-1.654-.718-2.507-.993a7.77 7.77 0 0 0-1.763-.37c-.956-.077-1.906-.245-2.863-.296a19.8 19.8 0 0 1-7.23-1.843 11.384 11.384 0 0 0-3.154-.836c-1.084-.154-2.187-.236-3.266-.407a14.451 14.451 0 0 1-2.023-.364 3.3 3.3 0 0 1-.607-.253q-.43-.237-.867-.443a18.194 18.194 0 0 0-2.686-1.013q-.457-.134-.92-.247a26.814 26.814 0 0 0-1.876-.388q-.474-.082-.953-.15a9.754 9.754 0 0 1-2.016-.494 6.966 6.966 0 0 1-1.831-1 1.629 1.629 0 0 0-.717-.35c-4.175-.557-7.723-2.995-11.774-3.92-.117-.026-.237-.05-.358-.076a5.346 5.346 0 0 1-.475-.122 1.719 1.719 0 0 1-.527-.244 24.425 24.425 0 0 0-5.391-2.81c-.75-.311-1.502-.616-2.24-.941-.37-.162-.736-.33-1.098-.505-2.738-1.328-5.134-3.377-8.195-4.132-1.791-.442-2.923-2.106-4.365-3.197-2.203-1.666-4.318-3.45-6.453-5.204a23.513 23.513 0 0 1-1.844-4.116l1.58 86.512s45.08 46.039 196.036 46.039c138.933 0 184.484-47.15 184.484-47.15l1.899-90.84c-.05.49-.116.978-.203 1.466a19.863 19.863 0 0 1-.395 1.727zM67.787 25.364a55.363 55.363 0 0 1 10.81 3.087 40.252 40.252 0 0 1 8.058 3.83c.686.442 1.6.852 1.494 1.859-.133 1.273-.502 2.342-2.063 2.75-1.264.329-2.82.382-3.518 1.878 1.553-.638 3.207-1.038 4.756-1.691a10.08 10.08 0 0 0 2.627-1.556c.199-.168.4-.337.61-.497a5.774 5.774 0 0 1 .652-.44 3.132 3.132 0 0 1 1.552-.441 1.417 1.417 0 0 0 .992-.36.874.874 0 0 0 .199-.32.9.9 0 0 0-.08-.782 2.326 2.326 0 0 0-.53-.588q-.794-.671-1.644-1.264-.851-.593-1.764-1.104a70.177 70.177 0 0 0-10.225-4.53c-.943-.344-1.89-.676-2.84-1.005q-1.748-.607-3.5-1.203a14.613 14.613 0 0 1-1.211-.459 5.177 5.177 0 0 1-.864-.488q-3.976 1.104-7.754 2.273c.124.031.248.059.372.093a14.874 14.874 0 0 1 3.871.958zm60.389-6.737c1.79 1.003 3.598 1.978 5.699 3.13-2.99 1.105-4.782 3.856-8.053 3.722-.668-.027-1.516-.222-2.145.364a1.447 1.447 0 0 0 .622.265 1.677 1.677 0 0 0 .314.021 3.108 3.108 0 0 0 .626-.091c.104-.024.208-.05.31-.077a4.93 4.93 0 0 1 .612-.125q.788-.094 1.57-.213 1.565-.239 3.103-.586a40.248 40.248 0 0 0 4.54-1.307q.744-.264 1.48-.559t1.46-.622a4.795 4.795 0 0 0 .461-.236 1.54 1.54 0 0 0 .547-.477.594.594 0 0 0 .088-.252.794.794 0 0 0-.193-.549 3.437 3.437 0 0 0-.682-.641 34.463 34.463 0 0 0-2.959-1.912c-.81-.492-1.645-.942-2.488-1.376s-1.696-.852-2.543-1.28q-.635-.322-1.263-.655a31.61 31.61 0 0 1-2.453-1.435q-.596-.39-1.168-.821a5.24 5.24 0 0 1-1.303-1.338c-.878.116-1.75.235-2.62.355a4.444 4.444 0 0 0 1.448 2.978 24.143 24.143 0 0 0 4.99 3.717zm17.408-5.424c1.46.87 2.915 1.755 4.413 2.553.028.014.055.03.083.045.193.102.389.198.583.297.191.097.38.197.573.291.226.11.455.21.683.315.165.076.328.156.495.228.351.153.708.295 1.067.432l.138.056c.35.131.708.25 1.068.364.057.018.112.04.17.058l.002.002a2.01 2.01 0 0 0 .308.273 2.135 2.135 0 0 0 1.076.375 3.837 3.837 0 0 0 .535.008l-.003-.002c.349.204.7.398 1.055.566a5.848 5.848 0 0 0 1.658.53 4.189 4.189 0 0 0 .434.04 4.003 4.003 0 0 0 .512-.016 4.094 4.094 0 0 0 .854-.167 22.518 22.518 0 0 0-4.515-.955 2.017 2.017 0 0 0-1.92-.66c-.17-.195-.304-.463-.518-.565a48.26 48.26 0 0 1-9.305-6.134 24.806 24.806 0 0 0-2.346-1.64c-.834.08-1.661.165-2.49.248.796.535 1.593 1.07 2.398 1.592.987.64 1.982 1.265 2.992 1.866zm51.086-4.65c1.865 1.01 3.63 2.208 5.41 3.365.532.345 1.125.822 1.095 1.491-.031.715-.835.637-1.327.89q-.818.422-1.609.893a16.552 16.552 0 0 0-2.287 1.6.396.396 0 0 0 .382.239 1.12 1.12 0 0 0 .22-.036c.076-.018.154-.039.232-.05.067-.01.132-.025.199-.035a32.568 32.568 0 0 0 4.258-1.024c.8-.24 1.596-.49 2.393-.737a55.505 55.505 0 0 1 2.723-.78 28.21 28.21 0 0 1 1.382-.317c.628-.126 1.476-.18 1.537-.896a.676.676 0 0 0-.108-.436 1.436 1.436 0 0 0-.549-.444c-.15-.08-.31-.151-.46-.22a5.982 5.982 0 0 1-.218-.104c-1.356-.69-2.719-1.365-4.081-2.042s-2.724-1.356-4.076-2.052c-.604-.31-1.19-.65-1.76-1.015l-.37-.001q-2.315 0-4.615.018c.116.668.549 1.11 1.628 1.693zm-97.948 14.42a106.02 106.02 0 0 1 3.188 1.926 17.241 17.241 0 0 0 1.51.846l.067.035a15.548 15.548 0 0 0 11.393 1.136 12 12 0 0 0 1.132-.415h-.002c-.904-.154-2.447.137-3.777.043-4.776.228-8.63-2.005-12.28-4.666a75.906 75.906 0 0 0-7.584-4.923c-1.063.222-2.115.448-3.163.676 1.58.902 3.173 1.78 4.765 2.661s3.181 1.767 4.751 2.681z" class="cls-4"/><path d="M53.549 66.592c.412.1.832.185 1.256.246a10.102 10.102 0 0 0 1.273.105 4.265 4.265 0 0 1 .625.054 3.249 3.249 0 0 1 .579.15 2.61 2.61 0 0 1 .776.462 2.453 2.453 0 0 1 .207.168 3.858 3.858 0 0 0 .78.625 4.634 4.634 0 0 0 2.739.544c1.068-.06 2.142-.006 3.212-.036a2.644 2.644 0 0 1 1.82.542 1.97 1.97 0 0 1 .413.489 3.993 3.993 0 0 0 .379.532 2.875 2.875 0 0 0 .41.397 2.362 2.362 0 0 0 1.407.506 3.87 3.87 0 0 0 .803-.057 7.039 7.039 0 0 0 .866-.21 12.4 12.4 0 0 0 .702-.231c1.222-.451 1.348-.867.506-1.916-.14-.174-.308-.367-.502-.58-.755-.83-1.592-1.599-2.334-2.436-.247-.28-.484-.567-.704-.866a2.776 2.776 0 0 1-.723-2.258 1.798 1.798 0 0 1 .547-.872 4.136 4.136 0 0 1 1.156-.717 14.841 14.841 0 0 1 12.294-.242 18.645 18.645 0 0 1 4.712 2.942 21.868 21.868 0 0 1 2.555 2.584 28.234 28.234 0 0 1 2.173 2.973q.502.785.967 1.604.524.922 1.112 1.782a19.914 19.914 0 0 0 1.259 1.644 16.421 16.421 0 0 0 3.063 2.805c.277.194.565.414.867.596a2.088 2.088 0 0 0 1.274.373 1.45 1.45 0 0 0 .342-.077c.464-.164.932-.32 1.4-.478a57.002 57.002 0 0 0 2.182-.764c.056-.022.112-.04.168-.062a21.7 21.7 0 0 0 .913-.377 13.298 13.298 0 0 0 2.588-1.472l.009-.007a.836.836 0 0 0 .545-.167.695.695 0 0 0 .137-.154c-.286-.013-.554.013-.691.318a5.199 5.199 0 0 0-2.629.504c-1.133.44-2.236 1.048-3.52.508-.172-.072-.542-.057-.602.046-1.11 1.914-2.095.305-2.753-.273-4.771-4.194-8.073-9.557-11.382-14.877-.639-1.026-.918-2.243-1.835-3.2-.909-.95-.215-1.702.844-1.94 3.111-.703 6.245-1.305 9.358-2 3.586-.803 7.267-.925 10.874-1.583.993-.181 1.8-.844 2.874-.863 2.39-.041 4.063 1.362 5.636 2.79 3.286 2.98 5.803 6.672 8.816 9.914a12.336 12.336 0 0 1 2.166 2.555 1.54 1.54 0 0 1-.306 2.176c-1.265 1.27-3.033 1.477-4.387 2.477l-.002.002a21.28 21.28 0 0 0 6.165-.59q.504-.113 1.006-.239.502-.125 1-.26a7.063 7.063 0 0 0 .739-.24 4.156 4.156 0 0 0 .59-.282 1.719 1.719 0 0 0 .91-1.131 2.576 2.576 0 0 0-.338-1.622 7.464 7.464 0 0 0-.442-.764 27.298 27.298 0 0 0-2.25-2.917c-.804-.929-1.642-1.83-2.45-2.755l-.205-.235a40.578 40.578 0 0 1-2.764-3.379 15.516 15.516 0 0 1-.838-1.309 11.737 11.737 0 0 1-.867-1.91 4.681 4.681 0 0 1-.268-1.242 2.48 2.48 0 0 1 .14-1.037 2.005 2.005 0 0 1 .232-.438 2.43 2.43 0 0 1 .802-.708 3.877 3.877 0 0 1 .577-.267 21.947 21.947 0 0 1 4.192-1.153 12.938 12.938 0 0 1 2.898-.15 10.304 10.304 0 0 1 4.483 1.354q.432.246.859.538a15.579 15.579 0 0 1 2.528 2.205 41.003 41.003 0 0 1 3.956 4.954q.893 1.309 1.697 2.674.805 1.364 1.526 2.772a8.434 8.434 0 0 0 .488.836 6.055 6.055 0 0 0 .531.688 4.662 4.662 0 0 0 .58.545 4.042 4.042 0 0 0 2.077.842 5.736 5.736 0 0 0 .823.037 7.889 7.889 0 0 0 .896-.076q-.459-.188-.881-.41a10.345 10.345 0 0 1-2.249-1.604 12.964 12.964 0 0 1-1.185-1.287 18.216 18.216 0 0 1-1.127-1.52 34.44 34.44 0 0 1-1.286-2.14 91.678 91.678 0 0 0-2.466-4.119q-.641-1.015-1.298-2.021-.655-1.007-1.318-2.008c-.061-.093-.112-.19-.169-.284a11.677 11.677 0 0 1-.39-.698c-.246-.472-.464-.954-.682-1.434-.11-.24-.219-.48-.332-.718a2.262 2.262 0 0 1 .23-2.131 3.144 3.144 0 0 1 1.348-1.208 2.78 2.78 0 0 1 .596-.197c3.557-.74 6.53-2.742 9.71-4.294a16.464 16.464 0 0 1 4.34-1.449 13.966 13.966 0 0 1 2.938-.21 14.28 14.28 0 0 1 2.98.424q.75.188 1.507.459l.01.002c.056.02.118.028.177.042.528.102 1.806.227 2.076.279a15.4 15.4 0 0 1 1.608 1.474l.001.002.003.001c.239.012.323.158.322.375a46.278 46.278 0 0 1 8.92 10.596c.07.109.167.205.233.314a.484.484 0 0 1 .049.074 2.744 2.744 0 0 0 .18.378 7.749 7.749 0 0 0 .477.712c.085.117.168.233.248.351a3.145 3.145 0 0 1 .385.732 1.647 1.647 0 0 1 .07.829 1.336 1.336 0 0 1-.133.399 1.622 1.622 0 0 1-.866.696 6.108 6.108 0 0 0-1.433.654 29.162 29.162 0 0 1-6.437 3.827 21.228 21.228 0 0 1-2.097.799c-.707.228-1.422.421-2.141.588s-1.443.307-2.169.429q-.544.09-1.09.17-.545.078-1.09.147a5.493 5.493 0 0 0-1.384.376 12.297 12.297 0 0 0-1.243.61c-.27.147-.539.292-.81.433a7.029 7.029 0 0 1-1.694.672c-.132.03-.282.044-.435.064a1.68 1.68 0 0 0-.658.183.743.743 0 0 0-.305.35 1.11 1.11 0 0 0-.079.288q.41.02.815.014a11.251 11.251 0 0 0 1.587-.129 9.37 9.37 0 0 0 1.526-.368 8.667 8.667 0 0 0 1.46-.64q.355-.198.701-.434c.117-.08.243-.143.366-.212a5.542 5.542 0 0 1 .935-.43 6.729 6.729 0 0 1 1.4-.309 23.99 23.99 0 0 0 9.279-3.33 29.733 29.733 0 0 1 7.175-3.102 2.726 2.726 0 0 0 1.89-1.372 2.649 2.649 0 0 0 .248-1.121 4.97 4.97 0 0 0-.2-1.39 12.872 12.872 0 0 0-1.062-2.621 33.823 33.823 0 0 0-2.577-3.921 31.61 31.61 0 0 1-2.81-4.172q-.188-.374-.348-.764-.16-.39-.286-.8a4.986 4.986 0 0 1-.173-.776 2.404 2.404 0 0 1 .346-1.78 2.364 2.364 0 0 1 1.568-.875 4.841 4.841 0 0 1 .777-.072c.226-.004.45-.005.676-.001s.449.013.673.03a7.488 7.488 0 0 1 1.35.216 28.336 28.336 0 0 1 5.963 2.34c.65.34 1.283.708 1.911 1.087q.835.504 1.648 1.05.74.495 1.466 1.019c.124.09.25.176.375.267v.001c1.267.933 2.504 1.906 3.734 2.888s2.455 1.973 3.695 2.942a3.742 3.742 0 0 0 .482.322 4.592 4.592 0 0 0 3.637.126c.23-.066.34-.155.38-.269a.701.701 0 0 0-.046-.42 8.105 8.105 0 0 1-1.35-.236 9.984 9.984 0 0 1-3.424-1.735 19.998 19.998 0 0 1-1.003-.803c-.655-.556-1.286-1.147-1.923-1.725a41.33 41.33 0 0 0-.961-.85 36.898 36.898 0 0 1-3.254-3.147q-.766-.836-1.484-1.718T184.771 37a2.855 2.855 0 0 1-.349-.59.65.65 0 0 1-.043-.438.738.738 0 0 1 .385-.385 3.078 3.078 0 0 1 .556-.232 53.97 53.97 0 0 1 7.911-1.844q1.337-.216 2.685-.386c1.016-.13 2.028-.287 3.035-.464s2.01-.374 3.01-.585c2.001-.422 3.991-.899 5.981-1.376q.562-.134 1.126-.232a26.103 26.103 0 0 1 3.398-.344c1.516-.064 3.037-.041 4.555-.048a49.459 49.459 0 0 0 3.033-.089 11.392 11.392 0 0 1 1.98.034 9.144 9.144 0 0 1 1.01.163 8.246 8.246 0 0 1 1.778.614 9.564 9.564 0 0 1 2.44 1.714c3.878 3.67 7.78 7.309 11.319 11.317.409.464.44.648.216.787a3.977 3.977 0 0 1-.654.252 55.65 55.65 0 0 1-16.027 3.292c.214.003.425-.013.638-.014a48.306 48.306 0 0 0 5.363-.305c4.587-.525 9.112-1.563 13.662-2.392a5.568 5.568 0 0 0 .585-.137 2.219 2.219 0 0 0 .62-.274.812.812 0 0 0 .316-.373.72.72 0 0 0 .043-.31 1.815 1.815 0 0 0-.305-.793 5.506 5.506 0 0 0-.346-.492c-1.177-1.513-2.506-2.909-3.782-4.343q-.73-.82-1.404-1.678a16.466 16.466 0 0 1-1.349-1.945 11.608 11.608 0 0 1-.677-1.37 3.757 3.757 0 0 1-.148-.427 2.959 2.959 0 0 1-.085-.413 2.019 2.019 0 0 1 .029-.733 1.679 1.679 0 0 1 .619-.94 2.488 2.488 0 0 1 .382-.246 12.386 12.386 0 0 1 2.744-1.063 12.018 12.018 0 0 1 4.824-.218 11.164 11.164 0 0 1 3.76 1.317 15.836 15.836 0 0 1 2.162 1.468c.685.546 1.338 1.14 1.97 1.757.317.308.629.622.937.938a21.277 21.277 0 0 0 4.108 3.233c.735.454 1.49.874 2.26 1.274s1.551.779 2.34 1.15a1.347 1.347 0 0 0 .718.163.51.51 0 0 0 .178-.057.438.438 0 0 0 .14-.12 1.074 1.074 0 0 0 .117-.783 2.762 2.762 0 0 1-1.42-.153 3.127 3.127 0 0 1-.417-.197 4.149 4.149 0 0 1-.888-.69 71.147 71.147 0 0 1-6.612-6.897 16.583 16.583 0 0 1-2.037-3.943c-.292-.722-.027-.965.678-1.007 1.147-.07 2.292-.18 3.436-.273 1.545.136 2.37.2 3.766.273.466.024 1.346-.538 1.813-.35.537-.018 1.077.019 1.617.043.36.016.718.026 1.076.01a4.856 4.856 0 0 0 1.595-.313c3.131 0 6.262-.007 9.393.01.455.003.962-.183 1.36.222l2.16.032c.296-.057.592-.088.889-.13.354-.051.708-.099 1.062-.128.504-.042 1.008-.064 1.511-.063s1.008.024 1.512.075a15.997 15.997 0 0 1 1.657.257 12.728 12.728 0 0 0 3.08.408 11.827 11.827 0 0 0 3.083-.388l2.22-.008c3.057-.024 5.172 2.018 7.478 3.536a18.875 18.875 0 0 1 4.62 4.815c.655.893.086 1.126-.51 1.058-1.72-.197-3.404.217-5.087.189-6.26-.106-12.502.339-18.755.44-4.28.069-8.637.372-12.465 2.757.795.489 1.436-.07 2.09-.348a16.413 16.413 0 0 1 3.789-1.236c.513-.083 1.027-.15 1.542-.205s1.03-.095 1.546-.127a69.477 69.477 0 0 1 3.1-.108l1.24-.019q.636-.009 1.273-.022c.4-.009.801-.02 1.201-.034a458.39 458.39 0 0 1 9.525-.238c3.239-.052 6.479-.085 9.718-.128q3.208-.042 6.415-.107c.505-.01 1.01-.036 1.513-.072a51.502 51.502 0 0 0 3.021-.321c.503-.066 1.005-.136 1.505-.207a3.814 3.814 0 0 0 .453-.09 2.001 2.001 0 0 0 .958-.522 1.279 1.279 0 0 0 .344-.743 2.604 2.604 0 0 0-.392-1.517 3.69 3.69 0 0 0-1.488-1.422c-1.046-.592-2.099-1.173-3.147-1.76s-2.091-1.185-3.119-1.807a5.325 5.325 0 0 0-.548-.271c-.198-.09-.402-.181-.584-.286a1.853 1.853 0 0 1-.324-.23.724.724 0 0 1-.23-.809.988.988 0 0 1 .648-.636 3.294 3.294 0 0 1 1.057-.16c.249-.006.496 0 .722.005q.765.016 1.528.056a39.68 39.68 0 0 1 3.032.271 30.57 30.57 0 0 1 4.45.904 25.428 25.428 0 0 1 2.874 1.006c3.259 1.368 6.602 2.48 9.96 3.548 1.679.534 3.36 1.057 5.037 1.596s3.348 1.095 5.005 1.693a30.596 30.596 0 0 0 4.168 1.12c.47.098.94.191 1.411.284.133.026.275.063.417.09a2.029 2.029 0 0 0 .211.03c.035.003.068 0 .102 0 .306 0 .577-.126.698-.628a1.677 1.677 0 0 1-1.677-.046c-1.847-.796-3.827-1.206-5.638-2.131-3.51-1.794-6.937-3.808-10.7-5.026a58.986 58.986 0 0 1-14.02-6.21c-1.038-.668-1.118-1.078-.212-1.846a1.714 1.714 0 0 0 .631-2.104q-.863-.2-1.732-.397a.785.785 0 0 1 .134.34.775.775 0 0 1-.013.248.99.99 0 0 1-.098.274.816.816 0 0 1-.298.302 1.137 1.137 0 0 1-.199.099 2.668 2.668 0 0 1-.644.139c-.17.019-.34.033-.493.056-.461.07-.924.128-1.387.181-.927.107-1.857.195-2.78.319-.461.062-.921.133-1.378.22-1.27.243-2.536.492-3.804.731q-.951.18-1.903.35c-1.27.226-2.542.434-3.82.607s-2.564.313-3.858.401q-.971.067-1.95.093-1.313.034-2.63.099-1.316.065-2.634.164-2.634.199-5.26.547a13.062 13.062 0 0 0-1.995.465c-.436.13-.868.268-1.3.394a13.144 13.144 0 0 1-1.304.317c-.219.04-.439.071-.66.092-2.948.275-5.908.433-8.87.552q-1.48.06-2.96.109-2.085.072-4.17.118-2.085.05-4.17.09-2.086.044-4.171.096-2.085.056-4.169.136c-2.609.105-5.21.34-7.812.573q-1.3.117-2.602.227c-1.156.096-2.313.183-3.472.25-1.544.087-3.09.137-4.64.122-1.598-.015-3.196-.104-4.793-.214s-3.195-.242-4.793-.341q-.486-.03-.966-.038a17.85 17.85 0 0 0-2.846.18c-.372.054-.743.125-1.112.205a16.574 16.574 0 0 0-2.605.789 11.873 11.873 0 0 1-1.332.434 19.777 19.777 0 0 1-2.746.493c-.928.11-1.863.185-2.793.284-.349.037-.697.077-1.044.124a18.97 18.97 0 0 0-1.964.38c-.37.09-.74.177-1.102.301q-1.03.352-2.066.654a32.591 32.591 0 0 1-4.194.935q-1.064.16-2.146.236c-1.836.123-3.698.104-5.519.34-.303.04-.605.086-.906.141s-.6.12-.897.194q-2.008.506-4.025.904-2.017.399-4.044.69a79.941 79.941 0 0 1-10.896.81q-1.372.009-2.75-.028a10.242 10.242 0 0 0-4.834.933 9.826 9.826 0 0 1-2.165.753 10.627 10.627 0 0 1-1.362.227c-1.008.095-2.015.226-3.022.34-.504.057-1.007.11-1.511.152s-1.008.074-1.513.089a7.193 7.193 0 0 0-1.137.124 10.211 10.211 0 0 0-3.058 1.189c-.955.532-1.866 1.149-2.787 1.698a18.58 18.58 0 0 1-.927.52c-4.565 2.38-9.536 3.374-14.255 5.132a20.987 20.987 0 0 1-7.466.852c-.515-.003-1.03-.006-1.545-.002s-1.027.015-1.538.04-1.019.061-1.523.12l-.137.016a49.79 49.79 0 0 0-5.108.759 14.663 14.663 0 0 0-4.868 1.933 9.918 9.918 0 0 1-1.523.81 10.83 10.83 0 0 1-1.557.522 18.986 18.986 0 0 1-3.252.484c-.346.027-.692.049-1.038.067-1.387.075-2.784.103-4.161.247a19.41 19.41 0 0 0-1.54.22 13.83 13.83 0 0 0-1.516.368q-.797.244-1.596.472a64.792 64.792 0 0 1-3.208.83c-.633.147-1.269.277-1.906.399-.985.188-1.974.35-2.972.47q-.822.099-1.651.163-.83.064-1.667.09a19.8 19.8 0 0 0-.848.045 10.718 10.718 0 0 0-1.643.245 6.699 6.699 0 0 0-1.527.553 5.581 5.581 0 0 0-1.954 1.673 2.556 2.556 0 0 1-1.918.708 24.65 24.65 0 0 0-3.305.533 55.7 55.7 0 0 0-2.158.536q-.538.142-1.075.288a96.4 96.4 0 0 1-2.155.563q-.6.146-1.18.324c-.774.237-1.526.51-2.263.81s-1.46.623-2.176.96c-1.074.507-2.135 1.043-3.209 1.568a3.83 3.83 0 0 0-.51.297 2.354 2.354 0 0 0-.428.376 1.295 1.295 0 0 0-.345 1.012c.091.879.918 1.295 1.712 1.49zm235.558-40.06a2.458 2.458 0 0 0 .692.131 2.457 2.457 0 0 1-.692-.131zM60.69 66.073c.816.183 1.606.482 2.643.804a5.608 5.608 0 0 1-2.625.993c-.667.187-.94-.296-.987-.92-.053-.717.332-1.02.969-.877z" class="cls-4"/><path d="M343.886 64.45a4.97 4.97 0 0 1 1.573-1.003 5.65 5.65 0 0 1 1.029-.285 7.468 7.468 0 0 1 .843-.118 3.163 3.163 0 0 0 .547-.088 3.02 3.02 0 0 0 .462-.16 1.723 1.723 0 0 0 .8-.656 1.557 1.557 0 0 0 .242-.645 2.954 2.954 0 0 0-.464-1.777 7.534 7.534 0 0 0-2.488-2.457 12.35 12.35 0 0 1-2.045-1.687 8.608 8.608 0 0 1-1.955-3.096 8.48 8.48 0 0 1-.475-2.48 10.268 10.268 0 0 1 .033-1.375 3.395 3.395 0 0 0 .011-.447v-.012a1.968 1.968 0 0 0-.16-.727 1.397 1.397 0 0 0-.165-.277 1.46 1.46 0 0 0-.486-.4 2.434 2.434 0 0 0-.672-.224 4.264 4.264 0 0 0-.458-.061c-.824-.068-1.649-.14-2.474-.196s-1.651-.099-2.477-.105h-.041q-4.407-.038-8.814-.042l-8.813-.019a117.765 117.765 0 0 0-3.607.026 35.059 35.059 0 0 0-4.78.415q-.594.098-1.185.227c-1.446.316-2.892.637-4.343.923a67.39 67.39 0 0 1-2.911.512c-.93.14-1.863.253-2.802.332l-.22.018c-.463.036-.927.065-1.393.082q-3.886.141-7.775.223-3.89.087-7.778.145-1.004.016-2.002.079a69.024 69.024 0 0 0-3.982.372q-.992.119-1.983.252c-.282.037-.575.07-.869.115a3.304 3.304 0 0 0-2.332 1.15 3.043 3.043 0 0 1-.623.637 2.774 2.774 0 0 1-1.084.486 5.12 5.12 0 0 1-1.241.096q-6.25-.165-12.501-.321c-.427-.011-.856-.012-1.284-.022s-.854-.029-1.278-.075a30.39 30.39 0 0 0-.987-.094 9.346 9.346 0 0 0-6.527 1.445 5.73 5.73 0 0 1-2.426.947c-.294.05-.594.084-.897.107a8.83 8.83 0 0 0-5.136 1.546 8.787 8.787 0 0 1-.788.567 9.846 9.846 0 0 1-1.7.86c-.296.116-.6.221-.909.317a4.534 4.534 0 0 0-2.103 1.115 4.54 4.54 0 0 1-2.702 1.3 21.617 21.617 0 0 0-2.888.68 41.38 41.38 0 0 0-2.792.977 28.795 28.795 0 0 1-6.148 1.737c-.38.056-.763.115-1.144.184a13.495 13.495 0 0 0-2.244.576 8.374 8.374 0 0 0-1.069.473 3.589 3.589 0 0 0-.313.184 1.154 1.154 0 0 0-.463.52.858.858 0 0 0-.053.378.757.757 0 0 0 .115.368.726.726 0 0 0 .246.228 2.877 2.877 0 0 0 .677.236c.359.1.717.213 1.083.281a15.856 15.856 0 0 1 6.097 2.664c.616.42 1.218.874 1.813 1.348.449.358.88.734 1.3 1.12s.831.785 1.236 1.187c.81.805 1.6 1.629 2.419 2.421a29.36 29.36 0 0 0 1.689 1.525l-.003-.001a3.692 3.692 0 0 0 1.608 1.928 1.508 1.508 0 0 0 .114.418 1.421 1.421 0 0 0 .137.223c.027.039.045.084.075.12a1.876 1.876 0 0 0 .246.241c.016.014.029.03.045.044a2.906 2.906 0 0 0 .317.215l.034.022c.002.013.007.023.01.036a1.697 1.697 0 0 0 .939 1.247l.01.007a5.134 5.134 0 0 0 .263.739 5.486 5.486 0 0 0 1.371 1.849q-.019-.214-.053-.418a2.655 2.655 0 0 0-1.574-2.167c.006-.089.01-.175.009-.258-.007-.58-.225-1.004-.968-1.035.042-.704-.115-1.257-.969-1.283 0-.01-.003-.017-.003-.027a1.818 1.818 0 0 0-.417-1.271 2.172 2.172 0 0 0-1.187-.628 2.34 2.34 0 0 0-.759-1.725c-.216-.23-.453-.447-.678-.673a4.115 4.115 0 0 1-.6-.724 13.821 13.821 0 0 0-.854-1.207c-.304-.391-.62-.775-.926-1.164s-.604-.784-.869-1.195a7.437 7.437 0 0 1-.68-1.301 9.904 9.904 0 0 1-.301-.924 9.912 9.912 0 0 0-.546-1.593 3.77 3.77 0 0 0-.381-.647 3.444 3.444 0 0 0-.349-.397.548.548 0 0 1-.17-.343.753.753 0 0 1 .21-.557 1.36 1.36 0 0 1 .655-.397q1.574-.446 3.12-.965a105.597 105.597 0 0 0 5.27-1.94q1.943-.765 3.873-1.565c1.23-.511 2.455-1.037 3.688-1.532a61.56 61.56 0 0 1 1.856-.714c.932-.34 1.873-.65 2.826-.91a24.401 24.401 0 0 1 2.908-.618 20 20 0 0 1 2-.193q.508-.023 1.023-.019.516.005 1.04.04a22.96 22.96 0 0 1 3.653.532q.588.136 1.163.304a20.361 20.361 0 0 1 2.974 1.126 20.717 20.717 0 0 1 2.79 1.592q.674.457 1.328.974c5.515 4.368 10.924 8.87 16.726 12.866q3.164 2.179 6.291 4.409a3.85 3.85 0 0 1 .634.51.883.883 0 0 1 .247.525.812.812 0 0 1-.014.216.729.729 0 0 1-.07.21.494.494 0 0 1-.42.254 1.322 1.322 0 0 1-.18.005c-.185-.007-.378-.04-.542-.038-.048 0-.084.01-.129.013a1.971 1.971 0 0 0-.253.026 1.132 1.132 0 0 0-.132.045 1.212 1.212 0 0 0-.164.057.852.852 0 0 0-.125.09.938.938 0 0 0-.095.067.874.874 0 0 0-.096.126.962.962 0 0 0-.06.08 1.177 1.177 0 0 0-.065.152c-.012.03-.028.058-.038.091a1.855 1.855 0 0 0-.042.184c-.006.03-.016.06-.02.09a3.347 3.347 0 0 0-.029.254c0 .015-.003.029-.004.043a7.612 7.612 0 0 0-.015.312.47.47 0 0 0-.262.242.92.92 0 0 0-.07.352.467.467 0 0 0 .174-.098.372.372 0 0 0 .041-.058.442.442 0 0 0 .058-.082.631.631 0 0 0 .03-.11c.005-.02.013-.038.016-.059.01-.058.015-.119.02-.18.025-.011.05-.017.075-.028a12.263 12.263 0 0 1 4.167-.705c.202-.012.403-.024.605-.039a14.2 14.2 0 0 0 1.6-.193 16.004 16.004 0 0 0 4.694-1.142c-.14-.562-.543-.656-.86-.805a94.26 94.26 0 0 1-13.08-7.346q-2.067-1.41-4.044-2.971-.676-.536-1.35-1.075-.672-.54-1.337-1.089-.663-.55-1.312-1.114a43.61 43.61 0 0 1-2.505-2.349q-.601-.613-1.17-1.258-.568-.646-1.099-1.329-.53-.684-1.017-1.411a3.362 3.362 0 0 1-.681-1.916 1.815 1.815 0 0 1 .355-1.029 3.677 3.677 0 0 1 1.706-1.158 5.301 5.301 0 0 1 1.273-.316 6.473 6.473 0 0 1 1.261-.023c.21.015.419.039.627.069.418.06.834.146 1.25.243.208.048.415.099.623.15 6.296 1.564 11.686 4.929 16.888 8.624 2.432 1.727 4.752 3.61 7.123 5.422.03-.964-.777-1.374-1.343-1.881-4.293-3.855-9.115-7.12-12.852-11.6-.726-.872-.698-1.387.318-1.808a6.905 6.905 0 0 1 1.673-.52 65.026 65.026 0 0 1 8.904-.695 20.528 20.528 0 0 0 5.51-.763 42.745 42.745 0 0 1 7.545-1.145c2.589-.24 5.187-.459 7.751-.868a34.015 34.015 0 0 1 8.532-.72c2.166-.714 4.389-.194 6.583-.28.137-.005.375.232.407.388.062.31-.178.446-.468.51-.464.102-.923.229-1.384.345a1.083 1.083 0 0 0 .74.804c.337.13.723.181 1.031.333 1.807.891 3.725 1.566 5.493 2.52 4.472 2.416 7.96 6.182 12.346 8.972-1.218.708-2.659 1.072-2.224 2.801zM200.79 84.915a4.432 4.432 0 0 1-.484.1c-.78.121-1.56.206-2.344.267-1.566.123-3.137.153-4.706.198-.785.022-1.569.048-2.351.091-.68.037-1.36.047-2.04.067-2.027.06-4.059.067-6.092.043-2.052-.025-4.104-.063-6.155-.067-1.666.27-3.397-.374-5.03.358l4.073.042.133.001 8.27.02c4.872-.03 9.745-.026 14.617-.102a30.155 30.155 0 0 0 6.355-.676 2.85 2.85 0 0 0 .683-.237.986.986 0 0 0 .415-.372.687.687 0 0 0 .083-.25.908.908 0 0 0-.015-.3 1.92 1.92 0 0 0-.208-.505 2.995 2.995 0 0 0-.152-.262c-.762-1.13-1.495-2.279-2.222-3.433s-1.448-2.311-2.186-3.457a45.43 45.43 0 0 1-3.519-5.925c-.044-.1-.089-.2-.13-.3a3.067 3.067 0 0 1-.19-.597 1.195 1.195 0 0 1 .016-.568 1.04 1.04 0 0 1 .357-.508 1.91 1.91 0 0 1 .348-.222 3.844 3.844 0 0 1 .526-.177.759.759 0 0 0 .43-.26.367.367 0 0 0 .054-.154.58.58 0 0 0-.014-.203c-.103-.452-.77-.464-1.245-.563q-2.809-.587-5.641-.885-2.832-.303-5.683-.347-.95-.016-1.902-.006t-1.906.045a8.123 8.123 0 0 0-.902.081 5.855 5.855 0 0 0-2.151.767c-.137.081-.277.148-.409.244a6.848 6.848 0 0 1-.629.407 6.069 6.069 0 0 1-1.392.583 5.882 5.882 0 0 1-.766.158c-.886.122-1.778.22-2.67.316-1.488.159-2.978.311-4.446.557a18.948 18.948 0 0 0-6.786 2.318 1.044 1.044 0 0 1-.46.128c-.312.018-.62.049-.925.09s-.606.09-.906.15a18.94 18.94 0 0 0-1.77.448c-.388.117-.774.243-1.157.376-.768.265-1.529.554-2.291.836s-1.527.557-2.303.796c-.535.165-1.074.315-1.614.461a49.206 49.206 0 0 0-4.834 1.434 3.265 3.265 0 0 0-.683.373 4.497 4.497 0 0 1-2.09 1.107c-.643.074-1.284.117-1.925.142s-1.281.03-1.92.026-1.28-.016-1.92-.025-1.28-.017-1.92-.012c-.355.003-.716-.007-1.077-.019s-.726-.026-1.088-.03a11.406 11.406 0 0 0-1.435.057 5.258 5.258 0 0 0-2.039.624c-2.657 1.509-5.523 1.85-8.467 2.046-.166.01-.333.023-.5.037a9.315 9.315 0 0 0-.988.131 4.008 4.008 0 0 0-1.695.71 3.308 3.308 0 0 0-.482.45 6.643 6.643 0 0 1-.89.843 6.39 6.39 0 0 1-2.087 1.08 7.732 7.732 0 0 1-1.19.263c-.432.06-.932.12-.913.679a.735.735 0 0 0 .082.315 1.204 1.204 0 0 0 .772.542c.284.077.57.149.856.208.215.044.43.082.646.11a6.447 6.447 0 0 0 .652.052 4.967 4.967 0 0 0 1.325-.136q1.12-.274 2.244-.492c1.499-.29 3.004-.51 4.513-.67s3.024-.263 4.542-.32a97.406 97.406 0 0 1 6.854.008 7.13 7.13 0 0 1 1.452.195 5.388 5.388 0 0 1 1.593.655 5.246 5.246 0 0 0 .514.267 4.28 4.28 0 0 0 .475.2 2.585 2.585 0 0 0 1.124.163c.005 0 .011.002.017 0a1.659 1.659 0 0 0 .552-.17 1.686 1.686 0 0 0 .461-.354 2.79 2.79 0 0 0 .617-1.24 5.5 5.5 0 0 0 .14-.878 3.707 3.707 0 0 1 1.672-3.06 4.574 4.574 0 0 1 2.19-.6q.408-.02.807-.007a11.063 11.063 0 0 1 1.56.158q.382.066.757.156.5.12.99.277a17.457 17.457 0 0 1 1.92.753c.63.288 1.25.608 1.866.945 1.407.77 2.673 1.784 4.066 2.572a11.092 11.092 0 0 0 1.446.695c.09.036.182.078.274.123.23.112.463.244.703.338a1.455 1.455 0 0 0 .742.114 1.284 1.284 0 0 0 .639-.299 7.8 7.8 0 0 1-2.024-.943 8.978 8.978 0 0 1-2.276-2.192 13.848 13.848 0 0 1-1.122-1.803 19.803 19.803 0 0 1-.472-.958 21.013 21.013 0 0 1-.388-.885 5.952 5.952 0 0 1-.24-.69 2.05 2.05 0 0 1-.079-.54c0-.033.017-.06.02-.092a1.064 1.064 0 0 1 .348-.71 3.84 3.84 0 0 1 .78-.534c.337-.187.754-.392 1.256-.64a30.286 30.286 0 0 1 4.092-1.608c1.394-.451 2.807-.848 4.207-1.284a62.019 62.019 0 0 1 8.019-1.746 66.751 66.751 0 0 0 8.025-1.707 2.468 2.468 0 0 1 1.416.092 28.395 28.395 0 0 1 8.683 4.21 34.38 34.38 0 0 1 3.692 3.047q.877.828 1.712 1.718.835.889 1.632 1.833c.155.184.3.376.45.564a11.83 11.83 0 0 1 1.227 1.775 7.268 7.268 0 0 1 .401.876 3.975 3.975 0 0 1 .152.486 2.204 2.204 0 0 1 .061.416 1.088 1.088 0 0 1-.15.643 1.472 1.472 0 0 1-.91.564zM36.977 53.675a1.006 1.006 0 0 0 .48.09.694.694 0 0 0 .417-.187 6.091 6.091 0 0 1 1.886-1.173 14.98 14.98 0 0 1 3.564-.785 14.74 14.74 0 0 0 2.203-.372c.691-.21 1.243-.56 1.364-1.22a2.087 2.087 0 0 0-.391-1.638 4.106 4.106 0 0 0-.792-.807 7.39 7.39 0 0 0-.577-.42 14.687 14.687 0 0 0-1.087-.632 9.91 9.91 0 0 1-1.232-.782 11.347 11.347 0 0 1-2.036-1.973c-.3-.369-.583-.756-.854-1.159-.38-.563-.755-1.129-1.144-1.685-.13-.185-.254-.374-.39-.555a2.304 2.304 0 0 0-.434-.46c-.425-.32-.82-.195-1.16.623a5.04 5.04 0 0 1-.623 1.116 3.496 3.496 0 0 1-.426.47 3.102 3.102 0 0 1-.522.387 4.489 4.489 0 0 0-1.147.952l-.005.005a4.378 4.378 0 0 0-.312.412 5.33 5.33 0 0 0-.633 1.339 11.49 11.49 0 0 0-.394 1.833 6.861 6.861 0 0 0 4.245 6.621zM34.06 45.19c.175-.542.11-1.387 1.124-1.288a3.188 3.188 0 0 1 1.971 1.484 17.967 17.967 0 0 0 3.273 4.118c.263.233.7.523.432.911a1.67 1.67 0 0 1-.961.486c-.81.186-2.185-.52-1.855 1.33.055.31-.486.311-.803.268a3.854 3.854 0 0 1-3.077-4.166c.164-1.057-.44-2.1-.104-3.143zm227.666-30.277q3.283.013 6.561-.174 1.639-.092 3.276-.23a4.688 4.688 0 0 0 .86-.162 8.792 8.792 0 0 0 .836-.284 1.951 1.951 0 0 0 .617-.357.759.759 0 0 0 .182-.258c.151-.343-.04-.737-.558-1.149-.333-.264-.693-.498-1.048-.737-.178-.12-.354-.24-.525-.366-.095-.07-.183-.148-.274-.222q-2.195-.263-4.415-.51a13.219 13.219 0 0 0 1.076 1.723c.231.324.425.63.208 1.011-.245.433-.684.445-1.119.454-2.854.063-5.644.973-8.53.655a.887.887 0 0 0-.852.328c.14.074.278.207.42.212q1.643.06 3.285.066z" class="cls-4"/><path d="M300.848 72.598c.077.058.158.114.238.17l.075.053q.578.426 1.183.805c.668.421 1.363.797 2.068 1.15a32.12 32.12 0 0 0 1.728.806c.24.103.465.189.676.257a4.22 4.22 0 0 0 .598.148 2.533 2.533 0 0 0 .502.034 2.222 2.222 0 0 0 .464-.065 4.076 4.076 0 0 0 2.003-1.552 9.617 9.617 0 0 1-6.1-.72c-1.296-.567-2.559-1.21-3.836-1.82a.752.752 0 0 0 .24.595 1.615 1.615 0 0 0 .161.139zm37.874-5.953c.394-.05.788-.096 1.182-.144s.787-.101 1.178-.165c.176-.03.36-.045.54-.067a2.253 2.253 0 0 0 .77-.198 1.147 1.147 0 0 0 .554-.643c-1.376.515-3.118-.237-4.224 1.217zm-41.466 3.008c-.087-1.026-.699-1.406-1.663-1.354a3.487 3.487 0 0 0 1.663 1.354zm.28.248a2.25 2.25 0 0 0 1.329 1.034c-.005-.908-.585-1.076-1.33-1.034zm1.616 1.282a1.447 1.447 0 0 0 .633.586 1.185 1.185 0 0 0 .313.093h.004a1.218 1.218 0 0 0 .358-.003c-.216-.65-.739-.71-1.308-.676zm-66.865 13.178a1.066 1.066 0 0 0 .595.578 1.022 1.022 0 0 0 .291.054c.024.001.042.01.067.01l-.032-.475-.92-.167z" class="cls-4"/><path d="M289.8 26.663a2.458 2.458 0 0 1-.693-.131 2.457 2.457 0 0 0 .692.131z" class="cls-5"/><path d="M274.535 26.549c-3.13-.018-6.262-.01-9.393-.01 3.131 0 6.262-.008 9.393.01z" class="cls-2"/><path d="M326.5 49.017c.461-.116.92-.243 1.384-.345.29-.064.53-.2.468-.51-.032-.156-.27-.393-.407-.388-2.194.086-4.417-.435-6.583.279a17.169 17.169 0 0 0 2.53.692 15.272 15.272 0 0 0 2.608.272z" class="cls-5"/><path fill="#650420" d="M154.335 17.271c.214.101.349.37.518.564a2.017 2.017 0 0 1 1.92.66 22.518 22.518 0 0 1 4.515.956c.941.26 1.504 1.546 2.274.8 2.836-.018 4.909-.038 7.744-.05a5.877 5.877 0 0 0 .997-.438c.275-.117.515-.174.582-.006.55-.027 1.1-.048 1.65-.066 1.102-.038 2.204-.07 3.3-.146a32.266 32.266 0 0 0 1.641-.153c1.169-.141 2.348-.289 3.508-.516.58-.113 1.154-.247 1.72-.409q.425-.121.843-.266.417-.145.826-.316a5.127 5.127 0 0 1 .74-.246 9.383 9.383 0 0 1 1.47-.222c.244-.022.487-.04.728-.064.333-.033.67-.051 1.007-.057a18.966 18.966 0 0 1 3.039.223 4.842 4.842 0 0 0 1.763-.104 17.747 17.747 0 0 1 2.832-.624 16.56 16.56 0 0 1 2.287-1.6q.79-.469 1.609-.891c.492-.254 1.296-.176 1.327-.89.03-.67-.563-1.147-1.094-1.492-1.782-1.157-3.546-2.356-5.412-3.365-1.08-.584-1.512-1.025-1.628-1.693-18.19.132-35.755 1.046-52.357 2.637a24.806 24.806 0 0 1 2.346 1.64 48.26 48.26 0 0 0 9.305 6.134zm-31.149-2.361a4.444 4.444 0 0 1-1.448-2.978c-10.297 1.413-20.12 3.096-29.369 5.023a75.906 75.906 0 0 1 7.585 4.923c3.648 2.661 7.503 4.894 12.28 4.666 1.33.094 2.872-.197 3.777-.043h.001l7.665-.658c.63-.586 1.477-.391 2.145-.364 3.271.134 5.063-2.617 8.053-3.722-2.101-1.153-3.908-2.127-5.699-3.13a24.143 24.143 0 0 1-4.99-3.717zm110.924-2.64a4.42 4.42 0 0 0 1.01.747 2.013 2.013 0 0 0 .615.187 17.836 17.836 0 0 1 2.136.498 7.031 7.031 0 0 0 2.173.293h.007a37.085 37.085 0 0 1 4.192.34c4.575.927 9.203-.591 13.778.3a.887.887 0 0 1 .852-.328c2.886.317 5.676-.592 8.53-.655.435-.01.874-.021 1.12-.454.216-.382.022-.687-.21-1.01a13.219 13.219 0 0 1-1.075-1.725c-12.884-1.434-26.412-2.467-40.415-3.053a38.273 38.273 0 0 1 6.816 4.446c.16.13.314.273.47.415zm123.098 23.534a2.762 2.762 0 0 0-.267-.453 8.187 8.187 0 0 0-.438-.558 36.175 36.175 0 0 1-.977-1.198c-.105-.135-.215-.268-.315-.407-.164-.228-.33-.456-.497-.682-.336-.452-.68-.895-1.05-1.31a7.472 7.472 0 0 0-2.601-1.99 5.76 5.76 0 0 0-.815-.28 12.458 12.458 0 0 1-1.361-.458q-.571-.224-1.132-.472c-.811-.36-1.615-.737-2.45-1.036a10.005 10.005 0 0 0-1.72-.461 3.167 3.167 0 0 1-.496-.127 3.637 3.637 0 0 1-.662-.313 3.807 3.807 0 0 1-.357-.234 2.366 2.366 0 0 1-.305-.27c-.036-.037-.076-.063-.112-.1-7.42-2.42-15.518-4.644-24.198-6.648a1.714 1.714 0 0 1-.631 2.104c-.906.768-.826 1.178.211 1.845a58.986 58.986 0 0 0 14.02 6.211c3.764 1.218 7.191 3.232 10.701 5.026 1.811.925 3.791 1.335 5.638 2.131a1.677 1.677 0 0 0 1.677.046 1.84 1.84 0 0 0 .589.386 2.421 2.421 0 0 0 .526.14 4.51 4.51 0 0 0 .456.055c.225.014.451.018.674.03.112.006.222.014.331.026.501.055 1.002.145 1.504.222.335.051.67.097 1.006.122a5.555 5.555 0 0 0 1.52-.073 4.351 4.351 0 0 0 1.236-.39.731.731 0 0 0 .358-.35.546.546 0 0 0 .018-.282 1.085 1.085 0 0 0-.08-.252zm-74.071 41.719q-3.122-2.237-6.291-4.41c-5.802-3.994-11.211-8.497-16.726-12.865q-.654-.517-1.329-.974a20.717 20.717 0 0 0-2.79-1.592 20.361 20.361 0 0 0-2.973-1.126q-.575-.168-1.163-.304a22.96 22.96 0 0 0-3.654-.532q-.524-.035-1.039-.04-.515-.005-1.022.019a20 20 0 0 0-2 .193 24.401 24.401 0 0 0-2.909.618c-.953.26-1.894.57-2.826.91a61.56 61.56 0 0 0-1.856.714c-1.233.495-2.457 1.02-3.688 1.532q-1.93.802-3.873 1.565a105.597 105.597 0 0 1-5.27 1.94q-1.547.516-3.12.965a1.36 1.36 0 0 0-.654.397.753.753 0 0 0-.21.557.548.548 0 0 0 .17.343 3.444 3.444 0 0 1 .348.397 3.77 3.77 0 0 1 .381.647 9.912 9.912 0 0 1 .546 1.592c.088.311.181.622.3.925a7.437 7.437 0 0 0 .681 1.3c.266.412.562.807.869 1.196s.622.773.926 1.164a13.821 13.821 0 0 1 .855 1.207 4.115 4.115 0 0 0 .6.724c.224.226.461.443.677.673a2.34 2.34 0 0 1 .759 1.725 2.172 2.172 0 0 1 1.187.628 1.818 1.818 0 0 1 .417 1.27c0 .01.004.018.003.028.854.026 1.011.579.969 1.283.743.03.961.454.968 1.035 0 .083-.003.169-.01.258a2.655 2.655 0 0 1 1.575 2.167q.035.204.054.418l.1.108.168.183.92.167.033.474a28.03 28.03 0 0 0 6.739 1.277 6.367 6.367 0 0 1 1.692-.228c.223.002 1.79-.049 2.014-.046l9.552-.497a9.076 9.076 0 0 1 2.22.14c1.713.323 2.708-.811 3.451-2.123.255-.45.384-.759 1.011-.745 2.828.06 5.657.302 8.485.317 3.688-.114 7.609.649 11.18-.015.229-.042.457-.09.683-.145.12-.03.245-.045.365-.078.229-.336-.096-1.357.562-1.43a.92.92 0 0 1 .069-.352.47.47 0 0 1 .262-.242c.003-.106.007-.21.015-.312 0-.015.003-.028.004-.043.007-.086.015-.172.029-.253.004-.032.014-.06.02-.09a1.855 1.855 0 0 1 .042-.185c.01-.033.026-.06.038-.091a1.177 1.177 0 0 1 .065-.153.962.962 0 0 1 .06-.08.874.874 0 0 1 .096-.125.938.938 0 0 1 .095-.067.852.852 0 0 1 .125-.09 1.212 1.212 0 0 1 .164-.057 1.132 1.132 0 0 1 .132-.045 1.971 1.971 0 0 1 .253-.026c.045-.003.081-.012.13-.013.163-.002.356.031.54.037a1.322 1.322 0 0 0 .18-.004.494.494 0 0 0 .42-.254.728.728 0 0 0 .071-.21.812.812 0 0 0 .014-.216.883.883 0 0 0-.247-.526 3.85 3.85 0 0 0-.634-.51zm-56.288-.542zm101.422-26.827c-.308-.152-.694-.203-1.032-.333a1.083 1.083 0 0 1-.74-.804 15.275 15.275 0 0 1-2.608-.272 17.168 17.168 0 0 1-2.53-.692 34.015 34.015 0 0 0-8.53.721c-2.566.41-5.163.627-7.752.868a42.745 42.745 0 0 0-7.544 1.145 20.528 20.528 0 0 1-5.511.763 65.026 65.026 0 0 0-8.904.696 6.905 6.905 0 0 0-1.673.519c-1.016.421-1.044.936-.318 1.807 3.737 4.482 8.558 7.746 12.852 11.6.566.508 1.373.918 1.343 1.882q.135.124.27.245c.963-.052 1.575.328 1.662 1.354l.28.248c.744-.042 1.324.126 1.329 1.034q.143.125.287.248c.57-.033 1.092.025 1.308.676l-.013.005c1.277.61 2.54 1.253 3.836 1.82a9.617 9.617 0 0 0 6.1.72 36.804 36.804 0 0 0 3.974-.065c.713-.044 1.426-.096 2.139-.15.678-.05 1.356-.1 2.035-.14a3.694 3.694 0 0 0 1.746-.525 2.957 2.957 0 0 0 .735-.612 3.42 3.42 0 0 1 .751-.672 5.195 5.195 0 0 1 2.694-.675c.8-.037 1.607.014 2.405-.048a3.617 3.617 0 0 0 1.74-.434 1.333 1.333 0 0 0 .4-.425 5.371 5.371 0 0 1 .465-.67 4.69 4.69 0 0 1 .456-.486c.032-.03.068-.053.101-.081a4.533 4.533 0 0 1 2.879-1.085 6.315 6.315 0 0 1 1.077.057 6.818 6.818 0 0 0 1.082.066 5.069 5.069 0 0 0 .976-.114 4.396 4.396 0 0 0 1.37-.568 5.024 5.024 0 0 0 .602-.437 6.341 6.341 0 0 0 .712-.695c1.105-1.454 2.847-.702 4.224-1.217l-.015-.003.332-.328h-.001l-.001.002-.006.006.007-.008.294-.3.025-.025-.008.01.01-.01v-.001l.298-.319.005-.005c-.435-1.73 1.006-2.093 2.224-2.801-4.385-2.79-7.874-6.556-12.346-8.971-1.769-.955-3.686-1.63-5.493-2.521zm-106.156-1.993h.001a55.65 55.65 0 0 0 16.027-3.292c.146-.05.276-.093.386-.133a1.486 1.486 0 0 0 .268-.119c.224-.139.193-.323-.216-.787-3.538-4.008-7.44-7.647-11.32-11.317a9.564 9.564 0 0 0-2.44-1.713 8.246 8.246 0 0 0-1.777-.615 9.144 9.144 0 0 0-1.01-.162 11.392 11.392 0 0 0-1.98-.035c-.504.033-1.01.055-1.515.068s-1.011.019-1.518.021c-1.518.007-3.039-.016-4.555.048a26.103 26.103 0 0 0-3.398.344q-.564.099-1.125.233c-1.99.476-3.98.953-5.981 1.375-1 .21-2.004.408-3.011.585s-2.018.334-3.035.464q-1.347.172-2.685.386a53.97 53.97 0 0 0-7.911 1.844 3.078 3.078 0 0 0-.555.232.738.738 0 0 0-.386.385.65.65 0 0 0 .043.439 1.923 1.923 0 0 0 .138.273c.059.098.13.203.212.316q.67.924 1.387 1.807.718.882 1.484 1.718a36.907 36.907 0 0 0 3.254 3.146c.324.277.643.563.961.852.637.578 1.268 1.168 1.923 1.725.327.278.66.547 1.003.802a9.984 9.984 0 0 0 3.425 1.735 8.105 8.105 0 0 0 1.35.236 26.792 26.792 0 0 1 5.787.032c.003.098.01.174.022.002.641 0 1.52-.176 2.157-.176 2.492-.013 4.482.243 6.99.027 2.832.03 4.777-.652 7.406-.735.065-.002.13-.009.194-.011zm-64.51 14.891q.545-.07 1.09-.148.546-.079 1.09-.17c.726-.12 1.45-.261 2.169-.428s1.434-.36 2.14-.588a21.228 21.228 0 0 0 2.098-.799 29.162 29.162 0 0 0 6.437-3.827 6.108 6.108 0 0 1 1.434-.654 1.622 1.622 0 0 0 .865-.696 1.336 1.336 0 0 0 .133-.4 1.647 1.647 0 0 0-.07-.828 3.145 3.145 0 0 0-.385-.732c-.08-.118-.163-.234-.248-.35a7.749 7.749 0 0 1-.477-.713 2.745 2.745 0 0 1-.18-.378.488.488 0 0 0-.049-.074c-.066-.109-.162-.205-.232-.314a46.278 46.278 0 0 0-8.92-10.596l-.326-.376v-.002a15.4 15.4 0 0 0-1.609-1.474c-.27-.052-1.548-.177-2.076-.279-.06-.014-.12-.022-.178-.042l-.009-.002q-.756-.272-1.507-.46a14.28 14.28 0 0 0-2.98-.424 13.966 13.966 0 0 0-2.937.211 16.464 16.464 0 0 0-4.34 1.449c-3.18 1.552-6.154 3.554-9.711 4.294a2.78 2.78 0 0 0-.596.197 3.144 3.144 0 0 0-1.348 1.208 2.262 2.262 0 0 0-.23 2.131c.113.238.222.478.332.718.218.48.436.962.681 1.434.123.236.252.47.391.698.058.094.108.191.169.284q.661 1.002 1.318 2.008.655 1.006 1.298 2.021a91.667 91.667 0 0 1 2.466 4.119 34.44 34.44 0 0 0 1.286 2.14 18.216 18.216 0 0 0 1.127 1.52 12.979 12.979 0 0 0 1.185 1.287 10.345 10.345 0 0 0 2.249 1.604q.423.222.882.41l.96-.003a1.11 1.11 0 0 1 .079-.288.743.743 0 0 1 .305-.35 1.68 1.68 0 0 1 .658-.183c.153-.02.303-.034.435-.064a7.029 7.029 0 0 0 1.695-.671c.27-.142.54-.287.809-.434a12.297 12.297 0 0 1 1.244-.61 5.493 5.493 0 0 1 1.383-.376zm-34.313 1.028c-3.013-3.242-5.53-6.933-8.816-9.914-1.573-1.428-3.246-2.831-5.636-2.79-1.073.019-1.881.682-2.874.863-3.607.658-7.288.78-10.874 1.582-3.113.696-6.247 1.298-9.358 2-1.06.24-1.753.99-.844 1.94.917.958 1.196 2.175 1.835 3.201 3.31 5.32 6.61 10.683 11.382 14.877.658.578 1.643 2.187 2.753.273.06-.103.43-.118.602-.046 1.284.54 2.387-.067 3.52-.508a5.199 5.199 0 0 1 2.629-.504c.137-.305.405-.33.691-.318a20.175 20.175 0 0 1 1.555-.448 9.119 9.119 0 0 1 1.6-.244c.39-.022.778.05 1.168-.01a1.548 1.548 0 0 0 .392-.113 41.254 41.254 0 0 1 7.746-2.631l.002-.002c1.354-1 3.122-1.207 4.387-2.477a1.54 1.54 0 0 0 .306-2.176 12.336 12.336 0 0 0-2.166-2.555zM88.15 34.14c.104-1.007-.809-1.417-1.495-1.859a40.252 40.252 0 0 0-8.058-3.83 55.363 55.363 0 0 0-10.81-3.087 14.874 14.874 0 0 0-3.871-.958c-.124-.034-.248-.062-.372-.093-.286.089-.566.18-.85.27a200.927 200.927 0 0 0-19.576 7.199c-.092.078-.18.163-.275.237a2.524 2.524 0 0 0-.708.934 5.381 5.381 0 0 0-.153.36c-.063.163-.121.329-.18.494a13.32 13.32 0 0 1-.149.411 3.081 3.081 0 0 1-.65 1.1 2.385 2.385 0 0 0-.301.356.609.609 0 0 0-.11.267c-.025.254.26.385.709.532a33.005 33.005 0 0 1 3.328 1.138c2.12.958 4.226 1.946 6.334 2.93q2.671 1.245 5.358 2.455c.33.148.657.3.988.445a28.73 28.73 0 0 0 3.655 1.351 15.578 15.578 0 0 0 6.463.586 13.204 13.204 0 0 0 4.67-1.585 4.34 4.34 0 0 1 1.669-.536 4.665 4.665 0 0 0 1-.201 6.845 6.845 0 0 0 1.748-.89c.275-.184.546-.382.818-.584.266-.197.54-.382.818-.56s.562-.344.848-.507a20.625 20.625 0 0 1 1.922-.976q.633-.277 1.282-.522l.352-.277.006.012.008.016c.699-1.496 2.254-1.55 3.518-1.879 1.56-.407 1.93-1.476 2.063-2.75zm113.488 48.666a7.268 7.268 0 0 0-.402-.876 11.83 11.83 0 0 0-1.227-1.775c-.15-.188-.295-.38-.45-.564q-.797-.943-1.632-1.833-.835-.889-1.711-1.718a34.38 34.38 0 0 0-3.693-3.046 28.395 28.395 0 0 0-8.683-4.21 2.468 2.468 0 0 0-1.416-.093 66.751 66.751 0 0 1-8.025 1.707 62.019 62.019 0 0 0-8.019 1.746c-1.4.436-2.813.833-4.207 1.284a30.286 30.286 0 0 0-4.092 1.608c-.502.248-.918.453-1.256.64a3.84 3.84 0 0 0-.78.534 1.064 1.064 0 0 0-.348.71c-.003.033-.019.059-.02.093a2.05 2.05 0 0 0 .08.539 5.952 5.952 0 0 0 .24.69c.105.26.235.552.388.885.148.323.305.643.471.958a13.848 13.848 0 0 0 1.123 1.803 8.978 8.978 0 0 0 2.275 2.192 7.8 7.8 0 0 0 2.024.943l.42.1c1.98.191 3.901.646 5.946 1.034 2.177.22 4.047-.36 6.227-.068a1.804 1.804 0 0 0 .79-.075l-4.073-.042c1.633-.732 3.364-.087 5.03-.358 2.051.004 4.104.042 6.155.067 2.033.024 4.065.017 6.093-.042.68-.02 1.36-.03 2.039-.068a89.028 89.028 0 0 1 2.35-.091c1.57-.045 3.141-.075 4.707-.198a31.094 31.094 0 0 0 2.344-.267 4.432 4.432 0 0 0 .485-.1 1.472 1.472 0 0 0 .908-.564 1.088 1.088 0 0 0 .152-.643 2.204 2.204 0 0 0-.061-.416 3.975 3.975 0 0 0-.152-.486zm63.504-56.268a4.856 4.856 0 0 1-1.595.313 12.18 12.18 0 0 1-1.076-.01c-.54-.024-1.08-.255-1.616-.237-1.861-.064-3.895.27-5.579.271-1.145.093-2.29.204-3.437.273-.705.042-.97.285-.678 1.007a16.583 16.583 0 0 0 2.037 3.943 71.147 71.147 0 0 0 6.612 6.897 4.149 4.149 0 0 0 .888.69 3.127 3.127 0 0 0 .417.197 2.762 2.762 0 0 0 1.42.153 9.696 9.696 0 0 0 1.474.168q.366.014.73.002l.045-.002a15.98 15.98 0 0 0 3.566-.583c3.828-2.385 8.184-2.688 12.466-2.757 6.252-.101 12.495-.546 18.754-.44 1.684.028 3.367-.386 5.087-.19.596.069 1.165-.164.51-1.057a18.875 18.875 0 0 0-4.62-4.815c-2.306-1.518-4.421-3.56-7.477-3.536l-2.221.008a11.827 11.827 0 0 1-3.083.388 16.538 16.538 0 0 1-3.44-.74c-2.237-.004-4.1-.314-6.272.128a10.225 10.225 0 0 1-2.159-.128c-3.3.012-6.199-.103-9.499-.092a4.005 4.005 0 0 0-1.254.15zM59.722 66.95c.046.624.32 1.107.987.92a5.608 5.608 0 0 0 2.625-.993c-1.037-.322-1.827-.621-2.643-.804-.637-.143-1.022.16-.969.877zM40.428 49.504a17.967 17.967 0 0 1-3.273-4.118 3.188 3.188 0 0 0-1.971-1.484c-1.013-.099-.95.746-1.124 1.288-.336 1.043.268 2.086.104 3.143A3.854 3.854 0 0 0 37.24 52.5c.317.043.858.041.803-.267-.33-1.851 1.046-1.145 1.855-1.33a1.67 1.67 0 0 0 .961-.487c.269-.388-.169-.678-.432-.911z"/><path d="M74.99 266.004a14.376 14.376 0 0 1-3 5.516l4.43 4.173-4.205 4.39-4.636-4.4a19.408 19.408 0 0 1-3.669 1.814 19.69 19.69 0 0 1-6.211.867 17.783 17.783 0 0 1-12.476-4.503q-5.976-5.422-5.975-15.921 0-10.579 6.127-16a18.088 18.088 0 0 1 12.438-4.424 17.842 17.842 0 0 1 12.57 4.686q5.864 5.42 5.864 15.162a25.676 25.676 0 0 1-1.257 8.64zm-14.633 5.184a13.252 13.252 0 0 0 1.808-.655l-3.907-3.716 4.143-4.326 3.923 3.694a18.238 18.238 0 0 0 1.283-3.3 18.982 18.982 0 0 0 .575-4.947q0-6.494-2.658-10.041a9.1 9.1 0 0 0-7.763-3.548 9.47 9.47 0 0 0-7.647 3.405q-2.854 3.404-2.854 10.186 0 7.934 4.087 11.364a9.52 9.52 0 0 0 6.339 2.225 10.337 10.337 0 0 0 2.671-.34zm18.509-16.861v-5.316h3.98v-7.961h7.384v7.961h4.635v5.316H90.23v15.081a3.395 3.395 0 0 0 .446 2.188q.444.432 2.723.432.34 0 .72-.014.38-.012.746-.039v5.578l-3.535.13q-5.29.184-7.227-1.833a5.454 5.454 0 0 1-1.257-3.954v-17.57zm47.305 6.257q-3.389 2.829-9.68 2.828h-8.036v13.879h-8.013v-38.597h16.573q5.73 0 9.138 2.985 3.407 2.984 3.408 9.243 0 6.834-3.39 9.662zm-6.156-13.904a6.498 6.498 0 0 0-4.292-1.283h-7.268v11.365h7.268a6.16 6.16 0 0 0 4.292-1.389 5.663 5.663 0 0 0 1.533-4.398q0-3.011-1.533-4.295zm16.537 36.084l.943.052a11.753 11.753 0 0 0 2.095-.08 3.765 3.765 0 0 0 1.676-.601 4.031 4.031 0 0 0 1.217-1.86 4.502 4.502 0 0 0 .485-1.727l-10.488-29.8h8.301l6.232 21.054 5.892-21.053h7.934l-9.785 28.07q-2.837 8.117-4.488 10.069-1.652 1.95-6.606 1.95-.996 0-1.599-.013-.604-.014-1.809-.092zm32.988-40.038a15.886 15.886 0 0 1 11.865-4.766q9.637 0 14.093 6.39a13.926 13.926 0 0 1 2.642 7.2h-8.065a10.991 10.991 0 0 0-1.975-4.19q-2.155-2.513-6.387-2.513a7.87 7.87 0 0 0-6.799 3.548q-2.488 3.549-2.488 10.042 0 6.494 2.626 9.728a8.227 8.227 0 0 0 6.672 3.234 7.56 7.56 0 0 0 6.327-2.776 12.184 12.184 0 0 0 1.998-4.478h8.013a17.386 17.386 0 0 1-5.298 10.265 15.418 15.418 0 0 1-10.92 3.954q-8.237 0-12.951-5.341-4.715-5.369-4.715-14.716 0-10.108 5.363-15.58zm58.242 31.073q-3.614 4.46-10.972 4.46-7.359 0-10.972-4.46a17.709 17.709 0 0 1 0-21.44q3.614-4.526 10.973-4.527 7.357 0 10.97 4.527a17.705 17.705 0 0 1 0 21.44zm-5.97-4.124a13.319 13.319 0 0 0 0-13.218 6.633 6.633 0 0 0-10.068 0 13.238 13.238 0 0 0 0 13.218 6.61 6.61 0 0 0 10.067 0zm37.941-19.29q2.803 2.317 2.803 7.685v19.22h-7.646v-17.36a7.967 7.967 0 0 0-.598-3.456q-1.092-2.2-4.159-2.2a5.155 5.155 0 0 0-5.173 3.22 11.147 11.147 0 0 0-.727 4.347v15.45h-7.463V248.8h7.227v4.163a12.651 12.651 0 0 1 2.711-3.168 9.396 9.396 0 0 1 5.816-1.728 10.942 10.942 0 0 1 7.21 2.317zm27.325-1.636h8.012l-10.307 28.542h-7.867l-10.237-28.542h8.38l5.944 21.053zm30.841.578a11.603 11.603 0 0 1 4.932 4.222 14.026 14.026 0 0 1 2.274 5.9 36.414 36.414 0 0 1 .246 5.665h-20.788q.174 4.295 2.985 6.023a7.58 7.58 0 0 0 4.115 1.073 5.794 5.794 0 0 0 5.68-3.272h7.618a9.306 9.306 0 0 1-2.766 5.158q-3.835 4.164-10.738 4.163a15.56 15.56 0 0 1-10.053-3.511q-4.355-3.511-4.355-11.427 0-7.416 3.93-11.375a13.76 13.76 0 0 1 10.207-3.957 16.237 16.237 0 0 1 6.713 1.338zm-11.164 6.447a7.757 7.757 0 0 0-1.989 4.417h12.857a6.225 6.225 0 0 0-1.987-4.51 6.541 6.541 0 0 0-4.427-1.538 5.913 5.913 0 0 0-4.454 1.631zM345 248.08c.096.01.31.023.642.04v7.646q-.707-.078-1.257-.105a20.888 20.888 0 0 0-.891-.026q-4.503 0-6.048 2.933a11.412 11.412 0 0 0-.865 5.08v13.643h-7.515v-28.542h7.123v4.975a15.774 15.774 0 0 1 3.01-3.902 8.197 8.197 0 0 1 5.447-1.754c.14 0 .258.004.353.012zm2.082 6.247v-5.316h3.98v-7.961h7.384v7.961h4.635v5.316h-4.635v15.081a3.395 3.395 0 0 0 .446 2.188q.444.432 2.723.432.34 0 .72-.014.38-.012.746-.039v5.578l-3.534.13q-5.291.184-7.228-1.833a5.454 5.454 0 0 1-1.257-3.954v-17.57z"/></svg>