<svg xmlns="http://www.w3.org/2000/svg" role="img" viewBox="-46.50 -49.00 2418.00 688.00"><title>QuiltiX logo</title><path fill="#000" d="M119.813 340.656h54.151l27.219 35.021 26.781 31.198 50.469 63.266h-59.448l-34.724-42.672-17.802-25.308-46.646-61.505zm98.583-45.906c0-21.281-3.161-39.234-9.489-53.854-6.329-14.615-15.23-25.698-26.704-33.255-11.479-7.552-24.916-11.328-40.317-11.328s-28.839 3.776-40.318 11.328c-11.4791 7.557-20.3802 18.64-26.7031 33.255-6.3281 14.62-9.4948 32.573-9.4948 53.854 0 21.292 3.1667 39.24 9.4948 53.854 6.3229 14.62 15.224 25.698 26.7031 33.255 11.479 7.552 24.917 11.329 40.318 11.329 15.401 0 28.838-3.777 40.317-11.329 11.474-7.557 20.375-18.635 26.704-33.255 6.328-14.614 9.489-32.562 9.489-53.854zm64.594 0c0 32.865-6.203 60.818-18.609 83.87-12.412 23.052-29.282 40.635-50.62 52.75-21.334 12.12-45.292 18.172-71.875 18.172-26.782 0-50.8128-6.084-72.0992-18.245-21.2865-12.162-38.1094-29.771-50.4688-52.823C6.95866 355.422.77637 327.516.77637 294.75c0-32.859 6.18229-60.818 18.54163-83.87 12.3594-23.052 29.1823-40.635 50.4688-52.75 21.2864-12.114 45.3172-18.172 72.0992-18.172 26.583 0 50.541 6.058 71.875 18.172 21.338 12.115 38.208 29.698 50.62 52.75 12.406 23.052 18.609 51.011 18.609 83.87zm328.937-150.672h63.714v195.698c0 21.974-5.224 41.198-15.672 57.677s-25.042 29.307-43.776 38.479-40.562 13.756-65.474 13.756c-25.016 0-46.891-4.584-65.625-13.756-18.739-9.172-33.307-22-43.703-38.479s-15.594-35.703-15.594-57.677V144.078h63.709v190.255c0 11.474 2.526 21.677 7.578 30.605 5.052 8.927 12.187 15.937 21.411 21.041 9.219 5.099 19.958 7.651 32.224 7.651 12.359 0 23.125-2.552 32.297-7.651 9.172-5.104 16.281-12.114 21.333-21.041 5.052-8.928 7.578-19.131 7.578-30.605V144.078zM914.36 445.422h-63.714V144.078h63.714v301.344zm177.24 0V144.078h63.72v248.818h129.19v52.526H1091.6zm260.63-248.813v-52.531h247.49v52.531h-92.25v248.813h-62.98V196.609h-92.26zm455.91 248.813h-63.72V144.078h63.72v301.344z"/><mask id="a" style="mask-type:luminance" width="429" height="594" x="1897" y="0" maskUnits="userSpaceOnUse"><path fill="#fff" d="M1897.67.66666h428V594h-428V.66666z"/></mask><g mask="url(#a)"><mask id="b" style="mask-type:luminance" width="428" height="592" x="1898" y="1" maskUnits="userSpaceOnUse"><path fill="#fff" d="M2194.67 66.3177c0 11.1146 2.79 21.5781 7.68 30.7396l-90.42 140.8597-58.87-91.709h-75.72l96.73 150.672-106.19 165.422c-1.31-.078-2.63-.13-3.97-.13-36.05 0-65.27 29.229-65.27 65.276 0 36.052 29.22 65.276 65.27 65.276s65.28-29.224 65.28-65.276c0-11.115-2.79-21.578-7.69-30.74l90.43-140.854 58.59 91.261 76 .437-96.73-150.672 106.19-165.416c1.31.078 2.63.13 3.97.13 36.05 0 65.27-29.224 65.27-65.2763 0-36.0521-29.22-65.27604-65.27-65.27604s-65.28 29.22394-65.28 65.27604zm35.67 0c0-16.349 13.25-29.6042 29.61-29.6042 16.35 0 29.6 13.2552 29.6 29.6042 0 16.349-13.25 29.6042-29.6 29.6042-16.36 0-29.61-13.2552-29.61-29.6042zM1934.31 527.448c0-16.349 13.25-29.604 29.6-29.604s29.61 13.255 29.61 29.604c0 16.349-13.26 29.604-29.61 29.604s-29.6-13.255-29.6-29.604z"/></mask><g mask="url(#b)"><path fill="url(#paint0_linear_1_55)" d="M2598.78 409.542l-405.63-605.724-568.07 380.406 405.63 605.724 568.07-380.406z"/></g></g><mask id="c" style="mask-type:luminance" width="137" height="152" x="1976" y="146" maskUnits="userSpaceOnUse"><path fill="#fff" d="M1976.33 146h136v152h-136V146z"/></mask><g mask="url(#c)"><mask id="d" style="mask-type:luminance" width="135" height="151" x="1977" y="146" maskUnits="userSpaceOnUse"><path fill="#fff" d="M1977.34 146.208l96.73 150.672 37.86-58.963-58.87-91.709h-75.72z"/></mask><g mask="url(#d)"><path fill="url(#paint1_linear_1_55)" d="M2071.1 84.3438L1908.08 191.917l110.09 166.833 163.02-107.573L2071.1 84.3438z"/></g></g><path stroke="#fff" stroke-miterlimit="10" stroke-width="1.323" d="M2111.93 237.917l-37.86 58.968m75.72 0l-37.86 58.964m148.02-259.9167c-16.35 0-29.61-13.2552-29.61-29.6042 0-16.3489 13.26-29.6041 29.61-29.6041s29.6 13.2552 29.6 29.6041c0 16.349-13.25 29.6042-29.6 29.6042zM1963.91 557.063c-16.35 0-29.6-13.256-29.6-29.605s13.25-29.604 29.6-29.604c16.36 0 29.61 13.255 29.61 29.604 0 16.349-13.25 29.605-29.61 29.605zM2259.95 1.05208c-36.05 0-65.28 29.22392-65.28 65.27602 0 11.1146 2.78 21.5781 7.68 30.7396l-90.42 140.8593-58.87-91.703h-75.72l96.73 150.672-106.19 165.417c-1.31-.079-2.63-.131-3.97-.131-36.05 0-65.27 29.224-65.27 65.276 0 36.052 29.22 65.276 65.27 65.276s65.28-29.224 65.28-65.276c0-11.114-2.79-21.578-7.68-30.739l90.42-140.86 58.59 91.266 75.99.443-96.72-150.672 106.19-165.422c1.31.078 2.63.13 3.97.13 36.05 0 65.27-29.224 65.27-65.2759 0-36.0521-29.22-65.27602-65.27-65.27602z"/><defs id="defs130"><linearGradient id="paint0_linear_1_55" x1="2395.96" x2="1827.9" y1="106.68" y2="487.087" gradientUnits="userSpaceOnUse"><stop id="stop8" stop-color="#018FA8"/><stop id="stop9" offset=".25" stop-color="#018FA8"/><stop id="stop10" offset=".281" stop-color="#028FA8"/><stop id="stop11" offset=".297" stop-color="#028EA7"/><stop id="stop12" offset=".305" stop-color="#038EA7"/><stop id="stop13" offset=".313" stop-color="#048DA7"/><stop id="stop14" offset=".32" stop-color="#048DA6"/><stop id="stop15" offset=".328" stop-color="#058CA6"/><stop id="stop16" offset=".332" stop-color="#068BA5"/><stop id="stop17" offset=".336" stop-color="#078BA5"/><stop id="stop18" offset=".34" stop-color="#078AA5"/><stop id="stop19" offset=".344" stop-color="#088AA4"/><stop id="stop20" offset=".348" stop-color="#0989A4"/><stop id="stop21" offset=".352" stop-color="#0989A3"/><stop id="stop22" offset=".355" stop-color="#0A88A3"/><stop id="stop23" offset=".359" stop-color="#0B88A2"/><stop id="stop24" offset=".363" stop-color="#0C87A2"/><stop id="stop25" offset=".367" stop-color="#0D86A1"/><stop id="stop26" offset=".371" stop-color="#0E85A1"/><stop id="stop27" offset=".375" stop-color="#0F84A0"/><stop id="stop28" offset=".379" stop-color="#11849F"/><stop id="stop29" offset=".383" stop-color="#12839F"/><stop id="stop30" offset=".387" stop-color="#14819E"/><stop id="stop31" offset=".391" stop-color="#15809D"/><stop id="stop32" offset=".395" stop-color="#177F9C"/><stop id="stop33" offset=".398" stop-color="#197E9B"/><stop id="stop34" offset=".402" stop-color="#1B7C9A"/><stop id="stop35" offset=".406" stop-color="#1D7B99"/><stop id="stop36" offset=".41" stop-color="#1F7997"/><stop id="stop37" offset=".414" stop-color="#217896"/><stop id="stop38" offset=".418" stop-color="#237695"/><stop id="stop39" offset=".422" stop-color="#267493"/><stop id="stop40" offset=".426" stop-color="#297292"/><stop id="stop41" offset=".43" stop-color="#2C7090"/><stop id="stop42" offset=".434" stop-color="#2F6E8F"/><stop id="stop43" offset=".438" stop-color="#326B8D"/><stop id="stop44" offset=".441" stop-color="#35698B"/><stop id="stop45" offset=".445" stop-color="#396689"/><stop id="stop46" offset=".449" stop-color="#3C6487"/><stop id="stop47" offset=".453" stop-color="#406185"/><stop id="stop48" offset=".469" stop-color="#406185"/><stop id="stop49" offset=".5" stop-color="#406185"/><stop id="stop50" offset=".531" stop-color="#406185"/><stop id="stop51" offset=".547" stop-color="#406185"/><stop id="stop52" offset=".551" stop-color="#3D6487"/><stop id="stop53" offset=".555" stop-color="#3A678A"/><stop id="stop54" offset=".559" stop-color="#366A8C"/><stop id="stop55" offset=".563" stop-color="#336C8E"/><stop id="stop56" offset=".566" stop-color="#306F90"/><stop id="stop57" offset=".57" stop-color="#2E7292"/><stop id="stop58" offset=".574" stop-color="#2B7494"/><stop id="stop59" offset=".578" stop-color="#287696"/><stop id="stop60" offset=".582" stop-color="#267897"/><stop id="stop61" offset=".586" stop-color="#247A99"/><stop id="stop62" offset=".59" stop-color="#227C9A"/><stop id="stop63" offset=".594" stop-color="#207E9C"/><stop id="stop64" offset=".598" stop-color="#1E7F9D"/><stop id="stop65" offset=".602" stop-color="#1C819E"/><stop id="stop66" offset=".605" stop-color="#1B839F"/><stop id="stop67" offset=".609" stop-color="#1984A1"/><stop id="stop68" offset=".613" stop-color="#1885A2"/><stop id="stop69" offset=".617" stop-color="#1686A3"/><stop id="stop70" offset=".621" stop-color="#1588A3"/><stop id="stop71" offset=".625" stop-color="#1489A4"/><stop id="stop72" offset=".629" stop-color="#138AA5"/><stop id="stop73" offset=".633" stop-color="#128BA6"/><stop id="stop74" offset=".637" stop-color="#118BA6"/><stop id="stop75" offset=".641" stop-color="#108CA7"/><stop id="stop76" offset=".645" stop-color="#0F8DA8"/><stop id="stop77" offset=".648" stop-color="#0E8EA8"/><stop id="stop78" offset=".652" stop-color="#0D8EA9"/><stop id="stop79" offset=".656" stop-color="#0D8FA9"/><stop id="stop80" offset=".66" stop-color="#0C90AA"/><stop id="stop81" offset=".664" stop-color="#0B90AA"/><stop id="stop82" offset=".668" stop-color="#0B91AB"/><stop id="stop83" offset=".672" stop-color="#0A91AB"/><stop id="stop84" offset=".68" stop-color="#0A91AB"/><stop id="stop85" offset=".688" stop-color="#0992AC"/><stop id="stop86" offset=".695" stop-color="#0993AC"/><stop id="stop87" offset=".703" stop-color="#0893AD"/><stop id="stop88" offset=".719" stop-color="#0794AD"/><stop id="stop89" offset=".75" stop-color="#0794AE"/><stop id="stop90" offset="1" stop-color="#0695AE"/></linearGradient><linearGradient id="paint1_linear_1_55" x1="2002.78" x2="2112.87" y1="129.428" y2="296.263" gradientUnits="userSpaceOnUse"><stop id="stop91" stop-color="#D64274"/><stop id="stop92" offset=".125" stop-color="#D64274"/><stop id="stop93" offset=".156" stop-color="#D64274"/><stop id="stop94" offset=".172" stop-color="#D64274"/><stop id="stop95" offset=".188" stop-color="#D54173"/><stop id="stop96" offset=".203" stop-color="#D44072"/><stop id="stop97" offset=".219" stop-color="#D33F71"/><stop id="stop98" offset=".234" stop-color="#D33F71"/><stop id="stop99" offset=".25" stop-color="#D23E70"/><stop id="stop100" offset=".266" stop-color="#D13D6F"/><stop id="stop101" offset=".281" stop-color="#D03C6E"/><stop id="stop102" offset=".297" stop-color="#D03C6E"/><stop id="stop103" offset=".313" stop-color="#CF3B6D"/><stop id="stop104" offset=".328" stop-color="#CE3A6C"/><stop id="stop105" offset=".344" stop-color="#CD396B"/><stop id="stop106" offset=".359" stop-color="#CD396B"/><stop id="stop107" offset=".375" stop-color="#CC386A"/><stop id="stop108" offset=".391" stop-color="#CB3769"/><stop id="stop109" offset=".406" stop-color="#CA3668"/><stop id="stop110" offset=".422" stop-color="#CA3668"/><stop id="stop111" offset=".438" stop-color="#C93567"/><stop id="stop112" offset=".453" stop-color="#C83466"/><stop id="stop113" offset=".469" stop-color="#C83466"/><stop id="stop114" offset=".484" stop-color="#C73365"/><stop id="stop115" offset=".5" stop-color="#C63264"/><stop id="stop116" offset=".516" stop-color="#C63264"/><stop id="stop117" offset=".531" stop-color="#C53163"/><stop id="stop118" offset=".547" stop-color="#C43062"/><stop id="stop119" offset=".563" stop-color="#C43062"/><stop id="stop120" offset=".578" stop-color="#C32F61"/><stop id="stop121" offset=".594" stop-color="#C22E60"/><stop id="stop122" offset=".609" stop-color="#C22E60"/><stop id="stop123" offset=".625" stop-color="#C12D5F"/><stop id="stop124" offset=".641" stop-color="#C12D5F"/><stop id="stop125" offset=".656" stop-color="#C02C5E"/><stop id="stop126" offset=".672" stop-color="#C02C5E"/><stop id="stop127" offset=".688" stop-color="#BF2B5D"/><stop id="stop128" offset=".719" stop-color="#BE2A5C"/><stop id="stop129" offset=".75" stop-color="#BD295B"/><stop id="stop130" offset="1" stop-color="#BD295B"/></linearGradient></defs></svg>