<svg xmlns="http://www.w3.org/2000/svg" role="img" viewBox="5.90 87.90 1409.20 228.20"><title>rawtoaces logo</title><defs><linearGradient id="a" x1="33.33" x2="1388.29" y1="202.42" y2="202.42" gradientUnits="userSpaceOnUse"><stop offset="0" stop-color="#e05f78"/><stop offset=".07" stop-color="#d9687a"/><stop offset=".19" stop-color="#c67f80"/><stop offset=".34" stop-color="#a7a68a"/><stop offset=".5" stop-color="#80d596"/><stop offset=".5" stop-color="#80d596"/><stop offset=".66" stop-color="#8bd7c3"/><stop offset=".8" stop-color="#93d9e3"/><stop offset=".92" stop-color="#97daf7"/><stop offset="1" stop-color="#99dafe"/></linearGradient></defs><path fill="url(#a)" d="M259 145.07q-16.08 0-26.12 8.42-6.16 5-14.45 18.71v-23.86h-44.86v5.33h-5.56v-5.35h-33.65v10.81h-5.63v-10.81h-11.24v5.33h-5.58c.1 3.6-.23 7.29.17 10.87 3.68.14 7.36 0 11 .05v11h-5.64v-5.47h-5.6a32.19 32.19 0 0 0-.15-5.38 40.84 40.84 0 0 0-5.42-.13v-5.43h-5.65v-10.81h-5.6v5.33h-5.61v5.47h11.25v5.44c1.84 0 3.67 0 5.51-.05a109.28 109.28 0 0 1 0 11h-5.53v5.52h5.63v5.46h5.59v-5.48h11.22v-5.48h5.6c.08 3.6-.11 7.21.11 10.79a33 33 0 0 0 5.54.19v5.41h-5.66c0-1.77.05-3.54 0-5.29-3.7-.34-7.48-.07-11.2-.16v5.54h11.25v10.9h5.64v5.5h-5.63V203h-5.62v-5.47a27.54 27.54 0 0 0-5.53.21 42.07 42.07 0 0 0-.11 5.27h5.62v5.49h-11.22v-11a39.11 39.11 0 0 0 5.52-.14c.12-1.78.06-3.57 0-5.35h-5.55v5.49h-5.59a41.63 41.63 0 0 0-.13-5.36c-3.67-.33-7.41-.06-11.09-.15v11h5.58v-5.48h5.64v11H95.01v5.48h5.6v5.54h5.62v5.41h5.54c.1-1.79.06-3.6.05-5.4h-5.57v-11h5.58v5.48h5.59v5.53h5.62V214h5.6v5.55h5.64v5.42h5.58v11h-11.22v5.46h11.21v5.49h-11.2v-5.5h-5.55v-5.45h5.6v-5.55h5.63v-5.43c-3.75-.06-7.51 0-11.26 0v11h-5.62v-11a29.51 29.51 0 0 0-5.4.19 29.88 29.88 0 0 0-.18 5.27h-5.57V236h-5.64v-5.53h-5.58v5.57h5.6v5.47h5.65v-5.44h11.18v5.46h5.63v5.48h-5.62v5.46h-5.58v-5.48h-11.23v5.49h11.23v5.42h-11.2v11.05h5.64c0 1.84 0 3.68-.1 5.51h-5.54v5.45h-5.66v5.52h5.6v-5.51h5.63v-5.45h5.58v5.45h5.59v5.5h5.63v-5.51h5.61v5.51h5.63c.07-3.61-.14-7.25.11-10.85 1.81-.14 3.65-.09 5.46-.1v5.45h5.61v5.51h11.23v-5.5h5.67v5.5h16.8v-5.5h5v5.58h36V219.8q0-16.44 4.14-24.36 7.41-14.07 29-14.07c1.09 0 2.52 0 4.28.12s3.76.26 6 .51v-36.68c-1.59-.08-2.61-.14-3.07-.19s-.94-.06-1.58-.06zm-152.65 36v-5.52h5.58v5.47zm44.85 32.85h11.24v5.53h-11.22c-.05-1.84-.05-3.68-.05-5.52zm0 11v5.43h-5.63v-5.41c1.85-.05 3.72-.05 5.6-.04zm11.23-49.34h-5.64v-5.47h5.68c-.05 1.83-.05 3.64-.07 5.45zm5.6 5.51v5.46h-5.59v-5.46q2.77.01 5.56-.02zm-11.25 0c0 1.8.08 3.61-.05 5.41-1.84.13-3.7 0-5.54 0v-5.46zm-5.58 0h-5.63v-11h5.65c-.06 3.66-.05 7.31-.05 10.96zm-5.71 10.89c-1.84.08-3.68 0-5.52.1v-5.5h5.59c-.05 1.76.06 3.57-.1 5.36zm.08 5.55h5.64V203h-5.64c-.03-1.88-.03-3.69-.03-5.51zm11.21 5.45v-10.87h5.66v10.85zm5.68 27.39H168v5.51h-5.57c-.01-1.88-.01-3.7 0-5.55zm5.54-21.9h5.57c0 1.8.08 3.61-.05 5.41-1.84.11-3.69 0-5.52 0v-5.41zm5.58 27.4c0 1.8.06 3.61-.06 5.41-1.84.1-3.69 0-5.52 0v-5.44zm0-11v-5.4h5.67v5.43zm5.67-16.4v-5.52h5.57v5.5h-5.58zm5.59 38.37h5.64c0 1.79.07 3.6-.07 5.38-1.85.14-3.72 0-5.58.05-.01-1.82-.01-3.63-.01-5.43zm5.65-27.38v-5.53h5.61v5.52zm5.58 49.27v5.5h-5.59v-5.49zm0-115h5.56v5.44c-1.83 0-3.68.09-5.5 0-.13-1.86-.05-3.69-.08-5.49zm0 38.37h5.55c0 1.78.09 3.57-.05 5.35-1.83.12-3.68 0-5.5.05-.02-1.84-.01-3.64-.01-5.45zm-5.61-22h-5.64v-5.5h5.63c.01 1.83 0 3.67 0 5.5zm11.16 93.13c.18-1.59-.43-4.12.4-5.45 1.74-.12 3.5 0 5.25 0v5.5zm-16.8-87.65v5.49h-5.57v-5.5h5.58zm-5.58-21.89c0 1.79.07 3.61-.07 5.4-1.85.14-3.73 0-5.59 0v-5.43zm0 32.84v5.45H168v-5.42c3.73-.02 7.47 0 11.22-.03zM168 159.16v10.94h-5.59v-10.93zm-16.83 0a30.05 30.05 0 0 0 5.37-.17 25.33 25.33 0 0 0 .21-5.3h5.66v5.45a37.59 37.59 0 0 0-5.52.16c-.27 1.69-.06 3.5-.19 5.22-1.84.12-3.7 0-5.54.06zm-16.8 0h5.57v-5.51h5.59c0 3.61.09 7.23-.05 10.84-3.7.12-7.41 0-11.12 0 0-1.71 0-3.49.01-5.32zm-11.27 0h-5.61v-5.45h5.63c-.02 1.8-.01 3.62-.02 5.44zm0 5.44v-5.43h5.6v5.43c-1.85-.02-3.7-.04-5.58-.01zm11.25 16.47a40 40 0 0 0-.16-5.36 38.51 38.51 0 0 0-5.48-.13v-5.47h5.65c0 1.81-.05 3.58.08 5.39 1.84.11 3.65.07 5.48.06v5.5zm0 16.42v-5.41h5.57v5.42zm5.57 22h-5.56v-5.52h5.57c0 1.81.01 3.65 0 5.49zm-16.82 60.15h-5.62v-5.41h5.65c-.02 1.77-.02 3.61-.03 5.41zm11.09-5.58a43.35 43.35 0 0 1-5.47.16v-5.48h5.64a37.89 37.89 0 0 1-.17 5.32zm.17-10.82h-5.64v5.49h-5.59v-5.49h-5.64v5.5h-11.16v-5.47h5.6v-5.52h5.58v-5.44h5.62v5.45c3.68 0 7.39-.09 11.06 0a34.26 34.26 0 0 1 .17 5.48zm0-5.52v-5.44h5.57v5.44c-1.86-.01-3.72-.01-5.58 0zm5.58 5.52v-5.5h5.58v5.51zm5.55-49.38c-1.85.12-3.71 0-5.55 0v-11h5.59c-.05 3.74.09 7.38-.05 11zm5.69 27.44v-5.44h5.57v5.45h5.65v5.49h-5.65v-5.5h-5.57v10.93h-5.63v-10.94c1.85.02 3.74.09 5.62.01zm-5.63 32.92v-5.48h5.63v5.46zm11.16-5.55c-1.84.12-3.69 0-5.52.05v-11h5.57c-.04 3.65.08 7.28-.06 10.95zM168 257.72h-5.56v-5.43h5.58c-.02 1.81-.02 3.62-.02 5.43zm0 11v-5.49h5.55c0 1.81.08 3.62 0 5.43-1.87.12-3.72.04-5.55.07zm11.23 10.92h-5.67v-5.41h5.67q-.01 2.7 0 5.42zm0-43.78v-5.54h5.58v5.53h-.57c-1.68.01-3.35 0-5.02.02zm219.67 39.96q-1.77-2.51-2.14-9.54-.25-9.3-.25-15.83v-62.8q0-24.75-17.53-33.66t-40.12-8.92q-34.69 0-48.95 18.09-9 11.55-10.09 29.51h34.54q1.27-7.9 5.1-12.56 5.34-6.27 18.2-6.28 11.46 0 17.38 3.21c3.95 2.13 5.92 6 5.92 11.61q0 6.91-7.72 10.18Q349 200.71 339 202l-12.28 1.51q-20.88 2.63-31.63 8.79-19.62 11.29-19.61 36.55 0 19.47 12.19 30.08t30.89 10.62a51.91 51.91 0 0 0 26.28-6.66A74 74 0 0 0 362 269.17q.38 4.65 1 8.29a39.7 39.7 0 0 0 2.26 7.78h38.94V280a12.81 12.81 0 0 1-5.3-4.18zM360.83 232q-.37 18-10.26 24.74a37.45 37.45 0 0 1-21.57 6.78 19.58 19.58 0 0 1-12.56-4.09q-5.17-4.08-5.17-13.25 0-10.29 8.46-15.2 5-2.88 16.45-4.89l8.15-1.51a58.92 58.92 0 0 0 9.61-2.45 39 39 0 0 0 6.94-3.46zm210-83.65h37.3l-39.69 136.9h-36.8l-21.48-99.73-21.73 99.73h-37.16l-38.43-136.9h38.43l21.36 98.22 19.72-98.22h36.3l20.85 98.6zm99.35 126.1q3.22-.51 6.31-1.29v12.61q-2.84.51-7.46 1.8a38.33 38.33 0 0 1-10.29 1.29q-11.58 0-17.62-5.79t-6-20.71v-97.5h-18.81V152h18.78v-37h15.44v37h25v12.87h-25v91.32q0 4.89.25 8.49a14.13 14.13 0 0 0 1.55 5.91 7.34 7.34 0 0 0 4 3.35 22.25 22.25 0 0 0 7.59 1 39 39 0 0 0 6.28-.5zm130.55-105.6a55.68 55.68 0 0 0-19.29-14.92q-11.58-5.52-27.27-5.53-15.44 0-27 5.53A55 55 0 0 0 707.89 169a64.85 64.85 0 0 0-11.58 22.25 94.12 94.12 0 0 0-3.86 27.4q0 17.49 4.89 30.61a63 63 0 0 0 13.25 21.87 53.91 53.91 0 0 0 19.55 13.12 69.69 69.69 0 0 0 24.05 4.63 62.54 62.54 0 0 0 25.34-5 54.82 54.82 0 0 0 19.55-14.28 64.88 64.88 0 0 0 12.48-22.12 89.24 89.24 0 0 0 4.37-28.81 98.56 98.56 0 0 0-3.73-27.52 61.64 61.64 0 0 0-11.45-22.31zm-3.86 70.62a57 57 0 0 1-8 18 40 40 0 0 1-14 12.74q-8.59 4.79-20.68 4.79a44.22 44.22 0 0 1-19.55-4.12 38.58 38.58 0 0 1-14.15-11.58 53.35 53.35 0 0 1-8.61-17.87 82.88 82.88 0 0 1-3-22.77 84.8 84.8 0 0 1 2.57-21 55.1 55.1 0 0 1 8-18 40.62 40.62 0 0 1 14-12.61q8.63-4.75 20.71-4.76 12.34 0 20.84 4.38a38.32 38.32 0 0 1 13.89 12 52.35 52.35 0 0 1 8 17.88 90.72 90.72 0 0 1 2.58 22.12 83.38 83.38 0 0 1-2.58 20.79zm159.7 36.36q-1.77-2.51-2.14-9.54-.26-9.3-.25-15.83v-62.8q0-24.75-17.53-33.66t-40.12-8.92q-34.69 0-48.95 18.09-9 11.55-10.09 29.51h34.54q1.28-7.9 5.1-12.56 5.34-6.27 18.2-6.28 11.46 0 17.38 3.21c3.95 2.13 5.92 6 5.92 11.61q0 6.91-7.72 10.18-4.29 1.88-14.29 3.14l-12.28 1.51q-20.88 2.63-31.63 8.79-19.62 11.29-19.61 36.55 0 19.47 12.19 30.08t30.89 10.62a51.91 51.91 0 0 0 26.28-6.66 74 74 0 0 0 17.18-13.69q.38 4.65 1 8.29a40.4 40.4 0 0 0 2.26 7.78h38.94V280a12.81 12.81 0 0 1-5.25-4.18zM918.53 232q-.39 18-10.27 24.74a37.45 37.45 0 0 1-21.62 6.79 19.58 19.58 0 0 1-12.56-4.09q-5.16-4.08-5.17-13.25 0-10.29 8.46-15.2 5-2.88 16.46-4.89l8.14-1.51a59.36 59.36 0 0 0 9.62-2.45 39.72 39.72 0 0 0 6.94-3.46zm100.11-38.69q-3.52 9.52-3.52 25.31 0 15 3.52 24.18 6.42 17.09 24.18 17.08 12.59 0 17.88-6.78t6.42-17.58h36.55q-1.26 16.32-11.82 30.89-16.85 23.49-49.91 23.49t-48.66-19.6q-15.59-19.59-15.59-50.81 0-35.24 17.22-54.83t47.53-19.59q25.77 0 42.18 11.56t19.43 40.82h-36.68a31.69 31.69 0 0 0-5.16-13.82q-6-8.3-18.76-8.29-18.14 0-24.81 17.96zm222.77-21.94a55.69 55.69 0 0 0-23.65-20.25 78 78 0 0 0-32.2-6.42q-30.11 0-49 19t-18.86 54.55q0 38 20.89 54.82a74.62 74.62 0 0 0 48.22 16.84q33.12 0 51.51-20 11.84-12.56 13.27-24.74h-36.54a30.2 30.2 0 0 1-7.37 9.42q-7.65 6.29-19.88 6.28-11.53 0-19.74-5.15-13.49-8.29-14.31-28.89h99.71q.27-17.73-1.18-27.17a67.23 67.23 0 0 0-10.87-28.3zm-86.74 31.86q1.93-13.36 9.53-21.19t21.37-7.82q12.67 0 21.23 7.38t9.54 21.63zm233.62 40.58q0 20.34-15.17 33.22t-46.88 12.87q-32.34 0-47.76-13.63t-15.42-34.73h36.3q1.14 9.56 4.92 13.57 6.69 7.16 24.74 7.16 10.61 0 16.85-3.14t6.25-9.42a10.15 10.15 0 0 0-5-9.17q-5-3.14-37.44-10.8-23.34-5.78-32.89-14.45t-9.54-24.62q0-19 14.91-32.59t42-13.63q25.68 0 41.85 10.24t18.51 35.31h-35.79q-.76-6.91-3.91-10.93-5.92-7.29-20.15-7.29-11.72 0-16.69 3.65t-5 8.54a9.35 9.35 0 0 0 5.29 8.92q5.28 2.88 37.37 9.92 21.39 5 32.07 15.2t10.58 25.79zM72.6 279.64v5.53H67v-5.52c1.89.01 3.75.01 5.6-.01zm16.75 0c-3.68.13-7.38 0-11.07 0v-5.46h11.16c-.03 1.82.06 3.65-.09 5.45zm-39.11-5.38c0 1.78.07 3.57-.05 5.34-1.87.17-3.76.06-5.63.08v-5.47c1.89 0 3.79 0 5.68.04zm16.79 0h-5.65v-5.51H67v5.48zm22.39-5.49v-5.5h5.67v5.51zm-11.31-5.52c-1.83.1-3.67 0-5.5 0a37.12 37.12 0 0 1 .15-5.38 38.89 38.89 0 0 1 5.4-.16 24.18 24.18 0 0 1-.05 5.51zm-16.72 0h-5.61v-5.56h5.58c.02 1.86.02 3.71.03 5.56zm22.47-5.51a26.79 26.79 0 0 1 .18-5.3 16.72 16.72 0 0 1 5.33 0 46 46 0 0 1 0 5.25c-1.84.11-3.68.02-5.51.05zm-16.83 0v-5.46h5.58a33.28 33.28 0 0 1-.16 5.19c-1.71.47-3.66.21-5.45.26zm28.06-5.44a32.13 32.13 0 0 1-5.55-.19c-.29-3.57 0-7.2-.12-10.79h5.66c0 3.68-.01 7.31.01 10.97zm-16.82 0v-5.46h5.56a33.75 33.75 0 0 1-.14 5.32 30.73 30.73 0 0 1-5.42.12zm-22.48-11v5.51c-1.83.06-3.66 0-5.49 0a36.59 36.59 0 0 1 0-5.54zm22.49 0h-5.69v-5.46h5.68zm16.81-16.42h-5.67v11h-5.57v-11h5.58v-5.4h5.66c-.01 1.78-.01 3.6 0 5.41zm-33.71 11h-5.59v-5.57h5.58c.01 1.86.01 3.69.01 5.56zm-28-5.55H39v5.56h-5.67c.01-1.89.01-3.72.01-5.57zm39.26-5.46c0 1.81.08 3.63 0 5.43-1.83.11-3.68 0-5.52.06v-5.48zm5.67-11h5.59v5.56h-5.61c-.01-1.81-.01-3.67-.02-5.52zm-16.88 5.55v-5.55H67v5.56zm-5.67-5.59c-1.85.15-3.72 0-5.57 0v-5.45h5.66c-.08 1.88.02 3.7-.13 5.49zM67 202.94h5.57v5.54H67v-5.54zm11.13-16.24c.33 3.57.07 7.2.14 10.78 1.85 0 3.69 0 5.53-.07 0 1.83.13 3.68 0 5.5-1.87.13-3.76 0-5.64 0 .09-1.82.13-3.63.11-5.45H72.6v-11a36.3 36.3 0 0 1 5.53.24zM89.4 192c0 1.81.11 3.65 0 5.45-1.56.12-3.14.06-4.71.12l-.87-.64c.08-1.65.08-3.29.08-5 1.81.07 3.66.07 5.5.07zm-44.83 0h5.54c0 1.82.11 3.66 0 5.48-1.83.11-3.68 0-5.52.05-.03-1.88-.03-3.72-.02-5.53zM67 186.53V192a46.47 46.47 0 0 1-5.66 0v-5.45zm11.3-.18c-.13-1.76-.06-3.54-.06-5.3h5.57v5.48a25.79 25.79 0 0 1-5.47-.18zm11.09-16.26v5.47h5.67v11h-5.68v-11h-5.57v-5.51zm-28.05 11h-5.55v-5.53h5.59zm11.23-5.49v-5.49h5.67v5.44c-1.85.02-3.74.02-5.63.04zm22.48-5.48v-5.54h5.59v5.53q-2.76-.02-5.55 0zm-33.71 0v-5.53H72.6v5.52zm22.47-5.49h-5.58v-10.91h5.58c.05 3.59.04 7.28.04 10.89zm-39.34-.07c-1.83.13-3.69 0-5.54.05v-5.45h5.59c.03 1.78.12 3.59-.01 5.38zm61.7-11a40.38 40.38 0 0 0 0-5.16c1.89-.07 3.79-.07 5.68-.06v5.35c-1.85.02-3.74.03-5.64-.13zm-50.42.14v-5.36h5.59v5.36z" data-name="5.2"/></svg>