<svg xmlns="http://www.w3.org/2000/svg" role="img" viewBox="22.10 22.10 643.30 670.80"><title>Rez logo</title><path fill="#ffb919" fill-rule="evenodd" stroke="#000" d="M90.304 294.083l-18.572 150 71.429 138.571 108.571 62.857 140-1.428 62.857-20 28.572-41.429-12.857-62.857 110-81.429 41.428-182.857L537.447 96.94 358.875 61.225 194.59 128.368z"/><path fill="#900000" d="M274.848 678.212c-61.821-7.917-115.499-34.215-159.354-78.07-44.487-44.487-70.395-97.876-78.182-161.111-2.196-17.84-2.542-60.512-.639-78.788 7.88-75.632 37.876-141.313 92.132-201.737 60.071-66.9 133.407-107.343 218.084-120.272 17.52-2.675 70.618-3.755 88.897-1.808 63.086 6.72 114.84 30.849 154.64 72.1 32.734 33.927 50.083 68.334 59.489 117.979 2.69 14.193 3.78 62.74 1.803 80.186-7.065 62.32-31.836 115.947-76.81 166.289-18.077 20.233-47.11 42.451-72.654 55.601l-9.063 4.666 6.286 10.06c7.788 12.466 16.183 23.263 19.845 25.526 6.503 4.019 9.71 4.004 20.072-.09 12.333-4.874 15.71-4.204 18.44 3.655 2.987 8.598.478 11.622-29.316 35.326-47.143 37.507-107.752 62.728-169.751 70.637-18.602 2.374-64.868 2.291-83.92-.149zm106.17-55.334c25.606-4.586 46.86-12.041 61.544-21.587 12.374-8.045 15.763-15.873 12.19-28.161-2.95-10.152-4.88-13.69-39.737-72.887-17.206-29.218-32.686-55.937-34.4-59.375-1.715-3.437-15.933-28.225-31.595-55.085l-28.477-48.835 1.306-5.142 1.305-5.142 8.307-.764c47.79-4.397 73.506-22.207 83.984-58.166 3.855-13.23 4.868-43.361 1.848-54.99-4.195-16.157-13.745-28.472-27.95-36.043-10.018-5.34-20.509-7.484-38.857-7.944l-15.531-.389-29.133 152.5c-16.024 83.875-29.144 154.766-29.156 157.535-.013 2.769.797 6.205 1.8 7.636 2.4 3.428 12.567 7.713 23.636 9.96 11.545 2.345 15.11 5.837 14.2 13.91-.339 3.002-.935 5.777-1.326 6.168-.39.39-10.262.004-21.936-.86-19.07-1.41-44.483-1.304-104.522.434l-7.5.217-.37-6.317c-.473-8.11 1.08-9.505 14.393-12.92 19.117-4.903 28.983-11.123 31.114-19.615.42-1.669 13.285-68.093 28.592-147.61 29.984-155.767 29.09-149.582 22.562-156.11-5.217-5.217-11.355-5.94-43.48-5.122-22.79.58-30.532 1.193-33.317 2.633-1.995 1.032-7.97 6.811-13.276 12.844-46.903 53.32-73.156 111.464-80.533 178.359-2.033 18.435-1.72 56.45.6 73.09 7.149 51.258 28.158 93.968 63.712 129.522 32.958 32.958 72.555 53.023 118.364 59.978 18.34 2.785 72.116 1.774 91.639-1.722zM491.2 477.534c16.788-6.193 33.39-21.242 48.506-43.97 21.29-32.01 34.784-67 41.532-107.696 1.798-10.84 2.272-20.493 2.241-45.625-.034-28.413-.348-33.3-2.887-45-7.23-33.309-19.164-57.94-40.381-83.343-26.523-31.755-61.671-52.748-103.423-61.771-15.248-3.296-55.117-4.652-73.434-2.498-46.727 5.495-90.716 23.237-128.364 51.773l-8.528 6.464 82.903.71c73.363.627 83.982.964 92.278 2.923 37.722 8.91 62.85 30.393 70.528 60.298 3.131 12.195 2.658 34.92-1.03 49.458-9.201 36.273-36.47 62.87-80.437 78.452l-12.814 4.541 37.584 63.684c20.927 35.46 39.642 65.77 42.226 68.39 7.163 7.263 19.35 8.43 33.5 3.21z"/></svg>