<svg xmlns="http://www.w3.org/2000/svg" role="img" viewBox="-2.48 -3.98 650.96 882.96"><title>Rez logo</title><path fill="#ffb919" fill-rule="evenodd" d="M68.204 271.983l-18.572 150 71.429 138.571 108.571 62.857 140-1.428 62.857-20 28.572-41.429-12.857-62.857 110-81.429 41.428-182.857L515.347 74.84 336.775 39.125 172.49 106.268z"/><path d="M229.5 623.912l-.119-.068-108.697-62.93-.067-.13-71.5-138.709.019-.153L67.722 271.81l.059-.094 104.371-165.851.15-.06 164.424-67.201.147.03 178.804 35.761.111.209L600.16 233.34l-41.51 183.22-.148.11-109.744 81.24 12.835 62.753-.12.176-28.67 41.57-63.166 20.075zm-108.062-63.718l108.326 62.716 139.788-1.426 62.623-19.925 28.353-41.114-12.878-62.96 110.108-81.508 41.345-182.495-84.086-158.198-178.192-35.639-163.997 67.025L68.687 272.155l-18.54 149.737z"/><path fill="#900000" d="M254.067 656.112c-61.82-7.917-115.499-34.215-159.354-78.07-44.487-44.487-70.395-97.876-78.182-161.111-2.196-17.84-2.542-60.512-.639-78.788 7.88-75.632 37.876-141.313 92.132-201.737 60.071-66.9 133.407-107.343 218.084-120.272 17.52-2.675 70.618-3.755 88.897-1.808 63.086 6.72 114.84 30.849 154.64 72.1 32.734 33.927 50.083 68.334 59.49 117.979 2.69 14.193 3.78 62.74 1.802 80.186-7.065 62.32-31.836 115.947-76.81 166.289-18.077 20.233-47.11 42.451-72.654 55.601l-9.063 4.666 6.286 10.06c7.788 12.466 16.183 23.263 19.845 25.526 6.503 4.019 9.71 4.004 20.072-.09 12.333-4.874 15.71-4.204 18.44 3.655 2.987 8.598.478 11.622-29.316 35.326-47.143 37.507-107.752 62.728-169.75 70.637-18.603 2.374-64.869 2.291-83.92-.149zm106.17-55.334c25.606-4.586 46.86-12.041 61.544-21.587 12.374-8.045 15.763-15.873 12.19-28.161-2.95-10.152-4.88-13.69-39.737-72.887-17.206-29.218-32.686-55.937-34.4-59.375-1.715-3.437-15.933-28.225-31.595-55.085l-28.477-48.835 1.306-5.142 1.305-5.142 8.307-.764c47.79-4.397 73.506-22.207 83.984-58.166 3.855-13.23 4.868-43.361 1.848-54.99-4.195-16.157-13.745-28.472-27.95-36.043-10.018-5.34-20.509-7.484-38.857-7.944l-15.53-.389-29.134 152.5c-16.024 83.875-29.144 154.766-29.156 157.535-.013 2.769.797 6.205 1.8 7.636 2.4 3.428 12.567 7.713 23.636 9.96 11.545 2.345 15.11 5.837 14.2 13.91-.339 3.002-.935 5.777-1.326 6.168-.39.39-10.262.004-21.936-.86-19.07-1.41-44.483-1.304-104.522.434l-7.5.217-.37-6.317c-.473-8.11 1.08-9.505 14.393-12.92 19.117-4.903 28.983-11.123 31.114-19.615.42-1.669 13.285-68.093 28.592-147.61 29.984-155.767 29.09-149.582 22.562-156.11-5.217-5.217-11.355-5.94-43.48-5.122-22.79.58-30.532 1.193-33.317 2.633-1.995 1.032-7.97 6.811-13.276 12.844-46.903 53.32-73.156 111.464-80.533 178.359-2.033 18.435-1.72 56.45.6 73.09 7.15 51.258 28.158 93.968 63.712 129.522 32.958 32.958 72.555 53.023 118.364 59.978 18.34 2.785 72.116 1.774 91.64-1.722zM470.42 455.434c16.788-6.193 33.39-21.242 48.506-43.97 21.29-32.01 34.784-67 41.532-107.696 1.798-10.84 2.272-20.493 2.241-45.625-.034-28.413-.348-33.3-2.887-45-7.23-33.309-19.164-57.94-40.38-83.343-26.524-31.755-61.672-52.748-103.424-61.771-15.248-3.296-55.117-4.652-73.434-2.498a262.51 262.51 0 0 0-128.364 51.773l-8.528 6.464 82.903.71c73.363.627 83.982.964 92.278 2.923 37.722 8.91 62.85 30.393 70.528 60.298 3.131 12.195 2.658 34.92-1.03 49.458-9.2 36.273-36.47 62.87-80.437 78.452l-12.814 4.541 37.584 63.684c20.927 35.46 39.642 65.77 42.226 68.39 7.163 7.263 19.35 8.43 33.5 3.21z"/><path d="M247.434 727.38a33.3 33.3 0 0 1 12.619 9.42 41.954 41.954 0 0 1 6.777 11.34 37.792 37.792 0 0 1 2.498 14.176 40.389 40.389 0 0 1-4.847 18.885q-4.849 9.283-16.004 13.124 9.328 3.75 13.214 10.654 3.887 6.906 3.888 21.08v9.054q0 9.238.742 12.53a11.25 11.25 0 0 0 5.202 7.681v3.384h-31.094q-1.282-4.48-1.83-7.225a66.302 66.302 0 0 1-1.188-11.615l-.183-12.528q-.174-12.895-4.456-17.194-4.283-4.297-16.047-4.298h-27.51v52.86h-27.528V723.905h64.478q13.821.276 21.269 3.476zm-58.22 19.937v36.216h30.315q9.032 0 13.55-2.195 7.99-3.84 7.99-15.18 0-12.256-7.73-16.463-4.344-2.377-13.028-2.378zm172.228 13.726a40.545 40.545 0 0 1 17.225 14.747 48.993 48.993 0 0 1 7.943 20.608 127.404 127.404 0 0 1 .858 19.784h-72.602q.607 15 10.424 21.035a26.474 26.474 0 0 0 14.372 3.749q8.906 0 14.472-4.573a21.92 21.92 0 0 0 5.364-6.859h26.61q-1.052 8.873-9.662 18.017-13.395 14.541-37.503 14.54a54.336 54.336 0 0 1-35.112-12.264q-15.213-12.265-15.212-39.909 0-25.901 13.732-39.724 13.731-13.822 35.647-13.823a56.751 56.751 0 0 1 23.444 4.672zm-38.992 22.516q-5.526 5.695-6.944 15.43h44.904q-.712-10.378-6.944-15.752a22.842 22.842 0 0 0-15.458-5.374q-10.035 0-15.558 5.696zm81.894-3.318v-21.218h78.833v21.675l-48.914 56.61h50.651v21.4H400.87v-20.303l49.414-58.164z"/></svg>