<svg xmlns="http://www.w3.org/2000/svg" role="img" viewBox="0.29 0.29 582.92 254.92"><title>Rez logo</title><path fill="#860000" stroke="#860000" d="M133.5 12l21.5.5-21.5.5v-1zm-11 1l4.5.5-4.5.5v-1zm37 0l3.5.5-3.5.5v-1zm-42 1l2.5.5-2.5.5v-1zm48 0l2.5.5-2.5.5v-1zm-53 1l2.5.5-2.5.5v-1zm-4 1l2.5.5-2.5.5v-1zm72 2l3.5 1.5-1.5.5-2-2zm-84 2l1.5.5-3.5 1.5v-1l2-1zm89 0l6.5 3.5-1.5-.5-5-2v-1zm-94 2l1.5.5L80.5 29l1-2 10-5zm102 2l3.5 2.5-1.5-.5-2-2zm5 3l1 2-1-2zm-120 2l-1 2-2 1 1-2 2-1zm123 0L216 42.5l7 10-2-1q-6-11-15.5-18.5l-4-4zm-128 3l-1 2 1-2zm-3 2l-2 3Q55.6 45.1 46 56.5L40.5 63l4.5-5.5L57.5 44l13-10zm153 20l3.5 6.5h-1l-2.5-6.5zm-184 10L37 67.5 34.5 71l1.5-2.5 3.5-4.5zm-6 8l-1 2 1-2zm198 1l.5 2.5h-1l.5-2.5zm-200 2l-.5 1.5-1.5 2.5.5-1.5 1.5-2.5zm201 3l.5 2.5h-1l.5-2.5zm-204 2l-.5 1.5L22.5 93l-.5-1.5L28.5 80zm205 4l.5 27.5h-1l.5-27.5zm-214 15l.5 1.5-2.5 6.5-.5-2.5 2.5-5.5zm-3 9l.5 2.5h-1l.5-2.5zm-1 4l.5 2.5h-1l.5-2.5zm217 3l.5 2.5h-1l.5-2.5zm-218 1l.5 3.5h-1l.5-3.5zm217 4l.5 2.5h-1l.5-2.5zm-218 2l.5 4.5h-1l.5-4.5zm217 2l.5 2.5h-1l.5-2.5zm-218 7l.5 21.5h-1l.5-21.5zm215 3l.5 1.5-1.5 2.5-.5-1.5 1.5-2.5zm-2 5l.5 1.5-5.5 9.5.5-1.5 4.5-9.5zm-6 12l-.5 1.5-4.5 6.5 1.5-2.5 3.5-5.5zm-206 6l.5 4.5h-1l.5-4.5zm200 3l-2.5 3.5-8.5 10.5-19 14 1-2 19.5-14 9.5-12zm-199 4l.5 2.5h-1l.5-2.5zm2 8l.5 2.5h-1l.5-2.5zm2 7l1.5 3.5h-1l-.5-3.5zm2 5l5.5 10.5-2-1-4-8 .5-1.5zm307 0l1.5.5-3.5 1.5v-1l2-1zm164 0q2.8-.6 1.5 5.5h-1l-.5-5.5zm-3 1l1.5.5-5 2 3 .5-.5 6-.5-5q-3.8 1.5-3-1.5l4.5-2.5zm-167 1l2.5.5-3 1 3 1-4 .5 1.5-3zm68 0l3.5 1.5-1.5-.5-3 1 1-2zm73 0l3.5 1.5q.8 4.8-2.5 5.5l-3.5-1.5q-.7-4.7 2.5-5.5zm.5 1q-3 1-2 5l4-1q2-5-2-4zm-212.5 0l2.5.5-2.5.5v-1zm78 0l.5 2.5h-1l.5-2.5zm-74 1l3.5 4.5h-1l-2.5-4.5zm-9.5 1q4.7-.9 7 1.5l-1.5.5-4.5-1-.5 3-.5-4zm-67.5 1q3 8.5 9.5 13.5l-6-5-4-6 .5-2.5zm146 0l.5 4.5h-1l.5-4.5zm69 0l-2 3-1.5-.5 3.5-2.5zm-152 1l.5 3.5h-1l.5-3.5zm251 0l.5 3.5h-1l.5-3.5zm-164 1l.5 3.5h-1l.5-3.5zm71.5 0l4 .5-3 .5-.5 4-.5-5zm73 0l3 .5-2 .5-.5 3-.5-4zm-227.5 2l.5 3.5h-1l.5-3.5zm232 0l.5 3.5h-1l.5-3.5zm-73 1l.5 2.5h-1l.5-2.5zm83 0l.5 3.5h-1l.5-3.5zm-460 1l5.5 7.5-3-2-2.5-5.5zm213 0l.5 3.5h-1l.5-3.5zm18 0l.5 2.5-2.5 3.5-4 2v-1l4.5-2 1.5-5zm65 0l.5 3.5h-1l.5-3.5zm168 0l.5 3.5h-1l.5-3.5zm-238 1l.5 1.5-1.5 2.5-.5-1.5 1.5-2.5zm17 0q8-1.5 9.5 3.5l-.5 3.5q.2-4.7-3-6-9.4-1.3-11.5 4.5l-1.5 3.5-.5-1.5 5.5-6.5 2-1zm17 0l6.5.5-6.5.5v-1zm19 0l5.5.5q-9.4-.4-12 6l-1.5 3.5-.5-1.5 3-5.5 5.5-3zm21 0l.5 3.5h-1l.5-3.5zm9 0h3.5v6.5h-1V198h-2.5v-1zm12 0q7.2-2.3 4.5 5.5l-1.5 2.5-.5-1.5 1-5.5q-4.4 1-3.5-1zm14 0l5.5.5-5.5.5v-1zm27 0q4.6-1.3 2.5 4.5h-1q1.5-4.4-1.5-3.5v-1zm36 0l3.5.5-8 2.5-.5 2-.5-1.5 5.5-3.5zm13 0h3.5v6.5h-1V198h-2.5v-1zm12 0q3.8-.7 4.5 1.5l-.5 3.5-.5-4q-4.4 1-3.5-1zm12 0q4.2-1.3 2.5 3.5h-1q1.1-3.3-1.5-2.5v-1zm36 0q4.5-1 5.5 1.5l-.5 1.5-.5-2q-8.2-.4-11 5.5l-2.5 3.5.5-1.5.5-4.5 1 2 7-6zm26 0l2.5.5-4.5 1.5v-1l2-1zm8 0q5.3-1.7 3.5 3.5h-1q1.3-3.7-2.5-2.5l-3.5 2.5-3.5 5.5-.5-1.5q3.5-1.5 1-3l.5-2.5 1 3 3-4 2-1zm12 0l5.5.5-5.5.5v-1zm13 0l3.5.5-4 .5-.5 2-.5-1.5 1.5-1.5zm-272 1l-2.5 3.5v4l8 8v2l-3.5 2.5v-1l2.5-1.5v-2l-8-8v-4l3.5-3.5zm10 0l.5 4.5h-1l.5-4.5zm18 0l1 2-1-2zm21 0l-1 2-1.5.5 2 1-3 .5 1.5-3 2-1zm12 0l1.5 3.5h-1l-.5-3.5zm14 0l-1 2q-2.2-.7-1.5 1.5l-3.5 6.5-.5-2.5 4.5-6.5 2-1zm9 0l1.5 2.5h-1l-.5-2.5z" opacity=".243"/><path fill="#860000" stroke="#860000" d="M447.5 198q2.4 2.1 1.5 7.5h-1l-.5-7.5zm94 0l-1 2-2 1 1-2 2-1zm9 0l1.5 2.5h-1l-.5-2.5zm11 0l2.5.5-2.5.5v-1zm10 0l.5 1.5-13 15 8 1-9.5.5 1.5-2.5 12.5-15.5zm-301 1l3.5 1.5-1.5-.5q-4-.5-4.5 2.5l-1 4 .5 1.5q-3 .9-1.5-3.5l4.5-5.5zm16 0q4.5-1 5.5 1.5l-1.5-.5q-6.3-2.2-4.5 3.5l7 6 1 5h-1q.7-6.2-3.5-7.5l-4.5-3.5q-.7-3.7 1.5-4.5zm20 0l3.5 1.5-1.5-.5q-5-.5-5.5 3.5l-1.5 4.5-.5-2.5 3-5.5 2.5-1zm56 0l3.5 1.5q.8 5.8-3.5 6.5l-1.5-.5 4-3q1.7-4.8-2.5-3.5v-1zm157 0v2l1.5.5-1.5.5-2.5-.5q-.7-2.2 1.5-1.5l1-1zm25 0l3.5 1.5q.8 5.8-3.5 6.5l-1.5-.5 4-3q1.7-4.8-2.5-3.5v-1zm-301 1l.5 2 4 .5-3 .5 2 4.5-2-1q-3-2.5-1.5-6.5zm117 0l-.5 1.5-1.5 3.5-.5-1.5 2.5-3.5zm38 0l.5 2.5h-1l.5-2.5zm4 0l.5 3.5h-1l.5-3.5zm3 0l2.5.5-2.5.5v-1zm70 0l.5 2.5h-1l.5-2.5zm3 0l2.5.5-2.5.5v-1zm7 0l.5 3.5h-1l.5-3.5zm57 0l-.5 1.5-1.5 3.5-.5-1.5 2.5-3.5zm-304 1l.5 3.5h-1l.5-3.5zm83 0l.5 3.5h-1l.5-3.5zm106 0l.5 4.5h-1l.5-4.5zm30 0q3.4-.9 1.5 4.5h-1l-.5-4.5zm38 0l1.5.5-4 3-2.5 3.5 1.5-2.5 3.5-4.5zm3 0l.5 2.5h-1l.5-2.5zm4 0l.5 3.5h-1l.5-3.5zm52 0l1 2q.8-2.7 5-2v1H557q1.1 3.3-3 2l.5-3zm-360 1q4.5-1 5.5 1.5l-.5 1.5-.5-2h-4.5v-1zm116 0l.5 8.5h-1l.5-8.5zm15 0l.5 3.5h-1l.5-3.5zm205 0l1.5.5-4 1.5-4.5 9-.5-1.5 5.5-8.5 2-1zm7 0l-.5 1.5-1.5 4.5-.5-2.5 2.5-3.5zm28 0l-3.5 4.5-9.5 11.5 2.5-3.5 10.5-12.5zm-292 1l.5 1.5-2 1 1.5-2.5zm60 0l.5 4.5h-1l.5-4.5zm36 0l.5 1.5-4 3 3.5-4.5zm16 0l.5 2.5h-1l.5-2.5zm67 0l.5 1.5-5.5 8.5 1.5-2.5 3.5-7.5zm10 0l.5 2.5h-1l.5-2.5zm58 0l.5 3.5h-1l.5-3.5z" opacity=".243"/><path fill="#860000" stroke="#860000" d="M551.5 203l.5 1.5q-2 4-7.5 4.5v-1q4.8-.2 6.5-3.5l.5-1.5zm-302 1l1 2-1-2zm97 0l.5 2.5-6.5 9.5-3 1v-1l4.5-2.5 4.5-9.5zm43 0l.5 2.5h-1l.5-2.5zm8 0l.5 3.5h-1l.5-3.5zm73 0l.5 2.5h-1l.5-2.5zm-438 1l13 14L60 229.5l-1.5-.5q-13.1-7.4-22.5-18.5l-3.5-5.5zm210 0l.5 2.5h-1l.5-2.5zm35 0l-2 3-1.5-.5 3.5-2.5zm197 0l.5 3.5h-1l.5-3.5zm-154 1l.5 3.5h-1l.5-3.5zm17 0l.5 5.5h-1l.5-5.5zm20 0l2.5 1.5-3 .5.5-2zm44 0l.5 3.5h-1l.5-3.5zm21 0l.5 4.5h-1l.5-4.5zm62 0l.5 2.5h-1l.5-2.5zm13 0l.5 2.5h-1l.5-2.5zm42 0l2.5 1.5-3 .5.5-2zm-302 1l.5 2.5h-1l.5-2.5zm14 0l5.5 9.5h-1l-4.5-9.5zm10 0l.5 8.5 2.5 3.5 2.5.5-2.5.5q-5.7-3.3-3-13zm63 0l.5 3.5h-1l.5-3.5zm110 0l.5 1.5-5.5 7.5 1.5-2.5 3.5-6.5zm5 0l.5 4.5h-1l.5-4.5zm8 0l.5 1.5-3.5 4.5 1.5-2.5 1.5-3.5zm10 0l.5 3.5h-1l.5-3.5zm44 0l.5 2.5h-1l.5-2.5zm-302 1l-7 8-4 3 3-4 8-7zm97 0l.5 7.5h-1l.5-7.5zm52 0l-.5 1.5-6.5 8.5 3.5-4.5 3.5-5.5zm14 0l2.5.5-2.5.5v-1zm22 0l.5 2.5h-1l.5-2.5zm77 0l.5 2.5h-1l.5-2.5zm-214 1l3.5 5.5-2-1-1.5-4.5zm19 0l2.5.5-3 .5-.5 3-.5-2.5 1.5-1.5zm48 0l.5 2.5-2.5 3.5.5-1.5 1.5-4.5zm43 0l2.5.5-2.5.5v-1zm31 0l.5 2.5h-1l.5-2.5zm38 0l1.5 7.5-2 .5.5-8zm43 0l.5 3.5h-1l.5-3.5zm20 0l-.5 1.5-.5 1.5-.5-1.5 1.5-1.5zm30 0l.5 2.5h-1l.5-2.5zm20 0l2.5.5-2.5.5v-1zm-298 1l.5 3.5h-1l.5-3.5zm111 0l.5 2.5h-1l.5-2.5zm44 0l.5 2.5h-1l.5-2.5zm138 0l.5 2.5h-1l.5-2.5zm-202 1l.5 8 2 .5-1.5.5-1.5-1.5.5-7.5zm25 0q-.2 4.3 2.5 5.5l-3-2 .5-3.5zm43 0l.5 3.5h-1l.5-3.5zm73 0l.5 3.5h-1l.5-3.5zm10 0l.5 2.5h-1l.5-2.5zm13 0l.5 2.5h-1l.5-2.5zm4 0l.5 3.5h-1l.5-3.5zm-264 1l.5 2.5h-1l.5-2.5zm73 0l.5 1.5-2 1 1.5-2.5zm10 0l.5 2.5h-1l.5-2.5zm115 0l.5 7 2 .5-1.5.5-2.5-6.5 1.5-1.5zm22 0l.5 3.5h-1l.5-3.5zm83 0l2.5 4.5-3-2 .5-2.5zm-260 1l.5 2.5h-1l.5-2.5zm2 0l2.5 4.5-3-2 .5-2.5zm42 0l1 3 2-1v1l-1.5.5 2 1-2.5 1.5v-2q-3.5.8-1-4zm60 0l.5 2.5h-1l.5-2.5zm77 0l1 3 2-1v1l-1.5.5 2 1-2.5 1.5v-2q-3.5.8-1-4zm-194 1l.5 2 2 .5-1.5.5-1-3zm121 0l1 2 2-1q3 1.5 0 3v-2l-3.5 1 .5-3zm34 0l.5 3.5h-1l.5-3.5zm22 0l-1 2-3 1v-1l4-2zm3 0l-3 4 3-4zm22 0l1.5 5.5-2-1 .5-4.5zm50 0l.5 2.5h-1l.5-2.5zm4 0l.5 6-4-.5 3-.5.5-5zm-282 1l.5 2 3 .5-2.5.5-1-3zm34 0l-1 2-2.5-.5 3.5-1.5zm2 0l.5 1.5-2 1 1.5-2.5zm77 0l3 4 1.5.5-1.5.5-3.5-3.5.5-1.5zm12 0l2 1 1.5-.5q.8 2.3-1.5 1.5l-6 3v-1l5.5-2.5-1.5-.5-2 1v-1l2-1zm30 0l.5 4 2 .5-1.5.5q-2.7-1.2-1-5zm37 0l-3 4-3 1v-1l6-4zm63 0l.5 4.5h-1l.5-4.5zm7 0q2.3-.7 1.5 1.5l-5.5 3.5v-1l4.5-2.5-.5-1.5zm33 0l3 4 1.5.5-1.5.5-3.5-3.5.5-1.5zm12 0l2 1 1.5-.5q-2 4-7.5 4.5v-1l5.5-2.5-1.5-.5-2 1v-1l2-1zm-312 1l-1 2-2.5-.5 3.5-1.5zm16 0q1.8 4.3 8.5 3.5l-5.5.5-3-4zm41 0l-2 3 2-3zm14 0l-1 2-3.5-.5 4.5-1.5zm5 0l-1 2-2 1 1-2 2-1zm89 0l1 2-1-2zm3 0q3.3-1.1 2.5 1.5l-5.5 2.5v-1l4.5-1.5-1.5-1.5zm73 0q3.3-1.1 2.5 1.5l-5.5 2.5v-1l4.5-1.5-1.5-1.5zm6 0l.5 3.5h-1l.5-3.5zm-185 1l3.5 2.5-1.5.5-2-3zm21 0l1.5 2.5-2 .5.5-3zm137 0l1.5 2.5-2 .5.5-3zm113 0l.5 1.5q-1.5 3-7.5 1.5v-1q7.3 1.5 7-2zm-229 1l-1 2-2.5-.5 3.5-1.5zm43 0l1 2-1-2zm59 0l-1 2-1.5-.5 2.5-1.5zm113 0l5.5.5-7.5 1.5v-1l2-1zm-368 1l-2 3 2-3zm46 0l11.5.5-11.5.5v-1zm48 0l2.5.5-2.5.5v-1zm24 0l2.5.5-2.5.5v-1zm180 0l2.5.5-2.5.5v-1zm-302 3l-1 2-5 3 1-2 5-3zm-8 5l-1 2-9 4v-1l10-5zm-113 3l10.5 5.5-1.5.5-8-4-1-2zm98 4l1.5.5-3.5 1.5v-1l2-1zm-86 2l3.5 1.5-1.5.5-2-2zm71 3l2.5.5-2.5.5v-1zm-4 1l2.5.5-2.5.5v-1zm-51 1l2.5.5-2.5.5v-1zm46 0l3.5.5-3.5.5v-1zm-41 1l3.5.5-3.5.5v-1zm35 0l3.5.5-3.5.5v-1zm-26 1l20.5.5-20.5.5v-1z" opacity=".243"/><path fill="#8F0200" stroke="#8F0200" d="M127.5 13h31l21 5q21.9 8.1 35.5 24.5 10.9 12.1 16 30l2 9v33q-3.8 20.7-13 36L204 172l-12.5 10-14.5 8q2.4 8.8 9.5 14l3 1q3.3-3 9.5-2l1 4.5q-17.2 18.8-43.5 28.5l-28 7h-30q-40.1-6.9-61.5-32.5-13.1-14.4-20-35l-4-19v-29l4-20q4.3-15.7 12-28Q40.8 59.8 57.5 45q15.4-14.1 36-23l14-5 20-4zm2.5 18l-18 4-10 4-20 13 62 1q11 2 18 9 6 6 8 17 1 18-8 28-10 11-26 15v3l26 43 6 4q9 1 14-4 13-11 20-28l7-27V89l-2-9q-4-16-14-26-10-13-26-19l-16-4h-21zM76 60l-4 1q-27 24-34 67v28l3 14 7 16 7 10q16 22 50 28h26q1-2 7-1 13-2 23-9l2-3v-6l-5-10-42-71-1-5 5-3 10-1 9-4q9-6 11-19 2-16-4-23-4-6-11-8l-15-1-21 109 1 6 12 4 1 1v5l-5-1H68l-1 1h-2v-6l13-4 3-3 1-4 19-101-1-4-4-3H76zm251.5 125q2.3-.7 1.5 1.5l-6 30.5 3.5-1v1l-6 3q-2.2-.7-1.5-4.5l5-21V188l-3-.5 6.5-2.5zm163 0q2.8-.6 1.5 5.5l-3 15 2-1 4.5-5.5 6.5-1 1 2.5-3 11v5l1.5-.5 1.5.5-7 3.5 3-19q-5.6-1-7 3.5l-4 6-1 8.5-3.5 1-.5-5.5 5-21V188l-3-.5 5.5-2.5zm-252 2q13.6-2.1 18.5 4.5l1 4-2 5.5-7 3.5 7 12.5 4 1.5-5.5.5-3.5-3.5-6-12.5 7-2q1.7-2.4 1-8.5l-1-2.5-7-1-5 27.5 4 2-11.5.5v-1l3.5-1.5 5-22V189l-2.5-2zm151 0l3.5 1.5-2.5 3.5q-4.2 1.3-2.5-3.5l1.5-1.5zm73 0q4.2-1.3 2.5 3.5l-4 1.5q-1-3.8 1.5-5zm-59 5l.5 2.5-1 3.5h5v2h-6v5.5l-2 6v5q1.2 2.8 2.5.5l2.5.5-6.5 2.5-2.5-1 3-19q-4.1 1.3-3-2l4-1.5q-1.7-4.8 2.5-3.5l1-1zm72 0q2.8 1.3.5 2.5v3.5h5v2h-6v4.5l-1 1-1 11q1.3 2.8 2.5.5l2.5.5-7.5 2.5q-2.7-1.2-1.5-6.5l3-13.5q-4.1 1.3-3-2 3.7 1.5 3-1.5l1-3.5 2.5-1zm-206 6q7-1.5 8.5 2.5 1 5.5-2.5 6.5-2.9 2.6-9 2l-1.5 1.5 2.5 6.5q6.5 1.5 8-2l.5 1.5q-2.7 3.3-8.5 3.5l-4.5-2.5q-2.5-3.5-1-11l5.5-7.5 2-1zm1.5 1q-5 3-5 9l7-2q2-1 1-5l-3-2zm14.5-1h8.5v4.5l-2-1-1.5-2.5q-4.5-1-5.5 1.5-.7 5.8 3.5 6.5l3.5 2.5 1 6q-2.2 4.8-9.5 4.5l-4.5-1 1.5-6 3 5q5.5 1 6.5-2.5v-2l-8-8v-4l3.5-3.5zm20 0q7-1.5 8.5 2.5l1 8-4.5 8.5q-3 3-9 3l-4.5-3.5v-9l6.5-8.5 2-1zm1.5 1l-3 1-3 6v10l1 1q-1 3 4 1l5-7q1-7-1-10l-3-2zm27.5-1h3.5v7.5l-1 1V217l6-3.5 4-7v-6l-1-2.5h5v4.5q-3.3 9.7-10.5 15.5l-5 2-2.5-1 1-18-3-.5 3.5-2.5zm26 0q6.8-1.7 8.5 1.5l1 3-4.5 5.5-8.5 1q-1.5 6.3 2.5 8 6 1 8-2l-2 3-7 2-4.5-3.5-1-8 4-8.5 3.5-2zm2.5 1l-2 1-4 8 6-1q4-1 3-6l-3-2zm24.5-1h2.5v5.5l-3 13.5 3.5-1-1 2-5 2-1.5-3.5 3-15.5-2.5 1-.5-2 4.5-2zm37 0q4.8-1.7 3.5 2.5l-1 1-1 15.5 6-3.5q5.3-5 4-15.5h4v8.5l-1 1v9.5l5-2.5q5.2-4.3 5-14l-1-2.5h5v4.5q-3.3 9.7-10.5 15.5l-5 2-2.5-1-.5-7-5 6-5 2-2.5-1 1-15.5 1-2.5-3.5 1-.5-2 4.5-2zm36 0q4.6-1.3 2.5 4.5l-3 14.5 3.5-1v1l-6 3-1.5-3.5 3-15.5-2.5 1-.5-2 4.5-2zm63 0l2.5.5-2 7 2-1 3.5-5.5 4.5-1q1 3.8-1.5 5l-2-1-3.5 2.5q-5 5.3-5 14.5l-3.5 1-.5-2.5 3-11V201l-2.5 1 2-3 3-1zm19 0q6.8-1.7 8.5 1.5l1 3-3.5 4.5-9.5 2q-1.5 6.3 2.5 8 6 1 8-2l-2 3-7 2-4.5-3.5-1-8 4.5-8.5 3-2zm2.5 1l-2 1-4 8 6-1q4-1 3-6l-3-2zm11-1l13.5 1 1.5-.5-14 17 10 .5 1.5-3 .5 3.5-1 2.5-13.5-1-2 1 3.5-4.5 10-12-8.5-1.5-2.5 1.5 1-4.5z" opacity=".988"/><path fill="#FEB818" stroke="#FEB818" d="M129.5 31l6.5.5-6.5.5v-1zm11 0l10.5.5-10.5.5v-1zm-17 1l2.5.5-2.5.5v-1zm-5 1l2.5.5-2.5.5v-1zm52 4l6.5 3.5-1.5-.5-5-2v-1zm-69 2l1.5.5-8.5 4.5 1-2 6-3zm77 2l1 2-1-2zm3 2l2 3-2-3zm-89 1l-1 2-6 4 2-3 5-3zm93 2l7 8-7-8zm-102 4l-1 2 1-2zm32 2l24.5.5-24.5.5v-1zm78 3l3 4-3-4zm-40 1l3.5 2.5-1.5-.5-2-2zm5 3l2 3-2-3zm-83 1l20.5.5-20.5.5v-1zm45 0l7.5.5-7.5.5v-1zm77 0l1 2-1-2zm-126 1l-6 7 6-7zm27 0l1 2-1-2zm34 0l2.5.5-2.5.5v-1zm-13 1l.5 2.5h-1l.5-2.5zm20 1l1 2-1-2zm-39 1l.5 2.5h-1l.5-2.5zm63 0l2 3-2-3zm-21 1l3 4-3-4zm58 0l2.5 4.5h-1l-1.5-4.5zm-82 2l.5 2.5h-1l.5-2.5zm48 1l1.5 2.5h-1l-.5-2.5zm-102 1l-3 4 3-4zm35 1l.5 3.5h-1l.5-3.5zm47 0l1.5 2.5h-1l-.5-2.5zm-29 3l.5 2.5h-1l.5-2.5zm-57 1l-2 3 2-3zm109 1l.5 2.5h-1l.5-2.5zm-71 1l.5 2.5h-1l.5-2.5zm51 1l.5 14.5h-1l.5-14.5zm-92 1l-1 2 1-2zm59 0l.5 2.5h-1l.5-2.5zm-61 3l-.5 1.5-1.5 2.5.5-1.5 1.5-2.5zm42 1l.5 2.5h-1l.5-2.5zm18 1l.5 2.5h-1l.5-2.5zm-63 3l-.5 1.5-4.5 9.5-.5-1.5 5.5-9.5zm44 1l.5 2.5h-1l.5-2.5zm73 0l.5 3.5h-1l.5-3.5zm-55 1l.5 2.5h-1l.5-2.5zm94 0l.5 24.5h-1l.5-24.5zm-113 4l.5 2.5h-1l.5-2.5zm18 2l.5 2.5h-1l.5-2.5zm-19 4l.5 2.5h-1l.5-2.5zm18 1l.5 2.5h-1l.5-2.5zm-19 4l.5 2.5h-1l.5-2.5zm71 0l-1.5 2.5-5.5 6.5 4.5-5.5 2.5-3.5zm-53 1l.5 2.5h-1l.5-2.5zm33 0l-6 7-2 1 1-2 7-6zm-102 4l.5 2.5h-1l.5-2.5zm50 0l.5 2.5h-1l.5-2.5zm18 1l.5 2.5h-1l.5-2.5zm45 3l-2 3 2-3zm-64 1l.5 2.5h-1l.5-2.5zm32 2l2.5.5-2.5.5v-1zm28 0l-1 2-4 2 1-2 4-2zm-111 1l.5 2.5h-1l.5-2.5zm74.5 0l4 .5-3.5 1.5-.5-2zm-6.5 4l.5 2.5h-1l.5-2.5zm-69 1l.5 2.5h-1l.5-2.5zm97 1l1.5 3.5-2-1 .5-2.5zm-47 2l.5 2.5h-1l.5-2.5zm27 0l2.5 3.5-2-1-.5-2.5zm-9 1l.5 2.5h-1l.5-2.5zm-69 2l.5 5.5h-1l.5-5.5zm100 0l2.5 3.5-2-1-.5-2.5zm-50 2l.5 2.5h-1l.5-2.5zm31 0l2.5 3.5-2-1-.5-2.5zm-13 1l.5 2.5h-1l.5-2.5zm-19 4l.5 2.5h-1l.5-2.5zm55 0l1 2-1-2zm-37 2l.5 2.5h-1l.5-2.5zm18 0l1 2-1-2zm78 2l.5 1.5-1.5 2.5-.5-1.5 1.5-2.5zm-115 1l.5 2.5h-1l.5-2.5zm59 0l1 2-1-2zm-41 2l.5 2.5h-1l.5-2.5zm23 2l1 2-1-2zm-42 1l.5 2.5h-1l.5-2.5zm63 0l2.5 3.5-2-1-.5-2.5zm-45 2l.5 2.5h-1l.5-2.5zm94 1l-.5 1.5-1.5 2.5.5-1.5 1.5-2.5zm-67 1l2.5 3.5-2-1-.5-2.5zm21 1l2.5 3.5-2-1-.5-2.5zm-113 2l.5 4.5h-1l.5-4.5zm64 1l.5 2.5h-1l.5-2.5zm92 0l-.5 1.5-2.5 3.5 1.5-2.5 1.5-2.5zm-40 2l2.5 3.5-2-1-.5-2.5zm-71 1l.5 2.5h-1l.5-2.5zm51 0l2.5 3.5-2-1-.5-2.5zm-33 2l.5 2.5h-1l.5-2.5zm89 1l-3 4 3-4zm-151 1l.5 2.5h-1l.5-2.5zm118 0l2.5 3.5-2-1-.5-2.5zm-75 1l.5 2.5h-1l.5-2.5zm56 2l2.5 3.5-2-1-.5-2.5zm-38 1l.5 2.5h-1l.5-2.5zm60 1l1 2-1-2zm-79 1l.5 2.5h-1l.5-2.5zm102 0l-2 3 2-3zm-21 2l3 4-3-4zm-63 1l.5 4.5h-1l.5-4.5zm80 0l-1 2-3 1v-1l4-2zm-37 1l1 2-1-2zm-62 1l.5 1.5-4 3 3.5-4.5zm87 1l6.5.5-6.5.5v-1zm-22 3l2.5 3.5-2-1-.5-2.5zm-101 2l1.5 3.5h-1l-.5-3.5zm20 3l.5 5.5h-1l.5-5.5zm49 1l.5 3.5h-1l.5-3.5zm-67 1l3.5 5.5-2-1-1.5-4.5zm103 0l2.5 3.5-2-1-.5-2.5zm-82 3l22.5.5-22.5.5v-1zm29 0l11.5.5-11.5.5v-1zm56 2l2.5 3.5-2-1-.5-2.5zm-102 2l1 2-1-2zm2 3l2 3-2-3zm104 2l2.5 3.5-2-1-.5-2.5zm-101 2l12 13-12-13zm14 13l2 3-2-3zm4 3l1 2-1-2zm88 1l-1 2 1-2zm-83 2l6.5 3.5-1.5.5q-4.6-1.2-5-4zm80 0l-1 2 1-2zm-18 7l2.5.5-2.5.5v-1zm-5 1l2.5.5-2.5.5v-1zm-31 1l6.5.5-6.5.5v-1zm16 0l10.5.5-10.5.5v-1z"/><path fill="#FFB919" stroke="#FFB919" d="M136.5 31q7.1 2.4 18 1l13 4q15.6 6.4 25.5 18.5 10.8 12.2 15 31v31q-5.5 30.5-23.5 48.5l-10 6h-8l-6.5-7.5-22-37-1-4.5q16.5-3.7 26-15.5 5.1-6.4 7-16v-15q-3.1-10.9-11.5-16.5l-7-4-12-3-56.5-.5q11.7-9.8 27.5-15.5l16-4h9l1-1z"/><path fill="#FFB919" stroke="#FFB919" d="M72.5 61h25l2.5 2.5-2 18-3 11v5l-4 16v5l-6 26-4 25-4.5 5.5-12.5 4v5.5l.5.5h25q1.3-2.2 6-1l1 1h16q2.3-.7 1.5-4.5l-2.5-2.5-11.5-4.5 1-13L120 61q18.7-2 26 8.5l3 6v18q-2.4 11.1-10.5 16.5-8.7 6.6-23.5 6l-1 4.5 45 77 4 11-3.5 5.5-7 4-13 4-28 2-1-1h-9l-8-2-18-8L55 194.5q-9.3-11.2-14-27l-3-17v-17l1-1v-8l2-10 5-15q9.5-23 26.5-38.5z"/></svg>