<svg xmlns="http://www.w3.org/2000/svg" role="img" viewBox="-0.18 -0.18 607.36 235.86"><title>rmanPtc SOP logo</title><path fill="#e94740" d="M285.261 14.25l.09 129.4h-25.64l-58.75-88.24v88.25h-23.15V14.25h13a23.26 23.26 0 0 1 19.4 10.42l51.85 78.36V14.25zm73.68 129.28h76.79v-22.9h-66.33v-30h54.46V66.82h-54.46V36.25h66.33v-22h-91.12v115a14.33 14.33 0 0 0 14.33 14.29zM56.011 11.67c-23.73-.25-44.19 12-44.19 12v73.48l23.06-20.49V39.71s7.73-4.46 19.65-4.46c24.65 0 44.7 19.57 44.7 43.64a43 43 0 0 1-42.795 43.204q-.832.004-1.665-.024a44 44 0 0 1-16.92-4.13l-19.11 17a67.29 67.29 0 1 0 37.27-123.27zm495.62 134.75c23.72.24 44.19-12 44.19-12V69.13l-23.07 20.49v28.76s-7.73 4.43-19.65 4.43c-24.65 0-44.7-19.58-44.7-43.64a43 43 0 0 1 42.785-43.214q.837-.004 1.675.024a44.14 44.14 0 0 1 16.92 4.13l19.12-17a67.29 67.29 0 1 0-37.27 123.33z"/><path d="M147.844 193.3q.148.014.66.04v7.87q-.727-.08-1.293-.108-.566-.027-.917-.027-4.634 0-6.224 3.019a11.733 11.733 0 0 0-.89 5.227v14.04h-7.734v-29.374h7.33v5.12a16.245 16.245 0 0 1 3.099-4.014 8.435 8.435 0 0 1 5.605-1.806c.144 0 .265.005.364.014zm41.811.796a8.543 8.543 0 0 1 3.422 2.64 8.448 8.448 0 0 1 1.671 3.773 26.13 26.13 0 0 1 .27 4.339l-.055 18.513h-7.868V204.66a6.14 6.14 0 0 0-.54-2.749 3.83 3.83 0 0 0-3.772-2.048 4.416 4.416 0 0 0-4.393 2.641 8.3 8.3 0 0 0-.62 3.37v17.488h-7.734v-17.489a9.836 9.836 0 0 0-.538-3.8 3.763 3.763 0 0 0-3.8-2.129q-3.289 0-4.42 2.13a8.197 8.197 0 0 0-.62 3.61v17.678h-7.788v-29.319h7.465v4.284a12.36 12.36 0 0 1 2.695-3.26 10.662 10.662 0 0 1 11.237-.243 8.622 8.622 0 0 1 2.533 3.53 9.763 9.763 0 0 1 3.746-3.8 11.427 11.427 0 0 1 5.282-1.212 10.228 10.228 0 0 1 3.827.755zm24.057 11.398a12.118 12.118 0 0 0 3.067-.673 2.313 2.313 0 0 0 1.657-2.183 2.58 2.58 0 0 0-1.271-2.492 8.029 8.029 0 0 0-3.728-.688q-2.76 0-3.907 1.348a5.558 5.558 0 0 0-1.093 2.694h-7.41a11.234 11.234 0 0 1 2.165-6.332q3.058-3.882 10.501-3.88a18.727 18.727 0 0 1 8.607 1.912q3.761 1.915 3.762 7.223v13.474q0 1.401.054 3.395a4.256 4.256 0 0 0 .458 2.048 2.745 2.745 0 0 0 1.132.89v1.131h-8.354a8.52 8.52 0 0 1-.485-1.67q-.136-.781-.216-1.779a15.862 15.862 0 0 1-3.687 2.938 11.138 11.138 0 0 1-5.637 1.427 9.726 9.726 0 0 1-6.628-2.277 8.096 8.096 0 0 1-2.616-6.454q0-5.416 4.208-7.842a18.793 18.793 0 0 1 6.788-1.886zm4.696 3.585a8.487 8.487 0 0 1-1.489.74 12.536 12.536 0 0 1-2.062.527l-1.749.323a11.492 11.492 0 0 0-3.53 1.05 3.508 3.508 0 0 0-1.814 3.262 3.406 3.406 0 0 0 1.108 2.842 4.212 4.212 0 0 0 2.695.876 8.03 8.03 0 0 0 4.639-1.455q2.12-1.456 2.202-5.308zm38.05-13.407q2.884 2.385 2.885 7.909v19.78h-7.87v-17.867a8.203 8.203 0 0 0-.615-3.557q-1.124-2.263-4.28-2.263a5.305 5.305 0 0 0-5.323 3.314 11.46 11.46 0 0 0-.75 4.474v15.9h-7.68v-29.32h7.438v4.284a13.025 13.025 0 0 1 2.791-3.26 9.67 9.67 0 0 1 5.984-1.779 11.26 11.26 0 0 1 7.42 2.385zm37.313 10.496q-3.488 2.91-9.962 2.911h-8.27v14.282h-8.247V183.64h17.056q5.898 0 9.404 3.072 3.507 3.072 3.507 9.513 0 7.032-3.488 9.943zm-6.335-14.31a6.688 6.688 0 0 0-4.417-1.32h-7.48v11.695h7.48a6.345 6.345 0 0 0 4.417-1.427 5.83 5.83 0 0 0 1.577-4.528q0-3.098-1.577-4.42zm12.841 7.87v-5.471h4.096v-8.193h7.6v8.193h4.77v5.47h-4.77v15.523a3.492 3.492 0 0 0 .458 2.25q.458.445 2.802.444.35 0 .742-.012.39-.014.767-.041v5.74l-3.638.135q-5.443.187-7.437-1.887a5.616 5.616 0 0 1-1.294-4.07v-18.081zm38.967 4.796a6.791 6.791 0 0 0-1.107-2.963 4.646 4.646 0 0 0-4.025-1.78 5.3 5.3 0 0 0-5.322 3.854 16.01 16.01 0 0 0-.756 5.43 14.717 14.717 0 0 0 .756 5.188 5.137 5.137 0 0 0 5.187 3.665 4.578 4.578 0 0 0 3.835-1.455 7.23 7.23 0 0 0 1.378-3.774h7.842a12.847 12.847 0 0 1-2.535 6.63q-3.615 5.04-10.709 5.04-7.096 0-10.44-4.205-3.345-4.204-3.344-10.901 0-7.557 3.694-11.762 3.696-4.204 10.197-4.204a15.36 15.36 0 0 1 9.05 2.48q3.52 2.478 4.168 8.757zm35.06 6.576a8.056 8.056 0 0 0 1.513 4.069q2.063 2.452 7.072 2.452a15.23 15.23 0 0 0 4.87-.646q3.55-1.24 3.549-4.609a3.395 3.395 0 0 0-1.739-3.045 18.852 18.852 0 0 0-5.514-1.86l-4.301-.942q-6.34-1.4-8.711-3.045-4.015-2.75-4.016-8.597a11.416 11.416 0 0 1 3.93-8.866q3.928-3.53 11.538-3.53a17.692 17.692 0 0 1 10.844 3.328q4.488 3.33 4.706 9.66h-7.977a5.686 5.686 0 0 0-3.205-5.092 10.969 10.969 0 0 0-4.944-.997 9.414 9.414 0 0 0-5.25 1.293 4.093 4.093 0 0 0-1.961 3.611 3.406 3.406 0 0 0 1.934 3.18 23.97 23.97 0 0 0 5.277 1.643l6.97 1.645a17.736 17.736 0 0 1 6.87 2.883q3.553 2.804 3.553 8.112a11.397 11.397 0 0 1-4.208 9.041q-4.209 3.598-11.89 3.598-7.844 0-12.339-3.544a11.725 11.725 0 0 1-4.494-9.742zm61.415 8.731q-4.5 4.635-13.016 4.635t-13.016-4.635q-6.037-5.685-6.037-16.385 0-10.913 6.037-16.384 4.501-4.635 13.016-4.635t13.016 4.635q6.009 5.47 6.01 16.384 0 10.7-6.01 16.385zm-5.188-6.036q2.898-3.639 2.898-10.349 0-6.682-2.898-10.334a9.468 9.468 0 0 0-7.828-3.652 9.593 9.593 0 0 0-7.869 3.639q-2.937 3.637-2.938 10.347 0 6.71 2.938 10.349a9.595 9.595 0 0 0 7.87 3.638 9.483 9.483 0 0 0 7.827-3.638zm44.198-7.627q-3.488 2.91-9.962 2.911h-8.27v14.282h-8.247V183.64h17.056q5.897 0 9.404 3.072 3.507 3.072 3.507 9.513 0 7.032-3.488 9.943zm-6.335-14.31a6.687 6.687 0 0 0-4.418-1.32h-7.48v11.695h7.48a6.345 6.345 0 0 0 4.418-1.427 5.83 5.83 0 0 0 1.577-4.528q0-3.098-1.577-4.42z"/></svg>