<svg xmlns="http://www.w3.org/2000/svg" role="img" viewBox="26.75 86.25 923.00 364.50"><title>RodeoFX logo</title><g fill="#272526"><path d="M305.52 104.79c13.92-1.54 28.92-.84 41.28 6.43 9.79 5.72 16.15 16.03 18.72 26.9 1.89 7.45 2.29 15.17 2.36 22.83 0 16.69-.01 33.38 0 50.07.15 14.73-.99 30.64-10.06 42.9-7.55 10.41-20.32 15.68-32.84 16.71-14.11 1.32-29.46-.03-41.38-8.37-10.06-7.01-15.5-18.9-17.33-30.73-1.44-7.77-.98-15.69-1.04-23.54.01-18.02-.04-36.04.02-54.06.45-12.41 3.43-25.42 11.74-35.04 7.1-8.37 17.85-12.69 28.53-14.1m2.93 27.86c-8.26 1.86-11.88 10.75-12 18.43-.25 22.65-.02 45.3-.11 67.95-.02 6.29.33 13.15 4.27 18.37 3.31 4.38 9.1 5.93 14.36 6 5.57.23 11.73-.48 15.98-4.45 4.45-4.38 5.56-10.97 5.64-16.95-.02-23.37.03-46.74-.02-70.1-.24-6.69-2.17-14.48-8.57-17.84-5.99-3-13.16-2.86-19.55-1.41zm562.08-27.92c14.12-1.47 29.42-.69 41.78 7.06 10.2 6.28 16.22 17.64 18.42 29.15 2.21 9.88 1.54 20.03 1.63 30.07-.02 16.64.04 33.29-.03 49.93-.55 12.54-3.44 25.74-11.89 35.44-7.83 9.05-19.82 13.38-31.5 14.31-13.06 1.15-27-.06-38.46-6.93-8.75-5.16-14.79-14.08-17.63-23.72-2.67-8.4-3.2-17.28-3.19-26.04.02-18.67-.04-37.34.03-56.02.12-13.11 2.38-27.01 10.65-37.61 7.14-9.4 18.74-14.24 30.19-15.64m2.92 27.81c-3.54.88-6.83 2.93-8.84 6.01-3.24 4.8-3.63 10.81-3.74 16.43.02 22.02 0 44.05.01 66.08.17 5.92.81 12.43 4.93 17.05 3.75 4.28 9.8 5.41 15.24 5.33 5.66.1 12-1.18 15.71-5.85 3.48-4.36 4.28-10.17 4.39-15.59-.03-23.33.03-46.67-.03-70-.18-6.63-2.06-14.34-8.31-17.8-5.9-3.08-13-3.01-19.36-1.66zM75.37 106.26c15.58.09 31.16-.12 46.74.12 13.62.14 28.1 2.79 38.82 11.77 9.16 7.5 13.63 19.32 14.48 30.88.83 11.5-.35 23.77-6.66 33.71-4.05 6.46-10.56 10.94-17.57 13.69 10.25 24.07 20.33 48.22 30.57 72.29-11.17.07-22.34.06-33.5.01-8.99-22-17.97-44-26.95-66-4.86-.01-9.71-.01-14.57 0 0 22.01-.01 44.01.01 66.02-10.46.02-20.92-.01-31.37.02V106.26m31.35 25.89c.01 14.9.01 29.8.01 44.7 9.19-.58 19.02 1.66 27.68-2.37 6.63-3.07 9.81-10.56 9.96-17.53.58-7.91-1.26-17.37-8.66-21.68-8.8-5.06-19.36-2.48-28.99-3.12zm353.52-25.88c16.21.12 32.44-.25 48.65.23 13.47.46 27.9 4.07 37.4 14.25 10.12 10.73 13.19 26.01 13.81 40.28.06 17.3.01 34.6.03 51.9-.45 14.63-3.46 30.33-13.75 41.4-9.76 10.41-24.53 13.95-38.33 14.38-15.93.11-31.88.03-47.82.04.01-54.16.01-108.32.01-162.48m31.06 27.67c.04 35.76-.1 71.53.07 107.3 9.01-.3 18.92 1.18 26.9-4.01 7.71-4.94 10.01-14.67 10.53-23.24.18-15.66.02-31.32.08-46.99.11-9.83-.67-21.45-8.87-28.16-8.17-6.32-19.08-4.65-28.71-4.9zm161.27-27.61c28.39-.13 56.78-.01 85.16-.06.02 9.23.01 18.45.01 27.68-18.01-.01-36.01-.02-54.02 0 .01 12.4-.02 24.81.02 37.21 13.68-.01 27.37 0 41.06-.01v27.51c-13.69 0-27.39-.01-41.08 0 .01 14.18-.01 28.36.01 42.53 18.71.01 37.41-.01 56.12.01-.01 9.18 0 18.37 0 27.55-29.07.03-58.14-.01-87.21.02-.07-54.14.08-108.29-.07-162.44zM50.07 328.07c5.6-5.14 13.55-7.09 21.01-6.44 7.16.67 13.91 3.34 20.66 5.66 2.26-1.68 4.84-3.07 7.75-2.8 1.3 4.76-4.44 4.93-7.67 4.63-4.8 4.75-4.14 11.98-3.25 18.09.77 6.56 2.55 13.15 1.65 19.79-1.6 8.24-6.24 15.4-10.26 22.63 10.49-10.96 19.18-23.46 27.53-36.08 5.44-8.11 9.83-17.23 17.53-23.54 7.46-6.13 17.58-8.27 27.03-7.16 8.63 1.08 16.87 6.85 19.71 15.25 2.48 8.11 1.11 17.19-3.23 24.44.93.22 2.78.65 3.71.87 1.38-1.11 2.71-2.29 4.09-3.39-4.27 8.14-8.55 16.28-12.91 24.38-1.14 2.36-2.5 5.03-1.72 7.71.88 1.78 3.16 1.45 4.36.21 8.49-7.75 13.19-18.46 18.97-28.18 1.14-2.66 4.37-1.12 6.5-.84 1.36-1.08 2.65-2.25 4.05-3.27-4.56 9.2-9.62 18.14-14.33 27.25-.66 1.53-1.79 3.54-.73 5.1 2.23 1.28 4.95.25 6.95-1.02 4.8-3.01 8.61-7.28 12.48-11.36 3.38-3.41 5.12-8.06 8.66-11.34 4.51-4.61 10.92-7.49 17.44-7.03 1.77-.06 3.17 1.15 4.61 1.99 2.15-1.43 4.71-.61 7.1-.68 1.23-.86 2.3-1.91 3.44-2.87-4.78 9.83-10.3 19.29-15.19 29.06-1.11 1.8-1.3 5.53 1.82 4.8 5.12-1.56 8.81-5.91 12.68-9.41 4.59-5 10.49-9.17 13.09-15.66 4.41-9.26 10.22-17.77 16.33-25.98 4.71-6.18 9.57-12.38 15.6-17.34 2.13-1.56 4.67-3.37 7.47-2.72 2.14 1.21 2.64 3.89 2.03 6.12-1.46 6.69-5.39 12.5-9.29 18.01 12.84-8.82 29.11-10.31 44.23-8.93 3.41.34 6.81.79 10.24.91 1.17-6.21 4.81-12.38 10.9-14.79 5.9-2.31 13.26-2.77 18.61 1.14 4.07 2.69 6.54 7.95 5.23 12.76-1.49 4.76-6.2 7.86-10.93 8.76-4.9 1.07-9.78-.61-14.39-2.12.39 2.42.5 4.95 1.41 7.27.85 2.58 5.49 2.67 4.8 5.83-3.1 1.74-5.11-2.36-7.89-2.95-6.2-1.4-12.44 2.16-15.83 7.24-6.93 9.15-4.67 23.55 4.32 30.51 3.86 2.92 9.02 3.4 13.63 2.39 11.32-2.13 20.86-13.16 19.58-24.93-.23-4.65-3.67-9.43-8.58-9.67-7.39-.27-14 5.16-17.16 11.51-1.91 3.99-1.8 9.48 1.9 12.41 3.45 2.98 9.14 1.65 11.76-1.82 3.12-4.06 3.81-9.33 4-14.29h1.32c.12 5.41-.5 11.31-4.12 15.62-3.45 4.3-10.84 5.44-14.77 1.2-3.76-3.76-3.65-9.88-1.42-14.4 3.56-7.07 11.34-12.75 19.53-11.78 5.71.78 9.4 6.67 9.25 12.16.88 13.8-11.68 26.57-25.38 26.55-6.98.18-14.32-1.24-19.95-5.59-11.93-8.88-11.31-29.74 1.15-37.89 4.89-3.49 11.06-4.21 16.91-3.98-1.62-2.88-2.89-5.95-3.87-9.1-15.29-2.58-31.65-3.17-46.14 3.19-6.44 2.73-12.97 7.52-14.33 14.82-1.1 3.47.56 6.84 1.21 10.2-1.15-.31-2.21-.88-2.32-2.18-1.45-4.13-.73-8.61.82-12.59-4.06 4.39-8.84 8.04-13.9 11.21-2.24 1.12-2.8 3.73-3.85 5.79-2.8 6.54-6.87 13.17-6.18 20.55.91 2.67 4.51 1.05 6.24.04 8.1-5.64 13.12-14.46 18.18-22.7.87 1.97-.83 3.6-1.64 5.24-4.62 7.53-9.49 15.76-17.77 19.71-3.22 1.35-7.86 2.76-10.39-.57-3.45-4.97-1.72-11.44-.07-16.76-5.11 5.62-10.19 11.39-16.36 15.88-2.67 1.83-5.99 3.79-9.32 2.56-2.75-.81-4.38-3.34-5.91-5.57-2.1 2.35-4.41 4.79-7.58 5.58-2.81.91-6.35.26-8.06-2.31-2.28-3.62-1.89-8.16-1.51-12.23-5.88 6.67-12.87 14.25-22.31 14.92-4.48-.02-5.92-5.13-6.38-8.71-3.15 3.28-5.9 7.77-10.78 8.5-2.58.54-6.05.26-7.34-2.42-1.33-3.53.21-7.36 1.25-10.74-3.71 4.55-9.24 6.56-14.72 7.93-4.24 3.89-10.04 7.17-15.97 5.23-3.09-.55-4.6-3.47-5.14-6.28-2.76 2.29-5.54 4.75-8.94 6.05-3.29 1.3-8.23-.24-8.68-4.18-.82-5.99 2.3-11.53 5.1-16.57 2.14-3.59 3.83-7.45 6.25-10.87 1.37-2.23 4.15-.37 6.17-.47 1.4-.98 2.65-2.15 3.97-3.22-4.34 8.86-9.17 17.46-13.65 26.24-.93 1.94-1.68 4.28-.71 6.35 2.27 2.12 4.9-.97 6.82-2.23 2.75-1.69 4.02-4.71 6.01-7.04 5.16-2.5 8.31-7.45 12.27-11.38-4.91-3.96-7.73-10.09-7.39-16.41-1.49-.24-3.32.14-4.43-1.14-2.52-2.25-1.33-6.77 1.51-8.23 1.64-1.16 3.67-.48 5.49-.33 2.96-4.14 7.24-7.52 12.32-8.53-1.58 1.76-3.93 2.41-5.86 3.68-2.39 1.41-4.11 3.65-5.66 5.91.66 2.73.08 5.57-1.94 7.59-.78 6.04 1.86 11.9 6.25 15.96-.02-4.32-.12-9.21 2.88-12.68 1.4-1.7 3.76-1.17 5.65-1.03-.06 2.04-.2 4.09-.44 6.13-1.4-1.57-.46-4.17-2.07-5.48-2.24 2.16-2.73 5.7-1.15 8.4l.18-2.44c.49.53.99 1.07 1.48 1.62-2.31 2.89 1.05 6.14 1.46 9.2 5.25.65 10.81-.02 15.26-3.07 8.78-5.88 14.8-16.46 13.72-27.19-.33-6.03-4.04-11.54-9.2-14.55-7.7-4.46-17.42-4.78-25.69-1.76-9.98 3.75-18.65 11.1-23.81 20.45-10.5 17.72-23.41 33.87-37.55 48.81-.57-.08-1.71-.23-2.28-.3 2.22-5.75 5.89-11.16 5.94-17.52.23-8.36.18-16.73.74-25.06 1.28-9.19 3.19-19.21 10.41-25.73-9.23-3.39-19.34-7.72-29.25-4.5-8.41 2.43-14.11 11.64-12.18 20.25.83 4.23 4.24 7.12 6.84 10.32-3.1-.93-6.08-2.55-7.95-5.26-4.85-6.19-3.39-15.77 2.23-20.98m237.81-2.34c-3.08 2.72-5.15 6.34-7.38 9.74-5.43 8.75-10.48 17.78-14.29 27.36 9.15-5.68 15.14-15 20.25-24.23 1.84-3.65 3.9-7.45 3.93-11.63.27-1.75-1.4-2.3-2.51-1.24m-193.91 1.58c.56 1.5 4.45.5 3.78-1.28-1.27-.8-3 .21-3.78 1.28m267.46-.66c-6.2 1.39-11.17 7.09-12.09 13.3-.59 3.32 3.49 3.98 5.79 4.93 6.59 2.16 16.19.5 18.45-7 1.99-6.95-5.58-13.23-12.15-11.23m-148.16 48.72c-3.18 5.56-7.14 11.9-5.29 18.56 4.45.67 7.6-2.98 9.6-6.42 3.7-6.33 7.54-12.6 10.7-19.22.85-1.56 1.13-4.26-1.13-4.68-6.63.55-10.63 6.66-13.88 11.76m-51.05-5.26c-5.27 4.38-12.2 6.51-19.03 5.51.46 4.3.04 8.65-1.33 12.77 9.52-1.92 16.55-9.72 20.36-18.28m-35.25 12.14c2.09 1.56 4.13 3.19 6.18 4.8 3.48-4 4.64-9.56 2.85-14.57-3 3.26-5.91 6.61-9.03 9.77m-.9 6.51c1.89 1.16 4.04.06 5.98-.35-1.97-1.42-3.67-3.45-6.04-4.17-2.57.06-2.07 4.02.06 4.52zm509.46-52.48c10.62-5.49 22.42-9.82 34.56-9.01 3.47.14 7.89 1.83 8.11 5.86.22 5.03-4.72 8.1-9.03 9.16-9.63 2.49-19.62.13-29.28-.95-10.22 9.03-20.28 19.05-25.29 32.03-2.14 5.27-4.09 11.85-.5 16.95-.28-10.33 4.78-20.07 11.86-27.3 4.84-5.06 11.91-8.27 18.98-7.37 4.04.42 6.56 4.51 6.75 8.29.6 7.95-3.2 15.51-8.33 21.35-5.73 7.08-14.2 12.06-23.47 12.1 3.05 2.35 7.01 3.17 10.72 2.03 7.79-2.35 13.23-8.83 18.37-14.76-.01.73.85 1.62.04 2.23-4.45 5.92-9.96 11.59-17.16 13.95-4.69 1.59-10.39.88-13.77-2.99-2.83-3.22-7.23-4.83-9.27-8.76-4.43-7.78-3.72-17.64-.14-25.61 4.68-10.06 12.93-17.96 21.82-24.37-14.02-1.51-29.37-3.14-42.07 4.38-12.65 7.46-23.26 20.39-24.47 35.43-.5-.76-.98-1.52-1.45-2.29.2-1.28.37-2.55.49-3.83-3.8 5.97-8.17 12.2-14.79 15.25-3 1.49-6.81 1.29-9.17 3.91-3.77 3.69-9.58 4.87-14.57 3.37-1.93-.59-3.04-2.32-4.04-3.93-3.64 2.62-8.01 4.5-12.57 4.33-3.16-.46-5.29-3.74-5.21-6.79-.1-4.09 2.25-7.68 3.87-11.26-8.01 8.76-18.29 16.51-30.42 17.87-4.24.47-9.47.34-12.41-3.24-2.61-3.48-1.84-8.02-1.31-12-6.22 6.27-12.96 13-21.81 15.17-5.54 1.6-11.78-2.69-11.93-8.51-.85-11.19 8.34-20.25 18.02-24.16 3.66-1.23 8.63-2.4 11.55.95 2.96 3.68.77 9.13-2.64 11.73-5.25 4.08-11.8 6.49-18.41 7.14-1.23 3.1-2.62 6.61-1.41 9.95 1.33 2.24 4.39 1.17 6.42.67 7.52-2.77 13.5-8.4 19.15-13.89 2.54-2.35 3.39-5.87 5.62-8.46 4.97-5.99 12.76-9.91 20.63-9.22 3.06.29 5.74 3.25 5.22 6.39-.43 4.38-6.15 7.45-9.85 4.79-1.29-1.68-.21-3.84.06-5.66 2.14 1.61 5.46 1.75 6.54-1.12 1.59-2.25-1.93-3.6-3.66-3.25-5.01 1.35-7.9 6.19-10.7 10.18-3.28 5.53-7.27 11.36-7.08 18.06.03 2.5 2.85 3.36 4.92 3.26 8.52-.11 16.43-4.13 23.11-9.16 7.22-5.6 14.01-12.35 16.96-21.23-2.6 0-5.19 0-7.78-.09.59-.55 1.2-1.09 1.81-1.63 2.89-.05 5.8.17 8.69-.14 5.85-3.32 10.23-8.7 13.88-14.25 1.35-1.93 2.41-4.26 4.68-5.27-3.3 6.74-7.34 13.09-10.97 19.65 2.53.43 6.13-.94 8.04.75-2.27 1.92-6.09.56-8.96 1.2-4.02 7.63-8.7 14.91-12.67 22.56-1.26 2.15-.73 4.92 1.18 6.5 3.48.52 6.36-2.03 9.05-3.85-.31-4.03 2.57-8.14 6.98-7.24 2.87-3.63 5.69-7.3 8.46-11-.69-4.49-.8-9.69 2.34-13.34 1.41-1.67 4.96-2.1 5.82.32-.14 3.21-1.94 6.01-3.33 8.81 3.22 6.62 4.39 14.46 1.58 21.45 4.44-1.18 8.89-2.93 12.1-6.35 4.11-3.73 6.47-8.9 10.34-12.82 4.8-13.48 15.8-24.55 29.09-29.75 11.71-4.57 24.56-2.92 36.7-1.45 2.01.48 3.68-.96 5.41-1.72m26.67-7.04c-7.23 2.13-13.64 6.34-19.6 10.84 7.71 1.08 15.5 2.37 23.32 1.62 3.43-.46 7.31-1.25 9.55-4.17 1.63-2.14 1.96-6.01-.74-7.48-3.8-2.01-8.46-1.8-12.53-.81m-122.93 36.4c1.53-2.41 4.24-5.91 1.69-8.55-2.09 2.39-2.03 5.57-1.69 8.55m95.55-6.76c-5.95 2.67-10.15 8.02-13.58 13.39-3.88 6.24-6.57 14.09-3.84 21.31 7.16 3.39 14.67-1.69 19.31-6.96 4.65-5.25 9.01-11.15 10.71-18.07.57-3.14.97-7.07-1.62-9.44-3.17-2.41-7.57-1.67-10.98-.23m-187.79 7.16c-3.67 4.13-6.26 9.08-8.68 14 5.49-1.29 9.83-5.2 13.34-9.42 1.56-1.91 3.02-4.62 1.75-7.07-2.48-1.21-4.83.76-6.41 2.49m81.2 17.04c1.65 1.33 3.3 2.67 4.97 4 3.48-3.89 4.55-9.35 3.02-14.31-2.71 3.4-5.24 6.94-7.99 10.31m-3.76 4.74c2.29 1.69 5.07 1.72 7.65.64-1.64-1.32-3.26-2.64-4.91-3.92-.93 1.08-1.84 2.17-2.74 3.28z"/><path d="M417.16 329.14c3.01-1.29 6.73 1.69 6.02 4.92-.77 6.34-4.6 11.74-8.44 16.64-4.31 5.48-9.9 9.69-15.56 13.66-.65-.39-1.3-.78-1.93-1.17a66.474 66.474 0 0 0 17.52-18.48c2.2-3.79 4.71-8.04 3.88-12.6-.67-2.44-3.56-.48-4.45.89-7.77 9.79-13.6 20.96-19.32 32.03l1.2-.78c.4.51.81 1.02 1.22 1.54 1.79-.15 3.58-.21 5.37-.18-1.77 3.43-6.01 1.54-9.03 1.98-7.59 14.15-14.08 28.91-22.55 42.58 2.04.97 4.31 2.26 4.75 4.7 1.12 3.76-3.33 7.22-6.84 6.19-1.04-.67-2.04-1.4-3.01-2.17 1.14-.56 2.25-1.15 3.35-1.78.55-1.04-.24-2.23-.29-3.3-2.43 3.17-4.64 6.51-7.37 9.44.89 3.86 4.38 6.85 8.35 7.04 3.29.33 6.42-1.29 8.74-3.5 4.41-4.13 7.2-9.6 9.92-14.92 7.38-14.7 13.93-29.81 21.77-44.28-2.13.01-4.25.01-6.36.02.35-.69.71-1.36 1.08-2.03 2.22-.06 4.44-.02 6.67-.12 5.33-9.28 11.29-18.27 18.25-26.41 3.67-3.91 7.47-8.28 12.76-9.93 2.34-.95 4.94.66 5.84 2.86.41 3.54-.96 6.98-2.56 10.07-5.38 10.03-13.97 18.14-23.95 23.53 2-.02 4 0 6 .07-1.71 3.38-6 1.48-8.99 1.96-9.02 17.04-16.69 34.9-27.84 50.7-4.83 6.66-11.64 13.43-20.43 13.44-4.63.24-8.8-2.77-10.55-6.96-3.99 3.58-8.78 6.82-14.34 6.95-4.08.34-8.37-1.65-10.33-5.32-3.43-6.53 1.71-16.07 9.32-15.98 4.08-.04 7.23 5.6 4.13 8.7-2.3 2.87-7.09 2.82-8.57-.82.84-.22 2.53-.68 3.37-.9-.39-1.04.2-2.77-1.01-3.26-3.94-.88-5.57 3.97-6.44 6.91-1.73 6.68 6.99 11.2 12.46 8.52 6-2.8 9.41-8.91 12.45-14.49 8.09-15.71 15.02-32 23.47-47.53-2.2 0-4.39.11-6.57.15.41-.74.84-1.47 1.29-2.18 2.17.01 4.34 0 6.52 0 5.63-9.59 11.77-18.96 19.12-27.33 3.38-3.65 7.05-7.5 11.91-9.07m18.89 8.84c-5.75 8.73-11.11 17.76-15.53 27.24 9.21-6.94 17.94-15.25 22.7-25.94.91-2.68 2.37-6.48-.18-8.66-3.24 1.38-4.96 4.69-6.99 7.36zm276.94 25.15c1.31-1.05 2.61-2.1 3.95-3.12-1.63 3.32-3.43 6.55-5.09 9.85 4.49-4.01 9.67-8.98 16.2-8.12 3.06.92 3.12 4.52 3.6 7.12 3.49-3.22 7.08-7.56 12.33-7.26 3.43-.34 6.7 4.04 4.71 7.09-3.92 6.96-8.53 13.52-12.48 20.47-1.12 1.47-1.35 4.21.86 4.76 3.06-.76 5.23-3.29 7.44-5.37 2.96-3.22 6.16-6.27 8.57-9.95.48.43.96.87 1.46 1.32-4.39 4.14-8.01 9.03-12.53 13.03-2.44 2.01-5.88 3.57-9.03 2.39-3.06-1.17-5.39-4.99-3.75-8.12 3.46-7.51 9.43-13.63 12.57-21.31-.47-.39-1.4-1.18-1.87-1.57-3.75 1.52-6.21 4.92-8.93 7.75-6.18 6.32-8.55 15.2-13.76 22.18-1.93.82-4.06-.19-6.06-.11-1.34.84-2.48 1.94-3.69 2.92 4.71-8.54 9.24-17.18 13.78-25.81.95-1.96 2.14-3.87 2.49-6.06-.88-1.85-2.95.06-4.04.65-5.78 4.52-11.22 9.77-14.57 16.38-2.51 4.11-4.05 8.93-7.48 12.4-1.86-.05-3.67-.49-5.52-.45-1.32.89-2.47 1.99-3.67 3.03 4.05-7.25 7.7-14.71 11.75-21.96-4.07 2.86-8.31 5.49-13.04 7.07-5.11 6.76-12.33 12.87-21.15 13.41-4.11.38-7.53-3.09-8.48-6.84-1.45-6.44 1.07-13.2 5.41-17.97 4.72-5.47 11.57-9.65 19-9.32 4.51-.07 7.98 4.15 8.4 8.38.58 3.64-.83 7.11-2.22 10.38 4.64-1.68 8.78-4.45 12.51-7.64 3.1-2.55 3.82-6.83 6.49-9.73 1.76-.99 3.93.05 5.84.13m-39.41 5.34c-4.18 5.98-8.15 12.4-9.83 19.58-.34 2.03-.89 4.92 1.29 6.15 6.76-.9 10.07-7.88 13.69-12.83l-1.83-.46c.99-.52 2.01-.99 3.05-1.42 1.91-5 4.59-10.28 3.49-15.78-4.03-2.22-7.59 1.9-9.86 4.76z"/><path d="M831.15 363.19c1.23-1.06 2.47-2.13 3.73-3.16-4.78 9.41-9.93 18.63-14.81 28-.71 1.79-2.2 3.89-.71 5.69 3.14.96 5.76-1.53 8.1-3.24 6.18-5.14 11.76-10.97 17.15-16.92 2.74-2.82 3.81-6.74 6.14-9.84 1.44-2.17 4.22-.54 6.27-.43 1.31-1.1 2.64-2.17 3.98-3.24-1.66 3.4-3.45 6.73-5.26 10.06 4.12-3.15 8.16-6.76 13.26-8.18 2.44-.68 5.9-.59 7.14 2.07.98 2.67.2 5.63-1.27 7.97-4.19 6.82-8.88 13.34-12.79 20.33 2.55 2.99 6.16.2 8.3-1.82 5.33-5.33 10.18-11.13 15.33-16.63 3.19-3.22 3.94-8.12 7.31-11.17 1.81-.26 3.57.38 5.35.72 1.38-1.16 2.72-2.39 4.12-3.54-4.53 8.93-9.53 17.63-14.09 26.54-.94 2.09-2.23 5.64.35 7.02 4.29-1.36 8.53-3.85 10.87-7.82 4.2-7.18 7.91-14.66 12.31-21.72 1.29-2.41 4.25-.72 6.28-.49 1.34-1.16 2.67-2.34 4.04-3.49-5.99 12.63-12.81 24.9-20.9 36.32 6.1-3.66 10.72-9.15 15.98-13.84 4.74-4.29 9.16-8.93 14.05-13.06.8 1.81-1.22 2.74-2.12 3.91-6.74 6.23-13.25 12.71-20.05 18.88-2.79 2.65-6.43 4.15-9.32 6.63-4.83 8.16-7.95 17.71-15.32 24.1-3.7 3.19-9.36 4.86-13.87 2.48-2.96-1.6-4.81-4.99-4.27-8.35.46-4.43 3.96-7.73 7.5-10.01 5.62-3.52 11.98-5.58 18.24-7.67 1.4-2.85 2.83-5.68 4.29-8.5-3.23 2.09-6.51 4.67-10.48 4.98-2.81.11-5.18-2.18-5.46-4.9-1.12-4.69 1.52-8.97 3.53-12.98-4.38 4.65-8.3 9.75-12.97 14.13-2.96 2.73-7.3 4.85-11.32 3.23-3.34-1.59-3.85-6.1-2.74-9.24 3.26-7.37 9.34-13.24 12.32-20.71-2.13-1.25-4.59.26-6.38 1.44-8.75 6.67-13.92 16.64-19.12 26.06-.87 2.25-3.25 1.85-5.12 1.49-2.39-.83-3.94 1.56-5.67 2.73 3.37-6.41 6.79-12.79 10.03-19.27-6.42 6.25-12.03 13.98-20.51 17.56-4.43 1.72-8.54-1.8-10.46-5.51-3.07 3.82-8.12 7.44-13.21 5.34-4.65-2.27-4.33-8.28-4.26-12.67-5.15 6.2-11.07 12.66-19.13 14.79-2.84.85-5.7-.03-7.86-1.96-2.63 1.43-5.53 2.98-8.62 2.44-2.29-.25-2.9-2.7-3.82-4.37-3.26 6.73-6.63 13.41-9.44 20.34-2.62 5.85-4.57 12.16-8.68 17.21-2.01-.41-4.01-.89-5.97-1.45-1.58 1.34-3.16 2.69-4.77 3.99 9.9-17.04 18.63-34.72 27.96-52.06.31-.82.93-2.46 1.25-3.28l.85.36c-.67-.44-1.33-.87-1.98-1.31 5.17-3.49 6.75-9.8 10.49-14.44 1.84-.36 3.64.34 5.45.66 1.38-1.2 2.78-2.4 4.17-3.6l-1.5 3.1c2.57-1.2 5.82-2.08 8.34-.24 3.83 2.79 4.42 8.25 3.09 12.51-2.22 8.26-8.93 14.17-15.36 19.31 4.25 3.61 9.88.3 13.66-2.42 5.69-4.73 11.44-9.97 14.49-16.85 4.22-7.82 12.51-13.97 21.69-13.59 2.02-.21 3.68 1.05 5.32 2.04 2.05-1.55 4.57-.79 6.88-.46m-61.03 4.87c-4.93 5.87-8.47 12.73-11.76 19.6 2.96-.36 5.53 1.13 7.84 2.79 4.82-6.55 9.39-13.53 11.75-21.38.34-1.62 1.23-4.42-1.04-4.99-2.88-.26-5.03 2.04-6.79 3.98m48.03-3.99c-4.65 1.63-7.7 5.82-10.34 9.75-2.73 4.39-5.5 8.95-6.55 14.07-.23 1.96-.74 4.4.79 5.99 4.64.68 7.52-3.83 9.63-7.23 3.72-6.62 7.96-13.02 10.79-20.08.74-2.57-2.41-3.62-4.32-2.5m-61.28 25.78c.55 1.69.69 3.86 2.41 4.88 2.41.49 4.07-1.59 5.78-2.89-2.35-1.86-5.21-3.29-8.19-1.99m119.94 16.84c-3.64 1.87-7.32 4.45-8.89 8.39-.82 2.39-.85 6.05 2.06 7.02 3.62 1 6.92-1.41 9.37-3.8 5.01-5.14 8.43-11.53 12.26-17.54-5.05 1.68-10.02 3.59-14.8 5.93zm-203.7-32.56c.79-2.2 3.41-1.56 5.2-1.55l.12 3.38c-1.8.48-3.79 2.24-.68 3.24-.72.42-1.44.84-2.15 1.26-1.64-1.66-3.72-3.79-2.49-6.33zM562 378.12c.51.73 1.03 1.48 1.54 2.23-.36 3.67-.02 7.36-.13 11.04-3.09-3.68-.9-8.94-1.41-13.27zm.23 13.24c.51.17 1.53.51 2.04.67 1.21 13.9 12.81 26.44 26.76 28.34 9.84 1.61 19.51-1.82 28.46-5.56 11.23-4.26 22.26-10.14 34.51-10.59 9.75-.38 20.25 1.51 27.97 7.83 4.64 3.68 6.31 11.69 1.18 15.7 1.39-3.82 2.89-8.43-.08-11.96-5.53-6.79-14.8-9.06-23.11-10.12-18.69-1.67-34.53 10.13-51.85 14.88-10.48 3.04-22.53 2.07-31.57-4.39-8.08-5.75-12.86-15.13-14.31-24.8z"/></g></svg>