<svg xmlns="http://www.w3.org/2000/svg" role="img" viewBox="-8.21 -7.96 413.92 225.17"><title>Rust WG logo</title><style>.st0{fill:#1dcad3}</style><style>.st0{fill:#1dcad3}</style><style>.st0{fill:#1dcad3}</style><style>.st0{fill:#1dcad3}</style><style id="style275" type="text/css">.st0{fill:#1dcad3}</style><g id="g577" transform="translate(70.686)"><path id="polygon277" d="M1.7 37.2L14.9 0h-1.7L0 37.2z" class="st0"/><path id="polygon279" d="M29.9 4.5l-4.5 3 .4-5.7h-1.6l.4 5.7-4.5-3-.8 1.4 5 2.4-5 2.4.8 1.4 4.5-3-.4 5.8h1.6l-.4-5.8 4.5 3 .8-1.4-5-2.4 5-2.4z" class="st0"/><path id="path281" d="M50 23.6h14.2l3.1 8h1.8L57.4 1.5h-.5L45.2 31.6H47zm6.3-16.2c.4-1 .8-2.5.8-2.7 0 .1.4 1.7.8 2.7L63.6 22h-13z" class="st0"/><path id="path283" d="M86.4 31.9c5 0 9.2-2.1 11.8-5.9l-1.3-1c-2.3 3.4-6 5.3-10.5 5.3-7.4 0-13-5.8-13-13.6S79 3.1 86.4 3.1c4.6 0 8 1.9 10.1 5l1.3-1c-2.4-3.6-6.4-5.6-11.4-5.6-8.1 0-14.7 6.2-14.7 15.2s6.5 15.2 14.7 15.2z" class="st0"/><path id="path285" d="M106.4 23.6h14.2l3.1 8h1.8L113.8 1.5h-.5l-11.6 30.1h1.7zm6.3-16.2c.4-1 .8-2.5.8-2.7 0 .1.4 1.7.8 2.7L120 22h-13z" class="st0"/><path id="path287" d="M153.6 16.7c0-9.1-5.8-14.9-15.7-14.9h-6.1v29.7h6.1c9.9.1 15.7-5.7 15.7-14.8zM133.4 30V3.5h4.2c9.5 0 14.1 5.5 14.1 13.3 0 7.8-4.6 13.2-14.1 13.2z" class="st0"/><path id="polygon289" d="M177.1 3.4V1.8h-16.8v29.8h17.4V30h-15.6V17.4h13.5v-1.6h-13.5V3.4z" class="st0"/><path id="path291" d="M186.2 8c0-1-.1-2.6-.1-2.6s.8 1.5 1.6 2.4l10 13.7h.5l10.1-13.7c.8-1 1.6-2.4 1.6-2.4s-.1 1.5-.1 2.6v23.6h1.7V1.5h-.5l-13 17.7-13-17.7h-.4v30.1h1.7V8z" class="st0"/><path id="path293" d="M227.6 31.6h1.8V20.7l10-18.9h-1.8l-8.3 15.6c-.4.7-.8 1.7-.8 1.8 0-.2-.3-1.1-.7-1.8l-8.3-15.6h-1.9l10 18.8z" class="st0"/><path id="path295" d="M18.5 76.8c0-4.1-2.2-6.6-6.9-8.8l-2.7-1.3c-3.6-1.7-5-3.1-5-6.1 0-3 2-5 5.4-5 3.2 0 4.8 1.7 6 3.6l1.4-.9C15.3 56 13.2 54 9.3 54c-3.9 0-7.1 2.5-7.1 6.6 0 3.8 2 5.7 6 7.7l2.7 1.3c4 1.9 5.9 3.8 5.9 7.3 0 3.8-3.1 6-6.9 6-4.6 0-6.8-2.5-8.1-5.1l-1.5.7c1.4 3 4.2 5.9 9.7 5.9 4.9 0 8.5-3 8.5-7.6z" class="st0"/><path id="path297" d="M37.8 84.4c8.1 0 14.7-6.2 14.7-15.2S45.9 54 37.8 54s-14.7 6.2-14.7 15.2 6.6 15.2 14.7 15.2zm0-28.8c7.4 0 13 5.8 13 13.6s-5.5 13.6-13 13.6c-7.4 0-13-5.8-13-13.6s5.6-13.6 13-13.6z" class="st0"/><path id="polygon299" d="M59.3 54.3v29.8h1.8V70.6h13.6V69H61.1V55.9h15v-1.6z" class="st0"/><path id="polygon301" d="M89.5 55.9v28.2h1.7V55.9h9.1v-1.6h-20v1.6z" class="st0"/><path id="path303" d="M132 78.2c-.3.8-.5 2-.5 2.1 0-.2-.3-1.4-.5-2.1L122.7 54h-.5L114 78.2c-.3.8-.6 2-.6 2.1 0-.2-.3-1.4-.5-2.1l-7-23.9H104l9 30.1h.5l8.4-24.7c.3-.8.5-2 .5-2.1 0 .3.2 1.4.5 2.1l8.4 24.7h.5l9-30.1H139z" class="st0"/><path id="path305" d="M146.8 76.1H161l3.1 8h1.8L154.2 54h-.5L142 84.1h1.7zm6.3-16.2c.4-1 .8-2.5.8-2.7 0 .1.4 1.7.8 2.7l5.6 14.6h-13z" class="st0"/><path id="path307" d="M189.8 63.1c0-5.8-3.9-8.7-10-8.7h-7.7v29.7h1.7V71.8h6c.7 0 1.3 0 1.9-.1l7 12.4h2.1l-7.2-12.7c3.9-1.2 6.2-4 6.2-8.3zm-10.2 7.1h-5.8V55.9h5.8c5.5 0 8.4 2.4 8.4 7.2 0 4.6-2.9 7.1-8.4 7.1z" class="st0"/><path id="polygon309" d="M214.2 55.9v-1.6h-16.8v29.8h17.4v-1.6h-15.6V69.9h13.5v-1.6h-13.5V55.9z" class="st0"/><path id="polygon311" d="M16.9 108.4v-1.6H.1v29.7h1.8v-13.4h13.6v-1.6H1.9v-13.1z" class="st0"/><path id="path313" d="M35.8 106.5c-8.1 0-14.7 6.2-14.7 15.2 0 9.1 6.6 15.2 14.7 15.2s14.7-6.2 14.7-15.2c.1-9.1-6.5-15.2-14.7-15.2zm0 28.8c-7.4 0-13-5.8-13-13.6s5.5-13.6 13-13.6 13 5.8 13 13.6-5.6 13.6-13 13.6z" class="st0"/><path id="path315" d="M74.7 126.5c0 5.7-3.3 8.8-8 8.8s-8-3.1-8-8.8v-19.7H57v19.9c0 6.7 4.1 10.2 9.7 10.2 5.5 0 9.7-3.5 9.7-10.2v-19.9h-1.7z" class="st0"/><path id="path317" d="M105 130.9c0 .9.1 2.2.1 2.2s-.8-1.2-1.3-2l-18.4-24.7h-.5v30.1h1.6v-24.1c0-.9-.1-2.2-.1-2.2s.8 1.2 1.3 2l18.4 24.7h.5v-30.1H105z" class="st0"/><path id="path319" d="M121.5 106.8h-6.1v29.7h6.1c10 0 15.7-5.7 15.7-14.9s-5.8-14.8-15.7-14.8zm-.2 28.1h-4.2v-26.5h4.2c9.5 0 14.1 5.5 14.1 13.3 0 7.8-4.6 13.2-14.1 13.2z" class="st0"/><path id="path321" d="M151.4 106.5l-11.6 30.1h1.7l3-8h14.2l3.1 8h1.8L152 106.5zm6.8 20.5h-13l5.6-14.7c.4-1 .8-2.5.8-2.7 0 .1.4 1.7.8 2.7z" class="st0"/><path id="polygon323" d="M163.9 106.8v1.6h9.2v28.1h1.7v-28.1h9.2v-1.6z" class="st0"/><path id="rect325" d="M189.9 106.8h1.7v29.7h-1.7z" class="st0"/><path id="path327" d="M213.3 106.5c-8.1 0-14.7 6.2-14.7 15.2 0 9.1 6.6 15.2 14.7 15.2s14.7-6.2 14.7-15.2c0-9.1-6.6-15.2-14.7-15.2zm0 28.8c-7.4 0-13-5.8-13-13.6s5.5-13.6 13-13.6c7.4 0 13 5.8 13 13.6s-5.6 13.6-13 13.6z" class="st0"/><path id="path329" d="M254.9 106.8v24.1c0 .9.1 2.2.1 2.2s-.8-1.2-1.3-2l-18.4-24.7h-.5v30.1h1.6v-24.1c0-.9-.1-2.2-.1-2.2s.8 1.2 1.3 2l18.4 24.7h.5v-30.1z" class="st0"/></g><g id="text444" transform="translate(-.43)"><path id="path878" d="M24.49219 201.22244h-5.01953l-9.72657-11.5625H4.29687v11.5625H.4297v-29.08203h8.14453q2.63672 0 4.39453.35156 1.75781.33204 3.16406 1.21094 1.58203.9961 2.46094 2.51953.89844 1.50391.89844 3.82813 0 3.14453-1.58203 5.27344-1.58204 2.10937-4.35547 3.18359zm-9.04297-20.89843q0-1.25-.44922-2.20704-.42969-.97656-1.44531-1.64062-.83985-.56641-1.99219-.78125-1.15234-.23438-2.71484-.23438H4.29688v10.97657h3.90625q1.83593 0 3.20312-.3125 1.36719-.33203 2.32422-1.21094.8789-.82031 1.28906-1.875.42969-1.07422.42969-2.71484z"/><path id="path880" d="M45.64453 201.22244h-3.67187v-2.42187q-1.85547 1.46484-3.5547 2.24609-1.69921.78125-3.75.78125-3.4375 0-5.35155-2.08984-1.91407-2.10938-1.91407-6.17188v-14.16015h3.67188v12.42187q0 1.66016.15625 2.85156.15625 1.17188.66406 2.01172.52735.85938 1.36719 1.25.83984.39063 2.4414.39063 1.42579 0 3.10547-.74219 1.69922-.74219 3.16407-1.89453v-16.28906h3.67187z"/><path id="path882" d="M68.45703 194.93338q0 2.98828-2.48047 4.90234-2.46094 1.91407-6.73828 1.91407-2.42187 0-4.45312-.56641-2.01172-.58594-3.37891-1.26953v-4.12109h.19531q1.73828 1.30859 3.86719 2.08984 2.1289.76172 4.08203.76172 2.42188 0 3.78906-.78125 1.3672-.78125 1.3672-2.46094 0-1.28906-.7422-1.95312-.74218-.66407-2.85156-1.13282-.78125-.17578-2.05078-.41015-1.25-.23438-2.28516-.50782-2.87109-.76171-4.08203-2.22656-1.1914-1.48437-1.1914-3.63281 0-1.34766.54687-2.53906.5664-1.19141 1.69922-2.12891 1.09375-.91797 2.77344-1.44531 1.69922-.54688 3.78906-.54688 1.95313 0 3.94531.48828 2.01172.46875 3.33985 1.15235v3.92578h-.19532q-1.40625-1.03516-3.41796-1.73828-2.01172-.72266-3.94532-.72266-2.01172 0-3.39843.78125-1.38672.76172-1.38672 2.28516 0 1.34765.83984 2.03125.82031.68359 2.65625 1.11328 1.01563.23437 2.26563.46875 1.26953.23437 2.10937.42969 2.5586.58593 3.94531 2.01172 1.38672 1.44531 1.38672 3.82812z"/><path id="path884" d="M85.03906 201.02713q-1.03515.27344-2.26562.44922-1.21094.17578-2.16797.17578-3.33984 0-5.07813-1.79687-1.73828-1.79688-1.73828-5.76172v-11.60157H71.3086v-3.08593h2.48047v-6.26953h3.67188v6.26953h7.57812v3.08593h-7.57812v9.94141q0 1.71875.07813 2.69531.07813.95703.54687 1.79688.42969.78125 1.17188 1.15234.76172.35156 2.30469.35156.89843 0 1.875-.2539.97656-.27344 1.40624-.44922h.19532z"/><path id="path886" d="M137.67578 172.14041l-7.55859 29.08203h-4.35547l-6.11328-24.14062-5.97656 24.14062h-4.25782l-7.69531-29.08203h3.96484l6.11329 24.17969 6.01562-24.17969h3.92578l6.07422 24.41406 6.07422-24.41406z"/><path id="path888" d="M159.72656 190.32401q0 5.33203-2.73437 8.41796-2.73438 3.08594-7.32422 3.08594-4.62891 0-7.36328-3.08594-2.71485-3.08593-2.71485-8.41796 0-5.33204 2.71485-8.41797 2.73437-3.10547 7.36328-3.10547 4.58984 0 7.32422 3.10547 2.73437 3.08593 2.73437 8.41797zm-3.78906 0q0-4.23829-1.66016-6.28907-1.66015-2.07031-4.60937-2.07031-2.98828 0-4.64844 2.07031-1.64062 2.05078-1.64062 6.28907 0 4.10156 1.66015 6.23046 1.66016 2.10938 4.62891 2.10938 2.92969 0 4.58984-2.08984 1.67969-2.10938 1.67969-6.25z"/><path id="path890" d="M179.02344 183.40994h-.19532q-.82031-.19531-1.60156-.27343-.76172-.0977-1.8164-.0977-1.69922 0-3.28125.76172-1.58204.74219-3.04688 1.93359v15.48828h-3.67187V179.406h3.67187v3.22265q2.1875-1.75781 3.84766-2.48047 1.67968-.74218 3.41797-.74218.95703 0 1.38671.0586.42969.0391 1.28907.17578z"/><path id="path892" d="M202.28516 201.22244h-4.84375l-8.75-9.55078-2.38282 2.26563v7.28515h-3.67187v-30.39062h3.67187v19.49219l10.60547-10.91797h4.62891l-10.13672 10.07812z"/><path id="path894" d="M210.09766 175.75369h-4.14063v-3.80859h4.14063zm-.23438 25.46875h-3.67187v-21.8164h3.67187z"/><path id="path896" d="M235.37109 201.22244h-3.67187v-12.42187q0-1.50391-.17578-2.8125-.17578-1.32813-.64453-2.07031-.48829-.82032-1.40625-1.21094-.91797-.41016-2.38282-.41016-1.5039 0-3.14453.74219-1.64062.74219-3.14453 1.89453v16.28906h-3.67187v-21.8164h3.67187v2.42187q1.71875-1.42578 3.55469-2.22656t3.76953-.80078q3.53516 0 5.39062 2.1289 1.85547 2.12891 1.85547 6.13282z"/><path id="path898" d="M260.13672 198.74197q0 5.54688-2.51953 8.14454-2.51953 2.59765-7.75391 2.59765-1.73828 0-3.39844-.2539-1.64062-.23438-3.24218-.6836v-3.75h.19531q.89844.35156 2.85156.85938 1.95313.52734 3.90625.52734 1.875 0 3.10547-.44922t1.91406-1.25q.6836-.76172.97656-1.83594.29297-1.07421.29297-2.40234v-1.99219q-1.66015 1.32813-3.18359 1.99219-1.50391.64453-3.84766.64453-3.90625 0-6.21093-2.8125-2.28516-2.83203-2.28516-7.96875 0-2.8125.78125-4.84375.80078-2.05078 2.16797-3.53515 1.26953-1.38672 3.08594-2.14844 1.8164-.78125 3.61328-.78125 1.89453 0 3.16406.39062 1.28906.3711 2.71484 1.15235l.23438-.9375h3.4375zm-3.67188-3.51562v-11.89453q-1.46484-.66406-2.73437-.9375-1.25-.29297-2.5-.29297-3.02735 0-4.76563 2.03125-1.73828 2.03125-1.73828 5.89844 0 3.67187 1.28906 5.5664 1.28907 1.89453 4.27735 1.89453 1.60156 0 3.20312-.60546 1.6211-.625 2.96875-1.66016z"/><path id="path900" d="M305.97656 199.07401q-2.38281 1.09375-5.21484 1.91406-2.8125.80078-5.44922.80078-3.39844 0-6.23047-.9375-2.83203-.9375-4.82422-2.8125-2.01172-1.89453-3.10547-4.72656-1.09375-2.85157-1.09375-6.66016 0-6.97266 4.0625-10.99609 4.08203-4.04297 11.19141-4.04297 2.48047 0 5.05859.60547 2.59766.58593 5.58594 2.01172v4.58984h-.35156q-.60547-.46875-1.75781-1.23047-1.15235-.76172-2.26563-1.26953-1.34766-.60547-3.06641-.99609-1.69921-.41016-3.86718-.41016-4.88282 0-7.73438 3.14453-2.83203 3.125-2.83203 8.47656 0 5.64453 2.96875 8.78907 2.96875 3.125 8.08594 3.125 1.875 0 3.73047-.3711 1.875-.37109 3.28125-.95703v-7.12891h-7.79297v-3.39843h11.62109z"/><path id="path902" d="M326.05469 183.40994h-.19532q-.82031-.19531-1.60156-.27343-.76172-.0977-1.8164-.0977-1.69922 0-3.28125.76172-1.58204.74219-3.04688 1.93359v15.48828h-3.67187V179.406h3.67187v3.22265q2.1875-1.75781 3.84766-2.48047 1.67968-.74218 3.41797-.74218.95703 0 1.38671.0586.42969.0391 1.28907.17578z"/><path id="path904" d="M348.10547 190.32401q0 5.33203-2.73438 8.41796-2.73437 3.08594-7.32422 3.08594-4.6289 0-7.36328-3.08594-2.71484-3.08593-2.71484-8.41796 0-5.33204 2.71484-8.41797 2.73438-3.10547 7.36328-3.10547 4.58985 0 7.32422 3.10547 2.73438 3.08593 2.73438 8.41797zm-3.78906 0q0-4.23829-1.66016-6.28907-1.66016-2.07031-4.60938-2.07031-2.98828 0-4.64843 2.07031-1.64063 2.05078-1.64063 6.28907 0 4.10156 1.66016 6.23046 1.66015 2.10938 4.6289 2.10938 2.92969 0 4.58985-2.08984 1.67969-2.10938 1.67969-6.25z"/><path id="path906" d="M371.875 201.22244h-3.67188v-2.42187q-1.85546 1.46484-3.55468 2.24609-1.69922.78125-3.75.78125-3.4375 0-5.35157-2.08984-1.91406-2.10938-1.91406-6.17188v-14.16015h3.67188v12.42187q0 1.66016.15625 2.85156.15625 1.17188.66406 2.01172.52734.85938 1.36719 1.25.83984.39063 2.4414.39063 1.42578 0 3.10547-.74219 1.69922-.74219 3.16406-1.89453v-16.28906h3.67188z"/><path id="path908" d="M398.30078 190.05057q0 2.65625-.76172 4.86328-.76172 2.1875-2.14844 3.71094-1.28906 1.44531-3.04687 2.24609-1.73828.78125-3.69141.78125-1.69922 0-3.08593-.37109-1.36719-.3711-2.79297-1.15235v9.14063h-3.67188v-29.86328h3.67188v2.28515q1.46484-1.23047 3.28125-2.05078 1.83593-.83984 3.90625-.83984 3.94531 0 6.13281 2.98828 2.20703 2.96875 2.20703 8.26172zm-3.78906.0977q0-3.94531-1.34766-5.89843-1.34765-1.95313-4.14062-1.95313-1.58203 0-3.1836.6836-1.60156.68359-3.0664 1.79687v12.36328q1.5625.70313 2.67578.95703 1.13281.25391 2.55859.25391 3.06641 0 4.78516-2.07031 1.71875-2.07032 1.71875-6.13282z"/></g></svg>