<svg xmlns="http://www.w3.org/2000/svg" role="img" viewBox="-141.00 -141.00 7332.00 1357.00"><title>Samsung Electronics Co. Ltd. logo</title><defs><clipPath id="a" clipPathUnits="userSpaceOnUse"><path d="M0 166.885h628.238V0H0z"/></clipPath></defs><g clip-path="url(#a)" transform="matrix(12.94405 0 0 -12.94405 -540.036 1620.023)"><path fill="#1428a0" fill-opacity="1" fill-rule="nonzero" stroke="none" d="M558.933 88.51V77.152h7.982V65.883c.025-1.007-.03-2.093-.203-2.962-.317-2.102-2.314-5.681-7.98-5.681-5.632 0-7.593 3.579-7.933 5.681-.143.869-.204 1.955-.204 2.962v35.593c0 1.259.085 2.637.352 3.68.387 1.897 2.068 5.638 7.743 5.638 5.957 0 7.444-3.944 7.785-5.638.224-1.122.237-3.004.237-3.004V97.83h19.613v2.555s.089 2.666-.149 5.154c-1.474 14.609-13.511 19.231-27.313 19.231-13.827 0-25.62-4.665-27.338-19.231-.155-1.332-.392-3.728-.392-5.154V67.643c0-1.426.046-2.53.31-5.136 1.28-14.207 13.593-19.243 27.365-19.243 13.857 0 26.085 5.036 27.387 19.243.231 2.606.255 3.71.286 5.136V88.51zm-135.235 34.165h-19.696V65.062c.031-1.004 0-2.132-.173-2.959-.411-1.934-2.05-5.656-7.484-5.656-5.364 0-7.046 3.722-7.426 5.656-.197.827-.222 1.955-.197 2.959v57.613h-19.69V66.85c-.025-1.439.088-4.379.173-5.149 1.359-14.547 12.824-19.27 27.14-19.27 14.344 0 25.802 4.723 27.186 19.27.109.77.252 3.71.167 5.149zm-180.97 0l-9.825-60.876-9.819 60.876h-31.771l-1.685-77.878h19.464l.527 72.094 13.392-72.094h19.748l13.404 72.094.529-72.094h19.513l-1.742 77.878zm-117.631 0l-14.426-77.878h21.037l10.871 72.094 10.61-72.094h20.891l-14.366 77.878zm367.435-62.701l-18.34 62.701h-28.9V45.609h19.118l-1.11 64.707 19.696-64.707h27.717v77.066H491.47zm-176.838 42.433c-.346 1.538-.246 3.172-.067 4.026.557 2.493 2.232 5.212 7.058 5.212 4.498 0 7.135-2.804 7.135-7.012v-4.762h19.2v5.428c0 16.78-15.044 19.416-25.936 19.416-13.718 0-24.921-4.522-26.967-17.148-.541-3.436-.675-6.486.186-10.378 3.336-15.743 30.743-20.31 34.721-30.266.702-1.886.501-4.291.143-5.708-.596-2.591-2.339-5.197-7.506-5.197-4.846 0-7.763 2.786-7.763 6.985l-.006 7.474h-20.666v-5.941c0-17.215 13.484-22.409 28.007-22.409 13.909 0 25.397 4.753 27.24 17.637.879 6.657.216 10.993-.137 12.626-3.22 16.147-32.431 21.004-34.642 30.017m-253.273.191c-.377 1.57-.289 3.227-.079 4.091.532 2.481 2.217 5.248 7.128 5.248 4.555 0 7.237-2.831 7.237-7.073v-4.82h19.425v5.471c0 16.941-15.274 19.641-26.285 19.641-13.833 0-25.136-4.592-27.204-17.309-.566-3.491-.663-6.562.155-10.497 3.372-15.922 31.05-20.526 35.077-30.601.754-1.873.526-4.278.152-5.75-.639-2.618-2.396-5.261-7.606-5.261-4.865 0-7.775 2.834-7.775 7.091l-.027 7.494H41.721v-5.955c0-17.412 13.675-22.648 28.311-22.648 14.071 0 25.626 4.795 27.511 17.828.937 6.718.234 11.09-.082 12.748-3.287 16.345-32.823 21.186-35.04 30.302"/></g></svg>