<svg xmlns="http://www.w3.org/2000/svg" role="img" viewBox="9.31 41.31 308.88 241.88"><title>Scala Migrations logo</title><path fill="#FFF" stroke="#FFF" d="M0 0h321v322H0V0zm35 44v2l2-1-2-1zm2 2l-8 4-2-1-6 4-1-1-3 3q-2-2-3 1l6 10 2-1 2 1 1 3 2-1 4 3 2-1 10 1h2l10 5q2 1 0 3h2l-1 2q-1 4 2 6l-1 2 2-1-1 2-2-1-4 1-1 3q1 3-1 2v2l-3 1h2v1l-2-1-4 1-8 9-6 5 1 2v2l2 3v2l4 6 3-1 2 1v-2l4-1 1 1 3-3 1 1v-2l8-4q3 1 2-2l9-5h2q-1-4 2-3l6-7 7-6-1-1 3-10q-1-11-5-17h2q1-4-3-2l-5-8-3 1v-2l-4 1-5-8q-6-1-7 1l-4-1-13 5-4-8zm96 2l-2 2h2v-2zM9 49v2l2-1-2-1zm131 3l-5 2h-2l-2 1q-2 3-3 1l-7 4 1 10 3 1 3 3 1-1v2l2-1 4 3q2-1 1 2l2-1q2 3 9 2h2l2 1q1 3 3 1l8 10v9l-4 1-2-1-1 2-1 3 2 2-1-1-2 1-2 1q1-3-1-2v2l-8-2v2l-4 9v2h-1v2l-1 1v12l3 4q1-2 6-1l3-2 2 1 9-4 4 1-1-1 4-2h2l9-7q2 1 1-1h2v-1l3-2-1-1 3-1 1-3q3 1 2-1h-2q4-3 4-9l2-4-1-1 1-2-1-2v-2l1-2-1-3v-2l-2-1 1-3-1-3 1-2q-5-8-15-10-2-4-3-1l-2-1v-1l-1-5-5-3-1 1h-16l-3-1q1-3-1-2-3-1-1-2l-2-1zM13 55l-1 3h1v-3zm72 43l-2 2h2v-2zm-2 2l-2 2h2v-2zm202 4v1h2l-2-1zm-28 1l-10 3-7 4q-3 1-1 3l-2 1h2l-1 5 5 3 3-1q1 3 3 1l13 3h5l10 7q-1 2 2 1l4 7v5l-1-1-3 2q-3-1-2 3v5l-1-2-1 2-4-1-1 2-4-1-5 4 1 2q-4 1-1 3 1 2-1 1v2l-1 2 1 5-2 1h2q3 2 1 9l4 1 2-2 7-2h2q6-6 17-8l9-7 5-6 4-3-1-1 2-3 2-10q-3-2-2-7l-2-4 1-2-1-1-2-3v-2l1-2-1-2h-1l-9-3h-2l-1-1h-8v-2l-1 2-1-6-2-3-1 1-12 1h-2q-8-1-11-5zm-190 8l-2 2h2v-2zm231 0q-2 3 1 2l-1-2zm-127 16l-1 2 2-1-1-1zm90 27v2l2-1-2-1zm-82 5v3l-1-1-12 6-5 3 1 2-1 3 2-1-1 2 3 4 2-1 5 4 2 4 2-1 4 1h2l2-1 1 1-2 1 3 1v-3l8 2 1 3 2-1 5 6-2 3q-1 5 2 7l-8 3v2l-1 3h-8l-3 3q1 2-1 1l-3 4q1 2-1 1v2l-5 6-1-2-1 3 3 1-1 2 3 5-2 1h2l1 3 4 1 3-2 10-2h2v-1h2l14-8q1-4 3-1l14-16 2-6v-2l1-3 1-3-2-14-3-6 2-1-2-1-2-2q-4-5-11-6l-2-2 1-2q-3 1-2-3l-4-1-5 1-2-1-6 2-2-1-6 3v-1l-1-1v-1l-6-5zm34 1l-1 3h1v-3zm-18 31q-2 3 1 2l-1-2zm-95 1l-1 2-1-1-3 2-2-1-7 2h-2l-2 3v2l-1 2 2 5q-1 2 2 1 2 1 0 3l4 2 5 6 2-1 1 2 3-1q1 3 3 1l7 4 3 8 1 3-2 1v6h-6l-4 6-2-1h-2l-6-2q-2 3-4 2l1 2h-1l-3 4-3 1-1 3q-3-1-2 2l-3 3v2l1 2-1 3 1 2v2l4 1h2l2 1 3-1 1 2 5-2 2 1 3-1 1 2v-2l4-1 5 1-1-1h2l5-3 1 2v-1l6-4h2v-2l4-1q10-7 14-21v-2q-1-5 1-6l-1-8v-2l1-2h-1l-5-7q1-3-1-2l-2-3-2 1-2-2v-2l1-3-2-3h-2q-3 1-2-1h-1l-3-1q-6 2-5-1l-2 1-1-2-2 1q-6 2-5-2v-2l-2-3-3 1-1-2zm32 12v2l2-1-2-1zm3 1l-2 2h2v-2zm0 3q-2 3 1 2l-1-2zm-3 2v2l2-1-2-1zm11 7q-2 3 1 2l-1-2zm-57 31l1 2q1-3-1-2zm56 11l1 2q1-3-1-2z"/><path fill="#FFF" stroke="#FFF" d="M35 50q2.7-1.1 2 1.5l1 3-5.5 3.5q-1.5-2.5-3 1l-3 1-2.5-1-.5-2-2 1-2.5-1.5L31.5 51l3.5.5V50zm20.5 2l4 1 2-1v1l-8 6H51l-.5 2h-2L43 62l1-2.5-2-1 .5-1.5-1.5-.5 3.5-1.5 2-1 2.5 1q-1.4-4 5.5-2l1-1zM48 57v1h2l-2-1zm91.5-2l3 4q2.3-.7 1.5 1.5l4 5-10 4.5-.5-2h-2L125 61.5h2q-.7-2.2 1.5-1.5l1.5-.5-1 3h1l1.5-4.5 1 1 5-3 2-1zm-8.5 6l1 2 2-1-3-1zm12 1v1h2l-2-1zm-75.5-3l2 1 2.5-1 .5 2 3-1 2.5 3.5-9.5 3.5q-1.5-2.5-3 1h-4l-5 2-1-2q1.8 2.8 3.5-1.5l1.5-2.5 7-5zm83 1h2q4.8-1.3 6 1l2-1h2q3.8-1.2 2.5 2.5l-2 4.5q-2.7-1.1-2 1.5-.5 4-5.5 3.5l-3.5-1.5q1.2-7.8-4-9l2.5-1.5zm18 8l1 2 3.5-1 .5 2h2l4 3q1.5-2.5 3 1l3.5 2.5-15.5 3.5h-2l-4.5 1q1.1-2.7-1.5-2l-2.5-.5 6.5-8.5 1.5-.5q-2.2-1.3.5-2.5zm-88 5l2.5.5-2 1 .5 1.5-1.5.5 1 1-4.5 4.5-1.5-.5q1.1 3.3-1.5 2.5L71 85l-.5-2-4 1-2-2h-4l-1.5-.5 3.5-3.5 12-3 2.5 1 .5-2q1.5 2.5 3-1zM73 81l1 2q1-3-1-2zm111.5 5l3.5 1.5-1 2 1 4v2l-3.5 5.5-3-2h-2l-6.5-2.5.5-1.5-2 1-6.5-3.5 2-1-2-1 3.5-1.5 2 1 10-3h2l2-1zm-124 5q4.4-1.5 3.5 1.5l1.5-.5q2.3-.7 1.5 1.5l1.5-.5q4.2-1.1 2.5 3l-8.5 4-1-2-1 3-1-2-2 3q-1.5-2.5-3 1l-3.5-1.5 3-2-2-1 2-5.5 6.5-2zM44 101h4v1.5l-1 3 2 3-1 1 1.5 2.5-3-1q-1.4 2.6-6 2h-4l-2.5-.5 8.5-9.5 1.5.5V101zm119.5 1l3 1q3.3-1.1 2.5 1.5h2l-.5 1.5 3-1v2l2-1 5.5 3.5-1.5 2.5-6 3q-1.5-2.5-3 1l-2 1h-2q-5.2 1.3-6.5-1.5l-2-8v-2q-.7-2.2 1.5-1.5l4-2zm92 6q1.5 3.5 3 1l7.5 3.5-7.5 3.5h-2l-6-2-2 1-3-2-1.5.5 2.5-2.5 9-3zm6.5 3l-2 2h2v-2zm-117.5-1q1.5 3.5 3 1l3 1 3.5-.5.5 1.5 1-2 1.5 2.5v2q.8 2.3-1.5 1.5v1l2.5 1.5v2l-1.5 3.5h-13l-.5-1.5h-4l1-4.5 3-.5-1-2v-2l1.5-2.5 1.5-.5-.5-1.5zm137 1l-1 2-1.5.5q2.5 1.5-1 3 .8 2.6-2.5 1.5l-5 2-.5-3.5.5-4.5h2l3 1 1.5-.5-.5 1.5q2.6.7 1.5-2h2.5l1-1zm2.5 8l2.5 1 5.5-1 .5 2 2-1h2l4 2h2l1.5.5q-6.2-.2-9.5 2.5l-1-1-2.5 1.5-.5-1.5-.5 2-3.5 1-1-1-2.5 1.5.5-1.5q-4.4 1.5-3.5-1.5l4-5.5zm21.5 12l2.5 1.5 1 4-2 1 2 1-1.5 3.5-7-2h-6l-4-2-3 1-2.5-1q-1.3-3.3 3.5-2l17-5zm-20 16l5 2 2.5-1q-1.1 2.7 1.5 2l2-1 8 2 1.5-.5-3.5 2.5-1-1q-2.2 4.3-4.5 2.5l-.5 1.5-1-1-2 2-1-1-2 2h-4l-2 1-1.5-2.5.5-1.5q-2.2.8-1.5-1.5l-2-3h2q-.7-2.2 1.5-1.5l2-2zm-9 11q3.3-1.1 2.5 1.5l5 7-2.5.5-9 1-1.5-.5-.5 1.5h-2q-7.3 2.6-5.5-3.5l3-5-.5-1.5h10l1-1zm-98 8h2l1.5.5q-2.5 1.5 1 3l1 4-3.5 2.5v-2q-2.2-.7-1.5 1.5l-7 3.5-.5-2-1.5.5.5-1.5q-3.3 1.1-2.5-1.5l-3-1 .5-1.5 1 2 1-3 1.5.5.5-1.5 1 2 1-3 1 2 2-3 2-1 1.5.5.5-1.5zm19.5 2h6.5l1 1 2-1v1l-3.5 1-.5 2-2-1-.5 2.5q.8 2.3-1.5 1.5l-4 5h-2l-3-1-1.5.5-1-2 1-2h-2l1-2-1.5-2.5 4-1q1.5 2.5 3-1l4 1 .5-2zm-8 3l1 2q1-3-1-2zm10 0v3q3-1 0-3zm11.5 4l5.5 1 .5 2 1.5-.5.5 1.5q1.3-2.2 2.5.5-.7 2.3 1.5 1.5v2l1.5.5-3.5 1.5-2-1-.5 2-2.5-1-3 2-6 1q-1.5-2.5-3 1l-2-1q-1.2 2.3-2.5-.5l.5-2.5 1.5.5 2.5-3.5q2.3.8 1.5-1.5l5.5-5.5zm14 17l2.5.5-3 6v2l-6.5 7.5-6.5-3.5-.5-1.5-1 2-2.5-1.5.5-1.5-2 1-3.5-1 1-5 5.5-1 1 2 1.5-3 4.5 1 .5-2 8.5-2zm-127 6l2 1 2.5-1-1 2.5 2 3v2l1 2-.5 2.5-4.5-1q1.3 3.7-4.5 2l-3 1-2.5-2.5v-2l-5-6 1.5-1.5 11-1 1-1zm8 7l5 1 2-1h2l9.5 2 .5 2 1.5-.5-4.5 3.5-1.5-.5-1.5 2.5-3 2-1.5-.5-1.5 2.5-4-3q-1.3 2.3-2.5-.5l1-2-1-3-.5-4.5zm4.5 4v2l2-1-2-1zm92.5 0q1.1 2.8 4.5 2l.5 2 1.5-.5.5 1.5 2-1 4.5 2-1.5 3-10 5-2-1-4 3-2.5-.5-.5-1.5-1 2-1.5-3 2-.5-1-2 .5-2.5 1.5-.5-1-3q-.7-2.2 1.5-1.5l6-3zm-75 7l1.5.5-.5 1.5q3.8-.7 4.5 1.5l2.5 3.5q2.6-.8 1.5 2.5l2 3-1.5.5h-4l-4-1q-1.7 2.8-8 1l-4-1-1.5.5.5-1.5-1.5-.5.5-2.5 1.5.5 2.5-3.5 8-5zm4.5 3l-2 3 2-1v-2zm52.5-1l2 1h2q3.3-1.1 2.5 1.5v2l-2 4 3 6.5h-12.5l-1-1-2 1-1.5-2.5 4-2.5 2-3.5-1-1 4-4 .5-1.5zm-68 18h8l.5 1.5 1.5-.5 4-1q1.5 3.5 3 1l3 1 2.5-1-1 5.5-6.5 6.5q-1.2-2.2-2.5.5l-.5 1.5-1.5-.5-.5 1.5-4-6q-1.7 2.7-3.5-1.5l-.5-1.5q-1.7 2.7-3.5-1.5l-1-2 3-2-.5-1.5zm11.5 6l-2 2h2v-2zm-16.5 5l1 2 1-1 6.5 6.5q-.7 2.3 1.5 1.5l2 3 1.5-.5-3.5 2.5h-2l-5 1-1.5-.5-.5 1.5h-10l-2.5-1 3-9q2.7 1.1 2-1.5-2.8-1.8 1.5-3.5l3 1 2-2zm-20 4l9.5 2.5-1.5 2.5-1.5-.5 1 3-3 5 1 2v2l-.5 1.5-3-2-3 1-2-2-1 1-4-2-3-2-1.5.5 7-8.5q2.7 1.1 2-1.5l3.5-2.5zm-2.5 2v2l2-1-2-1z"/><path fill="#B7B7B7" stroke="#B7B7B7" d="M35.5 47l2.5 1.5-.5 1.5 1.5.5-.5 1.5 1.5.5-2 1-1-3.5-2-.5 2-1-1.5-1.5zm-5 2l2.5 1.5-1.5.5-1-2zm-3 1l2.5 1.5-1.5.5-1-2zm26 0l9.5 1-.5 2-9-2v-1zm-28 1l1 2-1-2zm24 0l2.5 1.5-1.5.5-1-2zm-4 1l2.5 1.5-1.5.5-1-2zm-3 1l2.5 1.5-1.5.5-1-2zm97 0l6.5 5.5-1.5 1.5-4.5-4.5.5-1.5-1-1zm-121 1l1.5 1.5-.5 2.5-1.5-1.5.5-2.5zm41 0l-1 2 1-2zm76 0l3.5 1.5-1.5.5-2-2zm-119 1v3q-3-1.5 0-3zm116 0l3.5 1.5-1.5.5-2-2zm-77 2l-2 3 2-3zm15 0q3.8-1 2.5 2l-6-.5 3.5-1.5zm58 0l2.5 1.5-1.5.5-1-2zm-53 1l1 2 1-1 3.5 3.5-1 2.5-2-.5 1-1-3.5-3.5-1.5-.5 1.5-1.5zm51 0l1 2-1-2zm21 0l7.5.5q-1.7 2.3-6.5 1.5l-1-2zm9.5 0l8 .5q-2.5 2.6-8 1.5v-2zm-91.5 1l-2 3 2-3zm59 0l1 2-1-2zm43 0q2.3.8 1.5 4.5h-1l-.5-3.5-1 2-.5-1.5 1.5-1.5zm-116 1l-1 2-2.5-.5 3.5-1.5zm71 0l-.5 1.5-.5 1.5-.5-1.5 1.5-1.5zm-79 2l2.5.5-2.5.5v-1zm105 0q4.5 1 3.5 7.5h-1l-.5-4.5-2.5 1.5q2.5-1.5-1-3l1.5-1.5zm-88 1l-2 3 2-3zm105 0l-1 2 1-2zm-144 1l3.5 2.5-1.5-.5-2-2zm107 0l1 2-1-2zm41 2l-3 4 3-4zm-114 1l-.5 1.5-.5 1.5-.5-1.5 1.5-1.5zm78 0l1 2-1-2zm12 0l1.5.5-4.5 2.5 1-2 2-1zm27 0l-1 2-1.5-.5 2.5-1.5zm-144 1l1 1 9.5.5-9.5.5-1-2zm147 0l-1 2-1.5-.5 2.5-1.5zm2 1l-1 2 1-2zm-17 1l-2 3-6.5-.5 6.5-.5 2-2zm19 0l-1 2 1-2zm-132 1l4.5 2.5-1.5-.5q-3.7-.2-3-2zm79 0l1 2-1-2zm39 0l-1 2 1-2zm16 0v3q-3-1.5 0-3zm3 2q6.3 1.8 4.5 11.5l-3.5 1.5v-1l2.5-.5v-7l-2.5 1.5-2.5-.5 3-1q-5.3-2.3-1.5-4.5zm-21 1l-1 2 1-2zm-109 1l5.5 5.5-.5 1.5 1.5.5-1.5.5-2.5-1.5-.5 2.5-.5-2.5 2-2-3.5-4.5zm12 1l2.5.5-2.5.5v-1zm15 1l-1 2 1-2zm56 0l2.5 1.5-1.5.5-1-2zm24 0l-1 2 1-2zm17 2l2.5.5-2.5.5v-1zm-5 1l2.5.5-2.5.5v-1zm-10 1l2.5 1.5-1.5.5-1-2zm5 0l2.5.5-2.5.5v-1zm-93 2l-1 2 1-2zm11 1l.5 2.5h-1l.5-2.5zm103 2l.5 1.5-2 1 1.5-2.5zm-30 1l1 2-1-2zm15 0l2.5.5-2.5.5v-1zm-116 2l4.5 1.5-4.5 1.5v-3zm107 0l-.5 1.5-.5 1.5-.5-1.5 1.5-1.5zm25 0l.5 10.5h-1l.5-10.5zm-29 1l1 2-1-2zm-97 1l2.5.5-2.5.5v-1zm8 2q2.3-.7 1.5 1.5L72.5 93zm90 1l.5 7.5q-1.5 3-3 0h2l.5-7.5zm-91 1l-1 2 1-2zm-22 3l-1.5 2.5 1 1-.5 1.5-.5-2q-3.8 1-5-1.5l6.5-1.5zm31 0l-9 10 9-10zm106 1l-2 3-1.5-.5 3.5-2.5zm-136 2l.5 2 3 .5-2.5.5-1-3zm5 1l2.5.5-2.5.5v-1zm101 0l3.5 1.5-1.5.5-2-2zm-118 2l1.5 1.5-6.5 7.5 7.5.5-9 .5 1-2.5-1-1 6.5-6.5zm119 1l.5 2.5h-1l.5-2.5zm96.5 1l6 1.5-2 1-.5-1.5-3.5 1v-2zm-2.5 1l1 2-1-2zm-108 1l9 2 3-2-2 3-10-2q-2.7 1.2-.5 2.5l-.5 1.5-1.5-2.5 2.5-2.5zm38 0l2.5 1.5-2 1 .5-1.5-1-1zm67 0l1 2-1-2zm13 0l-1 2 1-2zm-15 1l1 2-1-2zm17 0l.5 2-2-.5 1.5-1.5zm13 0l7.5.5-7.5.5v-1zm-209 1l-1 2 1-2zm91 0l.5 2.5h-1l.5-2.5zm85 0q2.3-.7 1.5 1.5l-1.5-1.5zm21.5 0l2 .5-2 1V110zm3.5 0l6.5 1.5-3.5.5-3-1v-1zm-88 1l-1 2 1-2zm61 0q3 1.5 0 3-3-1.5 0-3zm-195 1l2.5.5-2.5.5v-1zm140 0l-1 2 1-2zm83 0l.5 4.5h-1l.5-4.5zm15 0l.5 5 8 .5q-2.7 2.8-9.5 1.5l.5-1.5.5-5.5zm-221 1l-1 2 1-2zm77 0l1 2-1-2zm17 1l.5 3.5h-1l.5-3.5zm87 0l2.5.5-2.5.5v-1zm36 0l-1 2 1-2zm-220 1l-1 2 1-2zm79 0l1.5 2.5-2-1 .5-1.5zm45 0l-2 3 2-3zm55 0l.5 4.5h-1l.5-4.5zm10 0l2.5.5-2.5.5v-1zm11 0l-1 2 1-2zm-6 1l2.5.5-2.5.5v-1zm-89 1l2.5.5-2.5.5v-1zm113 0l-1 2-1.5-.5 2.5-1.5zm-223 1l-1 2 1-2zm241 0l2.5.5-4.5 1.5v-1l2-1zm5 1l-1 2-1.5-.5 2.5-1.5zm-143 1l.5 2.5h-1l.5-2.5zm124 0l-1 2 1-2zm22 0l-1 2-1.5-.5 2.5-1.5zm-167 1l1.5 3.5h-1l-.5-3.5zm169 0l1.5 3.5h-1l-.5-2.5-1.5.5 1.5-1.5zm-129 1l-2 3 2-3zm-41 1l.5 5.5h-1l.5-5.5zm144 0l-1 2 1-2zm-28 1l2.5.5-2.5.5v-1zm-106 1l8.5.5-8.5.5v-1zm111 0l4.5.5-4.5.5v-1zm36 0l2.5.5-2.5.5v-1zm-19 5l5 6-5-6zm31 0l2 1q1.3-2.2 2.5.5l-3.5-.5-1-1zm-8 2l2.5.5-2.5.5v-1zm-8 2l2.5.5-2.5.5v-1zm-152 1l.5 2 3 .5-4 .5.5-3zm148 0l1.5.5-2.5 1.5 1-2zm26 2l.5 4.5h-1l.5-4.5zm-30 1l1 2-1-2zm7 1l2.5.5-2.5.5v-1zm7 1l3.5.5-3.5.5v-1zm-12 1l1 6 1.5-.5q-1.7 4.3-3.5 1.5l-1.5-.5 2-.5.5-6zm19 0l3.5.5-3.5.5v-1zm-14 6l2.5.5-2.5.5v-1zm-10 1l2.5 1.5-1.5-.5q-2.6-.8-1.5 2.5h-1l1.5-3.5zm16 0l3.5.5-3.5.5v-1zm7 1l2.5.5-2.5.5v-1zm10 0l.5 3.5h-1l.5-3.5zm-4 1l-1 2 1-2zm-28 1l1 2-1-2zm31 4l-1 2 1-2zm-37 1q5.1-.6 6.5 2.5l-1.5-.5-5-1v-1zm-9 1l7.5 1.5-7.5 1.5q-3-1.5 0-3zm19 1l1 2-1-2zm4 0l2.5.5-2.5.5v-1zm21 0l-2 3 2-3zm-46 2l1.5 3.5h-1l-.5-3.5zm18 0l1 2-1-2zm-19 4l1.5 5 3 .5-4 .5-.5-6zm-87 1l3.5 1.5-1.5.5-2-2zm9 0l-.5 1.5-.5 1.5-.5-1.5 1.5-1.5zm118 0l-3 4 3-4zm-105 1l2.5.5-2.5.5v-1zm13 0l1 2-1-2zm-19 1l6.5 1.5-3.5.5-3-1v-1zm17 0l1 2-1-2zm75 0l2.5.5-2.5.5v-1zm-114 1q3 1.5 0 3l-2.5-1.5 1.5.5 1.5-.5-.5-1.5zm16 0l-1 2 1-2zm3 0l2.5 1.5-1.5.5-1-2zm87 0l4.5.5-4.5.5v-1zm-89.5 2l2 .5-3 2 1-2.5zm75.5 0l.5 2.5h-1l.5-2.5zm35 0l-1 2 1-2zm-131 2l1.5 2.5-2-1 .5-1.5zm48 0l1 2-1-2zm-10 1l-6 7 6-7zm9 1l-4 5 4-5zm5 0l1.5.5-2.5 1.5 1-2zm3 1l-1 2 1-2zm-51 1l1 2-1-2zm53 0l2 4q1.3-2.2 2.5.5l-2.5.5-3.5-3.5 1.5-1.5zm40 1l.5 4.5h-1l.5-4.5zm-73 3l3.5.5-3.5.5v-1zm-21 1l1 2-1-2zm34 2l-2.5 3.5 2.5 2.5 2.5.5-2.5.5q-7-3.5 0-7zm-30 1l1 2-1-2zm91 0l2.5.5-2.5.5v-1zm-42 1l2.5.5-2.5.5v-1zm-45 2l2.5.5-2.5.5v-1zm7 0l4.5.5-4.5.5v-1zm24 1l2.5.5-2.5.5v-1zm23 1l.5 1.5-1.5 3.5-.5-2-2-.5 3-.5.5-2zm-33 2l5 6-5-6zm21 2l2.5.5-2.5.5v-1zm13 0l.5 4.5h-1l.5-4.5zm-134 3h8.5v4.5l1 2v2l1 12h-1l-.5-6.5-3 1v-1q4.6 1.3 2.5-4.5l-1-3q2.5-1.5-1-3 .9-3-3.5-1.5l-3-1v-1zm-6 1l5.5 1.5-3.5.5-2-2zm-4 1l3.5 1.5-2.5.5-1-2zm116 0q2.8 1.3.5 2.5l-.5 1.5-1-2-1.5.5 2.5-2.5zM82 199l3 1.5h-2q-1.7 6.3 1 8l-2-1V199zm143.5 2l-2 3 2-3zm-110 2l3.5.5q-2.7 2.3-8.5 1.5v-1l5-1zm115 0l.5 3.5h-1l.5-3.5zm-109 1l1.5.5-3.5 1.5v-1l2-1zm4 1l-1 2-1.5-.5 2.5-1.5zm-38 1l1 2-1-2zm40 0l2.5 1.5-1.5-.5-2 1 1-2zm93 0l-2 3-2.5-.5 4.5-2.5zm-20 2l2.5 1.5-1.5.5-1-2zm-74 1l-1 2 1-2zm71 0l2.5 1.5-1.5-.5-1-1zm-107 1l1 2-1-2zm105 0l1 2-1-2zm-110 1l1 2-1-2zm38 0l-1 2 1-2zm71 1l1.5 2.5-2-1 .5-1.5zm-74 1l-1 2 1-2zm10 1v3l-2.5-1.5 2.5-1.5zm-42 1l1 2-1-2zm29 0l-1 2 1-2zm15 0q2.8 1.3.5 2.5l4.5 4.5q1.3-2.2 2.5.5l-2.5.5-5.5-5.5.5-2.5zm-6 1l-1 2 1-2zm58 0l7 1 2-1 1.5 3.5-2-1 .5-1.5-3 1q-1.2-2.3-6-1l-1 3-1.5.5q2.3 1.3-.5 2.5l-.5-2.5 1.5-1.5 1.5-.5q-2.2-1.2.5-2.5zm-94 2l4.5 2.5-2.5.5-2-3zm33 0l-1 2 1-2zm-3 2l-1 2 1-2zm72 1l1.5 2.5-2-1 .5-1.5zm31 0l-8 9 8-9zm-106 1l-1 2 1-2zm62 1l.5 2.5-1.5 1.5-.5-2.5 1.5-1.5zm-73 1l1 2-1-2zm8 0l1.5 2.5-2-1 .5-1.5zm26 0l.5 1.5-2 1 1.5-2.5zm51 1l.5 2.5h-1l.5-2.5zm5 0l2.5.5-2.5.5v-1zm-87 1l1 2-1-2zm32 1l.5 2.5-2.5.5-11.5-.5 11.5-.5 2-2zm35 0q3 1.5 0 3-3-1.5 0-3zm-2 3v3l-1.5-.5-.5 1.5-.5-1.5 2.5-2.5zm38 1l-1 2 1-2zm-19 1l-1 2-15.5-.5 15.5-.5 1-1zm16 1l-1 2 1-2zm-92 2l7.5.5-7.5.5v-1zm89 0l-1 2-5 2v-1l6-3zm-66 1l.5 2.5h-1l.5-2.5zm-26 1l2.5.5q-2.1 3.3-2.5-.5zm0 3l3 4-3-4zm27 1l.5 2.5h-1l.5-2.5zm-3 2l-1 2 1-2zm-27 2l9.5 8.5-7.5-6.5-2-2zm67 0l2.5.5-2.5.5v-1zm-74 1l3 1 3.5.5-5.5.5-1-2zm30 1l-2 3 2-3zm-42 1l.5 1.5-11 10 1 1q-4.2 2.2-2.5 4.5l-2.5-1.5-.5 6.5-.5-6.5L92.5 248zm31 0l3 4-3-4zM94 249l9 2.5-2.5 1.5-6.5-2v-2zm9.5 0l1 2-1-2zm27 1l-1 2 1-2zm-29 4l1.5 2.5-2-1 .5-1.5zm-1 3l1.5 2.5h-1l-.5-2.5zm25 0l1.5 2.5h-1l-.5-2.5zm10 1l-6 7 6-7zm-36 1l1.5 3.5h-1l-.5-3.5zm-1 3l.5 6.5-2 1 1.5-7.5zm18 0l2.5.5-2.5.5v-1zm11 3l-1 2 1-2zm-35 3l2.5.5-2.5.5v-1zm30 0l-1 2-5 2v-1l6-3zm-44 8l9.5.5-9.5.5v-1zm15 0l7.5.5-7.5.5v-1z"/><path fill="#FCFCFC" stroke="#FCFCFC" d="M33.5 40l.5 1.5-2 1 1.5-2.5zm5 0l1 2-1.5-.5 2 3-3-2 1.5-2.5zm-4 3l4.5 3.5q-2 3.5-4-1l-.5-2.5zm-1 3l1 2-1-2zm-16 2l.5 1.5-2 1 1.5-2.5zm10 0l-.5 1.5q.8 2.3-1.5 1.5l-1.5.5 3.5-3.5zm14 0l2.5 1.5-1.5.5-1-2zm29 0l1 2-1-1-2.5 1.5 2.5-2.5zm62 0l1.5 2.5-1.5-.5-1.5-.5 1.5-1.5zm5 0l1 2-2.5-.5 1.5-1.5zm3 0l2.5 1.5-2.5 1.5v-3zM9 49l2 .5-2 1V49zm41.5 0l2 1 1.5-.5-2.5 1.5-1-2zm8 0l6.5.5-6.5.5v-1zm-25 1q2.3-.7 1.5 1.5l-1 1 1.5 2.5-3.5-3.5 1.5-1.5zm14 0l1 2-1-2zm-35 1l-1 2 1-2zm6 0l1.5 3-2.5 1-.5-2.5 1.5-1.5zm117 0l3 2 4-2v2l1.5.5-1.5.5-3-1-2 1-2-3zm-83 1l4 2 1.5-.5-1.5 3.5q1.7-2-2-4-3 .5-2-1zm7 0l1 2-1-2zm69 0l2.5 1.5-1.5-.5-1-1zm-103 1q1.5 3.5 3 1l3.5 3.5q-1.2 2.8-2.5.5l-1.5.5.5 1.5q-3-1.5 0-3l1.5-.5q-1.2-2.8-2.5-.5l-2-3zm23 0l.5 2q-3-1-2 2l3.5 1 1.5-.5-.5 1.5 1.5.5-1.5.5-5-3-.5 1.5.5 1.5-3.5-4.5 3 1-1-2q1.8 1.6 3.5-1.5zm20 0l-1 2 1-2zm-53 1l.5 1.5q-2.5 1.5 1 3L15.5 60 12 57.5l.5-2.5 2 4 1.5-.5-2-3 1.5-1.5zm23 0l-1 2 1-2zm94 0l-1 2-2 1 1-2 2-1zm-55 2l-.5 1.5-.5 1.5-.5-1.5 1.5-1.5zm45 0l2.5.5-1.5 1.5-2.5-.5 1.5-1.5zm5 0l.5 2-2.5 1 2-3zm9 0l-1 2 1-2zm4 0l2.5 2.5-.5 3.5 2.5-.5-.5-1.5 2 3h-2l-4-1v2l-3.5-1.5.5-1.5 1 2 3.5-2.5-2-2 .5-2.5zm-117 1l.5 2 3 1.5-1.5-.5-3.5-1.5 1.5-1.5zm110 0l-1 2 1-2zm14 0l-1 2 1-2zm18 1l3.5 1.5-1.5-.5q-3 .5-2-1zm-123 1l2.5 1.5-1.5-.5-1-1zm24 0q4.5 2 1 4L65 61.5l1.5.5 1.5-.5-1.5-2.5z"/><path fill="#FCFCFC" stroke="#FCFCFC" d="M69.5 59l2.5 1.5q-.7-2.2 1.5-1.5l-2 3-2-3zm16 0l-.5 1.5-.5 1.5-.5-1.5 1.5-1.5zm43 0l2.5.5q-.8 2.6 2.5 1.5v1l-2 1-1-2-1 2-1-4zm25 0l3.5.5-3.5.5v-1zm-27 1l.5 1.5q-1.5 3-3 0h2l.5-1.5zm21 0l2.5.5-2.5.5v-1zm14 0l3.5 2.5.5-2.5.5 2.5-7 4 .5-2.5q1.3 2.3 2.5-.5l-.5-3.5zm-152 1l1 2-1-2zm65 0q2.3 4.3 4.5 2.5L77.5 65l-3-4zm12 0l1.5 2.5h-2L84.5 67 82 65.5l3-.5 1.5-4zm-24 1l1 3 1.5.5-1.5.5q-4.5-2-1-4zm108 0l-.5 1.5-.5 1.5-.5-1.5 1.5-1.5zm-99 1l2 3-2-3zm50 0l.5 3.5-2 1 1.5-4.5zm-105 1l2.5.5q-2.1 3.3-2.5-.5zm4 0l1.5 3.5h-1l-.5-3.5zm125 0q1.8 3.1 3.5 1.5l-1.5 1.5-2-3zm-15 1l2.5 1.5-1.5-.5-1-1zm24 0l-1 2 1-2zm19 0v3q-3-1.5 0-3zm9 0l-1 2-1.5-.5 2.5-1.5zm-125 1l2.5 1.5-1.5-.5-3.5 2.5 2.5-3.5zm10 0l-1 2 1-2zm71 0l1 2-1-2zm4 0l-1 2 1-2zm-6 1l1.5 2.5h-1l-.5-1.5-1.5.5 1.5-1.5zm20 0l-1 2 1-2zm5 0l.5 1.5-4 3 3.5-4.5zm22 0l-1 2-1.5-.5 2.5-1.5zm-156 1l1 2-1-2zm152 0l-1 2 1-2zm-162 1l1 2-1-2zm3 0l2.5 1.5-2.5 1.5v-1l1.5-.5-1.5-1.5zm120 0l1.5.5-2.5 1.5 1-2zm17 0l-1 2 1-2zm-132 1l1 2-1-2zm14 0q3.8-.7 4.5 1.5l-1.5-.5q-4 .8-3-1zm134 0l2.5.5q-2.1 3.3-2.5-.5zm-52 1l1 2-1-2zm4 0l2 3-2-3zm52 0l2.5 1 1 2.5q-1.7-1.6-3.5 1.5l-1.5-1.5q3.1-1.7 1.5-3.5zm-91 1l-1 2 1-2zm-7 1l-1 2 1-2zm112 0l-2 3-2.5-1.5 1.5.5 3-2zm-139 1q3.5 2-1 4L50 75.5h1l.5 1.5 1-3zm24 0l.5 2-2-.5 1.5-1.5zm53 0l1 2-2.5-.5 1.5-1.5zm-6 1l1 2-1-2zm41 0l3.5 1.5-1.5 4.5 1.5.5-1.5.5q-3.2-1.7.5-3.5l-2.5-3.5zm-84 1l1.5.5-2.5 1.5 1-2zm-15 1l1 2-1-2zm5 0l2.5.5-3 2 .5-2.5zm51 0l1 2-1-2zm-66 1l2.5 1.5-2 1 .5-1.5-1-1zm6 0l-1 2 1-2zm16 0l-.5 1.5.5 1.5 2.5-1.5-5 3.5-.5-2-1 2-1-2 2-1 1.5.5 1.5-2.5zm63 1l5.5.5-5.5.5v-1z"/><path fill="#FCFCFC" stroke="#FCFCFC" d="M161.5 79l2.5 1.5-1.5.5-1-2zm-74 1l.5 3.5h-1l.5-3.5zm102 0q2.8 1.3.5 2.5l-.5 1.5-.5-1.5.5-2.5zm-128 1l1 2q-2.8.7-1-2zm90 0l7.5 5.5-2.5.5-5-5-1 1-1.5-.5 2.5-1.5zm-87 1l1 2q-2.8.7-1-2zm6 1l1.5 2.5-1.5-.5-2.5-.5 2.5-1.5zm112 3l1.5.5-2.5 1.5 1-2zm-130 2v2l3-1 .5 2q-3.8 1-5-1.5l1.5-1.5zm119 0l2.5.5-9 4 .5 1.5q-3-1.5 0-3l1.5-.5-.5-1.5 2 1 3-2zm16 1q3.4-.9 1.5 4.5l-3.5 3.5-1.5-1.5q2 1.7 4-2l-.5-4.5zm-137 2l1 2-1-2zm14 1l1 2-1-2zm20 0l2.5 3.5-1.5-.5-1.5.5.5 1.5-1-1-2.5 1.5 3.5-5.5zm102 0l-1 2 1-2zm-128 1l-1 2 1-2zm-5 1l1 2-1-2zm16 0v3q-3-1.5 0-3zm-10 1l1 2-1-2zM172 95l2 .5-2 1V95zM45.5 96l4.5 1.5-3.5 1.5v-2l-1-1zm107 0q3 1.5 0 3v-3zm6 0l3 4-3-4zm-121 1l-1 2-1.5-.5 2.5-1.5zm141 0l-1 2 1-2zm-94 1l.5 2q-2.7-1.1-2 1.5 2.3 1.2-.5 2.5v-2l-1.5-.5.5-2.5q1.5 2.5 3-1zm99 0l1 2-1.5-.5-.5 1.5-1-2 2-1zm-141 1l-7 8-3.5-1.5 3.5.5 1.5-1.5-3-1 1-2-.5-1.5 3 4 1.5-1.5-1.5-2.5 3 1 2-2zm10 0l1.5.5-2.5 1.5 1-2zm3 0l1.5 2.5-2.5.5-4 2 1-2 3.5-1 .5-2zm4 0l.5 1.5-2 1 1.5-2.5zm95 0l5.5 2.5-1.5.5-2.5-1-1 8-3-.5 2-1q-1.5-3-3 0l-.5 1.5h-2l-3.5-.5q7.3-.7 10-6l1-2-2-.5-1.5 3 .5-1.5 1.5-2.5zm35.5 1l2 .5-1.5 3.5-.5-2.5V100zm-146.5 1l.5 2.5-4 1 3.5-3.5zm35 0l-2 4 2-1-1 2-5 4-.5-2.5 6.5-6.5zm85 0q2.3-.7 1.5 1.5h-3l1.5-1.5zm-139 3l1 2-1-2zm119 0l-1 2 1-2zm2 0l1 2-1-2zm24 0l2.5.5q.8 2.3-1.5 1.5l-1-2zm98 0l1 2-1-2zm17 0l3.5 1.5-1.5-.5q-3 .5-2-1zm-239 1l2.5.5q-2.1 3.3-2.5-.5zm202 0l-1 2-2 1 1-2 2-1zm5 0l1 2-1-2zm19 0l-1 2 1-2zm-98 1l2 1h2l1.5.5-1.5.5-3-1-1-1zm-96 1l-1 2 1-2zm64 0q2.3-.7 1.5 1.5h-2l-.5 1.5-.5-1.5 1.5-1.5zm122 0l-1 2 1-2zm-193 1l1.5 3.5-4-1 2.5-2.5zm89 0l-1 2 1-2zm14 0l1 2-1-2zm7 0l1.5 2.5h-1l-.5-1.5-1.5.5 1.5-1.5zm66 0l1.5.5-2.5 1.5 1-2zm7 0l2 1 2.5-1-1.5 3h-2l-1.5-.5 2-1-1.5-1.5zm13 0l-1 2-1.5-.5 2.5-1.5zm19 0l1 2-1-2zm-246 1l-1 2 1-2zm6 0l-1 2 1-2zm3 0l1 2-1-2zm88 0l1 2-1-2zm40 0l1 2-1-2zm92 0l-1 2 1-2zm5 0l2.5.5-2.5.5v-1zm-242 1l.5 1.5-3.5 2.5v-3q1.5 2.5 3-1zm43 0l-1 2 1-2z"/><path fill="#FCFCFC" stroke="#FCFCFC" d="M143.5 110h2q4.5-1 5.5 1.5l-1.5-.5-3 1h-2q-2.8.7-1-2zm10.5 0l3 1.5-.5 1.5-1-2-2 3 .5-1.5V110zm-119.5 1l-1 2 1-2zm12 0l-1 2-1.5-.5 2.5-1.5zm199 0v3h-2l-1.5-.5 3.5-2.5zm5 0l-3 4 3-4zm11 0l.5 2-2-.5 1.5-1.5zm13.5 0q5.4-1.5 7 1.5l-3.5 2.5-3.5-2.5V111zm3 1l1 2 2-1-3-1zm-212.5 0l2.5.5-1 2.5-3 1.5 2 3-2-1-.5-1.5-2 3 .5-1.5 3-4q-2.2-1.2.5-2.5zm126 0l.5 1.5-2 1 1.5-2.5zm44 0l4.5.5-3 1q-.7 2.3 1.5 1.5v1l-2-1-1 2-1.5-2.5h2l-.5-2.5zm21 0l3.5 2.5-1.5-.5-1.5.5 1.5 2.5q-2.2.8-1.5-1.5l-.5-3.5zm15 0l-1 2 1-2zm-135 1l1 2-1-2zm51 0l3.5 4.5-2 1q2.3-1.2-.5-2.5l-1.5.5.5-1.5-2.5-.5 2.5-1.5zm110 0l1 2-3 1v-1q2.5.7 2-2zm-226 1l-1 2 1-2zm72 0l-1.5 2.5.5 1.5 1.5-.5-3.5 1.5.5-1.5q-1.1-3.3 1.5-2.5l1-1zm27 0l2.5.5q-2.1 3.3-2.5-.5zm80 0l4.5 1.5-2.5.5-2-2zm37 0l-.5 1.5-.5 1.5-.5-1.5 1.5-1.5zm-260 1l-2 3 2-3zm2 0q4.5 2 1 4l-1-4zm125 0l.5 2 3 1.5-.5 2.5-1-3-2.5-1.5.5-1.5zm14 0l-1 2 1-2zm104 0l3 4-3-4zm-134 1l.5 1.5-2 1 1.5-2.5zm22 0l4.5 1.5-5 .5.5-2zm-89 1l-1 2 1-2zm166 0l-1 2-1.5-.5 2.5-1.5zm-5 1l1 2-1-2zm71 0l-1 2 1-2zm-122 1l1.5.5-3 2-.5 1.5-.5-1.5 2.5-2.5zm57 0l1.5 2.5-2-1 .5-1.5zm45 0l1 2 2.5-1.5q-3.1 1.8-1.5 3.5l-2-2-2.5 1.5 2.5-3.5zm8.5 0l2 .5-2 1V119zm-236.5 1l-1.5 2.5 2 2-1.5 1.5q1.6-1.7-1.5-3.5l2.5-2.5zm88 0l1 4-1.5-.5q.9 3-3.5 1.5l1-2q1.3 2.2 2.5-.5-2.2-1.2.5-2.5zm152 0l1 2-1.5-.5 2 3-3-2 1.5-2.5zm12 0l1 2 1.5-.5q-1.5 3-3 0l.5-1.5zm-275 1q2.3-.7 1.5 1.5l.5 1.5-2-3zm150 0l-1 2 1-2zm107 0l3.5 1.5-1.5.5-2-2zm-240 1l.5 1.5-3.5 3.5-1.5-1.5q-.7-2.2 1.5-1.5l2.5-.5.5-1.5zm192 0l2.5.5q-2.1 3.3-2.5-.5zm-83 1l.5 2-2-.5 1.5-1.5zm19 0l1.5 1.5-1.5 3.5v-2l-1.5-.5 2-1-.5-1.5zm6 0v3q-3-1.5 0-3zm63 0q2.3-.7 1.5 1.5l-1.5-1.5zm43 0l1.5 2.5-2.5 1.5v-1q2.3.8 1.5-1.5l-.5-1.5zm9 0l2.5.5-2.5.5v-1zm12 0l-2 3 2-3zm-60 1l1.5.5-2.5 1.5 1-2zm43 0l-1 2 1-2zm-14 1l5 2 1.5-.5q.8 2.3-1.5 1.5l-5.5-1 .5-2zm-230 1l-1 2 1-2zm212 0l2.5.5-2.5.5v-1zm-92 2l2.5 1.5-3.5 2.5-3.5-1.5h2q-.7-2.2 1.5-1.5l1-1zm140 0v2l1.5.5-1.5.5q-3-1.5 0-3zm-173 1l.5 3.5h-1l.5-3.5zm137 1l1 2-1-2zm-113 2l2.5 1.5-2.5 1.5v-3zm-3 1l1 2-1-2zm108 0l-1 2 1-2zm6 0l1.5 2.5-2-1 .5-1.5zm-121 2l1.5.5-2.5 1.5 1-2zm147 0v2l1.5.5-3.5 1.5v-1l1.5-.5q-2.2-1.2.5-2.5zm8 0l3.5 2.5-1.5.5q-1.7-3.1-3.5-1.5l1.5-1.5zm-164 2l3.5.5-3.5.5v-1zm-5 1l1.5 3.5h-1l-.5-3.5zm154 0l3.5 1.5-2.5.5-1-2zm13 0l-1 2-3 1v-1l4-2zm-21 2l-1 2 1-2zm30 2q2.8 1.3.5 2.5l-.5 4.5v-7zm-39 2l-1 2 1-2zm6 1v2l2-1-1 2-3-1v2l-2-3h2l2-1zm8 2l-2 3 2-3zm6 1l2 3-2.5-1 .5-2zm-12 1l.5 1.5q-1.5 3-3 0h2l.5-1.5zm16 0l3.5.5-3.5.5v-1zm7 1l2.5.5q-2.1 3.3-2.5-.5zm-28 1q2.3.8 1.5 4.5h-1l-.5-4.5zm23 0l-1 2 1-2zm-35 1l1.5 2.5h-1l-.5-2.5zm3 0l2 1 1.5-.5-3 1.5-.5 2-.5-1.5.5-2.5zm34 0l.5 2-2.5 1 2-3zm-28 1l-1 2-1.5.5 2 1-3 .5 1.5-3 2-1zm16 0l.5 1.5-3 2q2.3 1.3-.5 2.5l-1.5-.5 2-1q-2.2-1.2.5-2.5 2.5.7 2-2zm-28 1v2l2.5 1.5-1 2.5-2.5 1v-2q-2.2-.7-1.5 1.5h-1l1.5-2.5q2.6.7 1.5-2l-2-.5 2.5-1.5zm33 0q3 1.5 0 3v-3z"/><path fill="#FCFCFC" stroke="#FCFCFC" d="M282.5 155l2.5 1.5-2 1 .5-1.5-1-1zm-25 1l.5 1.5-2 1 1.5-2.5zm35 0l-1 2 1-2zm-20 2q3.8-.7 4.5 1.5l-1.5-.5q-4 .8-3-1zm-103 2l-1 2 1-2zm94.5 0l2 .5-2 1V160zm46.5 0l1 2-1-2zm-132 1l2.5 1.5-1.5.5-1-2zm4 0l1 2-1-2zm25 0l2.5 1.5-1.5-.5-1-1zm6 0l2.5 1.5-2 1 .5-1.5q-2.6-.8-1.5 2.5l.5 1.5-1.5-3.5 1.5-1.5zm93 0l-5 6 5-6zm-47 1l2.5.5q.8 2.3-1.5 1.5l-1-2zm22 0l1.5 2.5-1.5 3.5-1.5-.5 2-1-1-3 .5-1.5zm27 0l2.5 1.5-1.5.5-1-2zm-139 1l2 1 1.5-.5q-1.2 2.8-2.5.5l-1.5.5.5 1.5q-3-1.5 0-3zm6 0l2.5.5q-2.1 3.3-2.5-.5zm8 1l1 2-1-2zm5 0l3 2 1.5-.5q-1.2 2.8-2.5.5l-2-2zm12 0l-1 2 1-2zm7 0l-1 2-4.5-.5 5.5-1.5zm99 0l1.5 2.5-2 1v-2l.5-1.5zm-126 1l1.5.5-2.5 1.5 1-2zm79 1q2.3-.7 1.5 1.5l-1.5-1.5zm-78 1q3 1.5 0 3v-3zm3 0l2.5 1.5-1.5-.5-1-1zm73 0l2 3-2-3zm14 0l2.5 1.5-3 .5.5-2zm-110 1l-1 2 1-2zm12 0l1.5 2.5h-1l-.5-1.5-1 2-.5-1.5 1.5-1.5zm32 0l1.5 1.5-3.5 3.5-2 1-2.5-.5 1.5-3.5 3 2 .5-2 2-.5-.5-1.5zm95 0v3q-3-1.5 0-3zm-137 1l-1.5 2.5-.5 1.5-.5-1.5 2.5-2.5zm7 0l.5 3 2 .5-3.5 2.5-1.5-.5-.5 1.5-1.5-4.5h1l.5 2.5 1-3 1.5.5.5-2.5zm20 0l2.5.5-.5 2.5-1.5-.5 1 2h-3l.5-2.5 1.5-.5-.5-1.5zm25 0l3.5 2.5-1.5.5q-1.8-3.1-3.5-1.5l1.5-1.5zm82 0l-1 2 1-2zm-116 2l1 2-1-2zm76 0l1.5 2.5h-1l-.5-2.5zm41 0l3 2 1.5-.5-.5 2.5-4-4zm-123 1l-2 5-.5-2.5 2.5-2.5zm3 0l-1 2 1-2zm8 0l1 2q-2.8.7-1-2zm34 0l-2 3 2-3zm73 0l-1 2-1.5-.5 2.5-1.5zm-109 1l-1 2 1-2zm76 0l.5 3.5-1.5-.5-1.5-.5 2-.5.5-2zm-100 1l2.5 1.5-1 1 1.5 2.5q-1.7-3.1-3.5-1.5l1-2-.5-1.5zm18.5 0l3 1.5q-1.7-1.6-3.5 1.5l-1.5-1.5h2V174zm42.5 0l-1 2 1-2zm68 0l1 2-1-2zm-101 1l.5 2-2-.5 1.5-1.5zm11 0l-1 2 1-2zm-30 1l2.5 1.5-.5 1.5-.5-2-1.5-1zm26 0q3.5 2-1 4l-1-2q1.3 2.3 2.5-.5l-.5-1.5zm24 1l1.5 2.5q-1.2 2.7-2.5.5l-1.5-.5 2-.5.5-2zm4 0l2.5.5q-2.1 3.3-2.5-.5zm8 0l.5 2.5-1.5 1.5-4 1v-1l4.5-1.5q-2.2-1.3.5-2.5zm-25 2l-.5 1.5q.8 2.3-1.5 1.5l-3 4-.5-1.5 5.5-5.5zm72 0l1 2-1-2zm4 0l-1 2 1-2zm2 0l.5 1.5-.5 1.5 2-1-1 2-2.5-1.5 1.5-2.5zm-119 1l1.5 2.5h-2l-.5 1.5-1-2-3 2 1-2 2-1 1.5.5.5-1.5zm57 0l-1 2 1-2zm54 0l1 2-2.5-.5 1.5-1.5zm-60 1q3 1.5 0 3l-2.5-.5 2.5-2.5z"/><path fill="#FCFCFC" stroke="#FCFCFC" d="M207.5 182l-.5 1.5-.5 1.5-.5-1.5 1.5-1.5zm54 0l1.5 3.5h-3l1.5-3.5zm20 0l1 2-1-2zm-112 1l1 2-1-2zm51 0l-.5 1.5-.5 1.5-.5-1.5 1.5-1.5zm9 0l.5 1.5-2 1 1.5-2.5zm28 0l1.5 2.5h-3l1.5-2.5z"/><path fill="#FCFCFC" stroke="#FCFCFC" d="M265.5 184v3q-3-1.5 0-3zm5 0l1 2-1-2zm-54 1l-1 2-1.5-.5 2.5-1.5zm-43 1l2.5 3.5-1.5 2.5-.5-1.5v-2l-.5-2.5zm4.5 1q4.5-.8 6.5 2l1.5-.5-.5 2.5-5-3-2.5 1-1.5 3 .5-1.5 1-3.5zm28.5 0l-1 2 1-2zm24 0l-1 2 1-2zm27 0l-1 2 1-2zm5 0l-1 2 1-2zm-92 1l-1 2-1.5-.5 2.5-1.5zm2 0l.5 1.5-2 1 1.5-2.5zm19 1l1.5.5-3.5 1.5v-1l2-1zm67 0l-1 2 1-2zm-64 1l3.5 4.5-2.5 3.5.5-1.5-2-3 1-2-.5-1.5zm-106 2l2 1 1.5-.5-3.5 2.5v-3zm12 1l1.5.5-2 .5-.5 2-.5-1.5 1.5-1.5zm115 1q2.3-.7 1.5 1.5l-1.5-1.5zm-125 1l2.5 1.5-1.5-.5-1-1zm4 0l1 2-1-2zm117 0l.5 1.5-2 1 1.5-2.5zm-101 1l-.5 1.5-2.5 3.5v-3l1.5.5 1.5-2.5zm115 0l1.5 3-3-1.5 1.5-1.5zm-141 1l1 2q-2.8.7-1-2zm109 0l-1 2 1-2zm-97 1l3.5 2.5-2.5-1.5-1-1zm101 0l2.5.5q-2.1 3.3-2.5-.5zm34 0l.5 4.5h-1l.5-4.5zm-141 1l1.5 2.5h-1l-.5-2.5zm119 0l1 2-1-2zm10 0l1 2-1-2zm-134 1l-1 2 1-2zm9 0l1 2-1-2zm8 0q2.3-.7 1.5 1.5l-1.5-1.5zm8 0l2 1 1.5-.5-1 2.5-7-.5 5-1-.5-1.5zm112 0q3 1.5 0 3v-3zm-141 1l-1 2 1-2zm34 0l.5 2-2-.5 1.5-1.5zm103 0l-1 2 1-2zm-11.5 1l2 .5-2 1V202zm3.5 0l2 3 1.5-.5-.5 1.5 3 1 1.5-.5-2.5 1.5-4.5-2-.5-4zm10 0l1 3 1.5-.5-1.5 1.5q-1.7-3.1-3.5-1.5l2.5-2.5zm-130 1l2.5 1.5-.5 1.5-.5-2-1.5-1zm34 0l.5 2-2-.5 1.5-1.5zm4 0q1.5 3.5 3 1l1.5.5-3 2 1 2.5 2-.5-1-2.5 3 1.5 1 2-.5 2.5-1.5.5v2l1.5 2.5q2.3-.7 1.5 1.5l1.5 2.5q-5.7-2.9-6.5-9 2.7 1.1 2-1.5l.5-1.5-3 1-3.5-4.5.5-2.5zm-42 1h2l3.5 3.5 1 2-2-1-.5-1.5-1 2-3-5zm17 0l1.5 2.5h-1l-.5-2.5zm3 0l3.5.5-3.5.5v-1zm28 0l1 2-1-2zm-25 2l1.5 3 3 1.5q-1.7 4.2-3.5 1.5l-1.5-.5 2-.5-.5-2-3 2 1-2q2.3.8 1.5-1.5l-.5-1.5zm121 1q3 1.5 0 3v-3zm-148 1l2 3-3.5 2.5 1.5.5q1.5-3.5 3-1l2.5 1.5-.5 1.5-4-2-1 1-2.5-1.5.5-2.5q1.2 2.3 2.5-.5l-.5-2.5zm39 0l1.5 2.5-1.5 2.5-.5-1.5 1-2-.5-1.5zm-27 1l.5 2 2 .5-1.5.5-1-1-2.5 1.5 2.5-3.5zm5.5 0q3-1 2 2-3 1-2-2zm104.5 0l2.5 1.5-2 .5 2 3.5-3-2 1-2-.5-1.5zm-12 1l2.5 1.5-1.5.5-1-2zm37 1l2.5.5q-2.1 3.3-2.5-.5zm-122 1l2.5 1.5-1.5.5-1-2zm93 0l-3.5 4.5 1.5 1.5 1.5-.5q-1.7 3.3-3.5-.5-2.2.8-1.5-1.5l5.5-3.5zm2 1l2 3-2-3zm26 0l.5 1.5-2.5 3.5.5-1.5 1.5-3.5zm-112 1l-.5 1.5-.5 1.5-.5-1.5 1.5-1.5zm-9 1l3.5 1.5-4 .5.5-2zm35 1l-1 2 1-2zm38 0l2 3-2-3zm37 0l1.5.5-2.5 1.5 1-2zm-88 1l2.5.5-3 1 .5 1.5q-3-1.5 0-3zm79 0l-1 2 1-2zm21 0l-1 2 1-2zm-43 1l2 1 4.5-1-1.5 4 .5-1.5q.8-2.6-2.5-1.5h-2l-1-1zm27 0l1.5.5-2.5 1.5 1-2z"/><path fill="#FCFCFC" stroke="#FCFCFC" d="M132.5 219l1 2q1.8-2.7 3.5 1.5l-2.5.5-2-2-1.5 1.5 2 1-1.5.5-2-3 1.5.5 1.5-2.5zm10 0l1 2q-2.8.7-1-2zm34 0l2 1q1.3-2.3 2.5.5l-2.5 3.5-2.5-2.5.5-2.5zm1.5 2l1 2q1-3-1-2zm6.5-2l1 4q-4.5-2-1-4zm20 0l-1 2 1-2zm22 0l1 2-1-2zm4 0l1.5.5-2.5 1.5 1-2zm-36 1l1 2q-2.8.7-1-2zm6 0l1 2-2.5-.5 1.5-1.5zm6 0l-3 4-1.5-.5 4.5-3.5zM96 221l2 .5-2 1V221zm27.5 0l-1 2 1-2zm17 0l1 2-1-2zm-40 1l1 2-1-2zm18 0l-.5 1.5-1.5 2.5q-2.2.8-1.5-1.5h2l1.5-2.5zm7 0l-1 2 1-2zm72 0l-.5 1.5-1.5 2.5q-3.7 1-2.5-2l2.5 1 2-3zm-8 1l1 2 1.5-.5-1.5 2.5-1-4zm10 0l-1 2 1-2zm-19.5 1l3 1.5-3 1q.8 2.3-1.5 1.5l1.5-2.5V224zm-51.5 1v3q-3-1.5 0-3zm14 0l.5 2-2-.5 1.5-1.5zm27 0l2 3-2-3zm7 0l1.5.5-4.5 2.5v-1l3-2zm-60 2l5.5 1.5-3.5.5-2-2zm103 0v2l1.5.5-1.5.5q-3-1.5 0-3zm-109 1l3.5 6.5-.5 1.5 1.5.5-1.5.5q-2.7-1.2-.5-2.5l-1.5-3.5-1.5.5 1-2h-2l1.5-1.5z"/><path fill="#FCFCFC" stroke="#FCFCFC" d="M181.5 228q3 1.5 0 3-3-1.5 0-3zm41 0q2.8 1.3.5 2.5l-.5 1.5-.5-1.5.5-2.5zm-8 2l1.5.5-3 2 1.5-2.5zm-44 1l2.5 3.5-2.5 1.5q-2.7-1.2-.5-2.5l.5-2.5zm5 0l1 2q-2.8.7-1-2zm-49.5 5l5 .5-4.5 1.5-.5-2zm6.5 0l7.5.5-2 1 2 3h-1l-2.5-3.5-3 1-1-2zm40 0l1 2-1-2zm39 0l4.5 2.5q-1.7-1.6-3.5 1.5l-2.5-2.5 1.5-1.5zm-94 1l1 2-2.5-.5 1.5-1.5zm90 0l1.5.5-2 1 .5 1.5-2.5-.5 2.5-2.5zm-37 1l2 3-2-3zm-56 1l1 2-1-2zm-7 1l1 2 1.5-.5-3 1-.5 1.5-.5-1.5 1.5-2.5zm90 0l-1 2 1-2zm-80 1l3 4 2.5-1.5q-2.3 1.3.5 2.5l7-5 1 2-2.5-1 1 2.5-4 3 2.5-3.5-4.5 2 1 2.5-1.5-.5-4.5-3.5-1.5-3.5zm19 0l1 2-2.5-.5 1.5-1.5zm37 1q3.3-1.1 2.5 1.5l-1.5-.5-1-1zm16 1l2.5 1.5-1.5.5-1-2zm-54 1q3 1.5 0 3v-3zm5.5 0l2 .5-1 2 .5 1.5-1.5-4zm-35.5 1l5.5.5-5.5.5v-1zm26 0l-2 3 2-3zm2 0l.5 1.5-2 3.5-2-.5 3.5-4.5zm43 0l1 2-1-2zm5 0l-1 2-1.5-.5 2.5-1.5zm2 1l-1 2 1-2zm-72 1v2q2.3.8 1.5-1.5h1l-1.5 2.5-2.5-1.5 1.5-1.5zm-29 1q3 1.5 0 3-3-1.5 0-3zm9 0l-2 3q-2.2.8-1.5-1.5 1.8 1.6 3.5-1.5zm8 0v2l2-1 1 2h-2l-2.5-1.5 1.5-1.5zm5.5 0l2 .5-2 1V248z"/><path fill="#FCFCFC" stroke="#FCFCFC" d="M85.5 250q2.3-.7 1.5 1.5 2.8 1.7-1.5 3.5l1.5-2.5-1.5-2.5zm7 0l1.5.5-2.5 1.5 1-2zm11.5 1q3-1 2 2-3 1-2-2zm35.5 0l1.5 2.5h-1l-.5-2.5zm-45 1q3 1.5 0 3v-3zm-14 1l1 2-1-2z"/><path fill="#FCFCFC" stroke="#FCFCFC" d="M90 253l2 .5q-2 4.5-4 1h2V253zm26.5 0v3q-3-1.5 0-3zm-19 1l-1 2 1-2zm9 0l-1 2 1-2zm15 0l4.5 5.5-2-1-1.5-2.5q-2.8.7-1-2zm17 0l-1 2 1-2zm-39 1l1 2q-2.2-.7-1.5 1.5h-1l1.5-3.5zm42 0l.5 1.5-4.5 5.5 2.5-3.5 1.5-3.5zm-67 1l2.5.5-1 2q2.3 1.3-.5 2.5l-.5-2.5-.5-2.5zm7 0l1 2-2.5-.5 1.5-1.5zm5 0l-1.5 2.5 1.5 1.5 1-2 .5 1.5-1.5 3.5-1-3q-1.2 2.3-2.5-.5l3.5-3.5zm50 1l2.5.5-3 2 .5-2.5zm7 0l-.5 1.5-.5 1.5-.5-1.5 1.5-1.5zm-21 2l1 2q-1.5-2.5-3 1l-1.5-.5 3.5-2.5zm-20 1q3 1.5 0 3l-1.5-.5 2-1-.5-1.5zm-4 1l-.5 1.5-.5 1.5-.5-1.5 1.5-1.5zm16 0l1 2q-2.8.7-1-2zm27 0q2.3-.7 1.5 1.5l.5 1.5-2-3zm-2 1l1 2-2.5-.5 1.5-1.5zm-58 1l1 2q-2.8.7-1-2zm50 1l.5 1.5-3.5 2.5q-3-1.5 0-3l2.5 1 .5-2zm-45 1l1 2-1-2zm3 1l1 2-1-2zm5 1l2.5 1.5-1.5.5-1-2zm38 0l-1 2 1-2zm-9 1l1 2q1.3-2.2 2.5.5-2 3.5-4-1l.5-1.5zm-46 2l.5 3.5h-1l-1-2 1.5-1.5zm37.5 2l2 .5-1.5 2.5-.5-3zm-40.5 1l2 3 1.5-.5-3 1 1 2-2-1 1-3-.5-1.5zm36 1l-2 3-2.5-1.5 1.5-.5q1.5 2.5 3-1zm3 1v2l1.5.5-2.5 1.5-.5-2.5 1.5-1.5zm-12 1l3 2 1.5-.5q-1.7 3.3-3.5-.5l-1-1zM88 277l5 .5-4.5 1.5-.5-2zm-9.5 1l1 2-1-2z"/><path fill="#0E0E0E" stroke="#0E0E0E" d="M34.5 48l3.5 1.5-1.5-.5Q25.4 50.9 18 56.5l9.5 4.5L39 56l.5-3 3.5 1.5-2 .5 2 8 7.5-1L63 53q1.4-4-5.5-2v-1q6.7-1.7 8.5 1.5l2.5 5.5 1.5.5-4.5 1.5L54 68.5q-.7 2.3 1.5 1.5l2 1L80 65l-4-5.5 5 4q5 8 6 20l-5 13L68.5 110q-13.2 10.8-31 17L31 115.5v-3L42.5 100l1.5.5-12 12v1.5l16.5-1 2.5-1.5-3-8 1-2q-2.5-1.5 1-3l2-6.5 7-2-2-8.5 2-2-4.5-4.5-10-5-15-1L19 62.5l-3-6q7.8-5.7 18.5-8.5zM82 72l-22 6-2 4 12 4 5-1 8-9q1-5-1-4zM60 90l-7 3-3 11q14-1 23-9 2 1 1-2l-14-3z"/><path fill="#0E0E0E" stroke="#0E0E0E" d="M51.5 51l4.5.5-4.5.5v-1zm-4 1l2.5.5-2.5.5v-1zm90 2h3q1.6 4.9 7.5 5.5v2l3 4 1 7.5q7.1 1.7 9-2.5l6-10.5-4-.5 3.5-.5 1.5 1.5 1 6.5q12.7 1.7 19 10.5l1 9h-1q.8-2.6-2.5-1.5l-20 4-1.5 1.5q-1.5 4.4 1.5 3.5l19 8q5.8-3.7 5-14l.5 15.5q-3.1 11.9-11.5 18.5-15.4 12.8-40.5 15l-1-2.5v-12l4.5-10.5.5 1.5-4 11.5 16.5 1 4.5-1-2-15-2-.5 1-6.5 2 .5-1 4 2 9 1.5 1.5q15.7-.3 23.5-8.5-9.3-5.9-21-8.5v-9.5l-8.5-9.5q-4.5-4-14-3L123 70q-1.7-2.4-1-8.5l15.5-7.5zm.5 1l-12 5-2 3 15 8 11-5-5-6-4-5h-3zm31 12l-9 12v2q3-1 5 2l21-4 1-1q-7-8-18-11z"/><path fill="#0E0E0E" stroke="#0E0E0E" d="M161.5 101l-1 2-1.5-.5 2.5-1.5zm91 6l1.5.5-8.5 3.5v-1l7-3zm7 1l3.5 1.5-1.5.5-2-2zm-116 1l-1 2 1-2z"/><path fill="#0E0E0E" stroke="#0E0E0E" d="M272.5 110H284v7.5l-6 9 9.5 1.5 18.5-5.5-9-3 3.5-.5 6.5 3.5 1 8 3 5 1 13q-2.3 1.3-1 6l-8.5 10.5q-7.9 7.6-19 12l-17 7H262l-1-13.5-1-1 4.5-11.5-.5 1.5-2 10.5 23-2.5-6.5-10.5q-3.2 2.3-10 1v-1h8l1.5-1.5q-1.5-7 1.5-6.5l4.5-2.5-1-7-8.5-9.5-9-4q-14.8-.7-25.5-5.5.6-5.4-1-7.5l4.5-2v1l-2.5 1.5 13.5 3.5h5l8.5-4.5-2-1 4.5-.5v1q-3.4-.9-1.5 4.5l1.5 4.5 8.5-3.5 4-6-10.5-.5v-1zm33.5 20l-4 2-16 3-2 4 5 1 19 2 2-3-2-7-2-2zm-20 16l-7 5 6 9 12-3 11-6-22-5z"/><path fill="#0E0E0E" stroke="#0E0E0E" d="M291.5 118l4.5.5-4.5.5v-1zm-110 45l2.5 6 15.5-3h9l5 8 2.5.5-3.5.5-1-1-9 9-4.5 3.5q.5 4 5.5 3.5l22.5-5-5.5-8-3.5-1.5 1.5-.5 5.5 3 3 4.5 3 9 1 11q-3.2 19.8-17.5 28.5-14.4 11.1-36 15l-4.5-13.5 9.5-12.5-1.5 2.5-7 10 3.5 1.5h15q2.8-1.2.5-2.5l-1-8h1v2.5h5.5q11.9-3.1 20.5-9.5.8-2.6-2.5-1.5l-11-6H202l-2-7.5 3-3-1-1-5.5-6.5q-7.3-5.7-22-4l-10.5-8.5-2-6 19.5-9.5zm-1.5 2l-14 7q-3-1-2 2l9 6 12-5-2-8-3-2zm26 2l-1 1h-11l-9 2 3 11 9-1 12-11-3-2zm21 24l-21 5-4 6 17 7q8-5 10-15 1-4-2-3zm-132.5 6l4.5.5-4.5.5v-1zm-6 1l3.5.5-3.5.5v-1zm-4 1l2.5.5-3 .5 1 3.5 7.5 9.5 13-3 .5 7 8.5 1 13.5-9.5-3.5-2.5-8.5-1.5 4.5-.5 9.5 4.5q-1.5 7 1.5 6.5l6.5 5.5 2 4-2-1-5.5-6.5-4-2-14.5 9 2 5 23.5 1q1.3-2.2 2.5.5 1.2 25.2-13.5 34.5l-21 10-19 2-1-1H78v-12.5l7.5-7.5-6.5 7.5 1.5 1.5 17 5 1.5-1.5q-1.1-8.6 2.5-12.5l.5 1.5-2 5.5h18.5l8.5-3-1.5-3-13-11-5 1v-1q6.8 2.3 4.5-4.5l1.5-3.5q3 .9 1.5-3.5l-5.5-8.5q-6.2-5.3-17-6l-2.5-2.5-7-10v-7l1.5-1.5zm32.5 36l-3 6 13 11q4 1 6-2 7-4 8-14l-24-1z"/><path fill="#0E0E0E" stroke="#0E0E0E" d="M105.5 203l9.5.5-9.5.5v-1zm94 6l1.5.5-5 1.5-.5 2-.5-1.5 4.5-2.5zm-5 5l.5 2.5-2.5 1.5v-1q2.9.7 2-3zm-10 3l5.5.5-6.5 1.5 1-2zm9 2l.5 2.5h-1l.5-2.5zm-88 27l-.5 1.5-2.5 7.5-.5-2.5 3.5-6.5z"/></svg>