<svg xmlns="http://www.w3.org/2000/svg" role="img" viewBox="2.59 13.59 445.32 463.32"><title>Scala Migrations logo</title><defs><style>.cls-1{fill:#fff}</style></defs><path d="M11.844 34.65s19.632-8.72 30.493-12.172l4.746 10.3c8.81-2.449 19.708-7.04 36.263-6.335l4.205 10.414c6.51.023 14.893 2.192 18.733 9.574 3.84 7.381 7.658 21.273 8.121 23.437.462 2.164-.262 17.308-13.058 30.225A158.053 158.053 0 0 1 42.6 137.538l-9.589-19.73 18.344-20.042s6.838.235 9.33-.014l4.14-11.067s7.304-1.56 10.473-3.935l-4.804-10.57 3.807-3.359c-5.83-6.107-11.372-10.863-17.96-12.567a85.808 85.808 0 0 0-23.952-2.235L17.52 45.317z"/><path d="M14.839 35.425s6.685-3.125 12.618-5.807a89.804 89.804 0 0 1 14.858-4.59l3.859 8.793-19.149 8.334zm32.803-1.352s10.53-3.666 17.35-4.84a94.737 94.737 0 0 1 15.938-.86l-18.476 14.13-10.877 2.041zm19.192 19.656l19.055-15.385s7.477-.75 11.957 1.688a16.794 16.794 0 0 1 6.544 6.803l-32.864 9.003s-3.978-1.413-4.692-2.109zm9.399 13.548l33.348-9.389s-.215 4.289-4.796 10.642c-3.32 4.602-11.809 9.594-11.809 9.594l-20.474-5.807s4.367-2.065 3.731-5.04zm-9.922 21.07c2.917-.906 8.269-2.332 9.816-4.36l20.416 5.536c-8.659 5.81-23.692 13.548-35.341 14.624zm-31.563 29.655L52.24 99.273s6.24.082 7.05-.092c.812-.173-1.335 5.66-1.335 5.66l4.321 10.955c-6.491 1.388-26.814 2.901-27.53 2.206z" class="cls-1"/><path d="M165.11 42.21s10.635-5.413 14.166-7.081c3.529-1.666 12.498-3.526 12.498-3.526l7.802 8.002c8.099-1.546 23.956-1.759 32.437.49l.846 10.515c10.633 1.669 23.152 8.56 28.13 15.811l.384 10.879a58.988 58.988 0 0 1 2.463 7.372c.22 1.692.433 17.547-2.59 25.523-3.022 7.976-14.313 22.476-29.301 29.458-14.986 6.982-34.76 12.15-43.992 12.729l-1.52-18.926 8.876-22.283c6.937 1.233 17.812.847 19.554.22l-.216-8.773a31.155 31.155 0 0 0 3.615-.615 23.75 23.75 0 0 0 5.909-2.428l.632-12.425s-6.742-9.958-9.376-12.351c-2.635-2.394-12.736-8.583-23.759-6.967l-25.448-13.83z"/><path d="M167.486 43.05l23.117 13.744a62.068 62.068 0 0 1 15.093-7.528l-14.477-16.4c-4.875 1.874-17.638 6.248-23.733 10.183z" class="cls-1"/><path d="M200.662 40.511a77.617 77.617 0 0 1 30.207.741l-11.864 17.226c-1.568-.055-8.876.198-10.384.741l-.799-10.454zm30.938 11.07c4.14.644 19.648 5.596 27.587 15.123l-32.958 6.584c-.795-1.89-3.15-3.106-6.59-3.745zm-4.81 31.538c.468 1.303.125 4.231-1.186 5.404l30.003 12.52c4.58-4.382 9.502-13.019 4.315-24.02zm-1.31 16.405l29.184 12.186c-8.27 6.524-21.078 13.139-34.628 12.791l-4.437-20.675c2.693-.307 7.878-1.884 9.88-4.302zm-37.188 34.516c3.218.534 21.817 1.79 30.736.341l-3.848-21.7c-2.71.461-15.355.378-19.17-.384z" class="cls-1"/><path d="M335.993 129.128l-1.27-11.514c5.44-3.513 16-7.798 23.881-9.916l16.373 6.935c3.838-1.047 19.261-2.747 23.943-1.806l1.042 11.332c8.497-.313 19.987.086 32.913 5.945l.857 11.56c5.435 3.98 6.379 21.981 4.976 31.917-1.403 9.936-20.118 25.458-27.76 29.492-7.474 3.945-30.647 14.616-42.802 17.622l-2.836-21.957 4.606-16.74c2.902-.112 18.55-1.63 20.996-2.107l-.357-10.783c2.035-.432 7.496-1.868 8.386-3.214 0 0-.267-8.087-.336-8.703-.066-.616-8.896-12.755-12.664-14.838-3.767-2.082-13.106-7.505-22.86-7.262z"/><path d="M336.738 117.964l25.524 4.99c3.068-1.898 8.59-5.628 14.107-6.548l-18-7.537c-3.018.956-15.323 5.434-21.631 9.095zm42.482 10.146c1.748-1.129 8.45-2.649 10.643-2.578l7.941-11.49c-3.459-.243-16.173.535-20.545 1.953l.823.378zm11.9 8.834c2.947-.168 6.321.708 7.759 2.423l32.767-8.608c-7.314-2.628-20.213-6.356-32.652-5.922zm8.805 13.307l32.301-7.972c2.922 3.897 6.055 11.416 1.291 16.927l-33.91-4.892c.967-1.642 1.348-1.684.318-4.063zm.556 15.474l33.384 5.335c-9.29 6.201-19.272 11.33-34.432 13.001l-7.632-13.544c3.75-.797 7.645-1.992 8.68-4.792zm-32.976 33.172c4.926-.543 23.286-1.033 32.823-3.235l-8.492-14.407c-2.843.315-16.253 2.175-20.887 1.917z" class="cls-1"/><path d="M245.085 308.936l-6.503-18.29 17.137-23.52c2.08-.183 11.189.9 13.207.024l2.268-9.144a49.324 49.324 0 0 0 10.443-3.575l-3.286-10.329a35.07 35.07 0 0 0 3.739-3.544c-2.63-6.056-10.402-11.797-14.718-14-4.318-2.206-19.753-2.941-24.92-2.136l-15.809-12.088-3.515-9.751c6.802-3.675 21.388-10.97 29.182-12.914l3.63 9.461c9.084-3.946 29.125-6.412 36.505-4.338l3.314 9.836c6.596 1.935 17.119 2.403 22.51 17.579 5.39 15.172 8.295 36.226-11.115 56.172-19.41 19.947-43.017 26.362-62.07 30.557z"/><path d="M238.87 213.853a74.483 74.483 0 0 1 17.931-7.788l-5.141-14.174c-6.47 1.456-21.877 8.825-26.345 11.78zm22.641 1.499c2.34-.846 7.876-1.728 10.345-1.108l19.041-18.081a99.677 99.677 0 0 0-34.409 4.118zm13.854 8.53l19.023-17.734c5.178.627 14.265.91 21.257 14.28l-35.227 7.688c-.866-1.993-3.563-3.528-5.053-4.234zm8.185 14.433l35.57-8.457c.146 7.604-2.58 16.907-15.656 25.745l-23.306-11.08c2.22-1.64 3.894-3.496 3.393-6.208zm22.68 27.813c-9.587 5.97-25.468 13.543-38.772 14.584l4.867-21.51c2.333-.336 8.084-2.157 10.684-3.963z" class="cls-1"/><path d="M268.906 290.796c-6.093 1.291-24.946.46-28.32-.556l15.635-21.9a123.364 123.364 0 0 0 12.496.21l-3.144 12.755z" class="cls-1"/><path d="M108.55 242.653c3.768-1.319 19.216-4.71 31.086-4.898l1.507 9.608c9.985-.377 26.753 1.318 35.043 6.406l.188 9.984a27.758 27.758 0 0 1 17.333 24.682c.754 15.448-1.319 37.868-22.985 50.491-21.666 12.622-35.23 16.39-68.578 13.753l-.754-17.709 20.913-21.666c3.014 1.13 11.304 4.522 15.449 4.522l3.014-8.291c3.015.566 9.609.377 10.362-.565l.566-9.984c1.506-.754 4.33-1.405 3.956-2.826-.942-3.58-3.956-12.624-9.985-16.58a44.926 44.926 0 0 0-22.985-7.348l-14.13-19.217z"/><path d="M109.571 243.617c6.13-1.659 22.036-4.805 29.16-4.639l2.982 18.887c-5.136.332-15.077 2.154-19.219 3.81zm33.137 23.693a17.586 17.586 0 0 1 10.603 1.986l21.538-14.746c-7.124-2.65-16.402-6.129-33.467-5.963l1.657 9.278zm10.768 11.928l21.373-14.457c5.468 2.693 15.906 9.816 17.231 20.918l-34.793-.994c-.663-2.32-1.657-4.473-3.81-5.467zm19.716 39.265c6.793-3.644 19.219-10.935 19.219-23.527l-34.462-.828c0 2.32-1.325 4.639-4.804 5.799zm-21.042-8.947l20.38 18.722c-6.794 3.148-11.598 7.29-38.936 5.468l8.12-22.865c2.816 0 8.282.83 10.436-1.325z" class="cls-1"/><path d="M103.275 335.072c3.645 1.49 17.562 7.123 28.166 7.95l.166-9.94 5.467-13.917c-2.485-.828-12.095-3.479-14.746-4.804z" class="cls-1"/><path d="M20.689 444.644a7.896 7.896 0 0 0 1.483 3.987q2.021 2.402 6.928 2.402a14.893 14.893 0 0 0 4.772-.634q3.478-1.214 3.478-4.514a3.326 3.326 0 0 0-1.704-2.984 18.488 18.488 0 0 0-5.403-1.822l-4.214-.924q-6.212-1.372-8.535-2.983-3.934-2.694-3.934-8.423a11.188 11.188 0 0 1 3.849-8.687q3.85-3.459 11.306-3.458a17.337 17.337 0 0 1 10.625 3.26q4.397 3.261 4.61 9.466h-7.815a5.574 5.574 0 0 0-3.14-4.991 10.766 10.766 0 0 0-4.845-.977 9.224 9.224 0 0 0-5.143 1.268 4.01 4.01 0 0 0-1.922 3.538 3.337 3.337 0 0 0 1.895 3.115 23.528 23.528 0 0 0 5.17 1.612l6.83 1.61a17.37 17.37 0 0 1 6.731 2.825q3.48 2.747 3.48 7.947a11.167 11.167 0 0 1-4.123 8.859q-4.123 3.524-11.649 3.524-7.686 0-12.09-3.471a11.488 11.488 0 0 1-4.403-9.545zm46.813-6.443a6.672 6.672 0 0 0-1.085-2.904 4.554 4.554 0 0 0-3.943-1.743 5.192 5.192 0 0 0-5.214 3.776 15.667 15.667 0 0 0-.741 5.32 14.407 14.407 0 0 0 .74 5.082 5.032 5.032 0 0 0 5.083 3.591 4.485 4.485 0 0 0 3.758-1.426 7.084 7.084 0 0 0 1.35-3.696h7.683a12.586 12.586 0 0 1-2.484 6.495q-3.542 4.938-10.493 4.938-6.951 0-10.228-4.118-3.277-4.12-3.278-10.682 0-7.405 3.621-11.524 3.621-4.12 9.99-4.119a15.055 15.055 0 0 1 8.868 2.43q3.449 2.428 4.083 8.58zm24.258.95a11.87 11.87 0 0 0 3.005-.66 2.263 2.263 0 0 0 1.623-2.138 2.53 2.53 0 0 0-1.245-2.443 7.874 7.874 0 0 0-3.653-.673 4.797 4.797 0 0 0-3.827 1.32 5.441 5.441 0 0 0-1.071 2.641h-7.26a11.004 11.004 0 0 1 2.12-6.205q2.997-3.803 10.29-3.802a18.358 18.358 0 0 1 8.432 1.874q3.686 1.875 3.686 7.077v13.202q0 1.372.053 3.326a4.178 4.178 0 0 0 .448 2.007 2.691 2.691 0 0 0 1.11.87v1.11h-8.185a8.36 8.36 0 0 1-.476-1.637q-.133-.766-.21-1.743a15.53 15.53 0 0 1-3.613 2.878 10.916 10.916 0 0 1-5.524 1.4 9.53 9.53 0 0 1-6.493-2.23A7.934 7.934 0 0 1 78.407 449q0-5.307 4.123-7.684a18.405 18.405 0 0 1 6.65-1.847zm4.6 3.512a8.287 8.287 0 0 1-1.458.727 12.339 12.339 0 0 1-2.02.514l-1.714.317a11.294 11.294 0 0 0-3.459 1.03 3.437 3.437 0 0 0-1.777 3.194 3.34 3.34 0 0 0 1.086 2.786 4.126 4.126 0 0 0 2.64.859 7.867 7.867 0 0 0 4.545-1.426q2.078-1.427 2.158-5.202zm21.758 13.994h-7.525v-38.919h7.525zm18.739-17.506a11.881 11.881 0 0 0 3.006-.66 2.263 2.263 0 0 0 1.623-2.138 2.53 2.53 0 0 0-1.246-2.443 7.872 7.872 0 0 0-3.653-.673 4.8 4.8 0 0 0-3.828 1.32 5.441 5.441 0 0 0-1.07 2.641h-7.26a11.007 11.007 0 0 1 2.121-6.205q2.994-3.803 10.29-3.802a18.35 18.35 0 0 1 8.431 1.874q3.686 1.875 3.686 7.077v13.202q0 1.372.052 3.326a4.183 4.183 0 0 0 .45 2.007 2.682 2.682 0 0 0 1.109.87v1.11h-8.186a8.387 8.387 0 0 1-.474-1.637q-.132-.766-.211-1.743a15.536 15.536 0 0 1-3.614 2.878 10.913 10.913 0 0 1-5.523 1.4 9.533 9.533 0 0 1-6.494-2.23 7.937 7.937 0 0 1-2.562-6.325q0-5.307 4.122-7.684a18.411 18.411 0 0 1 6.65-1.847zm4.602 3.512a8.321 8.321 0 0 1-1.46.727 12.314 12.314 0 0 1-2.021.514l-1.713.317a11.303 11.303 0 0 0-3.459 1.03 3.436 3.436 0 0 0-1.777 3.194 3.337 3.337 0 0 0 1.086 2.786 4.126 4.126 0 0 0 2.64.859 7.867 7.867 0 0 0 4.545-1.426q2.077-1.427 2.158-5.202zm55.521-24.925h11.702v38.92h-7.578v-26.325q0-1.135.026-3.182t.027-3.155l-7.375 32.661h-7.905l-7.322-32.66q0 1.108.027 3.154t.026 3.182v26.324h-7.577v-38.919h11.833l7.085 30.602zm26.356 6.707h-7.63v-6.944h7.63zm-7.63 3.432h7.63v28.78h-7.63zm29.154-.027a9.042 9.042 0 0 1 4.43 4.172v-4.145h7.34v27.302q0 5.57-1.874 8.396-3.221 4.858-12.357 4.859a16.845 16.845 0 0 1-9.003-2.165 7.993 7.993 0 0 1-3.855-6.47h8.185a3.39 3.39 0 0 0 1.029 1.901 6.36 6.36 0 0 0 4.093 1.03q4.066 0 5.44-2.72a13.793 13.793 0 0 0 .897-5.861V452.3a9.177 9.177 0 0 1-2.324 2.772 9.34 9.34 0 0 1-5.835 1.716 11.039 11.039 0 0 1-8.858-3.894q-3.314-3.894-3.314-10.548a17.804 17.804 0 0 1 3.19-10.786 10.536 10.536 0 0 1 9.046-4.37 9.9 9.9 0 0 1 3.77.66zm2.563 20.635q1.815-1.993 1.814-6.35 0-4.092-1.722-6.23a5.617 5.617 0 0 0-4.614-2.14 5.44 5.44 0 0 0-5.443 3.723 13.262 13.262 0 0 0-.789 4.885 11.174 11.174 0 0 0 .842 4.462 5.483 5.483 0 0 0 5.468 3.644 5.777 5.777 0 0 0 4.444-1.994zm32.217-21.281q.146.013.647.04v7.71q-.712-.08-1.266-.106c-.37-.017-.67-.027-.899-.027q-4.54 0-6.099 2.957a11.508 11.508 0 0 0-.87 5.123v13.756h-7.579v-28.78h7.182v5.018a15.923 15.923 0 0 1 3.036-3.935 8.269 8.269 0 0 1 5.492-1.769c.14 0 .26.004.357.013zm16.456 11.947a11.87 11.87 0 0 0 3.006-.66 2.263 2.263 0 0 0 1.623-2.138 2.53 2.53 0 0 0-1.246-2.443 7.877 7.877 0 0 0-3.653-.673 4.797 4.797 0 0 0-3.827 1.32 5.441 5.441 0 0 0-1.07 2.641h-7.262a11.007 11.007 0 0 1 2.122-6.205q2.996-3.803 10.29-3.802a18.358 18.358 0 0 1 8.432 1.874q3.685 1.875 3.685 7.077v13.202q0 1.372.053 3.326a4.171 4.171 0 0 0 .45 2.007 2.685 2.685 0 0 0 1.108.87v1.11h-8.185a8.327 8.327 0 0 1-.476-1.637q-.131-.766-.21-1.743a15.531 15.531 0 0 1-3.613 2.878 10.915 10.915 0 0 1-5.523 1.4 9.533 9.533 0 0 1-6.494-2.23 7.937 7.937 0 0 1-2.563-6.325q0-5.307 4.123-7.684a18.4 18.4 0 0 1 6.65-1.847zm4.601 3.512a8.254 8.254 0 0 1-1.459.727 12.325 12.325 0 0 1-2.02.514l-1.713.317a11.294 11.294 0 0 0-3.46 1.03 3.436 3.436 0 0 0-1.776 3.194 3.337 3.337 0 0 0 1.085 2.786 4.125 4.125 0 0 0 2.641.859 7.864 7.864 0 0 0 4.544-1.426q2.079-1.427 2.158-5.202zm11.116-9.162v-5.36h4.013v-8.026h7.446v8.027h4.673v5.359h-4.673v15.209a3.418 3.418 0 0 0 .45 2.204q.448.437 2.745.437.343 0 .726-.014c.255-.009.506-.022.752-.04v5.624l-3.564.133q-5.334.183-7.287-1.849a5.504 5.504 0 0 1-1.268-3.987V433.5zm28.701-9.056h-7.631v-6.944h7.63zm-7.631 3.432h7.63v28.78h-7.63zm38.92 25.26q-3.645 4.497-11.064 4.497-7.42 0-11.062-4.497a17.853 17.853 0 0 1 0-21.62q3.643-4.564 11.062-4.564t11.064 4.565a17.856 17.856 0 0 1 0 21.619zm-6.02-4.16a13.431 13.431 0 0 0 0-13.327 6.687 6.687 0 0 0-10.153 0 13.348 13.348 0 0 0 0 13.328 6.665 6.665 0 0 0 10.152 0zm38.257-19.45q2.826 2.337 2.826 7.75v19.38h-7.71v-17.506a8.051 8.051 0 0 0-.602-3.485q-1.102-2.218-4.195-2.218a5.199 5.199 0 0 0-5.215 3.248 11.231 11.231 0 0 0-.734 4.383v15.578h-7.525v-28.726h7.287v4.197a12.764 12.764 0 0 1 2.734-3.194 9.472 9.472 0 0 1 5.863-1.743 11.031 11.031 0 0 1 7.27 2.336zm15.658 17.942a5.006 5.006 0 0 0 1.035 2.851q1.405 1.505 5.2 1.505a7.951 7.951 0 0 0 3.542-.66 2.21 2.21 0 0 0 .255-3.907q-1.059-.66-7.873-2.27-4.905-1.215-6.912-3.038a6.58 6.58 0 0 1-2.006-5.175 8.97 8.97 0 0 1 3.135-6.851q3.136-2.865 8.825-2.865a16.218 16.218 0 0 1 8.798 2.152q3.399 2.152 3.903 7.433h-7.525a4.457 4.457 0 0 0-.82-2.297q-1.245-1.533-4.237-1.533a6.096 6.096 0 0 0-3.508.767 2.202 2.202 0 0 0-1.046 1.795 1.966 1.966 0 0 0 1.112 1.875q1.112.608 7.857 2.086a14.41 14.41 0 0 1 6.74 3.194 7.255 7.255 0 0 1 2.219 5.413 8.738 8.738 0 0 1-3.188 6.984q-3.189 2.705-9.854 2.706-6.8 0-10.041-2.864a9.312 9.312 0 0 1-3.242-7.301z"/></svg>