<svg xmlns="http://www.w3.org/2000/svg" role="img" viewBox="-5.77 -1.27 534.04 157.54"><title>SeExpr logo</title><path fill="#030303" stroke="#030303" d="M489.5 11l1.5.5-2 .5-.5 5-.5-4.5 1.5-1.5zm-457 1l2.5 1.5-.5 4.5-.5-5-1.5-1zm465 0l1 2-1-2zm-472 1l-1 2 1-2zm474 2l1 2-1-2zm-476 1l-1 2 1-2zm478 2l1 2-1-2zm-480 1l-.5 1.5-1.5 2.5.5-1.5 1.5-2.5zm57 8l5.5.5-5.5.5v-1zm-8 1l2.5.5-2.5.5v-1zm19 0l2.5.5-2.5.5v-1zm121 0l55.5.5-55.5.5v-1zm-3 1l-2 3 2-3zm61 0l2 3-2-3zm-168 2l3.5 2.5-1.5-.5-2-2zm-41 1l-1 2 1-2zm-3 2l-4 5 4-5zm148 0l.5 79.5h-1l.5-79.5zm67 0l.5 3.5h-1l.5-3.5zm-165 1l2 3-2-3zm3 4l1 2-1-2zm-58 1l-.5 1.5-1.5 3.5-.5-1.5 2.5-3.5zm219 0l-2 3 2-3zm-193 1l6.5.5-6.5.5v-1zm-7 2l-1 2 1-2zm19 0l2.5 1.5-1.5-.5-1-1zm137 0l39.5.5-39.5.5v-1zm-2 1l-2 3 2-3zm-157 1l-.5 1.5-1.5 7.5-.5-5.5 2.5-3.5zm-19 1l.5 2.5h-1l.5-2.5zm450 0l.5 2.5h-1l.5-2.5zm-474 1l.5 2.5h-1l.5-2.5zm70 0l1 2-1-2zm19 0l.5 4.5-3.5 2.5v-1l2.5-1.5.5-4.5zm108 1l.5 11.5h-1l.5-11.5zm-125 2l4.5 3.5-1.5.5-3-4zm-88 1l.5 2.5H8l.5-2.5zm386 1l6.5.5-6.5.5v-1zm105 0l.5 3.5h-1l.5-3.5zm-476 1l.5 3.5h-1l.5-3.5zm127 0l2.5.5-2.5.5v-1zm14 0l2.5.5-2.5.5v-1zm126 0l8.5.5-8.5.5v-1zm42 0l6.5.5-6.5.5v-1zm34 0l4.5.5-4.5.5v-1zm78 0l4.5.5-4.5.5v-1zm30 0l4.5 2.5-.5 1.5-.5-2q-4.2 0-3.5-2zm-370 1l3.5.5-3.5.5v-1zm183 0l1.5.5-2 .5 1 4.5-2-1q-.7-3.7 1.5-4.5zm41 0l1.5.5-2.5 1.5 1-2zm13 0q2.3-.7 1.5 1.5l1 2-2.5 3.5.5-1.5 1-3-1.5-2.5zm22 0l-2 3 2-3zm24 0l1.5.5-4.5 2.5 1-2 2-1zm54 0l-2 3 2-3zm-375 1l2 3-2-3zm105 0l2.5 1.5-1.5-.5-1-1zm132 0l2 3-2-3zm72 0l5.5 3.5-2.5.5-2.5-1-.5-3zm34 0l1 2-1-2zm44 0q1.3 2.8 5.5 2.5l-3.5.5-2-3zm8 0l-1 2 1-2zm54 0l.5 3.5h-1l.5-3.5zm-508 1l.5 4.5H7l.5-4.5zm136 0l-1 2 1-2zm32 1l1 2-1-2zm150 0l-2 3 2-3zm87 0l5 6-5-6zm-342 1l2.5 1.5-1.5.5-1-2zm70 0l-5 6 5-6zm38 1l3 4-3-4zm128 0l1 2-1-2zm54 0l.5 79.5h-1l.5-79.5zm78 0l.5 54.5h-1l.5-54.5zm-216 2l2 3-2-3zm66 0l1 2-1-2zm34 0l-1 2 1-2zm178 0l.5 17.5h-1l.5-17.5zm-478 1l.5 17.5h-1l.5-17.5zm286 0l1 2-1-2zm32 0l-1 2 1-2zm137 1l.5 1.5-2 1 1.5-2.5zm-390 1l2.5.5-2.5.5v-1zm95 0l1 2-1-2zm44 0l36.5.5-36.5.5v-1zm64 0l1 2-1-2zm30 0l-4 5-2.5-.5q5.1-.4 6.5-4.5zm98 0l1 2-1-2zm-367 1l6 7-6-7zm83 0l-1 2 1-2zm130 0l2.5 1.5-1.5-.5-1-1zm46 0l2 3-2-3zm28 0l-1 2 1-2zm178 0l.5 7.5h-1l.5-7.5zm-510 1l.5 8.5H6l.5-8.5zm146 0l-1 2 1-2zm13 0l1 2-1-2zm222 0l1.5.5-8.5 6.5 5-6 2-1zm9 0q6.1 1.4 8.5 6.5l1 3h-1l-5.5-7.5q-3.7-.2-3-2zm-104 1l1 2-1-2zm-25 1l.5 2.5h-1l.5-2.5zm69 0l-2 3 2-3zm-188 2l-.5 1.5-.5 1.5-.5-1.5 1.5-1.5zm21 0l1.5 2.5h-1l-.5-2.5zm-63 1l6 7-6-7zm189 0l1 2-1-2zm-236 1l1 2-1-2zm208 0l.5 2.5h-1l.5-2.5zm66 0l-1 2 1-2zm126 0l-1 2 1-2zm-313 2l.5 2.5h-1l.5-2.5zm25 0l.5 2.5h-1l.5-2.5zm126 0l1 2-1-2zm34 1l-2 3 2-3zm-65 1l-1 2-1.5-.5 2.5-1.5zm157 0l.5 2.5h-1l.5-2.5zm-294 1l.5 2.5h-1l.5-2.5zm170 0l3.5 4.5-2-1-1.5-3.5zm-152 1l1 2-1-2zm23 0l-1 2 1-2zm18 0l.5 3.5h-1l.5-3.5zm38 0l36.5.5-36.5.5v-1zm-113 1l2.5 4.5h-1l-1.5-4.5zm111 0l-2 3 2-3zm232 0l.5 2.5h-1l.5-2.5zm59 0l.5 3.5h-1l.5-3.5zm-365 1l17.5.5-17.5.5v-1zm-143 1l.5 3.5H7l.5-3.5zm370 0l.5 8.5h-1l.5-8.5zm30 1l.5 8.5h-1l.5-8.5zm-186 1l.5 17.5h-1l.5-17.5zm82 0l.5 4.5h-1l.5-4.5zm23 0l.5 2.5h-1l.5-2.5zm98 0l.5 5.5h-1l.5-5.5zm75 0l.5 4.5h-1l.5-4.5zm-371 1l.5 5.5h-1l.5-5.5zm-105 1l.5 3.5h-1l.5-3.5zm72 0l3 4-3-4zm21 0l.5 2.5h-1l.5-2.5zm72 1l.5 1.5-3 2 2.5-3.5zm267 0l.5 27.5h-1l.5-27.5zm59 0l.5 2.5h-1l.5-2.5zm-506 1l.5 2.5H8l.5-2.5zm46 2l3.5.5-3.5.5v-1zm-6 1l2.5.5-5 3-.5 3.5-.5-3.5 3.5-3.5zm102 0l33.5.5-33.5.5v-1zm178 0l1 2-1-2zm170 0l.5 3.5h-1l.5-3.5zm15 0l.5 2.5h-1l.5-2.5zm-365 1l-1.5 2.5-.5 4.5-.5-4.5 2.5-2.5zm153 0l-1 2 1-2zm-277 1l.5 2.5h-1l.5-2.5zm306 1l2 3-2-3zm-201 1l.5 2.5h-1l.5-2.5zm170 0l-2 3 2-3zm124 0l.5 2.5h-1l.5-2.5zm-324 2l.5 1.5-5.5 6.5 3.5-4.5 1.5-3.5zm-35 1l1 2-1-2zm269 0l1 2-1-2zm-217 1l.5 2.5h-1l.5-2.5zm180 0l-1 2 1-2zm-149 1l1.5 2.5-2-1 .5-1.5zm25 1l-5 6 5-6zm7 0l2.5.5-2.5.5v-1zm156 0l1 2-1-2zm69 0l-1 2 1-2zm92 0l.5 2.5h-1l.5-2.5zm-470 1l.5 2.5h-1l.5-2.5zm157 0q3.3.8 2.5 5.5h-1q.4-4.7-1.5-5.5zm111 0l-1 2 1-2zm-225 1l1 2-1-2zm46 0l.5 1.5-4.5 6.5 1.5-2.5 2.5-5.5zm107 0l2 3-2-3zm91 0h3l4.5 4.5-4.5-3.5-4 1 1-2zm69 0l2 3-2-3zm39 0l.5 1.5-3.5 5.5.5-1.5 2.5-5.5zm-272 1l2 3-2-3zm188 0l1 2-1-2zm-45 1l-1 2 1-2zm108 0l-1 2 1-2zm-174 1l41.5.5-41.5.5v-1zm84 0l-2 3 2-3zm-261 1l1 2-1-2zm30 0l6.5.5-6.5.5v-1zm86 0l-1 2-1.5-.5 2.5-1.5zm104 0l2.5 1.5-1.5-.5-1-1zm21 1l-2 3 2-3zm50 0l1 2-1-2zm-206 1l2 3-2-3zm50 0l-1 2 1-2zm137 0l1 2-1-2zm-270 1l5 6-5-6zm221 0l.5 2.5h-1l.5-2.5zm35 0l-.5 1.5-2.5 3.5 1.5-2.5 1.5-2.5zm35 1l1 2-1-2zm75 0l-5 6 5-6zm-307 1l-1 2 1-2zm177 0l-.5 1.5-1 5.5 2 .5-1.5.5q-2.2-.7-1.5-4.5l2.5-3.5zm36 0l1 2-1-2zm-184 2l2 3-2-3zm133 0l.5 2.5h-1l.5-2.5zm-166 1l-1 2 1-2zm72 0l-1 2 1-2zm147 0l5.5 4.5-1.5.5-4-5zm-267 1l6.5 3.5-1.5.5q-4.6-1.2-5-4zm245 0l-2 3 2-3zm42 0l.5 2.5-2.5 1.5v-1q2.9.7 2-3zm34 0l3.5.5-4 .5-.5 2-.5-1.5 1.5-1.5zm-204 1l-1 2-1.5-.5 2.5-1.5zm30 0l2 3-2-3zm205 0l-1 2-3 1v-1l4-2zm29 0l2 3-2-3zm15 0l-2 3 2-3zm-183 1l-1 2-1.5-.5 2.5-1.5zm-120 2l2.5.5-2.5.5v-1zm15 0l2.5.5-2.5.5v-1zm44 0l57.5.5-57.5.5v-1zm79 0l7.5.5-7.5.5v-1zm44 0l8.5.5-8.5.5v-1zm44 0l.5 19.5h-1l.5-19.5zm67 0l5.5.5-5.5.5v-1zm-374 1l2.5.5-2.5.5v-1zm20 0l2.5.5-2.5.5v-1zm68 0l3.5.5-3.5.5v-1zm236 0l6.5.5-6.5.5v-1zm108 0l-.5 1.5-1.5 2.5.5-1.5 1.5-2.5zm-482 1l1 2-1-2zm58 0l6.5.5-6.5.5v-1zm-44 4l.5 2.5-3 2 2.5-4.5zm465 0l-2 3 2-3zm-476 1l2 3-2-3zm466 1l1 2-1-2zm-128 14l2 3-2-3zm15 0l-2 3 2-3zm-10 3l5.5.5-5.5.5v-1z"/><path stroke="#000" d="M491.5 11q5.6-.1 7.5 3.5 9.1 12.9 14 30l3 15v19l-3 16-4 12q-4.3 12.7-12.5 21.5l-5 1q-3.2-.7-2.5-5.5l5-11 5-19 1-14 1-1v-17l-1-1-1-14-5-18-5-11V12l2.5-1zm-462 1l4.5 1v5.5l-6 14-4 15-1 14-1 1v17l1 1v8l3 15 7 18 1 6q-.7 3.3-5.5 2.5l-5.5-4.5q-8.4-13.1-13-30l-3-15v-19l3-16 5-14L26.5 13l3-1zm44 16q25.4-2.4 35.5 10.5l4 7v6q-2.8 4.2-11.5 2.5L96 49.5 90.5 43l-7-2h-6l-7 2-4.5 3.5-1 7 3.5 4.5 12 5 19 5q8.8 3.3 13.5 10.5l4 10v9q-2.5 10.5-9.5 16.5-11.5 9-34 7-9.5-1.5-16-6l-6.5-6.5q-5-5-5-15 3.1-4.9 12.5-3.5l3.5 2.5 5 9.5 7.5 4 11 1 9-3 4.5-4.5 1-9-4.5-5.5-32-10L51 64.5l-3-8v-7q2.1-10.4 9.5-15.5l5-3 11-3zm135 1h59l3.5 3.5q1.8 8.8-3.5 10.5h-41l-4.5 3.5-1 2v11l3.5 4.5 2 1h37l3.5 2.5 1 4-2.5 5.5-2 1h-37l-4.5 3.5-1 2v17l3.5 4.5 2 1h42l3.5 2.5 1 4-2.5 5.5-2 1h-60l-3.5-3.5v-83l3.5-3.5zm-55 24Q174 52 182 63.5q6.6 7.9 7 22l-3.5 4.5h-35l-4.5 3.5q-.2 9.2 5.5 12.5 4 3.5 13 2l9-8h5l4 1 2.5 2.5v4l-5.5 6.5-14 6h-11l-8-2-9.5-6.5q-9.8-9.7-8-31l4-13 8.5-9.5 12-5zm1.5 12l-2 1q-6 2-7 9l1 4 4 2h17l2-1 2-3-3-9-5-3h-9zm237.5-12q19.3-1.2 25.5 10.5l3 5 3 11v14q-1.5 9.5-6 16l-6.5 6.5-9 4h-10l-10-5h-3l-2.5 4.5v21l-3.5 3.5q-10.2 2.3-12.5-3.5v-83l3.5-3.5q8.7-1.7 11.5 2.5-.7 2.3 1.5 1.5l3 1 12-6zM388 66l-2 1-6 6-3 9q-1 13 5 21l7 4q7 2 11-1l5-5 3-10v-8l-3-10-7-7h-10zm79.5-13q7.6-.9 10.5 2l1 4.5-3 7.5q-3.3 2.1-11.5 1l-6.5 5.5-3 13v29l-3.5 3.5q-10.2 2.3-12.5-3.5v-58l3.5-3.5h8l5 4h3l9-5zm-178 1q13-2.5 16.5 4.5l6.5 9.5 4 1 9.5-13q4.2-3.4 14.5-2l2.5 3.5-14 20-3 8 2 5 16 22 1 5.5q-3.9 2.4-13.5 1l-6.5-5.5-8.5-11.5h-3l-5.5 5.5-7.5 10.5q-3.8 2.7-12 1l-2.5-1 2-7.5 14-19q2.7-2.3 2-8l-16-23-1-5.5 2.5-1z"/><path fill="#9E9E9E" stroke="#9E9E9E" d="M488.5 10Q499 8 501 14.5q9.2 13.3 14 31l2 9v8l1 1v11l-1 1-1 13-6 20-8 16-5.5 5.5q-7.7 1.8-9.5-2.5v-4l8-20 3-14q-1.5-5.5 1-7v-25l-3-17-9-24v-5l1.5-1.5zm1.5 1l-2 2 1 7 7 17 4 20v26l-1 1-1 12-5 18-5 11 3 4 7-1 4-5 8-17 5-17 1-15 1-1-1-17-3-13q-5-17-14-29-2-4-9-3zM26.5 11h8l1.5 1.5v5l-9 24-2 10q1.5 5.5-1 7v25l4 21 8 20v4q-1.7 4.3-9.5 2.5l-5.5-5.5-11-24-4-17-1-19 1-1 1-14 5-16 8-16 6.5-7.5zm1.5 1l-2 1q-9 10-14 25L8 52 7 66l-1 1 1 18 3 13q5 16 13 29l5 3q6 1 7-2l-7-19-5-24V58q3-2 1-7 3-19 11-33v-4q-1-4-7-2zm48.5 14h8l14 3q8.1 2.9 12.5 9.5 5 4 4 14l-2.5 2.5-9 1-6.5-2q-1.5-5.6-6.5-9-5.1-3.4-15-2-5.7 1.3-8.5 5.5v5l4.5 4.5 30 9 11.5 8.5 5 10 1 9-4 13-7.5 8.5-14 6-16 1-11-2-9-4-8.5-8.5-5-11v-5l4.5-3.5 10-1 5.5 4.5q1.5 6.5 6.5 9.5 5.5 4.5 17 3l8.5-4 3-8.5-3.5-5.5-9-4-20-5q-8.7-3.2-14.5-9.5l-5-9q1.5-5.5-1-7l4-13 7.5-7.5 8-4 11-2zm2.5 1l-1 1-11 1-10 5q-6 4-9 13-2 12 3 19 5 6 14 10l30 9 5 8-2 7q-3 5-10 6-14 2-19-4-6-4-7-11l-4-2-9 1-4 4q1 10 6 16t13 9l15 3 18-2 13-7q5-5 7-12 3-16-4-23-5-8-14-11l-23-6-10-6 1-8 5-4 4-1q11-1 17 3l3 6 4 3 5 1 7-1 2-2q0-10-5-14l-10-8-7-2-13-1zm130.5 0h57l5.5 3.5 1 8-3.5 5.5-3 1h-40l-2.5 1q-2.4 3.9-1 13.5l1 2.5 2.5 1h37l4.5 2q2 3 1 10.5l-1 2.5-4.5 2h-37l-2.5 1-1 2.5v17l1 2.5 2.5 1h42l4.5 2q2 3 1 10.5l-1 2.5-4.5 2h-59l-5.5-3.5-1-3v-81l3.5-5.5 3-1zm1.5 1l-3 1-4 6v79l1 3 6 3h57l3-1 2-3-1-8-4-3h-42l-4-3V83l4-4h37l3-1 2-3-1-8-4-3h-37l-4-3V48l4-4h40l3-1 3-5-1-6-5-4h-55zm-54.5 23l14 2q8.4 3.6 13.5 10.5 4.5 6 6 15v10l-5.5 3.5h-34l-2.5 2.5q0 9 6.5 11.5l7 1q7.3-1.7 10-8l5-1q1.3 2.3 6 1l4.5 3.5q-.6 9.9-7.5 13.5l-7 4-15 2-13-3-10.5-8.5-6-13-1-14 2-11 4-8 8.5-8.5 6-3 9-2zm2.5 1l-11 2-7 4q-7 5-10 13l-3 14 2 16 4 8 8 7 6 3 11 2 10-1 9-4 7-7 1-5-4-4h-9l-10 8q-7 1-10-2l-6-7v-5l3-3h34l5-3q1-17-7-25l-9-8-14-3zm234.5-1l12 1 11.5 7.5 7 12 2 18q-2.7 1.8-1 8l-5 12-8.5 8.5-10 4h-8l-12-5-2.5 2.5v20l-3.5 5.5-10 1-5.5-3.5-1-3v-81l3.5-5.5 9-1 9 5 13-6zm1.5 1q-9 1-13 6h-3l-8-5-7 1-4 6v79l1 3 6 3 8-1 3-5v-20l1-3h5l11 5q11 0 18-5 6-5 9-12l3-15-2-16-5-10q-6-11-23-11zm-105.5 0l13 1 5.5 5.5 6.5 8.5 3.5-1 8.5-12q4.7-3.3 14-2l4.5 2.5v4l-16 22-1 6 18 26 1 6q-4.2 4.3-14.5 2.5l-7.5-4.5-7.5-11.5-4-1-13 16-12 1-4.5-2.5q-.7-5.7 2-8l14-19q2.7-2.3 2-8l-16-23-1-6 4.5-2.5zm1.5 1l-5 3v3l17 24-1 8-16 22-1 5 5 2q8 1 12-2l9-14 6-1 8 12 5 4 4 1q8 1 12-2l-2-6-17-24q-1-7 2-9l15-21-1-4-4-1-10 1-8 10-4 4h-3l-8-10q-4-6-15-5zm152.5-1h6l9 4q4.7-5.8 17-4l4.5 3.5 1 3-3 8-2.5 2.5-3 1q-1.3-2.2-6-1l-6.5 4.5-3 9v32l-3.5 5.5-10 1-5.5-3.5-1-3v-56l3.5-5.5 3-1zm1.5 1l-3 1-4 6v54l1 3 6 3 8-1 3-5V83l4-11q4-6 15-4 5-3 4-12l-3-3q-12-2-16 4h-4l-7-4h-4z" opacity=".996"/><path fill="#9E9E9E" stroke="#9E9E9E" d="M156.5 65q9-.5 12.5 4.5 2.7 2.3 2 8l-2.5 2.5h-19q-3.5-1-2.5-6.5l3.5-5.5 6-3zm1.5 1l-5 2-5 7q0 4 3 4h17l2-2-1-5-7-6h-4zm231.5 0h6l8.5 6.5q5.1 6.9 3 21-1.2 6.8-5.5 10.5-3.2 3.8-11 3-6.5-1.5-9.5-6.5-4.8-7.2-3-21 1.4-8.1 7.5-11.5l4-2zm1.5 1l-5 2q-5 4-7 11-2 13 3 20l9 6q6 1 9-2 5-4 6-11 2-14-3-20-3-6-12-6z" opacity=".996"/></svg>