<svg xmlns="http://www.w3.org/2000/svg" role="img" viewBox="-10.39 -9.39 800.28 210.78"><title>SeExpr logo</title><path d="M639.813 83.75c.02-22.25 10.28-46.566 27.326-69.2 3.236-4.294 7.094-7.928 13.966-8.045 6.605-.111 9.68 2.663 8.115 7.868a64.552 64.552 0 0 1-4.336 9.826c-22.22 44.705-21.053 89.3.85 133.814.638 1.294 1.358 2.566 1.885 3.89 1.311 3.282 3.677 6.969-.832 9.549-4.748 2.718-9.872 1.73-14.215-1.1a22.366 22.366 0 0 1-4.955-4.733c-16.831-20.61-28.098-51.976-27.804-81.869zm105.783.759c.118-18.217-5.81-39.828-16.185-60.704-1.068-2.15-2.19-4.29-3.093-6.489-1.355-3.3-3.337-6.993 1.258-9.47 4.497-2.427 9.311-1.476 13.595.902 3.38 1.877 5.438 4.721 7.473 7.512 36.236 49.701 33.548 99.236-1.085 148.588a22.893 22.893 0 0 1-4.656 4.941c-4.034 3.12-9.004 4.543-14.003 2.102-5.434-2.653-3.476-6.735-1.717-10.541 13.586-29.435 18.637-49.306 18.413-76.841zM64.564 156.203c-20.331-.324-40.329-4.68-52.825-23.656a48.907 48.907 0 0 1-3.397-6.15c-5.015-10.702-4.371-16.214 2.102-18.842 11.112-4.511 20.99-1.827 26.26 7.137 9.03 15.67 30.075 21.74 47.207 13.616 7.197-3.326 12.092-8.409 11.729-16.246-.346-7.427-5.885-11.47-12.802-13.61-8.943-2.763-18.119-4.9-27.222-7.216-8.859-2.256-17.695-4.616-25.63-9.004C15.713 74.338 7.838 62.877 9.043 47.287c1.174-15.225 10.175-25.958 25.34-31.517a87.188 87.188 0 0 1 61.814.332c11.965 4.198 20.879 13.597 23.78 25.076 2.087 7.555-.943 11.176-9.295 11.947-9.443.872-16.944-.848-22.639-9.252-7.791-11.5-32.27-13.709-43.455-4.904-6.5 5.118-6.206 12.645.863 17.684 5.632 4.014 12.481 5.513 19.161 7.239 10.698 2.765 21.606 4.88 31.924 8.807 20.95 7.971 31.274 22.657 29.856 42.445-1.328 18.529-14.599 32.889-35.34 38.205a109.395 109.395 0 0 1-26.486 2.854zM186.322 38.615c-27.344-3.27-49.035 12.763-54.462 40.186a79.674 79.674 0 0 0-.849 25.72c4.723 36.946 41.746 56.427 75.112 39.491a39.372 39.372 0 0 0 15.594-13.715c5.104-7.876 3.288-12.468-5.6-14.81-8.141-2.143-14.8-1.233-21.006 5.74-9.93 11.16-27.229 7.208-32.807-6.789-3.12-7.827-.309-12.74 8.214-13.205 8.05-.44 16.145-.096 24.222-.096v-.331c8.343 0 16.691.175 25.03-.057 6.377-.174 10.152-3.534 9.837-10.204-1.086-23.092-12.017-48.188-43.285-51.93zm3.995 44.324c-3.46.333-6.977.055-10.47.055v-.034a95.421 95.421 0 0 1-9.662-.055c-8.09-.826-10.858-5.758-7.126-12.806a19.683 19.683 0 0 1 34.347-.59c4.141 7.295 1.32 12.62-7.089 13.43z"/><circle cx="252.59" cy="86.667" r="13.953"/><path d="M364.617 127.879c-17.682-.215-35.37.01-53.053-.21-9.073-.113-11.525-2.698-11.899-11.608-.188-4.476-.143-8.967-.063-13.45.202-11.247 2.469-13.592 13.684-13.696 14.945-.142 29.893.09 44.831-.208 8.155-.162 11.15-3.81 10.816-11.833-.305-7.326-3.24-10.2-11.635-10.326-15.192-.227-30.388-.079-45.581-.185-4.005-.029-8.65.001-10.418-4.297a26.386 26.386 0 0 1 .022-21.078c2.469-5.505 8.439-4.39 13.314-4.428 15.941-.126 31.886.072 47.824-.15 8.967-.124 11.737-3.149 11.791-11.69.055-8.866-2.823-11.992-12.212-12.052q-37.736-.183-75.472-.045c-11.58.042-13.823 2.376-13.887 14.236-.1 18.182-.027 36.367-.027 54.549h.045c0 18.93-.13 37.862.057 56.79.088 8.885 2.588 11.756 10.846 11.821q41.099.325 82.193.002c7.912-.063 10.723-3.519 10.637-11.232-.087-7.752-3.095-10.805-11.813-10.91z"/><path d="M447.143 107.012c-8.362-12.558-8.323-14.24.214-26.853 5.597-8.27 11.264-16.493 16.663-24.9 2.399-3.735 3.606-7.801-1.886-10.14-8.9-3.792-21.109-.158-26.787 7.919-2.502 3.556-4.781 7.298-7.48 10.684-3.444 4.324-7.229 4.184-10.686-.095a30.29 30.29 0 0 1-4.282-6.355c-5.161-11.462-14.2-14.183-25.407-13.007-9.307.976-11.27 4.324-6.146 12.404 5.627 8.87 11.706 17.434 17.553 26.154 7.12 10.618 7.15 13.235.338 23.69-1.818 2.79-3.705 5.532-5.54 8.311-4.938 7.483-10.004 14.88-14.735 22.504-2.274 3.667-3.762 7.784 1.714 10.258 8.647 3.908 21.279.233 26.774-7.797 3.18-4.645 6.052-9.53 9.41-14.027 3.56-4.768 7.635-4.598 11.166.094a95.047 95.047 0 0 1 7.582 11.552c4.566 8.372 11.144 12.343 20.524 11.136l-.002.001c4.183-.707 9.677 1.433 12.22-3.505 2.553-4.958-1.768-8.716-4.164-12.45-5.532-8.63-11.365-17.05-17.043-25.578zm61.808-58.181c-5.328 2.951-9.284 3.653-14.332-.959-5.132-4.686-12.099-4.105-18.235-1.769-6.007 2.285-5.242 8.236-5.272 13.279-.103 18.445-.041 36.889-.041 55.334h.077c0 19.981-.176 39.965.078 59.943.116 9.112 3.268 11.486 13.373 11.554 10.637.073 13.666-2.314 14.028-11.706.295-7.675-.037-15.376.281-23.049.393-9.477 3.108-11.03 11.38-7 21.33 10.394 43.463 3.518 53.85-17.875a67.433 67.433 0 0 0 .453-60.196c-10.446-22.218-34.197-29.433-55.64-17.556zm31.027 64.507c-3.088 7.69-8.41 12.883-16.942 13.637a19.101 19.101 0 0 1-19.624-10.786 42.94 42.94 0 0 1-1.037-39.162 19.05 19.05 0 0 1 18.417-11.568c8.534.026 14.418 4.542 18.195 11.94 3.105 6.078 3.682 12.694 3.73 19.387a45.866 45.866 0 0 1-2.74 16.552zm98.357-64.884c-3.186-4.903-8.736-4.827-13.937-4.838a20.006 20.006 0 0 0-11.679 3.503c-5.061 3.556-9.166 3.324-14.678-.059-12.227-7.5-22.668-1.392-22.782 12.646-.098 12.097-.02 24.196-.02 36.294l.061.002c0 13.385-.059 26.77.031 40.154.03 4.464.554 8.823 5.472 10.981 12.516 5.496 22.09-.557 22.267-14.124.028-2.06-.008-4.119.015-6.178.149-13.63-.645-27.329 1.846-40.826 2.423-13.129 7.893-17.534 21.134-17.163 4.883.136 8.7-1.029 10.687-5.732 1.99-4.714 4.824-9.673 1.583-14.66z"/></svg>