<svg xmlns="http://www.w3.org/2000/svg" role="img" viewBox="-6.21 -3.71 530.92 154.92"><title>SeExpr logo</title><path d="M78.59 118.463c-12.186-.211-24.172-3.048-31.662-15.406a32.763 32.763 0 0 1-2.036-4.005c-3.006-6.97-2.62-10.56 1.26-12.271 6.66-2.938 12.581-1.19 15.74 4.648a21.091 21.091 0 0 0 28.294 8.867c4.314-2.166 7.248-5.476 7.03-10.58-.207-4.837-3.527-7.47-7.673-8.863-5.36-1.8-10.86-3.192-16.316-4.7-5.31-1.469-10.606-3.006-15.362-5.864-8.555-5.141-13.275-12.605-12.553-22.758.704-9.915 6.099-16.905 15.188-20.525a48.378 48.378 0 0 1 37.05.216 23.071 23.071 0 0 1 14.253 16.331c1.251 4.92-.565 7.278-5.571 7.78-5.66.568-10.156-.552-13.569-6.025-4.67-7.49-19.342-8.928-26.046-3.194-3.896 3.333-3.72 8.235.517 11.517 3.376 2.614 7.481 3.59 11.485 4.714 6.412 1.801 12.95 3.179 19.134 5.736 12.557 5.191 18.745 14.755 17.895 27.642-.796 12.067-8.75 21.419-21.182 24.881a60.573 60.573 0 0 1-15.875 1.859zm123.332-47.905c0-12.154-.049-24.31.018-36.464.043-7.928 1.542-9.488 9.283-9.516q25.225-.092 50.45.03c6.276.04 8.2 2.13 8.163 8.056-.036 5.71-1.888 7.732-7.882 7.815-10.654.148-21.312.016-31.968.1-3.259.026-7.25-.72-8.9 2.96a17.638 17.638 0 0 0-.015 14.09c1.182 2.873 4.287 2.853 6.964 2.872 10.156.071 20.314-.028 30.469.124 5.612.084 7.574 2.005 7.778 6.902.223 5.363-1.779 7.802-7.23 7.91-9.986.199-19.978.044-29.968.139-7.497.07-9.012 1.637-9.147 9.156-.054 2.996-.084 5.998.042 8.99.25 5.956 1.889 7.684 7.954 7.76 11.82.147 23.644-.004 35.464.14 5.827.07 7.838 2.111 7.896 7.293.058 5.156-1.821 7.466-7.11 7.508q-27.47.216-54.943-.001c-5.52-.044-7.191-1.963-7.25-7.902-.125-12.653-.038-25.308-.038-37.962zm156 24.487c0-11.988-.04-23.975.027-35.963.019-3.277-.478-7.145 3.426-8.63 3.988-1.518 8.516-1.896 11.851 1.15 3.281 2.997 5.852 2.541 9.315.623 13.936-7.719 29.372-3.03 36.161 11.41a43.826 43.826 0 0 1-.294 39.122c-6.751 13.904-21.135 18.373-34.998 11.618-5.376-2.62-7.141-1.61-7.396 4.549-.207 4.987.009 9.992-.183 14.98-.235 6.104-2.204 7.655-9.117 7.608-6.567-.044-8.616-1.587-8.691-7.509-.165-12.984-.051-25.972-.051-38.958zm46.876-11.653c-.031-4.35-.406-8.65-2.424-12.6-2.455-4.808-6.279-7.743-11.825-7.76a12.381 12.381 0 0 0-11.97 7.518 27.908 27.908 0 0 0 .674 25.452 12.414 12.414 0 0 0 12.754 7.01c5.545-.49 9.004-3.865 11.011-8.863a29.809 29.809 0 0 0 1.78-10.757zm-238.954 4.259c-4.995 0-10.001-.213-14.98.059-5.271.288-7.01 3.326-5.08 8.167 3.45 8.656 14.148 11.1 20.29 4.198 3.838-4.312 7.956-4.875 12.991-3.549 5.497 1.448 6.62 4.288 3.463 9.159a24.35 24.35 0 0 1-9.644 8.482c-20.635 10.474-43.532-1.574-46.453-24.423a49.274 49.274 0 0 1 .525-15.907c3.356-16.96 16.771-26.876 33.682-24.853 19.338 2.314 26.098 17.835 26.77 32.116.195 4.125-2.14 6.203-6.084 6.311-5.157.143-10.32.035-15.48.035zm-9.21-11.242v.021c2.16 0 4.335.172 6.475-.034 5.2-.501 6.945-3.794 4.384-8.306a12.173 12.173 0 0 0-21.242.365c-2.308 4.359-.596 7.409 4.407 7.92a59.024 59.024 0 0 0 5.976.034zm178.7 40.124c-6.256.775-10.643-1.774-13.688-7.149a60.857 60.857 0 0 0-5.057-7.416c-2.355-3.012-5.073-3.121-7.447-.06-2.24 2.887-4.155 6.023-6.276 9.005-3.665 5.155-12.09 7.514-17.857 5.005-3.652-1.588-2.66-4.231-1.143-6.585 3.155-4.894 6.534-9.643 9.827-14.447 1.224-1.784 2.483-3.544 3.695-5.336 4.543-6.711 4.524-8.391-.225-15.208-3.9-5.598-7.954-11.095-11.707-16.79-3.417-5.187-2.108-7.336 4.099-7.963 7.475-.755 13.503.992 16.945 8.35a19.42 19.42 0 0 0 2.856 4.08c2.306 2.747 4.83 2.837 7.127.061 1.8-2.174 3.32-4.576 4.989-6.859 3.787-5.185 11.929-7.518 17.865-5.084 3.663 1.502 2.858 4.112 1.258 6.51-3.601 5.397-7.38 10.676-11.113 15.985-5.694 8.097-5.72 9.177-.143 17.239 3.787 5.475 7.677 10.88 11.367 16.42 1.598 2.397 4.48 4.81 2.777 7.993-1.696 3.17-5.36 1.796-8.15 2.25zM4.02 63.307c.012-15.952 6.016-33.386 15.993-49.613 1.894-3.079 4.152-5.684 8.174-5.768 3.866-.08 5.666 1.909 4.75 5.641a52.111 52.111 0 0 1-2.538 7.045c-13.005 32.051-12.322 64.024.498 95.938.373.928.794 1.84 1.103 2.789.767 2.353 2.152 4.996-.487 6.846-2.779 1.949-5.778 1.24-8.32-.788a14.737 14.737 0 0 1-2.9-3.394C10.442 107.227 3.848 84.739 4.02 63.307zm493.797-.53c.069-13.061-3.401-28.555-9.473-43.522-.625-1.542-1.281-3.076-1.81-4.652-.793-2.366-1.953-5.014.736-6.79 2.632-1.74 5.45-1.058 7.957.647 1.978 1.346 3.183 3.385 4.374 5.386 21.208 35.633 19.635 71.147-.635 106.53a15.564 15.564 0 0 1-2.725 3.543c-2.361 2.236-5.27 3.257-8.196 1.507-3.18-1.902-2.034-4.829-1.005-7.558 7.952-21.103 10.908-35.35 10.777-55.091zM435.92 82.776c0-7.819-.05-15.638.013-23.456.074-9.073 6.822-13.02 14.724-8.173 3.562 2.186 6.215 2.336 9.486.038a12.93 12.93 0 0 1 7.548-2.264c3.361.007 6.948-.042 9.007 3.127 2.095 3.223.263 6.428-1.023 9.474-1.284 3.04-3.751 3.793-6.907 3.705-8.557-.24-12.092 2.607-13.658 11.092-1.61 8.723-1.097 17.576-1.193 26.385-.015 1.331.008 2.662-.01 3.993-.114 8.768-6.302 12.68-14.391 9.128-3.178-1.395-3.517-4.212-3.536-7.097-.058-8.65-.02-17.3-.02-25.951z"/></svg>