<svg xmlns="http://www.w3.org/2000/svg" role="img" viewBox="36.62 22.62 1527.76 455.76"><title>Slang logo</title><style>svg {enable-background:new 0 0 1600 500}</style><style/><g id="Layer_1_00000103945279519842149160000013492041312996072115_"><linearGradient id="SVGID_1_" x1="354.493" x2="395.179" y1="372.369" y2="425.31" gradientUnits="userSpaceOnUse"><stop offset="0" stop-color="#15768c"/><stop offset=".169" stop-color="#188b9d"/><stop offset=".381" stop-color="#1a9eac"/><stop offset=".598" stop-color="#1ca9b5"/><stop offset=".83" stop-color="#1cadb8"/></linearGradient><path fill="url(#SVGID_1_)" d="M235.3 419.1c42.2 28.7 91.6 38.7 136.8 23.1 51.7-17.9 85.9-65.5 96.1-123.7-34 25.2-78 49.6-127.7 69.3-36.9 14.7-72.7 25.1-105.2 31.3z"/><linearGradient id="SVGID_00000074417030740003172300000012793839770645475515_" x1="146.024" x2="305.348" y1="146.138" y2="62.682" gradientUnits="userSpaceOnUse"><stop offset=".066" stop-color="#f63"/><stop offset=".237" stop-color="#ff7133"/><stop offset=".637" stop-color="#ff8733"/><stop offset=".897" stop-color="#ff8f33"/></linearGradient><path fill="url(#SVGID_00000074417030740003172300000012793839770645475515_)" d="M360.1 76.9C320 52.8 274.4 45.1 232.5 59.6c-49.4 17.1-82.7 61.2-94.6 115.8 34-25.2 78-49.6 127.8-69.4 32.9-13.1 64.9-22.8 94.4-29.1z"/><path fill="#f63" d="M514.4 101.9c-10.3-34.3-73-42.5-154.2-25-29.5 6.3-61.5 16-94.4 29.1-49.7 19.8-93.8 44.2-127.8 69.4-50.2 37.2-78.3 76.1-69.9 104 6.9 23 38.7 34.3 83.3 32.7 44.4-1.5 101.6-15.8 159.7-43.7-69.9 15.5-122.9 13.2-121.6-7 1.9-29.6 73-85.9 179.2-125.5 15.4-5.7 29.8-10.7 43.3-14.9 45.5-14.3 80.2-20.4 102.8-18.2-.3-.3-.3-.6-.4-.9z"/><path fill="#1fbec9" d="M538.2 214.4c-7.2-23.9-41-35.1-88.2-32.5-43.7 2.4-98.7 16.6-154.7 43.5 69.9-15.5 122.9-13.2 121.6 7-1.9 29.6-73 85.9-179.2 125.5-17.9 6.7-34.5 12.3-49.9 17-42.2 12.9-74.7 18.2-96.1 16.1.1.3.1.6.2.9 9.9 32.8 67.4 41.7 143.4 27.2 32.5-6.2 68.3-16.6 105.2-31.3 49.7-19.8 93.7-44.2 127.7-69.3 50.3-37.3 78.4-76.2 70-104.1z"/><linearGradient id="SVGID_00000129885214298090835240000013745419789409584040_" x1="143.393" x2="377.069" y1="255.219" y2="144.451" gradientUnits="userSpaceOnUse"><stop offset="0" stop-color="#ed5f2f"/><stop offset="1" stop-color="#f63"/></linearGradient><path fill="url(#SVGID_00000129885214298090835240000013745419789409584040_)" d="M189.4 261.4c1.9-29.6 73-85.9 179.2-125.5 15.4-5.7 29.8-10.7 43.3-14.9-15.4-17.9-33-32.8-51.7-44.1-29.5 6.3-61.5 16-94.4 29.1-49.7 19.8-93.8 44.2-127.8 69.4-8.6 39.5-5.9 84.5 10.3 128.8 1 2.7 2 5.3 3.1 7.9 44.4-1.5 101.6-15.8 159.7-43.7-70 15.5-123 13.3-121.7-7z"/><linearGradient id="SVGID_00000069386021440980909700000004308139183728505008_" x1="192.815" x2="415.869" y1="353.33" y2="268.357" gradientUnits="userSpaceOnUse"><stop offset="0" stop-color="#1bacb5"/><stop offset=".911" stop-color="#1fbec9"/></linearGradient><path fill="url(#SVGID_00000069386021440980909700000004308139183728505008_)" d="M456.3 197.6c-2-5.3-4.1-10.5-6.4-15.7-43.7 2.4-98.7 16.6-154.7 43.5 69.9-15.5 122.9-13.2 121.6 7-1.9 29.6-73 85.9-179.2 125.5-17.9 6.7-34.5 12.3-49.9 17 14.1 17.6 30.2 32.5 47.5 44.3 32.5-6.2 68.3-16.6 105.2-31.3 49.7-19.8 93.7-44.2 127.7-69.3 6.7-37.7 3.3-79.6-11.8-121z"/></g><g id="Layer_3"><path d="M663.7 353.4c-15.8-5.2-29.5-12.5-41-21.8l25.4-35.5c18.5 14.5 40.1 21.8 64.7 21.8 12.3 0 22.1-2.1 29.4-6.2 7.3-4.2 10.9-9.9 10.9-17.1 0-6.7-3.4-12-10.1-15.8-6.7-3.8-17.5-6.5-32.2-8-28.5-3.2-49.3-9.9-62.4-20-13.2-10.1-19.9-24.7-19.9-43.5 0-12.7 3.5-24 10.7-33.6 7.2-9.8 17.2-17.3 30.1-22.7s27.9-8 44.7-8c14.5 0 28.7 2.1 42.5 6.2s26 10 36.6 17.6L770 201.1c-16.3-11.3-34.3-17.1-54-17.1-12.1 0-21.9 2-29 6-7.3 4-10.9 9.3-10.9 16.1 0 6.6 3.2 11.6 9.4 15.2 6.2 3.5 16.7 6.2 31.4 8 28.2 3.2 49.3 10.2 63.3 21.1C794.1 261.2 801 276 801 295c0 13.2-3.6 24.7-11.1 34.7-7.4 10-17.6 17.8-31 23.3-13.3 5.4-28.6 8.2-45.9 8.2-17.1 0-33.6-2.6-49.3-7.8zm163.6-205.7h46.8v208.7h-46.8V147.7zm236.3 61.4v147.4H1023l-2.9-17.6c-12.5 13.8-28.8 20.6-48.9 20.6-13.8 0-25.9-3.2-36.6-9.6-10.6-6.5-18.9-15.5-24.9-27.2-6-11.6-8.9-24.9-8.9-39.7 0-14.9 2.9-28.2 8.9-39.7 6-11.6 14.2-20.7 24.9-27.2 10.6-6.5 22.8-9.6 36.6-9.6 9.9 0 19.1 1.8 27.4 5.2 8.3 3.5 15.5 8.5 21.5 15.1l2.9-17.3h40.6v-.4zm-55.9 100.7c6.6-6.8 9.9-15.9 9.9-26.9 0-11.2-3.3-20.1-9.9-26.9-6.6-6.8-15.1-10.2-25.4-10.2s-18.7 3.5-25.2 10.5c-6.5 6.9-9.6 15.9-9.6 26.8s3.2 19.9 9.6 26.8c6.5 6.9 14.8 10.5 25.2 10.5 10.3-.4 18.8-3.8 25.4-10.6zm225.8-86.1c10.8 11.9 16.2 28.5 16.2 49.5v83.1h-46.8v-80.6c0-9.5-2.4-17.1-7.2-22.3-4.8-5.3-11.3-8-19.6-8-9.2 0-16.5 3.1-22.1 9.3-5.5 6.1-8.3 14.2-8.3 24.1v77.5h-46.8V209.1h40.6l2.9 17.3c5.8-6.6 12.7-11.6 20.7-15.2 8-3.5 16.9-5.4 26.7-5.4 18.3 0 32.8 6 43.7 17.9zm195.3 127.5c5.4 8 8.2 17.3 8.2 27.9 0 12.3-3.4 23.2-10.1 32.7-6.7 9.4-16.3 16.7-28.6 21.8-12.3 5.1-26.7 7.6-42.9 7.6-15.9 0-29.9-2.6-41.7-7.8-11.9-5.2-21.2-12.5-27.6-22.1-6.5-9.5-9.6-20.6-9.6-33 0-3.2.1-5.5.4-7.2h45c-.4 9.8 2.4 17.3 8.2 22.7 5.9 5.4 14.3 8 25.5 8 10 0 18-2.2 24.1-6.7s9.3-10.3 9.3-17.8-2.8-13.4-8.5-17.4c-5.6-4.1-13.8-6.1-24.3-6.1-16.3 0-30.6-3.1-42.8-9.3-12.2-6.1-21.6-14.8-28.3-26.1-6.7-11.2-10-24.3-10-39.2 0-14.3 3.4-27 10.2-38.3 6.8-11.2 16.3-20 28.6-26.2 12.2-6.2 26.2-9.4 41.9-9.4 12.1 0 23.3 2.4 33.4 7.2l17.3-21.5 34.3 24.7-19.6 22.9c9.9 11.3 14.9 24.8 14.9 40.6 0 10.9-2.6 21.1-7.9 30.2-5.3 9.3-12.7 16.8-22.2 22.8 9.6 4.6 17.3 11 22.8 19zm-48.2-46.7c6.4-6.4 9.5-14.8 9.5-25.4s-3.2-18.9-9.4-25.2c-6.2-6.2-14.7-9.4-25.2-9.4-10.3 0-18.7 3.2-25 9.4-6.4 6.2-9.5 14.7-9.5 25.2 0 10.3 3.2 18.7 9.5 25.2 6.4 6.5 14.7 9.6 25 9.6 10.4.3 18.7-2.9 25.1-9.4z"/><path d="M1495.8 209.3v6.6h-9.9v25.7h-7.6v-25.7h-9.8v-6.6h27.3zm33.1 0h6.8v32.3h-7.5v-20.2l-9.5 11.6h-1.5l-9.6-11.7v20.2h-7.5v-32.3h6.8l11 13.7 11-13.6z"/></g></svg>