<svg xmlns="http://www.w3.org/2000/svg" role="img" viewBox="14.07 58.82 217.36 40.61"><title>TACTIC logo</title><path stroke="#000" d="M19.5 64l.5 5 14 .5-13.5.5q-2.9-1.4-1-6zm77 0h28l.5.5V70H98v18.5h-1v-18l1.5-1.5h25l.5-4H96.5v-1zm67 0l.5 6h-14.5l-1 1 1-2H163l.5-5zm4 0l.5 30 5 .5-4.5.5-1.5-1.5.5-29.5zm14 0h28l.5.5V70h-27v18.5h-1v-18l1.5-1.5h25l.5-4h-27.5v-1zm31 0l5.5.5-3 .5-.5 5-.5-5-1.5-1zm6.5 0q2.7-1.1 2 1.5l1.5 2.5 3-4h1.5v5l-2-.5.5-1.5q-2.2-.7-1.5 1.5l-2 1-1.5-3.5-1 4-.5-6zM64.5 65l-1 2 1-2zm30 0L93 67.5l-.5 1.5-.5-1.5 2.5-2.5zm85 0l-1.5 2.5-.5 1.5-.5-1.5 2.5-2.5zm-117 3l-1 2 1-2zM39 69l15 .5-14 .5-.5 24-.5-25zm35.5 0l1 2-1-2zm55 0h13l1.5 1.5-.5 23.5-.5-24h-13.5v-1zm-62 1l-1 2 1-2zm-7 1l-1 2 1-2zm16 1l1 2-1-2zm-11 1l-1 2 1-2zm6 1l1 2-1-2zm-14 1l-1 2 1-2zm21 0l1 2-1-2zm-15 1l-1 2 1-2zm-8 2l-1 2 1-2zm11 0l-1 2 1-2zm14 0l1 2-1-2zm-20 2l-1 2 1-2zm-7 1l-1 2 1-2zm29 0l1 2-1-2zm-24 2l-1 2 1-2zm19 0l1 2-1-2zm-26 1l-1 2 1-2zm34 1l1 2-1-2zm-29 1l-1 2 1-2zm23 0l1 2-1-2zm8 2l1 2-1-2zm-33 1l-1 2 1-2zm70 0l.5 4.5-1.5 1.5h-26v-1h26l1-5zm85 0l.5 6-28-.5 27-.5.5-5zm-127 1l1 2-1-2zm-36 1l-1 2 1-2zm43 0l1 2-1-2zm-37 1l-1 2 1-2zm41 0l1 2-1-2zm85 0l2.5 1.5-1.5.5-1-2z" opacity=".757"/><path stroke="#000" d="M20 64h33.5l.5 5H39v24.5l-5 .5V69H20v-5zm45 0q5.4-1.5 7 1.5l19 28-5.5.5-8-11h-13l-.5-1.5q2-5 10-4L68.5 70 66 71.5 50.5 94l-5.5-.5L65 64zm65.5 0h32l.5 5h-13.5l-1.5 1.5 1 1V94l-5-.5v-23l-1.5-1.5H129q-1-3.8 1.5-5zm37.5 0l5 .5V94l-5-.5V64zm-72.5 1h28l.5 4H98.5L97 70.5V89h26.5l.5 5H95.5L93 91.5l-1-2v-20l3.5-4.5zm85 0h28l.5 4h-25.5l-1.5 1.5V89h26.5l.5 5h-27.5l-3.5-2.5-1-3v-19l3.5-4.5z" opacity=".996"/></svg>