<svg xmlns="http://www.w3.org/2000/svg" role="img" viewBox="-3.75 4.25 507.00 92.00"><title>TACTIC logo</title><path d="M454.509 14.822v13.185h-1.604l-57.839.001c-.516 0-1.032 0-1.547.025-2.386.12-3.313 1.055-3.314 3.407q-.01 19.209.001 38.418c.003 2.523.987 3.476 3.498 3.477h60.762v13.233h-1.498q-29.694 0-59.387-.022a26.82 26.82 0 0 1-5.164-.5c-6.618-1.318-10.504-5.625-11.195-12.312a45.842 45.842 0 0 1-.241-4.63c-.02-12.102-.043-24.205.016-36.307a35.283 35.283 0 0 1 .624-6.982c1.322-6.35 5.884-10.17 12.569-10.743a64.778 64.778 0 0 1 5.475-.24q28.427-.025 56.854-.01zm-200.464 0v13.185h-1.723l-57.702.001c-.563 0-1.126.002-1.687.035-2.272.132-3.184 1.084-3.186 3.385q-.01 19.21.001 38.42c.002 2.53.984 3.486 3.489 3.486q29.484.002 58.968.001h1.8v13.233h-1.49q-29.695 0-59.39-.017a25.961 25.961 0 0 1-4.755-.401c-7.081-1.336-11.125-5.954-11.615-13.178a71.717 71.717 0 0 1-.143-4.778c-.011-11.775-.034-23.55.018-35.324a35.818 35.818 0 0 1 .554-6.85c1.307-6.519 5.79-10.358 12.529-10.947a61.996 61.996 0 0 1 5.334-.24q28.5-.026 56.998-.011zm-77.779 71.227c-5.235 0-10.246.027-15.256-.045-.458-.007-1.033-.559-1.34-1.005q-8.089-11.758-16.096-23.571a2.725 2.725 0 0 0-2.59-1.406c-10.273.06-20.546.034-30.819.034h-1.687a6.773 6.773 0 0 1 .428-.944c2.514-3.733 5.065-7.44 7.538-11.199a2.227 2.227 0 0 1 2.169-1.113c4.87.054 9.74.024 14.97.024L120.66 27.982c-1.88 2.727-3.674 5.317-5.458 7.914Q98.408 60.356 81.64 84.832a2.506 2.506 0 0 1-2.393 1.244c-4.268-.062-8.537-.025-12.806-.025H64.85c.342-.574.548-.97.8-1.336q23.85-34.708 47.694-69.42a2.024 2.024 0 0 1 1.915-1.064c3.61.068 7.224-.01 10.834.067a2.395 2.395 0 0 1 1.696.85q24.074 35.065 48.07 70.186c.1.148.179.312.407.715zm169.35-58.224h-34.5v58.118h-13.29V27.867h-33.742V14.715h81.532zM53.216 86H40.021V27.885H6.249V14.724h81.466v13.112H53.216zm314.802.84h-13.101V16.549c.015-2.29.015-2.29 2.254-2.29h10.51c.56 1.263.857 68.183.337 72.583zm125.86-59.32h-2.203v-9.788l-.365-.099c-.669 1.241-1.346 2.479-2.005 3.725q-1.247 2.359-2.47 4.73c-.427.824-.736 1.594-2 1.55-1.183-.04-1.34-.843-1.704-1.544-1.533-2.947-3.038-5.908-4.76-8.847v10.218h-2.254V14.728c.8 0 1.588.063 2.361-.016a1.603 1.603 0 0 1 1.825 1.107c1.527 3.204 3.147 6.364 4.797 9.668l4.115-7.942c.065-.125.122-.253.185-.379 1.347-2.643 1.347-2.643 4.478-2.34zm-26.584-.03h-2.648V16.369h-6.042l-.088-1.526h14.9v1.456h-6.122z"/></svg>