<svg xmlns="http://www.w3.org/2000/svg" role="img" viewBox="-3.76 -1.76 351.26 145.26"><title>Tangent Animation logo</title><path d="M62 25h1v1h-1zm18 31h1v1h-1zm10 3h1v1h-1zm10 3h1v1h-1z" fill="#f78f6b"/><path d="M73 30h1v1h-1zm9 4h1v1h-1zm16 7h1v1h-1zM84 57h1v1h-1zm10 3h1v1h-1zm-32 61h1v1h-1zm-2 1h1v1h-1z" fill="#faae94"/><path d="M54 6h1v1h-1zm-7 4h1v1h-1zm-7 4h1v1h-1zm-7 4h1v1h-1zm-12 7h1v1h-1zm-7 4h1v1h-1zM3 40h1v60H3zm0 60h1v1H3zm19 16h1v1h-1zm5 3h1v1h-1zm22 13h1v1h-1zm5 3h1v1h-1z" fill="#de5126"/><g fill="#e1e2e3"><path d="M58 25h1v96h-1zm-2 1h2v94h-2z"/><path d="M54 27h4v92h-4z"/><path d="M52 28h6v90h-6z"/><path d="M49 29h9v87h-9z"/><path d="M47 30h11v22H47z"/><path d="M45 31h13v21H45z"/><path d="M42 32h16v20H42z"/><path d="M40 33h18v19H40z"/><path d="M38 34h20v18H38z"/><path d="M36 35h22v17H36z"/><path d="M33 36h25v16H33z"/><path d="M31 37h27v15H31z"/><path d="M29 38h29v14H29z"/><path d="M26 39h32v13H26z"/><path d="M24 40h34v12H24z"/><path d="M22 41h36v11H22z"/><path d="M20 42h38v10H20z"/><path d="M18 43h40v9H18zm0 9h40v1H18zm0 1h27v1H18zm27 0h1v1h-1zm3 0h10v62H48zm-30 1h24v1H18zm24 0h1v1h-1zm-24 1h21v1H18zm21 0h1v1h-1zm-21 1h17v1H18zm17 0h1v1h-1zm-17 1h14v1H18zm14 0h1v1h-1zm-14 1h11v1H18zm11 0h1v1h-1zm-11 1h7v1h-7zm7 0h1v1h-1zm-7 1h4v1h-4zm4 0h1v1h-1zm-4 1h1v1h-1zm1 0h1v1h-1zm29 54h10v1H48zm1 1h9v1h-9zm2 1h7v1h-7zm1 1h6v1h-6zm2 1h4v1h-4zm2 1h2v1h-2zm2 1h1v1h-1z"/></g><path d="M56 25h1v1h-1zm-9 4h1v1h-1zm-16 7h1v1h-1zm-6 24h1v1h-1zm29 60h1v1h-1z" fill="#d36f55"/><path d="M56 5h1v1h-1zM26 22h1v1h-1zM7 33h1v1H7zm-1 1h1v1H6zm-1 1h1v1H5zm5 74h1v1h-1zm22 13h1v1h-1z" fill="#df5126"/><path d="M42 13h1v1h-1zm-7 4h1v1h-1zM16 28h1v1h-1zm-7 4h1v1H9zm-5 5h1v1H4zm2 69h1v1H6zm28 17h1v1h-1z" fill="#dd5026"/><path d="M32 36h1v1h-1zm8 19h1v1h-1z" fill="#dbb3a8"/><path d="M93 39h1v1h-1zM71 53h1v1h-1zm7 2h1v1h-1zm10 3h1v1h-1zm10 3h1v1h-1zm-31 57h1v1h-1z" fill="#fccdbc"/><path d="M55 6h1v1h-1zm-14 8h1v1h-1zM15 29h1v1h-1zM5 36h1v1H5zm-1 2h1v1H4zm24 81h1v1h-1z" fill="#d44c25"/><path d="M60 24h1v1h-1zm7 3h1v1h-1zm9 4h1v1h-1zm7 3h1v1h-1zm9 4h1v1h-1zm-6 20h1v1h-1zm10 3h1v1h-1zm-28 57h1v1h-1z" fill="#f57043"/><path d="M51 27h1v1h-1zm-7 3h1v1h-1zm-9 4h1v1h-1zm-9 4h1v1h-1zm-7 3h1v1h-1zm20 15h1v1h-1zm-10 3h1v1h-1zm-10 3h1v1h-1zm29 55h1v1h-1zm2 1h1v1h-1z" fill="#cf5331"/><path d="M53 27h1v1h-1zm-7 3h1v1h-1zm-9 4h1v1h-1zm-7 3h1v1h-1zm-9 4h1v1h-1zm12 16h1v1h-1zm-10 3h1v1h-1zm25 56h1v1h-1zm9 5h1v1h-1z" fill="#dfcfcc"/><path d="M59 5h1v1h-1zm0 131h1v1h-1z" fill="#df5226"/><path d="M64 26h1v1h-1zm7 3h1v1h-1zm9 4h1v1h-1zm7 3h1v1h-1zm9 4h1v1h-1zM77 55h1v1h-1zm10 3h1v1h-1zm10 3h1v1h-1zm-33 59h1v1h-1z" fill="#f89979"/><path d="M58 24h1v1h-1zm-9 4h1v1h-1zm-7 3h1v1h-1zm-9 4h1v1h-1zm-16 7h1v1h-1zm25 13h1v1h-1zm-10 3h1v1h-1zm-10 3h1v1h-1zm30 58h1v1h-1z" fill="#d05c3d"/><path d="M63 26h1v1h-1zm9 4h1v1h-1zm7 3h1v1h-1zm9 4h1v1h-1zM72 53h1v1h-1zm10 3h1v1h-1zm10 3h1v1h-1zm-29 61h1v1h-1z" fill="#feebe5"/><path d="M65 27h1v1h-1zm9 4h1v1h-1zm7 3h1v1h-1zm9 4h1v1h-1zm7 3h1v1h-1zM79 55h1v1h-1zm-9 61h1v1h-1zm-9 5h1v1h-1z" fill="#fef5f2"/><path d="M51 28h1v1h-1zm-7 3h1v1h-1zm-9 4h1v1h-1zm-7 3h1v1h-1zm-9 4h1v1h-1zm27 11h1v1h-1zm-10 3h1v1h-1zm-10 3h1v1h-1zm24 58h1v1h-1z" fill="#e0d9d8"/><path d="M53 7h1v1h-1zM34 18h1v1h-1zm-7 4h1v1h-1zm-7 4h1v1h-1zM8 33h1v1H8zm3 76h1v1h-1zm5 3h1v1h-1zm17 10h1v1h-1zm5 3h1v1h-1zm5 3h1v1h-1zm12 7h1v1h-1z" fill="#d54d26"/><path d="M39 15h1v1h-1zm-7 4h1v1h-1zm-7 4h1v1h-1zm1 95h1v1h-1zm5 3h1v1h-1zm22 13h1v1h-1z" fill="#d84e26"/><path d="M85 35h1v1h-1zm16 7h1v1h-1zM73 54h1v1h-1zm10 3h1v1h-1zm10 3h1v1h-1zm-22 56h1v1h-1z" fill="#f67b50"/><path d="M70 29h1v1h-1zm25 11h1v1h-1zM75 54h1v1h-1zm10 3h1v1h-1zm10 3h1v1h-1z" fill="#fde1d7"/><path fill="#efdad4" d="M59 122h1v1h-1z"/><path d="M28 21h1v1h-1zM5 105h1v1H5zm2 2h1v1H7zm5 3h1v1h-1zm5 3h1v1h-1zm22 13h1v1h-1zm18 10h1v1h-1z" fill="#dd5126"/><path d="M58 5h1v1h-1zm-14 7h1v1h-1zm-7 4h1v1h-1zm-7 4h1v1h-1zM11 31h1v1h-1zm-7 72h1v1H4zm10 8h1v1h-1zm5 3h1v1h-1zm5 3h1v1h-1zm17 10h1v1h-1zm5 3h1v1h-1zm12 6h1v1h-1z" fill="#db4f26"/><path d="M48 10h1v1h-1zm-12 7h1v1h-1zm-7 4h1v1h-1zm-7 4h1v1h-1zM4 102h1v1H4zm9 8h1v1h-1zm5 3h1v1h-1zm5 3h1v1h-1zm17 10h1v1h-1zm5 3h1v1h-1zm5 3h1v1h-1z" fill="#d24b25"/><path d="M69 28h1v1h-1zm9 4h1v1h-1zm16 7h1v1h-1zM71 54h1v61h-1zm0 61h1v1h-1zm-5 4h1v1h-1z" fill="#f7855e"/><path fill="#e4a492" d="M59 24h1v1h-1z"/><path d="M65 26h1v1h-1zm9 4h1v1h-1zm7 3h1v1h-1zm9 4h1v1h-1zm9 4h1v1h-1zM76 55h1v1h-1zm-6 62h1v1h-1zm-9 5h1v1h-1z" fill="#f56635"/><path d="M18 42h1v1h-1zm26 12h1v1h-1zm-10 3h1v1h-1zm-10 3h1v1h-1z" fill="#d99f90"/><g fill="#f45c28"><path d="M60 5h1v1h-1zm1 0h1v1h-1zm1 0h1v1h-1zm-2 1h2v17h-2zm2 0h1v18h-1zm1 0h1v1h-1zm1 0h1v1h-1zm-1 1h1v18h-1zm1 0h1v18h-1zm1 0h1v1h-1zm1 0h1v1h-1zm-1 1h1v17h-1zm1 0h1v18h-1zm1 0h1v1h-1zm1 0h1v1h-1zm-1 1h1v17h-1zm1 0h1v1h-1zm1 0h1v1h-1zm1 0h1v1h-1zm-2 1h1v17h-1zm1 0h1v17h-1zm1 0h1v1h-1zm1 0h1v1h-1zm-1 1h1v17h-1zm1 0h1v17h-1zm1 0h1v1h-1zm1 0h1v1h-1zm-1 1h1v17h-1zm1 0h1v17h-1zm1 0h1v1h-1zm1 0h1v1h-1zm-1 1h1v16h-1zm1 0h1v1h-1zm1 0h1v1h-1zm-1 1h1v16h-1zm1 0h1v16h-1zm1 0h1v1h-1zm1 0h1v1h-1zm-1 1h1v16h-1zm1 0h1v16h-1zm1 0h1v1h-1zm1 0h1v1h-1zm-1 1h1v16h-1zm1 0h1v16h-1zm1 0h1v1h-1zm1 0h1v1h-1zm-1 1h1v15h-1zm1 0h1v1h-1zm1 0h1v1h-1zm-1 1h1v15h-1zm1 0h1v15h-1zm1 0h1v1h-1zm1 0h1v1h-1zm-1 1h1v15h-1zm1 0h1v15h-1zm1 0h1v1h-1zm1 0h1v1h-1zm-1 1h1v15h-1zm1 0h1v15h-1zm1 0h1v1h-1zm1 0h1v1h-1zm-1 1h1v15h-1zm1 0h1v1h-1zm1 0h1v1h-1zm-1 1h1v14h-1zm1 0h1v14h-1zm1 0h1v1h-1zm1 0h1v1h-1z"/><path d="M60 23h32v1H60zm32 0h1v14h-1zm1 0h1v1h-1zm1 0h1v1h-1z"/><path d="M61 24h33v1H61zm33 0h1v14h-1zm1 0h1v1h-1zm1 0h1v1h-1z"/><path d="M63 25h32v1H63zm32 0h1v14h-1zm1 0h1v1h-1zm1 0h1v1h-1z"/><path d="M66 26h31v1H66zm31 0h1v14h-1zm1 0h1v1h-1zm1 0h1v1h-1z"/><path d="M68 27h31v1H68zm31 0h1v13h-1zm1 0h1v1h-1zm1 0h1v1h-1z"/><path d="M70 28h30v1H70zm30 0h1v13h-1zm1 0h1v1h-1zm1 0h1v1h-1zm1 0h1v1h-1z"/><path d="M72 29h30v1H72zm30 0h1v82h-1zm1 0h1v1h-1zm1 0h1v1h-1z"/><path d="M75 30h29v1H75zm29 0h1v80h-1zm1 0h1v1h-1zm1 0h1v1h-1z"/><path d="M77 31h29v1H77zm29 0h1v78h-1zm1 0h1v1h-1zm1 0h1v1h-1z"/><path d="M79 32h28v1H79zm28 0h1v76h-1zm1 0h1v1h-1zm1 0h1v1h-1z"/><path d="M82 33h27v1H82zm27 0h1v74h-1zm1 0h1v1h-1zm1 0h1v1h-1z"/><path d="M84 34h27v1H84zm27 0h1v72h-1zm1 0h1v1h-1z"/><path d="M86 35h26v1H86zm26 0h1v70h-1zm1 0h1v1h-1zm-25 1h24v1H88zm25 0h1v1h-1zm1 0h1v1h-1z"/><path d="M91 37h22v1H91zm22 0h1v67h-1zm1 0h1v1h-1zm-21 1h20v1H93zm21 0h1v1h-1z"/><path d="M95 39h19v1H95zm19 0h1v63h-1zm1 0h1v1h-1zm-18 1h17v1H97zm18 0h1v60h-1zm-15 1h14v1h-14zm3 1h11v62h-11zm56 11h1v1h-1zm1 0h19v1h-19zm19 0h1v1h-1zm11 0h1v1h-1zm1 0h6v1h-6zm6 0h1v1h-1zm1 0h1v1h-1zm13 0h1v1h-1zm1 0h4v1h-4zm4 0h1v1h-1zm1 0h1v1h-1zm11 0h1v1h-1zm1 0h4v1h-4zm4 0h1v1h-1zm14 0h1v1h-1zm1 0h1v1h-1zm1 0h1v1h-1zm1 0h4v1h-4zm4 0h1v1h-1zm1 0h1v1h-1zm1 0h1v1h-1zm1 0h1v1h-1zm1 0h1v1h-1zm10 0h1v1h-1zm1 0h16v1h-16zm16 0h1v1h-1zm1 0h1v1h-1zm6 0h1v1h-1zm1 0h4v1h-4zm4 0h1v1h-1zm1 0h1v1h-1zm11 0h1v1h-1zm1 0h4v1h-4zm4 0h1v1h-1zm6 0h1v1h-1zm1 0h19v1h-19zm19 0h1v1h-1zM72 54h1v75h-1zm87 0h1v3h-1zm1 0h19v3h-19zm19 0h1v3h-1zm11 0h1v1h-1zm1 0h6v3h-6zm6 0h1v18h-1zm1 0h1v1h-1zm13 0h1v38h-1zm1 0h4v38h-4zm4 0h1v7h-1zm1 0h1v1h-1zm11 0h1v16h-1zm1 0h4v26h-4zm4 0h1v38h-1zm12 0h1v1h-1zm1 0h1v1h-1zm1 0h11v3h-11zm11 0h1v4h-1zm1 0h1v1h-1zm9 0h1v38h-1zm1 0h16v3h-16zm16 0h1v3h-1zm1 0h1v3h-1zm6 0h1v38h-1zm1 0h4v38h-4zm4 0h1v7h-1zm1 0h1v1h-1zm11 0h1v16h-1zm1 0h4v26h-4zm4 0h1v38h-1zm6 0h1v3h-1zm1 0h19v3h-19zm19 0h1v3h-1zM73 55h2v73h-2zm2 0h1v72h-1zm114 0h1v1h-1z"/><path d="M190 55h7v2h-7zm8 0h1v1h-1zm19 0h1v8h-1zm1 0h1v1h-1zm25 0h1v1h-1zm1 0h1v1h-1zm1 0h14v2h-14zm14 0h1v3h-1zm39 0h1v8h-1zm1 0h1v1h-1zM76 56h3v69h-3zm3 0h1v69h-1zm110 0h1v1h-1zm9 0h1v1h-1zm20 0h1v1h-1zm24 0h1v1h-1zm1 0h1v1h-1z"/><path d="M244 56h15v1h-15zm55 0h1v1h-1zM80 57h2v67h-2zm2 0h1v66h-1zm77 0h1v1h-1zm1 0h19v1h-19zm19 0h1v1h-1zm10 0h1v1h-1zm1 0h7v1h-7zm8 0h1v1h-1zm20 0h1v9h-1zm1 0h1v1h-1zm23 0h1v1h-1zm1 0h16v1h-16zm26 0h16v1h-16zm16 0h1v1h-1zm1 0h1v1h-1zm13 0h1v9h-1zm1 0h1v1h-1zm20 0h1v1h-1zm1 0h19v1h-19zm19 0h1v1h-1zM83 58h2v64h-2zm2 0h1v63h-1zm74 0h1v1h-1zm1 0h6v1h-6zm6 0h1v1h-1zm1 0h4v34h-4zm4 0h1v34h-1zm1 0h1v1h-1zm1 0h6v1h-6zm6 0h1v1h-1zm10 0h1v1h-1zm1 0h3v5h-3zm3 0h5v1h-5zm5 0h1v23h-1zm1 0h1v1h-1zm20 0h1v1h-1zm22 0h1v1h-1zm1 0h6v1h-6zm6 0h1v1h-1zm1 0h1v1h-1zm1 0h1v1h-1zm1 0h3v1h-3zm3 0h1v1h-1zm1 0h1v1h-1zm1 0h1v1h-1zm1 0h1v1h-1zm1 0h1v1h-1zm1 0h1v1h-1zm10 0h4v34h-4zm4 0h1v34h-1zm1 0h11v1h-11zm11 0h1v1h-1zm1 0h1v1h-1zm14 0h1v1h-1zm20 0h1v1h-1zm1 0h6v1h-6zm6 0h1v1h-1zm1 0h4v34h-4zm4 0h1v34h-1zm1 0h1v1h-1zm1 0h6v1h-6zm6 0h1v1h-1zM86 59h3v61h-3zm3 0h1v60h-1zm83 0h1v33h-1zm17 0h1v1h-1zm4 0h1v1h-1zm1 0h1v1h-1zm1 0h3v3h-3zm4 0h1v1h-1zm20 0h1v1h-1zm22 0h1v1h-1zm1 0h4v29h-4zm4 0h1v1h-1zm1 0h1v1h-1zm1 0h1v1h-1zm11 0h1v1h-1zm41 0h1v1h-1zm33 0h1v33h-1zM90 60h2v58h-2zm2 0h1v57h-1zm96 0h1v1h-1z"/><path d="M189 60h3v8h-3zm4 0h1v1h-1zm1 0h1v1h-1zm5 0h1v1h-1zm20 0h1v8h-1zm1 0h1v1h-1zm21 0h1v1h-1zm5 0h1v1h-1zm1 0h1v1h-1zm53 0h1v8h-1zm1 0h1v1h-1zM93 61h2v55h-2zm2 0h1v54h-1zm93 0h1v1h-1zm5 0h1v1h-1zm1 0h1v1h-1zm5 0h1v1h-1zm17 0h3v1h-3zm4 0h1v1h-1zm21 0h4v24h-4zm5 0h1v1h-1zm51 0h3v1h-3zm4 0h1v1h-1zM96 62h3v52h-3zm3 0h1v51h-1zm89 0h1v1h-1zm5 0h1v1h-1zm1 0h1v1h-1zm1 0h4v1h-4zm4 0h1v19h-1zm17 0h1v1h-1zm4 0h1v9h-1zm1 0h1v1h-1zm25 0h1v22h-1zm51 0h1v1h-1zm4 0h1v9h-1zm1 0h1v1h-1zm-202 1h14v41h-14zm88 0h1v1h-1zm4 0h1v1h-1zm1 0h1v1h-1zm2 0h1v1h-1zm1 0h3v4h-3zm4 0h1v1h-1zm16 0h1v1h-1z"/><path d="M217 63h3v1h-3zm4 0h1v1h-1zm76 0h1v1h-1zm1 0h3v1h-3zm4 0h1v1h-1zm-114 1h3v9h-3zm4 0h1v1h-1zm3 0h1v1h-1zm5 0h1v1h-1zm16 0h1v1h-1zm1 0h1v1h-1zm4 0h1v1h-1zm76 0h1v1h-1zm1 0h1v1h-1zm4 0h1v1h-1zm-115 1h1v1h-1zm5 0h1v1h-1zm3 0h1v1h-1zm5 0h1v1h-1zm16 0h1v1h-1zm1 0h1v1h-1zm4 0h1v8h-1zm1 0h1v1h-1zm75 0h1v1h-1zm1 0h1v1h-1zm4 0h1v8h-1zm1 0h1v1h-1zm-116 1h1v1h-1zm5 0h1v1h-1zm3 0h1v1h-1zm5 0h1v1h-1zm16 0h1v1h-1zm1 0h1v1h-1zm1 0h3v1h-3zm4 0h1v1h-1zm75 0h1v1h-1zm1 0h1v1h-1zm1 0h3v1h-3zm4 0h1v1h-1zm-116 1h1v1h-1zm5 0h1v1h-1zm3 0h1v1h-1zm1 0h4v1h-4zm4 0h1v19h-1zm1 0h1v1h-1zm15 0h1v2h-1zm2 0h1v1h-1zm4 0h1v1h-1zm1 0h1v1h-1zm74 0h1v2h-1zm2 0h1v1h-1zm4 0h1v1h-1zm1 0h1v1h-1zm-117 1h1v1h-1zm4 0h1v1h-1zm1 0h1v1h-1zm4 0h1v1h-1zm5 0h1v1h-1zm17 0h1v1h-1z"/><path d="M219 68h3v1h-3zm3 0h1v8h-1zm1 0h1v1h-1zm76 0h1v1h-1zm1 0h3v1h-3zm3 0h1v8h-1zm1 0h1v1h-1zm-118 1h1v1h-1zm1 0h3v12h-3zm4 0h1v1h-1zm5 0h1v1h-1zm5 0h1v1h-1zm15 0h1v1h-1zm3 0h1v1h-1zm4 0h1v1h-1zm74 0h1v1h-1zm3 0h1v1h-1zm4 0h1v1h-1zm-118 1h1v1h-1zm5 0h1v1h-1zm5 0h1v1h-1zm5 0h1v1h-1zm15 0h1v1h-1zm3 0h1v1h-1zm4 0h1v9h-1zm1 0h1v1h-1zm4 0h1v1h-1zm46 0h10v1h-10zm10 0h1v1h-1zm13 0h1v1h-1zm3 0h1v1h-1zm4 0h1v9h-1zm1 0h1v1h-1zm4 0h1v1h-1zm-123 1h1v1h-1zm5 0h1v1h-1zm5 0h1v1h-1zm5 0h1v1h-1zm15 0h1v21h-1zm3 0h1v1h-1z"/><path d="M220 71h3v1h-3zm4 0h1v1h-1zm4 0h1v5h-1zm46 0h10v3h-10zm10 0h1v3h-1zm13 0h1v21h-1zm3 0h1v1h-1zm1 0h3v1h-3zm4 0h1v1h-1zm4 0h1v5h-1zm-123 1h1v1h-1zm5 0h1v1h-1zm6 0h4v1h-4zm4 0h1v19h-1zm1 0h1v1h-1zm18 0h1v1h-1zm4 0h1v1h-1zm77 0h1v1h-1zm4 0h1v1h-1zm-119 1h4v8h-4zm4 0h1v1h-1zm1 0h1v1h-1zm6 0h1v1h-1zm5 0h1v1h-1zm18 0h1v1h-1zm1 0h3v1h-3zm3 0h1v8h-1zm1 0h1v1h-1zm31 0h4v17h-4zm4 0h1v17h-1zm1 0h1v17h-1zm40 0h1v1h-1zm1 0h3v1h-3zm3 0h1v8h-1zm1 0h1v1h-1zm-121 1h1v1h-1zm5 0h1v1h-1zm7 0h1v1h-1zm5 0h1v1h-1zm18 0h1v1h-1zm1 0h1v1h-1zm4 0h1v1h-1zm49 0h10v1h-10zm10 0h1v1h-1zm17 0h1v1h-1zm1 0h1v1h-1zm4 0h1v1h-1zm-121 1h1v1h-1zm5 0h1v1h-1zm7 0h1v1h-1zm5 0h1v1h-1zm19 0h1v1h-1zm4 0h1v9h-1zm1 0h1v1h-1zm48 0h10v1h-10zm10 0h1v1h-1zm18 0h1v1h-1zm4 0h1v9h-1zm1 0h1v1h-1zm-122 1h1v1h-1zm5 0h1v1h-1zm7 0h1v1h-1zm5 0h1v16h-1zm19 0h1v1h-1z"/><path d="M222 76h3v1h-3zm4 0h1v1h-1zm2 0h1v1h-1zm74 0h1v1h-1zm1 0h3v1h-3zm4 0h1v1h-1zm2 0h1v1h-1zm-124 1h1v1h-1zm5 0h1v1h-1zm1 0h6v1h-6zm6 0h1v1h-1zm6 0h1v1h-1zm19 0h1v1h-1zm4 0h1v1h-1zm2 0h1v1h-1zm75 0h1v1h-1zm4 0h1v1h-1zm2 0h1v1h-1zm-125 1h1v1h-1zm1 0h17v3h-17zm18 0h1v1h-1zm19 0h1v1h-1zm4 0h1v8h-1zm1 0h1v1h-1zm76 0h1v1h-1zm4 0h1v8h-1zm1 0h1v1h-1zm-124 1h1v1h-1zm19 0h1v1h-1zm19 0h1v1h-1zm1 0h3v1h-3zm4 0h1v1h-1zm76 0h1v1h-1zm1 0h3v1h-3zm4 0h1v1h-1zm-124 1h1v1h-1zm19 0h1v1h-1zm20 0h1v1h-1zm4 0h1v1h-1zm2 0h4v1h-4zm75 0h1v1h-1zm4 0h1v1h-1zm2 0h4v1h-4zm-126 1h1v1h-1zm1 0h18v1h-18zm18 0h1v11h-1zm1 0h1v1h-1zm19 0h1v1h-1z"/><path d="M224 81h3v1h-3zm3 0h1v8h-1zm1 0h1v1h-1zm1 0h1v2h-1zm1 0h3v11h-3zm74 0h1v1h-1zm1 0h3v1h-3zm3 0h1v8h-1zm1 0h1v1h-1zm1 0h1v2h-1zm1 0h3v11h-3zm-127 1h1v1h-1zm1 0h3v6h-3zm3 0h1v1h-1zm1 0h1v1h-1zm1 0h8v1h-8zm8 0h1v1h-1zm1 0h1v1h-1zm5 0h1v1h-1zm20 0h1v1h-1zm4 0h1v1h-1zm77 0h1v1h-1zm4 0h1v1h-1zm-126 1h1v1h-1z"/><path d="M184 83h4v5h-4zm4 0h1v1h-1zm1 0h1v1h-1zm10 0h1v1h-1zm5 0h1v1h-1zm20 0h1v1h-1zm4 0h1v1h-1zm1 0h1v1h-1zm76 0h1v1h-1zm4 0h1v1h-1zm1 0h1v1h-1zm-127 1h1v1h-1zm5 0h1v1h-1zm11 0h1v1h-1zm5 0h1v1h-1zm20 0h1v1h-1zm1 0h8v1h-8zm21 0h1v1h-1zm59 0h1v1h-1zm1 0h8v1h-8zm-123 1h1v1h-1zm5 0h1v1h-1zm11 0h1v1h-1zm5 0h1v1h-1zm21 0h1v1h-1zm3 0h5v6h-5zm13 0h4v1h-4zm5 0h1v1h-1zm60 0h1v1h-1zm3 0h5v6h-5zm-126 1h1v1h-1zm5 0h1v1h-1zm11 0h1v1h-1zm1 0h4v1h-4zm4 0h1v6h-1zm1 0h1v1h-1zm20 0h1v1h-1z"/><path d="M226 86h7v1h-7zm15 0h1v1h-1zm5 0h1v5h-1zm1 0h1v1h-1zm59 0h1v1h-1zm1 0h7v1h-7zm-124 1h4v5h-4zm5 0h1v1h-1zm12 0h1v1h-1zm5 0h1v1h-1zm21 0h1v1h-1zm15 0h1v1h-1zm6 0h1v1h-1zm1 0h1v1h-1zm7 0h1v1h-1zm52 0h1v1h-1zm-125 1h1v1h-1zm5 0h1v1h-1zm13 0h1v1h-1zm5 0h1v1h-1zm21 0h1v1h-1zm15 0h1v1h-1z"/><path d="M242 88h6v1h-6zm6 0h1v4h-1zm1 0h1v1h-1zm1 0h3v1h-3zm3 0h1v1h-1zm1 0h6v2h-6zm20 0h11v1h-11zm11 0h1v1h-1zm1 0h1v1h-1zm21 0h1v1h-1zm-125 1h1v1h-1zm5 0h1v1h-1zm13 0h1v1h-1zm5 0h1v1h-1zm21 0h1v1h-1zm1 0h6v1h-6zm15 0h1v1h-1z"/><path d="M243 89h17v1h-17zm31 0h11v3h-11zm11 0h1v3h-1zm1 0h1v3h-1zm21 0h1v1h-1zm1 0h6v1h-6zm-126 1h1v1h-1zm5 0h1v1h-1zm13 0h1v1h-1zm5 0h1v2h-1zm22 0h1v1h-1zm15 0h1v1h-1zm1 0h1v1h-1zm1 0h16v1h-16zm16 0h1v1h-1zm1 0h1v1h-1zm47 0h1v1h-1zm-126 1h1v1h-1zm5 0h1v1h-1zm13 0h1v1h-1zm1 0h4v1h-4zm5 0h1v1h-1zm21 0h1v1h-1zm1 0h5v1h-5zm15 0h1v1h-1zm1 0h1v1h-1zm1 0h13v1h-13zm13 0h1v1h-1zm1 0h1v1h-1zm1 0h1v1h-1zm48 0h1v1h-1zm1 0h5v1h-5zm-142 1h4v1h-4zm4 0h1v1h-1zm1 0h1v1h-1zm9 0h1v1h-1zm1 0h4v1h-4zm4 0h1v1h-1zm1 0h1v1h-1zm14 0h1v1h-1zm1 0h3v1h-3zm3 0h1v1h-1zm1 0h1v1h-1zm5 0h1v1h-1zm1 0h4v1h-4zm4 0h1v1h-1zm11 0h1v1h-1zm1 0h1v1h-1zm1 0h4v1h-4zm4 0h1v1h-1zm12 0h1v1h-1zm1 0h1v1h-1zm1 0h1v1h-1zm1 0h7v1h-7zm7 0h1v1h-1zm1 0h1v1h-1zm1 0h1v1h-1zm1 0h1v1h-1zm10 0h1v1h-1zm1 0h16v1h-16zm16 0h1v1h-1zm1 0h1v1h-1zm6 0h1v1h-1zm1 0h4v1h-4zm4 0h1v1h-1zm11 0h1v1h-1zm1 0h1v1h-1zm1 0h4v1h-4zm4 0h1v1h-1zm14 0h4v1h-4zm4 0h1v1h-1zm1 0h1v1h-1zm-84 1h1v1h-1zm1 0h3v1h-3zm3 0h1v1h-1zm1 0h1v1h-1zm-139 7h1v1h-1zm0 1h1v1h-1zm-1 1h1v1h-1zm1 0h1v1h-1zm-1 1h1v1h-1zm-14 1h13v1h-13zm13 0h1v1h-1zm1 0h1v1h-1zm-14 1h12v1h-12zm12 0h1v1h-1zm1 0h1v1h-1zm-13 1h11v1h-11zm11 0h1v1h-1zm1 0h1v1h-1zm-12 1h9v1h-9zm9 0h1v1h-1zm1 0h1v1h-1zm1 0h1v1h-1zm-11 1h8v1h-8zm8 0h1v1h-1zm1 0h1v1h-1zm1 0h1v1h-1zm-10 1h6v1h-6zm6 0h1v1h-1zm1 0h1v1h-1zm1 0h1v1h-1zm-8 1h4v1h-4zm4 0h1v1h-1zm1 0h1v1h-1zm1 0h1v1h-1zm-6 1h3v1h-3zm3 0h1v1h-1zm1 0h1v1h-1zm1 0h1v1h-1zm-5 1h1v1h-1zm1 0h1v1h-1zm1 0h1v1h-1zm1 0h1v1h-1zm-4 1h1v1h-1zm1 0h1v1h-1zm1 0h1v1h-1zm-5 1h2v1h-2zm2 0h1v1h-1zm1 0h1v1h-1zm1 0h1v1h-1zm-5 1h1v1h-1zm1 0h1v1h-1zm1 0h1v1h-1zm1 0h1v1h-1zm-5 1h1v1h-1zm1 0h1v1h-1zm1 0h1v1h-1zm1 0h1v1h-1zm-25 1h22v1H71zm22 0h1v1h-1zm1 0h1v1h-1zm1 0h1v1h-1zm-26 1h22v1H69zm22 0h1v1h-1zm1 0h1v1h-1zm1 0h1v1h-1zm-26 1h22v1H67zm22 0h1v1h-1zm1 0h1v1h-1zm1 0h1v1h-1zm-26 1h23v1H65zm23 0h1v1h-1zm1 0h1v1h-1zm1 0h1v1h-1zm-27 1h23v1H63zm23 0h1v1h-1zm1 0h1v1h-1zm1 0h1v1h-1zm-26 1h22v1H62zm22 0h1v1h-1zm1 0h1v1h-1zm1 0h1v1h-1zm-26 1h22v1H60zm22 0h1v1h-1zm1 0h1v1h-1zm1 0h1v1h-1zm-24 1h21v1H60zm21 0h1v1h-1zm1 0h1v1h-1zm1 0h1v1h-1zm-23 1h19v1H60zm19 0h1v1h-1zm1 0h1v1h-1zm1 0h1v1h-1zm-21 1h17v1H60zm17 0h1v1h-1zm1 0h1v1h-1zm1 0h1v1h-1zm-19 1h16v1H60zm16 0h1v1h-1zm1 0h1v1h-1zm1 0h1v1h-1zm-18 1h14v1H60zm14 0h1v1h-1zm1 0h1v1h-1zm1 0h1v1h-1zm-16 1h12v1H60zm12 0h1v1h-1zm1 0h1v1h-1zm1 0h1v1h-1zm-14 1h11v1H60zm11 0h1v1h-1zm1 0h1v1h-1zm1 0h1v1h-1zm-13 1h9v1h-9zm9 0h1v1h-1zm1 0h1v1h-1zm1 0h1v1h-1zm-11 1h7v1h-7zm7 0h1v1h-1zm1 0h1v1h-1zm1 0h1v1h-1zm-9 1h6v1h-6zm6 0h1v1h-1zm1 0h1v1h-1zm1 0h1v1h-1zm-8 1h4v1h-4zm4 0h1v1h-1zm1 0h1v1h-1zm1 0h1v1h-1zm-6 1h2v1h-2zm2 0h1v1h-1zm1 0h1v1h-1zm1 0h1v1h-1zm-4 1h1v1h-1zm1 0h1v1h-1zm1 0h1v1h-1z"/></g><path d="M36 34h1v1h-1zm-16 7h1v1h-1zm21 14h1v1h-1zm-10 3h1v1h-1zm-10 3h1v1h-1zm-4 1h1v1h-1z" fill="#d68c78"/><path d="M48 29h1v1h-1zm-9 4h1v1h-1zm-16 7h1v1h-1zm-6 3h1v18h-1zm13 15h1v1h-1zm-13 3h1v1h-1zm3 0h1v1h-1zm33 58h1v1h-1z" fill="#dcbcb4"/><path d="M59 25h1v96h-1zm0 96h1v1h-1z" fill="#efdeda"/><path d="M61 25h1v1h-1zm16 7h1v1h-1zm9 4h1v1h-1zm15 7h1v18h-1zm0 18h1v1h-1zm-36 58h1v1h-1z" fill="#fcd7ca"/><path d="M57 25h1v1h-1zm-7 3h1v1h-1zm-9 4h1v1h-1zm-7 3h1v1h-1zm-9 4h1v1h-1zm22 14h1v1h-1zm-10 3h1v1h-1zm-10 3h1v1h-1zm24 59h1v1h-1z" fill="#daa99c"/><path d="M55 26h1v1h-1zM43 54h1v1h-1zm12 66h1v1h-1z" fill="#ddc6c0"/><path d="M52 27h1v1h-1zm-9 4h1v1h-1zm-16 7h1v1h-1zm22 79h1v1h-1zm9 5h1v1h-1z" fill="#d89684"/><path d="M57 5h1v1h-1zm-8 4h1v1h-1zM23 24h1v1h-1zm6 96h1v1h-1zm22 13h1v1h-1z" fill="#dc5026"/><path d="M59 6h1v17h-1zm-13 5h1v1h-1zm13 12h1v1h-1zm-46 7h1v1h-1zm8 85h1v1h-1zm38 8h1v12h-1zm-11 8h1v1h-1zm11 4h1v1h-1z" fill="#d74e26"/><path d="M52 7h1v1h-1zm-2 1h1v1h-1zm-5 3h1v1h-1zm-2 1h1v1h-1zm-5 3h1v1h-1zm-2 1h1v1h-1zm-5 3h1v1h-1zm-7 4h1v1h-1zm-5 3h1v1h-1zm-2 1h1v1h-1zm-5 3h1v1h-1zm-2 1h1v1h-1zm-7 8h1v1H3zm0 62h1v1H3zm1 3h1v1H4zm4 4h1v1H8zm5 3h1v1h-1zm2 1h1v1h-1zm5 3h1v1h-1zm5 3h1v1h-1zm5 3h1v1h-1zm5 3h1v1h-1zm5 3h1v1h-1zm2 1h1v1h-1zm2 1h1v1h-1zm3 2h1v1h-1zm5 3h1v1h-1zm4 2h1v1h-1z" fill="#e05226"/><path d="M51 8h1v1h-1zM18 27h1v1h-1zm-9 81h1v1H9zm27 16h1v1h-1z" fill="#da4f26"/><path d="M54 26h1v1h-1zm-9 4h1v1h-1zm-7 3h1v1h-1zm-9 4h1v1h-1zm-1 22h1v1h-1zm-10 3h1v1h-1zm38 59h1v1h-1z" fill="#d5836d"/><path d="M40 32h1v1h-1zm-16 7h1v1h-1zm21 15h1v1h-1zm-10 3h1v1h-1z" fill="#d26649"/><g fill="#ce4925"><path d="M56 6h2v18h-2zm2 0h1v17h-1z"/><path d="M54 7h4v17h-4z"/><path d="M52 8h6v16h-6z"/><path d="M51 9h7v15h-7z"/><path d="M49 10h9v14h-9z"/><path d="M47 11h11v13H47z"/><path d="M45 12h13v12H45z"/><path d="M44 13h14v11H44z"/><path d="M42 14h16v10H42z"/><path d="M40 15h18v9H40z"/><path d="M39 16h19v8H39z"/><path d="M37 17h21v7H37z"/><path d="M35 18h23v6H35z"/><path d="M33 19h25v5H33z"/><path d="M32 20h26v4H32z"/><path d="M30 21h28v3H30z"/><path d="M28 22h30v2H28z"/><path d="M26 23h32v1H26zm32 0h1v1h-1zm-33 1h32v1H25zm32 0h1v1h-1zm-34 1h32v1H23zm32 0h1v1h-1zm-34 1h32v1H21zm32 0h1v1h-1zm-34 1h31v1H19zm31 0h1v1h-1zm-32 1h30v1H18zm30 0h1v1h-1zm-32 1h30v1H16zm30 0h1v1h-1zm-32 1h29v1H14zm29 0h1v1h-1zm-31 1h29v1H12zm29 0h1v1h-1zm-30 1h28v1H11zm28 0h1v1h-1zM9 33h28v1H9zm28 0h1v1h-1zM8 34h26v1H8zm26 0h1v1h-1zM7 35h25v1H7zm25 0h1v1h-1zM6 36h24v1H6zm24 0h1v1h-1zM5 37h23v1H5zm23 0h1v1h-1zM5 38h20v1H5zm20 0h1v1h-1zM4 39h19v1H4zm19 0h1v1h-1zM4 40h17v1H4zm17 0h1v1h-1zM4 41h14v1H4zm14 0h1v1h-1zM4 42h12v59H4zm12 0h1v69h-1zm30 12h1v75h-1zm1 0h1v75h-1z"/><path d="M43 55h4v72h-4z"/><path d="M40 56h7v69h-7z"/><path d="M36 57h11v66H36z"/><path d="M33 58h14v63H33z"/><path d="M30 59h17v60H30z"/><path d="M26 60h21v57H26z"/><path d="M23 61h24v54H23z"/><path d="M20 62h27v51H20z"/><path d="M17 63h30v49H17z"/><path d="M4 101h43v1H4zm1 1h42v1H5zm0 1h42v1H5zm1 1h41v1H6zm0 1h41v1H6zm1 1h40v1H7zm2 1h38v1H9zm1 1h37v1H10zm2 1h35v1H12zm2 1h33v1H14zm1 1h32v1H15zm2 1h30v1H17zm2 1h28v1H19zm2 1h26v1H21zm1 1h25v1H22zm2 1h23v1H24zm2 1h21v1H26zm1 1h22v1H27zm22 0h1v13h-1z"/><path d="M29 119h22v1H29zm22 0h1v13h-1z"/><path d="M31 120h22v1H31zm22 0h1v13h-1z"/><path d="M32 121h23v1H32zm23 0h1v13h-1z"/><path d="M34 122h23v1H34zm23 0h1v13h-1z"/><path d="M36 123h22v1H36zm22 0h1v12h-1zm-21 1h21v1H37zm2 1h19v1H39zm2 1h17v1H41zm1 1h16v1H42zm2 1h14v1H44zm2 1h12v1H46zm2 1h10v1H48zm1 1h9v1h-9zm2 1h7v1h-7zm2 1h5v1h-5zm1 1h4v1h-4zm2 1h2v1h-2zm2 0h1v1h-1z"/></g><path d="M50 9h1v1h-1zm-7 4h1v1h-1zm-5 3h1v1h-1zm-7 4h1v1h-1zm-7 4h1v1h-1zm-7 4h1v1h-1zm-7 4h1v1h-1zm-3 2h1v1H7zm-1 1h1v1H6zm-1 69h1v1H5zm3 3h1v1H8zm12 7h1v1h-1zm5 3h1v1h-1zm5 3h1v1h-1zm5 3h1v1h-1zm12 7h1v1h-1zm5 3h1v1h-1z" fill="#d04a25"/><path d="M68 28h1v1h-1zm7 3h1v1h-1zm9 4h1v1h-1zm7 3h1v1h-1zm9 4h1v1h-1zm-9 17h1v1h-1z" fill="#fbc2af"/><path d="M22 40h1v1h-1zm16 16h1v1h-1z" fill="#d47961"/><g fill="#fff"><path d="M60 25h1v96h-1zm1 1h1v94h-1zm1 0h1v94h-1zm1 1h1v92h-1zm1 0h1v92h-1zm1 1h2v90h-2zm2 0h1v89h-1zm1 1h1v88h-1zm1 0h1v87h-1zm1 1h1v85h-1zm1 0h1v22h-1zm1 1h1v21h-1zm1 0h1v22h-1zm1 1h2v21h-2zm2 0h1v22h-1zm1 1h1v21h-1zm1 0h1v21h-1zm1 1h1v20h-1zm1 0h1v21h-1zm1 1h2v20h-2zm2 0h1v21h-1zm1 1h1v20h-1zm1 0h1v20h-1zm1 1h1v20h-1zm1 0h1v20h-1zm1 1h1v19h-1zm1 0h1v20h-1zm1 1h2v19h-2zm2 0h1v19h-1zm1 1h1v19h-1zm1 0h1v19h-1zm1 1h1v18h-1zm1 0h1v19h-1zm1 1h2v18h-2zm2 0h1v19h-1zm1 1h1v18h-1z"/><path d="M71 52h29v1H71zm2 1h27v1H73zm3 1h24v1H76zm4 1h20v1H80zm3 1h17v1H83zm3 1h14v1H86zm3 1h11v1H89zm4 1h7v1h-7zm3 1h4v1h-4zm3 1h1v1h-1zm1 0h1v1h-1zm-30 54h1v1h-1zm-1 1h1v1h-1zm-2 1h1v1h-1zm1 0h1v1h-1zm-3 1h1v1h-1zm1 0h1v1h-1zm-3 1h1v1h-1zm1 0h1v1h-1zm-3 1h1v1h-1zm1 0h1v1h-1zm-2 1h1v1h-1z"/></g><path d="M66 27h1v1h-1zm15 29h1v1h-1zm-12 61h1v1h-1z" fill="#fab8a1"/><path d="M89 37h1v1h-1zM74 54h1v1h-1zm27 8h1v1h-1z" fill="#f9a486"/><path fill="#e45427" d="M37 125h1v1h-1z"/></svg>