<svg xmlns="http://www.w3.org/2000/svg" role="img" viewBox="-7.61 -7.61 395.46 69.46"><title>The Foundry Visionmongers Limited logo</title><g fill-opacity="1" fill-rule="nonzero" stroke="none" transform="matrix(1.33333 0 0 -1.33333 0 54.373) scale(.1)"><path fill="#f9a70d" d="M2853.6 97.8828C2853.6 43.8164 2809.79 0 2755.72 0c-54.05 0-97.88 43.8164-97.88 97.8828 0 54.0702 43.83 97.8872 97.88 97.8872 54.07 0 97.88-43.817 97.88-97.8872"/><path fill="#231f20" d="M76.1836 327.637v-90.02H244.121v-69.98H76.1836V7.83203H0V399.883h277.563v-72.246H76.1836"/><path fill="#231f20" d="M1109.13 399.883V168.027C1109.13 59.9414 1046.75 0 945.867 0 844.41 0 782.613 60.5078 782.613 168.027v231.856h79.883V168.027c0-65.547 28.559-96.3278 83.371-96.3278 55.393 0 83.953 30.7808 83.953 96.3278v231.856h79.31"/><path fill="#231f20" d="M1503.43 399.883V7.85156h-69.44S1264.58 266.035 1264.03 266.035h-2.15V7.85156h-72.62V399.883h69.44s169.69-255.957 170.25-255.957h1.12v255.957h73.36"/><path fill="#231f20" d="M1736.24 80.0664c62.73 0 108.65 44.2576 108.65 122.0896 0 80.117-48.16 126.035-110.89 126.035h-72.8V80.0664zm-5.6 319.8166c111.45 0 193.22-78.43 193.22-197.727 0-118.7107-80.64-194.31225-190.98-194.31225h-147.85V399.883h145.61"/><path fill="#231f20" d="M2072.7 210.012h97.12c39.77 0 59.94 27.437 59.94 59.375 0 32.476-20.73 58.804-59.94 58.804h-97.12zM2237.04 7.84375L2165.9 142.258h-93.2V7.84375h-76.18V399.883h166.03c89.05 0 146.19-51.535 146.19-130.496 0-53.203-26.33-92.407-70.03-112.016l84.03-149.52725h-85.7"/><path fill="#231f20" d="M2683.11 399.883l-138.89-218.43V7.84375h-76.17V181.453l-138.91 218.43h83.46s92.98-150.11 93.53-150.11h.56c.56 0 92.97 150.11 92.97 150.11h83.45"/><path fill="#231f20" d="M519.688 76.6484c70.625 0 127.894 57.2696 127.894 127.8716 0 70.648-57.269 127.89-127.894 127.89-70.622 0-127.879-57.242-127.879-127.89 0-70.602 57.257-127.8716 127.879-127.8716zM722.941 204.52c0-112.2348-90.992-203.21922-203.25-203.21922-112.234 0-203.246 90.98442-203.246 203.21922 0 112.257 91.012 203.257 203.246 203.257 112.258 0 203.25-91 203.25-203.257"/></g></svg>