<svg xmlns="http://www.w3.org/2000/svg" role="img" viewBox="-7.61 -7.61 395.46 69.46"><title>The Foundry Visionmongers Limited logo</title><path fill="#f9a70d" d="M380.47049 41.32229c0 7.20867-5.84119 13.05071-13.05034 13.05071-7.20649 0-13.05034-5.84204-13.05034-13.05071 0-7.20918 5.84385-13.0513 13.05034-13.0513 7.20915 0 13.05034 5.84212 13.05034 13.0513"/><path fill="#231f20" d="M10.15756 10.68916v12.00237h22.3911v9.33043h-22.3911v21.3068H0V1.0566h37.00747v9.63256H10.15756M147.8803 1.0566v30.91336c0 14.41105-8.31712 22.40304-21.76785 22.40304-13.52726 0-21.76666-8.0675-21.76666-22.40304V1.0566h10.6508v30.91336c0 8.73938 3.80777 12.84339 11.11586 12.84339 7.38555 0 11.19345-4.104 11.19345-12.84339V1.0566h10.5744m52.57202 0v52.26955h-9.25843s-22.58744-34.4236-22.66077-34.4236h-.28666v34.4236h-9.68242V1.0566h9.25843s22.62477 34.12675 22.69943 34.12675h.14933V1.0566h9.7811m31.04055 42.64115c8.36379 0 14.4863-5.90087 14.4863-16.2782 0-10.682-6.42117-16.80426-14.78496-16.80426h-9.70642v33.08246zm-.74665-42.64115c14.85963 0 25.76202 10.45707 25.76202 26.36294 0 15.8277-10.75173 25.90765-25.46336 25.90765h-19.71284V1.0566h19.41418m45.60686 25.3155h12.94901c5.30253 0 7.9918-3.65818 7.9918-7.91647 0-4.33002-2.76393-7.84034-7.9918-7.84034h-12.949zm21.91145 26.9551l-9.4851-17.92146H276.3531V53.3272h-10.15708V1.0566h22.13678c11.87304 0 19.49151 6.87116 19.49151 17.39903 0 7.09356-3.51057 12.32063-9.3371 14.9351l11.20372 19.93646h-11.42638M357.73906 1.0566l-18.5182 29.12327V53.3272H329.0651V30.17987L310.54424 1.0566h11.12772s12.39702 20.01417 12.47035 20.01417h.07467c.07466 0 12.39569-20.01417 12.39569-20.01417h11.12639M69.29 44.15347c9.41643 0 17.0521-7.63576 17.0521-17.04912 0-9.4195-7.63567-17.05158-17.0521-17.05158-9.41603 0-17.0501 7.63208-17.0501 17.05158 0 9.41336 7.63407 17.04912 17.0501 17.04912zm27.09972-17.04912c0 14.96426-12.13196 27.09522-27.09932 27.09522-14.96416 0-27.09879-12.13096-27.09879-27.09522 0-14.96723 12.13463-27.10026 27.0988-27.10026 14.96735 0 27.09931 12.13303 27.09931 27.10026"/></svg>