<svg xmlns="http://www.w3.org/2000/svg" role="img" viewBox="-5.99 -5.99 311.74 100.99"><title>The Walt Disney Studios logo</title><defs><clipPath id="a"><path d="M0 0h612v792H0V0z"/></clipPath><clipPath id="b"><path d="M0 0h612v792H0V0z"/></clipPath><clipPath id="c"><path d="M0 0h612v792H0V0z"/></clipPath></defs><g clip-path="url(#a)" transform="matrix(2.04054 0 0 -2.04054 -841.042 996.6)"><path fill="#141006" d="M487.74 451.666l1.11.582c.493-.974 1.256-1.445 2.287-1.445 1.009 0 1.693.324 1.693 1.076 0 .718-.516 1.054-1.884 1.457-1.603.471-2.892.909-2.892 2.489 0 1.413 1.154 2.343 2.836 2.343 1.637 0 2.602-.806 3.106-1.782l-1.02-.706c-.494.83-1.2 1.21-2.097 1.21-.919 0-1.446-.336-1.446-.941 0-.774.594-1.031 1.951-1.436 1.569-.459 2.825-.975 2.825-2.534 0-1.356-1.155-2.421-3.128-2.421-1.648 0-2.814.852-3.341 2.108"/><path fill="#141006" d="M495.568 451.274v3.296h-1.032v1.098h1.032v2.074h1.378v-2.074h1.537v-1.098h-1.537v-2.949c0-.639.192-.897.875-.897.202 0 .46.033.595.079v-1.088c-.146-.033-.662-.079-1.01-.079-1.513 0-1.838.561-1.838 1.638"/><path fill="#141006" d="M499.247 451.396v4.272h1.39v-3.946c0-.662.281-.965.886-.965.606 0 1.11.314 1.615.773v4.138h1.39v-5.953h-1.39v.807c-.382-.404-1.099-.919-2.176-.919-1.042 0-1.715.616-1.715 1.793"/><path fill="#141006" d="M505.54 452.675c0 2.063 1.02 3.105 2.545 3.105.639 0 1.267-.258 1.704-.751v2.982h1.379v-6.838c0-.718.045-1.155.18-1.458h-1.424c-.079.168-.135.504-.135.807-.437-.504-1.009-.897-1.895-.897-1.356 0-2.354.987-2.354 3.05m4.249-1.166v2.387c-.37.483-.908.74-1.402.74-1.042 0-1.468-.672-1.468-1.995 0-1.255.538-1.884 1.424-1.884.572 0 1.121.36 1.446.752"/></g><path fill="#141006" d="M204.69755 62.2368h2.88124v2.4466h-2.88124v-2.4466zm.02041 4.55243h2.83839v12.14732h-2.83839V66.78923z"/><g clip-path="url(#b)" transform="matrix(2.04054 0 0 -2.04054 -841.042 996.6)"><path fill="#141006" d="M514.876 452.686c0 2.197 1.446 3.094 2.903 3.094 1.447 0 2.904-.897 2.904-3.094 0-2.175-1.457-3.095-2.904-3.095-1.445 0-2.903.92-2.903 3.095m4.417 0c0 1.11-.471 1.917-1.514 1.917-.997 0-1.513-.718-1.513-1.917 0-1.133.46-1.94 1.513-1.94.999 0 1.514.718 1.514 1.94"/><path fill="#141006" d="M521.135 450.533l.752.841c.448-.382 1.11-.707 1.872-.707.74 0 1.188.191 1.188.684 0 .483-.605.628-1.323.796-1.02.236-2.242.505-2.242 1.884 0 1.043.897 1.748 2.208 1.748 1.133 0 1.828-.324 2.445-.84l-.662-.897c-.437.358-1.144.65-1.681.65-.763 0-1.009-.269-1.009-.605 0-.482.594-.628 1.3-.785 1.021-.224 2.265-.482 2.265-1.872 0-1.256-1.133-1.84-2.489-1.84-1.099 0-2.085.393-2.624.943"/></g><path fill="#141006" d="M91.637 46.151V31.87538h-5.21562v-2.65474h13.29208v2.65474H94.4958V46.151H91.637z"/><g clip-path="url(#c)" transform="matrix(2.04054 0 0 -2.04054 -841.042 996.6)"><path fill="#141006" d="M461.86 465.783v8.297h1.391v-3.15c.381.403 1.098.919 2.174.919 1.043 0 1.716-.617 1.716-1.794v-4.272h-1.39v3.925c0 .661-.281.963-.886.963s-1.11-.314-1.614-.773v-4.115h-1.391z"/><path fill="#141006" d="M468.079 468.754c0 2.264 1.603 3.094 2.837 3.094 1.334 0 2.612-.796 2.612-3.217v-.326h-4.07c.056-1.075.717-1.546 1.592-1.546.773 0 1.222.258 1.67.694l.729-.717c-.617-.684-1.435-1.076-2.5-1.076-1.491 0-2.87.908-2.87 3.094m4.182.583c-.079.908-.527 1.39-1.357 1.39-.672 0-1.289-.381-1.423-1.39h2.78z"/><path fill="#141006" d="M527.642 475.923s.205.308.377.542c.313.426.881 1.015 1.307 1.381.131.111.285.238.285.238s-.241-.025-.378-.052c-.323-.064-.798-.38-1.036-.585-.391-.334-.822-.88-.627-1.364.028-.068.072-.16.072-.16m2.178-.583c.617.042 1.198.221 1.737.521.529.295 1.307.872 1.227 1.551-.026.221-.168.386-.35.464-.236.102-.359.085-.66-.003-.22-.066-.318-.104-.525-.223-.608-.352-1.468-1.107-1.935-1.71-.108-.141-.216-.301-.303-.41-.054-.066-.095-.127-.09-.144.018-.069.657-.061.899-.046m-1.577-1.156c-.063-.068-.13-.232-.201-.349-.037-.063-.106-.145-.152-.176-.161-.119-.297-.125-.454.012-.218.192-.343.492-.352.781-.005.128.016.266-.008.374-.039.18-.219.364-.317.537-.114.205-.205.557-.217.787-.04.712.336 1.367.824 1.886.491.521 1.134.958 1.833 1.253.661.281 1.628.468 2.354.219.236-.083.565-.284.731-.493.035-.045.064-.093.1-.115.032-.021.116-.029.183-.041.232-.041.566-.215.702-.333.272-.235.423-.461.491-.787.14-.66-.239-1.382-.671-1.822-.74-.755-1.47-1.287-2.416-1.659-.415-.163-1.063-.314-1.535-.272-.145.013-.296.052-.439.062-.072.005-.339.074-.367.094-.035.026-.08.051-.089.042m-22.566-1.944c.392.023.636.042.943.175.17.073.366.238.269.435-.057.121-.266.163-.388.155-.411-.029-.707-.331-.848-.736-.005-.015-.003-.03.024-.029m1.72 1.017c.229-.288.333-.625.357-.993.026-.373-.092-.731-.3-1.016-.355-.484-.949-.722-1.544-.768-.082-.006-.569-.019-.693.018-.023.008-.037.017-.049.016-.014-.002-.096-.338-.111-.457-.053-.411-.118-.701-.166-1.025-.039-.257-.067-.532-.09-.807-.135-1.6-.088-2.391.045-3.956.008-.096.013-.206 0-.272-.036-.188-.151-.317-.334-.364-.552-.147-1.08.4-1.352.838-.631 1.021-.424 3.107-.242 4.139.074.426.269 1.373.403 1.716.072.185.186.544.178.561-.008.016-.297.127-.562.228-.099.036-.434.211-.576.3-.295.184-.496.336-.7.564-.062.071-.269.378-.298.447-.165.373-.175.699-.028 1.097.037.102.242.532.378.519.196-.018.153-.344.205-.512.017-.057.071-.155.115-.205.272-.321 1.184-.677 1.558-.789.053-.016.637-.195.724-.154.022.009.133.207.204.328.039.066.081.116.128.167.356.383.881.744 1.403.851.231.047.682.009.91-.121.051-.03.222-.096.437-.35m-5.522-4.537c.016-.001.042-.01.064-.019.268-.118.268-.595.203-.822-.174-.594-.736-1.205-1.185-1.508-.267-.181-.816-.435-1.208-.51-.614-.116-1.156.045-1.485.542-.296.449-.428 1.005-.452 1.526-.067 1.5.406 3.69.988 4.941.078.168.462.949.821 1.076.356.126.512-.29.547-.605.046-.399-.083-.932-.184-1.362-.178-.751-.435-1.929-.496-2.266-.065-.357-.213-1.119-.16-1.511.028-.205.067-.311.224-.297.072.007 1.079.468 1.628.675.207.077.462.159.695.14m-7.447.691s.114-.003.233 0c.376.004 1.005.074 1.005.074s-.07.554-.128.909c-.038.234-.069.381-.12.568-.024.085-.08.322-.141.414-.011.018-.026.039-.026.039s-.304-.589-.474-.996c-.136-.324-.204-.567-.298-.764-.023-.045-.048-.107-.051-.163-.003-.036 0-.081 0-.081m-2.015-.064s.18.405.321.71c.147.323.892 1.819 1.199 2.244.341.472.992 1.363.996 1.389.014.1.036.275.127.414.071.111.247.157.417.169.19.012.385-.129.47-.284.164-.297.444-1.139.503-1.339.327-1.12.679-3.214.795-4.291.03-.281.123-1.753.131-2.083.007-.232 0-.619-.133-.809-.05-.073-.144-.133-.235-.13-.125.003-.373.175-.482.278-.301.282-.501.571-.565.924-.056.308-.133 1.19-.133 1.19l-1.313-.051-.731-.013s-.07-.17-.126-.313c-.122-.304-.232-.609-.28-.78-.095-.342-.28-1.025-.323-1.131-.092-.225-.174-.354-.391-.384-.241-.031-.406-.048-.58.047-.328.18-.477.559-.533.95-.098.669.173 1.207.45 1.999.117.334-.044.445-.32.877-.036.056-.073.115-.08.158-.009.045.033.16.093.208.019.015.025.017.059.02l.664.031zm-7.497 4.324s-.017.423-.052.659c-.03.199-.07.35-.165.504-.104.167-.184.273-.349.297-.203.031-.314-.108-.44-.307-.168-.268-.335-.767-.433-1.083-.143-.449-.203-.725-.28-1.237-.126-.835-.254-2.259-.117-3.228.024-.167.066-.412.066-.412s.202.227.349.385c.063.07.363.517.389.565.052.091.191.327.21.376.029.051.245.515.283.623.073.207.178.527.26.782.189.589.156.807.279 1.458.014.077.026.617.013.618h-.013m-1.433-6.212s.079-.14.142-.245c.349-.583.908-.915 1.582-.95.691-.033 1.578.366 2.084.718 1.446 1.006 2.206 2.819 2.621 4.555.488 2.038.511 4.185-.072 6.157-.337 1.144-.995 2.576-1.809 3.433-.243.255-.614.603-.72.743-.111.147-.137.27.03.367.178.104.567-.107.761-.225.951-.578 1.573-1.152 2.135-1.98.143-.21.713-1.149.818-1.346.639-1.205.967-2.256 1.142-3.586.221-1.695.08-3.619-.507-5.318-.256-.746-.651-1.513-1.064-2.16-.097-.152-.697-.957-.772-1.038-.206-.217-.715-.66-.954-.852-1.191-.956-2.48-1.581-3.893-1.409-.777.095-1.415.354-2.038.86-.239.194-.642.605-.804.895-.104.186-.235.414-.252.417-.018.005-.087-.043-.163-.096-.066-.044-.345-.174-.493-.23-.97-.363-2.056-.278-2.946.301-.646.418-1.193 1.214-1.434 1.933-.357 1.068-.386 2.177-.24 3.314.247 1.928.941 3.757 1.977 5.374.654 1.019 1.501 2.027 2.513 2.749.114.082.731.441.856.5.229.106.532.205.707.018.092-.097.088-.176.021-.304-.108-.199-.382-.469-.533-.631-.132-.14-.877-1.056-1.031-1.268-.169-.229-.926-1.363-1.026-1.538-.956-1.655-1.715-4.279-1.642-6.313.015-.42.078-1.026.172-1.42.128-.532.444-1.253.919-1.588.501-.355.965-.335 1.563-.097.16.065.385.168.385.168s-.174.446-.288.781c-.314.935-.44 2.423-.324 3.447.095.842.282 1.484.662 2.153.304.533.71 1.057 1.22 1.492.49.419 1.274.784 1.965.801.573.015 1.165-.234 1.467-.755.523-.908.556-2.337.409-3.281-.222-1.425-.959-2.763-2.024-3.671-.382-.325-1.122-.875-1.122-.875m45.606 5.265c.028-.006.074-.019.111-.033.331-.126.468-.434.55-.77.189-.783.27-2.515.301-3.193.023-.508.036-1.011.057-1.512.018-.426.053-.994-.036-1.391-.032-.145-.129-.312-.266-.398-.158-.099-.516-.107-.713-.066-.486.101-.644.412-.713.891-.165 1.148-.085 3.397.012 4.346.032.313.15 1.316.314 1.737.056.143.176.428.383.389m-14.963-1.72s-.719-.052-1.213-.106c-.63-.067-1.812-.272-2.495-.517-.204-.073-.62-.247-.656-.457-.038-.219.096-.389.248-.566.087-.101.58-.576.718-.692.579-.483 1.754-1.23 2.62-1.591.297-.123.789-.3.789-.3s-.037 1.402-.031 2.781c.005.726.02 1.448.02 1.448m13.178-.557c.041-.378-.055-1.089-.072-1.183-.03-.214-.193-.714-.221-.775-.131-.303-.261-.553-.398-.799-.236-.424-.797-1.096-1.129-1.384-1.237-1.071-3.152-1.679-4.796-1.879-1.115-.134-2.396-.115-3.577.105-.407.074-1.011.213-1.011.213s.002-.244-.018-.413c-.009-.077-.068-.282-.1-.349-.086-.177-.228-.269-.432-.308-.247-.047-.51-.06-.739.036-.375.159-.51.511-.575.914-.054.325-.109.888-.109.888s-.281.135-.515.25c-.72.356-1.403.784-2 1.226-.166.123-.877.719-1.034.869-.441.415-.837.834-1.138 1.367-.235.417-.302.787-.124 1.228.246.615 1.129 1.079 1.733 1.344.444.195 1.822.646 2.395.729.27.039.689.114.716.131.01.008.018.015.025.024.013.018.036.628.032.851-.006.219.161 1.658.216 1.964.028.163.152.797.281.965.082.112.229.103.35.028.656-.407.857-1.825.905-2.546.029-.438.044-1.1.044-1.1s.753.023 1.217.01c.45-.012.947-.083 1.415-.157.598-.096 1.765-.35 2.434-.69.552-.279 1.067-.749 1.234-1.248.155-.457.133-.773-.104-1.186-.266-.463-.769-.811-1.279-.839-.151-.008-.723.066-.899.203-.069.055-.065.152-.015.218.018.026.285.165.443.249.079.043.144.089.206.145.131.117.249.242.236.391-.018.194-.222.312-.418.39-.913.362-2.738.665-3.62.716-.345.021-.835.037-.835.037l.102-4.868s.407-.078.727-.13c.183-.028.961-.096 1.168-.102 1.572-.043 3.329.098 4.773.781.633.297 1.215.669 1.655 1.172.581.665.885 1.575.805 2.527-.089 1.039-.821 2.271-1.404 3.022-1.542 1.984-4.186 3.616-6.511 4.572-2.374.974-4.722 1.537-7.241 1.63-.65.026-2.067-.009-2.783-.206-.102-.028-.205-.065-.3-.086-.075-.016-.193-.066-.226-.093-.018-.015-.036-.034-.036-.034s.044-.024.087-.043c.076-.032.395-.053.561-.083.147-.028.301-.105.361-.215.058-.102.066-.183-.004-.269-.162-.198-.773-.164-1.041-.121-.28.045-.628.13-.692.373-.074.287.062.568.209.827.296.521.719.79 1.339.96.88.241 1.991.41 2.823.442 1.882.072 3.662-.257 5.484-.811 1.044-.316 2.41-.844 3.41-1.325.717-.348 1.847-.982 2.482-1.399.2-.132 1.373-.994 1.556-1.144.379-.312.876-.758 1.235-1.115.697-.689 1.562-1.747 1.983-2.584.1-.201.179-.399.31-.633.044-.079.237-.556.268-.694.033-.137.078-.336.086-.345.009-.074.097-.484.09-.641m8.106-.355c.036-.003.043-.004.077-.01.576-.078 1.14-.182 1.572-.375.402-.177.636-.4.851-.799.326-.606.347-1.455.053-2.095-.22-.479-.703-.88-1.146-1.093-.457-.222-.909-.327-1.426-.385-.906-.1-1.885.086-2.699.481-.482.237-1.071.642-1.368 1.163-.218.383-.211.882.055 1.244.423.581 1.33.707 2.012.683.522-.018 1.46-.181 1.954-.356.138-.049.643-.247.732-.337.061-.062.102-.154.074-.239-.113-.346-.953-.529-1.195-.565-.65-.098-.987.147-1.725.438-.183.073-.427.151-.615.17-.334.031-.738-.062-.802-.428-.033-.189.189-.364.358-.44.395-.17.717-.229 1.108-.237 1.151-.016 2.444.171 3.385.839.13.092.255.228.257.395 0 .025-.031.206-.089.225-.009.004-.017-.001-.026.002-.021.005-.056.065-.088.103-.067.083-.34.201-.392.223-.635.265-1.808.393-2.412.443-.634.054-1.63.139-1.87.172-.246.036-.513.086-.728.181-.213.097-.423.313-.485.553-.111.432.03.963.271 1.308.628.905 2.101 1.25 3.203 1.386 1.066.131 2.789.13 3.835-.426.161-.085.245-.167.21-.339-.067-.324-.311-.534-.607-.627-.309-.096-.951-.136-1.232-.152-1.263-.072-2.788-.035-3.989-.363-.094-.027-.257-.071-.31-.129-.188-.205.349-.263.465-.288.034-.006.041-.008.076-.012l2.656-.314zm3.938-4.719c-.511.186-.625 1.009-.648 1.424-.08 1.355.278 3.241.731 4.51.13.364.319.953.722.92.279-.025.477-.24.633-.46.4-.562.924-1.327 1.273-1.858.39-.596.762-1.195 1.13-1.738.044-.065.088-.129.138-.17.065-.054.127-.057.152-.007.013.021-.01.704-.028.843-.028.216-.042.394-.065.583-.07.547-.244 1.318-.38 1.839-.151.583-.336 1.19-.473 1.755-.043.182-.084.368-.083.542 0 .253.162.392.426.297.517-.182 1.204-1.306 1.405-1.697.067-.132.337-.803.399-.991.213-.644.344-1.256.403-1.957.058-.682.01-1.678-.279-2.35-.106-.249-.323-.582-.505-.749-.283-.262-.848-.469-1.238-.247-.426.242-1.126 1.455-1.246 1.664-.407.71-1.105 2.096-1.213 2.252-.026.036-.056.068-.109.084-.041.013-.058-.072-.069-.129-.069-.404-.118-2.295-.119-2.346-.01-.318-.027-1.1-.119-1.482-.06-.253-.119-.458-.351-.564-.164-.074-.288-.042-.487.032m7.024.119c-.054.043-.144.135-.21.206-.009.01-.193.287-.23.37-.031.072-.055.125-.078.186-.167.432-.163.856-.071 1.317.087.432.168.45.389 1.044.013.033.022.06.026.096.009.08-.124.627-.13.803-.009.268.198.457.546.495.033.003.057.001.079.008.14.034.227.3.304.515.105.299.271.756.271.756s-.441.101-.675.189c-.263.1-.461.228-.581.469-.141.282-.048.439.245.531.109.034.964.198 1.233.237.337.048.652.091.973.13.279.035 1.555.182 1.962.171.619-.017 1.021-.272 1.384-.796.195-.281.328-.615.034-.795-.453-.274-1.914-.293-2.183-.296-.427-.006-1.018.002-1.018.002l-.297-.994s1.048.009 1.637.012c.142 0 .286-.006.366-.024.301-.068.405-.298.418-.632.015-.389-.058-.569-.368-.621-.16-.025-1.961-.034-2.206-.063-.152-.018-.312-.042-.312-.042s-.13-.339-.242-.682c-.116-.358-.213-.72-.213-.72s.091-.005.167-.005c.127 0 .254.017.356.035.549.1 1.365.221 2.035.328.36.056.542.083.73-.157.165-.212.251-.388.262-.642.01-.24-.172-.4-.397-.571-.708-.542-1.919-1.13-2.821-1.23-.417-.047-.518-.001-.882.095-.069.018-.322.135-.32.148 0 0-.137.093-.183.127m11.381 5.003c-.465-.388-1.064-1.182-1.351-1.592-.38-.545-.741-1.17-1.084-1.655-.076-.108-.297-.497-.29-.511.016-.027.239-.018.468.021.49.083 1.154.425 1.509.709.541.433.919 1.028 1.095 1.726.08.316.12.98-.105 1.274-.044.059-.156.102-.242.028m-3.686-5.69s-.147-.432-.254-.77c-.187-.585-.595-2.156-.692-2.646-.142-.725-.546-2.623-.569-2.666-.027-.054-.046-.072-.116-.115-.167-.099-.233-.066-.436.041-.262.139-.494.281-.693.54-.395.515-.3 1.483-.222 2.052.271 1.988.545 2.865 1.303 4.843.013.032.012.04-.002.071-.237.502-.364 1.109-.364 1.599.002 1.551.894 3.087 1.892 4.318.076.096.567.683.791.671.222-.01.259-.272.225-.489-.112-.718-.617-1.446-.961-2.05-.388-.675-.471-.955-.661-1.574-.03-.097-.107-.547-.103-.607.008-.165.043-.375.043-.375s.632.882 1.047 1.427c.228.298.391.496.58.71.192.218.931.985 1.145 1.188.446.427.645.604 1.129.855.383.198.726.247 1.101 0 .592-.39.85-1.212.917-1.879.078-.8-.085-1.697-.437-2.38-.417-.812-.988-1.4-1.763-1.914-.793-.525-1.722-.883-2.633-.861-.122.003-.267.011-.267.011"/><path fill="#141006" d="M445.71 454.518c-.225.73-.579 1.417-1.042 2.011-.464.589-1.043 1.09-1.709 1.406-.66.317-1.425.423-2.112.236-.696-.169-1.25-.663-1.595-1.213-.193-.302-.334-.624-.44-.949-.179-.464-.327-1.066-.42-1.663-.128-.758-.216-1.523-.353-2.021-.017-.044-.031-.085-.048-.126-.114.082-.234.15-.356.203-.234.098-.469.143-.69.148-.047.003-.092.003-.139 0-.086 0-.173-.011-.257-.029-.752.858-1.547 1.651-2.232 2.255.48.274.841.662 1.063.949.196.205.304.355.308.355.011.018.013.039.005.057-.075.177-.135.342-.186.5-.099.437-.209 1.093-.165 1.745.297.429.609.981.796 1.604.118.357.187.715.226 1.055.098.578.131 1.199.072 1.814.167-.036.337-.057.511-.059.062-.065.13-.122.202-.175.356-.255.768-.346 1.158-.329.378.004.764.111 1.094.333.372.245.646.642.767 1.071.305-.037.673.019.971.263.244.197.376.487.43.79.052.043.099.082.145.126.061.06.117.125.167.19.101.125.188.27.25.435.157.399.186.891.058 1.376.007.006.013.011.017.02.156.34.26.672.314.994.013.068.027.139.039.213.053.373.045.843-.168 1.293-.204.45-.669.823-1.181.929-1.006.218-1.996.082-2.739.056-.098-.008-.193-.012-.283-.018-.24 0-.476 0-.708.007-.296.156-.609.284-.944.373-.614.176-1.27-.028-1.779-.312-.097-.05-.19-.108-.28-.166-.289.01-.539.031-.761.066.124.06.241.125.347.195.267.136.592.346.869.64.149.046.299.094.445.151 1.206.419 2.286 1.422 2.529 2.655.109.498.098 1.007-.025 1.468.383.322.703.841.83 1.589.22 1.308-.741 2.141-1.54 2.112-.801-.026-1.284-.89-1.34-2.035-.002-.05-.006-.121-.011-.204-.117-.009-.231-.024-.342-.045-.036.802-.252 1.739-.783 2.625-.552.94-1.457 1.804-2.604 2.355-.93.455-2.013.704-3.123.685.977.962 1.412 2.291 1.019 3.531-.593 1.866-2.853 2.815-5.046 2.118-2.193-.696-3.49-2.776-2.895-4.645.41-1.293 1.616-2.143 3.046-2.317-.216-.163-.425-.34-.62-.532-.833-.807-1.423-1.858-1.692-2.967-.712 1.509-2.161 2.46-3.676 2.25-1.943-.269-3.261-2.336-2.945-4.615.315-2.278 2.144-3.91 4.086-3.642 1.272.176 2.276 1.124 2.729 2.397.119-.341.265-.663.433-.965 1.15-2.1 3.125-3.209 4.7-3.589-.213-.029-.469-.043-.841-.111-.121-.015-.251-.036-.387-.06-.964-.168-2.231-.549-3.38-1.166-.829-.452-1.603-1-2.206-1.564-.659.121-1.382-.06-1.847-.501-.015-.015-.028-.029-.042-.043-.07.003-.14.003-.208.002-.431 0-.946-.07-1.474-.28-.687-.256-1.36-.762-1.865-1.398-.506-.633-.849-1.42-.883-2.167-.03-.557.09-1.102.349-1.453.074-.107.158-.196.251-.261-.002-.015-.003-.029-.007-.044-.036-.364-.093-.826.135-1.287.26-.464.767-.637 1.239-.757.007-.264.052-.547.203-.823.272-.482.847-.727 1.383-.787.488-.051.974.038 1.398.21.405.146.791.382 1.101.716.311.331.513.775.563 1.233.345-.049.825-.076 1.285.181.531.269.894.888.988 1.509.201 1.169-.252 2.352-.8 2.885.321.337.544.802.548 1.295.359.246.726.5 1.11.71.151.09.303.172.457.249.149.072.301.139.454.199 1.073.467 2.305.559 2.994.609 0-.001.001-.004.001-.007.002-.003.054-.168.105-.448.113-.691.131-1.56-.118-2.454-.287-1.092-1.325-2.059-1.518-3.419-.053-.261-.077-.522-.083-.781-.868-.805-1.947-1.423-3.026-1.914-1.184-.534-2.385-.988-3.559-1.417-2.346-.849-4.693-1.628-6.362-2.803-.828-.573-1.541-1.262-1.811-2.074-.132-.404-.112-.833.052-1.165.157-.338.439-.559.715-.675.562-.231 1.05-.159 1.355-.123.313.05.473.102.473.1 0 .006-.163-.039-.474-.072-.307-.026-.793-.074-1.323.166-.537.207-.954.96-.657 1.722.273.751.972 1.391 1.798 1.935 1.661 1.104 3.832 1.879 6.192 2.692 1.182.412 2.393.838 3.602 1.374.996.445 2.186.858 3.053 1.581.084-.818.331-1.6.585-2.281.123-.331.234-.655.328-.966-.435-.394-.935-.664-1.416-.85-.079.072-.162.142-.246.202-.17.132-.365.254-.593.348-.208.092-.453.149-.71.158-.322.112-.653.175-.985.194-.09.006-.186.012-.286.012-.865-.034-1.959-.528-2.755-1.34-.385-.388-.685-.842-.91-1.298-.504-.941-.754-2.062-.778-3.184.011-1.178.395-2.352 1.111-3.221.787-.787 1.771-1.109 2.6-1.314.734-.206 1.613-.343 2.558-.355.959-.03 2.005.144 2.943.569.58.263 1.135.617 1.586 1.059.291.275.552.597.756.972.357.648.359 1.488.014 2.095-.059.112-.127.214-.201.308-.181.264-.435.512-.731.689-.556.338-1.164.464-1.603.511-.006 0-.013 0-.02.004l-.049.008h-.002c-.064.096-.132.191-.201.287-.013.024-.026.048-.04.072-.069.121-.155.258-.252.402-.048.069-.099.137-.15.208l-.005.02-.016.071s-.029.145-.026.145c.575.162 1.097.378 1.508.586.091.046.176.091.257.136.259.127.499.263.713.406.393.004.82.04 1.247.135.807-.774 1.99-1.965 3.061-3.245.154-.177.3-.347.443-.516v-.038c.005-.101.013-.201.025-.299.057-.595.291-1.315.929-1.837.063-.052.129-.095.196-.141-.001-.086-.001-.169-.001-.252-.005-.427.055-.952.334-1.465.176-.327.447-.629.792-.842.343-.225.765-.317 1.159-.352.871-.071 1.688.144 2.374.444.153.062.303.129.45.2 1.234.61 2.379 1.559 3.254 2.764.867 1.207 1.477 2.654 1.662 4.17.101.764-.009 1.557-.239 2.279"/><path fill="#fff" d="M421.656 459.165l.001.035c.012.012.025.025.037.039.345.372.626.84.75 1.249.068.206.081.376.078.485.003.062 0 .204-.055.23-.006.003-.011.01-.025.006-.006.001-.013.001-.02-.003-.002 0-.004-.003-.004-.003-.01-.006-.014-.014-.018-.015 0-.002-.002-.003-.003-.005-.006-.012-.007-.023-.009-.042-.024-.189-.085-.373-.182-.554-.158-.316-.449-.711-.795-1.082-.134-.148-.278-.286-.416-.422l-.003-.004c-.189-.181-.402-.39-.554-.586-.208-.266-.115-.487-.091-.435.05.108.105.184.197.266.103.093.313.19.449.297.078.062.145.118.216.174-.146-.571-.592-1.097-1.206-1.39-.465-.199-.979-.279-1.442-.228-.531.056-.968.283-1.169.606-.22.349-.228.797-.235 1.157l-.001.057c.034.724-.095 1.277-.164 1.342-.004.009-.011.018-.027.018-.003.001-.004.004-.008.004s-.007-.004-.01-.003h-.001c.003-.001.004.003.006.003h-.007c-.003 0-.003-.004-.005-.004h-.001c-.003-.002-.004-.003-.007-.005h-.002c-.004-.001-.008-.003-.012-.004v-.002c.004.003.01.006.016.006h.002c-.01 0-.015-.007-.022-.013l-.001-.002h-.004v-.003.003c-.005-.004-.005-.01-.008-.018 0 0-.003 0-.003-.001v-.003s.002 0 .002.001c0 0 .001 0 .001-.001v.001c0-.001.001 0 .001-.001h.002c0-.005-.002-.006-.002-.008 0 .002-.004 0-.004.003 0 0 .001 0 .001.003 0-.003-.001-.003-.001-.003v-.009-.008c0-.007.002-.013.004-.021 0-.001.002-.004.002-.004.003-.017.009-.038.015-.067.007-.047.07-.486-.018-1.193.001.009.005.018.012.023-.012-.009-.012-.009-.019-.12 0 0-.003-.056-.005-.099-.49.132-.8.309-.936.54-.206.36-.194.825-.187 1.135.075 1.016.077 1.196.049 1.249-.004.008-.007.005-.011.008-.002.006-.002.01-.007.015-.001 0-.005.003-.008.004h-.003c-.002 0-.003.002-.004.002h.001s-.004 0-.004.001v-.001s-.001 0-.001.001h.001c-.004.002-.007.005-.016.005.002 0 .002-.003.004-.003-.004 0-.006 0-.01.001-.029-.001-.053-.022-.054-.051 0-.014.002-.026.008-.035-.002.003-.003.006-.005.011.005-.033-.037-.274-.077-.506l-.008-.041-.061-.351c-.035.037-.07.074-.101.12-.191.315-.274.809-.22 1.322.066.652.376 1.358.876 1.981.48.605 1.087 1.087 1.711 1.359.523.237 1.006.315 1.348.341-.302-.397-.452-.909-.381-1.36.015-.121.043-.241.082-.364.255-.864 1.042-1.417 2.053-1.436.106-.008.218-.006.343 0 .404.024.997.134 1.53.522.053.035.11.085.173.138.214-.274.394-.666.502-1.118.125-.518.147-1.053.062-1.55-.096-.594-.395-1.094-.799-1.334-.37-.237-.767-.261-1.083-.252"/><path fill="#fff" d="M420.916 466.343c-.1-.104-.196-.208-.276-.31-.098-.133-.175-.273-.233-.42-.206-.444-.189-.858.051-1.226.169-.26.593-.508 1.155-.478.105 0 .209.013.308.031.454.09.889.344 1.299.61-.091-.381-.312-.751-.628-.996-.453-.359-.981-.492-1.344-.54-.116-.014-.24-.023-.369-.023-.861.035-1.52.486-1.759 1.207-.039.124-.063.255-.071.388-.042.482.189 1.006.587 1.34.331.286.794.432 1.28.417"/><path fill="#fff" d="M427.696 451.125c.005 0 .032-.008.084-.018.296-.065 1.196-.258 1.956-.733.264-.157.5-.355.686-.572.064-.092.12-.186.161-.271.281-.553.261-1.247-.05-1.814-.18-.335-.425-.652-.727-.943-.397-.362-.901-.687-1.456-.936-1.791-.825-3.878-.633-5.313-.325-.7.198-1.716.553-2.434 1.314-.619.78-.993 1.911-1 3.028.026 1.122.265 2.167.693 3.021.257.477.561.89.901 1.228.718.737 1.71 1.276 2.531 1.373.121.011.239.012.351.008.078-.005.179-.026.271-.041-.017-.005-.035-.006-.052-.014-.526-.152-.985-.541-1.226-1.035-.256-.501-.317-1.111-.167-1.676.145-.561.504-1.056.984-1.363.542-.347 1.13-.42 1.528-.42.502 0 1.002.18 1.338.485.173.153.315.337.423.547.031.053.056.118.083.18l.002-.009.087-.186c-.002.001.045-.05.045-.05 0-.003.094-.103.094-.103l.199-.211.135-.148.054-.056c-.001 0 .025-.029.024-.027.029-.04.053-.076.079-.114-.078.003-.171.006-.278 0-.125-.01-.102-.09-.006-.119"/><path fill="#fff" d="M426.167 454.841c.047-.033.086-.068.128-.101-.255-.088-.524-.165-.808-.227-.16-.019-.333-.041-.501-.057-.079-.008-.155-.018-.229-.027.047.084.097.148.118.169.003.001.003.004.005.004.002.005.003.006.006.009.004.006.008.011.011.017-.004-.008-.01-.012-.016-.015.01.004.022.015.022.041v.01c-.002.011-.011.014-.017.021-.003.006-.003.013-.007.016-.001.001-.004 0-.006 0-.001.001-.001.003-.003.004.002-.001.001-.003.002-.004-.011.007-.023.006-.035 0 0 0-.001.001-.002.001 0 0 0 .002.001.002.01.007.023.007.034.001 0 .002 0 .002-.001.002l.001-.002c-.005.003-.012.006-.022.006-.007 0-.011 0-.02-.003-.001 0-.003-.001-.004-.001h-.001c-.001 0-.003-.002-.006-.003 0 0 0-.002-.002-.002v.002-.002h-.001c-.001 0 0 0-.001-.001-.083-.035-.298-.182-.406-.508-.124-.346-.126-.914.15-1.403.096-.191.248-.346.452-.463.073-.051.157-.096.249-.137.485-.174.995-.11 1.405-.057h.005c.136.024.255.046.371.07-.009-.018-.017-.037-.026-.055-.111-.207-.256-.384-.432-.522-.301-.25-.724-.382-1.158-.362-.352.014-.868.092-1.329.402-.397.266-.694.687-.815 1.155-.127.475-.081.99.125 1.414.196.416.56.739.996.885.75.284 1.429-.052 1.767-.279"/><path fill="#de1f2a" d="M434.161 457.332c.001.001-.008-.001-.017-.008-.133-.081-.904-.48-1.687-.5-.251.162-.506.31-.758.437-.018.14-.061.328-.167.461-.097.148-.222.275-.322.379-.193.183-.416.356-.682.533-.174.109-.351.21-.528.299-.204.104-.227.101-.242.101-.008 0-.016-.001-.022-.006-.005-.006-.016-.015-.02-.031-.004-.008-.008-.017-.004-.032.003-.021.013-.027.066-.065l.025-.018c.099-.067.303-.207.553-.403.228-.186.413-.351.578-.523-.001.001 0 .001 0 .001.006-.01.017-.022.043-.052.129-.141.245-.29.316-.445-.005.002-.01.005-.015.006l-.054.026c-.373.163-.954.382-1.596.499-.019.003-.026.004-.029.004.003 0 .003-.001.005-.001-.002 0-.005-.002-.008 0-.065.003-.072-.058-.07-.065 0 0 .002 0 .002-.002 0-.006.003-.01.005-.015-.001.002-.004 0-.005.002.002-.002.004 0 .005-.003s.001-.006.004-.008c.013-.017.027-.021.107-.044l.008-.001c.197-.062.721-.224 1.373-.553.437-.219.912-.512 1.374-.849.257-.186.498-.378.716-.568.114-.098.231-.206.348-.314.006-.008.013-.012.019-.02-.653.181-1.661-.015-2.58-.53-.304-.159-.594-.331-.874-.499-.535-.317-1.04-.618-1.453-.702-.035-.006-.075-.006-.115-.008-.002.079-.004.157-.011.248-.015.399-.088.867-.215 1.388-.001.002-.001.002-.001.003v-.003.002c-.001.006-.002.012-.002.013v-.006.005c0 .003 0 .006-.001.009-.092.37-.211.77-.353 1.19-.381 1.141-.7 2.366-.459 3.591.089.678.428 1.281.757 1.861.001.003.005.012.005.012.274.487.558.991.692 1.535.033.137.059.282.081.427.069-.113.146-.222.244-.308.25-.222.595-.399 1.056-.541.758-.228 1.675-.303 2.652-.223.122-.218.325-.403.582-.526.604-.275 1.227-.137 1.545-.028.307.102.598.268.89.504.066-.03.123-.054.177-.072.069-.642.05-1.309-.057-1.984-.062-.3-.137-.578-.22-.825-.159-.543-.505-1.423-1.258-2.528.001.001-.019-.029-.019-.029-.026-.035-.037-.054-.034-.082.008-.06.06-.05.06-.05.006 0 .016.003.021.007.023.012.052.039.164.157.064.071.163.181.276.318.047-.491.174-.927.28-1.205.054-.177.121-.358.197-.541-.046-.059-.131-.163-.26-.299-.4-.343-.786-.61-1.147-.801l-.091.079c0 .154-.007.308-.08.489-.018.055-.079.132-.119.167.002 0-.091.084-.091.084a.9313.9313 0 0 1-.082.073c-.018.016-.034.031-.05.048l-.058.047c-.182.16-.394.323-.617.485.395.095.725.27.929.411.144.096.306.252.363.308.057.056.095.171-.045.107"/><path fill="#fff" d="M427.882 470.228c.001-.003.016-.024.028-.045l.029-.049.032-.051c.055-.089.138-.222.234-.375-.527.136-1.076.349-1.593.632-.128.084-.238.163-.339.239-.175.149-.343.302-.496.457-.431.446-.733.911-.896 1.381-.212.584-.178 1.24.093 1.754.261.512.755.933 1.356 1.16.611.237 1.224.248 1.631.216.224-.018.442-.051.648-.095.314-.082.631-.198.942-.343l.17-.079c.019-.012.047-.007.066.009.018.02.02.052.005.073.001-.002-.094.158-.094.158-.192.325-.368.656-.521.981-.112.27-.195.491-.263.69-.517 1.526-.635 2.837-.348 3.898.101.351.267.646.48.853.264.26.602.325.84.334.525.024 1.09-.165 1.68-.558.213-.145.412-.296.592-.45.259-.25.505-.522.73-.812l.119-.151c.001-.004.003-.004.005-.007.016-.013.037-.015.056-.009.026.006.046.029.042.056l-.017.194c-.012.122-.03.385-.038.602.578-.43 1.076-.959 1.436-1.536.586-.927.766-1.856.813-2.482-.095-.025-.186-.054-.273-.089-.003.322-.041.644-.121.959-.062.256-.145.484-.251.697-.047.087-.12.217-.232.332-.055.07-.176.142-.296.141-.089 0-.162-.04-.217-.115.007.009.018.016.03.016-.015 0-.038-.012-.038-.04 0 .004.002.009.004.016-.117-.236-.092-.445-.069-.648.002-.023.003-.044.007-.065.002-.032.006-.065.008-.095.027-.219.065-.431.102-.634l.013-.076v.006c0-.004 0-.004.069-.387.049-.276.089-.486.129-.672-.205-.199-.325-.369-.371-.433-.013-.016-.054-.093-.022-.117.012-.007.032-.018.072.003.016.006.03.017.063.05.077.076.313.31.686.533.311.192.732.307 1.157.325-.002-.887.25-1.414.755-1.56.352-.1.777-.023 1.15.199.067-.382.058-.788-.037-1.181-.116-.532-.408-1.041-.845-1.473-.414-.409-.939-.736-1.516-.941-1.483-.556-3.216-.565-4.64-.026-.606.221-1.143.571-1.596 1.046-.441.46-.693.918-.836 1.24.261.037.523.059.802.06.121.006.072.083.072.083-.032.065-.361.129-.399.136-.198.036-.501.068-.816-.001-.613-.108-1-.621-1.014-.663-.006-.017-.002-.038.008-.055.002-.003.003-.004.006-.007.01-.009.026-.017.045-.017.005 0 .009.003.012.003.006.003.011.006.016.009l.008.005c.188.119.559.324.963.394.27-.382.44-1.024.505-1.92.033-.402.084-.878.23-1.376.167-.585.417-1.009.766-1.298.386-.326.963-.437 1.507-.29.508.139.908.428 1.244.687.185.145.357.29.502.413.439.371.855.719 1.256.846.002 0 .002 0 .004.001.16.021.287.047.416.073-.122-.108-.245-.213-.388-.317-.136-.087-.285-.165-.438-.235-.013-.006-.029-.016-.039-.03.001 0 .002.002.003.003-.186-.195-.387-.388-.595-.575-.065-.052-.132-.108-.206-.163-.718-.572-1.41-.922-2.057-1.041-.405-.08-.806-.027-1.128.148-.324.169-.577.433-.803.696-.576.718-.671.825-.704.854l-.001.001c-.096.101-.13 0-.084-.08"/><path fill="#fff" d="M434.312 477.307c-.055.024-.113.023-.161.001-.002.016-.008.061-.008.061-.03.205-.059.415-.082.636l-.008.083c-.017.204-.039.443.036.586.016.02.033.027.057.026.098-.011.252-.195.331-.355.1-.191.186-.41.256-.648.123-.413.161-.769.173-1-.074-.033-.146-.07-.212-.109-.103.504-.263.669-.382.719"/><path fill="#de1f2a" d="M431.87 469.789c-.293-.207-.647-.431-1.051-.532-.445-.112-.912-.021-1.214.237-.558.49-.748 1.262-.856 1.963.497-.05.986-.268 1.254-.567.167-.177.297-.377.386-.596.02-.044.027-.061.053-.073.004-.005.01-.005.015-.005.01 0 .016.008.022.014.01.003.019-.001.026.003.008.009.001.02.004.03-.004-.004-.009-.006-.014-.009v.003c.006.003.012.008.014.014.001.001.004.001.004.004s.006.003.006.006c0 .005-.001.008-.002.014v.008c-.032.193-.109.376-.208.555.376-.031 1.17-.146 1.571-.622.137-.168.054-.35-.01-.447"/><path fill="#fff" d="M437.812 468.88c-.004 0 .559.024 1.065-.156.172-.048.359-.128.557-.235.109-.103.204-.2.296-.295-.091.02-.184.041-.261.036-.175-.003-.308-.045-.359-.075 0 0-.115-.101.026-.107h.004c.002 0 .012.003.015.003.082-.003.55-.059.894-.331.107-.071.219-.163.329-.267.085-.109.164-.22.236-.327.379-.658.598-1.293.648-1.885.036-.464-.079-.852-.314-1.063-.279-.26-.672-.297-.946-.242-.086.015-.168.033-.247.048l-.085.018c.001 0-.009.003-.009.003-.136.029-.247.047-.355.059.216.189.244.224.247.243.005.02-.003.044-.022.059-.001.002-.003.002-.003.002-.049.03-.361.003-.582-.172-.252-.186-.281-.525-.246-.576.01-.014.022-.023.036-.024.014-.003.027 0 .039.006s.024.015.028.029c-.001-.002-.003-.006-.004-.009.013.018.172.181.339.3.011 0 .023-.003.032-.004.093-.012.208-.052.34-.094l.058-.018.102-.035c.051-.016.104-.035.158-.05-.176-.58-.709-1.03-1.343-1.121-.428-.039-.833.064-1.142.289-.305.221-.509.579-.547.959-.036.239-.003.472.03.698.02.144.037.272.041.405.015.358-.02.646-.053.823-.018.104-.039.186-.051.228-.023.082-.033.105-.062.114 0 0-.062.016-.073-.082l.002-.008c.039-.339.032-.693-.019-1.052-.011-.097-.035-.198-.059-.307l-.008-.033-.001-.009c-.055-.237-.117-.506-.093-.807.007-.216.076-.444.181-.656-.485.079-.959.31-1.276.645-.209.245-.336.52-.378.813-.111.511-.093 1.042-.079 1.514l.002.083c.004.148.008.288.006.418.02.473-.089.852-.162.956-.046.079-.131.052-.105-.033 0-.004 0-.007.001-.012 0-.004.002-.009.003-.012l.002-.004c0 .001.004-.016.004-.016.004-.013.083-.349.002-.862-.006-.073-.015-.145-.025-.221l-.015-.125c-.054-.414-.126-.977-.046-1.551-.426-.074-.864.089-1.125.427-.31.369-.394.869-.438 1.354-.043.45-.015.897.086 1.332.117.459.317.876.592 1.24.322.431.745.792 1.226 1.042.595.312 1.103.401 1.552.272.394-.104.788-.287 1.197-.536-.166.002-.34-.017-.37-.06-.014-.022-.011-.046.001-.062.01-.015.026-.021.032-.021-.004 0-.007.001-.011.003l.028-.011c.398-.109.651-.208.794-.275.123-.045.256-.106.397-.183.073-.057.149-.122.228-.187-.186.032-.382.042-.592.011-.118-.02-.384-.082-.412-.138 0 0-.048-.068.062-.083"/><path fill="#fff" d="M434.948 462.74c-.281-.069-.826-.153-1.316.074-.252.11-.446.308-.502.518-.041.15-.013.296.08.425.175.299.425.525.646.714.265-.095.551-.118.809-.06.094-.349.281-.671.517-.882.166-.174.361-.322.579-.442-.278-.164-.544-.281-.813-.347"/><path fill="#de1f2a" d="M430.39 454.311c.118-.092.29-.234.49-.403-.639-.118-1.261-.156-1.715-.162.391.134.813.343 1.225.565"/><path fill="#fff" d="M441.934 466.94c.171-.462.186-.964.045-1.384-.056-.17-.143-.332-.261-.477-.036-.042-.068-.076-.098-.106-.003-.003-.005-.003-.005-.004.006.099.006.199-.002.297-.063.675-.332 1.352-.795 2.011-.283.453-.65.906-1.091 1.349.471-.015.95-.194 1.357-.511.404-.314.705-.731.85-1.175"/><path fill="#fff" d="M438.237 444.99c-.725.026-1.394.408-1.748.999-.235.379-.363.83-.394 1.38v.059c.378-.18.797-.246 1.192-.175.563.094 1.094.468 1.419 1.001.571.946.578 2.239.018 3.213-.146.256-.344.488-.572.677.009.02.017.041.026.062l.015.042c.24.544.417 1.411.523 2.041l.017.112.014.088c.085.524.166 1.021.269 1.427.113.339.255.638.435.91.371.568.891.953 1.462 1.086 1.342.347 2.728-.54 3.507-1.574.433-.577.772-1.239.981-1.917.225-.728.299-1.451.219-2.145-.172-1.405-.721-2.798-1.588-4.025-.817-1.146-1.896-2.08-3.118-2.707-.119-.059-.249-.119-.388-.179-.808-.313-1.579-.438-2.289-.375"/><path fill="#fff" d="M435.083 449.423l.116-.139.476-.569c-.002.002-.003.006-.005.007.008-.014.023-.024.04-.024-.007 0-.014.001-.019.004.379-.216.834-.092 1.095.115.092.068.179.147.258.239.18.18.333.414.443.674.181.433.231.911.139 1.341-.018.101-.051.21-.102.346.001-.005.002-.009.002-.014 0 .019-.009.026-.014.031.003-.002.005-.005.007-.006-.063.105-.11.16-.155.211l-.016.02c-.017.021-.035.04-.054.068-.112.14-.227.278-.34.411l-.016.019c.001-.003-.074.089-.074.089-.001.002-.065.076-.112.129.02.001.041.004.06.006.076 0 .14 0 .199-.008.468-.065 1.09-.376 1.428-1.063.217-.404.333-.904.33-1.407-.004-.531-.141-1.033-.393-1.445-.272-.44-.703-.756-1.155-.842-.45-.09-.946.024-1.329.31-.64.482-.845 1.193-.913 1.624l.104-.127z"/><path fill="#141006" d="M432.063 476.825c.009-.029.02-.054.031-.083.229-.636.518-1.085.937-.973.362.097.526.642.467 1.4-.001.035-.003.071-.006.108-.036.456-.148.977-.341 1.515-.099.267-.217.541-.393.793-.166.234-.424.532-.808.464-.203-.052-.286-.247-.326-.392-.039-.152-.05-.306-.054-.459-.003-.303.034-.598.082-.876.1-.56.255-1.069.411-1.497"/><path fill="#141006" d="M441.313 449.896c.004-.005.008-.006.011-.009 0 0 0 .003-.002.003.005 0 .014-.008.017-.008-.003 0-.007-.001-.011.002.008-.006.016-.008.022-.008h.002c.004.002.008.002.011.002-.003 0-.005.003-.007.003.013.003.026.01.028.024.003.012-.002.027-.012.036h-.001c-.054.049-.857 1.014-1.346 2.096-.558 1.111-.921 2.324-.923 2.335.002-.008-.002-.014-.007-.02.005.006.009.012.006.02-.003.014-.013.024-.025.027-.014.003-.027-.003-.037-.012.001 0 0 .002.001.003-.001-.001-.001-.003-.002-.004h-.001c-.004-.005-.006-.014-.004-.025-.001.006.002.011.004.015-.002-.004-.001-.019-.002-.027 0 .002-.001.002-.002.003.002-.004.002-.006.002-.01-.009-.117.055-.52.115-.795.09-.424.263-1.059.566-1.663.489-1.077 1.41-1.888 1.597-1.988"/><path fill="#141006" d="M417.775 462.72c-.395-.411-.625-.955-.613-.955.002.002.392.41.773.804.373.405.734.849.73.855-.003.004-.503-.289-.89-.704"/><path fill="#141006" d="M418.247 464.243c.001.011-.45-.038-.83-.26-.388-.213-.647-.59-.638-.593.005 0 .383.209.746.403.356.208.722.447.722.45"/><path fill="#141006" d="M418.348 460.943c.003 0 .283.412.507.835.219.431.373.905.368.911-.005.003-.341-.374-.562-.811-.229-.432-.324-.932-.313-.935"/><path fill="#141006" d="M432.704 462.142c-.189.059-.393.03-.593-.079-.149-.083-.29-.208-.417-.367-.015-.018-.03-.036-.044-.053-.264-.335-.461-.802-.543-1.327-.06-.506-.083-1.145.369-1.608.242-.226.638-.214.884-.039.252.165.411.406.533.641.239.478.329.969.355 1.386.002.02.003.043.004.059.042.66-.111 1.254-.548 1.387"/><path fill="#141006" d="M435.146 459.22c.164.172.274.373.361.571.171.388.23.793.204 1.133-.008.326-.081.639-.211.864-.087.151-.192.246-.306.278-.11.03-.225.008-.34-.062-.177-.112-.341-.335-.471-.627-.144-.296-.25-.666-.297-1.068-.024-.213-.032-.438-.001-.666.038-.218.083-.493.353-.648.297-.13.559.065.708.225"/><path fill="#141006" d="M428.038 450.787h.002c-.148.074-1.628.227-3.001-.239-.757-.226-1.436-.604-1.872-.882-.251-.162-.446-.303-.566-.394-.225-.171-.223-.18-.22-.201.002-.017.017-.029.034-.03.005 0 .023.01.031.013-.001 0 0-.001-.001-.003.001.002.006.005.007.006.013.005.021.006.047.02 1.178.645 2.088.976 2.643 1.141 1.319.45 2.782.522 2.882.5.082.004.062.049.014.069"/><path fill="#fff" d="M432.564 479.446c.171-.237.293-.517.382-.733.19-.494.323-.997.38-1.454.011-.088.018-.167.022-.239.022-.497-.068-.851-.233-1.008.023.198-.004.454-.118.762-.139.374-.349.649-.575.755-.11.05-.219.057-.319.021-.02-.007-.037-.03-.056-.042-.073.291-.135.577-.176.847-.049.328-.069.596-.063.839.007.139.026.568.204.619.193.042.418-.171.552-.367"/><path fill="#fff" d="M431.658 458.916c-.352.346-.345 1.006-.309 1.37.056.482.212.928.44 1.257.001.001.002.001.003.003 0 0 0 .001.002.003.001.001.004.006.008.011 0 .001.002.004.004.006v.003c.121.155.251.271.387.347.158.086.318.109.462.067.302-.094.472-.567.431-1.21-.001-.011-.004-.023-.005-.037 0-.007-.001-.015-.002-.021-.042-.332-.144-.823-.4-1.288-.141-.253-.293-.426-.461-.531-.185-.122-.413-.113-.56.02"/><path fill="#fff" d="M435.148 461.896c.068-.018.139-.086.203-.196.107-.189.176-.481.188-.783 0-.331-.09-.695-.252-1.022-.102-.204-.21-.365-.332-.486-.114-.12-.286-.221-.396-.166-.142.07-.197.355-.211.441-.029.185-.036.381-.019.603.027.403.109.771.237 1.068.111.241.242.414.38.5.07.044.14.058.202.041"/></g></svg>