<svg xmlns="http://www.w3.org/2000/svg" role="img" viewBox="-4.49 -4.49 185.99 233.74"><title>three.js logo</title><g fill-rule="evenodd" stroke="#000" stroke-linecap="butt" stroke-linejoin="round" stroke-width="4" transform="translate(-17.807 -23.67)"><path d="M63.02 200.61L19.807 25.67l173.23 49.874z"/><path d="M106.39 50.612l21.591 87.496-86.567-24.945z"/><path d="M84.91 125.03L74.186 81.565l43.008 12.346z"/><path d="M63.458 38.153l10.724 43.465-43.008-12.346z"/><path d="M149.47 62.93l10.724 43.465-43.008-12.346z"/><path d="M84.915 125.06l10.724 43.465-43.008-12.346z"/></g><g fill="#000" transform="translate(-26.771 -27.923)"><path d="M41.42937 227.42779h7.84v2.76h-7.84v8.64q0 1.4.2 2.28.2.88.64 1.44.48.52 1.2.72.72.2 1.76.2 1.44 0 2.32-.24.88-.24 1.68-.64l.48 2.8q-.56.24-1.8.64-1.2.4-3 .4-2.08 0-3.4-.48-1.32-.48-2.08-1.44-.72-.96-1-2.36-.28-1.44-.28-3.32v-8.64h-3.92v-2.76h3.92v-5.2l3.28-.56z"/><path d="M54.54929 245.98779v-27.16l3.32-.56v9.44q.8-.32 1.8-.48 1-.2 1.96-.2 2.12 0 3.52.64 1.44.6 2.28 1.72.84 1.12 1.2 2.68t.36 3.44v10.48h-3.28v-9.76q0-3.44-.96-4.84-.96-1.44-3.44-1.44-1.04 0-2.04.24-.96.2-1.4.4v15.4z"/><path d="M75.98921 245.98779v-17.56q4.08-1.4 8.24-1.4 1.28 0 2.44.12 1.16.08 2.56.4l-.6 2.92q-1.28-.36-2.28-.44-.96-.12-2.12-.12-2.44 0-4.96.68v15.4z"/><path d="M102.06914 226.98779q3.76 0 5.8 2.36 2.04 2.32 2.04 7.08v1.16h-13.28q.2 2.88 1.88 4.4 1.72 1.48 4.8 1.48 1.76 0 3-.28t1.88-.6l.44 2.8q-.6.32-2.16.68-1.56.36-3.52.36-2.4 0-4.24-.72-1.8-.76-3-2.04t-1.8-3.04q-.6-1.8-.6-3.88 0-2.48.76-4.32.76-1.84 2-3.04t2.8-1.8q1.56-.6 3.2-.6zm4.48 7.92q0-2.36-1.24-3.72-1.24-1.4-3.28-1.4-1.16 0-2.12.44-.92.44-1.6 1.16t-1.08 1.64q-.4.92-.52 1.88z"/><path d="M122.06906 226.98779q3.76 0 5.8 2.36 2.04 2.32 2.04 7.08v1.16h-13.28q.2 2.88 1.88 4.4 1.72 1.48 4.8 1.48 1.76 0 3-.28t1.88-.6l.44 2.8q-.6.32-2.16.68-1.56.36-3.52.36-2.4 0-4.24-.72-1.8-.76-3-2.04t-1.8-3.04q-.6-1.8-.6-3.88 0-2.48.76-4.32.76-1.84 2-3.04t2.8-1.8q1.56-.6 3.2-.6zm4.48 7.92q0-2.36-1.24-3.72-1.24-1.4-3.28-1.4-1.16 0-2.12.44-.92.44-1.6 1.16t-1.08 1.64q-.4.92-.52 1.88z"/><path d="M144.66898 243.42779q0 1.2-.8 2.12-.8.92-2.12.92-1.36 0-2.16-.92t-.8-2.12q0-1.24.8-2.16.8-.92 2.16-.92 1.32 0 2.12.92t.8 2.16z"/><path d="M164.02891 224.54779q-1.04 0-1.8-.72t-.76-1.96q0-1.24.76-1.96t1.8-.72q1.08 0 1.8.72.76.72.76 1.96t-.76 1.96q-.72.72-1.8.72zm-7.76 5.64v-2.76h10.8v18.36q0 1.92-.56 3.24-.52 1.36-1.44 2.2-.88.84-2.08 1.2-1.16.36-2.48.36-1.52 0-3.08-.32-1.52-.32-2.88-1l1-2.8q1 .48 2.2.8 1.24.36 2.36.36 1.6 0 2.64-.84 1.04-.8 1.04-3.16v-15.64z"/><path d="M185.74883 241.34779q0-1-.84-1.64-.8-.64-2.04-1.12-1.2-.48-2.64-.92-1.44-.48-2.68-1.16-1.2-.68-2.04-1.68-.8-1-.8-2.6 0-2.24 1.8-3.72 1.84-1.52 5.72-1.52 1.52 0 3.12.24 1.64.2 2.8.56l-.6 2.96q-.32-.16-.88-.32-.56-.2-1.28-.32-.72-.16-1.56-.24-.8-.08-1.56-.08-4.32 0-4.32 2.36 0 .84.8 1.44.84.56 2.08 1.04 1.24.48 2.68 1 1.44.48 2.68 1.2 1.24.72 2.04 1.76.84 1 .84 2.56 0 2.52-1.96 3.92-1.96 1.36-6.2 1.36-1.92 0-3.52-.32t-3.04-.96l.64-3q1.4.64 2.92 1.08 1.56.4 3.32.4 4.52 0 4.52-2.28z"/></g></svg>