<svg xmlns="http://www.w3.org/2000/svg" role="img" viewBox="-0.89 -0.89 46.09 9.96"><title>tlRender logo</title><g stroke-width=".265" transform="translate(-90.93 -63.692)"><path d="M94.5634 71.68137q-.27388.07235-.59944.11886-.3204.0465-.5736.0465-.88367 0-1.3436-.47541-.45991-.47543-.45991-1.52445v-3.06958h-.65629v-.81648h.65629V64.302h.97151v1.6588h2.00504v.8165h-2.00504v2.63032q0 .45475.02067.71313.02067.25321.1447.47542.11369.2067.31005.30489.20154.09302.60979.09302.2377 0 .49609-.06718.25838-.07235.37207-.11886h.05168z"/><path d="M96.7183 71.73305h-.97151v-8.04083h.97151z"/><path d="M105.08469 71.73305h-1.32808l-2.57348-3.05924h-1.44177v3.05924h-1.02319v-7.6946h2.15491q.69762 0 1.16271.09302.46509.08785.83716.3204.41857.26354.65112.66662.23771.3979.23771 1.01285 0 .832-.41858 1.39526-.41858.5581-1.15238.84232zm-2.39261-5.52936q0-.33073-.11886-.58394-.11368-.25839-.3824-.43409-.22221-.14986-.5271-.2067-.30489-.06201-.7183-.06201h-1.20406v2.9042h1.03353q.48576 0 .84749-.08267.36173-.08785.61495-.3204.23254-.21704.34106-.49609.11369-.28422.11369-.7183z"/><path d="M110.57271 68.9477h-4.25296q0 .53226.1602.93017.1602.39274.43925.64595.26872.24805.63562.37207.37207.12403.81648.12403.58911 0 1.18339-.23255.59944-.2377.85266-.46509h.0517v1.05937q-.49092.2067-1.00252.34623-.51159.13953-1.07486.13953-1.4366 0-2.24275-.77515-.80615-.78031-.80615-2.21174 0-1.41593.76997-2.24792.77515-.83199 2.03605-.83199 1.16788 0 1.79833.68213.63562.68213.63562 1.93786zm-.94567-.74414q-.005-.76481-.38758-1.18339-.37723-.41858-1.15238-.41858-.78031 0-1.2454.45992-.45991.45992-.52193 1.14205z"/><path d="M116.87205 71.73305h-.97152v-3.28661q0-.39791-.0465-.74414-.0465-.3514-.17054-.54777-.12919-.21704-.37207-.3204-.24287-.10851-.63045-.10851-.3979 0-.83198.19637-.43408.19637-.83199.50126v4.3098h-.97152V65.9608h.97152v.64078q.45475-.37723.94051-.5891.48575-.21188.99735-.21188.93534 0 1.42626.56327.49093.56328.49093 1.62264z"/><path d="M123.4246 71.73305h-.97152v-.60462q-.41857.36174-.87333.56328-.45475.20153-.98701.20153-1.03353 0-1.64331-.79581-.60461-.79582-.60461-2.20658 0-.7338.20671-1.3074.21187-.57361.56843-.97669.3514-.39274.81649-.59944.47025-.2067.97151-.2067.45475 0 .80615.09818.3514.09302.73897.29456v-2.50114h.97152zm-.97152-1.4211V66.9995q-.39274-.1757-.70279-.24288-.31006-.06718-.67696-.06718-.81649 0-1.27124.56844-.45475.56844-.45475 1.6123 0 1.02836.3514 1.5658.3514.53226 1.12654.53226.41341 0 .83716-.18087.42374-.18603.79064-.47542z"/><path d="M130.16835 68.9477h-4.25296q0 .53226.1602.93017.1602.39274.43925.64595.26871.24805.63562.37207.37206.12403.81648.12403.58911 0 1.18339-.23255.59944-.2377.85266-.46509h.0517v1.05937q-.49092.2067-1.00252.34623-.51159.13953-1.07486.13953-1.4366 0-2.24275-.77515-.80615-.78031-.80615-2.21174 0-1.41593.76997-2.24792.77515-.83199 2.03605-.83199 1.16788 0 1.79833.68213.63562.68213.63562 1.93786zm-.94568-.74414q-.005-.76481-.38757-1.18339-.37723-.41858-1.15238-.41858-.78031 0-1.2454.45992-.45992.45992-.52193 1.14205z"/><path d="M135.24296 67.02017h-.0517q-.21704-.05168-.42374-.07235-.20154-.02584-.48059-.02584-.44959 0-.86816.20154-.41858.19637-.80615.5116v4.09792h-.97152V65.9608h.97152v.85266q.57877-.46509 1.01802-.65629.44442-.19637.90433-.19637.25322 0 .36691.0155.11368.01034.34106.04651z"/></g></svg>