<svg xmlns="http://www.w3.org/2000/svg" role="img" viewBox="1.97 -3.03 339.31 430.56"><title>Tuttle OFX logo</title><defs><style>.cls-2{fill:#2c7408}.cls-3{fill:#2c7508}.cls-4{fill:#43a212}.cls-9{fill:#bdd933}.cls-12{fill:#1e4e05}.cls-18{fill:#bed933}</style></defs><path fill="#010101" d="M208.926 187.182q0 38.306.007 76.612c.003 4.49-1.52 9.422 6.138 9.904 3.637.23 4.264 4.675 4.246 8.299-.058 11.917-.105 23.835.015 35.751.057 5.745-2.076 9.1-8.247 9.097-25.44-.013-50.882-.124-76.321.109-7.987.073-9.773-3.975-9.505-10.925.341-8.84-.255-17.72.195-26.55.328-6.435-3.484-14.927 7.528-17.197 2.075-.428 1.22-4.295 1.222-6.618q.043-78.144-.026-156.288c-.018-9.443-10.005-18.905-19.346-18.91-9.5-.004-19.002-.072-28.501.036-5.353.061-11.738-2.09-13.216 6.543-.43 2.51-3.667 2.714-6.089 2.726-9.533.048-19.068-.05-28.6.068-5.59.07-8.168-2.703-8.176-8.059q-.055-38.816-.019-77.632c.006-5.41 2.868-8.134 8.252-8.15 9.194-.028 18.387-.015 27.58-.01 2.834 0 6.64.503 7.02 3.07 1.313 8.871 7.707 6.488 12.96 6.575 8.51.14 17.03.225 25.535-.026 6.066-.18 13.576 3.045 15.863-7.01.658-2.893 5.136-2.63 8.238-2.63q36.774.016 73.547.005c3.112 0 7.406-.123 8.087 2.934 1.972 8.857 8.42 6.704 14.092 6.747q12.768.098 25.537-.003c5.308-.047 10.798 1.884 13.2-6.418 1.523-5.26 38.4-4.885 41.389-.03a13.612 13.612 0 0 1 1.466 6.804c.1 24.516-.06 49.033.137 73.547.059 7.297-2.633 10.718-10.21 10.349-7.134-.348-14.299-.007-21.448-.094-5.617-.068-11.898 1.409-13.304-7.188-.615-3.755-4.525-2.032-6.93-2.074-10.516-.187-21.038 0-31.556-.102-10.29-.1-20.717 9.825-20.74 20.127-.059 25.537-.02 51.074-.02 76.61z"/><path d="M170.334 321.905c-10.84.598-21.572-.624-32.345-1.585-4.693-.419-6.637-1.887-6.522-6.682.22-9.139.383-18.301-.052-27.424-.305-6.378 3.044-7.435 8.102-7.111 2.296-3.43 1.12-7.28 1.127-10.91.093-46.924.015-93.849.089-140.774.023-14.607 12.098-25.744 25.967-24.272 2.832 3.481 2.35 7.677 2.356 11.699q.096 75.837.044 151.675c0 5.495-1.847 10.461-3.225 15.688-3.21 12.176-6.928 24.994 3.124 36.267a4.108 4.108 0 0 1 1.335 3.429z" class="cls-2"/><path d="M139.553 97.338c-7.072-1.16-8.486-6.091-8.13-12.202-11.585-2.56-23.323-.617-34.98-1.154-11.391-.525-22.555-11.1-23.354-22.434a4.644 4.644 0 0 1 1.99-4.359c16.452-3.359 33.223-2.541 49.584-1.148 24.082 2.05 48.09.677 72.114 1.382 4.745.14 9.498.005 14.248-.05a4.389 4.389 0 0 1 3.276 1.776c2.676 8.753 3.689 17.445-1.04 25.906.17 6.034-.692 11.352-8.314 11.978a9.707 9.707 0 0 1-2.35-5.471c-2.151-14.347-2.16-14.345-16.548-17.936-5.726.19-11.37-1.233-17.096-.761-6.506.619-8.04 4.77-8.145 10.56-.094 5.208 1.323 10.948-3.485 15.165-6.121 2.27-12.105 2.736-17.77-1.252z" class="cls-3"/><path d="M170.334 321.905q-.18-.742-.374-1.48c.331-.433.662-.865.989-1.304 12.829-4.11 12.879-4.11 12.83-17.89-.027-7.694.957-15.549-3.04-22.753a20.038 20.038 0 0 1-.944-3.593c-1.073-55.229-.36-110.444-.388-165.658-.002-3.392.37-6.79 2.491-9.691 3.612-3.155 7.406-3.131 11.337-.653 3.657 5.117 2.756 11.053 2.766 16.742q.13 72.798.006 145.596c-.01 7.03.362 13.658 7.201 17.8a11.514 11.514 0 0 1 1.698.448c5.356 13.503 5.143 27.026.143 40.565-11.478 2.353-23.08 2.436-34.715 1.87z" class="cls-4"/><path d="M306.867 60.323c.11 3.033.394 6.072.301 9.1-.887 29.075 5.16 23.009-24.777 24.023-6.61.224-8.312-2.74-7.863-8.413-9.24-2.365-18.707-1.438-27.939-.847-12.825.822-21.268-4.136-26.778-15.367a42.678 42.678 0 0 0-6.427-10.22l-.256-.233c-1.175-1.8-.795-3.32.83-4.621a6.828 6.828 0 0 1 5.308.058c4.122 2.13 8.61 1.95 12.995 1.737 21.756-1.061 43.387 1.755 65.099 1.977 3.408.034 6.841.169 9.507 2.806z" class="cls-2"/><path d="M203.208 279.022c-8.995 1.794-10.577-2.655-10.537-10.712.28-56.334.128-112.67.114-169.006a2.141 2.141 0 0 1 .72-3.047c3.54-1.63 6.912-1.928 9.832 1.267z" class="cls-3"/><path fill="#43a112" d="M306.926 25.817l-.08 12.444c-4.262 3.641-9.454 2.61-14.346 2.674-6.35.084-12.669-.005-18.55 2.938a268.584 268.584 0 0 1-56.45.225 7.672 7.672 0 0 1-3.141-2.212c-1.894-3.782-1.987-7.413.926-10.78 14.11-4.681 28.661-1.377 42.99-2.26 6.057-.374 12.241.137 16.17-5.885 11.145-2.636 22.374-6.245 32.481 2.856z"/><path d="M68.257 85.185c.612 5.799-1.327 8.185-7.808 8.325-24.309.522-24.765.35-24.836-24.057-.013-4.364.071-8.728.11-13.092 7.322 1.47 14.745.995 22.136 1.212 4.02.118 8.217-.15 11.339 3.248 2.823 8.244 3.638 16.41-.94 24.364z" class="cls-2"/><path fill="#2a7108" d="M131.479 21.654c.08-6.203 1.835-10.174 9.407-10.048 21.024.35 42.057.096 63.087.15 2.892.007 6.402-.902 7.338 3.445a12.088 12.088 0 0 1 .33 8.729 8.296 8.296 0 0 1-3.158 1.922c-25.186 1.038-50.381 2.794-75.513-.925a3.243 3.243 0 0 1-1.491-3.273z"/><path fill="#1e4f05" d="M139.553 97.338l18.6-.177c2.964-2.599 6.41-2.44 9.954-1.757a7.432 7.432 0 0 1 2.596 1.421 5.531 5.531 0 0 1 .823 2.795 5.065 5.065 0 0 1-1.268 2.592 5.723 5.723 0 0 1-4.124 1.124c-19.392 6.76-24.401 13.537-24.401 33.015 0 43.773.048 87.547-.084 131.32-.012 3.83 1.748 8.23-2.131 11.432q.016-90.882.035-181.765z"/><path fill="#296e07" d="M211.215 23.647l.095-8.443c1.85 4.878 4.847 6.966 10.572 6.713 12.857-.568 25.758-.04 38.637-.238 6.167-.095 13.89 2.842 15.414-7.69.394-2.726 4.534-2.235 7.219-2.27 3.389-.046 6.78-.02 10.17-.016 13.913.015 13.913.016 13.605 14.114-10.507-4.247-21.473-1.171-32.193-2.018a13.507 13.507 0 0 1-8.47 2.978c-15.575.359-31.153.38-46.727-.02-3.06-.08-6.095-.617-8.322-3.11z"/><path d="M274.431 41.787c.559-4.525 4.052-3.767 6.982-3.761 8.478.017 16.955.148 25.432.235l.05 15.93c-10.743 5.38-21.65 4.078-32.613.799-3.25-4.437-2.88-8.836.15-13.203z" class="cls-9"/><path fill="#2a6f08" d="M131.479 21.654l.114 2.155c-.494.427-.989.854-1.479 1.289-11.338 3.52-22.98 1.291-34.477 1.697-9.175.325-18.382.323-27.572-.097-10.287-.749-21.036 3.04-30.773-3.114-1.62-9.147 1.606-13.421 11.396-11.967 3.99.593 8.14.087 12.218.13 2.39.025 5.915.009 6.172 2.39 1.101 10.174 8.494 7.537 14.452 7.569 16.649.09 33.3-.02 49.949-.052z"/><path fill="#419f12" d="M37.292 23.584l30.68.185c2.588 2.5 3.423 5.742 3.901 9.15.142 3.268-.985 5.776-4.219 7.02a90.102 90.102 0 0 1-28.865.105 9.582 9.582 0 0 1-3.015-2.049c.149-4.841-1.349-9.856 1.518-14.411z"/><path d="M68.257 85.185l-.2-24.786a4.583 4.583 0 0 1-1.255-4.852 4.288 4.288 0 0 1 1.637-2.006 4.307 4.307 0 0 1 3.77.403 5.262 5.262 0 0 1 1.978 4.586c9.201 24.073 15.898 25.284 33.657 24.613 7.79-.294 16.07-2.513 23.58 1.993l-63.167.049z" class="cls-12"/><path fill="#44a213" d="M203.337 97.524l-10.504-.175c-2.457 1.219-4.849 1.504-7.086-.493-3.073-8.758-3.843-17.452.726-25.996a32.648 32.648 0 0 1 3.878.737c14.767 4.643 14.766 4.654 14.689 20.45-.008 1.663-.06 3.325-.092 4.986a5.279 5.279 0 0 1-1.611.49z"/><path fill="#47a413" d="M274.536 54.085l32.36.106-.029 6.132c-27.322 1.121-54.51-3.603-81.845-1.85-3.286.21-5.984-.766-7.808-3.648.425-.503.851-1.005 1.273-1.514 18.725-3.017 37.433-4.438 56.049.774z"/><path d="M213.384 58.598c4.908.248 6.548 3.663 8.309 7.651 5.12 11.6 13.233 17.925 27.03 16.987 8.462-.574 17.507-2.719 25.805 1.797q-30.634.01-61.267.022l.123-26.457z" class="cls-12"/><path fill="#2b7208" d="M205.05 320.034l-.143-40.565c6.142-1.245 8.65 1.07 8.35 7.49-.393 8.432-.414 16.914.009 25.344.317 6.328-2.047 8.794-8.217 7.731z"/><path fill="#4ca515" d="M68.292 54.621l-.234 5.779c-7.655.026-15.316-.147-22.959.163-4.022.163-7.128-.835-9.376-4.202q.026-9.182.05-18.365.9.005 1.797.056c2.226 11.45 9.395 15.073 20.434 13.49 3.549-.508 7.574-.308 10.288 3.08z"/><path d="M166.134 103.336a4.43 4.43 0 0 1 4.055-2c3.412 3.1 3.33 7.318 3.33 11.344.008 54.284.432 108.57-.166 162.85a97.422 97.422 0 0 0-.049 3.953c.452 9.708.155 19.422.133 29.135-.01 4.026-.11 8.095-3.068 11.356l-.407.448c-7.924.71-10.854-2.76-10.028-10.714.664-6.389-.022-12.906.188-19.357.145-4.443-1.579-9.288 4.432-12.274 3.143-1.561 1.58-6.268 1.584-9.562q.07-82.59-.004-165.18z" class="cls-4"/><path fill="#48a413" d="M74.187 58.53l-2.257-3.634c.4-.505.801-1.011 1.198-1.522 7.692-3.755 15.92-1.932 23.91-2.091 11.117-.222 22.251-.359 33.373.105 1.272.004 2.545.013 3.818-.01 25.38.276 50.788-1.49 76.147.984a6.098 6.098 0 0 1 2.93 2.43l-.177 3.574c-2.968 2.025-6.31 2.162-9.76 2.153-21.744-.054-43.625 1.485-65.192-.463-21.395-1.933-42.673-.87-63.99-1.526z"/><path d="M186.473 70.86l.132 26.354c-1.325 1.315-3.236.982-4.774 1.707-4.095 1.378-7.987 1.332-11.46-1.634l-.246.12c-4.405-8.935-4.47-17.861.056-26.777 5.453-1.47 10.86.284 16.292.23z" class="cls-18"/><path fill="#41a112" d="M170.181 70.63l-.055 26.776q-5.988-.121-11.974-.244c-.028-4.757.445-9.58-.19-14.254-1.329-9.777 2.365-13.935 12.219-12.278z"/><path d="M170.578 277.064l-.389-175.73.257.105c3.16-2.944 7.306-2.234 11.059-2.987l1.222.82-.247 177.824c-3.976 3.147-7.944 3.277-11.902-.032z" class="cls-18"/><path d="M170.369 319.974l.226-40.766c4.093-1.729 8.227-1.394 12.378-.255 3.605.354 3.967 2.862 3.954 5.76-.044 9.713-.16 19.43.041 29.138.099 4.798-1.963 6.712-6.572 6.457-3.339-.184-6.685-.227-10.027-.334z" class="cls-9"/><path fill="#add02f" d="M182.973 278.953l-12.379.254-.017-2.143 11.903.032q.261.924.493 1.857z"/><path fill="#3c8410" d="M182.758 97.5l3.847-.285 6.228.133q-.034.979-.048 1.956l-10.059-.031-.312.17q-.919-.831-.46-1.418a1.098 1.098 0 0 1 .804-.526z"/><path fill="#839523" d="M217.214 54.825q-1.954-.02-3.908-.036c-.136-.326-.26-.66-.373-.998-2.878-3.565-2.492-7.333-.701-11.19a2.923 2.923 0 0 1 2.97-1.16l.11.728c2.65 3.602 4.59 7.333 2.149 11.858z"/><path d="M217.46 54.027c-1.064-3.89-2.724-7.672-2.149-11.859q29.561-.189 59.12-.38l.105 12.298-57.075-.06z" class="cls-18"/><path d="M211.215 23.647l63.517.15c.466 5.871-1.803 8.297-8.103 8.163-17.116-.364-34.245-.103-51.369-.09a2.022 2.022 0 0 1-2.609.1c-1.759-2.523-2.953-5.15-1.482-8.253z" class="cls-2"/><path fill="#3d8511" d="M213.256 31.851q1.002 0 2.004.02l-.058 9.575a4.65 4.65 0 0 1-1.906.598 6.136 6.136 0 0 1-2.171-4.254c-.1-2.268.251-4.38 2.131-5.939z"/><path fill="#41a012" d="M213.256 31.851l-.351 6.677c-4.108 3.257-9.015 2.599-13.707 2.638-21.066.179-42.135-.123-63.194.214-1.915-.084-3.692.697-5.55.964-19.294.963-38.598.676-57.908.226a10.187 10.187 0 0 1-3.532-1.27 2.558 2.558 0 0 1-1.073-3.23c2.53-1.414 2.167-3.87 2.225-6.175 3.478-3.566 8.042-3.006 12.346-3.07 11.45-.173 22.904.021 34.355-.1 5.4-.058 10.893-.052 14.709-4.933l.016.016q39.79-.044 79.577-.09a14.16 14.16 0 0 1 2.087 8.133z"/><path fill="#849e23" d="M182.758 97.5l-.343 1.942-11.97 1.997-.075-4.153 12.388.213z"/><path d="M131.576 23.792c.648 5.986-1.755 8.273-8.011 8.158-17.794-.327-35.599-.078-53.4-.055-2.992-2.1-1.678-5.36-2.19-8.127q31.798.013 63.6.024z" class="cls-2"/><path fill="#bdd832" d="M67.94 38.07q.215.944.428 1.89c3.275 4.85 3.265 9.681-.088 14.492l.012.168c-5.083-.027-10.166-.076-15.249-.079-16.498-.011-16.498-.005-15.473-16.49l30.37.019z"/><path fill="#77921f" d="M68.28 54.452l.087-14.492a15.12 15.12 0 0 0 1.794.085 17.37 17.37 0 0 1 1.819 2.403c1.127 3.802 3.26 7.565.522 11.543q-.266.462-.571.903-1.826-.22-3.65-.442z"/><path d="M133.597 38.293q39.655.116 79.309.234.194 1.76.39 3.517l-.361 11.75c-26.459 1.58-52.932.626-79.4.508-4.041-5.352-3.264-10.685.062-16.009z" class="cls-18"/><path d="M72.502 53.99l-2.26-11.817c20.17-2.291 40.396-.703 60.596-.855 2.884 4.157 1.939 8.492.591 12.844z" class="cls-18"/><path fill="#a8cf2d" d="M131.43 54.162l-.06-12.44q-.954-.403-.784-1.025.183-.677.45-.677l2.56-1.728-.06 16.01-2.107-.14z"/><path fill="#45a313" d="M131.037 40.02a8.468 8.468 0 0 1 .333 1.704q-30.566.222-61.13.45-.038-1.065-.079-2.13z"/><path d="M23.666 383.545H10.278v-8.925H46.73v8.925H33.344v35.071h-9.678zm26.083 23.192v-21.81h9.553v18.794c0 4.525 2.137 6.85 5.782 6.85s5.971-2.325 5.971-6.85v-18.793h9.553v33.688h-9.553v-4.776c-2.2 2.828-5.028 5.405-9.868 5.405-7.228 0-11.438-4.777-11.438-12.508zm40.977 2.326v-15.964h-4.022v-8.171h4.022v-8.61h9.553v8.61h7.92v8.17h-7.92v14.393c0 2.2.943 3.269 3.08 3.269a9.71 9.71 0 0 0 4.714-1.194v7.668a14.082 14.082 0 0 1-7.542 1.948c-5.845 0-9.805-2.325-9.805-10.12zm26.083 0v-15.964h-4.023v-8.171h4.023v-8.61h9.553v8.61h7.92v8.17h-7.92v14.393c0 2.2.943 3.269 3.08 3.269a9.71 9.71 0 0 0 4.713-1.194v7.668a14.082 14.082 0 0 1-7.542 1.948c-5.845 0-9.804-2.325-9.804-10.12zm24.951-36.328h9.553v45.881h-9.553zm16.906 29.226v-.126c0-9.616 6.85-17.535 16.655-17.535 11.251 0 16.405 8.736 16.405 18.289 0 .755-.063 1.635-.126 2.515h-23.444c.944 4.337 3.96 6.598 8.234 6.598 3.206 0 5.53-1.005 8.17-3.456l5.468 4.84a16.845 16.845 0 0 1-13.763 6.284c-10.12 0-17.6-7.101-17.6-17.409zm23.758-2.828c-.566-4.274-3.08-7.165-7.103-7.165-3.96 0-6.536 2.828-7.29 7.165zm15.461-2.389v-.126c0-12.507 9.867-22.752 23.443-22.752s23.318 10.12 23.318 22.627v.125c0 12.508-9.868 22.752-23.444 22.752-13.575 0-23.317-10.119-23.317-22.626zm36.642 0v-.126c0-7.542-5.53-13.827-13.325-13.827-7.793 0-13.198 6.16-13.198 13.702v.125c0 7.542 5.531 13.827 13.324 13.827 7.794 0 13.2-6.159 13.2-13.7zm18.728-22.124h33.5v8.8h-23.82v9.364h20.992v8.8h-20.992v17.032h-9.68zm53.235 21.621l-14.708-21.62h11.313l9.239 14.267 9.302-14.268h10.999l-14.707 21.495 15.336 22.501H321.95l-9.867-15.084-9.93 15.084h-11z"/></svg>