<svg xmlns="http://www.w3.org/2000/svg" role="img" viewBox="-15.01 -15.01 390.52 183.02"><title>USD Notice Framework logo</title><style>.st0{fill:#f2783c}.st1{fill:#272727}</style><style>.st0{fill:#f2783c}.st1{fill:#272727}</style><style>.st0{fill:#f2783c}.st1{fill:#272727}</style><style>.st0{fill:#f2783c}.st1{fill:#272727}</style><style id="style1">.st0{fill:#f2783c}.st1{fill:#272727}</style><style id="style2">.st0{fill:#f2783c}.st1{fill:#272727}</style><style id="style3">.st0{fill:#f2783c}.st1{fill:#272727}</style><style id="style4">.st0{fill:#f2783c}.st1{fill:#272727}</style><style id="style5">.st0{fill:#f2783c}.st1{fill:#272727}</style><style id="style6">.st0{fill:#f2783c}.st1{fill:#272727}</style><style id="style7">.st0{fill:#f2783c}.st1{fill:#272727}</style><style id="style8">.st0{fill:#f2783c}.st1{fill:#272727}</style><style id="style9">.st0{fill:#f2783c}.st1{fill:#272727}</style><style id="style10">.st0{fill:#f2783c}.st1{fill:#272727}</style><style id="style11">.st0{fill:#f2783c}.st1{fill:#272727}</style><g id="Layer_1-2" transform="translate(-7.51 -7.51)"><g id="Group_14"><path id="Path_1" d="M56.3 116.6l2.9-5.8H66l2.9 5.8 2.4-.5-8.6-17.3-8.7 17.3zm3.9-8.1l2.4-4.8 2.4 4.8" class="st0"/><path id="Path_2" d="M75.5 116.5V98.8l10.9 11.9V99.6l2.4-.4v17.3l-10.9-11.9v11.5" class="st0"/><path id="Path_3" d="M93.9 116.4V99.2l2.4-.4v17.4" class="st0"/><path id="Path_4" d="M100.7 116.2l3.4-17.4 5.8 13 5.8-13 3.5 17.4-2.4.3-2-10.7-4.9 10.6-5-10.6-2 10.7" class="st0"/><path id="Path_5" d="M124.4 116.6l2.9-5.8h6.8l2.9 5.8 2.4-.5-8.7-17.3-8.6 17.3zm3.9-8.1l2.4-4.8 2.4 4.8" class="st0"/><path id="Path_6" d="M141.9 101.5l.8-2.2h10v2.2h-4v14.7l-2.4.3v-15" class="st0"/><path id="Path_7" d="M157.5 116.4V99.2l2.4-.4v17.4" class="st0"/><path id="Path_8" d="M164.2 107.7c0 4.9 4 8.9 8.9 8.9s8.9-4 8.9-8.9-4-8.9-8.9-8.9-8.9 3.9-8.9 8.8zm2.4 0c.1-3.6 3.1-6.4 6.7-6.3 3.6.1 6.4 3.1 6.3 6.7-.1 3.5-3 6.3-6.5 6.3-3.6-.1-6.5-3.1-6.5-6.7" class="st0"/><path id="Path_9" d="M186.8 116.5V98.8l10.9 11.9V99.6l2.4-.4v17.3l-10.9-11.9v11.5" class="st0"/><path id="Path_10" d="M214.7 112.3c.7 1.2 1.9 1.9 3.2 2 1.5.2 2.9-.8 3.1-2.3v-.6c0-3.9-7.8-1.8-7.8-7.7-.1-2.6 2-4.8 4.7-4.9h.6c1.9.1 3.6 1 4.8 2.5l-1.6 1.7c-.8-1.1-2-1.8-3.3-1.9-1.4-.1-2.6.9-2.7 2.3v.3c0 3.5 7.8 1.9 7.8 7.8.1 2.8-2.2 5.1-5 5.2h-.3c-2.1-.1-4-1.1-5.3-2.8" class="st0"/><path id="Path_11" d="M226.2 101.5l.8-2.2h10v2.2h-3.9v14.7l-2.4.3v-15" class="st0"/><path id="Path_12" d="M252.9 98.8v10.8c0 5.2-1.7 7-6 7-4.7 0-6-2.1-6-7V99.2l2.4-.4v12.1c-.2 1.7 1.1 3.3 2.8 3.4h.6c1.8.3 3.4-.9 3.7-2.7V99.2" class="st0"/><path id="Path_13" d="M258 116.2h4.2c4.7.1 8.6-3.7 8.6-8.4s-3.7-8.6-8.4-8.6H258zm2.4-14.7h1.8c3.5.1 6.1 3.1 6 6.5-.1 3.3-2.7 5.9-6 6h-1.8" class="st0"/><path id="Path_14" d="M276 116.4V99.2l2.4-.4v17.4" class="st0"/><path id="Path_15" d="M282.7 107.7c0 4.9 4 8.9 8.9 8.9s8.9-4 8.9-8.9-4-8.9-8.9-8.9-8.8 3.9-8.9 8.9c0-.1 0-.1 0 0zm2.4 0c.1-3.6 3.1-6.4 6.7-6.3 3.6.1 6.4 3.1 6.3 6.7-.1 3.5-3 6.3-6.5 6.3-3.6-.1-6.5-3.1-6.5-6.7" class="st0"/><path id="Path_16" d="M306.4 112.3c.7 1.2 1.9 1.9 3.2 2 1.5.2 2.9-.8 3.1-2.3v-.6c0-3.9-7.8-1.8-7.8-7.7-.1-2.6 2-4.8 4.6-4.9h.6c1.9.1 3.6 1 4.8 2.5l-1.6 1.7c-.8-1.1-1.9-1.8-3.2-1.9-1.4-.1-2.6.9-2.7 2.3v.3c0 3.5 7.8 1.9 7.8 7.8.1 2.8-2.2 5.1-5 5.2h-.3c-2.1-.1-4-1.1-5.2-2.8" class="st0"/><path id="Path_17" d="M40.1 41.8c-.3.3-.5.7-.7 1-.2.5-.4.9-.7 1.3-.3.3-.5.6-.6 1 0 .3-.3 1-.5 1.4-.2.4-.7.8-.8 1-.3.7-.6 1.5-.7 2.2-.3 1.4-1.3 4.8-1.5 5.4-.3 1-.6 2-.7 3.1 0 .7-.3.9-.3 1.5-.1.5-.2.9-.4 1.3-.1.6-.1 1.2 0 1.9.2.5-.2.7-.3 1.1-.1.5-.1 1 0 1.4.1.3-.4.8-.4 1.1l.3 1.2c.2.3.2.7.3.4.1-.3.4-.5.5-.7.1-.1.2-.3.3-.5.1-.2.3-.5.5-.6.3-.2.2-.6.4-.9.3-.4.5-.9.7-1.3.1-.2.3-.7.6-.8.3-.1.5-.5.4-.9 0-.4.1-.7.3-1 .2-.2.3-.5.3-.8.1-.2.1-.4.4-.5.3-.1.4-.6.6-1.2l.4-1.2s0-.4.2-.6c.2-.1.2-.3.2-.5s.1-.4.2-.6c.1-.3.2-.6.4-.9.4-.4.6-.9.6-1.4.1-.5.2-1 .4-1.5.1-.4.2-.8.2-1.2 0-.3.1-.9.2-1.2.1-.3.1-.5.1-.8 0-.2 0-.3.1-.5.2-.2.3-.5.3-.8.1-.4.2-1.2.2-1.9 0-.5 0-1-.1-1.5-.1-.2 0-.8.3-.9.3-.1 0-.6 0-.6s-.3-.5-.3-.8c0-.3-.3-.6-.5-.7zm6-39.2c.2-.1-.3-.3-.3-.3s-.1-.2-.2-.3c-.1-.1-.2-.1-.2-.1-.1-.1-.1-.2-.1-.3v-.5c0-.1 0-.3.1-.4.2-.1.4-.1.6-.2l.2-.3h.5s.1-.2.3-.2c.2.1.4.1.6.1.3 0 .6-.1.7.1.1.2.2.4.4.4s.3 0 .4.1c.1.1 0 .2.5.5s1.7 1 2.2 1.4c.3.2.5.4.9.5.2.1.2.2.2.3 0 .1 0 .2.2.3.2.1.3.1.3.2s.1.2.2.3h.4v.2c0 .1.1.3.2.4.1.1.2.2.4.3.1 0 .3 0 .3.1.2.4.4.7.7 1l1.2 1.2c.5.5.4.8.7.9.3.1.5.1.5.4.1.5.3.9.7 1.2.4.4.7.8 1 1.3 0 .2 0 .4.2.5.2.1.3.2.3.4s.2.3.2.3.4.1.3.2c0 .3 0 .6.1.9 0 0 .4-.3.5-.1.1.2 0 .3.1.4 0 .1.1.2.2.2.2.1.3.2.4.4.2.6.5 1.1.9 1.6.3.5 1 1.3 1 1.3.1.1.2.3.2.5 0 .1.1.3.2.4l.6.7c.1.5.3.9.6 1.3s.6.9.9 1.2c.1.1.4.5.3.7-.1.2-.2.2 0 .5s.8 1.5 1 1.8c.2.3.3.6.4 1 0 .4-.2.7.1.8.3.3.6.7.7 1.2.1.4.3.9.4 1.2.1.3.2.2.2.5 0 .2.1.4.2.6 0 0 .6 1.8.7 2.3.1.5.6 1.4.7 1.7.1.3-.2.4 0 .9.3.5.5 1.1.7 1.6.1.4.2.9.2 1.1 0 .2.2 1.5.3 1.9.1.3.3.7.3 1 0 .3.3 2.1.3 2.8 0 .7.1 1.5.1 1.5s.2.1.1.4c-.1.3.1 1.4.1 1.8 0 .4-.1.7-.2 1 .1.4.2.9.2 1.3-.1.4-.1.8-.1 1.1V52c-.1.5-.2.9-.2.9-.1.3-.1.7-.2 1 0 .5.2 1 0 1s-.2.2-.2.4v1c0 .4 0 .8-.1 1.2-.1.2-.2.2-.2.6 0 .7 0 1.3-.2 2s-.2 1.1-.5 2.6-.7 2.6-.7 2.8c0 .3-.1.7-.3 1-.1.2-.5 1-.5 1.2-.3.3-.5.6-.7 1-.2.5-.3 1.1-.4 1.7-.2.4-.4.9-.5 1.4 0 .4-.2.9-.4 1.3-.6.8-1.1 1.6-1.5 2.5-.1.4-.3.7-.5 1.1-.1.3-.4.5-.8 1-.3.3-.5.7-.7 1.1-.4.7-.9 1.3-1.5 1.8-.9.6-1.6 1.5-2.1 2.4-.4.9-.2.8-1 1.3s-1.3.7-1.4.9c-.1.2-.1.4-1.2 1-.5.3-1.1.5-1.7.6-.4.2-.5.1-.9.4-.5.5-1 1-1.5 1.3-.4.1-.8.2-1.2.1-.7 0-1.5.1-2.2.3-.7.2-1.3.3-2 .4-.3.1-.7.2-.9.2-.2 0-.2-.2-.5-.2-.5 0-1-.1-1.5-.2s-1.2-.1-1.8-.2c-.6-.1-1-.4-1.2-.4-.2-.1-.4-.2-.5-.4 0 0 0-.1-.2-.1s-.8-.1-1-.1c-.2 0-.2-.1-.6-.3-.3-.1-.5-.3-.7-.5 0 0 0-.2-.2-.1s-.2 0-.3-.1c-.2-.2-.4-.3-.5-.4-.2-.1-.4-.2-.6-.2-.4 0-.7-.1-1-.4-.5-.4-1.1-1-1.3-1.2-.2-.2-.2-.2-.6-.3-.4-.1-.5-.1-1-.7s-1-.9-1.1-1.1c-.1-.2-.6-.4-.8-.7-.2-.3-.4-.8-.5-1.2-.1-.2-.3-.4-.5-.6-.1-.3-.5-.4-.8-.3-.5 0-1 .2-1.5.3-.5.2-.9.4-1.2.7-.2.2 0 .3-.6.3-.5 0-1.1.2-1.5.4-.4.3-.8.6-1.3.8-.3 0-.2-.2-.3-.3-.2-.1-.3-.1-.5-.1l-.6.3s0 .4-.4.4c-.3 0-.6 0-.9.1-.3.1-.9.1-.9 0-.1-.2-.4-.4-.7-.4-.5-.1-.9.1-1.3.4-.2.3-.4.3-.5.2-.1-.1-.1-.3-.7-.4-.3 0-.6-.1-.9-.2v-.2l-.6-.3c-.4-.2-.8-.6-1-.4-.2.2-.5.2-.7.1-.3-.2-.5-.3-.9-.4-.3-.1-.7-.1-1-.1 0 0-.4-.4-.2-.6.2-.2.4-.5.3-.4-.3-.1-.7-.2-1-.3 0 0-.6-.1-.4.2.2.3.1.7-.3.1-.3-.5-.7-.9-1.2-1.2-.2-.1-.4-.3-.5-.5-.8-.3-2.4-2.2-3.2-3.4-.9-1.1-1.7-2.2-2.4-3.3-.2-.8-.5-1.6-.8-2.3-.2-.4-.3-1.1-.5-1.2-.2-.1-.2-.4-.5-1.3C.6 65.9.4 65 .3 64c.1-.9.1-1.9 0-2.8-.2-.8-.3-1.6-.3-2.4.1-.4.1-.8.2-1.2l.2-.1V56c0-.6.1-1.3.2-1.9 0-.5.1-1.1.1-1.3.1-.1.1-.3.2-.4.1-.8.1-1.9.2-2.2.1-.3.2-.9.3-1.1.1-.2.4-.3.4-.3.1-.2.2-.3.2-.5v-.9c0-.2.1-.5.2-.7.1-.2.2-.3.3-.3.1 0 .3 0 .4-.1v-.9l-.2-.3c.2-.2.3-.5.4-.7.1-.2.1-.3.2-.5 0 0 0-.6.1-.9.1-.5.3-.9.5-1.3.1-.4.2-.7.2-1.1 0-.3 0-.6.2-.7.4-.4.6-.9.7-1.4.1-.5.3-.9.6-1.2.5-.6.2-.1.2-.1s.9-1.2 1.3-1.8c.4-.6.9-.7.9-1.2s.1-.5.5-1 1.1-1.6 1.3-2c.2-.5.5-.9.9-1.3.4-.5.7-.7.7-.8 0-.1.1-.5.1-.5.4-.4.8-.8 1.2-1.1.9-.7 1.3-1.1 1.4-1.5.1-.4.5-.4.7-.7.2-.3 1.4-1.4 2.3-2.3.9-.9 1-.9 1-.9l.2-.4c.5-.4 1-.7 1.5-1 .2-.1.3-.2.5-.3 0 0-.2 0 .4-.4l1.8-.9c.6-.3 1.2-.5 1.6-.7.4-.2 1.1 0 1.5-.2.3-.1.7-.3.9-.5.1-.1.1-.4.6-.4s.7-.1.9-.3c.2-.2.4-.4.6-.4.2 0 1 .4 1.2.4.2 0 .9.4 1.1.1.2-.2.5-.4.8-.4.2 0 .6.4.7.4 0 .3.1.4.2.5.1.1-.1.2-.2.4s-.4.2-.5.2c-.1 0-.2.1-.4.2s-.4.2-.6.2c-.3 0-.5.1-1 .2-.6 0-1.2.2-1.8.5-.4.3-.7.7-1 .7-.3 0-.6.2-.7.5-.1.2-.3.4-.5.5-.2.1-.3.2-.4.3-.1.1-.1.3-.4.1-.3-.2-.7-.2-.6 0 .1.2-.1.8-.3.9-.2.1-.9.6-1.1.8-.2.2-.6.5-.6.7-.6.5-1.8 1.7-2 1.9-.2.2-.4.4-.6.5-.2.2-.4.4-.4.6-.1.3-.5.4-.9.8-.5.5-.8 1.2-1.1 1.9-.1.5-.4.5-.5.8-.2.5-.4 1-.8 1.4-.6.8-.9.8-1 1.1-.1.3 0 .4-.2.5-.2.1-.5.2-.5.3 0 .1-.3 1-.2 1.1-.3.6-.5 1.3-.9 1.9-.3.4-.6.8-.9 1.1-.3.5-.5 1.1-.5 1.7-.1.4-.2.7-.4 1.1-.3.3-.5.6-.6.9-.1.4-.2.8-.3 1.3 0 .5-.1 1.1-.3 1.5-.5.5-.8 1.2-1 1.9-.4.7-.4.9-.5 1.2-.2.5-.3 1.1-.3 1.7 0 .4-.2.5-.2.8 0 .3-.1 1.1-.2 1.5-.1.4-.1.7-.3.8-.1 0-.3.1-.3.2 0 .5 0 .5-.2 2.1s0 3.7-.1 4.2.2.4.1.7c0 .9-.1 1.8-.3 2.7-.1.5-.2 1.1-.3 1.6.1 1 .2 1.9.4 2.9.1.7.3 1.3.5 2 0 .5.1 1 .3 1.5.2.6.4 1.2.7 1.9.3.7.7 1.4.8 1.7.1.4.2.8.4 1.1.1.1.4.2.5.5.1.3.3 1.1.6 1.2.2.1.3.2.4.4.3.3.6.5.9.8.4.1.7.4.9.7 0 0 .5.4.6.6 0 0 .7-.1.8.1.1.2.5.2.6.3.1.1.5.2.7.4.3.2.6.2.9.2.3 0 1.1.5 1.4.4.4 0 .7 0 1.1.1.3 0 .7-.1.9-.2.5-.2 1-.3 1.5-.3.7 0 1.4-.2 2-.6.6-.4 1.2-1.2 1.4-1.1.2.1.5-.2.7-.3.3-.3.6-.5 1-.7.4-.1 1.1-.4.9-.8-.2-.4-.3-.7-.4-1.1-.1-.3-.2-1.5-.4-1.9-.2-.4-.3-.9-.5-1.3-.1-.3-.2-.7-.3-1 0-.2-.1-.5 0-.5s.4-.3.2-.4l-.3-.6c-.1-.5-.2-.9-.2-1.4 0-.5 0-1-.2-1.6-.2-.3-.3-.6-.3-.9.2-.3.3-.7.2-1.1-.1-1-.1-1.9-.1-2.9 0-.3.2-.3.2-.5v-3.3l.3-.9c.2-.7.3-1.5.5-2.2.2-.8.4-1.6.6-2.5.2-.4.4-.9.5-1.3 0-.3.1-.6.2-.9.3-.4.5-.9.7-1.3.1-.4.2-.6.2-.8-.1-.3 0-.7.2-.9.3-.4.5-.8.6-1.3l.2-.9.3-.3c.4-.5.7-1 1-1.5.5-.9 1.1-1.8 1.8-2.6.6-.7 1.3-1.2 2-1.8.3-.2.6-.3.7-.5.1-.2.3-.2.5-.3l.6-.3c.2-.1.2 0 .4-.1.3-.1.5-.3.7-.5.1-.2.4-.1.6-.1.2 0 .7 0 1 .1.2 0 .1.4.3.3.2-.1.4-.2.5-.3.5-.1 1 0 1.4.1.5.2.9.3 1.4.3.3-.1.7.1.8.4l.6.6s.5.2.4.6c-.1.4 0 .8.2 1.2.1.2.5.8.3 1.2-.1 1.5-.1 2.9-.1 4.4 0 1.2 0 2.5-.2 3.7-.1.6-.3 1.3-.3 1.9 0 .1-.3.1-.2.5 0 .4-.1.9-.3 1.2-.1.4-.1.9-.1 1.3 0 .3-.7 2-.8 2.5-.1.5-.9 2.2-1 2.8-.1.4-.2.8-.5 1.2-.2.3-.7 1.5-1 2.1-.3.6-.4 1.2-.6 1.8-.2.5-.4.9-.7 1.3-.2.2-.3.4-.3.7 0 .2-.1.4-.2.6-.1.2-.7.9-.6 1.2.1.2 0 .5-.2.6-.4.4-.7.9-.9 1.3-.1.2-.3.5-.3.7 0 .2-.3 1.1-.7 1.4-.4.3-.8.4-1 .8-.2.4-.9 1.2-1 1.4-.1.2-.2.4 0 .7.3.4.5.8.7 1.3.1.5.2 1 .5 1.5.3.6.8.8.8 1.1 0 .5.1 1 .3 1.4.3.3.5.8.7.9.3 0 .5.1.7.3.4.6.9 1.2 1.4 1.8.3.3.7.6 1.1.9.4.3 1.2 1 1.2 1.3 0 .3.6.4.6.4.2 0 .5.1.7.2.2.1.2.3.5.3s1.2.1 1.6.1c.4 0 .6.1 1 .2.6 0 1.2 0 1.8-.1.6 0 1.1-.2 1.6-.4.3-.3.7-.5 1.1-.6.3 0 .6-.1.8-.3.3-.4.7-.6 1.2-.8.7-.3 1.3-.6 1.9-1.1 1.2-.8.9-.9 1.3-1.4.4-.5.5-.9.8-1 .3-.1.6-.1.7-.3.1-.2.3-.4.4-.5.2-.1.3-.3.4-.5.2-.2.4-.3.6-.3.2 0 .3.1.4-.1.1-.2.7-1.5.8-1.7.1-.2.3-.3.4-.5.1-.2.5-.2.6-.4.1-.2 0-.4.2-.6.4-.3.8-.7.9-1.2.4-.9.8-1.7 1.2-2.6.7-1.3.9-1.6.9-2.1s-.1-.6.3-.8c.4-.2.7-.6.7-1.1.1-.5.1-.9.3-1.4.2-.2.2-.7.4-.8.2-.2.4-.5.4-.8-.1-.6 0-1.1.1-1.7.2-.5.6-.7.8-1.1.2-.6.3-1.3.3-2-.1-.4 0-.9.3-1.3.2-.5.1-.9.4-1.5.3-.7.3-1.4.2-2.1-.2-.2-.2-.5 0-.7.2-.2.3-.4.4-.6l.2-.4c.2-.3.3-.6.3-1s.1-.7 0-1.1c-.1-.4 0-.8.2-1.2.1-.2.3-.4.4-.5.2-.2 0-.1-.1-.3v-1.9c-.1-.5-.2-1-.2-1.6.1-.8.1-1.6 0-2.4-.2-1-.3-2-.4-3 .1-1.1 0-2.2-.2-3.2-.1-.5-.2-.9-.5-1.3-.2-.1-.2-.1-.2-.5 0-.6-.2-1.3-.3-1.9-.1-.2-.1-.3-.2-.4-.2-.1-.3-.2-.2-.4 0-.2 0-.2-.1-.6-.1-.4-.2-.4-.2-.6-.1-.5-.2-1.1-.3-1.6-.1-.5-.4-.7-.5-1l-.6-1.8c-.1-.3-.3-.7-.3-1.1-.2-.8-.4-1.6-.7-2.4-.2-.5 0-.6-.3-1-.2-.3-.4-.5-.7-.7-.3-.2-.7-.7-.6-1 .1-.3.2-.5-.3-1.1-.3-.4-.5-.9-.7-1.4-.1-.2-.2-.4-.4-.6-.3-.2-.4-.5-.4-.8-.1-.6-.4-1.2-.7-1.6-.2-.3-.4-.5-.6-.7-.2-.1-.3-.1-.3-.5s.1-1 0-1.2c-.1-.2-.2-.1-.3-.2-.1-.1-.5 0-.5-.2 0-.4-.1-.8-.3-1.1l-.6-.6c-.3-.2-.6-1-1-1.4-.4-.4-.6-.5-.7-.6-.1-.2-.1-.3-.2-.5-.2-.4-.5-.7-.8-1-.4-.3-.8-.7-.8-.7s-.2-.6-.4-.8c-.2-.2-.3 0-.4-.4-.1-.4-.3-.8-.6-1.2-.3-.3-.6-.6-1-.8-.2-.2-.5-.3-.5-.5s-.3-.4-.3-.4l-.7-.3c-.3-.1-.5-.2-.7-.3-.2-.1-.4-.3-.6-.5-.1-.2-.3-.3-.5-.3-.1 0-.3 0-.4-.1-.1-.2-.3-.2-.5-.2-.3 0-.3.1-.4 0-.1-.1-.2-.2-.5-.2s-.4.1-.4.3c0 .2-.2.8-.4.6" class="st1"/><path id="Path_18" d="M82.9 68c.4.4 1 1.1 1.5 1.1.4 0 .8 0 1.1.1.4.2.8.2 1.3.2.4-.2 1.7-.4 2-.5.5-.2 1.1-.4 1.6-.6.3-.1.5-.1.4-.9-.1-.8-.3-2.6-.6-3.3-.3-.8-.5-1.6-.6-2.5 0-.6-.1-1.2-.3-1.7-.1-.4-.2-.8-.3-1.1-.1-.3-.2-.8-.4-1.2-.1-.5-.2-1-.2-1.5 0 0 0-.6-.2-.5-.2.1-.3.3-.6.4-.3.1-.4.1-.4.3 0 .3-.2.6-.3.9-.3.4-.5.8-.7 1.3-.1.3-.2.7-.4.9-.4.5-.6 1.1-.8 1.7-.1.5-.9 2.1-1 2.8-.2.9-.5 1.7-.8 2.6-.2.4-.3.9-.3 1.5zm-10.8-2s.5.4.9.8.6.4.8.6l.9.6c.4.2.9.2 1.4.2.5 0 .7-.6.7-.9 0-.3.2-.4.6-.6.4-.2.3-.4.3-.7.1-.3.3-.6.5-.8.2-.2 0-.9 0-1.1.2-.4.4-.9.6-1.3.2-.7.4-1.4.5-2.1.1-.6.1-.9.3-1 .2-.3.3-.6.3-.9 0-.3 0-.7.3-.8.3-.1.4-.8.4-1.2 0-.4.6-1.3.6-1.6 0-.3.3-.6.6-.7.3-.1.3-.3.4-.6.2-.4.3-.8.3-1.2 0-.3.3-.6.5-.9.3-.4.5-.8.6-1.2.1-.4.3-.3.5-.7.2-.2.3-.5.3-.8l.5-.3c.2-.2 0-.3.2-.5.5-.7.9-1.4 1.2-2.2.4-.9.7-.6 1.4-.7.3-.1.7 0 .9.2.3.2.7.4 1.1.6.6.2.7.3.7.3s.2.3.4.3.3.1.5.5c.1.2.3.3.5.4.2.1.2.5.4 1.1.2.9.3 1.9.3 2.8.1.9.4 1.8.6 2.6.2.6.4 1.1.7 1.6.1.2.1.4 0 .5 0 0 .1.5.2.8.1.3.3.6.4.9 0 .2.3 1.4.5 2.2.2.8.3 2 .5 2.8-.2 0-.2.9-.2 1.4.2.6.4 1.1.6 1.7.1.3.4.4.6.3h.7c.2.1.3.2.5.3.2 0 .4.1.4.3 0 0 0 .4-.2.5-.2.1-.4.5-.5.7-.2.3-.4.6-.7.9l.2.7v1.5c.1.3.2.5.4.8.1.2.1.4-.1.6 0 .4 0 .8.2 1.1.1.4.2.9.2 1.4.1.4.2.8.3 1.1.1.2.2.5.2.7-.1.4-.1.8-.1 1.2.1.6.1 1.7.2 1.9.1.2.3.6.2.8-.2.3-.2.7-.2 1 .1.2.3.4.4.6-.1.2 0 .5.2.7.3.3-.3.3-.5.3-.3-.1-.7-.1-1-.1-.2-.4-.6-.4-.9-.4-.3.1-.4-.3-.4-.5 0-.1-.1-.3-.2-.3l-.4.3c-.2 0-.4-.1-.6-.1-.2-.1-.8-.2-1-.2-.2 0-.1-.4-.2-.6-.1-.2 0-.7-.1-1-.2-.4-.3-.9-.3-1.3-.4-.7-.6-1.4-.7-2.2-.1-.5-.2-2.6-.2-3.4 0-.8-.2-.7-.6-1-.4-.3-.3-.5-.5-.8-.2-.3-.5.3-.7.3h-1.6c-.5 0-1.7.2-2.2.3-.5.1-.5-.2-.7-.3-.2-.1-.7 0-1 .1-.3.1-.2-.4-.2-.4h-.6c-.3.1-.7.2-1 .4l-.9.3c-.3.1-.4 1.6-.5 1.9-.1.3-.2 1.3-.4 1.7-.2.4-.2.9-.1 1.3 0 .4-.1.9-.2 1.3 0 .2-.4.5-.6.7 0 .2.1.5.1.7.1.3-.3.7-.3 1.1 0 .2 0 .4-.1.7-.2.6-.4 1.2-.5 1.8-.2.9-.5.9-.5.9l-.5.3-.9-.3c-.3-.1-.7-.7-.7-.7l-.2.3c-.2.1-.5.1-.7 0-.3-.1-.6-.2-.8-.2-.3-.1-.6-.2-.8-.3 0 0-.1-.9-.1-1.2v-1.4c0-.5 0-1 .2-1.4 0-.3-.1-.6-.3-.8-.2-.2.2-.6.4-.9.1-.2.1-.5 0-.7-.1-.2-.1-.4-.1-.6.1-.3.2-.7.2-1.1.1-.5.1-1 .1-1.5 0-.3 0-.6.2-.8.2-.2.2-.6.2-.9.1-.5.2-1 .4-1.4.1-.2.1-.4.1-.6 0 0-.7-.1-.9-.1-.2 0-.6-.4-.8-.7-.2-.3-.5-.6-.9-.8-.3-.1-.6-.9-.8-1l-.6-1.2c-.2-.3-.4-.8-.2-1" class="st1"/><path id="Path_19" d="M108.5 48.3h.5s-.1-.3.5-.4c.5-.1 1.1-.1 1.6-.1.3.1.6.3.9.5.2.2.4.3.7.4l.3.4c.2.2.3.5.3.7-.1.5-.3 1.1-.5 1.5-.2.3-.3.6-.4 1 0 .3-.1.6-.2.9-.2.5-.3 1-.3 1.5 0 .3 0 .5-.2.8-.2.3-.3.7-.3 1.1 0 .3-.2.5-.5 1.3s-.5 1.3-.4 1.5c.1.2.3.7.1.7-.2 0-.2.2-.3.9-.2.7-.3 1.5-.3 2.3 0 .4-.1.8-.3 1.2-.2.5-.3 1-.3 1.4-.1.3.1 1.3-.1 1.2-.2-.1-.2.9-.3 1.5-.2.5-.2 1-.2 1.6.1.4.1.7 0 1.1 0 .5 0 1 .1 1.5.1.4.5 2.1.7 2.5.2.4.5.4.5.8s0 .7.4.9c.4.2.5.1.9.4.4.3-.1.5.3.4.4-.1.6-.3.8-.3.2 0 1-.2 1.2-.2.3 0 .5-.1.7-.3.3-.2 1-.3 1.4-.7.4-.4 1.9-1.6 1.9-1.6s.1.1.3-.1c.4-.4.8-.8 1.3-1.2.5-.3 1-.7 1.4-1.2.3-.5.7-1 1.1-1.4.1-.2.2-.4.2-.6l.3-.3.7-.7.5-.4s.4.2.3.4c0 .3-.1.5-.2.8-.1.3-.3.5-.6.8 0 0-.1.3-.2.5s-.3.3-.4.6c-.1.3.3.4-.2.7-.5.3-.8.6-.8.9 0 .3-.3.4-.4.6-.1.2-.4.4-.9.9s-.6.9-.8 1c-.2.1-.5.3-.5.5s.3.3 0 .4c-.3.1-.6.3-.8.5-.3.3-.4.6-.6.8-.2.2-.3.1-.7.3l-1.2.9c-.4.3-.7.2-1.1.6-.4.4-.9.8-1.5 1-.6.3-.7 0-1.1.1-.3.1-.7.2-1 .3-.2.1-.6 0-.8 0-.2-.1-.5-.1-.7-.2-.4-.1-.8-.2-1.3-.2-.4.1-.6.1-1-.2-.2-.2-.5-.4-.7-.4-.3 0-1.1-.2-1.3-.3-.2-.1-.3-.2-.4-.3-.1-.1-.2-.2-.4-.3-.3-.2-.4-.7-.6-1-.2-.3-.3-1-.5-1.1-.2-.1-.3-.7-.3-1 0-.5-.1-.9-.2-1.4-.1-.4-.2-.8-.2-1.2 0-.3-.2-1.3-.2-1.5v-1c-.1-.3-.2-.7-.2-1.1.1-.2.1-.5 0-.7 0-.3.3-.7.3-.9 0-.2-.2-1.1-.3-1.4 0-.5.2-1.1.3-1.6 0-.2.2-1.6.1-1.9.1-.6.3-1.3.5-1.9.2-.8.5-1.7.6-2.1.1-.6.1-1.2.3-1.7.1-.4.3-.7.5-1.1.1-.2.1-.9.3-.9.2 0 .4-.5.7-1.5.3-1 .8-2.3 1-2.8.2-.5.7-1.5.9-2.1.2-.5.4-.9.7-1.3" class="st1"/><path id="Path_20" d="M136.9 53.7s1 0 1.2-.2c.2-.2.5-.4.8-.4.5-.2 1.2-.5 1.2-.5.1-.2.3-.2.5-.3.2 0 .5.2.6 0 0-.3.2-.6.4-.9.4-.4.8-.8 1.1-1.2.2-.5.3-1.1.1-1.7-.1-.4-.3-.8-.6-1-.3-.2-.7-.2-1-.1-.4.1-.7-.1-1.1.1-.4.2-.5.2-.6.5-.1.3-.5.3-.6.5-.2.2-.3.4-.5.7-.1.4-.3.8-.5 1.1-.2.3-.3.4-.3.6-.1.3-.2.6-.4.9-.1.3-.3.6-.5.9 0 .1-.6 1.3.2 1zm-16.5-4.9c.5 0 .9.2.9.5s0 .2.1.4.3.4.5.5c.2.1.4.3.5.5.3.2.4.7.7.7.5.2.9.5 1.3.8.3.3.6.5 1 .5.7.3.9.5 1.8 1s.2.4.2.4c.2.1.5.1.7.1.3 0 .6-.1.9-.1.2 0 1 .1 1 .1s.6-1.3.8-1.5c.2-.2.3-.3.3-.5.2-.5.5-.9.8-1.3.4-.5.9-1.1 1.4-1.5 0 0 0-.4.3-.5.3-.1.4-.2 1-.9s.6-.8 1-1.1c.4-.3.8-.2 1.1-.4.2-.2.4-.3.7-.4.4-.1.9-.2 1.3-.2s.9-.1 1.3-.2c.5-.2 1.1-.3 1.6-.3.9 0 .4.2.5.4.1.2.4.2.9.3.5.1.7.3 1 .4.3.1.4.5.6.7.2.2.5.4.6.7.1.3.4.4.5 1.2.1.6.1 1.2 0 1.8 0 .3-.3.5-.3.8-.1.3-.2.5-.4.7-.3.3-.6.6-.9 1-.3.5-.7.9-1.2 1.3-.4.3-.9.4-1.3.6l-.5.5c-.2.2-.6 0-.9.2-.4.3-.9.6-1.4.8-.5.2-.7 0-1 .2-.3.1-.7.2-1.1.2-.3 0-1-.2-1.2-.2-.2 0-.3.1-.4.3-.1.2-.1.5-.2.8-.2.5-.3 1-.3 1.6 0 .8-.2 1.5-.4 2.3 0 .4-.1.9-.2 1.3s-.2.9-.3 1.4c0 .6-.5 3.4-.6 4.8-.1 1-.1 2 0 3 0 .8.1 1.1 0 1.3-.1.4-.2.8-.2 1.2 0 .5 0 1 .1 1.5.1.4-.2.9-.2 1.1-.1.4-.2.8-.2 1.2 0 .5 0 1-.2 1.4 0 .8.1 1.5.4 2.2.2.4.1.8-.1 1.1-.3.3-.2.6.4 1.6.6 1-.2.3.1 1.2.3.9-.2.7-.4 1-.2.3-.6.7-.9 1-.3.3-.5.1-.8.1-.3 0-.5 0-.8.1-.2.1-.1-.3-.2-.6s-.8-.5-1.5-1c-.6-.5-1-1.3-1.1-2.1 0-.5 0-1-.1-1.5-.1-.4-.6-1.6-.7-2.5-.1-.9-.2-2.1-.2-2.1s-.5-.3-.1-.6.3-.5.4-.7c.1-.2-.5-.5-.5-.5-.1 0-.2-.2-.2-.3v-.1c.1-.4.1-.8 0-1.2-.1-.7-.1-1.5 0-2.2.1-.5.1-1.1 0-1.7 0-.3 0-.6.2-.8.2-.5.3-1 .4-1.5.1-.3 0-.6-.2-.8-.2-.1-.2-.2 0-.3.2-.1.2-.6.2-1s.3-1.3.3-1.6c0-.3.2-.3.3-.6.1-.3.1-.5.1-.7.1-.4.1-.8.2-1.3 0 0 .1-.5.1-.7.1-.2.2-.3.3-.3 0-.3.1-.6.1-.9 0-.3-.1-.4 0-.7.1-.3.3-.9.4-1.3.2-.5.3-1 .4-1.5.1-.4.2-.9.4-1.3-.2 0-.4-.1-.6-.2-.2-.2-.4-.1-1.4-.3-.6-.1-1.1-.3-1.6-.6-.7-.5-1.4-.9-2.2-1.2-.8-.3-1.5-.8-2.2-1.3-.7-.4-1-.9-1-1.1 0-.2-.6-.8-.7-1.1-.1-.3-.3-.4-.3-.7 0-.3.5-.7 1.1-.8" class="st1"/><path id="Path_21" d="M172 60.4c-.1-.2.2-.8-.5-.7-.7.1-2 .1-2.9.2-.6 0-1.2.1-1.8.3-.6.2-1.2.3-1.9.2.1 0 0-.3-.5-.1-.3.1-.6.2-.9.4-.2.1-.2.2-.5.1s-.4-.1-.5.1c-.1.2-.1.4-.5.3-.4-.1-.3 0-.9.1-.3.1-.5.1-.8.3-.2.1-.5.5-1.1.5-.6 0-.9.2-1 .4-.1.2.1.5-.2.4-.2 0-.3 0-.4.1l-.2.2c-.2 0-.4.1-.5.2l-.5.3s-.4.2-.2.3c.1.1.2.2.2.4-.1.2-.1.4-.5.3-.4-.1-.4.1-.7.2-.3.1-.6.4-.9.5-.3.1-.5.2-.8.1-.3-.1-.6-.1-.7 0-.1.1-.1.3-.3.4-.2.1-.4.1-.5.3-.1.2-.4.3-.5.5-.1.2-.7.4-.7.6 0 .3.1.6.2.9l.3.6c.7.7 1.4 1.4 2.3 1.9 1.4.8 3 1.8 3.9 2.4.8.5 1.6 1 2.5 1.4.2 0 .5.1.7.3.2.2.5.6.8.4.3-.2.2-.1.6.1.6.3 1.3.5 1.9.6.5-.1.9.3 1.4.7.5.4 1 .7 1.6 1 .1 0 .3.3.3.3.1.1.3.2.4.2.2 0 2 .4 2.5.6.4.1.9.2 1.3.3.3.1.6.2.5-.3-.1-.5-.1-4.4-.1-5.7.1-1.1.1-2.1 0-3.2-.2-1-.4-2.9-.4-2.9.2-.4.3-.8.2-1.3-.1-.6-.1-1.3-.1-1.9 0-.6 0-1.3.1-1.9.3-.5.3-.9.3-1.4zm.1-5.5c0-.6.1-1.2.3-1.8.1-.2.1-.7 0-1.1 0-.4 0-.7.2-1.1.1-.1.1-.5 0-1-.1-.6 0-1.2.2-1.8.1-.3.2-.8.3-1.2.1-.4.3-1 .3-1.1l-.1-.3c-.1-.3-.1-.7-.1-1 0-.4.1-.7.4-1 .2-.8.4-1.5.5-2.3.2-.7.4-1.3.5-2 0-.5.1-1 .3-1.5.1-.3.2-.7.2-1 0-.2.2-.3.4-.3.1 0 .3-.2.4-.4.1-.3.2-.6.4-.8.2-.2.5-.5.6-.7.2-.3.5-.6.8-.8.3-.2.6-.1.9-.1.3 0 .8-.1 1.3-.1s.2.5.1 1c.1 0 .2.3.3.6.1.3-.3 1-.2 1.4-.1.4-.1.8-.2 1.1 0 .3-.2.7-.3 1-.2.2 0 1.2 0 1.7s.1 1.1-.1 1.4c-.2.3-.3.3-.1 1.1.1.4.1.8-.1 1.2-.1.5-.1 1 0 1.5s.1 1 0 1.4c-.1.2-.1.3-.1.8 0 .3.1.7.2 1 .1.3-.2.5-.2.8v2.8c-.1.5-.2 1-.2 1.4.1.9.2 2 .2 2.2 0 .1.2.2.3.2 0 0 .1 0 .1-.1.3-.2.6-.3 1-.3s.8.1 1.2.2c.7 0 1.4-.1 2.1-.2.4-.1.3.2.3.2l.6.1c.9 0 1.8 0 2.7-.1 1.6-.1 1.1.2 1.8.2s1.9.1 1.9.1c.2.1.3.1.5 0s.2.2.4.3c0 .1.1.2.2.2.2 0 .3-.2.4-.5.1-.3 1-.2 1-.2.3.1.5.2.7.3.3.2.5.2.9.3.2 0 .4-.3.7-.2.4.1.7.3 1 .5.3.1 1-.1 2.1 0 .7.1 1.4.2 2.1.4.4.2.9.2 1.4.2.6 0 .5.1.5.1s.1.2.2.2c.2-.1.4 0 .5.2.2.2.3.1.9-.1.6-.2.5.1.5.1l.5.4.6.1c.2 0 .4.1.7.1.8.1 2 .6 2.2.6.3.1.7.2 1 .3.4.1.5.4.7.5.4 0 .8 0 1.2-.1.7 0 1.4.2 2 .5.9.3 2.1.7 2.6 1 .5.3.9.6 1.3 1 .2.5.2 1.1.2 1.7-.1.4-.2.7-.5 1-.1.2-.2.4-.2.6 0 .2-.4.5-.6.7-.2.2-1.1.1-1.4.2-.7.4-1.5.6-2.4.6-.9.1-1.7.1-2.6.1-.2.1-.3.1-.5.2s-.5-.1-.7-.1c-.2 0-.6-.1-.4-.2.2-.1-.2-.3-.5-.4-.5-.1-1-.1-1.5-.1-.3.1-.7.2-1 .2-.3-.2-.7-.4-1-.5-.4-.1-.4-.6-.4-.7 0-.1-.2-.2-.4-.2s-.6-.6-.5-.9c.1-.3.4 0 .6-.1l.6-.3c.3 0 .7-.1 1-.1l1.4-.2c.6-.1.4 0 .9-.1s.5-.1.4-.2c-.1-.1.4-.2.9-.3.5-.1 1.1-.2 1.5-.3.4-.1.5-.3.5-.5s-.7-.1-1-.3c-.3-.2-.7-.3-1.1-.5-.2 0-.5-.1-.6 0-.1.1-.2-.1-.2-.2s-.2.1-.5.1-.1-.2-.7-.6c-.6-.3-1.3-.5-1.9-.5-.6 0-1.2-.1-1.8-.3-.2-.1-.4-.2-.5-.4h-1c-.3 0-.6-.1-.9-.3-.6-.2-1.2-.4-1.9-.5h-1c-.2-.1-.4-.2-.5-.3-.1-.2-.7-.2-.9-.3-.4 0-.8 0-1.2.1-.2.1-.5.1-1-.2-.5-.3-.4-.2-.5-.1-.4 0-.9-.1-1.3-.2-.2-.1-.5-.2-.7-.2-.3-.1-.7 0-1 .1-.3.2-.5-.1-.9-.2-.5-.1-1.1-.1-1.6-.1s-.9 0-1.4.1c-.3.1-.6.1-.9-.1-.3-.2-.6-.3-.9-.3-.3 0-.5 0-.8.1-.2.1-.3 0-.5-.1s-2.3 0-2.6 0c-.6.1-1.3.1-1.9.1-.3 0-.5.2-.5.4v.9c-.1.6-.1 1.2 0 1.8 0 .3 0 .7.1.9.1.3.2.5.1.8 0 .5.2 1.8.2 1.8.1.3.1.6.1.9 0 .5.1 1 .3 1.5.2.4-.2.7-.1 1.3 0 .5.1 1.1.2 1.6.2.6.3 1.2.4 1.8.1.8-.1 2.5.1 3.7 0 .9.2 1.8.4 2.7.3.6-.1 1.4.2 1.9.3.5.4.3.4.3.2 0 .3 0 .5.1.3.1.2.1.4 0s.4-.1.8 0c.3.1.6.1.9 0 .4 0 .8 0 1.2.1.7.1 2 .3 2.7.4.6.1 1.3.1 1.9 0 .4-.1.7-.1 1.1 0 .2 0 .7.1.7.1s.3.2.5 0 .5.1 1.3.2c.9.1 1.8 0 2.7-.2.7-.2 1.5-.2 2.2-.2.7.2 1.4.2 2.1-.1 1.2-.4 1.3-.5 1.7-.6.8-.1 1.5-.1 2.3 0 .4.1.9-.1 1.2-.3.2-.1.4-.1.6-.1.3.1.6-.1 1-.3.6-.3 1.1-.5 1.8-.6.8-.2 1.5-.5 2.3-.8.8-.3 1.5-.6 2.2-1 .5-.4 1-.6 1.6-.7.9-.3.7-.5.9-.6.2-.4.5-.6.9-.8.4-.2.7-.4 1.1-.6.3-.2.7-.5 1.1-.7.4-.3.8-.6 1.2-1l-.1-.5 1.6-1c1-.7.6-1.2 1-1.5.7-.6.3-.6.3-.6.4-.4.8-.8 1.2-1.1 1.1-.9.3-1.2.4-1.3.1-.1.2-.4.4-.4s.4-.4.4-.6c0-.2.3-.7.9-1.4.5-.4.6-1 .5-1.5-.1-.6.1-.5.3-.7.2-.2.4-.5.4-.8.1-.6.2-1.3.4-1.9.2-.5.3-.9.1-1-.2-.1.1-.8.2-1.2.1-.3.1-.7-.1-1-.1-.2 0-.4.1-.5.1-.1 0-.3-.1-.5s.1-.4.1-.7c0-.2-.1-.4-.2-.5 0 0-.3-.5-.5-1s.2-.8.2-.8c.1-.2.2-.3.3-.5.1-.3-.2-.3-.4-.4-.2-.1-.1-.2 0-.4s0-.4-.1-.5c-.2-.2-.4-.5-.3-.7.1-.2-.4-.8-.6-1.2-.3-.6-.4-1.2-.5-1.8-.1-.2-.1-.4-.2-.5-.1-.3-.2-.5-.5-.7-.2-.1.4-.6.4-.9-.1-.3-.4-.5-.8-.5-.5-.1-.6-.5-.8-.9-.2-.4-.4-.8-.5-1.1-.1-.2-.3-.4-.6-.6-.2-.1-.3-.8-.5-1-.2-.3-.4-.7-.7-.9-.3-.3-.5-.7-.6-1.1-.2-.6-1.1-1-2.2-2.3-1.1-1.3-2.2-2.3-3.3-3.3-.2-.3-.5-.5-.8-.7-.4-.2-.8-.4-1.1-.8-.4-.6-1-1-1.6-1.3-1-.6-2-1.3-3-2-.6-.5-1.3-1-2-1.3-1.2-.6-2.3-1.2-3.4-1.9-.4-.3-.9-.5-1.4-.6-.5 0 2.6 1.5 2.4 1.2-.2-.3-.1-.3-.5-.4-.4-.1-.9-.1-1.1-.4-.2-.3-.3-.2-.8-.2s-5.9-2.8-6.4-2.8c-.3 0-.6-.1-.9-.4-.1-.2-.6-.1-1.9-.2-.9-.1-1.7-.5-2.3-1.1 0 0-.2 0-.8-.2-.6-.2-.2-.2-1-.3-.8-.1-.7-.2-.9-.1-.2.1-1-.7-1.6-.7-.4-.1-.7-.2-1.1-.3-.2 0-.3.1-.5.2-.3 0-.7-.1-1-.2 0 0-.9 0-.9-.1-.3-.2-.7-.3-1.1-.3-.3 0-.5-.2-.9-.5s-1.5.2-1.5.2h-.9c-.2 0-1.2-.3-1.6-.4-.7-.2-1.4-.3-2.1-.2-.5 0-1.1 0-1.6-.1-.3 0-1.4-.2-1.6-.2-.2 0-.1-.2-.2-.3-.8 0-1.6 0-2.5.1h-2.9c-.5.1-1.4-.2-1.8-.3-.5-.1-.9-.1-1.4 0-.7.1-1.8-.1-3.1-.1h-3.6c-1.2-.1-2.5 0-3.7.3-.8.2-1.7.3-2.5.2-.7.1-1.3.2-1.9.5-.1.1-.3.5-.9.8-.6.2-1.1.5-1.7.8-.2.2-.4.5-.6.7-.2.2-.5.5 0 .9s.1.6-.2.6c-.3 0-.6.4-.9.5-.4.1-.7.2-1.1.2-.4-.1-.4.2-.7.3-.3.1-.7.1-.9 0-.2-.1.1-.4.1-.5 0-.1 0-.2.1-.3.1-.2.1-.5.1-.8-.1-.1-.4-.1-.6-.1-.4 0-.7 0-1.1-.2-.5-.2-.1-.7 0-1.1.1-.4.1-.8 0-1.1 0-.3.1-.6.4-.8.4-.2.7-.5 1-.7.7-.4 1.4-.6 2.2-.8.6-.2 1.2-.3 1.8-.3.3-.1.7-.2 1.1-.2.8-.1 1.6-.3 2.3-.5 1.1-.2 2.1-.2 3.2-.1.7-.1 1.5-.1 2.2 0 1.1.1 1.2.3 1.1 0-.1-.3 2.6-.3 3.2-.2.6.1.4.1.8 0 .5-.1.9-.1 1.4.1.5.2 1.1.2 1.6 0 .6-.1 1.2 0 1.8.1.7.1 1.4.1 2.1 0 1.2 0 2.4 0 3.7.1.7.1 1.3.1 1.6.2.3.1.4.1.6 0 .2-.1.7.2 1.2.3.6.1 1.1.1 1.7.1.5 0 1 .1 1.5.2.6.1 1.2.2 1.9.1.9-.1 1.8 0 2.7.2 1.6.4 1.2.3 2.2.5 1 .2 1.2.2 2 .3.7.1 1.3.2 2 .4.6.2 1.2.4 1.8.4.4.1.8.1 1.2.1.4.2.8.3 1.2.6.2.1.8 0 .8 0 .3 0 .6.1.9.2.6.3 1.2.5 1.9.6.8.2.7.2.9.2.2 0 1.1.6 1.8.8.7.2.7.1.8.4.1.3 1.6.3 1.8.3.3 0 .5-.1.8-.2.5 0 .4.4.6.4.3.1.5.2.8.4.2.1.5.2.7.2l.6.1c.4 0 .8.2 1.1.4.6.3 1.2.6 1.9.8.5.2.9.4 1.4.7.4.2.8.5 1.2.6.4.2.9.4 1.3.6.2.2.4.3.7.4.5.2.6.4 1.4.7.4.1.7.3 1 .6l.3.3.1.4s0 .2.4.2.5-.1.5-.1c.2.1.3.3.5.4.2.3.1.2.6.5s.3.2.6.4c.5.3.9.6 1.4 1 .4.4.9.6 1.4.5.4.1.7.3.9.6.1.2.3.4.5.6.3.1-.1.6.2.9.7.5 1.3 1.1 1.9 1.8.8.9.5.8.5.8.4.1.7.2 1 .5.2.2.4.4.7.6.3.2.5.5.6.8.1.1.4 1 .4 1.2.2.2.5.3.7.4.2 0 .3.1.5.2.1.1.1.5.3 1 .2.5 1 1.2 1.2 1.6.2.4.5.5.7 1 .2.5 0 .5.9 1.3s.7.5 1 1.2c.3.6.5 1.2.6 1.8.2.6.4.2.7.6.3.4.1.9.2 1.6.1.7 0 .7 0 .7s-.4.3-.3.5c.1.2.3.7.6.9.3.2.4.8.5 1.2 0 .7.1 1.4.3 2.1.1.8.3.7.4 1 .1.3-.1.5.1 1 .2.4.2.8 0 1.1-.1.2-.1.4 0 .7.1.3.2.2.1.6-.1.7-.2 1.3-.2 2s-.1 1.3-.2 2c0 0-.1.8-.3.9-.2.1.1 0 .1.3-.2.5-.4 1.1-.6 1.6-.1.3-.1.9-.4 1.1-.3.2-.2.3-.1.6 0 .2-.2.4-.4.4s-.4.2-.5.7c-.1.5-.5 1.3-.8 1.7-.1.2-.3.4-.5.6 0 0-.3.8-.4 1-.1.2-.4.6-.5.6-.1 0-.4.3-.6.8-.2.4-.4.7-.6 1-.1.2-.3.4-.5.4-.2.1-.4.4-.8.8-.5.5-1.1 1-1.7 1.4-.4.2-.4.4-.6.5-.2.1-.7.6-.8.8-.8.7-1.7 1.2-2.8 1.5-1 .3-1.9.9-2.6 1.6-.5.3-1.1.5-1.7.6l-1.8.6s-.2.4-.5.4c-.4 0-.8.1-1.1.3-.4.2-.9.3-1.1.4-.2.1-.2.2-.4.2-.4-.1-.9 0-1.2.2-.7.3-1.4.5-2.1.5-.5.1-.9.3-1.3.6-1.1.2-2.3.4-3.4.4-.4 0-.7.1-1.1.2-.7.2-1.4.3-2.2.3-.9.1-1.8 0-1.9 0-.5.1-1.1.2-1.6.3h-1.2c-.4.1-.6 0-.7.2-.1.2-.6.1-.8-.1-.2-.2-.8.1-1 .2-.2.1-.5-.1-.7-.2-1-.1-2-.1-3 0-.7 0-1.3.1-2 .1-.2 0-.4 0-.5-.2-.8-.1-1.6-.1-2.4-.1-.6 0-1.3 0-1.9.1-.8.1-.8 0-1.2-.4-.4-.4-.1.3 0 .7.1.4.2.5.3.6.1.1.2.6.3.8.1.3.1.6 0 .9-.2.5-.6.9-1.1 1.2-.3.1-.5.2-.7.4-.3.2-.6.4-1 .6-.3.1-.9-.1-1-.1-.2 0-.4-.1-.7-.2-.4-.1-.6 0-1.2 0s-.4-.3-.5-.6c-.1-.3-.4-.3-.7-.7-.3-.4-.8-.3-1.1-.5-.4-.5-.5-1.3-.3-1.9.1-.6 0-1.2-.2-1.8-.3 0-.7-.1-1-.1-.2.1-.4-.1-1.3-.4-.5-.2-1-.3-1.6-.3-.4 0-.7-.1-1-.3-.4-.2-.7-.3-1.1-.2-.3.1-.6-.2-.9-.5-.3-.3-.4-.2-.7-.4-.7-.2-1.4-.2-2.1-.2-.4 0-.6-.3-.8-.5-.2-.2-.5-.5-.7-.8-.2-.3-1.2-.1-1.8-.1-.6 0-.2 0-.2-.6s-.1-.2-.6-.4c-.3-.2-.6-.2-.9-.1-.2.1-.4 0-.5-.3-.1-.2-.4-.3-.7-.2-.2.1-.5-.2-.5-.4s-.1-.3-.6-.5-.7-.4-1.4-.8c-.7-.3-1.2-.7-1.7-1.2-.6-.6-.9-.9-1.9-1.7-.6-.5-1.4-.9-2.2-1.2-.6-.2-.5-.8-.8-.9-.3-.1 0-.4-.2-.7-.2-.3-.4-.7-.7-1-.3-.4-.5-.7-.7-.9-.2-.2.2-.6.2-.8.1-.2.1-.4 0-.7-.1-.3-.2-.6-.2-.9 0-.2-.1-.3-.3-.5-.2-.2 0-.4.4-.5.4-.1.3-.3.3-.4 0-.1.3-.2.5-.3.2-.1.2-.7.1-.8 0-.3.1-.5.3-.6.3-.2.8-.7 1-.9v-.3s.7-.6 1.1-.8c.4-.2.9-.4 1.4-.5.5-.2.9-.6 2.1-1.3.6-.4 1.3-.7 2.1-.9.4-.1.8-.2 1.3-.2.6-.1 1.1-.3 1.7-.6.7-.3 1.5-.5 2-.6.5-.1.4.2.4.2.4-.1.9-.2 1.3-.3.7-.2 1.4-.4 2.2-.5 1.2-.1.9.1 1.8-.2.7-.2 1.5-.3 2.3-.3 1-.1 1.4 0 2.9-.1-.7.2-.9-.7-.8-1.3" class="st1"/><path id="Path_22" d="M241.4 46.3c.1 0 .2.1.3.3.1.2.3.3.4.3h.1c.2-.2.4-.9.4-.9s.3-.1.5.1.1.4.7.7c.5.3.7.8.8 1.4.1.5 0 3.1.1 3.5.1.5.1 1 0 1.5 0 .4 0 .8.1 1.2.1.3.1.6 0 .9 0 1.2 0 2.3.1 3.5.1.8.1 1.6.1 2.4-.1.3-.1.7-.1 1 0 .2.1.8.1.8s.3.5.2.8c-.1.3-.2.4-.4.4s-.1.3-.1.4c0 .1.1.3.3.3.2 0 .4.1.3.3-.1.2-.2.5-.2.7V68c0 .7.2 1.9.2 2.5v2.3c.1.4.2.8.3 1.1 0 0 .5.4.5.6 0 .2.1.6 0 .7-.1.1-.2.6 0 .6s.4.2.4.4-.2.1-.3.3c-.1.2-.1.6-.2.9-.1.3-.3.3-.3.5s-.2.7-.6.8c-.2 0-.4.1-.7.1 0 0-.1-.3-.5-.2-.8.1-1.7-.1-2.4-.4-.2-.2-.2-.6-.4-.7-.2-.1-.7-.5-.6-.7.1-.2.1-.3 0-.4-.2-.1-.4-.3-.5-.6 0-.2 0-.6-.3-.9-.3-.3-.5-.7-.6-1.2 0-.2-.2-2.9-.3-3.9 0-.6-.1-1.2-.4-1.8-.1-.2-.2-.8 0-.8s.4.3.2-.4.1-.9.1-1.4c0-.5-.2-.8 0-.9.2-.1.4-.1.2-.4-.2-.3 0-.3-.1-.6s-.4-.4-.2-.6c.2-.2 0-.7.2-1.3.2-.6 0-1.8.2-3.3.1-.8.2-1.6.4-2.4.1-.8.2-1.6.2-2.5.1-.9.2-1.7.4-2.6.1-.4.2-.7.2-1.1.1-.3.3-2.2.4-2.4.1-.2.4-.7.4-.7l.4-.3" class="st1"/><path id="Path_23" d="M274.7 52.5c.3-.2.6-.3.9-.2.4.1.7.1 1.1.1.4 0 .4-.1.7-.1.3 0 .7-.1.8-.3.1-.2.1-.5.4-.5.3 0 .5-.1.4-.3-.1-.2.1.2 0 0s-.2-.1-.4-.2c-.3-.3-.6-.5-1-.6-.5-.1-.9-.3-1.2-.3-.5-.1-1.1-.2-1.7-.2-.6.1-1.2.5-1.6.3-.3-.2-.6-.2-.9-.2-.3 0-.5 0-.8.1-.2 0-.5.1-.7.2-.1.1-.2.2-.4.1-1 .1-1.9.2-2.9.5-.5.1-.6.1-.9.2h-.7c-.3 0-.7.1-.8 0-.1-.1-.5.1-.5.1s0 .1-.6.2-.7.1-1.3.2c-.6.1-.6 0-.9.1-.4.1-.9.2-1.3.3-.2 0-.4 0-.6.1-.4.1-.3.2-.8.2-.2 0-.4 0-.6.1l-.2.5c-.1.1-.3.1-.4 0-.2-.1-.2-.2-.4-.2-.4.1-.7.2-1.1.3-.6.1-1.1.4-1.7.7-.2.2-.4.3-.6.4-.4.1-.7.3-1 .5-.2.2-.4.3-.6.4-.3.1-.5.3-.7.4-.2.1-.7.4-.7.6 0 .2-.2.4-.4.5-.3.1-.2.3-.4.4-.2.1-.4.2-.5.5-.2.3-.4.7-.6 1-.2.2-.5.7-.4.9.1.2.2.4.3.5.1.1.4.3.3.6-.1.3-.1.5.1.6.2.1.9.4 1 .6.2.3.5.5.9.6.6 0 1.2.2 1.7.5s1 .4 1.5.5c.5.1 1 .1 1.1.3.2.2.5.3.8.3.3-.1.7-.2 1-.1.6.1 1 .4 1.2.3.2-.1.1-.5.6 0 .3.3.7.5 1.2.3.2-.1.1-.2.7-.1.3.1.7.2 1.1.3.8.2 1.6.4 2.5.5 1 .1 1.9.3 2.8.6l1.8.6c.3 0 .6.1.8.3.1.2.4.1.5.3.1.2.3.6.4.6.1 0 .2-.1.4-.1.1.1.2.3.3.4.3.2.5.5.7.9.1.2.2.5.4.7.1.2.2.5.2.7.1.2.2.5.1.6-.1.1 0 .2 0 .6 0 .6-.2 1.1-.5 1.6-.4.4-.6.7-.9 1-.3.3-.5.2-1 .5s-1.1.5-1.5.7c-.4.2-.8.3-1.2.4-.1 0-.2-.2-.5 0s-.6.2-.9.2c-.4 0-.7-.1-1 0-.2 0-.4.1-.5.2-.1.1-.2.2-.4.3-.2.1-.6.1-.6-.1s.1-.2-.6-.2-1.4-.2-2-.2c-.3.1-.6 0-.9-.2-.3-.1-.5-.2-.8-.2h-.7s-.3-.2-.5-.1-.2 0-.5-.3-.2-.4-.3-.7c-.1-.3-.4-.5-.2-.7.2-.2.5-.2.7-.4.2-.2-.4-.6.3-.8.7-.2 1.2-.1 1.5-.4.3-.3 1-.3 1.3-.3.4 0 .8 0 1.2-.1.3-.1.4-.3.6-.2.2.1.9 0 .7.2-.2.2 0 .6 0 .6l.4.3h.5c0-.2.1-.4.2-.6.1-.2.3-.6.1-.6-.2 0-.3-.2-.3-.2s0-.4-.2-.4-1-.2-1.4-.2c-.4 0 .2-.2-.5-.2h-2.2c-.1.1-.2.1-.3.1-.2-.1-.4-.2-.7-.2-.1 0-.7-.1-.9 0-.2.1-.3.1-.9.1-.6 0-.9.1-1.4.1-.5 0-.8 0-1 .2-.3.2-.6.3-1 .3-.5.1-.7.1-.8.3-.1.2-.4 0-.4 0-.3.1-.7.2-.7.3 0 .2-.2.3-.3.4-.1 0-.4.1-.5.3-.1.2-.2.4-.1.6.1.2.1.3-.1.3s-.4.1-.4.3c0 .2-.1.5-.2.7-.2.1.1.3.1.3-.2.1-.5.3-.5.5s-.5.4-.1.6c.4.2.6.3.7.3.2-.1.4 0 .6.1.3.3.6.5.8.8 0 0 0 .3.7.3.4 0 .8.1 1.2.2.7.1 1.4-.1 1.7.1.3.2 1 .2 1.2.3.2.1.4.4.5.3.1-.1 0-.2.5-.3.3 0 .6.1.9.3 0 0 .3.4 2 .4 1.4.2 2.8.2 4.2.2.7-.2 1.4-.3 2.1-.3.3.1.5.1.8 0 .7-.2 1.5-.4 2.2-.5.4 0 .9-.1 1.3-.2.6-.1 1.1-.4 1.7-.7.2-.1.4.1.5-.1.1-.1.2-.2.4-.3l-.3-.2s.4.1.6-.1c.2-.2-.1-.1.6-.6l1.8-1.2c.2-.2.6-1.3.7-1.3.1 0 .7-.2.7-.3.1-.3.2-.5.3-.8 0 0 .5-.3.9-2 .2-1.2-.2-2.4-.9-3.3-.7-.6-1-1.3-1.4-1.4-.4-.1-.1-.2-.6-.4-.4-.2-.8-.3-1.2-.4-.3 0-.8.3-.9.1-.1-.2-.1-.3-.1-.5v-.4s.1-.1-.6-.1-.7 0-1-.2c-.3-.2-.2-.2-.5-.2-.3-.1-.7-.1-1 0-.6.1.4-.2-.9-.2-.8 0-1.6-.2-2.4-.4-.6-.1-1.1-.2-1.7-.2-.3.1-.4 0-.9-.1s-.3-.2-.7-.1c-.4.1-.9 0-1.3-.1-.8-.2-2.5-.5-2.5-.5s-.8-.5-1.1-.4c-.3.1-.2.4-.6.2-.4-.2-.1-.3-.7-.3s-.8 0-1.1-.4c-.3-.4 0-.3-.7-.5-.3-.1-.6-.3-.9-.5-.3-.2-.4-.7-.3-.9.1-.2 0-.9.2-1l.6-.1c.1-.1.2-.3.2-.4 0-.1.4-.3.5-.3.1 0 .5-.2.9-.3.4-.1.4-.2.4-.3 0-.1.5-.3.8-.4.4-.1.7-.2 1-.4.2-.2.4-.3.7-.3.2 0 1.9 0 1.6-.2-.3-.2-.3-.1.2-.3.4-.2.9-.2 1.3-.1.3.1.6-.4.7-.6.3 0 .7.1 1 .2.3.1.6-.1.5-.2-.1-.1-.2-.2.2-.2s1 .1.8.3c-.2.2.3.1.3.1.3-.1.6-.2.9-.2.5-.1 1.1-.3 1.5-.7 0-.1-.2 0 .2-.1s.8-.3 1-.1c.2.2.3.3.7.3.3 0 .6 0 .9-.1.6-.2 1.2-.3 1.8-.3" class="st1"/><path id="Path_24" d="M288.5 50.9s.4-.7-.4-.6c-.8.1-.3.3-.5.3s-.6.1-.6.2 0 .4-.3.4-.4.3-.4.5c0 .3-.1.5-.2.7-.2.2-.4.3-.4.7.1.3 0 .7-.1 1-.1.4-.2.8-.3 1.1 0 .1-.1.5-.1.7-.1.3-.2.5-.2.8 0 .2.3 0 .3.3 0 .5 0 .9-.2 1.3-.1.1-.3.2-.5.2-.1.1-.2.2-.1.3 0 .2.2.8 0 .9-.2.1-.1.3-.1.6 0 .4 0 .8-.2 1.2-.2.3-.3.6-.3 1 0 .3.1.7 0 .9-.1.2 0 .2 0 .5s0 .6-.2.7c-.2.1-.3.3-.3.5v1.5c-.1.4-.2.7-.2 1.1.1.4.1.8 0 1.1-.2.4-.4 1.7-.2 1.6.2-.1.4-.1.5.1 0 .3 0 .6-.1.9 0 .2-.4.6-.4.6v.3c.2.3.2.6.2.9-.2.3.1 1.1.1 1.3.2.4.2.8.2 1.2 0 .6.2.8.2 1.1 0 .3 0 .7.2 1 .2.1.2.4.5.7.3.3.8.4 1 .6.2.2.5.3.8.2.3 0 .6 0 .8.2.2.1.4.2.6.1.4-.1.3-.3.5-.3s.6-.1.7-.1c.1 0 .6-.2.5-.5-.1-.3.1-.5.1-.8 0-.3-.2-1-.3-2.3l-.2-2c0-.4-.1-.8-.2-1.1 0-.2-.1 0-.2-.3-.1-.4-.1-.8-.1-1.2 0-.3-.1-1 0-1.2.2-.3.3-.7.2-1.1-.1-.8-.1-1.6 0-2.3.1-.7.1-.8.1-1.1 0-.4.1-.8.2-1.1.1-.4.4-1.3.4-1.7.1-.3.1-.5.1-.8 0-.2.3-.7.3-.9 0-.2.1-.5.2-.6.1-.3.2-.7.2-1.1.1-.4.2-.7.4-1 .1-.2.2-.8.7-.3.5.5.9 1.2 1.1 1.5.2.3.6.5.7.7.1.2.3.5.4.7.1.3.6.7.7 1.1.1.4 0 .8.2.8s.4-.1.5.4c.1.3.3.6.5.9.1.2.2.4.2.6 0 .2 0 .6.1.7.1.1.2.3.3.5.1.5.3 1 .6 1.4.3.3.7.5.7.8 0 .2.1.3.1.4.1 0 .2.1.3.3.1.2.3.8.3.8.1.5.3.9.5 1.3.3.3.3-.3.5.4.1.5.3.9.6 1.3l.4.4s.1 0 .2.3c.2.6.5 1.1.8 1.6.4.5 1.1 1 1.3 1.4.1.3.3.7.6.9.4.4.5.9.9 1 .2 0 .4.1.6.3.1.1.5.2.4.3-.1.1 0 .4.3.4s.7-.1 1-.2c.2-.1.4-.1.5-.3l.2-.4s.3-.1.4 0c.1.1.1.3.3.3.2 0 .2.2.2.2.1 0 .3-.1.4-.2l.4-.4c.1-.1.2-.3.2-.5s0-.4.1-.7c.2-.2.3-.3.5-.4l.2-.3-.2-.3s0-.3.1-.4c.1-.1 0-.2.1-.4s.3.1.3-.1c.1-.3.2-.7.1-1-.1-.4 0-.8.3-1.1.3-.4.2-.4.4-.6.2-.1.2-.3.1-.5v-.5c0-.3.4-.6.2-1.2s.2-.8.1-1.1c-.1-.7-.1-1.5 0-2.2 0 0 .4-.1.2-.5 0-.2-.1-.5-.2-.7-.1-.2-.2-.5-.1-.8v-.2c.1 0 .3-.1.3-.2v-.1c0-.3-.3-.8-.3-.9 0-.1 0 0-.1-.5s-.1-1-.1-1.5c-.1-.2-.1.1-.2-.7-.1-.8-.1-1.6-.1-2.3v-1c0-.1-.1-.2-.2-.3-.2-.1-.3-.3-.3-.5s-.2-.1-.2-.6 0-.6-.2-.7c-.2-.1-.4-.1-.4-.3 0-.2-.1-.5-.1-.8 0-.2-.1-.4-.3-.6-.2-.2-.1-.4-.2-.9s-.1-.9-.3-1c-.2-.1-.3-.3-.4-.7-.1-.3-.2-.5-.3-.8-.1-.3-.1-.5-.3-.8 0 0-.2 0-.4-.4s-.1-1.1-.3-1.2c-.2-.1-.3-.1-.5-.5s0-.4-.4-.7c-.4-.3-.1-.1-.5-.7s-.8-.8-.8-1.1c0-.3-.1-.4-.4-.5-.3-.1-.6-.2-.7-.5-.1-.3 0-.7-.1-.8-.1-.1-.4-.3-.5-.3-.1 0-.4.2-.4-.2 0-.3-.2-.6-.4-.7-.2-.1-.5-.3-.7-.5-.3-.2-.5-.2-.5-.4s-.1-.3-.3-.2c-.2.1-.5 0-.7 0-.2 0-.8.1-.8.3 0 .2.1.4.3.5.2.1.4.1.4.3 0 .2.2.5.4.3s.2-.1.3.1c.1.3.3.5.5.7.2.2.5.6.6.7.1.1.5.7.5.8 0 .1.4.4.5.7.1.3.7.5.7.7 0 .2-.1.5.1.7.1.2.2.4.1.7 0 .4.2.8.4 1.2.3.2.8.6.8.6.1.2.1.5.1.7-.1.4 0 .7.2 1 .3.3.4.7.5 1.2 0 .3.1 1.2.2 1 .1-.2.2 0 .2.5-.1.6-.1 1.2.2 1.7.3.3.4.7.5 1.1.1.4.3.7.2 1-.1.2-.1.5 0 .7.1.3-.2.5 0 .8.2.4.3.8.3 1.2 0 .7-.1 1.4 0 1.8.1.4 0 .7.1.7s.3.4.2.9c-.1.3-.2.7-.1 1 0 .1.1.2.2.3 0 0 .3 0 .2.2-.1.2-.1.5-.3.4-.2-.1-.4 0-.3.2 0 .4 0 .8-.1 1.1-.2.6-.3 1.3-.2 2 .1 1.1.1 1.5 0 1.7-.3.4-.5.8-.6 1.3-.1.7-.1 1.1-.4 1-.3-.1-.4-.3-.6-.4-.2-.1-.4-.2-.6-.6-.2-.4 0-.6-.4-.9-.4-.3-.9-.2-1-.8-.1-.4-.2-.9-.4-1.3-.1-.1-.2-.2-.4-.3-.1 0-.4-.1-.4-.3 0-.2.1-.2-.1-.3-.2-.1-.3-.2-.3-.4s0-.7-.3-1c-.3-.3-.4-.3-.5-.6-.1-.3-.2-.4-.3-.5-.1-.1 0 .3-.3-.6-.3-.9-.9-1.3-1.9-2.9-1-1.6-1.7-2.5-2-3-.3-.5-.4-.6-.4-.8 0-.2.2-.3 0-.7-.2-.4-.6-.8-1.2-1.7-.6-.9-1.3-1-1.6-1.5-.2-.4-.4-.8-.7-1.1-.3-.3-.5-.5-.7-.4-.5-.5-1-.8-1-1 0-.2.2-.1-.4-.2-.6-.1-1.1-.3-1.4-.2" class="st1"/><path id="Path_25" d="M318.8 52.6c-.1-.2-.3-.2-.5-.2 0 0-.1-.2-.6-.2s-1.2.3-1 .1c.2-.2.1-.2 0-.4s-.2-.3-.2-.4c0-.2 0-.4.1-.6 0-.3.2-.5.4-.7.3-.3.6-.5 1-.7.3-.1.7-.4.9-.3.2.1.5-.1.9-.2.4-.2.9-.3 1.4-.4.6-.1 1.2-.3 1.8-.6.3-.1.6-.1.9-.1.2 0 .5 0 .7-.1l1.1-.3c.3-.1.7-.1 1-.1l.4.3.3-.2c.2-.1.4-.2.6-.2h.9l.5-.2.4.1c0-.2.2-.3.4-.3h.1c.5.2 1 .2 1.5 0 .3-.1.5-.2.8-.1 0 0 .1.1.6.1s1.4.1 2.1.1c.7 0 1.1-.1 1.2.1.1.2.6.2.6.2h1c.5 0 1.1.1 1.1.2s.2.3.4.2c.3 0 .6 0 .9.1l.4.4c.2.1.4.2.5.3.1.2.2.4.1.7-.1.2.1.3.1.3l-.1.3c-.2 0-.3.1-.5.1-.2.1-1 .4-1.2.5-.2.1-.6-.1-1 .1s-.6.5-.8.4c-.2-.1 0-.2-.6 0-.4.1-.8.1-1.2 0h-.9c-.2.1-.5.2-.8.2-.3 0-.9 0-1-.3-.1-.3.1-.5 0-.6 0-.2-.1-.3-.1-.5 0 0 .3-.3 0-.3s-.5.1-.7.1c-.2 0-.2-.2-.7-.2-.5.1-1.1.1-1.6.1-.2-.1 0-.1-.7 0-.6 0-1.2.2-1.7.5-1.4.5-1.5.4-2 .7-.3.2-.6.3-1 .3s-.4.2-.7.3c-.3.1-.2.3-.3.6-.1.3-.2.5 0 .6.2.1.2.3.2.6s-.3 1-.4 1.5c-.1.5-.2 1-.2 1.4-.1.7-.3 1.3-.5 1.9-.1.3-.1.6 0 .9 0 .3-.1.5-.1.8v.6c.2-.1.3-.1.5 0 .3.1.4.1.9 0s1.2-.2 1.6-.3c.4-.2.8-.2 1.2-.1.2 0 .5 0 .7-.1.1 0 .2-.1.4-.1.3-.1.7-.1.7-.1s-.2.4.2.3c.3-.1.5-.2.7-.4 0 0 0-.3.2-.2.2.1.3.1.5.1h.3c.1 0 .4 0 .3-.2-.1-.2 0-.4.2-.2.2.1.4.2.6.2.1-.2.3-.3.5-.3s.4 0 .7.1c.2 0 .4 0 .6-.1.4-.1.8-.1 1.2-.1.4.1.7.2 1.1.3.3 0 .5.1.8.1.3 0 .5.1.7.3.2.1.4.4.1.6-.3.2-.7.4-.6.3.1-.1-.3.2-.4.2-.1 0-.5.1-.6.1-.1 0-.4.4-.4.4 0 .1-.1.2-.2.2-.2 0-.4-.1-.6 0-.5.3-1 .5-1.5.7-.5.1-.4.2-.9.3-.5.1-.5.5-.8.3-.3-.2-.4-.3-.5-.1-.1.2-.3.5-.5.4h-.5c-.3.1-.7.1-1 .2-.4.1-.1.5-.4.5-.3 0-1.2.2-1.5.2-.3 0-.6 0-.9.1-.3.1-.6.1-.9.1-.4 0-.8.1-1.1.2-.3.2-.7.2-1 .1-.2.1-.4.3-.3.6.1.4.2.7-.1 1-.2.3-.4.7-.5 1.1 0 .3.2.5.1.7-.2.4-.3.8-.4 1.3-.1.4-.2.7-.1.9.1.2.1.1 0 .4-.1.3-.5.9-.5 1.1 0 .2.4-.7.3 0-.1.7-.2 1.2-.2 1.5 0 .3.1.3 0 .7-.1.4-.5 1-.2 1.2.2.2.4.5.5.8.1.3-.1.9.3.8.3-.1.5 0 .7.2.2.2.6.4.9.4.2-.1 1 0 1.2-.1.8-.3 1.6-.6 2.4-.6.8 0 1 0 1-.2s.1-.3.4-.3c.3 0 .5-.1.7-.2l.9-.3c.2-.1.5-.2.7-.3.1-.1.2-.1.4-.2.4 0 .8-.2 1-.5.2-.3.4-.5.7-.7.2 0 .4-.2.6-.2.2 0 .3.2.6-.1.3-.3.5-.6.8-.5.3.1 0 .4.4.3.4-.1.7.1.7.3 0 .4 0 .7-.2 1l-.9 1.2c-.3.6-.2.8-.7 1-.5.3-.9.7-1.2 1.2-.2.2-.7.2-.7 0s.3-.2-.5.3c-.8.6-1.8 1.1-2.8 1.4-1 .3-1.3.3-2.3.6-.7.3-1.4.5-2.1.6-.9.2-1.8.3-2.8.4-.4 0-.7-.1-1.1-.2-.2-.1-.4-.2-.7-.2-.4-.1-.9-.2-.8-.4.1-.2 0-.4-.2-.3-.2 0-.4.1-.7.1-.3.1-.6.2-.9.2 0 0 .1-.3-.2-.3-.3 0-.8 0-.9-.2-.1-.2-.3-.7-.2-.9.1-.3 0-.7-.3-.9-.4-.3-.6-.1-.7-.5 0-.3-.1-.7-.2-1-.1-.2-.1-.3-.2-.4-.1-.1-.2-.2-.2-.4-.2-.5-.2-1 0-1.5.2-.4.2-.8.2-1.2 0-.2.2-1.1.2-1.5 0-.4.1-1.2.2-1.8.1-.6.1-1.2.2-1.4.1-.3.2-.6.2-.9 0-.2 0-.2.2-.5s.3-.7 0-.8c-.3-.1-.5.3-.7-.1-.2-.5-.2-1 0-1.5.2-.3.2-.7.7-1 .5-.3.8-.3.8-.7 0-.4.3-1.1.4-1.6.1-.5.1-1 .2-1.5s.5-1.4.4-1.6c-.1-.2-.3-.3 0-.5.4-.4.7-.9.7-1.5 0-.5-.2-.7.2-1.1.2-.3.3-.6.2-1-.2-.7-.2-1-.2-1.2" class="st1"/><path id="Path_26" d="M371.8 53.1c-.1.1-.5.1-.7.1-.3.1-.6.3-.8.6-.4.3-.7.7-1 1.1-.2.3-.4.1-.9.3-.5.2-.4.3-.7.6-.3.3-.2.2-.2.4s-.3.6-.5.7c-.2.1-.6.5-.9 1-.3.5-.4.6-.4 1s-.4.3-.6.5c-.4.3-.7.6-1 1-.3.4-.1.3-.4.8-.3.5-.2.2-.3.3-.1.1-.1.5-.6.7-.5.2-.5.2-.6.5-.1.3-.2.7-.3 1 0 .2-.1.4-.2.6-.1.1-.3.2-.3.3 0 .1-.4.3-.7.4-.3.1-.6.6-.9 1-.2.3-.4.6-.4 1-.1.3-.3.6-.5.8l-.6.9c-.1.2-.1.4-.4.6-.3.1-.4.4-.4.7-.1.4-.3.7-.5.9-.3.4-.5.9-.7 1.3-.2.2-.2.5-.3.8-.1.4-.3.7-.6 1-.3.3-.3.6-.5 1.5s.4.3.6.1c.2-.2.4-.3.6-.5.2-.2.2-.1.6-.1.3-.1.6-.2.8-.4.2-.2.5-.4.8-.5.4-.1.3-.1.5 0s.2.1.4 0 .1-.2.4-.3c.3-.1.3 0 .4-.2.1-.2.2-.2.5-.3.3-.1.4-.2.4-.4.1-.2.3-.3.5-.4.2-.1.4-.5.4-.7 0-.2.2-.2.5-.1s.7-.4.6-.7c-.1-.3.4-.2.5-.4.1-.3.3-.5.5-.7.2-.2.4-.1.7-.2.5-.4.9-.8 1.2-1.3l.6-.9c.4-.6.2-.4.5-.6.3-.2.4-.8.4-1 0-.2.1-.2.4-.1.3.1.2-.1.2-.3 0-.2.1-.4.3-.5.2-.1.2 0 .3-.2.1-.3.2-.5.4-.7.3-.3.5-.4.7-.7l.3-.9.4-.1c.1-.3.3-.6.5-.9.3-.5.4-.7.5-.9.1-.2.2-.4.2-.6 0-.2.3-.4.4-.8l.2-.8c.1-.2.2-.3.4-.5.2-.3.3-.6.3-.9-.1-.3.2-.5.3-.6.1-.3.2-.7.2-1 .1-.3.1-.6 0-.9-.1-.4-.1-.8 0-1.2 0-.4-.2-.5-.4-.7 0 0-.2-.2-.2-.4s-.2 0-.5.2m-21.1-5.7c.4 0 .5-.1 1-.4.5-.3.5 0 1.4-.2.9-.2.7.1 1.5.4.3.1.7.2 1 .3.3.1.3.2.3.2.1.2.2.4.2.6.2.4.2.9-.1 1.2-.4.4-.5.3-.9.5s-.3.1-.5.5-.5.7-.8.9c-.4.3 0 .5-.1.9s-.7.4-1.3.7c-.6.3-.1.2-.2.4s-.3.2-.3.5c0 .2-.2.5-.4.7-.3.4-.6.8-.8 1.2-.4.8-.8 1.5-1.4 2.2-.5.9-1 1.8-1.4 2.8-.5.9-.9 1.9-1.2 2.9-.4 1.2-.5 1.8-.8 2.7-.3.9.1.5.3.9.2.4-.5 1.2-.5 1.5 0 .3.1.4-.1.9s.1.4-.1.9c-.1.4 0 .8.1 1.1 0 0-.2.3 0 1.1s.2.3 0 .5 0 .6 0 .9c0 .3.4.6.5.9.1.3.1.3.3.6.2.3.5 0 .7-.1.2-.1.2-.2.6-.1.4.1.2-.4.4-1.2.2-.8.8-1.2 1.2-1.8.4-.6.4-.4.4-.7.1-.5.4-1 .8-1.4.3-.4.6-.8.9-1.3.2-.3.1-.2.3-.3.2-.1.2-.5.4-.8.2-.3.4-.6.5-.9.1-.4.7-.9.8-1.1.1-.2.2 0 .3-.2.1-.2.2-.6.2-.6l.1-.3c.1-.2.1-.3.2-.5 0-.1.5-.5.9-.7.4-.2.4-.1 1-1.2.6-1.1.6-1 .9-1.3.3-.3.3-.2.9-1.2.6-1 .7-.9 1.1-1.1.4-.2.3-.1.5-.1.1-.4.1-.7.3-1.1.1-.3.5-.3 1-.8s.3-.4.3-.4l1.5-1.5c1.2-1.2.8-.7 1.3-1.1.5-.4.3-.1.4-.4.1-.3.3-.4.8-.7.5-.3.5-.1.8-.5.4-.5 1-.9 1.6-1.2.6-.3.7-.5 1.2-.8.4-.2.8-.2 1.2-.2.4-.1 1-.4 1.8-.5.6-.1 1.2-.1 1.7 0 .9.1.9.1 1.1.4.2.3 0 0 0 .4s.2.1.4.6c.1.3.2.7.4.9.1.2.1.4-.1.6-.2.3-.3.6-.3 1 0 .5 0 1-.1 1.5-.2.5-.1.6-.5 1s-.2.6-.4 1 .1.3.1.8-.3.4-.3.5c-.1.4-.2.7-.4 1-.2.3-.3.6-.3.9 0 .1-.5.3-.5.3l-.1.5s-.5.7-.7 1c-.2.3 0 .6-.1.9-.1.3-.2.3-.3.5-.3.4-.7.8-1.1 1.1-.3.3-.4.6-.4 1-.1.2-.3.4-.5.6-.2.1-.2.3-.3.6-.1.3-.4.3-.5.6-.2.4-.5.8-.8 1.2-.3.3-.2.4-.2.5-.1.2-.2.3-.4.4-.2.1-.2.1-.4.5s-.6.4-.8.6c-.2.2-.3.4-.4.7-.1.3-.3.5-1 1.1-.7.6-1.9 1.6-2.3 2-.2.2-.4.4-.5.6-.1.2-.5.1-.6.4-.1.3-.7.4-.9.5-.2.1-.4.3-.6.6-.1.2-1 .7-1 .7s-.5.2-.9.4c-.3.1-.5.2-.8.4-.2.2-.5.2-.6.2-.2.1-.3.2-.5.3h-.4c-.2-.1-.2 0-.6.2-.4.2-.4.4-.7.7-.3.3-.4.1-.7.3-.3.2-.8.4-1.2.4-.4 0-.2.4-.3.9-.1.5-.4.6-.7 1.3-.2.5-.5.9-.8 1.3 0 0-.1.9-.1 1.2 0 .3-.5 1-.6 1.3-.1.3-.5.7-.4 1.1.1.4-.3 1.2-.4 1.4-.1.3-.2.6-.2.9 0 .5-.1 1-.3 1.5-.1.5-.2 1.1-.3 1.6-.2.4-.3.9-.4 1.3-.1.6 0 .9-.2 1.3-.2.5-.2 1-.2 1.4 0 .5-.1.9.1 1.1.2.2.1.4-.1 1.1-.1.4-.2.8-.1 1.2 0 .3.1.5.3.8.1.2.2.2.3.4.1.2-.5.5-.7.6-.2.1 0 .4-.2 1.1-.2.7 0 .9.2.9s.1.3 0 .7c-.1.6 0 1.2.1 1.8.2.7-.2.8-.2 1 0 .2.2.3.4.7.1.4.1.8 0 1.1 0 .1-.3.7-.4 1.2-.1.5.1.4.2 1.1.1.7 0 1.6 0 1.9 0 .2.1.4.1.6 0 .1-.3.2-.4.3-.1.1-.1.3-.1.5 0 .1-.4.3-.5.5-.2.2-.4.4-.7.6-.1.2-.1-.2 0-.3.1-.1-.6.2-.9.4-.3.2-.4-.1-.8-.1s-.6-.3-.8-.4c-.2-.1-.4-.2-.9-.4s-.4-.5-.4-.5c-.2 0-.4 0-.6.1-.2.1-.4 0-.7-.1-.3-.1-.8-.4-.8-.4-.2 0-.4 0-.5-.1-.2-.1-.1-.9-.1-1.2 0-.3 0-.6-.1-.8-.2-.3-.4-.6-.8-.8-.3-.2-.3-.8-.4-.9-.1-.1-.2-.2-.3-.2 0 0-.6-.9-.8-1.1-.1-.2-.3-.4-.4-.6-.1-.3-.3-.2-.3-.2s-.2-.4.2-.5c.4-.1.4-.4.7-.4h.6c.3-.1.7-.2 1-.4.5-.1.4.2.6.3.2.1.2 0 .5-.1.2-.2.3-.4.4-.7v-.7c.1-.3.2-.5.2-.8 0-.2-.1-.3-.1-.7 0-.3 0-.5-.1-.8 0-.2.1-.4.4-.4.2 0 0-.4 0-.6 0-.2.4-.1.4-.5s.1-.4.1-.6c.1-.4.1-.7-.1-1.1-.2-.7 0-.8 0-1.3s.4-.4.3-.8c-.1-.4.2-.7.4-1.5s-.5-.9-.5-1.1c-.1-.3 0-.6.2-.8.3-.2.4-.6.3-.9 0-.3-.1-.2-.3-.1-.2.1.1-.3.1-.3.1-.1.1-.3.1-.4 0-.2.2-.2.4-.4s0-1 0-1.2c0-.2.2-.4.5-.4.2 0 .2-.4.2-.5 0-.1.1-.7.1-.9 0-.2-.3-.2-.3-.4.1-.4.2-.9.4-1.3.1-.2.1-.4.1-.6 0-.2.1-.4.2-.6.2-.3.3-.6.3-.9 0-.4 1-2.6 1.1-3.3.1-.7.1-.4.3-1.2.2-.8 0-.7-.1-1.1-.1-.4-.2-.4-.4-.3-.2.1-.2-.6-.2-.7l-.6-.6c-.2-.1-.5-.1-.7-.1-.2.1-.2 0-.3-.2-.1-.1-.2-.2-.3-.2V76c0-.3-.2-.2-.6-.3-.4-.1-.3-.7-.3-.9 0-.1-.1-.3-.2-.3-.2-.1-.1-.1-.1-.3 0-.2-.1-.4-.2-.5-.2-.1-.2-.4-.2-.5 0-.1-.2-.6-.4-.6s-.4-.6-.4-1-.1-.9-.1-1.1c0-.2-.2-.3-.5-.9-.3-.6.1-1.8.2-2 0-.2 0-.3-.1-.5 0-.2.1-.4.3-.9.1-.4.1-.8.2-1.2 0-.1-.1-.3-.2-.4-.1-.1 0-.7.2-.9.2-.3.4-.6.5-.9.1-.2-.1-.3-.1-.4-.1-.2-.2-.4-.1-.6.1-.3.5-.6.6-1 .2-.3.3-.7.4-1.1 0-.2.1-.3.2-.5.2-.2.2-.9.4-1.3s.5-.8.7-1.2c.4-.5.6-1.1.9-1.4.3-.3.2-.2.5-.2s.1-.5.1-.5c-.1-.2-.1-.5-.1-.8.1-.3.4-.5.5-.7.2-.4.5-.8.9-1.1.5-.3.9-.9 1.1-1.5.3-.7.1-.4.4-.4.3 0 .4-.5.4-.6.1-.4.4-.8.8-1 .4-.3.2-.6.4-1.1.2-.3.5-.6.8-.8 1 .1 1.3 0 1.7.1" class="st1"/><path id="Path_27" d="M258.6 23.5c-.2.4-.2.8-.2 1.3 0 .3-.1.7-.3 1-.2.2-.3.6-.5.8-.4.2-.7.5-.9.8-.1.3-.3.6-.5.8-.4.4-.7.8-.6.9.1.1.1.3-.2.5l-.9.9c-.3.4-.3.1-.7.6-.4.5-.1.7-.9 1-.4.2-.7.5-1 .8-.2.1-.5.1-.6.2-.2.3-.4.6-.7.7-.4.2-.7.4-1 .8-.3.3-.1.2-.8.4-.7.2-1.2.1-1.5.2-.3 0-.6.1-.8.3 0 .2-.2.4-.4.4-.4.1-.5.3-.6.2-.1-.1-.3-.3-.4-.1-.1.2-.9.2-1 .3-.3 0-.6 0-.9.1-.2.2-.6-.1-.6-.2-.1-1.1 0-2.3.3-3.3.4-.8.6-1.6.8-2.4 0-.2.1-.2.3-.5.2-.5.3-1 .4-1.5.1-.4.3-.9.6-1.3.3-.3.4-.7.5-1.1 0-.4.2-.7.4-1 .2-.4.4-.8.5-1.2.1-.4 0-.5.4-.8.4-.3.6-.5.6-.9s.1.1.6-.5c.2-.2.6-.3.9-.2.3.1.5.1.8.1.2-.1.2 0 .4-.1s.3-.2.4-.4l.4-.4c.2-.1.3-.3.5-.5 0 0 .2-.3-.1-.3-.3 0-.3-.1-.5-.2s-.4-.3-.6-.4c-.2-.1-.3-.4-.1-.6l.1-.1c.2-.2.6-.4.6-.7 0-.3 0-.4.4-.5.4-.1.8.1.9-.2.1-.3-.2-.5.2-.7.4-.2.6-.4.9-.6.3-.2.2-.1.7-.1h1c.1-.1.1-.3.6-.1.5.1 1 .4 1.3.7.2.3.2.5.4.7.3.1.5.3.5.6.1.4.1.6.3.8.2.2.4.2.4.4s.1.3.1.8c0 .4.1.9.2 1.3.2.3.3.1.3.6 0 .6-.1 1.2-.4 1.9zm-16.7-1c0 .2-.3.6-.5 1s-.4.8-.5 1.2c0 .2-.1.5-.4.5-.2.2-.3.4-.4.6-.1.4-.2.8-.4 1.2-.2.3-.3.7-.4 1.1l-.3.9c-.1.4-.5 1.1-.7 1.5-.2.4-.3.9-.5.9s-.3-.4-.3-.4c-.1-.4-.1-.8-.1-1.3v-1.2c0-.2 0-.4-.1-.5 0-.4 0-.7.1-1.1.1-.2 0-.5-.1-.7-.2 0-.1-.6-.1-1.1.1-.4.3-.8.6-1.1.3-.4.5-.2.6-.4.1-.2 0-.9-.1-1.2-.1-.3.2-.4.4-.7.2-.3.2-.4.5-.5.3-.1.4-.1.5-.4.1-.3.7-.5 1-.8.3-.3.3 0 .5 0s.2-.1.3-.2c.1-.2.3-.2.4-.2.2 0 .3-.3.4-.4.1-.1.6 0 .8 0 .2 0 .5-.6.7-.8.2-.2.5-.2.6-.1.1.1-.2.4-.2.4-.2.1-.4.3-.6.5-.1.2-.3.4-.4.6-.2.3-.4.7-.7.9-.3.2-.6.9-.7 1.1-.1.2.2.5.1.7zm18.3 2.6c.4-.9.7-1.8.6-2.8-.1-.8.1-1.5-.2-2.2-.2-.4-.4-.8-.5-1.2-.2-.7-.5-1.4-.9-2-.6-.9-.6-1.1-1-1.5-.5-.4-1.1-.7-1.7-.8-.5-.2-1.1-.3-1.6-.4-.8-.2-1.2-.4-1.5-.2-.3.2-.4.1-.8.2-.3.1-.7.2-1 .4-.5.3-.4.5-1.1.4-.7-.1-1.3-.4-1.8.4s-.7 1-1 1.1c-.3.1-.5.3-.6.4-.1.1-.3.4-.4.4-.1 0-.6-.1-.8-.1-.1 0-.2.1-.3.2-.1.1-.3.2-.4.1-.2-.1-.5-.2-.8-.3-.3.1-.6.1-.9.1-.5 0-.9 0-1.4.1-.3 0-.6.1-.9.2-.1.2-.3.3-.5.2-.2-.1-.4-.1-.7 0-.4.1-.3.3-.5.4-.2.1-.2.1-.4.1-.3.1-.6.1-.9.2 0 0-.1.1-.5.3-.4.2-1.1.3-1 .5.1.2 0 .4-.4.5-.4.1-1 .2-1.2.4-.2.2-.4.4-.6.4-.3.1-.5.1-.5.3 0 .2-1.8 1.9-2 2.4-.2.5-.5.8-.5.9 0 .2-.1.4-.2.5-.3.4-.5 1-.5 1.5s.1 1 .1 1.8c-.1.7 0 1.4.1 2.1l.3.9c.1.5.2 1.1.5 1.6.4.5.6.9.8.9.2 0 .4.1.6.2.2.1.3.3.3.5s0 .5.2.3.6.3.5.7c-.1.4 0 .5.2.4.2-.1.3-.4.4-.2.1.2.3.2.4.1.3-.1.7-.1 1 .1.3.3.4.6.7.6.3 0 .5-.2.7 0 .2.3.5.5.9.7.3.1.1.1.6.4.5.3.4.1.6.7.1.3.2.6.4.8 0 0 .4.3.5.5.1.2.1.4.3.4.2 0 .3.3.4.6.1.3-.2.2.7.9.9.7 1.3.9 1.2.6-.1-.3-.2-.6-.4-.9-.2-.2-.2-.5-.5-.8-.3-.3-.1-.4-.3-.5-.2-.1-.2 0-.3-.2-.1-.2 0-.7 0-.8 0-.1.1-.7.3-.7.3 0 .5.1.8.3.1.1.4.3.5.2h.7c.2.1.4.1.6.1.4-.1.6-.1.5-.2-.1-.1-.3-.3-.1-.4.1-.1.3-.2.4-.2.1-.1.9-.3 1.2 0 .3.3.6.4 1 .3.3-.2.7-.3 1-.2l.8.1c.2 0 .6 0 .6-.2.1-.3.2-.5.5-.7.2-.1.6-.4.8-.3.2.1.6.1.7-.1.1-.2.3-.2.6-.2.2 0 .5.1.5-.2 0-.3.4-.4.6-.7.2-.3.1-.2.5-.4.4-.3.7-.7 1-1.1.1-.2.3-.3.5-.3v-.5c0-.1-.7-.2-.2-.5.5-.3.3-.4.7-.6.3-.2.6-.4.9-.7.7-.6 1.3-1.2 1.8-2 .4-.6 1-1 1-1.3 0-.3-.3-.2.2-1s.5-.8.5-1c0-.2-.5-.8-.4-1" class="st1"/></g></g><path id="path11" d="M26.18219 139.92038v12.49698c0 2.16196.33744 3.84523 1.00839 5.0498 1.2595 2.20513 3.65296 3.3116 7.17252 3.3116 3.52348 0 5.9091-1.10647 7.16075-3.3116.67096-1.20457 1.00447-2.88784 1.00447-5.0498v-12.49698h-4.31607v12.49698c0 1.40076-.1648 2.42093-.49438 3.06441-.51793 1.13788-1.63619 1.71074-3.35477 1.71074-1.72643 0-2.8486-.57286-3.36653-1.71074-.3296-.64348-.49439-1.66365-.49439-3.0644v-12.497zm8.18091 0zM49.6616 153.979h-4.0571c0 2.11487.7612 3.7746 2.27967 4.9831 1.51455 1.21242 3.59804 1.81667 6.24653 1.81667 2.59357 0 4.6025-.61602 6.02288-1.84414 1.42038-1.2242 2.13057-2.77013 2.13057-4.62604 0-1.81275-.60817-3.19782-1.8206-4.15128-.78081-.61602-1.94223-1.1104-3.4764-1.4753l-3.50386-.8436c-1.35367-.32175-2.2365-.60033-2.6485-.83968-.64348-.36098-.96523-.90245-.96523-1.62833 0-.79259.32567-1.40861.977-1.84806.65526-.44338 1.52633-.6631 2.62104-.6631.98485 0 1.80882.16871 2.47193.51007.9927.514 1.52632 1.38507 1.59694 2.60534h4.08458c-.07455-2.15804-.86714-3.80599-2.37777-4.94386-1.51454-1.13395-3.34299-1.70289-5.48533-1.70289-2.5661 0-4.50833.60033-5.83454 1.8049-1.32229 1.2085-1.9854 2.71913-1.9854 4.53972 0 1.99717.68273 3.46463 2.05603 4.4024.80828.56108 2.27182 1.07901 4.3867 1.5577l2.15018.48262c1.2595.27466 2.1855.59248 2.77406.95346.58855.3649.88283.88675.88283 1.5577 0 1.14965-.59248 1.9344-1.78136 2.35815-.62387.21973-1.44.3296-2.44054.3296-1.67542 0-2.85646-.41592-3.54703-1.2556-.37667-.45907-.62779-1.15356-.75727-2.07955zm4.12382-14.67857zm15.76935 4.15128h3.91585c1.93046 0 3.22136.55324 3.86877 1.66365.6474 1.10648.97308 2.69558.97308 4.76337 0 1.49885-.2158 2.79367-.64741 3.87662-.7926 1.97754-2.18943 2.96631-4.19444 2.96631h-3.91585zm7.77677-3.08795c-.83575-.27859-1.88338-.42376-3.14288-.44338h-8.76162v20.33261h8.76162c3.07225 0 5.34408-1.26343 6.81546-3.79422 1.08295-1.87552 1.62442-4.16304 1.62442-6.86647 0-1.06725-.12556-2.18942-.38453-3.36653-.25896-1.17711-.74158-2.27183-1.44784-3.28414-.88283-1.25166-2.0364-2.11095-3.46463-2.57787zm16.27943-.44338v20.33261H97.57v-14.44314l8.30254 14.44314h4.24937v-20.33261h-3.95901v14.19595l-8.09852-14.19595zm8.41241-.0392zm21.13305 16.3736c-.61602.81613-1.49885 1.22812-2.6485 1.22812-1.14964 0-2.03247-.41199-2.65242-1.22812-.62386-.82005-.93384-1.98147-.93384-3.49209 0-1.5067.30998-2.66812.93384-3.48425.61995-.8122 1.50278-1.22027 2.65243-1.22027 1.14964 0 2.03247.40807 2.6485 1.22027.61601.81613.92599 1.97755.92599 3.48425 0 1.51062-.30998 2.67204-.926 3.4921zm3.14681 2.1698c1.26736-1.56555 1.903-3.45285 1.903-5.66189 0-2.1698-.63564-4.04926-1.903-5.64228-1.27128-1.5891-3.19781-2.38561-5.77961-2.38561-2.58572 0-4.51225.79651-5.77961 2.3856-1.27128 1.59303-1.903 3.47248-1.903 5.64229 0 2.20904.63172 4.09634 1.903 5.6619 1.26736 1.56948 3.1939 2.35422 5.77961 2.35422 2.5818 0 4.50833-.78474 5.77961-2.35422zm-5.77961-13.60738zm8.94996 3.33907h2.09918v9.256c0 .93777.21973 1.63226.6631 2.08349.6788.70626 1.94616 1.028 3.806.96523l1.85983-.0706v-2.93885c-.12556.0118-.25897.0196-.39237.0235-.1334.004-.25897.008-.37668.008-.80043 0-1.27912-.0785-1.43607-.2315-.15695-.1491-.23542-.53362-.23542-1.14964v-7.9455h2.44054v-2.80152h-2.44054v-4.1905h-3.88839v4.1905h-2.09918zm14.99638-4.73199v-3.62942h-3.98648v3.62942zm-3.98648 1.79313V160.253h3.98648v-15.03562zm16.77382 5.3951h4.02572c-.21973-2.14235-.92992-3.63728-2.13057-4.4848-1.20066-.8436-2.74267-1.26735-4.62605-1.26735-2.21689 0-3.95508.71803-5.2146 2.15019-1.2595 1.43607-1.89122 3.445-1.89122 6.0268 0 2.29144.57286 4.1552 1.71074 5.58735 1.1418 1.43607 2.91923 2.1541 5.34015 2.1541 2.417 0 4.24152-.85928 5.47356-2.58179.77297-1.06724 1.20458-2.19727 1.29875-3.394h-4.01395c-.0824.7926-.31782 1.43608-.70234 1.93439-.38844.49438-1.03978.7455-1.96185.7455-1.29482 0-2.17765-.6278-2.6485-1.87945-.25504-.67095-.38452-1.55771-.38452-2.66027 0-1.1575.12948-2.0874.38452-2.78583.49047-1.31444 1.39292-1.97362 2.71913-1.97362.92992 0 1.61264.30213 2.05602.9103.30212.45123.49046.95738.56501 1.51847zm-2.6642-5.79531zm13.2111 4.09634c.49832-.56894 1.20458-.85537 2.11488-.85537.83967 0 1.53809.27074 2.1031.80829.56894.53754.88284 1.3262.94561 2.36599h-6.1092c.12949-.977.44338-1.74605.94562-2.31891zm5.4971-3.394c-1.00446-.46692-2.13056-.70234-3.38222-.70234-2.1031 0-3.81776.6945-5.13612 2.08348-1.32229 1.389-1.98147 3.38615-1.98147 5.98757 0 2.77798.73373 4.78299 2.19335 6.01503 1.46354 1.23204 3.15073 1.84806 5.06157 1.84806 2.3189 0 4.11988-.73373 5.41078-2.19335.82398-.92207 1.2909-1.82844 1.39292-2.71912h-4.01395c-.21188.44338-.45515.78866-.73373 1.03586-.50616.45907-1.16142.69057-1.9697.69057-.76512 0-1.41646-.18834-1.96185-.56894-.89068-.60425-1.36545-1.66365-1.42038-3.17035h10.29187c.0196-1.29874-.0236-2.29144-.12556-2.98201-.17264-1.17711-.55717-2.20904-1.14572-3.10365-.65134-1.00839-1.47924-1.74997-2.47978-2.22081zm-3.10364-.70234zm17.66842-4.86931v20.30514h4.2219v-8.5262h8.9225v-3.53133h-8.9225v-4.67312h10.19378v-3.5745zm25.29217 4.9164c-.051-.004-.11378-.004-.18441-.004-1.17711 0-2.1345.30605-2.87215.92207-.45122.36882-.977 1.05547-1.58517 2.05602v-2.62104h-3.75106V160.253h3.95901v-7.1843c0-1.2085.1491-2.09917.45515-2.67988.54147-1.028 1.6048-1.54201 3.18605-1.54201.1177 0 .27466.004.46692.0118.19618.0118.4159.0275.6631.0549v-4.02572c-.17264-.0118-.28643-.0157-.33744-.0235zm10.93143 8.07889v1.46354c-.0275 1.31444-.3963 2.22081-1.1104 2.7152-.71412.49831-1.49101.7455-2.33853.7455-.53362 0-.98485-.1491-1.3576-.4473-.37275-.2982-.55717-.78474-.55717-1.4557 0-.75334.30213-1.3105.9103-1.67149.35706-.21188.94954-.38844 1.77744-.53754l.88283-.1648c.44338-.0824.78866-.17264 1.0437-.26681.25112-.0981.50224-.22365.74943-.3806zm-2.3856-1.8363l-1.33799.1648c-1.51847.19619-2.66812.51793-3.44893.96916-1.4243.8279-2.13842 2.16588-2.13842 4.01394 0 1.4243.44338 2.52687 1.33014 3.30376.88675.7769 2.01285 1.16534 3.37438 1.16534 1.06724 0 2.02463-.24327 2.86822-.73374.7102-.41198 1.33406-.91422 1.87553-1.50277.0275.34136.0667.64348.10987.9103.0471.2668.12948.55324.25111.85536h4.27683v-.5807c-.25896-.11772-.45122-.27074-.5807-.45515-.12948-.1805-.20796-.5297-.23542-1.04763-.0196-.6788-.0275-1.25951-.0275-1.7382v-6.89394c0-1.81275-.63956-3.0448-1.91869-3.70005-1.2752-.65134-2.73874-.977-4.3867-.977-2.52686 0-4.31214.65918-5.35192 1.98539-.65134.84752-1.02017 1.92654-1.10256 3.24098h3.79421c.0902-.58071.27466-1.03978.55325-1.37722.38452-.463 1.0437-.69057 1.9697-.69057.8279 0 1.45569.1177 1.88337.3492.42768.23543.64349.66311.64349 1.27913 0 .50616-.28251.87499-.8436 1.11433-.3139.14126-.83182.25504-1.5577.34529zm.20795-6.28968zm28.3605.45515c-.64348-.25504-1.29874-.38453-1.95792-.38453-.99662 0-1.89515.20404-2.70736.61995-.7612.41199-1.40076 1.06332-1.91476 1.94615-.29428-.73765-.72589-1.33798-1.29875-1.80882-.70626-.50616-1.63618-.75728-2.78582-.75728-1.21243 0-2.2012.29428-2.96632.88284-.4316.32959-.89068.88675-1.37722 1.66757v-2.19335h-3.82168v15.00815h3.98647v-9.04805c0-.82005.10594-1.43607.31782-1.84806.38453-.72589 1.13788-1.0908 2.26006-1.0908.96523 0 1.61656.36491 1.94615 1.0908.18441.40414.27466 1.05155.27466 1.94615v8.94996h3.95901v-8.94996c0-.67487.10594-1.24773.31782-1.72642.41592-.90246 1.16534-1.34976 2.24828-1.34976.93777 0 1.58125.34921 1.93046 1.04763.18442.3649.27859.83575.27859 1.40468v9.57383h4.02571l.0275-9.47573c0-.977-.0432-1.71466-.13733-2.22082-.14518-.76512-.4316-1.4086-.85537-1.93046-.52185-.64348-1.10648-1.09471-1.74997-1.35367zm10.17416 3.64119c.4983-.56894 1.20457-.85537 2.11487-.85537.83575 0 1.5381.27074 2.1031.80829.56502.53754.88284 1.3262.94562 2.36599h-6.1092c.12948-.977.44337-1.74605.9456-2.31891zm5.4971-3.394c-1.00447-.46692-2.13057-.70234-3.38223-.70234-2.10703 0-3.81776.6945-5.13612 2.08348-1.32229 1.389-1.98147 3.38615-1.98147 5.98757 0 2.77798.7298 4.78299 2.19335 6.01503 1.46354 1.23204 3.15073 1.84806 5.06157 1.84806 2.3189 0 4.11988-.73373 5.40686-2.19335.8279-.92207 1.29482-1.82844 1.39684-2.71912h-4.01395c-.21188.44338-.45907.78866-.73373 1.03586-.50616.45907-1.16142.69057-1.97362.69057-.7612 0-1.41646-.18834-1.95793-.56894-.89068-.60425-1.36545-1.66365-1.42038-3.17035h10.29187c.0157-1.29874-.0236-2.29144-.12556-2.98201-.17264-1.17711-.55717-2.20904-1.14572-3.10365-.65134-1.00839-1.47924-1.74997-2.47978-2.22081zm-3.10365-.70234zm16.59333.40021l-2.16588 10.78626-2.34637-10.78626h-4.2219l4.2219 15.03562h4.08457l2.3856-10.95104 2.35815 10.95104h4.04141l4.35923-15.03562h-4.09634l-2.34637 10.82942-2.28752-10.82942zm24.27593 11.03737c-.61602.81613-1.49885 1.22812-2.6485 1.22812-1.14964 0-2.03247-.41199-2.65242-1.22812-.62386-.82005-.93384-1.98147-.93384-3.49209 0-1.5067.30998-2.66812.93384-3.48425.61995-.8122 1.50278-1.22027 2.65242-1.22027 1.14965 0 2.03248.40807 2.6485 1.22027.61602.81613.926 1.97755.926 3.48425 0 1.51062-.30998 2.67204-.926 3.4921zm3.14681 2.1698c1.26735-1.56555 1.903-3.45285 1.903-5.66189 0-2.1698-.63565-4.04926-1.903-5.64228-1.27128-1.5891-3.19782-2.38561-5.77961-2.38561-2.58572 0-4.51226.79651-5.77961 2.3856-1.27128 1.59303-1.903 3.47248-1.903 5.64229 0 2.20904.63172 4.09634 1.903 5.6619 1.26735 1.56948 3.1939 2.35422 5.77961 2.35422 2.5818 0 4.50833-.78474 5.77961-2.35422zm-5.77961-13.60738zm18.84945.0471c-.051-.004-.11378-.004-.18833-.004-1.17711 0-2.13057.30605-2.86823.92207-.45122.36882-.977 1.05547-1.58517 2.05602v-2.62104h-3.75106V160.253h3.95901v-7.1843c0-1.2085.1491-2.09917.45515-2.67988.54147-1.028 1.6048-1.54201 3.18605-1.54201.1177 0 .27466.004.46692.0118.19618.0118.4159.0275.6631.0549v-4.02572c-.17264-.0118-.28643-.0157-.33744-.0235zm2.60142-4.87323v20.26198h3.86092v-4.73198l1.62833-1.69504 3.59804 6.42702h4.74767l-5.46179-9.21284 5.25384-5.75215h-4.86931l-4.89678 5.65405v-10.95104z"/></svg>