<svg xmlns="http://www.w3.org/2000/svg" role="img" viewBox="-4.13 -3.63 656.76 315.26"><title>USD: Universal Scene Description logo</title><defs><style>.cls-2{fill:#d1d2d4}.cls-4{fill:#7dd2f6}</style></defs><path fill="#2291d0" d="M186.243 299.162c-13.648-4.622-27.213-9.189-40.76-13.81Q79.88 262.978 14.26 240.658c-4.03-1.362-5.606-3.003-5.592-7.555q.277-93.533.125-187.068c0-5.268.018-5.307 4.946-3.619q84.832 29.059 169.662 58.12c2.014.69 3.316 1.393 3.312 4.029q-.136 96.514-.098 193.028a8.212 8.212 0 0 1-.373 1.57zM42.025 90.336a6.614 6.614 0 0 0-.405 1.328q-.046 59.594-.121 119.188c-.005 2.35 1.054 3.098 3.002 3.76q51.969 17.652 103.88 35.473c3.417 1.178 3.815.1 3.81-2.904q-.09-57.76.028-115.522c.009-3.034-1.116-4.182-3.85-5.082-12.744-4.194-25.408-8.627-38.104-12.962-22.639-7.728-45.28-15.447-68.24-23.28z"/><path d="M538.061 148.067c0-16.19.083-32.382-.066-48.572-.032-3.441.7-4.816 4.52-4.757 15.12.232 30.293-.66 45.352.313 20.206 1.304 37.615 8.965 46.869 28.34 14.277 29.89 1.457 66.84-34.915 75.996a93.634 93.634 0 0 1-22.57 2.743c-10.845.04-21.69.012-32.535.01-6.652-.002-6.654-.004-6.655-6.874v-47.199zm30.248 0c0 7.946.091 15.893-.05 23.837-.048 2.77.86 3.64 3.661 3.747a93.277 93.277 0 0 0 14.566-1.042c12.044-1.426 20.644-8.301 22.973-22.283 1.944-11.67-4.398-23.65-14.203-28.22-7.453-3.475-15.227-2.368-22.94-2.758-3.352-.169-4.136 1.182-4.065 4.258.175 7.484.057 14.974.058 22.461z" class="cls-2"/><path fill="#35c6f2" d="M226.098 229.845c-8.932-3.007-17.133-5.835-25.384-8.508-2.739-.887-2.128-2.966-2.13-4.849q-.03-31.403-.013-62.807c0-18.796-.078-37.593.078-56.388.026-3.122-.886-4.435-3.891-5.459-34.792-11.854-69.512-23.919-104.294-35.803-3.3-1.127-4.971-2.397-4.734-6.33.421-7.005.3-14.06.043-21.08-.134-3.64.626-4.405 4.223-3.134 18.119 6.4 36.317 12.577 54.492 18.82 25.672 8.82 51.332 17.677 77.044 26.378 3.305 1.119 4.697 2.447 4.683 6.316-.177 49.36-.117 98.719-.117 148.078z"/><path d="M321.48 132.813c0-12.828.118-23.07-.067-33.308-.061-3.434.676-4.931 4.52-4.765 7.17.31 14.368.26 21.543.014 3.465-.118 4.412 1.016 4.385 4.42-.152 18.492-.023 36.986-.118 55.48a32.85 32.85 0 0 0 1.353 9.455c2.767 9.405 11.326 13.943 22.688 12.355 8.219-1.149 13.843-7.925 14.62-16.861 1.725-19.826.45-39.678.692-59.514.051-4.184 1.09-5.563 5.352-5.356 7.167.348 14.364.169 21.545.058 2.505-.039 3.541.723 3.53 3.379-.078 19.715.413 39.446-.21 59.143-.41 12.974-3.66 25.34-13.87 34.718-6.416 5.893-14.1 8.877-22.455 10.55a66.933 66.933 0 0 1-36.826-2.588c-14.944-5.465-22.856-16.692-25.654-31.83-2.323-12.56-.37-25.298-1.028-35.35zm154.855-39.82c16.054-.302 29.545 3.008 41.693 11.408 2.742 1.896 2.947 3.45 1.187 5.903-3.642 5.077-7.286 10.157-10.81 15.317-1.437 2.103-2.592 2.176-4.798.788-8.79-5.53-18.241-9.099-28.873-8.648-4.96.21-8.757 2.524-8.892 6.247-.158 4.34 3.034 6.297 6.71 7.592 9.35 3.293 19.294 4.458 28.568 8.03a52.247 52.247 0 0 1 14.906 8.71c11.894 9.91 9.67 31.937.818 41.669-7.657 8.419-17.33 11.942-28.288 13.164-18.255 2.037-35.015-2.097-50.631-11.554-8.165-4.944-8.279-5.46-1.888-12.654 2.628-2.958 5.26-5.94 7.577-9.138 2.172-2.997 3.911-3.768 7.348-1.291 10.086 7.268 21.403 10.844 33.99 9.89a12.826 12.826 0 0 0 5.653-1.587c4.491-2.606 4.593-8.011.127-10.66-6.16-3.651-13.248-4.408-19.994-6.219-9.15-2.456-18.342-4.883-25.846-11.073-14.004-11.552-12.275-36.661 3.188-47.597 9.014-6.374 15.91-8.297 28.255-8.297z" class="cls-2"/><path d="M265.47 102.209q0 27.04-.005 54.081c-.003 5.197-.089 5.272-5.116 3.578-6.358-2.142-12.635-4.546-19.057-6.465-3.278-.979-4.089-2.721-4.075-5.941.116-26.124-.04-52.249.174-78.371.034-4.14-1.361-5.761-5.14-7.022-20.97-6.997-41.823-14.346-62.771-21.411-4.212-1.42-6.487-3.22-5.998-8.297a132.07 132.07 0 0 0 .064-19.23c-.22-4.34 1.151-4.75 4.894-3.445 27.64 9.644 55.342 19.11 82.998 28.707 4.577 1.588 10.554 1.79 13.228 5.49 2.561 3.545.74 9.167.77 13.87.091 14.818.033 29.637.033 44.456z" class="cls-4"/><path fill="#fcfdfe" d="M42.025 90.336c22.96 7.832 45.601 15.55 68.24 23.28 12.696 4.334 25.36 8.767 38.103 12.96 2.735.9 3.86 2.05 3.851 5.083q-.155 57.761-.028 115.522c.005 3.003-.393 4.082-3.81 2.904Q96.492 232.199 44.5 214.612c-1.948-.662-3.008-1.41-3.002-3.76q.138-59.594.121-119.188a6.614 6.614 0 0 1 .405-1.328zm12.434 66.099c0 14.361.027 28.723-.027 43.084-.01 2.338.32 3.862 3.012 4.767q39.023 13.122 77.927 26.593c3.108 1.075 3.68.19 3.675-2.7q-.084-43.314.026-86.628c.008-2.65-1.01-3.727-3.359-4.523q-38.774-13.143-77.48-26.486c-3.14-1.086-3.863-.406-3.833 2.809.135 14.36.059 28.722.059 43.084z"/><path fill="#fefefe" d="M568.309 148.067c0-7.487.117-14.977-.058-22.46-.071-3.077.713-4.428 4.064-4.259 7.714.39 15.488-.716 22.941 2.757 9.805 4.57 16.147 16.552 14.203 28.221-2.33 13.982-10.929 20.858-22.973 22.283a93.277 93.277 0 0 1-14.566 1.042c-2.801-.108-3.71-.977-3.66-3.747.14-7.944.05-15.891.049-23.837z"/><path d="M54.459 156.435c0-14.362.076-28.724-.059-43.084-.03-3.215.692-3.895 3.834-2.81q38.693 13.377 77.48 26.487c2.349.796 3.366 1.874 3.358 4.523q-.144 43.314-.026 86.628c.005 2.89-.567 3.775-3.675 2.7q-38.907-13.461-77.927-26.593c-2.692-.905-3.021-2.43-3.012-4.767.054-14.361.027-28.723.027-43.084z" class="cls-4"/></svg>