<svg xmlns="http://www.w3.org/2000/svg" role="img" viewBox="3.14 -0.86 44.32 44.62"><title>USD: Universal Scene Description logo</title><path d="M4 21.5V43h21.6c19.3 0 21.5-.2 21-1.6-.3-.9-.6-1.6-.6-1.7 0-.1-2.4 0-5.4.1-5.1.4-5.5.2-7.7-3-2-2.8-2.5-4.8-2.9-13.7l-.5-10.3-7.9-2.8C14 7.3 10.1 4.3 10 1.2 10 .5 8.7 0 7 0H4v21.5zm14.3-6c1.7.8 3.6 1.5 4.4 1.5 1 0 1.3 2.1 1.3 9 0 5.3-.4 9-1 9-.5 0-1-.5-1-1.2 0-.6-.3-.8-.7-.5-.3.4-1.2.2-2-.4-.7-.6-1.3-.9-1.3-.5 0 .3-2.1-.2-4.6-1.2l-4.6-1.9v-6.1c.1-11.4-.2-10.5 3.4-9.8 1.7.3 4.5 1.3 6.1 2.1z"/></svg>