<svg xmlns="http://www.w3.org/2000/svg" role="img" viewBox="-17.32 -16.82 874.64 280.14"><title>VES logo</title><path fill="#100f0d" fill-rule="evenodd" d="M212.19 99.641h-44.725c-4.166 0-4.445-4.338-4.445-4.338 0-2.872 2.43-4.586 4.584-4.586h40.188c0-.834.059-12.244.059-12.848-6.158-5-13.392-8.081-23.81-8.081-6.012 0-13.28 1.337-19.909 3.844-5.693 2.153-10.603 5.573-12.57 7.467-2.222 2.133-4.277 4.55-5.66 7.916-1.045 2.537-1.02 4.524-1.111 7.361-.184 5.697 1.412 14.23 2.153 18.022.739 3.8 4.548 23.093 4.548 23.093.552 3.866-2.597 5.644-5.027 5.31h-32.892c-1.737 0-4.271-1.696-4.271-4.372 0-2.673 2.325-4.55 4.306-4.55h28.093c-.176-.936-3.82-19.375-4.03-20.556-.208-1.18-1.008-5.938-1.18-7.398-.174-1.457-1.91-13.61 1.318-20.834 1.87-4.178 4.236-7.058 6.738-9.548 3.009-2.992 6.316-5.336 10.522-7.57 1.111-.592 12.639-6.912 28.959-7.118 17.43-.223 27.745 8.542 30.455 10.902 2.201 1.922 2.292 2.988 2.292 4.342 0 1.353-.175 15.938-.175 18.681 0 2.743-1.667 4.861-4.41 4.861zm-61.774 72.926c-11.457 1.14-31.01.868-37.747.137-5.139-.557-4.791-8.647.754-8.392 16.877.776 25.182.656 37.134-.162 1.874-.13 3.771 1.8 3.92 3.938.144 2.055-1.236 4.195-4.061 4.479zM128.687.004c-25.597 0-49.183 8.599-68.043 23.055l.09.084C65.917 26.94 84.44 44.07 88.606 48.145c4.166 4.075 7.594 9.63 8.797 11.667 1.203 2.04 12.037 19.816 15 32.41 2.964 12.594-1.018 19.723-21.112 17.317-20.094-2.408-41.578-11.574-47.598-15.094-6.016-3.518-16.203-11.018-22.037-15.37l-.015-.01a111.935 111.935 0 0 0-4.914 32.9c0 61.832 50.126 111.96 111.96 111.96 1.453 0 2.889-.052 4.326-.108 10.951-2.428 17.255-12.92 13.791-22.813-1.947-5.554-8.452-8.195-13.544-8.681-4.172-.398-6.458-.347-10.279.764-5.468 1.586-6.804-6.182-3.262-7.642 9.861-4.06 24.654-1.46 31.877 7.293 8.505 10.3 3.155 24.774-.387 28.92 51.042-10.42 89.439-55.571 89.439-109.693 0-61.834-50.125-111.961-111.96-111.961"/><path fill="#100f0d" fill-rule="evenodd" d="M51.983 88.752c6.314 2.917 23.798 9.535 38.705 11.667 0 0 11.669 1.804 13.474-.279 1.806-2.084-2.64-12.735-3.426-14.63-.787-1.898-6.897-15.743-13.056-24.17-1.119-1.53-2.377-3.77-4.305-5.743-8.612-8.796-22.972-21.189-24.68-22.59-2.081-1.716-8.665-7.396-8.665-7.396S35.037 12.725 30.963 10.873c-3.746-1.702-14.448.558-24.633 15.05-8.656 12.316-6.342 22.824-5.046 25.324 2.502 2.778 25.373 20.556 29.26 23.381 3.89 2.824 15.838 11.53 21.439 14.124"/><path fill="#100f0d" d="M797.117 82.733c-14.025-5.37-19.426-6.548-48.908-9.596-28.804-2.794-35.36-3.737-44.713-5.841-5.615-1.415-8.677-3.975-8.677-8.199 0-.66.109-1.288.258-1.901L821 57.18c-2.498-6.737-7.022-14.7-14.27-21.972-15.446-15.439-42.617-22.93-83.35-22.93-65.312 0-99.723 18.722-99.723 54.075 0 19.208 10.539 33.014 29.967 39.108 12.634 4.207 32.078 7.946 49.142 9.596l23.19 2.104c24.109 2.325 28.46 4.971 28.341 11.2-.032 1.9-.667 3.644-1.86 5.184l-250.97-.033V114.35h96.683V74.552h-96.684V57.228H623.02V17.429H383.956l-28.097 65.54c-4.916 11.466-8.1 20.135-10.204 34.899h-.19c-1.637-12.407-5.992-25.993-9.965-34.899l-29.27-65.54h-65.31l69.29 155.882h69.997l61.337-144.307v144.307h183.981v-32.198c3.031 9.487 8.339 13.995 12.187 17.451 15.943 14.37 43.293 19.662 84.497 19.662 70.244 0 103.712-17.558 103.712-54.769 0-19.645-9.596-33.466-28.804-40.724M261.515 236.226h-5.72l-13.364-37.542h5.772l10.66 32.083 11.232-32.083h5.252l-13.832 37.542"/><path fill="none" stroke="#100f0d" stroke-width="1.333" d="M261.515 236.226h-5.72l-13.364-37.542h5.772l10.66 32.083 11.232-32.083h5.252z"/><path fill="#100f0d" d="M284.239 210.123h4.888v26.103h-4.888zm-.52-11.336h5.876v5.356h-5.876v-5.356"/><path fill="none" stroke="#100f0d" stroke-width="1.333" d="M284.239 210.123h4.888v26.103h-4.888zm-.52-11.336h5.876v5.356h-5.876z"/><path fill="#100f0d" d="M303.635 228.479c-.052 1.976.988 4.732 5.72 4.732 2.028 0 3.536-.364 4.576-1.664.52-.676.832-1.56.832-2.444 0-2.548-1.82-3.015-5.72-3.9-5.46-1.248-10.036-2.339-10.036-7.8 0-4.784 4.16-7.904 10.192-7.904 3.276 0 7.852.936 9.412 4.056.676 1.456.676 2.704.676 3.795h-4.992c.156-3.951-3.276-4.262-5.044-4.262-.728 0-5.304 0-5.304 3.743 0 2.392 2.34 2.964 3.692 3.328 7.228 1.716 8.788 2.132 10.348 3.588 1.456 1.352 1.976 3.173 1.976 4.836 0 2.912-1.612 5.408-3.536 6.604-2.288 1.404-5.044 1.768-7.748 1.768-5.304 0-10.244-2.184-10.192-8.476h5.148"/><path fill="none" stroke="#100f0d" stroke-width="1.333" d="M303.635 228.479c-.052 1.976.988 4.732 5.72 4.732 2.028 0 3.536-.364 4.576-1.664.52-.676.832-1.56.832-2.444 0-2.548-1.82-3.015-5.72-3.9-5.46-1.248-10.036-2.339-10.036-7.8 0-4.784 4.16-7.904 10.192-7.904 3.276 0 7.852.936 9.412 4.056.676 1.456.676 2.704.676 3.795h-4.992c.156-3.951-3.276-4.262-5.044-4.262-.728 0-5.304 0-5.304 3.743 0 2.392 2.34 2.964 3.692 3.328 7.228 1.716 8.788 2.132 10.348 3.588 1.456 1.352 1.976 3.173 1.976 4.836 0 2.912-1.612 5.408-3.536 6.604-2.288 1.404-5.044 1.768-7.748 1.768-5.304 0-10.244-2.184-10.192-8.476z"/><path fill="#100f0d" d="M333.483 210.123v16.797c0 2.547.572 5.77 5.564 5.77 2.444 0 4.73-.831 6.136-2.911 1.092-1.56 1.092-3.588 1.092-4.888v-14.768h5.042v21.215c0 .52.104 3.433.156 4.888h-5.094l-.104-4.471c-.938 1.82-2.704 4.732-8.322 4.732-6.448 0-9.462-3.692-9.462-8.84v-17.524h4.992"/><path fill="none" stroke="#100f0d" stroke-width="1.333" d="M333.483 210.123v16.797c0 2.547.572 5.77 5.564 5.77 2.444 0 4.73-.831 6.136-2.911 1.092-1.56 1.092-3.588 1.092-4.888v-14.768h5.042v21.215c0 .52.104 3.433.156 4.888h-5.094l-.104-4.471c-.938 1.82-2.704 4.732-8.322 4.732-6.448 0-9.462-3.692-9.462-8.84v-17.524z"/><path fill="#100f0d" d="M375.499 223.383c-1.978 0-9.414 0-9.414 5.304 0 1.663 1.04 4.524 5.41 4.524 2.494 0 4.366-.988 5.562-2.808 1.092-1.768 1.144-3.224 1.248-6.865a21.695 21.695 0 0 0-2.806-.155zm3.378 12.843c-.364-1.3-.468-2.547-.468-3.9-2.34 4.317-5.876 4.733-8.06 4.733-5.98 0-9.204-3.38-9.204-7.697 0-2.08.728-5.407 4.578-7.643 2.806-1.56 6.968-1.716 9.046-1.716 1.248 0 2.028.052 3.536.156 0-3.224 0-4.627-.936-5.772-.988-1.3-3.118-1.716-4.524-1.716-4.94 0-5.2 3.38-5.252 4.42h-4.888c.156-1.353.312-3.17 1.822-4.94 1.974-2.183 5.668-2.808 8.422-2.808 3.796 0 7.852 1.195 9.256 3.85.832 1.559.884 2.806.884 4.003l-.208 12.479c0 .416.052 3.9.416 6.551h-4.42"/><path fill="none" stroke="#100f0d" stroke-width="1.333" d="M375.499 223.383c-1.978 0-9.414 0-9.414 5.304 0 1.663 1.04 4.524 5.41 4.524 2.494 0 4.366-.988 5.562-2.808 1.092-1.768 1.144-3.224 1.248-6.865a21.695 21.695 0 0 0-2.806-.155zm3.378 12.843c-.364-1.3-.468-2.547-.468-3.9-2.34 4.317-5.876 4.733-8.06 4.733-5.98 0-9.204-3.38-9.204-7.697 0-2.08.728-5.407 4.578-7.643 2.806-1.56 6.968-1.716 9.046-1.716 1.248 0 2.028.052 3.536.156 0-3.224 0-4.627-.936-5.772-.988-1.3-3.118-1.716-4.524-1.716-4.94 0-5.2 3.38-5.252 4.42h-4.888c.156-1.353.312-3.17 1.822-4.94 1.974-2.183 5.668-2.808 8.422-2.808 3.796 0 7.852 1.195 9.256 3.85.832 1.559.884 2.806.884 4.003l-.208 12.479c0 .416.052 3.9.416 6.551z"/><path fill="#100f0d" d="M396.245 198.735h4.888v37.491h-4.888v-37.491"/><path fill="none" stroke="#100f0d" stroke-width="1.333" d="M396.245 198.735h4.888v37.491h-4.888z"/><path fill="#100f0d" d="M433.996 198.684h23.557v4.419h-18.357v11.701h17.472v4.367h-17.472v12.48h18.772v4.575h-23.972v-37.542"/><path fill="none" stroke="#100f0d" stroke-width="1.333" d="M433.996 198.684h23.557v4.419h-18.357v11.701h17.472v4.367h-17.472v12.48h18.772v4.575h-23.972z"/><path fill="#100f0d" d="M481.63 202.323a47.27 47.27 0 0 0-2.86-.104c-3.954 0-3.954 1.977-3.954 3.796v4.108h6.084v3.536h-6.084v22.567h-4.836V213.66h-5.148v-3.536h5.148v-2.964c0-3.588.21-4.888 1.092-6.239 1.093-1.665 3.172-2.861 6.552-2.861 1.404 0 2.963.208 4.005.364v3.9"/><path fill="none" stroke="#100f0d" stroke-width="1.333" d="M481.63 202.323a47.27 47.27 0 0 0-2.86-.104c-3.954 0-3.954 1.977-3.954 3.796v4.108h6.084v3.536h-6.084v22.567h-4.836V213.66h-5.148v-3.536h5.148v-2.964c0-3.588.21-4.888 1.092-6.239 1.093-1.665 3.172-2.861 6.552-2.861 1.404 0 2.963.208 4.005.364z"/><path fill="#100f0d" d="M502.168 202.323a47.23 47.23 0 0 0-2.86-.104c-3.952 0-3.952 1.977-3.952 3.796v4.108h6.083v3.536h-6.083v22.567h-4.836V213.66h-5.15v-3.536h5.15v-2.964c0-3.588.208-4.888 1.09-6.239 1.094-1.665 3.173-2.861 6.553-2.861 1.404 0 2.964.208 4.005.364v3.9"/><path fill="none" stroke="#100f0d" stroke-width="1.333" d="M502.168 202.323a47.23 47.23 0 0 0-2.86-.104c-3.952 0-3.952 1.977-3.952 3.796v4.108h6.083v3.536h-6.083v22.567h-4.836V213.66h-5.15v-3.536h5.15v-2.964c0-3.588.208-4.888 1.09-6.239 1.094-1.665 3.173-2.861 6.553-2.861 1.404 0 2.964.208 4.005.364z"/><path fill="#100f0d" d="M525.361 220.626c.05-2.495-.417-7.695-6.448-7.695-3.174 0-7.021 1.924-7.125 7.695zm-13.781 3.433c-.105 5.408 2.132 9.412 7.487 9.412 3.172 0 5.721-1.664 6.137-5.408h4.888c-.156 1.3-.364 3.432-2.236 5.46-1.144 1.3-3.745 3.484-8.995 3.484-8.217 0-12.117-5.096-12.117-13.364 0-5.148 1.039-9.412 5.148-12.272 2.495-1.768 5.615-1.924 7.123-1.924 11.7 0 11.44 10.348 11.336 14.612H511.58"/><path fill="none" stroke="#100f0d" stroke-width="1.333" d="M525.361 220.626c.05-2.495-.417-7.695-6.448-7.695-3.174 0-7.021 1.924-7.125 7.695zm-13.781 3.433c-.105 5.408 2.132 9.412 7.487 9.412 3.172 0 5.721-1.664 6.137-5.408h4.888c-.156 1.3-.364 3.432-2.236 5.46-1.144 1.3-3.745 3.484-8.995 3.484-8.217 0-12.117-5.096-12.117-13.364 0-5.148 1.039-9.412 5.148-12.272 2.495-1.768 5.615-1.924 7.123-1.924 11.7 0 11.44 10.348 11.336 14.612z"/><path fill="#100f0d" d="M554.583 218.495c-.106-1.196-.47-5.46-5.202-5.46-6.757 0-6.757 7.852-6.757 9.829 0 5.355 1.299 10.347 6.5 10.347 4.159 0 5.563-3.12 5.667-5.668h4.94c-.314 5.095-4.107 9.36-10.555 9.36-1.768 0-5.825-.365-8.581-3.38-1.56-1.82-3.12-4.576-3.12-9.985 0-10.867 6.657-14.091 11.854-14.091 1.716 0 5.618.364 8.008 3.224 1.924 2.236 2.08 4.367 2.186 5.824h-4.94"/><path fill="none" stroke="#100f0d" stroke-width="1.333" d="M554.583 218.495c-.106-1.196-.47-5.46-5.202-5.46-6.757 0-6.757 7.852-6.757 9.829 0 5.355 1.299 10.347 6.5 10.347 4.159 0 5.563-3.12 5.667-5.668h4.94c-.314 5.095-4.107 9.36-10.555 9.36-1.768 0-5.825-.365-8.581-3.38-1.56-1.82-3.12-4.576-3.12-9.985 0-10.867 6.657-14.091 11.854-14.091 1.716 0 5.618.364 8.008 3.224 1.924 2.236 2.08 4.367 2.186 5.824z"/><path fill="#100f0d" d="M564.93 210.019h4.629v-5.46l4.836-1.56v7.02h5.822v3.588h-5.822v15.652c0 1.3 0 3.484 3.484 3.484.986 0 1.925-.156 2.338-.26v3.796c-.882.156-2.286.312-4.054.312-4.471 0-6.604-1.3-6.604-5.565v-17.42h-4.628v-3.587"/><path fill="none" stroke="#100f0d" stroke-width="1.333" d="M564.93 210.019h4.629v-5.46l4.836-1.56v7.02h5.822v3.588h-5.822v15.652c0 1.3 0 3.484 3.484 3.484.986 0 1.925-.156 2.338-.26v3.796c-.882.156-2.286.312-4.054.312-4.471 0-6.604-1.3-6.604-5.565v-17.42h-4.628z"/><path fill="#100f0d" d="M592.283 228.479c-.052 1.976.986 4.732 5.718 4.732 2.028 0 3.536-.364 4.576-1.664.52-.676.834-1.56.834-2.444 0-2.548-1.822-3.015-5.722-3.9-5.458-1.248-10.034-2.339-10.034-7.8 0-4.784 4.158-7.904 10.19-7.904 3.276 0 7.851.936 9.411 4.056.677 1.456.677 2.704.677 3.795h-4.992c.156-3.951-3.276-4.262-5.044-4.262-.726 0-5.305 0-5.305 3.743 0 2.392 2.341 2.964 3.693 3.328 7.23 1.716 8.79 2.132 10.35 3.588 1.454 1.352 1.976 3.173 1.976 4.836 0 2.912-1.612 5.408-3.536 6.604-2.29 1.404-5.046 1.768-7.748 1.768-5.304 0-10.244-2.184-10.192-8.476h5.148"/><path fill="none" stroke="#100f0d" stroke-width="1.333" d="M592.283 228.479c-.052 1.976.986 4.732 5.718 4.732 2.028 0 3.536-.364 4.576-1.664.52-.676.834-1.56.834-2.444 0-2.548-1.822-3.015-5.722-3.9-5.458-1.248-10.034-2.339-10.034-7.8 0-4.784 4.158-7.904 10.19-7.904 3.276 0 7.851.936 9.411 4.056.677 1.456.677 2.704.677 3.795h-4.992c.156-3.951-3.276-4.262-5.044-4.262-.726 0-5.305 0-5.305 3.743 0 2.392 2.341 2.964 3.693 3.328 7.23 1.716 8.79 2.132 10.35 3.588 1.454 1.352 1.976 3.173 1.976 4.836 0 2.912-1.612 5.408-3.536 6.604-2.29 1.404-5.046 1.768-7.748 1.768-5.304 0-10.244-2.184-10.192-8.476z"/><path fill="#100f0d" d="M645.321 225.255c.104 2.6.418 7.436 9.047 7.436 7.803 0 8.79-4.836 8.79-6.708 0-4.212-3.38-5.045-8.633-6.343-5.72-1.405-8.266-2.03-10.19-3.33-3.068-2.08-3.902-4.887-3.902-7.384 0-7.643 7.23-10.971 14.3-10.971 2.498 0 7.542.416 10.558 3.692 2.077 2.288 2.181 4.836 2.286 6.396h-5.406c-.26-4.679-4.214-5.72-7.904-5.72-5.2 0-8.32 2.34-8.32 6.084 0 3.328 2.182 4.472 6.76 5.565 8.942 2.287 9.93 2.495 12.114 3.95 3.484 2.289 3.746 5.928 3.746 7.489 0 6.656-5.202 11.7-14.82 11.7-2.86 0-8.686-.468-11.65-4.264-2.132-2.756-2.184-5.772-2.184-7.592h5.408"/><path fill="none" stroke="#100f0d" stroke-width="1.333" d="M645.321 225.255c.104 2.6.418 7.436 9.047 7.436 7.803 0 8.79-4.836 8.79-6.708 0-4.212-3.38-5.045-8.633-6.343-5.72-1.405-8.266-2.03-10.19-3.33-3.068-2.08-3.902-4.887-3.902-7.384 0-7.643 7.23-10.971 14.3-10.971 2.498 0 7.542.416 10.558 3.692 2.077 2.288 2.181 4.836 2.286 6.396h-5.406c-.26-4.679-4.214-5.72-7.904-5.72-5.2 0-8.32 2.34-8.32 6.084 0 3.328 2.182 4.472 6.76 5.565 8.942 2.287 9.93 2.495 12.114 3.95 3.484 2.289 3.746 5.928 3.746 7.489 0 6.656-5.202 11.7-14.82 11.7-2.86 0-8.686-.468-11.65-4.264-2.132-2.756-2.184-5.772-2.184-7.592z"/><path fill="#100f0d" d="M687.39 233.47c3.693 0 7.903-2.651 7.903-10.503 0-6.5-3.016-9.932-7.592-9.932-3.118 0-8.164 1.976-8.164 10.14 0 5.357 2.29 10.296 7.852 10.296zm.311-24.023c10.451 0 12.792 8.216 12.792 13.676 0 7.644-4.314 13.988-13.208 13.988-8.633 0-12.844-5.98-12.844-13.624 0-6.449 3.016-14.04 13.26-14.04"/><path fill="none" stroke="#100f0d" stroke-width="1.333" d="M687.39 233.47c3.693 0 7.903-2.651 7.903-10.503 0-6.5-3.016-9.932-7.592-9.932-3.118 0-8.164 1.976-8.164 10.14 0 5.357 2.29 10.296 7.852 10.296zm.311-24.023c10.451 0 12.792 8.216 12.792 13.676 0 7.644-4.314 13.988-13.208 13.988-8.633 0-12.844-5.98-12.844-13.624 0-6.449 3.016-14.04 13.26-14.04z"/><path fill="#100f0d" d="M723.113 218.495c-.104-1.196-.469-5.46-5.2-5.46-6.761 0-6.761 7.852-6.761 9.829 0 5.355 1.3 10.347 6.5 10.347 4.159 0 5.565-3.12 5.67-5.668h4.937c-.31 5.095-4.107 9.36-10.555 9.36-1.768 0-5.823-.365-8.58-3.38-1.56-1.82-3.12-4.576-3.12-9.985 0-10.867 6.656-14.091 11.857-14.091 1.716 0 5.614.364 8.007 3.224 1.925 2.236 2.081 4.367 2.185 5.824h-4.94"/><path fill="none" stroke="#100f0d" stroke-width="1.333" d="M723.113 218.495c-.104-1.196-.469-5.46-5.2-5.46-6.761 0-6.761 7.852-6.761 9.829 0 5.355 1.3 10.347 6.5 10.347 4.159 0 5.565-3.12 5.67-5.668h4.937c-.31 5.095-4.107 9.36-10.555 9.36-1.768 0-5.823-.365-8.58-3.38-1.56-1.82-3.12-4.576-3.12-9.985 0-10.867 6.656-14.091 11.857-14.091 1.716 0 5.614.364 8.007 3.224 1.925 2.236 2.081 4.367 2.185 5.824z"/><path fill="#100f0d" d="M737.517 210.123h4.888v26.103h-4.888zm-.521-11.336h5.877v5.356h-5.877v-5.356"/><path fill="none" stroke="#100f0d" stroke-width="1.333" d="M737.517 210.123h4.888v26.103h-4.888zm-.521-11.336h5.877v5.356h-5.877z"/><path fill="#100f0d" d="M768.77 220.626c.049-2.495-.417-7.695-6.449-7.695-3.174 0-7.02 1.924-7.125 7.695zm-13.782 3.433c-.104 5.408 2.133 9.412 7.487 9.412 3.172 0 5.721-1.664 6.138-5.408h4.888c-.156 1.3-.364 3.432-2.237 5.46-1.143 1.3-3.744 3.484-8.995 3.484-8.216 0-12.117-5.096-12.117-13.364 0-5.148 1.04-9.412 5.15-12.272 2.494-1.768 5.614-1.924 7.12-1.924 11.702 0 11.44 10.348 11.337 14.612h-18.771"/><path fill="none" stroke="#100f0d" stroke-width="1.333" d="M768.77 220.626c.049-2.495-.417-7.695-6.449-7.695-3.174 0-7.02 1.924-7.125 7.695zm-13.782 3.433c-.104 5.408 2.133 9.412 7.487 9.412 3.172 0 5.721-1.664 6.138-5.408h4.888c-.156 1.3-.364 3.432-2.237 5.46-1.143 1.3-3.744 3.484-8.995 3.484-8.216 0-12.117-5.096-12.117-13.364 0-5.148 1.04-9.412 5.15-12.272 2.494-1.768 5.614-1.924 7.12-1.924 11.702 0 11.44 10.348 11.337 14.612z"/><path fill="#100f0d" d="M779.116 210.019h4.63v-5.46l4.837-1.56v7.02h5.822v3.588h-5.822v15.652c0 1.3 0 3.484 3.481 3.484.99 0 1.924-.156 2.341-.26v3.796c-.885.156-2.289.312-4.057.312-4.472 0-6.601-1.3-6.601-5.565v-17.42h-4.631v-3.587"/><path fill="none" stroke="#100f0d" stroke-width="1.333" d="M779.116 210.019h4.63v-5.46l4.837-1.56v7.02h5.822v3.588h-5.822v15.652c0 1.3 0 3.484 3.481 3.484.99 0 1.924-.156 2.341-.26v3.796c-.885.156-2.289.312-4.057.312-4.472 0-6.601-1.3-6.601-5.565v-17.42h-4.631z"/><path fill="#100f0d" d="M815.413 236.383l-3.745 9.724h-5.044l3.953-9.984-10.87-26h5.513l8.164 20.592 8.32-20.592h5.303l-11.594 26.26"/><path fill="none" stroke="#100f0d" stroke-width="1.333" d="M815.413 236.383l-3.745 9.724h-5.044l3.953-9.984-10.87-26h5.513l8.164 20.592 8.32-20.592h5.303z"/><path fill="#100f0d" d="M828.917 174.299h1.544c1.612 0 2.634-.884 2.634-2.219 0-1.508-1.091-2.167-2.686-2.167-.728 0-1.23.07-1.492.137zm-1.506-5.306c.762-.156 1.872-.258 2.894-.258 1.612 0 2.668.31 3.396.969.574.503.92 1.301.92 2.219 0 1.526-.988 2.549-2.202 2.965v.05c.885.314 1.421 1.147 1.717 2.36.381 1.627.659 2.756.884 3.206h-1.56c-.19-.33-.45-1.335-.764-2.792-.345-1.612-.988-2.219-2.356-2.27h-1.423v5.062h-1.506v-11.51"/><path fill="none" stroke="#100f0d" stroke-width="1.333" d="M839.981 174.45c0 5.185-4.204 9.387-9.389 9.387a9.388 9.388 0 0 1-9.388-9.388 9.39 9.39 0 0 1 18.777 0z"/></svg>