<svg xmlns="http://www.w3.org/2000/svg" role="img" viewBox="-6.25 -6.00 312.00 101.25"><title>VES logo</title><path fill="#e6b748" fill-rule="evenodd" d="M76.878 36.1H60.674c-1.51 0-1.61-1.572-1.61-1.572 0-1.041.88-1.662 1.66-1.662h14.56c0-.303.021-4.436.021-4.655-2.23-1.81-4.851-2.929-8.627-2.929-2.177 0-4.81.485-7.213 1.393-2.062.78-3.841 2.02-4.554 2.707-.805.772-1.55 1.647-2.051 2.867-.377.919-.369 1.64-.402 2.667-.067 2.065.511 5.156.78 6.53.268 1.377 1.648 8.367 1.648 8.367.2 1.4-.941 2.045-1.821 1.923H41.147c-.628 0-1.547-.614-1.547-1.584 0-.967.842-1.648 1.56-1.648h10.179c-.064-.339-1.384-7.02-1.46-7.447-.075-.429-.366-2.151-.427-2.681-.064-.527-.693-4.931.477-7.548.677-1.514 1.535-2.558 2.442-3.46 1.09-1.083 2.287-1.932 3.811-2.742.403-.214 4.58-2.505 10.492-2.58 6.316-.08 10.052 3.096 11.034 3.95.797.697.83 1.083.83 1.574 0 .49-.063 5.775-.063 6.767 0 .995-.603 1.762-1.597 1.762M54.497 62.52c-4.152.415-11.236.317-13.676.05-1.862-.2-1.737-3.132.273-3.04 6.115.282 9.124.238 13.453-.058.68-.046 1.366.652 1.421 1.426.052.744-.447 1.521-1.471 1.623M46.624 0A40.386 40.386 0 0 0 21.97 8.353l.033.03c1.878 1.377 8.59 7.583 10.098 9.06 1.51 1.475 2.751 3.487 3.188 4.227.436.737 4.361 7.178 5.434 11.74 1.074 4.564-.37 7.148-7.65 6.276-7.279-.873-15.063-4.193-17.243-5.469-2.181-1.276-5.872-3.993-7.984-5.569l-.007-.002a40.543 40.543 0 0 0-1.78 11.919c0 22.403 18.161 40.564 40.564 40.564.525 0 1.047-.019 1.568-.039 3.966-.88 6.25-4.68 4.995-8.265-.704-2.012-3.061-2.97-4.906-3.146-1.512-.144-2.34-.127-3.724.277-1.98.575-2.465-2.24-1.182-2.769 3.572-1.471 8.932-.528 11.549 2.642 3.081 3.732 1.142 8.977-.14 10.478 18.492-3.776 32.404-20.135 32.404-39.742C87.188 18.162 69.027 0 46.624 0"/><path fill="#e6b748" fill-rule="evenodd" d="M18.834 32.154c2.287 1.057 8.621 3.455 14.023 4.227 0 0 4.227.654 4.88-.102.656-.753-.955-4.613-1.24-5.3-.285-.687-2.499-5.704-4.73-8.756-.405-.555-.861-1.366-1.56-2.082-3.12-3.186-8.323-7.676-8.94-8.184-.756-.622-3.142-2.68-3.142-2.68s-5.43-4.668-6.908-5.339c-1.357-.617-5.234.202-8.924 5.453C-.843 13.853-.005 17.66.466 18.565c.905 1.007 9.192 7.448 10.6 8.472 1.41 1.024 5.738 4.177 7.768 5.117"/><path d="M288.8 29.974c-5.08-1.947-7.038-2.374-17.719-3.477-10.437-1.013-12.811-1.354-16.2-2.117-2.035-.511-3.145-1.44-3.145-2.97 0-.24.04-.466.094-.688l45.622-.007c-.904-2.44-2.542-5.326-5.169-7.96-5.596-5.594-15.44-8.308-30.199-8.308-23.663 0-36.13 6.784-36.13 19.592 0 6.959 3.819 11.961 10.857 14.169 4.577 1.524 11.622 2.88 17.805 3.477l8.401.763c8.735.84 10.312 1.8 10.268 4.056a3.092 3.092 0 0 1-.673 1.88l-90.928-.013v-6.943h35.029V27.01h-35.029v-6.277h44.04V6.313H139.11L128.929 30.06c-1.78 4.152-2.934 7.294-3.696 12.642h-.069c-.594-4.494-2.171-9.417-3.61-12.642L110.948 6.312h-23.66L112.39 62.79h25.361l22.223-52.283V62.79h66.658V51.126c1.098 3.436 3.02 5.07 4.415 6.322 5.777 5.206 15.685 7.124 30.613 7.124 25.45 0 37.577-6.363 37.577-19.845 0-7.116-3.478-12.124-10.437-14.753M94.748 85.585h-2.073l-4.841-13.603h2.091l3.862 11.625 4.07-11.625h1.903l-5.012 13.603z"/><path stroke="#000" stroke-width=".483" d="M94.748 85.585h-2.073l-4.841-13.603h2.091l3.862 11.625 4.07-11.625h1.903l-5.012 13.603z"/><path d="M102.982 76.127h1.77v9.459h-1.77v-9.459zm-.19-4.107h2.13v1.942h-2.13V72.02z"/><path stroke="#000" stroke-width=".483" d="M102.981 76.127h1.772v9.459h-1.772v-9.459zm-.187-4.106h2.127v1.94h-2.127v-1.94z"/><path d="M110.008 82.778c-.018.716.358 1.715 2.073 1.715.735 0 1.28-.133 1.658-.603.189-.246.301-.566.301-.885 0-.924-.66-1.093-2.073-1.413-1.977-.454-3.636-.85-3.636-2.827 0-1.734 1.509-2.864 3.693-2.864 1.188 0 2.845.34 3.41 1.47.245.526.245.98.245 1.375h-1.81c.059-1.432-1.186-1.544-1.825-1.544-.264 0-1.923 0-1.923 1.357 0 .866.849 1.072 1.338 1.205 2.619.622 3.185.772 3.75 1.3.526.49.715 1.148.715 1.752 0 1.055-.585 1.958-1.28 2.392-.83.51-1.828.64-2.808.64-1.921 0-3.711-.79-3.693-3.07h1.865z"/><path stroke="#000" stroke-width=".483" d="M110.008 82.778c-.018.716.358 1.715 2.073 1.715.735 0 1.28-.133 1.658-.603.189-.246.301-.566.301-.885 0-.924-.66-1.093-2.073-1.413-1.977-.454-3.636-.85-3.636-2.827 0-1.734 1.509-2.864 3.693-2.864 1.188 0 2.845.34 3.41 1.47.245.526.245.98.245 1.375h-1.81c.059-1.432-1.186-1.544-1.825-1.544-.264 0-1.923 0-1.923 1.357 0 .866.849 1.072 1.338 1.205 2.619.622 3.185.772 3.75 1.3.526.49.715 1.148.715 1.752 0 1.055-.585 1.958-1.28 2.392-.83.51-1.828.64-2.808.64-1.921 0-3.711-.79-3.693-3.07h1.865z"/><path d="M120.822 76.127v6.086c0 .923.208 2.09 2.016 2.09.886 0 1.715-.301 2.223-1.055.397-.564.397-1.299.397-1.77v-5.35h1.826v7.686c0 .188.039 1.243.058 1.772h-1.847l-.037-1.62c-.34.658-.98 1.713-3.016 1.713-2.336 0-3.428-1.338-3.428-3.201v-6.35h1.808z"/><path stroke="#000" stroke-width=".483" d="M120.822 76.127v6.086c0 .923.208 2.09 2.016 2.09.886 0 1.715-.301 2.223-1.055.397-.564.397-1.299.397-1.77v-5.35h1.826v7.686c0 .188.039 1.243.058 1.772h-1.847l-.037-1.62c-.34.658-.98 1.713-3.016 1.713-2.336 0-3.428-1.338-3.428-3.201v-6.35h1.808z"/><path d="M136.045 80.932c-.716 0-3.41 0-3.41 1.921 0 .603.377 1.64 1.96 1.64.904 0 1.581-.358 2.016-1.018.395-.64.414-1.168.452-2.487a7.885 7.885 0 0 0-1.018-.056m1.224 4.654c-.131-.472-.169-.924-.169-1.414-.847 1.564-2.13 1.714-2.92 1.714-2.167 0-3.335-1.224-3.335-2.788 0-.753.264-1.958 1.657-2.77 1.018-.564 2.525-.62 3.279-.62.453 0 .734.018 1.282.056 0-1.168 0-1.678-.34-2.092-.358-.47-1.13-.62-1.64-.62-1.788 0-1.883 1.223-1.902 1.6h-1.771c.057-.49.114-1.149.66-1.79.715-.79 2.054-1.018 3.053-1.018 1.374 0 2.843.434 3.353 1.395.3.566.319 1.018.319 1.45l-.075 4.522c0 .152.019 1.413.151 2.375h-1.602z"/><path stroke="#000" stroke-width=".483" d="M136.045 80.932c-.716 0-3.41 0-3.41 1.921 0 .603.377 1.64 1.96 1.64.904 0 1.581-.358 2.016-1.018.395-.64.414-1.168.452-2.487a7.885 7.885 0 0 0-1.018-.056zm1.224 4.654c-.131-.472-.169-.924-.169-1.414-.847 1.564-2.13 1.714-2.92 1.714-2.167 0-3.335-1.224-3.335-2.788 0-.753.264-1.958 1.657-2.77 1.018-.564 2.525-.62 3.279-.62.453 0 .734.018 1.282.056 0-1.168 0-1.678-.34-2.092-.358-.47-1.13-.62-1.64-.62-1.788 0-1.883 1.223-1.902 1.6h-1.771c.057-.49.114-1.149.66-1.79.715-.79 2.054-1.018 3.053-1.018 1.374 0 2.843.434 3.353 1.395.3.566.319 1.018.319 1.45l-.075 4.522c0 .152.019 1.413.151 2.375h-1.602z"/><path d="M143.561 72.002h1.772v13.584h-1.772V72.002z"/><path stroke="#000" stroke-width=".483" d="M143.562 72.001h1.771v13.584h-1.771V72.001z"/><path d="M157.24 71.983h8.534v1.6h-6.651v4.24h6.33v1.583h-6.33v4.521h6.8v1.659h-8.684V71.983z"/><path stroke="#000" stroke-width=".483" d="M157.24 71.983h8.534v1.6h-6.651v4.24h6.33v1.583h-6.33v4.521h6.8v1.659h-8.684V71.983z"/><path d="M174.497 73.302a17.229 17.229 0 0 0-1.037-.038c-1.432 0-1.432.716-1.432 1.376v1.488h2.205v1.28h-2.205v8.177h-1.75v-8.177h-1.867v-1.28h1.866v-1.074c0-1.3.075-1.771.394-2.26.397-.604 1.15-1.037 2.375-1.037.508 0 1.074.075 1.45.131v1.414z"/><path stroke="#000" stroke-width=".483" d="M174.497 73.302a17.229 17.229 0 0 0-1.037-.038c-1.432 0-1.432.716-1.432 1.376v1.488h2.205v1.28h-2.205v8.177h-1.75v-8.177h-1.867v-1.28h1.866v-1.074c0-1.3.075-1.771.394-2.26.397-.604 1.15-1.037 2.375-1.037.508 0 1.074.075 1.45.131v1.414z"/><path d="M181.938 73.302a17.229 17.229 0 0 0-1.036-.038c-1.432 0-1.432.716-1.432 1.376v1.488h2.204v1.28h-2.204v8.177h-1.751v-8.177h-1.867v-1.28h1.867v-1.074c0-1.3.075-1.771.394-2.26.397-.604 1.149-1.037 2.374-1.037.509 0 1.074.075 1.451.131v1.414z"/><path stroke="#000" stroke-width=".483" d="M181.938 73.302a17.229 17.229 0 0 0-1.036-.038c-1.432 0-1.432.716-1.432 1.376v1.488h2.204v1.28h-2.204v8.177h-1.751v-8.177h-1.867v-1.28h1.867v-1.074c0-1.3.075-1.771.394-2.26.397-.604 1.149-1.037 2.374-1.037.509 0 1.074.075 1.451.131v1.414z"/><path d="M190.341 79.933c.017-.904-.152-2.788-2.336-2.788-1.15 0-2.545.696-2.582 2.788h4.918zm-4.993 1.243c-.038 1.96.774 3.411 2.712 3.411 1.15 0 2.073-.603 2.225-1.96h1.771c-.058.472-.133 1.244-.811 1.979-.415.47-1.357 1.261-3.258 1.261-2.977 0-4.392-1.846-4.392-4.841 0-1.865.377-3.41 1.865-4.446.905-.641 2.036-.698 2.581-.698 4.24 0 4.145 3.75 4.107 5.294h-6.8z"/><path stroke="#000" stroke-width=".483" d="M190.341 79.933c.017-.904-.152-2.788-2.336-2.788-1.15 0-2.545.696-2.582 2.788h4.918zm-4.993 1.243c-.038 1.96.774 3.411 2.712 3.411 1.15 0 2.073-.603 2.225-1.96h1.771c-.058.472-.133 1.244-.811 1.979-.415.47-1.357 1.261-3.258 1.261-2.977 0-4.392-1.846-4.392-4.841 0-1.865.377-3.41 1.865-4.446.905-.641 2.036-.698 2.581-.698 4.24 0 4.145 3.75 4.107 5.294h-6.8z"/><path d="M200.928 79.16c-.037-.432-.17-1.977-1.884-1.977-2.448 0-2.448 2.844-2.448 3.56 0 1.941.47 3.749 2.355 3.749 1.507 0 2.015-1.13 2.052-2.053h1.79c-.112 1.846-1.488 3.39-3.824 3.39-.64 0-2.11-.13-3.108-1.223-.566-.66-1.13-1.659-1.13-3.618 0-3.938 2.41-5.106 4.295-5.106.622 0 2.034.132 2.9 1.168.698.812.755 1.584.792 2.11h-1.79z"/><path stroke="#000" stroke-width=".483" d="M200.928 79.16c-.037-.432-.17-1.977-1.884-1.977-2.448 0-2.448 2.844-2.448 3.56 0 1.941.47 3.749 2.355 3.749 1.507 0 2.015-1.13 2.052-2.053h1.79c-.112 1.846-1.488 3.39-3.824 3.39-.64 0-2.11-.13-3.108-1.223-.566-.66-1.13-1.659-1.13-3.618 0-3.938 2.41-5.106 4.295-5.106.622 0 2.034.132 2.9 1.168.698.812.755 1.584.792 2.11h-1.79z"/><path d="M204.678 76.09h1.677v-1.978l1.751-.566v2.544h2.11v1.3h-2.11v5.67c0 .471 0 1.262 1.263 1.262a3.9 3.9 0 0 0 .848-.094v1.376a8.77 8.77 0 0 1-1.47.113c-1.62 0-2.392-.47-2.392-2.015V77.39h-1.677v-1.3z"/><path stroke="#000" stroke-width=".483" d="M204.678 76.09h1.677v-1.978l1.751-.566v2.544h2.11v1.3h-2.11v5.67c0 .471 0 1.262 1.263 1.262a3.9 3.9 0 0 0 .848-.094v1.376a8.77 8.77 0 0 1-1.47.113c-1.62 0-2.392-.47-2.392-2.015V77.39h-1.677v-1.3z"/><path d="M214.587 82.778c-.019.716.358 1.715 2.072 1.715.736 0 1.282-.133 1.658-.603.188-.246.302-.566.302-.885 0-.924-.66-1.093-2.073-1.413-1.978-.454-3.636-.85-3.636-2.827 0-1.734 1.507-2.864 3.692-2.864 1.187 0 2.846.34 3.41 1.47.245.526.245.98.245 1.375h-1.808c.056-1.432-1.187-1.544-1.828-1.544-.263 0-1.921 0-1.921 1.357 0 .866.847 1.072 1.338 1.205 2.619.622 3.185.772 3.749 1.3.527.49.716 1.148.716 1.752 0 1.055-.585 1.958-1.28 2.392-.83.51-1.828.64-2.808.64-1.922 0-3.712-.79-3.693-3.07h1.865z"/><path stroke="#000" stroke-width=".483" d="M214.587 82.778c-.019.716.358 1.715 2.072 1.715.736 0 1.282-.133 1.658-.603.188-.246.302-.566.302-.885 0-.924-.66-1.093-2.073-1.413-1.978-.454-3.636-.85-3.636-2.827 0-1.734 1.507-2.864 3.692-2.864 1.187 0 2.846.34 3.41 1.47.245.526.245.98.245 1.375h-1.808c.056-1.432-1.187-1.544-1.828-1.544-.263 0-1.921 0-1.921 1.357 0 .866.847 1.072 1.338 1.205 2.619.622 3.185.772 3.749 1.3.527.49.716 1.148.716 1.752 0 1.055-.585 1.958-1.28 2.392-.83.51-1.828.64-2.808.64-1.922 0-3.712-.79-3.693-3.07h1.865z"/><path d="M233.804 81.61c.037.941.151 2.694 3.278 2.694 2.826 0 3.183-1.753 3.183-2.43 0-1.526-1.224-1.827-3.127-2.3-2.073-.508-2.995-.733-3.692-1.205-1.112-.753-1.414-1.771-1.414-2.675 0-2.768 2.62-3.975 5.181-3.975.905 0 2.733.151 3.826 1.338.752.828.79 1.752.828 2.317h-1.959c-.095-1.695-1.527-2.072-2.864-2.072-1.883 0-3.014.848-3.014 2.203 0 1.205.79 1.621 2.45 2.017 3.24.828 3.597.903 4.388 1.432 1.264.828 1.357 2.146 1.357 2.712 0 2.41-1.883 4.24-5.37 4.24-1.035 0-3.145-.17-4.22-1.546-.773-.998-.792-2.09-.792-2.75h1.96z"/><path stroke="#000" stroke-width=".483" d="M233.804 81.61c.037.941.151 2.694 3.278 2.694 2.826 0 3.183-1.753 3.183-2.43 0-1.526-1.224-1.827-3.127-2.3-2.073-.508-2.995-.733-3.692-1.205-1.112-.753-1.414-1.771-1.414-2.675 0-2.768 2.62-3.975 5.181-3.975.905 0 2.733.151 3.826 1.338.752.828.79 1.752.828 2.317h-1.959c-.095-1.695-1.527-2.072-2.864-2.072-1.883 0-3.014.848-3.014 2.203 0 1.205.79 1.621 2.45 2.017 3.24.828 3.597.903 4.388 1.432 1.264.828 1.357 2.146 1.357 2.712 0 2.41-1.883 4.24-5.37 4.24-1.035 0-3.145-.17-4.22-1.546-.773-.998-.792-2.09-.792-2.75h1.96z"/><path d="M249.045 84.586c1.338 0 2.864-.96 2.864-3.805 0-2.356-1.093-3.599-2.751-3.599-1.129 0-2.958.716-2.958 3.674 0 1.94.83 3.73 2.845 3.73m.113-8.704c3.786 0 4.635 2.978 4.635 4.955 0 2.77-1.563 5.069-4.785 5.069-3.129 0-4.654-2.167-4.654-4.936 0-2.337 1.092-5.088 4.804-5.088"/><path stroke="#000" stroke-width=".483" d="M249.045 84.586c1.338 0 2.864-.96 2.864-3.805 0-2.356-1.093-3.599-2.751-3.599-1.129 0-2.958.716-2.958 3.674 0 1.94.83 3.73 2.845 3.73zm.113-8.704c3.786 0 4.635 2.978 4.635 4.955 0 2.77-1.563 5.069-4.785 5.069-3.129 0-4.654-2.167-4.654-4.936 0-2.337 1.092-5.088 4.804-5.088z"/><path d="M261.988 79.16c-.037-.432-.17-1.977-1.884-1.977-2.45 0-2.45 2.844-2.45 3.56 0 1.941.471 3.749 2.355 3.749 1.507 0 2.017-1.13 2.054-2.053h1.789c-.111 1.846-1.487 3.39-3.824 3.39-.64 0-2.11-.13-3.108-1.223-.566-.66-1.13-1.659-1.13-3.618 0-3.938 2.41-5.106 4.296-5.106.622 0 2.033.132 2.9 1.168.698.812.755 1.584.792 2.11h-1.79z"/><path stroke="#000" stroke-width=".483" d="M261.988 79.16c-.037-.432-.17-1.977-1.884-1.977-2.45 0-2.45 2.844-2.45 3.56 0 1.941.471 3.749 2.355 3.749 1.507 0 2.017-1.13 2.054-2.053h1.789c-.111 1.846-1.487 3.39-3.824 3.39-.64 0-2.11-.13-3.108-1.223-.566-.66-1.13-1.659-1.13-3.618 0-3.938 2.41-5.106 4.296-5.106.622 0 2.033.132 2.9 1.168.698.812.755 1.584.792 2.11h-1.79z"/><path d="M267.207 76.127h1.771v9.459h-1.771v-9.459zm-.19-4.107h2.13v1.942h-2.13V72.02z"/><path stroke="#000" stroke-width=".483" d="M267.206 76.127h1.772v9.459h-1.772v-9.459zm-.189-4.106h2.131v1.94h-2.13v-1.94z"/><path d="M278.53 79.933c.017-.904-.152-2.788-2.336-2.788-1.15 0-2.545.696-2.583 2.788h4.919zm-4.994 1.243c-.037 1.96.774 3.411 2.713 3.411 1.149 0 2.073-.603 2.224-1.96h1.772c-.058.472-.133 1.244-.812 1.979-.414.47-1.357 1.261-3.258 1.261-2.976 0-4.391-1.846-4.391-4.841 0-1.865.377-3.41 1.865-4.446.905-.641 2.035-.698 2.58-.698 4.24 0 4.145 3.75 4.108 5.294h-6.8z"/><path stroke="#000" stroke-width=".483" d="M278.53 79.933c.017-.904-.152-2.788-2.336-2.788-1.15 0-2.545.696-2.583 2.788h4.919zm-4.994 1.243c-.037 1.96.774 3.411 2.713 3.411 1.149 0 2.073-.603 2.224-1.96h1.772c-.058.472-.133 1.244-.812 1.979-.414.47-1.357 1.261-3.258 1.261-2.976 0-4.391-1.846-4.391-4.841 0-1.865.377-3.41 1.865-4.446.905-.641 2.035-.698 2.58-.698 4.24 0 4.145 3.75 4.108 5.294h-6.8z"/><path d="M282.278 76.09h1.678v-1.978l1.752-.566v2.544h2.11v1.3h-2.11v5.67c0 .471 0 1.262 1.262 1.262.358 0 .697-.056.847-.094v1.376a8.77 8.77 0 0 1-1.47.113c-1.619 0-2.391-.47-2.391-2.015V77.39h-1.678v-1.3z"/><path stroke="#000" stroke-width=".483" d="M282.278 76.09h1.678v-1.978l1.752-.566v2.544h2.11v1.3h-2.11v5.67c0 .471 0 1.262 1.262 1.262.358 0 .697-.056.847-.094v1.376a8.77 8.77 0 0 1-1.47.113c-1.619 0-2.391-.47-2.391-2.015V77.39h-1.678v-1.3z"/><path d="M295.429 85.642l-1.357 3.523h-1.828l1.432-3.617-3.938-9.42h1.998l2.958 7.46 3.014-7.46h1.921l-4.2 9.514z"/><path stroke="#000" stroke-width=".483" d="M295.429 85.642l-1.357 3.523h-1.828l1.432-3.617-3.938-9.42h1.998l2.958 7.46 3.014-7.46h1.921l-4.2 9.514z"/></svg>