<svg xmlns="http://www.w3.org/2000/svg" role="img" viewBox="-3.74 -4.74 167.23 168.48"><title>vfxgal logo</title><path fill="#000100" stroke="#000100" d="M19 0h6v4.5l3 2-2 1 .5 1.5-2 1L21 9q-2.1 5.2 2.5 4l1.5-.5 1 2-1 4 1.5-.5 5-2v1L26 19q-1.7 4.5 3.5 3l3.5-2.5-.5 3.5h-2Q26 24 25 21.5V19h-5.5l-.5-.5V0zm10.5 0l.5 4.5h-1l.5-4.5zm2 0L33 5.5h-1L31.5 0zm23 0l1 2-1-2zM65 0h20.5l.5 2.5L88.5 4l2-3 1 2 1.5-.5L90.5 5h-2l-4-1q-1.5 2.5-3-1l-3-1-3 4-3-4h-4l-7 4L65 1.5V0zm32.5 0l.5 2-4-.5L97.5 0zm12 0l5 1 1.5-.5 1 4h-1q.8-2.2-1.5-1.5l-1.5.5q1.3-4.2-3.5-2.5V0zM129 0h11v5.5l1 4.5h3l.5 3h9.5v6q-5.6-1.9-4 3h-6v4h-6V13q-6 2-4-4h-11.5l-.5-1.5-3-2 3.5-1.5q.5 3.5 5 3 3-1.6 1.5-7zM31.5 7l-1 2 1-2zm2 3l2.5.5-2.5.5v-1zm-1 2l-1 2 1-2zm6 6L37 20.5q.8 2.3-1.5 1.5l-1.5.5 1-2.5 3.5-2zm1 2l-.5 1.5-.5 1.5-.5-1.5 1.5-1.5zm-13 5l3.5 1-1 6q-6.4 2.3-4-5.5l1.5-1.5zm-.5 1q-2 5 2 4 2-5-2-4zm12.5-1l1 2-2.5-.5 1.5-1.5zm-4 1l.5 3 2 .5v14l2 .5.5-13 .5 12.5 3 5-3 1 .5 1.5 2-1-.5 1.5 1 4-3.5-2.5-2-1-1.5.5-.5-19.5-.5 2q-5.2-1.8-3 5.5h-1v-8l1.5-.5q2.6-1.4 2-6zM39 48l-1 3h1v-3zm81.5-13l1.5 7.5-4.5 6.5-.5-1.5 3-4 .5-8.5zm16.5 0h4v4h5.5l.5 1.5 3 1.5q-1.5 4.5 3 3v6l-6 1q1.1 3.3-3 2v7q-4.1-1.7-3 2.5l-1 1V74h-3q1.1 2.7-1.5 2l-1.5 4h-5v3q-3-1.2-2 2.5-4.9 3.1-3 13l2.5 4.5h13l3.5-2q-.8-8.2 4-12.5V83h7v3.5h2l1 12-1 3.5-6.5-1-3.5 2.5-2 18.5h-3v-6h-2.5l-1-1H131q1 4.3-2 3.5v6.5h-1.5l-2-1-1.5 3.5 1 2.5q3.8 1.5 3-1.5h1l1 12 2 6.5 2 .5v6.5h-3q1.1 3.3-3 2v4h-3q1.7-4.1-2.5-3l-1.5-3.5 1-3-2-5 1-2-.5-1.5q3 .5 1.5-6.5 2.8-1.7 1-8l-3-2 3-2-1-7 1-5 2-2v-4l-2.5-3.5-3.5-1.5-1.5-2.5q-1.2 3-5.5 2l-1-6.5h1l.5 1.5 1-5 1 3 .5-6 4-1q-1.2-5.1 2-6.5l-.5-1.5 2.5-1.5-1-2 2 1 1.5 2.5 3.5-1.5-1-5.5-6-.5 3-.5.5-3 .5 2 2.5 1 .5-2 2-.5V61h3v-6.5l1.5.5h1.5v-4l-2-.5V42l3-1.5-1-5.5zm-6 39l-1 3h1v-3zm-5 60l-2 3h4v-1l-2-2zM0 38q4.9-1.6 3 4h3v6H0V38zm31.5 7l.5 5.5-1 3 .5 1.5q-3 .9-1.5-3.5l1.5-6.5zm3 9l2.5 1.5-1 5q3.7 1.8 2 9h-1q1.8-6.7-1.5-8.5-2.6.8-1.5-2.5l1-3-.5-1.5zm81 2l.5 1.5-2 1 1.5-2.5zm-74 2l1 2-1-2zm-12 2l3.5 1-.5 2-3.5-2-.5 2-.5-1.5 1.5-1.5zm-2 4q-.8 6.3 3 8l1.5.5-2 .5q1 3.8-1.5 5-3.7.8-4.5-1.5-1.5-4.4 1.5-3.5l2-1 1.5.5Q25.6 70 27.5 64zm-.5 9l-2 2 2 2q3 1 2-2l-2-2zm19.5-9l.5 1.5-2.5 1.5v-1q2.5.7 2-2zm65 5l1 2-1-2zM38 71q2.7-1.1 2 1.5l4 2-2.5.5q-1.5-3.5-3-1l-1.5-.5 1-2.5z"/><path fill="#000100" stroke="#000100" d="M35.5 73l-.5 1.5-1.5 2.5q-3-.8-1.5 3l6-2 .5-2 .5 1.5-3 1.5q1.3 3.3-3.5 2L31 77.5l3-1.5 1.5-3zm63 1l1 2q-2.8.7-1-2zM63 75l2 .5-2 1V75zm-18.5 1l.5 4.5h-1l.5-4.5zm50 1l.5 4q-3 1.3-2-2.5l1.5-1.5zm-25 3l-.5 1.5-.5 1.5-.5-1.5 1.5-1.5zM42 82q3-1 2 2-2.7-1.1-2 1.5L39 87l-3.5 5-.5-1.5 3-1.5 1.5-3q2.3.8 1.5-1.5l1-2.5zm-17 1q5.2-2.1 4 2.5 2.2 1.3 1 6l-1 4 1 1v9h-1l-.5-9.5-2.5 1-1.5 9-.5-6.5 1-1V83zm1 3v7h2v-6l-2-1zm42.5-2l-1 2-3.5-.5 4.5-1.5z"/><path fill="#000100" stroke="#000100" d="M42 87q2.7-1.1 2 1.5l3 7-2 .5-1.5-7q-.4 7.1-4.5 10.5l4 2-2.5.5-1.5-.5q-1.2 6.1 1.5 5.5l3 2 2.5-1.5-2.5 4.5-2-3q-3.4-.9-1.5 4.5l-3 6v7q-2.7 1.1-2 4.5h-6v-12.5l-1-3.5q-3-1.2-2 2.5h-1l.5-9.5 2 1 1.5-.5q-2.2 1.2-1 6l2 4V130h4v-8.5l-2-5h1q-.7 2.6 2 1.5l2-14.5-1-2.5q3 1.3 2-2.5 5.2-3.2 4-11.5zm-6 32l-1 3h1v-3zm25-31l2 .5-1 2.5-3-.5 2-.5v-2z"/><path fill="#000100" stroke="#000100" d="M34.5 93l.5 7.5-3 1.5-.5 13-.5-12.5 3-1.5.5-8zm79.5 9l2 .5-2 1V102zm-69.5 1l2.5 1.5-.5 1.5-.5-2-1.5-1zM0 106h5.5l.5.5V150H.5l-.5-.5V106zm40.5 12l.5 8.5h-1l.5-8.5zm-15 6l.5 3.5-1 3 .5 1.5-1.5-3.5 1.5-4.5zm118.5 1l3 .5v21l1 4-1 6.5h-3v-6q-4.9 1.6-3-4l3-1.5V141q-4.9 1.6-3-4l3-.5V125zm-103.5 5l2.5.5q-2.1 3.3-2.5-.5z"/><path fill="#000100" stroke="#000100" d="M36.5 131l2.5 1.5.5 2.5 2.5-1-.5 3-1.5-.5-.5 2.5-1.5-.5q.8 2.6-2.5 1.5l-1.5.5 4-3-2-.5-.5-3-1.5.5 2.5-3.5zm-9 4l.5 2.5h-1l.5-2.5zm5 5l-1 2 1-2zm8 0l2 1 1.5-.5-.5 1.5 4.5 3.5-.5 2.5-5-3q-1.5 3.5-3 1l-3.5-.5 5-2-.5-3.5zm4.5 3q-2 3 1 2l-1-2zm-17.5 2l-1.5 2.5 1 5-2 1q-1.5-7 2.5-8.5zm12 4l3.5 2.5-1.5.5-2.5-1 .5-2zm32 0l4 1q1.2-2.3 6-1v1l-3.5.5 7 1-12 .5q1.1-2.7-1.5-2v-1zm-39 1l-1 2-1.5-.5 2.5-1.5zm37 4h13l.5 2q-3.8 1.8-11.5 1l-2-3zm26 2q5.3-1.2 6.5 1.5l-.5 2.5-.5-3h-5.5v-1zm15 1q3.8-1.2 2.5 2.5h-1q.8-2.2-1.5-1.5v-1zm-55 2l2.5.5-2.5.5v-1z"/><path fill="#406A64" stroke="#406A64" d="M49.5 5q4.6-1.2 2.5 4h4.5v1Q52 11 51 8.5q1.1-3.3-1.5-2.5l-1.5.5L49.5 5zm59 0l2.5.5v7q-1 3.5-6.5 2.5v-1q3.8.8 4.5-1.5l1-2-3-1 2-.5-.5-4z"/><path fill="#406A64" stroke="#406A64" d="M48.5 9l3 5 4 1 3.5-1-1-3.5 2-.5q1 3.8-1.5 5l-4 1-5.5-2.5-.5-4.5zm52 1l1.5.5-2 .5 1.5 4 1.5.5-3 .5-1-4.5 1.5-1.5zm-37 6l3.5.5-3.5.5v-1zm10 0l18.5.5L68.5 18v-1l5-1zm-21 1l5 2 4-2-1 2-4 1-7.5-1.5 3.5-1.5zm41 0l6 2h6q1.2-2.2 6-1v1l-13 1-5-2v-1zm-47 2L45 21.5l1.5 1.5h8q3 3 10 2l3-1 1 1 13.5.5-24.5.5q-4.9-2.9-12.5-2l-1-2.5 2.5-2.5zm67 0q2.5 1.2 1.5 5h-7.5l-1.5 1.5q-.7 2.6 2 1.5v2.5l2 3.5 4.5-1 .5 11.5q-2.3 1.2-1 6l-3 6v6L106.5 74l-.5-9.5q3.9-1.6 3-8l-1.5-2.5-2.5 2.5v4l-3 3q1.3 5.3-1.5 6.5l-1.5-.5 2-.5-1-4.5 4-10 2.5-2.5q2.3.8 1.5-1.5l1-2.5q2.7 1.1 2-1.5l1-4.5-2-.5v-2l-1-5.5-5-3.5 2-3-18-2 9.5-.5 3 1q4.4-4.3 13.5-3l-.5-4zm-64 38l.5 2.5h-1l.5-2.5zm13 4l2 1 2-1-1 2-4.5 1-1 3.5 3.5 3.5q5.3-1.2 6.5 1.5-.9 3.4 4.5 1.5l1-1h12l3-2 7-1v1q-6.7 1.3-10.5 5.5 1.3 6.3-2.5 7.5l-1.5-.5 2-4q-2.8-4-10-2.5l2.5 6 1.5.5-3 .5-4.5-8-5-4h-3L59 67.5q.3-4.7 3.5-6.5zm1 33l-.5 1.5-1 4.5q-2.7 1.1-2-1.5l3.5-4.5zm44 4l.5 3.5-2-1 1.5-2.5zm3 10l1.5 9.5 2 3q-1.3 6.8 1 10l-3 10-4.5 4.5-12 1v-1l12-1 3.5-3.5 1-7.5-5.5 1 1-2q4.2 1.3 2.5-3.5l1-3h-1l-1.5 3.5-1.5-15.5 3.5-5.5zM49 112q3-1.2 2 2.5l-2 1V112zm-1.5 6l.5 8.5-2 1q-1.3-6.8 1.5-9.5zm0 17l3.5.5-3 1.5v2.5l5.5 5.5 4-1v1l-5 1-6.5-9.5 1.5-1.5z"/><path fill="#406A64" stroke="#406A64" d="M52 138q3.8-1.5 3 1.5l-3 1.5v-3zm8.5 7l3.5.5-3.5.5v-1zm6 1l11.5.5-11.5.5v-1zm15 0l11.5.5-11.5.5v-1zm23.5 2q4.9-1.6 3 4l-3-1.5V148z"/><path fill="#0E827E" stroke="#0E827E" d="M98.5 29q4-.5 4.5 2.5l2 5-2 .5q1.3-3.3-3.5-2L96 37.5 94.5 41 90 40l-1-4-9.5-2h-2L71 31.5l4.5-1.5h22l1-1zm5 9l7.5 4-2.5 8-4.5-1-1 5q-6.3 1.5-8-2.5 1.3-4.6-4.5-2.5-3.5 2 1 4l2.5 1.5 1 3.5 6.5-1q3.5 2-1 4-2.2-.7-1.5 1.5l.5 1.5-6-3-11-1-5-2-5 2v-1l2.5-1.5q-.8-2.6 2.5-1.5l9 3 2.5-1.5-8-4.5q-1.1-2.7 1.5-2l1.5-2.5-1-2.5 2.5-1h11l1-1 2 1 2.5-1 1.5-6zm-35 22l2.5.5-3.5 1.5 1-2zm6 28l6 1q1.5-2.5 7-1L101 98.5l2 7-5.5 3.5-4-1q-1.3 2.3-6 1l-1-1h-8q-3.8-4.2-11-5L62 98.5l3.5-4.5 9-6zM85 89l-2 1-3 5h-2v-5h-4l-7 5-2 4 4 2q4-1 6 1 5 1 7-2l7 3 10-3-1-2-9-8-4-1zm19.5 26q5.5 2 3.5 11.5l-4 6.5 2 .5-2.5.5-1.5-3q-5.2 1.8-14.5 1l-1-1h-11l-1 1h-15q-.5 3.5-5 3v-1l4-3h12l1-1q10.3 1.3 17-1l1 1h8l6.5-3q1.9-2.7 1-9.5l-.5-2.5z"/><path fill="#080001" stroke="#080001" d="M36 0q3.8-1.5 3 1.5L42.5 3 44 0l6 .5-3 2-3 6 2 3-1 3 .5 1.5-3.5-1-1.5-3q-2.6.7-1.5-2h-3V8.5q-2.2-1.3.5-2.5 2.6.8 1.5-2.5L36 0zm4 6l-2 2q-1 3 3 1l-1-3zm60-6l6 1.5-4.5 1.5-1.5-3zm41 0h10v4h-10V0zm-32.5 1l3.5.5-3.5.5V1zm-6 4l2.5 1q1.4 4-5.5 2V7q3.5 1 3-2zm-13 1L89 7.5 88 11h5V8.5l2-1 .5 1.5 2-1v1q-3-.9-1.5 3.5 2.3 1.3-.5 2.5l-5-1-1 1h-12l-2-1-1 1h-11q-2.8-1.2-.5-2.5L64 9l-2-.5q1.3-2.7 6.5-1.5l2 1q1.5-2.5 7-1h2l7 1 3-2zM76 9v2h10l-1-2h-9zm-11 3v2l2-1-2-1zm19 0q-2 2-6 1v1h11l1-1-6-1zm8 0q-1 2 3 2 1-3-3-2zm22.5-3l1 2h2l3 1 3-2 .5 4q3.8-1 5 1.5l3 6-3.5 5.5-1.5-.5-3.5 5.5-2-8-2.5 1.5q1.5-6-1.5-7.5-3 .9-1.5-3.5l-3-3 1-1 .5-1.5zm6.5 6l-1 4 2-1-1-3zm5 7l-3 7 2-1q-1-3 2-2l1-2-2-2zM37.5 12l-1 2 1-2zM126 36q4.9-1.8 3 4.5l2 3 1 14-8.5 11.5q-6.1 1.8-3.5-5.5l-1-3.5q3.7 1.4 2-4.5h-1l-1.5 2.5-.5-3.5 2-8 6-10.5zm24.5 21l.5 5.5 3 5v6l-2.5 4.5-5.5-2 2-13h2l.5-6zm-101 13l.5 3.5h-1l.5-3.5zm7 1l3.5 6h3v6.5L62 86q-3 1.3-2-2.5-2.5-1.5-1-7l-3-4 .5-1.5zm54 1l1 7 1.5-4 3.5-2-.5 1.5q.8 7.3-2.5 10.5l-2-3-1 9V72zm4.5 4l-2 3q-1 2 2 1v-4zm-15.5 0l1.5 7.5h-1l-.5-2.5-2.5 1 2.5-6zM135 87h5v1.5l1 4q-2.5 1.5-1 7l-1.5 1.5-9.5 1q1-3-2-2v-2.5l5.5-7.5 2.5-1.5V87zm-18.5 15q5.5-1 6.5 2.5l-1 10-2.5 4.5-1-4-2.5 1.5v-5l-3-8q1.8 1.6 3.5-1.5zm33 2q3.8-.7 4.5 1.5l1 4-1 1q1 9-1 13.5-3.7 1.5-3-1.5l-2-4-1-12 2.5-2.5zm-16 16q4.8-.7 5.5 2.5l1 3v15l-1.5 7.5-6.5-10.5-1-9q2.5-1.5 1-7l1.5-1.5zm-91 13l.5 2.5h-1l.5-2.5zm75 5l2.5 5.5 1 9q-3.6 5.9-15.5 3.5v-1q5.3 1.3 6.5-1.5l-1-7 3.5-4.5 2.5-1.5.5-2.5zM44 148l3 1.5-.5 1.5-2.5-1v-2zm19.5 1l1.5.5-2.5 4.5-6 1v-1q2.3.8 1.5-1.5l5.5-3.5zm30 0l9.5 4.5q.8 2.6-2.5 1.5l-4-1q-1.2 2.3-2.5-.5l-.5-4.5z"/><path fill="#040202" stroke="#040202" d="M0 0h6v9l-3 1.5q.7 3-3 1.5V0zm25.5 0l.5 5q3.7 1.3 2-4.5h1V6h-2.5q-2.9-1.4-1-6z"/><path fill="#040202" stroke="#040202" d="M32 0q5.2-2.1 4 2.5-2.2 1.2.5 2.5l1.5.5L33 7q-1.1 2.7 1.5 2l1.5-.5V10q-3.8-1.5-3 1.5-1.2 3.8-7.5 2.5v-1q5.3 1.3 6.5-1.5l-1-3 2-5L32 0zm32.5 0l.5 1.5-3 2L64.5 0zm34 0l2.5 4.5-3 .5q1.3-3.7-4.5-2L90 5.5Q91.6.8 98 2l.5-2zm42 0l.5 5.5h-1l.5-5.5zm-72 2L67 4.5l1 2-2.5.5.5-1.5L68.5 2zm10 0l8 5 2-1v1l-3 1q-1.3-2.2-6-1h-2Q72.7 8.7 74 4.5h1l.5 1.5 3-4zm.5 1l-2 3q1 2 3 0 2 1 1-1l-2-2zm10.5-1l-1 2-1.5-.5L89.5 2zm8 4l1 2-3 1-.5-2 2.5-1z"/><path fill="#040202" stroke="#040202" d="M27.5 8l2.5.5-2.5.5V8zm-2 1l-.5 1.5-.5 1.5-.5-1.5L25.5 9zm96 0l1.5.5-3.5 1.5v-1l2-1zm7 0l2.5 6.5-2 1-2-3 1.5-4.5zm-92 3l-.5 1.5q-1.9 5.4 1.5 4.5l2-1v1L35 20l-1-5.5 2.5-2.5zm-7 5q3.8-1.2 2.5 2.5-1.3 3.5-6 2.5-1.5-3.8 1.5-3l2-2zm12 1l-.5 1.5-1.5 6.5q-1.2-2.3-2.5.5 1 3.8-2 2.5l-1-5.5 3.5-1.5 1.5.5 2.5-4.5zm91 4l1.5 3q-3.5 1.1-1.5-3zM26 26q3.7-1.2 2 4-3.7 1.2-2-4zm99.5 3l.5 6 2 .5-2 .5-2.5 5-.5-8.5 2.5-3.5zm25 0l2.5 1q1 3-2 2v2.5l-1.5-.5H148v-4l2.5-1zm-115 4l.5 21-3.5 1-1.5-3.5q2.2-1.3 1-6l-1-4 1-6.5q3.8 1.3 3.5-2zM33 38v9l2 1v-9l-2-1zm86.5 4l1 2 1.5-.5-2.5 4.5-.5-2.5v-2l.5-1.5zM25 45l3 1.5 1 4.5h-4v-6zm13.5 3l.5 2.5h-1l.5-2.5zm4 3l.5 3.5h-1l.5-3.5zm-5 5l3.5 1.5 3.5 9.5 2-1 2 3-3-1q-4 .5-4.5-2.5.6-5.4-1-7.5-3-1.2-2 2.5l2 10 2.5 2.5 3.5 1 .5-3 .5 2.5q-2.8 1.8-1 8l1 5-1.5 5.5-1.5-5q-4-1.4-2 5.5l-4 6v2.5l-2 .5v13l-1 3.5q-2.7 1.1-2-1.5l-1-1V102l3-1.5v-8l4-5.5 3-1.5q-.7-2.6 2-1.5v-2.5l1-5-1-2.5-4-1.5V71l-2-.5v-8q-2.7-.7-2-5l1.5-1.5zM46 83l-1 3h1v-3zm-12 21l-1 3h1v-3zm83.5-48l.5 2.5h-1l.5-2.5zM29 61l4 2.5q.8 6.1-1 8.5l-4-2.5q-.7-6.1 1-8.5zm2 2q-3 1-2 6 2 3 3 0 1-5-1-6zm87.5-1q3.5 2-1 4l-.5-2.5 1.5-1.5zm-4 4q2.5 1.2 1.5 5l6 2.5 1 3-6.5 2.5-.5-2h5v-2.5q-.7-2.2-4.5-1.5l-2.5 1.5-1-3h2l-.5-5.5zm10 2l.5 2-4-.5 3.5-1.5z"/><path fill="#040202" stroke="#040202" d="M124 71l4 .5-3 2q-1.5 5.3 3 3.5l.5-4 .5 3.5-3.5 1.5q-3-1.6-1.5-7zm-97.5 2l2.5 1.5q1.3 3.8-2.5 2.5L25 74.5l1.5-1.5zm10 0l2.5 1-1 4-6 2q-1.5-3.8 1.5-3l3-4zm23 0l3.5 2-.5 2-3-4zm42 1l-1 2 1-2zm-4 2l1.5.5-3 2-.5 1.5-.5-3 2.5-1zm18 4l.5 6.5-1.5 6.5-.5-9.5 1.5-3.5zM63 81l2 .5-1.5 2.5-.5-3zm75.5 0q4.5-.5 4.5.5v13l-3 7.5-5.5 1v-1l5.5-2.5 1-10-1-2.5h-5v1.5l-9 8 1.5 3.5 3 2v1q-4.5 1-5.5-1.5l-1-5 2.5-3.5 2.5-1.5q-1.9-5.4 1.5-4.5l1.5-3q4.6.6 6.5-3zm-89 2l.5 2.5h-1l.5-2.5zM26 86l2 .5V93l-2-.5V86zm34 0l4 .5-4.5 2.5.5-1.5V86zm-12.5 9l1.5.5-4 3q-.7 4.3 2 5l-1.5-.5q-3.4.9-1.5-4.5l1-2.5 2.5-1zm-19 1l.5 6.5h-1q.7-2.6-2-1.5l-.5 2-.5-2.5 1-3.5 2.5-1zm89 2l1.5 4-5.5 1-.5-3q3.4.8 4.5-2z"/><path fill="#040202" stroke="#040202" d="M39.5 101l3.5 1v5.5l-1.5.5-2.5-1 .5-6zm2.5 2l-2 2h2v-2zm107.5-2q3.8-.7 4.5 1.5l2 6h-1l-2.5-4.5q-4.2-.7-5 2l-.5-1.5.5-2.5 2-1zm-28 1l2.5 1.5 1 6-2 2-1 9 1 3-2.5 1.5-1-2 2.5 1-1.5-5-1 2-.5-1.5 3-5 1-10-1.5-2.5zm-93 3l.5 2.5-2.5 1.5-1.5-2.5 1.5.5q2.5.7 2-2zm119 5q-.4 9.2 2.5 14 4.1 1.7 3-2.5l1-1 .5-10.5 1.5 10.5q-4.3 2.5-3 9.5l-4-1-2-8.5.5-10.5zm-104 2l.5 3.5h-1l.5-3.5zm-4 2l.5 5-2 .5v9h2l1.5 3.5 1.5-.5-1 2.5-2.5 1-2-4-2.5 1.5q-2.8 1.7-2 7l-2 2 .5 1.5-3 1-.5-2.5v-2l.5-1.5.5 2 3-1.5 1-6.5-4 1-.5 2-.5-3-3-1.5 1-6q-2.2-1.2-1-6l1-3.5q3-1.2 2 2.5l1 1V131h6v-2.5l2-2q-1.1-8.6 2.5-12.5zM26 128q-1 3 2 2 1-3-2-2z"/><path fill="#040202" stroke="#040202" d="M35.5 119l.5 2.5h-1l.5-2.5zm82 0l.5 4.5h-1l.5-4.5zm11 6l.5 2.5h-1l.5-2.5zm-8 1l2.5 1.5-1.5-.5-1-1zm-.5 10q3-1 2 2-3-1-2 2 3-1 2 2-4.1 1.7-3-2.5l-1.5-2.5 2.5 1v-2zm-81.5 2l1 2q-2.8.7-1-2z"/><path fill="#040202" stroke="#040202" d="M35.5 140l1.5.5-2 2 1.5 2.5-2.5-1.5 1.5-3.5zm5 1l.5 2.5-2.5 1.5v-1q2.9.7 2-3zm-8 3l.5 5.5-5.5 2.5q-2.2-.7-1.5-4.5l2-1-1 4.5q3.8.8 5-2.5l.5-4.5zm10 1l-1.5 2.5 1 3-2-1q-.5-4 2.5-4.5zm2 1l2.5 1.5-1.5-.5-1-1zm76 2l1.5 4.5-2 1 1-3-.5-2.5zm-85 1l3.5.5-4 .5q-2.2 5.6 3.5 4v1q-3.7.8-4.5-1.5-.7-3.7 1.5-4.5zm9 1l1.5.5-2.5 1.5 1-2zm2 2l1.5 2.5-2-1 .5-1.5zm18 0l2.5 1.5-3.5.5 1-2zm6.5 0q6.2-1.3 9 1.5l-9 .5v-2zm20 0q4.1-1.3 3 2-3.4 1.7-10.5 1v-1h7l.5-2zm6.5 3q5.4-1.9 4.5 1.5l1 3h-1l-1.5-3.5q-4 .8-3-1zm8 1l1 2q-2.8.7-1-2zm3 2q4.4-1.5 3.5 1.5l-1.5-.5q-3 .5-2-1zm-59 1l5.5.5-5.5.5v-1z"/><path fill="#9BB6A9" stroke="#9BB6A9" d="M54.5 10l3.5 1.5-1.5 2.5-4.5-1q-1.1-2.7 1.5-2l1-1zm46.5 1h5.5l.5 1.5q-1.4 2.8-6 1.5v-3zm-36.5 6l8 2q3.5-4 13-2 1.8 2.8 8 1l8 4q3.5-3.2 10.5-2 1.1 3.5-6.5 2-3.3 3.2-11 2l-4-1-7 2-4.5-1q1.8-4.9-4.5-3l-1 3-6.5-1q1.3-3.3-3.5-2l-1 3-7-2-9.5-.5 1.5-1.5H62q-1.1-2.7 1.5-2l1-1zM87 20l1 2h3q-1-3-4-2zM72.5 62q17.8-2.7 24.5 5.5l-4.5.5q-1.5-2.5-7-1l-3 1-2.5-1q1.3-3-2.5-2l-6 3-2-1q-.7 2.8-5 2L63 66.5l9.5-4.5zm2 72q3.8-1 2.5 2h3.5q1.5 2.5 7 1 1.3-2.2 6-1 1.2 2.3 6 1 2.6-3.4 10-2l1.5 2.5-3.5 5.5-18 2-1 1h-11l-5-1-2 1-16.5-3.5 3-4.5q3.3-2.1 11.5-1l6-3z"/><path fill="#4FA69F" stroke="#4FA69F" d="M75.5 59l17 2 7.5 5.5q.8 2.3-1.5 1.5l-4 2q-2.7-2.8-9-2l-6 2-2-1-4 2-5-2-4 1-2.5-3.5 7.5-5.5q4.6.6 6-2zM73 62l-10 5 2 2q4 1 5-2l2 1 6-3q3-1 2 2l3 1 3-1q5-1 7 1h4q-7-9-24-6zm4 17q3.8-1 5 1.5.9 3-3.5 1.5L77 79zm-4 11l3 1.5-1.5 2.5H73v-4zm18 5q5.6-1.9 4 3l-4-1.5V95zm-14.5 36l19 3 5-2q2.3 2.8 7.5 2.5-6-.5-8.5 2.5h-5q-1.2-2.2-6-1-1.5 2.5-7 1l-4.5-1q1.3-3-2.5-2l-6 3q-8.2-1.1-11.5 1l-1.5 3 .5-1.5-1.5-2.5q-2.6.7-1.5-2h5.5l.5-1.5q1.3-2.7 6.5-1.5l4 1 7-2z"/><path fill="#010000" stroke="#010000" d="M6 0l3 .5V10H6v9H0v-7q3.8 1.5 3-1.5L6 9V0zm145 0h5v6q-3.3-1.1-2 3h-5.5l-1 1H141V4h10V0zM36.5 2L38 5q-3.5 1.1-1.5-3zm28 3l1.5.5L61.5 8V7l3-2zm20 0L87 6.5l-1.5.5-1-2zm-48 5q2.6-.7 1.5 2l-4 2.5q1.7 5.9-2 4.5l1-4.5-.5-1.5 1.5-.5-.5-1.5 3-1zm93 0l.5 2 4-2q-1.5 4.5 3 3v6q-4-1.4-2 5.5l-1 1V32l-2 .5v8q2.2 1.2 1 6l2 2v5l-1 1V61h-3v5.5l-1.5.5q-1.2-2.2-2.5.5l-.5 1.5-.5-3.5 6-8v-8l-1-3-2-10-1.5-1.5q-3 .5-1.5-6.5l4-3 2-5-2-4 1-2q-3.1-1.1-1.5-4.5zm3.5 12q-3 4 1 3l-1-3zM65 12l2 .5-2 1V12zm18.5 0l1.5.5q-1.5 3-7.5 1.5v-1q4.8 1.2 6-1zm4.5 0l2 .5-2 1V12zm3.5 0q4.8-1.3 3.5 2-4.2 0-3.5-2zm-51 5l3.5.5-4.5 2.5-.5-1.5 1.5-1.5zm81 7l.5 5.5h-1l-1-4 1.5-1.5zm28.5 2h4q-1.3 4.1 2 3v13q-3-1.2-2 2.5l-1.5-.5-2 1-4.5-7.5v-8l4-1.5v-2zm1 3l-3 1v4h2l1 1v-3q3 1 2-2l-2-1zM13 32h13q-1 4.3 2 3.5v9l2 6-2 1 1-3-1-3.5q-5.3-1.8-3 5.5l.5 1.5-9.5-1v-3l-3-.5V32zm108.5 9q2.3-.7 1.5 1.5l-1.5-1.5zm32 10l1 4 1.5-.5 1 19q-2.3 1.2-1 6l-1.5 1.5-7.5 2q1 4.3-2 3.5v6l-3 8-2.5 2.5-1.5-.5 2-.5q4.9-7 3-21h-4.5q-1.9 3.6-6.5 3l-1.5 3q-3.4-.9-1.5 4.5l-4 1.5-.5 3-.5-2.5 3-1.5v-5.5l1.5-.5 4-4 5.5-2.5q-1.1-3.3 1.5-2.5l2.5-1-1-6q4 1.4 2-5.5l2-2q-1-6.5 2.5-8.5h2.5q-1.2-3 2.5-2l1-1zm-2.5 6l-1 6h-2l-2 13 6 2 2-4v-6l-3-5v-6zm-32.5-5l.5 1.5-1.5 2.5-.5-1.5 1.5-2.5zm1 12q-.5 5.5 3 7 2.3-.7 1.5 1.5-1.7 3.3-3.5-.5l-4.5-1v-5h1.5l2-2zm-61 8l1.5 2.5-2-1 .5-1.5zm53 0l1 2 1-2 .5 2.5-2.5 4.5v-7zm-62 2l.5 8.5h-1l.5-8.5zm68 4l-.5 1.5-.5 4.5-.5-4.5 1.5-1.5zm-52 3l-1 2 1-2zm34 0l1.5 3.5-2-1 .5-2.5zm12 1q3.3 1.7 2.5 7.5h-1l-1.5-7.5zM62 84q3-1 2 2-3 1-2-2zm69.5 18l2.5.5-2.5.5v-1zm23 0l2.5 4.5v15l-1 1v8l-2 2v8.5h-4v-6.5l-1.5.5q-3 .9-1.5-3.5l1-3-2-4V103l2 .5-1 1v16l2 8.5 4 1v-5.5l3-6-1-1v-8l1-3-1.5-4.5zm-123 13l.5 2.5h-1l.5-2.5zm87 0l.5 6.5h-1l-1-5 1.5-1.5zm12.5 1h7q-1.1 3.3 3 2v3.5l1 1v14l-1 4q2.3 1.3 1 6l-4 9.5h-4v-8.5l-2-6.5-2-.5v-9l-1-1V118q3 1 2-2zm3 4l-2 2q2 5-1 7l1 9 7 10 1-7v-15l-1-3q-1-4-5-3zm-14.5 22l1.5 2.5h-1l-.5-2.5zm-58 12q4.5-1 5.5 1.5l-4.5 1.5-2-1h-2l-5.5-.5 8.5-1.5zm31 0l3 1 4-1v1l-4.5 1.5 3 1-2.5.5-5.5-2.5 2.5-1.5zm27 0q2.6-.7 1.5 2l-5.5 2-5-1-1.5.5.5-1.5h7l3-2z"/><path stroke="#000" d="M9 0h10v18.5l.5.5H25q-1-3.8 1.5-5 7.6-1.5 6.5 2h-3.5L25 19.5l1.5 3.5 5-1 1.5.5q-1.3-4.8 2-3.5-1.8 3.8-1 11.5L32.5 32l-1.5.5v18L30 55l3.5 1 1.5-.5-1 5.5 3 1.5q-.7 7 1 10.5l-4 1.5q.8 2.3-1.5 1.5L31 79.5q1.2 2.5 5 1.5-1.1-2.7 1.5-2 2.6-1.4 2-6 1.1 2.8 4.5 2v6.5l-2 .5v1.5L41 86l-3 1.5q.8 2.3-1.5 1.5-3.9 3.8-2.5 12l-3 1.5v15l2 .5v2.5l1 1v8.5h-4v-11.5q-2.8-2.7-2-9 3.5-4 2-13l-1-4q2.2-1.2 1-6L29 83l-4 .5v15q-2.5 1.5-1 7l1 1v21l-1 3 4 1.5-1 5.5q2.5 1.5 1 7-4.5 1.5-3 9l2.5-1.5q4.5 1 5.5-1.5l-1-9 1-6.5 2.5-1 .5 3 2 .5-4 3q-1.9 5.4 1.5 4.5l4.5 1v3h-6v6h6v-3.5l1.5.5H46l.5 3h6l1 1 11 1 5-2q2 4 10 2 3-3 10-2l8 3 3.5-1-.5 3h-15l-38-1-1 1H.5l-.5-.5V150h5.5l.5-.5V106H.5l-.5-.5V48h6v-6H3v-4l-3-.5V19h6v-9l3-.5V0zm18 25l-2 2v5H13v16h3v3h8l1 1q4 1 5-1l-2-6v-9l-2-1q-1-4 3-3l1-6-3-1zm3 35l-3 5q-1 6 2 8l-1-1-4 1q-1 4 2 5t4-1q-1-5 2-4 2-4 1-12l-3-1z"/><path stroke="#000" d="M30.5 0L32 6.5Q31 9 26.5 8V7L30 4.5l.5-4.5zm25 0q4.8-1.3 3.5 2-3.8.8-3.5-2zM91 0l6 .5L91.5 3 91 0zm14.5 0l3.5.5-3.5.5V0zM156 0l4 .5V160h-31.5l-.5-4h3q-1.1-3.3 3-2-1.2 3.7 4 2l2-5h4v6h3l1-9.5-1-1V135l2.5-1 .5 7h4v-8.5l2-2 1-24-2-4 2-6-1-1-.5-9.5-1.5.5q1.7-4.8-2.5-3.5v-1l4.5-2.5 1-12-1-1-.5-12.5-1.5.5-.5-3.5-3.5 1q1.3 3-2.5 2l-2.5 3.5v5q-3.5 1.7-2 7.5-3-1.2-2 2.5l1 3.5-4 1-1.5 4-4 1-5.5 4v5.5l-1.5.5-1.5.5v-3l3-4V83q3.3 1.1 2-3h5v-2.5l3-1.5v-2l3-.5v-9l1-3.5h3v-7h3q-1.2-3 2.5-2l3.5-1v-5.5l-1.5-.5v-1l2 1 .5-3 2-.5V29q-3.3 1.1-2-3h-4q1.3 3-2.5 2l-1.5 1.5v8l3 4-2-1-.5-1.5H141v-4h-4l1 5.5-3 1.5-.5 6-1.5-1.5-1-14.5q3.5 1.1 2-6.5l1-6.5q4 1.4 2-5.5h1V26h6v-4h6q-1.6-4.9 4-3v-6h-9.5l-.5-3 10-1q-1-4.2 2-3.5V0zm-42 3q3-1 2 2-3 1-2-2zM84.5 4L88 5.5l-1.5.5-2-2zm-22 1l1.5.5L59 8q-1.2-3 2.5-2l1-1zM98 5l4 1.5-4 .5V5zM21 9q4.9-1.6 3 4-4.9 1.6-3-4zm108.5 0l4.5.5-2 .5q1 3-2 2l-.5-3zm-44 3q3.8-1 2.5 2l-4-.5 1.5-1.5zm-42 3l1 2-2.5-.5 1.5-1.5zm-5 4l.5 1.5-2 1 1.5-2.5zM37 27q4.5-1.7 3 3.5l-1 1V44l-2-.5V27zm83.5 1q3.8 4.5 2.5 13-4 1.4-2-5.5-2.8-1.8-.5-7.5zm-79 20l1 2-2 1-.5-1.5 1.5-1.5zm77 0l.5 3.5-1.5 2.5-.5-4.5 1.5-1.5z"/><path stroke="#000" d="M135 51q3.7-1.2 2 4-3.7 1.2-2-4zm-97.5 1l5.5 4.5 3 6V66h-3v-6.5L42 57l-6-2 1.5-3zm79 3l.5 11q-4.9 1.8-3-4.5l2-4 .5-2.5zm12 11l2.5 1.5-2 .5-.5 2-1.5-2.5 1.5-1.5zm-81 2l1.5 3.5-1 2 1 1q-1.3 10.3 1 17L49 95q-5.2 1.8-3-5.5 2.8-1.7 1-8-2.2-1.2-1-6l1.5-7.5zm64 2l1.5 3.5h-1l-.5-3.5zM99 73l3 .5-3 1.5v-2zm31.5 1l.5 2.5h-1l.5-2.5zm-12 4l2.5 1.5q-3.2 1.4-2 6.5l-2.5 1-.5-2.5 2.5-6.5zm-50 1l1.5.5q-3 1.3-2 5.5h-4v-1.5l4.5-4.5zm43 6l1.5 1.5v8h-1q-2.4-3.3-.5-9.5zm33.5 1q3-1.2 2 2.5l-2 1V86zm-84.5 2l.5 2-2-.5 1.5-1.5z"/><path stroke="#000" d="M43.5 89l1.5 7.5-1 1v6.5q3-1.2 2 2.5l-3 2v-7l-2.5-.5q-2.7-1.2-.5-2.5l3.5-9.5zm-7 14l.5 2.5h-1l.5-2.5zm109 2l.5 20h-2v11.5l-2 .5v-14.5q3.2.9 2-7l1-1 .5-9.5zM40 109l3 1.5v19l-3 .5q1.8-3.8 1-11.5l-1-1V109zm91.5 6l9.5 1q1.1 3.3-3 2 1.1-3.5-6.5-2v-1zm-13 7l1.5 4.5-1 1v8l.5 1.5-2.5-1q-1.2-8.6 1.5-14zm29 6l.5 2.5h-1l.5-2.5zm-18 3l.5 2.5h-1l.5-2.5zm-89 5l3.5 5.5-2.5-1.5q-3.5.8-1-4zm91 5l1.5 5.5h-1l-.5-5.5zm10.5 0q3.7-1.3 2 4.5l-2 1V141zm-97.5 2l1 2q-2.8.7-1-2zm21 6q5.4-.6 7.5 1 1.3 3-2.5 2h-2l-4.5-1.5 1.5-1.5zm17 0h10l.5 3-3.5-1-11.5-.5 4.5-1.5zm24 7q3.8-1 2.5 2l-2.5-2zm13 0l5.5 1-.5 3H113q-1.5-3.8 1.5-3l2 1 3-2z"/><path fill="#55827E" stroke="#55827E" d="M49.5 6q2.6-.8 1.5 2.5l3 2-2 .5q-1.1 2.7 1.5 2v1L50 12.5l-2-5L49.5 6zm8 4l1.5 4-2-.5 1-2-.5-1.5zm45 0l7.5.5-2.5 3.5-1.5-.5 1-2.5h-4.5v-1zm-2 1l.5 3 3 .5-2.5.5q-2.5-1-1-4zm-38 6l1.5.5-2 .5q1.3 3.3-3.5 2v-1l4-2zm3 0l2.5.5-2.5.5v-1zm8 0l1.5.5-5.5 1.5v-1l4-1zm13 0l6.5.5-6.5.5v-1z"/><path fill="#55827E" stroke="#55827E" d="M47.5 19l8.5.5-8.5.5-1.5 1.5 9.5.5 7 2 1-3H67q-1.1 2.7 1.5 2l5 1 1-3H79q-1.7 4.5 3.5 3l4 1 7-2q1.8 2.8 8 1 3.5-3.2 10.5-2 1.4-4-5.5-2v-1q6-1.5 7.5 1.5l-.5 2.5h-7l-8 3-1-1h-9q-1.2 2.3-6 1l-1-1q-10.1 1.6-16-1-1.5 2.5-7 1-3.7-3.3-12-2L45 21.5l2.5-2.5z"/><path fill="#55827E" stroke="#55827E" d="M97.5 19l7.5 1.5-4.5 1.5-3-3zm-11 1q3.8-.7 4.5 1.5l-3.5.5-1-2zm25 22l.5 3.5-1.5 2.5-.5-3.5 1.5-2.5zm-43 19l-1 2-5.5 3.5 2.5 3.5 6-1 3 2 5-2 3 1q2.7-2.8 9-2l4 2 5.5-2-3-4.5 1.5.5 2.5 1.5q1.5 4.4-1.5 3.5-2.7 2.8-9 2l-3 2h-12L70 74l-1.5-3q-7.2 1.3-8.5-3.5l1-3.5 7.5-3zM75 77q7.2-1.5 10 2.5L83.5 83l-4 1-3.5-2.5-1-4.5zm2 2l2 3q4 1 3-1-1-3-5-2zm-17.5 53l-.5 1.5q.8 2.3-1.5 1.5l2-3zm7 0l3.5.5-3.5.5v-1zm44 1q2.8-.6 1.5 5.5l-4.5 5.5-3.5-.5 5-2 2-5-3-2 2.5-1.5zm-59 2l3 2 1.5 2.5-2 3 3 1-3.5 1.5-5.5-5.5V137l3.5-2zm.5 3v3l3-1q1-4-3-2zm6.5 6l11.5 1.5-5.5.5q-1.2-2.2-6-1v-1zm38 0l5.5.5-5.5.5v-1zm-24 1l4.5.5-4.5.5v-1zm17 0l5.5.5-5.5.5v-1zm-11 1l2.5.5-2.5.5v-1z"/><path fill="#1AA5A1" stroke="#1AA5A1" d="M84.5 89q6.6.9 9.5 5.5l-3 .5 1.5 3q3.8 1.3 2.5-2.5l3 2 2 3-1.5-.5-10 3-7-3q-1.2 3.3-7 2-1.2-2.2-6-1L65 98.5l1.5-3.5 6-4 .5 3 3-1.5-1-2 3-.5v5h1.5l3-5 2-1zm-3 42l16 1 4.5-1-.5 2-2-1-6 2-1-1-11-1v-1z"/><path fill="#1A1B18" stroke="#1A1B18" d="M118 0l4 .5-1 2.5-3-1.5V0zM50.5 1L60 4.5l-4 3 3 1-4.5.5L53 6l3-1.5Q54.3 2.3 49.5 3q-3.7 1.3-2.5 7.5l2 6-6 4 1 5-1 1v14q2.7 3.3 2 10l1.5 1.5q2.3-.7 1.5 1.5-2.3 1.3-1 6l4 6 1 24-1 1v10l-3 3q.9 8.9-3 13v17l-1 2 8 13q-2.8 1.1-2 4.5l5-1 2.5-4 9-1v1l-8.5 3q1.1 2.7-1.5 2l-1 1H48q-1-5.2 2-7.5l-6-7-1-7 1-1v-17l3-6v-7l3-5v-28l-3-5-3-10v-6l-3-7v-15l1-3v-2l1.5-2.5 3.5-1.5-2-9L48.5 2l2-1zm53 1h8l1.5 1.5 1 6-1 3.5q3.3-1.3 2 3.5l4 6v18q-3.9 4.1-3 13l-3 4v7l-3 5-1 11 1 1v14l5 15 2 13-1 1V141l-3 1.5q-2.6 1.4-2 6l1 3-1 2.5-5.5 1-3-3-12.5-4.5 5.5-.5 12 7q3-.5 2.5-4.5l-1-4 6-7v-20l-2-4-1-10-3-7-1-20 1-1v-8l3-5q-1-8.5 3-12v-6l3-10v-8q-2.2-1.3-1-6l-3.5-4.5-1.5-.5v-7l1-3-2.5-3.5-5.5 1.5q2.7 1.1 2 4.5-7.1-1.7-9 2.5V16H86.5v-1h9l1.5-1.5Q95.1 8.1 98.5 9l6.5-1q1.1-2.7-1.5-2L102 3.5l1.5-1.5z"/><path fill="#1A1B18" stroke="#1A1B18" d="M60.5 9l2.5 1.5-1 3 .5 1.5q-3.4.9-1.5-4.5L60.5 9zm-22 5q2.3-.7 1.5 1.5L38.5 14zm27 1l8.5.5-8.5.5v-1zM45 26q5.6-2.2 4 3.5L46.5 31Q44 29.8 45 26zm7 29q3.7-1.4 2 4.5 3.6 1.9 3 8l4.5 4.5 4 1 6.5 5.5 1 6-9.5 8.5-4.5 2-2.5 6q-2.6.8-1.5-2.5l-1-3 2-8v-12l-1-1v-8L53.5 65q-3.4.9-1.5-4.5l1-3-1-2.5zm4 15l3 14v3l-3 6 1 2 13-9 1-6-2-2-3-4h-3l-7-4zm47-3q4-1.4 2 5.5l-1 1v16l1 1V101q-3.3 1.3-2-3.5l-15-12q-.4-8.9 5.5-11.5l9.5-5.5V67zm-1 4l-8 5-3 3-1 6q5 6 13 8-2-4-1-12l-1-1 2-5q1-5-1-4z"/><path fill="#1A1B18" stroke="#1A1B18" d="M64 78q3-1 2 2-3 1-2-2zm42 25l3 1.5-1.5 2.5-1.5-4zm-55.5 21l.5 4q-3 1.3-2-2.5l1.5-1.5zm70 5l.5 2.5h-1l.5-2.5zM49 130l3 1.5-1.5 2.5H49v-4zm23.5 18l7.5.5-7.5.5v-1z"/><path fill="#2F4843" stroke="#2F4843" d="M49.5 3q4.8-.7 6.5 1.5L53 6l1 2.5-2 .5q2.1-5.2-2.5-4Q47 6 48 10.5l2.5 4.5 5 1 4.5-2.5q1.7-4.8-2.5-3.5V9l3.5 1.5q-2.2 6.3 3.5 4.5v1l-8 3-4-2-6 2-2.5 2.5 1 2.5q7.6-.9 12.5 2l39.5.5-1.5 1.5-33 1h-2q-6-1.5-7.5 1.5l1 4-2 7 1 1v8l2.5 3.5q4.8.3 6.5 3.5l1 3q-3.6 1.8-4 7l4.5 4.5h3l6.5 5.5 4 7-16 12-2 10q4.8 1.4 4 6.5l-5.5 1-4.5 3.5v12l2 3-9 4 6.5 9.5 7-1 6.5 1.5q-8.2-.7-11 4 .8 2.3-1.5 1.5l-3.5 1 2-5.5-6-7-2-6 1-1v-17q3.9-4.1 3-13l3-3 1-21-1-1v-13q-4.9-2.6-4-11l1-2.5-3-1.5q.7-6.7-2-10v-14l1-2-1-4 6-4-2-6v-5L49.5 3zM45 26q-1 4 2 5l2-1q2-6-4-4zm7 29l1 3-1 3q-2 5 2 4l1 2v8l1 1v12l-2 8 1 3q-1 3 2 2l2-6 5-2 9-8-1-6-6-6-4-1-5-4q1-7-3-8 2-6-2-5zm-2 2l-1 3h1v-3zm-1 55v4l2-1q1-4-2-3zm-1 6q-3 3-2 10l2-1v-9zm3 6l-2 2q-1 3 2 2v-4zm-2 6v4h2l1-2-3-2z"/><path fill="#2F4843" stroke="#2F4843" d="M108.5 3l3.5 1.5 1 4-1 1V17l4 2.5 2 8v8l-3 10v6l-3 6v6l-3 5-1 23 2 10 2 3 1 10 2 4v10h-1v-8l-2-3-1.5-9.5-3 4-6.5-15.5-3.5-3.5-4-1-7.5-7.5 1-8 1.5-1.5 13.5-6.5v-5l3-3q-1-5.5 2.5-6.5 2.3 1.8 1.5 6.5-4.9 3.1-3 13h1l1-6 3-6v-6l3-6 1-17-1.5.5q-4.4 1.5-3.5-1.5-2.7-1.1-2-4.5l-4.5 2-2.5-1.5 5-.5 1.5-3h7.5v-3.5q-2-3.5-8.5-2.5-1.5 2.5-7 1L92 16.5l6-.5q-1.2-5.5 2.5-7h6.5V6.5L105.5 4l3-1zm.5 2v4q-2 2-8 1l-2 2 1 4 9-1 2-2V6l-2-1zm-6 62v2l-9 5q-6 3-6 12l15 12q-1 4 2 3V91l-1-1V74l1-1q2-7-2-6zm5 31l-2 3 2 1v-4zm-2 5l2 4 1-2-3-2zM74.5 15l11.5.5-11.5.5v-1zm-7 1l5.5.5-5.5.5v-1zm-2 42l.5 2-2-.5 1.5-1.5zm45 67l.5 2.5-1 4.5q-3 1.3-2-2.5l2.5-4.5zm4 6l.5 7.5-6 7v3l1 3q-1.7 4.3-3.5 1.5l-4-3h-3l-6.5-3.5 14.5-1.5 4.5-4.5q2.8-3.2 2.5-9.5zm-9.5 17v3l3 1q2-6-3-4zm-37.5-1l22.5.5-22.5.5v-1z"/><path fill="#046D6D" stroke="#046D6D" d="M96.5 27q5.8-.8 7.5 2.5l3.5 4.5q2.3-.7 1.5 1.5l2 5q-1.2 2.8-2.5.5l-5-3-1.5 6-3.5 1h-2q-9.6-1.4-13.5 1l1 3.5-3 1.5q-1.1 2.7 1.5 2l6.5 4.5-3.5 1.5L75 56l-1.5 3-9 3-5-7-5.5-2.5-2-13 2-6-1-3 1.5-1.5q5.5 1.5 7-1l1 1h11l1-1h21l1-1zm2.5 2l-1 1H76l-5 2 7 2h2l9 2 1 4 5 1 1-3 4-3q4-1 3 2h2l-2-5q0-4-4-3zM66 58l-2 2h2v-2z"/><path fill="#046D6D" stroke="#046D6D" d="M90.5 49q5.8-2.1 4.5 2.5 1.7 4 8 2.5l1-5q5.6-1.9 4 3l-4 2.5-1.5 3.5-4-1-3.5 1-2.5-5-3.5-2.5 1.5-1.5zm11 11l.5 1.5-1.5 2.5-1.5-3 2.5-1zm-16 23l8 9q5.6.5 7.5 4.5l4 8 1 6 2 2-1.5 4.5-2.5-1.5 1 9-1 2.5-6.5 3h-8l-4-1-1 1-26 1-4 3 .5-1.5-2-3v-12l4.5-3.5 5.5-1q.8-5.1-4-6.5v-3l1-3.5 2.5-1 5 4q7.2.8 11 5l14 1 4-1 2 1 4.5-3.5q-.7-8.2-6.5-11.5-6.1-1.4-9-6h-6l-3 1-4-1-11 8 4-5 10-7q6.3 1.8 8-1zm22 44l.5 4.5-4 1.5 3.5-6z"/><path fill="#050606" stroke="#050606" d="M26 0h2v5h-2V0zm13 0h5v1.5L40.5 3 39 0zm11.5 0q3.8-.8 4.5 1.5l-1.5.5-3-1-3 2 1-2 2-1zM61 0q3.8-1.5 3 1.5L62 5l-2.5 1-1-3-2.5-.5 5-.5V0zm25 0h4v1.5L86 3V0zm30 0q2.7-1.1 2 1.5l3 1.5 1.5-3 2 1 4.5-1q1.5 5.4-1.5 7l-6-3-2.5 1.5 3 1.5-1.5 3-1.5.5 2 1-1.5.5-5.5-3.5-1-4h1q-.7 2.3 1.5 1.5l1.5-3.5-1-2.5zM69.5 2L74 3q2.3 6.4-5.5 4L67 4.5 69.5 2zm31 0l2.5.5-1.5 2.5-1-3zm-22 1L81 4.5q.8 2.3-1.5 1.5-1.2 2.3-2.5-.5L78.5 3zm15 0Q99.3.9 98 5.5l-5 3V11h-5q.7-5.4 5.5-8zm-54 3L41 9q-3.8 1.5-3-1.5L39.5 6zm6 0L45 7.5l1 3h-1l-1-3L45.5 6zm12 0l-1 2 1-2zM33 7q3-1 2 2-3 1-2-2zm26.5 1L64 9l-.5 2-4-2V8zm-33 1Q31 8 32 10.5L30.5 13H25v-2.5L26.5 9z"/><path fill="#050606" stroke="#050606" d="M76 9h8.5l1.5 1.5-4.5.5h-2q-4.8 1.3-3.5-2zm20.5 0l.5 3.5h-1l.5-3.5zm27 0q6.3-2.2 4.5 3.5l-4 1.5-.5-4-1.5.5 1.5-1.5zm-85 3l3.5 1.5-1.5 3.5-4.5 1q-1-4.7 2.5-6zm.5 2l1 2q1-3-1-2zm6.5-2l1.5 4.5-2.5 1.5v-1q2.3.8 1.5-1.5l-.5-3.5zm70 2l.5 2.5h-1l.5-2.5zm5 1l1.5 2.5-2 1 1-2-.5-1.5zm-78 3l-.5 1.5-1 2 1 3-1 1v15l3 7v6l3 9h-1l-3-7v-8l-3-5v-21l2.5-3.5zm75 0l1.5 3.5h-1l-.5-3.5zm8 4l2.5 1.5-1.5 2.5q-2.2-.7-1.5 1.5l-2 1 2.5-6.5zm-6 4l.5 15.5-3 6v6l-3.5 6.5-.5-2.5 3-4q-.9-8.9 3-13l.5-14.5zM33 38l2 .5v9l-2-1V38zm87.5 17l.5 5q-2.7-1.1-2 1.5l-2 1v-3l3.5-4.5zM38 58q2.7-1.1 2 1.5 2.3 1.3 1 6l2.5 2.5 3.5 1.5-1 4.5-6-3.5L38 58zm75.5 4l1.5 9.5-2-1q.7-2.6-2-1.5l-.5 2-.5-1.5 3.5-7.5zm-83 1q2.5 1 1.5 5.5-1.5 3-3 0-1-4.5 1.5-5.5z"/><path fill="#050606" stroke="#050606" d="M47.5 64l2.5 5.5h-1q-3-1.8-1.5-5.5zm9 6l6 4H66l2.5 4 2.5 1.5-1 6.5-13.5 9-.5-2.5 3-6v-3q-2.5-1.5-1-7l-2-3 2 1 2 13-1 3.5q3.7 1.5 3-1.5l2.5-3.5q3.8.8 4.5-1.5l1-5.5q-4.1-1.3-3 2h-4v-4q3 1 2-2h-3.5l-5-5zm7.5 8q-1 3 2 2 1-3-2-2zm37.5-7q3-.9 1.5 3.5l-2 5 1 1q-1.2 8.9 1 12.5-8.5-1.7-13-8.5l1-6 2.5-2.5 8-5zm.5 1l-2 1-2 3v2l-1 3 2 6 2-1q1-5-1-6-1-5 2-5v-3zm-7 5l-2 2q-1 3 2 2l2-3-2-1zm31.5-5h1.5v5q-4.5 1.8-3-3.5l1.5-1.5zm-9 1l3.5 1.5V77h-5l1.5-4zm-3 3l.5 4q-2.7 1.1-2-1.5l1.5-2.5zm-5 2l.5 2.5h-1l.5-2.5zm-64 5l.5 2.5h-1l.5-2.5zm4 11l.5 2.5-3.5 6.5q-2.2-.7-1.5-4.5l4-3 .5-1.5zm61 0l2.5 8.5h-1l-1.5-8.5zm17 1l.5 1.5-1.5 2.5-.5-2.5 1.5-1.5zM26 101q2.7-1.1 2 1.5l1 2-1 2.5-3-1.5 1-4.5zm15.5 2l.5 2-2-.5 1.5-1.5zm-8 1l.5 2.5h-1l.5-2.5zm13 3l.5 1.5-2.5 5.5-.5-2.5 2.5-4.5zm69 4l.5 4.5h-1l.5-4.5zm-72 5l.5 15.5-2 1 1-1 .5-15.5zm73 1l.5 3.5h-1l.5-3.5zM38 119l2 .5v8l-2 1V119zm82.5 0l1.5 5-3-1.5 1.5-3.5zm-4 5l.5 16.5-3.5 2.5 1-2 1.5-.5.5-16.5zm9 0l2.5 1.5q1.9 6.3-3 4.5l-1-4.5 1.5-1.5zm-6.5 3l4 1.5q1.5 6-1.5 7.5-2.2.8-1.5-1.5l-1-1V127zm2 2l-1 3h1v-3zm-95-1q3-1 2 2-3 1-2-2zm5.5 4q2.6-.8 1.5 2.5l-2.5 5.5q-2.2.8-1.5-1.5l-1-3 1-2.5 2.5-1zm94 2l2.5 1.5v1.5h-4l1.5-3zm-83 2l1.5 2.5h-1l-.5-2.5zm77.5 2q3-1 2 2-3 1-2-2zm-82.5 2q4.6-1.2 2.5 4l-2.5 1q-5-2.5 0-5zm7 0l4 5-3.5-2.5-.5-2.5zm-15 3H32v5.5q-1.2 3.3-5 2.5-.7-5.3 2.5-8zm13 3l6.5 2 .5-2 .5 1.5q-3.2 1.4-2 6.5l9.5-1v1l-9 1-2.5-3.5 1-2-3-1.5q1.5 3.8-1.5 3l-1.5-3.5 1.5-1.5zm22 2l7.5.5-7.5.5v-1zm16 0l13.5.5-13.5.5v-1zm-18 1l-1 2-1.5-.5 2.5-1.5zm33 0l1 2-1-2zM35 150q6-2 4 4-6 2-4-4zm51.5 1l4.5 1-.5 2h-10l-2.5-1.5 8.5-1.5zm-20 1q5.8-1.7 4.5 2-4.7 1-4.5-2zm36 0q3.5 1.3 2.5 6l6 1.5-8 .5-1-4.5 1-2-.5-1.5zm9 0l.5 1.5-2.5 1.5v-1q2.5.7 2-2z"/></svg>