<svg xmlns="http://www.w3.org/2000/svg" role="img" viewBox="-4.14 -4.14 215.28 178.03"><title>Video Multi-Method Assessment Fusion (VMAF) logo</title><g transform="translate(-6.667 -9.414)"><path fill="#a5d1f6" d="M26.99737 165.16666c-2.86195-7.79166-6.05926-16.50603-7.10511-19.36526l-1.90156-5.1986 4.10383.1986 4.10382.1986 4.84888 12.8925c2.66688 7.09087 4.97313 13.01674 5.12499 13.1686.15186.15186 2.51201-5.64976 5.2448-12.8925L46.3857 141l3.80715-.19994c2.78274-.14614 3.80645.0333 3.80454.66667-.0026.85013-12.92164 35.99867-13.68631 37.23594-.21437.34686-2.12685.63066-4.24996.63066h-3.86019zM68.66667 160v-19.33334h7.24493l5.12551 7.16667c2.81903 3.94167 5.33196 7.3947 5.58427 7.67341.25232.2787 2.84073-2.93261 5.75202-7.13625l5.29326-7.64298 3.83334-.0304 3.83333-.0304v38.66662h-7.30454L97.84773 166.5l-.18107-12.83334-5 7.14184c-2.75 3.92801-5.3 7.15041-5.66666 7.16089-.36667.0105-2.91667-3.1994-5.66667-7.13305l-5-7.15211-.18106 12.82455-.18106 12.82455H68.66666zm50.66666 18.94924c0-.24624 3.12133-7.83555 6.93628-16.86514 3.81496-9.02959 7.39965-17.54244 7.96599-18.91744 1.02393-2.48599 1.05136-2.49992 4.89705-2.48661l3.86735.0134 7.83333 18.83344c4.30833 10.3584 7.83333 19.05237 7.83333 19.31995 0 .26757-1.76824.4865-3.92943.4865h-3.92944l-1.66598-4.16667-1.66599-4.16666-8.32628-.186-8.32628-.186-1.672 4.186-1.672 4.186-4.07296.19847c-2.24014.10917-4.07297-.003-4.07297-.24923zm22.52949-21.11591c-1.10426-2.65833-2.23773-5.08093-2.51883-5.38355-.41528-.44707-4.67733 8.51672-4.67733 9.8372 0 .20883 2.07088.37968 4.60195.37968h4.60194zm30.80384 2.19993v-19.3666H202V148h-21.33334v7.28142l5.83334.19262 5.83333.19262v6.66667l-5.81302.19232-5.81302.19233-.18698 8.14101L180.33333 179l-3.83333.19993-3.83334.19994zM101 125.31325c-30.53477-2.17427-58.54819-15.07769-79.03523-36.40487-8.36022-8.70306-15.2981-18.4929-15.2981-21.5867 0-2.04897 5.13954-9.67684 11.6876-17.3462 15.61203-18.28546 41.00726-32.84841 66.1449-37.93096 13.86805-2.80396 26.49279-3.34558 40.17158-1.72343 33.85763 4.01512 63.7783 20.91098 83.02593 46.88378 7.03072 9.48727 7.54822 11.74173 3.32974 14.50579-2.56934 1.68349-5.05659.34282-7.91548-4.2666-10.56129-17.028-30.83622-32.9707-52.18124-41.03144-6.09827-2.30295-18.79683-5.50093-23.9297-6.0264l-4-.40949 4.35048 1.55951C144.69517 27.75378 157.55574 41.63022 162.07159 59c1.8485 7.1101 1.99288 18.78738.31186 25.22413-4.27289 16.36123-13.85001 28.4686-28.24369 35.7056-9.66133 4.85762-19.06716 6.38559-33.13976 5.38352zm-33.0548-20.38566c-16.13341-21.31518-14.73217-50.34882 3.3377-69.15717 6.89341-7.17513 14.04442-11.74934 22.69814-14.51908 4.9866-1.59603 2.26821-1.54369-6.36624.1226-26.06707 5.03042-50.34701 19.63025-65.71528 39.51543-2.5114 3.24952-4.56619 6.19971-4.56619 6.55598 0 .82978 3.68356 6.20267 6.30837 9.20148 10.7889 12.32616 20.12547 19.75868 33.7141 26.8386 5.00203 2.60615 12.13527 5.68448 13.4508 5.80466.26031.0238-1.02732-1.93934-2.8614-4.3625zm24.9649 2.35735c2.10131-1.6529 2.38347-5.07647.5899-7.15764-3.22801-3.74562-9.1-1.46208-9.1 3.53886 0 4.50807 4.79005 6.54497 8.5101 3.61878zM79.79886 92.99917c3.18927-2.23385 2.3014-7.56699-1.5004-9.01243-3.14174-1.19449-6.96514 1.41725-6.96514 4.75785 0 4.11319 5.04644 6.64941 8.46554 4.25458zm65.37705-3.74146c.1106-1.00023-.61054-2.523-1.94199-4.10075l-2.11792-2.5097-2.44697 4.5097-2.44697 4.5097 3.05563.36423c3.6097.43027 5.65009-.52907 5.89822-2.77318zM76.61828 72.9101c4.13309-5.25437-2.9139-11.34175-7.64858-6.60706-1.9998 1.9998-2.08756 4.2769-.25465 6.60706 1.95194 2.48149 5.9513 2.48149 7.90323 0zm6.14694-18.1188c3.82068-3.91137 7.90145-9.1777 7.90145-10.19698 0-4.10724-3.79412-6.58866-7.62606-4.98758-2.4593 1.02756-8.16018 7.64279-8.80686 10.21935-1.31134 5.22478 4.80234 8.78287 8.53147 4.96522zm61.4782-.17301c3.46432-2.72504 1.7354-7.56742-4.80275-13.45161-3.36241-3.0261-6.03594-3.29867-8.47098-.86364-2.72351 2.72352-2.17473 4.55382 3.1253 10.42351 5.24718 5.81117 6.90168 6.44564 10.14843 3.89174zm-25.57676-15.95161c1.74016-1.74016 1.76897-5.56437.0548-7.27852-2.54889-2.5489-14.39433-2.61312-17.5042-.0949-1.88104 1.52317-2.01134 5.391-.24729 7.34026 1.10823 1.22458 2.02214 1.3665 8.8 1.3665 6.67445 0 7.72004-.15671 8.89667-1.33334z"/><path fill="#66b1f7" d="M25.5 160.80165c-3.75833-10.22217-6.83333-18.9493-6.83333-19.39364 0-.56038 1.14402-.74663 3.7342-.60795L26.13508 141l4.60816 12.33333c2.5345 6.78333 4.76116 12.75127 4.94816 13.26208.18699.51082.5063.76244.70957.55917.20327-.20327 2.55147-6.17121 5.21821-13.26208L46.46781 141l3.7661-.19994c2.76009-.14653 3.75752.0316 3.734.66667-.01766.47663-3.1139 9.1166-6.88055 19.19993L40.23891 179l-3.95279.1937-3.95279.1937zM68.66666 160v-19.33334h7.22791l5.47222 7.71383c3.00972 4.24261 5.69685 7.46761 5.9714 7.16667.27455-.30094 2.80566-3.77216 5.6247-7.71383l5.1255-7.16667h7.24494V179.33333H98.02818l-.18076-12.95798-.18076-12.95798-5 7.07039c-2.75 3.88871-5.3 7.15906-5.66666 7.26743-.36667.10837-2.99167-3.1558-5.83334-7.2537L76 153.05075v26.28258h-7.33334zm50.66667 19.07734c0-.14079 3.58008-8.76579 7.95573-19.16666L135.24478 141h7.63704l7.56171 18c4.15894 9.9 7.73075 18.525 7.93735 19.16666.32901 1.02188-.11332 1.16667-3.56418 1.16667h-3.9398l-1.63185-4.16667L147.61321 171l-8.39006-.18597-8.39006-.18596-1.84989 4.35263-1.84989 4.35263h-3.89999c-2.145 0-3.89999-.1152-3.89999-.25599zm24.44479-16.69397c-1.52581-3.97618-4.63042-11.08127-4.77065-10.9179-.74832.87184-4.78683 11.19962-4.49395 11.4925.20645.20645 2.45746.37536 5.00225.37536 3.73055 0 4.55626-.18403 4.26235-.94996zM172.66666 160v-19.33334H202V148h-22.06968l.2015 3.5.20151 3.5 5.83333.19262 5.83334.19262V162.61475l-5.83334.19262-5.83333.19263-.18719 8.16666-.18718 8.16667h-7.2923zm-76-35.35805c-20.63853-2.50098-39.13791-9.25853-55.8938-20.41717C29.20531 96.52134 16.6547 83.94122 9.7989 73.17804c-3.79867-5.96368-3.78821-6.10998.94207-13.18183 7.59584-11.3559 20.99313-24.00638 33.95176-32.05918C66.0426 14.66973 94.55472 7.75361 119.1255 9.88208c29.23783 2.53275 52.76863 12.48994 74.11042 31.36024 9.17577 8.11317 20.09741 22.48436 20.09741 26.4451 0 2.79184-1.8971 4.46893-4.74285 4.1928-2.31604-.22473-2.64197-.57434-9.25715-9.9298-3.66766-5.18696-13.52029-15.21968-19.18257-19.5332-14.57668-11.10453-32.07527-18.60368-50.81743-21.77821-9.17428-1.55393-14.81556-1.73044-7.91618-.24768 17.79611 3.82458 33.23549 17.45044 38.8372 34.27533 3.88815 11.67815 4.03958 22.64569.46707 33.82859-5.38785 16.86546-18.93632 29.92723-36.17409 34.87463-5.65989 1.62445-19.69024 2.26459-27.88067 1.27207zM70.56406 107.5c-13.85324-14.59338-17.31037-38.88217-8.25484-57.9961 7.26281-15.32995 20.54811-25.79334 37.02411-29.15986 7.33156-1.49804.66373-1.20706-8.74978.38184-15.4669 2.61066-31.75533 9.07449-45.00295 17.85878-10.38923 6.88894-28.26285 25.42638-28.24086 29.2897.0098 1.72088 6.34239 9.79911 12.66026 16.1502 9.89185 9.94384 22.43559 18.31718 35.37766 23.6157 7.27567 2.97868 8.12534 2.9557 5.1864-.14026zm21.87232.54599c4.84384-2.95357 2.7676-9.96945-2.96669-10.02479-5.73972-.05539-7.53907 7.59963-2.4697 10.50692 1.88945 1.0836 3.03527.98198 5.43639-.48213zM79.28565 93.69132C81.41633 92.58951 82 91.47072 82 88.48844c0-5.1008-6.27109-7.06895-9.66647-3.03376-2.1659 2.57401-1.90691 5.41534.70293 7.71198 1.98309 1.7451 3.62288 1.88278 6.2492.52466zm65.91015-4.4433c.10769-.8804-.35281-2.19637-1.02333-2.92438-.67052-.728-1.6985-2.01524-2.2844-2.86052l-1.06526-1.53687-.76741 2.20354c-.42207 1.21195-1.50721 3.3221-2.4114 4.68925-.9042 1.36714-1.644 2.6257-1.644 2.7968 0 .6982 6.43024.6881 7.66666-.01206.73334-.41526 1.42145-1.47535 1.52914-2.35576zm-68.47785-15.8634c1.17478-1.17479 1.94871-2.65138 1.94871-3.71795C78.66666 67.15087 75.3421 64 72.68764 64c-4.78474 0-7.1766 6.23832-3.71795 9.69697 2.29372 2.29372 5.26184 2.17406 7.74826-.31236zM85.42745 52.5c4.31307-4.49619 6.14265-7.719 5.46658-9.6294-.90865-2.56767-3.07332-4.20393-5.56153-4.20393-2.0731 0-2.98867.558-6.15903 3.75371-2.04816 2.06455-4.24395 4.71933-4.87953 5.89952-2.12963 3.9545.37237 8.34677 4.75463 8.34677 2.05101 0 2.93715-.57883 6.37888-4.16667zm59.73921 1.77106c2.85526-3.1955 1.93079-5.80912-4.38949-12.40982-3.24984-3.39404-5.54932-4.29507-8.29609-3.25075-2.17052.82523-4.05264 4.25535-3.42317 6.23863.57347 1.80685 8.83286 10.99883 10.23965 11.39583 1.91316.5399 4.35751-.28218 5.8691-1.9739zM117.54382 39.8911c3.51553-1.87238 4.08113-5.31662 1.39691-8.50662-1.71454-2.03762-1.76971-2.05115-8.36643-2.05115-6.89456 0-9.99738.86832-10.82685 3.02987-.88995 2.3192-.38809 5.05677 1.22224 6.6671 1.5216 1.5216 2.10916 1.63637 8.37717 1.63637 3.84592 0 7.36615-.33307 8.19696-.77557z"/><path fill="#5cb2f9" d="M25.5 160.80165c-3.75833-10.22217-6.83333-18.9493-6.83333-19.39364 0-.56038 1.14402-.74663 3.7342-.60795L26.13508 141l4.60816 12.33333c2.5345 6.78333 4.76116 12.75127 4.94816 13.26208.18699.51082.5063.76244.70957.55917.20327-.20327 2.55147-6.17121 5.21821-13.26208L46.46781 141l3.7661-.19994c2.76009-.14653 3.75752.0316 3.734.66667-.01766.47663-3.1139 9.1166-6.88055 19.19993L40.23891 179l-3.95279.1937-3.95279.1937zM68.66666 160v-19.33334h7.22791l5.47222 7.71383c3.00972 4.24261 5.69685 7.46761 5.9714 7.16667.27455-.30094 2.80566-3.77216 5.6247-7.71383l5.1255-7.16667h7.24494V179.33333H98.02818l-.18076-12.95798-.18076-12.95798-5 7.07039c-2.75 3.88871-5.3 7.15906-5.66666 7.26743-.36667.10837-2.99167-3.1558-5.83334-7.2537L76 153.05075v26.28258h-7.33334zm50.66667 19.07734c0-.14079 3.58008-8.76579 7.95573-19.16666L135.24478 141h7.63704l7.56171 18c4.15894 9.9 7.73075 18.525 7.93735 19.16666.32901 1.02188-.11332 1.16667-3.56418 1.16667h-3.9398l-1.63185-4.16667L147.61321 171l-8.39006-.18597-8.39006-.18596-1.84989 4.35263-1.84989 4.35263h-3.89999c-2.145 0-3.89999-.1152-3.89999-.25599zm24.44479-16.69397c-1.52581-3.97618-4.63042-11.08127-4.77065-10.9179-.74832.87184-4.78683 11.19962-4.49395 11.4925.20645.20645 2.45746.37536 5.00225.37536 3.73055 0 4.55626-.18403 4.26235-.94996zM172.66666 160v-19.33334H202V148h-22.06968l.2015 3.5.20151 3.5 5.83333.19262 5.83334.19262V162.61475l-5.83334.19262-5.83333.19263-.18719 8.16666-.18718 8.16667h-7.2923zm-71.60001-36.10785c.49378-.79895 12.93335-.5866 12.93335.22078 0 .34736-2.92135.56878-6.65535.50445-3.82965-.066-6.49513-.3739-6.278-.72523zm-9.73332-1.2054c2.227-.74005 4.66667-.81568 4.66667-.14466 0 .29815-1.425.57729-3.16667.6203-2.50955.062-2.82082-.0367-1.5-.47564zm29-.0201c-.22661-.36665-.99432-.66665-1.70601-.66665s-1.29399-.3-1.29399-.66667.4323-.66667.96066-.66667c.52836 0 1.14606.3 1.37267.66667.22662.36667 1.31203.66667 2.41203.66667 1.16357 0 1.82768.27881 1.58797.66666-.22661.36667-.97661.66667-1.66666.66667-.69006 0-1.44006-.3-1.66667-.66667zm-38.94444-.90621c.15278-.13175 1.17778-.44087 2.27778-.68692 1.4606-.32672 1.7303-.26486 1 .22934-.90025.60921-3.94677 1.0345-3.27778.45758zm44.27777-.42712c.22662-.36667.84432-.66667 1.37268-.66667.52836 0 .96066.3.96066.66667 0 .36668-.61771.66668-1.37268.66668-.75497 0-1.18727-.3-.96066-.66667zm-39.01907-1.09779c-1.2162-.32994-2.97693-2.90221-1.98657-2.90221.36977 0 .67231.31448.67231.69885s.975 1.12262 2.16667 1.64057c2.00754.87256 1.5072 1.20291-.85241.56279zm6.3524-.90221c.22662-.36667.99433-.66667 1.70602-.66667.7117 0 1.29399.3 1.29399.66667s-.7677.66667-1.70601.66667c-.96758 0-1.52767-.28856-1.294-.66667zM128 118.96065c0-.57164.30489-.85091.67754-.6206.37265.23031.50494.69802.29399 1.03935-.5715.92469-.97153.75227-.97153-.41875zm-55.33334-.29399c0-.36666.5823-.66666 1.294-.66666.71169 0 1.4794.3 1.706.66666.23369.37811-.3264.66667-1.29398.66667-.93831 0-1.70601-.3-1.70601-.66667zm59.86667-.13333c.62222-.62222.97778-.62222 1.6 0 .62222.62222.44444.8-.8.8s-1.42222-.17778-.8-.8zm-62.65833-.98874c.48125-.19258 1.05625-.1689 1.27778.0526.22152.22153-.17223.37909-.875.35015-.77663-.032-.9346-.18996-.40278-.40278zm8 0c.48125-.19258 1.05625-.1689 1.27778.0526.22152.22153-.17223.37909-.875.35015-.77663-.032-.9346-.18996-.40278-.40278zm10.79166-.21126c0-.78248.51242-.78248 2.33334 0 1.1815.50771 1.12456.57829-.5.61981-1.00834.0258-1.83334-.25314-1.83334-.61981zm28.66667.11546c0-.30316.9-.41911 2-.25766 1.1.16144 2 .40948 2 .5512s-.9.25767-2 .25767-2-.24805-2-.55121zM129 117.33333c-1.08694-.46707-1.12501-.58161-.20601-.61981.62002-.0258 1.31273.25314 1.53934.61981.47378.76659.45061.76659-1.33333 0zm8.69513-.6206c-.21095-.34133-.0787-.80904.29399-1.03935.37265-.2303.67754.049.67754.62061 0 1.17101-.40003 1.34343-.97153.41874zm-70.04646-.74185c-.21671-.35065.22368-.63755.97865-.63755 1.60971 0 1.7721.37074.39403.89956-.53826.20655-1.15596.0886-1.37268-.26201zm54.68466-.63755c.22661-.36667.69432-.66667 1.03935-.66667.34502 0 .62732.3.62732.66667s-.46771.66667-1.03935.66667c-.57164 0-.85393-.3-.62732-.66667zm-49.66666-.67261L71 114.23524l1.55024-.51183c1.61556-.53339 2.42308-.22224 2.0192.77802-.12986.32162-.9861.3933-1.90277.15929zm12.66666.006c0-.36672.6177-.66672 1.37268-.66672.75497 0 1.18727.3.96065.66666-.2266.36667-.84431.66667-1.37267.66667s-.96066-.3-.96066-.66667zm33.33333 0c0-.36666.45-.66666 1-.66666s1 .3 1 .66666c0 .36667-.45.66667-1 .66667s-1-.3-1-.66667zm8.36181-.6206c-.21096-.34133-.0787-.80903.29399-1.03934.37264-.23031.67754.049.67754.6206 0 1.17102-.40004 1.34344-.97153.41874zm3.30486-.71273c.22661-.36667.69432-.66667 1.03935-.66667.34502 0 .62732.3.62732.66667 0 .36661-.46771.66661-1.03935.66661-.57164 0-.85393-.3-.62732-.66667zm7.29409-.31213c-1.09842-.8308-1.12847-.982-.19875-1 .60244-.0117 1.26802.4288 1.47908.9788.47671 1.24228.33714 1.24459-1.28033.0212zm4.37258.34987c0-.68572 2.62453-2.70447 3.51602-2.70447.30397 0-.25659.75-1.24569 1.66667-1.97988 1.83489-2.27033 1.96766-2.27033 1.0378zm-85.66667-.70447c-.22661-.36666.03798-.66666.58798-.66666.55 0 1.18541.3 1.41202.66666.22661.36667-.03798.66667-.58797.66667-.55 0-1.18542-.3-1.41203-.66667zm9-.66666c0-.36667.4323-.66667.96066-.66667.52836 0 1.14606.3 1.37268.66667.2266.36666-.20569.66666-.96066.66666-.75497 0-1.37268-.3-1.37268-.66666zm57.0037-.66258c-.66569-.73558-.90059-1.33742-.52199-1.33742.83883 0 2.5016 1.90557 2.05365 2.35353-.17672.17672-.86597-.28053-1.53166-1.01611zm-69.1287-.4595c.48125-.19258 1.05625-.1689 1.27778.0526.22153.22153-.17222.3791-.875.35015-.77663-.032-.9346-.18996-.40278-.40278zM58 110.74442c0-.3239-.675-.79409-1.5-1.04487-.99992-.30394-1.20273-.57713-.60833-.81942.49041-.19991 1.22541-.0297 1.63333.3782.40792.40792 1.29937.74167 1.98101.74167s1.05393.3.82732.66666c-.50902.82362-2.33333.88441-2.33333.0778zm30.66667-.1171c0-.38831.3-.5206.66666-.29399.36667.22661.66667.54432.66667.70601 0 .1617-.3.29399-.66667.29399s-.66667-.3177-.66667-.70601zm40.99999.0393c.22662-.36666 1.12662-.66666 2-.66666.87339 0 1.77339-.3 2-.66667.22662-.36667.73478-.66667 1.12925-.66667.39448 0-.0455.6-.97783 1.33334-1.73267 1.36292-4.89565 1.87085-4.15142.66666zm-61.19758-.73575c.5273-.52729 1.0845-.53304 1.96667-.0203 1.07908.62722.98832.71798-.73575.73575-1.43422.0148-1.76747-.17892-1.23092-.71548zm17.55022.0951c-.53938-.34112-.80713-.79377-.595-1.0059.21213-.21214.76518.0716 1.229.63041.96172 1.15882.77732 1.26803-.634.37549zm39.0355-1.41582c-1.54943-1.8414-1.82456-3.83131-.40874-2.95629.30467.18829.55394-.73054.55394-2.04186 0-1.50452.51655-2.93405 1.4-3.87444.77-.81963 1.40459-1.9209 1.41021-2.44727.008-.7574.12464-.77662.55884-.09214.43147.68019.74963.61726 1.48979-.29464.80233-.98848.80304-1.07628.005-.59521-.65056.39207-.78452.31865-.43891-.24056.27359-.44267.8419-.69004 1.2629-.5497.71138.23713 3.55898-2.6934 3.02168-3.10967-.37042-.28699-20.48558-1.748-24.02073-1.74469-3.20833.003-7.99605-1.70005-11.2071-3.98652-1.0076-.71748-2.02314-1.11337-2.25675-.87975-.23362.2336-.42475-.10395-.42475-.75012 0-.64618-.55928-1.97118-1.24284-2.94445-1.76991-2.52005-3.03932-6.40604-2.52793-7.73868.35145-.91588.85792-1.0328 2.60355-.60105 5.45709 1.34971 9.21636-.1224 10.95819-4.2912 1.56315-3.74114.79723-7.34086-2.13339-10.02657-1.35138-1.23845-2.27011-2.62491-2.07547-3.13213.57093-1.48781 5.6978-2.49888 10.61373-2.09312 5.29919.43738 7.87787 1.8109 11.83076 6.30162 2.35436 2.6747 3.03862 3.07712 4.95196 2.91227 1.22106-.1052 2.43798.16124 2.70426.5921.32992.5338.0859.65927-.766.39383-.68759-.21425-1.65035-.13811-2.13947.16919-.66785.41958.65598 2.5652 5.31596 8.61588 3.77358 4.89975 6.39067 7.7572 6.67836 7.29171.26019-.421.67935-2.96664.93145-5.65697.57234-6.10767 1.65187-7.5844 6.03823-8.25994L151 66.07798l-3.44442.19114c-2.88553.16013-3.2989.04563-2.54762-.70566.49324-.49324 1.50411-.8968 2.24638-.8968 2.05763 0 4.83573 1.47036 4.48837 2.37555-.16984.4426.14324 1.45009.69573 2.23887.75922 1.08395.95043 2.8774.78304 7.34452-.12182 3.2507-.44648 5.77206-.72148 5.60303-.275-.16903-.5.46038-.5 1.39869 0 .9383-.31771 1.70601-.70601 1.70601-.38831 0-.55366.24651-.36746.5478.18621.3013-.0993 1.39172-.63439 2.42317-.67843 1.30767-.76552 2.12531-.28771 2.70104.74341.89576.22306 2.99466-.74243 2.99466-.32743 0-.60104-.375-.608-.83334-.007-.45833-.88996.56345-1.9622 2.27063-1.07223 1.70717-2.25343 3.29178-2.62488 3.52135-.37145.22956-.50166.87005-.28935 1.4233.24261.63224.0461.93387-.52912.81199-.50332-.10666-.84012.18107-.74845.6394.0917.45833-.20834.75833-.66667.66667-.45833-.0917-.75833.20833-.66667.66666.0917.45834-.0583.79781-.33333.75439-1.42715-.22534-2.08402.18526-1.73818 1.08651.25508.66473.0778.89036-.52093.66311-.49915-.18944-1.78907.41562-2.86649 1.3446-2.85652 2.46297-4.88475 2.76914-7.79262 1.17634-1.58319-.86719-2.35554-1.04442-2.1435-.49186.18231.4751.75828 1.0276 1.27993 1.22778.52165.20017.94846.67337.94846 1.05154 0 1.26416-1.19829.70723-2.9452-1.36885zm20.141-19.3622c.10769-.8804-.35281-2.19637-1.02333-2.92438-.67052-.728-1.6985-2.01524-2.2844-2.86052l-1.06526-1.53687-.76741 2.20354c-.42207 1.21195-1.50721 3.3221-2.4114 4.68925-.9042 1.36714-1.644 2.6257-1.644 2.7968 0 .6982 6.43024.6881 7.66666-.01206.73334-.41526 1.42145-1.47535 1.52914-2.35576zM73.50664 108.968c-.52526-.57025-.58431-1.04732-.16196-1.30835.3656-.22596.84968.0711 1.07572.66018.5508 1.43538.10355 1.75263-.91376.64817zM92 109.33333c0-.36667.6177-.66667 1.37268-.66667.75497 0 1.18726.3.96065.66667-.22661.36667-.84432.66667-1.37268.66667-.52836 0-.96065-.3-.96065-.66667zm-26.66667-.66667c0-.36666.2823-.66666.62732-.66666.34503 0 .81274.3 1.03935.66666.22661.36667-.05568.66667-.62732.66667s-1.03935-.3-1.03935-.66667zm-16.99328-.67754c.23031-.37265.69802-.50494 1.03935-.29399.9247.5715.75227.97153-.41875.97153-.57164 0-.8509-.30489-.6206-.67754zm90.33682.42066c-.0131-.75965 3.19433-3.74312 4.02414-3.74312.34778 0 .63232-.27457.63232-.61015 0-.33559.8896-1.4498 1.97689-2.47602 1.5032-1.41878 1.88072-2.24902 1.57555-3.46492-.39812-1.58623-.38725-1.58981 1.35645-.4473 1.56579 1.02594 2.6603 2.9682 1.14486 2.03161-.78179-.48317-2.72042 1.42743-2.72042 2.68107 0 .52381-.55184.95238-1.22632.95238-.67448 0-1.55619.72398-1.95936 1.60884-.40317.88487-1.42633 1.8253-2.27368 2.08986-.84735.26455-1.76104.81557-2.03043 1.22449-.26938.40891-.49438.47788-.5.15326zm10.05785-.0764c.0564-1.46671 1.05563-3.21189 1.46225-2.55396.23484.37997-.004 1.26006-.53046 1.95575-.52659.69568-.9459.96488-.93179.59821zm-53.23327-2.66667c.0074-1.46666.14393-1.98817.30339-1.15889s.1534 2.02927-.01345 2.66667c-.16686.63739-.29733-.0411-.28993-1.50778zm25.16521 1.66667c0-.36667.31771-.66667.70602-.66667.3883 0 .5206.3.29398.66667-.22661.36662-.54431.66662-.70601.66662-.16169 0-.29399-.3-.29399-.66667zm-64.125-.45541c.48126-.19258 1.05626-.1689 1.27778.0526.22153.22153-.17222.3791-.875.35015-.77662-.032-.9346-.18996-.40277-.40278zM146 107.08163c0-.13844.45-.62517 1-1.08163.819-.67972 1-.63416 1 .2517 0 .5949-.45 1.08163-1 1.08163s-1-.11327-1-.2517zM46.66667 106c1.30558-.84373 2.18812-.84373 1.66666 0-.22661.36666-.91932.66207-1.53934.65646-.97152-.009-.98912-.0995-.12732-.65646zm23.67036-.67076c1.36012-1.50291 1.90395-1.39961 1.274.24201-.2312.60248-.88475 1.09541-1.45235 1.09541-.87229 0-.84468-.20698.17835-1.33742zm8.9963.0434c0-1.60971.37074-1.77211.89956-.39403.20655.53825.08864 1.15596-.262 1.37268-.35066.21671-.63756-.22368-.63756-.97865zm2.96296-1.00231c-.25099-1.3379-.28968-2.59921-.08598-2.80291.2037-.20371.57573.72427.82672 2.06217.251 1.33789.28968 2.5992.08598 2.80291-.2037.2037-.57572-.72427-.82672-2.06217zm-25.31698.92948c-.6123-.99073-.12534-1.34147.9445-.68027.57316.35423.64134.6978.19343.97463-.38048.23514-.89255.10268-1.13793-.29436zm61.5068.29737c-.26736-.26732-.48611-.94607-.48611-1.50829 0-.7504.19722-.825.74166-.28056.40792.40792.62667 1.08667.48612 1.50833-.14056.42167-.47431.54792-.74167.28056zM121.14016 104c.19178-.73334.46369-1.33334.60426-1.33334.14057 0 .25558.6.25558 1.33334 0 .73333-.27192 1.33333-.60426 1.33333s-.44735-.6-.25558-1.33333zm-69.2735-.8c.62223-.62222.97778-.62222 1.6 0 .62223.62222.44445.8-.8.8-1.24444 0-1.42222-.17778-.8-.8zm100.03102.47546c-.49139-.49139.89319-3.66288 1.60232-3.67026.275-.003.5-.6052.5-1.33854 0-.73333.3-1.33333.66666-1.33333 1.1032 0 .75146 2.32424-.56569 3.73803-.67779.72753-1.35904 1.70285-1.51389 2.16738-.15484.46452-.46507.66105-.6894.43672zm-28.2102-1.20421c-.28538-.65749-.33181-1.38249-.10318-1.61112.677-.67699 1.22273.27397.91113 1.58769-.27623 1.16463-.31217 1.16567-.80795.0234zM38 101.66666c-.67972-.819-.63416-1 .2517-1 .5949 0 1.08163.45 1.08163 1s-.11326 1-.2517 1c-.13844 0-.62517-.45-1.08163-1zm10 0c.45646-.55 1.3182-.99045 1.91496-.97879.91155.0178.87812.1777-.20905 1-1.68436 1.27398-2.76963 1.26049-1.70591-.0212zm19.33333.41203c0-.36667.3-.85208.66667-1.07869.36666-.22662.66666-.11203.66666.25464s-.3.85208-.66666 1.07869c-.36667.22661-.66667.11202-.66667-.25464zm3.69514-.69929c-.21096-.34133-.07866-.80904.29399-1.03935.37264-.23031.67754.049.67754.6206 0 1.17102-.40004 1.34344-.97153.41875zm8.3575-1.10162c.03198-.77663.18995-.9346.40277-.40278.19258.48125.1689 1.05625-.05263 1.27778-.22153.22152-.3791-.17223-.35015-.875zm39.28069.59354c0-1.09684 1.57447-2.20466 3.13334-2.20466 1.80142 0 2.05076 1.02905.36666 1.51328-.64166.1845-1.69166.55159-2.33333.81575-.64167.26416-1.16667.2082-1.16667-.12437zm-76-1.20466c0-.55.3-1 .66667-1s.66667.45.66667 1-.3 1-.66667 1c-.36666 0-.66666-.45-.66666-1zm30-.706c0-.57165.3049-.85092.67755-.6206.37264.2303.50494.698.29398 1.03934-.57149.92469-.97152.75227-.97152-.41875zM84 98.66665c-.8546-.55228-.83037-.64773.16666-.65645.64167-.0056 1.16667.28979 1.16667.65645 0 .81308-.07519.81308-1.33333 0zm-48.22806-1.03395c.2039-.53132.63861-.96605.96605-.96605.95842 0 .68378 1.15675-.3707 1.5614-.64569.24776-.84312.05033-.59535-.59535zm88.88135.01784c-.46381-.55886-.66348-1.19592-.44371-1.41569.6827-.6827 2.45708.33616 2.45708 1.41088 0 1.30574-.93184 1.30797-2.01337.0048zm-92.60066.25898c-.02895-.23308.3485-1.19696.83876-2.14194.6775-1.3059 1.0774-1.53213 1.66666-.94287 1.13895 1.13894.94716 1.84194-.5025 1.84194-.70277 0-1.42909.375-1.61403.83334-.18494.45833-.35994.64262-.38889.40953zM67.09225 97c-.21106-.55-.09315-1 .262-1 .35516 0 .64575.45.64575 1s-.1179 1-.262 1c-.14411 0-.4347-.45-.64575-1zM86 97.33333c-.8546-.55228-.83037-.64773.16667-.65646.64166-.0056 1.16666.2898 1.16666.65646 0 .81307-.07519.81307-1.33333 0zm5 0c.22661-.36667.69432-.66667 1.03934-.66667.34503 0 .62733.3.62733.66667S92.19896 98 91.62732 98c-.57164 0-.85393-.3-.62732-.66667zm-20.33334-.5063c0-.91026 2.57704-2.17807 3.00844-1.48005.22197.35916-.06412.65302-.63576.65302S72 96.3 72 96.66666c0 .36667-.3.66667-.66667.66667s-.66667-.22784-.66667-.5063zm10 .12535c0-.20953.43088-.81183.9575-1.33845.99372-.99372 1.9676-.36584 1.16518.75123-.5183.72155-2.12268 1.16538-2.12268.58722zM41.33333 96c0-.36667.4323-.66667.96066-.66667.52836 0 1.14606.3 1.37268.66667.2266.36666-.20569.66666-.96066.66666-.75497 0-1.37268-.3-1.37268-.66666zm22.3762-.19542c.25035-.65748.62312-1.02748.82838-.82222.20526.20525.00043.7432-.45519 1.19541-.6584.65352-.73498.57694-.3732-.3732zM117.33333 96c0-.36667.2823-.66667.62732-.66667.34503 0 .81273.3 1.03935.66667.22661.36666-.0557.66666-.62732.66666-.57164 0-1.03935-.3-1.03935-.66666zm37.5099.22844c-.63188-.2555-.58677-.7906.19391-2.30028.55954-1.08202.83738-2.2585.61742-2.6144-.21995-.3559-.0472-.6471.38385-.6471.51296 0 .61513.51828.29569 1.5-.26844.825-.52843 2.175-.57776 3-.0493.825-.0897 1.47632-.0897 1.44737 0-.02895-.37054-.20246-.82343-.38559zM30 95.294c0-.38831.27438-.53644.60973-.32918.33535.20725.76166-.00004.94736-.46066.2037-.50524.35853-.37465.39028.32918C31.97632 95.475 31.55 96 31 96s-1-.3177-1-.70601zm9.10528-.32794c.20389-.53133.6386-.96605.96605-.96605.95841 0 .68377 1.15674-.37071 1.56139-.64568.24777-.84311.05034-.59534-.59534zm30.22805-.0054c0-.57164.3049-.85091.67754-.6206.37265.2303.50495.698.294 1.03934-.5715.9247-.97154.75227-.97154-.41874zm6.31534.40179c.21672-.35065.83442-.46856 1.37268-.262 1.37807.5288 1.21568.89955-.39403.89955-.75497 0-1.19537-.2869-.97865-.63755zm23.55966.18214c.48125-.19258 1.05625-.1689 1.27778.05263s-.17222.3791-.875.35015c-.77663-.032-.9346-.18996-.40278-.40278zm48.125-.2506c0-.3883.3-.5206.66667-.29399.36666.22661.66666.54432.66666.70601 0 .1617-.3.29399-.66666.29399-.36667 0-.66667-.3177-.66667-.70601zM152 95.33333c0-.36667.3-.66667.66666-.66667.36667 0 .66667.3.66667.66667s-.3.66667-.66667.66667C152.3 96 152 95.7 152 95.33333zm-67.22807-2c0-.91667.15131-1.29167.33626-.83333.18494.45833.18494 1.20833 0 1.66666-.18495.45834-.33626.08333-.33626-.83333zm30.39473.89181c.45834-.18494 1.20834-.18494 1.66667 0 .45833.18495.0833.33626-.83333.33626-.91667 0-1.29167-.15132-.83334-.33626zm13.66636-.3918c.15261-.45834.84306-.94294 1.53433-1.0769 1.0874-.21072 1.13636-.09836.36313.83333-1.05747 1.27417-2.29344 1.43282-1.89746.24356zm-92.49969-1.91589c-2.4369-2.3345-2.01999-2.47886.91194-.31575 1.19404.88093 1.92733 1.74345 1.62952 1.9167-.2978.17326-1.44146-.54717-2.54146-1.60095zm34.38597 1.027c.03199-.77664.18996-.9346.40277-.40279.19259.48125.1689 1.05625-.05263 1.27778-.22152.22153-.37909-.17222-.35014-.875zm30.74231.07624c-1.10149-.60759-1.27914-.94806-.62554-1.19887.50206-.19266 1.64433.21195 2.53838.89912 1.86827 1.43597.52781 1.64602-1.91284.29975zM124 93.33333c-1.41585-.45343-1.24028-.54376 1.16666-.60021 1.55834-.03655 2.83334.23354 2.83334.60021 0 .76834-1.60085.76834-4 0zm-41.598-1.22222c-.18884-.30556.08025-.55556.598-.55556.51774 0 .78684.25.598.55556-.18885.30555-.45795.55555-.598.55555-.14006 0-.40915-.25-.598-.55555zM105.66666 92c-.25394-.41089.88197-.66667 2.96066-.66667 1.85497 0 3.37268.3 3.37268.66667 0 .36666-1.3323.66666-2.96066.66666-1.62836 0-3.14606-.3-3.37268-.66666zm12.16667.22514c.45833-.18494 1.20833-.18494 1.66667 0 .45833.18495.0833.33626-.83334.33626-.91666 0-1.29166-.15132-.83333-.33626zM25.75891 91c-.21105-.55-.12524-1 .19069-1s.7471.45.95815 1c.21105.55.12525 1-.19068 1s-.7471-.45-.95816-1zm37.57442-1.37268c0-.9383.27184-1.538.60408-1.33267.33225.20534.44726.97304.25558 1.70601-.4797 1.83437-.85966 1.66935-.85966-.37334zM159.4386 90c0-.91667.15132-1.29167.33626-.83334.18494.45834.18494 1.20834 0 1.66667-.18494.45833-.33626.08333-.33626-.83333zm-127.38596.206c-.07605-1.14725 1.10374-1.69835 1.67098-.78054.28752.46523.19448.6026-.23033.34006-.392-.24228-.86467-.06362-1.05038.397-.24166.59942-.3526.61178-.39027.0435zm28.82365-.706c-.22836-.64167-.52384-1.37094-.65662-1.6206-.13278-.24967.02988-.6216.36146-.82653.33158-.20493.73452.52434.89542 1.6206.32527 2.21621.03605 2.61446-.60026.82653zm90.6871.13791c-.21712-.56581-.24581-1.17771-.0637-1.35977.18206-.18207.49103.28087.68661 1.02875.41543 1.58862-.0462 1.83393-.62287.33102zm-82.62792-1.80458c.23108-1.19167.46513-2.55707.52011-3.03423.11132-.96595 3.63269-4.13244 4.59558-4.13244.33853 0 .61551.45.61551 1s-.56581 1-1.25737 1c-1.36658 0-3.4093 3.55548-3.4093 5.93409C70 89.37034 69.66596 90 69.25768 90c-.47925 0-.59344-.7679-.3222-2.16667zm-47.4223-1.21285c-.05333-.70793.1844-1.28715.52827-1.28715.75892 0 .83617 1.79095.09696 2.2478-.29055.17958-.5719-.25272-.62523-.96065zm60.88933.31936c-.22375-.5831-.23002-1.34623-.01393-1.69587.2161-.34964.14207-1.01171-.1645-1.47126-.30657-.45956-.03239-.26318.60927.43639C84.05607 85.54217 84.4265 88 83.40466 88c-.32744 0-.77841-.47708-1.00216-1.06016zM154 87.18786C154 85.58684 154.72157 84 155.44958 84c.35381 0 .43751.6711.18708 1.5C155.02915 87.51078 154 88.57213 154 87.18786zM62.12996 85c.0136-1.1.163-1.4693.33203-.82065.16903.64865.15792 1.54865-.0247 2-.18261.45136-.32091-.07935-.30732-1.17935zm-2.69136-.33334c0-.91666.15131-1.29166.33625-.83333s.18494 1.20833 0 1.66667c-.18494.45833-.33625.08333-.33625-.83334zm-40.43188-.01087c.2303-.37265.69801-.50494 1.03934-.29399.9247.5715.75228.97153-.41874.97153-.57164 0-.8509-.3049-.6206-.67754zm4.05899-.39163c-.23425-.61044-.83692-.90545-1.40466-.68759-1.06384.40823-1.28336-.15545-.48417-1.24324.29431-.4006 1.2045.06501 2.2806 1.16667 1.04639 1.07123 1.42245 1.83333.90466 1.83333-.48738 0-1.07078-.48113-1.29643-1.06917zm4.58508-.0102c.59365-.59365 1.24512-.9136 1.44771-.71102.59347.59347-.42188 1.79039-1.5188 1.79039-.87065 0-.86094-.14733.0711-1.07937zm57.73517.02381c.032-.77663.18996-.9346.40278-.40278.19258.48125.1689 1.05625-.05263 1.27778s-.3791-.17222-.35014-.875zm5.2807.34955c0-.38831.3-.5206.66667-.294.36667.22662.66667.54432.66667.70602 0 .1617-.3.29399-.66667.29399-.36666 0-.66666-.3177-.66666-.70601zm67.66667.03934c.22661-.36667.54432-.66667.70601-.66667s.29399.3.29399.66667c0 .36666-.31771.66666-.70601.66666-.38831 0-.5206-.3-.29399-.66666zm-65.66666-2.33333c0-.55.1179-1 .262-1s.4347.45.64574 1c.21106.55.09315 1-.262 1-.35516 0-.64575-.45-.64575-1zm62.66666 0c0-.55.29058-1 .64574-1s.47307.45.26201 1c-.21105.55-.50164 1-.64574 1-.14411 0-.26201-.45-.26201-1zm6.18158-1.66667c0-1.65.13001-2.325.28891-1.5.1589.825.1589 2.175 0 3-.1589.825-.28891.15-.28891-1.5zm-95.2529.94548c.22256-.57999.40465-1.17999.40465-1.33333 0-.15335.45-.27881 1-.27881 1.20547 0 1.2888.77786.2 1.86666-1.13922 1.13923-2.0821.98967-1.60465-.25452zm22.91743-.2497c-.46079-1.64075-.18515-2.59037.5411-1.86413.21295.21296.2818 1.08796.15299 1.94444L89.63933 83zm-28.50367-1.75133c.01162-2.48145.66712-4.94444 1.31591-4.94444.51305 0-.38788 5.95175-.99245 6.55631-.1829.18292-.32847-.54243-.32346-1.61187zm16.15756-.04496c-1.54989-.63966-.84583-1.65615 1-1.44377 1.00833.11602 1.77418.51095 1.70188.87762-.1531.7765-1.50556 1.05989-2.70188.56615zm62.88278-1.0972c-.2986-1.0254-.35688-2.0504-.12951-2.27778.74623-.74622 1.18508.31863.92641 2.24788l-.25399 1.89428zm-126.00627.26757c-.20287-.32825.06415-.76297.59337-.96605.64185-.2463.8388-.04759.59151.59681-.42973 1.11988-.67393 1.19598-1.18488.36924zM19.15621 78.5c-.52172-1.35958-.51902-1.83334.01045-1.83334.275 0 .5046.225.51021.5.0056.275.24832.875.53935 1.33334.29102.45833.24353.83333-.10555.83333s-.77859-.375-.95447-.83333zm2.17712.3594c0-.38288.525-1.10788 1.16667-1.6111 1.07917-.84635 1.09332-.81497.18864.41836-.5379.73334-1.0629 1.45834-1.16666 1.61112-.10376.15277-.18865-.0355-.18865-.41838zm36.80587-7.12723c-.0059-4.87292.2187-7.57392.58206-7 .7244 1.14416.70774 7.8596-.02961 11.9345-.4185 2.31276-.54506 1.18238-.55246-4.9345zM64 77.66667c0-.99381.28706-1.56795.66666-1.33334.36667.22661.66667.82661.66667 1.33333s-.3 1.10672-.66667 1.33334c-.3796.2346-.66666-.33953-.66666-1.33334zM154 75c0-2.38333.28125-4.33333.625-4.33333s.625 1.95.625 4.33333-.28125 4.33333-.625 4.33333S154 77.38333 154 75zm5.43859 1c0-.91667.15132-1.29167.33626-.83333.18494.45833.18494 1.20833 0 1.66666-.18494.45834-.33626.08333-.33626-.83333zm-91.4386-.66667c0-.36667.46771-.66667 1.03935-.66667.57164 0 .85394.3.62733.66667C69.44005 75.7 68.97235 76 68.62732 76 68.28229 76 68 75.7 68 75.33333zm68.69595-.29806c-.5979-.72042-.6031-1.2964-.0215-2.38309.42182-.78817.94764-1.25235 1.16849-1.0315s.0465.75654-.38735 1.19043c-1.10165 1.10165-.98439 1.71905.37778 1.98898.76396.15139.90509.39585.40887.7082-.41679.26237-1.1126.0495-1.54626-.47302zm-119.60516-.69811c.21025-.5479.65572-.82716.98995-.6206.69906.43204.13788 1.61677-.76582 1.61677-.33352 0-.43438-.44828-.22413-.99617zm65.24927-.34804c.23031-.37264.69802-.50494 1.03935-.29399.9247.5715.75227.97153-.41875.97153-.57164 0-.8509-.30489-.6206-.67754zm2.99328-.02847c0-.3883.3-.5206.66667-.29399.36667.22662.66667.54432.66667.70602 0 .16169-.3.29398-.66667.29398s-.66667-.3177-.66667-.706zM64 72.294c0-.57164.3049-.85091.67754-.6206.37265.2303.50494.69801.29399 1.03934-.5715.9247-.97153.75227-.97153-.41874zm24.41-.60387c-1.20577-1.84024-1.38677-3.41978-.45766-3.994.34045-.2104.71545.26625.83333 1.05924.11788.79299.81433 1.77244 1.54766 2.17655.73333.40412 1.47465.82607 1.64736.93767.34344.22192-1.38763 1.43707-2.07068 1.45354-.23283.0056-.90783-.72923-1.5-1.633zm5.96258.622c-1.26467-.95654-1.26088-.97879.16667-.97879.854 0 1.46075.41537 1.46075 1 0 1.20637-.0045 1.2063-1.62742-.0212zM12.66667 72c0-.36667.4677-.66667 1.03934-.66667.57164 0 .85393.3.62732.66667-.2266.36667-.69432.66667-1.03934.66667-.34503 0-.62732-.3-.62732-.66667zm4.66666.06952c-1.357-.37799-1.45896-.54407-.54874-.89392.63248-.2431 1.46403-.01265 1.91496.5307.43837.5282.6853.93046.54875.89391-.13657-.03655-.9983-.27536-1.91497-.5307zm84.15715-.20764C101.79755 70.35971 104 69.29016 104 70.64321c0 .35377-.60428.96661-1.34285 1.36188-1.03203.55233-1.30207.51918-1.16667-.14321zm36.89232-.3067c-.23458-.6113-.11668-1.4213.26201-1.8.47358-.47358.68852-.1266.68852 1.11149 0 2.05656-.333 2.29777-.95053.68852zM9.25 71.66668c-.04583-.18334-.12083-.64428-.16667-1.02432C9.0375 70.2623 8.55 69.6669 8 69.31922c-.8036-.50798-.7054-.63414.5-.64235.825-.0056 1.5.26526 1.5.60194 0 .33667.1821 1.08667.40466 1.66666.22256.58.07256 1.05453-.33333 1.05453-.4059 0-.7755-.15-.82133-.33333zM80.13333 71.2c-.44-.44-.8-1.465-.8-2.27778 0-.81278-.375-1.6291-.83333-1.81404-.52362-.21128-.55396-.35581-.08163-.38888 1.02157-.07153 1.97583 1.24307 2.5024 3.44736.48837 2.04435.37385 2.19463-.78744 1.03334zm125.41622-.7c-.74224-.825-2.3469-3-3.56592-4.83334-12.86642-19.35039-34.81452-34.96342-59.048-42.00448-21.21834-6.165-47.02551-5.86481-67.93563.79023-9.12404 2.9039-21.35658 8.79142-29.66667 14.27858-7.44996 4.91921-22.37324 19.50165-26 25.40617L17 67.93593l-5.16667.03203c-4.05813.02516-5.16666-.17315-5.16666-.92428 0-2.0224 8.5363-13.58208 14.95223-20.24799 14.14322-14.69427 29.44166-24.3153 49.0151-30.82511 34.85376-11.5918 73.22362-7.27519 104.58708 11.76602 13.93699 8.46136 26.37372 20.2571 35.02602 33.2208 3.38151 5.0665 3.94381 8.05985 1.86707 9.93927-1.75654 1.58965-4.95123 1.3966-6.56462-.39667zm-70.83025-.22222c.032-.77663.18996-.9346.40277-.40278.19258.48125.1689 1.05625-.0526 1.27778-.22153.22152-.37909-.17223-.35014-.875zM82 70.03934c0-.34502.3-.81273.66667-1.03934.36666-.22661.66666.05568.66666.62732s-.3 1.03935-.66666 1.03935c-.36667 0-.66667-.2823-.66667-.62733zm58.70269.294c.008-.88205 1.86782-3.31838 2.24482-2.94138.16205.16204-.27818 1.04014-.97828 1.95133-.70011.91119-1.27005 1.3567-1.26654.99004zm-129.36936-1c-.80451-.51993-.69908-.64825.53935-.65647.85838-.0057 1.35707.28471 1.12732.65646-.49546.80167-.42618.80167-1.66667 0zm141.33333-.59535c0-.32744.47454-.77744 1.05453-1 1.63124-.62596 1.79275-.49003.70738.59534-1.13336 1.13336-1.76191 1.27772-1.76191.40466zm-60.5-.90466C92.31945 67.375 92.84444 67 93.33333 67c.48889 0 1.01389.375 1.16667.83333.16524.49573-.30741.83333-1.16667.83333-.85926 0-1.3319-.3376-1.16667-.83333zm40.65472-.5c-.46126-.73858-.54325-1.33333-.18382-1.33333.35687 0 .96997.6 1.36244 1.33333.39247.73333.47518 1.33333.18382 1.33333-.29137 0-.90447-.6-1.36244-1.33333zm26.26195.8015c-.18078-.2925-.0531-.9675.28378-1.5.47819-.7559.61471-.6393.62268.53184.0105 1.54202-.32822 1.90378-.90646.96816zM161.4633 67c.0136-1.1.16299-1.4693.33202-.82065.16903.64865.15792 1.54865-.0247 2-.18261.45136-.32091-.07936-.30732-1.17935zm-97.15738.28898c-.24169-.39106-.29646-.854-.1217-1.02875.17475-.17476.49537.1452.7125.71102.45079 1.17473.06657 1.38137-.5908.31773zm31.7467-1.0112c.032-.77663.18997-.9346.40279-.40278.19258.48125.1689 1.05625-.05263 1.27778-.22153.22152-.3791-.17223-.35015-.875zm4.61404.05556c0-1.07529.61065-1.23548 2.27498-.59682 1.35686.52068.69574 1.59682-.98099 1.59682-.71169 0-1.29399-.45-1.29399-1zm39.63926.28897c-.24169-.39106-.29646-.854-.12171-1.02875.17476-.17475.49538.14521.7125.71102.45079 1.17474.0666 1.38138-.59079.31774zm16.36074-.6223c0-.36667.3-.66667.66667-.66667S158 65.63334 158 66c0 .36667-.3.66667-.66667.66667s-.66667-.3-.66667-.66667zm-74.88274-1.6015c-.3764-.98092.05453-1.73184.99386-1.73184.30555 0 .55555.6.55555 1.33333 0 1.52861-1.01552 1.7898-1.5494.3985zm71.54941.24723c0-.35516.45-.64574 1-.64574s1 .1179 1 .262c0 .14411-.45.4347-1 .64575-.55.21105-1 .09315-1-.262zM67.875 64.21126c.48125-.19258 1.05625-.1689 1.27778.05263.22152.22152-.17223.37909-.875.35014-.77663-.03199-.9346-.18996-.40278-.40278zM76.66667 64c.55-.35544 1.3-.64625 1.66666-.64625.36667 0 .21667.29081-.33333.64625s-1.3.64625-1.66667.64625c-.36666 0-.21666-.29081.33334-.64625zm64.54166.21126c.48125-.19258 1.05625-.1689 1.27778.05263.22153.22152-.17222.37909-.875.35014-.77663-.03199-.9346-.18996-.40278-.40278zM72.17935 63.538c.64865-.16902 1.54865-.1579 2 .0247.45136.18262-.07936.32092-1.17935.30733-1.1-.0136-1.4693-.163-.82065-.33203zm26.65398.0024c1.60305-.41892 1.4632-1.9238-.29311-3.15398-.80288-.56235-1.23657-1.24568-.96375-1.5185.27281-.2728.76722-.05721 1.09868.4791.47997.7766.77118.8066 1.43042.14736.45527-.45527 1.14276-.81822 1.52776-.80656.385.01166.13049.45229-.56559.97917-.96914.73357-1.08998 1.16956-.51586 1.86132.89667 1.08042-.21435 2.51686-1.85188 2.39431-.79355-.05939-.7626-.14808.13333-.38222zm62.55263-.596c.032-.77663.18996-.9346.40278-.40278.19258.48125.1689 1.05625-.0526 1.27778-.22153.22153-.3791-.17222-.35015-.875zM142 62.738c0-.6758 2.03052-1.59637 2.49551-1.13138.16757.16757.10692.62463-.13477 1.0157-.53187.86058-2.36074.9502-2.36074.11567zm-82.66667-2.69866c0-1.12164.3-2.03934.66667-2.03934.36666 0 .66666.7323.66666 1.62732 0 .89503-.3 1.81273-.66666 2.03935-.38895.24038-.66667-.43753-.66667-1.62733zm16 1.37268c0-.36667.3-.85208.66667-1.07869.36667-.22661.66667-.11202.66667.25465 0 .36666-.3.85207-.66667 1.07869-.36667.2266-.66667.11202-.66667-.25465zm5-.07869c-.22661-.36667.05568-.66667.62732-.66667s1.03935.3 1.03935.66667S81.7177 62 81.37268 62c-.34503 0-.81274-.3-1.03935-.66667zm15.7193-.38889c.03199-.77663.18996-.9346.40278-.40278.19258.48125.1689 1.05625-.05263 1.27778s-.3791-.17222-.35015-.875zm7.61403.3889c.22662-.36668.54432-.66668.70602-.66668.16169 0 .29398.3.29398.66667s-.3177.66667-.70601.66667c-.3883 0-.5206-.3-.29399-.66667zm30.66667 0c-.22661-.36668.0557-.66668.62732-.66668.57164 0 1.03935.3 1.03935.66667S135.7177 62 135.37267 62c-.34502 0-.81273-.3-1.03934-.66667zm-7.29047-1.8046c-.36179-.95012-.28521-1.0267.3732-.37319.45561.45223.66044.99016.45519 1.19542-.20526.20526-.57804-.16474-.82839-.82222zM160.12996 59c.0136-1.1.163-1.4693.33203-.82065.16903.64865.15791 1.54865-.0247 2-.18262.45136-.32091-.07935-.30733-1.17935zm-19.78991.32246c.23031-.37265.69802-.50495 1.03935-.294.92469.5715.75227.97154-.41875.97154-.57164 0-.85091-.3049-.6206-.67754zM146 58.94444c0-1.17728 1.43517-.97226 1.84722.2639.14514.4354-.21111.79166-.79167.79166C146.475 60 146 59.525 146 58.94444zm-64.16667-.53914c-1.42277-1.08004-1.4948-1.73863-.19012-1.73863.5371 0 1.29765.6 1.69012 1.33333.81706 1.52669.1977 1.69404-1.5.4053zM76.66666 58c-.60086-.3883-.68308-.65033-.206-.65646.43669-.0056.9794.2898 1.206.65646.51154.82768.28075.82768-1 0zm53 0c.22662-.36667.84432-.66667 1.37268-.66667.52836 0 .96066.3.96066.66667 0 .36666-.61771.66666-1.37268.66666-.75497 0-1.18727-.3-.96066-.66666zm7.64943-.01065c-.79108-.48892-.76436-.65376.16365-1.00987.60997-.23407 1.65156-.31208 2.31465-.17336 1.10795.23178 1.09469.31358-.16365 1.00986-.82713.45768-1.74356.52632-2.31465.17337zm-41.41904-2.53742c-.16006-1.6784.0067-2.52452.46312-2.34938.3923.15054.65013 1.18566.57297 2.30027-.20838 3.00988-.75128 3.0356-1.0361.0491zm47.10004 1.8767c-.50619-.81903 1.32855-1.61809 2.31519-1.0083.39021.24115.53687.71774.32591 1.05907-.50882.8233-2.12004.79232-2.6411-.05077zm-42.9971-1.19938c0-.34796.45001-1.00612 1.00001-1.46258.55-.45646 1-.62177 1-.36735 0 .25442-.45.91258-1 1.46258s-1 .7153-1 .36735zm20.66667-.05056c0-.36667.3-.85208.66667-1.0787.36667-.2266.66667-.11201.66667.25465 0 .36667-.3.85208-.66667 1.0787-.36667.2266-.66667.11201-.66667-.25465zM63.4633 53.66667c.01359-1.1.163-1.4693.33203-.82065.16903.64865.1579 1.54865-.0247 2-.18262.45136-.32092-.07935-.30733-1.17935zm53.87003.62475L115 53.40859l2.81241-.03763c2.23497-.0299 2.73362.16769 2.42867.96237-.21105.55-.42664.9642-.47908.92046-.0524-.04375-1.14534-.47681-2.42867-.96237zm10 .82588c0-.4151 3.2361-3.78397 3.63483-3.78397.95362 0 .17096 1.22618-1.63483 2.56126-1.1.81326-2 1.36348-2 1.22271zm6-.71264c0-.51077.41604-1.08833.92454-1.28346.64859-.24888.82437.02831.58892.92868-.38602 1.4761-1.51346 1.7404-1.51346.35478zm14.30592.21765c-.24169-.39106-.27935-.8711-.0837-1.06676.47754-.47754 1.77778.36389 1.77778 1.15046 0 .85198-1.15094.79512-1.69408-.0837zm-62.97259-.89002c0-1.13242 1.08894-2.00544 1.55063-1.24317.17019.28099-.10908.8977-.6206 1.3705-.76388.70605-.93002.6833-.93002-.12733zm18.54167-.1877c.48125-.19258 1.05625-.1689 1.27778.05263s-.17222.3791-.875.35015c-.77663-.032-.9346-.18996-.40278-.40278zm50.13521-.5684c.0182-1.1477 1.23697-2.6179 1.74719-2.10768.27311.27311-.0106 1.00371-.63042 1.62355-.61984.61984-1.12239.8377-1.11677.48413zm-83.16372-1.59667c.05333-.70793.32158-1.14833.59612-.97865.27454.16967.33016.74889.12362 1.28715-.52082 1.35723-.83507 1.22254-.71974-.3085zm76.763-1.2002c-.63569-2.52795.20894-5.5764 1.82112-6.57278.37374-.23098.1811.54387-.42807 1.72188-.92489 1.78855-.97308 2.46655-.29215 4.11046.52294 1.2625.58507 2.199.17319 2.61087-.41187.41188-.86888-.25902-1.27409-1.87042zM66.01006 50c-.01676-.91667-.29976-2.0921-.62888-2.61207-.3838-.60638-.25977-1.4622.34588-2.38655.51936-.79263.71823-1.6903.44194-1.99481-.27628-.30452-.14944-.35153.28188-.10447.54978.31492.60368 1.07873.1803 2.555-.39478 1.37647-.35953 2.40027.10177 2.9561.4933.5944.4953 1.21196.0067 2.0519-.62322 1.0712-.70236 1.02075-.72954-.4651zm65.3313.015c-.57562-1.07556-.51856-1.24658.30988-.92867.55848.2143 1.01542.80755 1.01542 1.31833 0 1.3022-.49824 1.15572-1.3253-.38966zm25.93075.12214c-1.2852-1.501-2.06531-3.47048-1.37467-3.47048.28725 0 1.02298 1.05 1.63496 2.33334 1.25734 2.63667 1.20805 2.85204-.26029 1.13714zm-5.51186-4.19238c-1.67811-3.63779-.87908-4.14955.85973-.55064 1.55407 3.21656 1.57098 3.27911.88002 3.25534-.275-.0095-1.05789-1.22657-1.73975-2.7047zM68 47.37267c0-.34502.3-.81273.66666-1.03934.36667-.22661.66667.05568.66667.62732S69.03333 48 68.66666 48C68.3 48 68 47.7177 68 47.37267zm4.81944-.16434c.41205-1.23615 1.84722-1.44117 1.84722-.26389 0 .58056-.475 1.05556-1.05555 1.05556-.58056 0-.9368-.35625-.79167-.79167zm21.5692.21448c-.28719-.46467-.34212-1.0249-.12207-1.24495.59664-.59664 1.24718.28087.92493 1.24763-.22582.67745-.38285.67693-.80287-.0027zm54.99732-.47837c.032-.77663.18996-.9346.40278-.40278.19258.48125.1689 1.05625-.0526 1.27778-.22153.22153-.3791-.17222-.35015-.875zm-58.05263-2.27777c0-1.21604.27667-1.9077.66667-1.66667.36667.22661.66667.97661.66667 1.66667 0 .69005-.3 1.44005-.66667 1.66666-.39.24104-.66667-.45063-.66667-1.66666zm-20-.62733c0-.75497.3-1.37267.66667-1.37267s.66667.43229.66667.96065c0 .52836-.3 1.14607-.66667 1.37268-.36667.22661-.66667-.20568-.66667-.96066zm74-.706c0-.36667.31771-.66667.70601-.66667.38831 0 .5206.3.29399.66666-.22661.36667-.54432.66667-.70601.66667-.1617 0-.29399-.3-.29399-.66667zm-76.79166-1.12208c.48124-.19258 1.05624-.1689 1.27777.05263.22153.22152-.17222.37909-.875.35014-.77663-.03199-.9346-.18996-.40278-.40278zM117.33333 42c0-.36667.3-.66667.66667-.66667.36666 0 .66666.3.66666.66667s-.3.66667-.66666.66667c-.36667 0-.66667-.3-.66667-.66667zm5.33333-.33333c0-.55.3-1 .66667-1s.66667.45.66667 1-.3 1-.66667 1-.66667-.45-.66667-1zM91.58898 40.048c-.64183-1.08652-1.39119-1.83692-1.66524-1.66755-.27405.16938-.6739.0238-.88855-.32352-.21465-.34731-.13763-.78762.17115-.97846.30878-.19083 1.51852.66774 2.68831 1.90794 1.1698 1.2402 1.84213 2.4309 1.49409 2.646-.34804.2151-1.15793-.49788-1.79976-1.5844zm36.46365.89643c.032-.77663.18996-.9346.40278-.40277.19258.48125.16889 1.05625-.0526 1.27777-.22152.22153-.37909-.17222-.35014-.875zm13.66406-.3174c-1.26705-1.27731-1.26494-1.2937.16666-1.2937 1.00554 0 1.44998.40868 1.44998 1.33333 0 1.59505.005 1.59517-1.61664-.03962zm9.39442.92851c-.24445-.24444-.44445-.75444-.44445-1.13333 0-.41774.31052-.37837.78889.1.43389.43389.63389.94389.44445 1.13333-.18945.18945-.54445.14445-.78889-.1zm-78.77778-.88888C72.55994 40.3 72.87765 40 73.03934 40c.1617 0 .294.3.294.66667 0 .36666-.31771.66666-.70602.66666-.3883 0-.5206-.3-.29399-.66666zm4.33333.07133c0-.73938 2.05095-1.57594 2.57612-1.05077.2119.2119-.05604.66437-.59542 1.00548-1.24658.78836-1.9807.80514-1.9807.04528zm22.76667-.038c.14667-.44.48417-.7775.75-.75.79714.08247.64276.99686-.21667 1.28334-.44.14667-.68-.09333-.53333-.53333zM74 39.33334C74 38.6 74.115 38 74.25558 38c.14057 0 .41248.6.60425 1.33333.19177.73334.07676 1.33334-.25558 1.33334-.33234 0-.60425-.6-.60425-1.33334zm46 .03935c0-.34503.3-.81273.66666-1.03935.36667-.22661.66667.05568.66667.62732S121.03333 40 120.66666 40C120.3 40 120 39.7177 120 39.37268zm-48.65432-2.58014C72.89408 34.69823 74 34.07134 74 35.28794c0 .3417-.95086 1.29834-2.11302 2.12587l-2.11302 1.5046zM82 38c-.8546-.55228-.83037-.64773.16666-.65646.64167-.0056 1.16667.2898 1.16667.65646 0 .81307-.07519.81307-1.33333 0zm46.23101-.16555c-.28018-.45335.40546-.57162 4.78571-.8255.74253-.04304 1.76304-.3335 2.2678-.64545.60321-.3728 1.21484-.1609 1.78458.61827.48407.66199 1.31313 1.0142 1.87752.79763.55587-.21331 1.14162-.17594 1.30165.08305.16004.25899-2.40869.47138-5.70829.472-3.29959.0006-6.13863-.2244-6.30897-.5zm-41.93693-.8013c-1.24984-.93378-1.2428-.95391.20592-.5889.825.20786 1.5.64294 1.5.96684 0 .79336-.19643.74984-1.70592-.37793zm6.84687-.82674c.38782-1.01063 1.28049-1.14254 1.82037-.269.20534.33225 1.04804.43795 1.87268.2349.82463-.20305 1.31486-.16541 1.0894.08363-.22547.24905-1.46914.53623-2.76371.63818-1.7177.13528-2.26323-.05057-2.01874-.6877zm-13.80762-.24576c0-.3883.3-.5206.66667-.29398.36667.2266.66667.54431.66667.706 0 .1617-.3.294-.66667.294s-.66667-.3177-.66667-.70602zm46.42558-.29398c-.21105-.55-.0931-1 .26201-1 .35516 0 .64574.45.64574 1s-.1179 1-.262 1c-.14411 0-.43469-.45-.64575-1zm14.90775-.08163c0-.88586.181-.93142 1-.2517.55.45645 1 .94319 1 1.08162 0 .13844-.45.2517-1 .2517s-1-.48673-1-1.08162zm4.44445-.02948c-.74748-.74748-.49593-1.55556.48423-1.55556.51077 0 1.10135.45 1.31241 1 .38464 1.00237-.94017 1.41203-1.79664.55556zm-62.44445-1.5949c0-.38831.3-.5206.66667-.294.36667.22662.66667.54432.66667.70602 0 .1617-.3.29399-.66667.29399s-.66667-.3177-.66667-.70602zm10-.31492c0-.5615.46294-1.19857 1.02876-1.41569 1.50696-.57828 1.58602-.05931.19347 1.26995-1.0341.9871-1.22223 1.00953-1.22223.14574zm-5.58033-.63032C87.30063 32.45694 87.89389 32 88.40466 32c1.3022 0 1.15572.49824-.38966 1.3253-1.07556.57563-1.24657.51856-.92867-.30988zm46.247.33884c0-.35516.45-.47307 1-.26201.55.21105 1 .50164 1 .64574s-.45.262-1 .262-1-.29058-1-.64573zm-35.66667-.6876C97.44006 32.3 97.72234 32 98.294 32c.57164 0 1.03934.3 1.03934.66667 0 .36666-.2823.66666-.62732.66666-.34503 0-.81273-.3-1.03935-.66666zm-18.5-.44152c.45834-.18494 1.20834-.18494 1.66667 0 .45833.18495.08333.33626-.83333.33626-.91667 0-1.29167-.15131-.83333-.33626zm41.67983-.938c-.11533-1.53104.19891-1.66573.71973-.3085.20655.53827.15092 1.11748-.12361 1.28716-.27454.16967-.5428-.27072-.59612-.97865zm21.69517.92412c.48125-.19258 1.05625-.1689 1.27778.05263.22153.22152-.17222.37909-.875.35014-.77663-.03199-.9346-.18996-.40278-.40278zm-8.70833-.65278c.45833-.18494 1.20833-.18494 1.66667 0 .45833.18494.0833.33626-.83334.33626-.91666 0-1.29166-.15132-.83333-.33626zm-55.82508-.72515c.0045-.275 1.04073-1.1687 2.30264-1.986 1.70254-1.1027 2.41586-1.27466 2.7653-.66667.259.45064.24057.6121-.04095.3588-.28153-.2533-1.30156.2717-2.26674 1.16667-1.76763 1.63903-2.77548 2.05061-2.76024 1.1272zm19.71514.0012c-.1946-.1946-.19426-.61197.00074-.92749.46683-.75534 2.94253-.74252 2.94253.01523 0 .68495-2.42039 1.43514-2.94327.91226zm-13.27862-1.57557c1.12118-1.12118 1.66022-1.26101 2.64814-.68694 1.16227.67538 1.14839.72207-.22023.74107-.80336.01115-1.64607.32027-1.87268.68694-.22661.36667-.76099.66667-1.1875.66667-.4265 0-.14198-.63348.63227-1.40774zM128 29.92225c0-.41608-.58781-.59071-1.33267-.39592-1.60597.41996-2.54489-.77223-1.25274-1.59066C126.82381 27.0431 128 27.224 128 28.33333c0 .56511.59696 1 1.37268 1 .75497 0 1.18726.3.96065.66667-.55999.90609-2.33333.847-2.33333-.07775zm-9.33334-.58892c-.55-.35544-1.975-.65084-3.16666-.65646-1.19167-.0056-2.16667-.34303-2.16667-.7498 0-.48229.86981-.59857 2.5-.33423 1.375.22296 2.825.45579 3.22222.51738.39723.0616.72223.512.72223 1.00089 0 .48889-.025.8843-.0556.87868-.0306-.0056-.50556-.30102-1.05556-.65646zm-14-1.29142c0-.34607 1.11515-.45267 2.5-.23897 3.46169.53418 3.56767.86373.27778.86373-1.52778 0-2.77778-.28114-2.77778-.62476zm27.66667-.0419c-.22661-.36667.0557-.66667.62732-.66667.57164 0 1.03935.3 1.03935.66666 0 .36667-.2823.66667-.62733.66667-.34502 0-.81273-.3-1.03934-.66667zm5.33333 0c-.22661-.36667-.0943-.66667.29399-.66667.38831 0 .70601.3.70601.66666 0 .36667-.13229.66667-.29399.66667-.16169 0-.47939-.3-.70601-.66667zM96 27.33332c0-.36666.2823-.66666.62732-.66666.34503 0 .81273.3 1.03934.66666.22662.36667-.05568.66667-.62732.66667S96 27.7 96 27.33333zm6.14544-1.43633c.34603-1.03807 1.8375-1.21986 1.88977-.23033.0194.36666-.46518.77031-1.07678.897-.69514.14399-.9999-.10592-.81299-.66667zm18.11944-.2068c-.90422-.66752-1.0608-1.14115-.54913-1.66107.51536-.52367 1.04081-.36812 1.87676.5556 1.41881 1.56777.42244 2.3974-1.32763 1.10546zM134.33333 26c-.22661-.36667-.11202-.66667.25464-.66667.36667 0 .85208.3 1.07869.66667.22662.36667.11203.66667-.25464.66667s-.85208-.3-1.07869-.66667zm-5.94678-.58056c-.19734-.3193-1.26505-.7618-2.37268-.98333-2.00537-.40108-2.84862-1.76944-1.09041-1.76944 1.54216 0 4.7325 1.62964 4.90987 2.50799.18968.93931-.90325 1.12423-1.44678.24478zM91.33333 24c0-.36667.675-.66207 1.5-.65646 1.21296.0083 1.30864.13388.5.65646-1.2925.83528-2 .83528-2 0zm5.33333 0c.55-.35544 1.75-.62094 2.66667-.59L101 23.46623 99.33333 24c-.91667.29357-2.11667.55907-2.66667.59-.88888.05-.88888-.01556 0-.59zm8.93131-2.11115c-.18883-.30554.72438-.55552 2.02935-.55552S110 21.44928 110 21.591c0 .54745-4.07727.82333-4.40203.29785zm12.77038-.27901c-1.17976-.86266-1.03713-.93657 1.67089-.86584 1.62842.04253 2.36076.22724 1.62742.41046-.73333.18321-1.48523.57284-1.67089.86583-.18565.293-.91799.1083-1.62742-.41045zm6.17331-.06525c.48125-.19258 1.05625-.1689 1.27778.05263s-.17222.3791-.875.35014c-.77663-.03199-.9346-.18996-.40278-.40277zm-26.70833-.65278c.45833-.18494 1.20833-.18494 1.66667 0 .45833.18494.08333.33626-.83334.33626-.91666 0-1.29166-.15132-.83333-.33626zm11.34111-.69665c.82927-.15946 2.02927-.1534 2.66666.01345.6374.16686-.0411.29733-1.50777.28993-1.46667-.0074-1.98817-.14392-1.15889-.30339z"/><path fill="#edbb4f" d="M25.5 160.80165c-3.75833-10.22217-6.83333-18.9493-6.83333-19.39364 0-.56038 1.14402-.74663 3.7342-.60795L26.13508 141l4.60816 12.33333c2.5345 6.78333 4.76116 12.75127 4.94816 13.26208.18699.51082.5063.76244.70957.55917.20327-.20327 2.55147-6.17121 5.21821-13.26208L46.46781 141l3.7661-.19994c2.76009-.14653 3.75752.0316 3.734.66667-.01766.47663-3.1139 9.1166-6.88055 19.19993L40.23891 179l-3.95279.1937-3.95279.1937zM68.66666 160v-19.33334h7.22791l5.47222 7.71383c3.00972 4.24261 5.69685 7.46761 5.9714 7.16667.27455-.30094 2.80566-3.77216 5.6247-7.71383l5.1255-7.16667h7.24494V179.33333H98.02818l-.18076-12.95798-.18076-12.95798-5 7.07039c-2.75 3.88871-5.3 7.15906-5.66666 7.26743-.36667.10837-2.99167-3.1558-5.83334-7.2537L76 153.05075v26.28258h-7.33334zm50.66667 19.07734c0-.14079 3.58008-8.76579 7.95573-19.16666L135.24478 141h7.63704l7.56171 18c4.15894 9.9 7.73075 18.525 7.93735 19.16666.32901 1.02188-.11332 1.16667-3.56418 1.16667h-3.9398l-1.63185-4.16667L147.61321 171l-8.39006-.18597-8.39006-.18596-1.84989 4.35263-1.84989 4.35263h-3.89999c-2.145 0-3.89999-.1152-3.89999-.25599zm24.44479-16.69397c-1.52581-3.97618-4.63042-11.08127-4.77065-10.9179-.74832.87184-4.78683 11.19962-4.49395 11.4925.20645.20645 2.45746.37536 5.00225.37536 3.73055 0 4.55626-.18403 4.26235-.94996zM172.66666 160v-19.33334H202V148h-22.06968l.2015 3.5.20151 3.5 5.83333.19262 5.83334.19262V162.61475l-5.83334.19262-5.83333.19263-.18719 8.16666-.18718 8.16667h-7.2923zM127.5 108.0073c-3.2449-1.97845-3.229-6.00073.0352-8.90142C131.79242 95.32272 134 93.1369 134 92.7048c0-.45249-19.35287-2.06546-24.57136-2.0479-2.7709.0093-9.60323-2.72213-12.0953-4.8355-2.09505-1.77666-5.48525-8.74719-5.20647-10.7049.2152-1.51122.44012-1.54225 5.28507-.72925 4.92114.82578 9.25472-3.26456 9.25472-8.73526 0-2.78278-.30842-3.45061-2.69646-5.83865-1.48305-1.48305-2.5485-3.08204-2.36766-3.5533 1.00714-2.62457 13.21449-2.84525 17.31184-.31296 1.93182 1.19393 8.646 7.96191 9.2076 9.28139.11624.2731 2.90065 3.99708 6.18758 8.2755 3.69543 4.81016 6.15922 7.48287 6.45571 7.00315.26371-.4267.68971-3.0193.94666-5.76133.5741-6.12647 2.07557-8.07912 6.21237-8.07912 3.61707 0 5.40903 2.45025 5.40903 7.39611 0 4.19617-1.36379 11.27055-2.17273 11.27055-.31494 0-.42027.24651-.23407.5478.18621.3013-.0961 1.38558-.62732 2.40954-.53123 1.02396-.96588 2.12162-.96588 2.43925 0 1.31299-5.12349 8.4487-8.31192 11.57639-7.49482 7.35203-9.45678 8.17925-13.52141 5.70099zm17.6958-18.75928c.10769-.8804-.35281-2.19637-1.02333-2.92438-.67052-.728-1.6985-2.01524-2.2844-2.86052l-1.06526-1.53687-.76741 2.20354c-.42207 1.21195-1.50721 3.3221-2.4114 4.68925-.9042 1.36714-1.644 2.6257-1.644 2.7968 0 .6982 6.43024.6881 7.66666-.01206.73334-.41526 1.42145-1.47535 1.52914-2.35576zM205.54955 70.5c-.74224-.825-2.3469-3-3.56592-4.83333-12.86642-19.3504-34.81452-34.96343-59.048-42.00449-21.21834-6.165-47.02551-5.86481-67.93563.79023-9.12404 2.9039-21.35658 8.79142-29.66667 14.27858-7.44996 4.91921-22.37324 19.50165-26 25.40617L17 67.93593l-5.16667.03203c-4.05813.02516-5.16666-.17315-5.16666-.92428 0-2.0224 8.5363-13.58208 14.95223-20.24799 14.14322-14.69427 29.44166-24.3153 49.0151-30.82511 34.85376-11.5918 73.22362-7.27519 104.58708 11.76602 13.93699 8.46136 26.37372 20.2571 35.02602 33.2208 3.38151 5.0665 3.94381 8.05985 1.86707 9.93927-1.75654 1.58965-4.95123 1.3966-6.56462-.39667z"/><path fill="#9fa19f" d="M25.5 160.80165c-3.75833-10.22217-6.83333-18.9493-6.83333-19.39364 0-.56038 1.14402-.74663 3.7342-.60795L26.13508 141l4.60816 12.33333c2.5345 6.78333 4.76116 12.75127 4.94816 13.26208.18699.51082.5063.76244.70957.55917.20327-.20327 2.55147-6.17121 5.21821-13.26208L46.46781 141l3.7661-.19994c2.76009-.14653 3.75752.0316 3.734.66667-.01766.47663-3.1139 9.1166-6.88055 19.19993L40.23891 179l-3.95279.1937-3.95279.1937zM68.66666 160v-19.33334h7.22791l5.47222 7.71383c3.00972 4.24261 5.69685 7.46761 5.9714 7.16667.27455-.30094 2.80566-3.77216 5.6247-7.71383l5.1255-7.16667h7.24494V179.33333H98.02818l-.18076-12.95798-.18076-12.95798-5 7.07039c-2.75 3.88871-5.3 7.15906-5.66666 7.26743-.36667.10837-2.99167-3.1558-5.83334-7.2537L76 153.05075v26.28258h-7.33334zm50.66667 19.07734c0-.14079 3.58008-8.76579 7.95573-19.16666L135.24478 141h7.63704l7.56171 18c4.15894 9.9 7.73075 18.525 7.93735 19.16666.32901 1.02188-.11332 1.16667-3.56418 1.16667h-3.9398l-1.63185-4.16667L147.61321 171l-8.39006-.18597-8.39006-.18596-1.84989 4.35263-1.84989 4.35263h-3.89999c-2.145 0-3.89999-.1152-3.89999-.25599zm24.44479-16.69397c-1.52581-3.97618-4.63042-11.08127-4.77065-10.9179-.74832.87184-4.78683 11.19962-4.49395 11.4925.20645.20645 2.45746.37536 5.00225.37536 3.73055 0 4.55626-.18403 4.26235-.94996zM172.66666 160v-19.33334H202V148h-22.06968l.2015 3.5.20151 3.5 5.83333.19262 5.83334.19262V162.61475l-5.83334.19262-5.83333.19263-.18719 8.16666-.18718 8.16667h-7.2923zm-45.0766-51.93793c-3.74533-2.28382-3.36541-6.36551.92196-9.90533 1.55172-1.28116 2.82131-2.05522 2.82131-1.72014 0 .3351-.92876 1.15788-2.0639 1.82843-2.21125 1.30622-4.02461 4.67221-3.42995 6.36672 1.13859 3.24448 4.49719 4.62977 7.54203 3.1108 1.0735-.53553 1.95182-.74484 1.95182-.46513 0 .66342-3.07442 2.05662-4.53137 2.05342-.62441-.001-2.06977-.57232-3.2119-1.26877zm9.2274-2.44789c.63293-.66082 1.29429-1.05799 1.46968-.8826.17539.17539-.34247.71606-1.1508 1.20149-1.4042.84328-1.41841.82907-.31888-.31889zm4.07948-3.8889c1.2511-1.2511 3.5561-4.2561 5.12223-6.67777 1.56613-2.42168 2.97498-4.27558 3.13078-4.11979.73924.73925-8.59184 13.07228-9.89039 13.07228-.35054 0 .38628-1.02363 1.63738-2.27472zM132 95.54067c0-.39091.45-1.08421 1-1.54067.55-.45646 1-1.0339 1-1.2832 0-.4614-19.27984-2.0777-24.57136-2.0599-2.7709.0093-9.60323-2.72213-12.0953-4.8355-2.09505-1.77666-5.48525-8.74719-5.20647-10.7049.2152-1.51122.44012-1.54225 5.28507-.72925 4.92114.82578 9.25472-3.26456 9.25472-8.73526 0-2.78278-.30842-3.45061-2.69646-5.83865-1.48305-1.48305-2.5485-3.08204-2.36766-3.5533 1.00714-2.62457 13.21449-2.84526 17.31184-.31296 1.93182 1.19393 8.646 7.96191 9.2076 9.28139.11624.2731 2.90065 3.99708 6.18758 8.2755 3.9168 5.0983 6.15321 7.50047 6.48979 6.97083 1.02617-1.61477.54526.72167-.78944 3.8354C138.02842 88.93283 132 97.3851 132 95.54067zm17.33333-6.70724c0-.31823.43508-1.16093.96684-1.87268.93278-1.2485.95343-1.24087.5862.2163-.37925 1.50482-1.55304 2.75672-1.55304 1.65638zm1.72467-5.0001c1.79299-5.58932 2.13229-12.75477.69365-14.64887-.47994-.63188-1.5954-1.43786-2.4788-1.79107-1.54597-.61813-1.55165-.6438-.15158-.68447 2.33103-.06772 4.21206 3.21638 4.21206 7.35386 0 4.20938-1.36474 11.27055-2.17831 11.27055-.31801 0-.36167-.675-.097-1.5zm-9.38199-7.42638c.17819-1.79284.32399-3.98148.32399-4.86364 0-1.63798 2.67031-4.87665 4.02084-4.87665.41147 0-.17489.77667-1.30303 1.72593-1.72247 1.44937-2.0618 2.22386-2.1176 4.83334-.0366 1.70907-.33234 3.8574-.65732 4.77407-.43544 1.22825-.50564.8092-.26688-1.59305zM205.54955 70.5c-.74224-.825-2.3469-3-3.56592-4.83334-12.86642-19.35039-34.81452-34.96342-59.048-42.00448-21.21834-6.165-47.02551-5.86481-67.93563.79023-9.12404 2.9039-21.35658 8.79142-29.66667 14.27858-7.44996 4.91921-22.37324 19.50165-26 25.40617L17 67.93593l-5.16667.03203c-4.05813.02516-5.16666-.17315-5.16666-.92428 0-2.0224 8.5363-13.58208 14.95223-20.24799 14.14322-14.69427 29.44166-24.3153 49.0151-30.82511 34.85376-11.5918 73.22362-7.27519 104.58708 11.76602 13.93699 8.46136 26.37372 20.2571 35.02602 33.2208 3.38151 5.0665 3.94381 8.05985 1.86707 9.93927-1.75654 1.58965-4.95123 1.3966-6.56462-.39667z"/><path fill="#646565" d="M31.93082 177.5c-2.66329-6.947-13.26415-36.02946-13.26415-36.38894 0-.24442 1.60003-.4444 3.55562-.4444h3.55562l4.8786 13.16667c2.68323 7.24167 5.09761 13.41608 5.3653 13.72092.47624.54235 1.13484-1.04396 7.63405-18.38759l3.18522-8.5h3.57946c1.9687 0 3.57946.14337 3.57946.3186 0 .25442-11.93156 32.66248-13.68894 37.1814-.35457.91172-1.243 1.16667-4.06555 1.16667-3.32536 0-3.6676-.14542-4.3147-1.83333zm37.05138 1.02734c-.18565-.48378-.25759-9.12534-.15987-19.20347L69 141l3.33333-.17689 3.33333-.17689L81 148.29608c2.93333 4.20742 5.54393 7.66202 5.80133 7.67689.2574.0149 2.9354-3.42297 5.9511-7.63964l5.48308-7.66667H104.66666V179.33333h-6.63848l-.18076-13.15381-.18076-13.15381-5.24835 7.47601c-2.88659 4.1118-5.46211 7.34388-5.72339 7.18241-.26127-.16148-2.67134-3.44524-5.35569-7.29724-2.68436-3.85201-5.14536-6.84005-5.4689-6.64009-.32355.19996-.54988 5.96373-.50297 12.80838L75.45266 179l-3.06647.20347c-2.0782.13789-3.17524-.08-3.404-.67613zm51.0178.0006c0-.44297 3.51901-9.14297 7.82002-19.33334l7.82002-18.52794h6.90162l2.99997 7.16667c1.64998 3.94167 5.12811 12.23645 7.72917 18.43285 2.60106 6.1964 4.7292 11.68708 4.7292 12.2015 0 .7079-.83692.88633-3.44198.73382L151.11605 179l-1.83497-4.33334-1.83496-4.33333-8.28202-.18578-8.28203-.18578-2.06966 4.68578-2.06966 4.68578h-3.37138c-2.19027 0-3.37137-.28216-3.37137-.80539zm24-15.79691c0-1.43082-4.52091-11.03603-5.06558-10.76243-.3306.16606-1.42949 2.26546-2.44197 4.66532-3.07021 7.27724-3.28261 6.69941 2.46262 6.69941 2.77471 0 5.04493-.27103 5.04493-.6023zm29.33333-2.74429v-19.34659l14.16667.17992L201.66666 141v6.66666l-10.83333.18318L180 148.03302v7.30031h12v7.33333h-12v16.66667h-6.66667zM116.98101 91.0119c-12.66461-.91352-15.74829-1.82362-19.75511-5.83045-3.572-3.57199-6.3817-10.38844-4.70836-11.42262.28465-.17593 1.72778.0032 3.20695.39798 3.54453.94609 5.99979.25224 8.7148-2.46277 1.9165-1.9165 2.22737-2.6812 2.22737-5.47904 0-3.39795-.99933-5.41822-3.92493-7.93472-.89213-.76738-1.41314-1.73326-1.15781-2.1464 1.25946-2.03785 10.16428-2.76 14.5841-1.18271 4.25273 1.51765 6.85162 4.05947 15.23989 14.90526 4.45663 5.7623 8.38495 10.83406 8.72959 11.2706.69932.88576-1.16132 5.62955-3.49172 8.9023-1.63869 2.30132-1.48716 2.29375-19.66477.98257zm89.85047-19.45404c-.45935-.18528-2.70935-3.0765-5-6.42494C186.00397 41.99649 158.73997 25.20552 129 20.2785c-10.20707-1.691-29.1035-1.54087-39.23313.31172-20.4499 3.74005-39.7521 12.8681-54.77358 25.90255-5.39235 4.67905-13.2821 13.51823-16.60485 18.60305l-1.80519 2.76249-4.79162-.14041c-5.69667-.16693-5.78717-.50088-1.74773-6.44922C28.54666 34.02216 58.51721 15.79224 92.63094 11.0342c9.53242-1.32954 26.15403-1.3314 35.2835-.00393C155.22811 15.0018 179.55806 27.2883 198 46.42307c7.78885 8.08148 15.33333 18.50768 15.33333 21.19012 0 3.11713-3.41575 5.18946-6.50185 3.94467z"/><path fill="#040405" d="M32.10372 177.41666c-.3494-.9625-3.51567-9.5223-7.03616-19.02178-3.5205-9.49948-6.4009-17.39016-6.4009-17.53484 0-.14468 1.575-.17238 3.5-.0616l3.5.20151 5 13.4805c2.75 7.41428 5.27463 13.39774 5.61029 13.29657.33565-.10116 2.79331-5.98505 5.46146-13.0753s5.12777-13.16795 5.46581-13.506c.6344-.63439 6.03213-.48443 6.30754.17525.0852.20406-2.97032 8.79156-6.79004 19.08333l-6.94494 18.71231h-3.5189c-3.19237 0-3.57783-.16238-4.15416-1.75zm37.22961-17.54843v-19.27462l3.1378.20319 3.1378.2032 5.23689 7.33333c2.88028 4.03333 5.4656 7.56565 5.74512 7.84959.27954.28394 2.5533-2.41606 5.05281-6 6.44905-9.247 6.73593-9.51626 10.13912-9.51626h2.88379v38.47619h-6v-12.90476c0-8.33244-.24107-12.90476-.6804-12.90476-.37422 0-1.64922 1.38104-2.83333 3.06897-1.18411 1.68794-3.52328 4.97878-5.19814 7.31298l-3.04522 4.244-5.16747-7.31298c-2.8421-4.02213-5.44676-7.31297-5.78812-7.31297-.36171 0-.62065 5.38391-.62065 12.90476v12.90476h-6zm50.71901 18.54417c.0288-.41016 3.55981-8.99574 7.8467-19.07907L135.69339 141l3.34462-.19658 3.34462-.19659 7.82304 18.86325c4.30267 10.37479 7.81657 19.05659 7.80868 19.29289-.008.2363-1.53547.3863-3.39461.33333L151.23948 179l-1.80741-4.33334-1.8074-4.33333h-17.1954l-1.76393 4.33333L126.90141 179l-3.4507.0791c-2.17437.0498-3.43135-.19676-3.39837-.66667zm23.56191-17.57907c-.58867-1.375-1.6881-4.08486-2.44319-6.02192-.75508-1.93706-1.68051-3.41938-2.05649-3.29405-.65953.21984-5.11457 9.98751-5.11457 11.21367 0 .33127 2.40402.6023 5.34228.6023h5.34228zm29.71908-.95248v-19.21419h28v6.66667H180v8h12.06968l-.20151 3.5-.20151 3.5-5.83333.19262-5.83333.19262v16.68067l-3.33334-.1521-3.33333-.15209zm-52.27298-68.95209c-15.1861-.97201-18.64428-1.73717-22.60443-5.00145-2.47285-2.03834-5.19273-6.57374-6.03025-10.05545l-.43173-1.7948 4.50303.33998c3.70785.27993 4.86562.11044 6.55638-.95983 2.16828-1.37254 4.27998-5.0299 4.27998-7.41271 0-2.32696-1.71383-5.72263-3.66151-7.25467-1.05621-.83082-1.66891-1.83583-1.45656-2.3892.59873-1.56028 7.25702-2.6243 11.17029-1.78505 6.4519 1.38369 8.18358 2.9433 19.57652 17.63136 8.10397 10.44784 8.13262 10.55816 4.29451 16.53933-1.13423 1.76755-2.10597 3.17345-2.15941 3.12422-.0534-.04922-6.37001-.491-14.03682-.98173zm85.10631-20.15488c-.64166-.67436-3.03076-3.90744-5.30909-7.18462-12.55339-18.05694-34.34253-33.33844-57.22637-40.13488-12.21169-3.62684-18.5252-4.44674-33.96454-4.41078-12.5392.02921-14.87358.21764-22.37224 1.80583C59.24973 26.7892 34.43872 42.264 19.58417 63.0808l-3.03454 4.25252h-4.60815c-3.36674 0-4.60815-.23649-4.60815-.87786 0-2.62759 12.94791-18.87484 20-25.09633 22.05707-19.45916 48.514-30.02482 78.04683-31.16825 42.55288-1.64753 83.12105 18.27232 104.97446 51.54475 3.43248 5.22605 3.6706 6.95668 1.22214 8.88264-2.16999 1.70691-3.88701 1.7563-5.4101.1556z"/></g></svg>