<svg xmlns="http://www.w3.org/2000/svg" role="img" viewBox="-6.25 -6.00 312.00 101.25"><title>Visual Effects Society logo</title><path fill="#e6b748" fill-rule="evenodd" d="M76.87815 36.09867H60.67403c-1.5102 0-1.61025-1.57117-1.61025-1.57117 0-1.04119.88016-1.66184 1.66028-1.66184H75.2851c0-.30329.02032-4.43678.02032-4.65565-2.2309-1.81036-4.85107-2.92816-8.62656-2.92816-2.17775 0-4.81043.48464-7.2133 1.39295-2.06206.7801-3.84115 2.01985-4.55404 2.70616-.80512.7723-1.54928 1.64777-2.05111 2.86718-.37677.91925-.36896 1.63995-.40179 2.66708-.06722 2.06518.51122 5.15592.78012 6.5301.26733 1.37732 1.64777 8.36706 1.64777 8.36706.2001 1.40076-.94114 2.04486-1.8213 1.92292H41.14778c-.62847 0-1.54772-.6144-1.54772-1.58368 0-.9677.84265-1.64777 1.56022-1.64777h10.17898c-.0641-.33924-1.38357-7.021-1.46017-7.4478-.07504-.42835-.36583-2.15117-.4268-2.68114-.0641-.52685-.69256-4.9308.47682-7.54786.67693-1.51332 1.53521-2.55764 2.44196-3.45969 1.08965-1.0834 2.28718-1.9323 3.81144-2.74211.40335-.21418 4.57906-2.5045 10.49165-2.57953 6.31593-.07967 10.05234 3.09543 11.03412 3.95058.7973.6957.83014 1.08184.83014 1.57273 0 .4909-.06254 5.77502-.06254 6.76775 0 .99429-.60345 1.7619-1.59774 1.7619m-22.38092 26.4206c-4.15226.4143-11.2358.3158-13.67618.05003-1.86195-.20167-1.73689-3.13295.27358-3.04071 6.11426.2814 9.12371.23763 13.45263-.05778.68006-.0469 1.36637.65191 1.42108 1.42577.0516.74416-.44711 1.52114-1.4711 1.62276m-7.87304-62.52c-9.27379 0-17.81906 3.11576-24.65246 8.35299l.03283.02964c1.87758 1.3773 8.58904 7.5838 10.09767 9.05961 1.5102 1.4758 2.7515 3.48783 3.18767 4.2273.43618.7379 4.36175 7.1789 5.4342 11.74076 1.07403 4.56342-.36894 7.14763-7.64946 6.27528-7.27896-.87235-15.06288-4.1929-17.24375-5.4686-2.18088-1.27569-5.87195-3.9928-7.98403-5.56865 0 0-.00475-.0025-.00625-.0025-1.15688 3.76767-1.78066 7.76985-1.78066 11.91898 0 22.4028 18.16144 40.56424 40.56424 40.56424.52529 0 1.04745-.01876 1.56804-.03902 3.96622-.88016 6.25028-4.68067 4.9949-8.26543-.7035-2.01203-3.06103-2.97036-4.90579-3.14546-1.51176-.14383-2.34033-.12663-3.7239.27671-1.98076.57532-2.4654-2.24028-1.18189-2.76869 3.57226-1.47111 8.93142-.52841 11.54847 2.64206 3.08136 3.73172 1.1428 8.97676-.13914 10.47757 18.4913-3.77549 32.40355-20.13438 32.40355-39.74192 0-22.4028-18.16143-40.56424-40.56424-40.56424"/><path fill="#e6b748" fill-rule="evenodd" d="M18.83394 32.15325c2.28718 1.05683 8.62187 3.455 14.02325 4.2273 0 0 4.2273.65348 4.88077-.10168.65505-.75354-.9552-4.61345-1.23973-5.29976-.2861-.68787-2.4998-5.70466-4.7307-8.75632-.4049-.55499-.8614-1.36637-1.56022-2.08238-3.12045-3.18611-8.32328-7.67605-8.9408-8.18414-.7551-.62221-3.14077-2.67958-3.14077-2.67958s-5.43108-4.66817-6.90845-5.33884c-1.35698-.61753-5.2341.20167-8.9236 5.45296-3.13608 4.4618-2.29812 8.26856-1.82755 9.17374.90518 1.0068 9.1925 7.4478 10.60107 8.4718 1.40858 1.02399 5.7375 4.17727 7.76673 5.11684"/><path d="M288.80071 29.973c-5.08089-1.94638-7.0382-2.37317-17.719-3.4769-10.43693-1.01305-12.81166-1.35386-16.201-2.11678-2.03392-.51121-3.1439-1.43984-3.1439-2.97036 0-.2392.04065-.46588.0938-.68787l45.62168-.00626c-.90362-2.44039-2.542-5.32633-5.16843-7.96058-5.5968-5.59366-15.44121-8.30764-30.19924-8.30764-23.66286 0-36.13058 6.78338-36.13058 19.5919 0 6.95847 3.81927 11.9612 10.85747 14.16865 4.57749 1.52426 11.62194 2.87969 17.805 3.47689l8.40143.76291c8.73444.84108 10.31186 1.80098 10.26809 4.0569-.01126.68943-.24076 1.32102-.6738 1.87914l-90.92757-.0125v-6.94284h35.02842V27.00888h-35.02842v-6.27685h44.03957V6.31169h-86.61428L128.9294 30.05897c-1.78065 4.15226-2.9344 7.2946-3.69576 12.64282h-.06878c-.59408-4.49463-2.1715-9.41762-3.61134-12.64282L110.94933 6.3117h-23.6613l25.1027 56.47758h25.36067l22.22302-52.28311v52.28311h66.65812V51.12512c1.09747 3.43624 3.02039 5.06994 4.4149 6.32218 5.77657 5.20596 15.68509 7.12419 30.61352 7.12419 25.44977 0 37.57668-6.36284 37.57668-19.84517 0-7.11636-3.47846-12.12377-10.43693-14.75333M94.74865 85.58433h-2.073l-4.8417-13.60271h2.09176l3.86148 11.62507 4.0694-11.62507h1.90416l-5.0121 13.6027z"/><path stroke="#000" stroke-width=".483" d="M94.74865 85.58433h-2.073l-4.8417-13.60271h2.09176l3.86148 11.62507 4.0694-11.62507h1.90416l-5.0121 13.6027z"/><path d="M102.98203 76.12668h1.77128v9.45827h-1.77128v-9.45827zm-.18916-4.10692h2.12928v1.94168h-2.12928v-1.94168z"/><path stroke="#000" stroke-width=".483" d="M102.98172 76.12685h1.77127v9.45826h-1.77127v-9.45826zm-.1876-4.10692h2.12772v1.94011h-2.12772v-1.94011z"/><path d="M110.00882 82.77749c-.01876.71601.358 1.715 2.073 1.715.73478 0 1.28039-.1329 1.65715-.60346.18917-.24545.30173-.56593.30173-.88486 0-.92394-.65973-1.09278-2.073-1.41326-1.97764-.45338-3.63635-.8489-3.63635-2.82654 0-1.73376 1.50863-2.86406 3.69263-2.86406 1.18814 0 2.8453.33925 3.41123 1.46955.24388.52685.24388.98022.24388 1.37575h-1.8088c.05785-1.43203-1.18658-1.5446-1.82599-1.5446-.2642 0-1.92292 0-1.92292 1.357 0 .8661.8489 1.07245 1.33823 1.20534 2.61861.62221 3.18454.7723 3.74891 1.29914.52685.4909.71602 1.14907.71602 1.75252 0 1.05526-.5847 1.95888-1.28039 2.39192-.83014.50966-1.82755.64098-2.80777.64098-1.92136 0-3.7114-.79106-3.69264-3.07042h1.86508z"/><path stroke="#000" stroke-width=".483" d="M110.00882 82.77749c-.01876.71601.358 1.715 2.073 1.715.73478 0 1.28039-.1329 1.65715-.60346.18917-.24545.30173-.56593.30173-.88486 0-.92394-.65973-1.09278-2.073-1.41326-1.97764-.45338-3.63635-.8489-3.63635-2.82654 0-1.73376 1.50863-2.86406 3.69263-2.86406 1.18814 0 2.8453.33925 3.41123 1.46955.24388.52685.24388.98022.24388 1.37575h-1.8088c.05785-1.43203-1.18658-1.5446-1.82599-1.5446-.2642 0-1.92292 0-1.92292 1.357 0 .8661.8489 1.07245 1.33823 1.20534 2.61861.62221 3.18454.7723 3.74891 1.29914.52685.4909.71602 1.14907.71602 1.75252 0 1.05526-.5847 1.95888-1.28039 2.39192-.83014.50966-1.82755.64098-2.80777.64098-1.92136 0-3.7114-.79106-3.69264-3.07042h1.86508z"/><path d="M120.82283 76.12668v6.08613c0 .92237.20792 2.0902 2.01515 2.0902.88642 0 1.715-.30173 2.22309-1.05527.39709-.56437.39709-1.29914.39709-1.77127v-5.34979h1.826v7.687c0 .1876.03907 1.24286.05783 1.77127h-1.84631l-.03752-1.61963c-.33925.65817-.98022 1.71343-3.0157 1.71343-2.33565 0-3.42843-1.33822-3.42843-3.20174v-6.35033h1.8088z"/><path stroke="#000" stroke-width=".483" d="M120.82283 76.12668v6.08613c0 .92237.20792 2.0902 2.01515 2.0902.88642 0 1.715-.30173 2.22309-1.05527.39709-.56437.39709-1.29914.39709-1.77127v-5.34979h1.826v7.687c0 .1876.03907 1.24286.05783 1.77127h-1.84631l-.03752-1.61963c-.33925.65817-.98022 1.71343-3.0157 1.71343-2.33565 0-3.42843-1.33822-3.42843-3.20174v-6.35033h1.8088z"/><path d="M136.04532 80.93102c-.71601 0-3.40967 0-3.40967 1.92136 0 .60345.37677 1.63995 1.95888 1.63995.90518 0 1.58211-.358 2.01672-1.01774.39553-.64097.4143-1.16782.45181-2.48729-.32049-.03752-.5847-.05628-1.01774-.05628m1.2241 4.6541c-.13132-.47214-.16884-.92395-.16884-1.41327-.84733 1.56335-2.12928 1.71343-2.92034 1.71343-2.1668 0-3.33462-1.2241-3.33462-2.78746 0-.75353.2642-1.95887 1.65715-2.77025 1.01774-.56437 2.52481-.62065 3.27834-.62065.45338 0 .73478.01876 1.28195.05628 0-1.16782 0-1.67748-.33925-2.09176-.358-.47057-1.1303-.62065-1.63995-.62065-1.78847 0-1.88384 1.2241-1.9026 1.60087H131.41c.05784-.48933.11412-1.14906.65973-1.79004.71602-.79105 2.05424-1.01774 3.05322-1.01774 1.37419 0 2.84374.43305 3.35339 1.3945.30016.56594.31892 1.01775.31892 1.4508l-.07504 4.5212c0 .15165.01876 1.41327.15165 2.37473h-1.60244z"/><path stroke="#000" stroke-width=".483" d="M136.04532 80.93102c-.71601 0-3.40967 0-3.40967 1.92136 0 .60345.37677 1.63995 1.95888 1.63995.90518 0 1.58211-.358 2.01672-1.01774.39553-.64097.4143-1.16782.45181-2.48729-.32049-.03752-.5847-.05628-1.01774-.05628zm1.2241 4.6541c-.13132-.47214-.16884-.92395-.16884-1.41327-.84733 1.56335-2.12928 1.71343-2.92034 1.71343-2.1668 0-3.33462-1.2241-3.33462-2.78746 0-.75353.2642-1.95887 1.65715-2.77025 1.01774-.56437 2.52481-.62065 3.27834-.62065.45338 0 .73478.01876 1.28195.05628 0-1.16782 0-1.67748-.33925-2.09176-.358-.47057-1.1303-.62065-1.63995-.62065-1.78847 0-1.88384 1.2241-1.9026 1.60087H131.41c.05784-.48933.11412-1.14906.65973-1.79004.71602-.79105 2.05424-1.01774 3.05322-1.01774 1.37419 0 2.84374.43305 3.35339 1.3945.30016.56594.31892 1.01775.31892 1.4508l-.07504 4.5212c0 .15165.01876 1.41327.15165 2.37473h-1.60244z"/><path d="M143.5619 72.001h1.77128v13.58395h-1.77127V72.001z"/><path stroke="#000" stroke-width=".483" d="M143.56238 72.00084h1.77127V85.5848h-1.77127V72.00084z"/><path d="M157.23966 71.9824h8.53432v1.60086h-6.65049v4.2398h6.33v1.58212h-6.33v4.5212h6.80058v1.65872h-8.68441V71.9824z"/><path stroke="#000" stroke-width=".483" d="M157.23966 71.9824h8.53432v1.60086h-6.65049v4.2398h6.33v1.58212h-6.33v4.5212h6.80058v1.65872h-8.68441V71.9824z"/><path d="M174.49731 73.30094c-.30172-.01876-.67849-.03752-1.0365-.03752-1.43203 0-1.43203.71601-1.43203 1.37574v1.48831h2.20433v1.28039h-2.20433v8.17632h-1.75095v-8.17632h-1.86664v-1.28039h1.86664v-1.07402c0-1.3007.07504-1.77127.39397-2.2606.39709-.60346 1.14906-1.0365 2.37473-1.0365.50808 0 1.07402.07504 1.45078.13132v1.41327z"/><path stroke="#000" stroke-width=".483" d="M174.49731 73.30094c-.30172-.01876-.67849-.03752-1.0365-.03752-1.43203 0-1.43203.71601-1.43203 1.37574v1.48831h2.20433v1.28039h-2.20433v8.17632h-1.75095v-8.17632h-1.86664v-1.28039h1.86664v-1.07402c0-1.3007.07504-1.77127.39397-2.2606.39709-.60346 1.14906-1.0365 2.37473-1.0365.50808 0 1.07402.07504 1.45078.13132v1.41327z"/><path d="M181.93871 73.30094c-.30173-.01876-.6785-.03752-1.0365-.03752-1.43203 0-1.43203.71601-1.43203 1.37574v1.48831h2.20432v1.28039h-2.20432v8.17632h-1.75095v-8.17632h-1.86664v-1.28039h1.86664v-1.07402c0-1.3007.07504-1.77127.39396-2.2606.3971-.60346 1.14907-1.0365 2.37473-1.0365.50809 0 1.07402.07504 1.4508.13132v1.41327z"/><path stroke="#000" stroke-width=".483" d="M181.93871 73.30094c-.30173-.01876-.6785-.03752-1.0365-.03752-1.43203 0-1.43203.71601-1.43203 1.37574v1.48831h2.20432v1.28039h-2.20432v8.17632h-1.75095v-8.17632h-1.86664v-1.28039h1.86664v-1.07402c0-1.3007.07504-1.77127.39396-2.2606.3971-.60346 1.14907-1.0365 2.37473-1.0365.50809 0 1.07402.07504 1.4508.13132v1.41327z"/><path d="M190.34155 79.93234c.01726-.90362-.15164-2.78745-2.33564-2.78745-1.15063 0-2.54513.69569-2.58265 2.78745h4.9183zm-4.99334 1.24286c-.03752 1.96045.77386 3.41123 2.71242 3.41123 1.14906 0 2.073-.60345 2.22464-1.96044h1.77128c-.0579.47213-.13289 1.24443-.81138 1.9792-.41429.47057-1.35699 1.26163-3.25802 1.26163-2.97662 0-4.39145-1.84632-4.39145-4.8417 0-1.86507.37677-3.40966 1.86508-4.44616.90518-.64098 2.03548-.69726 2.58109-.69726 4.2398 0 4.14444 3.74891 4.10692 5.2935h-6.80058z"/><path stroke="#000" stroke-width=".483" d="M190.34155 79.93234c.01726-.90362-.15164-2.78745-2.33564-2.78745-1.15063 0-2.54513.69569-2.58265 2.78745h4.9183zm-4.99334 1.24286c-.03752 1.96045.77386 3.41123 2.71242 3.41123 1.14906 0 2.073-.60345 2.22464-1.96044h1.77128c-.0579.47213-.13289 1.24443-.81138 1.9792-.41429.47057-1.35699 1.26163-3.25802 1.26163-2.97662 0-4.39145-1.84632-4.39145-4.8417 0-1.86507.37677-3.40966 1.86508-4.44616.90518-.64098 2.03548-.69726 2.58109-.69726 4.2398 0 4.14444 3.74891 4.10692 5.2935h-6.80058z"/><path d="M200.92872 79.16006c-.03752-.43305-.1704-1.97764-1.88383-1.97764-2.44821 0-2.44821 2.84373-2.44821 3.55975 0 1.94168.47057 3.74891 2.3544 3.74891 1.50707 0 2.01516-1.1303 2.05268-2.05268h1.79004c-.11256 1.84632-1.48831 3.39091-3.82395 3.39091-.64098 0-2.11053-.13132-3.10794-1.2241-.56594-.65974-1.1303-1.65872-1.1303-3.6176 0-3.93807 2.41068-5.1059 4.29452-5.1059.6222 0 2.03391.13133 2.90001 1.16783.69882.81137.7551 1.58367.79262 2.11052h-1.79004z"/><path stroke="#000" stroke-width=".483" d="M200.92872 79.16006c-.03752-.43305-.1704-1.97764-1.88383-1.97764-2.44821 0-2.44821 2.84373-2.44821 3.55975 0 1.94168.47057 3.74891 2.3544 3.74891 1.50707 0 2.01516-1.1303 2.05268-2.05268h1.79004c-.11256 1.84632-1.48831 3.39091-3.82395 3.39091-.64098 0-2.11053-.13132-3.10794-1.2241-.56594-.65974-1.1303-1.65872-1.1303-3.6176 0-3.93807 2.41068-5.1059 4.29452-5.1059.6222 0 2.03391.13133 2.90001 1.16783.69882.81137.7551 1.58367.79262 2.11052h-1.79004z"/><path d="M204.6781 76.089h1.67747v-1.97764l1.75096-.56593V76.089h2.11052v1.3007h-2.11052v5.67028c0 .47057 0 1.26162 1.26318 1.26162.35645 0 .69726-.05628.84734-.0938v1.37575c-.32049.05628-.82858.11256-1.46955.11256-1.61963 0-2.39193-.47057-2.39193-2.01516v-6.31124h-1.67747V76.089z"/><path stroke="#000" stroke-width=".483" d="M204.6781 76.089h1.67747v-1.97764l1.75096-.56593V76.089h2.11052v1.3007h-2.11052v5.67028c0 .47057 0 1.26162 1.26318 1.26162.35645 0 .69726-.05628.84734-.0938v1.37575c-.32049.05628-.82858.11256-1.46955.11256-1.61963 0-2.39193-.47057-2.39193-2.01516v-6.31124h-1.67747V76.089z"/><path d="M214.58771 82.77749c-.01876.71601.358 1.715 2.07144 1.715.73634 0 1.28195-.1329 1.65872-.60346.1876-.24545.30172-.56593.30172-.88486 0-.92394-.65973-1.09278-2.073-1.41326-1.97764-.45338-3.63635-.8489-3.63635-2.82654 0-1.73376 1.50707-2.86406 3.69263-2.86406 1.18658 0 2.8453.33925 3.40967 1.46955.24544.52685.24544.98022.24544 1.37575h-1.8088c.05629-1.43203-1.18658-1.5446-1.82755-1.5446-.26264 0-1.92136 0-1.92136 1.357 0 .8661.84734 1.07245 1.33823 1.20534 2.61861.62221 3.18454.7723 3.74891 1.29914.52685.4909.71602 1.14907.71602 1.75252 0 1.05526-.5847 1.95888-1.28039 2.39192-.83013.50966-1.82755.64098-2.80777.64098-1.92136 0-3.7114-.79106-3.69263-3.07042h1.86507z"/><path stroke="#000" stroke-width=".483" d="M214.58771 82.77749c-.01876.71601.358 1.715 2.07144 1.715.73634 0 1.28195-.1329 1.65872-.60346.1876-.24545.30172-.56593.30172-.88486 0-.92394-.65973-1.09278-2.073-1.41326-1.97764-.45338-3.63635-.8489-3.63635-2.82654 0-1.73376 1.50707-2.86406 3.69263-2.86406 1.18658 0 2.8453.33925 3.40967 1.46955.24544.52685.24544.98022.24544 1.37575h-1.8088c.05629-1.43203-1.18658-1.5446-1.82755-1.5446-.26264 0-1.92136 0-1.92136 1.357 0 .8661.84734 1.07245 1.33823 1.20534 2.61861.62221 3.18454.7723 3.74891 1.29914.52685.4909.71602 1.14907.71602 1.75252 0 1.05526-.5847 1.95888-1.28039 2.39192-.83013.50966-1.82755.64098-2.80777.64098-1.92136 0-3.7114-.79106-3.69263-3.07042h1.86507z"/><path d="M233.8041 81.60935c.03752.94114.15164 2.69366 3.27834 2.69366 2.82654 0 3.18298-1.75252 3.18298-2.42945 0-1.52583-1.2241-1.82756-3.1267-2.29969-2.073-.50809-2.99538-.73321-3.69263-1.20534-1.11154-.75354-1.41327-1.77128-1.41327-2.6749 0-2.76869 2.62018-3.9756 5.18094-3.9756.90518 0 2.73274.15165 3.82552 1.33824.75197.82857.7895 1.75251.82858 2.31688h-1.95888c-.09543-1.69467-1.5274-2.07144-2.86406-2.07144-1.88383 0-3.01414.84734-3.01414 2.20276 0 1.20534.7895 1.6212 2.44977 2.01672 3.23926.82858 3.59727.90362 4.38833 1.43203 1.26318.82858 1.35698 2.14648 1.35698 2.71241 0 2.41069-1.88383 4.2398-5.3701 4.2398-1.03494 0-3.14546-.1704-4.21948-1.54614-.77386-.99742-.79262-2.0902-.79262-2.74994h1.96044z"/><path stroke="#000" stroke-width=".483" d="M233.8041 81.60935c.03752.94114.15164 2.69366 3.27834 2.69366 2.82654 0 3.18298-1.75252 3.18298-2.42945 0-1.52583-1.2241-1.82756-3.1267-2.29969-2.073-.50809-2.99538-.73321-3.69263-1.20534-1.11154-.75354-1.41327-1.77128-1.41327-2.6749 0-2.76869 2.62018-3.9756 5.18094-3.9756.90518 0 2.73274.15165 3.82552 1.33824.75197.82857.7895 1.75251.82858 2.31688h-1.95888c-.09543-1.69467-1.5274-2.07144-2.86406-2.07144-1.88383 0-3.01414.84734-3.01414 2.20276 0 1.20534.7895 1.6212 2.44977 2.01672 3.23926.82858 3.59727.90362 4.38833 1.43203 1.26318.82858 1.35698 2.14648 1.35698 2.71241 0 2.41069-1.88383 4.2398-5.3701 4.2398-1.03494 0-3.14546-.1704-4.21948-1.54614-.77386-.99742-.79262-2.0902-.79262-2.74994h1.96044z"/><path d="M249.04566 84.58566c1.33823 0 2.86406-.9599 2.86406-3.8052 0-2.35596-1.09279-3.59883-2.7515-3.59883-1.12874 0-2.95786.71602-2.95786 3.67388 0 1.94011.83014 3.73015 2.8453 3.73015m.11256-8.70473c3.78643 0 4.63533 2.97818 4.63533 4.95582 0 2.77025-1.56335 5.06838-4.78541 5.06838-3.12826 0-4.6541-2.1668-4.6541-4.9355 0-2.3372 1.09279-5.0887 4.80418-5.0887"/><path stroke="#000" stroke-width=".483" d="M249.04566 84.58566c1.33823 0 2.86406-.9599 2.86406-3.8052 0-2.35596-1.09279-3.59883-2.7515-3.59883-1.12874 0-2.95786.71602-2.95786 3.67388 0 1.94011.83014 3.73015 2.8453 3.73015zm.11256-8.70473c3.78643 0 4.63533 2.97818 4.63533 4.95582 0 2.77025-1.56335 5.06838-4.78541 5.06838-3.12826 0-4.6541-2.1668-4.6541-4.9355 0-2.3372 1.09279-5.0887 4.80418-5.0887z"/><path d="M261.98863 79.16006c-.03752-.43305-.1704-1.97764-1.88383-1.97764-2.44977 0-2.44977 2.84373-2.44977 3.55975 0 1.94168.47057 3.74891 2.3544 3.74891 1.50707 0 2.01672-1.1303 2.05424-2.05268h1.78848c-.11106 1.84632-1.48675 3.39091-3.82396 3.39091-.6394 0-2.10896-.13132-3.10794-1.2241-.56593-.65974-1.1303-1.65872-1.1303-3.6176 0-3.93807 2.41069-5.1059 4.29609-5.1059.62221 0 2.03392.13133 2.90001 1.16783.69882.81137.7551 1.58367.79262 2.11052h-1.79004z"/><path stroke="#000" stroke-width=".483" d="M261.98863 79.16006c-.03752-.43305-.1704-1.97764-1.88383-1.97764-2.44977 0-2.44977 2.84373-2.44977 3.55975 0 1.94168.47057 3.74891 2.3544 3.74891 1.50707 0 2.01672-1.1303 2.05424-2.05268h1.78848c-.11106 1.84632-1.48675 3.39091-3.82396 3.39091-.6394 0-2.10896-.13132-3.10794-1.2241-.56593-.65974-1.1303-1.65872-1.1303-3.6176 0-3.93807 2.41069-5.1059 4.29609-5.1059.62221 0 2.03392.13133 2.90001 1.16783.69882.81137.7551 1.58367.79262 2.11052h-1.79004z"/><path d="M267.20726 76.12668h1.77127v9.45827h-1.77127v-9.45827zm-.18917-4.10692h2.12929v1.94168h-2.12929v-1.94168z"/><path stroke="#000" stroke-width=".483" d="M267.20695 76.12685h1.77127v9.45826h-1.77127v-9.45826zm-.18917-4.10692h2.13085v1.94011h-2.13085v-1.94011z"/><path d="M278.53013 79.93234c.01726-.90362-.15165-2.78745-2.33565-2.78745-1.15062 0-2.54513.69569-2.58265 2.78745h4.9183zm-4.99334 1.24286c-.03752 1.96045.77386 3.41123 2.71241 3.41123 1.14906 0 2.073-.60345 2.22465-1.96044h1.77127c-.05778.47213-.13288 1.24443-.81138 1.9792-.41428.47057-1.35698 1.26163-3.25802 1.26163-2.97662 0-4.39145-1.84632-4.39145-4.8417 0-1.86507.37677-3.40966 1.86508-4.44616.90518-.64098 2.03548-.69726 2.58109-.69726 4.2398 0 4.14444 3.74891 4.10692 5.2935h-6.80057z"/><path stroke="#000" stroke-width=".483" d="M278.53013 79.93234c.01726-.90362-.15165-2.78745-2.33565-2.78745-1.15062 0-2.54513.69569-2.58265 2.78745h4.9183zm-4.99334 1.24286c-.03752 1.96045.77386 3.41123 2.71241 3.41123 1.14906 0 2.073-.60345 2.22465-1.96044h1.77127c-.05778.47213-.13288 1.24443-.81138 1.9792-.41428.47057-1.35698 1.26163-3.25802 1.26163-2.97662 0-4.39145-1.84632-4.39145-4.8417 0-1.86507.37677-3.40966 1.86508-4.44616.90518-.64098 2.03548-.69726 2.58109-.69726 4.2398 0 4.14444 3.74891 4.10692 5.2935h-6.80057z"/><path d="M282.27873 76.089h1.67747v-1.97764l1.75252-.56593V76.089h2.10896v1.3007h-2.10896v5.67028c0 .47057 0 1.26162 1.26162 1.26162.358 0 .69726-.05628.84734-.0938v1.37575c-.32049.05628-.82858.11256-1.46955.11256-1.61963 0-2.39193-.47057-2.39193-2.01516v-6.31124h-1.67747V76.089z"/><path stroke="#000" stroke-width=".483" d="M282.27873 76.089h1.67747v-1.97764l1.75252-.56593V76.089h2.10896v1.3007h-2.10896v5.67028c0 .47057 0 1.26162 1.26162 1.26162.358 0 .69726-.05628.84734-.0938v1.37575c-.32049.05628-.82858.11256-1.46955.11256-1.61963 0-2.39193-.47057-2.39193-2.01516v-6.31124h-1.67747V76.089z"/><path d="M295.42917 85.64107l-1.357 3.5238h-1.82755l1.43203-3.6176-3.93808-9.42075h1.99796l2.95786 7.4603 3.01414-7.4603h1.92136l-4.20072 9.51455z"/><path stroke="#000" stroke-width=".483" d="M295.42917 85.64107l-1.357 3.5238h-1.82755l1.43203-3.6176-3.93808-9.42075h1.99796l2.95786 7.4603 3.01414-7.4603h1.92136l-4.20072 9.51455z"/></svg>