<svg xmlns="http://www.w3.org/2000/svg" role="img" viewBox="-4.40 -4.40 228.54 47.54"><title>Wētā FX logo</title><g transform="translate(-5.466 -6.647) scale(.1998)"><path d="M785.11938 114.57447c-2.1717-15.8431-16.62905-41.53126-89.92925-43.04111-54.1892-1.11688-85.97881 10.2794-100.37411 28.12874V71.36789h-24.75743V33.78706h-65.85435v37.58083h-20.5588v37.02239c-13.48525-19.58671-39.60775-36.93966-90.19812-37.374-29.84542-.24819-51.56247 4.36409-67.34352 11.80994l4.57092-11.62379h-65.25455l-24.01285 71.99717-31.06571-71.99717h-62.85533l-30.81752 72.14195-24.05421-72.14195H27.36L87.25768 223.5113h57.91212l33.83722-89.1433 33.85791 89.1433h57.91212l17.415-44.28209c10.25872 24.01285 40.93146 49.43213 103.18698 48.68754 67.55035-.80663 100.64299-29.88679 106.68239-57.43641h-67.05396c-6.80467 13.83686-22.44095 21.79978-38.05653 21.84114-20.74495.062-36.79488-9.86574-40.2696-31.31391h145.35942v-1.42712h-.0207c-.0207-7.15628-.45502-22.27548-7.19765-38.03585h13.34047s-.16546 65.27523-.16546 65.70957c-1.15824 35.28503 19.2351 35.71937 28.95606 35.65732 1.15824-.0207 74.35502 0 74.35502 0v-8.02496c14.3953 7.05287 32.36874 10.32077 47.94296 10.19667 33.19605-.26888 45.41965-8.33521 65.23386-19.25578.0207 6.14282.0207 10.09325.0207 12.61657v4.57092h65.37864v-.20683h.0827c.062-55.26471.51707-98.28514-.848-108.23361zm-432.35532 16.4429c6.47375-17.97344 23.14416-24.32309 40.24892-24.36446 15.73969-.0207 31.99644 8.04565 36.87761 24.36446zm228.21511 47.83955v.74458c-7.83882-2.15102-10.75511-6.14282-10.73442-17.45637l-.16546-40.6419h24.75743v-.0827c32.05849.0414 56.19544.22751 56.19544.22751s3.0197-12.96818 34.87137-12.8234c34.89205.18615 33.96132 13.91959 34.16815 18.55256-36.46395-.22751-61.8005.45502-89.88788 5.29482-28.08738 4.88116-48.87369 15.94652-49.20462 46.18491zm94.27265 7.2597c-34.18883 1.09619-34.66454-23.51646-7.92155-28.48035 11.06535-2.06829 26.94982-3.7436 52.78276-3.10243 0 4.65365-9.96916 30.48659-44.86121 31.58279z"/><path d="M835.06858 90.54094v48.48072H944.2536v17.80798H835.06858v66.49552h-21.24134V71.88497h134.70772v18.65598H835.06858z"/><path d="M1098.2585 223.32515l-62.2142-66.28869-61.77981 66.28869h-29.3904l77.43681-80.22897-68.00541-71.21122h29.59723l52.34838 57.27095 52.9896-57.27095h29.3904l-69.2877 71.00439 79.1535 80.43579h-30.2384z"/><path d="M468.216 51.305H314.418V33.27h153.984z"/><path d="M761.024 51.305H607.226V33.27H761.21z"/></g></svg>