<svg xmlns="http://www.w3.org/2000/svg" role="img" viewBox="-5.99 -5.99 311.74 100.99"><title>Walt Disney Studios logo</title><defs><clipPath id="a"><path d="M0 0h612v792H0V0z"/></clipPath><clipPath id="b"><path d="M0 0h612v792H0V0z"/></clipPath><clipPath id="c"><path d="M0 0h612v792H0V0z"/></clipPath></defs><g clip-path="url(#a)" transform="matrix(2.04054 0 0 -2.04054 -841.042 996.6)"><path fill="#141006" d="M487.74 451.666l1.11.582c.492-.974 1.255-1.445 2.286-1.445 1.01 0 1.693.324 1.693 1.076 0 .718-.516 1.054-1.884 1.457-1.603.47-2.892.909-2.892 2.489 0 1.413 1.154 2.343 2.836 2.343 1.637 0 2.602-.806 3.106-1.782l-1.02-.706c-.494.83-1.2 1.21-2.097 1.21-.919 0-1.446-.336-1.446-.941 0-.774.594-1.031 1.951-1.436 1.57-.46 2.825-.975 2.825-2.534 0-1.356-1.155-2.421-3.128-2.421-1.648 0-2.814.852-3.34 2.108"/><path fill="#141006" d="M495.568 451.274v3.296h-1.032v1.098h1.032v2.074h1.378v-2.074h1.537v-1.098h-1.537v-2.95c0-.639.192-.897.875-.897.202 0 .46.033.595.08v-1.088a6.89 6.89 0 0 0-1.01-.08c-1.513 0-1.838.561-1.838 1.638"/><path fill="#141006" d="M499.247 451.396v4.272h1.39v-3.946c0-.662.28-.965.886-.965s1.11.314 1.615.773v4.138h1.39v-5.953h-1.39v.807a2.952 2.952 0 0 0-2.176-.92c-1.042 0-1.715.617-1.715 1.794"/><path fill="#141006" d="M505.54 452.675c0 2.063 1.02 3.105 2.545 3.105a2.27 2.27 0 0 0 1.704-.751v2.982h1.379v-6.838c0-.718.045-1.155.18-1.458h-1.424c-.079.168-.135.504-.135.807-.437-.504-1.009-.897-1.895-.897-1.356 0-2.354.987-2.354 3.05m4.249-1.166v2.387c-.37.483-.908.74-1.402.74-1.042 0-1.468-.672-1.468-1.995 0-1.255.538-1.884 1.424-1.884.572 0 1.121.36 1.446.752"/></g><path fill="#141006" d="M204.7 62.239h2.881v2.446H204.7V62.24zm.02 4.552h2.839v12.147h-2.839V66.791z"/><g clip-path="url(#b)" transform="matrix(2.04054 0 0 -2.04054 -841.042 996.6)"><path fill="#141006" d="M514.876 452.686c0 2.197 1.446 3.094 2.903 3.094 1.447 0 2.904-.897 2.904-3.094 0-2.175-1.457-3.095-2.904-3.095-1.445 0-2.903.92-2.903 3.095m4.417 0c0 1.11-.47 1.917-1.514 1.917-.997 0-1.513-.718-1.513-1.917 0-1.133.46-1.94 1.513-1.94 1 0 1.514.718 1.514 1.94"/><path fill="#141006" d="M521.135 450.533l.752.841a2.928 2.928 0 0 1 1.872-.707c.74 0 1.188.191 1.188.684 0 .483-.605.628-1.323.796-1.02.236-2.242.505-2.242 1.884 0 1.043.897 1.748 2.208 1.748 1.133 0 1.828-.324 2.445-.84l-.662-.897c-.437.358-1.144.65-1.681.65-.763 0-1.01-.269-1.01-.605 0-.482.595-.628 1.3-.785 1.022-.224 2.266-.482 2.266-1.872 0-1.256-1.133-1.84-2.49-1.84-1.098 0-2.084.393-2.623.943"/></g><path fill="#141006" d="M91.637 46.151V31.876h-5.215V29.22h13.292v2.655h-5.218V46.15h-2.859z"/><g clip-path="url(#c)" transform="matrix(2.04054 0 0 -2.04054 -841.042 996.6)"><path fill="#141006" d="M461.86 465.783v8.297h1.39v-3.15a2.951 2.951 0 0 0 2.175.919c1.043 0 1.716-.617 1.716-1.794v-4.272h-1.39v3.925c0 .66-.281.963-.886.963s-1.11-.314-1.614-.773v-4.115h-1.391z"/><path fill="#141006" d="M468.079 468.754c0 2.264 1.603 3.094 2.837 3.094 1.334 0 2.612-.796 2.612-3.217v-.326h-4.07c.056-1.075.717-1.546 1.592-1.546.773 0 1.222.258 1.67.694l.729-.717c-.617-.684-1.435-1.076-2.5-1.076-1.491 0-2.87.908-2.87 3.094m4.182.583c-.08.908-.527 1.39-1.357 1.39-.672 0-1.29-.38-1.423-1.39h2.78z"/><path fill="#141006" d="M527.642 475.923s.205.308.377.542c.313.426.881 1.015 1.307 1.38.131.112.285.239.285.239s-.24-.025-.378-.052c-.323-.064-.798-.38-1.036-.585-.39-.334-.822-.88-.627-1.364.028-.068.072-.16.072-.16m2.178-.583a4.118 4.118 0 0 1 1.737.52c.53.296 1.307.873 1.227 1.552a.574.574 0 0 1-.35.464c-.236.102-.359.085-.66-.003a2.023 2.023 0 0 1-.525-.223c-.608-.352-1.468-1.107-1.935-1.71-.108-.141-.216-.301-.303-.41-.054-.066-.095-.127-.09-.144.018-.07.657-.061.9-.046m-1.578-1.156c-.063-.068-.13-.232-.2-.35a.653.653 0 0 0-.153-.175c-.16-.12-.297-.125-.454.012a1.105 1.105 0 0 0-.352.78c-.005.129.016.267-.008.375-.039.18-.219.364-.317.537a2.136 2.136 0 0 0-.217.787c-.04.712.336 1.367.824 1.886a5.462 5.462 0 0 0 1.833 1.253c.661.28 1.628.468 2.354.219.236-.083.565-.284.731-.493.035-.045.064-.093.1-.115.032-.021.116-.03.183-.041.232-.041.566-.215.702-.333.272-.235.423-.461.491-.787.14-.66-.239-1.382-.67-1.822-.74-.755-1.47-1.287-2.417-1.66-.415-.162-1.063-.313-1.535-.271-.145.013-.296.052-.439.062a1.874 1.874 0 0 0-.367.094c-.035.026-.08.05-.089.042m-22.566-1.944c.392.023.636.042.943.175.17.073.366.238.27.435-.058.12-.267.163-.389.155-.41-.03-.707-.331-.848-.736-.005-.015-.003-.03.024-.03m1.72 1.018c.23-.288.333-.625.357-.993a1.547 1.547 0 0 0-.3-1.016c-.355-.484-.949-.722-1.544-.768-.082-.006-.569-.02-.693.018-.023.008-.037.017-.049.016-.014-.002-.096-.338-.11-.457-.054-.411-.119-.701-.167-1.025a12.281 12.281 0 0 1-.09-.807c-.135-1.6-.088-2.391.045-3.956a1.17 1.17 0 0 0 0-.272.438.438 0 0 0-.334-.364c-.552-.147-1.08.4-1.352.838-.63 1.02-.424 3.107-.242 4.139.074.426.27 1.373.403 1.716.072.185.186.544.178.56-.008.017-.297.128-.562.229a5.158 5.158 0 0 0-.576.3c-.295.184-.496.336-.7.564a3.653 3.653 0 0 0-.298.447c-.165.373-.175.699-.028 1.097.037.102.242.532.378.519.196-.018.153-.344.205-.512a.688.688 0 0 1 .115-.205c.272-.321 1.184-.677 1.558-.79.053-.015.637-.194.724-.153.022.009.133.207.204.328a.956.956 0 0 0 .128.167c.356.383.881.744 1.403.85.231.048.682.01.91-.12.051-.03.222-.096.437-.35m-5.522-4.537a.248.248 0 0 0 .064-.02c.268-.117.268-.594.203-.821-.174-.594-.736-1.205-1.185-1.508-.267-.181-.816-.435-1.208-.51-.614-.116-1.156.045-1.485.542-.296.449-.428 1.005-.452 1.526-.067 1.5.406 3.69.988 4.94.078.169.462.95.821 1.077.356.126.512-.29.547-.605.046-.4-.083-.932-.184-1.362a68.262 68.262 0 0 1-.496-2.266c-.065-.357-.213-1.12-.16-1.511.028-.205.067-.311.224-.297.072.007 1.08.468 1.628.675.207.077.462.159.695.14m-7.447.69s.114-.002.233 0c.376.005 1.005.075 1.005.075s-.07.554-.128.909a4.996 4.996 0 0 1-.12.568c-.024.085-.08.322-.14.414l-.027.039s-.304-.59-.474-.996c-.136-.324-.204-.567-.298-.764a.439.439 0 0 1-.05-.163c-.004-.036 0-.081 0-.081m-2.016-.064s.18.405.321.71c.147.323.892 1.819 1.2 2.244.34.472.991 1.363.995 1.389.014.1.036.275.127.414.071.11.247.157.417.169.19.012.385-.13.47-.284.164-.297.444-1.14.503-1.34.327-1.12.68-3.213.795-4.29.03-.281.123-1.753.131-2.083.007-.232 0-.62-.133-.81a.295.295 0 0 0-.235-.13c-.125.004-.373.176-.482.279-.3.282-.5.57-.565.924-.056.308-.133 1.19-.133 1.19l-1.313-.051-.73-.013-.127-.313a9.098 9.098 0 0 1-.28-.78c-.095-.342-.28-1.025-.323-1.131-.092-.225-.174-.354-.39-.384-.242-.031-.407-.048-.58.047-.329.18-.478.559-.534.95-.098.669.173 1.207.45 1.999.117.334-.044.445-.32.877a.52.52 0 0 0-.08.158c-.009.045.033.16.093.208.02.015.025.017.06.02l.663.03zm-7.497 4.324s-.017.423-.052.659c-.03.199-.07.35-.165.504-.104.167-.184.273-.349.297-.203.03-.314-.108-.44-.307-.168-.268-.335-.767-.433-1.083a6.86 6.86 0 0 1-.28-1.237c-.126-.835-.254-2.26-.117-3.228.024-.167.066-.412.066-.412s.202.227.35.385c.062.07.362.517.388.565.052.09.191.327.21.376.03.05.245.515.283.623.073.207.178.527.26.782.19.589.156.807.28 1.458.013.077.025.617.012.618h-.013m-1.433-6.212l.142-.245a1.901 1.901 0 0 1 1.582-.95c.691-.033 1.578.366 2.084.718 1.446 1.006 2.206 2.819 2.621 4.555.488 2.038.511 4.185-.072 6.157-.337 1.144-.995 2.576-1.809 3.433-.243.255-.614.603-.72.743-.11.147-.137.27.03.367.178.104.567-.107.761-.225.951-.578 1.573-1.152 2.135-1.98.143-.21.713-1.15.818-1.346.64-1.205.967-2.256 1.142-3.586.221-1.695.08-3.62-.507-5.318a10.504 10.504 0 0 0-1.064-2.16 22.534 22.534 0 0 0-.772-1.038 13.43 13.43 0 0 0-.954-.852c-1.19-.956-2.48-1.581-3.893-1.41a3.801 3.801 0 0 0-2.038.86c-.239.195-.642.606-.804.896-.104.186-.235.414-.252.417-.018.005-.087-.043-.163-.096a4.101 4.101 0 0 0-.493-.23c-.97-.363-2.056-.278-2.946.3-.646.419-1.193 1.215-1.434 1.934-.357 1.068-.386 2.177-.24 3.314a13.05 13.05 0 0 0 1.977 5.374c.654 1.019 1.501 2.027 2.513 2.749.114.082.731.44.856.5.23.106.532.205.707.018.092-.097.088-.176.021-.304-.108-.2-.382-.47-.533-.631a31.372 31.372 0 0 1-1.03-1.268 41.491 41.491 0 0 1-1.027-1.538c-.956-1.655-1.715-4.28-1.642-6.313.015-.42.078-1.026.172-1.42.128-.532.444-1.253.92-1.588.5-.355.964-.335 1.562-.097.16.065.385.168.385.168s-.174.446-.288.78c-.314.936-.44 2.424-.324 3.448.095.842.282 1.484.662 2.153.304.533.71 1.057 1.22 1.492.49.419 1.274.784 1.965.8.573.016 1.165-.233 1.467-.754.523-.908.556-2.337.41-3.281-.223-1.425-.96-2.763-2.025-3.671-.382-.325-1.122-.875-1.122-.875m45.606 5.265a.872.872 0 0 0 .111-.033c.331-.126.468-.434.55-.77.19-.783.27-2.515.301-3.193.023-.508.036-1.011.057-1.512.018-.426.053-.994-.036-1.391a.659.659 0 0 0-.266-.398c-.158-.1-.516-.107-.713-.066-.486.1-.644.412-.713.89-.165 1.149-.085 3.398.012 4.347.032.313.15 1.316.314 1.737.056.143.176.428.383.389m-14.963-1.72s-.719-.052-1.213-.106c-.63-.067-1.812-.272-2.495-.517-.204-.073-.62-.247-.656-.457-.038-.22.096-.39.248-.566.087-.101.58-.576.718-.692.58-.483 1.754-1.23 2.62-1.591.297-.123.79-.3.79-.3s-.038 1.402-.032 2.78c.005.727.02 1.449.02 1.449m13.178-.557c.041-.378-.055-1.09-.072-1.183a5.313 5.313 0 0 0-.22-.775 8.62 8.62 0 0 0-.399-.8c-.236-.423-.797-1.095-1.129-1.383-1.237-1.071-3.152-1.68-4.796-1.88a12.193 12.193 0 0 0-3.577.106c-.407.074-1.01.213-1.01.213s.001-.244-.019-.413a1.771 1.771 0 0 0-.1-.35c-.086-.176-.228-.268-.432-.307-.247-.047-.51-.06-.739.036-.375.159-.51.51-.575.914-.054.325-.109.888-.109.888l-.515.25c-.72.356-1.403.784-2 1.226-.166.123-.877.719-1.034.869-.44.415-.837.834-1.138 1.367-.235.417-.302.787-.124 1.228.246.615 1.13 1.079 1.733 1.344.444.195 1.822.646 2.395.729.27.039.69.114.716.13.01.009.018.016.025.025.013.018.036.628.032.85-.006.22.161 1.659.216 1.965.028.163.152.797.281.965.082.112.23.103.35.028.656-.407.857-1.825.905-2.546.03-.438.044-1.1.044-1.1s.753.023 1.217.01c.45-.012.947-.083 1.415-.157.598-.096 1.765-.35 2.434-.69.552-.28 1.067-.75 1.234-1.248.155-.457.133-.773-.104-1.186-.266-.463-.769-.811-1.279-.84-.15-.007-.723.067-.899.204-.069.055-.065.152-.015.218.018.026.285.165.443.249.08.043.144.089.206.145.131.117.25.242.236.39-.018.195-.222.313-.418.39-.913.363-2.738.666-3.62.717-.345.02-.835.037-.835.037l.102-4.868s.407-.078.727-.13a19.09 19.09 0 0 1 1.168-.102c1.572-.043 3.33.098 4.773.78.633.298 1.215.67 1.655 1.173.581.665.885 1.575.805 2.527-.089 1.039-.82 2.27-1.404 3.022-1.542 1.984-4.186 3.616-6.51 4.572-2.375.974-4.723 1.537-7.242 1.63-.65.026-2.067-.01-2.783-.206-.102-.028-.205-.065-.3-.086a.758.758 0 0 1-.226-.093c-.018-.015-.036-.034-.036-.034s.044-.024.087-.043c.076-.032.395-.053.561-.083.147-.028.301-.105.361-.215.058-.102.066-.183-.004-.27-.162-.197-.773-.163-1.04-.12-.28.045-.629.13-.693.373-.074.287.062.568.21.827.295.52.718.79 1.338.96.88.24 1.991.41 2.823.442 1.882.072 3.662-.257 5.484-.811a26.315 26.315 0 0 0 3.41-1.325 26.974 26.974 0 0 0 2.482-1.4c.2-.131 1.373-.993 1.556-1.143.38-.312.876-.758 1.235-1.115.697-.69 1.562-1.747 1.983-2.584.1-.201.18-.4.31-.633a5.58 5.58 0 0 0 .268-.694c.033-.137.078-.336.086-.345.01-.074.097-.484.09-.641m8.106-.355a.622.622 0 0 0 .077-.01c.576-.078 1.14-.182 1.572-.375.402-.177.636-.4.851-.8.326-.605.347-1.454.053-2.094-.22-.48-.703-.88-1.146-1.093-.457-.222-.909-.327-1.426-.385a5.07 5.07 0 0 0-2.699.48c-.482.238-1.07.643-1.368 1.164a1.16 1.16 0 0 0 .055 1.244c.423.58 1.33.707 2.012.683.522-.018 1.46-.181 1.954-.356.138-.05.643-.247.732-.337.061-.062.102-.154.074-.24-.113-.345-.953-.528-1.195-.564-.65-.098-.987.147-1.725.438a2.552 2.552 0 0 1-.615.17c-.334.03-.738-.062-.802-.428-.033-.19.19-.364.358-.44.395-.17.717-.23 1.108-.237 1.151-.016 2.444.17 3.385.839.13.092.255.228.257.395 0 .025-.03.206-.089.225-.009.004-.017-.001-.026.002-.02.005-.056.065-.088.103-.067.083-.34.2-.392.223-.635.265-1.808.393-2.412.443-.634.054-1.63.139-1.87.172-.246.036-.513.086-.728.18-.213.098-.423.314-.485.554-.11.432.03.963.271 1.308.628.905 2.101 1.25 3.203 1.386 1.066.13 2.79.13 3.835-.426.161-.085.245-.167.21-.34-.067-.323-.31-.533-.607-.626-.309-.096-.95-.136-1.232-.152-1.263-.072-2.788-.035-3.989-.363-.094-.027-.257-.071-.31-.13-.188-.204.35-.262.465-.287.034-.006.041-.008.076-.012l2.656-.314zm3.938-4.72c-.51.187-.625 1.01-.648 1.425-.08 1.355.278 3.24.731 4.51.13.364.32.953.722.92.28-.025.477-.24.633-.46.4-.562.924-1.327 1.273-1.858.39-.596.762-1.195 1.13-1.738a.81.81 0 0 1 .138-.17c.065-.054.127-.057.152-.007.013.02-.01.704-.028.843-.028.216-.042.394-.065.583-.07.547-.244 1.318-.38 1.839-.15.583-.336 1.19-.473 1.755a2.377 2.377 0 0 0-.083.542c0 .253.162.392.426.297.517-.182 1.204-1.306 1.405-1.697.067-.132.337-.803.4-.991a8.227 8.227 0 0 0 .402-1.957c.058-.682.01-1.678-.279-2.35-.106-.25-.323-.582-.505-.75-.283-.261-.848-.468-1.238-.246-.426.242-1.126 1.455-1.246 1.664-.407.71-1.105 2.096-1.213 2.252a.2.2 0 0 1-.109.084c-.04.013-.058-.072-.069-.13-.069-.403-.118-2.294-.119-2.345-.01-.318-.027-1.1-.119-1.482-.06-.253-.119-.458-.35-.564-.165-.074-.289-.042-.488.032m7.024.119a2.48 2.48 0 0 0-.21.206c-.009.01-.193.287-.23.37-.03.072-.055.125-.078.186-.167.432-.163.856-.07 1.317.086.432.167.45.388 1.044a.35.35 0 0 1 .026.096c.01.08-.124.627-.13.803-.009.268.198.457.546.495.033.003.057 0 .08.008.14.034.226.3.303.515.105.299.271.756.271.756s-.44.1-.675.189c-.263.1-.46.228-.58.469-.142.282-.049.439.244.53.11.035.964.199 1.233.238.337.048.652.09.973.13.28.035 1.555.182 1.962.17.62-.016 1.021-.271 1.384-.795.195-.281.328-.615.034-.795-.453-.274-1.914-.293-2.183-.296-.427-.006-1.018.002-1.018.002l-.297-.994s1.048.009 1.637.012c.142 0 .286-.006.366-.024.301-.068.405-.298.418-.632.015-.39-.058-.57-.368-.621-.16-.025-1.96-.034-2.206-.063a11.742 11.742 0 0 1-.312-.042s-.13-.34-.242-.682c-.116-.358-.213-.72-.213-.72s.091-.005.167-.005c.127 0 .254.017.356.035.55.1 1.365.22 2.035.328.36.056.542.083.73-.157.165-.212.251-.388.262-.642.01-.24-.172-.4-.397-.571-.708-.542-1.919-1.13-2.82-1.23-.418-.047-.519-.001-.883.095-.069.018-.322.135-.32.148 0 0-.137.093-.183.127m11.381 5.003c-.465-.388-1.064-1.182-1.35-1.592-.38-.545-.742-1.17-1.085-1.655-.076-.108-.297-.497-.29-.511.016-.027.24-.018.468.02.49.084 1.154.426 1.51.71a3.178 3.178 0 0 1 1.094 1.726c.08.316.12.98-.105 1.274-.044.059-.156.102-.242.028m-3.686-5.69s-.147-.432-.254-.77a39.528 39.528 0 0 1-.692-2.646c-.142-.725-.546-2.623-.569-2.666-.027-.054-.046-.072-.116-.115-.167-.1-.233-.066-.436.04-.262.14-.494.282-.693.54-.395.516-.3 1.484-.222 2.053.271 1.988.545 2.865 1.303 4.843.013.032.012.04-.002.07a3.964 3.964 0 0 0-.364 1.6c.002 1.55.894 3.087 1.892 4.318.076.096.567.683.791.67.222-.01.26-.271.225-.488-.112-.718-.617-1.446-.96-2.05-.389-.675-.472-.955-.662-1.574a4.616 4.616 0 0 1-.103-.607c.008-.165.043-.375.043-.375s.632.882 1.047 1.427c.228.298.391.496.58.71.192.218.931.985 1.145 1.188.446.427.645.604 1.13.855.382.198.725.247 1.1 0 .592-.39.85-1.212.917-1.88.078-.8-.085-1.696-.437-2.38-.417-.811-.988-1.4-1.763-1.913-.793-.525-1.722-.883-2.633-.861a10.38 10.38 0 0 0-.267.01"/><path fill="#141006" d="M445.71 454.518a6.295 6.295 0 0 1-1.043 2.011c-.464.59-1.043 1.09-1.709 1.406-.66.317-1.425.423-2.112.236-.696-.169-1.25-.663-1.595-1.213a4.133 4.133 0 0 1-.44-.949 8.46 8.46 0 0 1-.42-1.663c-.128-.758-.216-1.523-.353-2.02-.017-.045-.03-.086-.048-.127-.114.082-.234.15-.356.203a1.896 1.896 0 0 1-.829.148 1.17 1.17 0 0 1-.257-.029 25.554 25.554 0 0 1-2.232 2.255c.48.274.841.662 1.063.95.196.204.304.354.308.354a.061.061 0 0 1 .005.057 5.973 5.973 0 0 0-.186.5c-.099.437-.209 1.093-.165 1.745a5.803 5.803 0 0 1 1.022 2.66c.098.577.131 1.198.072 1.813.167-.036.337-.057.511-.059.062-.065.13-.122.202-.175a1.833 1.833 0 0 1 1.158-.329 2 2 0 0 1 1.094.333c.372.245.646.642.767 1.071.305-.037.673.02.971.263.244.197.376.487.43.79.052.043.1.082.145.126.061.06.117.125.167.19.101.125.188.27.25.435.157.4.186.891.058 1.376.007.006.013.011.017.02.156.34.26.672.314.994l.04.213c.052.373.044.843-.169 1.293a1.72 1.72 0 0 1-1.18.93c-1.007.217-1.997.081-2.74.055-.098-.008-.193-.012-.283-.018-.24 0-.476 0-.708.007a4.495 4.495 0 0 1-.944.373c-.614.176-1.27-.028-1.779-.312a3.381 3.381 0 0 1-.28-.166 6.28 6.28 0 0 0-.76.066c.123.06.24.125.346.195.267.136.592.346.87.64.148.046.298.094.444.151 1.206.42 2.286 1.422 2.53 2.655a3.132 3.132 0 0 1-.026 1.468c.383.322.703.841.83 1.59.22 1.307-.74 2.14-1.54 2.111-.8-.026-1.284-.89-1.34-2.035l-.01-.204a3.13 3.13 0 0 1-.343-.045 5.619 5.619 0 0 1-.783 2.625c-.552.94-1.457 1.804-2.604 2.355a6.886 6.886 0 0 1-3.123.685c.977.962 1.412 2.291 1.02 3.531-.594 1.866-2.854 2.815-5.047 2.118-2.193-.696-3.49-2.776-2.895-4.645.41-1.293 1.616-2.143 3.046-2.317a6.241 6.241 0 0 1-2.312-3.499c-.712 1.51-2.16 2.46-3.676 2.25-1.943-.269-3.26-2.336-2.945-4.615.315-2.278 2.144-3.91 4.086-3.642 1.272.176 2.276 1.124 2.73 2.397.118-.34.264-.663.432-.965 1.15-2.1 3.125-3.209 4.7-3.589-.213-.029-.469-.043-.84-.11a7.745 7.745 0 0 1-.388-.06 11.719 11.719 0 0 1-3.38-1.167c-.829-.452-1.603-1-2.206-1.564-.659.121-1.382-.06-1.847-.5l-.042-.044c-.07.003-.14.003-.208.002-.43 0-.946-.07-1.474-.28-.687-.256-1.36-.762-1.865-1.398-.506-.633-.849-1.42-.883-2.167-.03-.557.09-1.102.35-1.453a.988.988 0 0 1 .25-.26c-.002-.016-.003-.03-.007-.045-.036-.364-.093-.826.135-1.287.26-.464.767-.637 1.24-.757.006-.264.051-.547.202-.823.272-.482.847-.727 1.383-.787a2.95 2.95 0 0 1 1.398.21c.405.146.791.382 1.101.716.311.331.513.775.563 1.233.345-.049.825-.076 1.285.181.531.27.894.888.988 1.51.201 1.168-.252 2.351-.8 2.884.321.337.544.802.548 1.295.36.246.726.5 1.11.71.151.09.303.172.457.25.15.071.301.138.454.198 1.073.467 2.305.56 2.994.61l.001-.008c.002-.003.054-.168.105-.448a5.76 5.76 0 0 0-.118-2.454c-.287-1.092-1.325-2.059-1.518-3.419a4.428 4.428 0 0 1-.083-.78c-.868-.806-1.947-1.424-3.026-1.915-1.184-.534-2.385-.988-3.559-1.417-2.346-.849-4.693-1.628-6.362-2.803-.828-.573-1.54-1.262-1.81-2.074-.133-.404-.113-.833.051-1.165.157-.338.44-.559.715-.675.562-.23 1.05-.159 1.355-.123.313.05.473.102.473.1 0 .006-.163-.039-.474-.072-.307-.026-.793-.074-1.323.166-.537.207-.954.96-.657 1.722.273.751.972 1.391 1.798 1.935 1.661 1.104 3.832 1.88 6.192 2.692 1.182.412 2.393.838 3.602 1.374.996.445 2.186.858 3.053 1.581.084-.818.331-1.6.585-2.28.123-.332.234-.656.328-.967a4.534 4.534 0 0 0-1.416-.85 2.715 2.715 0 0 1-.246.202c-.17.132-.365.254-.593.348a1.94 1.94 0 0 1-.71.158 3.623 3.623 0 0 1-.985.194c-.09.006-.186.012-.286.012-.865-.034-1.959-.528-2.755-1.34a4.956 4.956 0 0 1-.91-1.298c-.504-.94-.754-2.062-.778-3.184.011-1.178.395-2.352 1.111-3.22.787-.788 1.771-1.11 2.6-1.315a10.066 10.066 0 0 1 2.558-.355 6.728 6.728 0 0 1 2.943.57 5.54 5.54 0 0 1 1.586 1.058c.291.275.552.597.756.972.357.648.36 1.488.014 2.095a2.017 2.017 0 0 1-.2.308 2.392 2.392 0 0 1-.732.69c-.556.337-1.164.463-1.603.51-.006 0-.013 0-.02.004l-.049.008h-.002a9.993 9.993 0 0 1-.2.287l-.04.072a6.503 6.503 0 0 1-.253.402c-.048.07-.099.137-.15.208l-.005.02-.016.071s-.029.145-.026.145a8.516 8.516 0 0 1 1.765.722c.26.127.5.263.713.406.393.004.82.04 1.247.135.807-.774 1.99-1.965 3.061-3.245.154-.177.3-.347.443-.516v-.038c.005-.1.013-.2.025-.299.057-.595.291-1.315.93-1.837.062-.052.128-.095.195-.14v-.253c-.006-.427.054-.952.333-1.465a2.25 2.25 0 0 1 .792-.842c.343-.225.765-.317 1.16-.352.87-.07 1.687.144 2.373.444.153.062.303.13.45.2a8.984 8.984 0 0 1 3.254 2.764c.867 1.207 1.477 2.654 1.662 4.17.101.764-.009 1.557-.239 2.28"/><path fill="#fff" d="M421.656 459.165l.001.035.037.039c.345.372.626.84.75 1.249.068.206.081.376.078.485.003.062 0 .204-.055.23-.006.003-.01.01-.025.006a.03.03 0 0 1-.02-.003c-.002 0-.004-.003-.004-.003-.01-.006-.014-.014-.018-.015 0-.002-.002-.003-.003-.005-.006-.012-.007-.023-.009-.042a1.59 1.59 0 0 0-.182-.554c-.158-.316-.449-.711-.795-1.082-.134-.148-.278-.286-.416-.422l-.003-.004a5.834 5.834 0 0 1-.554-.586c-.208-.266-.115-.487-.09-.435.05.108.104.184.196.266.103.093.313.19.45.297.077.062.144.118.215.174-.146-.571-.592-1.097-1.206-1.39a2.926 2.926 0 0 0-1.442-.228c-.53.056-.968.283-1.169.606-.22.349-.228.797-.235 1.157v.057c.033.724-.096 1.277-.165 1.342-.004.009-.01.018-.027.018-.003 0-.004.004-.008.004s-.007-.004-.01-.003c.002-.001.003.003.005.003h-.007c-.003 0-.003-.004-.005-.004l-.008-.005h-.002l-.012-.004v-.002c.004.003.01.006.016.006h.002c-.01 0-.015-.007-.022-.013v-.002h-.005v-.003.003c-.005-.004-.005-.01-.008-.018l-.003-.001v-.003h.006c0-.005-.002-.006-.002-.008 0 .002-.004 0-.004.003l.001.003v-.02l.003-.021.002-.004c.003-.017.01-.038.015-.067.007-.047.07-.486-.018-1.193a.033.033 0 0 0 .012.023c-.012-.01-.012-.01-.019-.12l-.005-.1c-.49.133-.8.31-.936.54-.206.36-.194.826-.187 1.136.075 1.016.077 1.196.05 1.249-.005.008-.008.005-.012.008-.002.006-.002.01-.007.015l-.008.004h-.003l-.004.002h-.003c-.004.003-.007.006-.016.006.002 0 .002-.003.004-.003h-.01a.052.052 0 0 1-.054-.05c0-.014.002-.026.008-.035l-.005.01c.005-.032-.037-.273-.077-.505l-.008-.041-.06-.351a.927.927 0 0 0-.102.12c-.19.315-.274.809-.22 1.322.066.652.376 1.358.876 1.98.48.606 1.087 1.088 1.711 1.36a3.994 3.994 0 0 0 1.348.34c-.302-.396-.452-.908-.38-1.36.014-.12.042-.24.081-.363.255-.864 1.042-1.417 2.053-1.436.106-.008.218-.006.343 0 .404.024.997.134 1.53.522.053.035.11.085.173.138.214-.274.394-.666.502-1.118a3.876 3.876 0 0 0 .062-1.55c-.096-.594-.395-1.094-.799-1.334-.37-.237-.767-.261-1.083-.252"/><path fill="#fff" d="M420.916 466.343a4.22 4.22 0 0 1-.276-.31 1.849 1.849 0 0 1-.233-.42c-.206-.444-.19-.858.05-1.226.17-.26.594-.508 1.156-.478.105 0 .209.013.308.031.454.09.889.344 1.299.61a1.807 1.807 0 0 0-.628-.996c-.453-.359-.981-.492-1.344-.54a3.083 3.083 0 0 0-.37-.023c-.86.035-1.52.486-1.758 1.207a1.62 1.62 0 0 0-.071.388c-.042.482.189 1.006.587 1.34.33.286.794.432 1.28.417"/><path fill="#fff" d="M427.696 451.125c.005 0 .032-.008.084-.018.296-.065 1.196-.258 1.956-.733.264-.157.5-.355.686-.572.064-.092.12-.186.161-.27.281-.554.261-1.248-.05-1.815a3.848 3.848 0 0 0-.727-.943 5.562 5.562 0 0 0-1.456-.936c-1.791-.825-3.878-.633-5.313-.325-.7.198-1.716.553-2.434 1.314-.619.78-.993 1.911-1 3.028.026 1.122.265 2.167.693 3.021.257.477.561.89.901 1.228.718.737 1.71 1.276 2.531 1.373.121.011.239.012.351.008.078-.005.179-.026.271-.04-.017-.006-.035-.007-.052-.015a2.011 2.011 0 0 1-1.226-1.035 2.381 2.381 0 0 1-.167-1.676 2.32 2.32 0 0 1 .984-1.363c.542-.347 1.13-.42 1.528-.42.502 0 1.002.18 1.338.485.173.153.315.337.423.547.031.053.056.118.083.18l.002-.009.087-.186.045-.05c0-.003.094-.103.094-.103l.199-.21.135-.149.054-.056a.327.327 0 0 1 .024-.027c.029-.04.053-.076.079-.114a2.847 2.847 0 0 1-.278 0c-.125-.01-.102-.09-.006-.119"/><path fill="#fff" d="M426.167 454.841c.047-.033.086-.068.128-.1a7.146 7.146 0 0 0-.808-.227c-.16-.02-.333-.041-.5-.057-.08-.008-.156-.018-.23-.027a.907.907 0 0 0 .118.169c.003 0 .003.004.005.004a.02.02 0 0 0 .006.009c.004.006.008.01.011.017a.033.033 0 0 0-.016-.015c.01.004.022.015.022.04v.011c-.002.01-.01.014-.017.02-.003.007-.003.014-.007.017h-.006s0 .003-.003.004c.002-.001.001-.003.002-.004-.01.007-.023.006-.035 0h-.002l.001.003a.03.03 0 0 0 .034 0v.003-.002a.041.041 0 0 1-.022.006c-.007 0-.01 0-.02-.003l-.004-.001-.007-.003s0-.002-.002-.002v.002-.002l-.002-.001c-.083-.035-.298-.182-.406-.508-.124-.346-.126-.914.15-1.403.096-.191.248-.346.452-.463.073-.051.157-.096.25-.137.484-.174.994-.11 1.404-.057h.005c.136.024.255.046.371.07l-.026-.055a1.644 1.644 0 0 0-.432-.522c-.3-.25-.724-.382-1.158-.362-.352.014-.868.092-1.329.402a2.012 2.012 0 0 0-.815 1.155 2.06 2.06 0 0 0 .125 1.413c.196.416.56.74.996.885.75.284 1.43-.052 1.767-.279"/><path fill="#de1f2a" d="M434.161 457.332c.001.001-.008 0-.017-.008-.133-.08-.904-.48-1.687-.5-.25.162-.506.31-.758.437-.018.14-.06.328-.167.461-.097.149-.222.276-.322.38a5.025 5.025 0 0 1-.682.533c-.174.109-.35.21-.528.299-.204.104-.227.1-.242.1-.008 0-.016 0-.022-.005-.005-.006-.016-.015-.02-.031a.04.04 0 0 1-.004-.032c.003-.021.013-.027.066-.065l.025-.018a9.71 9.71 0 0 0 .553-.403 6.339 6.339 0 0 0 .578-.522c.006-.01.017-.022.043-.052.13-.141.245-.29.316-.445l-.015.006-.054.026a7.44 7.44 0 0 1-1.625.503l.005-.001c-.002 0-.005-.002-.008 0a.063.063 0 0 1-.07-.065s.002 0 .002-.002c0-.006.003-.01.005-.015 0 .002-.004 0-.005.002.002-.002.004 0 .005-.003s.001-.006.004-.008c.013-.017.027-.021.107-.044l.008-.001c.197-.062.721-.224 1.373-.553a9.969 9.969 0 0 0 1.374-.85 10.172 10.172 0 0 0 1.064-.881c.006-.008.013-.012.02-.02-.654.18-1.662-.015-2.58-.53a17.126 17.126 0 0 1-.875-.5c-.535-.316-1.04-.617-1.453-.701-.035-.006-.075-.006-.115-.008a7.126 7.126 0 0 1-.226 1.636v.003-.003.002l-.003.013v-.006.014c-.093.37-.212.77-.354 1.19-.38 1.14-.7 2.366-.459 3.59.09.679.428 1.282.757 1.862l.005.012c.274.487.558.99.692 1.535.033.137.06.282.081.427a1.31 1.31 0 0 1 .244-.308c.25-.222.595-.4 1.056-.541.758-.228 1.675-.303 2.652-.223.122-.218.325-.403.582-.526.604-.275 1.227-.137 1.545-.028.307.102.598.268.89.504a1.84 1.84 0 0 1 .177-.072 7.536 7.536 0 0 0-.057-1.984 7.153 7.153 0 0 0-.22-.825c-.159-.543-.505-1.423-1.258-2.528l-.019-.03c-.026-.034-.037-.053-.034-.081.008-.06.06-.05.06-.05a.04.04 0 0 1 .021.007c.023.012.052.039.164.157.064.07.163.18.276.318a4.78 4.78 0 0 1 .28-1.205c.054-.177.121-.358.197-.541a4.129 4.129 0 0 0-.26-.3c-.4-.342-.786-.61-1.147-.8l-.09.079c0 .154-.008.308-.08.489a.48.48 0 0 1-.12.167c.002 0-.09.084-.09.084a.931.931 0 0 1-.083.073.76.76 0 0 0-.05.048l-.058.047c-.182.16-.394.323-.617.485.395.095.725.27.93.41.143.097.305.253.362.309.057.056.095.17-.045.107"/><path fill="#fff" d="M427.882 470.228l.028-.045.03-.049.032-.05.234-.375a7 7 0 0 0-1.594.632 6.345 6.345 0 0 0-.339.239 7.85 7.85 0 0 0-.496.457c-.43.446-.733.91-.896 1.38-.212.584-.178 1.24.093 1.754.261.512.755.933 1.356 1.16.611.237 1.224.248 1.631.216a5.05 5.05 0 0 0 .648-.095c.314-.082.631-.198.942-.343l.17-.079c.02-.012.047-.007.066.01a.06.06 0 0 1 .005.072 11.945 11.945 0 0 0-.615 1.139c-.112.27-.195.491-.263.69-.517 1.526-.635 2.837-.348 3.898.101.351.267.646.48.853.264.26.602.325.84.334.525.024 1.09-.165 1.68-.558.213-.145.412-.296.592-.45.26-.25.505-.521.73-.811l.12-.151c0-.004.002-.004.004-.007a.06.06 0 0 1 .056-.01c.026.006.046.03.042.056l-.017.194c-.012.122-.03.385-.038.602a5.724 5.724 0 0 0 1.436-1.536 5.422 5.422 0 0 0 .813-2.482 2.295 2.295 0 0 1-.273-.089 4.045 4.045 0 0 1-.12.96 3.277 3.277 0 0 1-.252.696c-.047.087-.12.217-.232.332a.405.405 0 0 1-.296.141.26.26 0 0 1-.217-.115.04.04 0 0 0 .03.016.039.039 0 0 1-.038-.04l.004.016c-.117-.236-.092-.445-.069-.648.002-.023.003-.044.007-.065l.008-.095c.027-.219.065-.43.102-.634l.013-.076v.006l.07-.387c.048-.276.088-.486.128-.672a2.958 2.958 0 0 1-.37-.433c-.014-.016-.055-.093-.023-.117.012-.007.032-.018.072.003.016.006.03.017.063.05.077.076.313.31.686.533.311.192.732.307 1.157.325-.002-.887.25-1.414.755-1.56.352-.1.777-.023 1.15.2a2.91 2.91 0 0 0-.037-1.182c-.116-.532-.408-1.04-.845-1.473a4.14 4.14 0 0 0-1.516-.94c-1.483-.557-3.216-.566-4.64-.027a4.152 4.152 0 0 0-1.596 1.046c-.44.46-.693.918-.836 1.24.261.037.523.06.802.06.121.006.072.083.072.083-.032.065-.36.13-.399.136a2.112 2.112 0 0 1-.816 0c-.613-.109-1-.622-1.014-.664a.068.068 0 0 1 .008-.055l.006-.007a.068.068 0 0 1 .045-.017c.005 0 .01.003.012.003l.016.01.008.004c.188.12.56.324.963.394.27-.382.44-1.024.505-1.92.033-.402.084-.878.23-1.376.167-.585.417-1.009.766-1.298.386-.326.963-.437 1.507-.29.508.14.908.428 1.244.687.185.145.357.29.502.413.44.371.855.72 1.256.846l.004.001c.16.021.287.047.416.073a5.108 5.108 0 0 0-.388-.317 3.582 3.582 0 0 0-.438-.235.1.1 0 0 1-.039-.03l.003.003a10.85 10.85 0 0 0-.595-.575c-.065-.052-.132-.108-.206-.163-.718-.572-1.41-.922-2.057-1.04a1.684 1.684 0 0 0-1.128.147c-.324.17-.577.433-.803.696-.576.718-.67.825-.704.854v.001c-.097.101-.13 0-.085-.08"/><path fill="#fff" d="M434.312 477.307a.196.196 0 0 1-.16.001l-.009.061c-.03.205-.059.415-.082.636l-.008.083c-.017.204-.039.443.036.586.016.02.033.027.057.026.098-.01.252-.195.331-.355.1-.19.186-.41.256-.648.123-.413.161-.769.173-1a2.107 2.107 0 0 1-.212-.109c-.103.504-.263.67-.382.72"/><path fill="#de1f2a" d="M431.87 469.789c-.292-.207-.646-.431-1.05-.532-.445-.112-.912-.021-1.214.237-.558.49-.748 1.262-.856 1.963.497-.05.986-.268 1.254-.567a1.92 1.92 0 0 0 .386-.596c.02-.044.027-.061.053-.073.004-.005.01-.005.015-.005.01 0 .016.008.022.014.01.003.019-.001.026.003.008.009 0 .02.004.03l-.014-.01v.004c.006.003.012.008.014.014 0 0 .004 0 .004.004 0 .003.006.003.006.006l-.002.014v.008a1.743 1.743 0 0 1-.208.555c.376-.031 1.17-.146 1.57-.622.138-.168.055-.35-.01-.447"/><path fill="#fff" d="M437.812 468.88c-.004 0 .56.024 1.065-.156.172-.048.36-.128.557-.235.11-.103.204-.2.296-.295-.09.02-.184.04-.26.035a.828.828 0 0 1-.36-.075s-.115-.1.026-.107h.004l.015.003c.082-.003.55-.059.894-.33.107-.072.22-.164.33-.268.084-.109.163-.22.235-.327.38-.658.598-1.293.648-1.885.036-.464-.079-.852-.314-1.063-.279-.26-.672-.297-.946-.242-.086.015-.168.033-.247.048l-.085.018-.009.003a3.532 3.532 0 0 1-.355.06c.216.188.244.223.247.242a.059.059 0 0 1-.022.06l-.003.001c-.049.03-.36.003-.582-.172-.252-.186-.28-.525-.246-.576.01-.014.022-.023.036-.024a.058.058 0 0 1 .04.006c.011.006.023.015.027.03a.08.08 0 0 1-.004-.01c.013.018.172.181.34.3.01 0 .022-.003.031-.004.093-.012.208-.052.34-.094l.058-.018.102-.035c.051-.016.104-.035.158-.05-.176-.58-.709-1.03-1.343-1.12a1.674 1.674 0 0 0-1.142.288 1.366 1.366 0 0 0-.547.96c-.036.238-.003.471.03.697a3.73 3.73 0 0 1-.012 1.228 2.278 2.278 0 0 1-.05.228c-.024.082-.034.105-.063.114 0 0-.062.016-.073-.082l.002-.008a4.133 4.133 0 0 0-.019-1.052c-.01-.097-.035-.198-.059-.307l-.008-.033v-.009c-.056-.237-.118-.506-.094-.807.007-.216.076-.444.181-.656-.485.08-.959.31-1.276.645-.209.245-.336.52-.378.813-.11.511-.093 1.042-.079 1.514l.002.083c.004.148.008.288.006.418.02.473-.089.852-.162.956-.046.08-.13.052-.105-.033l.001-.012.003-.012.002-.004.004-.016c.004-.013.083-.349.002-.862a4.533 4.533 0 0 0-.025-.22l-.015-.126c-.054-.414-.126-.977-.046-1.55a1.17 1.17 0 0 0-1.125.426c-.31.37-.394.87-.438 1.354-.043.45-.015.897.086 1.332.117.46.317.876.592 1.24.322.431.745.792 1.226 1.042.595.312 1.103.401 1.552.272a4.559 4.559 0 0 0 1.197-.536c-.166.002-.34-.017-.37-.06a.054.054 0 0 1 .001-.062.045.045 0 0 1 .032-.02.023.023 0 0 0-.01.002l.027-.01a5.19 5.19 0 0 0 .794-.276c.123-.045.256-.106.397-.183.073-.057.15-.122.228-.187a1.853 1.853 0 0 1-.592.011c-.118-.02-.384-.082-.412-.138 0 0-.048-.068.062-.083"/><path fill="#fff" d="M434.948 462.74c-.28-.069-.826-.153-1.316.074-.252.11-.446.308-.502.518a.485.485 0 0 0 .08.425c.175.3.425.525.646.714a1.47 1.47 0 0 1 .81-.06c.093-.349.28-.67.516-.882.166-.174.361-.322.58-.442a3.02 3.02 0 0 0-.814-.347"/><path fill="#de1f2a" d="M430.39 454.311c.118-.092.29-.234.49-.403a10.453 10.453 0 0 0-1.715-.162c.391.134.813.343 1.225.565"/><path fill="#fff" d="M441.934 466.94c.171-.462.186-.964.045-1.384a1.497 1.497 0 0 0-.359-.583l-.005-.004c.006.099.006.199-.002.297-.063.675-.332 1.352-.795 2.01-.283.454-.65.907-1.09 1.35a2.35 2.35 0 0 0 1.356-.511c.404-.314.705-.731.85-1.175"/><path fill="#fff" d="M438.237 444.99c-.725.027-1.394.409-1.748 1-.235.379-.363.83-.394 1.38v.059c.378-.18.797-.246 1.192-.175.563.094 1.094.468 1.42 1 .57.947.577 2.24.017 3.214a2.493 2.493 0 0 1-.572.677c.01.02.017.04.026.062l.015.042c.24.544.417 1.41.523 2.04l.017.113.014.088c.085.524.166 1.02.27 1.427.112.339.254.638.434.91.371.568.891.953 1.462 1.086 1.342.347 2.728-.54 3.507-1.574a6.344 6.344 0 0 0 .981-1.917 5.22 5.22 0 0 0 .22-2.145c-.173-1.405-.722-2.798-1.589-4.025a8.768 8.768 0 0 0-3.118-2.707 8.14 8.14 0 0 0-.388-.18c-.808-.312-1.579-.437-2.289-.374"/><path fill="#fff" d="M435.083 449.423l.116-.139.476-.569c-.002.002-.003.006-.005.007a.047.047 0 0 1 .04-.024.038.038 0 0 0-.019.004c.38-.216.834-.092 1.095.115.092.068.18.147.258.239a2.284 2.284 0 0 1 .582 2.015c-.018.101-.05.21-.102.346l.002-.014c0 .019-.009.026-.014.031l.007-.006a1.28 1.28 0 0 1-.155.211l-.016.02c-.017.021-.035.04-.054.068-.112.14-.227.278-.34.411l-.016.019a6.806 6.806 0 0 1-.186.218l.06.006c.076 0 .14 0 .2-.008a1.92 1.92 0 0 0 1.427-1.063c.217-.404.333-.904.33-1.407a2.812 2.812 0 0 0-.393-1.445c-.272-.44-.703-.756-1.155-.842-.45-.09-.946.024-1.329.31-.64.482-.845 1.193-.913 1.624l.104-.127z"/><path fill="#141006" d="M432.063 476.825c.009-.029.02-.054.03-.083.23-.636.519-1.085.938-.973.362.097.526.642.467 1.4a2.068 2.068 0 0 1-.006.108 5.955 5.955 0 0 1-.341 1.515 3.464 3.464 0 0 1-.393.793c-.166.234-.424.532-.808.464-.203-.052-.286-.247-.326-.392a2.048 2.048 0 0 1-.054-.459 4.867 4.867 0 0 1 .082-.876c.1-.56.255-1.069.41-1.497"/><path fill="#141006" d="M441.313 449.896c.004-.005.008-.006.011-.01 0 0 0 .004-.002.004.005 0 .014-.008.017-.008-.003 0-.007-.001-.01.002a.037.037 0 0 1 .021-.008h.002a.023.023 0 0 0 .011.002c-.003 0-.005.003-.007.003.013.003.026.01.028.024a.039.039 0 0 1-.012.036c-.055.049-.858 1.014-1.347 2.096a16.168 16.168 0 0 0-.923 2.335c.002-.008-.002-.014-.007-.02.005.006.01.012.006.02a.035.035 0 0 1-.025.027c-.014.003-.027-.003-.037-.012l.001.003c0-.001 0-.003-.002-.004-.005-.005-.007-.014-.005-.025 0 .006.002.01.004.015-.002-.004 0-.02-.002-.027 0 .002 0 .002-.002.003.002-.004.002-.006.002-.01-.009-.117.055-.52.115-.795.09-.424.263-1.06.566-1.663.49-1.077 1.41-1.888 1.597-1.988"/><path fill="#141006" d="M417.775 462.72c-.395-.41-.625-.954-.613-.954.002.002.392.41.773.804.373.405.734.849.73.855a4.118 4.118 0 0 1-.89-.704"/><path fill="#141006" d="M418.247 464.243c.001.011-.45-.038-.83-.26-.388-.213-.647-.59-.638-.593.005 0 .383.21.746.403.356.208.722.447.722.45"/><path fill="#141006" d="M418.348 460.943c.003 0 .283.412.507.835.219.43.373.905.368.91a3.856 3.856 0 0 1-.562-.81c-.23-.432-.324-.932-.313-.935"/><path fill="#141006" d="M432.704 462.142a.752.752 0 0 1-.593-.079 1.447 1.447 0 0 1-.417-.367l-.044-.053c-.264-.335-.461-.802-.543-1.327-.06-.506-.083-1.145.369-1.608.242-.226.638-.214.884-.039.252.165.411.406.533.641.239.478.329.97.355 1.386l.004.06c.042.66-.111 1.253-.548 1.386"/><path fill="#141006" d="M435.146 459.22c.164.173.274.374.36.572.172.388.23.793.205 1.133-.008.326-.081.639-.211.864-.087.15-.192.246-.306.278a.426.426 0 0 1-.34-.062c-.177-.112-.341-.335-.471-.627a3.376 3.376 0 0 1-.297-1.068 2.697 2.697 0 0 1-.001-.666c.038-.218.083-.493.353-.648.297-.13.559.065.708.225"/><path fill="#141006" d="M428.038 450.787h.002c-.148.074-1.628.227-3.001-.239-.757-.226-1.436-.604-1.872-.882a9.322 9.322 0 0 1-.566-.394c-.225-.171-.223-.18-.22-.201.002-.017.017-.029.034-.03.005 0 .023.01.03.013v-.003c0 .002.006.005.007.006.013.005.02.006.047.02 1.178.645 2.088.976 2.643 1.141 1.319.45 2.782.522 2.882.5.082.004.062.049.014.069"/><path fill="#fff" d="M432.564 479.446c.17-.237.293-.517.382-.733.19-.494.323-.997.38-1.454a3.48 3.48 0 0 0 .022-.239c.022-.497-.068-.85-.233-1.008.023.198-.004.454-.118.762-.14.374-.35.65-.575.755a.416.416 0 0 1-.32.021c-.02-.007-.036-.03-.055-.042a9.22 9.22 0 0 0-.176.847 4.846 4.846 0 0 0-.063.84c.007.138.026.567.204.618.193.042.418-.17.552-.367"/><path fill="#fff" d="M431.658 458.916c-.352.346-.345 1.006-.31 1.37.057.482.213.928.44 1.257.002 0 .003 0 .004.003l.002.003.008.01.004.007v.003c.12.155.25.27.387.347a.605.605 0 0 0 .462.067c.302-.094.472-.567.43-1.21 0-.011-.003-.023-.004-.037a3.667 3.667 0 0 0-.402-1.309c-.141-.253-.293-.426-.461-.531-.185-.122-.413-.113-.56.02"/><path fill="#fff" d="M435.148 461.896c.068-.018.14-.086.203-.196.107-.189.176-.481.188-.783 0-.331-.09-.695-.252-1.022a1.826 1.826 0 0 0-.332-.486c-.114-.12-.286-.221-.396-.166-.142.07-.197.355-.21.441a2.577 2.577 0 0 0-.02.603c.027.403.11.771.237 1.068.111.241.242.414.38.5.07.044.14.058.202.041"/></g></svg>