<svg xmlns="http://www.w3.org/2000/svg" role="img" viewBox="-7.65 -7.40 369.55 384.80"><title>Warner Bros. Entertainment Inc. logo</title><path fill="#007ac2" d="M177.25826.00034C168.59542 1.8491 92.35484 11.83156 82.8636 16.57465c-2.18718 4.37941-6.75853 18.04297-8.20823 20.20488-6.12713 1.31837-30.9564 6.04126-32.51722 6.94544-.87386 2.62662-6.57922 13.84033-7.89253 15.15364C28.9873 60.19193 4.47373 64.73676 1.41269 66.929-.33503 77.43552-7.00769 182.56657 36.77123 251.2985c43.77891 68.73194 120.34781 114.4821 140.48703 118.86151h.15783c20.13921-4.37941 96.55027-50.12956 140.32919-118.86151 43.77387-68.73698 37.27422-173.86298 35.51638-184.3695-3.06609-2.19224-27.58469-6.73707-32.83293-8.05039-1.31332-1.3133-7.01363-12.52702-7.89252-15.15364-1.55578-.90418-26.38-5.63212-32.51723-6.94544-1.4497-2.1619-6.016-15.82547-8.20824-20.20488-9.46092-4.72794-85.76842-14.6902-94.55249-16.5743zm0 26.83461c7.50611 1.6063 72.73251 10.32342 80.8195 14.3644 1.86391 3.74295 5.71294 15.35696 6.94544 17.20571 5.23811 1.12138 26.60603 5.06763 27.93956 5.84047.74757 2.24274 5.5033 11.98024 6.62971 13.10162 4.49053 1.12136 25.48087 4.91861 28.0974 6.78756 1.50022 8.98107 7.11214 98.78923-30.30731 157.53491-37.41943 58.75072-102.75189 97.91788-119.96645 101.65578h-.15783c-17.21457-3.73791-82.54704-42.9101-119.96648-101.65578C19.87742 182.92394 25.48933 93.11578 26.9845 84.13472c2.62158-1.874 23.60687-5.6662 28.0974-6.78757 1.12643-1.12138 5.88215-10.85888 6.62973-13.10162 1.33352-.77284 22.5436-4.71909 27.7817-5.84047 1.23755-1.84875 5.23433-13.46276 7.10328-17.20572 8.10721-4.05612 73.25658-12.78842 80.66166-14.36439z"/><path fill="#007ac2" d="M189.25491 55.56375c-2.4594.24246-2.82617 1.96367-2.84131 2.68346-.50512 84.08261-.26519 173.28336-.94711 259.66425.55562 2.7327 4.91357-1.46739 7.41897-2.84131 31.8934-17.53279 131.36959-113.87469 74.18979-148.37957 43.78396-28.63031 35.98109-55.95362 16.57431-70.87492-40.1269-30.868-85.9086-38.53196-91.23764-39.9362-1.33226-.35106-2.33722-.39652-3.15701-.3157zm26.67674 34.5693c.62131-.33845 26.34212 9.197 40.40976 18.78422 16.12853 10.99145 10.66818 21.55481 1.2628 27.93955-5.10678 3.48029-36.70973 26.17794-41.98826 27.466-.1162-4.3794-.13894-53.76265.3157-74.18978zm23.51975 96.13101c3.5236.10844 6.87091 1.23502 9.31319 3.78841 2.18212 2.08616 11.80089 12.45504-8.68179 42.14611-7.62733 13.46655-23.62076 30.35656-25.41394 32.04367-.21723.0606-.30686-.27403-.47356-.15785.1667-9.65287-.0921-56.38171.47356-69.45426 1.13272-.59099 14.21168-8.69141 24.78254-8.36607zM80.52868 85.84076c-2.62159 1.12138-24.95303 15.34057-27.20082 17.58331-.6213 19.82098 4.69258 73.29824 24.26606 115.03646 2.4751 5.27852 5.16234 10.22872 8.07185 14.70915 5.5816 9.63772 5.89477 8.87499 12.39064-.35359 4.50063-6.08672 10.99144-15.11325 12.61794-16.97209 2.24274 7.48085 16.74479 54.14401 37.14162 82.34497 9.04167 12.51187 22.92747 24.33172 22.87191 19.46235-.55563-47.64815-1.91946-253.89954-.4243-262.30476-6.016-.14146-25.75111 2.42963-29.65571 4.45517-.32327 7.54146 2.71251 148.96551.84356 165.04859-13.82519-33.68153-18.54302-122.56277-15.81032-159.23463-7.48085 1.49515-25.72585 8.81437-28.34239 11.43594-3.3641 6.73328 1.22745 80.58212 6.0059 105.36845-1.63154 2.57107-6.33423 9.55186-7.0818 10.67323-9.466-17.02767-18.51273-69.67147-15.69414-107.25255z"/></svg>