<svg xmlns="http://www.w3.org/2000/svg" role="img" viewBox="-7.40 -7.40 369.30 384.80"><title>Warner Brothers logo</title><path fill="#007ac2" d="M177.258 0c-8.663 1.85-84.903 11.832-94.394 16.575-2.188 4.38-6.759 18.043-8.209 20.205-6.127 1.318-30.956 6.04-32.517 6.945-.874 2.627-6.58 13.84-7.892 15.154-5.259 1.313-29.772 5.858-32.833 8.05-1.748 10.507-8.42 115.638 35.358 184.37C80.551 320.03 157.12 365.78 177.258 370.16h.158c20.14-4.38 96.55-50.13 140.33-118.862 43.773-68.736 37.274-173.862 35.516-184.369-3.066-2.192-27.585-6.737-32.833-8.05-1.314-1.314-7.014-12.527-7.893-15.154-1.556-.904-26.38-5.632-32.517-6.945-1.45-2.162-6.016-15.826-8.208-20.205C262.35 11.847 186.042 1.885 177.258 0zm0 26.835c7.506 1.606 72.733 10.323 80.82 14.364 1.864 3.743 5.713 15.357 6.945 17.206 5.238 1.121 26.606 5.068 27.94 5.84.747 2.243 5.503 11.98 6.63 13.102 4.49 1.122 25.48 4.919 28.097 6.788 1.5 8.98 7.112 98.789-30.307 157.535-37.42 58.75-102.752 97.918-119.967 101.655h-.158c-17.214-3.738-82.547-42.91-119.966-101.655C19.877 182.924 25.489 93.116 26.984 84.135c2.622-1.874 23.607-5.666 28.098-6.788 1.126-1.121 5.882-10.859 6.63-13.101 1.333-.773 22.543-4.72 27.781-5.84 1.238-1.85 5.235-13.464 7.104-17.207 8.107-4.056 73.256-12.788 80.661-14.364z"/><path fill="#007ac2" d="M189.255 55.564c-2.46.242-2.826 1.963-2.841 2.683-.506 84.083-.266 173.284-.948 259.664.556 2.733 4.914-1.467 7.42-2.84 31.893-17.534 131.369-113.876 74.19-148.38 43.783-28.63 35.98-55.954 16.574-70.875-40.127-30.868-85.909-38.532-91.238-39.937-1.332-.35-2.337-.396-3.157-.315zm26.677 34.569c.621-.338 26.342 9.197 40.41 18.784 16.128 10.992 10.668 21.555 1.262 27.94-5.107 3.48-36.71 26.178-41.988 27.466-.116-4.38-.139-53.763.316-74.19zm23.52 96.131c3.523.108 6.87 1.235 9.313 3.788 2.182 2.087 11.8 12.456-8.682 42.147-7.628 13.466-23.621 30.356-25.414 32.043-.217.06-.307-.274-.474-.158.167-9.652-.092-56.381.474-69.454 1.133-.59 14.212-8.691 24.782-8.366zM80.529 85.84c-2.622 1.122-24.953 15.341-27.201 17.584-.621 19.821 4.692 73.298 24.266 115.037 2.475 5.278 5.162 10.228 8.072 14.709 5.581 9.637 5.895 8.875 12.39-.354 4.501-6.087 10.992-15.113 12.618-16.972 2.243 7.48 16.745 54.144 37.142 82.345 9.042 12.512 22.927 24.332 22.872 19.462-.556-47.648-1.92-253.9-.424-262.304-6.016-.142-25.752 2.43-29.656 4.455-.323 7.541 2.712 148.965.843 165.048-13.825-33.681-18.543-122.562-15.81-159.234-7.48 1.495-25.726 8.814-28.342 11.436-3.364 6.733 1.227 80.582 6.006 105.368-1.632 2.571-6.335 9.552-7.082 10.673-9.466-17.027-18.513-69.671-15.694-107.252z"/></svg>