<svg xmlns="http://www.w3.org/2000/svg" role="img" xmlns:xlink="http://www.w3.org/1999/xlink" viewBox="-4.16 1.84 224.82 255.32"><title>Zero Trust Working Group logo</title><defs><path d="M1.375-4.83594l26.39844-33.07422H3.3125v-5.1289h31.96094v5.01172L8.73047-5.125h26.54297V0H1.375zm0 0" id="a"/><path d="M16.9336-32.07813c2.22656 0 4.38671.51954 6.47265 1.56641 2.08984 1.04297 3.6836 2.39453 4.77734 4.0586 1.0547 1.58203 1.75782 3.42578 2.10938 5.53515.3125 1.44531.46875 3.75.46875 6.91406H7.76562c.09766 3.1836.84766 5.73828 2.25391 7.66016 1.40625 1.92578 3.58203 2.88672 6.53516 2.88672 2.7539 0 4.94922-.91016 6.58984-2.72266.9375-1.05469 1.60156-2.27734 1.99219-3.66406h5.1836c-.13673 1.15234-.58985 2.4375-1.35938 3.85156-.77344 1.41797-1.63672 2.57422-2.59375 3.47266C24.76562-.95703 22.78125.09766 20.42187.64453c-1.26953.3125-2.70703.46875-4.30859.46875-3.90625 0-7.21484-1.42187-9.9336-4.26172-2.71484-2.84375-4.0703-6.82031-4.0703-11.9375 0-5.03906 1.36718-9.13281 4.10156-12.27734 2.73437-3.14453 6.3086-4.71485 10.72265-4.71485zm8.41015 13.88282c-.21484-2.28516-.71484-4.10938-1.4961-5.47657-1.4453-2.53906-3.85546-3.80859-7.23828-3.80859-2.42187 0-4.45312.875-6.09374 2.6211-1.64063 1.75-2.50782 3.96874-2.60547 6.66406zm0 0" id="b"/><path d="M4.01563-31.375h5.0078v5.41797c.41016-1.05469 1.41407-2.33985 3.01563-3.85156 1.60157-1.51563 3.44922-2.26954 5.53907-2.26954.09765 0 .26562.00782.5.02735.23437.01953.6328.0586 1.19921.11719v5.5664c-.3125-.0586-.60156-.09765-.86328-.11718-.26562-.01954-.55468-.03126-.86718-.03126-2.65626 0-4.69532.85547-6.1211 2.56641C10-22.24219 9.28906-20.27344 9.28906-18.04687V0H4.01563zm0 0" id="c"/><path d="M16.32031-3.39844c3.4961 0 5.89063-1.32422 7.1914-3.96875 1.29688-2.64844 1.94923-5.59375 1.94923-8.83594 0-2.92968-.46875-5.3125-1.40625-7.14843C22.5703-26.2422 20.0078-27.6875 16.375-27.6875c-3.22266 0-5.5625 1.23438-7.03125 3.69531-1.46484 2.46094-2.19531 5.42969-2.19531 8.90625 0 3.33985.73437 6.1211 2.19531 8.34766 1.46484 2.22656 3.78906 3.33984 6.97656 3.33984zm.20313-28.88672c4.04297 0 7.46093 1.34766 10.2539 4.04297 2.79297 2.69532 4.19141 6.66016 4.19141 11.89453 0 5.0586-1.23438 9.23829-3.69531 12.53907C24.8125-.50781 20.99609 1.14063 15.8203 1.14063c-4.3164 0-7.74218-1.45704-10.28125-4.37891C3-6.15625 1.72656-10.07813 1.72656-15c0-5.27344 1.33985-9.47266 4.01563-12.59766 2.67578-3.125 6.26953-4.6875 10.78125-4.6875zm0 0" id="d"/><path d="M35.89063-43.03906v5.1289H21.38672V0h-5.91797v-37.91016h-14.5v-5.1289zm0 0" id="e"/><path d="M9.14063-31.375v20.82813c0 1.60156.2539 2.91015.76171 3.92578.9375 1.875 2.6836 2.8125 5.2461 2.8125 3.67187 0 6.17187-1.64063 7.5-4.92188.72265-1.75781 1.08203-4.16797 1.08203-7.23828V-31.375h5.27344V0h-4.98047l.0586-4.6289c-.6836 1.1914-1.53516 2.19921-2.55079 3.01952C19.51953.03126 17.07812.85156 14.21094.85156c-4.47266 0-7.52344-1.4961-9.14063-4.48437C4.19141-5.23437 3.75-7.375 3.75-10.04688V-31.375zm0 0" id="f"/><path d="M7-9.84375c.15625 1.75781.59766 3.10547 1.32031 4.04297C9.64844-4.10156 11.95313-3.25 15.23438-3.25c1.95312 0 3.67187-.42578 5.15625-1.27734C21.875-5.375 22.61718-6.6875 22.61718-8.46875c0-1.34766-.59375-2.3711-1.78907-3.07422-.76171-.42969-2.26562-.92578-4.5078-1.4961l-4.19141-1.05468C9.45313-14.75781 7.48047-15.5 6.21094-16.32031 3.9453-17.7461 2.8125-19.71875 2.8125-22.23438c0-2.96874 1.07031-5.375 3.20703-7.21093 2.14063-1.83594 5.01563-2.75 8.6289-2.75 4.72657 0 8.13282 1.38281 10.22657 4.15625 1.3086 1.75781 1.9414 3.65625 1.90234 5.6875h-4.98046c-.09766-1.1914-.51563-2.27735-1.25782-3.2539-1.21093-1.38673-3.3125-2.08204-6.30078-2.08204-1.99219 0-3.5.38281-4.52734 1.14453-1.02344.76172-1.53907 1.76953-1.53907 3.01953 0 1.36719.67579 2.46094 2.02344 3.28125.78125.48828 1.9336.91407 3.45703 1.28907l3.48828.84765c3.78907.91797 6.32813 1.8086 7.6172 2.66797 2.05077 1.34766 3.07421 3.46484 3.07421 6.35547 0 2.79297-1.0586 5.20703-3.17969 7.23828C22.53516.1875 19.3047 1.20313 14.96875 1.20313c-4.66797 0-7.97266-1.0625-9.91406-3.1797-1.94531-2.12109-2.98438-4.74218-3.1211-7.86718zm0 0" id="g"/><path d="M4.92188-40.13672h5.33203v8.76172h5.01172v4.30469H10.2539v20.47656c0 1.09375.37109 1.82813 1.11328 2.19922.41015.21484 1.09375.32422 2.05078.32422.2539 0 .52734-.00781.82031-.01563.29297-.01172.63672-.03515 1.02735-.07422V0c-.60547.17578-1.23829.30469-1.89063.38281C12.71875.46094 12.01172.5 11.25.5 8.78906.5 7.11719-.13281 6.24219-1.39063c-.8789-1.26171-1.32031-2.89843-1.32031-4.90625V-27.0703h-4.25V-31.375h4.25zm0 0" id="h"/><path d="M7.41406-43.03906l8.11328 35.01172 9.72657-35.01172h6.32812L41.3086-8.02734l8.11328-35.01172h6.39063L44.5 0h-6.1211l-9.93359-35.6836L18.45703 0h-6.1211l-11.25-43.03906zm0 0" id="i"/><path d="M3.75-43.03906h5.07031v24.99218L22.35156-31.375h6.74219L17.07812-19.6289 29.76563 0h-6.73828L13.2422-15.82031 8.8203-11.77734V0H3.75zm0 0" id="j"/><path d="M3.86719-31.23047h5.35937V0H3.8672zm0-11.8086h5.35937v5.97657H3.8672zm0 0" id="k"/><path d="M3.86719-31.375H8.875v4.45313c1.48438-1.83594 3.0586-3.15626 4.71875-3.95704 1.66016-.80078 3.50781-1.19921 5.53906-1.19921 4.45313 0 7.46094 1.55078 9.02344 4.65624.85938 1.69922 1.28906 4.13282 1.28906 7.29688V0h-5.36328v-19.77344c0-1.91406-.28515-3.46093-.84765-4.63281-.9375-1.95313-2.64063-2.92969-5.10157-2.92969-1.25 0-2.27343.1289-3.07422.38282-1.4453.42968-2.71484 1.28906-3.80859 2.57812-.8789 1.03516-1.44922 2.10547-1.71484 3.20703-.26172 1.10547-.39453 2.6836-.39453 4.73047V0H3.86719zm0 0" id="l"/><path d="M14.9414-31.9336c2.46094 0 4.60938.60547 6.44532 1.81641.9961.6836 2.01172 1.67969 3.04687 2.98828v-3.95703h4.86329v28.53907c0 3.98437-.58594 7.125-1.75782 9.42968-2.1875 4.25781-6.32031 6.39063-12.39062 6.39063-3.3789 0-6.22266-.75782-8.52735-2.27344-2.30468-1.51172-3.59375-3.88281-3.86718-7.10156h5.36328c.2539 1.40625.75781 2.48828 1.52343 3.25 1.19141 1.17187 3.0625 1.75781 5.625 1.75781 4.04297 0 6.6875-1.42578 7.9375-4.27734.7422-1.6797 1.08594-4.67579 1.02344-8.9961-1.05468 1.60156-2.32031 2.79688-3.80468 3.57813C18.9375-.00781 16.97265.3828 14.53125.3828c-3.39844 0-6.3711-1.20703-8.92188-3.6211-2.54687-2.41015-3.8203-6.40233-3.8203-11.96483 0-5.25391 1.28124-9.35938 3.85156-12.3047 2.5664-2.94921 5.66796-4.42577 9.30078-4.42577zm9.4922 16.11329c0-3.88672-.80079-6.76563-2.40235-8.64063s-3.64063-2.8125-6.125-2.8125c-3.71094 0-6.25 1.73438-7.61719 5.21094-.72265 1.85547-1.08203 4.28906-1.08203 7.29688 0 3.53515.71875 6.22656 2.15235 8.0703 1.4375 1.84766 3.36718 2.76954 5.78906 2.76954 3.78906 0 6.45312-1.70703 7.9961-5.1289.85937-1.9336 1.28905-4.1875 1.28905-6.76563zm0 0" id="m"/><path d="M23.17188-44.14844c4.04296 0 7.53906.78125 10.49218 2.34375C37.94141-39.55859 40.5547-35.625 41.51563-30h-5.77344c-.70313-3.14453-2.15625-5.4336-4.36719-6.8711-2.20703-1.43359-4.98828-2.15234-8.34766-2.15234-3.98437 0-7.33984 1.49219-10.0625 4.48438C10.23828-31.55078 8.875-27.10156 8.875-21.1797c0 5.11719 1.125 9.28125 3.3711 12.49219 2.24609 3.21484 5.91015 4.82031 10.98827 4.82031 3.88672 0 7.10157-1.1289 9.65235-3.38281 2.54687-2.25781 3.85156-5.90625 3.91016-10.94531H23.3203v-4.83203h18.89844V0h-3.75L37.0625-5.53906c-1.97266 2.16797-3.72266 3.67187-5.2461 4.51562-2.55859 1.44531-5.80859 2.16406-9.7539 2.16406-5.09766 0-9.48438-1.64843-13.15625-4.94921-4.0039-4.14063-6.00781-9.82422-6.00781-17.05079 0-7.20703 1.95312-12.9375 5.85937-17.1953 3.71094-4.0625 8.51563-6.09376 14.41407-6.09376zm0 0" id="n"/><path d="M17.10938-3.54688c2.46093 0 4.5078-1.02734 6.13671-3.08984 1.63282-2.0586 2.44922-5.14062 2.44922-9.24219 0-2.5-.36328-4.64843-1.08593-6.4453-1.3672-3.45704-3.8672-5.1836-7.5-5.1836-3.65235 0-6.15235 1.82422-7.5 5.47656-.72266 1.95313-1.08594 4.4336-1.08594 7.4414 0 2.42188.36328 4.48048 1.08593 6.1836 1.3672 3.24219 3.8672 4.85938 7.5 4.85938zM3.45702-31.23046h5.1289v4.16016c1.0547-1.42578 2.20313-2.53125 3.45313-3.3125 1.77735-1.17188 3.86719-1.75782 6.27344-1.75782 3.55469 0 6.57031 1.36329 9.05078 4.08985 2.48047 2.72265 3.72266 6.61328 3.72266 11.67578 0 6.83594-1.78907 11.71875-5.36328 14.64844C23.45703.1289 20.8203 1.05469 17.8125 1.05469c-2.36328 0-4.34375-.51563-5.94531-1.55469-.9375-.58594-1.98438-1.58984-3.13672-3.01563v16.02344H3.45703zm0 0" id="o"/></defs><use y="50" xlink:href="#a"/><use x="36.65" y="50" xlink:href="#b"/><use x="70.02" y="50" xlink:href="#c"/><use x="90" y="50" xlink:href="#d"/><g><use y="120" xlink:href="#e"/><use x="36.65" y="120" xlink:href="#c"/><use x="56.631" y="120" xlink:href="#f"/><use x="90" y="120" xlink:href="#g"/><use x="120" y="120" xlink:href="#h"/></g><g><use y="180" xlink:href="#i"/><use x="56.631" y="180" xlink:href="#d"/><use x="90" y="180" xlink:href="#c"/><use x="109.98" y="180" xlink:href="#j"/><use x="139.98" y="180" xlink:href="#k"/><use x="153.311" y="180" xlink:href="#l"/><use x="186.68" y="180" xlink:href="#m"/></g><g><use y="240" xlink:href="#n"/><use x="46.67" y="240" xlink:href="#c"/><use x="66.65" y="240" xlink:href="#d"/><use x="100.02" y="240" xlink:href="#f"/><use x="133.389" y="240" xlink:href="#o"/></g></svg>