<svg id="Layer_1" data-name="Layer 1" xmlns="http://www.w3.org/2000/svg" xmlns:xlink="http://www.w3.org/1999/xlink" viewBox="0 0 627.47991 212.57944"><defs><style>.cls-1{fill:none;}.cls-2{clip-path:url(#clip-path);}.cls-3{clip-path:url(#clip-path-2);}.cls-4{fill:#d2e4f4;}.cls-5{fill:#ffcd05;}.cls-6{fill:#44af59;}.cls-7{fill:#676767;}.cls-8{fill:#333;}</style><clipPath id="clip-path"><circle class="cls-1" cx="103.94547" cy="103.50587" r="90.4732"/></clipPath><clipPath id="clip-path-2"><rect class="cls-1" x="5.33214" y="5.1027" width="199.26745" height="199.26745"/></clipPath></defs><title>ASWF_Logo_landscape</title><g class="cls-2"><g class="cls-3"><path class="cls-4" d="M-2.81131,9.00152v44.513H-46.15739v29.6601H-2.728v71.30978c16.6311-13.43429,33.24263-26.86368,49.77076-40.45,4.4127-3.59554,7.35455-3.59554,11.44034.65371,16.18,16.67032,33.01381,32.85035,49.35729,49.35728,3.43208,3.59555,6.21047,3.59555,9.96948.6537,8.98893-7.19109,18.30471-13.89194,27.13018-21.24649,4.73955-3.92246,8.33516-3.75894,13.07478-.16339,15.54423,11.65931,31.24212,23.0214,47.08389,34.37029V9.00152Z"/><path class="cls-5" d="M136.64266,99.65237a28.19737,28.19737,0,1,0-.2788.00137Q136.50326,99.65374,136.64266,99.65237Z"/><path class="cls-6" d="M164.98373,193.68749h44.719v-39.0478c-15.8417-11.34889-31.53961-22.70925-47.08389-34.36866-4.73959-3.59554-8.33516-3.759-13.07476.16342-8.82549,7.35456-18.14126,14.05539-27.13015,21.24651-3.75894,2.94182-6.53739,2.94182-9.96951-.65373C96.10093,124.52035,79.26718,108.34028,63.08714,91.67c-4.08586-4.24929-7.02769-4.24929-11.44036-.65373C35.117,104.60257,18.50715,118.032,1.87605,131.4663v62.22281H135.37759v40.772h29.60618V193.68909Z"/></g></g><path class="cls-7" d="M223.55815,117.58622h-7.64421v57.66892h34.9732V169.037H223.55736V117.58622Zm67.49058,27.924q-.15871-6.49566-4.3573-10.19892-4.19778-3.70326-11.6043-3.70326a20.78869,20.78869,0,0,0-8.575,1.74275,15.54922,15.54922,0,0,0-6.179,4.73217,10.1111,10.1111,0,0,0-2.27716,6.19895h7.36663a5.83685,5.83685,0,0,1,2.65442-4.79358,10.68467,10.68467,0,0,1,6.57383-1.97885q4.47613,0,6.77323,2.278a8.232,8.232,0,0,1,2.29709,6.1184v3.36667h-7.12975q-9.22826,0-14.31694,3.70326a12.11536,12.11536,0,0,0-5.09028,10.39673,11.59548,11.59548,0,0,0,4.05978,9.09026,15.12449,15.12449,0,0,0,10.39673,3.58361,16.346,16.346,0,0,0,12.19851-5.30724,15.3678,15.3678,0,0,0,1.0305,4.516H292.553v-.63568a24.11744,24.11744,0,0,1-1.50426-9.38617Zm-7.32757,17.74343a10.78369,10.78369,0,0,1-4.47452,4.63326,12.87954,12.87954,0,0,1-6.53635,1.78344,8.82461,8.82461,0,0,1-5.90066-1.94136,6.66875,6.66875,0,0,1-2.29789-5.3862q0-7.88109,13.46669-7.8819h5.74273ZM322.53641,131.608a15.61463,15.61463,0,0,0-12.83339,6.17822l-.23769-5.3862H302.535v42.85509h7.32676V144.7174a12.90843,12.90843,0,0,1,4.19858-4.99059,10.57614,10.57614,0,0,1,6.258-1.90148q4.39636,0,6.47651,2.21892,2.07933,2.21893,2.11844,6.85139v28.3587h7.32756V146.93552q-.11964-15.32829-13.70357-15.32829Zm51.80576,5.14852Q369.945,131.608,362.41963,131.608a14.77794,14.77794,0,0,0-12.23838,6.00036q-4.67391,5.99955-4.67393,15.86269v.55353q0,9.82406,4.69467,15.9225a14.63518,14.63518,0,0,0,12.13868,6.09926q7.84281,0,12.23918-5.387l.35575,4.59577h6.73333v-60.837h-7.32676Zm0,26.81374a10.68518,10.68518,0,0,1-10.17818,6.258,9.72835,9.72835,0,0,1-8.319-4.118q-3.00934-4.1196-3.00936-11.40729,0-8.15944,3.00936-12.31815a9.77461,9.77461,0,0,1,8.39715-4.15868,10.77237,10.77237,0,0,1,10.09921,6.06017Zm44.2812-10.13911A39.54969,39.54969,0,0,0,409.73093,150.5q-5.48666-1.22672-7.58519-2.57387a4.44268,4.44268,0,0,1-2.0977-4.00076,5.48591,5.48591,0,0,1,2.25642-4.5543,10.02468,10.02468,0,0,1,6.25879-1.74275,9.57442,9.57442,0,0,1,6.43584,2.179,6.61451,6.61451,0,0,1,2.55391,5.1876h7.36744a11.952,11.952,0,0,0-4.53436-9.62465q-4.53674-3.76228-11.82364-3.76229a17.39586,17.39586,0,0,0-11.38654,3.645,11.11692,11.11692,0,0,0-4.4562,8.91079,9.47071,9.47071,0,0,0,1.56489,5.466,12.56227,12.56227,0,0,0,4.83188,3.96009,36.90192,36.90192,0,0,0,8.83263,2.85142q5.5641,1.18842,7.80214,2.83148a5.3965,5.3965,0,0,1,2.23727,4.61491,5.17245,5.17245,0,0,1-2.514,4.49528,11.81235,11.81235,0,0,1-6.67433,1.68374,11.44782,11.44782,0,0,1-7.26773-2.1583,7.58352,7.58352,0,0,1-2.95033-5.84242h-7.32835a12.26382,12.26382,0,0,0,2.23807,7.06914,14.80738,14.80738,0,0,0,6.19815,5.08949,21.58559,21.58559,0,0,0,9.11019,1.82252q7.32675,0,11.92173-3.46558a10.967,10.967,0,0,0,4.59419-9.2091,10.08332,10.08332,0,0,0-1.64305-5.84163,12.9722,12.9722,0,0,0-5.05041-4.09967Zm24.7336-11.783a10.25346,10.25346,0,0,1,8.654-4.0199,9.7961,9.7961,0,0,1,6.991,2.67355,10.101,10.101,0,0,1,3.14815,6.83225h6.93115a15.43348,15.43348,0,0,0-5.08947-11.20868,17.18667,17.18667,0,0,0-11.98-4.31742,18.73233,18.73233,0,0,0-10.159,2.6935,17.49306,17.49306,0,0,0-6.59537,7.56444,25.79835,25.79835,0,0,0-2.2971,11.12973v1.2283q0,10.13829,5.16847,15.98152,5.16846,5.84242,13.92213,5.84083a18.00642,18.00642,0,0,0,8.25836-1.97964,16.70022,16.70022,0,0,0,6.23724-5.30724,13.29375,13.29375,0,0,0,2.53559-7.0109h-6.93115a8.36278,8.36278,0,0,1-3.24785,5.94133,10.55546,10.55546,0,0,1-6.85219,2.37684,10.30345,10.30345,0,0,1-8.71378-4.00077q-3.05081-3.99994-3.05-11.40648v-1.387q0-7.60432,3.07-11.62423Zm66.59966,3.862q-.15875-6.49566-4.3573-10.19892T493.99425,131.608a20.78879,20.78879,0,0,0-8.57421,1.74275,15.54354,15.54354,0,0,0-6.179,4.73217,10.11191,10.11191,0,0,0-2.278,6.19895h7.36744a5.83683,5.83683,0,0,1,2.65363-4.79358,10.68547,10.68547,0,0,1,6.57461-1.97885q4.47613,0,6.77323,2.278a8.23125,8.23125,0,0,1,2.29709,6.1176v3.36747H495.5009q-9.229,0-14.31933,3.70326a12.11675,12.11675,0,0,0-5.0887,10.39673,11.59544,11.59544,0,0,0,4.05981,9.09026,15.11968,15.11968,0,0,0,10.39593,3.58361,16.34755,16.34755,0,0,0,12.20011-5.30724,15.31809,15.31809,0,0,0,1.02889,4.516h7.68489v-.63568a24.08642,24.08642,0,0,1-1.50665-9.38617Zm-7.32674,17.74343a10.78827,10.78827,0,0,1-4.47613,4.63326,12.87954,12.87954,0,0,1-6.53557,1.78344,8.82463,8.82463,0,0,1-5.90143-1.94136,6.66877,6.66877,0,0,1-2.29632-5.3862q0-7.88109,13.46589-7.8819h5.74351Zm38.3-31.64561q-7.96084,0-12.437,5.54493l-.35654-4.75291h-6.69349v59.33113h7.32757V171.09726q4.47453,4.9507,12.27747,4.94912A14.34643,14.34643,0,0,0,553.1682,170.066q4.47453-5.98042,4.47535-15.763v-.67317q0-10.37679-4.49526-16.20007a14.6154,14.6154,0,0,0-12.21925-5.82168Zm6.27711,34.28088a9.90385,9.90385,0,0,1-8.37719,4.17784,10.79156,10.79156,0,0,1-10.05934-5.86237V143.72758a10.7724,10.7724,0,0,1,9.98037-5.90225,9.95166,9.95166,0,0,1,8.47612,4.19857q3.08915,4.19857,3.08909,11.44637,0,8.23923-3.10983,12.417ZM583.824,131.608a17.12689,17.12689,0,0,0-9.48587,2.83149,18.99373,18.99373,0,0,0-6.81232,7.84281,25.71794,25.71794,0,0,0-2.43667,11.38654V155.016q0,9.58478,5.466,15.30756,5.466,5.72438,14.17976,5.72278,10.77316,0,16.1594-8.2775l-4.47453-3.48472a16.51078,16.51078,0,0,1-4.7138,4.19777,12.763,12.763,0,0,1-6.57461,1.58483,11.64016,11.64016,0,0,1-9.0121-3.90186,15.23126,15.23126,0,0,1-3.70165-10.238H601.4487v-3.05q0-10.25714-4.63406-15.76378-4.63409-5.505-12.99052-5.505Zm10.297,18.29856H572.6544q.71307-5.82249,3.724-9.05037a9.77455,9.77455,0,0,1,7.44562-3.22789,9.2035,9.2035,0,0,1,7.28687,3.06916q2.6935,3.07077,3.01013,8.654Z"/><polygon class="cls-8" points="474.482 32.469 473.563 32.469 466.582 52.174 467.501 52.174 474.482 32.469"/><polygon class="cls-8" points="479.418 40.351 480.248 40.351 480.07 37.312 482.449 38.892 482.829 38.147 480.183 36.874 482.853 35.597 482.449 34.856 480.07 36.431 480.248 33.444 479.418 33.444 479.597 36.431 477.218 34.856 476.814 35.597 479.484 36.874 476.814 38.147 477.218 38.892 479.597 37.312 479.418 40.351"/><path class="cls-8" d="M245.86466,32.40351l-28.63783,72.35513h1.73069l9.68174-23.95023h36.07667l9.78263,23.95023h1.73069l-28.6339-72.35513Zm-16.51138,46.876,17.32627-44.73786,17.42718,44.73787Z"/><path class="cls-8" d="M493.08513,44.98785h7.51647l1.63756,4.21807h.94295l-6.19325-15.94871h-.26775l-6.16993,15.94871h.91966Zm3.32168-8.603c.20177-.53163.42682-1.34652.4501-1.41249a14.84646,14.84646,0,0,0,.4501,1.43581l2.9841,7.74152h-6.87225Z"/><path class="cls-8" d="M512.35941,49.39218a7.27549,7.27549,0,0,0,6.2398-3.15093l-.69457-.50834a6.48742,6.48742,0,0,1-5.54133,2.80557,6.87522,6.87522,0,0,1-6.86841-7.2099,6.87525,6.87525,0,0,1,6.86841-7.2099,6.19137,6.19137,0,0,1,5.36278,2.66588l.69458-.53162a6.92745,6.92745,0,0,0-6.05741-2.99185,7.73582,7.73582,0,0,0-7.81138,8.06749A7.72944,7.72944,0,0,0,512.35941,49.39218Z"/><path class="cls-8" d="M522.97636,44.98785h7.51647l1.63756,4.21807h.94294l-6.19325-15.94871h-.26775L520.4424,49.20592h.91582Zm3.31778-8.603c.20178-.53163.42683-1.34652.45014-1.41249a14.83541,14.83541,0,0,0,.45011,1.43581l2.98405,7.74152H523.31Z"/><path class="cls-8" d="M547.97432,41.3247c0-4.8467-3.07331-7.88122-8.34689-7.88122h-3.25566V49.20592h3.25566C544.92036,49.20592,547.97432,46.1714,547.97432,41.3247ZM537.2914,48.34836V34.30106h2.22351c5.04849,0,7.497,2.89871,7.497,7.02366s-2.4447,7.02366-7.497,7.02366Z"/><polygon class="cls-8" points="560.787 48.372 552.483 48.372 552.483 41.697 559.643 41.697 559.643 40.859 552.483 40.859 552.483 34.278 560.473 34.278 560.473 33.444 551.564 33.444 551.564 49.206 560.787 49.206 560.787 48.372"/><path class="cls-8" d="M565.2967,36.68754c0-.55491-.04655-1.36592-.04655-1.36592s.45014.78774.83042,1.3l5.29685,7.27975h.24837l5.36279-7.27975a13.19433,13.19433,0,0,0,.83042-1.3s-.04655.811-.04655,1.36592V49.20592h.877V33.25722h-.2251l-6.88782,9.36744-6.88783-9.36744h-.22509v15.9487h.877V36.68754Z"/><path class="cls-8" d="M587.198,49.20592h.943V43.43567l5.32014-9.99219h-.96627l-4.39656,8.25374a5.64067,5.64067,0,0,0-.40356.95072,5.6872,5.6872,0,0,0-.36089-.95072L582.914,33.44348h-1.0322l5.32013,9.96891v5.79353Z"/><path class="cls-8" d="M281.20793,52.92729a14.9696,14.9696,0,0,1,3.14318-10.8498c4.25687-5.57623,11.86257-8.00928,18.55638-8.11017,6.38724-.1009,13.3837,1.82381,17.74536,6.48813a15.8823,15.8823,0,0,1,3.8533,7.70661l.10089.811,1.52114-.30267-.10089-.811c-3.44586-18.35068-32.65021-20.07752-42.99166-6.6938a16.67441,16.67441,0,0,0-3.345,11.86257c1.82381,26.46476,41.878,7.19827,46.4375,28.2886,2.94138,14.09384-10.44234,22.10311-22.81324,22.10311-9.63132,0-21.4939-5.37445-22.61147-16.01855l-.10089-.71013-1.622.20178.10089.71013C280.2999,99.0621,292.8726,104.941,303.214,104.941c13.48463,0,27.78022-8.92118,24.53618-23.93081C322.88022,58.30172,283.03174,77.77,281.20793,52.92729Z"/><polygon class="cls-8" points="391.782 102.101 374.56 53.312 372.305 53.312 355.088 102.101 332.026 32.403 330.385 32.403 354.37 104.763 355.806 104.763 373.435 54.642 391.165 104.763 392.6 104.763 416.586 32.403 414.944 32.403 391.782 102.101"/><path class="cls-8" d="M422.01832,104.87118h1.55221V69.41538h33.1741v-1.657h-33.1741V33.95958h37.53182V32.40351h-39.084Z"/><path class="cls-8" d="M476.3875,73.17554c0-2.18082-1.19131-3.52346-3.65925-4.68371l-1.41251-.67133c-1.88589-.90414-2.64648-1.66859-2.64648-3.24406a2.56677,2.56677,0,0,1,2.84826-2.66589,3.464,3.464,0,0,1,3.18587,1.92472l.71789-.48507a4.31423,4.31423,0,0,0-3.90372-2.27006,3.50083,3.50083,0,0,0-3.7485,3.52346c0,1.99456,1.05547,3.0384,3.18587,4.05508l1.41251.67132c2.13037,1.02054,3.1199,2.01785,3.1199,3.84941,0,1.99455-1.63756,3.1975-3.636,3.1975a4.47574,4.47574,0,0,1-4.30732-2.71245l-.78387.39581a5.27616,5.27616,0,0,0,5.11831,3.15482C474.50547,77.21123,476.3875,75.63576,476.3875,73.17554Z"/><path class="cls-8" d="M486.62028,77.21123a8.07181,8.07181,0,1,0-7.80749-8.06749A7.73581,7.73581,0,0,0,486.62028,77.21123Zm0-15.27739a7.21839,7.21839,0,1,1-6.86844,7.2099,6.87522,6.87522,0,0,1,6.86844-7.2099Z"/><polygon class="cls-8" points="498.941 69.885 506.166 69.885 506.166 69.027 498.941 69.027 498.941 62.097 506.907 62.097 506.907 61.263 498.021 61.263 498.021 77.025 498.941 77.025 498.941 69.885"/><polygon class="cls-8" points="514.001 77.025 514.92 77.025 514.92 62.097 519.767 62.097 519.767 61.263 509.15 61.263 509.15 62.097 514.001 62.097 514.001 77.025"/><path class="cls-8" d="M536.55023,73.94388a8.24053,8.24053,0,0,0-.26775,1.137c-.02327-.09313-.1358-.7179-.26775-1.137l-4.37714-12.86762h-.26775l-4.37719,12.86761a6.79272,6.79272,0,0,0-.291,1.137c-.02328-.09312-.13581-.7179-.24837-1.137L522.728,61.26252h-.98568l4.78073,15.94871h.24837L531.23789,64.138c.1358-.44238.24837-1.04385.26775-1.137a8.653,8.653,0,0,0,.24837,1.137l4.44312,13.07328h.24836l4.78074-15.9487h-.94294Z"/><path class="cls-8" d="M544.40428,72.80693h7.51647l1.63756,4.21806h.94294L548.308,61.07629h-.26776L541.87032,77.025H542.79Zm3.32167-8.603c.20178-.53162.42683-1.34652.45011-1.41248a14.84206,14.84206,0,0,0,.4501,1.43577l2.9841,7.74152h-6.8684Z"/><path class="cls-8" d="M567.18263,65.89579c0-3.06168-2.08771-4.63714-5.29686-4.63714h-4.08612V77.02109h.91967v-6.5153h3.1626a7.48851,7.48851,0,0,0,1.0322-.04657l3.702,6.56187h1.09817l-3.8378-6.74813A4.22992,4.22992,0,0,0,567.18263,65.89579Zm-5.38611,3.77957h-3.0733V62.09682h3.0733c2.91813,0,4.44312,1.3,4.44312,3.80286C566.23964,68.37929,564.71461,69.67537,561.79652,69.67536Z"/><polygon class="cls-8" points="580.446 76.191 572.141 76.191 572.141 69.513 579.302 69.513 579.302 68.678 572.141 68.678 572.141 62.097 580.131 62.097 580.131 61.263 571.222 61.263 571.222 77.025 580.446 77.025 580.446 76.191"/><polygon class="cls-8" points="466.853 104.712 467.773 104.712 467.773 97.572 474.998 97.572 474.998 96.714 467.773 96.714 467.773 89.784 475.739 89.784 475.739 88.946 466.853 88.946 466.853 104.712"/><path class="cls-8" d="M485.77044,88.76337a8.07168,8.07168,0,1,0,7.81139,8.06748A7.73581,7.73581,0,0,0,485.77044,88.76337Zm0,15.27739a7.21839,7.21839,0,1,1,6.86844-7.2099A6.87521,6.87521,0,0,1,485.77044,104.04076Z"/><path class="cls-8" d="M506.39126,99.4036c0,3.0384-1.75009,4.66044-4.24135,4.66044-2.51453,0-4.21807-1.622-4.21807-4.66044v-10.454h-.91967V99.47342c0,3.54678,2.20024,5.4249,5.13774,5.4249,2.91813,0,5.16106-1.87815,5.16106-5.4249V88.94961h-.91967Z"/><path class="cls-8" d="M522.437,101.697c0,.46178.066,1.18355.066,1.18355s-.40355-.648-.69458-1.04385l-9.76329-13.07328h-.26775v15.9487h.85369V91.96087c0-.46178-.066-1.18355-.066-1.18355s.40355.648.69458,1.04385l9.76325,13.07328h.26775V88.94575h-.8537V101.697Z"/><path class="cls-8" d="M531.16413,88.94575h-3.2557v15.76247h3.2557c5.29685,0,8.34689-3.0384,8.34689-7.88122C539.51487,91.98416,536.43767,88.94575,531.16413,88.94575Zm-.11257,14.90874h-2.22351V89.80722h2.22351c5.04849,0,7.49705,2.8987,7.49705,7.02365s-2.44467,7.02362-7.497,7.02362Z"/><path class="cls-8" d="M547.05461,88.76337l-6.16993,15.9487h.91967l1.61429-4.21806h7.51646l1.63757,4.21806h.94294L547.3224,88.76336h-.26779Zm3.56615,10.89634h-6.8684l2.9841-7.7648c.20177-.53163.42683-1.34265.4501-1.41249a14.844,14.844,0,0,0,.4501,1.43577Z"/><polygon class="cls-8" points="553.675 89.784 558.522 89.784 558.522 104.712 559.441 104.712 559.441 89.784 564.288 89.784 564.288 88.946 553.675 88.946 553.675 89.784"/><rect class="cls-8" x="567.42706" y="88.94575" width="0.91967" height="15.76244"/><path class="cls-8" d="M579.83679,88.76337a8.07181,8.07181,0,1,0,7.8075,8.06748A7.73581,7.73581,0,0,0,579.83679,88.76337Zm0,15.27739a7.21839,7.21839,0,1,1,6.86845-7.2099A6.87525,6.87525,0,0,1,579.83679,104.04076Z"/><path class="cls-8" d="M601.89721,88.94575V101.697c0,.46178.066,1.18355.066,1.18355s-.40355-.648-.69457-1.04385l-9.76325-13.07328h-.26775v15.9487h.85369V91.96087c0-.46178-.066-1.18355-.066-1.18355s.40355.648.69457,1.04385l9.76325,13.07328h.26775V88.94575Z"/></svg>
