<svg id="Layer_1" data-name="Layer 1" xmlns="http://www.w3.org/2000/svg" viewBox="0 0 860.63386 264.56271"><defs><style>.cls-1{fill:#43af5a;}.cls-2{fill:#fc0;}.cls-3{fill:#d2e4f4;}.cls-4{fill:#009ade;}.cls-5{fill:#003764;}.cls-6{fill:#333;}</style></defs><title>aswf-landscape-logo</title><path class="cls-1" d="M166.1256,198.59473h32.26385V170.42252c-11.42947-8.188-22.7552-16.38428-33.97009-24.79631-3.41953-2.59412-6.01366-2.71206-9.43318.1179-6.36741,5.30617-13.08857,10.14069-19.57387,15.32893-2.712,2.12247-4.7166,2.12247-7.19281-.47165-11.79148-11.9094-23.9367-23.583-35.61028-35.61027-2.94787-3.06578-5.07034-3.06578-8.254-.47166-11.9259,9.80226-23.90959,19.49133-35.9086,29.18391V198.5959h96.31873v29.41622h21.36028V198.59589Z"/><path class="cls-2" d="M152.51,114.14176A23.81952,23.81952,0,1,0,128.45535,90.323,23.81952,23.81952,0,0,0,152.51,114.14176Z"/><path class="cls-3" d="M48.44659,102.25241v51.44978c11.999-9.69259,23.98388-19.38165,35.9086-29.18392,3.1837-2.59412,5.30617-2.59412,8.254.47166,11.67357,12.02731,23.81879,23.70088,35.61028,35.61029,2.47621,2.59412,4.48077,2.59412,7.19281.47165,6.48532-5.18825,13.20646-10.02277,19.57387-15.32893,3.41952-2.83,6.01367-2.712,9.43319-.11791,11.21488,8.412,22.54061,16.6095,33.97009,24.7975V48.73912H48.38646V80.8544H17.11309v21.39919h31.3335ZM152.39206,66.50417a23.55938,23.55938,0,0,1,23.82037,23.29547h0q.00355.32063-.00158.64125a23.87782,23.87782,0,1,1-47.75551-.11146V90.323h0a23.63012,23.63012,0,0,1,23.43871-23.82h0Q152.143,66.50093,152.39206,66.50417Z"/><path class="cls-4" d="M144.76534,198.59473H48.44659V102.25241H17.11309V228.01094H144.76534Z"/><path class="cls-5" d="M17.11309,25.695V80.85322H48.38646V48.7403h150.003V198.59473H166.1256v29.41621h64.01948V16.78067H17.11309Z"/><polygon class="cls-6" points="636.608 19.687 635.253 19.687 624.965 48.727 626.32 48.727 636.608 19.687"/><polygon class="cls-6" points="643.882 31.302 645.106 31.302 644.843 26.824 648.349 29.152 648.909 28.054 645.009 26.178 648.944 24.297 648.349 23.204 644.843 25.526 645.106 21.123 643.882 21.123 644.146 25.526 640.64 23.204 640.045 24.297 643.98 26.178 640.045 28.054 640.64 29.152 644.146 26.824 643.882 31.302"/><path class="cls-6" d="M299.68694,19.59014,257.48242,126.2223H260.033l14.26832-35.29624h53.1674l14.417,35.29624h2.55058L302.23751,19.59014ZM275.35358,88.67286l25.5343-65.93168,25.683,65.93169H275.35358Z"/><path class="cls-6" d="M664.024,38.1361h11.07726l2.4133,6.21631h1.38966l-9.12717-23.50414h-.3946L660.2896,44.35241h1.35534Zm4.89527-12.67851c.29739-.78347.62905-1.98441.66336-2.08163a21.87335,21.87335,0,0,0,.66336,2.116l4.39774,11.40894H664.51581Z"/><path class="cls-6" d="M692.42912,44.62691a10.72214,10.72214,0,0,0,9.19579-4.64364l-1.02365-.74916a9.56075,9.56075,0,0,1-8.16642,4.13467c-5.78739,0-10.12222-4.54642-10.12222-10.62547s4.33483-10.62548,10.12222-10.62548a9.12445,9.12445,0,0,1,7.90335,3.9288l1.02364-.78347a10.20926,10.20926,0,0,0-8.927-4.40918c-6.34782,0-11.51188,4.81521-11.51188,11.88933S686.0813,44.62691,692.42912,44.62691Z"/><path class="cls-6" d="M708.07566,38.1361h11.07726l2.4133,6.21631h1.38966l-9.12717-23.50414h-.3946l-9.09285,23.50414H705.691Zm4.88954-12.67851c.29739-.78347.62905-1.98441.66337-2.08163a21.87036,21.87036,0,0,0,.66336,2.116l4.39773,11.40894H708.56743Z"/><path class="cls-6" d="M744.916,32.73759c0-7.14275-4.52926-11.61482-12.30108-11.61482h-4.798V44.35241h4.798C740.4153,44.35241,744.916,39.88033,744.916,32.73759Zm-15.74379,10.351V22.38662h3.27684c7.44013,0,11.04867,4.27192,11.04867,10.351s-3.60282,10.351-11.04867,10.351Z"/><polygon class="cls-6" points="763.799 43.123 751.561 43.123 751.561 33.287 762.112 33.287 762.112 32.051 751.561 32.051 751.561 22.352 763.336 22.352 763.336 21.123 750.206 21.123 750.206 44.352 763.799 44.352 763.799 43.123"/><path class="cls-6" d="M770.44456,25.90366c0-.81779-.06863-2.013-.06863-2.013s.66337,1.16091,1.22383,1.91579l7.80613,10.72841h.366l7.90335-10.72841a19.437,19.437,0,0,0,1.22382-1.91579s-.06862,1.19523-.06862,2.013V44.35241h1.29245V20.84827h-.3317L779.64038,34.65338,769.48957,20.84827h-.3317V44.35241h1.29245V25.90366Z"/><path class="cls-6" d="M802.72129,44.35241H804.111V35.8486l7.84044-14.72583h-1.424l-6.47937,12.16382a8.314,8.314,0,0,0-.59474,1.4011,8.3817,8.3817,0,0,0-.53184-1.4011l-6.51369-12.16382h-1.52117l7.84044,14.69152v8.53812Z"/><path class="cls-6" d="M351.77349,49.83671A22.06127,22.06127,0,0,1,356.4057,33.847c6.27349-8.21787,17.48228-11.80354,27.34716-11.95223,9.41308-.14869,19.724,2.68782,26.15193,9.56178a23.40635,23.40635,0,0,1,5.67874,11.35748l.14869,1.19522,2.24176-.44606-.14869-1.19523c-5.07827-27.044-48.11772-29.58891-63.35825-9.86487a24.57364,24.57364,0,0,0-4.92957,17.48227c2.68782,39.002,61.71694,10.60832,68.4365,41.68984,4.33482,20.77057-15.38921,32.5741-33.62065,32.5741-14.194,0-31.67626-7.9205-33.32327-23.60708l-.14869-1.04653-2.39044.29737.14869,1.04654c1.79569,16.88752,20.3245,25.55146,35.565,25.55146,19.87274,0,40.94066-13.14745,36.15978-35.26764C413.18734,57.7572,354.46131,86.44826,351.77349,49.83671Z"/><polygon class="cls-6" points="514.73 122.305 489.35 50.403 486.027 50.403 460.653 122.305 426.666 19.59 424.247 19.59 459.595 126.228 461.711 126.228 487.691 52.364 513.821 126.228 515.936 126.228 551.284 19.59 548.865 19.59 514.73 122.305"/><path class="cls-6" d="M559.29046,126.38815H561.578V74.13576h48.88975V71.69385H561.578V21.88337h55.31191V19.59014H559.29046Z"/><path class="cls-6" d="M639.41612,79.67724c0-3.21395-1.75566-5.19264-5.39279-6.90255l-2.08164-.98935c-2.77931-1.33247-3.90021-2.45907-3.90021-4.78089,0-2.35614,1.55549-3.9288,4.1976-3.9288a5.105,5.105,0,0,1,4.69512,2.83651l1.058-.71485a6.358,6.358,0,0,0-5.75308-3.34547c-3.04239,0-5.52432,1.97869-5.52432,5.19264,0,2.93945,1.55549,4.4778,4.69512,5.97611l2.08164.98935c3.1396,1.504,4.59788,2.97376,4.59788,5.673,0,2.93944-2.4133,4.71226-5.35848,4.71226a6.59609,6.59609,0,0,1-6.34782-3.99742l-1.15521.58332a7.77563,7.77563,0,0,0,7.54306,4.64935C636.64254,85.62476,639.41612,83.30294,639.41612,79.67724Z"/><path class="cls-6" d="M654.49652,85.62476c6.34782,0,11.51188-4.8152,11.51188-11.88932s-5.15834-11.88932-11.51188-11.88932c-6.34782,0-11.50617,4.8152-11.50617,11.88932S648.1487,85.62476,654.49652,85.62476Zm0-22.51479c5.78739,0,10.12222,4.54642,10.12222,10.62547s-4.33483,10.62548-10.12222,10.62548-10.12223-4.54642-10.12223-10.62548S648.70912,63.11,654.49652,63.11Z"/><polygon class="cls-6" points="672.654 74.828 683.302 74.828 683.302 73.564 672.654 73.564 672.654 63.35 684.394 63.35 684.394 62.121 671.298 62.121 671.298 85.35 672.654 85.35 672.654 74.828"/><polygon class="cls-6" points="694.848 85.35 696.203 85.35 696.203 63.35 703.346 63.35 703.346 62.121 687.7 62.121 687.7 63.35 694.848 63.35 694.848 85.35"/><path class="cls-6" d="M728.07994,80.80956a12.1425,12.1425,0,0,0-.39459,1.6756c-.03432-.13725-.20015-1.058-.3946-1.6756L720.84,61.84612h-.3946l-6.45078,18.96344a10.01418,10.01418,0,0,0-.42891,1.6756c-.03431-.13724-.20014-1.058-.366-1.6756l-5.49-18.68893H706.2571l7.04553,23.50414h.366L720.251,66.35823c.20014-.65194.366-1.53835.39459-1.6756a12.74906,12.74906,0,0,0,.366,1.6756l6.548,19.26654h.366l7.04553-23.50414h-1.38966Z"/><path class="cls-6" d="M739.65472,79.134H750.732l2.4133,6.2163h1.38966l-9.12717-23.50414h-.3946l-9.09285,23.50414h1.35534ZM744.55,66.45545c.29739-.78347.62905-1.98441.66336-2.08163a21.87258,21.87258,0,0,0,.66336,2.11594l4.39774,11.40894H740.15222Z"/><path class="cls-6" d="M773.22391,68.94883c0-4.5121-3.0767-6.83392-7.80614-6.83392h-6.02188V85.34454h1.35535V75.74273h4.66081a11.035,11.035,0,0,0,1.52117-.06863l5.4557,9.67044h1.61842l-5.65587-9.94493A6.23374,6.23374,0,0,0,773.22391,68.94883Zm-7.93766,5.57008H760.757V63.35016h4.52925c4.30053,0,6.548,1.91579,6.548,5.60439C771.83421,72.60884,769.58674,74.51891,765.28625,74.51891Z"/><polygon class="cls-6" points="792.771 84.121 780.532 84.121 780.532 74.279 791.084 74.279 791.084 73.049 780.532 73.049 780.532 63.35 792.307 63.35 792.307 62.121 779.177 62.121 779.177 85.35 792.771 85.35 792.771 84.121"/><polygon class="cls-6" points="625.365 126.154 626.72 126.154 626.72 115.631 637.369 115.631 637.369 114.367 626.72 114.367 626.72 104.154 638.461 104.154 638.461 102.918 625.365 102.918 625.365 126.154"/><path class="cls-6" d="M653.2441,102.64954c-6.34782,0-11.51188,4.8152-11.51188,11.88931s5.15834,11.88933,11.51188,11.88933c6.34782,0,11.51189-4.8152,11.51189-11.88933C664.75026,107.46474,659.592,102.64954,653.2441,102.64954Zm0,22.5148c-5.78739,0-10.12222-4.54642-10.12222-10.62548s4.33483-10.62547,10.12222-10.62547,10.12223,4.54642,10.12223,10.62547C663.36061,120.61791,659.0315,125.16434,653.2441,125.16434Z"/><path class="cls-6" d="M683.63365,118.3304c0,4.4778-2.57917,6.86824-6.25061,6.86824-3.70575,0-6.2163-2.39044-6.2163-6.86824V102.924H669.8114v15.5093c0,5.227,3.24253,7.99484,7.57164,7.99484,4.30053,0,7.606-2.76788,7.606-7.99484V102.924h-1.35535Z"/><path class="cls-6" d="M707.28078,121.71019c0,.68054.09721,1.74423.09721,1.74423s-.59474-.955-1.02365-1.53835L691.9659,102.64954h-.3946v23.50413h1.25814V107.3618c0-.68054-.09721-1.74423-.09721-1.74423s.59474.955,1.02365,1.53835l14.38841,19.26653h.39459V102.91831h-1.25813v18.79188Z"/><path class="cls-6" d="M720.14229,102.91832h-4.79806V126.148h4.79806c7.80613,0,12.30108-4.4778,12.30108-11.61482C732.44905,107.39612,727.91407,102.91832,720.14229,102.91832Zm-.16587,21.97151h-3.27684V104.18789h3.27684c7.44012,0,11.04867,4.27192,11.04867,10.351S727.42227,124.88983,719.97642,124.88983Z"/><path class="cls-6" d="M743.56062,102.64954l-9.09286,23.50413h1.35535l2.379-6.2163h11.07725l2.41331,6.2163h1.38965l-9.12716-23.50414h-.39453Zm5.25555,16.0583H738.69394l4.39774-11.44325c.29738-.78347.62905-1.9787.66336-2.08163a21.87348,21.87348,0,0,0,.66336,2.11594Z"/><polygon class="cls-6" points="753.317 104.154 760.46 104.154 760.46 126.154 761.815 126.154 761.815 104.154 768.958 104.154 768.958 102.918 753.317 102.918 753.317 104.154"/><rect class="cls-6" x="773.58416" y="102.91832" width="1.35535" height="23.22964"/><path class="cls-6" d="M791.8728,102.64954c-6.34782,0-11.51188,4.8152-11.51188,11.88931s5.15834,11.88933,11.51188,11.88933c6.34782,0,11.50616-4.8152,11.50616-11.88933C803.38469,107.46474,798.22635,102.64954,791.8728,102.64954Zm0,22.5148c-5.78739,0-10.12223-4.54642-10.12223-10.62548s4.33484-10.62547,10.12223-10.62547,10.12223,4.54642,10.12223,10.62547S797.66019,125.16434,791.8728,125.16434Z"/><path class="cls-6" d="M824.384,102.91832v18.79187c0,.68054.09721,1.74423.09721,1.74423s-.59474-.955-1.02365-1.53835l-14.3884-19.26653h-.3946v23.50413h1.25814V107.3618c0-.68054-.09721-1.74423-.09721-1.74423s.59474.955,1.02364,1.53835l14.38841,19.26653h.3946V102.91831H824.384Z"/><path class="cls-6" d="M263.81206,224.4962h43.1416v6.24024H256.37212V143.37413h7.43994Z"/><path class="cls-6" d="M360.41557,230.73644a33.92957,33.92957,0,0,1-1.38037-9.06055,25.02938,25.02938,0,0,1-9.63037,7.59082,29.5067,29.5067,0,0,1-12.39014,2.66992q-9.36034,0-15.15039-5.2207a17.00125,17.00125,0,0,1-5.79052-13.2002,17.37574,17.37574,0,0,1,7.89062-15q7.88892-5.51952,21.99072-5.5205h13.02v-7.37989q0-6.96093-4.29-10.95117-4.29052-3.98877-12.51025-3.98926-7.50147,0-12.42041,3.83985-4.9204,3.84081-4.92041,9.24023l-7.20019-.06055q0-7.74022,7.20019-13.41015,7.20044-5.67041,17.70068-5.66992,10.85962,0,17.13086,5.42968,6.2688,5.43165,6.4502,15.15137v30.7207q0,9.42042,1.98,14.10059v.71973Zm-22.561-5.16016a24.10376,24.10376,0,0,0,12.8706-3.48047,20.47357,20.47357,0,0,0,8.25-9.2998V198.51573H346.13481q-10.741.12012-16.80029,3.92969-6.06153,3.81153-6.06055,10.4707a11.6038,11.6038,0,0,0,4.0503,9.05957A15.25731,15.25731,0,0,0,337.85454,225.57628Z"/><path class="cls-6" d="M392.09673,165.81456l.23974,11.10059a25.76924,25.76924,0,0,1,9.12061-9.15039,23.69106,23.69106,0,0,1,12.06006-3.15039q10.44068,0,15.54052,5.87988,5.09913,5.88135,5.16016,17.64062v42.60157h-7.14014V188.0753q-.06078-8.6997-3.68994-12.96093-3.63135-4.25978-11.61035-4.25977a18.16512,18.16512,0,0,0-11.79053,4.16992,24.44025,24.44025,0,0,0-7.59033,11.25v44.46192h-7.14014V165.81456Z"/><path class="cls-6" d="M449.878,197.67491q0-15.12011,6.75048-24.09082,6.74928-8.96923,18.32959-8.96972,13.14112,0,20.041,10.37988v-36.4209h7.14062v92.16309H495.419l-.2998-8.64063q-6.90089,9.8423-20.28028,9.84082a21.64523,21.64523,0,0,1-18.09033-9.03027q-6.87158-9.03077-6.8706-24.39063Zm7.26025,1.26075q0,12.4204,4.98,19.59082a16.10551,16.10551,0,0,0,14.04,7.16992q13.25976,0,18.84082-11.7002V183.51476q-5.5796-12.65919-18.7207-12.66016a16.29834,16.29834,0,0,0-14.09961,7.11035Q457.13823,185.07531,457.13823,198.93566Z"/><path class="cls-6" d="M559.92094,214.23546a10.23266,10.23266,0,0,0-4.29-8.58008q-4.29054-3.24023-12.92969-5.07031a58.27889,58.27889,0,0,1-13.41113-4.2002,17.85085,17.85085,0,0,1-7.08008-5.79,14.44322,14.44322,0,0,1-2.30957-8.28028,15.44634,15.44634,0,0,1,6.41992-12.69043q6.41895-5.00829,16.44043-5.00976,10.85889,0,17.43066,5.37011a17.23588,17.23588,0,0,1,6.57032,14.01075h-7.2002a11.62812,11.62812,0,0,0-4.77051-9.48047,18.76608,18.76608,0,0,0-12.03027-3.78028q-7.08105,0-11.37012,3.15039a9.71928,9.71928,0,0,0-4.29,8.19043,8.85554,8.85554,0,0,0,3.56934,7.53028q3.56982,2.6704,13.02051,4.88965,9.45117,2.22069,14.16113,4.74023a18.34867,18.34867,0,0,1,6.99023,6.06055,16.66646,16.66646,0,0,1-4.35058,21.7207q-6.62988,4.92041-17.31055,4.91992-11.34082,0-18.39062-5.49023-7.05177-5.49024-7.04981-13.89063h7.2002a12.48116,12.48116,0,0,0,5.30957,9.81055q4.88964,3.50976,12.93066,3.50977,7.5,0,12.12012-3.29981Q559.92095,219.27745,559.92094,214.23546Z"/><path class="cls-6" d="M607.26274,225.87609a18.96484,18.96484,0,0,0,12.57031-4.2295,14.89035,14.89035,0,0,0,5.49024-10.95117h6.90039a20.33672,20.33672,0,0,1-3.7207,10.83106,23.29851,23.29851,0,0,1-9.08985,7.65039,27.41155,27.41155,0,0,1-12.15039,2.75976q-12.78077,0-20.251-8.88086-7.4707-8.87841-7.46973-23.87988v-2.16016a40.58093,40.58093,0,0,1,3.35937-16.98046,25.88631,25.88631,0,0,1,9.63086-11.4004,26.58416,26.58416,0,0,1,14.66992-4.0205q10.68018,0,17.61133,6.36035,6.93018,6.36034,7.41016,16.74023h-6.90039a17.37375,17.37375,0,0,0-18.1211-16.98047q-9.71923,0-15.08984,7.02051-5.37158,7.01953-5.37012,19.68067v2.09961q0,12.4204,5.37012,19.38085Q597.481,225.87707,607.26274,225.87609Z"/><path class="cls-6" d="M687.54594,230.73644a33.93306,33.93306,0,0,1-1.37988-9.06055,25.0346,25.0346,0,0,1-9.63086,7.59082,29.50727,29.50727,0,0,1-12.39062,2.66992q-9.36036,0-15.15039-5.2207a17.00245,17.00245,0,0,1-5.79-13.2002,17.37574,17.37574,0,0,1,7.89062-15q7.88966-5.51952,21.99024-5.5205h13.02051v-7.37989q0-6.96093-4.29-10.95117-4.29054-3.98877-12.51075-3.98926-7.5,0-12.41992,3.83985-4.9204,3.84081-4.91992,9.24023l-7.2002-.06055q0-7.74022,7.2002-13.41015,7.1997-5.67041,17.7002-5.66992,10.85888,0,17.13085,5.42968,6.26954,5.43165,6.4502,15.15137v30.7207q0,9.42042,1.97949,14.10059v.71973Zm-22.56054-5.16016a24.10331,24.10331,0,0,0,12.87012-3.48047,20.4709,20.4709,0,0,0,8.25-9.2998V198.51573H673.26567q-10.74169.12012-16.80078,3.92969-6.06153,3.81153-6.06055,10.4707a11.60427,11.60427,0,0,0,4.05078,9.05957A15.25483,15.25483,0,0,0,664.9854,225.57628Z"/><path class="cls-6" d="M764.587,198.93566q0,15.18016-6.71973,24.09082a21.407,21.407,0,0,1-18.001,8.91015q-13.31984,0-20.40039-9.36035v33.12109h-7.13965V165.81456h6.66015l.35938,9.17969q7.021-10.37988,20.34082-10.37988,11.63966,0,18.27051,8.82031,6.62988,8.81982,6.62988,24.48047Zm-7.20019-1.26075q0-12.42041-5.09961-19.62011a16.44723,16.44723,0,0,0-14.22071-7.2002,18.94509,18.94509,0,0,0-18.60058,12.41992v31.1416a19.06383,19.06383,0,0,0,7.37988,8.52051,21.28433,21.28433,0,0,0,11.34082,2.93946,16.29209,16.29209,0,0,0,14.13086-7.23047Q757.38725,211.41661,757.38677,197.67491Z"/><path class="cls-6" d="M805.629,231.93663a28.1766,28.1766,0,0,1-14.9707-4.08008,27.805,27.805,0,0,1-10.41016-11.37011,35.44579,35.44579,0,0,1-3.71972-16.35059v-2.58008a38.19792,38.19792,0,0,1,3.62988-16.86133,28.88663,28.88663,0,0,1,10.11035-11.79,24.94645,24.94645,0,0,1,14.04-4.29q11.81982,0,18.751,8.07031,6.93016,8.06982,6.93066,22.05078V198.755H783.668v1.38086q0,11.04052,6.33105,18.39063a20.13409,20.13409,0,0,0,15.92969,7.34961,23.39152,23.39152,0,0,0,10.1709-2.09961,22.55051,22.55051,0,0,0,8.00976-6.72071l4.5,3.41992Q820.69047,231.93811,805.629,231.93663Zm-1.32031-61.20215a17.95173,17.95173,0,0,0-13.65039,5.94043q-5.5503,5.93994-6.75,15.96h38.94141v-.77929q-.3003-9.36036-5.33985-15.24121A16.55111,16.55111,0,0,0,804.30864,170.73448Z"/></svg>