<svg id="Layer_1" data-name="Layer 1" xmlns="http://www.w3.org/2000/svg" viewBox="0 0 1000 202.10001"><defs><style>.cls-1{fill:#1dcad3;}.cls-2{fill:#36b0c9;}</style></defs><title>aswf-logo</title><polygon class="cls-1" points="666.009 8.147 663.639 8.147 645.649 58.927 648.019 58.927 666.009 8.147"/><polygon class="cls-2" points="678.729 28.457 680.869 28.457 680.409 20.627 686.539 24.697 687.519 22.777 680.699 19.497 687.579 16.207 686.539 14.297 680.409 18.357 680.869 10.657 678.729 10.657 679.189 18.357 673.059 14.297 672.019 16.207 678.899 19.497 672.019 22.777 673.059 24.697 679.189 20.627 678.729 28.457"/><path class="cls-1" d="M76.85946,7.97719l-73.8,186.46h4.46l24.95-61.72h92.97l25.21,61.72h4.46l-73.79-186.46Zm-42.55,120.8,44.65-115.29,44.91,115.29h-89.56Z"/><path class="cls-1" d="M713.94948,40.40719h19.37l4.22,10.87h2.43l-15.96-41.1h-.69l-15.9,41.1h2.37Zm8.56-22.17c.52-1.37,1.1-3.47,1.16-3.64a38.24325,38.24325,0,0,0,1.16,3.7l7.69,19.95h-17.71Z"/><path class="cls-1" d="M763.61946,51.75719c6.82,0,12.61-2.93,16.08-8.12l-1.79-1.31a16.71819,16.71819,0,0,1-14.28,7.23c-10.12,0-17.7-7.95-17.7-18.58s7.58-18.58,17.7-18.58c6.25,0,10.93,2.63,13.82,6.87l1.79-1.37c-3.3-4.96-8.73-7.71-15.61-7.71-11.1,0-20.13,8.42-20.13,20.79S752.51948,51.75719,763.61946,51.75719Z"/><path class="cls-1" d="M790.97944,40.40719h19.37l4.22,10.87h2.43l-15.96-41.1h-.69l-15.9,41.1h2.36011Zm8.55-22.17c.52-1.37,1.1-3.47,1.16-3.64a38.24325,38.24325,0,0,0,1.16,3.7l7.69,19.95h-17.7Z"/><path class="cls-1" d="M855.39949,30.96719c0-12.49-7.92-20.31-21.51-20.31h-8.39v40.62h8.39C847.52943,51.27719,855.39949,43.45719,855.39949,30.96719Zm-27.53,18.1v-36.2h5.73c13.01,0,19.32,7.47,19.32,18.1s-6.3,18.1-19.32,18.1Z"/><polygon class="cls-1" points="888.419 49.127 867.019 49.127 867.019 31.927 885.469 31.927 885.469 29.767 867.019 29.767 867.019 12.807 887.609 12.807 887.609 10.657 864.649 10.657 864.649 51.277 888.419 51.277 888.419 49.127"/><path class="cls-1" d="M900.03944,19.01719c0-1.43-.12-3.52-.12-3.52s1.16,2.03,2.14,3.35l13.65,18.76h.64l13.82-18.76a33.98881,33.98881,0,0,0,2.14-3.35s-.12,2.09-.12,3.52v32.26h2.26v-41.1h-.58l-17.75,24.14-17.75-24.14h-.58v41.1h2.26v-32.26Z"/><path class="cls-1" d="M956.47944,51.27719h2.43v-14.87l13.71-25.75h-2.49l-11.33,21.27a14.53885,14.53885,0,0,0-1.04,2.45,14.65508,14.65508,0,0,0-.93-2.45l-11.39-21.27h-2.66l13.71,25.69v14.93Z"/><path class="cls-1" d="M167.93947,60.86719c-.78-10.19,1.57-19.86,8.1-27.96,10.97-14.37,30.57-20.64,47.82-20.9,16.46-.26,34.49,4.7,45.73,16.72a40.92876,40.92876,0,0,1,9.93,19.86l.26,2.09,3.92-.78-.26-2.09c-8.88-47.29-84.14-51.74-110.79-17.25a42.97015,42.97015,0,0,0-8.62,30.57c4.7,68.2,107.92,18.55,119.67,72.9,7.58,36.32-26.91,56.96-58.79,56.96-24.82,0-55.39-13.85-58.27-41.28l-.26-1.83-4.18.52.26,1.83c3.14,29.53,35.54,44.68,62.19,44.68,34.75,0,71.59-22.99,63.23-61.67C275.32945,74.71719,172.63946,124.88718,167.93947,60.86719Z"/><polygon class="cls-1" points="452.889 187.587 408.509 61.857 402.699 61.857 358.329 187.587 298.899 7.977 294.669 7.977 356.479 194.447 360.179 194.447 405.609 65.287 451.299 194.447 454.999 194.447 516.809 7.977 512.579 7.977 452.889 187.587"/><path class="cls-1" d="M530.80946,194.7272h4v-91.37h85.49v-4.27h-85.49v-87.1h96.72v-4.01h-100.72Z"/><path class="cls-1" d="M670.91945,113.04719c0-5.62-3.07-9.08-9.43-12.07l-3.64-1.73c-4.86-2.33-6.82-4.3-6.82-8.36,0-4.12,2.72-6.87,7.34-6.87,4.34,0,6.59,2.27,8.21,4.96l1.85-1.25a11.11772,11.11772,0,0,0-10.06-5.85c-5.32,0-9.66,3.46-9.66,9.08,0,5.14,2.72,7.83,8.21,10.45l3.64,1.73c5.49,2.63,8.04,5.2,8.04,9.92,0,5.14-4.22,8.24-9.37,8.24-6.3,0-9.25-3.41-11.1-6.99l-2.02,1.02c1.91,4.06,5.73,8.13,13.19,8.13C666.06947,123.44719,670.91945,119.38719,670.91945,113.04719Z"/><path class="cls-1" d="M697.28944,123.44719c11.1,0,20.13-8.42,20.13-20.79s-9.02-20.79-20.13-20.79c-11.1,0-20.12,8.42-20.12,20.79S686.18947,123.44719,697.28944,123.44719Zm0-39.37c10.12,0,17.7,7.95,17.7,18.58s-7.58,18.58-17.7,18.58-17.7-7.95-17.7-18.58S687.16945,84.07719,697.28944,84.07719Z"/><polygon class="cls-1" points="729.039 104.567 747.659 104.567 747.659 102.357 729.039 102.357 729.039 84.497 749.569 84.497 749.569 82.347 726.669 82.347 726.669 122.967 729.039 122.967 729.039 104.567"/><polygon class="cls-1" points="767.849 122.967 770.219 122.967 770.219 84.497 782.709 84.497 782.709 82.347 755.349 82.347 755.349 84.497 767.849 84.497 767.849 122.967"/><path class="cls-1" d="M825.95949,115.02719a21.23217,21.23217,0,0,0-.69,2.93c-.06-.24-.35-1.85-.69-2.93l-11.28-33.16h-.69l-11.28,33.16a17.51189,17.51189,0,0,0-.75,2.93c-.06-.24-.35-1.85-.64-2.93l-9.6-32.68h-2.54l12.32,41.1h.64l11.51-33.69c.35-1.14.64-2.69.69-2.93a22.292,22.292,0,0,0,.64,2.93l11.45,33.69h.64l12.32-41.1h-2.43Z"/><path class="cls-1" d="M846.19948,112.09719h19.37l4.22,10.87h2.43l-15.96-41.1h-.69l-15.9,41.1h2.37Zm8.56-22.17c.52-1.37,1.1-3.47,1.16-3.64a38.24325,38.24325,0,0,0,1.16,3.7l7.69,19.95h-17.7Z"/><path class="cls-1" d="M904.89949,94.28719c0-7.89-5.38-11.95-13.65-11.95h-10.53v40.62h2.37v-16.79h8.15a19.29775,19.29775,0,0,0,2.66-.12l9.54,16.91h2.83l-9.89-17.39C901.71943,104.08719,904.89949,100.20719,904.89949,94.28719Zm-13.88,9.74h-7.92v-19.53h7.92c7.52,0,11.45,3.35,11.45,9.8C902.46943,100.68719,898.53944,104.02719,891.01948,104.02719Z"/><polygon class="cls-1" points="939.079 120.817 917.679 120.817 917.679 103.607 936.129 103.607 936.129 101.457 917.679 101.457 917.679 84.497 938.269 84.497 938.269 82.347 915.309 82.347 915.309 122.967 939.079 122.967 939.079 120.817"/><polygon class="cls-1" points="646.349 194.317 648.719 194.317 648.719 175.917 667.339 175.917 667.339 173.707 648.719 173.707 648.719 155.847 669.249 155.847 669.249 153.687 646.349 153.687 646.349 194.317"/><path class="cls-1" d="M695.09944,153.21719c-11.1,0-20.13,8.42-20.13,20.79s9.02,20.79,20.13,20.79c11.1,0,20.13-8.42,20.13-20.79C715.21943,161.63718,706.19948,153.21719,695.09944,153.21719Zm0,39.37c-10.12,0-17.7-7.95-17.7-18.58s7.58-18.58,17.7-18.58,17.7,7.95,17.7,18.58C712.78944,184.63718,705.21943,192.5872,695.09944,192.5872Z"/><path class="cls-1" d="M748.23945,180.63718c0,7.83-4.51,12.01-10.93,12.01-6.48,0-10.87-4.18-10.87-12.01v-26.94h-2.37v27.12c0,9.14,5.67,13.98,13.24,13.98,7.52,0,13.3-4.84,13.3-13.98v-27.12h-2.37Z"/><path class="cls-1" d="M789.58949,186.54719c0,1.19.17,3.05.17,3.05s-1.04-1.67-1.79-2.69l-25.16-33.69h-.69v41.1h2.2v-32.86c0-1.19-.17-3.05-.17-3.05s1.04,1.67,1.79,2.69l25.16,33.69h.69v-41.1h-2.2v32.86Z"/><path class="cls-1" d="M812.07948,153.68719h-8.39v40.62h8.39c13.65,0,21.51-7.83,21.51-20.31C833.59944,161.51719,825.66945,153.68719,812.07948,153.68719Zm-.29,38.42h-5.73v-36.2h5.73c13.01,0,19.32,7.47,19.32,18.1S824.80946,192.10719,811.78944,192.10719Z"/><path class="cls-1" d="M853.02943,153.21719l-15.9,41.1h2.37l4.16-10.87h19.37l4.22,10.87h2.43l-15.96-41.1h-.68988Zm9.19,28.08h-17.7l7.69-20.01c.52-1.37,1.1-3.46,1.16-3.64a38.24835,38.24835,0,0,0,1.16,3.7Z"/><polygon class="cls-1" points="870.089 155.847 882.579 155.847 882.579 194.317 884.949 194.317 884.949 155.847 897.439 155.847 897.439 153.687 870.089 153.687 870.089 155.847"/><rect class="cls-1" x="905.52943" y="153.68719" width="2.37" height="40.62"/><path class="cls-1" d="M937.50947,153.21719c-11.1,0-20.13,8.42-20.13,20.79s9.02,20.79,20.13,20.79c11.1,0,20.12-8.42,20.12-20.79C957.63948,161.63718,948.61946,153.21719,937.50947,153.21719Zm0,39.37c-10.12,0-17.7-7.95-17.7-18.58s7.58-18.58,17.7-18.58,17.7,7.95,17.7,18.58S947.62947,192.5872,937.50947,192.5872Z"/><path class="cls-1" d="M994.35945,153.68719v32.86c0,1.19.17,3.05.17,3.05s-1.04-1.67-1.79-2.69l-25.16-33.69h-.69v41.1h2.2v-32.86c0-1.19-.17-3.05-.17-3.05s1.04,1.67,1.79,2.69l25.16,33.69h.69v-41.1h-2.2Z"/></svg>